0, 0, Header, 1, 35, 240
1, 0, Start_track
1, 0, Sequencer_specific, 10, 0, 0, 91, 35, 1, 0, 5, 6, 42, 0
1, 0, Title_t, "Ludwig van Beethoven - Symphony No. 9 in D-minor, Op.125"
1, 0, SMPTE_offset, 96, 0, 3, 0, 0
1, 0, MIDI_port, 0
1, 0, Marker_t, "Originally Sequenced 15 July 1998"
1, 0, Key_signature, -1, "minor"
1, 0, Marker_t, "Presto"
1, 0, Tempo, 208333
1, 0, Time_signature, 4, 2, 24, 8
1, 960, Time_signature, 3, 2, 24, 8
1, 5280, Marker_t, "Tempo I Allegro"
1, 5280, Tempo, 357142
1, 11520, Tempo, 208333
1, 17760, Tempo, 357142
1, 21120, Tempo, 681818
1, 21120, Time_signature, 2, 2, 24, 8
1, 24960, Tempo, 357142
1, 24960, Time_signature, 3, 2, 24, 8
1, 29520, Tempo, 357142
1, 29560, Tempo, 368098
1, 29600, Tempo, 377358
1, 29640, Tempo, 389610
1, 29680, Tempo, 402684
1, 29720, Tempo, 413793
1, 29760, Tempo, 428571
1, 29800, Tempo, 444444
1, 29840, Tempo, 458015
1, 29880, Tempo, 476190
1, 29920, Tempo, 495867
1, 29960, Tempo, 512820
1, 30000, Marker_t, "Poco adagio"
1, 30000, Tempo, 535714
1, 31920, Tempo, 1500000
1, 32160, Marker_t, "Vivace"
1, 32160, Tempo, 172413
1, 37200, Time_signature, 4, 2, 24, 8
1, 37920, Tempo, 1000000
1, 38160, Tempo, 357142
1, 38160, Marker_t, "Tempo I"
1, 38160, Time_signature, 3, 2, 24, 8
1, 41760, Tempo, 357142
1, 41880, Tempo, 363636
1, 42000, Tempo, 370370
1, 42120, Tempo, 377358
1, 42240, Tempo, 384615
1, 42360, Tempo, 392156
1, 42480, Tempo, 400000
1, 42600, Tempo, 408163
1, 42720, Tempo, 416666
1, 42840, Tempo, 425531
1, 42960, Tempo, 434782
1, 43080, Tempo, 444444
1, 43200, Tempo, 1200000
1, 43200, Time_signature, 4, 2, 24, 8
1, 43200, Marker_t, "Adagio cantabile"
1, 43200, Key_signature, -2, "major"
1, 45120, Tempo, 357142
1, 45120, Marker_t, "Tempo I"
1, 45120, Time_signature, 3, 2, 24, 8
1, 53760, Marker_t, "Allegro assai"
1, 53760, Key_signature, 2, "major"
1, 53760, Time_signature, 4, 2, 24, 8
1, 53760, Tempo, 375000
1, 57600, Time_signature, 3, 2, 24, 8
1, 57600, Marker_t, "Tempo I"
1, 57600, Tempo, 357142
1, 65520, Marker_t, "Allegro assai"
1, 65520, Tempo, 375000
1, 65520, Time_signature, 4, 2, 24, 8
1, 172080, Tempo, 375000
1, 172160, Tempo, 377358
1, 172240, Tempo, 379746
1, 172320, Tempo, 384615
1, 172400, Tempo, 387096
1, 172480, Tempo, 389610
1, 172560, Tempo, 392156
1, 172640, Tempo, 397350
1, 172720, Tempo, 400000
1, 172800, Tempo, 402684
1, 172880, Tempo, 405405
1, 172960, Tempo, 410958
1, 173040, Tempo, 413793
1, 173760, Tempo, 444444
1, 174840, Tempo, 375000
1, 176880, Tempo, 208333
1, 176880, Time_signature, 3, 2, 24, 8
1, 176880, Key_signature, -1, "minor"
1, 182640, Tempo, 571428
1, 192720, Key_signature, 2, "major"
1, 196320, Tempo, 1200000
1, 196680, Tempo, 571428
1, 197760, Time_signature, 4, 2, 24, 8
1, 197760, Tempo, 375000
1, 287040, Time_signature, 8, 2, 24, 8
1, 288960, Key_signature, -2, "major"
1, 288960, Marker_t, "Allegro assai vivace"
1, 288960, Time_signature, 6, 3, 36, 8
1, 288960, Tempo, 476190
1, 405600, Key_signature, 2, "major"
1, 478680, Tempo, 1428571
1, 479040, Marker_t, "Andante maestoso"
1, 479040, Time_signature, 3, 1, 48, 8
1, 479040, Key_signature, 1, "major"
1, 479040, Tempo, 416666
1, 513600, Key_signature, -1, "minor"
1, 526560, Tempo, 500000
1, 526560, Key_signature, -2, "minor"
1, 566820, Tempo, 7500000
1, 566880, Tempo, 238095
1, 566880, Time_signature, 6, 2, 72, 8
1, 566880, Key_signature, 2, "major"
1, 567600, Tempo, 238095
1, 723720, Tempo, 1500000
1, 723840, Tempo, 250000
1, 723840, Marker_t, "Allegro ma non tanto"
1, 723840, Time_signature, 4, 2, 24, 8
1, 768960, Tempo, 750000
1, 768960, Marker_t, "Poco Adagio"
1, 772800, Tempo, 250000
1, 790080, Tempo, 750000
1, 793920, Key_signature, 5, "major"
1, 800400, Tempo, 2400000
1, 800640, Key_signature, 2, "minor"
1, 800640, Tempo, 428571
1, 800960, Tempo, 413793
1, 801280, Tempo, 400000
1, 801600, Tempo, 384615
1, 801920, Tempo, 372670
1, 802240, Tempo, 361445
1, 802560, Tempo, 350877
1, 802880, Tempo, 340909
1, 803200, Tempo, 331491
1, 803520, Tempo, 320855
1, 803840, Tempo, 312500
1, 804160, Tempo, 304568
1, 804480, Tempo, 297029
1, 804800, Tempo, 289855
1, 805120, Tempo, 283018
1, 805440, Tempo, 275229
1, 805760, Tempo, 269058
1, 806080, Tempo, 263157
1, 806400, Tempo, 257510
1, 806720, Tempo, 252100
1, 807040, Tempo, 246913
1, 807360, Tempo, 240963
1, 807680, Tempo, 236220
1, 808000, Tempo, 231660
1, 808320, Key_signature, 2, "major"
1, 808320, Tempo, 227272
1, 870720, Tempo, 1000000
1, 870720, Time_signature, 3, 2, 24, 8
1, 870720, Marker_t, "Maestoso"
1, 873600, Time_signature, 4, 2, 24, 8
1, 873600, Marker_t, "Prestissimo"
1, 873600, Tempo, 227272
1, 873600, End_track
2, 0, Start_track
2, 0, Title_t, "4th Movement - Finale"
2, 0, MIDI_port, 0
2, 0, End_track
3, 0, Start_track
3, 0, Title_t, "Sequenced by D.L. Viens 27 Jan 2001"
3, 0, MIDI_port, 0
3, 0, End_track
4, 0, Start_track
4, 0, Title_t, "dlviens@empire.net"
4, 0, MIDI_port, 0
4, 0, End_track
5, 0, Start_track
5, 0, MIDI_port, 0
5, 0, End_track
6, 0, Start_track
6, 0, Title_t, "Piccolo"
6, 0, MIDI_port, 0
6, 0, Control_c, 0, 121, 0
6, 288960, Program_c, 0, 72
6, 288960, Control_c, 0, 11, 127
6, 288960, Control_c, 0, 10, 55
6, 288960, Control_c, 0, 7, 72
6, 297840, Note_on_c, 0, 86, 32
6, 297929, Note_on_c, 0, 86, 0
6, 297960, Note_on_c, 0, 86, 32
6, 298544, Note_on_c, 0, 86, 0
6, 298560, Note_on_c, 0, 87, 32
6, 298649, Note_on_c, 0, 87, 0
6, 298680, Note_on_c, 0, 89, 32
6, 299264, Note_on_c, 0, 89, 0
6, 299280, Note_on_c, 0, 89, 32
6, 299369, Note_on_c, 0, 89, 0
6, 299400, Note_on_c, 0, 87, 32
6, 299984, Note_on_c, 0, 87, 0
6, 300000, Note_on_c, 0, 86, 32
6, 300089, Note_on_c, 0, 86, 0
6, 300120, Note_on_c, 0, 84, 32
6, 300704, Note_on_c, 0, 84, 0
6, 300720, Note_on_c, 0, 82, 32
6, 300809, Note_on_c, 0, 82, 0
6, 300840, Note_on_c, 0, 82, 32
6, 301424, Note_on_c, 0, 82, 0
6, 301440, Note_on_c, 0, 84, 32
6, 301529, Note_on_c, 0, 84, 0
6, 301560, Note_on_c, 0, 86, 32
6, 302144, Note_on_c, 0, 86, 0
6, 302160, Note_on_c, 0, 86, 32
6, 302249, Note_on_c, 0, 86, 0
6, 302280, Note_on_c, 0, 84, 32
6, 302864, Note_on_c, 0, 84, 0
6, 302880, Note_on_c, 0, 82, 32
6, 302969, Note_on_c, 0, 82, 0
6, 303000, Note_on_c, 0, 84, 32
6, 303584, Note_on_c, 0, 84, 0
6, 303600, Note_on_c, 0, 86, 32
6, 303689, Note_on_c, 0, 86, 0
6, 303720, Note_on_c, 0, 98, 32
6, 304304, Note_on_c, 0, 98, 0
6, 304320, Note_on_c, 0, 99, 32
6, 304409, Note_on_c, 0, 99, 0
6, 304440, Note_on_c, 0, 101, 32
6, 305024, Note_on_c, 0, 101, 0
6, 305040, Note_on_c, 0, 101, 32
6, 305129, Note_on_c, 0, 101, 0
6, 305160, Note_on_c, 0, 99, 32
6, 305744, Note_on_c, 0, 99, 0
6, 305760, Note_on_c, 0, 98, 32
6, 305849, Note_on_c, 0, 98, 0
6, 305880, Note_on_c, 0, 96, 32
6, 306464, Note_on_c, 0, 96, 0
6, 306480, Note_on_c, 0, 94, 32
6, 306569, Note_on_c, 0, 94, 0
6, 306600, Note_on_c, 0, 94, 32
6, 307184, Note_on_c, 0, 94, 0
6, 307200, Note_on_c, 0, 96, 32
6, 307289, Note_on_c, 0, 96, 0
6, 307320, Note_on_c, 0, 98, 32
6, 307904, Note_on_c, 0, 98, 0
6, 307920, Note_on_c, 0, 96, 32
6, 308009, Note_on_c, 0, 96, 0
6, 308040, Note_on_c, 0, 96, 32
6, 308219, Note_on_c, 0, 96, 0
6, 308280, Note_on_c, 0, 94, 32
6, 308369, Note_on_c, 0, 94, 0
6, 308400, Note_on_c, 0, 94, 32
6, 308639, Note_on_c, 0, 94, 0
6, 309360, Note_on_c, 0, 96, 32
6, 309464, Note_on_c, 0, 96, 0
6, 309480, Note_on_c, 0, 96, 32
6, 310184, Note_on_c, 0, 96, 0
6, 310200, Note_on_c, 0, 98, 32
6, 310424, Note_on_c, 0, 98, 0
6, 310440, Note_on_c, 0, 94, 32
6, 310544, Note_on_c, 0, 94, 0
6, 310560, Note_on_c, 0, 96, 32
6, 310784, Note_on_c, 0, 96, 0
6, 310800, Note_on_c, 0, 96, 32
6, 310904, Note_on_c, 0, 96, 0
6, 310920, Note_on_c, 0, 96, 32
6, 311399, Note_on_c, 0, 96, 0
6, 311400, Note_on_c, 0, 98, 32
6, 311519, Note_on_c, 0, 98, 0
6, 311520, Note_on_c, 0, 99, 32
6, 311624, Note_on_c, 0, 99, 0
6, 311640, Note_on_c, 0, 98, 32
6, 311819, Note_on_c, 0, 98, 0
6, 311880, Note_on_c, 0, 94, 32
6, 311969, Note_on_c, 0, 94, 0
6, 312000, Note_on_c, 0, 96, 32
6, 312119, Note_on_c, 0, 96, 0
6, 312120, Note_on_c, 0, 98, 32
6, 312239, Note_on_c, 0, 98, 0
6, 312240, Note_on_c, 0, 99, 32
6, 312344, Note_on_c, 0, 99, 0
6, 312360, Note_on_c, 0, 98, 32
6, 312539, Note_on_c, 0, 98, 0
6, 312600, Note_on_c, 0, 94, 32
6, 312689, Note_on_c, 0, 94, 0
6, 312720, Note_on_c, 0, 96, 32
6, 312839, Note_on_c, 0, 96, 0
6, 312840, Note_on_c, 0, 98, 32
6, 312959, Note_on_c, 0, 98, 0
6, 312960, Note_on_c, 0, 99, 32
6, 313064, Note_on_c, 0, 99, 0
6, 313080, Note_on_c, 0, 98, 32
6, 313304, Note_on_c, 0, 98, 0
6, 313320, Note_on_c, 0, 96, 32
6, 313559, Note_on_c, 0, 96, 0
6, 313560, Note_on_c, 0, 94, 32
6, 313679, Note_on_c, 0, 94, 0
6, 313680, Note_on_c, 0, 93, 32
6, 313784, Note_on_c, 0, 93, 0
6, 313800, Note_on_c, 0, 94, 32
6, 314024, Note_on_c, 0, 94, 0
6, 314040, Note_on_c, 0, 96, 32
6, 314144, Note_on_c, 0, 96, 0
6, 314160, Note_on_c, 0, 89, 32
6, 314279, Note_on_c, 0, 89, 0
6, 314280, Note_on_c, 0, 91, 32
6, 314399, Note_on_c, 0, 91, 0
6, 314400, Note_on_c, 0, 93, 32
6, 314519, Note_on_c, 0, 93, 0
6, 314520, Note_on_c, 0, 94, 32
6, 314639, Note_on_c, 0, 94, 0
6, 314640, Note_on_c, 0, 96, 32
6, 314759, Note_on_c, 0, 96, 0
6, 314760, Note_on_c, 0, 98, 32
6, 314864, Note_on_c, 0, 98, 0
6, 314880, Note_on_c, 0, 98, 32
6, 315104, Note_on_c, 0, 98, 0
6, 315120, Note_on_c, 0, 98, 32
6, 315224, Note_on_c, 0, 98, 0
6, 315240, Note_on_c, 0, 98, 32
6, 315824, Note_on_c, 0, 98, 0
6, 315840, Note_on_c, 0, 99, 32
6, 315944, Note_on_c, 0, 99, 0
6, 315960, Note_on_c, 0, 101, 32
6, 316544, Note_on_c, 0, 101, 0
6, 316560, Note_on_c, 0, 101, 32
6, 316664, Note_on_c, 0, 101, 0
6, 316680, Note_on_c, 0, 99, 32
6, 317264, Note_on_c, 0, 99, 0
6, 317280, Note_on_c, 0, 98, 32
6, 317384, Note_on_c, 0, 98, 0
6, 317400, Note_on_c, 0, 96, 32
6, 317984, Note_on_c, 0, 96, 0
6, 318000, Note_on_c, 0, 94, 32
6, 318104, Note_on_c, 0, 94, 0
6, 318120, Note_on_c, 0, 94, 32
6, 318704, Note_on_c, 0, 94, 0
6, 318720, Note_on_c, 0, 96, 32
6, 318824, Note_on_c, 0, 96, 0
6, 318840, Note_on_c, 0, 98, 32
6, 319424, Note_on_c, 0, 98, 0
6, 319440, Note_on_c, 0, 96, 32
6, 319529, Note_on_c, 0, 96, 0
6, 319560, Note_on_c, 0, 96, 32
6, 319739, Note_on_c, 0, 96, 0
6, 319800, Note_on_c, 0, 94, 32
6, 319889, Note_on_c, 0, 94, 0
6, 319920, Note_on_c, 0, 94, 32
6, 320159, Note_on_c, 0, 94, 0
6, 320880, Note_on_c, 0, 86, 32
6, 320984, Note_on_c, 0, 86, 0
6, 321000, Note_on_c, 0, 86, 32
6, 321584, Note_on_c, 0, 86, 0
6, 321600, Note_on_c, 0, 87, 32
6, 321704, Note_on_c, 0, 87, 0
6, 321720, Note_on_c, 0, 89, 32
6, 322304, Note_on_c, 0, 89, 0
6, 322320, Note_on_c, 0, 89, 32
6, 322424, Note_on_c, 0, 89, 0
6, 322440, Note_on_c, 0, 87, 32
6, 323024, Note_on_c, 0, 87, 0
6, 323040, Note_on_c, 0, 86, 32
6, 323144, Note_on_c, 0, 86, 0
6, 323160, Note_on_c, 0, 84, 32
6, 323744, Note_on_c, 0, 84, 0
6, 323760, Note_on_c, 0, 82, 32
6, 323864, Note_on_c, 0, 82, 0
6, 323880, Note_on_c, 0, 82, 32
6, 324464, Note_on_c, 0, 82, 0
6, 324480, Note_on_c, 0, 84, 32
6, 324584, Note_on_c, 0, 84, 0
6, 324600, Note_on_c, 0, 86, 32
6, 325184, Note_on_c, 0, 86, 0
6, 325200, Note_on_c, 0, 86, 32
6, 325304, Note_on_c, 0, 86, 0
6, 325320, Note_on_c, 0, 84, 32
6, 325904, Note_on_c, 0, 84, 0
6, 325920, Note_on_c, 0, 82, 32
6, 326024, Note_on_c, 0, 82, 0
6, 326040, Note_on_c, 0, 84, 32
6, 326624, Note_on_c, 0, 84, 0
6, 326640, Note_on_c, 0, 86, 32
6, 326744, Note_on_c, 0, 86, 0
6, 326760, Note_on_c, 0, 98, 32
6, 327344, Note_on_c, 0, 98, 0
6, 327360, Note_on_c, 0, 99, 32
6, 327464, Note_on_c, 0, 99, 0
6, 327480, Note_on_c, 0, 101, 33
6, 328064, Note_on_c, 0, 101, 0
6, 328080, Note_on_c, 0, 101, 33
6, 328184, Note_on_c, 0, 101, 0
6, 328200, Note_on_c, 0, 99, 33
6, 328784, Note_on_c, 0, 99, 0
6, 328800, Note_on_c, 0, 98, 34
6, 328904, Note_on_c, 0, 98, 0
6, 328920, Note_on_c, 0, 96, 34
6, 329504, Note_on_c, 0, 96, 0
6, 329520, Note_on_c, 0, 94, 34
6, 329624, Note_on_c, 0, 94, 0
6, 329640, Note_on_c, 0, 94, 35
6, 330224, Note_on_c, 0, 94, 0
6, 330240, Note_on_c, 0, 96, 35
6, 330344, Note_on_c, 0, 96, 0
6, 330360, Note_on_c, 0, 98, 35
6, 330944, Note_on_c, 0, 98, 0
6, 330960, Note_on_c, 0, 96, 36
6, 331049, Note_on_c, 0, 96, 0
6, 331080, Note_on_c, 0, 96, 36
6, 331259, Note_on_c, 0, 96, 0
6, 331320, Note_on_c, 0, 94, 36
6, 331409, Note_on_c, 0, 94, 0
6, 331440, Note_on_c, 0, 94, 36
6, 331679, Note_on_c, 0, 94, 0
6, 332400, Note_on_c, 0, 96, 37
6, 332504, Note_on_c, 0, 96, 0
6, 332520, Note_on_c, 0, 96, 37
6, 333224, Note_on_c, 0, 96, 0
6, 333240, Note_on_c, 0, 98, 38
6, 333464, Note_on_c, 0, 98, 0
6, 333480, Note_on_c, 0, 94, 38
6, 333584, Note_on_c, 0, 94, 0
6, 333600, Note_on_c, 0, 96, 38
6, 333824, Note_on_c, 0, 96, 0
6, 333840, Note_on_c, 0, 96, 38
6, 333944, Note_on_c, 0, 96, 0
6, 333960, Note_on_c, 0, 96, 39
6, 334439, Note_on_c, 0, 96, 0
6, 334440, Note_on_c, 0, 98, 39
6, 334559, Note_on_c, 0, 98, 0
6, 334560, Note_on_c, 0, 99, 39
6, 334664, Note_on_c, 0, 99, 0
6, 334680, Note_on_c, 0, 98, 39
6, 334859, Note_on_c, 0, 98, 0
6, 334920, Note_on_c, 0, 94, 39
6, 335024, Note_on_c, 0, 94, 0
6, 335040, Note_on_c, 0, 96, 40
6, 335159, Note_on_c, 0, 96, 0
6, 335160, Note_on_c, 0, 98, 40
6, 335279, Note_on_c, 0, 98, 0
6, 335280, Note_on_c, 0, 99, 40
6, 335384, Note_on_c, 0, 99, 0
6, 335400, Note_on_c, 0, 98, 40
6, 335579, Note_on_c, 0, 98, 0
6, 335640, Note_on_c, 0, 94, 40
6, 335729, Note_on_c, 0, 94, 0
6, 335760, Note_on_c, 0, 96, 40
6, 335879, Note_on_c, 0, 96, 0
6, 335880, Note_on_c, 0, 98, 40
6, 335999, Note_on_c, 0, 98, 0
6, 336000, Note_on_c, 0, 99, 40
6, 336104, Note_on_c, 0, 99, 0
6, 336120, Note_on_c, 0, 98, 41
6, 336344, Note_on_c, 0, 98, 0
6, 336360, Note_on_c, 0, 96, 41
6, 336599, Note_on_c, 0, 96, 0
6, 336600, Note_on_c, 0, 94, 41
6, 336719, Note_on_c, 0, 94, 0
6, 336720, Note_on_c, 0, 93, 41
6, 336824, Note_on_c, 0, 93, 0
6, 336840, Note_on_c, 0, 94, 41
6, 337019, Note_on_c, 0, 94, 0
6, 337080, Note_on_c, 0, 96, 41
6, 337169, Note_on_c, 0, 96, 0
6, 337200, Note_on_c, 0, 89, 42
6, 337319, Note_on_c, 0, 89, 0
6, 337320, Note_on_c, 0, 91, 42
6, 337439, Note_on_c, 0, 91, 0
6, 337440, Note_on_c, 0, 93, 42
6, 337559, Note_on_c, 0, 93, 0
6, 337560, Note_on_c, 0, 94, 42
6, 337679, Note_on_c, 0, 94, 0
6, 337680, Note_on_c, 0, 96, 42
6, 337799, Note_on_c, 0, 96, 0
6, 337800, Note_on_c, 0, 98, 42
6, 337904, Note_on_c, 0, 98, 0
6, 337920, Note_on_c, 0, 98, 42
6, 338144, Note_on_c, 0, 98, 0
6, 338160, Note_on_c, 0, 98, 42
6, 338264, Note_on_c, 0, 98, 0
6, 338280, Note_on_c, 0, 98, 43
6, 338864, Note_on_c, 0, 98, 0
6, 338880, Note_on_c, 0, 99, 43
6, 338984, Note_on_c, 0, 99, 0
6, 339000, Note_on_c, 0, 101, 43
6, 339584, Note_on_c, 0, 101, 0
6, 339600, Note_on_c, 0, 101, 50
6, 339704, Note_on_c, 0, 101, 0
6, 339720, Note_on_c, 0, 99, 50
6, 340304, Note_on_c, 0, 99, 0
6, 340320, Note_on_c, 0, 98, 50
6, 340424, Note_on_c, 0, 98, 0
6, 340440, Note_on_c, 0, 96, 50
6, 341024, Note_on_c, 0, 96, 0
6, 341040, Note_on_c, 0, 94, 50
6, 341144, Note_on_c, 0, 94, 0
6, 341160, Note_on_c, 0, 94, 50
6, 341744, Note_on_c, 0, 94, 0
6, 341760, Note_on_c, 0, 96, 50
6, 341864, Note_on_c, 0, 96, 0
6, 341880, Note_on_c, 0, 98, 50
6, 342464, Note_on_c, 0, 98, 0
6, 342480, Note_on_c, 0, 96, 50
6, 342569, Note_on_c, 0, 96, 0
6, 342600, Note_on_c, 0, 96, 50
6, 342779, Note_on_c, 0, 96, 0
6, 342840, Note_on_c, 0, 94, 50
6, 342929, Note_on_c, 0, 94, 0
6, 342960, Note_on_c, 0, 94, 50
6, 343199, Note_on_c, 0, 94, 0
6, 343920, Note_on_c, 0, 96, 50
6, 344024, Note_on_c, 0, 96, 0
6, 344040, Note_on_c, 0, 96, 50
6, 344744, Note_on_c, 0, 96, 0
6, 344760, Note_on_c, 0, 98, 50
6, 344984, Note_on_c, 0, 98, 0
6, 345000, Note_on_c, 0, 94, 50
6, 345104, Note_on_c, 0, 94, 0
6, 345120, Note_on_c, 0, 96, 50
6, 345344, Note_on_c, 0, 96, 0
6, 345360, Note_on_c, 0, 96, 50
6, 345464, Note_on_c, 0, 96, 0
6, 345480, Note_on_c, 0, 96, 50
6, 345959, Note_on_c, 0, 96, 0
6, 345960, Note_on_c, 0, 98, 50
6, 346079, Note_on_c, 0, 98, 0
6, 346080, Note_on_c, 0, 99, 50
6, 346184, Note_on_c, 0, 99, 0
6, 346200, Note_on_c, 0, 98, 50
6, 346379, Note_on_c, 0, 98, 0
6, 346440, Note_on_c, 0, 94, 50
6, 346529, Note_on_c, 0, 94, 0
6, 346560, Note_on_c, 0, 96, 68
6, 346679, Note_on_c, 0, 96, 0
6, 346680, Note_on_c, 0, 98, 68
6, 346799, Note_on_c, 0, 98, 0
6, 346800, Note_on_c, 0, 99, 68
6, 346904, Note_on_c, 0, 99, 0
6, 346920, Note_on_c, 0, 98, 68
6, 347099, Note_on_c, 0, 98, 0
6, 347160, Note_on_c, 0, 94, 68
6, 347249, Note_on_c, 0, 94, 0
6, 347280, Note_on_c, 0, 96, 68
6, 347399, Note_on_c, 0, 96, 0
6, 347400, Note_on_c, 0, 98, 68
6, 347519, Note_on_c, 0, 98, 0
6, 347520, Note_on_c, 0, 99, 68
6, 347624, Note_on_c, 0, 99, 0
6, 347640, Note_on_c, 0, 98, 68
6, 347864, Note_on_c, 0, 98, 0
6, 347880, Note_on_c, 0, 96, 68
6, 348119, Note_on_c, 0, 96, 0
6, 348120, Note_on_c, 0, 94, 68
6, 348239, Note_on_c, 0, 94, 0
6, 348240, Note_on_c, 0, 93, 68
6, 348344, Note_on_c, 0, 93, 0
6, 348360, Note_on_c, 0, 94, 68
6, 348539, Note_on_c, 0, 94, 0
6, 348600, Note_on_c, 0, 96, 68
6, 348689, Note_on_c, 0, 96, 0
6, 348720, Note_on_c, 0, 89, 68
6, 348839, Note_on_c, 0, 89, 0
6, 348840, Note_on_c, 0, 91, 68
6, 348959, Note_on_c, 0, 91, 0
6, 348960, Note_on_c, 0, 93, 68
6, 349079, Note_on_c, 0, 93, 0
6, 349080, Note_on_c, 0, 94, 68
6, 349199, Note_on_c, 0, 94, 0
6, 349200, Note_on_c, 0, 96, 68
6, 349319, Note_on_c, 0, 96, 0
6, 349320, Note_on_c, 0, 98, 68
6, 349424, Note_on_c, 0, 98, 0
6, 349440, Note_on_c, 0, 98, 68
6, 349664, Note_on_c, 0, 98, 0
6, 349680, Note_on_c, 0, 98, 68
6, 349784, Note_on_c, 0, 98, 0
6, 349800, Note_on_c, 0, 98, 68
6, 350384, Note_on_c, 0, 98, 0
6, 350400, Note_on_c, 0, 99, 68
6, 350504, Note_on_c, 0, 99, 0
6, 350520, Note_on_c, 0, 101, 68
6, 351104, Note_on_c, 0, 101, 0
6, 351120, Note_on_c, 0, 101, 68
6, 351224, Note_on_c, 0, 101, 0
6, 351240, Note_on_c, 0, 99, 68
6, 351824, Note_on_c, 0, 99, 0
6, 351840, Note_on_c, 0, 98, 68
6, 351944, Note_on_c, 0, 98, 0
6, 351958, Control_c, 0, 11, 109
6, 351960, Note_on_c, 0, 96, 80
6, 352320, Control_c, 0, 11, 127
6, 352544, Note_on_c, 0, 96, 0
6, 352560, Note_on_c, 0, 94, 80
6, 352664, Note_on_c, 0, 94, 0
6, 352680, Note_on_c, 0, 94, 86
6, 353264, Note_on_c, 0, 94, 0
6, 353280, Note_on_c, 0, 96, 86
6, 353384, Note_on_c, 0, 96, 0
6, 353400, Note_on_c, 0, 98, 86
6, 353984, Note_on_c, 0, 98, 0
6, 354000, Note_on_c, 0, 96, 86
6, 354089, Note_on_c, 0, 96, 0
6, 354120, Note_on_c, 0, 96, 86
6, 354299, Note_on_c, 0, 96, 0
6, 354360, Note_on_c, 0, 94, 86
6, 354449, Note_on_c, 0, 94, 0
6, 354480, Note_on_c, 0, 94, 86
6, 354704, Note_on_c, 0, 94, 0
6, 354720, Note_on_c, 0, 101, 86
6, 354824, Note_on_c, 0, 101, 0
6, 354838, Control_c, 0, 11, 117
6, 354840, Note_on_c, 0, 101, 92
6, 355200, Control_c, 0, 11, 127
6, 355424, Note_on_c, 0, 101, 0
6, 355440, Note_on_c, 0, 99, 92
6, 355544, Note_on_c, 0, 99, 0
6, 355560, Note_on_c, 0, 98, 92
6, 356144, Note_on_c, 0, 98, 0
6, 356160, Note_on_c, 0, 94, 92
6, 356264, Note_on_c, 0, 94, 0
6, 356280, Note_on_c, 0, 94, 92
6, 356864, Note_on_c, 0, 94, 0
6, 356880, Note_on_c, 0, 92, 92
6, 356984, Note_on_c, 0, 92, 0
6, 357000, Note_on_c, 0, 91, 92
6, 357584, Note_on_c, 0, 91, 0
6, 357600, Note_on_c, 0, 99, 92
6, 357704, Note_on_c, 0, 99, 0
6, 357720, Note_on_c, 0, 99, 92
6, 357944, Note_on_c, 0, 99, 0
6, 357960, Note_on_c, 0, 96, 92
6, 358199, Note_on_c, 0, 96, 0
6, 358200, Note_on_c, 0, 94, 92
6, 358319, Note_on_c, 0, 94, 0
6, 358320, Note_on_c, 0, 93, 92
6, 358424, Note_on_c, 0, 93, 0
6, 358440, Note_on_c, 0, 96, 92
6, 358664, Note_on_c, 0, 96, 0
6, 358680, Note_on_c, 0, 93, 92
6, 358919, Note_on_c, 0, 93, 0
6, 358920, Note_on_c, 0, 91, 92
6, 359039, Note_on_c, 0, 91, 0
6, 359040, Note_on_c, 0, 89, 92
6, 359144, Note_on_c, 0, 89, 0
6, 359160, Note_on_c, 0, 91, 92
6, 359384, Note_on_c, 0, 91, 0
6, 359400, Note_on_c, 0, 93, 92
6, 359504, Note_on_c, 0, 93, 0
6, 359520, Note_on_c, 0, 94, 92
6, 359639, Note_on_c, 0, 94, 0
6, 359640, Note_on_c, 0, 96, 92
6, 359759, Note_on_c, 0, 96, 0
6, 359760, Note_on_c, 0, 98, 92
6, 359999, Note_on_c, 0, 98, 0
6, 360000, Note_on_c, 0, 96, 92
6, 360119, Note_on_c, 0, 96, 0
6, 360120, Note_on_c, 0, 93, 92
6, 360224, Note_on_c, 0, 93, 0
6, 360240, Note_on_c, 0, 94, 92
6, 360359, Note_on_c, 0, 94, 0
6, 360360, Note_on_c, 0, 96, 92
6, 360479, Note_on_c, 0, 96, 0
6, 360480, Note_on_c, 0, 98, 92
6, 360719, Note_on_c, 0, 98, 0
6, 360720, Note_on_c, 0, 96, 92
6, 360839, Note_on_c, 0, 96, 0
6, 360840, Note_on_c, 0, 93, 92
6, 360944, Note_on_c, 0, 93, 0
6, 360960, Note_on_c, 0, 94, 92
6, 361199, Note_on_c, 0, 94, 0
6, 806400, Control_c, 13, 11, 127
6, 806400, Control_c, 13, 7, 72
6, 806400, Control_c, 13, 10, 55
6, 806400, Program_c, 13, 72
6, 806640, Note_on_c, 13, 95, 65
6, 806859, Note_on_c, 13, 95, 0
6, 806880, Note_on_c, 13, 93, 69
6, 807099, Note_on_c, 13, 93, 0
6, 807120, Note_on_c, 13, 95, 73
6, 807339, Note_on_c, 13, 95, 0
6, 807360, Note_on_c, 13, 93, 77
6, 807579, Note_on_c, 13, 93, 0
6, 807600, Note_on_c, 13, 95, 80
6, 807819, Note_on_c, 13, 95, 0
6, 807840, Note_on_c, 13, 93, 84
6, 808059, Note_on_c, 13, 93, 0
6, 808080, Note_on_c, 13, 95, 88
6, 808199, Note_on_c, 13, 95, 0
6, 808200, Note_on_c, 13, 97, 90
6, 808299, Note_on_c, 13, 97, 0
6, 808320, Note_on_c, 13, 98, 92
6, 808529, Note_on_c, 13, 98, 0
6, 808560, Note_on_c, 13, 98, 92
6, 808769, Note_on_c, 13, 98, 0
6, 808800, Note_on_c, 13, 97, 92
6, 809009, Note_on_c, 13, 97, 0
6, 809040, Note_on_c, 13, 95, 92
6, 809249, Note_on_c, 13, 95, 0
6, 809280, Note_on_c, 13, 100, 80
6, 809489, Note_on_c, 13, 100, 0
6, 809520, Note_on_c, 13, 100, 80
6, 809729, Note_on_c, 13, 100, 0
6, 809760, Note_on_c, 13, 99, 80
6, 809969, Note_on_c, 13, 99, 0
6, 810000, Note_on_c, 13, 95, 80
6, 810209, Note_on_c, 13, 95, 0
6, 810240, Note_on_c, 13, 100, 80
6, 810449, Note_on_c, 13, 100, 0
6, 810480, Note_on_c, 13, 102, 80
6, 810689, Note_on_c, 13, 102, 0
6, 810720, Note_on_c, 13, 103, 80
6, 810929, Note_on_c, 13, 103, 0
6, 810960, Note_on_c, 13, 104, 80
6, 811169, Note_on_c, 13, 104, 0
6, 811200, Note_on_c, 13, 105, 80
6, 811409, Note_on_c, 13, 105, 0
6, 811440, Note_on_c, 13, 104, 80
6, 811649, Note_on_c, 13, 104, 0
6, 811680, Note_on_c, 13, 105, 80
6, 811889, Note_on_c, 13, 105, 0
6, 811920, Note_on_c, 13, 103, 80
6, 812129, Note_on_c, 13, 103, 0
6, 812160, Note_on_c, 13, 102, 80
6, 812339, Note_on_c, 13, 102, 0
6, 812400, Note_on_c, 13, 102, 80
6, 812519, Note_on_c, 13, 102, 0
6, 812520, Note_on_c, 13, 103, 80
6, 812619, Note_on_c, 13, 103, 0
6, 812640, Note_on_c, 13, 105, 80
6, 812819, Note_on_c, 13, 105, 0
6, 813120, Note_on_c, 13, 91, 80
6, 813299, Note_on_c, 13, 91, 0
6, 813360, Note_on_c, 13, 91, 80
6, 813479, Note_on_c, 13, 91, 0
6, 813480, Note_on_c, 13, 93, 80
6, 813579, Note_on_c, 13, 93, 0
6, 813600, Note_on_c, 13, 95, 80
6, 813779, Note_on_c, 13, 95, 0
6, 813840, Note_on_c, 13, 95, 80
6, 813959, Note_on_c, 13, 95, 0
6, 813960, Note_on_c, 13, 93, 80
6, 814059, Note_on_c, 13, 93, 0
6, 814080, Note_on_c, 13, 91, 80
6, 814289, Note_on_c, 13, 91, 0
6, 814320, Note_on_c, 13, 91, 80
6, 814439, Note_on_c, 13, 91, 0
6, 814440, Note_on_c, 13, 90, 80
6, 814539, Note_on_c, 13, 90, 0
6, 814560, Note_on_c, 13, 88, 80
6, 814769, Note_on_c, 13, 88, 0
6, 814800, Note_on_c, 13, 88, 80
6, 814919, Note_on_c, 13, 88, 0
6, 814920, Note_on_c, 13, 86, 80
6, 815019, Note_on_c, 13, 86, 0
6, 815040, Note_on_c, 13, 85, 80
6, 815249, Note_on_c, 13, 85, 0
6, 815280, Note_on_c, 13, 85, 80
6, 815399, Note_on_c, 13, 85, 0
6, 815400, Note_on_c, 13, 83, 80
6, 815499, Note_on_c, 13, 83, 0
6, 815520, Note_on_c, 13, 81, 80
6, 815729, Note_on_c, 13, 81, 0
6, 815760, Note_on_c, 13, 87, 80
6, 815969, Note_on_c, 13, 87, 0
6, 816000, Note_on_c, 13, 88, 80
6, 816209, Note_on_c, 13, 88, 0
6, 816240, Note_on_c, 13, 90, 80
6, 816449, Note_on_c, 13, 90, 0
6, 816480, Note_on_c, 13, 91, 80
6, 816689, Note_on_c, 13, 91, 0
6, 816720, Note_on_c, 13, 92, 80
6, 816929, Note_on_c, 13, 92, 0
6, 816960, Note_on_c, 13, 93, 80
6, 817169, Note_on_c, 13, 93, 0
6, 817200, Note_on_c, 13, 92, 80
6, 817409, Note_on_c, 13, 92, 0
6, 817440, Note_on_c, 13, 93, 80
6, 817539, Note_on_c, 13, 93, 0
6, 817560, Note_on_c, 13, 95, 80
6, 817659, Note_on_c, 13, 95, 0
6, 817680, Note_on_c, 13, 97, 80
6, 817779, Note_on_c, 13, 97, 0
6, 817800, Note_on_c, 13, 98, 80
6, 817899, Note_on_c, 13, 98, 0
6, 817920, Note_on_c, 13, 100, 92
6, 818279, Note_on_c, 13, 100, 0
6, 818280, Note_on_c, 13, 102, 80
6, 818399, Note_on_c, 13, 102, 0
6, 818400, Note_on_c, 13, 100, 80
6, 818639, Note_on_c, 13, 100, 0
6, 818640, Note_on_c, 13, 98, 80
6, 818849, Note_on_c, 13, 98, 0
6, 818880, Note_on_c, 13, 100, 80
6, 819239, Note_on_c, 13, 100, 0
6, 819240, Note_on_c, 13, 102, 80
6, 819359, Note_on_c, 13, 102, 0
6, 819360, Note_on_c, 13, 100, 80
6, 819599, Note_on_c, 13, 100, 0
6, 819600, Note_on_c, 13, 98, 80
6, 819809, Note_on_c, 13, 98, 0
6, 819840, Note_on_c, 13, 100, 80
6, 820199, Note_on_c, 13, 100, 0
6, 820200, Note_on_c, 13, 102, 80
6, 820319, Note_on_c, 13, 102, 0
6, 820320, Note_on_c, 13, 100, 80
6, 820559, Note_on_c, 13, 100, 0
6, 820560, Note_on_c, 13, 98, 80
6, 820769, Note_on_c, 13, 98, 0
6, 820800, Note_on_c, 13, 100, 80
6, 821159, Note_on_c, 13, 100, 0
6, 821160, Note_on_c, 13, 102, 80
6, 821279, Note_on_c, 13, 102, 0
6, 821280, Note_on_c, 13, 100, 80
6, 821519, Note_on_c, 13, 100, 0
6, 821520, Note_on_c, 13, 98, 80
6, 821729, Note_on_c, 13, 98, 0
6, 821760, Note_on_c, 13, 93, 80
6, 821819, Note_on_c, 13, 93, 0
6, 821820, Note_on_c, 13, 95, 80
6, 821879, Note_on_c, 13, 95, 0
6, 821880, Note_on_c, 13, 93, 80
6, 821939, Note_on_c, 13, 93, 0
6, 821940, Note_on_c, 13, 95, 80
6, 821999, Note_on_c, 13, 95, 0
6, 822000, Note_on_c, 13, 93, 80
6, 822059, Note_on_c, 13, 93, 0
6, 822060, Note_on_c, 13, 95, 80
6, 822119, Note_on_c, 13, 95, 0
6, 822120, Note_on_c, 13, 93, 80
6, 822179, Note_on_c, 13, 93, 0
6, 822180, Note_on_c, 13, 95, 80
6, 822239, Note_on_c, 13, 95, 0
6, 822240, Note_on_c, 13, 93, 80
6, 822299, Note_on_c, 13, 93, 0
6, 822300, Note_on_c, 13, 95, 80
6, 822359, Note_on_c, 13, 95, 0
6, 822360, Note_on_c, 13, 93, 80
6, 822419, Note_on_c, 13, 93, 0
6, 822420, Note_on_c, 13, 95, 80
6, 822479, Note_on_c, 13, 95, 0
6, 822480, Note_on_c, 13, 93, 80
6, 822539, Note_on_c, 13, 93, 0
6, 822540, Note_on_c, 13, 95, 80
6, 822599, Note_on_c, 13, 95, 0
6, 822600, Note_on_c, 13, 93, 80
6, 822659, Note_on_c, 13, 93, 0
6, 822660, Note_on_c, 13, 95, 80
6, 822719, Note_on_c, 13, 95, 0
6, 822720, Note_on_c, 13, 93, 80
6, 822779, Note_on_c, 13, 93, 0
6, 822780, Note_on_c, 13, 95, 80
6, 822839, Note_on_c, 13, 95, 0
6, 822840, Note_on_c, 13, 93, 80
6, 822899, Note_on_c, 13, 93, 0
6, 822900, Note_on_c, 13, 95, 80
6, 822959, Note_on_c, 13, 95, 0
6, 822960, Note_on_c, 13, 93, 80
6, 823019, Note_on_c, 13, 93, 0
6, 823020, Note_on_c, 13, 95, 80
6, 823079, Note_on_c, 13, 95, 0
6, 823080, Note_on_c, 13, 93, 80
6, 823139, Note_on_c, 13, 93, 0
6, 823140, Note_on_c, 13, 95, 80
6, 823199, Note_on_c, 13, 95, 0
6, 823200, Note_on_c, 13, 93, 80
6, 823259, Note_on_c, 13, 93, 0
6, 823260, Note_on_c, 13, 95, 80
6, 823319, Note_on_c, 13, 95, 0
6, 823320, Note_on_c, 13, 93, 80
6, 823379, Note_on_c, 13, 93, 0
6, 823380, Note_on_c, 13, 95, 80
6, 823439, Note_on_c, 13, 95, 0
6, 823440, Note_on_c, 13, 93, 80
6, 823499, Note_on_c, 13, 93, 0
6, 823500, Note_on_c, 13, 95, 80
6, 823559, Note_on_c, 13, 95, 0
6, 823560, Note_on_c, 13, 93, 80
6, 823619, Note_on_c, 13, 93, 0
6, 823620, Note_on_c, 13, 95, 80
6, 823679, Note_on_c, 13, 95, 0
6, 823680, Note_on_c, 13, 93, 80
6, 823739, Note_on_c, 13, 93, 0
6, 823740, Note_on_c, 13, 95, 80
6, 823799, Note_on_c, 13, 95, 0
6, 823800, Note_on_c, 13, 93, 80
6, 823859, Note_on_c, 13, 93, 0
6, 823860, Note_on_c, 13, 95, 80
6, 823919, Note_on_c, 13, 95, 0
6, 823920, Note_on_c, 13, 93, 80
6, 823979, Note_on_c, 13, 93, 0
6, 823980, Note_on_c, 13, 95, 80
6, 824039, Note_on_c, 13, 95, 0
6, 824040, Note_on_c, 13, 93, 80
6, 824099, Note_on_c, 13, 93, 0
6, 824100, Note_on_c, 13, 95, 80
6, 824159, Note_on_c, 13, 95, 0
6, 824160, Note_on_c, 13, 93, 80
6, 824219, Note_on_c, 13, 93, 0
6, 824220, Note_on_c, 13, 95, 80
6, 824279, Note_on_c, 13, 95, 0
6, 824280, Note_on_c, 13, 93, 80
6, 824339, Note_on_c, 13, 93, 0
6, 824340, Note_on_c, 13, 95, 80
6, 824399, Note_on_c, 13, 95, 0
6, 824400, Note_on_c, 13, 93, 80
6, 824459, Note_on_c, 13, 93, 0
6, 824460, Note_on_c, 13, 95, 80
6, 824519, Note_on_c, 13, 95, 0
6, 824520, Note_on_c, 13, 93, 80
6, 824579, Note_on_c, 13, 93, 0
6, 824580, Note_on_c, 13, 95, 80
6, 824639, Note_on_c, 13, 95, 0
6, 824640, Note_on_c, 13, 93, 80
6, 824699, Note_on_c, 13, 93, 0
6, 824700, Note_on_c, 13, 95, 80
6, 824759, Note_on_c, 13, 95, 0
6, 824760, Note_on_c, 13, 93, 80
6, 824819, Note_on_c, 13, 93, 0
6, 824820, Note_on_c, 13, 95, 80
6, 824879, Note_on_c, 13, 95, 0
6, 824880, Note_on_c, 13, 93, 80
6, 824939, Note_on_c, 13, 93, 0
6, 824940, Note_on_c, 13, 95, 80
6, 824999, Note_on_c, 13, 95, 0
6, 825000, Note_on_c, 13, 93, 80
6, 825059, Note_on_c, 13, 93, 0
6, 825060, Note_on_c, 13, 95, 80
6, 825119, Note_on_c, 13, 95, 0
6, 825120, Note_on_c, 13, 93, 80
6, 825179, Note_on_c, 13, 93, 0
6, 825180, Note_on_c, 13, 95, 80
6, 825239, Note_on_c, 13, 95, 0
6, 825240, Note_on_c, 13, 93, 80
6, 825299, Note_on_c, 13, 93, 0
6, 825300, Note_on_c, 13, 95, 80
6, 825359, Note_on_c, 13, 95, 0
6, 825360, Note_on_c, 13, 93, 80
6, 825439, Note_on_c, 13, 93, 0
6, 825440, Note_on_c, 13, 91, 80
6, 825519, Note_on_c, 13, 91, 0
6, 825520, Note_on_c, 13, 93, 80
6, 825587, Note_on_c, 13, 93, 0
6, 825600, Note_on_c, 13, 93, 80
6, 825839, Note_on_c, 13, 93, 0
6, 825840, Note_on_c, 13, 91, 80
6, 826049, Note_on_c, 13, 91, 0
6, 826080, Note_on_c, 13, 91, 80
6, 826319, Note_on_c, 13, 91, 0
6, 826320, Note_on_c, 13, 90, 80
6, 826529, Note_on_c, 13, 90, 0
6, 826560, Note_on_c, 13, 102, 80
6, 826799, Note_on_c, 13, 102, 0
6, 826800, Note_on_c, 13, 100, 80
6, 827009, Note_on_c, 13, 100, 0
6, 827040, Note_on_c, 13, 103, 80
6, 827279, Note_on_c, 13, 103, 0
6, 827280, Note_on_c, 13, 100, 80
6, 827489, Note_on_c, 13, 100, 0
6, 827520, Note_on_c, 13, 100, 80
6, 827759, Note_on_c, 13, 100, 0
6, 827760, Note_on_c, 13, 98, 80
6, 827969, Note_on_c, 13, 98, 0
6, 828000, Note_on_c, 13, 98, 80
6, 828239, Note_on_c, 13, 98, 0
6, 828240, Note_on_c, 13, 97, 80
6, 828449, Note_on_c, 13, 97, 0
6, 828480, Note_on_c, 13, 95, 80
6, 828959, Note_on_c, 13, 95, 0
6, 828960, Note_on_c, 13, 93, 80
6, 829199, Note_on_c, 13, 93, 0
6, 829200, Note_on_c, 13, 105, 80
6, 829679, Note_on_c, 13, 105, 0
6, 829680, Note_on_c, 13, 103, 80
6, 829889, Note_on_c, 13, 103, 0
6, 829920, Note_on_c, 13, 103, 80
6, 830159, Note_on_c, 13, 103, 0
6, 830160, Note_on_c, 13, 102, 80
6, 830369, Note_on_c, 13, 102, 0
6, 830400, Note_on_c, 13, 102, 80
6, 830639, Note_on_c, 13, 102, 0
6, 830640, Note_on_c, 13, 100, 80
6, 830849, Note_on_c, 13, 100, 0
6, 830880, Note_on_c, 13, 103, 80
6, 831119, Note_on_c, 13, 103, 0
6, 831120, Note_on_c, 13, 100, 80
6, 831329, Note_on_c, 13, 100, 0
6, 831360, Note_on_c, 13, 100, 80
6, 831599, Note_on_c, 13, 100, 0
6, 831600, Note_on_c, 13, 98, 80
6, 831809, Note_on_c, 13, 98, 0
6, 831840, Note_on_c, 13, 98, 80
6, 832079, Note_on_c, 13, 98, 0
6, 832080, Note_on_c, 13, 97, 80
6, 832289, Note_on_c, 13, 97, 0
6, 832320, Note_on_c, 13, 98, 80
6, 832529, Note_on_c, 13, 98, 0
6, 832560, Note_on_c, 13, 102, 80
6, 832679, Note_on_c, 13, 102, 0
6, 832680, Note_on_c, 13, 103, 80
6, 832779, Note_on_c, 13, 103, 0
6, 832800, Note_on_c, 13, 105, 80
6, 832979, Note_on_c, 13, 105, 0
6, 833280, Note_on_c, 13, 102, 80
6, 833489, Note_on_c, 13, 102, 0
6, 833520, Note_on_c, 13, 102, 80
6, 833729, Note_on_c, 13, 102, 0
6, 833760, Note_on_c, 13, 100, 80
6, 833969, Note_on_c, 13, 100, 0
6, 834000, Note_on_c, 13, 97, 80
6, 834209, Note_on_c, 13, 97, 0
6, 834240, Note_on_c, 13, 91, 80
6, 834449, Note_on_c, 13, 91, 0
6, 834480, Note_on_c, 13, 91, 80
6, 834599, Note_on_c, 13, 91, 0
6, 834600, Note_on_c, 13, 93, 80
6, 834699, Note_on_c, 13, 93, 0
6, 834720, Note_on_c, 13, 95, 80
6, 834899, Note_on_c, 13, 95, 0
6, 835200, Note_on_c, 13, 91, 80
6, 835409, Note_on_c, 13, 91, 0
6, 835440, Note_on_c, 13, 91, 80
6, 835649, Note_on_c, 13, 91, 0
6, 835680, Note_on_c, 13, 90, 80
6, 835889, Note_on_c, 13, 90, 0
6, 835920, Note_on_c, 13, 90, 80
6, 836039, Note_on_c, 13, 90, 0
6, 836040, Note_on_c, 13, 91, 80
6, 836159, Note_on_c, 13, 91, 0
6, 836160, Note_on_c, 13, 93, 92
6, 836339, Note_on_c, 13, 93, 0
6, 836400, Note_on_c, 13, 90, 92
6, 836519, Note_on_c, 13, 90, 0
6, 836520, Note_on_c, 13, 91, 92
6, 836639, Note_on_c, 13, 91, 0
6, 836640, Note_on_c, 13, 93, 92
6, 836819, Note_on_c, 13, 93, 0
6, 836880, Note_on_c, 13, 90, 92
6, 836999, Note_on_c, 13, 90, 0
6, 837000, Note_on_c, 13, 91, 92
6, 837119, Note_on_c, 13, 91, 0
6, 837120, Note_on_c, 13, 93, 92
6, 837299, Note_on_c, 13, 93, 0
6, 837360, Note_on_c, 13, 90, 92
6, 837479, Note_on_c, 13, 90, 0
6, 837480, Note_on_c, 13, 91, 92
6, 837599, Note_on_c, 13, 91, 0
6, 837600, Note_on_c, 13, 93, 92
6, 837779, Note_on_c, 13, 93, 0
6, 837840, Note_on_c, 13, 90, 92
6, 837959, Note_on_c, 13, 90, 0
6, 837960, Note_on_c, 13, 91, 92
6, 838079, Note_on_c, 13, 91, 0
6, 838080, Note_on_c, 13, 93, 92
6, 838259, Note_on_c, 13, 93, 0
6, 838320, Note_on_c, 13, 90, 92
6, 838439, Note_on_c, 13, 90, 0
6, 838440, Note_on_c, 13, 91, 92
6, 838559, Note_on_c, 13, 91, 0
6, 838560, Note_on_c, 13, 93, 92
6, 838739, Note_on_c, 13, 93, 0
6, 838800, Note_on_c, 13, 95, 92
6, 838919, Note_on_c, 13, 95, 0
6, 838920, Note_on_c, 13, 93, 92
6, 839039, Note_on_c, 13, 93, 0
6, 839040, Note_on_c, 13, 91, 92
6, 839219, Note_on_c, 13, 91, 0
6, 839280, Note_on_c, 13, 88, 92
6, 839399, Note_on_c, 13, 88, 0
6, 839400, Note_on_c, 13, 90, 92
6, 839519, Note_on_c, 13, 90, 0
6, 839520, Note_on_c, 13, 91, 92
6, 839699, Note_on_c, 13, 91, 0
6, 839760, Note_on_c, 13, 88, 92
6, 839879, Note_on_c, 13, 88, 0
6, 839880, Note_on_c, 13, 90, 92
6, 839999, Note_on_c, 13, 90, 0
6, 840000, Note_on_c, 13, 91, 92
6, 840179, Note_on_c, 13, 91, 0
6, 840240, Note_on_c, 13, 88, 92
6, 840359, Note_on_c, 13, 88, 0
6, 840360, Note_on_c, 13, 90, 92
6, 840479, Note_on_c, 13, 90, 0
6, 840480, Note_on_c, 13, 91, 92
6, 840659, Note_on_c, 13, 91, 0
6, 840720, Note_on_c, 13, 93, 92
6, 840839, Note_on_c, 13, 93, 0
6, 840840, Note_on_c, 13, 91, 92
6, 840959, Note_on_c, 13, 91, 0
6, 840960, Note_on_c, 13, 89, 92
6, 841139, Note_on_c, 13, 89, 0
6, 841200, Note_on_c, 13, 98, 92
6, 841319, Note_on_c, 13, 98, 0
6, 841320, Note_on_c, 13, 100, 92
6, 841439, Note_on_c, 13, 100, 0
6, 841440, Note_on_c, 13, 101, 92
6, 841619, Note_on_c, 13, 101, 0
6, 841680, Note_on_c, 13, 103, 92
6, 841799, Note_on_c, 13, 103, 0
6, 841800, Note_on_c, 13, 101, 92
6, 841919, Note_on_c, 13, 101, 0
6, 841920, Note_on_c, 13, 100, 92
6, 842099, Note_on_c, 13, 100, 0
6, 842160, Note_on_c, 13, 100, 92
6, 842279, Note_on_c, 13, 100, 0
6, 842280, Note_on_c, 13, 97, 92
6, 842399, Note_on_c, 13, 97, 0
6, 842400, Note_on_c, 13, 93, 92
6, 842579, Note_on_c, 13, 93, 0
6, 842640, Note_on_c, 13, 104, 92
6, 842759, Note_on_c, 13, 104, 0
6, 842760, Note_on_c, 13, 105, 92
6, 842879, Note_on_c, 13, 105, 0
6, 842880, Note_on_c, 13, 105, 92
6, 843059, Note_on_c, 13, 105, 0
6, 843240, Note_on_c, 13, 102, 92
6, 843329, Note_on_c, 13, 102, 0
6, 843360, Note_on_c, 13, 105, 92
6, 843539, Note_on_c, 13, 105, 0
6, 843720, Note_on_c, 13, 102, 92
6, 843809, Note_on_c, 13, 102, 0
6, 843840, Note_on_c, 13, 105, 92
6, 844019, Note_on_c, 13, 105, 0
6, 844200, Note_on_c, 13, 102, 92
6, 844289, Note_on_c, 13, 102, 0
6, 844320, Note_on_c, 13, 105, 92
6, 844499, Note_on_c, 13, 105, 0
6, 844680, Note_on_c, 13, 105, 92
6, 844769, Note_on_c, 13, 105, 0
6, 844800, Note_on_c, 13, 105, 92
6, 844979, Note_on_c, 13, 105, 0
6, 845160, Note_on_c, 13, 102, 92
6, 845249, Note_on_c, 13, 102, 0
6, 845280, Note_on_c, 13, 105, 92
6, 845459, Note_on_c, 13, 105, 0
6, 845640, Note_on_c, 13, 102, 92
6, 845729, Note_on_c, 13, 102, 0
6, 845760, Note_on_c, 13, 105, 92
6, 845939, Note_on_c, 13, 105, 0
6, 846120, Note_on_c, 13, 102, 92
6, 846209, Note_on_c, 13, 102, 0
6, 846240, Note_on_c, 13, 105, 92
6, 846419, Note_on_c, 13, 105, 0
6, 846600, Note_on_c, 13, 105, 92
6, 846689, Note_on_c, 13, 105, 0
6, 846720, Note_on_c, 13, 103, 92
6, 846899, Note_on_c, 13, 103, 0
6, 847080, Note_on_c, 13, 100, 92
6, 847169, Note_on_c, 13, 100, 0
6, 847200, Note_on_c, 13, 103, 92
6, 847379, Note_on_c, 13, 103, 0
6, 847560, Note_on_c, 13, 100, 92
6, 847649, Note_on_c, 13, 100, 0
6, 847680, Note_on_c, 13, 103, 92
6, 847859, Note_on_c, 13, 103, 0
6, 848040, Note_on_c, 13, 100, 92
6, 848129, Note_on_c, 13, 100, 0
6, 848160, Note_on_c, 13, 103, 92
6, 848339, Note_on_c, 13, 103, 0
6, 848520, Note_on_c, 13, 100, 92
6, 848609, Note_on_c, 13, 100, 0
6, 848640, Note_on_c, 13, 101, 92
6, 848819, Note_on_c, 13, 101, 0
6, 849000, Note_on_c, 13, 93, 92
6, 849089, Note_on_c, 13, 93, 0
6, 849120, Note_on_c, 13, 101, 92
6, 849299, Note_on_c, 13, 101, 0
6, 849480, Note_on_c, 13, 101, 92
6, 849569, Note_on_c, 13, 101, 0
6, 849600, Note_on_c, 13, 100, 92
6, 849779, Note_on_c, 13, 100, 0
6, 849960, Note_on_c, 13, 93, 92
6, 850079, Note_on_c, 13, 93, 0
6, 850080, Note_on_c, 13, 88, 92
6, 850139, Note_on_c, 13, 88, 0
6, 850140, Note_on_c, 13, 89, 92
6, 850199, Note_on_c, 13, 89, 0
6, 850200, Note_on_c, 13, 88, 92
6, 850259, Note_on_c, 13, 88, 0
6, 850260, Note_on_c, 13, 89, 92
6, 850319, Note_on_c, 13, 89, 0
6, 850320, Note_on_c, 13, 88, 92
6, 850399, Note_on_c, 13, 88, 0
6, 850400, Note_on_c, 13, 86, 92
6, 850479, Note_on_c, 13, 86, 0
6, 850480, Note_on_c, 13, 88, 92
6, 850547, Note_on_c, 13, 88, 0
6, 850560, Note_on_c, 13, 90, 92
6, 850619, Note_on_c, 13, 90, 0
6, 850620, Note_on_c, 13, 91, 92
6, 850679, Note_on_c, 13, 91, 0
6, 850680, Note_on_c, 13, 90, 92
6, 850739, Note_on_c, 13, 90, 0
6, 850740, Note_on_c, 13, 91, 92
6, 850799, Note_on_c, 13, 91, 0
6, 850800, Note_on_c, 13, 90, 92
6, 850879, Note_on_c, 13, 90, 0
6, 850880, Note_on_c, 13, 88, 92
6, 850959, Note_on_c, 13, 88, 0
6, 850960, Note_on_c, 13, 90, 92
6, 851027, Note_on_c, 13, 90, 0
6, 851040, Note_on_c, 13, 91, 92
6, 852209, Note_on_c, 13, 91, 0
6, 852240, Note_on_c, 13, 88, 92
6, 852339, Note_on_c, 13, 88, 0
6, 852360, Note_on_c, 13, 90, 92
6, 852459, Note_on_c, 13, 90, 0
6, 852480, Note_on_c, 13, 91, 92
6, 852579, Note_on_c, 13, 91, 0
6, 852600, Note_on_c, 13, 93, 92
6, 852699, Note_on_c, 13, 93, 0
6, 852720, Note_on_c, 13, 95, 92
6, 852819, Note_on_c, 13, 95, 0
6, 852840, Note_on_c, 13, 97, 92
6, 852939, Note_on_c, 13, 97, 0
6, 852960, Note_on_c, 13, 98, 92
6, 853059, Note_on_c, 13, 98, 0
6, 853080, Note_on_c, 13, 100, 92
6, 853179, Note_on_c, 13, 100, 0
6, 853200, Note_on_c, 13, 102, 92
6, 853299, Note_on_c, 13, 102, 0
6, 853320, Note_on_c, 13, 103, 92
6, 853419, Note_on_c, 13, 103, 0
6, 853440, Note_on_c, 13, 102, 92
6, 853679, Note_on_c, 13, 102, 0
6, 853800, Note_on_c, 13, 102, 92
6, 853919, Note_on_c, 13, 102, 0
6, 853920, Note_on_c, 13, 100, 92
6, 853979, Note_on_c, 13, 100, 0
6, 853980, Note_on_c, 13, 102, 92
6, 854039, Note_on_c, 13, 102, 0
6, 854040, Note_on_c, 13, 100, 92
6, 854099, Note_on_c, 13, 100, 0
6, 854100, Note_on_c, 13, 102, 92
6, 854159, Note_on_c, 13, 102, 0
6, 854160, Note_on_c, 13, 100, 92
6, 854239, Note_on_c, 13, 100, 0
6, 854240, Note_on_c, 13, 98, 92
6, 854319, Note_on_c, 13, 98, 0
6, 854320, Note_on_c, 13, 100, 92
6, 854387, Note_on_c, 13, 100, 0
6, 854400, Note_on_c, 13, 102, 92
6, 854459, Note_on_c, 13, 102, 0
6, 854460, Note_on_c, 13, 103, 92
6, 854519, Note_on_c, 13, 103, 0
6, 854520, Note_on_c, 13, 102, 92
6, 854579, Note_on_c, 13, 102, 0
6, 854580, Note_on_c, 13, 103, 92
6, 854639, Note_on_c, 13, 103, 0
6, 854640, Note_on_c, 13, 102, 92
6, 854719, Note_on_c, 13, 102, 0
6, 854720, Note_on_c, 13, 100, 92
6, 854799, Note_on_c, 13, 100, 0
6, 854800, Note_on_c, 13, 102, 92
6, 854867, Note_on_c, 13, 102, 0
6, 854880, Note_on_c, 13, 103, 92
6, 856049, Note_on_c, 13, 103, 0
6, 856080, Note_on_c, 13, 88, 92
6, 856179, Note_on_c, 13, 88, 0
6, 856200, Note_on_c, 13, 90, 92
6, 856299, Note_on_c, 13, 90, 0
6, 856320, Note_on_c, 13, 91, 92
6, 856419, Note_on_c, 13, 91, 0
6, 856440, Note_on_c, 13, 93, 92
6, 856539, Note_on_c, 13, 93, 0
6, 856560, Note_on_c, 13, 95, 92
6, 856659, Note_on_c, 13, 95, 0
6, 856680, Note_on_c, 13, 97, 92
6, 856779, Note_on_c, 13, 97, 0
6, 856800, Note_on_c, 13, 98, 92
6, 856899, Note_on_c, 13, 98, 0
6, 856920, Note_on_c, 13, 100, 92
6, 857019, Note_on_c, 13, 100, 0
6, 857040, Note_on_c, 13, 102, 92
6, 857139, Note_on_c, 13, 102, 0
6, 857160, Note_on_c, 13, 103, 92
6, 857259, Note_on_c, 13, 103, 0
6, 857280, Note_on_c, 13, 102, 92
6, 857489, Note_on_c, 13, 102, 0
6, 857520, Note_on_c, 13, 103, 92
6, 857619, Note_on_c, 13, 103, 0
6, 857640, Note_on_c, 13, 102, 92
6, 857739, Note_on_c, 13, 102, 0
6, 857760, Note_on_c, 13, 100, 92
6, 857969, Note_on_c, 13, 100, 0
6, 858000, Note_on_c, 13, 102, 92
6, 858099, Note_on_c, 13, 102, 0
6, 858120, Note_on_c, 13, 100, 92
6, 858219, Note_on_c, 13, 100, 0
6, 858240, Note_on_c, 13, 98, 92
6, 858479, Note_on_c, 13, 98, 0
6, 858720, Note_on_c, 13, 102, 92
6, 858929, Note_on_c, 13, 102, 0
6, 858960, Note_on_c, 13, 103, 92
6, 859059, Note_on_c, 13, 103, 0
6, 859080, Note_on_c, 13, 105, 92
6, 859179, Note_on_c, 13, 105, 0
6, 859200, Note_on_c, 13, 95, 92
6, 859439, Note_on_c, 13, 95, 0
6, 859680, Note_on_c, 13, 98, 92
6, 859889, Note_on_c, 13, 98, 0
6, 859920, Note_on_c, 13, 100, 92
6, 860019, Note_on_c, 13, 100, 0
6, 860040, Note_on_c, 13, 102, 92
6, 860139, Note_on_c, 13, 102, 0
6, 860160, Note_on_c, 13, 103, 92
6, 860399, Note_on_c, 13, 103, 0
6, 860640, Note_on_c, 13, 100, 92
6, 860849, Note_on_c, 13, 100, 0
6, 860880, Note_on_c, 13, 102, 92
6, 860979, Note_on_c, 13, 102, 0
6, 861000, Note_on_c, 13, 103, 92
6, 861099, Note_on_c, 13, 103, 0
6, 861120, Note_on_c, 13, 105, 92
6, 861359, Note_on_c, 13, 105, 0
6, 861600, Note_on_c, 13, 93, 92
6, 861809, Note_on_c, 13, 93, 0
6, 861840, Note_on_c, 13, 95, 92
6, 861939, Note_on_c, 13, 95, 0
6, 861960, Note_on_c, 13, 97, 92
6, 862059, Note_on_c, 13, 97, 0
6, 862080, Note_on_c, 13, 98, 92
6, 862179, Note_on_c, 13, 98, 0
6, 862200, Note_on_c, 13, 93, 92
6, 862299, Note_on_c, 13, 93, 0
6, 862320, Note_on_c, 13, 95, 92
6, 862419, Note_on_c, 13, 95, 0
6, 862440, Note_on_c, 13, 97, 92
6, 862539, Note_on_c, 13, 97, 0
6, 862560, Note_on_c, 13, 98, 92
6, 862659, Note_on_c, 13, 98, 0
6, 862680, Note_on_c, 13, 100, 92
6, 862779, Note_on_c, 13, 100, 0
6, 862800, Note_on_c, 13, 102, 92
6, 862899, Note_on_c, 13, 102, 0
6, 862920, Note_on_c, 13, 98, 92
6, 863019, Note_on_c, 13, 98, 0
6, 863040, Note_on_c, 13, 105, 92
6, 863729, Note_on_c, 13, 105, 0
6, 863760, Note_on_c, 13, 105, 92
6, 863969, Note_on_c, 13, 105, 0
6, 864000, Note_on_c, 13, 105, 92
6, 864209, Note_on_c, 13, 105, 0
6, 864240, Note_on_c, 13, 98, 92
6, 864479, Note_on_c, 13, 98, 0
6, 867360, Note_on_c, 13, 105, 92
6, 867569, Note_on_c, 13, 105, 0
6, 867600, Note_on_c, 13, 105, 92
6, 867809, Note_on_c, 13, 105, 0
6, 867840, Note_on_c, 13, 105, 92
6, 869489, Note_on_c, 13, 105, 0
6, 869520, Note_on_c, 13, 105, 92
6, 869729, Note_on_c, 13, 105, 0
6, 869760, Note_on_c, 13, 105, 92
6, 869969, Note_on_c, 13, 105, 0
6, 870000, Note_on_c, 13, 98, 92
6, 870209, Note_on_c, 13, 98, 0
6, 870240, Note_on_c, 13, 103, 92
6, 870959, Note_on_c, 13, 103, 0
6, 871440, Control_c, 13, 11, 69
6, 871680, Note_on_c, 13, 100, 80
6, 871680, Control_c, 13, 11, 69
6, 871693, Control_c, 13, 11, 71
6, 871707, Control_c, 13, 11, 72
6, 871720, Control_c, 13, 11, 74
6, 871733, Control_c, 13, 11, 75
6, 871747, Control_c, 13, 11, 77
6, 871760, Control_c, 13, 11, 79
6, 871773, Control_c, 13, 11, 80
6, 871787, Control_c, 13, 11, 82
6, 871800, Control_c, 13, 11, 84
6, 871813, Control_c, 13, 11, 85
6, 871827, Control_c, 13, 11, 87
6, 871840, Control_c, 13, 11, 88
6, 871853, Control_c, 13, 11, 90
6, 871867, Control_c, 13, 11, 92
6, 871880, Control_c, 13, 11, 93
6, 871893, Control_c, 13, 11, 95
6, 871907, Control_c, 13, 11, 96
6, 871920, Control_c, 13, 11, 98
6, 871933, Control_c, 13, 11, 100
6, 871947, Control_c, 13, 11, 101
6, 871949, Note_on_c, 13, 100, 0
6, 871950, Note_on_c, 13, 98, 80
6, 871960, Control_c, 13, 11, 103
6, 871969, Note_on_c, 13, 98, 0
6, 871973, Control_c, 13, 11, 104
6, 871980, Note_on_c, 13, 97, 80
6, 871987, Control_c, 13, 11, 106
6, 871999, Note_on_c, 13, 97, 0
6, 872000, Control_c, 13, 11, 108
6, 872010, Note_on_c, 13, 95, 80
6, 872013, Control_c, 13, 11, 109
6, 872027, Control_c, 13, 11, 111
6, 872029, Note_on_c, 13, 95, 0
6, 872040, Note_on_c, 13, 93, 80
6, 872040, Control_c, 13, 11, 113
6, 872053, Control_c, 13, 11, 114
6, 872059, Note_on_c, 13, 93, 0
6, 872067, Control_c, 13, 11, 116
6, 872070, Note_on_c, 13, 91, 80
6, 872080, Control_c, 13, 11, 117
6, 872089, Note_on_c, 13, 91, 0
6, 872093, Control_c, 13, 11, 119
6, 872100, Note_on_c, 13, 90, 80
6, 872107, Control_c, 13, 11, 121
6, 872119, Note_on_c, 13, 90, 0
6, 872120, Control_c, 13, 11, 122
6, 872130, Note_on_c, 13, 88, 80
6, 872133, Control_c, 13, 11, 124
6, 872147, Control_c, 13, 11, 127
6, 872149, Note_on_c, 13, 88, 0
6, 872160, Note_on_c, 13, 90, 80
6, 872179, Note_on_c, 13, 90, 0
6, 872190, Note_on_c, 13, 88, 80
6, 872209, Note_on_c, 13, 88, 0
6, 872220, Note_on_c, 13, 86, 80
6, 872239, Note_on_c, 13, 86, 0
6, 872250, Note_on_c, 13, 85, 80
6, 872269, Note_on_c, 13, 85, 0
6, 872280, Note_on_c, 13, 83, 80
6, 872299, Note_on_c, 13, 83, 0
6, 872310, Note_on_c, 13, 81, 80
6, 872329, Note_on_c, 13, 81, 0
6, 872340, Note_on_c, 13, 79, 80
6, 872359, Note_on_c, 13, 79, 0
6, 872370, Note_on_c, 13, 78, 80
6, 872389, Note_on_c, 13, 78, 0
6, 872400, Note_on_c, 13, 91, 80
6, 872749, Note_on_c, 13, 91, 0
6, 872760, Note_on_c, 13, 100, 80
6, 872869, Note_on_c, 13, 100, 0
6, 872880, Note_on_c, 13, 105, 92
6, 872940, Control_c, 13, 11, 107
6, 873049, Note_on_c, 13, 105, 0
6, 873060, Note_on_c, 13, 105, 92
6, 873109, Note_on_c, 13, 105, 0
6, 873120, Note_on_c, 13, 105, 92
6, 873229, Note_on_c, 13, 105, 0
6, 873240, Note_on_c, 13, 98, 92
6, 873349, Note_on_c, 13, 98, 0
6, 873358, Control_c, 13, 11, 127
6, 873360, Note_on_c, 13, 105, 92
6, 873420, Control_c, 13, 11, 107
6, 873529, Note_on_c, 13, 105, 0
6, 873540, Note_on_c, 13, 105, 92
6, 873589, Note_on_c, 13, 105, 0
6, 873598, Control_c, 13, 11, 127
6, 873600, Note_on_c, 13, 105, 92
6, 873809, Note_on_c, 13, 105, 0
6, 873840, Note_on_c, 13, 102, 92
6, 874049, Note_on_c, 13, 102, 0
6, 874080, Note_on_c, 13, 103, 92
6, 874289, Note_on_c, 13, 103, 0
6, 874320, Note_on_c, 13, 105, 92
6, 874529, Note_on_c, 13, 105, 0
6, 874558, Program_c, 8, 72
6, 874558, Control_c, 8, 7, 72
6, 874558, Control_c, 8, 11, 127
6, 874558, Control_c, 8, 10, 55
6, 874560, Note_on_c, 8, 105, 92
6, 874769, Note_on_c, 8, 105, 0
6, 874800, Note_on_c, 8, 103, 92
6, 875009, Note_on_c, 8, 103, 0
6, 875040, Note_on_c, 8, 102, 92
6, 875249, Note_on_c, 8, 102, 0
6, 875280, Note_on_c, 8, 102, 92
6, 875379, Note_on_c, 8, 102, 0
6, 875400, Note_on_c, 8, 100, 92
6, 875499, Note_on_c, 8, 100, 0
6, 875520, Note_on_c, 8, 102, 92
6, 875729, Note_on_c, 8, 102, 0
6, 875760, Note_on_c, 8, 102, 92
6, 875969, Note_on_c, 8, 102, 0
6, 876000, Note_on_c, 8, 103, 92
6, 876209, Note_on_c, 8, 103, 0
6, 876240, Note_on_c, 8, 105, 92
6, 876449, Note_on_c, 8, 105, 0
6, 876480, Note_on_c, 8, 105, 92
6, 876689, Note_on_c, 8, 105, 0
6, 876720, Note_on_c, 8, 103, 92
6, 876929, Note_on_c, 8, 103, 0
6, 876960, Note_on_c, 8, 102, 92
6, 877169, Note_on_c, 8, 102, 0
6, 877200, Note_on_c, 8, 102, 92
6, 877299, Note_on_c, 8, 102, 0
6, 877320, Note_on_c, 8, 100, 92
6, 877419, Note_on_c, 8, 100, 0
6, 877440, Note_on_c, 8, 102, 92
6, 877649, Note_on_c, 8, 102, 0
6, 877680, Note_on_c, 8, 100, 92
6, 877889, Note_on_c, 8, 100, 0
6, 877920, Note_on_c, 8, 102, 92
6, 878129, Note_on_c, 8, 102, 0
6, 878160, Note_on_c, 8, 97, 92
6, 878369, Note_on_c, 8, 97, 0
6, 878400, Note_on_c, 8, 98, 92
6, 878609, Note_on_c, 8, 98, 0
6, 878640, Note_on_c, 8, 97, 92
6, 878849, Note_on_c, 8, 97, 0
6, 878880, Note_on_c, 8, 98, 92
6, 879089, Note_on_c, 8, 98, 0
6, 879120, Note_on_c, 8, 100, 92
6, 879329, Note_on_c, 8, 100, 0
6, 879360, Note_on_c, 8, 102, 92
6, 879569, Note_on_c, 8, 102, 0
6, 879600, Note_on_c, 8, 100, 92
6, 879809, Note_on_c, 8, 100, 0
6, 879840, Note_on_c, 8, 102, 92
6, 880049, Note_on_c, 8, 102, 0
6, 880080, Note_on_c, 8, 103, 92
6, 880289, Note_on_c, 8, 103, 0
6, 880320, Note_on_c, 8, 103, 92
6, 880529, Note_on_c, 8, 103, 0
6, 880560, Note_on_c, 8, 102, 92
6, 880769, Note_on_c, 8, 102, 0
6, 880800, Note_on_c, 8, 103, 92
6, 881009, Note_on_c, 8, 103, 0
6, 881040, Note_on_c, 8, 105, 92
6, 881249, Note_on_c, 8, 105, 0
6, 881280, Note_on_c, 8, 105, 92
6, 881519, Note_on_c, 8, 105, 0
6, 881520, Note_on_c, 8, 102, 80
6, 881639, Note_on_c, 8, 102, 0
6, 881760, Note_on_c, 8, 105, 80
6, 881999, Note_on_c, 8, 105, 0
6, 882000, Note_on_c, 8, 102, 80
6, 882119, Note_on_c, 8, 102, 0
6, 882240, Note_on_c, 8, 105, 80
6, 882479, Note_on_c, 8, 105, 0
6, 882480, Note_on_c, 8, 102, 80
6, 882599, Note_on_c, 8, 102, 0
6, 882720, Note_on_c, 8, 105, 80
6, 882959, Note_on_c, 8, 105, 0
6, 882960, Note_on_c, 8, 102, 80
6, 883079, Note_on_c, 8, 102, 0
6, 883200, Note_on_c, 8, 105, 80
6, 883439, Note_on_c, 8, 105, 0
6, 883440, Note_on_c, 8, 102, 80
6, 883559, Note_on_c, 8, 102, 0
6, 883680, Note_on_c, 8, 105, 80
6, 883919, Note_on_c, 8, 105, 0
6, 883920, Note_on_c, 8, 102, 80
6, 884039, Note_on_c, 8, 102, 0
6, 884160, Note_on_c, 8, 105, 80
6, 884399, Note_on_c, 8, 105, 0
6, 884400, Note_on_c, 8, 102, 80
6, 884519, Note_on_c, 8, 102, 0
6, 884640, Note_on_c, 8, 105, 80
6, 884879, Note_on_c, 8, 105, 0
6, 884880, Note_on_c, 8, 102, 80
6, 884999, Note_on_c, 8, 102, 0
6, 885120, Note_on_c, 8, 105, 80
6, 885359, Note_on_c, 8, 105, 0
6, 885360, Note_on_c, 8, 102, 80
6, 885479, Note_on_c, 8, 102, 0
6, 885600, Note_on_c, 8, 105, 80
6, 885839, Note_on_c, 8, 105, 0
6, 885840, Note_on_c, 8, 102, 80
6, 885959, Note_on_c, 8, 102, 0
6, 886080, Note_on_c, 8, 105, 80
6, 886319, Note_on_c, 8, 105, 0
6, 886320, Note_on_c, 8, 102, 80
6, 886439, Note_on_c, 8, 102, 0
6, 886560, Note_on_c, 8, 105, 80
6, 886799, Note_on_c, 8, 105, 0
6, 886800, Note_on_c, 8, 102, 80
6, 886919, Note_on_c, 8, 102, 0
6, 887040, Note_on_c, 8, 105, 80
6, 887279, Note_on_c, 8, 105, 0
6, 887280, Note_on_c, 8, 102, 80
6, 887399, Note_on_c, 8, 102, 0
6, 887520, Note_on_c, 8, 105, 80
6, 887759, Note_on_c, 8, 105, 0
6, 887760, Note_on_c, 8, 102, 80
6, 887879, Note_on_c, 8, 102, 0
6, 888000, Note_on_c, 8, 105, 80
6, 888239, Note_on_c, 8, 105, 0
6, 888240, Note_on_c, 8, 102, 80
6, 888359, Note_on_c, 8, 102, 0
6, 888480, Note_on_c, 8, 105, 80
6, 888719, Note_on_c, 8, 105, 0
6, 888720, Note_on_c, 8, 102, 80
6, 888839, Note_on_c, 8, 102, 0
6, 888960, Note_on_c, 8, 81, 92
6, 889119, Note_on_c, 8, 81, 0
6, 889120, Note_on_c, 8, 83, 92
6, 889279, Note_on_c, 8, 83, 0
6, 889280, Note_on_c, 8, 85, 92
6, 889439, Note_on_c, 8, 85, 0
6, 889440, Note_on_c, 8, 86, 92
6, 889599, Note_on_c, 8, 86, 0
6, 889600, Note_on_c, 8, 88, 92
6, 889759, Note_on_c, 8, 88, 0
6, 889760, Note_on_c, 8, 90, 92
6, 889899, Note_on_c, 8, 90, 0
6, 889920, Note_on_c, 8, 91, 92
6, 890079, Note_on_c, 8, 91, 0
6, 890080, Note_on_c, 8, 90, 92
6, 890239, Note_on_c, 8, 90, 0
6, 890240, Note_on_c, 8, 91, 92
6, 890399, Note_on_c, 8, 91, 0
6, 890400, Note_on_c, 8, 93, 92
6, 890559, Note_on_c, 8, 93, 0
6, 890560, Note_on_c, 8, 95, 92
6, 890719, Note_on_c, 8, 95, 0
6, 890720, Note_on_c, 8, 97, 92
6, 890859, Note_on_c, 8, 97, 0
6, 890880, Note_on_c, 8, 98, 92
6, 891039, Note_on_c, 8, 98, 0
6, 891040, Note_on_c, 8, 97, 92
6, 891199, Note_on_c, 8, 97, 0
6, 891200, Note_on_c, 8, 98, 92
6, 891359, Note_on_c, 8, 98, 0
6, 891360, Note_on_c, 8, 100, 92
6, 891519, Note_on_c, 8, 100, 0
6, 891520, Note_on_c, 8, 102, 92
6, 891679, Note_on_c, 8, 102, 0
6, 891680, Note_on_c, 8, 103, 92
6, 891819, Note_on_c, 8, 103, 0
6, 891840, Note_on_c, 8, 105, 92
6, 892049, Note_on_c, 8, 105, 0
6, 892080, Note_on_c, 8, 105, 92
6, 892289, Note_on_c, 8, 105, 0
6, 892320, Note_on_c, 8, 105, 92
6, 892529, Note_on_c, 8, 105, 0
6, 892560, Note_on_c, 8, 105, 92
6, 892769, Note_on_c, 8, 105, 0
6, 892800, Note_on_c, 8, 98, 92
6, 893039, Note_on_c, 8, 98, 0
6, 893039, End_track
7, 0, Start_track
7, 0, Title_t, "Flute"
7, 0, MIDI_port, 0
7, 0, Program_c, 0, 73
7, 0, Control_c, 0, 7, 80
7, 0, Control_c, 0, 11, 127
7, 0, Control_c, 0, 10, 60
7, 0, Note_on_c, 0, 82, 92
7, 0, Note_on_c, 0, 70, 92
7, 579, Note_on_c, 0, 82, 0
7, 579, Note_on_c, 0, 70, 0
7, 600, Note_on_c, 0, 69, 92
7, 600, Note_on_c, 0, 81, 92
7, 689, Note_on_c, 0, 69, 0
7, 689, Note_on_c, 0, 81, 0
7, 720, Note_on_c, 0, 81, 92
7, 720, Note_on_c, 0, 69, 92
7, 809, Note_on_c, 0, 81, 0
7, 809, Note_on_c, 0, 69, 0
7, 840, Note_on_c, 0, 74, 92
7, 840, Note_on_c, 0, 86, 92
7, 929, Note_on_c, 0, 74, 0
7, 929, Note_on_c, 0, 86, 0
7, 960, Note_on_c, 0, 86, 92
7, 960, Note_on_c, 0, 74, 92
7, 1049, Note_on_c, 0, 86, 0
7, 1049, Note_on_c, 0, 74, 0
7, 1080, Note_on_c, 0, 89, 92
7, 1080, Note_on_c, 0, 77, 92
7, 1169, Note_on_c, 0, 89, 0
7, 1169, Note_on_c, 0, 77, 0
7, 1200, Note_on_c, 0, 77, 92
7, 1200, Note_on_c, 0, 89, 92
7, 1289, Note_on_c, 0, 77, 0
7, 1289, Note_on_c, 0, 89, 0
7, 1320, Note_on_c, 0, 81, 92
7, 1320, Note_on_c, 0, 93, 92
7, 1409, Note_on_c, 0, 81, 0
7, 1409, Note_on_c, 0, 93, 0
7, 1440, Note_on_c, 0, 93, 92
7, 1440, Note_on_c, 0, 81, 92
7, 1529, Note_on_c, 0, 93, 0
7, 1529, Note_on_c, 0, 81, 0
7, 1560, Note_on_c, 0, 74, 92
7, 1560, Note_on_c, 0, 86, 92
7, 1649, Note_on_c, 0, 74, 0
7, 1649, Note_on_c, 0, 86, 0
7, 1680, Note_on_c, 0, 74, 92
7, 1680, Note_on_c, 0, 86, 92
7, 1769, Note_on_c, 0, 74, 0
7, 1769, Note_on_c, 0, 86, 0
7, 1800, Note_on_c, 0, 77, 92
7, 1800, Note_on_c, 0, 89, 92
7, 1889, Note_on_c, 0, 77, 0
7, 1889, Note_on_c, 0, 89, 0
7, 1920, Note_on_c, 0, 89, 92
7, 1920, Note_on_c, 0, 77, 92
7, 2009, Note_on_c, 0, 89, 0
7, 2009, Note_on_c, 0, 77, 0
7, 2040, Note_on_c, 0, 81, 92
7, 2129, Note_on_c, 0, 81, 0
7, 2160, Note_on_c, 0, 81, 92
7, 2249, Note_on_c, 0, 81, 0
7, 2280, Note_on_c, 0, 86, 92
7, 2369, Note_on_c, 0, 86, 0
7, 2400, Note_on_c, 0, 86, 92
7, 2489, Note_on_c, 0, 86, 0
7, 2520, Note_on_c, 0, 77, 92
7, 2609, Note_on_c, 0, 77, 0
7, 2640, Note_on_c, 0, 77, 92
7, 2729, Note_on_c, 0, 77, 0
7, 2760, Note_on_c, 0, 81, 92
7, 2849, Note_on_c, 0, 81, 0
7, 2880, Note_on_c, 0, 81, 92
7, 2969, Note_on_c, 0, 81, 0
7, 3000, Note_on_c, 0, 74, 92
7, 3089, Note_on_c, 0, 74, 0
7, 3120, Note_on_c, 0, 74, 92
7, 3209, Note_on_c, 0, 74, 0
7, 3240, Note_on_c, 0, 86, 92
7, 3240, Note_on_c, 0, 77, 92
7, 3329, Note_on_c, 0, 86, 0
7, 3329, Note_on_c, 0, 77, 0
7, 3360, Note_on_c, 0, 77, 92
7, 3360, Note_on_c, 0, 86, 92
7, 3449, Note_on_c, 0, 77, 0
7, 3449, Note_on_c, 0, 86, 0
7, 3480, Note_on_c, 0, 78, 92
7, 3480, Note_on_c, 0, 86, 92
7, 3569, Note_on_c, 0, 78, 0
7, 3569, Note_on_c, 0, 86, 0
7, 3600, Note_on_c, 0, 78, 92
7, 3600, Note_on_c, 0, 86, 92
7, 3689, Note_on_c, 0, 78, 0
7, 3689, Note_on_c, 0, 86, 0
7, 3720, Note_on_c, 0, 86, 92
7, 3720, Note_on_c, 0, 79, 92
7, 3809, Note_on_c, 0, 86, 0
7, 3809, Note_on_c, 0, 79, 0
7, 3840, Note_on_c, 0, 79, 92
7, 3840, Note_on_c, 0, 86, 92
7, 3929, Note_on_c, 0, 79, 0
7, 3929, Note_on_c, 0, 86, 0
7, 3960, Note_on_c, 0, 80, 92
7, 3960, Note_on_c, 0, 86, 92
7, 4049, Note_on_c, 0, 80, 0
7, 4049, Note_on_c, 0, 86, 0
7, 4080, Note_on_c, 0, 80, 92
7, 4080, Note_on_c, 0, 86, 92
7, 4169, Note_on_c, 0, 80, 0
7, 4169, Note_on_c, 0, 86, 0
7, 4200, Note_on_c, 0, 86, 92
7, 4289, Note_on_c, 0, 86, 0
7, 4320, Note_on_c, 0, 86, 92
7, 4409, Note_on_c, 0, 86, 0
7, 4440, Note_on_c, 0, 89, 92
7, 4440, Note_on_c, 0, 86, 92
7, 4529, Note_on_c, 0, 89, 0
7, 4529, Note_on_c, 0, 86, 0
7, 4560, Note_on_c, 0, 86, 92
7, 4560, Note_on_c, 0, 89, 92
7, 4739, Note_on_c, 0, 86, 0
7, 4739, Note_on_c, 0, 89, 0
7, 4800, Note_on_c, 0, 81, 92
7, 4800, Note_on_c, 0, 93, 92
7, 4979, Note_on_c, 0, 81, 0
7, 4979, Note_on_c, 0, 93, 0
7, 12240, Note_on_c, 0, 87, 92
7, 12819, Note_on_c, 0, 87, 0
7, 12840, Note_on_c, 0, 81, 92
7, 12929, Note_on_c, 0, 81, 0
7, 12960, Note_on_c, 0, 81, 92
7, 13049, Note_on_c, 0, 81, 0
7, 13080, Note_on_c, 0, 84, 92
7, 13169, Note_on_c, 0, 84, 0
7, 13200, Note_on_c, 0, 84, 92
7, 13289, Note_on_c, 0, 84, 0
7, 13320, Note_on_c, 0, 90, 92
7, 13320, Note_on_c, 0, 78, 92
7, 13409, Note_on_c, 0, 90, 0
7, 13409, Note_on_c, 0, 78, 0
7, 13440, Note_on_c, 0, 78, 92
7, 13440, Note_on_c, 0, 90, 92
7, 13529, Note_on_c, 0, 78, 0
7, 13529, Note_on_c, 0, 90, 0
7, 13560, Note_on_c, 0, 81, 92
7, 13560, Note_on_c, 0, 93, 92
7, 13649, Note_on_c, 0, 81, 0
7, 13649, Note_on_c, 0, 93, 0
7, 13680, Note_on_c, 0, 81, 92
7, 13680, Note_on_c, 0, 93, 92
7, 13769, Note_on_c, 0, 81, 0
7, 13769, Note_on_c, 0, 93, 0
7, 13800, Note_on_c, 0, 72, 92
7, 13800, Note_on_c, 0, 84, 92
7, 13889, Note_on_c, 0, 72, 0
7, 13889, Note_on_c, 0, 84, 0
7, 13920, Note_on_c, 0, 84, 92
7, 13920, Note_on_c, 0, 72, 92
7, 14009, Note_on_c, 0, 84, 0
7, 14009, Note_on_c, 0, 72, 0
7, 14040, Note_on_c, 0, 87, 92
7, 14129, Note_on_c, 0, 87, 0
7, 14160, Note_on_c, 0, 87, 92
7, 14249, Note_on_c, 0, 87, 0
7, 14280, Note_on_c, 0, 81, 92
7, 14369, Note_on_c, 0, 81, 0
7, 14400, Note_on_c, 0, 81, 92
7, 14489, Note_on_c, 0, 81, 0
7, 14520, Note_on_c, 0, 84, 92
7, 14609, Note_on_c, 0, 84, 0
7, 14640, Note_on_c, 0, 84, 92
7, 14729, Note_on_c, 0, 84, 0
7, 14760, Note_on_c, 0, 78, 92
7, 14849, Note_on_c, 0, 78, 0
7, 14880, Note_on_c, 0, 78, 92
7, 14969, Note_on_c, 0, 78, 0
7, 15000, Note_on_c, 0, 81, 92
7, 15089, Note_on_c, 0, 81, 0
7, 15120, Note_on_c, 0, 81, 92
7, 15209, Note_on_c, 0, 81, 0
7, 15240, Note_on_c, 0, 66, 92
7, 15329, Note_on_c, 0, 66, 0
7, 15360, Note_on_c, 0, 66, 92
7, 15449, Note_on_c, 0, 66, 0
7, 15480, Note_on_c, 0, 81, 92
7, 15569, Note_on_c, 0, 81, 0
7, 15600, Note_on_c, 0, 81, 92
7, 15689, Note_on_c, 0, 81, 0
7, 15720, Note_on_c, 0, 82, 92
7, 15809, Note_on_c, 0, 82, 0
7, 15840, Note_on_c, 0, 82, 92
7, 15929, Note_on_c, 0, 82, 0
7, 15960, Note_on_c, 0, 84, 92
7, 16049, Note_on_c, 0, 84, 0
7, 16080, Note_on_c, 0, 84, 92
7, 16169, Note_on_c, 0, 84, 0
7, 16200, Note_on_c, 0, 86, 92
7, 16289, Note_on_c, 0, 86, 0
7, 16320, Note_on_c, 0, 86, 92
7, 16409, Note_on_c, 0, 86, 0
7, 16440, Note_on_c, 0, 87, 92
7, 16529, Note_on_c, 0, 87, 0
7, 16560, Note_on_c, 0, 84, 92
7, 16560, Note_on_c, 0, 87, 92
7, 16649, Note_on_c, 0, 84, 0
7, 16649, Note_on_c, 0, 87, 0
7, 16680, Note_on_c, 0, 87, 92
7, 16680, Note_on_c, 0, 84, 92
7, 16769, Note_on_c, 0, 87, 0
7, 16769, Note_on_c, 0, 84, 0
7, 16800, Note_on_c, 0, 87, 92
7, 16800, Note_on_c, 0, 84, 92
7, 17039, Note_on_c, 0, 87, 0
7, 17039, Note_on_c, 0, 84, 0
7, 17400, Note_on_c, 0, 87, 92
7, 17400, Note_on_c, 0, 84, 92
7, 17499, Note_on_c, 0, 87, 0
7, 17499, Note_on_c, 0, 84, 0
7, 17520, Note_on_c, 0, 87, 92
7, 17520, Note_on_c, 0, 84, 92
7, 17759, Note_on_c, 0, 87, 0
7, 17759, Note_on_c, 0, 84, 0
7, 20640, Note_on_c, 0, 86, 80
7, 20640, Note_on_c, 0, 89, 80
7, 20759, Note_on_c, 0, 86, 0
7, 20759, Note_on_c, 0, 89, 0
7, 20880, Note_on_c, 0, 86, 80
7, 20880, Note_on_c, 0, 91, 80
7, 20999, Note_on_c, 0, 86, 0
7, 20999, Note_on_c, 0, 91, 0
7, 21120, Note_on_c, 0, 81, 32
7, 21120, Note_on_c, 0, 93, 32
7, 23039, Note_on_c, 0, 81, 0
7, 23039, Note_on_c, 0, 93, 0
7, 23040, Note_on_c, 0, 93, 32
7, 23040, Note_on_c, 0, 81, 32
7, 24959, Note_on_c, 0, 93, 0
7, 24959, Note_on_c, 0, 81, 0
7, 24960, Note_on_c, 0, 81, 80
7, 24960, Note_on_c, 0, 93, 80
7, 25199, Note_on_c, 0, 81, 0
7, 25199, Note_on_c, 0, 93, 0
7, 32160, Note_on_c, 0, 88, 44
7, 32489, Note_on_c, 0, 88, 0
7, 32520, Note_on_c, 0, 76, 44
7, 32609, Note_on_c, 0, 76, 0
7, 32640, Note_on_c, 0, 76, 44
7, 32849, Note_on_c, 0, 76, 0
7, 32880, Note_on_c, 0, 81, 44
7, 33059, Note_on_c, 0, 81, 0
7, 33120, Note_on_c, 0, 83, 44
7, 33299, Note_on_c, 0, 83, 0
7, 33360, Note_on_c, 0, 84, 44
7, 33539, Note_on_c, 0, 84, 0
7, 33600, Note_on_c, 0, 83, 44
7, 33779, Note_on_c, 0, 83, 0
7, 33840, Note_on_c, 0, 84, 44
7, 34019, Note_on_c, 0, 84, 0
7, 34080, Note_on_c, 0, 86, 44
7, 34259, Note_on_c, 0, 86, 0
7, 34320, Note_on_c, 0, 84, 44
7, 34499, Note_on_c, 0, 84, 0
7, 34560, Note_on_c, 0, 83, 44
7, 34739, Note_on_c, 0, 83, 0
7, 34800, Note_on_c, 0, 81, 44
7, 34979, Note_on_c, 0, 81, 0
7, 35040, Note_on_c, 0, 82, 44
7, 35219, Note_on_c, 0, 82, 0
7, 35280, Note_on_c, 0, 81, 44
7, 35459, Note_on_c, 0, 81, 0
7, 35520, Note_on_c, 0, 79, 44
7, 35699, Note_on_c, 0, 79, 0
7, 35760, Note_on_c, 0, 81, 44
7, 35939, Note_on_c, 0, 81, 0
7, 36000, Note_on_c, 0, 82, 44
7, 36179, Note_on_c, 0, 82, 0
7, 36240, Note_on_c, 0, 84, 44
7, 36419, Note_on_c, 0, 84, 0
7, 36480, Note_on_c, 0, 88, 44
7, 36659, Note_on_c, 0, 88, 0
7, 36720, Note_on_c, 0, 89, 44
7, 36899, Note_on_c, 0, 89, 0
7, 36960, Note_on_c, 0, 91, 44
7, 37139, Note_on_c, 0, 91, 0
7, 37200, Note_on_c, 0, 89, 44
7, 37379, Note_on_c, 0, 89, 0
7, 37440, Note_on_c, 0, 91, 44
7, 37619, Note_on_c, 0, 91, 0
7, 37680, Note_on_c, 0, 93, 44
7, 37859, Note_on_c, 0, 93, 0
7, 43200, Note_on_c, 0, 86, 38
7, 43679, Note_on_c, 0, 86, 0
7, 43680, Note_on_c, 0, 81, 38
7, 44159, Note_on_c, 0, 81, 0
7, 44160, Note_on_c, 0, 82, 38
7, 44399, Note_on_c, 0, 82, 0
7, 47760, Control_c, 0, 11, 89
7, 48000, Note_on_c, 0, 73, 68
7, 49440, Control_c, 0, 11, 89
7, 49473, Control_c, 0, 11, 90
7, 49507, Control_c, 0, 11, 91
7, 49540, Control_c, 0, 11, 92
7, 49573, Control_c, 0, 11, 93
7, 49607, Control_c, 0, 11, 94
7, 49640, Control_c, 0, 11, 95
7, 49673, Control_c, 0, 11, 96
7, 49707, Control_c, 0, 11, 97
7, 49740, Control_c, 0, 11, 99
7, 49773, Control_c, 0, 11, 100
7, 49807, Control_c, 0, 11, 101
7, 49840, Control_c, 0, 11, 102
7, 49873, Control_c, 0, 11, 103
7, 49904, Note_on_c, 0, 73, 0
7, 49907, Control_c, 0, 11, 104
7, 49920, Note_on_c, 0, 78, 68
7, 49940, Control_c, 0, 11, 105
7, 49973, Control_c, 0, 11, 106
7, 50007, Control_c, 0, 11, 107
7, 50040, Control_c, 0, 11, 108
7, 50073, Control_c, 0, 11, 109
7, 50107, Control_c, 0, 11, 110
7, 50140, Control_c, 0, 11, 111
7, 50173, Control_c, 0, 11, 112
7, 50207, Control_c, 0, 11, 113
7, 50240, Control_c, 0, 11, 114
7, 50273, Control_c, 0, 11, 115
7, 50307, Control_c, 0, 11, 116
7, 50340, Control_c, 0, 11, 118
7, 50373, Control_c, 0, 11, 119
7, 50407, Control_c, 0, 11, 120
7, 50440, Control_c, 0, 11, 121
7, 50473, Control_c, 0, 11, 122
7, 50507, Control_c, 0, 11, 123
7, 50540, Control_c, 0, 11, 124
7, 50573, Control_c, 0, 11, 125
7, 50607, Control_c, 0, 11, 127
7, 50639, Note_on_c, 0, 78, 0
7, 57840, Note_on_c, 0, 85, 80
7, 58019, Note_on_c, 0, 85, 0
7, 58560, Note_on_c, 0, 79, 80
7, 58560, Note_on_c, 0, 88, 80
7, 58739, Note_on_c, 0, 79, 0
7, 58739, Note_on_c, 0, 88, 0
7, 59280, Note_on_c, 0, 88, 80
7, 59280, Note_on_c, 0, 85, 80
7, 59459, Note_on_c, 0, 88, 0
7, 59459, Note_on_c, 0, 85, 0
7, 60000, Note_on_c, 0, 81, 80
7, 60000, Note_on_c, 0, 86, 80
7, 60179, Note_on_c, 0, 81, 0
7, 60179, Note_on_c, 0, 86, 0
7, 62880, Note_on_c, 0, 83, 80
7, 63104, Note_on_c, 0, 83, 0
7, 63120, Note_on_c, 0, 83, 80
7, 63120, Note_on_c, 0, 91, 80
7, 63239, Note_on_c, 0, 83, 0
7, 63239, Note_on_c, 0, 91, 0
7, 64800, Note_on_c, 0, 85, 92
7, 64800, Note_on_c, 0, 88, 92
7, 65039, Note_on_c, 0, 85, 0
7, 65039, Note_on_c, 0, 88, 0
7, 65280, Note_on_c, 0, 90, 92
7, 65280, Note_on_c, 0, 86, 92
7, 65519, Note_on_c, 0, 90, 0
7, 65519, Note_on_c, 0, 86, 0
7, 134640, Note_on_c, 0, 90, 80
7, 134640, Note_on_c, 0, 86, 80
7, 135119, Note_on_c, 0, 90, 0
7, 135119, Note_on_c, 0, 86, 0
7, 135120, Note_on_c, 0, 91, 80
7, 135120, Note_on_c, 0, 88, 80
7, 135359, Note_on_c, 0, 91, 0
7, 135359, Note_on_c, 0, 88, 0
7, 135360, Note_on_c, 0, 93, 80
7, 135360, Note_on_c, 0, 90, 80
7, 135584, Note_on_c, 0, 93, 0
7, 135584, Note_on_c, 0, 90, 0
7, 135600, Note_on_c, 0, 93, 80
7, 135600, Note_on_c, 0, 90, 80
7, 135839, Note_on_c, 0, 93, 0
7, 135839, Note_on_c, 0, 90, 0
7, 135840, Note_on_c, 0, 88, 80
7, 135840, Note_on_c, 0, 91, 80
7, 136064, Note_on_c, 0, 88, 0
7, 136064, Note_on_c, 0, 91, 0
7, 136080, Note_on_c, 0, 86, 80
7, 136080, Note_on_c, 0, 90, 80
7, 136289, Note_on_c, 0, 86, 0
7, 136289, Note_on_c, 0, 90, 0
7, 136320, Note_on_c, 0, 88, 80
7, 136320, Note_on_c, 0, 81, 80
7, 136499, Note_on_c, 0, 88, 0
7, 136499, Note_on_c, 0, 81, 0
7, 136560, Note_on_c, 0, 78, 80
7, 136560, Note_on_c, 0, 86, 80
7, 136784, Note_on_c, 0, 78, 0
7, 136784, Note_on_c, 0, 86, 0
7, 136800, Note_on_c, 0, 78, 80
7, 136800, Note_on_c, 0, 86, 80
7, 137039, Note_on_c, 0, 78, 0
7, 137039, Note_on_c, 0, 86, 0
7, 137040, Note_on_c, 0, 88, 80
7, 137040, Note_on_c, 0, 81, 80
7, 137279, Note_on_c, 0, 88, 0
7, 137279, Note_on_c, 0, 81, 0
7, 137280, Note_on_c, 0, 90, 80
7, 137280, Note_on_c, 0, 86, 80
7, 137504, Note_on_c, 0, 90, 0
7, 137504, Note_on_c, 0, 86, 0
7, 137520, Note_on_c, 0, 86, 80
7, 137520, Note_on_c, 0, 90, 80
7, 137879, Note_on_c, 0, 86, 0
7, 137879, Note_on_c, 0, 90, 0
7, 137880, Note_on_c, 0, 85, 80
7, 137880, Note_on_c, 0, 88, 80
7, 137984, Note_on_c, 0, 85, 0
7, 137984, Note_on_c, 0, 88, 0
7, 138000, Note_on_c, 0, 85, 80
7, 138000, Note_on_c, 0, 88, 80
7, 138464, Note_on_c, 0, 85, 0
7, 138464, Note_on_c, 0, 88, 0
7, 138480, Note_on_c, 0, 86, 92
7, 138480, Note_on_c, 0, 90, 92
7, 138540, Control_c, 0, 11, 107
7, 138959, Note_on_c, 0, 86, 0
7, 138959, Note_on_c, 0, 90, 0
7, 138960, Note_on_c, 0, 88, 92
7, 138960, Note_on_c, 0, 91, 92
7, 139199, Note_on_c, 0, 88, 0
7, 139199, Note_on_c, 0, 91, 0
7, 139200, Note_on_c, 0, 90, 92
7, 139200, Note_on_c, 0, 93, 92
7, 139424, Note_on_c, 0, 90, 0
7, 139424, Note_on_c, 0, 93, 0
7, 139438, Control_c, 0, 11, 127
7, 139440, Note_on_c, 0, 90, 80
7, 139440, Note_on_c, 0, 93, 80
7, 139679, Note_on_c, 0, 90, 0
7, 139679, Note_on_c, 0, 93, 0
7, 139680, Note_on_c, 0, 88, 80
7, 139680, Note_on_c, 0, 91, 80
7, 139904, Note_on_c, 0, 88, 0
7, 139904, Note_on_c, 0, 91, 0
7, 139920, Note_on_c, 0, 86, 80
7, 139920, Note_on_c, 0, 90, 80
7, 140129, Note_on_c, 0, 86, 0
7, 140129, Note_on_c, 0, 90, 0
7, 140160, Note_on_c, 0, 81, 80
7, 140160, Note_on_c, 0, 88, 80
7, 140339, Note_on_c, 0, 81, 0
7, 140339, Note_on_c, 0, 88, 0
7, 140400, Note_on_c, 0, 78, 80
7, 140400, Note_on_c, 0, 86, 80
7, 140609, Note_on_c, 0, 78, 0
7, 140609, Note_on_c, 0, 86, 0
7, 140640, Note_on_c, 0, 78, 80
7, 140640, Note_on_c, 0, 86, 80
7, 140849, Note_on_c, 0, 78, 0
7, 140849, Note_on_c, 0, 86, 0
7, 140880, Note_on_c, 0, 88, 80
7, 140880, Note_on_c, 0, 81, 80
7, 141089, Note_on_c, 0, 88, 0
7, 141089, Note_on_c, 0, 81, 0
7, 141120, Note_on_c, 0, 86, 80
7, 141120, Note_on_c, 0, 90, 80
7, 141299, Note_on_c, 0, 86, 0
7, 141299, Note_on_c, 0, 90, 0
7, 141360, Note_on_c, 0, 81, 80
7, 141360, Note_on_c, 0, 88, 80
7, 141719, Note_on_c, 0, 81, 0
7, 141719, Note_on_c, 0, 88, 0
7, 141720, Note_on_c, 0, 78, 80
7, 141720, Note_on_c, 0, 86, 80
7, 141824, Note_on_c, 0, 78, 0
7, 141824, Note_on_c, 0, 86, 0
7, 141840, Note_on_c, 0, 86, 80
7, 141840, Note_on_c, 0, 78, 80
7, 142304, Note_on_c, 0, 86, 0
7, 142304, Note_on_c, 0, 78, 0
7, 142320, Note_on_c, 0, 88, 80
7, 142320, Note_on_c, 0, 85, 80
7, 142799, Note_on_c, 0, 88, 0
7, 142799, Note_on_c, 0, 85, 0
7, 142800, Note_on_c, 0, 86, 80
7, 142800, Note_on_c, 0, 90, 80
7, 143039, Note_on_c, 0, 86, 0
7, 143039, Note_on_c, 0, 90, 0
7, 143040, Note_on_c, 0, 86, 80
7, 143264, Note_on_c, 0, 86, 0
7, 143280, Note_on_c, 0, 85, 80
7, 143280, Note_on_c, 0, 88, 80
7, 143519, Note_on_c, 0, 85, 0
7, 143519, Note_on_c, 0, 88, 0
7, 143520, Note_on_c, 0, 90, 80
7, 143520, Note_on_c, 0, 86, 80
7, 143639, Note_on_c, 0, 90, 0
7, 143639, Note_on_c, 0, 86, 0
7, 143640, Note_on_c, 0, 91, 80
7, 143640, Note_on_c, 0, 88, 80
7, 143759, Note_on_c, 0, 91, 0
7, 143759, Note_on_c, 0, 88, 0
7, 143760, Note_on_c, 0, 90, 80
7, 143760, Note_on_c, 0, 86, 80
7, 143984, Note_on_c, 0, 90, 0
7, 143984, Note_on_c, 0, 86, 0
7, 144000, Note_on_c, 0, 86, 80
7, 144179, Note_on_c, 0, 86, 0
7, 144240, Note_on_c, 0, 85, 80
7, 144240, Note_on_c, 0, 88, 80
7, 144479, Note_on_c, 0, 85, 0
7, 144479, Note_on_c, 0, 88, 0
7, 144480, Note_on_c, 0, 86, 80
7, 144480, Note_on_c, 0, 90, 80
7, 144599, Note_on_c, 0, 86, 0
7, 144599, Note_on_c, 0, 90, 0
7, 144600, Note_on_c, 0, 91, 80
7, 144600, Note_on_c, 0, 88, 80
7, 144704, Note_on_c, 0, 91, 0
7, 144704, Note_on_c, 0, 88, 0
7, 144720, Note_on_c, 0, 85, 80
7, 144720, Note_on_c, 0, 90, 80
7, 144944, Note_on_c, 0, 85, 0
7, 144959, Note_on_c, 0, 90, 0
7, 144960, Note_on_c, 0, 85, 80
7, 144960, Note_on_c, 0, 88, 80
7, 145184, Note_on_c, 0, 85, 0
7, 145184, Note_on_c, 0, 88, 0
7, 145200, Note_on_c, 0, 86, 80
7, 145200, Note_on_c, 0, 83, 80
7, 145379, Note_on_c, 0, 86, 0
7, 145379, Note_on_c, 0, 83, 0
7, 145440, Note_on_c, 0, 88, 80
7, 145440, Note_on_c, 0, 80, 80
7, 145619, Note_on_c, 0, 88, 0
7, 145619, Note_on_c, 0, 80, 0
7, 145680, Note_on_c, 0, 81, 80
7, 145859, Note_on_c, 0, 81, 0
7, 145920, Note_on_c, 0, 90, 80
7, 145920, Note_on_c, 0, 86, 80
7, 146384, Note_on_c, 0, 90, 0
7, 146384, Note_on_c, 0, 86, 0
7, 146400, Note_on_c, 0, 86, 80
7, 146400, Note_on_c, 0, 90, 80
7, 146609, Note_on_c, 0, 86, 0
7, 146609, Note_on_c, 0, 90, 0
7, 146640, Note_on_c, 0, 91, 80
7, 146640, Note_on_c, 0, 88, 80
7, 146849, Note_on_c, 0, 91, 0
7, 146849, Note_on_c, 0, 88, 0
7, 146880, Note_on_c, 0, 90, 80
7, 146880, Note_on_c, 0, 93, 80
7, 147059, Note_on_c, 0, 90, 0
7, 147059, Note_on_c, 0, 93, 0
7, 147120, Note_on_c, 0, 93, 80
7, 147120, Note_on_c, 0, 90, 80
7, 147359, Note_on_c, 0, 93, 0
7, 147359, Note_on_c, 0, 90, 0
7, 147360, Note_on_c, 0, 88, 80
7, 147360, Note_on_c, 0, 91, 80
7, 147584, Note_on_c, 0, 88, 0
7, 147584, Note_on_c, 0, 91, 0
7, 147600, Note_on_c, 0, 86, 80
7, 147600, Note_on_c, 0, 90, 80
7, 147809, Note_on_c, 0, 86, 0
7, 147809, Note_on_c, 0, 90, 0
7, 147840, Note_on_c, 0, 88, 80
7, 147840, Note_on_c, 0, 81, 80
7, 148019, Note_on_c, 0, 88, 0
7, 148019, Note_on_c, 0, 81, 0
7, 148080, Note_on_c, 0, 86, 80
7, 148080, Note_on_c, 0, 78, 80
7, 148289, Note_on_c, 0, 86, 0
7, 148289, Note_on_c, 0, 78, 0
7, 148320, Note_on_c, 0, 86, 80
7, 148320, Note_on_c, 0, 78, 80
7, 148529, Note_on_c, 0, 86, 0
7, 148529, Note_on_c, 0, 78, 0
7, 148560, Note_on_c, 0, 88, 80
7, 148560, Note_on_c, 0, 81, 80
7, 148769, Note_on_c, 0, 88, 0
7, 148769, Note_on_c, 0, 81, 0
7, 148800, Note_on_c, 0, 86, 80
7, 148800, Note_on_c, 0, 90, 80
7, 148979, Note_on_c, 0, 86, 0
7, 148979, Note_on_c, 0, 90, 0
7, 149040, Note_on_c, 0, 81, 80
7, 149040, Note_on_c, 0, 88, 80
7, 149399, Note_on_c, 0, 81, 0
7, 149399, Note_on_c, 0, 88, 0
7, 149400, Note_on_c, 0, 78, 80
7, 149400, Note_on_c, 0, 86, 80
7, 149504, Note_on_c, 0, 78, 0
7, 149504, Note_on_c, 0, 86, 0
7, 149520, Note_on_c, 0, 78, 80
7, 149520, Note_on_c, 0, 86, 80
7, 149609, Note_on_c, 0, 78, 0
7, 149609, Note_on_c, 0, 86, 0
7, 149640, Note_on_c, 0, 93, 80
7, 149640, Note_on_c, 0, 90, 80
7, 149759, Note_on_c, 0, 93, 0
7, 149759, Note_on_c, 0, 90, 0
7, 149760, Note_on_c, 0, 91, 80
7, 149760, Note_on_c, 0, 88, 80
7, 149879, Note_on_c, 0, 91, 0
7, 149879, Note_on_c, 0, 88, 0
7, 149880, Note_on_c, 0, 90, 80
7, 149880, Note_on_c, 0, 86, 80
7, 149984, Note_on_c, 0, 90, 0
7, 149984, Note_on_c, 0, 86, 0
7, 150000, Note_on_c, 0, 88, 92
7, 150000, Note_on_c, 0, 85, 92
7, 150060, Control_c, 0, 11, 107
7, 150464, Note_on_c, 0, 88, 0
7, 150464, Note_on_c, 0, 85, 0
7, 150478, Control_c, 0, 11, 127
7, 150480, Note_on_c, 0, 90, 80
7, 150480, Note_on_c, 0, 86, 80
7, 150719, Note_on_c, 0, 90, 0
7, 150719, Note_on_c, 0, 86, 0
7, 150720, Note_on_c, 0, 86, 80
7, 150720, Note_on_c, 0, 78, 80
7, 150944, Note_on_c, 0, 86, 0
7, 150944, Note_on_c, 0, 78, 0
7, 150960, Note_on_c, 0, 88, 80
7, 150960, Note_on_c, 0, 85, 80
7, 151199, Note_on_c, 0, 88, 0
7, 151199, Note_on_c, 0, 85, 0
7, 151200, Note_on_c, 0, 90, 80
7, 151200, Note_on_c, 0, 86, 80
7, 151319, Note_on_c, 0, 90, 0
7, 151319, Note_on_c, 0, 86, 0
7, 151320, Note_on_c, 0, 91, 80
7, 151320, Note_on_c, 0, 88, 80
7, 151439, Note_on_c, 0, 91, 0
7, 151439, Note_on_c, 0, 88, 0
7, 151440, Note_on_c, 0, 86, 80
7, 151440, Note_on_c, 0, 90, 80
7, 151664, Note_on_c, 0, 86, 0
7, 151664, Note_on_c, 0, 90, 0
7, 151680, Note_on_c, 0, 86, 80
7, 151859, Note_on_c, 0, 86, 0
7, 151920, Note_on_c, 0, 88, 80
7, 151920, Note_on_c, 0, 85, 80
7, 152159, Note_on_c, 0, 88, 0
7, 152159, Note_on_c, 0, 85, 0
7, 152160, Note_on_c, 0, 90, 80
7, 152160, Note_on_c, 0, 86, 80
7, 152279, Note_on_c, 0, 90, 0
7, 152279, Note_on_c, 0, 86, 0
7, 152280, Note_on_c, 0, 88, 80
7, 152280, Note_on_c, 0, 91, 80
7, 152384, Note_on_c, 0, 88, 0
7, 152384, Note_on_c, 0, 91, 0
7, 152400, Note_on_c, 0, 85, 80
7, 152400, Note_on_c, 0, 90, 80
7, 152624, Note_on_c, 0, 85, 0
7, 152639, Note_on_c, 0, 90, 0
7, 152640, Note_on_c, 0, 88, 80
7, 152640, Note_on_c, 0, 85, 80
7, 152864, Note_on_c, 0, 88, 0
7, 152864, Note_on_c, 0, 85, 0
7, 152880, Note_on_c, 0, 83, 80
7, 152880, Note_on_c, 0, 86, 80
7, 153059, Note_on_c, 0, 83, 0
7, 153059, Note_on_c, 0, 86, 0
7, 153120, Note_on_c, 0, 80, 80
7, 153120, Note_on_c, 0, 88, 80
7, 153299, Note_on_c, 0, 80, 0
7, 153299, Note_on_c, 0, 88, 0
7, 153360, Note_on_c, 0, 81, 80
7, 153539, Note_on_c, 0, 81, 0
7, 153600, Note_on_c, 0, 90, 80
7, 153600, Note_on_c, 0, 86, 80
7, 154064, Note_on_c, 0, 90, 0
7, 154064, Note_on_c, 0, 86, 0
7, 154080, Note_on_c, 0, 86, 80
7, 154080, Note_on_c, 0, 90, 80
7, 154289, Note_on_c, 0, 86, 0
7, 154289, Note_on_c, 0, 90, 0
7, 154320, Note_on_c, 0, 88, 80
7, 154320, Note_on_c, 0, 91, 80
7, 154529, Note_on_c, 0, 88, 0
7, 154529, Note_on_c, 0, 91, 0
7, 154560, Note_on_c, 0, 90, 80
7, 154560, Note_on_c, 0, 93, 80
7, 154739, Note_on_c, 0, 90, 0
7, 154739, Note_on_c, 0, 93, 0
7, 154800, Note_on_c, 0, 90, 80
7, 154800, Note_on_c, 0, 93, 80
7, 155039, Note_on_c, 0, 90, 0
7, 155039, Note_on_c, 0, 93, 0
7, 155040, Note_on_c, 0, 88, 80
7, 155040, Note_on_c, 0, 91, 80
7, 155264, Note_on_c, 0, 88, 0
7, 155264, Note_on_c, 0, 91, 0
7, 155280, Note_on_c, 0, 86, 80
7, 155280, Note_on_c, 0, 90, 80
7, 155489, Note_on_c, 0, 86, 0
7, 155489, Note_on_c, 0, 90, 0
7, 155520, Note_on_c, 0, 88, 80
7, 155520, Note_on_c, 0, 81, 80
7, 155699, Note_on_c, 0, 88, 0
7, 155699, Note_on_c, 0, 81, 0
7, 155760, Note_on_c, 0, 78, 80
7, 155760, Note_on_c, 0, 86, 80
7, 155984, Note_on_c, 0, 78, 0
7, 155984, Note_on_c, 0, 86, 0
7, 156000, Note_on_c, 0, 78, 80
7, 156000, Note_on_c, 0, 86, 80
7, 156209, Note_on_c, 0, 78, 0
7, 156209, Note_on_c, 0, 86, 0
7, 156240, Note_on_c, 0, 88, 80
7, 156240, Note_on_c, 0, 81, 80
7, 156449, Note_on_c, 0, 88, 0
7, 156449, Note_on_c, 0, 81, 0
7, 156480, Note_on_c, 0, 90, 80
7, 156480, Note_on_c, 0, 86, 80
7, 156659, Note_on_c, 0, 90, 0
7, 156659, Note_on_c, 0, 86, 0
7, 156720, Note_on_c, 0, 81, 80
7, 156720, Note_on_c, 0, 88, 80
7, 157079, Note_on_c, 0, 81, 0
7, 157079, Note_on_c, 0, 88, 0
7, 157080, Note_on_c, 0, 86, 80
7, 157080, Note_on_c, 0, 78, 80
7, 157184, Note_on_c, 0, 86, 0
7, 157184, Note_on_c, 0, 78, 0
7, 157200, Note_on_c, 0, 86, 80
7, 157200, Note_on_c, 0, 78, 80
7, 157424, Note_on_c, 0, 86, 0
7, 157424, Note_on_c, 0, 78, 0
7, 157440, Note_on_c, 0, 93, 80
7, 157440, Note_on_c, 0, 90, 80
7, 157679, Note_on_c, 0, 93, 0
7, 157679, Note_on_c, 0, 90, 0
7, 157680, Note_on_c, 0, 91, 80
7, 157680, Note_on_c, 0, 88, 80
7, 158039, Note_on_c, 0, 91, 0
7, 158039, Note_on_c, 0, 88, 0
7, 158040, Note_on_c, 0, 90, 80
7, 158040, Note_on_c, 0, 86, 80
7, 158144, Note_on_c, 0, 90, 0
7, 158144, Note_on_c, 0, 86, 0
7, 158160, Note_on_c, 0, 86, 80
7, 158160, Note_on_c, 0, 90, 80
7, 158384, Note_on_c, 0, 86, 0
7, 158384, Note_on_c, 0, 90, 0
7, 158400, Note_on_c, 0, 86, 80
7, 158624, Note_on_c, 0, 86, 0
7, 158640, Note_on_c, 0, 90, 80
7, 158640, Note_on_c, 0, 86, 80
7, 158984, Note_on_c, 0, 86, 0
7, 158999, Note_on_c, 0, 90, 0
7, 159000, Note_on_c, 0, 86, 80
7, 159000, Note_on_c, 0, 91, 80
7, 159104, Note_on_c, 0, 86, 0
7, 159104, Note_on_c, 0, 91, 0
7, 159120, Note_on_c, 0, 86, 80
7, 159120, Note_on_c, 0, 91, 80
7, 159344, Note_on_c, 0, 86, 0
7, 159344, Note_on_c, 0, 91, 0
7, 159360, Note_on_c, 0, 83, 80
7, 159360, Note_on_c, 0, 91, 80
7, 159584, Note_on_c, 0, 83, 0
7, 159599, Note_on_c, 0, 91, 0
7, 159600, Note_on_c, 0, 90, 80
7, 159600, Note_on_c, 0, 83, 80
7, 159959, Note_on_c, 0, 90, 0
7, 159960, Note_on_c, 0, 88, 80
7, 160064, Note_on_c, 0, 83, 0
7, 160064, Note_on_c, 0, 88, 0
7, 160080, Note_on_c, 0, 85, 80
7, 160080, Note_on_c, 0, 88, 80
7, 160304, Note_on_c, 0, 85, 0
7, 160304, Note_on_c, 0, 88, 0
7, 160320, Note_on_c, 0, 79, 80
7, 160320, Note_on_c, 0, 88, 80
7, 160439, Note_on_c, 0, 79, 0
7, 160439, Note_on_c, 0, 88, 0
7, 160440, Note_on_c, 0, 81, 80
7, 160440, Note_on_c, 0, 90, 80
7, 160544, Note_on_c, 0, 81, 0
7, 160544, Note_on_c, 0, 90, 0
7, 160560, Note_on_c, 0, 79, 80
7, 160560, Note_on_c, 0, 88, 80
7, 160919, Note_on_c, 0, 79, 0
7, 160919, Note_on_c, 0, 88, 0
7, 160920, Note_on_c, 0, 86, 80
7, 160920, Note_on_c, 0, 78, 80
7, 161024, Note_on_c, 0, 86, 0
7, 161024, Note_on_c, 0, 78, 0
7, 161040, Note_on_c, 0, 86, 80
7, 161040, Note_on_c, 0, 81, 80
7, 161159, Note_on_c, 0, 86, 0
7, 161264, Note_on_c, 0, 81, 0
7, 161280, Note_on_c, 0, 93, 80
7, 161280, Note_on_c, 0, 86, 80
7, 161399, Note_on_c, 0, 93, 0
7, 161400, Note_on_c, 0, 90, 80
7, 161504, Note_on_c, 0, 86, 0
7, 161504, Note_on_c, 0, 90, 0
7, 161520, Note_on_c, 0, 90, 80
7, 161520, Note_on_c, 0, 86, 80
7, 161879, Note_on_c, 0, 90, 0
7, 161880, Note_on_c, 0, 88, 80
7, 161984, Note_on_c, 0, 86, 0
7, 161984, Note_on_c, 0, 88, 0
7, 162000, Note_on_c, 0, 85, 80
7, 162000, Note_on_c, 0, 88, 80
7, 162224, Note_on_c, 0, 88, 0
7, 162240, Note_on_c, 0, 88, 80
7, 162464, Note_on_c, 0, 88, 0
7, 162480, Note_on_c, 0, 91, 80
7, 162839, Note_on_c, 0, 91, 0
7, 162840, Note_on_c, 0, 90, 80
7, 162944, Note_on_c, 0, 85, 0
7, 162944, Note_on_c, 0, 90, 0
7, 162960, Note_on_c, 0, 86, 80
7, 162960, Note_on_c, 0, 90, 80
7, 163184, Note_on_c, 0, 90, 0
7, 163200, Note_on_c, 0, 90, 80
7, 163424, Note_on_c, 0, 86, 0
7, 163424, Note_on_c, 0, 90, 0
7, 163440, Note_on_c, 0, 93, 80
7, 163440, Note_on_c, 0, 87, 80
7, 163664, Note_on_c, 0, 87, 0
7, 163680, Note_on_c, 0, 90, 80
7, 163799, Note_on_c, 0, 93, 0
7, 163800, Note_on_c, 0, 92, 80
7, 163904, Note_on_c, 0, 90, 0
7, 163904, Note_on_c, 0, 92, 0
7, 163920, Note_on_c, 0, 92, 80
7, 163920, Note_on_c, 0, 89, 80
7, 164144, Note_on_c, 0, 92, 0
7, 164144, Note_on_c, 0, 89, 0
7, 164160, Note_on_c, 0, 92, 80
7, 164160, Note_on_c, 0, 89, 80
7, 164384, Note_on_c, 0, 92, 0
7, 164384, Note_on_c, 0, 89, 0
7, 164400, Note_on_c, 0, 88, 80
7, 164400, Note_on_c, 0, 91, 80
7, 164624, Note_on_c, 0, 88, 0
7, 164640, Note_on_c, 0, 76, 80
7, 164759, Note_on_c, 0, 91, 0
7, 164760, Note_on_c, 0, 82, 80
7, 164864, Note_on_c, 0, 76, 0
7, 164864, Note_on_c, 0, 82, 0
7, 164880, Note_on_c, 0, 85, 80
7, 165120, Note_on_c, 0, 78, 80
7, 165239, Note_on_c, 0, 85, 0
7, 165239, Note_on_c, 0, 78, 0
7, 165240, Note_on_c, 0, 83, 80
7, 165344, Note_on_c, 0, 83, 0
7, 165360, Note_on_c, 0, 83, 80
7, 165360, Note_on_c, 0, 86, 80
7, 165584, Note_on_c, 0, 83, 0
7, 165600, Note_on_c, 0, 80, 80
7, 165719, Note_on_c, 0, 86, 0
7, 165720, Note_on_c, 0, 85, 80
7, 165824, Note_on_c, 0, 80, 0
7, 165824, Note_on_c, 0, 85, 0
7, 165840, Note_on_c, 0, 88, 80
7, 165840, Note_on_c, 0, 85, 80
7, 166064, Note_on_c, 0, 85, 0
7, 166080, Note_on_c, 0, 81, 80
7, 166199, Note_on_c, 0, 88, 0
7, 166200, Note_on_c, 0, 86, 80
7, 166304, Note_on_c, 0, 81, 0
7, 166304, Note_on_c, 0, 86, 0
7, 166320, Note_on_c, 0, 86, 80
7, 166320, Note_on_c, 0, 90, 80
7, 166544, Note_on_c, 0, 86, 0
7, 166560, Note_on_c, 0, 83, 80
7, 166679, Note_on_c, 0, 90, 0
7, 166680, Note_on_c, 0, 88, 80
7, 166784, Note_on_c, 0, 88, 0
7, 166800, Note_on_c, 0, 88, 80
7, 167024, Note_on_c, 0, 83, 0
7, 167040, Note_on_c, 0, 83, 80
7, 167159, Note_on_c, 0, 88, 0
7, 167160, Note_on_c, 0, 86, 80
7, 167264, Note_on_c, 0, 86, 0
7, 167280, Note_on_c, 0, 90, 80
7, 167504, Note_on_c, 0, 83, 0
7, 167520, Note_on_c, 0, 83, 80
7, 167639, Note_on_c, 0, 90, 0
7, 167640, Note_on_c, 0, 88, 80
7, 167879, Note_on_c, 0, 83, 0
7, 167879, Note_on_c, 0, 88, 0
7, 167880, Note_on_c, 0, 86, 80
7, 167999, Note_on_c, 0, 86, 0
7, 168000, Note_on_c, 0, 83, 80
7, 168119, Note_on_c, 0, 83, 0
7, 168120, Note_on_c, 0, 88, 80
7, 168479, Note_on_c, 0, 88, 0
7, 168480, Note_on_c, 0, 85, 80
7, 168719, Note_on_c, 0, 85, 0
7, 168720, Note_on_c, 0, 81, 80
7, 168959, Note_on_c, 0, 81, 0
7, 168960, Note_on_c, 0, 90, 80
7, 169184, Note_on_c, 0, 90, 0
7, 169200, Note_on_c, 0, 88, 80
7, 169424, Note_on_c, 0, 88, 0
7, 169440, Note_on_c, 0, 93, 80
7, 169440, Note_on_c, 0, 81, 80
7, 169904, Note_on_c, 0, 93, 0
7, 169904, Note_on_c, 0, 81, 0
7, 169920, Note_on_c, 0, 80, 80
7, 169920, Note_on_c, 0, 92, 80
7, 170144, Note_on_c, 0, 80, 0
7, 170144, Note_on_c, 0, 92, 0
7, 170160, Note_on_c, 0, 93, 80
7, 170160, Note_on_c, 0, 81, 80
7, 170249, Note_on_c, 0, 93, 0
7, 170249, Note_on_c, 0, 81, 0
7, 170280, Note_on_c, 0, 69, 80
7, 170280, Note_on_c, 0, 81, 80
7, 170339, Note_on_c, 0, 69, 0
7, 170339, Note_on_c, 0, 81, 0
7, 170340, Note_on_c, 0, 83, 80
7, 170340, Note_on_c, 0, 71, 80
7, 170391, Note_on_c, 0, 83, 0
7, 170391, Note_on_c, 0, 71, 0
7, 170400, Note_on_c, 0, 73, 80
7, 170400, Note_on_c, 0, 85, 80
7, 170489, Note_on_c, 0, 73, 0
7, 170489, Note_on_c, 0, 85, 0
7, 170520, Note_on_c, 0, 85, 80
7, 170520, Note_on_c, 0, 73, 80
7, 170579, Note_on_c, 0, 85, 0
7, 170579, Note_on_c, 0, 73, 0
7, 170580, Note_on_c, 0, 74, 80
7, 170580, Note_on_c, 0, 86, 80
7, 170631, Note_on_c, 0, 74, 0
7, 170631, Note_on_c, 0, 86, 0
7, 170640, Note_on_c, 0, 88, 80
7, 170640, Note_on_c, 0, 76, 80
7, 170729, Note_on_c, 0, 88, 0
7, 170729, Note_on_c, 0, 76, 0
7, 170760, Note_on_c, 0, 76, 80
7, 170760, Note_on_c, 0, 88, 80
7, 170819, Note_on_c, 0, 76, 0
7, 170819, Note_on_c, 0, 88, 0
7, 170820, Note_on_c, 0, 78, 80
7, 170820, Note_on_c, 0, 90, 80
7, 170871, Note_on_c, 0, 78, 0
7, 170871, Note_on_c, 0, 90, 0
7, 170880, Note_on_c, 0, 80, 80
7, 170880, Note_on_c, 0, 92, 80
7, 170969, Note_on_c, 0, 80, 0
7, 170969, Note_on_c, 0, 92, 0
7, 171000, Note_on_c, 0, 88, 80
7, 171000, Note_on_c, 0, 76, 80
7, 171039, Note_on_c, 0, 88, 0
7, 171039, Note_on_c, 0, 76, 0
7, 171040, Note_on_c, 0, 78, 80
7, 171040, Note_on_c, 0, 90, 80
7, 171079, Note_on_c, 0, 78, 0
7, 171079, Note_on_c, 0, 90, 0
7, 171080, Note_on_c, 0, 80, 80
7, 171080, Note_on_c, 0, 92, 80
7, 171113, Note_on_c, 0, 80, 0
7, 171113, Note_on_c, 0, 92, 0
7, 171120, Note_on_c, 0, 81, 92
7, 171120, Note_on_c, 0, 93, 92
7, 171180, Control_c, 0, 11, 107
7, 171584, Note_on_c, 0, 81, 0
7, 171584, Note_on_c, 0, 93, 0
7, 171598, Control_c, 0, 11, 127
7, 171600, Note_on_c, 0, 88, 80
7, 171600, Note_on_c, 0, 76, 80
7, 171779, Note_on_c, 0, 88, 0
7, 171779, Note_on_c, 0, 76, 0
7, 171840, Note_on_c, 0, 76, 80
7, 171840, Note_on_c, 0, 88, 80
7, 172019, Note_on_c, 0, 76, 0
7, 172019, Note_on_c, 0, 88, 0
7, 172080, Note_on_c, 0, 88, 44
7, 172199, Note_on_c, 0, 88, 0
7, 172200, Note_on_c, 0, 85, 44
7, 172304, Note_on_c, 0, 85, 0
7, 172320, Note_on_c, 0, 81, 44
7, 172409, Note_on_c, 0, 81, 0
7, 172440, Note_on_c, 0, 83, 44
7, 172529, Note_on_c, 0, 83, 0
7, 172560, Note_on_c, 0, 85, 44
7, 172799, Note_on_c, 0, 85, 0
7, 172800, Note_on_c, 0, 83, 44
7, 173024, Note_on_c, 0, 83, 0
7, 173040, Note_on_c, 0, 90, 44
7, 173159, Note_on_c, 0, 90, 0
7, 173160, Note_on_c, 0, 86, 44
7, 173264, Note_on_c, 0, 86, 0
7, 173280, Note_on_c, 0, 83, 44
7, 173369, Note_on_c, 0, 83, 0
7, 173400, Note_on_c, 0, 85, 44
7, 173489, Note_on_c, 0, 85, 0
7, 173520, Note_on_c, 0, 86, 44
7, 173759, Note_on_c, 0, 86, 0
7, 173760, Note_on_c, 0, 85, 44
7, 173879, Note_on_c, 0, 85, 0
7, 174840, Note_on_c, 0, 88, 80
7, 175079, Note_on_c, 0, 88, 0
7, 175080, Note_on_c, 0, 85, 80
7, 175184, Note_on_c, 0, 85, 0
7, 175200, Note_on_c, 0, 81, 80
7, 175289, Note_on_c, 0, 81, 0
7, 175320, Note_on_c, 0, 83, 80
7, 175409, Note_on_c, 0, 83, 0
7, 175440, Note_on_c, 0, 85, 80
7, 175440, Note_on_c, 0, 81, 80
7, 175679, Note_on_c, 0, 85, 0
7, 175679, Note_on_c, 0, 81, 0
7, 175680, Note_on_c, 0, 80, 80
7, 175680, Note_on_c, 0, 83, 80
7, 175919, Note_on_c, 0, 80, 0
7, 175919, Note_on_c, 0, 83, 0
7, 176160, Note_on_c, 0, 88, 80
7, 176160, Note_on_c, 0, 92, 80
7, 176339, Note_on_c, 0, 88, 0
7, 176339, Note_on_c, 0, 92, 0
7, 176640, Note_on_c, 0, 93, 80
7, 176640, Note_on_c, 0, 88, 80
7, 176819, Note_on_c, 0, 93, 0
7, 176819, Note_on_c, 0, 88, 0
7, 177360, Note_on_c, 0, 82, 92
7, 177939, Note_on_c, 0, 82, 0
7, 177960, Note_on_c, 0, 81, 92
7, 178049, Note_on_c, 0, 81, 0
7, 178080, Note_on_c, 0, 81, 92
7, 178169, Note_on_c, 0, 81, 0
7, 178200, Note_on_c, 0, 86, 92
7, 178289, Note_on_c, 0, 86, 0
7, 178320, Note_on_c, 0, 86, 92
7, 178409, Note_on_c, 0, 86, 0
7, 178440, Note_on_c, 0, 89, 92
7, 178440, Note_on_c, 0, 77, 92
7, 178529, Note_on_c, 0, 89, 0
7, 178529, Note_on_c, 0, 77, 0
7, 178560, Note_on_c, 0, 77, 92
7, 178560, Note_on_c, 0, 89, 92
7, 178649, Note_on_c, 0, 77, 0
7, 178649, Note_on_c, 0, 89, 0
7, 178680, Note_on_c, 0, 81, 92
7, 178680, Note_on_c, 0, 93, 92
7, 178769, Note_on_c, 0, 81, 0
7, 178769, Note_on_c, 0, 93, 0
7, 178800, Note_on_c, 0, 81, 92
7, 178800, Note_on_c, 0, 93, 92
7, 178889, Note_on_c, 0, 81, 0
7, 178889, Note_on_c, 0, 93, 0
7, 178920, Note_on_c, 0, 86, 92
7, 178920, Note_on_c, 0, 74, 92
7, 179009, Note_on_c, 0, 86, 0
7, 179009, Note_on_c, 0, 74, 0
7, 179040, Note_on_c, 0, 86, 92
7, 179040, Note_on_c, 0, 74, 92
7, 179129, Note_on_c, 0, 86, 0
7, 179129, Note_on_c, 0, 74, 0
7, 179160, Note_on_c, 0, 89, 92
7, 179249, Note_on_c, 0, 89, 0
7, 179280, Note_on_c, 0, 89, 92
7, 179369, Note_on_c, 0, 89, 0
7, 179400, Note_on_c, 0, 81, 92
7, 179489, Note_on_c, 0, 81, 0
7, 179520, Note_on_c, 0, 81, 92
7, 179609, Note_on_c, 0, 81, 0
7, 179640, Note_on_c, 0, 86, 92
7, 179729, Note_on_c, 0, 86, 0
7, 179760, Note_on_c, 0, 86, 92
7, 179849, Note_on_c, 0, 86, 0
7, 179880, Note_on_c, 0, 77, 92
7, 179969, Note_on_c, 0, 77, 0
7, 180000, Note_on_c, 0, 77, 92
7, 180089, Note_on_c, 0, 77, 0
7, 180120, Note_on_c, 0, 81, 92
7, 180209, Note_on_c, 0, 81, 0
7, 180240, Note_on_c, 0, 81, 92
7, 180329, Note_on_c, 0, 81, 0
7, 180360, Note_on_c, 0, 74, 92
7, 180449, Note_on_c, 0, 74, 0
7, 180480, Note_on_c, 0, 74, 92
7, 180569, Note_on_c, 0, 74, 0
7, 180600, Note_on_c, 0, 86, 92
7, 180600, Note_on_c, 0, 89, 92
7, 180689, Note_on_c, 0, 86, 0
7, 180689, Note_on_c, 0, 89, 0
7, 180720, Note_on_c, 0, 86, 92
7, 180720, Note_on_c, 0, 89, 92
7, 180809, Note_on_c, 0, 86, 0
7, 180809, Note_on_c, 0, 89, 0
7, 180840, Note_on_c, 0, 86, 92
7, 180840, Note_on_c, 0, 90, 92
7, 180929, Note_on_c, 0, 86, 0
7, 180929, Note_on_c, 0, 90, 0
7, 180960, Note_on_c, 0, 86, 92
7, 180960, Note_on_c, 0, 90, 92
7, 181049, Note_on_c, 0, 86, 0
7, 181049, Note_on_c, 0, 90, 0
7, 181080, Note_on_c, 0, 86, 92
7, 181080, Note_on_c, 0, 91, 92
7, 181169, Note_on_c, 0, 86, 0
7, 181169, Note_on_c, 0, 91, 0
7, 181200, Note_on_c, 0, 91, 92
7, 181200, Note_on_c, 0, 86, 92
7, 181289, Note_on_c, 0, 91, 0
7, 181289, Note_on_c, 0, 86, 0
7, 181320, Note_on_c, 0, 86, 92
7, 181320, Note_on_c, 0, 92, 92
7, 181409, Note_on_c, 0, 86, 0
7, 181409, Note_on_c, 0, 92, 0
7, 181440, Note_on_c, 0, 86, 92
7, 181440, Note_on_c, 0, 92, 92
7, 181529, Note_on_c, 0, 86, 0
7, 181529, Note_on_c, 0, 92, 0
7, 181560, Note_on_c, 0, 86, 92
7, 181649, Note_on_c, 0, 86, 0
7, 181680, Note_on_c, 0, 86, 92
7, 181769, Note_on_c, 0, 86, 0
7, 181800, Note_on_c, 0, 89, 92
7, 181800, Note_on_c, 0, 86, 92
7, 181889, Note_on_c, 0, 89, 0
7, 181889, Note_on_c, 0, 86, 0
7, 181920, Note_on_c, 0, 86, 92
7, 181920, Note_on_c, 0, 89, 92
7, 182099, Note_on_c, 0, 86, 0
7, 182099, Note_on_c, 0, 89, 0
7, 182160, Note_on_c, 0, 81, 92
7, 182160, Note_on_c, 0, 93, 92
7, 182339, Note_on_c, 0, 81, 0
7, 182339, Note_on_c, 0, 93, 0
7, 192480, Note_on_c, 0, 88, 80
7, 192480, Note_on_c, 0, 85, 80
7, 192659, Note_on_c, 0, 88, 0
7, 192659, Note_on_c, 0, 85, 0
7, 192720, Note_on_c, 0, 86, 80
7, 192720, Note_on_c, 0, 93, 80
7, 192824, Note_on_c, 0, 86, 0
7, 192824, Note_on_c, 0, 93, 0
7, 192840, Note_on_c, 0, 86, 80
7, 192840, Note_on_c, 0, 93, 80
7, 192944, Note_on_c, 0, 86, 0
7, 192944, Note_on_c, 0, 93, 0
7, 192960, Note_on_c, 0, 86, 80
7, 192960, Note_on_c, 0, 81, 80
7, 193199, Note_on_c, 0, 86, 0
7, 193199, Note_on_c, 0, 81, 0
7, 195840, Note_on_c, 0, 86, 44
7, 195840, Note_on_c, 0, 83, 44
7, 195959, Note_on_c, 0, 86, 0
7, 195959, Note_on_c, 0, 83, 0
7, 196080, Note_on_c, 0, 91, 80
7, 196080, Note_on_c, 0, 83, 80
7, 196199, Note_on_c, 0, 91, 0
7, 196199, Note_on_c, 0, 83, 0
7, 197520, Note_on_c, 0, 85, 80
7, 197699, Note_on_c, 0, 85, 0
7, 216600, Note_on_c, 0, 78, 53
7, 216600, Note_on_c, 0, 86, 53
7, 216719, Note_on_c, 0, 78, 0
7, 216719, Note_on_c, 0, 86, 0
7, 216720, Note_on_c, 0, 79, 62
7, 216720, Note_on_c, 0, 88, 62
7, 216839, Note_on_c, 0, 79, 0
7, 216839, Note_on_c, 0, 88, 0
7, 216840, Note_on_c, 0, 81, 71
7, 216840, Note_on_c, 0, 90, 71
7, 216944, Note_on_c, 0, 81, 0
7, 216944, Note_on_c, 0, 90, 0
7, 216960, Note_on_c, 0, 91, 80
7, 216960, Note_on_c, 0, 81, 80
7, 217199, Note_on_c, 0, 91, 0
7, 217199, Note_on_c, 0, 81, 0
7, 217200, Note_on_c, 0, 85, 80
7, 217320, Note_on_c, 0, 81, 80
7, 217424, Note_on_c, 0, 81, 0
7, 217439, Note_on_c, 0, 85, 0
7, 217440, Note_on_c, 0, 86, 80
7, 217440, Note_on_c, 0, 81, 80
7, 217679, Note_on_c, 0, 86, 0
7, 217679, Note_on_c, 0, 81, 0
7, 217680, Note_on_c, 0, 88, 80
7, 217799, Note_on_c, 0, 88, 0
7, 217800, Note_on_c, 0, 81, 80
7, 217800, Note_on_c, 0, 90, 80
7, 217904, Note_on_c, 0, 81, 0
7, 217904, Note_on_c, 0, 90, 0
7, 217920, Note_on_c, 0, 81, 80
7, 217920, Note_on_c, 0, 91, 80
7, 218039, Note_on_c, 0, 91, 0
7, 218040, Note_on_c, 0, 85, 80
7, 218159, Note_on_c, 0, 81, 0
7, 218159, Note_on_c, 0, 85, 0
7, 218160, Note_on_c, 0, 86, 80
7, 218279, Note_on_c, 0, 86, 0
7, 218280, Note_on_c, 0, 81, 80
7, 218280, Note_on_c, 0, 88, 80
7, 218384, Note_on_c, 0, 81, 0
7, 218399, Note_on_c, 0, 88, 0
7, 218400, Note_on_c, 0, 81, 80
7, 218400, Note_on_c, 0, 86, 80
7, 218639, Note_on_c, 0, 81, 0
7, 218639, Note_on_c, 0, 86, 0
7, 218640, Note_on_c, 0, 88, 80
7, 218759, Note_on_c, 0, 88, 0
7, 218760, Note_on_c, 0, 90, 80
7, 218760, Note_on_c, 0, 81, 80
7, 218864, Note_on_c, 0, 90, 0
7, 218864, Note_on_c, 0, 81, 0
7, 218880, Note_on_c, 0, 81, 80
7, 218880, Note_on_c, 0, 91, 80
7, 218999, Note_on_c, 0, 91, 0
7, 219000, Note_on_c, 0, 85, 80
7, 219119, Note_on_c, 0, 81, 0
7, 219119, Note_on_c, 0, 85, 0
7, 219120, Note_on_c, 0, 86, 80
7, 219239, Note_on_c, 0, 86, 0
7, 219240, Note_on_c, 0, 81, 80
7, 219240, Note_on_c, 0, 88, 80
7, 219344, Note_on_c, 0, 81, 0
7, 219359, Note_on_c, 0, 88, 0
7, 219360, Note_on_c, 0, 81, 80
7, 219360, Note_on_c, 0, 86, 80
7, 219479, Note_on_c, 0, 86, 0
7, 219480, Note_on_c, 0, 88, 80
7, 219599, Note_on_c, 0, 81, 0
7, 219599, Note_on_c, 0, 88, 0
7, 219600, Note_on_c, 0, 90, 80
7, 219719, Note_on_c, 0, 90, 0
7, 219720, Note_on_c, 0, 91, 80
7, 219720, Note_on_c, 0, 79, 80
7, 219959, Note_on_c, 0, 91, 0
7, 219959, Note_on_c, 0, 79, 0
7, 219960, Note_on_c, 0, 78, 80
7, 219960, Note_on_c, 0, 90, 80
7, 220079, Note_on_c, 0, 78, 0
7, 220079, Note_on_c, 0, 90, 0
7, 220080, Note_on_c, 0, 79, 80
7, 220080, Note_on_c, 0, 91, 80
7, 220199, Note_on_c, 0, 79, 0
7, 220199, Note_on_c, 0, 91, 0
7, 220200, Note_on_c, 0, 88, 80
7, 220200, Note_on_c, 0, 76, 80
7, 220319, Note_on_c, 0, 88, 0
7, 220319, Note_on_c, 0, 76, 0
7, 220320, Note_on_c, 0, 74, 80
7, 220320, Note_on_c, 0, 86, 80
7, 220439, Note_on_c, 0, 74, 0
7, 220439, Note_on_c, 0, 86, 0
7, 220440, Note_on_c, 0, 85, 80
7, 220440, Note_on_c, 0, 73, 80
7, 220559, Note_on_c, 0, 85, 0
7, 220559, Note_on_c, 0, 73, 0
7, 220560, Note_on_c, 0, 76, 80
7, 220560, Note_on_c, 0, 88, 80
7, 220679, Note_on_c, 0, 76, 0
7, 220679, Note_on_c, 0, 88, 0
7, 220680, Note_on_c, 0, 74, 80
7, 220680, Note_on_c, 0, 86, 80
7, 220784, Note_on_c, 0, 74, 0
7, 220784, Note_on_c, 0, 86, 0
7, 220800, Note_on_c, 0, 86, 80
7, 220800, Note_on_c, 0, 93, 80
7, 220979, Note_on_c, 0, 93, 0
7, 221039, Note_on_c, 0, 86, 0
7, 221040, Note_on_c, 0, 87, 80
7, 221160, Note_on_c, 0, 93, 80
7, 221249, Note_on_c, 0, 93, 0
7, 221279, Note_on_c, 0, 87, 0
7, 221280, Note_on_c, 0, 88, 80
7, 221280, Note_on_c, 0, 93, 80
7, 221459, Note_on_c, 0, 93, 0
7, 221519, Note_on_c, 0, 88, 0
7, 221520, Note_on_c, 0, 90, 80
7, 221640, Note_on_c, 0, 93, 80
7, 221729, Note_on_c, 0, 93, 0
7, 221744, Note_on_c, 0, 90, 0
7, 221760, Note_on_c, 0, 83, 80
7, 221999, Note_on_c, 0, 83, 0
7, 222120, Note_on_c, 0, 83, 80
7, 222224, Note_on_c, 0, 83, 0
7, 222240, Note_on_c, 0, 83, 80
7, 222479, Note_on_c, 0, 83, 0
7, 222600, Note_on_c, 0, 85, 80
7, 222704, Note_on_c, 0, 85, 0
7, 222720, Note_on_c, 0, 86, 80
7, 222839, Note_on_c, 0, 86, 0
7, 222840, Note_on_c, 0, 81, 80
7, 222959, Note_on_c, 0, 81, 0
7, 222960, Note_on_c, 0, 83, 80
7, 223079, Note_on_c, 0, 83, 0
7, 223080, Note_on_c, 0, 93, 80
7, 223080, Note_on_c, 0, 78, 80
7, 223199, Note_on_c, 0, 93, 0
7, 223199, Note_on_c, 0, 78, 0
7, 223200, Note_on_c, 0, 79, 80
7, 223200, Note_on_c, 0, 91, 80
7, 223319, Note_on_c, 0, 79, 0
7, 223319, Note_on_c, 0, 91, 0
7, 223320, Note_on_c, 0, 90, 80
7, 223439, Note_on_c, 0, 90, 0
7, 223440, Note_on_c, 0, 81, 80
7, 223440, Note_on_c, 0, 88, 80
7, 223559, Note_on_c, 0, 81, 0
7, 223559, Note_on_c, 0, 88, 0
7, 223560, Note_on_c, 0, 86, 80
7, 223560, Note_on_c, 0, 74, 80
7, 223664, Note_on_c, 0, 86, 0
7, 223664, Note_on_c, 0, 74, 0
7, 223680, Note_on_c, 0, 91, 80
7, 223680, Note_on_c, 0, 73, 80
7, 223919, Note_on_c, 0, 73, 0
7, 223920, Note_on_c, 0, 85, 80
7, 224039, Note_on_c, 0, 91, 0
7, 224039, Note_on_c, 0, 85, 0
7, 224040, Note_on_c, 0, 90, 80
7, 224040, Note_on_c, 0, 86, 80
7, 224144, Note_on_c, 0, 90, 0
7, 224144, Note_on_c, 0, 86, 0
7, 224160, Note_on_c, 0, 86, 80
7, 224160, Note_on_c, 0, 90, 80
7, 224399, Note_on_c, 0, 86, 0
7, 224399, Note_on_c, 0, 90, 0
7, 224520, Note_on_c, 0, 86, 80
7, 224520, Note_on_c, 0, 90, 80
7, 224624, Note_on_c, 0, 86, 0
7, 224624, Note_on_c, 0, 90, 0
7, 224640, Note_on_c, 0, 88, 80
7, 224640, Note_on_c, 0, 93, 80
7, 224879, Note_on_c, 0, 88, 0
7, 224879, Note_on_c, 0, 93, 0
7, 225000, Note_on_c, 0, 93, 80
7, 225000, Note_on_c, 0, 86, 80
7, 225104, Note_on_c, 0, 93, 0
7, 225104, Note_on_c, 0, 86, 0
7, 225120, Note_on_c, 0, 93, 80
7, 225120, Note_on_c, 0, 86, 80
7, 225359, Note_on_c, 0, 93, 0
7, 225359, Note_on_c, 0, 86, 0
7, 225480, Note_on_c, 0, 90, 80
7, 225480, Note_on_c, 0, 86, 80
7, 225584, Note_on_c, 0, 90, 0
7, 225584, Note_on_c, 0, 86, 0
7, 225600, Note_on_c, 0, 86, 80
7, 225600, Note_on_c, 0, 90, 80
7, 225839, Note_on_c, 0, 86, 0
7, 225839, Note_on_c, 0, 90, 0
7, 225960, Note_on_c, 0, 91, 80
7, 225960, Note_on_c, 0, 86, 80
7, 226064, Note_on_c, 0, 91, 0
7, 226064, Note_on_c, 0, 86, 0
7, 226080, Note_on_c, 0, 91, 80
7, 226080, Note_on_c, 0, 86, 80
7, 226319, Note_on_c, 0, 91, 0
7, 226319, Note_on_c, 0, 86, 0
7, 226440, Note_on_c, 0, 88, 80
7, 226440, Note_on_c, 0, 91, 80
7, 226544, Note_on_c, 0, 88, 0
7, 226544, Note_on_c, 0, 91, 0
7, 226560, Note_on_c, 0, 88, 80
7, 226560, Note_on_c, 0, 91, 80
7, 226799, Note_on_c, 0, 88, 0
7, 226799, Note_on_c, 0, 91, 0
7, 226920, Note_on_c, 0, 91, 80
7, 226920, Note_on_c, 0, 88, 80
7, 227024, Note_on_c, 0, 91, 0
7, 227024, Note_on_c, 0, 88, 0
7, 227040, Note_on_c, 0, 88, 80
7, 227040, Note_on_c, 0, 91, 80
7, 227279, Note_on_c, 0, 88, 0
7, 227279, Note_on_c, 0, 91, 0
7, 227400, Note_on_c, 0, 91, 80
7, 227400, Note_on_c, 0, 88, 80
7, 227504, Note_on_c, 0, 91, 0
7, 227504, Note_on_c, 0, 88, 0
7, 227520, Note_on_c, 0, 90, 80
7, 227520, Note_on_c, 0, 86, 80
7, 227759, Note_on_c, 0, 90, 0
7, 227759, Note_on_c, 0, 86, 0
7, 227880, Note_on_c, 0, 81, 80
7, 227880, Note_on_c, 0, 93, 80
7, 227984, Note_on_c, 0, 81, 0
7, 227984, Note_on_c, 0, 93, 0
7, 228000, Note_on_c, 0, 86, 80
7, 228000, Note_on_c, 0, 74, 80
7, 228239, Note_on_c, 0, 86, 0
7, 228239, Note_on_c, 0, 74, 0
7, 230400, Note_on_c, 0, 86, 38
7, 231119, Note_on_c, 0, 86, 0
7, 231120, Note_on_c, 0, 85, 38
7, 231239, Note_on_c, 0, 85, 0
7, 231240, Note_on_c, 0, 83, 38
7, 231359, Note_on_c, 0, 83, 0
7, 231360, Note_on_c, 0, 81, 38
7, 231479, Note_on_c, 0, 81, 0
7, 231480, Note_on_c, 0, 86, 38
7, 231599, Note_on_c, 0, 86, 0
7, 231600, Note_on_c, 0, 90, 38
7, 231719, Note_on_c, 0, 90, 0
7, 231720, Note_on_c, 0, 88, 38
7, 231824, Note_on_c, 0, 88, 0
7, 231840, Note_on_c, 0, 88, 38
7, 231959, Note_on_c, 0, 88, 0
7, 231960, Note_on_c, 0, 93, 38
7, 232079, Note_on_c, 0, 93, 0
7, 232080, Note_on_c, 0, 91, 38
7, 232199, Note_on_c, 0, 91, 0
7, 232200, Note_on_c, 0, 88, 38
7, 232304, Note_on_c, 0, 88, 0
7, 232320, Note_on_c, 0, 86, 38
7, 232559, Note_on_c, 0, 86, 0
7, 234240, Note_on_c, 0, 86, 38
7, 234959, Note_on_c, 0, 86, 0
7, 234960, Note_on_c, 0, 85, 38
7, 235079, Note_on_c, 0, 85, 0
7, 235080, Note_on_c, 0, 83, 38
7, 235199, Note_on_c, 0, 83, 0
7, 235200, Note_on_c, 0, 85, 38
7, 235319, Note_on_c, 0, 85, 0
7, 235320, Note_on_c, 0, 88, 38
7, 235439, Note_on_c, 0, 88, 0
7, 235440, Note_on_c, 0, 91, 38
7, 235559, Note_on_c, 0, 91, 0
7, 235560, Note_on_c, 0, 90, 38
7, 235664, Note_on_c, 0, 90, 0
7, 235680, Note_on_c, 0, 90, 38
7, 235799, Note_on_c, 0, 90, 0
7, 235800, Note_on_c, 0, 86, 38
7, 235919, Note_on_c, 0, 86, 0
7, 235920, Note_on_c, 0, 85, 38
7, 236039, Note_on_c, 0, 85, 0
7, 236040, Note_on_c, 0, 86, 38
7, 236159, Note_on_c, 0, 86, 0
7, 236160, Note_on_c, 0, 88, 38
7, 236399, Note_on_c, 0, 88, 0
7, 236760, Note_on_c, 0, 81, 38
7, 236879, Note_on_c, 0, 81, 0
7, 236880, Note_on_c, 0, 90, 38
7, 236984, Note_on_c, 0, 90, 0
7, 237000, Note_on_c, 0, 86, 38
7, 237119, Note_on_c, 0, 86, 0
7, 237120, Note_on_c, 0, 91, 38
7, 237359, Note_on_c, 0, 91, 0
7, 237720, Note_on_c, 0, 81, 38
7, 237839, Note_on_c, 0, 81, 0
7, 237840, Note_on_c, 0, 90, 38
7, 237944, Note_on_c, 0, 90, 0
7, 237960, Note_on_c, 0, 86, 38
7, 238079, Note_on_c, 0, 86, 0
7, 238080, Note_on_c, 0, 91, 38
7, 238319, Note_on_c, 0, 91, 0
7, 238440, Note_on_c, 0, 85, 38
7, 238559, Note_on_c, 0, 85, 0
7, 238560, Note_on_c, 0, 90, 38
7, 238799, Note_on_c, 0, 90, 0
7, 238800, Control_c, 0, 11, 89
7, 238920, Note_on_c, 0, 78, 68
7, 239039, Note_on_c, 0, 78, 0
7, 239040, Note_on_c, 0, 86, 68
7, 239279, Note_on_c, 0, 86, 0
7, 239400, Note_on_c, 0, 88, 68
7, 239400, Control_c, 0, 11, 89
7, 239460, Control_c, 0, 11, 95
7, 239519, Note_on_c, 0, 88, 0
7, 239520, Control_c, 0, 11, 101
7, 239520, Note_on_c, 0, 81, 68
7, 239580, Control_c, 0, 11, 109
7, 239640, Control_c, 0, 11, 115
7, 239700, Control_c, 0, 11, 121
7, 239759, Note_on_c, 0, 81, 0
7, 241680, Control_c, 0, 11, 127
7, 241920, Note_on_c, 0, 86, 44
7, 242639, Note_on_c, 0, 86, 0
7, 242640, Note_on_c, 0, 85, 44
7, 242759, Note_on_c, 0, 85, 0
7, 242760, Note_on_c, 0, 83, 44
7, 242879, Note_on_c, 0, 83, 0
7, 242880, Note_on_c, 0, 85, 44
7, 242999, Note_on_c, 0, 85, 0
7, 243000, Note_on_c, 0, 88, 44
7, 243119, Note_on_c, 0, 88, 0
7, 243120, Note_on_c, 0, 91, 44
7, 243239, Note_on_c, 0, 91, 0
7, 243240, Note_on_c, 0, 90, 44
7, 243344, Note_on_c, 0, 90, 0
7, 243360, Note_on_c, 0, 90, 44
7, 243479, Note_on_c, 0, 90, 0
7, 243480, Note_on_c, 0, 86, 53
7, 243599, Note_on_c, 0, 86, 0
7, 243600, Note_on_c, 0, 85, 62
7, 243719, Note_on_c, 0, 85, 0
7, 243720, Note_on_c, 0, 86, 71
7, 243824, Note_on_c, 0, 86, 0
7, 243840, Note_on_c, 0, 85, 80
7, 243840, Note_on_c, 0, 88, 80
7, 244079, Note_on_c, 0, 85, 0
7, 244079, Note_on_c, 0, 88, 0
7, 244440, Note_on_c, 0, 81, 80
7, 244559, Note_on_c, 0, 81, 0
7, 244560, Note_on_c, 0, 90, 80
7, 244664, Note_on_c, 0, 90, 0
7, 244680, Note_on_c, 0, 86, 80
7, 244799, Note_on_c, 0, 86, 0
7, 244800, Note_on_c, 0, 91, 80
7, 244919, Note_on_c, 0, 91, 0
7, 245400, Note_on_c, 0, 81, 80
7, 245519, Note_on_c, 0, 81, 0
7, 245520, Note_on_c, 0, 88, 80
7, 245624, Note_on_c, 0, 88, 0
7, 245640, Note_on_c, 0, 90, 80
7, 245759, Note_on_c, 0, 90, 0
7, 245760, Note_on_c, 0, 91, 80
7, 245999, Note_on_c, 0, 91, 0
7, 246120, Note_on_c, 0, 85, 80
7, 246239, Note_on_c, 0, 85, 0
7, 246240, Note_on_c, 0, 90, 80
7, 246479, Note_on_c, 0, 90, 0
7, 246600, Note_on_c, 0, 78, 80
7, 246719, Note_on_c, 0, 78, 0
7, 246720, Note_on_c, 0, 86, 80
7, 246959, Note_on_c, 0, 86, 0
7, 247080, Note_on_c, 0, 88, 80
7, 247199, Note_on_c, 0, 88, 0
7, 247200, Note_on_c, 0, 81, 80
7, 247439, Note_on_c, 0, 81, 0
7, 247560, Note_on_c, 0, 81, 80
7, 247679, Note_on_c, 0, 81, 0
7, 247680, Note_on_c, 0, 90, 80
7, 247799, Note_on_c, 0, 90, 0
7, 247800, Note_on_c, 0, 81, 80
7, 247919, Note_on_c, 0, 81, 0
7, 247920, Note_on_c, 0, 90, 80
7, 248039, Note_on_c, 0, 90, 0
7, 248280, Note_on_c, 0, 81, 80
7, 248399, Note_on_c, 0, 81, 0
7, 248400, Note_on_c, 0, 93, 80
7, 248519, Note_on_c, 0, 93, 0
7, 248760, Note_on_c, 0, 81, 78
7, 248879, Note_on_c, 0, 81, 0
7, 248880, Note_on_c, 0, 91, 76
7, 249119, Note_on_c, 0, 91, 0
7, 249240, Note_on_c, 0, 81, 69
7, 249359, Note_on_c, 0, 81, 0
7, 249360, Note_on_c, 0, 88, 67
7, 249599, Note_on_c, 0, 88, 0
7, 249720, Note_on_c, 0, 81, 60
7, 249839, Note_on_c, 0, 81, 0
7, 249840, Note_on_c, 0, 86, 58
7, 250079, Note_on_c, 0, 86, 0
7, 250200, Note_on_c, 0, 81, 51
7, 250319, Note_on_c, 0, 81, 0
7, 250320, Note_on_c, 0, 90, 49
7, 250559, Note_on_c, 0, 90, 0
7, 250680, Note_on_c, 0, 81, 44
7, 250799, Note_on_c, 0, 81, 0
7, 250800, Note_on_c, 0, 88, 44
7, 251039, Note_on_c, 0, 88, 0
7, 251160, Note_on_c, 0, 81, 44
7, 251279, Note_on_c, 0, 81, 0
7, 251280, Note_on_c, 0, 93, 44
7, 251280, Note_on_c, 0, 90, 44
7, 251519, Note_on_c, 0, 93, 0
7, 251519, Note_on_c, 0, 90, 0
7, 251520, Note_on_c, 0, 91, 44
7, 251520, Note_on_c, 0, 88, 44
7, 251879, Note_on_c, 0, 91, 0
7, 251879, Note_on_c, 0, 88, 0
7, 251880, Note_on_c, 0, 90, 44
7, 251880, Note_on_c, 0, 86, 44
7, 251984, Note_on_c, 0, 90, 0
7, 251984, Note_on_c, 0, 86, 0
7, 252000, Note_on_c, 0, 86, 44
7, 252000, Note_on_c, 0, 90, 44
7, 252224, Note_on_c, 0, 86, 0
7, 252224, Note_on_c, 0, 90, 0
7, 252240, Note_on_c, 0, 86, 44
7, 252240, Note_on_c, 0, 74, 44
7, 252479, Note_on_c, 0, 86, 0
7, 252479, Note_on_c, 0, 74, 0
7, 252480, Note_on_c, 0, 78, 44
7, 252480, Note_on_c, 0, 90, 44
7, 252839, Note_on_c, 0, 78, 0
7, 252839, Note_on_c, 0, 90, 0
7, 252840, Note_on_c, 0, 91, 44
7, 252840, Note_on_c, 0, 79, 44
7, 252944, Note_on_c, 0, 91, 0
7, 252944, Note_on_c, 0, 79, 0
7, 252960, Note_on_c, 0, 79, 44
7, 252960, Note_on_c, 0, 91, 44
7, 253184, Note_on_c, 0, 79, 0
7, 253184, Note_on_c, 0, 91, 0
7, 253200, Note_on_c, 0, 91, 44
7, 253200, Note_on_c, 0, 83, 44
7, 253319, Note_on_c, 0, 91, 0
7, 253319, Note_on_c, 0, 83, 0
7, 253320, Note_on_c, 0, 88, 44
7, 253320, Note_on_c, 0, 79, 44
7, 253439, Note_on_c, 0, 88, 0
7, 253439, Note_on_c, 0, 79, 0
7, 253440, Note_on_c, 0, 78, 44
7, 253440, Note_on_c, 0, 86, 44
7, 253559, Note_on_c, 0, 78, 0
7, 253559, Note_on_c, 0, 86, 0
7, 253560, Note_on_c, 0, 85, 44
7, 253560, Note_on_c, 0, 76, 44
7, 253679, Note_on_c, 0, 85, 0
7, 253679, Note_on_c, 0, 76, 0
7, 253680, Note_on_c, 0, 88, 44
7, 253680, Note_on_c, 0, 79, 44
7, 253799, Note_on_c, 0, 88, 0
7, 253799, Note_on_c, 0, 79, 0
7, 253800, Note_on_c, 0, 76, 44
7, 253800, Note_on_c, 0, 85, 44
7, 253919, Note_on_c, 0, 76, 0
7, 253919, Note_on_c, 0, 85, 0
7, 253920, Note_on_c, 0, 83, 44
7, 253920, Note_on_c, 0, 74, 44
7, 254039, Note_on_c, 0, 83, 0
7, 254039, Note_on_c, 0, 74, 0
7, 254040, Note_on_c, 0, 73, 44
7, 254040, Note_on_c, 0, 81, 44
7, 254159, Note_on_c, 0, 73, 0
7, 254159, Note_on_c, 0, 81, 0
7, 254160, Note_on_c, 0, 83, 44
7, 254160, Note_on_c, 0, 74, 44
7, 254279, Note_on_c, 0, 83, 0
7, 254279, Note_on_c, 0, 74, 0
7, 254280, Note_on_c, 0, 76, 44
7, 254280, Note_on_c, 0, 85, 44
7, 254384, Note_on_c, 0, 76, 0
7, 254384, Note_on_c, 0, 85, 0
7, 254400, Note_on_c, 0, 86, 44
7, 254400, Note_on_c, 0, 78, 44
7, 254519, Note_on_c, 0, 86, 0
7, 254519, Note_on_c, 0, 78, 0
7, 254520, Note_on_c, 0, 81, 44
7, 254520, Note_on_c, 0, 90, 44
7, 254639, Note_on_c, 0, 81, 0
7, 254639, Note_on_c, 0, 90, 0
7, 254640, Note_on_c, 0, 79, 44
7, 254640, Note_on_c, 0, 88, 44
7, 254759, Note_on_c, 0, 79, 0
7, 254759, Note_on_c, 0, 88, 0
7, 254760, Note_on_c, 0, 85, 44
7, 254760, Note_on_c, 0, 76, 44
7, 254879, Note_on_c, 0, 85, 0
7, 254879, Note_on_c, 0, 76, 0
7, 254880, Note_on_c, 0, 78, 44
7, 254880, Note_on_c, 0, 86, 44
7, 254999, Note_on_c, 0, 78, 0
7, 254999, Note_on_c, 0, 86, 0
7, 261120, Note_on_c, 0, 74, 44
7, 261239, Note_on_c, 0, 74, 0
7, 261240, Note_on_c, 0, 76, 44
7, 261344, Note_on_c, 0, 76, 0
7, 261360, Note_on_c, 0, 78, 44
7, 261479, Note_on_c, 0, 78, 0
7, 261480, Note_on_c, 0, 79, 44
7, 261584, Note_on_c, 0, 79, 0
7, 261600, Note_on_c, 0, 81, 44
7, 261719, Note_on_c, 0, 81, 0
7, 261720, Note_on_c, 0, 83, 44
7, 261824, Note_on_c, 0, 83, 0
7, 261840, Note_on_c, 0, 85, 44
7, 261959, Note_on_c, 0, 85, 0
7, 261960, Note_on_c, 0, 86, 44
7, 262064, Note_on_c, 0, 86, 0
7, 262080, Note_on_c, 0, 86, 44
7, 262199, Note_on_c, 0, 86, 0
7, 262200, Note_on_c, 0, 85, 44
7, 262304, Note_on_c, 0, 85, 0
7, 262320, Note_on_c, 0, 83, 44
7, 262439, Note_on_c, 0, 83, 0
7, 262440, Note_on_c, 0, 85, 44
7, 262544, Note_on_c, 0, 85, 0
7, 262560, Note_on_c, 0, 86, 44
7, 262679, Note_on_c, 0, 86, 0
7, 262680, Note_on_c, 0, 81, 44
7, 262784, Note_on_c, 0, 81, 0
7, 262800, Note_on_c, 0, 85, 44
7, 262919, Note_on_c, 0, 85, 0
7, 262920, Note_on_c, 0, 86, 44
7, 263024, Note_on_c, 0, 86, 0
7, 263040, Note_on_c, 0, 90, 44
7, 263159, Note_on_c, 0, 90, 0
7, 263160, Note_on_c, 0, 88, 44
7, 263264, Note_on_c, 0, 88, 0
7, 263280, Note_on_c, 0, 86, 44
7, 263399, Note_on_c, 0, 86, 0
7, 263400, Note_on_c, 0, 88, 44
7, 263519, Note_on_c, 0, 88, 0
7, 264000, Note_on_c, 0, 90, 44
7, 264119, Note_on_c, 0, 90, 0
7, 264120, Note_on_c, 0, 88, 44
7, 264224, Note_on_c, 0, 88, 0
7, 264240, Note_on_c, 0, 86, 44
7, 264359, Note_on_c, 0, 86, 0
7, 264360, Note_on_c, 0, 88, 44
7, 264479, Note_on_c, 0, 88, 0
7, 265200, Note_on_c, 0, 86, 44
7, 265319, Note_on_c, 0, 86, 0
7, 265320, Note_on_c, 0, 88, 44
7, 265439, Note_on_c, 0, 88, 0
7, 265680, Note_on_c, 0, 90, 44
7, 265799, Note_on_c, 0, 90, 0
7, 265800, Note_on_c, 0, 88, 44
7, 265919, Note_on_c, 0, 88, 0
7, 266160, Note_on_c, 0, 86, 44
7, 266279, Note_on_c, 0, 86, 0
7, 266280, Note_on_c, 0, 88, 44
7, 266399, Note_on_c, 0, 88, 0
7, 266640, Note_on_c, 0, 81, 44
7, 266759, Note_on_c, 0, 81, 0
7, 266760, Note_on_c, 0, 90, 44
7, 266864, Note_on_c, 0, 90, 0
7, 266880, Note_on_c, 0, 90, 44
7, 267104, Note_on_c, 0, 90, 0
7, 267120, Note_on_c, 0, 88, 44
7, 267239, Note_on_c, 0, 88, 0
7, 267240, Note_on_c, 0, 90, 44
7, 267359, Note_on_c, 0, 90, 0
7, 267600, Note_on_c, 0, 86, 44
7, 267839, Note_on_c, 0, 86, 0
7, 268080, Note_on_c, 0, 86, 44
7, 268319, Note_on_c, 0, 86, 0
7, 268560, Note_on_c, 0, 91, 44
7, 268679, Note_on_c, 0, 91, 0
7, 268680, Note_on_c, 0, 88, 44
7, 268799, Note_on_c, 0, 88, 0
7, 269040, Note_on_c, 0, 85, 44
7, 269159, Note_on_c, 0, 85, 0
7, 269160, Note_on_c, 0, 86, 44
7, 269264, Note_on_c, 0, 86, 0
7, 270480, Note_on_c, 0, 91, 80
7, 270480, Note_on_c, 0, 88, 80
7, 270599, Note_on_c, 0, 91, 0
7, 270599, Note_on_c, 0, 88, 0
7, 270600, Note_on_c, 0, 86, 80
7, 270600, Note_on_c, 0, 90, 80
7, 270704, Note_on_c, 0, 86, 0
7, 270704, Note_on_c, 0, 90, 0
7, 270720, Note_on_c, 0, 90, 80
7, 270720, Note_on_c, 0, 86, 80
7, 270839, Note_on_c, 0, 90, 0
7, 270839, Note_on_c, 0, 86, 0
7, 270840, Note_on_c, 0, 85, 80
7, 270840, Note_on_c, 0, 88, 80
7, 270944, Note_on_c, 0, 85, 0
7, 270944, Note_on_c, 0, 88, 0
7, 270960, Note_on_c, 0, 86, 80
7, 270960, Note_on_c, 0, 83, 80
7, 271079, Note_on_c, 0, 86, 0
7, 271079, Note_on_c, 0, 83, 0
7, 271080, Note_on_c, 0, 85, 80
7, 271080, Note_on_c, 0, 88, 80
7, 271184, Note_on_c, 0, 85, 0
7, 271184, Note_on_c, 0, 88, 0
7, 271200, Note_on_c, 0, 91, 80
7, 271200, Note_on_c, 0, 88, 80
7, 271319, Note_on_c, 0, 91, 0
7, 271319, Note_on_c, 0, 88, 0
7, 271320, Note_on_c, 0, 86, 80
7, 271320, Note_on_c, 0, 90, 80
7, 271424, Note_on_c, 0, 86, 0
7, 271424, Note_on_c, 0, 90, 0
7, 271440, Note_on_c, 0, 88, 80
7, 271440, Note_on_c, 0, 79, 80
7, 271559, Note_on_c, 0, 88, 0
7, 271559, Note_on_c, 0, 79, 0
7, 271560, Note_on_c, 0, 86, 80
7, 271560, Note_on_c, 0, 78, 80
7, 271664, Note_on_c, 0, 86, 0
7, 271664, Note_on_c, 0, 78, 0
7, 271680, Note_on_c, 0, 90, 80
7, 271680, Note_on_c, 0, 86, 80
7, 271799, Note_on_c, 0, 90, 0
7, 271799, Note_on_c, 0, 86, 0
7, 271800, Note_on_c, 0, 85, 80
7, 271800, Note_on_c, 0, 88, 80
7, 271904, Note_on_c, 0, 85, 0
7, 271904, Note_on_c, 0, 88, 0
7, 271920, Note_on_c, 0, 86, 80
7, 271920, Note_on_c, 0, 83, 80
7, 272039, Note_on_c, 0, 86, 0
7, 272039, Note_on_c, 0, 83, 0
7, 272040, Note_on_c, 0, 85, 80
7, 272040, Note_on_c, 0, 88, 80
7, 272144, Note_on_c, 0, 85, 0
7, 272144, Note_on_c, 0, 88, 0
7, 272160, Note_on_c, 0, 91, 80
7, 272160, Note_on_c, 0, 88, 80
7, 272279, Note_on_c, 0, 91, 0
7, 272279, Note_on_c, 0, 88, 0
7, 272280, Note_on_c, 0, 90, 80
7, 272280, Note_on_c, 0, 86, 80
7, 272384, Note_on_c, 0, 90, 0
7, 272384, Note_on_c, 0, 86, 0
7, 272400, Note_on_c, 0, 88, 80
7, 272400, Note_on_c, 0, 79, 80
7, 272519, Note_on_c, 0, 88, 0
7, 272519, Note_on_c, 0, 79, 0
7, 272520, Note_on_c, 0, 86, 80
7, 272520, Note_on_c, 0, 78, 80
7, 272624, Note_on_c, 0, 86, 0
7, 272624, Note_on_c, 0, 78, 0
7, 272640, Note_on_c, 0, 86, 80
7, 272640, Note_on_c, 0, 90, 80
7, 272759, Note_on_c, 0, 86, 0
7, 272759, Note_on_c, 0, 90, 0
7, 272760, Note_on_c, 0, 88, 80
7, 272760, Note_on_c, 0, 85, 80
7, 272864, Note_on_c, 0, 88, 0
7, 272864, Note_on_c, 0, 85, 0
7, 272880, Note_on_c, 0, 83, 80
7, 272880, Note_on_c, 0, 86, 80
7, 272999, Note_on_c, 0, 83, 0
7, 272999, Note_on_c, 0, 86, 0
7, 273000, Note_on_c, 0, 85, 80
7, 273000, Note_on_c, 0, 88, 80
7, 273104, Note_on_c, 0, 85, 0
7, 273104, Note_on_c, 0, 88, 0
7, 273120, Note_on_c, 0, 91, 80
7, 273120, Note_on_c, 0, 88, 80
7, 273239, Note_on_c, 0, 91, 0
7, 273239, Note_on_c, 0, 88, 0
7, 273240, Note_on_c, 0, 86, 80
7, 273240, Note_on_c, 0, 90, 80
7, 273344, Note_on_c, 0, 86, 0
7, 273344, Note_on_c, 0, 90, 0
7, 273360, Note_on_c, 0, 86, 80
7, 273360, Note_on_c, 0, 90, 80
7, 273479, Note_on_c, 0, 86, 0
7, 273479, Note_on_c, 0, 90, 0
7, 273480, Note_on_c, 0, 85, 80
7, 273480, Note_on_c, 0, 88, 80
7, 273584, Note_on_c, 0, 85, 0
7, 273584, Note_on_c, 0, 88, 0
7, 273600, Note_on_c, 0, 85, 80
7, 273600, Note_on_c, 0, 88, 80
7, 273719, Note_on_c, 0, 85, 0
7, 273719, Note_on_c, 0, 88, 0
7, 273720, Note_on_c, 0, 83, 80
7, 273720, Note_on_c, 0, 86, 80
7, 273824, Note_on_c, 0, 83, 0
7, 273824, Note_on_c, 0, 86, 0
7, 273840, Note_on_c, 0, 86, 80
7, 273840, Note_on_c, 0, 83, 80
7, 273959, Note_on_c, 0, 86, 0
7, 273959, Note_on_c, 0, 83, 0
7, 273960, Note_on_c, 0, 80, 80
7, 273960, Note_on_c, 0, 88, 80
7, 274064, Note_on_c, 0, 80, 0
7, 274064, Note_on_c, 0, 88, 0
7, 274080, Note_on_c, 0, 81, 80
7, 274304, Note_on_c, 0, 81, 0
7, 274320, Note_on_c, 0, 86, 80
7, 274320, Note_on_c, 0, 90, 80
7, 274679, Note_on_c, 0, 86, 0
7, 274679, Note_on_c, 0, 90, 0
7, 274680, Note_on_c, 0, 88, 80
7, 274680, Note_on_c, 0, 91, 80
7, 274784, Note_on_c, 0, 88, 0
7, 274784, Note_on_c, 0, 91, 0
7, 274800, Note_on_c, 0, 85, 80
7, 274800, Note_on_c, 0, 88, 80
7, 274919, Note_on_c, 0, 85, 0
7, 274919, Note_on_c, 0, 88, 0
7, 274920, Note_on_c, 0, 86, 80
7, 274920, Note_on_c, 0, 90, 80
7, 275024, Note_on_c, 0, 86, 0
7, 275024, Note_on_c, 0, 90, 0
7, 275040, Note_on_c, 0, 88, 80
7, 275040, Note_on_c, 0, 91, 80
7, 275159, Note_on_c, 0, 88, 0
7, 275159, Note_on_c, 0, 91, 0
7, 275160, Note_on_c, 0, 93, 80
7, 275160, Note_on_c, 0, 90, 80
7, 275264, Note_on_c, 0, 93, 0
7, 275264, Note_on_c, 0, 90, 0
7, 275280, Note_on_c, 0, 83, 80
7, 275280, Note_on_c, 0, 91, 80
7, 275399, Note_on_c, 0, 83, 0
7, 275399, Note_on_c, 0, 91, 0
7, 275400, Note_on_c, 0, 81, 80
7, 275400, Note_on_c, 0, 90, 80
7, 275504, Note_on_c, 0, 81, 0
7, 275504, Note_on_c, 0, 90, 0
7, 275520, Note_on_c, 0, 81, 80
7, 275520, Note_on_c, 0, 84, 80
7, 275639, Note_on_c, 0, 81, 0
7, 275639, Note_on_c, 0, 84, 0
7, 275640, Note_on_c, 0, 83, 80
7, 275640, Note_on_c, 0, 79, 80
7, 275744, Note_on_c, 0, 83, 0
7, 275744, Note_on_c, 0, 79, 0
7, 275760, Note_on_c, 0, 83, 80
7, 275760, Note_on_c, 0, 86, 80
7, 275879, Note_on_c, 0, 83, 0
7, 275879, Note_on_c, 0, 86, 0
7, 275880, Note_on_c, 0, 83, 80
7, 275880, Note_on_c, 0, 79, 80
7, 275984, Note_on_c, 0, 83, 0
7, 275984, Note_on_c, 0, 79, 0
7, 276000, Note_on_c, 0, 86, 80
7, 276000, Note_on_c, 0, 90, 80
7, 276119, Note_on_c, 0, 86, 0
7, 276119, Note_on_c, 0, 90, 0
7, 276120, Note_on_c, 0, 85, 80
7, 276120, Note_on_c, 0, 88, 80
7, 276224, Note_on_c, 0, 85, 0
7, 276224, Note_on_c, 0, 88, 0
7, 276240, Note_on_c, 0, 91, 80
7, 276240, Note_on_c, 0, 88, 80
7, 276359, Note_on_c, 0, 91, 0
7, 276359, Note_on_c, 0, 88, 0
7, 276360, Note_on_c, 0, 88, 80
7, 276360, Note_on_c, 0, 85, 80
7, 276464, Note_on_c, 0, 88, 0
7, 276464, Note_on_c, 0, 85, 0
7, 276480, Note_on_c, 0, 88, 80
7, 276480, Note_on_c, 0, 79, 80
7, 276599, Note_on_c, 0, 88, 0
7, 276599, Note_on_c, 0, 79, 0
7, 276600, Note_on_c, 0, 78, 80
7, 276600, Note_on_c, 0, 86, 80
7, 276704, Note_on_c, 0, 78, 0
7, 276704, Note_on_c, 0, 86, 0
7, 276720, Note_on_c, 0, 76, 80
7, 276720, Note_on_c, 0, 85, 80
7, 276839, Note_on_c, 0, 76, 0
7, 276839, Note_on_c, 0, 85, 0
7, 276840, Note_on_c, 0, 78, 80
7, 276840, Note_on_c, 0, 86, 80
7, 276944, Note_on_c, 0, 78, 0
7, 276944, Note_on_c, 0, 86, 0
7, 276960, Note_on_c, 0, 90, 92
7, 276960, Note_on_c, 0, 86, 92
7, 277079, Note_on_c, 0, 90, 0
7, 277079, Note_on_c, 0, 86, 0
7, 277080, Note_on_c, 0, 88, 92
7, 277080, Note_on_c, 0, 85, 92
7, 277199, Note_on_c, 0, 88, 0
7, 277199, Note_on_c, 0, 85, 0
7, 277200, Note_on_c, 0, 88, 92
7, 277200, Note_on_c, 0, 91, 92
7, 277319, Note_on_c, 0, 88, 0
7, 277319, Note_on_c, 0, 91, 0
7, 277320, Note_on_c, 0, 86, 92
7, 277320, Note_on_c, 0, 90, 92
7, 277424, Note_on_c, 0, 86, 0
7, 277424, Note_on_c, 0, 90, 0
7, 277440, Note_on_c, 0, 86, 92
7, 277440, Note_on_c, 0, 90, 92
7, 277559, Note_on_c, 0, 86, 0
7, 277559, Note_on_c, 0, 90, 0
7, 277560, Note_on_c, 0, 85, 92
7, 277560, Note_on_c, 0, 88, 92
7, 277784, Note_on_c, 0, 85, 0
7, 277784, Note_on_c, 0, 88, 0
7, 277800, Note_on_c, 0, 81, 92
7, 277904, Note_on_c, 0, 81, 0
7, 277920, Note_on_c, 0, 86, 92
7, 278144, Note_on_c, 0, 86, 0
7, 278160, Note_on_c, 0, 90, 92
7, 278160, Note_on_c, 0, 93, 92
7, 278399, Note_on_c, 0, 90, 0
7, 278399, Note_on_c, 0, 93, 0
7, 278400, Note_on_c, 0, 91, 92
7, 278400, Note_on_c, 0, 88, 92
7, 278759, Note_on_c, 0, 91, 0
7, 278759, Note_on_c, 0, 88, 0
7, 278760, Note_on_c, 0, 90, 92
7, 278760, Note_on_c, 0, 86, 92
7, 278864, Note_on_c, 0, 90, 0
7, 278864, Note_on_c, 0, 86, 0
7, 278880, Note_on_c, 0, 86, 92
7, 278880, Note_on_c, 0, 90, 92
7, 279104, Note_on_c, 0, 86, 0
7, 279104, Note_on_c, 0, 90, 0
7, 279120, Note_on_c, 0, 86, 92
7, 279599, Note_on_c, 0, 86, 0
7, 279600, Note_on_c, 0, 84, 92
7, 279600, Note_on_c, 0, 90, 92
7, 279704, Note_on_c, 0, 84, 0
7, 279719, Note_on_c, 0, 90, 0
7, 279720, Note_on_c, 0, 83, 92
7, 279720, Note_on_c, 0, 91, 92
7, 279824, Note_on_c, 0, 83, 0
7, 279839, Note_on_c, 0, 91, 0
7, 279840, Note_on_c, 0, 83, 92
7, 279840, Note_on_c, 0, 91, 92
7, 280064, Note_on_c, 0, 83, 0
7, 280079, Note_on_c, 0, 91, 0
7, 280080, Note_on_c, 0, 91, 92
7, 280199, Note_on_c, 0, 91, 0
7, 280200, Note_on_c, 0, 88, 92
7, 280319, Note_on_c, 0, 88, 0
7, 280320, Note_on_c, 0, 86, 92
7, 280439, Note_on_c, 0, 86, 0
7, 280440, Note_on_c, 0, 85, 92
7, 280559, Note_on_c, 0, 85, 0
7, 280560, Note_on_c, 0, 88, 92
7, 280679, Note_on_c, 0, 88, 0
7, 280680, Note_on_c, 0, 85, 92
7, 280799, Note_on_c, 0, 85, 0
7, 280800, Note_on_c, 0, 83, 92
7, 280919, Note_on_c, 0, 83, 0
7, 280920, Note_on_c, 0, 81, 92
7, 281039, Note_on_c, 0, 81, 0
7, 281040, Note_on_c, 0, 83, 92
7, 281159, Note_on_c, 0, 83, 0
7, 281160, Note_on_c, 0, 85, 92
7, 281264, Note_on_c, 0, 85, 0
7, 281280, Note_on_c, 0, 88, 92
7, 281399, Note_on_c, 0, 88, 0
7, 281400, Note_on_c, 0, 86, 92
7, 281519, Note_on_c, 0, 86, 0
7, 281520, Note_on_c, 0, 90, 92
7, 281639, Note_on_c, 0, 90, 0
7, 281640, Note_on_c, 0, 86, 92
7, 281759, Note_on_c, 0, 86, 0
7, 281760, Note_on_c, 0, 85, 92
7, 281879, Note_on_c, 0, 85, 0
7, 281880, Note_on_c, 0, 83, 92
7, 281999, Note_on_c, 0, 83, 0
7, 282000, Note_on_c, 0, 86, 92
7, 282119, Note_on_c, 0, 86, 0
7, 282120, Note_on_c, 0, 83, 92
7, 282224, Note_on_c, 0, 83, 0
7, 282240, Note_on_c, 0, 81, 92
7, 282359, Note_on_c, 0, 81, 0
7, 282360, Note_on_c, 0, 80, 92
7, 282479, Note_on_c, 0, 80, 0
7, 282480, Note_on_c, 0, 83, 92
7, 282599, Note_on_c, 0, 83, 0
7, 282600, Note_on_c, 0, 80, 92
7, 282600, Note_on_c, 0, 92, 92
7, 282719, Note_on_c, 0, 80, 0
7, 282719, Note_on_c, 0, 92, 0
7, 282720, Note_on_c, 0, 90, 92
7, 282720, Note_on_c, 0, 78, 92
7, 282839, Note_on_c, 0, 90, 0
7, 282839, Note_on_c, 0, 78, 0
7, 282840, Note_on_c, 0, 76, 92
7, 282840, Note_on_c, 0, 88, 92
7, 282959, Note_on_c, 0, 76, 0
7, 282959, Note_on_c, 0, 88, 0
7, 282960, Note_on_c, 0, 90, 92
7, 282960, Note_on_c, 0, 78, 92
7, 283079, Note_on_c, 0, 90, 0
7, 283079, Note_on_c, 0, 78, 0
7, 283080, Note_on_c, 0, 92, 92
7, 283080, Note_on_c, 0, 80, 92
7, 283184, Note_on_c, 0, 92, 0
7, 283184, Note_on_c, 0, 80, 0
7, 283200, Note_on_c, 0, 93, 92
7, 283200, Note_on_c, 0, 81, 92
7, 284279, Note_on_c, 0, 93, 0
7, 284279, Note_on_c, 0, 81, 0
7, 284280, Note_on_c, 0, 92, 92
7, 284280, Note_on_c, 0, 80, 92
7, 284399, Note_on_c, 0, 92, 0
7, 284399, Note_on_c, 0, 80, 0
7, 284400, Note_on_c, 0, 83, 92
7, 284519, Note_on_c, 0, 83, 0
7, 284520, Note_on_c, 0, 80, 92
7, 284520, Note_on_c, 0, 92, 92
7, 284639, Note_on_c, 0, 80, 0
7, 284639, Note_on_c, 0, 92, 0
7, 284640, Note_on_c, 0, 78, 92
7, 284640, Note_on_c, 0, 90, 92
7, 284759, Note_on_c, 0, 78, 0
7, 284759, Note_on_c, 0, 90, 0
7, 284760, Note_on_c, 0, 76, 92
7, 284760, Note_on_c, 0, 88, 92
7, 284879, Note_on_c, 0, 76, 0
7, 284879, Note_on_c, 0, 88, 0
7, 284880, Note_on_c, 0, 90, 92
7, 284880, Note_on_c, 0, 78, 92
7, 284999, Note_on_c, 0, 90, 0
7, 284999, Note_on_c, 0, 78, 0
7, 285000, Note_on_c, 0, 80, 92
7, 285000, Note_on_c, 0, 92, 92
7, 285104, Note_on_c, 0, 80, 0
7, 285104, Note_on_c, 0, 92, 0
7, 285120, Note_on_c, 0, 93, 92
7, 285120, Note_on_c, 0, 81, 92
7, 286064, Note_on_c, 0, 93, 0
7, 286064, Note_on_c, 0, 81, 0
7, 286080, Note_on_c, 0, 81, 92
7, 286080, Note_on_c, 0, 93, 92
7, 286439, Note_on_c, 0, 81, 0
7, 286439, Note_on_c, 0, 93, 0
7, 286560, Note_on_c, 0, 93, 92
7, 286560, Note_on_c, 0, 81, 92
7, 286919, Note_on_c, 0, 93, 0
7, 286919, Note_on_c, 0, 81, 0
7, 287040, Note_on_c, 0, 93, 92
7, 287040, Note_on_c, 0, 81, 92
7, 288959, Note_on_c, 0, 93, 0
7, 288959, Note_on_c, 0, 81, 0
7, 367440, Program_c, 0, 73
7, 367440, Control_c, 0, 10, 60
7, 367440, Control_c, 0, 7, 80
7, 368400, Note_on_c, 0, 83, 92
7, 368504, Note_on_c, 0, 83, 0
7, 368520, Note_on_c, 0, 83, 100
7, 368580, Control_c, 0, 11, 107
7, 368879, Note_on_c, 0, 83, 0
7, 369118, Control_c, 0, 11, 127
7, 369120, Note_on_c, 0, 84, 92
7, 369224, Note_on_c, 0, 84, 0
7, 369240, Note_on_c, 0, 84, 100
7, 369300, Control_c, 0, 11, 107
7, 369599, Note_on_c, 0, 84, 0
7, 369838, Control_c, 0, 11, 127
7, 369840, Note_on_c, 0, 86, 92
7, 369944, Note_on_c, 0, 86, 0
7, 369960, Note_on_c, 0, 86, 92
7, 370064, Note_on_c, 0, 86, 0
7, 370080, Note_on_c, 0, 84, 92
7, 370184, Note_on_c, 0, 84, 0
7, 370200, Note_on_c, 0, 83, 92
7, 370304, Note_on_c, 0, 83, 0
7, 370320, Note_on_c, 0, 86, 92
7, 370424, Note_on_c, 0, 86, 0
7, 370440, Note_on_c, 0, 88, 92
7, 370544, Note_on_c, 0, 88, 0
7, 370560, Note_on_c, 0, 90, 92
7, 370664, Note_on_c, 0, 90, 0
7, 370680, Note_on_c, 0, 91, 92
7, 370904, Note_on_c, 0, 91, 0
7, 370920, Note_on_c, 0, 86, 92
7, 371024, Note_on_c, 0, 86, 0
7, 371040, Note_on_c, 0, 91, 92
7, 371264, Note_on_c, 0, 91, 0
7, 371280, Note_on_c, 0, 86, 92
7, 371384, Note_on_c, 0, 86, 0
7, 371400, Note_on_c, 0, 91, 92
7, 371624, Note_on_c, 0, 91, 0
7, 371640, Note_on_c, 0, 89, 92
7, 371744, Note_on_c, 0, 89, 0
7, 371760, Note_on_c, 0, 87, 92
7, 371999, Note_on_c, 0, 87, 0
7, 372120, Note_on_c, 0, 86, 92
7, 372359, Note_on_c, 0, 86, 0
7, 372480, Note_on_c, 0, 86, 92
7, 372719, Note_on_c, 0, 86, 0
7, 372840, Note_on_c, 0, 84, 92
7, 373079, Note_on_c, 0, 84, 0
7, 373200, Note_on_c, 0, 84, 92
7, 373439, Note_on_c, 0, 84, 0
7, 373560, Note_on_c, 0, 83, 92
7, 373799, Note_on_c, 0, 83, 0
7, 374160, Note_on_c, 0, 84, 92
7, 374264, Note_on_c, 0, 84, 0
7, 374280, Note_on_c, 0, 84, 100
7, 374340, Control_c, 0, 11, 107
7, 374639, Note_on_c, 0, 84, 0
7, 374878, Control_c, 0, 11, 127
7, 374880, Note_on_c, 0, 86, 92
7, 374984, Note_on_c, 0, 86, 0
7, 375000, Note_on_c, 0, 86, 100
7, 375060, Control_c, 0, 11, 107
7, 375359, Note_on_c, 0, 86, 0
7, 375598, Control_c, 0, 11, 127
7, 375600, Note_on_c, 0, 87, 92
7, 375704, Note_on_c, 0, 87, 0
7, 375720, Note_on_c, 0, 92, 92
7, 375944, Note_on_c, 0, 92, 0
7, 375960, Note_on_c, 0, 91, 92
7, 376064, Note_on_c, 0, 91, 0
7, 376080, Note_on_c, 0, 89, 92
7, 376319, Note_on_c, 0, 89, 0
7, 376440, Note_on_c, 0, 87, 92
7, 376679, Note_on_c, 0, 87, 0
7, 377040, Note_on_c, 0, 89, 92
7, 377144, Note_on_c, 0, 89, 0
7, 377160, Note_on_c, 0, 86, 92
7, 377384, Note_on_c, 0, 86, 0
7, 377400, Note_on_c, 0, 92, 92
7, 377504, Note_on_c, 0, 92, 0
7, 377520, Note_on_c, 0, 91, 92
7, 377744, Note_on_c, 0, 91, 0
7, 377760, Note_on_c, 0, 86, 92
7, 377864, Note_on_c, 0, 86, 0
7, 377880, Note_on_c, 0, 91, 92
7, 378104, Note_on_c, 0, 91, 0
7, 378120, Note_on_c, 0, 89, 92
7, 378224, Note_on_c, 0, 89, 0
7, 378240, Note_on_c, 0, 87, 92
7, 378464, Note_on_c, 0, 87, 0
7, 378480, Note_on_c, 0, 79, 92
7, 378480, Note_on_c, 0, 87, 92
7, 378584, Note_on_c, 0, 79, 0
7, 378584, Note_on_c, 0, 87, 0
7, 378600, Note_on_c, 0, 79, 100
7, 378600, Note_on_c, 0, 87, 100
7, 378660, Control_c, 0, 11, 107
7, 378959, Note_on_c, 0, 79, 0
7, 378959, Note_on_c, 0, 87, 0
7, 379198, Control_c, 0, 11, 127
7, 379200, Note_on_c, 0, 86, 92
7, 379200, Note_on_c, 0, 89, 92
7, 379304, Note_on_c, 0, 86, 0
7, 379304, Note_on_c, 0, 89, 0
7, 379320, Note_on_c, 0, 89, 100
7, 379320, Note_on_c, 0, 86, 100
7, 379380, Control_c, 0, 11, 107
7, 379679, Note_on_c, 0, 89, 0
7, 379679, Note_on_c, 0, 86, 0
7, 379918, Control_c, 0, 11, 127
7, 379920, Note_on_c, 0, 79, 92
7, 379920, Note_on_c, 0, 91, 92
7, 380024, Note_on_c, 0, 79, 0
7, 380024, Note_on_c, 0, 91, 0
7, 380040, Note_on_c, 0, 84, 92
7, 380040, Note_on_c, 0, 91, 92
7, 380264, Note_on_c, 0, 84, 0
7, 380264, Note_on_c, 0, 91, 0
7, 380280, Note_on_c, 0, 84, 92
7, 380280, Note_on_c, 0, 91, 92
7, 380384, Note_on_c, 0, 84, 0
7, 380384, Note_on_c, 0, 91, 0
7, 380400, Note_on_c, 0, 89, 92
7, 380400, Note_on_c, 0, 84, 92
7, 380639, Note_on_c, 0, 89, 0
7, 380639, Note_on_c, 0, 84, 0
7, 380760, Note_on_c, 0, 84, 92
7, 380760, Note_on_c, 0, 88, 92
7, 380999, Note_on_c, 0, 84, 0
7, 380999, Note_on_c, 0, 88, 0
7, 381360, Note_on_c, 0, 77, 92
7, 381360, Note_on_c, 0, 89, 92
7, 381464, Note_on_c, 0, 77, 0
7, 381464, Note_on_c, 0, 89, 0
7, 381480, Note_on_c, 0, 89, 92
7, 381480, Note_on_c, 0, 77, 92
7, 381704, Note_on_c, 0, 89, 0
7, 381704, Note_on_c, 0, 77, 0
7, 381720, Note_on_c, 0, 77, 92
7, 381720, Note_on_c, 0, 89, 92
7, 381824, Note_on_c, 0, 77, 0
7, 381824, Note_on_c, 0, 89, 0
7, 381840, Note_on_c, 0, 77, 92
7, 381840, Note_on_c, 0, 89, 92
7, 382079, Note_on_c, 0, 77, 0
7, 382079, Note_on_c, 0, 89, 0
7, 382200, Note_on_c, 0, 89, 92
7, 382200, Note_on_c, 0, 77, 92
7, 382439, Note_on_c, 0, 89, 0
7, 382439, Note_on_c, 0, 77, 0
7, 382800, Note_on_c, 0, 77, 92
7, 382800, Note_on_c, 0, 89, 92
7, 382904, Note_on_c, 0, 77, 0
7, 382904, Note_on_c, 0, 89, 0
7, 382920, Note_on_c, 0, 87, 92
7, 382920, Note_on_c, 0, 75, 92
7, 383144, Note_on_c, 0, 87, 0
7, 383144, Note_on_c, 0, 75, 0
7, 383160, Note_on_c, 0, 87, 92
7, 383160, Note_on_c, 0, 75, 92
7, 383264, Note_on_c, 0, 87, 0
7, 383264, Note_on_c, 0, 75, 0
7, 383280, Note_on_c, 0, 75, 92
7, 383280, Note_on_c, 0, 87, 92
7, 383519, Note_on_c, 0, 75, 0
7, 383519, Note_on_c, 0, 87, 0
7, 383640, Note_on_c, 0, 87, 92
7, 383640, Note_on_c, 0, 75, 92
7, 383879, Note_on_c, 0, 87, 0
7, 383879, Note_on_c, 0, 75, 0
7, 384240, Note_on_c, 0, 81, 92
7, 384240, Note_on_c, 0, 93, 92
7, 384344, Note_on_c, 0, 81, 0
7, 384344, Note_on_c, 0, 93, 0
7, 384360, Note_on_c, 0, 93, 100
7, 384360, Note_on_c, 0, 81, 100
7, 384420, Control_c, 0, 11, 107
7, 384719, Note_on_c, 0, 93, 0
7, 384719, Note_on_c, 0, 81, 0
7, 384958, Control_c, 0, 11, 127
7, 384960, Note_on_c, 0, 93, 92
7, 384960, Note_on_c, 0, 81, 92
7, 385064, Note_on_c, 0, 93, 0
7, 385064, Note_on_c, 0, 81, 0
7, 385080, Note_on_c, 0, 81, 100
7, 385080, Note_on_c, 0, 93, 100
7, 385140, Control_c, 0, 11, 107
7, 385439, Note_on_c, 0, 81, 0
7, 385439, Note_on_c, 0, 93, 0
7, 385678, Control_c, 0, 11, 127
7, 385680, Note_on_c, 0, 70, 92
7, 385680, Note_on_c, 0, 82, 92
7, 385784, Note_on_c, 0, 70, 0
7, 385784, Note_on_c, 0, 82, 0
7, 385800, Note_on_c, 0, 82, 100
7, 385800, Note_on_c, 0, 70, 100
7, 385860, Control_c, 0, 11, 107
7, 386159, Note_on_c, 0, 82, 0
7, 386159, Note_on_c, 0, 70, 0
7, 386398, Control_c, 0, 11, 127
7, 386400, Note_on_c, 0, 82, 92
7, 386400, Note_on_c, 0, 70, 92
7, 386504, Note_on_c, 0, 82, 0
7, 386504, Note_on_c, 0, 70, 0
7, 386520, Note_on_c, 0, 82, 100
7, 386520, Note_on_c, 0, 70, 100
7, 386580, Control_c, 0, 11, 107
7, 386849, Note_on_c, 0, 82, 0
7, 386849, Note_on_c, 0, 70, 0
7, 386878, Control_c, 0, 11, 127
7, 386880, Note_on_c, 0, 87, 92
7, 386984, Note_on_c, 0, 87, 0
7, 387000, Note_on_c, 0, 87, 92
7, 387104, Note_on_c, 0, 87, 0
7, 387120, Note_on_c, 0, 87, 92
7, 387224, Note_on_c, 0, 87, 0
7, 387240, Note_on_c, 0, 87, 92
7, 387344, Note_on_c, 0, 87, 0
7, 387360, Note_on_c, 0, 89, 92
7, 387464, Note_on_c, 0, 89, 0
7, 387480, Note_on_c, 0, 90, 92
7, 387584, Note_on_c, 0, 90, 0
7, 387600, Note_on_c, 0, 90, 92
7, 387704, Note_on_c, 0, 90, 0
7, 387720, Note_on_c, 0, 90, 92
7, 387824, Note_on_c, 0, 90, 0
7, 387840, Note_on_c, 0, 90, 92
7, 387944, Note_on_c, 0, 90, 0
7, 387960, Note_on_c, 0, 90, 92
7, 388064, Note_on_c, 0, 90, 0
7, 388080, Note_on_c, 0, 89, 92
7, 388184, Note_on_c, 0, 89, 0
7, 388200, Note_on_c, 0, 87, 92
7, 388304, Note_on_c, 0, 87, 0
7, 388320, Note_on_c, 0, 85, 92
7, 388544, Note_on_c, 0, 85, 0
7, 388560, Note_on_c, 0, 89, 92
7, 388560, Note_on_c, 0, 77, 92
7, 388664, Note_on_c, 0, 89, 0
7, 388664, Note_on_c, 0, 77, 0
7, 388680, Note_on_c, 0, 89, 100
7, 388680, Note_on_c, 0, 77, 100
7, 388740, Control_c, 0, 11, 107
7, 389039, Note_on_c, 0, 89, 0
7, 389039, Note_on_c, 0, 77, 0
7, 389278, Control_c, 0, 11, 127
7, 389280, Note_on_c, 0, 89, 92
7, 389280, Note_on_c, 0, 77, 92
7, 389384, Note_on_c, 0, 89, 0
7, 389384, Note_on_c, 0, 77, 0
7, 389400, Note_on_c, 0, 89, 100
7, 389400, Note_on_c, 0, 77, 100
7, 389460, Control_c, 0, 11, 107
7, 389759, Note_on_c, 0, 89, 0
7, 389759, Note_on_c, 0, 77, 0
7, 389998, Control_c, 0, 11, 127
7, 390000, Note_on_c, 0, 77, 92
7, 390000, Note_on_c, 0, 89, 92
7, 390104, Note_on_c, 0, 77, 0
7, 390104, Note_on_c, 0, 89, 0
7, 390120, Note_on_c, 0, 82, 92
7, 390344, Note_on_c, 0, 82, 0
7, 390360, Note_on_c, 0, 82, 92
7, 390464, Note_on_c, 0, 82, 0
7, 390480, Note_on_c, 0, 78, 92
7, 390480, Note_on_c, 0, 90, 92
7, 390719, Note_on_c, 0, 78, 0
7, 390719, Note_on_c, 0, 90, 0
7, 391440, Note_on_c, 0, 80, 92
7, 391440, Note_on_c, 0, 92, 92
7, 391544, Note_on_c, 0, 80, 0
7, 391544, Note_on_c, 0, 92, 0
7, 391560, Note_on_c, 0, 85, 92
7, 391784, Note_on_c, 0, 85, 0
7, 391800, Note_on_c, 0, 85, 92
7, 391904, Note_on_c, 0, 85, 0
7, 391920, Note_on_c, 0, 82, 92
7, 392159, Note_on_c, 0, 82, 0
7, 392880, Note_on_c, 0, 71, 92
7, 392880, Note_on_c, 0, 83, 92
7, 392984, Note_on_c, 0, 71, 0
7, 392984, Note_on_c, 0, 83, 0
7, 393000, Note_on_c, 0, 77, 92
7, 393000, Note_on_c, 0, 65, 92
7, 393224, Note_on_c, 0, 77, 0
7, 393224, Note_on_c, 0, 65, 0
7, 393240, Note_on_c, 0, 89, 92
7, 393240, Note_on_c, 0, 85, 92
7, 393344, Note_on_c, 0, 89, 0
7, 393344, Note_on_c, 0, 85, 0
7, 393360, Note_on_c, 0, 90, 92
7, 393360, Note_on_c, 0, 85, 92
7, 393464, Note_on_c, 0, 90, 0
7, 393464, Note_on_c, 0, 85, 0
7, 393480, Note_on_c, 0, 85, 92
7, 393480, Note_on_c, 0, 89, 92
7, 393584, Note_on_c, 0, 85, 0
7, 393584, Note_on_c, 0, 89, 0
7, 393600, Note_on_c, 0, 85, 92
7, 393600, Note_on_c, 0, 90, 92
7, 393704, Note_on_c, 0, 85, 0
7, 393704, Note_on_c, 0, 90, 0
7, 393720, Note_on_c, 0, 90, 92
7, 393720, Note_on_c, 0, 85, 92
7, 393824, Note_on_c, 0, 90, 0
7, 393824, Note_on_c, 0, 85, 0
7, 393840, Note_on_c, 0, 85, 92
7, 393840, Note_on_c, 0, 90, 92
7, 393944, Note_on_c, 0, 85, 0
7, 393944, Note_on_c, 0, 90, 0
7, 393960, Note_on_c, 0, 85, 92
7, 393960, Note_on_c, 0, 90, 92
7, 394064, Note_on_c, 0, 85, 0
7, 394064, Note_on_c, 0, 90, 0
7, 394080, Note_on_c, 0, 90, 92
7, 394080, Note_on_c, 0, 85, 92
7, 394319, Note_on_c, 0, 90, 0
7, 394319, Note_on_c, 0, 85, 0
7, 396600, Note_on_c, 0, 87, 92
7, 396704, Note_on_c, 0, 87, 0
7, 396720, Note_on_c, 0, 87, 92
7, 396824, Note_on_c, 0, 87, 0
7, 396840, Note_on_c, 0, 87, 92
7, 396944, Note_on_c, 0, 87, 0
7, 396960, Note_on_c, 0, 87, 92
7, 397064, Note_on_c, 0, 87, 0
7, 397080, Note_on_c, 0, 89, 92
7, 397184, Note_on_c, 0, 89, 0
7, 397200, Note_on_c, 0, 90, 92
7, 397304, Note_on_c, 0, 90, 0
7, 397320, Note_on_c, 0, 90, 92
7, 397424, Note_on_c, 0, 90, 0
7, 397440, Note_on_c, 0, 92, 92
7, 397544, Note_on_c, 0, 92, 0
7, 397560, Note_on_c, 0, 90, 92
7, 397664, Note_on_c, 0, 90, 0
7, 397680, Note_on_c, 0, 89, 92
7, 397784, Note_on_c, 0, 89, 0
7, 397800, Note_on_c, 0, 87, 92
7, 397904, Note_on_c, 0, 87, 0
7, 397920, Note_on_c, 0, 85, 92
7, 398024, Note_on_c, 0, 85, 0
7, 398040, Note_on_c, 0, 84, 92
7, 398144, Note_on_c, 0, 84, 0
7, 398160, Note_on_c, 0, 90, 92
7, 398264, Note_on_c, 0, 90, 0
7, 398280, Note_on_c, 0, 89, 92
7, 398384, Note_on_c, 0, 89, 0
7, 398400, Note_on_c, 0, 87, 92
7, 398504, Note_on_c, 0, 87, 0
7, 398520, Note_on_c, 0, 85, 92
7, 398624, Note_on_c, 0, 85, 0
7, 398640, Note_on_c, 0, 84, 92
7, 398744, Note_on_c, 0, 84, 0
7, 398760, Note_on_c, 0, 82, 92
7, 398864, Note_on_c, 0, 82, 0
7, 398880, Note_on_c, 0, 89, 92
7, 398984, Note_on_c, 0, 89, 0
7, 399000, Note_on_c, 0, 87, 92
7, 399104, Note_on_c, 0, 87, 0
7, 399120, Note_on_c, 0, 85, 92
7, 399224, Note_on_c, 0, 85, 0
7, 399240, Note_on_c, 0, 84, 92
7, 399344, Note_on_c, 0, 84, 0
7, 399360, Note_on_c, 0, 82, 92
7, 399464, Note_on_c, 0, 82, 0
7, 399480, Note_on_c, 0, 81, 92
7, 399584, Note_on_c, 0, 81, 0
7, 399600, Note_on_c, 0, 85, 92
7, 399704, Note_on_c, 0, 85, 0
7, 399720, Note_on_c, 0, 84, 92
7, 399824, Note_on_c, 0, 84, 0
7, 399840, Note_on_c, 0, 82, 92
7, 400079, Note_on_c, 0, 82, 0
7, 400200, Note_on_c, 0, 82, 92
7, 400304, Note_on_c, 0, 82, 0
7, 400320, Note_on_c, 0, 82, 92
7, 400424, Note_on_c, 0, 82, 0
7, 400440, Note_on_c, 0, 82, 92
7, 400544, Note_on_c, 0, 82, 0
7, 400560, Note_on_c, 0, 82, 92
7, 400664, Note_on_c, 0, 82, 0
7, 400680, Note_on_c, 0, 84, 92
7, 400784, Note_on_c, 0, 84, 0
7, 400800, Note_on_c, 0, 85, 92
7, 400904, Note_on_c, 0, 85, 0
7, 400920, Note_on_c, 0, 85, 92
7, 401024, Note_on_c, 0, 85, 0
7, 401040, Note_on_c, 0, 84, 92
7, 401144, Note_on_c, 0, 84, 0
7, 401160, Note_on_c, 0, 82, 92
7, 401279, Note_on_c, 0, 82, 0
7, 401640, Note_on_c, 0, 82, 92
7, 401744, Note_on_c, 0, 82, 0
7, 401760, Note_on_c, 0, 82, 92
7, 401864, Note_on_c, 0, 82, 0
7, 401880, Note_on_c, 0, 82, 92
7, 401984, Note_on_c, 0, 82, 0
7, 402000, Note_on_c, 0, 82, 92
7, 402104, Note_on_c, 0, 82, 0
7, 402120, Note_on_c, 0, 83, 92
7, 402224, Note_on_c, 0, 83, 0
7, 402240, Note_on_c, 0, 85, 92
7, 402344, Note_on_c, 0, 85, 0
7, 402360, Note_on_c, 0, 85, 92
7, 402464, Note_on_c, 0, 85, 0
7, 402480, Note_on_c, 0, 83, 92
7, 402584, Note_on_c, 0, 83, 0
7, 402600, Note_on_c, 0, 82, 92
7, 402719, Note_on_c, 0, 82, 0
7, 403080, Note_on_c, 0, 85, 92
7, 403184, Note_on_c, 0, 85, 0
7, 403200, Note_on_c, 0, 85, 92
7, 403304, Note_on_c, 0, 85, 0
7, 403320, Note_on_c, 0, 85, 92
7, 403424, Note_on_c, 0, 85, 0
7, 403440, Note_on_c, 0, 85, 92
7, 403544, Note_on_c, 0, 85, 0
7, 403560, Note_on_c, 0, 86, 92
7, 403664, Note_on_c, 0, 86, 0
7, 403680, Note_on_c, 0, 88, 92
7, 403784, Note_on_c, 0, 88, 0
7, 403800, Note_on_c, 0, 88, 92
7, 403800, Note_on_c, 0, 85, 92
7, 403904, Note_on_c, 0, 88, 0
7, 403904, Note_on_c, 0, 85, 0
7, 403920, Note_on_c, 0, 90, 92
7, 403920, Note_on_c, 0, 86, 92
7, 404024, Note_on_c, 0, 90, 0
7, 404024, Note_on_c, 0, 86, 0
7, 404040, Note_on_c, 0, 88, 92
7, 404040, Note_on_c, 0, 91, 92
7, 404144, Note_on_c, 0, 88, 0
7, 404144, Note_on_c, 0, 91, 0
7, 404160, Note_on_c, 0, 83, 92
7, 404384, Note_on_c, 0, 83, 0
7, 404400, Note_on_c, 0, 83, 92
7, 404504, Note_on_c, 0, 83, 0
7, 404520, Note_on_c, 0, 83, 100
7, 404580, Control_c, 0, 11, 107
7, 404879, Note_on_c, 0, 83, 0
7, 405118, Control_c, 0, 11, 127
7, 405120, Note_on_c, 0, 85, 92
7, 405239, Note_on_c, 0, 85, 0
7, 405240, Note_on_c, 0, 85, 100
7, 405300, Control_c, 0, 11, 107
7, 405569, Note_on_c, 0, 85, 0
7, 405598, Control_c, 0, 11, 127
7, 405600, Note_on_c, 0, 87, 92
7, 405704, Note_on_c, 0, 87, 0
7, 405720, Note_on_c, 0, 88, 92
7, 405824, Note_on_c, 0, 88, 0
7, 405840, Note_on_c, 0, 90, 92
7, 405891, Note_on_c, 0, 90, 0
7, 405900, Note_on_c, 0, 91, 92
7, 405951, Note_on_c, 0, 91, 0
7, 405960, Note_on_c, 0, 91, 92
7, 406064, Note_on_c, 0, 91, 0
7, 406080, Note_on_c, 0, 91, 92
7, 406184, Note_on_c, 0, 91, 0
7, 406200, Note_on_c, 0, 91, 92
7, 406304, Note_on_c, 0, 91, 0
7, 406320, Note_on_c, 0, 91, 92
7, 406424, Note_on_c, 0, 91, 0
7, 406440, Note_on_c, 0, 93, 92
7, 406544, Note_on_c, 0, 93, 0
7, 406560, Note_on_c, 0, 91, 92
7, 406664, Note_on_c, 0, 91, 0
7, 406680, Note_on_c, 0, 90, 92
7, 406784, Note_on_c, 0, 90, 0
7, 406800, Note_on_c, 0, 88, 92
7, 406904, Note_on_c, 0, 88, 0
7, 406920, Note_on_c, 0, 87, 92
7, 407024, Note_on_c, 0, 87, 0
7, 407040, Note_on_c, 0, 93, 92
7, 407144, Note_on_c, 0, 93, 0
7, 407160, Note_on_c, 0, 93, 92
7, 407264, Note_on_c, 0, 93, 0
7, 407280, Note_on_c, 0, 93, 92
7, 407384, Note_on_c, 0, 93, 0
7, 407400, Note_on_c, 0, 93, 92
7, 407504, Note_on_c, 0, 93, 0
7, 407520, Note_on_c, 0, 91, 92
7, 407624, Note_on_c, 0, 91, 0
7, 407640, Note_on_c, 0, 90, 92
7, 407744, Note_on_c, 0, 90, 0
7, 407760, Note_on_c, 0, 87, 92
7, 407864, Note_on_c, 0, 87, 0
7, 407880, Note_on_c, 0, 87, 92
7, 407984, Note_on_c, 0, 87, 0
7, 408000, Note_on_c, 0, 88, 92
7, 408104, Note_on_c, 0, 88, 0
7, 408120, Note_on_c, 0, 88, 92
7, 408224, Note_on_c, 0, 88, 0
7, 408240, Note_on_c, 0, 90, 92
7, 408344, Note_on_c, 0, 90, 0
7, 408360, Note_on_c, 0, 91, 92
7, 408464, Note_on_c, 0, 91, 0
7, 408480, Note_on_c, 0, 91, 92
7, 408584, Note_on_c, 0, 91, 0
7, 408600, Note_on_c, 0, 91, 92
7, 408704, Note_on_c, 0, 91, 0
7, 408720, Note_on_c, 0, 93, 92
7, 408824, Note_on_c, 0, 93, 0
7, 408840, Note_on_c, 0, 93, 92
7, 408944, Note_on_c, 0, 93, 0
7, 408960, Note_on_c, 0, 91, 92
7, 409064, Note_on_c, 0, 91, 0
7, 409080, Note_on_c, 0, 90, 92
7, 409184, Note_on_c, 0, 90, 0
7, 409200, Note_on_c, 0, 93, 92
7, 409304, Note_on_c, 0, 93, 0
7, 409320, Note_on_c, 0, 93, 92
7, 409424, Note_on_c, 0, 93, 0
7, 409440, Note_on_c, 0, 93, 92
7, 409544, Note_on_c, 0, 93, 0
7, 409560, Note_on_c, 0, 91, 92
7, 409664, Note_on_c, 0, 91, 0
7, 409680, Note_on_c, 0, 90, 92
7, 409784, Note_on_c, 0, 90, 0
7, 409800, Note_on_c, 0, 88, 92
7, 409904, Note_on_c, 0, 88, 0
7, 409920, Note_on_c, 0, 91, 92
7, 410024, Note_on_c, 0, 91, 0
7, 410040, Note_on_c, 0, 93, 92
7, 410144, Note_on_c, 0, 93, 0
7, 410160, Note_on_c, 0, 91, 92
7, 410264, Note_on_c, 0, 91, 0
7, 410280, Note_on_c, 0, 90, 92
7, 410384, Note_on_c, 0, 90, 0
7, 410400, Note_on_c, 0, 88, 92
7, 410504, Note_on_c, 0, 88, 0
7, 410520, Note_on_c, 0, 86, 92
7, 410624, Note_on_c, 0, 86, 0
7, 410640, Note_on_c, 0, 90, 92
7, 410744, Note_on_c, 0, 90, 0
7, 410760, Note_on_c, 0, 91, 92
7, 410864, Note_on_c, 0, 91, 0
7, 410880, Note_on_c, 0, 90, 92
7, 410984, Note_on_c, 0, 90, 0
7, 411000, Note_on_c, 0, 88, 92
7, 411104, Note_on_c, 0, 88, 0
7, 411120, Note_on_c, 0, 86, 92
7, 411224, Note_on_c, 0, 86, 0
7, 411240, Note_on_c, 0, 85, 92
7, 411344, Note_on_c, 0, 85, 0
7, 411360, Note_on_c, 0, 88, 92
7, 411464, Note_on_c, 0, 88, 0
7, 411480, Note_on_c, 0, 90, 92
7, 411584, Note_on_c, 0, 90, 0
7, 411600, Note_on_c, 0, 88, 92
7, 411704, Note_on_c, 0, 88, 0
7, 411720, Note_on_c, 0, 86, 92
7, 411824, Note_on_c, 0, 86, 0
7, 411840, Note_on_c, 0, 85, 92
7, 411944, Note_on_c, 0, 85, 0
7, 411960, Note_on_c, 0, 83, 92
7, 412064, Note_on_c, 0, 83, 0
7, 412080, Note_on_c, 0, 82, 92
7, 412184, Note_on_c, 0, 82, 0
7, 412200, Note_on_c, 0, 90, 92
7, 412200, Note_on_c, 0, 78, 92
7, 412304, Note_on_c, 0, 90, 0
7, 412304, Note_on_c, 0, 78, 0
7, 412320, Note_on_c, 0, 78, 92
7, 412320, Note_on_c, 0, 90, 92
7, 412424, Note_on_c, 0, 78, 0
7, 412424, Note_on_c, 0, 90, 0
7, 412440, Note_on_c, 0, 90, 92
7, 412440, Note_on_c, 0, 78, 92
7, 412544, Note_on_c, 0, 90, 0
7, 412544, Note_on_c, 0, 78, 0
7, 412560, Note_on_c, 0, 78, 92
7, 412560, Note_on_c, 0, 90, 92
7, 412664, Note_on_c, 0, 78, 0
7, 412664, Note_on_c, 0, 90, 0
7, 412680, Note_on_c, 0, 90, 92
7, 412680, Note_on_c, 0, 78, 92
7, 412784, Note_on_c, 0, 90, 0
7, 412784, Note_on_c, 0, 78, 0
7, 412800, Note_on_c, 0, 90, 92
7, 412800, Note_on_c, 0, 78, 92
7, 413039, Note_on_c, 0, 90, 0
7, 413039, Note_on_c, 0, 78, 0
7, 413040, Note_on_c, 0, 78, 92
7, 413040, Note_on_c, 0, 90, 92
7, 413144, Note_on_c, 0, 78, 0
7, 413144, Note_on_c, 0, 90, 0
7, 413160, Note_on_c, 0, 78, 100
7, 413160, Note_on_c, 0, 90, 100
7, 413220, Control_c, 0, 11, 107
7, 413519, Note_on_c, 0, 78, 0
7, 413519, Note_on_c, 0, 90, 0
7, 413758, Control_c, 0, 11, 127
7, 413760, Note_on_c, 0, 90, 92
7, 413760, Note_on_c, 0, 78, 92
7, 413864, Note_on_c, 0, 90, 0
7, 413864, Note_on_c, 0, 78, 0
7, 413880, Note_on_c, 0, 80, 100
7, 413880, Note_on_c, 0, 92, 100
7, 413940, Control_c, 0, 11, 107
7, 414119, Note_on_c, 0, 80, 0
7, 414119, Note_on_c, 0, 92, 0
7, 414478, Control_c, 0, 11, 127
7, 414480, Note_on_c, 0, 77, 92
7, 414480, Note_on_c, 0, 89, 92
7, 414584, Note_on_c, 0, 77, 0
7, 414584, Note_on_c, 0, 89, 0
7, 414600, Note_on_c, 0, 77, 100
7, 414600, Note_on_c, 0, 89, 100
7, 414660, Control_c, 0, 11, 107
7, 414959, Note_on_c, 0, 77, 0
7, 414959, Note_on_c, 0, 89, 0
7, 415198, Control_c, 0, 11, 127
7, 415200, Note_on_c, 0, 89, 92
7, 415200, Note_on_c, 0, 77, 92
7, 415304, Note_on_c, 0, 89, 0
7, 415304, Note_on_c, 0, 77, 0
7, 415320, Note_on_c, 0, 78, 100
7, 415320, Note_on_c, 0, 90, 100
7, 415380, Control_c, 0, 11, 107
7, 415679, Note_on_c, 0, 78, 0
7, 415679, Note_on_c, 0, 90, 0
7, 415918, Control_c, 0, 11, 127
7, 415920, Note_on_c, 0, 78, 92
7, 415920, Note_on_c, 0, 90, 92
7, 416024, Note_on_c, 0, 78, 0
7, 416024, Note_on_c, 0, 90, 0
7, 416040, Note_on_c, 0, 78, 100
7, 416040, Note_on_c, 0, 90, 100
7, 416100, Control_c, 0, 11, 107
7, 416399, Note_on_c, 0, 78, 0
7, 416399, Note_on_c, 0, 90, 0
7, 416638, Control_c, 0, 11, 127
7, 416640, Note_on_c, 0, 78, 92
7, 416640, Note_on_c, 0, 90, 92
7, 416744, Note_on_c, 0, 78, 0
7, 416744, Note_on_c, 0, 90, 0
7, 416760, Note_on_c, 0, 83, 100
7, 416760, Note_on_c, 0, 89, 100
7, 416820, Control_c, 0, 11, 107
7, 417119, Note_on_c, 0, 83, 0
7, 417119, Note_on_c, 0, 89, 0
7, 417358, Control_c, 0, 11, 127
7, 417360, Note_on_c, 0, 80, 92
7, 417464, Note_on_c, 0, 80, 0
7, 417480, Note_on_c, 0, 80, 100
7, 417540, Control_c, 0, 11, 107
7, 417839, Note_on_c, 0, 80, 0
7, 418078, Control_c, 0, 11, 127
7, 418080, Note_on_c, 0, 80, 92
7, 418184, Note_on_c, 0, 80, 0
7, 418200, Note_on_c, 0, 82, 100
7, 418260, Control_c, 0, 11, 107
7, 418559, Note_on_c, 0, 82, 0
7, 418798, Control_c, 0, 11, 127
7, 418800, Note_on_c, 0, 82, 92
7, 418904, Note_on_c, 0, 82, 0
7, 418920, Note_on_c, 0, 83, 100
7, 418980, Control_c, 0, 11, 107
7, 419279, Note_on_c, 0, 83, 0
7, 419518, Control_c, 0, 11, 127
7, 419520, Note_on_c, 0, 83, 92
7, 419624, Note_on_c, 0, 83, 0
7, 419640, Note_on_c, 0, 85, 100
7, 419700, Control_c, 0, 11, 107
7, 419999, Note_on_c, 0, 85, 0
7, 420238, Control_c, 0, 11, 127
7, 420240, Note_on_c, 0, 85, 92
7, 420344, Note_on_c, 0, 85, 0
7, 420360, Note_on_c, 0, 86, 100
7, 420420, Control_c, 0, 11, 107
7, 420719, Note_on_c, 0, 86, 0
7, 420958, Control_c, 0, 11, 127
7, 420960, Note_on_c, 0, 87, 92
7, 421064, Note_on_c, 0, 87, 0
7, 421080, Note_on_c, 0, 88, 100
7, 421140, Control_c, 0, 11, 107
7, 421439, Note_on_c, 0, 88, 0
7, 421678, Control_c, 0, 11, 127
7, 421680, Note_on_c, 0, 88, 92
7, 421680, Note_on_c, 0, 83, 92
7, 421784, Note_on_c, 0, 88, 0
7, 421784, Note_on_c, 0, 83, 0
7, 421800, Note_on_c, 0, 89, 100
7, 421800, Note_on_c, 0, 83, 100
7, 421860, Control_c, 0, 11, 107
7, 422159, Note_on_c, 0, 89, 0
7, 422159, Note_on_c, 0, 83, 0
7, 422398, Control_c, 0, 11, 127
7, 422400, Note_on_c, 0, 89, 92
7, 422400, Note_on_c, 0, 83, 92
7, 422504, Note_on_c, 0, 89, 0
7, 422504, Note_on_c, 0, 83, 0
7, 422520, Note_on_c, 0, 90, 92
7, 422520, Note_on_c, 0, 78, 92
7, 422744, Note_on_c, 0, 90, 0
7, 422744, Note_on_c, 0, 78, 0
7, 422760, Note_on_c, 0, 90, 92
7, 422760, Note_on_c, 0, 78, 92
7, 422864, Note_on_c, 0, 90, 0
7, 422864, Note_on_c, 0, 78, 0
7, 422880, Note_on_c, 0, 90, 92
7, 422880, Note_on_c, 0, 78, 92
7, 423104, Note_on_c, 0, 90, 0
7, 423104, Note_on_c, 0, 78, 0
7, 423120, Note_on_c, 0, 90, 92
7, 423120, Note_on_c, 0, 78, 92
7, 423224, Note_on_c, 0, 90, 0
7, 423224, Note_on_c, 0, 78, 0
7, 423240, Note_on_c, 0, 90, 100
7, 423240, Note_on_c, 0, 78, 100
7, 423300, Control_c, 0, 11, 107
7, 423824, Note_on_c, 0, 90, 0
7, 423824, Note_on_c, 0, 78, 0
7, 423838, Control_c, 0, 11, 127
7, 423840, Note_on_c, 0, 78, 92
7, 423840, Note_on_c, 0, 90, 92
7, 423944, Note_on_c, 0, 78, 0
7, 423944, Note_on_c, 0, 90, 0
7, 423960, Note_on_c, 0, 90, 100
7, 423960, Note_on_c, 0, 78, 100
7, 424020, Control_c, 0, 11, 107
7, 424544, Note_on_c, 0, 90, 0
7, 424544, Note_on_c, 0, 78, 0
7, 424558, Control_c, 0, 11, 127
7, 424560, Note_on_c, 0, 90, 92
7, 424560, Note_on_c, 0, 78, 92
7, 424664, Note_on_c, 0, 90, 0
7, 424664, Note_on_c, 0, 78, 0
7, 424680, Note_on_c, 0, 90, 100
7, 424680, Note_on_c, 0, 78, 100
7, 424740, Control_c, 0, 11, 107
7, 425264, Note_on_c, 0, 90, 0
7, 425264, Note_on_c, 0, 78, 0
7, 425278, Control_c, 0, 11, 127
7, 425280, Note_on_c, 0, 78, 92
7, 425280, Note_on_c, 0, 90, 92
7, 425384, Note_on_c, 0, 78, 0
7, 425384, Note_on_c, 0, 90, 0
7, 425400, Note_on_c, 0, 90, 100
7, 425400, Note_on_c, 0, 78, 100
7, 425460, Control_c, 0, 11, 107
7, 425984, Note_on_c, 0, 90, 0
7, 425984, Note_on_c, 0, 78, 0
7, 425998, Control_c, 0, 11, 127
7, 426000, Note_on_c, 0, 78, 92
7, 426000, Note_on_c, 0, 90, 92
7, 426104, Note_on_c, 0, 78, 0
7, 426104, Note_on_c, 0, 90, 0
7, 426120, Note_on_c, 0, 90, 100
7, 426120, Note_on_c, 0, 78, 100
7, 426180, Control_c, 0, 11, 107
7, 426704, Note_on_c, 0, 90, 0
7, 426704, Note_on_c, 0, 78, 0
7, 426718, Control_c, 0, 11, 127
7, 426720, Note_on_c, 0, 78, 92
7, 426720, Note_on_c, 0, 90, 92
7, 426824, Note_on_c, 0, 78, 0
7, 426824, Note_on_c, 0, 90, 0
7, 426840, Note_on_c, 0, 90, 100
7, 426840, Note_on_c, 0, 78, 100
7, 426900, Control_c, 0, 11, 107
7, 427424, Note_on_c, 0, 90, 0
7, 427424, Note_on_c, 0, 78, 0
7, 427438, Control_c, 0, 11, 127
7, 427440, Note_on_c, 0, 90, 92
7, 427440, Note_on_c, 0, 78, 92
7, 427544, Note_on_c, 0, 90, 0
7, 427544, Note_on_c, 0, 78, 0
7, 427560, Note_on_c, 0, 90, 100
7, 427560, Note_on_c, 0, 78, 100
7, 427620, Control_c, 0, 11, 107
7, 428144, Note_on_c, 0, 90, 0
7, 428144, Note_on_c, 0, 78, 0
7, 428158, Control_c, 0, 11, 127
7, 428160, Note_on_c, 0, 78, 92
7, 428160, Note_on_c, 0, 90, 92
7, 428264, Note_on_c, 0, 78, 0
7, 428264, Note_on_c, 0, 90, 0
7, 428280, Note_on_c, 0, 90, 100
7, 428280, Note_on_c, 0, 78, 100
7, 428340, Control_c, 0, 11, 107
7, 428878, Control_c, 0, 11, 127
7, 428879, Note_on_c, 0, 90, 0
7, 428879, Note_on_c, 0, 78, 0
7, 441600, Note_on_c, 0, 90, 92
7, 441600, Note_on_c, 0, 86, 92
7, 441839, Note_on_c, 0, 90, 0
7, 441839, Note_on_c, 0, 86, 0
7, 441960, Note_on_c, 0, 90, 92
7, 441960, Note_on_c, 0, 86, 92
7, 442199, Note_on_c, 0, 90, 0
7, 442199, Note_on_c, 0, 86, 0
7, 442320, Note_on_c, 0, 88, 92
7, 442320, Note_on_c, 0, 91, 92
7, 442559, Note_on_c, 0, 88, 0
7, 442559, Note_on_c, 0, 91, 0
7, 442680, Note_on_c, 0, 93, 92
7, 442680, Note_on_c, 0, 90, 92
7, 442919, Note_on_c, 0, 93, 0
7, 442919, Note_on_c, 0, 90, 0
7, 443040, Note_on_c, 0, 93, 92
7, 443040, Note_on_c, 0, 90, 92
7, 443279, Note_on_c, 0, 93, 0
7, 443279, Note_on_c, 0, 90, 0
7, 443400, Note_on_c, 0, 88, 92
7, 443400, Note_on_c, 0, 91, 92
7, 443639, Note_on_c, 0, 88, 0
7, 443639, Note_on_c, 0, 91, 0
7, 443760, Note_on_c, 0, 81, 92
7, 443760, Note_on_c, 0, 90, 92
7, 443999, Note_on_c, 0, 81, 0
7, 443999, Note_on_c, 0, 90, 0
7, 444120, Note_on_c, 0, 79, 92
7, 444120, Note_on_c, 0, 88, 92
7, 444359, Note_on_c, 0, 79, 0
7, 444359, Note_on_c, 0, 88, 0
7, 444480, Note_on_c, 0, 78, 92
7, 444480, Note_on_c, 0, 86, 92
7, 444719, Note_on_c, 0, 78, 0
7, 444719, Note_on_c, 0, 86, 0
7, 444840, Note_on_c, 0, 78, 92
7, 444840, Note_on_c, 0, 86, 92
7, 445079, Note_on_c, 0, 78, 0
7, 445079, Note_on_c, 0, 86, 0
7, 445200, Note_on_c, 0, 88, 92
7, 445200, Note_on_c, 0, 81, 92
7, 445439, Note_on_c, 0, 88, 0
7, 445439, Note_on_c, 0, 81, 0
7, 445560, Note_on_c, 0, 90, 92
7, 445560, Note_on_c, 0, 86, 92
7, 445799, Note_on_c, 0, 90, 0
7, 445799, Note_on_c, 0, 86, 0
7, 445920, Note_on_c, 0, 86, 92
7, 445920, Note_on_c, 0, 90, 92
7, 446159, Note_on_c, 0, 86, 0
7, 446159, Note_on_c, 0, 90, 0
7, 446520, Note_on_c, 0, 85, 92
7, 446520, Note_on_c, 0, 88, 92
7, 446624, Note_on_c, 0, 85, 0
7, 446624, Note_on_c, 0, 88, 0
7, 446640, Note_on_c, 0, 85, 92
7, 446640, Note_on_c, 0, 88, 92
7, 446879, Note_on_c, 0, 85, 0
7, 446879, Note_on_c, 0, 88, 0
7, 447360, Note_on_c, 0, 90, 92
7, 447360, Note_on_c, 0, 81, 92
7, 447599, Note_on_c, 0, 90, 0
7, 447599, Note_on_c, 0, 81, 0
7, 447720, Note_on_c, 0, 90, 92
7, 447720, Note_on_c, 0, 86, 92
7, 447959, Note_on_c, 0, 90, 0
7, 447959, Note_on_c, 0, 86, 0
7, 448080, Note_on_c, 0, 86, 92
7, 448080, Note_on_c, 0, 91, 92
7, 448319, Note_on_c, 0, 86, 0
7, 448319, Note_on_c, 0, 91, 0
7, 448440, Note_on_c, 0, 93, 92
7, 448440, Note_on_c, 0, 86, 92
7, 448679, Note_on_c, 0, 93, 0
7, 448679, Note_on_c, 0, 86, 0
7, 448800, Note_on_c, 0, 86, 92
7, 448800, Note_on_c, 0, 93, 92
7, 449039, Note_on_c, 0, 86, 0
7, 449039, Note_on_c, 0, 93, 0
7, 449160, Note_on_c, 0, 86, 92
7, 449160, Note_on_c, 0, 91, 92
7, 449399, Note_on_c, 0, 86, 0
7, 449399, Note_on_c, 0, 91, 0
7, 449520, Note_on_c, 0, 86, 92
7, 449520, Note_on_c, 0, 91, 92
7, 449759, Note_on_c, 0, 86, 0
7, 449759, Note_on_c, 0, 91, 0
7, 449880, Note_on_c, 0, 88, 92
7, 449880, Note_on_c, 0, 86, 92
7, 450119, Note_on_c, 0, 88, 0
7, 450119, Note_on_c, 0, 86, 0
7, 450240, Note_on_c, 0, 78, 92
7, 450240, Note_on_c, 0, 86, 92
7, 450479, Note_on_c, 0, 78, 0
7, 450479, Note_on_c, 0, 86, 0
7, 450600, Note_on_c, 0, 78, 92
7, 450600, Note_on_c, 0, 86, 92
7, 450839, Note_on_c, 0, 78, 0
7, 450839, Note_on_c, 0, 86, 0
7, 450960, Note_on_c, 0, 85, 92
7, 450960, Note_on_c, 0, 88, 92
7, 451199, Note_on_c, 0, 85, 0
7, 451199, Note_on_c, 0, 88, 0
7, 451320, Note_on_c, 0, 90, 92
7, 451320, Note_on_c, 0, 86, 92
7, 451559, Note_on_c, 0, 90, 0
7, 451559, Note_on_c, 0, 86, 0
7, 451680, Note_on_c, 0, 85, 92
7, 451680, Note_on_c, 0, 88, 92
7, 451919, Note_on_c, 0, 85, 0
7, 451919, Note_on_c, 0, 88, 0
7, 452280, Note_on_c, 0, 86, 92
7, 452280, Note_on_c, 0, 81, 92
7, 452384, Note_on_c, 0, 86, 0
7, 452384, Note_on_c, 0, 81, 0
7, 452400, Note_on_c, 0, 81, 92
7, 452400, Note_on_c, 0, 86, 92
7, 452639, Note_on_c, 0, 81, 0
7, 452639, Note_on_c, 0, 86, 0
7, 453120, Note_on_c, 0, 88, 92
7, 453120, Note_on_c, 0, 85, 92
7, 453359, Note_on_c, 0, 88, 0
7, 453359, Note_on_c, 0, 85, 0
7, 453480, Note_on_c, 0, 88, 92
7, 453480, Note_on_c, 0, 85, 92
7, 453719, Note_on_c, 0, 88, 0
7, 453719, Note_on_c, 0, 85, 0
7, 453840, Note_on_c, 0, 90, 92
7, 453840, Note_on_c, 0, 86, 92
7, 454079, Note_on_c, 0, 90, 0
7, 454079, Note_on_c, 0, 86, 0
7, 454200, Note_on_c, 0, 86, 92
7, 454439, Note_on_c, 0, 86, 0
7, 454560, Note_on_c, 0, 85, 92
7, 454560, Note_on_c, 0, 88, 92
7, 454799, Note_on_c, 0, 85, 0
7, 454799, Note_on_c, 0, 88, 0
7, 454920, Note_on_c, 0, 86, 92
7, 454920, Note_on_c, 0, 90, 92
7, 455144, Note_on_c, 0, 86, 0
7, 455144, Note_on_c, 0, 90, 0
7, 455160, Note_on_c, 0, 91, 92
7, 455160, Note_on_c, 0, 88, 92
7, 455264, Note_on_c, 0, 91, 0
7, 455264, Note_on_c, 0, 88, 0
7, 455280, Note_on_c, 0, 90, 92
7, 455280, Note_on_c, 0, 86, 92
7, 455519, Note_on_c, 0, 90, 0
7, 455519, Note_on_c, 0, 86, 0
7, 455640, Note_on_c, 0, 86, 92
7, 455879, Note_on_c, 0, 86, 0
7, 456000, Note_on_c, 0, 85, 92
7, 456000, Note_on_c, 0, 88, 92
7, 456239, Note_on_c, 0, 85, 0
7, 456239, Note_on_c, 0, 88, 0
7, 456360, Note_on_c, 0, 90, 92
7, 456360, Note_on_c, 0, 86, 92
7, 456584, Note_on_c, 0, 90, 0
7, 456584, Note_on_c, 0, 86, 0
7, 456600, Note_on_c, 0, 88, 92
7, 456600, Note_on_c, 0, 91, 92
7, 456704, Note_on_c, 0, 88, 0
7, 456704, Note_on_c, 0, 91, 0
7, 456720, Note_on_c, 0, 90, 92
7, 456720, Note_on_c, 0, 85, 92
7, 456959, Note_on_c, 0, 90, 0
7, 456959, Note_on_c, 0, 85, 0
7, 457080, Note_on_c, 0, 88, 92
7, 457080, Note_on_c, 0, 85, 92
7, 457319, Note_on_c, 0, 88, 0
7, 457319, Note_on_c, 0, 85, 0
7, 457440, Note_on_c, 0, 83, 92
7, 457440, Note_on_c, 0, 86, 92
7, 457679, Note_on_c, 0, 83, 0
7, 457679, Note_on_c, 0, 86, 0
7, 457800, Note_on_c, 0, 88, 92
7, 457800, Note_on_c, 0, 80, 92
7, 458039, Note_on_c, 0, 88, 0
7, 458039, Note_on_c, 0, 80, 0
7, 458160, Note_on_c, 0, 81, 92
7, 458399, Note_on_c, 0, 81, 0
7, 458520, Note_on_c, 0, 90, 92
7, 458520, Note_on_c, 0, 86, 92
7, 458759, Note_on_c, 0, 90, 0
7, 458759, Note_on_c, 0, 86, 0
7, 458880, Note_on_c, 0, 90, 92
7, 458880, Note_on_c, 0, 86, 92
7, 459119, Note_on_c, 0, 90, 0
7, 459119, Note_on_c, 0, 86, 0
7, 459240, Note_on_c, 0, 90, 92
7, 459240, Note_on_c, 0, 86, 92
7, 459479, Note_on_c, 0, 90, 0
7, 459479, Note_on_c, 0, 86, 0
7, 459600, Note_on_c, 0, 86, 92
7, 459600, Note_on_c, 0, 91, 92
7, 459839, Note_on_c, 0, 86, 0
7, 459839, Note_on_c, 0, 91, 0
7, 459960, Note_on_c, 0, 86, 92
7, 459960, Note_on_c, 0, 93, 92
7, 460199, Note_on_c, 0, 86, 0
7, 460199, Note_on_c, 0, 93, 0
7, 460320, Note_on_c, 0, 93, 92
7, 460320, Note_on_c, 0, 86, 92
7, 460559, Note_on_c, 0, 93, 0
7, 460559, Note_on_c, 0, 86, 0
7, 460680, Note_on_c, 0, 86, 92
7, 460680, Note_on_c, 0, 91, 92
7, 460919, Note_on_c, 0, 86, 0
7, 460919, Note_on_c, 0, 91, 0
7, 461040, Note_on_c, 0, 86, 92
7, 461040, Note_on_c, 0, 90, 92
7, 461279, Note_on_c, 0, 86, 0
7, 461279, Note_on_c, 0, 90, 0
7, 461400, Note_on_c, 0, 79, 92
7, 461400, Note_on_c, 0, 91, 92
7, 461504, Note_on_c, 0, 79, 0
7, 461520, Note_on_c, 0, 81, 92
7, 461624, Note_on_c, 0, 91, 0
7, 461624, Note_on_c, 0, 81, 0
7, 461640, Note_on_c, 0, 88, 92
7, 461640, Note_on_c, 0, 83, 92
7, 461744, Note_on_c, 0, 88, 0
7, 461744, Note_on_c, 0, 83, 0
7, 461760, Note_on_c, 0, 86, 92
7, 461760, Note_on_c, 0, 78, 92
7, 461999, Note_on_c, 0, 86, 0
7, 461999, Note_on_c, 0, 78, 0
7, 462120, Note_on_c, 0, 86, 92
7, 462359, Note_on_c, 0, 86, 0
7, 462480, Note_on_c, 0, 88, 92
7, 462480, Note_on_c, 0, 86, 92
7, 462719, Note_on_c, 0, 88, 0
7, 462719, Note_on_c, 0, 86, 0
7, 462840, Note_on_c, 0, 86, 92
7, 462840, Note_on_c, 0, 90, 92
7, 463079, Note_on_c, 0, 86, 0
7, 463079, Note_on_c, 0, 90, 0
7, 463200, Note_on_c, 0, 88, 92
7, 463200, Note_on_c, 0, 85, 92
7, 463439, Note_on_c, 0, 88, 0
7, 463439, Note_on_c, 0, 85, 0
7, 463800, Note_on_c, 0, 78, 92
7, 463800, Note_on_c, 0, 86, 92
7, 463904, Note_on_c, 0, 78, 0
7, 463904, Note_on_c, 0, 86, 0
7, 463920, Note_on_c, 0, 78, 92
7, 463920, Note_on_c, 0, 86, 92
7, 464159, Note_on_c, 0, 78, 0
7, 464159, Note_on_c, 0, 86, 0
7, 464640, Note_on_c, 0, 88, 92
7, 464640, Note_on_c, 0, 85, 92
7, 464879, Note_on_c, 0, 88, 0
7, 464879, Note_on_c, 0, 85, 0
7, 465000, Note_on_c, 0, 85, 92
7, 465000, Note_on_c, 0, 88, 92
7, 465239, Note_on_c, 0, 85, 0
7, 465239, Note_on_c, 0, 88, 0
7, 465360, Note_on_c, 0, 86, 92
7, 465360, Note_on_c, 0, 90, 92
7, 465599, Note_on_c, 0, 86, 0
7, 465599, Note_on_c, 0, 90, 0
7, 465720, Note_on_c, 0, 86, 92
7, 465959, Note_on_c, 0, 86, 0
7, 466080, Note_on_c, 0, 85, 92
7, 466080, Note_on_c, 0, 88, 92
7, 466319, Note_on_c, 0, 85, 0
7, 466319, Note_on_c, 0, 88, 0
7, 466440, Note_on_c, 0, 86, 92
7, 466440, Note_on_c, 0, 90, 92
7, 466664, Note_on_c, 0, 86, 0
7, 466664, Note_on_c, 0, 90, 0
7, 466680, Note_on_c, 0, 88, 92
7, 466680, Note_on_c, 0, 91, 92
7, 466784, Note_on_c, 0, 88, 0
7, 466784, Note_on_c, 0, 91, 0
7, 466800, Note_on_c, 0, 86, 92
7, 466800, Note_on_c, 0, 90, 92
7, 467039, Note_on_c, 0, 86, 0
7, 467039, Note_on_c, 0, 90, 0
7, 467160, Note_on_c, 0, 86, 92
7, 467399, Note_on_c, 0, 86, 0
7, 467520, Note_on_c, 0, 88, 92
7, 467520, Note_on_c, 0, 85, 92
7, 467759, Note_on_c, 0, 88, 0
7, 467759, Note_on_c, 0, 85, 0
7, 467880, Note_on_c, 0, 90, 92
7, 467880, Note_on_c, 0, 86, 92
7, 468104, Note_on_c, 0, 90, 0
7, 468104, Note_on_c, 0, 86, 0
7, 468120, Note_on_c, 0, 91, 92
7, 468120, Note_on_c, 0, 88, 92
7, 468224, Note_on_c, 0, 91, 0
7, 468224, Note_on_c, 0, 88, 0
7, 468240, Note_on_c, 0, 90, 92
7, 468240, Note_on_c, 0, 85, 92
7, 468479, Note_on_c, 0, 90, 0
7, 468479, Note_on_c, 0, 85, 0
7, 468600, Note_on_c, 0, 85, 92
7, 468600, Note_on_c, 0, 88, 92
7, 468839, Note_on_c, 0, 85, 0
7, 468839, Note_on_c, 0, 88, 0
7, 468960, Note_on_c, 0, 83, 92
7, 468960, Note_on_c, 0, 86, 92
7, 469199, Note_on_c, 0, 83, 0
7, 469199, Note_on_c, 0, 86, 0
7, 469320, Note_on_c, 0, 88, 92
7, 469320, Note_on_c, 0, 80, 92
7, 469559, Note_on_c, 0, 88, 0
7, 469559, Note_on_c, 0, 80, 0
7, 469680, Note_on_c, 0, 81, 92
7, 469919, Note_on_c, 0, 81, 0
7, 470040, Note_on_c, 0, 90, 92
7, 470040, Note_on_c, 0, 86, 92
7, 470279, Note_on_c, 0, 90, 0
7, 470279, Note_on_c, 0, 86, 0
7, 470400, Note_on_c, 0, 86, 92
7, 470400, Note_on_c, 0, 90, 92
7, 470639, Note_on_c, 0, 86, 0
7, 470639, Note_on_c, 0, 90, 0
7, 470760, Note_on_c, 0, 90, 92
7, 470760, Note_on_c, 0, 86, 92
7, 470999, Note_on_c, 0, 90, 0
7, 470999, Note_on_c, 0, 86, 0
7, 471120, Note_on_c, 0, 86, 92
7, 471120, Note_on_c, 0, 91, 92
7, 471359, Note_on_c, 0, 86, 0
7, 471359, Note_on_c, 0, 91, 0
7, 471480, Note_on_c, 0, 93, 92
7, 471480, Note_on_c, 0, 86, 92
7, 471719, Note_on_c, 0, 93, 0
7, 471719, Note_on_c, 0, 86, 0
7, 471840, Note_on_c, 0, 86, 92
7, 471840, Note_on_c, 0, 93, 92
7, 472079, Note_on_c, 0, 86, 0
7, 472079, Note_on_c, 0, 93, 0
7, 472200, Note_on_c, 0, 91, 92
7, 472200, Note_on_c, 0, 86, 92
7, 472439, Note_on_c, 0, 91, 0
7, 472439, Note_on_c, 0, 86, 0
7, 472560, Note_on_c, 0, 86, 92
7, 472560, Note_on_c, 0, 90, 92
7, 472799, Note_on_c, 0, 86, 0
7, 472799, Note_on_c, 0, 90, 0
7, 472920, Note_on_c, 0, 91, 92
7, 472920, Note_on_c, 0, 79, 92
7, 473024, Note_on_c, 0, 79, 0
7, 473040, Note_on_c, 0, 81, 92
7, 473144, Note_on_c, 0, 91, 0
7, 473144, Note_on_c, 0, 81, 0
7, 473160, Note_on_c, 0, 83, 92
7, 473160, Note_on_c, 0, 88, 92
7, 473264, Note_on_c, 0, 83, 0
7, 473264, Note_on_c, 0, 88, 0
7, 473280, Note_on_c, 0, 78, 92
7, 473280, Note_on_c, 0, 86, 92
7, 473519, Note_on_c, 0, 78, 0
7, 473519, Note_on_c, 0, 86, 0
7, 473640, Note_on_c, 0, 86, 92
7, 473879, Note_on_c, 0, 86, 0
7, 474000, Note_on_c, 0, 86, 92
7, 474000, Note_on_c, 0, 88, 92
7, 474239, Note_on_c, 0, 86, 0
7, 474239, Note_on_c, 0, 88, 0
7, 474360, Note_on_c, 0, 90, 92
7, 474360, Note_on_c, 0, 86, 92
7, 474599, Note_on_c, 0, 90, 0
7, 474599, Note_on_c, 0, 86, 0
7, 474720, Note_on_c, 0, 88, 92
7, 474720, Note_on_c, 0, 85, 92
7, 474959, Note_on_c, 0, 88, 0
7, 474959, Note_on_c, 0, 85, 0
7, 475320, Note_on_c, 0, 86, 92
7, 475320, Note_on_c, 0, 78, 92
7, 475424, Note_on_c, 0, 86, 0
7, 475424, Note_on_c, 0, 78, 0
7, 475440, Note_on_c, 0, 86, 92
7, 475440, Note_on_c, 0, 78, 92
7, 475679, Note_on_c, 0, 86, 0
7, 475679, Note_on_c, 0, 78, 0
7, 475800, Note_on_c, 0, 93, 92
7, 475800, Note_on_c, 0, 90, 92
7, 476039, Note_on_c, 0, 93, 0
7, 476039, Note_on_c, 0, 90, 0
7, 476160, Note_on_c, 0, 88, 100
7, 476160, Note_on_c, 0, 91, 100
7, 476399, Note_on_c, 0, 88, 0
7, 476399, Note_on_c, 0, 91, 0
7, 476760, Note_on_c, 0, 86, 92
7, 476760, Note_on_c, 0, 90, 92
7, 476864, Note_on_c, 0, 86, 0
7, 476864, Note_on_c, 0, 90, 0
7, 476880, Note_on_c, 0, 86, 92
7, 476880, Note_on_c, 0, 90, 92
7, 477119, Note_on_c, 0, 86, 0
7, 477119, Note_on_c, 0, 90, 0
7, 477240, Note_on_c, 0, 86, 92
7, 477240, Note_on_c, 0, 74, 92
7, 477479, Note_on_c, 0, 86, 0
7, 477479, Note_on_c, 0, 74, 0
7, 477600, Note_on_c, 0, 86, 100
7, 477600, Note_on_c, 0, 90, 100
7, 477839, Note_on_c, 0, 86, 0
7, 477839, Note_on_c, 0, 90, 0
7, 478200, Note_on_c, 0, 91, 92
7, 478200, Note_on_c, 0, 86, 92
7, 478304, Note_on_c, 0, 91, 0
7, 478304, Note_on_c, 0, 86, 0
7, 478320, Note_on_c, 0, 91, 92
7, 478320, Note_on_c, 0, 86, 92
7, 478559, Note_on_c, 0, 91, 0
7, 478559, Note_on_c, 0, 86, 0
7, 491520, Note_on_c, 0, 83, 80
7, 491520, Note_on_c, 0, 91, 80
7, 492939, Note_on_c, 0, 83, 0
7, 492939, Note_on_c, 0, 91, 0
7, 492960, Note_on_c, 0, 91, 80
7, 492960, Note_on_c, 0, 83, 80
7, 493319, Note_on_c, 0, 91, 0
7, 493319, Note_on_c, 0, 83, 0
7, 493440, Note_on_c, 0, 90, 80
7, 493440, Note_on_c, 0, 81, 80
7, 493799, Note_on_c, 0, 90, 0
7, 493799, Note_on_c, 0, 81, 0
7, 493920, Note_on_c, 0, 78, 80
7, 493920, Note_on_c, 0, 86, 80
7, 494279, Note_on_c, 0, 78, 0
7, 494279, Note_on_c, 0, 86, 0
7, 494400, Note_on_c, 0, 79, 80
7, 494400, Note_on_c, 0, 88, 80
7, 495819, Note_on_c, 0, 79, 0
7, 495819, Note_on_c, 0, 88, 0
7, 495840, Note_on_c, 0, 88, 80
7, 495840, Note_on_c, 0, 79, 80
7, 496199, Note_on_c, 0, 88, 0
7, 496199, Note_on_c, 0, 79, 0
7, 496320, Note_on_c, 0, 79, 80
7, 496320, Note_on_c, 0, 86, 80
7, 496679, Note_on_c, 0, 79, 0
7, 496679, Note_on_c, 0, 86, 0
7, 496800, Note_on_c, 0, 83, 80
7, 496800, Note_on_c, 0, 79, 80
7, 497159, Note_on_c, 0, 83, 0
7, 497159, Note_on_c, 0, 79, 0
7, 497280, Note_on_c, 0, 83, 92
7, 497359, Note_on_c, 0, 83, 0
7, 497360, Note_on_c, 0, 83, 80
7, 497760, Note_on_c, 0, 84, 92
7, 497839, Note_on_c, 0, 84, 0
7, 497840, Note_on_c, 0, 84, 80
7, 498219, Note_on_c, 0, 83, 0
7, 498240, Note_on_c, 0, 81, 80
7, 498699, Note_on_c, 0, 84, 0
7, 498699, Note_on_c, 0, 81, 0
7, 498720, Note_on_c, 0, 84, 80
7, 498720, Note_on_c, 0, 81, 80
7, 499179, Note_on_c, 0, 84, 0
7, 499179, Note_on_c, 0, 81, 0
7, 499200, Note_on_c, 0, 78, 80
7, 499200, Note_on_c, 0, 83, 80
7, 499659, Note_on_c, 0, 78, 0
7, 499659, Note_on_c, 0, 83, 0
7, 499680, Note_on_c, 0, 76, 92
7, 499680, Note_on_c, 0, 79, 92
7, 499759, Note_on_c, 0, 76, 0
7, 499759, Note_on_c, 0, 79, 0
7, 499760, Note_on_c, 0, 76, 80
7, 499760, Note_on_c, 0, 79, 80
7, 500619, Note_on_c, 0, 76, 0
7, 500619, Note_on_c, 0, 79, 0
7, 500640, Note_on_c, 0, 84, 92
7, 500640, Note_on_c, 0, 88, 92
7, 501579, Note_on_c, 0, 84, 0
7, 501579, Note_on_c, 0, 88, 0
7, 501600, Note_on_c, 0, 84, 92
7, 501600, Note_on_c, 0, 88, 92
7, 501839, Note_on_c, 0, 84, 0
7, 501840, Note_on_c, 0, 81, 92
7, 501959, Note_on_c, 0, 81, 0
7, 501960, Note_on_c, 0, 79, 92
7, 502059, Note_on_c, 0, 88, 0
7, 502059, Note_on_c, 0, 79, 0
7, 502080, Note_on_c, 0, 78, 92
7, 502080, Note_on_c, 0, 86, 92
7, 503519, Note_on_c, 0, 78, 0
7, 503519, Note_on_c, 0, 86, 0
7, 516720, Note_on_c, 0, 89, 80
7, 516720, Note_on_c, 0, 84, 80
7, 516959, Note_on_c, 0, 84, 0
7, 516960, Note_on_c, 0, 86, 80
7, 517659, Note_on_c, 0, 89, 0
7, 517659, Note_on_c, 0, 86, 0
7, 517680, Note_on_c, 0, 86, 80
7, 517680, Note_on_c, 0, 89, 80
7, 517899, Note_on_c, 0, 86, 0
7, 517899, Note_on_c, 0, 89, 0
7, 517920, Note_on_c, 0, 89, 80
7, 517920, Note_on_c, 0, 86, 80
7, 518859, Note_on_c, 0, 89, 0
7, 518859, Note_on_c, 0, 86, 0
7, 518880, Note_on_c, 0, 86, 80
7, 518880, Note_on_c, 0, 89, 80
7, 519339, Note_on_c, 0, 86, 0
7, 519339, Note_on_c, 0, 89, 0
7, 519360, Note_on_c, 0, 89, 80
7, 519360, Note_on_c, 0, 86, 80
7, 520299, Note_on_c, 0, 86, 0
7, 520320, Note_on_c, 0, 82, 92
7, 520399, Note_on_c, 0, 82, 0
7, 520400, Note_on_c, 0, 82, 80
7, 520779, Note_on_c, 0, 89, 0
7, 520800, Note_on_c, 0, 86, 92
7, 520879, Note_on_c, 0, 86, 0
7, 520880, Note_on_c, 0, 86, 80
7, 521739, Note_on_c, 0, 82, 0
7, 521739, Note_on_c, 0, 86, 0
7, 521760, Note_on_c, 0, 79, 80
7, 521760, Note_on_c, 0, 84, 80
7, 522219, Note_on_c, 0, 79, 0
7, 522219, Note_on_c, 0, 84, 0
7, 522240, Note_on_c, 0, 84, 80
7, 522240, Note_on_c, 0, 79, 80
7, 522719, Note_on_c, 0, 84, 0
7, 522719, Note_on_c, 0, 79, 0
7, 522720, Note_on_c, 0, 81, 80
7, 522720, Note_on_c, 0, 77, 80
7, 523179, Note_on_c, 0, 81, 0
7, 523179, Note_on_c, 0, 77, 0
7, 523200, Note_on_c, 0, 76, 80
7, 523200, Note_on_c, 0, 79, 80
7, 523659, Note_on_c, 0, 76, 0
7, 523659, Note_on_c, 0, 79, 0
7, 523680, Note_on_c, 0, 81, 80
7, 523680, Note_on_c, 0, 89, 80
7, 524399, Note_on_c, 0, 81, 0
7, 524400, Note_on_c, 0, 83, 80
7, 524619, Note_on_c, 0, 89, 0
7, 524619, Note_on_c, 0, 83, 0
7, 524640, Note_on_c, 0, 88, 80
7, 524640, Note_on_c, 0, 84, 80
7, 525099, Note_on_c, 0, 88, 0
7, 525099, Note_on_c, 0, 84, 0
7, 525120, Note_on_c, 0, 84, 80
7, 525120, Note_on_c, 0, 88, 80
7, 525479, Note_on_c, 0, 84, 0
7, 525479, Note_on_c, 0, 88, 0
7, 525600, Note_on_c, 0, 86, 80
7, 525600, Note_on_c, 0, 83, 80
7, 525959, Note_on_c, 0, 86, 0
7, 525959, Note_on_c, 0, 83, 0
7, 526078, Control_c, 0, 11, 49
7, 526080, Note_on_c, 0, 74, 92
7, 526560, Control_c, 0, 11, 49
7, 526600, Control_c, 0, 11, 52
7, 526640, Control_c, 0, 11, 55
7, 526680, Control_c, 0, 11, 59
7, 526720, Control_c, 0, 11, 62
7, 526760, Control_c, 0, 11, 65
7, 526800, Control_c, 0, 11, 69
7, 526840, Control_c, 0, 11, 72
7, 526880, Control_c, 0, 11, 75
7, 526920, Control_c, 0, 11, 79
7, 526960, Control_c, 0, 11, 82
7, 527000, Control_c, 0, 11, 85
7, 527040, Control_c, 0, 11, 89
7, 527120, Control_c, 0, 11, 85
7, 527200, Control_c, 0, 11, 82
7, 527280, Control_c, 0, 11, 79
7, 527360, Control_c, 0, 11, 75
7, 527440, Control_c, 0, 11, 72
7, 527520, Control_c, 0, 11, 69
7, 527600, Control_c, 0, 11, 65
7, 527680, Control_c, 0, 11, 62
7, 527759, Note_on_c, 0, 74, 0
7, 527760, Control_c, 0, 11, 59
7, 527760, Note_on_c, 0, 67, 92
7, 527840, Control_c, 0, 11, 55
7, 527920, Control_c, 0, 11, 52
7, 527984, Note_on_c, 0, 67, 0
7, 528000, Note_on_c, 0, 64, 92
7, 528000, Control_c, 0, 11, 49
7, 528944, Note_on_c, 0, 64, 0
7, 528960, Note_on_c, 0, 64, 92
7, 529440, Control_c, 0, 11, 49
7, 529480, Control_c, 0, 11, 50
7, 529520, Control_c, 0, 11, 51
7, 529560, Control_c, 0, 11, 52
7, 529600, Control_c, 0, 11, 53
7, 529640, Control_c, 0, 11, 55
7, 529680, Control_c, 0, 11, 56
7, 529720, Control_c, 0, 11, 57
7, 529760, Control_c, 0, 11, 58
7, 529800, Control_c, 0, 11, 59
7, 529840, Control_c, 0, 11, 60
7, 529880, Control_c, 0, 11, 61
7, 529904, Note_on_c, 0, 64, 0
7, 529920, Note_on_c, 0, 66, 92
7, 529920, Control_c, 0, 11, 62
7, 529960, Control_c, 0, 11, 63
7, 530000, Control_c, 0, 11, 65
7, 530040, Control_c, 0, 11, 66
7, 530080, Control_c, 0, 11, 67
7, 530120, Control_c, 0, 11, 68
7, 530160, Control_c, 0, 11, 69
7, 530200, Control_c, 0, 11, 70
7, 530240, Control_c, 0, 11, 71
7, 530280, Control_c, 0, 11, 72
7, 530320, Control_c, 0, 11, 73
7, 530360, Control_c, 0, 11, 75
7, 530400, Control_c, 0, 11, 76
7, 530440, Control_c, 0, 11, 77
7, 530480, Control_c, 0, 11, 78
7, 530520, Control_c, 0, 11, 79
7, 530560, Control_c, 0, 11, 80
7, 530600, Control_c, 0, 11, 81
7, 530624, Note_on_c, 0, 66, 0
7, 530640, Note_on_c, 0, 67, 92
7, 530640, Control_c, 0, 11, 82
7, 530680, Control_c, 0, 11, 83
7, 530720, Control_c, 0, 11, 85
7, 530760, Control_c, 0, 11, 86
7, 530800, Control_c, 0, 11, 87
7, 530840, Control_c, 0, 11, 88
7, 530864, Note_on_c, 0, 67, 0
7, 530880, Note_on_c, 0, 67, 92
7, 531239, Note_on_c, 0, 67, 0
7, 531360, Note_on_c, 0, 69, 92
7, 531719, Note_on_c, 0, 69, 0
7, 531838, Control_c, 0, 11, 49
7, 531840, Note_on_c, 0, 74, 92
7, 531840, Control_c, 0, 11, 49
7, 531867, Control_c, 0, 11, 50
7, 531893, Control_c, 0, 11, 51
7, 531920, Control_c, 0, 11, 52
7, 531947, Control_c, 0, 11, 53
7, 531973, Control_c, 0, 11, 55
7, 532000, Control_c, 0, 11, 56
7, 532027, Control_c, 0, 11, 57
7, 532053, Control_c, 0, 11, 58
7, 532080, Control_c, 0, 11, 59
7, 532107, Control_c, 0, 11, 60
7, 532133, Control_c, 0, 11, 61
7, 532160, Control_c, 0, 11, 62
7, 532187, Control_c, 0, 11, 63
7, 532213, Control_c, 0, 11, 65
7, 532240, Control_c, 0, 11, 66
7, 532267, Control_c, 0, 11, 67
7, 532293, Control_c, 0, 11, 68
7, 532320, Control_c, 0, 11, 69
7, 532347, Control_c, 0, 11, 70
7, 532373, Control_c, 0, 11, 71
7, 532400, Control_c, 0, 11, 72
7, 532427, Control_c, 0, 11, 73
7, 532453, Control_c, 0, 11, 75
7, 532480, Control_c, 0, 11, 76
7, 532507, Control_c, 0, 11, 77
7, 532533, Control_c, 0, 11, 78
7, 532560, Control_c, 0, 11, 79
7, 532587, Control_c, 0, 11, 80
7, 532613, Control_c, 0, 11, 81
7, 532640, Control_c, 0, 11, 82
7, 532667, Control_c, 0, 11, 83
7, 532693, Control_c, 0, 11, 85
7, 532720, Control_c, 0, 11, 86
7, 532747, Control_c, 0, 11, 87
7, 532773, Control_c, 0, 11, 88
7, 532800, Control_c, 0, 11, 89
7, 532827, Control_c, 0, 11, 87
7, 532853, Control_c, 0, 11, 85
7, 532880, Control_c, 0, 11, 82
7, 532907, Control_c, 0, 11, 80
7, 532933, Control_c, 0, 11, 78
7, 532960, Control_c, 0, 11, 76
7, 532987, Control_c, 0, 11, 73
7, 533013, Control_c, 0, 11, 71
7, 533040, Control_c, 0, 11, 69
7, 533067, Control_c, 0, 11, 67
7, 533093, Control_c, 0, 11, 65
7, 533120, Control_c, 0, 11, 62
7, 533147, Control_c, 0, 11, 60
7, 533173, Control_c, 0, 11, 58
7, 533200, Control_c, 0, 11, 56
7, 533227, Control_c, 0, 11, 53
7, 533253, Control_c, 0, 11, 49
7, 533504, Note_on_c, 0, 74, 0
7, 533520, Note_on_c, 0, 67, 92
7, 533699, Note_on_c, 0, 67, 0
7, 533760, Note_on_c, 0, 64, 92
7, 534119, Note_on_c, 0, 64, 0
7, 534240, Note_on_c, 0, 64, 92
7, 534599, Note_on_c, 0, 64, 0
7, 534720, Note_on_c, 0, 64, 92
7, 535200, Control_c, 0, 11, 49
7, 535248, Control_c, 0, 11, 50
7, 535296, Control_c, 0, 11, 51
7, 535344, Control_c, 0, 11, 52
7, 535392, Control_c, 0, 11, 53
7, 535440, Control_c, 0, 11, 54
7, 535488, Control_c, 0, 11, 55
7, 535536, Control_c, 0, 11, 56
7, 535584, Control_c, 0, 11, 57
7, 535632, Control_c, 0, 11, 58
7, 535679, Note_on_c, 0, 64, 0
7, 535680, Control_c, 0, 11, 59
7, 535680, Note_on_c, 0, 66, 92
7, 535728, Control_c, 0, 11, 60
7, 535776, Control_c, 0, 11, 61
7, 535824, Control_c, 0, 11, 62
7, 535872, Control_c, 0, 11, 63
7, 535920, Control_c, 0, 11, 64
7, 535968, Control_c, 0, 11, 65
7, 536016, Control_c, 0, 11, 66
7, 536064, Control_c, 0, 11, 67
7, 536112, Control_c, 0, 11, 68
7, 536160, Control_c, 0, 11, 69
7, 536208, Control_c, 0, 11, 70
7, 536256, Control_c, 0, 11, 71
7, 536304, Control_c, 0, 11, 72
7, 536352, Control_c, 0, 11, 73
7, 536384, Note_on_c, 0, 66, 0
7, 536400, Note_on_c, 0, 67, 92
7, 536400, Control_c, 0, 11, 74
7, 536448, Control_c, 0, 11, 75
7, 536496, Control_c, 0, 11, 76
7, 536544, Control_c, 0, 11, 77
7, 536592, Control_c, 0, 11, 78
7, 536624, Note_on_c, 0, 67, 0
7, 536640, Note_on_c, 0, 67, 92
7, 536640, Control_c, 0, 11, 79
7, 536688, Control_c, 0, 11, 80
7, 536736, Control_c, 0, 11, 81
7, 536784, Control_c, 0, 11, 82
7, 536832, Control_c, 0, 11, 83
7, 536880, Control_c, 0, 11, 84
7, 536928, Control_c, 0, 11, 85
7, 536976, Control_c, 0, 11, 86
7, 536999, Note_on_c, 0, 67, 0
7, 537024, Control_c, 0, 11, 87
7, 537072, Control_c, 0, 11, 88
7, 537120, Note_on_c, 0, 69, 92
7, 537479, Note_on_c, 0, 69, 0
7, 537598, Control_c, 0, 11, 29
7, 537600, Note_on_c, 0, 70, 92
7, 538080, Control_c, 0, 11, 29
7, 538119, Control_c, 0, 11, 30
7, 538158, Control_c, 0, 11, 31
7, 538198, Control_c, 0, 11, 32
7, 538237, Control_c, 0, 11, 33
7, 538276, Control_c, 0, 11, 34
7, 538315, Control_c, 0, 11, 35
7, 538354, Control_c, 0, 11, 36
7, 538393, Control_c, 0, 11, 37
7, 538433, Control_c, 0, 11, 38
7, 538472, Control_c, 0, 11, 39
7, 538511, Control_c, 0, 11, 40
7, 538550, Control_c, 0, 11, 41
7, 538589, Control_c, 0, 11, 42
7, 538629, Control_c, 0, 11, 43
7, 538668, Control_c, 0, 11, 44
7, 538707, Control_c, 0, 11, 45
7, 538746, Control_c, 0, 11, 46
7, 538785, Control_c, 0, 11, 47
7, 538824, Control_c, 0, 11, 48
7, 538864, Control_c, 0, 11, 49
7, 538903, Control_c, 0, 11, 50
7, 538942, Control_c, 0, 11, 51
7, 538981, Control_c, 0, 11, 52
7, 539020, Control_c, 0, 11, 53
7, 539024, Note_on_c, 0, 70, 0
7, 539040, Note_on_c, 0, 70, 92
7, 539060, Control_c, 0, 11, 54
7, 539099, Control_c, 0, 11, 55
7, 539138, Control_c, 0, 11, 56
7, 539177, Control_c, 0, 11, 57
7, 539216, Control_c, 0, 11, 58
7, 539256, Control_c, 0, 11, 59
7, 539295, Control_c, 0, 11, 60
7, 539334, Control_c, 0, 11, 61
7, 539373, Control_c, 0, 11, 62
7, 539412, Control_c, 0, 11, 63
7, 539451, Control_c, 0, 11, 64
7, 539491, Control_c, 0, 11, 65
7, 539504, Note_on_c, 0, 70, 0
7, 539520, Note_on_c, 0, 72, 92
7, 539530, Control_c, 0, 11, 66
7, 539569, Control_c, 0, 11, 67
7, 539608, Control_c, 0, 11, 68
7, 539647, Control_c, 0, 11, 69
7, 539687, Control_c, 0, 11, 70
7, 539726, Control_c, 0, 11, 71
7, 539765, Control_c, 0, 11, 72
7, 539804, Control_c, 0, 11, 73
7, 539843, Control_c, 0, 11, 74
7, 539882, Control_c, 0, 11, 75
7, 539922, Control_c, 0, 11, 76
7, 539961, Control_c, 0, 11, 77
7, 540000, Control_c, 0, 11, 78
7, 540039, Control_c, 0, 11, 79
7, 540078, Control_c, 0, 11, 80
7, 540118, Control_c, 0, 11, 81
7, 540157, Control_c, 0, 11, 82
7, 540196, Control_c, 0, 11, 83
7, 540235, Control_c, 0, 11, 84
7, 540274, Control_c, 0, 11, 85
7, 540313, Control_c, 0, 11, 86
7, 540353, Control_c, 0, 11, 87
7, 540392, Control_c, 0, 11, 88
7, 540431, Control_c, 0, 11, 89
7, 540464, Note_on_c, 0, 72, 0
7, 540470, Control_c, 0, 11, 90
7, 540480, Note_on_c, 0, 72, 92
7, 540509, Control_c, 0, 11, 91
7, 540549, Control_c, 0, 11, 92
7, 540588, Control_c, 0, 11, 93
7, 540627, Control_c, 0, 11, 94
7, 540666, Control_c, 0, 11, 95
7, 540705, Control_c, 0, 11, 96
7, 540744, Control_c, 0, 11, 97
7, 540784, Control_c, 0, 11, 98
7, 540823, Control_c, 0, 11, 99
7, 540862, Control_c, 0, 11, 100
7, 540901, Control_c, 0, 11, 101
7, 540940, Control_c, 0, 11, 102
7, 540944, Note_on_c, 0, 72, 0
7, 540960, Note_on_c, 0, 74, 92
7, 540980, Control_c, 0, 11, 103
7, 541019, Control_c, 0, 11, 104
7, 541058, Control_c, 0, 11, 105
7, 541097, Control_c, 0, 11, 106
7, 541136, Control_c, 0, 11, 107
7, 541176, Control_c, 0, 11, 108
7, 541215, Control_c, 0, 11, 109
7, 541254, Control_c, 0, 11, 110
7, 541293, Control_c, 0, 11, 111
7, 541332, Control_c, 0, 11, 112
7, 541371, Control_c, 0, 11, 113
7, 541411, Control_c, 0, 11, 114
7, 541424, Note_on_c, 0, 74, 0
7, 541440, Note_on_c, 0, 74, 92
7, 541450, Control_c, 0, 11, 115
7, 541489, Control_c, 0, 11, 116
7, 541528, Control_c, 0, 11, 117
7, 541567, Control_c, 0, 11, 118
7, 541607, Control_c, 0, 11, 119
7, 541646, Control_c, 0, 11, 120
7, 541685, Control_c, 0, 11, 121
7, 541724, Control_c, 0, 11, 122
7, 541763, Control_c, 0, 11, 123
7, 541802, Control_c, 0, 11, 124
7, 541842, Control_c, 0, 11, 125
7, 541881, Control_c, 0, 11, 127
7, 541904, Note_on_c, 0, 74, 0
7, 541920, Note_on_c, 0, 76, 92
7, 543344, Note_on_c, 0, 76, 0
7, 543360, Note_on_c, 0, 67, 92
7, 543360, Control_c, 0, 11, 49
7, 543840, Control_c, 0, 11, 27
7, 544784, Note_on_c, 0, 67, 0
7, 544800, Note_on_c, 0, 67, 92
7, 545264, Note_on_c, 0, 67, 0
7, 545280, Note_on_c, 0, 76, 92
7, 545280, Control_c, 0, 11, 27
7, 545320, Control_c, 0, 11, 28
7, 545360, Control_c, 0, 11, 29
7, 545400, Control_c, 0, 11, 30
7, 545440, Control_c, 0, 11, 31
7, 545480, Control_c, 0, 11, 33
7, 545520, Control_c, 0, 11, 34
7, 545560, Control_c, 0, 11, 35
7, 545600, Control_c, 0, 11, 36
7, 545640, Control_c, 0, 11, 37
7, 545680, Control_c, 0, 11, 38
7, 545720, Control_c, 0, 11, 39
7, 545760, Control_c, 0, 11, 40
7, 545800, Control_c, 0, 11, 41
7, 545840, Control_c, 0, 11, 43
7, 545880, Control_c, 0, 11, 44
7, 545920, Control_c, 0, 11, 45
7, 545960, Control_c, 0, 11, 46
7, 546000, Control_c, 0, 11, 47
7, 546040, Control_c, 0, 11, 48
7, 546080, Control_c, 0, 11, 49
7, 546120, Control_c, 0, 11, 50
7, 546160, Control_c, 0, 11, 51
7, 546200, Control_c, 0, 11, 53
7, 546224, Note_on_c, 0, 76, 0
7, 546240, Control_c, 0, 11, 54
7, 546240, Note_on_c, 0, 76, 92
7, 546280, Control_c, 0, 11, 55
7, 546320, Control_c, 0, 11, 56
7, 546360, Control_c, 0, 11, 57
7, 546400, Control_c, 0, 11, 58
7, 546440, Control_c, 0, 11, 59
7, 546480, Control_c, 0, 11, 60
7, 546520, Control_c, 0, 11, 61
7, 546560, Control_c, 0, 11, 63
7, 546600, Control_c, 0, 11, 64
7, 546640, Control_c, 0, 11, 65
7, 546680, Control_c, 0, 11, 66
7, 546704, Note_on_c, 0, 76, 0
7, 546720, Control_c, 0, 11, 67
7, 546720, Note_on_c, 0, 77, 92
7, 546760, Control_c, 0, 11, 68
7, 546800, Control_c, 0, 11, 69
7, 546840, Control_c, 0, 11, 70
7, 546880, Control_c, 0, 11, 71
7, 546920, Control_c, 0, 11, 73
7, 546960, Control_c, 0, 11, 74
7, 547000, Control_c, 0, 11, 75
7, 547040, Control_c, 0, 11, 76
7, 547080, Control_c, 0, 11, 77
7, 547120, Control_c, 0, 11, 78
7, 547160, Control_c, 0, 11, 79
7, 547200, Control_c, 0, 11, 80
7, 547240, Control_c, 0, 11, 81
7, 547280, Control_c, 0, 11, 83
7, 547320, Control_c, 0, 11, 84
7, 547360, Control_c, 0, 11, 85
7, 547400, Control_c, 0, 11, 86
7, 547440, Control_c, 0, 11, 87
7, 547480, Control_c, 0, 11, 88
7, 547520, Control_c, 0, 11, 89
7, 547560, Control_c, 0, 11, 90
7, 547600, Control_c, 0, 11, 91
7, 547640, Control_c, 0, 11, 93
7, 547664, Note_on_c, 0, 77, 0
7, 547680, Note_on_c, 0, 77, 92
7, 547680, Control_c, 0, 11, 94
7, 547720, Control_c, 0, 11, 95
7, 547760, Control_c, 0, 11, 96
7, 547800, Control_c, 0, 11, 97
7, 547840, Control_c, 0, 11, 98
7, 547880, Control_c, 0, 11, 99
7, 547920, Control_c, 0, 11, 100
7, 547960, Control_c, 0, 11, 101
7, 548000, Control_c, 0, 11, 103
7, 548040, Control_c, 0, 11, 104
7, 548080, Control_c, 0, 11, 105
7, 548120, Control_c, 0, 11, 107
7, 548144, Note_on_c, 0, 77, 0
7, 548160, Note_on_c, 0, 78, 92
7, 549599, Note_on_c, 0, 78, 0
7, 549840, Control_c, 0, 11, 127
7, 550080, Note_on_c, 0, 91, 92
7, 550080, Note_on_c, 0, 79, 92
7, 550784, Note_on_c, 0, 91, 0
7, 550784, Note_on_c, 0, 79, 0
7, 550800, Note_on_c, 0, 91, 92
7, 550800, Note_on_c, 0, 87, 92
7, 551024, Note_on_c, 0, 91, 0
7, 551024, Note_on_c, 0, 87, 0
7, 551040, Note_on_c, 0, 91, 92
7, 551040, Note_on_c, 0, 87, 92
7, 551984, Note_on_c, 0, 91, 0
7, 551984, Note_on_c, 0, 87, 0
7, 552000, Note_on_c, 0, 91, 92
7, 552000, Note_on_c, 0, 87, 92
7, 552464, Note_on_c, 0, 91, 0
7, 552464, Note_on_c, 0, 87, 0
7, 552480, Note_on_c, 0, 87, 92
7, 552480, Note_on_c, 0, 91, 92
7, 552944, Note_on_c, 0, 87, 0
7, 552944, Note_on_c, 0, 91, 0
7, 552960, Note_on_c, 0, 91, 92
7, 552960, Note_on_c, 0, 87, 92
7, 553904, Note_on_c, 0, 91, 0
7, 553904, Note_on_c, 0, 87, 0
7, 553920, Note_on_c, 0, 91, 92
7, 553920, Note_on_c, 0, 87, 92
7, 554864, Note_on_c, 0, 91, 0
7, 554864, Note_on_c, 0, 87, 0
7, 554880, Note_on_c, 0, 91, 92
7, 554880, Note_on_c, 0, 87, 92
7, 555359, Note_on_c, 0, 91, 0
7, 555359, Note_on_c, 0, 87, 0
7, 557760, Note_on_c, 0, 85, 32
7, 558240, Note_on_c, 0, 88, 32
7, 558719, Note_on_c, 0, 88, 0
7, 558720, Note_on_c, 0, 91, 32
7, 559184, Note_on_c, 0, 85, 0
7, 559200, Note_on_c, 0, 85, 32
7, 560144, Note_on_c, 0, 91, 0
7, 560144, Note_on_c, 0, 85, 0
7, 560160, Note_on_c, 0, 88, 32
7, 560160, Note_on_c, 0, 91, 32
7, 560299, Note_on_c, 0, 88, 0
7, 560299, Note_on_c, 0, 91, 0
7, 560320, Note_on_c, 0, 91, 32
7, 560320, Note_on_c, 0, 88, 32
7, 560459, Note_on_c, 0, 91, 0
7, 560459, Note_on_c, 0, 88, 0
7, 560480, Note_on_c, 0, 91, 32
7, 560480, Note_on_c, 0, 88, 32
7, 560599, Note_on_c, 0, 91, 0
7, 560599, Note_on_c, 0, 88, 0
7, 560640, Note_on_c, 0, 91, 32
7, 560640, Note_on_c, 0, 88, 32
7, 560779, Note_on_c, 0, 91, 0
7, 560779, Note_on_c, 0, 88, 0
7, 560800, Note_on_c, 0, 88, 32
7, 560800, Note_on_c, 0, 91, 32
7, 560939, Note_on_c, 0, 88, 0
7, 560939, Note_on_c, 0, 91, 0
7, 560960, Note_on_c, 0, 91, 32
7, 560960, Note_on_c, 0, 88, 32
7, 561079, Note_on_c, 0, 91, 0
7, 561079, Note_on_c, 0, 88, 0
7, 561120, Note_on_c, 0, 88, 32
7, 561120, Note_on_c, 0, 91, 32
7, 561259, Note_on_c, 0, 88, 0
7, 561259, Note_on_c, 0, 91, 0
7, 561280, Note_on_c, 0, 88, 32
7, 561280, Note_on_c, 0, 91, 32
7, 561419, Note_on_c, 0, 88, 0
7, 561419, Note_on_c, 0, 91, 0
7, 561440, Note_on_c, 0, 88, 32
7, 561440, Note_on_c, 0, 91, 32
7, 561559, Note_on_c, 0, 88, 0
7, 561559, Note_on_c, 0, 91, 0
7, 561600, Note_on_c, 0, 88, 32
7, 561600, Note_on_c, 0, 91, 32
7, 561739, Note_on_c, 0, 88, 0
7, 561739, Note_on_c, 0, 91, 0
7, 561760, Note_on_c, 0, 91, 32
7, 561760, Note_on_c, 0, 88, 32
7, 561899, Note_on_c, 0, 91, 0
7, 561899, Note_on_c, 0, 88, 0
7, 561920, Note_on_c, 0, 91, 32
7, 561920, Note_on_c, 0, 88, 32
7, 562039, Note_on_c, 0, 91, 0
7, 562039, Note_on_c, 0, 88, 0
7, 562080, Note_on_c, 0, 91, 32
7, 562080, Note_on_c, 0, 88, 32
7, 562219, Note_on_c, 0, 91, 0
7, 562219, Note_on_c, 0, 88, 0
7, 562240, Note_on_c, 0, 88, 32
7, 562240, Note_on_c, 0, 91, 32
7, 562379, Note_on_c, 0, 88, 0
7, 562379, Note_on_c, 0, 91, 0
7, 562400, Note_on_c, 0, 91, 32
7, 562400, Note_on_c, 0, 88, 32
7, 562519, Note_on_c, 0, 91, 0
7, 562519, Note_on_c, 0, 88, 0
7, 562560, Note_on_c, 0, 91, 32
7, 562560, Note_on_c, 0, 88, 32
7, 562699, Note_on_c, 0, 91, 0
7, 562699, Note_on_c, 0, 88, 0
7, 562720, Note_on_c, 0, 91, 32
7, 562720, Note_on_c, 0, 88, 32
7, 562859, Note_on_c, 0, 91, 0
7, 562859, Note_on_c, 0, 88, 0
7, 562880, Note_on_c, 0, 91, 32
7, 562880, Note_on_c, 0, 88, 32
7, 562999, Note_on_c, 0, 91, 0
7, 562999, Note_on_c, 0, 88, 0
7, 563040, Note_on_c, 0, 91, 32
7, 563040, Note_on_c, 0, 88, 32
7, 563179, Note_on_c, 0, 91, 0
7, 563179, Note_on_c, 0, 88, 0
7, 563200, Note_on_c, 0, 88, 32
7, 563200, Note_on_c, 0, 91, 32
7, 563339, Note_on_c, 0, 88, 0
7, 563339, Note_on_c, 0, 91, 0
7, 563360, Note_on_c, 0, 91, 32
7, 563360, Note_on_c, 0, 88, 32
7, 563479, Note_on_c, 0, 91, 0
7, 563479, Note_on_c, 0, 88, 0
7, 563520, Note_on_c, 0, 88, 32
7, 563520, Note_on_c, 0, 91, 32
7, 563659, Note_on_c, 0, 88, 0
7, 563659, Note_on_c, 0, 91, 0
7, 563680, Note_on_c, 0, 91, 32
7, 563680, Note_on_c, 0, 88, 32
7, 563819, Note_on_c, 0, 91, 0
7, 563819, Note_on_c, 0, 88, 0
7, 563840, Note_on_c, 0, 88, 32
7, 563840, Note_on_c, 0, 91, 32
7, 563959, Note_on_c, 0, 88, 0
7, 563959, Note_on_c, 0, 91, 0
7, 564000, Note_on_c, 0, 91, 32
7, 564000, Note_on_c, 0, 88, 32
7, 564139, Note_on_c, 0, 91, 0
7, 564139, Note_on_c, 0, 88, 0
7, 564160, Note_on_c, 0, 88, 32
7, 564160, Note_on_c, 0, 91, 32
7, 564299, Note_on_c, 0, 88, 0
7, 564299, Note_on_c, 0, 91, 0
7, 564320, Note_on_c, 0, 88, 32
7, 564320, Note_on_c, 0, 91, 32
7, 564439, Note_on_c, 0, 88, 0
7, 564439, Note_on_c, 0, 91, 0
7, 564480, Note_on_c, 0, 88, 32
7, 564480, Note_on_c, 0, 91, 32
7, 564619, Note_on_c, 0, 88, 0
7, 564619, Note_on_c, 0, 91, 0
7, 564640, Note_on_c, 0, 91, 32
7, 564640, Note_on_c, 0, 88, 32
7, 564779, Note_on_c, 0, 91, 0
7, 564779, Note_on_c, 0, 88, 0
7, 564800, Note_on_c, 0, 88, 32
7, 564800, Note_on_c, 0, 91, 32
7, 564919, Note_on_c, 0, 88, 0
7, 564919, Note_on_c, 0, 91, 0
7, 564960, Note_on_c, 0, 88, 32
7, 564960, Note_on_c, 0, 91, 32
7, 565099, Note_on_c, 0, 88, 0
7, 565099, Note_on_c, 0, 91, 0
7, 565120, Note_on_c, 0, 91, 32
7, 565120, Note_on_c, 0, 88, 32
7, 565259, Note_on_c, 0, 91, 0
7, 565259, Note_on_c, 0, 88, 0
7, 565280, Note_on_c, 0, 91, 32
7, 565280, Note_on_c, 0, 88, 32
7, 565399, Note_on_c, 0, 91, 0
7, 565399, Note_on_c, 0, 88, 0
7, 565440, Note_on_c, 0, 88, 32
7, 565440, Note_on_c, 0, 91, 32
7, 565579, Note_on_c, 0, 88, 0
7, 565579, Note_on_c, 0, 91, 0
7, 565600, Note_on_c, 0, 91, 32
7, 565600, Note_on_c, 0, 88, 32
7, 565739, Note_on_c, 0, 91, 0
7, 565739, Note_on_c, 0, 88, 0
7, 565760, Note_on_c, 0, 88, 32
7, 565760, Note_on_c, 0, 91, 32
7, 565879, Note_on_c, 0, 88, 0
7, 565879, Note_on_c, 0, 91, 0
7, 565920, Note_on_c, 0, 88, 32
7, 565920, Note_on_c, 0, 91, 32
7, 566059, Note_on_c, 0, 88, 0
7, 566059, Note_on_c, 0, 91, 0
7, 566080, Note_on_c, 0, 88, 32
7, 566080, Note_on_c, 0, 91, 32
7, 566219, Note_on_c, 0, 88, 0
7, 566219, Note_on_c, 0, 91, 0
7, 566240, Note_on_c, 0, 91, 32
7, 566240, Note_on_c, 0, 88, 32
7, 566359, Note_on_c, 0, 91, 0
7, 566359, Note_on_c, 0, 88, 0
7, 566400, Note_on_c, 0, 88, 32
7, 566400, Note_on_c, 0, 91, 32
7, 566539, Note_on_c, 0, 88, 0
7, 566539, Note_on_c, 0, 91, 0
7, 566560, Note_on_c, 0, 88, 32
7, 566560, Note_on_c, 0, 91, 32
7, 566679, Note_on_c, 0, 88, 0
7, 566679, Note_on_c, 0, 91, 0
7, 566720, Note_on_c, 0, 91, 32
7, 566720, Note_on_c, 0, 88, 32
7, 566879, Note_on_c, 0, 91, 0
7, 566879, Note_on_c, 0, 88, 0
7, 568320, Note_on_c, 0, 90, 92
7, 568779, Note_on_c, 0, 90, 0
7, 568800, Note_on_c, 0, 90, 92
7, 569019, Note_on_c, 0, 90, 0
7, 569040, Note_on_c, 0, 91, 92
7, 569499, Note_on_c, 0, 91, 0
7, 569520, Note_on_c, 0, 93, 92
7, 569739, Note_on_c, 0, 93, 0
7, 569760, Note_on_c, 0, 93, 92
7, 570219, Note_on_c, 0, 93, 0
7, 570240, Note_on_c, 0, 91, 92
7, 570459, Note_on_c, 0, 91, 0
7, 570480, Note_on_c, 0, 90, 92
7, 570939, Note_on_c, 0, 90, 0
7, 570960, Note_on_c, 0, 88, 92
7, 571179, Note_on_c, 0, 88, 0
7, 571200, Note_on_c, 0, 86, 92
7, 571659, Note_on_c, 0, 86, 0
7, 571680, Note_on_c, 0, 86, 92
7, 571899, Note_on_c, 0, 86, 0
7, 571920, Note_on_c, 0, 88, 92
7, 572379, Note_on_c, 0, 88, 0
7, 572400, Note_on_c, 0, 90, 92
7, 572619, Note_on_c, 0, 90, 0
7, 572640, Note_on_c, 0, 90, 92
7, 573099, Note_on_c, 0, 90, 0
7, 573120, Note_on_c, 0, 88, 92
7, 573339, Note_on_c, 0, 88, 0
7, 573360, Note_on_c, 0, 86, 92
7, 573819, Note_on_c, 0, 86, 0
7, 573840, Note_on_c, 0, 85, 92
7, 574059, Note_on_c, 0, 85, 0
7, 574080, Note_on_c, 0, 83, 92
7, 574539, Note_on_c, 0, 83, 0
7, 574560, Note_on_c, 0, 83, 92
7, 574779, Note_on_c, 0, 83, 0
7, 574800, Note_on_c, 0, 85, 92
7, 575259, Note_on_c, 0, 85, 0
7, 575280, Note_on_c, 0, 86, 92
7, 575499, Note_on_c, 0, 86, 0
7, 575520, Note_on_c, 0, 86, 92
7, 575979, Note_on_c, 0, 86, 0
7, 576000, Note_on_c, 0, 85, 92
7, 576219, Note_on_c, 0, 85, 0
7, 576240, Note_on_c, 0, 83, 92
7, 576699, Note_on_c, 0, 83, 0
7, 576720, Note_on_c, 0, 81, 92
7, 576939, Note_on_c, 0, 81, 0
7, 576960, Note_on_c, 0, 79, 92
7, 577419, Note_on_c, 0, 79, 0
7, 577440, Note_on_c, 0, 78, 92
7, 577659, Note_on_c, 0, 78, 0
7, 577680, Note_on_c, 0, 76, 92
7, 578139, Note_on_c, 0, 76, 0
7, 578160, Note_on_c, 0, 74, 92
7, 578379, Note_on_c, 0, 74, 0
7, 578400, Note_on_c, 0, 81, 92
7, 578859, Note_on_c, 0, 81, 0
7, 578880, Note_on_c, 0, 81, 92
7, 579099, Note_on_c, 0, 81, 0
7, 579120, Note_on_c, 0, 81, 92
7, 579599, Note_on_c, 0, 81, 0
7, 581280, Note_on_c, 0, 88, 80
7, 581739, Note_on_c, 0, 88, 0
7, 581760, Note_on_c, 0, 88, 80
7, 581999, Note_on_c, 0, 88, 0
7, 584160, Note_on_c, 0, 93, 80
7, 584619, Note_on_c, 0, 93, 0
7, 584640, Note_on_c, 0, 93, 80
7, 584879, Note_on_c, 0, 93, 0
7, 586320, Note_on_c, 0, 90, 80
7, 586779, Note_on_c, 0, 90, 0
7, 586800, Note_on_c, 0, 90, 80
7, 587019, Note_on_c, 0, 90, 0
7, 587040, Note_on_c, 0, 90, 80
7, 587499, Note_on_c, 0, 90, 0
7, 587520, Note_on_c, 0, 88, 80
7, 587739, Note_on_c, 0, 88, 0
7, 587760, Note_on_c, 0, 93, 80
7, 588219, Note_on_c, 0, 93, 0
7, 588240, Note_on_c, 0, 91, 80
7, 588459, Note_on_c, 0, 91, 0
7, 588480, Note_on_c, 0, 90, 80
7, 588939, Note_on_c, 0, 90, 0
7, 588960, Note_on_c, 0, 88, 80
7, 589179, Note_on_c, 0, 88, 0
7, 589200, Note_on_c, 0, 86, 80
7, 589659, Note_on_c, 0, 86, 0
7, 589680, Note_on_c, 0, 85, 80
7, 589899, Note_on_c, 0, 85, 0
7, 589920, Note_on_c, 0, 88, 80
7, 590379, Note_on_c, 0, 88, 0
7, 590400, Note_on_c, 0, 86, 80
7, 590619, Note_on_c, 0, 86, 0
7, 590640, Note_on_c, 0, 88, 80
7, 591099, Note_on_c, 0, 88, 0
7, 591120, Note_on_c, 0, 90, 80
7, 593279, Note_on_c, 0, 90, 0
7, 593280, Note_on_c, 0, 88, 80
7, 593519, Note_on_c, 0, 88, 0
7, 593520, Note_on_c, 0, 86, 80
7, 593999, Note_on_c, 0, 86, 0
7, 594000, Note_on_c, 0, 85, 80
7, 594219, Note_on_c, 0, 85, 0
7, 594240, Note_on_c, 0, 86, 80
7, 596159, Note_on_c, 0, 86, 0
7, 596160, Note_on_c, 0, 85, 80
7, 596399, Note_on_c, 0, 85, 0
7, 596400, Note_on_c, 0, 83, 80
7, 596879, Note_on_c, 0, 83, 0
7, 596880, Note_on_c, 0, 81, 80
7, 597099, Note_on_c, 0, 81, 0
7, 597120, Note_on_c, 0, 83, 80
7, 598539, Note_on_c, 0, 83, 0
7, 598560, Note_on_c, 0, 81, 80
7, 599999, Note_on_c, 0, 81, 0
7, 602160, Note_on_c, 0, 93, 92
7, 603579, Note_on_c, 0, 93, 0
7, 603600, Note_on_c, 0, 93, 80
7, 604299, Note_on_c, 0, 93, 0
7, 604320, Note_on_c, 0, 92, 80
7, 605019, Note_on_c, 0, 92, 0
7, 605040, Note_on_c, 0, 88, 80
7, 605739, Note_on_c, 0, 88, 0
7, 605760, Note_on_c, 0, 90, 80
7, 606459, Note_on_c, 0, 90, 0
7, 606480, Note_on_c, 0, 90, 80
7, 607179, Note_on_c, 0, 90, 0
7, 607200, Note_on_c, 0, 88, 80
7, 607899, Note_on_c, 0, 88, 0
7, 607920, Note_on_c, 0, 85, 80
7, 608619, Note_on_c, 0, 85, 0
7, 608640, Note_on_c, 0, 86, 80
7, 609339, Note_on_c, 0, 86, 0
7, 609360, Note_on_c, 0, 86, 80
7, 610059, Note_on_c, 0, 86, 0
7, 610080, Note_on_c, 0, 85, 80
7, 610779, Note_on_c, 0, 85, 0
7, 610800, Note_on_c, 0, 81, 80
7, 611499, Note_on_c, 0, 81, 0
7, 611520, Note_on_c, 0, 91, 80
7, 612219, Note_on_c, 0, 91, 0
7, 612240, Note_on_c, 0, 91, 80
7, 612939, Note_on_c, 0, 91, 0
7, 612960, Note_on_c, 0, 90, 80
7, 613679, Note_on_c, 0, 90, 0
7, 614400, Note_on_c, 0, 90, 80
7, 615099, Note_on_c, 0, 90, 0
7, 615120, Note_on_c, 0, 90, 80
7, 615819, Note_on_c, 0, 90, 0
7, 615840, Note_on_c, 0, 90, 80
7, 616539, Note_on_c, 0, 90, 0
7, 616560, Note_on_c, 0, 83, 80
7, 617259, Note_on_c, 0, 83, 0
7, 617280, Note_on_c, 0, 93, 80
7, 617979, Note_on_c, 0, 93, 0
7, 618000, Note_on_c, 0, 93, 80
7, 618699, Note_on_c, 0, 93, 0
7, 618720, Note_on_c, 0, 92, 80
7, 619419, Note_on_c, 0, 92, 0
7, 619440, Note_on_c, 0, 91, 80
7, 620139, Note_on_c, 0, 91, 0
7, 620160, Note_on_c, 0, 91, 80
7, 620859, Note_on_c, 0, 91, 0
7, 620880, Note_on_c, 0, 91, 80
7, 621579, Note_on_c, 0, 91, 0
7, 621600, Note_on_c, 0, 90, 80
7, 622319, Note_on_c, 0, 90, 0
7, 623040, Note_on_c, 0, 90, 80
7, 623499, Note_on_c, 0, 90, 0
7, 623520, Note_on_c, 0, 90, 80
7, 623739, Note_on_c, 0, 90, 0
7, 623760, Note_on_c, 0, 91, 80
7, 624219, Note_on_c, 0, 91, 0
7, 624240, Note_on_c, 0, 93, 80
7, 624459, Note_on_c, 0, 93, 0
7, 624480, Note_on_c, 0, 93, 80
7, 624939, Note_on_c, 0, 93, 0
7, 624960, Note_on_c, 0, 91, 80
7, 625179, Note_on_c, 0, 91, 0
7, 625200, Note_on_c, 0, 90, 80
7, 625659, Note_on_c, 0, 90, 0
7, 625680, Note_on_c, 0, 88, 80
7, 625899, Note_on_c, 0, 88, 0
7, 625920, Note_on_c, 0, 86, 80
7, 626379, Note_on_c, 0, 86, 0
7, 626400, Note_on_c, 0, 86, 80
7, 626619, Note_on_c, 0, 86, 0
7, 626640, Note_on_c, 0, 88, 80
7, 627099, Note_on_c, 0, 88, 0
7, 627120, Note_on_c, 0, 90, 80
7, 627339, Note_on_c, 0, 90, 0
7, 627360, Note_on_c, 0, 90, 80
7, 627819, Note_on_c, 0, 90, 0
7, 627840, Note_on_c, 0, 88, 80
7, 628059, Note_on_c, 0, 88, 0
7, 628080, Note_on_c, 0, 86, 80
7, 628539, Note_on_c, 0, 86, 0
7, 628560, Note_on_c, 0, 85, 80
7, 628779, Note_on_c, 0, 85, 0
7, 628800, Note_on_c, 0, 83, 80
7, 629259, Note_on_c, 0, 83, 0
7, 629280, Note_on_c, 0, 83, 80
7, 629499, Note_on_c, 0, 83, 0
7, 629520, Note_on_c, 0, 85, 80
7, 629979, Note_on_c, 0, 85, 0
7, 630000, Note_on_c, 0, 86, 80
7, 630219, Note_on_c, 0, 86, 0
7, 630240, Note_on_c, 0, 86, 80
7, 630719, Note_on_c, 0, 86, 0
7, 630720, Note_on_c, 0, 85, 80
7, 630959, Note_on_c, 0, 85, 0
7, 630960, Note_on_c, 0, 83, 80
7, 631439, Note_on_c, 0, 83, 0
7, 631440, Note_on_c, 0, 81, 80
7, 631659, Note_on_c, 0, 81, 0
7, 631680, Note_on_c, 0, 80, 80
7, 632159, Note_on_c, 0, 80, 0
7, 632160, Note_on_c, 0, 78, 80
7, 632399, Note_on_c, 0, 78, 0
7, 632400, Note_on_c, 0, 76, 80
7, 632879, Note_on_c, 0, 76, 0
7, 632880, Note_on_c, 0, 86, 80
7, 633119, Note_on_c, 0, 86, 0
7, 633840, Note_on_c, 0, 81, 80
7, 635259, Note_on_c, 0, 81, 0
7, 635280, Note_on_c, 0, 81, 80
7, 635979, Note_on_c, 0, 81, 0
7, 636000, Note_on_c, 0, 80, 80
7, 636699, Note_on_c, 0, 80, 0
7, 636720, Note_on_c, 0, 76, 80
7, 637439, Note_on_c, 0, 76, 0
7, 639600, Note_on_c, 0, 90, 92
7, 641019, Note_on_c, 0, 90, 0
7, 641040, Note_on_c, 0, 90, 80
7, 641739, Note_on_c, 0, 90, 0
7, 641760, Note_on_c, 0, 89, 80
7, 642459, Note_on_c, 0, 89, 0
7, 642480, Note_on_c, 0, 85, 80
7, 643179, Note_on_c, 0, 85, 0
7, 643200, Note_on_c, 0, 88, 80
7, 643899, Note_on_c, 0, 88, 0
7, 643920, Note_on_c, 0, 88, 80
7, 644619, Note_on_c, 0, 88, 0
7, 644640, Note_on_c, 0, 87, 80
7, 645339, Note_on_c, 0, 87, 0
7, 645360, Note_on_c, 0, 83, 80
7, 646059, Note_on_c, 0, 83, 0
7, 646080, Note_on_c, 0, 90, 80
7, 647259, Note_on_c, 0, 90, 0
7, 647280, Note_on_c, 0, 86, 80
7, 647499, Note_on_c, 0, 86, 0
7, 647520, Note_on_c, 0, 88, 80
7, 647979, Note_on_c, 0, 88, 0
7, 648000, Note_on_c, 0, 85, 80
7, 648219, Note_on_c, 0, 85, 0
7, 648240, Note_on_c, 0, 86, 80
7, 648699, Note_on_c, 0, 86, 0
7, 648720, Note_on_c, 0, 88, 80
7, 648939, Note_on_c, 0, 88, 0
7, 648960, Note_on_c, 0, 82, 80
7, 649659, Note_on_c, 0, 82, 0
7, 649680, Note_on_c, 0, 83, 80
7, 650139, Note_on_c, 0, 83, 0
7, 650160, Note_on_c, 0, 82, 80
7, 650379, Note_on_c, 0, 82, 0
7, 650400, Note_on_c, 0, 83, 80
7, 651099, Note_on_c, 0, 83, 0
7, 651120, Note_on_c, 0, 87, 80
7, 652539, Note_on_c, 0, 87, 0
7, 652560, Note_on_c, 0, 87, 80
7, 653259, Note_on_c, 0, 87, 0
7, 653280, Note_on_c, 0, 88, 80
7, 653979, Note_on_c, 0, 88, 0
7, 654000, Note_on_c, 0, 88, 80
7, 654699, Note_on_c, 0, 88, 0
7, 654720, Note_on_c, 0, 92, 80
7, 655419, Note_on_c, 0, 92, 0
7, 655440, Note_on_c, 0, 92, 80
7, 656139, Note_on_c, 0, 92, 0
7, 656160, Note_on_c, 0, 93, 80
7, 656859, Note_on_c, 0, 93, 0
7, 656880, Note_on_c, 0, 81, 80
7, 657579, Note_on_c, 0, 81, 0
7, 657600, Note_on_c, 0, 93, 80
7, 658299, Note_on_c, 0, 93, 0
7, 658320, Note_on_c, 0, 93, 80
7, 659019, Note_on_c, 0, 93, 0
7, 659040, Note_on_c, 0, 93, 92
7, 664799, Note_on_c, 0, 93, 0
7, 664800, Note_on_c, 0, 93, 92
7, 671259, Note_on_c, 0, 93, 0
7, 671280, Note_on_c, 0, 93, 92
7, 671979, Note_on_c, 0, 93, 0
7, 672000, Note_on_c, 0, 93, 92
7, 672699, Note_on_c, 0, 93, 0
7, 672720, Note_on_c, 0, 93, 92
7, 673419, Note_on_c, 0, 93, 0
7, 673440, Note_on_c, 0, 93, 92
7, 676319, Note_on_c, 0, 93, 0
7, 693840, Note_on_c, 0, 82, 65
7, 694059, Note_on_c, 0, 82, 0
7, 694080, Note_on_c, 0, 82, 66
7, 694299, Note_on_c, 0, 82, 0
7, 694320, Note_on_c, 0, 82, 67
7, 694539, Note_on_c, 0, 82, 0
7, 694560, Note_on_c, 0, 82, 68
7, 694779, Note_on_c, 0, 82, 0
7, 694800, Note_on_c, 0, 82, 68
7, 695039, Note_on_c, 0, 82, 0
7, 695280, Note_on_c, 0, 91, 70
7, 695499, Note_on_c, 0, 91, 0
7, 695520, Note_on_c, 0, 91, 71
7, 695739, Note_on_c, 0, 91, 0
7, 695760, Note_on_c, 0, 91, 72
7, 695979, Note_on_c, 0, 91, 0
7, 696000, Note_on_c, 0, 91, 73
7, 696219, Note_on_c, 0, 91, 0
7, 696240, Note_on_c, 0, 91, 74
7, 696479, Note_on_c, 0, 91, 0
7, 696720, Note_on_c, 0, 92, 75
7, 696939, Note_on_c, 0, 92, 0
7, 696960, Note_on_c, 0, 92, 76
7, 697179, Note_on_c, 0, 92, 0
7, 697200, Note_on_c, 0, 92, 77
7, 697419, Note_on_c, 0, 92, 0
7, 697440, Note_on_c, 0, 92, 78
7, 697659, Note_on_c, 0, 92, 0
7, 697680, Note_on_c, 0, 92, 79
7, 697899, Note_on_c, 0, 92, 0
7, 697920, Note_on_c, 0, 81, 80
7, 697920, Note_on_c, 0, 93, 80
7, 698619, Note_on_c, 0, 81, 0
7, 698619, Note_on_c, 0, 93, 0
7, 698640, Note_on_c, 0, 88, 92
7, 698640, Note_on_c, 0, 85, 92
7, 698720, Control_c, 0, 11, 107
7, 700059, Note_on_c, 0, 88, 0
7, 700059, Note_on_c, 0, 85, 0
7, 700080, Note_on_c, 0, 88, 92
7, 700080, Note_on_c, 0, 85, 92
7, 700799, Note_on_c, 0, 88, 0
7, 700799, Note_on_c, 0, 85, 0
7, 702000, Control_c, 0, 11, 127
7, 702240, Note_on_c, 0, 88, 80
7, 702240, Note_on_c, 0, 83, 80
7, 702939, Note_on_c, 0, 88, 0
7, 702939, Note_on_c, 0, 83, 0
7, 702960, Note_on_c, 0, 83, 80
7, 702960, Note_on_c, 0, 88, 80
7, 703679, Note_on_c, 0, 83, 0
7, 703679, Note_on_c, 0, 88, 0
7, 706320, Control_c, 0, 11, 69
7, 706560, Control_c, 0, 11, 69
7, 706560, Note_on_c, 0, 80, 80
7, 706633, Control_c, 0, 11, 71
7, 706707, Control_c, 0, 11, 72
7, 706780, Control_c, 0, 11, 74
7, 706853, Control_c, 0, 11, 75
7, 706927, Control_c, 0, 11, 77
7, 707000, Control_c, 0, 11, 79
7, 707039, Note_on_c, 0, 80, 0
7, 707040, Note_on_c, 0, 81, 80
7, 707073, Control_c, 0, 11, 80
7, 707147, Control_c, 0, 11, 82
7, 707220, Control_c, 0, 11, 84
7, 707279, Note_on_c, 0, 81, 0
7, 707280, Note_on_c, 0, 83, 80
7, 707293, Control_c, 0, 11, 85
7, 707367, Control_c, 0, 11, 87
7, 707440, Control_c, 0, 11, 88
7, 707513, Control_c, 0, 11, 90
7, 707587, Control_c, 0, 11, 92
7, 707660, Control_c, 0, 11, 93
7, 707733, Control_c, 0, 11, 95
7, 707759, Note_on_c, 0, 83, 0
7, 707760, Note_on_c, 0, 85, 80
7, 707807, Control_c, 0, 11, 96
7, 707880, Control_c, 0, 11, 98
7, 707953, Control_c, 0, 11, 100
7, 707999, Note_on_c, 0, 85, 0
7, 708000, Note_on_c, 0, 86, 80
7, 708027, Control_c, 0, 11, 101
7, 708100, Control_c, 0, 11, 103
7, 708173, Control_c, 0, 11, 104
7, 708247, Control_c, 0, 11, 106
7, 708320, Control_c, 0, 11, 108
7, 708393, Control_c, 0, 11, 109
7, 708467, Control_c, 0, 11, 111
7, 708479, Note_on_c, 0, 86, 0
7, 708480, Note_on_c, 0, 88, 80
7, 708480, Note_on_c, 0, 76, 80
7, 708540, Control_c, 0, 11, 113
7, 708613, Control_c, 0, 11, 114
7, 708687, Control_c, 0, 11, 116
7, 708719, Note_on_c, 0, 88, 0
7, 708719, Note_on_c, 0, 76, 0
7, 708720, Note_on_c, 0, 90, 80
7, 708720, Note_on_c, 0, 78, 80
7, 708760, Control_c, 0, 11, 117
7, 708833, Control_c, 0, 11, 119
7, 708907, Control_c, 0, 11, 121
7, 708980, Control_c, 0, 11, 122
7, 709053, Control_c, 0, 11, 124
7, 709127, Control_c, 0, 11, 127
7, 709199, Note_on_c, 0, 90, 0
7, 709199, Note_on_c, 0, 78, 0
7, 709200, Note_on_c, 0, 92, 80
7, 709200, Note_on_c, 0, 80, 80
7, 709240, Control_c, 0, 11, 122
7, 709280, Control_c, 0, 11, 117
7, 709320, Control_c, 0, 11, 112
7, 709360, Control_c, 0, 11, 107
7, 709400, Control_c, 0, 11, 102
7, 709439, Note_on_c, 0, 92, 0
7, 709439, Note_on_c, 0, 80, 0
7, 709440, Note_on_c, 0, 93, 80
7, 709440, Note_on_c, 0, 81, 80
7, 709440, Control_c, 0, 11, 99
7, 709480, Control_c, 0, 11, 94
7, 709520, Control_c, 0, 11, 89
7, 709560, Control_c, 0, 11, 84
7, 709600, Control_c, 0, 11, 79
7, 709640, Control_c, 0, 11, 74
7, 709679, Note_on_c, 0, 93, 0
7, 709679, Note_on_c, 0, 81, 0
7, 709680, Control_c, 0, 11, 69
7, 712080, Control_c, 0, 11, 89
7, 712320, Note_on_c, 0, 71, 68
7, 712799, Note_on_c, 0, 71, 0
7, 712800, Note_on_c, 0, 73, 68
7, 713039, Note_on_c, 0, 73, 0
7, 713040, Note_on_c, 0, 74, 68
7, 713519, Note_on_c, 0, 74, 0
7, 713520, Note_on_c, 0, 76, 68
7, 713759, Note_on_c, 0, 76, 0
7, 713760, Note_on_c, 0, 78, 68
7, 714239, Note_on_c, 0, 78, 0
7, 714240, Note_on_c, 0, 80, 68
7, 714240, Note_on_c, 0, 71, 68
7, 714479, Note_on_c, 0, 80, 0
7, 714479, Note_on_c, 0, 71, 0
7, 714480, Note_on_c, 0, 81, 68
7, 714480, Note_on_c, 0, 73, 68
7, 714959, Note_on_c, 0, 81, 0
7, 714959, Note_on_c, 0, 73, 0
7, 714960, Note_on_c, 0, 83, 68
7, 714960, Note_on_c, 0, 74, 68
7, 715199, Note_on_c, 0, 83, 0
7, 715199, Note_on_c, 0, 74, 0
7, 715200, Note_on_c, 0, 85, 68
7, 715200, Note_on_c, 0, 76, 68
7, 715679, Note_on_c, 0, 85, 0
7, 715679, Note_on_c, 0, 76, 0
7, 715680, Note_on_c, 0, 83, 68
7, 715680, Note_on_c, 0, 74, 68
7, 715919, Note_on_c, 0, 83, 0
7, 715919, Note_on_c, 0, 74, 0
7, 715920, Note_on_c, 0, 81, 68
7, 715920, Note_on_c, 0, 73, 68
7, 716399, Note_on_c, 0, 81, 0
7, 716399, Note_on_c, 0, 73, 0
7, 716400, Note_on_c, 0, 83, 68
7, 716400, Note_on_c, 0, 74, 68
7, 716639, Note_on_c, 0, 83, 0
7, 716639, Note_on_c, 0, 74, 0
7, 716640, Control_c, 0, 11, 89
7, 716640, Note_on_c, 0, 84, 68
7, 716640, Note_on_c, 0, 72, 68
7, 716693, Control_c, 0, 11, 93
7, 716747, Control_c, 0, 11, 97
7, 716800, Control_c, 0, 11, 102
7, 716853, Control_c, 0, 11, 106
7, 716879, Note_on_c, 0, 84, 0
7, 716879, Note_on_c, 0, 72, 0
7, 716880, Note_on_c, 0, 83, 68
7, 716880, Note_on_c, 0, 71, 68
7, 716907, Control_c, 0, 11, 110
7, 716960, Control_c, 0, 11, 114
7, 717013, Control_c, 0, 11, 119
7, 717067, Control_c, 0, 11, 123
7, 717119, Note_on_c, 0, 83, 0
7, 717119, Note_on_c, 0, 71, 0
7, 717120, Note_on_c, 0, 84, 68
7, 717120, Control_c, 0, 11, 127
7, 717120, Note_on_c, 0, 72, 68
7, 717359, Note_on_c, 0, 84, 0
7, 717359, Note_on_c, 0, 72, 0
7, 717360, Control_c, 0, 11, 127
7, 717360, Note_on_c, 0, 74, 68
7, 717360, Note_on_c, 0, 86, 68
7, 717413, Control_c, 0, 11, 123
7, 717467, Control_c, 0, 11, 119
7, 717520, Control_c, 0, 11, 114
7, 717573, Control_c, 0, 11, 110
7, 717599, Note_on_c, 0, 74, 0
7, 717599, Note_on_c, 0, 86, 0
7, 717600, Note_on_c, 0, 88, 68
7, 717600, Note_on_c, 0, 76, 68
7, 717627, Control_c, 0, 11, 106
7, 717680, Control_c, 0, 11, 102
7, 717733, Control_c, 0, 11, 97
7, 717787, Control_c, 0, 11, 93
7, 717839, Note_on_c, 0, 88, 0
7, 717839, Note_on_c, 0, 76, 0
7, 717840, Control_c, 0, 11, 89
7, 717840, Note_on_c, 0, 78, 68
7, 717840, Note_on_c, 0, 90, 68
7, 718059, Note_on_c, 0, 78, 0
7, 718059, Note_on_c, 0, 90, 0
7, 718080, Note_on_c, 0, 79, 68
7, 718080, Note_on_c, 0, 91, 68
7, 718319, Note_on_c, 0, 79, 0
7, 718319, Note_on_c, 0, 91, 0
7, 718320, Note_on_c, 0, 79, 68
7, 718559, Note_on_c, 0, 79, 0
7, 718560, Note_on_c, 0, 81, 68
7, 718799, Note_on_c, 0, 81, 0
7, 718800, Note_on_c, 0, 83, 68
7, 719279, Note_on_c, 0, 83, 0
7, 719280, Note_on_c, 0, 84, 68
7, 719519, Note_on_c, 0, 84, 0
7, 719520, Note_on_c, 0, 86, 62
7, 719999, Note_on_c, 0, 86, 0
7, 720000, Note_on_c, 0, 76, 62
7, 720000, Note_on_c, 0, 88, 62
7, 720239, Note_on_c, 0, 76, 0
7, 720239, Note_on_c, 0, 88, 0
7, 720240, Note_on_c, 0, 90, 62
7, 720240, Note_on_c, 0, 78, 62
7, 720719, Note_on_c, 0, 90, 0
7, 720719, Note_on_c, 0, 78, 0
7, 720720, Note_on_c, 0, 79, 62
7, 720720, Note_on_c, 0, 91, 62
7, 723119, Note_on_c, 0, 79, 0
7, 723119, Note_on_c, 0, 91, 0
7, 723120, Note_on_c, 0, 91, 56
7, 723120, Note_on_c, 0, 79, 56
7, 723839, Note_on_c, 0, 91, 0
7, 723839, Note_on_c, 0, 79, 0
7, 725760, Control_c, 0, 11, 127
7, 726240, Note_on_c, 0, 91, 32
7, 726339, Note_on_c, 0, 91, 0
7, 726360, Note_on_c, 0, 90, 32
7, 726459, Note_on_c, 0, 90, 0
7, 726480, Note_on_c, 0, 88, 32
7, 726579, Note_on_c, 0, 88, 0
7, 726600, Note_on_c, 0, 86, 32
7, 726699, Note_on_c, 0, 86, 0
7, 726720, Note_on_c, 0, 85, 32
7, 726819, Note_on_c, 0, 85, 0
7, 726840, Note_on_c, 0, 86, 32
7, 726939, Note_on_c, 0, 86, 0
7, 726960, Note_on_c, 0, 88, 32
7, 727059, Note_on_c, 0, 88, 0
7, 727080, Note_on_c, 0, 90, 32
7, 727179, Note_on_c, 0, 90, 0
7, 727200, Note_on_c, 0, 91, 32
7, 727299, Note_on_c, 0, 91, 0
7, 727320, Note_on_c, 0, 93, 32
7, 727419, Note_on_c, 0, 93, 0
7, 727440, Note_on_c, 0, 93, 32
7, 727539, Note_on_c, 0, 93, 0
7, 727560, Note_on_c, 0, 93, 32
7, 727659, Note_on_c, 0, 93, 0
7, 727680, Note_on_c, 0, 86, 32
7, 727919, Note_on_c, 0, 86, 0
7, 730560, Note_on_c, 0, 81, 44
7, 731159, Note_on_c, 0, 81, 0
7, 731160, Note_on_c, 0, 83, 44
7, 731279, Note_on_c, 0, 83, 0
7, 731280, Note_on_c, 0, 85, 44
7, 731399, Note_on_c, 0, 85, 0
7, 731400, Note_on_c, 0, 81, 44
7, 731519, Note_on_c, 0, 81, 0
7, 731520, Note_on_c, 0, 86, 44
7, 731759, Note_on_c, 0, 86, 0
7, 733440, Note_on_c, 0, 86, 32
7, 733539, Note_on_c, 0, 86, 0
7, 733560, Note_on_c, 0, 88, 32
7, 733659, Note_on_c, 0, 88, 0
7, 733680, Note_on_c, 0, 90, 32
7, 733779, Note_on_c, 0, 90, 0
7, 733800, Note_on_c, 0, 90, 32
7, 733899, Note_on_c, 0, 90, 0
7, 733920, Note_on_c, 0, 90, 32
7, 734019, Note_on_c, 0, 90, 0
7, 734040, Note_on_c, 0, 88, 32
7, 734139, Note_on_c, 0, 88, 0
7, 734160, Note_on_c, 0, 86, 32
7, 734259, Note_on_c, 0, 86, 0
7, 734280, Note_on_c, 0, 85, 32
7, 734379, Note_on_c, 0, 85, 0
7, 734400, Note_on_c, 0, 83, 32
7, 734499, Note_on_c, 0, 83, 0
7, 734520, Note_on_c, 0, 85, 32
7, 734619, Note_on_c, 0, 85, 0
7, 734640, Note_on_c, 0, 86, 32
7, 734739, Note_on_c, 0, 86, 0
7, 734760, Note_on_c, 0, 86, 32
7, 734859, Note_on_c, 0, 86, 0
7, 734880, Note_on_c, 0, 86, 32
7, 734979, Note_on_c, 0, 86, 0
7, 735000, Note_on_c, 0, 85, 32
7, 735099, Note_on_c, 0, 85, 0
7, 735120, Note_on_c, 0, 83, 32
7, 735219, Note_on_c, 0, 83, 0
7, 735240, Note_on_c, 0, 81, 32
7, 735339, Note_on_c, 0, 81, 0
7, 735360, Note_on_c, 0, 80, 32
7, 735459, Note_on_c, 0, 80, 0
7, 735480, Note_on_c, 0, 81, 32
7, 735579, Note_on_c, 0, 81, 0
7, 735600, Note_on_c, 0, 83, 32
7, 735699, Note_on_c, 0, 83, 0
7, 735720, Note_on_c, 0, 83, 32
7, 735819, Note_on_c, 0, 83, 0
7, 735840, Note_on_c, 0, 83, 32
7, 735939, Note_on_c, 0, 83, 0
7, 735960, Note_on_c, 0, 81, 32
7, 736059, Note_on_c, 0, 81, 0
7, 736080, Note_on_c, 0, 80, 32
7, 736179, Note_on_c, 0, 80, 0
7, 736200, Note_on_c, 0, 78, 32
7, 736299, Note_on_c, 0, 78, 0
7, 736320, Note_on_c, 0, 80, 32
7, 736419, Note_on_c, 0, 80, 0
7, 736440, Note_on_c, 0, 81, 32
7, 736539, Note_on_c, 0, 81, 0
7, 736560, Note_on_c, 0, 83, 32
7, 736659, Note_on_c, 0, 83, 0
7, 736680, Note_on_c, 0, 85, 32
7, 736779, Note_on_c, 0, 85, 0
7, 736800, Note_on_c, 0, 86, 32
7, 736899, Note_on_c, 0, 86, 0
7, 736920, Note_on_c, 0, 88, 32
7, 737019, Note_on_c, 0, 88, 0
7, 737040, Note_on_c, 0, 90, 32
7, 737139, Note_on_c, 0, 90, 0
7, 737160, Note_on_c, 0, 92, 32
7, 737259, Note_on_c, 0, 92, 0
7, 737280, Note_on_c, 0, 93, 32
7, 737519, Note_on_c, 0, 93, 0
7, 742080, Note_on_c, 0, 81, 32
7, 742679, Note_on_c, 0, 81, 0
7, 742680, Note_on_c, 0, 83, 32
7, 742799, Note_on_c, 0, 83, 0
7, 742800, Note_on_c, 0, 85, 32
7, 742919, Note_on_c, 0, 85, 0
7, 742920, Note_on_c, 0, 81, 32
7, 743019, Note_on_c, 0, 81, 0
7, 743040, Note_on_c, 0, 88, 32
7, 743279, Note_on_c, 0, 88, 0
7, 743520, Note_on_c, 0, 86, 32
7, 743699, Note_on_c, 0, 86, 0
7, 743760, Note_on_c, 0, 86, 32
7, 743939, Note_on_c, 0, 86, 0
7, 744000, Note_on_c, 0, 91, 32
7, 744239, Note_on_c, 0, 91, 0
7, 744480, Note_on_c, 0, 90, 32
7, 744659, Note_on_c, 0, 90, 0
7, 744720, Note_on_c, 0, 90, 32
7, 744899, Note_on_c, 0, 90, 0
7, 745200, Note_on_c, 0, 88, 32
7, 745439, Note_on_c, 0, 88, 0
7, 745440, Note_on_c, 0, 86, 32
7, 745679, Note_on_c, 0, 86, 0
7, 745920, Control_c, 0, 11, 49
7, 746160, Note_on_c, 0, 91, 80
7, 746399, Note_on_c, 0, 91, 0
7, 746400, Note_on_c, 0, 81, 80
7, 746639, Note_on_c, 0, 81, 0
7, 746640, Note_on_c, 0, 90, 80
7, 746879, Note_on_c, 0, 90, 0
7, 746880, Control_c, 0, 11, 49
7, 747052, Control_c, 0, 11, 50
7, 747120, Note_on_c, 0, 85, 80
7, 747225, Control_c, 0, 11, 51
7, 747359, Note_on_c, 0, 85, 0
7, 747360, Note_on_c, 0, 86, 80
7, 747397, Control_c, 0, 11, 52
7, 747569, Control_c, 0, 11, 53
7, 747599, Note_on_c, 0, 86, 0
7, 747742, Control_c, 0, 11, 54
7, 747914, Control_c, 0, 11, 55
7, 748080, Note_on_c, 0, 85, 80
7, 748086, Control_c, 0, 11, 56
7, 748258, Control_c, 0, 11, 57
7, 748319, Note_on_c, 0, 85, 0
7, 748320, Note_on_c, 0, 86, 80
7, 748431, Control_c, 0, 11, 58
7, 748559, Note_on_c, 0, 86, 0
7, 748603, Control_c, 0, 11, 59
7, 748775, Control_c, 0, 11, 60
7, 748948, Control_c, 0, 11, 61
7, 749040, Note_on_c, 0, 85, 80
7, 749120, Control_c, 0, 11, 62
7, 749279, Note_on_c, 0, 85, 0
7, 749280, Note_on_c, 0, 86, 80
7, 749292, Control_c, 0, 11, 63
7, 749465, Control_c, 0, 11, 64
7, 749519, Note_on_c, 0, 86, 0
7, 749637, Control_c, 0, 11, 65
7, 749809, Control_c, 0, 11, 66
7, 749982, Control_c, 0, 11, 67
7, 750000, Note_on_c, 0, 85, 80
7, 750154, Control_c, 0, 11, 68
7, 750239, Note_on_c, 0, 85, 0
7, 750240, Note_on_c, 0, 86, 80
7, 750326, Control_c, 0, 11, 69
7, 750479, Note_on_c, 0, 86, 0
7, 750498, Control_c, 0, 11, 70
7, 750671, Control_c, 0, 11, 71
7, 750843, Control_c, 0, 11, 72
7, 750960, Note_on_c, 0, 88, 80
7, 751015, Control_c, 0, 11, 73
7, 751188, Control_c, 0, 11, 74
7, 751199, Note_on_c, 0, 88, 0
7, 751200, Note_on_c, 0, 86, 80
7, 751360, Control_c, 0, 11, 75
7, 751439, Note_on_c, 0, 86, 0
7, 751532, Control_c, 0, 11, 76
7, 751705, Control_c, 0, 11, 77
7, 751877, Control_c, 0, 11, 78
7, 752049, Control_c, 0, 11, 79
7, 752222, Control_c, 0, 11, 80
7, 752394, Control_c, 0, 11, 81
7, 752400, Note_on_c, 0, 86, 80
7, 752566, Control_c, 0, 11, 82
7, 752639, Note_on_c, 0, 86, 0
7, 752640, Note_on_c, 0, 88, 80
7, 752738, Control_c, 0, 11, 83
7, 752859, Note_on_c, 0, 88, 0
7, 752880, Note_on_c, 0, 90, 80
7, 752911, Control_c, 0, 11, 84
7, 752999, Note_on_c, 0, 90, 0
7, 753000, Note_on_c, 0, 88, 80
7, 753083, Control_c, 0, 11, 85
7, 753099, Note_on_c, 0, 88, 0
7, 753120, Note_on_c, 0, 86, 80
7, 753255, Control_c, 0, 11, 86
7, 753299, Note_on_c, 0, 86, 0
7, 753360, Note_on_c, 0, 88, 80
7, 753428, Control_c, 0, 11, 87
7, 753479, Note_on_c, 0, 88, 0
7, 753480, Note_on_c, 0, 86, 80
7, 753579, Note_on_c, 0, 86, 0
7, 753600, Control_c, 0, 11, 88
7, 753600, Note_on_c, 0, 91, 80
7, 753772, Control_c, 0, 11, 89
7, 753779, Note_on_c, 0, 91, 0
7, 753840, Note_on_c, 0, 93, 80
7, 753945, Control_c, 0, 11, 90
7, 753959, Note_on_c, 0, 93, 0
7, 753960, Note_on_c, 0, 91, 80
7, 754059, Note_on_c, 0, 91, 0
7, 754080, Note_on_c, 0, 90, 80
7, 754117, Control_c, 0, 11, 91
7, 754259, Note_on_c, 0, 90, 0
7, 754289, Control_c, 0, 11, 92
7, 754320, Note_on_c, 0, 88, 80
7, 754439, Note_on_c, 0, 88, 0
7, 754440, Note_on_c, 0, 86, 80
7, 754462, Control_c, 0, 11, 93
7, 754539, Note_on_c, 0, 86, 0
7, 754560, Note_on_c, 0, 81, 80
7, 754634, Control_c, 0, 11, 94
7, 754779, Note_on_c, 0, 81, 0
7, 754800, Note_on_c, 0, 85, 80
7, 754806, Control_c, 0, 11, 95
7, 754978, Control_c, 0, 11, 96
7, 755039, Note_on_c, 0, 85, 0
7, 755040, Note_on_c, 0, 86, 80
7, 755151, Control_c, 0, 11, 97
7, 755279, Note_on_c, 0, 86, 0
7, 755323, Control_c, 0, 11, 98
7, 755495, Control_c, 0, 11, 99
7, 755668, Control_c, 0, 11, 100
7, 755760, Note_on_c, 0, 85, 80
7, 755840, Control_c, 0, 11, 101
7, 755999, Note_on_c, 0, 85, 0
7, 756000, Note_on_c, 0, 86, 80
7, 756012, Control_c, 0, 11, 102
7, 756185, Control_c, 0, 11, 103
7, 756239, Note_on_c, 0, 86, 0
7, 756357, Control_c, 0, 11, 104
7, 756529, Control_c, 0, 11, 105
7, 756702, Control_c, 0, 11, 106
7, 756720, Note_on_c, 0, 91, 80
7, 756809, Note_on_c, 0, 91, 0
7, 756840, Note_on_c, 0, 81, 80
7, 756874, Control_c, 0, 11, 107
7, 756929, Note_on_c, 0, 81, 0
7, 756960, Note_on_c, 0, 90, 80
7, 757046, Control_c, 0, 11, 108
7, 757199, Note_on_c, 0, 90, 0
7, 757218, Control_c, 0, 11, 109
7, 757391, Control_c, 0, 11, 110
7, 757563, Control_c, 0, 11, 111
7, 757680, Note_on_c, 0, 88, 80
7, 757735, Control_c, 0, 11, 112
7, 757769, Note_on_c, 0, 88, 0
7, 757800, Note_on_c, 0, 81, 80
7, 757889, Note_on_c, 0, 81, 0
7, 757908, Control_c, 0, 11, 113
7, 757920, Note_on_c, 0, 86, 80
7, 758080, Control_c, 0, 11, 114
7, 758159, Note_on_c, 0, 86, 0
7, 758252, Control_c, 0, 11, 115
7, 758425, Control_c, 0, 11, 116
7, 758597, Control_c, 0, 11, 117
7, 758640, Note_on_c, 0, 91, 80
7, 758729, Note_on_c, 0, 91, 0
7, 758760, Note_on_c, 0, 81, 80
7, 758769, Control_c, 0, 11, 118
7, 758849, Note_on_c, 0, 81, 0
7, 758880, Note_on_c, 0, 90, 80
7, 758942, Control_c, 0, 11, 119
7, 759114, Control_c, 0, 11, 120
7, 759119, Note_on_c, 0, 90, 0
7, 759286, Control_c, 0, 11, 121
7, 759458, Control_c, 0, 11, 122
7, 759600, Note_on_c, 0, 88, 80
7, 759631, Control_c, 0, 11, 123
7, 759689, Note_on_c, 0, 88, 0
7, 759720, Note_on_c, 0, 81, 80
7, 759803, Control_c, 0, 11, 124
7, 759809, Note_on_c, 0, 81, 0
7, 759840, Note_on_c, 0, 86, 80
7, 759975, Control_c, 0, 11, 125
7, 760079, Note_on_c, 0, 86, 0
7, 760148, Control_c, 0, 11, 127
7, 760560, Note_on_c, 0, 88, 80
7, 760560, Note_on_c, 0, 91, 80
7, 760779, Note_on_c, 0, 88, 0
7, 760779, Note_on_c, 0, 91, 0
7, 760800, Note_on_c, 0, 71, 92
7, 760979, Note_on_c, 0, 71, 0
7, 761040, Note_on_c, 0, 69, 80
7, 761219, Note_on_c, 0, 69, 0
7, 761280, Note_on_c, 0, 74, 80
7, 761459, Note_on_c, 0, 74, 0
7, 761520, Note_on_c, 0, 73, 80
7, 761699, Note_on_c, 0, 73, 0
7, 761760, Note_on_c, 0, 78, 80
7, 761939, Note_on_c, 0, 78, 0
7, 762000, Note_on_c, 0, 76, 80
7, 762179, Note_on_c, 0, 76, 0
7, 762240, Note_on_c, 0, 81, 80
7, 762419, Note_on_c, 0, 81, 0
7, 762480, Note_on_c, 0, 79, 80
7, 762659, Note_on_c, 0, 79, 0
7, 762720, Note_on_c, 0, 79, 80
7, 762899, Note_on_c, 0, 79, 0
7, 762960, Note_on_c, 0, 79, 92
7, 763139, Note_on_c, 0, 79, 0
7, 763200, Note_on_c, 0, 86, 80
7, 763379, Note_on_c, 0, 86, 0
7, 763440, Note_on_c, 0, 85, 80
7, 763619, Note_on_c, 0, 85, 0
7, 763678, Control_c, 0, 11, 69
7, 763680, Control_c, 0, 11, 69
7, 763680, Note_on_c, 0, 90, 80
7, 763720, Control_c, 0, 11, 74
7, 763760, Control_c, 0, 11, 79
7, 763800, Control_c, 0, 11, 84
7, 763840, Control_c, 0, 11, 89
7, 763859, Note_on_c, 0, 90, 0
7, 763880, Control_c, 0, 11, 94
7, 763920, Note_on_c, 0, 88, 80
7, 763920, Control_c, 0, 11, 99
7, 763960, Control_c, 0, 11, 102
7, 764000, Control_c, 0, 11, 107
7, 764040, Control_c, 0, 11, 112
7, 764080, Control_c, 0, 11, 117
7, 764099, Note_on_c, 0, 88, 0
7, 764120, Control_c, 0, 11, 122
7, 764160, Note_on_c, 0, 93, 80
7, 764160, Control_c, 0, 11, 127
7, 764160, Note_on_c, 0, 81, 80
7, 764339, Note_on_c, 0, 93, 0
7, 764339, Note_on_c, 0, 81, 0
7, 764400, Note_on_c, 0, 79, 92
7, 764400, Note_on_c, 0, 91, 92
7, 764579, Note_on_c, 0, 79, 0
7, 764579, Note_on_c, 0, 91, 0
7, 764640, Note_on_c, 0, 91, 92
7, 764640, Note_on_c, 0, 88, 92
7, 765339, Note_on_c, 0, 91, 0
7, 765339, Note_on_c, 0, 88, 0
7, 765360, Note_on_c, 0, 90, 80
7, 765360, Note_on_c, 0, 86, 80
7, 765939, Note_on_c, 0, 90, 0
7, 765939, Note_on_c, 0, 86, 0
7, 765960, Note_on_c, 0, 86, 80
7, 765960, Note_on_c, 0, 90, 80
7, 766059, Note_on_c, 0, 86, 0
7, 766059, Note_on_c, 0, 90, 0
7, 766080, Note_on_c, 0, 90, 80
7, 766080, Note_on_c, 0, 78, 80
7, 766299, Note_on_c, 0, 90, 0
7, 766299, Note_on_c, 0, 78, 0
7, 766320, Note_on_c, 0, 74, 80
7, 766320, Note_on_c, 0, 86, 80
7, 766539, Note_on_c, 0, 74, 0
7, 766539, Note_on_c, 0, 86, 0
7, 766560, Note_on_c, 0, 86, 80
7, 766560, Note_on_c, 0, 74, 80
7, 766899, Note_on_c, 0, 86, 0
7, 766899, Note_on_c, 0, 74, 0
7, 766920, Note_on_c, 0, 74, 80
7, 766920, Note_on_c, 0, 86, 80
7, 767019, Note_on_c, 0, 74, 0
7, 767019, Note_on_c, 0, 86, 0
7, 767040, Note_on_c, 0, 74, 80
7, 767040, Note_on_c, 0, 86, 80
7, 767259, Note_on_c, 0, 74, 0
7, 767259, Note_on_c, 0, 86, 0
7, 767280, Note_on_c, 0, 83, 80
7, 767280, Note_on_c, 0, 71, 80
7, 767499, Note_on_c, 0, 83, 0
7, 767499, Note_on_c, 0, 71, 0
7, 767520, Note_on_c, 0, 71, 80
7, 767520, Note_on_c, 0, 83, 80
7, 767859, Note_on_c, 0, 71, 0
7, 767859, Note_on_c, 0, 83, 0
7, 767880, Note_on_c, 0, 83, 80
7, 767880, Note_on_c, 0, 71, 80
7, 767979, Note_on_c, 0, 83, 0
7, 767979, Note_on_c, 0, 71, 0
7, 768000, Note_on_c, 0, 71, 80
7, 768000, Note_on_c, 0, 83, 80
7, 768219, Note_on_c, 0, 71, 0
7, 768219, Note_on_c, 0, 83, 0
7, 768240, Note_on_c, 0, 67, 80
7, 768240, Note_on_c, 0, 79, 80
7, 768459, Note_on_c, 0, 67, 0
7, 768459, Note_on_c, 0, 79, 0
7, 768480, Note_on_c, 0, 79, 80
7, 768480, Note_on_c, 0, 91, 80
7, 768819, Note_on_c, 0, 79, 0
7, 768819, Note_on_c, 0, 91, 0
7, 768840, Note_on_c, 0, 91, 80
7, 768840, Note_on_c, 0, 79, 80
7, 768939, Note_on_c, 0, 91, 0
7, 768939, Note_on_c, 0, 79, 0
7, 768960, Note_on_c, 0, 91, 80
7, 768960, Control_c, 0, 11, 127
7, 768960, Note_on_c, 0, 88, 80
7, 769000, Control_c, 0, 11, 117
7, 769040, Control_c, 0, 11, 107
7, 769080, Control_c, 0, 11, 99
7, 769120, Control_c, 0, 11, 89
7, 769139, Note_on_c, 0, 91, 0
7, 769160, Control_c, 0, 11, 79
7, 769169, Note_on_c, 0, 88, 0
7, 769200, Control_c, 0, 11, 69
7, 769200, Note_on_c, 0, 88, 80
7, 769200, Note_on_c, 0, 91, 80
7, 769260, Control_c, 0, 11, 72
7, 769320, Control_c, 0, 11, 75
7, 769380, Control_c, 0, 11, 79
7, 769409, Note_on_c, 0, 88, 0
7, 769409, Note_on_c, 0, 91, 0
7, 769440, Control_c, 0, 11, 82
7, 769440, Note_on_c, 0, 88, 80
7, 769440, Note_on_c, 0, 91, 80
7, 769500, Control_c, 0, 11, 85
7, 769560, Control_c, 0, 11, 89
7, 769620, Control_c, 0, 11, 92
7, 769649, Note_on_c, 0, 88, 0
7, 769649, Note_on_c, 0, 91, 0
7, 769680, Note_on_c, 0, 91, 80
7, 769680, Control_c, 0, 11, 95
7, 769680, Note_on_c, 0, 88, 80
7, 769740, Control_c, 0, 11, 99
7, 769800, Control_c, 0, 11, 102
7, 769859, Note_on_c, 0, 91, 0
7, 769859, Note_on_c, 0, 88, 0
7, 769860, Control_c, 0, 11, 105
7, 769918, Control_c, 0, 11, 127
7, 769920, Note_on_c, 0, 88, 68
7, 769920, Note_on_c, 0, 91, 68
7, 770039, Note_on_c, 0, 88, 0
7, 770039, Note_on_c, 0, 91, 0
7, 770040, Note_on_c, 0, 86, 56
7, 770040, Note_on_c, 0, 90, 56
7, 770144, Note_on_c, 0, 86, 0
7, 770144, Note_on_c, 0, 90, 0
7, 770160, Note_on_c, 0, 90, 44
7, 770160, Note_on_c, 0, 86, 44
7, 770384, Note_on_c, 0, 90, 0
7, 770384, Note_on_c, 0, 86, 0
7, 770400, Note_on_c, 0, 86, 44
7, 770400, Note_on_c, 0, 90, 44
7, 770624, Note_on_c, 0, 86, 0
7, 770624, Note_on_c, 0, 90, 0
7, 770640, Note_on_c, 0, 86, 44
7, 770640, Note_on_c, 0, 90, 44
7, 770864, Note_on_c, 0, 86, 0
7, 770864, Note_on_c, 0, 90, 0
7, 770880, Note_on_c, 0, 88, 44
7, 770880, Note_on_c, 0, 83, 44
7, 771104, Note_on_c, 0, 88, 0
7, 771104, Note_on_c, 0, 83, 0
7, 771120, Note_on_c, 0, 88, 44
7, 771120, Note_on_c, 0, 83, 44
7, 771359, Note_on_c, 0, 88, 0
7, 771359, Note_on_c, 0, 83, 0
7, 771600, Note_on_c, 0, 88, 44
7, 771600, Note_on_c, 0, 83, 44
7, 771839, Note_on_c, 0, 88, 0
7, 771839, Note_on_c, 0, 83, 0
7, 772080, Note_on_c, 0, 86, 44
7, 772080, Note_on_c, 0, 78, 44
7, 772319, Note_on_c, 0, 86, 0
7, 772319, Note_on_c, 0, 78, 0
7, 772560, Note_on_c, 0, 85, 44
7, 772560, Note_on_c, 0, 88, 44
7, 772784, Note_on_c, 0, 85, 0
7, 772784, Note_on_c, 0, 88, 0
7, 772800, Note_on_c, 0, 85, 44
7, 772800, Note_on_c, 0, 88, 44
7, 772979, Note_on_c, 0, 85, 0
7, 772979, Note_on_c, 0, 88, 0
7, 773040, Note_on_c, 0, 85, 44
7, 773040, Note_on_c, 0, 88, 44
7, 773219, Note_on_c, 0, 85, 0
7, 773219, Note_on_c, 0, 88, 0
7, 773280, Note_on_c, 0, 86, 44
7, 773519, Note_on_c, 0, 86, 0
7, 773520, Note_on_c, 0, 85, 44
7, 773520, Note_on_c, 0, 88, 44
7, 773639, Note_on_c, 0, 85, 0
7, 773639, Note_on_c, 0, 88, 0
7, 773640, Note_on_c, 0, 90, 44
7, 773640, Note_on_c, 0, 86, 44
7, 773739, Note_on_c, 0, 90, 0
7, 773739, Note_on_c, 0, 86, 0
7, 773760, Note_on_c, 0, 91, 44
7, 773760, Note_on_c, 0, 85, 44
7, 773939, Note_on_c, 0, 91, 0
7, 773939, Note_on_c, 0, 85, 0
7, 774000, Note_on_c, 0, 88, 44
7, 774000, Note_on_c, 0, 91, 44
7, 774179, Note_on_c, 0, 88, 0
7, 774179, Note_on_c, 0, 91, 0
7, 774240, Note_on_c, 0, 90, 44
7, 774240, Note_on_c, 0, 81, 44
7, 774419, Note_on_c, 0, 90, 0
7, 774419, Note_on_c, 0, 81, 0
7, 774480, Note_on_c, 0, 90, 44
7, 774480, Note_on_c, 0, 86, 44
7, 774659, Note_on_c, 0, 90, 0
7, 774659, Note_on_c, 0, 86, 0
7, 774720, Note_on_c, 0, 90, 44
7, 774720, Note_on_c, 0, 81, 44
7, 774959, Note_on_c, 0, 90, 0
7, 774959, Note_on_c, 0, 81, 0
7, 774960, Note_on_c, 0, 79, 44
7, 774960, Note_on_c, 0, 88, 44
7, 775179, Note_on_c, 0, 79, 0
7, 775179, Note_on_c, 0, 88, 0
7, 775200, Note_on_c, 0, 78, 44
7, 775200, Note_on_c, 0, 86, 44
7, 775439, Note_on_c, 0, 78, 0
7, 775439, Note_on_c, 0, 86, 0
7, 775440, Note_on_c, 0, 93, 44
7, 775440, Note_on_c, 0, 86, 44
7, 775659, Note_on_c, 0, 93, 0
7, 775659, Note_on_c, 0, 86, 0
7, 775680, Note_on_c, 0, 93, 44
7, 775680, Note_on_c, 0, 90, 44
7, 775919, Note_on_c, 0, 93, 0
7, 775919, Note_on_c, 0, 90, 0
7, 775920, Note_on_c, 0, 88, 44
7, 775920, Note_on_c, 0, 91, 44
7, 776139, Note_on_c, 0, 88, 0
7, 776139, Note_on_c, 0, 91, 0
7, 776160, Note_on_c, 0, 88, 44
7, 776160, Note_on_c, 0, 91, 44
7, 776399, Note_on_c, 0, 88, 0
7, 776399, Note_on_c, 0, 91, 0
7, 776400, Note_on_c, 0, 90, 44
7, 776400, Note_on_c, 0, 86, 44
7, 776619, Note_on_c, 0, 90, 0
7, 776619, Note_on_c, 0, 86, 0
7, 776640, Note_on_c, 0, 81, 44
7, 776640, Note_on_c, 0, 69, 44
7, 776879, Note_on_c, 0, 81, 0
7, 776879, Note_on_c, 0, 69, 0
7, 776880, Note_on_c, 0, 73, 46
7, 776880, Note_on_c, 0, 85, 46
7, 777099, Note_on_c, 0, 73, 0
7, 777099, Note_on_c, 0, 85, 0
7, 777120, Note_on_c, 0, 86, 48
7, 777120, Note_on_c, 0, 74, 48
7, 777359, Note_on_c, 0, 86, 0
7, 777359, Note_on_c, 0, 74, 0
7, 777360, Note_on_c, 0, 78, 50
7, 777360, Note_on_c, 0, 90, 50
7, 777579, Note_on_c, 0, 78, 0
7, 777579, Note_on_c, 0, 90, 0
7, 777600, Note_on_c, 0, 93, 53
7, 777600, Note_on_c, 0, 81, 53
7, 777839, Note_on_c, 0, 93, 0
7, 777839, Note_on_c, 0, 81, 0
7, 777840, Note_on_c, 0, 73, 55
7, 777840, Note_on_c, 0, 85, 55
7, 778059, Note_on_c, 0, 73, 0
7, 778059, Note_on_c, 0, 85, 0
7, 778080, Note_on_c, 0, 74, 57
7, 778080, Note_on_c, 0, 86, 57
7, 778319, Note_on_c, 0, 74, 0
7, 778319, Note_on_c, 0, 86, 0
7, 778320, Note_on_c, 0, 90, 59
7, 778320, Note_on_c, 0, 78, 59
7, 778539, Note_on_c, 0, 90, 0
7, 778539, Note_on_c, 0, 78, 0
7, 778560, Note_on_c, 0, 81, 62
7, 778560, Note_on_c, 0, 90, 62
7, 778799, Note_on_c, 0, 81, 0
7, 778799, Note_on_c, 0, 90, 0
7, 778800, Note_on_c, 0, 79, 64
7, 778800, Note_on_c, 0, 88, 64
7, 779019, Note_on_c, 0, 79, 0
7, 779019, Note_on_c, 0, 88, 0
7, 779040, Note_on_c, 0, 78, 66
7, 779040, Note_on_c, 0, 86, 66
7, 779279, Note_on_c, 0, 78, 0
7, 779279, Note_on_c, 0, 86, 0
7, 779280, Note_on_c, 0, 93, 68
7, 779280, Note_on_c, 0, 81, 68
7, 779499, Note_on_c, 0, 93, 0
7, 779499, Note_on_c, 0, 81, 0
7, 779520, Note_on_c, 0, 90, 71
7, 779520, Note_on_c, 0, 93, 71
7, 779759, Note_on_c, 0, 90, 0
7, 779759, Note_on_c, 0, 93, 0
7, 779760, Note_on_c, 0, 91, 73
7, 779760, Note_on_c, 0, 88, 73
7, 779979, Note_on_c, 0, 91, 0
7, 779979, Note_on_c, 0, 88, 0
7, 780000, Note_on_c, 0, 91, 75
7, 780000, Note_on_c, 0, 88, 75
7, 780239, Note_on_c, 0, 91, 0
7, 780239, Note_on_c, 0, 88, 0
7, 780240, Note_on_c, 0, 90, 77
7, 780240, Note_on_c, 0, 86, 77
7, 780459, Note_on_c, 0, 90, 0
7, 780459, Note_on_c, 0, 86, 0
7, 780480, Note_on_c, 0, 85, 80
7, 780480, Note_on_c, 0, 88, 80
7, 780699, Note_on_c, 0, 85, 0
7, 780699, Note_on_c, 0, 88, 0
7, 780720, Note_on_c, 0, 69, 80
7, 780899, Note_on_c, 0, 69, 0
7, 780960, Note_on_c, 0, 71, 80
7, 781139, Note_on_c, 0, 71, 0
7, 781200, Note_on_c, 0, 69, 80
7, 781379, Note_on_c, 0, 69, 0
7, 781440, Note_on_c, 0, 74, 80
7, 781659, Note_on_c, 0, 74, 0
7, 781680, Note_on_c, 0, 73, 80
7, 781899, Note_on_c, 0, 73, 0
7, 781920, Note_on_c, 0, 78, 80
7, 782139, Note_on_c, 0, 78, 0
7, 782160, Note_on_c, 0, 76, 80
7, 782379, Note_on_c, 0, 76, 0
7, 782400, Note_on_c, 0, 81, 80
7, 782619, Note_on_c, 0, 81, 0
7, 782640, Note_on_c, 0, 79, 80
7, 782859, Note_on_c, 0, 79, 0
7, 782880, Note_on_c, 0, 79, 80
7, 783099, Note_on_c, 0, 79, 0
7, 783120, Note_on_c, 0, 79, 92
7, 783339, Note_on_c, 0, 79, 0
7, 783360, Note_on_c, 0, 86, 80
7, 783579, Note_on_c, 0, 86, 0
7, 783600, Note_on_c, 0, 85, 80
7, 783819, Note_on_c, 0, 85, 0
7, 783840, Note_on_c, 0, 90, 80
7, 784059, Note_on_c, 0, 90, 0
7, 784080, Note_on_c, 0, 88, 80
7, 784299, Note_on_c, 0, 88, 0
7, 784320, Note_on_c, 0, 93, 80
7, 784539, Note_on_c, 0, 93, 0
7, 784560, Note_on_c, 0, 91, 80
7, 784779, Note_on_c, 0, 91, 0
7, 784798, Control_c, 0, 11, 69
7, 784800, Control_c, 0, 11, 69
7, 784800, Note_on_c, 0, 91, 80
7, 784800, Note_on_c, 0, 88, 80
7, 784840, Control_c, 0, 11, 74
7, 784880, Control_c, 0, 11, 79
7, 784920, Control_c, 0, 11, 84
7, 784960, Control_c, 0, 11, 89
7, 785000, Control_c, 0, 11, 94
7, 785040, Control_c, 0, 11, 99
7, 785080, Control_c, 0, 11, 102
7, 785120, Control_c, 0, 11, 107
7, 785160, Control_c, 0, 11, 112
7, 785200, Control_c, 0, 11, 117
7, 785240, Control_c, 0, 11, 122
7, 785280, Control_c, 0, 11, 127
7, 785499, Note_on_c, 0, 91, 0
7, 785499, Note_on_c, 0, 88, 0
7, 785520, Note_on_c, 0, 90, 92
7, 785520, Note_on_c, 0, 78, 92
7, 786099, Note_on_c, 0, 90, 0
7, 786099, Note_on_c, 0, 78, 0
7, 786120, Note_on_c, 0, 90, 92
7, 786120, Note_on_c, 0, 78, 92
7, 786219, Note_on_c, 0, 90, 0
7, 786219, Note_on_c, 0, 78, 0
7, 786240, Note_on_c, 0, 78, 92
7, 786240, Note_on_c, 0, 90, 92
7, 786459, Note_on_c, 0, 78, 0
7, 786459, Note_on_c, 0, 90, 0
7, 786480, Note_on_c, 0, 86, 92
7, 786480, Note_on_c, 0, 74, 92
7, 786699, Note_on_c, 0, 86, 0
7, 786699, Note_on_c, 0, 74, 0
7, 786720, Note_on_c, 0, 86, 92
7, 786720, Note_on_c, 0, 74, 92
7, 787059, Note_on_c, 0, 86, 0
7, 787059, Note_on_c, 0, 74, 0
7, 787080, Note_on_c, 0, 74, 92
7, 787080, Note_on_c, 0, 86, 92
7, 787179, Note_on_c, 0, 74, 0
7, 787179, Note_on_c, 0, 86, 0
7, 787200, Note_on_c, 0, 86, 80
7, 787200, Note_on_c, 0, 74, 80
7, 787419, Note_on_c, 0, 86, 0
7, 787419, Note_on_c, 0, 74, 0
7, 787440, Note_on_c, 0, 71, 80
7, 787440, Note_on_c, 0, 83, 80
7, 787659, Note_on_c, 0, 71, 0
7, 787659, Note_on_c, 0, 83, 0
7, 787680, Note_on_c, 0, 71, 80
7, 787680, Note_on_c, 0, 83, 80
7, 788019, Note_on_c, 0, 71, 0
7, 788019, Note_on_c, 0, 83, 0
7, 788040, Note_on_c, 0, 71, 80
7, 788040, Note_on_c, 0, 83, 80
7, 788139, Note_on_c, 0, 71, 0
7, 788139, Note_on_c, 0, 83, 0
7, 788160, Note_on_c, 0, 83, 80
7, 788160, Note_on_c, 0, 71, 80
7, 788379, Note_on_c, 0, 83, 0
7, 788379, Note_on_c, 0, 71, 0
7, 788400, Note_on_c, 0, 67, 80
7, 788400, Note_on_c, 0, 79, 80
7, 788619, Note_on_c, 0, 67, 0
7, 788619, Note_on_c, 0, 79, 0
7, 788640, Note_on_c, 0, 91, 80
7, 788640, Note_on_c, 0, 83, 80
7, 788879, Note_on_c, 0, 91, 0
7, 788879, Note_on_c, 0, 83, 0
7, 789600, Note_on_c, 0, 92, 80
7, 789600, Note_on_c, 0, 83, 80
7, 789839, Note_on_c, 0, 92, 0
7, 789839, Note_on_c, 0, 83, 0
7, 806640, Note_on_c, 0, 83, 65
7, 806859, Note_on_c, 0, 83, 0
7, 806880, Note_on_c, 0, 81, 69
7, 807099, Note_on_c, 0, 81, 0
7, 807120, Note_on_c, 0, 83, 73
7, 807339, Note_on_c, 0, 83, 0
7, 807360, Note_on_c, 0, 81, 77
7, 807579, Note_on_c, 0, 81, 0
7, 807600, Note_on_c, 0, 83, 80
7, 807819, Note_on_c, 0, 83, 0
7, 807840, Note_on_c, 0, 81, 84
7, 808059, Note_on_c, 0, 81, 0
7, 808080, Note_on_c, 0, 83, 88
7, 808199, Note_on_c, 0, 83, 0
7, 808200, Note_on_c, 0, 85, 90
7, 808299, Note_on_c, 0, 85, 0
7, 808320, Note_on_c, 0, 86, 92
7, 808529, Note_on_c, 0, 86, 0
7, 808560, Note_on_c, 0, 86, 92
7, 808769, Note_on_c, 0, 86, 0
7, 808800, Note_on_c, 0, 85, 92
7, 809009, Note_on_c, 0, 85, 0
7, 809040, Note_on_c, 0, 83, 92
7, 809249, Note_on_c, 0, 83, 0
7, 809280, Note_on_c, 0, 88, 92
7, 809489, Note_on_c, 0, 88, 0
7, 809520, Note_on_c, 0, 88, 92
7, 809729, Note_on_c, 0, 88, 0
7, 809760, Note_on_c, 0, 87, 92
7, 809969, Note_on_c, 0, 87, 0
7, 810000, Note_on_c, 0, 83, 92
7, 810209, Note_on_c, 0, 83, 0
7, 810240, Note_on_c, 0, 88, 80
7, 810449, Note_on_c, 0, 88, 0
7, 810480, Note_on_c, 0, 90, 80
7, 810689, Note_on_c, 0, 90, 0
7, 810720, Note_on_c, 0, 91, 80
7, 810929, Note_on_c, 0, 91, 0
7, 810960, Note_on_c, 0, 92, 80
7, 811169, Note_on_c, 0, 92, 0
7, 811200, Note_on_c, 0, 93, 80
7, 811409, Note_on_c, 0, 93, 0
7, 811440, Note_on_c, 0, 92, 80
7, 811649, Note_on_c, 0, 92, 0
7, 811680, Note_on_c, 0, 93, 80
7, 811889, Note_on_c, 0, 93, 0
7, 811920, Note_on_c, 0, 91, 80
7, 812129, Note_on_c, 0, 91, 0
7, 812160, Note_on_c, 0, 90, 80
7, 812339, Note_on_c, 0, 90, 0
7, 812400, Note_on_c, 0, 90, 80
7, 812519, Note_on_c, 0, 90, 0
7, 812520, Note_on_c, 0, 91, 80
7, 812619, Note_on_c, 0, 91, 0
7, 812640, Note_on_c, 0, 93, 80
7, 812819, Note_on_c, 0, 93, 0
7, 813120, Note_on_c, 0, 91, 80
7, 813299, Note_on_c, 0, 91, 0
7, 813360, Note_on_c, 0, 91, 80
7, 813479, Note_on_c, 0, 91, 0
7, 813480, Note_on_c, 0, 93, 80
7, 813579, Note_on_c, 0, 93, 0
7, 813600, Note_on_c, 0, 83, 80
7, 813779, Note_on_c, 0, 83, 0
7, 813840, Note_on_c, 0, 83, 80
7, 813959, Note_on_c, 0, 83, 0
7, 813960, Note_on_c, 0, 93, 80
7, 814059, Note_on_c, 0, 93, 0
7, 814080, Note_on_c, 0, 93, 80
7, 814289, Note_on_c, 0, 93, 0
7, 814320, Note_on_c, 0, 91, 80
7, 814439, Note_on_c, 0, 91, 0
7, 814440, Note_on_c, 0, 90, 80
7, 814539, Note_on_c, 0, 90, 0
7, 814560, Note_on_c, 0, 88, 80
7, 814769, Note_on_c, 0, 88, 0
7, 814800, Note_on_c, 0, 88, 80
7, 814919, Note_on_c, 0, 88, 0
7, 814920, Note_on_c, 0, 86, 80
7, 815019, Note_on_c, 0, 86, 0
7, 815040, Note_on_c, 0, 85, 80
7, 815249, Note_on_c, 0, 85, 0
7, 815280, Note_on_c, 0, 85, 80
7, 815399, Note_on_c, 0, 85, 0
7, 815400, Note_on_c, 0, 83, 80
7, 815499, Note_on_c, 0, 83, 0
7, 815520, Note_on_c, 0, 81, 80
7, 815729, Note_on_c, 0, 81, 0
7, 815760, Note_on_c, 0, 87, 80
7, 815969, Note_on_c, 0, 87, 0
7, 816000, Note_on_c, 0, 88, 80
7, 816209, Note_on_c, 0, 88, 0
7, 816240, Note_on_c, 0, 90, 80
7, 816449, Note_on_c, 0, 90, 0
7, 816480, Note_on_c, 0, 91, 80
7, 816689, Note_on_c, 0, 91, 0
7, 816720, Note_on_c, 0, 92, 80
7, 816929, Note_on_c, 0, 92, 0
7, 816960, Note_on_c, 0, 93, 80
7, 817169, Note_on_c, 0, 93, 0
7, 817200, Note_on_c, 0, 92, 80
7, 817409, Note_on_c, 0, 92, 0
7, 817440, Note_on_c, 0, 93, 80
7, 817539, Note_on_c, 0, 93, 0
7, 817560, Note_on_c, 0, 83, 80
7, 817659, Note_on_c, 0, 83, 0
7, 817680, Note_on_c, 0, 85, 80
7, 817779, Note_on_c, 0, 85, 0
7, 817800, Note_on_c, 0, 86, 80
7, 817899, Note_on_c, 0, 86, 0
7, 817920, Note_on_c, 0, 88, 92
7, 818279, Note_on_c, 0, 88, 0
7, 818280, Note_on_c, 0, 90, 80
7, 818399, Note_on_c, 0, 90, 0
7, 818400, Note_on_c, 0, 88, 80
7, 818639, Note_on_c, 0, 88, 0
7, 818640, Note_on_c, 0, 86, 80
7, 818849, Note_on_c, 0, 86, 0
7, 818880, Note_on_c, 0, 88, 80
7, 819239, Note_on_c, 0, 88, 0
7, 819240, Note_on_c, 0, 90, 80
7, 819359, Note_on_c, 0, 90, 0
7, 819360, Note_on_c, 0, 88, 80
7, 819599, Note_on_c, 0, 88, 0
7, 819600, Note_on_c, 0, 86, 80
7, 819809, Note_on_c, 0, 86, 0
7, 819840, Note_on_c, 0, 88, 80
7, 820199, Note_on_c, 0, 88, 0
7, 820200, Note_on_c, 0, 90, 80
7, 820319, Note_on_c, 0, 90, 0
7, 820320, Note_on_c, 0, 88, 80
7, 820559, Note_on_c, 0, 88, 0
7, 820560, Note_on_c, 0, 86, 80
7, 820769, Note_on_c, 0, 86, 0
7, 820800, Note_on_c, 0, 88, 80
7, 821159, Note_on_c, 0, 88, 0
7, 821160, Note_on_c, 0, 90, 80
7, 821279, Note_on_c, 0, 90, 0
7, 821280, Note_on_c, 0, 88, 80
7, 821519, Note_on_c, 0, 88, 0
7, 821520, Note_on_c, 0, 86, 80
7, 821729, Note_on_c, 0, 86, 0
7, 821760, Note_on_c, 0, 88, 80
7, 822119, Note_on_c, 0, 88, 0
7, 822120, Note_on_c, 0, 90, 80
7, 822239, Note_on_c, 0, 90, 0
7, 822240, Note_on_c, 0, 88, 80
7, 822479, Note_on_c, 0, 88, 0
7, 822480, Note_on_c, 0, 86, 80
7, 822689, Note_on_c, 0, 86, 0
7, 822720, Note_on_c, 0, 88, 80
7, 823079, Note_on_c, 0, 88, 0
7, 823080, Note_on_c, 0, 90, 80
7, 823199, Note_on_c, 0, 90, 0
7, 823200, Note_on_c, 0, 88, 80
7, 823439, Note_on_c, 0, 88, 0
7, 823440, Note_on_c, 0, 86, 80
7, 823649, Note_on_c, 0, 86, 0
7, 823680, Note_on_c, 0, 88, 80
7, 824039, Note_on_c, 0, 88, 0
7, 824040, Note_on_c, 0, 90, 80
7, 824159, Note_on_c, 0, 90, 0
7, 824160, Note_on_c, 0, 88, 80
7, 824399, Note_on_c, 0, 88, 0
7, 824400, Note_on_c, 0, 86, 80
7, 824609, Note_on_c, 0, 86, 0
7, 824640, Note_on_c, 0, 88, 80
7, 824999, Note_on_c, 0, 88, 0
7, 825000, Note_on_c, 0, 90, 80
7, 825119, Note_on_c, 0, 90, 0
7, 825120, Note_on_c, 0, 88, 80
7, 825359, Note_on_c, 0, 88, 0
7, 825360, Note_on_c, 0, 86, 80
7, 825569, Note_on_c, 0, 86, 0
7, 825600, Note_on_c, 0, 93, 80
7, 825839, Note_on_c, 0, 93, 0
7, 825840, Note_on_c, 0, 91, 80
7, 826049, Note_on_c, 0, 91, 0
7, 826080, Note_on_c, 0, 91, 80
7, 826319, Note_on_c, 0, 91, 0
7, 826320, Note_on_c, 0, 90, 80
7, 826529, Note_on_c, 0, 90, 0
7, 826560, Note_on_c, 0, 90, 80
7, 826799, Note_on_c, 0, 90, 0
7, 826800, Note_on_c, 0, 88, 80
7, 827009, Note_on_c, 0, 88, 0
7, 827040, Note_on_c, 0, 91, 80
7, 827279, Note_on_c, 0, 91, 0
7, 827280, Note_on_c, 0, 88, 80
7, 827489, Note_on_c, 0, 88, 0
7, 827520, Note_on_c, 0, 88, 80
7, 827759, Note_on_c, 0, 88, 0
7, 827760, Note_on_c, 0, 86, 80
7, 827969, Note_on_c, 0, 86, 0
7, 828000, Note_on_c, 0, 86, 80
7, 828239, Note_on_c, 0, 86, 0
7, 828240, Note_on_c, 0, 85, 80
7, 828449, Note_on_c, 0, 85, 0
7, 828480, Note_on_c, 0, 83, 80
7, 828959, Note_on_c, 0, 83, 0
7, 828960, Note_on_c, 0, 93, 80
7, 829679, Note_on_c, 0, 93, 0
7, 829680, Note_on_c, 0, 91, 80
7, 829889, Note_on_c, 0, 91, 0
7, 829920, Note_on_c, 0, 91, 80
7, 830159, Note_on_c, 0, 91, 0
7, 830160, Note_on_c, 0, 90, 80
7, 830369, Note_on_c, 0, 90, 0
7, 830400, Note_on_c, 0, 90, 80
7, 830639, Note_on_c, 0, 90, 0
7, 830640, Note_on_c, 0, 88, 80
7, 830849, Note_on_c, 0, 88, 0
7, 830880, Note_on_c, 0, 91, 80
7, 831119, Note_on_c, 0, 91, 0
7, 831120, Note_on_c, 0, 88, 80
7, 831329, Note_on_c, 0, 88, 0
7, 831360, Note_on_c, 0, 88, 80
7, 831599, Note_on_c, 0, 88, 0
7, 831600, Note_on_c, 0, 86, 80
7, 831809, Note_on_c, 0, 86, 0
7, 831840, Note_on_c, 0, 86, 80
7, 832079, Note_on_c, 0, 86, 0
7, 832080, Note_on_c, 0, 85, 80
7, 832289, Note_on_c, 0, 85, 0
7, 832320, Note_on_c, 0, 86, 80
7, 832529, Note_on_c, 0, 86, 0
7, 832560, Note_on_c, 0, 90, 80
7, 832679, Note_on_c, 0, 90, 0
7, 832680, Note_on_c, 0, 91, 80
7, 832779, Note_on_c, 0, 91, 0
7, 832800, Note_on_c, 0, 93, 80
7, 832979, Note_on_c, 0, 93, 0
7, 833280, Note_on_c, 0, 90, 80
7, 833489, Note_on_c, 0, 90, 0
7, 833520, Note_on_c, 0, 90, 80
7, 833729, Note_on_c, 0, 90, 0
7, 833760, Note_on_c, 0, 88, 80
7, 833969, Note_on_c, 0, 88, 0
7, 834000, Note_on_c, 0, 85, 80
7, 834209, Note_on_c, 0, 85, 0
7, 834240, Note_on_c, 0, 91, 80
7, 834449, Note_on_c, 0, 91, 0
7, 834480, Note_on_c, 0, 79, 80
7, 834599, Note_on_c, 0, 79, 0
7, 834600, Note_on_c, 0, 81, 80
7, 834699, Note_on_c, 0, 81, 0
7, 834720, Note_on_c, 0, 83, 80
7, 834899, Note_on_c, 0, 83, 0
7, 835200, Note_on_c, 0, 91, 80
7, 835200, Note_on_c, 0, 79, 80
7, 835409, Note_on_c, 0, 91, 0
7, 835409, Note_on_c, 0, 79, 0
7, 835440, Note_on_c, 0, 91, 80
7, 835440, Note_on_c, 0, 79, 80
7, 835649, Note_on_c, 0, 91, 0
7, 835649, Note_on_c, 0, 79, 0
7, 835680, Note_on_c, 0, 78, 80
7, 835680, Note_on_c, 0, 90, 80
7, 835889, Note_on_c, 0, 78, 0
7, 835889, Note_on_c, 0, 90, 0
7, 835920, Note_on_c, 0, 78, 80
7, 835920, Note_on_c, 0, 90, 80
7, 836039, Note_on_c, 0, 78, 0
7, 836039, Note_on_c, 0, 90, 0
7, 836040, Note_on_c, 0, 91, 80
7, 836040, Note_on_c, 0, 79, 80
7, 836159, Note_on_c, 0, 91, 0
7, 836159, Note_on_c, 0, 79, 0
7, 836160, Note_on_c, 0, 93, 92
7, 836160, Note_on_c, 0, 81, 92
7, 836339, Note_on_c, 0, 93, 0
7, 836339, Note_on_c, 0, 81, 0
7, 836400, Note_on_c, 0, 90, 92
7, 836400, Note_on_c, 0, 78, 92
7, 836519, Note_on_c, 0, 90, 0
7, 836519, Note_on_c, 0, 78, 0
7, 836520, Note_on_c, 0, 91, 92
7, 836520, Note_on_c, 0, 79, 92
7, 836639, Note_on_c, 0, 91, 0
7, 836639, Note_on_c, 0, 79, 0
7, 836640, Note_on_c, 0, 93, 92
7, 836640, Note_on_c, 0, 81, 92
7, 836819, Note_on_c, 0, 93, 0
7, 836819, Note_on_c, 0, 81, 0
7, 836880, Note_on_c, 0, 78, 92
7, 836880, Note_on_c, 0, 90, 92
7, 836999, Note_on_c, 0, 78, 0
7, 836999, Note_on_c, 0, 90, 0
7, 837000, Note_on_c, 0, 91, 92
7, 837000, Note_on_c, 0, 79, 92
7, 837119, Note_on_c, 0, 91, 0
7, 837119, Note_on_c, 0, 79, 0
7, 837120, Note_on_c, 0, 81, 92
7, 837120, Note_on_c, 0, 93, 92
7, 837299, Note_on_c, 0, 81, 0
7, 837299, Note_on_c, 0, 93, 0
7, 837360, Note_on_c, 0, 90, 92
7, 837360, Note_on_c, 0, 78, 92
7, 837479, Note_on_c, 0, 90, 0
7, 837479, Note_on_c, 0, 78, 0
7, 837480, Note_on_c, 0, 91, 92
7, 837480, Note_on_c, 0, 79, 92
7, 837599, Note_on_c, 0, 91, 0
7, 837599, Note_on_c, 0, 79, 0
7, 837600, Note_on_c, 0, 81, 92
7, 837600, Note_on_c, 0, 93, 92
7, 837779, Note_on_c, 0, 81, 0
7, 837779, Note_on_c, 0, 93, 0
7, 837840, Note_on_c, 0, 78, 92
7, 837840, Note_on_c, 0, 90, 92
7, 837959, Note_on_c, 0, 78, 0
7, 837959, Note_on_c, 0, 90, 0
7, 837960, Note_on_c, 0, 79, 92
7, 837960, Note_on_c, 0, 91, 92
7, 838079, Note_on_c, 0, 79, 0
7, 838079, Note_on_c, 0, 91, 0
7, 838080, Note_on_c, 0, 81, 92
7, 838080, Note_on_c, 0, 93, 92
7, 838259, Note_on_c, 0, 81, 0
7, 838259, Note_on_c, 0, 93, 0
7, 838320, Note_on_c, 0, 78, 92
7, 838320, Note_on_c, 0, 90, 92
7, 838439, Note_on_c, 0, 78, 0
7, 838439, Note_on_c, 0, 90, 0
7, 838440, Note_on_c, 0, 79, 92
7, 838440, Note_on_c, 0, 91, 92
7, 838559, Note_on_c, 0, 79, 0
7, 838559, Note_on_c, 0, 91, 0
7, 838560, Note_on_c, 0, 93, 92
7, 838560, Note_on_c, 0, 81, 92
7, 838739, Note_on_c, 0, 93, 0
7, 838739, Note_on_c, 0, 81, 0
7, 838800, Note_on_c, 0, 83, 92
7, 838919, Note_on_c, 0, 83, 0
7, 838920, Note_on_c, 0, 93, 92
7, 838920, Note_on_c, 0, 81, 92
7, 839039, Note_on_c, 0, 93, 0
7, 839039, Note_on_c, 0, 81, 0
7, 839040, Note_on_c, 0, 79, 92
7, 839040, Note_on_c, 0, 91, 92
7, 839219, Note_on_c, 0, 79, 0
7, 839219, Note_on_c, 0, 91, 0
7, 839280, Note_on_c, 0, 88, 92
7, 839280, Note_on_c, 0, 76, 92
7, 839399, Note_on_c, 0, 88, 0
7, 839399, Note_on_c, 0, 76, 0
7, 839400, Note_on_c, 0, 90, 92
7, 839400, Note_on_c, 0, 78, 92
7, 839519, Note_on_c, 0, 90, 0
7, 839519, Note_on_c, 0, 78, 0
7, 839520, Note_on_c, 0, 91, 92
7, 839520, Note_on_c, 0, 79, 92
7, 839699, Note_on_c, 0, 91, 0
7, 839699, Note_on_c, 0, 79, 0
7, 839760, Note_on_c, 0, 76, 92
7, 839760, Note_on_c, 0, 88, 92
7, 839879, Note_on_c, 0, 76, 0
7, 839879, Note_on_c, 0, 88, 0
7, 839880, Note_on_c, 0, 78, 92
7, 839880, Note_on_c, 0, 90, 92
7, 839999, Note_on_c, 0, 78, 0
7, 839999, Note_on_c, 0, 90, 0
7, 840000, Note_on_c, 0, 91, 92
7, 840000, Note_on_c, 0, 79, 92
7, 840179, Note_on_c, 0, 91, 0
7, 840179, Note_on_c, 0, 79, 0
7, 840240, Note_on_c, 0, 76, 92
7, 840240, Note_on_c, 0, 88, 92
7, 840359, Note_on_c, 0, 76, 0
7, 840359, Note_on_c, 0, 88, 0
7, 840360, Note_on_c, 0, 90, 92
7, 840360, Note_on_c, 0, 78, 92
7, 840479, Note_on_c, 0, 90, 0
7, 840479, Note_on_c, 0, 78, 0
7, 840480, Note_on_c, 0, 91, 92
7, 840480, Note_on_c, 0, 79, 92
7, 840659, Note_on_c, 0, 91, 0
7, 840659, Note_on_c, 0, 79, 0
7, 840720, Note_on_c, 0, 81, 92
7, 840720, Note_on_c, 0, 93, 92
7, 840839, Note_on_c, 0, 81, 0
7, 840839, Note_on_c, 0, 93, 0
7, 840840, Note_on_c, 0, 79, 92
7, 840840, Note_on_c, 0, 91, 92
7, 840959, Note_on_c, 0, 79, 0
7, 840959, Note_on_c, 0, 91, 0
7, 840960, Note_on_c, 0, 89, 92
7, 840960, Note_on_c, 0, 77, 92
7, 841139, Note_on_c, 0, 89, 0
7, 841139, Note_on_c, 0, 77, 0
7, 841200, Note_on_c, 0, 86, 92
7, 841200, Note_on_c, 0, 74, 92
7, 841319, Note_on_c, 0, 86, 0
7, 841319, Note_on_c, 0, 74, 0
7, 841320, Note_on_c, 0, 88, 92
7, 841320, Note_on_c, 0, 76, 92
7, 841439, Note_on_c, 0, 88, 0
7, 841439, Note_on_c, 0, 76, 0
7, 841440, Note_on_c, 0, 89, 92
7, 841440, Note_on_c, 0, 77, 92
7, 841619, Note_on_c, 0, 89, 0
7, 841619, Note_on_c, 0, 77, 0
7, 841680, Note_on_c, 0, 91, 92
7, 841680, Note_on_c, 0, 79, 92
7, 841799, Note_on_c, 0, 91, 0
7, 841799, Note_on_c, 0, 79, 0
7, 841800, Note_on_c, 0, 89, 92
7, 841800, Note_on_c, 0, 77, 92
7, 841919, Note_on_c, 0, 89, 0
7, 841919, Note_on_c, 0, 77, 0
7, 841920, Note_on_c, 0, 88, 92
7, 841920, Note_on_c, 0, 76, 92
7, 842099, Note_on_c, 0, 88, 0
7, 842099, Note_on_c, 0, 76, 0
7, 842160, Note_on_c, 0, 88, 92
7, 842279, Note_on_c, 0, 88, 0
7, 842280, Note_on_c, 0, 85, 92
7, 842399, Note_on_c, 0, 85, 0
7, 842400, Note_on_c, 0, 81, 92
7, 842579, Note_on_c, 0, 81, 0
7, 842640, Note_on_c, 0, 92, 92
7, 842759, Note_on_c, 0, 92, 0
7, 842760, Note_on_c, 0, 93, 92
7, 842859, Note_on_c, 0, 93, 0
7, 842880, Note_on_c, 0, 93, 92
7, 842880, Note_on_c, 0, 90, 92
7, 843329, Note_on_c, 0, 93, 0
7, 843329, Note_on_c, 0, 90, 0
7, 843360, Note_on_c, 0, 90, 100
7, 843360, Note_on_c, 0, 93, 100
7, 843440, Control_c, 0, 11, 107
7, 844289, Note_on_c, 0, 90, 0
7, 844289, Note_on_c, 0, 93, 0
7, 844318, Control_c, 0, 11, 127
7, 844320, Note_on_c, 0, 90, 92
7, 844320, Note_on_c, 0, 93, 92
7, 844679, Note_on_c, 0, 90, 0
7, 844679, Note_on_c, 0, 93, 0
7, 844800, Note_on_c, 0, 90, 80
7, 844800, Note_on_c, 0, 93, 80
7, 845159, Note_on_c, 0, 90, 0
7, 845159, Note_on_c, 0, 93, 0
7, 845280, Note_on_c, 0, 93, 80
7, 845280, Note_on_c, 0, 90, 80
7, 845639, Note_on_c, 0, 93, 0
7, 845639, Note_on_c, 0, 90, 0
7, 845760, Note_on_c, 0, 90, 80
7, 845760, Note_on_c, 0, 93, 80
7, 846119, Note_on_c, 0, 90, 0
7, 846119, Note_on_c, 0, 93, 0
7, 846240, Note_on_c, 0, 93, 80
7, 846240, Note_on_c, 0, 90, 80
7, 846599, Note_on_c, 0, 93, 0
7, 846599, Note_on_c, 0, 90, 0
7, 846720, Note_on_c, 0, 91, 92
7, 846720, Note_on_c, 0, 88, 92
7, 847079, Note_on_c, 0, 91, 0
7, 847079, Note_on_c, 0, 88, 0
7, 847200, Note_on_c, 0, 91, 80
7, 847200, Note_on_c, 0, 88, 80
7, 847559, Note_on_c, 0, 91, 0
7, 847559, Note_on_c, 0, 88, 0
7, 847680, Note_on_c, 0, 91, 80
7, 847680, Note_on_c, 0, 88, 80
7, 848039, Note_on_c, 0, 91, 0
7, 848039, Note_on_c, 0, 88, 0
7, 848160, Note_on_c, 0, 91, 80
7, 848160, Note_on_c, 0, 88, 80
7, 848519, Note_on_c, 0, 91, 0
7, 848519, Note_on_c, 0, 88, 0
7, 848640, Note_on_c, 0, 81, 92
7, 848640, Note_on_c, 0, 89, 92
7, 848999, Note_on_c, 0, 81, 0
7, 848999, Note_on_c, 0, 89, 0
7, 849120, Note_on_c, 0, 89, 92
7, 849120, Note_on_c, 0, 86, 92
7, 849479, Note_on_c, 0, 89, 0
7, 849479, Note_on_c, 0, 86, 0
7, 849600, Note_on_c, 0, 85, 92
7, 849600, Note_on_c, 0, 88, 92
7, 849959, Note_on_c, 0, 85, 0
7, 849959, Note_on_c, 0, 88, 0
7, 850080, Note_on_c, 0, 88, 92
7, 850080, Note_on_c, 0, 81, 92
7, 850439, Note_on_c, 0, 88, 0
7, 850439, Note_on_c, 0, 81, 0
7, 850560, Note_on_c, 0, 90, 92
7, 851009, Note_on_c, 0, 90, 0
7, 851040, Note_on_c, 0, 91, 92
7, 852209, Note_on_c, 0, 91, 0
7, 852240, Note_on_c, 0, 76, 92
7, 852339, Note_on_c, 0, 76, 0
7, 852360, Note_on_c, 0, 78, 92
7, 852459, Note_on_c, 0, 78, 0
7, 852480, Note_on_c, 0, 79, 92
7, 852579, Note_on_c, 0, 79, 0
7, 852600, Note_on_c, 0, 81, 92
7, 852699, Note_on_c, 0, 81, 0
7, 852720, Note_on_c, 0, 83, 92
7, 852819, Note_on_c, 0, 83, 0
7, 852840, Note_on_c, 0, 85, 92
7, 852939, Note_on_c, 0, 85, 0
7, 852960, Note_on_c, 0, 86, 92
7, 853059, Note_on_c, 0, 86, 0
7, 853080, Note_on_c, 0, 88, 92
7, 853080, Note_on_c, 0, 85, 92
7, 853179, Note_on_c, 0, 88, 0
7, 853179, Note_on_c, 0, 85, 0
7, 853200, Note_on_c, 0, 90, 92
7, 853200, Note_on_c, 0, 86, 92
7, 853299, Note_on_c, 0, 90, 0
7, 853299, Note_on_c, 0, 86, 0
7, 853320, Note_on_c, 0, 88, 92
7, 853320, Note_on_c, 0, 91, 92
7, 853419, Note_on_c, 0, 88, 0
7, 853419, Note_on_c, 0, 91, 0
7, 853440, Note_on_c, 0, 86, 92
7, 853440, Note_on_c, 0, 90, 92
7, 853889, Note_on_c, 0, 86, 0
7, 853889, Note_on_c, 0, 90, 0
7, 853920, Note_on_c, 0, 88, 92
7, 853920, Note_on_c, 0, 85, 92
7, 854129, Note_on_c, 0, 85, 0
7, 854160, Note_on_c, 0, 81, 92
7, 854369, Note_on_c, 0, 88, 0
7, 854369, Note_on_c, 0, 81, 0
7, 854400, Note_on_c, 0, 90, 92
7, 854849, Note_on_c, 0, 90, 0
7, 854880, Note_on_c, 0, 91, 92
7, 856049, Note_on_c, 0, 91, 0
7, 856080, Note_on_c, 0, 76, 92
7, 856179, Note_on_c, 0, 76, 0
7, 856200, Note_on_c, 0, 78, 92
7, 856299, Note_on_c, 0, 78, 0
7, 856320, Note_on_c, 0, 79, 92
7, 856419, Note_on_c, 0, 79, 0
7, 856440, Note_on_c, 0, 81, 92
7, 856539, Note_on_c, 0, 81, 0
7, 856560, Note_on_c, 0, 83, 92
7, 856659, Note_on_c, 0, 83, 0
7, 856680, Note_on_c, 0, 85, 92
7, 856779, Note_on_c, 0, 85, 0
7, 856800, Note_on_c, 0, 86, 92
7, 856899, Note_on_c, 0, 86, 0
7, 856920, Note_on_c, 0, 85, 92
7, 856920, Note_on_c, 0, 88, 92
7, 857019, Note_on_c, 0, 85, 0
7, 857019, Note_on_c, 0, 88, 0
7, 857040, Note_on_c, 0, 86, 92
7, 857040, Note_on_c, 0, 90, 92
7, 857139, Note_on_c, 0, 86, 0
7, 857139, Note_on_c, 0, 90, 0
7, 857160, Note_on_c, 0, 91, 92
7, 857160, Note_on_c, 0, 88, 92
7, 857259, Note_on_c, 0, 91, 0
7, 857259, Note_on_c, 0, 88, 0
7, 857280, Note_on_c, 0, 86, 92
7, 857280, Note_on_c, 0, 90, 92
7, 857729, Note_on_c, 0, 86, 0
7, 857729, Note_on_c, 0, 90, 0
7, 857760, Note_on_c, 0, 88, 92
7, 857760, Note_on_c, 0, 85, 92
7, 858209, Note_on_c, 0, 88, 0
7, 858209, Note_on_c, 0, 85, 0
7, 858240, Note_on_c, 0, 86, 92
7, 858479, Note_on_c, 0, 86, 0
7, 858720, Note_on_c, 0, 78, 92
7, 858929, Note_on_c, 0, 78, 0
7, 858960, Note_on_c, 0, 79, 92
7, 859059, Note_on_c, 0, 79, 0
7, 859080, Note_on_c, 0, 81, 92
7, 859179, Note_on_c, 0, 81, 0
7, 859200, Note_on_c, 0, 83, 92
7, 859439, Note_on_c, 0, 83, 0
7, 859680, Note_on_c, 0, 86, 92
7, 859889, Note_on_c, 0, 86, 0
7, 859920, Note_on_c, 0, 88, 92
7, 860019, Note_on_c, 0, 88, 0
7, 860040, Note_on_c, 0, 90, 92
7, 860139, Note_on_c, 0, 90, 0
7, 860160, Note_on_c, 0, 91, 92
7, 860399, Note_on_c, 0, 91, 0
7, 860640, Note_on_c, 0, 88, 92
7, 860849, Note_on_c, 0, 88, 0
7, 860880, Note_on_c, 0, 90, 92
7, 860979, Note_on_c, 0, 90, 0
7, 861000, Note_on_c, 0, 91, 92
7, 861099, Note_on_c, 0, 91, 0
7, 861120, Note_on_c, 0, 93, 92
7, 861359, Note_on_c, 0, 93, 0
7, 861600, Note_on_c, 0, 81, 92
7, 861839, Note_on_c, 0, 81, 0
7, 861840, Note_on_c, 0, 83, 92
7, 861939, Note_on_c, 0, 83, 0
7, 861960, Note_on_c, 0, 85, 92
7, 862059, Note_on_c, 0, 85, 0
7, 862080, Note_on_c, 0, 86, 92
7, 862179, Note_on_c, 0, 86, 0
7, 862200, Note_on_c, 0, 81, 92
7, 862299, Note_on_c, 0, 81, 0
7, 862320, Note_on_c, 0, 83, 92
7, 862419, Note_on_c, 0, 83, 0
7, 862440, Note_on_c, 0, 85, 92
7, 862539, Note_on_c, 0, 85, 0
7, 862560, Note_on_c, 0, 86, 92
7, 862659, Note_on_c, 0, 86, 0
7, 862680, Note_on_c, 0, 88, 92
7, 862779, Note_on_c, 0, 88, 0
7, 862800, Note_on_c, 0, 90, 92
7, 862899, Note_on_c, 0, 90, 0
7, 862920, Note_on_c, 0, 86, 92
7, 863019, Note_on_c, 0, 86, 0
7, 863040, Note_on_c, 0, 93, 92
7, 863729, Note_on_c, 0, 93, 0
7, 863760, Note_on_c, 0, 93, 92
7, 863969, Note_on_c, 0, 93, 0
7, 864000, Note_on_c, 0, 93, 92
7, 864209, Note_on_c, 0, 93, 0
7, 864240, Note_on_c, 0, 86, 92
7, 864479, Note_on_c, 0, 86, 0
7, 867360, Note_on_c, 0, 93, 92
7, 867569, Note_on_c, 0, 93, 0
7, 867600, Note_on_c, 0, 93, 92
7, 867809, Note_on_c, 0, 93, 0
7, 867840, Note_on_c, 0, 93, 92
7, 869489, Note_on_c, 0, 93, 0
7, 869520, Note_on_c, 0, 93, 92
7, 869729, Note_on_c, 0, 93, 0
7, 869760, Note_on_c, 0, 93, 92
7, 869969, Note_on_c, 0, 93, 0
7, 870000, Note_on_c, 0, 86, 92
7, 870209, Note_on_c, 0, 86, 0
7, 870240, Note_on_c, 0, 88, 92
7, 870240, Note_on_c, 0, 91, 92
7, 871069, Note_on_c, 0, 88, 0
7, 871069, Note_on_c, 0, 91, 0
7, 871080, Note_on_c, 0, 88, 92
7, 871080, Note_on_c, 0, 91, 92
7, 871189, Note_on_c, 0, 88, 0
7, 871189, Note_on_c, 0, 91, 0
7, 871200, Note_on_c, 0, 88, 92
7, 871200, Note_on_c, 0, 91, 92
7, 871373, Note_on_c, 0, 88, 0
7, 871373, Note_on_c, 0, 91, 0
7, 871378, Control_c, 0, 11, 69
7, 871380, Note_on_c, 0, 85, 80
7, 871380, Note_on_c, 0, 88, 80
7, 871433, Note_on_c, 0, 85, 0
7, 871433, Note_on_c, 0, 88, 0
7, 871440, Note_on_c, 0, 86, 80
7, 871613, Note_on_c, 0, 86, 0
7, 871620, Note_on_c, 0, 85, 80
7, 871673, Note_on_c, 0, 85, 0
7, 871680, Note_on_c, 0, 88, 80
7, 871680, Control_c, 0, 11, 69
7, 871680, Note_on_c, 0, 85, 80
7, 871693, Control_c, 0, 11, 71
7, 871707, Control_c, 0, 11, 72
7, 871720, Control_c, 0, 11, 74
7, 871733, Control_c, 0, 11, 75
7, 871747, Control_c, 0, 11, 77
7, 871760, Control_c, 0, 11, 79
7, 871773, Control_c, 0, 11, 80
7, 871787, Control_c, 0, 11, 82
7, 871800, Control_c, 0, 11, 84
7, 871813, Control_c, 0, 11, 85
7, 871827, Control_c, 0, 11, 87
7, 871840, Control_c, 0, 11, 88
7, 871853, Control_c, 0, 11, 90
7, 871867, Control_c, 0, 11, 92
7, 871880, Control_c, 0, 11, 93
7, 871893, Control_c, 0, 11, 95
7, 871907, Control_c, 0, 11, 96
7, 871920, Control_c, 0, 11, 98
7, 871933, Control_c, 0, 11, 100
7, 871947, Control_c, 0, 11, 101
7, 871960, Control_c, 0, 11, 103
7, 871973, Control_c, 0, 11, 104
7, 871987, Control_c, 0, 11, 106
7, 872000, Control_c, 0, 11, 108
7, 872013, Control_c, 0, 11, 109
7, 872027, Control_c, 0, 11, 111
7, 872039, Note_on_c, 0, 88, 0
7, 872039, Note_on_c, 0, 85, 0
7, 872040, Note_on_c, 0, 86, 80
7, 872040, Note_on_c, 0, 90, 80
7, 872040, Control_c, 0, 11, 113
7, 872053, Control_c, 0, 11, 114
7, 872067, Control_c, 0, 11, 116
7, 872080, Control_c, 0, 11, 117
7, 872093, Control_c, 0, 11, 119
7, 872099, Note_on_c, 0, 86, 0
7, 872099, Note_on_c, 0, 90, 0
7, 872100, Note_on_c, 0, 88, 80
7, 872100, Note_on_c, 0, 91, 80
7, 872107, Control_c, 0, 11, 121
7, 872120, Control_c, 0, 11, 122
7, 872133, Control_c, 0, 11, 124
7, 872147, Control_c, 0, 11, 125
7, 872153, Note_on_c, 0, 88, 0
7, 872153, Note_on_c, 0, 91, 0
7, 872158, Control_c, 0, 11, 127
7, 872160, Note_on_c, 0, 90, 80
7, 872333, Note_on_c, 0, 90, 0
7, 872340, Note_on_c, 0, 90, 80
7, 872393, Note_on_c, 0, 90, 0
7, 872400, Note_on_c, 0, 91, 80
7, 872749, Note_on_c, 0, 91, 0
7, 872760, Note_on_c, 0, 88, 80
7, 872869, Note_on_c, 0, 88, 0
7, 872880, Note_on_c, 0, 93, 92
7, 872940, Control_c, 0, 11, 107
7, 873049, Note_on_c, 0, 93, 0
7, 873060, Note_on_c, 0, 93, 92
7, 873109, Note_on_c, 0, 93, 0
7, 873120, Note_on_c, 0, 93, 92
7, 873229, Note_on_c, 0, 93, 0
7, 873240, Note_on_c, 0, 86, 92
7, 873349, Note_on_c, 0, 86, 0
7, 873358, Control_c, 0, 11, 127
7, 873360, Note_on_c, 0, 93, 92
7, 873420, Control_c, 0, 11, 107
7, 873529, Note_on_c, 0, 93, 0
7, 873540, Note_on_c, 0, 93, 92
7, 873589, Note_on_c, 0, 93, 0
7, 873598, Control_c, 0, 11, 127
7, 873600, Note_on_c, 0, 93, 92
7, 874049, Note_on_c, 0, 93, 0
7, 874080, Note_on_c, 0, 86, 92
7, 874289, Note_on_c, 0, 86, 0
7, 874320, Note_on_c, 0, 93, 92
7, 874529, Note_on_c, 0, 93, 0
7, 874560, Note_on_c, 0, 93, 92
7, 874769, Note_on_c, 0, 93, 0
7, 874800, Note_on_c, 0, 91, 92
7, 875009, Note_on_c, 0, 91, 0
7, 875040, Note_on_c, 0, 90, 92
7, 875249, Note_on_c, 0, 90, 0
7, 875280, Note_on_c, 0, 90, 92
7, 875379, Note_on_c, 0, 90, 0
7, 875400, Note_on_c, 0, 88, 92
7, 875499, Note_on_c, 0, 88, 0
7, 875520, Note_on_c, 0, 90, 92
7, 875729, Note_on_c, 0, 90, 0
7, 875760, Note_on_c, 0, 90, 92
7, 875969, Note_on_c, 0, 90, 0
7, 876000, Note_on_c, 0, 91, 92
7, 876209, Note_on_c, 0, 91, 0
7, 876240, Note_on_c, 0, 93, 92
7, 876449, Note_on_c, 0, 93, 0
7, 876480, Note_on_c, 0, 93, 92
7, 876689, Note_on_c, 0, 93, 0
7, 876720, Note_on_c, 0, 91, 92
7, 876929, Note_on_c, 0, 91, 0
7, 876960, Note_on_c, 0, 90, 92
7, 877169, Note_on_c, 0, 90, 0
7, 877200, Note_on_c, 0, 90, 92
7, 877299, Note_on_c, 0, 90, 0
7, 877320, Note_on_c, 0, 88, 92
7, 877419, Note_on_c, 0, 88, 0
7, 877440, Note_on_c, 0, 90, 92
7, 877649, Note_on_c, 0, 90, 0
7, 877680, Note_on_c, 0, 88, 92
7, 877889, Note_on_c, 0, 88, 0
7, 877920, Note_on_c, 0, 90, 92
7, 878129, Note_on_c, 0, 90, 0
7, 878160, Note_on_c, 0, 85, 92
7, 878369, Note_on_c, 0, 85, 0
7, 878400, Note_on_c, 0, 86, 92
7, 878609, Note_on_c, 0, 86, 0
7, 878640, Note_on_c, 0, 85, 92
7, 878849, Note_on_c, 0, 85, 0
7, 878880, Note_on_c, 0, 86, 92
7, 879089, Note_on_c, 0, 86, 0
7, 879120, Note_on_c, 0, 88, 92
7, 879329, Note_on_c, 0, 88, 0
7, 879360, Note_on_c, 0, 90, 92
7, 879569, Note_on_c, 0, 90, 0
7, 879600, Note_on_c, 0, 88, 92
7, 879809, Note_on_c, 0, 88, 0
7, 879840, Note_on_c, 0, 90, 92
7, 880049, Note_on_c, 0, 90, 0
7, 880080, Note_on_c, 0, 91, 92
7, 880289, Note_on_c, 0, 91, 0
7, 880320, Note_on_c, 0, 91, 92
7, 880529, Note_on_c, 0, 91, 0
7, 880560, Note_on_c, 0, 90, 92
7, 880769, Note_on_c, 0, 90, 0
7, 880800, Note_on_c, 0, 91, 92
7, 881009, Note_on_c, 0, 91, 0
7, 881040, Note_on_c, 0, 93, 92
7, 881249, Note_on_c, 0, 93, 0
7, 881280, Note_on_c, 0, 93, 92
7, 881280, Note_on_c, 0, 90, 92
7, 881519, Note_on_c, 0, 93, 0
7, 881519, Note_on_c, 0, 90, 0
7, 881520, Note_on_c, 0, 81, 80
7, 881520, Note_on_c, 0, 90, 80
7, 881639, Note_on_c, 0, 81, 0
7, 881639, Note_on_c, 0, 90, 0
7, 881760, Note_on_c, 0, 90, 80
7, 881760, Note_on_c, 0, 93, 80
7, 881999, Note_on_c, 0, 90, 0
7, 881999, Note_on_c, 0, 93, 0
7, 882000, Note_on_c, 0, 81, 80
7, 882000, Note_on_c, 0, 90, 80
7, 882119, Note_on_c, 0, 81, 0
7, 882119, Note_on_c, 0, 90, 0
7, 882240, Note_on_c, 0, 90, 80
7, 882240, Note_on_c, 0, 93, 80
7, 882479, Note_on_c, 0, 90, 0
7, 882479, Note_on_c, 0, 93, 0
7, 882480, Note_on_c, 0, 90, 80
7, 882480, Note_on_c, 0, 81, 80
7, 882599, Note_on_c, 0, 90, 0
7, 882599, Note_on_c, 0, 81, 0
7, 882720, Note_on_c, 0, 90, 80
7, 882720, Note_on_c, 0, 93, 80
7, 882959, Note_on_c, 0, 90, 0
7, 882959, Note_on_c, 0, 93, 0
7, 882960, Note_on_c, 0, 90, 80
7, 882960, Note_on_c, 0, 81, 80
7, 883079, Note_on_c, 0, 90, 0
7, 883079, Note_on_c, 0, 81, 0
7, 883200, Note_on_c, 0, 90, 80
7, 883200, Note_on_c, 0, 93, 80
7, 883439, Note_on_c, 0, 90, 0
7, 883439, Note_on_c, 0, 93, 0
7, 883440, Note_on_c, 0, 81, 80
7, 883440, Note_on_c, 0, 90, 80
7, 883559, Note_on_c, 0, 81, 0
7, 883559, Note_on_c, 0, 90, 0
7, 883680, Note_on_c, 0, 90, 80
7, 883680, Note_on_c, 0, 93, 80
7, 883919, Note_on_c, 0, 90, 0
7, 883919, Note_on_c, 0, 93, 0
7, 883920, Note_on_c, 0, 81, 80
7, 883920, Note_on_c, 0, 90, 80
7, 884039, Note_on_c, 0, 81, 0
7, 884039, Note_on_c, 0, 90, 0
7, 884160, Note_on_c, 0, 93, 80
7, 884160, Note_on_c, 0, 90, 80
7, 884399, Note_on_c, 0, 93, 0
7, 884399, Note_on_c, 0, 90, 0
7, 884400, Note_on_c, 0, 81, 80
7, 884400, Note_on_c, 0, 90, 80
7, 884519, Note_on_c, 0, 81, 0
7, 884519, Note_on_c, 0, 90, 0
7, 884640, Note_on_c, 0, 90, 80
7, 884640, Note_on_c, 0, 93, 80
7, 884879, Note_on_c, 0, 90, 0
7, 884879, Note_on_c, 0, 93, 0
7, 884880, Note_on_c, 0, 81, 80
7, 884880, Note_on_c, 0, 90, 80
7, 884999, Note_on_c, 0, 81, 0
7, 884999, Note_on_c, 0, 90, 0
7, 885120, Note_on_c, 0, 93, 80
7, 885120, Note_on_c, 0, 90, 80
7, 885359, Note_on_c, 0, 93, 0
7, 885359, Note_on_c, 0, 90, 0
7, 885360, Note_on_c, 0, 81, 80
7, 885360, Note_on_c, 0, 90, 80
7, 885479, Note_on_c, 0, 81, 0
7, 885479, Note_on_c, 0, 90, 0
7, 885600, Note_on_c, 0, 90, 80
7, 885600, Note_on_c, 0, 93, 80
7, 885839, Note_on_c, 0, 90, 0
7, 885839, Note_on_c, 0, 93, 0
7, 885840, Note_on_c, 0, 90, 80
7, 885840, Note_on_c, 0, 81, 80
7, 885959, Note_on_c, 0, 90, 0
7, 885959, Note_on_c, 0, 81, 0
7, 886080, Note_on_c, 0, 90, 80
7, 886080, Note_on_c, 0, 93, 80
7, 886319, Note_on_c, 0, 90, 0
7, 886319, Note_on_c, 0, 93, 0
7, 886320, Note_on_c, 0, 81, 80
7, 886320, Note_on_c, 0, 90, 80
7, 886439, Note_on_c, 0, 81, 0
7, 886439, Note_on_c, 0, 90, 0
7, 886560, Note_on_c, 0, 93, 80
7, 886560, Note_on_c, 0, 90, 80
7, 886799, Note_on_c, 0, 93, 0
7, 886799, Note_on_c, 0, 90, 0
7, 886800, Note_on_c, 0, 90, 80
7, 886800, Note_on_c, 0, 81, 80
7, 886919, Note_on_c, 0, 90, 0
7, 886919, Note_on_c, 0, 81, 0
7, 887040, Note_on_c, 0, 93, 80
7, 887040, Note_on_c, 0, 90, 80
7, 887279, Note_on_c, 0, 93, 0
7, 887279, Note_on_c, 0, 90, 0
7, 887280, Note_on_c, 0, 81, 80
7, 887280, Note_on_c, 0, 90, 80
7, 887399, Note_on_c, 0, 81, 0
7, 887399, Note_on_c, 0, 90, 0
7, 887520, Note_on_c, 0, 90, 80
7, 887520, Note_on_c, 0, 93, 80
7, 887759, Note_on_c, 0, 90, 0
7, 887759, Note_on_c, 0, 93, 0
7, 887760, Note_on_c, 0, 81, 80
7, 887760, Note_on_c, 0, 90, 80
7, 887879, Note_on_c, 0, 81, 0
7, 887879, Note_on_c, 0, 90, 0
7, 888000, Note_on_c, 0, 90, 80
7, 888000, Note_on_c, 0, 93, 80
7, 888239, Note_on_c, 0, 90, 0
7, 888239, Note_on_c, 0, 93, 0
7, 888240, Note_on_c, 0, 81, 80
7, 888240, Note_on_c, 0, 90, 80
7, 888359, Note_on_c, 0, 81, 0
7, 888359, Note_on_c, 0, 90, 0
7, 888480, Note_on_c, 0, 90, 80
7, 888480, Note_on_c, 0, 93, 80
7, 888719, Note_on_c, 0, 90, 0
7, 888719, Note_on_c, 0, 93, 0
7, 888720, Note_on_c, 0, 81, 80
7, 888720, Note_on_c, 0, 90, 80
7, 888839, Note_on_c, 0, 81, 0
7, 888839, Note_on_c, 0, 90, 0
7, 888960, Note_on_c, 0, 81, 92
7, 889119, Note_on_c, 0, 81, 0
7, 889120, Note_on_c, 0, 83, 92
7, 889279, Note_on_c, 0, 83, 0
7, 889280, Note_on_c, 0, 85, 92
7, 889439, Note_on_c, 0, 85, 0
7, 889440, Note_on_c, 0, 86, 92
7, 889599, Note_on_c, 0, 86, 0
7, 889600, Note_on_c, 0, 88, 92
7, 889759, Note_on_c, 0, 88, 0
7, 889760, Note_on_c, 0, 90, 92
7, 889899, Note_on_c, 0, 90, 0
7, 889920, Note_on_c, 0, 91, 92
7, 890079, Note_on_c, 0, 91, 0
7, 890080, Note_on_c, 0, 90, 92
7, 890239, Note_on_c, 0, 90, 0
7, 890240, Note_on_c, 0, 91, 92
7, 890399, Note_on_c, 0, 91, 0
7, 890400, Note_on_c, 0, 93, 92
7, 890559, Note_on_c, 0, 93, 0
7, 890560, Note_on_c, 0, 83, 92
7, 890719, Note_on_c, 0, 83, 0
7, 890720, Note_on_c, 0, 85, 92
7, 890859, Note_on_c, 0, 85, 0
7, 890880, Note_on_c, 0, 86, 92
7, 891039, Note_on_c, 0, 86, 0
7, 891040, Note_on_c, 0, 85, 92
7, 891199, Note_on_c, 0, 85, 0
7, 891200, Note_on_c, 0, 86, 92
7, 891359, Note_on_c, 0, 86, 0
7, 891360, Note_on_c, 0, 88, 92
7, 891519, Note_on_c, 0, 88, 0
7, 891520, Note_on_c, 0, 90, 92
7, 891679, Note_on_c, 0, 90, 0
7, 891680, Note_on_c, 0, 91, 92
7, 891819, Note_on_c, 0, 91, 0
7, 891840, Note_on_c, 0, 93, 92
7, 892049, Note_on_c, 0, 93, 0
7, 892080, Note_on_c, 0, 93, 92
7, 892289, Note_on_c, 0, 93, 0
7, 892320, Note_on_c, 0, 93, 92
7, 892529, Note_on_c, 0, 93, 0
7, 892560, Note_on_c, 0, 93, 92
7, 892769, Note_on_c, 0, 93, 0
7, 892800, Note_on_c, 0, 86, 92
7, 893039, Note_on_c, 0, 86, 0
7, 893039, End_track
8, 0, Start_track
8, 0, Title_t, "Oboe"
8, 0, MIDI_port, 0
8, 0, Program_c, 1, 68
8, 0, Control_c, 1, 121, 0
8, 0, Control_c, 1, 7, 80
8, 0, Control_c, 1, 11, 127
8, 0, Control_c, 1, 10, 70
8, 0, Note_on_c, 1, 82, 92
8, 0, Note_on_c, 1, 70, 92
8, 579, Note_on_c, 1, 82, 0
8, 579, Note_on_c, 1, 70, 0
8, 600, Note_on_c, 1, 81, 92
8, 600, Note_on_c, 1, 69, 92
8, 689, Note_on_c, 1, 81, 0
8, 689, Note_on_c, 1, 69, 0
8, 720, Note_on_c, 1, 81, 92
8, 720, Note_on_c, 1, 69, 92
8, 809, Note_on_c, 1, 81, 0
8, 809, Note_on_c, 1, 69, 0
8, 840, Note_on_c, 1, 74, 92
8, 840, Note_on_c, 1, 86, 92
8, 929, Note_on_c, 1, 74, 0
8, 929, Note_on_c, 1, 86, 0
8, 960, Note_on_c, 1, 86, 92
8, 960, Note_on_c, 1, 74, 92
8, 1049, Note_on_c, 1, 86, 0
8, 1049, Note_on_c, 1, 74, 0
8, 1080, Note_on_c, 1, 65, 92
8, 1080, Note_on_c, 1, 77, 92
8, 1169, Note_on_c, 1, 65, 0
8, 1169, Note_on_c, 1, 77, 0
8, 1200, Note_on_c, 1, 65, 92
8, 1200, Note_on_c, 1, 77, 92
8, 1289, Note_on_c, 1, 65, 0
8, 1289, Note_on_c, 1, 77, 0
8, 1320, Note_on_c, 1, 81, 92
8, 1320, Note_on_c, 1, 69, 92
8, 1409, Note_on_c, 1, 81, 0
8, 1409, Note_on_c, 1, 69, 0
8, 1440, Note_on_c, 1, 81, 92
8, 1440, Note_on_c, 1, 69, 92
8, 1529, Note_on_c, 1, 81, 0
8, 1529, Note_on_c, 1, 69, 0
8, 1560, Note_on_c, 1, 74, 92
8, 1560, Note_on_c, 1, 62, 92
8, 1649, Note_on_c, 1, 74, 0
8, 1649, Note_on_c, 1, 62, 0
8, 1680, Note_on_c, 1, 74, 92
8, 1680, Note_on_c, 1, 62, 92
8, 1769, Note_on_c, 1, 74, 0
8, 1769, Note_on_c, 1, 62, 0
8, 1800, Note_on_c, 1, 77, 92
8, 1889, Note_on_c, 1, 77, 0
8, 1920, Note_on_c, 1, 77, 92
8, 2009, Note_on_c, 1, 77, 0
8, 2040, Note_on_c, 1, 69, 92
8, 2129, Note_on_c, 1, 69, 0
8, 2160, Note_on_c, 1, 69, 92
8, 2249, Note_on_c, 1, 69, 0
8, 2280, Note_on_c, 1, 74, 92
8, 2280, Note_on_c, 1, 86, 92
8, 2369, Note_on_c, 1, 74, 0
8, 2369, Note_on_c, 1, 86, 0
8, 2400, Note_on_c, 1, 86, 92
8, 2400, Note_on_c, 1, 74, 92
8, 2489, Note_on_c, 1, 86, 0
8, 2489, Note_on_c, 1, 74, 0
8, 2520, Note_on_c, 1, 65, 92
8, 2520, Note_on_c, 1, 77, 92
8, 2609, Note_on_c, 1, 65, 0
8, 2609, Note_on_c, 1, 77, 0
8, 2640, Note_on_c, 1, 65, 92
8, 2640, Note_on_c, 1, 77, 92
8, 2729, Note_on_c, 1, 65, 0
8, 2729, Note_on_c, 1, 77, 0
8, 2760, Note_on_c, 1, 81, 92
8, 2760, Note_on_c, 1, 69, 92
8, 2849, Note_on_c, 1, 81, 0
8, 2849, Note_on_c, 1, 69, 0
8, 2880, Note_on_c, 1, 81, 92
8, 2880, Note_on_c, 1, 69, 92
8, 2969, Note_on_c, 1, 81, 0
8, 2969, Note_on_c, 1, 69, 0
8, 3000, Note_on_c, 1, 62, 92
8, 3000, Note_on_c, 1, 74, 92
8, 3089, Note_on_c, 1, 62, 0
8, 3089, Note_on_c, 1, 74, 0
8, 3120, Note_on_c, 1, 74, 92
8, 3209, Note_on_c, 1, 74, 0
8, 3240, Note_on_c, 1, 77, 92
8, 3329, Note_on_c, 1, 77, 0
8, 3360, Note_on_c, 1, 77, 92
8, 3449, Note_on_c, 1, 77, 0
8, 3480, Note_on_c, 1, 78, 92
8, 3569, Note_on_c, 1, 78, 0
8, 3600, Note_on_c, 1, 78, 92
8, 3689, Note_on_c, 1, 78, 0
8, 3720, Note_on_c, 1, 79, 92
8, 3809, Note_on_c, 1, 79, 0
8, 3840, Note_on_c, 1, 79, 92
8, 3929, Note_on_c, 1, 79, 0
8, 3960, Note_on_c, 1, 80, 92
8, 4049, Note_on_c, 1, 80, 0
8, 4080, Note_on_c, 1, 80, 92
8, 4169, Note_on_c, 1, 80, 0
8, 4200, Note_on_c, 1, 80, 92
8, 4289, Note_on_c, 1, 80, 0
8, 4320, Note_on_c, 1, 80, 92
8, 4320, Note_on_c, 1, 74, 92
8, 4409, Note_on_c, 1, 80, 0
8, 4409, Note_on_c, 1, 74, 0
8, 4440, Note_on_c, 1, 77, 92
8, 4440, Note_on_c, 1, 74, 92
8, 4529, Note_on_c, 1, 77, 0
8, 4529, Note_on_c, 1, 74, 0
8, 4560, Note_on_c, 1, 74, 92
8, 4560, Note_on_c, 1, 77, 92
8, 4739, Note_on_c, 1, 74, 0
8, 4739, Note_on_c, 1, 77, 0
8, 4800, Note_on_c, 1, 69, 92
8, 4800, Note_on_c, 1, 81, 92
8, 4979, Note_on_c, 1, 69, 0
8, 4979, Note_on_c, 1, 81, 0
8, 12240, Note_on_c, 1, 63, 92
8, 12240, Note_on_c, 1, 75, 92
8, 12819, Note_on_c, 1, 63, 0
8, 12819, Note_on_c, 1, 75, 0
8, 12840, Note_on_c, 1, 69, 92
8, 12929, Note_on_c, 1, 69, 0
8, 12960, Note_on_c, 1, 69, 92
8, 13049, Note_on_c, 1, 69, 0
8, 13080, Note_on_c, 1, 72, 92
8, 13169, Note_on_c, 1, 72, 0
8, 13200, Note_on_c, 1, 72, 92
8, 13289, Note_on_c, 1, 72, 0
8, 13320, Note_on_c, 1, 78, 92
8, 13409, Note_on_c, 1, 78, 0
8, 13440, Note_on_c, 1, 78, 92
8, 13529, Note_on_c, 1, 78, 0
8, 13560, Note_on_c, 1, 81, 92
8, 13649, Note_on_c, 1, 81, 0
8, 13680, Note_on_c, 1, 81, 92
8, 13769, Note_on_c, 1, 81, 0
8, 13800, Note_on_c, 1, 84, 92
8, 13889, Note_on_c, 1, 84, 0
8, 13920, Note_on_c, 1, 84, 92
8, 14009, Note_on_c, 1, 84, 0
8, 14040, Note_on_c, 1, 75, 92
8, 14129, Note_on_c, 1, 75, 0
8, 14160, Note_on_c, 1, 75, 92
8, 14249, Note_on_c, 1, 75, 0
8, 14280, Note_on_c, 1, 69, 92
8, 14369, Note_on_c, 1, 69, 0
8, 14400, Note_on_c, 1, 69, 92
8, 14489, Note_on_c, 1, 69, 0
8, 14520, Note_on_c, 1, 72, 92
8, 14609, Note_on_c, 1, 72, 0
8, 14640, Note_on_c, 1, 84, 92
8, 14640, Note_on_c, 1, 72, 92
8, 14729, Note_on_c, 1, 84, 0
8, 14729, Note_on_c, 1, 72, 0
8, 14760, Note_on_c, 1, 78, 92
8, 14849, Note_on_c, 1, 78, 0
8, 14880, Note_on_c, 1, 78, 92
8, 14969, Note_on_c, 1, 78, 0
8, 15000, Note_on_c, 1, 81, 92
8, 15089, Note_on_c, 1, 81, 0
8, 15120, Note_on_c, 1, 81, 92
8, 15209, Note_on_c, 1, 81, 0
8, 15240, Note_on_c, 1, 66, 92
8, 15329, Note_on_c, 1, 66, 0
8, 15360, Note_on_c, 1, 66, 92
8, 15449, Note_on_c, 1, 66, 0
8, 15480, Note_on_c, 1, 78, 92
8, 15480, Note_on_c, 1, 69, 92
8, 15569, Note_on_c, 1, 78, 0
8, 15569, Note_on_c, 1, 69, 0
8, 15600, Note_on_c, 1, 78, 92
8, 15600, Note_on_c, 1, 69, 92
8, 15689, Note_on_c, 1, 78, 0
8, 15689, Note_on_c, 1, 69, 0
8, 15720, Note_on_c, 1, 70, 92
8, 15720, Note_on_c, 1, 79, 92
8, 15809, Note_on_c, 1, 70, 0
8, 15809, Note_on_c, 1, 79, 0
8, 15840, Note_on_c, 1, 70, 92
8, 15840, Note_on_c, 1, 79, 92
8, 15929, Note_on_c, 1, 70, 0
8, 15929, Note_on_c, 1, 79, 0
8, 15960, Note_on_c, 1, 72, 92
8, 15960, Note_on_c, 1, 81, 92
8, 16049, Note_on_c, 1, 72, 0
8, 16049, Note_on_c, 1, 81, 0
8, 16080, Note_on_c, 1, 81, 92
8, 16080, Note_on_c, 1, 72, 92
8, 16169, Note_on_c, 1, 81, 0
8, 16169, Note_on_c, 1, 72, 0
8, 16200, Note_on_c, 1, 74, 92
8, 16200, Note_on_c, 1, 82, 92
8, 16289, Note_on_c, 1, 74, 0
8, 16289, Note_on_c, 1, 82, 0
8, 16320, Note_on_c, 1, 74, 92
8, 16320, Note_on_c, 1, 82, 92
8, 16409, Note_on_c, 1, 74, 0
8, 16409, Note_on_c, 1, 82, 0
8, 16440, Note_on_c, 1, 75, 92
8, 16440, Note_on_c, 1, 84, 92
8, 16529, Note_on_c, 1, 75, 0
8, 16529, Note_on_c, 1, 84, 0
8, 16560, Note_on_c, 1, 75, 92
8, 16560, Note_on_c, 1, 84, 92
8, 16649, Note_on_c, 1, 75, 0
8, 16649, Note_on_c, 1, 84, 0
8, 16680, Note_on_c, 1, 75, 92
8, 16680, Note_on_c, 1, 84, 92
8, 16769, Note_on_c, 1, 75, 0
8, 16769, Note_on_c, 1, 84, 0
8, 16800, Note_on_c, 1, 75, 92
8, 16800, Note_on_c, 1, 84, 92
8, 17039, Note_on_c, 1, 75, 0
8, 17039, Note_on_c, 1, 84, 0
8, 17400, Note_on_c, 1, 75, 92
8, 17400, Note_on_c, 1, 84, 92
8, 17499, Note_on_c, 1, 75, 0
8, 17499, Note_on_c, 1, 84, 0
8, 17520, Note_on_c, 1, 75, 92
8, 17520, Note_on_c, 1, 84, 92
8, 17759, Note_on_c, 1, 75, 0
8, 17759, Note_on_c, 1, 84, 0
8, 20640, Note_on_c, 1, 74, 80
8, 20640, Note_on_c, 1, 77, 80
8, 20759, Note_on_c, 1, 74, 0
8, 20759, Note_on_c, 1, 77, 0
8, 20880, Note_on_c, 1, 74, 80
8, 20880, Note_on_c, 1, 79, 80
8, 20999, Note_on_c, 1, 74, 0
8, 20999, Note_on_c, 1, 79, 0
8, 21120, Note_on_c, 1, 69, 32
8, 21120, Note_on_c, 1, 76, 32
8, 23039, Note_on_c, 1, 69, 0
8, 23039, Note_on_c, 1, 76, 0
8, 23040, Note_on_c, 1, 76, 32
8, 23040, Note_on_c, 1, 69, 32
8, 24959, Note_on_c, 1, 76, 0
8, 24959, Note_on_c, 1, 69, 0
8, 24960, Note_on_c, 1, 75, 80
8, 24960, Note_on_c, 1, 69, 80
8, 25199, Note_on_c, 1, 75, 0
8, 25199, Note_on_c, 1, 69, 0
8, 32160, Note_on_c, 1, 76, 44
8, 32489, Note_on_c, 1, 76, 0
8, 32520, Note_on_c, 1, 64, 44
8, 32609, Note_on_c, 1, 64, 0
8, 32640, Note_on_c, 1, 64, 44
8, 32849, Note_on_c, 1, 64, 0
8, 32880, Note_on_c, 1, 69, 44
8, 33059, Note_on_c, 1, 69, 0
8, 33120, Note_on_c, 1, 71, 44
8, 33299, Note_on_c, 1, 71, 0
8, 33360, Note_on_c, 1, 72, 44
8, 33539, Note_on_c, 1, 72, 0
8, 33600, Note_on_c, 1, 80, 44
8, 33779, Note_on_c, 1, 80, 0
8, 33840, Note_on_c, 1, 81, 44
8, 34019, Note_on_c, 1, 81, 0
8, 34080, Note_on_c, 1, 83, 44
8, 34259, Note_on_c, 1, 83, 0
8, 34320, Note_on_c, 1, 81, 44
8, 34499, Note_on_c, 1, 81, 0
8, 34560, Note_on_c, 1, 80, 44
8, 34739, Note_on_c, 1, 80, 0
8, 34800, Note_on_c, 1, 81, 44
8, 34979, Note_on_c, 1, 81, 0
8, 35040, Note_on_c, 1, 79, 44
8, 35219, Note_on_c, 1, 79, 0
8, 35280, Note_on_c, 1, 77, 44
8, 35459, Note_on_c, 1, 77, 0
8, 35520, Note_on_c, 1, 76, 44
8, 35699, Note_on_c, 1, 76, 0
8, 35760, Note_on_c, 1, 77, 44
8, 35939, Note_on_c, 1, 77, 0
8, 36000, Note_on_c, 1, 77, 44
8, 36179, Note_on_c, 1, 77, 0
8, 36240, Note_on_c, 1, 77, 44
8, 36419, Note_on_c, 1, 77, 0
8, 36480, Note_on_c, 1, 84, 44
8, 36809, Note_on_c, 1, 84, 0
8, 36840, Note_on_c, 1, 72, 44
8, 36929, Note_on_c, 1, 72, 0
8, 36960, Note_on_c, 1, 72, 44
8, 37169, Note_on_c, 1, 72, 0
8, 37200, Note_on_c, 1, 77, 44
8, 37379, Note_on_c, 1, 77, 0
8, 37440, Note_on_c, 1, 79, 44
8, 37619, Note_on_c, 1, 79, 0
8, 37680, Note_on_c, 1, 81, 44
8, 37859, Note_on_c, 1, 81, 0
8, 44160, Note_on_c, 1, 82, 38
8, 44639, Note_on_c, 1, 82, 0
8, 44640, Note_on_c, 1, 77, 38
8, 44640, Note_on_c, 1, 72, 44
8, 44991, Note_on_c, 1, 77, 0
8, 45000, Note_on_c, 1, 75, 38
8, 45111, Note_on_c, 1, 75, 0
8, 45119, Note_on_c, 1, 72, 0
8, 45120, Note_on_c, 1, 70, 44
8, 45120, Note_on_c, 1, 74, 44
8, 45359, Note_on_c, 1, 70, 0
8, 45359, Note_on_c, 1, 74, 0
8, 47760, Control_c, 1, 11, 89
8, 48000, Note_on_c, 1, 71, 68
8, 49424, Note_on_c, 1, 71, 0
8, 49440, Control_c, 1, 11, 89
8, 49440, Note_on_c, 1, 69, 68
8, 49473, Control_c, 1, 11, 90
8, 49507, Control_c, 1, 11, 91
8, 49540, Control_c, 1, 11, 92
8, 49573, Control_c, 1, 11, 93
8, 49607, Control_c, 1, 11, 94
8, 49640, Control_c, 1, 11, 95
8, 49673, Control_c, 1, 11, 96
8, 49707, Control_c, 1, 11, 97
8, 49740, Control_c, 1, 11, 99
8, 49773, Control_c, 1, 11, 100
8, 49807, Control_c, 1, 11, 101
8, 49840, Control_c, 1, 11, 102
8, 49873, Control_c, 1, 11, 103
8, 49904, Note_on_c, 1, 69, 0
8, 49907, Control_c, 1, 11, 104
8, 49920, Note_on_c, 1, 73, 68
8, 49940, Control_c, 1, 11, 105
8, 49973, Control_c, 1, 11, 106
8, 50007, Control_c, 1, 11, 107
8, 50040, Control_c, 1, 11, 108
8, 50073, Control_c, 1, 11, 109
8, 50107, Control_c, 1, 11, 110
8, 50140, Control_c, 1, 11, 111
8, 50173, Control_c, 1, 11, 112
8, 50207, Control_c, 1, 11, 113
8, 50240, Control_c, 1, 11, 114
8, 50273, Control_c, 1, 11, 115
8, 50307, Control_c, 1, 11, 116
8, 50340, Control_c, 1, 11, 118
8, 50373, Control_c, 1, 11, 119
8, 50399, Note_on_c, 1, 73, 0
8, 50400, Note_on_c, 1, 75, 68
8, 50407, Control_c, 1, 11, 120
8, 50440, Control_c, 1, 11, 121
8, 50473, Control_c, 1, 11, 122
8, 50507, Control_c, 1, 11, 123
8, 50540, Control_c, 1, 11, 124
8, 50573, Control_c, 1, 11, 125
8, 50607, Control_c, 1, 11, 127
8, 50639, Note_on_c, 1, 75, 0
8, 52800, Note_on_c, 1, 76, 44
8, 52800, Note_on_c, 1, 73, 44
8, 53039, Note_on_c, 1, 73, 0
8, 53040, Note_on_c, 1, 71, 44
8, 53504, Note_on_c, 1, 71, 0
8, 53519, Note_on_c, 1, 76, 0
8, 53520, Note_on_c, 1, 74, 44
8, 53744, Note_on_c, 1, 74, 0
8, 53760, Note_on_c, 1, 69, 38
8, 53760, Note_on_c, 1, 73, 38
8, 53984, Note_on_c, 1, 73, 0
8, 53999, Note_on_c, 1, 69, 0
8, 54000, Note_on_c, 1, 73, 38
8, 54239, Note_on_c, 1, 73, 0
8, 54240, Note_on_c, 1, 74, 38
8, 54479, Note_on_c, 1, 74, 0
8, 54480, Note_on_c, 1, 76, 38
8, 54704, Note_on_c, 1, 76, 0
8, 54720, Note_on_c, 1, 76, 38
8, 54959, Note_on_c, 1, 76, 0
8, 54960, Note_on_c, 1, 74, 38
8, 55199, Note_on_c, 1, 74, 0
8, 55200, Note_on_c, 1, 73, 38
8, 55439, Note_on_c, 1, 73, 0
8, 55440, Note_on_c, 1, 71, 38
8, 55664, Note_on_c, 1, 71, 0
8, 55680, Note_on_c, 1, 76, 38
8, 55680, Note_on_c, 1, 73, 38
8, 55904, Note_on_c, 1, 76, 0
8, 55904, Note_on_c, 1, 73, 0
8, 55920, Note_on_c, 1, 73, 38
8, 55920, Note_on_c, 1, 76, 38
8, 56159, Note_on_c, 1, 73, 0
8, 56159, Note_on_c, 1, 76, 0
8, 56160, Note_on_c, 1, 74, 38
8, 56160, Note_on_c, 1, 78, 38
8, 56399, Note_on_c, 1, 74, 0
8, 56399, Note_on_c, 1, 78, 0
8, 56400, Note_on_c, 1, 79, 38
8, 56400, Note_on_c, 1, 76, 38
8, 56624, Note_on_c, 1, 79, 0
8, 56624, Note_on_c, 1, 76, 0
8, 56640, Note_on_c, 1, 79, 38
8, 56640, Note_on_c, 1, 76, 38
8, 56879, Note_on_c, 1, 79, 0
8, 56879, Note_on_c, 1, 76, 0
8, 56880, Note_on_c, 1, 74, 38
8, 56880, Note_on_c, 1, 78, 38
8, 57119, Note_on_c, 1, 74, 0
8, 57119, Note_on_c, 1, 78, 0
8, 57120, Note_on_c, 1, 76, 38
8, 57120, Note_on_c, 1, 67, 38
8, 57359, Note_on_c, 1, 76, 0
8, 57359, Note_on_c, 1, 67, 0
8, 57360, Note_on_c, 1, 69, 38
8, 57360, Note_on_c, 1, 74, 38
8, 57584, Note_on_c, 1, 69, 0
8, 57584, Note_on_c, 1, 74, 0
8, 57600, Note_on_c, 1, 73, 44
8, 57600, Note_on_c, 1, 69, 44
8, 57824, Note_on_c, 1, 73, 0
8, 57824, Note_on_c, 1, 69, 0
8, 57840, Note_on_c, 1, 73, 80
8, 57840, Note_on_c, 1, 79, 80
8, 58019, Note_on_c, 1, 73, 0
8, 58019, Note_on_c, 1, 79, 0
8, 58560, Note_on_c, 1, 76, 80
8, 58560, Note_on_c, 1, 79, 80
8, 58739, Note_on_c, 1, 76, 0
8, 58739, Note_on_c, 1, 79, 0
8, 59280, Note_on_c, 1, 85, 80
8, 59280, Note_on_c, 1, 81, 80
8, 59459, Note_on_c, 1, 85, 0
8, 59459, Note_on_c, 1, 81, 0
8, 60000, Note_on_c, 1, 81, 80
8, 60000, Note_on_c, 1, 86, 80
8, 60179, Note_on_c, 1, 81, 0
8, 60179, Note_on_c, 1, 86, 0
8, 62880, Note_on_c, 1, 71, 80
8, 62880, Note_on_c, 1, 74, 80
8, 63104, Note_on_c, 1, 71, 0
8, 63104, Note_on_c, 1, 74, 0
8, 63120, Note_on_c, 1, 79, 80
8, 63120, Note_on_c, 1, 83, 80
8, 63239, Note_on_c, 1, 79, 0
8, 63239, Note_on_c, 1, 83, 0
8, 64800, Note_on_c, 1, 85, 92
8, 64800, Note_on_c, 1, 76, 92
8, 65039, Note_on_c, 1, 85, 0
8, 65039, Note_on_c, 1, 76, 0
8, 65280, Note_on_c, 1, 78, 92
8, 65280, Note_on_c, 1, 86, 92
8, 65519, Note_on_c, 1, 78, 0
8, 65519, Note_on_c, 1, 86, 0
8, 134640, Note_on_c, 1, 78, 80
8, 134640, Note_on_c, 1, 74, 80
8, 135119, Note_on_c, 1, 78, 0
8, 135119, Note_on_c, 1, 74, 0
8, 135120, Note_on_c, 1, 79, 80
8, 135120, Note_on_c, 1, 76, 80
8, 135359, Note_on_c, 1, 79, 0
8, 135359, Note_on_c, 1, 76, 0
8, 135360, Note_on_c, 1, 81, 80
8, 135360, Note_on_c, 1, 78, 80
8, 135584, Note_on_c, 1, 81, 0
8, 135584, Note_on_c, 1, 78, 0
8, 135600, Note_on_c, 1, 81, 80
8, 135600, Note_on_c, 1, 78, 80
8, 135839, Note_on_c, 1, 81, 0
8, 135839, Note_on_c, 1, 78, 0
8, 135840, Note_on_c, 1, 79, 80
8, 135840, Note_on_c, 1, 76, 80
8, 136064, Note_on_c, 1, 79, 0
8, 136064, Note_on_c, 1, 76, 0
8, 136080, Note_on_c, 1, 74, 80
8, 136080, Note_on_c, 1, 78, 80
8, 136289, Note_on_c, 1, 74, 0
8, 136289, Note_on_c, 1, 78, 0
8, 136320, Note_on_c, 1, 69, 80
8, 136320, Note_on_c, 1, 76, 80
8, 136499, Note_on_c, 1, 69, 0
8, 136499, Note_on_c, 1, 76, 0
8, 136560, Note_on_c, 1, 66, 80
8, 136560, Note_on_c, 1, 74, 80
8, 136784, Note_on_c, 1, 66, 0
8, 136784, Note_on_c, 1, 74, 0
8, 136800, Note_on_c, 1, 66, 80
8, 136800, Note_on_c, 1, 74, 80
8, 137039, Note_on_c, 1, 66, 0
8, 137039, Note_on_c, 1, 74, 0
8, 137040, Note_on_c, 1, 76, 80
8, 137040, Note_on_c, 1, 69, 80
8, 137279, Note_on_c, 1, 76, 0
8, 137279, Note_on_c, 1, 69, 0
8, 137280, Note_on_c, 1, 78, 80
8, 137280, Note_on_c, 1, 74, 80
8, 137504, Note_on_c, 1, 78, 0
8, 137504, Note_on_c, 1, 74, 0
8, 137520, Note_on_c, 1, 78, 80
8, 137520, Note_on_c, 1, 74, 80
8, 137879, Note_on_c, 1, 78, 0
8, 137879, Note_on_c, 1, 74, 0
8, 137880, Note_on_c, 1, 76, 80
8, 137880, Note_on_c, 1, 73, 80
8, 137984, Note_on_c, 1, 76, 0
8, 137984, Note_on_c, 1, 73, 0
8, 138000, Note_on_c, 1, 76, 80
8, 138000, Note_on_c, 1, 73, 80
8, 138464, Note_on_c, 1, 76, 0
8, 138464, Note_on_c, 1, 73, 0
8, 138480, Note_on_c, 1, 74, 92
8, 138480, Note_on_c, 1, 78, 92
8, 138540, Control_c, 1, 11, 107
8, 138959, Note_on_c, 1, 74, 0
8, 138959, Note_on_c, 1, 78, 0
8, 138960, Note_on_c, 1, 79, 92
8, 138960, Note_on_c, 1, 76, 92
8, 139199, Note_on_c, 1, 79, 0
8, 139199, Note_on_c, 1, 76, 0
8, 139200, Note_on_c, 1, 81, 92
8, 139200, Note_on_c, 1, 78, 92
8, 139424, Note_on_c, 1, 81, 0
8, 139424, Note_on_c, 1, 78, 0
8, 139438, Control_c, 1, 11, 127
8, 139440, Note_on_c, 1, 78, 80
8, 139440, Note_on_c, 1, 81, 80
8, 139679, Note_on_c, 1, 78, 0
8, 139679, Note_on_c, 1, 81, 0
8, 139680, Note_on_c, 1, 79, 80
8, 139680, Note_on_c, 1, 76, 80
8, 139904, Note_on_c, 1, 79, 0
8, 139904, Note_on_c, 1, 76, 0
8, 139920, Note_on_c, 1, 74, 80
8, 139920, Note_on_c, 1, 78, 80
8, 140129, Note_on_c, 1, 74, 0
8, 140129, Note_on_c, 1, 78, 0
8, 140160, Note_on_c, 1, 69, 80
8, 140160, Note_on_c, 1, 76, 80
8, 140339, Note_on_c, 1, 69, 0
8, 140339, Note_on_c, 1, 76, 0
8, 140400, Note_on_c, 1, 74, 80
8, 140400, Note_on_c, 1, 66, 80
8, 140609, Note_on_c, 1, 74, 0
8, 140609, Note_on_c, 1, 66, 0
8, 140640, Note_on_c, 1, 74, 80
8, 140640, Note_on_c, 1, 66, 80
8, 140849, Note_on_c, 1, 74, 0
8, 140849, Note_on_c, 1, 66, 0
8, 140880, Note_on_c, 1, 69, 80
8, 140880, Note_on_c, 1, 76, 80
8, 141089, Note_on_c, 1, 69, 0
8, 141089, Note_on_c, 1, 76, 0
8, 141120, Note_on_c, 1, 78, 80
8, 141120, Note_on_c, 1, 74, 80
8, 141299, Note_on_c, 1, 78, 0
8, 141299, Note_on_c, 1, 74, 0
8, 141360, Note_on_c, 1, 76, 80
8, 141360, Note_on_c, 1, 69, 80
8, 141719, Note_on_c, 1, 76, 0
8, 141719, Note_on_c, 1, 69, 0
8, 141720, Note_on_c, 1, 74, 80
8, 141720, Note_on_c, 1, 66, 80
8, 141824, Note_on_c, 1, 74, 0
8, 141824, Note_on_c, 1, 66, 0
8, 141840, Note_on_c, 1, 66, 80
8, 141840, Note_on_c, 1, 74, 80
8, 142304, Note_on_c, 1, 66, 0
8, 142304, Note_on_c, 1, 74, 0
8, 142320, Note_on_c, 1, 76, 80
8, 142320, Note_on_c, 1, 73, 80
8, 142799, Note_on_c, 1, 76, 0
8, 142799, Note_on_c, 1, 73, 0
8, 142800, Note_on_c, 1, 74, 80
8, 142800, Note_on_c, 1, 78, 80
8, 143039, Note_on_c, 1, 74, 0
8, 143039, Note_on_c, 1, 78, 0
8, 143040, Note_on_c, 1, 74, 80
8, 143264, Note_on_c, 1, 74, 0
8, 143280, Note_on_c, 1, 73, 80
8, 143280, Note_on_c, 1, 76, 80
8, 143519, Note_on_c, 1, 73, 0
8, 143519, Note_on_c, 1, 76, 0
8, 143520, Note_on_c, 1, 74, 80
8, 143520, Note_on_c, 1, 78, 80
8, 143639, Note_on_c, 1, 74, 0
8, 143639, Note_on_c, 1, 78, 0
8, 143640, Note_on_c, 1, 76, 80
8, 143640, Note_on_c, 1, 79, 80
8, 143759, Note_on_c, 1, 76, 0
8, 143759, Note_on_c, 1, 79, 0
8, 143760, Note_on_c, 1, 74, 80
8, 143760, Note_on_c, 1, 78, 80
8, 143984, Note_on_c, 1, 74, 0
8, 143984, Note_on_c, 1, 78, 0
8, 144000, Note_on_c, 1, 74, 80
8, 144179, Note_on_c, 1, 74, 0
8, 144240, Note_on_c, 1, 73, 80
8, 144240, Note_on_c, 1, 76, 80
8, 144479, Note_on_c, 1, 73, 0
8, 144479, Note_on_c, 1, 76, 0
8, 144480, Note_on_c, 1, 78, 80
8, 144480, Note_on_c, 1, 74, 80
8, 144599, Note_on_c, 1, 78, 0
8, 144599, Note_on_c, 1, 74, 0
8, 144600, Note_on_c, 1, 79, 80
8, 144600, Note_on_c, 1, 76, 80
8, 144704, Note_on_c, 1, 79, 0
8, 144704, Note_on_c, 1, 76, 0
8, 144720, Note_on_c, 1, 73, 80
8, 144720, Note_on_c, 1, 78, 80
8, 144944, Note_on_c, 1, 73, 0
8, 144959, Note_on_c, 1, 78, 0
8, 144960, Note_on_c, 1, 73, 80
8, 144960, Note_on_c, 1, 76, 80
8, 145184, Note_on_c, 1, 73, 0
8, 145184, Note_on_c, 1, 76, 0
8, 145200, Note_on_c, 1, 74, 80
8, 145200, Note_on_c, 1, 71, 80
8, 145379, Note_on_c, 1, 74, 0
8, 145379, Note_on_c, 1, 71, 0
8, 145440, Note_on_c, 1, 76, 80
8, 145440, Note_on_c, 1, 68, 80
8, 145619, Note_on_c, 1, 76, 0
8, 145619, Note_on_c, 1, 68, 0
8, 145680, Note_on_c, 1, 69, 80
8, 145859, Note_on_c, 1, 69, 0
8, 145920, Note_on_c, 1, 74, 80
8, 145920, Note_on_c, 1, 78, 80
8, 146384, Note_on_c, 1, 74, 0
8, 146384, Note_on_c, 1, 78, 0
8, 146400, Note_on_c, 1, 74, 80
8, 146400, Note_on_c, 1, 78, 80
8, 146609, Note_on_c, 1, 74, 0
8, 146609, Note_on_c, 1, 78, 0
8, 146640, Note_on_c, 1, 76, 80
8, 146640, Note_on_c, 1, 79, 80
8, 146849, Note_on_c, 1, 76, 0
8, 146849, Note_on_c, 1, 79, 0
8, 146880, Note_on_c, 1, 78, 80
8, 146880, Note_on_c, 1, 81, 80
8, 147059, Note_on_c, 1, 78, 0
8, 147059, Note_on_c, 1, 81, 0
8, 147120, Note_on_c, 1, 81, 80
8, 147120, Note_on_c, 1, 78, 80
8, 147359, Note_on_c, 1, 81, 0
8, 147359, Note_on_c, 1, 78, 0
8, 147360, Note_on_c, 1, 76, 80
8, 147360, Note_on_c, 1, 79, 80
8, 147584, Note_on_c, 1, 76, 0
8, 147584, Note_on_c, 1, 79, 0
8, 147600, Note_on_c, 1, 78, 80
8, 147600, Note_on_c, 1, 74, 80
8, 147809, Note_on_c, 1, 78, 0
8, 147809, Note_on_c, 1, 74, 0
8, 147840, Note_on_c, 1, 76, 80
8, 147840, Note_on_c, 1, 69, 80
8, 148019, Note_on_c, 1, 76, 0
8, 148019, Note_on_c, 1, 69, 0
8, 148080, Note_on_c, 1, 66, 80
8, 148080, Note_on_c, 1, 74, 80
8, 148289, Note_on_c, 1, 66, 0
8, 148289, Note_on_c, 1, 74, 0
8, 148320, Note_on_c, 1, 66, 80
8, 148320, Note_on_c, 1, 74, 80
8, 148529, Note_on_c, 1, 66, 0
8, 148529, Note_on_c, 1, 74, 0
8, 148560, Note_on_c, 1, 76, 80
8, 148560, Note_on_c, 1, 69, 80
8, 148769, Note_on_c, 1, 76, 0
8, 148769, Note_on_c, 1, 69, 0
8, 148800, Note_on_c, 1, 74, 80
8, 148800, Note_on_c, 1, 78, 80
8, 148979, Note_on_c, 1, 74, 0
8, 148979, Note_on_c, 1, 78, 0
8, 149040, Note_on_c, 1, 76, 80
8, 149040, Note_on_c, 1, 69, 80
8, 149399, Note_on_c, 1, 76, 0
8, 149399, Note_on_c, 1, 69, 0
8, 149400, Note_on_c, 1, 66, 80
8, 149400, Note_on_c, 1, 74, 80
8, 149504, Note_on_c, 1, 66, 0
8, 149504, Note_on_c, 1, 74, 0
8, 149520, Note_on_c, 1, 66, 80
8, 149520, Note_on_c, 1, 74, 80
8, 149609, Note_on_c, 1, 66, 0
8, 149609, Note_on_c, 1, 74, 0
8, 149640, Note_on_c, 1, 78, 80
8, 149640, Note_on_c, 1, 81, 80
8, 149759, Note_on_c, 1, 78, 0
8, 149759, Note_on_c, 1, 81, 0
8, 149760, Note_on_c, 1, 76, 80
8, 149760, Note_on_c, 1, 79, 80
8, 149879, Note_on_c, 1, 76, 0
8, 149879, Note_on_c, 1, 79, 0
8, 149880, Note_on_c, 1, 74, 80
8, 149880, Note_on_c, 1, 78, 80
8, 149984, Note_on_c, 1, 74, 0
8, 149984, Note_on_c, 1, 78, 0
8, 150000, Note_on_c, 1, 73, 92
8, 150000, Note_on_c, 1, 76, 92
8, 150060, Control_c, 1, 11, 107
8, 150464, Note_on_c, 1, 73, 0
8, 150464, Note_on_c, 1, 76, 0
8, 150478, Control_c, 1, 11, 127
8, 150480, Note_on_c, 1, 74, 80
8, 150480, Note_on_c, 1, 78, 80
8, 150719, Note_on_c, 1, 74, 0
8, 150719, Note_on_c, 1, 78, 0
8, 150720, Note_on_c, 1, 74, 80
8, 150720, Note_on_c, 1, 66, 80
8, 150944, Note_on_c, 1, 74, 0
8, 150944, Note_on_c, 1, 66, 0
8, 150960, Note_on_c, 1, 76, 80
8, 150960, Note_on_c, 1, 73, 80
8, 151199, Note_on_c, 1, 76, 0
8, 151199, Note_on_c, 1, 73, 0
8, 151200, Note_on_c, 1, 74, 80
8, 151200, Note_on_c, 1, 78, 80
8, 151319, Note_on_c, 1, 74, 0
8, 151319, Note_on_c, 1, 78, 0
8, 151320, Note_on_c, 1, 76, 80
8, 151320, Note_on_c, 1, 79, 80
8, 151439, Note_on_c, 1, 76, 0
8, 151439, Note_on_c, 1, 79, 0
8, 151440, Note_on_c, 1, 74, 80
8, 151440, Note_on_c, 1, 78, 80
8, 151664, Note_on_c, 1, 74, 0
8, 151664, Note_on_c, 1, 78, 0
8, 151680, Note_on_c, 1, 74, 80
8, 151859, Note_on_c, 1, 74, 0
8, 151920, Note_on_c, 1, 73, 80
8, 151920, Note_on_c, 1, 76, 80
8, 152159, Note_on_c, 1, 73, 0
8, 152159, Note_on_c, 1, 76, 0
8, 152160, Note_on_c, 1, 78, 80
8, 152160, Note_on_c, 1, 74, 80
8, 152279, Note_on_c, 1, 78, 0
8, 152279, Note_on_c, 1, 74, 0
8, 152280, Note_on_c, 1, 79, 80
8, 152280, Note_on_c, 1, 76, 80
8, 152384, Note_on_c, 1, 79, 0
8, 152384, Note_on_c, 1, 76, 0
8, 152400, Note_on_c, 1, 73, 80
8, 152400, Note_on_c, 1, 78, 80
8, 152624, Note_on_c, 1, 73, 0
8, 152639, Note_on_c, 1, 78, 0
8, 152640, Note_on_c, 1, 73, 80
8, 152640, Note_on_c, 1, 76, 80
8, 152864, Note_on_c, 1, 73, 0
8, 152864, Note_on_c, 1, 76, 0
8, 152880, Note_on_c, 1, 71, 80
8, 152880, Note_on_c, 1, 74, 80
8, 153059, Note_on_c, 1, 71, 0
8, 153059, Note_on_c, 1, 74, 0
8, 153120, Note_on_c, 1, 76, 80
8, 153120, Note_on_c, 1, 68, 80
8, 153299, Note_on_c, 1, 76, 0
8, 153299, Note_on_c, 1, 68, 0
8, 153360, Note_on_c, 1, 69, 80
8, 153539, Note_on_c, 1, 69, 0
8, 153600, Note_on_c, 1, 78, 80
8, 153600, Note_on_c, 1, 74, 80
8, 154064, Note_on_c, 1, 78, 0
8, 154064, Note_on_c, 1, 74, 0
8, 154080, Note_on_c, 1, 74, 80
8, 154080, Note_on_c, 1, 78, 80
8, 154289, Note_on_c, 1, 74, 0
8, 154289, Note_on_c, 1, 78, 0
8, 154320, Note_on_c, 1, 79, 80
8, 154320, Note_on_c, 1, 76, 80
8, 154529, Note_on_c, 1, 79, 0
8, 154529, Note_on_c, 1, 76, 0
8, 154560, Note_on_c, 1, 78, 80
8, 154560, Note_on_c, 1, 81, 80
8, 154739, Note_on_c, 1, 78, 0
8, 154739, Note_on_c, 1, 81, 0
8, 154800, Note_on_c, 1, 78, 80
8, 154800, Note_on_c, 1, 81, 80
8, 155039, Note_on_c, 1, 78, 0
8, 155039, Note_on_c, 1, 81, 0
8, 155040, Note_on_c, 1, 79, 80
8, 155040, Note_on_c, 1, 76, 80
8, 155264, Note_on_c, 1, 79, 0
8, 155264, Note_on_c, 1, 76, 0
8, 155280, Note_on_c, 1, 78, 80
8, 155280, Note_on_c, 1, 74, 80
8, 155489, Note_on_c, 1, 78, 0
8, 155489, Note_on_c, 1, 74, 0
8, 155520, Note_on_c, 1, 69, 80
8, 155520, Note_on_c, 1, 76, 80
8, 155699, Note_on_c, 1, 69, 0
8, 155699, Note_on_c, 1, 76, 0
8, 155760, Note_on_c, 1, 74, 80
8, 155760, Note_on_c, 1, 66, 80
8, 155984, Note_on_c, 1, 74, 0
8, 155984, Note_on_c, 1, 66, 0
8, 156000, Note_on_c, 1, 74, 80
8, 156000, Note_on_c, 1, 66, 80
8, 156209, Note_on_c, 1, 74, 0
8, 156209, Note_on_c, 1, 66, 0
8, 156240, Note_on_c, 1, 69, 80
8, 156240, Note_on_c, 1, 76, 80
8, 156449, Note_on_c, 1, 69, 0
8, 156449, Note_on_c, 1, 76, 0
8, 156480, Note_on_c, 1, 74, 80
8, 156480, Note_on_c, 1, 78, 80
8, 156659, Note_on_c, 1, 74, 0
8, 156659, Note_on_c, 1, 78, 0
8, 156720, Note_on_c, 1, 69, 80
8, 156720, Note_on_c, 1, 76, 80
8, 157079, Note_on_c, 1, 69, 0
8, 157079, Note_on_c, 1, 76, 0
8, 157080, Note_on_c, 1, 74, 80
8, 157080, Note_on_c, 1, 66, 80
8, 157184, Note_on_c, 1, 74, 0
8, 157184, Note_on_c, 1, 66, 0
8, 157200, Note_on_c, 1, 74, 80
8, 157200, Note_on_c, 1, 66, 80
8, 157424, Note_on_c, 1, 74, 0
8, 157424, Note_on_c, 1, 66, 0
8, 157440, Note_on_c, 1, 81, 80
8, 157440, Note_on_c, 1, 78, 80
8, 157679, Note_on_c, 1, 81, 0
8, 157679, Note_on_c, 1, 78, 0
8, 157680, Note_on_c, 1, 76, 80
8, 157680, Note_on_c, 1, 79, 80
8, 158039, Note_on_c, 1, 76, 0
8, 158039, Note_on_c, 1, 79, 0
8, 158040, Note_on_c, 1, 78, 80
8, 158040, Note_on_c, 1, 74, 80
8, 158144, Note_on_c, 1, 78, 0
8, 158144, Note_on_c, 1, 74, 0
8, 158160, Note_on_c, 1, 74, 80
8, 158160, Note_on_c, 1, 78, 80
8, 158384, Note_on_c, 1, 74, 0
8, 158384, Note_on_c, 1, 78, 0
8, 158400, Note_on_c, 1, 86, 80
8, 158400, Note_on_c, 1, 83, 80
8, 158624, Note_on_c, 1, 86, 0
8, 158624, Note_on_c, 1, 83, 0
8, 158640, Note_on_c, 1, 81, 80
8, 158640, Note_on_c, 1, 84, 80
8, 158999, Note_on_c, 1, 81, 0
8, 158999, Note_on_c, 1, 84, 0
8, 159000, Note_on_c, 1, 79, 80
8, 159000, Note_on_c, 1, 83, 80
8, 159104, Note_on_c, 1, 79, 0
8, 159104, Note_on_c, 1, 83, 0
8, 159120, Note_on_c, 1, 83, 80
8, 159120, Note_on_c, 1, 79, 80
8, 159344, Note_on_c, 1, 83, 0
8, 159344, Note_on_c, 1, 79, 0
8, 159360, Note_on_c, 1, 79, 80
8, 159360, Note_on_c, 1, 71, 80
8, 159584, Note_on_c, 1, 71, 0
8, 159599, Note_on_c, 1, 79, 0
8, 159600, Note_on_c, 1, 71, 80
8, 159600, Note_on_c, 1, 78, 80
8, 159959, Note_on_c, 1, 78, 0
8, 159960, Note_on_c, 1, 76, 80
8, 160064, Note_on_c, 1, 71, 0
8, 160064, Note_on_c, 1, 76, 0
8, 160080, Note_on_c, 1, 76, 80
8, 160080, Note_on_c, 1, 73, 80
8, 160304, Note_on_c, 1, 76, 0
8, 160304, Note_on_c, 1, 73, 0
8, 160320, Note_on_c, 1, 76, 80
8, 160320, Note_on_c, 1, 67, 80
8, 160439, Note_on_c, 1, 76, 0
8, 160439, Note_on_c, 1, 67, 0
8, 160440, Note_on_c, 1, 78, 80
8, 160440, Note_on_c, 1, 69, 80
8, 160544, Note_on_c, 1, 78, 0
8, 160544, Note_on_c, 1, 69, 0
8, 160560, Note_on_c, 1, 76, 80
8, 160560, Note_on_c, 1, 67, 80
8, 160919, Note_on_c, 1, 76, 0
8, 160919, Note_on_c, 1, 67, 0
8, 160920, Note_on_c, 1, 66, 80
8, 160920, Note_on_c, 1, 74, 80
8, 161024, Note_on_c, 1, 66, 0
8, 161024, Note_on_c, 1, 74, 0
8, 161040, Note_on_c, 1, 66, 80
8, 161040, Note_on_c, 1, 74, 80
8, 161159, Note_on_c, 1, 74, 0
8, 161160, Note_on_c, 1, 69, 80
8, 161264, Note_on_c, 1, 66, 0
8, 161279, Note_on_c, 1, 69, 0
8, 161280, Note_on_c, 1, 74, 80
8, 161280, Note_on_c, 1, 81, 80
8, 161399, Note_on_c, 1, 81, 0
8, 161400, Note_on_c, 1, 78, 80
8, 161504, Note_on_c, 1, 74, 0
8, 161504, Note_on_c, 1, 78, 0
8, 161520, Note_on_c, 1, 74, 80
8, 161520, Note_on_c, 1, 78, 80
8, 161879, Note_on_c, 1, 78, 0
8, 161880, Note_on_c, 1, 76, 80
8, 161984, Note_on_c, 1, 74, 0
8, 161984, Note_on_c, 1, 76, 0
8, 162000, Note_on_c, 1, 76, 80
8, 162000, Note_on_c, 1, 73, 80
8, 162224, Note_on_c, 1, 76, 0
8, 162240, Note_on_c, 1, 76, 80
8, 162464, Note_on_c, 1, 76, 0
8, 162480, Note_on_c, 1, 79, 80
8, 162839, Note_on_c, 1, 79, 0
8, 162840, Note_on_c, 1, 78, 80
8, 162944, Note_on_c, 1, 73, 0
8, 162944, Note_on_c, 1, 78, 0
8, 162960, Note_on_c, 1, 74, 80
8, 162960, Note_on_c, 1, 78, 80
8, 163184, Note_on_c, 1, 74, 0
8, 163184, Note_on_c, 1, 78, 0
8, 163200, Note_on_c, 1, 78, 80
8, 163200, Note_on_c, 1, 66, 80
8, 163424, Note_on_c, 1, 78, 0
8, 163424, Note_on_c, 1, 66, 0
8, 163440, Note_on_c, 1, 69, 80
8, 163440, Note_on_c, 1, 81, 80
8, 163799, Note_on_c, 1, 69, 0
8, 163799, Note_on_c, 1, 81, 0
8, 163800, Note_on_c, 1, 68, 80
8, 163800, Note_on_c, 1, 80, 80
8, 163904, Note_on_c, 1, 68, 0
8, 163904, Note_on_c, 1, 80, 0
8, 163920, Note_on_c, 1, 68, 80
8, 163920, Note_on_c, 1, 80, 80
8, 164144, Note_on_c, 1, 68, 0
8, 164144, Note_on_c, 1, 80, 0
8, 164160, Note_on_c, 1, 80, 80
8, 164160, Note_on_c, 1, 68, 80
8, 164384, Note_on_c, 1, 80, 0
8, 164384, Note_on_c, 1, 68, 0
8, 164400, Note_on_c, 1, 83, 80
8, 164400, Note_on_c, 1, 71, 80
8, 164759, Note_on_c, 1, 83, 0
8, 164759, Note_on_c, 1, 71, 0
8, 164760, Note_on_c, 1, 70, 80
8, 164760, Note_on_c, 1, 82, 80
8, 164864, Note_on_c, 1, 70, 0
8, 164864, Note_on_c, 1, 82, 0
8, 164880, Note_on_c, 1, 85, 80
8, 164880, Note_on_c, 1, 73, 80
8, 165239, Note_on_c, 1, 85, 0
8, 165239, Note_on_c, 1, 73, 0
8, 165240, Note_on_c, 1, 83, 80
8, 165240, Note_on_c, 1, 71, 80
8, 165344, Note_on_c, 1, 83, 0
8, 165344, Note_on_c, 1, 71, 0
8, 165360, Note_on_c, 1, 86, 80
8, 165360, Note_on_c, 1, 74, 80
8, 165719, Note_on_c, 1, 86, 0
8, 165719, Note_on_c, 1, 74, 0
8, 165720, Note_on_c, 1, 85, 80
8, 165720, Note_on_c, 1, 73, 80
8, 165824, Note_on_c, 1, 85, 0
8, 165824, Note_on_c, 1, 73, 0
8, 165840, Note_on_c, 1, 76, 80
8, 166199, Note_on_c, 1, 76, 0
8, 166200, Note_on_c, 1, 74, 80
8, 166304, Note_on_c, 1, 74, 0
8, 166320, Note_on_c, 1, 74, 80
8, 166320, Note_on_c, 1, 78, 80
8, 166544, Note_on_c, 1, 74, 0
8, 166560, Note_on_c, 1, 71, 80
8, 166679, Note_on_c, 1, 78, 0
8, 166680, Note_on_c, 1, 76, 80
8, 166784, Note_on_c, 1, 76, 0
8, 166800, Note_on_c, 1, 76, 80
8, 167024, Note_on_c, 1, 71, 0
8, 167040, Note_on_c, 1, 71, 80
8, 167159, Note_on_c, 1, 76, 0
8, 167160, Note_on_c, 1, 74, 80
8, 167264, Note_on_c, 1, 74, 0
8, 167280, Note_on_c, 1, 78, 80
8, 167504, Note_on_c, 1, 71, 0
8, 167520, Note_on_c, 1, 71, 80
8, 167639, Note_on_c, 1, 78, 0
8, 167640, Note_on_c, 1, 76, 80
8, 167879, Note_on_c, 1, 71, 0
8, 167879, Note_on_c, 1, 76, 0
8, 167880, Note_on_c, 1, 74, 80
8, 167999, Note_on_c, 1, 74, 0
8, 168000, Note_on_c, 1, 71, 80
8, 168119, Note_on_c, 1, 71, 0
8, 168120, Note_on_c, 1, 76, 80
8, 168479, Note_on_c, 1, 76, 0
8, 168480, Note_on_c, 1, 73, 80
8, 168719, Note_on_c, 1, 73, 0
8, 168720, Note_on_c, 1, 69, 80
8, 168959, Note_on_c, 1, 69, 0
8, 168960, Note_on_c, 1, 78, 80
8, 169184, Note_on_c, 1, 78, 0
8, 169200, Note_on_c, 1, 76, 80
8, 169424, Note_on_c, 1, 76, 0
8, 169440, Note_on_c, 1, 69, 80
8, 169440, Note_on_c, 1, 81, 80
8, 169904, Note_on_c, 1, 69, 0
8, 169904, Note_on_c, 1, 81, 0
8, 169920, Note_on_c, 1, 68, 80
8, 169920, Note_on_c, 1, 80, 80
8, 170144, Note_on_c, 1, 68, 0
8, 170144, Note_on_c, 1, 80, 0
8, 170160, Note_on_c, 1, 69, 80
8, 170160, Note_on_c, 1, 81, 80
8, 170249, Note_on_c, 1, 69, 0
8, 170249, Note_on_c, 1, 81, 0
8, 170280, Note_on_c, 1, 81, 80
8, 170280, Note_on_c, 1, 69, 80
8, 170339, Note_on_c, 1, 81, 0
8, 170339, Note_on_c, 1, 69, 0
8, 170340, Note_on_c, 1, 83, 80
8, 170340, Note_on_c, 1, 71, 80
8, 170391, Note_on_c, 1, 83, 0
8, 170391, Note_on_c, 1, 71, 0
8, 170400, Note_on_c, 1, 85, 80
8, 170400, Note_on_c, 1, 73, 80
8, 170489, Note_on_c, 1, 85, 0
8, 170489, Note_on_c, 1, 73, 0
8, 170520, Note_on_c, 1, 85, 80
8, 170520, Note_on_c, 1, 73, 80
8, 170579, Note_on_c, 1, 85, 0
8, 170579, Note_on_c, 1, 73, 0
8, 170580, Note_on_c, 1, 74, 80
8, 170580, Note_on_c, 1, 86, 80
8, 170631, Note_on_c, 1, 74, 0
8, 170631, Note_on_c, 1, 86, 0
8, 170640, Note_on_c, 1, 64, 80
8, 170640, Note_on_c, 1, 76, 80
8, 170729, Note_on_c, 1, 64, 0
8, 170729, Note_on_c, 1, 76, 0
8, 170760, Note_on_c, 1, 64, 80
8, 170760, Note_on_c, 1, 76, 80
8, 170819, Note_on_c, 1, 64, 0
8, 170819, Note_on_c, 1, 76, 0
8, 170820, Note_on_c, 1, 78, 80
8, 170820, Note_on_c, 1, 66, 80
8, 170871, Note_on_c, 1, 78, 0
8, 170871, Note_on_c, 1, 66, 0
8, 170880, Note_on_c, 1, 68, 80
8, 170880, Note_on_c, 1, 80, 80
8, 170969, Note_on_c, 1, 68, 0
8, 170969, Note_on_c, 1, 80, 0
8, 171000, Note_on_c, 1, 76, 80
8, 171000, Note_on_c, 1, 64, 80
8, 171039, Note_on_c, 1, 76, 0
8, 171039, Note_on_c, 1, 64, 0
8, 171040, Note_on_c, 1, 66, 80
8, 171040, Note_on_c, 1, 78, 80
8, 171079, Note_on_c, 1, 66, 0
8, 171079, Note_on_c, 1, 78, 0
8, 171080, Note_on_c, 1, 80, 80
8, 171080, Note_on_c, 1, 68, 80
8, 171113, Note_on_c, 1, 80, 0
8, 171113, Note_on_c, 1, 68, 0
8, 171120, Note_on_c, 1, 69, 92
8, 171120, Note_on_c, 1, 81, 92
8, 171180, Control_c, 1, 11, 107
8, 171584, Note_on_c, 1, 69, 0
8, 171584, Note_on_c, 1, 81, 0
8, 171598, Control_c, 1, 11, 127
8, 171600, Note_on_c, 1, 64, 80
8, 171600, Note_on_c, 1, 76, 80
8, 171779, Note_on_c, 1, 64, 0
8, 171779, Note_on_c, 1, 76, 0
8, 171840, Note_on_c, 1, 76, 80
8, 171840, Note_on_c, 1, 64, 80
8, 172019, Note_on_c, 1, 76, 0
8, 172019, Note_on_c, 1, 64, 0
8, 173760, Control_c, 1, 11, 69
8, 173880, Note_on_c, 1, 82, 80
8, 174119, Note_on_c, 1, 82, 0
8, 174120, Note_on_c, 1, 78, 80
8, 174224, Note_on_c, 1, 78, 0
8, 174240, Note_on_c, 1, 75, 80
8, 174329, Note_on_c, 1, 75, 0
8, 174360, Note_on_c, 1, 77, 80
8, 174449, Note_on_c, 1, 77, 0
8, 174480, Control_c, 1, 11, 69
8, 174480, Note_on_c, 1, 78, 80
8, 174510, Control_c, 1, 11, 74
8, 174540, Control_c, 1, 11, 79
8, 174570, Control_c, 1, 11, 84
8, 174600, Control_c, 1, 11, 88
8, 174630, Control_c, 1, 11, 93
8, 174660, Control_c, 1, 11, 98
8, 174690, Control_c, 1, 11, 103
8, 174719, Note_on_c, 1, 78, 0
8, 174720, Control_c, 1, 11, 108
8, 174720, Note_on_c, 1, 77, 80
8, 174750, Control_c, 1, 11, 113
8, 174780, Control_c, 1, 11, 117
8, 174810, Control_c, 1, 11, 122
8, 174824, Note_on_c, 1, 77, 0
8, 174838, Control_c, 1, 11, 127
8, 174840, Note_on_c, 1, 76, 80
8, 175079, Note_on_c, 1, 76, 0
8, 175080, Note_on_c, 1, 73, 80
8, 175080, Note_on_c, 1, 85, 80
8, 175184, Note_on_c, 1, 73, 0
8, 175184, Note_on_c, 1, 85, 0
8, 175200, Note_on_c, 1, 81, 80
8, 175200, Note_on_c, 1, 69, 80
8, 175289, Note_on_c, 1, 81, 0
8, 175289, Note_on_c, 1, 69, 0
8, 175320, Note_on_c, 1, 71, 80
8, 175320, Note_on_c, 1, 83, 80
8, 175409, Note_on_c, 1, 71, 0
8, 175409, Note_on_c, 1, 83, 0
8, 175440, Note_on_c, 1, 73, 80
8, 175440, Note_on_c, 1, 85, 80
8, 175679, Note_on_c, 1, 73, 0
8, 175679, Note_on_c, 1, 85, 0
8, 175680, Note_on_c, 1, 71, 80
8, 175680, Note_on_c, 1, 83, 80
8, 175919, Note_on_c, 1, 71, 0
8, 175919, Note_on_c, 1, 83, 0
8, 176160, Note_on_c, 1, 83, 80
8, 176160, Note_on_c, 1, 86, 80
8, 176339, Note_on_c, 1, 83, 0
8, 176339, Note_on_c, 1, 86, 0
8, 176640, Note_on_c, 1, 81, 80
8, 176640, Note_on_c, 1, 85, 80
8, 176819, Note_on_c, 1, 81, 0
8, 176819, Note_on_c, 1, 85, 0
8, 177360, Note_on_c, 1, 70, 92
8, 177939, Note_on_c, 1, 70, 0
8, 177960, Note_on_c, 1, 69, 92
8, 178049, Note_on_c, 1, 69, 0
8, 178080, Note_on_c, 1, 69, 92
8, 178169, Note_on_c, 1, 69, 0
8, 178200, Note_on_c, 1, 74, 92
8, 178289, Note_on_c, 1, 74, 0
8, 178320, Note_on_c, 1, 74, 92
8, 178409, Note_on_c, 1, 74, 0
8, 178440, Note_on_c, 1, 77, 92
8, 178529, Note_on_c, 1, 77, 0
8, 178560, Note_on_c, 1, 77, 92
8, 178649, Note_on_c, 1, 77, 0
8, 178680, Note_on_c, 1, 81, 92
8, 178769, Note_on_c, 1, 81, 0
8, 178800, Note_on_c, 1, 81, 92
8, 178889, Note_on_c, 1, 81, 0
8, 178920, Note_on_c, 1, 74, 92
8, 179009, Note_on_c, 1, 74, 0
8, 179040, Note_on_c, 1, 74, 92
8, 179129, Note_on_c, 1, 74, 0
8, 179160, Note_on_c, 1, 77, 92
8, 179249, Note_on_c, 1, 77, 0
8, 179280, Note_on_c, 1, 77, 92
8, 179369, Note_on_c, 1, 77, 0
8, 179400, Note_on_c, 1, 69, 92
8, 179489, Note_on_c, 1, 69, 0
8, 179520, Note_on_c, 1, 69, 92
8, 179609, Note_on_c, 1, 69, 0
8, 179640, Note_on_c, 1, 74, 92
8, 179729, Note_on_c, 1, 74, 0
8, 179760, Note_on_c, 1, 74, 92
8, 179849, Note_on_c, 1, 74, 0
8, 179880, Note_on_c, 1, 65, 92
8, 179969, Note_on_c, 1, 65, 0
8, 180000, Note_on_c, 1, 65, 92
8, 180089, Note_on_c, 1, 65, 0
8, 180120, Note_on_c, 1, 69, 92
8, 180209, Note_on_c, 1, 69, 0
8, 180240, Note_on_c, 1, 69, 92
8, 180329, Note_on_c, 1, 69, 0
8, 180360, Note_on_c, 1, 62, 92
8, 180449, Note_on_c, 1, 62, 0
8, 180480, Note_on_c, 1, 62, 92
8, 180569, Note_on_c, 1, 62, 0
8, 180600, Note_on_c, 1, 65, 92
8, 180600, Note_on_c, 1, 77, 92
8, 180689, Note_on_c, 1, 65, 0
8, 180689, Note_on_c, 1, 77, 0
8, 180720, Note_on_c, 1, 77, 92
8, 180720, Note_on_c, 1, 65, 92
8, 180809, Note_on_c, 1, 77, 0
8, 180809, Note_on_c, 1, 65, 0
8, 180840, Note_on_c, 1, 78, 92
8, 180840, Note_on_c, 1, 66, 92
8, 180929, Note_on_c, 1, 78, 0
8, 180929, Note_on_c, 1, 66, 0
8, 180960, Note_on_c, 1, 78, 92
8, 180960, Note_on_c, 1, 66, 92
8, 181049, Note_on_c, 1, 78, 0
8, 181049, Note_on_c, 1, 66, 0
8, 181080, Note_on_c, 1, 67, 92
8, 181080, Note_on_c, 1, 79, 92
8, 181169, Note_on_c, 1, 67, 0
8, 181169, Note_on_c, 1, 79, 0
8, 181200, Note_on_c, 1, 67, 92
8, 181200, Note_on_c, 1, 79, 92
8, 181289, Note_on_c, 1, 67, 0
8, 181289, Note_on_c, 1, 79, 0
8, 181320, Note_on_c, 1, 80, 92
8, 181320, Note_on_c, 1, 68, 92
8, 181409, Note_on_c, 1, 80, 0
8, 181409, Note_on_c, 1, 68, 0
8, 181440, Note_on_c, 1, 80, 92
8, 181440, Note_on_c, 1, 68, 92
8, 181529, Note_on_c, 1, 80, 0
8, 181529, Note_on_c, 1, 68, 0
8, 181560, Note_on_c, 1, 80, 92
8, 181649, Note_on_c, 1, 80, 0
8, 181680, Note_on_c, 1, 80, 92
8, 181680, Note_on_c, 1, 74, 92
8, 181769, Note_on_c, 1, 80, 0
8, 181769, Note_on_c, 1, 74, 0
8, 181800, Note_on_c, 1, 74, 92
8, 181800, Note_on_c, 1, 77, 92
8, 181889, Note_on_c, 1, 74, 0
8, 181889, Note_on_c, 1, 77, 0
8, 181920, Note_on_c, 1, 77, 92
8, 181920, Note_on_c, 1, 74, 92
8, 182099, Note_on_c, 1, 77, 0
8, 182099, Note_on_c, 1, 74, 0
8, 182160, Note_on_c, 1, 69, 92
8, 182160, Note_on_c, 1, 81, 92
8, 182339, Note_on_c, 1, 69, 0
8, 182339, Note_on_c, 1, 81, 0
8, 192480, Note_on_c, 1, 76, 80
8, 192480, Note_on_c, 1, 85, 80
8, 192659, Note_on_c, 1, 76, 0
8, 192659, Note_on_c, 1, 85, 0
8, 192720, Note_on_c, 1, 74, 80
8, 192720, Note_on_c, 1, 81, 80
8, 192824, Note_on_c, 1, 74, 0
8, 192824, Note_on_c, 1, 81, 0
8, 192840, Note_on_c, 1, 81, 80
8, 192840, Note_on_c, 1, 74, 80
8, 192944, Note_on_c, 1, 81, 0
8, 192944, Note_on_c, 1, 74, 0
8, 192960, Note_on_c, 1, 86, 80
8, 192960, Note_on_c, 1, 81, 80
8, 193199, Note_on_c, 1, 86, 0
8, 193199, Note_on_c, 1, 81, 0
8, 195840, Note_on_c, 1, 71, 44
8, 195840, Note_on_c, 1, 79, 44
8, 195959, Note_on_c, 1, 71, 0
8, 195959, Note_on_c, 1, 79, 0
8, 196080, Note_on_c, 1, 79, 80
8, 196080, Note_on_c, 1, 83, 80
8, 196199, Note_on_c, 1, 79, 0
8, 196199, Note_on_c, 1, 83, 0
8, 197520, Note_on_c, 1, 85, 80
8, 197520, Note_on_c, 1, 76, 80
8, 197699, Note_on_c, 1, 85, 0
8, 197699, Note_on_c, 1, 76, 0
8, 197760, Note_on_c, 1, 73, 38
8, 197984, Note_on_c, 1, 73, 0
8, 198000, Note_on_c, 1, 73, 38
8, 198239, Note_on_c, 1, 73, 0
8, 198240, Note_on_c, 1, 74, 38
8, 198479, Note_on_c, 1, 74, 0
8, 198480, Note_on_c, 1, 76, 38
8, 198704, Note_on_c, 1, 76, 0
8, 198720, Note_on_c, 1, 76, 38
8, 198959, Note_on_c, 1, 76, 0
8, 198960, Note_on_c, 1, 74, 38
8, 199199, Note_on_c, 1, 74, 0
8, 199200, Note_on_c, 1, 73, 38
8, 199439, Note_on_c, 1, 73, 0
8, 199440, Note_on_c, 1, 71, 38
8, 199664, Note_on_c, 1, 71, 0
8, 199680, Note_on_c, 1, 76, 38
8, 199904, Note_on_c, 1, 76, 0
8, 199920, Note_on_c, 1, 76, 38
8, 200159, Note_on_c, 1, 76, 0
8, 200160, Note_on_c, 1, 78, 38
8, 200399, Note_on_c, 1, 78, 0
8, 200400, Note_on_c, 1, 79, 38
8, 200624, Note_on_c, 1, 79, 0
8, 200640, Note_on_c, 1, 79, 38
8, 200879, Note_on_c, 1, 79, 0
8, 200880, Note_on_c, 1, 78, 38
8, 201119, Note_on_c, 1, 78, 0
8, 201120, Note_on_c, 1, 76, 38
8, 201359, Note_on_c, 1, 76, 0
8, 201360, Note_on_c, 1, 74, 38
8, 201584, Note_on_c, 1, 74, 0
8, 201600, Note_on_c, 1, 74, 32
8, 201779, Note_on_c, 1, 74, 0
8, 201960, Note_on_c, 1, 74, 32
8, 202049, Note_on_c, 1, 74, 0
8, 202080, Note_on_c, 1, 69, 32
8, 202259, Note_on_c, 1, 69, 0
8, 202440, Note_on_c, 1, 69, 32
8, 202529, Note_on_c, 1, 69, 0
8, 202560, Note_on_c, 1, 71, 32
8, 202739, Note_on_c, 1, 71, 0
8, 202920, Note_on_c, 1, 71, 32
8, 203009, Note_on_c, 1, 71, 0
8, 203040, Note_on_c, 1, 73, 32
8, 203219, Note_on_c, 1, 73, 0
8, 203400, Note_on_c, 1, 73, 32
8, 203489, Note_on_c, 1, 73, 0
8, 203520, Note_on_c, 1, 74, 32
8, 203699, Note_on_c, 1, 74, 0
8, 203880, Note_on_c, 1, 74, 32
8, 203969, Note_on_c, 1, 74, 0
8, 204000, Note_on_c, 1, 74, 32
8, 204179, Note_on_c, 1, 74, 0
8, 204360, Note_on_c, 1, 74, 32
8, 204449, Note_on_c, 1, 74, 0
8, 204480, Note_on_c, 1, 74, 32
8, 204659, Note_on_c, 1, 74, 0
8, 204840, Note_on_c, 1, 74, 32
8, 204929, Note_on_c, 1, 74, 0
8, 204960, Note_on_c, 1, 73, 32
8, 205199, Note_on_c, 1, 73, 0
8, 205440, Control_c, 1, 11, 89
8, 205920, Note_on_c, 1, 81, 68
8, 207119, Note_on_c, 1, 81, 0
8, 207120, Note_on_c, 1, 79, 68
8, 207344, Note_on_c, 1, 79, 0
8, 207360, Note_on_c, 1, 78, 68
8, 207839, Note_on_c, 1, 78, 0
8, 207840, Note_on_c, 1, 76, 68
8, 208079, Note_on_c, 1, 76, 0
8, 208080, Note_on_c, 1, 74, 68
8, 208304, Note_on_c, 1, 74, 0
8, 208320, Note_on_c, 1, 73, 68
8, 208679, Note_on_c, 1, 73, 0
8, 208680, Note_on_c, 1, 74, 68
8, 208784, Note_on_c, 1, 74, 0
8, 208800, Note_on_c, 1, 74, 68
8, 208904, Note_on_c, 1, 74, 0
8, 208920, Note_on_c, 1, 74, 68
8, 209039, Note_on_c, 1, 74, 0
8, 209040, Note_on_c, 1, 76, 68
8, 209159, Note_on_c, 1, 76, 0
8, 209160, Note_on_c, 1, 78, 68
8, 209264, Note_on_c, 1, 78, 0
8, 209280, Note_on_c, 1, 79, 68
8, 209519, Note_on_c, 1, 79, 0
8, 209520, Note_on_c, 1, 73, 68
8, 209759, Note_on_c, 1, 73, 0
8, 209760, Note_on_c, 1, 74, 68
8, 209999, Note_on_c, 1, 74, 0
8, 210000, Note_on_c, 1, 78, 68
8, 210224, Note_on_c, 1, 78, 0
8, 210240, Note_on_c, 1, 79, 68
8, 210359, Note_on_c, 1, 79, 0
8, 210360, Note_on_c, 1, 73, 68
8, 210479, Note_on_c, 1, 73, 0
8, 210480, Note_on_c, 1, 74, 68
8, 210599, Note_on_c, 1, 74, 0
8, 210600, Note_on_c, 1, 76, 68
8, 210719, Note_on_c, 1, 76, 0
8, 210720, Note_on_c, 1, 74, 68
8, 210959, Note_on_c, 1, 74, 0
8, 210960, Note_on_c, 1, 76, 68
8, 211079, Note_on_c, 1, 76, 0
8, 211080, Note_on_c, 1, 78, 68
8, 211184, Note_on_c, 1, 78, 0
8, 211200, Note_on_c, 1, 79, 68
8, 211319, Note_on_c, 1, 79, 0
8, 211320, Note_on_c, 1, 73, 68
8, 211439, Note_on_c, 1, 73, 0
8, 211440, Note_on_c, 1, 74, 68
8, 211559, Note_on_c, 1, 74, 0
8, 211560, Note_on_c, 1, 76, 68
8, 211679, Note_on_c, 1, 76, 0
8, 211680, Note_on_c, 1, 74, 68
8, 211919, Note_on_c, 1, 74, 0
8, 211920, Note_on_c, 1, 79, 68
8, 212160, Control_c, 1, 11, 89
8, 212236, Control_c, 1, 11, 90
8, 212279, Note_on_c, 1, 79, 0
8, 212280, Note_on_c, 1, 78, 68
8, 212312, Control_c, 1, 11, 91
8, 212387, Control_c, 1, 11, 92
8, 212399, Note_on_c, 1, 78, 0
8, 212400, Note_on_c, 1, 79, 68
8, 212463, Control_c, 1, 11, 93
8, 212519, Note_on_c, 1, 79, 0
8, 212520, Note_on_c, 1, 76, 68
8, 212539, Control_c, 1, 11, 94
8, 212615, Control_c, 1, 11, 95
8, 212639, Note_on_c, 1, 76, 0
8, 212640, Note_on_c, 1, 74, 68
8, 212691, Control_c, 1, 11, 96
8, 212759, Note_on_c, 1, 74, 0
8, 212760, Note_on_c, 1, 73, 68
8, 212766, Control_c, 1, 11, 97
8, 212842, Control_c, 1, 11, 98
8, 212879, Note_on_c, 1, 73, 0
8, 212880, Note_on_c, 1, 76, 68
8, 212918, Control_c, 1, 11, 99
8, 212994, Control_c, 1, 11, 100
8, 212999, Note_on_c, 1, 76, 0
8, 213000, Note_on_c, 1, 74, 68
8, 213069, Control_c, 1, 11, 101
8, 213104, Note_on_c, 1, 74, 0
8, 213120, Note_on_c, 1, 81, 68
8, 213145, Control_c, 1, 11, 102
8, 213221, Control_c, 1, 11, 103
8, 213297, Control_c, 1, 11, 104
8, 213359, Note_on_c, 1, 81, 0
8, 213373, Control_c, 1, 11, 105
8, 213448, Control_c, 1, 11, 106
8, 213480, Note_on_c, 1, 81, 68
8, 213524, Control_c, 1, 11, 107
8, 213584, Note_on_c, 1, 81, 0
8, 213600, Note_on_c, 1, 81, 68
8, 213600, Control_c, 1, 11, 108
8, 213676, Control_c, 1, 11, 109
8, 213752, Control_c, 1, 11, 110
8, 213827, Control_c, 1, 11, 111
8, 213839, Note_on_c, 1, 81, 0
8, 213903, Control_c, 1, 11, 112
8, 213960, Note_on_c, 1, 81, 68
8, 213979, Control_c, 1, 11, 113
8, 214055, Control_c, 1, 11, 114
8, 214064, Note_on_c, 1, 81, 0
8, 214080, Note_on_c, 1, 83, 68
8, 214131, Control_c, 1, 11, 115
8, 214206, Control_c, 1, 11, 116
8, 214282, Control_c, 1, 11, 117
8, 214319, Note_on_c, 1, 83, 0
8, 214358, Control_c, 1, 11, 118
8, 214434, Control_c, 1, 11, 119
8, 214440, Note_on_c, 1, 83, 68
8, 214509, Control_c, 1, 11, 120
8, 214544, Note_on_c, 1, 83, 0
8, 214560, Note_on_c, 1, 83, 68
8, 214585, Control_c, 1, 11, 121
8, 214661, Control_c, 1, 11, 122
8, 214737, Control_c, 1, 11, 123
8, 214799, Note_on_c, 1, 83, 0
8, 214813, Control_c, 1, 11, 124
8, 214888, Control_c, 1, 11, 125
8, 214920, Note_on_c, 1, 85, 68
8, 215024, Note_on_c, 1, 85, 0
8, 215038, Control_c, 1, 11, 127
8, 215040, Note_on_c, 1, 86, 44
8, 215159, Note_on_c, 1, 86, 0
8, 215160, Note_on_c, 1, 81, 44
8, 215279, Note_on_c, 1, 81, 0
8, 215280, Note_on_c, 1, 83, 44
8, 215399, Note_on_c, 1, 83, 0
8, 215400, Note_on_c, 1, 81, 44
8, 215519, Note_on_c, 1, 81, 0
8, 215520, Note_on_c, 1, 79, 44
8, 215639, Note_on_c, 1, 79, 0
8, 215640, Note_on_c, 1, 78, 44
8, 215759, Note_on_c, 1, 78, 0
8, 215760, Note_on_c, 1, 76, 44
8, 215879, Note_on_c, 1, 76, 0
8, 215880, Note_on_c, 1, 74, 44
8, 215984, Note_on_c, 1, 74, 0
8, 216000, Note_on_c, 1, 79, 44
8, 216359, Note_on_c, 1, 79, 0
8, 216360, Note_on_c, 1, 78, 44
8, 216464, Note_on_c, 1, 78, 0
8, 216480, Note_on_c, 1, 78, 44
8, 216584, Note_on_c, 1, 78, 0
8, 216600, Note_on_c, 1, 74, 53
8, 216600, Note_on_c, 1, 66, 53
8, 216719, Note_on_c, 1, 74, 0
8, 216719, Note_on_c, 1, 66, 0
8, 216720, Note_on_c, 1, 76, 62
8, 216720, Note_on_c, 1, 67, 62
8, 216839, Note_on_c, 1, 76, 0
8, 216839, Note_on_c, 1, 67, 0
8, 216840, Note_on_c, 1, 69, 71
8, 216840, Note_on_c, 1, 78, 71
8, 216944, Note_on_c, 1, 69, 0
8, 216944, Note_on_c, 1, 78, 0
8, 216960, Note_on_c, 1, 69, 80
8, 216960, Note_on_c, 1, 79, 80
8, 217199, Note_on_c, 1, 69, 0
8, 217199, Note_on_c, 1, 79, 0
8, 217200, Note_on_c, 1, 73, 80
8, 217320, Note_on_c, 1, 69, 80
8, 217424, Note_on_c, 1, 69, 0
8, 217439, Note_on_c, 1, 73, 0
8, 217440, Note_on_c, 1, 69, 80
8, 217440, Note_on_c, 1, 74, 80
8, 217679, Note_on_c, 1, 69, 0
8, 217679, Note_on_c, 1, 74, 0
8, 217680, Note_on_c, 1, 76, 80
8, 217799, Note_on_c, 1, 76, 0
8, 217800, Note_on_c, 1, 78, 80
8, 217800, Note_on_c, 1, 69, 80
8, 217904, Note_on_c, 1, 78, 0
8, 217904, Note_on_c, 1, 69, 0
8, 217920, Note_on_c, 1, 79, 80
8, 217920, Note_on_c, 1, 69, 80
8, 218039, Note_on_c, 1, 79, 0
8, 218040, Note_on_c, 1, 73, 80
8, 218159, Note_on_c, 1, 69, 0
8, 218159, Note_on_c, 1, 73, 0
8, 218160, Note_on_c, 1, 74, 80
8, 218279, Note_on_c, 1, 74, 0
8, 218280, Note_on_c, 1, 69, 80
8, 218280, Note_on_c, 1, 76, 80
8, 218384, Note_on_c, 1, 69, 0
8, 218399, Note_on_c, 1, 76, 0
8, 218400, Note_on_c, 1, 69, 80
8, 218400, Note_on_c, 1, 74, 80
8, 218639, Note_on_c, 1, 69, 0
8, 218639, Note_on_c, 1, 74, 0
8, 218640, Note_on_c, 1, 76, 80
8, 218759, Note_on_c, 1, 76, 0
8, 218760, Note_on_c, 1, 69, 80
8, 218760, Note_on_c, 1, 78, 80
8, 218864, Note_on_c, 1, 69, 0
8, 218864, Note_on_c, 1, 78, 0
8, 218880, Note_on_c, 1, 79, 80
8, 218880, Note_on_c, 1, 69, 80
8, 218999, Note_on_c, 1, 79, 0
8, 219000, Note_on_c, 1, 73, 80
8, 219119, Note_on_c, 1, 69, 0
8, 219119, Note_on_c, 1, 73, 0
8, 219120, Note_on_c, 1, 74, 80
8, 219239, Note_on_c, 1, 74, 0
8, 219240, Note_on_c, 1, 69, 80
8, 219240, Note_on_c, 1, 76, 80
8, 219344, Note_on_c, 1, 69, 0
8, 219359, Note_on_c, 1, 76, 0
8, 219360, Note_on_c, 1, 69, 80
8, 219360, Note_on_c, 1, 74, 80
8, 219479, Note_on_c, 1, 74, 0
8, 219480, Note_on_c, 1, 76, 80
8, 219599, Note_on_c, 1, 69, 0
8, 219599, Note_on_c, 1, 76, 0
8, 219600, Note_on_c, 1, 78, 80
8, 219719, Note_on_c, 1, 78, 0
8, 219720, Note_on_c, 1, 79, 80
8, 219720, Note_on_c, 1, 67, 80
8, 219959, Note_on_c, 1, 79, 0
8, 219959, Note_on_c, 1, 67, 0
8, 219960, Note_on_c, 1, 66, 80
8, 219960, Note_on_c, 1, 78, 80
8, 220079, Note_on_c, 1, 66, 0
8, 220079, Note_on_c, 1, 78, 0
8, 220080, Note_on_c, 1, 79, 80
8, 220080, Note_on_c, 1, 67, 80
8, 220199, Note_on_c, 1, 79, 0
8, 220199, Note_on_c, 1, 67, 0
8, 220200, Note_on_c, 1, 76, 80
8, 220200, Note_on_c, 1, 64, 80
8, 220319, Note_on_c, 1, 76, 0
8, 220319, Note_on_c, 1, 64, 0
8, 220320, Note_on_c, 1, 62, 80
8, 220320, Note_on_c, 1, 74, 80
8, 220439, Note_on_c, 1, 62, 0
8, 220439, Note_on_c, 1, 74, 0
8, 220440, Note_on_c, 1, 73, 80
8, 220559, Note_on_c, 1, 73, 0
8, 220560, Note_on_c, 1, 76, 80
8, 220679, Note_on_c, 1, 76, 0
8, 220680, Note_on_c, 1, 74, 80
8, 220784, Note_on_c, 1, 74, 0
8, 220800, Note_on_c, 1, 81, 80
8, 220800, Note_on_c, 1, 74, 80
8, 220979, Note_on_c, 1, 81, 0
8, 221039, Note_on_c, 1, 74, 0
8, 221040, Note_on_c, 1, 75, 80
8, 221160, Note_on_c, 1, 81, 80
8, 221249, Note_on_c, 1, 81, 0
8, 221279, Note_on_c, 1, 75, 0
8, 221280, Note_on_c, 1, 76, 80
8, 221280, Note_on_c, 1, 81, 80
8, 221459, Note_on_c, 1, 81, 0
8, 221519, Note_on_c, 1, 76, 0
8, 221520, Note_on_c, 1, 78, 80
8, 221640, Note_on_c, 1, 81, 80
8, 221729, Note_on_c, 1, 81, 0
8, 221744, Note_on_c, 1, 78, 0
8, 221760, Note_on_c, 1, 83, 80
8, 221760, Note_on_c, 1, 78, 80
8, 221999, Note_on_c, 1, 83, 0
8, 221999, Note_on_c, 1, 78, 0
8, 222000, Note_on_c, 1, 76, 80
8, 222120, Note_on_c, 1, 83, 80
8, 222224, Note_on_c, 1, 83, 0
8, 222239, Note_on_c, 1, 76, 0
8, 222240, Note_on_c, 1, 83, 80
8, 222240, Note_on_c, 1, 69, 80
8, 222479, Note_on_c, 1, 83, 0
8, 222479, Note_on_c, 1, 69, 0
8, 222480, Note_on_c, 1, 71, 80
8, 222599, Note_on_c, 1, 71, 0
8, 222600, Note_on_c, 1, 67, 80
8, 222600, Note_on_c, 1, 85, 80
8, 222704, Note_on_c, 1, 67, 0
8, 222704, Note_on_c, 1, 85, 0
8, 222720, Note_on_c, 1, 66, 80
8, 222720, Note_on_c, 1, 86, 80
8, 222839, Note_on_c, 1, 86, 0
8, 222840, Note_on_c, 1, 81, 80
8, 222959, Note_on_c, 1, 66, 0
8, 222959, Note_on_c, 1, 81, 0
8, 222960, Note_on_c, 1, 83, 80
8, 223079, Note_on_c, 1, 83, 0
8, 223080, Note_on_c, 1, 66, 80
8, 223080, Note_on_c, 1, 81, 80
8, 223199, Note_on_c, 1, 66, 0
8, 223199, Note_on_c, 1, 81, 0
8, 223200, Note_on_c, 1, 79, 80
8, 223200, Note_on_c, 1, 67, 80
8, 223319, Note_on_c, 1, 79, 0
8, 223320, Note_on_c, 1, 78, 80
8, 223439, Note_on_c, 1, 67, 0
8, 223439, Note_on_c, 1, 78, 0
8, 223440, Note_on_c, 1, 69, 80
8, 223440, Note_on_c, 1, 76, 80
8, 223559, Note_on_c, 1, 69, 0
8, 223559, Note_on_c, 1, 76, 0
8, 223560, Note_on_c, 1, 62, 80
8, 223560, Note_on_c, 1, 74, 80
8, 223664, Note_on_c, 1, 62, 0
8, 223664, Note_on_c, 1, 74, 0
8, 223680, Note_on_c, 1, 79, 80
8, 223680, Note_on_c, 1, 67, 80
8, 223919, Note_on_c, 1, 67, 0
8, 223920, Note_on_c, 1, 73, 80
8, 224039, Note_on_c, 1, 79, 0
8, 224039, Note_on_c, 1, 73, 0
8, 224040, Note_on_c, 1, 78, 80
8, 224040, Note_on_c, 1, 74, 80
8, 224144, Note_on_c, 1, 78, 0
8, 224144, Note_on_c, 1, 74, 0
8, 224160, Note_on_c, 1, 74, 80
8, 224160, Note_on_c, 1, 78, 80
8, 224399, Note_on_c, 1, 74, 0
8, 224399, Note_on_c, 1, 78, 0
8, 224520, Note_on_c, 1, 74, 80
8, 224520, Note_on_c, 1, 78, 80
8, 224624, Note_on_c, 1, 74, 0
8, 224624, Note_on_c, 1, 78, 0
8, 224640, Note_on_c, 1, 76, 80
8, 224640, Note_on_c, 1, 85, 80
8, 224879, Note_on_c, 1, 76, 0
8, 224879, Note_on_c, 1, 85, 0
8, 225000, Note_on_c, 1, 86, 80
8, 225000, Note_on_c, 1, 78, 80
8, 225104, Note_on_c, 1, 86, 0
8, 225104, Note_on_c, 1, 78, 0
8, 225120, Note_on_c, 1, 86, 80
8, 225120, Note_on_c, 1, 78, 80
8, 225359, Note_on_c, 1, 86, 0
8, 225359, Note_on_c, 1, 78, 0
8, 225480, Note_on_c, 1, 78, 80
8, 225480, Note_on_c, 1, 74, 80
8, 225584, Note_on_c, 1, 78, 0
8, 225584, Note_on_c, 1, 74, 0
8, 225600, Note_on_c, 1, 78, 80
8, 225600, Note_on_c, 1, 74, 80
8, 225839, Note_on_c, 1, 78, 0
8, 225839, Note_on_c, 1, 74, 0
8, 225960, Note_on_c, 1, 74, 80
8, 225960, Note_on_c, 1, 79, 80
8, 226064, Note_on_c, 1, 74, 0
8, 226064, Note_on_c, 1, 79, 0
8, 226080, Note_on_c, 1, 79, 80
8, 226080, Note_on_c, 1, 74, 80
8, 226319, Note_on_c, 1, 79, 0
8, 226319, Note_on_c, 1, 74, 0
8, 226440, Note_on_c, 1, 76, 80
8, 226440, Note_on_c, 1, 79, 80
8, 226544, Note_on_c, 1, 76, 0
8, 226544, Note_on_c, 1, 79, 0
8, 226560, Note_on_c, 1, 79, 80
8, 226560, Note_on_c, 1, 76, 80
8, 226799, Note_on_c, 1, 79, 0
8, 226799, Note_on_c, 1, 76, 0
8, 226920, Note_on_c, 1, 79, 80
8, 226920, Note_on_c, 1, 76, 80
8, 227024, Note_on_c, 1, 79, 0
8, 227024, Note_on_c, 1, 76, 0
8, 227040, Note_on_c, 1, 79, 80
8, 227040, Note_on_c, 1, 76, 80
8, 227279, Note_on_c, 1, 79, 0
8, 227279, Note_on_c, 1, 76, 0
8, 227400, Note_on_c, 1, 79, 80
8, 227400, Note_on_c, 1, 76, 80
8, 227504, Note_on_c, 1, 79, 0
8, 227504, Note_on_c, 1, 76, 0
8, 227520, Note_on_c, 1, 74, 80
8, 227520, Note_on_c, 1, 78, 80
8, 227759, Note_on_c, 1, 74, 0
8, 227759, Note_on_c, 1, 78, 0
8, 227880, Note_on_c, 1, 81, 80
8, 227880, Note_on_c, 1, 69, 80
8, 227984, Note_on_c, 1, 81, 0
8, 227984, Note_on_c, 1, 69, 0
8, 228000, Note_on_c, 1, 62, 80
8, 228000, Note_on_c, 1, 74, 80
8, 228239, Note_on_c, 1, 62, 0
8, 228239, Note_on_c, 1, 74, 0
8, 243840, Note_on_c, 1, 76, 80
8, 243840, Note_on_c, 1, 73, 80
8, 244064, Note_on_c, 1, 76, 0
8, 244064, Note_on_c, 1, 73, 0
8, 244080, Note_on_c, 1, 73, 80
8, 244080, Note_on_c, 1, 76, 80
8, 244304, Note_on_c, 1, 73, 0
8, 244304, Note_on_c, 1, 76, 0
8, 244320, Note_on_c, 1, 74, 80
8, 244320, Note_on_c, 1, 78, 80
8, 244544, Note_on_c, 1, 74, 0
8, 244544, Note_on_c, 1, 78, 0
8, 244560, Note_on_c, 1, 66, 80
8, 244560, Note_on_c, 1, 74, 80
8, 244784, Note_on_c, 1, 66, 0
8, 244784, Note_on_c, 1, 74, 0
8, 244800, Note_on_c, 1, 73, 80
8, 244800, Note_on_c, 1, 76, 80
8, 245039, Note_on_c, 1, 73, 0
8, 245039, Note_on_c, 1, 76, 0
8, 245040, Note_on_c, 1, 78, 80
8, 245040, Note_on_c, 1, 74, 80
8, 245159, Note_on_c, 1, 78, 0
8, 245159, Note_on_c, 1, 74, 0
8, 245160, Note_on_c, 1, 76, 80
8, 245160, Note_on_c, 1, 79, 80
8, 245264, Note_on_c, 1, 76, 0
8, 245264, Note_on_c, 1, 79, 0
8, 245280, Note_on_c, 1, 74, 80
8, 245280, Note_on_c, 1, 78, 80
8, 245519, Note_on_c, 1, 74, 0
8, 245519, Note_on_c, 1, 78, 0
8, 245520, Note_on_c, 1, 74, 80
8, 245520, Note_on_c, 1, 69, 80
8, 245744, Note_on_c, 1, 74, 0
8, 245744, Note_on_c, 1, 69, 0
8, 245760, Note_on_c, 1, 76, 80
8, 245760, Note_on_c, 1, 73, 80
8, 245999, Note_on_c, 1, 76, 0
8, 245999, Note_on_c, 1, 73, 0
8, 246000, Note_on_c, 1, 74, 80
8, 246000, Note_on_c, 1, 78, 80
8, 246119, Note_on_c, 1, 74, 0
8, 246119, Note_on_c, 1, 78, 0
8, 246120, Note_on_c, 1, 76, 80
8, 246120, Note_on_c, 1, 79, 80
8, 246224, Note_on_c, 1, 76, 0
8, 246224, Note_on_c, 1, 79, 0
8, 246240, Note_on_c, 1, 73, 80
8, 246240, Note_on_c, 1, 78, 80
8, 246464, Note_on_c, 1, 73, 0
8, 246464, Note_on_c, 1, 78, 0
8, 246480, Note_on_c, 1, 73, 80
8, 246480, Note_on_c, 1, 76, 80
8, 246704, Note_on_c, 1, 73, 0
8, 246704, Note_on_c, 1, 76, 0
8, 246720, Note_on_c, 1, 74, 80
8, 246720, Note_on_c, 1, 71, 80
8, 246944, Note_on_c, 1, 74, 0
8, 246944, Note_on_c, 1, 71, 0
8, 246960, Note_on_c, 1, 76, 80
8, 246960, Note_on_c, 1, 68, 80
8, 247184, Note_on_c, 1, 76, 0
8, 247184, Note_on_c, 1, 68, 0
8, 247200, Note_on_c, 1, 69, 80
8, 247424, Note_on_c, 1, 69, 0
8, 247440, Note_on_c, 1, 78, 80
8, 247440, Note_on_c, 1, 74, 80
8, 247904, Note_on_c, 1, 78, 0
8, 247904, Note_on_c, 1, 74, 0
8, 247920, Note_on_c, 1, 74, 80
8, 247920, Note_on_c, 1, 78, 80
8, 248144, Note_on_c, 1, 74, 0
8, 248144, Note_on_c, 1, 78, 0
8, 248160, Note_on_c, 1, 76, 92
8, 248160, Note_on_c, 1, 79, 92
8, 248384, Note_on_c, 1, 76, 0
8, 248384, Note_on_c, 1, 79, 0
8, 248400, Note_on_c, 1, 78, 80
8, 248400, Note_on_c, 1, 81, 80
8, 248624, Note_on_c, 1, 78, 0
8, 248624, Note_on_c, 1, 81, 0
8, 248640, Note_on_c, 1, 78, 80
8, 248640, Note_on_c, 1, 81, 80
8, 248879, Note_on_c, 1, 78, 0
8, 248879, Note_on_c, 1, 81, 0
8, 248880, Note_on_c, 1, 76, 71
8, 248880, Note_on_c, 1, 79, 71
8, 249119, Note_on_c, 1, 76, 0
8, 249119, Note_on_c, 1, 79, 0
8, 249120, Note_on_c, 1, 74, 62
8, 249120, Note_on_c, 1, 78, 62
8, 249359, Note_on_c, 1, 74, 0
8, 249359, Note_on_c, 1, 78, 0
8, 249360, Note_on_c, 1, 76, 53
8, 249360, Note_on_c, 1, 73, 53
8, 249584, Note_on_c, 1, 76, 0
8, 249584, Note_on_c, 1, 73, 0
8, 249600, Note_on_c, 1, 69, 44
8, 249600, Note_on_c, 1, 74, 44
8, 249824, Note_on_c, 1, 69, 0
8, 249824, Note_on_c, 1, 74, 0
8, 249840, Note_on_c, 1, 69, 44
8, 249840, Note_on_c, 1, 74, 44
8, 250064, Note_on_c, 1, 69, 0
8, 250079, Note_on_c, 1, 74, 0
8, 250080, Note_on_c, 1, 76, 44
8, 250080, Note_on_c, 1, 67, 44
8, 250199, Note_on_c, 1, 67, 0
8, 250200, Note_on_c, 1, 73, 44
8, 250304, Note_on_c, 1, 73, 0
8, 250319, Note_on_c, 1, 76, 0
8, 250320, Note_on_c, 1, 78, 44
8, 250320, Note_on_c, 1, 74, 44
8, 250544, Note_on_c, 1, 78, 0
8, 250544, Note_on_c, 1, 74, 0
8, 250560, Note_on_c, 1, 76, 44
8, 250560, Note_on_c, 1, 73, 44
8, 250799, Note_on_c, 1, 73, 0
8, 250800, Note_on_c, 1, 67, 44
8, 250919, Note_on_c, 1, 76, 0
8, 250919, Note_on_c, 1, 67, 0
8, 250920, Note_on_c, 1, 74, 44
8, 250920, Note_on_c, 1, 66, 44
8, 251024, Note_on_c, 1, 74, 0
8, 251024, Note_on_c, 1, 66, 0
8, 251040, Note_on_c, 1, 74, 44
8, 251040, Note_on_c, 1, 66, 44
8, 251264, Note_on_c, 1, 74, 0
8, 251264, Note_on_c, 1, 66, 0
8, 251280, Note_on_c, 1, 81, 44
8, 251280, Note_on_c, 1, 78, 44
8, 251519, Note_on_c, 1, 81, 0
8, 251519, Note_on_c, 1, 78, 0
8, 251520, Note_on_c, 1, 79, 44
8, 251520, Note_on_c, 1, 76, 44
8, 251879, Note_on_c, 1, 79, 0
8, 251879, Note_on_c, 1, 76, 0
8, 251880, Note_on_c, 1, 78, 44
8, 251880, Note_on_c, 1, 74, 44
8, 251984, Note_on_c, 1, 78, 0
8, 251984, Note_on_c, 1, 74, 0
8, 252000, Note_on_c, 1, 78, 44
8, 252000, Note_on_c, 1, 74, 44
8, 252224, Note_on_c, 1, 78, 0
8, 252224, Note_on_c, 1, 74, 0
8, 252240, Note_on_c, 1, 83, 44
8, 252240, Note_on_c, 1, 86, 44
8, 252479, Note_on_c, 1, 83, 0
8, 252479, Note_on_c, 1, 86, 0
8, 252480, Note_on_c, 1, 81, 44
8, 252480, Note_on_c, 1, 84, 44
8, 252839, Note_on_c, 1, 81, 0
8, 252839, Note_on_c, 1, 84, 0
8, 252840, Note_on_c, 1, 83, 44
8, 252840, Note_on_c, 1, 79, 44
8, 252944, Note_on_c, 1, 83, 0
8, 252944, Note_on_c, 1, 79, 0
8, 252960, Note_on_c, 1, 79, 44
8, 252960, Note_on_c, 1, 83, 44
8, 253184, Note_on_c, 1, 79, 0
8, 253184, Note_on_c, 1, 83, 0
8, 253200, Note_on_c, 1, 71, 44
8, 253200, Note_on_c, 1, 79, 44
8, 253319, Note_on_c, 1, 71, 0
8, 253319, Note_on_c, 1, 79, 0
8, 253320, Note_on_c, 1, 76, 44
8, 253320, Note_on_c, 1, 67, 44
8, 253439, Note_on_c, 1, 76, 0
8, 253439, Note_on_c, 1, 67, 0
8, 253440, Note_on_c, 1, 66, 44
8, 253440, Note_on_c, 1, 74, 44
8, 253559, Note_on_c, 1, 66, 0
8, 253559, Note_on_c, 1, 74, 0
8, 253560, Note_on_c, 1, 73, 44
8, 253560, Note_on_c, 1, 64, 44
8, 253679, Note_on_c, 1, 73, 0
8, 253679, Note_on_c, 1, 64, 0
8, 253680, Note_on_c, 1, 76, 44
8, 253680, Note_on_c, 1, 67, 44
8, 253799, Note_on_c, 1, 76, 0
8, 253799, Note_on_c, 1, 67, 0
8, 253800, Note_on_c, 1, 73, 44
8, 253800, Note_on_c, 1, 64, 44
8, 253919, Note_on_c, 1, 73, 0
8, 253919, Note_on_c, 1, 64, 0
8, 253920, Note_on_c, 1, 71, 44
8, 253920, Note_on_c, 1, 62, 44
8, 254039, Note_on_c, 1, 71, 0
8, 254039, Note_on_c, 1, 62, 0
8, 254040, Note_on_c, 1, 61, 44
8, 254040, Note_on_c, 1, 69, 44
8, 254159, Note_on_c, 1, 61, 0
8, 254159, Note_on_c, 1, 69, 0
8, 254160, Note_on_c, 1, 62, 44
8, 254160, Note_on_c, 1, 71, 44
8, 254279, Note_on_c, 1, 62, 0
8, 254279, Note_on_c, 1, 71, 0
8, 254280, Note_on_c, 1, 73, 44
8, 254280, Note_on_c, 1, 64, 44
8, 254384, Note_on_c, 1, 73, 0
8, 254384, Note_on_c, 1, 64, 0
8, 254400, Note_on_c, 1, 66, 44
8, 254400, Note_on_c, 1, 74, 44
8, 254519, Note_on_c, 1, 66, 0
8, 254519, Note_on_c, 1, 74, 0
8, 254520, Note_on_c, 1, 69, 44
8, 254520, Note_on_c, 1, 78, 44
8, 254639, Note_on_c, 1, 69, 0
8, 254639, Note_on_c, 1, 78, 0
8, 254640, Note_on_c, 1, 67, 44
8, 254640, Note_on_c, 1, 76, 44
8, 254759, Note_on_c, 1, 67, 0
8, 254759, Note_on_c, 1, 76, 0
8, 254760, Note_on_c, 1, 64, 44
8, 254760, Note_on_c, 1, 73, 44
8, 254879, Note_on_c, 1, 64, 0
8, 254879, Note_on_c, 1, 73, 0
8, 254880, Note_on_c, 1, 66, 44
8, 254880, Note_on_c, 1, 74, 44
8, 254984, Note_on_c, 1, 66, 0
8, 254984, Note_on_c, 1, 74, 0
8, 255000, Note_on_c, 1, 69, 44
8, 255119, Note_on_c, 1, 69, 0
8, 255120, Note_on_c, 1, 71, 44
8, 255239, Note_on_c, 1, 71, 0
8, 255240, Note_on_c, 1, 73, 44
8, 255344, Note_on_c, 1, 73, 0
8, 255360, Note_on_c, 1, 74, 44
8, 255479, Note_on_c, 1, 74, 0
8, 255480, Note_on_c, 1, 76, 44
8, 255584, Note_on_c, 1, 76, 0
8, 255600, Note_on_c, 1, 73, 44
8, 255719, Note_on_c, 1, 73, 0
8, 255720, Note_on_c, 1, 74, 44
8, 255824, Note_on_c, 1, 74, 0
8, 255840, Note_on_c, 1, 76, 44
8, 255959, Note_on_c, 1, 76, 0
8, 255960, Note_on_c, 1, 78, 44
8, 256064, Note_on_c, 1, 78, 0
8, 256080, Note_on_c, 1, 79, 44
8, 256199, Note_on_c, 1, 79, 0
8, 256200, Note_on_c, 1, 78, 44
8, 256304, Note_on_c, 1, 78, 0
8, 256320, Note_on_c, 1, 78, 44
8, 256439, Note_on_c, 1, 78, 0
8, 256440, Note_on_c, 1, 76, 44
8, 256544, Note_on_c, 1, 76, 0
8, 256560, Note_on_c, 1, 79, 44
8, 256679, Note_on_c, 1, 79, 0
8, 256680, Note_on_c, 1, 76, 44
8, 256784, Note_on_c, 1, 76, 0
8, 256800, Note_on_c, 1, 74, 44
8, 256919, Note_on_c, 1, 74, 0
8, 256920, Note_on_c, 1, 73, 44
8, 257024, Note_on_c, 1, 73, 0
8, 257040, Note_on_c, 1, 76, 44
8, 257159, Note_on_c, 1, 76, 0
8, 257160, Note_on_c, 1, 67, 44
8, 257264, Note_on_c, 1, 67, 0
8, 257280, Note_on_c, 1, 66, 44
8, 257519, Note_on_c, 1, 66, 0
8, 258720, Note_on_c, 1, 79, 44
8, 258839, Note_on_c, 1, 79, 0
8, 258840, Note_on_c, 1, 78, 44
8, 258944, Note_on_c, 1, 78, 0
8, 258960, Note_on_c, 1, 81, 44
8, 259079, Note_on_c, 1, 81, 0
8, 259080, Note_on_c, 1, 79, 44
8, 259184, Note_on_c, 1, 79, 0
8, 259200, Note_on_c, 1, 78, 44
8, 259319, Note_on_c, 1, 78, 0
8, 259320, Note_on_c, 1, 79, 44
8, 259424, Note_on_c, 1, 79, 0
8, 259440, Note_on_c, 1, 80, 44
8, 259559, Note_on_c, 1, 80, 0
8, 259560, Note_on_c, 1, 81, 44
8, 259664, Note_on_c, 1, 81, 0
8, 259680, Note_on_c, 1, 80, 44
8, 259799, Note_on_c, 1, 80, 0
8, 259800, Note_on_c, 1, 81, 44
8, 259904, Note_on_c, 1, 81, 0
8, 259920, Note_on_c, 1, 83, 44
8, 260039, Note_on_c, 1, 83, 0
8, 260040, Note_on_c, 1, 81, 44
8, 260144, Note_on_c, 1, 81, 0
8, 260160, Note_on_c, 1, 81, 44
8, 260279, Note_on_c, 1, 81, 0
8, 260280, Note_on_c, 1, 79, 44
8, 260384, Note_on_c, 1, 79, 0
8, 260400, Note_on_c, 1, 83, 44
8, 260519, Note_on_c, 1, 83, 0
8, 260520, Note_on_c, 1, 79, 44
8, 260624, Note_on_c, 1, 79, 0
8, 260640, Note_on_c, 1, 78, 44
8, 260759, Note_on_c, 1, 78, 0
8, 260760, Note_on_c, 1, 76, 44
8, 260864, Note_on_c, 1, 76, 0
8, 260880, Note_on_c, 1, 79, 44
8, 260999, Note_on_c, 1, 79, 0
8, 261000, Note_on_c, 1, 76, 44
8, 261104, Note_on_c, 1, 76, 0
8, 261120, Note_on_c, 1, 66, 44
8, 261239, Note_on_c, 1, 66, 0
8, 261240, Note_on_c, 1, 67, 44
8, 261344, Note_on_c, 1, 67, 0
8, 261360, Note_on_c, 1, 69, 44
8, 261479, Note_on_c, 1, 69, 0
8, 261480, Note_on_c, 1, 71, 44
8, 261584, Note_on_c, 1, 71, 0
8, 261600, Note_on_c, 1, 73, 44
8, 261719, Note_on_c, 1, 73, 0
8, 261720, Note_on_c, 1, 74, 44
8, 261824, Note_on_c, 1, 74, 0
8, 261840, Note_on_c, 1, 76, 44
8, 261959, Note_on_c, 1, 76, 0
8, 261960, Note_on_c, 1, 78, 44
8, 262064, Note_on_c, 1, 78, 0
8, 262080, Note_on_c, 1, 74, 44
8, 262199, Note_on_c, 1, 74, 0
8, 262200, Note_on_c, 1, 73, 44
8, 262304, Note_on_c, 1, 73, 0
8, 262320, Note_on_c, 1, 71, 44
8, 262439, Note_on_c, 1, 71, 0
8, 262440, Note_on_c, 1, 73, 44
8, 262544, Note_on_c, 1, 73, 0
8, 262560, Note_on_c, 1, 74, 44
8, 262679, Note_on_c, 1, 74, 0
8, 262680, Note_on_c, 1, 69, 44
8, 262784, Note_on_c, 1, 69, 0
8, 262800, Note_on_c, 1, 79, 44
8, 262919, Note_on_c, 1, 79, 0
8, 262920, Note_on_c, 1, 78, 44
8, 263024, Note_on_c, 1, 78, 0
8, 263040, Note_on_c, 1, 74, 44
8, 263159, Note_on_c, 1, 74, 0
8, 263160, Note_on_c, 1, 73, 44
8, 263264, Note_on_c, 1, 73, 0
8, 263280, Note_on_c, 1, 71, 44
8, 263399, Note_on_c, 1, 71, 0
8, 263400, Note_on_c, 1, 73, 44
8, 263519, Note_on_c, 1, 73, 0
8, 264000, Note_on_c, 1, 74, 44
8, 264119, Note_on_c, 1, 74, 0
8, 264120, Note_on_c, 1, 73, 44
8, 264224, Note_on_c, 1, 73, 0
8, 264240, Note_on_c, 1, 71, 44
8, 264359, Note_on_c, 1, 71, 0
8, 264360, Note_on_c, 1, 73, 44
8, 264479, Note_on_c, 1, 73, 0
8, 265200, Note_on_c, 1, 74, 44
8, 265319, Note_on_c, 1, 74, 0
8, 265320, Note_on_c, 1, 76, 44
8, 265439, Note_on_c, 1, 76, 0
8, 265680, Note_on_c, 1, 78, 44
8, 265799, Note_on_c, 1, 78, 0
8, 265800, Note_on_c, 1, 76, 44
8, 265919, Note_on_c, 1, 76, 0
8, 266160, Note_on_c, 1, 74, 44
8, 266279, Note_on_c, 1, 74, 0
8, 266280, Note_on_c, 1, 76, 44
8, 266384, Note_on_c, 1, 76, 0
8, 266400, Note_on_c, 1, 67, 44
8, 266519, Note_on_c, 1, 67, 0
8, 266520, Note_on_c, 1, 64, 44
8, 266624, Note_on_c, 1, 64, 0
8, 266640, Note_on_c, 1, 62, 44
8, 266759, Note_on_c, 1, 62, 0
8, 266760, Note_on_c, 1, 78, 44
8, 266864, Note_on_c, 1, 78, 0
8, 266880, Note_on_c, 1, 78, 44
8, 267104, Note_on_c, 1, 78, 0
8, 267120, Note_on_c, 1, 76, 44
8, 267239, Note_on_c, 1, 76, 0
8, 267240, Note_on_c, 1, 78, 44
8, 267359, Note_on_c, 1, 78, 0
8, 267600, Note_on_c, 1, 83, 44
8, 267719, Note_on_c, 1, 83, 0
8, 267720, Note_on_c, 1, 81, 44
8, 267839, Note_on_c, 1, 81, 0
8, 268080, Note_on_c, 1, 83, 44
8, 268199, Note_on_c, 1, 83, 0
8, 268200, Note_on_c, 1, 79, 44
8, 268319, Note_on_c, 1, 79, 0
8, 268560, Note_on_c, 1, 79, 44
8, 268679, Note_on_c, 1, 79, 0
8, 268680, Note_on_c, 1, 76, 44
8, 268799, Note_on_c, 1, 76, 0
8, 269040, Note_on_c, 1, 73, 44
8, 269159, Note_on_c, 1, 73, 0
8, 269160, Note_on_c, 1, 74, 44
8, 269279, Note_on_c, 1, 74, 0
8, 270480, Note_on_c, 1, 76, 80
8, 270480, Note_on_c, 1, 79, 80
8, 270599, Note_on_c, 1, 76, 0
8, 270599, Note_on_c, 1, 79, 0
8, 270600, Note_on_c, 1, 78, 80
8, 270600, Note_on_c, 1, 74, 80
8, 270704, Note_on_c, 1, 78, 0
8, 270704, Note_on_c, 1, 74, 0
8, 270720, Note_on_c, 1, 78, 80
8, 270720, Note_on_c, 1, 74, 80
8, 270839, Note_on_c, 1, 78, 0
8, 270839, Note_on_c, 1, 74, 0
8, 270840, Note_on_c, 1, 73, 80
8, 270840, Note_on_c, 1, 76, 80
8, 270944, Note_on_c, 1, 73, 0
8, 270944, Note_on_c, 1, 76, 0
8, 270960, Note_on_c, 1, 74, 80
8, 270960, Note_on_c, 1, 71, 80
8, 271079, Note_on_c, 1, 74, 0
8, 271079, Note_on_c, 1, 71, 0
8, 271080, Note_on_c, 1, 76, 80
8, 271080, Note_on_c, 1, 73, 80
8, 271184, Note_on_c, 1, 76, 0
8, 271184, Note_on_c, 1, 73, 0
8, 271200, Note_on_c, 1, 79, 80
8, 271200, Note_on_c, 1, 76, 80
8, 271319, Note_on_c, 1, 79, 0
8, 271319, Note_on_c, 1, 76, 0
8, 271320, Note_on_c, 1, 78, 80
8, 271320, Note_on_c, 1, 74, 80
8, 271424, Note_on_c, 1, 78, 0
8, 271424, Note_on_c, 1, 74, 0
8, 271440, Note_on_c, 1, 76, 80
8, 271440, Note_on_c, 1, 67, 80
8, 271559, Note_on_c, 1, 76, 0
8, 271559, Note_on_c, 1, 67, 0
8, 271560, Note_on_c, 1, 66, 80
8, 271560, Note_on_c, 1, 74, 80
8, 271664, Note_on_c, 1, 66, 0
8, 271664, Note_on_c, 1, 74, 0
8, 271680, Note_on_c, 1, 78, 80
8, 271680, Note_on_c, 1, 74, 80
8, 271799, Note_on_c, 1, 78, 0
8, 271799, Note_on_c, 1, 74, 0
8, 271800, Note_on_c, 1, 76, 80
8, 271800, Note_on_c, 1, 73, 80
8, 271904, Note_on_c, 1, 76, 0
8, 271904, Note_on_c, 1, 73, 0
8, 271920, Note_on_c, 1, 74, 80
8, 271920, Note_on_c, 1, 71, 80
8, 272039, Note_on_c, 1, 74, 0
8, 272039, Note_on_c, 1, 71, 0
8, 272040, Note_on_c, 1, 76, 80
8, 272040, Note_on_c, 1, 73, 80
8, 272144, Note_on_c, 1, 76, 0
8, 272144, Note_on_c, 1, 73, 0
8, 272160, Note_on_c, 1, 79, 80
8, 272160, Note_on_c, 1, 76, 80
8, 272279, Note_on_c, 1, 79, 0
8, 272279, Note_on_c, 1, 76, 0
8, 272280, Note_on_c, 1, 78, 80
8, 272280, Note_on_c, 1, 74, 80
8, 272384, Note_on_c, 1, 78, 0
8, 272384, Note_on_c, 1, 74, 0
8, 272400, Note_on_c, 1, 76, 80
8, 272400, Note_on_c, 1, 67, 80
8, 272519, Note_on_c, 1, 76, 0
8, 272519, Note_on_c, 1, 67, 0
8, 272520, Note_on_c, 1, 74, 80
8, 272520, Note_on_c, 1, 66, 80
8, 272624, Note_on_c, 1, 74, 0
8, 272624, Note_on_c, 1, 66, 0
8, 272640, Note_on_c, 1, 78, 80
8, 272640, Note_on_c, 1, 74, 80
8, 272759, Note_on_c, 1, 78, 0
8, 272759, Note_on_c, 1, 74, 0
8, 272760, Note_on_c, 1, 73, 80
8, 272760, Note_on_c, 1, 76, 80
8, 272864, Note_on_c, 1, 73, 0
8, 272864, Note_on_c, 1, 76, 0
8, 272880, Note_on_c, 1, 71, 80
8, 272880, Note_on_c, 1, 74, 80
8, 272999, Note_on_c, 1, 71, 0
8, 272999, Note_on_c, 1, 74, 0
8, 273000, Note_on_c, 1, 73, 80
8, 273000, Note_on_c, 1, 76, 80
8, 273104, Note_on_c, 1, 73, 0
8, 273104, Note_on_c, 1, 76, 0
8, 273120, Note_on_c, 1, 76, 80
8, 273120, Note_on_c, 1, 79, 80
8, 273239, Note_on_c, 1, 76, 0
8, 273239, Note_on_c, 1, 79, 0
8, 273240, Note_on_c, 1, 74, 80
8, 273240, Note_on_c, 1, 78, 80
8, 273344, Note_on_c, 1, 74, 0
8, 273344, Note_on_c, 1, 78, 0
8, 273360, Note_on_c, 1, 78, 80
8, 273360, Note_on_c, 1, 74, 80
8, 273479, Note_on_c, 1, 78, 0
8, 273479, Note_on_c, 1, 74, 0
8, 273480, Note_on_c, 1, 73, 80
8, 273480, Note_on_c, 1, 76, 80
8, 273584, Note_on_c, 1, 73, 0
8, 273584, Note_on_c, 1, 76, 0
8, 273600, Note_on_c, 1, 76, 80
8, 273600, Note_on_c, 1, 73, 80
8, 273719, Note_on_c, 1, 76, 0
8, 273719, Note_on_c, 1, 73, 0
8, 273720, Note_on_c, 1, 71, 80
8, 273720, Note_on_c, 1, 74, 80
8, 273824, Note_on_c, 1, 71, 0
8, 273824, Note_on_c, 1, 74, 0
8, 273840, Note_on_c, 1, 74, 80
8, 273840, Note_on_c, 1, 71, 80
8, 273959, Note_on_c, 1, 74, 0
8, 273959, Note_on_c, 1, 71, 0
8, 273960, Note_on_c, 1, 68, 80
8, 273960, Note_on_c, 1, 76, 80
8, 274064, Note_on_c, 1, 68, 0
8, 274064, Note_on_c, 1, 76, 0
8, 274080, Note_on_c, 1, 69, 80
8, 274199, Note_on_c, 1, 69, 0
8, 274200, Note_on_c, 1, 79, 80
8, 274200, Note_on_c, 1, 76, 80
8, 274304, Note_on_c, 1, 79, 0
8, 274304, Note_on_c, 1, 76, 0
8, 274320, Note_on_c, 1, 78, 80
8, 274320, Note_on_c, 1, 74, 80
8, 274439, Note_on_c, 1, 78, 0
8, 274439, Note_on_c, 1, 74, 0
8, 274440, Note_on_c, 1, 73, 80
8, 274440, Note_on_c, 1, 76, 80
8, 274544, Note_on_c, 1, 73, 0
8, 274544, Note_on_c, 1, 76, 0
8, 274560, Note_on_c, 1, 74, 80
8, 274560, Note_on_c, 1, 78, 80
8, 274679, Note_on_c, 1, 74, 0
8, 274679, Note_on_c, 1, 78, 0
8, 274680, Note_on_c, 1, 76, 80
8, 274680, Note_on_c, 1, 79, 80
8, 274784, Note_on_c, 1, 76, 0
8, 274784, Note_on_c, 1, 79, 0
8, 274800, Note_on_c, 1, 76, 80
8, 274800, Note_on_c, 1, 73, 80
8, 274919, Note_on_c, 1, 76, 0
8, 274919, Note_on_c, 1, 73, 0
8, 274920, Note_on_c, 1, 78, 80
8, 274920, Note_on_c, 1, 74, 80
8, 275024, Note_on_c, 1, 78, 0
8, 275024, Note_on_c, 1, 74, 0
8, 275040, Note_on_c, 1, 79, 80
8, 275040, Note_on_c, 1, 76, 80
8, 275159, Note_on_c, 1, 79, 0
8, 275159, Note_on_c, 1, 76, 0
8, 275160, Note_on_c, 1, 78, 80
8, 275160, Note_on_c, 1, 81, 80
8, 275264, Note_on_c, 1, 78, 0
8, 275264, Note_on_c, 1, 81, 0
8, 275280, Note_on_c, 1, 79, 80
8, 275280, Note_on_c, 1, 83, 80
8, 275399, Note_on_c, 1, 79, 0
8, 275399, Note_on_c, 1, 83, 0
8, 275400, Note_on_c, 1, 78, 80
8, 275400, Note_on_c, 1, 81, 80
8, 275504, Note_on_c, 1, 78, 0
8, 275504, Note_on_c, 1, 81, 0
8, 275520, Note_on_c, 1, 72, 80
8, 275520, Note_on_c, 1, 81, 80
8, 275639, Note_on_c, 1, 72, 0
8, 275639, Note_on_c, 1, 81, 0
8, 275640, Note_on_c, 1, 79, 80
8, 275640, Note_on_c, 1, 71, 80
8, 275744, Note_on_c, 1, 79, 0
8, 275744, Note_on_c, 1, 71, 0
8, 275760, Note_on_c, 1, 74, 80
8, 275760, Note_on_c, 1, 83, 80
8, 275879, Note_on_c, 1, 74, 0
8, 275879, Note_on_c, 1, 83, 0
8, 275880, Note_on_c, 1, 79, 80
8, 275880, Note_on_c, 1, 71, 80
8, 275984, Note_on_c, 1, 79, 0
8, 275984, Note_on_c, 1, 71, 0
8, 276000, Note_on_c, 1, 74, 80
8, 276000, Note_on_c, 1, 78, 80
8, 276119, Note_on_c, 1, 74, 0
8, 276119, Note_on_c, 1, 78, 0
8, 276120, Note_on_c, 1, 73, 80
8, 276120, Note_on_c, 1, 76, 80
8, 276224, Note_on_c, 1, 73, 0
8, 276224, Note_on_c, 1, 76, 0
8, 276240, Note_on_c, 1, 76, 80
8, 276240, Note_on_c, 1, 79, 80
8, 276359, Note_on_c, 1, 76, 0
8, 276359, Note_on_c, 1, 79, 0
8, 276360, Note_on_c, 1, 73, 80
8, 276360, Note_on_c, 1, 76, 80
8, 276464, Note_on_c, 1, 73, 0
8, 276464, Note_on_c, 1, 76, 0
8, 276480, Note_on_c, 1, 76, 80
8, 276480, Note_on_c, 1, 67, 80
8, 276599, Note_on_c, 1, 76, 0
8, 276599, Note_on_c, 1, 67, 0
8, 276600, Note_on_c, 1, 74, 80
8, 276600, Note_on_c, 1, 66, 80
8, 276704, Note_on_c, 1, 74, 0
8, 276704, Note_on_c, 1, 66, 0
8, 276720, Note_on_c, 1, 73, 80
8, 276720, Note_on_c, 1, 64, 80
8, 276839, Note_on_c, 1, 73, 0
8, 276839, Note_on_c, 1, 64, 0
8, 276840, Note_on_c, 1, 66, 80
8, 276840, Note_on_c, 1, 74, 80
8, 276944, Note_on_c, 1, 66, 0
8, 276944, Note_on_c, 1, 74, 0
8, 276960, Note_on_c, 1, 74, 92
8, 276960, Note_on_c, 1, 78, 92
8, 277079, Note_on_c, 1, 74, 0
8, 277079, Note_on_c, 1, 78, 0
8, 277080, Note_on_c, 1, 73, 92
8, 277080, Note_on_c, 1, 76, 92
8, 277199, Note_on_c, 1, 73, 0
8, 277199, Note_on_c, 1, 76, 0
8, 277200, Note_on_c, 1, 76, 92
8, 277200, Note_on_c, 1, 79, 92
8, 277304, Note_on_c, 1, 76, 0
8, 277304, Note_on_c, 1, 79, 0
8, 277320, Note_on_c, 1, 74, 92
8, 277320, Note_on_c, 1, 78, 92
8, 277424, Note_on_c, 1, 74, 0
8, 277424, Note_on_c, 1, 78, 0
8, 277440, Note_on_c, 1, 78, 92
8, 277440, Note_on_c, 1, 74, 92
8, 277559, Note_on_c, 1, 78, 0
8, 277559, Note_on_c, 1, 74, 0
8, 277560, Note_on_c, 1, 73, 92
8, 277560, Note_on_c, 1, 76, 92
8, 277784, Note_on_c, 1, 73, 0
8, 277784, Note_on_c, 1, 76, 0
8, 277800, Note_on_c, 1, 74, 92
8, 277800, Note_on_c, 1, 69, 92
8, 277904, Note_on_c, 1, 74, 0
8, 277904, Note_on_c, 1, 69, 0
8, 277920, Note_on_c, 1, 74, 92
8, 278144, Note_on_c, 1, 74, 0
8, 278160, Note_on_c, 1, 78, 92
8, 278160, Note_on_c, 1, 81, 92
8, 278399, Note_on_c, 1, 78, 0
8, 278399, Note_on_c, 1, 81, 0
8, 278400, Note_on_c, 1, 76, 92
8, 278400, Note_on_c, 1, 79, 92
8, 278759, Note_on_c, 1, 76, 0
8, 278759, Note_on_c, 1, 79, 0
8, 278760, Note_on_c, 1, 74, 92
8, 278760, Note_on_c, 1, 78, 92
8, 278864, Note_on_c, 1, 74, 0
8, 278864, Note_on_c, 1, 78, 0
8, 278880, Note_on_c, 1, 78, 92
8, 278880, Note_on_c, 1, 74, 92
8, 279104, Note_on_c, 1, 78, 0
8, 279104, Note_on_c, 1, 74, 0
8, 279120, Note_on_c, 1, 74, 92
8, 279120, Note_on_c, 1, 86, 92
8, 279359, Note_on_c, 1, 74, 0
8, 279359, Note_on_c, 1, 86, 0
8, 279360, Note_on_c, 1, 81, 92
8, 279360, Note_on_c, 1, 84, 92
8, 279719, Note_on_c, 1, 81, 0
8, 279719, Note_on_c, 1, 84, 0
8, 279720, Note_on_c, 1, 83, 92
8, 279720, Note_on_c, 1, 79, 92
8, 279824, Note_on_c, 1, 83, 0
8, 279824, Note_on_c, 1, 79, 0
8, 279840, Note_on_c, 1, 83, 92
8, 279840, Note_on_c, 1, 79, 92
8, 280064, Note_on_c, 1, 83, 0
8, 280064, Note_on_c, 1, 79, 0
8, 280080, Note_on_c, 1, 79, 92
8, 280199, Note_on_c, 1, 79, 0
8, 280200, Note_on_c, 1, 76, 92
8, 280319, Note_on_c, 1, 76, 0
8, 280320, Note_on_c, 1, 74, 92
8, 280439, Note_on_c, 1, 74, 0
8, 280440, Note_on_c, 1, 73, 92
8, 280559, Note_on_c, 1, 73, 0
8, 280560, Note_on_c, 1, 76, 92
8, 280679, Note_on_c, 1, 76, 0
8, 280680, Note_on_c, 1, 73, 92
8, 280799, Note_on_c, 1, 73, 0
8, 280800, Note_on_c, 1, 71, 92
8, 280919, Note_on_c, 1, 71, 0
8, 280920, Note_on_c, 1, 69, 92
8, 281039, Note_on_c, 1, 69, 0
8, 281040, Note_on_c, 1, 71, 92
8, 281159, Note_on_c, 1, 71, 0
8, 281160, Note_on_c, 1, 73, 92
8, 281264, Note_on_c, 1, 73, 0
8, 281280, Note_on_c, 1, 76, 92
8, 281399, Note_on_c, 1, 76, 0
8, 281400, Note_on_c, 1, 74, 92
8, 281519, Note_on_c, 1, 74, 0
8, 281520, Note_on_c, 1, 78, 92
8, 281639, Note_on_c, 1, 78, 0
8, 281640, Note_on_c, 1, 86, 92
8, 281640, Note_on_c, 1, 74, 92
8, 281759, Note_on_c, 1, 86, 0
8, 281759, Note_on_c, 1, 74, 0
8, 281760, Note_on_c, 1, 85, 92
8, 281760, Note_on_c, 1, 73, 92
8, 281879, Note_on_c, 1, 85, 0
8, 281879, Note_on_c, 1, 73, 0
8, 281880, Note_on_c, 1, 71, 92
8, 281880, Note_on_c, 1, 83, 92
8, 281999, Note_on_c, 1, 71, 0
8, 281999, Note_on_c, 1, 83, 0
8, 282000, Note_on_c, 1, 74, 92
8, 282000, Note_on_c, 1, 86, 92
8, 282119, Note_on_c, 1, 74, 0
8, 282119, Note_on_c, 1, 86, 0
8, 282120, Note_on_c, 1, 71, 92
8, 282120, Note_on_c, 1, 83, 92
8, 282224, Note_on_c, 1, 71, 0
8, 282224, Note_on_c, 1, 83, 0
8, 282240, Note_on_c, 1, 81, 92
8, 282240, Note_on_c, 1, 69, 92
8, 282359, Note_on_c, 1, 81, 0
8, 282359, Note_on_c, 1, 69, 0
8, 282360, Note_on_c, 1, 68, 92
8, 282360, Note_on_c, 1, 80, 92
8, 282479, Note_on_c, 1, 68, 0
8, 282479, Note_on_c, 1, 80, 0
8, 282480, Note_on_c, 1, 71, 92
8, 282480, Note_on_c, 1, 83, 92
8, 282599, Note_on_c, 1, 71, 0
8, 282599, Note_on_c, 1, 83, 0
8, 282600, Note_on_c, 1, 68, 92
8, 282600, Note_on_c, 1, 80, 92
8, 282719, Note_on_c, 1, 68, 0
8, 282719, Note_on_c, 1, 80, 0
8, 282720, Note_on_c, 1, 66, 92
8, 282720, Note_on_c, 1, 78, 92
8, 282839, Note_on_c, 1, 66, 0
8, 282839, Note_on_c, 1, 78, 0
8, 282840, Note_on_c, 1, 64, 92
8, 282840, Note_on_c, 1, 76, 92
8, 282959, Note_on_c, 1, 64, 0
8, 282959, Note_on_c, 1, 76, 0
8, 282960, Note_on_c, 1, 66, 92
8, 282960, Note_on_c, 1, 78, 92
8, 283079, Note_on_c, 1, 66, 0
8, 283079, Note_on_c, 1, 78, 0
8, 283080, Note_on_c, 1, 80, 92
8, 283080, Note_on_c, 1, 68, 92
8, 283184, Note_on_c, 1, 80, 0
8, 283184, Note_on_c, 1, 68, 0
8, 283200, Note_on_c, 1, 81, 92
8, 283200, Note_on_c, 1, 69, 92
8, 284279, Note_on_c, 1, 81, 0
8, 284279, Note_on_c, 1, 69, 0
8, 284280, Note_on_c, 1, 68, 92
8, 284280, Note_on_c, 1, 80, 92
8, 284399, Note_on_c, 1, 68, 0
8, 284399, Note_on_c, 1, 80, 0
8, 284400, Note_on_c, 1, 83, 92
8, 284400, Note_on_c, 1, 71, 92
8, 284519, Note_on_c, 1, 83, 0
8, 284519, Note_on_c, 1, 71, 0
8, 284520, Note_on_c, 1, 80, 92
8, 284520, Note_on_c, 1, 68, 92
8, 284639, Note_on_c, 1, 80, 0
8, 284639, Note_on_c, 1, 68, 0
8, 284640, Note_on_c, 1, 66, 92
8, 284640, Note_on_c, 1, 78, 92
8, 284759, Note_on_c, 1, 66, 0
8, 284759, Note_on_c, 1, 78, 0
8, 284760, Note_on_c, 1, 76, 92
8, 284760, Note_on_c, 1, 64, 92
8, 284879, Note_on_c, 1, 76, 0
8, 284879, Note_on_c, 1, 64, 0
8, 284880, Note_on_c, 1, 78, 92
8, 284880, Note_on_c, 1, 66, 92
8, 284999, Note_on_c, 1, 78, 0
8, 284999, Note_on_c, 1, 66, 0
8, 285000, Note_on_c, 1, 68, 92
8, 285000, Note_on_c, 1, 80, 92
8, 285104, Note_on_c, 1, 68, 0
8, 285104, Note_on_c, 1, 80, 0
8, 285120, Note_on_c, 1, 81, 92
8, 285120, Note_on_c, 1, 69, 92
8, 286064, Note_on_c, 1, 81, 0
8, 286064, Note_on_c, 1, 69, 0
8, 286080, Note_on_c, 1, 69, 92
8, 286080, Note_on_c, 1, 81, 92
8, 286439, Note_on_c, 1, 69, 0
8, 286439, Note_on_c, 1, 81, 0
8, 286560, Note_on_c, 1, 81, 92
8, 286560, Note_on_c, 1, 69, 92
8, 286919, Note_on_c, 1, 81, 0
8, 286919, Note_on_c, 1, 69, 0
8, 287040, Note_on_c, 1, 81, 92
8, 287040, Note_on_c, 1, 69, 92
8, 288959, Note_on_c, 1, 81, 0
8, 288959, Note_on_c, 1, 69, 0
8, 299280, Note_on_c, 1, 65, 32
8, 299280, Note_on_c, 1, 77, 32
8, 299369, Note_on_c, 1, 65, 0
8, 299369, Note_on_c, 1, 77, 0
8, 299400, Note_on_c, 1, 77, 32
8, 299400, Note_on_c, 1, 65, 32
8, 299984, Note_on_c, 1, 77, 0
8, 299984, Note_on_c, 1, 65, 0
8, 300000, Note_on_c, 1, 67, 32
8, 300000, Note_on_c, 1, 79, 32
8, 300089, Note_on_c, 1, 67, 0
8, 300089, Note_on_c, 1, 79, 0
8, 300120, Note_on_c, 1, 69, 32
8, 300120, Note_on_c, 1, 81, 32
8, 300479, Note_on_c, 1, 69, 0
8, 300479, Note_on_c, 1, 81, 0
8, 300480, Note_on_c, 1, 72, 32
8, 300480, Note_on_c, 1, 84, 32
8, 300704, Note_on_c, 1, 72, 0
8, 300704, Note_on_c, 1, 84, 0
8, 300720, Note_on_c, 1, 82, 32
8, 300720, Note_on_c, 1, 70, 32
8, 300809, Note_on_c, 1, 82, 0
8, 300809, Note_on_c, 1, 70, 0
8, 300840, Note_on_c, 1, 70, 32
8, 300840, Note_on_c, 1, 82, 32
8, 301424, Note_on_c, 1, 70, 0
8, 301424, Note_on_c, 1, 82, 0
8, 301440, Note_on_c, 1, 81, 32
8, 301440, Note_on_c, 1, 84, 32
8, 301529, Note_on_c, 1, 81, 0
8, 301529, Note_on_c, 1, 84, 0
8, 301560, Note_on_c, 1, 86, 32
8, 301560, Note_on_c, 1, 82, 32
8, 302144, Note_on_c, 1, 86, 0
8, 302144, Note_on_c, 1, 82, 0
8, 302160, Note_on_c, 1, 86, 32
8, 302160, Note_on_c, 1, 82, 32
8, 302249, Note_on_c, 1, 86, 0
8, 302249, Note_on_c, 1, 82, 0
8, 302280, Note_on_c, 1, 84, 32
8, 302280, Note_on_c, 1, 81, 32
8, 302864, Note_on_c, 1, 84, 0
8, 302864, Note_on_c, 1, 81, 0
8, 302880, Note_on_c, 1, 74, 32
8, 302880, Note_on_c, 1, 82, 32
8, 302969, Note_on_c, 1, 74, 0
8, 302969, Note_on_c, 1, 82, 0
8, 303000, Note_on_c, 1, 84, 32
8, 303000, Note_on_c, 1, 81, 32
8, 303584, Note_on_c, 1, 84, 0
8, 303584, Note_on_c, 1, 81, 0
8, 303600, Note_on_c, 1, 82, 32
8, 303600, Note_on_c, 1, 86, 32
8, 303689, Note_on_c, 1, 82, 0
8, 303689, Note_on_c, 1, 86, 0
8, 303720, Note_on_c, 1, 82, 32
8, 303720, Note_on_c, 1, 86, 32
8, 304304, Note_on_c, 1, 82, 0
8, 304304, Note_on_c, 1, 86, 0
8, 304320, Note_on_c, 1, 84, 32
8, 304320, Note_on_c, 1, 75, 32
8, 304409, Note_on_c, 1, 84, 0
8, 304409, Note_on_c, 1, 75, 0
8, 304440, Note_on_c, 1, 77, 32
8, 304440, Note_on_c, 1, 86, 32
8, 305024, Note_on_c, 1, 77, 0
8, 305024, Note_on_c, 1, 86, 0
8, 305040, Note_on_c, 1, 77, 32
8, 305040, Note_on_c, 1, 86, 32
8, 305129, Note_on_c, 1, 77, 0
8, 305129, Note_on_c, 1, 86, 0
8, 305160, Note_on_c, 1, 84, 32
8, 305160, Note_on_c, 1, 77, 32
8, 305744, Note_on_c, 1, 84, 0
8, 305744, Note_on_c, 1, 77, 0
8, 305760, Note_on_c, 1, 86, 32
8, 305760, Note_on_c, 1, 77, 32
8, 305849, Note_on_c, 1, 86, 0
8, 305849, Note_on_c, 1, 77, 0
8, 305880, Note_on_c, 1, 84, 32
8, 305880, Note_on_c, 1, 77, 32
8, 306464, Note_on_c, 1, 84, 0
8, 306464, Note_on_c, 1, 77, 0
8, 306480, Note_on_c, 1, 82, 32
8, 306480, Note_on_c, 1, 77, 32
8, 306569, Note_on_c, 1, 82, 0
8, 306569, Note_on_c, 1, 77, 0
8, 306600, Note_on_c, 1, 77, 32
8, 306600, Note_on_c, 1, 82, 32
8, 307184, Note_on_c, 1, 77, 0
8, 307184, Note_on_c, 1, 82, 0
8, 307200, Note_on_c, 1, 81, 32
8, 307200, Note_on_c, 1, 84, 32
8, 307289, Note_on_c, 1, 81, 0
8, 307289, Note_on_c, 1, 84, 0
8, 307320, Note_on_c, 1, 86, 32
8, 307320, Note_on_c, 1, 82, 32
8, 307904, Note_on_c, 1, 86, 0
8, 307904, Note_on_c, 1, 82, 0
8, 307920, Note_on_c, 1, 84, 32
8, 307920, Note_on_c, 1, 81, 32
8, 308009, Note_on_c, 1, 84, 0
8, 308009, Note_on_c, 1, 81, 0
8, 308040, Note_on_c, 1, 81, 32
8, 308040, Note_on_c, 1, 84, 32
8, 308219, Note_on_c, 1, 81, 0
8, 308219, Note_on_c, 1, 84, 0
8, 308280, Note_on_c, 1, 74, 32
8, 308280, Note_on_c, 1, 82, 32
8, 308369, Note_on_c, 1, 74, 0
8, 308369, Note_on_c, 1, 82, 0
8, 308400, Note_on_c, 1, 82, 32
8, 308400, Note_on_c, 1, 74, 32
8, 308639, Note_on_c, 1, 82, 0
8, 308639, Note_on_c, 1, 74, 0
8, 309360, Note_on_c, 1, 81, 32
8, 309360, Note_on_c, 1, 84, 32
8, 309464, Note_on_c, 1, 81, 0
8, 309464, Note_on_c, 1, 84, 0
8, 309480, Note_on_c, 1, 84, 32
8, 309480, Note_on_c, 1, 81, 32
8, 310184, Note_on_c, 1, 84, 0
8, 310184, Note_on_c, 1, 81, 0
8, 310200, Note_on_c, 1, 86, 32
8, 310200, Note_on_c, 1, 82, 32
8, 310424, Note_on_c, 1, 86, 0
8, 310424, Note_on_c, 1, 82, 0
8, 310440, Note_on_c, 1, 82, 32
8, 310440, Note_on_c, 1, 74, 32
8, 310544, Note_on_c, 1, 82, 0
8, 310544, Note_on_c, 1, 74, 0
8, 310560, Note_on_c, 1, 81, 32
8, 310560, Note_on_c, 1, 84, 32
8, 310784, Note_on_c, 1, 81, 0
8, 310784, Note_on_c, 1, 84, 0
8, 310800, Note_on_c, 1, 81, 32
8, 310800, Note_on_c, 1, 84, 32
8, 310904, Note_on_c, 1, 81, 0
8, 310904, Note_on_c, 1, 84, 0
8, 310920, Note_on_c, 1, 81, 32
8, 310920, Note_on_c, 1, 84, 32
8, 311399, Note_on_c, 1, 81, 0
8, 311399, Note_on_c, 1, 84, 0
8, 311400, Note_on_c, 1, 82, 32
8, 311400, Note_on_c, 1, 86, 32
8, 311519, Note_on_c, 1, 82, 0
8, 311519, Note_on_c, 1, 86, 0
8, 311520, Note_on_c, 1, 81, 32
8, 311520, Note_on_c, 1, 84, 32
8, 311624, Note_on_c, 1, 81, 0
8, 311624, Note_on_c, 1, 84, 0
8, 311640, Note_on_c, 1, 82, 32
8, 311640, Note_on_c, 1, 86, 32
8, 311819, Note_on_c, 1, 82, 0
8, 311819, Note_on_c, 1, 86, 0
8, 311880, Note_on_c, 1, 82, 32
8, 311880, Note_on_c, 1, 74, 32
8, 311969, Note_on_c, 1, 82, 0
8, 311969, Note_on_c, 1, 74, 0
8, 312000, Note_on_c, 1, 81, 32
8, 312000, Note_on_c, 1, 84, 32
8, 312119, Note_on_c, 1, 81, 0
8, 312119, Note_on_c, 1, 84, 0
8, 312120, Note_on_c, 1, 82, 32
8, 312120, Note_on_c, 1, 86, 32
8, 312239, Note_on_c, 1, 82, 0
8, 312239, Note_on_c, 1, 86, 0
8, 312240, Note_on_c, 1, 84, 32
8, 312240, Note_on_c, 1, 81, 32
8, 312344, Note_on_c, 1, 84, 0
8, 312344, Note_on_c, 1, 81, 0
8, 312360, Note_on_c, 1, 86, 32
8, 312360, Note_on_c, 1, 82, 32
8, 312539, Note_on_c, 1, 86, 0
8, 312539, Note_on_c, 1, 82, 0
8, 312600, Note_on_c, 1, 82, 32
8, 312600, Note_on_c, 1, 74, 32
8, 312689, Note_on_c, 1, 82, 0
8, 312689, Note_on_c, 1, 74, 0
8, 312720, Note_on_c, 1, 81, 32
8, 312720, Note_on_c, 1, 84, 32
8, 312839, Note_on_c, 1, 81, 0
8, 312839, Note_on_c, 1, 84, 0
8, 312840, Note_on_c, 1, 82, 32
8, 312840, Note_on_c, 1, 86, 32
8, 312959, Note_on_c, 1, 82, 0
8, 312959, Note_on_c, 1, 86, 0
8, 312960, Note_on_c, 1, 81, 32
8, 312960, Note_on_c, 1, 84, 32
8, 313064, Note_on_c, 1, 81, 0
8, 313064, Note_on_c, 1, 84, 0
8, 313080, Note_on_c, 1, 86, 32
8, 313080, Note_on_c, 1, 82, 32
8, 313304, Note_on_c, 1, 86, 0
8, 313304, Note_on_c, 1, 82, 0
8, 313320, Note_on_c, 1, 81, 32
8, 313320, Note_on_c, 1, 84, 32
8, 313559, Note_on_c, 1, 81, 0
8, 313559, Note_on_c, 1, 84, 0
8, 313560, Note_on_c, 1, 79, 32
8, 313560, Note_on_c, 1, 82, 32
8, 313679, Note_on_c, 1, 79, 0
8, 313679, Note_on_c, 1, 82, 0
8, 313680, Note_on_c, 1, 77, 32
8, 313680, Note_on_c, 1, 81, 32
8, 313784, Note_on_c, 1, 77, 0
8, 313784, Note_on_c, 1, 81, 0
8, 313800, Note_on_c, 1, 79, 32
8, 313800, Note_on_c, 1, 82, 32
8, 314024, Note_on_c, 1, 79, 0
8, 314024, Note_on_c, 1, 82, 0
8, 314040, Note_on_c, 1, 76, 32
8, 314040, Note_on_c, 1, 84, 32
8, 314144, Note_on_c, 1, 76, 0
8, 314144, Note_on_c, 1, 84, 0
8, 314160, Note_on_c, 1, 65, 32
8, 314160, Note_on_c, 1, 77, 32
8, 314279, Note_on_c, 1, 65, 0
8, 314279, Note_on_c, 1, 77, 0
8, 314280, Note_on_c, 1, 79, 32
8, 314280, Note_on_c, 1, 67, 32
8, 314399, Note_on_c, 1, 79, 0
8, 314399, Note_on_c, 1, 67, 0
8, 314400, Note_on_c, 1, 69, 32
8, 314400, Note_on_c, 1, 81, 32
8, 314519, Note_on_c, 1, 69, 0
8, 314519, Note_on_c, 1, 81, 0
8, 314520, Note_on_c, 1, 70, 32
8, 314520, Note_on_c, 1, 82, 32
8, 314639, Note_on_c, 1, 70, 0
8, 314639, Note_on_c, 1, 82, 0
8, 314640, Note_on_c, 1, 72, 32
8, 314640, Note_on_c, 1, 84, 32
8, 314759, Note_on_c, 1, 72, 0
8, 314759, Note_on_c, 1, 84, 0
8, 314760, Note_on_c, 1, 86, 32
8, 314760, Note_on_c, 1, 74, 32
8, 314864, Note_on_c, 1, 86, 0
8, 314864, Note_on_c, 1, 74, 0
8, 314880, Note_on_c, 1, 74, 32
8, 314880, Note_on_c, 1, 86, 32
8, 315104, Note_on_c, 1, 74, 0
8, 315104, Note_on_c, 1, 86, 0
8, 315120, Note_on_c, 1, 86, 32
8, 315120, Note_on_c, 1, 82, 32
8, 315224, Note_on_c, 1, 86, 0
8, 315224, Note_on_c, 1, 82, 0
8, 315240, Note_on_c, 1, 86, 32
8, 315240, Note_on_c, 1, 82, 32
8, 315824, Note_on_c, 1, 86, 0
8, 315824, Note_on_c, 1, 82, 0
8, 315840, Note_on_c, 1, 82, 32
8, 315840, Note_on_c, 1, 84, 32
8, 315944, Note_on_c, 1, 82, 0
8, 315944, Note_on_c, 1, 84, 0
8, 315960, Note_on_c, 1, 82, 32
8, 315960, Note_on_c, 1, 86, 32
8, 316319, Note_on_c, 1, 86, 0
8, 316544, Note_on_c, 1, 82, 0
8, 316560, Note_on_c, 1, 82, 32
8, 316560, Note_on_c, 1, 77, 32
8, 316664, Note_on_c, 1, 82, 0
8, 316664, Note_on_c, 1, 77, 0
8, 316680, Note_on_c, 1, 75, 32
8, 316680, Note_on_c, 1, 82, 32
8, 316904, Note_on_c, 1, 75, 0
8, 316920, Note_on_c, 1, 77, 32
8, 317024, Note_on_c, 1, 77, 0
8, 317040, Note_on_c, 1, 79, 32
8, 317264, Note_on_c, 1, 82, 0
8, 317264, Note_on_c, 1, 79, 0
8, 317280, Note_on_c, 1, 86, 32
8, 317280, Note_on_c, 1, 79, 32
8, 317384, Note_on_c, 1, 86, 0
8, 317384, Note_on_c, 1, 79, 0
8, 317400, Note_on_c, 1, 84, 32
8, 317400, Note_on_c, 1, 79, 32
8, 317759, Note_on_c, 1, 79, 0
8, 317760, Note_on_c, 1, 75, 32
8, 317984, Note_on_c, 1, 84, 0
8, 317984, Note_on_c, 1, 75, 0
8, 318000, Note_on_c, 1, 82, 32
8, 318000, Note_on_c, 1, 74, 32
8, 318104, Note_on_c, 1, 82, 0
8, 318104, Note_on_c, 1, 74, 0
8, 318120, Note_on_c, 1, 82, 32
8, 318120, Note_on_c, 1, 74, 32
8, 318704, Note_on_c, 1, 82, 0
8, 318704, Note_on_c, 1, 74, 0
8, 318720, Note_on_c, 1, 81, 32
8, 318720, Note_on_c, 1, 84, 32
8, 318824, Note_on_c, 1, 81, 0
8, 318824, Note_on_c, 1, 84, 0
8, 318840, Note_on_c, 1, 86, 32
8, 318840, Note_on_c, 1, 82, 32
8, 319424, Note_on_c, 1, 86, 0
8, 319424, Note_on_c, 1, 82, 0
8, 319440, Note_on_c, 1, 81, 32
8, 319440, Note_on_c, 1, 84, 32
8, 319529, Note_on_c, 1, 81, 0
8, 319529, Note_on_c, 1, 84, 0
8, 319560, Note_on_c, 1, 84, 32
8, 319560, Note_on_c, 1, 81, 32
8, 319739, Note_on_c, 1, 84, 0
8, 319739, Note_on_c, 1, 81, 0
8, 319800, Note_on_c, 1, 74, 32
8, 319800, Note_on_c, 1, 82, 32
8, 319889, Note_on_c, 1, 74, 0
8, 319889, Note_on_c, 1, 82, 0
8, 319920, Note_on_c, 1, 82, 32
8, 319920, Note_on_c, 1, 74, 32
8, 320159, Note_on_c, 1, 82, 0
8, 320159, Note_on_c, 1, 74, 0
8, 322320, Note_on_c, 1, 65, 32
8, 322320, Note_on_c, 1, 77, 32
8, 322424, Note_on_c, 1, 65, 0
8, 322424, Note_on_c, 1, 77, 0
8, 322440, Note_on_c, 1, 65, 32
8, 322440, Note_on_c, 1, 77, 32
8, 323024, Note_on_c, 1, 65, 0
8, 323024, Note_on_c, 1, 77, 0
8, 323040, Note_on_c, 1, 79, 32
8, 323040, Note_on_c, 1, 67, 32
8, 323144, Note_on_c, 1, 79, 0
8, 323144, Note_on_c, 1, 67, 0
8, 323160, Note_on_c, 1, 81, 32
8, 323160, Note_on_c, 1, 69, 32
8, 323519, Note_on_c, 1, 81, 0
8, 323519, Note_on_c, 1, 69, 0
8, 323520, Note_on_c, 1, 84, 32
8, 323520, Note_on_c, 1, 72, 32
8, 323744, Note_on_c, 1, 84, 0
8, 323744, Note_on_c, 1, 72, 0
8, 323760, Note_on_c, 1, 82, 32
8, 323760, Note_on_c, 1, 70, 32
8, 323864, Note_on_c, 1, 82, 0
8, 323864, Note_on_c, 1, 70, 0
8, 323880, Note_on_c, 1, 82, 32
8, 323880, Note_on_c, 1, 70, 32
8, 324464, Note_on_c, 1, 82, 0
8, 324464, Note_on_c, 1, 70, 0
8, 324480, Note_on_c, 1, 81, 32
8, 324480, Note_on_c, 1, 84, 32
8, 324584, Note_on_c, 1, 81, 0
8, 324584, Note_on_c, 1, 84, 0
8, 324600, Note_on_c, 1, 82, 32
8, 324600, Note_on_c, 1, 86, 32
8, 325184, Note_on_c, 1, 82, 0
8, 325184, Note_on_c, 1, 86, 0
8, 325200, Note_on_c, 1, 86, 32
8, 325200, Note_on_c, 1, 82, 32
8, 325304, Note_on_c, 1, 86, 0
8, 325304, Note_on_c, 1, 82, 0
8, 325320, Note_on_c, 1, 81, 32
8, 325320, Note_on_c, 1, 84, 32
8, 325904, Note_on_c, 1, 81, 0
8, 325904, Note_on_c, 1, 84, 0
8, 325920, Note_on_c, 1, 74, 32
8, 325920, Note_on_c, 1, 82, 32
8, 326024, Note_on_c, 1, 74, 0
8, 326024, Note_on_c, 1, 82, 0
8, 326040, Note_on_c, 1, 81, 32
8, 326040, Note_on_c, 1, 84, 32
8, 326624, Note_on_c, 1, 81, 0
8, 326624, Note_on_c, 1, 84, 0
8, 326640, Note_on_c, 1, 86, 32
8, 326640, Note_on_c, 1, 82, 32
8, 326744, Note_on_c, 1, 86, 0
8, 326744, Note_on_c, 1, 82, 0
8, 326760, Note_on_c, 1, 82, 32
8, 326760, Note_on_c, 1, 86, 32
8, 327344, Note_on_c, 1, 82, 0
8, 327344, Note_on_c, 1, 86, 0
8, 327360, Note_on_c, 1, 75, 32
8, 327360, Note_on_c, 1, 84, 32
8, 327464, Note_on_c, 1, 75, 0
8, 327464, Note_on_c, 1, 84, 0
8, 327480, Note_on_c, 1, 77, 33
8, 327480, Note_on_c, 1, 86, 33
8, 328064, Note_on_c, 1, 77, 0
8, 328064, Note_on_c, 1, 86, 0
8, 328080, Note_on_c, 1, 86, 33
8, 328080, Note_on_c, 1, 77, 33
8, 328184, Note_on_c, 1, 86, 0
8, 328184, Note_on_c, 1, 77, 0
8, 328200, Note_on_c, 1, 77, 33
8, 328200, Note_on_c, 1, 84, 33
8, 328784, Note_on_c, 1, 77, 0
8, 328784, Note_on_c, 1, 84, 0
8, 328800, Note_on_c, 1, 77, 34
8, 328800, Note_on_c, 1, 86, 34
8, 328904, Note_on_c, 1, 77, 0
8, 328904, Note_on_c, 1, 86, 0
8, 328920, Note_on_c, 1, 77, 34
8, 328920, Note_on_c, 1, 84, 34
8, 329504, Note_on_c, 1, 77, 0
8, 329504, Note_on_c, 1, 84, 0
8, 329520, Note_on_c, 1, 82, 34
8, 329520, Note_on_c, 1, 77, 34
8, 329624, Note_on_c, 1, 82, 0
8, 329624, Note_on_c, 1, 77, 0
8, 329640, Note_on_c, 1, 82, 35
8, 329640, Note_on_c, 1, 77, 35
8, 330224, Note_on_c, 1, 82, 0
8, 330224, Note_on_c, 1, 77, 0
8, 330240, Note_on_c, 1, 81, 35
8, 330240, Note_on_c, 1, 84, 35
8, 330344, Note_on_c, 1, 81, 0
8, 330344, Note_on_c, 1, 84, 0
8, 330360, Note_on_c, 1, 86, 35
8, 330360, Note_on_c, 1, 82, 35
8, 330944, Note_on_c, 1, 86, 0
8, 330944, Note_on_c, 1, 82, 0
8, 330960, Note_on_c, 1, 84, 36
8, 330960, Note_on_c, 1, 81, 36
8, 331049, Note_on_c, 1, 84, 0
8, 331049, Note_on_c, 1, 81, 0
8, 331080, Note_on_c, 1, 84, 36
8, 331080, Note_on_c, 1, 81, 36
8, 331259, Note_on_c, 1, 84, 0
8, 331259, Note_on_c, 1, 81, 0
8, 331320, Note_on_c, 1, 82, 36
8, 331320, Note_on_c, 1, 74, 36
8, 331409, Note_on_c, 1, 82, 0
8, 331409, Note_on_c, 1, 74, 0
8, 331440, Note_on_c, 1, 82, 36
8, 331440, Note_on_c, 1, 74, 36
8, 331679, Note_on_c, 1, 82, 0
8, 331679, Note_on_c, 1, 74, 0
8, 332400, Note_on_c, 1, 84, 37
8, 332400, Note_on_c, 1, 81, 37
8, 332504, Note_on_c, 1, 84, 0
8, 332504, Note_on_c, 1, 81, 0
8, 332520, Note_on_c, 1, 81, 37
8, 332520, Note_on_c, 1, 84, 37
8, 333224, Note_on_c, 1, 81, 0
8, 333224, Note_on_c, 1, 84, 0
8, 333240, Note_on_c, 1, 86, 38
8, 333240, Note_on_c, 1, 82, 38
8, 333464, Note_on_c, 1, 86, 0
8, 333464, Note_on_c, 1, 82, 0
8, 333480, Note_on_c, 1, 74, 38
8, 333480, Note_on_c, 1, 82, 38
8, 333584, Note_on_c, 1, 74, 0
8, 333584, Note_on_c, 1, 82, 0
8, 333600, Note_on_c, 1, 81, 38
8, 333600, Note_on_c, 1, 84, 38
8, 333824, Note_on_c, 1, 81, 0
8, 333824, Note_on_c, 1, 84, 0
8, 333840, Note_on_c, 1, 84, 38
8, 333840, Note_on_c, 1, 81, 38
8, 333944, Note_on_c, 1, 84, 0
8, 333944, Note_on_c, 1, 81, 0
8, 333960, Note_on_c, 1, 81, 39
8, 333960, Note_on_c, 1, 84, 39
8, 334439, Note_on_c, 1, 81, 0
8, 334439, Note_on_c, 1, 84, 0
8, 334440, Note_on_c, 1, 86, 39
8, 334440, Note_on_c, 1, 82, 39
8, 334559, Note_on_c, 1, 86, 0
8, 334559, Note_on_c, 1, 82, 0
8, 334560, Note_on_c, 1, 84, 39
8, 334560, Note_on_c, 1, 81, 39
8, 334664, Note_on_c, 1, 84, 0
8, 334664, Note_on_c, 1, 81, 0
8, 334680, Note_on_c, 1, 82, 39
8, 334680, Note_on_c, 1, 86, 39
8, 334859, Note_on_c, 1, 82, 0
8, 334859, Note_on_c, 1, 86, 0
8, 334920, Note_on_c, 1, 74, 39
8, 334920, Note_on_c, 1, 82, 39
8, 335024, Note_on_c, 1, 74, 0
8, 335024, Note_on_c, 1, 82, 0
8, 335040, Note_on_c, 1, 84, 40
8, 335040, Note_on_c, 1, 81, 40
8, 335159, Note_on_c, 1, 84, 0
8, 335159, Note_on_c, 1, 81, 0
8, 335160, Note_on_c, 1, 82, 40
8, 335160, Note_on_c, 1, 86, 40
8, 335279, Note_on_c, 1, 82, 0
8, 335279, Note_on_c, 1, 86, 0
8, 335280, Note_on_c, 1, 81, 40
8, 335280, Note_on_c, 1, 84, 40
8, 335384, Note_on_c, 1, 81, 0
8, 335384, Note_on_c, 1, 84, 0
8, 335400, Note_on_c, 1, 86, 40
8, 335400, Note_on_c, 1, 82, 40
8, 335579, Note_on_c, 1, 86, 0
8, 335579, Note_on_c, 1, 82, 0
8, 335640, Note_on_c, 1, 82, 40
8, 335640, Note_on_c, 1, 74, 40
8, 335744, Note_on_c, 1, 82, 0
8, 335744, Note_on_c, 1, 74, 0
8, 335760, Note_on_c, 1, 81, 40
8, 335760, Note_on_c, 1, 84, 40
8, 335879, Note_on_c, 1, 81, 0
8, 335879, Note_on_c, 1, 84, 0
8, 335880, Note_on_c, 1, 82, 40
8, 335880, Note_on_c, 1, 86, 40
8, 335999, Note_on_c, 1, 82, 0
8, 335999, Note_on_c, 1, 86, 0
8, 336000, Note_on_c, 1, 81, 40
8, 336000, Note_on_c, 1, 84, 40
8, 336104, Note_on_c, 1, 81, 0
8, 336104, Note_on_c, 1, 84, 0
8, 336120, Note_on_c, 1, 82, 41
8, 336120, Note_on_c, 1, 86, 41
8, 336344, Note_on_c, 1, 82, 0
8, 336344, Note_on_c, 1, 86, 0
8, 336360, Note_on_c, 1, 81, 41
8, 336360, Note_on_c, 1, 84, 41
8, 336599, Note_on_c, 1, 81, 0
8, 336599, Note_on_c, 1, 84, 0
8, 336600, Note_on_c, 1, 79, 41
8, 336600, Note_on_c, 1, 82, 41
8, 336719, Note_on_c, 1, 79, 0
8, 336719, Note_on_c, 1, 82, 0
8, 336720, Note_on_c, 1, 77, 41
8, 336720, Note_on_c, 1, 81, 41
8, 336824, Note_on_c, 1, 77, 0
8, 336824, Note_on_c, 1, 81, 0
8, 336840, Note_on_c, 1, 79, 41
8, 336840, Note_on_c, 1, 82, 41
8, 337019, Note_on_c, 1, 79, 0
8, 337019, Note_on_c, 1, 82, 0
8, 337080, Note_on_c, 1, 84, 41
8, 337080, Note_on_c, 1, 76, 41
8, 337169, Note_on_c, 1, 84, 0
8, 337169, Note_on_c, 1, 76, 0
8, 337200, Note_on_c, 1, 65, 42
8, 337200, Note_on_c, 1, 77, 42
8, 337319, Note_on_c, 1, 65, 0
8, 337319, Note_on_c, 1, 77, 0
8, 337320, Note_on_c, 1, 67, 42
8, 337320, Note_on_c, 1, 79, 42
8, 337439, Note_on_c, 1, 67, 0
8, 337439, Note_on_c, 1, 79, 0
8, 337440, Note_on_c, 1, 69, 42
8, 337440, Note_on_c, 1, 81, 42
8, 337559, Note_on_c, 1, 69, 0
8, 337559, Note_on_c, 1, 81, 0
8, 337560, Note_on_c, 1, 82, 42
8, 337560, Note_on_c, 1, 70, 42
8, 337679, Note_on_c, 1, 82, 0
8, 337679, Note_on_c, 1, 70, 0
8, 337680, Note_on_c, 1, 72, 42
8, 337680, Note_on_c, 1, 84, 42
8, 337799, Note_on_c, 1, 72, 0
8, 337799, Note_on_c, 1, 84, 0
8, 337800, Note_on_c, 1, 86, 42
8, 337800, Note_on_c, 1, 74, 42
8, 337904, Note_on_c, 1, 86, 0
8, 337904, Note_on_c, 1, 74, 0
8, 337920, Note_on_c, 1, 74, 42
8, 337920, Note_on_c, 1, 86, 42
8, 338144, Note_on_c, 1, 74, 0
8, 338144, Note_on_c, 1, 86, 0
8, 338160, Note_on_c, 1, 82, 42
8, 338160, Note_on_c, 1, 86, 42
8, 338264, Note_on_c, 1, 82, 0
8, 338264, Note_on_c, 1, 86, 0
8, 338280, Note_on_c, 1, 86, 43
8, 338280, Note_on_c, 1, 82, 43
8, 338864, Note_on_c, 1, 86, 0
8, 338864, Note_on_c, 1, 82, 0
8, 338880, Note_on_c, 1, 84, 43
8, 338880, Note_on_c, 1, 82, 43
8, 338984, Note_on_c, 1, 84, 0
8, 338984, Note_on_c, 1, 82, 0
8, 339000, Note_on_c, 1, 82, 43
8, 339000, Note_on_c, 1, 86, 43
8, 339359, Note_on_c, 1, 86, 0
8, 339584, Note_on_c, 1, 82, 0
8, 339600, Note_on_c, 1, 77, 50
8, 339600, Note_on_c, 1, 82, 50
8, 339704, Note_on_c, 1, 77, 0
8, 339704, Note_on_c, 1, 82, 0
8, 339720, Note_on_c, 1, 75, 50
8, 339720, Note_on_c, 1, 82, 50
8, 339959, Note_on_c, 1, 75, 0
8, 339960, Note_on_c, 1, 77, 50
8, 340064, Note_on_c, 1, 77, 0
8, 340080, Note_on_c, 1, 79, 50
8, 340304, Note_on_c, 1, 82, 0
8, 340304, Note_on_c, 1, 79, 0
8, 340320, Note_on_c, 1, 79, 50
8, 340320, Note_on_c, 1, 86, 50
8, 340424, Note_on_c, 1, 79, 0
8, 340424, Note_on_c, 1, 86, 0
8, 340440, Note_on_c, 1, 79, 50
8, 340440, Note_on_c, 1, 84, 50
8, 340799, Note_on_c, 1, 79, 0
8, 340800, Note_on_c, 1, 75, 50
8, 341024, Note_on_c, 1, 84, 0
8, 341024, Note_on_c, 1, 75, 0
8, 341040, Note_on_c, 1, 74, 50
8, 341040, Note_on_c, 1, 82, 50
8, 341144, Note_on_c, 1, 74, 0
8, 341144, Note_on_c, 1, 82, 0
8, 341160, Note_on_c, 1, 74, 50
8, 341160, Note_on_c, 1, 82, 50
8, 341744, Note_on_c, 1, 74, 0
8, 341744, Note_on_c, 1, 82, 0
8, 341760, Note_on_c, 1, 84, 50
8, 341760, Note_on_c, 1, 81, 50
8, 341864, Note_on_c, 1, 84, 0
8, 341864, Note_on_c, 1, 81, 0
8, 341880, Note_on_c, 1, 86, 50
8, 341880, Note_on_c, 1, 82, 50
8, 342464, Note_on_c, 1, 86, 0
8, 342464, Note_on_c, 1, 82, 0
8, 342480, Note_on_c, 1, 84, 50
8, 342480, Note_on_c, 1, 81, 50
8, 342569, Note_on_c, 1, 84, 0
8, 342569, Note_on_c, 1, 81, 0
8, 342600, Note_on_c, 1, 84, 50
8, 342600, Note_on_c, 1, 81, 50
8, 342779, Note_on_c, 1, 84, 0
8, 342779, Note_on_c, 1, 81, 0
8, 342840, Note_on_c, 1, 74, 50
8, 342840, Note_on_c, 1, 82, 50
8, 342929, Note_on_c, 1, 74, 0
8, 342929, Note_on_c, 1, 82, 0
8, 342960, Note_on_c, 1, 74, 50
8, 342960, Note_on_c, 1, 82, 50
8, 343199, Note_on_c, 1, 74, 0
8, 343199, Note_on_c, 1, 82, 0
8, 343920, Note_on_c, 1, 84, 50
8, 343920, Note_on_c, 1, 81, 50
8, 344024, Note_on_c, 1, 84, 0
8, 344024, Note_on_c, 1, 81, 0
8, 344040, Note_on_c, 1, 84, 50
8, 344040, Note_on_c, 1, 81, 50
8, 344744, Note_on_c, 1, 84, 0
8, 344744, Note_on_c, 1, 81, 0
8, 344760, Note_on_c, 1, 82, 50
8, 344760, Note_on_c, 1, 86, 50
8, 344984, Note_on_c, 1, 82, 0
8, 344984, Note_on_c, 1, 86, 0
8, 345000, Note_on_c, 1, 74, 50
8, 345000, Note_on_c, 1, 82, 50
8, 345104, Note_on_c, 1, 74, 0
8, 345104, Note_on_c, 1, 82, 0
8, 345120, Note_on_c, 1, 84, 50
8, 345120, Note_on_c, 1, 81, 50
8, 345344, Note_on_c, 1, 84, 0
8, 345344, Note_on_c, 1, 81, 0
8, 345360, Note_on_c, 1, 81, 50
8, 345360, Note_on_c, 1, 84, 50
8, 345464, Note_on_c, 1, 81, 0
8, 345464, Note_on_c, 1, 84, 0
8, 345480, Note_on_c, 1, 84, 50
8, 345480, Note_on_c, 1, 81, 50
8, 345959, Note_on_c, 1, 84, 0
8, 345959, Note_on_c, 1, 81, 0
8, 345960, Note_on_c, 1, 82, 50
8, 345960, Note_on_c, 1, 86, 50
8, 346079, Note_on_c, 1, 82, 0
8, 346079, Note_on_c, 1, 86, 0
8, 346080, Note_on_c, 1, 84, 50
8, 346080, Note_on_c, 1, 81, 50
8, 346184, Note_on_c, 1, 84, 0
8, 346184, Note_on_c, 1, 81, 0
8, 346200, Note_on_c, 1, 86, 50
8, 346200, Note_on_c, 1, 82, 50
8, 346379, Note_on_c, 1, 86, 0
8, 346379, Note_on_c, 1, 82, 0
8, 346440, Note_on_c, 1, 74, 50
8, 346440, Note_on_c, 1, 82, 50
8, 346529, Note_on_c, 1, 74, 0
8, 346529, Note_on_c, 1, 82, 0
8, 346560, Note_on_c, 1, 81, 68
8, 346560, Note_on_c, 1, 84, 68
8, 346679, Note_on_c, 1, 81, 0
8, 346679, Note_on_c, 1, 84, 0
8, 346680, Note_on_c, 1, 82, 68
8, 346680, Note_on_c, 1, 86, 68
8, 346799, Note_on_c, 1, 82, 0
8, 346799, Note_on_c, 1, 86, 0
8, 346800, Note_on_c, 1, 81, 68
8, 346800, Note_on_c, 1, 84, 68
8, 346904, Note_on_c, 1, 81, 0
8, 346904, Note_on_c, 1, 84, 0
8, 346920, Note_on_c, 1, 86, 68
8, 346920, Note_on_c, 1, 82, 68
8, 347099, Note_on_c, 1, 86, 0
8, 347099, Note_on_c, 1, 82, 0
8, 347160, Note_on_c, 1, 82, 68
8, 347160, Note_on_c, 1, 74, 68
8, 347249, Note_on_c, 1, 82, 0
8, 347249, Note_on_c, 1, 74, 0
8, 347280, Note_on_c, 1, 84, 68
8, 347280, Note_on_c, 1, 81, 68
8, 347399, Note_on_c, 1, 84, 0
8, 347399, Note_on_c, 1, 81, 0
8, 347400, Note_on_c, 1, 82, 68
8, 347400, Note_on_c, 1, 86, 68
8, 347519, Note_on_c, 1, 82, 0
8, 347519, Note_on_c, 1, 86, 0
8, 347520, Note_on_c, 1, 84, 68
8, 347520, Note_on_c, 1, 81, 68
8, 347624, Note_on_c, 1, 84, 0
8, 347624, Note_on_c, 1, 81, 0
8, 347640, Note_on_c, 1, 82, 68
8, 347640, Note_on_c, 1, 86, 68
8, 347864, Note_on_c, 1, 82, 0
8, 347864, Note_on_c, 1, 86, 0
8, 347880, Note_on_c, 1, 84, 68
8, 347880, Note_on_c, 1, 81, 68
8, 348119, Note_on_c, 1, 84, 0
8, 348119, Note_on_c, 1, 81, 0
8, 348120, Note_on_c, 1, 82, 68
8, 348120, Note_on_c, 1, 79, 68
8, 348239, Note_on_c, 1, 82, 0
8, 348239, Note_on_c, 1, 79, 0
8, 348240, Note_on_c, 1, 77, 68
8, 348240, Note_on_c, 1, 81, 68
8, 348344, Note_on_c, 1, 77, 0
8, 348344, Note_on_c, 1, 81, 0
8, 348360, Note_on_c, 1, 79, 68
8, 348360, Note_on_c, 1, 82, 68
8, 348539, Note_on_c, 1, 79, 0
8, 348539, Note_on_c, 1, 82, 0
8, 348600, Note_on_c, 1, 76, 68
8, 348600, Note_on_c, 1, 84, 68
8, 348689, Note_on_c, 1, 76, 0
8, 348689, Note_on_c, 1, 84, 0
8, 348720, Note_on_c, 1, 65, 68
8, 348720, Note_on_c, 1, 77, 68
8, 348839, Note_on_c, 1, 65, 0
8, 348839, Note_on_c, 1, 77, 0
8, 348840, Note_on_c, 1, 79, 68
8, 348840, Note_on_c, 1, 67, 68
8, 348959, Note_on_c, 1, 79, 0
8, 348959, Note_on_c, 1, 67, 0
8, 348960, Note_on_c, 1, 81, 68
8, 348960, Note_on_c, 1, 69, 68
8, 349079, Note_on_c, 1, 81, 0
8, 349079, Note_on_c, 1, 69, 0
8, 349080, Note_on_c, 1, 82, 68
8, 349080, Note_on_c, 1, 70, 68
8, 349199, Note_on_c, 1, 82, 0
8, 349199, Note_on_c, 1, 70, 0
8, 349200, Note_on_c, 1, 84, 68
8, 349200, Note_on_c, 1, 72, 68
8, 349319, Note_on_c, 1, 84, 0
8, 349319, Note_on_c, 1, 72, 0
8, 349320, Note_on_c, 1, 86, 68
8, 349320, Note_on_c, 1, 74, 68
8, 349424, Note_on_c, 1, 86, 0
8, 349424, Note_on_c, 1, 74, 0
8, 349440, Note_on_c, 1, 74, 68
8, 349440, Note_on_c, 1, 86, 68
8, 349664, Note_on_c, 1, 74, 0
8, 349664, Note_on_c, 1, 86, 0
8, 349680, Note_on_c, 1, 86, 68
8, 349680, Note_on_c, 1, 82, 68
8, 349784, Note_on_c, 1, 86, 0
8, 349784, Note_on_c, 1, 82, 0
8, 349800, Note_on_c, 1, 86, 68
8, 349800, Note_on_c, 1, 82, 68
8, 350384, Note_on_c, 1, 86, 0
8, 350384, Note_on_c, 1, 82, 0
8, 350400, Note_on_c, 1, 82, 68
8, 350400, Note_on_c, 1, 84, 68
8, 350504, Note_on_c, 1, 82, 0
8, 350504, Note_on_c, 1, 84, 0
8, 350520, Note_on_c, 1, 82, 68
8, 350520, Note_on_c, 1, 86, 68
8, 350879, Note_on_c, 1, 86, 0
8, 351104, Note_on_c, 1, 82, 0
8, 351120, Note_on_c, 1, 77, 68
8, 351120, Note_on_c, 1, 82, 68
8, 351224, Note_on_c, 1, 77, 0
8, 351224, Note_on_c, 1, 82, 0
8, 351240, Note_on_c, 1, 82, 68
8, 351240, Note_on_c, 1, 75, 68
8, 351479, Note_on_c, 1, 75, 0
8, 351480, Note_on_c, 1, 77, 68
8, 351584, Note_on_c, 1, 77, 0
8, 351600, Note_on_c, 1, 79, 68
8, 351824, Note_on_c, 1, 82, 0
8, 351824, Note_on_c, 1, 79, 0
8, 351840, Note_on_c, 1, 79, 68
8, 351840, Note_on_c, 1, 86, 68
8, 351944, Note_on_c, 1, 79, 0
8, 351944, Note_on_c, 1, 86, 0
8, 351958, Control_c, 1, 11, 107
8, 351960, Note_on_c, 1, 84, 80
8, 351960, Note_on_c, 1, 79, 80
8, 352319, Note_on_c, 1, 79, 0
8, 352320, Control_c, 1, 11, 127
8, 352320, Note_on_c, 1, 75, 80
8, 352544, Note_on_c, 1, 84, 0
8, 352544, Note_on_c, 1, 75, 0
8, 352560, Note_on_c, 1, 82, 80
8, 352560, Note_on_c, 1, 74, 80
8, 352664, Note_on_c, 1, 82, 0
8, 352664, Note_on_c, 1, 74, 0
8, 352680, Note_on_c, 1, 74, 86
8, 352680, Note_on_c, 1, 82, 86
8, 353264, Note_on_c, 1, 74, 0
8, 353264, Note_on_c, 1, 82, 0
8, 353280, Note_on_c, 1, 84, 86
8, 353280, Note_on_c, 1, 81, 86
8, 353384, Note_on_c, 1, 84, 0
8, 353384, Note_on_c, 1, 81, 0
8, 353400, Note_on_c, 1, 82, 86
8, 353400, Note_on_c, 1, 86, 86
8, 353984, Note_on_c, 1, 82, 0
8, 353984, Note_on_c, 1, 86, 0
8, 354000, Note_on_c, 1, 81, 86
8, 354000, Note_on_c, 1, 84, 86
8, 354089, Note_on_c, 1, 81, 0
8, 354089, Note_on_c, 1, 84, 0
8, 354120, Note_on_c, 1, 84, 86
8, 354120, Note_on_c, 1, 81, 86
8, 354299, Note_on_c, 1, 84, 0
8, 354299, Note_on_c, 1, 81, 0
8, 354360, Note_on_c, 1, 82, 86
8, 354360, Note_on_c, 1, 74, 86
8, 354449, Note_on_c, 1, 82, 0
8, 354449, Note_on_c, 1, 74, 0
8, 354480, Note_on_c, 1, 74, 86
8, 354480, Note_on_c, 1, 82, 86
8, 354704, Note_on_c, 1, 74, 0
8, 354704, Note_on_c, 1, 82, 0
8, 354720, Note_on_c, 1, 77, 86
8, 354720, Note_on_c, 1, 65, 86
8, 354824, Note_on_c, 1, 77, 0
8, 354824, Note_on_c, 1, 65, 0
8, 354838, Control_c, 1, 11, 107
8, 354840, Note_on_c, 1, 77, 92
8, 354840, Note_on_c, 1, 65, 92
8, 355200, Control_c, 1, 11, 127
8, 355424, Note_on_c, 1, 77, 0
8, 355424, Note_on_c, 1, 65, 0
8, 355440, Note_on_c, 1, 84, 92
8, 355440, Note_on_c, 1, 75, 92
8, 355544, Note_on_c, 1, 84, 0
8, 355544, Note_on_c, 1, 75, 0
8, 355560, Note_on_c, 1, 86, 92
8, 355560, Note_on_c, 1, 82, 92
8, 356144, Note_on_c, 1, 86, 0
8, 356144, Note_on_c, 1, 82, 0
8, 356160, Note_on_c, 1, 82, 92
8, 356160, Note_on_c, 1, 74, 92
8, 356264, Note_on_c, 1, 82, 0
8, 356264, Note_on_c, 1, 74, 0
8, 356280, Note_on_c, 1, 82, 92
8, 356280, Note_on_c, 1, 74, 92
8, 356624, Note_on_c, 1, 74, 0
8, 356640, Note_on_c, 1, 79, 92
8, 356864, Note_on_c, 1, 82, 0
8, 356864, Note_on_c, 1, 79, 0
8, 356880, Note_on_c, 1, 77, 92
8, 356880, Note_on_c, 1, 80, 92
8, 356984, Note_on_c, 1, 77, 0
8, 356984, Note_on_c, 1, 80, 0
8, 357000, Note_on_c, 1, 75, 92
8, 357000, Note_on_c, 1, 79, 92
8, 357584, Note_on_c, 1, 75, 0
8, 357584, Note_on_c, 1, 79, 0
8, 357600, Note_on_c, 1, 79, 92
8, 357600, Note_on_c, 1, 75, 92
8, 357704, Note_on_c, 1, 79, 0
8, 357704, Note_on_c, 1, 75, 0
8, 357720, Note_on_c, 1, 72, 92
8, 357720, Note_on_c, 1, 79, 92
8, 357944, Note_on_c, 1, 72, 0
8, 357944, Note_on_c, 1, 79, 0
8, 357960, Note_on_c, 1, 75, 92
8, 357960, Note_on_c, 1, 84, 92
8, 358199, Note_on_c, 1, 75, 0
8, 358199, Note_on_c, 1, 84, 0
8, 358200, Note_on_c, 1, 82, 92
8, 358200, Note_on_c, 1, 74, 92
8, 358319, Note_on_c, 1, 82, 0
8, 358319, Note_on_c, 1, 74, 0
8, 358320, Note_on_c, 1, 72, 92
8, 358320, Note_on_c, 1, 81, 92
8, 358424, Note_on_c, 1, 72, 0
8, 358424, Note_on_c, 1, 81, 0
8, 358440, Note_on_c, 1, 75, 92
8, 358440, Note_on_c, 1, 84, 92
8, 358664, Note_on_c, 1, 75, 0
8, 358664, Note_on_c, 1, 84, 0
8, 358680, Note_on_c, 1, 72, 92
8, 358680, Note_on_c, 1, 81, 92
8, 358919, Note_on_c, 1, 72, 0
8, 358919, Note_on_c, 1, 81, 0
8, 358920, Note_on_c, 1, 70, 92
8, 358920, Note_on_c, 1, 79, 92
8, 359039, Note_on_c, 1, 70, 0
8, 359039, Note_on_c, 1, 79, 0
8, 359040, Note_on_c, 1, 69, 92
8, 359040, Note_on_c, 1, 77, 92
8, 359144, Note_on_c, 1, 69, 0
8, 359144, Note_on_c, 1, 77, 0
8, 359160, Note_on_c, 1, 70, 92
8, 359160, Note_on_c, 1, 79, 92
8, 359384, Note_on_c, 1, 70, 0
8, 359384, Note_on_c, 1, 79, 0
8, 359400, Note_on_c, 1, 81, 92
8, 359400, Note_on_c, 1, 72, 92
8, 359504, Note_on_c, 1, 81, 0
8, 359504, Note_on_c, 1, 72, 0
8, 359520, Note_on_c, 1, 82, 92
8, 359520, Note_on_c, 1, 74, 92
8, 359639, Note_on_c, 1, 82, 0
8, 359639, Note_on_c, 1, 74, 0
8, 359640, Note_on_c, 1, 75, 92
8, 359640, Note_on_c, 1, 84, 92
8, 359759, Note_on_c, 1, 75, 0
8, 359759, Note_on_c, 1, 84, 0
8, 359760, Note_on_c, 1, 86, 92
8, 359760, Note_on_c, 1, 77, 92
8, 359999, Note_on_c, 1, 86, 0
8, 359999, Note_on_c, 1, 77, 0
8, 360000, Note_on_c, 1, 84, 92
8, 360000, Note_on_c, 1, 75, 92
8, 360119, Note_on_c, 1, 84, 0
8, 360119, Note_on_c, 1, 75, 0
8, 360120, Note_on_c, 1, 72, 92
8, 360120, Note_on_c, 1, 81, 92
8, 360224, Note_on_c, 1, 72, 0
8, 360224, Note_on_c, 1, 81, 0
8, 360240, Note_on_c, 1, 82, 92
8, 360240, Note_on_c, 1, 74, 92
8, 360359, Note_on_c, 1, 82, 0
8, 360359, Note_on_c, 1, 74, 0
8, 360360, Note_on_c, 1, 84, 92
8, 360360, Note_on_c, 1, 75, 92
8, 360479, Note_on_c, 1, 84, 0
8, 360479, Note_on_c, 1, 75, 0
8, 360480, Note_on_c, 1, 77, 92
8, 360480, Note_on_c, 1, 86, 92
8, 360719, Note_on_c, 1, 77, 0
8, 360719, Note_on_c, 1, 86, 0
8, 360720, Note_on_c, 1, 84, 92
8, 360720, Note_on_c, 1, 75, 92
8, 360839, Note_on_c, 1, 84, 0
8, 360839, Note_on_c, 1, 75, 0
8, 360840, Note_on_c, 1, 72, 92
8, 360840, Note_on_c, 1, 81, 92
8, 360944, Note_on_c, 1, 72, 0
8, 360944, Note_on_c, 1, 81, 0
8, 360960, Note_on_c, 1, 74, 92
8, 360960, Note_on_c, 1, 82, 92
8, 361199, Note_on_c, 1, 74, 0
8, 361199, Note_on_c, 1, 82, 0
8, 368400, Note_on_c, 1, 67, 92
8, 368504, Note_on_c, 1, 67, 0
8, 368520, Note_on_c, 1, 67, 100
8, 368580, Control_c, 1, 11, 107
8, 368879, Note_on_c, 1, 67, 0
8, 369118, Control_c, 1, 11, 127
8, 369120, Note_on_c, 1, 69, 92
8, 369224, Note_on_c, 1, 69, 0
8, 369240, Note_on_c, 1, 69, 100
8, 369300, Control_c, 1, 11, 107
8, 369599, Note_on_c, 1, 69, 0
8, 369838, Control_c, 1, 11, 127
8, 369840, Note_on_c, 1, 71, 92
8, 369944, Note_on_c, 1, 71, 0
8, 369960, Note_on_c, 1, 76, 92
8, 370184, Note_on_c, 1, 76, 0
8, 370200, Note_on_c, 1, 74, 92
8, 370304, Note_on_c, 1, 74, 0
8, 370320, Note_on_c, 1, 72, 92
8, 370559, Note_on_c, 1, 72, 0
8, 370680, Note_on_c, 1, 71, 92
8, 370919, Note_on_c, 1, 71, 0
8, 371040, Note_on_c, 1, 79, 92
8, 371264, Note_on_c, 1, 79, 0
8, 371280, Note_on_c, 1, 79, 92
8, 371384, Note_on_c, 1, 79, 0
8, 371400, Note_on_c, 1, 79, 92
8, 371624, Note_on_c, 1, 79, 0
8, 371640, Note_on_c, 1, 79, 92
8, 371759, Note_on_c, 1, 79, 0
8, 372000, Note_on_c, 1, 72, 92
8, 372104, Note_on_c, 1, 72, 0
8, 372120, Note_on_c, 1, 79, 92
8, 372344, Note_on_c, 1, 79, 0
8, 372360, Note_on_c, 1, 77, 92
8, 372464, Note_on_c, 1, 77, 0
8, 372480, Note_on_c, 1, 77, 92
8, 372719, Note_on_c, 1, 77, 0
8, 372840, Note_on_c, 1, 75, 92
8, 373079, Note_on_c, 1, 75, 0
8, 373200, Note_on_c, 1, 74, 92
8, 373439, Note_on_c, 1, 74, 0
8, 373560, Note_on_c, 1, 74, 92
8, 373799, Note_on_c, 1, 74, 0
8, 374160, Note_on_c, 1, 72, 92
8, 374264, Note_on_c, 1, 72, 0
8, 374280, Note_on_c, 1, 72, 100
8, 374340, Control_c, 1, 11, 107
8, 374639, Note_on_c, 1, 72, 0
8, 374878, Control_c, 1, 11, 127
8, 374880, Note_on_c, 1, 74, 92
8, 374984, Note_on_c, 1, 74, 0
8, 375000, Note_on_c, 1, 74, 100
8, 375060, Control_c, 1, 11, 107
8, 375359, Note_on_c, 1, 74, 0
8, 375598, Control_c, 1, 11, 127
8, 375600, Note_on_c, 1, 75, 92
8, 375704, Note_on_c, 1, 75, 0
8, 375720, Note_on_c, 1, 80, 92
8, 375944, Note_on_c, 1, 80, 0
8, 375960, Note_on_c, 1, 79, 92
8, 376064, Note_on_c, 1, 79, 0
8, 376080, Note_on_c, 1, 77, 92
8, 376319, Note_on_c, 1, 77, 0
8, 376440, Note_on_c, 1, 75, 92
8, 376679, Note_on_c, 1, 75, 0
8, 377040, Note_on_c, 1, 77, 92
8, 377144, Note_on_c, 1, 77, 0
8, 377160, Note_on_c, 1, 82, 92
8, 377384, Note_on_c, 1, 82, 0
8, 377400, Note_on_c, 1, 80, 92
8, 377504, Note_on_c, 1, 80, 0
8, 377520, Note_on_c, 1, 79, 92
8, 377744, Note_on_c, 1, 79, 0
8, 377760, Note_on_c, 1, 70, 92
8, 377760, Note_on_c, 1, 82, 92
8, 377864, Note_on_c, 1, 70, 0
8, 377864, Note_on_c, 1, 82, 0
8, 377880, Note_on_c, 1, 70, 92
8, 377880, Note_on_c, 1, 82, 92
8, 378104, Note_on_c, 1, 70, 0
8, 378104, Note_on_c, 1, 82, 0
8, 378120, Note_on_c, 1, 82, 92
8, 378120, Note_on_c, 1, 70, 92
8, 378224, Note_on_c, 1, 82, 0
8, 378224, Note_on_c, 1, 70, 0
8, 378240, Note_on_c, 1, 82, 92
8, 378240, Note_on_c, 1, 70, 92
8, 378464, Note_on_c, 1, 82, 0
8, 378464, Note_on_c, 1, 70, 0
8, 378480, Note_on_c, 1, 82, 92
8, 378480, Note_on_c, 1, 70, 92
8, 378584, Note_on_c, 1, 82, 0
8, 378584, Note_on_c, 1, 70, 0
8, 378600, Note_on_c, 1, 70, 100
8, 378600, Note_on_c, 1, 82, 100
8, 378660, Control_c, 1, 11, 107
8, 378959, Note_on_c, 1, 70, 0
8, 378959, Note_on_c, 1, 82, 0
8, 379198, Control_c, 1, 11, 127
8, 379200, Note_on_c, 1, 70, 92
8, 379200, Note_on_c, 1, 82, 92
8, 379304, Note_on_c, 1, 70, 0
8, 379304, Note_on_c, 1, 82, 0
8, 379320, Note_on_c, 1, 82, 100
8, 379320, Note_on_c, 1, 70, 100
8, 379380, Control_c, 1, 11, 107
8, 379679, Note_on_c, 1, 82, 0
8, 379679, Note_on_c, 1, 70, 0
8, 379918, Control_c, 1, 11, 127
8, 379920, Note_on_c, 1, 79, 92
8, 380024, Note_on_c, 1, 79, 0
8, 380040, Note_on_c, 1, 84, 92
8, 380264, Note_on_c, 1, 84, 0
8, 380280, Note_on_c, 1, 82, 92
8, 380384, Note_on_c, 1, 82, 0
8, 380400, Note_on_c, 1, 80, 92
8, 380639, Note_on_c, 1, 80, 0
8, 380760, Note_on_c, 1, 79, 92
8, 380999, Note_on_c, 1, 79, 0
8, 381360, Note_on_c, 1, 80, 92
8, 381360, Note_on_c, 1, 68, 92
8, 381464, Note_on_c, 1, 80, 0
8, 381464, Note_on_c, 1, 68, 0
8, 381480, Note_on_c, 1, 73, 92
8, 381480, Note_on_c, 1, 85, 92
8, 381704, Note_on_c, 1, 73, 0
8, 381704, Note_on_c, 1, 85, 0
8, 381720, Note_on_c, 1, 72, 92
8, 381720, Note_on_c, 1, 84, 92
8, 381824, Note_on_c, 1, 72, 0
8, 381824, Note_on_c, 1, 84, 0
8, 381840, Note_on_c, 1, 70, 92
8, 381840, Note_on_c, 1, 82, 92
8, 382079, Note_on_c, 1, 70, 0
8, 382079, Note_on_c, 1, 82, 0
8, 382200, Note_on_c, 1, 80, 92
8, 382200, Note_on_c, 1, 68, 92
8, 382439, Note_on_c, 1, 80, 0
8, 382439, Note_on_c, 1, 68, 0
8, 382800, Note_on_c, 1, 70, 92
8, 382904, Note_on_c, 1, 70, 0
8, 382920, Note_on_c, 1, 75, 92
8, 383144, Note_on_c, 1, 75, 0
8, 383160, Note_on_c, 1, 73, 92
8, 383264, Note_on_c, 1, 73, 0
8, 383280, Note_on_c, 1, 72, 92
8, 383519, Note_on_c, 1, 72, 0
8, 383640, Note_on_c, 1, 70, 92
8, 383879, Note_on_c, 1, 70, 0
8, 384240, Note_on_c, 1, 69, 92
8, 384240, Note_on_c, 1, 81, 92
8, 384344, Note_on_c, 1, 69, 0
8, 384344, Note_on_c, 1, 81, 0
8, 384360, Note_on_c, 1, 69, 100
8, 384360, Note_on_c, 1, 81, 100
8, 384420, Control_c, 1, 11, 107
8, 384719, Note_on_c, 1, 69, 0
8, 384719, Note_on_c, 1, 81, 0
8, 384958, Control_c, 1, 11, 127
8, 384960, Note_on_c, 1, 69, 92
8, 384960, Note_on_c, 1, 81, 92
8, 385064, Note_on_c, 1, 69, 0
8, 385064, Note_on_c, 1, 81, 0
8, 385080, Note_on_c, 1, 69, 100
8, 385080, Note_on_c, 1, 81, 100
8, 385140, Control_c, 1, 11, 107
8, 385439, Note_on_c, 1, 69, 0
8, 385439, Note_on_c, 1, 81, 0
8, 385678, Control_c, 1, 11, 127
8, 385680, Note_on_c, 1, 70, 92
8, 385680, Note_on_c, 1, 82, 92
8, 385784, Note_on_c, 1, 70, 0
8, 385784, Note_on_c, 1, 82, 0
8, 385800, Note_on_c, 1, 70, 100
8, 385800, Note_on_c, 1, 82, 100
8, 385860, Control_c, 1, 11, 107
8, 386159, Note_on_c, 1, 70, 0
8, 386159, Note_on_c, 1, 82, 0
8, 386398, Control_c, 1, 11, 127
8, 386400, Note_on_c, 1, 70, 92
8, 386400, Note_on_c, 1, 82, 92
8, 386504, Note_on_c, 1, 70, 0
8, 386504, Note_on_c, 1, 82, 0
8, 386520, Note_on_c, 1, 82, 100
8, 386520, Note_on_c, 1, 70, 100
8, 386580, Control_c, 1, 11, 107
8, 386879, Note_on_c, 1, 82, 0
8, 386879, Note_on_c, 1, 70, 0
8, 387118, Control_c, 1, 11, 127
8, 387120, Note_on_c, 1, 82, 92
8, 387120, Note_on_c, 1, 70, 92
8, 387224, Note_on_c, 1, 82, 0
8, 387224, Note_on_c, 1, 70, 0
8, 387240, Note_on_c, 1, 70, 100
8, 387240, Note_on_c, 1, 82, 100
8, 387300, Control_c, 1, 11, 107
8, 387599, Note_on_c, 1, 70, 0
8, 387599, Note_on_c, 1, 82, 0
8, 387838, Control_c, 1, 11, 127
8, 387840, Note_on_c, 1, 70, 92
8, 387840, Note_on_c, 1, 82, 92
8, 387944, Note_on_c, 1, 70, 0
8, 387944, Note_on_c, 1, 82, 0
8, 387960, Note_on_c, 1, 82, 92
8, 387960, Note_on_c, 1, 70, 92
8, 388184, Note_on_c, 1, 82, 0
8, 388184, Note_on_c, 1, 70, 0
8, 388200, Note_on_c, 1, 69, 92
8, 388200, Note_on_c, 1, 81, 92
8, 388304, Note_on_c, 1, 69, 0
8, 388304, Note_on_c, 1, 81, 0
8, 388320, Note_on_c, 1, 70, 92
8, 388320, Note_on_c, 1, 82, 92
8, 388544, Note_on_c, 1, 70, 0
8, 388544, Note_on_c, 1, 82, 0
8, 388560, Note_on_c, 1, 65, 92
8, 388560, Note_on_c, 1, 77, 92
8, 388664, Note_on_c, 1, 65, 0
8, 388664, Note_on_c, 1, 77, 0
8, 388680, Note_on_c, 1, 65, 100
8, 388680, Note_on_c, 1, 77, 100
8, 388740, Control_c, 1, 11, 107
8, 389039, Note_on_c, 1, 65, 0
8, 389039, Note_on_c, 1, 77, 0
8, 389278, Control_c, 1, 11, 127
8, 389280, Note_on_c, 1, 77, 92
8, 389280, Note_on_c, 1, 65, 92
8, 389384, Note_on_c, 1, 77, 0
8, 389384, Note_on_c, 1, 65, 0
8, 389400, Note_on_c, 1, 65, 100
8, 389400, Note_on_c, 1, 77, 100
8, 389460, Control_c, 1, 11, 107
8, 389759, Note_on_c, 1, 65, 0
8, 389759, Note_on_c, 1, 77, 0
8, 389998, Control_c, 1, 11, 127
8, 390720, Note_on_c, 1, 78, 92
8, 390824, Note_on_c, 1, 78, 0
8, 390840, Note_on_c, 1, 71, 92
8, 391064, Note_on_c, 1, 71, 0
8, 391080, Note_on_c, 1, 71, 92
8, 391184, Note_on_c, 1, 71, 0
8, 391200, Note_on_c, 1, 80, 92
8, 391439, Note_on_c, 1, 80, 0
8, 392160, Note_on_c, 1, 82, 92
8, 392264, Note_on_c, 1, 82, 0
8, 392280, Note_on_c, 1, 75, 92
8, 392504, Note_on_c, 1, 75, 0
8, 392520, Note_on_c, 1, 75, 92
8, 392624, Note_on_c, 1, 75, 0
8, 392640, Note_on_c, 1, 83, 92
8, 392879, Note_on_c, 1, 83, 0
8, 393240, Note_on_c, 1, 77, 92
8, 393240, Note_on_c, 1, 80, 92
8, 393344, Note_on_c, 1, 77, 0
8, 393344, Note_on_c, 1, 80, 0
8, 393360, Note_on_c, 1, 82, 92
8, 393360, Note_on_c, 1, 78, 92
8, 393464, Note_on_c, 1, 82, 0
8, 393464, Note_on_c, 1, 78, 0
8, 393480, Note_on_c, 1, 77, 92
8, 393480, Note_on_c, 1, 83, 92
8, 393584, Note_on_c, 1, 77, 0
8, 393584, Note_on_c, 1, 83, 0
8, 393600, Note_on_c, 1, 82, 92
8, 393600, Note_on_c, 1, 78, 92
8, 393704, Note_on_c, 1, 82, 0
8, 393704, Note_on_c, 1, 78, 0
8, 393720, Note_on_c, 1, 82, 92
8, 393720, Note_on_c, 1, 78, 92
8, 393824, Note_on_c, 1, 82, 0
8, 393824, Note_on_c, 1, 78, 0
8, 393840, Note_on_c, 1, 78, 92
8, 393840, Note_on_c, 1, 82, 92
8, 393944, Note_on_c, 1, 78, 0
8, 393944, Note_on_c, 1, 82, 0
8, 393960, Note_on_c, 1, 82, 92
8, 393960, Note_on_c, 1, 78, 92
8, 394064, Note_on_c, 1, 82, 0
8, 394064, Note_on_c, 1, 78, 0
8, 394080, Note_on_c, 1, 78, 92
8, 394080, Note_on_c, 1, 82, 92
8, 394319, Note_on_c, 1, 78, 0
8, 394319, Note_on_c, 1, 82, 0
8, 395160, Note_on_c, 1, 78, 92
8, 395264, Note_on_c, 1, 78, 0
8, 395280, Note_on_c, 1, 78, 92
8, 395384, Note_on_c, 1, 78, 0
8, 395400, Note_on_c, 1, 78, 92
8, 395504, Note_on_c, 1, 78, 0
8, 395520, Note_on_c, 1, 78, 92
8, 395624, Note_on_c, 1, 78, 0
8, 395640, Note_on_c, 1, 80, 92
8, 395744, Note_on_c, 1, 80, 0
8, 395760, Note_on_c, 1, 82, 92
8, 395864, Note_on_c, 1, 82, 0
8, 395880, Note_on_c, 1, 82, 92
8, 395984, Note_on_c, 1, 82, 0
8, 396000, Note_on_c, 1, 83, 92
8, 396104, Note_on_c, 1, 83, 0
8, 396120, Note_on_c, 1, 82, 92
8, 396224, Note_on_c, 1, 82, 0
8, 396240, Note_on_c, 1, 80, 92
8, 396344, Note_on_c, 1, 80, 0
8, 396360, Note_on_c, 1, 78, 92
8, 396464, Note_on_c, 1, 78, 0
8, 396480, Note_on_c, 1, 77, 92
8, 396584, Note_on_c, 1, 77, 0
8, 396600, Note_on_c, 1, 75, 92
8, 396839, Note_on_c, 1, 75, 0
8, 400200, Note_on_c, 1, 70, 92
8, 400200, Note_on_c, 1, 82, 92
8, 400304, Note_on_c, 1, 70, 0
8, 400304, Note_on_c, 1, 82, 0
8, 400320, Note_on_c, 1, 82, 92
8, 400320, Note_on_c, 1, 70, 92
8, 400424, Note_on_c, 1, 82, 0
8, 400424, Note_on_c, 1, 70, 0
8, 400440, Note_on_c, 1, 70, 92
8, 400440, Note_on_c, 1, 82, 92
8, 400544, Note_on_c, 1, 70, 0
8, 400544, Note_on_c, 1, 82, 0
8, 400560, Note_on_c, 1, 70, 92
8, 400560, Note_on_c, 1, 82, 92
8, 400664, Note_on_c, 1, 70, 0
8, 400664, Note_on_c, 1, 82, 0
8, 400680, Note_on_c, 1, 82, 92
8, 400680, Note_on_c, 1, 70, 92
8, 400784, Note_on_c, 1, 82, 0
8, 400784, Note_on_c, 1, 70, 0
8, 400800, Note_on_c, 1, 70, 92
8, 400800, Note_on_c, 1, 82, 92
8, 400904, Note_on_c, 1, 70, 0
8, 400904, Note_on_c, 1, 82, 0
8, 400920, Note_on_c, 1, 82, 92
8, 400920, Note_on_c, 1, 70, 92
8, 401024, Note_on_c, 1, 82, 0
8, 401024, Note_on_c, 1, 70, 0
8, 401040, Note_on_c, 1, 82, 92
8, 401040, Note_on_c, 1, 70, 92
8, 401144, Note_on_c, 1, 82, 0
8, 401144, Note_on_c, 1, 70, 0
8, 401160, Note_on_c, 1, 70, 92
8, 401160, Note_on_c, 1, 82, 92
8, 401264, Note_on_c, 1, 70, 0
8, 401264, Note_on_c, 1, 82, 0
8, 401280, Note_on_c, 1, 82, 92
8, 401280, Note_on_c, 1, 70, 92
8, 401384, Note_on_c, 1, 82, 0
8, 401384, Note_on_c, 1, 70, 0
8, 401400, Note_on_c, 1, 70, 92
8, 401400, Note_on_c, 1, 82, 92
8, 401504, Note_on_c, 1, 70, 0
8, 401504, Note_on_c, 1, 82, 0
8, 401520, Note_on_c, 1, 70, 92
8, 401520, Note_on_c, 1, 82, 92
8, 401624, Note_on_c, 1, 70, 0
8, 401624, Note_on_c, 1, 82, 0
8, 401640, Note_on_c, 1, 82, 92
8, 401640, Note_on_c, 1, 70, 92
8, 401744, Note_on_c, 1, 82, 0
8, 401744, Note_on_c, 1, 70, 0
8, 401760, Note_on_c, 1, 82, 92
8, 401760, Note_on_c, 1, 70, 92
8, 401864, Note_on_c, 1, 82, 0
8, 401864, Note_on_c, 1, 70, 0
8, 401880, Note_on_c, 1, 70, 92
8, 401880, Note_on_c, 1, 82, 92
8, 401984, Note_on_c, 1, 70, 0
8, 401984, Note_on_c, 1, 82, 0
8, 402000, Note_on_c, 1, 70, 92
8, 402000, Note_on_c, 1, 82, 92
8, 402104, Note_on_c, 1, 70, 0
8, 402104, Note_on_c, 1, 82, 0
8, 402120, Note_on_c, 1, 70, 92
8, 402120, Note_on_c, 1, 82, 92
8, 402224, Note_on_c, 1, 70, 0
8, 402224, Note_on_c, 1, 82, 0
8, 402240, Note_on_c, 1, 70, 92
8, 402240, Note_on_c, 1, 82, 92
8, 402344, Note_on_c, 1, 70, 0
8, 402344, Note_on_c, 1, 82, 0
8, 402360, Note_on_c, 1, 82, 92
8, 402360, Note_on_c, 1, 70, 92
8, 402464, Note_on_c, 1, 82, 0
8, 402464, Note_on_c, 1, 70, 0
8, 402480, Note_on_c, 1, 82, 92
8, 402480, Note_on_c, 1, 70, 92
8, 402584, Note_on_c, 1, 82, 0
8, 402584, Note_on_c, 1, 70, 0
8, 402600, Note_on_c, 1, 70, 92
8, 402600, Note_on_c, 1, 82, 92
8, 402704, Note_on_c, 1, 70, 0
8, 402704, Note_on_c, 1, 82, 0
8, 402720, Note_on_c, 1, 70, 92
8, 402720, Note_on_c, 1, 82, 92
8, 402824, Note_on_c, 1, 70, 0
8, 402824, Note_on_c, 1, 82, 0
8, 402840, Note_on_c, 1, 70, 92
8, 402840, Note_on_c, 1, 82, 92
8, 402944, Note_on_c, 1, 70, 0
8, 402944, Note_on_c, 1, 82, 0
8, 402960, Note_on_c, 1, 82, 92
8, 402960, Note_on_c, 1, 70, 92
8, 403064, Note_on_c, 1, 82, 0
8, 403064, Note_on_c, 1, 70, 0
8, 403080, Note_on_c, 1, 82, 92
8, 403080, Note_on_c, 1, 70, 92
8, 403184, Note_on_c, 1, 82, 0
8, 403184, Note_on_c, 1, 70, 0
8, 403200, Note_on_c, 1, 82, 92
8, 403200, Note_on_c, 1, 70, 92
8, 403304, Note_on_c, 1, 82, 0
8, 403304, Note_on_c, 1, 70, 0
8, 403320, Note_on_c, 1, 82, 92
8, 403320, Note_on_c, 1, 70, 92
8, 403424, Note_on_c, 1, 82, 0
8, 403424, Note_on_c, 1, 70, 0
8, 403440, Note_on_c, 1, 82, 92
8, 403440, Note_on_c, 1, 70, 92
8, 403544, Note_on_c, 1, 82, 0
8, 403544, Note_on_c, 1, 70, 0
8, 403560, Note_on_c, 1, 71, 92
8, 403560, Note_on_c, 1, 83, 92
8, 403664, Note_on_c, 1, 71, 0
8, 403664, Note_on_c, 1, 83, 0
8, 403680, Note_on_c, 1, 73, 92
8, 403680, Note_on_c, 1, 85, 92
8, 403784, Note_on_c, 1, 73, 0
8, 403784, Note_on_c, 1, 85, 0
8, 403800, Note_on_c, 1, 73, 92
8, 403800, Note_on_c, 1, 76, 92
8, 403904, Note_on_c, 1, 73, 0
8, 403904, Note_on_c, 1, 76, 0
8, 403920, Note_on_c, 1, 74, 92
8, 403920, Note_on_c, 1, 78, 92
8, 404024, Note_on_c, 1, 74, 0
8, 404024, Note_on_c, 1, 78, 0
8, 404040, Note_on_c, 1, 79, 92
8, 404040, Note_on_c, 1, 76, 92
8, 404144, Note_on_c, 1, 79, 0
8, 404144, Note_on_c, 1, 76, 0
8, 404160, Note_on_c, 1, 83, 92
8, 404160, Note_on_c, 1, 71, 92
8, 404384, Note_on_c, 1, 83, 0
8, 404384, Note_on_c, 1, 71, 0
8, 404400, Note_on_c, 1, 71, 92
8, 404400, Note_on_c, 1, 83, 92
8, 404504, Note_on_c, 1, 71, 0
8, 404504, Note_on_c, 1, 83, 0
8, 404520, Note_on_c, 1, 83, 100
8, 404520, Note_on_c, 1, 71, 100
8, 404580, Control_c, 1, 11, 107
8, 404879, Note_on_c, 1, 83, 0
8, 404879, Note_on_c, 1, 71, 0
8, 405118, Control_c, 1, 11, 127
8, 405120, Note_on_c, 1, 85, 92
8, 405120, Note_on_c, 1, 73, 92
8, 405224, Note_on_c, 1, 85, 0
8, 405224, Note_on_c, 1, 73, 0
8, 405240, Note_on_c, 1, 85, 100
8, 405240, Note_on_c, 1, 73, 100
8, 405300, Control_c, 1, 11, 107
8, 405569, Note_on_c, 1, 85, 0
8, 405569, Note_on_c, 1, 73, 0
8, 405598, Control_c, 1, 11, 127
8, 405600, Note_on_c, 1, 75, 92
8, 405600, Note_on_c, 1, 63, 92
8, 405704, Note_on_c, 1, 75, 0
8, 405704, Note_on_c, 1, 63, 0
8, 405720, Note_on_c, 1, 64, 92
8, 405720, Note_on_c, 1, 76, 92
8, 405824, Note_on_c, 1, 64, 0
8, 405824, Note_on_c, 1, 76, 0
8, 405840, Note_on_c, 1, 66, 92
8, 405840, Note_on_c, 1, 78, 92
8, 405891, Note_on_c, 1, 66, 0
8, 405891, Note_on_c, 1, 78, 0
8, 405900, Note_on_c, 1, 79, 92
8, 405900, Note_on_c, 1, 67, 92
8, 405951, Note_on_c, 1, 79, 0
8, 405951, Note_on_c, 1, 67, 0
8, 405960, Note_on_c, 1, 79, 92
8, 405960, Note_on_c, 1, 67, 92
8, 406064, Note_on_c, 1, 79, 0
8, 406064, Note_on_c, 1, 67, 0
8, 406080, Note_on_c, 1, 79, 92
8, 406080, Note_on_c, 1, 67, 92
8, 406184, Note_on_c, 1, 79, 0
8, 406184, Note_on_c, 1, 67, 0
8, 406200, Note_on_c, 1, 67, 92
8, 406200, Note_on_c, 1, 79, 92
8, 406304, Note_on_c, 1, 67, 0
8, 406304, Note_on_c, 1, 79, 0
8, 406320, Note_on_c, 1, 67, 92
8, 406320, Note_on_c, 1, 79, 92
8, 406424, Note_on_c, 1, 67, 0
8, 406424, Note_on_c, 1, 79, 0
8, 406440, Note_on_c, 1, 69, 92
8, 406440, Note_on_c, 1, 81, 92
8, 406544, Note_on_c, 1, 69, 0
8, 406544, Note_on_c, 1, 81, 0
8, 406560, Note_on_c, 1, 67, 92
8, 406560, Note_on_c, 1, 79, 92
8, 406664, Note_on_c, 1, 67, 0
8, 406664, Note_on_c, 1, 79, 0
8, 406680, Note_on_c, 1, 78, 92
8, 406784, Note_on_c, 1, 78, 0
8, 406800, Note_on_c, 1, 76, 92
8, 406904, Note_on_c, 1, 76, 0
8, 406920, Note_on_c, 1, 75, 92
8, 407024, Note_on_c, 1, 75, 0
8, 407040, Note_on_c, 1, 72, 92
8, 407040, Note_on_c, 1, 84, 92
8, 407144, Note_on_c, 1, 72, 0
8, 407144, Note_on_c, 1, 84, 0
8, 407160, Note_on_c, 1, 72, 92
8, 407160, Note_on_c, 1, 84, 92
8, 407264, Note_on_c, 1, 72, 0
8, 407264, Note_on_c, 1, 84, 0
8, 407280, Note_on_c, 1, 72, 92
8, 407280, Note_on_c, 1, 84, 92
8, 407384, Note_on_c, 1, 72, 0
8, 407384, Note_on_c, 1, 84, 0
8, 407400, Note_on_c, 1, 84, 92
8, 407400, Note_on_c, 1, 72, 92
8, 407504, Note_on_c, 1, 84, 0
8, 407504, Note_on_c, 1, 72, 0
8, 407520, Note_on_c, 1, 71, 92
8, 407520, Note_on_c, 1, 83, 92
8, 407624, Note_on_c, 1, 71, 0
8, 407624, Note_on_c, 1, 83, 0
8, 407640, Note_on_c, 1, 81, 92
8, 407640, Note_on_c, 1, 69, 92
8, 407744, Note_on_c, 1, 81, 0
8, 407744, Note_on_c, 1, 69, 0
8, 407760, Note_on_c, 1, 66, 92
8, 407760, Note_on_c, 1, 78, 92
8, 407864, Note_on_c, 1, 66, 0
8, 407864, Note_on_c, 1, 78, 0
8, 407880, Note_on_c, 1, 67, 92
8, 407880, Note_on_c, 1, 79, 92
8, 407984, Note_on_c, 1, 67, 0
8, 407984, Note_on_c, 1, 79, 0
8, 408000, Note_on_c, 1, 79, 92
8, 408000, Note_on_c, 1, 67, 92
8, 408104, Note_on_c, 1, 79, 0
8, 408104, Note_on_c, 1, 67, 0
8, 408120, Note_on_c, 1, 79, 92
8, 408120, Note_on_c, 1, 67, 92
8, 408224, Note_on_c, 1, 79, 0
8, 408224, Note_on_c, 1, 67, 0
8, 408240, Note_on_c, 1, 81, 92
8, 408240, Note_on_c, 1, 69, 92
8, 408344, Note_on_c, 1, 81, 0
8, 408344, Note_on_c, 1, 69, 0
8, 408360, Note_on_c, 1, 83, 92
8, 408360, Note_on_c, 1, 71, 92
8, 408464, Note_on_c, 1, 83, 0
8, 408464, Note_on_c, 1, 71, 0
8, 408480, Note_on_c, 1, 71, 92
8, 408480, Note_on_c, 1, 83, 92
8, 408584, Note_on_c, 1, 71, 0
8, 408584, Note_on_c, 1, 83, 0
8, 408600, Note_on_c, 1, 84, 92
8, 408600, Note_on_c, 1, 72, 92
8, 408704, Note_on_c, 1, 84, 0
8, 408704, Note_on_c, 1, 72, 0
8, 408720, Note_on_c, 1, 71, 92
8, 408720, Note_on_c, 1, 83, 92
8, 408824, Note_on_c, 1, 71, 0
8, 408824, Note_on_c, 1, 83, 0
8, 408840, Note_on_c, 1, 69, 92
8, 408840, Note_on_c, 1, 81, 92
8, 408944, Note_on_c, 1, 69, 0
8, 408944, Note_on_c, 1, 81, 0
8, 408960, Note_on_c, 1, 67, 92
8, 408960, Note_on_c, 1, 79, 92
8, 409064, Note_on_c, 1, 67, 0
8, 409064, Note_on_c, 1, 79, 0
8, 409080, Note_on_c, 1, 66, 92
8, 409080, Note_on_c, 1, 78, 92
8, 409184, Note_on_c, 1, 66, 0
8, 409184, Note_on_c, 1, 78, 0
8, 409200, Note_on_c, 1, 81, 92
8, 409200, Note_on_c, 1, 78, 92
8, 409424, Note_on_c, 1, 81, 0
8, 409424, Note_on_c, 1, 78, 0
8, 409440, Note_on_c, 1, 81, 92
8, 409440, Note_on_c, 1, 78, 92
8, 409544, Note_on_c, 1, 81, 0
8, 409544, Note_on_c, 1, 78, 0
8, 409560, Note_on_c, 1, 76, 92
8, 409560, Note_on_c, 1, 79, 92
8, 409784, Note_on_c, 1, 76, 0
8, 409784, Note_on_c, 1, 79, 0
8, 409800, Note_on_c, 1, 79, 92
8, 409800, Note_on_c, 1, 76, 92
8, 409904, Note_on_c, 1, 79, 0
8, 409904, Note_on_c, 1, 76, 0
8, 409920, Note_on_c, 1, 76, 92
8, 409920, Note_on_c, 1, 79, 92
8, 410144, Note_on_c, 1, 76, 0
8, 410144, Note_on_c, 1, 79, 0
8, 410160, Note_on_c, 1, 76, 92
8, 410160, Note_on_c, 1, 79, 92
8, 410264, Note_on_c, 1, 76, 0
8, 410264, Note_on_c, 1, 79, 0
8, 410280, Note_on_c, 1, 74, 92
8, 410280, Note_on_c, 1, 78, 92
8, 410504, Note_on_c, 1, 74, 0
8, 410504, Note_on_c, 1, 78, 0
8, 410520, Note_on_c, 1, 78, 92
8, 410520, Note_on_c, 1, 74, 92
8, 410624, Note_on_c, 1, 78, 0
8, 410624, Note_on_c, 1, 74, 0
8, 410640, Note_on_c, 1, 74, 92
8, 410640, Note_on_c, 1, 78, 92
8, 410864, Note_on_c, 1, 74, 0
8, 410864, Note_on_c, 1, 78, 0
8, 410880, Note_on_c, 1, 78, 92
8, 410880, Note_on_c, 1, 74, 92
8, 410984, Note_on_c, 1, 78, 0
8, 410984, Note_on_c, 1, 74, 0
8, 411000, Note_on_c, 1, 73, 92
8, 411000, Note_on_c, 1, 76, 92
8, 411224, Note_on_c, 1, 73, 0
8, 411224, Note_on_c, 1, 76, 0
8, 411240, Note_on_c, 1, 73, 92
8, 411240, Note_on_c, 1, 76, 92
8, 411344, Note_on_c, 1, 73, 0
8, 411344, Note_on_c, 1, 76, 0
8, 411360, Note_on_c, 1, 76, 92
8, 411360, Note_on_c, 1, 73, 92
8, 411584, Note_on_c, 1, 76, 0
8, 411584, Note_on_c, 1, 73, 0
8, 411600, Note_on_c, 1, 73, 92
8, 411600, Note_on_c, 1, 76, 92
8, 411704, Note_on_c, 1, 73, 0
8, 411704, Note_on_c, 1, 76, 0
8, 411720, Note_on_c, 1, 74, 92
8, 411720, Note_on_c, 1, 71, 92
8, 411944, Note_on_c, 1, 74, 0
8, 411944, Note_on_c, 1, 71, 0
8, 411960, Note_on_c, 1, 74, 92
8, 411960, Note_on_c, 1, 71, 92
8, 412064, Note_on_c, 1, 74, 0
8, 412064, Note_on_c, 1, 71, 0
8, 412080, Note_on_c, 1, 70, 92
8, 412080, Note_on_c, 1, 73, 92
8, 412184, Note_on_c, 1, 70, 0
8, 412184, Note_on_c, 1, 73, 0
8, 412200, Note_on_c, 1, 82, 92
8, 412200, Note_on_c, 1, 70, 92
8, 412304, Note_on_c, 1, 82, 0
8, 412304, Note_on_c, 1, 70, 0
8, 412320, Note_on_c, 1, 82, 92
8, 412320, Note_on_c, 1, 70, 92
8, 412424, Note_on_c, 1, 82, 0
8, 412424, Note_on_c, 1, 70, 0
8, 412440, Note_on_c, 1, 71, 92
8, 412440, Note_on_c, 1, 83, 92
8, 412544, Note_on_c, 1, 71, 0
8, 412544, Note_on_c, 1, 83, 0
8, 412560, Note_on_c, 1, 71, 92
8, 412560, Note_on_c, 1, 83, 92
8, 412664, Note_on_c, 1, 71, 0
8, 412664, Note_on_c, 1, 83, 0
8, 412680, Note_on_c, 1, 71, 92
8, 412680, Note_on_c, 1, 83, 92
8, 412784, Note_on_c, 1, 71, 0
8, 412784, Note_on_c, 1, 83, 0
8, 412800, Note_on_c, 1, 85, 92
8, 412800, Note_on_c, 1, 73, 92
8, 413024, Note_on_c, 1, 85, 0
8, 413024, Note_on_c, 1, 73, 0
8, 413040, Note_on_c, 1, 66, 92
8, 413040, Note_on_c, 1, 78, 92
8, 413144, Note_on_c, 1, 66, 0
8, 413144, Note_on_c, 1, 78, 0
8, 413160, Note_on_c, 1, 78, 100
8, 413160, Note_on_c, 1, 66, 100
8, 413220, Control_c, 1, 11, 107
8, 413519, Note_on_c, 1, 78, 0
8, 413519, Note_on_c, 1, 66, 0
8, 413758, Control_c, 1, 11, 127
8, 413760, Note_on_c, 1, 78, 92
8, 413760, Note_on_c, 1, 66, 92
8, 413864, Note_on_c, 1, 78, 0
8, 413864, Note_on_c, 1, 66, 0
8, 413880, Note_on_c, 1, 80, 100
8, 413880, Note_on_c, 1, 68, 100
8, 413940, Control_c, 1, 11, 107
8, 414119, Note_on_c, 1, 80, 0
8, 414119, Note_on_c, 1, 68, 0
8, 414478, Control_c, 1, 11, 127
8, 414480, Note_on_c, 1, 65, 92
8, 414480, Note_on_c, 1, 77, 92
8, 414584, Note_on_c, 1, 65, 0
8, 414584, Note_on_c, 1, 77, 0
8, 414600, Note_on_c, 1, 65, 100
8, 414600, Note_on_c, 1, 77, 100
8, 414660, Control_c, 1, 11, 107
8, 414959, Note_on_c, 1, 65, 0
8, 414959, Note_on_c, 1, 77, 0
8, 415198, Control_c, 1, 11, 127
8, 415200, Note_on_c, 1, 65, 92
8, 415200, Note_on_c, 1, 77, 92
8, 415304, Note_on_c, 1, 65, 0
8, 415304, Note_on_c, 1, 77, 0
8, 415320, Note_on_c, 1, 78, 100
8, 415320, Note_on_c, 1, 66, 100
8, 415380, Control_c, 1, 11, 107
8, 415679, Note_on_c, 1, 78, 0
8, 415679, Note_on_c, 1, 66, 0
8, 415918, Control_c, 1, 11, 127
8, 415920, Note_on_c, 1, 76, 92
8, 415920, Note_on_c, 1, 85, 92
8, 416024, Note_on_c, 1, 76, 0
8, 416024, Note_on_c, 1, 85, 0
8, 416040, Note_on_c, 1, 76, 100
8, 416040, Note_on_c, 1, 85, 100
8, 416100, Control_c, 1, 11, 107
8, 416399, Note_on_c, 1, 76, 0
8, 416399, Note_on_c, 1, 85, 0
8, 416638, Control_c, 1, 11, 127
8, 416640, Note_on_c, 1, 76, 92
8, 416640, Note_on_c, 1, 85, 92
8, 416744, Note_on_c, 1, 76, 0
8, 416744, Note_on_c, 1, 85, 0
8, 416760, Note_on_c, 1, 74, 100
8, 416760, Note_on_c, 1, 83, 100
8, 416820, Control_c, 1, 11, 107
8, 417119, Note_on_c, 1, 74, 0
8, 417119, Note_on_c, 1, 83, 0
8, 417358, Control_c, 1, 11, 127
8, 417360, Note_on_c, 1, 71, 92
8, 417360, Note_on_c, 1, 80, 92
8, 417464, Note_on_c, 1, 71, 0
8, 417464, Note_on_c, 1, 80, 0
8, 417480, Note_on_c, 1, 71, 100
8, 417480, Note_on_c, 1, 80, 100
8, 417540, Control_c, 1, 11, 107
8, 417839, Note_on_c, 1, 71, 0
8, 417839, Note_on_c, 1, 80, 0
8, 418078, Control_c, 1, 11, 127
8, 418080, Note_on_c, 1, 71, 92
8, 418080, Note_on_c, 1, 80, 92
8, 418184, Note_on_c, 1, 71, 0
8, 418184, Note_on_c, 1, 80, 0
8, 418200, Note_on_c, 1, 73, 100
8, 418200, Note_on_c, 1, 82, 100
8, 418260, Control_c, 1, 11, 107
8, 418559, Note_on_c, 1, 73, 0
8, 418559, Note_on_c, 1, 82, 0
8, 418798, Control_c, 1, 11, 127
8, 418800, Note_on_c, 1, 82, 92
8, 418800, Note_on_c, 1, 73, 92
8, 418904, Note_on_c, 1, 82, 0
8, 418904, Note_on_c, 1, 73, 0
8, 418920, Note_on_c, 1, 83, 100
8, 418920, Note_on_c, 1, 74, 100
8, 418980, Control_c, 1, 11, 107
8, 419279, Note_on_c, 1, 83, 0
8, 419279, Note_on_c, 1, 74, 0
8, 419518, Control_c, 1, 11, 127
8, 419520, Note_on_c, 1, 74, 92
8, 419520, Note_on_c, 1, 83, 92
8, 419624, Note_on_c, 1, 74, 0
8, 419624, Note_on_c, 1, 83, 0
8, 419640, Note_on_c, 1, 76, 100
8, 419640, Note_on_c, 1, 85, 100
8, 419700, Control_c, 1, 11, 107
8, 419999, Note_on_c, 1, 76, 0
8, 419999, Note_on_c, 1, 85, 0
8, 420238, Control_c, 1, 11, 127
8, 420240, Note_on_c, 1, 85, 92
8, 420240, Note_on_c, 1, 76, 92
8, 420344, Note_on_c, 1, 85, 0
8, 420344, Note_on_c, 1, 76, 0
8, 420360, Note_on_c, 1, 78, 100
8, 420360, Note_on_c, 1, 86, 100
8, 420420, Control_c, 1, 11, 107
8, 420719, Note_on_c, 1, 78, 0
8, 420719, Note_on_c, 1, 86, 0
8, 420958, Control_c, 1, 11, 127
8, 420960, Note_on_c, 1, 75, 92
8, 420960, Note_on_c, 1, 78, 92
8, 421064, Note_on_c, 1, 75, 0
8, 421064, Note_on_c, 1, 78, 0
8, 421080, Note_on_c, 1, 71, 100
8, 421080, Note_on_c, 1, 83, 100
8, 421140, Control_c, 1, 11, 107
8, 421439, Note_on_c, 1, 71, 0
8, 421439, Note_on_c, 1, 83, 0
8, 421678, Control_c, 1, 11, 127
8, 421680, Note_on_c, 1, 71, 92
8, 421680, Note_on_c, 1, 76, 92
8, 421784, Note_on_c, 1, 71, 0
8, 421784, Note_on_c, 1, 76, 0
8, 421800, Note_on_c, 1, 71, 100
8, 421800, Note_on_c, 1, 77, 100
8, 421860, Control_c, 1, 11, 107
8, 422159, Note_on_c, 1, 71, 0
8, 422159, Note_on_c, 1, 77, 0
8, 422398, Control_c, 1, 11, 127
8, 422400, Note_on_c, 1, 71, 92
8, 422400, Note_on_c, 1, 77, 92
8, 422504, Note_on_c, 1, 71, 0
8, 422504, Note_on_c, 1, 77, 0
8, 422520, Note_on_c, 1, 78, 92
8, 422520, Note_on_c, 1, 66, 92
8, 422744, Note_on_c, 1, 78, 0
8, 422744, Note_on_c, 1, 66, 0
8, 422760, Note_on_c, 1, 66, 92
8, 422760, Note_on_c, 1, 78, 92
8, 422864, Note_on_c, 1, 66, 0
8, 422864, Note_on_c, 1, 78, 0
8, 422880, Note_on_c, 1, 66, 92
8, 422880, Note_on_c, 1, 78, 92
8, 423104, Note_on_c, 1, 66, 0
8, 423104, Note_on_c, 1, 78, 0
8, 423120, Note_on_c, 1, 66, 92
8, 423120, Note_on_c, 1, 78, 92
8, 423224, Note_on_c, 1, 66, 0
8, 423224, Note_on_c, 1, 78, 0
8, 423240, Note_on_c, 1, 66, 100
8, 423240, Note_on_c, 1, 78, 100
8, 423300, Control_c, 1, 11, 107
8, 423824, Note_on_c, 1, 66, 0
8, 423824, Note_on_c, 1, 78, 0
8, 423838, Control_c, 1, 11, 127
8, 423840, Note_on_c, 1, 66, 92
8, 423840, Note_on_c, 1, 78, 92
8, 423944, Note_on_c, 1, 66, 0
8, 423944, Note_on_c, 1, 78, 0
8, 423960, Note_on_c, 1, 78, 100
8, 423960, Note_on_c, 1, 66, 100
8, 424020, Control_c, 1, 11, 107
8, 424544, Note_on_c, 1, 78, 0
8, 424544, Note_on_c, 1, 66, 0
8, 424558, Control_c, 1, 11, 127
8, 424560, Note_on_c, 1, 66, 92
8, 424560, Note_on_c, 1, 78, 92
8, 424664, Note_on_c, 1, 66, 0
8, 424664, Note_on_c, 1, 78, 0
8, 424680, Note_on_c, 1, 78, 100
8, 424680, Note_on_c, 1, 66, 100
8, 424740, Control_c, 1, 11, 107
8, 425264, Note_on_c, 1, 78, 0
8, 425264, Note_on_c, 1, 66, 0
8, 425278, Control_c, 1, 11, 127
8, 425280, Note_on_c, 1, 66, 92
8, 425280, Note_on_c, 1, 78, 92
8, 425384, Note_on_c, 1, 66, 0
8, 425384, Note_on_c, 1, 78, 0
8, 425400, Note_on_c, 1, 78, 100
8, 425400, Note_on_c, 1, 66, 100
8, 425460, Control_c, 1, 11, 107
8, 425984, Note_on_c, 1, 78, 0
8, 425984, Note_on_c, 1, 66, 0
8, 425998, Control_c, 1, 11, 127
8, 426000, Note_on_c, 1, 66, 92
8, 426000, Note_on_c, 1, 78, 92
8, 426104, Note_on_c, 1, 66, 0
8, 426104, Note_on_c, 1, 78, 0
8, 426120, Note_on_c, 1, 66, 100
8, 426120, Note_on_c, 1, 78, 100
8, 426180, Control_c, 1, 11, 107
8, 426704, Note_on_c, 1, 66, 0
8, 426704, Note_on_c, 1, 78, 0
8, 426718, Control_c, 1, 11, 127
8, 426720, Note_on_c, 1, 78, 92
8, 426720, Note_on_c, 1, 66, 92
8, 426824, Note_on_c, 1, 78, 0
8, 426824, Note_on_c, 1, 66, 0
8, 426840, Note_on_c, 1, 78, 100
8, 426840, Note_on_c, 1, 66, 100
8, 426900, Control_c, 1, 11, 107
8, 427424, Note_on_c, 1, 78, 0
8, 427424, Note_on_c, 1, 66, 0
8, 427438, Control_c, 1, 11, 127
8, 427440, Note_on_c, 1, 66, 92
8, 427440, Note_on_c, 1, 78, 92
8, 427544, Note_on_c, 1, 66, 0
8, 427544, Note_on_c, 1, 78, 0
8, 427560, Note_on_c, 1, 78, 100
8, 427560, Note_on_c, 1, 66, 100
8, 427620, Control_c, 1, 11, 107
8, 428144, Note_on_c, 1, 78, 0
8, 428144, Note_on_c, 1, 66, 0
8, 428158, Control_c, 1, 11, 127
8, 428160, Note_on_c, 1, 78, 92
8, 428160, Note_on_c, 1, 66, 92
8, 428264, Note_on_c, 1, 78, 0
8, 428264, Note_on_c, 1, 66, 0
8, 428280, Note_on_c, 1, 78, 100
8, 428280, Note_on_c, 1, 66, 100
8, 428340, Control_c, 1, 11, 107
8, 428878, Control_c, 1, 11, 127
8, 428879, Note_on_c, 1, 78, 0
8, 428879, Note_on_c, 1, 66, 0
8, 431520, Note_on_c, 1, 71, 44
8, 431520, Note_on_c, 1, 75, 44
8, 432239, Note_on_c, 1, 71, 0
8, 432239, Note_on_c, 1, 75, 0
8, 432240, Note_on_c, 1, 73, 44
8, 432240, Note_on_c, 1, 76, 44
8, 432599, Note_on_c, 1, 73, 0
8, 432599, Note_on_c, 1, 76, 0
8, 432600, Note_on_c, 1, 75, 44
8, 432600, Note_on_c, 1, 78, 44
8, 432959, Note_on_c, 1, 75, 0
8, 432959, Note_on_c, 1, 78, 0
8, 435840, Note_on_c, 1, 71, 32
8, 435840, Note_on_c, 1, 74, 32
8, 436559, Note_on_c, 1, 71, 0
8, 436559, Note_on_c, 1, 74, 0
8, 436560, Note_on_c, 1, 73, 32
8, 436560, Note_on_c, 1, 76, 32
8, 436919, Note_on_c, 1, 73, 0
8, 436919, Note_on_c, 1, 76, 0
8, 436920, Note_on_c, 1, 78, 32
8, 436920, Note_on_c, 1, 74, 32
8, 437279, Note_on_c, 1, 78, 0
8, 437279, Note_on_c, 1, 74, 0
8, 439800, Control_c, 1, 11, 29
8, 440160, Control_c, 1, 11, 29
8, 440160, Note_on_c, 1, 74, 92
8, 440160, Note_on_c, 1, 78, 92
8, 440184, Control_c, 1, 11, 31
8, 440208, Control_c, 1, 11, 32
8, 440232, Control_c, 1, 11, 34
8, 440256, Control_c, 1, 11, 36
8, 440280, Control_c, 1, 11, 37
8, 440304, Control_c, 1, 11, 39
8, 440328, Control_c, 1, 11, 40
8, 440352, Control_c, 1, 11, 42
8, 440376, Control_c, 1, 11, 44
8, 440400, Control_c, 1, 11, 45
8, 440424, Control_c, 1, 11, 47
8, 440448, Control_c, 1, 11, 49
8, 440472, Control_c, 1, 11, 50
8, 440496, Control_c, 1, 11, 52
8, 440520, Control_c, 1, 11, 54
8, 440544, Control_c, 1, 11, 55
8, 440568, Control_c, 1, 11, 57
8, 440592, Control_c, 1, 11, 58
8, 440616, Control_c, 1, 11, 60
8, 440640, Control_c, 1, 11, 62
8, 440664, Control_c, 1, 11, 63
8, 440688, Control_c, 1, 11, 65
8, 440712, Control_c, 1, 11, 67
8, 440736, Control_c, 1, 11, 68
8, 440760, Control_c, 1, 11, 70
8, 440784, Control_c, 1, 11, 71
8, 440808, Control_c, 1, 11, 73
8, 440832, Control_c, 1, 11, 75
8, 440856, Control_c, 1, 11, 76
8, 440879, Note_on_c, 1, 74, 0
8, 440879, Note_on_c, 1, 78, 0
8, 440880, Note_on_c, 1, 79, 92
8, 440880, Note_on_c, 1, 76, 92
8, 440880, Control_c, 1, 11, 78
8, 440904, Control_c, 1, 11, 80
8, 440928, Control_c, 1, 11, 81
8, 440952, Control_c, 1, 11, 83
8, 440976, Control_c, 1, 11, 85
8, 441000, Control_c, 1, 11, 86
8, 441024, Control_c, 1, 11, 88
8, 441048, Control_c, 1, 11, 89
8, 441072, Control_c, 1, 11, 91
8, 441096, Control_c, 1, 11, 93
8, 441120, Control_c, 1, 11, 94
8, 441144, Control_c, 1, 11, 96
8, 441168, Control_c, 1, 11, 98
8, 441192, Control_c, 1, 11, 99
8, 441216, Control_c, 1, 11, 101
8, 441239, Note_on_c, 1, 79, 0
8, 441239, Note_on_c, 1, 76, 0
8, 441240, Control_c, 1, 11, 103
8, 441240, Note_on_c, 1, 81, 92
8, 441240, Note_on_c, 1, 78, 92
8, 441264, Control_c, 1, 11, 104
8, 441288, Control_c, 1, 11, 106
8, 441312, Control_c, 1, 11, 107
8, 441336, Control_c, 1, 11, 109
8, 441360, Control_c, 1, 11, 111
8, 441384, Control_c, 1, 11, 112
8, 441408, Control_c, 1, 11, 114
8, 441432, Control_c, 1, 11, 116
8, 441456, Control_c, 1, 11, 117
8, 441480, Control_c, 1, 11, 119
8, 441504, Control_c, 1, 11, 120
8, 441528, Control_c, 1, 11, 122
8, 441552, Control_c, 1, 11, 124
8, 441576, Control_c, 1, 11, 127
8, 441584, Note_on_c, 1, 81, 0
8, 441584, Note_on_c, 1, 78, 0
8, 441600, Note_on_c, 1, 74, 92
8, 441600, Note_on_c, 1, 78, 92
8, 441839, Note_on_c, 1, 74, 0
8, 441839, Note_on_c, 1, 78, 0
8, 441960, Note_on_c, 1, 74, 92
8, 441960, Note_on_c, 1, 78, 92
8, 442199, Note_on_c, 1, 74, 0
8, 442199, Note_on_c, 1, 78, 0
8, 442320, Note_on_c, 1, 76, 92
8, 442320, Note_on_c, 1, 79, 92
8, 442559, Note_on_c, 1, 76, 0
8, 442559, Note_on_c, 1, 79, 0
8, 442680, Note_on_c, 1, 81, 92
8, 442680, Note_on_c, 1, 78, 92
8, 442919, Note_on_c, 1, 81, 0
8, 442919, Note_on_c, 1, 78, 0
8, 443040, Note_on_c, 1, 81, 92
8, 443040, Note_on_c, 1, 78, 92
8, 443279, Note_on_c, 1, 81, 0
8, 443279, Note_on_c, 1, 78, 0
8, 443400, Note_on_c, 1, 76, 92
8, 443400, Note_on_c, 1, 79, 92
8, 443639, Note_on_c, 1, 76, 0
8, 443639, Note_on_c, 1, 79, 0
8, 443760, Note_on_c, 1, 78, 92
8, 443760, Note_on_c, 1, 69, 92
8, 443999, Note_on_c, 1, 78, 0
8, 443999, Note_on_c, 1, 69, 0
8, 444120, Note_on_c, 1, 67, 92
8, 444120, Note_on_c, 1, 76, 92
8, 444359, Note_on_c, 1, 67, 0
8, 444359, Note_on_c, 1, 76, 0
8, 444480, Note_on_c, 1, 66, 92
8, 444480, Note_on_c, 1, 74, 92
8, 444719, Note_on_c, 1, 66, 0
8, 444719, Note_on_c, 1, 74, 0
8, 444840, Note_on_c, 1, 74, 92
8, 444840, Note_on_c, 1, 66, 92
8, 445079, Note_on_c, 1, 74, 0
8, 445079, Note_on_c, 1, 66, 0
8, 445200, Note_on_c, 1, 76, 92
8, 445200, Note_on_c, 1, 69, 92
8, 445439, Note_on_c, 1, 76, 0
8, 445439, Note_on_c, 1, 69, 0
8, 445560, Note_on_c, 1, 74, 92
8, 445560, Note_on_c, 1, 78, 92
8, 445799, Note_on_c, 1, 74, 0
8, 445799, Note_on_c, 1, 78, 0
8, 445920, Note_on_c, 1, 74, 92
8, 445920, Note_on_c, 1, 78, 92
8, 446159, Note_on_c, 1, 74, 0
8, 446159, Note_on_c, 1, 78, 0
8, 446520, Note_on_c, 1, 73, 92
8, 446520, Note_on_c, 1, 76, 92
8, 446624, Note_on_c, 1, 73, 0
8, 446624, Note_on_c, 1, 76, 0
8, 446640, Note_on_c, 1, 73, 92
8, 446640, Note_on_c, 1, 76, 92
8, 446879, Note_on_c, 1, 73, 0
8, 446879, Note_on_c, 1, 76, 0
8, 447360, Note_on_c, 1, 69, 92
8, 447360, Note_on_c, 1, 78, 92
8, 447599, Note_on_c, 1, 69, 0
8, 447599, Note_on_c, 1, 78, 0
8, 447720, Note_on_c, 1, 78, 92
8, 447720, Note_on_c, 1, 81, 92
8, 447959, Note_on_c, 1, 78, 0
8, 447959, Note_on_c, 1, 81, 0
8, 448080, Note_on_c, 1, 83, 92
8, 448080, Note_on_c, 1, 79, 92
8, 448319, Note_on_c, 1, 83, 0
8, 448319, Note_on_c, 1, 79, 0
8, 448440, Note_on_c, 1, 81, 92
8, 448440, Note_on_c, 1, 84, 92
8, 448679, Note_on_c, 1, 81, 0
8, 448679, Note_on_c, 1, 84, 0
8, 448800, Note_on_c, 1, 84, 92
8, 448800, Note_on_c, 1, 81, 92
8, 449039, Note_on_c, 1, 84, 0
8, 449039, Note_on_c, 1, 81, 0
8, 449160, Note_on_c, 1, 83, 92
8, 449160, Note_on_c, 1, 79, 92
8, 449399, Note_on_c, 1, 83, 0
8, 449399, Note_on_c, 1, 79, 0
8, 449520, Note_on_c, 1, 78, 92
8, 449520, Note_on_c, 1, 81, 92
8, 449759, Note_on_c, 1, 78, 0
8, 449759, Note_on_c, 1, 81, 0
8, 449880, Note_on_c, 1, 79, 92
8, 449880, Note_on_c, 1, 76, 92
8, 450119, Note_on_c, 1, 79, 0
8, 450119, Note_on_c, 1, 76, 0
8, 450240, Note_on_c, 1, 74, 92
8, 450240, Note_on_c, 1, 78, 92
8, 450479, Note_on_c, 1, 74, 0
8, 450479, Note_on_c, 1, 78, 0
8, 450600, Note_on_c, 1, 78, 92
8, 450600, Note_on_c, 1, 74, 92
8, 450839, Note_on_c, 1, 78, 0
8, 450839, Note_on_c, 1, 74, 0
8, 450960, Note_on_c, 1, 76, 92
8, 450960, Note_on_c, 1, 79, 92
8, 451199, Note_on_c, 1, 76, 0
8, 451199, Note_on_c, 1, 79, 0
8, 451320, Note_on_c, 1, 81, 92
8, 451320, Note_on_c, 1, 78, 92
8, 451559, Note_on_c, 1, 81, 0
8, 451559, Note_on_c, 1, 78, 0
8, 451680, Note_on_c, 1, 76, 92
8, 451680, Note_on_c, 1, 79, 92
8, 451919, Note_on_c, 1, 76, 0
8, 451919, Note_on_c, 1, 79, 0
8, 452280, Note_on_c, 1, 78, 92
8, 452280, Note_on_c, 1, 74, 92
8, 452384, Note_on_c, 1, 78, 0
8, 452384, Note_on_c, 1, 74, 0
8, 452400, Note_on_c, 1, 78, 92
8, 452400, Note_on_c, 1, 74, 92
8, 452639, Note_on_c, 1, 78, 0
8, 452639, Note_on_c, 1, 74, 0
8, 453120, Note_on_c, 1, 73, 92
8, 453120, Note_on_c, 1, 76, 92
8, 453359, Note_on_c, 1, 73, 0
8, 453359, Note_on_c, 1, 76, 0
8, 453480, Note_on_c, 1, 73, 92
8, 453480, Note_on_c, 1, 76, 92
8, 453719, Note_on_c, 1, 73, 0
8, 453719, Note_on_c, 1, 76, 0
8, 453840, Note_on_c, 1, 78, 92
8, 453840, Note_on_c, 1, 74, 92
8, 454079, Note_on_c, 1, 78, 0
8, 454079, Note_on_c, 1, 74, 0
8, 454200, Note_on_c, 1, 78, 92
8, 454200, Note_on_c, 1, 74, 92
8, 454439, Note_on_c, 1, 78, 0
8, 454439, Note_on_c, 1, 74, 0
8, 454560, Note_on_c, 1, 76, 92
8, 454560, Note_on_c, 1, 73, 92
8, 454799, Note_on_c, 1, 76, 0
8, 454799, Note_on_c, 1, 73, 0
8, 454920, Note_on_c, 1, 78, 92
8, 454920, Note_on_c, 1, 74, 92
8, 455144, Note_on_c, 1, 78, 0
8, 455144, Note_on_c, 1, 74, 0
8, 455160, Note_on_c, 1, 76, 92
8, 455160, Note_on_c, 1, 79, 92
8, 455264, Note_on_c, 1, 76, 0
8, 455264, Note_on_c, 1, 79, 0
8, 455280, Note_on_c, 1, 78, 92
8, 455280, Note_on_c, 1, 74, 92
8, 455519, Note_on_c, 1, 78, 0
8, 455519, Note_on_c, 1, 74, 0
8, 455640, Note_on_c, 1, 74, 92
8, 455640, Note_on_c, 1, 78, 92
8, 455879, Note_on_c, 1, 74, 0
8, 455879, Note_on_c, 1, 78, 0
8, 456000, Note_on_c, 1, 73, 92
8, 456000, Note_on_c, 1, 76, 92
8, 456239, Note_on_c, 1, 73, 0
8, 456239, Note_on_c, 1, 76, 0
8, 456360, Note_on_c, 1, 78, 92
8, 456360, Note_on_c, 1, 74, 92
8, 456584, Note_on_c, 1, 78, 0
8, 456584, Note_on_c, 1, 74, 0
8, 456600, Note_on_c, 1, 76, 92
8, 456600, Note_on_c, 1, 79, 92
8, 456704, Note_on_c, 1, 76, 0
8, 456704, Note_on_c, 1, 79, 0
8, 456720, Note_on_c, 1, 78, 92
8, 456720, Note_on_c, 1, 73, 92
8, 456959, Note_on_c, 1, 78, 0
8, 456959, Note_on_c, 1, 73, 0
8, 457080, Note_on_c, 1, 76, 92
8, 457080, Note_on_c, 1, 73, 92
8, 457319, Note_on_c, 1, 76, 0
8, 457319, Note_on_c, 1, 73, 0
8, 457440, Note_on_c, 1, 71, 92
8, 457440, Note_on_c, 1, 74, 92
8, 457679, Note_on_c, 1, 71, 0
8, 457679, Note_on_c, 1, 74, 0
8, 457800, Note_on_c, 1, 68, 92
8, 457800, Note_on_c, 1, 76, 92
8, 458039, Note_on_c, 1, 68, 0
8, 458039, Note_on_c, 1, 76, 0
8, 458160, Note_on_c, 1, 69, 92
8, 458399, Note_on_c, 1, 69, 0
8, 458520, Note_on_c, 1, 74, 92
8, 458520, Note_on_c, 1, 78, 92
8, 458759, Note_on_c, 1, 74, 0
8, 458759, Note_on_c, 1, 78, 0
8, 458880, Note_on_c, 1, 78, 92
8, 458880, Note_on_c, 1, 74, 92
8, 459119, Note_on_c, 1, 78, 0
8, 459119, Note_on_c, 1, 74, 0
8, 459240, Note_on_c, 1, 69, 92
8, 459240, Note_on_c, 1, 78, 92
8, 459479, Note_on_c, 1, 69, 0
8, 459479, Note_on_c, 1, 78, 0
8, 459600, Note_on_c, 1, 71, 92
8, 459600, Note_on_c, 1, 79, 92
8, 459839, Note_on_c, 1, 71, 0
8, 459839, Note_on_c, 1, 79, 0
8, 459960, Note_on_c, 1, 72, 92
8, 459960, Note_on_c, 1, 81, 92
8, 460199, Note_on_c, 1, 72, 0
8, 460199, Note_on_c, 1, 81, 0
8, 460320, Note_on_c, 1, 72, 92
8, 460320, Note_on_c, 1, 81, 92
8, 460559, Note_on_c, 1, 72, 0
8, 460559, Note_on_c, 1, 81, 0
8, 460680, Note_on_c, 1, 71, 92
8, 460680, Note_on_c, 1, 79, 92
8, 460919, Note_on_c, 1, 71, 0
8, 460919, Note_on_c, 1, 79, 0
8, 461040, Note_on_c, 1, 78, 92
8, 461040, Note_on_c, 1, 69, 92
8, 461279, Note_on_c, 1, 78, 0
8, 461279, Note_on_c, 1, 69, 0
8, 461400, Note_on_c, 1, 79, 92
8, 461400, Note_on_c, 1, 67, 92
8, 461504, Note_on_c, 1, 67, 0
8, 461520, Note_on_c, 1, 69, 92
8, 461624, Note_on_c, 1, 79, 0
8, 461624, Note_on_c, 1, 69, 0
8, 461640, Note_on_c, 1, 71, 92
8, 461640, Note_on_c, 1, 76, 92
8, 461744, Note_on_c, 1, 71, 0
8, 461744, Note_on_c, 1, 76, 0
8, 461760, Note_on_c, 1, 74, 92
8, 461760, Note_on_c, 1, 66, 92
8, 461999, Note_on_c, 1, 74, 0
8, 461999, Note_on_c, 1, 66, 0
8, 462120, Note_on_c, 1, 74, 92
8, 462120, Note_on_c, 1, 66, 92
8, 462359, Note_on_c, 1, 74, 0
8, 462359, Note_on_c, 1, 66, 0
8, 462480, Note_on_c, 1, 76, 92
8, 462480, Note_on_c, 1, 67, 92
8, 462719, Note_on_c, 1, 76, 0
8, 462719, Note_on_c, 1, 67, 0
8, 462840, Note_on_c, 1, 78, 92
8, 462840, Note_on_c, 1, 69, 92
8, 463079, Note_on_c, 1, 78, 0
8, 463079, Note_on_c, 1, 69, 0
8, 463200, Note_on_c, 1, 73, 92
8, 463200, Note_on_c, 1, 76, 92
8, 463439, Note_on_c, 1, 73, 0
8, 463439, Note_on_c, 1, 76, 0
8, 463800, Note_on_c, 1, 66, 92
8, 463800, Note_on_c, 1, 74, 92
8, 463904, Note_on_c, 1, 66, 0
8, 463904, Note_on_c, 1, 74, 0
8, 463920, Note_on_c, 1, 74, 92
8, 463920, Note_on_c, 1, 66, 92
8, 464159, Note_on_c, 1, 74, 0
8, 464159, Note_on_c, 1, 66, 0
8, 464640, Note_on_c, 1, 76, 92
8, 464640, Note_on_c, 1, 73, 92
8, 464879, Note_on_c, 1, 76, 0
8, 464879, Note_on_c, 1, 73, 0
8, 465000, Note_on_c, 1, 76, 92
8, 465000, Note_on_c, 1, 73, 92
8, 465239, Note_on_c, 1, 76, 0
8, 465239, Note_on_c, 1, 73, 0
8, 465360, Note_on_c, 1, 74, 92
8, 465360, Note_on_c, 1, 78, 92
8, 465599, Note_on_c, 1, 74, 0
8, 465599, Note_on_c, 1, 78, 0
8, 465720, Note_on_c, 1, 78, 92
8, 465720, Note_on_c, 1, 74, 92
8, 465959, Note_on_c, 1, 78, 0
8, 465959, Note_on_c, 1, 74, 0
8, 466080, Note_on_c, 1, 76, 92
8, 466080, Note_on_c, 1, 73, 92
8, 466319, Note_on_c, 1, 76, 0
8, 466319, Note_on_c, 1, 73, 0
8, 466440, Note_on_c, 1, 78, 92
8, 466440, Note_on_c, 1, 74, 92
8, 466664, Note_on_c, 1, 78, 0
8, 466664, Note_on_c, 1, 74, 0
8, 466680, Note_on_c, 1, 79, 92
8, 466680, Note_on_c, 1, 76, 92
8, 466784, Note_on_c, 1, 79, 0
8, 466784, Note_on_c, 1, 76, 0
8, 466800, Note_on_c, 1, 78, 92
8, 466800, Note_on_c, 1, 74, 92
8, 467039, Note_on_c, 1, 78, 0
8, 467039, Note_on_c, 1, 74, 0
8, 467160, Note_on_c, 1, 78, 92
8, 467160, Note_on_c, 1, 74, 92
8, 467399, Note_on_c, 1, 78, 0
8, 467399, Note_on_c, 1, 74, 0
8, 467520, Note_on_c, 1, 73, 92
8, 467520, Note_on_c, 1, 76, 92
8, 467759, Note_on_c, 1, 73, 0
8, 467759, Note_on_c, 1, 76, 0
8, 467880, Note_on_c, 1, 78, 92
8, 467880, Note_on_c, 1, 74, 92
8, 468104, Note_on_c, 1, 78, 0
8, 468104, Note_on_c, 1, 74, 0
8, 468120, Note_on_c, 1, 76, 92
8, 468120, Note_on_c, 1, 79, 92
8, 468224, Note_on_c, 1, 76, 0
8, 468224, Note_on_c, 1, 79, 0
8, 468240, Note_on_c, 1, 78, 92
8, 468240, Note_on_c, 1, 73, 92
8, 468479, Note_on_c, 1, 78, 0
8, 468479, Note_on_c, 1, 73, 0
8, 468600, Note_on_c, 1, 73, 92
8, 468600, Note_on_c, 1, 76, 92
8, 468839, Note_on_c, 1, 73, 0
8, 468839, Note_on_c, 1, 76, 0
8, 468960, Note_on_c, 1, 71, 92
8, 468960, Note_on_c, 1, 74, 92
8, 469199, Note_on_c, 1, 71, 0
8, 469199, Note_on_c, 1, 74, 0
8, 469320, Note_on_c, 1, 76, 92
8, 469320, Note_on_c, 1, 68, 92
8, 469559, Note_on_c, 1, 76, 0
8, 469559, Note_on_c, 1, 68, 0
8, 469680, Note_on_c, 1, 69, 92
8, 469919, Note_on_c, 1, 69, 0
8, 470040, Note_on_c, 1, 74, 92
8, 470040, Note_on_c, 1, 78, 92
8, 470279, Note_on_c, 1, 74, 0
8, 470279, Note_on_c, 1, 78, 0
8, 470400, Note_on_c, 1, 78, 92
8, 470400, Note_on_c, 1, 74, 92
8, 470639, Note_on_c, 1, 78, 0
8, 470639, Note_on_c, 1, 74, 0
8, 470760, Note_on_c, 1, 69, 92
8, 470760, Note_on_c, 1, 78, 92
8, 470999, Note_on_c, 1, 69, 0
8, 470999, Note_on_c, 1, 78, 0
8, 471120, Note_on_c, 1, 71, 92
8, 471120, Note_on_c, 1, 79, 92
8, 471359, Note_on_c, 1, 71, 0
8, 471359, Note_on_c, 1, 79, 0
8, 471480, Note_on_c, 1, 72, 92
8, 471480, Note_on_c, 1, 81, 92
8, 471719, Note_on_c, 1, 72, 0
8, 471719, Note_on_c, 1, 81, 0
8, 471840, Note_on_c, 1, 81, 92
8, 471840, Note_on_c, 1, 72, 92
8, 472079, Note_on_c, 1, 81, 0
8, 472079, Note_on_c, 1, 72, 0
8, 472200, Note_on_c, 1, 71, 92
8, 472200, Note_on_c, 1, 79, 92
8, 472439, Note_on_c, 1, 71, 0
8, 472439, Note_on_c, 1, 79, 0
8, 472560, Note_on_c, 1, 69, 92
8, 472560, Note_on_c, 1, 78, 92
8, 472799, Note_on_c, 1, 69, 0
8, 472799, Note_on_c, 1, 78, 0
8, 472920, Note_on_c, 1, 67, 92
8, 472920, Note_on_c, 1, 79, 92
8, 473024, Note_on_c, 1, 67, 0
8, 473040, Note_on_c, 1, 69, 92
8, 473144, Note_on_c, 1, 79, 0
8, 473144, Note_on_c, 1, 69, 0
8, 473160, Note_on_c, 1, 71, 92
8, 473160, Note_on_c, 1, 76, 92
8, 473264, Note_on_c, 1, 71, 0
8, 473264, Note_on_c, 1, 76, 0
8, 473280, Note_on_c, 1, 74, 92
8, 473280, Note_on_c, 1, 66, 92
8, 473519, Note_on_c, 1, 74, 0
8, 473519, Note_on_c, 1, 66, 0
8, 473640, Note_on_c, 1, 74, 92
8, 473640, Note_on_c, 1, 66, 92
8, 473879, Note_on_c, 1, 74, 0
8, 473879, Note_on_c, 1, 66, 0
8, 474000, Note_on_c, 1, 67, 92
8, 474000, Note_on_c, 1, 76, 92
8, 474239, Note_on_c, 1, 67, 0
8, 474239, Note_on_c, 1, 76, 0
8, 474360, Note_on_c, 1, 69, 92
8, 474360, Note_on_c, 1, 78, 92
8, 474599, Note_on_c, 1, 69, 0
8, 474599, Note_on_c, 1, 78, 0
8, 474720, Note_on_c, 1, 73, 92
8, 474720, Note_on_c, 1, 76, 92
8, 474959, Note_on_c, 1, 73, 0
8, 474959, Note_on_c, 1, 76, 0
8, 475320, Note_on_c, 1, 74, 92
8, 475320, Note_on_c, 1, 66, 92
8, 475424, Note_on_c, 1, 74, 0
8, 475424, Note_on_c, 1, 66, 0
8, 475440, Note_on_c, 1, 74, 92
8, 475440, Note_on_c, 1, 66, 92
8, 475679, Note_on_c, 1, 74, 0
8, 475679, Note_on_c, 1, 66, 0
8, 475800, Note_on_c, 1, 78, 92
8, 475800, Note_on_c, 1, 81, 92
8, 476039, Note_on_c, 1, 78, 0
8, 476039, Note_on_c, 1, 81, 0
8, 476160, Note_on_c, 1, 76, 100
8, 476160, Note_on_c, 1, 79, 100
8, 476399, Note_on_c, 1, 76, 0
8, 476399, Note_on_c, 1, 79, 0
8, 476760, Note_on_c, 1, 74, 92
8, 476760, Note_on_c, 1, 78, 92
8, 476864, Note_on_c, 1, 74, 0
8, 476864, Note_on_c, 1, 78, 0
8, 476880, Note_on_c, 1, 78, 92
8, 476880, Note_on_c, 1, 74, 92
8, 477119, Note_on_c, 1, 78, 0
8, 477119, Note_on_c, 1, 74, 0
8, 477240, Note_on_c, 1, 86, 92
8, 477240, Note_on_c, 1, 74, 92
8, 477479, Note_on_c, 1, 86, 0
8, 477479, Note_on_c, 1, 74, 0
8, 477600, Note_on_c, 1, 84, 100
8, 477600, Note_on_c, 1, 81, 100
8, 477839, Note_on_c, 1, 84, 0
8, 477839, Note_on_c, 1, 81, 0
8, 478200, Note_on_c, 1, 83, 92
8, 478200, Note_on_c, 1, 79, 92
8, 478304, Note_on_c, 1, 83, 0
8, 478304, Note_on_c, 1, 79, 0
8, 478320, Note_on_c, 1, 83, 92
8, 478320, Note_on_c, 1, 79, 92
8, 478559, Note_on_c, 1, 83, 0
8, 478559, Note_on_c, 1, 79, 0
8, 491520, Note_on_c, 1, 79, 80
8, 491520, Note_on_c, 1, 71, 80
8, 492939, Note_on_c, 1, 79, 0
8, 492939, Note_on_c, 1, 71, 0
8, 492960, Note_on_c, 1, 79, 80
8, 492960, Note_on_c, 1, 71, 80
8, 493319, Note_on_c, 1, 79, 0
8, 493319, Note_on_c, 1, 71, 0
8, 493440, Note_on_c, 1, 78, 80
8, 493440, Note_on_c, 1, 69, 80
8, 493799, Note_on_c, 1, 78, 0
8, 493799, Note_on_c, 1, 69, 0
8, 493920, Note_on_c, 1, 74, 80
8, 493920, Note_on_c, 1, 66, 80
8, 494279, Note_on_c, 1, 74, 0
8, 494279, Note_on_c, 1, 66, 0
8, 494400, Note_on_c, 1, 76, 80
8, 494400, Note_on_c, 1, 67, 80
8, 495819, Note_on_c, 1, 76, 0
8, 495819, Note_on_c, 1, 67, 0
8, 495840, Note_on_c, 1, 76, 80
8, 495840, Note_on_c, 1, 67, 80
8, 496199, Note_on_c, 1, 76, 0
8, 496199, Note_on_c, 1, 67, 0
8, 496320, Note_on_c, 1, 74, 80
8, 496320, Note_on_c, 1, 67, 80
8, 496679, Note_on_c, 1, 74, 0
8, 496679, Note_on_c, 1, 67, 0
8, 496800, Note_on_c, 1, 67, 80
8, 496800, Note_on_c, 1, 71, 80
8, 497159, Note_on_c, 1, 67, 0
8, 497159, Note_on_c, 1, 71, 0
8, 497280, Note_on_c, 1, 71, 92
8, 497359, Note_on_c, 1, 71, 0
8, 497360, Note_on_c, 1, 71, 80
8, 497760, Note_on_c, 1, 72, 92
8, 497839, Note_on_c, 1, 72, 0
8, 497840, Note_on_c, 1, 72, 80
8, 498219, Note_on_c, 1, 71, 0
8, 498240, Note_on_c, 1, 69, 80
8, 498699, Note_on_c, 1, 72, 0
8, 498699, Note_on_c, 1, 69, 0
8, 498720, Note_on_c, 1, 72, 80
8, 498720, Note_on_c, 1, 69, 80
8, 499179, Note_on_c, 1, 72, 0
8, 499179, Note_on_c, 1, 69, 0
8, 499200, Note_on_c, 1, 66, 80
8, 499200, Note_on_c, 1, 71, 80
8, 499659, Note_on_c, 1, 66, 0
8, 499659, Note_on_c, 1, 71, 0
8, 499680, Note_on_c, 1, 64, 92
8, 499680, Note_on_c, 1, 67, 92
8, 499759, Note_on_c, 1, 64, 0
8, 499759, Note_on_c, 1, 67, 0
8, 499760, Note_on_c, 1, 64, 80
8, 499760, Note_on_c, 1, 67, 80
8, 500619, Note_on_c, 1, 64, 0
8, 500619, Note_on_c, 1, 67, 0
8, 500640, Note_on_c, 1, 76, 92
8, 501579, Note_on_c, 1, 76, 0
8, 501600, Note_on_c, 1, 76, 92
8, 502059, Note_on_c, 1, 76, 0
8, 502080, Note_on_c, 1, 74, 92
8, 503519, Note_on_c, 1, 74, 0
8, 514560, Note_on_c, 1, 69, 80
8, 514560, Note_on_c, 1, 72, 80
8, 515519, Note_on_c, 1, 69, 0
8, 515519, Note_on_c, 1, 72, 0
8, 515520, Note_on_c, 1, 74, 80
8, 515520, Note_on_c, 1, 70, 80
8, 516219, Note_on_c, 1, 74, 0
8, 516219, Note_on_c, 1, 70, 0
8, 516240, Note_on_c, 1, 69, 80
8, 516240, Note_on_c, 1, 72, 80
8, 516479, Note_on_c, 1, 69, 0
8, 516479, Note_on_c, 1, 72, 0
8, 516720, Note_on_c, 1, 77, 80
8, 517659, Note_on_c, 1, 77, 0
8, 517680, Note_on_c, 1, 77, 80
8, 517899, Note_on_c, 1, 77, 0
8, 517920, Note_on_c, 1, 77, 80
8, 518859, Note_on_c, 1, 77, 0
8, 518880, Note_on_c, 1, 77, 80
8, 519339, Note_on_c, 1, 77, 0
8, 519360, Note_on_c, 1, 77, 80
8, 520779, Note_on_c, 1, 77, 0
8, 520800, Note_on_c, 1, 74, 92
8, 520880, Control_c, 1, 11, 107
8, 521739, Note_on_c, 1, 74, 0
8, 521758, Control_c, 1, 11, 127
8, 521760, Note_on_c, 1, 72, 80
8, 522219, Note_on_c, 1, 72, 0
8, 522240, Note_on_c, 1, 72, 80
8, 522719, Note_on_c, 1, 72, 0
8, 522720, Note_on_c, 1, 69, 80
8, 523179, Note_on_c, 1, 69, 0
8, 523200, Note_on_c, 1, 67, 80
8, 523659, Note_on_c, 1, 67, 0
8, 523680, Note_on_c, 1, 77, 80
8, 524619, Note_on_c, 1, 77, 0
8, 524640, Note_on_c, 1, 76, 80
8, 525099, Note_on_c, 1, 76, 0
8, 525120, Note_on_c, 1, 76, 80
8, 525479, Note_on_c, 1, 76, 0
8, 525600, Note_on_c, 1, 74, 80
8, 525959, Note_on_c, 1, 74, 0
8, 526080, Note_on_c, 1, 70, 44
8, 526080, Note_on_c, 1, 74, 44
8, 526319, Note_on_c, 1, 70, 0
8, 526319, Note_on_c, 1, 74, 0
8, 550080, Note_on_c, 1, 79, 92
8, 550080, Note_on_c, 1, 67, 92
8, 550784, Note_on_c, 1, 79, 0
8, 550784, Note_on_c, 1, 67, 0
8, 550800, Note_on_c, 1, 79, 92
8, 550800, Note_on_c, 1, 75, 92
8, 551024, Note_on_c, 1, 79, 0
8, 551024, Note_on_c, 1, 75, 0
8, 551040, Note_on_c, 1, 75, 92
8, 551040, Note_on_c, 1, 79, 92
8, 551984, Note_on_c, 1, 75, 0
8, 551984, Note_on_c, 1, 79, 0
8, 552000, Note_on_c, 1, 79, 92
8, 552000, Note_on_c, 1, 75, 92
8, 552464, Note_on_c, 1, 79, 0
8, 552464, Note_on_c, 1, 75, 0
8, 552480, Note_on_c, 1, 79, 92
8, 552480, Note_on_c, 1, 75, 92
8, 552944, Note_on_c, 1, 79, 0
8, 552944, Note_on_c, 1, 75, 0
8, 552960, Note_on_c, 1, 79, 92
8, 552960, Note_on_c, 1, 75, 92
8, 553904, Note_on_c, 1, 79, 0
8, 553904, Note_on_c, 1, 75, 0
8, 553920, Note_on_c, 1, 75, 92
8, 553920, Note_on_c, 1, 79, 92
8, 554864, Note_on_c, 1, 75, 0
8, 554864, Note_on_c, 1, 79, 0
8, 554880, Note_on_c, 1, 75, 92
8, 554880, Note_on_c, 1, 79, 92
8, 555359, Note_on_c, 1, 75, 0
8, 555359, Note_on_c, 1, 79, 0
8, 557280, Note_on_c, 1, 82, 32
8, 558240, Note_on_c, 1, 79, 32
8, 560144, Note_on_c, 1, 82, 0
8, 560144, Note_on_c, 1, 79, 0
8, 560160, Note_on_c, 1, 79, 32
8, 560160, Note_on_c, 1, 82, 32
8, 560299, Note_on_c, 1, 79, 0
8, 560299, Note_on_c, 1, 82, 0
8, 560320, Note_on_c, 1, 82, 32
8, 560320, Note_on_c, 1, 79, 32
8, 560459, Note_on_c, 1, 82, 0
8, 560459, Note_on_c, 1, 79, 0
8, 560480, Note_on_c, 1, 82, 32
8, 560480, Note_on_c, 1, 79, 32
8, 560599, Note_on_c, 1, 82, 0
8, 560599, Note_on_c, 1, 79, 0
8, 560640, Note_on_c, 1, 79, 32
8, 560640, Note_on_c, 1, 82, 32
8, 560779, Note_on_c, 1, 79, 0
8, 560779, Note_on_c, 1, 82, 0
8, 560800, Note_on_c, 1, 79, 32
8, 560800, Note_on_c, 1, 82, 32
8, 560939, Note_on_c, 1, 79, 0
8, 560939, Note_on_c, 1, 82, 0
8, 560960, Note_on_c, 1, 79, 32
8, 560960, Note_on_c, 1, 82, 32
8, 561079, Note_on_c, 1, 79, 0
8, 561079, Note_on_c, 1, 82, 0
8, 561120, Note_on_c, 1, 79, 32
8, 561120, Note_on_c, 1, 82, 32
8, 561259, Note_on_c, 1, 79, 0
8, 561259, Note_on_c, 1, 82, 0
8, 561280, Note_on_c, 1, 79, 32
8, 561280, Note_on_c, 1, 82, 32
8, 561419, Note_on_c, 1, 79, 0
8, 561419, Note_on_c, 1, 82, 0
8, 561440, Note_on_c, 1, 82, 32
8, 561440, Note_on_c, 1, 79, 32
8, 561559, Note_on_c, 1, 82, 0
8, 561559, Note_on_c, 1, 79, 0
8, 561600, Note_on_c, 1, 79, 32
8, 561600, Note_on_c, 1, 82, 32
8, 561739, Note_on_c, 1, 79, 0
8, 561739, Note_on_c, 1, 82, 0
8, 561760, Note_on_c, 1, 82, 32
8, 561760, Note_on_c, 1, 79, 32
8, 561899, Note_on_c, 1, 82, 0
8, 561899, Note_on_c, 1, 79, 0
8, 561920, Note_on_c, 1, 79, 32
8, 561920, Note_on_c, 1, 82, 32
8, 562039, Note_on_c, 1, 79, 0
8, 562039, Note_on_c, 1, 82, 0
8, 562080, Note_on_c, 1, 82, 32
8, 562080, Note_on_c, 1, 79, 32
8, 562219, Note_on_c, 1, 82, 0
8, 562219, Note_on_c, 1, 79, 0
8, 562240, Note_on_c, 1, 82, 32
8, 562240, Note_on_c, 1, 79, 32
8, 562379, Note_on_c, 1, 82, 0
8, 562379, Note_on_c, 1, 79, 0
8, 562400, Note_on_c, 1, 82, 32
8, 562400, Note_on_c, 1, 79, 32
8, 562519, Note_on_c, 1, 82, 0
8, 562519, Note_on_c, 1, 79, 0
8, 562560, Note_on_c, 1, 79, 32
8, 562560, Note_on_c, 1, 82, 32
8, 562699, Note_on_c, 1, 79, 0
8, 562699, Note_on_c, 1, 82, 0
8, 562720, Note_on_c, 1, 82, 32
8, 562720, Note_on_c, 1, 79, 32
8, 562859, Note_on_c, 1, 82, 0
8, 562859, Note_on_c, 1, 79, 0
8, 562880, Note_on_c, 1, 79, 32
8, 562880, Note_on_c, 1, 82, 32
8, 562999, Note_on_c, 1, 79, 0
8, 562999, Note_on_c, 1, 82, 0
8, 563040, Note_on_c, 1, 79, 32
8, 563040, Note_on_c, 1, 82, 32
8, 563179, Note_on_c, 1, 79, 0
8, 563179, Note_on_c, 1, 82, 0
8, 563200, Note_on_c, 1, 82, 32
8, 563200, Note_on_c, 1, 79, 32
8, 563339, Note_on_c, 1, 82, 0
8, 563339, Note_on_c, 1, 79, 0
8, 563360, Note_on_c, 1, 79, 32
8, 563360, Note_on_c, 1, 82, 32
8, 563479, Note_on_c, 1, 79, 0
8, 563479, Note_on_c, 1, 82, 0
8, 563520, Note_on_c, 1, 82, 32
8, 563520, Note_on_c, 1, 79, 32
8, 563659, Note_on_c, 1, 82, 0
8, 563659, Note_on_c, 1, 79, 0
8, 563680, Note_on_c, 1, 79, 32
8, 563680, Note_on_c, 1, 82, 32
8, 563819, Note_on_c, 1, 79, 0
8, 563819, Note_on_c, 1, 82, 0
8, 563840, Note_on_c, 1, 82, 32
8, 563840, Note_on_c, 1, 79, 32
8, 563959, Note_on_c, 1, 82, 0
8, 563959, Note_on_c, 1, 79, 0
8, 564000, Note_on_c, 1, 79, 32
8, 564000, Note_on_c, 1, 82, 32
8, 564139, Note_on_c, 1, 79, 0
8, 564139, Note_on_c, 1, 82, 0
8, 564160, Note_on_c, 1, 82, 32
8, 564160, Note_on_c, 1, 79, 32
8, 564299, Note_on_c, 1, 82, 0
8, 564299, Note_on_c, 1, 79, 0
8, 564320, Note_on_c, 1, 82, 32
8, 564320, Note_on_c, 1, 79, 32
8, 564439, Note_on_c, 1, 82, 0
8, 564439, Note_on_c, 1, 79, 0
8, 564480, Note_on_c, 1, 82, 32
8, 564480, Note_on_c, 1, 79, 32
8, 564619, Note_on_c, 1, 82, 0
8, 564619, Note_on_c, 1, 79, 0
8, 564640, Note_on_c, 1, 79, 32
8, 564640, Note_on_c, 1, 82, 32
8, 564779, Note_on_c, 1, 79, 0
8, 564779, Note_on_c, 1, 82, 0
8, 564800, Note_on_c, 1, 79, 32
8, 564800, Note_on_c, 1, 82, 32
8, 564919, Note_on_c, 1, 79, 0
8, 564919, Note_on_c, 1, 82, 0
8, 564960, Note_on_c, 1, 79, 32
8, 564960, Note_on_c, 1, 82, 32
8, 565099, Note_on_c, 1, 79, 0
8, 565099, Note_on_c, 1, 82, 0
8, 565120, Note_on_c, 1, 79, 32
8, 565120, Note_on_c, 1, 82, 32
8, 565259, Note_on_c, 1, 79, 0
8, 565259, Note_on_c, 1, 82, 0
8, 565280, Note_on_c, 1, 82, 32
8, 565280, Note_on_c, 1, 79, 32
8, 565399, Note_on_c, 1, 82, 0
8, 565399, Note_on_c, 1, 79, 0
8, 565440, Note_on_c, 1, 79, 32
8, 565440, Note_on_c, 1, 82, 32
8, 565579, Note_on_c, 1, 79, 0
8, 565579, Note_on_c, 1, 82, 0
8, 565600, Note_on_c, 1, 82, 32
8, 565600, Note_on_c, 1, 79, 32
8, 565739, Note_on_c, 1, 82, 0
8, 565739, Note_on_c, 1, 79, 0
8, 565760, Note_on_c, 1, 82, 32
8, 565760, Note_on_c, 1, 79, 32
8, 565879, Note_on_c, 1, 82, 0
8, 565879, Note_on_c, 1, 79, 0
8, 565920, Note_on_c, 1, 82, 32
8, 565920, Note_on_c, 1, 79, 32
8, 566059, Note_on_c, 1, 82, 0
8, 566059, Note_on_c, 1, 79, 0
8, 566080, Note_on_c, 1, 82, 32
8, 566080, Note_on_c, 1, 79, 32
8, 566219, Note_on_c, 1, 82, 0
8, 566219, Note_on_c, 1, 79, 0
8, 566240, Note_on_c, 1, 79, 32
8, 566240, Note_on_c, 1, 82, 32
8, 566359, Note_on_c, 1, 79, 0
8, 566359, Note_on_c, 1, 82, 0
8, 566400, Note_on_c, 1, 82, 32
8, 566400, Note_on_c, 1, 79, 32
8, 566539, Note_on_c, 1, 82, 0
8, 566539, Note_on_c, 1, 79, 0
8, 566560, Note_on_c, 1, 79, 32
8, 566560, Note_on_c, 1, 82, 32
8, 566679, Note_on_c, 1, 79, 0
8, 566679, Note_on_c, 1, 82, 0
8, 566720, Note_on_c, 1, 82, 32
8, 566720, Note_on_c, 1, 79, 32
8, 566879, Note_on_c, 1, 82, 0
8, 566879, Note_on_c, 1, 79, 0
8, 568320, Note_on_c, 1, 78, 92
8, 568779, Note_on_c, 1, 78, 0
8, 568800, Note_on_c, 1, 78, 92
8, 569019, Note_on_c, 1, 78, 0
8, 569040, Note_on_c, 1, 79, 92
8, 569499, Note_on_c, 1, 79, 0
8, 569520, Note_on_c, 1, 81, 92
8, 569739, Note_on_c, 1, 81, 0
8, 569760, Note_on_c, 1, 81, 92
8, 570219, Note_on_c, 1, 81, 0
8, 570240, Note_on_c, 1, 79, 92
8, 570459, Note_on_c, 1, 79, 0
8, 570480, Note_on_c, 1, 78, 92
8, 570939, Note_on_c, 1, 78, 0
8, 570960, Note_on_c, 1, 76, 92
8, 571179, Note_on_c, 1, 76, 0
8, 571200, Note_on_c, 1, 74, 92
8, 571659, Note_on_c, 1, 74, 0
8, 571680, Note_on_c, 1, 74, 92
8, 571899, Note_on_c, 1, 74, 0
8, 571920, Note_on_c, 1, 76, 92
8, 572379, Note_on_c, 1, 76, 0
8, 572400, Note_on_c, 1, 78, 92
8, 572619, Note_on_c, 1, 78, 0
8, 572640, Note_on_c, 1, 78, 92
8, 573099, Note_on_c, 1, 78, 0
8, 573120, Note_on_c, 1, 76, 92
8, 573339, Note_on_c, 1, 76, 0
8, 573360, Note_on_c, 1, 74, 92
8, 573819, Note_on_c, 1, 74, 0
8, 573840, Note_on_c, 1, 73, 92
8, 574059, Note_on_c, 1, 73, 0
8, 574080, Note_on_c, 1, 71, 92
8, 574539, Note_on_c, 1, 71, 0
8, 574560, Note_on_c, 1, 71, 92
8, 574779, Note_on_c, 1, 71, 0
8, 574800, Note_on_c, 1, 73, 92
8, 575259, Note_on_c, 1, 73, 0
8, 575280, Note_on_c, 1, 74, 92
8, 575499, Note_on_c, 1, 74, 0
8, 575520, Note_on_c, 1, 74, 92
8, 575979, Note_on_c, 1, 74, 0
8, 576000, Note_on_c, 1, 73, 92
8, 576219, Note_on_c, 1, 73, 0
8, 576240, Note_on_c, 1, 71, 92
8, 576699, Note_on_c, 1, 71, 0
8, 576720, Note_on_c, 1, 69, 92
8, 576939, Note_on_c, 1, 69, 0
8, 576960, Note_on_c, 1, 67, 92
8, 577419, Note_on_c, 1, 67, 0
8, 577440, Note_on_c, 1, 66, 92
8, 577659, Note_on_c, 1, 66, 0
8, 577680, Note_on_c, 1, 64, 92
8, 578139, Note_on_c, 1, 64, 0
8, 578160, Note_on_c, 1, 62, 92
8, 578379, Note_on_c, 1, 62, 0
8, 578400, Note_on_c, 1, 69, 92
8, 578859, Note_on_c, 1, 69, 0
8, 578880, Note_on_c, 1, 69, 92
8, 579099, Note_on_c, 1, 69, 0
8, 579120, Note_on_c, 1, 69, 92
8, 579599, Note_on_c, 1, 69, 0
8, 581280, Note_on_c, 1, 76, 80
8, 581739, Note_on_c, 1, 76, 0
8, 581760, Note_on_c, 1, 76, 80
8, 581999, Note_on_c, 1, 76, 0
8, 584160, Note_on_c, 1, 81, 80
8, 584619, Note_on_c, 1, 81, 0
8, 584640, Note_on_c, 1, 81, 80
8, 584879, Note_on_c, 1, 81, 0
8, 586320, Note_on_c, 1, 78, 80
8, 586779, Note_on_c, 1, 78, 0
8, 586800, Note_on_c, 1, 78, 80
8, 587019, Note_on_c, 1, 78, 0
8, 587040, Note_on_c, 1, 78, 80
8, 587499, Note_on_c, 1, 78, 0
8, 587520, Note_on_c, 1, 76, 80
8, 587739, Note_on_c, 1, 76, 0
8, 587760, Note_on_c, 1, 81, 80
8, 588219, Note_on_c, 1, 81, 0
8, 588240, Note_on_c, 1, 79, 80
8, 588459, Note_on_c, 1, 79, 0
8, 588480, Note_on_c, 1, 78, 80
8, 588939, Note_on_c, 1, 78, 0
8, 588960, Note_on_c, 1, 76, 80
8, 589179, Note_on_c, 1, 76, 0
8, 589200, Note_on_c, 1, 74, 80
8, 589659, Note_on_c, 1, 74, 0
8, 589680, Note_on_c, 1, 73, 80
8, 589899, Note_on_c, 1, 73, 0
8, 589920, Note_on_c, 1, 76, 80
8, 590379, Note_on_c, 1, 76, 0
8, 590400, Note_on_c, 1, 74, 80
8, 590619, Note_on_c, 1, 74, 0
8, 590640, Note_on_c, 1, 76, 80
8, 591099, Note_on_c, 1, 76, 0
8, 591120, Note_on_c, 1, 78, 80
8, 593279, Note_on_c, 1, 78, 0
8, 593280, Note_on_c, 1, 76, 80
8, 593519, Note_on_c, 1, 76, 0
8, 593520, Note_on_c, 1, 74, 80
8, 593999, Note_on_c, 1, 74, 0
8, 594000, Note_on_c, 1, 73, 80
8, 594219, Note_on_c, 1, 73, 0
8, 594240, Note_on_c, 1, 74, 80
8, 596159, Note_on_c, 1, 74, 0
8, 596160, Note_on_c, 1, 73, 80
8, 596399, Note_on_c, 1, 73, 0
8, 596400, Note_on_c, 1, 71, 80
8, 596879, Note_on_c, 1, 71, 0
8, 596880, Note_on_c, 1, 69, 80
8, 597099, Note_on_c, 1, 69, 0
8, 597120, Note_on_c, 1, 71, 80
8, 598539, Note_on_c, 1, 71, 0
8, 598560, Note_on_c, 1, 69, 80
8, 599999, Note_on_c, 1, 69, 0
8, 602160, Note_on_c, 1, 81, 92
8, 603579, Note_on_c, 1, 81, 0
8, 603600, Note_on_c, 1, 81, 80
8, 604299, Note_on_c, 1, 81, 0
8, 604320, Note_on_c, 1, 80, 80
8, 605019, Note_on_c, 1, 80, 0
8, 605040, Note_on_c, 1, 76, 80
8, 605739, Note_on_c, 1, 76, 0
8, 605760, Note_on_c, 1, 78, 80
8, 606459, Note_on_c, 1, 78, 0
8, 606480, Note_on_c, 1, 78, 80
8, 607179, Note_on_c, 1, 78, 0
8, 607200, Note_on_c, 1, 76, 80
8, 607899, Note_on_c, 1, 76, 0
8, 607920, Note_on_c, 1, 73, 80
8, 608619, Note_on_c, 1, 73, 0
8, 608640, Note_on_c, 1, 74, 80
8, 609339, Note_on_c, 1, 74, 0
8, 609360, Note_on_c, 1, 74, 80
8, 610059, Note_on_c, 1, 74, 0
8, 610080, Note_on_c, 1, 73, 80
8, 610779, Note_on_c, 1, 73, 0
8, 610800, Note_on_c, 1, 69, 80
8, 611499, Note_on_c, 1, 69, 0
8, 611520, Note_on_c, 1, 79, 80
8, 612219, Note_on_c, 1, 79, 0
8, 612240, Note_on_c, 1, 79, 80
8, 612939, Note_on_c, 1, 79, 0
8, 612960, Note_on_c, 1, 78, 80
8, 613679, Note_on_c, 1, 78, 0
8, 614400, Note_on_c, 1, 78, 80
8, 615099, Note_on_c, 1, 78, 0
8, 615120, Note_on_c, 1, 78, 80
8, 615819, Note_on_c, 1, 78, 0
8, 615840, Note_on_c, 1, 78, 80
8, 616539, Note_on_c, 1, 78, 0
8, 616560, Note_on_c, 1, 71, 80
8, 617259, Note_on_c, 1, 71, 0
8, 617280, Note_on_c, 1, 81, 80
8, 617979, Note_on_c, 1, 81, 0
8, 618000, Note_on_c, 1, 81, 80
8, 618699, Note_on_c, 1, 81, 0
8, 618720, Note_on_c, 1, 80, 80
8, 619419, Note_on_c, 1, 80, 0
8, 619440, Note_on_c, 1, 79, 80
8, 620139, Note_on_c, 1, 79, 0
8, 620160, Note_on_c, 1, 79, 80
8, 620859, Note_on_c, 1, 79, 0
8, 620880, Note_on_c, 1, 79, 80
8, 621579, Note_on_c, 1, 79, 0
8, 621600, Note_on_c, 1, 78, 80
8, 622319, Note_on_c, 1, 78, 0
8, 623040, Note_on_c, 1, 78, 80
8, 623499, Note_on_c, 1, 78, 0
8, 623520, Note_on_c, 1, 78, 80
8, 623739, Note_on_c, 1, 78, 0
8, 623760, Note_on_c, 1, 79, 80
8, 624219, Note_on_c, 1, 79, 0
8, 624240, Note_on_c, 1, 81, 80
8, 624459, Note_on_c, 1, 81, 0
8, 624480, Note_on_c, 1, 81, 80
8, 624939, Note_on_c, 1, 81, 0
8, 624960, Note_on_c, 1, 79, 80
8, 625179, Note_on_c, 1, 79, 0
8, 625200, Note_on_c, 1, 78, 80
8, 625659, Note_on_c, 1, 78, 0
8, 625680, Note_on_c, 1, 76, 80
8, 625899, Note_on_c, 1, 76, 0
8, 625920, Note_on_c, 1, 74, 80
8, 626379, Note_on_c, 1, 74, 0
8, 626400, Note_on_c, 1, 74, 80
8, 626619, Note_on_c, 1, 74, 0
8, 626640, Note_on_c, 1, 76, 80
8, 627099, Note_on_c, 1, 76, 0
8, 627120, Note_on_c, 1, 78, 80
8, 627339, Note_on_c, 1, 78, 0
8, 627360, Note_on_c, 1, 78, 80
8, 627819, Note_on_c, 1, 78, 0
8, 627840, Note_on_c, 1, 76, 80
8, 628059, Note_on_c, 1, 76, 0
8, 628080, Note_on_c, 1, 74, 80
8, 628539, Note_on_c, 1, 74, 0
8, 628560, Note_on_c, 1, 73, 80
8, 628779, Note_on_c, 1, 73, 0
8, 628800, Note_on_c, 1, 71, 80
8, 629259, Note_on_c, 1, 71, 0
8, 629280, Note_on_c, 1, 71, 80
8, 629499, Note_on_c, 1, 71, 0
8, 629520, Note_on_c, 1, 73, 80
8, 629979, Note_on_c, 1, 73, 0
8, 630000, Note_on_c, 1, 74, 80
8, 630219, Note_on_c, 1, 74, 0
8, 630240, Note_on_c, 1, 74, 80
8, 630719, Note_on_c, 1, 74, 0
8, 630720, Note_on_c, 1, 73, 80
8, 630959, Note_on_c, 1, 73, 0
8, 630960, Note_on_c, 1, 71, 80
8, 631439, Note_on_c, 1, 71, 0
8, 631440, Note_on_c, 1, 69, 80
8, 631659, Note_on_c, 1, 69, 0
8, 631680, Note_on_c, 1, 68, 80
8, 632159, Note_on_c, 1, 68, 0
8, 632160, Note_on_c, 1, 66, 80
8, 632399, Note_on_c, 1, 66, 0
8, 632400, Note_on_c, 1, 64, 80
8, 632879, Note_on_c, 1, 64, 0
8, 632880, Note_on_c, 1, 74, 80
8, 633119, Note_on_c, 1, 74, 0
8, 633840, Note_on_c, 1, 69, 80
8, 635259, Note_on_c, 1, 69, 0
8, 635280, Note_on_c, 1, 69, 80
8, 635979, Note_on_c, 1, 69, 0
8, 636000, Note_on_c, 1, 68, 80
8, 636699, Note_on_c, 1, 68, 0
8, 636720, Note_on_c, 1, 64, 80
8, 637439, Note_on_c, 1, 64, 0
8, 639600, Note_on_c, 1, 78, 92
8, 641019, Note_on_c, 1, 78, 0
8, 641040, Note_on_c, 1, 78, 80
8, 641739, Note_on_c, 1, 78, 0
8, 641760, Note_on_c, 1, 77, 80
8, 642459, Note_on_c, 1, 77, 0
8, 642480, Note_on_c, 1, 73, 80
8, 643179, Note_on_c, 1, 73, 0
8, 643200, Note_on_c, 1, 76, 80
8, 643899, Note_on_c, 1, 76, 0
8, 643920, Note_on_c, 1, 76, 80
8, 644619, Note_on_c, 1, 76, 0
8, 644640, Note_on_c, 1, 75, 80
8, 645339, Note_on_c, 1, 75, 0
8, 645360, Note_on_c, 1, 71, 80
8, 646059, Note_on_c, 1, 71, 0
8, 646080, Note_on_c, 1, 78, 80
8, 647259, Note_on_c, 1, 78, 0
8, 647280, Note_on_c, 1, 74, 80
8, 647499, Note_on_c, 1, 74, 0
8, 647520, Note_on_c, 1, 76, 80
8, 647979, Note_on_c, 1, 76, 0
8, 648000, Note_on_c, 1, 73, 80
8, 648219, Note_on_c, 1, 73, 0
8, 648240, Note_on_c, 1, 74, 80
8, 648699, Note_on_c, 1, 74, 0
8, 648720, Note_on_c, 1, 76, 80
8, 648939, Note_on_c, 1, 76, 0
8, 648960, Note_on_c, 1, 70, 80
8, 649659, Note_on_c, 1, 70, 0
8, 649680, Note_on_c, 1, 71, 80
8, 650139, Note_on_c, 1, 71, 0
8, 650160, Note_on_c, 1, 70, 80
8, 650379, Note_on_c, 1, 70, 0
8, 650400, Note_on_c, 1, 71, 80
8, 651099, Note_on_c, 1, 71, 0
8, 651120, Note_on_c, 1, 75, 80
8, 652539, Note_on_c, 1, 75, 0
8, 652560, Note_on_c, 1, 75, 80
8, 653259, Note_on_c, 1, 75, 0
8, 653280, Note_on_c, 1, 76, 80
8, 653979, Note_on_c, 1, 76, 0
8, 654000, Note_on_c, 1, 76, 80
8, 654699, Note_on_c, 1, 76, 0
8, 654720, Note_on_c, 1, 80, 80
8, 655419, Note_on_c, 1, 80, 0
8, 655440, Note_on_c, 1, 80, 80
8, 656139, Note_on_c, 1, 80, 0
8, 656160, Note_on_c, 1, 81, 80
8, 656859, Note_on_c, 1, 81, 0
8, 656880, Note_on_c, 1, 69, 80
8, 657579, Note_on_c, 1, 69, 0
8, 657600, Note_on_c, 1, 81, 80
8, 658299, Note_on_c, 1, 81, 0
8, 658320, Note_on_c, 1, 81, 80
8, 659019, Note_on_c, 1, 81, 0
8, 659040, Note_on_c, 1, 81, 92
8, 664799, Note_on_c, 1, 81, 0
8, 664800, Note_on_c, 1, 81, 92
8, 671259, Note_on_c, 1, 81, 0
8, 671280, Note_on_c, 1, 81, 92
8, 671979, Note_on_c, 1, 81, 0
8, 672000, Note_on_c, 1, 81, 92
8, 672699, Note_on_c, 1, 81, 0
8, 672720, Note_on_c, 1, 81, 92
8, 673419, Note_on_c, 1, 81, 0
8, 673440, Note_on_c, 1, 81, 92
8, 676319, Note_on_c, 1, 81, 0
8, 688080, Note_on_c, 1, 67, 44
8, 688299, Note_on_c, 1, 67, 0
8, 688320, Note_on_c, 1, 67, 45
8, 688539, Note_on_c, 1, 67, 0
8, 688560, Note_on_c, 1, 67, 46
8, 688779, Note_on_c, 1, 67, 0
8, 688800, Note_on_c, 1, 67, 47
8, 689019, Note_on_c, 1, 67, 0
8, 689040, Note_on_c, 1, 67, 48
8, 689279, Note_on_c, 1, 67, 0
8, 689520, Note_on_c, 1, 76, 50
8, 689739, Note_on_c, 1, 76, 0
8, 689760, Note_on_c, 1, 76, 50
8, 689979, Note_on_c, 1, 76, 0
8, 690000, Note_on_c, 1, 76, 51
8, 690219, Note_on_c, 1, 76, 0
8, 690240, Note_on_c, 1, 76, 52
8, 690459, Note_on_c, 1, 76, 0
8, 690480, Note_on_c, 1, 76, 53
8, 690719, Note_on_c, 1, 76, 0
8, 690960, Note_on_c, 1, 77, 55
8, 691179, Note_on_c, 1, 77, 0
8, 691200, Note_on_c, 1, 77, 56
8, 691419, Note_on_c, 1, 77, 0
8, 691440, Note_on_c, 1, 77, 56
8, 691659, Note_on_c, 1, 77, 0
8, 691680, Note_on_c, 1, 77, 57
8, 691899, Note_on_c, 1, 77, 0
8, 691920, Note_on_c, 1, 77, 58
8, 692159, Note_on_c, 1, 77, 0
8, 692400, Note_on_c, 1, 78, 60
8, 692619, Note_on_c, 1, 78, 0
8, 692640, Note_on_c, 1, 78, 61
8, 692859, Note_on_c, 1, 78, 0
8, 692880, Note_on_c, 1, 78, 62
8, 693099, Note_on_c, 1, 78, 0
8, 693120, Note_on_c, 1, 78, 62
8, 693339, Note_on_c, 1, 78, 0
8, 693360, Note_on_c, 1, 78, 63
8, 693599, Note_on_c, 1, 78, 0
8, 693840, Note_on_c, 1, 70, 65
8, 694059, Note_on_c, 1, 70, 0
8, 694080, Note_on_c, 1, 70, 66
8, 694299, Note_on_c, 1, 70, 0
8, 694320, Note_on_c, 1, 70, 67
8, 694539, Note_on_c, 1, 70, 0
8, 694560, Note_on_c, 1, 70, 68
8, 694779, Note_on_c, 1, 70, 0
8, 694800, Note_on_c, 1, 70, 68
8, 695039, Note_on_c, 1, 70, 0
8, 695280, Note_on_c, 1, 79, 70
8, 695499, Note_on_c, 1, 79, 0
8, 695520, Note_on_c, 1, 79, 71
8, 695739, Note_on_c, 1, 79, 0
8, 695760, Note_on_c, 1, 79, 72
8, 695979, Note_on_c, 1, 79, 0
8, 696000, Note_on_c, 1, 79, 73
8, 696219, Note_on_c, 1, 79, 0
8, 696240, Note_on_c, 1, 79, 74
8, 696479, Note_on_c, 1, 79, 0
8, 696720, Note_on_c, 1, 80, 75
8, 696939, Note_on_c, 1, 80, 0
8, 696960, Note_on_c, 1, 80, 76
8, 697179, Note_on_c, 1, 80, 0
8, 697200, Note_on_c, 1, 80, 77
8, 697419, Note_on_c, 1, 80, 0
8, 697440, Note_on_c, 1, 80, 78
8, 697659, Note_on_c, 1, 80, 0
8, 697680, Note_on_c, 1, 80, 79
8, 697899, Note_on_c, 1, 80, 0
8, 697920, Note_on_c, 1, 69, 80
8, 697920, Note_on_c, 1, 81, 80
8, 698619, Note_on_c, 1, 69, 0
8, 698619, Note_on_c, 1, 81, 0
8, 698640, Note_on_c, 1, 73, 92
8, 698640, Note_on_c, 1, 76, 92
8, 698720, Control_c, 1, 11, 107
8, 700059, Note_on_c, 1, 73, 0
8, 700059, Note_on_c, 1, 76, 0
8, 700080, Note_on_c, 1, 73, 92
8, 700080, Note_on_c, 1, 76, 92
8, 700799, Note_on_c, 1, 73, 0
8, 700799, Note_on_c, 1, 76, 0
8, 702000, Control_c, 1, 11, 127
8, 702240, Note_on_c, 1, 71, 80
8, 702240, Note_on_c, 1, 80, 80
8, 702939, Note_on_c, 1, 71, 0
8, 702939, Note_on_c, 1, 80, 0
8, 702960, Note_on_c, 1, 80, 80
8, 702960, Note_on_c, 1, 71, 80
8, 703679, Note_on_c, 1, 80, 0
8, 703679, Note_on_c, 1, 71, 0
8, 706320, Control_c, 1, 11, 69
8, 706560, Control_c, 1, 11, 69
8, 706560, Note_on_c, 1, 68, 80
8, 706633, Control_c, 1, 11, 71
8, 706707, Control_c, 1, 11, 72
8, 706780, Control_c, 1, 11, 74
8, 706853, Control_c, 1, 11, 75
8, 706927, Control_c, 1, 11, 77
8, 707000, Control_c, 1, 11, 79
8, 707039, Note_on_c, 1, 68, 0
8, 707040, Note_on_c, 1, 69, 80
8, 707073, Control_c, 1, 11, 80
8, 707147, Control_c, 1, 11, 82
8, 707220, Control_c, 1, 11, 84
8, 707279, Note_on_c, 1, 69, 0
8, 707280, Note_on_c, 1, 71, 80
8, 707293, Control_c, 1, 11, 85
8, 707367, Control_c, 1, 11, 87
8, 707440, Control_c, 1, 11, 88
8, 707513, Control_c, 1, 11, 90
8, 707587, Control_c, 1, 11, 92
8, 707660, Control_c, 1, 11, 93
8, 707733, Control_c, 1, 11, 95
8, 707759, Note_on_c, 1, 71, 0
8, 707760, Note_on_c, 1, 73, 80
8, 707807, Control_c, 1, 11, 96
8, 707880, Control_c, 1, 11, 98
8, 707953, Control_c, 1, 11, 100
8, 707999, Note_on_c, 1, 73, 0
8, 708000, Note_on_c, 1, 74, 80
8, 708027, Control_c, 1, 11, 101
8, 708100, Control_c, 1, 11, 103
8, 708173, Control_c, 1, 11, 104
8, 708247, Control_c, 1, 11, 106
8, 708320, Control_c, 1, 11, 108
8, 708393, Control_c, 1, 11, 109
8, 708467, Control_c, 1, 11, 111
8, 708479, Note_on_c, 1, 74, 0
8, 708480, Note_on_c, 1, 76, 80
8, 708480, Note_on_c, 1, 64, 80
8, 708540, Control_c, 1, 11, 113
8, 708613, Control_c, 1, 11, 114
8, 708687, Control_c, 1, 11, 116
8, 708719, Note_on_c, 1, 76, 0
8, 708719, Note_on_c, 1, 64, 0
8, 708720, Note_on_c, 1, 78, 80
8, 708720, Note_on_c, 1, 66, 80
8, 708760, Control_c, 1, 11, 117
8, 708833, Control_c, 1, 11, 119
8, 708907, Control_c, 1, 11, 121
8, 708980, Control_c, 1, 11, 122
8, 709053, Control_c, 1, 11, 124
8, 709127, Control_c, 1, 11, 127
8, 709199, Note_on_c, 1, 78, 0
8, 709199, Note_on_c, 1, 66, 0
8, 709200, Note_on_c, 1, 68, 80
8, 709200, Note_on_c, 1, 80, 80
8, 709240, Control_c, 1, 11, 122
8, 709280, Control_c, 1, 11, 117
8, 709320, Control_c, 1, 11, 112
8, 709360, Control_c, 1, 11, 107
8, 709400, Control_c, 1, 11, 102
8, 709439, Note_on_c, 1, 68, 0
8, 709439, Note_on_c, 1, 80, 0
8, 709440, Note_on_c, 1, 69, 80
8, 709440, Note_on_c, 1, 81, 80
8, 709440, Control_c, 1, 11, 99
8, 709480, Control_c, 1, 11, 94
8, 709520, Control_c, 1, 11, 89
8, 709560, Control_c, 1, 11, 84
8, 709600, Control_c, 1, 11, 79
8, 709640, Control_c, 1, 11, 74
8, 709679, Note_on_c, 1, 69, 0
8, 709679, Note_on_c, 1, 81, 0
8, 709680, Control_c, 1, 11, 69
8, 717360, Control_c, 1, 11, 127
8, 718080, Note_on_c, 1, 67, 44
8, 718559, Note_on_c, 1, 67, 0
8, 718560, Note_on_c, 1, 69, 44
8, 718799, Note_on_c, 1, 69, 0
8, 718800, Note_on_c, 1, 71, 44
8, 719279, Note_on_c, 1, 71, 0
8, 719280, Note_on_c, 1, 72, 44
8, 719519, Note_on_c, 1, 72, 0
8, 719520, Note_on_c, 1, 74, 38
8, 719999, Note_on_c, 1, 74, 0
8, 720000, Note_on_c, 1, 76, 38
8, 720239, Note_on_c, 1, 76, 0
8, 720240, Note_on_c, 1, 78, 38
8, 720719, Note_on_c, 1, 78, 0
8, 720720, Note_on_c, 1, 79, 38
8, 720959, Note_on_c, 1, 79, 0
8, 720960, Note_on_c, 1, 78, 38
8, 720960, Note_on_c, 1, 81, 38
8, 721439, Note_on_c, 1, 78, 0
8, 721439, Note_on_c, 1, 81, 0
8, 721440, Note_on_c, 1, 79, 38
8, 721440, Note_on_c, 1, 83, 38
8, 721679, Note_on_c, 1, 79, 0
8, 721679, Note_on_c, 1, 83, 0
8, 721680, Note_on_c, 1, 84, 38
8, 721680, Note_on_c, 1, 81, 38
8, 722159, Note_on_c, 1, 84, 0
8, 722159, Note_on_c, 1, 81, 0
8, 722160, Note_on_c, 1, 83, 38
8, 722160, Note_on_c, 1, 86, 38
8, 723119, Note_on_c, 1, 83, 0
8, 723119, Note_on_c, 1, 86, 0
8, 723120, Note_on_c, 1, 83, 32
8, 723120, Note_on_c, 1, 86, 32
8, 723839, Note_on_c, 1, 83, 0
8, 723839, Note_on_c, 1, 86, 0
8, 726240, Note_on_c, 1, 76, 32
8, 726339, Note_on_c, 1, 76, 0
8, 726360, Note_on_c, 1, 74, 32
8, 726459, Note_on_c, 1, 74, 0
8, 726480, Note_on_c, 1, 73, 32
8, 726579, Note_on_c, 1, 73, 0
8, 726600, Note_on_c, 1, 86, 32
8, 726699, Note_on_c, 1, 86, 0
8, 726720, Note_on_c, 1, 85, 32
8, 726819, Note_on_c, 1, 85, 0
8, 726840, Note_on_c, 1, 83, 32
8, 726939, Note_on_c, 1, 83, 0
8, 726960, Note_on_c, 1, 81, 32
8, 727059, Note_on_c, 1, 81, 0
8, 727080, Note_on_c, 1, 79, 32
8, 727179, Note_on_c, 1, 79, 0
8, 727200, Note_on_c, 1, 78, 32
8, 727299, Note_on_c, 1, 78, 0
8, 727320, Note_on_c, 1, 76, 32
8, 727419, Note_on_c, 1, 76, 0
8, 727440, Note_on_c, 1, 74, 32
8, 727539, Note_on_c, 1, 74, 0
8, 727560, Note_on_c, 1, 73, 32
8, 727659, Note_on_c, 1, 73, 0
8, 727680, Note_on_c, 1, 74, 32
8, 727919, Note_on_c, 1, 74, 0
8, 729600, Note_on_c, 1, 74, 32
8, 729600, Note_on_c, 1, 66, 32
8, 730539, Note_on_c, 1, 74, 0
8, 730539, Note_on_c, 1, 66, 0
8, 730560, Note_on_c, 1, 67, 32
8, 730560, Note_on_c, 1, 76, 32
8, 731519, Note_on_c, 1, 67, 0
8, 731519, Note_on_c, 1, 76, 0
8, 731520, Note_on_c, 1, 78, 32
8, 731520, Note_on_c, 1, 74, 32
8, 732119, Note_on_c, 1, 78, 0
8, 732119, Note_on_c, 1, 74, 0
8, 732120, Note_on_c, 1, 79, 32
8, 732120, Note_on_c, 1, 76, 32
8, 732239, Note_on_c, 1, 79, 0
8, 732239, Note_on_c, 1, 76, 0
8, 732240, Note_on_c, 1, 78, 32
8, 732240, Note_on_c, 1, 81, 32
8, 732359, Note_on_c, 1, 78, 0
8, 732359, Note_on_c, 1, 81, 0
8, 732360, Note_on_c, 1, 74, 32
8, 732360, Note_on_c, 1, 78, 32
8, 732459, Note_on_c, 1, 74, 0
8, 732459, Note_on_c, 1, 78, 0
8, 732480, Note_on_c, 1, 76, 32
8, 732480, Note_on_c, 1, 79, 32
8, 732699, Note_on_c, 1, 76, 0
8, 732699, Note_on_c, 1, 79, 0
8, 732720, Note_on_c, 1, 79, 32
8, 732720, Note_on_c, 1, 76, 32
8, 732939, Note_on_c, 1, 79, 0
8, 732939, Note_on_c, 1, 76, 0
8, 732960, Note_on_c, 1, 79, 32
8, 732960, Note_on_c, 1, 76, 32
8, 733179, Note_on_c, 1, 79, 0
8, 733179, Note_on_c, 1, 76, 0
8, 733200, Note_on_c, 1, 76, 32
8, 733200, Note_on_c, 1, 79, 32
8, 733419, Note_on_c, 1, 76, 0
8, 733419, Note_on_c, 1, 79, 0
8, 733440, Note_on_c, 1, 78, 32
8, 733440, Note_on_c, 1, 74, 32
8, 733539, Note_on_c, 1, 78, 0
8, 733560, Note_on_c, 1, 76, 32
8, 733659, Note_on_c, 1, 76, 0
8, 733679, Note_on_c, 1, 74, 0
8, 733680, Note_on_c, 1, 78, 32
8, 733779, Note_on_c, 1, 78, 0
8, 733800, Note_on_c, 1, 78, 32
8, 733899, Note_on_c, 1, 78, 0
8, 733920, Note_on_c, 1, 78, 32
8, 734019, Note_on_c, 1, 78, 0
8, 734040, Note_on_c, 1, 76, 32
8, 734139, Note_on_c, 1, 76, 0
8, 734160, Note_on_c, 1, 74, 32
8, 734259, Note_on_c, 1, 74, 0
8, 734280, Note_on_c, 1, 73, 32
8, 734379, Note_on_c, 1, 73, 0
8, 734400, Note_on_c, 1, 71, 32
8, 734499, Note_on_c, 1, 71, 0
8, 734520, Note_on_c, 1, 73, 32
8, 734619, Note_on_c, 1, 73, 0
8, 734640, Note_on_c, 1, 74, 32
8, 734739, Note_on_c, 1, 74, 0
8, 734760, Note_on_c, 1, 74, 32
8, 734859, Note_on_c, 1, 74, 0
8, 734880, Note_on_c, 1, 74, 32
8, 734979, Note_on_c, 1, 74, 0
8, 735000, Note_on_c, 1, 73, 32
8, 735099, Note_on_c, 1, 73, 0
8, 735120, Note_on_c, 1, 71, 32
8, 735219, Note_on_c, 1, 71, 0
8, 735240, Note_on_c, 1, 69, 32
8, 735339, Note_on_c, 1, 69, 0
8, 735360, Note_on_c, 1, 68, 32
8, 735459, Note_on_c, 1, 68, 0
8, 735480, Note_on_c, 1, 81, 32
8, 735579, Note_on_c, 1, 81, 0
8, 735600, Note_on_c, 1, 83, 32
8, 735699, Note_on_c, 1, 83, 0
8, 735720, Note_on_c, 1, 83, 32
8, 735819, Note_on_c, 1, 83, 0
8, 735840, Note_on_c, 1, 83, 32
8, 735939, Note_on_c, 1, 83, 0
8, 735960, Note_on_c, 1, 81, 32
8, 736059, Note_on_c, 1, 81, 0
8, 736080, Note_on_c, 1, 80, 32
8, 736179, Note_on_c, 1, 80, 0
8, 736200, Note_on_c, 1, 78, 32
8, 736299, Note_on_c, 1, 78, 0
8, 736320, Note_on_c, 1, 80, 32
8, 736419, Note_on_c, 1, 80, 0
8, 736440, Note_on_c, 1, 81, 32
8, 736539, Note_on_c, 1, 81, 0
8, 736560, Note_on_c, 1, 83, 32
8, 736659, Note_on_c, 1, 83, 0
8, 736680, Note_on_c, 1, 85, 32
8, 736779, Note_on_c, 1, 85, 0
8, 736800, Note_on_c, 1, 86, 32
8, 736899, Note_on_c, 1, 86, 0
8, 736920, Note_on_c, 1, 76, 32
8, 737019, Note_on_c, 1, 76, 0
8, 737040, Note_on_c, 1, 78, 32
8, 737139, Note_on_c, 1, 78, 0
8, 737160, Note_on_c, 1, 80, 32
8, 737259, Note_on_c, 1, 80, 0
8, 737280, Note_on_c, 1, 81, 32
8, 737519, Note_on_c, 1, 81, 0
8, 738240, Note_on_c, 1, 76, 32
8, 738839, Note_on_c, 1, 76, 0
8, 738840, Note_on_c, 1, 78, 32
8, 738959, Note_on_c, 1, 78, 0
8, 738960, Note_on_c, 1, 80, 32
8, 739079, Note_on_c, 1, 80, 0
8, 739080, Note_on_c, 1, 76, 32
8, 739199, Note_on_c, 1, 76, 0
8, 739200, Note_on_c, 1, 81, 32
8, 739439, Note_on_c, 1, 81, 0
8, 741120, Note_on_c, 1, 73, 32
8, 741120, Note_on_c, 1, 69, 32
8, 741719, Note_on_c, 1, 73, 0
8, 741719, Note_on_c, 1, 69, 0
8, 741720, Note_on_c, 1, 71, 32
8, 741720, Note_on_c, 1, 74, 32
8, 741839, Note_on_c, 1, 71, 0
8, 741839, Note_on_c, 1, 74, 0
8, 741840, Note_on_c, 1, 73, 32
8, 741840, Note_on_c, 1, 76, 32
8, 741959, Note_on_c, 1, 73, 0
8, 741959, Note_on_c, 1, 76, 0
8, 741960, Note_on_c, 1, 73, 32
8, 741960, Note_on_c, 1, 69, 32
8, 742059, Note_on_c, 1, 73, 0
8, 742059, Note_on_c, 1, 69, 0
8, 742080, Note_on_c, 1, 71, 32
8, 742080, Note_on_c, 1, 74, 32
8, 742299, Note_on_c, 1, 71, 0
8, 742299, Note_on_c, 1, 74, 0
8, 742320, Note_on_c, 1, 74, 32
8, 742320, Note_on_c, 1, 71, 32
8, 742539, Note_on_c, 1, 74, 0
8, 742539, Note_on_c, 1, 71, 0
8, 742560, Note_on_c, 1, 76, 32
8, 742560, Note_on_c, 1, 73, 32
8, 742779, Note_on_c, 1, 76, 0
8, 742779, Note_on_c, 1, 73, 0
8, 742800, Note_on_c, 1, 76, 32
8, 742800, Note_on_c, 1, 73, 32
8, 743019, Note_on_c, 1, 76, 0
8, 743019, Note_on_c, 1, 73, 0
8, 743040, Note_on_c, 1, 73, 32
8, 743040, Note_on_c, 1, 76, 32
8, 743259, Note_on_c, 1, 73, 0
8, 743259, Note_on_c, 1, 76, 0
8, 743280, Note_on_c, 1, 76, 32
8, 743459, Note_on_c, 1, 76, 0
8, 743520, Note_on_c, 1, 74, 32
8, 743699, Note_on_c, 1, 74, 0
8, 744240, Note_on_c, 1, 79, 32
8, 744419, Note_on_c, 1, 79, 0
8, 744480, Note_on_c, 1, 78, 32
8, 744659, Note_on_c, 1, 78, 0
8, 745920, Control_c, 1, 11, 49
8, 746160, Note_on_c, 1, 73, 80
8, 746160, Note_on_c, 1, 79, 80
8, 746399, Note_on_c, 1, 73, 0
8, 746400, Note_on_c, 1, 74, 80
8, 746639, Note_on_c, 1, 79, 0
8, 746640, Note_on_c, 1, 78, 80
8, 746859, Note_on_c, 1, 74, 0
8, 746859, Note_on_c, 1, 78, 0
8, 746880, Control_c, 1, 11, 49
8, 746880, Note_on_c, 1, 73, 80
8, 747052, Control_c, 1, 11, 50
8, 747225, Control_c, 1, 11, 51
8, 747359, Note_on_c, 1, 73, 0
8, 747360, Note_on_c, 1, 74, 80
8, 747397, Control_c, 1, 11, 52
8, 747569, Control_c, 1, 11, 53
8, 747742, Control_c, 1, 11, 54
8, 747819, Note_on_c, 1, 74, 0
8, 747840, Note_on_c, 1, 73, 80
8, 747914, Control_c, 1, 11, 55
8, 748086, Control_c, 1, 11, 56
8, 748258, Control_c, 1, 11, 57
8, 748319, Note_on_c, 1, 73, 0
8, 748320, Note_on_c, 1, 74, 80
8, 748431, Control_c, 1, 11, 58
8, 748603, Control_c, 1, 11, 59
8, 748775, Control_c, 1, 11, 60
8, 748779, Note_on_c, 1, 74, 0
8, 748800, Note_on_c, 1, 73, 80
8, 748948, Control_c, 1, 11, 61
8, 749120, Control_c, 1, 11, 62
8, 749279, Note_on_c, 1, 73, 0
8, 749280, Note_on_c, 1, 74, 80
8, 749292, Control_c, 1, 11, 63
8, 749465, Control_c, 1, 11, 64
8, 749637, Control_c, 1, 11, 65
8, 749739, Note_on_c, 1, 74, 0
8, 749760, Note_on_c, 1, 73, 80
8, 749809, Control_c, 1, 11, 66
8, 749982, Control_c, 1, 11, 67
8, 750154, Control_c, 1, 11, 68
8, 750239, Note_on_c, 1, 73, 0
8, 750240, Note_on_c, 1, 74, 80
8, 750326, Control_c, 1, 11, 69
8, 750498, Control_c, 1, 11, 70
8, 750671, Control_c, 1, 11, 71
8, 750719, Note_on_c, 1, 74, 0
8, 750843, Control_c, 1, 11, 72
8, 750960, Note_on_c, 1, 76, 80
8, 751015, Control_c, 1, 11, 73
8, 751188, Control_c, 1, 11, 74
8, 751199, Note_on_c, 1, 76, 0
8, 751360, Control_c, 1, 11, 75
8, 751440, Note_on_c, 1, 74, 80
8, 751532, Control_c, 1, 11, 76
8, 751679, Note_on_c, 1, 74, 0
8, 751705, Control_c, 1, 11, 77
8, 751877, Control_c, 1, 11, 78
8, 751920, Note_on_c, 1, 76, 80
8, 752049, Control_c, 1, 11, 79
8, 752099, Note_on_c, 1, 76, 0
8, 752160, Note_on_c, 1, 78, 80
8, 752222, Control_c, 1, 11, 80
8, 752339, Note_on_c, 1, 78, 0
8, 752394, Control_c, 1, 11, 81
8, 752400, Note_on_c, 1, 79, 80
8, 752519, Note_on_c, 1, 79, 0
8, 752520, Note_on_c, 1, 78, 80
8, 752566, Control_c, 1, 11, 82
8, 752619, Note_on_c, 1, 78, 0
8, 752640, Note_on_c, 1, 76, 80
8, 752738, Control_c, 1, 11, 83
8, 752819, Note_on_c, 1, 76, 0
8, 752880, Note_on_c, 1, 78, 80
8, 752911, Control_c, 1, 11, 84
8, 752999, Note_on_c, 1, 78, 0
8, 753000, Note_on_c, 1, 76, 80
8, 753083, Control_c, 1, 11, 85
8, 753099, Note_on_c, 1, 76, 0
8, 753120, Note_on_c, 1, 74, 80
8, 753255, Control_c, 1, 11, 86
8, 753299, Note_on_c, 1, 74, 0
8, 753360, Note_on_c, 1, 76, 80
8, 753428, Control_c, 1, 11, 87
8, 753479, Note_on_c, 1, 76, 0
8, 753480, Note_on_c, 1, 74, 80
8, 753579, Note_on_c, 1, 74, 0
8, 753600, Control_c, 1, 11, 88
8, 753600, Note_on_c, 1, 79, 80
8, 753772, Control_c, 1, 11, 89
8, 753779, Note_on_c, 1, 79, 0
8, 753840, Note_on_c, 1, 81, 80
8, 753945, Control_c, 1, 11, 90
8, 753959, Note_on_c, 1, 81, 0
8, 753960, Note_on_c, 1, 79, 80
8, 754059, Note_on_c, 1, 79, 0
8, 754080, Note_on_c, 1, 78, 80
8, 754117, Control_c, 1, 11, 91
8, 754259, Note_on_c, 1, 78, 0
8, 754289, Control_c, 1, 11, 92
8, 754320, Note_on_c, 1, 76, 80
8, 754439, Note_on_c, 1, 76, 0
8, 754440, Note_on_c, 1, 74, 80
8, 754462, Control_c, 1, 11, 93
8, 754559, Note_on_c, 1, 74, 0
8, 754560, Note_on_c, 1, 81, 80
8, 754634, Control_c, 1, 11, 94
8, 754799, Note_on_c, 1, 81, 0
8, 754800, Note_on_c, 1, 73, 80
8, 754806, Control_c, 1, 11, 95
8, 754978, Control_c, 1, 11, 96
8, 755039, Note_on_c, 1, 73, 0
8, 755040, Note_on_c, 1, 69, 80
8, 755151, Control_c, 1, 11, 97
8, 755279, Note_on_c, 1, 69, 0
8, 755280, Note_on_c, 1, 74, 80
8, 755323, Control_c, 1, 11, 98
8, 755495, Control_c, 1, 11, 99
8, 755519, Note_on_c, 1, 74, 0
8, 755668, Control_c, 1, 11, 100
8, 755760, Note_on_c, 1, 76, 80
8, 755840, Control_c, 1, 11, 101
8, 755999, Note_on_c, 1, 76, 0
8, 756000, Note_on_c, 1, 69, 80
8, 756012, Control_c, 1, 11, 102
8, 756185, Control_c, 1, 11, 103
8, 756239, Note_on_c, 1, 69, 0
8, 756240, Note_on_c, 1, 74, 80
8, 756357, Control_c, 1, 11, 104
8, 756479, Note_on_c, 1, 74, 0
8, 756529, Control_c, 1, 11, 105
8, 756702, Control_c, 1, 11, 106
8, 756720, Note_on_c, 1, 79, 80
8, 756809, Note_on_c, 1, 79, 0
8, 756840, Note_on_c, 1, 69, 80
8, 756874, Control_c, 1, 11, 107
8, 756929, Note_on_c, 1, 69, 0
8, 756960, Note_on_c, 1, 78, 80
8, 757046, Control_c, 1, 11, 108
8, 757199, Note_on_c, 1, 78, 0
8, 757218, Control_c, 1, 11, 109
8, 757391, Control_c, 1, 11, 110
8, 757563, Control_c, 1, 11, 111
8, 757680, Note_on_c, 1, 76, 80
8, 757735, Control_c, 1, 11, 112
8, 757769, Note_on_c, 1, 76, 0
8, 757800, Note_on_c, 1, 69, 80
8, 757889, Note_on_c, 1, 69, 0
8, 757908, Control_c, 1, 11, 113
8, 757920, Note_on_c, 1, 74, 80
8, 758080, Control_c, 1, 11, 114
8, 758159, Note_on_c, 1, 74, 0
8, 758252, Control_c, 1, 11, 115
8, 758425, Control_c, 1, 11, 116
8, 758597, Control_c, 1, 11, 117
8, 758640, Note_on_c, 1, 79, 80
8, 758729, Note_on_c, 1, 79, 0
8, 758760, Note_on_c, 1, 69, 80
8, 758769, Control_c, 1, 11, 118
8, 758849, Note_on_c, 1, 69, 0
8, 758880, Note_on_c, 1, 78, 80
8, 758942, Control_c, 1, 11, 119
8, 759114, Control_c, 1, 11, 120
8, 759119, Note_on_c, 1, 78, 0
8, 759286, Control_c, 1, 11, 121
8, 759458, Control_c, 1, 11, 122
8, 759600, Note_on_c, 1, 76, 80
8, 759631, Control_c, 1, 11, 123
8, 759689, Note_on_c, 1, 76, 0
8, 759720, Note_on_c, 1, 69, 80
8, 759803, Control_c, 1, 11, 124
8, 759809, Note_on_c, 1, 69, 0
8, 759840, Note_on_c, 1, 74, 80
8, 759975, Control_c, 1, 11, 125
8, 760079, Note_on_c, 1, 74, 0
8, 760148, Control_c, 1, 11, 127
8, 760560, Note_on_c, 1, 79, 80
8, 760560, Note_on_c, 1, 76, 80
8, 760649, Note_on_c, 1, 79, 0
8, 760649, Note_on_c, 1, 76, 0
8, 760680, Note_on_c, 1, 69, 80
8, 760769, Note_on_c, 1, 69, 0
8, 760800, Note_on_c, 1, 71, 92
8, 760979, Note_on_c, 1, 71, 0
8, 761040, Note_on_c, 1, 69, 80
8, 761219, Note_on_c, 1, 69, 0
8, 761280, Note_on_c, 1, 74, 80
8, 761459, Note_on_c, 1, 74, 0
8, 761520, Note_on_c, 1, 73, 80
8, 761699, Note_on_c, 1, 73, 0
8, 761760, Note_on_c, 1, 78, 80
8, 761939, Note_on_c, 1, 78, 0
8, 762000, Note_on_c, 1, 76, 80
8, 762179, Note_on_c, 1, 76, 0
8, 762240, Note_on_c, 1, 81, 80
8, 762419, Note_on_c, 1, 81, 0
8, 762480, Note_on_c, 1, 79, 80
8, 762659, Note_on_c, 1, 79, 0
8, 762720, Note_on_c, 1, 79, 80
8, 762899, Note_on_c, 1, 79, 0
8, 762960, Note_on_c, 1, 79, 92
8, 763139, Note_on_c, 1, 79, 0
8, 763200, Note_on_c, 1, 86, 80
8, 763379, Note_on_c, 1, 86, 0
8, 763440, Note_on_c, 1, 85, 80
8, 763619, Note_on_c, 1, 85, 0
8, 763680, Note_on_c, 1, 78, 80
8, 763859, Note_on_c, 1, 78, 0
8, 763920, Note_on_c, 1, 76, 80
8, 764099, Note_on_c, 1, 76, 0
8, 764160, Note_on_c, 1, 81, 80
8, 764339, Note_on_c, 1, 81, 0
8, 764400, Note_on_c, 1, 79, 80
8, 764579, Note_on_c, 1, 79, 0
8, 764638, Control_c, 1, 11, 69
8, 764640, Control_c, 1, 11, 69
8, 764640, Note_on_c, 1, 79, 80
8, 764640, Note_on_c, 1, 76, 80
8, 764680, Control_c, 1, 11, 74
8, 764720, Control_c, 1, 11, 79
8, 764760, Control_c, 1, 11, 84
8, 764800, Control_c, 1, 11, 89
8, 764840, Control_c, 1, 11, 94
8, 764880, Control_c, 1, 11, 99
8, 764920, Control_c, 1, 11, 102
8, 764960, Control_c, 1, 11, 107
8, 765000, Control_c, 1, 11, 112
8, 765040, Control_c, 1, 11, 117
8, 765080, Control_c, 1, 11, 122
8, 765120, Control_c, 1, 11, 127
8, 765339, Note_on_c, 1, 79, 0
8, 765339, Note_on_c, 1, 76, 0
8, 765360, Note_on_c, 1, 78, 92
8, 765360, Note_on_c, 1, 74, 92
8, 765939, Note_on_c, 1, 78, 0
8, 765939, Note_on_c, 1, 74, 0
8, 765960, Note_on_c, 1, 66, 92
8, 765960, Note_on_c, 1, 78, 92
8, 766059, Note_on_c, 1, 66, 0
8, 766059, Note_on_c, 1, 78, 0
8, 766080, Note_on_c, 1, 66, 80
8, 766080, Note_on_c, 1, 78, 80
8, 766299, Note_on_c, 1, 66, 0
8, 766299, Note_on_c, 1, 78, 0
8, 766320, Note_on_c, 1, 74, 80
8, 766320, Note_on_c, 1, 62, 80
8, 766539, Note_on_c, 1, 74, 0
8, 766539, Note_on_c, 1, 62, 0
8, 766560, Note_on_c, 1, 74, 80
8, 766560, Note_on_c, 1, 62, 80
8, 766899, Note_on_c, 1, 74, 0
8, 766899, Note_on_c, 1, 62, 0
8, 766920, Note_on_c, 1, 62, 80
8, 766920, Note_on_c, 1, 74, 80
8, 767019, Note_on_c, 1, 62, 0
8, 767019, Note_on_c, 1, 74, 0
8, 767040, Note_on_c, 1, 74, 80
8, 767040, Note_on_c, 1, 62, 80
8, 767259, Note_on_c, 1, 74, 0
8, 767259, Note_on_c, 1, 62, 0
8, 767280, Note_on_c, 1, 71, 80
8, 767499, Note_on_c, 1, 71, 0
8, 767520, Note_on_c, 1, 71, 80
8, 767520, Note_on_c, 1, 83, 80
8, 767859, Note_on_c, 1, 71, 0
8, 767859, Note_on_c, 1, 83, 0
8, 767880, Note_on_c, 1, 83, 80
8, 767880, Note_on_c, 1, 71, 80
8, 767979, Note_on_c, 1, 83, 0
8, 767979, Note_on_c, 1, 71, 0
8, 768000, Note_on_c, 1, 83, 80
8, 768000, Note_on_c, 1, 71, 80
8, 768219, Note_on_c, 1, 83, 0
8, 768219, Note_on_c, 1, 71, 0
8, 768240, Note_on_c, 1, 79, 80
8, 768240, Note_on_c, 1, 67, 80
8, 768459, Note_on_c, 1, 79, 0
8, 768459, Note_on_c, 1, 67, 0
8, 768480, Note_on_c, 1, 79, 80
8, 768480, Note_on_c, 1, 67, 80
8, 768819, Note_on_c, 1, 79, 0
8, 768819, Note_on_c, 1, 67, 0
8, 768840, Note_on_c, 1, 79, 80
8, 768840, Note_on_c, 1, 67, 80
8, 768939, Note_on_c, 1, 79, 0
8, 768939, Note_on_c, 1, 67, 0
8, 768960, Control_c, 1, 11, 127
8, 768960, Note_on_c, 1, 76, 80
8, 768960, Note_on_c, 1, 79, 80
8, 769000, Control_c, 1, 11, 117
8, 769040, Control_c, 1, 11, 107
8, 769080, Control_c, 1, 11, 99
8, 769120, Control_c, 1, 11, 89
8, 769160, Control_c, 1, 11, 79
8, 769169, Note_on_c, 1, 76, 0
8, 769169, Note_on_c, 1, 79, 0
8, 769200, Control_c, 1, 11, 69
8, 769200, Note_on_c, 1, 76, 80
8, 769200, Note_on_c, 1, 79, 80
8, 769260, Control_c, 1, 11, 72
8, 769320, Control_c, 1, 11, 75
8, 769380, Control_c, 1, 11, 79
8, 769409, Note_on_c, 1, 76, 0
8, 769409, Note_on_c, 1, 79, 0
8, 769440, Control_c, 1, 11, 82
8, 769440, Note_on_c, 1, 76, 80
8, 769440, Note_on_c, 1, 79, 80
8, 769500, Control_c, 1, 11, 85
8, 769560, Control_c, 1, 11, 89
8, 769620, Control_c, 1, 11, 92
8, 769649, Note_on_c, 1, 76, 0
8, 769649, Note_on_c, 1, 79, 0
8, 769680, Note_on_c, 1, 76, 80
8, 769680, Note_on_c, 1, 79, 80
8, 769680, Control_c, 1, 11, 95
8, 769740, Control_c, 1, 11, 99
8, 769800, Control_c, 1, 11, 102
8, 769859, Note_on_c, 1, 76, 0
8, 769859, Note_on_c, 1, 79, 0
8, 769860, Control_c, 1, 11, 105
8, 769918, Control_c, 1, 11, 127
8, 769920, Note_on_c, 1, 76, 68
8, 769920, Note_on_c, 1, 79, 68
8, 770039, Note_on_c, 1, 76, 0
8, 770039, Note_on_c, 1, 79, 0
8, 770040, Note_on_c, 1, 74, 56
8, 770040, Note_on_c, 1, 78, 56
8, 770144, Note_on_c, 1, 74, 0
8, 770144, Note_on_c, 1, 78, 0
8, 770160, Note_on_c, 1, 78, 44
8, 770160, Note_on_c, 1, 74, 44
8, 770384, Note_on_c, 1, 78, 0
8, 770384, Note_on_c, 1, 74, 0
8, 770400, Note_on_c, 1, 74, 44
8, 770400, Note_on_c, 1, 78, 44
8, 770624, Note_on_c, 1, 74, 0
8, 770624, Note_on_c, 1, 78, 0
8, 770640, Note_on_c, 1, 78, 44
8, 770640, Note_on_c, 1, 74, 44
8, 770864, Note_on_c, 1, 78, 0
8, 770864, Note_on_c, 1, 74, 0
8, 770880, Note_on_c, 1, 76, 44
8, 770880, Note_on_c, 1, 71, 44
8, 771104, Note_on_c, 1, 76, 0
8, 771104, Note_on_c, 1, 71, 0
8, 771120, Note_on_c, 1, 76, 44
8, 771120, Note_on_c, 1, 71, 44
8, 771359, Note_on_c, 1, 76, 0
8, 771359, Note_on_c, 1, 71, 0
8, 771600, Note_on_c, 1, 71, 44
8, 771600, Note_on_c, 1, 76, 44
8, 771839, Note_on_c, 1, 71, 0
8, 771839, Note_on_c, 1, 76, 0
8, 772080, Note_on_c, 1, 74, 44
8, 772080, Note_on_c, 1, 66, 44
8, 772319, Note_on_c, 1, 74, 0
8, 772319, Note_on_c, 1, 66, 0
8, 772560, Note_on_c, 1, 73, 44
8, 772560, Note_on_c, 1, 76, 44
8, 772784, Note_on_c, 1, 73, 0
8, 772784, Note_on_c, 1, 76, 0
8, 772800, Note_on_c, 1, 73, 44
8, 772800, Note_on_c, 1, 76, 44
8, 772979, Note_on_c, 1, 73, 0
8, 772979, Note_on_c, 1, 76, 0
8, 773040, Note_on_c, 1, 76, 44
8, 773040, Note_on_c, 1, 73, 44
8, 773219, Note_on_c, 1, 76, 0
8, 773219, Note_on_c, 1, 73, 0
8, 773280, Note_on_c, 1, 74, 44
8, 773519, Note_on_c, 1, 74, 0
8, 773520, Note_on_c, 1, 73, 44
8, 773520, Note_on_c, 1, 76, 44
8, 773639, Note_on_c, 1, 73, 0
8, 773639, Note_on_c, 1, 76, 0
8, 773640, Note_on_c, 1, 78, 44
8, 773640, Note_on_c, 1, 74, 44
8, 773739, Note_on_c, 1, 78, 0
8, 773739, Note_on_c, 1, 74, 0
8, 773760, Note_on_c, 1, 73, 44
8, 773760, Note_on_c, 1, 79, 44
8, 773979, Note_on_c, 1, 73, 0
8, 773979, Note_on_c, 1, 79, 0
8, 774000, Note_on_c, 1, 76, 44
8, 774000, Note_on_c, 1, 79, 44
8, 774179, Note_on_c, 1, 76, 0
8, 774179, Note_on_c, 1, 79, 0
8, 774240, Note_on_c, 1, 69, 44
8, 774240, Note_on_c, 1, 78, 44
8, 774419, Note_on_c, 1, 69, 0
8, 774419, Note_on_c, 1, 78, 0
8, 774480, Note_on_c, 1, 74, 44
8, 774480, Note_on_c, 1, 78, 44
8, 774659, Note_on_c, 1, 74, 0
8, 774659, Note_on_c, 1, 78, 0
8, 774720, Note_on_c, 1, 78, 44
8, 774720, Note_on_c, 1, 69, 44
8, 774959, Note_on_c, 1, 78, 0
8, 774959, Note_on_c, 1, 69, 0
8, 774960, Note_on_c, 1, 67, 44
8, 774960, Note_on_c, 1, 76, 44
8, 775179, Note_on_c, 1, 67, 0
8, 775179, Note_on_c, 1, 76, 0
8, 775200, Note_on_c, 1, 66, 44
8, 775200, Note_on_c, 1, 74, 44
8, 775439, Note_on_c, 1, 66, 0
8, 775439, Note_on_c, 1, 74, 0
8, 775440, Note_on_c, 1, 81, 44
8, 775440, Note_on_c, 1, 74, 44
8, 775659, Note_on_c, 1, 81, 0
8, 775659, Note_on_c, 1, 74, 0
8, 775680, Note_on_c, 1, 81, 44
8, 775680, Note_on_c, 1, 78, 44
8, 775919, Note_on_c, 1, 81, 0
8, 775919, Note_on_c, 1, 78, 0
8, 775920, Note_on_c, 1, 79, 44
8, 775920, Note_on_c, 1, 76, 44
8, 776139, Note_on_c, 1, 79, 0
8, 776139, Note_on_c, 1, 76, 0
8, 776160, Note_on_c, 1, 79, 44
8, 776160, Note_on_c, 1, 76, 44
8, 776399, Note_on_c, 1, 79, 0
8, 776399, Note_on_c, 1, 76, 0
8, 776400, Note_on_c, 1, 74, 44
8, 776400, Note_on_c, 1, 78, 44
8, 776619, Note_on_c, 1, 74, 0
8, 776619, Note_on_c, 1, 78, 0
8, 776640, Note_on_c, 1, 69, 44
8, 776879, Note_on_c, 1, 69, 0
8, 776880, Note_on_c, 1, 73, 46
8, 777099, Note_on_c, 1, 73, 0
8, 777120, Note_on_c, 1, 74, 48
8, 777359, Note_on_c, 1, 74, 0
8, 777360, Note_on_c, 1, 78, 50
8, 777579, Note_on_c, 1, 78, 0
8, 777600, Note_on_c, 1, 81, 53
8, 777839, Note_on_c, 1, 81, 0
8, 777840, Note_on_c, 1, 73, 55
8, 778059, Note_on_c, 1, 73, 0
8, 778080, Note_on_c, 1, 62, 57
8, 778080, Note_on_c, 1, 74, 57
8, 778319, Note_on_c, 1, 62, 0
8, 778319, Note_on_c, 1, 74, 0
8, 778320, Note_on_c, 1, 66, 59
8, 778320, Note_on_c, 1, 78, 59
8, 778539, Note_on_c, 1, 66, 0
8, 778539, Note_on_c, 1, 78, 0
8, 778560, Note_on_c, 1, 78, 62
8, 778560, Note_on_c, 1, 69, 62
8, 778799, Note_on_c, 1, 78, 0
8, 778799, Note_on_c, 1, 69, 0
8, 778800, Note_on_c, 1, 76, 64
8, 778800, Note_on_c, 1, 67, 64
8, 779019, Note_on_c, 1, 76, 0
8, 779019, Note_on_c, 1, 67, 0
8, 779040, Note_on_c, 1, 66, 66
8, 779040, Note_on_c, 1, 74, 66
8, 779279, Note_on_c, 1, 66, 0
8, 779279, Note_on_c, 1, 74, 0
8, 779280, Note_on_c, 1, 81, 68
8, 779280, Note_on_c, 1, 69, 68
8, 779499, Note_on_c, 1, 81, 0
8, 779499, Note_on_c, 1, 69, 0
8, 779520, Note_on_c, 1, 78, 71
8, 779520, Note_on_c, 1, 81, 71
8, 779759, Note_on_c, 1, 78, 0
8, 779759, Note_on_c, 1, 81, 0
8, 779760, Note_on_c, 1, 76, 73
8, 779760, Note_on_c, 1, 79, 73
8, 779979, Note_on_c, 1, 76, 0
8, 779979, Note_on_c, 1, 79, 0
8, 780000, Note_on_c, 1, 79, 75
8, 780000, Note_on_c, 1, 76, 75
8, 780239, Note_on_c, 1, 79, 0
8, 780239, Note_on_c, 1, 76, 0
8, 780240, Note_on_c, 1, 78, 77
8, 780240, Note_on_c, 1, 74, 77
8, 780459, Note_on_c, 1, 78, 0
8, 780459, Note_on_c, 1, 74, 0
8, 780480, Note_on_c, 1, 73, 80
8, 780480, Note_on_c, 1, 76, 80
8, 780699, Note_on_c, 1, 73, 0
8, 780699, Note_on_c, 1, 76, 0
8, 780720, Note_on_c, 1, 69, 80
8, 780899, Note_on_c, 1, 69, 0
8, 780960, Note_on_c, 1, 71, 80
8, 781139, Note_on_c, 1, 71, 0
8, 781200, Note_on_c, 1, 69, 80
8, 781379, Note_on_c, 1, 69, 0
8, 781440, Note_on_c, 1, 74, 80
8, 781659, Note_on_c, 1, 74, 0
8, 781680, Note_on_c, 1, 73, 80
8, 781899, Note_on_c, 1, 73, 0
8, 781920, Note_on_c, 1, 78, 80
8, 782139, Note_on_c, 1, 78, 0
8, 782160, Note_on_c, 1, 76, 80
8, 782379, Note_on_c, 1, 76, 0
8, 782400, Note_on_c, 1, 81, 80
8, 782619, Note_on_c, 1, 81, 0
8, 782640, Note_on_c, 1, 79, 80
8, 782859, Note_on_c, 1, 79, 0
8, 782880, Note_on_c, 1, 79, 80
8, 783099, Note_on_c, 1, 79, 0
8, 783120, Note_on_c, 1, 79, 92
8, 783339, Note_on_c, 1, 79, 0
8, 783360, Note_on_c, 1, 86, 80
8, 783579, Note_on_c, 1, 86, 0
8, 783600, Note_on_c, 1, 85, 80
8, 783819, Note_on_c, 1, 85, 0
8, 783840, Note_on_c, 1, 78, 80
8, 784059, Note_on_c, 1, 78, 0
8, 784080, Note_on_c, 1, 76, 80
8, 784299, Note_on_c, 1, 76, 0
8, 784320, Note_on_c, 1, 81, 80
8, 784539, Note_on_c, 1, 81, 0
8, 784560, Note_on_c, 1, 79, 80
8, 784779, Note_on_c, 1, 79, 0
8, 784798, Control_c, 1, 11, 69
8, 784800, Control_c, 1, 11, 69
8, 784800, Note_on_c, 1, 76, 80
8, 784800, Note_on_c, 1, 79, 80
8, 784840, Control_c, 1, 11, 74
8, 784880, Control_c, 1, 11, 79
8, 784920, Control_c, 1, 11, 84
8, 784960, Control_c, 1, 11, 89
8, 785000, Control_c, 1, 11, 94
8, 785040, Control_c, 1, 11, 99
8, 785080, Control_c, 1, 11, 102
8, 785120, Control_c, 1, 11, 107
8, 785160, Control_c, 1, 11, 112
8, 785200, Control_c, 1, 11, 117
8, 785240, Control_c, 1, 11, 122
8, 785280, Control_c, 1, 11, 127
8, 785499, Note_on_c, 1, 76, 0
8, 785499, Note_on_c, 1, 79, 0
8, 785520, Note_on_c, 1, 78, 92
8, 785520, Note_on_c, 1, 66, 92
8, 786099, Note_on_c, 1, 78, 0
8, 786099, Note_on_c, 1, 66, 0
8, 786120, Note_on_c, 1, 66, 92
8, 786120, Note_on_c, 1, 78, 92
8, 786219, Note_on_c, 1, 66, 0
8, 786219, Note_on_c, 1, 78, 0
8, 786240, Note_on_c, 1, 66, 80
8, 786240, Note_on_c, 1, 78, 80
8, 786459, Note_on_c, 1, 66, 0
8, 786459, Note_on_c, 1, 78, 0
8, 786480, Note_on_c, 1, 74, 80
8, 786480, Note_on_c, 1, 62, 80
8, 786699, Note_on_c, 1, 74, 0
8, 786699, Note_on_c, 1, 62, 0
8, 786720, Note_on_c, 1, 86, 80
8, 786720, Note_on_c, 1, 74, 80
8, 787059, Note_on_c, 1, 86, 0
8, 787059, Note_on_c, 1, 74, 0
8, 787080, Note_on_c, 1, 86, 80
8, 787080, Note_on_c, 1, 74, 80
8, 787179, Note_on_c, 1, 86, 0
8, 787179, Note_on_c, 1, 74, 0
8, 787200, Note_on_c, 1, 74, 80
8, 787200, Note_on_c, 1, 86, 80
8, 787419, Note_on_c, 1, 74, 0
8, 787419, Note_on_c, 1, 86, 0
8, 787440, Note_on_c, 1, 71, 80
8, 787440, Note_on_c, 1, 83, 80
8, 787659, Note_on_c, 1, 71, 0
8, 787659, Note_on_c, 1, 83, 0
8, 787680, Note_on_c, 1, 71, 80
8, 787680, Note_on_c, 1, 83, 80
8, 788019, Note_on_c, 1, 71, 0
8, 788019, Note_on_c, 1, 83, 0
8, 788040, Note_on_c, 1, 71, 80
8, 788040, Note_on_c, 1, 83, 80
8, 788139, Note_on_c, 1, 71, 0
8, 788139, Note_on_c, 1, 83, 0
8, 788160, Note_on_c, 1, 83, 80
8, 788160, Note_on_c, 1, 71, 80
8, 788379, Note_on_c, 1, 83, 0
8, 788379, Note_on_c, 1, 71, 0
8, 788400, Note_on_c, 1, 67, 80
8, 788400, Note_on_c, 1, 79, 80
8, 788619, Note_on_c, 1, 67, 0
8, 788619, Note_on_c, 1, 79, 0
8, 788640, Note_on_c, 1, 71, 80
8, 788640, Note_on_c, 1, 79, 80
8, 788879, Note_on_c, 1, 71, 0
8, 788879, Note_on_c, 1, 79, 0
8, 789600, Note_on_c, 1, 80, 80
8, 789600, Note_on_c, 1, 71, 80
8, 789839, Note_on_c, 1, 80, 0
8, 789839, Note_on_c, 1, 71, 0
8, 806640, Note_on_c, 1, 71, 65
8, 806640, Note_on_c, 1, 83, 65
8, 806859, Note_on_c, 1, 71, 0
8, 806859, Note_on_c, 1, 83, 0
8, 806880, Note_on_c, 1, 69, 69
8, 806880, Note_on_c, 1, 81, 69
8, 807099, Note_on_c, 1, 69, 0
8, 807099, Note_on_c, 1, 81, 0
8, 807120, Note_on_c, 1, 83, 73
8, 807120, Note_on_c, 1, 71, 73
8, 807339, Note_on_c, 1, 83, 0
8, 807339, Note_on_c, 1, 71, 0
8, 807360, Note_on_c, 1, 69, 77
8, 807360, Note_on_c, 1, 81, 77
8, 807579, Note_on_c, 1, 69, 0
8, 807579, Note_on_c, 1, 81, 0
8, 807600, Note_on_c, 1, 71, 80
8, 807600, Note_on_c, 1, 83, 80
8, 807819, Note_on_c, 1, 71, 0
8, 807819, Note_on_c, 1, 83, 0
8, 807840, Note_on_c, 1, 81, 84
8, 807840, Note_on_c, 1, 69, 84
8, 808059, Note_on_c, 1, 81, 0
8, 808059, Note_on_c, 1, 69, 0
8, 808080, Note_on_c, 1, 71, 88
8, 808080, Note_on_c, 1, 83, 88
8, 808199, Note_on_c, 1, 71, 0
8, 808199, Note_on_c, 1, 83, 0
8, 808200, Note_on_c, 1, 73, 90
8, 808200, Note_on_c, 1, 85, 90
8, 808299, Note_on_c, 1, 73, 0
8, 808299, Note_on_c, 1, 85, 0
8, 808320, Note_on_c, 1, 86, 92
8, 808320, Note_on_c, 1, 74, 92
8, 808529, Note_on_c, 1, 86, 0
8, 808529, Note_on_c, 1, 74, 0
8, 808560, Note_on_c, 1, 86, 92
8, 808560, Note_on_c, 1, 74, 92
8, 808769, Note_on_c, 1, 86, 0
8, 808769, Note_on_c, 1, 74, 0
8, 808800, Note_on_c, 1, 73, 92
8, 808800, Note_on_c, 1, 85, 92
8, 809009, Note_on_c, 1, 73, 0
8, 809009, Note_on_c, 1, 85, 0
8, 809040, Note_on_c, 1, 71, 92
8, 809040, Note_on_c, 1, 83, 92
8, 809249, Note_on_c, 1, 71, 0
8, 809249, Note_on_c, 1, 83, 0
8, 809280, Note_on_c, 1, 76, 92
8, 809489, Note_on_c, 1, 76, 0
8, 809520, Note_on_c, 1, 76, 92
8, 809729, Note_on_c, 1, 76, 0
8, 809760, Note_on_c, 1, 75, 92
8, 809969, Note_on_c, 1, 75, 0
8, 810000, Note_on_c, 1, 71, 92
8, 810209, Note_on_c, 1, 71, 0
8, 810240, Note_on_c, 1, 76, 80
8, 810449, Note_on_c, 1, 76, 0
8, 810480, Note_on_c, 1, 78, 80
8, 810689, Note_on_c, 1, 78, 0
8, 810720, Note_on_c, 1, 79, 80
8, 810929, Note_on_c, 1, 79, 0
8, 810960, Note_on_c, 1, 80, 80
8, 811169, Note_on_c, 1, 80, 0
8, 811200, Note_on_c, 1, 81, 80
8, 811409, Note_on_c, 1, 81, 0
8, 811440, Note_on_c, 1, 80, 80
8, 811649, Note_on_c, 1, 80, 0
8, 811680, Note_on_c, 1, 81, 80
8, 811889, Note_on_c, 1, 81, 0
8, 811920, Note_on_c, 1, 79, 80
8, 812129, Note_on_c, 1, 79, 0
8, 812160, Note_on_c, 1, 78, 80
8, 812160, Note_on_c, 1, 66, 80
8, 812339, Note_on_c, 1, 78, 0
8, 812339, Note_on_c, 1, 66, 0
8, 812400, Note_on_c, 1, 78, 80
8, 812400, Note_on_c, 1, 66, 80
8, 812519, Note_on_c, 1, 78, 0
8, 812519, Note_on_c, 1, 66, 0
8, 812520, Note_on_c, 1, 67, 80
8, 812520, Note_on_c, 1, 79, 80
8, 812619, Note_on_c, 1, 67, 0
8, 812619, Note_on_c, 1, 79, 0
8, 812640, Note_on_c, 1, 81, 80
8, 812640, Note_on_c, 1, 69, 80
8, 812819, Note_on_c, 1, 81, 0
8, 812819, Note_on_c, 1, 69, 0
8, 813120, Note_on_c, 1, 67, 80
8, 813120, Note_on_c, 1, 79, 80
8, 813299, Note_on_c, 1, 67, 0
8, 813299, Note_on_c, 1, 79, 0
8, 813360, Note_on_c, 1, 79, 80
8, 813360, Note_on_c, 1, 67, 80
8, 813479, Note_on_c, 1, 79, 0
8, 813479, Note_on_c, 1, 67, 0
8, 813480, Note_on_c, 1, 81, 80
8, 813480, Note_on_c, 1, 69, 80
8, 813579, Note_on_c, 1, 81, 0
8, 813579, Note_on_c, 1, 69, 0
8, 813600, Note_on_c, 1, 83, 80
8, 813600, Note_on_c, 1, 71, 80
8, 813779, Note_on_c, 1, 83, 0
8, 813779, Note_on_c, 1, 71, 0
8, 813840, Note_on_c, 1, 83, 80
8, 813840, Note_on_c, 1, 71, 80
8, 813959, Note_on_c, 1, 83, 0
8, 813959, Note_on_c, 1, 71, 0
8, 813960, Note_on_c, 1, 81, 80
8, 813960, Note_on_c, 1, 69, 80
8, 814059, Note_on_c, 1, 81, 0
8, 814059, Note_on_c, 1, 69, 0
8, 814080, Note_on_c, 1, 79, 80
8, 814080, Note_on_c, 1, 67, 80
8, 814289, Note_on_c, 1, 79, 0
8, 814289, Note_on_c, 1, 67, 0
8, 814320, Note_on_c, 1, 67, 80
8, 814320, Note_on_c, 1, 79, 80
8, 814439, Note_on_c, 1, 67, 0
8, 814439, Note_on_c, 1, 79, 0
8, 814440, Note_on_c, 1, 66, 80
8, 814440, Note_on_c, 1, 78, 80
8, 814539, Note_on_c, 1, 66, 0
8, 814539, Note_on_c, 1, 78, 0
8, 814560, Note_on_c, 1, 76, 80
8, 814560, Note_on_c, 1, 64, 80
8, 814769, Note_on_c, 1, 76, 0
8, 814769, Note_on_c, 1, 64, 0
8, 814800, Note_on_c, 1, 76, 80
8, 814800, Note_on_c, 1, 64, 80
8, 814919, Note_on_c, 1, 76, 0
8, 814919, Note_on_c, 1, 64, 0
8, 814920, Note_on_c, 1, 62, 80
8, 814920, Note_on_c, 1, 74, 80
8, 815019, Note_on_c, 1, 62, 0
8, 815019, Note_on_c, 1, 74, 0
8, 815040, Note_on_c, 1, 73, 80
8, 815249, Note_on_c, 1, 73, 0
8, 815280, Note_on_c, 1, 73, 80
8, 815399, Note_on_c, 1, 73, 0
8, 815400, Note_on_c, 1, 71, 80
8, 815499, Note_on_c, 1, 71, 0
8, 815520, Note_on_c, 1, 69, 80
8, 815729, Note_on_c, 1, 69, 0
8, 815760, Note_on_c, 1, 75, 80
8, 815760, Note_on_c, 1, 63, 80
8, 815969, Note_on_c, 1, 75, 0
8, 815969, Note_on_c, 1, 63, 0
8, 816000, Note_on_c, 1, 64, 80
8, 816000, Note_on_c, 1, 76, 80
8, 816209, Note_on_c, 1, 64, 0
8, 816209, Note_on_c, 1, 76, 0
8, 816240, Note_on_c, 1, 66, 80
8, 816240, Note_on_c, 1, 78, 80
8, 816449, Note_on_c, 1, 66, 0
8, 816449, Note_on_c, 1, 78, 0
8, 816480, Note_on_c, 1, 67, 80
8, 816480, Note_on_c, 1, 79, 80
8, 816689, Note_on_c, 1, 67, 0
8, 816689, Note_on_c, 1, 79, 0
8, 816720, Note_on_c, 1, 68, 80
8, 816720, Note_on_c, 1, 80, 80
8, 816929, Note_on_c, 1, 68, 0
8, 816929, Note_on_c, 1, 80, 0
8, 816960, Note_on_c, 1, 81, 80
8, 816960, Note_on_c, 1, 69, 80
8, 817169, Note_on_c, 1, 81, 0
8, 817169, Note_on_c, 1, 69, 0
8, 817200, Note_on_c, 1, 80, 80
8, 817200, Note_on_c, 1, 68, 80
8, 817409, Note_on_c, 1, 80, 0
8, 817409, Note_on_c, 1, 68, 0
8, 817440, Note_on_c, 1, 81, 80
8, 817440, Note_on_c, 1, 69, 80
8, 817539, Note_on_c, 1, 81, 0
8, 817539, Note_on_c, 1, 69, 0
8, 817560, Note_on_c, 1, 71, 80
8, 817560, Note_on_c, 1, 83, 80
8, 817659, Note_on_c, 1, 71, 0
8, 817659, Note_on_c, 1, 83, 0
8, 817680, Note_on_c, 1, 85, 80
8, 817680, Note_on_c, 1, 73, 80
8, 817779, Note_on_c, 1, 85, 0
8, 817779, Note_on_c, 1, 73, 0
8, 817800, Note_on_c, 1, 86, 80
8, 817800, Note_on_c, 1, 74, 80
8, 817899, Note_on_c, 1, 86, 0
8, 817899, Note_on_c, 1, 74, 0
8, 817920, Note_on_c, 1, 76, 92
8, 818279, Note_on_c, 1, 76, 0
8, 818280, Note_on_c, 1, 78, 80
8, 818399, Note_on_c, 1, 78, 0
8, 818400, Note_on_c, 1, 76, 80
8, 818639, Note_on_c, 1, 76, 0
8, 818640, Note_on_c, 1, 74, 80
8, 818849, Note_on_c, 1, 74, 0
8, 818880, Note_on_c, 1, 76, 80
8, 819239, Note_on_c, 1, 76, 0
8, 819240, Note_on_c, 1, 78, 80
8, 819359, Note_on_c, 1, 78, 0
8, 819360, Note_on_c, 1, 76, 80
8, 819599, Note_on_c, 1, 76, 0
8, 819600, Note_on_c, 1, 74, 80
8, 819809, Note_on_c, 1, 74, 0
8, 819840, Note_on_c, 1, 76, 80
8, 820199, Note_on_c, 1, 76, 0
8, 820200, Note_on_c, 1, 78, 80
8, 820319, Note_on_c, 1, 78, 0
8, 820320, Note_on_c, 1, 76, 80
8, 820559, Note_on_c, 1, 76, 0
8, 820560, Note_on_c, 1, 74, 80
8, 820769, Note_on_c, 1, 74, 0
8, 820800, Note_on_c, 1, 76, 80
8, 821159, Note_on_c, 1, 76, 0
8, 821160, Note_on_c, 1, 78, 80
8, 821279, Note_on_c, 1, 78, 0
8, 821280, Note_on_c, 1, 76, 80
8, 821519, Note_on_c, 1, 76, 0
8, 821520, Note_on_c, 1, 74, 80
8, 821729, Note_on_c, 1, 74, 0
8, 821760, Note_on_c, 1, 76, 80
8, 822119, Note_on_c, 1, 76, 0
8, 822120, Note_on_c, 1, 78, 80
8, 822239, Note_on_c, 1, 78, 0
8, 822240, Note_on_c, 1, 76, 80
8, 822479, Note_on_c, 1, 76, 0
8, 822480, Note_on_c, 1, 74, 80
8, 822689, Note_on_c, 1, 74, 0
8, 822720, Note_on_c, 1, 76, 80
8, 823079, Note_on_c, 1, 76, 0
8, 823080, Note_on_c, 1, 78, 80
8, 823199, Note_on_c, 1, 78, 0
8, 823200, Note_on_c, 1, 76, 80
8, 823439, Note_on_c, 1, 76, 0
8, 823440, Note_on_c, 1, 74, 80
8, 823649, Note_on_c, 1, 74, 0
8, 823680, Note_on_c, 1, 76, 80
8, 824039, Note_on_c, 1, 76, 0
8, 824040, Note_on_c, 1, 78, 80
8, 824159, Note_on_c, 1, 78, 0
8, 824160, Note_on_c, 1, 76, 80
8, 824399, Note_on_c, 1, 76, 0
8, 824400, Note_on_c, 1, 74, 80
8, 824609, Note_on_c, 1, 74, 0
8, 824640, Note_on_c, 1, 76, 80
8, 824999, Note_on_c, 1, 76, 0
8, 825000, Note_on_c, 1, 78, 80
8, 825119, Note_on_c, 1, 78, 0
8, 825120, Note_on_c, 1, 76, 80
8, 825359, Note_on_c, 1, 76, 0
8, 825360, Note_on_c, 1, 74, 80
8, 825569, Note_on_c, 1, 74, 0
8, 825600, Note_on_c, 1, 81, 80
8, 825600, Note_on_c, 1, 69, 80
8, 825839, Note_on_c, 1, 81, 0
8, 825839, Note_on_c, 1, 69, 0
8, 825840, Note_on_c, 1, 73, 80
8, 825840, Note_on_c, 1, 79, 80
8, 826049, Note_on_c, 1, 73, 0
8, 826049, Note_on_c, 1, 79, 0
8, 826080, Note_on_c, 1, 79, 80
8, 826080, Note_on_c, 1, 76, 80
8, 826319, Note_on_c, 1, 79, 0
8, 826319, Note_on_c, 1, 76, 0
8, 826320, Note_on_c, 1, 78, 80
8, 826320, Note_on_c, 1, 74, 80
8, 826529, Note_on_c, 1, 78, 0
8, 826529, Note_on_c, 1, 74, 0
8, 826560, Note_on_c, 1, 78, 80
8, 826560, Note_on_c, 1, 69, 80
8, 826799, Note_on_c, 1, 78, 0
8, 826799, Note_on_c, 1, 69, 0
8, 826800, Note_on_c, 1, 67, 80
8, 826800, Note_on_c, 1, 76, 80
8, 827009, Note_on_c, 1, 67, 0
8, 827009, Note_on_c, 1, 76, 0
8, 827040, Note_on_c, 1, 71, 80
8, 827040, Note_on_c, 1, 79, 80
8, 827279, Note_on_c, 1, 71, 0
8, 827279, Note_on_c, 1, 79, 0
8, 827280, Note_on_c, 1, 76, 80
8, 827280, Note_on_c, 1, 67, 80
8, 827489, Note_on_c, 1, 76, 0
8, 827489, Note_on_c, 1, 67, 0
8, 827520, Note_on_c, 1, 67, 80
8, 827520, Note_on_c, 1, 76, 80
8, 827759, Note_on_c, 1, 67, 0
8, 827759, Note_on_c, 1, 76, 0
8, 827760, Note_on_c, 1, 74, 80
8, 827760, Note_on_c, 1, 66, 80
8, 827969, Note_on_c, 1, 74, 0
8, 827969, Note_on_c, 1, 66, 0
8, 828000, Note_on_c, 1, 74, 80
8, 828000, Note_on_c, 1, 64, 80
8, 828239, Note_on_c, 1, 74, 0
8, 828239, Note_on_c, 1, 64, 0
8, 828240, Note_on_c, 1, 69, 80
8, 828240, Note_on_c, 1, 73, 80
8, 828449, Note_on_c, 1, 69, 0
8, 828449, Note_on_c, 1, 73, 0
8, 828480, Note_on_c, 1, 74, 80
8, 828480, Note_on_c, 1, 83, 80
8, 828959, Note_on_c, 1, 83, 0
8, 828960, Note_on_c, 1, 81, 80
8, 829169, Note_on_c, 1, 74, 0
8, 829200, Note_on_c, 1, 69, 80
8, 829409, Note_on_c, 1, 69, 0
8, 829440, Note_on_c, 1, 71, 80
8, 829679, Note_on_c, 1, 81, 0
8, 829679, Note_on_c, 1, 71, 0
8, 829680, Note_on_c, 1, 79, 80
8, 829680, Note_on_c, 1, 73, 80
8, 829889, Note_on_c, 1, 79, 0
8, 829889, Note_on_c, 1, 73, 0
8, 829920, Note_on_c, 1, 79, 80
8, 829920, Note_on_c, 1, 76, 80
8, 830159, Note_on_c, 1, 79, 0
8, 830159, Note_on_c, 1, 76, 0
8, 830160, Note_on_c, 1, 74, 80
8, 830160, Note_on_c, 1, 78, 80
8, 830369, Note_on_c, 1, 74, 0
8, 830369, Note_on_c, 1, 78, 0
8, 830400, Note_on_c, 1, 78, 80
8, 830400, Note_on_c, 1, 69, 80
8, 830639, Note_on_c, 1, 78, 0
8, 830639, Note_on_c, 1, 69, 0
8, 830640, Note_on_c, 1, 76, 80
8, 830640, Note_on_c, 1, 67, 80
8, 830849, Note_on_c, 1, 76, 0
8, 830849, Note_on_c, 1, 67, 0
8, 830880, Note_on_c, 1, 79, 80
8, 830880, Note_on_c, 1, 71, 80
8, 831119, Note_on_c, 1, 79, 0
8, 831119, Note_on_c, 1, 71, 0
8, 831120, Note_on_c, 1, 76, 80
8, 831120, Note_on_c, 1, 67, 80
8, 831329, Note_on_c, 1, 76, 0
8, 831329, Note_on_c, 1, 67, 0
8, 831360, Note_on_c, 1, 67, 80
8, 831360, Note_on_c, 1, 76, 80
8, 831599, Note_on_c, 1, 67, 0
8, 831599, Note_on_c, 1, 76, 0
8, 831600, Note_on_c, 1, 66, 80
8, 831600, Note_on_c, 1, 74, 80
8, 831809, Note_on_c, 1, 66, 0
8, 831809, Note_on_c, 1, 74, 0
8, 831840, Note_on_c, 1, 66, 80
8, 831840, Note_on_c, 1, 74, 80
8, 832079, Note_on_c, 1, 66, 0
8, 832079, Note_on_c, 1, 74, 0
8, 832080, Note_on_c, 1, 64, 80
8, 832080, Note_on_c, 1, 73, 80
8, 832289, Note_on_c, 1, 64, 0
8, 832289, Note_on_c, 1, 73, 0
8, 832320, Note_on_c, 1, 74, 80
8, 832320, Note_on_c, 1, 62, 80
8, 832529, Note_on_c, 1, 74, 0
8, 832529, Note_on_c, 1, 62, 0
8, 832560, Note_on_c, 1, 78, 80
8, 832560, Note_on_c, 1, 66, 80
8, 832679, Note_on_c, 1, 78, 0
8, 832679, Note_on_c, 1, 66, 0
8, 832680, Note_on_c, 1, 67, 80
8, 832680, Note_on_c, 1, 79, 80
8, 832779, Note_on_c, 1, 67, 0
8, 832779, Note_on_c, 1, 79, 0
8, 832800, Note_on_c, 1, 81, 80
8, 832800, Note_on_c, 1, 69, 80
8, 832979, Note_on_c, 1, 81, 0
8, 832979, Note_on_c, 1, 69, 0
8, 833280, Note_on_c, 1, 78, 80
8, 833280, Note_on_c, 1, 66, 80
8, 833489, Note_on_c, 1, 78, 0
8, 833489, Note_on_c, 1, 66, 0
8, 833520, Note_on_c, 1, 66, 80
8, 833520, Note_on_c, 1, 78, 80
8, 833729, Note_on_c, 1, 66, 0
8, 833729, Note_on_c, 1, 78, 0
8, 833760, Note_on_c, 1, 64, 80
8, 833760, Note_on_c, 1, 76, 80
8, 833969, Note_on_c, 1, 64, 0
8, 833969, Note_on_c, 1, 76, 0
8, 834000, Note_on_c, 1, 73, 80
8, 834000, Note_on_c, 1, 61, 80
8, 834209, Note_on_c, 1, 73, 0
8, 834209, Note_on_c, 1, 61, 0
8, 834240, Note_on_c, 1, 67, 80
8, 834240, Note_on_c, 1, 79, 80
8, 834449, Note_on_c, 1, 67, 0
8, 834449, Note_on_c, 1, 79, 0
8, 834480, Note_on_c, 1, 79, 80
8, 834480, Note_on_c, 1, 67, 80
8, 834599, Note_on_c, 1, 79, 0
8, 834599, Note_on_c, 1, 67, 0
8, 834600, Note_on_c, 1, 69, 80
8, 834600, Note_on_c, 1, 81, 80
8, 834699, Note_on_c, 1, 69, 0
8, 834699, Note_on_c, 1, 81, 0
8, 834720, Note_on_c, 1, 71, 80
8, 834720, Note_on_c, 1, 83, 80
8, 834899, Note_on_c, 1, 71, 0
8, 834899, Note_on_c, 1, 83, 0
8, 835200, Note_on_c, 1, 79, 80
8, 835200, Note_on_c, 1, 67, 80
8, 835409, Note_on_c, 1, 79, 0
8, 835409, Note_on_c, 1, 67, 0
8, 835440, Note_on_c, 1, 79, 80
8, 835440, Note_on_c, 1, 67, 80
8, 835649, Note_on_c, 1, 79, 0
8, 835649, Note_on_c, 1, 67, 0
8, 835680, Note_on_c, 1, 78, 80
8, 835680, Note_on_c, 1, 66, 80
8, 835889, Note_on_c, 1, 78, 0
8, 835889, Note_on_c, 1, 66, 0
8, 835920, Note_on_c, 1, 75, 80
8, 835920, Note_on_c, 1, 63, 80
8, 836129, Note_on_c, 1, 75, 0
8, 836129, Note_on_c, 1, 63, 0
8, 836160, Note_on_c, 1, 81, 92
8, 836160, Note_on_c, 1, 78, 92
8, 836519, Note_on_c, 1, 81, 0
8, 836519, Note_on_c, 1, 78, 0
8, 836640, Note_on_c, 1, 78, 92
8, 836640, Note_on_c, 1, 81, 92
8, 836999, Note_on_c, 1, 78, 0
8, 836999, Note_on_c, 1, 81, 0
8, 837120, Note_on_c, 1, 81, 92
8, 837120, Note_on_c, 1, 78, 92
8, 837479, Note_on_c, 1, 81, 0
8, 837479, Note_on_c, 1, 78, 0
8, 837600, Note_on_c, 1, 78, 92
8, 837600, Note_on_c, 1, 81, 92
8, 837959, Note_on_c, 1, 78, 0
8, 837959, Note_on_c, 1, 81, 0
8, 838080, Note_on_c, 1, 78, 92
8, 838080, Note_on_c, 1, 81, 92
8, 838439, Note_on_c, 1, 78, 0
8, 838439, Note_on_c, 1, 81, 0
8, 838560, Note_on_c, 1, 81, 92
8, 838560, Note_on_c, 1, 78, 92
8, 838919, Note_on_c, 1, 81, 0
8, 838919, Note_on_c, 1, 78, 0
8, 839040, Note_on_c, 1, 76, 92
8, 839040, Note_on_c, 1, 79, 92
8, 839399, Note_on_c, 1, 76, 0
8, 839399, Note_on_c, 1, 79, 0
8, 839520, Note_on_c, 1, 79, 92
8, 839520, Note_on_c, 1, 76, 92
8, 839879, Note_on_c, 1, 79, 0
8, 839879, Note_on_c, 1, 76, 0
8, 840000, Note_on_c, 1, 79, 92
8, 840000, Note_on_c, 1, 76, 92
8, 840359, Note_on_c, 1, 79, 0
8, 840359, Note_on_c, 1, 76, 0
8, 840480, Note_on_c, 1, 76, 92
8, 840480, Note_on_c, 1, 79, 92
8, 840839, Note_on_c, 1, 76, 0
8, 840839, Note_on_c, 1, 79, 0
8, 840960, Note_on_c, 1, 77, 92
8, 840960, Note_on_c, 1, 69, 92
8, 841319, Note_on_c, 1, 77, 0
8, 841319, Note_on_c, 1, 69, 0
8, 841440, Note_on_c, 1, 74, 92
8, 841440, Note_on_c, 1, 77, 92
8, 841799, Note_on_c, 1, 74, 0
8, 841799, Note_on_c, 1, 77, 0
8, 841920, Note_on_c, 1, 73, 92
8, 841920, Note_on_c, 1, 76, 92
8, 842369, Note_on_c, 1, 73, 0
8, 842369, Note_on_c, 1, 76, 0
8, 842400, Note_on_c, 1, 69, 92
8, 842609, Note_on_c, 1, 69, 0
8, 842640, Note_on_c, 1, 81, 92
8, 842849, Note_on_c, 1, 81, 0
8, 842880, Note_on_c, 1, 81, 92
8, 842880, Note_on_c, 1, 78, 92
8, 843329, Note_on_c, 1, 81, 0
8, 843329, Note_on_c, 1, 78, 0
8, 843360, Note_on_c, 1, 78, 92
8, 843360, Note_on_c, 1, 81, 92
8, 843440, Control_c, 1, 11, 107
8, 844289, Note_on_c, 1, 78, 0
8, 844289, Note_on_c, 1, 81, 0
8, 844318, Control_c, 1, 11, 127
8, 844320, Note_on_c, 1, 81, 92
8, 844320, Note_on_c, 1, 78, 92
8, 844679, Note_on_c, 1, 81, 0
8, 844679, Note_on_c, 1, 78, 0
8, 844800, Note_on_c, 1, 78, 80
8, 844800, Note_on_c, 1, 81, 80
8, 845159, Note_on_c, 1, 78, 0
8, 845159, Note_on_c, 1, 81, 0
8, 845280, Note_on_c, 1, 81, 80
8, 845280, Note_on_c, 1, 78, 80
8, 845639, Note_on_c, 1, 81, 0
8, 845639, Note_on_c, 1, 78, 0
8, 845760, Note_on_c, 1, 81, 80
8, 845760, Note_on_c, 1, 78, 80
8, 846119, Note_on_c, 1, 81, 0
8, 846119, Note_on_c, 1, 78, 0
8, 846240, Note_on_c, 1, 78, 80
8, 846240, Note_on_c, 1, 81, 80
8, 846599, Note_on_c, 1, 78, 0
8, 846599, Note_on_c, 1, 81, 0
8, 846720, Note_on_c, 1, 76, 92
8, 846720, Note_on_c, 1, 79, 92
8, 847079, Note_on_c, 1, 76, 0
8, 847079, Note_on_c, 1, 79, 0
8, 847200, Note_on_c, 1, 76, 80
8, 847200, Note_on_c, 1, 79, 80
8, 847559, Note_on_c, 1, 76, 0
8, 847559, Note_on_c, 1, 79, 0
8, 847680, Note_on_c, 1, 79, 80
8, 847680, Note_on_c, 1, 76, 80
8, 848039, Note_on_c, 1, 79, 0
8, 848039, Note_on_c, 1, 76, 0
8, 848160, Note_on_c, 1, 79, 80
8, 848160, Note_on_c, 1, 76, 80
8, 848519, Note_on_c, 1, 79, 0
8, 848519, Note_on_c, 1, 76, 0
8, 848640, Note_on_c, 1, 77, 92
8, 848640, Note_on_c, 1, 69, 92
8, 848999, Note_on_c, 1, 77, 0
8, 848999, Note_on_c, 1, 69, 0
8, 849120, Note_on_c, 1, 77, 92
8, 849120, Note_on_c, 1, 74, 92
8, 849479, Note_on_c, 1, 77, 0
8, 849479, Note_on_c, 1, 74, 0
8, 849600, Note_on_c, 1, 73, 92
8, 849600, Note_on_c, 1, 76, 92
8, 849959, Note_on_c, 1, 73, 0
8, 849959, Note_on_c, 1, 76, 0
8, 850080, Note_on_c, 1, 69, 92
8, 850080, Note_on_c, 1, 76, 92
8, 850439, Note_on_c, 1, 69, 0
8, 850439, Note_on_c, 1, 76, 0
8, 850560, Note_on_c, 1, 69, 92
8, 850560, Note_on_c, 1, 78, 92
8, 851009, Note_on_c, 1, 69, 0
8, 851009, Note_on_c, 1, 78, 0
8, 851040, Note_on_c, 1, 74, 92
8, 851040, Note_on_c, 1, 79, 92
8, 851139, Note_on_c, 1, 74, 0
8, 851139, Note_on_c, 1, 79, 0
8, 851160, Note_on_c, 1, 62, 92
8, 851259, Note_on_c, 1, 62, 0
8, 851280, Note_on_c, 1, 64, 92
8, 851379, Note_on_c, 1, 64, 0
8, 851400, Note_on_c, 1, 66, 92
8, 851499, Note_on_c, 1, 66, 0
8, 851520, Note_on_c, 1, 67, 92
8, 851619, Note_on_c, 1, 67, 0
8, 851640, Note_on_c, 1, 67, 92
8, 851739, Note_on_c, 1, 67, 0
8, 851760, Note_on_c, 1, 69, 92
8, 851859, Note_on_c, 1, 69, 0
8, 851880, Note_on_c, 1, 71, 92
8, 851979, Note_on_c, 1, 71, 0
8, 852000, Note_on_c, 1, 73, 92
8, 852099, Note_on_c, 1, 73, 0
8, 852120, Note_on_c, 1, 74, 92
8, 852219, Note_on_c, 1, 74, 0
8, 852240, Note_on_c, 1, 76, 92
8, 852240, Note_on_c, 1, 73, 92
8, 852339, Note_on_c, 1, 76, 0
8, 852339, Note_on_c, 1, 73, 0
8, 852360, Note_on_c, 1, 74, 92
8, 852360, Note_on_c, 1, 78, 92
8, 852459, Note_on_c, 1, 74, 0
8, 852459, Note_on_c, 1, 78, 0
8, 852480, Note_on_c, 1, 76, 92
8, 852480, Note_on_c, 1, 79, 92
8, 852579, Note_on_c, 1, 76, 0
8, 852579, Note_on_c, 1, 79, 0
8, 852600, Note_on_c, 1, 78, 92
8, 852600, Note_on_c, 1, 81, 92
8, 852699, Note_on_c, 1, 78, 0
8, 852699, Note_on_c, 1, 81, 0
8, 852720, Note_on_c, 1, 79, 92
8, 852720, Note_on_c, 1, 83, 92
8, 852819, Note_on_c, 1, 79, 0
8, 852819, Note_on_c, 1, 83, 0
8, 852840, Note_on_c, 1, 81, 92
8, 852840, Note_on_c, 1, 85, 92
8, 852939, Note_on_c, 1, 81, 0
8, 852939, Note_on_c, 1, 85, 0
8, 852960, Note_on_c, 1, 83, 92
8, 852960, Note_on_c, 1, 86, 92
8, 853059, Note_on_c, 1, 83, 0
8, 853059, Note_on_c, 1, 86, 0
8, 853080, Note_on_c, 1, 76, 92
8, 853080, Note_on_c, 1, 73, 92
8, 853179, Note_on_c, 1, 76, 0
8, 853179, Note_on_c, 1, 73, 0
8, 853200, Note_on_c, 1, 78, 92
8, 853200, Note_on_c, 1, 74, 92
8, 853299, Note_on_c, 1, 78, 0
8, 853299, Note_on_c, 1, 74, 0
8, 853320, Note_on_c, 1, 76, 92
8, 853320, Note_on_c, 1, 79, 92
8, 853419, Note_on_c, 1, 76, 0
8, 853419, Note_on_c, 1, 79, 0
8, 853440, Note_on_c, 1, 74, 92
8, 853440, Note_on_c, 1, 78, 92
8, 853889, Note_on_c, 1, 74, 0
8, 853889, Note_on_c, 1, 78, 0
8, 853920, Note_on_c, 1, 76, 92
8, 853920, Note_on_c, 1, 73, 92
8, 854129, Note_on_c, 1, 73, 0
8, 854160, Note_on_c, 1, 69, 92
8, 854369, Note_on_c, 1, 76, 0
8, 854369, Note_on_c, 1, 69, 0
8, 854400, Note_on_c, 1, 69, 92
8, 854400, Note_on_c, 1, 78, 92
8, 854849, Note_on_c, 1, 69, 0
8, 854849, Note_on_c, 1, 78, 0
8, 854880, Note_on_c, 1, 71, 92
8, 854880, Note_on_c, 1, 79, 92
8, 854979, Note_on_c, 1, 71, 0
8, 854979, Note_on_c, 1, 79, 0
8, 855000, Note_on_c, 1, 62, 92
8, 855099, Note_on_c, 1, 62, 0
8, 855120, Note_on_c, 1, 64, 92
8, 855219, Note_on_c, 1, 64, 0
8, 855240, Note_on_c, 1, 66, 92
8, 855339, Note_on_c, 1, 66, 0
8, 855360, Note_on_c, 1, 67, 92
8, 855459, Note_on_c, 1, 67, 0
8, 855480, Note_on_c, 1, 67, 92
8, 855579, Note_on_c, 1, 67, 0
8, 855600, Note_on_c, 1, 69, 92
8, 855699, Note_on_c, 1, 69, 0
8, 855720, Note_on_c, 1, 71, 92
8, 855819, Note_on_c, 1, 71, 0
8, 855840, Note_on_c, 1, 73, 92
8, 855939, Note_on_c, 1, 73, 0
8, 855960, Note_on_c, 1, 74, 92
8, 856059, Note_on_c, 1, 74, 0
8, 856080, Note_on_c, 1, 76, 92
8, 856080, Note_on_c, 1, 73, 92
8, 856179, Note_on_c, 1, 76, 0
8, 856179, Note_on_c, 1, 73, 0
8, 856200, Note_on_c, 1, 74, 92
8, 856200, Note_on_c, 1, 78, 92
8, 856299, Note_on_c, 1, 74, 0
8, 856299, Note_on_c, 1, 78, 0
8, 856320, Note_on_c, 1, 76, 92
8, 856320, Note_on_c, 1, 79, 92
8, 856419, Note_on_c, 1, 76, 0
8, 856419, Note_on_c, 1, 79, 0
8, 856440, Note_on_c, 1, 78, 92
8, 856440, Note_on_c, 1, 81, 92
8, 856539, Note_on_c, 1, 78, 0
8, 856539, Note_on_c, 1, 81, 0
8, 856560, Note_on_c, 1, 79, 92
8, 856560, Note_on_c, 1, 83, 92
8, 856659, Note_on_c, 1, 79, 0
8, 856659, Note_on_c, 1, 83, 0
8, 856680, Note_on_c, 1, 85, 92
8, 856680, Note_on_c, 1, 81, 92
8, 856779, Note_on_c, 1, 85, 0
8, 856779, Note_on_c, 1, 81, 0
8, 856800, Note_on_c, 1, 83, 92
8, 856800, Note_on_c, 1, 86, 92
8, 856899, Note_on_c, 1, 83, 0
8, 856899, Note_on_c, 1, 86, 0
8, 856920, Note_on_c, 1, 73, 92
8, 856920, Note_on_c, 1, 76, 92
8, 857019, Note_on_c, 1, 73, 0
8, 857019, Note_on_c, 1, 76, 0
8, 857040, Note_on_c, 1, 78, 92
8, 857040, Note_on_c, 1, 74, 92
8, 857139, Note_on_c, 1, 78, 0
8, 857139, Note_on_c, 1, 74, 0
8, 857160, Note_on_c, 1, 76, 92
8, 857160, Note_on_c, 1, 79, 92
8, 857259, Note_on_c, 1, 76, 0
8, 857259, Note_on_c, 1, 79, 0
8, 857280, Note_on_c, 1, 74, 92
8, 857280, Note_on_c, 1, 78, 92
8, 857729, Note_on_c, 1, 74, 0
8, 857729, Note_on_c, 1, 78, 0
8, 857760, Note_on_c, 1, 76, 92
8, 857760, Note_on_c, 1, 73, 92
8, 858209, Note_on_c, 1, 76, 0
8, 858209, Note_on_c, 1, 73, 0
8, 858240, Note_on_c, 1, 74, 92
8, 858479, Note_on_c, 1, 74, 0
8, 858720, Note_on_c, 1, 66, 92
8, 858720, Note_on_c, 1, 78, 92
8, 858929, Note_on_c, 1, 66, 0
8, 858929, Note_on_c, 1, 78, 0
8, 858960, Note_on_c, 1, 67, 92
8, 858960, Note_on_c, 1, 79, 92
8, 859059, Note_on_c, 1, 67, 0
8, 859059, Note_on_c, 1, 79, 0
8, 859080, Note_on_c, 1, 81, 92
8, 859080, Note_on_c, 1, 69, 92
8, 859179, Note_on_c, 1, 81, 0
8, 859179, Note_on_c, 1, 69, 0
8, 859200, Note_on_c, 1, 71, 92
8, 859200, Note_on_c, 1, 83, 92
8, 859439, Note_on_c, 1, 71, 0
8, 859439, Note_on_c, 1, 83, 0
8, 859680, Note_on_c, 1, 74, 92
8, 859889, Note_on_c, 1, 74, 0
8, 859920, Note_on_c, 1, 76, 92
8, 860019, Note_on_c, 1, 76, 0
8, 860040, Note_on_c, 1, 78, 92
8, 860139, Note_on_c, 1, 78, 0
8, 860160, Note_on_c, 1, 79, 92
8, 860399, Note_on_c, 1, 79, 0
8, 860640, Note_on_c, 1, 76, 92
8, 860849, Note_on_c, 1, 76, 0
8, 860880, Note_on_c, 1, 78, 92
8, 860979, Note_on_c, 1, 78, 0
8, 861000, Note_on_c, 1, 79, 92
8, 861099, Note_on_c, 1, 79, 0
8, 861120, Note_on_c, 1, 81, 92
8, 861359, Note_on_c, 1, 81, 0
8, 861600, Note_on_c, 1, 81, 92
8, 861600, Note_on_c, 1, 69, 92
8, 861809, Note_on_c, 1, 81, 0
8, 861809, Note_on_c, 1, 69, 0
8, 861840, Note_on_c, 1, 83, 92
8, 861840, Note_on_c, 1, 71, 92
8, 861939, Note_on_c, 1, 83, 0
8, 861939, Note_on_c, 1, 71, 0
8, 861960, Note_on_c, 1, 73, 92
8, 861960, Note_on_c, 1, 85, 92
8, 862059, Note_on_c, 1, 73, 0
8, 862059, Note_on_c, 1, 85, 0
8, 862080, Note_on_c, 1, 86, 92
8, 862080, Note_on_c, 1, 74, 92
8, 862179, Note_on_c, 1, 86, 0
8, 862179, Note_on_c, 1, 74, 0
8, 862200, Note_on_c, 1, 69, 92
8, 862230, Note_on_c, 1, 81, 92
8, 862299, Note_on_c, 1, 69, 0
8, 862320, Note_on_c, 1, 71, 92
8, 862320, Note_on_c, 1, 83, 92
8, 862329, Note_on_c, 1, 81, 0
8, 862419, Note_on_c, 1, 71, 0
8, 862419, Note_on_c, 1, 83, 0
8, 862440, Note_on_c, 1, 85, 92
8, 862440, Note_on_c, 1, 73, 92
8, 862539, Note_on_c, 1, 85, 0
8, 862539, Note_on_c, 1, 73, 0
8, 862560, Note_on_c, 1, 86, 92
8, 862560, Note_on_c, 1, 74, 92
8, 862659, Note_on_c, 1, 86, 0
8, 862659, Note_on_c, 1, 74, 0
8, 862680, Note_on_c, 1, 76, 92
8, 862779, Note_on_c, 1, 76, 0
8, 862800, Note_on_c, 1, 78, 92
8, 862899, Note_on_c, 1, 78, 0
8, 862920, Note_on_c, 1, 74, 92
8, 863019, Note_on_c, 1, 74, 0
8, 863040, Note_on_c, 1, 81, 92
8, 863729, Note_on_c, 1, 81, 0
8, 863760, Note_on_c, 1, 81, 92
8, 863969, Note_on_c, 1, 81, 0
8, 864000, Note_on_c, 1, 81, 92
8, 864209, Note_on_c, 1, 81, 0
8, 864240, Note_on_c, 1, 74, 92
8, 864479, Note_on_c, 1, 74, 0
8, 867360, Note_on_c, 1, 81, 92
8, 867569, Note_on_c, 1, 81, 0
8, 867600, Note_on_c, 1, 81, 92
8, 867809, Note_on_c, 1, 81, 0
8, 867840, Note_on_c, 1, 81, 92
8, 869489, Note_on_c, 1, 81, 0
8, 869520, Note_on_c, 1, 81, 92
8, 869729, Note_on_c, 1, 81, 0
8, 869760, Note_on_c, 1, 81, 92
8, 869969, Note_on_c, 1, 81, 0
8, 870000, Note_on_c, 1, 74, 92
8, 870209, Note_on_c, 1, 74, 0
8, 870240, Note_on_c, 1, 79, 92
8, 870240, Note_on_c, 1, 76, 92
8, 871069, Note_on_c, 1, 79, 0
8, 871069, Note_on_c, 1, 76, 0
8, 871080, Note_on_c, 1, 79, 92
8, 871080, Note_on_c, 1, 76, 92
8, 871189, Note_on_c, 1, 79, 0
8, 871189, Note_on_c, 1, 76, 0
8, 871200, Note_on_c, 1, 79, 92
8, 871200, Note_on_c, 1, 76, 92
8, 871373, Note_on_c, 1, 79, 0
8, 871373, Note_on_c, 1, 76, 0
8, 871378, Control_c, 1, 11, 69
8, 871380, Note_on_c, 1, 79, 80
8, 871380, Note_on_c, 1, 76, 80
8, 871433, Note_on_c, 1, 79, 0
8, 871433, Note_on_c, 1, 76, 0
8, 871440, Note_on_c, 1, 76, 80
8, 871440, Note_on_c, 1, 79, 80
8, 871613, Note_on_c, 1, 76, 0
8, 871613, Note_on_c, 1, 79, 0
8, 871620, Note_on_c, 1, 79, 80
8, 871620, Note_on_c, 1, 76, 80
8, 871673, Note_on_c, 1, 79, 0
8, 871673, Note_on_c, 1, 76, 0
8, 871680, Control_c, 1, 11, 69
8, 871680, Note_on_c, 1, 79, 80
8, 871680, Note_on_c, 1, 76, 80
8, 871693, Control_c, 1, 11, 71
8, 871707, Control_c, 1, 11, 72
8, 871720, Control_c, 1, 11, 74
8, 871733, Control_c, 1, 11, 75
8, 871747, Control_c, 1, 11, 77
8, 871760, Control_c, 1, 11, 79
8, 871773, Control_c, 1, 11, 80
8, 871787, Control_c, 1, 11, 82
8, 871799, Note_on_c, 1, 79, 0
8, 871799, Note_on_c, 1, 76, 0
8, 871800, Note_on_c, 1, 73, 80
8, 871800, Control_c, 1, 11, 84
8, 871800, Note_on_c, 1, 76, 80
8, 871813, Control_c, 1, 11, 85
8, 871827, Control_c, 1, 11, 87
8, 871840, Control_c, 1, 11, 88
8, 871853, Control_c, 1, 11, 90
8, 871867, Control_c, 1, 11, 92
8, 871880, Control_c, 1, 11, 93
8, 871893, Control_c, 1, 11, 95
8, 871907, Control_c, 1, 11, 96
8, 871920, Control_c, 1, 11, 98
8, 871933, Control_c, 1, 11, 100
8, 871947, Control_c, 1, 11, 101
8, 871960, Control_c, 1, 11, 103
8, 871973, Control_c, 1, 11, 104
8, 871987, Control_c, 1, 11, 106
8, 872000, Control_c, 1, 11, 108
8, 872013, Control_c, 1, 11, 109
8, 872027, Control_c, 1, 11, 111
8, 872039, Note_on_c, 1, 73, 0
8, 872039, Note_on_c, 1, 76, 0
8, 872040, Note_on_c, 1, 78, 80
8, 872040, Note_on_c, 1, 74, 80
8, 872040, Control_c, 1, 11, 113
8, 872053, Control_c, 1, 11, 114
8, 872067, Control_c, 1, 11, 116
8, 872080, Control_c, 1, 11, 117
8, 872093, Control_c, 1, 11, 119
8, 872099, Note_on_c, 1, 78, 0
8, 872099, Note_on_c, 1, 74, 0
8, 872100, Note_on_c, 1, 76, 80
8, 872100, Note_on_c, 1, 79, 80
8, 872107, Control_c, 1, 11, 121
8, 872120, Control_c, 1, 11, 122
8, 872133, Control_c, 1, 11, 124
8, 872147, Control_c, 1, 11, 125
8, 872153, Note_on_c, 1, 76, 0
8, 872153, Note_on_c, 1, 79, 0
8, 872158, Control_c, 1, 11, 127
8, 872160, Note_on_c, 1, 78, 80
8, 872160, Note_on_c, 1, 69, 80
8, 872333, Note_on_c, 1, 78, 0
8, 872333, Note_on_c, 1, 69, 0
8, 872340, Note_on_c, 1, 74, 80
8, 872340, Note_on_c, 1, 78, 80
8, 872393, Note_on_c, 1, 74, 0
8, 872393, Note_on_c, 1, 78, 0
8, 872400, Note_on_c, 1, 79, 80
8, 872400, Note_on_c, 1, 71, 80
8, 872749, Note_on_c, 1, 79, 0
8, 872749, Note_on_c, 1, 71, 0
8, 872760, Note_on_c, 1, 76, 80
8, 872760, Note_on_c, 1, 73, 80
8, 872869, Note_on_c, 1, 76, 0
8, 872869, Note_on_c, 1, 73, 0
8, 872880, Note_on_c, 1, 81, 92
8, 872940, Control_c, 1, 11, 107
8, 873049, Note_on_c, 1, 81, 0
8, 873060, Note_on_c, 1, 81, 92
8, 873109, Note_on_c, 1, 81, 0
8, 873120, Note_on_c, 1, 81, 92
8, 873229, Note_on_c, 1, 81, 0
8, 873240, Note_on_c, 1, 74, 92
8, 873349, Note_on_c, 1, 74, 0
8, 873358, Control_c, 1, 11, 127
8, 873360, Note_on_c, 1, 81, 92
8, 873420, Control_c, 1, 11, 107
8, 873529, Note_on_c, 1, 81, 0
8, 873540, Note_on_c, 1, 81, 92
8, 873589, Note_on_c, 1, 81, 0
8, 873598, Control_c, 1, 11, 127
8, 873600, Note_on_c, 1, 81, 92
8, 874049, Note_on_c, 1, 81, 0
8, 874080, Note_on_c, 1, 74, 92
8, 874289, Note_on_c, 1, 74, 0
8, 874320, Note_on_c, 1, 81, 92
8, 874320, Note_on_c, 1, 69, 92
8, 874529, Note_on_c, 1, 81, 0
8, 874529, Note_on_c, 1, 69, 0
8, 874560, Note_on_c, 1, 81, 92
8, 874560, Note_on_c, 1, 78, 92
8, 874769, Note_on_c, 1, 81, 0
8, 874769, Note_on_c, 1, 78, 0
8, 874800, Note_on_c, 1, 76, 92
8, 874800, Note_on_c, 1, 79, 92
8, 875009, Note_on_c, 1, 76, 0
8, 875009, Note_on_c, 1, 79, 0
8, 875040, Note_on_c, 1, 78, 92
8, 875040, Note_on_c, 1, 74, 92
8, 875249, Note_on_c, 1, 78, 0
8, 875249, Note_on_c, 1, 74, 0
8, 875280, Note_on_c, 1, 74, 92
8, 875280, Note_on_c, 1, 78, 92
8, 875379, Note_on_c, 1, 74, 0
8, 875379, Note_on_c, 1, 78, 0
8, 875400, Note_on_c, 1, 73, 92
8, 875400, Note_on_c, 1, 76, 92
8, 875499, Note_on_c, 1, 73, 0
8, 875499, Note_on_c, 1, 76, 0
8, 875520, Note_on_c, 1, 74, 92
8, 875520, Note_on_c, 1, 78, 92
8, 875729, Note_on_c, 1, 74, 0
8, 875729, Note_on_c, 1, 78, 0
8, 875760, Note_on_c, 1, 78, 92
8, 875760, Note_on_c, 1, 74, 92
8, 875969, Note_on_c, 1, 78, 0
8, 875969, Note_on_c, 1, 74, 0
8, 876000, Note_on_c, 1, 79, 92
8, 876000, Note_on_c, 1, 76, 92
8, 876209, Note_on_c, 1, 79, 0
8, 876209, Note_on_c, 1, 76, 0
8, 876240, Note_on_c, 1, 78, 92
8, 876240, Note_on_c, 1, 81, 92
8, 876449, Note_on_c, 1, 78, 0
8, 876449, Note_on_c, 1, 81, 0
8, 876480, Note_on_c, 1, 78, 92
8, 876480, Note_on_c, 1, 81, 92
8, 876689, Note_on_c, 1, 78, 0
8, 876689, Note_on_c, 1, 81, 0
8, 876720, Note_on_c, 1, 79, 92
8, 876720, Note_on_c, 1, 76, 92
8, 876929, Note_on_c, 1, 79, 0
8, 876929, Note_on_c, 1, 76, 0
8, 876960, Note_on_c, 1, 78, 92
8, 876960, Note_on_c, 1, 74, 92
8, 877169, Note_on_c, 1, 78, 0
8, 877169, Note_on_c, 1, 74, 0
8, 877200, Note_on_c, 1, 74, 92
8, 877200, Note_on_c, 1, 78, 92
8, 877299, Note_on_c, 1, 74, 0
8, 877299, Note_on_c, 1, 78, 0
8, 877320, Note_on_c, 1, 73, 92
8, 877320, Note_on_c, 1, 76, 92
8, 877419, Note_on_c, 1, 73, 0
8, 877419, Note_on_c, 1, 76, 0
8, 877440, Note_on_c, 1, 74, 92
8, 877440, Note_on_c, 1, 78, 92
8, 877649, Note_on_c, 1, 74, 0
8, 877649, Note_on_c, 1, 78, 0
8, 877680, Note_on_c, 1, 73, 92
8, 877680, Note_on_c, 1, 76, 92
8, 877889, Note_on_c, 1, 73, 0
8, 877889, Note_on_c, 1, 76, 0
8, 877920, Note_on_c, 1, 74, 92
8, 877920, Note_on_c, 1, 78, 92
8, 878129, Note_on_c, 1, 74, 0
8, 878129, Note_on_c, 1, 78, 0
8, 878160, Note_on_c, 1, 76, 92
8, 878160, Note_on_c, 1, 85, 92
8, 878369, Note_on_c, 1, 76, 0
8, 878369, Note_on_c, 1, 85, 0
8, 878400, Note_on_c, 1, 78, 92
8, 878400, Note_on_c, 1, 86, 92
8, 878609, Note_on_c, 1, 78, 0
8, 878609, Note_on_c, 1, 86, 0
8, 878640, Note_on_c, 1, 76, 92
8, 878640, Note_on_c, 1, 85, 92
8, 878849, Note_on_c, 1, 76, 0
8, 878849, Note_on_c, 1, 85, 0
8, 878880, Note_on_c, 1, 78, 92
8, 878880, Note_on_c, 1, 86, 92
8, 879089, Note_on_c, 1, 78, 0
8, 879089, Note_on_c, 1, 86, 0
8, 879120, Note_on_c, 1, 76, 92
8, 879120, Note_on_c, 1, 85, 92
8, 879329, Note_on_c, 1, 76, 0
8, 879329, Note_on_c, 1, 85, 0
8, 879360, Note_on_c, 1, 86, 92
8, 879360, Note_on_c, 1, 78, 92
8, 879569, Note_on_c, 1, 86, 0
8, 879569, Note_on_c, 1, 78, 0
8, 879600, Note_on_c, 1, 76, 92
8, 879600, Note_on_c, 1, 85, 92
8, 879809, Note_on_c, 1, 76, 0
8, 879809, Note_on_c, 1, 85, 0
8, 879840, Note_on_c, 1, 86, 92
8, 879840, Note_on_c, 1, 78, 92
8, 880049, Note_on_c, 1, 86, 0
8, 880049, Note_on_c, 1, 78, 0
8, 880080, Note_on_c, 1, 76, 92
8, 880080, Note_on_c, 1, 79, 92
8, 880289, Note_on_c, 1, 76, 0
8, 880289, Note_on_c, 1, 79, 0
8, 880320, Note_on_c, 1, 76, 92
8, 880320, Note_on_c, 1, 79, 92
8, 880529, Note_on_c, 1, 76, 0
8, 880529, Note_on_c, 1, 79, 0
8, 880560, Note_on_c, 1, 78, 92
8, 880560, Note_on_c, 1, 74, 92
8, 880769, Note_on_c, 1, 78, 0
8, 880769, Note_on_c, 1, 74, 0
8, 880800, Note_on_c, 1, 79, 92
8, 880800, Note_on_c, 1, 76, 92
8, 881009, Note_on_c, 1, 79, 0
8, 881009, Note_on_c, 1, 76, 0
8, 881040, Note_on_c, 1, 78, 92
8, 881040, Note_on_c, 1, 81, 92
8, 881249, Note_on_c, 1, 78, 0
8, 881249, Note_on_c, 1, 81, 0
8, 881280, Note_on_c, 1, 81, 92
8, 881280, Note_on_c, 1, 78, 92
8, 881519, Note_on_c, 1, 81, 0
8, 881519, Note_on_c, 1, 78, 0
8, 881520, Note_on_c, 1, 69, 80
8, 881520, Note_on_c, 1, 78, 80
8, 881639, Note_on_c, 1, 69, 0
8, 881639, Note_on_c, 1, 78, 0
8, 881760, Note_on_c, 1, 81, 80
8, 881760, Note_on_c, 1, 78, 80
8, 881999, Note_on_c, 1, 81, 0
8, 881999, Note_on_c, 1, 78, 0
8, 882000, Note_on_c, 1, 78, 80
8, 882000, Note_on_c, 1, 69, 80
8, 882119, Note_on_c, 1, 78, 0
8, 882119, Note_on_c, 1, 69, 0
8, 882240, Note_on_c, 1, 78, 80
8, 882240, Note_on_c, 1, 81, 80
8, 882479, Note_on_c, 1, 78, 0
8, 882479, Note_on_c, 1, 81, 0
8, 882480, Note_on_c, 1, 78, 80
8, 882480, Note_on_c, 1, 69, 80
8, 882599, Note_on_c, 1, 78, 0
8, 882599, Note_on_c, 1, 69, 0
8, 882720, Note_on_c, 1, 81, 80
8, 882720, Note_on_c, 1, 78, 80
8, 882959, Note_on_c, 1, 81, 0
8, 882959, Note_on_c, 1, 78, 0
8, 882960, Note_on_c, 1, 69, 80
8, 882960, Note_on_c, 1, 78, 80
8, 883079, Note_on_c, 1, 69, 0
8, 883079, Note_on_c, 1, 78, 0
8, 883200, Note_on_c, 1, 78, 80
8, 883200, Note_on_c, 1, 81, 80
8, 883439, Note_on_c, 1, 78, 0
8, 883439, Note_on_c, 1, 81, 0
8, 883440, Note_on_c, 1, 69, 80
8, 883440, Note_on_c, 1, 78, 80
8, 883559, Note_on_c, 1, 69, 0
8, 883559, Note_on_c, 1, 78, 0
8, 883680, Note_on_c, 1, 78, 80
8, 883680, Note_on_c, 1, 81, 80
8, 883919, Note_on_c, 1, 78, 0
8, 883919, Note_on_c, 1, 81, 0
8, 883920, Note_on_c, 1, 78, 80
8, 883920, Note_on_c, 1, 69, 80
8, 884039, Note_on_c, 1, 78, 0
8, 884039, Note_on_c, 1, 69, 0
8, 884160, Note_on_c, 1, 81, 80
8, 884160, Note_on_c, 1, 78, 80
8, 884399, Note_on_c, 1, 81, 0
8, 884399, Note_on_c, 1, 78, 0
8, 884400, Note_on_c, 1, 69, 80
8, 884400, Note_on_c, 1, 78, 80
8, 884519, Note_on_c, 1, 69, 0
8, 884519, Note_on_c, 1, 78, 0
8, 884640, Note_on_c, 1, 81, 80
8, 884640, Note_on_c, 1, 78, 80
8, 884879, Note_on_c, 1, 81, 0
8, 884879, Note_on_c, 1, 78, 0
8, 884880, Note_on_c, 1, 69, 80
8, 884880, Note_on_c, 1, 78, 80
8, 884999, Note_on_c, 1, 69, 0
8, 884999, Note_on_c, 1, 78, 0
8, 885120, Note_on_c, 1, 81, 80
8, 885120, Note_on_c, 1, 78, 80
8, 885359, Note_on_c, 1, 81, 0
8, 885359, Note_on_c, 1, 78, 0
8, 885360, Note_on_c, 1, 78, 80
8, 885360, Note_on_c, 1, 69, 80
8, 885479, Note_on_c, 1, 78, 0
8, 885479, Note_on_c, 1, 69, 0
8, 885600, Note_on_c, 1, 81, 80
8, 885600, Note_on_c, 1, 78, 80
8, 885839, Note_on_c, 1, 81, 0
8, 885839, Note_on_c, 1, 78, 0
8, 885840, Note_on_c, 1, 78, 80
8, 885840, Note_on_c, 1, 69, 80
8, 885959, Note_on_c, 1, 78, 0
8, 885959, Note_on_c, 1, 69, 0
8, 886080, Note_on_c, 1, 81, 80
8, 886080, Note_on_c, 1, 78, 80
8, 886319, Note_on_c, 1, 81, 0
8, 886319, Note_on_c, 1, 78, 0
8, 886320, Note_on_c, 1, 69, 80
8, 886320, Note_on_c, 1, 78, 80
8, 886439, Note_on_c, 1, 69, 0
8, 886439, Note_on_c, 1, 78, 0
8, 886560, Note_on_c, 1, 78, 80
8, 886560, Note_on_c, 1, 81, 80
8, 886799, Note_on_c, 1, 78, 0
8, 886799, Note_on_c, 1, 81, 0
8, 886800, Note_on_c, 1, 69, 80
8, 886800, Note_on_c, 1, 78, 80
8, 886919, Note_on_c, 1, 69, 0
8, 886919, Note_on_c, 1, 78, 0
8, 887040, Note_on_c, 1, 78, 80
8, 887040, Note_on_c, 1, 81, 80
8, 887279, Note_on_c, 1, 78, 0
8, 887279, Note_on_c, 1, 81, 0
8, 887280, Note_on_c, 1, 69, 80
8, 887280, Note_on_c, 1, 78, 80
8, 887399, Note_on_c, 1, 69, 0
8, 887399, Note_on_c, 1, 78, 0
8, 887520, Note_on_c, 1, 81, 80
8, 887520, Note_on_c, 1, 78, 80
8, 887759, Note_on_c, 1, 81, 0
8, 887759, Note_on_c, 1, 78, 0
8, 887760, Note_on_c, 1, 69, 80
8, 887760, Note_on_c, 1, 78, 80
8, 887879, Note_on_c, 1, 69, 0
8, 887879, Note_on_c, 1, 78, 0
8, 888000, Note_on_c, 1, 78, 80
8, 888000, Note_on_c, 1, 81, 80
8, 888239, Note_on_c, 1, 78, 0
8, 888239, Note_on_c, 1, 81, 0
8, 888240, Note_on_c, 1, 78, 80
8, 888240, Note_on_c, 1, 69, 80
8, 888359, Note_on_c, 1, 78, 0
8, 888359, Note_on_c, 1, 69, 0
8, 888480, Note_on_c, 1, 81, 80
8, 888480, Note_on_c, 1, 78, 80
8, 888719, Note_on_c, 1, 81, 0
8, 888719, Note_on_c, 1, 78, 0
8, 888720, Note_on_c, 1, 69, 80
8, 888720, Note_on_c, 1, 78, 80
8, 888839, Note_on_c, 1, 69, 0
8, 888839, Note_on_c, 1, 78, 0
8, 888960, Note_on_c, 1, 69, 92
8, 888960, Note_on_c, 1, 81, 92
8, 889119, Note_on_c, 1, 69, 0
8, 889119, Note_on_c, 1, 81, 0
8, 889120, Note_on_c, 1, 71, 92
8, 889120, Note_on_c, 1, 83, 92
8, 889279, Note_on_c, 1, 71, 0
8, 889279, Note_on_c, 1, 83, 0
8, 889280, Note_on_c, 1, 85, 92
8, 889280, Note_on_c, 1, 73, 92
8, 889439, Note_on_c, 1, 85, 0
8, 889439, Note_on_c, 1, 73, 0
8, 889440, Note_on_c, 1, 74, 92
8, 889440, Note_on_c, 1, 86, 92
8, 889599, Note_on_c, 1, 74, 0
8, 889599, Note_on_c, 1, 86, 0
8, 889600, Note_on_c, 1, 76, 92
8, 889759, Note_on_c, 1, 76, 0
8, 889760, Note_on_c, 1, 78, 92
8, 889899, Note_on_c, 1, 78, 0
8, 889920, Note_on_c, 1, 79, 92
8, 890079, Note_on_c, 1, 79, 0
8, 890080, Note_on_c, 1, 66, 92
8, 890080, Note_on_c, 1, 78, 92
8, 890239, Note_on_c, 1, 66, 0
8, 890239, Note_on_c, 1, 78, 0
8, 890240, Note_on_c, 1, 79, 92
8, 890240, Note_on_c, 1, 67, 92
8, 890399, Note_on_c, 1, 79, 0
8, 890399, Note_on_c, 1, 67, 0
8, 890400, Note_on_c, 1, 69, 92
8, 890400, Note_on_c, 1, 81, 92
8, 890559, Note_on_c, 1, 69, 0
8, 890559, Note_on_c, 1, 81, 0
8, 890560, Note_on_c, 1, 71, 92
8, 890560, Note_on_c, 1, 83, 92
8, 890719, Note_on_c, 1, 71, 0
8, 890719, Note_on_c, 1, 83, 0
8, 890720, Note_on_c, 1, 73, 92
8, 890720, Note_on_c, 1, 85, 92
8, 890859, Note_on_c, 1, 73, 0
8, 890859, Note_on_c, 1, 85, 0
8, 890880, Note_on_c, 1, 74, 92
8, 890880, Note_on_c, 1, 86, 92
8, 891039, Note_on_c, 1, 74, 0
8, 891039, Note_on_c, 1, 86, 0
8, 891040, Note_on_c, 1, 73, 92
8, 891199, Note_on_c, 1, 73, 0
8, 891200, Note_on_c, 1, 74, 92
8, 891359, Note_on_c, 1, 74, 0
8, 891360, Note_on_c, 1, 76, 92
8, 891519, Note_on_c, 1, 76, 0
8, 891520, Note_on_c, 1, 78, 92
8, 891679, Note_on_c, 1, 78, 0
8, 891680, Note_on_c, 1, 79, 92
8, 891819, Note_on_c, 1, 79, 0
8, 891840, Note_on_c, 1, 81, 92
8, 892049, Note_on_c, 1, 81, 0
8, 892080, Note_on_c, 1, 81, 92
8, 892289, Note_on_c, 1, 81, 0
8, 892320, Note_on_c, 1, 81, 92
8, 892529, Note_on_c, 1, 81, 0
8, 892560, Note_on_c, 1, 81, 92
8, 892769, Note_on_c, 1, 81, 0
8, 892800, Note_on_c, 1, 74, 92
8, 893039, Note_on_c, 1, 74, 0
8, 893039, End_track
9, 0, Start_track
9, 0, Title_t, "Clarinet in B-flat or A"
9, 0, MIDI_port, 0
9, 0, Program_c, 2, 71
9, 0, Control_c, 2, 121, 0
9, 0, Control_c, 2, 7, 80
9, 0, Control_c, 2, 11, 127
9, 0, Control_c, 2, 10, 75
9, 0, Note_on_c, 2, 58, 92
9, 0, Note_on_c, 2, 70, 92
9, 579, Note_on_c, 2, 58, 0
9, 579, Note_on_c, 2, 70, 0
9, 600, Note_on_c, 2, 57, 92
9, 600, Note_on_c, 2, 69, 92
9, 689, Note_on_c, 2, 57, 0
9, 689, Note_on_c, 2, 69, 0
9, 720, Note_on_c, 2, 57, 92
9, 720, Note_on_c, 2, 69, 92
9, 809, Note_on_c, 2, 57, 0
9, 809, Note_on_c, 2, 69, 0
9, 840, Note_on_c, 2, 74, 92
9, 840, Note_on_c, 2, 62, 92
9, 929, Note_on_c, 2, 74, 0
9, 929, Note_on_c, 2, 62, 0
9, 960, Note_on_c, 2, 74, 92
9, 960, Note_on_c, 2, 62, 92
9, 1049, Note_on_c, 2, 74, 0
9, 1049, Note_on_c, 2, 62, 0
9, 1080, Note_on_c, 2, 65, 92
9, 1080, Note_on_c, 2, 77, 92
9, 1169, Note_on_c, 2, 65, 0
9, 1169, Note_on_c, 2, 77, 0
9, 1200, Note_on_c, 2, 77, 92
9, 1200, Note_on_c, 2, 65, 92
9, 1289, Note_on_c, 2, 77, 0
9, 1289, Note_on_c, 2, 65, 0
9, 1320, Note_on_c, 2, 81, 92
9, 1320, Note_on_c, 2, 69, 92
9, 1409, Note_on_c, 2, 81, 0
9, 1409, Note_on_c, 2, 69, 0
9, 1440, Note_on_c, 2, 69, 92
9, 1440, Note_on_c, 2, 81, 92
9, 1529, Note_on_c, 2, 69, 0
9, 1529, Note_on_c, 2, 81, 0
9, 1560, Note_on_c, 2, 74, 92
9, 1560, Note_on_c, 2, 62, 92
9, 1649, Note_on_c, 2, 74, 0
9, 1649, Note_on_c, 2, 62, 0
9, 1680, Note_on_c, 2, 74, 92
9, 1680, Note_on_c, 2, 62, 92
9, 1769, Note_on_c, 2, 74, 0
9, 1769, Note_on_c, 2, 62, 0
9, 1800, Note_on_c, 2, 65, 92
9, 1800, Note_on_c, 2, 77, 92
9, 1889, Note_on_c, 2, 65, 0
9, 1889, Note_on_c, 2, 77, 0
9, 1920, Note_on_c, 2, 65, 92
9, 1920, Note_on_c, 2, 77, 92
9, 2009, Note_on_c, 2, 65, 0
9, 2009, Note_on_c, 2, 77, 0
9, 2040, Note_on_c, 2, 69, 92
9, 2040, Note_on_c, 2, 57, 92
9, 2129, Note_on_c, 2, 69, 0
9, 2129, Note_on_c, 2, 57, 0
9, 2160, Note_on_c, 2, 69, 92
9, 2160, Note_on_c, 2, 57, 92
9, 2249, Note_on_c, 2, 69, 0
9, 2249, Note_on_c, 2, 57, 0
9, 2280, Note_on_c, 2, 74, 92
9, 2280, Note_on_c, 2, 62, 92
9, 2369, Note_on_c, 2, 74, 0
9, 2369, Note_on_c, 2, 62, 0
9, 2400, Note_on_c, 2, 62, 92
9, 2400, Note_on_c, 2, 74, 92
9, 2489, Note_on_c, 2, 62, 0
9, 2489, Note_on_c, 2, 74, 0
9, 2520, Note_on_c, 2, 53, 92
9, 2520, Note_on_c, 2, 65, 92
9, 2609, Note_on_c, 2, 53, 0
9, 2609, Note_on_c, 2, 65, 0
9, 2640, Note_on_c, 2, 65, 92
9, 2640, Note_on_c, 2, 53, 92
9, 2729, Note_on_c, 2, 65, 0
9, 2729, Note_on_c, 2, 53, 0
9, 2760, Note_on_c, 2, 81, 92
9, 2760, Note_on_c, 2, 69, 92
9, 2849, Note_on_c, 2, 81, 0
9, 2849, Note_on_c, 2, 69, 0
9, 2880, Note_on_c, 2, 69, 92
9, 2880, Note_on_c, 2, 81, 92
9, 2969, Note_on_c, 2, 69, 0
9, 2969, Note_on_c, 2, 81, 0
9, 3000, Note_on_c, 2, 74, 92
9, 3000, Note_on_c, 2, 62, 92
9, 3089, Note_on_c, 2, 74, 0
9, 3089, Note_on_c, 2, 62, 0
9, 3120, Note_on_c, 2, 74, 92
9, 3120, Note_on_c, 2, 62, 92
9, 3209, Note_on_c, 2, 74, 0
9, 3209, Note_on_c, 2, 62, 0
9, 3240, Note_on_c, 2, 77, 92
9, 3240, Note_on_c, 2, 65, 92
9, 3329, Note_on_c, 2, 77, 0
9, 3329, Note_on_c, 2, 65, 0
9, 3360, Note_on_c, 2, 65, 92
9, 3360, Note_on_c, 2, 77, 92
9, 3449, Note_on_c, 2, 65, 0
9, 3449, Note_on_c, 2, 77, 0
9, 3480, Note_on_c, 2, 78, 92
9, 3480, Note_on_c, 2, 66, 92
9, 3569, Note_on_c, 2, 78, 0
9, 3569, Note_on_c, 2, 66, 0
9, 3600, Note_on_c, 2, 78, 92
9, 3600, Note_on_c, 2, 66, 92
9, 3689, Note_on_c, 2, 78, 0
9, 3689, Note_on_c, 2, 66, 0
9, 3720, Note_on_c, 2, 67, 92
9, 3720, Note_on_c, 2, 79, 92
9, 3809, Note_on_c, 2, 67, 0
9, 3809, Note_on_c, 2, 79, 0
9, 3840, Note_on_c, 2, 79, 92
9, 3840, Note_on_c, 2, 67, 92
9, 3929, Note_on_c, 2, 79, 0
9, 3929, Note_on_c, 2, 67, 0
9, 3960, Note_on_c, 2, 80, 92
9, 3960, Note_on_c, 2, 68, 92
9, 4049, Note_on_c, 2, 80, 0
9, 4049, Note_on_c, 2, 68, 0
9, 4080, Note_on_c, 2, 80, 92
9, 4080, Note_on_c, 2, 68, 92
9, 4169, Note_on_c, 2, 80, 0
9, 4169, Note_on_c, 2, 68, 0
9, 4200, Note_on_c, 2, 62, 92
9, 4200, Note_on_c, 2, 74, 92
9, 4289, Note_on_c, 2, 62, 0
9, 4289, Note_on_c, 2, 74, 0
9, 4320, Note_on_c, 2, 62, 92
9, 4320, Note_on_c, 2, 74, 92
9, 4409, Note_on_c, 2, 62, 0
9, 4409, Note_on_c, 2, 74, 0
9, 4440, Note_on_c, 2, 65, 92
9, 4440, Note_on_c, 2, 77, 92
9, 4529, Note_on_c, 2, 65, 0
9, 4529, Note_on_c, 2, 77, 0
9, 4560, Note_on_c, 2, 65, 92
9, 4560, Note_on_c, 2, 77, 92
9, 4739, Note_on_c, 2, 65, 0
9, 4739, Note_on_c, 2, 77, 0
9, 4800, Note_on_c, 2, 69, 92
9, 4800, Note_on_c, 2, 81, 92
9, 4979, Note_on_c, 2, 69, 0
9, 4979, Note_on_c, 2, 81, 0
9, 12240, Note_on_c, 2, 63, 92
9, 12240, Note_on_c, 2, 75, 92
9, 12819, Note_on_c, 2, 63, 0
9, 12819, Note_on_c, 2, 75, 0
9, 12840, Note_on_c, 2, 81, 92
9, 12840, Note_on_c, 2, 69, 92
9, 12929, Note_on_c, 2, 81, 0
9, 12929, Note_on_c, 2, 69, 0
9, 12960, Note_on_c, 2, 81, 92
9, 12960, Note_on_c, 2, 69, 92
9, 13049, Note_on_c, 2, 81, 0
9, 13049, Note_on_c, 2, 69, 0
9, 13080, Note_on_c, 2, 84, 92
9, 13080, Note_on_c, 2, 72, 92
9, 13169, Note_on_c, 2, 84, 0
9, 13169, Note_on_c, 2, 72, 0
9, 13200, Note_on_c, 2, 72, 92
9, 13200, Note_on_c, 2, 84, 92
9, 13289, Note_on_c, 2, 72, 0
9, 13289, Note_on_c, 2, 84, 0
9, 13320, Note_on_c, 2, 66, 92
9, 13320, Note_on_c, 2, 78, 92
9, 13409, Note_on_c, 2, 66, 0
9, 13409, Note_on_c, 2, 78, 0
9, 13440, Note_on_c, 2, 78, 92
9, 13440, Note_on_c, 2, 66, 92
9, 13529, Note_on_c, 2, 78, 0
9, 13529, Note_on_c, 2, 66, 0
9, 13560, Note_on_c, 2, 81, 92
9, 13560, Note_on_c, 2, 69, 92
9, 13649, Note_on_c, 2, 81, 0
9, 13649, Note_on_c, 2, 69, 0
9, 13680, Note_on_c, 2, 69, 92
9, 13680, Note_on_c, 2, 81, 92
9, 13769, Note_on_c, 2, 69, 0
9, 13769, Note_on_c, 2, 81, 0
9, 13800, Note_on_c, 2, 72, 92
9, 13800, Note_on_c, 2, 60, 92
9, 13889, Note_on_c, 2, 72, 0
9, 13889, Note_on_c, 2, 60, 0
9, 13920, Note_on_c, 2, 72, 92
9, 13920, Note_on_c, 2, 60, 92
9, 14009, Note_on_c, 2, 72, 0
9, 14009, Note_on_c, 2, 60, 0
9, 14040, Note_on_c, 2, 63, 92
9, 14040, Note_on_c, 2, 75, 92
9, 14129, Note_on_c, 2, 63, 0
9, 14129, Note_on_c, 2, 75, 0
9, 14160, Note_on_c, 2, 75, 92
9, 14160, Note_on_c, 2, 63, 92
9, 14249, Note_on_c, 2, 75, 0
9, 14249, Note_on_c, 2, 63, 0
9, 14280, Note_on_c, 2, 57, 92
9, 14280, Note_on_c, 2, 69, 92
9, 14369, Note_on_c, 2, 57, 0
9, 14369, Note_on_c, 2, 69, 0
9, 14400, Note_on_c, 2, 57, 92
9, 14400, Note_on_c, 2, 69, 92
9, 14489, Note_on_c, 2, 57, 0
9, 14489, Note_on_c, 2, 69, 0
9, 14520, Note_on_c, 2, 72, 92
9, 14520, Note_on_c, 2, 60, 92
9, 14609, Note_on_c, 2, 72, 0
9, 14609, Note_on_c, 2, 60, 0
9, 14640, Note_on_c, 2, 60, 92
9, 14640, Note_on_c, 2, 72, 92
9, 14729, Note_on_c, 2, 60, 0
9, 14729, Note_on_c, 2, 72, 0
9, 14760, Note_on_c, 2, 66, 92
9, 14760, Note_on_c, 2, 54, 92
9, 14849, Note_on_c, 2, 66, 0
9, 14849, Note_on_c, 2, 54, 0
9, 14880, Note_on_c, 2, 54, 92
9, 14880, Note_on_c, 2, 66, 92
9, 14969, Note_on_c, 2, 54, 0
9, 14969, Note_on_c, 2, 66, 0
9, 15000, Note_on_c, 2, 57, 92
9, 15000, Note_on_c, 2, 69, 92
9, 15089, Note_on_c, 2, 57, 0
9, 15089, Note_on_c, 2, 69, 0
9, 15120, Note_on_c, 2, 69, 92
9, 15120, Note_on_c, 2, 57, 92
9, 15209, Note_on_c, 2, 69, 0
9, 15209, Note_on_c, 2, 57, 0
9, 15240, Note_on_c, 2, 54, 92
9, 15329, Note_on_c, 2, 54, 0
9, 15360, Note_on_c, 2, 54, 92
9, 15449, Note_on_c, 2, 54, 0
9, 15480, Note_on_c, 2, 63, 92
9, 15480, Note_on_c, 2, 75, 92
9, 15569, Note_on_c, 2, 63, 0
9, 15569, Note_on_c, 2, 75, 0
9, 15600, Note_on_c, 2, 75, 92
9, 15600, Note_on_c, 2, 63, 92
9, 15689, Note_on_c, 2, 75, 0
9, 15689, Note_on_c, 2, 63, 0
9, 15720, Note_on_c, 2, 62, 92
9, 15720, Note_on_c, 2, 74, 92
9, 15809, Note_on_c, 2, 62, 0
9, 15809, Note_on_c, 2, 74, 0
9, 15840, Note_on_c, 2, 62, 92
9, 15840, Note_on_c, 2, 74, 92
9, 15929, Note_on_c, 2, 62, 0
9, 15929, Note_on_c, 2, 74, 0
9, 15960, Note_on_c, 2, 72, 92
9, 15960, Note_on_c, 2, 60, 92
9, 16049, Note_on_c, 2, 72, 0
9, 16049, Note_on_c, 2, 60, 0
9, 16080, Note_on_c, 2, 72, 92
9, 16080, Note_on_c, 2, 60, 92
9, 16169, Note_on_c, 2, 72, 0
9, 16169, Note_on_c, 2, 60, 0
9, 16200, Note_on_c, 2, 70, 92
9, 16200, Note_on_c, 2, 58, 92
9, 16289, Note_on_c, 2, 70, 0
9, 16289, Note_on_c, 2, 58, 0
9, 16320, Note_on_c, 2, 58, 92
9, 16320, Note_on_c, 2, 70, 92
9, 16409, Note_on_c, 2, 58, 0
9, 16409, Note_on_c, 2, 70, 0
9, 16440, Note_on_c, 2, 69, 92
9, 16440, Note_on_c, 2, 57, 92
9, 16529, Note_on_c, 2, 69, 0
9, 16529, Note_on_c, 2, 57, 0
9, 16560, Note_on_c, 2, 75, 92
9, 16560, Note_on_c, 2, 72, 92
9, 16649, Note_on_c, 2, 75, 0
9, 16649, Note_on_c, 2, 72, 0
9, 16680, Note_on_c, 2, 75, 92
9, 16680, Note_on_c, 2, 72, 92
9, 16769, Note_on_c, 2, 75, 0
9, 16769, Note_on_c, 2, 72, 0
9, 16800, Note_on_c, 2, 75, 92
9, 16800, Note_on_c, 2, 72, 92
9, 17039, Note_on_c, 2, 75, 0
9, 17039, Note_on_c, 2, 72, 0
9, 17400, Note_on_c, 2, 81, 92
9, 17400, Note_on_c, 2, 72, 92
9, 17499, Note_on_c, 2, 81, 0
9, 17499, Note_on_c, 2, 72, 0
9, 17520, Note_on_c, 2, 81, 92
9, 17520, Note_on_c, 2, 72, 92
9, 17759, Note_on_c, 2, 81, 0
9, 17759, Note_on_c, 2, 72, 0
9, 20640, Note_on_c, 2, 65, 80
9, 20640, Note_on_c, 2, 62, 80
9, 20759, Note_on_c, 2, 65, 0
9, 20759, Note_on_c, 2, 62, 0
9, 20880, Note_on_c, 2, 62, 80
9, 20880, Note_on_c, 2, 67, 80
9, 20999, Note_on_c, 2, 62, 0
9, 20999, Note_on_c, 2, 67, 0
9, 21120, Note_on_c, 2, 57, 32
9, 21120, Note_on_c, 2, 69, 32
9, 21359, Note_on_c, 2, 57, 0
9, 21360, Note_on_c, 2, 64, 32
9, 23039, Note_on_c, 2, 69, 0
9, 23039, Note_on_c, 2, 64, 0
9, 23040, Note_on_c, 2, 64, 32
9, 23040, Note_on_c, 2, 69, 32
9, 24959, Note_on_c, 2, 64, 0
9, 24959, Note_on_c, 2, 69, 0
9, 24960, Note_on_c, 2, 63, 80
9, 24960, Note_on_c, 2, 69, 80
9, 25199, Note_on_c, 2, 63, 0
9, 25199, Note_on_c, 2, 69, 0
9, 33600, Note_on_c, 2, 76, 44
9, 33929, Note_on_c, 2, 76, 0
9, 33960, Note_on_c, 2, 64, 44
9, 34049, Note_on_c, 2, 64, 0
9, 34080, Note_on_c, 2, 64, 44
9, 34289, Note_on_c, 2, 64, 0
9, 34320, Note_on_c, 2, 69, 44
9, 34499, Note_on_c, 2, 69, 0
9, 34560, Note_on_c, 2, 71, 44
9, 34739, Note_on_c, 2, 71, 0
9, 34800, Note_on_c, 2, 72, 44
9, 34979, Note_on_c, 2, 72, 0
9, 35040, Note_on_c, 2, 67, 44
9, 35040, Note_on_c, 2, 70, 44
9, 35219, Note_on_c, 2, 67, 0
9, 35219, Note_on_c, 2, 70, 0
9, 35280, Note_on_c, 2, 65, 44
9, 35280, Note_on_c, 2, 69, 44
9, 35459, Note_on_c, 2, 65, 0
9, 35459, Note_on_c, 2, 69, 0
9, 35520, Note_on_c, 2, 67, 44
9, 35520, Note_on_c, 2, 64, 44
9, 35699, Note_on_c, 2, 67, 0
9, 35699, Note_on_c, 2, 64, 0
9, 35760, Note_on_c, 2, 69, 44
9, 35760, Note_on_c, 2, 65, 44
9, 35939, Note_on_c, 2, 69, 0
9, 35939, Note_on_c, 2, 65, 0
9, 36000, Note_on_c, 2, 65, 44
9, 36000, Note_on_c, 2, 70, 44
9, 36179, Note_on_c, 2, 65, 0
9, 36179, Note_on_c, 2, 70, 0
9, 36240, Note_on_c, 2, 65, 44
9, 36240, Note_on_c, 2, 72, 44
9, 36419, Note_on_c, 2, 65, 0
9, 36419, Note_on_c, 2, 72, 0
9, 36480, Note_on_c, 2, 64, 44
9, 36480, Note_on_c, 2, 76, 44
9, 36659, Note_on_c, 2, 64, 0
9, 36659, Note_on_c, 2, 76, 0
9, 36720, Note_on_c, 2, 65, 44
9, 36720, Note_on_c, 2, 77, 44
9, 36899, Note_on_c, 2, 65, 0
9, 36899, Note_on_c, 2, 77, 0
9, 36960, Note_on_c, 2, 79, 44
9, 36960, Note_on_c, 2, 67, 44
9, 37139, Note_on_c, 2, 79, 0
9, 37139, Note_on_c, 2, 67, 0
9, 37200, Note_on_c, 2, 65, 44
9, 37200, Note_on_c, 2, 72, 44
9, 37379, Note_on_c, 2, 65, 0
9, 37379, Note_on_c, 2, 72, 0
9, 37440, Note_on_c, 2, 64, 44
9, 37440, Note_on_c, 2, 70, 44
9, 37619, Note_on_c, 2, 64, 0
9, 37619, Note_on_c, 2, 70, 0
9, 37680, Note_on_c, 2, 65, 44
9, 37680, Note_on_c, 2, 69, 44
9, 37859, Note_on_c, 2, 65, 0
9, 37859, Note_on_c, 2, 69, 0
9, 43200, Note_on_c, 2, 65, 38
9, 43200, Note_on_c, 2, 74, 38
9, 43679, Note_on_c, 2, 74, 0
9, 43680, Note_on_c, 2, 69, 38
9, 44159, Note_on_c, 2, 69, 0
9, 44160, Note_on_c, 2, 70, 38
9, 44519, Note_on_c, 2, 65, 0
9, 44520, Note_on_c, 2, 58, 38
9, 44639, Note_on_c, 2, 70, 0
9, 44639, Note_on_c, 2, 58, 0
9, 44640, Note_on_c, 2, 65, 38
9, 44640, Note_on_c, 2, 60, 38
9, 44999, Note_on_c, 2, 65, 0
9, 45000, Note_on_c, 2, 63, 38
9, 45111, Note_on_c, 2, 60, 0
9, 45111, Note_on_c, 2, 63, 0
9, 45120, Note_on_c, 2, 62, 38
9, 45120, Note_on_c, 2, 58, 38
9, 45359, Note_on_c, 2, 62, 0
9, 45359, Note_on_c, 2, 58, 0
9, 47760, Control_c, 2, 11, 89
9, 48000, Note_on_c, 2, 68, 68
9, 49424, Note_on_c, 2, 68, 0
9, 49440, Note_on_c, 2, 66, 68
9, 49440, Control_c, 2, 11, 89
9, 49473, Control_c, 2, 11, 90
9, 49507, Control_c, 2, 11, 91
9, 49540, Control_c, 2, 11, 92
9, 49573, Control_c, 2, 11, 93
9, 49607, Control_c, 2, 11, 94
9, 49640, Control_c, 2, 11, 95
9, 49673, Control_c, 2, 11, 96
9, 49707, Control_c, 2, 11, 97
9, 49740, Control_c, 2, 11, 99
9, 49773, Control_c, 2, 11, 100
9, 49807, Control_c, 2, 11, 101
9, 49840, Control_c, 2, 11, 102
9, 49873, Control_c, 2, 11, 103
9, 49904, Note_on_c, 2, 66, 0
9, 49907, Control_c, 2, 11, 104
9, 49920, Note_on_c, 2, 69, 68
9, 49940, Control_c, 2, 11, 105
9, 49973, Control_c, 2, 11, 106
9, 50007, Control_c, 2, 11, 107
9, 50040, Control_c, 2, 11, 108
9, 50073, Control_c, 2, 11, 109
9, 50107, Control_c, 2, 11, 110
9, 50140, Control_c, 2, 11, 111
9, 50173, Control_c, 2, 11, 112
9, 50207, Control_c, 2, 11, 113
9, 50240, Control_c, 2, 11, 114
9, 50273, Control_c, 2, 11, 115
9, 50307, Control_c, 2, 11, 116
9, 50340, Control_c, 2, 11, 118
9, 50373, Control_c, 2, 11, 119
9, 50399, Note_on_c, 2, 69, 0
9, 50400, Note_on_c, 2, 68, 68
9, 50407, Control_c, 2, 11, 120
9, 50440, Control_c, 2, 11, 121
9, 50473, Control_c, 2, 11, 122
9, 50507, Control_c, 2, 11, 123
9, 50540, Control_c, 2, 11, 124
9, 50573, Control_c, 2, 11, 125
9, 50607, Control_c, 2, 11, 127
9, 50639, Note_on_c, 2, 68, 0
9, 53760, Note_on_c, 2, 64, 38
9, 53984, Note_on_c, 2, 64, 0
9, 54000, Note_on_c, 2, 64, 38
9, 54239, Note_on_c, 2, 64, 0
9, 54240, Note_on_c, 2, 66, 38
9, 54479, Note_on_c, 2, 66, 0
9, 54480, Note_on_c, 2, 67, 38
9, 54704, Note_on_c, 2, 67, 0
9, 54720, Note_on_c, 2, 67, 38
9, 54959, Note_on_c, 2, 67, 0
9, 54960, Note_on_c, 2, 66, 38
9, 55199, Note_on_c, 2, 66, 0
9, 55200, Note_on_c, 2, 64, 38
9, 55439, Note_on_c, 2, 64, 0
9, 55440, Note_on_c, 2, 62, 38
9, 55664, Note_on_c, 2, 62, 0
9, 55680, Note_on_c, 2, 64, 38
9, 55680, Note_on_c, 2, 61, 38
9, 55904, Note_on_c, 2, 64, 0
9, 55904, Note_on_c, 2, 61, 0
9, 55920, Note_on_c, 2, 64, 38
9, 55920, Note_on_c, 2, 61, 38
9, 56159, Note_on_c, 2, 64, 0
9, 56159, Note_on_c, 2, 61, 0
9, 56160, Note_on_c, 2, 62, 38
9, 56160, Note_on_c, 2, 66, 38
9, 56399, Note_on_c, 2, 62, 0
9, 56399, Note_on_c, 2, 66, 0
9, 56400, Note_on_c, 2, 64, 38
9, 56400, Note_on_c, 2, 67, 38
9, 56624, Note_on_c, 2, 64, 0
9, 56624, Note_on_c, 2, 67, 0
9, 56640, Note_on_c, 2, 64, 38
9, 56640, Note_on_c, 2, 67, 38
9, 56879, Note_on_c, 2, 64, 0
9, 56879, Note_on_c, 2, 67, 0
9, 56880, Note_on_c, 2, 62, 38
9, 56880, Note_on_c, 2, 66, 38
9, 57119, Note_on_c, 2, 62, 0
9, 57119, Note_on_c, 2, 66, 0
9, 57120, Note_on_c, 2, 64, 38
9, 57120, Note_on_c, 2, 73, 38
9, 57359, Note_on_c, 2, 64, 0
9, 57359, Note_on_c, 2, 73, 0
9, 57360, Note_on_c, 2, 74, 38
9, 57360, Note_on_c, 2, 66, 38
9, 57584, Note_on_c, 2, 74, 0
9, 57584, Note_on_c, 2, 66, 0
9, 57600, Note_on_c, 2, 67, 44
9, 57600, Note_on_c, 2, 79, 44
9, 57824, Note_on_c, 2, 67, 0
9, 57824, Note_on_c, 2, 79, 0
9, 57840, Note_on_c, 2, 73, 80
9, 57840, Note_on_c, 2, 67, 80
9, 58019, Note_on_c, 2, 73, 0
9, 58019, Note_on_c, 2, 67, 0
9, 58560, Note_on_c, 2, 76, 80
9, 58560, Note_on_c, 2, 67, 80
9, 58739, Note_on_c, 2, 76, 0
9, 58739, Note_on_c, 2, 67, 0
9, 59280, Note_on_c, 2, 76, 80
9, 59280, Note_on_c, 2, 73, 80
9, 59459, Note_on_c, 2, 76, 0
9, 59459, Note_on_c, 2, 73, 0
9, 60000, Note_on_c, 2, 78, 80
9, 60000, Note_on_c, 2, 74, 80
9, 60179, Note_on_c, 2, 78, 0
9, 60179, Note_on_c, 2, 74, 0
9, 62880, Note_on_c, 2, 67, 80
9, 62880, Note_on_c, 2, 71, 80
9, 63104, Note_on_c, 2, 67, 0
9, 63104, Note_on_c, 2, 71, 0
9, 63120, Note_on_c, 2, 71, 80
9, 63120, Note_on_c, 2, 79, 80
9, 63239, Note_on_c, 2, 71, 0
9, 63239, Note_on_c, 2, 79, 0
9, 64800, Note_on_c, 2, 73, 92
9, 64800, Note_on_c, 2, 76, 92
9, 65039, Note_on_c, 2, 73, 0
9, 65039, Note_on_c, 2, 76, 0
9, 65280, Note_on_c, 2, 74, 92
9, 65280, Note_on_c, 2, 78, 92
9, 65519, Note_on_c, 2, 74, 0
9, 65519, Note_on_c, 2, 78, 0
9, 133680, Marker_t, "Muta in A"
9, 134640, Note_on_c, 2, 74, 80
9, 134640, Note_on_c, 2, 78, 80
9, 135119, Note_on_c, 2, 74, 0
9, 135119, Note_on_c, 2, 78, 0
9, 135120, Note_on_c, 2, 79, 80
9, 135120, Note_on_c, 2, 76, 80
9, 135359, Note_on_c, 2, 79, 0
9, 135359, Note_on_c, 2, 76, 0
9, 135360, Note_on_c, 2, 78, 80
9, 135360, Note_on_c, 2, 81, 80
9, 135584, Note_on_c, 2, 78, 0
9, 135584, Note_on_c, 2, 81, 0
9, 135600, Note_on_c, 2, 81, 80
9, 135600, Note_on_c, 2, 78, 80
9, 135839, Note_on_c, 2, 81, 0
9, 135839, Note_on_c, 2, 78, 0
9, 135840, Note_on_c, 2, 76, 80
9, 135840, Note_on_c, 2, 79, 80
9, 136064, Note_on_c, 2, 76, 0
9, 136064, Note_on_c, 2, 79, 0
9, 136080, Note_on_c, 2, 74, 80
9, 136080, Note_on_c, 2, 78, 80
9, 136289, Note_on_c, 2, 74, 0
9, 136289, Note_on_c, 2, 78, 0
9, 136320, Note_on_c, 2, 76, 80
9, 136320, Note_on_c, 2, 69, 80
9, 136499, Note_on_c, 2, 76, 0
9, 136499, Note_on_c, 2, 69, 0
9, 136560, Note_on_c, 2, 66, 80
9, 136560, Note_on_c, 2, 74, 80
9, 136784, Note_on_c, 2, 66, 0
9, 136784, Note_on_c, 2, 74, 0
9, 136800, Note_on_c, 2, 66, 80
9, 136800, Note_on_c, 2, 74, 80
9, 137039, Note_on_c, 2, 66, 0
9, 137039, Note_on_c, 2, 74, 0
9, 137040, Note_on_c, 2, 76, 80
9, 137040, Note_on_c, 2, 69, 80
9, 137279, Note_on_c, 2, 76, 0
9, 137279, Note_on_c, 2, 69, 0
9, 137280, Note_on_c, 2, 78, 80
9, 137280, Note_on_c, 2, 74, 80
9, 137504, Note_on_c, 2, 78, 0
9, 137504, Note_on_c, 2, 74, 0
9, 137520, Note_on_c, 2, 74, 80
9, 137520, Note_on_c, 2, 78, 80
9, 137879, Note_on_c, 2, 74, 0
9, 137879, Note_on_c, 2, 78, 0
9, 137880, Note_on_c, 2, 76, 80
9, 137880, Note_on_c, 2, 69, 80
9, 137984, Note_on_c, 2, 76, 0
9, 137984, Note_on_c, 2, 69, 0
9, 138000, Note_on_c, 2, 69, 80
9, 138000, Note_on_c, 2, 76, 80
9, 138464, Note_on_c, 2, 69, 0
9, 138464, Note_on_c, 2, 76, 0
9, 138480, Note_on_c, 2, 74, 92
9, 138480, Note_on_c, 2, 78, 92
9, 138540, Control_c, 2, 11, 107
9, 138959, Note_on_c, 2, 74, 0
9, 138959, Note_on_c, 2, 78, 0
9, 138960, Note_on_c, 2, 79, 92
9, 138960, Note_on_c, 2, 76, 92
9, 139199, Note_on_c, 2, 79, 0
9, 139199, Note_on_c, 2, 76, 0
9, 139200, Note_on_c, 2, 78, 92
9, 139200, Note_on_c, 2, 81, 92
9, 139424, Note_on_c, 2, 78, 0
9, 139424, Note_on_c, 2, 81, 0
9, 139438, Control_c, 2, 11, 127
9, 139440, Note_on_c, 2, 81, 80
9, 139440, Note_on_c, 2, 78, 80
9, 139679, Note_on_c, 2, 81, 0
9, 139679, Note_on_c, 2, 78, 0
9, 139680, Note_on_c, 2, 76, 80
9, 139680, Note_on_c, 2, 79, 80
9, 139904, Note_on_c, 2, 76, 0
9, 139904, Note_on_c, 2, 79, 0
9, 139920, Note_on_c, 2, 74, 80
9, 139920, Note_on_c, 2, 78, 80
9, 140129, Note_on_c, 2, 74, 0
9, 140129, Note_on_c, 2, 78, 0
9, 140160, Note_on_c, 2, 76, 80
9, 140160, Note_on_c, 2, 69, 80
9, 140339, Note_on_c, 2, 76, 0
9, 140339, Note_on_c, 2, 69, 0
9, 140400, Note_on_c, 2, 66, 80
9, 140400, Note_on_c, 2, 74, 80
9, 140609, Note_on_c, 2, 66, 0
9, 140609, Note_on_c, 2, 74, 0
9, 140640, Note_on_c, 2, 66, 80
9, 140640, Note_on_c, 2, 74, 80
9, 140849, Note_on_c, 2, 66, 0
9, 140849, Note_on_c, 2, 74, 0
9, 140880, Note_on_c, 2, 69, 80
9, 140880, Note_on_c, 2, 76, 80
9, 141089, Note_on_c, 2, 69, 0
9, 141089, Note_on_c, 2, 76, 0
9, 141120, Note_on_c, 2, 78, 80
9, 141120, Note_on_c, 2, 74, 80
9, 141299, Note_on_c, 2, 78, 0
9, 141299, Note_on_c, 2, 74, 0
9, 141360, Note_on_c, 2, 69, 80
9, 141360, Note_on_c, 2, 76, 80
9, 141719, Note_on_c, 2, 69, 0
9, 141719, Note_on_c, 2, 76, 0
9, 141720, Note_on_c, 2, 66, 80
9, 141720, Note_on_c, 2, 74, 80
9, 141824, Note_on_c, 2, 66, 0
9, 141824, Note_on_c, 2, 74, 0
9, 141840, Note_on_c, 2, 74, 80
9, 141840, Note_on_c, 2, 66, 80
9, 142304, Note_on_c, 2, 74, 0
9, 142304, Note_on_c, 2, 66, 0
9, 142320, Note_on_c, 2, 76, 80
9, 142320, Note_on_c, 2, 73, 80
9, 142799, Note_on_c, 2, 76, 0
9, 142799, Note_on_c, 2, 73, 0
9, 142800, Note_on_c, 2, 74, 80
9, 142800, Note_on_c, 2, 78, 80
9, 143039, Note_on_c, 2, 74, 0
9, 143039, Note_on_c, 2, 78, 0
9, 143040, Note_on_c, 2, 74, 80
9, 143040, Note_on_c, 2, 66, 80
9, 143264, Note_on_c, 2, 74, 0
9, 143264, Note_on_c, 2, 66, 0
9, 143280, Note_on_c, 2, 73, 80
9, 143280, Note_on_c, 2, 76, 80
9, 143519, Note_on_c, 2, 73, 0
9, 143519, Note_on_c, 2, 76, 0
9, 143520, Note_on_c, 2, 78, 80
9, 143520, Note_on_c, 2, 74, 80
9, 143639, Note_on_c, 2, 78, 0
9, 143639, Note_on_c, 2, 74, 0
9, 143640, Note_on_c, 2, 79, 80
9, 143640, Note_on_c, 2, 76, 80
9, 143759, Note_on_c, 2, 79, 0
9, 143759, Note_on_c, 2, 76, 0
9, 143760, Note_on_c, 2, 78, 80
9, 143760, Note_on_c, 2, 74, 80
9, 143984, Note_on_c, 2, 78, 0
9, 143984, Note_on_c, 2, 74, 0
9, 144000, Note_on_c, 2, 66, 80
9, 144000, Note_on_c, 2, 74, 80
9, 144179, Note_on_c, 2, 66, 0
9, 144179, Note_on_c, 2, 74, 0
9, 144240, Note_on_c, 2, 76, 80
9, 144240, Note_on_c, 2, 73, 80
9, 144479, Note_on_c, 2, 76, 0
9, 144479, Note_on_c, 2, 73, 0
9, 144480, Note_on_c, 2, 78, 80
9, 144480, Note_on_c, 2, 74, 80
9, 144599, Note_on_c, 2, 78, 0
9, 144599, Note_on_c, 2, 74, 0
9, 144600, Note_on_c, 2, 76, 80
9, 144600, Note_on_c, 2, 79, 80
9, 144704, Note_on_c, 2, 76, 0
9, 144704, Note_on_c, 2, 79, 0
9, 144720, Note_on_c, 2, 78, 80
9, 144720, Note_on_c, 2, 73, 80
9, 144944, Note_on_c, 2, 73, 0
9, 144959, Note_on_c, 2, 78, 0
9, 144960, Note_on_c, 2, 73, 80
9, 144960, Note_on_c, 2, 76, 80
9, 145184, Note_on_c, 2, 73, 0
9, 145184, Note_on_c, 2, 76, 0
9, 145200, Note_on_c, 2, 74, 80
9, 145200, Note_on_c, 2, 71, 80
9, 145379, Note_on_c, 2, 74, 0
9, 145379, Note_on_c, 2, 71, 0
9, 145440, Note_on_c, 2, 76, 80
9, 145440, Note_on_c, 2, 68, 80
9, 145619, Note_on_c, 2, 76, 0
9, 145619, Note_on_c, 2, 68, 0
9, 145680, Note_on_c, 2, 69, 80
9, 145859, Note_on_c, 2, 69, 0
9, 145920, Note_on_c, 2, 74, 80
9, 145920, Note_on_c, 2, 78, 80
9, 146384, Note_on_c, 2, 74, 0
9, 146384, Note_on_c, 2, 78, 0
9, 146400, Note_on_c, 2, 78, 80
9, 146400, Note_on_c, 2, 74, 80
9, 146609, Note_on_c, 2, 78, 0
9, 146609, Note_on_c, 2, 74, 0
9, 146640, Note_on_c, 2, 76, 80
9, 146640, Note_on_c, 2, 79, 80
9, 146849, Note_on_c, 2, 76, 0
9, 146849, Note_on_c, 2, 79, 0
9, 146880, Note_on_c, 2, 78, 80
9, 146880, Note_on_c, 2, 81, 80
9, 147059, Note_on_c, 2, 78, 0
9, 147059, Note_on_c, 2, 81, 0
9, 147120, Note_on_c, 2, 78, 80
9, 147120, Note_on_c, 2, 81, 80
9, 147359, Note_on_c, 2, 78, 0
9, 147359, Note_on_c, 2, 81, 0
9, 147360, Note_on_c, 2, 79, 80
9, 147360, Note_on_c, 2, 76, 80
9, 147584, Note_on_c, 2, 79, 0
9, 147584, Note_on_c, 2, 76, 0
9, 147600, Note_on_c, 2, 78, 80
9, 147600, Note_on_c, 2, 74, 80
9, 147809, Note_on_c, 2, 78, 0
9, 147809, Note_on_c, 2, 74, 0
9, 147840, Note_on_c, 2, 69, 80
9, 147840, Note_on_c, 2, 76, 80
9, 148019, Note_on_c, 2, 69, 0
9, 148019, Note_on_c, 2, 76, 0
9, 148080, Note_on_c, 2, 74, 80
9, 148080, Note_on_c, 2, 66, 80
9, 148289, Note_on_c, 2, 74, 0
9, 148289, Note_on_c, 2, 66, 0
9, 148320, Note_on_c, 2, 74, 80
9, 148320, Note_on_c, 2, 66, 80
9, 148529, Note_on_c, 2, 74, 0
9, 148529, Note_on_c, 2, 66, 0
9, 148560, Note_on_c, 2, 76, 80
9, 148560, Note_on_c, 2, 69, 80
9, 148769, Note_on_c, 2, 76, 0
9, 148769, Note_on_c, 2, 69, 0
9, 148800, Note_on_c, 2, 74, 80
9, 148800, Note_on_c, 2, 78, 80
9, 148979, Note_on_c, 2, 74, 0
9, 148979, Note_on_c, 2, 78, 0
9, 149040, Note_on_c, 2, 76, 80
9, 149040, Note_on_c, 2, 69, 80
9, 149399, Note_on_c, 2, 76, 0
9, 149399, Note_on_c, 2, 69, 0
9, 149400, Note_on_c, 2, 74, 80
9, 149400, Note_on_c, 2, 66, 80
9, 149504, Note_on_c, 2, 74, 0
9, 149504, Note_on_c, 2, 66, 0
9, 149520, Note_on_c, 2, 66, 80
9, 149520, Note_on_c, 2, 74, 80
9, 149609, Note_on_c, 2, 66, 0
9, 149609, Note_on_c, 2, 74, 0
9, 149640, Note_on_c, 2, 69, 80
9, 149640, Note_on_c, 2, 78, 80
9, 149759, Note_on_c, 2, 69, 0
9, 149759, Note_on_c, 2, 78, 0
9, 149760, Note_on_c, 2, 67, 80
9, 149760, Note_on_c, 2, 76, 80
9, 149879, Note_on_c, 2, 67, 0
9, 149879, Note_on_c, 2, 76, 0
9, 149880, Note_on_c, 2, 66, 80
9, 149880, Note_on_c, 2, 74, 80
9, 149984, Note_on_c, 2, 66, 0
9, 149984, Note_on_c, 2, 74, 0
9, 150000, Note_on_c, 2, 76, 92
9, 150000, Note_on_c, 2, 73, 92
9, 150060, Control_c, 2, 11, 107
9, 150464, Note_on_c, 2, 76, 0
9, 150464, Note_on_c, 2, 73, 0
9, 150478, Control_c, 2, 11, 127
9, 150480, Note_on_c, 2, 78, 80
9, 150480, Note_on_c, 2, 74, 80
9, 150719, Note_on_c, 2, 78, 0
9, 150719, Note_on_c, 2, 74, 0
9, 150720, Note_on_c, 2, 66, 80
9, 150720, Note_on_c, 2, 74, 80
9, 150944, Note_on_c, 2, 66, 0
9, 150944, Note_on_c, 2, 74, 0
9, 150960, Note_on_c, 2, 73, 80
9, 150960, Note_on_c, 2, 76, 80
9, 151199, Note_on_c, 2, 73, 0
9, 151199, Note_on_c, 2, 76, 0
9, 151200, Note_on_c, 2, 78, 80
9, 151200, Note_on_c, 2, 74, 80
9, 151319, Note_on_c, 2, 78, 0
9, 151319, Note_on_c, 2, 74, 0
9, 151320, Note_on_c, 2, 79, 80
9, 151320, Note_on_c, 2, 76, 80
9, 151439, Note_on_c, 2, 79, 0
9, 151439, Note_on_c, 2, 76, 0
9, 151440, Note_on_c, 2, 78, 80
9, 151440, Note_on_c, 2, 74, 80
9, 151664, Note_on_c, 2, 78, 0
9, 151664, Note_on_c, 2, 74, 0
9, 151680, Note_on_c, 2, 66, 80
9, 151680, Note_on_c, 2, 74, 80
9, 151859, Note_on_c, 2, 66, 0
9, 151859, Note_on_c, 2, 74, 0
9, 151920, Note_on_c, 2, 76, 80
9, 151920, Note_on_c, 2, 73, 80
9, 152159, Note_on_c, 2, 76, 0
9, 152159, Note_on_c, 2, 73, 0
9, 152160, Note_on_c, 2, 78, 80
9, 152160, Note_on_c, 2, 74, 80
9, 152279, Note_on_c, 2, 78, 0
9, 152279, Note_on_c, 2, 74, 0
9, 152280, Note_on_c, 2, 76, 80
9, 152280, Note_on_c, 2, 79, 80
9, 152384, Note_on_c, 2, 76, 0
9, 152384, Note_on_c, 2, 79, 0
9, 152400, Note_on_c, 2, 73, 80
9, 152400, Note_on_c, 2, 78, 80
9, 152624, Note_on_c, 2, 73, 0
9, 152639, Note_on_c, 2, 78, 0
9, 152640, Note_on_c, 2, 76, 80
9, 152640, Note_on_c, 2, 73, 80
9, 152864, Note_on_c, 2, 76, 0
9, 152864, Note_on_c, 2, 73, 0
9, 152880, Note_on_c, 2, 74, 80
9, 152880, Note_on_c, 2, 71, 80
9, 153059, Note_on_c, 2, 74, 0
9, 153059, Note_on_c, 2, 71, 0
9, 153120, Note_on_c, 2, 68, 80
9, 153120, Note_on_c, 2, 76, 80
9, 153299, Note_on_c, 2, 68, 0
9, 153299, Note_on_c, 2, 76, 0
9, 153360, Note_on_c, 2, 69, 80
9, 153539, Note_on_c, 2, 69, 0
9, 153600, Note_on_c, 2, 78, 80
9, 153600, Note_on_c, 2, 74, 80
9, 154064, Note_on_c, 2, 78, 0
9, 154064, Note_on_c, 2, 74, 0
9, 154080, Note_on_c, 2, 78, 80
9, 154080, Note_on_c, 2, 74, 80
9, 154289, Note_on_c, 2, 78, 0
9, 154289, Note_on_c, 2, 74, 0
9, 154320, Note_on_c, 2, 79, 80
9, 154320, Note_on_c, 2, 76, 80
9, 154529, Note_on_c, 2, 79, 0
9, 154529, Note_on_c, 2, 76, 0
9, 154560, Note_on_c, 2, 78, 80
9, 154560, Note_on_c, 2, 81, 80
9, 154739, Note_on_c, 2, 78, 0
9, 154739, Note_on_c, 2, 81, 0
9, 154800, Note_on_c, 2, 81, 80
9, 154800, Note_on_c, 2, 78, 80
9, 155039, Note_on_c, 2, 81, 0
9, 155039, Note_on_c, 2, 78, 0
9, 155040, Note_on_c, 2, 76, 80
9, 155040, Note_on_c, 2, 79, 80
9, 155264, Note_on_c, 2, 76, 0
9, 155264, Note_on_c, 2, 79, 0
9, 155280, Note_on_c, 2, 78, 80
9, 155280, Note_on_c, 2, 74, 80
9, 155489, Note_on_c, 2, 78, 0
9, 155489, Note_on_c, 2, 74, 0
9, 155520, Note_on_c, 2, 69, 80
9, 155520, Note_on_c, 2, 76, 80
9, 155699, Note_on_c, 2, 69, 0
9, 155699, Note_on_c, 2, 76, 0
9, 155760, Note_on_c, 2, 74, 80
9, 155760, Note_on_c, 2, 66, 80
9, 155984, Note_on_c, 2, 74, 0
9, 155984, Note_on_c, 2, 66, 0
9, 156000, Note_on_c, 2, 66, 80
9, 156000, Note_on_c, 2, 74, 80
9, 156209, Note_on_c, 2, 66, 0
9, 156209, Note_on_c, 2, 74, 0
9, 156240, Note_on_c, 2, 76, 80
9, 156240, Note_on_c, 2, 69, 80
9, 156449, Note_on_c, 2, 76, 0
9, 156449, Note_on_c, 2, 69, 0
9, 156480, Note_on_c, 2, 78, 80
9, 156480, Note_on_c, 2, 74, 80
9, 156659, Note_on_c, 2, 78, 0
9, 156659, Note_on_c, 2, 74, 0
9, 156720, Note_on_c, 2, 76, 80
9, 156720, Note_on_c, 2, 69, 80
9, 157079, Note_on_c, 2, 76, 0
9, 157079, Note_on_c, 2, 69, 0
9, 157080, Note_on_c, 2, 74, 80
9, 157080, Note_on_c, 2, 66, 80
9, 157184, Note_on_c, 2, 74, 0
9, 157184, Note_on_c, 2, 66, 0
9, 157200, Note_on_c, 2, 74, 80
9, 157200, Note_on_c, 2, 66, 80
9, 157424, Note_on_c, 2, 74, 0
9, 157424, Note_on_c, 2, 66, 0
9, 157440, Note_on_c, 2, 69, 80
9, 157440, Note_on_c, 2, 78, 80
9, 157679, Note_on_c, 2, 69, 0
9, 157679, Note_on_c, 2, 78, 0
9, 157680, Note_on_c, 2, 67, 80
9, 157680, Note_on_c, 2, 76, 80
9, 158039, Note_on_c, 2, 67, 0
9, 158039, Note_on_c, 2, 76, 0
9, 158040, Note_on_c, 2, 66, 80
9, 158040, Note_on_c, 2, 74, 80
9, 158144, Note_on_c, 2, 66, 0
9, 158144, Note_on_c, 2, 74, 0
9, 158160, Note_on_c, 2, 74, 80
9, 158160, Note_on_c, 2, 66, 80
9, 158384, Note_on_c, 2, 74, 0
9, 158384, Note_on_c, 2, 66, 0
9, 158400, Note_on_c, 2, 74, 80
9, 158400, Note_on_c, 2, 71, 80
9, 158639, Note_on_c, 2, 74, 0
9, 158639, Note_on_c, 2, 71, 0
9, 158640, Note_on_c, 2, 69, 80
9, 158640, Note_on_c, 2, 72, 80
9, 158999, Note_on_c, 2, 69, 0
9, 158999, Note_on_c, 2, 72, 0
9, 159000, Note_on_c, 2, 67, 80
9, 159000, Note_on_c, 2, 71, 80
9, 159104, Note_on_c, 2, 67, 0
9, 159104, Note_on_c, 2, 71, 0
9, 159120, Note_on_c, 2, 67, 80
9, 159120, Note_on_c, 2, 71, 80
9, 159344, Note_on_c, 2, 67, 0
9, 159344, Note_on_c, 2, 71, 0
9, 159360, Note_on_c, 2, 67, 80
9, 159360, Note_on_c, 2, 79, 80
9, 159599, Note_on_c, 2, 67, 0
9, 159599, Note_on_c, 2, 79, 0
9, 159600, Note_on_c, 2, 78, 80
9, 159600, Note_on_c, 2, 66, 80
9, 159959, Note_on_c, 2, 78, 0
9, 159959, Note_on_c, 2, 66, 0
9, 159960, Note_on_c, 2, 76, 80
9, 159960, Note_on_c, 2, 64, 80
9, 160064, Note_on_c, 2, 76, 0
9, 160064, Note_on_c, 2, 64, 0
9, 160080, Note_on_c, 2, 76, 80
9, 160080, Note_on_c, 2, 64, 80
9, 160304, Note_on_c, 2, 76, 0
9, 160304, Note_on_c, 2, 64, 0
9, 160320, Note_on_c, 2, 64, 80
9, 160320, Note_on_c, 2, 76, 80
9, 160439, Note_on_c, 2, 64, 0
9, 160439, Note_on_c, 2, 76, 0
9, 160440, Note_on_c, 2, 66, 80
9, 160440, Note_on_c, 2, 78, 80
9, 160544, Note_on_c, 2, 66, 0
9, 160544, Note_on_c, 2, 78, 0
9, 160560, Note_on_c, 2, 64, 80
9, 160560, Note_on_c, 2, 76, 80
9, 160919, Note_on_c, 2, 64, 0
9, 160919, Note_on_c, 2, 76, 0
9, 160920, Note_on_c, 2, 74, 80
9, 160920, Note_on_c, 2, 62, 80
9, 161024, Note_on_c, 2, 74, 0
9, 161024, Note_on_c, 2, 62, 0
9, 161040, Note_on_c, 2, 62, 80
9, 161040, Note_on_c, 2, 74, 80
9, 161279, Note_on_c, 2, 62, 0
9, 161279, Note_on_c, 2, 74, 0
9, 161280, Note_on_c, 2, 69, 80
9, 161280, Note_on_c, 2, 81, 80
9, 161399, Note_on_c, 2, 69, 0
9, 161399, Note_on_c, 2, 81, 0
9, 161400, Note_on_c, 2, 66, 80
9, 161400, Note_on_c, 2, 78, 80
9, 161504, Note_on_c, 2, 66, 0
9, 161504, Note_on_c, 2, 78, 0
9, 161520, Note_on_c, 2, 78, 80
9, 161520, Note_on_c, 2, 71, 80
9, 161879, Note_on_c, 2, 78, 0
9, 161880, Note_on_c, 2, 76, 80
9, 161984, Note_on_c, 2, 71, 0
9, 161984, Note_on_c, 2, 76, 0
9, 162000, Note_on_c, 2, 73, 80
9, 162000, Note_on_c, 2, 76, 80
9, 162224, Note_on_c, 2, 76, 0
9, 162240, Note_on_c, 2, 76, 80
9, 162464, Note_on_c, 2, 76, 0
9, 162480, Note_on_c, 2, 79, 80
9, 162839, Note_on_c, 2, 79, 0
9, 162840, Note_on_c, 2, 78, 80
9, 162944, Note_on_c, 2, 73, 0
9, 162944, Note_on_c, 2, 78, 0
9, 162960, Note_on_c, 2, 74, 80
9, 162960, Note_on_c, 2, 78, 80
9, 163184, Note_on_c, 2, 78, 0
9, 163200, Note_on_c, 2, 78, 80
9, 163424, Note_on_c, 2, 74, 0
9, 163424, Note_on_c, 2, 78, 0
9, 163440, Note_on_c, 2, 78, 80
9, 163440, Note_on_c, 2, 75, 80
9, 163664, Note_on_c, 2, 78, 0
9, 163664, Note_on_c, 2, 75, 0
9, 163680, Note_on_c, 2, 66, 80
9, 163680, Note_on_c, 2, 69, 80
9, 163799, Note_on_c, 2, 69, 0
9, 163800, Note_on_c, 2, 68, 80
9, 163904, Note_on_c, 2, 66, 0
9, 163904, Note_on_c, 2, 68, 0
9, 163920, Note_on_c, 2, 65, 80
9, 163920, Note_on_c, 2, 68, 80
9, 164144, Note_on_c, 2, 68, 0
9, 164160, Note_on_c, 2, 68, 80
9, 164384, Note_on_c, 2, 65, 0
9, 164384, Note_on_c, 2, 68, 0
9, 164400, Note_on_c, 2, 71, 80
9, 164400, Note_on_c, 2, 67, 80
9, 164759, Note_on_c, 2, 71, 0
9, 164760, Note_on_c, 2, 70, 80
9, 164864, Note_on_c, 2, 67, 0
9, 164864, Note_on_c, 2, 70, 0
9, 164880, Note_on_c, 2, 66, 80
9, 164880, Note_on_c, 2, 73, 80
9, 165104, Note_on_c, 2, 66, 0
9, 165120, Note_on_c, 2, 59, 80
9, 165239, Note_on_c, 2, 73, 0
9, 165240, Note_on_c, 2, 71, 80
9, 165344, Note_on_c, 2, 71, 0
9, 165360, Note_on_c, 2, 74, 80
9, 165584, Note_on_c, 2, 59, 0
9, 165600, Note_on_c, 2, 68, 80
9, 165719, Note_on_c, 2, 74, 0
9, 165719, Note_on_c, 2, 68, 0
9, 165720, Note_on_c, 2, 61, 80
9, 165720, Note_on_c, 2, 73, 80
9, 165824, Note_on_c, 2, 61, 0
9, 165824, Note_on_c, 2, 73, 0
9, 165840, Note_on_c, 2, 69, 80
9, 165840, Note_on_c, 2, 76, 80
9, 166199, Note_on_c, 2, 76, 0
9, 166200, Note_on_c, 2, 74, 80
9, 166304, Note_on_c, 2, 69, 0
9, 166304, Note_on_c, 2, 74, 0
9, 166320, Note_on_c, 2, 78, 80
9, 166320, Note_on_c, 2, 71, 80
9, 166679, Note_on_c, 2, 78, 0
9, 166680, Note_on_c, 2, 76, 80
9, 166784, Note_on_c, 2, 76, 0
9, 166800, Note_on_c, 2, 76, 80
9, 167024, Note_on_c, 2, 71, 0
9, 167040, Note_on_c, 2, 71, 80
9, 167159, Note_on_c, 2, 76, 0
9, 167160, Note_on_c, 2, 74, 80
9, 167264, Note_on_c, 2, 74, 0
9, 167280, Note_on_c, 2, 78, 80
9, 167504, Note_on_c, 2, 71, 0
9, 167520, Note_on_c, 2, 71, 80
9, 167639, Note_on_c, 2, 78, 0
9, 167639, Note_on_c, 2, 71, 0
9, 167640, Note_on_c, 2, 76, 80
9, 167640, Note_on_c, 2, 71, 80
9, 167879, Note_on_c, 2, 76, 0
9, 167879, Note_on_c, 2, 71, 0
9, 167880, Note_on_c, 2, 64, 80
9, 167880, Note_on_c, 2, 74, 80
9, 167999, Note_on_c, 2, 64, 0
9, 167999, Note_on_c, 2, 74, 0
9, 168000, Note_on_c, 2, 71, 80
9, 168119, Note_on_c, 2, 71, 0
9, 168120, Note_on_c, 2, 76, 80
9, 168120, Note_on_c, 2, 64, 80
9, 168479, Note_on_c, 2, 76, 0
9, 168479, Note_on_c, 2, 64, 0
9, 168480, Note_on_c, 2, 73, 80
9, 168480, Note_on_c, 2, 61, 80
9, 168719, Note_on_c, 2, 73, 0
9, 168719, Note_on_c, 2, 61, 0
9, 168720, Note_on_c, 2, 69, 80
9, 168720, Note_on_c, 2, 57, 80
9, 168959, Note_on_c, 2, 69, 0
9, 168959, Note_on_c, 2, 57, 0
9, 168960, Note_on_c, 2, 78, 80
9, 168960, Note_on_c, 2, 66, 80
9, 169184, Note_on_c, 2, 78, 0
9, 169184, Note_on_c, 2, 66, 0
9, 169200, Note_on_c, 2, 64, 80
9, 169200, Note_on_c, 2, 76, 80
9, 169424, Note_on_c, 2, 64, 0
9, 169424, Note_on_c, 2, 76, 0
9, 169440, Note_on_c, 2, 81, 80
9, 169440, Note_on_c, 2, 69, 80
9, 169904, Note_on_c, 2, 81, 0
9, 169904, Note_on_c, 2, 69, 0
9, 169920, Note_on_c, 2, 68, 80
9, 169920, Note_on_c, 2, 80, 80
9, 170144, Note_on_c, 2, 68, 0
9, 170144, Note_on_c, 2, 80, 0
9, 170160, Note_on_c, 2, 81, 80
9, 170160, Note_on_c, 2, 69, 80
9, 170249, Note_on_c, 2, 81, 0
9, 170249, Note_on_c, 2, 69, 0
9, 170280, Note_on_c, 2, 69, 80
9, 170280, Note_on_c, 2, 57, 80
9, 170339, Note_on_c, 2, 69, 0
9, 170339, Note_on_c, 2, 57, 0
9, 170340, Note_on_c, 2, 71, 80
9, 170340, Note_on_c, 2, 59, 80
9, 170391, Note_on_c, 2, 71, 0
9, 170391, Note_on_c, 2, 59, 0
9, 170400, Note_on_c, 2, 61, 80
9, 170400, Note_on_c, 2, 73, 80
9, 170489, Note_on_c, 2, 61, 0
9, 170489, Note_on_c, 2, 73, 0
9, 170520, Note_on_c, 2, 73, 80
9, 170520, Note_on_c, 2, 61, 80
9, 170579, Note_on_c, 2, 73, 0
9, 170579, Note_on_c, 2, 61, 0
9, 170580, Note_on_c, 2, 62, 80
9, 170580, Note_on_c, 2, 74, 80
9, 170631, Note_on_c, 2, 62, 0
9, 170631, Note_on_c, 2, 74, 0
9, 170640, Note_on_c, 2, 76, 80
9, 170640, Note_on_c, 2, 64, 80
9, 170729, Note_on_c, 2, 76, 0
9, 170729, Note_on_c, 2, 64, 0
9, 170760, Note_on_c, 2, 76, 80
9, 170760, Note_on_c, 2, 64, 80
9, 170819, Note_on_c, 2, 76, 0
9, 170819, Note_on_c, 2, 64, 0
9, 170820, Note_on_c, 2, 66, 80
9, 170820, Note_on_c, 2, 78, 80
9, 170871, Note_on_c, 2, 66, 0
9, 170871, Note_on_c, 2, 78, 0
9, 170880, Note_on_c, 2, 80, 80
9, 170880, Note_on_c, 2, 68, 80
9, 170969, Note_on_c, 2, 80, 0
9, 170969, Note_on_c, 2, 68, 0
9, 171000, Note_on_c, 2, 76, 80
9, 171000, Note_on_c, 2, 64, 80
9, 171039, Note_on_c, 2, 76, 0
9, 171039, Note_on_c, 2, 64, 0
9, 171040, Note_on_c, 2, 78, 80
9, 171040, Note_on_c, 2, 66, 80
9, 171079, Note_on_c, 2, 78, 0
9, 171079, Note_on_c, 2, 66, 0
9, 171080, Note_on_c, 2, 68, 80
9, 171080, Note_on_c, 2, 80, 80
9, 171113, Note_on_c, 2, 68, 0
9, 171113, Note_on_c, 2, 80, 0
9, 171120, Note_on_c, 2, 81, 92
9, 171120, Note_on_c, 2, 69, 92
9, 171180, Control_c, 2, 11, 107
9, 171584, Note_on_c, 2, 81, 0
9, 171584, Note_on_c, 2, 69, 0
9, 171598, Control_c, 2, 11, 127
9, 171600, Note_on_c, 2, 64, 80
9, 171600, Note_on_c, 2, 76, 80
9, 171779, Note_on_c, 2, 64, 0
9, 171779, Note_on_c, 2, 76, 0
9, 171840, Note_on_c, 2, 76, 80
9, 171840, Note_on_c, 2, 64, 80
9, 172019, Note_on_c, 2, 76, 0
9, 172019, Note_on_c, 2, 64, 0
9, 174840, Note_on_c, 2, 76, 80
9, 174840, Note_on_c, 2, 64, 80
9, 175079, Note_on_c, 2, 76, 0
9, 175079, Note_on_c, 2, 64, 0
9, 175080, Note_on_c, 2, 73, 80
9, 175080, Note_on_c, 2, 61, 80
9, 175184, Note_on_c, 2, 73, 0
9, 175184, Note_on_c, 2, 61, 0
9, 175200, Note_on_c, 2, 69, 80
9, 175200, Note_on_c, 2, 57, 80
9, 175289, Note_on_c, 2, 69, 0
9, 175289, Note_on_c, 2, 57, 0
9, 175320, Note_on_c, 2, 71, 80
9, 175320, Note_on_c, 2, 59, 80
9, 175409, Note_on_c, 2, 71, 0
9, 175409, Note_on_c, 2, 59, 0
9, 175440, Note_on_c, 2, 73, 80
9, 175440, Note_on_c, 2, 69, 80
9, 175679, Note_on_c, 2, 73, 0
9, 175679, Note_on_c, 2, 69, 0
9, 175680, Note_on_c, 2, 71, 80
9, 175680, Note_on_c, 2, 68, 80
9, 175919, Note_on_c, 2, 71, 0
9, 175919, Note_on_c, 2, 68, 0
9, 176160, Note_on_c, 2, 80, 80
9, 176160, Note_on_c, 2, 71, 80
9, 176339, Note_on_c, 2, 80, 0
9, 176339, Note_on_c, 2, 71, 0
9, 176640, Note_on_c, 2, 73, 80
9, 176640, Note_on_c, 2, 81, 80
9, 176819, Note_on_c, 2, 73, 0
9, 176819, Note_on_c, 2, 81, 0
9, 177360, Note_on_c, 2, 70, 92
9, 177939, Note_on_c, 2, 70, 0
9, 177960, Note_on_c, 2, 69, 92
9, 178049, Note_on_c, 2, 69, 0
9, 178080, Note_on_c, 2, 69, 92
9, 178169, Note_on_c, 2, 69, 0
9, 178200, Note_on_c, 2, 74, 92
9, 178289, Note_on_c, 2, 74, 0
9, 178320, Note_on_c, 2, 74, 92
9, 178409, Note_on_c, 2, 74, 0
9, 178440, Note_on_c, 2, 65, 92
9, 178440, Note_on_c, 2, 77, 92
9, 178529, Note_on_c, 2, 65, 0
9, 178529, Note_on_c, 2, 77, 0
9, 178560, Note_on_c, 2, 77, 92
9, 178560, Note_on_c, 2, 65, 92
9, 178649, Note_on_c, 2, 77, 0
9, 178649, Note_on_c, 2, 65, 0
9, 178680, Note_on_c, 2, 81, 92
9, 178680, Note_on_c, 2, 69, 92
9, 178769, Note_on_c, 2, 81, 0
9, 178769, Note_on_c, 2, 69, 0
9, 178800, Note_on_c, 2, 69, 92
9, 178800, Note_on_c, 2, 81, 92
9, 178889, Note_on_c, 2, 69, 0
9, 178889, Note_on_c, 2, 81, 0
9, 178920, Note_on_c, 2, 74, 92
9, 178920, Note_on_c, 2, 62, 92
9, 179009, Note_on_c, 2, 74, 0
9, 179009, Note_on_c, 2, 62, 0
9, 179040, Note_on_c, 2, 62, 92
9, 179040, Note_on_c, 2, 74, 92
9, 179129, Note_on_c, 2, 62, 0
9, 179129, Note_on_c, 2, 74, 0
9, 179160, Note_on_c, 2, 77, 92
9, 179249, Note_on_c, 2, 77, 0
9, 179280, Note_on_c, 2, 77, 92
9, 179369, Note_on_c, 2, 77, 0
9, 179400, Note_on_c, 2, 69, 92
9, 179489, Note_on_c, 2, 69, 0
9, 179520, Note_on_c, 2, 69, 92
9, 179609, Note_on_c, 2, 69, 0
9, 179640, Note_on_c, 2, 74, 92
9, 179729, Note_on_c, 2, 74, 0
9, 179760, Note_on_c, 2, 74, 92
9, 179849, Note_on_c, 2, 74, 0
9, 179880, Note_on_c, 2, 65, 92
9, 179969, Note_on_c, 2, 65, 0
9, 180000, Note_on_c, 2, 65, 92
9, 180089, Note_on_c, 2, 65, 0
9, 180120, Note_on_c, 2, 69, 92
9, 180209, Note_on_c, 2, 69, 0
9, 180240, Note_on_c, 2, 69, 92
9, 180329, Note_on_c, 2, 69, 0
9, 180360, Note_on_c, 2, 62, 92
9, 180449, Note_on_c, 2, 62, 0
9, 180480, Note_on_c, 2, 62, 92
9, 180569, Note_on_c, 2, 62, 0
9, 180600, Note_on_c, 2, 65, 92
9, 180600, Note_on_c, 2, 77, 92
9, 180689, Note_on_c, 2, 65, 0
9, 180689, Note_on_c, 2, 77, 0
9, 180720, Note_on_c, 2, 77, 92
9, 180720, Note_on_c, 2, 65, 92
9, 180809, Note_on_c, 2, 77, 0
9, 180809, Note_on_c, 2, 65, 0
9, 180840, Note_on_c, 2, 78, 92
9, 180840, Note_on_c, 2, 66, 92
9, 180929, Note_on_c, 2, 78, 0
9, 180929, Note_on_c, 2, 66, 0
9, 180960, Note_on_c, 2, 78, 92
9, 180960, Note_on_c, 2, 66, 92
9, 181049, Note_on_c, 2, 78, 0
9, 181049, Note_on_c, 2, 66, 0
9, 181080, Note_on_c, 2, 79, 92
9, 181080, Note_on_c, 2, 67, 92
9, 181169, Note_on_c, 2, 79, 0
9, 181169, Note_on_c, 2, 67, 0
9, 181200, Note_on_c, 2, 79, 92
9, 181200, Note_on_c, 2, 67, 92
9, 181289, Note_on_c, 2, 79, 0
9, 181289, Note_on_c, 2, 67, 0
9, 181320, Note_on_c, 2, 68, 92
9, 181320, Note_on_c, 2, 80, 92
9, 181409, Note_on_c, 2, 68, 0
9, 181409, Note_on_c, 2, 80, 0
9, 181440, Note_on_c, 2, 80, 92
9, 181440, Note_on_c, 2, 68, 92
9, 181529, Note_on_c, 2, 80, 0
9, 181529, Note_on_c, 2, 68, 0
9, 181560, Note_on_c, 2, 74, 92
9, 181560, Note_on_c, 2, 62, 92
9, 181649, Note_on_c, 2, 74, 0
9, 181649, Note_on_c, 2, 62, 0
9, 181680, Note_on_c, 2, 74, 92
9, 181680, Note_on_c, 2, 62, 92
9, 181769, Note_on_c, 2, 74, 0
9, 181769, Note_on_c, 2, 62, 0
9, 181800, Note_on_c, 2, 77, 92
9, 181800, Note_on_c, 2, 65, 92
9, 181889, Note_on_c, 2, 77, 0
9, 181889, Note_on_c, 2, 65, 0
9, 181920, Note_on_c, 2, 74, 92
9, 181920, Note_on_c, 2, 77, 92
9, 182099, Note_on_c, 2, 74, 0
9, 182099, Note_on_c, 2, 77, 0
9, 182160, Note_on_c, 2, 81, 92
9, 182160, Note_on_c, 2, 69, 92
9, 182339, Note_on_c, 2, 81, 0
9, 182339, Note_on_c, 2, 69, 0
9, 192480, Note_on_c, 2, 69, 80
9, 192480, Note_on_c, 2, 73, 80
9, 192659, Note_on_c, 2, 69, 0
9, 192659, Note_on_c, 2, 73, 0
9, 192720, Note_on_c, 2, 74, 80
9, 192720, Note_on_c, 2, 69, 80
9, 192824, Note_on_c, 2, 74, 0
9, 192824, Note_on_c, 2, 69, 0
9, 192840, Note_on_c, 2, 78, 80
9, 192840, Note_on_c, 2, 74, 80
9, 192944, Note_on_c, 2, 78, 0
9, 192944, Note_on_c, 2, 74, 0
9, 192960, Note_on_c, 2, 74, 80
9, 192960, Note_on_c, 2, 81, 80
9, 193199, Note_on_c, 2, 74, 0
9, 193199, Note_on_c, 2, 81, 0
9, 195840, Note_on_c, 2, 67, 44
9, 195840, Note_on_c, 2, 71, 44
9, 195959, Note_on_c, 2, 67, 0
9, 195959, Note_on_c, 2, 71, 0
9, 196080, Note_on_c, 2, 74, 80
9, 196080, Note_on_c, 2, 71, 80
9, 196199, Note_on_c, 2, 74, 0
9, 196199, Note_on_c, 2, 71, 0
9, 197520, Note_on_c, 2, 73, 80
9, 197520, Note_on_c, 2, 64, 80
9, 197699, Note_on_c, 2, 73, 0
9, 197699, Note_on_c, 2, 64, 0
9, 197760, Note_on_c, 2, 64, 38
9, 197984, Note_on_c, 2, 64, 0
9, 198000, Note_on_c, 2, 64, 38
9, 198239, Note_on_c, 2, 64, 0
9, 198240, Note_on_c, 2, 66, 38
9, 198479, Note_on_c, 2, 66, 0
9, 198480, Note_on_c, 2, 67, 38
9, 198704, Note_on_c, 2, 67, 0
9, 198720, Note_on_c, 2, 67, 38
9, 198959, Note_on_c, 2, 67, 0
9, 198960, Note_on_c, 2, 66, 38
9, 199199, Note_on_c, 2, 66, 0
9, 199200, Note_on_c, 2, 64, 38
9, 199439, Note_on_c, 2, 64, 0
9, 199440, Note_on_c, 2, 62, 38
9, 199664, Note_on_c, 2, 62, 0
9, 199680, Note_on_c, 2, 73, 38
9, 199904, Note_on_c, 2, 73, 0
9, 199920, Note_on_c, 2, 73, 38
9, 200159, Note_on_c, 2, 73, 0
9, 200160, Note_on_c, 2, 74, 38
9, 200399, Note_on_c, 2, 74, 0
9, 200400, Note_on_c, 2, 76, 38
9, 200624, Note_on_c, 2, 76, 0
9, 200640, Note_on_c, 2, 76, 38
9, 200879, Note_on_c, 2, 76, 0
9, 200880, Note_on_c, 2, 74, 38
9, 201119, Note_on_c, 2, 74, 0
9, 201120, Note_on_c, 2, 67, 38
9, 201359, Note_on_c, 2, 67, 0
9, 201360, Note_on_c, 2, 66, 38
9, 201599, Note_on_c, 2, 66, 0
9, 202080, Note_on_c, 2, 69, 32
9, 203279, Note_on_c, 2, 69, 0
9, 203280, Note_on_c, 2, 67, 32
9, 203519, Note_on_c, 2, 67, 0
9, 203520, Note_on_c, 2, 66, 32
9, 203744, Note_on_c, 2, 66, 0
9, 203760, Note_on_c, 2, 66, 32
9, 203999, Note_on_c, 2, 66, 0
9, 204000, Note_on_c, 2, 67, 32
9, 204239, Note_on_c, 2, 67, 0
9, 204240, Note_on_c, 2, 69, 32
9, 204464, Note_on_c, 2, 69, 0
9, 204480, Note_on_c, 2, 69, 32
9, 204839, Note_on_c, 2, 69, 0
9, 204840, Note_on_c, 2, 67, 32
9, 204944, Note_on_c, 2, 67, 0
9, 204960, Note_on_c, 2, 67, 32
9, 205199, Note_on_c, 2, 67, 0
9, 205200, Note_on_c, 2, 79, 44
9, 205319, Note_on_c, 2, 79, 0
9, 205320, Note_on_c, 2, 73, 44
9, 205439, Note_on_c, 2, 73, 0
9, 205440, Note_on_c, 2, 74, 44
9, 205679, Note_on_c, 2, 74, 0
9, 205800, Note_on_c, 2, 74, 44
9, 205904, Note_on_c, 2, 74, 0
9, 205920, Note_on_c, 2, 69, 44
9, 206159, Note_on_c, 2, 69, 0
9, 206280, Note_on_c, 2, 69, 44
9, 206384, Note_on_c, 2, 69, 0
9, 206400, Note_on_c, 2, 71, 44
9, 206639, Note_on_c, 2, 71, 0
9, 206760, Note_on_c, 2, 71, 44
9, 206864, Note_on_c, 2, 71, 0
9, 206880, Note_on_c, 2, 71, 44
9, 207119, Note_on_c, 2, 71, 0
9, 207240, Note_on_c, 2, 73, 44
9, 207344, Note_on_c, 2, 73, 0
9, 207360, Note_on_c, 2, 74, 44
9, 207599, Note_on_c, 2, 74, 0
9, 207720, Note_on_c, 2, 66, 44
9, 207824, Note_on_c, 2, 66, 0
9, 207840, Note_on_c, 2, 67, 44
9, 208079, Note_on_c, 2, 67, 0
9, 208200, Note_on_c, 2, 69, 44
9, 208304, Note_on_c, 2, 69, 0
9, 208320, Note_on_c, 2, 67, 44
9, 208559, Note_on_c, 2, 67, 0
9, 208680, Note_on_c, 2, 66, 44
9, 208784, Note_on_c, 2, 66, 0
9, 208800, Note_on_c, 2, 66, 44
9, 208904, Note_on_c, 2, 66, 0
9, 208920, Note_on_c, 2, 66, 44
9, 209039, Note_on_c, 2, 66, 0
9, 209040, Note_on_c, 2, 64, 44
9, 209159, Note_on_c, 2, 64, 0
9, 209160, Note_on_c, 2, 62, 44
9, 209264, Note_on_c, 2, 62, 0
9, 209280, Note_on_c, 2, 61, 44
9, 209519, Note_on_c, 2, 61, 0
9, 209640, Note_on_c, 2, 69, 44
9, 209744, Note_on_c, 2, 69, 0
9, 209760, Note_on_c, 2, 69, 44
9, 209999, Note_on_c, 2, 69, 0
9, 210120, Note_on_c, 2, 69, 44
9, 210224, Note_on_c, 2, 69, 0
9, 210240, Note_on_c, 2, 69, 44
9, 210479, Note_on_c, 2, 69, 0
9, 210600, Note_on_c, 2, 69, 44
9, 210704, Note_on_c, 2, 69, 0
9, 210720, Note_on_c, 2, 69, 44
9, 210959, Note_on_c, 2, 69, 0
9, 211080, Note_on_c, 2, 69, 44
9, 211184, Note_on_c, 2, 69, 0
9, 211200, Note_on_c, 2, 69, 44
9, 211439, Note_on_c, 2, 69, 0
9, 211440, Control_c, 2, 11, 89
9, 211560, Note_on_c, 2, 69, 68
9, 211664, Note_on_c, 2, 69, 0
9, 211680, Note_on_c, 2, 69, 68
9, 211919, Note_on_c, 2, 69, 0
9, 212040, Note_on_c, 2, 67, 68
9, 212160, Control_c, 2, 11, 89
9, 212236, Control_c, 2, 11, 90
9, 212279, Note_on_c, 2, 67, 0
9, 212280, Note_on_c, 2, 66, 68
9, 212312, Control_c, 2, 11, 91
9, 212387, Control_c, 2, 11, 92
9, 212399, Note_on_c, 2, 66, 0
9, 212400, Note_on_c, 2, 67, 68
9, 212463, Control_c, 2, 11, 93
9, 212519, Note_on_c, 2, 67, 0
9, 212520, Note_on_c, 2, 64, 68
9, 212539, Control_c, 2, 11, 94
9, 212615, Control_c, 2, 11, 95
9, 212639, Note_on_c, 2, 64, 0
9, 212640, Note_on_c, 2, 62, 68
9, 212691, Control_c, 2, 11, 96
9, 212759, Note_on_c, 2, 62, 0
9, 212760, Note_on_c, 2, 61, 68
9, 212766, Control_c, 2, 11, 97
9, 212842, Control_c, 2, 11, 98
9, 212879, Note_on_c, 2, 61, 0
9, 212880, Note_on_c, 2, 64, 68
9, 212918, Control_c, 2, 11, 99
9, 212994, Control_c, 2, 11, 100
9, 212999, Note_on_c, 2, 64, 0
9, 213000, Note_on_c, 2, 62, 68
9, 213069, Control_c, 2, 11, 101
9, 213104, Note_on_c, 2, 62, 0
9, 213120, Note_on_c, 2, 74, 68
9, 213145, Control_c, 2, 11, 102
9, 213221, Control_c, 2, 11, 103
9, 213297, Control_c, 2, 11, 104
9, 213359, Note_on_c, 2, 74, 0
9, 213360, Note_on_c, 2, 75, 68
9, 213373, Control_c, 2, 11, 105
9, 213448, Control_c, 2, 11, 106
9, 213524, Control_c, 2, 11, 107
9, 213599, Note_on_c, 2, 75, 0
9, 213600, Control_c, 2, 11, 108
9, 213600, Note_on_c, 2, 76, 68
9, 213676, Control_c, 2, 11, 109
9, 213752, Control_c, 2, 11, 110
9, 213827, Control_c, 2, 11, 111
9, 213839, Note_on_c, 2, 76, 0
9, 213840, Note_on_c, 2, 78, 68
9, 213903, Control_c, 2, 11, 112
9, 213979, Control_c, 2, 11, 113
9, 214055, Control_c, 2, 11, 114
9, 214064, Note_on_c, 2, 78, 0
9, 214080, Note_on_c, 2, 78, 68
9, 214131, Control_c, 2, 11, 115
9, 214206, Control_c, 2, 11, 116
9, 214282, Control_c, 2, 11, 117
9, 214319, Note_on_c, 2, 78, 0
9, 214320, Note_on_c, 2, 76, 68
9, 214358, Control_c, 2, 11, 118
9, 214434, Control_c, 2, 11, 119
9, 214509, Control_c, 2, 11, 120
9, 214559, Note_on_c, 2, 76, 0
9, 214560, Note_on_c, 2, 69, 68
9, 214585, Control_c, 2, 11, 121
9, 214661, Control_c, 2, 11, 122
9, 214737, Control_c, 2, 11, 123
9, 214799, Note_on_c, 2, 69, 0
9, 214800, Note_on_c, 2, 71, 68
9, 214813, Control_c, 2, 11, 124
9, 214888, Control_c, 2, 11, 125
9, 214919, Note_on_c, 2, 71, 0
9, 214920, Note_on_c, 2, 69, 68
9, 214964, Control_c, 2, 11, 127
9, 215024, Note_on_c, 2, 69, 0
9, 215040, Note_on_c, 2, 66, 44
9, 215279, Note_on_c, 2, 66, 0
9, 215400, Note_on_c, 2, 66, 44
9, 215504, Note_on_c, 2, 66, 0
9, 215520, Note_on_c, 2, 67, 44
9, 215639, Note_on_c, 2, 67, 0
9, 215760, Note_on_c, 2, 69, 44
9, 215879, Note_on_c, 2, 69, 0
9, 215880, Note_on_c, 2, 62, 44
9, 215984, Note_on_c, 2, 62, 0
9, 216000, Note_on_c, 2, 61, 44
9, 216239, Note_on_c, 2, 61, 0
9, 216240, Note_on_c, 2, 73, 44
9, 216359, Note_on_c, 2, 73, 0
9, 216360, Note_on_c, 2, 74, 44
9, 216464, Note_on_c, 2, 74, 0
9, 216480, Note_on_c, 2, 74, 44
9, 216584, Note_on_c, 2, 74, 0
9, 216600, Note_on_c, 2, 62, 53
9, 216600, Note_on_c, 2, 74, 53
9, 216719, Note_on_c, 2, 62, 0
9, 216719, Note_on_c, 2, 74, 0
9, 216720, Note_on_c, 2, 76, 62
9, 216720, Note_on_c, 2, 64, 62
9, 216839, Note_on_c, 2, 76, 0
9, 216839, Note_on_c, 2, 64, 0
9, 216840, Note_on_c, 2, 66, 71
9, 216840, Note_on_c, 2, 78, 71
9, 216944, Note_on_c, 2, 66, 0
9, 216944, Note_on_c, 2, 78, 0
9, 216960, Note_on_c, 2, 79, 80
9, 216960, Note_on_c, 2, 67, 80
9, 217199, Note_on_c, 2, 79, 0
9, 217199, Note_on_c, 2, 67, 0
9, 217200, Note_on_c, 2, 61, 80
9, 217200, Note_on_c, 2, 73, 80
9, 217439, Note_on_c, 2, 61, 0
9, 217439, Note_on_c, 2, 73, 0
9, 217440, Note_on_c, 2, 74, 80
9, 217440, Note_on_c, 2, 62, 80
9, 217679, Note_on_c, 2, 74, 0
9, 217679, Note_on_c, 2, 62, 0
9, 217680, Note_on_c, 2, 64, 80
9, 217680, Note_on_c, 2, 76, 80
9, 217799, Note_on_c, 2, 64, 0
9, 217799, Note_on_c, 2, 76, 0
9, 217800, Note_on_c, 2, 66, 80
9, 217800, Note_on_c, 2, 78, 80
9, 217904, Note_on_c, 2, 66, 0
9, 217904, Note_on_c, 2, 78, 0
9, 217920, Note_on_c, 2, 67, 80
9, 217920, Note_on_c, 2, 79, 80
9, 218159, Note_on_c, 2, 67, 0
9, 218159, Note_on_c, 2, 79, 0
9, 218160, Note_on_c, 2, 73, 80
9, 218160, Note_on_c, 2, 61, 80
9, 218399, Note_on_c, 2, 73, 0
9, 218399, Note_on_c, 2, 61, 0
9, 218400, Note_on_c, 2, 62, 80
9, 218400, Note_on_c, 2, 74, 80
9, 218639, Note_on_c, 2, 62, 0
9, 218639, Note_on_c, 2, 74, 0
9, 218640, Note_on_c, 2, 64, 80
9, 218640, Note_on_c, 2, 76, 80
9, 218759, Note_on_c, 2, 64, 0
9, 218759, Note_on_c, 2, 76, 0
9, 218760, Note_on_c, 2, 66, 80
9, 218760, Note_on_c, 2, 78, 80
9, 218864, Note_on_c, 2, 66, 0
9, 218864, Note_on_c, 2, 78, 0
9, 218880, Note_on_c, 2, 67, 80
9, 218880, Note_on_c, 2, 79, 80
9, 218999, Note_on_c, 2, 67, 0
9, 218999, Note_on_c, 2, 79, 0
9, 219000, Note_on_c, 2, 61, 80
9, 219000, Note_on_c, 2, 73, 80
9, 219119, Note_on_c, 2, 61, 0
9, 219119, Note_on_c, 2, 73, 0
9, 219120, Note_on_c, 2, 62, 80
9, 219120, Note_on_c, 2, 74, 80
9, 219239, Note_on_c, 2, 62, 0
9, 219239, Note_on_c, 2, 74, 0
9, 219240, Note_on_c, 2, 76, 80
9, 219240, Note_on_c, 2, 64, 80
9, 219359, Note_on_c, 2, 76, 0
9, 219359, Note_on_c, 2, 64, 0
9, 219360, Note_on_c, 2, 62, 80
9, 219360, Note_on_c, 2, 74, 80
9, 219479, Note_on_c, 2, 62, 0
9, 219479, Note_on_c, 2, 74, 0
9, 219480, Note_on_c, 2, 76, 80
9, 219480, Note_on_c, 2, 64, 80
9, 219599, Note_on_c, 2, 76, 0
9, 219599, Note_on_c, 2, 64, 0
9, 219600, Note_on_c, 2, 78, 80
9, 219600, Note_on_c, 2, 66, 80
9, 219719, Note_on_c, 2, 78, 0
9, 219719, Note_on_c, 2, 66, 0
9, 219720, Note_on_c, 2, 67, 80
9, 219720, Note_on_c, 2, 79, 80
9, 219959, Note_on_c, 2, 67, 0
9, 219959, Note_on_c, 2, 79, 0
9, 219960, Note_on_c, 2, 78, 80
9, 219960, Note_on_c, 2, 66, 80
9, 220079, Note_on_c, 2, 78, 0
9, 220079, Note_on_c, 2, 66, 0
9, 220080, Note_on_c, 2, 79, 80
9, 220080, Note_on_c, 2, 67, 80
9, 220199, Note_on_c, 2, 79, 0
9, 220199, Note_on_c, 2, 67, 0
9, 220200, Note_on_c, 2, 76, 80
9, 220200, Note_on_c, 2, 64, 80
9, 220319, Note_on_c, 2, 76, 0
9, 220319, Note_on_c, 2, 64, 0
9, 220320, Note_on_c, 2, 62, 80
9, 220320, Note_on_c, 2, 74, 80
9, 220439, Note_on_c, 2, 62, 0
9, 220439, Note_on_c, 2, 74, 0
9, 220440, Note_on_c, 2, 61, 80
9, 220440, Note_on_c, 2, 73, 80
9, 220559, Note_on_c, 2, 61, 0
9, 220559, Note_on_c, 2, 73, 0
9, 220560, Note_on_c, 2, 64, 80
9, 220560, Note_on_c, 2, 76, 80
9, 220679, Note_on_c, 2, 64, 0
9, 220679, Note_on_c, 2, 76, 0
9, 220680, Note_on_c, 2, 74, 80
9, 220680, Note_on_c, 2, 62, 80
9, 220784, Note_on_c, 2, 74, 0
9, 220784, Note_on_c, 2, 62, 0
9, 220800, Note_on_c, 2, 74, 80
9, 220800, Note_on_c, 2, 62, 80
9, 221039, Note_on_c, 2, 74, 0
9, 221039, Note_on_c, 2, 62, 0
9, 221040, Note_on_c, 2, 63, 80
9, 221040, Note_on_c, 2, 75, 80
9, 221279, Note_on_c, 2, 63, 0
9, 221279, Note_on_c, 2, 75, 0
9, 221280, Note_on_c, 2, 64, 80
9, 221280, Note_on_c, 2, 76, 80
9, 221519, Note_on_c, 2, 64, 0
9, 221519, Note_on_c, 2, 76, 0
9, 221520, Note_on_c, 2, 66, 80
9, 221520, Note_on_c, 2, 78, 80
9, 221744, Note_on_c, 2, 66, 0
9, 221744, Note_on_c, 2, 78, 0
9, 221760, Note_on_c, 2, 66, 80
9, 221760, Note_on_c, 2, 78, 80
9, 221999, Note_on_c, 2, 66, 0
9, 221999, Note_on_c, 2, 78, 0
9, 222000, Note_on_c, 2, 76, 80
9, 222000, Note_on_c, 2, 64, 80
9, 222239, Note_on_c, 2, 76, 0
9, 222239, Note_on_c, 2, 64, 0
9, 222240, Note_on_c, 2, 69, 80
9, 222240, Note_on_c, 2, 81, 80
9, 222359, Note_on_c, 2, 69, 0
9, 222359, Note_on_c, 2, 81, 0
9, 222360, Note_on_c, 2, 57, 80
9, 222360, Note_on_c, 2, 69, 80
9, 222479, Note_on_c, 2, 57, 0
9, 222479, Note_on_c, 2, 69, 0
9, 222480, Note_on_c, 2, 59, 80
9, 222480, Note_on_c, 2, 71, 80
9, 222599, Note_on_c, 2, 59, 0
9, 222599, Note_on_c, 2, 71, 0
9, 222600, Note_on_c, 2, 55, 80
9, 222600, Note_on_c, 2, 67, 80
9, 222704, Note_on_c, 2, 55, 0
9, 222704, Note_on_c, 2, 67, 0
9, 222720, Note_on_c, 2, 66, 80
9, 222720, Note_on_c, 2, 54, 80
9, 222824, Note_on_c, 2, 66, 0
9, 222824, Note_on_c, 2, 54, 0
9, 222840, Note_on_c, 2, 81, 80
9, 222840, Note_on_c, 2, 69, 80
9, 222959, Note_on_c, 2, 81, 0
9, 222959, Note_on_c, 2, 69, 0
9, 222960, Note_on_c, 2, 83, 80
9, 222960, Note_on_c, 2, 71, 80
9, 223079, Note_on_c, 2, 83, 0
9, 223079, Note_on_c, 2, 71, 0
9, 223080, Note_on_c, 2, 69, 80
9, 223080, Note_on_c, 2, 81, 80
9, 223199, Note_on_c, 2, 69, 0
9, 223199, Note_on_c, 2, 81, 0
9, 223200, Note_on_c, 2, 79, 80
9, 223200, Note_on_c, 2, 67, 80
9, 223319, Note_on_c, 2, 79, 0
9, 223319, Note_on_c, 2, 67, 0
9, 223320, Note_on_c, 2, 78, 80
9, 223320, Note_on_c, 2, 66, 80
9, 223439, Note_on_c, 2, 78, 0
9, 223439, Note_on_c, 2, 66, 0
9, 223440, Note_on_c, 2, 64, 80
9, 223440, Note_on_c, 2, 76, 80
9, 223559, Note_on_c, 2, 64, 0
9, 223559, Note_on_c, 2, 76, 0
9, 223560, Note_on_c, 2, 62, 80
9, 223560, Note_on_c, 2, 74, 80
9, 223664, Note_on_c, 2, 62, 0
9, 223664, Note_on_c, 2, 74, 0
9, 223680, Note_on_c, 2, 79, 80
9, 223680, Note_on_c, 2, 67, 80
9, 223919, Note_on_c, 2, 79, 0
9, 223919, Note_on_c, 2, 67, 0
9, 223920, Note_on_c, 2, 67, 80
9, 223920, Note_on_c, 2, 61, 80
9, 224039, Note_on_c, 2, 67, 0
9, 224039, Note_on_c, 2, 61, 0
9, 224040, Note_on_c, 2, 66, 80
9, 224040, Note_on_c, 2, 62, 80
9, 224144, Note_on_c, 2, 66, 0
9, 224144, Note_on_c, 2, 62, 0
9, 224160, Note_on_c, 2, 62, 80
9, 224160, Note_on_c, 2, 66, 80
9, 224399, Note_on_c, 2, 62, 0
9, 224399, Note_on_c, 2, 66, 0
9, 224520, Note_on_c, 2, 66, 80
9, 224520, Note_on_c, 2, 62, 80
9, 224624, Note_on_c, 2, 66, 0
9, 224624, Note_on_c, 2, 62, 0
9, 224640, Note_on_c, 2, 64, 80
9, 224640, Note_on_c, 2, 73, 80
9, 224879, Note_on_c, 2, 64, 0
9, 224879, Note_on_c, 2, 73, 0
9, 225000, Note_on_c, 2, 74, 80
9, 225000, Note_on_c, 2, 66, 80
9, 225104, Note_on_c, 2, 74, 0
9, 225104, Note_on_c, 2, 66, 0
9, 225120, Note_on_c, 2, 66, 80
9, 225120, Note_on_c, 2, 74, 80
9, 225359, Note_on_c, 2, 66, 0
9, 225359, Note_on_c, 2, 74, 0
9, 225480, Note_on_c, 2, 62, 80
9, 225480, Note_on_c, 2, 66, 80
9, 225584, Note_on_c, 2, 62, 0
9, 225584, Note_on_c, 2, 66, 0
9, 225600, Note_on_c, 2, 62, 80
9, 225600, Note_on_c, 2, 66, 80
9, 225839, Note_on_c, 2, 62, 0
9, 225839, Note_on_c, 2, 66, 0
9, 225960, Note_on_c, 2, 62, 80
9, 225960, Note_on_c, 2, 67, 80
9, 226064, Note_on_c, 2, 62, 0
9, 226064, Note_on_c, 2, 67, 0
9, 226080, Note_on_c, 2, 62, 80
9, 226080, Note_on_c, 2, 67, 80
9, 226319, Note_on_c, 2, 62, 0
9, 226319, Note_on_c, 2, 67, 0
9, 226440, Note_on_c, 2, 67, 80
9, 226440, Note_on_c, 2, 64, 80
9, 226544, Note_on_c, 2, 67, 0
9, 226544, Note_on_c, 2, 64, 0
9, 226560, Note_on_c, 2, 64, 80
9, 226560, Note_on_c, 2, 67, 80
9, 226799, Note_on_c, 2, 64, 0
9, 226799, Note_on_c, 2, 67, 0
9, 226920, Note_on_c, 2, 67, 80
9, 226920, Note_on_c, 2, 64, 80
9, 227024, Note_on_c, 2, 67, 0
9, 227024, Note_on_c, 2, 64, 0
9, 227040, Note_on_c, 2, 67, 80
9, 227040, Note_on_c, 2, 64, 80
9, 227279, Note_on_c, 2, 67, 0
9, 227279, Note_on_c, 2, 64, 0
9, 227400, Note_on_c, 2, 64, 80
9, 227400, Note_on_c, 2, 67, 80
9, 227504, Note_on_c, 2, 64, 0
9, 227504, Note_on_c, 2, 67, 0
9, 227520, Note_on_c, 2, 62, 80
9, 227520, Note_on_c, 2, 66, 80
9, 227759, Note_on_c, 2, 62, 0
9, 227759, Note_on_c, 2, 66, 0
9, 227880, Note_on_c, 2, 69, 80
9, 227880, Note_on_c, 2, 81, 80
9, 227984, Note_on_c, 2, 69, 0
9, 227984, Note_on_c, 2, 81, 0
9, 228000, Note_on_c, 2, 74, 80
9, 228000, Note_on_c, 2, 62, 80
9, 228239, Note_on_c, 2, 74, 0
9, 228239, Note_on_c, 2, 62, 0
9, 243840, Note_on_c, 2, 73, 80
9, 243840, Note_on_c, 2, 76, 80
9, 244064, Note_on_c, 2, 73, 0
9, 244064, Note_on_c, 2, 76, 0
9, 244080, Note_on_c, 2, 76, 80
9, 244080, Note_on_c, 2, 73, 80
9, 244304, Note_on_c, 2, 76, 0
9, 244304, Note_on_c, 2, 73, 0
9, 244320, Note_on_c, 2, 74, 80
9, 244320, Note_on_c, 2, 78, 80
9, 244544, Note_on_c, 2, 74, 0
9, 244544, Note_on_c, 2, 78, 0
9, 244560, Note_on_c, 2, 74, 80
9, 244560, Note_on_c, 2, 66, 80
9, 244784, Note_on_c, 2, 74, 0
9, 244784, Note_on_c, 2, 66, 0
9, 244800, Note_on_c, 2, 73, 80
9, 244800, Note_on_c, 2, 76, 80
9, 245039, Note_on_c, 2, 73, 0
9, 245039, Note_on_c, 2, 76, 0
9, 245040, Note_on_c, 2, 74, 80
9, 245040, Note_on_c, 2, 78, 80
9, 245159, Note_on_c, 2, 74, 0
9, 245159, Note_on_c, 2, 78, 0
9, 245160, Note_on_c, 2, 79, 80
9, 245160, Note_on_c, 2, 76, 80
9, 245264, Note_on_c, 2, 79, 0
9, 245264, Note_on_c, 2, 76, 0
9, 245280, Note_on_c, 2, 78, 80
9, 245280, Note_on_c, 2, 74, 80
9, 245399, Note_on_c, 2, 78, 0
9, 245399, Note_on_c, 2, 74, 0
9, 245400, Note_on_c, 2, 66, 80
9, 245400, Note_on_c, 2, 69, 80
9, 245519, Note_on_c, 2, 66, 0
9, 245519, Note_on_c, 2, 69, 0
9, 245520, Note_on_c, 2, 64, 80
9, 245520, Note_on_c, 2, 67, 80
9, 245639, Note_on_c, 2, 64, 0
9, 245639, Note_on_c, 2, 67, 0
9, 245640, Note_on_c, 2, 66, 80
9, 245640, Note_on_c, 2, 62, 80
9, 245744, Note_on_c, 2, 66, 0
9, 245744, Note_on_c, 2, 62, 0
9, 245760, Note_on_c, 2, 61, 80
9, 245760, Note_on_c, 2, 64, 80
9, 245879, Note_on_c, 2, 61, 0
9, 245879, Note_on_c, 2, 64, 0
9, 245880, Note_on_c, 2, 76, 80
9, 245880, Note_on_c, 2, 73, 80
9, 245999, Note_on_c, 2, 76, 0
9, 245999, Note_on_c, 2, 73, 0
9, 246000, Note_on_c, 2, 78, 80
9, 246000, Note_on_c, 2, 74, 80
9, 246119, Note_on_c, 2, 78, 0
9, 246119, Note_on_c, 2, 74, 0
9, 246120, Note_on_c, 2, 76, 80
9, 246120, Note_on_c, 2, 79, 80
9, 246224, Note_on_c, 2, 76, 0
9, 246224, Note_on_c, 2, 79, 0
9, 246240, Note_on_c, 2, 73, 80
9, 246240, Note_on_c, 2, 78, 80
9, 246464, Note_on_c, 2, 73, 0
9, 246464, Note_on_c, 2, 78, 0
9, 246480, Note_on_c, 2, 76, 80
9, 246480, Note_on_c, 2, 73, 80
9, 246704, Note_on_c, 2, 76, 0
9, 246704, Note_on_c, 2, 73, 0
9, 246720, Note_on_c, 2, 71, 80
9, 246720, Note_on_c, 2, 74, 80
9, 246944, Note_on_c, 2, 71, 0
9, 246944, Note_on_c, 2, 74, 0
9, 246960, Note_on_c, 2, 68, 80
9, 246960, Note_on_c, 2, 76, 80
9, 247184, Note_on_c, 2, 68, 0
9, 247184, Note_on_c, 2, 76, 0
9, 247200, Note_on_c, 2, 69, 80
9, 247424, Note_on_c, 2, 69, 0
9, 247440, Note_on_c, 2, 78, 80
9, 247440, Note_on_c, 2, 74, 80
9, 247904, Note_on_c, 2, 78, 0
9, 247904, Note_on_c, 2, 74, 0
9, 247920, Note_on_c, 2, 74, 80
9, 247920, Note_on_c, 2, 78, 80
9, 248144, Note_on_c, 2, 74, 0
9, 248144, Note_on_c, 2, 78, 0
9, 248160, Note_on_c, 2, 79, 92
9, 248160, Note_on_c, 2, 76, 92
9, 248384, Note_on_c, 2, 79, 0
9, 248384, Note_on_c, 2, 76, 0
9, 248400, Note_on_c, 2, 81, 80
9, 248400, Note_on_c, 2, 78, 80
9, 248624, Note_on_c, 2, 81, 0
9, 248624, Note_on_c, 2, 78, 0
9, 248640, Note_on_c, 2, 81, 80
9, 248640, Note_on_c, 2, 78, 80
9, 248879, Note_on_c, 2, 81, 0
9, 248879, Note_on_c, 2, 78, 0
9, 248880, Note_on_c, 2, 76, 71
9, 248880, Note_on_c, 2, 79, 71
9, 249119, Note_on_c, 2, 76, 0
9, 249119, Note_on_c, 2, 79, 0
9, 249120, Note_on_c, 2, 78, 62
9, 249120, Note_on_c, 2, 74, 62
9, 249359, Note_on_c, 2, 78, 0
9, 249359, Note_on_c, 2, 74, 0
9, 249360, Note_on_c, 2, 76, 53
9, 249360, Note_on_c, 2, 73, 53
9, 249584, Note_on_c, 2, 76, 0
9, 249584, Note_on_c, 2, 73, 0
9, 249600, Note_on_c, 2, 74, 44
9, 249600, Note_on_c, 2, 69, 44
9, 249824, Note_on_c, 2, 74, 0
9, 249824, Note_on_c, 2, 69, 0
9, 249840, Note_on_c, 2, 69, 44
9, 249840, Note_on_c, 2, 74, 44
9, 250079, Note_on_c, 2, 69, 0
9, 250079, Note_on_c, 2, 74, 0
9, 250080, Note_on_c, 2, 67, 44
9, 250080, Note_on_c, 2, 76, 44
9, 250199, Note_on_c, 2, 67, 0
9, 250200, Note_on_c, 2, 73, 44
9, 250319, Note_on_c, 2, 76, 0
9, 250319, Note_on_c, 2, 73, 0
9, 250320, Note_on_c, 2, 78, 44
9, 250320, Note_on_c, 2, 74, 44
9, 250544, Note_on_c, 2, 78, 0
9, 250544, Note_on_c, 2, 74, 0
9, 250560, Note_on_c, 2, 73, 44
9, 250560, Note_on_c, 2, 76, 44
9, 250679, Note_on_c, 2, 73, 0
9, 250679, Note_on_c, 2, 76, 0
9, 250680, Note_on_c, 2, 67, 44
9, 250680, Note_on_c, 2, 64, 44
9, 250799, Note_on_c, 2, 67, 0
9, 250799, Note_on_c, 2, 64, 0
9, 250800, Note_on_c, 2, 61, 44
9, 250800, Note_on_c, 2, 73, 44
9, 250919, Note_on_c, 2, 61, 0
9, 250919, Note_on_c, 2, 73, 0
9, 250920, Note_on_c, 2, 62, 44
9, 250920, Note_on_c, 2, 74, 44
9, 251024, Note_on_c, 2, 62, 0
9, 251024, Note_on_c, 2, 74, 0
9, 251040, Note_on_c, 2, 74, 44
9, 251040, Note_on_c, 2, 62, 44
9, 251264, Note_on_c, 2, 74, 0
9, 251264, Note_on_c, 2, 62, 0
9, 251280, Note_on_c, 2, 69, 44
9, 251280, Note_on_c, 2, 66, 44
9, 251519, Note_on_c, 2, 69, 0
9, 251519, Note_on_c, 2, 66, 0
9, 251520, Note_on_c, 2, 64, 44
9, 251520, Note_on_c, 2, 67, 44
9, 251879, Note_on_c, 2, 64, 0
9, 251879, Note_on_c, 2, 67, 0
9, 251880, Note_on_c, 2, 66, 44
9, 251880, Note_on_c, 2, 62, 44
9, 251984, Note_on_c, 2, 66, 0
9, 251984, Note_on_c, 2, 62, 0
9, 252000, Note_on_c, 2, 62, 44
9, 252000, Note_on_c, 2, 66, 44
9, 252224, Note_on_c, 2, 62, 0
9, 252224, Note_on_c, 2, 66, 0
9, 252240, Note_on_c, 2, 74, 44
9, 252240, Note_on_c, 2, 71, 44
9, 252479, Note_on_c, 2, 74, 0
9, 252479, Note_on_c, 2, 71, 0
9, 252480, Note_on_c, 2, 72, 44
9, 252480, Note_on_c, 2, 69, 44
9, 252839, Note_on_c, 2, 72, 0
9, 252839, Note_on_c, 2, 69, 0
9, 252840, Note_on_c, 2, 71, 44
9, 252840, Note_on_c, 2, 67, 44
9, 252944, Note_on_c, 2, 71, 0
9, 252944, Note_on_c, 2, 67, 0
9, 252960, Note_on_c, 2, 71, 44
9, 252960, Note_on_c, 2, 67, 44
9, 253184, Note_on_c, 2, 71, 0
9, 253184, Note_on_c, 2, 67, 0
9, 253200, Note_on_c, 2, 79, 44
9, 253200, Note_on_c, 2, 71, 44
9, 253319, Note_on_c, 2, 79, 0
9, 253319, Note_on_c, 2, 71, 0
9, 253320, Note_on_c, 2, 67, 44
9, 253320, Note_on_c, 2, 76, 44
9, 253439, Note_on_c, 2, 67, 0
9, 253439, Note_on_c, 2, 76, 0
9, 253440, Note_on_c, 2, 74, 44
9, 253440, Note_on_c, 2, 66, 44
9, 253559, Note_on_c, 2, 74, 0
9, 253559, Note_on_c, 2, 66, 0
9, 253560, Note_on_c, 2, 73, 44
9, 253560, Note_on_c, 2, 64, 44
9, 253679, Note_on_c, 2, 73, 0
9, 253679, Note_on_c, 2, 64, 0
9, 253680, Note_on_c, 2, 67, 44
9, 253680, Note_on_c, 2, 76, 44
9, 253799, Note_on_c, 2, 67, 0
9, 253799, Note_on_c, 2, 76, 0
9, 253800, Note_on_c, 2, 73, 44
9, 253800, Note_on_c, 2, 64, 44
9, 253919, Note_on_c, 2, 73, 0
9, 253919, Note_on_c, 2, 64, 0
9, 253920, Note_on_c, 2, 62, 44
9, 253920, Note_on_c, 2, 71, 44
9, 254039, Note_on_c, 2, 62, 0
9, 254039, Note_on_c, 2, 71, 0
9, 254040, Note_on_c, 2, 69, 44
9, 254040, Note_on_c, 2, 61, 44
9, 254159, Note_on_c, 2, 69, 0
9, 254159, Note_on_c, 2, 61, 0
9, 254160, Note_on_c, 2, 62, 44
9, 254160, Note_on_c, 2, 71, 44
9, 254279, Note_on_c, 2, 62, 0
9, 254279, Note_on_c, 2, 71, 0
9, 254280, Note_on_c, 2, 73, 44
9, 254280, Note_on_c, 2, 64, 44
9, 254384, Note_on_c, 2, 73, 0
9, 254384, Note_on_c, 2, 64, 0
9, 254400, Note_on_c, 2, 74, 44
9, 254400, Note_on_c, 2, 66, 44
9, 254519, Note_on_c, 2, 74, 0
9, 254519, Note_on_c, 2, 66, 0
9, 254520, Note_on_c, 2, 69, 44
9, 254520, Note_on_c, 2, 78, 44
9, 254639, Note_on_c, 2, 69, 0
9, 254639, Note_on_c, 2, 78, 0
9, 254640, Note_on_c, 2, 76, 44
9, 254640, Note_on_c, 2, 67, 44
9, 254759, Note_on_c, 2, 76, 0
9, 254759, Note_on_c, 2, 67, 0
9, 254760, Note_on_c, 2, 73, 44
9, 254760, Note_on_c, 2, 64, 44
9, 254879, Note_on_c, 2, 73, 0
9, 254879, Note_on_c, 2, 64, 0
9, 254880, Note_on_c, 2, 74, 44
9, 254880, Note_on_c, 2, 66, 44
9, 254984, Note_on_c, 2, 74, 0
9, 254984, Note_on_c, 2, 66, 0
9, 255000, Note_on_c, 2, 66, 44
9, 255119, Note_on_c, 2, 66, 0
9, 255120, Note_on_c, 2, 67, 44
9, 255239, Note_on_c, 2, 67, 0
9, 255240, Note_on_c, 2, 64, 44
9, 255344, Note_on_c, 2, 64, 0
9, 255360, Note_on_c, 2, 66, 44
9, 255479, Note_on_c, 2, 66, 0
9, 255480, Note_on_c, 2, 67, 44
9, 255584, Note_on_c, 2, 67, 0
9, 255600, Note_on_c, 2, 64, 44
9, 255719, Note_on_c, 2, 64, 0
9, 255720, Note_on_c, 2, 66, 44
9, 255824, Note_on_c, 2, 66, 0
9, 255840, Note_on_c, 2, 67, 44
9, 255959, Note_on_c, 2, 67, 0
9, 255960, Note_on_c, 2, 69, 44
9, 256064, Note_on_c, 2, 69, 0
9, 256080, Note_on_c, 2, 71, 44
9, 256199, Note_on_c, 2, 71, 0
9, 256200, Note_on_c, 2, 69, 44
9, 256304, Note_on_c, 2, 69, 0
9, 256320, Note_on_c, 2, 69, 44
9, 256439, Note_on_c, 2, 69, 0
9, 256440, Note_on_c, 2, 67, 44
9, 256544, Note_on_c, 2, 67, 0
9, 256560, Note_on_c, 2, 71, 44
9, 256679, Note_on_c, 2, 71, 0
9, 256680, Note_on_c, 2, 67, 44
9, 256784, Note_on_c, 2, 67, 0
9, 256800, Note_on_c, 2, 66, 44
9, 256919, Note_on_c, 2, 66, 0
9, 256920, Note_on_c, 2, 64, 44
9, 257024, Note_on_c, 2, 64, 0
9, 257040, Note_on_c, 2, 67, 44
9, 257159, Note_on_c, 2, 67, 0
9, 257160, Note_on_c, 2, 64, 44
9, 257264, Note_on_c, 2, 64, 0
9, 257280, Note_on_c, 2, 62, 44
9, 257519, Note_on_c, 2, 62, 0
9, 265200, Note_on_c, 2, 71, 44
9, 265319, Note_on_c, 2, 71, 0
9, 265320, Note_on_c, 2, 73, 44
9, 265439, Note_on_c, 2, 73, 0
9, 265680, Note_on_c, 2, 74, 44
9, 265799, Note_on_c, 2, 74, 0
9, 265800, Note_on_c, 2, 73, 44
9, 265919, Note_on_c, 2, 73, 0
9, 266160, Note_on_c, 2, 71, 44
9, 266399, Note_on_c, 2, 71, 0
9, 266640, Note_on_c, 2, 69, 44
9, 266759, Note_on_c, 2, 69, 0
9, 266760, Note_on_c, 2, 66, 44
9, 266864, Note_on_c, 2, 66, 0
9, 266880, Note_on_c, 2, 66, 44
9, 267119, Note_on_c, 2, 66, 0
9, 267120, Note_on_c, 2, 67, 44
9, 267239, Note_on_c, 2, 67, 0
9, 267240, Note_on_c, 2, 66, 44
9, 267359, Note_on_c, 2, 66, 0
9, 267600, Note_on_c, 2, 71, 44
9, 267719, Note_on_c, 2, 71, 0
9, 267720, Note_on_c, 2, 69, 44
9, 267839, Note_on_c, 2, 69, 0
9, 268080, Note_on_c, 2, 71, 44
9, 268199, Note_on_c, 2, 71, 0
9, 268200, Note_on_c, 2, 67, 44
9, 268319, Note_on_c, 2, 67, 0
9, 268560, Note_on_c, 2, 67, 44
9, 268679, Note_on_c, 2, 67, 0
9, 268680, Note_on_c, 2, 64, 44
9, 268799, Note_on_c, 2, 64, 0
9, 269040, Note_on_c, 2, 67, 44
9, 269159, Note_on_c, 2, 67, 0
9, 269160, Note_on_c, 2, 69, 44
9, 269279, Note_on_c, 2, 69, 0
9, 270480, Note_on_c, 2, 79, 80
9, 270480, Note_on_c, 2, 76, 80
9, 270599, Note_on_c, 2, 79, 0
9, 270599, Note_on_c, 2, 76, 0
9, 270600, Note_on_c, 2, 78, 80
9, 270600, Note_on_c, 2, 74, 80
9, 270704, Note_on_c, 2, 78, 0
9, 270704, Note_on_c, 2, 74, 0
9, 270720, Note_on_c, 2, 78, 80
9, 270720, Note_on_c, 2, 74, 80
9, 270839, Note_on_c, 2, 78, 0
9, 270839, Note_on_c, 2, 74, 0
9, 270840, Note_on_c, 2, 76, 80
9, 270840, Note_on_c, 2, 73, 80
9, 270944, Note_on_c, 2, 76, 0
9, 270944, Note_on_c, 2, 73, 0
9, 270960, Note_on_c, 2, 71, 80
9, 270960, Note_on_c, 2, 74, 80
9, 271079, Note_on_c, 2, 71, 0
9, 271079, Note_on_c, 2, 74, 0
9, 271080, Note_on_c, 2, 73, 80
9, 271080, Note_on_c, 2, 76, 80
9, 271184, Note_on_c, 2, 73, 0
9, 271184, Note_on_c, 2, 76, 0
9, 271200, Note_on_c, 2, 79, 80
9, 271200, Note_on_c, 2, 76, 80
9, 271319, Note_on_c, 2, 79, 0
9, 271319, Note_on_c, 2, 76, 0
9, 271320, Note_on_c, 2, 78, 80
9, 271320, Note_on_c, 2, 74, 80
9, 271424, Note_on_c, 2, 78, 0
9, 271424, Note_on_c, 2, 74, 0
9, 271440, Note_on_c, 2, 67, 80
9, 271440, Note_on_c, 2, 76, 80
9, 271559, Note_on_c, 2, 67, 0
9, 271559, Note_on_c, 2, 76, 0
9, 271560, Note_on_c, 2, 74, 80
9, 271560, Note_on_c, 2, 66, 80
9, 271664, Note_on_c, 2, 74, 0
9, 271664, Note_on_c, 2, 66, 0
9, 271680, Note_on_c, 2, 74, 80
9, 271680, Note_on_c, 2, 78, 80
9, 271799, Note_on_c, 2, 74, 0
9, 271799, Note_on_c, 2, 78, 0
9, 271800, Note_on_c, 2, 73, 80
9, 271800, Note_on_c, 2, 76, 80
9, 271904, Note_on_c, 2, 73, 0
9, 271904, Note_on_c, 2, 76, 0
9, 271920, Note_on_c, 2, 74, 80
9, 271920, Note_on_c, 2, 71, 80
9, 272039, Note_on_c, 2, 74, 0
9, 272039, Note_on_c, 2, 71, 0
9, 272040, Note_on_c, 2, 73, 80
9, 272040, Note_on_c, 2, 76, 80
9, 272144, Note_on_c, 2, 73, 0
9, 272144, Note_on_c, 2, 76, 0
9, 272160, Note_on_c, 2, 79, 80
9, 272160, Note_on_c, 2, 76, 80
9, 272279, Note_on_c, 2, 79, 0
9, 272279, Note_on_c, 2, 76, 0
9, 272280, Note_on_c, 2, 74, 80
9, 272280, Note_on_c, 2, 78, 80
9, 272384, Note_on_c, 2, 74, 0
9, 272384, Note_on_c, 2, 78, 0
9, 272400, Note_on_c, 2, 67, 80
9, 272400, Note_on_c, 2, 76, 80
9, 272519, Note_on_c, 2, 67, 0
9, 272519, Note_on_c, 2, 76, 0
9, 272520, Note_on_c, 2, 74, 80
9, 272520, Note_on_c, 2, 66, 80
9, 272624, Note_on_c, 2, 74, 0
9, 272624, Note_on_c, 2, 66, 0
9, 272640, Note_on_c, 2, 78, 80
9, 272640, Note_on_c, 2, 74, 80
9, 272759, Note_on_c, 2, 78, 0
9, 272759, Note_on_c, 2, 74, 0
9, 272760, Note_on_c, 2, 73, 80
9, 272760, Note_on_c, 2, 76, 80
9, 272864, Note_on_c, 2, 73, 0
9, 272864, Note_on_c, 2, 76, 0
9, 272880, Note_on_c, 2, 74, 80
9, 272880, Note_on_c, 2, 71, 80
9, 272999, Note_on_c, 2, 74, 0
9, 272999, Note_on_c, 2, 71, 0
9, 273000, Note_on_c, 2, 76, 80
9, 273000, Note_on_c, 2, 73, 80
9, 273104, Note_on_c, 2, 76, 0
9, 273104, Note_on_c, 2, 73, 0
9, 273120, Note_on_c, 2, 79, 80
9, 273120, Note_on_c, 2, 76, 80
9, 273239, Note_on_c, 2, 79, 0
9, 273239, Note_on_c, 2, 76, 0
9, 273240, Note_on_c, 2, 78, 80
9, 273240, Note_on_c, 2, 74, 80
9, 273344, Note_on_c, 2, 78, 0
9, 273344, Note_on_c, 2, 74, 0
9, 273360, Note_on_c, 2, 78, 80
9, 273360, Note_on_c, 2, 74, 80
9, 273479, Note_on_c, 2, 78, 0
9, 273479, Note_on_c, 2, 74, 0
9, 273480, Note_on_c, 2, 73, 80
9, 273480, Note_on_c, 2, 76, 80
9, 273584, Note_on_c, 2, 73, 0
9, 273584, Note_on_c, 2, 76, 0
9, 273600, Note_on_c, 2, 76, 80
9, 273600, Note_on_c, 2, 73, 80
9, 273719, Note_on_c, 2, 76, 0
9, 273719, Note_on_c, 2, 73, 0
9, 273720, Note_on_c, 2, 71, 80
9, 273720, Note_on_c, 2, 74, 80
9, 273824, Note_on_c, 2, 71, 0
9, 273824, Note_on_c, 2, 74, 0
9, 273840, Note_on_c, 2, 71, 80
9, 273840, Note_on_c, 2, 74, 80
9, 273959, Note_on_c, 2, 71, 0
9, 273959, Note_on_c, 2, 74, 0
9, 273960, Note_on_c, 2, 68, 80
9, 273960, Note_on_c, 2, 76, 80
9, 274064, Note_on_c, 2, 68, 0
9, 274064, Note_on_c, 2, 76, 0
9, 274080, Note_on_c, 2, 69, 80
9, 274199, Note_on_c, 2, 69, 0
9, 274200, Note_on_c, 2, 76, 80
9, 274200, Note_on_c, 2, 73, 80
9, 274304, Note_on_c, 2, 76, 0
9, 274304, Note_on_c, 2, 73, 0
9, 274320, Note_on_c, 2, 78, 80
9, 274320, Note_on_c, 2, 74, 80
9, 274679, Note_on_c, 2, 78, 0
9, 274679, Note_on_c, 2, 74, 0
9, 274680, Note_on_c, 2, 76, 80
9, 274680, Note_on_c, 2, 79, 80
9, 274784, Note_on_c, 2, 76, 0
9, 274784, Note_on_c, 2, 79, 0
9, 274800, Note_on_c, 2, 73, 80
9, 274800, Note_on_c, 2, 76, 80
9, 274919, Note_on_c, 2, 73, 0
9, 274919, Note_on_c, 2, 76, 0
9, 274920, Note_on_c, 2, 74, 80
9, 274920, Note_on_c, 2, 78, 80
9, 275024, Note_on_c, 2, 74, 0
9, 275024, Note_on_c, 2, 78, 0
9, 275040, Note_on_c, 2, 79, 80
9, 275040, Note_on_c, 2, 76, 80
9, 275159, Note_on_c, 2, 79, 0
9, 275159, Note_on_c, 2, 76, 0
9, 275160, Note_on_c, 2, 81, 80
9, 275160, Note_on_c, 2, 78, 80
9, 275264, Note_on_c, 2, 81, 0
9, 275264, Note_on_c, 2, 78, 0
9, 275280, Note_on_c, 2, 79, 80
9, 275280, Note_on_c, 2, 83, 80
9, 275399, Note_on_c, 2, 79, 0
9, 275399, Note_on_c, 2, 83, 0
9, 275400, Note_on_c, 2, 78, 80
9, 275400, Note_on_c, 2, 81, 80
9, 275504, Note_on_c, 2, 78, 0
9, 275504, Note_on_c, 2, 81, 0
9, 275520, Note_on_c, 2, 72, 80
9, 275520, Note_on_c, 2, 81, 80
9, 275639, Note_on_c, 2, 72, 0
9, 275639, Note_on_c, 2, 81, 0
9, 275640, Note_on_c, 2, 79, 80
9, 275640, Note_on_c, 2, 71, 80
9, 275744, Note_on_c, 2, 79, 0
9, 275744, Note_on_c, 2, 71, 0
9, 275760, Note_on_c, 2, 74, 80
9, 275760, Note_on_c, 2, 83, 80
9, 275879, Note_on_c, 2, 74, 0
9, 275879, Note_on_c, 2, 83, 0
9, 275880, Note_on_c, 2, 71, 80
9, 275880, Note_on_c, 2, 79, 80
9, 275984, Note_on_c, 2, 71, 0
9, 275984, Note_on_c, 2, 79, 0
9, 276000, Note_on_c, 2, 74, 80
9, 276000, Note_on_c, 2, 78, 80
9, 276119, Note_on_c, 2, 74, 0
9, 276119, Note_on_c, 2, 78, 0
9, 276120, Note_on_c, 2, 73, 80
9, 276120, Note_on_c, 2, 76, 80
9, 276224, Note_on_c, 2, 73, 0
9, 276224, Note_on_c, 2, 76, 0
9, 276240, Note_on_c, 2, 79, 80
9, 276240, Note_on_c, 2, 76, 80
9, 276359, Note_on_c, 2, 79, 0
9, 276359, Note_on_c, 2, 76, 0
9, 276360, Note_on_c, 2, 73, 80
9, 276360, Note_on_c, 2, 76, 80
9, 276464, Note_on_c, 2, 73, 0
9, 276464, Note_on_c, 2, 76, 0
9, 276480, Note_on_c, 2, 76, 80
9, 276480, Note_on_c, 2, 67, 80
9, 276599, Note_on_c, 2, 76, 0
9, 276599, Note_on_c, 2, 67, 0
9, 276600, Note_on_c, 2, 66, 80
9, 276600, Note_on_c, 2, 74, 80
9, 276704, Note_on_c, 2, 66, 0
9, 276704, Note_on_c, 2, 74, 0
9, 276720, Note_on_c, 2, 64, 80
9, 276720, Note_on_c, 2, 73, 80
9, 276839, Note_on_c, 2, 64, 0
9, 276839, Note_on_c, 2, 73, 0
9, 276840, Note_on_c, 2, 66, 80
9, 276840, Note_on_c, 2, 74, 80
9, 276944, Note_on_c, 2, 66, 0
9, 276944, Note_on_c, 2, 74, 0
9, 276960, Note_on_c, 2, 74, 92
9, 276960, Note_on_c, 2, 78, 92
9, 277079, Note_on_c, 2, 74, 0
9, 277079, Note_on_c, 2, 78, 0
9, 277080, Note_on_c, 2, 76, 92
9, 277080, Note_on_c, 2, 73, 92
9, 277199, Note_on_c, 2, 76, 0
9, 277199, Note_on_c, 2, 73, 0
9, 277200, Note_on_c, 2, 79, 92
9, 277200, Note_on_c, 2, 76, 92
9, 277304, Note_on_c, 2, 79, 0
9, 277304, Note_on_c, 2, 76, 0
9, 277320, Note_on_c, 2, 78, 92
9, 277320, Note_on_c, 2, 74, 92
9, 277424, Note_on_c, 2, 78, 0
9, 277424, Note_on_c, 2, 74, 0
9, 277440, Note_on_c, 2, 78, 92
9, 277440, Note_on_c, 2, 74, 92
9, 277559, Note_on_c, 2, 78, 0
9, 277559, Note_on_c, 2, 74, 0
9, 277560, Note_on_c, 2, 76, 92
9, 277560, Note_on_c, 2, 73, 92
9, 277784, Note_on_c, 2, 76, 0
9, 277784, Note_on_c, 2, 73, 0
9, 277800, Note_on_c, 2, 69, 92
9, 277800, Note_on_c, 2, 74, 92
9, 277904, Note_on_c, 2, 69, 0
9, 277904, Note_on_c, 2, 74, 0
9, 277920, Note_on_c, 2, 74, 92
9, 278159, Note_on_c, 2, 74, 0
9, 288960, Marker_t, "Muta in B-flat"
9, 295080, Note_on_c, 2, 74, 32
9, 295080, Note_on_c, 2, 62, 32
9, 295319, Note_on_c, 2, 74, 0
9, 295319, Note_on_c, 2, 62, 0
9, 295800, Note_on_c, 2, 74, 32
9, 295800, Note_on_c, 2, 62, 32
9, 296039, Note_on_c, 2, 74, 0
9, 296039, Note_on_c, 2, 62, 0
9, 296520, Note_on_c, 2, 62, 32
9, 296520, Note_on_c, 2, 74, 32
9, 296759, Note_on_c, 2, 62, 0
9, 296759, Note_on_c, 2, 74, 0
9, 297240, Note_on_c, 2, 74, 32
9, 297240, Note_on_c, 2, 62, 32
9, 297479, Note_on_c, 2, 74, 0
9, 297479, Note_on_c, 2, 62, 0
9, 297840, Note_on_c, 2, 70, 32
9, 297840, Note_on_c, 2, 74, 32
9, 297929, Note_on_c, 2, 70, 0
9, 297929, Note_on_c, 2, 74, 0
9, 297960, Note_on_c, 2, 74, 32
9, 297960, Note_on_c, 2, 70, 32
9, 298544, Note_on_c, 2, 74, 0
9, 298544, Note_on_c, 2, 70, 0
9, 298560, Note_on_c, 2, 72, 32
9, 298560, Note_on_c, 2, 75, 32
9, 298649, Note_on_c, 2, 72, 0
9, 298649, Note_on_c, 2, 75, 0
9, 298680, Note_on_c, 2, 77, 32
9, 298680, Note_on_c, 2, 74, 32
9, 299264, Note_on_c, 2, 77, 0
9, 299264, Note_on_c, 2, 74, 0
9, 299280, Note_on_c, 2, 74, 32
9, 299280, Note_on_c, 2, 77, 32
9, 299369, Note_on_c, 2, 74, 0
9, 299369, Note_on_c, 2, 77, 0
9, 299400, Note_on_c, 2, 72, 32
9, 299400, Note_on_c, 2, 75, 32
9, 299984, Note_on_c, 2, 72, 0
9, 299984, Note_on_c, 2, 75, 0
9, 300000, Note_on_c, 2, 74, 32
9, 300000, Note_on_c, 2, 70, 32
9, 300089, Note_on_c, 2, 74, 0
9, 300089, Note_on_c, 2, 70, 0
9, 300120, Note_on_c, 2, 72, 32
9, 300120, Note_on_c, 2, 65, 32
9, 300704, Note_on_c, 2, 72, 0
9, 300704, Note_on_c, 2, 65, 0
9, 300720, Note_on_c, 2, 62, 32
9, 300720, Note_on_c, 2, 70, 32
9, 300809, Note_on_c, 2, 62, 0
9, 300809, Note_on_c, 2, 70, 0
9, 300840, Note_on_c, 2, 62, 32
9, 300840, Note_on_c, 2, 70, 32
9, 301424, Note_on_c, 2, 62, 0
9, 301424, Note_on_c, 2, 70, 0
9, 301440, Note_on_c, 2, 65, 32
9, 301440, Note_on_c, 2, 72, 32
9, 301529, Note_on_c, 2, 65, 0
9, 301529, Note_on_c, 2, 72, 0
9, 301560, Note_on_c, 2, 74, 32
9, 301560, Note_on_c, 2, 70, 32
9, 302144, Note_on_c, 2, 74, 0
9, 302144, Note_on_c, 2, 70, 0
9, 302160, Note_on_c, 2, 70, 32
9, 302160, Note_on_c, 2, 74, 32
9, 302249, Note_on_c, 2, 70, 0
9, 302249, Note_on_c, 2, 74, 0
9, 302280, Note_on_c, 2, 72, 32
9, 302280, Note_on_c, 2, 65, 32
9, 302864, Note_on_c, 2, 72, 0
9, 302864, Note_on_c, 2, 65, 0
9, 302880, Note_on_c, 2, 62, 32
9, 302880, Note_on_c, 2, 70, 32
9, 302969, Note_on_c, 2, 62, 0
9, 302969, Note_on_c, 2, 70, 0
9, 303000, Note_on_c, 2, 72, 32
9, 303000, Note_on_c, 2, 65, 32
9, 303584, Note_on_c, 2, 72, 0
9, 303584, Note_on_c, 2, 65, 0
9, 303600, Note_on_c, 2, 70, 32
9, 303600, Note_on_c, 2, 74, 32
9, 303689, Note_on_c, 2, 70, 0
9, 303689, Note_on_c, 2, 74, 0
9, 303720, Note_on_c, 2, 70, 32
9, 303720, Note_on_c, 2, 74, 32
9, 304304, Note_on_c, 2, 70, 0
9, 304304, Note_on_c, 2, 74, 0
9, 304320, Note_on_c, 2, 75, 32
9, 304320, Note_on_c, 2, 72, 32
9, 304409, Note_on_c, 2, 75, 0
9, 304409, Note_on_c, 2, 72, 0
9, 304440, Note_on_c, 2, 77, 32
9, 304440, Note_on_c, 2, 74, 32
9, 305024, Note_on_c, 2, 77, 0
9, 305024, Note_on_c, 2, 74, 0
9, 305040, Note_on_c, 2, 77, 32
9, 305040, Note_on_c, 2, 74, 32
9, 305129, Note_on_c, 2, 77, 0
9, 305129, Note_on_c, 2, 74, 0
9, 305160, Note_on_c, 2, 72, 32
9, 305160, Note_on_c, 2, 75, 32
9, 305744, Note_on_c, 2, 72, 0
9, 305744, Note_on_c, 2, 75, 0
9, 305760, Note_on_c, 2, 74, 32
9, 305760, Note_on_c, 2, 70, 32
9, 305849, Note_on_c, 2, 74, 0
9, 305849, Note_on_c, 2, 70, 0
9, 305880, Note_on_c, 2, 65, 32
9, 305880, Note_on_c, 2, 72, 32
9, 306464, Note_on_c, 2, 65, 0
9, 306464, Note_on_c, 2, 72, 0
9, 306480, Note_on_c, 2, 70, 32
9, 306480, Note_on_c, 2, 62, 32
9, 306569, Note_on_c, 2, 70, 0
9, 306569, Note_on_c, 2, 62, 0
9, 306600, Note_on_c, 2, 70, 32
9, 306600, Note_on_c, 2, 62, 32
9, 307184, Note_on_c, 2, 70, 0
9, 307184, Note_on_c, 2, 62, 0
9, 307200, Note_on_c, 2, 65, 32
9, 307200, Note_on_c, 2, 72, 32
9, 307289, Note_on_c, 2, 65, 0
9, 307289, Note_on_c, 2, 72, 0
9, 307320, Note_on_c, 2, 74, 32
9, 307320, Note_on_c, 2, 70, 32
9, 307904, Note_on_c, 2, 74, 0
9, 307904, Note_on_c, 2, 70, 0
9, 307920, Note_on_c, 2, 65, 32
9, 307920, Note_on_c, 2, 72, 32
9, 308009, Note_on_c, 2, 65, 0
9, 308009, Note_on_c, 2, 72, 0
9, 308040, Note_on_c, 2, 65, 32
9, 308040, Note_on_c, 2, 72, 32
9, 308219, Note_on_c, 2, 65, 0
9, 308219, Note_on_c, 2, 72, 0
9, 308280, Note_on_c, 2, 70, 32
9, 308280, Note_on_c, 2, 62, 32
9, 308369, Note_on_c, 2, 70, 0
9, 308369, Note_on_c, 2, 62, 0
9, 308400, Note_on_c, 2, 62, 32
9, 308400, Note_on_c, 2, 70, 32
9, 308639, Note_on_c, 2, 62, 0
9, 308639, Note_on_c, 2, 70, 0
9, 309360, Note_on_c, 2, 65, 32
9, 309360, Note_on_c, 2, 72, 32
9, 309464, Note_on_c, 2, 65, 0
9, 309464, Note_on_c, 2, 72, 0
9, 309480, Note_on_c, 2, 65, 32
9, 309480, Note_on_c, 2, 72, 32
9, 310184, Note_on_c, 2, 65, 0
9, 310184, Note_on_c, 2, 72, 0
9, 310200, Note_on_c, 2, 70, 32
9, 310200, Note_on_c, 2, 74, 32
9, 310424, Note_on_c, 2, 70, 0
9, 310424, Note_on_c, 2, 74, 0
9, 310440, Note_on_c, 2, 70, 32
9, 310440, Note_on_c, 2, 62, 32
9, 310544, Note_on_c, 2, 70, 0
9, 310544, Note_on_c, 2, 62, 0
9, 310560, Note_on_c, 2, 65, 32
9, 310560, Note_on_c, 2, 72, 32
9, 310784, Note_on_c, 2, 65, 0
9, 310784, Note_on_c, 2, 72, 0
9, 310800, Note_on_c, 2, 72, 32
9, 310800, Note_on_c, 2, 65, 32
9, 310904, Note_on_c, 2, 72, 0
9, 310904, Note_on_c, 2, 65, 0
9, 310920, Note_on_c, 2, 65, 32
9, 310920, Note_on_c, 2, 72, 32
9, 311399, Note_on_c, 2, 72, 0
9, 311400, Note_on_c, 2, 74, 32
9, 311504, Note_on_c, 2, 65, 0
9, 311519, Note_on_c, 2, 74, 0
9, 311520, Note_on_c, 2, 75, 32
9, 311520, Note_on_c, 2, 72, 32
9, 311624, Note_on_c, 2, 75, 0
9, 311624, Note_on_c, 2, 72, 0
9, 311640, Note_on_c, 2, 70, 32
9, 311640, Note_on_c, 2, 74, 32
9, 311819, Note_on_c, 2, 70, 0
9, 311819, Note_on_c, 2, 74, 0
9, 311880, Note_on_c, 2, 70, 32
9, 311880, Note_on_c, 2, 62, 32
9, 311969, Note_on_c, 2, 70, 0
9, 311969, Note_on_c, 2, 62, 0
9, 312000, Note_on_c, 2, 65, 32
9, 312000, Note_on_c, 2, 72, 32
9, 312119, Note_on_c, 2, 72, 0
9, 312120, Note_on_c, 2, 74, 32
9, 312224, Note_on_c, 2, 65, 0
9, 312239, Note_on_c, 2, 74, 0
9, 312240, Note_on_c, 2, 75, 32
9, 312240, Note_on_c, 2, 72, 32
9, 312344, Note_on_c, 2, 75, 0
9, 312344, Note_on_c, 2, 72, 0
9, 312360, Note_on_c, 2, 70, 32
9, 312360, Note_on_c, 2, 74, 32
9, 312539, Note_on_c, 2, 70, 0
9, 312539, Note_on_c, 2, 74, 0
9, 312600, Note_on_c, 2, 62, 32
9, 312600, Note_on_c, 2, 70, 32
9, 312689, Note_on_c, 2, 62, 0
9, 312689, Note_on_c, 2, 70, 0
9, 312720, Note_on_c, 2, 72, 32
9, 312720, Note_on_c, 2, 65, 32
9, 312839, Note_on_c, 2, 72, 0
9, 312840, Note_on_c, 2, 74, 32
9, 312944, Note_on_c, 2, 65, 0
9, 312959, Note_on_c, 2, 74, 0
9, 312960, Note_on_c, 2, 75, 32
9, 312960, Note_on_c, 2, 72, 32
9, 313064, Note_on_c, 2, 75, 0
9, 313064, Note_on_c, 2, 72, 0
9, 313080, Note_on_c, 2, 70, 32
9, 313080, Note_on_c, 2, 74, 32
9, 313304, Note_on_c, 2, 70, 0
9, 313304, Note_on_c, 2, 74, 0
9, 313320, Note_on_c, 2, 72, 32
9, 313320, Note_on_c, 2, 69, 32
9, 313559, Note_on_c, 2, 72, 0
9, 313559, Note_on_c, 2, 69, 0
9, 313560, Note_on_c, 2, 70, 32
9, 313560, Note_on_c, 2, 67, 32
9, 313679, Note_on_c, 2, 70, 0
9, 313679, Note_on_c, 2, 67, 0
9, 313680, Note_on_c, 2, 65, 32
9, 313680, Note_on_c, 2, 69, 32
9, 313784, Note_on_c, 2, 65, 0
9, 313784, Note_on_c, 2, 69, 0
9, 313800, Note_on_c, 2, 67, 32
9, 313800, Note_on_c, 2, 70, 32
9, 314024, Note_on_c, 2, 67, 0
9, 314024, Note_on_c, 2, 70, 0
9, 314040, Note_on_c, 2, 64, 32
9, 314040, Note_on_c, 2, 72, 32
9, 314144, Note_on_c, 2, 64, 0
9, 314144, Note_on_c, 2, 72, 0
9, 314160, Note_on_c, 2, 53, 32
9, 314160, Note_on_c, 2, 65, 32
9, 314279, Note_on_c, 2, 53, 0
9, 314279, Note_on_c, 2, 65, 0
9, 314280, Note_on_c, 2, 67, 32
9, 314280, Note_on_c, 2, 55, 32
9, 314399, Note_on_c, 2, 67, 0
9, 314399, Note_on_c, 2, 55, 0
9, 314400, Note_on_c, 2, 69, 32
9, 314400, Note_on_c, 2, 57, 32
9, 314519, Note_on_c, 2, 69, 0
9, 314519, Note_on_c, 2, 57, 0
9, 314520, Note_on_c, 2, 70, 32
9, 314520, Note_on_c, 2, 58, 32
9, 314639, Note_on_c, 2, 70, 0
9, 314639, Note_on_c, 2, 58, 0
9, 314640, Note_on_c, 2, 60, 32
9, 314640, Note_on_c, 2, 72, 32
9, 314759, Note_on_c, 2, 60, 0
9, 314759, Note_on_c, 2, 72, 0
9, 314760, Note_on_c, 2, 62, 32
9, 314760, Note_on_c, 2, 74, 32
9, 314864, Note_on_c, 2, 62, 0
9, 314864, Note_on_c, 2, 74, 0
9, 314880, Note_on_c, 2, 74, 32
9, 314880, Note_on_c, 2, 62, 32
9, 315104, Note_on_c, 2, 74, 0
9, 315104, Note_on_c, 2, 62, 0
9, 315120, Note_on_c, 2, 70, 32
9, 315120, Note_on_c, 2, 74, 32
9, 315224, Note_on_c, 2, 70, 0
9, 315224, Note_on_c, 2, 74, 0
9, 315240, Note_on_c, 2, 74, 32
9, 315240, Note_on_c, 2, 70, 32
9, 315824, Note_on_c, 2, 74, 0
9, 315824, Note_on_c, 2, 70, 0
9, 315840, Note_on_c, 2, 72, 32
9, 315840, Note_on_c, 2, 75, 32
9, 315944, Note_on_c, 2, 72, 0
9, 315944, Note_on_c, 2, 75, 0
9, 315960, Note_on_c, 2, 74, 32
9, 315960, Note_on_c, 2, 77, 32
9, 316319, Note_on_c, 2, 74, 0
9, 316320, Note_on_c, 2, 70, 32
9, 316544, Note_on_c, 2, 77, 0
9, 316560, Note_on_c, 2, 77, 32
9, 316664, Note_on_c, 2, 70, 0
9, 316664, Note_on_c, 2, 77, 0
9, 316680, Note_on_c, 2, 75, 32
9, 316680, Note_on_c, 2, 63, 32
9, 316904, Note_on_c, 2, 63, 0
9, 316920, Note_on_c, 2, 65, 32
9, 317024, Note_on_c, 2, 65, 0
9, 317040, Note_on_c, 2, 67, 32
9, 317264, Note_on_c, 2, 75, 0
9, 317280, Note_on_c, 2, 74, 32
9, 317384, Note_on_c, 2, 67, 0
9, 317384, Note_on_c, 2, 74, 0
9, 317400, Note_on_c, 2, 67, 32
9, 317400, Note_on_c, 2, 72, 32
9, 317759, Note_on_c, 2, 67, 0
9, 317760, Note_on_c, 2, 63, 32
9, 317984, Note_on_c, 2, 72, 0
9, 317984, Note_on_c, 2, 63, 0
9, 318000, Note_on_c, 2, 62, 32
9, 318000, Note_on_c, 2, 70, 32
9, 318104, Note_on_c, 2, 62, 0
9, 318104, Note_on_c, 2, 70, 0
9, 318120, Note_on_c, 2, 70, 32
9, 318120, Note_on_c, 2, 62, 32
9, 318704, Note_on_c, 2, 70, 0
9, 318704, Note_on_c, 2, 62, 0
9, 318720, Note_on_c, 2, 65, 32
9, 318720, Note_on_c, 2, 72, 32
9, 318824, Note_on_c, 2, 65, 0
9, 318824, Note_on_c, 2, 72, 0
9, 318840, Note_on_c, 2, 70, 32
9, 318840, Note_on_c, 2, 74, 32
9, 319424, Note_on_c, 2, 70, 0
9, 319424, Note_on_c, 2, 74, 0
9, 319440, Note_on_c, 2, 65, 32
9, 319440, Note_on_c, 2, 72, 32
9, 319529, Note_on_c, 2, 65, 0
9, 319529, Note_on_c, 2, 72, 0
9, 319560, Note_on_c, 2, 72, 32
9, 319560, Note_on_c, 2, 65, 32
9, 319739, Note_on_c, 2, 72, 0
9, 319739, Note_on_c, 2, 65, 0
9, 319800, Note_on_c, 2, 70, 32
9, 319800, Note_on_c, 2, 62, 32
9, 319889, Note_on_c, 2, 70, 0
9, 319889, Note_on_c, 2, 62, 0
9, 319920, Note_on_c, 2, 62, 32
9, 319920, Note_on_c, 2, 70, 32
9, 320159, Note_on_c, 2, 62, 0
9, 320159, Note_on_c, 2, 70, 0
9, 320880, Note_on_c, 2, 74, 32
9, 320880, Note_on_c, 2, 70, 32
9, 320984, Note_on_c, 2, 74, 0
9, 320984, Note_on_c, 2, 70, 0
9, 321000, Note_on_c, 2, 70, 32
9, 321000, Note_on_c, 2, 74, 32
9, 321584, Note_on_c, 2, 70, 0
9, 321584, Note_on_c, 2, 74, 0
9, 321600, Note_on_c, 2, 75, 32
9, 321600, Note_on_c, 2, 72, 32
9, 321704, Note_on_c, 2, 75, 0
9, 321704, Note_on_c, 2, 72, 0
9, 321720, Note_on_c, 2, 74, 32
9, 321720, Note_on_c, 2, 77, 32
9, 322304, Note_on_c, 2, 74, 0
9, 322304, Note_on_c, 2, 77, 0
9, 322320, Note_on_c, 2, 77, 32
9, 322320, Note_on_c, 2, 74, 32
9, 322424, Note_on_c, 2, 77, 0
9, 322424, Note_on_c, 2, 74, 0
9, 322440, Note_on_c, 2, 72, 32
9, 322440, Note_on_c, 2, 75, 32
9, 323024, Note_on_c, 2, 72, 0
9, 323024, Note_on_c, 2, 75, 0
9, 323040, Note_on_c, 2, 74, 32
9, 323040, Note_on_c, 2, 70, 32
9, 323144, Note_on_c, 2, 74, 0
9, 323144, Note_on_c, 2, 70, 0
9, 323160, Note_on_c, 2, 72, 32
9, 323160, Note_on_c, 2, 65, 32
9, 323744, Note_on_c, 2, 72, 0
9, 323744, Note_on_c, 2, 65, 0
9, 323760, Note_on_c, 2, 70, 32
9, 323760, Note_on_c, 2, 62, 32
9, 323864, Note_on_c, 2, 70, 0
9, 323864, Note_on_c, 2, 62, 0
9, 323880, Note_on_c, 2, 62, 32
9, 323880, Note_on_c, 2, 70, 32
9, 324464, Note_on_c, 2, 62, 0
9, 324464, Note_on_c, 2, 70, 0
9, 324480, Note_on_c, 2, 72, 32
9, 324480, Note_on_c, 2, 65, 32
9, 324584, Note_on_c, 2, 72, 0
9, 324584, Note_on_c, 2, 65, 0
9, 324600, Note_on_c, 2, 70, 32
9, 324600, Note_on_c, 2, 74, 32
9, 325184, Note_on_c, 2, 70, 0
9, 325184, Note_on_c, 2, 74, 0
9, 325200, Note_on_c, 2, 74, 32
9, 325200, Note_on_c, 2, 70, 32
9, 325304, Note_on_c, 2, 74, 0
9, 325304, Note_on_c, 2, 70, 0
9, 325320, Note_on_c, 2, 72, 32
9, 325320, Note_on_c, 2, 65, 32
9, 325904, Note_on_c, 2, 72, 0
9, 325904, Note_on_c, 2, 65, 0
9, 325920, Note_on_c, 2, 62, 32
9, 325920, Note_on_c, 2, 70, 32
9, 326024, Note_on_c, 2, 62, 0
9, 326024, Note_on_c, 2, 70, 0
9, 326040, Note_on_c, 2, 65, 32
9, 326040, Note_on_c, 2, 72, 32
9, 326624, Note_on_c, 2, 65, 0
9, 326624, Note_on_c, 2, 72, 0
9, 326640, Note_on_c, 2, 70, 32
9, 326640, Note_on_c, 2, 74, 32
9, 326744, Note_on_c, 2, 70, 0
9, 326744, Note_on_c, 2, 74, 0
9, 326760, Note_on_c, 2, 74, 32
9, 326760, Note_on_c, 2, 70, 32
9, 327344, Note_on_c, 2, 74, 0
9, 327344, Note_on_c, 2, 70, 0
9, 327360, Note_on_c, 2, 75, 32
9, 327360, Note_on_c, 2, 72, 32
9, 327464, Note_on_c, 2, 75, 0
9, 327464, Note_on_c, 2, 72, 0
9, 327480, Note_on_c, 2, 77, 33
9, 327480, Note_on_c, 2, 74, 33
9, 328064, Note_on_c, 2, 77, 0
9, 328064, Note_on_c, 2, 74, 0
9, 328080, Note_on_c, 2, 74, 33
9, 328080, Note_on_c, 2, 77, 33
9, 328184, Note_on_c, 2, 74, 0
9, 328184, Note_on_c, 2, 77, 0
9, 328200, Note_on_c, 2, 75, 33
9, 328200, Note_on_c, 2, 72, 33
9, 328784, Note_on_c, 2, 75, 0
9, 328784, Note_on_c, 2, 72, 0
9, 328800, Note_on_c, 2, 74, 34
9, 328800, Note_on_c, 2, 70, 34
9, 328904, Note_on_c, 2, 74, 0
9, 328904, Note_on_c, 2, 70, 0
9, 328920, Note_on_c, 2, 65, 34
9, 328920, Note_on_c, 2, 72, 34
9, 329504, Note_on_c, 2, 65, 0
9, 329504, Note_on_c, 2, 72, 0
9, 329520, Note_on_c, 2, 70, 34
9, 329520, Note_on_c, 2, 62, 34
9, 329624, Note_on_c, 2, 70, 0
9, 329624, Note_on_c, 2, 62, 0
9, 329640, Note_on_c, 2, 62, 35
9, 329640, Note_on_c, 2, 70, 35
9, 330224, Note_on_c, 2, 62, 0
9, 330224, Note_on_c, 2, 70, 0
9, 330240, Note_on_c, 2, 65, 35
9, 330240, Note_on_c, 2, 72, 35
9, 330344, Note_on_c, 2, 65, 0
9, 330344, Note_on_c, 2, 72, 0
9, 330360, Note_on_c, 2, 74, 35
9, 330360, Note_on_c, 2, 70, 35
9, 330944, Note_on_c, 2, 74, 0
9, 330944, Note_on_c, 2, 70, 0
9, 330960, Note_on_c, 2, 65, 36
9, 330960, Note_on_c, 2, 72, 36
9, 331049, Note_on_c, 2, 65, 0
9, 331049, Note_on_c, 2, 72, 0
9, 331080, Note_on_c, 2, 65, 36
9, 331080, Note_on_c, 2, 72, 36
9, 331259, Note_on_c, 2, 65, 0
9, 331259, Note_on_c, 2, 72, 0
9, 331320, Note_on_c, 2, 70, 36
9, 331320, Note_on_c, 2, 62, 36
9, 331409, Note_on_c, 2, 70, 0
9, 331409, Note_on_c, 2, 62, 0
9, 331440, Note_on_c, 2, 70, 36
9, 331440, Note_on_c, 2, 62, 36
9, 331679, Note_on_c, 2, 70, 0
9, 331679, Note_on_c, 2, 62, 0
9, 332400, Note_on_c, 2, 72, 37
9, 332400, Note_on_c, 2, 65, 37
9, 332504, Note_on_c, 2, 72, 0
9, 332504, Note_on_c, 2, 65, 0
9, 332520, Note_on_c, 2, 65, 37
9, 332520, Note_on_c, 2, 72, 37
9, 333224, Note_on_c, 2, 65, 0
9, 333224, Note_on_c, 2, 72, 0
9, 333240, Note_on_c, 2, 70, 38
9, 333240, Note_on_c, 2, 74, 38
9, 333464, Note_on_c, 2, 70, 0
9, 333464, Note_on_c, 2, 74, 0
9, 333480, Note_on_c, 2, 70, 38
9, 333480, Note_on_c, 2, 62, 38
9, 333584, Note_on_c, 2, 70, 0
9, 333584, Note_on_c, 2, 62, 0
9, 333600, Note_on_c, 2, 72, 38
9, 333600, Note_on_c, 2, 65, 38
9, 333824, Note_on_c, 2, 72, 0
9, 333824, Note_on_c, 2, 65, 0
9, 333840, Note_on_c, 2, 65, 38
9, 333840, Note_on_c, 2, 72, 38
9, 333944, Note_on_c, 2, 65, 0
9, 333944, Note_on_c, 2, 72, 0
9, 333960, Note_on_c, 2, 65, 39
9, 333960, Note_on_c, 2, 72, 39
9, 334439, Note_on_c, 2, 72, 0
9, 334440, Note_on_c, 2, 74, 39
9, 334544, Note_on_c, 2, 65, 0
9, 334559, Note_on_c, 2, 74, 0
9, 334560, Note_on_c, 2, 75, 39
9, 334560, Note_on_c, 2, 72, 39
9, 334664, Note_on_c, 2, 75, 0
9, 334664, Note_on_c, 2, 72, 0
9, 334680, Note_on_c, 2, 74, 39
9, 334680, Note_on_c, 2, 70, 39
9, 334859, Note_on_c, 2, 74, 0
9, 334859, Note_on_c, 2, 70, 0
9, 334920, Note_on_c, 2, 70, 39
9, 334920, Note_on_c, 2, 62, 39
9, 335009, Note_on_c, 2, 70, 0
9, 335009, Note_on_c, 2, 62, 0
9, 335040, Note_on_c, 2, 65, 40
9, 335040, Note_on_c, 2, 72, 40
9, 335159, Note_on_c, 2, 72, 0
9, 335160, Note_on_c, 2, 74, 40
9, 335264, Note_on_c, 2, 65, 0
9, 335279, Note_on_c, 2, 74, 0
9, 335280, Note_on_c, 2, 75, 40
9, 335280, Note_on_c, 2, 72, 40
9, 335384, Note_on_c, 2, 75, 0
9, 335384, Note_on_c, 2, 72, 0
9, 335400, Note_on_c, 2, 70, 40
9, 335400, Note_on_c, 2, 74, 40
9, 335579, Note_on_c, 2, 70, 0
9, 335579, Note_on_c, 2, 74, 0
9, 335640, Note_on_c, 2, 70, 40
9, 335640, Note_on_c, 2, 62, 40
9, 335729, Note_on_c, 2, 70, 0
9, 335729, Note_on_c, 2, 62, 0
9, 335760, Note_on_c, 2, 72, 40
9, 335760, Note_on_c, 2, 65, 40
9, 335879, Note_on_c, 2, 72, 0
9, 335880, Note_on_c, 2, 74, 40
9, 335984, Note_on_c, 2, 65, 0
9, 335999, Note_on_c, 2, 74, 0
9, 336000, Note_on_c, 2, 75, 40
9, 336000, Note_on_c, 2, 72, 40
9, 336104, Note_on_c, 2, 75, 0
9, 336104, Note_on_c, 2, 72, 0
9, 336120, Note_on_c, 2, 74, 41
9, 336120, Note_on_c, 2, 70, 41
9, 336344, Note_on_c, 2, 74, 0
9, 336344, Note_on_c, 2, 70, 0
9, 336360, Note_on_c, 2, 69, 41
9, 336360, Note_on_c, 2, 72, 41
9, 336599, Note_on_c, 2, 69, 0
9, 336599, Note_on_c, 2, 72, 0
9, 336600, Note_on_c, 2, 70, 41
9, 336600, Note_on_c, 2, 67, 41
9, 336719, Note_on_c, 2, 70, 0
9, 336719, Note_on_c, 2, 67, 0
9, 336720, Note_on_c, 2, 65, 41
9, 336720, Note_on_c, 2, 69, 41
9, 336824, Note_on_c, 2, 65, 0
9, 336824, Note_on_c, 2, 69, 0
9, 336840, Note_on_c, 2, 70, 41
9, 336840, Note_on_c, 2, 67, 41
9, 337019, Note_on_c, 2, 70, 0
9, 337019, Note_on_c, 2, 67, 0
9, 337080, Note_on_c, 2, 64, 41
9, 337080, Note_on_c, 2, 72, 41
9, 337169, Note_on_c, 2, 64, 0
9, 337169, Note_on_c, 2, 72, 0
9, 337200, Note_on_c, 2, 65, 42
9, 337200, Note_on_c, 2, 53, 42
9, 337319, Note_on_c, 2, 65, 0
9, 337319, Note_on_c, 2, 53, 0
9, 337320, Note_on_c, 2, 55, 42
9, 337320, Note_on_c, 2, 67, 42
9, 337439, Note_on_c, 2, 55, 0
9, 337439, Note_on_c, 2, 67, 0
9, 337440, Note_on_c, 2, 69, 42
9, 337440, Note_on_c, 2, 57, 42
9, 337559, Note_on_c, 2, 69, 0
9, 337559, Note_on_c, 2, 57, 0
9, 337560, Note_on_c, 2, 70, 42
9, 337560, Note_on_c, 2, 58, 42
9, 337679, Note_on_c, 2, 70, 0
9, 337679, Note_on_c, 2, 58, 0
9, 337680, Note_on_c, 2, 72, 42
9, 337680, Note_on_c, 2, 60, 42
9, 337799, Note_on_c, 2, 72, 0
9, 337799, Note_on_c, 2, 60, 0
9, 337800, Note_on_c, 2, 62, 42
9, 337800, Note_on_c, 2, 74, 42
9, 337904, Note_on_c, 2, 62, 0
9, 337904, Note_on_c, 2, 74, 0
9, 337920, Note_on_c, 2, 74, 42
9, 337920, Note_on_c, 2, 62, 42
9, 338144, Note_on_c, 2, 74, 0
9, 338144, Note_on_c, 2, 62, 0
9, 338160, Note_on_c, 2, 70, 42
9, 338160, Note_on_c, 2, 74, 42
9, 338264, Note_on_c, 2, 70, 0
9, 338264, Note_on_c, 2, 74, 0
9, 338280, Note_on_c, 2, 70, 43
9, 338280, Note_on_c, 2, 74, 43
9, 338864, Note_on_c, 2, 70, 0
9, 338864, Note_on_c, 2, 74, 0
9, 338880, Note_on_c, 2, 75, 43
9, 338880, Note_on_c, 2, 72, 43
9, 338984, Note_on_c, 2, 75, 0
9, 338984, Note_on_c, 2, 72, 0
9, 339000, Note_on_c, 2, 74, 43
9, 339000, Note_on_c, 2, 77, 43
9, 339344, Note_on_c, 2, 74, 0
9, 339360, Note_on_c, 2, 70, 50
9, 339584, Note_on_c, 2, 77, 0
9, 339600, Note_on_c, 2, 77, 50
9, 339704, Note_on_c, 2, 70, 0
9, 339704, Note_on_c, 2, 77, 0
9, 339720, Note_on_c, 2, 63, 50
9, 339720, Note_on_c, 2, 75, 50
9, 339959, Note_on_c, 2, 63, 0
9, 339960, Note_on_c, 2, 65, 50
9, 340064, Note_on_c, 2, 65, 0
9, 340080, Note_on_c, 2, 67, 50
9, 340304, Note_on_c, 2, 75, 0
9, 340320, Note_on_c, 2, 74, 50
9, 340424, Note_on_c, 2, 67, 0
9, 340424, Note_on_c, 2, 74, 0
9, 340440, Note_on_c, 2, 67, 50
9, 340440, Note_on_c, 2, 72, 50
9, 340799, Note_on_c, 2, 67, 0
9, 340800, Note_on_c, 2, 63, 50
9, 341024, Note_on_c, 2, 72, 0
9, 341024, Note_on_c, 2, 63, 0
9, 341040, Note_on_c, 2, 70, 50
9, 341040, Note_on_c, 2, 62, 50
9, 341144, Note_on_c, 2, 70, 0
9, 341144, Note_on_c, 2, 62, 0
9, 341160, Note_on_c, 2, 70, 50
9, 341160, Note_on_c, 2, 62, 50
9, 341744, Note_on_c, 2, 70, 0
9, 341744, Note_on_c, 2, 62, 0
9, 341760, Note_on_c, 2, 72, 50
9, 341760, Note_on_c, 2, 65, 50
9, 341864, Note_on_c, 2, 72, 0
9, 341864, Note_on_c, 2, 65, 0
9, 341880, Note_on_c, 2, 70, 50
9, 341880, Note_on_c, 2, 74, 50
9, 342464, Note_on_c, 2, 70, 0
9, 342464, Note_on_c, 2, 74, 0
9, 342480, Note_on_c, 2, 72, 50
9, 342480, Note_on_c, 2, 65, 50
9, 342569, Note_on_c, 2, 72, 0
9, 342569, Note_on_c, 2, 65, 0
9, 342600, Note_on_c, 2, 65, 50
9, 342600, Note_on_c, 2, 72, 50
9, 342779, Note_on_c, 2, 65, 0
9, 342779, Note_on_c, 2, 72, 0
9, 342840, Note_on_c, 2, 62, 50
9, 342840, Note_on_c, 2, 70, 50
9, 342929, Note_on_c, 2, 62, 0
9, 342929, Note_on_c, 2, 70, 0
9, 342960, Note_on_c, 2, 62, 50
9, 342960, Note_on_c, 2, 70, 50
9, 343199, Note_on_c, 2, 62, 0
9, 343199, Note_on_c, 2, 70, 0
9, 343920, Note_on_c, 2, 65, 50
9, 343920, Note_on_c, 2, 72, 50
9, 344024, Note_on_c, 2, 65, 0
9, 344024, Note_on_c, 2, 72, 0
9, 344040, Note_on_c, 2, 65, 50
9, 344040, Note_on_c, 2, 72, 50
9, 344744, Note_on_c, 2, 65, 0
9, 344744, Note_on_c, 2, 72, 0
9, 344760, Note_on_c, 2, 70, 50
9, 344760, Note_on_c, 2, 74, 50
9, 344984, Note_on_c, 2, 70, 0
9, 344984, Note_on_c, 2, 74, 0
9, 345000, Note_on_c, 2, 70, 50
9, 345000, Note_on_c, 2, 62, 50
9, 345104, Note_on_c, 2, 70, 0
9, 345104, Note_on_c, 2, 62, 0
9, 345120, Note_on_c, 2, 72, 50
9, 345120, Note_on_c, 2, 65, 50
9, 345344, Note_on_c, 2, 72, 0
9, 345344, Note_on_c, 2, 65, 0
9, 345360, Note_on_c, 2, 65, 50
9, 345360, Note_on_c, 2, 72, 50
9, 345464, Note_on_c, 2, 65, 0
9, 345464, Note_on_c, 2, 72, 0
9, 345480, Note_on_c, 2, 72, 50
9, 345480, Note_on_c, 2, 65, 50
9, 345959, Note_on_c, 2, 72, 0
9, 345960, Note_on_c, 2, 74, 50
9, 346064, Note_on_c, 2, 65, 0
9, 346079, Note_on_c, 2, 74, 0
9, 346080, Note_on_c, 2, 72, 50
9, 346080, Note_on_c, 2, 75, 50
9, 346184, Note_on_c, 2, 72, 0
9, 346184, Note_on_c, 2, 75, 0
9, 346200, Note_on_c, 2, 74, 50
9, 346200, Note_on_c, 2, 70, 50
9, 346379, Note_on_c, 2, 74, 0
9, 346379, Note_on_c, 2, 70, 0
9, 346440, Note_on_c, 2, 70, 50
9, 346440, Note_on_c, 2, 62, 50
9, 346544, Note_on_c, 2, 70, 0
9, 346544, Note_on_c, 2, 62, 0
9, 346560, Note_on_c, 2, 65, 68
9, 346560, Note_on_c, 2, 72, 68
9, 346664, Note_on_c, 2, 72, 0
9, 346680, Note_on_c, 2, 74, 68
9, 346799, Note_on_c, 2, 65, 0
9, 346799, Note_on_c, 2, 74, 0
9, 346800, Note_on_c, 2, 75, 68
9, 346800, Note_on_c, 2, 72, 68
9, 346904, Note_on_c, 2, 75, 0
9, 346904, Note_on_c, 2, 72, 0
9, 346920, Note_on_c, 2, 74, 68
9, 346920, Note_on_c, 2, 70, 68
9, 347099, Note_on_c, 2, 74, 0
9, 347099, Note_on_c, 2, 70, 0
9, 347160, Note_on_c, 2, 62, 68
9, 347160, Note_on_c, 2, 70, 68
9, 347264, Note_on_c, 2, 62, 0
9, 347264, Note_on_c, 2, 70, 0
9, 347280, Note_on_c, 2, 65, 68
9, 347280, Note_on_c, 2, 72, 68
9, 347399, Note_on_c, 2, 72, 0
9, 347400, Note_on_c, 2, 74, 68
9, 347504, Note_on_c, 2, 65, 0
9, 347519, Note_on_c, 2, 74, 0
9, 347520, Note_on_c, 2, 75, 68
9, 347520, Note_on_c, 2, 72, 68
9, 347624, Note_on_c, 2, 75, 0
9, 347624, Note_on_c, 2, 72, 0
9, 347640, Note_on_c, 2, 70, 68
9, 347640, Note_on_c, 2, 74, 68
9, 347864, Note_on_c, 2, 70, 0
9, 347864, Note_on_c, 2, 74, 0
9, 347880, Note_on_c, 2, 72, 68
9, 347880, Note_on_c, 2, 69, 68
9, 348119, Note_on_c, 2, 72, 0
9, 348119, Note_on_c, 2, 69, 0
9, 348120, Note_on_c, 2, 70, 68
9, 348120, Note_on_c, 2, 67, 68
9, 348239, Note_on_c, 2, 70, 0
9, 348239, Note_on_c, 2, 67, 0
9, 348240, Note_on_c, 2, 69, 68
9, 348240, Note_on_c, 2, 65, 68
9, 348344, Note_on_c, 2, 69, 0
9, 348344, Note_on_c, 2, 65, 0
9, 348360, Note_on_c, 2, 70, 68
9, 348360, Note_on_c, 2, 67, 68
9, 348539, Note_on_c, 2, 70, 0
9, 348539, Note_on_c, 2, 67, 0
9, 348600, Note_on_c, 2, 72, 68
9, 348600, Note_on_c, 2, 64, 68
9, 348689, Note_on_c, 2, 72, 0
9, 348689, Note_on_c, 2, 64, 0
9, 348720, Note_on_c, 2, 53, 68
9, 348720, Note_on_c, 2, 65, 68
9, 348839, Note_on_c, 2, 53, 0
9, 348839, Note_on_c, 2, 65, 0
9, 348840, Note_on_c, 2, 55, 68
9, 348840, Note_on_c, 2, 67, 68
9, 348959, Note_on_c, 2, 55, 0
9, 348959, Note_on_c, 2, 67, 0
9, 348960, Note_on_c, 2, 69, 68
9, 348960, Note_on_c, 2, 57, 68
9, 349079, Note_on_c, 2, 69, 0
9, 349079, Note_on_c, 2, 57, 0
9, 349080, Note_on_c, 2, 70, 68
9, 349080, Note_on_c, 2, 58, 68
9, 349199, Note_on_c, 2, 70, 0
9, 349199, Note_on_c, 2, 58, 0
9, 349200, Note_on_c, 2, 72, 68
9, 349200, Note_on_c, 2, 60, 68
9, 349319, Note_on_c, 2, 72, 0
9, 349319, Note_on_c, 2, 60, 0
9, 349320, Note_on_c, 2, 74, 68
9, 349320, Note_on_c, 2, 62, 68
9, 349424, Note_on_c, 2, 74, 0
9, 349424, Note_on_c, 2, 62, 0
9, 349440, Note_on_c, 2, 62, 68
9, 349440, Note_on_c, 2, 74, 68
9, 349664, Note_on_c, 2, 62, 0
9, 349664, Note_on_c, 2, 74, 0
9, 349680, Note_on_c, 2, 70, 68
9, 349680, Note_on_c, 2, 74, 68
9, 349784, Note_on_c, 2, 70, 0
9, 349784, Note_on_c, 2, 74, 0
9, 349800, Note_on_c, 2, 74, 68
9, 349800, Note_on_c, 2, 70, 68
9, 350384, Note_on_c, 2, 74, 0
9, 350384, Note_on_c, 2, 70, 0
9, 350400, Note_on_c, 2, 72, 68
9, 350400, Note_on_c, 2, 75, 68
9, 350504, Note_on_c, 2, 72, 0
9, 350504, Note_on_c, 2, 75, 0
9, 350520, Note_on_c, 2, 74, 68
9, 350520, Note_on_c, 2, 77, 68
9, 350879, Note_on_c, 2, 74, 0
9, 350880, Note_on_c, 2, 70, 68
9, 351104, Note_on_c, 2, 77, 0
9, 351120, Note_on_c, 2, 77, 68
9, 351224, Note_on_c, 2, 70, 0
9, 351224, Note_on_c, 2, 77, 0
9, 351240, Note_on_c, 2, 70, 68
9, 351240, Note_on_c, 2, 75, 68
9, 351824, Note_on_c, 2, 75, 0
9, 351840, Note_on_c, 2, 74, 68
9, 351944, Note_on_c, 2, 70, 0
9, 351944, Note_on_c, 2, 74, 0
9, 351958, Control_c, 2, 11, 107
9, 351960, Note_on_c, 2, 72, 80
9, 351960, Note_on_c, 2, 70, 80
9, 352319, Note_on_c, 2, 70, 0
9, 352320, Note_on_c, 2, 63, 80
9, 352320, Control_c, 2, 11, 127
9, 352544, Note_on_c, 2, 72, 0
9, 352544, Note_on_c, 2, 63, 0
9, 352560, Note_on_c, 2, 70, 80
9, 352560, Note_on_c, 2, 62, 80
9, 352664, Note_on_c, 2, 70, 0
9, 352664, Note_on_c, 2, 62, 0
9, 352680, Note_on_c, 2, 62, 86
9, 352680, Note_on_c, 2, 70, 86
9, 353264, Note_on_c, 2, 62, 0
9, 353264, Note_on_c, 2, 70, 0
9, 353280, Note_on_c, 2, 72, 86
9, 353280, Note_on_c, 2, 65, 86
9, 353384, Note_on_c, 2, 72, 0
9, 353384, Note_on_c, 2, 65, 0
9, 353400, Note_on_c, 2, 74, 86
9, 353400, Note_on_c, 2, 70, 86
9, 353984, Note_on_c, 2, 74, 0
9, 353984, Note_on_c, 2, 70, 0
9, 354000, Note_on_c, 2, 65, 86
9, 354000, Note_on_c, 2, 72, 86
9, 354089, Note_on_c, 2, 65, 0
9, 354089, Note_on_c, 2, 72, 0
9, 354120, Note_on_c, 2, 65, 86
9, 354120, Note_on_c, 2, 72, 86
9, 354299, Note_on_c, 2, 65, 0
9, 354299, Note_on_c, 2, 72, 0
9, 354360, Note_on_c, 2, 70, 86
9, 354360, Note_on_c, 2, 62, 86
9, 354449, Note_on_c, 2, 70, 0
9, 354449, Note_on_c, 2, 62, 0
9, 354480, Note_on_c, 2, 70, 86
9, 354480, Note_on_c, 2, 62, 86
9, 354704, Note_on_c, 2, 70, 0
9, 354704, Note_on_c, 2, 62, 0
9, 354720, Note_on_c, 2, 77, 86
9, 354720, Note_on_c, 2, 74, 86
9, 354824, Note_on_c, 2, 77, 0
9, 354824, Note_on_c, 2, 74, 0
9, 354838, Control_c, 2, 11, 117
9, 354840, Note_on_c, 2, 74, 92
9, 354840, Note_on_c, 2, 77, 92
9, 355200, Control_c, 2, 11, 127
9, 355424, Note_on_c, 2, 74, 0
9, 355424, Note_on_c, 2, 77, 0
9, 355440, Note_on_c, 2, 75, 92
9, 355440, Note_on_c, 2, 72, 92
9, 355544, Note_on_c, 2, 75, 0
9, 355544, Note_on_c, 2, 72, 0
9, 355560, Note_on_c, 2, 74, 92
9, 355560, Note_on_c, 2, 70, 92
9, 356144, Note_on_c, 2, 74, 0
9, 356144, Note_on_c, 2, 70, 0
9, 356160, Note_on_c, 2, 74, 92
9, 356160, Note_on_c, 2, 82, 92
9, 356264, Note_on_c, 2, 74, 0
9, 356264, Note_on_c, 2, 82, 0
9, 356280, Note_on_c, 2, 74, 92
9, 356280, Note_on_c, 2, 82, 92
9, 356624, Note_on_c, 2, 74, 0
9, 356640, Note_on_c, 2, 79, 92
9, 356864, Note_on_c, 2, 82, 0
9, 356864, Note_on_c, 2, 79, 0
9, 356880, Note_on_c, 2, 77, 92
9, 356880, Note_on_c, 2, 80, 92
9, 356984, Note_on_c, 2, 77, 0
9, 356984, Note_on_c, 2, 80, 0
9, 357000, Note_on_c, 2, 79, 92
9, 357000, Note_on_c, 2, 75, 92
9, 357584, Note_on_c, 2, 79, 0
9, 357584, Note_on_c, 2, 75, 0
9, 357600, Note_on_c, 2, 75, 92
9, 357600, Note_on_c, 2, 67, 92
9, 357704, Note_on_c, 2, 75, 0
9, 357704, Note_on_c, 2, 67, 0
9, 357720, Note_on_c, 2, 72, 92
9, 357720, Note_on_c, 2, 75, 92
9, 357944, Note_on_c, 2, 72, 0
9, 357944, Note_on_c, 2, 75, 0
9, 357960, Note_on_c, 2, 72, 92
9, 357960, Note_on_c, 2, 84, 92
9, 358064, Note_on_c, 2, 72, 0
9, 358080, Note_on_c, 2, 75, 92
9, 358184, Note_on_c, 2, 84, 0
9, 358199, Note_on_c, 2, 75, 0
9, 358200, Note_on_c, 2, 74, 92
9, 358200, Note_on_c, 2, 82, 92
9, 358319, Note_on_c, 2, 74, 0
9, 358319, Note_on_c, 2, 82, 0
9, 358320, Note_on_c, 2, 72, 92
9, 358320, Note_on_c, 2, 81, 92
9, 358424, Note_on_c, 2, 72, 0
9, 358424, Note_on_c, 2, 81, 0
9, 358440, Note_on_c, 2, 84, 92
9, 358440, Note_on_c, 2, 75, 92
9, 358664, Note_on_c, 2, 84, 0
9, 358664, Note_on_c, 2, 75, 0
9, 358680, Note_on_c, 2, 72, 92
9, 358680, Note_on_c, 2, 81, 92
9, 358919, Note_on_c, 2, 72, 0
9, 358919, Note_on_c, 2, 81, 0
9, 358920, Note_on_c, 2, 79, 92
9, 358920, Note_on_c, 2, 70, 92
9, 359039, Note_on_c, 2, 79, 0
9, 359039, Note_on_c, 2, 70, 0
9, 359040, Note_on_c, 2, 77, 92
9, 359040, Note_on_c, 2, 69, 92
9, 359144, Note_on_c, 2, 77, 0
9, 359144, Note_on_c, 2, 69, 0
9, 359160, Note_on_c, 2, 70, 92
9, 359160, Note_on_c, 2, 79, 92
9, 359384, Note_on_c, 2, 70, 0
9, 359384, Note_on_c, 2, 79, 0
9, 359400, Note_on_c, 2, 72, 92
9, 359400, Note_on_c, 2, 81, 92
9, 359504, Note_on_c, 2, 72, 0
9, 359504, Note_on_c, 2, 81, 0
9, 359520, Note_on_c, 2, 74, 92
9, 359520, Note_on_c, 2, 82, 92
9, 359639, Note_on_c, 2, 74, 0
9, 359639, Note_on_c, 2, 82, 0
9, 359640, Note_on_c, 2, 84, 92
9, 359640, Note_on_c, 2, 75, 92
9, 359759, Note_on_c, 2, 84, 0
9, 359759, Note_on_c, 2, 75, 0
9, 359760, Note_on_c, 2, 77, 92
9, 359760, Note_on_c, 2, 86, 92
9, 359999, Note_on_c, 2, 77, 0
9, 359999, Note_on_c, 2, 86, 0
9, 360000, Note_on_c, 2, 75, 92
9, 360000, Note_on_c, 2, 84, 92
9, 360119, Note_on_c, 2, 75, 0
9, 360119, Note_on_c, 2, 84, 0
9, 360120, Note_on_c, 2, 81, 92
9, 360120, Note_on_c, 2, 72, 92
9, 360224, Note_on_c, 2, 81, 0
9, 360224, Note_on_c, 2, 72, 0
9, 360240, Note_on_c, 2, 82, 92
9, 360240, Note_on_c, 2, 74, 92
9, 360359, Note_on_c, 2, 82, 0
9, 360359, Note_on_c, 2, 74, 0
9, 360360, Note_on_c, 2, 84, 92
9, 360360, Note_on_c, 2, 75, 92
9, 360479, Note_on_c, 2, 84, 0
9, 360479, Note_on_c, 2, 75, 0
9, 360480, Note_on_c, 2, 77, 92
9, 360480, Note_on_c, 2, 86, 92
9, 360719, Note_on_c, 2, 77, 0
9, 360719, Note_on_c, 2, 86, 0
9, 360720, Note_on_c, 2, 84, 92
9, 360720, Note_on_c, 2, 75, 92
9, 360839, Note_on_c, 2, 84, 0
9, 360839, Note_on_c, 2, 75, 0
9, 360840, Note_on_c, 2, 72, 92
9, 360840, Note_on_c, 2, 82, 92
9, 360944, Note_on_c, 2, 72, 0
9, 360944, Note_on_c, 2, 82, 0
9, 360960, Note_on_c, 2, 74, 92
9, 360960, Note_on_c, 2, 82, 92
9, 361184, Note_on_c, 2, 74, 0
9, 361184, Note_on_c, 2, 82, 0
9, 361200, Note_on_c, 2, 58, 92
9, 361304, Note_on_c, 2, 58, 0
9, 361320, Note_on_c, 2, 58, 100
9, 361380, Control_c, 2, 11, 107
9, 361664, Note_on_c, 2, 58, 0
9, 361680, Control_c, 2, 11, 127
9, 361920, Note_on_c, 2, 60, 92
9, 362024, Note_on_c, 2, 60, 0
9, 362040, Note_on_c, 2, 60, 100
9, 362100, Control_c, 2, 11, 107
9, 362399, Note_on_c, 2, 60, 0
9, 362638, Control_c, 2, 11, 127
9, 362640, Note_on_c, 2, 62, 92
9, 362744, Note_on_c, 2, 62, 0
9, 362760, Note_on_c, 2, 67, 92
9, 362984, Note_on_c, 2, 67, 0
9, 363000, Note_on_c, 2, 65, 92
9, 363104, Note_on_c, 2, 65, 0
9, 363120, Note_on_c, 2, 63, 92
9, 363359, Note_on_c, 2, 63, 0
9, 363480, Note_on_c, 2, 62, 92
9, 363719, Note_on_c, 2, 62, 0
9, 363840, Note_on_c, 2, 60, 92
9, 364064, Note_on_c, 2, 60, 0
9, 364080, Note_on_c, 2, 57, 92
9, 364080, Note_on_c, 2, 69, 92
9, 364184, Note_on_c, 2, 57, 0
9, 364184, Note_on_c, 2, 69, 0
9, 364200, Note_on_c, 2, 57, 100
9, 364200, Note_on_c, 2, 69, 100
9, 364260, Control_c, 2, 11, 107
9, 364559, Note_on_c, 2, 57, 0
9, 364559, Note_on_c, 2, 69, 0
9, 364798, Control_c, 2, 11, 127
9, 364800, Note_on_c, 2, 70, 92
9, 364800, Note_on_c, 2, 58, 92
9, 364904, Note_on_c, 2, 70, 0
9, 364904, Note_on_c, 2, 58, 0
9, 364920, Note_on_c, 2, 70, 100
9, 364920, Note_on_c, 2, 58, 100
9, 364980, Control_c, 2, 11, 107
9, 365279, Note_on_c, 2, 70, 0
9, 365279, Note_on_c, 2, 58, 0
9, 365518, Control_c, 2, 11, 127
9, 365520, Note_on_c, 2, 72, 92
9, 365520, Note_on_c, 2, 60, 92
9, 365624, Note_on_c, 2, 72, 0
9, 365624, Note_on_c, 2, 60, 0
9, 365640, Note_on_c, 2, 77, 92
9, 365640, Note_on_c, 2, 65, 92
9, 365864, Note_on_c, 2, 77, 0
9, 365864, Note_on_c, 2, 65, 0
9, 365880, Note_on_c, 2, 65, 92
9, 365880, Note_on_c, 2, 77, 92
9, 365984, Note_on_c, 2, 65, 0
9, 365984, Note_on_c, 2, 77, 0
9, 366000, Note_on_c, 2, 72, 92
9, 366000, Note_on_c, 2, 76, 92
9, 366239, Note_on_c, 2, 72, 0
9, 366239, Note_on_c, 2, 76, 0
9, 366360, Note_on_c, 2, 72, 92
9, 366360, Note_on_c, 2, 77, 92
9, 366599, Note_on_c, 2, 72, 0
9, 366599, Note_on_c, 2, 77, 0
9, 366720, Note_on_c, 2, 70, 92
9, 366720, Note_on_c, 2, 77, 92
9, 366959, Note_on_c, 2, 70, 0
9, 366959, Note_on_c, 2, 77, 0
9, 367080, Note_on_c, 2, 70, 92
9, 367080, Note_on_c, 2, 75, 92
9, 367319, Note_on_c, 2, 70, 0
9, 367319, Note_on_c, 2, 75, 0
9, 367440, Note_on_c, 2, 69, 92
9, 367440, Note_on_c, 2, 75, 92
9, 367679, Note_on_c, 2, 69, 0
9, 367679, Note_on_c, 2, 75, 0
9, 367800, Note_on_c, 2, 69, 92
9, 367800, Note_on_c, 2, 74, 92
9, 368039, Note_on_c, 2, 69, 0
9, 368039, Note_on_c, 2, 74, 0
9, 368160, Note_on_c, 2, 74, 92
9, 368160, Note_on_c, 2, 71, 92
9, 368399, Note_on_c, 2, 74, 0
9, 368399, Note_on_c, 2, 71, 0
9, 371040, Note_on_c, 2, 71, 92
9, 371264, Note_on_c, 2, 71, 0
9, 371280, Note_on_c, 2, 71, 92
9, 371384, Note_on_c, 2, 71, 0
9, 371400, Note_on_c, 2, 74, 92
9, 371624, Note_on_c, 2, 74, 0
9, 371640, Note_on_c, 2, 74, 92
9, 371744, Note_on_c, 2, 74, 0
9, 371760, Note_on_c, 2, 67, 92
9, 371999, Note_on_c, 2, 67, 0
9, 372120, Note_on_c, 2, 65, 92
9, 372359, Note_on_c, 2, 65, 0
9, 372720, Note_on_c, 2, 62, 92
9, 372824, Note_on_c, 2, 62, 0
9, 372840, Note_on_c, 2, 68, 92
9, 373064, Note_on_c, 2, 68, 0
9, 373080, Note_on_c, 2, 67, 92
9, 373184, Note_on_c, 2, 67, 0
9, 373200, Note_on_c, 2, 65, 92
9, 373439, Note_on_c, 2, 65, 0
9, 373560, Note_on_c, 2, 65, 92
9, 373799, Note_on_c, 2, 65, 0
9, 373920, Note_on_c, 2, 63, 92
9, 374159, Note_on_c, 2, 63, 0
9, 376320, Note_on_c, 2, 71, 92
9, 376320, Note_on_c, 2, 67, 92
9, 376424, Note_on_c, 2, 71, 0
9, 376424, Note_on_c, 2, 67, 0
9, 376440, Note_on_c, 2, 72, 92
9, 376440, Note_on_c, 2, 67, 92
9, 376664, Note_on_c, 2, 72, 0
9, 376664, Note_on_c, 2, 67, 0
9, 376680, Note_on_c, 2, 72, 92
9, 376680, Note_on_c, 2, 67, 92
9, 376784, Note_on_c, 2, 72, 0
9, 376784, Note_on_c, 2, 67, 0
9, 376800, Note_on_c, 2, 70, 92
9, 376800, Note_on_c, 2, 65, 92
9, 377024, Note_on_c, 2, 70, 0
9, 377024, Note_on_c, 2, 65, 0
9, 377040, Note_on_c, 2, 70, 92
9, 377040, Note_on_c, 2, 65, 92
9, 377144, Note_on_c, 2, 70, 0
9, 377144, Note_on_c, 2, 65, 0
9, 377160, Note_on_c, 2, 65, 92
9, 377160, Note_on_c, 2, 74, 92
9, 377384, Note_on_c, 2, 65, 0
9, 377384, Note_on_c, 2, 74, 0
9, 377400, Note_on_c, 2, 77, 92
9, 377400, Note_on_c, 2, 74, 92
9, 377504, Note_on_c, 2, 77, 0
9, 377504, Note_on_c, 2, 74, 0
9, 377520, Note_on_c, 2, 79, 92
9, 377520, Note_on_c, 2, 75, 92
9, 377744, Note_on_c, 2, 79, 0
9, 377744, Note_on_c, 2, 75, 0
9, 377760, Note_on_c, 2, 74, 92
9, 377760, Note_on_c, 2, 62, 92
9, 377864, Note_on_c, 2, 74, 0
9, 377864, Note_on_c, 2, 62, 0
9, 377880, Note_on_c, 2, 67, 92
9, 377880, Note_on_c, 2, 79, 92
9, 378104, Note_on_c, 2, 67, 0
9, 378104, Note_on_c, 2, 79, 0
9, 378120, Note_on_c, 2, 65, 92
9, 378120, Note_on_c, 2, 77, 92
9, 378224, Note_on_c, 2, 65, 0
9, 378224, Note_on_c, 2, 77, 0
9, 378240, Note_on_c, 2, 63, 92
9, 378240, Note_on_c, 2, 75, 92
9, 378464, Note_on_c, 2, 63, 0
9, 378464, Note_on_c, 2, 75, 0
9, 378480, Note_on_c, 2, 67, 92
9, 378480, Note_on_c, 2, 75, 92
9, 378584, Note_on_c, 2, 67, 0
9, 378584, Note_on_c, 2, 75, 0
9, 378600, Note_on_c, 2, 67, 100
9, 378600, Note_on_c, 2, 75, 100
9, 378660, Control_c, 2, 11, 107
9, 378959, Note_on_c, 2, 67, 0
9, 378959, Note_on_c, 2, 75, 0
9, 379198, Control_c, 2, 11, 127
9, 379200, Note_on_c, 2, 77, 92
9, 379200, Note_on_c, 2, 74, 92
9, 379304, Note_on_c, 2, 77, 0
9, 379304, Note_on_c, 2, 74, 0
9, 379320, Note_on_c, 2, 74, 100
9, 379320, Note_on_c, 2, 77, 100
9, 379380, Control_c, 2, 11, 107
9, 379679, Note_on_c, 2, 74, 0
9, 379679, Note_on_c, 2, 77, 0
9, 379918, Control_c, 2, 11, 127
9, 379920, Note_on_c, 2, 79, 92
9, 379920, Note_on_c, 2, 67, 92
9, 380009, Note_on_c, 2, 79, 0
9, 380009, Note_on_c, 2, 67, 0
9, 380040, Note_on_c, 2, 72, 92
9, 380040, Note_on_c, 2, 79, 92
9, 380249, Note_on_c, 2, 72, 0
9, 380249, Note_on_c, 2, 79, 0
9, 380280, Note_on_c, 2, 79, 92
9, 380280, Note_on_c, 2, 70, 92
9, 380369, Note_on_c, 2, 79, 0
9, 380369, Note_on_c, 2, 70, 0
9, 380400, Note_on_c, 2, 68, 92
9, 380400, Note_on_c, 2, 77, 92
9, 380609, Note_on_c, 2, 68, 0
9, 380640, Note_on_c, 2, 65, 92
9, 380729, Note_on_c, 2, 65, 0
9, 380760, Note_on_c, 2, 72, 92
9, 380969, Note_on_c, 2, 77, 0
9, 380969, Note_on_c, 2, 72, 0
9, 381000, Note_on_c, 2, 76, 92
9, 381000, Note_on_c, 2, 70, 92
9, 381089, Note_on_c, 2, 76, 0
9, 381089, Note_on_c, 2, 70, 0
9, 381120, Note_on_c, 2, 68, 92
9, 381120, Note_on_c, 2, 77, 92
9, 381344, Note_on_c, 2, 68, 0
9, 381344, Note_on_c, 2, 77, 0
9, 381360, Note_on_c, 2, 73, 92
9, 381360, Note_on_c, 2, 61, 92
9, 381464, Note_on_c, 2, 73, 0
9, 381464, Note_on_c, 2, 61, 0
9, 381480, Note_on_c, 2, 61, 100
9, 381480, Note_on_c, 2, 73, 100
9, 381540, Control_c, 2, 11, 107
9, 382064, Note_on_c, 2, 61, 0
9, 382064, Note_on_c, 2, 73, 0
9, 382078, Control_c, 2, 11, 127
9, 382080, Note_on_c, 2, 68, 92
9, 382080, Note_on_c, 2, 80, 92
9, 382184, Note_on_c, 2, 68, 0
9, 382184, Note_on_c, 2, 80, 0
9, 382200, Note_on_c, 2, 73, 92
9, 382200, Note_on_c, 2, 85, 92
9, 382424, Note_on_c, 2, 73, 0
9, 382424, Note_on_c, 2, 85, 0
9, 382440, Note_on_c, 2, 84, 92
9, 382440, Note_on_c, 2, 72, 92
9, 382544, Note_on_c, 2, 84, 0
9, 382544, Note_on_c, 2, 72, 0
9, 382560, Note_on_c, 2, 70, 92
9, 382560, Note_on_c, 2, 82, 92
9, 382784, Note_on_c, 2, 70, 0
9, 382784, Note_on_c, 2, 82, 0
9, 382800, Note_on_c, 2, 63, 92
9, 382800, Note_on_c, 2, 75, 92
9, 382904, Note_on_c, 2, 63, 0
9, 382904, Note_on_c, 2, 75, 0
9, 382920, Note_on_c, 2, 63, 100
9, 382920, Note_on_c, 2, 75, 100
9, 382980, Control_c, 2, 11, 107
9, 383504, Note_on_c, 2, 63, 0
9, 383504, Note_on_c, 2, 75, 0
9, 383518, Control_c, 2, 11, 127
9, 383520, Note_on_c, 2, 80, 92
9, 383520, Note_on_c, 2, 68, 92
9, 383864, Note_on_c, 2, 80, 0
9, 383864, Note_on_c, 2, 68, 0
9, 383880, Note_on_c, 2, 67, 92
9, 383880, Note_on_c, 2, 79, 92
9, 383984, Note_on_c, 2, 67, 0
9, 383984, Note_on_c, 2, 79, 0
9, 384000, Note_on_c, 2, 78, 92
9, 384000, Note_on_c, 2, 66, 92
9, 384104, Note_on_c, 2, 78, 0
9, 384104, Note_on_c, 2, 66, 0
9, 384120, Note_on_c, 2, 78, 92
9, 384120, Note_on_c, 2, 75, 92
9, 384224, Note_on_c, 2, 78, 0
9, 384224, Note_on_c, 2, 75, 0
9, 384240, Note_on_c, 2, 75, 92
9, 384240, Note_on_c, 2, 78, 92
9, 384344, Note_on_c, 2, 75, 0
9, 384344, Note_on_c, 2, 78, 0
9, 384360, Note_on_c, 2, 75, 92
9, 384360, Note_on_c, 2, 78, 92
9, 384464, Note_on_c, 2, 75, 0
9, 384464, Note_on_c, 2, 78, 0
9, 384480, Note_on_c, 2, 73, 92
9, 384480, Note_on_c, 2, 77, 92
9, 384584, Note_on_c, 2, 73, 0
9, 384584, Note_on_c, 2, 77, 0
9, 384600, Note_on_c, 2, 72, 92
9, 384600, Note_on_c, 2, 75, 92
9, 384704, Note_on_c, 2, 72, 0
9, 384704, Note_on_c, 2, 75, 0
9, 384720, Note_on_c, 2, 75, 92
9, 384720, Note_on_c, 2, 72, 92
9, 384824, Note_on_c, 2, 75, 0
9, 384824, Note_on_c, 2, 72, 0
9, 384840, Note_on_c, 2, 72, 92
9, 384840, Note_on_c, 2, 75, 92
9, 384944, Note_on_c, 2, 72, 0
9, 384944, Note_on_c, 2, 75, 0
9, 384960, Note_on_c, 2, 72, 92
9, 384960, Note_on_c, 2, 75, 92
9, 385064, Note_on_c, 2, 72, 0
9, 385064, Note_on_c, 2, 75, 0
9, 385080, Note_on_c, 2, 75, 92
9, 385080, Note_on_c, 2, 72, 92
9, 385184, Note_on_c, 2, 75, 0
9, 385184, Note_on_c, 2, 72, 0
9, 385200, Note_on_c, 2, 77, 92
9, 385200, Note_on_c, 2, 73, 92
9, 385304, Note_on_c, 2, 77, 0
9, 385304, Note_on_c, 2, 73, 0
9, 385320, Note_on_c, 2, 78, 92
9, 385320, Note_on_c, 2, 75, 92
9, 385424, Note_on_c, 2, 78, 0
9, 385424, Note_on_c, 2, 75, 0
9, 385440, Note_on_c, 2, 77, 92
9, 385440, Note_on_c, 2, 65, 92
9, 385544, Note_on_c, 2, 77, 0
9, 385544, Note_on_c, 2, 65, 0
9, 385560, Note_on_c, 2, 77, 92
9, 385560, Note_on_c, 2, 73, 92
9, 385664, Note_on_c, 2, 77, 0
9, 385664, Note_on_c, 2, 73, 0
9, 385680, Note_on_c, 2, 77, 92
9, 385680, Note_on_c, 2, 73, 92
9, 385784, Note_on_c, 2, 77, 0
9, 385784, Note_on_c, 2, 73, 0
9, 385800, Note_on_c, 2, 77, 92
9, 385800, Note_on_c, 2, 73, 92
9, 385904, Note_on_c, 2, 77, 0
9, 385904, Note_on_c, 2, 73, 0
9, 385920, Note_on_c, 2, 75, 92
9, 385920, Note_on_c, 2, 72, 92
9, 386024, Note_on_c, 2, 75, 0
9, 386024, Note_on_c, 2, 72, 0
9, 386040, Note_on_c, 2, 73, 92
9, 386040, Note_on_c, 2, 70, 92
9, 386144, Note_on_c, 2, 73, 0
9, 386144, Note_on_c, 2, 70, 0
9, 386160, Note_on_c, 2, 73, 92
9, 386160, Note_on_c, 2, 70, 92
9, 386264, Note_on_c, 2, 73, 0
9, 386264, Note_on_c, 2, 70, 0
9, 386280, Note_on_c, 2, 73, 92
9, 386280, Note_on_c, 2, 70, 92
9, 386384, Note_on_c, 2, 73, 0
9, 386384, Note_on_c, 2, 70, 0
9, 386400, Note_on_c, 2, 73, 92
9, 386400, Note_on_c, 2, 70, 92
9, 386504, Note_on_c, 2, 73, 0
9, 386504, Note_on_c, 2, 70, 0
9, 386520, Note_on_c, 2, 70, 92
9, 386520, Note_on_c, 2, 73, 92
9, 386624, Note_on_c, 2, 70, 0
9, 386624, Note_on_c, 2, 73, 0
9, 386640, Note_on_c, 2, 75, 92
9, 386640, Note_on_c, 2, 72, 92
9, 386744, Note_on_c, 2, 75, 0
9, 386744, Note_on_c, 2, 72, 0
9, 386760, Note_on_c, 2, 77, 92
9, 386760, Note_on_c, 2, 73, 92
9, 386864, Note_on_c, 2, 77, 0
9, 386864, Note_on_c, 2, 73, 0
9, 386880, Note_on_c, 2, 75, 92
9, 386880, Note_on_c, 2, 78, 92
9, 386984, Note_on_c, 2, 75, 0
9, 386984, Note_on_c, 2, 78, 0
9, 387000, Note_on_c, 2, 78, 92
9, 387000, Note_on_c, 2, 75, 92
9, 387104, Note_on_c, 2, 78, 0
9, 387104, Note_on_c, 2, 75, 0
9, 387120, Note_on_c, 2, 75, 92
9, 387120, Note_on_c, 2, 78, 92
9, 387224, Note_on_c, 2, 75, 0
9, 387224, Note_on_c, 2, 78, 0
9, 387240, Note_on_c, 2, 75, 92
9, 387240, Note_on_c, 2, 78, 92
9, 387344, Note_on_c, 2, 75, 0
9, 387344, Note_on_c, 2, 78, 0
9, 387360, Note_on_c, 2, 77, 92
9, 387360, Note_on_c, 2, 73, 92
9, 387464, Note_on_c, 2, 77, 0
9, 387464, Note_on_c, 2, 73, 0
9, 387480, Note_on_c, 2, 75, 92
9, 387480, Note_on_c, 2, 72, 92
9, 387584, Note_on_c, 2, 75, 0
9, 387584, Note_on_c, 2, 72, 0
9, 387600, Note_on_c, 2, 66, 92
9, 387600, Note_on_c, 2, 75, 92
9, 387704, Note_on_c, 2, 66, 0
9, 387704, Note_on_c, 2, 75, 0
9, 387720, Note_on_c, 2, 73, 92
9, 387720, Note_on_c, 2, 65, 92
9, 387824, Note_on_c, 2, 73, 0
9, 387824, Note_on_c, 2, 65, 0
9, 387840, Note_on_c, 2, 72, 92
9, 387840, Note_on_c, 2, 63, 92
9, 387944, Note_on_c, 2, 72, 0
9, 387944, Note_on_c, 2, 63, 0
9, 387960, Note_on_c, 2, 63, 92
9, 387960, Note_on_c, 2, 72, 92
9, 388064, Note_on_c, 2, 63, 0
9, 388064, Note_on_c, 2, 72, 0
9, 388080, Note_on_c, 2, 72, 92
9, 388080, Note_on_c, 2, 75, 92
9, 388184, Note_on_c, 2, 72, 0
9, 388184, Note_on_c, 2, 75, 0
9, 388200, Note_on_c, 2, 75, 92
9, 388200, Note_on_c, 2, 72, 92
9, 388304, Note_on_c, 2, 75, 0
9, 388304, Note_on_c, 2, 72, 0
9, 388320, Note_on_c, 2, 73, 92
9, 388320, Note_on_c, 2, 70, 92
9, 388544, Note_on_c, 2, 73, 0
9, 388544, Note_on_c, 2, 70, 0
9, 388560, Note_on_c, 2, 61, 92
9, 388560, Note_on_c, 2, 73, 92
9, 388664, Note_on_c, 2, 61, 0
9, 388664, Note_on_c, 2, 73, 0
9, 388680, Note_on_c, 2, 61, 100
9, 388680, Note_on_c, 2, 73, 100
9, 388740, Control_c, 2, 11, 107
9, 389039, Note_on_c, 2, 61, 0
9, 389039, Note_on_c, 2, 73, 0
9, 389278, Control_c, 2, 11, 127
9, 389280, Note_on_c, 2, 63, 92
9, 389280, Note_on_c, 2, 75, 92
9, 389384, Note_on_c, 2, 63, 0
9, 389384, Note_on_c, 2, 75, 0
9, 389400, Note_on_c, 2, 63, 100
9, 389400, Note_on_c, 2, 75, 100
9, 389460, Control_c, 2, 11, 107
9, 389759, Note_on_c, 2, 63, 0
9, 389759, Note_on_c, 2, 75, 0
9, 389998, Control_c, 2, 11, 127
9, 390000, Note_on_c, 2, 77, 92
9, 390000, Note_on_c, 2, 65, 92
9, 390104, Note_on_c, 2, 77, 0
9, 390104, Note_on_c, 2, 65, 0
9, 390120, Note_on_c, 2, 70, 92
9, 390120, Note_on_c, 2, 58, 92
9, 390344, Note_on_c, 2, 70, 0
9, 390344, Note_on_c, 2, 58, 0
9, 390360, Note_on_c, 2, 58, 92
9, 390360, Note_on_c, 2, 70, 92
9, 390464, Note_on_c, 2, 58, 0
9, 390464, Note_on_c, 2, 70, 0
9, 390480, Note_on_c, 2, 78, 92
9, 390480, Note_on_c, 2, 66, 92
9, 390719, Note_on_c, 2, 78, 0
9, 390719, Note_on_c, 2, 66, 0
9, 391440, Note_on_c, 2, 80, 92
9, 391440, Note_on_c, 2, 68, 92
9, 391544, Note_on_c, 2, 80, 0
9, 391544, Note_on_c, 2, 68, 0
9, 391560, Note_on_c, 2, 73, 92
9, 391560, Note_on_c, 2, 61, 92
9, 391784, Note_on_c, 2, 73, 0
9, 391784, Note_on_c, 2, 61, 0
9, 391800, Note_on_c, 2, 73, 92
9, 391800, Note_on_c, 2, 61, 92
9, 391904, Note_on_c, 2, 73, 0
9, 391904, Note_on_c, 2, 61, 0
9, 391920, Note_on_c, 2, 70, 92
9, 391920, Note_on_c, 2, 82, 92
9, 392159, Note_on_c, 2, 70, 0
9, 392159, Note_on_c, 2, 82, 0
9, 392880, Note_on_c, 2, 71, 92
9, 392880, Note_on_c, 2, 83, 92
9, 392984, Note_on_c, 2, 71, 0
9, 392984, Note_on_c, 2, 83, 0
9, 393000, Note_on_c, 2, 77, 92
9, 393000, Note_on_c, 2, 65, 92
9, 393224, Note_on_c, 2, 77, 0
9, 393224, Note_on_c, 2, 65, 0
9, 393240, Note_on_c, 2, 65, 92
9, 393240, Note_on_c, 2, 77, 92
9, 393344, Note_on_c, 2, 65, 0
9, 393344, Note_on_c, 2, 77, 0
9, 393360, Note_on_c, 2, 66, 92
9, 393360, Note_on_c, 2, 78, 92
9, 393464, Note_on_c, 2, 66, 0
9, 393464, Note_on_c, 2, 78, 0
9, 393480, Note_on_c, 2, 65, 92
9, 393480, Note_on_c, 2, 77, 92
9, 393584, Note_on_c, 2, 65, 0
9, 393584, Note_on_c, 2, 77, 0
9, 393600, Note_on_c, 2, 66, 92
9, 393600, Note_on_c, 2, 78, 92
9, 393704, Note_on_c, 2, 66, 0
9, 393704, Note_on_c, 2, 78, 0
9, 393720, Note_on_c, 2, 82, 92
9, 393720, Note_on_c, 2, 70, 92
9, 393824, Note_on_c, 2, 82, 0
9, 393824, Note_on_c, 2, 70, 0
9, 393840, Note_on_c, 2, 80, 92
9, 393840, Note_on_c, 2, 68, 92
9, 393944, Note_on_c, 2, 80, 0
9, 393944, Note_on_c, 2, 68, 0
9, 393960, Note_on_c, 2, 66, 92
9, 393960, Note_on_c, 2, 78, 92
9, 394064, Note_on_c, 2, 66, 0
9, 394064, Note_on_c, 2, 78, 0
9, 394080, Note_on_c, 2, 66, 92
9, 394080, Note_on_c, 2, 78, 92
9, 394319, Note_on_c, 2, 66, 0
9, 394319, Note_on_c, 2, 78, 0
9, 395160, Note_on_c, 2, 66, 92
9, 395264, Note_on_c, 2, 66, 0
9, 395280, Note_on_c, 2, 66, 92
9, 395384, Note_on_c, 2, 66, 0
9, 395400, Note_on_c, 2, 66, 92
9, 395504, Note_on_c, 2, 66, 0
9, 395520, Note_on_c, 2, 66, 92
9, 395624, Note_on_c, 2, 66, 0
9, 395640, Note_on_c, 2, 68, 92
9, 395744, Note_on_c, 2, 68, 0
9, 395760, Note_on_c, 2, 70, 92
9, 395864, Note_on_c, 2, 70, 0
9, 395880, Note_on_c, 2, 70, 92
9, 395984, Note_on_c, 2, 70, 0
9, 396000, Note_on_c, 2, 71, 92
9, 396104, Note_on_c, 2, 71, 0
9, 396120, Note_on_c, 2, 70, 92
9, 396224, Note_on_c, 2, 70, 0
9, 396240, Note_on_c, 2, 68, 92
9, 396344, Note_on_c, 2, 68, 0
9, 396360, Note_on_c, 2, 66, 92
9, 396464, Note_on_c, 2, 66, 0
9, 396480, Note_on_c, 2, 65, 92
9, 396584, Note_on_c, 2, 65, 0
9, 396600, Note_on_c, 2, 63, 92
9, 396839, Note_on_c, 2, 63, 0
9, 400200, Note_on_c, 2, 70, 92
9, 400304, Note_on_c, 2, 70, 0
9, 400320, Note_on_c, 2, 70, 92
9, 400424, Note_on_c, 2, 70, 0
9, 400440, Note_on_c, 2, 70, 92
9, 400544, Note_on_c, 2, 70, 0
9, 400560, Note_on_c, 2, 70, 92
9, 400664, Note_on_c, 2, 70, 0
9, 400680, Note_on_c, 2, 72, 92
9, 400784, Note_on_c, 2, 72, 0
9, 400800, Note_on_c, 2, 73, 92
9, 400904, Note_on_c, 2, 73, 0
9, 400920, Note_on_c, 2, 73, 92
9, 401024, Note_on_c, 2, 73, 0
9, 401040, Note_on_c, 2, 72, 92
9, 401144, Note_on_c, 2, 72, 0
9, 401160, Note_on_c, 2, 70, 92
9, 401279, Note_on_c, 2, 70, 0
9, 401640, Note_on_c, 2, 70, 92
9, 401744, Note_on_c, 2, 70, 0
9, 401760, Note_on_c, 2, 70, 92
9, 401864, Note_on_c, 2, 70, 0
9, 401880, Note_on_c, 2, 70, 92
9, 401984, Note_on_c, 2, 70, 0
9, 402000, Note_on_c, 2, 70, 92
9, 402104, Note_on_c, 2, 70, 0
9, 402120, Note_on_c, 2, 71, 92
9, 402224, Note_on_c, 2, 71, 0
9, 402240, Note_on_c, 2, 73, 92
9, 402344, Note_on_c, 2, 73, 0
9, 402360, Note_on_c, 2, 73, 92
9, 402464, Note_on_c, 2, 73, 0
9, 402480, Note_on_c, 2, 71, 92
9, 402584, Note_on_c, 2, 71, 0
9, 402600, Note_on_c, 2, 70, 92
9, 402719, Note_on_c, 2, 70, 0
9, 403080, Note_on_c, 2, 70, 92
9, 403184, Note_on_c, 2, 70, 0
9, 403200, Note_on_c, 2, 70, 92
9, 403304, Note_on_c, 2, 70, 0
9, 403320, Note_on_c, 2, 70, 92
9, 403424, Note_on_c, 2, 70, 0
9, 403440, Note_on_c, 2, 70, 92
9, 403544, Note_on_c, 2, 70, 0
9, 403560, Note_on_c, 2, 71, 92
9, 403664, Note_on_c, 2, 71, 0
9, 403680, Note_on_c, 2, 73, 92
9, 403784, Note_on_c, 2, 73, 0
9, 403800, Note_on_c, 2, 73, 92
9, 403800, Note_on_c, 2, 76, 92
9, 403904, Note_on_c, 2, 73, 0
9, 403904, Note_on_c, 2, 76, 0
9, 403920, Note_on_c, 2, 74, 92
9, 403920, Note_on_c, 2, 78, 92
9, 404024, Note_on_c, 2, 74, 0
9, 404024, Note_on_c, 2, 78, 0
9, 404040, Note_on_c, 2, 79, 92
9, 404040, Note_on_c, 2, 76, 92
9, 404144, Note_on_c, 2, 79, 0
9, 404144, Note_on_c, 2, 76, 0
9, 404160, Note_on_c, 2, 59, 92
9, 404160, Note_on_c, 2, 71, 92
9, 404384, Note_on_c, 2, 59, 0
9, 404384, Note_on_c, 2, 71, 0
9, 404400, Note_on_c, 2, 59, 92
9, 404400, Note_on_c, 2, 71, 92
9, 404504, Note_on_c, 2, 59, 0
9, 404504, Note_on_c, 2, 71, 0
9, 404520, Note_on_c, 2, 71, 100
9, 404520, Note_on_c, 2, 59, 100
9, 404580, Control_c, 2, 11, 107
9, 404879, Note_on_c, 2, 71, 0
9, 404879, Note_on_c, 2, 59, 0
9, 405118, Control_c, 2, 11, 127
9, 405120, Note_on_c, 2, 73, 92
9, 405120, Note_on_c, 2, 61, 92
9, 405224, Note_on_c, 2, 73, 0
9, 405224, Note_on_c, 2, 61, 0
9, 405240, Note_on_c, 2, 73, 100
9, 405240, Note_on_c, 2, 61, 100
9, 405300, Control_c, 2, 11, 107
9, 405569, Note_on_c, 2, 73, 0
9, 405569, Note_on_c, 2, 61, 0
9, 405598, Control_c, 2, 11, 127
9, 405600, Note_on_c, 2, 69, 92
9, 405600, Note_on_c, 2, 66, 92
9, 405704, Note_on_c, 2, 69, 0
9, 405704, Note_on_c, 2, 66, 0
9, 405720, Note_on_c, 2, 67, 92
9, 405720, Note_on_c, 2, 64, 92
9, 405824, Note_on_c, 2, 67, 0
9, 405824, Note_on_c, 2, 64, 0
9, 405840, Note_on_c, 2, 64, 92
9, 405840, Note_on_c, 2, 67, 92
9, 405944, Note_on_c, 2, 64, 0
9, 405944, Note_on_c, 2, 67, 0
9, 405960, Note_on_c, 2, 55, 100
9, 405960, Note_on_c, 2, 67, 100
9, 406020, Control_c, 2, 11, 107
9, 406319, Note_on_c, 2, 55, 0
9, 406319, Note_on_c, 2, 67, 0
9, 406558, Control_c, 2, 11, 127
9, 406560, Note_on_c, 2, 57, 92
9, 406560, Note_on_c, 2, 69, 92
9, 406664, Note_on_c, 2, 57, 0
9, 406664, Note_on_c, 2, 69, 0
9, 406680, Note_on_c, 2, 69, 100
9, 406680, Note_on_c, 2, 57, 100
9, 406740, Control_c, 2, 11, 107
9, 407009, Note_on_c, 2, 69, 0
9, 407009, Note_on_c, 2, 57, 0
9, 407038, Control_c, 2, 11, 127
9, 407040, Note_on_c, 2, 63, 92
9, 407264, Note_on_c, 2, 63, 0
9, 407280, Note_on_c, 2, 75, 92
9, 407384, Note_on_c, 2, 75, 0
9, 407400, Note_on_c, 2, 75, 100
9, 407460, Control_c, 2, 11, 107
9, 407759, Note_on_c, 2, 75, 0
9, 407998, Control_c, 2, 11, 127
9, 408000, Note_on_c, 2, 76, 92
9, 408104, Note_on_c, 2, 76, 0
9, 408120, Note_on_c, 2, 76, 100
9, 408180, Control_c, 2, 11, 107
9, 408479, Note_on_c, 2, 76, 0
9, 408718, Control_c, 2, 11, 127
9, 408720, Note_on_c, 2, 78, 92
9, 408824, Note_on_c, 2, 78, 0
9, 408840, Note_on_c, 2, 78, 100
9, 408900, Control_c, 2, 11, 107
9, 409199, Note_on_c, 2, 78, 0
9, 409438, Control_c, 2, 11, 127
9, 409440, Note_on_c, 2, 78, 92
9, 409440, Note_on_c, 2, 66, 92
9, 409544, Note_on_c, 2, 78, 0
9, 409544, Note_on_c, 2, 66, 0
9, 409560, Note_on_c, 2, 79, 100
9, 409560, Note_on_c, 2, 67, 100
9, 409620, Control_c, 2, 11, 107
9, 409919, Note_on_c, 2, 79, 0
9, 409919, Note_on_c, 2, 67, 0
9, 410158, Control_c, 2, 11, 127
9, 410160, Note_on_c, 2, 76, 92
9, 410160, Note_on_c, 2, 64, 92
9, 410264, Note_on_c, 2, 76, 0
9, 410264, Note_on_c, 2, 64, 0
9, 410280, Note_on_c, 2, 78, 100
9, 410280, Note_on_c, 2, 66, 100
9, 410340, Control_c, 2, 11, 107
9, 410639, Note_on_c, 2, 78, 0
9, 410639, Note_on_c, 2, 66, 0
9, 410878, Control_c, 2, 11, 127
9, 410880, Note_on_c, 2, 62, 92
9, 410880, Note_on_c, 2, 74, 92
9, 410984, Note_on_c, 2, 62, 0
9, 410984, Note_on_c, 2, 74, 0
9, 411000, Note_on_c, 2, 76, 100
9, 411000, Note_on_c, 2, 64, 100
9, 411060, Control_c, 2, 11, 107
9, 411359, Note_on_c, 2, 76, 0
9, 411359, Note_on_c, 2, 64, 0
9, 411598, Control_c, 2, 11, 127
9, 411600, Note_on_c, 2, 73, 92
9, 411600, Note_on_c, 2, 61, 92
9, 411704, Note_on_c, 2, 73, 0
9, 411704, Note_on_c, 2, 61, 0
9, 411720, Note_on_c, 2, 62, 100
9, 411720, Note_on_c, 2, 74, 100
9, 411780, Control_c, 2, 11, 107
9, 412079, Note_on_c, 2, 62, 0
9, 412079, Note_on_c, 2, 74, 0
9, 414478, Control_c, 2, 11, 127
9, 414480, Note_on_c, 2, 71, 92
9, 414480, Note_on_c, 2, 59, 92
9, 414584, Note_on_c, 2, 71, 0
9, 414584, Note_on_c, 2, 59, 0
9, 414600, Note_on_c, 2, 59, 100
9, 414600, Note_on_c, 2, 71, 100
9, 414660, Control_c, 2, 11, 107
9, 414959, Note_on_c, 2, 59, 0
9, 414959, Note_on_c, 2, 71, 0
9, 415198, Control_c, 2, 11, 127
9, 415200, Note_on_c, 2, 71, 92
9, 415200, Note_on_c, 2, 59, 92
9, 415304, Note_on_c, 2, 71, 0
9, 415304, Note_on_c, 2, 59, 0
9, 415320, Note_on_c, 2, 61, 100
9, 415320, Note_on_c, 2, 73, 100
9, 415380, Control_c, 2, 11, 107
9, 415559, Note_on_c, 2, 61, 0
9, 415559, Note_on_c, 2, 73, 0
9, 415918, Control_c, 2, 11, 127
9, 415920, Note_on_c, 2, 73, 92
9, 415920, Note_on_c, 2, 76, 92
9, 416024, Note_on_c, 2, 73, 0
9, 416024, Note_on_c, 2, 76, 0
9, 416040, Note_on_c, 2, 73, 100
9, 416040, Note_on_c, 2, 76, 100
9, 416100, Control_c, 2, 11, 107
9, 416399, Note_on_c, 2, 73, 0
9, 416399, Note_on_c, 2, 76, 0
9, 416638, Control_c, 2, 11, 127
9, 416640, Note_on_c, 2, 76, 92
9, 416640, Note_on_c, 2, 73, 92
9, 416744, Note_on_c, 2, 76, 0
9, 416744, Note_on_c, 2, 73, 0
9, 416760, Note_on_c, 2, 71, 100
9, 416760, Note_on_c, 2, 77, 100
9, 416820, Control_c, 2, 11, 107
9, 417119, Note_on_c, 2, 71, 0
9, 417119, Note_on_c, 2, 77, 0
9, 417358, Control_c, 2, 11, 127
9, 417360, Note_on_c, 2, 68, 92
9, 417360, Note_on_c, 2, 71, 92
9, 417464, Note_on_c, 2, 68, 0
9, 417464, Note_on_c, 2, 71, 0
9, 417480, Note_on_c, 2, 68, 100
9, 417480, Note_on_c, 2, 71, 100
9, 417540, Control_c, 2, 11, 107
9, 417839, Note_on_c, 2, 68, 0
9, 417839, Note_on_c, 2, 71, 0
9, 418078, Control_c, 2, 11, 127
9, 418080, Note_on_c, 2, 71, 92
9, 418080, Note_on_c, 2, 68, 92
9, 418184, Note_on_c, 2, 71, 0
9, 418184, Note_on_c, 2, 68, 0
9, 418200, Note_on_c, 2, 70, 100
9, 418200, Note_on_c, 2, 73, 100
9, 418260, Control_c, 2, 11, 107
9, 418559, Note_on_c, 2, 70, 0
9, 418559, Note_on_c, 2, 73, 0
9, 418798, Control_c, 2, 11, 127
9, 418800, Note_on_c, 2, 73, 92
9, 418800, Note_on_c, 2, 70, 92
9, 418904, Note_on_c, 2, 73, 0
9, 418904, Note_on_c, 2, 70, 0
9, 418920, Note_on_c, 2, 74, 100
9, 418920, Note_on_c, 2, 71, 100
9, 418980, Control_c, 2, 11, 107
9, 419279, Note_on_c, 2, 74, 0
9, 419279, Note_on_c, 2, 71, 0
9, 419518, Control_c, 2, 11, 127
9, 419520, Note_on_c, 2, 71, 92
9, 419520, Note_on_c, 2, 74, 92
9, 419624, Note_on_c, 2, 71, 0
9, 419624, Note_on_c, 2, 74, 0
9, 419640, Note_on_c, 2, 73, 100
9, 419640, Note_on_c, 2, 76, 100
9, 419700, Control_c, 2, 11, 107
9, 419999, Note_on_c, 2, 73, 0
9, 419999, Note_on_c, 2, 76, 0
9, 420238, Control_c, 2, 11, 127
9, 420240, Note_on_c, 2, 73, 92
9, 420240, Note_on_c, 2, 76, 92
9, 420344, Note_on_c, 2, 73, 0
9, 420344, Note_on_c, 2, 76, 0
9, 420360, Note_on_c, 2, 69, 100
9, 420360, Note_on_c, 2, 81, 100
9, 420420, Control_c, 2, 11, 107
9, 420719, Note_on_c, 2, 69, 0
9, 420719, Note_on_c, 2, 81, 0
9, 420958, Control_c, 2, 11, 127
9, 420960, Note_on_c, 2, 71, 92
9, 420960, Note_on_c, 2, 66, 92
9, 421064, Note_on_c, 2, 71, 0
9, 421064, Note_on_c, 2, 66, 0
9, 421080, Note_on_c, 2, 71, 100
9, 421080, Note_on_c, 2, 64, 100
9, 421140, Control_c, 2, 11, 107
9, 421439, Note_on_c, 2, 71, 0
9, 421439, Note_on_c, 2, 64, 0
9, 421678, Control_c, 2, 11, 127
9, 421680, Note_on_c, 2, 71, 92
9, 421680, Note_on_c, 2, 64, 92
9, 421784, Note_on_c, 2, 71, 0
9, 421784, Note_on_c, 2, 64, 0
9, 421800, Note_on_c, 2, 65, 100
9, 421800, Note_on_c, 2, 71, 100
9, 421860, Control_c, 2, 11, 107
9, 422129, Note_on_c, 2, 65, 0
9, 422129, Note_on_c, 2, 71, 0
9, 422398, Control_c, 2, 11, 127
9, 422400, Note_on_c, 2, 71, 92
9, 422400, Note_on_c, 2, 65, 92
9, 422504, Note_on_c, 2, 71, 0
9, 422504, Note_on_c, 2, 65, 0
9, 422520, Note_on_c, 2, 66, 92
9, 422520, Note_on_c, 2, 78, 92
9, 422744, Note_on_c, 2, 66, 0
9, 422744, Note_on_c, 2, 78, 0
9, 422760, Note_on_c, 2, 78, 92
9, 422760, Note_on_c, 2, 66, 92
9, 422864, Note_on_c, 2, 78, 0
9, 422864, Note_on_c, 2, 66, 0
9, 422880, Note_on_c, 2, 78, 92
9, 422880, Note_on_c, 2, 66, 92
9, 423104, Note_on_c, 2, 78, 0
9, 423104, Note_on_c, 2, 66, 0
9, 423120, Note_on_c, 2, 78, 92
9, 423120, Note_on_c, 2, 66, 92
9, 423224, Note_on_c, 2, 78, 0
9, 423224, Note_on_c, 2, 66, 0
9, 423240, Note_on_c, 2, 78, 100
9, 423240, Note_on_c, 2, 66, 100
9, 423300, Control_c, 2, 11, 107
9, 423824, Note_on_c, 2, 78, 0
9, 423824, Note_on_c, 2, 66, 0
9, 423838, Control_c, 2, 11, 127
9, 423840, Note_on_c, 2, 78, 92
9, 423840, Note_on_c, 2, 66, 92
9, 423944, Note_on_c, 2, 78, 0
9, 423944, Note_on_c, 2, 66, 0
9, 423960, Note_on_c, 2, 66, 100
9, 423960, Note_on_c, 2, 78, 100
9, 424020, Control_c, 2, 11, 107
9, 424544, Note_on_c, 2, 66, 0
9, 424544, Note_on_c, 2, 78, 0
9, 424558, Control_c, 2, 11, 127
9, 424560, Note_on_c, 2, 66, 92
9, 424560, Note_on_c, 2, 78, 92
9, 424664, Note_on_c, 2, 66, 0
9, 424664, Note_on_c, 2, 78, 0
9, 424680, Note_on_c, 2, 78, 100
9, 424680, Note_on_c, 2, 66, 100
9, 424740, Control_c, 2, 11, 107
9, 425264, Note_on_c, 2, 78, 0
9, 425264, Note_on_c, 2, 66, 0
9, 425278, Control_c, 2, 11, 127
9, 425280, Note_on_c, 2, 78, 92
9, 425280, Note_on_c, 2, 66, 92
9, 425384, Note_on_c, 2, 78, 0
9, 425384, Note_on_c, 2, 66, 0
9, 425400, Note_on_c, 2, 78, 100
9, 425400, Note_on_c, 2, 66, 100
9, 425460, Control_c, 2, 11, 107
9, 425984, Note_on_c, 2, 78, 0
9, 425984, Note_on_c, 2, 66, 0
9, 425998, Control_c, 2, 11, 127
9, 426000, Note_on_c, 2, 66, 92
9, 426000, Note_on_c, 2, 78, 92
9, 426104, Note_on_c, 2, 66, 0
9, 426104, Note_on_c, 2, 78, 0
9, 426120, Note_on_c, 2, 78, 100
9, 426120, Note_on_c, 2, 66, 100
9, 426180, Control_c, 2, 11, 107
9, 426704, Note_on_c, 2, 78, 0
9, 426704, Note_on_c, 2, 66, 0
9, 426718, Control_c, 2, 11, 127
9, 426720, Note_on_c, 2, 78, 92
9, 426720, Note_on_c, 2, 66, 92
9, 426824, Note_on_c, 2, 78, 0
9, 426824, Note_on_c, 2, 66, 0
9, 426840, Note_on_c, 2, 78, 100
9, 426840, Note_on_c, 2, 66, 100
9, 426900, Control_c, 2, 11, 107
9, 427424, Note_on_c, 2, 78, 0
9, 427424, Note_on_c, 2, 66, 0
9, 427438, Control_c, 2, 11, 127
9, 427440, Note_on_c, 2, 78, 92
9, 427440, Note_on_c, 2, 66, 92
9, 427544, Note_on_c, 2, 78, 0
9, 427544, Note_on_c, 2, 66, 0
9, 427560, Note_on_c, 2, 66, 100
9, 427560, Note_on_c, 2, 78, 100
9, 427620, Control_c, 2, 11, 107
9, 428144, Note_on_c, 2, 66, 0
9, 428144, Note_on_c, 2, 78, 0
9, 428158, Control_c, 2, 11, 127
9, 428160, Note_on_c, 2, 66, 92
9, 428160, Note_on_c, 2, 78, 92
9, 428264, Note_on_c, 2, 66, 0
9, 428264, Note_on_c, 2, 78, 0
9, 428280, Note_on_c, 2, 78, 100
9, 428280, Note_on_c, 2, 66, 100
9, 428340, Control_c, 2, 11, 107
9, 428879, Note_on_c, 2, 78, 0
9, 428879, Note_on_c, 2, 66, 0
9, 479040, Marker_t, "Muta in A"
9, 490560, Control_c, 2, 11, 127
9, 491520, Note_on_c, 2, 71, 80
9, 491520, Note_on_c, 2, 79, 80
9, 492939, Note_on_c, 2, 71, 0
9, 492939, Note_on_c, 2, 79, 0
9, 492960, Note_on_c, 2, 79, 80
9, 492960, Note_on_c, 2, 71, 80
9, 493319, Note_on_c, 2, 79, 0
9, 493319, Note_on_c, 2, 71, 0
9, 493440, Note_on_c, 2, 69, 80
9, 493440, Note_on_c, 2, 78, 80
9, 493799, Note_on_c, 2, 69, 0
9, 493799, Note_on_c, 2, 78, 0
9, 493920, Note_on_c, 2, 74, 80
9, 493920, Note_on_c, 2, 66, 80
9, 494279, Note_on_c, 2, 74, 0
9, 494279, Note_on_c, 2, 66, 0
9, 494400, Note_on_c, 2, 67, 80
9, 494400, Note_on_c, 2, 76, 80
9, 495819, Note_on_c, 2, 67, 0
9, 495819, Note_on_c, 2, 76, 0
9, 495840, Note_on_c, 2, 67, 80
9, 495840, Note_on_c, 2, 76, 80
9, 496199, Note_on_c, 2, 67, 0
9, 496199, Note_on_c, 2, 76, 0
9, 496320, Note_on_c, 2, 67, 80
9, 496320, Note_on_c, 2, 74, 80
9, 496679, Note_on_c, 2, 67, 0
9, 496679, Note_on_c, 2, 74, 0
9, 496800, Note_on_c, 2, 67, 80
9, 496800, Note_on_c, 2, 71, 80
9, 497159, Note_on_c, 2, 67, 0
9, 497159, Note_on_c, 2, 71, 0
9, 497280, Note_on_c, 2, 71, 92
9, 497359, Note_on_c, 2, 71, 0
9, 497360, Note_on_c, 2, 71, 80
9, 497760, Note_on_c, 2, 72, 92
9, 497839, Note_on_c, 2, 72, 0
9, 497840, Note_on_c, 2, 72, 80
9, 498219, Note_on_c, 2, 71, 0
9, 498240, Note_on_c, 2, 69, 80
9, 498699, Note_on_c, 2, 72, 0
9, 498699, Note_on_c, 2, 69, 0
9, 498720, Note_on_c, 2, 69, 80
9, 498720, Note_on_c, 2, 72, 80
9, 498959, Note_on_c, 2, 69, 0
9, 498960, Note_on_c, 2, 64, 80
9, 499179, Note_on_c, 2, 72, 0
9, 499179, Note_on_c, 2, 64, 0
9, 499200, Note_on_c, 2, 71, 80
9, 499200, Note_on_c, 2, 63, 80
9, 499659, Note_on_c, 2, 71, 0
9, 499659, Note_on_c, 2, 63, 0
9, 499680, Note_on_c, 2, 64, 92
9, 499680, Note_on_c, 2, 67, 92
9, 499760, Control_c, 2, 11, 107
9, 500619, Note_on_c, 2, 64, 0
9, 500619, Note_on_c, 2, 67, 0
9, 500638, Control_c, 2, 11, 127
9, 500640, Note_on_c, 2, 72, 92
9, 500640, Note_on_c, 2, 67, 92
9, 501579, Note_on_c, 2, 72, 0
9, 501579, Note_on_c, 2, 67, 0
9, 501600, Note_on_c, 2, 72, 92
9, 501600, Note_on_c, 2, 67, 92
9, 502059, Note_on_c, 2, 72, 0
9, 502059, Note_on_c, 2, 67, 0
9, 502080, Note_on_c, 2, 66, 92
9, 502080, Note_on_c, 2, 69, 92
9, 503519, Note_on_c, 2, 66, 0
9, 503519, Note_on_c, 2, 69, 0
9, 514560, Note_on_c, 2, 60, 80
9, 514560, Note_on_c, 2, 57, 80
9, 515519, Note_on_c, 2, 60, 0
9, 515519, Note_on_c, 2, 57, 0
9, 515520, Note_on_c, 2, 62, 80
9, 515520, Note_on_c, 2, 58, 80
9, 516219, Note_on_c, 2, 62, 0
9, 516219, Note_on_c, 2, 58, 0
9, 516240, Note_on_c, 2, 60, 80
9, 516240, Note_on_c, 2, 57, 80
9, 516479, Note_on_c, 2, 60, 0
9, 516479, Note_on_c, 2, 57, 0
9, 516720, Note_on_c, 2, 65, 80
9, 516720, Note_on_c, 2, 72, 80
9, 516959, Note_on_c, 2, 72, 0
9, 516960, Note_on_c, 2, 74, 80
9, 517659, Note_on_c, 2, 65, 0
9, 517659, Note_on_c, 2, 74, 0
9, 517680, Note_on_c, 2, 74, 80
9, 517680, Note_on_c, 2, 65, 80
9, 517899, Note_on_c, 2, 74, 0
9, 517899, Note_on_c, 2, 65, 0
9, 517920, Note_on_c, 2, 65, 80
9, 517920, Note_on_c, 2, 74, 80
9, 518859, Note_on_c, 2, 65, 0
9, 518859, Note_on_c, 2, 74, 0
9, 518880, Note_on_c, 2, 74, 80
9, 518880, Note_on_c, 2, 65, 80
9, 519339, Note_on_c, 2, 74, 0
9, 519339, Note_on_c, 2, 65, 0
9, 519360, Note_on_c, 2, 65, 80
9, 519360, Note_on_c, 2, 74, 80
9, 520299, Note_on_c, 2, 65, 0
9, 520299, Note_on_c, 2, 74, 0
9, 520320, Note_on_c, 2, 70, 92
9, 520320, Note_on_c, 2, 65, 92
9, 520400, Control_c, 2, 11, 107
9, 521739, Note_on_c, 2, 70, 0
9, 521739, Note_on_c, 2, 65, 0
9, 521758, Control_c, 2, 11, 127
9, 521760, Note_on_c, 2, 64, 80
9, 521760, Note_on_c, 2, 67, 80
9, 522219, Note_on_c, 2, 64, 0
9, 522219, Note_on_c, 2, 67, 0
9, 522240, Note_on_c, 2, 67, 80
9, 522240, Note_on_c, 2, 72, 80
9, 522719, Note_on_c, 2, 67, 0
9, 522719, Note_on_c, 2, 72, 0
9, 522720, Note_on_c, 2, 65, 80
9, 522720, Note_on_c, 2, 69, 80
9, 523179, Note_on_c, 2, 65, 0
9, 523179, Note_on_c, 2, 69, 0
9, 523200, Note_on_c, 2, 67, 80
9, 523200, Note_on_c, 2, 64, 80
9, 523659, Note_on_c, 2, 67, 0
9, 523659, Note_on_c, 2, 64, 0
9, 523680, Note_on_c, 2, 69, 80
9, 523680, Note_on_c, 2, 77, 80
9, 524399, Note_on_c, 2, 69, 0
9, 524400, Note_on_c, 2, 71, 80
9, 524619, Note_on_c, 2, 77, 0
9, 524619, Note_on_c, 2, 71, 0
9, 524640, Note_on_c, 2, 76, 80
9, 524640, Note_on_c, 2, 72, 80
9, 525099, Note_on_c, 2, 76, 0
9, 525099, Note_on_c, 2, 72, 0
9, 525120, Note_on_c, 2, 76, 80
9, 525120, Note_on_c, 2, 72, 80
9, 525479, Note_on_c, 2, 76, 0
9, 525479, Note_on_c, 2, 72, 0
9, 525600, Note_on_c, 2, 71, 80
9, 525600, Note_on_c, 2, 74, 80
9, 525959, Note_on_c, 2, 71, 0
9, 525959, Note_on_c, 2, 74, 0
9, 526078, Control_c, 2, 11, 49
9, 526080, Note_on_c, 2, 74, 92
9, 526080, Note_on_c, 2, 70, 92
9, 526560, Control_c, 2, 11, 49
9, 526600, Control_c, 2, 11, 52
9, 526640, Control_c, 2, 11, 55
9, 526680, Control_c, 2, 11, 59
9, 526720, Control_c, 2, 11, 62
9, 526760, Control_c, 2, 11, 65
9, 526800, Control_c, 2, 11, 69
9, 526840, Control_c, 2, 11, 72
9, 526880, Control_c, 2, 11, 75
9, 526920, Control_c, 2, 11, 79
9, 526960, Control_c, 2, 11, 82
9, 527000, Control_c, 2, 11, 85
9, 527040, Control_c, 2, 11, 89
9, 527120, Control_c, 2, 11, 85
9, 527200, Control_c, 2, 11, 82
9, 527264, Note_on_c, 2, 74, 0
9, 527264, Note_on_c, 2, 70, 0
9, 527280, Note_on_c, 2, 58, 92
9, 527280, Note_on_c, 2, 62, 92
9, 527280, Control_c, 2, 11, 79
9, 527360, Control_c, 2, 11, 75
9, 527440, Control_c, 2, 11, 72
9, 527504, Note_on_c, 2, 58, 0
9, 527504, Note_on_c, 2, 62, 0
9, 527520, Note_on_c, 2, 62, 92
9, 527520, Note_on_c, 2, 59, 92
9, 527520, Control_c, 2, 11, 69
9, 527600, Control_c, 2, 11, 65
9, 527680, Control_c, 2, 11, 62
9, 527760, Control_c, 2, 11, 59
9, 527840, Control_c, 2, 11, 55
9, 527920, Control_c, 2, 11, 52
9, 527984, Note_on_c, 2, 59, 0
9, 528000, Control_c, 2, 11, 49
9, 528000, Note_on_c, 2, 55, 92
9, 528464, Note_on_c, 2, 62, 0
9, 528480, Note_on_c, 2, 60, 92
9, 528944, Note_on_c, 2, 55, 0
9, 528944, Note_on_c, 2, 60, 0
9, 528960, Note_on_c, 2, 64, 92
9, 528960, Note_on_c, 2, 55, 92
9, 529424, Note_on_c, 2, 55, 0
9, 529440, Control_c, 2, 11, 49
9, 529440, Note_on_c, 2, 60, 92
9, 529480, Control_c, 2, 11, 50
9, 529520, Control_c, 2, 11, 51
9, 529560, Control_c, 2, 11, 52
9, 529600, Control_c, 2, 11, 53
9, 529640, Control_c, 2, 11, 55
9, 529680, Control_c, 2, 11, 56
9, 529720, Control_c, 2, 11, 57
9, 529760, Control_c, 2, 11, 58
9, 529800, Control_c, 2, 11, 59
9, 529840, Control_c, 2, 11, 60
9, 529880, Control_c, 2, 11, 61
9, 529904, Note_on_c, 2, 64, 0
9, 529904, Note_on_c, 2, 60, 0
9, 529920, Note_on_c, 2, 62, 92
9, 529920, Control_c, 2, 11, 62
9, 529920, Note_on_c, 2, 60, 92
9, 529960, Control_c, 2, 11, 63
9, 530000, Control_c, 2, 11, 65
9, 530040, Control_c, 2, 11, 66
9, 530080, Control_c, 2, 11, 67
9, 530120, Control_c, 2, 11, 68
9, 530160, Control_c, 2, 11, 69
9, 530200, Control_c, 2, 11, 70
9, 530240, Control_c, 2, 11, 71
9, 530280, Control_c, 2, 11, 72
9, 530320, Control_c, 2, 11, 73
9, 530360, Control_c, 2, 11, 75
9, 530400, Control_c, 2, 11, 76
9, 530440, Control_c, 2, 11, 77
9, 530480, Control_c, 2, 11, 78
9, 530520, Control_c, 2, 11, 79
9, 530560, Control_c, 2, 11, 80
9, 530600, Control_c, 2, 11, 81
9, 530624, Note_on_c, 2, 62, 0
9, 530624, Note_on_c, 2, 60, 0
9, 530640, Control_c, 2, 11, 82
9, 530640, Note_on_c, 2, 62, 92
9, 530640, Note_on_c, 2, 58, 92
9, 530680, Control_c, 2, 11, 83
9, 530720, Control_c, 2, 11, 85
9, 530760, Control_c, 2, 11, 86
9, 530800, Control_c, 2, 11, 87
9, 530840, Control_c, 2, 11, 88
9, 530864, Note_on_c, 2, 62, 0
9, 530864, Note_on_c, 2, 58, 0
9, 530880, Note_on_c, 2, 58, 92
9, 530880, Note_on_c, 2, 62, 92
9, 531239, Note_on_c, 2, 58, 0
9, 531239, Note_on_c, 2, 62, 0
9, 531360, Note_on_c, 2, 57, 92
9, 531360, Note_on_c, 2, 65, 92
9, 531719, Note_on_c, 2, 57, 0
9, 531719, Note_on_c, 2, 65, 0
9, 531838, Control_c, 2, 11, 49
9, 531840, Note_on_c, 2, 58, 92
9, 531840, Control_c, 2, 11, 49
9, 531840, Note_on_c, 2, 74, 92
9, 531867, Control_c, 2, 11, 50
9, 531893, Control_c, 2, 11, 51
9, 531920, Control_c, 2, 11, 52
9, 531947, Control_c, 2, 11, 53
9, 531973, Control_c, 2, 11, 55
9, 532000, Control_c, 2, 11, 56
9, 532027, Control_c, 2, 11, 57
9, 532053, Control_c, 2, 11, 58
9, 532080, Control_c, 2, 11, 59
9, 532107, Control_c, 2, 11, 60
9, 532133, Control_c, 2, 11, 61
9, 532160, Control_c, 2, 11, 62
9, 532187, Control_c, 2, 11, 63
9, 532213, Control_c, 2, 11, 65
9, 532240, Control_c, 2, 11, 66
9, 532267, Control_c, 2, 11, 67
9, 532293, Control_c, 2, 11, 68
9, 532304, Note_on_c, 2, 58, 0
9, 532320, Control_c, 2, 11, 69
9, 532320, Note_on_c, 2, 70, 92
9, 532347, Control_c, 2, 11, 70
9, 532373, Control_c, 2, 11, 71
9, 532400, Control_c, 2, 11, 72
9, 532427, Control_c, 2, 11, 73
9, 532453, Control_c, 2, 11, 75
9, 532480, Control_c, 2, 11, 76
9, 532507, Control_c, 2, 11, 77
9, 532533, Control_c, 2, 11, 78
9, 532560, Control_c, 2, 11, 79
9, 532587, Control_c, 2, 11, 80
9, 532613, Control_c, 2, 11, 81
9, 532640, Control_c, 2, 11, 82
9, 532667, Control_c, 2, 11, 83
9, 532693, Control_c, 2, 11, 85
9, 532720, Control_c, 2, 11, 86
9, 532747, Control_c, 2, 11, 87
9, 532773, Control_c, 2, 11, 88
9, 532800, Control_c, 2, 11, 89
9, 532827, Control_c, 2, 11, 87
9, 532853, Control_c, 2, 11, 85
9, 532880, Control_c, 2, 11, 82
9, 532907, Control_c, 2, 11, 80
9, 532933, Control_c, 2, 11, 78
9, 532960, Control_c, 2, 11, 76
9, 532987, Control_c, 2, 11, 73
9, 533013, Control_c, 2, 11, 71
9, 533040, Control_c, 2, 11, 69
9, 533067, Control_c, 2, 11, 67
9, 533093, Control_c, 2, 11, 65
9, 533120, Control_c, 2, 11, 62
9, 533147, Control_c, 2, 11, 60
9, 533173, Control_c, 2, 11, 58
9, 533200, Control_c, 2, 11, 56
9, 533227, Control_c, 2, 11, 53
9, 533253, Control_c, 2, 11, 49
9, 533279, Note_on_c, 2, 74, 0
9, 533279, Note_on_c, 2, 70, 0
9, 533280, Note_on_c, 2, 62, 92
9, 533280, Note_on_c, 2, 58, 92
9, 533504, Note_on_c, 2, 62, 0
9, 533504, Note_on_c, 2, 58, 0
9, 533520, Note_on_c, 2, 62, 92
9, 533520, Note_on_c, 2, 59, 92
9, 533699, Note_on_c, 2, 62, 0
9, 533699, Note_on_c, 2, 59, 0
9, 533760, Note_on_c, 2, 55, 92
9, 534119, Note_on_c, 2, 55, 0
9, 534240, Note_on_c, 2, 55, 92
9, 534599, Note_on_c, 2, 55, 0
9, 534720, Note_on_c, 2, 60, 92
9, 534720, Note_on_c, 2, 64, 92
9, 535200, Control_c, 2, 11, 49
9, 535248, Control_c, 2, 11, 50
9, 535296, Control_c, 2, 11, 51
9, 535344, Control_c, 2, 11, 52
9, 535392, Control_c, 2, 11, 53
9, 535440, Control_c, 2, 11, 54
9, 535488, Control_c, 2, 11, 55
9, 535536, Control_c, 2, 11, 56
9, 535584, Control_c, 2, 11, 57
9, 535632, Control_c, 2, 11, 58
9, 535679, Note_on_c, 2, 64, 0
9, 535680, Note_on_c, 2, 62, 92
9, 535680, Control_c, 2, 11, 59
9, 535728, Control_c, 2, 11, 60
9, 535776, Control_c, 2, 11, 61
9, 535824, Control_c, 2, 11, 62
9, 535872, Control_c, 2, 11, 63
9, 535920, Control_c, 2, 11, 64
9, 535968, Control_c, 2, 11, 65
9, 536016, Control_c, 2, 11, 66
9, 536064, Control_c, 2, 11, 67
9, 536112, Control_c, 2, 11, 68
9, 536160, Control_c, 2, 11, 69
9, 536208, Control_c, 2, 11, 70
9, 536256, Control_c, 2, 11, 71
9, 536304, Control_c, 2, 11, 72
9, 536352, Control_c, 2, 11, 73
9, 536384, Note_on_c, 2, 60, 0
9, 536384, Note_on_c, 2, 62, 0
9, 536400, Note_on_c, 2, 62, 92
9, 536400, Note_on_c, 2, 58, 92
9, 536400, Control_c, 2, 11, 74
9, 536448, Control_c, 2, 11, 75
9, 536496, Control_c, 2, 11, 76
9, 536544, Control_c, 2, 11, 77
9, 536592, Control_c, 2, 11, 78
9, 536624, Note_on_c, 2, 62, 0
9, 536624, Note_on_c, 2, 58, 0
9, 536640, Note_on_c, 2, 58, 92
9, 536640, Note_on_c, 2, 62, 92
9, 536640, Control_c, 2, 11, 79
9, 536688, Control_c, 2, 11, 80
9, 536736, Control_c, 2, 11, 81
9, 536784, Control_c, 2, 11, 82
9, 536832, Control_c, 2, 11, 83
9, 536880, Control_c, 2, 11, 84
9, 536928, Control_c, 2, 11, 85
9, 536976, Control_c, 2, 11, 86
9, 536999, Note_on_c, 2, 58, 0
9, 536999, Note_on_c, 2, 62, 0
9, 537024, Control_c, 2, 11, 87
9, 537072, Control_c, 2, 11, 88
9, 537120, Note_on_c, 2, 62, 92
9, 537120, Note_on_c, 2, 65, 92
9, 537479, Note_on_c, 2, 62, 0
9, 537479, Note_on_c, 2, 65, 0
9, 537598, Control_c, 2, 11, 29
9, 537600, Note_on_c, 2, 62, 92
9, 537600, Note_on_c, 2, 67, 92
9, 538080, Control_c, 2, 11, 29
9, 538119, Control_c, 2, 11, 30
9, 538158, Control_c, 2, 11, 31
9, 538198, Control_c, 2, 11, 32
9, 538237, Control_c, 2, 11, 33
9, 538276, Control_c, 2, 11, 34
9, 538315, Control_c, 2, 11, 35
9, 538354, Control_c, 2, 11, 36
9, 538393, Control_c, 2, 11, 37
9, 538433, Control_c, 2, 11, 38
9, 538472, Control_c, 2, 11, 39
9, 538511, Control_c, 2, 11, 40
9, 538544, Note_on_c, 2, 62, 0
9, 538544, Note_on_c, 2, 67, 0
9, 538550, Control_c, 2, 11, 41
9, 538560, Note_on_c, 2, 62, 92
9, 538560, Note_on_c, 2, 58, 92
9, 538589, Control_c, 2, 11, 42
9, 538629, Control_c, 2, 11, 43
9, 538668, Control_c, 2, 11, 44
9, 538707, Control_c, 2, 11, 45
9, 538746, Control_c, 2, 11, 46
9, 538785, Control_c, 2, 11, 47
9, 538824, Control_c, 2, 11, 48
9, 538864, Control_c, 2, 11, 49
9, 538903, Control_c, 2, 11, 50
9, 538942, Control_c, 2, 11, 51
9, 538981, Control_c, 2, 11, 52
9, 539020, Control_c, 2, 11, 53
9, 539060, Control_c, 2, 11, 54
9, 539099, Control_c, 2, 11, 55
9, 539138, Control_c, 2, 11, 56
9, 539177, Control_c, 2, 11, 57
9, 539216, Control_c, 2, 11, 58
9, 539256, Control_c, 2, 11, 59
9, 539264, Note_on_c, 2, 62, 0
9, 539264, Note_on_c, 2, 58, 0
9, 539280, Note_on_c, 2, 70, 92
9, 539280, Note_on_c, 2, 62, 92
9, 539295, Control_c, 2, 11, 60
9, 539334, Control_c, 2, 11, 61
9, 539373, Control_c, 2, 11, 62
9, 539412, Control_c, 2, 11, 63
9, 539451, Control_c, 2, 11, 64
9, 539491, Control_c, 2, 11, 65
9, 539504, Note_on_c, 2, 70, 0
9, 539504, Note_on_c, 2, 62, 0
9, 539520, Note_on_c, 2, 69, 92
9, 539520, Note_on_c, 2, 72, 92
9, 539530, Control_c, 2, 11, 66
9, 539569, Control_c, 2, 11, 67
9, 539608, Control_c, 2, 11, 68
9, 539647, Control_c, 2, 11, 69
9, 539687, Control_c, 2, 11, 70
9, 539726, Control_c, 2, 11, 71
9, 539765, Control_c, 2, 11, 72
9, 539804, Control_c, 2, 11, 73
9, 539843, Control_c, 2, 11, 74
9, 539882, Control_c, 2, 11, 75
9, 539922, Control_c, 2, 11, 76
9, 539961, Control_c, 2, 11, 77
9, 539984, Note_on_c, 2, 69, 0
9, 539984, Note_on_c, 2, 72, 0
9, 540000, Control_c, 2, 11, 78
9, 540000, Note_on_c, 2, 60, 92
9, 540000, Note_on_c, 2, 57, 92
9, 540039, Control_c, 2, 11, 79
9, 540078, Control_c, 2, 11, 80
9, 540118, Control_c, 2, 11, 81
9, 540157, Control_c, 2, 11, 82
9, 540196, Control_c, 2, 11, 83
9, 540235, Control_c, 2, 11, 84
9, 540274, Control_c, 2, 11, 85
9, 540313, Control_c, 2, 11, 86
9, 540353, Control_c, 2, 11, 87
9, 540392, Control_c, 2, 11, 88
9, 540431, Control_c, 2, 11, 89
9, 540470, Control_c, 2, 11, 90
9, 540509, Control_c, 2, 11, 91
9, 540549, Control_c, 2, 11, 92
9, 540588, Control_c, 2, 11, 93
9, 540627, Control_c, 2, 11, 94
9, 540666, Control_c, 2, 11, 95
9, 540705, Control_c, 2, 11, 96
9, 540744, Control_c, 2, 11, 97
9, 540784, Control_c, 2, 11, 98
9, 540823, Control_c, 2, 11, 99
9, 540862, Control_c, 2, 11, 100
9, 540901, Control_c, 2, 11, 101
9, 540940, Control_c, 2, 11, 102
9, 540944, Note_on_c, 2, 60, 0
9, 540944, Note_on_c, 2, 57, 0
9, 540960, Note_on_c, 2, 58, 92
9, 540960, Note_on_c, 2, 62, 92
9, 540980, Control_c, 2, 11, 103
9, 541019, Control_c, 2, 11, 104
9, 541058, Control_c, 2, 11, 105
9, 541097, Control_c, 2, 11, 106
9, 541136, Control_c, 2, 11, 107
9, 541176, Control_c, 2, 11, 108
9, 541215, Control_c, 2, 11, 109
9, 541254, Control_c, 2, 11, 110
9, 541293, Control_c, 2, 11, 111
9, 541332, Control_c, 2, 11, 112
9, 541371, Control_c, 2, 11, 113
9, 541411, Control_c, 2, 11, 114
9, 541424, Note_on_c, 2, 58, 0
9, 541424, Note_on_c, 2, 62, 0
9, 541440, Note_on_c, 2, 65, 92
9, 541440, Note_on_c, 2, 74, 92
9, 541450, Control_c, 2, 11, 115
9, 541489, Control_c, 2, 11, 116
9, 541528, Control_c, 2, 11, 117
9, 541567, Control_c, 2, 11, 118
9, 541607, Control_c, 2, 11, 119
9, 541646, Control_c, 2, 11, 120
9, 541685, Control_c, 2, 11, 121
9, 541724, Control_c, 2, 11, 122
9, 541763, Control_c, 2, 11, 123
9, 541802, Control_c, 2, 11, 124
9, 541842, Control_c, 2, 11, 125
9, 541881, Control_c, 2, 11, 127
9, 541904, Note_on_c, 2, 65, 0
9, 541904, Note_on_c, 2, 74, 0
9, 541920, Note_on_c, 2, 64, 92
9, 541920, Note_on_c, 2, 67, 92
9, 543344, Note_on_c, 2, 64, 0
9, 543344, Note_on_c, 2, 67, 0
9, 543360, Note_on_c, 2, 67, 92
9, 543360, Control_c, 2, 11, 49
9, 543360, Note_on_c, 2, 64, 92
9, 543840, Control_c, 2, 11, 27
9, 544784, Note_on_c, 2, 67, 0
9, 544784, Note_on_c, 2, 64, 0
9, 544800, Note_on_c, 2, 67, 92
9, 544800, Note_on_c, 2, 64, 92
9, 545264, Note_on_c, 2, 67, 0
9, 545264, Note_on_c, 2, 64, 0
9, 545280, Control_c, 2, 11, 27
9, 545280, Note_on_c, 2, 67, 92
9, 545280, Note_on_c, 2, 76, 92
9, 545320, Control_c, 2, 11, 28
9, 545360, Control_c, 2, 11, 29
9, 545400, Control_c, 2, 11, 30
9, 545440, Control_c, 2, 11, 31
9, 545480, Control_c, 2, 11, 33
9, 545520, Control_c, 2, 11, 34
9, 545560, Control_c, 2, 11, 35
9, 545600, Control_c, 2, 11, 36
9, 545640, Control_c, 2, 11, 37
9, 545680, Control_c, 2, 11, 38
9, 545720, Control_c, 2, 11, 39
9, 545760, Control_c, 2, 11, 40
9, 545800, Control_c, 2, 11, 41
9, 545840, Control_c, 2, 11, 43
9, 545880, Control_c, 2, 11, 44
9, 545920, Control_c, 2, 11, 45
9, 545960, Control_c, 2, 11, 46
9, 546000, Control_c, 2, 11, 47
9, 546040, Control_c, 2, 11, 48
9, 546080, Control_c, 2, 11, 49
9, 546120, Control_c, 2, 11, 50
9, 546160, Control_c, 2, 11, 51
9, 546200, Control_c, 2, 11, 53
9, 546224, Note_on_c, 2, 67, 0
9, 546224, Note_on_c, 2, 76, 0
9, 546240, Control_c, 2, 11, 54
9, 546240, Note_on_c, 2, 67, 92
9, 546240, Note_on_c, 2, 76, 92
9, 546280, Control_c, 2, 11, 55
9, 546320, Control_c, 2, 11, 56
9, 546360, Control_c, 2, 11, 57
9, 546400, Control_c, 2, 11, 58
9, 546440, Control_c, 2, 11, 59
9, 546480, Control_c, 2, 11, 60
9, 546520, Control_c, 2, 11, 61
9, 546560, Control_c, 2, 11, 63
9, 546600, Control_c, 2, 11, 64
9, 546640, Control_c, 2, 11, 65
9, 546680, Control_c, 2, 11, 66
9, 546704, Note_on_c, 2, 67, 0
9, 546704, Note_on_c, 2, 76, 0
9, 546720, Control_c, 2, 11, 67
9, 546720, Note_on_c, 2, 65, 92
9, 546720, Note_on_c, 2, 69, 92
9, 546760, Control_c, 2, 11, 68
9, 546800, Control_c, 2, 11, 69
9, 546840, Control_c, 2, 11, 70
9, 546880, Control_c, 2, 11, 71
9, 546920, Control_c, 2, 11, 73
9, 546960, Control_c, 2, 11, 74
9, 547000, Control_c, 2, 11, 75
9, 547040, Control_c, 2, 11, 76
9, 547080, Control_c, 2, 11, 77
9, 547120, Control_c, 2, 11, 78
9, 547160, Control_c, 2, 11, 79
9, 547200, Control_c, 2, 11, 80
9, 547240, Control_c, 2, 11, 81
9, 547280, Control_c, 2, 11, 83
9, 547320, Control_c, 2, 11, 84
9, 547360, Control_c, 2, 11, 85
9, 547400, Control_c, 2, 11, 86
9, 547440, Control_c, 2, 11, 87
9, 547480, Control_c, 2, 11, 88
9, 547520, Control_c, 2, 11, 89
9, 547560, Control_c, 2, 11, 90
9, 547600, Control_c, 2, 11, 91
9, 547640, Control_c, 2, 11, 93
9, 547664, Note_on_c, 2, 65, 0
9, 547664, Note_on_c, 2, 69, 0
9, 547680, Control_c, 2, 11, 94
9, 547680, Note_on_c, 2, 65, 92
9, 547680, Note_on_c, 2, 69, 92
9, 547720, Control_c, 2, 11, 95
9, 547760, Control_c, 2, 11, 96
9, 547800, Control_c, 2, 11, 97
9, 547840, Control_c, 2, 11, 98
9, 547880, Control_c, 2, 11, 99
9, 547920, Control_c, 2, 11, 100
9, 547960, Control_c, 2, 11, 101
9, 548000, Control_c, 2, 11, 103
9, 548040, Control_c, 2, 11, 104
9, 548080, Control_c, 2, 11, 105
9, 548120, Control_c, 2, 11, 107
9, 548144, Note_on_c, 2, 65, 0
9, 548144, Note_on_c, 2, 69, 0
9, 548160, Note_on_c, 2, 66, 92
9, 548160, Note_on_c, 2, 69, 92
9, 549599, Note_on_c, 2, 66, 0
9, 549599, Note_on_c, 2, 69, 0
9, 549840, Control_c, 2, 11, 127
9, 550080, Note_on_c, 2, 79, 92
9, 550080, Note_on_c, 2, 67, 92
9, 550784, Note_on_c, 2, 79, 0
9, 550784, Note_on_c, 2, 67, 0
9, 550800, Note_on_c, 2, 75, 92
9, 550800, Note_on_c, 2, 79, 92
9, 551024, Note_on_c, 2, 75, 0
9, 551024, Note_on_c, 2, 79, 0
9, 551040, Note_on_c, 2, 79, 92
9, 551040, Note_on_c, 2, 75, 92
9, 551984, Note_on_c, 2, 79, 0
9, 551984, Note_on_c, 2, 75, 0
9, 552000, Note_on_c, 2, 79, 92
9, 552000, Note_on_c, 2, 75, 92
9, 552464, Note_on_c, 2, 79, 0
9, 552464, Note_on_c, 2, 75, 0
9, 552480, Note_on_c, 2, 79, 92
9, 552480, Note_on_c, 2, 75, 92
9, 552944, Note_on_c, 2, 79, 0
9, 552944, Note_on_c, 2, 75, 0
9, 552960, Note_on_c, 2, 75, 92
9, 552960, Note_on_c, 2, 79, 92
9, 553904, Note_on_c, 2, 75, 0
9, 553904, Note_on_c, 2, 79, 0
9, 553920, Note_on_c, 2, 75, 92
9, 553920, Note_on_c, 2, 79, 92
9, 554864, Note_on_c, 2, 75, 0
9, 554864, Note_on_c, 2, 79, 0
9, 554880, Note_on_c, 2, 79, 92
9, 554880, Note_on_c, 2, 75, 92
9, 555359, Note_on_c, 2, 79, 0
9, 555359, Note_on_c, 2, 75, 0
9, 559200, Note_on_c, 2, 76, 32
9, 559680, Note_on_c, 2, 79, 32
9, 560144, Note_on_c, 2, 76, 0
9, 560144, Note_on_c, 2, 79, 0
9, 560160, Note_on_c, 2, 76, 32
9, 560160, Note_on_c, 2, 79, 32
9, 560299, Note_on_c, 2, 76, 0
9, 560299, Note_on_c, 2, 79, 0
9, 560320, Note_on_c, 2, 79, 32
9, 560320, Note_on_c, 2, 76, 32
9, 560459, Note_on_c, 2, 79, 0
9, 560459, Note_on_c, 2, 76, 0
9, 560480, Note_on_c, 2, 79, 32
9, 560480, Note_on_c, 2, 76, 32
9, 560599, Note_on_c, 2, 79, 0
9, 560599, Note_on_c, 2, 76, 0
9, 560640, Note_on_c, 2, 79, 32
9, 560640, Note_on_c, 2, 76, 32
9, 560779, Note_on_c, 2, 79, 0
9, 560779, Note_on_c, 2, 76, 0
9, 560800, Note_on_c, 2, 79, 32
9, 560800, Note_on_c, 2, 76, 32
9, 560939, Note_on_c, 2, 79, 0
9, 560939, Note_on_c, 2, 76, 0
9, 560960, Note_on_c, 2, 76, 32
9, 560960, Note_on_c, 2, 79, 32
9, 561079, Note_on_c, 2, 76, 0
9, 561079, Note_on_c, 2, 79, 0
9, 561120, Note_on_c, 2, 79, 32
9, 561120, Note_on_c, 2, 76, 32
9, 561259, Note_on_c, 2, 79, 0
9, 561259, Note_on_c, 2, 76, 0
9, 561280, Note_on_c, 2, 76, 32
9, 561280, Note_on_c, 2, 79, 32
9, 561419, Note_on_c, 2, 76, 0
9, 561419, Note_on_c, 2, 79, 0
9, 561440, Note_on_c, 2, 79, 32
9, 561440, Note_on_c, 2, 76, 32
9, 561559, Note_on_c, 2, 79, 0
9, 561559, Note_on_c, 2, 76, 0
9, 561600, Note_on_c, 2, 76, 32
9, 561600, Note_on_c, 2, 79, 32
9, 561739, Note_on_c, 2, 76, 0
9, 561739, Note_on_c, 2, 79, 0
9, 561760, Note_on_c, 2, 79, 32
9, 561760, Note_on_c, 2, 76, 32
9, 561899, Note_on_c, 2, 79, 0
9, 561899, Note_on_c, 2, 76, 0
9, 561920, Note_on_c, 2, 76, 32
9, 561920, Note_on_c, 2, 79, 32
9, 562039, Note_on_c, 2, 76, 0
9, 562039, Note_on_c, 2, 79, 0
9, 562080, Note_on_c, 2, 76, 32
9, 562080, Note_on_c, 2, 79, 32
9, 562219, Note_on_c, 2, 76, 0
9, 562219, Note_on_c, 2, 79, 0
9, 562240, Note_on_c, 2, 76, 32
9, 562240, Note_on_c, 2, 79, 32
9, 562379, Note_on_c, 2, 76, 0
9, 562379, Note_on_c, 2, 79, 0
9, 562400, Note_on_c, 2, 76, 32
9, 562400, Note_on_c, 2, 79, 32
9, 562519, Note_on_c, 2, 76, 0
9, 562519, Note_on_c, 2, 79, 0
9, 562560, Note_on_c, 2, 76, 32
9, 562560, Note_on_c, 2, 79, 32
9, 562699, Note_on_c, 2, 76, 0
9, 562699, Note_on_c, 2, 79, 0
9, 562720, Note_on_c, 2, 79, 32
9, 562720, Note_on_c, 2, 76, 32
9, 562859, Note_on_c, 2, 79, 0
9, 562859, Note_on_c, 2, 76, 0
9, 562880, Note_on_c, 2, 76, 32
9, 562880, Note_on_c, 2, 79, 32
9, 562999, Note_on_c, 2, 76, 0
9, 562999, Note_on_c, 2, 79, 0
9, 563040, Note_on_c, 2, 76, 32
9, 563040, Note_on_c, 2, 79, 32
9, 563179, Note_on_c, 2, 76, 0
9, 563179, Note_on_c, 2, 79, 0
9, 563200, Note_on_c, 2, 79, 32
9, 563200, Note_on_c, 2, 76, 32
9, 563339, Note_on_c, 2, 79, 0
9, 563339, Note_on_c, 2, 76, 0
9, 563360, Note_on_c, 2, 79, 32
9, 563360, Note_on_c, 2, 76, 32
9, 563479, Note_on_c, 2, 79, 0
9, 563479, Note_on_c, 2, 76, 0
9, 563520, Note_on_c, 2, 76, 32
9, 563520, Note_on_c, 2, 79, 32
9, 563659, Note_on_c, 2, 76, 0
9, 563659, Note_on_c, 2, 79, 0
9, 563680, Note_on_c, 2, 79, 32
9, 563680, Note_on_c, 2, 76, 32
9, 563819, Note_on_c, 2, 79, 0
9, 563819, Note_on_c, 2, 76, 0
9, 563840, Note_on_c, 2, 79, 32
9, 563840, Note_on_c, 2, 76, 32
9, 563959, Note_on_c, 2, 79, 0
9, 563959, Note_on_c, 2, 76, 0
9, 564010, Note_on_c, 2, 76, 32
9, 564010, Note_on_c, 2, 79, 32
9, 564149, Note_on_c, 2, 76, 0
9, 564149, Note_on_c, 2, 79, 0
9, 564170, Note_on_c, 2, 79, 32
9, 564170, Note_on_c, 2, 76, 32
9, 564309, Note_on_c, 2, 79, 0
9, 564309, Note_on_c, 2, 76, 0
9, 564330, Note_on_c, 2, 79, 32
9, 564330, Note_on_c, 2, 76, 32
9, 564449, Note_on_c, 2, 79, 0
9, 564449, Note_on_c, 2, 76, 0
9, 564480, Note_on_c, 2, 76, 32
9, 564480, Note_on_c, 2, 79, 32
9, 564619, Note_on_c, 2, 76, 0
9, 564619, Note_on_c, 2, 79, 0
9, 564640, Note_on_c, 2, 76, 32
9, 564640, Note_on_c, 2, 79, 32
9, 564779, Note_on_c, 2, 76, 0
9, 564779, Note_on_c, 2, 79, 0
9, 564800, Note_on_c, 2, 79, 32
9, 564800, Note_on_c, 2, 76, 32
9, 564919, Note_on_c, 2, 79, 0
9, 564919, Note_on_c, 2, 76, 0
9, 564960, Note_on_c, 2, 76, 32
9, 564960, Note_on_c, 2, 79, 32
9, 565099, Note_on_c, 2, 76, 0
9, 565099, Note_on_c, 2, 79, 0
9, 565120, Note_on_c, 2, 79, 32
9, 565120, Note_on_c, 2, 76, 32
9, 565259, Note_on_c, 2, 79, 0
9, 565259, Note_on_c, 2, 76, 0
9, 565280, Note_on_c, 2, 79, 32
9, 565280, Note_on_c, 2, 76, 32
9, 565399, Note_on_c, 2, 79, 0
9, 565399, Note_on_c, 2, 76, 0
9, 565440, Note_on_c, 2, 79, 32
9, 565440, Note_on_c, 2, 76, 32
9, 565579, Note_on_c, 2, 79, 0
9, 565579, Note_on_c, 2, 76, 0
9, 565600, Note_on_c, 2, 79, 32
9, 565600, Note_on_c, 2, 76, 32
9, 565739, Note_on_c, 2, 79, 0
9, 565739, Note_on_c, 2, 76, 0
9, 565760, Note_on_c, 2, 79, 32
9, 565760, Note_on_c, 2, 76, 32
9, 565879, Note_on_c, 2, 79, 0
9, 565879, Note_on_c, 2, 76, 0
9, 565920, Note_on_c, 2, 76, 32
9, 565920, Note_on_c, 2, 79, 32
9, 566059, Note_on_c, 2, 76, 0
9, 566059, Note_on_c, 2, 79, 0
9, 566080, Note_on_c, 2, 76, 32
9, 566080, Note_on_c, 2, 79, 32
9, 566219, Note_on_c, 2, 76, 0
9, 566219, Note_on_c, 2, 79, 0
9, 566240, Note_on_c, 2, 79, 32
9, 566240, Note_on_c, 2, 76, 32
9, 566359, Note_on_c, 2, 79, 0
9, 566359, Note_on_c, 2, 76, 0
9, 566400, Note_on_c, 2, 79, 32
9, 566400, Note_on_c, 2, 76, 32
9, 566539, Note_on_c, 2, 79, 0
9, 566539, Note_on_c, 2, 76, 0
9, 566560, Note_on_c, 2, 76, 32
9, 566560, Note_on_c, 2, 79, 32
9, 566679, Note_on_c, 2, 76, 0
9, 566679, Note_on_c, 2, 79, 0
9, 566720, Note_on_c, 2, 76, 32
9, 566720, Note_on_c, 2, 79, 32
9, 566879, Note_on_c, 2, 76, 0
9, 566879, Note_on_c, 2, 79, 0
9, 567600, Note_on_c, 2, 74, 92
9, 569019, Note_on_c, 2, 74, 0
9, 569040, Note_on_c, 2, 74, 100
9, 569120, Control_c, 2, 11, 107
9, 569739, Note_on_c, 2, 74, 0
9, 569758, Control_c, 2, 11, 127
9, 569760, Note_on_c, 2, 73, 100
9, 569840, Control_c, 2, 11, 107
9, 570459, Note_on_c, 2, 73, 0
9, 570478, Control_c, 2, 11, 127
9, 570480, Note_on_c, 2, 69, 100
9, 570560, Control_c, 2, 11, 107
9, 571179, Note_on_c, 2, 69, 0
9, 571198, Control_c, 2, 11, 127
9, 571200, Note_on_c, 2, 71, 100
9, 571280, Control_c, 2, 11, 107
9, 571899, Note_on_c, 2, 71, 0
9, 571918, Control_c, 2, 11, 127
9, 571920, Note_on_c, 2, 71, 100
9, 572000, Control_c, 2, 11, 107
9, 572619, Note_on_c, 2, 71, 0
9, 572638, Control_c, 2, 11, 127
9, 572640, Note_on_c, 2, 69, 80
9, 573339, Note_on_c, 2, 69, 0
9, 573360, Note_on_c, 2, 66, 80
9, 574059, Note_on_c, 2, 66, 0
9, 574080, Note_on_c, 2, 67, 80
9, 574779, Note_on_c, 2, 67, 0
9, 574800, Note_on_c, 2, 67, 80
9, 575499, Note_on_c, 2, 67, 0
9, 575520, Note_on_c, 2, 66, 80
9, 576219, Note_on_c, 2, 66, 0
9, 576240, Note_on_c, 2, 62, 80
9, 576939, Note_on_c, 2, 62, 0
9, 576960, Note_on_c, 2, 71, 80
9, 577659, Note_on_c, 2, 71, 0
9, 577680, Note_on_c, 2, 71, 80
9, 578379, Note_on_c, 2, 71, 0
9, 578400, Note_on_c, 2, 69, 80
9, 579099, Note_on_c, 2, 69, 0
9, 579120, Note_on_c, 2, 61, 92
9, 580539, Note_on_c, 2, 61, 0
9, 580560, Note_on_c, 2, 61, 80
9, 581259, Note_on_c, 2, 61, 0
9, 581280, Note_on_c, 2, 59, 80
9, 581979, Note_on_c, 2, 59, 0
9, 582000, Note_on_c, 2, 57, 80
9, 582479, Note_on_c, 2, 57, 0
9, 582480, Note_on_c, 2, 56, 80
9, 582699, Note_on_c, 2, 56, 0
9, 582720, Note_on_c, 2, 62, 80
9, 583419, Note_on_c, 2, 62, 0
9, 583440, Note_on_c, 2, 74, 80
9, 584139, Note_on_c, 2, 74, 0
9, 584160, Note_on_c, 2, 76, 80
9, 584859, Note_on_c, 2, 76, 0
9, 584880, Note_on_c, 2, 64, 80
9, 585579, Note_on_c, 2, 64, 0
9, 585600, Note_on_c, 2, 66, 80
9, 586299, Note_on_c, 2, 66, 0
9, 586320, Note_on_c, 2, 66, 80
9, 587019, Note_on_c, 2, 66, 0
9, 587040, Note_on_c, 2, 64, 80
9, 587739, Note_on_c, 2, 64, 0
9, 587760, Note_on_c, 2, 62, 80
9, 588239, Note_on_c, 2, 62, 0
9, 588240, Note_on_c, 2, 61, 80
9, 588459, Note_on_c, 2, 61, 0
9, 588480, Note_on_c, 2, 64, 80
9, 589179, Note_on_c, 2, 64, 0
9, 589200, Note_on_c, 2, 64, 80
9, 589899, Note_on_c, 2, 64, 0
9, 589920, Note_on_c, 2, 62, 80
9, 590639, Note_on_c, 2, 62, 0
9, 592800, Note_on_c, 2, 64, 80
9, 593259, Note_on_c, 2, 64, 0
9, 593280, Note_on_c, 2, 64, 80
9, 593519, Note_on_c, 2, 64, 0
9, 595680, Note_on_c, 2, 69, 80
9, 596139, Note_on_c, 2, 69, 0
9, 596160, Note_on_c, 2, 69, 80
9, 596399, Note_on_c, 2, 69, 0
9, 597840, Note_on_c, 2, 67, 80
9, 598299, Note_on_c, 2, 67, 0
9, 598320, Note_on_c, 2, 55, 80
9, 598539, Note_on_c, 2, 55, 0
9, 598560, Note_on_c, 2, 57, 80
9, 598799, Note_on_c, 2, 57, 0
9, 598800, Note_on_c, 2, 62, 80
9, 599039, Note_on_c, 2, 62, 0
9, 599040, Note_on_c, 2, 64, 80
9, 599159, Note_on_c, 2, 64, 0
9, 599160, Note_on_c, 2, 66, 80
9, 599259, Note_on_c, 2, 66, 0
9, 599280, Note_on_c, 2, 67, 80
9, 599739, Note_on_c, 2, 67, 0
9, 599760, Note_on_c, 2, 66, 80
9, 599979, Note_on_c, 2, 66, 0
9, 600000, Note_on_c, 2, 64, 80
9, 600459, Note_on_c, 2, 64, 0
9, 600480, Note_on_c, 2, 62, 80
9, 600699, Note_on_c, 2, 62, 0
9, 600720, Note_on_c, 2, 61, 80
9, 601179, Note_on_c, 2, 61, 0
9, 601200, Note_on_c, 2, 62, 80
9, 601419, Note_on_c, 2, 62, 0
9, 601440, Note_on_c, 2, 66, 80
9, 601899, Note_on_c, 2, 66, 0
9, 601920, Note_on_c, 2, 64, 80
9, 602159, Note_on_c, 2, 64, 0
9, 602880, Note_on_c, 2, 73, 80
9, 603339, Note_on_c, 2, 73, 0
9, 603360, Note_on_c, 2, 73, 80
9, 603579, Note_on_c, 2, 73, 0
9, 603600, Note_on_c, 2, 74, 80
9, 604059, Note_on_c, 2, 74, 0
9, 604080, Note_on_c, 2, 76, 80
9, 604299, Note_on_c, 2, 76, 0
9, 604320, Note_on_c, 2, 76, 80
9, 604779, Note_on_c, 2, 76, 0
9, 604800, Note_on_c, 2, 74, 80
9, 605019, Note_on_c, 2, 74, 0
9, 605040, Note_on_c, 2, 73, 80
9, 605499, Note_on_c, 2, 73, 0
9, 605520, Note_on_c, 2, 71, 80
9, 605739, Note_on_c, 2, 71, 0
9, 605760, Note_on_c, 2, 69, 80
9, 606219, Note_on_c, 2, 69, 0
9, 606240, Note_on_c, 2, 69, 80
9, 606459, Note_on_c, 2, 69, 0
9, 606480, Note_on_c, 2, 71, 80
9, 606939, Note_on_c, 2, 71, 0
9, 606960, Note_on_c, 2, 73, 80
9, 607179, Note_on_c, 2, 73, 0
9, 607200, Note_on_c, 2, 73, 80
9, 607659, Note_on_c, 2, 73, 0
9, 607680, Note_on_c, 2, 71, 80
9, 607899, Note_on_c, 2, 71, 0
9, 607920, Note_on_c, 2, 69, 80
9, 608379, Note_on_c, 2, 69, 0
9, 608400, Note_on_c, 2, 67, 80
9, 608619, Note_on_c, 2, 67, 0
9, 608640, Note_on_c, 2, 66, 80
9, 609099, Note_on_c, 2, 66, 0
9, 609120, Note_on_c, 2, 66, 80
9, 609339, Note_on_c, 2, 66, 0
9, 609360, Note_on_c, 2, 68, 80
9, 609819, Note_on_c, 2, 68, 0
9, 609840, Note_on_c, 2, 69, 80
9, 610059, Note_on_c, 2, 69, 0
9, 610080, Note_on_c, 2, 69, 80
9, 610539, Note_on_c, 2, 69, 0
9, 610560, Note_on_c, 2, 67, 80
9, 610779, Note_on_c, 2, 67, 0
9, 610800, Note_on_c, 2, 66, 80
9, 611259, Note_on_c, 2, 66, 0
9, 611280, Note_on_c, 2, 64, 80
9, 611499, Note_on_c, 2, 64, 0
9, 611520, Note_on_c, 2, 74, 80
9, 611979, Note_on_c, 2, 74, 0
9, 612000, Note_on_c, 2, 73, 80
9, 612219, Note_on_c, 2, 73, 0
9, 612240, Note_on_c, 2, 71, 80
9, 612699, Note_on_c, 2, 71, 0
9, 612720, Note_on_c, 2, 76, 80
9, 612939, Note_on_c, 2, 76, 0
9, 612960, Note_on_c, 2, 73, 80
9, 613419, Note_on_c, 2, 73, 0
9, 613440, Note_on_c, 2, 73, 80
9, 613659, Note_on_c, 2, 73, 0
9, 613680, Note_on_c, 2, 73, 80
9, 614399, Note_on_c, 2, 73, 0
9, 615120, Note_on_c, 2, 66, 80
9, 615819, Note_on_c, 2, 66, 0
9, 615840, Note_on_c, 2, 66, 80
9, 616299, Note_on_c, 2, 66, 0
9, 616320, Note_on_c, 2, 63, 80
9, 617019, Note_on_c, 2, 63, 0
9, 617040, Note_on_c, 2, 66, 80
9, 617739, Note_on_c, 2, 66, 0
9, 617760, Note_on_c, 2, 63, 80
9, 618459, Note_on_c, 2, 63, 0
9, 618480, Note_on_c, 2, 59, 80
9, 619179, Note_on_c, 2, 59, 0
9, 619200, Note_on_c, 2, 64, 80
9, 619419, Note_on_c, 2, 64, 0
9, 619440, Note_on_c, 2, 64, 80
9, 620159, Note_on_c, 2, 64, 0
9, 622320, Note_on_c, 2, 74, 92
9, 623739, Note_on_c, 2, 74, 0
9, 623760, Note_on_c, 2, 74, 80
9, 624459, Note_on_c, 2, 74, 0
9, 624480, Note_on_c, 2, 73, 80
9, 625179, Note_on_c, 2, 73, 0
9, 625200, Note_on_c, 2, 69, 80
9, 625899, Note_on_c, 2, 69, 0
9, 625920, Note_on_c, 2, 71, 80
9, 626619, Note_on_c, 2, 71, 0
9, 626640, Note_on_c, 2, 71, 80
9, 627339, Note_on_c, 2, 71, 0
9, 627360, Note_on_c, 2, 69, 80
9, 628059, Note_on_c, 2, 69, 0
9, 628080, Note_on_c, 2, 66, 80
9, 628779, Note_on_c, 2, 66, 0
9, 628800, Note_on_c, 2, 68, 80
9, 629499, Note_on_c, 2, 68, 0
9, 629520, Note_on_c, 2, 68, 80
9, 630219, Note_on_c, 2, 68, 0
9, 630240, Note_on_c, 2, 66, 80
9, 630939, Note_on_c, 2, 66, 0
9, 630960, Note_on_c, 2, 62, 80
9, 631659, Note_on_c, 2, 62, 0
9, 631680, Note_on_c, 2, 71, 80
9, 632379, Note_on_c, 2, 71, 0
9, 632400, Note_on_c, 2, 71, 80
9, 633099, Note_on_c, 2, 71, 0
9, 633120, Note_on_c, 2, 69, 80
9, 633839, Note_on_c, 2, 69, 0
9, 634560, Note_on_c, 2, 61, 80
9, 635019, Note_on_c, 2, 61, 0
9, 635040, Note_on_c, 2, 61, 80
9, 635259, Note_on_c, 2, 61, 0
9, 635280, Note_on_c, 2, 63, 80
9, 635739, Note_on_c, 2, 63, 0
9, 635760, Note_on_c, 2, 64, 80
9, 635979, Note_on_c, 2, 64, 0
9, 636000, Note_on_c, 2, 64, 80
9, 636459, Note_on_c, 2, 64, 0
9, 636480, Note_on_c, 2, 62, 80
9, 636699, Note_on_c, 2, 62, 0
9, 636720, Note_on_c, 2, 61, 80
9, 637179, Note_on_c, 2, 61, 0
9, 637200, Note_on_c, 2, 59, 80
9, 637419, Note_on_c, 2, 59, 0
9, 637440, Note_on_c, 2, 62, 80
9, 637899, Note_on_c, 2, 62, 0
9, 637920, Note_on_c, 2, 62, 80
9, 638139, Note_on_c, 2, 62, 0
9, 638160, Note_on_c, 2, 64, 80
9, 638619, Note_on_c, 2, 64, 0
9, 638640, Note_on_c, 2, 66, 80
9, 638859, Note_on_c, 2, 66, 0
9, 638880, Note_on_c, 2, 66, 80
9, 639339, Note_on_c, 2, 66, 0
9, 639360, Note_on_c, 2, 64, 80
9, 639579, Note_on_c, 2, 64, 0
9, 639600, Note_on_c, 2, 62, 80
9, 640059, Note_on_c, 2, 62, 0
9, 640080, Note_on_c, 2, 61, 80
9, 640299, Note_on_c, 2, 61, 0
9, 640320, Note_on_c, 2, 71, 80
9, 640779, Note_on_c, 2, 71, 0
9, 640800, Note_on_c, 2, 71, 80
9, 641019, Note_on_c, 2, 71, 0
9, 641040, Note_on_c, 2, 73, 80
9, 641499, Note_on_c, 2, 73, 0
9, 641520, Note_on_c, 2, 74, 80
9, 641739, Note_on_c, 2, 74, 0
9, 641760, Note_on_c, 2, 73, 80
9, 642219, Note_on_c, 2, 73, 0
9, 642240, Note_on_c, 2, 71, 80
9, 642459, Note_on_c, 2, 71, 0
9, 642480, Note_on_c, 2, 70, 80
9, 642939, Note_on_c, 2, 70, 0
9, 642960, Note_on_c, 2, 68, 80
9, 643179, Note_on_c, 2, 68, 0
9, 643200, Note_on_c, 2, 70, 80
9, 643659, Note_on_c, 2, 70, 0
9, 643680, Note_on_c, 2, 70, 80
9, 643899, Note_on_c, 2, 70, 0
9, 643920, Note_on_c, 2, 71, 80
9, 644379, Note_on_c, 2, 71, 0
9, 644400, Note_on_c, 2, 73, 80
9, 645099, Note_on_c, 2, 73, 0
9, 645120, Note_on_c, 2, 71, 80
9, 645339, Note_on_c, 2, 71, 0
9, 645360, Note_on_c, 2, 73, 80
9, 645819, Note_on_c, 2, 73, 0
9, 645840, Note_on_c, 2, 74, 80
9, 646059, Note_on_c, 2, 74, 0
9, 646080, Note_on_c, 2, 71, 80
9, 646779, Note_on_c, 2, 71, 0
9, 646800, Note_on_c, 2, 71, 80
9, 647499, Note_on_c, 2, 71, 0
9, 647520, Note_on_c, 2, 70, 80
9, 648219, Note_on_c, 2, 70, 0
9, 648240, Note_on_c, 2, 66, 80
9, 648939, Note_on_c, 2, 66, 0
9, 648960, Note_on_c, 2, 76, 80
9, 649659, Note_on_c, 2, 76, 0
9, 649680, Note_on_c, 2, 75, 80
9, 650139, Note_on_c, 2, 75, 0
9, 650160, Note_on_c, 2, 73, 80
9, 650379, Note_on_c, 2, 73, 0
9, 650400, Note_on_c, 2, 75, 80
9, 651099, Note_on_c, 2, 75, 0
9, 651120, Note_on_c, 2, 66, 80
9, 651819, Note_on_c, 2, 66, 0
9, 651840, Note_on_c, 2, 69, 80
9, 652539, Note_on_c, 2, 69, 0
9, 652560, Note_on_c, 2, 68, 80
9, 653019, Note_on_c, 2, 68, 0
9, 653040, Note_on_c, 2, 66, 80
9, 653259, Note_on_c, 2, 66, 0
9, 653280, Note_on_c, 2, 64, 80
9, 653739, Note_on_c, 2, 64, 0
9, 653760, Note_on_c, 2, 68, 80
9, 653979, Note_on_c, 2, 68, 0
9, 654000, Note_on_c, 2, 69, 80
9, 654459, Note_on_c, 2, 69, 0
9, 654480, Note_on_c, 2, 71, 80
9, 654699, Note_on_c, 2, 71, 0
9, 654720, Note_on_c, 2, 76, 80
9, 655179, Note_on_c, 2, 76, 0
9, 655200, Note_on_c, 2, 74, 80
9, 655419, Note_on_c, 2, 74, 0
9, 655440, Note_on_c, 2, 73, 80
9, 655899, Note_on_c, 2, 73, 0
9, 655920, Note_on_c, 2, 71, 80
9, 656139, Note_on_c, 2, 71, 0
9, 656160, Note_on_c, 2, 69, 80
9, 656619, Note_on_c, 2, 69, 0
9, 656640, Note_on_c, 2, 76, 80
9, 656859, Note_on_c, 2, 76, 0
9, 656880, Note_on_c, 2, 74, 80
9, 657339, Note_on_c, 2, 74, 0
9, 657360, Note_on_c, 2, 76, 80
9, 657579, Note_on_c, 2, 76, 0
9, 657600, Note_on_c, 2, 74, 80
9, 658059, Note_on_c, 2, 74, 0
9, 658080, Note_on_c, 2, 73, 80
9, 658319, Note_on_c, 2, 73, 0
9, 661920, Note_on_c, 2, 66, 92
9, 662379, Note_on_c, 2, 66, 0
9, 662400, Note_on_c, 2, 66, 92
9, 662619, Note_on_c, 2, 66, 0
9, 662640, Note_on_c, 2, 67, 92
9, 663099, Note_on_c, 2, 67, 0
9, 663120, Note_on_c, 2, 69, 92
9, 663339, Note_on_c, 2, 69, 0
9, 663360, Note_on_c, 2, 69, 92
9, 663819, Note_on_c, 2, 69, 0
9, 663840, Note_on_c, 2, 67, 92
9, 664059, Note_on_c, 2, 67, 0
9, 664080, Note_on_c, 2, 66, 92
9, 664539, Note_on_c, 2, 66, 0
9, 664560, Note_on_c, 2, 64, 92
9, 664779, Note_on_c, 2, 64, 0
9, 664800, Note_on_c, 2, 62, 92
9, 665259, Note_on_c, 2, 62, 0
9, 665280, Note_on_c, 2, 62, 92
9, 665499, Note_on_c, 2, 62, 0
9, 665520, Note_on_c, 2, 64, 92
9, 665979, Note_on_c, 2, 64, 0
9, 666000, Note_on_c, 2, 66, 92
9, 666219, Note_on_c, 2, 66, 0
9, 666240, Note_on_c, 2, 66, 92
9, 666699, Note_on_c, 2, 66, 0
9, 666720, Note_on_c, 2, 64, 92
9, 666939, Note_on_c, 2, 64, 0
9, 666960, Note_on_c, 2, 62, 92
9, 667419, Note_on_c, 2, 62, 0
9, 667440, Note_on_c, 2, 60, 92
9, 667659, Note_on_c, 2, 60, 0
9, 667680, Note_on_c, 2, 59, 92
9, 668139, Note_on_c, 2, 59, 0
9, 668160, Note_on_c, 2, 71, 92
9, 668379, Note_on_c, 2, 71, 0
9, 668400, Note_on_c, 2, 72, 92
9, 668859, Note_on_c, 2, 72, 0
9, 668880, Note_on_c, 2, 74, 92
9, 669099, Note_on_c, 2, 74, 0
9, 669120, Note_on_c, 2, 74, 92
9, 669579, Note_on_c, 2, 74, 0
9, 669600, Note_on_c, 2, 66, 92
9, 669819, Note_on_c, 2, 66, 0
9, 669840, Note_on_c, 2, 67, 92
9, 670299, Note_on_c, 2, 67, 0
9, 670320, Note_on_c, 2, 69, 92
9, 670539, Note_on_c, 2, 69, 0
9, 670560, Note_on_c, 2, 67, 92
9, 671019, Note_on_c, 2, 67, 0
9, 671040, Note_on_c, 2, 66, 92
9, 671259, Note_on_c, 2, 66, 0
9, 671280, Note_on_c, 2, 67, 92
9, 671739, Note_on_c, 2, 67, 0
9, 671760, Note_on_c, 2, 69, 92
9, 671979, Note_on_c, 2, 69, 0
9, 672000, Note_on_c, 2, 71, 92
9, 672459, Note_on_c, 2, 71, 0
9, 672480, Note_on_c, 2, 69, 92
9, 672699, Note_on_c, 2, 69, 0
9, 672720, Note_on_c, 2, 71, 92
9, 673179, Note_on_c, 2, 71, 0
9, 673200, Note_on_c, 2, 73, 92
9, 673899, Note_on_c, 2, 73, 0
9, 673920, Note_on_c, 2, 69, 92
9, 674139, Note_on_c, 2, 69, 0
9, 674160, Note_on_c, 2, 71, 92
9, 674619, Note_on_c, 2, 71, 0
9, 674640, Note_on_c, 2, 73, 92
9, 674859, Note_on_c, 2, 73, 0
9, 674880, Note_on_c, 2, 74, 92
9, 675339, Note_on_c, 2, 74, 0
9, 675360, Note_on_c, 2, 73, 92
9, 675579, Note_on_c, 2, 73, 0
9, 675600, Note_on_c, 2, 74, 92
9, 676319, Note_on_c, 2, 74, 0
9, 676560, Note_on_c, 2, 66, 32
9, 676779, Note_on_c, 2, 66, 0
9, 676800, Note_on_c, 2, 66, 32
9, 677019, Note_on_c, 2, 66, 0
9, 677040, Note_on_c, 2, 66, 32
9, 677259, Note_on_c, 2, 66, 0
9, 677280, Note_on_c, 2, 66, 32
9, 677499, Note_on_c, 2, 66, 0
9, 677520, Note_on_c, 2, 66, 32
9, 677759, Note_on_c, 2, 66, 0
9, 678000, Note_on_c, 2, 60, 32
9, 678219, Note_on_c, 2, 60, 0
9, 678240, Note_on_c, 2, 60, 32
9, 678459, Note_on_c, 2, 60, 0
9, 678480, Note_on_c, 2, 60, 32
9, 678699, Note_on_c, 2, 60, 0
9, 678720, Note_on_c, 2, 60, 32
9, 678939, Note_on_c, 2, 60, 0
9, 678960, Note_on_c, 2, 60, 32
9, 679199, Note_on_c, 2, 60, 0
9, 679440, Note_on_c, 2, 69, 32
9, 679659, Note_on_c, 2, 69, 0
9, 679680, Note_on_c, 2, 69, 32
9, 679899, Note_on_c, 2, 69, 0
9, 679920, Note_on_c, 2, 69, 32
9, 680139, Note_on_c, 2, 69, 0
9, 680160, Note_on_c, 2, 69, 32
9, 680379, Note_on_c, 2, 69, 0
9, 680400, Note_on_c, 2, 69, 32
9, 680639, Note_on_c, 2, 69, 0
9, 680880, Note_on_c, 2, 70, 32
9, 681099, Note_on_c, 2, 70, 0
9, 681120, Note_on_c, 2, 70, 32
9, 681339, Note_on_c, 2, 70, 0
9, 681360, Note_on_c, 2, 70, 32
9, 681579, Note_on_c, 2, 70, 0
9, 681600, Note_on_c, 2, 70, 32
9, 681819, Note_on_c, 2, 70, 0
9, 681840, Note_on_c, 2, 70, 32
9, 682079, Note_on_c, 2, 70, 0
9, 682320, Note_on_c, 2, 64, 32
9, 682539, Note_on_c, 2, 64, 0
9, 682560, Note_on_c, 2, 64, 32
9, 682779, Note_on_c, 2, 64, 0
9, 682800, Note_on_c, 2, 64, 32
9, 683019, Note_on_c, 2, 64, 0
9, 683040, Note_on_c, 2, 64, 32
9, 683259, Note_on_c, 2, 64, 0
9, 683280, Note_on_c, 2, 64, 32
9, 683519, Note_on_c, 2, 64, 0
9, 683760, Note_on_c, 2, 73, 32
9, 683979, Note_on_c, 2, 73, 0
9, 684000, Note_on_c, 2, 73, 32
9, 684219, Note_on_c, 2, 73, 0
9, 684240, Note_on_c, 2, 73, 32
9, 684459, Note_on_c, 2, 73, 0
9, 684480, Note_on_c, 2, 73, 32
9, 684699, Note_on_c, 2, 73, 0
9, 684720, Note_on_c, 2, 73, 32
9, 684959, Note_on_c, 2, 73, 0
9, 685200, Note_on_c, 2, 74, 32
9, 685419, Note_on_c, 2, 74, 0
9, 685440, Note_on_c, 2, 74, 32
9, 685659, Note_on_c, 2, 74, 0
9, 685680, Note_on_c, 2, 74, 32
9, 685899, Note_on_c, 2, 74, 0
9, 685920, Note_on_c, 2, 74, 32
9, 686139, Note_on_c, 2, 74, 0
9, 686160, Note_on_c, 2, 74, 32
9, 686399, Note_on_c, 2, 74, 0
9, 686640, Note_on_c, 2, 75, 32
9, 686859, Note_on_c, 2, 75, 0
9, 686880, Note_on_c, 2, 75, 32
9, 687099, Note_on_c, 2, 75, 0
9, 687120, Note_on_c, 2, 75, 32
9, 687339, Note_on_c, 2, 75, 0
9, 687360, Note_on_c, 2, 75, 32
9, 687579, Note_on_c, 2, 75, 0
9, 687600, Note_on_c, 2, 75, 32
9, 687839, Note_on_c, 2, 75, 0
9, 688080, Note_on_c, 2, 67, 44
9, 688299, Note_on_c, 2, 67, 0
9, 688320, Note_on_c, 2, 67, 45
9, 688539, Note_on_c, 2, 67, 0
9, 688560, Note_on_c, 2, 67, 46
9, 688779, Note_on_c, 2, 67, 0
9, 688800, Note_on_c, 2, 67, 47
9, 689019, Note_on_c, 2, 67, 0
9, 689040, Note_on_c, 2, 67, 48
9, 689279, Note_on_c, 2, 67, 0
9, 689520, Note_on_c, 2, 76, 50
9, 689739, Note_on_c, 2, 76, 0
9, 689760, Note_on_c, 2, 76, 50
9, 689979, Note_on_c, 2, 76, 0
9, 690000, Note_on_c, 2, 76, 51
9, 690219, Note_on_c, 2, 76, 0
9, 690240, Note_on_c, 2, 76, 52
9, 690459, Note_on_c, 2, 76, 0
9, 690480, Note_on_c, 2, 76, 53
9, 690719, Note_on_c, 2, 76, 0
9, 690960, Note_on_c, 2, 77, 55
9, 691179, Note_on_c, 2, 77, 0
9, 691200, Note_on_c, 2, 77, 56
9, 691419, Note_on_c, 2, 77, 0
9, 691440, Note_on_c, 2, 77, 56
9, 691659, Note_on_c, 2, 77, 0
9, 691680, Note_on_c, 2, 77, 57
9, 691899, Note_on_c, 2, 77, 0
9, 691920, Note_on_c, 2, 77, 58
9, 692159, Note_on_c, 2, 77, 0
9, 692400, Note_on_c, 2, 78, 60
9, 692400, Note_on_c, 2, 66, 60
9, 692619, Note_on_c, 2, 78, 0
9, 692619, Note_on_c, 2, 66, 0
9, 692640, Note_on_c, 2, 78, 61
9, 692640, Note_on_c, 2, 66, 61
9, 692859, Note_on_c, 2, 78, 0
9, 692859, Note_on_c, 2, 66, 0
9, 692880, Note_on_c, 2, 66, 62
9, 692880, Note_on_c, 2, 78, 62
9, 693099, Note_on_c, 2, 66, 0
9, 693099, Note_on_c, 2, 78, 0
9, 693120, Note_on_c, 2, 66, 62
9, 693120, Note_on_c, 2, 78, 62
9, 693339, Note_on_c, 2, 66, 0
9, 693339, Note_on_c, 2, 78, 0
9, 693360, Note_on_c, 2, 78, 63
9, 693360, Note_on_c, 2, 66, 63
9, 693599, Note_on_c, 2, 78, 0
9, 693599, Note_on_c, 2, 66, 0
9, 693840, Note_on_c, 2, 58, 65
9, 693840, Note_on_c, 2, 70, 65
9, 694059, Note_on_c, 2, 58, 0
9, 694059, Note_on_c, 2, 70, 0
9, 694080, Note_on_c, 2, 70, 66
9, 694080, Note_on_c, 2, 58, 66
9, 694299, Note_on_c, 2, 70, 0
9, 694299, Note_on_c, 2, 58, 0
9, 694320, Note_on_c, 2, 58, 67
9, 694320, Note_on_c, 2, 70, 67
9, 694539, Note_on_c, 2, 58, 0
9, 694539, Note_on_c, 2, 70, 0
9, 694560, Note_on_c, 2, 58, 68
9, 694560, Note_on_c, 2, 70, 68
9, 694779, Note_on_c, 2, 58, 0
9, 694779, Note_on_c, 2, 70, 0
9, 694800, Note_on_c, 2, 58, 68
9, 694800, Note_on_c, 2, 70, 68
9, 695039, Note_on_c, 2, 58, 0
9, 695039, Note_on_c, 2, 70, 0
9, 695280, Note_on_c, 2, 67, 70
9, 695280, Note_on_c, 2, 79, 70
9, 695499, Note_on_c, 2, 67, 0
9, 695499, Note_on_c, 2, 79, 0
9, 695520, Note_on_c, 2, 67, 71
9, 695520, Note_on_c, 2, 79, 71
9, 695739, Note_on_c, 2, 67, 0
9, 695739, Note_on_c, 2, 79, 0
9, 695760, Note_on_c, 2, 67, 72
9, 695760, Note_on_c, 2, 79, 72
9, 695979, Note_on_c, 2, 67, 0
9, 695979, Note_on_c, 2, 79, 0
9, 696000, Note_on_c, 2, 67, 73
9, 696000, Note_on_c, 2, 79, 73
9, 696219, Note_on_c, 2, 67, 0
9, 696219, Note_on_c, 2, 79, 0
9, 696240, Note_on_c, 2, 67, 74
9, 696240, Note_on_c, 2, 79, 74
9, 696479, Note_on_c, 2, 67, 0
9, 696479, Note_on_c, 2, 79, 0
9, 696720, Note_on_c, 2, 68, 75
9, 696720, Note_on_c, 2, 80, 75
9, 696939, Note_on_c, 2, 68, 0
9, 696939, Note_on_c, 2, 80, 0
9, 696960, Note_on_c, 2, 68, 76
9, 696960, Note_on_c, 2, 80, 76
9, 697179, Note_on_c, 2, 68, 0
9, 697179, Note_on_c, 2, 80, 0
9, 697200, Note_on_c, 2, 80, 77
9, 697200, Note_on_c, 2, 68, 77
9, 697419, Note_on_c, 2, 80, 0
9, 697419, Note_on_c, 2, 68, 0
9, 697440, Note_on_c, 2, 68, 78
9, 697440, Note_on_c, 2, 80, 78
9, 697659, Note_on_c, 2, 68, 0
9, 697659, Note_on_c, 2, 80, 0
9, 697680, Note_on_c, 2, 80, 79
9, 697680, Note_on_c, 2, 68, 79
9, 697899, Note_on_c, 2, 80, 0
9, 697899, Note_on_c, 2, 68, 0
9, 697920, Note_on_c, 2, 81, 80
9, 697920, Note_on_c, 2, 69, 80
9, 698619, Note_on_c, 2, 81, 0
9, 698619, Note_on_c, 2, 69, 0
9, 698640, Note_on_c, 2, 73, 92
9, 698640, Note_on_c, 2, 76, 92
9, 698720, Control_c, 2, 11, 107
9, 700059, Note_on_c, 2, 73, 0
9, 700059, Note_on_c, 2, 76, 0
9, 700080, Note_on_c, 2, 73, 92
9, 700080, Note_on_c, 2, 76, 92
9, 700799, Note_on_c, 2, 73, 0
9, 700799, Note_on_c, 2, 76, 0
9, 702000, Control_c, 2, 11, 127
9, 702240, Note_on_c, 2, 71, 80
9, 702240, Note_on_c, 2, 80, 80
9, 702939, Note_on_c, 2, 71, 0
9, 702939, Note_on_c, 2, 80, 0
9, 702960, Note_on_c, 2, 80, 80
9, 702960, Note_on_c, 2, 71, 80
9, 703679, Note_on_c, 2, 80, 0
9, 703679, Note_on_c, 2, 71, 0
9, 709400, Control_c, 2, 11, 102
9, 709440, Note_on_c, 2, 61, 80
9, 709440, Note_on_c, 2, 57, 80
9, 709440, Control_c, 2, 11, 99
9, 709480, Control_c, 2, 11, 94
9, 709520, Control_c, 2, 11, 89
9, 709560, Control_c, 2, 11, 84
9, 709600, Control_c, 2, 11, 79
9, 709640, Control_c, 2, 11, 74
9, 709680, Control_c, 2, 11, 69
9, 709919, Note_on_c, 2, 61, 0
9, 709919, Note_on_c, 2, 57, 0
9, 709920, Note_on_c, 2, 59, 80
9, 709920, Note_on_c, 2, 62, 80
9, 710159, Note_on_c, 2, 59, 0
9, 710159, Note_on_c, 2, 62, 0
9, 710160, Note_on_c, 2, 64, 80
9, 710160, Note_on_c, 2, 61, 80
9, 710639, Note_on_c, 2, 64, 0
9, 710639, Note_on_c, 2, 61, 0
9, 710640, Note_on_c, 2, 62, 80
9, 710640, Note_on_c, 2, 66, 80
9, 710879, Note_on_c, 2, 62, 0
9, 710879, Note_on_c, 2, 66, 0
9, 710880, Note_on_c, 2, 64, 80
9, 710880, Note_on_c, 2, 68, 80
9, 711359, Note_on_c, 2, 64, 0
9, 711359, Note_on_c, 2, 68, 0
9, 711360, Note_on_c, 2, 66, 80
9, 711360, Note_on_c, 2, 69, 80
9, 711599, Note_on_c, 2, 66, 0
9, 711599, Note_on_c, 2, 69, 0
9, 711600, Note_on_c, 2, 71, 80
9, 711600, Note_on_c, 2, 68, 80
9, 712079, Note_on_c, 2, 71, 0
9, 712079, Note_on_c, 2, 68, 0
9, 712080, Note_on_c, 2, 69, 80
9, 712080, Note_on_c, 2, 73, 80
9, 712299, Note_on_c, 2, 69, 0
9, 712299, Note_on_c, 2, 73, 0
9, 712318, Control_c, 2, 11, 89
9, 712320, Note_on_c, 2, 62, 68
9, 712320, Note_on_c, 2, 74, 68
9, 712799, Note_on_c, 2, 62, 0
9, 712799, Note_on_c, 2, 74, 0
9, 712800, Note_on_c, 2, 76, 68
9, 712800, Note_on_c, 2, 64, 68
9, 713039, Note_on_c, 2, 76, 0
9, 713039, Note_on_c, 2, 64, 0
9, 713040, Note_on_c, 2, 66, 68
9, 713040, Note_on_c, 2, 78, 68
9, 713519, Note_on_c, 2, 66, 0
9, 713519, Note_on_c, 2, 78, 0
9, 713520, Note_on_c, 2, 68, 68
9, 713520, Note_on_c, 2, 80, 68
9, 713759, Note_on_c, 2, 68, 0
9, 713759, Note_on_c, 2, 80, 0
9, 713760, Note_on_c, 2, 69, 68
9, 713760, Note_on_c, 2, 81, 68
9, 714239, Note_on_c, 2, 69, 0
9, 714239, Note_on_c, 2, 81, 0
9, 714240, Note_on_c, 2, 71, 68
9, 714240, Note_on_c, 2, 83, 68
9, 714479, Note_on_c, 2, 71, 0
9, 714479, Note_on_c, 2, 83, 0
9, 714480, Note_on_c, 2, 73, 68
9, 714480, Note_on_c, 2, 85, 68
9, 714959, Note_on_c, 2, 73, 0
9, 714959, Note_on_c, 2, 85, 0
9, 714960, Note_on_c, 2, 86, 68
9, 714960, Note_on_c, 2, 74, 68
9, 715199, Note_on_c, 2, 86, 0
9, 715199, Note_on_c, 2, 74, 0
9, 715200, Note_on_c, 2, 76, 68
9, 715200, Note_on_c, 2, 88, 68
9, 715439, Note_on_c, 2, 76, 0
9, 715439, Note_on_c, 2, 88, 0
9, 715680, Note_on_c, 2, 71, 68
9, 715919, Note_on_c, 2, 71, 0
9, 715920, Note_on_c, 2, 69, 68
9, 716399, Note_on_c, 2, 69, 0
9, 716400, Note_on_c, 2, 71, 68
9, 716619, Note_on_c, 2, 71, 0
9, 716640, Control_c, 2, 11, 89
9, 716640, Note_on_c, 2, 72, 68
9, 716700, Control_c, 2, 11, 92
9, 716760, Control_c, 2, 11, 95
9, 716820, Control_c, 2, 11, 99
9, 716879, Note_on_c, 2, 72, 0
9, 716880, Control_c, 2, 11, 102
9, 716880, Note_on_c, 2, 71, 68
9, 716940, Control_c, 2, 11, 105
9, 717000, Control_c, 2, 11, 109
9, 717060, Control_c, 2, 11, 112
9, 717119, Note_on_c, 2, 71, 0
9, 717120, Control_c, 2, 11, 115
9, 717120, Note_on_c, 2, 72, 68
9, 717180, Control_c, 2, 11, 119
9, 717240, Control_c, 2, 11, 122
9, 717300, Control_c, 2, 11, 125
9, 717359, Note_on_c, 2, 72, 0
9, 717360, Control_c, 2, 11, 127
9, 717360, Note_on_c, 2, 74, 68
9, 717420, Control_c, 2, 11, 125
9, 717480, Control_c, 2, 11, 122
9, 717540, Control_c, 2, 11, 119
9, 717599, Note_on_c, 2, 74, 0
9, 717600, Note_on_c, 2, 76, 68
9, 717600, Control_c, 2, 11, 115
9, 717660, Control_c, 2, 11, 112
9, 717720, Control_c, 2, 11, 109
9, 717780, Control_c, 2, 11, 105
9, 717839, Note_on_c, 2, 76, 0
9, 717840, Note_on_c, 2, 78, 68
9, 717840, Control_c, 2, 11, 102
9, 717900, Control_c, 2, 11, 99
9, 717960, Control_c, 2, 11, 95
9, 718020, Control_c, 2, 11, 92
9, 718059, Note_on_c, 2, 78, 0
9, 718080, Control_c, 2, 11, 89
9, 718080, Note_on_c, 2, 79, 68
9, 718319, Note_on_c, 2, 79, 0
9, 718798, Control_c, 2, 11, 127
9, 718800, Note_on_c, 2, 67, 44
9, 719279, Note_on_c, 2, 67, 0
9, 719280, Note_on_c, 2, 69, 44
9, 719519, Note_on_c, 2, 69, 0
9, 719520, Note_on_c, 2, 71, 38
9, 719999, Note_on_c, 2, 71, 0
9, 720000, Note_on_c, 2, 72, 38
9, 720239, Note_on_c, 2, 72, 0
9, 720240, Note_on_c, 2, 74, 38
9, 720719, Note_on_c, 2, 74, 0
9, 720720, Note_on_c, 2, 76, 38
9, 720959, Note_on_c, 2, 76, 0
9, 720960, Note_on_c, 2, 78, 38
9, 721439, Note_on_c, 2, 78, 0
9, 721440, Note_on_c, 2, 79, 38
9, 721679, Note_on_c, 2, 79, 0
9, 721680, Note_on_c, 2, 81, 38
9, 722159, Note_on_c, 2, 81, 0
9, 722160, Note_on_c, 2, 83, 38
9, 723119, Note_on_c, 2, 83, 0
9, 723120, Note_on_c, 2, 83, 32
9, 723839, Note_on_c, 2, 83, 0
9, 726240, Note_on_c, 2, 67, 32
9, 726339, Note_on_c, 2, 67, 0
9, 726360, Note_on_c, 2, 66, 32
9, 726459, Note_on_c, 2, 66, 0
9, 726480, Note_on_c, 2, 64, 32
9, 726579, Note_on_c, 2, 64, 0
9, 726600, Note_on_c, 2, 74, 32
9, 726699, Note_on_c, 2, 74, 0
9, 726720, Note_on_c, 2, 73, 32
9, 726819, Note_on_c, 2, 73, 0
9, 726840, Note_on_c, 2, 71, 32
9, 726939, Note_on_c, 2, 71, 0
9, 726960, Note_on_c, 2, 69, 32
9, 727059, Note_on_c, 2, 69, 0
9, 727080, Note_on_c, 2, 67, 32
9, 727179, Note_on_c, 2, 67, 0
9, 727200, Note_on_c, 2, 66, 32
9, 727299, Note_on_c, 2, 66, 0
9, 727320, Note_on_c, 2, 64, 32
9, 727419, Note_on_c, 2, 64, 0
9, 727440, Note_on_c, 2, 62, 32
9, 727539, Note_on_c, 2, 62, 0
9, 727560, Note_on_c, 2, 61, 32
9, 727659, Note_on_c, 2, 61, 0
9, 727680, Note_on_c, 2, 62, 32
9, 727919, Note_on_c, 2, 62, 0
9, 728640, Note_on_c, 2, 69, 32
9, 729239, Note_on_c, 2, 69, 0
9, 729240, Note_on_c, 2, 71, 32
9, 729359, Note_on_c, 2, 71, 0
9, 729360, Note_on_c, 2, 73, 32
9, 729479, Note_on_c, 2, 73, 0
9, 729480, Note_on_c, 2, 69, 32
9, 729599, Note_on_c, 2, 69, 0
9, 729600, Note_on_c, 2, 74, 32
9, 729839, Note_on_c, 2, 74, 0
9, 731520, Note_on_c, 2, 66, 32
9, 731520, Note_on_c, 2, 62, 32
9, 732119, Note_on_c, 2, 66, 0
9, 732119, Note_on_c, 2, 62, 0
9, 732120, Note_on_c, 2, 64, 32
9, 732120, Note_on_c, 2, 67, 32
9, 732239, Note_on_c, 2, 64, 0
9, 732239, Note_on_c, 2, 67, 0
9, 732240, Note_on_c, 2, 69, 32
9, 732240, Note_on_c, 2, 66, 32
9, 732359, Note_on_c, 2, 69, 0
9, 732359, Note_on_c, 2, 66, 0
9, 732360, Note_on_c, 2, 66, 32
9, 732360, Note_on_c, 2, 62, 32
9, 732459, Note_on_c, 2, 66, 0
9, 732459, Note_on_c, 2, 62, 0
9, 732480, Note_on_c, 2, 67, 32
9, 732480, Note_on_c, 2, 64, 32
9, 732699, Note_on_c, 2, 67, 0
9, 732699, Note_on_c, 2, 64, 0
9, 732720, Note_on_c, 2, 67, 32
9, 732720, Note_on_c, 2, 64, 32
9, 732939, Note_on_c, 2, 67, 0
9, 732939, Note_on_c, 2, 64, 0
9, 732960, Note_on_c, 2, 64, 32
9, 732960, Note_on_c, 2, 67, 32
9, 733179, Note_on_c, 2, 64, 0
9, 733179, Note_on_c, 2, 67, 0
9, 733200, Note_on_c, 2, 67, 32
9, 733200, Note_on_c, 2, 64, 32
9, 733419, Note_on_c, 2, 67, 0
9, 733419, Note_on_c, 2, 64, 0
9, 733440, Note_on_c, 2, 66, 32
9, 733440, Note_on_c, 2, 62, 32
9, 733539, Note_on_c, 2, 66, 0
9, 733539, Note_on_c, 2, 62, 0
9, 733560, Note_on_c, 2, 76, 32
9, 733560, Note_on_c, 2, 64, 32
9, 733659, Note_on_c, 2, 76, 0
9, 733659, Note_on_c, 2, 64, 0
9, 733680, Note_on_c, 2, 66, 32
9, 733680, Note_on_c, 2, 78, 32
9, 733779, Note_on_c, 2, 66, 0
9, 733779, Note_on_c, 2, 78, 0
9, 733800, Note_on_c, 2, 66, 32
9, 733800, Note_on_c, 2, 78, 32
9, 733899, Note_on_c, 2, 66, 0
9, 733899, Note_on_c, 2, 78, 0
9, 733920, Note_on_c, 2, 66, 32
9, 733920, Note_on_c, 2, 78, 32
9, 734019, Note_on_c, 2, 66, 0
9, 734019, Note_on_c, 2, 78, 0
9, 734040, Note_on_c, 2, 76, 32
9, 734040, Note_on_c, 2, 64, 32
9, 734139, Note_on_c, 2, 76, 0
9, 734139, Note_on_c, 2, 64, 0
9, 734160, Note_on_c, 2, 62, 32
9, 734160, Note_on_c, 2, 74, 32
9, 734259, Note_on_c, 2, 62, 0
9, 734259, Note_on_c, 2, 74, 0
9, 734280, Note_on_c, 2, 73, 32
9, 734280, Note_on_c, 2, 61, 32
9, 734379, Note_on_c, 2, 73, 0
9, 734379, Note_on_c, 2, 61, 0
9, 734400, Note_on_c, 2, 71, 32
9, 734400, Note_on_c, 2, 59, 32
9, 734499, Note_on_c, 2, 71, 0
9, 734499, Note_on_c, 2, 59, 0
9, 734520, Note_on_c, 2, 61, 32
9, 734520, Note_on_c, 2, 73, 32
9, 734619, Note_on_c, 2, 61, 0
9, 734619, Note_on_c, 2, 73, 0
9, 734640, Note_on_c, 2, 74, 32
9, 734640, Note_on_c, 2, 62, 32
9, 734739, Note_on_c, 2, 74, 0
9, 734739, Note_on_c, 2, 62, 0
9, 734760, Note_on_c, 2, 74, 32
9, 734760, Note_on_c, 2, 62, 32
9, 734859, Note_on_c, 2, 74, 0
9, 734859, Note_on_c, 2, 62, 0
9, 734880, Note_on_c, 2, 62, 32
9, 734880, Note_on_c, 2, 74, 32
9, 734979, Note_on_c, 2, 62, 0
9, 734979, Note_on_c, 2, 74, 0
9, 735000, Note_on_c, 2, 73, 32
9, 735000, Note_on_c, 2, 61, 32
9, 735099, Note_on_c, 2, 73, 0
9, 735099, Note_on_c, 2, 61, 0
9, 735120, Note_on_c, 2, 71, 32
9, 735120, Note_on_c, 2, 59, 32
9, 735219, Note_on_c, 2, 71, 0
9, 735219, Note_on_c, 2, 59, 0
9, 735240, Note_on_c, 2, 57, 32
9, 735240, Note_on_c, 2, 69, 32
9, 735339, Note_on_c, 2, 57, 0
9, 735339, Note_on_c, 2, 69, 0
9, 735360, Note_on_c, 2, 56, 32
9, 735360, Note_on_c, 2, 68, 32
9, 735459, Note_on_c, 2, 56, 0
9, 735459, Note_on_c, 2, 68, 0
9, 735480, Note_on_c, 2, 69, 32
9, 735579, Note_on_c, 2, 69, 0
9, 735600, Note_on_c, 2, 71, 32
9, 735699, Note_on_c, 2, 71, 0
9, 735720, Note_on_c, 2, 71, 32
9, 735819, Note_on_c, 2, 71, 0
9, 735840, Note_on_c, 2, 71, 32
9, 735939, Note_on_c, 2, 71, 0
9, 735960, Note_on_c, 2, 69, 32
9, 736059, Note_on_c, 2, 69, 0
9, 736080, Note_on_c, 2, 68, 32
9, 736179, Note_on_c, 2, 68, 0
9, 736200, Note_on_c, 2, 66, 32
9, 736299, Note_on_c, 2, 66, 0
9, 736320, Note_on_c, 2, 68, 32
9, 736419, Note_on_c, 2, 68, 0
9, 736440, Note_on_c, 2, 69, 32
9, 736539, Note_on_c, 2, 69, 0
9, 736560, Note_on_c, 2, 71, 32
9, 736659, Note_on_c, 2, 71, 0
9, 736680, Note_on_c, 2, 73, 32
9, 736779, Note_on_c, 2, 73, 0
9, 736800, Note_on_c, 2, 74, 32
9, 736899, Note_on_c, 2, 74, 0
9, 736920, Note_on_c, 2, 76, 32
9, 736920, Note_on_c, 2, 64, 32
9, 737019, Note_on_c, 2, 76, 0
9, 737019, Note_on_c, 2, 64, 0
9, 737040, Note_on_c, 2, 78, 32
9, 737040, Note_on_c, 2, 66, 32
9, 737139, Note_on_c, 2, 78, 0
9, 737139, Note_on_c, 2, 66, 0
9, 737160, Note_on_c, 2, 68, 32
9, 737160, Note_on_c, 2, 80, 32
9, 737259, Note_on_c, 2, 68, 0
9, 737259, Note_on_c, 2, 80, 0
9, 737280, Note_on_c, 2, 69, 32
9, 737280, Note_on_c, 2, 73, 32
9, 738219, Note_on_c, 2, 69, 0
9, 738219, Note_on_c, 2, 73, 0
9, 738240, Note_on_c, 2, 71, 32
9, 738240, Note_on_c, 2, 74, 32
9, 739179, Note_on_c, 2, 71, 0
9, 739179, Note_on_c, 2, 74, 0
9, 739200, Note_on_c, 2, 69, 32
9, 739200, Note_on_c, 2, 73, 32
9, 739439, Note_on_c, 2, 69, 0
9, 739439, Note_on_c, 2, 73, 0
9, 740160, Note_on_c, 2, 64, 32
9, 740759, Note_on_c, 2, 64, 0
9, 740760, Note_on_c, 2, 66, 32
9, 740879, Note_on_c, 2, 66, 0
9, 740880, Note_on_c, 2, 68, 32
9, 740999, Note_on_c, 2, 68, 0
9, 741000, Note_on_c, 2, 64, 32
9, 741119, Note_on_c, 2, 64, 0
9, 741120, Note_on_c, 2, 69, 32
9, 741359, Note_on_c, 2, 69, 0
9, 742080, Note_on_c, 2, 69, 32
9, 742080, Note_on_c, 2, 57, 32
9, 742679, Note_on_c, 2, 69, 0
9, 742679, Note_on_c, 2, 57, 0
9, 742680, Note_on_c, 2, 59, 32
9, 742680, Note_on_c, 2, 71, 32
9, 742799, Note_on_c, 2, 59, 0
9, 742799, Note_on_c, 2, 71, 0
9, 742800, Note_on_c, 2, 61, 32
9, 742800, Note_on_c, 2, 73, 32
9, 742919, Note_on_c, 2, 61, 0
9, 742919, Note_on_c, 2, 73, 0
9, 742920, Note_on_c, 2, 57, 32
9, 742920, Note_on_c, 2, 69, 32
9, 743019, Note_on_c, 2, 57, 0
9, 743019, Note_on_c, 2, 69, 0
9, 743040, Note_on_c, 2, 64, 32
9, 743040, Note_on_c, 2, 76, 32
9, 743259, Note_on_c, 2, 64, 0
9, 743259, Note_on_c, 2, 76, 0
9, 743280, Note_on_c, 2, 73, 32
9, 743459, Note_on_c, 2, 73, 0
9, 743520, Note_on_c, 2, 74, 32
9, 743699, Note_on_c, 2, 74, 0
9, 744240, Note_on_c, 2, 73, 32
9, 744419, Note_on_c, 2, 73, 0
9, 744480, Note_on_c, 2, 74, 32
9, 744659, Note_on_c, 2, 74, 0
9, 745200, Note_on_c, 2, 69, 32
9, 745439, Note_on_c, 2, 69, 0
9, 745440, Note_on_c, 2, 74, 32
9, 745679, Note_on_c, 2, 74, 0
9, 745920, Control_c, 2, 11, 49
9, 746160, Note_on_c, 2, 73, 80
9, 746399, Note_on_c, 2, 73, 0
9, 746400, Note_on_c, 2, 74, 80
9, 746639, Note_on_c, 2, 74, 0
9, 746880, Note_on_c, 2, 67, 80
9, 746880, Control_c, 2, 11, 49
9, 746880, Note_on_c, 2, 69, 80
9, 747052, Control_c, 2, 11, 50
9, 747225, Control_c, 2, 11, 51
9, 747359, Note_on_c, 2, 67, 0
9, 747360, Note_on_c, 2, 66, 80
9, 747397, Control_c, 2, 11, 52
9, 747569, Control_c, 2, 11, 53
9, 747742, Control_c, 2, 11, 54
9, 747819, Note_on_c, 2, 66, 0
9, 747840, Note_on_c, 2, 64, 80
9, 747914, Control_c, 2, 11, 55
9, 748086, Control_c, 2, 11, 56
9, 748258, Control_c, 2, 11, 57
9, 748319, Note_on_c, 2, 64, 0
9, 748320, Note_on_c, 2, 62, 80
9, 748431, Control_c, 2, 11, 58
9, 748603, Control_c, 2, 11, 59
9, 748775, Control_c, 2, 11, 60
9, 748779, Note_on_c, 2, 62, 0
9, 748948, Control_c, 2, 11, 61
9, 749040, Note_on_c, 2, 67, 80
9, 749120, Control_c, 2, 11, 62
9, 749279, Note_on_c, 2, 67, 0
9, 749280, Note_on_c, 2, 66, 80
9, 749292, Control_c, 2, 11, 63
9, 749465, Control_c, 2, 11, 64
9, 749519, Note_on_c, 2, 66, 0
9, 749637, Control_c, 2, 11, 65
9, 749809, Control_c, 2, 11, 66
9, 749982, Control_c, 2, 11, 67
9, 750000, Note_on_c, 2, 64, 80
9, 750154, Control_c, 2, 11, 68
9, 750239, Note_on_c, 2, 64, 0
9, 750240, Note_on_c, 2, 62, 80
9, 750326, Control_c, 2, 11, 69
9, 750479, Note_on_c, 2, 62, 0
9, 750498, Control_c, 2, 11, 70
9, 750671, Control_c, 2, 11, 71
9, 750699, Note_on_c, 2, 69, 0
9, 750720, Note_on_c, 2, 67, 80
9, 750720, Note_on_c, 2, 69, 80
9, 750843, Control_c, 2, 11, 72
9, 751015, Control_c, 2, 11, 73
9, 751188, Control_c, 2, 11, 74
9, 751199, Note_on_c, 2, 67, 0
9, 751200, Note_on_c, 2, 66, 80
9, 751360, Control_c, 2, 11, 75
9, 751532, Control_c, 2, 11, 76
9, 751659, Note_on_c, 2, 66, 0
9, 751705, Control_c, 2, 11, 77
9, 751877, Control_c, 2, 11, 78
9, 751920, Note_on_c, 2, 64, 80
9, 752049, Control_c, 2, 11, 79
9, 752159, Note_on_c, 2, 64, 0
9, 752222, Control_c, 2, 11, 80
9, 752394, Control_c, 2, 11, 81
9, 752400, Note_on_c, 2, 62, 80
9, 752566, Control_c, 2, 11, 82
9, 752619, Note_on_c, 2, 69, 0
9, 752639, Note_on_c, 2, 62, 0
9, 752640, Note_on_c, 2, 64, 80
9, 752640, Note_on_c, 2, 69, 80
9, 752738, Control_c, 2, 11, 83
9, 752819, Note_on_c, 2, 64, 0
9, 752880, Note_on_c, 2, 66, 80
9, 752911, Control_c, 2, 11, 84
9, 752999, Note_on_c, 2, 66, 0
9, 753000, Note_on_c, 2, 64, 80
9, 753083, Control_c, 2, 11, 85
9, 753119, Note_on_c, 2, 64, 0
9, 753120, Note_on_c, 2, 62, 80
9, 753255, Control_c, 2, 11, 86
9, 753299, Note_on_c, 2, 62, 0
9, 753360, Note_on_c, 2, 64, 80
9, 753428, Control_c, 2, 11, 87
9, 753479, Note_on_c, 2, 64, 0
9, 753480, Note_on_c, 2, 66, 80
9, 753599, Note_on_c, 2, 66, 0
9, 753600, Control_c, 2, 11, 88
9, 753600, Note_on_c, 2, 67, 80
9, 753772, Control_c, 2, 11, 89
9, 753779, Note_on_c, 2, 67, 0
9, 753840, Note_on_c, 2, 69, 80
9, 753945, Control_c, 2, 11, 90
9, 753959, Note_on_c, 2, 69, 0
9, 753960, Note_on_c, 2, 67, 80
9, 754059, Note_on_c, 2, 67, 0
9, 754080, Note_on_c, 2, 66, 80
9, 754117, Control_c, 2, 11, 91
9, 754259, Note_on_c, 2, 66, 0
9, 754289, Control_c, 2, 11, 92
9, 754320, Note_on_c, 2, 64, 80
9, 754439, Note_on_c, 2, 64, 0
9, 754440, Note_on_c, 2, 62, 80
9, 754462, Control_c, 2, 11, 93
9, 754539, Note_on_c, 2, 69, 0
9, 754539, Note_on_c, 2, 62, 0
9, 754560, Note_on_c, 2, 69, 80
9, 754560, Note_on_c, 2, 61, 80
9, 754634, Control_c, 2, 11, 94
9, 754779, Note_on_c, 2, 69, 0
9, 754779, Note_on_c, 2, 61, 0
9, 754800, Note_on_c, 2, 61, 80
9, 754806, Control_c, 2, 11, 95
9, 754978, Control_c, 2, 11, 96
9, 755039, Note_on_c, 2, 61, 0
9, 755040, Note_on_c, 2, 57, 80
9, 755151, Control_c, 2, 11, 97
9, 755279, Note_on_c, 2, 57, 0
9, 755280, Note_on_c, 2, 62, 80
9, 755323, Control_c, 2, 11, 98
9, 755495, Control_c, 2, 11, 99
9, 755519, Note_on_c, 2, 62, 0
9, 755668, Control_c, 2, 11, 100
9, 755760, Note_on_c, 2, 64, 80
9, 755840, Control_c, 2, 11, 101
9, 755999, Note_on_c, 2, 64, 0
9, 756000, Note_on_c, 2, 57, 80
9, 756012, Control_c, 2, 11, 102
9, 756185, Control_c, 2, 11, 103
9, 756239, Note_on_c, 2, 57, 0
9, 756240, Note_on_c, 2, 62, 80
9, 756357, Control_c, 2, 11, 104
9, 756479, Note_on_c, 2, 62, 0
9, 756529, Control_c, 2, 11, 105
9, 756702, Control_c, 2, 11, 106
9, 756720, Note_on_c, 2, 67, 80
9, 756809, Note_on_c, 2, 67, 0
9, 756840, Note_on_c, 2, 57, 80
9, 756874, Control_c, 2, 11, 107
9, 756929, Note_on_c, 2, 57, 0
9, 756960, Note_on_c, 2, 66, 80
9, 757046, Control_c, 2, 11, 108
9, 757199, Note_on_c, 2, 66, 0
9, 757218, Control_c, 2, 11, 109
9, 757391, Control_c, 2, 11, 110
9, 757563, Control_c, 2, 11, 111
9, 757680, Note_on_c, 2, 64, 80
9, 757735, Control_c, 2, 11, 112
9, 757769, Note_on_c, 2, 64, 0
9, 757800, Note_on_c, 2, 57, 80
9, 757889, Note_on_c, 2, 57, 0
9, 757908, Control_c, 2, 11, 113
9, 757920, Note_on_c, 2, 62, 80
9, 758080, Control_c, 2, 11, 114
9, 758159, Note_on_c, 2, 62, 0
9, 758252, Control_c, 2, 11, 115
9, 758425, Control_c, 2, 11, 116
9, 758597, Control_c, 2, 11, 117
9, 758640, Note_on_c, 2, 67, 80
9, 758729, Note_on_c, 2, 67, 0
9, 758760, Note_on_c, 2, 57, 80
9, 758769, Control_c, 2, 11, 118
9, 758849, Note_on_c, 2, 57, 0
9, 758880, Note_on_c, 2, 66, 80
9, 758942, Control_c, 2, 11, 119
9, 759114, Control_c, 2, 11, 120
9, 759119, Note_on_c, 2, 66, 0
9, 759286, Control_c, 2, 11, 121
9, 759458, Control_c, 2, 11, 122
9, 759600, Note_on_c, 2, 64, 80
9, 759631, Control_c, 2, 11, 123
9, 759689, Note_on_c, 2, 64, 0
9, 759720, Note_on_c, 2, 57, 80
9, 759803, Control_c, 2, 11, 124
9, 759809, Note_on_c, 2, 57, 0
9, 759840, Note_on_c, 2, 62, 80
9, 759975, Control_c, 2, 11, 125
9, 760079, Note_on_c, 2, 62, 0
9, 760148, Control_c, 2, 11, 127
9, 760560, Note_on_c, 2, 76, 80
9, 760560, Note_on_c, 2, 79, 80
9, 760649, Note_on_c, 2, 76, 0
9, 760649, Note_on_c, 2, 79, 0
9, 760680, Note_on_c, 2, 69, 80
9, 760769, Note_on_c, 2, 69, 0
9, 760800, Note_on_c, 2, 59, 92
9, 760800, Note_on_c, 2, 71, 92
9, 760979, Note_on_c, 2, 59, 0
9, 760979, Note_on_c, 2, 71, 0
9, 761040, Note_on_c, 2, 57, 80
9, 761040, Note_on_c, 2, 69, 80
9, 761219, Note_on_c, 2, 57, 0
9, 761219, Note_on_c, 2, 69, 0
9, 761280, Note_on_c, 2, 74, 80
9, 761280, Note_on_c, 2, 62, 80
9, 761459, Note_on_c, 2, 74, 0
9, 761459, Note_on_c, 2, 62, 0
9, 761520, Note_on_c, 2, 73, 80
9, 761520, Note_on_c, 2, 61, 80
9, 761699, Note_on_c, 2, 73, 0
9, 761699, Note_on_c, 2, 61, 0
9, 761760, Note_on_c, 2, 66, 80
9, 761760, Note_on_c, 2, 78, 80
9, 761939, Note_on_c, 2, 66, 0
9, 761939, Note_on_c, 2, 78, 0
9, 762000, Note_on_c, 2, 76, 80
9, 762000, Note_on_c, 2, 64, 80
9, 762179, Note_on_c, 2, 76, 0
9, 762179, Note_on_c, 2, 64, 0
9, 762240, Note_on_c, 2, 69, 80
9, 762240, Note_on_c, 2, 81, 80
9, 762419, Note_on_c, 2, 69, 0
9, 762419, Note_on_c, 2, 81, 0
9, 762480, Note_on_c, 2, 79, 80
9, 762480, Note_on_c, 2, 67, 80
9, 762659, Note_on_c, 2, 79, 0
9, 762659, Note_on_c, 2, 67, 0
9, 762720, Note_on_c, 2, 67, 80
9, 762720, Note_on_c, 2, 79, 80
9, 762899, Note_on_c, 2, 67, 0
9, 762899, Note_on_c, 2, 79, 0
9, 762960, Note_on_c, 2, 79, 92
9, 762960, Note_on_c, 2, 67, 92
9, 763139, Note_on_c, 2, 79, 0
9, 763139, Note_on_c, 2, 67, 0
9, 763200, Note_on_c, 2, 74, 80
9, 763379, Note_on_c, 2, 74, 0
9, 763440, Note_on_c, 2, 73, 80
9, 763619, Note_on_c, 2, 73, 0
9, 763680, Note_on_c, 2, 78, 80
9, 763859, Note_on_c, 2, 78, 0
9, 763920, Note_on_c, 2, 76, 80
9, 764099, Note_on_c, 2, 76, 0
9, 764160, Note_on_c, 2, 81, 80
9, 764339, Note_on_c, 2, 81, 0
9, 764400, Note_on_c, 2, 79, 80
9, 764579, Note_on_c, 2, 79, 0
9, 764638, Control_c, 2, 11, 69
9, 764640, Note_on_c, 2, 79, 80
9, 764640, Note_on_c, 2, 73, 80
9, 764640, Control_c, 2, 11, 69
9, 764680, Control_c, 2, 11, 74
9, 764720, Control_c, 2, 11, 79
9, 764760, Control_c, 2, 11, 84
9, 764800, Control_c, 2, 11, 89
9, 764840, Control_c, 2, 11, 94
9, 764880, Control_c, 2, 11, 99
9, 764920, Control_c, 2, 11, 102
9, 764960, Control_c, 2, 11, 107
9, 765000, Control_c, 2, 11, 112
9, 765040, Control_c, 2, 11, 117
9, 765080, Control_c, 2, 11, 122
9, 765120, Control_c, 2, 11, 127
9, 765339, Note_on_c, 2, 79, 0
9, 765339, Note_on_c, 2, 73, 0
9, 765360, Note_on_c, 2, 74, 92
9, 765360, Note_on_c, 2, 78, 92
9, 765939, Note_on_c, 2, 74, 0
9, 765939, Note_on_c, 2, 78, 0
9, 765960, Note_on_c, 2, 66, 92
9, 765960, Note_on_c, 2, 78, 92
9, 766059, Note_on_c, 2, 66, 0
9, 766059, Note_on_c, 2, 78, 0
9, 766080, Note_on_c, 2, 66, 80
9, 766080, Note_on_c, 2, 78, 80
9, 766299, Note_on_c, 2, 66, 0
9, 766299, Note_on_c, 2, 78, 0
9, 766320, Note_on_c, 2, 74, 80
9, 766320, Note_on_c, 2, 62, 80
9, 766539, Note_on_c, 2, 74, 0
9, 766539, Note_on_c, 2, 62, 0
9, 766560, Note_on_c, 2, 62, 80
9, 766560, Note_on_c, 2, 74, 80
9, 766899, Note_on_c, 2, 62, 0
9, 766899, Note_on_c, 2, 74, 0
9, 766920, Note_on_c, 2, 74, 80
9, 766920, Note_on_c, 2, 62, 80
9, 767019, Note_on_c, 2, 74, 0
9, 767019, Note_on_c, 2, 62, 0
9, 767040, Note_on_c, 2, 62, 80
9, 767040, Note_on_c, 2, 74, 80
9, 767259, Note_on_c, 2, 62, 0
9, 767259, Note_on_c, 2, 74, 0
9, 767280, Note_on_c, 2, 59, 80
9, 767280, Note_on_c, 2, 71, 80
9, 767499, Note_on_c, 2, 59, 0
9, 767499, Note_on_c, 2, 71, 0
9, 767520, Note_on_c, 2, 71, 80
9, 767520, Note_on_c, 2, 59, 80
9, 767859, Note_on_c, 2, 71, 0
9, 767859, Note_on_c, 2, 59, 0
9, 767880, Note_on_c, 2, 71, 80
9, 767880, Note_on_c, 2, 59, 80
9, 767979, Note_on_c, 2, 71, 0
9, 767979, Note_on_c, 2, 59, 0
9, 768000, Note_on_c, 2, 59, 80
9, 768000, Note_on_c, 2, 71, 80
9, 768219, Note_on_c, 2, 59, 0
9, 768219, Note_on_c, 2, 71, 0
9, 768240, Note_on_c, 2, 55, 80
9, 768240, Note_on_c, 2, 67, 80
9, 768459, Note_on_c, 2, 55, 0
9, 768459, Note_on_c, 2, 67, 0
9, 768480, Note_on_c, 2, 67, 80
9, 768480, Note_on_c, 2, 79, 80
9, 768819, Note_on_c, 2, 67, 0
9, 768819, Note_on_c, 2, 79, 0
9, 768840, Note_on_c, 2, 67, 80
9, 768840, Note_on_c, 2, 76, 80
9, 768939, Note_on_c, 2, 67, 0
9, 768939, Note_on_c, 2, 76, 0
9, 768960, Control_c, 2, 11, 127
9, 768960, Note_on_c, 2, 67, 80
9, 768960, Note_on_c, 2, 76, 80
9, 769000, Control_c, 2, 11, 117
9, 769040, Control_c, 2, 11, 107
9, 769080, Control_c, 2, 11, 99
9, 769120, Control_c, 2, 11, 89
9, 769160, Control_c, 2, 11, 79
9, 769169, Note_on_c, 2, 67, 0
9, 769169, Note_on_c, 2, 76, 0
9, 769200, Note_on_c, 2, 76, 80
9, 769200, Note_on_c, 2, 67, 80
9, 769200, Control_c, 2, 11, 69
9, 769260, Control_c, 2, 11, 72
9, 769320, Control_c, 2, 11, 75
9, 769380, Control_c, 2, 11, 79
9, 769409, Note_on_c, 2, 76, 0
9, 769409, Note_on_c, 2, 67, 0
9, 769440, Note_on_c, 2, 67, 80
9, 769440, Control_c, 2, 11, 82
9, 769440, Note_on_c, 2, 76, 80
9, 769500, Control_c, 2, 11, 85
9, 769560, Control_c, 2, 11, 89
9, 769620, Control_c, 2, 11, 92
9, 769649, Note_on_c, 2, 67, 0
9, 769649, Note_on_c, 2, 76, 0
9, 769680, Control_c, 2, 11, 95
9, 769680, Note_on_c, 2, 67, 80
9, 769680, Note_on_c, 2, 76, 80
9, 769740, Control_c, 2, 11, 99
9, 769800, Control_c, 2, 11, 102
9, 769859, Note_on_c, 2, 67, 0
9, 769859, Note_on_c, 2, 76, 0
9, 769860, Control_c, 2, 11, 105
9, 769918, Control_c, 2, 11, 127
9, 769920, Note_on_c, 2, 67, 68
9, 769920, Note_on_c, 2, 76, 68
9, 770039, Note_on_c, 2, 67, 0
9, 770039, Note_on_c, 2, 76, 0
9, 770040, Note_on_c, 2, 74, 56
9, 770040, Note_on_c, 2, 66, 56
9, 770144, Note_on_c, 2, 74, 0
9, 770144, Note_on_c, 2, 66, 0
9, 770160, Note_on_c, 2, 66, 44
9, 770160, Note_on_c, 2, 74, 44
9, 770384, Note_on_c, 2, 66, 0
9, 770384, Note_on_c, 2, 74, 0
9, 770400, Note_on_c, 2, 62, 44
9, 770400, Note_on_c, 2, 74, 44
9, 770624, Note_on_c, 2, 62, 0
9, 770624, Note_on_c, 2, 74, 0
9, 770640, Note_on_c, 2, 62, 44
9, 770640, Note_on_c, 2, 74, 44
9, 770864, Note_on_c, 2, 62, 0
9, 770864, Note_on_c, 2, 74, 0
9, 770880, Note_on_c, 2, 71, 44
9, 770880, Note_on_c, 2, 59, 44
9, 771104, Note_on_c, 2, 71, 0
9, 771104, Note_on_c, 2, 59, 0
9, 771120, Note_on_c, 2, 71, 44
9, 771120, Note_on_c, 2, 59, 44
9, 771359, Note_on_c, 2, 71, 0
9, 771359, Note_on_c, 2, 59, 0
9, 771600, Note_on_c, 2, 59, 44
9, 771600, Note_on_c, 2, 71, 44
9, 771839, Note_on_c, 2, 59, 0
9, 771839, Note_on_c, 2, 71, 0
9, 772080, Note_on_c, 2, 74, 44
9, 772080, Note_on_c, 2, 66, 44
9, 772319, Note_on_c, 2, 74, 0
9, 772319, Note_on_c, 2, 66, 0
9, 772560, Note_on_c, 2, 73, 44
9, 772560, Note_on_c, 2, 64, 44
9, 772784, Note_on_c, 2, 73, 0
9, 772784, Note_on_c, 2, 64, 0
9, 772800, Note_on_c, 2, 69, 44
9, 772800, Note_on_c, 2, 57, 44
9, 774699, Note_on_c, 2, 69, 0
9, 774699, Note_on_c, 2, 57, 0
9, 774720, Note_on_c, 2, 57, 44
9, 774720, Note_on_c, 2, 69, 44
9, 775179, Note_on_c, 2, 57, 0
9, 775179, Note_on_c, 2, 69, 0
9, 775200, Note_on_c, 2, 57, 44
9, 775200, Note_on_c, 2, 69, 44
9, 776139, Note_on_c, 2, 57, 0
9, 776139, Note_on_c, 2, 69, 0
9, 776160, Note_on_c, 2, 69, 44
9, 776160, Note_on_c, 2, 57, 44
9, 776619, Note_on_c, 2, 69, 0
9, 776619, Note_on_c, 2, 57, 0
9, 776640, Note_on_c, 2, 57, 44
9, 776879, Note_on_c, 2, 57, 0
9, 776880, Note_on_c, 2, 61, 46
9, 777099, Note_on_c, 2, 61, 0
9, 777120, Note_on_c, 2, 62, 48
9, 777359, Note_on_c, 2, 62, 0
9, 777360, Note_on_c, 2, 66, 50
9, 777579, Note_on_c, 2, 66, 0
9, 777600, Note_on_c, 2, 69, 53
9, 777839, Note_on_c, 2, 69, 0
9, 777840, Note_on_c, 2, 61, 55
9, 778059, Note_on_c, 2, 61, 0
9, 778080, Note_on_c, 2, 62, 57
9, 778319, Note_on_c, 2, 62, 0
9, 778320, Note_on_c, 2, 66, 59
9, 778539, Note_on_c, 2, 66, 0
9, 778560, Note_on_c, 2, 57, 62
9, 778560, Note_on_c, 2, 66, 62
9, 778799, Note_on_c, 2, 57, 0
9, 778799, Note_on_c, 2, 66, 0
9, 778800, Note_on_c, 2, 55, 64
9, 778800, Note_on_c, 2, 64, 64
9, 779019, Note_on_c, 2, 55, 0
9, 779019, Note_on_c, 2, 64, 0
9, 779040, Note_on_c, 2, 54, 66
9, 779040, Note_on_c, 2, 62, 66
9, 779279, Note_on_c, 2, 54, 0
9, 779279, Note_on_c, 2, 62, 0
9, 779280, Note_on_c, 2, 57, 68
9, 779280, Note_on_c, 2, 69, 68
9, 779499, Note_on_c, 2, 57, 0
9, 779499, Note_on_c, 2, 69, 0
9, 779520, Note_on_c, 2, 69, 71
9, 779520, Note_on_c, 2, 66, 71
9, 779759, Note_on_c, 2, 69, 0
9, 779759, Note_on_c, 2, 66, 0
9, 779760, Note_on_c, 2, 64, 73
9, 779760, Note_on_c, 2, 67, 73
9, 779979, Note_on_c, 2, 64, 0
9, 779979, Note_on_c, 2, 67, 0
9, 780000, Note_on_c, 2, 64, 75
9, 780000, Note_on_c, 2, 67, 75
9, 780239, Note_on_c, 2, 64, 0
9, 780239, Note_on_c, 2, 67, 0
9, 780240, Note_on_c, 2, 62, 77
9, 780240, Note_on_c, 2, 66, 77
9, 780459, Note_on_c, 2, 62, 0
9, 780459, Note_on_c, 2, 66, 0
9, 780480, Note_on_c, 2, 64, 80
9, 780480, Note_on_c, 2, 61, 80
9, 780699, Note_on_c, 2, 64, 0
9, 780699, Note_on_c, 2, 61, 0
9, 780720, Note_on_c, 2, 57, 80
9, 780899, Note_on_c, 2, 57, 0
9, 780960, Note_on_c, 2, 59, 80
9, 781139, Note_on_c, 2, 59, 0
9, 781200, Note_on_c, 2, 57, 80
9, 781379, Note_on_c, 2, 57, 0
9, 781440, Note_on_c, 2, 62, 80
9, 781659, Note_on_c, 2, 62, 0
9, 781680, Note_on_c, 2, 61, 80
9, 781899, Note_on_c, 2, 61, 0
9, 781920, Note_on_c, 2, 66, 80
9, 782139, Note_on_c, 2, 66, 0
9, 782160, Note_on_c, 2, 64, 80
9, 782379, Note_on_c, 2, 64, 0
9, 782400, Note_on_c, 2, 69, 80
9, 782619, Note_on_c, 2, 69, 0
9, 782640, Note_on_c, 2, 67, 80
9, 782859, Note_on_c, 2, 67, 0
9, 782880, Note_on_c, 2, 67, 80
9, 783099, Note_on_c, 2, 67, 0
9, 783120, Note_on_c, 2, 67, 92
9, 783339, Note_on_c, 2, 67, 0
9, 783360, Note_on_c, 2, 74, 80
9, 783579, Note_on_c, 2, 74, 0
9, 783600, Note_on_c, 2, 73, 80
9, 783819, Note_on_c, 2, 73, 0
9, 783840, Note_on_c, 2, 78, 80
9, 784059, Note_on_c, 2, 78, 0
9, 784080, Note_on_c, 2, 76, 80
9, 784299, Note_on_c, 2, 76, 0
9, 784320, Note_on_c, 2, 81, 80
9, 784539, Note_on_c, 2, 81, 0
9, 784560, Note_on_c, 2, 79, 80
9, 784779, Note_on_c, 2, 79, 0
9, 784798, Control_c, 2, 11, 69
9, 784800, Control_c, 2, 11, 69
9, 784800, Note_on_c, 2, 79, 80
9, 784800, Note_on_c, 2, 73, 80
9, 784840, Control_c, 2, 11, 74
9, 784880, Control_c, 2, 11, 79
9, 784920, Control_c, 2, 11, 84
9, 784960, Control_c, 2, 11, 89
9, 785000, Control_c, 2, 11, 94
9, 785040, Control_c, 2, 11, 99
9, 785080, Control_c, 2, 11, 102
9, 785120, Control_c, 2, 11, 107
9, 785160, Control_c, 2, 11, 112
9, 785200, Control_c, 2, 11, 117
9, 785240, Control_c, 2, 11, 122
9, 785280, Control_c, 2, 11, 127
9, 785499, Note_on_c, 2, 79, 0
9, 785499, Note_on_c, 2, 73, 0
9, 785520, Note_on_c, 2, 66, 92
9, 785520, Note_on_c, 2, 78, 92
9, 786099, Note_on_c, 2, 66, 0
9, 786099, Note_on_c, 2, 78, 0
9, 786120, Note_on_c, 2, 78, 92
9, 786120, Note_on_c, 2, 66, 92
9, 786219, Note_on_c, 2, 78, 0
9, 786219, Note_on_c, 2, 66, 0
9, 786240, Note_on_c, 2, 66, 80
9, 786240, Note_on_c, 2, 78, 80
9, 786459, Note_on_c, 2, 66, 0
9, 786459, Note_on_c, 2, 78, 0
9, 786480, Note_on_c, 2, 62, 80
9, 786480, Note_on_c, 2, 74, 80
9, 786699, Note_on_c, 2, 62, 0
9, 786699, Note_on_c, 2, 74, 0
9, 786720, Note_on_c, 2, 62, 80
9, 786720, Note_on_c, 2, 74, 80
9, 787059, Note_on_c, 2, 62, 0
9, 787059, Note_on_c, 2, 74, 0
9, 787080, Note_on_c, 2, 74, 80
9, 787080, Note_on_c, 2, 62, 80
9, 787179, Note_on_c, 2, 74, 0
9, 787179, Note_on_c, 2, 62, 0
9, 787200, Note_on_c, 2, 62, 80
9, 787200, Note_on_c, 2, 74, 80
9, 787419, Note_on_c, 2, 62, 0
9, 787419, Note_on_c, 2, 74, 0
9, 787440, Note_on_c, 2, 71, 80
9, 787440, Note_on_c, 2, 59, 80
9, 787659, Note_on_c, 2, 71, 0
9, 787659, Note_on_c, 2, 59, 0
9, 787680, Note_on_c, 2, 59, 80
9, 787680, Note_on_c, 2, 71, 80
9, 788019, Note_on_c, 2, 59, 0
9, 788019, Note_on_c, 2, 71, 0
9, 788040, Note_on_c, 2, 59, 80
9, 788040, Note_on_c, 2, 71, 80
9, 788139, Note_on_c, 2, 59, 0
9, 788139, Note_on_c, 2, 71, 0
9, 788160, Note_on_c, 2, 59, 80
9, 788160, Note_on_c, 2, 71, 80
9, 788379, Note_on_c, 2, 59, 0
9, 788379, Note_on_c, 2, 71, 0
9, 788400, Note_on_c, 2, 67, 80
9, 788400, Note_on_c, 2, 55, 80
9, 788619, Note_on_c, 2, 67, 0
9, 788619, Note_on_c, 2, 55, 0
9, 788640, Note_on_c, 2, 71, 80
9, 788640, Note_on_c, 2, 67, 80
9, 788879, Note_on_c, 2, 71, 0
9, 788879, Note_on_c, 2, 67, 0
9, 789600, Note_on_c, 2, 71, 80
9, 789600, Note_on_c, 2, 68, 80
9, 789839, Note_on_c, 2, 71, 0
9, 789839, Note_on_c, 2, 68, 0
9, 791280, Note_on_c, 2, 64, 44
9, 791280, Note_on_c, 2, 71, 44
9, 792119, Note_on_c, 2, 64, 0
9, 792120, Note_on_c, 2, 63, 44
9, 792224, Note_on_c, 2, 63, 0
9, 792240, Note_on_c, 2, 63, 44
9, 792944, Note_on_c, 2, 71, 0
9, 792944, Note_on_c, 2, 63, 0
9, 792960, Note_on_c, 2, 73, 44
9, 792960, Note_on_c, 2, 68, 44
9, 793904, Note_on_c, 2, 73, 0
9, 793904, Note_on_c, 2, 68, 0
9, 793920, Note_on_c, 2, 71, 44
9, 793920, Note_on_c, 2, 63, 44
9, 794879, Note_on_c, 2, 71, 0
9, 794879, Note_on_c, 2, 63, 0
9, 794880, Note_on_c, 2, 70, 44
9, 794880, Note_on_c, 2, 64, 44
9, 795119, Note_on_c, 2, 70, 0
9, 795119, Note_on_c, 2, 64, 0
9, 795840, Note_on_c, 2, 75, 44
9, 795840, Note_on_c, 2, 63, 44
9, 796079, Note_on_c, 2, 75, 0
9, 796079, Note_on_c, 2, 63, 0
9, 796800, Note_on_c, 2, 75, 44
9, 796800, Note_on_c, 2, 66, 44
9, 797039, Note_on_c, 2, 75, 0
9, 797039, Note_on_c, 2, 66, 0
9, 797760, Note_on_c, 2, 73, 44
9, 797760, Note_on_c, 2, 70, 44
9, 797999, Note_on_c, 2, 73, 0
9, 797999, Note_on_c, 2, 70, 0
9, 798720, Note_on_c, 2, 63, 44
9, 798720, Note_on_c, 2, 71, 44
9, 798959, Note_on_c, 2, 71, 0
9, 798960, Note_on_c, 2, 66, 44
9, 799199, Note_on_c, 2, 63, 0
9, 799200, Note_on_c, 2, 62, 44
9, 800639, Note_on_c, 2, 66, 0
9, 800639, Note_on_c, 2, 62, 0
9, 806640, Note_on_c, 2, 83, 65
9, 806640, Note_on_c, 2, 71, 65
9, 806859, Note_on_c, 2, 83, 0
9, 806859, Note_on_c, 2, 71, 0
9, 806880, Note_on_c, 2, 69, 69
9, 806880, Note_on_c, 2, 81, 69
9, 807099, Note_on_c, 2, 69, 0
9, 807099, Note_on_c, 2, 81, 0
9, 807120, Note_on_c, 2, 83, 73
9, 807120, Note_on_c, 2, 71, 73
9, 807339, Note_on_c, 2, 83, 0
9, 807339, Note_on_c, 2, 71, 0
9, 807360, Note_on_c, 2, 69, 77
9, 807360, Note_on_c, 2, 81, 77
9, 807579, Note_on_c, 2, 69, 0
9, 807579, Note_on_c, 2, 81, 0
9, 807600, Note_on_c, 2, 83, 80
9, 807600, Note_on_c, 2, 71, 80
9, 807819, Note_on_c, 2, 83, 0
9, 807819, Note_on_c, 2, 71, 0
9, 807840, Note_on_c, 2, 69, 84
9, 807840, Note_on_c, 2, 81, 84
9, 808059, Note_on_c, 2, 69, 0
9, 808059, Note_on_c, 2, 81, 0
9, 808080, Note_on_c, 2, 71, 88
9, 808199, Note_on_c, 2, 71, 0
9, 808200, Note_on_c, 2, 73, 90
9, 808299, Note_on_c, 2, 73, 0
9, 808320, Note_on_c, 2, 62, 92
9, 808320, Note_on_c, 2, 74, 92
9, 808529, Note_on_c, 2, 62, 0
9, 808529, Note_on_c, 2, 74, 0
9, 808560, Note_on_c, 2, 62, 92
9, 808560, Note_on_c, 2, 74, 92
9, 808769, Note_on_c, 2, 62, 0
9, 808769, Note_on_c, 2, 74, 0
9, 808800, Note_on_c, 2, 73, 92
9, 808800, Note_on_c, 2, 61, 92
9, 809009, Note_on_c, 2, 73, 0
9, 809009, Note_on_c, 2, 61, 0
9, 809040, Note_on_c, 2, 57, 92
9, 809040, Note_on_c, 2, 69, 92
9, 809249, Note_on_c, 2, 57, 0
9, 809249, Note_on_c, 2, 69, 0
9, 809280, Note_on_c, 2, 76, 92
9, 809280, Note_on_c, 2, 64, 92
9, 809489, Note_on_c, 2, 76, 0
9, 809489, Note_on_c, 2, 64, 0
9, 809520, Note_on_c, 2, 76, 92
9, 809520, Note_on_c, 2, 64, 92
9, 809729, Note_on_c, 2, 76, 0
9, 809729, Note_on_c, 2, 64, 0
9, 809760, Note_on_c, 2, 63, 92
9, 809760, Note_on_c, 2, 75, 92
9, 809969, Note_on_c, 2, 63, 0
9, 809969, Note_on_c, 2, 75, 0
9, 810000, Note_on_c, 2, 71, 92
9, 810000, Note_on_c, 2, 59, 92
9, 810209, Note_on_c, 2, 71, 0
9, 810209, Note_on_c, 2, 59, 0
9, 810240, Note_on_c, 2, 64, 80
9, 810240, Note_on_c, 2, 76, 80
9, 810449, Note_on_c, 2, 64, 0
9, 810449, Note_on_c, 2, 76, 0
9, 810480, Note_on_c, 2, 78, 80
9, 810480, Note_on_c, 2, 66, 80
9, 810689, Note_on_c, 2, 78, 0
9, 810689, Note_on_c, 2, 66, 0
9, 810720, Note_on_c, 2, 67, 80
9, 810720, Note_on_c, 2, 79, 80
9, 810929, Note_on_c, 2, 67, 0
9, 810929, Note_on_c, 2, 79, 0
9, 810960, Note_on_c, 2, 80, 80
9, 810960, Note_on_c, 2, 68, 80
9, 811169, Note_on_c, 2, 80, 0
9, 811169, Note_on_c, 2, 68, 0
9, 811200, Note_on_c, 2, 69, 80
9, 811200, Note_on_c, 2, 81, 80
9, 811409, Note_on_c, 2, 69, 0
9, 811409, Note_on_c, 2, 81, 0
9, 811440, Note_on_c, 2, 80, 80
9, 811440, Note_on_c, 2, 68, 80
9, 811649, Note_on_c, 2, 80, 0
9, 811649, Note_on_c, 2, 68, 0
9, 811680, Note_on_c, 2, 81, 80
9, 811680, Note_on_c, 2, 69, 80
9, 811889, Note_on_c, 2, 81, 0
9, 811889, Note_on_c, 2, 69, 0
9, 811920, Note_on_c, 2, 67, 80
9, 811920, Note_on_c, 2, 79, 80
9, 812129, Note_on_c, 2, 67, 0
9, 812129, Note_on_c, 2, 79, 0
9, 812160, Note_on_c, 2, 78, 80
9, 812160, Note_on_c, 2, 66, 80
9, 812339, Note_on_c, 2, 78, 0
9, 812339, Note_on_c, 2, 66, 0
9, 812400, Note_on_c, 2, 78, 80
9, 812400, Note_on_c, 2, 66, 80
9, 812519, Note_on_c, 2, 78, 0
9, 812519, Note_on_c, 2, 66, 0
9, 812520, Note_on_c, 2, 67, 80
9, 812520, Note_on_c, 2, 79, 80
9, 812619, Note_on_c, 2, 67, 0
9, 812619, Note_on_c, 2, 79, 0
9, 812640, Note_on_c, 2, 81, 80
9, 812640, Note_on_c, 2, 69, 80
9, 812819, Note_on_c, 2, 81, 0
9, 812819, Note_on_c, 2, 69, 0
9, 813120, Note_on_c, 2, 79, 80
9, 813120, Note_on_c, 2, 67, 80
9, 813299, Note_on_c, 2, 79, 0
9, 813299, Note_on_c, 2, 67, 0
9, 813360, Note_on_c, 2, 67, 80
9, 813360, Note_on_c, 2, 79, 80
9, 813479, Note_on_c, 2, 67, 0
9, 813479, Note_on_c, 2, 79, 0
9, 813480, Note_on_c, 2, 69, 80
9, 813480, Note_on_c, 2, 81, 80
9, 813579, Note_on_c, 2, 69, 0
9, 813579, Note_on_c, 2, 81, 0
9, 813600, Note_on_c, 2, 83, 80
9, 813600, Note_on_c, 2, 71, 80
9, 813779, Note_on_c, 2, 83, 0
9, 813779, Note_on_c, 2, 71, 0
9, 813840, Note_on_c, 2, 71, 80
9, 813840, Note_on_c, 2, 83, 80
9, 813959, Note_on_c, 2, 71, 0
9, 813959, Note_on_c, 2, 83, 0
9, 813960, Note_on_c, 2, 81, 80
9, 813960, Note_on_c, 2, 69, 80
9, 814059, Note_on_c, 2, 81, 0
9, 814059, Note_on_c, 2, 69, 0
9, 814080, Note_on_c, 2, 79, 80
9, 814080, Note_on_c, 2, 67, 80
9, 814289, Note_on_c, 2, 79, 0
9, 814289, Note_on_c, 2, 67, 0
9, 814320, Note_on_c, 2, 67, 80
9, 814320, Note_on_c, 2, 79, 80
9, 814439, Note_on_c, 2, 67, 0
9, 814439, Note_on_c, 2, 79, 0
9, 814440, Note_on_c, 2, 78, 80
9, 814440, Note_on_c, 2, 66, 80
9, 814539, Note_on_c, 2, 78, 0
9, 814539, Note_on_c, 2, 66, 0
9, 814560, Note_on_c, 2, 64, 80
9, 814560, Note_on_c, 2, 76, 80
9, 814769, Note_on_c, 2, 64, 0
9, 814769, Note_on_c, 2, 76, 0
9, 814800, Note_on_c, 2, 64, 80
9, 814800, Note_on_c, 2, 76, 80
9, 814919, Note_on_c, 2, 64, 0
9, 814919, Note_on_c, 2, 76, 0
9, 814920, Note_on_c, 2, 62, 80
9, 814920, Note_on_c, 2, 74, 80
9, 815019, Note_on_c, 2, 62, 0
9, 815019, Note_on_c, 2, 74, 0
9, 815040, Note_on_c, 2, 61, 80
9, 815040, Note_on_c, 2, 73, 80
9, 815249, Note_on_c, 2, 61, 0
9, 815249, Note_on_c, 2, 73, 0
9, 815280, Note_on_c, 2, 85, 80
9, 815280, Note_on_c, 2, 73, 80
9, 815399, Note_on_c, 2, 85, 0
9, 815399, Note_on_c, 2, 73, 0
9, 815400, Note_on_c, 2, 71, 80
9, 815400, Note_on_c, 2, 83, 80
9, 815499, Note_on_c, 2, 71, 0
9, 815499, Note_on_c, 2, 83, 0
9, 815520, Note_on_c, 2, 69, 80
9, 815520, Note_on_c, 2, 81, 80
9, 815729, Note_on_c, 2, 69, 0
9, 815729, Note_on_c, 2, 81, 0
9, 815760, Note_on_c, 2, 63, 80
9, 815760, Note_on_c, 2, 75, 80
9, 815969, Note_on_c, 2, 63, 0
9, 815969, Note_on_c, 2, 75, 0
9, 816000, Note_on_c, 2, 64, 80
9, 816000, Note_on_c, 2, 76, 80
9, 816209, Note_on_c, 2, 64, 0
9, 816209, Note_on_c, 2, 76, 0
9, 816240, Note_on_c, 2, 66, 80
9, 816240, Note_on_c, 2, 78, 80
9, 816449, Note_on_c, 2, 66, 0
9, 816449, Note_on_c, 2, 78, 0
9, 816480, Note_on_c, 2, 67, 80
9, 816480, Note_on_c, 2, 79, 80
9, 816689, Note_on_c, 2, 67, 0
9, 816689, Note_on_c, 2, 79, 0
9, 816720, Note_on_c, 2, 68, 80
9, 816720, Note_on_c, 2, 80, 80
9, 816929, Note_on_c, 2, 68, 0
9, 816929, Note_on_c, 2, 80, 0
9, 816960, Note_on_c, 2, 81, 80
9, 816960, Note_on_c, 2, 69, 80
9, 817169, Note_on_c, 2, 81, 0
9, 817169, Note_on_c, 2, 69, 0
9, 817200, Note_on_c, 2, 80, 80
9, 817200, Note_on_c, 2, 68, 80
9, 817409, Note_on_c, 2, 80, 0
9, 817409, Note_on_c, 2, 68, 0
9, 817440, Note_on_c, 2, 69, 80
9, 817440, Note_on_c, 2, 81, 80
9, 817539, Note_on_c, 2, 69, 0
9, 817539, Note_on_c, 2, 81, 0
9, 817560, Note_on_c, 2, 83, 80
9, 817560, Note_on_c, 2, 71, 80
9, 817659, Note_on_c, 2, 83, 0
9, 817659, Note_on_c, 2, 71, 0
9, 817680, Note_on_c, 2, 73, 80
9, 817680, Note_on_c, 2, 85, 80
9, 817779, Note_on_c, 2, 73, 0
9, 817779, Note_on_c, 2, 85, 0
9, 817800, Note_on_c, 2, 74, 80
9, 817800, Note_on_c, 2, 86, 80
9, 817899, Note_on_c, 2, 74, 0
9, 817899, Note_on_c, 2, 86, 0
9, 817920, Note_on_c, 2, 76, 92
9, 817920, Note_on_c, 2, 64, 92
9, 818279, Note_on_c, 2, 76, 0
9, 818279, Note_on_c, 2, 64, 0
9, 818280, Note_on_c, 2, 66, 80
9, 818280, Note_on_c, 2, 78, 80
9, 818399, Note_on_c, 2, 66, 0
9, 818399, Note_on_c, 2, 78, 0
9, 818400, Note_on_c, 2, 76, 80
9, 818400, Note_on_c, 2, 64, 80
9, 818639, Note_on_c, 2, 76, 0
9, 818639, Note_on_c, 2, 64, 0
9, 818640, Note_on_c, 2, 74, 80
9, 818640, Note_on_c, 2, 62, 80
9, 818849, Note_on_c, 2, 74, 0
9, 818849, Note_on_c, 2, 62, 0
9, 818880, Note_on_c, 2, 76, 80
9, 818880, Note_on_c, 2, 64, 80
9, 819239, Note_on_c, 2, 76, 0
9, 819239, Note_on_c, 2, 64, 0
9, 819240, Note_on_c, 2, 78, 80
9, 819240, Note_on_c, 2, 66, 80
9, 819359, Note_on_c, 2, 78, 0
9, 819359, Note_on_c, 2, 66, 0
9, 819360, Note_on_c, 2, 64, 80
9, 819360, Note_on_c, 2, 76, 80
9, 819599, Note_on_c, 2, 64, 0
9, 819599, Note_on_c, 2, 76, 0
9, 819600, Note_on_c, 2, 62, 80
9, 819600, Note_on_c, 2, 74, 80
9, 819809, Note_on_c, 2, 62, 0
9, 819809, Note_on_c, 2, 74, 0
9, 819840, Note_on_c, 2, 76, 80
9, 819840, Note_on_c, 2, 64, 80
9, 820199, Note_on_c, 2, 76, 0
9, 820199, Note_on_c, 2, 64, 0
9, 820200, Note_on_c, 2, 66, 80
9, 820200, Note_on_c, 2, 78, 80
9, 820319, Note_on_c, 2, 66, 0
9, 820319, Note_on_c, 2, 78, 0
9, 820320, Note_on_c, 2, 64, 80
9, 820320, Note_on_c, 2, 76, 80
9, 820559, Note_on_c, 2, 64, 0
9, 820559, Note_on_c, 2, 76, 0
9, 820560, Note_on_c, 2, 74, 80
9, 820560, Note_on_c, 2, 62, 80
9, 820769, Note_on_c, 2, 74, 0
9, 820769, Note_on_c, 2, 62, 0
9, 820800, Note_on_c, 2, 76, 80
9, 820800, Note_on_c, 2, 64, 80
9, 821159, Note_on_c, 2, 76, 0
9, 821159, Note_on_c, 2, 64, 0
9, 821160, Note_on_c, 2, 78, 80
9, 821160, Note_on_c, 2, 66, 80
9, 821279, Note_on_c, 2, 78, 0
9, 821279, Note_on_c, 2, 66, 0
9, 821280, Note_on_c, 2, 64, 80
9, 821280, Note_on_c, 2, 76, 80
9, 821519, Note_on_c, 2, 64, 0
9, 821519, Note_on_c, 2, 76, 0
9, 821520, Note_on_c, 2, 62, 80
9, 821520, Note_on_c, 2, 74, 80
9, 821729, Note_on_c, 2, 62, 0
9, 821729, Note_on_c, 2, 74, 0
9, 821760, Note_on_c, 2, 76, 80
9, 821760, Note_on_c, 2, 64, 80
9, 822119, Note_on_c, 2, 76, 0
9, 822119, Note_on_c, 2, 64, 0
9, 822120, Note_on_c, 2, 78, 80
9, 822120, Note_on_c, 2, 66, 80
9, 822239, Note_on_c, 2, 78, 0
9, 822239, Note_on_c, 2, 66, 0
9, 822240, Note_on_c, 2, 76, 80
9, 822240, Note_on_c, 2, 64, 80
9, 822479, Note_on_c, 2, 76, 0
9, 822479, Note_on_c, 2, 64, 0
9, 822480, Note_on_c, 2, 74, 80
9, 822480, Note_on_c, 2, 62, 80
9, 822689, Note_on_c, 2, 74, 0
9, 822689, Note_on_c, 2, 62, 0
9, 822720, Note_on_c, 2, 76, 80
9, 822720, Note_on_c, 2, 64, 80
9, 823079, Note_on_c, 2, 76, 0
9, 823079, Note_on_c, 2, 64, 0
9, 823080, Note_on_c, 2, 66, 80
9, 823080, Note_on_c, 2, 78, 80
9, 823199, Note_on_c, 2, 66, 0
9, 823199, Note_on_c, 2, 78, 0
9, 823200, Note_on_c, 2, 76, 80
9, 823200, Note_on_c, 2, 64, 80
9, 823439, Note_on_c, 2, 76, 0
9, 823439, Note_on_c, 2, 64, 0
9, 823440, Note_on_c, 2, 62, 80
9, 823440, Note_on_c, 2, 74, 80
9, 823649, Note_on_c, 2, 62, 0
9, 823649, Note_on_c, 2, 74, 0
9, 823680, Note_on_c, 2, 76, 80
9, 823680, Note_on_c, 2, 64, 80
9, 824039, Note_on_c, 2, 76, 0
9, 824039, Note_on_c, 2, 64, 0
9, 824040, Note_on_c, 2, 66, 80
9, 824040, Note_on_c, 2, 78, 80
9, 824159, Note_on_c, 2, 66, 0
9, 824159, Note_on_c, 2, 78, 0
9, 824160, Note_on_c, 2, 76, 80
9, 824160, Note_on_c, 2, 64, 80
9, 824399, Note_on_c, 2, 76, 0
9, 824399, Note_on_c, 2, 64, 0
9, 824400, Note_on_c, 2, 62, 80
9, 824400, Note_on_c, 2, 74, 80
9, 824609, Note_on_c, 2, 62, 0
9, 824609, Note_on_c, 2, 74, 0
9, 824640, Note_on_c, 2, 64, 80
9, 824640, Note_on_c, 2, 76, 80
9, 824999, Note_on_c, 2, 64, 0
9, 824999, Note_on_c, 2, 76, 0
9, 825000, Note_on_c, 2, 78, 80
9, 825000, Note_on_c, 2, 66, 80
9, 825119, Note_on_c, 2, 78, 0
9, 825119, Note_on_c, 2, 66, 0
9, 825120, Note_on_c, 2, 64, 80
9, 825120, Note_on_c, 2, 76, 80
9, 825359, Note_on_c, 2, 64, 0
9, 825359, Note_on_c, 2, 76, 0
9, 825360, Note_on_c, 2, 74, 80
9, 825360, Note_on_c, 2, 62, 80
9, 825569, Note_on_c, 2, 74, 0
9, 825569, Note_on_c, 2, 62, 0
9, 825600, Note_on_c, 2, 69, 80
9, 825600, Note_on_c, 2, 81, 80
9, 825839, Note_on_c, 2, 69, 0
9, 825839, Note_on_c, 2, 81, 0
9, 825840, Note_on_c, 2, 73, 80
9, 825840, Note_on_c, 2, 79, 80
9, 826049, Note_on_c, 2, 73, 0
9, 826049, Note_on_c, 2, 79, 0
9, 826080, Note_on_c, 2, 76, 80
9, 826080, Note_on_c, 2, 79, 80
9, 826319, Note_on_c, 2, 76, 0
9, 826319, Note_on_c, 2, 79, 0
9, 826320, Note_on_c, 2, 74, 80
9, 826320, Note_on_c, 2, 78, 80
9, 826529, Note_on_c, 2, 74, 0
9, 826529, Note_on_c, 2, 78, 0
9, 826560, Note_on_c, 2, 69, 80
9, 826560, Note_on_c, 2, 78, 80
9, 826799, Note_on_c, 2, 69, 0
9, 826799, Note_on_c, 2, 78, 0
9, 826800, Note_on_c, 2, 76, 80
9, 826800, Note_on_c, 2, 67, 80
9, 827009, Note_on_c, 2, 76, 0
9, 827009, Note_on_c, 2, 67, 0
9, 827040, Note_on_c, 2, 79, 80
9, 827040, Note_on_c, 2, 71, 80
9, 827279, Note_on_c, 2, 79, 0
9, 827279, Note_on_c, 2, 71, 0
9, 827280, Note_on_c, 2, 67, 80
9, 827280, Note_on_c, 2, 76, 80
9, 827489, Note_on_c, 2, 67, 0
9, 827489, Note_on_c, 2, 76, 0
9, 827520, Note_on_c, 2, 76, 80
9, 827520, Note_on_c, 2, 67, 80
9, 827759, Note_on_c, 2, 76, 0
9, 827759, Note_on_c, 2, 67, 0
9, 827760, Note_on_c, 2, 66, 80
9, 827760, Note_on_c, 2, 74, 80
9, 827969, Note_on_c, 2, 66, 0
9, 827969, Note_on_c, 2, 74, 0
9, 828000, Note_on_c, 2, 74, 80
9, 828000, Note_on_c, 2, 64, 80
9, 828239, Note_on_c, 2, 74, 0
9, 828240, Note_on_c, 2, 73, 80
9, 828449, Note_on_c, 2, 64, 0
9, 828449, Note_on_c, 2, 73, 0
9, 828480, Note_on_c, 2, 74, 80
9, 828480, Note_on_c, 2, 83, 80
9, 828929, Note_on_c, 2, 83, 0
9, 828960, Note_on_c, 2, 81, 80
9, 829169, Note_on_c, 2, 74, 0
9, 829200, Note_on_c, 2, 69, 80
9, 829409, Note_on_c, 2, 69, 0
9, 829440, Note_on_c, 2, 69, 80
9, 829679, Note_on_c, 2, 81, 0
9, 829679, Note_on_c, 2, 69, 0
9, 829680, Note_on_c, 2, 67, 80
9, 829680, Note_on_c, 2, 79, 80
9, 829889, Note_on_c, 2, 67, 0
9, 829889, Note_on_c, 2, 79, 0
9, 829920, Note_on_c, 2, 76, 80
9, 829920, Note_on_c, 2, 79, 80
9, 830159, Note_on_c, 2, 76, 0
9, 830159, Note_on_c, 2, 79, 0
9, 830160, Note_on_c, 2, 78, 80
9, 830160, Note_on_c, 2, 74, 80
9, 830369, Note_on_c, 2, 78, 0
9, 830369, Note_on_c, 2, 74, 0
9, 830400, Note_on_c, 2, 69, 80
9, 830400, Note_on_c, 2, 78, 80
9, 830639, Note_on_c, 2, 69, 0
9, 830639, Note_on_c, 2, 78, 0
9, 830640, Note_on_c, 2, 76, 80
9, 830640, Note_on_c, 2, 67, 80
9, 830849, Note_on_c, 2, 76, 0
9, 830849, Note_on_c, 2, 67, 0
9, 830880, Note_on_c, 2, 79, 80
9, 830880, Note_on_c, 2, 71, 80
9, 831119, Note_on_c, 2, 79, 0
9, 831119, Note_on_c, 2, 71, 0
9, 831120, Note_on_c, 2, 76, 80
9, 831120, Note_on_c, 2, 67, 80
9, 831329, Note_on_c, 2, 76, 0
9, 831329, Note_on_c, 2, 67, 0
9, 831360, Note_on_c, 2, 67, 80
9, 831360, Note_on_c, 2, 76, 80
9, 831599, Note_on_c, 2, 67, 0
9, 831599, Note_on_c, 2, 76, 0
9, 831600, Note_on_c, 2, 74, 80
9, 831600, Note_on_c, 2, 66, 80
9, 831809, Note_on_c, 2, 74, 0
9, 831809, Note_on_c, 2, 66, 0
9, 831840, Note_on_c, 2, 74, 80
9, 831840, Note_on_c, 2, 66, 80
9, 832079, Note_on_c, 2, 74, 0
9, 832079, Note_on_c, 2, 66, 0
9, 832080, Note_on_c, 2, 73, 80
9, 832080, Note_on_c, 2, 64, 80
9, 832289, Note_on_c, 2, 73, 0
9, 832289, Note_on_c, 2, 64, 0
9, 832320, Note_on_c, 2, 74, 80
9, 832320, Note_on_c, 2, 66, 80
9, 832529, Note_on_c, 2, 74, 0
9, 832529, Note_on_c, 2, 66, 0
9, 832560, Note_on_c, 2, 78, 80
9, 832560, Note_on_c, 2, 66, 80
9, 832679, Note_on_c, 2, 78, 0
9, 832679, Note_on_c, 2, 66, 0
9, 832680, Note_on_c, 2, 79, 80
9, 832680, Note_on_c, 2, 67, 80
9, 832779, Note_on_c, 2, 79, 0
9, 832779, Note_on_c, 2, 67, 0
9, 832800, Note_on_c, 2, 69, 80
9, 832800, Note_on_c, 2, 81, 80
9, 832979, Note_on_c, 2, 69, 0
9, 832979, Note_on_c, 2, 81, 0
9, 833280, Note_on_c, 2, 78, 80
9, 833280, Note_on_c, 2, 66, 80
9, 833489, Note_on_c, 2, 78, 0
9, 833489, Note_on_c, 2, 66, 0
9, 833520, Note_on_c, 2, 66, 80
9, 833520, Note_on_c, 2, 78, 80
9, 833729, Note_on_c, 2, 66, 0
9, 833729, Note_on_c, 2, 78, 0
9, 833760, Note_on_c, 2, 76, 80
9, 833760, Note_on_c, 2, 64, 80
9, 833969, Note_on_c, 2, 76, 0
9, 833969, Note_on_c, 2, 64, 0
9, 834000, Note_on_c, 2, 61, 80
9, 834000, Note_on_c, 2, 73, 80
9, 834209, Note_on_c, 2, 61, 0
9, 834209, Note_on_c, 2, 73, 0
9, 834240, Note_on_c, 2, 79, 80
9, 834240, Note_on_c, 2, 67, 80
9, 834449, Note_on_c, 2, 79, 0
9, 834449, Note_on_c, 2, 67, 0
9, 834480, Note_on_c, 2, 79, 80
9, 834480, Note_on_c, 2, 67, 80
9, 834599, Note_on_c, 2, 79, 0
9, 834599, Note_on_c, 2, 67, 0
9, 834600, Note_on_c, 2, 81, 80
9, 834600, Note_on_c, 2, 69, 80
9, 834699, Note_on_c, 2, 81, 0
9, 834699, Note_on_c, 2, 69, 0
9, 834720, Note_on_c, 2, 83, 80
9, 834720, Note_on_c, 2, 71, 80
9, 834899, Note_on_c, 2, 83, 0
9, 834899, Note_on_c, 2, 71, 0
9, 835200, Note_on_c, 2, 67, 80
9, 835200, Note_on_c, 2, 79, 80
9, 835409, Note_on_c, 2, 67, 0
9, 835409, Note_on_c, 2, 79, 0
9, 835440, Note_on_c, 2, 79, 80
9, 835440, Note_on_c, 2, 67, 80
9, 835649, Note_on_c, 2, 79, 0
9, 835649, Note_on_c, 2, 67, 0
9, 835680, Note_on_c, 2, 66, 80
9, 835680, Note_on_c, 2, 78, 80
9, 835889, Note_on_c, 2, 66, 0
9, 835889, Note_on_c, 2, 78, 0
9, 835920, Note_on_c, 2, 63, 80
9, 835920, Note_on_c, 2, 75, 80
9, 836129, Note_on_c, 2, 63, 0
9, 836129, Note_on_c, 2, 75, 0
9, 836160, Note_on_c, 2, 66, 92
9, 836160, Note_on_c, 2, 69, 92
9, 836519, Note_on_c, 2, 66, 0
9, 836519, Note_on_c, 2, 69, 0
9, 836640, Note_on_c, 2, 69, 92
9, 836640, Note_on_c, 2, 66, 92
9, 836999, Note_on_c, 2, 69, 0
9, 836999, Note_on_c, 2, 66, 0
9, 837120, Note_on_c, 2, 66, 92
9, 837120, Note_on_c, 2, 69, 92
9, 837479, Note_on_c, 2, 66, 0
9, 837479, Note_on_c, 2, 69, 0
9, 837600, Note_on_c, 2, 69, 92
9, 837600, Note_on_c, 2, 66, 92
9, 837959, Note_on_c, 2, 69, 0
9, 837959, Note_on_c, 2, 66, 0
9, 838080, Note_on_c, 2, 66, 92
9, 838080, Note_on_c, 2, 69, 92
9, 838439, Note_on_c, 2, 66, 0
9, 838439, Note_on_c, 2, 69, 0
9, 838560, Note_on_c, 2, 66, 92
9, 838560, Note_on_c, 2, 69, 92
9, 838919, Note_on_c, 2, 66, 0
9, 838919, Note_on_c, 2, 69, 0
9, 839040, Note_on_c, 2, 67, 92
9, 839040, Note_on_c, 2, 64, 92
9, 839399, Note_on_c, 2, 67, 0
9, 839399, Note_on_c, 2, 64, 0
9, 839520, Note_on_c, 2, 67, 92
9, 839520, Note_on_c, 2, 64, 92
9, 839879, Note_on_c, 2, 67, 0
9, 839879, Note_on_c, 2, 64, 0
9, 840000, Note_on_c, 2, 67, 92
9, 840000, Note_on_c, 2, 64, 92
9, 840359, Note_on_c, 2, 67, 0
9, 840359, Note_on_c, 2, 64, 0
9, 840480, Note_on_c, 2, 64, 92
9, 840480, Note_on_c, 2, 67, 92
9, 840839, Note_on_c, 2, 64, 0
9, 840839, Note_on_c, 2, 67, 0
9, 840960, Note_on_c, 2, 69, 92
9, 840960, Note_on_c, 2, 65, 92
9, 841319, Note_on_c, 2, 69, 0
9, 841319, Note_on_c, 2, 65, 0
9, 841440, Note_on_c, 2, 74, 92
9, 841440, Note_on_c, 2, 65, 92
9, 841799, Note_on_c, 2, 74, 0
9, 841799, Note_on_c, 2, 65, 0
9, 841920, Note_on_c, 2, 76, 92
9, 841920, Note_on_c, 2, 73, 92
9, 842369, Note_on_c, 2, 76, 0
9, 842369, Note_on_c, 2, 73, 0
9, 842400, Note_on_c, 2, 57, 92
9, 842400, Note_on_c, 2, 69, 92
9, 842609, Note_on_c, 2, 57, 0
9, 842609, Note_on_c, 2, 69, 0
9, 842640, Note_on_c, 2, 69, 92
9, 842640, Note_on_c, 2, 81, 92
9, 842849, Note_on_c, 2, 69, 0
9, 842849, Note_on_c, 2, 81, 0
9, 842880, Note_on_c, 2, 78, 92
9, 842880, Note_on_c, 2, 81, 92
9, 843329, Note_on_c, 2, 78, 0
9, 843329, Note_on_c, 2, 81, 0
9, 843360, Note_on_c, 2, 78, 92
9, 843360, Note_on_c, 2, 81, 92
9, 843440, Control_c, 2, 11, 107
9, 844289, Note_on_c, 2, 78, 0
9, 844289, Note_on_c, 2, 81, 0
9, 844318, Control_c, 2, 11, 127
9, 844320, Note_on_c, 2, 81, 80
9, 844320, Note_on_c, 2, 78, 80
9, 844679, Note_on_c, 2, 81, 0
9, 844679, Note_on_c, 2, 78, 0
9, 844800, Note_on_c, 2, 81, 80
9, 844800, Note_on_c, 2, 78, 80
9, 845159, Note_on_c, 2, 81, 0
9, 845159, Note_on_c, 2, 78, 0
9, 845280, Note_on_c, 2, 78, 80
9, 845280, Note_on_c, 2, 81, 80
9, 845639, Note_on_c, 2, 78, 0
9, 845639, Note_on_c, 2, 81, 0
9, 845760, Note_on_c, 2, 78, 80
9, 845760, Note_on_c, 2, 81, 80
9, 846119, Note_on_c, 2, 78, 0
9, 846119, Note_on_c, 2, 81, 0
9, 846240, Note_on_c, 2, 78, 80
9, 846240, Note_on_c, 2, 81, 80
9, 846599, Note_on_c, 2, 78, 0
9, 846599, Note_on_c, 2, 81, 0
9, 846720, Note_on_c, 2, 79, 92
9, 846720, Note_on_c, 2, 76, 92
9, 847079, Note_on_c, 2, 79, 0
9, 847079, Note_on_c, 2, 76, 0
9, 847200, Note_on_c, 2, 76, 80
9, 847200, Note_on_c, 2, 79, 80
9, 847559, Note_on_c, 2, 76, 0
9, 847559, Note_on_c, 2, 79, 0
9, 847680, Note_on_c, 2, 79, 80
9, 847680, Note_on_c, 2, 76, 80
9, 848039, Note_on_c, 2, 79, 0
9, 848039, Note_on_c, 2, 76, 0
9, 848160, Note_on_c, 2, 76, 80
9, 848160, Note_on_c, 2, 79, 80
9, 848519, Note_on_c, 2, 76, 0
9, 848519, Note_on_c, 2, 79, 0
9, 848640, Note_on_c, 2, 77, 92
9, 848640, Note_on_c, 2, 69, 92
9, 849089, Note_on_c, 2, 77, 0
9, 849089, Note_on_c, 2, 69, 0
9, 849120, Note_on_c, 2, 77, 92
9, 849120, Note_on_c, 2, 74, 92
9, 849569, Note_on_c, 2, 77, 0
9, 849569, Note_on_c, 2, 74, 0
9, 849600, Note_on_c, 2, 76, 92
9, 849600, Note_on_c, 2, 73, 92
9, 850049, Note_on_c, 2, 76, 0
9, 850049, Note_on_c, 2, 73, 0
9, 850080, Note_on_c, 2, 69, 92
9, 850080, Note_on_c, 2, 76, 92
9, 850529, Note_on_c, 2, 69, 0
9, 850529, Note_on_c, 2, 76, 0
9, 850560, Note_on_c, 2, 66, 92
9, 850560, Note_on_c, 2, 69, 92
9, 851009, Note_on_c, 2, 66, 0
9, 851009, Note_on_c, 2, 69, 0
9, 851040, Note_on_c, 2, 71, 92
9, 851040, Note_on_c, 2, 67, 92
9, 851139, Note_on_c, 2, 71, 0
9, 851139, Note_on_c, 2, 67, 0
9, 851160, Note_on_c, 2, 62, 92
9, 851259, Note_on_c, 2, 62, 0
9, 851280, Note_on_c, 2, 64, 92
9, 851379, Note_on_c, 2, 64, 0
9, 851400, Note_on_c, 2, 66, 92
9, 851499, Note_on_c, 2, 66, 0
9, 851520, Note_on_c, 2, 55, 92
9, 851520, Note_on_c, 2, 67, 92
9, 851619, Note_on_c, 2, 55, 0
9, 851619, Note_on_c, 2, 67, 0
9, 851640, Note_on_c, 2, 67, 92
9, 851640, Note_on_c, 2, 55, 92
9, 851739, Note_on_c, 2, 67, 0
9, 851739, Note_on_c, 2, 55, 0
9, 851760, Note_on_c, 2, 69, 92
9, 851760, Note_on_c, 2, 57, 92
9, 851859, Note_on_c, 2, 69, 0
9, 851859, Note_on_c, 2, 57, 0
9, 851880, Note_on_c, 2, 71, 92
9, 851880, Note_on_c, 2, 59, 92
9, 851979, Note_on_c, 2, 71, 0
9, 851979, Note_on_c, 2, 59, 0
9, 852000, Note_on_c, 2, 73, 92
9, 852000, Note_on_c, 2, 61, 92
9, 852099, Note_on_c, 2, 73, 0
9, 852099, Note_on_c, 2, 61, 0
9, 852120, Note_on_c, 2, 62, 92
9, 852120, Note_on_c, 2, 74, 92
9, 852219, Note_on_c, 2, 62, 0
9, 852219, Note_on_c, 2, 74, 0
9, 852240, Note_on_c, 2, 64, 92
9, 852240, Note_on_c, 2, 61, 92
9, 852339, Note_on_c, 2, 64, 0
9, 852339, Note_on_c, 2, 61, 0
9, 852360, Note_on_c, 2, 66, 92
9, 852360, Note_on_c, 2, 62, 92
9, 852459, Note_on_c, 2, 66, 0
9, 852459, Note_on_c, 2, 62, 0
9, 852480, Note_on_c, 2, 64, 92
9, 852480, Note_on_c, 2, 67, 92
9, 852579, Note_on_c, 2, 64, 0
9, 852579, Note_on_c, 2, 67, 0
9, 852600, Note_on_c, 2, 66, 92
9, 852600, Note_on_c, 2, 69, 92
9, 852699, Note_on_c, 2, 66, 0
9, 852699, Note_on_c, 2, 69, 0
9, 852720, Note_on_c, 2, 67, 92
9, 852720, Note_on_c, 2, 71, 92
9, 852819, Note_on_c, 2, 67, 0
9, 852819, Note_on_c, 2, 71, 0
9, 852840, Note_on_c, 2, 69, 92
9, 852840, Note_on_c, 2, 73, 92
9, 852939, Note_on_c, 2, 69, 0
9, 852939, Note_on_c, 2, 73, 0
9, 852960, Note_on_c, 2, 71, 92
9, 852960, Note_on_c, 2, 74, 92
9, 853059, Note_on_c, 2, 71, 0
9, 853059, Note_on_c, 2, 74, 0
9, 853080, Note_on_c, 2, 73, 92
9, 853080, Note_on_c, 2, 76, 92
9, 853179, Note_on_c, 2, 73, 0
9, 853179, Note_on_c, 2, 76, 0
9, 853200, Note_on_c, 2, 74, 92
9, 853200, Note_on_c, 2, 78, 92
9, 853299, Note_on_c, 2, 74, 0
9, 853299, Note_on_c, 2, 78, 0
9, 853320, Note_on_c, 2, 76, 92
9, 853320, Note_on_c, 2, 79, 92
9, 853419, Note_on_c, 2, 76, 0
9, 853419, Note_on_c, 2, 79, 0
9, 853440, Note_on_c, 2, 78, 92
9, 853440, Note_on_c, 2, 74, 92
9, 853889, Note_on_c, 2, 78, 0
9, 853889, Note_on_c, 2, 74, 0
9, 853920, Note_on_c, 2, 76, 92
9, 853920, Note_on_c, 2, 73, 92
9, 854129, Note_on_c, 2, 73, 0
9, 854160, Note_on_c, 2, 69, 92
9, 854369, Note_on_c, 2, 76, 0
9, 854369, Note_on_c, 2, 69, 0
9, 854400, Note_on_c, 2, 69, 92
9, 854400, Note_on_c, 2, 78, 92
9, 854849, Note_on_c, 2, 69, 0
9, 854849, Note_on_c, 2, 78, 0
9, 854880, Note_on_c, 2, 71, 92
9, 854880, Note_on_c, 2, 79, 92
9, 854979, Note_on_c, 2, 71, 0
9, 854979, Note_on_c, 2, 79, 0
9, 855000, Note_on_c, 2, 62, 92
9, 855099, Note_on_c, 2, 62, 0
9, 855120, Note_on_c, 2, 64, 92
9, 855219, Note_on_c, 2, 64, 0
9, 855240, Note_on_c, 2, 66, 92
9, 855339, Note_on_c, 2, 66, 0
9, 855360, Note_on_c, 2, 67, 92
9, 855459, Note_on_c, 2, 67, 0
9, 855480, Note_on_c, 2, 67, 92
9, 855579, Note_on_c, 2, 67, 0
9, 855600, Note_on_c, 2, 69, 92
9, 855699, Note_on_c, 2, 69, 0
9, 855720, Note_on_c, 2, 71, 92
9, 855819, Note_on_c, 2, 71, 0
9, 855840, Note_on_c, 2, 61, 92
9, 855840, Note_on_c, 2, 73, 92
9, 855939, Note_on_c, 2, 61, 0
9, 855939, Note_on_c, 2, 73, 0
9, 855960, Note_on_c, 2, 62, 92
9, 855960, Note_on_c, 2, 74, 92
9, 856059, Note_on_c, 2, 62, 0
9, 856059, Note_on_c, 2, 74, 0
9, 856080, Note_on_c, 2, 64, 92
9, 856080, Note_on_c, 2, 61, 92
9, 856179, Note_on_c, 2, 64, 0
9, 856179, Note_on_c, 2, 61, 0
9, 856200, Note_on_c, 2, 66, 92
9, 856200, Note_on_c, 2, 62, 92
9, 856299, Note_on_c, 2, 66, 0
9, 856299, Note_on_c, 2, 62, 0
9, 856320, Note_on_c, 2, 67, 92
9, 856320, Note_on_c, 2, 64, 92
9, 856419, Note_on_c, 2, 67, 0
9, 856419, Note_on_c, 2, 64, 0
9, 856440, Note_on_c, 2, 69, 92
9, 856440, Note_on_c, 2, 66, 92
9, 856539, Note_on_c, 2, 69, 0
9, 856539, Note_on_c, 2, 66, 0
9, 856560, Note_on_c, 2, 67, 92
9, 856560, Note_on_c, 2, 71, 92
9, 856659, Note_on_c, 2, 67, 0
9, 856659, Note_on_c, 2, 71, 0
9, 856680, Note_on_c, 2, 69, 92
9, 856680, Note_on_c, 2, 73, 92
9, 856779, Note_on_c, 2, 69, 0
9, 856779, Note_on_c, 2, 73, 0
9, 856800, Note_on_c, 2, 71, 92
9, 856800, Note_on_c, 2, 74, 92
9, 856899, Note_on_c, 2, 71, 0
9, 856899, Note_on_c, 2, 74, 0
9, 856920, Note_on_c, 2, 76, 92
9, 856920, Note_on_c, 2, 73, 92
9, 857019, Note_on_c, 2, 76, 0
9, 857019, Note_on_c, 2, 73, 0
9, 857040, Note_on_c, 2, 74, 92
9, 857040, Note_on_c, 2, 78, 92
9, 857139, Note_on_c, 2, 74, 0
9, 857139, Note_on_c, 2, 78, 0
9, 857160, Note_on_c, 2, 79, 92
9, 857160, Note_on_c, 2, 76, 92
9, 857259, Note_on_c, 2, 79, 0
9, 857259, Note_on_c, 2, 76, 0
9, 857280, Note_on_c, 2, 74, 92
9, 857280, Note_on_c, 2, 78, 92
9, 857729, Note_on_c, 2, 74, 0
9, 857729, Note_on_c, 2, 78, 0
9, 857760, Note_on_c, 2, 76, 92
9, 857760, Note_on_c, 2, 73, 92
9, 858209, Note_on_c, 2, 76, 0
9, 858209, Note_on_c, 2, 73, 0
9, 858240, Note_on_c, 2, 74, 92
9, 858240, Note_on_c, 2, 66, 92
9, 858479, Note_on_c, 2, 74, 0
9, 858479, Note_on_c, 2, 66, 0
9, 858720, Note_on_c, 2, 66, 92
9, 858720, Note_on_c, 2, 78, 92
9, 858929, Note_on_c, 2, 66, 0
9, 858929, Note_on_c, 2, 78, 0
9, 858960, Note_on_c, 2, 79, 92
9, 858960, Note_on_c, 2, 67, 92
9, 859059, Note_on_c, 2, 79, 0
9, 859059, Note_on_c, 2, 67, 0
9, 859080, Note_on_c, 2, 69, 92
9, 859080, Note_on_c, 2, 81, 92
9, 859179, Note_on_c, 2, 69, 0
9, 859179, Note_on_c, 2, 81, 0
9, 859200, Note_on_c, 2, 71, 92
9, 859200, Note_on_c, 2, 83, 92
9, 859439, Note_on_c, 2, 71, 0
9, 859439, Note_on_c, 2, 83, 0
9, 859680, Note_on_c, 2, 62, 92
9, 859680, Note_on_c, 2, 74, 92
9, 859889, Note_on_c, 2, 62, 0
9, 859889, Note_on_c, 2, 74, 0
9, 859920, Note_on_c, 2, 76, 92
9, 859920, Note_on_c, 2, 64, 92
9, 860019, Note_on_c, 2, 76, 0
9, 860019, Note_on_c, 2, 64, 0
9, 860040, Note_on_c, 2, 78, 92
9, 860040, Note_on_c, 2, 66, 92
9, 860139, Note_on_c, 2, 78, 0
9, 860139, Note_on_c, 2, 66, 0
9, 860160, Note_on_c, 2, 67, 92
9, 860160, Note_on_c, 2, 79, 92
9, 860399, Note_on_c, 2, 67, 0
9, 860399, Note_on_c, 2, 79, 0
9, 860640, Note_on_c, 2, 76, 92
9, 860640, Note_on_c, 2, 64, 92
9, 860849, Note_on_c, 2, 76, 0
9, 860849, Note_on_c, 2, 64, 0
9, 860880, Note_on_c, 2, 66, 92
9, 860880, Note_on_c, 2, 78, 92
9, 860979, Note_on_c, 2, 66, 0
9, 860979, Note_on_c, 2, 78, 0
9, 861000, Note_on_c, 2, 79, 92
9, 861000, Note_on_c, 2, 67, 92
9, 861099, Note_on_c, 2, 79, 0
9, 861099, Note_on_c, 2, 67, 0
9, 861120, Note_on_c, 2, 81, 92
9, 861120, Note_on_c, 2, 69, 92
9, 861359, Note_on_c, 2, 81, 0
9, 861359, Note_on_c, 2, 69, 0
9, 861600, Note_on_c, 2, 69, 92
9, 861600, Note_on_c, 2, 81, 92
9, 861809, Note_on_c, 2, 69, 0
9, 861809, Note_on_c, 2, 81, 0
9, 861840, Note_on_c, 2, 83, 92
9, 861840, Note_on_c, 2, 71, 92
9, 861939, Note_on_c, 2, 83, 0
9, 861939, Note_on_c, 2, 71, 0
9, 861960, Note_on_c, 2, 73, 92
9, 861960, Note_on_c, 2, 85, 92
9, 862059, Note_on_c, 2, 73, 0
9, 862059, Note_on_c, 2, 85, 0
9, 862080, Note_on_c, 2, 74, 92
9, 862080, Note_on_c, 2, 86, 92
9, 862179, Note_on_c, 2, 74, 0
9, 862179, Note_on_c, 2, 86, 0
9, 862200, Note_on_c, 2, 69, 92
9, 862200, Note_on_c, 2, 81, 92
9, 862299, Note_on_c, 2, 69, 0
9, 862299, Note_on_c, 2, 81, 0
9, 862320, Note_on_c, 2, 83, 92
9, 862320, Note_on_c, 2, 71, 92
9, 862419, Note_on_c, 2, 83, 0
9, 862419, Note_on_c, 2, 71, 0
9, 862440, Note_on_c, 2, 73, 92
9, 862440, Note_on_c, 2, 85, 92
9, 862539, Note_on_c, 2, 73, 0
9, 862539, Note_on_c, 2, 85, 0
9, 862560, Note_on_c, 2, 74, 92
9, 862560, Note_on_c, 2, 86, 92
9, 862659, Note_on_c, 2, 74, 0
9, 862659, Note_on_c, 2, 86, 0
9, 862680, Note_on_c, 2, 76, 92
9, 862779, Note_on_c, 2, 76, 0
9, 862800, Note_on_c, 2, 78, 92
9, 862899, Note_on_c, 2, 78, 0
9, 862920, Note_on_c, 2, 74, 92
9, 863019, Note_on_c, 2, 74, 0
9, 863040, Note_on_c, 2, 81, 92
9, 863040, Note_on_c, 2, 69, 92
9, 863729, Note_on_c, 2, 81, 0
9, 863729, Note_on_c, 2, 69, 0
9, 863760, Note_on_c, 2, 69, 92
9, 863760, Note_on_c, 2, 81, 92
9, 863969, Note_on_c, 2, 69, 0
9, 863969, Note_on_c, 2, 81, 0
9, 864000, Note_on_c, 2, 69, 92
9, 864000, Note_on_c, 2, 81, 92
9, 864209, Note_on_c, 2, 69, 0
9, 864209, Note_on_c, 2, 81, 0
9, 864240, Note_on_c, 2, 62, 92
9, 864240, Note_on_c, 2, 74, 92
9, 864479, Note_on_c, 2, 62, 0
9, 864479, Note_on_c, 2, 74, 0
9, 867360, Note_on_c, 2, 81, 92
9, 867360, Note_on_c, 2, 69, 92
9, 867599, Note_on_c, 2, 81, 0
9, 867599, Note_on_c, 2, 69, 0
9, 867600, Note_on_c, 2, 69, 92
9, 867600, Note_on_c, 2, 81, 92
9, 867809, Note_on_c, 2, 69, 0
9, 867809, Note_on_c, 2, 81, 0
9, 867840, Note_on_c, 2, 81, 92
9, 867840, Note_on_c, 2, 69, 92
9, 869489, Note_on_c, 2, 81, 0
9, 869489, Note_on_c, 2, 69, 0
9, 869520, Note_on_c, 2, 81, 92
9, 869520, Note_on_c, 2, 69, 92
9, 869729, Note_on_c, 2, 81, 0
9, 869729, Note_on_c, 2, 69, 0
9, 869760, Note_on_c, 2, 81, 92
9, 869760, Note_on_c, 2, 69, 92
9, 869969, Note_on_c, 2, 81, 0
9, 869969, Note_on_c, 2, 69, 0
9, 870000, Note_on_c, 2, 74, 92
9, 870000, Note_on_c, 2, 62, 92
9, 870209, Note_on_c, 2, 74, 0
9, 870209, Note_on_c, 2, 62, 0
9, 870240, Note_on_c, 2, 73, 92
9, 870240, Note_on_c, 2, 76, 92
9, 871069, Note_on_c, 2, 73, 0
9, 871069, Note_on_c, 2, 76, 0
9, 871080, Note_on_c, 2, 76, 92
9, 871080, Note_on_c, 2, 73, 92
9, 871189, Note_on_c, 2, 76, 0
9, 871189, Note_on_c, 2, 73, 0
9, 871200, Note_on_c, 2, 73, 92
9, 871200, Note_on_c, 2, 76, 92
9, 871373, Note_on_c, 2, 73, 0
9, 871373, Note_on_c, 2, 76, 0
9, 871378, Control_c, 2, 11, 69
9, 871380, Note_on_c, 2, 76, 80
9, 871380, Note_on_c, 2, 73, 80
9, 871433, Note_on_c, 2, 76, 0
9, 871433, Note_on_c, 2, 73, 0
9, 871440, Note_on_c, 2, 74, 80
9, 871613, Note_on_c, 2, 74, 0
9, 871620, Note_on_c, 2, 73, 80
9, 871673, Note_on_c, 2, 73, 0
9, 871680, Control_c, 2, 11, 69
9, 871680, Note_on_c, 2, 76, 80
9, 871680, Note_on_c, 2, 73, 80
9, 871693, Control_c, 2, 11, 71
9, 871707, Control_c, 2, 11, 72
9, 871720, Control_c, 2, 11, 74
9, 871733, Control_c, 2, 11, 75
9, 871747, Control_c, 2, 11, 77
9, 871760, Control_c, 2, 11, 79
9, 871773, Control_c, 2, 11, 80
9, 871787, Control_c, 2, 11, 82
9, 871800, Control_c, 2, 11, 84
9, 871813, Control_c, 2, 11, 85
9, 871827, Control_c, 2, 11, 87
9, 871840, Control_c, 2, 11, 88
9, 871853, Control_c, 2, 11, 90
9, 871867, Control_c, 2, 11, 92
9, 871880, Control_c, 2, 11, 93
9, 871893, Control_c, 2, 11, 95
9, 871907, Control_c, 2, 11, 96
9, 871920, Control_c, 2, 11, 98
9, 871933, Control_c, 2, 11, 100
9, 871947, Control_c, 2, 11, 101
9, 871960, Control_c, 2, 11, 103
9, 871973, Control_c, 2, 11, 104
9, 871987, Control_c, 2, 11, 106
9, 872000, Control_c, 2, 11, 108
9, 872013, Control_c, 2, 11, 109
9, 872027, Control_c, 2, 11, 111
9, 872039, Note_on_c, 2, 76, 0
9, 872039, Note_on_c, 2, 73, 0
9, 872040, Note_on_c, 2, 78, 80
9, 872040, Control_c, 2, 11, 113
9, 872040, Note_on_c, 2, 74, 80
9, 872053, Control_c, 2, 11, 114
9, 872067, Control_c, 2, 11, 116
9, 872080, Control_c, 2, 11, 117
9, 872093, Control_c, 2, 11, 119
9, 872099, Note_on_c, 2, 78, 0
9, 872099, Note_on_c, 2, 74, 0
9, 872100, Note_on_c, 2, 76, 80
9, 872100, Note_on_c, 2, 79, 80
9, 872107, Control_c, 2, 11, 121
9, 872120, Control_c, 2, 11, 122
9, 872133, Control_c, 2, 11, 124
9, 872147, Control_c, 2, 11, 125
9, 872153, Note_on_c, 2, 76, 0
9, 872153, Note_on_c, 2, 79, 0
9, 872158, Control_c, 2, 11, 127
9, 872160, Note_on_c, 2, 69, 80
9, 872160, Note_on_c, 2, 78, 80
9, 872333, Note_on_c, 2, 69, 0
9, 872333, Note_on_c, 2, 78, 0
9, 872340, Note_on_c, 2, 74, 80
9, 872340, Note_on_c, 2, 78, 80
9, 872393, Note_on_c, 2, 74, 0
9, 872393, Note_on_c, 2, 78, 0
9, 872400, Note_on_c, 2, 79, 80
9, 872400, Note_on_c, 2, 71, 80
9, 872749, Note_on_c, 2, 79, 0
9, 872749, Note_on_c, 2, 71, 0
9, 872760, Note_on_c, 2, 76, 80
9, 872760, Note_on_c, 2, 73, 80
9, 872869, Note_on_c, 2, 76, 0
9, 872869, Note_on_c, 2, 73, 0
9, 872880, Note_on_c, 2, 69, 92
9, 872880, Note_on_c, 2, 81, 92
9, 872940, Control_c, 2, 11, 107
9, 873049, Note_on_c, 2, 69, 0
9, 873049, Note_on_c, 2, 81, 0
9, 873060, Note_on_c, 2, 69, 92
9, 873060, Note_on_c, 2, 81, 92
9, 873109, Note_on_c, 2, 69, 0
9, 873109, Note_on_c, 2, 81, 0
9, 873120, Note_on_c, 2, 69, 92
9, 873120, Note_on_c, 2, 81, 92
9, 873229, Note_on_c, 2, 69, 0
9, 873229, Note_on_c, 2, 81, 0
9, 873240, Note_on_c, 2, 74, 92
9, 873240, Note_on_c, 2, 62, 92
9, 873349, Note_on_c, 2, 74, 0
9, 873349, Note_on_c, 2, 62, 0
9, 873358, Control_c, 2, 11, 127
9, 873360, Note_on_c, 2, 81, 92
9, 873360, Note_on_c, 2, 69, 92
9, 873420, Control_c, 2, 11, 107
9, 873529, Note_on_c, 2, 81, 0
9, 873529, Note_on_c, 2, 69, 0
9, 873540, Note_on_c, 2, 81, 92
9, 873540, Note_on_c, 2, 69, 92
9, 873589, Note_on_c, 2, 81, 0
9, 873589, Note_on_c, 2, 69, 0
9, 873598, Control_c, 2, 11, 127
9, 873600, Note_on_c, 2, 81, 92
9, 873600, Note_on_c, 2, 69, 92
9, 874049, Note_on_c, 2, 81, 0
9, 874049, Note_on_c, 2, 69, 0
9, 874080, Note_on_c, 2, 62, 92
9, 874080, Note_on_c, 2, 74, 92
9, 874289, Note_on_c, 2, 62, 0
9, 874289, Note_on_c, 2, 74, 0
9, 874320, Note_on_c, 2, 69, 92
9, 874320, Note_on_c, 2, 81, 92
9, 874529, Note_on_c, 2, 69, 0
9, 874529, Note_on_c, 2, 81, 0
9, 874560, Note_on_c, 2, 78, 92
9, 874560, Note_on_c, 2, 81, 92
9, 874769, Note_on_c, 2, 78, 0
9, 874769, Note_on_c, 2, 81, 0
9, 874800, Note_on_c, 2, 79, 92
9, 874800, Note_on_c, 2, 76, 92
9, 875009, Note_on_c, 2, 79, 0
9, 875009, Note_on_c, 2, 76, 0
9, 875040, Note_on_c, 2, 74, 92
9, 875040, Note_on_c, 2, 78, 92
9, 875249, Note_on_c, 2, 74, 0
9, 875249, Note_on_c, 2, 78, 0
9, 875280, Note_on_c, 2, 78, 92
9, 875280, Note_on_c, 2, 74, 92
9, 875379, Note_on_c, 2, 78, 0
9, 875379, Note_on_c, 2, 74, 0
9, 875400, Note_on_c, 2, 76, 92
9, 875400, Note_on_c, 2, 73, 92
9, 875499, Note_on_c, 2, 76, 0
9, 875499, Note_on_c, 2, 73, 0
9, 875520, Note_on_c, 2, 74, 92
9, 875520, Note_on_c, 2, 78, 92
9, 875729, Note_on_c, 2, 74, 0
9, 875729, Note_on_c, 2, 78, 0
9, 875760, Note_on_c, 2, 78, 92
9, 875760, Note_on_c, 2, 74, 92
9, 875969, Note_on_c, 2, 78, 0
9, 875969, Note_on_c, 2, 74, 0
9, 876000, Note_on_c, 2, 76, 92
9, 876000, Note_on_c, 2, 79, 92
9, 876209, Note_on_c, 2, 76, 0
9, 876209, Note_on_c, 2, 79, 0
9, 876240, Note_on_c, 2, 81, 92
9, 876240, Note_on_c, 2, 78, 92
9, 876449, Note_on_c, 2, 81, 0
9, 876449, Note_on_c, 2, 78, 0
9, 876480, Note_on_c, 2, 78, 92
9, 876480, Note_on_c, 2, 81, 92
9, 876689, Note_on_c, 2, 78, 0
9, 876689, Note_on_c, 2, 81, 0
9, 876720, Note_on_c, 2, 76, 92
9, 876720, Note_on_c, 2, 79, 92
9, 876929, Note_on_c, 2, 76, 0
9, 876929, Note_on_c, 2, 79, 0
9, 876960, Note_on_c, 2, 74, 92
9, 876960, Note_on_c, 2, 78, 92
9, 877169, Note_on_c, 2, 74, 0
9, 877169, Note_on_c, 2, 78, 0
9, 877200, Note_on_c, 2, 78, 92
9, 877200, Note_on_c, 2, 74, 92
9, 877299, Note_on_c, 2, 78, 0
9, 877299, Note_on_c, 2, 74, 0
9, 877320, Note_on_c, 2, 73, 92
9, 877320, Note_on_c, 2, 76, 92
9, 877419, Note_on_c, 2, 73, 0
9, 877419, Note_on_c, 2, 76, 0
9, 877440, Note_on_c, 2, 74, 92
9, 877440, Note_on_c, 2, 78, 92
9, 877649, Note_on_c, 2, 74, 0
9, 877649, Note_on_c, 2, 78, 0
9, 877680, Note_on_c, 2, 73, 92
9, 877680, Note_on_c, 2, 76, 92
9, 877889, Note_on_c, 2, 73, 0
9, 877889, Note_on_c, 2, 76, 0
9, 877920, Note_on_c, 2, 78, 92
9, 877920, Note_on_c, 2, 74, 92
9, 878129, Note_on_c, 2, 78, 0
9, 878129, Note_on_c, 2, 74, 0
9, 878160, Note_on_c, 2, 73, 92
9, 878160, Note_on_c, 2, 64, 92
9, 878369, Note_on_c, 2, 73, 0
9, 878369, Note_on_c, 2, 64, 0
9, 878400, Note_on_c, 2, 66, 92
9, 878400, Note_on_c, 2, 74, 92
9, 878609, Note_on_c, 2, 66, 0
9, 878609, Note_on_c, 2, 74, 0
9, 878640, Note_on_c, 2, 64, 92
9, 878640, Note_on_c, 2, 73, 92
9, 878849, Note_on_c, 2, 64, 0
9, 878849, Note_on_c, 2, 73, 0
9, 878880, Note_on_c, 2, 66, 92
9, 878880, Note_on_c, 2, 74, 92
9, 879089, Note_on_c, 2, 66, 0
9, 879089, Note_on_c, 2, 74, 0
9, 879120, Note_on_c, 2, 73, 92
9, 879120, Note_on_c, 2, 76, 92
9, 879329, Note_on_c, 2, 73, 0
9, 879329, Note_on_c, 2, 76, 0
9, 879360, Note_on_c, 2, 74, 92
9, 879360, Note_on_c, 2, 78, 92
9, 879569, Note_on_c, 2, 74, 0
9, 879569, Note_on_c, 2, 78, 0
9, 879600, Note_on_c, 2, 76, 92
9, 879600, Note_on_c, 2, 73, 92
9, 879809, Note_on_c, 2, 76, 0
9, 879809, Note_on_c, 2, 73, 0
9, 879840, Note_on_c, 2, 78, 92
9, 879840, Note_on_c, 2, 74, 92
9, 880049, Note_on_c, 2, 78, 0
9, 880049, Note_on_c, 2, 74, 0
9, 880080, Note_on_c, 2, 76, 92
9, 880080, Note_on_c, 2, 79, 92
9, 880289, Note_on_c, 2, 76, 0
9, 880289, Note_on_c, 2, 79, 0
9, 880320, Note_on_c, 2, 79, 92
9, 880320, Note_on_c, 2, 76, 92
9, 880529, Note_on_c, 2, 79, 0
9, 880529, Note_on_c, 2, 76, 0
9, 880560, Note_on_c, 2, 74, 92
9, 880560, Note_on_c, 2, 78, 92
9, 880769, Note_on_c, 2, 74, 0
9, 880769, Note_on_c, 2, 78, 0
9, 880800, Note_on_c, 2, 76, 92
9, 880800, Note_on_c, 2, 79, 92
9, 881009, Note_on_c, 2, 76, 0
9, 881009, Note_on_c, 2, 79, 0
9, 881040, Note_on_c, 2, 81, 92
9, 881040, Note_on_c, 2, 78, 92
9, 881249, Note_on_c, 2, 81, 0
9, 881249, Note_on_c, 2, 78, 0
9, 881280, Note_on_c, 2, 81, 92
9, 881280, Note_on_c, 2, 78, 92
9, 881519, Note_on_c, 2, 81, 0
9, 881519, Note_on_c, 2, 78, 0
9, 881520, Note_on_c, 2, 69, 80
9, 881520, Note_on_c, 2, 78, 80
9, 881639, Note_on_c, 2, 69, 0
9, 881639, Note_on_c, 2, 78, 0
9, 881760, Note_on_c, 2, 78, 80
9, 881760, Note_on_c, 2, 81, 80
9, 881999, Note_on_c, 2, 78, 0
9, 881999, Note_on_c, 2, 81, 0
9, 882000, Note_on_c, 2, 69, 80
9, 882000, Note_on_c, 2, 78, 80
9, 882119, Note_on_c, 2, 69, 0
9, 882119, Note_on_c, 2, 78, 0
9, 882240, Note_on_c, 2, 78, 80
9, 882240, Note_on_c, 2, 81, 80
9, 882479, Note_on_c, 2, 78, 0
9, 882479, Note_on_c, 2, 81, 0
9, 882480, Note_on_c, 2, 78, 80
9, 882480, Note_on_c, 2, 69, 80
9, 882599, Note_on_c, 2, 78, 0
9, 882599, Note_on_c, 2, 69, 0
9, 882720, Note_on_c, 2, 81, 80
9, 882720, Note_on_c, 2, 78, 80
9, 882959, Note_on_c, 2, 81, 0
9, 882959, Note_on_c, 2, 78, 0
9, 882960, Note_on_c, 2, 69, 80
9, 882960, Note_on_c, 2, 78, 80
9, 883079, Note_on_c, 2, 69, 0
9, 883079, Note_on_c, 2, 78, 0
9, 883200, Note_on_c, 2, 78, 80
9, 883200, Note_on_c, 2, 81, 80
9, 883439, Note_on_c, 2, 78, 0
9, 883439, Note_on_c, 2, 81, 0
9, 883440, Note_on_c, 2, 78, 80
9, 883440, Note_on_c, 2, 69, 80
9, 883559, Note_on_c, 2, 78, 0
9, 883559, Note_on_c, 2, 69, 0
9, 883680, Note_on_c, 2, 78, 80
9, 883680, Note_on_c, 2, 81, 80
9, 883919, Note_on_c, 2, 78, 0
9, 883919, Note_on_c, 2, 81, 0
9, 883920, Note_on_c, 2, 69, 80
9, 883920, Note_on_c, 2, 78, 80
9, 884039, Note_on_c, 2, 69, 0
9, 884039, Note_on_c, 2, 78, 0
9, 884160, Note_on_c, 2, 81, 80
9, 884160, Note_on_c, 2, 78, 80
9, 884399, Note_on_c, 2, 81, 0
9, 884399, Note_on_c, 2, 78, 0
9, 884400, Note_on_c, 2, 78, 80
9, 884400, Note_on_c, 2, 69, 80
9, 884519, Note_on_c, 2, 78, 0
9, 884519, Note_on_c, 2, 69, 0
9, 884640, Note_on_c, 2, 81, 80
9, 884640, Note_on_c, 2, 78, 80
9, 884879, Note_on_c, 2, 81, 0
9, 884879, Note_on_c, 2, 78, 0
9, 884880, Note_on_c, 2, 78, 80
9, 884880, Note_on_c, 2, 69, 80
9, 884999, Note_on_c, 2, 78, 0
9, 884999, Note_on_c, 2, 69, 0
9, 885120, Note_on_c, 2, 78, 80
9, 885120, Note_on_c, 2, 81, 80
9, 885359, Note_on_c, 2, 78, 0
9, 885359, Note_on_c, 2, 81, 0
9, 885360, Note_on_c, 2, 78, 80
9, 885360, Note_on_c, 2, 69, 80
9, 885479, Note_on_c, 2, 78, 0
9, 885479, Note_on_c, 2, 69, 0
9, 885600, Note_on_c, 2, 81, 80
9, 885600, Note_on_c, 2, 78, 80
9, 885839, Note_on_c, 2, 81, 0
9, 885839, Note_on_c, 2, 78, 0
9, 885840, Note_on_c, 2, 69, 80
9, 885840, Note_on_c, 2, 78, 80
9, 885959, Note_on_c, 2, 69, 0
9, 885959, Note_on_c, 2, 78, 0
9, 886080, Note_on_c, 2, 78, 80
9, 886080, Note_on_c, 2, 81, 80
9, 886319, Note_on_c, 2, 78, 0
9, 886319, Note_on_c, 2, 81, 0
9, 886320, Note_on_c, 2, 69, 80
9, 886320, Note_on_c, 2, 78, 80
9, 886439, Note_on_c, 2, 69, 0
9, 886439, Note_on_c, 2, 78, 0
9, 886560, Note_on_c, 2, 78, 80
9, 886560, Note_on_c, 2, 81, 80
9, 886799, Note_on_c, 2, 78, 0
9, 886799, Note_on_c, 2, 81, 0
9, 886800, Note_on_c, 2, 78, 80
9, 886800, Note_on_c, 2, 69, 80
9, 886919, Note_on_c, 2, 78, 0
9, 886919, Note_on_c, 2, 69, 0
9, 887040, Note_on_c, 2, 81, 80
9, 887040, Note_on_c, 2, 78, 80
9, 887279, Note_on_c, 2, 81, 0
9, 887279, Note_on_c, 2, 78, 0
9, 887280, Note_on_c, 2, 78, 80
9, 887280, Note_on_c, 2, 69, 80
9, 887399, Note_on_c, 2, 78, 0
9, 887399, Note_on_c, 2, 69, 0
9, 887520, Note_on_c, 2, 78, 80
9, 887520, Note_on_c, 2, 81, 80
9, 887759, Note_on_c, 2, 78, 0
9, 887759, Note_on_c, 2, 81, 0
9, 887760, Note_on_c, 2, 78, 80
9, 887760, Note_on_c, 2, 69, 80
9, 887879, Note_on_c, 2, 78, 0
9, 887879, Note_on_c, 2, 69, 0
9, 888000, Note_on_c, 2, 81, 80
9, 888000, Note_on_c, 2, 78, 80
9, 888239, Note_on_c, 2, 81, 0
9, 888239, Note_on_c, 2, 78, 0
9, 888240, Note_on_c, 2, 69, 80
9, 888240, Note_on_c, 2, 78, 80
9, 888359, Note_on_c, 2, 69, 0
9, 888359, Note_on_c, 2, 78, 0
9, 888480, Note_on_c, 2, 78, 80
9, 888480, Note_on_c, 2, 81, 80
9, 888719, Note_on_c, 2, 78, 0
9, 888719, Note_on_c, 2, 81, 0
9, 888720, Note_on_c, 2, 78, 80
9, 888720, Note_on_c, 2, 69, 80
9, 888839, Note_on_c, 2, 78, 0
9, 888839, Note_on_c, 2, 69, 0
9, 888960, Note_on_c, 2, 69, 92
9, 888960, Note_on_c, 2, 57, 92
9, 889119, Note_on_c, 2, 69, 0
9, 889119, Note_on_c, 2, 57, 0
9, 889120, Note_on_c, 2, 59, 92
9, 889120, Note_on_c, 2, 71, 92
9, 889279, Note_on_c, 2, 59, 0
9, 889279, Note_on_c, 2, 71, 0
9, 889280, Note_on_c, 2, 73, 92
9, 889280, Note_on_c, 2, 61, 92
9, 889439, Note_on_c, 2, 73, 0
9, 889439, Note_on_c, 2, 61, 0
9, 889440, Note_on_c, 2, 74, 92
9, 889440, Note_on_c, 2, 62, 92
9, 889599, Note_on_c, 2, 74, 0
9, 889599, Note_on_c, 2, 62, 0
9, 889600, Note_on_c, 2, 64, 92
9, 889759, Note_on_c, 2, 64, 0
9, 889760, Note_on_c, 2, 66, 92
9, 889899, Note_on_c, 2, 66, 0
9, 889920, Note_on_c, 2, 67, 92
9, 890079, Note_on_c, 2, 67, 0
9, 890080, Note_on_c, 2, 66, 92
9, 890239, Note_on_c, 2, 66, 0
9, 890240, Note_on_c, 2, 67, 92
9, 890399, Note_on_c, 2, 67, 0
9, 890400, Note_on_c, 2, 69, 92
9, 890559, Note_on_c, 2, 69, 0
9, 890560, Note_on_c, 2, 71, 92
9, 890719, Note_on_c, 2, 71, 0
9, 890720, Note_on_c, 2, 73, 92
9, 890859, Note_on_c, 2, 73, 0
9, 890880, Note_on_c, 2, 74, 92
9, 891039, Note_on_c, 2, 74, 0
9, 891040, Note_on_c, 2, 73, 92
9, 891199, Note_on_c, 2, 73, 0
9, 891200, Note_on_c, 2, 74, 92
9, 891359, Note_on_c, 2, 74, 0
9, 891360, Note_on_c, 2, 76, 92
9, 891519, Note_on_c, 2, 76, 0
9, 891520, Note_on_c, 2, 78, 92
9, 891679, Note_on_c, 2, 78, 0
9, 891680, Note_on_c, 2, 79, 92
9, 891819, Note_on_c, 2, 79, 0
9, 891840, Note_on_c, 2, 81, 92
9, 892049, Note_on_c, 2, 81, 0
9, 892080, Note_on_c, 2, 81, 92
9, 892289, Note_on_c, 2, 81, 0
9, 892320, Note_on_c, 2, 81, 92
9, 892529, Note_on_c, 2, 81, 0
9, 892560, Note_on_c, 2, 81, 92
9, 892769, Note_on_c, 2, 81, 0
9, 892800, Note_on_c, 2, 74, 92
9, 893039, Note_on_c, 2, 74, 0
9, 893039, End_track
10, 0, Start_track
10, 0, Title_t, "Bassoon"
10, 0, MIDI_port, 0
10, 0, Program_c, 3, 70
10, 0, Control_c, 3, 121, 0
10, 0, Control_c, 3, 7, 96
10, 0, Control_c, 3, 11, 127
10, 0, Control_c, 3, 10, 65
10, 0, Note_on_c, 3, 41, 92
10, 1779, Note_on_c, 3, 41, 0
10, 1800, Note_on_c, 3, 65, 92
10, 1800, Note_on_c, 3, 53, 92
10, 1899, Note_on_c, 3, 65, 0
10, 1899, Note_on_c, 3, 53, 0
10, 1920, Note_on_c, 3, 65, 92
10, 1920, Note_on_c, 3, 53, 92
10, 2019, Note_on_c, 3, 65, 0
10, 2019, Note_on_c, 3, 53, 0
10, 2040, Note_on_c, 3, 45, 92
10, 2040, Note_on_c, 3, 57, 92
10, 2139, Note_on_c, 3, 45, 0
10, 2139, Note_on_c, 3, 57, 0
10, 2160, Note_on_c, 3, 57, 92
10, 2160, Note_on_c, 3, 45, 92
10, 2259, Note_on_c, 3, 57, 0
10, 2259, Note_on_c, 3, 45, 0
10, 2280, Note_on_c, 3, 62, 92
10, 2280, Note_on_c, 3, 50, 92
10, 2379, Note_on_c, 3, 62, 0
10, 2379, Note_on_c, 3, 50, 0
10, 2400, Note_on_c, 3, 62, 92
10, 2400, Note_on_c, 3, 50, 92
10, 2499, Note_on_c, 3, 62, 0
10, 2499, Note_on_c, 3, 50, 0
10, 2520, Note_on_c, 3, 53, 92
10, 2520, Note_on_c, 3, 41, 92
10, 2619, Note_on_c, 3, 53, 0
10, 2619, Note_on_c, 3, 41, 0
10, 2640, Note_on_c, 3, 41, 92
10, 2640, Note_on_c, 3, 53, 92
10, 2739, Note_on_c, 3, 41, 0
10, 2739, Note_on_c, 3, 53, 0
10, 2760, Note_on_c, 3, 57, 92
10, 2760, Note_on_c, 3, 45, 92
10, 2859, Note_on_c, 3, 57, 0
10, 2859, Note_on_c, 3, 45, 0
10, 2880, Note_on_c, 3, 57, 92
10, 2880, Note_on_c, 3, 45, 92
10, 2979, Note_on_c, 3, 57, 0
10, 2979, Note_on_c, 3, 45, 0
10, 3000, Note_on_c, 3, 38, 92
10, 3000, Note_on_c, 3, 50, 92
10, 3099, Note_on_c, 3, 38, 0
10, 3099, Note_on_c, 3, 50, 0
10, 3120, Note_on_c, 3, 38, 92
10, 3120, Note_on_c, 3, 50, 92
10, 3219, Note_on_c, 3, 38, 0
10, 3219, Note_on_c, 3, 50, 0
10, 3240, Note_on_c, 3, 38, 92
10, 3240, Note_on_c, 3, 50, 92
10, 3339, Note_on_c, 3, 38, 0
10, 3339, Note_on_c, 3, 50, 0
10, 3360, Note_on_c, 3, 38, 92
10, 3360, Note_on_c, 3, 50, 92
10, 3459, Note_on_c, 3, 38, 0
10, 3459, Note_on_c, 3, 50, 0
10, 3480, Note_on_c, 3, 36, 92
10, 3480, Note_on_c, 3, 48, 92
10, 3579, Note_on_c, 3, 36, 0
10, 3579, Note_on_c, 3, 48, 0
10, 3600, Note_on_c, 3, 48, 92
10, 3600, Note_on_c, 3, 36, 92
10, 3699, Note_on_c, 3, 48, 0
10, 3699, Note_on_c, 3, 36, 0
10, 3720, Note_on_c, 3, 47, 92
10, 3720, Note_on_c, 3, 35, 92
10, 3819, Note_on_c, 3, 47, 0
10, 3819, Note_on_c, 3, 35, 0
10, 3840, Note_on_c, 3, 35, 92
10, 3840, Note_on_c, 3, 47, 92
10, 3939, Note_on_c, 3, 35, 0
10, 3939, Note_on_c, 3, 47, 0
10, 3960, Note_on_c, 3, 46, 92
10, 3960, Note_on_c, 3, 34, 92
10, 4059, Note_on_c, 3, 46, 0
10, 4059, Note_on_c, 3, 34, 0
10, 4080, Note_on_c, 3, 34, 92
10, 4080, Note_on_c, 3, 46, 92
10, 4179, Note_on_c, 3, 34, 0
10, 4179, Note_on_c, 3, 46, 0
10, 4200, Note_on_c, 3, 46, 92
10, 4200, Note_on_c, 3, 34, 92
10, 4299, Note_on_c, 3, 46, 0
10, 4299, Note_on_c, 3, 34, 0
10, 4320, Note_on_c, 3, 46, 92
10, 4320, Note_on_c, 3, 34, 92
10, 4419, Note_on_c, 3, 46, 0
10, 4419, Note_on_c, 3, 34, 0
10, 4440, Note_on_c, 3, 58, 92
10, 4440, Note_on_c, 3, 46, 92
10, 4539, Note_on_c, 3, 58, 0
10, 4539, Note_on_c, 3, 46, 0
10, 4560, Note_on_c, 3, 46, 92
10, 4560, Note_on_c, 3, 58, 92
10, 4739, Note_on_c, 3, 46, 0
10, 4739, Note_on_c, 3, 58, 0
10, 4800, Note_on_c, 3, 45, 92
10, 4800, Note_on_c, 3, 57, 92
10, 4979, Note_on_c, 3, 45, 0
10, 4979, Note_on_c, 3, 57, 0
10, 12240, Note_on_c, 3, 42, 92
10, 12819, Note_on_c, 3, 42, 0
10, 12840, Note_on_c, 3, 57, 92
10, 12929, Note_on_c, 3, 57, 0
10, 12960, Note_on_c, 3, 57, 92
10, 13049, Note_on_c, 3, 57, 0
10, 13080, Note_on_c, 3, 60, 92
10, 13169, Note_on_c, 3, 60, 0
10, 13200, Note_on_c, 3, 60, 92
10, 13289, Note_on_c, 3, 60, 0
10, 13320, Note_on_c, 3, 54, 92
10, 13409, Note_on_c, 3, 54, 0
10, 13440, Note_on_c, 3, 54, 92
10, 13529, Note_on_c, 3, 54, 0
10, 13560, Note_on_c, 3, 57, 92
10, 13649, Note_on_c, 3, 57, 0
10, 13680, Note_on_c, 3, 57, 92
10, 13769, Note_on_c, 3, 57, 0
10, 13800, Note_on_c, 3, 48, 92
10, 13889, Note_on_c, 3, 48, 0
10, 13920, Note_on_c, 3, 48, 92
10, 14009, Note_on_c, 3, 48, 0
10, 14040, Note_on_c, 3, 51, 92
10, 14040, Note_on_c, 3, 63, 92
10, 14129, Note_on_c, 3, 51, 0
10, 14129, Note_on_c, 3, 63, 0
10, 14160, Note_on_c, 3, 63, 92
10, 14160, Note_on_c, 3, 51, 92
10, 14249, Note_on_c, 3, 63, 0
10, 14249, Note_on_c, 3, 51, 0
10, 14280, Note_on_c, 3, 57, 92
10, 14280, Note_on_c, 3, 45, 92
10, 14369, Note_on_c, 3, 57, 0
10, 14369, Note_on_c, 3, 45, 0
10, 14400, Note_on_c, 3, 57, 92
10, 14400, Note_on_c, 3, 45, 92
10, 14489, Note_on_c, 3, 57, 0
10, 14489, Note_on_c, 3, 45, 0
10, 14520, Note_on_c, 3, 48, 92
10, 14520, Note_on_c, 3, 60, 92
10, 14609, Note_on_c, 3, 48, 0
10, 14609, Note_on_c, 3, 60, 0
10, 14640, Note_on_c, 3, 60, 92
10, 14640, Note_on_c, 3, 48, 92
10, 14729, Note_on_c, 3, 60, 0
10, 14729, Note_on_c, 3, 48, 0
10, 14760, Note_on_c, 3, 54, 92
10, 14760, Note_on_c, 3, 42, 92
10, 14849, Note_on_c, 3, 54, 0
10, 14849, Note_on_c, 3, 42, 0
10, 14880, Note_on_c, 3, 42, 92
10, 14880, Note_on_c, 3, 54, 92
10, 14969, Note_on_c, 3, 42, 0
10, 14969, Note_on_c, 3, 54, 0
10, 15000, Note_on_c, 3, 57, 92
10, 15000, Note_on_c, 3, 45, 92
10, 15089, Note_on_c, 3, 57, 0
10, 15089, Note_on_c, 3, 45, 0
10, 15120, Note_on_c, 3, 57, 92
10, 15120, Note_on_c, 3, 45, 92
10, 15209, Note_on_c, 3, 57, 0
10, 15209, Note_on_c, 3, 45, 0
10, 15240, Note_on_c, 3, 42, 92
10, 15329, Note_on_c, 3, 42, 0
10, 15360, Note_on_c, 3, 42, 92
10, 15449, Note_on_c, 3, 42, 0
10, 15480, Note_on_c, 3, 60, 92
10, 15480, Note_on_c, 3, 48, 92
10, 15569, Note_on_c, 3, 60, 0
10, 15569, Note_on_c, 3, 48, 0
10, 15600, Note_on_c, 3, 48, 92
10, 15600, Note_on_c, 3, 60, 92
10, 15689, Note_on_c, 3, 48, 0
10, 15689, Note_on_c, 3, 60, 0
10, 15720, Note_on_c, 3, 58, 92
10, 15720, Note_on_c, 3, 46, 92
10, 15809, Note_on_c, 3, 58, 0
10, 15809, Note_on_c, 3, 46, 0
10, 15840, Note_on_c, 3, 46, 92
10, 15840, Note_on_c, 3, 58, 92
10, 15929, Note_on_c, 3, 46, 0
10, 15929, Note_on_c, 3, 58, 0
10, 15960, Note_on_c, 3, 45, 92
10, 15960, Note_on_c, 3, 57, 92
10, 16049, Note_on_c, 3, 45, 0
10, 16049, Note_on_c, 3, 57, 0
10, 16080, Note_on_c, 3, 45, 92
10, 16080, Note_on_c, 3, 57, 92
10, 16169, Note_on_c, 3, 45, 0
10, 16169, Note_on_c, 3, 57, 0
10, 16200, Note_on_c, 3, 55, 92
10, 16200, Note_on_c, 3, 43, 92
10, 16289, Note_on_c, 3, 55, 0
10, 16289, Note_on_c, 3, 43, 0
10, 16320, Note_on_c, 3, 43, 92
10, 16320, Note_on_c, 3, 55, 92
10, 16409, Note_on_c, 3, 43, 0
10, 16409, Note_on_c, 3, 55, 0
10, 16440, Note_on_c, 3, 42, 92
10, 16440, Note_on_c, 3, 54, 92
10, 16529, Note_on_c, 3, 42, 0
10, 16529, Note_on_c, 3, 54, 0
10, 16560, Note_on_c, 3, 42, 92
10, 16560, Note_on_c, 3, 54, 92
10, 16649, Note_on_c, 3, 42, 0
10, 16649, Note_on_c, 3, 54, 0
10, 16680, Note_on_c, 3, 54, 92
10, 16680, Note_on_c, 3, 42, 92
10, 16769, Note_on_c, 3, 54, 0
10, 16769, Note_on_c, 3, 42, 0
10, 16800, Note_on_c, 3, 54, 92
10, 16800, Note_on_c, 3, 42, 92
10, 17039, Note_on_c, 3, 54, 0
10, 17039, Note_on_c, 3, 42, 0
10, 17400, Note_on_c, 3, 53, 92
10, 17400, Note_on_c, 3, 41, 92
10, 17499, Note_on_c, 3, 53, 0
10, 17499, Note_on_c, 3, 41, 0
10, 17520, Note_on_c, 3, 53, 92
10, 17520, Note_on_c, 3, 41, 92
10, 17759, Note_on_c, 3, 53, 0
10, 17759, Note_on_c, 3, 41, 0
10, 20640, Note_on_c, 3, 58, 80
10, 20640, Note_on_c, 3, 46, 80
10, 20759, Note_on_c, 3, 58, 0
10, 20759, Note_on_c, 3, 46, 0
10, 20880, Note_on_c, 3, 58, 80
10, 20880, Note_on_c, 3, 46, 80
10, 20999, Note_on_c, 3, 58, 0
10, 20999, Note_on_c, 3, 46, 0
10, 21120, Note_on_c, 3, 49, 32
10, 23010, Note_on_c, 3, 52, 32
10, 23035, Note_on_c, 3, 52, 0
10, 23039, Note_on_c, 3, 49, 0
10, 23040, Note_on_c, 3, 49, 32
10, 23040, Note_on_c, 3, 45, 32
10, 23159, Note_on_c, 3, 45, 0
10, 24914, Note_on_c, 3, 49, 0
10, 24930, Note_on_c, 3, 57, 32
10, 24930, Note_on_c, 3, 45, 32
10, 24955, Note_on_c, 3, 57, 0
10, 24955, Note_on_c, 3, 45, 0
10, 24960, Note_on_c, 3, 54, 80
10, 24960, Note_on_c, 3, 42, 80
10, 25199, Note_on_c, 3, 54, 0
10, 25199, Note_on_c, 3, 42, 0
10, 32160, Note_on_c, 3, 59, 44
10, 32160, Note_on_c, 3, 56, 44
10, 32339, Note_on_c, 3, 59, 0
10, 32339, Note_on_c, 3, 56, 0
10, 32400, Note_on_c, 3, 57, 44
10, 32400, Note_on_c, 3, 60, 44
10, 32579, Note_on_c, 3, 57, 0
10, 32579, Note_on_c, 3, 60, 0
10, 32640, Note_on_c, 3, 59, 44
10, 32640, Note_on_c, 3, 62, 44
10, 32819, Note_on_c, 3, 59, 0
10, 32819, Note_on_c, 3, 62, 0
10, 32880, Note_on_c, 3, 64, 44
10, 32880, Note_on_c, 3, 60, 44
10, 33059, Note_on_c, 3, 64, 0
10, 33059, Note_on_c, 3, 60, 0
10, 33120, Note_on_c, 3, 59, 44
10, 33120, Note_on_c, 3, 62, 44
10, 33299, Note_on_c, 3, 59, 0
10, 33299, Note_on_c, 3, 62, 0
10, 33360, Note_on_c, 3, 57, 44
10, 33360, Note_on_c, 3, 60, 44
10, 33539, Note_on_c, 3, 57, 0
10, 33539, Note_on_c, 3, 60, 0
10, 33600, Note_on_c, 3, 62, 44
10, 33600, Note_on_c, 3, 59, 44
10, 33779, Note_on_c, 3, 62, 0
10, 33779, Note_on_c, 3, 59, 0
10, 33840, Note_on_c, 3, 60, 44
10, 33840, Note_on_c, 3, 57, 44
10, 34019, Note_on_c, 3, 60, 0
10, 34019, Note_on_c, 3, 57, 0
10, 34080, Note_on_c, 3, 59, 44
10, 34080, Note_on_c, 3, 56, 44
10, 34259, Note_on_c, 3, 59, 0
10, 34259, Note_on_c, 3, 56, 0
10, 34320, Note_on_c, 3, 57, 44
10, 34320, Note_on_c, 3, 60, 44
10, 34559, Note_on_c, 3, 57, 0
10, 34559, Note_on_c, 3, 60, 0
10, 35040, Note_on_c, 3, 48, 44
10, 35040, Note_on_c, 3, 60, 44
10, 35369, Note_on_c, 3, 48, 0
10, 35369, Note_on_c, 3, 60, 0
10, 35400, Note_on_c, 3, 36, 44
10, 35400, Note_on_c, 3, 48, 44
10, 35489, Note_on_c, 3, 36, 0
10, 35489, Note_on_c, 3, 48, 0
10, 35520, Note_on_c, 3, 36, 44
10, 35520, Note_on_c, 3, 48, 44
10, 35729, Note_on_c, 3, 36, 0
10, 35729, Note_on_c, 3, 48, 0
10, 35760, Note_on_c, 3, 53, 44
10, 35760, Note_on_c, 3, 41, 44
10, 35939, Note_on_c, 3, 53, 0
10, 35939, Note_on_c, 3, 41, 0
10, 36000, Note_on_c, 3, 55, 44
10, 36000, Note_on_c, 3, 43, 44
10, 36179, Note_on_c, 3, 55, 0
10, 36179, Note_on_c, 3, 43, 0
10, 36240, Note_on_c, 3, 57, 44
10, 36240, Note_on_c, 3, 45, 44
10, 36419, Note_on_c, 3, 57, 0
10, 36419, Note_on_c, 3, 45, 0
10, 36480, Note_on_c, 3, 43, 44
10, 36480, Note_on_c, 3, 55, 44
10, 36659, Note_on_c, 3, 43, 0
10, 36659, Note_on_c, 3, 55, 0
10, 36720, Note_on_c, 3, 45, 44
10, 36720, Note_on_c, 3, 57, 44
10, 36899, Note_on_c, 3, 45, 0
10, 36899, Note_on_c, 3, 57, 0
10, 36960, Note_on_c, 3, 58, 44
10, 36960, Note_on_c, 3, 46, 44
10, 37139, Note_on_c, 3, 58, 0
10, 37139, Note_on_c, 3, 46, 0
10, 37200, Note_on_c, 3, 57, 44
10, 37200, Note_on_c, 3, 45, 44
10, 37379, Note_on_c, 3, 57, 0
10, 37379, Note_on_c, 3, 45, 0
10, 37440, Note_on_c, 3, 55, 44
10, 37440, Note_on_c, 3, 43, 44
10, 37619, Note_on_c, 3, 55, 0
10, 37619, Note_on_c, 3, 43, 0
10, 37680, Note_on_c, 3, 53, 44
10, 37680, Note_on_c, 3, 41, 44
10, 37859, Note_on_c, 3, 53, 0
10, 37859, Note_on_c, 3, 41, 0
10, 43200, Note_on_c, 3, 62, 38
10, 43200, Note_on_c, 3, 46, 38
10, 43679, Note_on_c, 3, 62, 0
10, 43679, Note_on_c, 3, 46, 0
10, 43680, Note_on_c, 3, 51, 38
10, 43680, Note_on_c, 3, 60, 38
10, 44159, Note_on_c, 3, 51, 0
10, 44159, Note_on_c, 3, 60, 0
10, 44160, Note_on_c, 3, 50, 38
10, 44160, Note_on_c, 3, 58, 38
10, 44639, Note_on_c, 3, 50, 0
10, 44639, Note_on_c, 3, 58, 0
10, 44640, Note_on_c, 3, 45, 38
10, 44640, Note_on_c, 3, 53, 38
10, 44999, Note_on_c, 3, 53, 0
10, 45000, Note_on_c, 3, 51, 38
10, 45111, Note_on_c, 3, 45, 0
10, 45111, Note_on_c, 3, 51, 0
10, 45120, Note_on_c, 3, 46, 38
10, 45120, Note_on_c, 3, 50, 38
10, 45359, Note_on_c, 3, 46, 0
10, 45359, Note_on_c, 3, 50, 0
10, 52800, Note_on_c, 3, 56, 44
10, 53040, Note_on_c, 3, 59, 44
10, 53744, Note_on_c, 3, 56, 0
10, 53744, Note_on_c, 3, 59, 0
10, 53760, Note_on_c, 3, 61, 38
10, 53760, Note_on_c, 3, 57, 38
10, 53984, Note_on_c, 3, 61, 0
10, 53984, Note_on_c, 3, 57, 0
10, 54000, Note_on_c, 3, 52, 38
10, 54000, Note_on_c, 3, 61, 38
10, 54239, Note_on_c, 3, 52, 0
10, 54239, Note_on_c, 3, 61, 0
10, 54240, Note_on_c, 3, 54, 38
10, 54240, Note_on_c, 3, 62, 38
10, 54479, Note_on_c, 3, 54, 0
10, 54479, Note_on_c, 3, 62, 0
10, 54480, Note_on_c, 3, 55, 38
10, 54480, Note_on_c, 3, 64, 38
10, 54704, Note_on_c, 3, 55, 0
10, 54704, Note_on_c, 3, 64, 0
10, 54720, Note_on_c, 3, 55, 38
10, 54720, Note_on_c, 3, 64, 38
10, 54959, Note_on_c, 3, 55, 0
10, 54959, Note_on_c, 3, 64, 0
10, 54960, Note_on_c, 3, 54, 38
10, 54960, Note_on_c, 3, 62, 38
10, 55199, Note_on_c, 3, 54, 0
10, 55199, Note_on_c, 3, 62, 0
10, 55200, Note_on_c, 3, 52, 38
10, 55200, Note_on_c, 3, 61, 38
10, 55439, Note_on_c, 3, 52, 0
10, 55439, Note_on_c, 3, 61, 0
10, 55440, Note_on_c, 3, 50, 38
10, 55440, Note_on_c, 3, 59, 38
10, 55664, Note_on_c, 3, 50, 0
10, 55664, Note_on_c, 3, 59, 0
10, 55680, Note_on_c, 3, 52, 38
10, 55680, Note_on_c, 3, 49, 38
10, 55904, Note_on_c, 3, 52, 0
10, 55904, Note_on_c, 3, 49, 0
10, 55920, Note_on_c, 3, 52, 38
10, 55920, Note_on_c, 3, 49, 38
10, 56159, Note_on_c, 3, 52, 0
10, 56159, Note_on_c, 3, 49, 0
10, 56160, Note_on_c, 3, 54, 38
10, 56160, Note_on_c, 3, 50, 38
10, 56399, Note_on_c, 3, 54, 0
10, 56399, Note_on_c, 3, 50, 0
10, 56400, Note_on_c, 3, 55, 38
10, 56400, Note_on_c, 3, 52, 38
10, 56624, Note_on_c, 3, 55, 0
10, 56624, Note_on_c, 3, 52, 0
10, 56640, Note_on_c, 3, 55, 38
10, 56640, Note_on_c, 3, 52, 38
10, 56879, Note_on_c, 3, 55, 0
10, 56879, Note_on_c, 3, 52, 0
10, 56880, Note_on_c, 3, 54, 38
10, 56880, Note_on_c, 3, 50, 38
10, 57119, Note_on_c, 3, 54, 0
10, 57119, Note_on_c, 3, 50, 0
10, 57120, Note_on_c, 3, 64, 38
10, 57120, Note_on_c, 3, 55, 38
10, 57359, Note_on_c, 3, 64, 0
10, 57359, Note_on_c, 3, 55, 0
10, 57360, Note_on_c, 3, 62, 38
10, 57360, Note_on_c, 3, 54, 38
10, 57584, Note_on_c, 3, 62, 0
10, 57584, Note_on_c, 3, 54, 0
10, 57600, Note_on_c, 3, 61, 44
10, 57600, Note_on_c, 3, 52, 44
10, 57824, Note_on_c, 3, 61, 0
10, 57824, Note_on_c, 3, 52, 0
10, 57840, Note_on_c, 3, 64, 80
10, 57840, Note_on_c, 3, 52, 80
10, 58019, Note_on_c, 3, 64, 0
10, 58019, Note_on_c, 3, 52, 0
10, 58560, Note_on_c, 3, 61, 80
10, 58560, Note_on_c, 3, 49, 80
10, 58739, Note_on_c, 3, 61, 0
10, 58739, Note_on_c, 3, 49, 0
10, 59280, Note_on_c, 3, 43, 80
10, 59280, Note_on_c, 3, 55, 80
10, 59459, Note_on_c, 3, 43, 0
10, 59459, Note_on_c, 3, 55, 0
10, 60000, Note_on_c, 3, 42, 80
10, 60000, Note_on_c, 3, 54, 80
10, 60179, Note_on_c, 3, 42, 0
10, 60179, Note_on_c, 3, 54, 0
10, 62880, Note_on_c, 3, 55, 80
10, 62880, Note_on_c, 3, 43, 80
10, 63104, Note_on_c, 3, 55, 0
10, 63104, Note_on_c, 3, 43, 0
10, 63120, Note_on_c, 3, 67, 80
10, 63120, Note_on_c, 3, 55, 80
10, 63239, Note_on_c, 3, 67, 0
10, 63239, Note_on_c, 3, 55, 0
10, 64800, Note_on_c, 3, 57, 92
10, 64800, Note_on_c, 3, 45, 92
10, 65039, Note_on_c, 3, 57, 0
10, 65039, Note_on_c, 3, 45, 0
10, 65280, Note_on_c, 3, 50, 92
10, 65280, Note_on_c, 3, 38, 92
10, 65519, Note_on_c, 3, 50, 0
10, 65519, Note_on_c, 3, 38, 0
10, 89280, Note_on_c, 3, 66, 44
10, 89519, Note_on_c, 3, 66, 0
10, 89520, Note_on_c, 3, 62, 44
10, 89879, Note_on_c, 3, 62, 0
10, 89880, Note_on_c, 3, 64, 44
10, 89999, Note_on_c, 3, 64, 0
10, 90000, Note_on_c, 3, 66, 44
10, 90224, Note_on_c, 3, 66, 0
10, 90240, Note_on_c, 3, 59, 44
10, 90704, Note_on_c, 3, 59, 0
10, 90720, Note_on_c, 3, 57, 44
10, 90959, Note_on_c, 3, 57, 0
10, 90960, Note_on_c, 3, 55, 44
10, 91199, Note_on_c, 3, 55, 0
10, 91200, Note_on_c, 3, 54, 44
10, 91679, Note_on_c, 3, 54, 0
10, 91680, Note_on_c, 3, 57, 44
10, 91919, Note_on_c, 3, 57, 0
10, 91920, Note_on_c, 3, 62, 44
10, 92159, Note_on_c, 3, 62, 0
10, 92160, Note_on_c, 3, 61, 44
10, 92399, Note_on_c, 3, 61, 0
10, 92640, Note_on_c, 3, 62, 44
10, 93119, Note_on_c, 3, 62, 0
10, 93120, Note_on_c, 3, 64, 44
10, 93239, Note_on_c, 3, 64, 0
10, 93240, Note_on_c, 3, 66, 44
10, 93344, Note_on_c, 3, 66, 0
10, 93360, Note_on_c, 3, 62, 44
10, 93719, Note_on_c, 3, 62, 0
10, 93720, Note_on_c, 3, 64, 44
10, 93839, Note_on_c, 3, 64, 0
10, 93840, Note_on_c, 3, 66, 44
10, 94079, Note_on_c, 3, 66, 0
10, 94080, Note_on_c, 3, 59, 44
10, 94544, Note_on_c, 3, 59, 0
10, 94560, Note_on_c, 3, 57, 44
10, 94679, Note_on_c, 3, 57, 0
10, 94680, Note_on_c, 3, 55, 44
10, 94799, Note_on_c, 3, 55, 0
10, 94800, Note_on_c, 3, 54, 44
10, 94919, Note_on_c, 3, 54, 0
10, 94920, Note_on_c, 3, 64, 44
10, 95039, Note_on_c, 3, 64, 0
10, 95040, Note_on_c, 3, 62, 44
10, 95159, Note_on_c, 3, 62, 0
10, 95160, Note_on_c, 3, 61, 44
10, 95264, Note_on_c, 3, 61, 0
10, 95280, Note_on_c, 3, 59, 44
10, 95519, Note_on_c, 3, 59, 0
10, 95520, Note_on_c, 3, 61, 44
10, 95759, Note_on_c, 3, 61, 0
10, 95760, Note_on_c, 3, 62, 44
10, 95999, Note_on_c, 3, 62, 0
10, 96960, Control_c, 3, 11, 87
10, 97200, Note_on_c, 3, 57, 68
10, 97919, Note_on_c, 3, 57, 0
10, 97920, Note_on_c, 3, 55, 68
10, 98039, Note_on_c, 3, 55, 0
10, 98040, Note_on_c, 3, 57, 68
10, 98144, Note_on_c, 3, 57, 0
10, 98160, Note_on_c, 3, 59, 68
10, 98639, Note_on_c, 3, 59, 0
10, 98640, Note_on_c, 3, 61, 68
10, 99119, Note_on_c, 3, 61, 0
10, 99120, Note_on_c, 3, 62, 68
10, 99120, Control_c, 3, 11, 87
10, 99160, Control_c, 3, 11, 89
10, 99200, Control_c, 3, 11, 90
10, 99240, Control_c, 3, 11, 92
10, 99280, Control_c, 3, 11, 94
10, 99320, Control_c, 3, 11, 95
10, 99359, Note_on_c, 3, 62, 0
10, 99360, Control_c, 3, 11, 97
10, 99360, Note_on_c, 3, 64, 68
10, 99400, Control_c, 3, 11, 99
10, 99440, Control_c, 3, 11, 100
10, 99480, Control_c, 3, 11, 102
10, 99520, Control_c, 3, 11, 104
10, 99560, Control_c, 3, 11, 105
10, 99600, Control_c, 3, 11, 107
10, 99640, Control_c, 3, 11, 109
10, 99680, Control_c, 3, 11, 110
10, 99720, Control_c, 3, 11, 112
10, 99760, Control_c, 3, 11, 114
10, 99800, Control_c, 3, 11, 115
10, 99824, Note_on_c, 3, 64, 0
10, 99840, Note_on_c, 3, 62, 68
10, 99840, Control_c, 3, 11, 117
10, 99880, Control_c, 3, 11, 119
10, 99920, Control_c, 3, 11, 120
10, 99960, Control_c, 3, 11, 122
10, 100000, Control_c, 3, 11, 124
10, 100040, Control_c, 3, 11, 125
10, 100080, Control_c, 3, 11, 87
10, 100184, Note_on_c, 3, 62, 0
10, 100200, Note_on_c, 3, 57, 68
10, 100304, Note_on_c, 3, 57, 0
10, 100320, Note_on_c, 3, 62, 68
10, 100664, Note_on_c, 3, 62, 0
10, 100680, Note_on_c, 3, 64, 68
10, 100784, Note_on_c, 3, 64, 0
10, 100800, Note_on_c, 3, 66, 68
10, 101144, Note_on_c, 3, 66, 0
10, 101160, Note_on_c, 3, 62, 68
10, 101264, Note_on_c, 3, 62, 0
10, 101280, Note_on_c, 3, 64, 68
10, 101519, Note_on_c, 3, 64, 0
10, 101520, Note_on_c, 3, 66, 68
10, 101759, Note_on_c, 3, 66, 0
10, 101760, Note_on_c, 3, 59, 68
10, 102224, Note_on_c, 3, 59, 0
10, 102240, Note_on_c, 3, 57, 68
10, 102359, Note_on_c, 3, 57, 0
10, 102360, Note_on_c, 3, 55, 68
10, 102479, Note_on_c, 3, 55, 0
10, 102480, Note_on_c, 3, 54, 68
10, 102599, Note_on_c, 3, 54, 0
10, 102600, Note_on_c, 3, 64, 68
10, 102719, Note_on_c, 3, 64, 0
10, 102720, Note_on_c, 3, 62, 68
10, 102839, Note_on_c, 3, 62, 0
10, 102840, Note_on_c, 3, 61, 68
10, 102944, Note_on_c, 3, 61, 0
10, 102960, Note_on_c, 3, 59, 68
10, 103199, Note_on_c, 3, 59, 0
10, 103200, Note_on_c, 3, 61, 68
10, 103439, Note_on_c, 3, 61, 0
10, 103440, Note_on_c, 3, 62, 68
10, 103679, Note_on_c, 3, 62, 0
10, 104880, Note_on_c, 3, 57, 68
10, 105479, Note_on_c, 3, 57, 0
10, 105480, Note_on_c, 3, 54, 68
10, 105599, Note_on_c, 3, 54, 0
10, 105600, Note_on_c, 3, 55, 68
10, 105719, Note_on_c, 3, 55, 0
10, 105720, Note_on_c, 3, 57, 68
10, 105824, Note_on_c, 3, 57, 0
10, 105840, Note_on_c, 3, 59, 68
10, 106319, Note_on_c, 3, 59, 0
10, 106320, Note_on_c, 3, 61, 68
10, 106799, Note_on_c, 3, 61, 0
10, 106800, Control_c, 3, 11, 87
10, 106800, Note_on_c, 3, 62, 68
10, 106840, Control_c, 3, 11, 89
10, 106880, Control_c, 3, 11, 90
10, 106920, Control_c, 3, 11, 92
10, 106960, Control_c, 3, 11, 94
10, 107000, Control_c, 3, 11, 95
10, 107039, Note_on_c, 3, 62, 0
10, 107040, Note_on_c, 3, 64, 68
10, 107040, Control_c, 3, 11, 97
10, 107080, Control_c, 3, 11, 99
10, 107120, Control_c, 3, 11, 100
10, 107160, Control_c, 3, 11, 102
10, 107200, Control_c, 3, 11, 104
10, 107240, Control_c, 3, 11, 105
10, 107280, Control_c, 3, 11, 107
10, 107320, Control_c, 3, 11, 109
10, 107360, Control_c, 3, 11, 110
10, 107400, Control_c, 3, 11, 112
10, 107440, Control_c, 3, 11, 114
10, 107480, Control_c, 3, 11, 115
10, 107504, Note_on_c, 3, 64, 0
10, 107520, Note_on_c, 3, 62, 68
10, 107520, Control_c, 3, 11, 117
10, 107560, Control_c, 3, 11, 119
10, 107600, Control_c, 3, 11, 120
10, 107640, Control_c, 3, 11, 122
10, 107680, Control_c, 3, 11, 124
10, 107720, Control_c, 3, 11, 125
10, 107760, Control_c, 3, 11, 87
10, 107864, Note_on_c, 3, 62, 0
10, 107880, Note_on_c, 3, 57, 68
10, 107984, Note_on_c, 3, 57, 0
10, 108000, Note_on_c, 3, 62, 68
10, 108344, Note_on_c, 3, 62, 0
10, 108360, Note_on_c, 3, 64, 68
10, 108464, Note_on_c, 3, 64, 0
10, 108480, Note_on_c, 3, 66, 68
10, 108824, Note_on_c, 3, 66, 0
10, 108840, Note_on_c, 3, 62, 68
10, 108944, Note_on_c, 3, 62, 0
10, 108960, Note_on_c, 3, 64, 68
10, 109199, Note_on_c, 3, 64, 0
10, 109200, Note_on_c, 3, 66, 68
10, 109319, Note_on_c, 3, 66, 0
10, 109320, Note_on_c, 3, 57, 68
10, 109439, Note_on_c, 3, 57, 0
10, 109440, Note_on_c, 3, 59, 68
10, 109559, Note_on_c, 3, 59, 0
10, 109560, Note_on_c, 3, 61, 68
10, 109664, Note_on_c, 3, 61, 0
10, 109680, Note_on_c, 3, 62, 68
10, 109799, Note_on_c, 3, 62, 0
10, 109800, Note_on_c, 3, 59, 68
10, 109919, Note_on_c, 3, 59, 0
10, 109920, Note_on_c, 3, 57, 68
10, 110039, Note_on_c, 3, 57, 0
10, 110040, Note_on_c, 3, 55, 68
10, 110159, Note_on_c, 3, 55, 0
10, 110160, Note_on_c, 3, 54, 68
10, 110279, Note_on_c, 3, 54, 0
10, 110280, Note_on_c, 3, 52, 68
10, 110399, Note_on_c, 3, 52, 0
10, 110400, Note_on_c, 3, 50, 68
10, 110519, Note_on_c, 3, 50, 0
10, 110520, Note_on_c, 3, 49, 68
10, 110624, Note_on_c, 3, 49, 0
10, 110640, Note_on_c, 3, 47, 68
10, 110864, Note_on_c, 3, 47, 0
10, 110880, Note_on_c, 3, 59, 68
10, 110999, Note_on_c, 3, 59, 0
10, 111000, Note_on_c, 3, 61, 68
10, 111104, Note_on_c, 3, 61, 0
10, 111120, Note_on_c, 3, 62, 68
10, 111209, Note_on_c, 3, 62, 0
10, 111240, Note_on_c, 3, 57, 68
10, 111359, Note_on_c, 3, 57, 0
10, 111360, Note_on_c, 3, 59, 68
10, 111479, Note_on_c, 3, 59, 0
10, 111480, Note_on_c, 3, 61, 68
10, 111584, Note_on_c, 3, 61, 0
10, 111600, Note_on_c, 3, 62, 68
10, 111839, Note_on_c, 3, 62, 0
10, 113280, Control_c, 3, 11, 127
10, 113520, Note_on_c, 3, 62, 44
10, 113999, Note_on_c, 3, 62, 0
10, 114000, Note_on_c, 3, 64, 44
10, 114239, Note_on_c, 3, 64, 0
10, 114240, Note_on_c, 3, 66, 44
10, 114464, Note_on_c, 3, 66, 0
10, 114480, Note_on_c, 3, 66, 44
10, 114839, Note_on_c, 3, 66, 0
10, 114840, Note_on_c, 3, 64, 44
10, 114944, Note_on_c, 3, 64, 0
10, 114960, Note_on_c, 3, 64, 44
10, 115439, Note_on_c, 3, 64, 0
10, 117360, Note_on_c, 3, 62, 44
10, 117839, Note_on_c, 3, 62, 0
10, 117840, Note_on_c, 3, 64, 44
10, 118079, Note_on_c, 3, 64, 0
10, 118080, Note_on_c, 3, 66, 44
10, 118304, Note_on_c, 3, 66, 0
10, 118320, Note_on_c, 3, 64, 44
10, 118679, Note_on_c, 3, 64, 0
10, 118680, Note_on_c, 3, 62, 44
10, 118784, Note_on_c, 3, 62, 0
10, 118800, Note_on_c, 3, 62, 44
10, 119279, Note_on_c, 3, 62, 0
10, 120960, Control_c, 3, 11, 87
10, 121200, Note_on_c, 3, 64, 68
10, 121439, Note_on_c, 3, 64, 0
10, 121440, Note_on_c, 3, 66, 68
10, 121559, Note_on_c, 3, 66, 0
10, 121560, Note_on_c, 3, 67, 68
10, 121679, Note_on_c, 3, 67, 0
10, 121680, Note_on_c, 3, 66, 68
10, 121919, Note_on_c, 3, 66, 0
10, 121920, Note_on_c, 3, 64, 68
10, 122144, Note_on_c, 3, 64, 0
10, 122160, Note_on_c, 3, 62, 68
10, 122160, Control_c, 3, 11, 87
10, 122200, Control_c, 3, 11, 89
10, 122240, Control_c, 3, 11, 90
10, 122280, Control_c, 3, 11, 92
10, 122320, Control_c, 3, 11, 94
10, 122360, Control_c, 3, 11, 95
10, 122399, Note_on_c, 3, 62, 0
10, 122400, Note_on_c, 3, 64, 68
10, 122400, Control_c, 3, 11, 97
10, 122440, Control_c, 3, 11, 99
10, 122480, Control_c, 3, 11, 100
10, 122520, Control_c, 3, 11, 102
10, 122560, Control_c, 3, 11, 104
10, 122600, Control_c, 3, 11, 105
10, 122639, Note_on_c, 3, 64, 0
10, 122640, Note_on_c, 3, 57, 68
10, 122640, Control_c, 3, 11, 107
10, 122680, Control_c, 3, 11, 109
10, 122720, Control_c, 3, 11, 110
10, 122760, Control_c, 3, 11, 112
10, 122800, Control_c, 3, 11, 114
10, 122840, Control_c, 3, 11, 115
10, 122879, Note_on_c, 3, 57, 0
10, 122880, Control_c, 3, 11, 117
10, 122880, Note_on_c, 3, 66, 68
10, 122920, Control_c, 3, 11, 119
10, 122960, Control_c, 3, 11, 120
10, 123000, Control_c, 3, 11, 122
10, 123040, Control_c, 3, 11, 124
10, 123080, Control_c, 3, 11, 125
10, 123119, Note_on_c, 3, 66, 0
10, 123120, Control_c, 3, 11, 127
10, 125040, Note_on_c, 3, 62, 44
10, 125519, Note_on_c, 3, 62, 0
10, 125520, Note_on_c, 3, 64, 44
10, 125759, Note_on_c, 3, 64, 0
10, 125760, Note_on_c, 3, 66, 44
10, 125984, Note_on_c, 3, 66, 0
10, 126000, Note_on_c, 3, 64, 44
10, 126359, Note_on_c, 3, 64, 0
10, 126360, Note_on_c, 3, 62, 44
10, 126464, Note_on_c, 3, 62, 0
10, 126480, Note_on_c, 3, 62, 44
10, 126959, Note_on_c, 3, 62, 0
10, 128880, Note_on_c, 3, 64, 44
10, 129119, Note_on_c, 3, 64, 0
10, 129120, Note_on_c, 3, 66, 44
10, 129239, Note_on_c, 3, 66, 0
10, 129240, Note_on_c, 3, 67, 44
10, 129359, Note_on_c, 3, 67, 0
10, 129360, Note_on_c, 3, 66, 44
10, 129599, Note_on_c, 3, 66, 0
10, 129600, Note_on_c, 3, 64, 44
10, 129824, Note_on_c, 3, 64, 0
10, 129840, Note_on_c, 3, 62, 44
10, 130079, Note_on_c, 3, 62, 0
10, 130080, Note_on_c, 3, 64, 44
10, 130319, Note_on_c, 3, 64, 0
10, 130320, Note_on_c, 3, 57, 44
10, 130559, Note_on_c, 3, 57, 0
10, 130560, Note_on_c, 3, 66, 44
10, 130799, Note_on_c, 3, 66, 0
10, 132480, Control_c, 3, 11, 69
10, 132720, Control_c, 3, 11, 67
10, 132720, Note_on_c, 3, 62, 80
10, 132760, Control_c, 3, 11, 68
10, 132800, Control_c, 3, 11, 70
10, 132840, Control_c, 3, 11, 71
10, 132880, Control_c, 3, 11, 72
10, 132920, Control_c, 3, 11, 73
10, 132960, Control_c, 3, 11, 75
10, 133000, Control_c, 3, 11, 76
10, 133040, Control_c, 3, 11, 77
10, 133080, Control_c, 3, 11, 78
10, 133120, Control_c, 3, 11, 80
10, 133160, Control_c, 3, 11, 81
10, 133199, Note_on_c, 3, 62, 0
10, 133200, Note_on_c, 3, 64, 80
10, 133200, Control_c, 3, 11, 82
10, 133240, Control_c, 3, 11, 83
10, 133280, Control_c, 3, 11, 85
10, 133320, Control_c, 3, 11, 86
10, 133360, Control_c, 3, 11, 87
10, 133400, Control_c, 3, 11, 88
10, 133439, Note_on_c, 3, 64, 0
10, 133440, Note_on_c, 3, 66, 80
10, 133440, Control_c, 3, 11, 90
10, 133480, Control_c, 3, 11, 91
10, 133520, Control_c, 3, 11, 92
10, 133560, Control_c, 3, 11, 93
10, 133600, Control_c, 3, 11, 95
10, 133640, Control_c, 3, 11, 96
10, 133664, Note_on_c, 3, 66, 0
10, 133680, Note_on_c, 3, 64, 80
10, 133680, Control_c, 3, 11, 97
10, 133720, Control_c, 3, 11, 98
10, 133760, Control_c, 3, 11, 100
10, 133800, Control_c, 3, 11, 101
10, 133840, Control_c, 3, 11, 102
10, 133880, Control_c, 3, 11, 103
10, 133920, Control_c, 3, 11, 105
10, 133960, Control_c, 3, 11, 106
10, 134000, Control_c, 3, 11, 107
10, 134039, Note_on_c, 3, 64, 0
10, 134040, Control_c, 3, 11, 108
10, 134040, Note_on_c, 3, 62, 80
10, 134080, Control_c, 3, 11, 110
10, 134120, Control_c, 3, 11, 111
10, 134144, Note_on_c, 3, 62, 0
10, 134160, Control_c, 3, 11, 112
10, 134160, Note_on_c, 3, 62, 80
10, 134200, Control_c, 3, 11, 113
10, 134240, Control_c, 3, 11, 115
10, 134280, Control_c, 3, 11, 116
10, 134320, Control_c, 3, 11, 117
10, 134360, Control_c, 3, 11, 118
10, 134400, Control_c, 3, 11, 120
10, 134440, Control_c, 3, 11, 121
10, 134480, Control_c, 3, 11, 122
10, 134520, Control_c, 3, 11, 123
10, 134560, Control_c, 3, 11, 125
10, 134600, Control_c, 3, 11, 127
10, 134624, Note_on_c, 3, 62, 0
10, 134640, Note_on_c, 3, 50, 80
10, 134640, Note_on_c, 3, 54, 80
10, 135119, Note_on_c, 3, 50, 0
10, 135119, Note_on_c, 3, 54, 0
10, 135120, Note_on_c, 3, 55, 80
10, 135120, Note_on_c, 3, 52, 80
10, 135359, Note_on_c, 3, 55, 0
10, 135359, Note_on_c, 3, 52, 0
10, 135360, Note_on_c, 3, 54, 80
10, 135360, Note_on_c, 3, 57, 80
10, 135584, Note_on_c, 3, 54, 0
10, 135584, Note_on_c, 3, 57, 0
10, 135600, Note_on_c, 3, 57, 80
10, 135600, Note_on_c, 3, 54, 80
10, 135839, Note_on_c, 3, 57, 0
10, 135839, Note_on_c, 3, 54, 0
10, 135840, Note_on_c, 3, 52, 80
10, 135840, Note_on_c, 3, 55, 80
10, 136064, Note_on_c, 3, 52, 0
10, 136064, Note_on_c, 3, 55, 0
10, 136080, Note_on_c, 3, 54, 80
10, 136080, Note_on_c, 3, 50, 80
10, 136289, Note_on_c, 3, 54, 0
10, 136289, Note_on_c, 3, 50, 0
10, 136320, Note_on_c, 3, 45, 80
10, 136320, Note_on_c, 3, 52, 80
10, 136499, Note_on_c, 3, 45, 0
10, 136499, Note_on_c, 3, 52, 0
10, 136560, Note_on_c, 3, 50, 80
10, 136560, Note_on_c, 3, 54, 80
10, 136784, Note_on_c, 3, 50, 0
10, 136784, Note_on_c, 3, 54, 0
10, 136800, Note_on_c, 3, 50, 80
10, 136800, Note_on_c, 3, 54, 80
10, 137039, Note_on_c, 3, 50, 0
10, 137039, Note_on_c, 3, 54, 0
10, 137040, Note_on_c, 3, 49, 80
10, 137040, Note_on_c, 3, 52, 80
10, 137279, Note_on_c, 3, 49, 0
10, 137279, Note_on_c, 3, 52, 0
10, 137280, Note_on_c, 3, 54, 80
10, 137280, Note_on_c, 3, 50, 80
10, 137504, Note_on_c, 3, 54, 0
10, 137504, Note_on_c, 3, 50, 0
10, 137520, Note_on_c, 3, 50, 80
10, 137520, Note_on_c, 3, 54, 80
10, 137879, Note_on_c, 3, 50, 0
10, 137879, Note_on_c, 3, 54, 0
10, 137880, Note_on_c, 3, 45, 80
10, 137880, Note_on_c, 3, 52, 80
10, 137984, Note_on_c, 3, 45, 0
10, 137984, Note_on_c, 3, 52, 0
10, 138000, Note_on_c, 3, 45, 80
10, 138000, Note_on_c, 3, 52, 80
10, 138464, Note_on_c, 3, 45, 0
10, 138464, Note_on_c, 3, 52, 0
10, 138480, Note_on_c, 3, 54, 92
10, 138480, Note_on_c, 3, 50, 92
10, 138540, Control_c, 3, 11, 107
10, 138959, Note_on_c, 3, 54, 0
10, 138959, Note_on_c, 3, 50, 0
10, 138960, Note_on_c, 3, 52, 92
10, 138960, Note_on_c, 3, 55, 92
10, 139199, Note_on_c, 3, 52, 0
10, 139199, Note_on_c, 3, 55, 0
10, 139200, Note_on_c, 3, 57, 92
10, 139200, Note_on_c, 3, 54, 92
10, 139424, Note_on_c, 3, 57, 0
10, 139424, Note_on_c, 3, 54, 0
10, 139438, Control_c, 3, 11, 127
10, 139440, Note_on_c, 3, 57, 80
10, 139440, Note_on_c, 3, 54, 80
10, 139679, Note_on_c, 3, 57, 0
10, 139679, Note_on_c, 3, 54, 0
10, 139680, Note_on_c, 3, 55, 80
10, 139680, Note_on_c, 3, 52, 80
10, 139904, Note_on_c, 3, 55, 0
10, 139904, Note_on_c, 3, 52, 0
10, 139920, Note_on_c, 3, 54, 80
10, 139920, Note_on_c, 3, 50, 80
10, 140129, Note_on_c, 3, 54, 0
10, 140129, Note_on_c, 3, 50, 0
10, 140160, Note_on_c, 3, 45, 80
10, 140160, Note_on_c, 3, 52, 80
10, 140339, Note_on_c, 3, 45, 0
10, 140339, Note_on_c, 3, 52, 0
10, 140400, Note_on_c, 3, 50, 80
10, 140400, Note_on_c, 3, 54, 80
10, 140609, Note_on_c, 3, 50, 0
10, 140609, Note_on_c, 3, 54, 0
10, 140640, Note_on_c, 3, 54, 80
10, 140640, Note_on_c, 3, 50, 80
10, 140849, Note_on_c, 3, 54, 0
10, 140849, Note_on_c, 3, 50, 0
10, 140880, Note_on_c, 3, 49, 80
10, 140880, Note_on_c, 3, 52, 80
10, 141089, Note_on_c, 3, 49, 0
10, 141089, Note_on_c, 3, 52, 0
10, 141120, Note_on_c, 3, 50, 80
10, 141120, Note_on_c, 3, 54, 80
10, 141299, Note_on_c, 3, 50, 0
10, 141299, Note_on_c, 3, 54, 0
10, 141360, Note_on_c, 3, 49, 80
10, 141360, Note_on_c, 3, 52, 80
10, 141719, Note_on_c, 3, 49, 0
10, 141719, Note_on_c, 3, 52, 0
10, 141720, Note_on_c, 3, 54, 80
10, 141720, Note_on_c, 3, 50, 80
10, 141824, Note_on_c, 3, 54, 0
10, 141824, Note_on_c, 3, 50, 0
10, 141840, Note_on_c, 3, 50, 80
10, 141840, Note_on_c, 3, 54, 80
10, 142304, Note_on_c, 3, 50, 0
10, 142304, Note_on_c, 3, 54, 0
10, 142320, Note_on_c, 3, 49, 80
10, 142320, Note_on_c, 3, 52, 80
10, 142799, Note_on_c, 3, 49, 0
10, 142799, Note_on_c, 3, 52, 0
10, 142800, Note_on_c, 3, 50, 80
10, 142800, Note_on_c, 3, 54, 80
10, 143039, Note_on_c, 3, 50, 0
10, 143039, Note_on_c, 3, 54, 0
10, 143040, Note_on_c, 3, 50, 80
10, 143264, Note_on_c, 3, 50, 0
10, 143280, Note_on_c, 3, 49, 80
10, 143280, Note_on_c, 3, 52, 80
10, 143519, Note_on_c, 3, 49, 0
10, 143519, Note_on_c, 3, 52, 0
10, 143520, Note_on_c, 3, 50, 80
10, 143520, Note_on_c, 3, 54, 80
10, 143639, Note_on_c, 3, 50, 0
10, 143639, Note_on_c, 3, 54, 0
10, 143640, Note_on_c, 3, 52, 80
10, 143640, Note_on_c, 3, 55, 80
10, 143759, Note_on_c, 3, 52, 0
10, 143759, Note_on_c, 3, 55, 0
10, 143760, Note_on_c, 3, 54, 80
10, 143760, Note_on_c, 3, 50, 80
10, 143984, Note_on_c, 3, 54, 0
10, 143984, Note_on_c, 3, 50, 0
10, 144000, Note_on_c, 3, 50, 80
10, 144179, Note_on_c, 3, 50, 0
10, 144240, Note_on_c, 3, 52, 80
10, 144240, Note_on_c, 3, 49, 80
10, 144479, Note_on_c, 3, 52, 0
10, 144479, Note_on_c, 3, 49, 0
10, 144480, Note_on_c, 3, 50, 80
10, 144480, Note_on_c, 3, 54, 80
10, 144599, Note_on_c, 3, 50, 0
10, 144599, Note_on_c, 3, 54, 0
10, 144600, Note_on_c, 3, 55, 80
10, 144600, Note_on_c, 3, 52, 80
10, 144704, Note_on_c, 3, 55, 0
10, 144704, Note_on_c, 3, 52, 0
10, 144720, Note_on_c, 3, 61, 80
10, 144720, Note_on_c, 3, 66, 80
10, 144944, Note_on_c, 3, 61, 0
10, 144959, Note_on_c, 3, 66, 0
10, 144960, Note_on_c, 3, 64, 80
10, 144960, Note_on_c, 3, 61, 80
10, 145184, Note_on_c, 3, 64, 0
10, 145184, Note_on_c, 3, 61, 0
10, 145200, Note_on_c, 3, 62, 80
10, 145200, Note_on_c, 3, 59, 80
10, 145379, Note_on_c, 3, 62, 0
10, 145379, Note_on_c, 3, 59, 0
10, 145440, Note_on_c, 3, 56, 80
10, 145440, Note_on_c, 3, 64, 80
10, 145619, Note_on_c, 3, 56, 0
10, 145619, Note_on_c, 3, 64, 0
10, 145680, Note_on_c, 3, 57, 80
10, 145859, Note_on_c, 3, 57, 0
10, 145920, Note_on_c, 3, 66, 80
10, 145920, Note_on_c, 3, 62, 80
10, 146384, Note_on_c, 3, 66, 0
10, 146384, Note_on_c, 3, 62, 0
10, 146400, Note_on_c, 3, 50, 80
10, 146400, Note_on_c, 3, 54, 80
10, 146609, Note_on_c, 3, 50, 0
10, 146609, Note_on_c, 3, 54, 0
10, 146640, Note_on_c, 3, 52, 80
10, 146640, Note_on_c, 3, 55, 80
10, 146849, Note_on_c, 3, 52, 0
10, 146849, Note_on_c, 3, 55, 0
10, 146880, Note_on_c, 3, 57, 80
10, 146880, Note_on_c, 3, 54, 80
10, 147059, Note_on_c, 3, 57, 0
10, 147059, Note_on_c, 3, 54, 0
10, 147120, Note_on_c, 3, 54, 80
10, 147120, Note_on_c, 3, 57, 80
10, 147359, Note_on_c, 3, 54, 0
10, 147359, Note_on_c, 3, 57, 0
10, 147360, Note_on_c, 3, 55, 80
10, 147360, Note_on_c, 3, 52, 80
10, 147584, Note_on_c, 3, 55, 0
10, 147584, Note_on_c, 3, 52, 0
10, 147600, Note_on_c, 3, 50, 80
10, 147600, Note_on_c, 3, 54, 80
10, 147809, Note_on_c, 3, 50, 0
10, 147809, Note_on_c, 3, 54, 0
10, 147840, Note_on_c, 3, 49, 80
10, 147840, Note_on_c, 3, 52, 80
10, 148019, Note_on_c, 3, 49, 0
10, 148019, Note_on_c, 3, 52, 0
10, 148080, Note_on_c, 3, 54, 80
10, 148080, Note_on_c, 3, 50, 80
10, 148289, Note_on_c, 3, 54, 0
10, 148289, Note_on_c, 3, 50, 0
10, 148320, Note_on_c, 3, 54, 80
10, 148320, Note_on_c, 3, 50, 80
10, 148529, Note_on_c, 3, 54, 0
10, 148529, Note_on_c, 3, 50, 0
10, 148560, Note_on_c, 3, 49, 80
10, 148560, Note_on_c, 3, 52, 80
10, 148769, Note_on_c, 3, 49, 0
10, 148769, Note_on_c, 3, 52, 0
10, 148800, Note_on_c, 3, 54, 80
10, 148800, Note_on_c, 3, 50, 80
10, 148979, Note_on_c, 3, 54, 0
10, 148979, Note_on_c, 3, 50, 0
10, 149040, Note_on_c, 3, 49, 80
10, 149040, Note_on_c, 3, 52, 80
10, 149399, Note_on_c, 3, 49, 0
10, 149399, Note_on_c, 3, 52, 0
10, 149400, Note_on_c, 3, 54, 80
10, 149400, Note_on_c, 3, 50, 80
10, 149504, Note_on_c, 3, 54, 0
10, 149504, Note_on_c, 3, 50, 0
10, 149520, Note_on_c, 3, 54, 80
10, 149520, Note_on_c, 3, 50, 80
10, 149609, Note_on_c, 3, 54, 0
10, 149609, Note_on_c, 3, 50, 0
10, 149640, Note_on_c, 3, 57, 80
10, 149640, Note_on_c, 3, 54, 80
10, 149759, Note_on_c, 3, 57, 0
10, 149759, Note_on_c, 3, 54, 0
10, 149760, Note_on_c, 3, 52, 80
10, 149760, Note_on_c, 3, 55, 80
10, 149879, Note_on_c, 3, 52, 0
10, 149879, Note_on_c, 3, 55, 0
10, 149880, Note_on_c, 3, 50, 80
10, 149880, Note_on_c, 3, 54, 80
10, 149984, Note_on_c, 3, 50, 0
10, 149984, Note_on_c, 3, 54, 0
10, 150000, Note_on_c, 3, 49, 92
10, 150000, Note_on_c, 3, 52, 92
10, 150060, Control_c, 3, 11, 107
10, 150464, Note_on_c, 3, 49, 0
10, 150464, Note_on_c, 3, 52, 0
10, 150478, Control_c, 3, 11, 127
10, 150480, Note_on_c, 3, 54, 80
10, 150480, Note_on_c, 3, 50, 80
10, 150719, Note_on_c, 3, 54, 0
10, 150719, Note_on_c, 3, 50, 0
10, 150720, Note_on_c, 3, 54, 80
10, 150720, Note_on_c, 3, 50, 80
10, 150944, Note_on_c, 3, 54, 0
10, 150944, Note_on_c, 3, 50, 0
10, 150960, Note_on_c, 3, 52, 80
10, 150960, Note_on_c, 3, 49, 80
10, 151199, Note_on_c, 3, 52, 0
10, 151199, Note_on_c, 3, 49, 0
10, 151200, Note_on_c, 3, 50, 80
10, 151200, Note_on_c, 3, 54, 80
10, 151319, Note_on_c, 3, 50, 0
10, 151319, Note_on_c, 3, 54, 0
10, 151320, Note_on_c, 3, 52, 80
10, 151320, Note_on_c, 3, 55, 80
10, 151439, Note_on_c, 3, 52, 0
10, 151439, Note_on_c, 3, 55, 0
10, 151440, Note_on_c, 3, 50, 80
10, 151440, Note_on_c, 3, 54, 80
10, 151664, Note_on_c, 3, 50, 0
10, 151664, Note_on_c, 3, 54, 0
10, 151680, Note_on_c, 3, 50, 80
10, 151680, Note_on_c, 3, 54, 80
10, 151859, Note_on_c, 3, 50, 0
10, 151859, Note_on_c, 3, 54, 0
10, 151920, Note_on_c, 3, 52, 80
10, 151920, Note_on_c, 3, 49, 80
10, 152159, Note_on_c, 3, 52, 0
10, 152159, Note_on_c, 3, 49, 0
10, 152160, Note_on_c, 3, 50, 80
10, 152160, Note_on_c, 3, 54, 80
10, 152279, Note_on_c, 3, 50, 0
10, 152279, Note_on_c, 3, 54, 0
10, 152280, Note_on_c, 3, 52, 80
10, 152280, Note_on_c, 3, 55, 80
10, 152384, Note_on_c, 3, 52, 0
10, 152384, Note_on_c, 3, 55, 0
10, 152400, Note_on_c, 3, 61, 80
10, 152400, Note_on_c, 3, 66, 80
10, 152624, Note_on_c, 3, 61, 0
10, 152639, Note_on_c, 3, 66, 0
10, 152640, Note_on_c, 3, 64, 80
10, 152640, Note_on_c, 3, 61, 80
10, 152864, Note_on_c, 3, 64, 0
10, 152864, Note_on_c, 3, 61, 0
10, 152880, Note_on_c, 3, 62, 80
10, 152880, Note_on_c, 3, 59, 80
10, 153059, Note_on_c, 3, 62, 0
10, 153059, Note_on_c, 3, 59, 0
10, 153120, Note_on_c, 3, 56, 80
10, 153120, Note_on_c, 3, 64, 80
10, 153299, Note_on_c, 3, 56, 0
10, 153299, Note_on_c, 3, 64, 0
10, 153360, Note_on_c, 3, 57, 80
10, 153539, Note_on_c, 3, 57, 0
10, 153600, Note_on_c, 3, 62, 80
10, 153600, Note_on_c, 3, 66, 80
10, 154064, Note_on_c, 3, 62, 0
10, 154064, Note_on_c, 3, 66, 0
10, 154080, Note_on_c, 3, 50, 80
10, 154080, Note_on_c, 3, 54, 80
10, 154289, Note_on_c, 3, 50, 0
10, 154289, Note_on_c, 3, 54, 0
10, 154320, Note_on_c, 3, 52, 80
10, 154320, Note_on_c, 3, 55, 80
10, 154529, Note_on_c, 3, 52, 0
10, 154529, Note_on_c, 3, 55, 0
10, 154560, Note_on_c, 3, 54, 80
10, 154560, Note_on_c, 3, 57, 80
10, 154739, Note_on_c, 3, 54, 0
10, 154739, Note_on_c, 3, 57, 0
10, 154800, Note_on_c, 3, 57, 80
10, 154800, Note_on_c, 3, 54, 80
10, 155039, Note_on_c, 3, 57, 0
10, 155039, Note_on_c, 3, 54, 0
10, 155040, Note_on_c, 3, 52, 80
10, 155040, Note_on_c, 3, 55, 80
10, 155264, Note_on_c, 3, 52, 0
10, 155264, Note_on_c, 3, 55, 0
10, 155280, Note_on_c, 3, 50, 80
10, 155280, Note_on_c, 3, 54, 80
10, 155489, Note_on_c, 3, 50, 0
10, 155489, Note_on_c, 3, 54, 0
10, 155520, Note_on_c, 3, 49, 80
10, 155520, Note_on_c, 3, 52, 80
10, 155699, Note_on_c, 3, 49, 0
10, 155699, Note_on_c, 3, 52, 0
10, 155760, Note_on_c, 3, 50, 80
10, 155760, Note_on_c, 3, 54, 80
10, 155984, Note_on_c, 3, 50, 0
10, 155984, Note_on_c, 3, 54, 0
10, 156000, Note_on_c, 3, 54, 80
10, 156000, Note_on_c, 3, 50, 80
10, 156209, Note_on_c, 3, 54, 0
10, 156209, Note_on_c, 3, 50, 0
10, 156240, Note_on_c, 3, 49, 80
10, 156240, Note_on_c, 3, 52, 80
10, 156449, Note_on_c, 3, 49, 0
10, 156449, Note_on_c, 3, 52, 0
10, 156480, Note_on_c, 3, 54, 80
10, 156480, Note_on_c, 3, 50, 80
10, 156659, Note_on_c, 3, 54, 0
10, 156659, Note_on_c, 3, 50, 0
10, 156720, Note_on_c, 3, 52, 80
10, 156720, Note_on_c, 3, 49, 80
10, 157079, Note_on_c, 3, 52, 0
10, 157079, Note_on_c, 3, 49, 0
10, 157080, Note_on_c, 3, 54, 80
10, 157080, Note_on_c, 3, 50, 80
10, 157184, Note_on_c, 3, 54, 0
10, 157184, Note_on_c, 3, 50, 0
10, 157200, Note_on_c, 3, 54, 80
10, 157200, Note_on_c, 3, 50, 80
10, 157424, Note_on_c, 3, 54, 0
10, 157424, Note_on_c, 3, 50, 0
10, 157440, Note_on_c, 3, 57, 80
10, 157440, Note_on_c, 3, 54, 80
10, 157679, Note_on_c, 3, 57, 0
10, 157679, Note_on_c, 3, 54, 0
10, 157680, Note_on_c, 3, 55, 80
10, 157680, Note_on_c, 3, 52, 80
10, 158039, Note_on_c, 3, 55, 0
10, 158039, Note_on_c, 3, 52, 0
10, 158040, Note_on_c, 3, 54, 80
10, 158040, Note_on_c, 3, 50, 80
10, 158144, Note_on_c, 3, 54, 0
10, 158144, Note_on_c, 3, 50, 0
10, 158160, Note_on_c, 3, 50, 80
10, 158160, Note_on_c, 3, 54, 80
10, 158384, Note_on_c, 3, 50, 0
10, 158384, Note_on_c, 3, 54, 0
10, 158400, Note_on_c, 3, 59, 80
10, 158400, Note_on_c, 3, 62, 80
10, 158639, Note_on_c, 3, 59, 0
10, 158639, Note_on_c, 3, 62, 0
10, 158640, Note_on_c, 3, 57, 80
10, 158640, Note_on_c, 3, 60, 80
10, 158999, Note_on_c, 3, 57, 0
10, 158999, Note_on_c, 3, 60, 0
10, 159000, Note_on_c, 3, 55, 80
10, 159000, Note_on_c, 3, 59, 80
10, 159104, Note_on_c, 3, 55, 0
10, 159104, Note_on_c, 3, 59, 0
10, 159120, Note_on_c, 3, 59, 80
10, 159120, Note_on_c, 3, 55, 80
10, 159344, Note_on_c, 3, 59, 0
10, 159344, Note_on_c, 3, 55, 0
10, 159360, Note_on_c, 3, 59, 80
10, 159360, Note_on_c, 3, 67, 80
10, 159584, Note_on_c, 3, 59, 0
10, 159599, Note_on_c, 3, 67, 0
10, 159600, Note_on_c, 3, 66, 80
10, 159600, Note_on_c, 3, 59, 80
10, 159959, Note_on_c, 3, 66, 0
10, 159960, Note_on_c, 3, 64, 80
10, 160064, Note_on_c, 3, 59, 0
10, 160064, Note_on_c, 3, 64, 0
10, 160080, Note_on_c, 3, 61, 80
10, 160080, Note_on_c, 3, 64, 80
10, 160304, Note_on_c, 3, 61, 0
10, 160304, Note_on_c, 3, 64, 0
10, 160320, Note_on_c, 3, 64, 80
10, 160320, Note_on_c, 3, 55, 80
10, 160439, Note_on_c, 3, 64, 0
10, 160439, Note_on_c, 3, 55, 0
10, 160440, Note_on_c, 3, 66, 80
10, 160440, Note_on_c, 3, 57, 80
10, 160544, Note_on_c, 3, 66, 0
10, 160544, Note_on_c, 3, 57, 0
10, 160560, Note_on_c, 3, 64, 80
10, 160560, Note_on_c, 3, 55, 80
10, 160919, Note_on_c, 3, 64, 0
10, 160919, Note_on_c, 3, 55, 0
10, 160920, Note_on_c, 3, 62, 80
10, 160920, Note_on_c, 3, 54, 80
10, 161024, Note_on_c, 3, 62, 0
10, 161024, Note_on_c, 3, 54, 0
10, 161040, Note_on_c, 3, 54, 80
10, 161040, Note_on_c, 3, 62, 80
10, 161159, Note_on_c, 3, 54, 0
10, 161159, Note_on_c, 3, 62, 0
10, 161160, Note_on_c, 3, 57, 80
10, 161280, Note_on_c, 3, 69, 80
10, 161399, Note_on_c, 3, 57, 0
10, 161399, Note_on_c, 3, 69, 0
10, 161400, Note_on_c, 3, 66, 80
10, 161400, Note_on_c, 3, 62, 80
10, 161504, Note_on_c, 3, 66, 0
10, 161504, Note_on_c, 3, 62, 0
10, 161520, Note_on_c, 3, 66, 80
10, 161520, Note_on_c, 3, 59, 80
10, 161879, Note_on_c, 3, 66, 0
10, 161880, Note_on_c, 3, 64, 80
10, 161984, Note_on_c, 3, 59, 0
10, 161984, Note_on_c, 3, 64, 0
10, 162000, Note_on_c, 3, 64, 80
10, 162000, Note_on_c, 3, 61, 80
10, 162224, Note_on_c, 3, 64, 0
10, 162240, Note_on_c, 3, 64, 80
10, 162464, Note_on_c, 3, 64, 0
10, 162480, Note_on_c, 3, 67, 80
10, 162839, Note_on_c, 3, 67, 0
10, 162840, Note_on_c, 3, 66, 80
10, 162944, Note_on_c, 3, 61, 0
10, 162944, Note_on_c, 3, 66, 0
10, 162960, Note_on_c, 3, 62, 80
10, 162960, Note_on_c, 3, 66, 80
10, 163184, Note_on_c, 3, 66, 0
10, 163200, Note_on_c, 3, 66, 80
10, 163424, Note_on_c, 3, 62, 0
10, 163424, Note_on_c, 3, 66, 0
10, 163440, Note_on_c, 3, 54, 80
10, 163440, Note_on_c, 3, 57, 80
10, 163799, Note_on_c, 3, 57, 0
10, 163800, Note_on_c, 3, 56, 80
10, 163904, Note_on_c, 3, 54, 0
10, 163904, Note_on_c, 3, 56, 0
10, 163920, Note_on_c, 3, 56, 80
10, 163920, Note_on_c, 3, 53, 80
10, 164144, Note_on_c, 3, 56, 0
10, 164160, Note_on_c, 3, 56, 80
10, 164384, Note_on_c, 3, 53, 0
10, 164384, Note_on_c, 3, 56, 0
10, 164400, Note_on_c, 3, 55, 80
10, 164400, Note_on_c, 3, 59, 80
10, 164759, Note_on_c, 3, 59, 0
10, 164760, Note_on_c, 3, 58, 80
10, 164864, Note_on_c, 3, 55, 0
10, 164864, Note_on_c, 3, 58, 0
10, 164880, Note_on_c, 3, 54, 80
10, 164880, Note_on_c, 3, 61, 80
10, 165239, Note_on_c, 3, 61, 0
10, 165240, Note_on_c, 3, 59, 80
10, 165344, Note_on_c, 3, 54, 0
10, 165344, Note_on_c, 3, 59, 0
10, 165360, Note_on_c, 3, 62, 80
10, 165360, Note_on_c, 3, 56, 80
10, 165719, Note_on_c, 3, 62, 0
10, 165720, Note_on_c, 3, 61, 80
10, 165824, Note_on_c, 3, 56, 0
10, 165824, Note_on_c, 3, 61, 0
10, 165840, Note_on_c, 3, 64, 80
10, 165840, Note_on_c, 3, 57, 80
10, 166199, Note_on_c, 3, 64, 0
10, 166200, Note_on_c, 3, 62, 80
10, 166304, Note_on_c, 3, 57, 0
10, 166304, Note_on_c, 3, 62, 0
10, 166320, Note_on_c, 3, 66, 80
10, 166320, Note_on_c, 3, 59, 80
10, 166679, Note_on_c, 3, 66, 0
10, 166680, Note_on_c, 3, 64, 80
10, 166784, Note_on_c, 3, 59, 0
10, 166784, Note_on_c, 3, 64, 0
10, 166800, Note_on_c, 3, 64, 80
10, 166800, Note_on_c, 3, 59, 80
10, 167159, Note_on_c, 3, 64, 0
10, 167160, Note_on_c, 3, 62, 80
10, 167264, Note_on_c, 3, 59, 0
10, 167264, Note_on_c, 3, 62, 0
10, 167280, Note_on_c, 3, 66, 80
10, 167280, Note_on_c, 3, 59, 80
10, 167639, Note_on_c, 3, 66, 0
10, 167640, Note_on_c, 3, 64, 80
10, 167744, Note_on_c, 3, 59, 0
10, 167760, Note_on_c, 3, 59, 80
10, 167879, Note_on_c, 3, 64, 0
10, 167879, Note_on_c, 3, 59, 0
10, 167880, Note_on_c, 3, 62, 80
10, 167999, Note_on_c, 3, 62, 0
10, 168000, Note_on_c, 3, 59, 80
10, 168119, Note_on_c, 3, 59, 0
10, 168120, Note_on_c, 3, 64, 80
10, 168479, Note_on_c, 3, 64, 0
10, 168480, Note_on_c, 3, 61, 80
10, 168719, Note_on_c, 3, 61, 0
10, 168720, Note_on_c, 3, 57, 80
10, 168959, Note_on_c, 3, 57, 0
10, 168960, Note_on_c, 3, 66, 80
10, 169184, Note_on_c, 3, 66, 0
10, 169200, Note_on_c, 3, 64, 80
10, 169424, Note_on_c, 3, 64, 0
10, 169440, Note_on_c, 3, 57, 80
10, 169904, Note_on_c, 3, 57, 0
10, 169920, Note_on_c, 3, 56, 80
10, 170144, Note_on_c, 3, 56, 0
10, 170160, Note_on_c, 3, 57, 80
10, 170249, Note_on_c, 3, 57, 0
10, 170280, Note_on_c, 3, 57, 92
10, 170339, Note_on_c, 3, 57, 0
10, 170340, Note_on_c, 3, 59, 92
10, 170391, Note_on_c, 3, 59, 0
10, 170400, Note_on_c, 3, 61, 92
10, 170489, Note_on_c, 3, 61, 0
10, 170520, Note_on_c, 3, 61, 92
10, 170579, Note_on_c, 3, 61, 0
10, 170580, Note_on_c, 3, 62, 92
10, 170631, Note_on_c, 3, 62, 0
10, 170640, Note_on_c, 3, 64, 92
10, 170729, Note_on_c, 3, 64, 0
10, 170760, Note_on_c, 3, 64, 92
10, 170819, Note_on_c, 3, 64, 0
10, 170820, Note_on_c, 3, 66, 92
10, 170871, Note_on_c, 3, 66, 0
10, 170880, Note_on_c, 3, 68, 92
10, 170969, Note_on_c, 3, 68, 0
10, 171000, Note_on_c, 3, 52, 92
10, 171039, Note_on_c, 3, 52, 0
10, 171040, Note_on_c, 3, 54, 92
10, 171079, Note_on_c, 3, 54, 0
10, 171080, Note_on_c, 3, 56, 92
10, 171113, Note_on_c, 3, 56, 0
10, 171120, Note_on_c, 3, 57, 92
10, 171210, Control_c, 3, 11, 107
10, 171584, Note_on_c, 3, 57, 0
10, 171600, Note_on_c, 3, 52, 92
10, 171779, Note_on_c, 3, 52, 0
10, 171840, Note_on_c, 3, 52, 92
10, 172019, Note_on_c, 3, 52, 0
10, 172080, Control_c, 3, 11, 127
10, 174720, Note_on_c, 3, 44, 44
10, 174720, Note_on_c, 3, 56, 44
10, 174824, Note_on_c, 3, 44, 0
10, 174824, Note_on_c, 3, 56, 0
10, 174840, Note_on_c, 3, 56, 80
10, 174840, Note_on_c, 3, 64, 80
10, 174959, Note_on_c, 3, 56, 0
10, 174960, Note_on_c, 3, 57, 80
10, 175079, Note_on_c, 3, 64, 0
10, 175079, Note_on_c, 3, 57, 0
10, 175080, Note_on_c, 3, 61, 80
10, 175184, Note_on_c, 3, 61, 0
10, 175200, Note_on_c, 3, 57, 80
10, 175289, Note_on_c, 3, 57, 0
10, 175320, Note_on_c, 3, 57, 80
10, 175320, Note_on_c, 3, 59, 80
10, 175409, Note_on_c, 3, 57, 0
10, 175409, Note_on_c, 3, 59, 0
10, 175440, Note_on_c, 3, 57, 80
10, 175440, Note_on_c, 3, 61, 80
10, 175679, Note_on_c, 3, 57, 0
10, 175679, Note_on_c, 3, 61, 0
10, 175680, Note_on_c, 3, 56, 80
10, 175680, Note_on_c, 3, 59, 80
10, 175919, Note_on_c, 3, 56, 0
10, 175919, Note_on_c, 3, 59, 0
10, 176160, Note_on_c, 3, 59, 80
10, 176160, Note_on_c, 3, 62, 80
10, 176339, Note_on_c, 3, 59, 0
10, 176339, Note_on_c, 3, 62, 0
10, 176640, Note_on_c, 3, 61, 80
10, 176640, Note_on_c, 3, 57, 80
10, 176819, Note_on_c, 3, 61, 0
10, 176819, Note_on_c, 3, 57, 0
10, 177360, Note_on_c, 3, 58, 92
10, 177360, Note_on_c, 3, 41, 92
10, 177939, Note_on_c, 3, 58, 0
10, 177939, Note_on_c, 3, 41, 0
10, 177960, Note_on_c, 3, 57, 92
10, 177960, Note_on_c, 3, 45, 92
10, 178049, Note_on_c, 3, 57, 0
10, 178049, Note_on_c, 3, 45, 0
10, 178080, Note_on_c, 3, 57, 92
10, 178080, Note_on_c, 3, 45, 92
10, 178169, Note_on_c, 3, 57, 0
10, 178169, Note_on_c, 3, 45, 0
10, 178200, Note_on_c, 3, 50, 92
10, 178200, Note_on_c, 3, 62, 92
10, 178289, Note_on_c, 3, 50, 0
10, 178289, Note_on_c, 3, 62, 0
10, 178320, Note_on_c, 3, 50, 92
10, 178320, Note_on_c, 3, 62, 92
10, 178409, Note_on_c, 3, 50, 0
10, 178409, Note_on_c, 3, 62, 0
10, 178440, Note_on_c, 3, 65, 92
10, 178440, Note_on_c, 3, 53, 92
10, 178529, Note_on_c, 3, 65, 0
10, 178529, Note_on_c, 3, 53, 0
10, 178560, Note_on_c, 3, 65, 92
10, 178560, Note_on_c, 3, 53, 92
10, 178649, Note_on_c, 3, 65, 0
10, 178649, Note_on_c, 3, 53, 0
10, 178680, Note_on_c, 3, 69, 92
10, 178680, Note_on_c, 3, 57, 92
10, 178769, Note_on_c, 3, 69, 0
10, 178769, Note_on_c, 3, 57, 0
10, 178800, Note_on_c, 3, 57, 92
10, 178800, Note_on_c, 3, 69, 92
10, 178889, Note_on_c, 3, 57, 0
10, 178889, Note_on_c, 3, 69, 0
10, 178920, Note_on_c, 3, 62, 92
10, 178920, Note_on_c, 3, 50, 92
10, 179009, Note_on_c, 3, 62, 0
10, 179009, Note_on_c, 3, 50, 0
10, 179040, Note_on_c, 3, 62, 92
10, 179040, Note_on_c, 3, 50, 92
10, 179129, Note_on_c, 3, 62, 0
10, 179129, Note_on_c, 3, 50, 0
10, 179160, Note_on_c, 3, 53, 92
10, 179160, Note_on_c, 3, 65, 92
10, 179249, Note_on_c, 3, 53, 0
10, 179249, Note_on_c, 3, 65, 0
10, 179280, Note_on_c, 3, 65, 92
10, 179280, Note_on_c, 3, 53, 92
10, 179369, Note_on_c, 3, 65, 0
10, 179369, Note_on_c, 3, 53, 0
10, 179400, Note_on_c, 3, 45, 92
10, 179400, Note_on_c, 3, 57, 92
10, 179489, Note_on_c, 3, 45, 0
10, 179489, Note_on_c, 3, 57, 0
10, 179520, Note_on_c, 3, 57, 92
10, 179520, Note_on_c, 3, 45, 92
10, 179609, Note_on_c, 3, 57, 0
10, 179609, Note_on_c, 3, 45, 0
10, 179640, Note_on_c, 3, 62, 92
10, 179640, Note_on_c, 3, 50, 92
10, 179729, Note_on_c, 3, 62, 0
10, 179729, Note_on_c, 3, 50, 0
10, 179760, Note_on_c, 3, 50, 92
10, 179760, Note_on_c, 3, 62, 92
10, 179849, Note_on_c, 3, 50, 0
10, 179849, Note_on_c, 3, 62, 0
10, 179880, Note_on_c, 3, 41, 92
10, 179880, Note_on_c, 3, 53, 92
10, 179969, Note_on_c, 3, 41, 0
10, 179969, Note_on_c, 3, 53, 0
10, 180000, Note_on_c, 3, 41, 92
10, 180000, Note_on_c, 3, 53, 92
10, 180089, Note_on_c, 3, 41, 0
10, 180089, Note_on_c, 3, 53, 0
10, 180120, Note_on_c, 3, 45, 92
10, 180120, Note_on_c, 3, 57, 92
10, 180209, Note_on_c, 3, 45, 0
10, 180209, Note_on_c, 3, 57, 0
10, 180240, Note_on_c, 3, 45, 92
10, 180240, Note_on_c, 3, 57, 92
10, 180329, Note_on_c, 3, 45, 0
10, 180329, Note_on_c, 3, 57, 0
10, 180360, Note_on_c, 3, 50, 92
10, 180360, Note_on_c, 3, 38, 92
10, 180449, Note_on_c, 3, 50, 0
10, 180449, Note_on_c, 3, 38, 0
10, 180480, Note_on_c, 3, 38, 92
10, 180480, Note_on_c, 3, 50, 92
10, 180569, Note_on_c, 3, 38, 0
10, 180569, Note_on_c, 3, 50, 0
10, 180600, Note_on_c, 3, 50, 92
10, 180600, Note_on_c, 3, 53, 92
10, 180689, Note_on_c, 3, 50, 0
10, 180689, Note_on_c, 3, 53, 0
10, 180720, Note_on_c, 3, 50, 92
10, 180720, Note_on_c, 3, 53, 92
10, 180809, Note_on_c, 3, 50, 0
10, 180809, Note_on_c, 3, 53, 0
10, 180840, Note_on_c, 3, 54, 92
10, 180840, Note_on_c, 3, 48, 92
10, 180929, Note_on_c, 3, 54, 0
10, 180929, Note_on_c, 3, 48, 0
10, 180960, Note_on_c, 3, 54, 92
10, 180960, Note_on_c, 3, 48, 92
10, 181049, Note_on_c, 3, 54, 0
10, 181049, Note_on_c, 3, 48, 0
10, 181080, Note_on_c, 3, 47, 92
10, 181080, Note_on_c, 3, 55, 92
10, 181169, Note_on_c, 3, 47, 0
10, 181169, Note_on_c, 3, 55, 0
10, 181200, Note_on_c, 3, 47, 92
10, 181200, Note_on_c, 3, 59, 92
10, 181289, Note_on_c, 3, 47, 0
10, 181289, Note_on_c, 3, 59, 0
10, 181320, Note_on_c, 3, 46, 92
10, 181320, Note_on_c, 3, 58, 92
10, 181409, Note_on_c, 3, 46, 0
10, 181409, Note_on_c, 3, 58, 0
10, 181440, Note_on_c, 3, 46, 92
10, 181440, Note_on_c, 3, 58, 92
10, 181529, Note_on_c, 3, 46, 0
10, 181529, Note_on_c, 3, 58, 0
10, 181560, Note_on_c, 3, 62, 92
10, 181560, Note_on_c, 3, 34, 92
10, 181649, Note_on_c, 3, 62, 0
10, 181649, Note_on_c, 3, 34, 0
10, 181680, Note_on_c, 3, 62, 92
10, 181680, Note_on_c, 3, 34, 92
10, 181769, Note_on_c, 3, 62, 0
10, 181769, Note_on_c, 3, 34, 0
10, 181800, Note_on_c, 3, 65, 92
10, 181800, Note_on_c, 3, 34, 92
10, 181889, Note_on_c, 3, 65, 0
10, 181889, Note_on_c, 3, 34, 0
10, 181920, Note_on_c, 3, 46, 92
10, 181920, Note_on_c, 3, 53, 92
10, 182099, Note_on_c, 3, 46, 0
10, 182099, Note_on_c, 3, 53, 0
10, 182160, Note_on_c, 3, 57, 92
10, 182160, Note_on_c, 3, 45, 92
10, 182339, Note_on_c, 3, 57, 0
10, 182339, Note_on_c, 3, 45, 0
10, 192480, Note_on_c, 3, 64, 80
10, 192480, Note_on_c, 3, 61, 80
10, 192659, Note_on_c, 3, 64, 0
10, 192659, Note_on_c, 3, 61, 0
10, 192720, Note_on_c, 3, 42, 80
10, 192720, Note_on_c, 3, 54, 80
10, 192824, Note_on_c, 3, 42, 0
10, 192824, Note_on_c, 3, 54, 0
10, 192840, Note_on_c, 3, 54, 80
10, 192840, Note_on_c, 3, 42, 80
10, 192944, Note_on_c, 3, 54, 0
10, 192944, Note_on_c, 3, 42, 0
10, 192960, Note_on_c, 3, 54, 80
10, 192960, Note_on_c, 3, 66, 80
10, 193199, Note_on_c, 3, 54, 0
10, 193199, Note_on_c, 3, 66, 0
10, 195840, Note_on_c, 3, 55, 44
10, 195959, Note_on_c, 3, 55, 0
10, 196080, Note_on_c, 3, 67, 80
10, 196199, Note_on_c, 3, 67, 0
10, 197520, Note_on_c, 3, 52, 80
10, 197520, Note_on_c, 3, 61, 80
10, 197699, Note_on_c, 3, 52, 0
10, 197699, Note_on_c, 3, 61, 0
10, 197760, Note_on_c, 3, 61, 38
10, 197760, Note_on_c, 3, 52, 38
10, 197984, Note_on_c, 3, 61, 0
10, 197984, Note_on_c, 3, 52, 0
10, 198000, Note_on_c, 3, 61, 38
10, 198000, Note_on_c, 3, 52, 38
10, 198239, Note_on_c, 3, 61, 0
10, 198239, Note_on_c, 3, 52, 0
10, 198240, Note_on_c, 3, 54, 38
10, 198240, Note_on_c, 3, 62, 38
10, 198479, Note_on_c, 3, 54, 0
10, 198479, Note_on_c, 3, 62, 0
10, 198480, Note_on_c, 3, 55, 38
10, 198480, Note_on_c, 3, 64, 38
10, 198704, Note_on_c, 3, 55, 0
10, 198704, Note_on_c, 3, 64, 0
10, 198720, Note_on_c, 3, 64, 38
10, 198720, Note_on_c, 3, 55, 38
10, 198959, Note_on_c, 3, 64, 0
10, 198959, Note_on_c, 3, 55, 0
10, 198960, Note_on_c, 3, 62, 38
10, 198960, Note_on_c, 3, 54, 38
10, 199199, Note_on_c, 3, 62, 0
10, 199199, Note_on_c, 3, 54, 0
10, 199200, Note_on_c, 3, 61, 38
10, 199200, Note_on_c, 3, 52, 38
10, 199439, Note_on_c, 3, 61, 0
10, 199439, Note_on_c, 3, 52, 0
10, 199440, Note_on_c, 3, 50, 38
10, 199440, Note_on_c, 3, 59, 38
10, 199664, Note_on_c, 3, 50, 0
10, 199664, Note_on_c, 3, 59, 0
10, 199680, Note_on_c, 3, 64, 38
10, 199680, Note_on_c, 3, 61, 38
10, 199904, Note_on_c, 3, 64, 0
10, 199904, Note_on_c, 3, 61, 0
10, 199920, Note_on_c, 3, 64, 38
10, 199920, Note_on_c, 3, 61, 38
10, 200159, Note_on_c, 3, 64, 0
10, 200159, Note_on_c, 3, 61, 0
10, 200160, Note_on_c, 3, 62, 38
10, 200160, Note_on_c, 3, 66, 38
10, 200399, Note_on_c, 3, 62, 0
10, 200399, Note_on_c, 3, 66, 0
10, 200400, Note_on_c, 3, 67, 38
10, 200400, Note_on_c, 3, 64, 38
10, 200624, Note_on_c, 3, 67, 0
10, 200624, Note_on_c, 3, 64, 0
10, 200640, Note_on_c, 3, 64, 38
10, 200640, Note_on_c, 3, 67, 38
10, 200879, Note_on_c, 3, 64, 0
10, 200879, Note_on_c, 3, 67, 0
10, 200880, Note_on_c, 3, 66, 38
10, 200880, Note_on_c, 3, 62, 38
10, 201119, Note_on_c, 3, 66, 0
10, 201119, Note_on_c, 3, 62, 0
10, 201120, Note_on_c, 3, 55, 38
10, 201120, Note_on_c, 3, 64, 38
10, 201359, Note_on_c, 3, 55, 0
10, 201359, Note_on_c, 3, 64, 0
10, 201360, Note_on_c, 3, 54, 38
10, 201360, Note_on_c, 3, 62, 38
10, 201599, Note_on_c, 3, 54, 0
10, 201599, Note_on_c, 3, 62, 0
10, 216600, Note_on_c, 3, 50, 53
10, 216719, Note_on_c, 3, 50, 0
10, 216720, Note_on_c, 3, 52, 62
10, 216839, Note_on_c, 3, 52, 0
10, 216840, Note_on_c, 3, 54, 71
10, 216944, Note_on_c, 3, 54, 0
10, 216960, Note_on_c, 3, 52, 80
10, 217049, Note_on_c, 3, 52, 0
10, 217080, Note_on_c, 3, 57, 80
10, 217169, Note_on_c, 3, 57, 0
10, 217200, Note_on_c, 3, 52, 80
10, 217289, Note_on_c, 3, 52, 0
10, 217320, Note_on_c, 3, 57, 80
10, 217409, Note_on_c, 3, 57, 0
10, 217440, Note_on_c, 3, 54, 80
10, 217529, Note_on_c, 3, 54, 0
10, 217560, Note_on_c, 3, 57, 80
10, 217649, Note_on_c, 3, 57, 0
10, 217680, Note_on_c, 3, 50, 80
10, 217769, Note_on_c, 3, 50, 0
10, 217800, Note_on_c, 3, 57, 80
10, 217889, Note_on_c, 3, 57, 0
10, 217920, Note_on_c, 3, 52, 80
10, 218009, Note_on_c, 3, 52, 0
10, 218040, Note_on_c, 3, 57, 80
10, 218129, Note_on_c, 3, 57, 0
10, 218160, Note_on_c, 3, 54, 80
10, 218249, Note_on_c, 3, 54, 0
10, 218280, Note_on_c, 3, 55, 80
10, 218369, Note_on_c, 3, 55, 0
10, 218400, Note_on_c, 3, 54, 80
10, 218489, Note_on_c, 3, 54, 0
10, 218520, Note_on_c, 3, 57, 80
10, 218609, Note_on_c, 3, 57, 0
10, 218640, Note_on_c, 3, 50, 80
10, 218729, Note_on_c, 3, 50, 0
10, 218760, Note_on_c, 3, 57, 80
10, 218849, Note_on_c, 3, 57, 0
10, 218880, Note_on_c, 3, 52, 80
10, 218969, Note_on_c, 3, 52, 0
10, 219000, Note_on_c, 3, 57, 80
10, 219089, Note_on_c, 3, 57, 0
10, 219120, Note_on_c, 3, 54, 80
10, 219209, Note_on_c, 3, 54, 0
10, 219240, Note_on_c, 3, 55, 80
10, 219329, Note_on_c, 3, 55, 0
10, 219360, Note_on_c, 3, 54, 80
10, 219449, Note_on_c, 3, 54, 0
10, 219480, Note_on_c, 3, 57, 80
10, 219569, Note_on_c, 3, 57, 0
10, 219600, Note_on_c, 3, 52, 80
10, 219689, Note_on_c, 3, 52, 0
10, 219720, Note_on_c, 3, 57, 80
10, 219809, Note_on_c, 3, 57, 0
10, 219840, Note_on_c, 3, 50, 80
10, 219929, Note_on_c, 3, 50, 0
10, 219960, Note_on_c, 3, 57, 80
10, 220049, Note_on_c, 3, 57, 0
10, 220080, Note_on_c, 3, 52, 80
10, 220169, Note_on_c, 3, 52, 0
10, 220200, Note_on_c, 3, 57, 80
10, 220289, Note_on_c, 3, 57, 0
10, 220320, Note_on_c, 3, 45, 80
10, 220409, Note_on_c, 3, 45, 0
10, 220440, Note_on_c, 3, 57, 80
10, 220529, Note_on_c, 3, 57, 0
10, 220560, Note_on_c, 3, 54, 80
10, 220649, Note_on_c, 3, 54, 0
10, 220680, Note_on_c, 3, 57, 80
10, 220769, Note_on_c, 3, 57, 0
10, 220800, Note_on_c, 3, 42, 80
10, 220889, Note_on_c, 3, 42, 0
10, 220920, Note_on_c, 3, 54, 80
10, 221009, Note_on_c, 3, 54, 0
10, 221040, Note_on_c, 3, 42, 80
10, 221129, Note_on_c, 3, 42, 0
10, 221160, Note_on_c, 3, 54, 80
10, 221249, Note_on_c, 3, 54, 0
10, 221280, Note_on_c, 3, 43, 80
10, 221369, Note_on_c, 3, 43, 0
10, 221400, Note_on_c, 3, 55, 80
10, 221489, Note_on_c, 3, 55, 0
10, 221520, Note_on_c, 3, 45, 80
10, 221609, Note_on_c, 3, 45, 0
10, 221640, Note_on_c, 3, 57, 80
10, 221729, Note_on_c, 3, 57, 0
10, 221760, Note_on_c, 3, 45, 80
10, 221849, Note_on_c, 3, 45, 0
10, 221880, Note_on_c, 3, 57, 80
10, 221969, Note_on_c, 3, 57, 0
10, 222000, Note_on_c, 3, 43, 80
10, 222089, Note_on_c, 3, 43, 0
10, 222120, Note_on_c, 3, 55, 80
10, 222209, Note_on_c, 3, 55, 0
10, 222240, Note_on_c, 3, 42, 80
10, 222329, Note_on_c, 3, 42, 0
10, 222360, Note_on_c, 3, 54, 80
10, 222449, Note_on_c, 3, 54, 0
10, 222480, Note_on_c, 3, 55, 80
10, 222569, Note_on_c, 3, 55, 0
10, 222600, Note_on_c, 3, 52, 80
10, 222689, Note_on_c, 3, 52, 0
10, 222720, Note_on_c, 3, 38, 80
10, 222809, Note_on_c, 3, 38, 0
10, 222840, Note_on_c, 3, 50, 80
10, 222929, Note_on_c, 3, 50, 0
10, 222960, Note_on_c, 3, 38, 80
10, 223049, Note_on_c, 3, 38, 0
10, 223080, Note_on_c, 3, 50, 80
10, 223169, Note_on_c, 3, 50, 0
10, 223200, Note_on_c, 3, 40, 80
10, 223289, Note_on_c, 3, 40, 0
10, 223320, Note_on_c, 3, 52, 80
10, 223409, Note_on_c, 3, 52, 0
10, 223440, Note_on_c, 3, 42, 80
10, 223529, Note_on_c, 3, 42, 0
10, 223560, Note_on_c, 3, 54, 80
10, 223649, Note_on_c, 3, 54, 0
10, 223680, Note_on_c, 3, 40, 80
10, 223769, Note_on_c, 3, 40, 0
10, 223800, Note_on_c, 3, 52, 80
10, 223889, Note_on_c, 3, 52, 0
10, 223920, Note_on_c, 3, 40, 80
10, 224009, Note_on_c, 3, 40, 0
10, 224040, Note_on_c, 3, 50, 80
10, 224129, Note_on_c, 3, 50, 0
10, 224160, Note_on_c, 3, 38, 80
10, 224249, Note_on_c, 3, 38, 0
10, 224280, Note_on_c, 3, 50, 80
10, 224369, Note_on_c, 3, 50, 0
10, 224400, Note_on_c, 3, 45, 80
10, 224489, Note_on_c, 3, 45, 0
10, 224520, Note_on_c, 3, 57, 80
10, 224609, Note_on_c, 3, 57, 0
10, 224640, Note_on_c, 3, 43, 80
10, 224729, Note_on_c, 3, 43, 0
10, 224760, Note_on_c, 3, 55, 80
10, 224849, Note_on_c, 3, 55, 0
10, 224880, Note_on_c, 3, 42, 80
10, 224969, Note_on_c, 3, 42, 0
10, 225000, Note_on_c, 3, 54, 80
10, 225089, Note_on_c, 3, 54, 0
10, 225120, Note_on_c, 3, 42, 80
10, 225209, Note_on_c, 3, 42, 0
10, 225240, Note_on_c, 3, 54, 80
10, 225329, Note_on_c, 3, 54, 0
10, 225360, Note_on_c, 3, 50, 80
10, 225449, Note_on_c, 3, 50, 0
10, 225480, Note_on_c, 3, 62, 80
10, 225569, Note_on_c, 3, 62, 0
10, 225600, Note_on_c, 3, 48, 80
10, 225689, Note_on_c, 3, 48, 0
10, 225720, Note_on_c, 3, 60, 80
10, 225809, Note_on_c, 3, 60, 0
10, 225840, Note_on_c, 3, 48, 80
10, 225929, Note_on_c, 3, 48, 0
10, 225960, Note_on_c, 3, 47, 80
10, 226049, Note_on_c, 3, 47, 0
10, 226080, Note_on_c, 3, 47, 80
10, 226184, Note_on_c, 3, 47, 0
10, 226200, Note_on_c, 3, 59, 80
10, 226319, Note_on_c, 3, 59, 0
10, 226320, Note_on_c, 3, 55, 80
10, 226320, Note_on_c, 3, 67, 80
10, 226439, Note_on_c, 3, 55, 0
10, 226439, Note_on_c, 3, 67, 0
10, 226440, Note_on_c, 3, 64, 80
10, 226440, Note_on_c, 3, 52, 80
10, 226559, Note_on_c, 3, 64, 0
10, 226559, Note_on_c, 3, 52, 0
10, 226560, Note_on_c, 3, 50, 80
10, 226560, Note_on_c, 3, 62, 80
10, 226679, Note_on_c, 3, 50, 0
10, 226679, Note_on_c, 3, 62, 0
10, 226680, Note_on_c, 3, 61, 80
10, 226680, Note_on_c, 3, 49, 80
10, 226799, Note_on_c, 3, 61, 0
10, 226799, Note_on_c, 3, 49, 0
10, 226800, Note_on_c, 3, 52, 80
10, 226800, Note_on_c, 3, 64, 80
10, 226919, Note_on_c, 3, 52, 0
10, 226919, Note_on_c, 3, 64, 0
10, 226920, Note_on_c, 3, 61, 80
10, 226920, Note_on_c, 3, 49, 80
10, 227039, Note_on_c, 3, 61, 0
10, 227039, Note_on_c, 3, 49, 0
10, 227040, Note_on_c, 3, 47, 80
10, 227040, Note_on_c, 3, 59, 80
10, 227159, Note_on_c, 3, 47, 0
10, 227159, Note_on_c, 3, 59, 0
10, 227160, Note_on_c, 3, 57, 80
10, 227160, Note_on_c, 3, 45, 80
10, 227279, Note_on_c, 3, 57, 0
10, 227279, Note_on_c, 3, 45, 0
10, 227280, Note_on_c, 3, 47, 80
10, 227280, Note_on_c, 3, 59, 80
10, 227399, Note_on_c, 3, 47, 0
10, 227399, Note_on_c, 3, 59, 0
10, 227400, Note_on_c, 3, 61, 80
10, 227400, Note_on_c, 3, 49, 80
10, 227519, Note_on_c, 3, 61, 0
10, 227519, Note_on_c, 3, 49, 0
10, 227520, Note_on_c, 3, 62, 80
10, 227520, Note_on_c, 3, 50, 80
10, 227639, Note_on_c, 3, 62, 0
10, 227639, Note_on_c, 3, 50, 0
10, 227640, Note_on_c, 3, 66, 80
10, 227640, Note_on_c, 3, 54, 80
10, 227759, Note_on_c, 3, 66, 0
10, 227759, Note_on_c, 3, 54, 0
10, 227760, Note_on_c, 3, 52, 80
10, 227760, Note_on_c, 3, 64, 80
10, 227879, Note_on_c, 3, 52, 0
10, 227879, Note_on_c, 3, 64, 0
10, 227880, Note_on_c, 3, 49, 80
10, 227880, Note_on_c, 3, 61, 80
10, 227984, Note_on_c, 3, 49, 0
10, 227984, Note_on_c, 3, 61, 0
10, 228000, Note_on_c, 3, 62, 80
10, 228000, Note_on_c, 3, 50, 80
10, 228239, Note_on_c, 3, 62, 0
10, 228239, Note_on_c, 3, 50, 0
10, 230400, Note_on_c, 3, 62, 38
10, 231119, Note_on_c, 3, 62, 0
10, 231120, Note_on_c, 3, 61, 38
10, 231239, Note_on_c, 3, 61, 0
10, 231240, Note_on_c, 3, 59, 38
10, 231359, Note_on_c, 3, 59, 0
10, 231360, Note_on_c, 3, 57, 38
10, 231479, Note_on_c, 3, 57, 0
10, 231480, Note_on_c, 3, 62, 38
10, 231599, Note_on_c, 3, 62, 0
10, 231600, Note_on_c, 3, 66, 38
10, 231719, Note_on_c, 3, 66, 0
10, 231720, Note_on_c, 3, 64, 38
10, 231824, Note_on_c, 3, 64, 0
10, 231840, Note_on_c, 3, 64, 38
10, 231959, Note_on_c, 3, 64, 0
10, 231960, Note_on_c, 3, 69, 38
10, 232079, Note_on_c, 3, 69, 0
10, 232080, Note_on_c, 3, 67, 38
10, 232199, Note_on_c, 3, 67, 0
10, 232200, Note_on_c, 3, 64, 38
10, 232304, Note_on_c, 3, 64, 0
10, 232320, Note_on_c, 3, 62, 38
10, 232559, Note_on_c, 3, 62, 0
10, 234240, Note_on_c, 3, 62, 38
10, 234959, Note_on_c, 3, 62, 0
10, 234960, Note_on_c, 3, 61, 38
10, 235079, Note_on_c, 3, 61, 0
10, 235080, Note_on_c, 3, 59, 38
10, 235199, Note_on_c, 3, 59, 0
10, 235200, Note_on_c, 3, 61, 38
10, 235319, Note_on_c, 3, 61, 0
10, 235320, Note_on_c, 3, 64, 38
10, 235439, Note_on_c, 3, 64, 0
10, 235440, Note_on_c, 3, 67, 38
10, 235559, Note_on_c, 3, 67, 0
10, 235560, Note_on_c, 3, 66, 38
10, 235664, Note_on_c, 3, 66, 0
10, 235680, Note_on_c, 3, 66, 38
10, 235799, Note_on_c, 3, 66, 0
10, 235800, Note_on_c, 3, 62, 38
10, 235919, Note_on_c, 3, 62, 0
10, 235920, Note_on_c, 3, 61, 38
10, 236039, Note_on_c, 3, 61, 0
10, 236040, Note_on_c, 3, 62, 38
10, 236159, Note_on_c, 3, 62, 0
10, 236160, Note_on_c, 3, 64, 38
10, 236399, Note_on_c, 3, 64, 0
10, 236760, Note_on_c, 3, 57, 38
10, 236879, Note_on_c, 3, 57, 0
10, 236880, Note_on_c, 3, 66, 38
10, 236984, Note_on_c, 3, 66, 0
10, 237000, Note_on_c, 3, 62, 38
10, 237119, Note_on_c, 3, 62, 0
10, 237120, Note_on_c, 3, 67, 38
10, 237359, Note_on_c, 3, 67, 0
10, 237720, Note_on_c, 3, 57, 38
10, 237839, Note_on_c, 3, 57, 0
10, 237840, Note_on_c, 3, 66, 38
10, 237944, Note_on_c, 3, 66, 0
10, 237960, Note_on_c, 3, 62, 38
10, 238079, Note_on_c, 3, 62, 0
10, 238080, Note_on_c, 3, 67, 38
10, 238319, Note_on_c, 3, 67, 0
10, 238440, Note_on_c, 3, 61, 38
10, 238559, Note_on_c, 3, 61, 0
10, 238560, Note_on_c, 3, 66, 38
10, 238799, Note_on_c, 3, 66, 0
10, 238800, Control_c, 3, 11, 89
10, 238920, Note_on_c, 3, 54, 68
10, 239039, Note_on_c, 3, 54, 0
10, 239040, Note_on_c, 3, 62, 68
10, 239279, Note_on_c, 3, 62, 0
10, 239400, Control_c, 3, 11, 89
10, 239400, Note_on_c, 3, 64, 68
10, 239460, Control_c, 3, 11, 95
10, 239519, Note_on_c, 3, 64, 0
10, 239520, Note_on_c, 3, 57, 68
10, 239520, Control_c, 3, 11, 101
10, 239580, Control_c, 3, 11, 109
10, 239640, Control_c, 3, 11, 115
10, 239700, Control_c, 3, 11, 121
10, 239759, Note_on_c, 3, 57, 0
10, 241680, Control_c, 3, 11, 127
10, 241920, Note_on_c, 3, 62, 44
10, 242639, Note_on_c, 3, 62, 0
10, 242640, Note_on_c, 3, 61, 44
10, 242759, Note_on_c, 3, 61, 0
10, 242760, Note_on_c, 3, 59, 44
10, 242879, Note_on_c, 3, 59, 0
10, 242880, Note_on_c, 3, 61, 44
10, 242999, Note_on_c, 3, 61, 0
10, 243000, Note_on_c, 3, 64, 44
10, 243119, Note_on_c, 3, 64, 0
10, 243120, Note_on_c, 3, 67, 44
10, 243239, Note_on_c, 3, 67, 0
10, 243240, Note_on_c, 3, 66, 44
10, 243344, Note_on_c, 3, 66, 0
10, 243360, Note_on_c, 3, 66, 44
10, 243479, Note_on_c, 3, 66, 0
10, 243480, Note_on_c, 3, 62, 53
10, 243599, Note_on_c, 3, 62, 0
10, 243600, Note_on_c, 3, 61, 62
10, 243719, Note_on_c, 3, 61, 0
10, 243720, Note_on_c, 3, 62, 71
10, 243824, Note_on_c, 3, 62, 0
10, 243840, Note_on_c, 3, 64, 80
10, 244079, Note_on_c, 3, 64, 0
10, 244440, Note_on_c, 3, 57, 80
10, 244559, Note_on_c, 3, 57, 0
10, 244560, Note_on_c, 3, 66, 80
10, 244664, Note_on_c, 3, 66, 0
10, 244680, Note_on_c, 3, 62, 80
10, 244799, Note_on_c, 3, 62, 0
10, 244800, Note_on_c, 3, 67, 80
10, 244919, Note_on_c, 3, 67, 0
10, 245400, Note_on_c, 3, 57, 80
10, 245519, Note_on_c, 3, 57, 0
10, 245520, Note_on_c, 3, 64, 80
10, 245624, Note_on_c, 3, 64, 0
10, 245640, Note_on_c, 3, 66, 80
10, 245759, Note_on_c, 3, 66, 0
10, 245760, Note_on_c, 3, 67, 80
10, 245999, Note_on_c, 3, 67, 0
10, 246120, Note_on_c, 3, 61, 80
10, 246239, Note_on_c, 3, 61, 0
10, 246240, Note_on_c, 3, 66, 80
10, 246479, Note_on_c, 3, 66, 0
10, 246600, Note_on_c, 3, 54, 80
10, 246719, Note_on_c, 3, 54, 0
10, 246720, Note_on_c, 3, 62, 80
10, 246959, Note_on_c, 3, 62, 0
10, 247080, Note_on_c, 3, 64, 80
10, 247199, Note_on_c, 3, 64, 0
10, 247200, Note_on_c, 3, 57, 80
10, 247439, Note_on_c, 3, 57, 0
10, 247560, Note_on_c, 3, 57, 80
10, 247679, Note_on_c, 3, 57, 0
10, 247680, Note_on_c, 3, 66, 80
10, 247784, Note_on_c, 3, 66, 0
10, 247800, Note_on_c, 3, 57, 80
10, 247919, Note_on_c, 3, 57, 0
10, 247920, Note_on_c, 3, 66, 80
10, 248039, Note_on_c, 3, 66, 0
10, 248280, Note_on_c, 3, 45, 80
10, 248399, Note_on_c, 3, 45, 0
10, 248400, Note_on_c, 3, 57, 80
10, 248639, Note_on_c, 3, 57, 0
10, 248760, Note_on_c, 3, 57, 76
10, 248879, Note_on_c, 3, 57, 0
10, 248880, Note_on_c, 3, 67, 71
10, 249119, Note_on_c, 3, 67, 0
10, 249240, Note_on_c, 3, 57, 58
10, 249359, Note_on_c, 3, 57, 0
10, 249360, Note_on_c, 3, 64, 53
10, 249599, Note_on_c, 3, 64, 0
10, 249720, Note_on_c, 3, 57, 44
10, 249839, Note_on_c, 3, 57, 0
10, 249840, Note_on_c, 3, 62, 44
10, 250079, Note_on_c, 3, 62, 0
10, 250200, Note_on_c, 3, 57, 44
10, 250319, Note_on_c, 3, 57, 0
10, 250320, Note_on_c, 3, 66, 44
10, 250559, Note_on_c, 3, 66, 0
10, 250680, Note_on_c, 3, 57, 44
10, 250799, Note_on_c, 3, 57, 0
10, 250800, Note_on_c, 3, 64, 44
10, 251039, Note_on_c, 3, 64, 0
10, 251160, Note_on_c, 3, 57, 44
10, 251279, Note_on_c, 3, 57, 0
10, 251280, Note_on_c, 3, 62, 44
10, 251399, Note_on_c, 3, 62, 0
10, 251400, Note_on_c, 3, 57, 44
10, 251400, Note_on_c, 3, 54, 44
10, 251519, Note_on_c, 3, 57, 0
10, 251519, Note_on_c, 3, 54, 0
10, 251520, Note_on_c, 3, 55, 44
10, 251520, Note_on_c, 3, 52, 44
10, 251879, Note_on_c, 3, 55, 0
10, 251879, Note_on_c, 3, 52, 0
10, 251880, Note_on_c, 3, 54, 44
10, 251880, Note_on_c, 3, 50, 44
10, 251984, Note_on_c, 3, 54, 0
10, 251984, Note_on_c, 3, 50, 0
10, 252000, Note_on_c, 3, 54, 44
10, 252000, Note_on_c, 3, 50, 44
10, 252224, Note_on_c, 3, 54, 0
10, 252224, Note_on_c, 3, 50, 0
10, 252240, Note_on_c, 3, 62, 44
10, 252240, Note_on_c, 3, 59, 44
10, 252479, Note_on_c, 3, 62, 0
10, 252479, Note_on_c, 3, 59, 0
10, 252480, Note_on_c, 3, 57, 44
10, 252480, Note_on_c, 3, 60, 44
10, 252839, Note_on_c, 3, 57, 0
10, 252839, Note_on_c, 3, 60, 0
10, 252840, Note_on_c, 3, 55, 44
10, 252840, Note_on_c, 3, 59, 44
10, 252944, Note_on_c, 3, 55, 0
10, 252944, Note_on_c, 3, 59, 0
10, 252960, Note_on_c, 3, 59, 44
10, 252960, Note_on_c, 3, 55, 44
10, 253184, Note_on_c, 3, 59, 0
10, 253184, Note_on_c, 3, 55, 0
10, 253200, Note_on_c, 3, 59, 44
10, 253200, Note_on_c, 3, 67, 44
10, 253319, Note_on_c, 3, 59, 0
10, 253319, Note_on_c, 3, 67, 0
10, 253320, Note_on_c, 3, 64, 44
10, 253320, Note_on_c, 3, 55, 44
10, 253439, Note_on_c, 3, 64, 0
10, 253439, Note_on_c, 3, 55, 0
10, 253440, Note_on_c, 3, 62, 44
10, 253440, Note_on_c, 3, 54, 44
10, 253559, Note_on_c, 3, 62, 0
10, 253559, Note_on_c, 3, 54, 0
10, 253560, Note_on_c, 3, 61, 44
10, 253560, Note_on_c, 3, 52, 44
10, 253679, Note_on_c, 3, 61, 0
10, 253679, Note_on_c, 3, 52, 0
10, 253680, Note_on_c, 3, 55, 44
10, 253680, Note_on_c, 3, 64, 44
10, 253799, Note_on_c, 3, 55, 0
10, 253799, Note_on_c, 3, 64, 0
10, 253800, Note_on_c, 3, 61, 44
10, 253800, Note_on_c, 3, 52, 44
10, 253919, Note_on_c, 3, 61, 0
10, 253919, Note_on_c, 3, 52, 0
10, 253920, Note_on_c, 3, 50, 44
10, 253920, Note_on_c, 3, 59, 44
10, 254039, Note_on_c, 3, 50, 0
10, 254039, Note_on_c, 3, 59, 0
10, 254040, Note_on_c, 3, 49, 44
10, 254040, Note_on_c, 3, 57, 44
10, 254159, Note_on_c, 3, 49, 0
10, 254159, Note_on_c, 3, 57, 0
10, 254160, Note_on_c, 3, 50, 44
10, 254160, Note_on_c, 3, 59, 44
10, 254279, Note_on_c, 3, 50, 0
10, 254279, Note_on_c, 3, 59, 0
10, 254280, Note_on_c, 3, 61, 44
10, 254280, Note_on_c, 3, 52, 44
10, 254384, Note_on_c, 3, 61, 0
10, 254384, Note_on_c, 3, 52, 0
10, 254400, Note_on_c, 3, 54, 44
10, 254400, Note_on_c, 3, 62, 44
10, 254519, Note_on_c, 3, 54, 0
10, 254519, Note_on_c, 3, 62, 0
10, 254520, Note_on_c, 3, 66, 44
10, 254520, Note_on_c, 3, 57, 44
10, 254639, Note_on_c, 3, 66, 0
10, 254639, Note_on_c, 3, 57, 0
10, 254640, Note_on_c, 3, 55, 44
10, 254640, Note_on_c, 3, 64, 44
10, 254759, Note_on_c, 3, 55, 0
10, 254759, Note_on_c, 3, 64, 0
10, 254760, Note_on_c, 3, 52, 44
10, 254760, Note_on_c, 3, 61, 44
10, 254879, Note_on_c, 3, 52, 0
10, 254879, Note_on_c, 3, 61, 0
10, 254880, Note_on_c, 3, 62, 44
10, 254880, Note_on_c, 3, 54, 44
10, 254999, Note_on_c, 3, 62, 0
10, 254999, Note_on_c, 3, 54, 0
10, 259200, Note_on_c, 3, 62, 44
10, 259200, Note_on_c, 3, 66, 44
10, 260159, Note_on_c, 3, 62, 0
10, 260159, Note_on_c, 3, 66, 0
10, 260160, Note_on_c, 3, 59, 44
10, 260160, Note_on_c, 3, 62, 44
10, 260639, Note_on_c, 3, 59, 0
10, 260639, Note_on_c, 3, 62, 0
10, 260640, Note_on_c, 3, 64, 44
10, 260640, Note_on_c, 3, 61, 44
10, 261104, Note_on_c, 3, 64, 0
10, 261104, Note_on_c, 3, 61, 0
10, 261120, Note_on_c, 3, 62, 44
10, 261359, Note_on_c, 3, 62, 0
10, 262080, Note_on_c, 3, 52, 44
10, 262080, Note_on_c, 3, 55, 44
10, 262544, Note_on_c, 3, 52, 0
10, 262544, Note_on_c, 3, 55, 0
10, 262560, Note_on_c, 3, 50, 44
10, 262560, Note_on_c, 3, 54, 44
10, 262679, Note_on_c, 3, 50, 0
10, 262679, Note_on_c, 3, 54, 0
10, 262680, Note_on_c, 3, 54, 44
10, 262680, Note_on_c, 3, 57, 44
10, 262784, Note_on_c, 3, 54, 0
10, 262784, Note_on_c, 3, 57, 0
10, 262800, Note_on_c, 3, 55, 44
10, 262800, Note_on_c, 3, 52, 44
10, 262919, Note_on_c, 3, 55, 0
10, 262919, Note_on_c, 3, 52, 0
10, 262920, Note_on_c, 3, 50, 44
10, 262920, Note_on_c, 3, 54, 44
10, 263024, Note_on_c, 3, 50, 0
10, 263024, Note_on_c, 3, 54, 0
10, 263040, Note_on_c, 3, 52, 44
10, 263040, Note_on_c, 3, 45, 44
10, 263279, Note_on_c, 3, 52, 0
10, 263279, Note_on_c, 3, 45, 0
10, 265200, Note_on_c, 3, 54, 44
10, 265319, Note_on_c, 3, 54, 0
10, 265320, Note_on_c, 3, 55, 44
10, 265439, Note_on_c, 3, 55, 0
10, 265680, Note_on_c, 3, 57, 44
10, 265799, Note_on_c, 3, 57, 0
10, 265800, Note_on_c, 3, 58, 44
10, 265919, Note_on_c, 3, 58, 0
10, 266160, Note_on_c, 3, 59, 44
10, 266279, Note_on_c, 3, 59, 0
10, 266280, Note_on_c, 3, 56, 44
10, 266384, Note_on_c, 3, 56, 0
10, 266400, Note_on_c, 3, 55, 44
10, 266519, Note_on_c, 3, 55, 0
10, 266520, Note_on_c, 3, 52, 44
10, 266624, Note_on_c, 3, 52, 0
10, 266640, Note_on_c, 3, 54, 44
10, 266759, Note_on_c, 3, 54, 0
10, 266760, Note_on_c, 3, 62, 44
10, 266864, Note_on_c, 3, 62, 0
10, 266880, Note_on_c, 3, 62, 44
10, 267104, Note_on_c, 3, 62, 0
10, 267120, Note_on_c, 3, 61, 44
10, 267239, Note_on_c, 3, 61, 0
10, 267240, Note_on_c, 3, 62, 44
10, 267359, Note_on_c, 3, 62, 0
10, 267600, Note_on_c, 3, 67, 44
10, 267719, Note_on_c, 3, 67, 0
10, 267720, Note_on_c, 3, 66, 44
10, 267839, Note_on_c, 3, 66, 0
10, 268080, Note_on_c, 3, 67, 44
10, 268199, Note_on_c, 3, 67, 0
10, 268200, Note_on_c, 3, 64, 44
10, 268319, Note_on_c, 3, 64, 0
10, 268560, Note_on_c, 3, 64, 44
10, 268679, Note_on_c, 3, 64, 0
10, 268680, Note_on_c, 3, 61, 44
10, 268799, Note_on_c, 3, 61, 0
10, 269040, Note_on_c, 3, 64, 44
10, 269159, Note_on_c, 3, 64, 0
10, 269160, Note_on_c, 3, 66, 44
10, 269279, Note_on_c, 3, 66, 0
10, 270480, Note_on_c, 3, 67, 80
10, 270480, Note_on_c, 3, 64, 80
10, 270599, Note_on_c, 3, 67, 0
10, 270599, Note_on_c, 3, 64, 0
10, 270600, Note_on_c, 3, 66, 80
10, 270600, Note_on_c, 3, 62, 80
10, 270704, Note_on_c, 3, 66, 0
10, 270704, Note_on_c, 3, 62, 0
10, 270720, Note_on_c, 3, 66, 80
10, 270720, Note_on_c, 3, 62, 80
10, 270839, Note_on_c, 3, 66, 0
10, 270839, Note_on_c, 3, 62, 0
10, 270840, Note_on_c, 3, 61, 80
10, 270840, Note_on_c, 3, 64, 80
10, 270944, Note_on_c, 3, 61, 0
10, 270944, Note_on_c, 3, 64, 0
10, 270960, Note_on_c, 3, 62, 80
10, 270960, Note_on_c, 3, 59, 80
10, 271079, Note_on_c, 3, 62, 0
10, 271079, Note_on_c, 3, 59, 0
10, 271080, Note_on_c, 3, 61, 80
10, 271080, Note_on_c, 3, 64, 80
10, 271184, Note_on_c, 3, 61, 0
10, 271184, Note_on_c, 3, 64, 0
10, 271200, Note_on_c, 3, 67, 80
10, 271200, Note_on_c, 3, 64, 80
10, 271319, Note_on_c, 3, 67, 0
10, 271319, Note_on_c, 3, 64, 0
10, 271320, Note_on_c, 3, 66, 80
10, 271320, Note_on_c, 3, 62, 80
10, 271424, Note_on_c, 3, 66, 0
10, 271424, Note_on_c, 3, 62, 0
10, 271440, Note_on_c, 3, 55, 80
10, 271440, Note_on_c, 3, 64, 80
10, 271559, Note_on_c, 3, 55, 0
10, 271559, Note_on_c, 3, 64, 0
10, 271560, Note_on_c, 3, 54, 80
10, 271560, Note_on_c, 3, 62, 80
10, 271664, Note_on_c, 3, 54, 0
10, 271664, Note_on_c, 3, 62, 0
10, 271680, Note_on_c, 3, 62, 80
10, 271680, Note_on_c, 3, 66, 80
10, 271799, Note_on_c, 3, 62, 0
10, 271799, Note_on_c, 3, 66, 0
10, 271800, Note_on_c, 3, 64, 80
10, 271800, Note_on_c, 3, 61, 80
10, 271904, Note_on_c, 3, 64, 0
10, 271904, Note_on_c, 3, 61, 0
10, 271920, Note_on_c, 3, 62, 80
10, 271920, Note_on_c, 3, 59, 80
10, 272039, Note_on_c, 3, 62, 0
10, 272039, Note_on_c, 3, 59, 0
10, 272040, Note_on_c, 3, 64, 80
10, 272040, Note_on_c, 3, 61, 80
10, 272144, Note_on_c, 3, 64, 0
10, 272144, Note_on_c, 3, 61, 0
10, 272160, Note_on_c, 3, 64, 80
10, 272160, Note_on_c, 3, 67, 80
10, 272279, Note_on_c, 3, 64, 0
10, 272279, Note_on_c, 3, 67, 0
10, 272280, Note_on_c, 3, 62, 80
10, 272280, Note_on_c, 3, 66, 80
10, 272384, Note_on_c, 3, 62, 0
10, 272384, Note_on_c, 3, 66, 0
10, 272400, Note_on_c, 3, 55, 80
10, 272400, Note_on_c, 3, 64, 80
10, 272519, Note_on_c, 3, 55, 0
10, 272519, Note_on_c, 3, 64, 0
10, 272520, Note_on_c, 3, 62, 80
10, 272520, Note_on_c, 3, 54, 80
10, 272624, Note_on_c, 3, 62, 0
10, 272624, Note_on_c, 3, 54, 0
10, 272640, Note_on_c, 3, 62, 80
10, 272640, Note_on_c, 3, 66, 80
10, 272759, Note_on_c, 3, 62, 0
10, 272759, Note_on_c, 3, 66, 0
10, 272760, Note_on_c, 3, 61, 80
10, 272760, Note_on_c, 3, 64, 80
10, 272864, Note_on_c, 3, 61, 0
10, 272864, Note_on_c, 3, 64, 0
10, 272880, Note_on_c, 3, 59, 80
10, 272880, Note_on_c, 3, 62, 80
10, 272999, Note_on_c, 3, 59, 0
10, 272999, Note_on_c, 3, 62, 0
10, 273000, Note_on_c, 3, 64, 80
10, 273000, Note_on_c, 3, 61, 80
10, 273104, Note_on_c, 3, 64, 0
10, 273104, Note_on_c, 3, 61, 0
10, 273120, Note_on_c, 3, 64, 80
10, 273120, Note_on_c, 3, 61, 80
10, 273239, Note_on_c, 3, 64, 0
10, 273239, Note_on_c, 3, 61, 0
10, 273240, Note_on_c, 3, 66, 80
10, 273240, Note_on_c, 3, 62, 80
10, 273344, Note_on_c, 3, 66, 0
10, 273344, Note_on_c, 3, 62, 0
10, 273360, Note_on_c, 3, 62, 80
10, 273360, Note_on_c, 3, 66, 80
10, 273479, Note_on_c, 3, 62, 0
10, 273479, Note_on_c, 3, 66, 0
10, 273480, Note_on_c, 3, 67, 80
10, 273480, Note_on_c, 3, 64, 80
10, 273584, Note_on_c, 3, 67, 0
10, 273584, Note_on_c, 3, 64, 0
10, 273600, Note_on_c, 3, 52, 80
10, 273600, Note_on_c, 3, 61, 80
10, 273719, Note_on_c, 3, 52, 0
10, 273719, Note_on_c, 3, 61, 0
10, 273720, Note_on_c, 3, 54, 80
10, 273720, Note_on_c, 3, 62, 80
10, 273824, Note_on_c, 3, 54, 0
10, 273824, Note_on_c, 3, 62, 0
10, 273840, Note_on_c, 3, 54, 80
10, 273840, Note_on_c, 3, 62, 80
10, 273959, Note_on_c, 3, 54, 0
10, 273959, Note_on_c, 3, 62, 0
10, 273960, Note_on_c, 3, 59, 80
10, 273960, Note_on_c, 3, 56, 80
10, 274064, Note_on_c, 3, 59, 0
10, 274064, Note_on_c, 3, 56, 0
10, 274080, Note_on_c, 3, 61, 80
10, 274080, Note_on_c, 3, 57, 80
10, 274199, Note_on_c, 3, 61, 0
10, 274199, Note_on_c, 3, 57, 0
10, 274200, Note_on_c, 3, 67, 80
10, 274200, Note_on_c, 3, 64, 80
10, 274304, Note_on_c, 3, 67, 0
10, 274304, Note_on_c, 3, 64, 0
10, 274320, Note_on_c, 3, 62, 80
10, 274320, Note_on_c, 3, 66, 80
10, 274439, Note_on_c, 3, 62, 0
10, 274439, Note_on_c, 3, 66, 0
10, 274440, Note_on_c, 3, 64, 80
10, 274440, Note_on_c, 3, 61, 80
10, 274544, Note_on_c, 3, 64, 0
10, 274544, Note_on_c, 3, 61, 0
10, 274560, Note_on_c, 3, 66, 80
10, 274560, Note_on_c, 3, 62, 80
10, 274679, Note_on_c, 3, 66, 0
10, 274679, Note_on_c, 3, 62, 0
10, 274680, Note_on_c, 3, 64, 80
10, 274680, Note_on_c, 3, 67, 80
10, 274784, Note_on_c, 3, 64, 0
10, 274784, Note_on_c, 3, 67, 0
10, 274800, Note_on_c, 3, 64, 80
10, 274800, Note_on_c, 3, 61, 80
10, 274919, Note_on_c, 3, 64, 0
10, 274919, Note_on_c, 3, 61, 0
10, 274920, Note_on_c, 3, 62, 80
10, 274920, Note_on_c, 3, 66, 80
10, 275024, Note_on_c, 3, 62, 0
10, 275024, Note_on_c, 3, 66, 0
10, 275040, Note_on_c, 3, 52, 80
10, 275040, Note_on_c, 3, 55, 80
10, 275159, Note_on_c, 3, 52, 0
10, 275159, Note_on_c, 3, 55, 0
10, 275160, Note_on_c, 3, 57, 80
10, 275160, Note_on_c, 3, 54, 80
10, 275264, Note_on_c, 3, 57, 0
10, 275264, Note_on_c, 3, 54, 0
10, 275280, Note_on_c, 3, 59, 80
10, 275280, Note_on_c, 3, 55, 80
10, 275399, Note_on_c, 3, 59, 0
10, 275399, Note_on_c, 3, 55, 0
10, 275400, Note_on_c, 3, 54, 80
10, 275400, Note_on_c, 3, 57, 80
10, 275504, Note_on_c, 3, 54, 0
10, 275504, Note_on_c, 3, 57, 0
10, 275520, Note_on_c, 3, 60, 80
10, 275520, Note_on_c, 3, 57, 80
10, 275639, Note_on_c, 3, 60, 0
10, 275639, Note_on_c, 3, 57, 0
10, 275640, Note_on_c, 3, 55, 80
10, 275640, Note_on_c, 3, 59, 80
10, 275744, Note_on_c, 3, 55, 0
10, 275744, Note_on_c, 3, 59, 0
10, 275760, Note_on_c, 3, 62, 80
10, 275760, Note_on_c, 3, 59, 80
10, 275879, Note_on_c, 3, 62, 0
10, 275879, Note_on_c, 3, 59, 0
10, 275880, Note_on_c, 3, 59, 80
10, 275880, Note_on_c, 3, 55, 80
10, 275984, Note_on_c, 3, 59, 0
10, 275984, Note_on_c, 3, 55, 0
10, 276000, Note_on_c, 3, 62, 80
10, 276000, Note_on_c, 3, 66, 80
10, 276119, Note_on_c, 3, 62, 0
10, 276119, Note_on_c, 3, 66, 0
10, 276120, Note_on_c, 3, 64, 80
10, 276120, Note_on_c, 3, 61, 80
10, 276224, Note_on_c, 3, 64, 0
10, 276224, Note_on_c, 3, 61, 0
10, 276240, Note_on_c, 3, 67, 80
10, 276240, Note_on_c, 3, 64, 80
10, 276359, Note_on_c, 3, 67, 0
10, 276359, Note_on_c, 3, 64, 0
10, 276360, Note_on_c, 3, 61, 80
10, 276360, Note_on_c, 3, 64, 80
10, 276464, Note_on_c, 3, 61, 0
10, 276464, Note_on_c, 3, 64, 0
10, 276480, Note_on_c, 3, 55, 80
10, 276480, Note_on_c, 3, 64, 80
10, 276599, Note_on_c, 3, 55, 0
10, 276599, Note_on_c, 3, 64, 0
10, 276600, Note_on_c, 3, 54, 80
10, 276600, Note_on_c, 3, 62, 80
10, 276704, Note_on_c, 3, 54, 0
10, 276704, Note_on_c, 3, 62, 0
10, 276720, Note_on_c, 3, 61, 80
10, 276720, Note_on_c, 3, 52, 80
10, 276839, Note_on_c, 3, 61, 0
10, 276839, Note_on_c, 3, 52, 0
10, 276840, Note_on_c, 3, 54, 80
10, 276840, Note_on_c, 3, 62, 80
10, 276944, Note_on_c, 3, 54, 0
10, 276944, Note_on_c, 3, 62, 0
10, 276960, Note_on_c, 3, 66, 92
10, 276960, Note_on_c, 3, 62, 92
10, 277079, Note_on_c, 3, 66, 0
10, 277079, Note_on_c, 3, 62, 0
10, 277080, Note_on_c, 3, 64, 92
10, 277080, Note_on_c, 3, 61, 92
10, 277199, Note_on_c, 3, 64, 0
10, 277199, Note_on_c, 3, 61, 0
10, 277200, Note_on_c, 3, 67, 92
10, 277200, Note_on_c, 3, 64, 92
10, 277304, Note_on_c, 3, 67, 0
10, 277304, Note_on_c, 3, 64, 0
10, 277320, Note_on_c, 3, 62, 92
10, 277320, Note_on_c, 3, 66, 92
10, 277424, Note_on_c, 3, 62, 0
10, 277424, Note_on_c, 3, 66, 0
10, 277440, Note_on_c, 3, 66, 92
10, 277440, Note_on_c, 3, 62, 92
10, 277559, Note_on_c, 3, 66, 0
10, 277559, Note_on_c, 3, 62, 0
10, 277560, Note_on_c, 3, 67, 92
10, 277560, Note_on_c, 3, 64, 92
10, 277784, Note_on_c, 3, 67, 0
10, 277784, Note_on_c, 3, 64, 0
10, 277800, Note_on_c, 3, 62, 92
10, 277800, Note_on_c, 3, 57, 92
10, 277904, Note_on_c, 3, 62, 0
10, 277904, Note_on_c, 3, 57, 0
10, 277920, Note_on_c, 3, 62, 92
10, 278144, Note_on_c, 3, 62, 0
10, 278160, Note_on_c, 3, 54, 92
10, 278160, Note_on_c, 3, 57, 92
10, 278399, Note_on_c, 3, 54, 0
10, 278399, Note_on_c, 3, 57, 0
10, 278400, Note_on_c, 3, 52, 92
10, 278400, Note_on_c, 3, 55, 92
10, 278759, Note_on_c, 3, 52, 0
10, 278759, Note_on_c, 3, 55, 0
10, 278760, Note_on_c, 3, 50, 92
10, 278760, Note_on_c, 3, 54, 92
10, 278864, Note_on_c, 3, 50, 0
10, 278864, Note_on_c, 3, 54, 0
10, 278880, Note_on_c, 3, 50, 92
10, 278880, Note_on_c, 3, 54, 92
10, 279104, Note_on_c, 3, 50, 0
10, 279104, Note_on_c, 3, 54, 0
10, 279120, Note_on_c, 3, 50, 92
10, 279120, Note_on_c, 3, 62, 92
10, 279359, Note_on_c, 3, 50, 0
10, 279359, Note_on_c, 3, 62, 0
10, 279360, Note_on_c, 3, 60, 92
10, 279360, Note_on_c, 3, 57, 92
10, 279719, Note_on_c, 3, 60, 0
10, 279719, Note_on_c, 3, 57, 0
10, 279720, Note_on_c, 3, 59, 92
10, 279720, Note_on_c, 3, 55, 92
10, 279824, Note_on_c, 3, 59, 0
10, 279824, Note_on_c, 3, 55, 0
10, 279840, Note_on_c, 3, 59, 92
10, 279840, Note_on_c, 3, 55, 92
10, 280064, Note_on_c, 3, 59, 0
10, 280064, Note_on_c, 3, 55, 0
10, 280080, Note_on_c, 3, 67, 92
10, 280080, Note_on_c, 3, 55, 92
10, 280199, Note_on_c, 3, 67, 0
10, 280199, Note_on_c, 3, 55, 0
10, 280200, Note_on_c, 3, 52, 92
10, 280200, Note_on_c, 3, 64, 92
10, 280319, Note_on_c, 3, 52, 0
10, 280319, Note_on_c, 3, 64, 0
10, 280320, Note_on_c, 3, 62, 92
10, 280439, Note_on_c, 3, 62, 0
10, 280440, Note_on_c, 3, 61, 92
10, 280559, Note_on_c, 3, 61, 0
10, 280560, Note_on_c, 3, 64, 92
10, 280679, Note_on_c, 3, 64, 0
10, 280680, Note_on_c, 3, 61, 92
10, 280799, Note_on_c, 3, 61, 0
10, 280800, Note_on_c, 3, 59, 92
10, 280919, Note_on_c, 3, 59, 0
10, 280920, Note_on_c, 3, 57, 92
10, 281039, Note_on_c, 3, 57, 0
10, 281040, Note_on_c, 3, 59, 92
10, 281159, Note_on_c, 3, 59, 0
10, 281160, Note_on_c, 3, 61, 92
10, 281264, Note_on_c, 3, 61, 0
10, 281280, Note_on_c, 3, 64, 92
10, 281399, Note_on_c, 3, 64, 0
10, 281400, Note_on_c, 3, 62, 92
10, 281519, Note_on_c, 3, 62, 0
10, 281520, Note_on_c, 3, 66, 92
10, 281639, Note_on_c, 3, 66, 0
10, 281640, Note_on_c, 3, 62, 92
10, 281759, Note_on_c, 3, 62, 0
10, 281760, Note_on_c, 3, 61, 92
10, 281879, Note_on_c, 3, 61, 0
10, 281880, Note_on_c, 3, 59, 92
10, 281999, Note_on_c, 3, 59, 0
10, 282000, Note_on_c, 3, 62, 92
10, 282119, Note_on_c, 3, 62, 0
10, 282120, Note_on_c, 3, 59, 92
10, 282224, Note_on_c, 3, 59, 0
10, 282240, Note_on_c, 3, 57, 92
10, 282359, Note_on_c, 3, 57, 0
10, 282360, Note_on_c, 3, 56, 92
10, 282479, Note_on_c, 3, 56, 0
10, 282480, Note_on_c, 3, 59, 92
10, 282599, Note_on_c, 3, 59, 0
10, 282600, Note_on_c, 3, 56, 92
10, 282719, Note_on_c, 3, 56, 0
10, 282720, Note_on_c, 3, 54, 92
10, 282839, Note_on_c, 3, 54, 0
10, 282840, Note_on_c, 3, 52, 92
10, 282959, Note_on_c, 3, 52, 0
10, 282960, Note_on_c, 3, 54, 92
10, 283079, Note_on_c, 3, 54, 0
10, 283080, Note_on_c, 3, 56, 92
10, 283184, Note_on_c, 3, 56, 0
10, 283200, Note_on_c, 3, 57, 92
10, 284279, Note_on_c, 3, 57, 0
10, 284280, Note_on_c, 3, 56, 92
10, 284399, Note_on_c, 3, 56, 0
10, 284400, Note_on_c, 3, 59, 92
10, 284519, Note_on_c, 3, 59, 0
10, 284520, Note_on_c, 3, 56, 92
10, 284639, Note_on_c, 3, 56, 0
10, 284640, Note_on_c, 3, 54, 92
10, 284759, Note_on_c, 3, 54, 0
10, 284760, Note_on_c, 3, 52, 92
10, 284879, Note_on_c, 3, 52, 0
10, 284880, Note_on_c, 3, 54, 92
10, 284999, Note_on_c, 3, 54, 0
10, 285000, Note_on_c, 3, 56, 92
10, 285104, Note_on_c, 3, 56, 0
10, 285120, Note_on_c, 3, 57, 92
10, 285171, Note_on_c, 3, 57, 0
10, 285180, Note_on_c, 3, 59, 92
10, 285231, Note_on_c, 3, 59, 0
10, 285240, Note_on_c, 3, 57, 92
10, 285291, Note_on_c, 3, 57, 0
10, 285300, Note_on_c, 3, 56, 92
10, 285351, Note_on_c, 3, 56, 0
10, 285360, Note_on_c, 3, 54, 92
10, 285411, Note_on_c, 3, 54, 0
10, 285420, Note_on_c, 3, 56, 92
10, 285471, Note_on_c, 3, 56, 0
10, 285480, Note_on_c, 3, 54, 92
10, 285531, Note_on_c, 3, 54, 0
10, 285540, Note_on_c, 3, 52, 92
10, 285591, Note_on_c, 3, 52, 0
10, 285600, Note_on_c, 3, 50, 92
10, 285651, Note_on_c, 3, 50, 0
10, 285660, Note_on_c, 3, 52, 92
10, 285711, Note_on_c, 3, 52, 0
10, 285720, Note_on_c, 3, 50, 92
10, 285771, Note_on_c, 3, 50, 0
10, 285780, Note_on_c, 3, 49, 92
10, 285831, Note_on_c, 3, 49, 0
10, 285840, Note_on_c, 3, 47, 92
10, 285891, Note_on_c, 3, 47, 0
10, 285900, Note_on_c, 3, 49, 92
10, 285951, Note_on_c, 3, 49, 0
10, 285960, Note_on_c, 3, 47, 92
10, 286011, Note_on_c, 3, 47, 0
10, 286020, Note_on_c, 3, 45, 92
10, 286071, Note_on_c, 3, 45, 0
10, 286080, Note_on_c, 3, 45, 92
10, 286439, Note_on_c, 3, 45, 0
10, 286560, Note_on_c, 3, 57, 92
10, 286919, Note_on_c, 3, 57, 0
10, 287040, Note_on_c, 3, 41, 92
10, 288959, Note_on_c, 3, 41, 0
10, 289320, Note_on_c, 3, 34, 32
10, 289320, Note_on_c, 3, 46, 32
10, 289559, Note_on_c, 3, 34, 0
10, 289559, Note_on_c, 3, 46, 0
10, 290760, Note_on_c, 3, 46, 32
10, 290760, Note_on_c, 3, 34, 32
10, 290999, Note_on_c, 3, 46, 0
10, 290999, Note_on_c, 3, 34, 0
10, 292200, Note_on_c, 3, 34, 32
10, 292200, Note_on_c, 3, 46, 32
10, 292439, Note_on_c, 3, 34, 0
10, 292439, Note_on_c, 3, 46, 0
10, 292920, Note_on_c, 3, 34, 32
10, 292920, Note_on_c, 3, 46, 32
10, 293159, Note_on_c, 3, 34, 0
10, 293159, Note_on_c, 3, 46, 0
10, 293640, Note_on_c, 3, 34, 32
10, 293640, Note_on_c, 3, 46, 32
10, 293879, Note_on_c, 3, 34, 0
10, 293879, Note_on_c, 3, 46, 0
10, 294360, Note_on_c, 3, 46, 32
10, 294360, Note_on_c, 3, 34, 32
10, 294599, Note_on_c, 3, 46, 0
10, 294599, Note_on_c, 3, 34, 0
10, 295080, Note_on_c, 3, 34, 32
10, 295080, Note_on_c, 3, 46, 32
10, 295319, Note_on_c, 3, 34, 0
10, 295319, Note_on_c, 3, 46, 0
10, 295800, Note_on_c, 3, 34, 32
10, 295800, Note_on_c, 3, 46, 32
10, 296039, Note_on_c, 3, 34, 0
10, 296039, Note_on_c, 3, 46, 0
10, 296520, Note_on_c, 3, 46, 32
10, 296520, Note_on_c, 3, 34, 32
10, 296759, Note_on_c, 3, 46, 0
10, 296759, Note_on_c, 3, 34, 0
10, 297240, Note_on_c, 3, 46, 32
10, 297240, Note_on_c, 3, 34, 32
10, 297479, Note_on_c, 3, 46, 0
10, 297479, Note_on_c, 3, 34, 0
10, 297600, Note_on_c, 3, 46, 32
10, 297600, Note_on_c, 3, 34, 32
10, 297839, Note_on_c, 3, 46, 0
10, 297839, Note_on_c, 3, 34, 0
10, 297960, Note_on_c, 3, 46, 32
10, 297960, Note_on_c, 3, 58, 32
10, 298199, Note_on_c, 3, 46, 0
10, 298199, Note_on_c, 3, 58, 0
10, 298320, Note_on_c, 3, 46, 32
10, 298320, Note_on_c, 3, 34, 32
10, 298559, Note_on_c, 3, 46, 0
10, 298559, Note_on_c, 3, 34, 0
10, 298680, Note_on_c, 3, 46, 32
10, 298680, Note_on_c, 3, 58, 32
10, 298919, Note_on_c, 3, 46, 0
10, 298919, Note_on_c, 3, 58, 0
10, 299040, Note_on_c, 3, 53, 32
10, 299040, Note_on_c, 3, 41, 32
10, 299279, Note_on_c, 3, 53, 0
10, 299279, Note_on_c, 3, 41, 0
10, 299400, Note_on_c, 3, 53, 32
10, 299400, Note_on_c, 3, 65, 32
10, 299639, Note_on_c, 3, 53, 0
10, 299639, Note_on_c, 3, 65, 0
10, 299760, Note_on_c, 3, 53, 32
10, 299760, Note_on_c, 3, 41, 32
10, 299999, Note_on_c, 3, 53, 0
10, 299999, Note_on_c, 3, 41, 0
10, 300120, Note_on_c, 3, 53, 32
10, 300120, Note_on_c, 3, 65, 32
10, 300359, Note_on_c, 3, 53, 0
10, 300359, Note_on_c, 3, 65, 0
10, 300480, Note_on_c, 3, 34, 32
10, 300480, Note_on_c, 3, 46, 32
10, 300719, Note_on_c, 3, 34, 0
10, 300719, Note_on_c, 3, 46, 0
10, 300840, Note_on_c, 3, 58, 32
10, 300840, Note_on_c, 3, 46, 32
10, 301079, Note_on_c, 3, 58, 0
10, 301079, Note_on_c, 3, 46, 0
10, 301200, Note_on_c, 3, 46, 32
10, 301200, Note_on_c, 3, 34, 32
10, 301439, Note_on_c, 3, 46, 0
10, 301439, Note_on_c, 3, 34, 0
10, 301560, Note_on_c, 3, 46, 32
10, 301560, Note_on_c, 3, 58, 32
10, 301799, Note_on_c, 3, 46, 0
10, 301799, Note_on_c, 3, 58, 0
10, 301920, Note_on_c, 3, 53, 32
10, 301920, Note_on_c, 3, 41, 32
10, 302159, Note_on_c, 3, 53, 0
10, 302159, Note_on_c, 3, 41, 0
10, 302280, Note_on_c, 3, 65, 32
10, 302280, Note_on_c, 3, 53, 32
10, 302519, Note_on_c, 3, 65, 0
10, 302519, Note_on_c, 3, 53, 0
10, 302640, Note_on_c, 3, 53, 32
10, 302640, Note_on_c, 3, 41, 32
10, 302879, Note_on_c, 3, 53, 0
10, 302879, Note_on_c, 3, 41, 0
10, 303000, Note_on_c, 3, 65, 32
10, 303000, Note_on_c, 3, 53, 32
10, 303239, Note_on_c, 3, 65, 0
10, 303239, Note_on_c, 3, 53, 0
10, 303360, Note_on_c, 3, 46, 32
10, 303360, Note_on_c, 3, 34, 32
10, 303599, Note_on_c, 3, 46, 0
10, 303599, Note_on_c, 3, 34, 0
10, 303720, Note_on_c, 3, 58, 32
10, 303720, Note_on_c, 3, 46, 32
10, 303959, Note_on_c, 3, 58, 0
10, 303959, Note_on_c, 3, 46, 0
10, 304080, Note_on_c, 3, 34, 32
10, 304080, Note_on_c, 3, 46, 32
10, 304319, Note_on_c, 3, 34, 0
10, 304319, Note_on_c, 3, 46, 0
10, 304440, Note_on_c, 3, 46, 32
10, 304440, Note_on_c, 3, 58, 32
10, 304679, Note_on_c, 3, 46, 0
10, 304679, Note_on_c, 3, 58, 0
10, 304800, Note_on_c, 3, 41, 32
10, 304800, Note_on_c, 3, 53, 32
10, 305039, Note_on_c, 3, 41, 0
10, 305039, Note_on_c, 3, 53, 0
10, 305160, Note_on_c, 3, 45, 32
10, 305160, Note_on_c, 3, 57, 32
10, 305384, Note_on_c, 3, 45, 0
10, 305384, Note_on_c, 3, 57, 0
10, 305400, Note_on_c, 3, 48, 32
10, 305400, Note_on_c, 3, 60, 32
10, 305504, Note_on_c, 3, 48, 0
10, 305504, Note_on_c, 3, 60, 0
10, 305520, Note_on_c, 3, 65, 32
10, 305520, Note_on_c, 3, 53, 32
10, 305744, Note_on_c, 3, 65, 0
10, 305744, Note_on_c, 3, 53, 0
10, 305760, Note_on_c, 3, 53, 32
10, 305760, Note_on_c, 3, 41, 32
10, 305864, Note_on_c, 3, 53, 0
10, 305864, Note_on_c, 3, 41, 0
10, 305880, Note_on_c, 3, 43, 32
10, 305880, Note_on_c, 3, 55, 32
10, 306104, Note_on_c, 3, 43, 0
10, 306104, Note_on_c, 3, 55, 0
10, 306120, Note_on_c, 3, 57, 32
10, 306120, Note_on_c, 3, 45, 32
10, 306224, Note_on_c, 3, 57, 0
10, 306224, Note_on_c, 3, 45, 0
10, 306240, Note_on_c, 3, 46, 32
10, 306240, Note_on_c, 3, 34, 32
10, 306479, Note_on_c, 3, 46, 0
10, 306479, Note_on_c, 3, 34, 0
10, 306600, Note_on_c, 3, 46, 32
10, 306600, Note_on_c, 3, 58, 32
10, 306839, Note_on_c, 3, 46, 0
10, 306839, Note_on_c, 3, 58, 0
10, 306960, Note_on_c, 3, 46, 32
10, 306960, Note_on_c, 3, 34, 32
10, 307199, Note_on_c, 3, 46, 0
10, 307199, Note_on_c, 3, 34, 0
10, 307320, Note_on_c, 3, 58, 32
10, 307320, Note_on_c, 3, 46, 32
10, 307559, Note_on_c, 3, 58, 0
10, 307559, Note_on_c, 3, 46, 0
10, 307680, Note_on_c, 3, 53, 32
10, 307680, Note_on_c, 3, 41, 32
10, 307919, Note_on_c, 3, 53, 0
10, 307919, Note_on_c, 3, 41, 0
10, 308040, Note_on_c, 3, 53, 32
10, 308040, Note_on_c, 3, 65, 32
10, 308279, Note_on_c, 3, 53, 0
10, 308279, Note_on_c, 3, 65, 0
10, 308400, Note_on_c, 3, 46, 32
10, 308400, Note_on_c, 3, 34, 32
10, 308639, Note_on_c, 3, 46, 0
10, 308639, Note_on_c, 3, 34, 0
10, 309120, Note_on_c, 3, 41, 32
10, 309120, Note_on_c, 3, 53, 32
10, 309359, Note_on_c, 3, 41, 0
10, 309359, Note_on_c, 3, 53, 0
10, 309480, Note_on_c, 3, 53, 32
10, 309480, Note_on_c, 3, 65, 32
10, 309719, Note_on_c, 3, 53, 0
10, 309719, Note_on_c, 3, 65, 0
10, 309840, Note_on_c, 3, 53, 32
10, 309840, Note_on_c, 3, 41, 32
10, 310079, Note_on_c, 3, 53, 0
10, 310079, Note_on_c, 3, 41, 0
10, 310200, Note_on_c, 3, 46, 32
10, 310200, Note_on_c, 3, 34, 32
10, 310439, Note_on_c, 3, 46, 0
10, 310439, Note_on_c, 3, 34, 0
10, 310560, Note_on_c, 3, 53, 32
10, 310560, Note_on_c, 3, 41, 32
10, 310799, Note_on_c, 3, 53, 0
10, 310799, Note_on_c, 3, 41, 0
10, 310920, Note_on_c, 3, 53, 32
10, 310920, Note_on_c, 3, 65, 32
10, 311159, Note_on_c, 3, 53, 0
10, 311159, Note_on_c, 3, 65, 0
10, 311280, Note_on_c, 3, 53, 32
10, 311280, Note_on_c, 3, 41, 32
10, 311519, Note_on_c, 3, 53, 0
10, 311519, Note_on_c, 3, 41, 0
10, 311640, Note_on_c, 3, 46, 32
10, 311640, Note_on_c, 3, 34, 32
10, 311879, Note_on_c, 3, 46, 0
10, 311879, Note_on_c, 3, 34, 0
10, 312000, Note_on_c, 3, 41, 32
10, 312000, Note_on_c, 3, 53, 32
10, 312239, Note_on_c, 3, 41, 0
10, 312239, Note_on_c, 3, 53, 0
10, 312360, Note_on_c, 3, 46, 32
10, 312360, Note_on_c, 3, 58, 32
10, 312599, Note_on_c, 3, 46, 0
10, 312599, Note_on_c, 3, 58, 0
10, 312720, Note_on_c, 3, 41, 32
10, 312720, Note_on_c, 3, 53, 32
10, 312959, Note_on_c, 3, 41, 0
10, 312959, Note_on_c, 3, 53, 0
10, 313080, Note_on_c, 3, 65, 32
10, 313080, Note_on_c, 3, 53, 32
10, 313319, Note_on_c, 3, 65, 0
10, 313319, Note_on_c, 3, 53, 0
10, 313440, Note_on_c, 3, 48, 32
10, 313440, Note_on_c, 3, 36, 32
10, 313679, Note_on_c, 3, 48, 0
10, 313679, Note_on_c, 3, 36, 0
10, 313800, Note_on_c, 3, 48, 32
10, 313800, Note_on_c, 3, 60, 32
10, 314039, Note_on_c, 3, 48, 0
10, 314039, Note_on_c, 3, 60, 0
10, 314160, Note_on_c, 3, 63, 32
10, 314160, Note_on_c, 3, 51, 32
10, 314519, Note_on_c, 3, 63, 0
10, 314519, Note_on_c, 3, 51, 0
10, 314520, Note_on_c, 3, 50, 32
10, 314520, Note_on_c, 3, 62, 32
10, 314759, Note_on_c, 3, 50, 0
10, 314759, Note_on_c, 3, 62, 0
10, 314760, Note_on_c, 3, 60, 32
10, 314760, Note_on_c, 3, 48, 32
10, 314864, Note_on_c, 3, 60, 0
10, 314864, Note_on_c, 3, 48, 0
10, 314880, Note_on_c, 3, 34, 32
10, 314880, Note_on_c, 3, 46, 32
10, 315119, Note_on_c, 3, 34, 0
10, 315119, Note_on_c, 3, 46, 0
10, 315240, Note_on_c, 3, 46, 32
10, 315240, Note_on_c, 3, 58, 32
10, 315479, Note_on_c, 3, 46, 0
10, 315479, Note_on_c, 3, 58, 0
10, 315600, Note_on_c, 3, 56, 32
10, 315600, Note_on_c, 3, 44, 32
10, 315839, Note_on_c, 3, 56, 0
10, 315839, Note_on_c, 3, 44, 0
10, 315960, Note_on_c, 3, 56, 32
10, 315960, Note_on_c, 3, 68, 32
10, 316199, Note_on_c, 3, 56, 0
10, 316199, Note_on_c, 3, 68, 0
10, 316320, Note_on_c, 3, 55, 32
10, 316320, Note_on_c, 3, 43, 32
10, 316559, Note_on_c, 3, 55, 0
10, 316559, Note_on_c, 3, 43, 0
10, 316680, Note_on_c, 3, 55, 32
10, 316680, Note_on_c, 3, 67, 32
10, 316919, Note_on_c, 3, 55, 0
10, 316919, Note_on_c, 3, 67, 0
10, 317040, Note_on_c, 3, 39, 32
10, 317040, Note_on_c, 3, 51, 32
10, 317279, Note_on_c, 3, 39, 0
10, 317279, Note_on_c, 3, 51, 0
10, 317400, Note_on_c, 3, 52, 32
10, 317400, Note_on_c, 3, 40, 32
10, 317639, Note_on_c, 3, 52, 0
10, 317639, Note_on_c, 3, 40, 0
10, 317760, Note_on_c, 3, 53, 32
10, 317760, Note_on_c, 3, 41, 32
10, 317999, Note_on_c, 3, 53, 0
10, 317999, Note_on_c, 3, 41, 0
10, 318120, Note_on_c, 3, 65, 32
10, 318120, Note_on_c, 3, 53, 32
10, 318359, Note_on_c, 3, 65, 0
10, 318359, Note_on_c, 3, 53, 0
10, 318480, Note_on_c, 3, 53, 32
10, 318480, Note_on_c, 3, 41, 32
10, 318719, Note_on_c, 3, 53, 0
10, 318719, Note_on_c, 3, 41, 0
10, 318840, Note_on_c, 3, 53, 32
10, 318840, Note_on_c, 3, 65, 32
10, 319079, Note_on_c, 3, 53, 0
10, 319079, Note_on_c, 3, 65, 0
10, 319200, Note_on_c, 3, 41, 32
10, 319200, Note_on_c, 3, 53, 32
10, 319439, Note_on_c, 3, 41, 0
10, 319439, Note_on_c, 3, 53, 0
10, 319560, Note_on_c, 3, 53, 32
10, 319560, Note_on_c, 3, 65, 32
10, 319799, Note_on_c, 3, 53, 0
10, 319799, Note_on_c, 3, 65, 0
10, 319920, Note_on_c, 3, 34, 32
10, 319920, Note_on_c, 3, 46, 32
10, 320159, Note_on_c, 3, 34, 0
10, 320159, Note_on_c, 3, 46, 0
10, 320640, Note_on_c, 3, 34, 32
10, 320640, Note_on_c, 3, 46, 32
10, 320879, Note_on_c, 3, 34, 0
10, 320879, Note_on_c, 3, 46, 0
10, 321000, Note_on_c, 3, 46, 32
10, 321000, Note_on_c, 3, 58, 32
10, 321239, Note_on_c, 3, 46, 0
10, 321239, Note_on_c, 3, 58, 0
10, 321360, Note_on_c, 3, 46, 32
10, 321360, Note_on_c, 3, 34, 32
10, 321599, Note_on_c, 3, 46, 0
10, 321599, Note_on_c, 3, 34, 0
10, 321720, Note_on_c, 3, 46, 32
10, 321720, Note_on_c, 3, 58, 32
10, 321959, Note_on_c, 3, 46, 0
10, 321959, Note_on_c, 3, 58, 0
10, 322080, Note_on_c, 3, 53, 32
10, 322080, Note_on_c, 3, 41, 32
10, 322319, Note_on_c, 3, 53, 0
10, 322319, Note_on_c, 3, 41, 0
10, 322440, Note_on_c, 3, 65, 32
10, 322440, Note_on_c, 3, 53, 32
10, 322679, Note_on_c, 3, 65, 0
10, 322679, Note_on_c, 3, 53, 0
10, 322800, Note_on_c, 3, 41, 32
10, 322800, Note_on_c, 3, 53, 32
10, 323039, Note_on_c, 3, 41, 0
10, 323039, Note_on_c, 3, 53, 0
10, 323160, Note_on_c, 3, 65, 32
10, 323160, Note_on_c, 3, 53, 32
10, 323399, Note_on_c, 3, 65, 0
10, 323399, Note_on_c, 3, 53, 0
10, 323520, Note_on_c, 3, 46, 32
10, 323520, Note_on_c, 3, 34, 32
10, 323759, Note_on_c, 3, 46, 0
10, 323759, Note_on_c, 3, 34, 0
10, 323880, Note_on_c, 3, 58, 32
10, 323880, Note_on_c, 3, 46, 32
10, 324119, Note_on_c, 3, 58, 0
10, 324119, Note_on_c, 3, 46, 0
10, 324240, Note_on_c, 3, 34, 32
10, 324240, Note_on_c, 3, 46, 32
10, 324479, Note_on_c, 3, 34, 0
10, 324479, Note_on_c, 3, 46, 0
10, 324600, Note_on_c, 3, 58, 32
10, 324600, Note_on_c, 3, 46, 32
10, 324839, Note_on_c, 3, 58, 0
10, 324839, Note_on_c, 3, 46, 0
10, 324960, Note_on_c, 3, 41, 32
10, 324960, Note_on_c, 3, 53, 32
10, 325199, Note_on_c, 3, 41, 0
10, 325199, Note_on_c, 3, 53, 0
10, 325320, Note_on_c, 3, 53, 32
10, 325320, Note_on_c, 3, 65, 32
10, 325559, Note_on_c, 3, 53, 0
10, 325559, Note_on_c, 3, 65, 0
10, 325680, Note_on_c, 3, 53, 32
10, 325680, Note_on_c, 3, 41, 32
10, 325919, Note_on_c, 3, 53, 0
10, 325919, Note_on_c, 3, 41, 0
10, 326040, Note_on_c, 3, 65, 32
10, 326040, Note_on_c, 3, 53, 32
10, 326279, Note_on_c, 3, 65, 0
10, 326279, Note_on_c, 3, 53, 0
10, 326400, Note_on_c, 3, 46, 32
10, 326400, Note_on_c, 3, 34, 32
10, 326639, Note_on_c, 3, 46, 0
10, 326639, Note_on_c, 3, 34, 0
10, 326760, Note_on_c, 3, 58, 32
10, 326760, Note_on_c, 3, 46, 32
10, 326999, Note_on_c, 3, 58, 0
10, 326999, Note_on_c, 3, 46, 0
10, 327120, Note_on_c, 3, 34, 32
10, 327120, Note_on_c, 3, 46, 32
10, 327359, Note_on_c, 3, 34, 0
10, 327359, Note_on_c, 3, 46, 0
10, 327480, Note_on_c, 3, 58, 33
10, 327480, Note_on_c, 3, 46, 33
10, 327719, Note_on_c, 3, 58, 0
10, 327719, Note_on_c, 3, 46, 0
10, 327840, Note_on_c, 3, 53, 33
10, 327840, Note_on_c, 3, 41, 33
10, 328079, Note_on_c, 3, 53, 0
10, 328079, Note_on_c, 3, 41, 0
10, 328200, Note_on_c, 3, 45, 33
10, 328200, Note_on_c, 3, 57, 33
10, 328424, Note_on_c, 3, 45, 0
10, 328424, Note_on_c, 3, 57, 0
10, 328440, Note_on_c, 3, 48, 33
10, 328440, Note_on_c, 3, 60, 33
10, 328544, Note_on_c, 3, 48, 0
10, 328544, Note_on_c, 3, 60, 0
10, 328560, Note_on_c, 3, 53, 34
10, 328560, Note_on_c, 3, 65, 34
10, 328784, Note_on_c, 3, 53, 0
10, 328784, Note_on_c, 3, 65, 0
10, 328800, Note_on_c, 3, 41, 34
10, 328800, Note_on_c, 3, 53, 34
10, 328904, Note_on_c, 3, 41, 0
10, 328904, Note_on_c, 3, 53, 0
10, 328920, Note_on_c, 3, 43, 34
10, 328920, Note_on_c, 3, 55, 34
10, 329144, Note_on_c, 3, 43, 0
10, 329144, Note_on_c, 3, 55, 0
10, 329160, Note_on_c, 3, 45, 34
10, 329160, Note_on_c, 3, 57, 34
10, 329264, Note_on_c, 3, 45, 0
10, 329264, Note_on_c, 3, 57, 0
10, 329280, Note_on_c, 3, 34, 34
10, 329280, Note_on_c, 3, 46, 34
10, 329519, Note_on_c, 3, 34, 0
10, 329519, Note_on_c, 3, 46, 0
10, 329640, Note_on_c, 3, 58, 35
10, 329640, Note_on_c, 3, 46, 35
10, 329879, Note_on_c, 3, 58, 0
10, 329879, Note_on_c, 3, 46, 0
10, 330000, Note_on_c, 3, 46, 35
10, 330000, Note_on_c, 3, 34, 35
10, 330239, Note_on_c, 3, 46, 0
10, 330239, Note_on_c, 3, 34, 0
10, 330360, Note_on_c, 3, 58, 35
10, 330360, Note_on_c, 3, 46, 35
10, 330599, Note_on_c, 3, 58, 0
10, 330599, Note_on_c, 3, 46, 0
10, 330720, Note_on_c, 3, 41, 36
10, 330720, Note_on_c, 3, 53, 36
10, 330959, Note_on_c, 3, 41, 0
10, 330959, Note_on_c, 3, 53, 0
10, 331080, Note_on_c, 3, 53, 36
10, 331080, Note_on_c, 3, 65, 36
10, 331319, Note_on_c, 3, 53, 0
10, 331319, Note_on_c, 3, 65, 0
10, 331440, Note_on_c, 3, 34, 36
10, 331440, Note_on_c, 3, 46, 36
10, 331679, Note_on_c, 3, 34, 0
10, 331679, Note_on_c, 3, 46, 0
10, 332160, Note_on_c, 3, 41, 37
10, 332160, Note_on_c, 3, 53, 37
10, 332399, Note_on_c, 3, 41, 0
10, 332399, Note_on_c, 3, 53, 0
10, 332520, Note_on_c, 3, 53, 37
10, 332520, Note_on_c, 3, 65, 37
10, 332759, Note_on_c, 3, 53, 0
10, 332759, Note_on_c, 3, 65, 0
10, 332880, Note_on_c, 3, 53, 38
10, 332880, Note_on_c, 3, 41, 38
10, 333119, Note_on_c, 3, 53, 0
10, 333119, Note_on_c, 3, 41, 0
10, 333240, Note_on_c, 3, 34, 38
10, 333240, Note_on_c, 3, 46, 38
10, 333479, Note_on_c, 3, 34, 0
10, 333479, Note_on_c, 3, 46, 0
10, 333600, Note_on_c, 3, 41, 38
10, 333600, Note_on_c, 3, 53, 38
10, 333839, Note_on_c, 3, 41, 0
10, 333839, Note_on_c, 3, 53, 0
10, 333960, Note_on_c, 3, 65, 39
10, 333960, Note_on_c, 3, 53, 39
10, 334199, Note_on_c, 3, 65, 0
10, 334199, Note_on_c, 3, 53, 0
10, 334320, Note_on_c, 3, 41, 39
10, 334320, Note_on_c, 3, 53, 39
10, 334559, Note_on_c, 3, 41, 0
10, 334559, Note_on_c, 3, 53, 0
10, 334680, Note_on_c, 3, 34, 39
10, 334680, Note_on_c, 3, 46, 39
10, 334919, Note_on_c, 3, 34, 0
10, 334919, Note_on_c, 3, 46, 0
10, 335040, Note_on_c, 3, 41, 40
10, 335040, Note_on_c, 3, 53, 40
10, 335279, Note_on_c, 3, 41, 0
10, 335279, Note_on_c, 3, 53, 0
10, 335400, Note_on_c, 3, 46, 40
10, 335400, Note_on_c, 3, 58, 40
10, 335639, Note_on_c, 3, 46, 0
10, 335639, Note_on_c, 3, 58, 0
10, 335760, Note_on_c, 3, 41, 40
10, 335760, Note_on_c, 3, 53, 40
10, 335999, Note_on_c, 3, 41, 0
10, 335999, Note_on_c, 3, 53, 0
10, 336120, Note_on_c, 3, 53, 41
10, 336120, Note_on_c, 3, 65, 41
10, 336359, Note_on_c, 3, 53, 0
10, 336359, Note_on_c, 3, 65, 0
10, 336480, Note_on_c, 3, 48, 41
10, 336480, Note_on_c, 3, 36, 41
10, 336719, Note_on_c, 3, 48, 0
10, 336719, Note_on_c, 3, 36, 0
10, 336840, Note_on_c, 3, 48, 41
10, 336840, Note_on_c, 3, 60, 41
10, 337079, Note_on_c, 3, 48, 0
10, 337079, Note_on_c, 3, 60, 0
10, 337200, Note_on_c, 3, 51, 42
10, 337200, Note_on_c, 3, 63, 42
10, 337559, Note_on_c, 3, 51, 0
10, 337559, Note_on_c, 3, 63, 0
10, 337560, Note_on_c, 3, 50, 42
10, 337560, Note_on_c, 3, 62, 42
10, 337799, Note_on_c, 3, 50, 0
10, 337799, Note_on_c, 3, 62, 0
10, 337800, Note_on_c, 3, 60, 42
10, 337800, Note_on_c, 3, 48, 42
10, 337904, Note_on_c, 3, 60, 0
10, 337904, Note_on_c, 3, 48, 0
10, 337920, Note_on_c, 3, 46, 42
10, 337920, Note_on_c, 3, 34, 42
10, 338159, Note_on_c, 3, 46, 0
10, 338159, Note_on_c, 3, 34, 0
10, 338280, Note_on_c, 3, 46, 43
10, 338280, Note_on_c, 3, 58, 43
10, 338519, Note_on_c, 3, 46, 0
10, 338519, Note_on_c, 3, 58, 0
10, 338640, Note_on_c, 3, 44, 43
10, 338640, Note_on_c, 3, 56, 43
10, 338879, Note_on_c, 3, 44, 0
10, 338879, Note_on_c, 3, 56, 0
10, 339000, Note_on_c, 3, 68, 43
10, 339000, Note_on_c, 3, 56, 43
10, 339239, Note_on_c, 3, 68, 0
10, 339239, Note_on_c, 3, 56, 0
10, 339360, Note_on_c, 3, 55, 50
10, 339360, Note_on_c, 3, 43, 50
10, 339599, Note_on_c, 3, 55, 0
10, 339599, Note_on_c, 3, 43, 0
10, 339720, Note_on_c, 3, 67, 50
10, 339720, Note_on_c, 3, 55, 50
10, 339959, Note_on_c, 3, 67, 0
10, 339959, Note_on_c, 3, 55, 0
10, 340080, Note_on_c, 3, 39, 50
10, 340080, Note_on_c, 3, 51, 50
10, 340319, Note_on_c, 3, 39, 0
10, 340319, Note_on_c, 3, 51, 0
10, 340440, Note_on_c, 3, 52, 50
10, 340440, Note_on_c, 3, 40, 50
10, 340679, Note_on_c, 3, 52, 0
10, 340679, Note_on_c, 3, 40, 0
10, 340800, Note_on_c, 3, 41, 50
10, 340800, Note_on_c, 3, 53, 50
10, 341039, Note_on_c, 3, 41, 0
10, 341039, Note_on_c, 3, 53, 0
10, 341160, Note_on_c, 3, 65, 50
10, 341160, Note_on_c, 3, 53, 50
10, 341399, Note_on_c, 3, 65, 0
10, 341399, Note_on_c, 3, 53, 0
10, 341520, Note_on_c, 3, 53, 50
10, 341520, Note_on_c, 3, 41, 50
10, 341759, Note_on_c, 3, 53, 0
10, 341759, Note_on_c, 3, 41, 0
10, 341880, Note_on_c, 3, 53, 50
10, 341880, Note_on_c, 3, 65, 50
10, 342119, Note_on_c, 3, 53, 0
10, 342119, Note_on_c, 3, 65, 0
10, 342240, Note_on_c, 3, 53, 50
10, 342240, Note_on_c, 3, 41, 50
10, 342479, Note_on_c, 3, 53, 0
10, 342479, Note_on_c, 3, 41, 0
10, 342600, Note_on_c, 3, 53, 50
10, 342600, Note_on_c, 3, 65, 50
10, 342839, Note_on_c, 3, 53, 0
10, 342839, Note_on_c, 3, 65, 0
10, 342960, Note_on_c, 3, 46, 50
10, 342960, Note_on_c, 3, 34, 50
10, 343199, Note_on_c, 3, 46, 0
10, 343199, Note_on_c, 3, 34, 0
10, 343680, Note_on_c, 3, 53, 50
10, 343680, Note_on_c, 3, 41, 50
10, 343919, Note_on_c, 3, 53, 0
10, 343919, Note_on_c, 3, 41, 0
10, 344040, Note_on_c, 3, 53, 50
10, 344040, Note_on_c, 3, 65, 50
10, 344279, Note_on_c, 3, 53, 0
10, 344279, Note_on_c, 3, 65, 0
10, 344400, Note_on_c, 3, 53, 50
10, 344400, Note_on_c, 3, 41, 50
10, 344639, Note_on_c, 3, 53, 0
10, 344639, Note_on_c, 3, 41, 0
10, 344760, Note_on_c, 3, 34, 50
10, 344760, Note_on_c, 3, 46, 50
10, 344999, Note_on_c, 3, 34, 0
10, 344999, Note_on_c, 3, 46, 0
10, 345120, Note_on_c, 3, 53, 50
10, 345120, Note_on_c, 3, 41, 50
10, 345359, Note_on_c, 3, 53, 0
10, 345359, Note_on_c, 3, 41, 0
10, 345480, Note_on_c, 3, 53, 50
10, 345480, Note_on_c, 3, 65, 50
10, 345719, Note_on_c, 3, 53, 0
10, 345719, Note_on_c, 3, 65, 0
10, 345840, Note_on_c, 3, 41, 50
10, 345840, Note_on_c, 3, 53, 50
10, 346079, Note_on_c, 3, 41, 0
10, 346079, Note_on_c, 3, 53, 0
10, 346200, Note_on_c, 3, 46, 50
10, 346200, Note_on_c, 3, 34, 50
10, 346439, Note_on_c, 3, 46, 0
10, 346439, Note_on_c, 3, 34, 0
10, 346560, Note_on_c, 3, 41, 68
10, 346560, Note_on_c, 3, 53, 68
10, 346799, Note_on_c, 3, 41, 0
10, 346799, Note_on_c, 3, 53, 0
10, 346920, Note_on_c, 3, 58, 68
10, 346920, Note_on_c, 3, 46, 68
10, 347159, Note_on_c, 3, 58, 0
10, 347159, Note_on_c, 3, 46, 0
10, 347280, Note_on_c, 3, 41, 68
10, 347280, Note_on_c, 3, 53, 68
10, 347519, Note_on_c, 3, 41, 0
10, 347519, Note_on_c, 3, 53, 0
10, 347640, Note_on_c, 3, 65, 68
10, 347640, Note_on_c, 3, 53, 68
10, 347879, Note_on_c, 3, 65, 0
10, 347879, Note_on_c, 3, 53, 0
10, 348000, Note_on_c, 3, 36, 68
10, 348000, Note_on_c, 3, 48, 68
10, 348239, Note_on_c, 3, 36, 0
10, 348239, Note_on_c, 3, 48, 0
10, 348360, Note_on_c, 3, 48, 68
10, 348360, Note_on_c, 3, 60, 68
10, 348599, Note_on_c, 3, 48, 0
10, 348599, Note_on_c, 3, 60, 0
10, 348720, Note_on_c, 3, 51, 68
10, 348720, Note_on_c, 3, 63, 68
10, 349079, Note_on_c, 3, 51, 0
10, 349079, Note_on_c, 3, 63, 0
10, 349080, Note_on_c, 3, 62, 68
10, 349080, Note_on_c, 3, 50, 68
10, 349319, Note_on_c, 3, 62, 0
10, 349319, Note_on_c, 3, 50, 0
10, 349320, Note_on_c, 3, 60, 68
10, 349320, Note_on_c, 3, 48, 68
10, 349424, Note_on_c, 3, 60, 0
10, 349424, Note_on_c, 3, 48, 0
10, 349440, Note_on_c, 3, 46, 68
10, 349440, Note_on_c, 3, 34, 68
10, 349679, Note_on_c, 3, 46, 0
10, 349679, Note_on_c, 3, 34, 0
10, 349800, Note_on_c, 3, 46, 68
10, 349800, Note_on_c, 3, 58, 68
10, 350039, Note_on_c, 3, 46, 0
10, 350039, Note_on_c, 3, 58, 0
10, 350160, Note_on_c, 3, 56, 68
10, 350160, Note_on_c, 3, 44, 68
10, 350399, Note_on_c, 3, 56, 0
10, 350399, Note_on_c, 3, 44, 0
10, 350520, Note_on_c, 3, 56, 68
10, 350520, Note_on_c, 3, 68, 68
10, 350759, Note_on_c, 3, 56, 0
10, 350759, Note_on_c, 3, 68, 0
10, 350880, Note_on_c, 3, 43, 68
10, 350880, Note_on_c, 3, 55, 68
10, 351119, Note_on_c, 3, 43, 0
10, 351119, Note_on_c, 3, 55, 0
10, 351240, Note_on_c, 3, 63, 68
10, 351240, Note_on_c, 3, 55, 68
10, 351479, Note_on_c, 3, 63, 0
10, 351479, Note_on_c, 3, 55, 0
10, 351480, Note_on_c, 3, 65, 68
10, 351480, Note_on_c, 3, 53, 68
10, 351584, Note_on_c, 3, 65, 0
10, 351584, Note_on_c, 3, 53, 0
10, 351600, Note_on_c, 3, 51, 68
10, 351600, Note_on_c, 3, 67, 68
10, 351839, Note_on_c, 3, 51, 0
10, 351839, Note_on_c, 3, 67, 0
10, 351960, Note_on_c, 3, 67, 68
10, 351960, Note_on_c, 3, 52, 68
10, 352199, Note_on_c, 3, 67, 0
10, 352199, Note_on_c, 3, 52, 0
10, 352320, Note_on_c, 3, 41, 80
10, 352320, Note_on_c, 3, 53, 80
10, 352559, Note_on_c, 3, 41, 0
10, 352559, Note_on_c, 3, 53, 0
10, 352680, Note_on_c, 3, 53, 86
10, 352680, Note_on_c, 3, 65, 86
10, 352919, Note_on_c, 3, 53, 0
10, 352919, Note_on_c, 3, 65, 0
10, 353040, Note_on_c, 3, 41, 86
10, 353040, Note_on_c, 3, 53, 86
10, 353279, Note_on_c, 3, 41, 0
10, 353279, Note_on_c, 3, 53, 0
10, 353400, Note_on_c, 3, 65, 86
10, 353400, Note_on_c, 3, 53, 86
10, 353639, Note_on_c, 3, 65, 0
10, 353639, Note_on_c, 3, 53, 0
10, 353760, Note_on_c, 3, 53, 86
10, 353760, Note_on_c, 3, 41, 86
10, 353999, Note_on_c, 3, 53, 0
10, 353999, Note_on_c, 3, 41, 0
10, 354120, Note_on_c, 3, 53, 86
10, 354120, Note_on_c, 3, 65, 86
10, 354359, Note_on_c, 3, 53, 0
10, 354359, Note_on_c, 3, 65, 0
10, 354480, Note_on_c, 3, 46, 86
10, 354480, Note_on_c, 3, 34, 86
10, 354719, Note_on_c, 3, 46, 0
10, 354719, Note_on_c, 3, 34, 0
10, 355200, Note_on_c, 3, 46, 92
10, 355200, Note_on_c, 3, 34, 92
10, 355439, Note_on_c, 3, 46, 0
10, 355439, Note_on_c, 3, 34, 0
10, 355560, Note_on_c, 3, 58, 92
10, 355560, Note_on_c, 3, 46, 92
10, 355799, Note_on_c, 3, 58, 0
10, 355799, Note_on_c, 3, 46, 0
10, 355920, Note_on_c, 3, 46, 92
10, 355920, Note_on_c, 3, 34, 92
10, 356159, Note_on_c, 3, 46, 0
10, 356159, Note_on_c, 3, 34, 0
10, 356280, Note_on_c, 3, 46, 92
10, 356280, Note_on_c, 3, 58, 92
10, 356519, Note_on_c, 3, 46, 0
10, 356519, Note_on_c, 3, 58, 0
10, 356640, Note_on_c, 3, 51, 92
10, 356640, Note_on_c, 3, 39, 92
10, 356879, Note_on_c, 3, 51, 0
10, 356879, Note_on_c, 3, 39, 0
10, 357000, Note_on_c, 3, 63, 92
10, 357000, Note_on_c, 3, 51, 92
10, 357239, Note_on_c, 3, 63, 0
10, 357239, Note_on_c, 3, 51, 0
10, 357360, Note_on_c, 3, 51, 92
10, 357360, Note_on_c, 3, 39, 92
10, 357599, Note_on_c, 3, 51, 0
10, 357599, Note_on_c, 3, 39, 0
10, 357720, Note_on_c, 3, 51, 92
10, 357720, Note_on_c, 3, 67, 92
10, 357959, Note_on_c, 3, 51, 0
10, 357959, Note_on_c, 3, 67, 0
10, 358080, Note_on_c, 3, 53, 92
10, 358080, Note_on_c, 3, 41, 92
10, 358319, Note_on_c, 3, 53, 0
10, 358319, Note_on_c, 3, 41, 0
10, 358440, Note_on_c, 3, 53, 92
10, 358440, Note_on_c, 3, 65, 92
10, 358679, Note_on_c, 3, 53, 0
10, 358679, Note_on_c, 3, 65, 0
10, 358800, Note_on_c, 3, 53, 92
10, 358800, Note_on_c, 3, 41, 92
10, 359039, Note_on_c, 3, 53, 0
10, 359039, Note_on_c, 3, 41, 0
10, 359160, Note_on_c, 3, 65, 92
10, 359160, Note_on_c, 3, 53, 92
10, 359399, Note_on_c, 3, 65, 0
10, 359399, Note_on_c, 3, 53, 0
10, 359520, Note_on_c, 3, 46, 92
10, 359520, Note_on_c, 3, 58, 92
10, 359759, Note_on_c, 3, 46, 0
10, 359759, Note_on_c, 3, 58, 0
10, 359880, Note_on_c, 3, 53, 92
10, 359880, Note_on_c, 3, 41, 92
10, 360119, Note_on_c, 3, 53, 0
10, 360119, Note_on_c, 3, 41, 0
10, 360240, Note_on_c, 3, 62, 92
10, 360240, Note_on_c, 3, 58, 92
10, 360359, Note_on_c, 3, 62, 0
10, 360359, Note_on_c, 3, 58, 0
10, 360360, Note_on_c, 3, 60, 92
10, 360360, Note_on_c, 3, 63, 92
10, 360479, Note_on_c, 3, 60, 0
10, 360479, Note_on_c, 3, 63, 0
10, 360480, Note_on_c, 3, 65, 92
10, 360480, Note_on_c, 3, 62, 92
10, 360719, Note_on_c, 3, 65, 0
10, 360719, Note_on_c, 3, 62, 0
10, 360720, Note_on_c, 3, 60, 92
10, 360720, Note_on_c, 3, 63, 92
10, 360839, Note_on_c, 3, 60, 0
10, 360839, Note_on_c, 3, 63, 0
10, 360840, Note_on_c, 3, 60, 92
10, 360840, Note_on_c, 3, 57, 92
10, 360944, Note_on_c, 3, 60, 0
10, 360944, Note_on_c, 3, 57, 0
10, 360960, Note_on_c, 3, 62, 92
10, 361064, Note_on_c, 3, 62, 0
10, 361080, Note_on_c, 3, 62, 92
10, 361184, Note_on_c, 3, 62, 0
10, 361200, Note_on_c, 3, 62, 92
10, 361304, Note_on_c, 3, 62, 0
10, 361320, Note_on_c, 3, 62, 92
10, 361424, Note_on_c, 3, 62, 0
10, 361440, Note_on_c, 3, 63, 92
10, 361544, Note_on_c, 3, 63, 0
10, 361560, Note_on_c, 3, 65, 92
10, 361664, Note_on_c, 3, 65, 0
10, 361680, Note_on_c, 3, 65, 92
10, 361784, Note_on_c, 3, 65, 0
10, 361800, Note_on_c, 3, 67, 92
10, 361904, Note_on_c, 3, 67, 0
10, 361920, Note_on_c, 3, 65, 92
10, 362024, Note_on_c, 3, 65, 0
10, 362040, Note_on_c, 3, 63, 92
10, 362144, Note_on_c, 3, 63, 0
10, 362160, Note_on_c, 3, 62, 92
10, 362264, Note_on_c, 3, 62, 0
10, 362280, Note_on_c, 3, 60, 92
10, 362384, Note_on_c, 3, 60, 0
10, 362400, Note_on_c, 3, 58, 92
10, 362504, Note_on_c, 3, 58, 0
10, 362520, Note_on_c, 3, 57, 92
10, 362624, Note_on_c, 3, 57, 0
10, 362640, Note_on_c, 3, 58, 92
10, 362744, Note_on_c, 3, 58, 0
10, 362760, Note_on_c, 3, 59, 92
10, 362864, Note_on_c, 3, 59, 0
10, 362880, Note_on_c, 3, 60, 92
10, 362984, Note_on_c, 3, 60, 0
10, 363000, Note_on_c, 3, 62, 92
10, 363104, Note_on_c, 3, 62, 0
10, 363120, Note_on_c, 3, 60, 92
10, 363224, Note_on_c, 3, 60, 0
10, 363240, Note_on_c, 3, 53, 92
10, 363344, Note_on_c, 3, 53, 0
10, 363360, Note_on_c, 3, 53, 92
10, 363464, Note_on_c, 3, 53, 0
10, 363480, Note_on_c, 3, 58, 92
10, 363584, Note_on_c, 3, 58, 0
10, 363600, Note_on_c, 3, 46, 92
10, 363704, Note_on_c, 3, 46, 0
10, 363720, Note_on_c, 3, 46, 92
10, 363824, Note_on_c, 3, 46, 0
10, 363840, Note_on_c, 3, 65, 92
10, 364064, Note_on_c, 3, 65, 0
10, 364080, Note_on_c, 3, 41, 92
10, 364080, Note_on_c, 3, 53, 92
10, 364184, Note_on_c, 3, 41, 0
10, 364184, Note_on_c, 3, 53, 0
10, 364200, Note_on_c, 3, 41, 100
10, 364200, Note_on_c, 3, 53, 100
10, 364260, Control_c, 3, 11, 107
10, 364559, Note_on_c, 3, 41, 0
10, 364559, Note_on_c, 3, 53, 0
10, 364798, Control_c, 3, 11, 127
10, 364800, Note_on_c, 3, 55, 92
10, 364800, Note_on_c, 3, 43, 92
10, 364904, Note_on_c, 3, 55, 0
10, 364904, Note_on_c, 3, 43, 0
10, 364920, Note_on_c, 3, 43, 100
10, 364920, Note_on_c, 3, 55, 100
10, 364980, Control_c, 3, 11, 107
10, 365504, Note_on_c, 3, 43, 0
10, 365504, Note_on_c, 3, 55, 0
10, 365518, Control_c, 3, 11, 127
10, 365520, Note_on_c, 3, 45, 92
10, 365520, Note_on_c, 3, 57, 92
10, 365624, Note_on_c, 3, 45, 0
10, 365624, Note_on_c, 3, 57, 0
10, 365640, Note_on_c, 3, 62, 92
10, 365640, Note_on_c, 3, 50, 92
10, 365864, Note_on_c, 3, 62, 0
10, 365864, Note_on_c, 3, 50, 0
10, 365880, Note_on_c, 3, 48, 92
10, 365880, Note_on_c, 3, 60, 92
10, 365984, Note_on_c, 3, 48, 0
10, 365984, Note_on_c, 3, 60, 0
10, 366000, Note_on_c, 3, 46, 92
10, 366000, Note_on_c, 3, 58, 92
10, 366239, Note_on_c, 3, 46, 0
10, 366239, Note_on_c, 3, 58, 0
10, 366360, Note_on_c, 3, 45, 92
10, 366360, Note_on_c, 3, 57, 92
10, 366599, Note_on_c, 3, 45, 0
10, 366599, Note_on_c, 3, 57, 0
10, 366720, Note_on_c, 3, 45, 92
10, 366720, Note_on_c, 3, 57, 92
10, 366959, Note_on_c, 3, 45, 0
10, 366959, Note_on_c, 3, 57, 0
10, 367080, Note_on_c, 3, 55, 92
10, 367080, Note_on_c, 3, 43, 92
10, 367319, Note_on_c, 3, 55, 0
10, 367319, Note_on_c, 3, 43, 0
10, 367440, Note_on_c, 3, 55, 92
10, 367440, Note_on_c, 3, 43, 92
10, 367679, Note_on_c, 3, 55, 0
10, 367679, Note_on_c, 3, 43, 0
10, 367800, Note_on_c, 3, 54, 92
10, 367800, Note_on_c, 3, 42, 92
10, 368039, Note_on_c, 3, 54, 0
10, 368039, Note_on_c, 3, 42, 0
10, 368160, Note_on_c, 3, 43, 92
10, 368160, Note_on_c, 3, 55, 92
10, 368399, Note_on_c, 3, 43, 0
10, 368399, Note_on_c, 3, 55, 0
10, 373440, Note_on_c, 3, 65, 92
10, 373544, Note_on_c, 3, 65, 0
10, 373560, Note_on_c, 3, 67, 92
10, 373784, Note_on_c, 3, 67, 0
10, 373800, Note_on_c, 3, 55, 92
10, 373904, Note_on_c, 3, 55, 0
10, 373920, Note_on_c, 3, 60, 92
10, 374159, Note_on_c, 3, 60, 0
10, 376320, Note_on_c, 3, 55, 92
10, 376424, Note_on_c, 3, 55, 0
10, 376440, Note_on_c, 3, 60, 92
10, 376664, Note_on_c, 3, 60, 0
10, 376680, Note_on_c, 3, 48, 92
10, 376784, Note_on_c, 3, 48, 0
10, 376800, Note_on_c, 3, 62, 92
10, 377039, Note_on_c, 3, 62, 0
10, 377160, Note_on_c, 3, 58, 92
10, 377744, Note_on_c, 3, 58, 0
10, 377760, Note_on_c, 3, 41, 92
10, 377760, Note_on_c, 3, 53, 92
10, 377864, Note_on_c, 3, 41, 0
10, 377864, Note_on_c, 3, 53, 0
10, 377880, Note_on_c, 3, 46, 92
10, 377880, Note_on_c, 3, 58, 92
10, 378104, Note_on_c, 3, 46, 0
10, 378104, Note_on_c, 3, 58, 0
10, 378120, Note_on_c, 3, 56, 92
10, 378120, Note_on_c, 3, 44, 92
10, 378224, Note_on_c, 3, 56, 0
10, 378224, Note_on_c, 3, 44, 0
10, 378240, Note_on_c, 3, 55, 92
10, 378240, Note_on_c, 3, 43, 92
10, 378344, Note_on_c, 3, 55, 0
10, 378344, Note_on_c, 3, 43, 0
10, 378360, Note_on_c, 3, 56, 92
10, 378360, Note_on_c, 3, 44, 92
10, 378464, Note_on_c, 3, 56, 0
10, 378464, Note_on_c, 3, 44, 0
10, 378480, Note_on_c, 3, 58, 92
10, 378480, Note_on_c, 3, 46, 92
10, 378584, Note_on_c, 3, 58, 0
10, 378584, Note_on_c, 3, 46, 0
10, 378600, Note_on_c, 3, 46, 92
10, 378600, Note_on_c, 3, 58, 92
10, 378704, Note_on_c, 3, 46, 0
10, 378704, Note_on_c, 3, 58, 0
10, 378720, Note_on_c, 3, 58, 92
10, 378720, Note_on_c, 3, 46, 92
10, 378824, Note_on_c, 3, 58, 0
10, 378824, Note_on_c, 3, 46, 0
10, 378840, Note_on_c, 3, 58, 92
10, 378840, Note_on_c, 3, 46, 92
10, 378944, Note_on_c, 3, 58, 0
10, 378944, Note_on_c, 3, 46, 0
10, 378960, Note_on_c, 3, 58, 92
10, 378960, Note_on_c, 3, 46, 92
10, 379064, Note_on_c, 3, 58, 0
10, 379064, Note_on_c, 3, 46, 0
10, 379080, Note_on_c, 3, 60, 92
10, 379080, Note_on_c, 3, 48, 92
10, 379184, Note_on_c, 3, 60, 0
10, 379184, Note_on_c, 3, 48, 0
10, 379200, Note_on_c, 3, 58, 92
10, 379200, Note_on_c, 3, 46, 92
10, 379304, Note_on_c, 3, 58, 0
10, 379304, Note_on_c, 3, 46, 0
10, 379320, Note_on_c, 3, 56, 92
10, 379320, Note_on_c, 3, 44, 92
10, 379424, Note_on_c, 3, 56, 0
10, 379424, Note_on_c, 3, 44, 0
10, 379440, Note_on_c, 3, 43, 92
10, 379440, Note_on_c, 3, 55, 92
10, 379544, Note_on_c, 3, 43, 0
10, 379544, Note_on_c, 3, 55, 0
10, 379560, Note_on_c, 3, 41, 92
10, 379560, Note_on_c, 3, 53, 92
10, 379664, Note_on_c, 3, 41, 0
10, 379664, Note_on_c, 3, 53, 0
10, 379680, Note_on_c, 3, 39, 92
10, 379680, Note_on_c, 3, 51, 92
10, 379784, Note_on_c, 3, 39, 0
10, 379784, Note_on_c, 3, 51, 0
10, 379800, Note_on_c, 3, 53, 92
10, 379800, Note_on_c, 3, 41, 92
10, 379904, Note_on_c, 3, 53, 0
10, 379904, Note_on_c, 3, 41, 0
10, 379920, Note_on_c, 3, 51, 92
10, 379920, Note_on_c, 3, 39, 92
10, 380024, Note_on_c, 3, 51, 0
10, 380024, Note_on_c, 3, 39, 0
10, 380040, Note_on_c, 3, 52, 92
10, 380040, Note_on_c, 3, 40, 92
10, 380144, Note_on_c, 3, 52, 0
10, 380144, Note_on_c, 3, 40, 0
10, 380160, Note_on_c, 3, 53, 92
10, 380160, Note_on_c, 3, 41, 92
10, 380264, Note_on_c, 3, 53, 0
10, 380264, Note_on_c, 3, 41, 0
10, 380280, Note_on_c, 3, 55, 92
10, 380280, Note_on_c, 3, 43, 92
10, 380384, Note_on_c, 3, 55, 0
10, 380384, Note_on_c, 3, 43, 0
10, 380400, Note_on_c, 3, 41, 92
10, 380400, Note_on_c, 3, 53, 92
10, 380504, Note_on_c, 3, 41, 0
10, 380504, Note_on_c, 3, 53, 0
10, 380520, Note_on_c, 3, 36, 92
10, 380520, Note_on_c, 3, 48, 92
10, 380624, Note_on_c, 3, 36, 0
10, 380624, Note_on_c, 3, 48, 0
10, 380640, Note_on_c, 3, 36, 92
10, 380640, Note_on_c, 3, 48, 92
10, 380744, Note_on_c, 3, 36, 0
10, 380744, Note_on_c, 3, 48, 0
10, 380760, Note_on_c, 3, 48, 92
10, 380760, Note_on_c, 3, 60, 92
10, 380864, Note_on_c, 3, 48, 0
10, 380864, Note_on_c, 3, 60, 0
10, 380880, Note_on_c, 3, 48, 92
10, 380880, Note_on_c, 3, 36, 92
10, 380984, Note_on_c, 3, 48, 0
10, 380984, Note_on_c, 3, 36, 0
10, 381000, Note_on_c, 3, 36, 92
10, 381000, Note_on_c, 3, 48, 92
10, 381104, Note_on_c, 3, 36, 0
10, 381104, Note_on_c, 3, 48, 0
10, 381120, Note_on_c, 3, 60, 92
10, 381120, Note_on_c, 3, 48, 92
10, 381224, Note_on_c, 3, 60, 0
10, 381224, Note_on_c, 3, 48, 0
10, 381240, Note_on_c, 3, 41, 92
10, 381240, Note_on_c, 3, 53, 92
10, 381344, Note_on_c, 3, 41, 0
10, 381344, Note_on_c, 3, 53, 0
10, 381360, Note_on_c, 3, 56, 92
10, 381464, Note_on_c, 3, 56, 0
10, 381480, Note_on_c, 3, 61, 92
10, 381704, Note_on_c, 3, 61, 0
10, 381720, Note_on_c, 3, 60, 92
10, 381824, Note_on_c, 3, 60, 0
10, 381840, Note_on_c, 3, 58, 92
10, 382079, Note_on_c, 3, 58, 0
10, 382200, Note_on_c, 3, 56, 92
10, 382439, Note_on_c, 3, 56, 0
10, 382800, Note_on_c, 3, 58, 92
10, 382904, Note_on_c, 3, 58, 0
10, 382920, Note_on_c, 3, 63, 92
10, 383144, Note_on_c, 3, 63, 0
10, 383160, Note_on_c, 3, 61, 92
10, 383264, Note_on_c, 3, 61, 0
10, 383280, Note_on_c, 3, 60, 92
10, 383504, Note_on_c, 3, 60, 0
10, 383520, Note_on_c, 3, 60, 92
10, 383864, Note_on_c, 3, 60, 0
10, 383880, Note_on_c, 3, 58, 92
10, 383984, Note_on_c, 3, 58, 0
10, 384000, Note_on_c, 3, 66, 92
10, 384000, Note_on_c, 3, 60, 92
10, 384104, Note_on_c, 3, 66, 0
10, 384104, Note_on_c, 3, 60, 0
10, 384120, Note_on_c, 3, 63, 92
10, 384120, Note_on_c, 3, 66, 92
10, 384224, Note_on_c, 3, 63, 0
10, 384224, Note_on_c, 3, 66, 0
10, 384240, Note_on_c, 3, 63, 92
10, 384240, Note_on_c, 3, 66, 92
10, 384344, Note_on_c, 3, 63, 0
10, 384344, Note_on_c, 3, 66, 0
10, 384360, Note_on_c, 3, 66, 92
10, 384360, Note_on_c, 3, 63, 92
10, 384464, Note_on_c, 3, 66, 0
10, 384464, Note_on_c, 3, 63, 0
10, 384480, Note_on_c, 3, 61, 92
10, 384480, Note_on_c, 3, 65, 92
10, 384584, Note_on_c, 3, 61, 0
10, 384584, Note_on_c, 3, 65, 0
10, 384600, Note_on_c, 3, 63, 92
10, 384600, Note_on_c, 3, 60, 92
10, 384704, Note_on_c, 3, 63, 0
10, 384704, Note_on_c, 3, 60, 0
10, 384720, Note_on_c, 3, 60, 92
10, 384720, Note_on_c, 3, 63, 92
10, 384824, Note_on_c, 3, 60, 0
10, 384824, Note_on_c, 3, 63, 0
10, 384840, Note_on_c, 3, 63, 92
10, 384840, Note_on_c, 3, 60, 92
10, 384944, Note_on_c, 3, 63, 0
10, 384944, Note_on_c, 3, 60, 0
10, 384960, Note_on_c, 3, 60, 92
10, 384960, Note_on_c, 3, 63, 92
10, 385064, Note_on_c, 3, 60, 0
10, 385064, Note_on_c, 3, 63, 0
10, 385080, Note_on_c, 3, 60, 92
10, 385080, Note_on_c, 3, 63, 92
10, 385184, Note_on_c, 3, 60, 0
10, 385184, Note_on_c, 3, 63, 0
10, 385200, Note_on_c, 3, 61, 92
10, 385200, Note_on_c, 3, 65, 92
10, 385304, Note_on_c, 3, 61, 0
10, 385304, Note_on_c, 3, 65, 0
10, 385320, Note_on_c, 3, 63, 92
10, 385320, Note_on_c, 3, 66, 92
10, 385424, Note_on_c, 3, 63, 0
10, 385424, Note_on_c, 3, 66, 0
10, 385440, Note_on_c, 3, 53, 92
10, 385440, Note_on_c, 3, 65, 92
10, 385544, Note_on_c, 3, 53, 0
10, 385544, Note_on_c, 3, 65, 0
10, 385560, Note_on_c, 3, 61, 92
10, 385560, Note_on_c, 3, 65, 92
10, 385664, Note_on_c, 3, 61, 0
10, 385664, Note_on_c, 3, 65, 0
10, 385680, Note_on_c, 3, 61, 92
10, 385680, Note_on_c, 3, 65, 92
10, 385784, Note_on_c, 3, 61, 0
10, 385784, Note_on_c, 3, 65, 0
10, 385800, Note_on_c, 3, 61, 92
10, 385800, Note_on_c, 3, 65, 92
10, 385904, Note_on_c, 3, 61, 0
10, 385904, Note_on_c, 3, 65, 0
10, 385920, Note_on_c, 3, 60, 92
10, 385920, Note_on_c, 3, 63, 92
10, 386024, Note_on_c, 3, 60, 0
10, 386024, Note_on_c, 3, 63, 0
10, 386040, Note_on_c, 3, 58, 92
10, 386040, Note_on_c, 3, 61, 92
10, 386144, Note_on_c, 3, 58, 0
10, 386144, Note_on_c, 3, 61, 0
10, 386160, Note_on_c, 3, 61, 92
10, 386160, Note_on_c, 3, 58, 92
10, 386264, Note_on_c, 3, 61, 0
10, 386264, Note_on_c, 3, 58, 0
10, 386280, Note_on_c, 3, 61, 92
10, 386280, Note_on_c, 3, 58, 92
10, 386384, Note_on_c, 3, 61, 0
10, 386384, Note_on_c, 3, 58, 0
10, 386400, Note_on_c, 3, 61, 92
10, 386400, Note_on_c, 3, 58, 92
10, 386504, Note_on_c, 3, 61, 0
10, 386504, Note_on_c, 3, 58, 0
10, 386520, Note_on_c, 3, 61, 92
10, 386520, Note_on_c, 3, 58, 92
10, 386624, Note_on_c, 3, 61, 0
10, 386624, Note_on_c, 3, 58, 0
10, 386640, Note_on_c, 3, 63, 92
10, 386640, Note_on_c, 3, 60, 92
10, 386744, Note_on_c, 3, 63, 0
10, 386744, Note_on_c, 3, 60, 0
10, 386760, Note_on_c, 3, 65, 92
10, 386760, Note_on_c, 3, 61, 92
10, 386864, Note_on_c, 3, 65, 0
10, 386864, Note_on_c, 3, 61, 0
10, 386880, Note_on_c, 3, 63, 92
10, 386880, Note_on_c, 3, 66, 92
10, 386984, Note_on_c, 3, 63, 0
10, 386984, Note_on_c, 3, 66, 0
10, 387000, Note_on_c, 3, 66, 92
10, 387000, Note_on_c, 3, 63, 92
10, 387104, Note_on_c, 3, 66, 0
10, 387104, Note_on_c, 3, 63, 0
10, 387120, Note_on_c, 3, 66, 92
10, 387120, Note_on_c, 3, 63, 92
10, 387224, Note_on_c, 3, 66, 0
10, 387224, Note_on_c, 3, 63, 0
10, 387240, Note_on_c, 3, 66, 92
10, 387240, Note_on_c, 3, 63, 92
10, 387344, Note_on_c, 3, 66, 0
10, 387344, Note_on_c, 3, 63, 0
10, 387360, Note_on_c, 3, 65, 92
10, 387360, Note_on_c, 3, 61, 92
10, 387464, Note_on_c, 3, 65, 0
10, 387464, Note_on_c, 3, 61, 0
10, 387480, Note_on_c, 3, 63, 92
10, 387480, Note_on_c, 3, 60, 92
10, 387584, Note_on_c, 3, 63, 0
10, 387584, Note_on_c, 3, 60, 0
10, 387600, Note_on_c, 3, 63, 92
10, 387600, Note_on_c, 3, 54, 92
10, 387704, Note_on_c, 3, 63, 0
10, 387704, Note_on_c, 3, 54, 0
10, 387720, Note_on_c, 3, 61, 92
10, 387720, Note_on_c, 3, 53, 92
10, 387824, Note_on_c, 3, 61, 0
10, 387824, Note_on_c, 3, 53, 0
10, 387840, Note_on_c, 3, 60, 92
10, 387840, Note_on_c, 3, 51, 92
10, 387944, Note_on_c, 3, 60, 0
10, 387944, Note_on_c, 3, 51, 0
10, 387960, Note_on_c, 3, 60, 92
10, 387960, Note_on_c, 3, 51, 92
10, 388064, Note_on_c, 3, 60, 0
10, 388064, Note_on_c, 3, 51, 0
10, 388080, Note_on_c, 3, 63, 92
10, 388080, Note_on_c, 3, 60, 92
10, 388184, Note_on_c, 3, 63, 0
10, 388184, Note_on_c, 3, 60, 0
10, 388200, Note_on_c, 3, 63, 92
10, 388200, Note_on_c, 3, 60, 92
10, 388304, Note_on_c, 3, 63, 0
10, 388304, Note_on_c, 3, 60, 0
10, 388320, Note_on_c, 3, 61, 92
10, 388320, Note_on_c, 3, 58, 92
10, 388544, Note_on_c, 3, 61, 0
10, 388544, Note_on_c, 3, 58, 0
10, 388560, Note_on_c, 3, 34, 92
10, 388560, Note_on_c, 3, 46, 92
10, 388664, Note_on_c, 3, 34, 0
10, 388664, Note_on_c, 3, 46, 0
10, 388680, Note_on_c, 3, 34, 100
10, 388680, Note_on_c, 3, 46, 100
10, 388740, Control_c, 3, 11, 107
10, 389039, Note_on_c, 3, 34, 0
10, 389039, Note_on_c, 3, 46, 0
10, 389278, Control_c, 3, 11, 127
10, 389280, Note_on_c, 3, 48, 92
10, 389280, Note_on_c, 3, 36, 92
10, 389384, Note_on_c, 3, 48, 0
10, 389384, Note_on_c, 3, 36, 0
10, 389400, Note_on_c, 3, 36, 100
10, 389400, Note_on_c, 3, 48, 100
10, 389460, Control_c, 3, 11, 107
10, 389759, Note_on_c, 3, 36, 0
10, 389759, Note_on_c, 3, 48, 0
10, 389998, Control_c, 3, 11, 127
10, 390000, Note_on_c, 3, 49, 92
10, 390104, Note_on_c, 3, 49, 0
10, 390120, Note_on_c, 3, 42, 92
10, 390120, Note_on_c, 3, 54, 92
10, 390344, Note_on_c, 3, 42, 0
10, 390344, Note_on_c, 3, 54, 0
10, 390360, Note_on_c, 3, 41, 92
10, 390360, Note_on_c, 3, 53, 92
10, 390464, Note_on_c, 3, 41, 0
10, 390464, Note_on_c, 3, 53, 0
10, 390480, Note_on_c, 3, 51, 92
10, 390480, Note_on_c, 3, 39, 92
10, 390704, Note_on_c, 3, 51, 0
10, 390704, Note_on_c, 3, 39, 0
10, 390720, Note_on_c, 3, 51, 92
10, 390720, Note_on_c, 3, 39, 92
10, 390824, Note_on_c, 3, 51, 0
10, 390824, Note_on_c, 3, 39, 0
10, 390840, Note_on_c, 3, 44, 92
10, 390840, Note_on_c, 3, 56, 92
10, 391064, Note_on_c, 3, 44, 0
10, 391064, Note_on_c, 3, 56, 0
10, 391080, Note_on_c, 3, 42, 92
10, 391080, Note_on_c, 3, 54, 92
10, 391184, Note_on_c, 3, 42, 0
10, 391184, Note_on_c, 3, 54, 0
10, 391200, Note_on_c, 3, 41, 92
10, 391200, Note_on_c, 3, 53, 92
10, 391424, Note_on_c, 3, 41, 0
10, 391424, Note_on_c, 3, 53, 0
10, 391440, Note_on_c, 3, 41, 92
10, 391440, Note_on_c, 3, 53, 92
10, 391544, Note_on_c, 3, 41, 0
10, 391544, Note_on_c, 3, 53, 0
10, 391560, Note_on_c, 3, 58, 92
10, 391560, Note_on_c, 3, 46, 92
10, 391784, Note_on_c, 3, 58, 0
10, 391784, Note_on_c, 3, 46, 0
10, 391800, Note_on_c, 3, 56, 92
10, 391800, Note_on_c, 3, 44, 92
10, 391904, Note_on_c, 3, 56, 0
10, 391904, Note_on_c, 3, 44, 0
10, 391920, Note_on_c, 3, 54, 92
10, 391920, Note_on_c, 3, 42, 92
10, 392144, Note_on_c, 3, 54, 0
10, 392144, Note_on_c, 3, 42, 0
10, 392160, Note_on_c, 3, 42, 92
10, 392160, Note_on_c, 3, 54, 92
10, 392264, Note_on_c, 3, 42, 0
10, 392264, Note_on_c, 3, 54, 0
10, 392280, Note_on_c, 3, 47, 92
10, 392280, Note_on_c, 3, 59, 92
10, 392504, Note_on_c, 3, 47, 0
10, 392504, Note_on_c, 3, 59, 0
10, 392520, Note_on_c, 3, 58, 92
10, 392520, Note_on_c, 3, 46, 92
10, 392624, Note_on_c, 3, 58, 0
10, 392624, Note_on_c, 3, 46, 0
10, 392640, Note_on_c, 3, 44, 92
10, 392640, Note_on_c, 3, 56, 92
10, 392864, Note_on_c, 3, 44, 0
10, 392864, Note_on_c, 3, 56, 0
10, 392880, Note_on_c, 3, 56, 92
10, 392880, Note_on_c, 3, 44, 92
10, 392984, Note_on_c, 3, 56, 0
10, 392984, Note_on_c, 3, 44, 0
10, 393000, Note_on_c, 3, 49, 92
10, 393000, Note_on_c, 3, 61, 92
10, 393224, Note_on_c, 3, 49, 0
10, 393224, Note_on_c, 3, 61, 0
10, 393240, Note_on_c, 3, 59, 92
10, 393240, Note_on_c, 3, 47, 92
10, 393344, Note_on_c, 3, 59, 0
10, 393344, Note_on_c, 3, 47, 0
10, 393360, Note_on_c, 3, 58, 92
10, 393360, Note_on_c, 3, 46, 92
10, 393464, Note_on_c, 3, 58, 0
10, 393464, Note_on_c, 3, 46, 0
10, 393480, Note_on_c, 3, 56, 92
10, 393480, Note_on_c, 3, 44, 92
10, 393584, Note_on_c, 3, 56, 0
10, 393584, Note_on_c, 3, 44, 0
10, 393600, Note_on_c, 3, 42, 92
10, 393600, Note_on_c, 3, 54, 92
10, 393704, Note_on_c, 3, 42, 0
10, 393704, Note_on_c, 3, 54, 0
10, 393720, Note_on_c, 3, 61, 92
10, 393720, Note_on_c, 3, 49, 92
10, 393824, Note_on_c, 3, 61, 0
10, 393824, Note_on_c, 3, 49, 0
10, 393840, Note_on_c, 3, 58, 92
10, 393840, Note_on_c, 3, 54, 92
10, 393944, Note_on_c, 3, 58, 0
10, 393944, Note_on_c, 3, 54, 0
10, 393960, Note_on_c, 3, 54, 92
10, 393960, Note_on_c, 3, 58, 92
10, 394064, Note_on_c, 3, 54, 0
10, 394064, Note_on_c, 3, 58, 0
10, 394080, Note_on_c, 3, 58, 92
10, 394080, Note_on_c, 3, 54, 92
10, 394184, Note_on_c, 3, 58, 0
10, 394200, Note_on_c, 3, 59, 92
10, 394304, Note_on_c, 3, 59, 0
10, 394319, Note_on_c, 3, 54, 0
10, 394320, Note_on_c, 3, 61, 92
10, 394424, Note_on_c, 3, 61, 0
10, 394440, Note_on_c, 3, 61, 92
10, 394544, Note_on_c, 3, 61, 0
10, 394560, Note_on_c, 3, 63, 92
10, 394664, Note_on_c, 3, 63, 0
10, 394680, Note_on_c, 3, 61, 92
10, 394784, Note_on_c, 3, 61, 0
10, 394800, Note_on_c, 3, 59, 92
10, 394904, Note_on_c, 3, 59, 0
10, 394920, Note_on_c, 3, 58, 92
10, 395024, Note_on_c, 3, 58, 0
10, 395040, Note_on_c, 3, 56, 92
10, 395144, Note_on_c, 3, 56, 0
10, 395160, Note_on_c, 3, 54, 92
10, 395399, Note_on_c, 3, 54, 0
10, 400200, Note_on_c, 3, 58, 92
10, 400304, Note_on_c, 3, 58, 0
10, 400320, Note_on_c, 3, 58, 92
10, 400424, Note_on_c, 3, 58, 0
10, 400440, Note_on_c, 3, 58, 92
10, 400544, Note_on_c, 3, 58, 0
10, 400560, Note_on_c, 3, 58, 92
10, 400664, Note_on_c, 3, 58, 0
10, 400680, Note_on_c, 3, 60, 92
10, 400784, Note_on_c, 3, 60, 0
10, 400800, Note_on_c, 3, 61, 92
10, 400904, Note_on_c, 3, 61, 0
10, 400920, Note_on_c, 3, 61, 92
10, 401024, Note_on_c, 3, 61, 0
10, 401040, Note_on_c, 3, 60, 92
10, 401144, Note_on_c, 3, 60, 0
10, 401160, Note_on_c, 3, 58, 92
10, 401279, Note_on_c, 3, 58, 0
10, 401640, Note_on_c, 3, 58, 92
10, 401744, Note_on_c, 3, 58, 0
10, 401760, Note_on_c, 3, 58, 92
10, 401864, Note_on_c, 3, 58, 0
10, 401880, Note_on_c, 3, 58, 92
10, 401984, Note_on_c, 3, 58, 0
10, 402000, Note_on_c, 3, 58, 92
10, 402104, Note_on_c, 3, 58, 0
10, 402120, Note_on_c, 3, 59, 92
10, 402224, Note_on_c, 3, 59, 0
10, 402240, Note_on_c, 3, 61, 92
10, 402344, Note_on_c, 3, 61, 0
10, 402360, Note_on_c, 3, 61, 92
10, 402464, Note_on_c, 3, 61, 0
10, 402480, Note_on_c, 3, 59, 92
10, 402584, Note_on_c, 3, 59, 0
10, 402600, Note_on_c, 3, 58, 92
10, 402719, Note_on_c, 3, 58, 0
10, 403080, Note_on_c, 3, 58, 92
10, 403184, Note_on_c, 3, 58, 0
10, 403200, Note_on_c, 3, 58, 92
10, 403304, Note_on_c, 3, 58, 0
10, 403320, Note_on_c, 3, 58, 92
10, 403424, Note_on_c, 3, 58, 0
10, 403440, Note_on_c, 3, 58, 92
10, 403544, Note_on_c, 3, 58, 0
10, 403560, Note_on_c, 3, 59, 92
10, 403664, Note_on_c, 3, 59, 0
10, 403680, Note_on_c, 3, 61, 92
10, 403784, Note_on_c, 3, 61, 0
10, 403800, Note_on_c, 3, 64, 92
10, 403800, Note_on_c, 3, 61, 92
10, 403904, Note_on_c, 3, 64, 0
10, 403904, Note_on_c, 3, 61, 0
10, 403920, Note_on_c, 3, 66, 92
10, 403920, Note_on_c, 3, 62, 92
10, 404024, Note_on_c, 3, 66, 0
10, 404024, Note_on_c, 3, 62, 0
10, 404040, Note_on_c, 3, 67, 92
10, 404040, Note_on_c, 3, 64, 92
10, 404144, Note_on_c, 3, 67, 0
10, 404144, Note_on_c, 3, 64, 0
10, 404160, Note_on_c, 3, 66, 92
10, 404160, Note_on_c, 3, 62, 92
10, 404264, Note_on_c, 3, 66, 0
10, 404264, Note_on_c, 3, 62, 0
10, 404280, Note_on_c, 3, 50, 92
10, 404280, Note_on_c, 3, 62, 92
10, 404384, Note_on_c, 3, 50, 0
10, 404384, Note_on_c, 3, 62, 0
10, 404400, Note_on_c, 3, 62, 92
10, 404400, Note_on_c, 3, 50, 92
10, 404504, Note_on_c, 3, 62, 0
10, 404504, Note_on_c, 3, 50, 0
10, 404520, Note_on_c, 3, 50, 92
10, 404520, Note_on_c, 3, 62, 92
10, 404624, Note_on_c, 3, 50, 0
10, 404624, Note_on_c, 3, 62, 0
10, 404640, Note_on_c, 3, 64, 92
10, 404640, Note_on_c, 3, 52, 92
10, 404744, Note_on_c, 3, 64, 0
10, 404744, Note_on_c, 3, 52, 0
10, 404760, Note_on_c, 3, 66, 92
10, 404760, Note_on_c, 3, 54, 92
10, 404864, Note_on_c, 3, 66, 0
10, 404864, Note_on_c, 3, 54, 0
10, 404880, Note_on_c, 3, 54, 92
10, 404880, Note_on_c, 3, 66, 92
10, 404984, Note_on_c, 3, 54, 0
10, 404984, Note_on_c, 3, 66, 0
10, 405000, Note_on_c, 3, 67, 92
10, 405000, Note_on_c, 3, 55, 92
10, 405104, Note_on_c, 3, 67, 0
10, 405104, Note_on_c, 3, 55, 0
10, 405120, Note_on_c, 3, 54, 92
10, 405120, Note_on_c, 3, 66, 92
10, 405224, Note_on_c, 3, 54, 0
10, 405224, Note_on_c, 3, 66, 0
10, 405240, Note_on_c, 3, 64, 92
10, 405240, Note_on_c, 3, 52, 92
10, 405344, Note_on_c, 3, 64, 0
10, 405344, Note_on_c, 3, 52, 0
10, 405360, Note_on_c, 3, 62, 92
10, 405360, Note_on_c, 3, 50, 92
10, 405464, Note_on_c, 3, 62, 0
10, 405464, Note_on_c, 3, 50, 0
10, 405480, Note_on_c, 3, 61, 92
10, 405480, Note_on_c, 3, 49, 92
10, 405584, Note_on_c, 3, 61, 0
10, 405584, Note_on_c, 3, 49, 0
10, 405600, Note_on_c, 3, 48, 92
10, 405600, Note_on_c, 3, 60, 92
10, 405704, Note_on_c, 3, 48, 0
10, 405704, Note_on_c, 3, 60, 0
10, 405720, Note_on_c, 3, 59, 92
10, 405720, Note_on_c, 3, 47, 92
10, 405824, Note_on_c, 3, 59, 0
10, 405824, Note_on_c, 3, 47, 0
10, 405840, Note_on_c, 3, 52, 92
10, 405840, Note_on_c, 3, 64, 92
10, 405944, Note_on_c, 3, 52, 0
10, 405944, Note_on_c, 3, 64, 0
10, 405960, Note_on_c, 3, 52, 100
10, 405960, Note_on_c, 3, 64, 100
10, 406020, Control_c, 3, 11, 107
10, 406319, Note_on_c, 3, 52, 0
10, 406319, Note_on_c, 3, 64, 0
10, 406558, Control_c, 3, 11, 127
10, 406560, Note_on_c, 3, 66, 92
10, 406560, Note_on_c, 3, 54, 92
10, 406679, Note_on_c, 3, 66, 0
10, 406679, Note_on_c, 3, 54, 0
10, 406680, Note_on_c, 3, 54, 100
10, 406680, Note_on_c, 3, 66, 100
10, 406740, Control_c, 3, 11, 107
10, 407009, Note_on_c, 3, 54, 0
10, 407009, Note_on_c, 3, 66, 0
10, 407038, Control_c, 3, 11, 127
10, 407040, Note_on_c, 3, 51, 92
10, 407264, Note_on_c, 3, 51, 0
10, 407280, Note_on_c, 3, 63, 92
10, 407384, Note_on_c, 3, 63, 0
10, 407400, Note_on_c, 3, 63, 100
10, 407460, Control_c, 3, 11, 107
10, 407759, Note_on_c, 3, 63, 0
10, 407998, Control_c, 3, 11, 127
10, 408000, Note_on_c, 3, 64, 92
10, 408104, Note_on_c, 3, 64, 0
10, 408120, Note_on_c, 3, 64, 100
10, 408180, Control_c, 3, 11, 107
10, 408479, Note_on_c, 3, 64, 0
10, 408718, Control_c, 3, 11, 127
10, 408720, Note_on_c, 3, 66, 92
10, 408824, Note_on_c, 3, 66, 0
10, 408840, Note_on_c, 3, 66, 100
10, 408900, Control_c, 3, 11, 107
10, 409199, Note_on_c, 3, 66, 0
10, 409438, Control_c, 3, 11, 127
10, 409440, Note_on_c, 3, 63, 92
10, 409440, Note_on_c, 3, 51, 92
10, 409544, Note_on_c, 3, 63, 0
10, 409544, Note_on_c, 3, 51, 0
10, 409560, Note_on_c, 3, 52, 100
10, 409560, Note_on_c, 3, 64, 100
10, 409620, Control_c, 3, 11, 107
10, 409919, Note_on_c, 3, 52, 0
10, 409919, Note_on_c, 3, 64, 0
10, 410158, Control_c, 3, 11, 127
10, 410160, Note_on_c, 3, 61, 92
10, 410160, Note_on_c, 3, 49, 92
10, 410264, Note_on_c, 3, 61, 0
10, 410264, Note_on_c, 3, 49, 0
10, 410280, Note_on_c, 3, 50, 100
10, 410280, Note_on_c, 3, 62, 100
10, 410340, Control_c, 3, 11, 107
10, 410639, Note_on_c, 3, 50, 0
10, 410639, Note_on_c, 3, 62, 0
10, 410878, Control_c, 3, 11, 127
10, 410880, Note_on_c, 3, 47, 92
10, 410880, Note_on_c, 3, 59, 92
10, 410984, Note_on_c, 3, 47, 0
10, 410984, Note_on_c, 3, 59, 0
10, 411000, Note_on_c, 3, 61, 100
10, 411000, Note_on_c, 3, 49, 100
10, 411060, Control_c, 3, 11, 107
10, 411359, Note_on_c, 3, 61, 0
10, 411359, Note_on_c, 3, 49, 0
10, 411598, Control_c, 3, 11, 127
10, 411600, Note_on_c, 3, 46, 92
10, 411600, Note_on_c, 3, 58, 92
10, 411704, Note_on_c, 3, 46, 0
10, 411704, Note_on_c, 3, 58, 0
10, 411720, Note_on_c, 3, 59, 100
10, 411720, Note_on_c, 3, 47, 100
10, 411780, Control_c, 3, 11, 107
10, 412064, Note_on_c, 3, 59, 0
10, 412064, Note_on_c, 3, 47, 0
10, 412078, Control_c, 3, 11, 127
10, 412080, Note_on_c, 3, 61, 92
10, 412184, Note_on_c, 3, 61, 0
10, 412200, Note_on_c, 3, 58, 92
10, 412304, Note_on_c, 3, 58, 0
10, 412320, Note_on_c, 3, 58, 92
10, 412424, Note_on_c, 3, 58, 0
10, 412440, Note_on_c, 3, 59, 92
10, 412544, Note_on_c, 3, 59, 0
10, 412560, Note_on_c, 3, 59, 92
10, 412664, Note_on_c, 3, 59, 0
10, 412680, Note_on_c, 3, 59, 92
10, 412784, Note_on_c, 3, 59, 0
10, 412800, Note_on_c, 3, 61, 92
10, 413024, Note_on_c, 3, 61, 0
10, 413040, Note_on_c, 3, 54, 92
10, 413144, Note_on_c, 3, 54, 0
10, 413160, Note_on_c, 3, 54, 100
10, 413220, Control_c, 3, 11, 107
10, 413519, Note_on_c, 3, 54, 0
10, 413758, Control_c, 3, 11, 127
10, 413760, Note_on_c, 3, 54, 92
10, 413864, Note_on_c, 3, 54, 0
10, 413880, Note_on_c, 3, 56, 100
10, 413940, Control_c, 3, 11, 107
10, 414119, Note_on_c, 3, 56, 0
10, 414478, Control_c, 3, 11, 127
10, 414480, Note_on_c, 3, 56, 92
10, 414480, Note_on_c, 3, 44, 92
10, 414584, Note_on_c, 3, 56, 0
10, 414584, Note_on_c, 3, 44, 0
10, 414600, Note_on_c, 3, 56, 100
10, 414600, Note_on_c, 3, 44, 100
10, 414660, Control_c, 3, 11, 107
10, 414959, Note_on_c, 3, 56, 0
10, 414959, Note_on_c, 3, 44, 0
10, 415198, Control_c, 3, 11, 127
10, 415200, Note_on_c, 3, 56, 92
10, 415200, Note_on_c, 3, 44, 92
10, 415304, Note_on_c, 3, 56, 0
10, 415304, Note_on_c, 3, 44, 0
10, 415320, Note_on_c, 3, 46, 100
10, 415320, Note_on_c, 3, 58, 100
10, 415380, Control_c, 3, 11, 107
10, 415559, Note_on_c, 3, 46, 0
10, 415559, Note_on_c, 3, 58, 0
10, 415918, Control_c, 3, 11, 127
10, 415920, Note_on_c, 3, 58, 92
10, 415920, Note_on_c, 3, 54, 92
10, 416024, Note_on_c, 3, 58, 0
10, 416024, Note_on_c, 3, 54, 0
10, 416040, Note_on_c, 3, 58, 100
10, 416040, Note_on_c, 3, 54, 100
10, 416100, Control_c, 3, 11, 107
10, 416399, Note_on_c, 3, 58, 0
10, 416399, Note_on_c, 3, 54, 0
10, 416638, Control_c, 3, 11, 127
10, 416640, Note_on_c, 3, 54, 92
10, 416640, Note_on_c, 3, 58, 92
10, 416744, Note_on_c, 3, 54, 0
10, 416744, Note_on_c, 3, 58, 0
10, 416760, Note_on_c, 3, 56, 100
10, 416760, Note_on_c, 3, 59, 100
10, 416820, Control_c, 3, 11, 107
10, 417119, Note_on_c, 3, 56, 0
10, 417119, Note_on_c, 3, 59, 0
10, 417358, Control_c, 3, 11, 127
10, 417360, Note_on_c, 3, 65, 92
10, 417360, Note_on_c, 3, 62, 92
10, 417464, Note_on_c, 3, 65, 0
10, 417464, Note_on_c, 3, 62, 0
10, 417480, Note_on_c, 3, 62, 100
10, 417480, Note_on_c, 3, 65, 100
10, 417540, Control_c, 3, 11, 107
10, 417839, Note_on_c, 3, 62, 0
10, 417839, Note_on_c, 3, 65, 0
10, 418078, Control_c, 3, 11, 127
10, 418080, Note_on_c, 3, 65, 92
10, 418080, Note_on_c, 3, 62, 92
10, 418184, Note_on_c, 3, 65, 0
10, 418184, Note_on_c, 3, 62, 0
10, 418200, Note_on_c, 3, 64, 92
10, 418200, Note_on_c, 3, 61, 92
10, 418424, Note_on_c, 3, 64, 0
10, 418424, Note_on_c, 3, 61, 0
10, 418440, Note_on_c, 3, 64, 92
10, 418440, Note_on_c, 3, 61, 92
10, 418544, Note_on_c, 3, 64, 0
10, 418544, Note_on_c, 3, 61, 0
10, 418560, Note_on_c, 3, 67, 92
10, 418560, Note_on_c, 3, 64, 92
10, 418784, Note_on_c, 3, 67, 0
10, 418784, Note_on_c, 3, 64, 0
10, 418800, Note_on_c, 3, 67, 92
10, 418800, Note_on_c, 3, 64, 92
10, 418904, Note_on_c, 3, 67, 0
10, 418904, Note_on_c, 3, 64, 0
10, 418920, Note_on_c, 3, 66, 92
10, 418920, Note_on_c, 3, 62, 92
10, 419144, Note_on_c, 3, 66, 0
10, 419144, Note_on_c, 3, 62, 0
10, 419160, Note_on_c, 3, 66, 92
10, 419160, Note_on_c, 3, 62, 92
10, 419264, Note_on_c, 3, 66, 0
10, 419264, Note_on_c, 3, 62, 0
10, 419280, Note_on_c, 3, 66, 92
10, 419280, Note_on_c, 3, 69, 92
10, 419504, Note_on_c, 3, 66, 0
10, 419504, Note_on_c, 3, 69, 0
10, 419520, Note_on_c, 3, 69, 92
10, 419520, Note_on_c, 3, 66, 92
10, 419624, Note_on_c, 3, 69, 0
10, 419624, Note_on_c, 3, 66, 0
10, 419640, Note_on_c, 3, 67, 92
10, 419640, Note_on_c, 3, 64, 92
10, 419864, Note_on_c, 3, 67, 0
10, 419864, Note_on_c, 3, 64, 0
10, 419880, Note_on_c, 3, 64, 92
10, 419880, Note_on_c, 3, 67, 92
10, 419984, Note_on_c, 3, 64, 0
10, 419984, Note_on_c, 3, 67, 0
10, 420000, Note_on_c, 3, 43, 92
10, 420000, Note_on_c, 3, 55, 92
10, 420224, Note_on_c, 3, 43, 0
10, 420224, Note_on_c, 3, 55, 0
10, 420240, Note_on_c, 3, 43, 92
10, 420240, Note_on_c, 3, 55, 92
10, 420344, Note_on_c, 3, 43, 0
10, 420344, Note_on_c, 3, 55, 0
10, 420360, Note_on_c, 3, 42, 92
10, 420360, Note_on_c, 3, 54, 92
10, 420584, Note_on_c, 3, 42, 0
10, 420584, Note_on_c, 3, 54, 0
10, 420600, Note_on_c, 3, 42, 92
10, 420600, Note_on_c, 3, 54, 92
10, 420704, Note_on_c, 3, 42, 0
10, 420704, Note_on_c, 3, 54, 0
10, 420720, Note_on_c, 3, 57, 92
10, 420720, Note_on_c, 3, 45, 92
10, 420944, Note_on_c, 3, 57, 0
10, 420944, Note_on_c, 3, 45, 0
10, 420960, Note_on_c, 3, 45, 92
10, 420960, Note_on_c, 3, 57, 92
10, 421064, Note_on_c, 3, 45, 0
10, 421064, Note_on_c, 3, 57, 0
10, 421080, Note_on_c, 3, 55, 92
10, 421080, Note_on_c, 3, 43, 92
10, 421304, Note_on_c, 3, 55, 0
10, 421304, Note_on_c, 3, 43, 0
10, 421320, Note_on_c, 3, 43, 92
10, 421320, Note_on_c, 3, 55, 92
10, 421424, Note_on_c, 3, 43, 0
10, 421424, Note_on_c, 3, 55, 0
10, 421440, Note_on_c, 3, 55, 92
10, 421440, Note_on_c, 3, 43, 92
10, 421664, Note_on_c, 3, 55, 0
10, 421664, Note_on_c, 3, 43, 0
10, 421680, Note_on_c, 3, 55, 92
10, 421680, Note_on_c, 3, 43, 92
10, 421784, Note_on_c, 3, 55, 0
10, 421784, Note_on_c, 3, 43, 0
10, 421800, Note_on_c, 3, 43, 92
10, 421800, Note_on_c, 3, 55, 92
10, 422024, Note_on_c, 3, 43, 0
10, 422024, Note_on_c, 3, 55, 0
10, 422040, Note_on_c, 3, 55, 92
10, 422040, Note_on_c, 3, 43, 92
10, 422144, Note_on_c, 3, 55, 0
10, 422144, Note_on_c, 3, 43, 0
10, 422160, Note_on_c, 3, 43, 92
10, 422160, Note_on_c, 3, 55, 92
10, 422384, Note_on_c, 3, 43, 0
10, 422384, Note_on_c, 3, 55, 0
10, 422400, Note_on_c, 3, 43, 92
10, 422400, Note_on_c, 3, 55, 92
10, 422504, Note_on_c, 3, 43, 0
10, 422504, Note_on_c, 3, 55, 0
10, 422520, Note_on_c, 3, 42, 92
10, 422520, Note_on_c, 3, 54, 92
10, 422744, Note_on_c, 3, 42, 0
10, 422744, Note_on_c, 3, 54, 0
10, 422760, Note_on_c, 3, 42, 92
10, 422760, Note_on_c, 3, 54, 92
10, 422864, Note_on_c, 3, 42, 0
10, 422864, Note_on_c, 3, 54, 0
10, 422880, Note_on_c, 3, 42, 92
10, 422880, Note_on_c, 3, 54, 92
10, 423104, Note_on_c, 3, 42, 0
10, 423104, Note_on_c, 3, 54, 0
10, 423120, Note_on_c, 3, 42, 92
10, 423120, Note_on_c, 3, 54, 92
10, 423224, Note_on_c, 3, 42, 0
10, 423224, Note_on_c, 3, 54, 0
10, 423240, Note_on_c, 3, 54, 100
10, 423240, Note_on_c, 3, 66, 100
10, 423300, Control_c, 3, 11, 107
10, 423824, Note_on_c, 3, 54, 0
10, 423824, Note_on_c, 3, 66, 0
10, 423838, Control_c, 3, 11, 127
10, 423840, Note_on_c, 3, 66, 92
10, 423840, Note_on_c, 3, 54, 92
10, 423944, Note_on_c, 3, 66, 0
10, 423944, Note_on_c, 3, 54, 0
10, 423960, Note_on_c, 3, 42, 100
10, 423960, Note_on_c, 3, 54, 100
10, 424020, Control_c, 3, 11, 107
10, 424544, Note_on_c, 3, 42, 0
10, 424544, Note_on_c, 3, 54, 0
10, 424558, Control_c, 3, 11, 127
10, 424560, Note_on_c, 3, 54, 92
10, 424664, Note_on_c, 3, 54, 0
10, 424680, Note_on_c, 3, 42, 100
10, 424740, Control_c, 3, 11, 107
10, 425264, Note_on_c, 3, 42, 0
10, 425278, Control_c, 3, 11, 127
10, 425280, Note_on_c, 3, 42, 92
10, 425384, Note_on_c, 3, 42, 0
10, 425400, Note_on_c, 3, 54, 100
10, 425460, Control_c, 3, 11, 107
10, 425984, Note_on_c, 3, 54, 0
10, 425998, Control_c, 3, 11, 127
10, 426000, Note_on_c, 3, 54, 92
10, 426104, Note_on_c, 3, 54, 0
10, 426120, Note_on_c, 3, 66, 100
10, 426180, Control_c, 3, 11, 107
10, 426704, Note_on_c, 3, 66, 0
10, 426718, Control_c, 3, 11, 127
10, 426720, Note_on_c, 3, 66, 92
10, 426824, Note_on_c, 3, 66, 0
10, 426840, Note_on_c, 3, 54, 100
10, 426900, Control_c, 3, 11, 107
10, 427424, Note_on_c, 3, 54, 0
10, 427438, Control_c, 3, 11, 127
10, 427440, Note_on_c, 3, 54, 92
10, 427544, Note_on_c, 3, 54, 0
10, 427560, Note_on_c, 3, 42, 100
10, 427620, Control_c, 3, 11, 107
10, 428144, Note_on_c, 3, 42, 0
10, 428158, Control_c, 3, 11, 127
10, 428160, Note_on_c, 3, 42, 92
10, 428264, Note_on_c, 3, 42, 0
10, 428280, Note_on_c, 3, 54, 100
10, 428340, Control_c, 3, 11, 107
10, 428879, Note_on_c, 3, 54, 0
10, 430800, Control_c, 3, 11, 127
10, 431520, Note_on_c, 3, 63, 44
10, 431520, Note_on_c, 3, 59, 44
10, 432239, Note_on_c, 3, 63, 0
10, 432239, Note_on_c, 3, 59, 0
10, 432240, Note_on_c, 3, 61, 44
10, 432240, Note_on_c, 3, 64, 44
10, 432599, Note_on_c, 3, 61, 0
10, 432599, Note_on_c, 3, 64, 0
10, 432600, Note_on_c, 3, 63, 44
10, 432600, Note_on_c, 3, 66, 44
10, 432959, Note_on_c, 3, 63, 0
10, 432959, Note_on_c, 3, 66, 0
10, 435840, Note_on_c, 3, 59, 32
10, 435840, Note_on_c, 3, 62, 32
10, 436559, Note_on_c, 3, 59, 0
10, 436559, Note_on_c, 3, 62, 0
10, 436560, Note_on_c, 3, 61, 32
10, 436560, Note_on_c, 3, 64, 32
10, 436919, Note_on_c, 3, 61, 0
10, 436919, Note_on_c, 3, 64, 0
10, 436920, Note_on_c, 3, 62, 32
10, 436920, Note_on_c, 3, 66, 32
10, 437279, Note_on_c, 3, 62, 0
10, 437279, Note_on_c, 3, 66, 0
10, 441600, Note_on_c, 3, 54, 92
10, 441600, Note_on_c, 3, 50, 92
10, 441839, Note_on_c, 3, 54, 0
10, 441839, Note_on_c, 3, 50, 0
10, 441960, Note_on_c, 3, 54, 92
10, 441960, Note_on_c, 3, 50, 92
10, 442199, Note_on_c, 3, 54, 0
10, 442199, Note_on_c, 3, 50, 0
10, 442320, Note_on_c, 3, 52, 92
10, 442320, Note_on_c, 3, 55, 92
10, 442559, Note_on_c, 3, 52, 0
10, 442559, Note_on_c, 3, 55, 0
10, 442680, Note_on_c, 3, 54, 92
10, 442680, Note_on_c, 3, 57, 92
10, 442919, Note_on_c, 3, 54, 0
10, 442919, Note_on_c, 3, 57, 0
10, 443040, Note_on_c, 3, 57, 92
10, 443040, Note_on_c, 3, 54, 92
10, 443279, Note_on_c, 3, 57, 0
10, 443279, Note_on_c, 3, 54, 0
10, 443400, Note_on_c, 3, 55, 92
10, 443400, Note_on_c, 3, 52, 92
10, 443639, Note_on_c, 3, 55, 0
10, 443639, Note_on_c, 3, 52, 0
10, 443760, Note_on_c, 3, 66, 92
10, 443760, Note_on_c, 3, 57, 92
10, 443999, Note_on_c, 3, 66, 0
10, 443999, Note_on_c, 3, 57, 0
10, 444120, Note_on_c, 3, 55, 92
10, 444120, Note_on_c, 3, 64, 92
10, 444359, Note_on_c, 3, 55, 0
10, 444359, Note_on_c, 3, 64, 0
10, 444480, Note_on_c, 3, 54, 92
10, 444480, Note_on_c, 3, 62, 92
10, 444719, Note_on_c, 3, 54, 0
10, 444719, Note_on_c, 3, 62, 0
10, 444840, Note_on_c, 3, 54, 92
10, 444840, Note_on_c, 3, 50, 92
10, 445079, Note_on_c, 3, 54, 0
10, 445079, Note_on_c, 3, 50, 0
10, 445200, Note_on_c, 3, 52, 92
10, 445200, Note_on_c, 3, 49, 92
10, 445439, Note_on_c, 3, 52, 0
10, 445439, Note_on_c, 3, 49, 0
10, 445560, Note_on_c, 3, 54, 92
10, 445560, Note_on_c, 3, 50, 92
10, 445799, Note_on_c, 3, 54, 0
10, 445799, Note_on_c, 3, 50, 0
10, 445920, Note_on_c, 3, 50, 92
10, 445920, Note_on_c, 3, 54, 92
10, 446159, Note_on_c, 3, 50, 0
10, 446159, Note_on_c, 3, 54, 0
10, 446520, Note_on_c, 3, 49, 92
10, 446520, Note_on_c, 3, 52, 92
10, 446624, Note_on_c, 3, 49, 0
10, 446624, Note_on_c, 3, 52, 0
10, 446640, Note_on_c, 3, 49, 92
10, 446640, Note_on_c, 3, 52, 92
10, 446879, Note_on_c, 3, 49, 0
10, 446879, Note_on_c, 3, 52, 0
10, 447360, Note_on_c, 3, 38, 92
10, 447360, Note_on_c, 3, 54, 92
10, 447599, Note_on_c, 3, 38, 0
10, 447599, Note_on_c, 3, 54, 0
10, 447720, Note_on_c, 3, 54, 92
10, 447720, Note_on_c, 3, 57, 92
10, 447959, Note_on_c, 3, 54, 0
10, 447959, Note_on_c, 3, 57, 0
10, 448080, Note_on_c, 3, 55, 92
10, 448080, Note_on_c, 3, 59, 92
10, 448319, Note_on_c, 3, 55, 0
10, 448319, Note_on_c, 3, 59, 0
10, 448440, Note_on_c, 3, 57, 92
10, 448440, Note_on_c, 3, 60, 92
10, 448679, Note_on_c, 3, 57, 0
10, 448679, Note_on_c, 3, 60, 0
10, 448800, Note_on_c, 3, 60, 92
10, 448800, Note_on_c, 3, 57, 92
10, 449039, Note_on_c, 3, 60, 0
10, 449039, Note_on_c, 3, 57, 0
10, 449160, Note_on_c, 3, 59, 92
10, 449160, Note_on_c, 3, 55, 92
10, 449399, Note_on_c, 3, 59, 0
10, 449399, Note_on_c, 3, 55, 0
10, 449520, Note_on_c, 3, 57, 92
10, 449520, Note_on_c, 3, 54, 92
10, 449759, Note_on_c, 3, 57, 0
10, 449759, Note_on_c, 3, 54, 0
10, 449880, Note_on_c, 3, 52, 92
10, 449880, Note_on_c, 3, 55, 92
10, 450119, Note_on_c, 3, 52, 0
10, 450119, Note_on_c, 3, 55, 0
10, 450240, Note_on_c, 3, 50, 92
10, 450240, Note_on_c, 3, 54, 92
10, 450479, Note_on_c, 3, 50, 0
10, 450479, Note_on_c, 3, 54, 0
10, 450600, Note_on_c, 3, 54, 92
10, 450600, Note_on_c, 3, 50, 92
10, 450839, Note_on_c, 3, 54, 0
10, 450839, Note_on_c, 3, 50, 0
10, 450960, Note_on_c, 3, 52, 92
10, 450960, Note_on_c, 3, 55, 92
10, 451199, Note_on_c, 3, 52, 0
10, 451199, Note_on_c, 3, 55, 0
10, 451320, Note_on_c, 3, 54, 92
10, 451320, Note_on_c, 3, 57, 92
10, 451559, Note_on_c, 3, 54, 0
10, 451559, Note_on_c, 3, 57, 0
10, 451680, Note_on_c, 3, 52, 92
10, 451680, Note_on_c, 3, 55, 92
10, 451919, Note_on_c, 3, 52, 0
10, 451919, Note_on_c, 3, 55, 0
10, 452280, Note_on_c, 3, 54, 92
10, 452280, Note_on_c, 3, 50, 92
10, 452384, Note_on_c, 3, 54, 0
10, 452384, Note_on_c, 3, 50, 0
10, 452400, Note_on_c, 3, 50, 92
10, 452400, Note_on_c, 3, 54, 92
10, 452639, Note_on_c, 3, 50, 0
10, 452639, Note_on_c, 3, 54, 0
10, 453120, Note_on_c, 3, 49, 92
10, 453120, Note_on_c, 3, 52, 92
10, 453359, Note_on_c, 3, 49, 0
10, 453359, Note_on_c, 3, 52, 0
10, 453480, Note_on_c, 3, 49, 92
10, 453480, Note_on_c, 3, 52, 92
10, 453719, Note_on_c, 3, 49, 0
10, 453719, Note_on_c, 3, 52, 0
10, 453840, Note_on_c, 3, 54, 92
10, 453840, Note_on_c, 3, 50, 92
10, 454079, Note_on_c, 3, 54, 0
10, 454079, Note_on_c, 3, 50, 0
10, 454200, Note_on_c, 3, 54, 92
10, 454200, Note_on_c, 3, 50, 92
10, 454439, Note_on_c, 3, 54, 0
10, 454439, Note_on_c, 3, 50, 0
10, 454560, Note_on_c, 3, 49, 92
10, 454560, Note_on_c, 3, 52, 92
10, 454799, Note_on_c, 3, 49, 0
10, 454799, Note_on_c, 3, 52, 0
10, 454920, Note_on_c, 3, 50, 92
10, 454920, Note_on_c, 3, 54, 92
10, 455144, Note_on_c, 3, 50, 0
10, 455144, Note_on_c, 3, 54, 0
10, 455160, Note_on_c, 3, 52, 92
10, 455160, Note_on_c, 3, 55, 92
10, 455264, Note_on_c, 3, 52, 0
10, 455264, Note_on_c, 3, 55, 0
10, 455280, Note_on_c, 3, 50, 92
10, 455280, Note_on_c, 3, 54, 92
10, 455519, Note_on_c, 3, 50, 0
10, 455519, Note_on_c, 3, 54, 0
10, 455640, Note_on_c, 3, 54, 92
10, 455640, Note_on_c, 3, 50, 92
10, 455879, Note_on_c, 3, 54, 0
10, 455879, Note_on_c, 3, 50, 0
10, 456000, Note_on_c, 3, 49, 92
10, 456000, Note_on_c, 3, 52, 92
10, 456239, Note_on_c, 3, 49, 0
10, 456239, Note_on_c, 3, 52, 0
10, 456360, Note_on_c, 3, 50, 92
10, 456360, Note_on_c, 3, 54, 92
10, 456584, Note_on_c, 3, 50, 0
10, 456584, Note_on_c, 3, 54, 0
10, 456600, Note_on_c, 3, 52, 92
10, 456600, Note_on_c, 3, 55, 92
10, 456704, Note_on_c, 3, 52, 0
10, 456704, Note_on_c, 3, 55, 0
10, 456720, Note_on_c, 3, 54, 92
10, 456720, Note_on_c, 3, 46, 92
10, 456959, Note_on_c, 3, 54, 0
10, 456959, Note_on_c, 3, 46, 0
10, 457080, Note_on_c, 3, 58, 92
10, 457080, Note_on_c, 3, 54, 92
10, 457319, Note_on_c, 3, 58, 0
10, 457319, Note_on_c, 3, 54, 0
10, 457440, Note_on_c, 3, 59, 92
10, 457440, Note_on_c, 3, 47, 92
10, 457679, Note_on_c, 3, 59, 0
10, 457679, Note_on_c, 3, 47, 0
10, 457800, Note_on_c, 3, 64, 92
10, 457800, Note_on_c, 3, 56, 92
10, 458039, Note_on_c, 3, 64, 0
10, 458039, Note_on_c, 3, 56, 0
10, 458160, Note_on_c, 3, 57, 92
10, 458160, Note_on_c, 3, 61, 92
10, 458399, Note_on_c, 3, 57, 0
10, 458399, Note_on_c, 3, 61, 0
10, 458520, Note_on_c, 3, 54, 92
10, 458520, Note_on_c, 3, 50, 92
10, 458759, Note_on_c, 3, 54, 0
10, 458759, Note_on_c, 3, 50, 0
10, 458880, Note_on_c, 3, 54, 92
10, 458880, Note_on_c, 3, 50, 92
10, 459119, Note_on_c, 3, 54, 0
10, 459119, Note_on_c, 3, 50, 0
10, 459240, Note_on_c, 3, 62, 92
10, 459240, Note_on_c, 3, 50, 92
10, 459479, Note_on_c, 3, 62, 0
10, 459479, Note_on_c, 3, 50, 0
10, 459600, Note_on_c, 3, 62, 92
10, 459600, Note_on_c, 3, 50, 92
10, 459839, Note_on_c, 3, 62, 0
10, 459839, Note_on_c, 3, 50, 0
10, 459960, Note_on_c, 3, 50, 92
10, 459960, Note_on_c, 3, 64, 92
10, 460184, Note_on_c, 3, 64, 0
10, 460199, Note_on_c, 3, 50, 0
10, 460200, Note_on_c, 3, 66, 92
10, 460304, Note_on_c, 3, 66, 0
10, 460320, Note_on_c, 3, 67, 92
10, 460320, Note_on_c, 3, 43, 92
10, 460559, Note_on_c, 3, 67, 0
10, 460559, Note_on_c, 3, 43, 0
10, 460680, Note_on_c, 3, 67, 92
10, 460680, Note_on_c, 3, 59, 92
10, 460919, Note_on_c, 3, 67, 0
10, 460919, Note_on_c, 3, 59, 0
10, 461040, Note_on_c, 3, 66, 92
10, 461040, Note_on_c, 3, 57, 92
10, 461279, Note_on_c, 3, 66, 0
10, 461279, Note_on_c, 3, 57, 0
10, 461400, Note_on_c, 3, 55, 92
10, 461400, Note_on_c, 3, 67, 92
10, 461624, Note_on_c, 3, 55, 0
10, 461624, Note_on_c, 3, 67, 0
10, 461640, Note_on_c, 3, 55, 92
10, 461640, Note_on_c, 3, 59, 92
10, 461744, Note_on_c, 3, 55, 0
10, 461744, Note_on_c, 3, 59, 0
10, 461760, Note_on_c, 3, 54, 92
10, 461760, Note_on_c, 3, 62, 92
10, 461999, Note_on_c, 3, 54, 0
10, 461999, Note_on_c, 3, 62, 0
10, 462120, Note_on_c, 3, 50, 92
10, 462120, Note_on_c, 3, 54, 92
10, 462359, Note_on_c, 3, 50, 0
10, 462359, Note_on_c, 3, 54, 0
10, 462480, Note_on_c, 3, 52, 92
10, 462480, Note_on_c, 3, 55, 92
10, 462719, Note_on_c, 3, 52, 0
10, 462719, Note_on_c, 3, 55, 0
10, 462840, Note_on_c, 3, 54, 92
10, 462840, Note_on_c, 3, 57, 92
10, 463079, Note_on_c, 3, 54, 0
10, 463079, Note_on_c, 3, 57, 0
10, 463200, Note_on_c, 3, 52, 92
10, 463200, Note_on_c, 3, 55, 92
10, 463439, Note_on_c, 3, 52, 0
10, 463439, Note_on_c, 3, 55, 0
10, 463800, Note_on_c, 3, 50, 92
10, 463800, Note_on_c, 3, 54, 92
10, 463904, Note_on_c, 3, 50, 0
10, 463904, Note_on_c, 3, 54, 0
10, 463920, Note_on_c, 3, 54, 92
10, 463920, Note_on_c, 3, 50, 92
10, 464159, Note_on_c, 3, 54, 0
10, 464159, Note_on_c, 3, 50, 0
10, 464640, Note_on_c, 3, 52, 92
10, 464640, Note_on_c, 3, 49, 92
10, 464879, Note_on_c, 3, 52, 0
10, 464879, Note_on_c, 3, 49, 0
10, 465000, Note_on_c, 3, 52, 92
10, 465000, Note_on_c, 3, 49, 92
10, 465239, Note_on_c, 3, 52, 0
10, 465239, Note_on_c, 3, 49, 0
10, 465360, Note_on_c, 3, 54, 92
10, 465360, Note_on_c, 3, 50, 92
10, 465599, Note_on_c, 3, 54, 0
10, 465599, Note_on_c, 3, 50, 0
10, 465720, Note_on_c, 3, 50, 92
10, 465720, Note_on_c, 3, 54, 92
10, 465959, Note_on_c, 3, 50, 0
10, 465959, Note_on_c, 3, 54, 0
10, 466080, Note_on_c, 3, 52, 92
10, 466080, Note_on_c, 3, 49, 92
10, 466319, Note_on_c, 3, 52, 0
10, 466319, Note_on_c, 3, 49, 0
10, 466440, Note_on_c, 3, 54, 92
10, 466440, Note_on_c, 3, 50, 92
10, 466664, Note_on_c, 3, 54, 0
10, 466664, Note_on_c, 3, 50, 0
10, 466680, Note_on_c, 3, 52, 92
10, 466680, Note_on_c, 3, 55, 92
10, 466784, Note_on_c, 3, 52, 0
10, 466784, Note_on_c, 3, 55, 0
10, 466800, Note_on_c, 3, 50, 92
10, 466800, Note_on_c, 3, 54, 92
10, 467039, Note_on_c, 3, 50, 0
10, 467039, Note_on_c, 3, 54, 0
10, 467160, Note_on_c, 3, 50, 92
10, 467160, Note_on_c, 3, 54, 92
10, 467399, Note_on_c, 3, 50, 0
10, 467399, Note_on_c, 3, 54, 0
10, 467520, Note_on_c, 3, 49, 92
10, 467520, Note_on_c, 3, 52, 92
10, 467759, Note_on_c, 3, 49, 0
10, 467759, Note_on_c, 3, 52, 0
10, 467880, Note_on_c, 3, 54, 92
10, 467880, Note_on_c, 3, 50, 92
10, 468104, Note_on_c, 3, 54, 0
10, 468104, Note_on_c, 3, 50, 0
10, 468120, Note_on_c, 3, 52, 92
10, 468120, Note_on_c, 3, 55, 92
10, 468224, Note_on_c, 3, 52, 0
10, 468224, Note_on_c, 3, 55, 0
10, 468240, Note_on_c, 3, 54, 92
10, 468240, Note_on_c, 3, 46, 92
10, 468479, Note_on_c, 3, 54, 0
10, 468479, Note_on_c, 3, 46, 0
10, 468600, Note_on_c, 3, 54, 92
10, 468600, Note_on_c, 3, 58, 92
10, 468839, Note_on_c, 3, 54, 0
10, 468839, Note_on_c, 3, 58, 0
10, 468960, Note_on_c, 3, 47, 92
10, 468960, Note_on_c, 3, 59, 92
10, 469199, Note_on_c, 3, 47, 0
10, 469199, Note_on_c, 3, 59, 0
10, 469320, Note_on_c, 3, 64, 92
10, 469320, Note_on_c, 3, 56, 92
10, 469559, Note_on_c, 3, 64, 0
10, 469559, Note_on_c, 3, 56, 0
10, 469680, Note_on_c, 3, 57, 92
10, 469680, Note_on_c, 3, 61, 92
10, 469919, Note_on_c, 3, 57, 0
10, 469919, Note_on_c, 3, 61, 0
10, 470040, Note_on_c, 3, 54, 92
10, 470040, Note_on_c, 3, 50, 92
10, 470279, Note_on_c, 3, 54, 0
10, 470279, Note_on_c, 3, 50, 0
10, 470400, Note_on_c, 3, 50, 92
10, 470400, Note_on_c, 3, 54, 92
10, 470639, Note_on_c, 3, 50, 0
10, 470639, Note_on_c, 3, 54, 0
10, 470760, Note_on_c, 3, 62, 92
10, 470760, Note_on_c, 3, 50, 92
10, 470999, Note_on_c, 3, 62, 0
10, 470999, Note_on_c, 3, 50, 0
10, 471120, Note_on_c, 3, 50, 92
10, 471120, Note_on_c, 3, 62, 92
10, 471359, Note_on_c, 3, 50, 0
10, 471359, Note_on_c, 3, 62, 0
10, 471480, Note_on_c, 3, 64, 92
10, 471480, Note_on_c, 3, 50, 92
10, 471704, Note_on_c, 3, 64, 0
10, 471719, Note_on_c, 3, 50, 0
10, 471720, Note_on_c, 3, 66, 92
10, 471824, Note_on_c, 3, 66, 0
10, 471840, Note_on_c, 3, 67, 92
10, 471840, Note_on_c, 3, 43, 92
10, 472079, Note_on_c, 3, 67, 0
10, 472079, Note_on_c, 3, 43, 0
10, 472200, Note_on_c, 3, 59, 92
10, 472200, Note_on_c, 3, 67, 92
10, 472439, Note_on_c, 3, 59, 0
10, 472439, Note_on_c, 3, 67, 0
10, 472560, Note_on_c, 3, 66, 92
10, 472560, Note_on_c, 3, 57, 92
10, 472799, Note_on_c, 3, 66, 0
10, 472799, Note_on_c, 3, 57, 0
10, 472920, Note_on_c, 3, 55, 92
10, 472920, Note_on_c, 3, 67, 92
10, 473144, Note_on_c, 3, 55, 0
10, 473144, Note_on_c, 3, 67, 0
10, 473160, Note_on_c, 3, 59, 92
10, 473160, Note_on_c, 3, 55, 92
10, 473264, Note_on_c, 3, 59, 0
10, 473264, Note_on_c, 3, 55, 0
10, 473280, Note_on_c, 3, 62, 92
10, 473280, Note_on_c, 3, 54, 92
10, 473519, Note_on_c, 3, 62, 0
10, 473519, Note_on_c, 3, 54, 0
10, 473640, Note_on_c, 3, 50, 92
10, 473640, Note_on_c, 3, 54, 92
10, 473879, Note_on_c, 3, 50, 0
10, 473879, Note_on_c, 3, 54, 0
10, 474000, Note_on_c, 3, 52, 92
10, 474000, Note_on_c, 3, 55, 92
10, 474239, Note_on_c, 3, 52, 0
10, 474239, Note_on_c, 3, 55, 0
10, 474360, Note_on_c, 3, 57, 92
10, 474360, Note_on_c, 3, 54, 92
10, 474599, Note_on_c, 3, 57, 0
10, 474599, Note_on_c, 3, 54, 0
10, 474720, Note_on_c, 3, 52, 92
10, 474720, Note_on_c, 3, 55, 92
10, 474959, Note_on_c, 3, 52, 0
10, 474959, Note_on_c, 3, 55, 0
10, 475320, Note_on_c, 3, 50, 92
10, 475320, Note_on_c, 3, 54, 92
10, 475424, Note_on_c, 3, 50, 0
10, 475424, Note_on_c, 3, 54, 0
10, 475440, Note_on_c, 3, 50, 92
10, 475440, Note_on_c, 3, 54, 92
10, 475679, Note_on_c, 3, 50, 0
10, 475679, Note_on_c, 3, 54, 0
10, 475800, Note_on_c, 3, 54, 92
10, 475800, Note_on_c, 3, 57, 92
10, 476039, Note_on_c, 3, 54, 0
10, 476039, Note_on_c, 3, 57, 0
10, 476160, Note_on_c, 3, 55, 100
10, 476160, Note_on_c, 3, 52, 100
10, 476399, Note_on_c, 3, 55, 0
10, 476399, Note_on_c, 3, 52, 0
10, 476760, Note_on_c, 3, 50, 92
10, 476760, Note_on_c, 3, 54, 92
10, 476864, Note_on_c, 3, 50, 0
10, 476864, Note_on_c, 3, 54, 0
10, 476880, Note_on_c, 3, 54, 92
10, 476880, Note_on_c, 3, 50, 92
10, 476984, Note_on_c, 3, 50, 0
10, 477000, Note_on_c, 3, 50, 92
10, 477104, Note_on_c, 3, 54, 0
10, 477104, Note_on_c, 3, 50, 0
10, 477120, Note_on_c, 3, 52, 92
10, 477224, Note_on_c, 3, 52, 0
10, 477240, Note_on_c, 3, 54, 92
10, 477240, Note_on_c, 3, 62, 92
10, 477344, Note_on_c, 3, 54, 0
10, 477360, Note_on_c, 3, 55, 92
10, 477464, Note_on_c, 3, 62, 0
10, 477464, Note_on_c, 3, 55, 0
10, 477480, Note_on_c, 3, 57, 92
10, 477584, Note_on_c, 3, 57, 0
10, 477600, Note_on_c, 3, 57, 100
10, 477600, Note_on_c, 3, 60, 100
10, 477839, Note_on_c, 3, 57, 0
10, 477839, Note_on_c, 3, 60, 0
10, 478200, Note_on_c, 3, 59, 92
10, 478200, Note_on_c, 3, 55, 92
10, 478319, Note_on_c, 3, 59, 0
10, 478319, Note_on_c, 3, 55, 0
10, 478320, Note_on_c, 3, 59, 92
10, 478320, Note_on_c, 3, 55, 92
10, 478559, Note_on_c, 3, 59, 0
10, 478559, Note_on_c, 3, 55, 0
10, 492480, Note_on_c, 3, 55, 80
10, 492480, Note_on_c, 3, 43, 80
10, 492939, Note_on_c, 3, 55, 0
10, 492939, Note_on_c, 3, 43, 0
10, 492960, Note_on_c, 3, 47, 80
10, 492960, Note_on_c, 3, 59, 80
10, 493319, Note_on_c, 3, 47, 0
10, 493319, Note_on_c, 3, 59, 0
10, 493440, Note_on_c, 3, 62, 80
10, 493440, Note_on_c, 3, 50, 80
10, 493799, Note_on_c, 3, 62, 0
10, 493799, Note_on_c, 3, 50, 0
10, 493920, Note_on_c, 3, 50, 80
10, 493920, Note_on_c, 3, 38, 80
10, 494279, Note_on_c, 3, 50, 0
10, 494279, Note_on_c, 3, 38, 0
10, 494400, Note_on_c, 3, 38, 80
10, 494400, Note_on_c, 3, 50, 80
10, 495339, Note_on_c, 3, 38, 0
10, 495339, Note_on_c, 3, 50, 0
10, 495360, Note_on_c, 3, 36, 80
10, 495360, Note_on_c, 3, 48, 80
10, 495719, Note_on_c, 3, 36, 0
10, 495719, Note_on_c, 3, 48, 0
10, 495840, Note_on_c, 3, 60, 80
10, 495840, Note_on_c, 3, 48, 80
10, 496199, Note_on_c, 3, 60, 0
10, 496199, Note_on_c, 3, 48, 0
10, 496320, Note_on_c, 3, 59, 80
10, 496320, Note_on_c, 3, 47, 80
10, 496679, Note_on_c, 3, 59, 0
10, 496679, Note_on_c, 3, 47, 0
10, 496800, Note_on_c, 3, 55, 80
10, 496800, Note_on_c, 3, 43, 80
10, 497159, Note_on_c, 3, 55, 0
10, 497159, Note_on_c, 3, 43, 0
10, 497760, Note_on_c, 3, 45, 92
10, 497760, Note_on_c, 3, 57, 92
10, 497839, Note_on_c, 3, 45, 0
10, 497839, Note_on_c, 3, 57, 0
10, 497840, Note_on_c, 3, 57, 80
10, 497840, Note_on_c, 3, 45, 80
10, 498699, Note_on_c, 3, 57, 0
10, 498699, Note_on_c, 3, 45, 0
10, 498720, Note_on_c, 3, 57, 80
10, 498720, Note_on_c, 3, 45, 80
10, 499179, Note_on_c, 3, 57, 0
10, 499179, Note_on_c, 3, 45, 0
10, 499200, Note_on_c, 3, 59, 80
10, 499200, Note_on_c, 3, 47, 80
10, 499659, Note_on_c, 3, 59, 0
10, 499659, Note_on_c, 3, 47, 0
10, 499680, Note_on_c, 3, 48, 92
10, 499680, Note_on_c, 3, 60, 92
10, 499759, Note_on_c, 3, 48, 0
10, 499759, Note_on_c, 3, 60, 0
10, 499760, Note_on_c, 3, 60, 80
10, 499760, Note_on_c, 3, 48, 80
10, 500619, Note_on_c, 3, 60, 0
10, 500619, Note_on_c, 3, 48, 0
10, 500640, Note_on_c, 3, 48, 92
10, 500640, Note_on_c, 3, 60, 92
10, 501579, Note_on_c, 3, 48, 0
10, 501579, Note_on_c, 3, 60, 0
10, 501600, Note_on_c, 3, 60, 92
10, 501600, Note_on_c, 3, 48, 92
10, 502059, Note_on_c, 3, 60, 0
10, 502059, Note_on_c, 3, 48, 0
10, 502080, Note_on_c, 3, 50, 92
10, 502080, Note_on_c, 3, 62, 92
10, 503519, Note_on_c, 3, 50, 0
10, 503519, Note_on_c, 3, 62, 0
10, 514560, Note_on_c, 3, 53, 80
10, 514560, Note_on_c, 3, 41, 80
10, 516219, Note_on_c, 3, 53, 0
10, 516219, Note_on_c, 3, 41, 0
10, 516240, Note_on_c, 3, 53, 80
10, 516240, Note_on_c, 3, 41, 80
10, 516479, Note_on_c, 3, 53, 0
10, 516479, Note_on_c, 3, 41, 0
10, 516720, Note_on_c, 3, 45, 80
10, 516720, Note_on_c, 3, 57, 80
10, 516959, Note_on_c, 3, 45, 0
10, 516959, Note_on_c, 3, 57, 0
10, 516960, Note_on_c, 3, 46, 80
10, 516960, Note_on_c, 3, 58, 80
10, 517659, Note_on_c, 3, 46, 0
10, 517659, Note_on_c, 3, 58, 0
10, 517680, Note_on_c, 3, 58, 80
10, 517680, Note_on_c, 3, 46, 80
10, 517899, Note_on_c, 3, 58, 0
10, 517899, Note_on_c, 3, 46, 0
10, 517920, Note_on_c, 3, 46, 80
10, 517920, Note_on_c, 3, 58, 80
10, 518859, Note_on_c, 3, 46, 0
10, 518859, Note_on_c, 3, 58, 0
10, 518880, Note_on_c, 3, 46, 80
10, 518880, Note_on_c, 3, 58, 80
10, 519339, Note_on_c, 3, 46, 0
10, 519339, Note_on_c, 3, 58, 0
10, 519360, Note_on_c, 3, 58, 80
10, 519360, Note_on_c, 3, 46, 80
10, 519819, Note_on_c, 3, 58, 0
10, 519819, Note_on_c, 3, 46, 0
10, 519840, Note_on_c, 3, 46, 92
10, 519840, Note_on_c, 3, 58, 92
10, 519919, Note_on_c, 3, 46, 0
10, 519919, Note_on_c, 3, 58, 0
10, 519920, Note_on_c, 3, 46, 80
10, 519920, Note_on_c, 3, 58, 80
10, 521259, Note_on_c, 3, 46, 0
10, 521259, Note_on_c, 3, 58, 0
10, 521280, Note_on_c, 3, 58, 80
10, 521280, Note_on_c, 3, 46, 80
10, 521759, Note_on_c, 3, 58, 0
10, 521759, Note_on_c, 3, 46, 0
10, 521760, Note_on_c, 3, 48, 80
10, 521760, Note_on_c, 3, 60, 80
10, 522219, Note_on_c, 3, 48, 0
10, 522219, Note_on_c, 3, 60, 0
10, 522240, Note_on_c, 3, 60, 80
10, 522240, Note_on_c, 3, 48, 80
10, 523179, Note_on_c, 3, 60, 0
10, 523179, Note_on_c, 3, 48, 0
10, 523200, Note_on_c, 3, 60, 80
10, 523200, Note_on_c, 3, 48, 80
10, 523659, Note_on_c, 3, 60, 0
10, 523659, Note_on_c, 3, 48, 0
10, 523680, Note_on_c, 3, 48, 80
10, 523680, Note_on_c, 3, 60, 80
10, 524399, Note_on_c, 3, 48, 0
10, 524399, Note_on_c, 3, 60, 0
10, 524400, Note_on_c, 3, 50, 80
10, 524400, Note_on_c, 3, 62, 80
10, 524619, Note_on_c, 3, 50, 0
10, 524619, Note_on_c, 3, 62, 0
10, 524640, Note_on_c, 3, 52, 80
10, 524640, Note_on_c, 3, 64, 80
10, 524879, Note_on_c, 3, 52, 0
10, 524879, Note_on_c, 3, 64, 0
10, 524880, Note_on_c, 3, 53, 80
10, 524880, Note_on_c, 3, 65, 80
10, 525099, Note_on_c, 3, 53, 0
10, 525099, Note_on_c, 3, 65, 0
10, 525120, Note_on_c, 3, 55, 80
10, 525120, Note_on_c, 3, 67, 80
10, 525479, Note_on_c, 3, 55, 0
10, 525479, Note_on_c, 3, 67, 0
10, 525600, Note_on_c, 3, 67, 80
10, 525600, Note_on_c, 3, 55, 80
10, 525959, Note_on_c, 3, 67, 0
10, 525959, Note_on_c, 3, 55, 0
10, 526078, Control_c, 3, 11, 49
10, 526080, Note_on_c, 3, 55, 92
10, 526080, Note_on_c, 3, 43, 92
10, 526560, Control_c, 3, 11, 49
10, 526600, Control_c, 3, 11, 52
10, 526640, Control_c, 3, 11, 55
10, 526680, Control_c, 3, 11, 59
10, 526720, Control_c, 3, 11, 62
10, 526760, Control_c, 3, 11, 65
10, 526800, Control_c, 3, 11, 69
10, 526840, Control_c, 3, 11, 72
10, 526880, Control_c, 3, 11, 75
10, 526920, Control_c, 3, 11, 79
10, 526960, Control_c, 3, 11, 82
10, 527000, Control_c, 3, 11, 85
10, 527040, Control_c, 3, 11, 89
10, 527120, Control_c, 3, 11, 85
10, 527200, Control_c, 3, 11, 82
10, 527280, Control_c, 3, 11, 79
10, 527360, Control_c, 3, 11, 75
10, 527440, Control_c, 3, 11, 72
10, 527520, Control_c, 3, 11, 69
10, 527600, Control_c, 3, 11, 65
10, 527680, Control_c, 3, 11, 62
10, 527760, Control_c, 3, 11, 59
10, 527840, Control_c, 3, 11, 55
10, 527920, Control_c, 3, 11, 52
10, 527984, Note_on_c, 3, 55, 0
10, 527984, Note_on_c, 3, 43, 0
10, 528000, Note_on_c, 3, 48, 92
10, 528000, Note_on_c, 3, 36, 92
10, 528000, Control_c, 3, 11, 49
10, 528944, Note_on_c, 3, 48, 0
10, 528944, Note_on_c, 3, 36, 0
10, 528960, Note_on_c, 3, 36, 92
10, 528960, Note_on_c, 3, 48, 92
10, 529424, Note_on_c, 3, 36, 0
10, 529424, Note_on_c, 3, 48, 0
10, 529440, Note_on_c, 3, 45, 92
10, 529440, Note_on_c, 3, 57, 92
10, 529440, Control_c, 3, 11, 49
10, 529480, Control_c, 3, 11, 50
10, 529520, Control_c, 3, 11, 51
10, 529560, Control_c, 3, 11, 52
10, 529600, Control_c, 3, 11, 53
10, 529640, Control_c, 3, 11, 55
10, 529680, Control_c, 3, 11, 56
10, 529720, Control_c, 3, 11, 57
10, 529760, Control_c, 3, 11, 58
10, 529800, Control_c, 3, 11, 59
10, 529840, Control_c, 3, 11, 60
10, 529880, Control_c, 3, 11, 61
10, 529920, Control_c, 3, 11, 62
10, 529960, Control_c, 3, 11, 63
10, 530000, Control_c, 3, 11, 65
10, 530040, Control_c, 3, 11, 66
10, 530080, Control_c, 3, 11, 67
10, 530120, Control_c, 3, 11, 68
10, 530160, Control_c, 3, 11, 69
10, 530200, Control_c, 3, 11, 70
10, 530240, Control_c, 3, 11, 71
10, 530280, Control_c, 3, 11, 72
10, 530320, Control_c, 3, 11, 73
10, 530360, Control_c, 3, 11, 75
10, 530400, Control_c, 3, 11, 76
10, 530440, Control_c, 3, 11, 77
10, 530480, Control_c, 3, 11, 78
10, 530520, Control_c, 3, 11, 79
10, 530560, Control_c, 3, 11, 80
10, 530600, Control_c, 3, 11, 81
10, 530624, Note_on_c, 3, 45, 0
10, 530624, Note_on_c, 3, 57, 0
10, 530640, Control_c, 3, 11, 82
10, 530640, Note_on_c, 3, 55, 92
10, 530640, Note_on_c, 3, 43, 92
10, 530680, Control_c, 3, 11, 83
10, 530720, Control_c, 3, 11, 85
10, 530760, Control_c, 3, 11, 86
10, 530800, Control_c, 3, 11, 87
10, 530840, Control_c, 3, 11, 88
10, 530864, Note_on_c, 3, 55, 0
10, 530864, Note_on_c, 3, 43, 0
10, 530880, Note_on_c, 3, 50, 92
10, 530880, Note_on_c, 3, 38, 92
10, 531239, Note_on_c, 3, 50, 0
10, 531239, Note_on_c, 3, 38, 0
10, 531360, Note_on_c, 3, 50, 92
10, 531360, Note_on_c, 3, 62, 92
10, 531719, Note_on_c, 3, 50, 0
10, 531719, Note_on_c, 3, 62, 0
10, 531838, Control_c, 3, 11, 49
10, 531840, Note_on_c, 3, 43, 92
10, 531840, Control_c, 3, 11, 49
10, 531840, Note_on_c, 3, 55, 92
10, 531867, Control_c, 3, 11, 50
10, 531893, Control_c, 3, 11, 51
10, 531920, Control_c, 3, 11, 52
10, 531947, Control_c, 3, 11, 53
10, 531973, Control_c, 3, 11, 55
10, 532000, Control_c, 3, 11, 56
10, 532027, Control_c, 3, 11, 57
10, 532053, Control_c, 3, 11, 58
10, 532080, Control_c, 3, 11, 59
10, 532107, Control_c, 3, 11, 60
10, 532133, Control_c, 3, 11, 61
10, 532160, Control_c, 3, 11, 62
10, 532187, Control_c, 3, 11, 63
10, 532213, Control_c, 3, 11, 65
10, 532240, Control_c, 3, 11, 66
10, 532267, Control_c, 3, 11, 67
10, 532293, Control_c, 3, 11, 68
10, 532319, Note_on_c, 3, 55, 0
10, 532320, Control_c, 3, 11, 69
10, 532320, Note_on_c, 3, 58, 92
10, 532347, Control_c, 3, 11, 70
10, 532373, Control_c, 3, 11, 71
10, 532400, Control_c, 3, 11, 72
10, 532427, Control_c, 3, 11, 73
10, 532453, Control_c, 3, 11, 75
10, 532480, Control_c, 3, 11, 76
10, 532507, Control_c, 3, 11, 77
10, 532533, Control_c, 3, 11, 78
10, 532560, Control_c, 3, 11, 79
10, 532587, Control_c, 3, 11, 80
10, 532613, Control_c, 3, 11, 81
10, 532640, Control_c, 3, 11, 82
10, 532667, Control_c, 3, 11, 83
10, 532693, Control_c, 3, 11, 85
10, 532720, Control_c, 3, 11, 86
10, 532747, Control_c, 3, 11, 87
10, 532773, Control_c, 3, 11, 88
10, 532800, Control_c, 3, 11, 89
10, 532827, Control_c, 3, 11, 87
10, 532853, Control_c, 3, 11, 85
10, 532880, Control_c, 3, 11, 82
10, 532907, Control_c, 3, 11, 80
10, 532933, Control_c, 3, 11, 78
10, 532960, Control_c, 3, 11, 76
10, 532987, Control_c, 3, 11, 73
10, 533013, Control_c, 3, 11, 71
10, 533040, Control_c, 3, 11, 69
10, 533067, Control_c, 3, 11, 67
10, 533093, Control_c, 3, 11, 65
10, 533120, Control_c, 3, 11, 62
10, 533147, Control_c, 3, 11, 60
10, 533173, Control_c, 3, 11, 58
10, 533200, Control_c, 3, 11, 56
10, 533227, Control_c, 3, 11, 53
10, 533253, Control_c, 3, 11, 49
10, 533279, Note_on_c, 3, 58, 0
10, 533280, Note_on_c, 3, 55, 92
10, 533504, Note_on_c, 3, 43, 0
10, 533504, Note_on_c, 3, 55, 0
10, 533520, Note_on_c, 3, 55, 92
10, 533520, Note_on_c, 3, 43, 92
10, 533699, Note_on_c, 3, 55, 0
10, 533699, Note_on_c, 3, 43, 0
10, 533760, Note_on_c, 3, 48, 92
10, 533760, Note_on_c, 3, 36, 92
10, 534119, Note_on_c, 3, 48, 0
10, 534119, Note_on_c, 3, 36, 0
10, 534240, Note_on_c, 3, 36, 92
10, 534240, Note_on_c, 3, 48, 92
10, 534599, Note_on_c, 3, 36, 0
10, 534599, Note_on_c, 3, 48, 0
10, 534720, Note_on_c, 3, 36, 92
10, 534720, Note_on_c, 3, 48, 92
10, 535199, Note_on_c, 3, 36, 0
10, 535199, Note_on_c, 3, 48, 0
10, 535200, Note_on_c, 3, 45, 92
10, 535200, Control_c, 3, 11, 49
10, 535200, Note_on_c, 3, 57, 92
10, 535248, Control_c, 3, 11, 50
10, 535296, Control_c, 3, 11, 51
10, 535344, Control_c, 3, 11, 52
10, 535392, Control_c, 3, 11, 53
10, 535440, Control_c, 3, 11, 54
10, 535488, Control_c, 3, 11, 55
10, 535536, Control_c, 3, 11, 56
10, 535584, Control_c, 3, 11, 57
10, 535632, Control_c, 3, 11, 58
10, 535680, Control_c, 3, 11, 59
10, 535728, Control_c, 3, 11, 60
10, 535776, Control_c, 3, 11, 61
10, 535824, Control_c, 3, 11, 62
10, 535872, Control_c, 3, 11, 63
10, 535920, Control_c, 3, 11, 64
10, 535968, Control_c, 3, 11, 65
10, 536016, Control_c, 3, 11, 66
10, 536064, Control_c, 3, 11, 67
10, 536112, Control_c, 3, 11, 68
10, 536160, Control_c, 3, 11, 69
10, 536208, Control_c, 3, 11, 70
10, 536256, Control_c, 3, 11, 71
10, 536304, Control_c, 3, 11, 72
10, 536352, Control_c, 3, 11, 73
10, 536384, Note_on_c, 3, 45, 0
10, 536384, Note_on_c, 3, 57, 0
10, 536400, Control_c, 3, 11, 74
10, 536400, Note_on_c, 3, 55, 92
10, 536400, Note_on_c, 3, 43, 92
10, 536448, Control_c, 3, 11, 75
10, 536496, Control_c, 3, 11, 76
10, 536544, Control_c, 3, 11, 77
10, 536592, Control_c, 3, 11, 78
10, 536624, Note_on_c, 3, 55, 0
10, 536624, Note_on_c, 3, 43, 0
10, 536640, Note_on_c, 3, 50, 92
10, 536640, Note_on_c, 3, 38, 92
10, 536640, Control_c, 3, 11, 79
10, 536688, Control_c, 3, 11, 80
10, 536736, Control_c, 3, 11, 81
10, 536784, Control_c, 3, 11, 82
10, 536832, Control_c, 3, 11, 83
10, 536880, Control_c, 3, 11, 84
10, 536928, Control_c, 3, 11, 85
10, 536976, Control_c, 3, 11, 86
10, 536999, Note_on_c, 3, 50, 0
10, 536999, Note_on_c, 3, 38, 0
10, 537024, Control_c, 3, 11, 87
10, 537072, Control_c, 3, 11, 88
10, 537120, Note_on_c, 3, 50, 92
10, 537120, Note_on_c, 3, 62, 92
10, 537479, Note_on_c, 3, 50, 0
10, 537479, Note_on_c, 3, 62, 0
10, 537598, Control_c, 3, 11, 29
10, 537600, Note_on_c, 3, 43, 92
10, 537600, Note_on_c, 3, 55, 92
10, 538080, Control_c, 3, 11, 29
10, 538119, Control_c, 3, 11, 30
10, 538158, Control_c, 3, 11, 31
10, 538198, Control_c, 3, 11, 32
10, 538237, Control_c, 3, 11, 33
10, 538276, Control_c, 3, 11, 34
10, 538315, Control_c, 3, 11, 35
10, 538354, Control_c, 3, 11, 36
10, 538393, Control_c, 3, 11, 37
10, 538433, Control_c, 3, 11, 38
10, 538472, Control_c, 3, 11, 39
10, 538511, Control_c, 3, 11, 40
10, 538550, Control_c, 3, 11, 41
10, 538589, Control_c, 3, 11, 42
10, 538629, Control_c, 3, 11, 43
10, 538668, Control_c, 3, 11, 44
10, 538707, Control_c, 3, 11, 45
10, 538746, Control_c, 3, 11, 46
10, 538785, Control_c, 3, 11, 47
10, 538824, Control_c, 3, 11, 48
10, 538864, Control_c, 3, 11, 49
10, 538903, Control_c, 3, 11, 50
10, 538942, Control_c, 3, 11, 51
10, 538981, Control_c, 3, 11, 52
10, 539020, Control_c, 3, 11, 53
10, 539024, Note_on_c, 3, 43, 0
10, 539024, Note_on_c, 3, 55, 0
10, 539040, Note_on_c, 3, 43, 92
10, 539040, Note_on_c, 3, 55, 92
10, 539060, Control_c, 3, 11, 54
10, 539099, Control_c, 3, 11, 55
10, 539138, Control_c, 3, 11, 56
10, 539177, Control_c, 3, 11, 57
10, 539216, Control_c, 3, 11, 58
10, 539256, Control_c, 3, 11, 59
10, 539295, Control_c, 3, 11, 60
10, 539334, Control_c, 3, 11, 61
10, 539373, Control_c, 3, 11, 62
10, 539412, Control_c, 3, 11, 63
10, 539451, Control_c, 3, 11, 64
10, 539491, Control_c, 3, 11, 65
10, 539504, Note_on_c, 3, 43, 0
10, 539504, Note_on_c, 3, 55, 0
10, 539520, Note_on_c, 3, 41, 92
10, 539520, Note_on_c, 3, 53, 92
10, 539530, Control_c, 3, 11, 66
10, 539569, Control_c, 3, 11, 67
10, 539608, Control_c, 3, 11, 68
10, 539647, Control_c, 3, 11, 69
10, 539687, Control_c, 3, 11, 70
10, 539726, Control_c, 3, 11, 71
10, 539765, Control_c, 3, 11, 72
10, 539804, Control_c, 3, 11, 73
10, 539843, Control_c, 3, 11, 74
10, 539882, Control_c, 3, 11, 75
10, 539922, Control_c, 3, 11, 76
10, 539961, Control_c, 3, 11, 77
10, 540000, Control_c, 3, 11, 78
10, 540039, Control_c, 3, 11, 79
10, 540078, Control_c, 3, 11, 80
10, 540118, Control_c, 3, 11, 81
10, 540157, Control_c, 3, 11, 82
10, 540196, Control_c, 3, 11, 83
10, 540235, Control_c, 3, 11, 84
10, 540274, Control_c, 3, 11, 85
10, 540313, Control_c, 3, 11, 86
10, 540353, Control_c, 3, 11, 87
10, 540392, Control_c, 3, 11, 88
10, 540431, Control_c, 3, 11, 89
10, 540464, Note_on_c, 3, 41, 0
10, 540464, Note_on_c, 3, 53, 0
10, 540470, Control_c, 3, 11, 90
10, 540480, Note_on_c, 3, 41, 92
10, 540480, Note_on_c, 3, 53, 92
10, 540509, Control_c, 3, 11, 91
10, 540549, Control_c, 3, 11, 92
10, 540588, Control_c, 3, 11, 93
10, 540627, Control_c, 3, 11, 94
10, 540666, Control_c, 3, 11, 95
10, 540705, Control_c, 3, 11, 96
10, 540744, Control_c, 3, 11, 97
10, 540784, Control_c, 3, 11, 98
10, 540823, Control_c, 3, 11, 99
10, 540862, Control_c, 3, 11, 100
10, 540901, Control_c, 3, 11, 101
10, 540940, Control_c, 3, 11, 102
10, 540944, Note_on_c, 3, 41, 0
10, 540944, Note_on_c, 3, 53, 0
10, 540960, Note_on_c, 3, 46, 92
10, 540960, Note_on_c, 3, 34, 92
10, 540980, Control_c, 3, 11, 103
10, 541019, Control_c, 3, 11, 104
10, 541058, Control_c, 3, 11, 105
10, 541097, Control_c, 3, 11, 106
10, 541136, Control_c, 3, 11, 107
10, 541176, Control_c, 3, 11, 108
10, 541215, Control_c, 3, 11, 109
10, 541254, Control_c, 3, 11, 110
10, 541293, Control_c, 3, 11, 111
10, 541332, Control_c, 3, 11, 112
10, 541371, Control_c, 3, 11, 113
10, 541411, Control_c, 3, 11, 114
10, 541424, Note_on_c, 3, 46, 0
10, 541424, Note_on_c, 3, 34, 0
10, 541440, Note_on_c, 3, 46, 92
10, 541440, Note_on_c, 3, 58, 92
10, 541450, Control_c, 3, 11, 115
10, 541489, Control_c, 3, 11, 116
10, 541528, Control_c, 3, 11, 117
10, 541567, Control_c, 3, 11, 118
10, 541607, Control_c, 3, 11, 119
10, 541646, Control_c, 3, 11, 120
10, 541685, Control_c, 3, 11, 121
10, 541724, Control_c, 3, 11, 122
10, 541763, Control_c, 3, 11, 123
10, 541802, Control_c, 3, 11, 124
10, 541842, Control_c, 3, 11, 125
10, 541881, Control_c, 3, 11, 127
10, 541904, Note_on_c, 3, 46, 0
10, 541904, Note_on_c, 3, 58, 0
10, 541920, Note_on_c, 3, 48, 92
10, 541920, Note_on_c, 3, 60, 92
10, 543344, Note_on_c, 3, 48, 0
10, 543344, Note_on_c, 3, 60, 0
10, 543360, Control_c, 3, 11, 49
10, 543360, Note_on_c, 3, 60, 92
10, 543360, Note_on_c, 3, 48, 92
10, 543840, Control_c, 3, 11, 27
10, 544784, Note_on_c, 3, 60, 0
10, 544784, Note_on_c, 3, 48, 0
10, 544800, Note_on_c, 3, 48, 92
10, 544800, Note_on_c, 3, 60, 92
10, 545264, Note_on_c, 3, 48, 0
10, 545264, Note_on_c, 3, 60, 0
10, 545280, Note_on_c, 3, 60, 92
10, 545280, Note_on_c, 3, 48, 92
10, 545280, Control_c, 3, 11, 27
10, 545320, Control_c, 3, 11, 28
10, 545360, Control_c, 3, 11, 29
10, 545400, Control_c, 3, 11, 30
10, 545440, Control_c, 3, 11, 31
10, 545480, Control_c, 3, 11, 33
10, 545520, Control_c, 3, 11, 34
10, 545560, Control_c, 3, 11, 35
10, 545600, Control_c, 3, 11, 36
10, 545640, Control_c, 3, 11, 37
10, 545680, Control_c, 3, 11, 38
10, 545720, Control_c, 3, 11, 39
10, 545760, Control_c, 3, 11, 40
10, 545800, Control_c, 3, 11, 41
10, 545840, Control_c, 3, 11, 43
10, 545880, Control_c, 3, 11, 44
10, 545920, Control_c, 3, 11, 45
10, 545960, Control_c, 3, 11, 46
10, 546000, Control_c, 3, 11, 47
10, 546040, Control_c, 3, 11, 48
10, 546080, Control_c, 3, 11, 49
10, 546120, Control_c, 3, 11, 50
10, 546160, Control_c, 3, 11, 51
10, 546200, Control_c, 3, 11, 53
10, 546224, Note_on_c, 3, 60, 0
10, 546224, Note_on_c, 3, 48, 0
10, 546240, Note_on_c, 3, 48, 92
10, 546240, Control_c, 3, 11, 54
10, 546240, Note_on_c, 3, 60, 92
10, 546280, Control_c, 3, 11, 55
10, 546320, Control_c, 3, 11, 56
10, 546360, Control_c, 3, 11, 57
10, 546400, Control_c, 3, 11, 58
10, 546440, Control_c, 3, 11, 59
10, 546480, Control_c, 3, 11, 60
10, 546520, Control_c, 3, 11, 61
10, 546560, Control_c, 3, 11, 63
10, 546600, Control_c, 3, 11, 64
10, 546640, Control_c, 3, 11, 65
10, 546680, Control_c, 3, 11, 66
10, 546704, Note_on_c, 3, 48, 0
10, 546704, Note_on_c, 3, 60, 0
10, 546720, Note_on_c, 3, 60, 92
10, 546720, Control_c, 3, 11, 67
10, 546720, Note_on_c, 3, 48, 92
10, 546760, Control_c, 3, 11, 68
10, 546800, Control_c, 3, 11, 69
10, 546840, Control_c, 3, 11, 70
10, 546880, Control_c, 3, 11, 71
10, 546920, Control_c, 3, 11, 73
10, 546960, Control_c, 3, 11, 74
10, 547000, Control_c, 3, 11, 75
10, 547040, Control_c, 3, 11, 76
10, 547080, Control_c, 3, 11, 77
10, 547120, Control_c, 3, 11, 78
10, 547160, Control_c, 3, 11, 79
10, 547199, Note_on_c, 3, 60, 0
10, 547199, Note_on_c, 3, 48, 0
10, 547200, Control_c, 3, 11, 80
10, 547200, Note_on_c, 3, 41, 92
10, 547200, Note_on_c, 3, 53, 92
10, 547240, Control_c, 3, 11, 81
10, 547280, Control_c, 3, 11, 83
10, 547320, Control_c, 3, 11, 84
10, 547360, Control_c, 3, 11, 85
10, 547400, Control_c, 3, 11, 86
10, 547440, Control_c, 3, 11, 87
10, 547480, Control_c, 3, 11, 88
10, 547520, Control_c, 3, 11, 89
10, 547560, Control_c, 3, 11, 90
10, 547600, Control_c, 3, 11, 91
10, 547640, Control_c, 3, 11, 93
10, 547664, Note_on_c, 3, 41, 0
10, 547664, Note_on_c, 3, 53, 0
10, 547680, Control_c, 3, 11, 94
10, 547680, Note_on_c, 3, 65, 92
10, 547680, Note_on_c, 3, 53, 92
10, 547720, Control_c, 3, 11, 95
10, 547760, Control_c, 3, 11, 96
10, 547800, Control_c, 3, 11, 97
10, 547840, Control_c, 3, 11, 98
10, 547880, Control_c, 3, 11, 99
10, 547920, Control_c, 3, 11, 100
10, 547960, Control_c, 3, 11, 101
10, 548000, Control_c, 3, 11, 103
10, 548040, Control_c, 3, 11, 104
10, 548080, Control_c, 3, 11, 105
10, 548120, Control_c, 3, 11, 107
10, 548144, Note_on_c, 3, 65, 0
10, 548144, Note_on_c, 3, 53, 0
10, 548160, Note_on_c, 3, 50, 92
10, 548160, Note_on_c, 3, 62, 92
10, 549599, Note_on_c, 3, 50, 0
10, 549599, Note_on_c, 3, 62, 0
10, 549840, Control_c, 3, 11, 127
10, 550080, Note_on_c, 3, 67, 92
10, 550080, Note_on_c, 3, 63, 92
10, 550784, Note_on_c, 3, 67, 0
10, 550784, Note_on_c, 3, 63, 0
10, 550800, Note_on_c, 3, 67, 92
10, 550800, Note_on_c, 3, 63, 92
10, 551024, Note_on_c, 3, 67, 0
10, 551024, Note_on_c, 3, 63, 0
10, 551040, Note_on_c, 3, 67, 92
10, 551040, Note_on_c, 3, 63, 92
10, 551984, Note_on_c, 3, 67, 0
10, 551984, Note_on_c, 3, 63, 0
10, 552000, Note_on_c, 3, 63, 92
10, 552000, Note_on_c, 3, 67, 92
10, 552464, Note_on_c, 3, 63, 0
10, 552464, Note_on_c, 3, 67, 0
10, 552480, Note_on_c, 3, 67, 92
10, 552480, Note_on_c, 3, 63, 92
10, 552944, Note_on_c, 3, 67, 0
10, 552944, Note_on_c, 3, 63, 0
10, 552960, Note_on_c, 3, 67, 92
10, 552960, Note_on_c, 3, 63, 92
10, 553904, Note_on_c, 3, 67, 0
10, 553904, Note_on_c, 3, 63, 0
10, 553920, Note_on_c, 3, 67, 92
10, 553920, Note_on_c, 3, 63, 92
10, 554864, Note_on_c, 3, 67, 0
10, 554864, Note_on_c, 3, 63, 0
10, 554880, Note_on_c, 3, 63, 92
10, 554880, Note_on_c, 3, 67, 92
10, 555359, Note_on_c, 3, 63, 0
10, 555359, Note_on_c, 3, 67, 0
10, 559680, Note_on_c, 3, 61, 32
10, 559680, Note_on_c, 3, 64, 32
10, 560144, Note_on_c, 3, 61, 0
10, 560144, Note_on_c, 3, 64, 0
10, 560160, Note_on_c, 3, 61, 32
10, 560160, Note_on_c, 3, 64, 32
10, 560299, Note_on_c, 3, 61, 0
10, 560299, Note_on_c, 3, 64, 0
10, 560320, Note_on_c, 3, 61, 32
10, 560320, Note_on_c, 3, 64, 32
10, 560459, Note_on_c, 3, 61, 0
10, 560459, Note_on_c, 3, 64, 0
10, 560480, Note_on_c, 3, 64, 32
10, 560480, Note_on_c, 3, 61, 32
10, 560599, Note_on_c, 3, 64, 0
10, 560599, Note_on_c, 3, 61, 0
10, 560640, Note_on_c, 3, 61, 32
10, 560640, Note_on_c, 3, 64, 32
10, 560779, Note_on_c, 3, 61, 0
10, 560779, Note_on_c, 3, 64, 0
10, 560800, Note_on_c, 3, 61, 32
10, 560800, Note_on_c, 3, 64, 32
10, 560939, Note_on_c, 3, 61, 0
10, 560939, Note_on_c, 3, 64, 0
10, 560960, Note_on_c, 3, 61, 32
10, 560960, Note_on_c, 3, 64, 32
10, 561079, Note_on_c, 3, 61, 0
10, 561079, Note_on_c, 3, 64, 0
10, 561120, Note_on_c, 3, 64, 32
10, 561120, Note_on_c, 3, 61, 32
10, 561259, Note_on_c, 3, 64, 0
10, 561259, Note_on_c, 3, 61, 0
10, 561280, Note_on_c, 3, 61, 32
10, 561280, Note_on_c, 3, 64, 32
10, 561419, Note_on_c, 3, 61, 0
10, 561419, Note_on_c, 3, 64, 0
10, 561440, Note_on_c, 3, 64, 32
10, 561440, Note_on_c, 3, 61, 32
10, 561559, Note_on_c, 3, 64, 0
10, 561559, Note_on_c, 3, 61, 0
10, 561600, Note_on_c, 3, 61, 32
10, 561600, Note_on_c, 3, 64, 32
10, 561739, Note_on_c, 3, 61, 0
10, 561739, Note_on_c, 3, 64, 0
10, 561760, Note_on_c, 3, 64, 32
10, 561760, Note_on_c, 3, 61, 32
10, 561899, Note_on_c, 3, 64, 0
10, 561899, Note_on_c, 3, 61, 0
10, 561920, Note_on_c, 3, 64, 32
10, 561920, Note_on_c, 3, 61, 32
10, 562039, Note_on_c, 3, 64, 0
10, 562039, Note_on_c, 3, 61, 0
10, 562080, Note_on_c, 3, 64, 32
10, 562080, Note_on_c, 3, 61, 32
10, 562219, Note_on_c, 3, 64, 0
10, 562219, Note_on_c, 3, 61, 0
10, 562240, Note_on_c, 3, 64, 32
10, 562240, Note_on_c, 3, 61, 32
10, 562379, Note_on_c, 3, 64, 0
10, 562379, Note_on_c, 3, 61, 0
10, 562400, Note_on_c, 3, 64, 32
10, 562400, Note_on_c, 3, 61, 32
10, 562519, Note_on_c, 3, 64, 0
10, 562519, Note_on_c, 3, 61, 0
10, 562560, Note_on_c, 3, 64, 32
10, 562560, Note_on_c, 3, 61, 32
10, 562699, Note_on_c, 3, 64, 0
10, 562699, Note_on_c, 3, 61, 0
10, 562720, Note_on_c, 3, 64, 32
10, 562720, Note_on_c, 3, 61, 32
10, 562859, Note_on_c, 3, 64, 0
10, 562859, Note_on_c, 3, 61, 0
10, 562880, Note_on_c, 3, 64, 32
10, 562880, Note_on_c, 3, 61, 32
10, 562999, Note_on_c, 3, 64, 0
10, 562999, Note_on_c, 3, 61, 0
10, 563040, Note_on_c, 3, 64, 32
10, 563040, Note_on_c, 3, 61, 32
10, 563179, Note_on_c, 3, 64, 0
10, 563179, Note_on_c, 3, 61, 0
10, 563200, Note_on_c, 3, 64, 32
10, 563200, Note_on_c, 3, 61, 32
10, 563339, Note_on_c, 3, 64, 0
10, 563339, Note_on_c, 3, 61, 0
10, 563360, Note_on_c, 3, 61, 32
10, 563360, Note_on_c, 3, 64, 32
10, 563479, Note_on_c, 3, 61, 0
10, 563479, Note_on_c, 3, 64, 0
10, 563520, Note_on_c, 3, 61, 32
10, 563520, Note_on_c, 3, 64, 32
10, 563659, Note_on_c, 3, 61, 0
10, 563659, Note_on_c, 3, 64, 0
10, 563680, Note_on_c, 3, 64, 32
10, 563680, Note_on_c, 3, 61, 32
10, 563819, Note_on_c, 3, 64, 0
10, 563819, Note_on_c, 3, 61, 0
10, 563840, Note_on_c, 3, 64, 32
10, 563840, Note_on_c, 3, 61, 32
10, 563959, Note_on_c, 3, 64, 0
10, 563959, Note_on_c, 3, 61, 0
10, 564000, Note_on_c, 3, 61, 32
10, 564000, Note_on_c, 3, 64, 32
10, 564139, Note_on_c, 3, 61, 0
10, 564139, Note_on_c, 3, 64, 0
10, 564160, Note_on_c, 3, 64, 32
10, 564160, Note_on_c, 3, 61, 32
10, 564299, Note_on_c, 3, 64, 0
10, 564299, Note_on_c, 3, 61, 0
10, 564320, Note_on_c, 3, 61, 32
10, 564320, Note_on_c, 3, 64, 32
10, 564439, Note_on_c, 3, 61, 0
10, 564439, Note_on_c, 3, 64, 0
10, 564480, Note_on_c, 3, 64, 32
10, 564480, Note_on_c, 3, 61, 32
10, 564619, Note_on_c, 3, 64, 0
10, 564619, Note_on_c, 3, 61, 0
10, 564640, Note_on_c, 3, 64, 32
10, 564640, Note_on_c, 3, 61, 32
10, 564779, Note_on_c, 3, 64, 0
10, 564779, Note_on_c, 3, 61, 0
10, 564800, Note_on_c, 3, 64, 32
10, 564800, Note_on_c, 3, 61, 32
10, 564919, Note_on_c, 3, 64, 0
10, 564919, Note_on_c, 3, 61, 0
10, 564960, Note_on_c, 3, 61, 32
10, 564960, Note_on_c, 3, 64, 32
10, 565099, Note_on_c, 3, 61, 0
10, 565099, Note_on_c, 3, 64, 0
10, 565120, Note_on_c, 3, 61, 32
10, 565120, Note_on_c, 3, 64, 32
10, 565259, Note_on_c, 3, 61, 0
10, 565259, Note_on_c, 3, 64, 0
10, 565280, Note_on_c, 3, 61, 32
10, 565280, Note_on_c, 3, 64, 32
10, 565399, Note_on_c, 3, 61, 0
10, 565399, Note_on_c, 3, 64, 0
10, 565440, Note_on_c, 3, 61, 32
10, 565440, Note_on_c, 3, 64, 32
10, 565579, Note_on_c, 3, 61, 0
10, 565579, Note_on_c, 3, 64, 0
10, 565600, Note_on_c, 3, 61, 32
10, 565600, Note_on_c, 3, 64, 32
10, 565739, Note_on_c, 3, 61, 0
10, 565739, Note_on_c, 3, 64, 0
10, 565760, Note_on_c, 3, 61, 32
10, 565760, Note_on_c, 3, 64, 32
10, 565879, Note_on_c, 3, 61, 0
10, 565879, Note_on_c, 3, 64, 0
10, 565920, Note_on_c, 3, 64, 32
10, 565920, Note_on_c, 3, 61, 32
10, 566059, Note_on_c, 3, 64, 0
10, 566059, Note_on_c, 3, 61, 0
10, 566080, Note_on_c, 3, 64, 32
10, 566080, Note_on_c, 3, 61, 32
10, 566219, Note_on_c, 3, 64, 0
10, 566219, Note_on_c, 3, 61, 0
10, 566240, Note_on_c, 3, 64, 32
10, 566240, Note_on_c, 3, 61, 32
10, 566359, Note_on_c, 3, 64, 0
10, 566359, Note_on_c, 3, 61, 0
10, 566400, Note_on_c, 3, 64, 32
10, 566400, Note_on_c, 3, 61, 32
10, 566539, Note_on_c, 3, 64, 0
10, 566539, Note_on_c, 3, 61, 0
10, 566560, Note_on_c, 3, 61, 32
10, 566560, Note_on_c, 3, 64, 32
10, 566679, Note_on_c, 3, 61, 0
10, 566679, Note_on_c, 3, 64, 0
10, 566720, Note_on_c, 3, 61, 32
10, 566720, Note_on_c, 3, 64, 32
10, 566879, Note_on_c, 3, 61, 0
10, 566879, Note_on_c, 3, 64, 0
10, 579120, Note_on_c, 3, 69, 92
10, 579840, Note_on_c, 3, 61, 92
10, 579959, Note_on_c, 3, 61, 0
10, 579960, Note_on_c, 3, 52, 92
10, 580079, Note_on_c, 3, 52, 0
10, 580080, Note_on_c, 3, 54, 92
10, 580199, Note_on_c, 3, 54, 0
10, 580200, Note_on_c, 3, 56, 92
10, 580319, Note_on_c, 3, 56, 0
10, 580320, Note_on_c, 3, 57, 92
10, 580439, Note_on_c, 3, 57, 0
10, 580440, Note_on_c, 3, 59, 92
10, 580539, Note_on_c, 3, 69, 0
10, 580539, Note_on_c, 3, 59, 0
10, 580560, Note_on_c, 3, 69, 80
10, 580560, Note_on_c, 3, 61, 92
10, 580679, Note_on_c, 3, 61, 0
10, 580680, Note_on_c, 3, 59, 92
10, 580799, Note_on_c, 3, 59, 0
10, 580800, Note_on_c, 3, 57, 92
10, 580919, Note_on_c, 3, 57, 0
10, 580920, Note_on_c, 3, 59, 92
10, 581039, Note_on_c, 3, 59, 0
10, 581040, Note_on_c, 3, 61, 92
10, 581159, Note_on_c, 3, 61, 0
10, 581160, Note_on_c, 3, 62, 92
10, 581259, Note_on_c, 3, 69, 0
10, 581259, Note_on_c, 3, 62, 0
10, 581280, Note_on_c, 3, 64, 92
10, 581280, Note_on_c, 3, 68, 80
10, 581399, Note_on_c, 3, 64, 0
10, 581400, Note_on_c, 3, 66, 92
10, 581519, Note_on_c, 3, 66, 0
10, 581520, Note_on_c, 3, 64, 92
10, 581639, Note_on_c, 3, 64, 0
10, 581640, Note_on_c, 3, 62, 92
10, 581759, Note_on_c, 3, 62, 0
10, 581760, Note_on_c, 3, 64, 92
10, 581879, Note_on_c, 3, 64, 0
10, 581880, Note_on_c, 3, 62, 92
10, 581979, Note_on_c, 3, 68, 0
10, 581979, Note_on_c, 3, 62, 0
10, 582000, Note_on_c, 3, 61, 92
10, 582000, Note_on_c, 3, 64, 80
10, 582119, Note_on_c, 3, 61, 0
10, 582120, Note_on_c, 3, 62, 92
10, 582239, Note_on_c, 3, 62, 0
10, 582240, Note_on_c, 3, 61, 92
10, 582359, Note_on_c, 3, 61, 0
10, 582360, Note_on_c, 3, 59, 92
10, 582479, Note_on_c, 3, 59, 0
10, 582480, Note_on_c, 3, 61, 92
10, 582599, Note_on_c, 3, 61, 0
10, 582600, Note_on_c, 3, 59, 92
10, 582699, Note_on_c, 3, 64, 0
10, 582699, Note_on_c, 3, 59, 0
10, 582720, Note_on_c, 3, 57, 92
10, 582720, Note_on_c, 3, 66, 80
10, 582839, Note_on_c, 3, 57, 0
10, 582840, Note_on_c, 3, 49, 92
10, 582959, Note_on_c, 3, 49, 0
10, 582960, Note_on_c, 3, 50, 92
10, 583079, Note_on_c, 3, 50, 0
10, 583080, Note_on_c, 3, 52, 92
10, 583199, Note_on_c, 3, 52, 0
10, 583200, Note_on_c, 3, 54, 92
10, 583319, Note_on_c, 3, 54, 0
10, 583320, Note_on_c, 3, 56, 92
10, 583419, Note_on_c, 3, 66, 0
10, 583419, Note_on_c, 3, 56, 0
10, 583440, Note_on_c, 3, 66, 80
10, 583440, Note_on_c, 3, 57, 92
10, 583559, Note_on_c, 3, 57, 0
10, 583560, Note_on_c, 3, 56, 92
10, 583679, Note_on_c, 3, 56, 0
10, 583680, Note_on_c, 3, 54, 92
10, 583799, Note_on_c, 3, 54, 0
10, 583800, Note_on_c, 3, 56, 92
10, 583919, Note_on_c, 3, 56, 0
10, 583920, Note_on_c, 3, 57, 92
10, 584039, Note_on_c, 3, 57, 0
10, 584040, Note_on_c, 3, 59, 92
10, 584139, Note_on_c, 3, 66, 0
10, 584139, Note_on_c, 3, 59, 0
10, 584160, Note_on_c, 3, 61, 92
10, 584160, Note_on_c, 3, 64, 80
10, 584279, Note_on_c, 3, 61, 0
10, 584280, Note_on_c, 3, 62, 92
10, 584399, Note_on_c, 3, 62, 0
10, 584400, Note_on_c, 3, 61, 92
10, 584519, Note_on_c, 3, 61, 0
10, 584520, Note_on_c, 3, 59, 92
10, 584639, Note_on_c, 3, 59, 0
10, 584640, Note_on_c, 3, 61, 92
10, 584759, Note_on_c, 3, 61, 0
10, 584760, Note_on_c, 3, 59, 92
10, 584859, Note_on_c, 3, 64, 0
10, 584859, Note_on_c, 3, 59, 0
10, 584880, Note_on_c, 3, 57, 92
10, 584880, Note_on_c, 3, 61, 80
10, 584999, Note_on_c, 3, 57, 0
10, 585000, Note_on_c, 3, 59, 92
10, 585119, Note_on_c, 3, 59, 0
10, 585120, Note_on_c, 3, 57, 92
10, 585239, Note_on_c, 3, 57, 0
10, 585240, Note_on_c, 3, 55, 92
10, 585359, Note_on_c, 3, 55, 0
10, 585360, Note_on_c, 3, 57, 92
10, 585479, Note_on_c, 3, 57, 0
10, 585480, Note_on_c, 3, 55, 92
10, 585579, Note_on_c, 3, 61, 0
10, 585579, Note_on_c, 3, 55, 0
10, 585600, Note_on_c, 3, 62, 80
10, 585600, Note_on_c, 3, 54, 92
10, 585719, Note_on_c, 3, 54, 0
10, 585720, Note_on_c, 3, 45, 92
10, 585839, Note_on_c, 3, 45, 0
10, 585840, Note_on_c, 3, 47, 92
10, 585959, Note_on_c, 3, 47, 0
10, 585960, Note_on_c, 3, 49, 92
10, 586079, Note_on_c, 3, 49, 0
10, 586080, Note_on_c, 3, 50, 92
10, 586199, Note_on_c, 3, 50, 0
10, 586200, Note_on_c, 3, 52, 92
10, 586299, Note_on_c, 3, 62, 0
10, 586299, Note_on_c, 3, 52, 0
10, 586320, Note_on_c, 3, 54, 92
10, 586320, Note_on_c, 3, 62, 80
10, 586439, Note_on_c, 3, 54, 0
10, 586440, Note_on_c, 3, 52, 92
10, 586559, Note_on_c, 3, 52, 0
10, 586560, Note_on_c, 3, 50, 92
10, 586679, Note_on_c, 3, 50, 0
10, 586680, Note_on_c, 3, 52, 92
10, 586799, Note_on_c, 3, 52, 0
10, 586800, Note_on_c, 3, 54, 92
10, 586919, Note_on_c, 3, 54, 0
10, 586920, Note_on_c, 3, 56, 92
10, 587019, Note_on_c, 3, 62, 0
10, 587019, Note_on_c, 3, 56, 0
10, 587040, Note_on_c, 3, 61, 80
10, 587040, Note_on_c, 3, 57, 92
10, 587159, Note_on_c, 3, 57, 0
10, 587160, Note_on_c, 3, 59, 92
10, 587279, Note_on_c, 3, 59, 0
10, 587280, Note_on_c, 3, 57, 92
10, 587399, Note_on_c, 3, 57, 0
10, 587400, Note_on_c, 3, 55, 92
10, 587519, Note_on_c, 3, 55, 0
10, 587520, Note_on_c, 3, 57, 92
10, 587639, Note_on_c, 3, 57, 0
10, 587640, Note_on_c, 3, 55, 92
10, 587739, Note_on_c, 3, 61, 0
10, 587739, Note_on_c, 3, 55, 0
10, 587760, Note_on_c, 3, 54, 92
10, 587760, Note_on_c, 3, 57, 80
10, 587879, Note_on_c, 3, 54, 0
10, 587880, Note_on_c, 3, 55, 92
10, 587999, Note_on_c, 3, 55, 0
10, 588000, Note_on_c, 3, 54, 92
10, 588119, Note_on_c, 3, 54, 0
10, 588120, Note_on_c, 3, 52, 92
10, 588239, Note_on_c, 3, 52, 0
10, 588240, Note_on_c, 3, 54, 92
10, 588359, Note_on_c, 3, 54, 0
10, 588360, Note_on_c, 3, 52, 92
10, 588459, Note_on_c, 3, 57, 0
10, 588459, Note_on_c, 3, 52, 0
10, 588480, Note_on_c, 3, 50, 92
10, 588480, Note_on_c, 3, 67, 80
10, 588599, Note_on_c, 3, 50, 0
10, 588600, Note_on_c, 3, 52, 92
10, 588719, Note_on_c, 3, 52, 0
10, 588720, Note_on_c, 3, 50, 92
10, 588839, Note_on_c, 3, 50, 0
10, 588840, Note_on_c, 3, 49, 92
10, 588959, Note_on_c, 3, 49, 0
10, 588960, Note_on_c, 3, 50, 92
10, 589079, Note_on_c, 3, 50, 0
10, 589080, Note_on_c, 3, 49, 92
10, 589179, Note_on_c, 3, 67, 0
10, 589179, Note_on_c, 3, 49, 0
10, 589200, Note_on_c, 3, 47, 92
10, 589200, Note_on_c, 3, 67, 80
10, 589319, Note_on_c, 3, 47, 0
10, 589320, Note_on_c, 3, 49, 92
10, 589439, Note_on_c, 3, 49, 0
10, 589440, Note_on_c, 3, 47, 92
10, 589559, Note_on_c, 3, 47, 0
10, 589560, Note_on_c, 3, 45, 92
10, 589679, Note_on_c, 3, 45, 0
10, 589680, Note_on_c, 3, 47, 92
10, 589799, Note_on_c, 3, 47, 0
10, 589800, Note_on_c, 3, 45, 92
10, 589899, Note_on_c, 3, 67, 0
10, 589899, Note_on_c, 3, 45, 0
10, 589920, Note_on_c, 3, 50, 92
10, 589920, Note_on_c, 3, 66, 80
10, 590039, Note_on_c, 3, 50, 0
10, 590040, Note_on_c, 3, 45, 92
10, 590159, Note_on_c, 3, 45, 0
10, 590160, Note_on_c, 3, 47, 92
10, 590279, Note_on_c, 3, 47, 0
10, 590280, Note_on_c, 3, 49, 92
10, 590399, Note_on_c, 3, 49, 0
10, 590400, Note_on_c, 3, 50, 92
10, 590519, Note_on_c, 3, 50, 0
10, 590520, Note_on_c, 3, 49, 92
10, 590619, Note_on_c, 3, 66, 0
10, 590619, Note_on_c, 3, 49, 0
10, 590640, Note_on_c, 3, 50, 92
10, 590759, Note_on_c, 3, 50, 0
10, 590760, Note_on_c, 3, 54, 92
10, 590879, Note_on_c, 3, 54, 0
10, 590880, Note_on_c, 3, 57, 92
10, 590999, Note_on_c, 3, 57, 0
10, 591000, Note_on_c, 3, 61, 92
10, 591099, Note_on_c, 3, 61, 0
10, 591120, Note_on_c, 3, 62, 92
10, 591360, Note_on_c, 3, 66, 92
10, 591819, Note_on_c, 3, 66, 0
10, 591840, Note_on_c, 3, 66, 92
10, 592059, Note_on_c, 3, 62, 0
10, 592059, Note_on_c, 3, 66, 0
10, 592080, Note_on_c, 3, 62, 80
10, 592080, Note_on_c, 3, 67, 80
10, 592539, Note_on_c, 3, 67, 0
10, 592560, Note_on_c, 3, 69, 80
10, 592779, Note_on_c, 3, 62, 0
10, 592779, Note_on_c, 3, 69, 0
10, 592800, Note_on_c, 3, 61, 80
10, 592800, Note_on_c, 3, 69, 80
10, 593259, Note_on_c, 3, 69, 0
10, 593280, Note_on_c, 3, 67, 80
10, 593499, Note_on_c, 3, 61, 0
10, 593499, Note_on_c, 3, 67, 0
10, 593520, Note_on_c, 3, 66, 80
10, 593520, Note_on_c, 3, 57, 80
10, 593979, Note_on_c, 3, 66, 0
10, 594000, Note_on_c, 3, 64, 80
10, 594219, Note_on_c, 3, 57, 0
10, 594219, Note_on_c, 3, 64, 0
10, 594240, Note_on_c, 3, 62, 80
10, 594240, Note_on_c, 3, 59, 80
10, 594699, Note_on_c, 3, 62, 0
10, 594720, Note_on_c, 3, 62, 80
10, 594939, Note_on_c, 3, 59, 0
10, 594939, Note_on_c, 3, 62, 0
10, 594960, Note_on_c, 3, 59, 80
10, 594960, Note_on_c, 3, 64, 80
10, 595419, Note_on_c, 3, 64, 0
10, 595440, Note_on_c, 3, 66, 80
10, 595659, Note_on_c, 3, 59, 0
10, 595659, Note_on_c, 3, 66, 0
10, 595680, Note_on_c, 3, 66, 80
10, 595680, Note_on_c, 3, 57, 80
10, 596139, Note_on_c, 3, 66, 0
10, 596160, Note_on_c, 3, 64, 80
10, 596379, Note_on_c, 3, 57, 0
10, 596379, Note_on_c, 3, 64, 0
10, 596400, Note_on_c, 3, 62, 80
10, 596400, Note_on_c, 3, 54, 80
10, 596859, Note_on_c, 3, 62, 0
10, 596880, Note_on_c, 3, 60, 80
10, 597099, Note_on_c, 3, 54, 0
10, 597099, Note_on_c, 3, 60, 0
10, 597120, Note_on_c, 3, 55, 80
10, 597120, Note_on_c, 3, 59, 80
10, 597579, Note_on_c, 3, 59, 0
10, 597600, Note_on_c, 3, 59, 80
10, 597819, Note_on_c, 3, 55, 0
10, 597819, Note_on_c, 3, 59, 0
10, 597840, Note_on_c, 3, 61, 80
10, 597840, Note_on_c, 3, 55, 80
10, 598299, Note_on_c, 3, 61, 0
10, 598320, Note_on_c, 3, 62, 80
10, 598539, Note_on_c, 3, 55, 0
10, 598539, Note_on_c, 3, 62, 0
10, 598560, Note_on_c, 3, 54, 80
10, 598560, Note_on_c, 3, 62, 80
10, 599019, Note_on_c, 3, 62, 0
10, 599040, Note_on_c, 3, 61, 80
10, 599259, Note_on_c, 3, 54, 0
10, 599259, Note_on_c, 3, 61, 0
10, 599280, Note_on_c, 3, 50, 80
10, 599280, Note_on_c, 3, 59, 80
10, 599739, Note_on_c, 3, 59, 0
10, 599760, Note_on_c, 3, 57, 80
10, 599979, Note_on_c, 3, 50, 0
10, 599979, Note_on_c, 3, 57, 0
10, 600000, Note_on_c, 3, 59, 80
10, 600000, Note_on_c, 3, 55, 80
10, 600459, Note_on_c, 3, 55, 0
10, 600480, Note_on_c, 3, 54, 80
10, 600699, Note_on_c, 3, 59, 0
10, 600699, Note_on_c, 3, 54, 0
10, 600720, Note_on_c, 3, 52, 80
10, 600720, Note_on_c, 3, 59, 80
10, 601179, Note_on_c, 3, 52, 0
10, 601200, Note_on_c, 3, 50, 80
10, 601419, Note_on_c, 3, 59, 0
10, 601419, Note_on_c, 3, 50, 0
10, 601440, Note_on_c, 3, 57, 92
10, 601899, Note_on_c, 3, 57, 0
10, 601920, Note_on_c, 3, 61, 92
10, 602619, Note_on_c, 3, 61, 0
10, 602640, Note_on_c, 3, 59, 92
10, 602859, Note_on_c, 3, 59, 0
10, 602880, Note_on_c, 3, 57, 92
10, 603579, Note_on_c, 3, 57, 0
10, 603600, Note_on_c, 3, 59, 92
10, 604059, Note_on_c, 3, 59, 0
10, 604080, Note_on_c, 3, 61, 92
10, 604299, Note_on_c, 3, 61, 0
10, 604320, Note_on_c, 3, 52, 92
10, 604320, Note_on_c, 3, 64, 92
10, 604779, Note_on_c, 3, 64, 0
10, 604800, Note_on_c, 3, 64, 92
10, 605019, Note_on_c, 3, 64, 0
10, 606219, Note_on_c, 3, 52, 0
10, 606240, Note_on_c, 3, 50, 92
10, 606459, Note_on_c, 3, 50, 0
10, 606480, Note_on_c, 3, 62, 92
10, 606939, Note_on_c, 3, 62, 0
10, 606960, Note_on_c, 3, 57, 92
10, 607179, Note_on_c, 3, 57, 0
10, 607200, Note_on_c, 3, 69, 92
10, 607200, Note_on_c, 3, 57, 92
10, 607659, Note_on_c, 3, 69, 0
10, 607680, Note_on_c, 3, 69, 92
10, 607899, Note_on_c, 3, 69, 0
10, 608619, Note_on_c, 3, 57, 0
10, 608640, Note_on_c, 3, 59, 92
10, 609339, Note_on_c, 3, 59, 0
10, 609360, Note_on_c, 3, 59, 92
10, 609360, Note_on_c, 3, 52, 92
10, 609839, Note_on_c, 3, 59, 0
10, 609840, Note_on_c, 3, 61, 92
10, 609959, Note_on_c, 3, 61, 0
10, 609960, Note_on_c, 3, 59, 92
10, 610059, Note_on_c, 3, 52, 0
10, 610059, Note_on_c, 3, 59, 0
10, 610080, Note_on_c, 3, 54, 92
10, 610080, Note_on_c, 3, 57, 92
10, 610539, Note_on_c, 3, 54, 0
10, 610539, Note_on_c, 3, 57, 0
10, 610560, Note_on_c, 3, 64, 92
10, 610560, Note_on_c, 3, 61, 92
10, 610779, Note_on_c, 3, 64, 0
10, 610779, Note_on_c, 3, 61, 0
10, 610800, Note_on_c, 3, 62, 92
10, 611259, Note_on_c, 3, 62, 0
10, 611280, Note_on_c, 3, 64, 92
10, 611280, Note_on_c, 3, 61, 92
10, 611499, Note_on_c, 3, 64, 0
10, 611499, Note_on_c, 3, 61, 0
10, 611520, Note_on_c, 3, 59, 92
10, 611520, Note_on_c, 3, 64, 92
10, 611759, Note_on_c, 3, 59, 0
10, 611760, Note_on_c, 3, 57, 92
10, 612219, Note_on_c, 3, 64, 0
10, 612219, Note_on_c, 3, 57, 0
10, 612240, Note_on_c, 3, 62, 92
10, 612240, Note_on_c, 3, 57, 92
10, 612699, Note_on_c, 3, 62, 0
10, 612720, Note_on_c, 3, 61, 92
10, 612939, Note_on_c, 3, 57, 0
10, 612960, Note_on_c, 3, 58, 92
10, 613419, Note_on_c, 3, 61, 0
10, 613440, Note_on_c, 3, 58, 92
10, 613659, Note_on_c, 3, 58, 0
10, 613680, Note_on_c, 3, 54, 92
10, 614139, Note_on_c, 3, 58, 0
10, 614160, Note_on_c, 3, 61, 92
10, 614379, Note_on_c, 3, 54, 0
10, 614400, Note_on_c, 3, 64, 92
10, 614859, Note_on_c, 3, 61, 0
10, 614880, Note_on_c, 3, 58, 92
10, 615099, Note_on_c, 3, 64, 0
10, 615120, Note_on_c, 3, 64, 92
10, 615579, Note_on_c, 3, 58, 0
10, 615600, Note_on_c, 3, 54, 92
10, 615819, Note_on_c, 3, 64, 0
10, 615819, Note_on_c, 3, 54, 0
10, 615840, Note_on_c, 3, 54, 92
10, 615840, Note_on_c, 3, 63, 92
10, 616299, Note_on_c, 3, 54, 0
10, 616320, Note_on_c, 3, 59, 92
10, 616539, Note_on_c, 3, 63, 0
10, 616539, Note_on_c, 3, 59, 0
10, 616560, Note_on_c, 3, 59, 92
10, 617259, Note_on_c, 3, 59, 0
10, 617280, Note_on_c, 3, 59, 80
10, 617979, Note_on_c, 3, 59, 0
10, 618000, Note_on_c, 3, 59, 80
10, 619200, Note_on_c, 3, 52, 80
10, 619419, Note_on_c, 3, 59, 0
10, 619920, Note_on_c, 3, 64, 80
10, 620139, Note_on_c, 3, 52, 0
10, 620160, Note_on_c, 3, 62, 80
10, 620619, Note_on_c, 3, 64, 0
10, 620640, Note_on_c, 3, 58, 80
10, 620859, Note_on_c, 3, 62, 0
10, 620859, Note_on_c, 3, 58, 0
10, 620880, Note_on_c, 3, 57, 80
10, 620880, Note_on_c, 3, 61, 80
10, 621339, Note_on_c, 3, 57, 0
10, 621360, Note_on_c, 3, 64, 80
10, 621579, Note_on_c, 3, 61, 0
10, 621600, Note_on_c, 3, 62, 80
10, 622059, Note_on_c, 3, 64, 0
10, 622299, Note_on_c, 3, 62, 0
10, 622320, Note_on_c, 3, 66, 80
10, 622779, Note_on_c, 3, 66, 0
10, 622800, Note_on_c, 3, 64, 80
10, 623519, Note_on_c, 3, 64, 0
10, 623520, Note_on_c, 3, 62, 80
10, 623759, Note_on_c, 3, 62, 0
10, 623760, Note_on_c, 3, 64, 80
10, 624239, Note_on_c, 3, 64, 0
10, 624240, Note_on_c, 3, 66, 80
10, 624459, Note_on_c, 3, 66, 0
10, 624480, Note_on_c, 3, 57, 80
10, 624480, Note_on_c, 3, 64, 80
10, 624579, Note_on_c, 3, 57, 0
10, 624600, Note_on_c, 3, 45, 80
10, 624699, Note_on_c, 3, 45, 0
10, 624720, Note_on_c, 3, 57, 80
10, 624819, Note_on_c, 3, 57, 0
10, 624840, Note_on_c, 3, 57, 80
10, 624939, Note_on_c, 3, 57, 0
10, 624960, Note_on_c, 3, 57, 80
10, 625179, Note_on_c, 3, 64, 0
10, 625179, Note_on_c, 3, 57, 0
10, 625200, Note_on_c, 3, 62, 80
10, 625659, Note_on_c, 3, 62, 0
10, 625680, Note_on_c, 3, 61, 80
10, 626399, Note_on_c, 3, 61, 0
10, 626400, Note_on_c, 3, 59, 80
10, 626639, Note_on_c, 3, 59, 0
10, 626640, Note_on_c, 3, 61, 80
10, 627119, Note_on_c, 3, 61, 0
10, 627120, Note_on_c, 3, 62, 80
10, 627480, Note_on_c, 3, 50, 80
10, 627579, Note_on_c, 3, 50, 0
10, 627600, Note_on_c, 3, 50, 80
10, 627699, Note_on_c, 3, 50, 0
10, 627819, Note_on_c, 3, 62, 0
10, 627840, Note_on_c, 3, 61, 80
10, 627840, Note_on_c, 3, 57, 80
10, 628059, Note_on_c, 3, 61, 0
10, 628059, Note_on_c, 3, 57, 0
10, 628080, Note_on_c, 3, 59, 80
10, 628539, Note_on_c, 3, 59, 0
10, 628560, Note_on_c, 3, 57, 80
10, 628779, Note_on_c, 3, 57, 0
10, 628800, Note_on_c, 3, 64, 80
10, 629259, Note_on_c, 3, 64, 0
10, 629280, Note_on_c, 3, 62, 80
10, 629499, Note_on_c, 3, 62, 0
10, 629520, Note_on_c, 3, 52, 80
10, 629520, Note_on_c, 3, 61, 80
10, 629979, Note_on_c, 3, 52, 0
10, 629979, Note_on_c, 3, 61, 0
10, 630000, Note_on_c, 3, 52, 80
10, 630000, Note_on_c, 3, 59, 80
10, 630219, Note_on_c, 3, 52, 0
10, 630219, Note_on_c, 3, 59, 0
10, 630240, Note_on_c, 3, 50, 80
10, 630240, Note_on_c, 3, 47, 80
10, 630699, Note_on_c, 3, 50, 0
10, 630699, Note_on_c, 3, 47, 0
10, 630720, Note_on_c, 3, 47, 80
10, 630720, Note_on_c, 3, 50, 80
10, 630959, Note_on_c, 3, 47, 0
10, 630959, Note_on_c, 3, 50, 0
10, 630960, Note_on_c, 3, 52, 80
10, 630960, Note_on_c, 3, 49, 80
10, 631439, Note_on_c, 3, 52, 0
10, 631439, Note_on_c, 3, 49, 0
10, 631440, Note_on_c, 3, 50, 80
10, 631440, Note_on_c, 3, 54, 80
10, 631659, Note_on_c, 3, 50, 0
10, 631659, Note_on_c, 3, 54, 0
10, 631680, Note_on_c, 3, 56, 80
10, 631680, Note_on_c, 3, 52, 80
10, 632159, Note_on_c, 3, 56, 0
10, 632159, Note_on_c, 3, 52, 0
10, 632160, Note_on_c, 3, 57, 80
10, 632160, Note_on_c, 3, 54, 80
10, 632399, Note_on_c, 3, 57, 0
10, 632399, Note_on_c, 3, 54, 0
10, 632400, Note_on_c, 3, 59, 80
10, 632400, Note_on_c, 3, 56, 80
10, 632879, Note_on_c, 3, 59, 0
10, 632879, Note_on_c, 3, 56, 0
10, 632880, Note_on_c, 3, 52, 80
10, 632880, Note_on_c, 3, 56, 80
10, 633099, Note_on_c, 3, 52, 0
10, 633099, Note_on_c, 3, 56, 0
10, 633120, Note_on_c, 3, 59, 80
10, 633120, Note_on_c, 3, 62, 80
10, 633599, Note_on_c, 3, 59, 0
10, 633599, Note_on_c, 3, 62, 0
10, 633600, Note_on_c, 3, 61, 80
10, 633600, Note_on_c, 3, 57, 80
10, 633839, Note_on_c, 3, 61, 0
10, 633839, Note_on_c, 3, 57, 0
10, 633840, Note_on_c, 3, 59, 80
10, 633840, Note_on_c, 3, 62, 80
10, 634319, Note_on_c, 3, 59, 0
10, 634319, Note_on_c, 3, 62, 0
10, 634320, Note_on_c, 3, 61, 80
10, 634320, Note_on_c, 3, 64, 80
10, 634539, Note_on_c, 3, 61, 0
10, 634539, Note_on_c, 3, 64, 0
10, 634560, Note_on_c, 3, 66, 80
10, 635259, Note_on_c, 3, 66, 0
10, 635280, Note_on_c, 3, 66, 80
10, 635979, Note_on_c, 3, 66, 0
10, 636000, Note_on_c, 3, 64, 80
10, 636720, Note_on_c, 3, 59, 92
10, 637179, Note_on_c, 3, 64, 0
10, 637200, Note_on_c, 3, 62, 92
10, 637419, Note_on_c, 3, 62, 0
10, 637440, Note_on_c, 3, 62, 92
10, 638139, Note_on_c, 3, 59, 0
10, 638139, Note_on_c, 3, 62, 0
10, 638160, Note_on_c, 3, 62, 80
10, 638160, Note_on_c, 3, 59, 80
10, 638859, Note_on_c, 3, 62, 0
10, 638859, Note_on_c, 3, 59, 0
10, 638880, Note_on_c, 3, 58, 80
10, 638880, Note_on_c, 3, 61, 80
10, 639579, Note_on_c, 3, 58, 0
10, 639579, Note_on_c, 3, 61, 0
10, 639600, Note_on_c, 3, 59, 80
10, 639600, Note_on_c, 3, 54, 80
10, 640059, Note_on_c, 3, 59, 0
10, 640080, Note_on_c, 3, 58, 80
10, 640299, Note_on_c, 3, 54, 0
10, 640299, Note_on_c, 3, 58, 0
10, 640320, Note_on_c, 3, 54, 80
10, 640320, Note_on_c, 3, 62, 80
10, 641019, Note_on_c, 3, 62, 0
10, 641040, Note_on_c, 3, 59, 80
10, 641739, Note_on_c, 3, 54, 0
10, 641739, Note_on_c, 3, 59, 0
10, 641760, Note_on_c, 3, 61, 80
10, 642939, Note_on_c, 3, 61, 0
10, 642960, Note_on_c, 3, 59, 80
10, 643179, Note_on_c, 3, 59, 0
10, 643200, Note_on_c, 3, 61, 80
10, 643899, Note_on_c, 3, 61, 0
10, 643920, Note_on_c, 3, 59, 80
10, 644379, Note_on_c, 3, 59, 0
10, 644400, Note_on_c, 3, 58, 80
10, 644619, Note_on_c, 3, 58, 0
10, 644640, Note_on_c, 3, 59, 80
10, 645339, Note_on_c, 3, 59, 0
10, 645360, Note_on_c, 3, 62, 80
10, 646080, Note_on_c, 3, 50, 80
10, 646539, Note_on_c, 3, 50, 0
10, 646560, Note_on_c, 3, 50, 80
10, 646779, Note_on_c, 3, 62, 0
10, 646779, Note_on_c, 3, 50, 0
10, 646800, Note_on_c, 3, 52, 80
10, 646800, Note_on_c, 3, 62, 80
10, 647259, Note_on_c, 3, 52, 0
10, 647280, Note_on_c, 3, 54, 80
10, 647499, Note_on_c, 3, 62, 0
10, 647499, Note_on_c, 3, 54, 0
10, 647520, Note_on_c, 3, 54, 80
10, 647520, Note_on_c, 3, 61, 80
10, 647979, Note_on_c, 3, 54, 0
10, 648000, Note_on_c, 3, 52, 80
10, 648219, Note_on_c, 3, 61, 0
10, 648219, Note_on_c, 3, 52, 0
10, 648240, Note_on_c, 3, 50, 80
10, 648240, Note_on_c, 3, 59, 80
10, 648699, Note_on_c, 3, 50, 0
10, 648699, Note_on_c, 3, 59, 0
10, 648720, Note_on_c, 3, 58, 80
10, 648720, Note_on_c, 3, 49, 80
10, 648939, Note_on_c, 3, 58, 0
10, 648939, Note_on_c, 3, 49, 0
10, 648960, Note_on_c, 3, 61, 80
10, 648960, Note_on_c, 3, 49, 80
10, 649419, Note_on_c, 3, 49, 0
10, 649440, Note_on_c, 3, 49, 80
10, 649659, Note_on_c, 3, 61, 0
10, 649659, Note_on_c, 3, 49, 0
10, 649680, Note_on_c, 3, 54, 80
10, 649680, Note_on_c, 3, 51, 80
10, 650139, Note_on_c, 3, 51, 0
10, 650160, Note_on_c, 3, 52, 80
10, 650379, Note_on_c, 3, 52, 0
10, 650400, Note_on_c, 3, 54, 80
10, 650859, Note_on_c, 3, 54, 0
10, 650880, Note_on_c, 3, 51, 80
10, 651099, Note_on_c, 3, 54, 0
10, 651099, Note_on_c, 3, 51, 0
10, 651120, Note_on_c, 3, 49, 80
10, 651120, Note_on_c, 3, 54, 80
10, 651579, Note_on_c, 3, 49, 0
10, 651600, Note_on_c, 3, 47, 80
10, 651819, Note_on_c, 3, 54, 0
10, 651819, Note_on_c, 3, 47, 0
10, 651840, Note_on_c, 3, 59, 80
10, 651840, Note_on_c, 3, 54, 80
10, 652299, Note_on_c, 3, 54, 0
10, 652320, Note_on_c, 3, 54, 80
10, 652539, Note_on_c, 3, 59, 0
10, 652539, Note_on_c, 3, 54, 0
10, 652560, Note_on_c, 3, 56, 80
10, 652560, Note_on_c, 3, 59, 80
10, 653019, Note_on_c, 3, 56, 0
10, 653040, Note_on_c, 3, 57, 80
10, 653259, Note_on_c, 3, 57, 0
10, 653280, Note_on_c, 3, 57, 80
10, 653739, Note_on_c, 3, 57, 0
10, 653760, Note_on_c, 3, 56, 80
10, 653979, Note_on_c, 3, 59, 0
10, 653979, Note_on_c, 3, 56, 0
10, 654000, Note_on_c, 3, 57, 80
10, 654000, Note_on_c, 3, 54, 80
10, 654459, Note_on_c, 3, 57, 0
10, 654459, Note_on_c, 3, 54, 0
10, 654480, Note_on_c, 3, 52, 80
10, 654480, Note_on_c, 3, 56, 80
10, 654699, Note_on_c, 3, 52, 0
10, 654699, Note_on_c, 3, 56, 0
10, 654720, Note_on_c, 3, 59, 80
10, 654720, Note_on_c, 3, 62, 80
10, 655179, Note_on_c, 3, 59, 0
10, 655200, Note_on_c, 3, 59, 80
10, 655419, Note_on_c, 3, 62, 0
10, 655419, Note_on_c, 3, 59, 0
10, 655440, Note_on_c, 3, 52, 80
10, 655440, Note_on_c, 3, 64, 80
10, 655899, Note_on_c, 3, 64, 0
10, 655920, Note_on_c, 3, 62, 80
10, 656139, Note_on_c, 3, 52, 0
10, 656139, Note_on_c, 3, 62, 0
10, 656160, Note_on_c, 3, 62, 80
10, 656160, Note_on_c, 3, 57, 80
10, 656619, Note_on_c, 3, 57, 0
10, 656640, Note_on_c, 3, 61, 80
10, 656859, Note_on_c, 3, 62, 0
10, 656859, Note_on_c, 3, 61, 0
10, 656880, Note_on_c, 3, 59, 80
10, 657339, Note_on_c, 3, 59, 0
10, 657360, Note_on_c, 3, 61, 80
10, 657579, Note_on_c, 3, 61, 0
10, 657600, Note_on_c, 3, 59, 80
10, 658059, Note_on_c, 3, 59, 0
10, 658080, Note_on_c, 3, 57, 80
10, 658319, Note_on_c, 3, 57, 0
10, 659760, Note_on_c, 3, 57, 80
10, 660459, Note_on_c, 3, 57, 0
10, 660480, Note_on_c, 3, 69, 80
10, 661179, Note_on_c, 3, 69, 0
10, 661200, Note_on_c, 3, 69, 80
10, 661200, Note_on_c, 3, 62, 92
10, 661899, Note_on_c, 3, 69, 0
10, 661920, Note_on_c, 3, 69, 80
10, 662619, Note_on_c, 3, 62, 0
10, 662640, Note_on_c, 3, 62, 80
10, 663339, Note_on_c, 3, 62, 0
10, 663360, Note_on_c, 3, 61, 80
10, 664059, Note_on_c, 3, 69, 0
10, 664059, Note_on_c, 3, 61, 0
10, 664080, Note_on_c, 3, 57, 80
10, 664080, Note_on_c, 3, 62, 80
10, 664779, Note_on_c, 3, 57, 0
10, 664800, Note_on_c, 3, 59, 80
10, 665499, Note_on_c, 3, 62, 0
10, 665499, Note_on_c, 3, 59, 0
10, 665520, Note_on_c, 3, 62, 80
10, 665520, Note_on_c, 3, 59, 80
10, 666219, Note_on_c, 3, 62, 0
10, 666219, Note_on_c, 3, 59, 0
10, 666240, Note_on_c, 3, 60, 80
10, 666240, Note_on_c, 3, 57, 80
10, 666939, Note_on_c, 3, 60, 0
10, 666939, Note_on_c, 3, 57, 0
10, 666960, Note_on_c, 3, 57, 80
10, 666960, Note_on_c, 3, 54, 80
10, 667659, Note_on_c, 3, 57, 0
10, 667659, Note_on_c, 3, 54, 0
10, 667680, Note_on_c, 3, 55, 80
10, 668379, Note_on_c, 3, 55, 0
10, 668400, Note_on_c, 3, 55, 80
10, 668400, Note_on_c, 3, 57, 80
10, 668859, Note_on_c, 3, 57, 0
10, 668880, Note_on_c, 3, 59, 80
10, 669099, Note_on_c, 3, 55, 0
10, 669099, Note_on_c, 3, 59, 0
10, 669120, Note_on_c, 3, 54, 80
10, 669120, Note_on_c, 3, 57, 80
10, 669579, Note_on_c, 3, 57, 0
10, 669600, Note_on_c, 3, 62, 80
10, 669819, Note_on_c, 3, 54, 0
10, 669819, Note_on_c, 3, 62, 0
10, 669840, Note_on_c, 3, 62, 80
10, 669840, Note_on_c, 3, 64, 80
10, 670299, Note_on_c, 3, 64, 0
10, 670320, Note_on_c, 3, 66, 80
10, 670539, Note_on_c, 3, 62, 0
10, 670539, Note_on_c, 3, 66, 0
10, 670560, Note_on_c, 3, 64, 80
10, 671279, Note_on_c, 3, 64, 0
10, 671280, Note_on_c, 3, 64, 80
10, 671760, Note_on_c, 3, 66, 80
10, 671979, Note_on_c, 3, 64, 0
10, 671979, Note_on_c, 3, 66, 0
10, 672000, Note_on_c, 3, 64, 92
10, 672000, Note_on_c, 3, 67, 92
10, 672459, Note_on_c, 3, 67, 0
10, 672480, Note_on_c, 3, 66, 92
10, 672699, Note_on_c, 3, 66, 0
10, 672720, Note_on_c, 3, 67, 92
10, 673419, Note_on_c, 3, 67, 0
10, 673440, Note_on_c, 3, 67, 92
10, 674139, Note_on_c, 3, 64, 0
10, 674139, Note_on_c, 3, 67, 0
10, 674160, Note_on_c, 3, 67, 80
10, 674160, Note_on_c, 3, 64, 80
10, 674859, Note_on_c, 3, 67, 0
10, 674859, Note_on_c, 3, 64, 0
10, 674880, Note_on_c, 3, 66, 80
10, 674880, Note_on_c, 3, 62, 80
10, 676319, Note_on_c, 3, 66, 0
10, 676319, Note_on_c, 3, 62, 0
10, 676560, Note_on_c, 3, 54, 32
10, 676779, Note_on_c, 3, 54, 0
10, 676800, Note_on_c, 3, 54, 32
10, 677019, Note_on_c, 3, 54, 0
10, 677040, Note_on_c, 3, 54, 32
10, 677259, Note_on_c, 3, 54, 0
10, 677280, Note_on_c, 3, 54, 32
10, 677499, Note_on_c, 3, 54, 0
10, 677520, Note_on_c, 3, 54, 32
10, 677759, Note_on_c, 3, 54, 0
10, 678000, Note_on_c, 3, 48, 32
10, 678219, Note_on_c, 3, 48, 0
10, 678240, Note_on_c, 3, 48, 32
10, 678459, Note_on_c, 3, 48, 0
10, 678480, Note_on_c, 3, 48, 32
10, 678699, Note_on_c, 3, 48, 0
10, 678720, Note_on_c, 3, 48, 32
10, 678939, Note_on_c, 3, 48, 0
10, 678960, Note_on_c, 3, 48, 32
10, 679199, Note_on_c, 3, 48, 0
10, 679440, Note_on_c, 3, 57, 32
10, 679659, Note_on_c, 3, 57, 0
10, 679680, Note_on_c, 3, 57, 32
10, 679899, Note_on_c, 3, 57, 0
10, 679920, Note_on_c, 3, 57, 32
10, 680139, Note_on_c, 3, 57, 0
10, 680160, Note_on_c, 3, 57, 32
10, 680379, Note_on_c, 3, 57, 0
10, 680400, Note_on_c, 3, 57, 32
10, 680639, Note_on_c, 3, 57, 0
10, 680880, Note_on_c, 3, 58, 32
10, 681099, Note_on_c, 3, 58, 0
10, 681120, Note_on_c, 3, 58, 32
10, 681339, Note_on_c, 3, 58, 0
10, 681360, Note_on_c, 3, 58, 32
10, 681579, Note_on_c, 3, 58, 0
10, 681600, Note_on_c, 3, 58, 32
10, 681819, Note_on_c, 3, 58, 0
10, 681840, Note_on_c, 3, 58, 32
10, 682079, Note_on_c, 3, 58, 0
10, 682320, Note_on_c, 3, 52, 32
10, 682539, Note_on_c, 3, 52, 0
10, 682560, Note_on_c, 3, 52, 32
10, 682779, Note_on_c, 3, 52, 0
10, 682800, Note_on_c, 3, 52, 32
10, 683019, Note_on_c, 3, 52, 0
10, 683040, Note_on_c, 3, 52, 32
10, 683259, Note_on_c, 3, 52, 0
10, 683280, Note_on_c, 3, 52, 32
10, 683519, Note_on_c, 3, 52, 0
10, 683760, Note_on_c, 3, 61, 32
10, 683979, Note_on_c, 3, 61, 0
10, 684000, Note_on_c, 3, 61, 32
10, 684219, Note_on_c, 3, 61, 0
10, 684240, Note_on_c, 3, 61, 32
10, 684459, Note_on_c, 3, 61, 0
10, 684480, Note_on_c, 3, 61, 32
10, 684699, Note_on_c, 3, 61, 0
10, 684720, Note_on_c, 3, 61, 32
10, 684959, Note_on_c, 3, 61, 0
10, 685200, Note_on_c, 3, 62, 32
10, 685419, Note_on_c, 3, 62, 0
10, 685440, Note_on_c, 3, 62, 32
10, 685659, Note_on_c, 3, 62, 0
10, 685680, Note_on_c, 3, 62, 32
10, 685899, Note_on_c, 3, 62, 0
10, 685920, Note_on_c, 3, 62, 32
10, 686139, Note_on_c, 3, 62, 0
10, 686160, Note_on_c, 3, 62, 32
10, 686399, Note_on_c, 3, 62, 0
10, 686640, Note_on_c, 3, 63, 32
10, 686859, Note_on_c, 3, 63, 0
10, 686880, Note_on_c, 3, 63, 32
10, 687099, Note_on_c, 3, 63, 0
10, 687120, Note_on_c, 3, 63, 32
10, 687339, Note_on_c, 3, 63, 0
10, 687360, Note_on_c, 3, 63, 32
10, 687579, Note_on_c, 3, 63, 0
10, 687600, Note_on_c, 3, 63, 32
10, 687839, Note_on_c, 3, 63, 0
10, 688080, Note_on_c, 3, 55, 44
10, 688299, Note_on_c, 3, 55, 0
10, 688320, Note_on_c, 3, 55, 45
10, 688539, Note_on_c, 3, 55, 0
10, 688560, Note_on_c, 3, 55, 46
10, 688779, Note_on_c, 3, 55, 0
10, 688800, Note_on_c, 3, 55, 47
10, 689019, Note_on_c, 3, 55, 0
10, 689040, Note_on_c, 3, 55, 48
10, 689279, Note_on_c, 3, 55, 0
10, 689520, Note_on_c, 3, 64, 50
10, 689739, Note_on_c, 3, 64, 0
10, 689760, Note_on_c, 3, 64, 50
10, 689979, Note_on_c, 3, 64, 0
10, 690000, Note_on_c, 3, 64, 51
10, 690219, Note_on_c, 3, 64, 0
10, 690240, Note_on_c, 3, 64, 52
10, 690459, Note_on_c, 3, 64, 0
10, 690480, Note_on_c, 3, 64, 53
10, 690719, Note_on_c, 3, 64, 0
10, 690960, Note_on_c, 3, 65, 55
10, 691179, Note_on_c, 3, 65, 0
10, 691200, Note_on_c, 3, 65, 56
10, 691419, Note_on_c, 3, 65, 0
10, 691440, Note_on_c, 3, 65, 56
10, 691659, Note_on_c, 3, 65, 0
10, 691680, Note_on_c, 3, 65, 57
10, 691899, Note_on_c, 3, 65, 0
10, 691920, Note_on_c, 3, 65, 58
10, 692159, Note_on_c, 3, 65, 0
10, 692400, Note_on_c, 3, 66, 60
10, 692400, Note_on_c, 3, 54, 60
10, 692619, Note_on_c, 3, 66, 0
10, 692619, Note_on_c, 3, 54, 0
10, 692640, Note_on_c, 3, 54, 61
10, 692640, Note_on_c, 3, 66, 61
10, 692859, Note_on_c, 3, 54, 0
10, 692859, Note_on_c, 3, 66, 0
10, 692880, Note_on_c, 3, 54, 62
10, 692880, Note_on_c, 3, 66, 62
10, 693099, Note_on_c, 3, 54, 0
10, 693099, Note_on_c, 3, 66, 0
10, 693120, Note_on_c, 3, 54, 62
10, 693120, Note_on_c, 3, 66, 62
10, 693339, Note_on_c, 3, 54, 0
10, 693339, Note_on_c, 3, 66, 0
10, 693360, Note_on_c, 3, 66, 63
10, 693360, Note_on_c, 3, 54, 63
10, 693599, Note_on_c, 3, 66, 0
10, 693599, Note_on_c, 3, 54, 0
10, 693840, Note_on_c, 3, 58, 65
10, 693840, Note_on_c, 3, 46, 65
10, 694059, Note_on_c, 3, 58, 0
10, 694059, Note_on_c, 3, 46, 0
10, 694080, Note_on_c, 3, 58, 66
10, 694080, Note_on_c, 3, 46, 66
10, 694299, Note_on_c, 3, 58, 0
10, 694299, Note_on_c, 3, 46, 0
10, 694320, Note_on_c, 3, 46, 67
10, 694320, Note_on_c, 3, 58, 67
10, 694539, Note_on_c, 3, 46, 0
10, 694539, Note_on_c, 3, 58, 0
10, 694560, Note_on_c, 3, 46, 68
10, 694560, Note_on_c, 3, 58, 68
10, 694779, Note_on_c, 3, 46, 0
10, 694779, Note_on_c, 3, 58, 0
10, 694800, Note_on_c, 3, 46, 68
10, 694800, Note_on_c, 3, 58, 68
10, 695039, Note_on_c, 3, 46, 0
10, 695039, Note_on_c, 3, 58, 0
10, 695280, Note_on_c, 3, 55, 70
10, 695280, Note_on_c, 3, 67, 70
10, 695499, Note_on_c, 3, 55, 0
10, 695499, Note_on_c, 3, 67, 0
10, 695520, Note_on_c, 3, 55, 71
10, 695520, Note_on_c, 3, 67, 71
10, 695739, Note_on_c, 3, 55, 0
10, 695739, Note_on_c, 3, 67, 0
10, 695760, Note_on_c, 3, 55, 72
10, 695760, Note_on_c, 3, 67, 72
10, 695979, Note_on_c, 3, 55, 0
10, 695979, Note_on_c, 3, 67, 0
10, 696000, Note_on_c, 3, 67, 73
10, 696000, Note_on_c, 3, 55, 73
10, 696219, Note_on_c, 3, 67, 0
10, 696219, Note_on_c, 3, 55, 0
10, 696240, Note_on_c, 3, 55, 74
10, 696240, Note_on_c, 3, 67, 74
10, 696479, Note_on_c, 3, 55, 0
10, 696479, Note_on_c, 3, 67, 0
10, 696720, Note_on_c, 3, 68, 75
10, 696720, Note_on_c, 3, 56, 75
10, 696939, Note_on_c, 3, 68, 0
10, 696939, Note_on_c, 3, 56, 0
10, 696960, Note_on_c, 3, 56, 76
10, 696960, Note_on_c, 3, 68, 76
10, 697179, Note_on_c, 3, 56, 0
10, 697179, Note_on_c, 3, 68, 0
10, 697200, Note_on_c, 3, 68, 77
10, 697200, Note_on_c, 3, 56, 77
10, 697419, Note_on_c, 3, 68, 0
10, 697419, Note_on_c, 3, 56, 0
10, 697440, Note_on_c, 3, 56, 78
10, 697440, Note_on_c, 3, 68, 78
10, 697659, Note_on_c, 3, 56, 0
10, 697659, Note_on_c, 3, 68, 0
10, 697680, Note_on_c, 3, 68, 79
10, 697680, Note_on_c, 3, 56, 79
10, 697899, Note_on_c, 3, 68, 0
10, 697899, Note_on_c, 3, 56, 0
10, 697920, Note_on_c, 3, 45, 80
10, 697920, Note_on_c, 3, 57, 80
10, 698619, Note_on_c, 3, 45, 0
10, 698619, Note_on_c, 3, 57, 0
10, 698640, Note_on_c, 3, 64, 92
10, 698640, Note_on_c, 3, 61, 92
10, 698720, Control_c, 3, 11, 107
10, 700059, Note_on_c, 3, 64, 0
10, 700059, Note_on_c, 3, 61, 0
10, 700080, Note_on_c, 3, 61, 92
10, 700080, Note_on_c, 3, 64, 92
10, 700799, Note_on_c, 3, 61, 0
10, 700799, Note_on_c, 3, 64, 0
10, 702000, Control_c, 3, 11, 127
10, 702240, Note_on_c, 3, 62, 80
10, 702240, Note_on_c, 3, 64, 80
10, 702939, Note_on_c, 3, 62, 0
10, 702939, Note_on_c, 3, 64, 0
10, 702960, Note_on_c, 3, 62, 80
10, 702960, Note_on_c, 3, 64, 80
10, 703679, Note_on_c, 3, 62, 0
10, 703679, Note_on_c, 3, 64, 0
10, 705840, Control_c, 3, 11, 69
10, 706560, Note_on_c, 3, 47, 80
10, 706560, Control_c, 3, 11, 69
10, 706633, Control_c, 3, 11, 71
10, 706707, Control_c, 3, 11, 72
10, 706780, Control_c, 3, 11, 74
10, 706853, Control_c, 3, 11, 75
10, 706927, Control_c, 3, 11, 77
10, 707000, Control_c, 3, 11, 79
10, 707039, Note_on_c, 3, 47, 0
10, 707040, Note_on_c, 3, 49, 80
10, 707073, Control_c, 3, 11, 80
10, 707147, Control_c, 3, 11, 82
10, 707220, Control_c, 3, 11, 84
10, 707279, Note_on_c, 3, 49, 0
10, 707280, Note_on_c, 3, 50, 80
10, 707293, Control_c, 3, 11, 85
10, 707367, Control_c, 3, 11, 87
10, 707440, Control_c, 3, 11, 88
10, 707513, Control_c, 3, 11, 90
10, 707587, Control_c, 3, 11, 92
10, 707660, Control_c, 3, 11, 93
10, 707733, Control_c, 3, 11, 95
10, 707759, Note_on_c, 3, 50, 0
10, 707760, Note_on_c, 3, 52, 80
10, 707807, Control_c, 3, 11, 96
10, 707880, Control_c, 3, 11, 98
10, 707953, Control_c, 3, 11, 100
10, 707999, Note_on_c, 3, 52, 0
10, 708000, Note_on_c, 3, 54, 80
10, 708027, Control_c, 3, 11, 101
10, 708100, Control_c, 3, 11, 103
10, 708173, Control_c, 3, 11, 104
10, 708247, Control_c, 3, 11, 106
10, 708320, Control_c, 3, 11, 108
10, 708393, Control_c, 3, 11, 109
10, 708467, Control_c, 3, 11, 111
10, 708479, Note_on_c, 3, 54, 0
10, 708480, Note_on_c, 3, 56, 80
10, 708540, Control_c, 3, 11, 113
10, 708613, Control_c, 3, 11, 114
10, 708687, Control_c, 3, 11, 116
10, 708719, Note_on_c, 3, 56, 0
10, 708720, Note_on_c, 3, 57, 80
10, 708760, Control_c, 3, 11, 117
10, 708833, Control_c, 3, 11, 119
10, 708907, Control_c, 3, 11, 121
10, 708980, Control_c, 3, 11, 122
10, 709053, Control_c, 3, 11, 124
10, 709127, Control_c, 3, 11, 125
10, 709199, Note_on_c, 3, 57, 0
10, 709200, Note_on_c, 3, 59, 80
10, 709200, Control_c, 3, 11, 127
10, 709240, Control_c, 3, 11, 122
10, 709280, Control_c, 3, 11, 117
10, 709320, Control_c, 3, 11, 112
10, 709360, Control_c, 3, 11, 107
10, 709400, Control_c, 3, 11, 102
10, 709439, Note_on_c, 3, 59, 0
10, 709440, Control_c, 3, 11, 99
10, 709440, Note_on_c, 3, 61, 80
10, 709480, Control_c, 3, 11, 94
10, 709520, Control_c, 3, 11, 89
10, 709560, Control_c, 3, 11, 84
10, 709600, Control_c, 3, 11, 79
10, 709640, Control_c, 3, 11, 74
10, 709679, Note_on_c, 3, 61, 0
10, 711600, Control_c, 3, 11, 89
10, 712320, Note_on_c, 3, 59, 68
10, 712320, Note_on_c, 3, 47, 68
10, 712799, Note_on_c, 3, 59, 0
10, 712799, Note_on_c, 3, 47, 0
10, 712800, Note_on_c, 3, 61, 68
10, 712800, Note_on_c, 3, 49, 68
10, 713039, Note_on_c, 3, 61, 0
10, 713039, Note_on_c, 3, 49, 0
10, 713040, Note_on_c, 3, 50, 68
10, 713040, Note_on_c, 3, 62, 68
10, 713519, Note_on_c, 3, 50, 0
10, 713519, Note_on_c, 3, 62, 0
10, 713520, Note_on_c, 3, 52, 68
10, 713520, Note_on_c, 3, 64, 68
10, 713759, Note_on_c, 3, 52, 0
10, 713759, Note_on_c, 3, 64, 0
10, 713760, Note_on_c, 3, 54, 68
10, 713760, Note_on_c, 3, 66, 68
10, 714239, Note_on_c, 3, 54, 0
10, 714239, Note_on_c, 3, 66, 0
10, 714240, Note_on_c, 3, 68, 68
10, 714240, Note_on_c, 3, 56, 68
10, 714479, Note_on_c, 3, 68, 0
10, 714479, Note_on_c, 3, 56, 0
10, 714480, Note_on_c, 3, 57, 68
10, 714480, Note_on_c, 3, 69, 68
10, 714959, Note_on_c, 3, 57, 0
10, 714959, Note_on_c, 3, 69, 0
10, 714960, Note_on_c, 3, 59, 68
10, 715199, Note_on_c, 3, 59, 0
10, 715200, Note_on_c, 3, 61, 68
10, 715679, Note_on_c, 3, 61, 0
10, 715680, Note_on_c, 3, 59, 68
10, 715919, Note_on_c, 3, 59, 0
10, 715920, Note_on_c, 3, 57, 68
10, 716399, Note_on_c, 3, 57, 0
10, 716400, Note_on_c, 3, 59, 68
10, 716619, Note_on_c, 3, 59, 0
10, 716640, Control_c, 3, 11, 89
10, 716640, Note_on_c, 3, 60, 68
10, 716700, Control_c, 3, 11, 92
10, 716760, Control_c, 3, 11, 95
10, 716820, Control_c, 3, 11, 99
10, 716879, Note_on_c, 3, 60, 0
10, 716880, Note_on_c, 3, 59, 68
10, 716880, Control_c, 3, 11, 101
10, 716940, Control_c, 3, 11, 105
10, 717000, Control_c, 3, 11, 109
10, 717060, Control_c, 3, 11, 111
10, 717119, Note_on_c, 3, 59, 0
10, 717120, Control_c, 3, 11, 115
10, 717120, Note_on_c, 3, 60, 68
10, 717180, Control_c, 3, 11, 117
10, 717240, Control_c, 3, 11, 121
10, 717300, Control_c, 3, 11, 124
10, 717359, Note_on_c, 3, 60, 0
10, 717360, Note_on_c, 3, 62, 68
10, 717360, Control_c, 3, 11, 127
10, 717420, Control_c, 3, 11, 124
10, 717480, Control_c, 3, 11, 121
10, 717540, Control_c, 3, 11, 117
10, 717599, Note_on_c, 3, 62, 0
10, 717600, Control_c, 3, 11, 115
10, 717600, Note_on_c, 3, 64, 68
10, 717660, Control_c, 3, 11, 111
10, 717720, Control_c, 3, 11, 109
10, 717780, Control_c, 3, 11, 105
10, 717839, Note_on_c, 3, 64, 0
10, 717840, Note_on_c, 3, 66, 68
10, 717840, Control_c, 3, 11, 101
10, 717900, Control_c, 3, 11, 99
10, 717960, Control_c, 3, 11, 95
10, 718020, Control_c, 3, 11, 92
10, 718059, Note_on_c, 3, 66, 0
10, 718078, Control_c, 3, 11, 89
10, 718080, Note_on_c, 3, 67, 68
10, 719519, Note_on_c, 3, 67, 0
10, 719520, Note_on_c, 3, 67, 62
10, 723119, Note_on_c, 3, 67, 0
10, 723120, Note_on_c, 3, 67, 56
10, 723839, Note_on_c, 3, 67, 0
10, 725760, Control_c, 3, 11, 127
10, 726240, Note_on_c, 3, 64, 32
10, 726339, Note_on_c, 3, 64, 0
10, 726360, Note_on_c, 3, 62, 32
10, 726459, Note_on_c, 3, 62, 0
10, 726480, Note_on_c, 3, 61, 32
10, 726579, Note_on_c, 3, 61, 0
10, 726600, Note_on_c, 3, 62, 32
10, 726699, Note_on_c, 3, 62, 0
10, 726720, Note_on_c, 3, 61, 32
10, 726819, Note_on_c, 3, 61, 0
10, 726840, Note_on_c, 3, 59, 32
10, 726939, Note_on_c, 3, 59, 0
10, 726960, Note_on_c, 3, 57, 32
10, 727059, Note_on_c, 3, 57, 0
10, 727080, Note_on_c, 3, 55, 32
10, 727179, Note_on_c, 3, 55, 0
10, 727200, Note_on_c, 3, 54, 32
10, 727299, Note_on_c, 3, 54, 0
10, 727320, Note_on_c, 3, 52, 32
10, 727419, Note_on_c, 3, 52, 0
10, 727440, Note_on_c, 3, 50, 32
10, 727539, Note_on_c, 3, 50, 0
10, 727560, Note_on_c, 3, 49, 32
10, 727659, Note_on_c, 3, 49, 0
10, 727680, Note_on_c, 3, 54, 32
10, 727680, Note_on_c, 3, 50, 32
10, 728639, Note_on_c, 3, 54, 0
10, 728639, Note_on_c, 3, 50, 0
10, 728640, Note_on_c, 3, 52, 32
10, 728640, Note_on_c, 3, 55, 32
10, 729579, Note_on_c, 3, 52, 0
10, 729579, Note_on_c, 3, 55, 0
10, 729600, Note_on_c, 3, 50, 32
10, 729600, Note_on_c, 3, 54, 32
10, 729839, Note_on_c, 3, 50, 0
10, 729839, Note_on_c, 3, 54, 0
10, 731520, Note_on_c, 3, 54, 32
10, 731520, Note_on_c, 3, 50, 32
10, 732119, Note_on_c, 3, 54, 0
10, 732119, Note_on_c, 3, 50, 0
10, 732120, Note_on_c, 3, 55, 32
10, 732120, Note_on_c, 3, 52, 32
10, 732239, Note_on_c, 3, 55, 0
10, 732239, Note_on_c, 3, 52, 0
10, 732240, Note_on_c, 3, 54, 32
10, 732240, Note_on_c, 3, 57, 32
10, 732359, Note_on_c, 3, 54, 0
10, 732359, Note_on_c, 3, 57, 0
10, 732360, Note_on_c, 3, 50, 32
10, 732360, Note_on_c, 3, 54, 32
10, 732459, Note_on_c, 3, 50, 0
10, 732459, Note_on_c, 3, 54, 0
10, 732480, Note_on_c, 3, 52, 32
10, 732480, Note_on_c, 3, 55, 32
10, 732699, Note_on_c, 3, 52, 0
10, 732699, Note_on_c, 3, 55, 0
10, 732720, Note_on_c, 3, 55, 32
10, 732720, Note_on_c, 3, 52, 32
10, 732939, Note_on_c, 3, 55, 0
10, 732939, Note_on_c, 3, 52, 0
10, 732960, Note_on_c, 3, 52, 32
10, 732960, Note_on_c, 3, 55, 32
10, 733179, Note_on_c, 3, 52, 0
10, 733179, Note_on_c, 3, 55, 0
10, 733200, Note_on_c, 3, 52, 32
10, 733200, Note_on_c, 3, 55, 32
10, 733419, Note_on_c, 3, 52, 0
10, 733419, Note_on_c, 3, 55, 0
10, 733440, Note_on_c, 3, 50, 32
10, 733440, Note_on_c, 3, 54, 32
10, 733539, Note_on_c, 3, 54, 0
10, 733560, Note_on_c, 3, 64, 32
10, 733659, Note_on_c, 3, 64, 0
10, 733679, Note_on_c, 3, 50, 0
10, 733680, Note_on_c, 3, 66, 32
10, 733779, Note_on_c, 3, 66, 0
10, 733800, Note_on_c, 3, 66, 32
10, 733899, Note_on_c, 3, 66, 0
10, 733920, Note_on_c, 3, 66, 32
10, 734019, Note_on_c, 3, 66, 0
10, 734040, Note_on_c, 3, 64, 32
10, 734139, Note_on_c, 3, 64, 0
10, 734160, Note_on_c, 3, 62, 32
10, 734259, Note_on_c, 3, 62, 0
10, 734280, Note_on_c, 3, 61, 32
10, 734379, Note_on_c, 3, 61, 0
10, 734400, Note_on_c, 3, 59, 32
10, 734499, Note_on_c, 3, 59, 0
10, 734520, Note_on_c, 3, 61, 32
10, 734619, Note_on_c, 3, 61, 0
10, 734640, Note_on_c, 3, 62, 32
10, 734739, Note_on_c, 3, 62, 0
10, 734760, Note_on_c, 3, 62, 32
10, 734859, Note_on_c, 3, 62, 0
10, 734880, Note_on_c, 3, 62, 32
10, 734979, Note_on_c, 3, 62, 0
10, 735000, Note_on_c, 3, 61, 32
10, 735099, Note_on_c, 3, 61, 0
10, 735120, Note_on_c, 3, 59, 32
10, 735219, Note_on_c, 3, 59, 0
10, 735240, Note_on_c, 3, 57, 32
10, 735339, Note_on_c, 3, 57, 0
10, 735360, Note_on_c, 3, 56, 32
10, 735459, Note_on_c, 3, 56, 0
10, 735480, Note_on_c, 3, 57, 32
10, 735579, Note_on_c, 3, 57, 0
10, 735600, Note_on_c, 3, 59, 32
10, 735699, Note_on_c, 3, 59, 0
10, 735720, Note_on_c, 3, 59, 32
10, 735819, Note_on_c, 3, 59, 0
10, 735840, Note_on_c, 3, 59, 32
10, 735939, Note_on_c, 3, 59, 0
10, 735960, Note_on_c, 3, 57, 32
10, 736059, Note_on_c, 3, 57, 0
10, 736080, Note_on_c, 3, 56, 32
10, 736179, Note_on_c, 3, 56, 0
10, 736200, Note_on_c, 3, 54, 32
10, 736299, Note_on_c, 3, 54, 0
10, 736320, Note_on_c, 3, 56, 32
10, 736419, Note_on_c, 3, 56, 0
10, 736440, Note_on_c, 3, 57, 32
10, 736539, Note_on_c, 3, 57, 0
10, 736560, Note_on_c, 3, 59, 32
10, 736659, Note_on_c, 3, 59, 0
10, 736680, Note_on_c, 3, 61, 32
10, 736779, Note_on_c, 3, 61, 0
10, 736800, Note_on_c, 3, 62, 32
10, 736899, Note_on_c, 3, 62, 0
10, 736920, Note_on_c, 3, 52, 32
10, 737019, Note_on_c, 3, 52, 0
10, 737040, Note_on_c, 3, 54, 32
10, 737139, Note_on_c, 3, 54, 0
10, 737160, Note_on_c, 3, 56, 32
10, 737259, Note_on_c, 3, 56, 0
10, 737280, Note_on_c, 3, 57, 32
10, 737280, Note_on_c, 3, 61, 32
10, 738239, Note_on_c, 3, 57, 0
10, 738239, Note_on_c, 3, 61, 0
10, 738240, Note_on_c, 3, 59, 32
10, 738240, Note_on_c, 3, 62, 32
10, 739179, Note_on_c, 3, 59, 0
10, 739179, Note_on_c, 3, 62, 0
10, 739200, Note_on_c, 3, 57, 32
10, 739200, Note_on_c, 3, 61, 32
10, 740159, Note_on_c, 3, 57, 0
10, 740159, Note_on_c, 3, 61, 0
10, 740160, Note_on_c, 3, 62, 32
10, 740160, Note_on_c, 3, 59, 32
10, 741099, Note_on_c, 3, 62, 0
10, 741099, Note_on_c, 3, 59, 0
10, 741120, Note_on_c, 3, 61, 32
10, 741120, Note_on_c, 3, 57, 32
10, 741719, Note_on_c, 3, 61, 0
10, 741719, Note_on_c, 3, 57, 0
10, 741720, Note_on_c, 3, 62, 32
10, 741720, Note_on_c, 3, 59, 32
10, 741839, Note_on_c, 3, 62, 0
10, 741839, Note_on_c, 3, 59, 0
10, 741840, Note_on_c, 3, 64, 32
10, 741840, Note_on_c, 3, 61, 32
10, 741959, Note_on_c, 3, 64, 0
10, 741959, Note_on_c, 3, 61, 0
10, 741960, Note_on_c, 3, 61, 32
10, 741960, Note_on_c, 3, 57, 32
10, 742059, Note_on_c, 3, 61, 0
10, 742059, Note_on_c, 3, 57, 0
10, 742080, Note_on_c, 3, 62, 32
10, 742080, Note_on_c, 3, 59, 32
10, 742299, Note_on_c, 3, 62, 0
10, 742299, Note_on_c, 3, 59, 0
10, 742320, Note_on_c, 3, 59, 32
10, 742320, Note_on_c, 3, 62, 32
10, 742539, Note_on_c, 3, 59, 0
10, 742539, Note_on_c, 3, 62, 0
10, 742560, Note_on_c, 3, 64, 32
10, 742560, Note_on_c, 3, 61, 32
10, 742779, Note_on_c, 3, 64, 0
10, 742779, Note_on_c, 3, 61, 0
10, 742800, Note_on_c, 3, 64, 32
10, 742800, Note_on_c, 3, 61, 32
10, 743019, Note_on_c, 3, 64, 0
10, 743019, Note_on_c, 3, 61, 0
10, 743040, Note_on_c, 3, 64, 32
10, 743040, Note_on_c, 3, 61, 32
10, 743279, Note_on_c, 3, 64, 0
10, 743279, Note_on_c, 3, 61, 0
10, 744240, Note_on_c, 3, 64, 32
10, 744419, Note_on_c, 3, 64, 0
10, 744480, Note_on_c, 3, 62, 32
10, 744659, Note_on_c, 3, 62, 0
10, 745200, Note_on_c, 3, 57, 32
10, 745439, Note_on_c, 3, 57, 0
10, 745440, Note_on_c, 3, 62, 32
10, 745679, Note_on_c, 3, 62, 0
10, 745920, Control_c, 3, 11, 49
10, 746160, Note_on_c, 3, 64, 80
10, 746399, Note_on_c, 3, 64, 0
10, 746400, Note_on_c, 3, 62, 80
10, 746639, Note_on_c, 3, 62, 0
10, 746880, Control_c, 3, 11, 49
10, 747052, Control_c, 3, 11, 50
10, 747120, Note_on_c, 3, 52, 80
10, 747225, Control_c, 3, 11, 51
10, 747359, Note_on_c, 3, 52, 0
10, 747360, Note_on_c, 3, 50, 80
10, 747397, Control_c, 3, 11, 52
10, 747569, Control_c, 3, 11, 53
10, 747599, Note_on_c, 3, 50, 0
10, 747742, Control_c, 3, 11, 54
10, 747914, Control_c, 3, 11, 55
10, 748080, Note_on_c, 3, 55, 80
10, 748086, Control_c, 3, 11, 56
10, 748258, Control_c, 3, 11, 57
10, 748319, Note_on_c, 3, 55, 0
10, 748320, Note_on_c, 3, 54, 80
10, 748431, Control_c, 3, 11, 58
10, 748559, Note_on_c, 3, 54, 0
10, 748603, Control_c, 3, 11, 59
10, 748775, Control_c, 3, 11, 60
10, 748948, Control_c, 3, 11, 61
10, 749040, Note_on_c, 3, 52, 80
10, 749120, Control_c, 3, 11, 62
10, 749279, Note_on_c, 3, 52, 0
10, 749280, Note_on_c, 3, 50, 80
10, 749292, Control_c, 3, 11, 63
10, 749465, Control_c, 3, 11, 64
10, 749519, Note_on_c, 3, 50, 0
10, 749637, Control_c, 3, 11, 65
10, 749809, Control_c, 3, 11, 66
10, 749982, Control_c, 3, 11, 67
10, 750000, Note_on_c, 3, 55, 80
10, 750154, Control_c, 3, 11, 68
10, 750239, Note_on_c, 3, 55, 0
10, 750240, Note_on_c, 3, 54, 80
10, 750326, Control_c, 3, 11, 69
10, 750479, Note_on_c, 3, 54, 0
10, 750498, Control_c, 3, 11, 70
10, 750671, Control_c, 3, 11, 71
10, 750843, Control_c, 3, 11, 72
10, 750960, Note_on_c, 3, 49, 80
10, 751015, Control_c, 3, 11, 73
10, 751188, Control_c, 3, 11, 74
10, 751199, Note_on_c, 3, 49, 0
10, 751200, Note_on_c, 3, 50, 80
10, 751360, Control_c, 3, 11, 75
10, 751439, Note_on_c, 3, 50, 0
10, 751532, Control_c, 3, 11, 76
10, 751705, Control_c, 3, 11, 77
10, 751877, Control_c, 3, 11, 78
10, 751920, Note_on_c, 3, 49, 80
10, 752049, Control_c, 3, 11, 79
10, 752159, Note_on_c, 3, 49, 0
10, 752160, Note_on_c, 3, 50, 80
10, 752222, Control_c, 3, 11, 80
10, 752394, Control_c, 3, 11, 81
10, 752399, Note_on_c, 3, 50, 0
10, 752566, Control_c, 3, 11, 82
10, 752738, Control_c, 3, 11, 83
10, 752880, Note_on_c, 3, 49, 80
10, 752911, Control_c, 3, 11, 84
10, 753083, Control_c, 3, 11, 85
10, 753119, Note_on_c, 3, 49, 0
10, 753120, Note_on_c, 3, 50, 80
10, 753255, Control_c, 3, 11, 86
10, 753359, Note_on_c, 3, 50, 0
10, 753428, Control_c, 3, 11, 87
10, 753600, Note_on_c, 3, 67, 80
10, 753600, Control_c, 3, 11, 88
10, 753772, Control_c, 3, 11, 89
10, 753779, Note_on_c, 3, 67, 0
10, 753840, Note_on_c, 3, 49, 80
10, 753840, Note_on_c, 3, 57, 80
10, 753945, Control_c, 3, 11, 90
10, 753959, Note_on_c, 3, 57, 0
10, 753960, Note_on_c, 3, 67, 80
10, 754059, Note_on_c, 3, 67, 0
10, 754079, Note_on_c, 3, 49, 0
10, 754080, Note_on_c, 3, 66, 80
10, 754080, Note_on_c, 3, 50, 80
10, 754117, Control_c, 3, 11, 91
10, 754289, Control_c, 3, 11, 92
10, 754319, Note_on_c, 3, 66, 0
10, 754319, Note_on_c, 3, 50, 0
10, 754462, Control_c, 3, 11, 93
10, 754634, Control_c, 3, 11, 94
10, 754800, Note_on_c, 3, 57, 80
10, 754806, Control_c, 3, 11, 95
10, 754978, Control_c, 3, 11, 96
10, 755039, Note_on_c, 3, 57, 0
10, 755151, Control_c, 3, 11, 97
10, 755280, Note_on_c, 3, 45, 80
10, 755280, Note_on_c, 3, 57, 80
10, 755323, Control_c, 3, 11, 98
10, 755495, Control_c, 3, 11, 99
10, 755519, Note_on_c, 3, 45, 0
10, 755519, Note_on_c, 3, 57, 0
10, 755668, Control_c, 3, 11, 100
10, 755760, Note_on_c, 3, 57, 80
10, 755840, Control_c, 3, 11, 101
10, 755999, Note_on_c, 3, 57, 0
10, 756012, Control_c, 3, 11, 102
10, 756185, Control_c, 3, 11, 103
10, 756240, Note_on_c, 3, 57, 80
10, 756240, Note_on_c, 3, 45, 80
10, 756357, Control_c, 3, 11, 104
10, 756479, Note_on_c, 3, 57, 0
10, 756479, Note_on_c, 3, 45, 0
10, 756529, Control_c, 3, 11, 105
10, 756702, Control_c, 3, 11, 106
10, 756720, Note_on_c, 3, 61, 80
10, 756720, Note_on_c, 3, 57, 80
10, 756874, Control_c, 3, 11, 107
10, 756959, Note_on_c, 3, 61, 0
10, 756959, Note_on_c, 3, 57, 0
10, 757046, Control_c, 3, 11, 108
10, 757200, Note_on_c, 3, 62, 80
10, 757200, Note_on_c, 3, 57, 80
10, 757218, Control_c, 3, 11, 109
10, 757391, Control_c, 3, 11, 110
10, 757439, Note_on_c, 3, 62, 0
10, 757439, Note_on_c, 3, 57, 0
10, 757563, Control_c, 3, 11, 111
10, 757680, Note_on_c, 3, 57, 80
10, 757735, Control_c, 3, 11, 112
10, 757908, Control_c, 3, 11, 113
10, 757919, Note_on_c, 3, 57, 0
10, 758080, Control_c, 3, 11, 114
10, 758160, Note_on_c, 3, 45, 80
10, 758252, Control_c, 3, 11, 115
10, 758399, Note_on_c, 3, 45, 0
10, 758425, Control_c, 3, 11, 116
10, 758597, Control_c, 3, 11, 117
10, 758640, Note_on_c, 3, 57, 80
10, 758769, Control_c, 3, 11, 118
10, 758879, Note_on_c, 3, 57, 0
10, 758942, Control_c, 3, 11, 119
10, 759114, Control_c, 3, 11, 120
10, 759120, Note_on_c, 3, 45, 80
10, 759286, Control_c, 3, 11, 121
10, 759359, Note_on_c, 3, 45, 0
10, 759458, Control_c, 3, 11, 122
10, 759600, Note_on_c, 3, 57, 80
10, 759631, Control_c, 3, 11, 123
10, 759803, Control_c, 3, 11, 124
10, 759839, Note_on_c, 3, 57, 0
10, 759975, Control_c, 3, 11, 125
10, 760080, Note_on_c, 3, 45, 80
10, 760148, Control_c, 3, 11, 127
10, 760319, Note_on_c, 3, 45, 0
10, 760560, Note_on_c, 3, 67, 80
10, 760560, Note_on_c, 3, 64, 80
10, 760649, Note_on_c, 3, 67, 0
10, 760649, Note_on_c, 3, 64, 0
10, 760680, Note_on_c, 3, 45, 80
10, 760769, Note_on_c, 3, 45, 0
10, 760800, Note_on_c, 3, 47, 92
10, 760979, Note_on_c, 3, 47, 0
10, 761040, Note_on_c, 3, 45, 80
10, 761219, Note_on_c, 3, 45, 0
10, 761280, Note_on_c, 3, 50, 80
10, 761459, Note_on_c, 3, 50, 0
10, 761520, Note_on_c, 3, 49, 80
10, 761699, Note_on_c, 3, 49, 0
10, 761760, Note_on_c, 3, 54, 80
10, 761939, Note_on_c, 3, 54, 0
10, 762000, Note_on_c, 3, 52, 80
10, 762179, Note_on_c, 3, 52, 0
10, 762240, Note_on_c, 3, 57, 80
10, 762419, Note_on_c, 3, 57, 0
10, 762480, Note_on_c, 3, 55, 80
10, 762659, Note_on_c, 3, 55, 0
10, 762720, Note_on_c, 3, 55, 80
10, 762899, Note_on_c, 3, 55, 0
10, 762960, Note_on_c, 3, 55, 92
10, 762960, Note_on_c, 3, 43, 92
10, 763139, Note_on_c, 3, 55, 0
10, 763139, Note_on_c, 3, 43, 0
10, 763200, Note_on_c, 3, 62, 80
10, 763200, Note_on_c, 3, 50, 80
10, 763379, Note_on_c, 3, 62, 0
10, 763379, Note_on_c, 3, 50, 0
10, 763440, Note_on_c, 3, 49, 80
10, 763440, Note_on_c, 3, 61, 80
10, 763619, Note_on_c, 3, 49, 0
10, 763619, Note_on_c, 3, 61, 0
10, 763680, Note_on_c, 3, 54, 80
10, 763680, Note_on_c, 3, 66, 80
10, 763859, Note_on_c, 3, 54, 0
10, 763859, Note_on_c, 3, 66, 0
10, 763920, Note_on_c, 3, 64, 80
10, 763920, Note_on_c, 3, 52, 80
10, 764099, Note_on_c, 3, 64, 0
10, 764099, Note_on_c, 3, 52, 0
10, 764160, Note_on_c, 3, 57, 80
10, 764339, Note_on_c, 3, 57, 0
10, 764400, Note_on_c, 3, 55, 80
10, 764400, Note_on_c, 3, 67, 80
10, 764579, Note_on_c, 3, 55, 0
10, 764579, Note_on_c, 3, 67, 0
10, 764640, Control_c, 3, 11, 69
10, 764640, Note_on_c, 3, 61, 80
10, 764640, Note_on_c, 3, 64, 80
10, 764680, Control_c, 3, 11, 74
10, 764720, Control_c, 3, 11, 79
10, 764760, Control_c, 3, 11, 84
10, 764800, Control_c, 3, 11, 89
10, 764840, Control_c, 3, 11, 94
10, 764880, Control_c, 3, 11, 99
10, 764920, Control_c, 3, 11, 102
10, 764960, Control_c, 3, 11, 107
10, 765000, Control_c, 3, 11, 112
10, 765040, Control_c, 3, 11, 117
10, 765080, Control_c, 3, 11, 122
10, 765120, Control_c, 3, 11, 127
10, 765339, Note_on_c, 3, 61, 0
10, 765339, Note_on_c, 3, 64, 0
10, 765360, Note_on_c, 3, 50, 92
10, 765360, Note_on_c, 3, 62, 92
10, 765939, Note_on_c, 3, 50, 0
10, 765939, Note_on_c, 3, 62, 0
10, 765960, Note_on_c, 3, 50, 92
10, 765960, Note_on_c, 3, 62, 92
10, 766059, Note_on_c, 3, 50, 0
10, 766059, Note_on_c, 3, 62, 0
10, 766080, Note_on_c, 3, 50, 80
10, 766080, Note_on_c, 3, 62, 80
10, 766299, Note_on_c, 3, 50, 0
10, 766299, Note_on_c, 3, 62, 0
10, 766320, Note_on_c, 3, 47, 80
10, 766320, Note_on_c, 3, 59, 80
10, 766539, Note_on_c, 3, 47, 0
10, 766539, Note_on_c, 3, 59, 0
10, 766560, Note_on_c, 3, 59, 80
10, 766560, Note_on_c, 3, 47, 80
10, 766899, Note_on_c, 3, 59, 0
10, 766899, Note_on_c, 3, 47, 0
10, 766920, Note_on_c, 3, 47, 80
10, 766920, Note_on_c, 3, 59, 80
10, 767019, Note_on_c, 3, 47, 0
10, 767019, Note_on_c, 3, 59, 0
10, 767040, Note_on_c, 3, 47, 80
10, 767040, Note_on_c, 3, 59, 80
10, 767259, Note_on_c, 3, 47, 0
10, 767259, Note_on_c, 3, 59, 0
10, 767280, Note_on_c, 3, 43, 80
10, 767280, Note_on_c, 3, 55, 80
10, 767499, Note_on_c, 3, 43, 0
10, 767499, Note_on_c, 3, 55, 0
10, 767520, Note_on_c, 3, 67, 80
10, 767520, Note_on_c, 3, 55, 80
10, 767859, Note_on_c, 3, 67, 0
10, 767859, Note_on_c, 3, 55, 0
10, 767880, Note_on_c, 3, 67, 80
10, 767880, Note_on_c, 3, 55, 80
10, 767979, Note_on_c, 3, 67, 0
10, 767979, Note_on_c, 3, 55, 0
10, 768000, Note_on_c, 3, 55, 80
10, 768000, Note_on_c, 3, 67, 80
10, 768219, Note_on_c, 3, 55, 0
10, 768219, Note_on_c, 3, 67, 0
10, 768240, Note_on_c, 3, 64, 80
10, 768240, Note_on_c, 3, 52, 80
10, 768459, Note_on_c, 3, 64, 0
10, 768459, Note_on_c, 3, 52, 0
10, 768480, Note_on_c, 3, 64, 80
10, 768480, Note_on_c, 3, 52, 80
10, 768819, Note_on_c, 3, 64, 0
10, 768819, Note_on_c, 3, 52, 0
10, 768840, Note_on_c, 3, 64, 80
10, 768840, Note_on_c, 3, 52, 80
10, 768939, Note_on_c, 3, 64, 0
10, 768939, Note_on_c, 3, 52, 0
10, 768960, Note_on_c, 3, 57, 80
10, 768960, Control_c, 3, 11, 127
10, 768960, Note_on_c, 3, 45, 80
10, 769000, Control_c, 3, 11, 117
10, 769040, Control_c, 3, 11, 107
10, 769080, Control_c, 3, 11, 99
10, 769120, Control_c, 3, 11, 89
10, 769160, Control_c, 3, 11, 79
10, 769169, Note_on_c, 3, 57, 0
10, 769169, Note_on_c, 3, 45, 0
10, 769200, Note_on_c, 3, 57, 80
10, 769200, Note_on_c, 3, 45, 80
10, 769200, Control_c, 3, 11, 69
10, 769260, Control_c, 3, 11, 72
10, 769320, Control_c, 3, 11, 75
10, 769380, Control_c, 3, 11, 79
10, 769409, Note_on_c, 3, 57, 0
10, 769409, Note_on_c, 3, 45, 0
10, 769440, Control_c, 3, 11, 82
10, 769440, Note_on_c, 3, 57, 80
10, 769440, Note_on_c, 3, 45, 80
10, 769500, Control_c, 3, 11, 85
10, 769560, Control_c, 3, 11, 89
10, 769620, Control_c, 3, 11, 92
10, 769649, Note_on_c, 3, 57, 0
10, 769649, Note_on_c, 3, 45, 0
10, 769680, Note_on_c, 3, 57, 80
10, 769680, Note_on_c, 3, 45, 80
10, 769680, Control_c, 3, 11, 95
10, 769740, Control_c, 3, 11, 99
10, 769800, Control_c, 3, 11, 102
10, 769859, Note_on_c, 3, 57, 0
10, 769859, Note_on_c, 3, 45, 0
10, 769860, Control_c, 3, 11, 105
10, 769918, Control_c, 3, 11, 127
10, 769920, Note_on_c, 3, 59, 60
10, 769920, Note_on_c, 3, 47, 60
10, 770144, Note_on_c, 3, 59, 0
10, 770144, Note_on_c, 3, 47, 0
10, 770160, Note_on_c, 3, 59, 44
10, 770160, Note_on_c, 3, 47, 44
10, 770384, Note_on_c, 3, 59, 0
10, 770384, Note_on_c, 3, 47, 0
10, 770400, Note_on_c, 3, 47, 44
10, 770400, Note_on_c, 3, 59, 44
10, 770624, Note_on_c, 3, 47, 0
10, 770624, Note_on_c, 3, 59, 0
10, 770640, Note_on_c, 3, 59, 44
10, 770640, Note_on_c, 3, 47, 44
10, 770864, Note_on_c, 3, 59, 0
10, 770864, Note_on_c, 3, 47, 0
10, 770880, Note_on_c, 3, 43, 44
10, 770880, Note_on_c, 3, 55, 44
10, 771104, Note_on_c, 3, 43, 0
10, 771104, Note_on_c, 3, 55, 0
10, 771120, Note_on_c, 3, 43, 44
10, 771120, Note_on_c, 3, 55, 44
10, 771359, Note_on_c, 3, 43, 0
10, 771359, Note_on_c, 3, 55, 0
10, 771600, Note_on_c, 3, 43, 44
10, 771600, Note_on_c, 3, 55, 44
10, 771839, Note_on_c, 3, 43, 0
10, 771839, Note_on_c, 3, 55, 0
10, 772080, Note_on_c, 3, 45, 44
10, 772080, Note_on_c, 3, 57, 44
10, 772319, Note_on_c, 3, 45, 0
10, 772319, Note_on_c, 3, 57, 0
10, 772560, Note_on_c, 3, 45, 44
10, 772560, Note_on_c, 3, 57, 44
10, 772784, Note_on_c, 3, 45, 0
10, 772784, Note_on_c, 3, 57, 0
10, 772800, Note_on_c, 3, 55, 44
10, 772979, Note_on_c, 3, 55, 0
10, 773040, Note_on_c, 3, 64, 44
10, 773219, Note_on_c, 3, 64, 0
10, 773280, Note_on_c, 3, 54, 44
10, 773459, Note_on_c, 3, 54, 0
10, 773520, Note_on_c, 3, 62, 44
10, 773699, Note_on_c, 3, 62, 0
10, 773760, Note_on_c, 3, 52, 44
10, 773939, Note_on_c, 3, 52, 0
10, 774000, Note_on_c, 3, 61, 44
10, 774179, Note_on_c, 3, 61, 0
10, 774240, Note_on_c, 3, 50, 44
10, 774419, Note_on_c, 3, 50, 0
10, 774480, Note_on_c, 3, 62, 44
10, 774659, Note_on_c, 3, 62, 0
10, 774720, Note_on_c, 3, 57, 44
10, 774720, Note_on_c, 3, 45, 44
10, 774959, Note_on_c, 3, 57, 0
10, 774959, Note_on_c, 3, 45, 0
10, 774960, Note_on_c, 3, 61, 44
10, 774960, Note_on_c, 3, 49, 44
10, 775179, Note_on_c, 3, 61, 0
10, 775179, Note_on_c, 3, 49, 0
10, 775200, Note_on_c, 3, 62, 44
10, 775200, Note_on_c, 3, 50, 44
10, 775439, Note_on_c, 3, 62, 0
10, 775439, Note_on_c, 3, 50, 0
10, 775440, Note_on_c, 3, 66, 44
10, 775440, Note_on_c, 3, 54, 44
10, 775659, Note_on_c, 3, 66, 0
10, 775659, Note_on_c, 3, 54, 0
10, 775680, Note_on_c, 3, 57, 44
10, 775680, Note_on_c, 3, 69, 44
10, 775919, Note_on_c, 3, 57, 0
10, 775919, Note_on_c, 3, 69, 0
10, 775920, Note_on_c, 3, 61, 44
10, 775920, Note_on_c, 3, 49, 44
10, 776139, Note_on_c, 3, 61, 0
10, 776139, Note_on_c, 3, 49, 0
10, 776160, Note_on_c, 3, 62, 44
10, 776160, Note_on_c, 3, 50, 44
10, 776399, Note_on_c, 3, 62, 0
10, 776399, Note_on_c, 3, 50, 0
10, 776400, Note_on_c, 3, 54, 44
10, 776400, Note_on_c, 3, 66, 44
10, 776619, Note_on_c, 3, 54, 0
10, 776619, Note_on_c, 3, 66, 0
10, 776640, Note_on_c, 3, 55, 44
10, 776819, Note_on_c, 3, 55, 0
10, 776880, Note_on_c, 3, 64, 46
10, 777059, Note_on_c, 3, 64, 0
10, 777120, Note_on_c, 3, 54, 48
10, 777299, Note_on_c, 3, 54, 0
10, 777360, Note_on_c, 3, 62, 50
10, 777539, Note_on_c, 3, 62, 0
10, 777600, Note_on_c, 3, 52, 53
10, 777779, Note_on_c, 3, 52, 0
10, 777840, Note_on_c, 3, 67, 55
10, 778019, Note_on_c, 3, 67, 0
10, 778080, Note_on_c, 3, 50, 57
10, 778259, Note_on_c, 3, 50, 0
10, 778320, Note_on_c, 3, 66, 59
10, 778499, Note_on_c, 3, 66, 0
10, 778560, Note_on_c, 3, 57, 62
10, 778799, Note_on_c, 3, 57, 0
10, 778800, Note_on_c, 3, 55, 64
10, 779019, Note_on_c, 3, 55, 0
10, 779040, Note_on_c, 3, 54, 66
10, 779040, Note_on_c, 3, 50, 66
10, 779279, Note_on_c, 3, 54, 0
10, 779279, Note_on_c, 3, 50, 0
10, 779280, Note_on_c, 3, 57, 68
10, 779280, Note_on_c, 3, 54, 68
10, 779499, Note_on_c, 3, 57, 0
10, 779499, Note_on_c, 3, 54, 0
10, 779520, Note_on_c, 3, 54, 71
10, 779520, Note_on_c, 3, 57, 71
10, 779759, Note_on_c, 3, 54, 0
10, 779759, Note_on_c, 3, 57, 0
10, 779760, Note_on_c, 3, 55, 73
10, 779760, Note_on_c, 3, 52, 73
10, 779979, Note_on_c, 3, 55, 0
10, 779979, Note_on_c, 3, 52, 0
10, 780000, Note_on_c, 3, 55, 75
10, 780000, Note_on_c, 3, 52, 75
10, 780239, Note_on_c, 3, 55, 0
10, 780239, Note_on_c, 3, 52, 0
10, 780240, Note_on_c, 3, 50, 77
10, 780240, Note_on_c, 3, 54, 77
10, 780459, Note_on_c, 3, 50, 0
10, 780459, Note_on_c, 3, 54, 0
10, 780480, Note_on_c, 3, 49, 80
10, 780480, Note_on_c, 3, 52, 80
10, 780699, Note_on_c, 3, 49, 0
10, 780699, Note_on_c, 3, 52, 0
10, 780720, Note_on_c, 3, 45, 80
10, 780899, Note_on_c, 3, 45, 0
10, 780960, Note_on_c, 3, 47, 80
10, 781139, Note_on_c, 3, 47, 0
10, 781200, Note_on_c, 3, 45, 80
10, 781379, Note_on_c, 3, 45, 0
10, 781440, Note_on_c, 3, 50, 80
10, 781659, Note_on_c, 3, 50, 0
10, 781680, Note_on_c, 3, 49, 80
10, 781899, Note_on_c, 3, 49, 0
10, 781920, Note_on_c, 3, 54, 80
10, 782139, Note_on_c, 3, 54, 0
10, 782160, Note_on_c, 3, 52, 80
10, 782379, Note_on_c, 3, 52, 0
10, 782400, Note_on_c, 3, 45, 80
10, 782400, Note_on_c, 3, 57, 80
10, 782619, Note_on_c, 3, 45, 0
10, 782619, Note_on_c, 3, 57, 0
10, 782640, Note_on_c, 3, 55, 80
10, 782640, Note_on_c, 3, 43, 80
10, 782859, Note_on_c, 3, 55, 0
10, 782859, Note_on_c, 3, 43, 0
10, 782880, Note_on_c, 3, 43, 80
10, 782880, Note_on_c, 3, 55, 80
10, 783099, Note_on_c, 3, 43, 0
10, 783099, Note_on_c, 3, 55, 0
10, 783120, Note_on_c, 3, 55, 92
10, 783120, Note_on_c, 3, 43, 92
10, 783339, Note_on_c, 3, 55, 0
10, 783339, Note_on_c, 3, 43, 0
10, 783360, Note_on_c, 3, 62, 80
10, 783360, Note_on_c, 3, 50, 80
10, 783579, Note_on_c, 3, 62, 0
10, 783579, Note_on_c, 3, 50, 0
10, 783600, Note_on_c, 3, 49, 80
10, 783600, Note_on_c, 3, 61, 80
10, 783819, Note_on_c, 3, 49, 0
10, 783819, Note_on_c, 3, 61, 0
10, 783840, Note_on_c, 3, 54, 80
10, 783840, Note_on_c, 3, 66, 80
10, 784059, Note_on_c, 3, 54, 0
10, 784059, Note_on_c, 3, 66, 0
10, 784080, Note_on_c, 3, 64, 80
10, 784080, Note_on_c, 3, 52, 80
10, 784299, Note_on_c, 3, 64, 0
10, 784299, Note_on_c, 3, 52, 0
10, 784320, Note_on_c, 3, 57, 80
10, 784539, Note_on_c, 3, 57, 0
10, 784560, Note_on_c, 3, 67, 80
10, 784560, Note_on_c, 3, 55, 80
10, 784779, Note_on_c, 3, 67, 0
10, 784779, Note_on_c, 3, 55, 0
10, 784798, Control_c, 3, 11, 69
10, 784800, Note_on_c, 3, 64, 80
10, 784800, Note_on_c, 3, 61, 80
10, 784800, Control_c, 3, 11, 69
10, 784840, Control_c, 3, 11, 74
10, 784880, Control_c, 3, 11, 79
10, 784920, Control_c, 3, 11, 84
10, 784960, Control_c, 3, 11, 89
10, 785000, Control_c, 3, 11, 94
10, 785040, Control_c, 3, 11, 99
10, 785080, Control_c, 3, 11, 102
10, 785120, Control_c, 3, 11, 107
10, 785160, Control_c, 3, 11, 112
10, 785200, Control_c, 3, 11, 117
10, 785240, Control_c, 3, 11, 122
10, 785280, Control_c, 3, 11, 127
10, 785499, Note_on_c, 3, 64, 0
10, 785499, Note_on_c, 3, 61, 0
10, 785520, Note_on_c, 3, 50, 92
10, 785520, Note_on_c, 3, 62, 92
10, 786099, Note_on_c, 3, 50, 0
10, 786099, Note_on_c, 3, 62, 0
10, 786120, Note_on_c, 3, 50, 92
10, 786120, Note_on_c, 3, 62, 92
10, 786219, Note_on_c, 3, 50, 0
10, 786219, Note_on_c, 3, 62, 0
10, 786240, Note_on_c, 3, 50, 80
10, 786240, Note_on_c, 3, 62, 80
10, 786459, Note_on_c, 3, 50, 0
10, 786459, Note_on_c, 3, 62, 0
10, 786480, Note_on_c, 3, 59, 80
10, 786480, Note_on_c, 3, 47, 80
10, 786699, Note_on_c, 3, 59, 0
10, 786699, Note_on_c, 3, 47, 0
10, 786720, Note_on_c, 3, 59, 80
10, 786720, Note_on_c, 3, 47, 80
10, 787059, Note_on_c, 3, 59, 0
10, 787059, Note_on_c, 3, 47, 0
10, 787080, Note_on_c, 3, 47, 80
10, 787080, Note_on_c, 3, 59, 80
10, 787179, Note_on_c, 3, 47, 0
10, 787179, Note_on_c, 3, 59, 0
10, 787200, Note_on_c, 3, 59, 80
10, 787200, Note_on_c, 3, 47, 80
10, 787419, Note_on_c, 3, 59, 0
10, 787419, Note_on_c, 3, 47, 0
10, 787440, Note_on_c, 3, 43, 80
10, 787440, Note_on_c, 3, 55, 80
10, 787659, Note_on_c, 3, 43, 0
10, 787659, Note_on_c, 3, 55, 0
10, 787680, Note_on_c, 3, 43, 80
10, 787680, Note_on_c, 3, 55, 80
10, 788019, Note_on_c, 3, 43, 0
10, 788019, Note_on_c, 3, 55, 0
10, 788040, Note_on_c, 3, 43, 80
10, 788040, Note_on_c, 3, 55, 80
10, 788139, Note_on_c, 3, 43, 0
10, 788139, Note_on_c, 3, 55, 0
10, 788160, Note_on_c, 3, 43, 80
10, 788160, Note_on_c, 3, 55, 80
10, 788379, Note_on_c, 3, 43, 0
10, 788379, Note_on_c, 3, 55, 0
10, 788400, Note_on_c, 3, 52, 80
10, 788400, Note_on_c, 3, 40, 80
10, 788619, Note_on_c, 3, 52, 0
10, 788619, Note_on_c, 3, 40, 0
10, 788640, Note_on_c, 3, 52, 80
10, 788640, Note_on_c, 3, 64, 80
10, 788879, Note_on_c, 3, 52, 0
10, 788879, Note_on_c, 3, 64, 0
10, 789600, Note_on_c, 3, 64, 80
10, 789600, Note_on_c, 3, 52, 80
10, 789839, Note_on_c, 3, 64, 0
10, 789839, Note_on_c, 3, 52, 0
10, 791280, Note_on_c, 3, 56, 44
10, 791280, Note_on_c, 3, 59, 44
10, 792119, Note_on_c, 3, 56, 0
10, 792120, Note_on_c, 3, 54, 44
10, 792224, Note_on_c, 3, 54, 0
10, 792240, Note_on_c, 3, 54, 44
10, 792944, Note_on_c, 3, 59, 0
10, 792944, Note_on_c, 3, 54, 0
10, 792960, Note_on_c, 3, 52, 44
10, 792960, Note_on_c, 3, 56, 44
10, 793904, Note_on_c, 3, 52, 0
10, 793904, Note_on_c, 3, 56, 0
10, 793920, Note_on_c, 3, 59, 44
10, 793920, Note_on_c, 3, 54, 44
10, 794879, Note_on_c, 3, 59, 0
10, 794880, Note_on_c, 3, 61, 44
10, 795119, Note_on_c, 3, 54, 0
10, 795119, Note_on_c, 3, 61, 0
10, 795840, Note_on_c, 3, 59, 44
10, 795840, Note_on_c, 3, 54, 44
10, 796079, Note_on_c, 3, 59, 0
10, 796079, Note_on_c, 3, 54, 0
10, 796800, Note_on_c, 3, 59, 44
10, 796800, Note_on_c, 3, 54, 44
10, 797039, Note_on_c, 3, 59, 0
10, 797039, Note_on_c, 3, 54, 0
10, 797760, Note_on_c, 3, 64, 44
10, 797760, Note_on_c, 3, 54, 44
10, 797999, Note_on_c, 3, 64, 0
10, 797999, Note_on_c, 3, 54, 0
10, 798720, Note_on_c, 3, 59, 44
10, 799679, Note_on_c, 3, 59, 0
10, 799680, Note_on_c, 3, 57, 44
10, 800639, Note_on_c, 3, 57, 0
10, 806640, Note_on_c, 3, 47, 65
10, 806640, Note_on_c, 3, 59, 65
10, 806859, Note_on_c, 3, 47, 0
10, 806859, Note_on_c, 3, 59, 0
10, 806880, Note_on_c, 3, 57, 69
10, 806880, Note_on_c, 3, 45, 69
10, 807099, Note_on_c, 3, 57, 0
10, 807099, Note_on_c, 3, 45, 0
10, 807120, Note_on_c, 3, 59, 73
10, 807120, Note_on_c, 3, 47, 73
10, 807339, Note_on_c, 3, 59, 0
10, 807339, Note_on_c, 3, 47, 0
10, 807360, Note_on_c, 3, 45, 77
10, 807360, Note_on_c, 3, 57, 77
10, 807579, Note_on_c, 3, 45, 0
10, 807579, Note_on_c, 3, 57, 0
10, 807600, Note_on_c, 3, 47, 80
10, 807600, Note_on_c, 3, 59, 80
10, 807819, Note_on_c, 3, 47, 0
10, 807819, Note_on_c, 3, 59, 0
10, 807840, Note_on_c, 3, 57, 84
10, 807840, Note_on_c, 3, 45, 84
10, 808059, Note_on_c, 3, 57, 0
10, 808059, Note_on_c, 3, 45, 0
10, 808080, Note_on_c, 3, 47, 88
10, 808080, Note_on_c, 3, 59, 88
10, 808199, Note_on_c, 3, 47, 0
10, 808199, Note_on_c, 3, 59, 0
10, 808200, Note_on_c, 3, 61, 90
10, 808200, Note_on_c, 3, 49, 90
10, 808299, Note_on_c, 3, 61, 0
10, 808299, Note_on_c, 3, 49, 0
10, 808320, Note_on_c, 3, 50, 92
10, 808320, Note_on_c, 3, 62, 92
10, 808529, Note_on_c, 3, 50, 0
10, 808529, Note_on_c, 3, 62, 0
10, 808560, Note_on_c, 3, 50, 92
10, 808560, Note_on_c, 3, 62, 92
10, 808769, Note_on_c, 3, 50, 0
10, 808769, Note_on_c, 3, 62, 0
10, 808800, Note_on_c, 3, 49, 92
10, 808800, Note_on_c, 3, 61, 92
10, 809009, Note_on_c, 3, 49, 0
10, 809009, Note_on_c, 3, 61, 0
10, 809040, Note_on_c, 3, 47, 92
10, 809040, Note_on_c, 3, 59, 92
10, 809249, Note_on_c, 3, 47, 0
10, 809249, Note_on_c, 3, 59, 0
10, 809280, Note_on_c, 3, 64, 80
10, 809280, Note_on_c, 3, 52, 80
10, 809489, Note_on_c, 3, 64, 0
10, 809489, Note_on_c, 3, 52, 0
10, 809520, Note_on_c, 3, 64, 80
10, 809520, Note_on_c, 3, 52, 80
10, 809729, Note_on_c, 3, 64, 0
10, 809729, Note_on_c, 3, 52, 0
10, 809760, Note_on_c, 3, 63, 80
10, 809760, Note_on_c, 3, 51, 80
10, 809969, Note_on_c, 3, 63, 0
10, 809969, Note_on_c, 3, 51, 0
10, 810000, Note_on_c, 3, 47, 80
10, 810000, Note_on_c, 3, 59, 80
10, 810209, Note_on_c, 3, 47, 0
10, 810209, Note_on_c, 3, 59, 0
10, 810240, Note_on_c, 3, 64, 80
10, 810240, Note_on_c, 3, 52, 80
10, 810449, Note_on_c, 3, 64, 0
10, 810449, Note_on_c, 3, 52, 0
10, 810480, Note_on_c, 3, 42, 80
10, 810480, Note_on_c, 3, 54, 80
10, 810689, Note_on_c, 3, 42, 0
10, 810689, Note_on_c, 3, 54, 0
10, 810720, Note_on_c, 3, 55, 80
10, 810720, Note_on_c, 3, 43, 80
10, 810929, Note_on_c, 3, 55, 0
10, 810929, Note_on_c, 3, 43, 0
10, 810960, Note_on_c, 3, 44, 80
10, 810960, Note_on_c, 3, 56, 80
10, 811169, Note_on_c, 3, 44, 0
10, 811169, Note_on_c, 3, 56, 0
10, 811200, Note_on_c, 3, 57, 80
10, 811200, Note_on_c, 3, 45, 80
10, 811409, Note_on_c, 3, 57, 0
10, 811409, Note_on_c, 3, 45, 0
10, 811440, Note_on_c, 3, 56, 80
10, 811440, Note_on_c, 3, 44, 80
10, 811649, Note_on_c, 3, 56, 0
10, 811649, Note_on_c, 3, 44, 0
10, 811680, Note_on_c, 3, 45, 80
10, 811680, Note_on_c, 3, 57, 80
10, 811919, Note_on_c, 3, 45, 0
10, 811919, Note_on_c, 3, 57, 0
10, 811920, Note_on_c, 3, 47, 80
10, 811920, Note_on_c, 3, 59, 80
10, 812039, Note_on_c, 3, 47, 0
10, 812039, Note_on_c, 3, 59, 0
10, 812040, Note_on_c, 3, 49, 80
10, 812040, Note_on_c, 3, 61, 80
10, 812139, Note_on_c, 3, 49, 0
10, 812139, Note_on_c, 3, 61, 0
10, 812160, Note_on_c, 3, 50, 80
10, 812160, Note_on_c, 3, 62, 80
10, 812339, Note_on_c, 3, 50, 0
10, 812339, Note_on_c, 3, 62, 0
10, 812400, Note_on_c, 3, 50, 80
10, 812400, Note_on_c, 3, 62, 80
10, 812579, Note_on_c, 3, 50, 0
10, 812579, Note_on_c, 3, 62, 0
10, 812640, Note_on_c, 3, 49, 80
10, 812640, Note_on_c, 3, 61, 80
10, 812819, Note_on_c, 3, 49, 0
10, 812819, Note_on_c, 3, 61, 0
10, 812880, Note_on_c, 3, 45, 80
10, 812880, Note_on_c, 3, 57, 80
10, 813059, Note_on_c, 3, 45, 0
10, 813059, Note_on_c, 3, 57, 0
10, 813120, Note_on_c, 3, 52, 80
10, 813120, Note_on_c, 3, 64, 80
10, 813329, Note_on_c, 3, 52, 0
10, 813329, Note_on_c, 3, 64, 0
10, 813360, Note_on_c, 3, 52, 80
10, 813360, Note_on_c, 3, 64, 80
10, 813569, Note_on_c, 3, 52, 0
10, 813569, Note_on_c, 3, 64, 0
10, 813600, Note_on_c, 3, 63, 80
10, 813600, Note_on_c, 3, 51, 80
10, 813809, Note_on_c, 3, 63, 0
10, 813809, Note_on_c, 3, 51, 0
10, 813840, Note_on_c, 3, 59, 80
10, 813840, Note_on_c, 3, 47, 80
10, 814049, Note_on_c, 3, 59, 0
10, 814049, Note_on_c, 3, 47, 0
10, 814080, Note_on_c, 3, 52, 80
10, 814080, Note_on_c, 3, 64, 80
10, 814289, Note_on_c, 3, 52, 0
10, 814289, Note_on_c, 3, 64, 0
10, 814320, Note_on_c, 3, 40, 80
10, 814320, Note_on_c, 3, 52, 80
10, 814419, Note_on_c, 3, 40, 0
10, 814419, Note_on_c, 3, 52, 0
10, 814440, Note_on_c, 3, 54, 80
10, 814440, Note_on_c, 3, 42, 80
10, 814539, Note_on_c, 3, 54, 0
10, 814539, Note_on_c, 3, 42, 0
10, 814560, Note_on_c, 3, 43, 80
10, 814560, Note_on_c, 3, 55, 80
10, 814769, Note_on_c, 3, 43, 0
10, 814769, Note_on_c, 3, 55, 0
10, 814800, Note_on_c, 3, 56, 80
10, 814800, Note_on_c, 3, 44, 80
10, 815009, Note_on_c, 3, 56, 0
10, 815009, Note_on_c, 3, 44, 0
10, 815040, Note_on_c, 3, 45, 80
10, 815040, Note_on_c, 3, 57, 80
10, 815249, Note_on_c, 3, 45, 0
10, 815249, Note_on_c, 3, 57, 0
10, 815280, Note_on_c, 3, 44, 80
10, 815280, Note_on_c, 3, 56, 80
10, 815489, Note_on_c, 3, 44, 0
10, 815489, Note_on_c, 3, 56, 0
10, 815520, Note_on_c, 3, 57, 80
10, 815520, Note_on_c, 3, 45, 80
10, 815729, Note_on_c, 3, 57, 0
10, 815729, Note_on_c, 3, 45, 0
10, 815760, Note_on_c, 3, 51, 80
10, 815969, Note_on_c, 3, 51, 0
10, 816000, Note_on_c, 3, 52, 80
10, 816209, Note_on_c, 3, 52, 0
10, 816240, Note_on_c, 3, 54, 80
10, 816449, Note_on_c, 3, 54, 0
10, 816480, Note_on_c, 3, 55, 80
10, 816689, Note_on_c, 3, 55, 0
10, 816720, Note_on_c, 3, 56, 80
10, 816929, Note_on_c, 3, 56, 0
10, 816960, Note_on_c, 3, 57, 80
10, 817169, Note_on_c, 3, 57, 0
10, 817200, Note_on_c, 3, 56, 80
10, 817409, Note_on_c, 3, 56, 0
10, 817440, Note_on_c, 3, 57, 80
10, 817539, Note_on_c, 3, 57, 0
10, 817560, Note_on_c, 3, 59, 80
10, 817659, Note_on_c, 3, 59, 0
10, 817680, Note_on_c, 3, 61, 80
10, 817779, Note_on_c, 3, 61, 0
10, 817800, Note_on_c, 3, 62, 80
10, 817899, Note_on_c, 3, 62, 0
10, 817920, Note_on_c, 3, 64, 92
10, 818279, Note_on_c, 3, 64, 0
10, 818280, Note_on_c, 3, 66, 80
10, 818399, Note_on_c, 3, 66, 0
10, 818400, Note_on_c, 3, 64, 80
10, 818639, Note_on_c, 3, 64, 0
10, 818640, Note_on_c, 3, 62, 80
10, 818849, Note_on_c, 3, 62, 0
10, 818880, Note_on_c, 3, 64, 80
10, 819239, Note_on_c, 3, 64, 0
10, 819240, Note_on_c, 3, 66, 80
10, 819359, Note_on_c, 3, 66, 0
10, 819360, Note_on_c, 3, 64, 80
10, 819599, Note_on_c, 3, 64, 0
10, 819600, Note_on_c, 3, 62, 80
10, 819809, Note_on_c, 3, 62, 0
10, 819840, Note_on_c, 3, 64, 80
10, 820199, Note_on_c, 3, 64, 0
10, 820200, Note_on_c, 3, 66, 80
10, 820319, Note_on_c, 3, 66, 0
10, 820320, Note_on_c, 3, 64, 80
10, 820559, Note_on_c, 3, 64, 0
10, 820560, Note_on_c, 3, 62, 80
10, 820769, Note_on_c, 3, 62, 0
10, 820800, Note_on_c, 3, 64, 80
10, 821159, Note_on_c, 3, 64, 0
10, 821160, Note_on_c, 3, 66, 80
10, 821279, Note_on_c, 3, 66, 0
10, 821280, Note_on_c, 3, 64, 80
10, 821519, Note_on_c, 3, 64, 0
10, 821520, Note_on_c, 3, 62, 80
10, 821729, Note_on_c, 3, 62, 0
10, 821760, Note_on_c, 3, 64, 80
10, 822119, Note_on_c, 3, 64, 0
10, 822120, Note_on_c, 3, 66, 80
10, 822239, Note_on_c, 3, 66, 0
10, 822240, Note_on_c, 3, 64, 80
10, 822479, Note_on_c, 3, 64, 0
10, 822480, Note_on_c, 3, 62, 80
10, 822689, Note_on_c, 3, 62, 0
10, 822720, Note_on_c, 3, 64, 80
10, 823079, Note_on_c, 3, 64, 0
10, 823080, Note_on_c, 3, 66, 80
10, 823199, Note_on_c, 3, 66, 0
10, 823200, Note_on_c, 3, 64, 80
10, 823439, Note_on_c, 3, 64, 0
10, 823440, Note_on_c, 3, 62, 80
10, 823649, Note_on_c, 3, 62, 0
10, 823680, Note_on_c, 3, 64, 80
10, 824039, Note_on_c, 3, 64, 0
10, 824040, Note_on_c, 3, 66, 80
10, 824159, Note_on_c, 3, 66, 0
10, 824160, Note_on_c, 3, 64, 80
10, 824399, Note_on_c, 3, 64, 0
10, 824400, Note_on_c, 3, 62, 80
10, 824609, Note_on_c, 3, 62, 0
10, 824640, Note_on_c, 3, 64, 80
10, 824999, Note_on_c, 3, 64, 0
10, 825000, Note_on_c, 3, 66, 80
10, 825119, Note_on_c, 3, 66, 0
10, 825120, Note_on_c, 3, 64, 80
10, 825359, Note_on_c, 3, 64, 0
10, 825360, Note_on_c, 3, 62, 80
10, 825569, Note_on_c, 3, 62, 0
10, 825600, Note_on_c, 3, 57, 80
10, 825839, Note_on_c, 3, 57, 0
10, 825840, Note_on_c, 3, 61, 80
10, 825840, Note_on_c, 3, 67, 80
10, 826049, Note_on_c, 3, 61, 0
10, 826049, Note_on_c, 3, 67, 0
10, 826080, Note_on_c, 3, 57, 80
10, 826080, Note_on_c, 3, 67, 80
10, 826319, Note_on_c, 3, 57, 0
10, 826319, Note_on_c, 3, 67, 0
10, 826320, Note_on_c, 3, 66, 80
10, 826320, Note_on_c, 3, 62, 80
10, 826529, Note_on_c, 3, 66, 0
10, 826529, Note_on_c, 3, 62, 0
10, 826560, Note_on_c, 3, 57, 80
10, 826560, Note_on_c, 3, 66, 80
10, 826799, Note_on_c, 3, 57, 0
10, 826799, Note_on_c, 3, 66, 0
10, 826800, Note_on_c, 3, 64, 80
10, 826800, Note_on_c, 3, 55, 80
10, 827009, Note_on_c, 3, 64, 0
10, 827009, Note_on_c, 3, 55, 0
10, 827040, Note_on_c, 3, 59, 80
10, 827040, Note_on_c, 3, 67, 80
10, 827279, Note_on_c, 3, 59, 0
10, 827279, Note_on_c, 3, 67, 0
10, 827280, Note_on_c, 3, 64, 80
10, 827280, Note_on_c, 3, 55, 80
10, 827489, Note_on_c, 3, 64, 0
10, 827489, Note_on_c, 3, 55, 0
10, 827520, Note_on_c, 3, 64, 80
10, 827520, Note_on_c, 3, 55, 80
10, 827759, Note_on_c, 3, 64, 0
10, 827759, Note_on_c, 3, 55, 0
10, 827760, Note_on_c, 3, 54, 80
10, 827760, Note_on_c, 3, 62, 80
10, 827969, Note_on_c, 3, 54, 0
10, 827969, Note_on_c, 3, 62, 0
10, 828000, Note_on_c, 3, 62, 80
10, 828000, Note_on_c, 3, 52, 80
10, 828239, Note_on_c, 3, 62, 0
10, 828239, Note_on_c, 3, 52, 0
10, 828240, Note_on_c, 3, 61, 80
10, 828240, Note_on_c, 3, 64, 80
10, 828449, Note_on_c, 3, 61, 0
10, 828449, Note_on_c, 3, 64, 0
10, 828480, Note_on_c, 3, 62, 80
10, 828480, Note_on_c, 3, 57, 80
10, 829439, Note_on_c, 3, 57, 0
10, 829440, Note_on_c, 3, 59, 80
10, 829679, Note_on_c, 3, 62, 0
10, 829679, Note_on_c, 3, 59, 0
10, 829680, Note_on_c, 3, 64, 80
10, 829680, Note_on_c, 3, 61, 80
10, 829889, Note_on_c, 3, 64, 0
10, 829889, Note_on_c, 3, 61, 0
10, 829920, Note_on_c, 3, 64, 80
10, 829920, Note_on_c, 3, 67, 80
10, 830159, Note_on_c, 3, 64, 0
10, 830159, Note_on_c, 3, 67, 0
10, 830160, Note_on_c, 3, 66, 80
10, 830160, Note_on_c, 3, 62, 80
10, 830369, Note_on_c, 3, 66, 0
10, 830369, Note_on_c, 3, 62, 0
10, 830400, Note_on_c, 3, 57, 80
10, 830400, Note_on_c, 3, 66, 80
10, 830639, Note_on_c, 3, 57, 0
10, 830639, Note_on_c, 3, 66, 0
10, 830640, Note_on_c, 3, 55, 80
10, 830640, Note_on_c, 3, 64, 80
10, 830849, Note_on_c, 3, 55, 0
10, 830849, Note_on_c, 3, 64, 0
10, 830880, Note_on_c, 3, 67, 80
10, 830880, Note_on_c, 3, 59, 80
10, 831119, Note_on_c, 3, 67, 0
10, 831119, Note_on_c, 3, 59, 0
10, 831120, Note_on_c, 3, 64, 80
10, 831120, Note_on_c, 3, 55, 80
10, 831329, Note_on_c, 3, 64, 0
10, 831329, Note_on_c, 3, 55, 0
10, 831360, Note_on_c, 3, 55, 80
10, 831360, Note_on_c, 3, 64, 80
10, 831599, Note_on_c, 3, 55, 0
10, 831599, Note_on_c, 3, 64, 0
10, 831600, Note_on_c, 3, 62, 80
10, 831600, Note_on_c, 3, 54, 80
10, 831809, Note_on_c, 3, 62, 0
10, 831809, Note_on_c, 3, 54, 0
10, 831840, Note_on_c, 3, 62, 80
10, 831840, Note_on_c, 3, 54, 80
10, 832079, Note_on_c, 3, 62, 0
10, 832079, Note_on_c, 3, 54, 0
10, 832080, Note_on_c, 3, 61, 80
10, 832080, Note_on_c, 3, 52, 80
10, 832289, Note_on_c, 3, 61, 0
10, 832289, Note_on_c, 3, 52, 0
10, 832320, Note_on_c, 3, 54, 80
10, 832320, Note_on_c, 3, 62, 80
10, 832529, Note_on_c, 3, 54, 0
10, 832529, Note_on_c, 3, 62, 0
10, 832560, Note_on_c, 3, 54, 80
10, 832679, Note_on_c, 3, 54, 0
10, 832680, Note_on_c, 3, 55, 80
10, 832779, Note_on_c, 3, 55, 0
10, 832800, Note_on_c, 3, 57, 80
10, 832979, Note_on_c, 3, 57, 0
10, 833280, Note_on_c, 3, 62, 80
10, 833280, Note_on_c, 3, 50, 80
10, 833489, Note_on_c, 3, 62, 0
10, 833489, Note_on_c, 3, 50, 0
10, 833520, Note_on_c, 3, 50, 80
10, 833520, Note_on_c, 3, 62, 80
10, 833729, Note_on_c, 3, 50, 0
10, 833729, Note_on_c, 3, 62, 0
10, 833760, Note_on_c, 3, 49, 80
10, 833760, Note_on_c, 3, 61, 80
10, 833969, Note_on_c, 3, 49, 0
10, 833969, Note_on_c, 3, 61, 0
10, 834000, Note_on_c, 3, 57, 80
10, 834000, Note_on_c, 3, 45, 80
10, 834209, Note_on_c, 3, 57, 0
10, 834209, Note_on_c, 3, 45, 0
10, 834240, Note_on_c, 3, 55, 80
10, 834449, Note_on_c, 3, 55, 0
10, 834480, Note_on_c, 3, 55, 80
10, 834599, Note_on_c, 3, 55, 0
10, 834600, Note_on_c, 3, 57, 80
10, 834699, Note_on_c, 3, 57, 0
10, 834720, Note_on_c, 3, 59, 80
10, 834899, Note_on_c, 3, 59, 0
10, 835200, Note_on_c, 3, 64, 80
10, 835200, Note_on_c, 3, 52, 80
10, 835409, Note_on_c, 3, 64, 0
10, 835409, Note_on_c, 3, 52, 0
10, 835440, Note_on_c, 3, 52, 80
10, 835440, Note_on_c, 3, 64, 80
10, 835649, Note_on_c, 3, 52, 0
10, 835649, Note_on_c, 3, 64, 0
10, 835680, Note_on_c, 3, 51, 80
10, 835680, Note_on_c, 3, 63, 80
10, 835889, Note_on_c, 3, 51, 0
10, 835889, Note_on_c, 3, 63, 0
10, 835920, Note_on_c, 3, 59, 80
10, 835920, Note_on_c, 3, 47, 80
10, 836129, Note_on_c, 3, 59, 0
10, 836129, Note_on_c, 3, 47, 0
10, 836160, Note_on_c, 3, 59, 92
10, 836160, Note_on_c, 3, 47, 92
10, 836519, Note_on_c, 3, 59, 0
10, 836519, Note_on_c, 3, 47, 0
10, 836640, Note_on_c, 3, 59, 92
10, 836640, Note_on_c, 3, 47, 92
10, 836999, Note_on_c, 3, 59, 0
10, 836999, Note_on_c, 3, 47, 0
10, 837120, Note_on_c, 3, 59, 92
10, 837120, Note_on_c, 3, 47, 92
10, 837479, Note_on_c, 3, 59, 0
10, 837479, Note_on_c, 3, 47, 0
10, 837600, Note_on_c, 3, 47, 92
10, 837600, Note_on_c, 3, 59, 92
10, 837959, Note_on_c, 3, 47, 0
10, 837959, Note_on_c, 3, 59, 0
10, 838080, Note_on_c, 3, 59, 92
10, 838080, Note_on_c, 3, 47, 92
10, 838439, Note_on_c, 3, 59, 0
10, 838439, Note_on_c, 3, 47, 0
10, 838560, Note_on_c, 3, 59, 92
10, 838560, Note_on_c, 3, 47, 92
10, 838919, Note_on_c, 3, 59, 0
10, 838919, Note_on_c, 3, 47, 0
10, 839040, Note_on_c, 3, 48, 92
10, 839040, Note_on_c, 3, 60, 92
10, 839399, Note_on_c, 3, 48, 0
10, 839399, Note_on_c, 3, 60, 0
10, 839520, Note_on_c, 3, 48, 92
10, 839520, Note_on_c, 3, 60, 92
10, 839879, Note_on_c, 3, 48, 0
10, 839879, Note_on_c, 3, 60, 0
10, 840000, Note_on_c, 3, 60, 92
10, 840000, Note_on_c, 3, 48, 92
10, 840359, Note_on_c, 3, 60, 0
10, 840359, Note_on_c, 3, 48, 0
10, 840480, Note_on_c, 3, 48, 92
10, 840480, Note_on_c, 3, 60, 92
10, 840839, Note_on_c, 3, 48, 0
10, 840839, Note_on_c, 3, 60, 0
10, 840960, Note_on_c, 3, 65, 92
10, 840960, Note_on_c, 3, 53, 92
10, 841319, Note_on_c, 3, 65, 0
10, 841319, Note_on_c, 3, 53, 0
10, 841440, Note_on_c, 3, 50, 92
10, 841440, Note_on_c, 3, 62, 92
10, 841799, Note_on_c, 3, 50, 0
10, 841799, Note_on_c, 3, 62, 0
10, 841920, Note_on_c, 3, 45, 92
10, 841920, Note_on_c, 3, 57, 92
10, 842369, Note_on_c, 3, 45, 0
10, 842369, Note_on_c, 3, 57, 0
10, 842400, Note_on_c, 3, 57, 92
10, 842400, Note_on_c, 3, 69, 92
10, 842609, Note_on_c, 3, 57, 0
10, 842609, Note_on_c, 3, 69, 0
10, 842640, Note_on_c, 3, 45, 92
10, 842640, Note_on_c, 3, 57, 92
10, 842849, Note_on_c, 3, 45, 0
10, 842849, Note_on_c, 3, 57, 0
10, 842880, Note_on_c, 3, 59, 92
10, 842880, Note_on_c, 3, 47, 92
10, 843329, Note_on_c, 3, 59, 0
10, 843329, Note_on_c, 3, 47, 0
10, 843360, Note_on_c, 3, 59, 92
10, 843360, Note_on_c, 3, 47, 92
10, 843440, Control_c, 3, 11, 107
10, 844289, Note_on_c, 3, 59, 0
10, 844289, Note_on_c, 3, 47, 0
10, 844318, Control_c, 3, 11, 127
10, 844320, Note_on_c, 3, 47, 80
10, 844320, Note_on_c, 3, 59, 80
10, 844679, Note_on_c, 3, 47, 0
10, 844679, Note_on_c, 3, 59, 0
10, 844800, Note_on_c, 3, 47, 80
10, 844800, Note_on_c, 3, 59, 80
10, 845159, Note_on_c, 3, 47, 0
10, 845159, Note_on_c, 3, 59, 0
10, 845280, Note_on_c, 3, 47, 80
10, 845280, Note_on_c, 3, 59, 80
10, 845639, Note_on_c, 3, 47, 0
10, 845639, Note_on_c, 3, 59, 0
10, 845760, Note_on_c, 3, 59, 80
10, 845760, Note_on_c, 3, 47, 80
10, 846119, Note_on_c, 3, 59, 0
10, 846119, Note_on_c, 3, 47, 0
10, 846240, Note_on_c, 3, 47, 80
10, 846240, Note_on_c, 3, 59, 80
10, 846599, Note_on_c, 3, 47, 0
10, 846599, Note_on_c, 3, 59, 0
10, 846720, Note_on_c, 3, 60, 92
10, 846720, Note_on_c, 3, 48, 92
10, 847079, Note_on_c, 3, 60, 0
10, 847079, Note_on_c, 3, 48, 0
10, 847200, Note_on_c, 3, 48, 80
10, 847200, Note_on_c, 3, 60, 80
10, 847559, Note_on_c, 3, 48, 0
10, 847559, Note_on_c, 3, 60, 0
10, 847680, Note_on_c, 3, 48, 80
10, 847680, Note_on_c, 3, 60, 80
10, 848039, Note_on_c, 3, 48, 0
10, 848039, Note_on_c, 3, 60, 0
10, 848160, Note_on_c, 3, 60, 80
10, 848160, Note_on_c, 3, 48, 80
10, 848519, Note_on_c, 3, 60, 0
10, 848519, Note_on_c, 3, 48, 0
10, 848640, Note_on_c, 3, 65, 92
10, 848640, Note_on_c, 3, 53, 92
10, 848999, Note_on_c, 3, 65, 0
10, 848999, Note_on_c, 3, 53, 0
10, 849120, Note_on_c, 3, 62, 92
10, 849120, Note_on_c, 3, 50, 92
10, 849479, Note_on_c, 3, 62, 0
10, 849479, Note_on_c, 3, 50, 0
10, 849600, Note_on_c, 3, 57, 92
10, 849600, Note_on_c, 3, 45, 92
10, 849959, Note_on_c, 3, 57, 0
10, 849959, Note_on_c, 3, 45, 0
10, 850080, Note_on_c, 3, 57, 92
10, 850080, Note_on_c, 3, 45, 92
10, 850289, Note_on_c, 3, 57, 0
10, 850289, Note_on_c, 3, 45, 0
10, 850320, Note_on_c, 3, 60, 92
10, 850320, Note_on_c, 3, 48, 92
10, 851009, Note_on_c, 3, 60, 0
10, 851009, Note_on_c, 3, 48, 0
10, 851040, Note_on_c, 3, 47, 92
10, 851040, Note_on_c, 3, 59, 92
10, 851139, Note_on_c, 3, 47, 0
10, 851139, Note_on_c, 3, 59, 0
10, 851160, Note_on_c, 3, 50, 92
10, 851259, Note_on_c, 3, 50, 0
10, 851280, Note_on_c, 3, 52, 92
10, 851379, Note_on_c, 3, 52, 0
10, 851400, Note_on_c, 3, 54, 92
10, 851499, Note_on_c, 3, 54, 0
10, 851520, Note_on_c, 3, 55, 92
10, 851619, Note_on_c, 3, 55, 0
10, 851640, Note_on_c, 3, 55, 92
10, 851640, Note_on_c, 3, 43, 92
10, 851739, Note_on_c, 3, 55, 0
10, 851739, Note_on_c, 3, 43, 0
10, 851760, Note_on_c, 3, 57, 92
10, 851760, Note_on_c, 3, 45, 92
10, 851859, Note_on_c, 3, 57, 0
10, 851859, Note_on_c, 3, 45, 0
10, 851880, Note_on_c, 3, 47, 92
10, 851880, Note_on_c, 3, 59, 92
10, 851979, Note_on_c, 3, 47, 0
10, 851979, Note_on_c, 3, 59, 0
10, 852000, Note_on_c, 3, 49, 92
10, 852000, Note_on_c, 3, 61, 92
10, 852099, Note_on_c, 3, 49, 0
10, 852099, Note_on_c, 3, 61, 0
10, 852120, Note_on_c, 3, 62, 92
10, 852120, Note_on_c, 3, 50, 92
10, 852219, Note_on_c, 3, 62, 0
10, 852219, Note_on_c, 3, 50, 0
10, 852240, Note_on_c, 3, 49, 92
10, 852240, Note_on_c, 3, 52, 92
10, 852339, Note_on_c, 3, 49, 0
10, 852339, Note_on_c, 3, 52, 0
10, 852360, Note_on_c, 3, 54, 92
10, 852360, Note_on_c, 3, 50, 92
10, 852459, Note_on_c, 3, 54, 0
10, 852459, Note_on_c, 3, 50, 0
10, 852480, Note_on_c, 3, 52, 92
10, 852480, Note_on_c, 3, 55, 92
10, 852579, Note_on_c, 3, 52, 0
10, 852579, Note_on_c, 3, 55, 0
10, 852600, Note_on_c, 3, 54, 92
10, 852600, Note_on_c, 3, 57, 92
10, 852699, Note_on_c, 3, 54, 0
10, 852699, Note_on_c, 3, 57, 0
10, 852720, Note_on_c, 3, 59, 92
10, 852720, Note_on_c, 3, 55, 92
10, 852819, Note_on_c, 3, 59, 0
10, 852819, Note_on_c, 3, 55, 0
10, 852840, Note_on_c, 3, 61, 92
10, 852840, Note_on_c, 3, 57, 92
10, 852939, Note_on_c, 3, 61, 0
10, 852939, Note_on_c, 3, 57, 0
10, 852960, Note_on_c, 3, 62, 92
10, 852960, Note_on_c, 3, 59, 92
10, 853059, Note_on_c, 3, 62, 0
10, 853059, Note_on_c, 3, 59, 0
10, 853080, Note_on_c, 3, 64, 92
10, 853080, Note_on_c, 3, 61, 92
10, 853179, Note_on_c, 3, 64, 0
10, 853179, Note_on_c, 3, 61, 0
10, 853200, Note_on_c, 3, 66, 92
10, 853200, Note_on_c, 3, 62, 92
10, 853299, Note_on_c, 3, 66, 0
10, 853299, Note_on_c, 3, 62, 0
10, 853320, Note_on_c, 3, 64, 92
10, 853320, Note_on_c, 3, 67, 92
10, 853419, Note_on_c, 3, 64, 0
10, 853419, Note_on_c, 3, 67, 0
10, 853440, Note_on_c, 3, 66, 92
10, 853440, Note_on_c, 3, 62, 92
10, 853889, Note_on_c, 3, 66, 0
10, 853889, Note_on_c, 3, 62, 0
10, 853920, Note_on_c, 3, 64, 92
10, 853920, Note_on_c, 3, 61, 92
10, 854129, Note_on_c, 3, 64, 0
10, 854129, Note_on_c, 3, 61, 0
10, 854160, Note_on_c, 3, 60, 92
10, 854160, Note_on_c, 3, 48, 92
10, 854849, Note_on_c, 3, 60, 0
10, 854849, Note_on_c, 3, 48, 0
10, 854880, Note_on_c, 3, 47, 92
10, 854880, Note_on_c, 3, 59, 92
10, 854979, Note_on_c, 3, 47, 0
10, 854979, Note_on_c, 3, 59, 0
10, 855000, Note_on_c, 3, 50, 92
10, 855099, Note_on_c, 3, 50, 0
10, 855120, Note_on_c, 3, 52, 92
10, 855219, Note_on_c, 3, 52, 0
10, 855240, Note_on_c, 3, 54, 92
10, 855339, Note_on_c, 3, 54, 0
10, 855360, Note_on_c, 3, 55, 92
10, 855459, Note_on_c, 3, 55, 0
10, 855480, Note_on_c, 3, 55, 92
10, 855579, Note_on_c, 3, 55, 0
10, 855600, Note_on_c, 3, 57, 92
10, 855699, Note_on_c, 3, 57, 0
10, 855720, Note_on_c, 3, 59, 92
10, 855720, Note_on_c, 3, 47, 92
10, 855819, Note_on_c, 3, 59, 0
10, 855819, Note_on_c, 3, 47, 0
10, 855840, Note_on_c, 3, 49, 92
10, 855840, Note_on_c, 3, 61, 92
10, 855939, Note_on_c, 3, 49, 0
10, 855939, Note_on_c, 3, 61, 0
10, 855960, Note_on_c, 3, 50, 92
10, 856059, Note_on_c, 3, 50, 0
10, 856080, Note_on_c, 3, 52, 92
10, 856080, Note_on_c, 3, 49, 92
10, 856179, Note_on_c, 3, 52, 0
10, 856179, Note_on_c, 3, 49, 0
10, 856200, Note_on_c, 3, 54, 92
10, 856200, Note_on_c, 3, 50, 92
10, 856299, Note_on_c, 3, 54, 0
10, 856299, Note_on_c, 3, 50, 0
10, 856320, Note_on_c, 3, 55, 92
10, 856320, Note_on_c, 3, 52, 92
10, 856419, Note_on_c, 3, 55, 0
10, 856419, Note_on_c, 3, 52, 0
10, 856440, Note_on_c, 3, 57, 92
10, 856440, Note_on_c, 3, 54, 92
10, 856539, Note_on_c, 3, 57, 0
10, 856539, Note_on_c, 3, 54, 0
10, 856560, Note_on_c, 3, 55, 92
10, 856560, Note_on_c, 3, 59, 92
10, 856659, Note_on_c, 3, 55, 0
10, 856659, Note_on_c, 3, 59, 0
10, 856680, Note_on_c, 3, 61, 92
10, 856680, Note_on_c, 3, 57, 92
10, 856779, Note_on_c, 3, 61, 0
10, 856779, Note_on_c, 3, 57, 0
10, 856800, Note_on_c, 3, 59, 92
10, 856800, Note_on_c, 3, 62, 92
10, 856899, Note_on_c, 3, 59, 0
10, 856899, Note_on_c, 3, 62, 0
10, 856920, Note_on_c, 3, 61, 92
10, 856920, Note_on_c, 3, 64, 92
10, 857019, Note_on_c, 3, 61, 0
10, 857019, Note_on_c, 3, 64, 0
10, 857040, Note_on_c, 3, 66, 92
10, 857040, Note_on_c, 3, 62, 92
10, 857139, Note_on_c, 3, 66, 0
10, 857139, Note_on_c, 3, 62, 0
10, 857160, Note_on_c, 3, 67, 92
10, 857160, Note_on_c, 3, 64, 92
10, 857259, Note_on_c, 3, 67, 0
10, 857259, Note_on_c, 3, 64, 0
10, 857280, Note_on_c, 3, 66, 92
10, 857280, Note_on_c, 3, 62, 92
10, 857729, Note_on_c, 3, 66, 0
10, 857729, Note_on_c, 3, 62, 0
10, 857760, Note_on_c, 3, 64, 92
10, 857760, Note_on_c, 3, 61, 92
10, 858209, Note_on_c, 3, 64, 0
10, 858209, Note_on_c, 3, 61, 0
10, 858240, Note_on_c, 3, 62, 92
10, 858240, Note_on_c, 3, 50, 92
10, 858479, Note_on_c, 3, 62, 0
10, 858479, Note_on_c, 3, 50, 0
10, 858720, Note_on_c, 3, 54, 92
10, 858929, Note_on_c, 3, 54, 0
10, 858960, Note_on_c, 3, 55, 92
10, 859059, Note_on_c, 3, 55, 0
10, 859080, Note_on_c, 3, 57, 92
10, 859179, Note_on_c, 3, 57, 0
10, 859200, Note_on_c, 3, 59, 92
10, 859439, Note_on_c, 3, 59, 0
10, 859680, Note_on_c, 3, 50, 92
10, 859680, Note_on_c, 3, 62, 92
10, 859889, Note_on_c, 3, 50, 0
10, 859889, Note_on_c, 3, 62, 0
10, 859920, Note_on_c, 3, 52, 92
10, 859920, Note_on_c, 3, 64, 92
10, 860019, Note_on_c, 3, 52, 0
10, 860019, Note_on_c, 3, 64, 0
10, 860040, Note_on_c, 3, 54, 92
10, 860040, Note_on_c, 3, 66, 92
10, 860139, Note_on_c, 3, 54, 0
10, 860139, Note_on_c, 3, 66, 0
10, 860160, Note_on_c, 3, 67, 92
10, 860160, Note_on_c, 3, 55, 92
10, 860399, Note_on_c, 3, 67, 0
10, 860399, Note_on_c, 3, 55, 0
10, 860640, Note_on_c, 3, 52, 92
10, 860640, Note_on_c, 3, 64, 92
10, 860849, Note_on_c, 3, 52, 0
10, 860849, Note_on_c, 3, 64, 0
10, 860880, Note_on_c, 3, 66, 92
10, 860880, Note_on_c, 3, 54, 92
10, 860979, Note_on_c, 3, 66, 0
10, 860979, Note_on_c, 3, 54, 0
10, 861000, Note_on_c, 3, 67, 92
10, 861000, Note_on_c, 3, 55, 92
10, 861099, Note_on_c, 3, 67, 0
10, 861099, Note_on_c, 3, 55, 0
10, 861120, Note_on_c, 3, 57, 92
10, 861120, Note_on_c, 3, 69, 92
10, 861359, Note_on_c, 3, 57, 0
10, 861359, Note_on_c, 3, 69, 0
10, 861600, Note_on_c, 3, 57, 92
10, 861809, Note_on_c, 3, 57, 0
10, 861840, Note_on_c, 3, 59, 92
10, 861939, Note_on_c, 3, 59, 0
10, 861960, Note_on_c, 3, 61, 92
10, 862059, Note_on_c, 3, 61, 0
10, 862080, Note_on_c, 3, 62, 92
10, 862179, Note_on_c, 3, 62, 0
10, 862200, Note_on_c, 3, 57, 92
10, 862299, Note_on_c, 3, 57, 0
10, 862320, Note_on_c, 3, 59, 92
10, 862419, Note_on_c, 3, 59, 0
10, 862440, Note_on_c, 3, 61, 92
10, 862539, Note_on_c, 3, 61, 0
10, 862560, Note_on_c, 3, 62, 92
10, 862659, Note_on_c, 3, 62, 0
10, 862680, Note_on_c, 3, 64, 92
10, 862779, Note_on_c, 3, 64, 0
10, 862800, Note_on_c, 3, 66, 92
10, 862899, Note_on_c, 3, 66, 0
10, 862920, Note_on_c, 3, 62, 92
10, 863019, Note_on_c, 3, 62, 0
10, 863040, Note_on_c, 3, 45, 92
10, 863040, Note_on_c, 3, 57, 92
10, 863139, Note_on_c, 3, 45, 0
10, 863139, Note_on_c, 3, 57, 0
10, 863160, Note_on_c, 3, 47, 92
10, 863160, Note_on_c, 3, 59, 92
10, 863259, Note_on_c, 3, 47, 0
10, 863259, Note_on_c, 3, 59, 0
10, 863280, Note_on_c, 3, 49, 92
10, 863280, Note_on_c, 3, 61, 92
10, 863379, Note_on_c, 3, 49, 0
10, 863379, Note_on_c, 3, 61, 0
10, 863400, Note_on_c, 3, 50, 92
10, 863400, Note_on_c, 3, 62, 92
10, 863499, Note_on_c, 3, 50, 0
10, 863499, Note_on_c, 3, 62, 0
10, 863520, Note_on_c, 3, 64, 92
10, 863520, Note_on_c, 3, 52, 92
10, 863619, Note_on_c, 3, 64, 0
10, 863619, Note_on_c, 3, 52, 0
10, 863640, Note_on_c, 3, 54, 92
10, 863640, Note_on_c, 3, 66, 92
10, 863739, Note_on_c, 3, 54, 0
10, 863739, Note_on_c, 3, 66, 0
10, 863760, Note_on_c, 3, 55, 92
10, 863760, Note_on_c, 3, 67, 92
10, 863859, Note_on_c, 3, 55, 0
10, 863859, Note_on_c, 3, 67, 0
10, 863880, Note_on_c, 3, 57, 92
10, 863880, Note_on_c, 3, 69, 92
10, 863979, Note_on_c, 3, 57, 0
10, 863979, Note_on_c, 3, 69, 0
10, 864000, Note_on_c, 3, 57, 92
10, 864000, Note_on_c, 3, 45, 92
10, 864099, Note_on_c, 3, 57, 0
10, 864099, Note_on_c, 3, 45, 0
10, 864120, Note_on_c, 3, 45, 92
10, 864120, Note_on_c, 3, 57, 92
10, 864219, Note_on_c, 3, 45, 0
10, 864219, Note_on_c, 3, 57, 0
10, 864240, Note_on_c, 3, 47, 92
10, 864240, Note_on_c, 3, 59, 92
10, 864339, Note_on_c, 3, 47, 0
10, 864339, Note_on_c, 3, 59, 0
10, 864360, Note_on_c, 3, 49, 92
10, 864360, Note_on_c, 3, 61, 92
10, 864459, Note_on_c, 3, 49, 0
10, 864459, Note_on_c, 3, 61, 0
10, 864480, Note_on_c, 3, 50, 92
10, 864480, Note_on_c, 3, 62, 92
10, 864579, Note_on_c, 3, 50, 0
10, 864579, Note_on_c, 3, 62, 0
10, 864600, Note_on_c, 3, 52, 92
10, 864600, Note_on_c, 3, 64, 92
10, 864699, Note_on_c, 3, 52, 0
10, 864699, Note_on_c, 3, 64, 0
10, 864720, Note_on_c, 3, 54, 92
10, 864720, Note_on_c, 3, 66, 92
10, 864819, Note_on_c, 3, 54, 0
10, 864819, Note_on_c, 3, 66, 0
10, 864840, Note_on_c, 3, 50, 92
10, 864840, Note_on_c, 3, 62, 92
10, 864939, Note_on_c, 3, 50, 0
10, 864939, Note_on_c, 3, 62, 0
10, 864960, Note_on_c, 3, 57, 92
10, 865059, Note_on_c, 3, 57, 0
10, 865080, Note_on_c, 3, 49, 92
10, 865179, Note_on_c, 3, 49, 0
10, 865200, Note_on_c, 3, 50, 92
10, 865299, Note_on_c, 3, 50, 0
10, 865320, Note_on_c, 3, 52, 92
10, 865419, Note_on_c, 3, 52, 0
10, 865440, Note_on_c, 3, 57, 92
10, 865539, Note_on_c, 3, 57, 0
10, 865560, Note_on_c, 3, 50, 92
10, 865659, Note_on_c, 3, 50, 0
10, 865680, Note_on_c, 3, 52, 92
10, 865779, Note_on_c, 3, 52, 0
10, 865800, Note_on_c, 3, 54, 92
10, 865899, Note_on_c, 3, 54, 0
10, 865920, Note_on_c, 3, 57, 92
10, 866019, Note_on_c, 3, 57, 0
10, 866040, Note_on_c, 3, 51, 92
10, 866139, Note_on_c, 3, 51, 0
10, 866160, Note_on_c, 3, 52, 92
10, 866259, Note_on_c, 3, 52, 0
10, 866280, Note_on_c, 3, 54, 92
10, 866379, Note_on_c, 3, 54, 0
10, 866400, Note_on_c, 3, 55, 92
10, 866499, Note_on_c, 3, 55, 0
10, 866520, Note_on_c, 3, 57, 92
10, 866619, Note_on_c, 3, 57, 0
10, 866640, Note_on_c, 3, 59, 92
10, 866739, Note_on_c, 3, 59, 0
10, 866760, Note_on_c, 3, 61, 92
10, 866859, Note_on_c, 3, 61, 0
10, 866880, Note_on_c, 3, 62, 92
10, 866979, Note_on_c, 3, 62, 0
10, 867000, Note_on_c, 3, 64, 92
10, 867099, Note_on_c, 3, 64, 0
10, 867120, Note_on_c, 3, 66, 92
10, 867219, Note_on_c, 3, 66, 0
10, 867240, Note_on_c, 3, 67, 92
10, 867339, Note_on_c, 3, 67, 0
10, 867360, Note_on_c, 3, 69, 92
10, 867459, Note_on_c, 3, 69, 0
10, 867480, Note_on_c, 3, 50, 92
10, 867579, Note_on_c, 3, 50, 0
10, 867600, Note_on_c, 3, 52, 92
10, 867699, Note_on_c, 3, 52, 0
10, 867720, Note_on_c, 3, 54, 92
10, 867819, Note_on_c, 3, 54, 0
10, 867840, Note_on_c, 3, 57, 92
10, 867939, Note_on_c, 3, 57, 0
10, 867960, Note_on_c, 3, 49, 92
10, 868059, Note_on_c, 3, 49, 0
10, 868080, Note_on_c, 3, 50, 92
10, 868179, Note_on_c, 3, 50, 0
10, 868200, Note_on_c, 3, 52, 92
10, 868299, Note_on_c, 3, 52, 0
10, 868320, Note_on_c, 3, 57, 92
10, 868419, Note_on_c, 3, 57, 0
10, 868440, Note_on_c, 3, 50, 92
10, 868539, Note_on_c, 3, 50, 0
10, 868560, Note_on_c, 3, 52, 92
10, 868659, Note_on_c, 3, 52, 0
10, 868680, Note_on_c, 3, 54, 92
10, 868779, Note_on_c, 3, 54, 0
10, 868800, Note_on_c, 3, 57, 92
10, 868899, Note_on_c, 3, 57, 0
10, 868920, Note_on_c, 3, 51, 92
10, 869019, Note_on_c, 3, 51, 0
10, 869040, Note_on_c, 3, 52, 92
10, 869139, Note_on_c, 3, 52, 0
10, 869160, Note_on_c, 3, 54, 92
10, 869259, Note_on_c, 3, 54, 0
10, 869280, Note_on_c, 3, 55, 92
10, 869379, Note_on_c, 3, 55, 0
10, 869400, Note_on_c, 3, 57, 92
10, 869499, Note_on_c, 3, 57, 0
10, 869520, Note_on_c, 3, 59, 92
10, 869619, Note_on_c, 3, 59, 0
10, 869640, Note_on_c, 3, 61, 92
10, 869739, Note_on_c, 3, 61, 0
10, 869760, Note_on_c, 3, 62, 92
10, 869859, Note_on_c, 3, 62, 0
10, 869880, Note_on_c, 3, 64, 92
10, 869979, Note_on_c, 3, 64, 0
10, 870000, Note_on_c, 3, 66, 92
10, 870099, Note_on_c, 3, 66, 0
10, 870120, Note_on_c, 3, 67, 92
10, 870219, Note_on_c, 3, 67, 0
10, 870240, Note_on_c, 3, 45, 92
10, 870240, Note_on_c, 3, 57, 92
10, 871069, Note_on_c, 3, 45, 0
10, 871069, Note_on_c, 3, 57, 0
10, 871080, Note_on_c, 3, 45, 92
10, 871080, Note_on_c, 3, 57, 92
10, 871189, Note_on_c, 3, 45, 0
10, 871189, Note_on_c, 3, 57, 0
10, 871200, Note_on_c, 3, 45, 92
10, 871200, Note_on_c, 3, 57, 92
10, 871373, Note_on_c, 3, 45, 0
10, 871373, Note_on_c, 3, 57, 0
10, 871378, Control_c, 3, 11, 69
10, 871380, Note_on_c, 3, 57, 80
10, 871380, Note_on_c, 3, 45, 80
10, 871433, Note_on_c, 3, 57, 0
10, 871433, Note_on_c, 3, 45, 0
10, 871440, Note_on_c, 3, 57, 80
10, 871440, Note_on_c, 3, 45, 80
10, 871613, Note_on_c, 3, 57, 0
10, 871613, Note_on_c, 3, 45, 0
10, 871620, Note_on_c, 3, 45, 80
10, 871620, Note_on_c, 3, 57, 80
10, 871673, Note_on_c, 3, 45, 0
10, 871673, Note_on_c, 3, 57, 0
10, 871680, Note_on_c, 3, 45, 80
10, 871680, Control_c, 3, 11, 69
10, 871680, Note_on_c, 3, 57, 80
10, 871693, Control_c, 3, 11, 71
10, 871707, Control_c, 3, 11, 72
10, 871720, Control_c, 3, 11, 74
10, 871733, Control_c, 3, 11, 75
10, 871747, Control_c, 3, 11, 77
10, 871760, Control_c, 3, 11, 79
10, 871773, Control_c, 3, 11, 80
10, 871787, Control_c, 3, 11, 82
10, 871799, Note_on_c, 3, 45, 0
10, 871799, Note_on_c, 3, 57, 0
10, 871800, Note_on_c, 3, 64, 80
10, 871800, Control_c, 3, 11, 84
10, 871800, Note_on_c, 3, 61, 80
10, 871813, Control_c, 3, 11, 85
10, 871827, Control_c, 3, 11, 87
10, 871840, Control_c, 3, 11, 88
10, 871853, Control_c, 3, 11, 90
10, 871867, Control_c, 3, 11, 92
10, 871880, Control_c, 3, 11, 93
10, 871893, Control_c, 3, 11, 95
10, 871907, Control_c, 3, 11, 96
10, 871920, Control_c, 3, 11, 98
10, 871933, Control_c, 3, 11, 100
10, 871947, Control_c, 3, 11, 101
10, 871960, Control_c, 3, 11, 103
10, 871973, Control_c, 3, 11, 104
10, 871987, Control_c, 3, 11, 106
10, 872000, Control_c, 3, 11, 108
10, 872013, Control_c, 3, 11, 109
10, 872027, Control_c, 3, 11, 111
10, 872039, Note_on_c, 3, 64, 0
10, 872039, Note_on_c, 3, 61, 0
10, 872040, Note_on_c, 3, 66, 80
10, 872040, Control_c, 3, 11, 113
10, 872040, Note_on_c, 3, 62, 80
10, 872053, Control_c, 3, 11, 114
10, 872067, Control_c, 3, 11, 116
10, 872080, Control_c, 3, 11, 117
10, 872093, Control_c, 3, 11, 119
10, 872099, Note_on_c, 3, 66, 0
10, 872099, Note_on_c, 3, 62, 0
10, 872100, Note_on_c, 3, 67, 80
10, 872100, Note_on_c, 3, 64, 80
10, 872107, Control_c, 3, 11, 121
10, 872120, Control_c, 3, 11, 122
10, 872133, Control_c, 3, 11, 124
10, 872147, Control_c, 3, 11, 125
10, 872153, Note_on_c, 3, 67, 0
10, 872153, Note_on_c, 3, 64, 0
10, 872158, Control_c, 3, 11, 127
10, 872160, Note_on_c, 3, 62, 80
10, 872160, Note_on_c, 3, 50, 80
10, 872333, Note_on_c, 3, 62, 0
10, 872333, Note_on_c, 3, 50, 0
10, 872340, Note_on_c, 3, 62, 80
10, 872340, Note_on_c, 3, 50, 80
10, 872393, Note_on_c, 3, 62, 0
10, 872393, Note_on_c, 3, 50, 0
10, 872400, Note_on_c, 3, 55, 80
10, 872400, Note_on_c, 3, 43, 80
10, 872749, Note_on_c, 3, 55, 0
10, 872749, Note_on_c, 3, 43, 0
10, 872760, Note_on_c, 3, 57, 80
10, 872760, Note_on_c, 3, 45, 80
10, 872869, Note_on_c, 3, 57, 0
10, 872869, Note_on_c, 3, 45, 0
10, 872880, Note_on_c, 3, 45, 92
10, 872880, Note_on_c, 3, 57, 92
10, 872940, Control_c, 3, 11, 107
10, 873049, Note_on_c, 3, 45, 0
10, 873049, Note_on_c, 3, 57, 0
10, 873060, Note_on_c, 3, 45, 92
10, 873060, Note_on_c, 3, 57, 92
10, 873109, Note_on_c, 3, 45, 0
10, 873109, Note_on_c, 3, 57, 0
10, 873120, Note_on_c, 3, 45, 92
10, 873120, Note_on_c, 3, 57, 92
10, 873229, Note_on_c, 3, 45, 0
10, 873229, Note_on_c, 3, 57, 0
10, 873240, Note_on_c, 3, 38, 92
10, 873240, Note_on_c, 3, 50, 92
10, 873349, Note_on_c, 3, 38, 0
10, 873349, Note_on_c, 3, 50, 0
10, 873358, Control_c, 3, 11, 127
10, 873360, Note_on_c, 3, 57, 92
10, 873360, Note_on_c, 3, 45, 92
10, 873420, Control_c, 3, 11, 107
10, 873529, Note_on_c, 3, 57, 0
10, 873529, Note_on_c, 3, 45, 0
10, 873540, Note_on_c, 3, 57, 92
10, 873540, Note_on_c, 3, 45, 92
10, 873589, Note_on_c, 3, 57, 0
10, 873589, Note_on_c, 3, 45, 0
10, 873598, Control_c, 3, 11, 127
10, 873600, Note_on_c, 3, 57, 92
10, 873600, Note_on_c, 3, 50, 92
10, 874049, Note_on_c, 3, 57, 0
10, 874049, Note_on_c, 3, 50, 0
10, 874080, Note_on_c, 3, 50, 92
10, 874289, Note_on_c, 3, 50, 0
10, 874320, Note_on_c, 3, 54, 92
10, 874320, Note_on_c, 3, 57, 92
10, 874529, Note_on_c, 3, 54, 0
10, 874529, Note_on_c, 3, 57, 0
10, 874560, Note_on_c, 3, 66, 92
10, 874560, Note_on_c, 3, 57, 92
10, 874769, Note_on_c, 3, 66, 0
10, 874769, Note_on_c, 3, 57, 0
10, 874800, Note_on_c, 3, 64, 92
10, 874800, Note_on_c, 3, 55, 92
10, 875009, Note_on_c, 3, 64, 0
10, 875009, Note_on_c, 3, 55, 0
10, 875040, Note_on_c, 3, 62, 92
10, 875040, Note_on_c, 3, 54, 92
10, 875249, Note_on_c, 3, 62, 0
10, 875249, Note_on_c, 3, 54, 0
10, 875280, Note_on_c, 3, 54, 92
10, 875280, Note_on_c, 3, 62, 92
10, 875379, Note_on_c, 3, 54, 0
10, 875379, Note_on_c, 3, 62, 0
10, 875400, Note_on_c, 3, 52, 92
10, 875400, Note_on_c, 3, 61, 92
10, 875499, Note_on_c, 3, 52, 0
10, 875499, Note_on_c, 3, 61, 0
10, 875520, Note_on_c, 3, 54, 92
10, 875520, Note_on_c, 3, 62, 92
10, 875729, Note_on_c, 3, 54, 0
10, 875729, Note_on_c, 3, 62, 0
10, 875760, Note_on_c, 3, 54, 92
10, 875760, Note_on_c, 3, 62, 92
10, 875969, Note_on_c, 3, 54, 0
10, 875969, Note_on_c, 3, 62, 0
10, 876000, Note_on_c, 3, 55, 92
10, 876000, Note_on_c, 3, 64, 92
10, 876209, Note_on_c, 3, 55, 0
10, 876209, Note_on_c, 3, 64, 0
10, 876240, Note_on_c, 3, 57, 92
10, 876240, Note_on_c, 3, 66, 92
10, 876449, Note_on_c, 3, 57, 0
10, 876449, Note_on_c, 3, 66, 0
10, 876480, Note_on_c, 3, 57, 92
10, 876480, Note_on_c, 3, 66, 92
10, 876689, Note_on_c, 3, 57, 0
10, 876689, Note_on_c, 3, 66, 0
10, 876720, Note_on_c, 3, 64, 92
10, 876720, Note_on_c, 3, 55, 92
10, 876929, Note_on_c, 3, 64, 0
10, 876929, Note_on_c, 3, 55, 0
10, 876960, Note_on_c, 3, 54, 92
10, 876960, Note_on_c, 3, 62, 92
10, 877169, Note_on_c, 3, 54, 0
10, 877169, Note_on_c, 3, 62, 0
10, 877200, Note_on_c, 3, 62, 92
10, 877200, Note_on_c, 3, 54, 92
10, 877299, Note_on_c, 3, 62, 0
10, 877299, Note_on_c, 3, 54, 0
10, 877320, Note_on_c, 3, 52, 92
10, 877320, Note_on_c, 3, 61, 92
10, 877419, Note_on_c, 3, 52, 0
10, 877419, Note_on_c, 3, 61, 0
10, 877440, Note_on_c, 3, 62, 92
10, 877440, Note_on_c, 3, 54, 92
10, 877649, Note_on_c, 3, 62, 0
10, 877649, Note_on_c, 3, 54, 0
10, 877680, Note_on_c, 3, 61, 92
10, 877680, Note_on_c, 3, 52, 92
10, 877889, Note_on_c, 3, 61, 0
10, 877889, Note_on_c, 3, 52, 0
10, 877920, Note_on_c, 3, 62, 92
10, 877920, Note_on_c, 3, 54, 92
10, 878129, Note_on_c, 3, 62, 0
10, 878129, Note_on_c, 3, 54, 0
10, 878160, Note_on_c, 3, 52, 92
10, 878160, Note_on_c, 3, 61, 92
10, 878369, Note_on_c, 3, 52, 0
10, 878369, Note_on_c, 3, 61, 0
10, 878400, Note_on_c, 3, 54, 92
10, 878400, Note_on_c, 3, 62, 92
10, 878609, Note_on_c, 3, 54, 0
10, 878609, Note_on_c, 3, 62, 0
10, 878640, Note_on_c, 3, 52, 92
10, 878640, Note_on_c, 3, 61, 92
10, 878849, Note_on_c, 3, 52, 0
10, 878849, Note_on_c, 3, 61, 0
10, 878880, Note_on_c, 3, 62, 92
10, 878880, Note_on_c, 3, 54, 92
10, 879089, Note_on_c, 3, 62, 0
10, 879089, Note_on_c, 3, 54, 0
10, 879120, Note_on_c, 3, 61, 92
10, 879120, Note_on_c, 3, 64, 92
10, 879329, Note_on_c, 3, 61, 0
10, 879329, Note_on_c, 3, 64, 0
10, 879360, Note_on_c, 3, 66, 92
10, 879360, Note_on_c, 3, 62, 92
10, 879569, Note_on_c, 3, 66, 0
10, 879569, Note_on_c, 3, 62, 0
10, 879600, Note_on_c, 3, 61, 92
10, 879600, Note_on_c, 3, 64, 92
10, 879809, Note_on_c, 3, 61, 0
10, 879809, Note_on_c, 3, 64, 0
10, 879840, Note_on_c, 3, 62, 92
10, 879840, Note_on_c, 3, 66, 92
10, 880049, Note_on_c, 3, 62, 0
10, 880049, Note_on_c, 3, 66, 0
10, 880080, Note_on_c, 3, 52, 92
10, 880080, Note_on_c, 3, 55, 92
10, 880289, Note_on_c, 3, 52, 0
10, 880289, Note_on_c, 3, 55, 0
10, 880320, Note_on_c, 3, 55, 92
10, 880320, Note_on_c, 3, 52, 92
10, 880529, Note_on_c, 3, 55, 0
10, 880529, Note_on_c, 3, 52, 0
10, 880560, Note_on_c, 3, 50, 92
10, 880560, Note_on_c, 3, 54, 92
10, 880769, Note_on_c, 3, 50, 0
10, 880769, Note_on_c, 3, 54, 0
10, 880800, Note_on_c, 3, 52, 92
10, 880800, Note_on_c, 3, 55, 92
10, 881009, Note_on_c, 3, 52, 0
10, 881009, Note_on_c, 3, 55, 0
10, 881040, Note_on_c, 3, 54, 92
10, 881040, Note_on_c, 3, 57, 92
10, 881249, Note_on_c, 3, 54, 0
10, 881249, Note_on_c, 3, 57, 0
10, 881280, Note_on_c, 3, 57, 92
10, 881280, Note_on_c, 3, 66, 92
10, 881519, Note_on_c, 3, 57, 0
10, 881519, Note_on_c, 3, 66, 0
10, 881520, Note_on_c, 3, 54, 80
10, 881520, Note_on_c, 3, 57, 80
10, 881639, Note_on_c, 3, 54, 0
10, 881639, Note_on_c, 3, 57, 0
10, 881760, Note_on_c, 3, 57, 80
10, 881760, Note_on_c, 3, 66, 80
10, 881999, Note_on_c, 3, 57, 0
10, 881999, Note_on_c, 3, 66, 0
10, 882000, Note_on_c, 3, 57, 80
10, 882000, Note_on_c, 3, 54, 80
10, 882119, Note_on_c, 3, 57, 0
10, 882119, Note_on_c, 3, 54, 0
10, 882240, Note_on_c, 3, 66, 80
10, 882240, Note_on_c, 3, 57, 80
10, 882479, Note_on_c, 3, 66, 0
10, 882479, Note_on_c, 3, 57, 0
10, 882480, Note_on_c, 3, 54, 80
10, 882480, Note_on_c, 3, 57, 80
10, 882599, Note_on_c, 3, 54, 0
10, 882599, Note_on_c, 3, 57, 0
10, 882720, Note_on_c, 3, 66, 80
10, 882720, Note_on_c, 3, 57, 80
10, 882959, Note_on_c, 3, 66, 0
10, 882959, Note_on_c, 3, 57, 0
10, 882960, Note_on_c, 3, 57, 80
10, 882960, Note_on_c, 3, 54, 80
10, 883079, Note_on_c, 3, 57, 0
10, 883079, Note_on_c, 3, 54, 0
10, 883200, Note_on_c, 3, 66, 80
10, 883200, Note_on_c, 3, 57, 80
10, 883439, Note_on_c, 3, 66, 0
10, 883439, Note_on_c, 3, 57, 0
10, 883440, Note_on_c, 3, 57, 80
10, 883440, Note_on_c, 3, 54, 80
10, 883559, Note_on_c, 3, 57, 0
10, 883559, Note_on_c, 3, 54, 0
10, 883680, Note_on_c, 3, 66, 80
10, 883680, Note_on_c, 3, 57, 80
10, 883919, Note_on_c, 3, 66, 0
10, 883919, Note_on_c, 3, 57, 0
10, 883920, Note_on_c, 3, 57, 80
10, 883920, Note_on_c, 3, 54, 80
10, 884039, Note_on_c, 3, 57, 0
10, 884039, Note_on_c, 3, 54, 0
10, 884160, Note_on_c, 3, 66, 80
10, 884160, Note_on_c, 3, 57, 80
10, 884399, Note_on_c, 3, 66, 0
10, 884399, Note_on_c, 3, 57, 0
10, 884400, Note_on_c, 3, 57, 80
10, 884400, Note_on_c, 3, 54, 80
10, 884519, Note_on_c, 3, 57, 0
10, 884519, Note_on_c, 3, 54, 0
10, 884640, Note_on_c, 3, 57, 80
10, 884640, Note_on_c, 3, 66, 80
10, 884879, Note_on_c, 3, 57, 0
10, 884879, Note_on_c, 3, 66, 0
10, 884880, Note_on_c, 3, 54, 80
10, 884880, Note_on_c, 3, 57, 80
10, 884999, Note_on_c, 3, 54, 0
10, 884999, Note_on_c, 3, 57, 0
10, 885120, Note_on_c, 3, 66, 80
10, 885120, Note_on_c, 3, 57, 80
10, 885359, Note_on_c, 3, 66, 0
10, 885359, Note_on_c, 3, 57, 0
10, 885360, Note_on_c, 3, 57, 80
10, 885360, Note_on_c, 3, 54, 80
10, 885479, Note_on_c, 3, 57, 0
10, 885479, Note_on_c, 3, 54, 0
10, 885600, Note_on_c, 3, 66, 80
10, 885600, Note_on_c, 3, 57, 80
10, 885839, Note_on_c, 3, 66, 0
10, 885839, Note_on_c, 3, 57, 0
10, 885840, Note_on_c, 3, 54, 80
10, 885840, Note_on_c, 3, 57, 80
10, 885959, Note_on_c, 3, 54, 0
10, 885959, Note_on_c, 3, 57, 0
10, 886080, Note_on_c, 3, 66, 80
10, 886080, Note_on_c, 3, 57, 80
10, 886319, Note_on_c, 3, 66, 0
10, 886319, Note_on_c, 3, 57, 0
10, 886320, Note_on_c, 3, 54, 80
10, 886320, Note_on_c, 3, 57, 80
10, 886439, Note_on_c, 3, 54, 0
10, 886439, Note_on_c, 3, 57, 0
10, 886560, Note_on_c, 3, 66, 80
10, 886560, Note_on_c, 3, 57, 80
10, 886799, Note_on_c, 3, 66, 0
10, 886799, Note_on_c, 3, 57, 0
10, 886800, Note_on_c, 3, 54, 80
10, 886800, Note_on_c, 3, 57, 80
10, 886919, Note_on_c, 3, 54, 0
10, 886919, Note_on_c, 3, 57, 0
10, 887040, Note_on_c, 3, 57, 80
10, 887040, Note_on_c, 3, 66, 80
10, 887279, Note_on_c, 3, 57, 0
10, 887279, Note_on_c, 3, 66, 0
10, 887280, Note_on_c, 3, 54, 80
10, 887280, Note_on_c, 3, 57, 80
10, 887399, Note_on_c, 3, 54, 0
10, 887399, Note_on_c, 3, 57, 0
10, 887520, Note_on_c, 3, 57, 80
10, 887520, Note_on_c, 3, 66, 80
10, 887759, Note_on_c, 3, 57, 0
10, 887759, Note_on_c, 3, 66, 0
10, 887760, Note_on_c, 3, 54, 80
10, 887760, Note_on_c, 3, 57, 80
10, 887879, Note_on_c, 3, 54, 0
10, 887879, Note_on_c, 3, 57, 0
10, 888000, Note_on_c, 3, 66, 80
10, 888000, Note_on_c, 3, 57, 80
10, 888239, Note_on_c, 3, 66, 0
10, 888239, Note_on_c, 3, 57, 0
10, 888240, Note_on_c, 3, 54, 80
10, 888240, Note_on_c, 3, 57, 80
10, 888359, Note_on_c, 3, 54, 0
10, 888359, Note_on_c, 3, 57, 0
10, 888480, Note_on_c, 3, 57, 80
10, 888480, Note_on_c, 3, 66, 80
10, 888719, Note_on_c, 3, 57, 0
10, 888719, Note_on_c, 3, 66, 0
10, 888720, Note_on_c, 3, 54, 80
10, 888720, Note_on_c, 3, 57, 80
10, 888839, Note_on_c, 3, 54, 0
10, 888839, Note_on_c, 3, 57, 0
10, 888960, Note_on_c, 3, 57, 92
10, 888960, Note_on_c, 3, 45, 92
10, 889119, Note_on_c, 3, 57, 0
10, 889119, Note_on_c, 3, 45, 0
10, 889120, Note_on_c, 3, 47, 92
10, 889120, Note_on_c, 3, 59, 92
10, 889279, Note_on_c, 3, 47, 0
10, 889279, Note_on_c, 3, 59, 0
10, 889280, Note_on_c, 3, 49, 92
10, 889280, Note_on_c, 3, 61, 92
10, 889439, Note_on_c, 3, 49, 0
10, 889439, Note_on_c, 3, 61, 0
10, 889440, Note_on_c, 3, 50, 92
10, 889440, Note_on_c, 3, 62, 92
10, 889599, Note_on_c, 3, 50, 0
10, 889599, Note_on_c, 3, 62, 0
10, 889600, Note_on_c, 3, 52, 92
10, 889759, Note_on_c, 3, 52, 0
10, 889760, Note_on_c, 3, 54, 92
10, 889899, Note_on_c, 3, 54, 0
10, 889920, Note_on_c, 3, 55, 92
10, 890079, Note_on_c, 3, 55, 0
10, 890080, Note_on_c, 3, 54, 92
10, 890239, Note_on_c, 3, 54, 0
10, 890240, Note_on_c, 3, 55, 92
10, 890399, Note_on_c, 3, 55, 0
10, 890400, Note_on_c, 3, 57, 92
10, 890559, Note_on_c, 3, 57, 0
10, 890560, Note_on_c, 3, 59, 92
10, 890719, Note_on_c, 3, 59, 0
10, 890720, Note_on_c, 3, 61, 92
10, 890859, Note_on_c, 3, 61, 0
10, 890880, Note_on_c, 3, 50, 92
10, 890880, Note_on_c, 3, 62, 92
10, 891039, Note_on_c, 3, 50, 0
10, 891039, Note_on_c, 3, 62, 0
10, 891040, Note_on_c, 3, 61, 92
10, 891040, Note_on_c, 3, 49, 92
10, 891199, Note_on_c, 3, 61, 0
10, 891199, Note_on_c, 3, 49, 0
10, 891200, Note_on_c, 3, 62, 92
10, 891200, Note_on_c, 3, 50, 92
10, 891359, Note_on_c, 3, 62, 0
10, 891359, Note_on_c, 3, 50, 0
10, 891360, Note_on_c, 3, 52, 92
10, 891360, Note_on_c, 3, 64, 92
10, 891519, Note_on_c, 3, 52, 0
10, 891519, Note_on_c, 3, 64, 0
10, 891520, Note_on_c, 3, 54, 92
10, 891520, Note_on_c, 3, 66, 92
10, 891679, Note_on_c, 3, 54, 0
10, 891679, Note_on_c, 3, 66, 0
10, 891680, Note_on_c, 3, 55, 92
10, 891680, Note_on_c, 3, 67, 92
10, 891819, Note_on_c, 3, 55, 0
10, 891819, Note_on_c, 3, 67, 0
10, 891840, Note_on_c, 3, 57, 92
10, 891840, Note_on_c, 3, 69, 92
10, 892049, Note_on_c, 3, 57, 0
10, 892049, Note_on_c, 3, 69, 0
10, 892080, Note_on_c, 3, 57, 92
10, 892080, Note_on_c, 3, 69, 92
10, 892289, Note_on_c, 3, 57, 0
10, 892289, Note_on_c, 3, 69, 0
10, 892320, Note_on_c, 3, 57, 92
10, 892320, Note_on_c, 3, 69, 92
10, 892529, Note_on_c, 3, 57, 0
10, 892529, Note_on_c, 3, 69, 0
10, 892560, Note_on_c, 3, 69, 92
10, 892560, Note_on_c, 3, 57, 92
10, 892769, Note_on_c, 3, 69, 0
10, 892769, Note_on_c, 3, 57, 0
10, 892800, Note_on_c, 3, 62, 92
10, 892800, Note_on_c, 3, 50, 92
10, 893039, Note_on_c, 3, 62, 0
10, 893039, Note_on_c, 3, 50, 0
10, 893039, End_track
11, 0, Start_track
11, 0, Title_t, "Contrabassoon"
11, 0, MIDI_port, 0
11, 0, Program_c, 3, 70
11, 0, Note_on_c, 3, 29, 92
11, 1779, Note_on_c, 3, 29, 0
11, 1800, Note_on_c, 3, 41, 92
11, 1899, Note_on_c, 3, 41, 0
11, 1920, Note_on_c, 3, 41, 92
11, 2019, Note_on_c, 3, 41, 0
11, 2040, Note_on_c, 3, 33, 92
11, 2139, Note_on_c, 3, 33, 0
11, 2160, Note_on_c, 3, 33, 92
11, 2259, Note_on_c, 3, 33, 0
11, 2280, Note_on_c, 3, 38, 92
11, 2379, Note_on_c, 3, 38, 0
11, 2400, Note_on_c, 3, 38, 92
11, 2499, Note_on_c, 3, 38, 0
11, 2520, Note_on_c, 3, 29, 92
11, 2619, Note_on_c, 3, 29, 0
11, 2640, Note_on_c, 3, 29, 92
11, 2739, Note_on_c, 3, 29, 0
11, 2760, Note_on_c, 3, 33, 92
11, 2859, Note_on_c, 3, 33, 0
11, 2880, Note_on_c, 3, 33, 92
11, 2979, Note_on_c, 3, 33, 0
11, 3000, Note_on_c, 3, 26, 92
11, 3099, Note_on_c, 3, 26, 0
11, 3120, Note_on_c, 3, 26, 92
11, 3219, Note_on_c, 3, 26, 0
11, 3240, Note_on_c, 3, 38, 92
11, 3339, Note_on_c, 3, 38, 0
11, 3360, Note_on_c, 3, 38, 92
11, 3459, Note_on_c, 3, 38, 0
11, 3480, Note_on_c, 3, 36, 92
11, 3579, Note_on_c, 3, 36, 0
11, 3600, Note_on_c, 3, 36, 92
11, 3699, Note_on_c, 3, 36, 0
11, 3720, Note_on_c, 3, 35, 92
11, 3819, Note_on_c, 3, 35, 0
11, 3840, Note_on_c, 3, 35, 92
11, 3939, Note_on_c, 3, 35, 0
11, 3960, Note_on_c, 3, 34, 92
11, 4059, Note_on_c, 3, 34, 0
11, 4080, Note_on_c, 3, 34, 92
11, 4179, Note_on_c, 3, 34, 0
11, 4200, Note_on_c, 3, 34, 92
11, 4299, Note_on_c, 3, 34, 0
11, 4320, Note_on_c, 3, 34, 92
11, 4419, Note_on_c, 3, 34, 0
11, 4440, Note_on_c, 3, 46, 92
11, 4539, Note_on_c, 3, 46, 0
11, 4560, Note_on_c, 3, 46, 92
11, 4739, Note_on_c, 3, 46, 0
11, 4800, Note_on_c, 3, 45, 92
11, 4979, Note_on_c, 3, 45, 0
11, 12240, Note_on_c, 3, 30, 92
11, 12819, Note_on_c, 3, 30, 0
11, 12840, Note_on_c, 3, 45, 92
11, 12929, Note_on_c, 3, 45, 0
11, 12960, Note_on_c, 3, 45, 92
11, 13049, Note_on_c, 3, 45, 0
11, 13080, Note_on_c, 3, 48, 92
11, 13169, Note_on_c, 3, 48, 0
11, 13200, Note_on_c, 3, 48, 92
11, 13289, Note_on_c, 3, 48, 0
11, 13320, Note_on_c, 3, 42, 92
11, 13409, Note_on_c, 3, 42, 0
11, 13440, Note_on_c, 3, 42, 92
11, 13529, Note_on_c, 3, 42, 0
11, 13560, Note_on_c, 3, 45, 92
11, 13649, Note_on_c, 3, 45, 0
11, 13680, Note_on_c, 3, 45, 92
11, 13769, Note_on_c, 3, 45, 0
11, 13800, Note_on_c, 3, 36, 92
11, 13889, Note_on_c, 3, 36, 0
11, 13920, Note_on_c, 3, 36, 92
11, 14009, Note_on_c, 3, 36, 0
11, 14040, Note_on_c, 3, 39, 92
11, 14129, Note_on_c, 3, 39, 0
11, 14160, Note_on_c, 3, 39, 92
11, 14249, Note_on_c, 3, 39, 0
11, 14280, Note_on_c, 3, 33, 92
11, 14369, Note_on_c, 3, 33, 0
11, 14400, Note_on_c, 3, 33, 92
11, 14489, Note_on_c, 3, 33, 0
11, 14520, Note_on_c, 3, 36, 92
11, 14609, Note_on_c, 3, 36, 0
11, 14640, Note_on_c, 3, 36, 92
11, 14729, Note_on_c, 3, 36, 0
11, 14760, Note_on_c, 3, 30, 92
11, 14849, Note_on_c, 3, 30, 0
11, 14880, Note_on_c, 3, 30, 92
11, 14969, Note_on_c, 3, 30, 0
11, 15000, Note_on_c, 3, 33, 92
11, 15089, Note_on_c, 3, 33, 0
11, 15120, Note_on_c, 3, 33, 92
11, 15209, Note_on_c, 3, 33, 0
11, 15240, Note_on_c, 3, 30, 92
11, 15329, Note_on_c, 3, 30, 0
11, 15360, Note_on_c, 3, 30, 92
11, 15449, Note_on_c, 3, 30, 0
11, 15480, Note_on_c, 3, 36, 92
11, 15569, Note_on_c, 3, 36, 0
11, 15600, Note_on_c, 3, 36, 92
11, 15689, Note_on_c, 3, 36, 0
11, 15720, Note_on_c, 3, 34, 92
11, 15809, Note_on_c, 3, 34, 0
11, 15840, Note_on_c, 3, 34, 92
11, 15929, Note_on_c, 3, 34, 0
11, 15960, Note_on_c, 3, 33, 92
11, 16049, Note_on_c, 3, 33, 0
11, 16080, Note_on_c, 3, 33, 92
11, 16169, Note_on_c, 3, 33, 0
11, 16200, Note_on_c, 3, 31, 92
11, 16289, Note_on_c, 3, 31, 0
11, 16320, Note_on_c, 3, 31, 92
11, 16409, Note_on_c, 3, 31, 0
11, 16440, Note_on_c, 3, 30, 92
11, 16529, Note_on_c, 3, 30, 0
11, 16560, Note_on_c, 3, 30, 92
11, 16649, Note_on_c, 3, 30, 0
11, 16680, Note_on_c, 3, 30, 92
11, 16769, Note_on_c, 3, 30, 0
11, 16800, Note_on_c, 3, 30, 92
11, 17039, Note_on_c, 3, 30, 0
11, 17400, Note_on_c, 3, 29, 92
11, 17499, Note_on_c, 3, 29, 0
11, 17520, Note_on_c, 3, 29, 92
11, 17759, Note_on_c, 3, 29, 0
11, 20640, Note_on_c, 3, 34, 80
11, 20759, Note_on_c, 3, 34, 0
11, 20880, Note_on_c, 3, 34, 80
11, 20999, Note_on_c, 3, 34, 0
11, 21120, Note_on_c, 3, 37, 32
11, 23039, Note_on_c, 3, 37, 0
11, 23040, Note_on_c, 3, 37, 32
11, 24914, Note_on_c, 3, 37, 0
11, 24930, Note_on_c, 3, 33, 32
11, 24955, Note_on_c, 3, 33, 0
11, 24960, Note_on_c, 3, 30, 80
11, 25199, Note_on_c, 3, 30, 0
11, 57840, Note_on_c, 3, 40, 80
11, 58019, Note_on_c, 3, 40, 0
11, 58560, Note_on_c, 3, 37, 80
11, 58739, Note_on_c, 3, 37, 0
11, 59280, Note_on_c, 3, 31, 80
11, 59459, Note_on_c, 3, 31, 0
11, 60000, Note_on_c, 3, 30, 80
11, 60179, Note_on_c, 3, 30, 0
11, 62880, Note_on_c, 3, 31, 80
11, 63104, Note_on_c, 3, 31, 0
11, 63120, Note_on_c, 3, 43, 80
11, 63239, Note_on_c, 3, 43, 0
11, 64800, Note_on_c, 3, 33, 92
11, 65039, Note_on_c, 3, 33, 0
11, 65280, Note_on_c, 3, 26, 92
11, 65519, Note_on_c, 3, 26, 0
11, 134640, Note_on_c, 3, 50, 80
11, 134879, Note_on_c, 3, 50, 0
11, 135000, Note_on_c, 3, 38, 80
11, 135104, Note_on_c, 3, 38, 0
11, 135120, Note_on_c, 3, 50, 80
11, 135359, Note_on_c, 3, 50, 0
11, 135480, Note_on_c, 3, 38, 80
11, 135584, Note_on_c, 3, 38, 0
11, 135600, Note_on_c, 3, 45, 80
11, 135839, Note_on_c, 3, 45, 0
11, 135960, Note_on_c, 3, 33, 80
11, 136064, Note_on_c, 3, 33, 0
11, 136080, Note_on_c, 3, 45, 80
11, 136319, Note_on_c, 3, 45, 0
11, 136440, Note_on_c, 3, 33, 80
11, 136544, Note_on_c, 3, 33, 0
11, 136560, Note_on_c, 3, 38, 80
11, 136799, Note_on_c, 3, 38, 0
11, 137280, Note_on_c, 3, 38, 80
11, 137504, Note_on_c, 3, 38, 0
11, 137520, Note_on_c, 3, 45, 80
11, 137759, Note_on_c, 3, 45, 0
11, 138000, Note_on_c, 3, 33, 80
11, 138239, Note_on_c, 3, 33, 0
11, 138480, Note_on_c, 3, 50, 80
11, 138719, Note_on_c, 3, 50, 0
11, 138840, Note_on_c, 3, 38, 80
11, 138944, Note_on_c, 3, 38, 0
11, 138960, Note_on_c, 3, 50, 80
11, 139199, Note_on_c, 3, 50, 0
11, 139320, Note_on_c, 3, 38, 80
11, 139424, Note_on_c, 3, 38, 0
11, 139440, Note_on_c, 3, 45, 80
11, 139679, Note_on_c, 3, 45, 0
11, 139800, Note_on_c, 3, 33, 80
11, 139904, Note_on_c, 3, 33, 0
11, 139920, Note_on_c, 3, 45, 80
11, 140159, Note_on_c, 3, 45, 0
11, 140280, Note_on_c, 3, 33, 80
11, 140384, Note_on_c, 3, 33, 0
11, 140400, Note_on_c, 3, 38, 80
11, 140639, Note_on_c, 3, 38, 0
11, 141120, Note_on_c, 3, 38, 80
11, 141344, Note_on_c, 3, 38, 0
11, 141360, Note_on_c, 3, 33, 80
11, 141599, Note_on_c, 3, 33, 0
11, 142080, Note_on_c, 3, 38, 80
11, 142304, Note_on_c, 3, 38, 0
11, 142320, Note_on_c, 3, 33, 80
11, 142559, Note_on_c, 3, 33, 0
11, 142680, Note_on_c, 3, 33, 80
11, 142784, Note_on_c, 3, 33, 0
11, 142800, Note_on_c, 3, 45, 80
11, 143024, Note_on_c, 3, 45, 0
11, 143040, Note_on_c, 3, 38, 80
11, 143264, Note_on_c, 3, 38, 0
11, 143280, Note_on_c, 3, 33, 80
11, 143519, Note_on_c, 3, 33, 0
11, 143640, Note_on_c, 3, 33, 80
11, 143744, Note_on_c, 3, 33, 0
11, 143760, Note_on_c, 3, 45, 80
11, 143984, Note_on_c, 3, 45, 0
11, 144000, Note_on_c, 3, 38, 80
11, 144224, Note_on_c, 3, 38, 0
11, 144240, Note_on_c, 3, 33, 80
11, 144479, Note_on_c, 3, 33, 0
11, 144600, Note_on_c, 3, 45, 80
11, 144704, Note_on_c, 3, 45, 0
11, 144720, Note_on_c, 3, 46, 80
11, 144839, Note_on_c, 3, 46, 0
11, 144960, Note_on_c, 3, 42, 80
11, 145079, Note_on_c, 3, 42, 0
11, 145200, Note_on_c, 3, 47, 80
11, 145319, Note_on_c, 3, 47, 0
11, 145440, Note_on_c, 3, 40, 80
11, 145559, Note_on_c, 3, 40, 0
11, 145680, Note_on_c, 3, 45, 80
11, 145799, Note_on_c, 3, 45, 0
11, 145920, Note_on_c, 3, 33, 80
11, 146039, Note_on_c, 3, 33, 0
11, 146160, Note_on_c, 3, 50, 80
11, 146399, Note_on_c, 3, 50, 0
11, 146520, Note_on_c, 3, 38, 80
11, 146624, Note_on_c, 3, 38, 0
11, 146640, Note_on_c, 3, 50, 80
11, 146879, Note_on_c, 3, 50, 0
11, 147000, Note_on_c, 3, 38, 80
11, 147104, Note_on_c, 3, 38, 0
11, 147120, Note_on_c, 3, 45, 80
11, 147359, Note_on_c, 3, 45, 0
11, 147480, Note_on_c, 3, 33, 80
11, 147584, Note_on_c, 3, 33, 0
11, 147600, Note_on_c, 3, 45, 80
11, 147839, Note_on_c, 3, 45, 0
11, 147960, Note_on_c, 3, 33, 80
11, 148064, Note_on_c, 3, 33, 0
11, 148080, Note_on_c, 3, 38, 80
11, 148319, Note_on_c, 3, 38, 0
11, 148800, Note_on_c, 3, 38, 80
11, 149024, Note_on_c, 3, 38, 0
11, 149040, Note_on_c, 3, 33, 80
11, 149279, Note_on_c, 3, 33, 0
11, 149520, Note_on_c, 3, 38, 80
11, 149759, Note_on_c, 3, 38, 0
11, 150000, Note_on_c, 3, 33, 80
11, 150239, Note_on_c, 3, 33, 0
11, 150360, Note_on_c, 3, 33, 80
11, 150464, Note_on_c, 3, 33, 0
11, 150480, Note_on_c, 3, 45, 80
11, 150704, Note_on_c, 3, 45, 0
11, 150720, Note_on_c, 3, 38, 80
11, 150944, Note_on_c, 3, 38, 0
11, 150960, Note_on_c, 3, 33, 80
11, 151199, Note_on_c, 3, 33, 0
11, 151320, Note_on_c, 3, 33, 80
11, 151424, Note_on_c, 3, 33, 0
11, 151440, Note_on_c, 3, 45, 80
11, 151664, Note_on_c, 3, 45, 0
11, 151680, Note_on_c, 3, 38, 80
11, 151904, Note_on_c, 3, 38, 0
11, 151920, Note_on_c, 3, 33, 80
11, 152159, Note_on_c, 3, 33, 0
11, 152280, Note_on_c, 3, 45, 80
11, 152384, Note_on_c, 3, 45, 0
11, 152400, Note_on_c, 3, 46, 80
11, 152504, Note_on_c, 3, 46, 0
11, 152640, Note_on_c, 3, 42, 80
11, 152759, Note_on_c, 3, 42, 0
11, 152880, Note_on_c, 3, 47, 80
11, 152999, Note_on_c, 3, 47, 0
11, 153120, Note_on_c, 3, 40, 80
11, 153239, Note_on_c, 3, 40, 0
11, 153360, Note_on_c, 3, 45, 80
11, 153479, Note_on_c, 3, 45, 0
11, 153600, Note_on_c, 3, 33, 80
11, 153719, Note_on_c, 3, 33, 0
11, 153840, Note_on_c, 3, 50, 80
11, 154079, Note_on_c, 3, 50, 0
11, 154200, Note_on_c, 3, 38, 80
11, 154304, Note_on_c, 3, 38, 0
11, 154320, Note_on_c, 3, 50, 80
11, 154559, Note_on_c, 3, 50, 0
11, 154680, Note_on_c, 3, 38, 80
11, 154784, Note_on_c, 3, 38, 0
11, 154800, Note_on_c, 3, 45, 80
11, 155039, Note_on_c, 3, 45, 0
11, 155160, Note_on_c, 3, 33, 80
11, 155264, Note_on_c, 3, 33, 0
11, 155280, Note_on_c, 3, 45, 80
11, 155519, Note_on_c, 3, 45, 0
11, 155640, Note_on_c, 3, 33, 80
11, 155744, Note_on_c, 3, 33, 0
11, 155760, Note_on_c, 3, 38, 80
11, 155999, Note_on_c, 3, 38, 0
11, 156480, Note_on_c, 3, 38, 80
11, 156704, Note_on_c, 3, 38, 0
11, 156720, Note_on_c, 3, 33, 80
11, 156959, Note_on_c, 3, 33, 0
11, 157200, Note_on_c, 3, 38, 80
11, 157439, Note_on_c, 3, 38, 0
11, 157560, Note_on_c, 3, 38, 80
11, 157664, Note_on_c, 3, 38, 0
11, 157680, Note_on_c, 3, 50, 80
11, 157919, Note_on_c, 3, 50, 0
11, 158040, Note_on_c, 3, 38, 80
11, 158144, Note_on_c, 3, 38, 0
11, 158160, Note_on_c, 3, 50, 80
11, 158399, Note_on_c, 3, 50, 0
11, 158520, Note_on_c, 3, 38, 80
11, 158624, Note_on_c, 3, 38, 0
11, 158640, Note_on_c, 3, 43, 80
11, 158879, Note_on_c, 3, 43, 0
11, 159000, Note_on_c, 3, 31, 80
11, 159104, Note_on_c, 3, 31, 0
11, 159120, Note_on_c, 3, 43, 80
11, 159359, Note_on_c, 3, 43, 0
11, 159480, Note_on_c, 3, 31, 80
11, 159584, Note_on_c, 3, 31, 0
11, 159600, Note_on_c, 3, 43, 80
11, 159839, Note_on_c, 3, 43, 0
11, 159960, Note_on_c, 3, 31, 80
11, 160064, Note_on_c, 3, 31, 0
11, 160080, Note_on_c, 3, 45, 80
11, 160319, Note_on_c, 3, 45, 0
11, 160440, Note_on_c, 3, 33, 80
11, 160544, Note_on_c, 3, 33, 0
11, 160560, Note_on_c, 3, 50, 80
11, 160799, Note_on_c, 3, 50, 0
11, 160920, Note_on_c, 3, 38, 80
11, 161024, Note_on_c, 3, 38, 0
11, 161040, Note_on_c, 3, 42, 80
11, 161279, Note_on_c, 3, 42, 0
11, 161400, Note_on_c, 3, 30, 80
11, 161504, Note_on_c, 3, 30, 0
11, 161520, Note_on_c, 3, 43, 80
11, 161759, Note_on_c, 3, 43, 0
11, 161880, Note_on_c, 3, 31, 80
11, 161984, Note_on_c, 3, 31, 0
11, 162000, Note_on_c, 3, 45, 80
11, 162239, Note_on_c, 3, 45, 0
11, 162360, Note_on_c, 3, 45, 80
11, 162464, Note_on_c, 3, 45, 0
11, 162480, Note_on_c, 3, 46, 80
11, 162719, Note_on_c, 3, 46, 0
11, 162840, Note_on_c, 3, 34, 80
11, 162944, Note_on_c, 3, 34, 0
11, 162960, Note_on_c, 3, 47, 80
11, 163199, Note_on_c, 3, 47, 0
11, 163320, Note_on_c, 3, 35, 80
11, 163424, Note_on_c, 3, 35, 0
11, 163440, Note_on_c, 3, 48, 80
11, 163679, Note_on_c, 3, 48, 0
11, 163800, Note_on_c, 3, 36, 80
11, 163904, Note_on_c, 3, 36, 0
11, 163920, Note_on_c, 3, 49, 80
11, 164159, Note_on_c, 3, 49, 0
11, 164280, Note_on_c, 3, 37, 80
11, 164384, Note_on_c, 3, 37, 0
11, 164400, Note_on_c, 3, 49, 80
11, 164639, Note_on_c, 3, 49, 0
11, 164760, Note_on_c, 3, 37, 80
11, 164864, Note_on_c, 3, 37, 0
11, 164880, Note_on_c, 3, 50, 80
11, 165119, Note_on_c, 3, 50, 0
11, 165240, Note_on_c, 3, 51, 80
11, 165344, Note_on_c, 3, 51, 0
11, 165360, Note_on_c, 3, 52, 80
11, 165599, Note_on_c, 3, 52, 0
11, 165720, Note_on_c, 3, 53, 80
11, 165824, Note_on_c, 3, 53, 0
11, 165840, Note_on_c, 3, 54, 80
11, 166079, Note_on_c, 3, 54, 0
11, 166200, Note_on_c, 3, 54, 80
11, 166304, Note_on_c, 3, 54, 0
11, 166320, Note_on_c, 3, 56, 80
11, 166559, Note_on_c, 3, 56, 0
11, 166680, Note_on_c, 3, 44, 80
11, 166784, Note_on_c, 3, 44, 0
11, 166800, Note_on_c, 3, 56, 80
11, 167039, Note_on_c, 3, 56, 0
11, 167160, Note_on_c, 3, 44, 80
11, 167264, Note_on_c, 3, 44, 0
11, 167280, Note_on_c, 3, 56, 80
11, 167519, Note_on_c, 3, 56, 0
11, 167640, Note_on_c, 3, 44, 80
11, 167744, Note_on_c, 3, 44, 0
11, 167760, Note_on_c, 3, 56, 80
11, 167999, Note_on_c, 3, 56, 0
11, 168120, Note_on_c, 3, 44, 80
11, 168224, Note_on_c, 3, 44, 0
11, 168240, Note_on_c, 3, 45, 80
11, 168599, Note_on_c, 3, 45, 0
11, 168600, Note_on_c, 3, 47, 80
11, 168659, Note_on_c, 3, 47, 0
11, 168660, Note_on_c, 3, 49, 80
11, 168711, Note_on_c, 3, 49, 0
11, 168720, Note_on_c, 3, 50, 80
11, 169079, Note_on_c, 3, 50, 0
11, 169080, Note_on_c, 3, 49, 80
11, 169139, Note_on_c, 3, 49, 0
11, 169140, Note_on_c, 3, 47, 80
11, 169191, Note_on_c, 3, 47, 0
11, 169200, Note_on_c, 3, 49, 80
11, 169319, Note_on_c, 3, 49, 0
11, 169320, Note_on_c, 3, 47, 80
11, 169379, Note_on_c, 3, 47, 0
11, 169380, Note_on_c, 3, 45, 80
11, 169431, Note_on_c, 3, 45, 0
11, 169440, Note_on_c, 3, 43, 80
11, 169529, Note_on_c, 3, 43, 0
11, 169560, Note_on_c, 3, 42, 80
11, 169649, Note_on_c, 3, 42, 0
11, 169680, Note_on_c, 3, 42, 80
11, 169769, Note_on_c, 3, 42, 0
11, 169800, Note_on_c, 3, 41, 80
11, 169889, Note_on_c, 3, 41, 0
11, 169920, Note_on_c, 3, 40, 80
11, 170009, Note_on_c, 3, 40, 0
11, 170040, Note_on_c, 3, 40, 80
11, 170129, Note_on_c, 3, 40, 0
11, 170160, Note_on_c, 3, 45, 92
11, 170250, Control_c, 3, 11, 107
11, 170639, Note_on_c, 3, 45, 0
11, 170640, Note_on_c, 3, 40, 92
11, 170759, Note_on_c, 3, 40, 0
11, 170880, Note_on_c, 3, 40, 92
11, 170999, Note_on_c, 3, 40, 0
11, 171118, Control_c, 3, 11, 127
11, 171120, Note_on_c, 3, 33, 80
11, 171209, Note_on_c, 3, 33, 0
11, 171240, Note_on_c, 3, 33, 92
11, 171299, Note_on_c, 3, 33, 0
11, 171300, Note_on_c, 3, 35, 92
11, 171351, Note_on_c, 3, 35, 0
11, 171360, Note_on_c, 3, 37, 92
11, 171449, Note_on_c, 3, 37, 0
11, 171480, Note_on_c, 3, 37, 92
11, 171539, Note_on_c, 3, 37, 0
11, 171540, Note_on_c, 3, 38, 92
11, 171591, Note_on_c, 3, 38, 0
11, 171600, Note_on_c, 3, 40, 92
11, 171689, Note_on_c, 3, 40, 0
11, 171720, Note_on_c, 3, 40, 92
11, 171779, Note_on_c, 3, 40, 0
11, 171780, Note_on_c, 3, 42, 92
11, 171831, Note_on_c, 3, 42, 0
11, 171840, Note_on_c, 3, 44, 92
11, 171929, Note_on_c, 3, 44, 0
11, 171960, Note_on_c, 3, 40, 92
11, 171999, Note_on_c, 3, 40, 0
11, 172000, Note_on_c, 3, 42, 92
11, 172039, Note_on_c, 3, 42, 0
11, 172040, Note_on_c, 3, 44, 92
11, 172073, Note_on_c, 3, 44, 0
11, 174720, Note_on_c, 3, 44, 44
11, 174824, Note_on_c, 3, 44, 0
11, 174840, Note_on_c, 3, 44, 80
11, 174944, Note_on_c, 3, 44, 0
11, 174960, Note_on_c, 3, 45, 80
11, 175079, Note_on_c, 3, 45, 0
11, 175080, Note_on_c, 3, 49, 80
11, 175184, Note_on_c, 3, 49, 0
11, 175200, Note_on_c, 3, 54, 80
11, 175289, Note_on_c, 3, 54, 0
11, 175320, Note_on_c, 3, 51, 80
11, 175409, Note_on_c, 3, 51, 0
11, 175440, Note_on_c, 3, 52, 80
11, 175679, Note_on_c, 3, 52, 0
11, 175680, Note_on_c, 3, 40, 80
11, 175919, Note_on_c, 3, 40, 0
11, 176160, Note_on_c, 3, 40, 80
11, 176339, Note_on_c, 3, 40, 0
11, 176640, Note_on_c, 3, 45, 80
11, 176819, Note_on_c, 3, 45, 0
11, 177360, Note_on_c, 3, 29, 92
11, 177939, Note_on_c, 3, 29, 0
11, 177960, Note_on_c, 3, 45, 92
11, 178049, Note_on_c, 3, 45, 0
11, 178080, Note_on_c, 3, 45, 92
11, 178169, Note_on_c, 3, 45, 0
11, 178200, Note_on_c, 3, 50, 92
11, 178289, Note_on_c, 3, 50, 0
11, 178320, Note_on_c, 3, 50, 92
11, 178409, Note_on_c, 3, 50, 0
11, 178440, Note_on_c, 3, 41, 92
11, 178529, Note_on_c, 3, 41, 0
11, 178560, Note_on_c, 3, 41, 92
11, 178649, Note_on_c, 3, 41, 0
11, 178680, Note_on_c, 3, 45, 92
11, 178769, Note_on_c, 3, 45, 0
11, 178800, Note_on_c, 3, 45, 92
11, 178889, Note_on_c, 3, 45, 0
11, 178920, Note_on_c, 3, 38, 92
11, 179009, Note_on_c, 3, 38, 0
11, 179040, Note_on_c, 3, 38, 92
11, 179129, Note_on_c, 3, 38, 0
11, 179160, Note_on_c, 3, 41, 92
11, 179249, Note_on_c, 3, 41, 0
11, 179280, Note_on_c, 3, 41, 92
11, 179369, Note_on_c, 3, 41, 0
11, 179400, Note_on_c, 3, 33, 92
11, 179489, Note_on_c, 3, 33, 0
11, 179520, Note_on_c, 3, 33, 92
11, 179609, Note_on_c, 3, 33, 0
11, 179640, Note_on_c, 3, 38, 92
11, 179729, Note_on_c, 3, 38, 0
11, 179760, Note_on_c, 3, 38, 92
11, 179849, Note_on_c, 3, 38, 0
11, 179880, Note_on_c, 3, 29, 92
11, 179969, Note_on_c, 3, 29, 0
11, 180000, Note_on_c, 3, 29, 92
11, 180089, Note_on_c, 3, 29, 0
11, 180120, Note_on_c, 3, 33, 92
11, 180209, Note_on_c, 3, 33, 0
11, 180240, Note_on_c, 3, 33, 92
11, 180329, Note_on_c, 3, 33, 0
11, 180360, Note_on_c, 3, 26, 92
11, 180449, Note_on_c, 3, 26, 0
11, 180480, Note_on_c, 3, 26, 92
11, 180569, Note_on_c, 3, 26, 0
11, 180600, Note_on_c, 3, 38, 92
11, 180689, Note_on_c, 3, 38, 0
11, 180720, Note_on_c, 3, 38, 92
11, 180809, Note_on_c, 3, 38, 0
11, 180840, Note_on_c, 3, 36, 92
11, 180929, Note_on_c, 3, 36, 0
11, 180960, Note_on_c, 3, 36, 92
11, 181049, Note_on_c, 3, 36, 0
11, 181080, Note_on_c, 3, 35, 92
11, 181169, Note_on_c, 3, 35, 0
11, 181200, Note_on_c, 3, 35, 92
11, 181289, Note_on_c, 3, 35, 0
11, 181320, Note_on_c, 3, 34, 92
11, 181409, Note_on_c, 3, 34, 0
11, 181440, Note_on_c, 3, 34, 92
11, 181529, Note_on_c, 3, 34, 0
11, 181560, Note_on_c, 3, 34, 92
11, 181649, Note_on_c, 3, 34, 0
11, 181680, Note_on_c, 3, 34, 92
11, 181769, Note_on_c, 3, 34, 0
11, 181800, Note_on_c, 3, 34, 92
11, 181889, Note_on_c, 3, 34, 0
11, 181920, Note_on_c, 3, 34, 92
11, 182099, Note_on_c, 3, 34, 0
11, 182160, Note_on_c, 3, 33, 92
11, 182339, Note_on_c, 3, 33, 0
11, 192480, Note_on_c, 3, 31, 80
11, 192659, Note_on_c, 3, 31, 0
11, 192720, Note_on_c, 3, 30, 80
11, 192824, Note_on_c, 3, 30, 0
11, 192840, Note_on_c, 3, 30, 80
11, 192944, Note_on_c, 3, 30, 0
11, 192960, Note_on_c, 3, 42, 80
11, 193199, Note_on_c, 3, 42, 0
11, 195840, Note_on_c, 3, 31, 44
11, 195959, Note_on_c, 3, 31, 0
11, 196080, Note_on_c, 3, 43, 80
11, 196199, Note_on_c, 3, 43, 0
11, 197520, Note_on_c, 3, 33, 80
11, 197699, Note_on_c, 3, 33, 0
11, 270480, Note_on_c, 3, 33, 80
11, 270584, Note_on_c, 3, 33, 0
11, 270600, Note_on_c, 3, 45, 80
11, 270704, Note_on_c, 3, 45, 0
11, 270720, Note_on_c, 3, 33, 80
11, 270824, Note_on_c, 3, 33, 0
11, 270840, Note_on_c, 3, 45, 80
11, 270944, Note_on_c, 3, 45, 0
11, 270960, Note_on_c, 3, 33, 80
11, 271064, Note_on_c, 3, 33, 0
11, 271080, Note_on_c, 3, 45, 80
11, 271184, Note_on_c, 3, 45, 0
11, 271200, Note_on_c, 3, 33, 80
11, 271304, Note_on_c, 3, 33, 0
11, 271320, Note_on_c, 3, 45, 80
11, 271424, Note_on_c, 3, 45, 0
11, 271440, Note_on_c, 3, 33, 80
11, 271544, Note_on_c, 3, 33, 0
11, 271560, Note_on_c, 3, 45, 80
11, 271664, Note_on_c, 3, 45, 0
11, 271680, Note_on_c, 3, 33, 80
11, 271784, Note_on_c, 3, 33, 0
11, 271800, Note_on_c, 3, 45, 80
11, 271904, Note_on_c, 3, 45, 0
11, 271920, Note_on_c, 3, 33, 80
11, 272024, Note_on_c, 3, 33, 0
11, 272040, Note_on_c, 3, 45, 80
11, 272144, Note_on_c, 3, 45, 0
11, 272160, Note_on_c, 3, 33, 80
11, 272264, Note_on_c, 3, 33, 0
11, 272280, Note_on_c, 3, 45, 80
11, 272384, Note_on_c, 3, 45, 0
11, 272400, Note_on_c, 3, 33, 80
11, 272504, Note_on_c, 3, 33, 0
11, 272520, Note_on_c, 3, 45, 80
11, 272624, Note_on_c, 3, 45, 0
11, 272640, Note_on_c, 3, 33, 80
11, 272744, Note_on_c, 3, 33, 0
11, 272760, Note_on_c, 3, 45, 80
11, 272864, Note_on_c, 3, 45, 0
11, 272880, Note_on_c, 3, 33, 80
11, 272984, Note_on_c, 3, 33, 0
11, 273000, Note_on_c, 3, 45, 80
11, 273104, Note_on_c, 3, 45, 0
11, 273120, Note_on_c, 3, 33, 80
11, 273224, Note_on_c, 3, 33, 0
11, 273240, Note_on_c, 3, 45, 80
11, 273344, Note_on_c, 3, 45, 0
11, 273360, Note_on_c, 3, 33, 80
11, 273464, Note_on_c, 3, 33, 0
11, 273480, Note_on_c, 3, 45, 80
11, 273584, Note_on_c, 3, 45, 0
11, 273600, Note_on_c, 3, 33, 80
11, 273704, Note_on_c, 3, 33, 0
11, 273720, Note_on_c, 3, 45, 80
11, 273824, Note_on_c, 3, 45, 0
11, 273840, Note_on_c, 3, 33, 80
11, 273944, Note_on_c, 3, 33, 0
11, 273960, Note_on_c, 3, 45, 80
11, 274064, Note_on_c, 3, 45, 0
11, 274080, Note_on_c, 3, 33, 80
11, 274184, Note_on_c, 3, 33, 0
11, 274200, Note_on_c, 3, 45, 80
11, 274304, Note_on_c, 3, 45, 0
11, 274320, Note_on_c, 3, 26, 80
11, 274424, Note_on_c, 3, 26, 0
11, 274440, Note_on_c, 3, 33, 80
11, 274544, Note_on_c, 3, 33, 0
11, 274560, Note_on_c, 3, 26, 80
11, 274664, Note_on_c, 3, 26, 0
11, 274680, Note_on_c, 3, 33, 80
11, 274784, Note_on_c, 3, 33, 0
11, 274800, Note_on_c, 3, 26, 80
11, 274904, Note_on_c, 3, 26, 0
11, 274920, Note_on_c, 3, 33, 80
11, 275024, Note_on_c, 3, 33, 0
11, 275040, Note_on_c, 3, 26, 80
11, 275144, Note_on_c, 3, 26, 0
11, 275160, Note_on_c, 3, 33, 80
11, 275264, Note_on_c, 3, 33, 0
11, 275280, Note_on_c, 3, 26, 80
11, 275384, Note_on_c, 3, 26, 0
11, 275400, Note_on_c, 3, 33, 80
11, 275504, Note_on_c, 3, 33, 0
11, 275520, Note_on_c, 3, 26, 80
11, 275624, Note_on_c, 3, 26, 0
11, 275640, Note_on_c, 3, 33, 80
11, 275744, Note_on_c, 3, 33, 0
11, 275760, Note_on_c, 3, 26, 80
11, 275864, Note_on_c, 3, 26, 0
11, 275880, Note_on_c, 3, 33, 80
11, 275984, Note_on_c, 3, 33, 0
11, 276000, Note_on_c, 3, 26, 80
11, 276104, Note_on_c, 3, 26, 0
11, 276120, Note_on_c, 3, 33, 80
11, 276224, Note_on_c, 3, 33, 0
11, 276240, Note_on_c, 3, 26, 80
11, 276344, Note_on_c, 3, 26, 0
11, 276360, Note_on_c, 3, 33, 80
11, 276464, Note_on_c, 3, 33, 0
11, 276480, Note_on_c, 3, 26, 80
11, 276584, Note_on_c, 3, 26, 0
11, 276600, Note_on_c, 3, 33, 80
11, 276704, Note_on_c, 3, 33, 0
11, 276720, Note_on_c, 3, 26, 80
11, 276824, Note_on_c, 3, 26, 0
11, 276840, Note_on_c, 3, 33, 80
11, 276944, Note_on_c, 3, 33, 0
11, 276960, Note_on_c, 3, 50, 92
11, 277199, Note_on_c, 3, 50, 0
11, 277440, Note_on_c, 3, 50, 92
11, 277679, Note_on_c, 3, 50, 0
11, 277800, Note_on_c, 3, 50, 92
11, 277904, Note_on_c, 3, 50, 0
11, 277920, Note_on_c, 3, 50, 92
11, 278159, Note_on_c, 3, 50, 0
11, 278400, Note_on_c, 3, 50, 92
11, 278759, Note_on_c, 3, 50, 0
11, 278880, Note_on_c, 3, 50, 92
11, 279239, Note_on_c, 3, 50, 0
11, 279360, Note_on_c, 3, 43, 92
11, 279719, Note_on_c, 3, 43, 0
11, 279840, Note_on_c, 3, 43, 92
11, 280199, Note_on_c, 3, 43, 0
11, 280320, Note_on_c, 3, 45, 92
11, 280679, Note_on_c, 3, 45, 0
11, 280800, Note_on_c, 3, 45, 92
11, 281159, Note_on_c, 3, 45, 0
11, 281280, Note_on_c, 3, 50, 92
11, 282224, Note_on_c, 3, 50, 0
11, 282240, Note_on_c, 3, 40, 92
11, 282599, Note_on_c, 3, 40, 0
11, 282720, Note_on_c, 3, 40, 92
11, 283079, Note_on_c, 3, 40, 0
11, 283200, Note_on_c, 3, 45, 92
11, 283251, Note_on_c, 3, 45, 0
11, 283260, Note_on_c, 3, 47, 92
11, 283311, Note_on_c, 3, 47, 0
11, 283320, Note_on_c, 3, 45, 92
11, 283371, Note_on_c, 3, 45, 0
11, 283380, Note_on_c, 3, 44, 92
11, 283431, Note_on_c, 3, 44, 0
11, 283440, Note_on_c, 3, 42, 92
11, 283491, Note_on_c, 3, 42, 0
11, 283500, Note_on_c, 3, 44, 92
11, 283551, Note_on_c, 3, 44, 0
11, 283560, Note_on_c, 3, 42, 92
11, 283611, Note_on_c, 3, 42, 0
11, 283620, Note_on_c, 3, 40, 92
11, 283671, Note_on_c, 3, 40, 0
11, 283680, Note_on_c, 3, 38, 92
11, 283731, Note_on_c, 3, 38, 0
11, 283740, Note_on_c, 3, 40, 92
11, 283791, Note_on_c, 3, 40, 0
11, 283800, Note_on_c, 3, 38, 92
11, 283851, Note_on_c, 3, 38, 0
11, 283860, Note_on_c, 3, 37, 92
11, 283911, Note_on_c, 3, 37, 0
11, 283920, Note_on_c, 3, 35, 92
11, 283971, Note_on_c, 3, 35, 0
11, 283980, Note_on_c, 3, 37, 92
11, 284031, Note_on_c, 3, 37, 0
11, 284040, Note_on_c, 3, 35, 92
11, 284091, Note_on_c, 3, 35, 0
11, 284100, Note_on_c, 3, 33, 92
11, 284151, Note_on_c, 3, 33, 0
11, 284160, Note_on_c, 3, 40, 92
11, 284519, Note_on_c, 3, 40, 0
11, 284640, Note_on_c, 3, 40, 92
11, 284999, Note_on_c, 3, 40, 0
11, 285120, Note_on_c, 3, 45, 92
11, 285171, Note_on_c, 3, 45, 0
11, 285180, Note_on_c, 3, 47, 92
11, 285231, Note_on_c, 3, 47, 0
11, 285240, Note_on_c, 3, 45, 92
11, 285291, Note_on_c, 3, 45, 0
11, 285300, Note_on_c, 3, 44, 92
11, 285351, Note_on_c, 3, 44, 0
11, 285360, Note_on_c, 3, 42, 92
11, 285411, Note_on_c, 3, 42, 0
11, 285420, Note_on_c, 3, 44, 92
11, 285471, Note_on_c, 3, 44, 0
11, 285480, Note_on_c, 3, 42, 92
11, 285531, Note_on_c, 3, 42, 0
11, 285540, Note_on_c, 3, 40, 92
11, 285591, Note_on_c, 3, 40, 0
11, 285600, Note_on_c, 3, 38, 92
11, 285651, Note_on_c, 3, 38, 0
11, 285660, Note_on_c, 3, 40, 92
11, 285711, Note_on_c, 3, 40, 0
11, 285720, Note_on_c, 3, 38, 92
11, 285771, Note_on_c, 3, 38, 0
11, 285780, Note_on_c, 3, 37, 92
11, 285831, Note_on_c, 3, 37, 0
11, 285840, Note_on_c, 3, 35, 92
11, 285891, Note_on_c, 3, 35, 0
11, 285900, Note_on_c, 3, 37, 92
11, 285951, Note_on_c, 3, 37, 0
11, 285960, Note_on_c, 3, 35, 92
11, 286011, Note_on_c, 3, 35, 0
11, 286020, Note_on_c, 3, 33, 92
11, 286071, Note_on_c, 3, 33, 0
11, 286080, Note_on_c, 3, 33, 92
11, 286439, Note_on_c, 3, 33, 0
11, 286560, Note_on_c, 3, 45, 92
11, 286919, Note_on_c, 3, 45, 0
11, 287040, Note_on_c, 3, 29, 92
11, 288959, Note_on_c, 3, 29, 0
11, 289320, Note_on_c, 3, 34, 32
11, 289559, Note_on_c, 3, 34, 0
11, 290760, Note_on_c, 3, 34, 32
11, 290999, Note_on_c, 3, 34, 0
11, 292200, Note_on_c, 3, 34, 32
11, 292439, Note_on_c, 3, 34, 0
11, 292920, Note_on_c, 3, 34, 32
11, 293159, Note_on_c, 3, 34, 0
11, 293640, Note_on_c, 3, 34, 32
11, 293879, Note_on_c, 3, 34, 0
11, 294360, Note_on_c, 3, 34, 32
11, 294599, Note_on_c, 3, 34, 0
11, 295080, Note_on_c, 3, 34, 32
11, 295319, Note_on_c, 3, 34, 0
11, 295800, Note_on_c, 3, 34, 32
11, 296039, Note_on_c, 3, 34, 0
11, 296520, Note_on_c, 3, 34, 32
11, 296759, Note_on_c, 3, 34, 0
11, 297240, Note_on_c, 3, 34, 32
11, 297479, Note_on_c, 3, 34, 0
11, 297600, Note_on_c, 3, 34, 32
11, 297839, Note_on_c, 3, 34, 0
11, 297960, Note_on_c, 3, 46, 32
11, 298199, Note_on_c, 3, 46, 0
11, 298320, Note_on_c, 3, 34, 32
11, 298559, Note_on_c, 3, 34, 0
11, 298680, Note_on_c, 3, 46, 32
11, 298919, Note_on_c, 3, 46, 0
11, 299040, Note_on_c, 3, 29, 32
11, 299279, Note_on_c, 3, 29, 0
11, 299400, Note_on_c, 3, 41, 32
11, 299639, Note_on_c, 3, 41, 0
11, 299760, Note_on_c, 3, 29, 32
11, 299999, Note_on_c, 3, 29, 0
11, 300120, Note_on_c, 3, 41, 32
11, 300359, Note_on_c, 3, 41, 0
11, 300480, Note_on_c, 3, 34, 32
11, 300719, Note_on_c, 3, 34, 0
11, 300840, Note_on_c, 3, 46, 32
11, 301079, Note_on_c, 3, 46, 0
11, 301200, Note_on_c, 3, 34, 32
11, 301439, Note_on_c, 3, 34, 0
11, 301560, Note_on_c, 3, 46, 32
11, 301799, Note_on_c, 3, 46, 0
11, 301920, Note_on_c, 3, 29, 32
11, 302159, Note_on_c, 3, 29, 0
11, 302280, Note_on_c, 3, 41, 32
11, 302519, Note_on_c, 3, 41, 0
11, 302640, Note_on_c, 3, 29, 32
11, 302879, Note_on_c, 3, 29, 0
11, 303000, Note_on_c, 3, 41, 32
11, 303239, Note_on_c, 3, 41, 0
11, 303360, Note_on_c, 3, 34, 32
11, 303599, Note_on_c, 3, 34, 0
11, 303720, Note_on_c, 3, 46, 32
11, 303959, Note_on_c, 3, 46, 0
11, 304080, Note_on_c, 3, 34, 32
11, 304319, Note_on_c, 3, 34, 0
11, 304440, Note_on_c, 3, 46, 32
11, 304679, Note_on_c, 3, 46, 0
11, 304800, Note_on_c, 3, 29, 32
11, 305039, Note_on_c, 3, 29, 0
11, 305160, Note_on_c, 3, 33, 32
11, 305384, Note_on_c, 3, 33, 0
11, 305400, Note_on_c, 3, 36, 32
11, 305504, Note_on_c, 3, 36, 0
11, 305520, Note_on_c, 3, 41, 32
11, 305744, Note_on_c, 3, 41, 0
11, 305760, Note_on_c, 3, 29, 32
11, 305864, Note_on_c, 3, 29, 0
11, 305880, Note_on_c, 3, 31, 32
11, 306104, Note_on_c, 3, 31, 0
11, 306120, Note_on_c, 3, 33, 32
11, 306224, Note_on_c, 3, 33, 0
11, 306240, Note_on_c, 3, 34, 32
11, 306479, Note_on_c, 3, 34, 0
11, 306600, Note_on_c, 3, 46, 32
11, 306839, Note_on_c, 3, 46, 0
11, 306960, Note_on_c, 3, 34, 32
11, 307199, Note_on_c, 3, 34, 0
11, 307320, Note_on_c, 3, 46, 32
11, 307559, Note_on_c, 3, 46, 0
11, 307680, Note_on_c, 3, 29, 32
11, 307919, Note_on_c, 3, 29, 0
11, 308040, Note_on_c, 3, 41, 32
11, 308279, Note_on_c, 3, 41, 0
11, 308400, Note_on_c, 3, 34, 32
11, 308639, Note_on_c, 3, 34, 0
11, 309120, Note_on_c, 3, 29, 32
11, 309359, Note_on_c, 3, 29, 0
11, 309480, Note_on_c, 3, 41, 32
11, 309719, Note_on_c, 3, 41, 0
11, 309840, Note_on_c, 3, 29, 32
11, 310079, Note_on_c, 3, 29, 0
11, 310200, Note_on_c, 3, 34, 32
11, 310439, Note_on_c, 3, 34, 0
11, 310560, Note_on_c, 3, 29, 32
11, 310799, Note_on_c, 3, 29, 0
11, 310920, Note_on_c, 3, 41, 32
11, 311159, Note_on_c, 3, 41, 0
11, 311280, Note_on_c, 3, 29, 32
11, 311519, Note_on_c, 3, 29, 0
11, 311640, Note_on_c, 3, 34, 32
11, 311879, Note_on_c, 3, 34, 0
11, 312000, Note_on_c, 3, 29, 32
11, 312239, Note_on_c, 3, 29, 0
11, 312360, Note_on_c, 3, 34, 32
11, 312599, Note_on_c, 3, 34, 0
11, 312720, Note_on_c, 3, 29, 32
11, 312959, Note_on_c, 3, 29, 0
11, 313080, Note_on_c, 3, 41, 32
11, 313319, Note_on_c, 3, 41, 0
11, 313440, Note_on_c, 3, 36, 32
11, 313679, Note_on_c, 3, 36, 0
11, 313800, Note_on_c, 3, 48, 32
11, 314039, Note_on_c, 3, 48, 0
11, 314160, Note_on_c, 3, 39, 32
11, 314519, Note_on_c, 3, 39, 0
11, 314520, Note_on_c, 3, 38, 32
11, 314759, Note_on_c, 3, 38, 0
11, 314760, Note_on_c, 3, 36, 32
11, 314864, Note_on_c, 3, 36, 0
11, 314880, Note_on_c, 3, 34, 32
11, 315119, Note_on_c, 3, 34, 0
11, 315240, Note_on_c, 3, 46, 32
11, 315479, Note_on_c, 3, 46, 0
11, 315600, Note_on_c, 3, 32, 32
11, 315839, Note_on_c, 3, 32, 0
11, 315960, Note_on_c, 3, 44, 32
11, 316199, Note_on_c, 3, 44, 0
11, 316320, Note_on_c, 3, 31, 32
11, 316559, Note_on_c, 3, 31, 0
11, 316680, Note_on_c, 3, 43, 32
11, 316919, Note_on_c, 3, 43, 0
11, 317040, Note_on_c, 3, 27, 32
11, 317279, Note_on_c, 3, 27, 0
11, 317400, Note_on_c, 3, 28, 32
11, 317639, Note_on_c, 3, 28, 0
11, 317760, Note_on_c, 3, 29, 32
11, 317999, Note_on_c, 3, 29, 0
11, 318120, Note_on_c, 3, 41, 32
11, 318359, Note_on_c, 3, 41, 0
11, 318480, Note_on_c, 3, 29, 32
11, 318719, Note_on_c, 3, 29, 0
11, 318840, Note_on_c, 3, 41, 32
11, 319079, Note_on_c, 3, 41, 0
11, 319200, Note_on_c, 3, 29, 32
11, 319439, Note_on_c, 3, 29, 0
11, 319560, Note_on_c, 3, 41, 32
11, 319799, Note_on_c, 3, 41, 0
11, 319920, Note_on_c, 3, 34, 32
11, 320159, Note_on_c, 3, 34, 0
11, 355200, Note_on_c, 3, 34, 92
11, 355439, Note_on_c, 3, 34, 0
11, 355560, Note_on_c, 3, 46, 92
11, 355799, Note_on_c, 3, 46, 0
11, 355920, Note_on_c, 3, 34, 92
11, 356159, Note_on_c, 3, 34, 0
11, 356280, Note_on_c, 3, 46, 92
11, 356519, Note_on_c, 3, 46, 0
11, 356640, Note_on_c, 3, 27, 92
11, 356879, Note_on_c, 3, 27, 0
11, 357000, Note_on_c, 3, 39, 92
11, 357239, Note_on_c, 3, 39, 0
11, 357360, Note_on_c, 3, 27, 92
11, 357599, Note_on_c, 3, 27, 0
11, 357720, Note_on_c, 3, 39, 92
11, 357959, Note_on_c, 3, 39, 0
11, 358080, Note_on_c, 3, 29, 92
11, 358319, Note_on_c, 3, 29, 0
11, 358440, Note_on_c, 3, 41, 92
11, 358679, Note_on_c, 3, 41, 0
11, 358800, Note_on_c, 3, 29, 92
11, 359039, Note_on_c, 3, 29, 0
11, 359160, Note_on_c, 3, 41, 92
11, 359399, Note_on_c, 3, 41, 0
11, 359520, Note_on_c, 3, 34, 92
11, 359759, Note_on_c, 3, 34, 0
11, 359880, Note_on_c, 3, 29, 92
11, 360119, Note_on_c, 3, 29, 0
11, 360240, Note_on_c, 3, 34, 92
11, 360479, Note_on_c, 3, 34, 0
11, 360600, Note_on_c, 3, 29, 92
11, 360839, Note_on_c, 3, 29, 0
11, 360960, Note_on_c, 3, 38, 92
11, 361199, Note_on_c, 3, 38, 0
11, 492480, Note_on_c, 3, 43, 80
11, 492659, Note_on_c, 3, 43, 0
11, 492720, Note_on_c, 3, 43, 80
11, 492839, Note_on_c, 3, 43, 0
11, 492840, Note_on_c, 3, 45, 80
11, 492959, Note_on_c, 3, 45, 0
11, 492960, Note_on_c, 3, 47, 80
11, 493139, Note_on_c, 3, 47, 0
11, 493200, Note_on_c, 3, 47, 80
11, 493319, Note_on_c, 3, 47, 0
11, 493320, Note_on_c, 3, 48, 80
11, 493439, Note_on_c, 3, 48, 0
11, 493440, Note_on_c, 3, 50, 80
11, 493619, Note_on_c, 3, 50, 0
11, 493680, Note_on_c, 3, 50, 80
11, 493799, Note_on_c, 3, 50, 0
11, 493800, Note_on_c, 3, 52, 80
11, 493919, Note_on_c, 3, 52, 0
11, 493920, Note_on_c, 3, 50, 80
11, 494099, Note_on_c, 3, 50, 0
11, 494160, Note_on_c, 3, 50, 80
11, 494279, Note_on_c, 3, 50, 0
11, 494280, Note_on_c, 3, 38, 80
11, 494619, Note_on_c, 3, 38, 0
11, 494640, Note_on_c, 3, 38, 80
11, 494759, Note_on_c, 3, 38, 0
11, 494760, Note_on_c, 3, 40, 80
11, 494879, Note_on_c, 3, 40, 0
11, 494880, Note_on_c, 3, 38, 80
11, 495219, Note_on_c, 3, 38, 0
11, 495240, Note_on_c, 3, 40, 80
11, 495359, Note_on_c, 3, 40, 0
11, 495360, Note_on_c, 3, 36, 80
11, 495539, Note_on_c, 3, 36, 0
11, 495600, Note_on_c, 3, 48, 80
11, 495719, Note_on_c, 3, 48, 0
11, 495720, Note_on_c, 3, 47, 80
11, 495839, Note_on_c, 3, 47, 0
11, 495840, Note_on_c, 3, 48, 80
11, 496019, Note_on_c, 3, 48, 0
11, 496080, Note_on_c, 3, 50, 80
11, 496199, Note_on_c, 3, 50, 0
11, 496200, Note_on_c, 3, 48, 80
11, 496559, Note_on_c, 3, 48, 0
11, 496560, Note_on_c, 3, 47, 80
11, 496679, Note_on_c, 3, 47, 0
11, 496680, Note_on_c, 3, 45, 80
11, 496799, Note_on_c, 3, 45, 0
11, 496800, Note_on_c, 3, 43, 80
11, 496979, Note_on_c, 3, 43, 0
11, 497040, Note_on_c, 3, 43, 80
11, 497159, Note_on_c, 3, 43, 0
11, 497160, Note_on_c, 3, 45, 80
11, 497279, Note_on_c, 3, 45, 0
11, 497280, Note_on_c, 3, 43, 80
11, 497459, Note_on_c, 3, 43, 0
11, 497520, Note_on_c, 3, 31, 80
11, 497639, Note_on_c, 3, 31, 0
11, 497640, Note_on_c, 3, 43, 80
11, 497759, Note_on_c, 3, 43, 0
11, 497760, Note_on_c, 3, 45, 80
11, 497939, Note_on_c, 3, 45, 0
11, 498000, Note_on_c, 3, 45, 80
11, 498119, Note_on_c, 3, 45, 0
11, 498120, Note_on_c, 3, 47, 80
11, 498239, Note_on_c, 3, 47, 0
11, 498240, Note_on_c, 3, 45, 80
11, 498419, Note_on_c, 3, 45, 0
11, 498480, Note_on_c, 3, 33, 80
11, 498599, Note_on_c, 3, 33, 0
11, 498600, Note_on_c, 3, 35, 80
11, 498719, Note_on_c, 3, 35, 0
11, 498720, Note_on_c, 3, 33, 80
11, 498899, Note_on_c, 3, 33, 0
11, 498960, Note_on_c, 3, 45, 80
11, 499079, Note_on_c, 3, 45, 0
11, 499080, Note_on_c, 3, 43, 80
11, 499199, Note_on_c, 3, 43, 0
11, 499200, Note_on_c, 3, 47, 80
11, 499379, Note_on_c, 3, 47, 0
11, 499440, Note_on_c, 3, 48, 80
11, 499559, Note_on_c, 3, 48, 0
11, 499560, Note_on_c, 3, 47, 80
11, 499679, Note_on_c, 3, 47, 0
11, 499680, Note_on_c, 3, 48, 80
11, 499859, Note_on_c, 3, 48, 0
11, 499920, Note_on_c, 3, 36, 80
11, 500039, Note_on_c, 3, 36, 0
11, 500040, Note_on_c, 3, 35, 80
11, 500159, Note_on_c, 3, 35, 0
11, 500160, Note_on_c, 3, 36, 80
11, 500339, Note_on_c, 3, 36, 0
11, 500400, Note_on_c, 3, 48, 80
11, 500519, Note_on_c, 3, 48, 0
11, 500520, Note_on_c, 3, 47, 80
11, 500639, Note_on_c, 3, 47, 0
11, 500640, Note_on_c, 3, 48, 92
11, 500819, Note_on_c, 3, 48, 0
11, 500880, Note_on_c, 3, 36, 92
11, 500999, Note_on_c, 3, 36, 0
11, 501000, Note_on_c, 3, 35, 92
11, 501119, Note_on_c, 3, 35, 0
11, 501120, Note_on_c, 3, 36, 92
11, 501299, Note_on_c, 3, 36, 0
11, 501360, Note_on_c, 3, 48, 92
11, 501479, Note_on_c, 3, 48, 0
11, 501480, Note_on_c, 3, 47, 92
11, 501599, Note_on_c, 3, 47, 0
11, 501600, Note_on_c, 3, 48, 92
11, 501779, Note_on_c, 3, 48, 0
11, 501840, Note_on_c, 3, 36, 92
11, 501959, Note_on_c, 3, 36, 0
11, 501960, Note_on_c, 3, 48, 92
11, 502059, Note_on_c, 3, 48, 0
11, 502080, Note_on_c, 3, 50, 92
11, 503519, Note_on_c, 3, 50, 0
11, 515040, Note_on_c, 3, 41, 80
11, 515279, Note_on_c, 3, 41, 0
11, 515280, Note_on_c, 3, 43, 80
11, 515399, Note_on_c, 3, 43, 0
11, 515400, Note_on_c, 3, 41, 80
11, 515759, Note_on_c, 3, 41, 0
11, 515760, Note_on_c, 3, 43, 80
11, 515879, Note_on_c, 3, 43, 0
11, 515880, Note_on_c, 3, 41, 80
11, 516239, Note_on_c, 3, 41, 0
11, 516240, Note_on_c, 3, 43, 80
11, 516359, Note_on_c, 3, 43, 0
11, 516360, Note_on_c, 3, 41, 80
11, 516459, Note_on_c, 3, 41, 0
11, 516480, Note_on_c, 3, 45, 80
11, 516719, Note_on_c, 3, 45, 0
11, 516720, Note_on_c, 3, 46, 80
11, 516839, Note_on_c, 3, 46, 0
11, 516840, Note_on_c, 3, 45, 80
11, 516939, Note_on_c, 3, 45, 0
11, 516960, Note_on_c, 3, 46, 80
11, 517199, Note_on_c, 3, 46, 0
11, 517200, Note_on_c, 3, 48, 80
11, 517319, Note_on_c, 3, 48, 0
11, 517320, Note_on_c, 3, 46, 80
11, 517679, Note_on_c, 3, 46, 0
11, 517680, Note_on_c, 3, 48, 80
11, 517799, Note_on_c, 3, 48, 0
11, 517800, Note_on_c, 3, 46, 80
11, 518159, Note_on_c, 3, 46, 0
11, 518160, Note_on_c, 3, 48, 80
11, 518279, Note_on_c, 3, 48, 0
11, 518280, Note_on_c, 3, 46, 80
11, 518639, Note_on_c, 3, 46, 0
11, 518640, Note_on_c, 3, 48, 80
11, 518759, Note_on_c, 3, 48, 0
11, 518760, Note_on_c, 3, 46, 80
11, 519119, Note_on_c, 3, 46, 0
11, 519120, Note_on_c, 3, 48, 80
11, 519239, Note_on_c, 3, 48, 0
11, 519240, Note_on_c, 3, 46, 80
11, 519599, Note_on_c, 3, 46, 0
11, 519600, Note_on_c, 3, 48, 80
11, 519719, Note_on_c, 3, 48, 0
11, 519720, Note_on_c, 3, 46, 80
11, 520079, Note_on_c, 3, 46, 0
11, 520080, Note_on_c, 3, 48, 80
11, 520199, Note_on_c, 3, 48, 0
11, 520200, Note_on_c, 3, 46, 80
11, 520559, Note_on_c, 3, 46, 0
11, 520560, Note_on_c, 3, 48, 80
11, 520679, Note_on_c, 3, 48, 0
11, 520680, Note_on_c, 3, 46, 80
11, 521039, Note_on_c, 3, 46, 0
11, 521040, Note_on_c, 3, 48, 80
11, 521159, Note_on_c, 3, 48, 0
11, 521160, Note_on_c, 3, 46, 80
11, 521259, Note_on_c, 3, 46, 0
11, 521280, Note_on_c, 3, 46, 80
11, 521519, Note_on_c, 3, 46, 0
11, 521520, Note_on_c, 3, 34, 80
11, 521639, Note_on_c, 3, 34, 0
11, 521640, Note_on_c, 3, 46, 80
11, 521739, Note_on_c, 3, 46, 0
11, 521760, Note_on_c, 3, 48, 80
11, 521999, Note_on_c, 3, 48, 0
11, 522000, Note_on_c, 3, 36, 80
11, 522119, Note_on_c, 3, 36, 0
11, 522120, Note_on_c, 3, 48, 80
11, 522479, Note_on_c, 3, 48, 0
11, 522480, Note_on_c, 3, 36, 80
11, 522599, Note_on_c, 3, 36, 0
11, 522600, Note_on_c, 3, 48, 80
11, 522959, Note_on_c, 3, 48, 0
11, 522960, Note_on_c, 3, 36, 80
11, 523079, Note_on_c, 3, 36, 0
11, 523080, Note_on_c, 3, 48, 80
11, 523179, Note_on_c, 3, 48, 0
11, 523200, Note_on_c, 3, 48, 80
11, 523439, Note_on_c, 3, 48, 0
11, 523440, Note_on_c, 3, 36, 80
11, 523559, Note_on_c, 3, 36, 0
11, 523560, Note_on_c, 3, 48, 80
11, 523919, Note_on_c, 3, 48, 0
11, 523920, Note_on_c, 3, 50, 80
11, 524039, Note_on_c, 3, 50, 0
11, 524040, Note_on_c, 3, 48, 80
11, 524399, Note_on_c, 3, 48, 0
11, 524400, Note_on_c, 3, 50, 80
11, 524519, Note_on_c, 3, 50, 0
11, 524520, Note_on_c, 3, 48, 80
11, 524619, Note_on_c, 3, 48, 0
11, 524640, Note_on_c, 3, 52, 80
11, 524879, Note_on_c, 3, 52, 0
11, 524880, Note_on_c, 3, 53, 80
11, 524999, Note_on_c, 3, 53, 0
11, 525000, Note_on_c, 3, 52, 80
11, 525099, Note_on_c, 3, 52, 0
11, 525120, Note_on_c, 3, 55, 80
11, 525359, Note_on_c, 3, 55, 0
11, 525360, Note_on_c, 3, 57, 80
11, 525479, Note_on_c, 3, 57, 0
11, 525480, Note_on_c, 3, 55, 80
11, 525579, Note_on_c, 3, 55, 0
11, 525600, Note_on_c, 3, 55, 80
11, 525839, Note_on_c, 3, 55, 0
11, 526080, Note_on_c, 3, 31, 92
11, 526319, Note_on_c, 3, 31, 0
11, 579840, Note_on_c, 3, 49, 92
11, 579959, Note_on_c, 3, 49, 0
11, 579960, Note_on_c, 3, 40, 92
11, 580079, Note_on_c, 3, 40, 0
11, 580080, Note_on_c, 3, 42, 92
11, 580199, Note_on_c, 3, 42, 0
11, 580200, Note_on_c, 3, 44, 92
11, 580319, Note_on_c, 3, 44, 0
11, 580320, Note_on_c, 3, 45, 92
11, 580439, Note_on_c, 3, 45, 0
11, 580440, Note_on_c, 3, 47, 92
11, 580539, Note_on_c, 3, 47, 0
11, 580560, Note_on_c, 3, 49, 92
11, 580679, Note_on_c, 3, 49, 0
11, 580680, Note_on_c, 3, 47, 92
11, 580799, Note_on_c, 3, 47, 0
11, 580800, Note_on_c, 3, 45, 92
11, 580919, Note_on_c, 3, 45, 0
11, 580920, Note_on_c, 3, 47, 92
11, 581039, Note_on_c, 3, 47, 0
11, 581040, Note_on_c, 3, 49, 92
11, 581159, Note_on_c, 3, 49, 0
11, 581160, Note_on_c, 3, 50, 92
11, 581259, Note_on_c, 3, 50, 0
11, 581280, Note_on_c, 3, 52, 92
11, 581399, Note_on_c, 3, 52, 0
11, 581400, Note_on_c, 3, 54, 92
11, 581519, Note_on_c, 3, 54, 0
11, 581520, Note_on_c, 3, 52, 92
11, 581639, Note_on_c, 3, 52, 0
11, 581640, Note_on_c, 3, 50, 92
11, 581759, Note_on_c, 3, 50, 0
11, 581760, Note_on_c, 3, 52, 92
11, 581879, Note_on_c, 3, 52, 0
11, 581880, Note_on_c, 3, 50, 92
11, 581979, Note_on_c, 3, 50, 0
11, 582000, Note_on_c, 3, 49, 92
11, 582119, Note_on_c, 3, 49, 0
11, 582120, Note_on_c, 3, 50, 92
11, 582239, Note_on_c, 3, 50, 0
11, 582240, Note_on_c, 3, 49, 92
11, 582359, Note_on_c, 3, 49, 0
11, 582360, Note_on_c, 3, 47, 92
11, 582479, Note_on_c, 3, 47, 0
11, 582480, Note_on_c, 3, 49, 92
11, 582599, Note_on_c, 3, 49, 0
11, 582600, Note_on_c, 3, 47, 92
11, 582699, Note_on_c, 3, 47, 0
11, 582720, Note_on_c, 3, 45, 92
11, 582839, Note_on_c, 3, 45, 0
11, 582840, Note_on_c, 3, 37, 92
11, 582959, Note_on_c, 3, 37, 0
11, 582960, Note_on_c, 3, 38, 92
11, 583079, Note_on_c, 3, 38, 0
11, 583080, Note_on_c, 3, 40, 92
11, 583199, Note_on_c, 3, 40, 0
11, 583200, Note_on_c, 3, 42, 92
11, 583319, Note_on_c, 3, 42, 0
11, 583320, Note_on_c, 3, 44, 92
11, 583419, Note_on_c, 3, 44, 0
11, 583440, Note_on_c, 3, 45, 92
11, 583559, Note_on_c, 3, 45, 0
11, 583560, Note_on_c, 3, 44, 92
11, 583679, Note_on_c, 3, 44, 0
11, 583680, Note_on_c, 3, 42, 92
11, 583799, Note_on_c, 3, 42, 0
11, 583800, Note_on_c, 3, 44, 92
11, 583919, Note_on_c, 3, 44, 0
11, 583920, Note_on_c, 3, 45, 92
11, 584039, Note_on_c, 3, 45, 0
11, 584040, Note_on_c, 3, 47, 92
11, 584139, Note_on_c, 3, 47, 0
11, 584160, Note_on_c, 3, 49, 92
11, 584279, Note_on_c, 3, 49, 0
11, 584280, Note_on_c, 3, 50, 92
11, 584399, Note_on_c, 3, 50, 0
11, 584400, Note_on_c, 3, 49, 92
11, 584519, Note_on_c, 3, 49, 0
11, 584520, Note_on_c, 3, 47, 92
11, 584639, Note_on_c, 3, 47, 0
11, 584640, Note_on_c, 3, 49, 92
11, 584759, Note_on_c, 3, 49, 0
11, 584760, Note_on_c, 3, 47, 92
11, 584859, Note_on_c, 3, 47, 0
11, 584880, Note_on_c, 3, 45, 92
11, 584999, Note_on_c, 3, 45, 0
11, 585000, Note_on_c, 3, 47, 92
11, 585119, Note_on_c, 3, 47, 0
11, 585120, Note_on_c, 3, 45, 92
11, 585239, Note_on_c, 3, 45, 0
11, 585240, Note_on_c, 3, 43, 92
11, 585359, Note_on_c, 3, 43, 0
11, 585360, Note_on_c, 3, 45, 92
11, 585479, Note_on_c, 3, 45, 0
11, 585480, Note_on_c, 3, 43, 92
11, 585579, Note_on_c, 3, 43, 0
11, 585600, Note_on_c, 3, 42, 92
11, 585719, Note_on_c, 3, 42, 0
11, 585720, Note_on_c, 3, 33, 92
11, 585839, Note_on_c, 3, 33, 0
11, 585840, Note_on_c, 3, 35, 92
11, 585959, Note_on_c, 3, 35, 0
11, 585960, Note_on_c, 3, 37, 92
11, 586079, Note_on_c, 3, 37, 0
11, 586080, Note_on_c, 3, 38, 92
11, 586199, Note_on_c, 3, 38, 0
11, 586200, Note_on_c, 3, 40, 92
11, 586299, Note_on_c, 3, 40, 0
11, 586320, Note_on_c, 3, 42, 92
11, 586439, Note_on_c, 3, 42, 0
11, 586440, Note_on_c, 3, 40, 92
11, 586559, Note_on_c, 3, 40, 0
11, 586560, Note_on_c, 3, 38, 92
11, 586679, Note_on_c, 3, 38, 0
11, 586680, Note_on_c, 3, 40, 92
11, 586799, Note_on_c, 3, 40, 0
11, 586800, Note_on_c, 3, 42, 92
11, 586919, Note_on_c, 3, 42, 0
11, 586920, Note_on_c, 3, 44, 92
11, 587019, Note_on_c, 3, 44, 0
11, 587040, Note_on_c, 3, 45, 92
11, 587159, Note_on_c, 3, 45, 0
11, 587160, Note_on_c, 3, 47, 92
11, 587279, Note_on_c, 3, 47, 0
11, 587280, Note_on_c, 3, 45, 92
11, 587399, Note_on_c, 3, 45, 0
11, 587400, Note_on_c, 3, 43, 92
11, 587519, Note_on_c, 3, 43, 0
11, 587520, Note_on_c, 3, 45, 92
11, 587639, Note_on_c, 3, 45, 0
11, 587640, Note_on_c, 3, 43, 92
11, 587739, Note_on_c, 3, 43, 0
11, 587760, Note_on_c, 3, 42, 92
11, 587879, Note_on_c, 3, 42, 0
11, 587880, Note_on_c, 3, 43, 92
11, 587999, Note_on_c, 3, 43, 0
11, 588000, Note_on_c, 3, 42, 92
11, 588119, Note_on_c, 3, 42, 0
11, 588120, Note_on_c, 3, 40, 92
11, 588239, Note_on_c, 3, 40, 0
11, 588240, Note_on_c, 3, 42, 92
11, 588359, Note_on_c, 3, 42, 0
11, 588360, Note_on_c, 3, 40, 92
11, 588459, Note_on_c, 3, 40, 0
11, 588480, Note_on_c, 3, 38, 92
11, 588599, Note_on_c, 3, 38, 0
11, 588600, Note_on_c, 3, 40, 92
11, 588719, Note_on_c, 3, 40, 0
11, 588720, Note_on_c, 3, 38, 92
11, 588839, Note_on_c, 3, 38, 0
11, 588840, Note_on_c, 3, 37, 92
11, 588959, Note_on_c, 3, 37, 0
11, 588960, Note_on_c, 3, 38, 92
11, 589079, Note_on_c, 3, 38, 0
11, 589080, Note_on_c, 3, 37, 92
11, 589179, Note_on_c, 3, 37, 0
11, 589200, Note_on_c, 3, 35, 92
11, 589319, Note_on_c, 3, 35, 0
11, 589320, Note_on_c, 3, 37, 92
11, 589439, Note_on_c, 3, 37, 0
11, 589440, Note_on_c, 3, 35, 92
11, 589559, Note_on_c, 3, 35, 0
11, 589560, Note_on_c, 3, 33, 92
11, 589679, Note_on_c, 3, 33, 0
11, 589680, Note_on_c, 3, 35, 92
11, 589799, Note_on_c, 3, 35, 0
11, 589800, Note_on_c, 3, 33, 92
11, 589899, Note_on_c, 3, 33, 0
11, 589920, Note_on_c, 3, 38, 92
11, 590039, Note_on_c, 3, 38, 0
11, 590040, Note_on_c, 3, 33, 92
11, 590159, Note_on_c, 3, 33, 0
11, 590160, Note_on_c, 3, 35, 92
11, 590279, Note_on_c, 3, 35, 0
11, 590280, Note_on_c, 3, 37, 92
11, 590399, Note_on_c, 3, 37, 0
11, 590400, Note_on_c, 3, 38, 92
11, 590519, Note_on_c, 3, 38, 0
11, 590520, Note_on_c, 3, 37, 92
11, 590619, Note_on_c, 3, 37, 0
11, 590640, Note_on_c, 3, 38, 92
11, 590759, Note_on_c, 3, 38, 0
11, 590760, Note_on_c, 3, 42, 92
11, 590879, Note_on_c, 3, 42, 0
11, 590880, Note_on_c, 3, 45, 92
11, 590999, Note_on_c, 3, 45, 0
11, 591000, Note_on_c, 3, 49, 92
11, 591099, Note_on_c, 3, 49, 0
11, 591120, Note_on_c, 3, 50, 92
11, 592059, Note_on_c, 3, 50, 0
11, 592080, Note_on_c, 3, 50, 80
11, 592779, Note_on_c, 3, 50, 0
11, 592800, Note_on_c, 3, 49, 80
11, 593499, Note_on_c, 3, 49, 0
11, 593520, Note_on_c, 3, 45, 80
11, 594219, Note_on_c, 3, 45, 0
11, 594240, Note_on_c, 3, 47, 80
11, 594939, Note_on_c, 3, 47, 0
11, 594960, Note_on_c, 3, 47, 80
11, 595659, Note_on_c, 3, 47, 0
11, 595680, Note_on_c, 3, 45, 80
11, 596379, Note_on_c, 3, 45, 0
11, 596400, Note_on_c, 3, 42, 80
11, 597099, Note_on_c, 3, 42, 0
11, 597120, Note_on_c, 3, 43, 80
11, 597819, Note_on_c, 3, 43, 0
11, 597840, Note_on_c, 3, 43, 80
11, 598539, Note_on_c, 3, 43, 0
11, 598560, Note_on_c, 3, 42, 80
11, 599259, Note_on_c, 3, 42, 0
11, 599280, Note_on_c, 3, 38, 80
11, 599979, Note_on_c, 3, 38, 0
11, 600000, Note_on_c, 3, 47, 80
11, 600699, Note_on_c, 3, 47, 0
11, 600720, Note_on_c, 3, 47, 80
11, 601419, Note_on_c, 3, 47, 0
11, 601440, Note_on_c, 3, 45, 92
11, 601899, Note_on_c, 3, 45, 0
11, 601920, Note_on_c, 3, 49, 92
11, 602619, Note_on_c, 3, 49, 0
11, 602640, Note_on_c, 3, 47, 92
11, 602859, Note_on_c, 3, 47, 0
11, 602880, Note_on_c, 3, 45, 92
11, 603579, Note_on_c, 3, 45, 0
11, 603600, Note_on_c, 3, 47, 92
11, 604059, Note_on_c, 3, 47, 0
11, 604080, Note_on_c, 3, 49, 92
11, 604299, Note_on_c, 3, 49, 0
11, 604320, Note_on_c, 3, 40, 92
11, 606219, Note_on_c, 3, 40, 0
11, 606240, Note_on_c, 3, 38, 92
11, 606459, Note_on_c, 3, 38, 0
11, 606480, Note_on_c, 3, 50, 92
11, 606939, Note_on_c, 3, 50, 0
11, 606960, Note_on_c, 3, 45, 92
11, 607179, Note_on_c, 3, 45, 0
11, 607200, Note_on_c, 3, 45, 92
11, 608619, Note_on_c, 3, 45, 0
11, 608640, Note_on_c, 3, 47, 92
11, 609339, Note_on_c, 3, 47, 0
11, 609360, Note_on_c, 3, 40, 92
11, 610059, Note_on_c, 3, 40, 0
11, 610080, Note_on_c, 3, 42, 92
11, 610539, Note_on_c, 3, 42, 0
11, 610560, Note_on_c, 3, 52, 92
11, 610779, Note_on_c, 3, 52, 0
11, 610800, Note_on_c, 3, 50, 92
11, 611259, Note_on_c, 3, 50, 0
11, 611280, Note_on_c, 3, 49, 92
11, 611499, Note_on_c, 3, 49, 0
11, 611520, Note_on_c, 3, 47, 92
11, 611759, Note_on_c, 3, 47, 0
11, 611760, Note_on_c, 3, 45, 92
11, 612219, Note_on_c, 3, 45, 0
11, 612240, Note_on_c, 3, 45, 92
11, 612939, Note_on_c, 3, 45, 0
11, 612960, Note_on_c, 3, 46, 92
11, 613659, Note_on_c, 3, 46, 0
11, 613680, Note_on_c, 3, 42, 92
11, 614379, Note_on_c, 3, 42, 0
11, 614400, Note_on_c, 3, 52, 92
11, 615099, Note_on_c, 3, 52, 0
11, 615120, Note_on_c, 3, 52, 92
11, 615819, Note_on_c, 3, 52, 0
11, 615840, Note_on_c, 3, 51, 92
11, 616559, Note_on_c, 3, 51, 0
11, 617280, Note_on_c, 3, 47, 80
11, 617979, Note_on_c, 3, 47, 0
11, 618000, Note_on_c, 3, 47, 80
11, 618699, Note_on_c, 3, 47, 0
11, 618720, Note_on_c, 3, 47, 80
11, 619419, Note_on_c, 3, 47, 0
11, 619440, Note_on_c, 3, 40, 80
11, 620139, Note_on_c, 3, 40, 0
11, 620160, Note_on_c, 3, 50, 80
11, 620859, Note_on_c, 3, 50, 0
11, 620880, Note_on_c, 3, 49, 80
11, 621579, Note_on_c, 3, 49, 0
11, 621600, Note_on_c, 3, 50, 80
11, 622319, Note_on_c, 3, 50, 0
11, 624480, Note_on_c, 3, 45, 80
11, 624579, Note_on_c, 3, 45, 0
11, 624600, Note_on_c, 3, 33, 80
11, 624699, Note_on_c, 3, 33, 0
11, 624720, Note_on_c, 3, 45, 80
11, 624819, Note_on_c, 3, 45, 0
11, 624840, Note_on_c, 3, 45, 80
11, 624939, Note_on_c, 3, 45, 0
11, 624960, Note_on_c, 3, 45, 80
11, 625199, Note_on_c, 3, 45, 0
11, 627360, Note_on_c, 3, 50, 80
11, 627459, Note_on_c, 3, 50, 0
11, 627480, Note_on_c, 3, 38, 80
11, 627579, Note_on_c, 3, 38, 0
11, 627600, Note_on_c, 3, 38, 80
11, 627699, Note_on_c, 3, 38, 0
11, 627720, Note_on_c, 3, 50, 80
11, 627819, Note_on_c, 3, 50, 0
11, 627840, Note_on_c, 3, 45, 80
11, 628079, Note_on_c, 3, 45, 0
11, 629520, Note_on_c, 3, 40, 80
11, 629979, Note_on_c, 3, 40, 0
11, 630000, Note_on_c, 3, 40, 80
11, 630219, Note_on_c, 3, 40, 0
11, 630240, Note_on_c, 3, 35, 80
11, 630699, Note_on_c, 3, 35, 0
11, 630720, Note_on_c, 3, 35, 80
11, 630959, Note_on_c, 3, 35, 0
11, 630960, Note_on_c, 3, 37, 80
11, 631439, Note_on_c, 3, 37, 0
11, 631440, Note_on_c, 3, 38, 80
11, 631659, Note_on_c, 3, 38, 0
11, 631680, Note_on_c, 3, 40, 80
11, 632159, Note_on_c, 3, 40, 0
11, 632160, Note_on_c, 3, 42, 80
11, 632399, Note_on_c, 3, 42, 0
11, 632400, Note_on_c, 3, 44, 80
11, 632879, Note_on_c, 3, 44, 0
11, 632880, Note_on_c, 3, 40, 80
11, 633099, Note_on_c, 3, 40, 0
11, 633120, Note_on_c, 3, 47, 80
11, 633599, Note_on_c, 3, 47, 0
11, 633600, Note_on_c, 3, 45, 80
11, 633839, Note_on_c, 3, 45, 0
11, 633840, Note_on_c, 3, 47, 80
11, 634319, Note_on_c, 3, 47, 0
11, 634320, Note_on_c, 3, 49, 80
11, 634559, Note_on_c, 3, 49, 0
11, 636720, Note_on_c, 3, 47, 92
11, 638139, Note_on_c, 3, 47, 0
11, 638160, Note_on_c, 3, 47, 80
11, 638859, Note_on_c, 3, 47, 0
11, 638880, Note_on_c, 3, 46, 80
11, 639579, Note_on_c, 3, 46, 0
11, 639600, Note_on_c, 3, 42, 80
11, 640299, Note_on_c, 3, 42, 0
11, 640320, Note_on_c, 3, 50, 80
11, 641019, Note_on_c, 3, 50, 0
11, 641040, Note_on_c, 3, 47, 80
11, 641739, Note_on_c, 3, 47, 0
11, 641760, Note_on_c, 3, 49, 80
11, 642459, Note_on_c, 3, 49, 0
11, 642480, Note_on_c, 3, 49, 80
11, 643179, Note_on_c, 3, 49, 0
11, 643200, Note_on_c, 3, 42, 80
11, 643899, Note_on_c, 3, 42, 0
11, 643920, Note_on_c, 3, 42, 80
11, 644619, Note_on_c, 3, 42, 0
11, 644640, Note_on_c, 3, 47, 80
11, 645359, Note_on_c, 3, 47, 0
11, 646080, Note_on_c, 3, 35, 80
11, 646199, Note_on_c, 3, 35, 0
11, 646200, Note_on_c, 3, 30, 80
11, 646319, Note_on_c, 3, 30, 0
11, 646320, Note_on_c, 3, 32, 80
11, 646439, Note_on_c, 3, 32, 0
11, 646440, Note_on_c, 3, 34, 80
11, 646559, Note_on_c, 3, 34, 0
11, 646560, Note_on_c, 3, 35, 80
11, 646679, Note_on_c, 3, 35, 0
11, 646680, Note_on_c, 3, 37, 80
11, 646779, Note_on_c, 3, 37, 0
11, 646800, Note_on_c, 3, 38, 80
11, 646919, Note_on_c, 3, 38, 0
11, 646920, Note_on_c, 3, 37, 80
11, 647039, Note_on_c, 3, 37, 0
11, 647040, Note_on_c, 3, 35, 80
11, 647159, Note_on_c, 3, 35, 0
11, 647160, Note_on_c, 3, 37, 80
11, 647279, Note_on_c, 3, 37, 0
11, 647280, Note_on_c, 3, 38, 80
11, 647399, Note_on_c, 3, 38, 0
11, 647400, Note_on_c, 3, 40, 80
11, 647499, Note_on_c, 3, 40, 0
11, 647520, Note_on_c, 3, 42, 80
11, 647639, Note_on_c, 3, 42, 0
11, 647640, Note_on_c, 3, 43, 80
11, 647759, Note_on_c, 3, 43, 0
11, 647760, Note_on_c, 3, 42, 80
11, 647879, Note_on_c, 3, 42, 0
11, 647880, Note_on_c, 3, 40, 80
11, 647999, Note_on_c, 3, 40, 0
11, 648000, Note_on_c, 3, 42, 80
11, 648119, Note_on_c, 3, 42, 0
11, 648120, Note_on_c, 3, 40, 80
11, 648219, Note_on_c, 3, 40, 0
11, 648240, Note_on_c, 3, 38, 80
11, 648359, Note_on_c, 3, 38, 0
11, 648360, Note_on_c, 3, 40, 80
11, 648479, Note_on_c, 3, 40, 0
11, 648480, Note_on_c, 3, 38, 80
11, 648599, Note_on_c, 3, 38, 0
11, 648600, Note_on_c, 3, 37, 80
11, 648719, Note_on_c, 3, 37, 0
11, 648720, Note_on_c, 3, 38, 80
11, 648839, Note_on_c, 3, 38, 0
11, 648840, Note_on_c, 3, 37, 80
11, 648939, Note_on_c, 3, 37, 0
11, 648960, Note_on_c, 3, 37, 80
11, 649079, Note_on_c, 3, 37, 0
11, 649080, Note_on_c, 3, 30, 80
11, 649199, Note_on_c, 3, 30, 0
11, 649200, Note_on_c, 3, 32, 80
11, 649319, Note_on_c, 3, 32, 0
11, 649320, Note_on_c, 3, 34, 80
11, 649439, Note_on_c, 3, 34, 0
11, 649440, Note_on_c, 3, 35, 80
11, 649559, Note_on_c, 3, 35, 0
11, 649560, Note_on_c, 3, 37, 80
11, 649659, Note_on_c, 3, 37, 0
11, 649680, Note_on_c, 3, 39, 80
11, 649799, Note_on_c, 3, 39, 0
11, 649800, Note_on_c, 3, 35, 80
11, 649919, Note_on_c, 3, 35, 0
11, 649920, Note_on_c, 3, 37, 80
11, 650039, Note_on_c, 3, 37, 0
11, 650040, Note_on_c, 3, 39, 80
11, 650159, Note_on_c, 3, 39, 0
11, 650160, Note_on_c, 3, 40, 80
11, 650279, Note_on_c, 3, 40, 0
11, 650280, Note_on_c, 3, 37, 80
11, 650379, Note_on_c, 3, 37, 0
11, 650400, Note_on_c, 3, 42, 80
11, 650519, Note_on_c, 3, 42, 0
11, 650520, Note_on_c, 3, 44, 80
11, 650639, Note_on_c, 3, 44, 0
11, 650640, Note_on_c, 3, 42, 80
11, 650759, Note_on_c, 3, 42, 0
11, 650760, Note_on_c, 3, 39, 80
11, 650879, Note_on_c, 3, 39, 0
11, 650880, Note_on_c, 3, 40, 80
11, 650999, Note_on_c, 3, 40, 0
11, 651000, Note_on_c, 3, 39, 80
11, 651099, Note_on_c, 3, 39, 0
11, 651120, Note_on_c, 3, 37, 80
11, 651239, Note_on_c, 3, 37, 0
11, 651240, Note_on_c, 3, 39, 80
11, 651359, Note_on_c, 3, 39, 0
11, 651360, Note_on_c, 3, 37, 80
11, 651479, Note_on_c, 3, 37, 0
11, 651480, Note_on_c, 3, 35, 80
11, 651599, Note_on_c, 3, 35, 0
11, 651600, Note_on_c, 3, 37, 80
11, 651719, Note_on_c, 3, 37, 0
11, 651720, Note_on_c, 3, 35, 80
11, 651819, Note_on_c, 3, 35, 0
11, 651840, Note_on_c, 3, 42, 80
11, 651959, Note_on_c, 3, 42, 0
11, 651960, Note_on_c, 3, 35, 80
11, 652079, Note_on_c, 3, 35, 0
11, 652080, Note_on_c, 3, 37, 80
11, 652199, Note_on_c, 3, 37, 0
11, 652200, Note_on_c, 3, 39, 80
11, 652319, Note_on_c, 3, 39, 0
11, 652320, Note_on_c, 3, 40, 80
11, 652439, Note_on_c, 3, 40, 0
11, 652440, Note_on_c, 3, 42, 80
11, 652539, Note_on_c, 3, 42, 0
11, 652560, Note_on_c, 3, 44, 80
11, 652679, Note_on_c, 3, 44, 0
11, 652680, Note_on_c, 3, 35, 80
11, 652799, Note_on_c, 3, 35, 0
11, 652800, Note_on_c, 3, 42, 80
11, 652919, Note_on_c, 3, 42, 0
11, 652920, Note_on_c, 3, 44, 80
11, 653039, Note_on_c, 3, 44, 0
11, 653040, Note_on_c, 3, 45, 80
11, 653159, Note_on_c, 3, 45, 0
11, 653160, Note_on_c, 3, 42, 80
11, 653259, Note_on_c, 3, 42, 0
11, 653280, Note_on_c, 3, 45, 80
11, 653399, Note_on_c, 3, 45, 0
11, 653400, Note_on_c, 3, 47, 80
11, 653519, Note_on_c, 3, 47, 0
11, 653520, Note_on_c, 3, 45, 80
11, 653639, Note_on_c, 3, 45, 0
11, 653640, Note_on_c, 3, 44, 80
11, 653759, Note_on_c, 3, 44, 0
11, 653760, Note_on_c, 3, 45, 80
11, 653879, Note_on_c, 3, 45, 0
11, 653880, Note_on_c, 3, 44, 80
11, 653979, Note_on_c, 3, 44, 0
11, 654000, Note_on_c, 3, 42, 80
11, 654119, Note_on_c, 3, 42, 0
11, 654120, Note_on_c, 3, 44, 80
11, 654239, Note_on_c, 3, 44, 0
11, 654240, Note_on_c, 3, 42, 80
11, 654359, Note_on_c, 3, 42, 0
11, 654360, Note_on_c, 3, 40, 80
11, 654479, Note_on_c, 3, 40, 0
11, 654480, Note_on_c, 3, 42, 80
11, 654599, Note_on_c, 3, 42, 0
11, 654600, Note_on_c, 3, 40, 80
11, 654699, Note_on_c, 3, 40, 0
11, 654720, Note_on_c, 3, 47, 80
11, 654839, Note_on_c, 3, 47, 0
11, 654840, Note_on_c, 3, 40, 80
11, 654959, Note_on_c, 3, 40, 0
11, 654960, Note_on_c, 3, 44, 80
11, 655079, Note_on_c, 3, 44, 0
11, 655080, Note_on_c, 3, 45, 80
11, 655199, Note_on_c, 3, 45, 0
11, 655200, Note_on_c, 3, 47, 80
11, 655319, Note_on_c, 3, 47, 0
11, 655320, Note_on_c, 3, 40, 80
11, 655419, Note_on_c, 3, 40, 0
11, 655440, Note_on_c, 3, 52, 80
11, 655559, Note_on_c, 3, 52, 0
11, 655560, Note_on_c, 3, 54, 80
11, 655679, Note_on_c, 3, 54, 0
11, 655680, Note_on_c, 3, 52, 80
11, 655799, Note_on_c, 3, 52, 0
11, 655800, Note_on_c, 3, 50, 80
11, 655919, Note_on_c, 3, 50, 0
11, 655920, Note_on_c, 3, 52, 80
11, 656039, Note_on_c, 3, 52, 0
11, 656040, Note_on_c, 3, 50, 80
11, 656139, Note_on_c, 3, 50, 0
11, 656160, Note_on_c, 3, 49, 80
11, 656279, Note_on_c, 3, 49, 0
11, 656280, Note_on_c, 3, 52, 80
11, 656399, Note_on_c, 3, 52, 0
11, 656400, Note_on_c, 3, 50, 80
11, 656519, Note_on_c, 3, 50, 0
11, 656520, Note_on_c, 3, 49, 80
11, 656639, Note_on_c, 3, 49, 0
11, 656640, Note_on_c, 3, 50, 80
11, 656759, Note_on_c, 3, 50, 0
11, 656760, Note_on_c, 3, 49, 80
11, 656859, Note_on_c, 3, 49, 0
11, 656880, Note_on_c, 3, 47, 80
11, 656999, Note_on_c, 3, 47, 0
11, 657000, Note_on_c, 3, 49, 80
11, 657119, Note_on_c, 3, 49, 0
11, 657120, Note_on_c, 3, 47, 80
11, 657239, Note_on_c, 3, 47, 0
11, 657240, Note_on_c, 3, 45, 80
11, 657359, Note_on_c, 3, 45, 0
11, 657360, Note_on_c, 3, 49, 80
11, 657479, Note_on_c, 3, 49, 0
11, 657480, Note_on_c, 3, 47, 80
11, 657579, Note_on_c, 3, 47, 0
11, 657600, Note_on_c, 3, 47, 80
11, 657719, Note_on_c, 3, 47, 0
11, 657720, Note_on_c, 3, 45, 80
11, 657839, Note_on_c, 3, 45, 0
11, 657840, Note_on_c, 3, 47, 80
11, 657959, Note_on_c, 3, 47, 0
11, 657960, Note_on_c, 3, 45, 80
11, 658059, Note_on_c, 3, 45, 0
11, 658080, Note_on_c, 3, 33, 80
11, 658319, Note_on_c, 3, 33, 0
11, 661200, Note_on_c, 3, 50, 92
11, 662619, Note_on_c, 3, 50, 0
11, 662640, Note_on_c, 3, 50, 80
11, 663339, Note_on_c, 3, 50, 0
11, 663360, Note_on_c, 3, 49, 80
11, 664059, Note_on_c, 3, 49, 0
11, 664080, Note_on_c, 3, 45, 80
11, 664779, Note_on_c, 3, 45, 0
11, 664800, Note_on_c, 3, 47, 80
11, 665499, Note_on_c, 3, 47, 0
11, 665520, Note_on_c, 3, 47, 80
11, 666219, Note_on_c, 3, 47, 0
11, 666240, Note_on_c, 3, 45, 80
11, 666939, Note_on_c, 3, 45, 0
11, 666960, Note_on_c, 3, 42, 80
11, 667659, Note_on_c, 3, 42, 0
11, 667680, Note_on_c, 3, 43, 80
11, 668379, Note_on_c, 3, 43, 0
11, 668400, Note_on_c, 3, 43, 80
11, 669099, Note_on_c, 3, 43, 0
11, 669120, Note_on_c, 3, 42, 80
11, 669819, Note_on_c, 3, 42, 0
11, 669840, Note_on_c, 3, 50, 80
11, 670539, Note_on_c, 3, 50, 0
11, 670560, Note_on_c, 3, 52, 80
11, 671259, Note_on_c, 3, 52, 0
11, 671280, Note_on_c, 3, 52, 80
11, 671979, Note_on_c, 3, 52, 0
11, 672000, Note_on_c, 3, 52, 92
11, 674139, Note_on_c, 3, 52, 0
11, 674160, Note_on_c, 3, 52, 80
11, 674859, Note_on_c, 3, 52, 0
11, 674880, Note_on_c, 3, 50, 80
11, 676319, Note_on_c, 3, 50, 0
11, 806640, Note_on_c, 3, 35, 65
11, 806859, Note_on_c, 3, 35, 0
11, 806880, Note_on_c, 3, 33, 69
11, 807099, Note_on_c, 3, 33, 0
11, 807120, Note_on_c, 3, 35, 73
11, 807339, Note_on_c, 3, 35, 0
11, 807360, Note_on_c, 3, 33, 77
11, 807579, Note_on_c, 3, 33, 0
11, 807600, Note_on_c, 3, 35, 80
11, 807819, Note_on_c, 3, 35, 0
11, 807840, Note_on_c, 3, 33, 84
11, 808059, Note_on_c, 3, 33, 0
11, 808080, Note_on_c, 3, 35, 88
11, 808199, Note_on_c, 3, 35, 0
11, 808200, Note_on_c, 3, 37, 90
11, 808299, Note_on_c, 3, 37, 0
11, 808320, Note_on_c, 3, 38, 92
11, 808529, Note_on_c, 3, 38, 0
11, 808560, Note_on_c, 3, 38, 92
11, 808769, Note_on_c, 3, 38, 0
11, 808800, Note_on_c, 3, 37, 92
11, 809009, Note_on_c, 3, 37, 0
11, 809040, Note_on_c, 3, 33, 92
11, 809249, Note_on_c, 3, 33, 0
11, 809280, Note_on_c, 3, 40, 80
11, 809489, Note_on_c, 3, 40, 0
11, 809520, Note_on_c, 3, 40, 80
11, 809729, Note_on_c, 3, 40, 0
11, 809760, Note_on_c, 3, 39, 80
11, 809969, Note_on_c, 3, 39, 0
11, 810000, Note_on_c, 3, 35, 80
11, 810209, Note_on_c, 3, 35, 0
11, 810240, Note_on_c, 3, 40, 80
11, 810449, Note_on_c, 3, 40, 0
11, 810480, Note_on_c, 3, 30, 80
11, 810689, Note_on_c, 3, 30, 0
11, 810720, Note_on_c, 3, 31, 80
11, 810929, Note_on_c, 3, 31, 0
11, 810960, Note_on_c, 3, 32, 80
11, 811169, Note_on_c, 3, 32, 0
11, 811200, Note_on_c, 3, 33, 80
11, 811409, Note_on_c, 3, 33, 0
11, 811440, Note_on_c, 3, 32, 80
11, 811649, Note_on_c, 3, 32, 0
11, 811680, Note_on_c, 3, 33, 80
11, 811919, Note_on_c, 3, 33, 0
11, 811920, Note_on_c, 3, 35, 80
11, 812039, Note_on_c, 3, 35, 0
11, 812040, Note_on_c, 3, 37, 80
11, 812139, Note_on_c, 3, 37, 0
11, 812160, Note_on_c, 3, 38, 80
11, 812339, Note_on_c, 3, 38, 0
11, 812400, Note_on_c, 3, 38, 80
11, 812579, Note_on_c, 3, 38, 0
11, 812640, Note_on_c, 3, 37, 80
11, 812819, Note_on_c, 3, 37, 0
11, 812880, Note_on_c, 3, 45, 80
11, 813059, Note_on_c, 3, 45, 0
11, 813120, Note_on_c, 3, 40, 80
11, 813299, Note_on_c, 3, 40, 0
11, 813360, Note_on_c, 3, 40, 80
11, 813539, Note_on_c, 3, 40, 0
11, 813600, Note_on_c, 3, 39, 80
11, 813779, Note_on_c, 3, 39, 0
11, 813840, Note_on_c, 3, 35, 80
11, 814019, Note_on_c, 3, 35, 0
11, 814080, Note_on_c, 3, 40, 80
11, 814259, Note_on_c, 3, 40, 0
11, 814320, Note_on_c, 3, 42, 80
11, 814499, Note_on_c, 3, 42, 0
11, 814560, Note_on_c, 3, 43, 80
11, 814739, Note_on_c, 3, 43, 0
11, 814800, Note_on_c, 3, 44, 80
11, 814979, Note_on_c, 3, 44, 0
11, 815040, Note_on_c, 3, 45, 80
11, 815249, Note_on_c, 3, 45, 0
11, 815280, Note_on_c, 3, 44, 80
11, 815489, Note_on_c, 3, 44, 0
11, 815520, Note_on_c, 3, 45, 80
11, 815729, Note_on_c, 3, 45, 0
11, 815760, Note_on_c, 3, 47, 80
11, 815879, Note_on_c, 3, 47, 0
11, 815880, Note_on_c, 3, 45, 80
11, 815979, Note_on_c, 3, 45, 0
11, 816000, Note_on_c, 3, 43, 80
11, 816179, Note_on_c, 3, 43, 0
11, 816240, Note_on_c, 3, 43, 80
11, 816359, Note_on_c, 3, 43, 0
11, 816360, Note_on_c, 3, 42, 80
11, 816459, Note_on_c, 3, 42, 0
11, 816480, Note_on_c, 3, 40, 80
11, 816659, Note_on_c, 3, 40, 0
11, 816720, Note_on_c, 3, 40, 80
11, 816839, Note_on_c, 3, 40, 0
11, 816840, Note_on_c, 3, 38, 80
11, 816939, Note_on_c, 3, 38, 0
11, 816960, Note_on_c, 3, 37, 80
11, 817139, Note_on_c, 3, 37, 0
11, 817200, Note_on_c, 3, 37, 80
11, 817319, Note_on_c, 3, 37, 0
11, 817320, Note_on_c, 3, 35, 80
11, 817419, Note_on_c, 3, 35, 0
11, 817440, Note_on_c, 3, 33, 80
11, 817619, Note_on_c, 3, 33, 0
11, 817680, Note_on_c, 3, 45, 80
11, 817889, Note_on_c, 3, 45, 0
11, 817920, Note_on_c, 3, 43, 92
11, 818159, Note_on_c, 3, 43, 0
11, 818160, Note_on_c, 3, 45, 80
11, 818399, Note_on_c, 3, 45, 0
11, 818400, Note_on_c, 3, 43, 80
11, 818639, Note_on_c, 3, 43, 0
11, 818640, Note_on_c, 3, 42, 80
11, 818849, Note_on_c, 3, 42, 0
11, 818880, Note_on_c, 3, 43, 80
11, 819119, Note_on_c, 3, 43, 0
11, 819120, Note_on_c, 3, 45, 80
11, 819359, Note_on_c, 3, 45, 0
11, 819360, Note_on_c, 3, 43, 80
11, 819599, Note_on_c, 3, 43, 0
11, 819600, Note_on_c, 3, 42, 80
11, 819809, Note_on_c, 3, 42, 0
11, 819840, Note_on_c, 3, 43, 80
11, 820079, Note_on_c, 3, 43, 0
11, 820080, Note_on_c, 3, 45, 80
11, 820319, Note_on_c, 3, 45, 0
11, 820320, Note_on_c, 3, 43, 80
11, 820559, Note_on_c, 3, 43, 0
11, 820560, Note_on_c, 3, 42, 80
11, 820769, Note_on_c, 3, 42, 0
11, 820800, Note_on_c, 3, 43, 80
11, 821039, Note_on_c, 3, 43, 0
11, 821040, Note_on_c, 3, 45, 80
11, 821279, Note_on_c, 3, 45, 0
11, 821280, Note_on_c, 3, 43, 80
11, 821519, Note_on_c, 3, 43, 0
11, 821520, Note_on_c, 3, 42, 80
11, 821729, Note_on_c, 3, 42, 0
11, 821760, Note_on_c, 3, 43, 80
11, 821999, Note_on_c, 3, 43, 0
11, 822000, Note_on_c, 3, 45, 80
11, 822239, Note_on_c, 3, 45, 0
11, 822240, Note_on_c, 3, 43, 80
11, 822479, Note_on_c, 3, 43, 0
11, 822480, Note_on_c, 3, 42, 80
11, 822689, Note_on_c, 3, 42, 0
11, 822720, Note_on_c, 3, 43, 80
11, 822959, Note_on_c, 3, 43, 0
11, 822960, Note_on_c, 3, 45, 80
11, 823199, Note_on_c, 3, 45, 0
11, 823200, Note_on_c, 3, 43, 80
11, 823439, Note_on_c, 3, 43, 0
11, 823440, Note_on_c, 3, 42, 80
11, 823649, Note_on_c, 3, 42, 0
11, 823680, Note_on_c, 3, 43, 80
11, 823919, Note_on_c, 3, 43, 0
11, 823920, Note_on_c, 3, 45, 80
11, 824159, Note_on_c, 3, 45, 0
11, 824160, Note_on_c, 3, 43, 80
11, 824399, Note_on_c, 3, 43, 0
11, 824400, Note_on_c, 3, 42, 80
11, 824609, Note_on_c, 3, 42, 0
11, 824640, Note_on_c, 3, 43, 80
11, 824879, Note_on_c, 3, 43, 0
11, 824880, Note_on_c, 3, 45, 80
11, 825119, Note_on_c, 3, 45, 0
11, 825120, Note_on_c, 3, 43, 80
11, 825359, Note_on_c, 3, 43, 0
11, 825360, Note_on_c, 3, 42, 80
11, 825569, Note_on_c, 3, 42, 0
11, 825600, Note_on_c, 3, 40, 80
11, 825809, Note_on_c, 3, 40, 0
11, 825840, Note_on_c, 3, 52, 80
11, 826049, Note_on_c, 3, 52, 0
11, 826080, Note_on_c, 3, 38, 80
11, 826289, Note_on_c, 3, 38, 0
11, 826320, Note_on_c, 3, 50, 80
11, 826529, Note_on_c, 3, 50, 0
11, 826560, Note_on_c, 3, 43, 80
11, 826769, Note_on_c, 3, 43, 0
11, 826800, Note_on_c, 3, 43, 80
11, 827009, Note_on_c, 3, 43, 0
11, 827040, Note_on_c, 3, 31, 80
11, 827249, Note_on_c, 3, 31, 0
11, 827280, Note_on_c, 3, 43, 80
11, 827489, Note_on_c, 3, 43, 0
11, 827520, Note_on_c, 3, 33, 80
11, 827729, Note_on_c, 3, 33, 0
11, 827760, Note_on_c, 3, 45, 80
11, 827969, Note_on_c, 3, 45, 0
11, 828000, Note_on_c, 3, 31, 80
11, 828209, Note_on_c, 3, 31, 0
11, 828240, Note_on_c, 3, 43, 80
11, 828449, Note_on_c, 3, 43, 0
11, 828480, Note_on_c, 3, 30, 80
11, 828689, Note_on_c, 3, 30, 0
11, 828720, Note_on_c, 3, 42, 80
11, 828929, Note_on_c, 3, 42, 0
11, 828960, Note_on_c, 3, 42, 80
11, 829169, Note_on_c, 3, 42, 0
11, 829200, Note_on_c, 3, 54, 80
11, 829409, Note_on_c, 3, 54, 0
11, 829440, Note_on_c, 3, 40, 80
11, 829649, Note_on_c, 3, 40, 0
11, 829680, Note_on_c, 3, 52, 80
11, 829889, Note_on_c, 3, 52, 0
11, 829920, Note_on_c, 3, 38, 80
11, 830129, Note_on_c, 3, 38, 0
11, 830160, Note_on_c, 3, 50, 80
11, 830369, Note_on_c, 3, 50, 0
11, 830400, Note_on_c, 3, 43, 80
11, 830609, Note_on_c, 3, 43, 0
11, 830640, Note_on_c, 3, 43, 80
11, 830849, Note_on_c, 3, 43, 0
11, 830880, Note_on_c, 3, 31, 80
11, 831089, Note_on_c, 3, 31, 0
11, 831120, Note_on_c, 3, 43, 80
11, 831329, Note_on_c, 3, 43, 0
11, 831360, Note_on_c, 3, 33, 80
11, 831569, Note_on_c, 3, 33, 0
11, 831600, Note_on_c, 3, 45, 80
11, 831809, Note_on_c, 3, 45, 0
11, 831840, Note_on_c, 3, 33, 80
11, 832049, Note_on_c, 3, 33, 0
11, 832080, Note_on_c, 3, 45, 80
11, 832289, Note_on_c, 3, 45, 0
11, 832320, Note_on_c, 3, 50, 80
11, 832529, Note_on_c, 3, 50, 0
11, 832560, Note_on_c, 3, 50, 80
11, 832769, Note_on_c, 3, 50, 0
11, 832800, Note_on_c, 3, 49, 80
11, 833009, Note_on_c, 3, 49, 0
11, 833040, Note_on_c, 3, 45, 80
11, 833249, Note_on_c, 3, 45, 0
11, 833280, Note_on_c, 3, 38, 80
11, 833489, Note_on_c, 3, 38, 0
11, 833520, Note_on_c, 3, 38, 80
11, 833729, Note_on_c, 3, 38, 0
11, 833760, Note_on_c, 3, 37, 80
11, 833969, Note_on_c, 3, 37, 0
11, 834000, Note_on_c, 3, 33, 80
11, 834209, Note_on_c, 3, 33, 0
11, 834240, Note_on_c, 3, 52, 80
11, 834449, Note_on_c, 3, 52, 0
11, 834480, Note_on_c, 3, 52, 80
11, 834689, Note_on_c, 3, 52, 0
11, 834720, Note_on_c, 3, 51, 80
11, 834929, Note_on_c, 3, 51, 0
11, 834960, Note_on_c, 3, 47, 80
11, 835169, Note_on_c, 3, 47, 0
11, 835200, Note_on_c, 3, 40, 80
11, 835409, Note_on_c, 3, 40, 0
11, 835440, Note_on_c, 3, 40, 80
11, 835649, Note_on_c, 3, 40, 0
11, 835680, Note_on_c, 3, 39, 80
11, 835889, Note_on_c, 3, 39, 0
11, 835920, Note_on_c, 3, 35, 80
11, 836129, Note_on_c, 3, 35, 0
11, 836160, Note_on_c, 3, 35, 92
11, 836519, Note_on_c, 3, 35, 0
11, 836640, Note_on_c, 3, 35, 92
11, 836999, Note_on_c, 3, 35, 0
11, 837120, Note_on_c, 3, 35, 92
11, 837479, Note_on_c, 3, 35, 0
11, 837600, Note_on_c, 3, 35, 92
11, 837959, Note_on_c, 3, 35, 0
11, 838080, Note_on_c, 3, 35, 92
11, 838439, Note_on_c, 3, 35, 0
11, 838560, Note_on_c, 3, 35, 92
11, 838919, Note_on_c, 3, 35, 0
11, 839040, Note_on_c, 3, 36, 92
11, 839399, Note_on_c, 3, 36, 0
11, 839520, Note_on_c, 3, 36, 92
11, 839879, Note_on_c, 3, 36, 0
11, 840000, Note_on_c, 3, 36, 92
11, 840359, Note_on_c, 3, 36, 0
11, 840480, Note_on_c, 3, 36, 92
11, 840839, Note_on_c, 3, 36, 0
11, 840960, Note_on_c, 3, 41, 92
11, 841319, Note_on_c, 3, 41, 0
11, 841440, Note_on_c, 3, 38, 92
11, 841799, Note_on_c, 3, 38, 0
11, 841920, Note_on_c, 3, 33, 92
11, 842369, Note_on_c, 3, 33, 0
11, 842400, Note_on_c, 3, 45, 92
11, 842609, Note_on_c, 3, 45, 0
11, 842640, Note_on_c, 3, 33, 92
11, 842849, Note_on_c, 3, 33, 0
11, 842880, Note_on_c, 3, 35, 92
11, 843329, Note_on_c, 3, 35, 0
11, 843360, Note_on_c, 3, 35, 92
11, 844289, Note_on_c, 3, 35, 0
11, 844320, Note_on_c, 3, 35, 80
11, 844679, Note_on_c, 3, 35, 0
11, 844800, Note_on_c, 3, 35, 80
11, 845159, Note_on_c, 3, 35, 0
11, 845280, Note_on_c, 3, 35, 80
11, 845639, Note_on_c, 3, 35, 0
11, 845760, Note_on_c, 3, 35, 80
11, 846119, Note_on_c, 3, 35, 0
11, 846240, Note_on_c, 3, 35, 80
11, 846599, Note_on_c, 3, 35, 0
11, 846720, Note_on_c, 3, 36, 92
11, 847079, Note_on_c, 3, 36, 0
11, 847200, Note_on_c, 3, 36, 80
11, 847559, Note_on_c, 3, 36, 0
11, 847680, Note_on_c, 3, 36, 80
11, 848039, Note_on_c, 3, 36, 0
11, 848160, Note_on_c, 3, 36, 80
11, 848519, Note_on_c, 3, 36, 0
11, 848640, Note_on_c, 3, 41, 92
11, 848999, Note_on_c, 3, 41, 0
11, 849120, Note_on_c, 3, 38, 92
11, 849479, Note_on_c, 3, 38, 0
11, 849600, Note_on_c, 3, 33, 92
11, 850049, Note_on_c, 3, 33, 0
11, 850080, Note_on_c, 3, 33, 92
11, 850289, Note_on_c, 3, 33, 0
11, 850320, Note_on_c, 3, 36, 92
11, 851009, Note_on_c, 3, 36, 0
11, 851040, Note_on_c, 3, 35, 92
11, 851249, Note_on_c, 3, 35, 0
11, 851280, Note_on_c, 3, 43, 92
11, 851489, Note_on_c, 3, 43, 0
11, 851520, Note_on_c, 3, 52, 92
11, 851729, Note_on_c, 3, 52, 0
11, 851760, Note_on_c, 3, 49, 92
11, 851969, Note_on_c, 3, 49, 0
11, 852000, Note_on_c, 3, 45, 92
11, 852209, Note_on_c, 3, 45, 0
11, 852240, Note_on_c, 3, 43, 92
11, 852449, Note_on_c, 3, 43, 0
11, 852480, Note_on_c, 3, 40, 92
11, 852689, Note_on_c, 3, 40, 0
11, 852720, Note_on_c, 3, 37, 92
11, 852929, Note_on_c, 3, 37, 0
11, 852960, Note_on_c, 3, 33, 92
11, 853169, Note_on_c, 3, 33, 0
11, 853200, Note_on_c, 3, 45, 92
11, 853409, Note_on_c, 3, 45, 0
11, 853440, Note_on_c, 3, 45, 92
11, 854129, Note_on_c, 3, 45, 0
11, 854160, Note_on_c, 3, 36, 92
11, 854849, Note_on_c, 3, 36, 0
11, 854880, Note_on_c, 3, 35, 92
11, 855089, Note_on_c, 3, 35, 0
11, 855120, Note_on_c, 3, 43, 92
11, 855329, Note_on_c, 3, 43, 0
11, 855360, Note_on_c, 3, 52, 92
11, 855569, Note_on_c, 3, 52, 0
11, 855600, Note_on_c, 3, 49, 92
11, 855809, Note_on_c, 3, 49, 0
11, 855840, Note_on_c, 3, 45, 92
11, 856049, Note_on_c, 3, 45, 0
11, 856080, Note_on_c, 3, 43, 92
11, 856289, Note_on_c, 3, 43, 0
11, 856320, Note_on_c, 3, 40, 92
11, 856529, Note_on_c, 3, 40, 0
11, 856560, Note_on_c, 3, 37, 92
11, 856769, Note_on_c, 3, 37, 0
11, 856800, Note_on_c, 3, 33, 92
11, 857009, Note_on_c, 3, 33, 0
11, 857040, Note_on_c, 3, 45, 92
11, 857249, Note_on_c, 3, 45, 0
11, 857280, Note_on_c, 3, 45, 92
11, 857729, Note_on_c, 3, 45, 0
11, 857760, Note_on_c, 3, 33, 92
11, 858209, Note_on_c, 3, 33, 0
11, 858240, Note_on_c, 3, 38, 80
11, 858339, Note_on_c, 3, 38, 0
11, 858360, Note_on_c, 3, 38, 80
11, 858459, Note_on_c, 3, 38, 0
11, 858480, Note_on_c, 3, 40, 80
11, 858579, Note_on_c, 3, 40, 0
11, 858600, Note_on_c, 3, 42, 80
11, 858699, Note_on_c, 3, 42, 0
11, 858720, Note_on_c, 3, 42, 80
11, 858819, Note_on_c, 3, 42, 0
11, 858840, Note_on_c, 3, 40, 80
11, 858939, Note_on_c, 3, 40, 0
11, 858960, Note_on_c, 3, 38, 80
11, 859059, Note_on_c, 3, 38, 0
11, 859080, Note_on_c, 3, 37, 80
11, 859179, Note_on_c, 3, 37, 0
11, 859200, Note_on_c, 3, 35, 80
11, 859299, Note_on_c, 3, 35, 0
11, 859320, Note_on_c, 3, 35, 80
11, 859419, Note_on_c, 3, 35, 0
11, 859440, Note_on_c, 3, 36, 80
11, 859539, Note_on_c, 3, 36, 0
11, 859560, Note_on_c, 3, 38, 80
11, 859659, Note_on_c, 3, 38, 0
11, 859680, Note_on_c, 3, 38, 80
11, 859779, Note_on_c, 3, 38, 0
11, 859800, Note_on_c, 3, 36, 80
11, 859899, Note_on_c, 3, 36, 0
11, 859920, Note_on_c, 3, 35, 80
11, 860019, Note_on_c, 3, 35, 0
11, 860040, Note_on_c, 3, 33, 80
11, 860139, Note_on_c, 3, 33, 0
11, 860160, Note_on_c, 3, 31, 80
11, 860259, Note_on_c, 3, 31, 0
11, 860280, Note_on_c, 3, 31, 80
11, 860379, Note_on_c, 3, 31, 0
11, 860400, Note_on_c, 3, 33, 80
11, 860499, Note_on_c, 3, 33, 0
11, 860520, Note_on_c, 3, 35, 80
11, 860619, Note_on_c, 3, 35, 0
11, 860640, Note_on_c, 3, 28, 80
11, 860739, Note_on_c, 3, 28, 0
11, 860760, Note_on_c, 3, 28, 80
11, 860859, Note_on_c, 3, 28, 0
11, 860880, Note_on_c, 3, 30, 80
11, 860979, Note_on_c, 3, 30, 0
11, 861000, Note_on_c, 3, 31, 80
11, 861099, Note_on_c, 3, 31, 0
11, 861120, Note_on_c, 3, 33, 92
11, 861219, Note_on_c, 3, 33, 0
11, 861240, Note_on_c, 3, 35, 92
11, 861339, Note_on_c, 3, 35, 0
11, 861360, Note_on_c, 3, 37, 92
11, 861459, Note_on_c, 3, 37, 0
11, 861480, Note_on_c, 3, 38, 92
11, 861579, Note_on_c, 3, 38, 0
11, 861600, Note_on_c, 3, 40, 92
11, 861699, Note_on_c, 3, 40, 0
11, 861720, Note_on_c, 3, 42, 92
11, 861819, Note_on_c, 3, 42, 0
11, 861840, Note_on_c, 3, 43, 92
11, 861939, Note_on_c, 3, 43, 0
11, 861960, Note_on_c, 3, 45, 92
11, 862059, Note_on_c, 3, 45, 0
11, 862080, Note_on_c, 3, 45, 92
11, 862179, Note_on_c, 3, 45, 0
11, 862200, Note_on_c, 3, 33, 92
11, 862299, Note_on_c, 3, 33, 0
11, 862320, Note_on_c, 3, 35, 92
11, 862419, Note_on_c, 3, 35, 0
11, 862440, Note_on_c, 3, 37, 92
11, 862539, Note_on_c, 3, 37, 0
11, 862560, Note_on_c, 3, 38, 92
11, 862659, Note_on_c, 3, 38, 0
11, 862680, Note_on_c, 3, 40, 92
11, 862779, Note_on_c, 3, 40, 0
11, 862800, Note_on_c, 3, 42, 92
11, 862899, Note_on_c, 3, 42, 0
11, 862920, Note_on_c, 3, 38, 92
11, 863019, Note_on_c, 3, 38, 0
11, 863040, Note_on_c, 3, 33, 92
11, 863139, Note_on_c, 3, 33, 0
11, 863160, Note_on_c, 3, 35, 92
11, 863259, Note_on_c, 3, 35, 0
11, 863280, Note_on_c, 3, 37, 92
11, 863379, Note_on_c, 3, 37, 0
11, 863400, Note_on_c, 3, 38, 92
11, 863499, Note_on_c, 3, 38, 0
11, 863520, Note_on_c, 3, 40, 92
11, 863619, Note_on_c, 3, 40, 0
11, 863640, Note_on_c, 3, 42, 92
11, 863739, Note_on_c, 3, 42, 0
11, 863760, Note_on_c, 3, 43, 92
11, 863859, Note_on_c, 3, 43, 0
11, 863880, Note_on_c, 3, 45, 92
11, 863979, Note_on_c, 3, 45, 0
11, 864000, Note_on_c, 3, 33, 92
11, 864099, Note_on_c, 3, 33, 0
11, 864120, Note_on_c, 3, 33, 92
11, 864219, Note_on_c, 3, 33, 0
11, 864240, Note_on_c, 3, 35, 92
11, 864339, Note_on_c, 3, 35, 0
11, 864360, Note_on_c, 3, 37, 92
11, 864459, Note_on_c, 3, 37, 0
11, 864480, Note_on_c, 3, 38, 92
11, 864579, Note_on_c, 3, 38, 0
11, 864600, Note_on_c, 3, 40, 92
11, 864699, Note_on_c, 3, 40, 0
11, 864720, Note_on_c, 3, 42, 92
11, 864819, Note_on_c, 3, 42, 0
11, 864840, Note_on_c, 3, 38, 92
11, 864939, Note_on_c, 3, 38, 0
11, 864960, Note_on_c, 3, 33, 92
11, 865059, Note_on_c, 3, 33, 0
11, 865080, Note_on_c, 3, 37, 92
11, 865179, Note_on_c, 3, 37, 0
11, 865200, Note_on_c, 3, 38, 92
11, 865299, Note_on_c, 3, 38, 0
11, 865320, Note_on_c, 3, 40, 92
11, 865419, Note_on_c, 3, 40, 0
11, 865440, Note_on_c, 3, 45, 92
11, 865539, Note_on_c, 3, 45, 0
11, 865560, Note_on_c, 3, 38, 92
11, 865659, Note_on_c, 3, 38, 0
11, 865680, Note_on_c, 3, 40, 92
11, 865779, Note_on_c, 3, 40, 0
11, 865800, Note_on_c, 3, 42, 92
11, 865899, Note_on_c, 3, 42, 0
11, 865920, Note_on_c, 3, 45, 92
11, 866019, Note_on_c, 3, 45, 0
11, 866040, Note_on_c, 3, 39, 92
11, 866139, Note_on_c, 3, 39, 0
11, 866160, Note_on_c, 3, 40, 92
11, 866259, Note_on_c, 3, 40, 0
11, 866280, Note_on_c, 3, 42, 92
11, 866379, Note_on_c, 3, 42, 0
11, 866400, Note_on_c, 3, 43, 92
11, 866499, Note_on_c, 3, 43, 0
11, 866520, Note_on_c, 3, 33, 92
11, 866619, Note_on_c, 3, 33, 0
11, 866640, Note_on_c, 3, 35, 92
11, 866739, Note_on_c, 3, 35, 0
11, 866760, Note_on_c, 3, 37, 92
11, 866859, Note_on_c, 3, 37, 0
11, 866880, Note_on_c, 3, 38, 92
11, 866979, Note_on_c, 3, 38, 0
11, 867000, Note_on_c, 3, 40, 92
11, 867099, Note_on_c, 3, 40, 0
11, 867120, Note_on_c, 3, 42, 92
11, 867219, Note_on_c, 3, 42, 0
11, 867240, Note_on_c, 3, 43, 92
11, 867339, Note_on_c, 3, 43, 0
11, 867360, Note_on_c, 3, 45, 92
11, 867459, Note_on_c, 3, 45, 0
11, 867480, Note_on_c, 3, 38, 92
11, 867579, Note_on_c, 3, 38, 0
11, 867600, Note_on_c, 3, 40, 92
11, 867699, Note_on_c, 3, 40, 0
11, 867720, Note_on_c, 3, 42, 92
11, 867819, Note_on_c, 3, 42, 0
11, 867840, Note_on_c, 3, 45, 92
11, 867939, Note_on_c, 3, 45, 0
11, 867960, Note_on_c, 3, 37, 92
11, 868059, Note_on_c, 3, 37, 0
11, 868080, Note_on_c, 3, 38, 92
11, 868179, Note_on_c, 3, 38, 0
11, 868200, Note_on_c, 3, 40, 92
11, 868299, Note_on_c, 3, 40, 0
11, 868320, Note_on_c, 3, 45, 92
11, 868419, Note_on_c, 3, 45, 0
11, 868440, Note_on_c, 3, 38, 92
11, 868539, Note_on_c, 3, 38, 0
11, 868560, Note_on_c, 3, 40, 92
11, 868659, Note_on_c, 3, 40, 0
11, 868680, Note_on_c, 3, 42, 92
11, 868779, Note_on_c, 3, 42, 0
11, 868800, Note_on_c, 3, 45, 92
11, 868899, Note_on_c, 3, 45, 0
11, 868920, Note_on_c, 3, 39, 92
11, 869019, Note_on_c, 3, 39, 0
11, 869040, Note_on_c, 3, 40, 92
11, 869139, Note_on_c, 3, 40, 0
11, 869160, Note_on_c, 3, 42, 92
11, 869259, Note_on_c, 3, 42, 0
11, 869280, Note_on_c, 3, 43, 92
11, 869379, Note_on_c, 3, 43, 0
11, 869400, Note_on_c, 3, 33, 92
11, 869499, Note_on_c, 3, 33, 0
11, 869520, Note_on_c, 3, 35, 92
11, 869619, Note_on_c, 3, 35, 0
11, 869640, Note_on_c, 3, 37, 92
11, 869739, Note_on_c, 3, 37, 0
11, 869760, Note_on_c, 3, 38, 92
11, 869859, Note_on_c, 3, 38, 0
11, 869880, Note_on_c, 3, 40, 92
11, 869979, Note_on_c, 3, 40, 0
11, 870000, Note_on_c, 3, 42, 92
11, 870099, Note_on_c, 3, 42, 0
11, 870120, Note_on_c, 3, 43, 92
11, 870219, Note_on_c, 3, 43, 0
11, 870240, Note_on_c, 3, 45, 92
11, 870959, Note_on_c, 3, 45, 0
11, 872160, Note_on_c, 3, 38, 92
11, 872333, Note_on_c, 3, 38, 0
11, 872340, Note_on_c, 3, 38, 92
11, 872393, Note_on_c, 3, 38, 0
11, 872400, Note_on_c, 3, 31, 92
11, 872749, Note_on_c, 3, 31, 0
11, 872760, Note_on_c, 3, 33, 92
11, 872869, Note_on_c, 3, 33, 0
11, 872880, Note_on_c, 3, 33, 92
11, 873049, Note_on_c, 3, 33, 0
11, 873060, Note_on_c, 3, 33, 92
11, 873109, Note_on_c, 3, 33, 0
11, 873120, Note_on_c, 3, 33, 92
11, 873229, Note_on_c, 3, 33, 0
11, 873240, Note_on_c, 3, 26, 92
11, 873349, Note_on_c, 3, 26, 0
11, 873360, Note_on_c, 3, 33, 92
11, 873529, Note_on_c, 3, 33, 0
11, 873540, Note_on_c, 3, 33, 92
11, 873589, Note_on_c, 3, 33, 0
11, 873600, Note_on_c, 3, 38, 92
11, 874049, Note_on_c, 3, 38, 0
11, 874080, Note_on_c, 3, 38, 92
11, 874289, Note_on_c, 3, 38, 0
11, 874320, Note_on_c, 3, 33, 92
11, 874529, Note_on_c, 3, 33, 0
11, 874560, Note_on_c, 3, 38, 92
11, 875009, Note_on_c, 3, 38, 0
11, 875040, Note_on_c, 3, 38, 92
11, 875249, Note_on_c, 3, 38, 0
11, 875280, Note_on_c, 3, 33, 92
11, 875489, Note_on_c, 3, 33, 0
11, 875520, Note_on_c, 3, 38, 92
11, 875969, Note_on_c, 3, 38, 0
11, 876000, Note_on_c, 3, 38, 92
11, 876209, Note_on_c, 3, 38, 0
11, 876240, Note_on_c, 3, 33, 92
11, 876449, Note_on_c, 3, 33, 0
11, 876480, Note_on_c, 3, 38, 92
11, 876929, Note_on_c, 3, 38, 0
11, 876960, Note_on_c, 3, 38, 92
11, 877169, Note_on_c, 3, 38, 0
11, 877200, Note_on_c, 3, 33, 92
11, 877409, Note_on_c, 3, 33, 0
11, 877440, Note_on_c, 3, 38, 92
11, 877649, Note_on_c, 3, 38, 0
11, 877680, Note_on_c, 3, 33, 92
11, 877889, Note_on_c, 3, 33, 0
11, 877920, Note_on_c, 3, 38, 92
11, 878129, Note_on_c, 3, 38, 0
11, 878160, Note_on_c, 3, 33, 92
11, 878369, Note_on_c, 3, 33, 0
11, 878400, Note_on_c, 3, 38, 92
11, 878609, Note_on_c, 3, 38, 0
11, 878640, Note_on_c, 3, 33, 92
11, 878849, Note_on_c, 3, 33, 0
11, 878880, Note_on_c, 3, 38, 92
11, 879089, Note_on_c, 3, 38, 0
11, 879120, Note_on_c, 3, 45, 92
11, 879329, Note_on_c, 3, 45, 0
11, 879360, Note_on_c, 3, 50, 92
11, 879569, Note_on_c, 3, 50, 0
11, 879600, Note_on_c, 3, 45, 92
11, 879809, Note_on_c, 3, 45, 0
11, 879840, Note_on_c, 3, 50, 92
11, 880049, Note_on_c, 3, 50, 0
11, 880080, Note_on_c, 3, 45, 92
11, 880289, Note_on_c, 3, 45, 0
11, 880320, Note_on_c, 3, 50, 92
11, 880529, Note_on_c, 3, 50, 0
11, 880560, Note_on_c, 3, 50, 92
11, 880769, Note_on_c, 3, 50, 0
11, 880800, Note_on_c, 3, 50, 92
11, 881009, Note_on_c, 3, 50, 0
11, 881040, Note_on_c, 3, 50, 92
11, 881249, Note_on_c, 3, 50, 0
11, 881280, Note_on_c, 3, 50, 92
11, 881519, Note_on_c, 3, 50, 0
11, 881520, Note_on_c, 3, 38, 80
11, 881639, Note_on_c, 3, 38, 0
11, 881760, Note_on_c, 3, 50, 80
11, 881999, Note_on_c, 3, 50, 0
11, 882000, Note_on_c, 3, 38, 80
11, 882119, Note_on_c, 3, 38, 0
11, 882240, Note_on_c, 3, 50, 80
11, 882479, Note_on_c, 3, 50, 0
11, 882480, Note_on_c, 3, 38, 80
11, 882599, Note_on_c, 3, 38, 0
11, 882720, Note_on_c, 3, 50, 80
11, 882959, Note_on_c, 3, 50, 0
11, 882960, Note_on_c, 3, 38, 80
11, 883079, Note_on_c, 3, 38, 0
11, 883200, Note_on_c, 3, 50, 80
11, 883439, Note_on_c, 3, 50, 0
11, 883440, Note_on_c, 3, 38, 80
11, 883559, Note_on_c, 3, 38, 0
11, 883680, Note_on_c, 3, 50, 80
11, 883919, Note_on_c, 3, 50, 0
11, 883920, Note_on_c, 3, 38, 80
11, 884039, Note_on_c, 3, 38, 0
11, 884160, Note_on_c, 3, 50, 80
11, 884399, Note_on_c, 3, 50, 0
11, 884400, Note_on_c, 3, 38, 80
11, 884519, Note_on_c, 3, 38, 0
11, 884640, Note_on_c, 3, 50, 80
11, 884879, Note_on_c, 3, 50, 0
11, 884880, Note_on_c, 3, 38, 80
11, 884999, Note_on_c, 3, 38, 0
11, 885120, Note_on_c, 3, 50, 92
11, 885329, Note_on_c, 3, 50, 0
11, 885360, Note_on_c, 3, 38, 92
11, 885569, Note_on_c, 3, 38, 0
11, 885600, Note_on_c, 3, 50, 92
11, 885809, Note_on_c, 3, 50, 0
11, 885840, Note_on_c, 3, 38, 92
11, 886049, Note_on_c, 3, 38, 0
11, 886080, Note_on_c, 3, 50, 92
11, 886289, Note_on_c, 3, 50, 0
11, 886320, Note_on_c, 3, 38, 92
11, 886529, Note_on_c, 3, 38, 0
11, 886560, Note_on_c, 3, 50, 92
11, 886769, Note_on_c, 3, 50, 0
11, 886800, Note_on_c, 3, 38, 92
11, 887009, Note_on_c, 3, 38, 0
11, 887040, Note_on_c, 3, 50, 92
11, 887249, Note_on_c, 3, 50, 0
11, 887280, Note_on_c, 3, 38, 92
11, 887489, Note_on_c, 3, 38, 0
11, 887520, Note_on_c, 3, 50, 92
11, 887729, Note_on_c, 3, 50, 0
11, 887760, Note_on_c, 3, 38, 92
11, 887969, Note_on_c, 3, 38, 0
11, 888000, Note_on_c, 3, 50, 92
11, 888209, Note_on_c, 3, 50, 0
11, 888240, Note_on_c, 3, 38, 92
11, 888449, Note_on_c, 3, 38, 0
11, 888480, Note_on_c, 3, 50, 92
11, 888689, Note_on_c, 3, 50, 0
11, 888720, Note_on_c, 3, 38, 92
11, 888929, Note_on_c, 3, 38, 0
11, 888960, Note_on_c, 3, 38, 92
11, 889199, Note_on_c, 3, 38, 0
11, 890880, Note_on_c, 3, 38, 92
11, 891119, Note_on_c, 3, 38, 0
11, 891840, Note_on_c, 3, 38, 92
11, 892079, Note_on_c, 3, 38, 0
11, 892800, Note_on_c, 3, 38, 92
11, 893039, Note_on_c, 3, 38, 0
11, 893039, End_track
12, 0, Start_track
12, 0, Title_t, "French Horn I and II in D"
12, 0, MIDI_port, 0
12, 0, Program_c, 4, 60
12, 0, Control_c, 4, 121, 0
12, 0, Control_c, 4, 7, 104
12, 0, Control_c, 4, 11, 127
12, 0, Control_c, 4, 10, 45
12, 0, Note_on_c, 4, 65, 92
12, 0, Note_on_c, 4, 62, 92
12, 1899, Note_on_c, 4, 65, 0
12, 1899, Note_on_c, 4, 62, 0
12, 1920, Note_on_c, 4, 65, 92
12, 1920, Note_on_c, 4, 62, 92
12, 2139, Note_on_c, 4, 65, 0
12, 2139, Note_on_c, 4, 62, 0
12, 2160, Note_on_c, 4, 65, 92
12, 2160, Note_on_c, 4, 62, 92
12, 2379, Note_on_c, 4, 65, 0
12, 2379, Note_on_c, 4, 62, 0
12, 2400, Note_on_c, 4, 62, 92
12, 2400, Note_on_c, 4, 65, 92
12, 2619, Note_on_c, 4, 62, 0
12, 2619, Note_on_c, 4, 65, 0
12, 2640, Note_on_c, 4, 65, 92
12, 2640, Note_on_c, 4, 62, 92
12, 2859, Note_on_c, 4, 65, 0
12, 2859, Note_on_c, 4, 62, 0
12, 2880, Note_on_c, 4, 62, 92
12, 2880, Note_on_c, 4, 65, 92
12, 3099, Note_on_c, 4, 62, 0
12, 3099, Note_on_c, 4, 65, 0
12, 3120, Note_on_c, 4, 65, 92
12, 3120, Note_on_c, 4, 62, 92
12, 3219, Note_on_c, 4, 65, 0
12, 3219, Note_on_c, 4, 62, 0
12, 3240, Note_on_c, 4, 62, 92
12, 3240, Note_on_c, 4, 50, 92
12, 3339, Note_on_c, 4, 62, 0
12, 3339, Note_on_c, 4, 50, 0
12, 3360, Note_on_c, 4, 62, 92
12, 3360, Note_on_c, 4, 50, 92
12, 3459, Note_on_c, 4, 62, 0
12, 3459, Note_on_c, 4, 50, 0
12, 3480, Note_on_c, 4, 50, 92
12, 3480, Note_on_c, 4, 62, 92
12, 3579, Note_on_c, 4, 50, 0
12, 3579, Note_on_c, 4, 62, 0
12, 3600, Note_on_c, 4, 50, 92
12, 3600, Note_on_c, 4, 62, 92
12, 3699, Note_on_c, 4, 50, 0
12, 3699, Note_on_c, 4, 62, 0
12, 3720, Note_on_c, 4, 62, 92
12, 3720, Note_on_c, 4, 50, 92
12, 3819, Note_on_c, 4, 62, 0
12, 3819, Note_on_c, 4, 50, 0
12, 3840, Note_on_c, 4, 50, 92
12, 3840, Note_on_c, 4, 62, 92
12, 3939, Note_on_c, 4, 50, 0
12, 3939, Note_on_c, 4, 62, 0
12, 3960, Note_on_c, 4, 62, 92
12, 3960, Note_on_c, 4, 50, 92
12, 4059, Note_on_c, 4, 62, 0
12, 4059, Note_on_c, 4, 50, 0
12, 4080, Note_on_c, 4, 50, 92
12, 4080, Note_on_c, 4, 62, 92
12, 4179, Note_on_c, 4, 50, 0
12, 4179, Note_on_c, 4, 62, 0
12, 4200, Note_on_c, 4, 50, 92
12, 4200, Note_on_c, 4, 62, 92
12, 4299, Note_on_c, 4, 50, 0
12, 4299, Note_on_c, 4, 62, 0
12, 4320, Note_on_c, 4, 62, 92
12, 4320, Note_on_c, 4, 50, 92
12, 4419, Note_on_c, 4, 62, 0
12, 4419, Note_on_c, 4, 50, 0
12, 4440, Note_on_c, 4, 62, 92
12, 4440, Note_on_c, 4, 50, 92
12, 4539, Note_on_c, 4, 62, 0
12, 4539, Note_on_c, 4, 50, 0
12, 4560, Note_on_c, 4, 62, 92
12, 4560, Note_on_c, 4, 50, 92
12, 4739, Note_on_c, 4, 62, 0
12, 4739, Note_on_c, 4, 50, 0
12, 4800, Note_on_c, 4, 57, 92
12, 4800, Note_on_c, 4, 69, 92
12, 4979, Note_on_c, 4, 57, 0
12, 4979, Note_on_c, 4, 69, 0
12, 12240, Note_on_c, 4, 66, 92
12, 12240, Note_on_c, 4, 69, 92
12, 14139, Note_on_c, 4, 66, 0
12, 14139, Note_on_c, 4, 69, 0
12, 14160, Note_on_c, 4, 69, 92
12, 14160, Note_on_c, 4, 66, 92
12, 14379, Note_on_c, 4, 69, 0
12, 14379, Note_on_c, 4, 66, 0
12, 14400, Note_on_c, 4, 66, 92
12, 14400, Note_on_c, 4, 69, 92
12, 14619, Note_on_c, 4, 66, 0
12, 14619, Note_on_c, 4, 69, 0
12, 14640, Note_on_c, 4, 69, 92
12, 14640, Note_on_c, 4, 66, 92
12, 14739, Note_on_c, 4, 69, 0
12, 14739, Note_on_c, 4, 66, 0
12, 14760, Note_on_c, 4, 54, 92
12, 14760, Note_on_c, 4, 66, 92
12, 14859, Note_on_c, 4, 54, 0
12, 14859, Note_on_c, 4, 66, 0
12, 14880, Note_on_c, 4, 66, 92
12, 14880, Note_on_c, 4, 54, 92
12, 14979, Note_on_c, 4, 66, 0
12, 14979, Note_on_c, 4, 54, 0
12, 15000, Note_on_c, 4, 57, 92
12, 15000, Note_on_c, 4, 69, 92
12, 15099, Note_on_c, 4, 57, 0
12, 15099, Note_on_c, 4, 69, 0
12, 15120, Note_on_c, 4, 57, 92
12, 15120, Note_on_c, 4, 69, 92
12, 15219, Note_on_c, 4, 57, 0
12, 15219, Note_on_c, 4, 69, 0
12, 15240, Note_on_c, 4, 54, 92
12, 15339, Note_on_c, 4, 54, 0
12, 15360, Note_on_c, 4, 54, 92
12, 15459, Note_on_c, 4, 54, 0
12, 15480, Note_on_c, 4, 60, 92
12, 15579, Note_on_c, 4, 60, 0
12, 15600, Note_on_c, 4, 60, 92
12, 15719, Note_on_c, 4, 60, 0
12, 16560, Note_on_c, 4, 57, 92
12, 16560, Note_on_c, 4, 69, 92
12, 16659, Note_on_c, 4, 57, 0
12, 16659, Note_on_c, 4, 69, 0
12, 16680, Note_on_c, 4, 57, 92
12, 16680, Note_on_c, 4, 69, 92
12, 16779, Note_on_c, 4, 57, 0
12, 16779, Note_on_c, 4, 69, 0
12, 16800, Note_on_c, 4, 69, 92
12, 16800, Note_on_c, 4, 57, 92
12, 17039, Note_on_c, 4, 69, 0
12, 17039, Note_on_c, 4, 57, 0
12, 17400, Note_on_c, 4, 69, 92
12, 17400, Note_on_c, 4, 57, 92
12, 17499, Note_on_c, 4, 69, 0
12, 17499, Note_on_c, 4, 57, 0
12, 17520, Note_on_c, 4, 69, 92
12, 17520, Note_on_c, 4, 57, 92
12, 17759, Note_on_c, 4, 69, 0
12, 17759, Note_on_c, 4, 57, 0
12, 20640, Note_on_c, 4, 50, 80
12, 20640, Note_on_c, 4, 62, 80
12, 20759, Note_on_c, 4, 50, 0
12, 20759, Note_on_c, 4, 62, 0
12, 20880, Note_on_c, 4, 62, 80
12, 20880, Note_on_c, 4, 50, 80
12, 20999, Note_on_c, 4, 62, 0
12, 20999, Note_on_c, 4, 50, 0
12, 21120, Note_on_c, 4, 57, 32
12, 21120, Note_on_c, 4, 64, 32
12, 23039, Note_on_c, 4, 57, 0
12, 23039, Note_on_c, 4, 64, 0
12, 23040, Note_on_c, 4, 64, 32
12, 23040, Note_on_c, 4, 57, 32
12, 24959, Note_on_c, 4, 64, 0
12, 24959, Note_on_c, 4, 57, 0
12, 24960, Note_on_c, 4, 66, 80
12, 24960, Note_on_c, 4, 54, 80
12, 25199, Note_on_c, 4, 66, 0
12, 25199, Note_on_c, 4, 54, 0
12, 53280, Note_on_c, 4, 64, 44
12, 53744, Note_on_c, 4, 64, 0
12, 53760, Note_on_c, 4, 57, 44
12, 53760, Note_on_c, 4, 45, 44
12, 57824, Note_on_c, 4, 57, 0
12, 57824, Note_on_c, 4, 45, 0
12, 57840, Note_on_c, 4, 57, 80
12, 57840, Note_on_c, 4, 64, 80
12, 58019, Note_on_c, 4, 57, 0
12, 58019, Note_on_c, 4, 64, 0
12, 58560, Note_on_c, 4, 57, 80
12, 58560, Note_on_c, 4, 64, 80
12, 58739, Note_on_c, 4, 57, 0
12, 58739, Note_on_c, 4, 64, 0
12, 59280, Note_on_c, 4, 57, 80
12, 59280, Note_on_c, 4, 64, 80
12, 59459, Note_on_c, 4, 57, 0
12, 59459, Note_on_c, 4, 64, 0
12, 60000, Note_on_c, 4, 66, 80
12, 60000, Note_on_c, 4, 62, 80
12, 60179, Note_on_c, 4, 66, 0
12, 60179, Note_on_c, 4, 62, 0
12, 62880, Note_on_c, 4, 62, 80
12, 62880, Note_on_c, 4, 67, 80
12, 63104, Note_on_c, 4, 62, 0
12, 63104, Note_on_c, 4, 67, 0
12, 63120, Note_on_c, 4, 67, 80
12, 63120, Note_on_c, 4, 62, 80
12, 63239, Note_on_c, 4, 67, 0
12, 63239, Note_on_c, 4, 62, 0
12, 64800, Note_on_c, 4, 57, 92
12, 64800, Note_on_c, 4, 64, 92
12, 65039, Note_on_c, 4, 57, 0
12, 65039, Note_on_c, 4, 64, 0
12, 65280, Note_on_c, 4, 62, 92
12, 65280, Note_on_c, 4, 66, 92
12, 65519, Note_on_c, 4, 62, 0
12, 65519, Note_on_c, 4, 66, 0
12, 134640, Note_on_c, 4, 66, 80
12, 134640, Note_on_c, 4, 62, 80
12, 135119, Note_on_c, 4, 66, 0
12, 135119, Note_on_c, 4, 62, 0
12, 135120, Note_on_c, 4, 64, 80
12, 135120, Note_on_c, 4, 67, 80
12, 135359, Note_on_c, 4, 64, 0
12, 135359, Note_on_c, 4, 67, 0
12, 135360, Note_on_c, 4, 69, 80
12, 135360, Note_on_c, 4, 66, 80
12, 135584, Note_on_c, 4, 69, 0
12, 135584, Note_on_c, 4, 66, 0
12, 135600, Note_on_c, 4, 69, 80
12, 135600, Note_on_c, 4, 66, 80
12, 135839, Note_on_c, 4, 69, 0
12, 135839, Note_on_c, 4, 66, 0
12, 135840, Note_on_c, 4, 64, 80
12, 135840, Note_on_c, 4, 67, 80
12, 136064, Note_on_c, 4, 64, 0
12, 136064, Note_on_c, 4, 67, 0
12, 136080, Note_on_c, 4, 62, 80
12, 136080, Note_on_c, 4, 66, 80
12, 136289, Note_on_c, 4, 62, 0
12, 136289, Note_on_c, 4, 66, 0
12, 136320, Note_on_c, 4, 57, 80
12, 136320, Note_on_c, 4, 64, 80
12, 136499, Note_on_c, 4, 57, 0
12, 136499, Note_on_c, 4, 64, 0
12, 136560, Note_on_c, 4, 54, 80
12, 136560, Note_on_c, 4, 62, 80
12, 136784, Note_on_c, 4, 54, 0
12, 136784, Note_on_c, 4, 62, 0
12, 136800, Note_on_c, 4, 62, 80
12, 136800, Note_on_c, 4, 54, 80
12, 137039, Note_on_c, 4, 62, 0
12, 137039, Note_on_c, 4, 54, 0
12, 137040, Note_on_c, 4, 57, 80
12, 137040, Note_on_c, 4, 64, 80
12, 137279, Note_on_c, 4, 57, 0
12, 137279, Note_on_c, 4, 64, 0
12, 137280, Note_on_c, 4, 66, 80
12, 137280, Note_on_c, 4, 62, 80
12, 137504, Note_on_c, 4, 66, 0
12, 137504, Note_on_c, 4, 62, 0
12, 137520, Note_on_c, 4, 66, 80
12, 137520, Note_on_c, 4, 62, 80
12, 137879, Note_on_c, 4, 66, 0
12, 137879, Note_on_c, 4, 62, 0
12, 137880, Note_on_c, 4, 64, 80
12, 137880, Note_on_c, 4, 57, 80
12, 137984, Note_on_c, 4, 64, 0
12, 137984, Note_on_c, 4, 57, 0
12, 138000, Note_on_c, 4, 57, 80
12, 138000, Note_on_c, 4, 64, 80
12, 138464, Note_on_c, 4, 57, 0
12, 138464, Note_on_c, 4, 64, 0
12, 138480, Note_on_c, 4, 62, 92
12, 138480, Note_on_c, 4, 66, 92
12, 138540, Control_c, 4, 11, 107
12, 138959, Note_on_c, 4, 62, 0
12, 138959, Note_on_c, 4, 66, 0
12, 138960, Note_on_c, 4, 64, 92
12, 138960, Note_on_c, 4, 67, 92
12, 139199, Note_on_c, 4, 64, 0
12, 139199, Note_on_c, 4, 67, 0
12, 139200, Note_on_c, 4, 69, 92
12, 139200, Note_on_c, 4, 66, 92
12, 139424, Note_on_c, 4, 69, 0
12, 139424, Note_on_c, 4, 66, 0
12, 139438, Control_c, 4, 11, 127
12, 139440, Note_on_c, 4, 69, 80
12, 139440, Note_on_c, 4, 66, 80
12, 139679, Note_on_c, 4, 69, 0
12, 139679, Note_on_c, 4, 66, 0
12, 139680, Note_on_c, 4, 64, 80
12, 139680, Note_on_c, 4, 67, 80
12, 139904, Note_on_c, 4, 64, 0
12, 139904, Note_on_c, 4, 67, 0
12, 139920, Note_on_c, 4, 66, 80
12, 139920, Note_on_c, 4, 62, 80
12, 140129, Note_on_c, 4, 66, 0
12, 140129, Note_on_c, 4, 62, 0
12, 140160, Note_on_c, 4, 57, 80
12, 140160, Note_on_c, 4, 64, 80
12, 140339, Note_on_c, 4, 57, 0
12, 140339, Note_on_c, 4, 64, 0
12, 140400, Note_on_c, 4, 54, 80
12, 140400, Note_on_c, 4, 62, 80
12, 140609, Note_on_c, 4, 54, 0
12, 140609, Note_on_c, 4, 62, 0
12, 140640, Note_on_c, 4, 62, 80
12, 140640, Note_on_c, 4, 54, 80
12, 140849, Note_on_c, 4, 62, 0
12, 140849, Note_on_c, 4, 54, 0
12, 140880, Note_on_c, 4, 57, 80
12, 140880, Note_on_c, 4, 64, 80
12, 141089, Note_on_c, 4, 57, 0
12, 141089, Note_on_c, 4, 64, 0
12, 141120, Note_on_c, 4, 66, 80
12, 141120, Note_on_c, 4, 62, 80
12, 141299, Note_on_c, 4, 66, 0
12, 141299, Note_on_c, 4, 62, 0
12, 141360, Note_on_c, 4, 57, 80
12, 141360, Note_on_c, 4, 64, 80
12, 141719, Note_on_c, 4, 57, 0
12, 141719, Note_on_c, 4, 64, 0
12, 141720, Note_on_c, 4, 62, 80
12, 141720, Note_on_c, 4, 54, 80
12, 141824, Note_on_c, 4, 62, 0
12, 141824, Note_on_c, 4, 54, 0
12, 141840, Note_on_c, 4, 54, 80
12, 141840, Note_on_c, 4, 62, 80
12, 142304, Note_on_c, 4, 54, 0
12, 142304, Note_on_c, 4, 62, 0
12, 142320, Note_on_c, 4, 57, 80
12, 142320, Note_on_c, 4, 64, 80
12, 142799, Note_on_c, 4, 57, 0
12, 142799, Note_on_c, 4, 64, 0
12, 142800, Note_on_c, 4, 66, 80
12, 142800, Note_on_c, 4, 62, 80
12, 143039, Note_on_c, 4, 66, 0
12, 143039, Note_on_c, 4, 62, 0
12, 143040, Note_on_c, 4, 62, 80
12, 143040, Note_on_c, 4, 54, 80
12, 143264, Note_on_c, 4, 62, 0
12, 143264, Note_on_c, 4, 54, 0
12, 143280, Note_on_c, 4, 57, 80
12, 143280, Note_on_c, 4, 64, 80
12, 143519, Note_on_c, 4, 57, 0
12, 143519, Note_on_c, 4, 64, 0
12, 143520, Note_on_c, 4, 62, 80
12, 143520, Note_on_c, 4, 66, 80
12, 143639, Note_on_c, 4, 62, 0
12, 143639, Note_on_c, 4, 66, 0
12, 143640, Note_on_c, 4, 64, 80
12, 143640, Note_on_c, 4, 67, 80
12, 143759, Note_on_c, 4, 64, 0
12, 143759, Note_on_c, 4, 67, 0
12, 143760, Note_on_c, 4, 66, 80
12, 143760, Note_on_c, 4, 62, 80
12, 143984, Note_on_c, 4, 66, 0
12, 143984, Note_on_c, 4, 62, 0
12, 144000, Note_on_c, 4, 62, 80
12, 144000, Note_on_c, 4, 54, 80
12, 144179, Note_on_c, 4, 62, 0
12, 144179, Note_on_c, 4, 54, 0
12, 144240, Note_on_c, 4, 64, 80
12, 144240, Note_on_c, 4, 57, 80
12, 144479, Note_on_c, 4, 64, 0
12, 144479, Note_on_c, 4, 57, 0
12, 144480, Note_on_c, 4, 66, 80
12, 144480, Note_on_c, 4, 62, 80
12, 144599, Note_on_c, 4, 66, 0
12, 144599, Note_on_c, 4, 62, 0
12, 144600, Note_on_c, 4, 64, 80
12, 144600, Note_on_c, 4, 67, 80
12, 144704, Note_on_c, 4, 64, 0
12, 144704, Note_on_c, 4, 67, 0
12, 144720, Note_on_c, 4, 66, 80
12, 144720, Note_on_c, 4, 54, 80
12, 144944, Note_on_c, 4, 66, 0
12, 144944, Note_on_c, 4, 54, 0
12, 144960, Note_on_c, 4, 54, 80
12, 144960, Note_on_c, 4, 66, 80
12, 145184, Note_on_c, 4, 54, 0
12, 145184, Note_on_c, 4, 66, 0
12, 145200, Note_on_c, 4, 66, 80
12, 145200, Note_on_c, 4, 54, 80
12, 145379, Note_on_c, 4, 66, 0
12, 145379, Note_on_c, 4, 54, 0
12, 145440, Note_on_c, 4, 64, 80
12, 145619, Note_on_c, 4, 64, 0
12, 145680, Note_on_c, 4, 57, 80
12, 145859, Note_on_c, 4, 57, 0
12, 145920, Note_on_c, 4, 62, 80
12, 145920, Note_on_c, 4, 66, 80
12, 146384, Note_on_c, 4, 62, 0
12, 146384, Note_on_c, 4, 66, 0
12, 146400, Note_on_c, 4, 66, 80
12, 146400, Note_on_c, 4, 62, 80
12, 146609, Note_on_c, 4, 66, 0
12, 146609, Note_on_c, 4, 62, 0
12, 146640, Note_on_c, 4, 67, 80
12, 146640, Note_on_c, 4, 64, 80
12, 146849, Note_on_c, 4, 67, 0
12, 146849, Note_on_c, 4, 64, 0
12, 146880, Note_on_c, 4, 69, 80
12, 146880, Note_on_c, 4, 66, 80
12, 147059, Note_on_c, 4, 69, 0
12, 147059, Note_on_c, 4, 66, 0
12, 147120, Note_on_c, 4, 69, 80
12, 147120, Note_on_c, 4, 66, 80
12, 147359, Note_on_c, 4, 69, 0
12, 147359, Note_on_c, 4, 66, 0
12, 147360, Note_on_c, 4, 64, 80
12, 147360, Note_on_c, 4, 67, 80
12, 147584, Note_on_c, 4, 64, 0
12, 147584, Note_on_c, 4, 67, 0
12, 147600, Note_on_c, 4, 66, 80
12, 147600, Note_on_c, 4, 62, 80
12, 147809, Note_on_c, 4, 66, 0
12, 147809, Note_on_c, 4, 62, 0
12, 147840, Note_on_c, 4, 64, 80
12, 147840, Note_on_c, 4, 57, 80
12, 148019, Note_on_c, 4, 64, 0
12, 148019, Note_on_c, 4, 57, 0
12, 148080, Note_on_c, 4, 62, 80
12, 148080, Note_on_c, 4, 54, 80
12, 148289, Note_on_c, 4, 62, 0
12, 148289, Note_on_c, 4, 54, 0
12, 148320, Note_on_c, 4, 62, 80
12, 148320, Note_on_c, 4, 54, 80
12, 148529, Note_on_c, 4, 62, 0
12, 148529, Note_on_c, 4, 54, 0
12, 148560, Note_on_c, 4, 57, 80
12, 148560, Note_on_c, 4, 64, 80
12, 148769, Note_on_c, 4, 57, 0
12, 148769, Note_on_c, 4, 64, 0
12, 148800, Note_on_c, 4, 66, 80
12, 148800, Note_on_c, 4, 62, 80
12, 148979, Note_on_c, 4, 66, 0
12, 148979, Note_on_c, 4, 62, 0
12, 149040, Note_on_c, 4, 57, 80
12, 149040, Note_on_c, 4, 64, 80
12, 149399, Note_on_c, 4, 57, 0
12, 149399, Note_on_c, 4, 64, 0
12, 149400, Note_on_c, 4, 54, 80
12, 149400, Note_on_c, 4, 62, 80
12, 149504, Note_on_c, 4, 54, 0
12, 149504, Note_on_c, 4, 62, 0
12, 149520, Note_on_c, 4, 62, 80
12, 149520, Note_on_c, 4, 54, 80
12, 149609, Note_on_c, 4, 62, 0
12, 149609, Note_on_c, 4, 54, 0
12, 149640, Note_on_c, 4, 66, 80
12, 149640, Note_on_c, 4, 69, 80
12, 149759, Note_on_c, 4, 66, 0
12, 149759, Note_on_c, 4, 69, 0
12, 149760, Note_on_c, 4, 67, 80
12, 149760, Note_on_c, 4, 64, 80
12, 149879, Note_on_c, 4, 67, 0
12, 149879, Note_on_c, 4, 64, 0
12, 149880, Note_on_c, 4, 66, 80
12, 149880, Note_on_c, 4, 62, 80
12, 149984, Note_on_c, 4, 66, 0
12, 149984, Note_on_c, 4, 62, 0
12, 150000, Note_on_c, 4, 64, 92
12, 150000, Note_on_c, 4, 57, 92
12, 150060, Control_c, 4, 11, 107
12, 150464, Note_on_c, 4, 64, 0
12, 150464, Note_on_c, 4, 57, 0
12, 150478, Control_c, 4, 11, 127
12, 150480, Note_on_c, 4, 66, 80
12, 150480, Note_on_c, 4, 62, 80
12, 150719, Note_on_c, 4, 66, 0
12, 150719, Note_on_c, 4, 62, 0
12, 150720, Note_on_c, 4, 62, 80
12, 150720, Note_on_c, 4, 54, 80
12, 150944, Note_on_c, 4, 62, 0
12, 150944, Note_on_c, 4, 54, 0
12, 150960, Note_on_c, 4, 57, 80
12, 150960, Note_on_c, 4, 64, 80
12, 151199, Note_on_c, 4, 57, 0
12, 151199, Note_on_c, 4, 64, 0
12, 151200, Note_on_c, 4, 62, 80
12, 151200, Note_on_c, 4, 66, 80
12, 151319, Note_on_c, 4, 62, 0
12, 151319, Note_on_c, 4, 66, 0
12, 151320, Note_on_c, 4, 67, 80
12, 151320, Note_on_c, 4, 64, 80
12, 151439, Note_on_c, 4, 67, 0
12, 151439, Note_on_c, 4, 64, 0
12, 151440, Note_on_c, 4, 62, 80
12, 151440, Note_on_c, 4, 66, 80
12, 151664, Note_on_c, 4, 62, 0
12, 151664, Note_on_c, 4, 66, 0
12, 151680, Note_on_c, 4, 54, 80
12, 151680, Note_on_c, 4, 62, 80
12, 151859, Note_on_c, 4, 54, 0
12, 151859, Note_on_c, 4, 62, 0
12, 151920, Note_on_c, 4, 64, 80
12, 151920, Note_on_c, 4, 57, 80
12, 152159, Note_on_c, 4, 64, 0
12, 152159, Note_on_c, 4, 57, 0
12, 152160, Note_on_c, 4, 62, 80
12, 152160, Note_on_c, 4, 66, 80
12, 152279, Note_on_c, 4, 62, 0
12, 152279, Note_on_c, 4, 66, 0
12, 152280, Note_on_c, 4, 64, 80
12, 152280, Note_on_c, 4, 67, 80
12, 152384, Note_on_c, 4, 64, 0
12, 152384, Note_on_c, 4, 67, 0
12, 152400, Note_on_c, 4, 66, 80
12, 152400, Note_on_c, 4, 54, 80
12, 152624, Note_on_c, 4, 66, 0
12, 152624, Note_on_c, 4, 54, 0
12, 152640, Note_on_c, 4, 66, 80
12, 152640, Note_on_c, 4, 54, 80
12, 152864, Note_on_c, 4, 66, 0
12, 152864, Note_on_c, 4, 54, 0
12, 152880, Note_on_c, 4, 66, 80
12, 152880, Note_on_c, 4, 54, 80
12, 153059, Note_on_c, 4, 66, 0
12, 153059, Note_on_c, 4, 54, 0
12, 153120, Note_on_c, 4, 64, 80
12, 153299, Note_on_c, 4, 64, 0
12, 153360, Note_on_c, 4, 57, 80
12, 153539, Note_on_c, 4, 57, 0
12, 153600, Note_on_c, 4, 62, 80
12, 153600, Note_on_c, 4, 66, 80
12, 154064, Note_on_c, 4, 62, 0
12, 154064, Note_on_c, 4, 66, 0
12, 154080, Note_on_c, 4, 66, 80
12, 154080, Note_on_c, 4, 62, 80
12, 154289, Note_on_c, 4, 66, 0
12, 154289, Note_on_c, 4, 62, 0
12, 154320, Note_on_c, 4, 67, 80
12, 154320, Note_on_c, 4, 64, 80
12, 154529, Note_on_c, 4, 67, 0
12, 154529, Note_on_c, 4, 64, 0
12, 154560, Note_on_c, 4, 69, 80
12, 154560, Note_on_c, 4, 66, 80
12, 154739, Note_on_c, 4, 69, 0
12, 154739, Note_on_c, 4, 66, 0
12, 154800, Note_on_c, 4, 66, 80
12, 154800, Note_on_c, 4, 69, 80
12, 155039, Note_on_c, 4, 66, 0
12, 155039, Note_on_c, 4, 69, 0
12, 155040, Note_on_c, 4, 67, 80
12, 155040, Note_on_c, 4, 64, 80
12, 155264, Note_on_c, 4, 67, 0
12, 155264, Note_on_c, 4, 64, 0
12, 155280, Note_on_c, 4, 66, 80
12, 155280, Note_on_c, 4, 62, 80
12, 155489, Note_on_c, 4, 66, 0
12, 155489, Note_on_c, 4, 62, 0
12, 155520, Note_on_c, 4, 64, 80
12, 155520, Note_on_c, 4, 57, 80
12, 155699, Note_on_c, 4, 64, 0
12, 155699, Note_on_c, 4, 57, 0
12, 155760, Note_on_c, 4, 54, 80
12, 155760, Note_on_c, 4, 62, 80
12, 155984, Note_on_c, 4, 54, 0
12, 155984, Note_on_c, 4, 62, 0
12, 156000, Note_on_c, 4, 62, 80
12, 156000, Note_on_c, 4, 54, 80
12, 156209, Note_on_c, 4, 62, 0
12, 156209, Note_on_c, 4, 54, 0
12, 156240, Note_on_c, 4, 57, 80
12, 156240, Note_on_c, 4, 64, 80
12, 156449, Note_on_c, 4, 57, 0
12, 156449, Note_on_c, 4, 64, 0
12, 156480, Note_on_c, 4, 66, 80
12, 156480, Note_on_c, 4, 62, 80
12, 156659, Note_on_c, 4, 66, 0
12, 156659, Note_on_c, 4, 62, 0
12, 156720, Note_on_c, 4, 64, 80
12, 156720, Note_on_c, 4, 57, 80
12, 157079, Note_on_c, 4, 64, 0
12, 157079, Note_on_c, 4, 57, 0
12, 157080, Note_on_c, 4, 54, 80
12, 157080, Note_on_c, 4, 62, 80
12, 157184, Note_on_c, 4, 54, 0
12, 157184, Note_on_c, 4, 62, 0
12, 157200, Note_on_c, 4, 54, 80
12, 157200, Note_on_c, 4, 62, 80
12, 157424, Note_on_c, 4, 54, 0
12, 157424, Note_on_c, 4, 62, 0
12, 157440, Note_on_c, 4, 66, 80
12, 157440, Note_on_c, 4, 69, 80
12, 157679, Note_on_c, 4, 66, 0
12, 157679, Note_on_c, 4, 69, 0
12, 157680, Note_on_c, 4, 67, 80
12, 157680, Note_on_c, 4, 64, 80
12, 158039, Note_on_c, 4, 67, 0
12, 158039, Note_on_c, 4, 64, 0
12, 158040, Note_on_c, 4, 62, 80
12, 158040, Note_on_c, 4, 66, 80
12, 158144, Note_on_c, 4, 62, 0
12, 158144, Note_on_c, 4, 66, 0
12, 158160, Note_on_c, 4, 62, 80
12, 158160, Note_on_c, 4, 66, 80
12, 158384, Note_on_c, 4, 62, 0
12, 158384, Note_on_c, 4, 66, 0
12, 158400, Note_on_c, 4, 62, 80
12, 158400, Note_on_c, 4, 50, 80
12, 158639, Note_on_c, 4, 62, 0
12, 158639, Note_on_c, 4, 50, 0
12, 158640, Note_on_c, 4, 66, 80
12, 158640, Note_on_c, 4, 62, 80
12, 158999, Note_on_c, 4, 66, 0
12, 158999, Note_on_c, 4, 62, 0
12, 159000, Note_on_c, 4, 67, 80
12, 159000, Note_on_c, 4, 62, 80
12, 159104, Note_on_c, 4, 67, 0
12, 159104, Note_on_c, 4, 62, 0
12, 159120, Note_on_c, 4, 67, 80
12, 159120, Note_on_c, 4, 62, 80
12, 159344, Note_on_c, 4, 67, 0
12, 159344, Note_on_c, 4, 62, 0
12, 159360, Note_on_c, 4, 50, 80
12, 159360, Note_on_c, 4, 62, 80
12, 159584, Note_on_c, 4, 50, 0
12, 159584, Note_on_c, 4, 62, 0
12, 159600, Note_on_c, 4, 62, 80
12, 159600, Note_on_c, 4, 50, 80
12, 159944, Note_on_c, 4, 62, 0
12, 159944, Note_on_c, 4, 50, 0
12, 159960, Note_on_c, 4, 64, 80
12, 159960, Note_on_c, 4, 62, 80
12, 160064, Note_on_c, 4, 64, 0
12, 160064, Note_on_c, 4, 62, 0
12, 160080, Note_on_c, 4, 64, 80
12, 160080, Note_on_c, 4, 57, 80
12, 160304, Note_on_c, 4, 64, 0
12, 160304, Note_on_c, 4, 57, 0
12, 160320, Note_on_c, 4, 57, 80
12, 160320, Note_on_c, 4, 64, 80
12, 160439, Note_on_c, 4, 64, 0
12, 160440, Note_on_c, 4, 66, 80
12, 160544, Note_on_c, 4, 57, 0
12, 160544, Note_on_c, 4, 66, 0
12, 160560, Note_on_c, 4, 64, 80
12, 160560, Note_on_c, 4, 57, 80
12, 160919, Note_on_c, 4, 64, 0
12, 160919, Note_on_c, 4, 57, 0
12, 160920, Note_on_c, 4, 62, 80
12, 160920, Note_on_c, 4, 54, 80
12, 161024, Note_on_c, 4, 62, 0
12, 161024, Note_on_c, 4, 54, 0
12, 161040, Note_on_c, 4, 62, 80
12, 161040, Note_on_c, 4, 54, 80
12, 161159, Note_on_c, 4, 62, 0
12, 161159, Note_on_c, 4, 54, 0
12, 161160, Note_on_c, 4, 57, 80
12, 161160, Note_on_c, 4, 45, 80
12, 161279, Note_on_c, 4, 57, 0
12, 161279, Note_on_c, 4, 45, 0
12, 161280, Note_on_c, 4, 69, 80
12, 161280, Note_on_c, 4, 57, 80
12, 161399, Note_on_c, 4, 69, 0
12, 161399, Note_on_c, 4, 57, 0
12, 161400, Note_on_c, 4, 54, 80
12, 161400, Note_on_c, 4, 66, 80
12, 161504, Note_on_c, 4, 54, 0
12, 161504, Note_on_c, 4, 66, 0
12, 161520, Note_on_c, 4, 66, 80
12, 161520, Note_on_c, 4, 62, 80
12, 161879, Note_on_c, 4, 66, 0
12, 161880, Note_on_c, 4, 64, 80
12, 161984, Note_on_c, 4, 62, 0
12, 161984, Note_on_c, 4, 64, 0
12, 162000, Note_on_c, 4, 57, 80
12, 162000, Note_on_c, 4, 64, 80
12, 162224, Note_on_c, 4, 57, 0
12, 162224, Note_on_c, 4, 64, 0
12, 162240, Note_on_c, 4, 64, 80
12, 162824, Note_on_c, 4, 64, 0
12, 162840, Note_on_c, 4, 54, 80
12, 162840, Note_on_c, 4, 66, 80
12, 162944, Note_on_c, 4, 54, 0
12, 162944, Note_on_c, 4, 66, 0
12, 162960, Note_on_c, 4, 66, 80
12, 162960, Note_on_c, 4, 54, 80
12, 163184, Note_on_c, 4, 66, 0
12, 163184, Note_on_c, 4, 54, 0
12, 163200, Note_on_c, 4, 54, 80
12, 163200, Note_on_c, 4, 66, 80
12, 163679, Note_on_c, 4, 54, 0
12, 163679, Note_on_c, 4, 66, 0
12, 164400, Note_on_c, 4, 64, 80
12, 164400, Note_on_c, 4, 67, 80
12, 164639, Note_on_c, 4, 64, 0
12, 164639, Note_on_c, 4, 67, 0
12, 164880, Note_on_c, 4, 54, 80
12, 164880, Note_on_c, 4, 66, 80
12, 165119, Note_on_c, 4, 54, 0
12, 165119, Note_on_c, 4, 66, 0
12, 165840, Note_on_c, 4, 66, 80
12, 165840, Note_on_c, 4, 54, 80
12, 166064, Note_on_c, 4, 66, 0
12, 166064, Note_on_c, 4, 54, 0
12, 166080, Note_on_c, 4, 54, 80
12, 166080, Note_on_c, 4, 66, 80
12, 166304, Note_on_c, 4, 54, 0
12, 166304, Note_on_c, 4, 66, 0
12, 166320, Note_on_c, 4, 64, 80
12, 166664, Note_on_c, 4, 64, 0
12, 166680, Note_on_c, 4, 64, 80
12, 166784, Note_on_c, 4, 64, 0
12, 166800, Note_on_c, 4, 64, 80
12, 167144, Note_on_c, 4, 64, 0
12, 167160, Note_on_c, 4, 64, 80
12, 167264, Note_on_c, 4, 64, 0
12, 167280, Note_on_c, 4, 64, 80
12, 167624, Note_on_c, 4, 64, 0
12, 167640, Note_on_c, 4, 64, 80
12, 167744, Note_on_c, 4, 64, 0
12, 167760, Note_on_c, 4, 64, 80
12, 167864, Note_on_c, 4, 64, 0
12, 167880, Note_on_c, 4, 64, 80
12, 167984, Note_on_c, 4, 64, 0
12, 168000, Note_on_c, 4, 64, 80
12, 168104, Note_on_c, 4, 64, 0
12, 168120, Note_on_c, 4, 64, 80
12, 168224, Note_on_c, 4, 64, 0
12, 168240, Note_on_c, 4, 64, 80
12, 168464, Note_on_c, 4, 64, 0
12, 168480, Note_on_c, 4, 57, 80
12, 168480, Note_on_c, 4, 69, 80
12, 168584, Note_on_c, 4, 57, 0
12, 168584, Note_on_c, 4, 69, 0
12, 168600, Note_on_c, 4, 69, 80
12, 168600, Note_on_c, 4, 57, 80
12, 168704, Note_on_c, 4, 69, 0
12, 168704, Note_on_c, 4, 57, 0
12, 168720, Note_on_c, 4, 57, 80
12, 168720, Note_on_c, 4, 69, 80
12, 168944, Note_on_c, 4, 57, 0
12, 168944, Note_on_c, 4, 69, 0
12, 168960, Note_on_c, 4, 57, 80
12, 168960, Note_on_c, 4, 69, 80
12, 169064, Note_on_c, 4, 57, 0
12, 169064, Note_on_c, 4, 69, 0
12, 169080, Note_on_c, 4, 57, 80
12, 169080, Note_on_c, 4, 69, 80
12, 169184, Note_on_c, 4, 57, 0
12, 169184, Note_on_c, 4, 69, 0
12, 169200, Note_on_c, 4, 57, 80
12, 169200, Note_on_c, 4, 69, 80
12, 169304, Note_on_c, 4, 57, 0
12, 169304, Note_on_c, 4, 69, 0
12, 169320, Note_on_c, 4, 69, 80
12, 169320, Note_on_c, 4, 57, 80
12, 169424, Note_on_c, 4, 69, 0
12, 169424, Note_on_c, 4, 57, 0
12, 169440, Note_on_c, 4, 69, 80
12, 169440, Note_on_c, 4, 57, 80
12, 169544, Note_on_c, 4, 69, 0
12, 169544, Note_on_c, 4, 57, 0
12, 169560, Note_on_c, 4, 57, 80
12, 169560, Note_on_c, 4, 69, 80
12, 169664, Note_on_c, 4, 57, 0
12, 169664, Note_on_c, 4, 69, 0
12, 169680, Note_on_c, 4, 69, 80
12, 169680, Note_on_c, 4, 57, 80
12, 169784, Note_on_c, 4, 69, 0
12, 169784, Note_on_c, 4, 57, 0
12, 169800, Note_on_c, 4, 69, 80
12, 169800, Note_on_c, 4, 57, 80
12, 169904, Note_on_c, 4, 69, 0
12, 169904, Note_on_c, 4, 57, 0
12, 169920, Note_on_c, 4, 64, 80
12, 170024, Note_on_c, 4, 64, 0
12, 170040, Note_on_c, 4, 64, 80
12, 170144, Note_on_c, 4, 64, 0
12, 170160, Note_on_c, 4, 69, 92
12, 170160, Note_on_c, 4, 57, 92
12, 170220, Control_c, 4, 11, 107
12, 170624, Note_on_c, 4, 69, 0
12, 170624, Note_on_c, 4, 57, 0
12, 170638, Control_c, 4, 11, 127
12, 170640, Note_on_c, 4, 64, 80
12, 170819, Note_on_c, 4, 64, 0
12, 170880, Note_on_c, 4, 64, 80
12, 171059, Note_on_c, 4, 64, 0
12, 171120, Note_on_c, 4, 57, 92
12, 171120, Note_on_c, 4, 69, 92
12, 171180, Control_c, 4, 11, 107
12, 171584, Note_on_c, 4, 57, 0
12, 171584, Note_on_c, 4, 69, 0
12, 171598, Control_c, 4, 11, 127
12, 171600, Note_on_c, 4, 64, 80
12, 171779, Note_on_c, 4, 64, 0
12, 171840, Note_on_c, 4, 64, 80
12, 172019, Note_on_c, 4, 64, 0
12, 174840, Note_on_c, 4, 64, 80
12, 175079, Note_on_c, 4, 64, 0
12, 175080, Note_on_c, 4, 69, 80
12, 175080, Note_on_c, 4, 57, 80
12, 175184, Note_on_c, 4, 69, 0
12, 175184, Note_on_c, 4, 57, 0
12, 175200, Note_on_c, 4, 57, 80
12, 175200, Note_on_c, 4, 69, 80
12, 175289, Note_on_c, 4, 57, 0
12, 175289, Note_on_c, 4, 69, 0
12, 175320, Note_on_c, 4, 69, 80
12, 175320, Note_on_c, 4, 66, 80
12, 175409, Note_on_c, 4, 69, 0
12, 175409, Note_on_c, 4, 66, 0
12, 175440, Note_on_c, 4, 69, 80
12, 175440, Note_on_c, 4, 64, 80
12, 175664, Note_on_c, 4, 64, 0
12, 175679, Note_on_c, 4, 69, 0
12, 175680, Note_on_c, 4, 64, 80
12, 175919, Note_on_c, 4, 64, 0
12, 176160, Note_on_c, 4, 64, 80
12, 176339, Note_on_c, 4, 64, 0
12, 176640, Note_on_c, 4, 57, 80
12, 176640, Note_on_c, 4, 69, 80
12, 176819, Note_on_c, 4, 57, 0
12, 176819, Note_on_c, 4, 69, 0
12, 177360, Note_on_c, 4, 65, 92
12, 177360, Note_on_c, 4, 62, 92
12, 179259, Note_on_c, 4, 65, 0
12, 179259, Note_on_c, 4, 62, 0
12, 179280, Note_on_c, 4, 62, 92
12, 179280, Note_on_c, 4, 65, 92
12, 179499, Note_on_c, 4, 62, 0
12, 179499, Note_on_c, 4, 65, 0
12, 179520, Note_on_c, 4, 65, 92
12, 179520, Note_on_c, 4, 62, 92
12, 179739, Note_on_c, 4, 65, 0
12, 179739, Note_on_c, 4, 62, 0
12, 179760, Note_on_c, 4, 62, 92
12, 179760, Note_on_c, 4, 65, 92
12, 179979, Note_on_c, 4, 62, 0
12, 179979, Note_on_c, 4, 65, 0
12, 180000, Note_on_c, 4, 62, 92
12, 180000, Note_on_c, 4, 65, 92
12, 180219, Note_on_c, 4, 62, 0
12, 180219, Note_on_c, 4, 65, 0
12, 180240, Note_on_c, 4, 65, 92
12, 180240, Note_on_c, 4, 62, 92
12, 180459, Note_on_c, 4, 65, 0
12, 180459, Note_on_c, 4, 62, 0
12, 180480, Note_on_c, 4, 62, 92
12, 180480, Note_on_c, 4, 65, 92
12, 180579, Note_on_c, 4, 62, 0
12, 180579, Note_on_c, 4, 65, 0
12, 180600, Note_on_c, 4, 62, 92
12, 180600, Note_on_c, 4, 50, 92
12, 180699, Note_on_c, 4, 62, 0
12, 180699, Note_on_c, 4, 50, 0
12, 180720, Note_on_c, 4, 50, 92
12, 180720, Note_on_c, 4, 62, 92
12, 180819, Note_on_c, 4, 50, 0
12, 180819, Note_on_c, 4, 62, 0
12, 180840, Note_on_c, 4, 50, 92
12, 180840, Note_on_c, 4, 62, 92
12, 180939, Note_on_c, 4, 50, 0
12, 180939, Note_on_c, 4, 62, 0
12, 180960, Note_on_c, 4, 50, 92
12, 180960, Note_on_c, 4, 62, 92
12, 181059, Note_on_c, 4, 50, 0
12, 181059, Note_on_c, 4, 62, 0
12, 181080, Note_on_c, 4, 62, 92
12, 181080, Note_on_c, 4, 50, 92
12, 181179, Note_on_c, 4, 62, 0
12, 181179, Note_on_c, 4, 50, 0
12, 181200, Note_on_c, 4, 62, 92
12, 181200, Note_on_c, 4, 50, 92
12, 181299, Note_on_c, 4, 62, 0
12, 181299, Note_on_c, 4, 50, 0
12, 181320, Note_on_c, 4, 62, 92
12, 181320, Note_on_c, 4, 50, 92
12, 181419, Note_on_c, 4, 62, 0
12, 181419, Note_on_c, 4, 50, 0
12, 181440, Note_on_c, 4, 50, 92
12, 181440, Note_on_c, 4, 62, 92
12, 181539, Note_on_c, 4, 50, 0
12, 181539, Note_on_c, 4, 62, 0
12, 181560, Note_on_c, 4, 62, 92
12, 181560, Note_on_c, 4, 50, 92
12, 181659, Note_on_c, 4, 62, 0
12, 181659, Note_on_c, 4, 50, 0
12, 181680, Note_on_c, 4, 50, 92
12, 181680, Note_on_c, 4, 62, 92
12, 181779, Note_on_c, 4, 50, 0
12, 181779, Note_on_c, 4, 62, 0
12, 181800, Note_on_c, 4, 62, 92
12, 181800, Note_on_c, 4, 50, 92
12, 181899, Note_on_c, 4, 62, 0
12, 181899, Note_on_c, 4, 50, 0
12, 181920, Note_on_c, 4, 50, 92
12, 181920, Note_on_c, 4, 62, 92
12, 182099, Note_on_c, 4, 50, 0
12, 182099, Note_on_c, 4, 62, 0
12, 182160, Note_on_c, 4, 57, 92
12, 182160, Note_on_c, 4, 69, 92
12, 182339, Note_on_c, 4, 57, 0
12, 182339, Note_on_c, 4, 69, 0
12, 192480, Note_on_c, 4, 57, 80
12, 192480, Note_on_c, 4, 64, 80
12, 192659, Note_on_c, 4, 57, 0
12, 192659, Note_on_c, 4, 64, 0
12, 192720, Note_on_c, 4, 57, 80
12, 192720, Note_on_c, 4, 69, 80
12, 192824, Note_on_c, 4, 57, 0
12, 192824, Note_on_c, 4, 69, 0
12, 192840, Note_on_c, 4, 69, 80
12, 192840, Note_on_c, 4, 57, 80
12, 192944, Note_on_c, 4, 69, 0
12, 192944, Note_on_c, 4, 57, 0
12, 192960, Note_on_c, 4, 66, 80
12, 192960, Note_on_c, 4, 69, 80
12, 193199, Note_on_c, 4, 66, 0
12, 193199, Note_on_c, 4, 69, 0
12, 195840, Note_on_c, 4, 67, 44
12, 195959, Note_on_c, 4, 67, 0
12, 196080, Note_on_c, 4, 67, 80
12, 196199, Note_on_c, 4, 67, 0
12, 197520, Note_on_c, 4, 57, 80
12, 197520, Note_on_c, 4, 64, 80
12, 197699, Note_on_c, 4, 57, 0
12, 197699, Note_on_c, 4, 64, 0
12, 197760, Note_on_c, 4, 45, 44
12, 197760, Note_on_c, 4, 57, 44
12, 201584, Note_on_c, 4, 45, 0
12, 201584, Note_on_c, 4, 57, 0
12, 201600, Note_on_c, 4, 50, 44
12, 201600, Note_on_c, 4, 57, 44
12, 201839, Note_on_c, 4, 50, 0
12, 201839, Note_on_c, 4, 57, 0
12, 216960, Note_on_c, 4, 57, 80
12, 216960, Note_on_c, 4, 69, 80
12, 220049, Note_on_c, 4, 57, 0
12, 220049, Note_on_c, 4, 69, 0
12, 220080, Note_on_c, 4, 67, 80
12, 220320, Note_on_c, 4, 64, 80
12, 220424, Note_on_c, 4, 64, 0
12, 220439, Note_on_c, 4, 67, 0
12, 220440, Note_on_c, 4, 57, 80
12, 220440, Note_on_c, 4, 64, 80
12, 220544, Note_on_c, 4, 57, 0
12, 220544, Note_on_c, 4, 64, 0
12, 220560, Note_on_c, 4, 57, 80
12, 220560, Note_on_c, 4, 62, 80
12, 220679, Note_on_c, 4, 57, 0
12, 220679, Note_on_c, 4, 62, 0
12, 220680, Note_on_c, 4, 57, 80
12, 220680, Note_on_c, 4, 45, 80
12, 221024, Note_on_c, 4, 57, 0
12, 221024, Note_on_c, 4, 45, 0
12, 221040, Note_on_c, 4, 69, 80
12, 221040, Note_on_c, 4, 57, 80
12, 221504, Note_on_c, 4, 69, 0
12, 221504, Note_on_c, 4, 57, 0
12, 221520, Note_on_c, 4, 69, 80
12, 221520, Note_on_c, 4, 57, 80
12, 221984, Note_on_c, 4, 69, 0
12, 221984, Note_on_c, 4, 57, 0
12, 222000, Note_on_c, 4, 57, 80
12, 222000, Note_on_c, 4, 69, 80
12, 222224, Note_on_c, 4, 57, 0
12, 222240, Note_on_c, 4, 62, 80
12, 222464, Note_on_c, 4, 69, 0
12, 222464, Note_on_c, 4, 62, 0
12, 222480, Note_on_c, 4, 64, 80
12, 222480, Note_on_c, 4, 67, 80
12, 222584, Note_on_c, 4, 64, 0
12, 222584, Note_on_c, 4, 67, 0
12, 222600, Note_on_c, 4, 57, 80
12, 222600, Note_on_c, 4, 69, 80
12, 222944, Note_on_c, 4, 57, 0
12, 222944, Note_on_c, 4, 69, 0
12, 222960, Note_on_c, 4, 57, 80
12, 222960, Note_on_c, 4, 69, 80
12, 223424, Note_on_c, 4, 57, 0
12, 223424, Note_on_c, 4, 69, 0
12, 223440, Note_on_c, 4, 57, 80
12, 223440, Note_on_c, 4, 69, 80
12, 224024, Note_on_c, 4, 57, 0
12, 224024, Note_on_c, 4, 69, 0
12, 224040, Note_on_c, 4, 62, 80
12, 224040, Note_on_c, 4, 50, 80
12, 224144, Note_on_c, 4, 62, 0
12, 224144, Note_on_c, 4, 50, 0
12, 224160, Note_on_c, 4, 62, 80
12, 224160, Note_on_c, 4, 50, 80
12, 224384, Note_on_c, 4, 62, 0
12, 224384, Note_on_c, 4, 50, 0
12, 224400, Note_on_c, 4, 69, 80
12, 224624, Note_on_c, 4, 69, 0
12, 224640, Note_on_c, 4, 67, 80
12, 224999, Note_on_c, 4, 67, 0
12, 225000, Note_on_c, 4, 66, 80
12, 225104, Note_on_c, 4, 66, 0
12, 225120, Note_on_c, 4, 66, 80
12, 225344, Note_on_c, 4, 66, 0
12, 225360, Note_on_c, 4, 62, 80
12, 225360, Note_on_c, 4, 66, 80
12, 225584, Note_on_c, 4, 62, 0
12, 225584, Note_on_c, 4, 66, 0
12, 225600, Note_on_c, 4, 66, 80
12, 225600, Note_on_c, 4, 62, 80
12, 225944, Note_on_c, 4, 62, 0
12, 225959, Note_on_c, 4, 66, 0
12, 225960, Note_on_c, 4, 62, 80
12, 225960, Note_on_c, 4, 67, 80
12, 226064, Note_on_c, 4, 62, 0
12, 226064, Note_on_c, 4, 67, 0
12, 226080, Note_on_c, 4, 67, 80
12, 226080, Note_on_c, 4, 62, 80
12, 226304, Note_on_c, 4, 67, 0
12, 226304, Note_on_c, 4, 62, 0
12, 226320, Note_on_c, 4, 67, 80
12, 226320, Note_on_c, 4, 64, 80
12, 226544, Note_on_c, 4, 67, 0
12, 226544, Note_on_c, 4, 64, 0
12, 226560, Note_on_c, 4, 64, 80
12, 226560, Note_on_c, 4, 67, 80
12, 227519, Note_on_c, 4, 64, 0
12, 227519, Note_on_c, 4, 67, 0
12, 227520, Note_on_c, 4, 66, 80
12, 227520, Note_on_c, 4, 62, 80
12, 227699, Note_on_c, 4, 66, 0
12, 227699, Note_on_c, 4, 62, 0
12, 227880, Note_on_c, 4, 57, 80
12, 227880, Note_on_c, 4, 69, 80
12, 227984, Note_on_c, 4, 57, 0
12, 227984, Note_on_c, 4, 69, 0
12, 228000, Note_on_c, 4, 62, 38
12, 228000, Note_on_c, 4, 50, 38
12, 228104, Note_on_c, 4, 62, 0
12, 228104, Note_on_c, 4, 50, 0
12, 228120, Note_on_c, 4, 69, 38
12, 228120, Note_on_c, 4, 66, 38
12, 228239, Note_on_c, 4, 69, 0
12, 228239, Note_on_c, 4, 66, 0
12, 228240, Note_on_c, 4, 67, 38
12, 228240, Note_on_c, 4, 64, 38
12, 228359, Note_on_c, 4, 67, 0
12, 228359, Note_on_c, 4, 64, 0
12, 228360, Note_on_c, 4, 64, 38
12, 228360, Note_on_c, 4, 57, 38
12, 228464, Note_on_c, 4, 64, 0
12, 228464, Note_on_c, 4, 57, 0
12, 228480, Note_on_c, 4, 54, 38
12, 228480, Note_on_c, 4, 62, 38
12, 228704, Note_on_c, 4, 54, 0
12, 228704, Note_on_c, 4, 62, 0
12, 228720, Note_on_c, 4, 66, 38
12, 228720, Note_on_c, 4, 62, 38
12, 228959, Note_on_c, 4, 66, 0
12, 228959, Note_on_c, 4, 62, 0
12, 229200, Note_on_c, 4, 69, 38
12, 229200, Note_on_c, 4, 66, 38
12, 229439, Note_on_c, 4, 69, 0
12, 229439, Note_on_c, 4, 66, 0
12, 229680, Note_on_c, 4, 64, 38
12, 229680, Note_on_c, 4, 67, 38
12, 229919, Note_on_c, 4, 64, 0
12, 229919, Note_on_c, 4, 67, 0
12, 230160, Note_on_c, 4, 64, 38
12, 230160, Note_on_c, 4, 57, 38
12, 230399, Note_on_c, 4, 64, 0
12, 230399, Note_on_c, 4, 57, 0
12, 230640, Note_on_c, 4, 62, 38
12, 230640, Note_on_c, 4, 54, 38
12, 230879, Note_on_c, 4, 62, 0
12, 230879, Note_on_c, 4, 54, 0
12, 231120, Note_on_c, 4, 66, 38
12, 231120, Note_on_c, 4, 62, 38
12, 231359, Note_on_c, 4, 66, 0
12, 231359, Note_on_c, 4, 62, 0
12, 231600, Note_on_c, 4, 64, 38
12, 231600, Note_on_c, 4, 57, 38
12, 231839, Note_on_c, 4, 64, 0
12, 231839, Note_on_c, 4, 57, 0
12, 232080, Note_on_c, 4, 64, 38
12, 232080, Note_on_c, 4, 57, 38
12, 232304, Note_on_c, 4, 64, 0
12, 232304, Note_on_c, 4, 57, 0
12, 232320, Note_on_c, 4, 54, 38
12, 232320, Note_on_c, 4, 62, 38
12, 232544, Note_on_c, 4, 54, 0
12, 232544, Note_on_c, 4, 62, 0
12, 232560, Note_on_c, 4, 62, 38
12, 232560, Note_on_c, 4, 66, 38
12, 232799, Note_on_c, 4, 62, 0
12, 232799, Note_on_c, 4, 66, 0
12, 233040, Note_on_c, 4, 66, 38
12, 233040, Note_on_c, 4, 69, 38
12, 233279, Note_on_c, 4, 66, 0
12, 233279, Note_on_c, 4, 69, 0
12, 233520, Note_on_c, 4, 67, 38
12, 233520, Note_on_c, 4, 64, 38
12, 233759, Note_on_c, 4, 67, 0
12, 233759, Note_on_c, 4, 64, 0
12, 234000, Note_on_c, 4, 57, 38
12, 234000, Note_on_c, 4, 64, 38
12, 234239, Note_on_c, 4, 57, 0
12, 234239, Note_on_c, 4, 64, 0
12, 234480, Note_on_c, 4, 62, 38
12, 234480, Note_on_c, 4, 54, 38
12, 234719, Note_on_c, 4, 62, 0
12, 234719, Note_on_c, 4, 54, 0
12, 234960, Note_on_c, 4, 66, 38
12, 234960, Note_on_c, 4, 62, 38
12, 235199, Note_on_c, 4, 66, 0
12, 235199, Note_on_c, 4, 62, 0
12, 235440, Note_on_c, 4, 57, 38
12, 235440, Note_on_c, 4, 64, 38
12, 235664, Note_on_c, 4, 57, 0
12, 235664, Note_on_c, 4, 64, 0
12, 235680, Note_on_c, 4, 62, 38
12, 235680, Note_on_c, 4, 54, 38
12, 235799, Note_on_c, 4, 62, 0
12, 235799, Note_on_c, 4, 54, 0
12, 236160, Note_on_c, 4, 64, 38
12, 236160, Note_on_c, 4, 57, 38
12, 236399, Note_on_c, 4, 64, 0
12, 236399, Note_on_c, 4, 57, 0
12, 236640, Note_on_c, 4, 62, 38
12, 236640, Note_on_c, 4, 66, 38
12, 236879, Note_on_c, 4, 62, 0
12, 236879, Note_on_c, 4, 66, 0
12, 237360, Note_on_c, 4, 64, 38
12, 237360, Note_on_c, 4, 57, 38
12, 237599, Note_on_c, 4, 64, 0
12, 237599, Note_on_c, 4, 57, 0
12, 237840, Note_on_c, 4, 62, 38
12, 237840, Note_on_c, 4, 66, 38
12, 238079, Note_on_c, 4, 62, 0
12, 238079, Note_on_c, 4, 66, 0
12, 238320, Note_on_c, 4, 57, 38
12, 238320, Note_on_c, 4, 64, 38
12, 238559, Note_on_c, 4, 57, 0
12, 238559, Note_on_c, 4, 64, 0
12, 238800, Note_on_c, 4, 66, 80
12, 238800, Note_on_c, 4, 54, 80
12, 239039, Note_on_c, 4, 66, 0
12, 239039, Note_on_c, 4, 54, 0
12, 239280, Note_on_c, 4, 64, 48
12, 239519, Note_on_c, 4, 64, 0
12, 239760, Note_on_c, 4, 54, 57
12, 239760, Note_on_c, 4, 62, 57
12, 239999, Note_on_c, 4, 54, 0
12, 239999, Note_on_c, 4, 62, 0
12, 240240, Note_on_c, 4, 62, 66
12, 240240, Note_on_c, 4, 66, 66
12, 240479, Note_on_c, 4, 62, 0
12, 240479, Note_on_c, 4, 66, 0
12, 240720, Note_on_c, 4, 66, 75
12, 240720, Note_on_c, 4, 69, 75
12, 240959, Note_on_c, 4, 66, 0
12, 240959, Note_on_c, 4, 69, 0
12, 241200, Note_on_c, 4, 64, 76
12, 241200, Note_on_c, 4, 67, 76
12, 241439, Note_on_c, 4, 64, 0
12, 241439, Note_on_c, 4, 67, 0
12, 241680, Note_on_c, 4, 64, 67
12, 241680, Note_on_c, 4, 57, 67
12, 241919, Note_on_c, 4, 64, 0
12, 241919, Note_on_c, 4, 57, 0
12, 242160, Note_on_c, 4, 54, 58
12, 242160, Note_on_c, 4, 62, 58
12, 242399, Note_on_c, 4, 54, 0
12, 242399, Note_on_c, 4, 62, 0
12, 242640, Note_on_c, 4, 62, 49
12, 242640, Note_on_c, 4, 66, 49
12, 242879, Note_on_c, 4, 62, 0
12, 242879, Note_on_c, 4, 66, 0
12, 243120, Note_on_c, 4, 57, 44
12, 243120, Note_on_c, 4, 64, 44
12, 243359, Note_on_c, 4, 57, 0
12, 243359, Note_on_c, 4, 64, 0
12, 243600, Note_on_c, 4, 54, 62
12, 243600, Note_on_c, 4, 62, 62
12, 243824, Note_on_c, 4, 54, 0
12, 243824, Note_on_c, 4, 62, 0
12, 243840, Note_on_c, 4, 57, 80
12, 243840, Note_on_c, 4, 64, 80
12, 244064, Note_on_c, 4, 57, 0
12, 244064, Note_on_c, 4, 64, 0
12, 244080, Note_on_c, 4, 57, 80
12, 244080, Note_on_c, 4, 64, 80
12, 244304, Note_on_c, 4, 57, 0
12, 244304, Note_on_c, 4, 64, 0
12, 244320, Note_on_c, 4, 62, 80
12, 244320, Note_on_c, 4, 66, 80
12, 244544, Note_on_c, 4, 62, 0
12, 244544, Note_on_c, 4, 66, 0
12, 244560, Note_on_c, 4, 54, 80
12, 244560, Note_on_c, 4, 62, 80
12, 244784, Note_on_c, 4, 54, 0
12, 244784, Note_on_c, 4, 62, 0
12, 244800, Note_on_c, 4, 57, 80
12, 244800, Note_on_c, 4, 64, 80
12, 245039, Note_on_c, 4, 57, 0
12, 245039, Note_on_c, 4, 64, 0
12, 245040, Note_on_c, 4, 66, 80
12, 245040, Note_on_c, 4, 62, 80
12, 245159, Note_on_c, 4, 66, 0
12, 245159, Note_on_c, 4, 62, 0
12, 245160, Note_on_c, 4, 67, 80
12, 245160, Note_on_c, 4, 64, 80
12, 245264, Note_on_c, 4, 67, 0
12, 245264, Note_on_c, 4, 64, 0
12, 245280, Note_on_c, 4, 66, 80
12, 245280, Note_on_c, 4, 62, 80
12, 245504, Note_on_c, 4, 66, 0
12, 245504, Note_on_c, 4, 62, 0
12, 245520, Note_on_c, 4, 62, 80
12, 245520, Note_on_c, 4, 50, 80
12, 245744, Note_on_c, 4, 62, 0
12, 245744, Note_on_c, 4, 50, 0
12, 245760, Note_on_c, 4, 64, 80
12, 245760, Note_on_c, 4, 57, 80
12, 245999, Note_on_c, 4, 64, 0
12, 245999, Note_on_c, 4, 57, 0
12, 246000, Note_on_c, 4, 66, 80
12, 246000, Note_on_c, 4, 62, 80
12, 246119, Note_on_c, 4, 66, 0
12, 246119, Note_on_c, 4, 62, 0
12, 246120, Note_on_c, 4, 64, 80
12, 246120, Note_on_c, 4, 67, 80
12, 246224, Note_on_c, 4, 64, 0
12, 246224, Note_on_c, 4, 67, 0
12, 246240, Note_on_c, 4, 54, 80
12, 246240, Note_on_c, 4, 66, 80
12, 246464, Note_on_c, 4, 54, 0
12, 246464, Note_on_c, 4, 66, 0
12, 246480, Note_on_c, 4, 66, 80
12, 246480, Note_on_c, 4, 54, 80
12, 246704, Note_on_c, 4, 66, 0
12, 246704, Note_on_c, 4, 54, 0
12, 246720, Note_on_c, 4, 66, 80
12, 246720, Note_on_c, 4, 54, 80
12, 246944, Note_on_c, 4, 66, 0
12, 246944, Note_on_c, 4, 54, 0
12, 246960, Note_on_c, 4, 64, 80
12, 247184, Note_on_c, 4, 64, 0
12, 247200, Note_on_c, 4, 57, 80
12, 247424, Note_on_c, 4, 57, 0
12, 247440, Note_on_c, 4, 62, 80
12, 247440, Note_on_c, 4, 66, 80
12, 247904, Note_on_c, 4, 62, 0
12, 247904, Note_on_c, 4, 66, 0
12, 247920, Note_on_c, 4, 62, 80
12, 247920, Note_on_c, 4, 66, 80
12, 248144, Note_on_c, 4, 62, 0
12, 248144, Note_on_c, 4, 66, 0
12, 248160, Note_on_c, 4, 67, 92
12, 248160, Note_on_c, 4, 64, 92
12, 248384, Note_on_c, 4, 67, 0
12, 248384, Note_on_c, 4, 64, 0
12, 248400, Note_on_c, 4, 66, 80
12, 248400, Note_on_c, 4, 69, 80
12, 248624, Note_on_c, 4, 66, 0
12, 248624, Note_on_c, 4, 69, 0
12, 248640, Note_on_c, 4, 66, 80
12, 248640, Note_on_c, 4, 69, 80
12, 248879, Note_on_c, 4, 66, 0
12, 248879, Note_on_c, 4, 69, 0
12, 248880, Note_on_c, 4, 67, 71
12, 248880, Note_on_c, 4, 64, 71
12, 249119, Note_on_c, 4, 67, 0
12, 249119, Note_on_c, 4, 64, 0
12, 249120, Note_on_c, 4, 62, 62
12, 249120, Note_on_c, 4, 66, 62
12, 249359, Note_on_c, 4, 62, 0
12, 249359, Note_on_c, 4, 66, 0
12, 249360, Note_on_c, 4, 64, 53
12, 249360, Note_on_c, 4, 57, 53
12, 249584, Note_on_c, 4, 64, 0
12, 249584, Note_on_c, 4, 57, 0
12, 249600, Note_on_c, 4, 62, 44
12, 249600, Note_on_c, 4, 54, 44
12, 249824, Note_on_c, 4, 62, 0
12, 249824, Note_on_c, 4, 54, 0
12, 249840, Note_on_c, 4, 54, 44
12, 249840, Note_on_c, 4, 62, 44
12, 250064, Note_on_c, 4, 54, 0
12, 250064, Note_on_c, 4, 62, 0
12, 250080, Note_on_c, 4, 57, 44
12, 250080, Note_on_c, 4, 64, 44
12, 250304, Note_on_c, 4, 57, 0
12, 250304, Note_on_c, 4, 64, 0
12, 250320, Note_on_c, 4, 62, 44
12, 250320, Note_on_c, 4, 66, 44
12, 250544, Note_on_c, 4, 62, 0
12, 250544, Note_on_c, 4, 66, 0
12, 250560, Note_on_c, 4, 64, 44
12, 250560, Note_on_c, 4, 57, 44
12, 250919, Note_on_c, 4, 64, 0
12, 250919, Note_on_c, 4, 57, 0
12, 250920, Note_on_c, 4, 62, 44
12, 250920, Note_on_c, 4, 54, 44
12, 251024, Note_on_c, 4, 62, 0
12, 251024, Note_on_c, 4, 54, 0
12, 251040, Note_on_c, 4, 54, 44
12, 251040, Note_on_c, 4, 62, 44
12, 251264, Note_on_c, 4, 54, 0
12, 251264, Note_on_c, 4, 62, 0
12, 251280, Note_on_c, 4, 66, 44
12, 251280, Note_on_c, 4, 69, 44
12, 251519, Note_on_c, 4, 66, 0
12, 251519, Note_on_c, 4, 69, 0
12, 251520, Note_on_c, 4, 67, 44
12, 251520, Note_on_c, 4, 64, 44
12, 251879, Note_on_c, 4, 67, 0
12, 251879, Note_on_c, 4, 64, 0
12, 251880, Note_on_c, 4, 62, 44
12, 251880, Note_on_c, 4, 66, 44
12, 251984, Note_on_c, 4, 62, 0
12, 251984, Note_on_c, 4, 66, 0
12, 252000, Note_on_c, 4, 66, 44
12, 252000, Note_on_c, 4, 62, 44
12, 252224, Note_on_c, 4, 66, 0
12, 252224, Note_on_c, 4, 62, 0
12, 252240, Note_on_c, 4, 50, 44
12, 252240, Note_on_c, 4, 62, 44
12, 252464, Note_on_c, 4, 50, 0
12, 252464, Note_on_c, 4, 62, 0
12, 252480, Note_on_c, 4, 50, 44
12, 252480, Note_on_c, 4, 62, 44
12, 252824, Note_on_c, 4, 50, 0
12, 252824, Note_on_c, 4, 62, 0
12, 252840, Note_on_c, 4, 50, 44
12, 252840, Note_on_c, 4, 62, 44
12, 252944, Note_on_c, 4, 50, 0
12, 252944, Note_on_c, 4, 62, 0
12, 252960, Note_on_c, 4, 50, 44
12, 252960, Note_on_c, 4, 62, 44
12, 253184, Note_on_c, 4, 50, 0
12, 253184, Note_on_c, 4, 62, 0
12, 253200, Note_on_c, 4, 67, 44
12, 253319, Note_on_c, 4, 67, 0
12, 253320, Note_on_c, 4, 64, 44
12, 253424, Note_on_c, 4, 64, 0
12, 253440, Note_on_c, 4, 64, 44
12, 253440, Note_on_c, 4, 57, 44
12, 253784, Note_on_c, 4, 64, 0
12, 253784, Note_on_c, 4, 57, 0
12, 253800, Note_on_c, 4, 57, 44
12, 253800, Note_on_c, 4, 64, 44
12, 253904, Note_on_c, 4, 57, 0
12, 253904, Note_on_c, 4, 64, 0
12, 253920, Note_on_c, 4, 64, 44
12, 253920, Note_on_c, 4, 57, 44
12, 254264, Note_on_c, 4, 64, 0
12, 254264, Note_on_c, 4, 57, 0
12, 254280, Note_on_c, 4, 57, 44
12, 254280, Note_on_c, 4, 64, 44
12, 254384, Note_on_c, 4, 57, 0
12, 254384, Note_on_c, 4, 64, 0
12, 254400, Note_on_c, 4, 54, 44
12, 254400, Note_on_c, 4, 62, 44
12, 254519, Note_on_c, 4, 54, 0
12, 254519, Note_on_c, 4, 62, 0
12, 254640, Note_on_c, 4, 64, 44
12, 254640, Note_on_c, 4, 57, 44
12, 254759, Note_on_c, 4, 64, 0
12, 254759, Note_on_c, 4, 57, 0
12, 254880, Note_on_c, 4, 54, 44
12, 254880, Note_on_c, 4, 62, 44
12, 254999, Note_on_c, 4, 54, 0
12, 254999, Note_on_c, 4, 62, 0
12, 255120, Note_on_c, 4, 38, 44
12, 255329, Note_on_c, 4, 38, 0
12, 255360, Note_on_c, 4, 38, 44
12, 255569, Note_on_c, 4, 38, 0
12, 255600, Note_on_c, 4, 38, 44
12, 255809, Note_on_c, 4, 38, 0
12, 255840, Note_on_c, 4, 38, 44
12, 256049, Note_on_c, 4, 38, 0
12, 256080, Note_on_c, 4, 38, 44
12, 256259, Note_on_c, 4, 38, 0
12, 256320, Note_on_c, 4, 38, 44
12, 256529, Note_on_c, 4, 38, 0
12, 256560, Note_on_c, 4, 38, 44
12, 256769, Note_on_c, 4, 38, 0
12, 256800, Note_on_c, 4, 38, 44
12, 257009, Note_on_c, 4, 38, 0
12, 257040, Note_on_c, 4, 38, 44
12, 257219, Note_on_c, 4, 38, 0
12, 257280, Note_on_c, 4, 38, 44
12, 257489, Note_on_c, 4, 38, 0
12, 257520, Note_on_c, 4, 38, 44
12, 257729, Note_on_c, 4, 38, 0
12, 257760, Note_on_c, 4, 38, 44
12, 257969, Note_on_c, 4, 38, 0
12, 258000, Note_on_c, 4, 38, 44
12, 258179, Note_on_c, 4, 38, 0
12, 258240, Note_on_c, 4, 38, 44
12, 258449, Note_on_c, 4, 38, 0
12, 258480, Note_on_c, 4, 38, 44
12, 258689, Note_on_c, 4, 38, 0
12, 258720, Note_on_c, 4, 38, 44
12, 258929, Note_on_c, 4, 38, 0
12, 258960, Note_on_c, 4, 38, 44
12, 259139, Note_on_c, 4, 38, 0
12, 259200, Note_on_c, 4, 38, 44
12, 259409, Note_on_c, 4, 38, 0
12, 259440, Note_on_c, 4, 38, 44
12, 259649, Note_on_c, 4, 38, 0
12, 259680, Note_on_c, 4, 38, 44
12, 259889, Note_on_c, 4, 38, 0
12, 259920, Note_on_c, 4, 38, 44
12, 260099, Note_on_c, 4, 38, 0
12, 260160, Note_on_c, 4, 38, 44
12, 260369, Note_on_c, 4, 38, 0
12, 260400, Note_on_c, 4, 38, 44
12, 260609, Note_on_c, 4, 38, 0
12, 260640, Note_on_c, 4, 38, 44
12, 260849, Note_on_c, 4, 38, 0
12, 260880, Note_on_c, 4, 38, 44
12, 261059, Note_on_c, 4, 38, 0
12, 261120, Note_on_c, 4, 38, 44
12, 261329, Note_on_c, 4, 38, 0
12, 261360, Note_on_c, 4, 38, 44
12, 261569, Note_on_c, 4, 38, 0
12, 261600, Note_on_c, 4, 38, 44
12, 261809, Note_on_c, 4, 38, 0
12, 261840, Note_on_c, 4, 38, 44
12, 262019, Note_on_c, 4, 38, 0
12, 262080, Note_on_c, 4, 38, 44
12, 262289, Note_on_c, 4, 38, 0
12, 262320, Note_on_c, 4, 38, 44
12, 262529, Note_on_c, 4, 38, 0
12, 262560, Note_on_c, 4, 38, 44
12, 262769, Note_on_c, 4, 38, 0
12, 262800, Note_on_c, 4, 38, 44
12, 262979, Note_on_c, 4, 38, 0
12, 263040, Note_on_c, 4, 45, 44
12, 263279, Note_on_c, 4, 45, 0
12, 266640, Note_on_c, 4, 38, 44
12, 266849, Note_on_c, 4, 38, 0
12, 266880, Note_on_c, 4, 38, 44
12, 267089, Note_on_c, 4, 38, 0
12, 267120, Note_on_c, 4, 38, 44
12, 267329, Note_on_c, 4, 38, 0
12, 267360, Note_on_c, 4, 38, 44
12, 267569, Note_on_c, 4, 38, 0
12, 267600, Note_on_c, 4, 38, 44
12, 267779, Note_on_c, 4, 38, 0
12, 267840, Note_on_c, 4, 38, 44
12, 268049, Note_on_c, 4, 38, 0
12, 268080, Note_on_c, 4, 38, 44
12, 268289, Note_on_c, 4, 38, 0
12, 268320, Note_on_c, 4, 38, 44
12, 268529, Note_on_c, 4, 38, 0
12, 268560, Note_on_c, 4, 38, 44
12, 268739, Note_on_c, 4, 38, 0
12, 268800, Note_on_c, 4, 38, 44
12, 269009, Note_on_c, 4, 38, 0
12, 269040, Note_on_c, 4, 38, 44
12, 269249, Note_on_c, 4, 38, 0
12, 269280, Note_on_c, 4, 38, 44
12, 269489, Note_on_c, 4, 38, 0
12, 269520, Note_on_c, 4, 38, 44
12, 269699, Note_on_c, 4, 38, 0
12, 269760, Note_on_c, 4, 38, 44
12, 269999, Note_on_c, 4, 38, 0
12, 270480, Note_on_c, 4, 45, 80
12, 270480, Note_on_c, 4, 57, 80
12, 270704, Note_on_c, 4, 45, 0
12, 270704, Note_on_c, 4, 57, 0
12, 270720, Note_on_c, 4, 57, 80
12, 270720, Note_on_c, 4, 45, 80
12, 270929, Note_on_c, 4, 57, 0
12, 270929, Note_on_c, 4, 45, 0
12, 270960, Note_on_c, 4, 45, 80
12, 270960, Note_on_c, 4, 57, 80
12, 271169, Note_on_c, 4, 45, 0
12, 271169, Note_on_c, 4, 57, 0
12, 271200, Note_on_c, 4, 57, 80
12, 271200, Note_on_c, 4, 45, 80
12, 271409, Note_on_c, 4, 57, 0
12, 271409, Note_on_c, 4, 45, 0
12, 271440, Note_on_c, 4, 45, 80
12, 271440, Note_on_c, 4, 57, 80
12, 271619, Note_on_c, 4, 45, 0
12, 271619, Note_on_c, 4, 57, 0
12, 271680, Note_on_c, 4, 57, 80
12, 271680, Note_on_c, 4, 45, 80
12, 271889, Note_on_c, 4, 57, 0
12, 271889, Note_on_c, 4, 45, 0
12, 271920, Note_on_c, 4, 57, 80
12, 271920, Note_on_c, 4, 45, 80
12, 272129, Note_on_c, 4, 57, 0
12, 272129, Note_on_c, 4, 45, 0
12, 272160, Note_on_c, 4, 57, 80
12, 272160, Note_on_c, 4, 45, 80
12, 272369, Note_on_c, 4, 57, 0
12, 272369, Note_on_c, 4, 45, 0
12, 272400, Note_on_c, 4, 45, 80
12, 272400, Note_on_c, 4, 57, 80
12, 272579, Note_on_c, 4, 45, 0
12, 272579, Note_on_c, 4, 57, 0
12, 272640, Note_on_c, 4, 66, 80
12, 272759, Note_on_c, 4, 66, 0
12, 272760, Note_on_c, 4, 64, 80
12, 272864, Note_on_c, 4, 64, 0
12, 272880, Note_on_c, 4, 62, 80
12, 272999, Note_on_c, 4, 62, 0
12, 273000, Note_on_c, 4, 64, 80
12, 273104, Note_on_c, 4, 64, 0
12, 273120, Note_on_c, 4, 67, 80
12, 273239, Note_on_c, 4, 67, 0
12, 273240, Note_on_c, 4, 66, 80
12, 273344, Note_on_c, 4, 66, 0
12, 273360, Note_on_c, 4, 66, 80
12, 273479, Note_on_c, 4, 66, 0
12, 273480, Note_on_c, 4, 64, 80
12, 273584, Note_on_c, 4, 64, 0
12, 273600, Note_on_c, 4, 64, 80
12, 273719, Note_on_c, 4, 64, 0
12, 273720, Note_on_c, 4, 62, 80
12, 273824, Note_on_c, 4, 62, 0
12, 273840, Note_on_c, 4, 62, 80
12, 273959, Note_on_c, 4, 62, 0
12, 273960, Note_on_c, 4, 64, 80
12, 274064, Note_on_c, 4, 64, 0
12, 274080, Note_on_c, 4, 57, 80
12, 274200, Note_on_c, 4, 67, 80
12, 274304, Note_on_c, 4, 57, 0
12, 274304, Note_on_c, 4, 67, 0
12, 274320, Note_on_c, 4, 66, 80
12, 274320, Note_on_c, 4, 38, 80
12, 274439, Note_on_c, 4, 66, 0
12, 274440, Note_on_c, 4, 64, 80
12, 274544, Note_on_c, 4, 38, 0
12, 274544, Note_on_c, 4, 64, 0
12, 274560, Note_on_c, 4, 66, 80
12, 274560, Note_on_c, 4, 38, 80
12, 274679, Note_on_c, 4, 66, 0
12, 274680, Note_on_c, 4, 67, 80
12, 274769, Note_on_c, 4, 38, 0
12, 274784, Note_on_c, 4, 67, 0
12, 274800, Note_on_c, 4, 38, 80
12, 274800, Note_on_c, 4, 64, 80
12, 274919, Note_on_c, 4, 64, 0
12, 274920, Note_on_c, 4, 66, 80
12, 275009, Note_on_c, 4, 38, 0
12, 275024, Note_on_c, 4, 66, 0
12, 275040, Note_on_c, 4, 38, 80
12, 275040, Note_on_c, 4, 67, 80
12, 275159, Note_on_c, 4, 67, 0
12, 275160, Note_on_c, 4, 69, 80
12, 275249, Note_on_c, 4, 38, 0
12, 275264, Note_on_c, 4, 69, 0
12, 275280, Note_on_c, 4, 69, 80
12, 275280, Note_on_c, 4, 38, 80
12, 275459, Note_on_c, 4, 38, 0
12, 275504, Note_on_c, 4, 69, 0
12, 275520, Note_on_c, 4, 69, 80
12, 275520, Note_on_c, 4, 38, 80
12, 275639, Note_on_c, 4, 69, 0
12, 275640, Note_on_c, 4, 67, 80
12, 275744, Note_on_c, 4, 38, 0
12, 275744, Note_on_c, 4, 67, 0
12, 275760, Note_on_c, 4, 67, 80
12, 275760, Note_on_c, 4, 38, 80
12, 275984, Note_on_c, 4, 67, 0
12, 275984, Note_on_c, 4, 38, 0
12, 276000, Note_on_c, 4, 66, 80
12, 276000, Note_on_c, 4, 38, 80
12, 276119, Note_on_c, 4, 66, 0
12, 276120, Note_on_c, 4, 64, 80
12, 276224, Note_on_c, 4, 38, 0
12, 276224, Note_on_c, 4, 64, 0
12, 276240, Note_on_c, 4, 38, 80
12, 276240, Note_on_c, 4, 67, 80
12, 276359, Note_on_c, 4, 67, 0
12, 276360, Note_on_c, 4, 64, 80
12, 276464, Note_on_c, 4, 38, 0
12, 276464, Note_on_c, 4, 64, 0
12, 276480, Note_on_c, 4, 64, 80
12, 276480, Note_on_c, 4, 38, 80
12, 276599, Note_on_c, 4, 64, 0
12, 276600, Note_on_c, 4, 62, 80
12, 276704, Note_on_c, 4, 38, 0
12, 276704, Note_on_c, 4, 62, 0
12, 276720, Note_on_c, 4, 57, 80
12, 276720, Note_on_c, 4, 38, 80
12, 276839, Note_on_c, 4, 57, 0
12, 276840, Note_on_c, 4, 62, 80
12, 276944, Note_on_c, 4, 38, 0
12, 276944, Note_on_c, 4, 62, 0
12, 276960, Note_on_c, 4, 66, 92
12, 276960, Note_on_c, 4, 38, 92
12, 277079, Note_on_c, 4, 66, 0
12, 277080, Note_on_c, 4, 64, 92
12, 277184, Note_on_c, 4, 38, 0
12, 277199, Note_on_c, 4, 64, 0
12, 277200, Note_on_c, 4, 38, 92
12, 277200, Note_on_c, 4, 67, 92
12, 277304, Note_on_c, 4, 67, 0
12, 277320, Note_on_c, 4, 66, 92
12, 277424, Note_on_c, 4, 38, 0
12, 277424, Note_on_c, 4, 66, 0
12, 277440, Note_on_c, 4, 62, 92
12, 277440, Note_on_c, 4, 66, 92
12, 277559, Note_on_c, 4, 62, 0
12, 277559, Note_on_c, 4, 66, 0
12, 277560, Note_on_c, 4, 57, 92
12, 277560, Note_on_c, 4, 64, 92
12, 277784, Note_on_c, 4, 57, 0
12, 277784, Note_on_c, 4, 64, 0
12, 277800, Note_on_c, 4, 54, 92
12, 277800, Note_on_c, 4, 62, 92
12, 277904, Note_on_c, 4, 54, 0
12, 277904, Note_on_c, 4, 62, 0
12, 277920, Note_on_c, 4, 54, 92
12, 277920, Note_on_c, 4, 62, 92
12, 278144, Note_on_c, 4, 54, 0
12, 278144, Note_on_c, 4, 62, 0
12, 278160, Note_on_c, 4, 66, 92
12, 278160, Note_on_c, 4, 69, 92
12, 278399, Note_on_c, 4, 66, 0
12, 278399, Note_on_c, 4, 69, 0
12, 278400, Note_on_c, 4, 64, 92
12, 278400, Note_on_c, 4, 67, 92
12, 278759, Note_on_c, 4, 64, 0
12, 278759, Note_on_c, 4, 67, 0
12, 278760, Note_on_c, 4, 62, 92
12, 278760, Note_on_c, 4, 66, 92
12, 278864, Note_on_c, 4, 62, 0
12, 278864, Note_on_c, 4, 66, 0
12, 278880, Note_on_c, 4, 66, 92
12, 278880, Note_on_c, 4, 62, 92
12, 279104, Note_on_c, 4, 66, 0
12, 279104, Note_on_c, 4, 62, 0
12, 279120, Note_on_c, 4, 62, 92
12, 279120, Note_on_c, 4, 50, 92
12, 279584, Note_on_c, 4, 62, 0
12, 279584, Note_on_c, 4, 50, 0
12, 279600, Note_on_c, 4, 62, 92
12, 279600, Note_on_c, 4, 66, 92
12, 279719, Note_on_c, 4, 66, 0
12, 279720, Note_on_c, 4, 67, 92
12, 279824, Note_on_c, 4, 62, 0
12, 279824, Note_on_c, 4, 67, 0
12, 279840, Note_on_c, 4, 67, 92
12, 279840, Note_on_c, 4, 62, 92
12, 280064, Note_on_c, 4, 67, 0
12, 280064, Note_on_c, 4, 62, 0
12, 280080, Note_on_c, 4, 67, 92
12, 280304, Note_on_c, 4, 67, 0
12, 280320, Note_on_c, 4, 67, 92
12, 280320, Note_on_c, 4, 64, 92
12, 280679, Note_on_c, 4, 67, 0
12, 280679, Note_on_c, 4, 64, 0
12, 280800, Note_on_c, 4, 67, 92
12, 280800, Note_on_c, 4, 64, 92
12, 281159, Note_on_c, 4, 67, 0
12, 281159, Note_on_c, 4, 64, 0
12, 281280, Note_on_c, 4, 66, 92
12, 281280, Note_on_c, 4, 62, 92
12, 282224, Note_on_c, 4, 66, 0
12, 282224, Note_on_c, 4, 62, 0
12, 282240, Note_on_c, 4, 64, 92
12, 282599, Note_on_c, 4, 64, 0
12, 282720, Note_on_c, 4, 64, 92
12, 283079, Note_on_c, 4, 64, 0
12, 283200, Note_on_c, 4, 69, 92
12, 283200, Note_on_c, 4, 57, 92
12, 284144, Note_on_c, 4, 69, 0
12, 284144, Note_on_c, 4, 57, 0
12, 284160, Note_on_c, 4, 64, 92
12, 284519, Note_on_c, 4, 64, 0
12, 284640, Note_on_c, 4, 64, 92
12, 284999, Note_on_c, 4, 64, 0
12, 285120, Note_on_c, 4, 69, 92
12, 285120, Note_on_c, 4, 57, 92
12, 286064, Note_on_c, 4, 69, 0
12, 286064, Note_on_c, 4, 57, 0
12, 286080, Note_on_c, 4, 57, 92
12, 286080, Note_on_c, 4, 69, 92
12, 286439, Note_on_c, 4, 57, 0
12, 286439, Note_on_c, 4, 69, 0
12, 286560, Note_on_c, 4, 57, 92
12, 286560, Note_on_c, 4, 69, 92
12, 286919, Note_on_c, 4, 57, 0
12, 286919, Note_on_c, 4, 69, 0
12, 287040, Note_on_c, 4, 57, 92
12, 287040, Note_on_c, 4, 69, 92
12, 288959, Note_on_c, 4, 57, 0
12, 288959, Note_on_c, 4, 69, 0
12, 367440, Note_on_c, 4, 69, 92
12, 367440, Note_on_c, 4, 57, 92
12, 367679, Note_on_c, 4, 69, 0
12, 367679, Note_on_c, 4, 57, 0
12, 367800, Note_on_c, 4, 57, 92
12, 367800, Note_on_c, 4, 69, 92
12, 368039, Note_on_c, 4, 57, 0
12, 368039, Note_on_c, 4, 69, 0
12, 368400, Note_on_c, 4, 67, 92
12, 368504, Note_on_c, 4, 67, 0
12, 368520, Note_on_c, 4, 67, 100
12, 368580, Control_c, 4, 11, 107
12, 368879, Note_on_c, 4, 67, 0
12, 369118, Control_c, 4, 11, 127
12, 369120, Note_on_c, 4, 69, 92
12, 369224, Note_on_c, 4, 69, 0
12, 369240, Note_on_c, 4, 69, 100
12, 369300, Control_c, 4, 11, 107
12, 369599, Note_on_c, 4, 69, 0
12, 369838, Control_c, 4, 11, 127
12, 369840, Note_on_c, 4, 67, 92
12, 369944, Note_on_c, 4, 67, 0
12, 369960, Note_on_c, 4, 67, 92
12, 370184, Note_on_c, 4, 67, 0
12, 370200, Note_on_c, 4, 67, 92
12, 370304, Note_on_c, 4, 67, 0
12, 370320, Note_on_c, 4, 69, 92
12, 370559, Note_on_c, 4, 69, 0
12, 370680, Note_on_c, 4, 67, 92
12, 370919, Note_on_c, 4, 67, 0
12, 371040, Note_on_c, 4, 67, 92
12, 371264, Note_on_c, 4, 67, 0
12, 371280, Note_on_c, 4, 67, 92
12, 371384, Note_on_c, 4, 67, 0
12, 371400, Note_on_c, 4, 67, 92
12, 371624, Note_on_c, 4, 67, 0
12, 371640, Note_on_c, 4, 67, 92
12, 371744, Note_on_c, 4, 67, 0
12, 371760, Note_on_c, 4, 67, 92
12, 371999, Note_on_c, 4, 67, 0
12, 372120, Note_on_c, 4, 67, 92
12, 372359, Note_on_c, 4, 67, 0
12, 372480, Note_on_c, 4, 67, 92
12, 372719, Note_on_c, 4, 67, 0
12, 372840, Note_on_c, 4, 67, 92
12, 373079, Note_on_c, 4, 67, 0
12, 373200, Note_on_c, 4, 67, 92
12, 373439, Note_on_c, 4, 67, 0
12, 373560, Note_on_c, 4, 67, 92
12, 373799, Note_on_c, 4, 67, 0
12, 384000, Note_on_c, 4, 69, 92
12, 384000, Note_on_c, 4, 57, 92
12, 384224, Note_on_c, 4, 69, 0
12, 384224, Note_on_c, 4, 57, 0
12, 384240, Note_on_c, 4, 69, 92
12, 384240, Note_on_c, 4, 57, 92
12, 384344, Note_on_c, 4, 69, 0
12, 384344, Note_on_c, 4, 57, 0
12, 384360, Note_on_c, 4, 69, 100
12, 384360, Note_on_c, 4, 57, 100
12, 384420, Control_c, 4, 11, 107
12, 384719, Note_on_c, 4, 69, 0
12, 384719, Note_on_c, 4, 57, 0
12, 384958, Control_c, 4, 11, 127
12, 384960, Note_on_c, 4, 69, 92
12, 384960, Note_on_c, 4, 57, 92
12, 385064, Note_on_c, 4, 69, 0
12, 385064, Note_on_c, 4, 57, 0
12, 385080, Note_on_c, 4, 69, 100
12, 385080, Note_on_c, 4, 57, 100
12, 385140, Control_c, 4, 11, 107
12, 385439, Note_on_c, 4, 69, 0
12, 385439, Note_on_c, 4, 57, 0
12, 385678, Control_c, 4, 11, 127
12, 385680, Note_on_c, 4, 65, 92
12, 385784, Note_on_c, 4, 65, 0
12, 385800, Note_on_c, 4, 65, 100
12, 385860, Control_c, 4, 11, 107
12, 386159, Note_on_c, 4, 65, 0
12, 386398, Control_c, 4, 11, 127
12, 386400, Note_on_c, 4, 65, 92
12, 386504, Note_on_c, 4, 65, 0
12, 386520, Note_on_c, 4, 65, 100
12, 386580, Control_c, 4, 11, 107
12, 386879, Note_on_c, 4, 65, 0
12, 387118, Control_c, 4, 11, 127
12, 387120, Note_on_c, 4, 53, 92
12, 387120, Note_on_c, 4, 65, 92
12, 387224, Note_on_c, 4, 53, 0
12, 387224, Note_on_c, 4, 65, 0
12, 387240, Note_on_c, 4, 65, 92
12, 387240, Note_on_c, 4, 53, 92
12, 387479, Note_on_c, 4, 65, 0
12, 387479, Note_on_c, 4, 53, 0
12, 387960, Note_on_c, 4, 65, 92
12, 388199, Note_on_c, 4, 65, 0
12, 393600, Note_on_c, 4, 54, 92
12, 393600, Note_on_c, 4, 66, 92
12, 393704, Note_on_c, 4, 54, 0
12, 393704, Note_on_c, 4, 66, 0
12, 393720, Note_on_c, 4, 54, 92
12, 393720, Note_on_c, 4, 66, 92
12, 393824, Note_on_c, 4, 54, 0
12, 393824, Note_on_c, 4, 66, 0
12, 393840, Note_on_c, 4, 54, 92
12, 393840, Note_on_c, 4, 66, 92
12, 393944, Note_on_c, 4, 54, 0
12, 393944, Note_on_c, 4, 66, 0
12, 393960, Note_on_c, 4, 54, 92
12, 393960, Note_on_c, 4, 66, 92
12, 394064, Note_on_c, 4, 54, 0
12, 394064, Note_on_c, 4, 66, 0
12, 394080, Note_on_c, 4, 66, 92
12, 394080, Note_on_c, 4, 54, 92
12, 394319, Note_on_c, 4, 66, 0
12, 394319, Note_on_c, 4, 54, 0
12, 404160, Note_on_c, 4, 54, 92
12, 404160, Note_on_c, 4, 66, 92
12, 404264, Note_on_c, 4, 54, 0
12, 404264, Note_on_c, 4, 66, 0
12, 404280, Note_on_c, 4, 54, 92
12, 404280, Note_on_c, 4, 66, 92
12, 404384, Note_on_c, 4, 54, 0
12, 404384, Note_on_c, 4, 66, 0
12, 404400, Note_on_c, 4, 66, 92
12, 404400, Note_on_c, 4, 54, 92
12, 404504, Note_on_c, 4, 66, 0
12, 404504, Note_on_c, 4, 54, 0
12, 404520, Note_on_c, 4, 66, 92
12, 404520, Note_on_c, 4, 54, 92
12, 404624, Note_on_c, 4, 66, 0
12, 404624, Note_on_c, 4, 54, 0
12, 404640, Note_on_c, 4, 54, 92
12, 404640, Note_on_c, 4, 66, 92
12, 404744, Note_on_c, 4, 54, 0
12, 404744, Note_on_c, 4, 66, 0
12, 404760, Note_on_c, 4, 66, 92
12, 404760, Note_on_c, 4, 54, 92
12, 404864, Note_on_c, 4, 66, 0
12, 404864, Note_on_c, 4, 54, 0
12, 404880, Note_on_c, 4, 66, 92
12, 404880, Note_on_c, 4, 54, 92
12, 404984, Note_on_c, 4, 66, 0
12, 404984, Note_on_c, 4, 54, 0
12, 405000, Note_on_c, 4, 54, 92
12, 405000, Note_on_c, 4, 66, 92
12, 405104, Note_on_c, 4, 54, 0
12, 405104, Note_on_c, 4, 66, 0
12, 405120, Note_on_c, 4, 54, 92
12, 405120, Note_on_c, 4, 66, 92
12, 405224, Note_on_c, 4, 54, 0
12, 405224, Note_on_c, 4, 66, 0
12, 405240, Note_on_c, 4, 66, 92
12, 405240, Note_on_c, 4, 54, 92
12, 405344, Note_on_c, 4, 66, 0
12, 405344, Note_on_c, 4, 54, 0
12, 405360, Note_on_c, 4, 66, 92
12, 405360, Note_on_c, 4, 54, 92
12, 405464, Note_on_c, 4, 66, 0
12, 405464, Note_on_c, 4, 54, 0
12, 405480, Note_on_c, 4, 54, 92
12, 405480, Note_on_c, 4, 66, 92
12, 405584, Note_on_c, 4, 54, 0
12, 405584, Note_on_c, 4, 66, 0
12, 405600, Note_on_c, 4, 54, 92
12, 405600, Note_on_c, 4, 66, 92
12, 405704, Note_on_c, 4, 54, 0
12, 405704, Note_on_c, 4, 66, 0
12, 405720, Note_on_c, 4, 64, 92
12, 405720, Note_on_c, 4, 67, 92
12, 405824, Note_on_c, 4, 64, 0
12, 405824, Note_on_c, 4, 67, 0
12, 405840, Note_on_c, 4, 67, 92
12, 405840, Note_on_c, 4, 64, 92
12, 405944, Note_on_c, 4, 67, 0
12, 405944, Note_on_c, 4, 64, 0
12, 405960, Note_on_c, 4, 64, 100
12, 405960, Note_on_c, 4, 67, 100
12, 406020, Control_c, 4, 11, 107
12, 406319, Note_on_c, 4, 64, 0
12, 406319, Note_on_c, 4, 67, 0
12, 406558, Control_c, 4, 11, 127
12, 406560, Note_on_c, 4, 66, 92
12, 406560, Note_on_c, 4, 69, 92
12, 406664, Note_on_c, 4, 66, 0
12, 406664, Note_on_c, 4, 69, 0
12, 406680, Note_on_c, 4, 66, 100
12, 406680, Note_on_c, 4, 69, 100
12, 406740, Control_c, 4, 11, 107
12, 407039, Note_on_c, 4, 66, 0
12, 407039, Note_on_c, 4, 69, 0
12, 407278, Control_c, 4, 11, 127
12, 408000, Note_on_c, 4, 67, 92
12, 408104, Note_on_c, 4, 67, 0
12, 408120, Note_on_c, 4, 67, 100
12, 408180, Control_c, 4, 11, 107
12, 408479, Note_on_c, 4, 67, 0
12, 408718, Control_c, 4, 11, 127
12, 408720, Note_on_c, 4, 66, 92
12, 408720, Note_on_c, 4, 69, 92
12, 408824, Note_on_c, 4, 66, 0
12, 408824, Note_on_c, 4, 69, 0
12, 408840, Note_on_c, 4, 69, 100
12, 408840, Note_on_c, 4, 66, 100
12, 408900, Control_c, 4, 11, 107
12, 409424, Note_on_c, 4, 69, 0
12, 409424, Note_on_c, 4, 66, 0
12, 409438, Control_c, 4, 11, 127
12, 409440, Note_on_c, 4, 66, 92
12, 409440, Note_on_c, 4, 69, 92
12, 409544, Note_on_c, 4, 66, 0
12, 409544, Note_on_c, 4, 69, 0
12, 409560, Note_on_c, 4, 67, 92
12, 409560, Note_on_c, 4, 64, 92
12, 409784, Note_on_c, 4, 67, 0
12, 409784, Note_on_c, 4, 64, 0
12, 409800, Note_on_c, 4, 67, 92
12, 409800, Note_on_c, 4, 64, 92
12, 409904, Note_on_c, 4, 67, 0
12, 409904, Note_on_c, 4, 64, 0
12, 409920, Note_on_c, 4, 67, 92
12, 409920, Note_on_c, 4, 64, 92
12, 410144, Note_on_c, 4, 67, 0
12, 410144, Note_on_c, 4, 64, 0
12, 410160, Note_on_c, 4, 67, 92
12, 410160, Note_on_c, 4, 64, 92
12, 410264, Note_on_c, 4, 67, 0
12, 410264, Note_on_c, 4, 64, 0
12, 410280, Note_on_c, 4, 62, 92
12, 410280, Note_on_c, 4, 66, 92
12, 410504, Note_on_c, 4, 62, 0
12, 410504, Note_on_c, 4, 66, 0
12, 410520, Note_on_c, 4, 62, 92
12, 410520, Note_on_c, 4, 66, 92
12, 410624, Note_on_c, 4, 62, 0
12, 410624, Note_on_c, 4, 66, 0
12, 410640, Note_on_c, 4, 62, 92
12, 410640, Note_on_c, 4, 66, 92
12, 410864, Note_on_c, 4, 62, 0
12, 410864, Note_on_c, 4, 66, 0
12, 410880, Note_on_c, 4, 62, 92
12, 410880, Note_on_c, 4, 66, 92
12, 410984, Note_on_c, 4, 62, 0
12, 410984, Note_on_c, 4, 66, 0
12, 411000, Note_on_c, 4, 64, 92
12, 411224, Note_on_c, 4, 64, 0
12, 411240, Note_on_c, 4, 64, 92
12, 411344, Note_on_c, 4, 64, 0
12, 411360, Note_on_c, 4, 64, 92
12, 411584, Note_on_c, 4, 64, 0
12, 411600, Note_on_c, 4, 66, 92
12, 411600, Note_on_c, 4, 54, 92
12, 411704, Note_on_c, 4, 66, 0
12, 411704, Note_on_c, 4, 54, 0
12, 411720, Note_on_c, 4, 54, 92
12, 411720, Note_on_c, 4, 66, 92
12, 411944, Note_on_c, 4, 54, 0
12, 411944, Note_on_c, 4, 66, 0
12, 411960, Note_on_c, 4, 66, 92
12, 411960, Note_on_c, 4, 54, 92
12, 412064, Note_on_c, 4, 66, 0
12, 412064, Note_on_c, 4, 54, 0
12, 412080, Note_on_c, 4, 66, 92
12, 412080, Note_on_c, 4, 54, 92
12, 412184, Note_on_c, 4, 66, 0
12, 412184, Note_on_c, 4, 54, 0
12, 412200, Note_on_c, 4, 66, 92
12, 412200, Note_on_c, 4, 54, 92
12, 412304, Note_on_c, 4, 66, 0
12, 412304, Note_on_c, 4, 54, 0
12, 412320, Note_on_c, 4, 54, 92
12, 412320, Note_on_c, 4, 66, 92
12, 412424, Note_on_c, 4, 54, 0
12, 412424, Note_on_c, 4, 66, 0
12, 412440, Note_on_c, 4, 66, 92
12, 412440, Note_on_c, 4, 54, 92
12, 412544, Note_on_c, 4, 66, 0
12, 412544, Note_on_c, 4, 54, 0
12, 412560, Note_on_c, 4, 54, 92
12, 412560, Note_on_c, 4, 66, 92
12, 412664, Note_on_c, 4, 54, 0
12, 412664, Note_on_c, 4, 66, 0
12, 412680, Note_on_c, 4, 66, 92
12, 412680, Note_on_c, 4, 54, 92
12, 412784, Note_on_c, 4, 66, 0
12, 412784, Note_on_c, 4, 54, 0
12, 412800, Note_on_c, 4, 54, 92
12, 412800, Note_on_c, 4, 66, 92
12, 412904, Note_on_c, 4, 54, 0
12, 412904, Note_on_c, 4, 66, 0
12, 412920, Note_on_c, 4, 66, 92
12, 412920, Note_on_c, 4, 54, 92
12, 413024, Note_on_c, 4, 66, 0
12, 413024, Note_on_c, 4, 54, 0
12, 413040, Note_on_c, 4, 66, 92
12, 413040, Note_on_c, 4, 54, 92
12, 413144, Note_on_c, 4, 66, 0
12, 413144, Note_on_c, 4, 54, 0
12, 413160, Note_on_c, 4, 54, 92
12, 413160, Note_on_c, 4, 66, 92
12, 413264, Note_on_c, 4, 54, 0
12, 413264, Note_on_c, 4, 66, 0
12, 413280, Note_on_c, 4, 66, 92
12, 413280, Note_on_c, 4, 54, 92
12, 413384, Note_on_c, 4, 66, 0
12, 413384, Note_on_c, 4, 54, 0
12, 413400, Note_on_c, 4, 66, 92
12, 413400, Note_on_c, 4, 54, 92
12, 413504, Note_on_c, 4, 66, 0
12, 413504, Note_on_c, 4, 54, 0
12, 413520, Note_on_c, 4, 54, 92
12, 413520, Note_on_c, 4, 66, 92
12, 413624, Note_on_c, 4, 54, 0
12, 413624, Note_on_c, 4, 66, 0
12, 413640, Note_on_c, 4, 66, 92
12, 413640, Note_on_c, 4, 54, 92
12, 413744, Note_on_c, 4, 66, 0
12, 413744, Note_on_c, 4, 54, 0
12, 413760, Note_on_c, 4, 66, 92
12, 413760, Note_on_c, 4, 54, 92
12, 413864, Note_on_c, 4, 66, 0
12, 413864, Note_on_c, 4, 54, 0
12, 413880, Note_on_c, 4, 54, 92
12, 413880, Note_on_c, 4, 66, 92
12, 413984, Note_on_c, 4, 54, 0
12, 413984, Note_on_c, 4, 66, 0
12, 414000, Note_on_c, 4, 54, 92
12, 414000, Note_on_c, 4, 66, 92
12, 414104, Note_on_c, 4, 54, 0
12, 414104, Note_on_c, 4, 66, 0
12, 414120, Note_on_c, 4, 66, 92
12, 414120, Note_on_c, 4, 54, 92
12, 414224, Note_on_c, 4, 66, 0
12, 414224, Note_on_c, 4, 54, 0
12, 414240, Note_on_c, 4, 62, 92
12, 414240, Note_on_c, 4, 50, 92
12, 414464, Note_on_c, 4, 62, 0
12, 414464, Note_on_c, 4, 50, 0
12, 414480, Note_on_c, 4, 50, 92
12, 414480, Note_on_c, 4, 62, 92
12, 414584, Note_on_c, 4, 50, 0
12, 414584, Note_on_c, 4, 62, 0
12, 414600, Note_on_c, 4, 62, 100
12, 414600, Note_on_c, 4, 50, 100
12, 414660, Control_c, 4, 11, 107
12, 414959, Note_on_c, 4, 62, 0
12, 414959, Note_on_c, 4, 50, 0
12, 415200, Control_c, 4, 11, 127
12, 415320, Note_on_c, 4, 66, 92
12, 415320, Note_on_c, 4, 54, 92
12, 415424, Note_on_c, 4, 66, 0
12, 415424, Note_on_c, 4, 54, 0
12, 415440, Note_on_c, 4, 66, 92
12, 415440, Note_on_c, 4, 54, 92
12, 415544, Note_on_c, 4, 66, 0
12, 415544, Note_on_c, 4, 54, 0
12, 415560, Note_on_c, 4, 54, 92
12, 415560, Note_on_c, 4, 66, 92
12, 415664, Note_on_c, 4, 54, 0
12, 415664, Note_on_c, 4, 66, 0
12, 415680, Note_on_c, 4, 54, 92
12, 415680, Note_on_c, 4, 66, 92
12, 415784, Note_on_c, 4, 54, 0
12, 415784, Note_on_c, 4, 66, 0
12, 415800, Note_on_c, 4, 54, 92
12, 415800, Note_on_c, 4, 66, 92
12, 415904, Note_on_c, 4, 54, 0
12, 415904, Note_on_c, 4, 66, 0
12, 415920, Note_on_c, 4, 54, 92
12, 415920, Note_on_c, 4, 66, 92
12, 416024, Note_on_c, 4, 54, 0
12, 416024, Note_on_c, 4, 66, 0
12, 416040, Note_on_c, 4, 54, 92
12, 416040, Note_on_c, 4, 66, 92
12, 416144, Note_on_c, 4, 54, 0
12, 416144, Note_on_c, 4, 66, 0
12, 416160, Note_on_c, 4, 54, 92
12, 416160, Note_on_c, 4, 66, 92
12, 416264, Note_on_c, 4, 54, 0
12, 416264, Note_on_c, 4, 66, 0
12, 416280, Note_on_c, 4, 54, 92
12, 416280, Note_on_c, 4, 66, 92
12, 416384, Note_on_c, 4, 54, 0
12, 416384, Note_on_c, 4, 66, 0
12, 416400, Note_on_c, 4, 54, 92
12, 416400, Note_on_c, 4, 66, 92
12, 416504, Note_on_c, 4, 54, 0
12, 416504, Note_on_c, 4, 66, 0
12, 416520, Note_on_c, 4, 54, 92
12, 416520, Note_on_c, 4, 66, 92
12, 416624, Note_on_c, 4, 54, 0
12, 416624, Note_on_c, 4, 66, 0
12, 416640, Note_on_c, 4, 54, 92
12, 416640, Note_on_c, 4, 66, 92
12, 416744, Note_on_c, 4, 54, 0
12, 416744, Note_on_c, 4, 66, 0
12, 416760, Note_on_c, 4, 54, 92
12, 416760, Note_on_c, 4, 66, 92
12, 416864, Note_on_c, 4, 54, 0
12, 416864, Note_on_c, 4, 66, 0
12, 416880, Note_on_c, 4, 66, 92
12, 416880, Note_on_c, 4, 54, 92
12, 416984, Note_on_c, 4, 66, 0
12, 416984, Note_on_c, 4, 54, 0
12, 417000, Note_on_c, 4, 66, 92
12, 417000, Note_on_c, 4, 54, 92
12, 417104, Note_on_c, 4, 66, 0
12, 417104, Note_on_c, 4, 54, 0
12, 417120, Note_on_c, 4, 50, 92
12, 417120, Note_on_c, 4, 62, 92
12, 417344, Note_on_c, 4, 50, 0
12, 417344, Note_on_c, 4, 62, 0
12, 417360, Note_on_c, 4, 62, 92
12, 417360, Note_on_c, 4, 50, 92
12, 417464, Note_on_c, 4, 62, 0
12, 417464, Note_on_c, 4, 50, 0
12, 417480, Note_on_c, 4, 62, 100
12, 417480, Note_on_c, 4, 50, 100
12, 417540, Control_c, 4, 11, 107
12, 417809, Note_on_c, 4, 62, 0
12, 417809, Note_on_c, 4, 50, 0
12, 417838, Control_c, 4, 11, 127
12, 417840, Note_on_c, 4, 50, 92
12, 417840, Note_on_c, 4, 62, 92
12, 418064, Note_on_c, 4, 50, 0
12, 418064, Note_on_c, 4, 62, 0
12, 418080, Note_on_c, 4, 62, 92
12, 418080, Note_on_c, 4, 50, 92
12, 418184, Note_on_c, 4, 62, 0
12, 418184, Note_on_c, 4, 50, 0
12, 418200, Note_on_c, 4, 64, 92
12, 418439, Note_on_c, 4, 64, 0
12, 418560, Note_on_c, 4, 67, 92
12, 418560, Note_on_c, 4, 64, 92
12, 418784, Note_on_c, 4, 67, 0
12, 418784, Note_on_c, 4, 64, 0
12, 418800, Note_on_c, 4, 64, 92
12, 418800, Note_on_c, 4, 67, 92
12, 418904, Note_on_c, 4, 64, 0
12, 418904, Note_on_c, 4, 67, 0
12, 418920, Note_on_c, 4, 62, 92
12, 418920, Note_on_c, 4, 66, 92
12, 419144, Note_on_c, 4, 62, 0
12, 419144, Note_on_c, 4, 66, 0
12, 419160, Note_on_c, 4, 62, 92
12, 419160, Note_on_c, 4, 66, 92
12, 419264, Note_on_c, 4, 62, 0
12, 419264, Note_on_c, 4, 66, 0
12, 419280, Note_on_c, 4, 69, 92
12, 419280, Note_on_c, 4, 66, 92
12, 419504, Note_on_c, 4, 69, 0
12, 419504, Note_on_c, 4, 66, 0
12, 419520, Note_on_c, 4, 66, 92
12, 419520, Note_on_c, 4, 69, 92
12, 419624, Note_on_c, 4, 66, 0
12, 419624, Note_on_c, 4, 69, 0
12, 419640, Note_on_c, 4, 64, 92
12, 419640, Note_on_c, 4, 67, 92
12, 419864, Note_on_c, 4, 64, 0
12, 419864, Note_on_c, 4, 67, 0
12, 419880, Note_on_c, 4, 67, 92
12, 419880, Note_on_c, 4, 64, 92
12, 419984, Note_on_c, 4, 67, 0
12, 419984, Note_on_c, 4, 64, 0
12, 420000, Note_on_c, 4, 69, 92
12, 420000, Note_on_c, 4, 57, 92
12, 420224, Note_on_c, 4, 69, 0
12, 420224, Note_on_c, 4, 57, 0
12, 420240, Note_on_c, 4, 69, 92
12, 420240, Note_on_c, 4, 57, 92
12, 420344, Note_on_c, 4, 69, 0
12, 420344, Note_on_c, 4, 57, 0
12, 420360, Note_on_c, 4, 69, 92
12, 420360, Note_on_c, 4, 57, 92
12, 420584, Note_on_c, 4, 69, 0
12, 420584, Note_on_c, 4, 57, 0
12, 420600, Note_on_c, 4, 69, 92
12, 420600, Note_on_c, 4, 57, 92
12, 420704, Note_on_c, 4, 69, 0
12, 420704, Note_on_c, 4, 57, 0
12, 420720, Note_on_c, 4, 57, 92
12, 420720, Note_on_c, 4, 69, 92
12, 420944, Note_on_c, 4, 57, 0
12, 420944, Note_on_c, 4, 69, 0
12, 420960, Note_on_c, 4, 66, 92
12, 420960, Note_on_c, 4, 54, 92
12, 421064, Note_on_c, 4, 66, 0
12, 421064, Note_on_c, 4, 54, 0
12, 421080, Note_on_c, 4, 64, 92
12, 421304, Note_on_c, 4, 64, 0
12, 421320, Note_on_c, 4, 64, 92
12, 421424, Note_on_c, 4, 64, 0
12, 421440, Note_on_c, 4, 67, 92
12, 421664, Note_on_c, 4, 67, 0
12, 421680, Note_on_c, 4, 67, 92
12, 421784, Note_on_c, 4, 67, 0
12, 421800, Note_on_c, 4, 67, 92
12, 422024, Note_on_c, 4, 67, 0
12, 422040, Note_on_c, 4, 67, 92
12, 422144, Note_on_c, 4, 67, 0
12, 422160, Note_on_c, 4, 67, 92
12, 422384, Note_on_c, 4, 67, 0
12, 422400, Note_on_c, 4, 67, 92
12, 422504, Note_on_c, 4, 67, 0
12, 422520, Note_on_c, 4, 66, 92
12, 422520, Note_on_c, 4, 54, 92
12, 422744, Note_on_c, 4, 66, 0
12, 422744, Note_on_c, 4, 54, 0
12, 422760, Note_on_c, 4, 54, 92
12, 422760, Note_on_c, 4, 66, 92
12, 422864, Note_on_c, 4, 54, 0
12, 422864, Note_on_c, 4, 66, 0
12, 422880, Note_on_c, 4, 54, 92
12, 422880, Note_on_c, 4, 66, 92
12, 423104, Note_on_c, 4, 54, 0
12, 423104, Note_on_c, 4, 66, 0
12, 423120, Note_on_c, 4, 66, 92
12, 423120, Note_on_c, 4, 54, 92
12, 423224, Note_on_c, 4, 66, 0
12, 423224, Note_on_c, 4, 54, 0
12, 423240, Note_on_c, 4, 54, 100
12, 423240, Note_on_c, 4, 66, 100
12, 423300, Control_c, 4, 11, 107
12, 423824, Note_on_c, 4, 54, 0
12, 423824, Note_on_c, 4, 66, 0
12, 423838, Control_c, 4, 11, 127
12, 423840, Note_on_c, 4, 54, 92
12, 423840, Note_on_c, 4, 66, 92
12, 423944, Note_on_c, 4, 54, 0
12, 423944, Note_on_c, 4, 66, 0
12, 423960, Note_on_c, 4, 66, 100
12, 423960, Note_on_c, 4, 54, 100
12, 424020, Control_c, 4, 11, 107
12, 424544, Note_on_c, 4, 66, 0
12, 424544, Note_on_c, 4, 54, 0
12, 424558, Control_c, 4, 11, 127
12, 424560, Note_on_c, 4, 54, 92
12, 424560, Note_on_c, 4, 66, 92
12, 424664, Note_on_c, 4, 54, 0
12, 424664, Note_on_c, 4, 66, 0
12, 424680, Note_on_c, 4, 66, 100
12, 424680, Note_on_c, 4, 54, 100
12, 424740, Control_c, 4, 11, 107
12, 425264, Note_on_c, 4, 66, 0
12, 425264, Note_on_c, 4, 54, 0
12, 425278, Control_c, 4, 11, 127
12, 425280, Note_on_c, 4, 66, 92
12, 425280, Note_on_c, 4, 54, 92
12, 425384, Note_on_c, 4, 66, 0
12, 425384, Note_on_c, 4, 54, 0
12, 425400, Note_on_c, 4, 66, 100
12, 425400, Note_on_c, 4, 54, 100
12, 425460, Control_c, 4, 11, 107
12, 425984, Note_on_c, 4, 66, 0
12, 425984, Note_on_c, 4, 54, 0
12, 425998, Control_c, 4, 11, 127
12, 426000, Note_on_c, 4, 66, 92
12, 426000, Note_on_c, 4, 54, 92
12, 426104, Note_on_c, 4, 66, 0
12, 426104, Note_on_c, 4, 54, 0
12, 426120, Note_on_c, 4, 66, 100
12, 426120, Note_on_c, 4, 54, 100
12, 426180, Control_c, 4, 11, 107
12, 426704, Note_on_c, 4, 66, 0
12, 426704, Note_on_c, 4, 54, 0
12, 426718, Control_c, 4, 11, 127
12, 426720, Note_on_c, 4, 54, 92
12, 426720, Note_on_c, 4, 66, 92
12, 426824, Note_on_c, 4, 54, 0
12, 426824, Note_on_c, 4, 66, 0
12, 426840, Note_on_c, 4, 54, 100
12, 426840, Note_on_c, 4, 66, 100
12, 426900, Control_c, 4, 11, 107
12, 427424, Note_on_c, 4, 54, 0
12, 427424, Note_on_c, 4, 66, 0
12, 427438, Control_c, 4, 11, 127
12, 427440, Note_on_c, 4, 54, 92
12, 427440, Note_on_c, 4, 66, 92
12, 427544, Note_on_c, 4, 54, 0
12, 427544, Note_on_c, 4, 66, 0
12, 427560, Note_on_c, 4, 54, 100
12, 427560, Note_on_c, 4, 66, 100
12, 427620, Control_c, 4, 11, 107
12, 428144, Note_on_c, 4, 54, 0
12, 428144, Note_on_c, 4, 66, 0
12, 428158, Control_c, 4, 11, 127
12, 428160, Note_on_c, 4, 54, 92
12, 428160, Note_on_c, 4, 66, 92
12, 428264, Note_on_c, 4, 54, 0
12, 428264, Note_on_c, 4, 66, 0
12, 428280, Note_on_c, 4, 66, 100
12, 428280, Note_on_c, 4, 54, 100
12, 428340, Control_c, 4, 11, 107
12, 428864, Note_on_c, 4, 66, 0
12, 428864, Note_on_c, 4, 54, 0
12, 428878, Control_c, 4, 11, 127
12, 428880, Note_on_c, 4, 54, 92
12, 428880, Control_c, 4, 11, 127
12, 428880, Note_on_c, 4, 66, 92
12, 428913, Control_c, 4, 11, 126
12, 428946, Control_c, 4, 11, 125
12, 428979, Control_c, 4, 11, 124
12, 428984, Note_on_c, 4, 54, 0
12, 428984, Note_on_c, 4, 66, 0
12, 429000, Note_on_c, 4, 66, 92
12, 429000, Note_on_c, 4, 54, 92
12, 429012, Control_c, 4, 11, 123
12, 429045, Control_c, 4, 11, 122
12, 429078, Control_c, 4, 11, 121
12, 429111, Control_c, 4, 11, 120
12, 429144, Control_c, 4, 11, 119
12, 429177, Control_c, 4, 11, 118
12, 429210, Control_c, 4, 11, 117
12, 429243, Control_c, 4, 11, 116
12, 429276, Control_c, 4, 11, 115
12, 429309, Control_c, 4, 11, 114
12, 429342, Control_c, 4, 11, 113
12, 429375, Control_c, 4, 11, 112
12, 429408, Control_c, 4, 11, 111
12, 429441, Control_c, 4, 11, 110
12, 429474, Control_c, 4, 11, 109
12, 429507, Control_c, 4, 11, 108
12, 429540, Control_c, 4, 11, 107
12, 429573, Control_c, 4, 11, 106
12, 429584, Note_on_c, 4, 66, 0
12, 429584, Note_on_c, 4, 54, 0
12, 429600, Note_on_c, 4, 66, 92
12, 429600, Note_on_c, 4, 54, 92
12, 429606, Control_c, 4, 11, 105
12, 429639, Control_c, 4, 11, 104
12, 429672, Control_c, 4, 11, 103
12, 429704, Note_on_c, 4, 66, 0
12, 429704, Note_on_c, 4, 54, 0
12, 429705, Control_c, 4, 11, 102
12, 429720, Note_on_c, 4, 66, 92
12, 429720, Note_on_c, 4, 54, 92
12, 429738, Control_c, 4, 11, 101
12, 429771, Control_c, 4, 11, 100
12, 429804, Control_c, 4, 11, 99
12, 429837, Control_c, 4, 11, 98
12, 429870, Control_c, 4, 11, 97
12, 429903, Control_c, 4, 11, 96
12, 429936, Control_c, 4, 11, 95
12, 429969, Control_c, 4, 11, 94
12, 430002, Control_c, 4, 11, 93
12, 430035, Control_c, 4, 11, 92
12, 430068, Control_c, 4, 11, 91
12, 430101, Control_c, 4, 11, 90
12, 430134, Control_c, 4, 11, 89
12, 430167, Control_c, 4, 11, 88
12, 430200, Control_c, 4, 11, 87
12, 430233, Control_c, 4, 11, 86
12, 430266, Control_c, 4, 11, 85
12, 430299, Control_c, 4, 11, 84
12, 430304, Note_on_c, 4, 66, 0
12, 430304, Note_on_c, 4, 54, 0
12, 430320, Note_on_c, 4, 54, 92
12, 430320, Note_on_c, 4, 66, 92
12, 430332, Control_c, 4, 11, 83
12, 430365, Control_c, 4, 11, 82
12, 430398, Control_c, 4, 11, 81
12, 430424, Note_on_c, 4, 54, 0
12, 430424, Note_on_c, 4, 66, 0
12, 430431, Control_c, 4, 11, 80
12, 430440, Note_on_c, 4, 66, 92
12, 430440, Note_on_c, 4, 54, 92
12, 430464, Control_c, 4, 11, 79
12, 430497, Control_c, 4, 11, 78
12, 430530, Control_c, 4, 11, 77
12, 430563, Control_c, 4, 11, 76
12, 430596, Control_c, 4, 11, 75
12, 430629, Control_c, 4, 11, 74
12, 430662, Control_c, 4, 11, 73
12, 430695, Control_c, 4, 11, 72
12, 430728, Control_c, 4, 11, 71
12, 430761, Control_c, 4, 11, 70
12, 430794, Control_c, 4, 11, 69
12, 430827, Control_c, 4, 11, 68
12, 430860, Control_c, 4, 11, 67
12, 430893, Control_c, 4, 11, 66
12, 430926, Control_c, 4, 11, 65
12, 430959, Control_c, 4, 11, 64
12, 430992, Control_c, 4, 11, 63
12, 431024, Note_on_c, 4, 66, 0
12, 431024, Note_on_c, 4, 54, 0
12, 431025, Control_c, 4, 11, 62
12, 431040, Note_on_c, 4, 66, 92
12, 431040, Note_on_c, 4, 54, 92
12, 431058, Control_c, 4, 11, 61
12, 431091, Control_c, 4, 11, 60
12, 431124, Control_c, 4, 11, 59
12, 431144, Note_on_c, 4, 66, 0
12, 431144, Note_on_c, 4, 54, 0
12, 431157, Control_c, 4, 11, 58
12, 431160, Note_on_c, 4, 54, 92
12, 431160, Note_on_c, 4, 66, 92
12, 431190, Control_c, 4, 11, 57
12, 431223, Control_c, 4, 11, 56
12, 431256, Control_c, 4, 11, 55
12, 431289, Control_c, 4, 11, 54
12, 431322, Control_c, 4, 11, 53
12, 431355, Control_c, 4, 11, 52
12, 431388, Control_c, 4, 11, 51
12, 431421, Control_c, 4, 11, 50
12, 431454, Control_c, 4, 11, 49
12, 431487, Control_c, 4, 11, 48
12, 431504, Note_on_c, 4, 54, 0
12, 431504, Note_on_c, 4, 66, 0
12, 431520, Note_on_c, 4, 66, 92
12, 431520, Note_on_c, 4, 54, 92
12, 431520, Control_c, 4, 11, 47
12, 432960, Control_c, 4, 11, 37
12, 433184, Note_on_c, 4, 66, 0
12, 433184, Note_on_c, 4, 54, 0
12, 433200, Note_on_c, 4, 66, 92
12, 433200, Note_on_c, 4, 54, 92
12, 433304, Note_on_c, 4, 66, 0
12, 433304, Note_on_c, 4, 54, 0
12, 433320, Note_on_c, 4, 54, 92
12, 433320, Note_on_c, 4, 66, 92
12, 433904, Note_on_c, 4, 54, 0
12, 433904, Note_on_c, 4, 66, 0
12, 433920, Note_on_c, 4, 66, 92
12, 433920, Note_on_c, 4, 54, 92
12, 434024, Note_on_c, 4, 66, 0
12, 434024, Note_on_c, 4, 54, 0
12, 434040, Note_on_c, 4, 54, 92
12, 434040, Note_on_c, 4, 66, 92
12, 434624, Note_on_c, 4, 54, 0
12, 434624, Note_on_c, 4, 66, 0
12, 434640, Note_on_c, 4, 66, 92
12, 434640, Note_on_c, 4, 54, 92
12, 434744, Note_on_c, 4, 66, 0
12, 434744, Note_on_c, 4, 54, 0
12, 434760, Note_on_c, 4, 66, 92
12, 434760, Note_on_c, 4, 54, 92
12, 435344, Note_on_c, 4, 66, 0
12, 435344, Note_on_c, 4, 54, 0
12, 435360, Note_on_c, 4, 54, 92
12, 435360, Note_on_c, 4, 66, 92
12, 435464, Note_on_c, 4, 54, 0
12, 435464, Note_on_c, 4, 66, 0
12, 435480, Note_on_c, 4, 66, 92
12, 435480, Note_on_c, 4, 54, 92
12, 435824, Note_on_c, 4, 66, 0
12, 435824, Note_on_c, 4, 54, 0
12, 435838, Control_c, 4, 11, 29
12, 435840, Note_on_c, 4, 66, 92
12, 435840, Note_on_c, 4, 54, 92
12, 437504, Note_on_c, 4, 66, 0
12, 437504, Note_on_c, 4, 54, 0
12, 437520, Note_on_c, 4, 54, 92
12, 437520, Note_on_c, 4, 66, 92
12, 437624, Note_on_c, 4, 54, 0
12, 437624, Note_on_c, 4, 66, 0
12, 437640, Note_on_c, 4, 54, 92
12, 437640, Note_on_c, 4, 66, 92
12, 438224, Note_on_c, 4, 54, 0
12, 438224, Note_on_c, 4, 66, 0
12, 438240, Note_on_c, 4, 54, 92
12, 438240, Note_on_c, 4, 66, 92
12, 438344, Note_on_c, 4, 54, 0
12, 438344, Note_on_c, 4, 66, 0
12, 438360, Note_on_c, 4, 54, 92
12, 438360, Note_on_c, 4, 66, 92
12, 438944, Note_on_c, 4, 54, 0
12, 438944, Note_on_c, 4, 66, 0
12, 438960, Note_on_c, 4, 54, 92
12, 438960, Note_on_c, 4, 66, 92
12, 439064, Note_on_c, 4, 54, 0
12, 439064, Note_on_c, 4, 66, 0
12, 439080, Note_on_c, 4, 54, 92
12, 439080, Note_on_c, 4, 66, 92
12, 439664, Note_on_c, 4, 54, 0
12, 439664, Note_on_c, 4, 66, 0
12, 439680, Note_on_c, 4, 54, 92
12, 439680, Note_on_c, 4, 66, 92
12, 439784, Note_on_c, 4, 54, 0
12, 439784, Note_on_c, 4, 66, 0
12, 439800, Note_on_c, 4, 54, 92
12, 439800, Note_on_c, 4, 66, 92
12, 440129, Note_on_c, 4, 54, 0
12, 440129, Note_on_c, 4, 66, 0
12, 440158, Control_c, 4, 11, 29
12, 440160, Control_c, 4, 11, 29
12, 440160, Note_on_c, 4, 66, 92
12, 440160, Note_on_c, 4, 62, 92
12, 440184, Control_c, 4, 11, 31
12, 440208, Control_c, 4, 11, 32
12, 440232, Control_c, 4, 11, 34
12, 440256, Control_c, 4, 11, 36
12, 440280, Control_c, 4, 11, 37
12, 440304, Control_c, 4, 11, 39
12, 440328, Control_c, 4, 11, 40
12, 440352, Control_c, 4, 11, 42
12, 440376, Control_c, 4, 11, 44
12, 440400, Control_c, 4, 11, 45
12, 440424, Control_c, 4, 11, 47
12, 440448, Control_c, 4, 11, 49
12, 440472, Control_c, 4, 11, 50
12, 440496, Control_c, 4, 11, 52
12, 440520, Control_c, 4, 11, 54
12, 440544, Control_c, 4, 11, 55
12, 440568, Control_c, 4, 11, 57
12, 440592, Control_c, 4, 11, 58
12, 440616, Control_c, 4, 11, 60
12, 440640, Control_c, 4, 11, 62
12, 440664, Control_c, 4, 11, 63
12, 440688, Control_c, 4, 11, 65
12, 440712, Control_c, 4, 11, 67
12, 440736, Control_c, 4, 11, 68
12, 440760, Control_c, 4, 11, 70
12, 440784, Control_c, 4, 11, 71
12, 440808, Control_c, 4, 11, 73
12, 440832, Control_c, 4, 11, 75
12, 440856, Control_c, 4, 11, 76
12, 440864, Note_on_c, 4, 66, 0
12, 440864, Note_on_c, 4, 62, 0
12, 440880, Control_c, 4, 11, 78
12, 440880, Note_on_c, 4, 64, 92
12, 440880, Note_on_c, 4, 67, 92
12, 440904, Control_c, 4, 11, 80
12, 440928, Control_c, 4, 11, 81
12, 440952, Control_c, 4, 11, 83
12, 440976, Control_c, 4, 11, 85
12, 441000, Control_c, 4, 11, 86
12, 441024, Control_c, 4, 11, 88
12, 441048, Control_c, 4, 11, 89
12, 441072, Control_c, 4, 11, 91
12, 441096, Control_c, 4, 11, 93
12, 441120, Control_c, 4, 11, 94
12, 441144, Control_c, 4, 11, 96
12, 441168, Control_c, 4, 11, 98
12, 441192, Control_c, 4, 11, 99
12, 441216, Control_c, 4, 11, 101
12, 441239, Note_on_c, 4, 64, 0
12, 441239, Note_on_c, 4, 67, 0
12, 441240, Note_on_c, 4, 66, 92
12, 441240, Note_on_c, 4, 69, 92
12, 441240, Control_c, 4, 11, 103
12, 441264, Control_c, 4, 11, 104
12, 441288, Control_c, 4, 11, 106
12, 441312, Control_c, 4, 11, 107
12, 441336, Control_c, 4, 11, 109
12, 441360, Control_c, 4, 11, 111
12, 441384, Control_c, 4, 11, 112
12, 441408, Control_c, 4, 11, 114
12, 441432, Control_c, 4, 11, 116
12, 441456, Control_c, 4, 11, 117
12, 441480, Control_c, 4, 11, 119
12, 441504, Control_c, 4, 11, 120
12, 441528, Control_c, 4, 11, 122
12, 441552, Control_c, 4, 11, 124
12, 441576, Control_c, 4, 11, 127
12, 441599, Note_on_c, 4, 66, 0
12, 441599, Note_on_c, 4, 69, 0
12, 441600, Note_on_c, 4, 62, 92
12, 441600, Note_on_c, 4, 66, 92
12, 441839, Note_on_c, 4, 62, 0
12, 441839, Note_on_c, 4, 66, 0
12, 441960, Note_on_c, 4, 62, 92
12, 441960, Note_on_c, 4, 66, 92
12, 442199, Note_on_c, 4, 62, 0
12, 442199, Note_on_c, 4, 66, 0
12, 442320, Note_on_c, 4, 64, 92
12, 442320, Note_on_c, 4, 67, 92
12, 442559, Note_on_c, 4, 64, 0
12, 442559, Note_on_c, 4, 67, 0
12, 442680, Note_on_c, 4, 69, 92
12, 442680, Note_on_c, 4, 66, 92
12, 442919, Note_on_c, 4, 69, 0
12, 442919, Note_on_c, 4, 66, 0
12, 443040, Note_on_c, 4, 66, 92
12, 443040, Note_on_c, 4, 69, 92
12, 443279, Note_on_c, 4, 66, 0
12, 443279, Note_on_c, 4, 69, 0
12, 443400, Note_on_c, 4, 64, 92
12, 443400, Note_on_c, 4, 67, 92
12, 443639, Note_on_c, 4, 64, 0
12, 443639, Note_on_c, 4, 67, 0
12, 443760, Note_on_c, 4, 66, 92
12, 443760, Note_on_c, 4, 62, 92
12, 443999, Note_on_c, 4, 66, 0
12, 443999, Note_on_c, 4, 62, 0
12, 444120, Note_on_c, 4, 64, 92
12, 444120, Note_on_c, 4, 57, 92
12, 444359, Note_on_c, 4, 64, 0
12, 444359, Note_on_c, 4, 57, 0
12, 444480, Note_on_c, 4, 62, 92
12, 444480, Note_on_c, 4, 54, 92
12, 444719, Note_on_c, 4, 62, 0
12, 444719, Note_on_c, 4, 54, 0
12, 444840, Note_on_c, 4, 62, 92
12, 444840, Note_on_c, 4, 54, 92
12, 445079, Note_on_c, 4, 62, 0
12, 445079, Note_on_c, 4, 54, 0
12, 445200, Note_on_c, 4, 57, 92
12, 445200, Note_on_c, 4, 64, 92
12, 445439, Note_on_c, 4, 57, 0
12, 445439, Note_on_c, 4, 64, 0
12, 445560, Note_on_c, 4, 62, 92
12, 445560, Note_on_c, 4, 66, 92
12, 445799, Note_on_c, 4, 62, 0
12, 445799, Note_on_c, 4, 66, 0
12, 445920, Note_on_c, 4, 66, 92
12, 445920, Note_on_c, 4, 62, 92
12, 446159, Note_on_c, 4, 66, 0
12, 446159, Note_on_c, 4, 62, 0
12, 446520, Note_on_c, 4, 64, 92
12, 446520, Note_on_c, 4, 57, 92
12, 446624, Note_on_c, 4, 64, 0
12, 446624, Note_on_c, 4, 57, 0
12, 446640, Note_on_c, 4, 57, 92
12, 446640, Note_on_c, 4, 69, 92
12, 446864, Note_on_c, 4, 57, 0
12, 446864, Note_on_c, 4, 69, 0
12, 446880, Note_on_c, 4, 67, 92
12, 446880, Note_on_c, 4, 64, 92
12, 446984, Note_on_c, 4, 67, 0
12, 446984, Note_on_c, 4, 64, 0
12, 447000, Note_on_c, 4, 62, 92
12, 447000, Note_on_c, 4, 66, 92
12, 447224, Note_on_c, 4, 62, 0
12, 447224, Note_on_c, 4, 66, 0
12, 447240, Note_on_c, 4, 64, 92
12, 447240, Note_on_c, 4, 57, 92
12, 447344, Note_on_c, 4, 64, 0
12, 447344, Note_on_c, 4, 57, 0
12, 447360, Note_on_c, 4, 66, 92
12, 447360, Note_on_c, 4, 50, 92
12, 447599, Note_on_c, 4, 66, 0
12, 447599, Note_on_c, 4, 50, 0
12, 447720, Note_on_c, 4, 66, 92
12, 447720, Note_on_c, 4, 62, 92
12, 447959, Note_on_c, 4, 66, 0
12, 447959, Note_on_c, 4, 62, 0
12, 448080, Note_on_c, 4, 67, 92
12, 448080, Note_on_c, 4, 62, 92
12, 448319, Note_on_c, 4, 67, 0
12, 448319, Note_on_c, 4, 62, 0
12, 448440, Note_on_c, 4, 62, 92
12, 448440, Note_on_c, 4, 69, 92
12, 448679, Note_on_c, 4, 62, 0
12, 448679, Note_on_c, 4, 69, 0
12, 448800, Note_on_c, 4, 69, 92
12, 448800, Note_on_c, 4, 62, 92
12, 449039, Note_on_c, 4, 69, 0
12, 449039, Note_on_c, 4, 62, 0
12, 449160, Note_on_c, 4, 67, 92
12, 449160, Note_on_c, 4, 62, 92
12, 449399, Note_on_c, 4, 67, 0
12, 449399, Note_on_c, 4, 62, 0
12, 449520, Note_on_c, 4, 62, 92
12, 449520, Note_on_c, 4, 66, 92
12, 449759, Note_on_c, 4, 62, 0
12, 449759, Note_on_c, 4, 66, 0
12, 449880, Note_on_c, 4, 62, 92
12, 449880, Note_on_c, 4, 64, 92
12, 450119, Note_on_c, 4, 62, 0
12, 450119, Note_on_c, 4, 64, 0
12, 450240, Note_on_c, 4, 62, 92
12, 450240, Note_on_c, 4, 54, 92
12, 450479, Note_on_c, 4, 62, 0
12, 450479, Note_on_c, 4, 54, 0
12, 450600, Note_on_c, 4, 62, 92
12, 450600, Note_on_c, 4, 54, 92
12, 450839, Note_on_c, 4, 62, 0
12, 450839, Note_on_c, 4, 54, 0
12, 450960, Note_on_c, 4, 64, 92
12, 450960, Note_on_c, 4, 57, 92
12, 451199, Note_on_c, 4, 64, 0
12, 451199, Note_on_c, 4, 57, 0
12, 451320, Note_on_c, 4, 66, 92
12, 451320, Note_on_c, 4, 62, 92
12, 451559, Note_on_c, 4, 66, 0
12, 451559, Note_on_c, 4, 62, 0
12, 451680, Note_on_c, 4, 64, 92
12, 451680, Note_on_c, 4, 57, 92
12, 451919, Note_on_c, 4, 64, 0
12, 451919, Note_on_c, 4, 57, 0
12, 452280, Note_on_c, 4, 54, 92
12, 452280, Note_on_c, 4, 62, 92
12, 452384, Note_on_c, 4, 54, 0
12, 452384, Note_on_c, 4, 62, 0
12, 452400, Note_on_c, 4, 54, 92
12, 452400, Note_on_c, 4, 62, 92
12, 452624, Note_on_c, 4, 54, 0
12, 452624, Note_on_c, 4, 62, 0
12, 452640, Note_on_c, 4, 62, 92
12, 452640, Note_on_c, 4, 54, 92
12, 452744, Note_on_c, 4, 62, 0
12, 452744, Note_on_c, 4, 54, 0
12, 452760, Note_on_c, 4, 54, 92
12, 452760, Note_on_c, 4, 62, 92
12, 452984, Note_on_c, 4, 54, 0
12, 452984, Note_on_c, 4, 62, 0
12, 453000, Note_on_c, 4, 50, 92
12, 453000, Note_on_c, 4, 66, 92
12, 453104, Note_on_c, 4, 50, 0
12, 453104, Note_on_c, 4, 66, 0
12, 453120, Note_on_c, 4, 64, 92
12, 453120, Note_on_c, 4, 57, 92
12, 453359, Note_on_c, 4, 64, 0
12, 453359, Note_on_c, 4, 57, 0
12, 453480, Note_on_c, 4, 57, 92
12, 453480, Note_on_c, 4, 64, 92
12, 453719, Note_on_c, 4, 57, 0
12, 453719, Note_on_c, 4, 64, 0
12, 453840, Note_on_c, 4, 66, 92
12, 453840, Note_on_c, 4, 62, 92
12, 454079, Note_on_c, 4, 66, 0
12, 454079, Note_on_c, 4, 62, 0
12, 454200, Note_on_c, 4, 62, 92
12, 454200, Note_on_c, 4, 54, 92
12, 454439, Note_on_c, 4, 62, 0
12, 454439, Note_on_c, 4, 54, 0
12, 454560, Note_on_c, 4, 64, 92
12, 454560, Note_on_c, 4, 57, 92
12, 454799, Note_on_c, 4, 64, 0
12, 454799, Note_on_c, 4, 57, 0
12, 454920, Note_on_c, 4, 62, 92
12, 454920, Note_on_c, 4, 66, 92
12, 455144, Note_on_c, 4, 62, 0
12, 455144, Note_on_c, 4, 66, 0
12, 455160, Note_on_c, 4, 64, 92
12, 455160, Note_on_c, 4, 67, 92
12, 455264, Note_on_c, 4, 64, 0
12, 455264, Note_on_c, 4, 67, 0
12, 455280, Note_on_c, 4, 66, 92
12, 455280, Note_on_c, 4, 62, 92
12, 455519, Note_on_c, 4, 66, 0
12, 455519, Note_on_c, 4, 62, 0
12, 455640, Note_on_c, 4, 54, 92
12, 455640, Note_on_c, 4, 62, 92
12, 455879, Note_on_c, 4, 54, 0
12, 455879, Note_on_c, 4, 62, 0
12, 456000, Note_on_c, 4, 64, 92
12, 456000, Note_on_c, 4, 57, 92
12, 456239, Note_on_c, 4, 64, 0
12, 456239, Note_on_c, 4, 57, 0
12, 456360, Note_on_c, 4, 66, 92
12, 456360, Note_on_c, 4, 62, 92
12, 456584, Note_on_c, 4, 66, 0
12, 456584, Note_on_c, 4, 62, 0
12, 456600, Note_on_c, 4, 67, 92
12, 456600, Note_on_c, 4, 64, 92
12, 456704, Note_on_c, 4, 67, 0
12, 456704, Note_on_c, 4, 64, 0
12, 456720, Note_on_c, 4, 66, 92
12, 456720, Note_on_c, 4, 54, 92
12, 456959, Note_on_c, 4, 66, 0
12, 456959, Note_on_c, 4, 54, 0
12, 457080, Note_on_c, 4, 66, 92
12, 457080, Note_on_c, 4, 54, 92
12, 457319, Note_on_c, 4, 66, 0
12, 457319, Note_on_c, 4, 54, 0
12, 457440, Note_on_c, 4, 66, 92
12, 457440, Note_on_c, 4, 54, 92
12, 457679, Note_on_c, 4, 66, 0
12, 457679, Note_on_c, 4, 54, 0
12, 457800, Note_on_c, 4, 64, 92
12, 458039, Note_on_c, 4, 64, 0
12, 458160, Note_on_c, 4, 57, 92
12, 458160, Note_on_c, 4, 64, 92
12, 458399, Note_on_c, 4, 57, 0
12, 458399, Note_on_c, 4, 64, 0
12, 458520, Note_on_c, 4, 66, 92
12, 458520, Note_on_c, 4, 62, 92
12, 458759, Note_on_c, 4, 66, 0
12, 458759, Note_on_c, 4, 62, 0
12, 458880, Note_on_c, 4, 62, 92
12, 458880, Note_on_c, 4, 66, 92
12, 459119, Note_on_c, 4, 62, 0
12, 459119, Note_on_c, 4, 66, 0
12, 459240, Note_on_c, 4, 62, 92
12, 459240, Note_on_c, 4, 66, 92
12, 459479, Note_on_c, 4, 62, 0
12, 459479, Note_on_c, 4, 66, 0
12, 459600, Note_on_c, 4, 67, 92
12, 459600, Note_on_c, 4, 62, 92
12, 459839, Note_on_c, 4, 67, 0
12, 459839, Note_on_c, 4, 62, 0
12, 459960, Note_on_c, 4, 69, 92
12, 459960, Note_on_c, 4, 62, 92
12, 460199, Note_on_c, 4, 69, 0
12, 460199, Note_on_c, 4, 62, 0
12, 460320, Note_on_c, 4, 62, 92
12, 460320, Note_on_c, 4, 69, 92
12, 460559, Note_on_c, 4, 62, 0
12, 460559, Note_on_c, 4, 69, 0
12, 460680, Note_on_c, 4, 67, 92
12, 460680, Note_on_c, 4, 62, 92
12, 460919, Note_on_c, 4, 67, 0
12, 460919, Note_on_c, 4, 62, 0
12, 461040, Note_on_c, 4, 66, 92
12, 461040, Note_on_c, 4, 62, 92
12, 461279, Note_on_c, 4, 66, 0
12, 461279, Note_on_c, 4, 62, 0
12, 461400, Note_on_c, 4, 64, 92
12, 461400, Note_on_c, 4, 62, 92
12, 461639, Note_on_c, 4, 64, 0
12, 461639, Note_on_c, 4, 62, 0
12, 461760, Note_on_c, 4, 54, 92
12, 461760, Note_on_c, 4, 62, 92
12, 461999, Note_on_c, 4, 54, 0
12, 461999, Note_on_c, 4, 62, 0
12, 462120, Note_on_c, 4, 62, 92
12, 462120, Note_on_c, 4, 54, 92
12, 462359, Note_on_c, 4, 62, 0
12, 462359, Note_on_c, 4, 54, 0
12, 462480, Note_on_c, 4, 64, 92
12, 462480, Note_on_c, 4, 57, 92
12, 462719, Note_on_c, 4, 64, 0
12, 462719, Note_on_c, 4, 57, 0
12, 462840, Note_on_c, 4, 62, 92
12, 462840, Note_on_c, 4, 66, 92
12, 463079, Note_on_c, 4, 62, 0
12, 463079, Note_on_c, 4, 66, 0
12, 463200, Note_on_c, 4, 57, 92
12, 463200, Note_on_c, 4, 64, 92
12, 463439, Note_on_c, 4, 57, 0
12, 463439, Note_on_c, 4, 64, 0
12, 463800, Note_on_c, 4, 62, 92
12, 463800, Note_on_c, 4, 54, 92
12, 463904, Note_on_c, 4, 62, 0
12, 463904, Note_on_c, 4, 54, 0
12, 463920, Note_on_c, 4, 54, 92
12, 463920, Note_on_c, 4, 62, 92
12, 464144, Note_on_c, 4, 54, 0
12, 464144, Note_on_c, 4, 62, 0
12, 464160, Note_on_c, 4, 62, 92
12, 464160, Note_on_c, 4, 54, 92
12, 464264, Note_on_c, 4, 62, 0
12, 464264, Note_on_c, 4, 54, 0
12, 464280, Note_on_c, 4, 54, 92
12, 464280, Note_on_c, 4, 62, 92
12, 464504, Note_on_c, 4, 54, 0
12, 464504, Note_on_c, 4, 62, 0
12, 464520, Note_on_c, 4, 50, 92
12, 464520, Note_on_c, 4, 66, 92
12, 464624, Note_on_c, 4, 50, 0
12, 464624, Note_on_c, 4, 66, 0
12, 464640, Note_on_c, 4, 57, 92
12, 464640, Note_on_c, 4, 64, 92
12, 464879, Note_on_c, 4, 57, 0
12, 464879, Note_on_c, 4, 64, 0
12, 465000, Note_on_c, 4, 64, 92
12, 465000, Note_on_c, 4, 57, 92
12, 465239, Note_on_c, 4, 64, 0
12, 465239, Note_on_c, 4, 57, 0
12, 465360, Note_on_c, 4, 62, 92
12, 465360, Note_on_c, 4, 66, 92
12, 465599, Note_on_c, 4, 62, 0
12, 465599, Note_on_c, 4, 66, 0
12, 465720, Note_on_c, 4, 62, 92
12, 465720, Note_on_c, 4, 54, 92
12, 465959, Note_on_c, 4, 62, 0
12, 465959, Note_on_c, 4, 54, 0
12, 466080, Note_on_c, 4, 57, 92
12, 466080, Note_on_c, 4, 64, 92
12, 466319, Note_on_c, 4, 57, 0
12, 466319, Note_on_c, 4, 64, 0
12, 466440, Note_on_c, 4, 62, 92
12, 466440, Note_on_c, 4, 66, 92
12, 466664, Note_on_c, 4, 62, 0
12, 466664, Note_on_c, 4, 66, 0
12, 466680, Note_on_c, 4, 67, 92
12, 466680, Note_on_c, 4, 64, 92
12, 466784, Note_on_c, 4, 67, 0
12, 466784, Note_on_c, 4, 64, 0
12, 466800, Note_on_c, 4, 66, 92
12, 466800, Note_on_c, 4, 62, 92
12, 467039, Note_on_c, 4, 66, 0
12, 467039, Note_on_c, 4, 62, 0
12, 467160, Note_on_c, 4, 54, 92
12, 467160, Note_on_c, 4, 62, 92
12, 467399, Note_on_c, 4, 54, 0
12, 467399, Note_on_c, 4, 62, 0
12, 467520, Note_on_c, 4, 57, 92
12, 467520, Note_on_c, 4, 64, 92
12, 467759, Note_on_c, 4, 57, 0
12, 467759, Note_on_c, 4, 64, 0
12, 467880, Note_on_c, 4, 66, 92
12, 467880, Note_on_c, 4, 62, 92
12, 468104, Note_on_c, 4, 66, 0
12, 468104, Note_on_c, 4, 62, 0
12, 468120, Note_on_c, 4, 64, 92
12, 468120, Note_on_c, 4, 67, 92
12, 468224, Note_on_c, 4, 64, 0
12, 468224, Note_on_c, 4, 67, 0
12, 468240, Note_on_c, 4, 54, 92
12, 468240, Note_on_c, 4, 66, 92
12, 468479, Note_on_c, 4, 54, 0
12, 468479, Note_on_c, 4, 66, 0
12, 468600, Note_on_c, 4, 66, 92
12, 468600, Note_on_c, 4, 54, 92
12, 468839, Note_on_c, 4, 66, 0
12, 468839, Note_on_c, 4, 54, 0
12, 468960, Note_on_c, 4, 66, 92
12, 468960, Note_on_c, 4, 54, 92
12, 469199, Note_on_c, 4, 66, 0
12, 469199, Note_on_c, 4, 54, 0
12, 469320, Note_on_c, 4, 64, 92
12, 469559, Note_on_c, 4, 64, 0
12, 469680, Note_on_c, 4, 57, 92
12, 469680, Note_on_c, 4, 64, 92
12, 469919, Note_on_c, 4, 57, 0
12, 469919, Note_on_c, 4, 64, 0
12, 470040, Note_on_c, 4, 66, 92
12, 470040, Note_on_c, 4, 62, 92
12, 470279, Note_on_c, 4, 66, 0
12, 470279, Note_on_c, 4, 62, 0
12, 470400, Note_on_c, 4, 62, 92
12, 470400, Note_on_c, 4, 66, 92
12, 470639, Note_on_c, 4, 62, 0
12, 470639, Note_on_c, 4, 66, 0
12, 470760, Note_on_c, 4, 62, 92
12, 470760, Note_on_c, 4, 66, 92
12, 470999, Note_on_c, 4, 62, 0
12, 470999, Note_on_c, 4, 66, 0
12, 471120, Note_on_c, 4, 67, 92
12, 471120, Note_on_c, 4, 62, 92
12, 471359, Note_on_c, 4, 67, 0
12, 471359, Note_on_c, 4, 62, 0
12, 471480, Note_on_c, 4, 62, 92
12, 471480, Note_on_c, 4, 69, 92
12, 471719, Note_on_c, 4, 62, 0
12, 471719, Note_on_c, 4, 69, 0
12, 471840, Note_on_c, 4, 69, 92
12, 471840, Note_on_c, 4, 62, 92
12, 472079, Note_on_c, 4, 69, 0
12, 472079, Note_on_c, 4, 62, 0
12, 472200, Note_on_c, 4, 62, 92
12, 472200, Note_on_c, 4, 67, 92
12, 472439, Note_on_c, 4, 62, 0
12, 472439, Note_on_c, 4, 67, 0
12, 472560, Note_on_c, 4, 62, 92
12, 472560, Note_on_c, 4, 66, 92
12, 472799, Note_on_c, 4, 62, 0
12, 472799, Note_on_c, 4, 66, 0
12, 472920, Note_on_c, 4, 64, 92
12, 472920, Note_on_c, 4, 62, 92
12, 473159, Note_on_c, 4, 64, 0
12, 473159, Note_on_c, 4, 62, 0
12, 473280, Note_on_c, 4, 62, 92
12, 473280, Note_on_c, 4, 54, 92
12, 473519, Note_on_c, 4, 62, 0
12, 473519, Note_on_c, 4, 54, 0
12, 473640, Note_on_c, 4, 62, 92
12, 473640, Note_on_c, 4, 54, 92
12, 473879, Note_on_c, 4, 62, 0
12, 473879, Note_on_c, 4, 54, 0
12, 474000, Note_on_c, 4, 64, 92
12, 474000, Note_on_c, 4, 57, 92
12, 474239, Note_on_c, 4, 64, 0
12, 474239, Note_on_c, 4, 57, 0
12, 474360, Note_on_c, 4, 62, 92
12, 474360, Note_on_c, 4, 66, 92
12, 474599, Note_on_c, 4, 62, 0
12, 474599, Note_on_c, 4, 66, 0
12, 474720, Note_on_c, 4, 57, 92
12, 474720, Note_on_c, 4, 64, 92
12, 474959, Note_on_c, 4, 57, 0
12, 474959, Note_on_c, 4, 64, 0
12, 475320, Note_on_c, 4, 54, 92
12, 475320, Note_on_c, 4, 62, 92
12, 475424, Note_on_c, 4, 54, 0
12, 475424, Note_on_c, 4, 62, 0
12, 475440, Note_on_c, 4, 54, 92
12, 475440, Note_on_c, 4, 62, 92
12, 475679, Note_on_c, 4, 54, 0
12, 475679, Note_on_c, 4, 62, 0
12, 475800, Note_on_c, 4, 69, 92
12, 475800, Note_on_c, 4, 66, 92
12, 476039, Note_on_c, 4, 69, 0
12, 476039, Note_on_c, 4, 66, 0
12, 476160, Note_on_c, 4, 64, 100
12, 476160, Note_on_c, 4, 67, 100
12, 476399, Note_on_c, 4, 64, 0
12, 476399, Note_on_c, 4, 67, 0
12, 476760, Note_on_c, 4, 62, 92
12, 476760, Note_on_c, 4, 66, 92
12, 476864, Note_on_c, 4, 62, 0
12, 476864, Note_on_c, 4, 66, 0
12, 476880, Note_on_c, 4, 66, 92
12, 476880, Note_on_c, 4, 62, 92
12, 477119, Note_on_c, 4, 66, 0
12, 477119, Note_on_c, 4, 62, 0
12, 477240, Note_on_c, 4, 50, 92
12, 477240, Note_on_c, 4, 62, 92
12, 477479, Note_on_c, 4, 50, 0
12, 477479, Note_on_c, 4, 62, 0
12, 477600, Note_on_c, 4, 69, 100
12, 477600, Note_on_c, 4, 66, 100
12, 477839, Note_on_c, 4, 69, 0
12, 477839, Note_on_c, 4, 66, 0
12, 478200, Note_on_c, 4, 67, 92
12, 478304, Note_on_c, 4, 67, 0
12, 478320, Note_on_c, 4, 67, 92
12, 478559, Note_on_c, 4, 67, 0
12, 558240, Control_c, 4, 11, 127
12, 558240, Control_c, 4, 7, 104
12, 558240, Program_c, 4, 60
12, 558240, Control_c, 4, 10, 45
12, 561600, Note_on_c, 4, 57, 32
12, 561600, Note_on_c, 4, 64, 32
12, 562064, Note_on_c, 4, 57, 0
12, 562064, Note_on_c, 4, 64, 0
12, 562080, Note_on_c, 4, 64, 32
12, 562080, Note_on_c, 4, 57, 32
12, 562544, Note_on_c, 4, 64, 0
12, 562544, Note_on_c, 4, 57, 0
12, 562560, Note_on_c, 4, 57, 32
12, 562560, Note_on_c, 4, 64, 32
12, 563504, Note_on_c, 4, 57, 0
12, 563504, Note_on_c, 4, 64, 0
12, 563520, Note_on_c, 4, 57, 32
12, 563520, Note_on_c, 4, 64, 32
12, 563984, Note_on_c, 4, 57, 0
12, 563984, Note_on_c, 4, 64, 0
12, 564000, Note_on_c, 4, 57, 32
12, 564000, Note_on_c, 4, 64, 32
12, 564464, Note_on_c, 4, 57, 0
12, 564464, Note_on_c, 4, 64, 0
12, 564480, Note_on_c, 4, 64, 32
12, 564480, Note_on_c, 4, 57, 32
12, 565424, Note_on_c, 4, 64, 0
12, 565424, Note_on_c, 4, 57, 0
12, 565440, Note_on_c, 4, 57, 32
12, 565440, Note_on_c, 4, 64, 32
12, 566384, Note_on_c, 4, 57, 0
12, 566384, Note_on_c, 4, 64, 0
12, 566400, Note_on_c, 4, 64, 32
12, 566400, Note_on_c, 4, 57, 32
12, 566879, Note_on_c, 4, 64, 0
12, 566879, Note_on_c, 4, 57, 0
12, 579120, Note_on_c, 4, 69, 92
12, 580539, Note_on_c, 4, 69, 0
12, 580560, Note_on_c, 4, 69, 80
12, 581279, Note_on_c, 4, 69, 0
12, 582000, Note_on_c, 4, 64, 80
12, 582699, Note_on_c, 4, 64, 0
12, 582720, Note_on_c, 4, 66, 80
12, 583419, Note_on_c, 4, 66, 0
12, 583440, Note_on_c, 4, 66, 80
12, 584139, Note_on_c, 4, 66, 0
12, 584160, Note_on_c, 4, 64, 80
12, 584859, Note_on_c, 4, 64, 0
12, 584880, Note_on_c, 4, 61, 80
12, 585579, Note_on_c, 4, 61, 0
12, 585600, Note_on_c, 4, 62, 80
12, 586299, Note_on_c, 4, 62, 0
12, 586320, Note_on_c, 4, 62, 80
12, 587019, Note_on_c, 4, 62, 0
12, 587040, Note_on_c, 4, 61, 80
12, 587739, Note_on_c, 4, 61, 0
12, 587760, Note_on_c, 4, 57, 80
12, 588459, Note_on_c, 4, 57, 0
12, 588480, Note_on_c, 4, 67, 80
12, 589179, Note_on_c, 4, 67, 0
12, 589200, Note_on_c, 4, 67, 80
12, 589899, Note_on_c, 4, 67, 0
12, 589920, Note_on_c, 4, 66, 80
12, 590639, Note_on_c, 4, 66, 0
12, 591360, Note_on_c, 4, 66, 80
12, 591819, Note_on_c, 4, 66, 0
12, 591840, Note_on_c, 4, 66, 80
12, 592059, Note_on_c, 4, 66, 0
12, 592080, Note_on_c, 4, 67, 80
12, 592539, Note_on_c, 4, 67, 0
12, 592560, Note_on_c, 4, 69, 80
12, 592779, Note_on_c, 4, 69, 0
12, 592800, Note_on_c, 4, 69, 80
12, 593259, Note_on_c, 4, 69, 0
12, 593280, Note_on_c, 4, 67, 80
12, 593499, Note_on_c, 4, 67, 0
12, 593520, Note_on_c, 4, 66, 80
12, 593979, Note_on_c, 4, 66, 0
12, 594000, Note_on_c, 4, 64, 80
12, 594219, Note_on_c, 4, 64, 0
12, 594240, Note_on_c, 4, 62, 80
12, 594699, Note_on_c, 4, 62, 0
12, 594720, Note_on_c, 4, 62, 80
12, 594939, Note_on_c, 4, 62, 0
12, 594960, Note_on_c, 4, 64, 80
12, 595419, Note_on_c, 4, 64, 0
12, 595440, Note_on_c, 4, 66, 80
12, 595659, Note_on_c, 4, 66, 0
12, 595680, Note_on_c, 4, 66, 80
12, 596139, Note_on_c, 4, 66, 0
12, 596160, Note_on_c, 4, 64, 80
12, 596379, Note_on_c, 4, 64, 0
12, 596400, Note_on_c, 4, 62, 80
12, 596859, Note_on_c, 4, 62, 0
12, 596880, Note_on_c, 4, 60, 80
12, 597099, Note_on_c, 4, 60, 0
12, 597120, Note_on_c, 4, 59, 80
12, 597579, Note_on_c, 4, 59, 0
12, 597600, Note_on_c, 4, 62, 80
12, 597600, Note_on_c, 4, 50, 80
12, 597819, Note_on_c, 4, 62, 0
12, 597819, Note_on_c, 4, 50, 0
12, 597840, Note_on_c, 4, 62, 80
12, 597840, Note_on_c, 4, 50, 80
12, 598299, Note_on_c, 4, 62, 0
12, 598299, Note_on_c, 4, 50, 0
12, 598320, Note_on_c, 4, 50, 80
12, 598320, Note_on_c, 4, 62, 80
12, 598539, Note_on_c, 4, 50, 0
12, 598539, Note_on_c, 4, 62, 0
12, 598560, Note_on_c, 4, 62, 80
12, 598560, Note_on_c, 4, 50, 80
12, 599259, Note_on_c, 4, 62, 0
12, 599259, Note_on_c, 4, 50, 0
12, 599280, Note_on_c, 4, 62, 80
12, 599280, Note_on_c, 4, 50, 80
12, 599979, Note_on_c, 4, 62, 0
12, 599979, Note_on_c, 4, 50, 0
12, 600000, Note_on_c, 4, 50, 80
12, 600000, Note_on_c, 4, 62, 80
12, 600699, Note_on_c, 4, 50, 0
12, 600699, Note_on_c, 4, 62, 0
12, 600720, Note_on_c, 4, 50, 80
12, 600720, Note_on_c, 4, 62, 80
12, 601419, Note_on_c, 4, 50, 0
12, 601419, Note_on_c, 4, 62, 0
12, 601440, Note_on_c, 4, 57, 80
12, 601440, Note_on_c, 4, 45, 80
12, 601899, Note_on_c, 4, 57, 0
12, 601899, Note_on_c, 4, 45, 0
12, 601920, Note_on_c, 4, 57, 80
12, 601920, Note_on_c, 4, 45, 80
12, 602859, Note_on_c, 4, 57, 0
12, 602859, Note_on_c, 4, 45, 0
12, 602880, Note_on_c, 4, 45, 80
12, 602880, Note_on_c, 4, 57, 80
12, 603579, Note_on_c, 4, 45, 0
12, 603579, Note_on_c, 4, 57, 0
12, 603600, Note_on_c, 4, 57, 80
12, 603600, Note_on_c, 4, 45, 80
12, 604059, Note_on_c, 4, 57, 0
12, 604059, Note_on_c, 4, 45, 0
12, 604080, Note_on_c, 4, 45, 80
12, 604080, Note_on_c, 4, 57, 80
12, 604299, Note_on_c, 4, 45, 0
12, 604299, Note_on_c, 4, 57, 0
12, 604320, Note_on_c, 4, 64, 80
12, 604779, Note_on_c, 4, 64, 0
12, 604800, Note_on_c, 4, 64, 80
12, 605039, Note_on_c, 4, 64, 0
12, 606240, Note_on_c, 4, 50, 80
12, 606240, Note_on_c, 4, 62, 80
12, 606459, Note_on_c, 4, 50, 0
12, 606459, Note_on_c, 4, 62, 0
12, 606480, Note_on_c, 4, 50, 80
12, 606480, Note_on_c, 4, 62, 80
12, 606719, Note_on_c, 4, 50, 0
12, 606719, Note_on_c, 4, 62, 0
12, 606960, Note_on_c, 4, 57, 80
12, 606960, Note_on_c, 4, 45, 80
12, 607179, Note_on_c, 4, 57, 0
12, 607179, Note_on_c, 4, 45, 0
12, 607200, Note_on_c, 4, 69, 80
12, 607659, Note_on_c, 4, 69, 0
12, 607680, Note_on_c, 4, 69, 80
12, 607919, Note_on_c, 4, 69, 0
12, 610800, Note_on_c, 4, 57, 80
12, 611499, Note_on_c, 4, 57, 0
12, 611520, Note_on_c, 4, 64, 80
12, 611520, Note_on_c, 4, 57, 80
12, 612219, Note_on_c, 4, 64, 0
12, 612219, Note_on_c, 4, 57, 0
12, 612240, Note_on_c, 4, 64, 80
12, 612240, Note_on_c, 4, 57, 80
12, 612939, Note_on_c, 4, 64, 0
12, 612939, Note_on_c, 4, 57, 0
12, 612960, Note_on_c, 4, 66, 80
12, 612960, Note_on_c, 4, 54, 80
12, 613659, Note_on_c, 4, 66, 0
12, 613659, Note_on_c, 4, 54, 0
12, 613680, Note_on_c, 4, 54, 80
12, 614379, Note_on_c, 4, 54, 0
12, 614400, Note_on_c, 4, 64, 80
12, 615099, Note_on_c, 4, 64, 0
12, 615120, Note_on_c, 4, 64, 80
12, 615819, Note_on_c, 4, 64, 0
12, 615840, Note_on_c, 4, 54, 80
12, 615840, Note_on_c, 4, 66, 80
12, 616559, Note_on_c, 4, 54, 0
12, 616559, Note_on_c, 4, 66, 0
12, 620160, Note_on_c, 4, 64, 80
12, 620859, Note_on_c, 4, 64, 0
12, 620880, Note_on_c, 4, 57, 80
12, 620880, Note_on_c, 4, 64, 80
12, 621579, Note_on_c, 4, 57, 0
12, 621579, Note_on_c, 4, 64, 0
12, 621600, Note_on_c, 4, 62, 80
12, 622319, Note_on_c, 4, 62, 0
12, 624480, Note_on_c, 4, 57, 80
12, 624480, Note_on_c, 4, 45, 80
12, 624939, Note_on_c, 4, 57, 0
12, 624939, Note_on_c, 4, 45, 0
12, 624960, Note_on_c, 4, 45, 80
12, 624960, Note_on_c, 4, 57, 80
12, 625199, Note_on_c, 4, 45, 0
12, 625199, Note_on_c, 4, 57, 0
12, 627360, Note_on_c, 4, 50, 80
12, 627360, Note_on_c, 4, 62, 80
12, 627819, Note_on_c, 4, 50, 0
12, 627819, Note_on_c, 4, 62, 0
12, 627840, Note_on_c, 4, 57, 80
12, 627840, Note_on_c, 4, 45, 80
12, 628079, Note_on_c, 4, 57, 0
12, 628079, Note_on_c, 4, 45, 0
12, 630240, Note_on_c, 4, 66, 80
12, 630939, Note_on_c, 4, 66, 0
12, 630960, Note_on_c, 4, 62, 80
12, 631679, Note_on_c, 4, 62, 0
12, 632400, Note_on_c, 4, 64, 80
12, 633099, Note_on_c, 4, 64, 0
12, 633120, Note_on_c, 4, 57, 80
12, 633120, Note_on_c, 4, 64, 80
12, 633819, Note_on_c, 4, 57, 0
12, 633819, Note_on_c, 4, 64, 0
12, 633840, Note_on_c, 4, 62, 80
12, 634299, Note_on_c, 4, 62, 0
12, 634320, Note_on_c, 4, 64, 80
12, 634539, Note_on_c, 4, 64, 0
12, 634560, Note_on_c, 4, 66, 80
12, 635259, Note_on_c, 4, 66, 0
12, 635280, Note_on_c, 4, 66, 80
12, 635979, Note_on_c, 4, 66, 0
12, 636000, Note_on_c, 4, 64, 80
12, 637179, Note_on_c, 4, 64, 0
12, 637200, Note_on_c, 4, 62, 80
12, 637419, Note_on_c, 4, 62, 0
12, 637440, Note_on_c, 4, 50, 80
12, 637440, Note_on_c, 4, 62, 80
12, 638139, Note_on_c, 4, 50, 0
12, 638139, Note_on_c, 4, 62, 0
12, 638160, Note_on_c, 4, 50, 80
12, 638160, Note_on_c, 4, 62, 80
12, 638879, Note_on_c, 4, 50, 0
12, 638879, Note_on_c, 4, 62, 0
12, 639600, Note_on_c, 4, 54, 80
12, 639600, Note_on_c, 4, 66, 80
12, 641019, Note_on_c, 4, 54, 0
12, 641019, Note_on_c, 4, 66, 0
12, 641040, Note_on_c, 4, 66, 80
12, 641040, Note_on_c, 4, 62, 80
12, 641759, Note_on_c, 4, 66, 0
12, 641759, Note_on_c, 4, 62, 0
12, 645360, Note_on_c, 4, 62, 80
12, 646779, Note_on_c, 4, 62, 0
12, 646800, Note_on_c, 4, 62, 80
12, 647499, Note_on_c, 4, 62, 0
12, 647520, Note_on_c, 4, 66, 80
12, 647520, Note_on_c, 4, 54, 80
12, 648219, Note_on_c, 4, 66, 0
12, 648219, Note_on_c, 4, 54, 0
12, 648240, Note_on_c, 4, 54, 80
12, 648240, Note_on_c, 4, 66, 80
12, 648939, Note_on_c, 4, 54, 0
12, 648939, Note_on_c, 4, 66, 0
12, 648960, Note_on_c, 4, 66, 80
12, 648960, Note_on_c, 4, 54, 80
12, 650139, Note_on_c, 4, 66, 0
12, 650139, Note_on_c, 4, 54, 0
12, 650160, Note_on_c, 4, 54, 80
12, 650160, Note_on_c, 4, 66, 80
12, 650379, Note_on_c, 4, 54, 0
12, 650379, Note_on_c, 4, 66, 0
12, 650400, Note_on_c, 4, 66, 80
12, 650400, Note_on_c, 4, 54, 80
12, 651579, Note_on_c, 4, 66, 0
12, 651579, Note_on_c, 4, 54, 0
12, 651600, Note_on_c, 4, 66, 80
12, 651600, Note_on_c, 4, 54, 80
12, 651819, Note_on_c, 4, 66, 0
12, 651819, Note_on_c, 4, 54, 0
12, 651840, Note_on_c, 4, 66, 80
12, 651840, Note_on_c, 4, 54, 80
12, 652079, Note_on_c, 4, 66, 0
12, 652079, Note_on_c, 4, 54, 0
12, 654000, Note_on_c, 4, 64, 80
12, 654239, Note_on_c, 4, 64, 0
12, 654720, Note_on_c, 4, 64, 80
12, 655179, Note_on_c, 4, 64, 0
12, 655200, Note_on_c, 4, 64, 80
12, 655419, Note_on_c, 4, 64, 0
12, 655440, Note_on_c, 4, 64, 80
12, 655899, Note_on_c, 4, 64, 0
12, 655920, Note_on_c, 4, 64, 80
12, 656139, Note_on_c, 4, 64, 0
12, 656160, Note_on_c, 4, 57, 80
12, 656160, Note_on_c, 4, 64, 80
12, 656879, Note_on_c, 4, 57, 0
12, 656879, Note_on_c, 4, 64, 0
12, 659760, Note_on_c, 4, 57, 80
12, 660459, Note_on_c, 4, 57, 0
12, 660480, Note_on_c, 4, 69, 80
12, 661179, Note_on_c, 4, 69, 0
12, 661200, Note_on_c, 4, 62, 92
12, 661200, Note_on_c, 4, 69, 92
12, 662619, Note_on_c, 4, 62, 0
12, 662640, Note_on_c, 4, 62, 92
12, 663339, Note_on_c, 4, 62, 0
12, 663360, Note_on_c, 4, 57, 92
12, 664059, Note_on_c, 4, 57, 0
12, 664080, Note_on_c, 4, 57, 92
12, 664779, Note_on_c, 4, 69, 0
12, 664779, Note_on_c, 4, 57, 0
12, 664800, Note_on_c, 4, 50, 92
12, 664800, Note_on_c, 4, 62, 92
12, 665499, Note_on_c, 4, 50, 0
12, 665499, Note_on_c, 4, 62, 0
12, 665520, Note_on_c, 4, 62, 92
12, 665520, Note_on_c, 4, 50, 92
12, 666219, Note_on_c, 4, 62, 0
12, 666219, Note_on_c, 4, 50, 0
12, 666240, Note_on_c, 4, 50, 92
12, 666240, Note_on_c, 4, 62, 92
12, 666939, Note_on_c, 4, 50, 0
12, 666939, Note_on_c, 4, 62, 0
12, 666960, Note_on_c, 4, 50, 92
12, 666960, Note_on_c, 4, 62, 92
12, 667659, Note_on_c, 4, 50, 0
12, 667659, Note_on_c, 4, 62, 0
12, 667680, Note_on_c, 4, 62, 92
12, 667680, Note_on_c, 4, 50, 92
12, 668379, Note_on_c, 4, 62, 0
12, 668379, Note_on_c, 4, 50, 0
12, 668400, Note_on_c, 4, 50, 92
12, 668400, Note_on_c, 4, 62, 92
12, 669099, Note_on_c, 4, 50, 0
12, 669099, Note_on_c, 4, 62, 0
12, 669120, Note_on_c, 4, 50, 92
12, 669120, Note_on_c, 4, 62, 92
12, 669819, Note_on_c, 4, 50, 0
12, 669819, Note_on_c, 4, 62, 0
12, 669840, Note_on_c, 4, 62, 92
12, 669840, Note_on_c, 4, 50, 92
12, 670539, Note_on_c, 4, 62, 0
12, 670539, Note_on_c, 4, 50, 0
12, 670560, Note_on_c, 4, 64, 92
12, 671259, Note_on_c, 4, 64, 0
12, 671280, Note_on_c, 4, 64, 92
12, 671979, Note_on_c, 4, 64, 0
12, 672000, Note_on_c, 4, 64, 92
12, 674139, Note_on_c, 4, 64, 0
12, 674160, Note_on_c, 4, 64, 92
12, 674859, Note_on_c, 4, 64, 0
12, 674880, Note_on_c, 4, 62, 92
12, 676319, Note_on_c, 4, 62, 0
12, 697920, Note_on_c, 4, 69, 80
12, 697920, Note_on_c, 4, 57, 80
12, 698619, Note_on_c, 4, 69, 0
12, 698619, Note_on_c, 4, 57, 0
12, 698640, Note_on_c, 4, 64, 92
12, 698640, Note_on_c, 4, 57, 92
12, 698720, Control_c, 4, 11, 107
12, 700059, Note_on_c, 4, 64, 0
12, 700059, Note_on_c, 4, 57, 0
12, 700080, Note_on_c, 4, 57, 92
12, 700080, Note_on_c, 4, 64, 92
12, 700799, Note_on_c, 4, 57, 0
12, 700799, Note_on_c, 4, 64, 0
12, 702000, Control_c, 4, 11, 127
12, 702240, Note_on_c, 4, 57, 80
12, 702240, Note_on_c, 4, 64, 80
12, 702939, Note_on_c, 4, 57, 0
12, 702939, Note_on_c, 4, 64, 0
12, 702960, Note_on_c, 4, 57, 80
12, 702960, Note_on_c, 4, 64, 80
12, 703679, Note_on_c, 4, 57, 0
12, 703679, Note_on_c, 4, 64, 0
12, 705840, Control_c, 4, 11, 69
12, 706560, Note_on_c, 4, 64, 80
12, 706560, Control_c, 4, 11, 69
12, 706633, Control_c, 4, 11, 71
12, 706707, Control_c, 4, 11, 72
12, 706780, Control_c, 4, 11, 74
12, 706853, Control_c, 4, 11, 75
12, 706927, Control_c, 4, 11, 77
12, 707000, Control_c, 4, 11, 79
12, 707073, Control_c, 4, 11, 80
12, 707147, Control_c, 4, 11, 82
12, 707220, Control_c, 4, 11, 84
12, 707293, Control_c, 4, 11, 85
12, 707367, Control_c, 4, 11, 87
12, 707440, Control_c, 4, 11, 88
12, 707513, Control_c, 4, 11, 90
12, 707587, Control_c, 4, 11, 92
12, 707660, Control_c, 4, 11, 93
12, 707733, Control_c, 4, 11, 95
12, 707807, Control_c, 4, 11, 96
12, 707880, Control_c, 4, 11, 98
12, 707953, Control_c, 4, 11, 100
12, 708027, Control_c, 4, 11, 101
12, 708100, Control_c, 4, 11, 103
12, 708173, Control_c, 4, 11, 104
12, 708247, Control_c, 4, 11, 106
12, 708320, Control_c, 4, 11, 108
12, 708393, Control_c, 4, 11, 109
12, 708467, Control_c, 4, 11, 111
12, 708540, Control_c, 4, 11, 113
12, 708613, Control_c, 4, 11, 114
12, 708687, Control_c, 4, 11, 116
12, 708760, Control_c, 4, 11, 117
12, 708833, Control_c, 4, 11, 119
12, 708907, Control_c, 4, 11, 121
12, 708980, Control_c, 4, 11, 122
12, 709053, Control_c, 4, 11, 124
12, 709127, Control_c, 4, 11, 125
12, 709240, Control_c, 4, 11, 122
12, 709280, Control_c, 4, 11, 117
12, 709320, Control_c, 4, 11, 112
12, 709360, Control_c, 4, 11, 107
12, 709400, Control_c, 4, 11, 102
12, 709419, Note_on_c, 4, 64, 0
12, 709440, Control_c, 4, 11, 99
12, 709440, Note_on_c, 4, 64, 80
12, 709440, Note_on_c, 4, 57, 80
12, 709480, Control_c, 4, 11, 94
12, 709520, Control_c, 4, 11, 89
12, 709560, Control_c, 4, 11, 84
12, 709600, Control_c, 4, 11, 79
12, 709640, Control_c, 4, 11, 74
12, 709680, Control_c, 4, 11, 69
12, 710139, Note_on_c, 4, 64, 0
12, 710139, Note_on_c, 4, 57, 0
12, 710160, Note_on_c, 4, 57, 80
12, 710160, Note_on_c, 4, 64, 80
12, 711579, Note_on_c, 4, 57, 0
12, 711579, Note_on_c, 4, 64, 0
12, 711600, Note_on_c, 4, 64, 80
12, 711600, Note_on_c, 4, 57, 80
12, 712299, Note_on_c, 4, 64, 0
12, 712299, Note_on_c, 4, 57, 0
12, 712320, Note_on_c, 4, 57, 80
12, 712320, Note_on_c, 4, 64, 80
12, 713019, Note_on_c, 4, 57, 0
12, 713019, Note_on_c, 4, 64, 0
12, 713040, Note_on_c, 4, 57, 80
12, 713040, Note_on_c, 4, 64, 80
12, 713739, Note_on_c, 4, 57, 0
12, 713739, Note_on_c, 4, 64, 0
12, 713760, Note_on_c, 4, 57, 80
12, 713760, Note_on_c, 4, 64, 80
12, 714459, Note_on_c, 4, 57, 0
12, 714459, Note_on_c, 4, 64, 0
12, 714480, Note_on_c, 4, 64, 80
12, 714480, Note_on_c, 4, 57, 80
12, 715179, Note_on_c, 4, 64, 0
12, 715179, Note_on_c, 4, 57, 0
12, 715200, Note_on_c, 4, 64, 80
12, 715200, Note_on_c, 4, 57, 80
12, 715899, Note_on_c, 4, 64, 0
12, 715899, Note_on_c, 4, 57, 0
12, 715920, Note_on_c, 4, 64, 80
12, 715920, Note_on_c, 4, 57, 80
12, 716619, Note_on_c, 4, 64, 0
12, 716619, Note_on_c, 4, 57, 0
12, 716638, Control_c, 4, 11, 89
12, 716640, Control_c, 4, 11, 89
12, 716640, Note_on_c, 4, 64, 68
12, 716640, Note_on_c, 4, 57, 68
12, 716700, Control_c, 4, 11, 92
12, 716760, Control_c, 4, 11, 95
12, 716820, Control_c, 4, 11, 99
12, 716880, Control_c, 4, 11, 102
12, 716940, Control_c, 4, 11, 105
12, 717000, Control_c, 4, 11, 109
12, 717060, Control_c, 4, 11, 112
12, 717120, Control_c, 4, 11, 115
12, 717180, Control_c, 4, 11, 119
12, 717240, Control_c, 4, 11, 122
12, 717300, Control_c, 4, 11, 125
12, 717339, Note_on_c, 4, 64, 0
12, 717339, Note_on_c, 4, 57, 0
12, 717360, Control_c, 4, 11, 127
12, 717360, Note_on_c, 4, 50, 68
12, 717360, Note_on_c, 4, 62, 68
12, 717420, Control_c, 4, 11, 125
12, 717480, Control_c, 4, 11, 122
12, 717540, Control_c, 4, 11, 119
12, 717600, Control_c, 4, 11, 115
12, 717660, Control_c, 4, 11, 112
12, 717720, Control_c, 4, 11, 109
12, 717780, Control_c, 4, 11, 105
12, 717840, Control_c, 4, 11, 102
12, 717900, Control_c, 4, 11, 99
12, 717960, Control_c, 4, 11, 95
12, 718020, Control_c, 4, 11, 92
12, 718059, Note_on_c, 4, 50, 0
12, 718059, Note_on_c, 4, 62, 0
12, 718080, Control_c, 4, 11, 89
12, 718080, Note_on_c, 4, 50, 68
12, 718080, Note_on_c, 4, 62, 68
12, 718779, Note_on_c, 4, 50, 0
12, 718779, Note_on_c, 4, 62, 0
12, 718800, Note_on_c, 4, 67, 68
12, 719499, Note_on_c, 4, 67, 0
12, 719520, Note_on_c, 4, 67, 62
12, 720219, Note_on_c, 4, 67, 0
12, 720240, Note_on_c, 4, 67, 62
12, 720939, Note_on_c, 4, 67, 0
12, 720960, Note_on_c, 4, 67, 62
12, 721680, Control_c, 4, 11, 79
12, 723839, Note_on_c, 4, 67, 0
12, 727200, Control_c, 4, 11, 127
12, 727680, Note_on_c, 4, 50, 32
12, 733679, Note_on_c, 4, 50, 0
12, 737280, Note_on_c, 4, 57, 32
12, 742080, Note_on_c, 4, 69, 32
12, 743279, Note_on_c, 4, 57, 0
12, 743279, Note_on_c, 4, 69, 0
12, 746400, Control_c, 4, 11, 49
12, 746880, Note_on_c, 4, 57, 80
12, 746880, Control_c, 4, 11, 49
12, 746880, Note_on_c, 4, 69, 80
12, 747440, Control_c, 4, 11, 52
12, 748000, Control_c, 4, 11, 55
12, 748560, Control_c, 4, 11, 59
12, 749120, Control_c, 4, 11, 62
12, 749680, Control_c, 4, 11, 65
12, 750240, Control_c, 4, 11, 69
12, 750800, Control_c, 4, 11, 71
12, 751360, Control_c, 4, 11, 75
12, 751920, Control_c, 4, 11, 79
12, 752480, Control_c, 4, 11, 81
12, 752639, Note_on_c, 4, 57, 0
12, 752639, Note_on_c, 4, 69, 0
12, 752640, Note_on_c, 4, 57, 80
12, 752640, Note_on_c, 4, 69, 80
12, 753040, Control_c, 4, 11, 85
12, 753600, Control_c, 4, 11, 89
12, 754160, Control_c, 4, 11, 91
12, 754720, Control_c, 4, 11, 95
12, 755280, Control_c, 4, 11, 97
12, 755840, Control_c, 4, 11, 101
12, 756400, Control_c, 4, 11, 105
12, 756960, Control_c, 4, 11, 107
12, 757419, Note_on_c, 4, 57, 0
12, 757419, Note_on_c, 4, 69, 0
12, 757440, Note_on_c, 4, 57, 80
12, 757440, Note_on_c, 4, 69, 80
12, 757520, Control_c, 4, 11, 111
12, 757899, Note_on_c, 4, 57, 0
12, 757899, Note_on_c, 4, 69, 0
12, 757920, Note_on_c, 4, 69, 80
12, 757920, Note_on_c, 4, 57, 80
12, 758080, Control_c, 4, 11, 115
12, 758379, Note_on_c, 4, 69, 0
12, 758379, Note_on_c, 4, 57, 0
12, 758400, Note_on_c, 4, 57, 80
12, 758400, Note_on_c, 4, 69, 80
12, 758640, Control_c, 4, 11, 117
12, 758859, Note_on_c, 4, 57, 0
12, 758859, Note_on_c, 4, 69, 0
12, 758880, Note_on_c, 4, 57, 80
12, 758880, Note_on_c, 4, 69, 80
12, 759200, Control_c, 4, 11, 121
12, 759339, Note_on_c, 4, 57, 0
12, 759339, Note_on_c, 4, 69, 0
12, 759360, Note_on_c, 4, 57, 80
12, 759360, Note_on_c, 4, 69, 80
12, 759760, Control_c, 4, 11, 124
12, 759819, Note_on_c, 4, 57, 0
12, 759819, Note_on_c, 4, 69, 0
12, 759840, Note_on_c, 4, 69, 80
12, 759840, Note_on_c, 4, 57, 80
12, 760299, Note_on_c, 4, 69, 0
12, 760299, Note_on_c, 4, 57, 0
12, 760320, Control_c, 4, 11, 127
12, 760320, Note_on_c, 4, 57, 80
12, 760320, Note_on_c, 4, 69, 80
12, 760539, Note_on_c, 4, 57, 0
12, 760539, Note_on_c, 4, 69, 0
12, 760560, Note_on_c, 4, 45, 80
12, 760560, Note_on_c, 4, 57, 80
12, 760779, Note_on_c, 4, 45, 0
12, 760779, Note_on_c, 4, 57, 0
12, 760800, Note_on_c, 4, 57, 92
12, 760800, Note_on_c, 4, 45, 92
12, 761019, Note_on_c, 4, 57, 0
12, 761019, Note_on_c, 4, 45, 0
12, 761040, Note_on_c, 4, 57, 80
12, 761040, Note_on_c, 4, 45, 80
12, 761259, Note_on_c, 4, 57, 0
12, 761259, Note_on_c, 4, 45, 0
12, 761280, Note_on_c, 4, 57, 80
12, 761280, Note_on_c, 4, 45, 80
12, 761499, Note_on_c, 4, 57, 0
12, 761499, Note_on_c, 4, 45, 0
12, 761520, Note_on_c, 4, 45, 80
12, 761520, Note_on_c, 4, 57, 80
12, 761739, Note_on_c, 4, 45, 0
12, 761739, Note_on_c, 4, 57, 0
12, 761760, Note_on_c, 4, 45, 80
12, 761760, Note_on_c, 4, 57, 80
12, 761979, Note_on_c, 4, 45, 0
12, 761979, Note_on_c, 4, 57, 0
12, 762000, Note_on_c, 4, 45, 80
12, 762000, Note_on_c, 4, 57, 80
12, 762219, Note_on_c, 4, 45, 0
12, 762219, Note_on_c, 4, 57, 0
12, 762240, Note_on_c, 4, 57, 80
12, 762240, Note_on_c, 4, 45, 80
12, 762459, Note_on_c, 4, 57, 0
12, 762459, Note_on_c, 4, 45, 0
12, 762480, Note_on_c, 4, 57, 80
12, 762480, Note_on_c, 4, 45, 80
12, 762699, Note_on_c, 4, 57, 0
12, 762699, Note_on_c, 4, 45, 0
12, 762720, Note_on_c, 4, 45, 80
12, 762720, Note_on_c, 4, 57, 80
12, 762939, Note_on_c, 4, 45, 0
12, 762939, Note_on_c, 4, 57, 0
12, 762960, Note_on_c, 4, 45, 92
12, 762960, Note_on_c, 4, 57, 92
12, 763179, Note_on_c, 4, 45, 0
12, 763179, Note_on_c, 4, 57, 0
12, 763200, Note_on_c, 4, 57, 80
12, 763200, Note_on_c, 4, 45, 80
12, 763419, Note_on_c, 4, 57, 0
12, 763419, Note_on_c, 4, 45, 0
12, 763440, Note_on_c, 4, 45, 80
12, 763440, Note_on_c, 4, 57, 80
12, 763659, Note_on_c, 4, 45, 0
12, 763659, Note_on_c, 4, 57, 0
12, 763680, Note_on_c, 4, 57, 80
12, 763680, Note_on_c, 4, 45, 80
12, 763899, Note_on_c, 4, 57, 0
12, 763899, Note_on_c, 4, 45, 0
12, 763920, Note_on_c, 4, 57, 80
12, 763920, Note_on_c, 4, 45, 80
12, 764139, Note_on_c, 4, 57, 0
12, 764139, Note_on_c, 4, 45, 0
12, 764160, Note_on_c, 4, 45, 80
12, 764160, Note_on_c, 4, 57, 80
12, 764379, Note_on_c, 4, 45, 0
12, 764379, Note_on_c, 4, 57, 0
12, 764400, Note_on_c, 4, 45, 80
12, 764400, Note_on_c, 4, 57, 80
12, 764619, Note_on_c, 4, 45, 0
12, 764619, Note_on_c, 4, 57, 0
12, 764638, Control_c, 4, 11, 69
12, 764640, Note_on_c, 4, 64, 80
12, 764640, Note_on_c, 4, 57, 80
12, 764640, Control_c, 4, 11, 69
12, 764680, Control_c, 4, 11, 74
12, 764720, Control_c, 4, 11, 79
12, 764760, Control_c, 4, 11, 84
12, 764800, Control_c, 4, 11, 89
12, 764840, Control_c, 4, 11, 94
12, 764880, Control_c, 4, 11, 99
12, 764920, Control_c, 4, 11, 102
12, 764960, Control_c, 4, 11, 107
12, 765000, Control_c, 4, 11, 112
12, 765040, Control_c, 4, 11, 117
12, 765080, Control_c, 4, 11, 122
12, 765120, Control_c, 4, 11, 127
12, 765339, Note_on_c, 4, 64, 0
12, 765339, Note_on_c, 4, 57, 0
12, 765360, Note_on_c, 4, 62, 92
12, 765360, Note_on_c, 4, 66, 92
12, 765939, Note_on_c, 4, 62, 0
12, 765939, Note_on_c, 4, 66, 0
12, 765960, Note_on_c, 4, 62, 92
12, 765960, Note_on_c, 4, 66, 92
12, 766059, Note_on_c, 4, 62, 0
12, 766059, Note_on_c, 4, 66, 0
12, 766080, Note_on_c, 4, 62, 80
12, 766080, Note_on_c, 4, 66, 80
12, 766299, Note_on_c, 4, 62, 0
12, 766299, Note_on_c, 4, 66, 0
12, 766320, Note_on_c, 4, 50, 80
12, 766320, Note_on_c, 4, 62, 80
12, 766539, Note_on_c, 4, 50, 0
12, 766539, Note_on_c, 4, 62, 0
12, 766560, Note_on_c, 4, 62, 80
12, 766560, Note_on_c, 4, 50, 80
12, 766899, Note_on_c, 4, 62, 0
12, 766899, Note_on_c, 4, 50, 0
12, 766920, Note_on_c, 4, 62, 80
12, 766920, Note_on_c, 4, 50, 80
12, 767019, Note_on_c, 4, 62, 0
12, 767019, Note_on_c, 4, 50, 0
12, 767040, Note_on_c, 4, 50, 80
12, 767040, Note_on_c, 4, 62, 80
12, 767259, Note_on_c, 4, 50, 0
12, 767259, Note_on_c, 4, 62, 0
12, 767280, Note_on_c, 4, 50, 80
12, 767280, Note_on_c, 4, 62, 80
12, 767499, Note_on_c, 4, 50, 0
12, 767499, Note_on_c, 4, 62, 0
12, 767520, Note_on_c, 4, 67, 80
12, 767859, Note_on_c, 4, 67, 0
12, 767880, Note_on_c, 4, 67, 80
12, 767979, Note_on_c, 4, 67, 0
12, 768000, Note_on_c, 4, 67, 80
12, 768219, Note_on_c, 4, 67, 0
12, 768240, Note_on_c, 4, 64, 80
12, 768240, Note_on_c, 4, 67, 80
12, 768459, Note_on_c, 4, 64, 0
12, 768459, Note_on_c, 4, 67, 0
12, 768480, Note_on_c, 4, 64, 80
12, 768480, Note_on_c, 4, 67, 80
12, 768819, Note_on_c, 4, 64, 0
12, 768819, Note_on_c, 4, 67, 0
12, 768840, Note_on_c, 4, 64, 80
12, 768840, Note_on_c, 4, 67, 80
12, 768939, Note_on_c, 4, 64, 0
12, 768939, Note_on_c, 4, 67, 0
12, 768960, Control_c, 4, 11, 127
12, 768960, Note_on_c, 4, 67, 80
12, 768960, Note_on_c, 4, 64, 80
12, 769000, Control_c, 4, 11, 117
12, 769040, Control_c, 4, 11, 107
12, 769080, Control_c, 4, 11, 99
12, 769120, Control_c, 4, 11, 89
12, 769160, Control_c, 4, 11, 79
12, 769169, Note_on_c, 4, 67, 0
12, 769169, Note_on_c, 4, 64, 0
12, 769200, Control_c, 4, 11, 69
12, 769200, Note_on_c, 4, 64, 80
12, 769200, Note_on_c, 4, 67, 80
12, 769260, Control_c, 4, 11, 72
12, 769320, Control_c, 4, 11, 75
12, 769380, Control_c, 4, 11, 79
12, 769409, Note_on_c, 4, 64, 0
12, 769409, Note_on_c, 4, 67, 0
12, 769440, Note_on_c, 4, 67, 80
12, 769440, Note_on_c, 4, 64, 80
12, 769440, Control_c, 4, 11, 82
12, 769500, Control_c, 4, 11, 85
12, 769560, Control_c, 4, 11, 89
12, 769620, Control_c, 4, 11, 92
12, 769649, Note_on_c, 4, 67, 0
12, 769649, Note_on_c, 4, 64, 0
12, 769680, Control_c, 4, 11, 95
12, 769680, Note_on_c, 4, 67, 80
12, 769680, Note_on_c, 4, 64, 80
12, 769740, Control_c, 4, 11, 99
12, 769800, Control_c, 4, 11, 102
12, 769859, Note_on_c, 4, 67, 0
12, 769859, Note_on_c, 4, 64, 0
12, 769860, Control_c, 4, 11, 105
12, 769918, Control_c, 4, 11, 127
12, 769920, Note_on_c, 4, 64, 68
12, 769920, Note_on_c, 4, 67, 68
12, 770039, Note_on_c, 4, 64, 0
12, 770039, Note_on_c, 4, 67, 0
12, 770040, Note_on_c, 4, 62, 56
12, 770040, Note_on_c, 4, 66, 56
12, 770144, Note_on_c, 4, 62, 0
12, 770144, Note_on_c, 4, 66, 0
12, 770160, Note_on_c, 4, 62, 44
12, 770160, Note_on_c, 4, 66, 44
12, 770384, Note_on_c, 4, 62, 0
12, 770384, Note_on_c, 4, 66, 0
12, 770400, Note_on_c, 4, 66, 44
12, 770400, Note_on_c, 4, 50, 44
12, 770624, Note_on_c, 4, 66, 0
12, 770624, Note_on_c, 4, 50, 0
12, 770640, Note_on_c, 4, 50, 44
12, 770640, Note_on_c, 4, 66, 44
12, 770864, Note_on_c, 4, 50, 0
12, 770864, Note_on_c, 4, 66, 0
12, 770880, Note_on_c, 4, 64, 44
12, 771104, Note_on_c, 4, 64, 0
12, 771120, Note_on_c, 4, 64, 44
12, 771359, Note_on_c, 4, 64, 0
12, 771600, Note_on_c, 4, 64, 44
12, 771839, Note_on_c, 4, 64, 0
12, 772080, Note_on_c, 4, 62, 44
12, 772080, Note_on_c, 4, 66, 44
12, 772319, Note_on_c, 4, 62, 0
12, 772319, Note_on_c, 4, 66, 0
12, 772560, Note_on_c, 4, 64, 44
12, 772560, Note_on_c, 4, 57, 44
12, 772784, Note_on_c, 4, 64, 0
12, 772784, Note_on_c, 4, 57, 0
12, 772800, Note_on_c, 4, 45, 44
12, 772800, Note_on_c, 4, 57, 44
12, 776619, Note_on_c, 4, 45, 0
12, 776619, Note_on_c, 4, 57, 0
12, 776640, Note_on_c, 4, 57, 44
12, 776640, Note_on_c, 4, 45, 44
12, 776859, Note_on_c, 4, 57, 0
12, 776859, Note_on_c, 4, 45, 0
12, 776880, Note_on_c, 4, 57, 46
12, 776880, Note_on_c, 4, 69, 46
12, 777099, Note_on_c, 4, 57, 0
12, 777099, Note_on_c, 4, 69, 0
12, 777120, Note_on_c, 4, 45, 48
12, 777120, Note_on_c, 4, 57, 48
12, 777339, Note_on_c, 4, 45, 0
12, 777339, Note_on_c, 4, 57, 0
12, 777360, Note_on_c, 4, 57, 50
12, 777360, Note_on_c, 4, 69, 50
12, 777579, Note_on_c, 4, 57, 0
12, 777579, Note_on_c, 4, 69, 0
12, 777600, Note_on_c, 4, 45, 53
12, 777600, Note_on_c, 4, 57, 53
12, 777819, Note_on_c, 4, 45, 0
12, 777819, Note_on_c, 4, 57, 0
12, 777840, Note_on_c, 4, 69, 55
12, 777840, Note_on_c, 4, 57, 55
12, 778059, Note_on_c, 4, 69, 0
12, 778059, Note_on_c, 4, 57, 0
12, 778080, Note_on_c, 4, 57, 57
12, 778080, Note_on_c, 4, 45, 57
12, 778299, Note_on_c, 4, 57, 0
12, 778299, Note_on_c, 4, 45, 0
12, 778320, Note_on_c, 4, 69, 59
12, 778320, Note_on_c, 4, 57, 59
12, 778539, Note_on_c, 4, 69, 0
12, 778539, Note_on_c, 4, 57, 0
12, 778560, Note_on_c, 4, 57, 62
12, 778560, Note_on_c, 4, 45, 62
12, 779019, Note_on_c, 4, 57, 0
12, 779019, Note_on_c, 4, 45, 0
12, 779040, Note_on_c, 4, 57, 66
12, 779040, Note_on_c, 4, 45, 66
12, 779499, Note_on_c, 4, 57, 0
12, 779499, Note_on_c, 4, 45, 0
12, 779520, Note_on_c, 4, 45, 71
12, 779520, Note_on_c, 4, 57, 71
12, 779979, Note_on_c, 4, 45, 0
12, 779979, Note_on_c, 4, 57, 0
12, 780000, Note_on_c, 4, 45, 75
12, 780000, Note_on_c, 4, 57, 75
12, 780459, Note_on_c, 4, 45, 0
12, 780459, Note_on_c, 4, 57, 0
12, 780480, Note_on_c, 4, 57, 80
12, 780480, Note_on_c, 4, 45, 80
12, 780659, Note_on_c, 4, 57, 0
12, 780659, Note_on_c, 4, 45, 0
12, 780720, Note_on_c, 4, 57, 80
12, 780720, Note_on_c, 4, 45, 80
12, 780899, Note_on_c, 4, 57, 0
12, 780899, Note_on_c, 4, 45, 0
12, 780960, Note_on_c, 4, 45, 80
12, 780960, Note_on_c, 4, 57, 80
12, 781139, Note_on_c, 4, 45, 0
12, 781139, Note_on_c, 4, 57, 0
12, 781200, Note_on_c, 4, 45, 80
12, 781200, Note_on_c, 4, 57, 80
12, 781379, Note_on_c, 4, 45, 0
12, 781379, Note_on_c, 4, 57, 0
12, 781440, Note_on_c, 4, 45, 80
12, 781440, Note_on_c, 4, 57, 80
12, 781659, Note_on_c, 4, 45, 0
12, 781659, Note_on_c, 4, 57, 0
12, 781680, Note_on_c, 4, 45, 80
12, 781680, Note_on_c, 4, 57, 80
12, 781899, Note_on_c, 4, 45, 0
12, 781899, Note_on_c, 4, 57, 0
12, 781920, Note_on_c, 4, 45, 80
12, 781920, Note_on_c, 4, 57, 80
12, 782139, Note_on_c, 4, 45, 0
12, 782139, Note_on_c, 4, 57, 0
12, 782160, Note_on_c, 4, 57, 80
12, 782160, Note_on_c, 4, 45, 80
12, 782379, Note_on_c, 4, 57, 0
12, 782379, Note_on_c, 4, 45, 0
12, 782400, Note_on_c, 4, 57, 80
12, 782400, Note_on_c, 4, 45, 80
12, 782619, Note_on_c, 4, 57, 0
12, 782619, Note_on_c, 4, 45, 0
12, 782640, Note_on_c, 4, 45, 80
12, 782640, Note_on_c, 4, 57, 80
12, 782859, Note_on_c, 4, 45, 0
12, 782859, Note_on_c, 4, 57, 0
12, 782880, Note_on_c, 4, 57, 80
12, 782880, Note_on_c, 4, 45, 80
12, 783099, Note_on_c, 4, 57, 0
12, 783099, Note_on_c, 4, 45, 0
12, 783120, Note_on_c, 4, 57, 92
12, 783120, Note_on_c, 4, 45, 92
12, 783339, Note_on_c, 4, 57, 0
12, 783339, Note_on_c, 4, 45, 0
12, 783360, Note_on_c, 4, 57, 80
12, 783360, Note_on_c, 4, 45, 80
12, 783579, Note_on_c, 4, 57, 0
12, 783579, Note_on_c, 4, 45, 0
12, 783600, Note_on_c, 4, 45, 80
12, 783600, Note_on_c, 4, 57, 80
12, 783819, Note_on_c, 4, 45, 0
12, 783819, Note_on_c, 4, 57, 0
12, 783840, Note_on_c, 4, 45, 80
12, 783840, Note_on_c, 4, 57, 80
12, 784059, Note_on_c, 4, 45, 0
12, 784059, Note_on_c, 4, 57, 0
12, 784080, Note_on_c, 4, 57, 80
12, 784080, Note_on_c, 4, 45, 80
12, 784299, Note_on_c, 4, 57, 0
12, 784299, Note_on_c, 4, 45, 0
12, 784320, Note_on_c, 4, 57, 80
12, 784320, Note_on_c, 4, 45, 80
12, 784539, Note_on_c, 4, 57, 0
12, 784539, Note_on_c, 4, 45, 0
12, 784560, Note_on_c, 4, 57, 80
12, 784560, Note_on_c, 4, 45, 80
12, 784779, Note_on_c, 4, 57, 0
12, 784779, Note_on_c, 4, 45, 0
12, 784798, Control_c, 4, 11, 69
12, 784800, Note_on_c, 4, 57, 80
12, 784800, Note_on_c, 4, 64, 80
12, 784800, Control_c, 4, 11, 69
12, 784840, Control_c, 4, 11, 74
12, 784880, Control_c, 4, 11, 79
12, 784920, Control_c, 4, 11, 84
12, 784960, Control_c, 4, 11, 89
12, 785000, Control_c, 4, 11, 94
12, 785040, Control_c, 4, 11, 99
12, 785080, Control_c, 4, 11, 102
12, 785120, Control_c, 4, 11, 107
12, 785160, Control_c, 4, 11, 112
12, 785200, Control_c, 4, 11, 117
12, 785240, Control_c, 4, 11, 122
12, 785280, Control_c, 4, 11, 127
12, 785499, Note_on_c, 4, 57, 0
12, 785499, Note_on_c, 4, 64, 0
12, 785520, Note_on_c, 4, 66, 92
12, 785520, Note_on_c, 4, 62, 92
12, 786099, Note_on_c, 4, 66, 0
12, 786099, Note_on_c, 4, 62, 0
12, 786120, Note_on_c, 4, 62, 92
12, 786120, Note_on_c, 4, 66, 92
12, 786219, Note_on_c, 4, 62, 0
12, 786219, Note_on_c, 4, 66, 0
12, 786240, Note_on_c, 4, 62, 80
12, 786240, Note_on_c, 4, 66, 80
12, 786459, Note_on_c, 4, 62, 0
12, 786459, Note_on_c, 4, 66, 0
12, 786480, Note_on_c, 4, 50, 80
12, 786480, Note_on_c, 4, 62, 80
12, 786699, Note_on_c, 4, 50, 0
12, 786699, Note_on_c, 4, 62, 0
12, 786720, Note_on_c, 4, 50, 80
12, 786720, Note_on_c, 4, 62, 80
12, 787059, Note_on_c, 4, 50, 0
12, 787059, Note_on_c, 4, 62, 0
12, 787080, Note_on_c, 4, 50, 80
12, 787080, Note_on_c, 4, 62, 80
12, 787179, Note_on_c, 4, 50, 0
12, 787179, Note_on_c, 4, 62, 0
12, 787200, Note_on_c, 4, 50, 80
12, 787200, Note_on_c, 4, 62, 80
12, 787419, Note_on_c, 4, 50, 0
12, 787419, Note_on_c, 4, 62, 0
12, 787440, Note_on_c, 4, 62, 80
12, 787440, Note_on_c, 4, 50, 80
12, 787659, Note_on_c, 4, 62, 0
12, 787659, Note_on_c, 4, 50, 0
12, 787680, Note_on_c, 4, 67, 80
12, 788019, Note_on_c, 4, 67, 0
12, 788040, Note_on_c, 4, 67, 80
12, 788139, Note_on_c, 4, 67, 0
12, 788160, Note_on_c, 4, 67, 80
12, 788379, Note_on_c, 4, 67, 0
12, 788400, Note_on_c, 4, 67, 80
12, 788400, Note_on_c, 4, 64, 80
12, 788619, Note_on_c, 4, 67, 0
12, 788619, Note_on_c, 4, 64, 0
12, 788640, Note_on_c, 4, 67, 80
12, 788640, Note_on_c, 4, 64, 80
12, 788879, Note_on_c, 4, 67, 0
12, 788879, Note_on_c, 4, 64, 0
12, 789600, Note_on_c, 4, 64, 80
12, 789839, Note_on_c, 4, 64, 0
12, 806640, Note_on_c, 4, 69, 65
12, 806640, Note_on_c, 4, 57, 65
12, 806859, Note_on_c, 4, 69, 0
12, 806859, Note_on_c, 4, 57, 0
12, 806880, Note_on_c, 4, 57, 69
12, 806880, Note_on_c, 4, 69, 69
12, 807099, Note_on_c, 4, 57, 0
12, 807099, Note_on_c, 4, 69, 0
12, 807120, Note_on_c, 4, 69, 73
12, 807120, Note_on_c, 4, 57, 73
12, 807339, Note_on_c, 4, 69, 0
12, 807339, Note_on_c, 4, 57, 0
12, 807360, Note_on_c, 4, 69, 77
12, 807360, Note_on_c, 4, 57, 77
12, 807579, Note_on_c, 4, 69, 0
12, 807579, Note_on_c, 4, 57, 0
12, 807600, Note_on_c, 4, 69, 80
12, 807600, Note_on_c, 4, 57, 80
12, 807819, Note_on_c, 4, 69, 0
12, 807819, Note_on_c, 4, 57, 0
12, 807840, Note_on_c, 4, 69, 84
12, 807840, Note_on_c, 4, 57, 84
12, 808059, Note_on_c, 4, 69, 0
12, 808059, Note_on_c, 4, 57, 0
12, 808080, Note_on_c, 4, 57, 88
12, 808080, Note_on_c, 4, 69, 88
12, 808179, Note_on_c, 4, 57, 0
12, 808179, Note_on_c, 4, 69, 0
12, 808200, Note_on_c, 4, 57, 90
12, 808200, Note_on_c, 4, 69, 90
12, 808299, Note_on_c, 4, 57, 0
12, 808299, Note_on_c, 4, 69, 0
12, 808320, Note_on_c, 4, 62, 92
12, 808320, Note_on_c, 4, 50, 92
12, 808529, Note_on_c, 4, 62, 0
12, 808529, Note_on_c, 4, 50, 0
12, 808560, Note_on_c, 4, 62, 92
12, 808560, Note_on_c, 4, 50, 92
12, 808769, Note_on_c, 4, 62, 0
12, 808769, Note_on_c, 4, 50, 0
12, 808800, Note_on_c, 4, 57, 92
12, 808800, Note_on_c, 4, 69, 92
12, 809009, Note_on_c, 4, 57, 0
12, 809009, Note_on_c, 4, 69, 0
12, 809040, Note_on_c, 4, 57, 92
12, 809040, Note_on_c, 4, 69, 92
12, 809249, Note_on_c, 4, 57, 0
12, 809249, Note_on_c, 4, 69, 0
12, 809280, Note_on_c, 4, 64, 92
12, 809489, Note_on_c, 4, 64, 0
12, 809520, Note_on_c, 4, 64, 92
12, 809759, Note_on_c, 4, 64, 0
12, 810240, Note_on_c, 4, 64, 92
12, 810449, Note_on_c, 4, 64, 0
12, 810480, Note_on_c, 4, 64, 92
12, 810689, Note_on_c, 4, 64, 0
12, 810720, Note_on_c, 4, 64, 92
12, 810929, Note_on_c, 4, 64, 0
12, 810960, Note_on_c, 4, 64, 92
12, 811169, Note_on_c, 4, 64, 0
12, 811200, Note_on_c, 4, 64, 92
12, 811200, Note_on_c, 4, 57, 92
12, 811409, Note_on_c, 4, 64, 0
12, 811409, Note_on_c, 4, 57, 0
12, 811440, Note_on_c, 4, 64, 92
12, 811649, Note_on_c, 4, 64, 0
12, 811680, Note_on_c, 4, 57, 92
12, 811889, Note_on_c, 4, 57, 0
12, 811920, Note_on_c, 4, 57, 92
12, 811920, Note_on_c, 4, 69, 92
12, 812129, Note_on_c, 4, 57, 0
12, 812129, Note_on_c, 4, 69, 0
12, 812160, Note_on_c, 4, 62, 92
12, 812160, Note_on_c, 4, 50, 92
12, 812339, Note_on_c, 4, 62, 0
12, 812339, Note_on_c, 4, 50, 0
12, 812400, Note_on_c, 4, 50, 92
12, 812400, Note_on_c, 4, 62, 92
12, 812579, Note_on_c, 4, 50, 0
12, 812579, Note_on_c, 4, 62, 0
12, 812640, Note_on_c, 4, 69, 92
12, 812640, Note_on_c, 4, 57, 92
12, 812819, Note_on_c, 4, 69, 0
12, 812819, Note_on_c, 4, 57, 0
12, 812880, Note_on_c, 4, 57, 92
12, 812880, Note_on_c, 4, 69, 92
12, 813059, Note_on_c, 4, 57, 0
12, 813059, Note_on_c, 4, 69, 0
12, 813120, Note_on_c, 4, 64, 92
12, 813299, Note_on_c, 4, 64, 0
12, 813360, Note_on_c, 4, 64, 92
12, 813539, Note_on_c, 4, 64, 0
12, 814080, Note_on_c, 4, 64, 92
12, 814259, Note_on_c, 4, 64, 0
12, 814320, Note_on_c, 4, 64, 92
12, 814499, Note_on_c, 4, 64, 0
12, 814560, Note_on_c, 4, 64, 92
12, 814739, Note_on_c, 4, 64, 0
12, 814800, Note_on_c, 4, 64, 92
12, 814979, Note_on_c, 4, 64, 0
12, 815040, Note_on_c, 4, 64, 92
12, 815040, Note_on_c, 4, 57, 92
12, 815219, Note_on_c, 4, 64, 0
12, 815219, Note_on_c, 4, 57, 0
12, 815280, Note_on_c, 4, 64, 92
12, 815459, Note_on_c, 4, 64, 0
12, 815520, Note_on_c, 4, 57, 92
12, 815699, Note_on_c, 4, 57, 0
12, 816000, Note_on_c, 4, 67, 92
12, 816179, Note_on_c, 4, 67, 0
12, 816240, Note_on_c, 4, 64, 92
12, 816419, Note_on_c, 4, 64, 0
12, 816480, Note_on_c, 4, 64, 92
12, 816659, Note_on_c, 4, 64, 0
12, 816720, Note_on_c, 4, 64, 92
12, 816899, Note_on_c, 4, 64, 0
12, 816960, Note_on_c, 4, 64, 92
12, 816960, Note_on_c, 4, 57, 92
12, 817139, Note_on_c, 4, 64, 0
12, 817139, Note_on_c, 4, 57, 0
12, 817200, Note_on_c, 4, 64, 92
12, 817379, Note_on_c, 4, 64, 0
12, 817440, Note_on_c, 4, 57, 92
12, 817680, Note_on_c, 4, 69, 92
12, 821729, Note_on_c, 4, 57, 0
12, 821729, Note_on_c, 4, 69, 0
12, 821760, Note_on_c, 4, 57, 92
12, 821760, Note_on_c, 4, 69, 92
12, 825569, Note_on_c, 4, 57, 0
12, 825569, Note_on_c, 4, 69, 0
12, 825600, Note_on_c, 4, 69, 92
12, 825600, Note_on_c, 4, 57, 92
12, 826049, Note_on_c, 4, 69, 0
12, 826049, Note_on_c, 4, 57, 0
12, 826080, Note_on_c, 4, 50, 92
12, 826080, Note_on_c, 4, 62, 92
12, 826529, Note_on_c, 4, 50, 0
12, 826529, Note_on_c, 4, 62, 0
12, 826560, Note_on_c, 4, 67, 92
12, 827489, Note_on_c, 4, 67, 0
12, 827520, Note_on_c, 4, 64, 92
12, 827520, Note_on_c, 4, 67, 92
12, 827759, Note_on_c, 4, 64, 0
12, 827759, Note_on_c, 4, 67, 0
12, 827760, Note_on_c, 4, 62, 92
12, 827760, Note_on_c, 4, 66, 92
12, 827969, Note_on_c, 4, 62, 0
12, 827969, Note_on_c, 4, 66, 0
12, 828000, Note_on_c, 4, 57, 92
12, 828000, Note_on_c, 4, 64, 92
12, 828449, Note_on_c, 4, 57, 0
12, 828449, Note_on_c, 4, 64, 0
12, 828480, Note_on_c, 4, 62, 92
12, 828480, Note_on_c, 4, 50, 92
12, 828929, Note_on_c, 4, 62, 0
12, 828929, Note_on_c, 4, 50, 0
12, 828960, Note_on_c, 4, 57, 92
12, 828960, Note_on_c, 4, 69, 92
12, 829649, Note_on_c, 4, 57, 0
12, 829649, Note_on_c, 4, 69, 0
12, 829680, Note_on_c, 4, 57, 92
12, 829680, Note_on_c, 4, 69, 92
12, 830129, Note_on_c, 4, 57, 0
12, 830129, Note_on_c, 4, 69, 0
12, 830160, Note_on_c, 4, 50, 92
12, 830160, Note_on_c, 4, 62, 92
12, 830609, Note_on_c, 4, 50, 0
12, 830609, Note_on_c, 4, 62, 0
12, 830640, Note_on_c, 4, 67, 92
12, 831089, Note_on_c, 4, 67, 0
12, 831120, Note_on_c, 4, 67, 92
12, 831329, Note_on_c, 4, 67, 0
12, 831360, Note_on_c, 4, 67, 92
12, 831360, Note_on_c, 4, 64, 92
12, 831599, Note_on_c, 4, 67, 0
12, 831599, Note_on_c, 4, 64, 0
12, 831600, Note_on_c, 4, 62, 92
12, 831600, Note_on_c, 4, 66, 92
12, 831809, Note_on_c, 4, 62, 0
12, 831809, Note_on_c, 4, 66, 0
12, 831840, Note_on_c, 4, 62, 92
12, 831840, Note_on_c, 4, 66, 92
12, 832079, Note_on_c, 4, 62, 0
12, 832079, Note_on_c, 4, 66, 0
12, 832080, Note_on_c, 4, 57, 92
12, 832080, Note_on_c, 4, 64, 92
12, 832289, Note_on_c, 4, 57, 0
12, 832289, Note_on_c, 4, 64, 0
12, 832320, Note_on_c, 4, 64, 92
12, 832320, Note_on_c, 4, 57, 92
12, 832559, Note_on_c, 4, 64, 0
12, 832559, Note_on_c, 4, 57, 0
12, 832560, Note_on_c, 4, 54, 92
12, 832560, Note_on_c, 4, 62, 92
12, 832769, Note_on_c, 4, 54, 0
12, 832769, Note_on_c, 4, 62, 0
12, 832800, Note_on_c, 4, 57, 92
12, 832800, Note_on_c, 4, 64, 92
12, 833039, Note_on_c, 4, 57, 0
12, 833039, Note_on_c, 4, 64, 0
12, 833040, Note_on_c, 4, 57, 92
12, 833040, Note_on_c, 4, 69, 92
12, 833249, Note_on_c, 4, 57, 0
12, 833249, Note_on_c, 4, 69, 0
12, 833280, Note_on_c, 4, 54, 92
12, 833280, Note_on_c, 4, 62, 92
12, 833489, Note_on_c, 4, 54, 0
12, 833489, Note_on_c, 4, 62, 0
12, 833520, Note_on_c, 4, 54, 92
12, 833520, Note_on_c, 4, 62, 92
12, 833729, Note_on_c, 4, 54, 0
12, 833729, Note_on_c, 4, 62, 0
12, 833760, Note_on_c, 4, 57, 92
12, 833760, Note_on_c, 4, 64, 92
12, 833969, Note_on_c, 4, 57, 0
12, 833969, Note_on_c, 4, 64, 0
12, 834000, Note_on_c, 4, 64, 92
12, 834000, Note_on_c, 4, 57, 92
12, 834209, Note_on_c, 4, 64, 0
12, 834209, Note_on_c, 4, 57, 0
12, 834240, Note_on_c, 4, 67, 92
12, 834449, Note_on_c, 4, 67, 0
12, 834480, Note_on_c, 4, 67, 92
12, 834689, Note_on_c, 4, 67, 0
12, 834720, Note_on_c, 4, 54, 92
12, 834720, Note_on_c, 4, 66, 92
12, 834929, Note_on_c, 4, 54, 0
12, 834929, Note_on_c, 4, 66, 0
12, 834960, Note_on_c, 4, 66, 92
12, 834960, Note_on_c, 4, 54, 92
12, 835169, Note_on_c, 4, 66, 0
12, 835169, Note_on_c, 4, 54, 0
12, 835200, Note_on_c, 4, 67, 92
12, 835409, Note_on_c, 4, 67, 0
12, 835440, Note_on_c, 4, 67, 92
12, 835649, Note_on_c, 4, 67, 0
12, 835680, Note_on_c, 4, 66, 92
12, 835680, Note_on_c, 4, 54, 92
12, 835889, Note_on_c, 4, 66, 0
12, 835889, Note_on_c, 4, 54, 0
12, 835920, Note_on_c, 4, 66, 92
12, 835920, Note_on_c, 4, 54, 92
12, 836129, Note_on_c, 4, 66, 0
12, 836129, Note_on_c, 4, 54, 0
12, 836160, Note_on_c, 4, 54, 92
12, 836160, Note_on_c, 4, 69, 92
12, 836519, Note_on_c, 4, 54, 0
12, 836519, Note_on_c, 4, 69, 0
12, 836640, Note_on_c, 4, 54, 92
12, 836640, Note_on_c, 4, 69, 92
12, 836999, Note_on_c, 4, 54, 0
12, 836999, Note_on_c, 4, 69, 0
12, 837120, Note_on_c, 4, 54, 92
12, 837120, Note_on_c, 4, 69, 92
12, 837479, Note_on_c, 4, 54, 0
12, 837479, Note_on_c, 4, 69, 0
12, 837600, Note_on_c, 4, 69, 92
12, 837600, Note_on_c, 4, 54, 92
12, 837959, Note_on_c, 4, 69, 0
12, 837959, Note_on_c, 4, 54, 0
12, 838080, Note_on_c, 4, 54, 92
12, 838080, Note_on_c, 4, 69, 92
12, 838439, Note_on_c, 4, 54, 0
12, 838439, Note_on_c, 4, 69, 0
12, 838560, Note_on_c, 4, 69, 92
12, 838560, Note_on_c, 4, 66, 92
12, 838919, Note_on_c, 4, 69, 0
12, 838919, Note_on_c, 4, 66, 0
12, 839040, Note_on_c, 4, 64, 92
12, 839040, Note_on_c, 4, 67, 92
12, 839399, Note_on_c, 4, 64, 0
12, 839399, Note_on_c, 4, 67, 0
12, 839520, Note_on_c, 4, 64, 92
12, 839520, Note_on_c, 4, 67, 92
12, 839879, Note_on_c, 4, 64, 0
12, 839879, Note_on_c, 4, 67, 0
12, 840000, Note_on_c, 4, 64, 92
12, 840000, Note_on_c, 4, 67, 92
12, 840359, Note_on_c, 4, 64, 0
12, 840359, Note_on_c, 4, 67, 0
12, 840480, Note_on_c, 4, 64, 92
12, 840480, Note_on_c, 4, 67, 92
12, 840839, Note_on_c, 4, 64, 0
12, 840839, Note_on_c, 4, 67, 0
12, 840960, Note_on_c, 4, 65, 92
12, 841319, Note_on_c, 4, 65, 0
12, 841440, Note_on_c, 4, 57, 92
12, 841440, Note_on_c, 4, 69, 92
12, 841799, Note_on_c, 4, 57, 0
12, 841799, Note_on_c, 4, 69, 0
12, 841920, Note_on_c, 4, 69, 92
12, 841920, Note_on_c, 4, 57, 92
12, 842369, Note_on_c, 4, 69, 0
12, 842369, Note_on_c, 4, 57, 0
12, 842400, Note_on_c, 4, 57, 92
12, 842400, Note_on_c, 4, 69, 92
12, 842849, Note_on_c, 4, 57, 0
12, 842849, Note_on_c, 4, 69, 0
12, 842880, Note_on_c, 4, 69, 92
12, 842880, Note_on_c, 4, 54, 92
12, 843329, Note_on_c, 4, 69, 0
12, 843329, Note_on_c, 4, 54, 0
12, 843360, Note_on_c, 4, 54, 92
12, 843360, Note_on_c, 4, 69, 92
12, 843440, Control_c, 4, 11, 107
12, 844289, Note_on_c, 4, 54, 0
12, 844289, Note_on_c, 4, 69, 0
12, 844318, Control_c, 4, 11, 127
12, 844320, Note_on_c, 4, 69, 80
12, 844320, Note_on_c, 4, 66, 80
12, 844769, Note_on_c, 4, 69, 0
12, 844769, Note_on_c, 4, 66, 0
12, 844800, Note_on_c, 4, 66, 80
12, 844800, Note_on_c, 4, 69, 80
12, 845249, Note_on_c, 4, 66, 0
12, 845249, Note_on_c, 4, 69, 0
12, 845280, Note_on_c, 4, 66, 80
12, 845280, Note_on_c, 4, 69, 80
12, 845729, Note_on_c, 4, 66, 0
12, 845729, Note_on_c, 4, 69, 0
12, 845760, Note_on_c, 4, 69, 80
12, 845760, Note_on_c, 4, 66, 80
12, 846209, Note_on_c, 4, 69, 0
12, 846209, Note_on_c, 4, 66, 0
12, 846240, Note_on_c, 4, 69, 80
12, 846240, Note_on_c, 4, 66, 80
12, 846689, Note_on_c, 4, 69, 0
12, 846689, Note_on_c, 4, 66, 0
12, 846720, Note_on_c, 4, 67, 92
12, 846720, Note_on_c, 4, 64, 92
12, 847169, Note_on_c, 4, 67, 0
12, 847169, Note_on_c, 4, 64, 0
12, 847200, Note_on_c, 4, 64, 80
12, 847200, Note_on_c, 4, 67, 80
12, 847649, Note_on_c, 4, 64, 0
12, 847649, Note_on_c, 4, 67, 0
12, 847680, Note_on_c, 4, 64, 80
12, 847680, Note_on_c, 4, 67, 80
12, 848129, Note_on_c, 4, 64, 0
12, 848129, Note_on_c, 4, 67, 0
12, 848160, Note_on_c, 4, 67, 80
12, 848160, Note_on_c, 4, 64, 80
12, 848609, Note_on_c, 4, 67, 0
12, 848609, Note_on_c, 4, 64, 0
12, 848640, Note_on_c, 4, 65, 92
12, 849089, Note_on_c, 4, 65, 0
12, 849120, Note_on_c, 4, 69, 92
12, 849120, Note_on_c, 4, 57, 92
12, 849569, Note_on_c, 4, 69, 0
12, 849569, Note_on_c, 4, 57, 0
12, 849600, Note_on_c, 4, 57, 92
12, 849600, Note_on_c, 4, 69, 92
12, 850049, Note_on_c, 4, 57, 0
12, 850049, Note_on_c, 4, 69, 0
12, 850080, Note_on_c, 4, 62, 92
12, 850080, Note_on_c, 4, 50, 92
12, 851009, Note_on_c, 4, 62, 0
12, 851009, Note_on_c, 4, 50, 0
12, 851040, Note_on_c, 4, 67, 92
12, 851489, Note_on_c, 4, 67, 0
12, 851520, Note_on_c, 4, 64, 92
12, 851520, Note_on_c, 4, 67, 92
12, 853409, Note_on_c, 4, 64, 0
12, 853409, Note_on_c, 4, 67, 0
12, 853440, Note_on_c, 4, 62, 92
12, 853440, Note_on_c, 4, 66, 92
12, 853889, Note_on_c, 4, 62, 0
12, 853889, Note_on_c, 4, 66, 0
12, 853920, Note_on_c, 4, 64, 92
12, 853920, Note_on_c, 4, 57, 92
12, 854369, Note_on_c, 4, 64, 0
12, 854369, Note_on_c, 4, 57, 0
12, 854400, Note_on_c, 4, 62, 92
12, 854400, Note_on_c, 4, 50, 92
12, 854849, Note_on_c, 4, 62, 0
12, 854849, Note_on_c, 4, 50, 0
12, 854880, Note_on_c, 4, 50, 92
12, 854880, Note_on_c, 4, 62, 92
12, 855089, Note_on_c, 4, 50, 0
12, 855089, Note_on_c, 4, 62, 0
12, 855120, Note_on_c, 4, 67, 92
12, 855329, Note_on_c, 4, 67, 0
12, 855360, Note_on_c, 4, 64, 92
12, 855360, Note_on_c, 4, 67, 92
12, 857249, Note_on_c, 4, 64, 0
12, 857249, Note_on_c, 4, 67, 0
12, 857280, Note_on_c, 4, 66, 92
12, 857280, Note_on_c, 4, 62, 92
12, 857729, Note_on_c, 4, 66, 0
12, 857729, Note_on_c, 4, 62, 0
12, 857760, Note_on_c, 4, 64, 92
12, 857760, Note_on_c, 4, 57, 92
12, 858209, Note_on_c, 4, 64, 0
12, 858209, Note_on_c, 4, 57, 0
12, 858240, Note_on_c, 4, 62, 92
12, 858240, Note_on_c, 4, 54, 92
12, 858479, Note_on_c, 4, 62, 0
12, 858479, Note_on_c, 4, 54, 0
12, 858720, Note_on_c, 4, 66, 92
12, 858929, Note_on_c, 4, 66, 0
12, 858960, Note_on_c, 4, 66, 92
12, 859059, Note_on_c, 4, 66, 0
12, 859080, Note_on_c, 4, 64, 92
12, 859179, Note_on_c, 4, 64, 0
12, 859200, Note_on_c, 4, 62, 92
12, 859439, Note_on_c, 4, 62, 0
12, 859680, Note_on_c, 4, 50, 92
12, 859680, Note_on_c, 4, 62, 92
12, 859889, Note_on_c, 4, 50, 0
12, 859889, Note_on_c, 4, 62, 0
12, 859920, Note_on_c, 4, 50, 92
12, 859920, Note_on_c, 4, 62, 92
12, 860129, Note_on_c, 4, 50, 0
12, 860129, Note_on_c, 4, 62, 0
12, 860160, Note_on_c, 4, 67, 92
12, 860399, Note_on_c, 4, 67, 0
12, 860640, Note_on_c, 4, 64, 92
12, 860849, Note_on_c, 4, 64, 0
12, 860880, Note_on_c, 4, 64, 92
12, 861089, Note_on_c, 4, 64, 0
12, 861120, Note_on_c, 4, 57, 92
12, 861120, Note_on_c, 4, 69, 92
12, 861359, Note_on_c, 4, 57, 0
12, 861359, Note_on_c, 4, 69, 0
12, 862560, Note_on_c, 4, 62, 92
12, 862560, Note_on_c, 4, 50, 92
12, 862769, Note_on_c, 4, 62, 0
12, 862769, Note_on_c, 4, 50, 0
12, 862800, Note_on_c, 4, 66, 92
12, 862800, Note_on_c, 4, 54, 92
12, 863009, Note_on_c, 4, 66, 0
12, 863009, Note_on_c, 4, 54, 0
12, 863040, Note_on_c, 4, 57, 92
12, 863040, Note_on_c, 4, 69, 92
12, 863729, Note_on_c, 4, 57, 0
12, 863729, Note_on_c, 4, 69, 0
12, 863760, Note_on_c, 4, 69, 92
12, 863760, Note_on_c, 4, 57, 92
12, 863969, Note_on_c, 4, 69, 0
12, 863969, Note_on_c, 4, 57, 0
12, 864000, Note_on_c, 4, 69, 92
12, 864000, Note_on_c, 4, 57, 92
12, 864209, Note_on_c, 4, 69, 0
12, 864209, Note_on_c, 4, 57, 0
12, 864240, Note_on_c, 4, 62, 92
12, 864240, Note_on_c, 4, 50, 92
12, 864479, Note_on_c, 4, 62, 0
12, 864479, Note_on_c, 4, 50, 0
12, 867360, Note_on_c, 4, 57, 92
12, 867360, Note_on_c, 4, 69, 92
12, 867569, Note_on_c, 4, 57, 0
12, 867569, Note_on_c, 4, 69, 0
12, 867600, Note_on_c, 4, 69, 92
12, 867600, Note_on_c, 4, 57, 92
12, 867809, Note_on_c, 4, 69, 0
12, 867809, Note_on_c, 4, 57, 0
12, 867840, Note_on_c, 4, 57, 92
12, 867840, Note_on_c, 4, 69, 92
12, 869489, Note_on_c, 4, 57, 0
12, 869489, Note_on_c, 4, 69, 0
12, 869520, Note_on_c, 4, 69, 92
12, 869520, Note_on_c, 4, 57, 92
12, 869729, Note_on_c, 4, 69, 0
12, 869729, Note_on_c, 4, 57, 0
12, 869760, Note_on_c, 4, 69, 92
12, 869760, Note_on_c, 4, 57, 92
12, 869969, Note_on_c, 4, 69, 0
12, 869969, Note_on_c, 4, 57, 0
12, 870000, Note_on_c, 4, 50, 92
12, 870000, Note_on_c, 4, 62, 92
12, 870209, Note_on_c, 4, 50, 0
12, 870209, Note_on_c, 4, 62, 0
12, 870240, Note_on_c, 4, 64, 92
12, 870240, Note_on_c, 4, 67, 92
12, 871069, Note_on_c, 4, 64, 0
12, 871069, Note_on_c, 4, 67, 0
12, 871080, Note_on_c, 4, 64, 92
12, 871080, Note_on_c, 4, 67, 92
12, 871189, Note_on_c, 4, 64, 0
12, 871189, Note_on_c, 4, 67, 0
12, 871200, Note_on_c, 4, 67, 92
12, 871200, Note_on_c, 4, 64, 92
12, 871373, Note_on_c, 4, 67, 0
12, 871373, Note_on_c, 4, 64, 0
12, 871378, Control_c, 4, 11, 69
12, 871380, Note_on_c, 4, 64, 80
12, 871380, Note_on_c, 4, 67, 80
12, 871433, Note_on_c, 4, 64, 0
12, 871433, Note_on_c, 4, 67, 0
12, 871440, Note_on_c, 4, 67, 80
12, 871440, Note_on_c, 4, 64, 80
12, 871613, Note_on_c, 4, 67, 0
12, 871613, Note_on_c, 4, 64, 0
12, 871620, Note_on_c, 4, 64, 80
12, 871620, Note_on_c, 4, 67, 80
12, 871673, Note_on_c, 4, 64, 0
12, 871673, Note_on_c, 4, 67, 0
12, 871680, Note_on_c, 4, 64, 80
12, 871680, Note_on_c, 4, 67, 80
12, 871680, Control_c, 4, 11, 69
12, 871693, Control_c, 4, 11, 71
12, 871707, Control_c, 4, 11, 72
12, 871720, Control_c, 4, 11, 74
12, 871733, Control_c, 4, 11, 75
12, 871747, Control_c, 4, 11, 77
12, 871760, Control_c, 4, 11, 79
12, 871773, Control_c, 4, 11, 80
12, 871787, Control_c, 4, 11, 82
12, 871799, Note_on_c, 4, 64, 0
12, 871799, Note_on_c, 4, 67, 0
12, 871800, Control_c, 4, 11, 84
12, 871800, Note_on_c, 4, 64, 80
12, 871800, Note_on_c, 4, 57, 80
12, 871813, Control_c, 4, 11, 85
12, 871827, Control_c, 4, 11, 87
12, 871840, Control_c, 4, 11, 88
12, 871853, Control_c, 4, 11, 90
12, 871867, Control_c, 4, 11, 92
12, 871880, Control_c, 4, 11, 93
12, 871893, Control_c, 4, 11, 95
12, 871907, Control_c, 4, 11, 96
12, 871920, Control_c, 4, 11, 98
12, 871933, Control_c, 4, 11, 100
12, 871947, Control_c, 4, 11, 101
12, 871960, Control_c, 4, 11, 103
12, 871973, Control_c, 4, 11, 104
12, 871987, Control_c, 4, 11, 106
12, 872000, Control_c, 4, 11, 108
12, 872013, Control_c, 4, 11, 109
12, 872027, Control_c, 4, 11, 111
12, 872039, Note_on_c, 4, 64, 0
12, 872039, Note_on_c, 4, 57, 0
12, 872040, Note_on_c, 4, 62, 80
12, 872040, Note_on_c, 4, 66, 80
12, 872040, Control_c, 4, 11, 113
12, 872053, Control_c, 4, 11, 114
12, 872067, Control_c, 4, 11, 116
12, 872080, Control_c, 4, 11, 117
12, 872093, Control_c, 4, 11, 119
12, 872099, Note_on_c, 4, 62, 0
12, 872099, Note_on_c, 4, 66, 0
12, 872100, Note_on_c, 4, 64, 80
12, 872100, Note_on_c, 4, 67, 80
12, 872107, Control_c, 4, 11, 121
12, 872120, Control_c, 4, 11, 122
12, 872133, Control_c, 4, 11, 124
12, 872147, Control_c, 4, 11, 127
12, 872153, Note_on_c, 4, 64, 0
12, 872153, Note_on_c, 4, 67, 0
12, 872160, Note_on_c, 4, 66, 80
12, 872160, Note_on_c, 4, 62, 80
12, 872333, Note_on_c, 4, 66, 0
12, 872333, Note_on_c, 4, 62, 0
12, 872340, Note_on_c, 4, 66, 80
12, 872340, Note_on_c, 4, 62, 80
12, 872393, Note_on_c, 4, 66, 0
12, 872393, Note_on_c, 4, 62, 0
12, 872400, Note_on_c, 4, 67, 80
12, 872400, Note_on_c, 4, 62, 80
12, 872629, Note_on_c, 4, 62, 0
12, 872640, Note_on_c, 4, 50, 80
12, 872749, Note_on_c, 4, 67, 0
12, 872749, Note_on_c, 4, 50, 0
12, 872760, Note_on_c, 4, 57, 80
12, 872760, Note_on_c, 4, 64, 80
12, 872869, Note_on_c, 4, 57, 0
12, 872869, Note_on_c, 4, 64, 0
12, 872880, Note_on_c, 4, 57, 92
12, 872880, Note_on_c, 4, 69, 92
12, 872940, Control_c, 4, 11, 107
12, 873049, Note_on_c, 4, 57, 0
12, 873049, Note_on_c, 4, 69, 0
12, 873060, Note_on_c, 4, 69, 92
12, 873060, Note_on_c, 4, 57, 92
12, 873109, Note_on_c, 4, 69, 0
12, 873109, Note_on_c, 4, 57, 0
12, 873120, Note_on_c, 4, 57, 92
12, 873120, Note_on_c, 4, 69, 92
12, 873229, Note_on_c, 4, 57, 0
12, 873229, Note_on_c, 4, 69, 0
12, 873240, Note_on_c, 4, 50, 92
12, 873240, Note_on_c, 4, 62, 92
12, 873349, Note_on_c, 4, 50, 0
12, 873349, Note_on_c, 4, 62, 0
12, 873358, Control_c, 4, 11, 127
12, 873360, Note_on_c, 4, 57, 92
12, 873360, Note_on_c, 4, 69, 92
12, 873420, Control_c, 4, 11, 107
12, 873529, Note_on_c, 4, 57, 0
12, 873529, Note_on_c, 4, 69, 0
12, 873540, Note_on_c, 4, 69, 92
12, 873540, Note_on_c, 4, 57, 92
12, 873589, Note_on_c, 4, 69, 0
12, 873589, Note_on_c, 4, 57, 0
12, 873598, Control_c, 4, 11, 127
12, 873600, Note_on_c, 4, 69, 80
12, 873600, Note_on_c, 4, 57, 80
12, 874049, Note_on_c, 4, 69, 0
12, 874049, Note_on_c, 4, 57, 0
12, 874080, Note_on_c, 4, 62, 80
12, 874080, Note_on_c, 4, 50, 80
12, 874289, Note_on_c, 4, 62, 0
12, 874289, Note_on_c, 4, 50, 0
12, 874320, Note_on_c, 4, 69, 80
12, 874320, Note_on_c, 4, 66, 80
12, 874529, Note_on_c, 4, 69, 0
12, 874529, Note_on_c, 4, 66, 0
12, 874560, Note_on_c, 4, 66, 80
12, 874560, Note_on_c, 4, 69, 80
12, 874769, Note_on_c, 4, 66, 0
12, 874769, Note_on_c, 4, 69, 0
12, 874800, Note_on_c, 4, 67, 80
12, 874800, Note_on_c, 4, 64, 80
12, 875009, Note_on_c, 4, 67, 0
12, 875009, Note_on_c, 4, 64, 0
12, 875040, Note_on_c, 4, 66, 80
12, 875040, Note_on_c, 4, 62, 80
12, 875249, Note_on_c, 4, 66, 0
12, 875249, Note_on_c, 4, 62, 0
12, 875280, Note_on_c, 4, 66, 80
12, 875280, Note_on_c, 4, 62, 80
12, 875379, Note_on_c, 4, 66, 0
12, 875379, Note_on_c, 4, 62, 0
12, 875400, Note_on_c, 4, 57, 80
12, 875400, Note_on_c, 4, 64, 80
12, 875499, Note_on_c, 4, 57, 0
12, 875499, Note_on_c, 4, 64, 0
12, 875520, Note_on_c, 4, 62, 80
12, 875520, Note_on_c, 4, 66, 80
12, 875729, Note_on_c, 4, 62, 0
12, 875729, Note_on_c, 4, 66, 0
12, 875760, Note_on_c, 4, 62, 80
12, 875760, Note_on_c, 4, 66, 80
12, 875969, Note_on_c, 4, 62, 0
12, 875969, Note_on_c, 4, 66, 0
12, 876000, Note_on_c, 4, 67, 80
12, 876000, Note_on_c, 4, 64, 80
12, 876209, Note_on_c, 4, 67, 0
12, 876209, Note_on_c, 4, 64, 0
12, 876240, Note_on_c, 4, 69, 80
12, 876240, Note_on_c, 4, 66, 80
12, 876449, Note_on_c, 4, 69, 0
12, 876449, Note_on_c, 4, 66, 0
12, 876480, Note_on_c, 4, 66, 80
12, 876480, Note_on_c, 4, 69, 80
12, 876689, Note_on_c, 4, 66, 0
12, 876689, Note_on_c, 4, 69, 0
12, 876720, Note_on_c, 4, 64, 80
12, 876720, Note_on_c, 4, 67, 80
12, 876929, Note_on_c, 4, 64, 0
12, 876929, Note_on_c, 4, 67, 0
12, 876960, Note_on_c, 4, 66, 80
12, 876960, Note_on_c, 4, 62, 80
12, 877169, Note_on_c, 4, 66, 0
12, 877169, Note_on_c, 4, 62, 0
12, 877200, Note_on_c, 4, 62, 80
12, 877200, Note_on_c, 4, 66, 80
12, 877299, Note_on_c, 4, 62, 0
12, 877299, Note_on_c, 4, 66, 0
12, 877320, Note_on_c, 4, 64, 80
12, 877320, Note_on_c, 4, 57, 80
12, 877419, Note_on_c, 4, 64, 0
12, 877419, Note_on_c, 4, 57, 0
12, 877440, Note_on_c, 4, 62, 80
12, 877440, Note_on_c, 4, 66, 80
12, 877649, Note_on_c, 4, 62, 0
12, 877649, Note_on_c, 4, 66, 0
12, 877680, Note_on_c, 4, 64, 80
12, 877680, Note_on_c, 4, 57, 80
12, 877889, Note_on_c, 4, 64, 0
12, 877889, Note_on_c, 4, 57, 0
12, 877920, Note_on_c, 4, 66, 80
12, 877920, Note_on_c, 4, 62, 80
12, 878129, Note_on_c, 4, 66, 0
12, 878129, Note_on_c, 4, 62, 0
12, 878160, Note_on_c, 4, 64, 80
12, 878160, Note_on_c, 4, 57, 80
12, 878369, Note_on_c, 4, 64, 0
12, 878369, Note_on_c, 4, 57, 0
12, 878400, Note_on_c, 4, 62, 80
12, 878400, Note_on_c, 4, 54, 80
12, 878609, Note_on_c, 4, 62, 0
12, 878609, Note_on_c, 4, 54, 0
12, 878640, Note_on_c, 4, 57, 80
12, 878640, Note_on_c, 4, 45, 80
12, 878849, Note_on_c, 4, 57, 0
12, 878849, Note_on_c, 4, 45, 0
12, 878880, Note_on_c, 4, 54, 80
12, 878880, Note_on_c, 4, 62, 80
12, 879089, Note_on_c, 4, 54, 0
12, 879089, Note_on_c, 4, 62, 0
12, 879120, Note_on_c, 4, 57, 80
12, 879120, Note_on_c, 4, 64, 80
12, 879329, Note_on_c, 4, 57, 0
12, 879329, Note_on_c, 4, 64, 0
12, 879360, Note_on_c, 4, 62, 80
12, 879360, Note_on_c, 4, 66, 80
12, 879569, Note_on_c, 4, 62, 0
12, 879569, Note_on_c, 4, 66, 0
12, 879600, Note_on_c, 4, 57, 80
12, 879600, Note_on_c, 4, 64, 80
12, 879809, Note_on_c, 4, 57, 0
12, 879809, Note_on_c, 4, 64, 0
12, 879840, Note_on_c, 4, 62, 80
12, 879840, Note_on_c, 4, 66, 80
12, 880049, Note_on_c, 4, 62, 0
12, 880049, Note_on_c, 4, 66, 0
12, 880080, Note_on_c, 4, 67, 80
12, 880080, Note_on_c, 4, 64, 80
12, 880289, Note_on_c, 4, 67, 0
12, 880289, Note_on_c, 4, 64, 0
12, 880320, Note_on_c, 4, 64, 80
12, 880320, Note_on_c, 4, 67, 80
12, 880529, Note_on_c, 4, 64, 0
12, 880529, Note_on_c, 4, 67, 0
12, 880560, Note_on_c, 4, 62, 80
12, 880560, Note_on_c, 4, 66, 80
12, 880769, Note_on_c, 4, 62, 0
12, 880769, Note_on_c, 4, 66, 0
12, 880800, Note_on_c, 4, 64, 80
12, 880800, Note_on_c, 4, 67, 80
12, 881009, Note_on_c, 4, 64, 0
12, 881009, Note_on_c, 4, 67, 0
12, 881040, Note_on_c, 4, 69, 80
12, 881040, Note_on_c, 4, 66, 80
12, 881249, Note_on_c, 4, 69, 0
12, 881249, Note_on_c, 4, 66, 0
12, 881280, Note_on_c, 4, 69, 92
12, 881280, Note_on_c, 4, 66, 92
12, 881519, Note_on_c, 4, 69, 0
12, 881519, Note_on_c, 4, 66, 0
12, 881520, Note_on_c, 4, 66, 80
12, 881520, Note_on_c, 4, 62, 80
12, 881639, Note_on_c, 4, 66, 0
12, 881639, Note_on_c, 4, 62, 0
12, 881760, Note_on_c, 4, 69, 80
12, 881760, Note_on_c, 4, 66, 80
12, 881999, Note_on_c, 4, 69, 0
12, 881999, Note_on_c, 4, 66, 0
12, 882000, Note_on_c, 4, 62, 80
12, 882000, Note_on_c, 4, 66, 80
12, 882119, Note_on_c, 4, 62, 0
12, 882119, Note_on_c, 4, 66, 0
12, 882240, Note_on_c, 4, 69, 80
12, 882240, Note_on_c, 4, 66, 80
12, 882479, Note_on_c, 4, 69, 0
12, 882479, Note_on_c, 4, 66, 0
12, 882480, Note_on_c, 4, 62, 80
12, 882480, Note_on_c, 4, 66, 80
12, 882599, Note_on_c, 4, 62, 0
12, 882599, Note_on_c, 4, 66, 0
12, 882720, Note_on_c, 4, 69, 80
12, 882720, Note_on_c, 4, 66, 80
12, 882959, Note_on_c, 4, 69, 0
12, 882959, Note_on_c, 4, 66, 0
12, 882960, Note_on_c, 4, 62, 80
12, 882960, Note_on_c, 4, 66, 80
12, 883079, Note_on_c, 4, 62, 0
12, 883079, Note_on_c, 4, 66, 0
12, 883200, Note_on_c, 4, 69, 80
12, 883200, Note_on_c, 4, 66, 80
12, 883439, Note_on_c, 4, 69, 0
12, 883439, Note_on_c, 4, 66, 0
12, 883440, Note_on_c, 4, 62, 80
12, 883440, Note_on_c, 4, 66, 80
12, 883559, Note_on_c, 4, 62, 0
12, 883559, Note_on_c, 4, 66, 0
12, 883680, Note_on_c, 4, 66, 80
12, 883680, Note_on_c, 4, 69, 80
12, 883919, Note_on_c, 4, 66, 0
12, 883919, Note_on_c, 4, 69, 0
12, 883920, Note_on_c, 4, 62, 80
12, 883920, Note_on_c, 4, 66, 80
12, 884039, Note_on_c, 4, 62, 0
12, 884039, Note_on_c, 4, 66, 0
12, 884160, Note_on_c, 4, 66, 80
12, 884160, Note_on_c, 4, 69, 80
12, 884399, Note_on_c, 4, 66, 0
12, 884399, Note_on_c, 4, 69, 0
12, 884400, Note_on_c, 4, 66, 80
12, 884400, Note_on_c, 4, 62, 80
12, 884519, Note_on_c, 4, 66, 0
12, 884519, Note_on_c, 4, 62, 0
12, 884640, Note_on_c, 4, 66, 80
12, 884640, Note_on_c, 4, 69, 80
12, 884879, Note_on_c, 4, 66, 0
12, 884879, Note_on_c, 4, 69, 0
12, 884880, Note_on_c, 4, 62, 80
12, 884880, Note_on_c, 4, 66, 80
12, 884999, Note_on_c, 4, 62, 0
12, 884999, Note_on_c, 4, 66, 0
12, 885120, Note_on_c, 4, 66, 80
12, 885120, Note_on_c, 4, 69, 80
12, 885359, Note_on_c, 4, 66, 0
12, 885359, Note_on_c, 4, 69, 0
12, 885360, Note_on_c, 4, 66, 80
12, 885360, Note_on_c, 4, 62, 80
12, 885479, Note_on_c, 4, 66, 0
12, 885479, Note_on_c, 4, 62, 0
12, 885600, Note_on_c, 4, 66, 80
12, 885600, Note_on_c, 4, 69, 80
12, 885839, Note_on_c, 4, 66, 0
12, 885839, Note_on_c, 4, 69, 0
12, 885840, Note_on_c, 4, 66, 80
12, 885840, Note_on_c, 4, 62, 80
12, 885959, Note_on_c, 4, 66, 0
12, 885959, Note_on_c, 4, 62, 0
12, 886080, Note_on_c, 4, 66, 80
12, 886080, Note_on_c, 4, 69, 80
12, 886319, Note_on_c, 4, 66, 0
12, 886319, Note_on_c, 4, 69, 0
12, 886320, Note_on_c, 4, 66, 80
12, 886320, Note_on_c, 4, 62, 80
12, 886439, Note_on_c, 4, 66, 0
12, 886439, Note_on_c, 4, 62, 0
12, 886560, Note_on_c, 4, 66, 80
12, 886560, Note_on_c, 4, 69, 80
12, 886799, Note_on_c, 4, 66, 0
12, 886799, Note_on_c, 4, 69, 0
12, 886800, Note_on_c, 4, 62, 80
12, 886800, Note_on_c, 4, 66, 80
12, 886919, Note_on_c, 4, 62, 0
12, 886919, Note_on_c, 4, 66, 0
12, 887040, Note_on_c, 4, 66, 80
12, 887040, Note_on_c, 4, 69, 80
12, 887279, Note_on_c, 4, 66, 0
12, 887279, Note_on_c, 4, 69, 0
12, 887280, Note_on_c, 4, 62, 80
12, 887280, Note_on_c, 4, 66, 80
12, 887399, Note_on_c, 4, 62, 0
12, 887399, Note_on_c, 4, 66, 0
12, 887520, Note_on_c, 4, 69, 80
12, 887520, Note_on_c, 4, 66, 80
12, 887759, Note_on_c, 4, 69, 0
12, 887759, Note_on_c, 4, 66, 0
12, 887760, Note_on_c, 4, 66, 80
12, 887760, Note_on_c, 4, 62, 80
12, 887879, Note_on_c, 4, 66, 0
12, 887879, Note_on_c, 4, 62, 0
12, 888000, Note_on_c, 4, 66, 80
12, 888000, Note_on_c, 4, 69, 80
12, 888239, Note_on_c, 4, 66, 0
12, 888239, Note_on_c, 4, 69, 0
12, 888240, Note_on_c, 4, 66, 80
12, 888240, Note_on_c, 4, 62, 80
12, 888359, Note_on_c, 4, 66, 0
12, 888359, Note_on_c, 4, 62, 0
12, 888480, Note_on_c, 4, 69, 80
12, 888480, Note_on_c, 4, 66, 80
12, 888719, Note_on_c, 4, 69, 0
12, 888719, Note_on_c, 4, 66, 0
12, 888720, Note_on_c, 4, 62, 80
12, 888720, Note_on_c, 4, 66, 80
12, 888839, Note_on_c, 4, 62, 0
12, 888839, Note_on_c, 4, 66, 0
12, 888960, Note_on_c, 4, 66, 80
12, 888960, Note_on_c, 4, 69, 80
12, 889169, Note_on_c, 4, 66, 0
12, 889169, Note_on_c, 4, 69, 0
12, 889200, Note_on_c, 4, 50, 80
12, 889200, Note_on_c, 4, 62, 80
12, 890849, Note_on_c, 4, 50, 0
12, 890849, Note_on_c, 4, 62, 0
12, 890880, Note_on_c, 4, 62, 80
12, 890880, Note_on_c, 4, 50, 80
12, 891119, Note_on_c, 4, 62, 0
12, 891119, Note_on_c, 4, 50, 0
12, 891840, Note_on_c, 4, 50, 80
12, 891840, Note_on_c, 4, 62, 80
12, 892079, Note_on_c, 4, 50, 0
12, 892079, Note_on_c, 4, 62, 0
12, 892800, Note_on_c, 4, 62, 80
12, 892800, Note_on_c, 4, 50, 80
12, 893039, Note_on_c, 4, 62, 0
12, 893039, Note_on_c, 4, 50, 0
12, 893039, End_track
13, 0, Start_track
13, 0, Title_t, "French Horn III and IV in B-flat basso or D"
13, 0, MIDI_port, 0
13, 0, Program_c, 4, 60
13, 0, Control_c, 4, 7, 104
13, 0, Control_c, 4, 11, 127
13, 0, Control_c, 4, 10, 45
13, 0, Note_on_c, 4, 53, 92
13, 0, Note_on_c, 4, 41, 92
13, 1779, Note_on_c, 4, 53, 0
13, 1779, Note_on_c, 4, 41, 0
13, 1800, Note_on_c, 4, 53, 92
13, 1800, Note_on_c, 4, 65, 92
13, 1899, Note_on_c, 4, 53, 0
13, 1899, Note_on_c, 4, 65, 0
13, 1920, Note_on_c, 4, 53, 92
13, 1920, Note_on_c, 4, 65, 92
13, 2039, Note_on_c, 4, 53, 0
13, 2039, Note_on_c, 4, 65, 0
13, 2280, Note_on_c, 4, 62, 92
13, 2280, Note_on_c, 4, 50, 92
13, 2379, Note_on_c, 4, 62, 0
13, 2379, Note_on_c, 4, 50, 0
13, 2400, Note_on_c, 4, 62, 92
13, 2400, Note_on_c, 4, 50, 92
13, 2639, Note_on_c, 4, 62, 0
13, 2639, Note_on_c, 4, 50, 0
13, 3000, Note_on_c, 4, 62, 92
13, 3000, Note_on_c, 4, 50, 92
13, 3099, Note_on_c, 4, 62, 0
13, 3099, Note_on_c, 4, 50, 0
13, 3120, Note_on_c, 4, 62, 92
13, 3120, Note_on_c, 4, 50, 92
13, 3219, Note_on_c, 4, 62, 0
13, 3219, Note_on_c, 4, 50, 0
13, 3240, Note_on_c, 4, 62, 92
13, 3240, Note_on_c, 4, 50, 92
13, 3339, Note_on_c, 4, 62, 0
13, 3339, Note_on_c, 4, 50, 0
13, 3360, Note_on_c, 4, 50, 92
13, 3360, Note_on_c, 4, 62, 92
13, 3459, Note_on_c, 4, 50, 0
13, 3459, Note_on_c, 4, 62, 0
13, 3480, Note_on_c, 4, 62, 92
13, 3480, Note_on_c, 4, 50, 92
13, 3579, Note_on_c, 4, 62, 0
13, 3579, Note_on_c, 4, 50, 0
13, 3600, Note_on_c, 4, 50, 92
13, 3600, Note_on_c, 4, 62, 92
13, 3699, Note_on_c, 4, 50, 0
13, 3699, Note_on_c, 4, 62, 0
13, 3720, Note_on_c, 4, 62, 92
13, 3720, Note_on_c, 4, 50, 92
13, 3819, Note_on_c, 4, 62, 0
13, 3819, Note_on_c, 4, 50, 0
13, 3840, Note_on_c, 4, 50, 92
13, 3840, Note_on_c, 4, 62, 92
13, 3939, Note_on_c, 4, 50, 0
13, 3939, Note_on_c, 4, 62, 0
13, 3960, Note_on_c, 4, 50, 92
13, 3960, Note_on_c, 4, 62, 92
13, 4059, Note_on_c, 4, 50, 0
13, 4059, Note_on_c, 4, 62, 0
13, 4080, Note_on_c, 4, 62, 92
13, 4080, Note_on_c, 4, 50, 92
13, 4179, Note_on_c, 4, 62, 0
13, 4179, Note_on_c, 4, 50, 0
13, 4200, Note_on_c, 4, 50, 92
13, 4200, Note_on_c, 4, 62, 92
13, 4299, Note_on_c, 4, 50, 0
13, 4299, Note_on_c, 4, 62, 0
13, 4320, Note_on_c, 4, 50, 92
13, 4320, Note_on_c, 4, 62, 92
13, 4419, Note_on_c, 4, 50, 0
13, 4419, Note_on_c, 4, 62, 0
13, 4440, Note_on_c, 4, 62, 92
13, 4440, Note_on_c, 4, 50, 92
13, 4539, Note_on_c, 4, 62, 0
13, 4539, Note_on_c, 4, 50, 0
13, 4560, Note_on_c, 4, 62, 92
13, 4560, Note_on_c, 4, 50, 92
13, 4739, Note_on_c, 4, 62, 0
13, 4739, Note_on_c, 4, 50, 0
13, 12240, Note_on_c, 4, 60, 92
13, 12240, Note_on_c, 4, 63, 92
13, 14139, Note_on_c, 4, 60, 0
13, 14139, Note_on_c, 4, 63, 0
13, 14160, Note_on_c, 4, 60, 92
13, 14160, Note_on_c, 4, 63, 92
13, 14379, Note_on_c, 4, 60, 0
13, 14379, Note_on_c, 4, 63, 0
13, 14400, Note_on_c, 4, 60, 92
13, 14400, Note_on_c, 4, 63, 92
13, 14619, Note_on_c, 4, 60, 0
13, 14619, Note_on_c, 4, 63, 0
13, 14640, Note_on_c, 4, 60, 92
13, 14640, Note_on_c, 4, 63, 92
13, 14759, Note_on_c, 4, 60, 0
13, 14759, Note_on_c, 4, 63, 0
13, 17400, Note_on_c, 4, 53, 92
13, 17400, Note_on_c, 4, 60, 92
13, 17499, Note_on_c, 4, 53, 0
13, 17499, Note_on_c, 4, 60, 0
13, 17520, Note_on_c, 4, 60, 92
13, 17520, Note_on_c, 4, 53, 92
13, 17759, Note_on_c, 4, 60, 0
13, 17759, Note_on_c, 4, 53, 0
13, 43200, Note_on_c, 4, 65, 44
13, 43200, Note_on_c, 4, 53, 44
13, 43431, Note_on_c, 4, 65, 0
13, 43431, Note_on_c, 4, 53, 0
13, 43440, Note_on_c, 4, 65, 44
13, 43440, Note_on_c, 4, 53, 44
13, 43911, Note_on_c, 4, 65, 0
13, 43911, Note_on_c, 4, 53, 0
13, 43920, Note_on_c, 4, 53, 44
13, 43920, Note_on_c, 4, 65, 44
13, 44391, Note_on_c, 4, 53, 0
13, 44391, Note_on_c, 4, 65, 0
13, 44400, Note_on_c, 4, 53, 44
13, 44400, Note_on_c, 4, 65, 44
13, 44871, Note_on_c, 4, 53, 0
13, 44871, Note_on_c, 4, 65, 0
13, 44880, Note_on_c, 4, 53, 44
13, 44880, Note_on_c, 4, 60, 44
13, 45111, Note_on_c, 4, 53, 0
13, 45111, Note_on_c, 4, 60, 0
13, 45120, Note_on_c, 4, 53, 44
13, 45120, Note_on_c, 4, 58, 44
13, 45359, Note_on_c, 4, 53, 0
13, 45359, Note_on_c, 4, 58, 0
13, 177360, Note_on_c, 4, 53, 92
13, 177360, Note_on_c, 4, 41, 92
13, 179139, Note_on_c, 4, 53, 0
13, 179139, Note_on_c, 4, 41, 0
13, 179160, Note_on_c, 4, 65, 92
13, 179160, Note_on_c, 4, 53, 92
13, 179259, Note_on_c, 4, 65, 0
13, 179259, Note_on_c, 4, 53, 0
13, 179280, Note_on_c, 4, 53, 92
13, 179280, Note_on_c, 4, 65, 92
13, 179399, Note_on_c, 4, 53, 0
13, 179399, Note_on_c, 4, 65, 0
13, 179640, Note_on_c, 4, 50, 92
13, 179640, Note_on_c, 4, 62, 92
13, 179739, Note_on_c, 4, 50, 0
13, 179739, Note_on_c, 4, 62, 0
13, 179760, Note_on_c, 4, 50, 92
13, 179760, Note_on_c, 4, 62, 92
13, 179999, Note_on_c, 4, 50, 0
13, 179999, Note_on_c, 4, 62, 0
13, 180360, Note_on_c, 4, 50, 92
13, 180360, Note_on_c, 4, 62, 92
13, 180459, Note_on_c, 4, 50, 0
13, 180459, Note_on_c, 4, 62, 0
13, 180480, Note_on_c, 4, 62, 92
13, 180480, Note_on_c, 4, 50, 92
13, 180579, Note_on_c, 4, 62, 0
13, 180579, Note_on_c, 4, 50, 0
13, 180600, Note_on_c, 4, 62, 92
13, 180600, Note_on_c, 4, 50, 92
13, 180699, Note_on_c, 4, 62, 0
13, 180699, Note_on_c, 4, 50, 0
13, 180720, Note_on_c, 4, 50, 92
13, 180720, Note_on_c, 4, 62, 92
13, 180819, Note_on_c, 4, 50, 0
13, 180819, Note_on_c, 4, 62, 0
13, 180840, Note_on_c, 4, 62, 92
13, 180840, Note_on_c, 4, 50, 92
13, 180939, Note_on_c, 4, 62, 0
13, 180939, Note_on_c, 4, 50, 0
13, 180960, Note_on_c, 4, 62, 92
13, 180960, Note_on_c, 4, 50, 92
13, 181059, Note_on_c, 4, 62, 0
13, 181059, Note_on_c, 4, 50, 0
13, 181080, Note_on_c, 4, 50, 92
13, 181080, Note_on_c, 4, 62, 92
13, 181179, Note_on_c, 4, 50, 0
13, 181179, Note_on_c, 4, 62, 0
13, 181200, Note_on_c, 4, 62, 92
13, 181200, Note_on_c, 4, 50, 92
13, 181299, Note_on_c, 4, 62, 0
13, 181299, Note_on_c, 4, 50, 0
13, 181320, Note_on_c, 4, 62, 92
13, 181320, Note_on_c, 4, 50, 92
13, 181419, Note_on_c, 4, 62, 0
13, 181419, Note_on_c, 4, 50, 0
13, 181440, Note_on_c, 4, 62, 92
13, 181440, Note_on_c, 4, 50, 92
13, 181539, Note_on_c, 4, 62, 0
13, 181539, Note_on_c, 4, 50, 0
13, 181560, Note_on_c, 4, 50, 92
13, 181560, Note_on_c, 4, 62, 92
13, 181659, Note_on_c, 4, 50, 0
13, 181659, Note_on_c, 4, 62, 0
13, 181680, Note_on_c, 4, 50, 92
13, 181680, Note_on_c, 4, 62, 92
13, 181779, Note_on_c, 4, 50, 0
13, 181779, Note_on_c, 4, 62, 0
13, 181800, Note_on_c, 4, 50, 92
13, 181800, Note_on_c, 4, 62, 92
13, 181899, Note_on_c, 4, 50, 0
13, 181899, Note_on_c, 4, 62, 0
13, 181920, Note_on_c, 4, 50, 92
13, 181920, Note_on_c, 4, 62, 92
13, 182099, Note_on_c, 4, 50, 0
13, 182099, Note_on_c, 4, 62, 0
13, 287040, Note_on_c, 4, 53, 92
13, 287040, Note_on_c, 4, 65, 92
13, 288959, Note_on_c, 4, 53, 0
13, 288959, Note_on_c, 4, 65, 0
13, 295080, Note_on_c, 4, 46, 32
13, 295080, Note_on_c, 4, 58, 32
13, 295319, Note_on_c, 4, 46, 0
13, 295319, Note_on_c, 4, 58, 0
13, 295800, Note_on_c, 4, 58, 32
13, 295800, Note_on_c, 4, 46, 32
13, 296039, Note_on_c, 4, 58, 0
13, 296039, Note_on_c, 4, 46, 0
13, 296520, Note_on_c, 4, 58, 32
13, 296520, Note_on_c, 4, 46, 32
13, 296759, Note_on_c, 4, 58, 0
13, 296759, Note_on_c, 4, 46, 0
13, 297240, Note_on_c, 4, 58, 32
13, 297240, Note_on_c, 4, 46, 32
13, 297479, Note_on_c, 4, 58, 0
13, 297479, Note_on_c, 4, 46, 0
13, 297840, Note_on_c, 4, 58, 32
13, 297840, Note_on_c, 4, 62, 32
13, 297929, Note_on_c, 4, 58, 0
13, 297929, Note_on_c, 4, 62, 0
13, 297960, Note_on_c, 4, 62, 32
13, 297960, Note_on_c, 4, 58, 32
13, 298544, Note_on_c, 4, 62, 0
13, 298544, Note_on_c, 4, 58, 0
13, 298560, Note_on_c, 4, 63, 32
13, 298560, Note_on_c, 4, 60, 32
13, 298649, Note_on_c, 4, 63, 0
13, 298649, Note_on_c, 4, 60, 0
13, 298680, Note_on_c, 4, 62, 32
13, 298680, Note_on_c, 4, 65, 32
13, 299264, Note_on_c, 4, 62, 0
13, 299264, Note_on_c, 4, 65, 0
13, 299280, Note_on_c, 4, 65, 32
13, 299280, Note_on_c, 4, 62, 32
13, 299369, Note_on_c, 4, 65, 0
13, 299369, Note_on_c, 4, 62, 0
13, 299400, Note_on_c, 4, 63, 32
13, 299400, Note_on_c, 4, 60, 32
13, 299984, Note_on_c, 4, 63, 0
13, 299984, Note_on_c, 4, 60, 0
13, 300000, Note_on_c, 4, 58, 32
13, 300000, Note_on_c, 4, 62, 32
13, 300089, Note_on_c, 4, 58, 0
13, 300089, Note_on_c, 4, 62, 0
13, 300120, Note_on_c, 4, 53, 32
13, 300120, Note_on_c, 4, 60, 32
13, 300704, Note_on_c, 4, 53, 0
13, 300704, Note_on_c, 4, 60, 0
13, 300720, Note_on_c, 4, 50, 32
13, 300720, Note_on_c, 4, 58, 32
13, 300809, Note_on_c, 4, 50, 0
13, 300809, Note_on_c, 4, 58, 0
13, 300840, Note_on_c, 4, 50, 32
13, 300840, Note_on_c, 4, 58, 32
13, 301424, Note_on_c, 4, 50, 0
13, 301424, Note_on_c, 4, 58, 0
13, 301440, Note_on_c, 4, 60, 32
13, 301440, Note_on_c, 4, 53, 32
13, 301529, Note_on_c, 4, 60, 0
13, 301529, Note_on_c, 4, 53, 0
13, 301560, Note_on_c, 4, 58, 32
13, 301560, Note_on_c, 4, 62, 32
13, 302144, Note_on_c, 4, 58, 0
13, 302144, Note_on_c, 4, 62, 0
13, 302160, Note_on_c, 4, 62, 32
13, 302160, Note_on_c, 4, 58, 32
13, 302249, Note_on_c, 4, 62, 0
13, 302249, Note_on_c, 4, 58, 0
13, 302280, Note_on_c, 4, 53, 32
13, 302280, Note_on_c, 4, 60, 32
13, 302864, Note_on_c, 4, 53, 0
13, 302864, Note_on_c, 4, 60, 0
13, 302880, Note_on_c, 4, 50, 32
13, 302880, Note_on_c, 4, 58, 32
13, 302969, Note_on_c, 4, 50, 0
13, 302969, Note_on_c, 4, 58, 0
13, 303000, Note_on_c, 4, 53, 32
13, 303000, Note_on_c, 4, 60, 32
13, 303584, Note_on_c, 4, 53, 0
13, 303584, Note_on_c, 4, 60, 0
13, 303600, Note_on_c, 4, 58, 32
13, 303600, Note_on_c, 4, 62, 32
13, 303689, Note_on_c, 4, 58, 0
13, 303689, Note_on_c, 4, 62, 0
13, 303720, Note_on_c, 4, 58, 32
13, 303720, Note_on_c, 4, 62, 32
13, 304304, Note_on_c, 4, 58, 0
13, 304304, Note_on_c, 4, 62, 0
13, 304320, Note_on_c, 4, 63, 32
13, 304320, Note_on_c, 4, 60, 32
13, 304409, Note_on_c, 4, 63, 0
13, 304409, Note_on_c, 4, 60, 0
13, 304440, Note_on_c, 4, 65, 32
13, 304440, Note_on_c, 4, 62, 32
13, 305024, Note_on_c, 4, 65, 0
13, 305024, Note_on_c, 4, 62, 0
13, 305040, Note_on_c, 4, 62, 32
13, 305040, Note_on_c, 4, 65, 32
13, 305129, Note_on_c, 4, 62, 0
13, 305129, Note_on_c, 4, 65, 0
13, 305160, Note_on_c, 4, 60, 32
13, 305160, Note_on_c, 4, 63, 32
13, 305744, Note_on_c, 4, 60, 0
13, 305744, Note_on_c, 4, 63, 0
13, 305760, Note_on_c, 4, 58, 32
13, 305760, Note_on_c, 4, 62, 32
13, 305849, Note_on_c, 4, 58, 0
13, 305849, Note_on_c, 4, 62, 0
13, 305880, Note_on_c, 4, 60, 32
13, 305880, Note_on_c, 4, 53, 32
13, 306464, Note_on_c, 4, 60, 0
13, 306464, Note_on_c, 4, 53, 0
13, 306480, Note_on_c, 4, 50, 32
13, 306480, Note_on_c, 4, 58, 32
13, 306569, Note_on_c, 4, 50, 0
13, 306569, Note_on_c, 4, 58, 0
13, 306600, Note_on_c, 4, 50, 32
13, 306600, Note_on_c, 4, 58, 32
13, 307184, Note_on_c, 4, 50, 0
13, 307184, Note_on_c, 4, 58, 0
13, 307200, Note_on_c, 4, 60, 32
13, 307200, Note_on_c, 4, 53, 32
13, 307289, Note_on_c, 4, 60, 0
13, 307289, Note_on_c, 4, 53, 0
13, 307320, Note_on_c, 4, 62, 32
13, 307320, Note_on_c, 4, 58, 32
13, 307904, Note_on_c, 4, 62, 0
13, 307904, Note_on_c, 4, 58, 0
13, 307920, Note_on_c, 4, 60, 32
13, 307920, Note_on_c, 4, 53, 32
13, 308009, Note_on_c, 4, 60, 0
13, 308009, Note_on_c, 4, 53, 0
13, 308040, Note_on_c, 4, 60, 32
13, 308040, Note_on_c, 4, 53, 32
13, 308219, Note_on_c, 4, 60, 0
13, 308219, Note_on_c, 4, 53, 0
13, 308280, Note_on_c, 4, 50, 32
13, 308280, Note_on_c, 4, 58, 32
13, 308369, Note_on_c, 4, 50, 0
13, 308369, Note_on_c, 4, 58, 0
13, 308400, Note_on_c, 4, 58, 32
13, 308400, Note_on_c, 4, 50, 32
13, 308639, Note_on_c, 4, 58, 0
13, 308639, Note_on_c, 4, 50, 0
13, 309360, Note_on_c, 4, 53, 32
13, 309360, Note_on_c, 4, 60, 32
13, 309464, Note_on_c, 4, 53, 0
13, 309464, Note_on_c, 4, 60, 0
13, 309480, Note_on_c, 4, 60, 32
13, 309480, Note_on_c, 4, 53, 32
13, 310184, Note_on_c, 4, 60, 0
13, 310184, Note_on_c, 4, 53, 0
13, 310200, Note_on_c, 4, 62, 32
13, 310200, Note_on_c, 4, 58, 32
13, 310424, Note_on_c, 4, 62, 0
13, 310424, Note_on_c, 4, 58, 0
13, 310440, Note_on_c, 4, 58, 32
13, 310440, Note_on_c, 4, 50, 32
13, 310544, Note_on_c, 4, 58, 0
13, 310544, Note_on_c, 4, 50, 0
13, 310560, Note_on_c, 4, 60, 32
13, 310560, Note_on_c, 4, 53, 32
13, 310784, Note_on_c, 4, 60, 0
13, 310784, Note_on_c, 4, 53, 0
13, 310800, Note_on_c, 4, 53, 32
13, 310800, Note_on_c, 4, 60, 32
13, 310904, Note_on_c, 4, 53, 0
13, 310904, Note_on_c, 4, 60, 0
13, 310920, Note_on_c, 4, 53, 32
13, 310920, Note_on_c, 4, 60, 32
13, 311504, Note_on_c, 4, 53, 0
13, 311504, Note_on_c, 4, 60, 0
13, 311520, Note_on_c, 4, 63, 32
13, 311520, Note_on_c, 4, 60, 32
13, 311624, Note_on_c, 4, 63, 0
13, 311624, Note_on_c, 4, 60, 0
13, 311640, Note_on_c, 4, 62, 32
13, 311640, Note_on_c, 4, 58, 32
13, 311864, Note_on_c, 4, 62, 0
13, 311864, Note_on_c, 4, 58, 0
13, 311880, Note_on_c, 4, 58, 32
13, 311880, Note_on_c, 4, 50, 32
13, 311984, Note_on_c, 4, 58, 0
13, 311984, Note_on_c, 4, 50, 0
13, 312000, Note_on_c, 4, 53, 32
13, 312000, Note_on_c, 4, 60, 32
13, 312224, Note_on_c, 4, 53, 0
13, 312224, Note_on_c, 4, 60, 0
13, 312240, Note_on_c, 4, 60, 32
13, 312240, Note_on_c, 4, 63, 32
13, 312344, Note_on_c, 4, 60, 0
13, 312344, Note_on_c, 4, 63, 0
13, 312360, Note_on_c, 4, 58, 32
13, 312360, Note_on_c, 4, 62, 32
13, 312584, Note_on_c, 4, 58, 0
13, 312584, Note_on_c, 4, 62, 0
13, 312600, Note_on_c, 4, 58, 32
13, 312600, Note_on_c, 4, 50, 32
13, 312704, Note_on_c, 4, 58, 0
13, 312704, Note_on_c, 4, 50, 0
13, 312720, Note_on_c, 4, 60, 32
13, 312720, Note_on_c, 4, 53, 32
13, 312944, Note_on_c, 4, 60, 0
13, 312944, Note_on_c, 4, 53, 0
13, 312960, Note_on_c, 4, 63, 32
13, 312960, Note_on_c, 4, 60, 32
13, 313064, Note_on_c, 4, 63, 0
13, 313064, Note_on_c, 4, 60, 0
13, 313080, Note_on_c, 4, 62, 32
13, 313080, Note_on_c, 4, 58, 32
13, 313304, Note_on_c, 4, 62, 0
13, 313304, Note_on_c, 4, 58, 0
13, 313320, Note_on_c, 4, 53, 32
13, 313320, Note_on_c, 4, 60, 32
13, 313424, Note_on_c, 4, 53, 0
13, 313784, Note_on_c, 4, 60, 0
13, 313800, Note_on_c, 4, 60, 32
13, 314024, Note_on_c, 4, 60, 0
13, 314040, Note_on_c, 4, 60, 32
13, 314144, Note_on_c, 4, 60, 0
13, 314160, Note_on_c, 4, 53, 32
13, 314160, Note_on_c, 4, 65, 32
13, 314384, Note_on_c, 4, 53, 0
13, 314384, Note_on_c, 4, 65, 0
13, 314400, Note_on_c, 4, 53, 32
13, 314400, Note_on_c, 4, 65, 32
13, 314504, Note_on_c, 4, 53, 0
13, 314504, Note_on_c, 4, 65, 0
13, 314520, Note_on_c, 4, 65, 32
13, 314520, Note_on_c, 4, 53, 32
13, 314744, Note_on_c, 4, 65, 0
13, 314744, Note_on_c, 4, 53, 0
13, 314760, Note_on_c, 4, 65, 32
13, 314760, Note_on_c, 4, 53, 32
13, 314864, Note_on_c, 4, 65, 0
13, 314864, Note_on_c, 4, 53, 0
13, 314880, Note_on_c, 4, 53, 32
13, 314880, Note_on_c, 4, 65, 32
13, 315104, Note_on_c, 4, 53, 0
13, 315104, Note_on_c, 4, 65, 0
13, 315120, Note_on_c, 4, 46, 32
13, 315120, Note_on_c, 4, 58, 32
13, 315224, Note_on_c, 4, 46, 0
13, 315224, Note_on_c, 4, 58, 0
13, 315240, Note_on_c, 4, 58, 32
13, 315240, Note_on_c, 4, 46, 32
13, 315824, Note_on_c, 4, 58, 0
13, 315824, Note_on_c, 4, 46, 0
13, 315840, Note_on_c, 4, 46, 32
13, 315840, Note_on_c, 4, 58, 32
13, 315944, Note_on_c, 4, 46, 0
13, 315944, Note_on_c, 4, 58, 0
13, 315960, Note_on_c, 4, 46, 32
13, 315960, Note_on_c, 4, 58, 32
13, 316544, Note_on_c, 4, 46, 0
13, 316544, Note_on_c, 4, 58, 0
13, 316560, Note_on_c, 4, 58, 32
13, 316560, Note_on_c, 4, 46, 32
13, 316664, Note_on_c, 4, 58, 0
13, 316664, Note_on_c, 4, 46, 0
13, 316680, Note_on_c, 4, 58, 32
13, 316680, Note_on_c, 4, 46, 32
13, 317264, Note_on_c, 4, 58, 0
13, 317264, Note_on_c, 4, 46, 0
13, 317280, Note_on_c, 4, 58, 32
13, 317280, Note_on_c, 4, 46, 32
13, 317384, Note_on_c, 4, 58, 0
13, 317384, Note_on_c, 4, 46, 0
13, 317400, Note_on_c, 4, 46, 32
13, 317400, Note_on_c, 4, 58, 32
13, 317984, Note_on_c, 4, 46, 0
13, 317984, Note_on_c, 4, 58, 0
13, 318000, Note_on_c, 4, 58, 32
13, 318000, Note_on_c, 4, 50, 32
13, 318104, Note_on_c, 4, 58, 0
13, 318104, Note_on_c, 4, 50, 0
13, 318120, Note_on_c, 4, 58, 32
13, 318120, Note_on_c, 4, 50, 32
13, 318704, Note_on_c, 4, 58, 0
13, 318704, Note_on_c, 4, 50, 0
13, 318720, Note_on_c, 4, 53, 32
13, 318720, Note_on_c, 4, 60, 32
13, 318824, Note_on_c, 4, 53, 0
13, 318824, Note_on_c, 4, 60, 0
13, 318840, Note_on_c, 4, 58, 32
13, 318840, Note_on_c, 4, 62, 32
13, 319424, Note_on_c, 4, 58, 0
13, 319424, Note_on_c, 4, 62, 0
13, 319440, Note_on_c, 4, 60, 32
13, 319440, Note_on_c, 4, 53, 32
13, 319529, Note_on_c, 4, 60, 0
13, 319529, Note_on_c, 4, 53, 0
13, 319560, Note_on_c, 4, 53, 32
13, 319560, Note_on_c, 4, 60, 32
13, 319739, Note_on_c, 4, 53, 0
13, 319739, Note_on_c, 4, 60, 0
13, 319800, Note_on_c, 4, 58, 32
13, 319800, Note_on_c, 4, 50, 32
13, 319889, Note_on_c, 4, 58, 0
13, 319889, Note_on_c, 4, 50, 0
13, 319920, Note_on_c, 4, 50, 32
13, 319920, Note_on_c, 4, 58, 32
13, 320159, Note_on_c, 4, 50, 0
13, 320159, Note_on_c, 4, 58, 0
13, 320880, Note_on_c, 4, 58, 32
13, 320880, Note_on_c, 4, 62, 32
13, 320984, Note_on_c, 4, 58, 0
13, 320984, Note_on_c, 4, 62, 0
13, 321000, Note_on_c, 4, 62, 32
13, 321000, Note_on_c, 4, 58, 32
13, 321584, Note_on_c, 4, 62, 0
13, 321584, Note_on_c, 4, 58, 0
13, 321600, Note_on_c, 4, 63, 32
13, 321600, Note_on_c, 4, 60, 32
13, 321704, Note_on_c, 4, 63, 0
13, 321704, Note_on_c, 4, 60, 0
13, 321720, Note_on_c, 4, 65, 32
13, 321720, Note_on_c, 4, 62, 32
13, 322304, Note_on_c, 4, 65, 0
13, 322304, Note_on_c, 4, 62, 0
13, 322320, Note_on_c, 4, 62, 32
13, 322320, Note_on_c, 4, 65, 32
13, 322424, Note_on_c, 4, 62, 0
13, 322424, Note_on_c, 4, 65, 0
13, 322440, Note_on_c, 4, 60, 32
13, 322440, Note_on_c, 4, 63, 32
13, 323024, Note_on_c, 4, 60, 0
13, 323024, Note_on_c, 4, 63, 0
13, 323040, Note_on_c, 4, 58, 32
13, 323040, Note_on_c, 4, 62, 32
13, 323144, Note_on_c, 4, 58, 0
13, 323144, Note_on_c, 4, 62, 0
13, 323160, Note_on_c, 4, 53, 32
13, 323160, Note_on_c, 4, 60, 32
13, 323744, Note_on_c, 4, 53, 0
13, 323744, Note_on_c, 4, 60, 0
13, 323760, Note_on_c, 4, 50, 32
13, 323760, Note_on_c, 4, 58, 32
13, 323864, Note_on_c, 4, 50, 0
13, 323864, Note_on_c, 4, 58, 0
13, 323880, Note_on_c, 4, 50, 32
13, 323880, Note_on_c, 4, 58, 32
13, 324464, Note_on_c, 4, 50, 0
13, 324464, Note_on_c, 4, 58, 0
13, 324480, Note_on_c, 4, 53, 32
13, 324480, Note_on_c, 4, 60, 32
13, 324584, Note_on_c, 4, 53, 0
13, 324584, Note_on_c, 4, 60, 0
13, 324600, Note_on_c, 4, 58, 32
13, 324600, Note_on_c, 4, 62, 32
13, 325184, Note_on_c, 4, 58, 0
13, 325184, Note_on_c, 4, 62, 0
13, 325200, Note_on_c, 4, 62, 32
13, 325200, Note_on_c, 4, 58, 32
13, 325304, Note_on_c, 4, 62, 0
13, 325304, Note_on_c, 4, 58, 0
13, 325320, Note_on_c, 4, 60, 32
13, 325320, Note_on_c, 4, 53, 32
13, 325904, Note_on_c, 4, 60, 0
13, 325904, Note_on_c, 4, 53, 0
13, 325920, Note_on_c, 4, 50, 32
13, 325920, Note_on_c, 4, 58, 32
13, 326024, Note_on_c, 4, 50, 0
13, 326024, Note_on_c, 4, 58, 0
13, 326040, Note_on_c, 4, 60, 32
13, 326040, Note_on_c, 4, 53, 32
13, 326624, Note_on_c, 4, 60, 0
13, 326624, Note_on_c, 4, 53, 0
13, 326640, Note_on_c, 4, 58, 32
13, 326640, Note_on_c, 4, 62, 32
13, 326744, Note_on_c, 4, 58, 0
13, 326744, Note_on_c, 4, 62, 0
13, 326760, Note_on_c, 4, 62, 32
13, 326760, Note_on_c, 4, 58, 32
13, 327344, Note_on_c, 4, 62, 0
13, 327344, Note_on_c, 4, 58, 0
13, 327360, Note_on_c, 4, 63, 32
13, 327360, Note_on_c, 4, 60, 32
13, 327464, Note_on_c, 4, 63, 0
13, 327464, Note_on_c, 4, 60, 0
13, 327480, Note_on_c, 4, 65, 33
13, 327480, Note_on_c, 4, 62, 33
13, 328064, Note_on_c, 4, 65, 0
13, 328064, Note_on_c, 4, 62, 0
13, 328080, Note_on_c, 4, 62, 33
13, 328080, Note_on_c, 4, 65, 33
13, 328184, Note_on_c, 4, 62, 0
13, 328184, Note_on_c, 4, 65, 0
13, 328200, Note_on_c, 4, 60, 33
13, 328200, Note_on_c, 4, 63, 33
13, 328784, Note_on_c, 4, 60, 0
13, 328784, Note_on_c, 4, 63, 0
13, 328800, Note_on_c, 4, 58, 34
13, 328800, Note_on_c, 4, 62, 34
13, 328904, Note_on_c, 4, 58, 0
13, 328904, Note_on_c, 4, 62, 0
13, 328920, Note_on_c, 4, 53, 34
13, 328920, Note_on_c, 4, 60, 34
13, 329504, Note_on_c, 4, 53, 0
13, 329504, Note_on_c, 4, 60, 0
13, 329520, Note_on_c, 4, 50, 34
13, 329520, Note_on_c, 4, 58, 34
13, 329624, Note_on_c, 4, 50, 0
13, 329624, Note_on_c, 4, 58, 0
13, 329640, Note_on_c, 4, 50, 35
13, 329640, Note_on_c, 4, 58, 35
13, 330224, Note_on_c, 4, 50, 0
13, 330224, Note_on_c, 4, 58, 0
13, 330240, Note_on_c, 4, 60, 35
13, 330240, Note_on_c, 4, 53, 35
13, 330344, Note_on_c, 4, 60, 0
13, 330344, Note_on_c, 4, 53, 0
13, 330360, Note_on_c, 4, 58, 35
13, 330360, Note_on_c, 4, 62, 35
13, 330944, Note_on_c, 4, 58, 0
13, 330944, Note_on_c, 4, 62, 0
13, 330960, Note_on_c, 4, 60, 36
13, 330960, Note_on_c, 4, 53, 36
13, 331049, Note_on_c, 4, 60, 0
13, 331049, Note_on_c, 4, 53, 0
13, 331080, Note_on_c, 4, 60, 36
13, 331080, Note_on_c, 4, 53, 36
13, 331259, Note_on_c, 4, 60, 0
13, 331259, Note_on_c, 4, 53, 0
13, 331320, Note_on_c, 4, 50, 36
13, 331320, Note_on_c, 4, 58, 36
13, 331409, Note_on_c, 4, 50, 0
13, 331409, Note_on_c, 4, 58, 0
13, 331440, Note_on_c, 4, 50, 36
13, 331440, Note_on_c, 4, 58, 36
13, 331679, Note_on_c, 4, 50, 0
13, 331679, Note_on_c, 4, 58, 0
13, 332400, Note_on_c, 4, 53, 37
13, 332400, Note_on_c, 4, 60, 37
13, 332504, Note_on_c, 4, 53, 0
13, 332504, Note_on_c, 4, 60, 0
13, 332520, Note_on_c, 4, 53, 37
13, 332520, Note_on_c, 4, 60, 37
13, 333224, Note_on_c, 4, 53, 0
13, 333224, Note_on_c, 4, 60, 0
13, 333240, Note_on_c, 4, 58, 38
13, 333240, Note_on_c, 4, 62, 38
13, 333464, Note_on_c, 4, 58, 0
13, 333464, Note_on_c, 4, 62, 0
13, 333480, Note_on_c, 4, 58, 38
13, 333480, Note_on_c, 4, 50, 38
13, 333584, Note_on_c, 4, 58, 0
13, 333584, Note_on_c, 4, 50, 0
13, 333600, Note_on_c, 4, 60, 38
13, 333600, Note_on_c, 4, 53, 38
13, 333824, Note_on_c, 4, 60, 0
13, 333824, Note_on_c, 4, 53, 0
13, 333840, Note_on_c, 4, 60, 38
13, 333840, Note_on_c, 4, 53, 38
13, 333944, Note_on_c, 4, 60, 0
13, 333944, Note_on_c, 4, 53, 0
13, 333960, Note_on_c, 4, 60, 39
13, 333960, Note_on_c, 4, 53, 39
13, 334544, Note_on_c, 4, 60, 0
13, 334544, Note_on_c, 4, 53, 0
13, 334560, Note_on_c, 4, 60, 39
13, 334560, Note_on_c, 4, 63, 39
13, 334664, Note_on_c, 4, 60, 0
13, 334664, Note_on_c, 4, 63, 0
13, 334680, Note_on_c, 4, 62, 39
13, 334680, Note_on_c, 4, 58, 39
13, 334904, Note_on_c, 4, 62, 0
13, 334904, Note_on_c, 4, 58, 0
13, 334920, Note_on_c, 4, 50, 39
13, 334920, Note_on_c, 4, 58, 39
13, 335024, Note_on_c, 4, 50, 0
13, 335024, Note_on_c, 4, 58, 0
13, 335040, Note_on_c, 4, 60, 40
13, 335040, Note_on_c, 4, 53, 40
13, 335264, Note_on_c, 4, 60, 0
13, 335264, Note_on_c, 4, 53, 0
13, 335280, Note_on_c, 4, 60, 40
13, 335280, Note_on_c, 4, 63, 40
13, 335384, Note_on_c, 4, 60, 0
13, 335384, Note_on_c, 4, 63, 0
13, 335400, Note_on_c, 4, 62, 40
13, 335400, Note_on_c, 4, 58, 40
13, 335624, Note_on_c, 4, 62, 0
13, 335624, Note_on_c, 4, 58, 0
13, 335640, Note_on_c, 4, 50, 40
13, 335640, Note_on_c, 4, 58, 40
13, 335744, Note_on_c, 4, 50, 0
13, 335744, Note_on_c, 4, 58, 0
13, 335760, Note_on_c, 4, 60, 40
13, 335760, Note_on_c, 4, 53, 40
13, 335984, Note_on_c, 4, 60, 0
13, 335999, Note_on_c, 4, 53, 0
13, 336000, Note_on_c, 4, 63, 40
13, 336000, Note_on_c, 4, 60, 40
13, 336104, Note_on_c, 4, 63, 0
13, 336104, Note_on_c, 4, 60, 0
13, 336120, Note_on_c, 4, 58, 41
13, 336120, Note_on_c, 4, 62, 41
13, 336344, Note_on_c, 4, 58, 0
13, 336344, Note_on_c, 4, 62, 0
13, 336360, Note_on_c, 4, 53, 41
13, 336360, Note_on_c, 4, 60, 41
13, 336479, Note_on_c, 4, 53, 0
13, 336824, Note_on_c, 4, 60, 0
13, 336840, Note_on_c, 4, 60, 41
13, 337064, Note_on_c, 4, 60, 0
13, 337080, Note_on_c, 4, 60, 41
13, 337184, Note_on_c, 4, 60, 0
13, 337200, Note_on_c, 4, 53, 42
13, 337200, Note_on_c, 4, 65, 42
13, 337424, Note_on_c, 4, 53, 0
13, 337424, Note_on_c, 4, 65, 0
13, 337440, Note_on_c, 4, 65, 42
13, 337440, Note_on_c, 4, 53, 42
13, 337544, Note_on_c, 4, 65, 0
13, 337544, Note_on_c, 4, 53, 0
13, 337560, Note_on_c, 4, 65, 42
13, 337560, Note_on_c, 4, 53, 42
13, 337784, Note_on_c, 4, 65, 0
13, 337784, Note_on_c, 4, 53, 0
13, 337800, Note_on_c, 4, 53, 42
13, 337800, Note_on_c, 4, 65, 42
13, 337904, Note_on_c, 4, 53, 0
13, 337904, Note_on_c, 4, 65, 0
13, 337920, Note_on_c, 4, 53, 42
13, 337920, Note_on_c, 4, 65, 42
13, 338144, Note_on_c, 4, 53, 0
13, 338144, Note_on_c, 4, 65, 0
13, 338160, Note_on_c, 4, 58, 42
13, 338160, Note_on_c, 4, 46, 42
13, 338264, Note_on_c, 4, 58, 0
13, 338264, Note_on_c, 4, 46, 0
13, 338280, Note_on_c, 4, 58, 43
13, 338280, Note_on_c, 4, 46, 43
13, 338864, Note_on_c, 4, 58, 0
13, 338864, Note_on_c, 4, 46, 0
13, 338880, Note_on_c, 4, 58, 43
13, 338880, Note_on_c, 4, 46, 43
13, 338984, Note_on_c, 4, 58, 0
13, 338984, Note_on_c, 4, 46, 0
13, 339000, Note_on_c, 4, 46, 43
13, 339000, Note_on_c, 4, 58, 43
13, 339584, Note_on_c, 4, 46, 0
13, 339584, Note_on_c, 4, 58, 0
13, 339600, Note_on_c, 4, 46, 50
13, 339600, Note_on_c, 4, 58, 50
13, 339704, Note_on_c, 4, 46, 0
13, 339704, Note_on_c, 4, 58, 0
13, 339720, Note_on_c, 4, 58, 50
13, 339720, Note_on_c, 4, 46, 50
13, 340304, Note_on_c, 4, 58, 0
13, 340304, Note_on_c, 4, 46, 0
13, 340320, Note_on_c, 4, 46, 50
13, 340320, Note_on_c, 4, 58, 50
13, 340424, Note_on_c, 4, 46, 0
13, 340424, Note_on_c, 4, 58, 0
13, 340440, Note_on_c, 4, 46, 50
13, 340440, Note_on_c, 4, 58, 50
13, 341024, Note_on_c, 4, 46, 0
13, 341024, Note_on_c, 4, 58, 0
13, 341040, Note_on_c, 4, 50, 50
13, 341040, Note_on_c, 4, 58, 50
13, 341144, Note_on_c, 4, 50, 0
13, 341144, Note_on_c, 4, 58, 0
13, 341160, Note_on_c, 4, 58, 50
13, 341160, Note_on_c, 4, 50, 50
13, 341744, Note_on_c, 4, 58, 0
13, 341744, Note_on_c, 4, 50, 0
13, 341760, Note_on_c, 4, 60, 50
13, 341760, Note_on_c, 4, 53, 50
13, 341864, Note_on_c, 4, 60, 0
13, 341864, Note_on_c, 4, 53, 0
13, 341880, Note_on_c, 4, 58, 50
13, 341880, Note_on_c, 4, 62, 50
13, 342464, Note_on_c, 4, 58, 0
13, 342464, Note_on_c, 4, 62, 0
13, 342480, Note_on_c, 4, 53, 50
13, 342480, Note_on_c, 4, 60, 50
13, 342569, Note_on_c, 4, 53, 0
13, 342569, Note_on_c, 4, 60, 0
13, 342600, Note_on_c, 4, 53, 50
13, 342600, Note_on_c, 4, 60, 50
13, 342779, Note_on_c, 4, 53, 0
13, 342779, Note_on_c, 4, 60, 0
13, 342840, Note_on_c, 4, 50, 50
13, 342840, Note_on_c, 4, 58, 50
13, 342929, Note_on_c, 4, 50, 0
13, 342929, Note_on_c, 4, 58, 0
13, 342960, Note_on_c, 4, 50, 50
13, 342960, Note_on_c, 4, 58, 50
13, 343199, Note_on_c, 4, 50, 0
13, 343199, Note_on_c, 4, 58, 0
13, 343920, Note_on_c, 4, 53, 50
13, 343920, Note_on_c, 4, 60, 50
13, 344024, Note_on_c, 4, 53, 0
13, 344024, Note_on_c, 4, 60, 0
13, 344040, Note_on_c, 4, 60, 50
13, 344040, Note_on_c, 4, 53, 50
13, 344744, Note_on_c, 4, 60, 0
13, 344744, Note_on_c, 4, 53, 0
13, 344760, Note_on_c, 4, 62, 50
13, 344760, Note_on_c, 4, 58, 50
13, 344984, Note_on_c, 4, 62, 0
13, 344984, Note_on_c, 4, 58, 0
13, 345000, Note_on_c, 4, 58, 50
13, 345000, Note_on_c, 4, 50, 50
13, 345104, Note_on_c, 4, 58, 0
13, 345104, Note_on_c, 4, 50, 0
13, 345120, Note_on_c, 4, 60, 50
13, 345120, Note_on_c, 4, 53, 50
13, 345344, Note_on_c, 4, 60, 0
13, 345344, Note_on_c, 4, 53, 0
13, 345360, Note_on_c, 4, 60, 50
13, 345360, Note_on_c, 4, 53, 50
13, 345464, Note_on_c, 4, 60, 0
13, 345464, Note_on_c, 4, 53, 0
13, 345480, Note_on_c, 4, 60, 50
13, 345480, Note_on_c, 4, 53, 50
13, 346064, Note_on_c, 4, 60, 0
13, 346064, Note_on_c, 4, 53, 0
13, 346080, Note_on_c, 4, 60, 50
13, 346080, Note_on_c, 4, 63, 50
13, 346184, Note_on_c, 4, 60, 0
13, 346184, Note_on_c, 4, 63, 0
13, 346200, Note_on_c, 4, 62, 50
13, 346200, Note_on_c, 4, 58, 50
13, 346424, Note_on_c, 4, 62, 0
13, 346424, Note_on_c, 4, 58, 0
13, 346440, Note_on_c, 4, 58, 50
13, 346440, Note_on_c, 4, 50, 50
13, 346544, Note_on_c, 4, 58, 0
13, 346544, Note_on_c, 4, 50, 0
13, 346560, Note_on_c, 4, 53, 68
13, 346560, Note_on_c, 4, 60, 68
13, 346784, Note_on_c, 4, 53, 0
13, 346784, Note_on_c, 4, 60, 0
13, 346800, Note_on_c, 4, 63, 68
13, 346800, Note_on_c, 4, 60, 68
13, 346904, Note_on_c, 4, 63, 0
13, 346904, Note_on_c, 4, 60, 0
13, 346920, Note_on_c, 4, 58, 68
13, 346920, Note_on_c, 4, 62, 68
13, 347144, Note_on_c, 4, 58, 0
13, 347144, Note_on_c, 4, 62, 0
13, 347160, Note_on_c, 4, 58, 68
13, 347160, Note_on_c, 4, 50, 68
13, 347264, Note_on_c, 4, 58, 0
13, 347264, Note_on_c, 4, 50, 0
13, 347280, Note_on_c, 4, 53, 68
13, 347280, Note_on_c, 4, 60, 68
13, 347504, Note_on_c, 4, 53, 0
13, 347504, Note_on_c, 4, 60, 0
13, 347520, Note_on_c, 4, 60, 68
13, 347520, Note_on_c, 4, 63, 68
13, 347624, Note_on_c, 4, 60, 0
13, 347624, Note_on_c, 4, 63, 0
13, 347640, Note_on_c, 4, 58, 68
13, 347640, Note_on_c, 4, 62, 68
13, 347864, Note_on_c, 4, 58, 0
13, 347864, Note_on_c, 4, 62, 0
13, 347880, Note_on_c, 4, 60, 68
13, 347880, Note_on_c, 4, 53, 68
13, 347999, Note_on_c, 4, 53, 0
13, 348344, Note_on_c, 4, 60, 0
13, 348360, Note_on_c, 4, 60, 68
13, 348584, Note_on_c, 4, 60, 0
13, 348600, Note_on_c, 4, 60, 68
13, 348704, Note_on_c, 4, 60, 0
13, 348720, Note_on_c, 4, 65, 68
13, 348720, Note_on_c, 4, 53, 68
13, 348944, Note_on_c, 4, 65, 0
13, 348944, Note_on_c, 4, 53, 0
13, 348960, Note_on_c, 4, 53, 68
13, 348960, Note_on_c, 4, 65, 68
13, 349064, Note_on_c, 4, 53, 0
13, 349064, Note_on_c, 4, 65, 0
13, 349080, Note_on_c, 4, 53, 68
13, 349080, Note_on_c, 4, 65, 68
13, 349304, Note_on_c, 4, 53, 0
13, 349304, Note_on_c, 4, 65, 0
13, 349320, Note_on_c, 4, 65, 68
13, 349320, Note_on_c, 4, 53, 68
13, 349424, Note_on_c, 4, 65, 0
13, 349424, Note_on_c, 4, 53, 0
13, 349440, Note_on_c, 4, 65, 68
13, 349440, Note_on_c, 4, 53, 68
13, 349664, Note_on_c, 4, 65, 0
13, 349664, Note_on_c, 4, 53, 0
13, 349680, Note_on_c, 4, 58, 68
13, 349680, Note_on_c, 4, 46, 68
13, 349784, Note_on_c, 4, 58, 0
13, 349784, Note_on_c, 4, 46, 0
13, 349800, Note_on_c, 4, 58, 68
13, 349800, Note_on_c, 4, 46, 68
13, 350384, Note_on_c, 4, 58, 0
13, 350384, Note_on_c, 4, 46, 0
13, 350400, Note_on_c, 4, 46, 68
13, 350400, Note_on_c, 4, 58, 68
13, 350504, Note_on_c, 4, 46, 0
13, 350504, Note_on_c, 4, 58, 0
13, 350520, Note_on_c, 4, 46, 68
13, 350520, Note_on_c, 4, 58, 68
13, 351104, Note_on_c, 4, 46, 0
13, 351104, Note_on_c, 4, 58, 0
13, 351120, Note_on_c, 4, 58, 68
13, 351120, Note_on_c, 4, 46, 68
13, 351224, Note_on_c, 4, 58, 0
13, 351224, Note_on_c, 4, 46, 0
13, 351240, Note_on_c, 4, 58, 68
13, 351240, Note_on_c, 4, 46, 68
13, 351824, Note_on_c, 4, 58, 0
13, 351824, Note_on_c, 4, 46, 0
13, 351840, Note_on_c, 4, 58, 68
13, 351840, Note_on_c, 4, 46, 68
13, 351944, Note_on_c, 4, 58, 0
13, 351944, Note_on_c, 4, 46, 0
13, 351958, Control_c, 4, 11, 107
13, 351960, Note_on_c, 4, 58, 80
13, 351960, Note_on_c, 4, 46, 80
13, 352320, Control_c, 4, 11, 127
13, 352544, Note_on_c, 4, 58, 0
13, 352544, Note_on_c, 4, 46, 0
13, 352560, Note_on_c, 4, 58, 80
13, 352560, Note_on_c, 4, 50, 80
13, 352664, Note_on_c, 4, 58, 0
13, 352664, Note_on_c, 4, 50, 0
13, 352680, Note_on_c, 4, 50, 86
13, 352680, Note_on_c, 4, 58, 86
13, 353264, Note_on_c, 4, 50, 0
13, 353264, Note_on_c, 4, 58, 0
13, 353280, Note_on_c, 4, 60, 86
13, 353280, Note_on_c, 4, 53, 86
13, 353384, Note_on_c, 4, 60, 0
13, 353384, Note_on_c, 4, 53, 0
13, 353400, Note_on_c, 4, 62, 86
13, 353400, Note_on_c, 4, 58, 86
13, 353984, Note_on_c, 4, 62, 0
13, 353984, Note_on_c, 4, 58, 0
13, 354000, Note_on_c, 4, 53, 86
13, 354000, Note_on_c, 4, 60, 86
13, 354089, Note_on_c, 4, 53, 0
13, 354089, Note_on_c, 4, 60, 0
13, 354120, Note_on_c, 4, 53, 86
13, 354120, Note_on_c, 4, 60, 86
13, 354299, Note_on_c, 4, 53, 0
13, 354299, Note_on_c, 4, 60, 0
13, 354360, Note_on_c, 4, 50, 86
13, 354360, Note_on_c, 4, 58, 86
13, 354449, Note_on_c, 4, 50, 0
13, 354449, Note_on_c, 4, 58, 0
13, 354480, Note_on_c, 4, 50, 86
13, 354480, Note_on_c, 4, 58, 86
13, 354704, Note_on_c, 4, 50, 0
13, 354704, Note_on_c, 4, 58, 0
13, 354720, Note_on_c, 4, 65, 86
13, 354720, Note_on_c, 4, 53, 86
13, 354824, Note_on_c, 4, 65, 0
13, 354824, Note_on_c, 4, 53, 0
13, 354838, Control_c, 4, 11, 107
13, 354840, Note_on_c, 4, 65, 92
13, 354840, Note_on_c, 4, 53, 92
13, 355200, Control_c, 4, 11, 127
13, 355424, Note_on_c, 4, 65, 0
13, 355424, Note_on_c, 4, 53, 0
13, 355440, Note_on_c, 4, 63, 92
13, 355440, Note_on_c, 4, 60, 92
13, 355544, Note_on_c, 4, 63, 0
13, 355544, Note_on_c, 4, 60, 0
13, 355560, Note_on_c, 4, 58, 92
13, 355560, Note_on_c, 4, 62, 92
13, 356144, Note_on_c, 4, 58, 0
13, 356144, Note_on_c, 4, 62, 0
13, 356160, Note_on_c, 4, 46, 92
13, 356160, Note_on_c, 4, 58, 92
13, 356264, Note_on_c, 4, 46, 0
13, 356264, Note_on_c, 4, 58, 0
13, 356280, Note_on_c, 4, 46, 92
13, 356280, Note_on_c, 4, 58, 92
13, 356864, Note_on_c, 4, 46, 0
13, 356864, Note_on_c, 4, 58, 0
13, 356880, Note_on_c, 4, 63, 92
13, 356984, Note_on_c, 4, 63, 0
13, 357000, Note_on_c, 4, 63, 92
13, 357584, Note_on_c, 4, 63, 0
13, 357600, Note_on_c, 4, 63, 92
13, 357704, Note_on_c, 4, 63, 0
13, 357720, Note_on_c, 4, 63, 92
13, 358304, Note_on_c, 4, 63, 0
13, 358320, Note_on_c, 4, 60, 92
13, 358320, Note_on_c, 4, 53, 92
13, 358424, Note_on_c, 4, 60, 0
13, 358424, Note_on_c, 4, 53, 0
13, 358440, Note_on_c, 4, 53, 92
13, 358440, Note_on_c, 4, 60, 92
13, 359024, Note_on_c, 4, 53, 0
13, 359024, Note_on_c, 4, 60, 0
13, 359040, Note_on_c, 4, 53, 92
13, 359040, Note_on_c, 4, 60, 92
13, 359144, Note_on_c, 4, 53, 0
13, 359144, Note_on_c, 4, 60, 0
13, 359160, Note_on_c, 4, 53, 92
13, 359160, Note_on_c, 4, 60, 92
13, 359504, Note_on_c, 4, 53, 0
13, 359504, Note_on_c, 4, 60, 0
13, 359520, Note_on_c, 4, 58, 92
13, 359520, Note_on_c, 4, 50, 92
13, 359744, Note_on_c, 4, 58, 0
13, 359744, Note_on_c, 4, 50, 0
13, 359760, Note_on_c, 4, 58, 92
13, 359760, Note_on_c, 4, 62, 92
13, 359864, Note_on_c, 4, 58, 0
13, 359864, Note_on_c, 4, 62, 0
13, 359880, Note_on_c, 4, 60, 92
13, 359880, Note_on_c, 4, 53, 92
13, 360104, Note_on_c, 4, 60, 0
13, 360104, Note_on_c, 4, 53, 0
13, 360120, Note_on_c, 4, 60, 92
13, 360120, Note_on_c, 4, 53, 92
13, 360224, Note_on_c, 4, 60, 0
13, 360224, Note_on_c, 4, 53, 0
13, 360240, Note_on_c, 4, 50, 92
13, 360240, Note_on_c, 4, 58, 92
13, 360464, Note_on_c, 4, 50, 0
13, 360464, Note_on_c, 4, 58, 0
13, 360480, Note_on_c, 4, 58, 92
13, 360480, Note_on_c, 4, 62, 92
13, 360584, Note_on_c, 4, 58, 0
13, 360584, Note_on_c, 4, 62, 0
13, 360600, Note_on_c, 4, 58, 92
13, 360600, Note_on_c, 4, 62, 92
13, 360719, Note_on_c, 4, 58, 0
13, 360719, Note_on_c, 4, 62, 0
13, 360720, Note_on_c, 4, 53, 92
13, 360720, Note_on_c, 4, 60, 92
13, 360824, Note_on_c, 4, 53, 0
13, 360824, Note_on_c, 4, 60, 0
13, 360840, Note_on_c, 4, 53, 92
13, 360840, Note_on_c, 4, 60, 92
13, 360944, Note_on_c, 4, 53, 0
13, 360944, Note_on_c, 4, 60, 0
13, 360960, Note_on_c, 4, 50, 92
13, 360960, Note_on_c, 4, 58, 92
13, 361184, Note_on_c, 4, 50, 0
13, 361184, Note_on_c, 4, 58, 0
13, 361200, Note_on_c, 4, 58, 92
13, 361304, Note_on_c, 4, 58, 0
13, 361320, Note_on_c, 4, 58, 100
13, 361440, Control_c, 4, 11, 107
13, 361679, Note_on_c, 4, 58, 0
13, 361800, Control_c, 4, 11, 127
13, 361920, Note_on_c, 4, 60, 92
13, 362024, Note_on_c, 4, 60, 0
13, 362040, Note_on_c, 4, 60, 100
13, 362100, Control_c, 4, 11, 107
13, 362399, Note_on_c, 4, 60, 0
13, 362638, Control_c, 4, 11, 127
13, 362640, Note_on_c, 4, 62, 92
13, 362744, Note_on_c, 4, 62, 0
13, 362760, Note_on_c, 4, 62, 92
13, 362984, Note_on_c, 4, 62, 0
13, 363000, Note_on_c, 4, 65, 92
13, 363104, Note_on_c, 4, 65, 0
13, 363120, Note_on_c, 4, 63, 92
13, 363359, Note_on_c, 4, 63, 0
13, 363480, Note_on_c, 4, 62, 92
13, 363719, Note_on_c, 4, 62, 0
13, 363840, Note_on_c, 4, 60, 92
13, 364064, Note_on_c, 4, 60, 0
13, 364080, Note_on_c, 4, 41, 92
13, 364080, Note_on_c, 4, 53, 92
13, 364184, Note_on_c, 4, 41, 0
13, 364184, Note_on_c, 4, 53, 0
13, 364200, Note_on_c, 4, 53, 100
13, 364200, Note_on_c, 4, 41, 100
13, 364260, Control_c, 4, 11, 107
13, 364784, Note_on_c, 4, 53, 0
13, 364784, Note_on_c, 4, 41, 0
13, 364798, Control_c, 4, 11, 127
13, 364800, Note_on_c, 4, 53, 92
13, 364800, Note_on_c, 4, 41, 92
13, 364904, Note_on_c, 4, 53, 0
13, 364904, Note_on_c, 4, 41, 0
13, 364920, Note_on_c, 4, 41, 100
13, 364920, Note_on_c, 4, 53, 100
13, 364980, Control_c, 4, 11, 107
13, 365504, Note_on_c, 4, 41, 0
13, 365504, Note_on_c, 4, 53, 0
13, 365518, Control_c, 4, 11, 127
13, 365520, Note_on_c, 4, 53, 92
13, 365520, Note_on_c, 4, 41, 92
13, 365624, Note_on_c, 4, 53, 0
13, 365624, Note_on_c, 4, 41, 0
13, 365640, Note_on_c, 4, 41, 92
13, 365640, Note_on_c, 4, 53, 92
13, 365864, Note_on_c, 4, 41, 0
13, 365864, Note_on_c, 4, 53, 0
13, 365880, Note_on_c, 4, 41, 92
13, 365880, Note_on_c, 4, 53, 92
13, 365984, Note_on_c, 4, 41, 0
13, 365984, Note_on_c, 4, 53, 0
13, 366000, Note_on_c, 4, 60, 92
13, 366239, Note_on_c, 4, 60, 0
13, 366360, Note_on_c, 4, 60, 92
13, 366599, Note_on_c, 4, 60, 0
13, 366720, Note_on_c, 4, 58, 92
13, 366959, Note_on_c, 4, 58, 0
13, 367080, Note_on_c, 4, 58, 92
13, 367319, Note_on_c, 4, 58, 0
13, 367440, Note_on_c, 4, 60, 92
13, 367679, Note_on_c, 4, 60, 0
13, 367800, Note_on_c, 4, 62, 92
13, 367800, Note_on_c, 4, 50, 92
13, 368039, Note_on_c, 4, 62, 0
13, 368039, Note_on_c, 4, 50, 0
13, 376080, Note_on_c, 4, 62, 92
13, 376319, Note_on_c, 4, 62, 0
13, 376440, Note_on_c, 4, 60, 92
13, 376679, Note_on_c, 4, 60, 0
13, 377040, Note_on_c, 4, 65, 92
13, 377040, Note_on_c, 4, 58, 92
13, 377144, Note_on_c, 4, 65, 0
13, 377144, Note_on_c, 4, 58, 0
13, 377160, Note_on_c, 4, 65, 92
13, 377160, Note_on_c, 4, 58, 92
13, 377384, Note_on_c, 4, 65, 0
13, 377384, Note_on_c, 4, 58, 0
13, 377400, Note_on_c, 4, 58, 92
13, 377400, Note_on_c, 4, 65, 92
13, 377504, Note_on_c, 4, 58, 0
13, 377504, Note_on_c, 4, 65, 0
13, 377520, Note_on_c, 4, 58, 92
13, 377520, Note_on_c, 4, 63, 92
13, 377744, Note_on_c, 4, 58, 0
13, 377744, Note_on_c, 4, 63, 0
13, 377760, Note_on_c, 4, 58, 92
13, 377760, Note_on_c, 4, 46, 92
13, 377864, Note_on_c, 4, 58, 0
13, 377864, Note_on_c, 4, 46, 0
13, 377880, Note_on_c, 4, 58, 92
13, 377880, Note_on_c, 4, 46, 92
13, 378104, Note_on_c, 4, 58, 0
13, 378104, Note_on_c, 4, 46, 0
13, 378120, Note_on_c, 4, 46, 92
13, 378120, Note_on_c, 4, 58, 92
13, 378224, Note_on_c, 4, 46, 0
13, 378224, Note_on_c, 4, 58, 0
13, 378240, Note_on_c, 4, 46, 92
13, 378240, Note_on_c, 4, 58, 92
13, 378464, Note_on_c, 4, 46, 0
13, 378464, Note_on_c, 4, 58, 0
13, 378480, Note_on_c, 4, 46, 92
13, 378480, Note_on_c, 4, 58, 92
13, 378584, Note_on_c, 4, 46, 0
13, 378584, Note_on_c, 4, 58, 0
13, 378600, Note_on_c, 4, 46, 100
13, 378600, Note_on_c, 4, 58, 100
13, 378660, Control_c, 4, 11, 107
13, 379184, Note_on_c, 4, 46, 0
13, 379184, Note_on_c, 4, 58, 0
13, 379198, Control_c, 4, 11, 127
13, 379200, Note_on_c, 4, 46, 92
13, 379200, Note_on_c, 4, 58, 92
13, 379304, Note_on_c, 4, 46, 0
13, 379304, Note_on_c, 4, 58, 0
13, 379320, Note_on_c, 4, 46, 100
13, 379320, Note_on_c, 4, 58, 100
13, 379380, Control_c, 4, 11, 107
13, 379904, Note_on_c, 4, 46, 0
13, 379904, Note_on_c, 4, 58, 0
13, 379918, Control_c, 4, 11, 127
13, 379920, Note_on_c, 4, 58, 92
13, 379920, Note_on_c, 4, 46, 92
13, 380024, Note_on_c, 4, 58, 0
13, 380024, Note_on_c, 4, 46, 0
13, 380040, Note_on_c, 4, 46, 92
13, 380040, Note_on_c, 4, 58, 92
13, 380264, Note_on_c, 4, 46, 0
13, 380264, Note_on_c, 4, 58, 0
13, 380280, Note_on_c, 4, 58, 92
13, 380280, Note_on_c, 4, 46, 92
13, 380384, Note_on_c, 4, 58, 0
13, 380384, Note_on_c, 4, 46, 0
13, 380400, Note_on_c, 4, 41, 92
13, 380400, Note_on_c, 4, 53, 92
13, 380504, Note_on_c, 4, 41, 0
13, 380504, Note_on_c, 4, 53, 0
13, 380520, Note_on_c, 4, 60, 92
13, 380624, Note_on_c, 4, 60, 0
13, 380640, Note_on_c, 4, 60, 92
13, 380744, Note_on_c, 4, 60, 0
13, 380760, Note_on_c, 4, 60, 92
13, 380984, Note_on_c, 4, 60, 0
13, 381000, Note_on_c, 4, 60, 92
13, 381104, Note_on_c, 4, 60, 0
13, 381120, Note_on_c, 4, 60, 92
13, 381344, Note_on_c, 4, 60, 0
13, 381360, Note_on_c, 4, 53, 92
13, 381360, Note_on_c, 4, 65, 92
13, 381464, Note_on_c, 4, 53, 0
13, 381464, Note_on_c, 4, 65, 0
13, 381480, Note_on_c, 4, 53, 92
13, 381480, Note_on_c, 4, 65, 92
13, 381704, Note_on_c, 4, 53, 0
13, 381704, Note_on_c, 4, 65, 0
13, 381720, Note_on_c, 4, 53, 92
13, 381720, Note_on_c, 4, 65, 92
13, 381824, Note_on_c, 4, 53, 0
13, 381824, Note_on_c, 4, 65, 0
13, 381840, Note_on_c, 4, 65, 92
13, 381840, Note_on_c, 4, 53, 92
13, 382064, Note_on_c, 4, 65, 0
13, 382064, Note_on_c, 4, 53, 0
13, 382080, Note_on_c, 4, 65, 92
13, 382080, Note_on_c, 4, 53, 92
13, 382184, Note_on_c, 4, 65, 0
13, 382184, Note_on_c, 4, 53, 0
13, 382200, Note_on_c, 4, 65, 92
13, 382200, Note_on_c, 4, 53, 92
13, 382424, Note_on_c, 4, 65, 0
13, 382424, Note_on_c, 4, 53, 0
13, 382440, Note_on_c, 4, 53, 92
13, 382440, Note_on_c, 4, 65, 92
13, 382544, Note_on_c, 4, 53, 0
13, 382544, Note_on_c, 4, 65, 0
13, 382560, Note_on_c, 4, 65, 92
13, 382560, Note_on_c, 4, 53, 92
13, 382664, Note_on_c, 4, 65, 0
13, 382664, Note_on_c, 4, 53, 0
13, 382680, Note_on_c, 4, 58, 92
13, 382784, Note_on_c, 4, 58, 0
13, 382800, Note_on_c, 4, 58, 92
13, 382904, Note_on_c, 4, 58, 0
13, 382920, Note_on_c, 4, 63, 92
13, 383144, Note_on_c, 4, 63, 0
13, 383160, Note_on_c, 4, 63, 92
13, 383264, Note_on_c, 4, 63, 0
13, 383280, Note_on_c, 4, 63, 92
13, 383504, Note_on_c, 4, 63, 0
13, 383520, Note_on_c, 4, 63, 92
13, 383624, Note_on_c, 4, 63, 0
13, 383640, Note_on_c, 4, 63, 92
13, 383864, Note_on_c, 4, 63, 0
13, 383880, Note_on_c, 4, 63, 92
13, 383984, Note_on_c, 4, 63, 0
13, 384000, Note_on_c, 4, 63, 92
13, 384224, Note_on_c, 4, 63, 0
13, 384240, Note_on_c, 4, 63, 92
13, 384344, Note_on_c, 4, 63, 0
13, 384360, Note_on_c, 4, 63, 92
13, 384479, Note_on_c, 4, 63, 0
13, 384960, Note_on_c, 4, 63, 92
13, 385064, Note_on_c, 4, 63, 0
13, 385080, Note_on_c, 4, 63, 92
13, 385199, Note_on_c, 4, 63, 0
13, 385440, Note_on_c, 4, 53, 92
13, 385440, Note_on_c, 4, 65, 92
13, 385544, Note_on_c, 4, 53, 0
13, 385544, Note_on_c, 4, 65, 0
13, 385560, Note_on_c, 4, 53, 92
13, 385560, Note_on_c, 4, 65, 92
13, 385664, Note_on_c, 4, 53, 0
13, 385664, Note_on_c, 4, 65, 0
13, 385680, Note_on_c, 4, 53, 92
13, 385680, Note_on_c, 4, 65, 92
13, 385784, Note_on_c, 4, 53, 0
13, 385784, Note_on_c, 4, 65, 0
13, 385800, Note_on_c, 4, 65, 92
13, 385800, Note_on_c, 4, 53, 92
13, 386039, Note_on_c, 4, 65, 0
13, 386039, Note_on_c, 4, 53, 0
13, 386160, Note_on_c, 4, 53, 92
13, 386160, Note_on_c, 4, 65, 92
13, 386264, Note_on_c, 4, 53, 0
13, 386264, Note_on_c, 4, 65, 0
13, 386280, Note_on_c, 4, 65, 92
13, 386280, Note_on_c, 4, 53, 92
13, 386384, Note_on_c, 4, 65, 0
13, 386384, Note_on_c, 4, 53, 0
13, 386400, Note_on_c, 4, 65, 92
13, 386400, Note_on_c, 4, 53, 92
13, 386504, Note_on_c, 4, 65, 0
13, 386504, Note_on_c, 4, 53, 0
13, 386520, Note_on_c, 4, 53, 92
13, 386520, Note_on_c, 4, 65, 92
13, 386759, Note_on_c, 4, 53, 0
13, 386759, Note_on_c, 4, 65, 0
13, 386880, Note_on_c, 4, 63, 92
13, 386984, Note_on_c, 4, 63, 0
13, 387000, Note_on_c, 4, 63, 92
13, 387104, Note_on_c, 4, 63, 0
13, 387120, Note_on_c, 4, 63, 92
13, 387224, Note_on_c, 4, 63, 0
13, 387240, Note_on_c, 4, 63, 92
13, 387479, Note_on_c, 4, 63, 0
13, 387600, Note_on_c, 4, 63, 92
13, 387704, Note_on_c, 4, 63, 0
13, 387720, Note_on_c, 4, 63, 92
13, 387824, Note_on_c, 4, 63, 0
13, 387840, Note_on_c, 4, 63, 92
13, 387944, Note_on_c, 4, 63, 0
13, 387960, Note_on_c, 4, 53, 92
13, 387960, Note_on_c, 4, 60, 92
13, 388064, Note_on_c, 4, 53, 0
13, 388064, Note_on_c, 4, 60, 0
13, 388080, Note_on_c, 4, 60, 92
13, 388080, Note_on_c, 4, 53, 92
13, 388184, Note_on_c, 4, 60, 0
13, 388184, Note_on_c, 4, 53, 0
13, 388200, Note_on_c, 4, 53, 92
13, 388200, Note_on_c, 4, 60, 92
13, 388304, Note_on_c, 4, 53, 0
13, 388304, Note_on_c, 4, 60, 0
13, 388320, Note_on_c, 4, 58, 92
13, 388320, Note_on_c, 4, 46, 92
13, 388544, Note_on_c, 4, 58, 0
13, 388544, Note_on_c, 4, 46, 0
13, 388560, Note_on_c, 4, 58, 92
13, 388560, Note_on_c, 4, 46, 92
13, 388664, Note_on_c, 4, 58, 0
13, 388664, Note_on_c, 4, 46, 0
13, 388680, Note_on_c, 4, 58, 100
13, 388680, Note_on_c, 4, 46, 100
13, 388740, Control_c, 4, 11, 107
13, 389264, Note_on_c, 4, 58, 0
13, 389264, Note_on_c, 4, 46, 0
13, 389278, Control_c, 4, 11, 127
13, 389280, Note_on_c, 4, 65, 92
13, 389280, Note_on_c, 4, 53, 92
13, 389384, Note_on_c, 4, 65, 0
13, 389384, Note_on_c, 4, 53, 0
13, 389400, Note_on_c, 4, 53, 100
13, 389400, Note_on_c, 4, 65, 100
13, 389460, Control_c, 4, 11, 107
13, 389984, Note_on_c, 4, 53, 0
13, 389984, Note_on_c, 4, 65, 0
13, 389998, Control_c, 4, 11, 127
13, 390000, Note_on_c, 4, 58, 92
13, 390000, Note_on_c, 4, 46, 92
13, 390104, Note_on_c, 4, 58, 0
13, 390104, Note_on_c, 4, 46, 0
13, 390120, Note_on_c, 4, 46, 92
13, 390120, Note_on_c, 4, 58, 92
13, 390344, Note_on_c, 4, 46, 0
13, 390344, Note_on_c, 4, 58, 0
13, 390360, Note_on_c, 4, 46, 92
13, 390360, Note_on_c, 4, 58, 92
13, 390464, Note_on_c, 4, 46, 0
13, 390464, Note_on_c, 4, 58, 0
13, 390480, Note_on_c, 4, 63, 92
13, 390719, Note_on_c, 4, 63, 0
13, 391200, Note_on_c, 4, 53, 92
13, 391200, Note_on_c, 4, 41, 92
13, 391439, Note_on_c, 4, 53, 0
13, 391439, Note_on_c, 4, 41, 0
13, 391920, Note_on_c, 4, 58, 92
13, 391920, Note_on_c, 4, 46, 92
13, 392159, Note_on_c, 4, 58, 0
13, 392159, Note_on_c, 4, 46, 0
13, 393000, Note_on_c, 4, 65, 92
13, 393000, Note_on_c, 4, 53, 92
13, 393239, Note_on_c, 4, 65, 0
13, 393239, Note_on_c, 4, 53, 0
13, 393360, Note_on_c, 4, 46, 92
13, 393360, Note_on_c, 4, 58, 92
13, 393464, Note_on_c, 4, 46, 0
13, 393464, Note_on_c, 4, 58, 0
13, 393480, Note_on_c, 4, 58, 92
13, 393480, Note_on_c, 4, 46, 92
13, 393584, Note_on_c, 4, 58, 0
13, 393584, Note_on_c, 4, 46, 0
13, 393600, Note_on_c, 4, 46, 92
13, 393600, Note_on_c, 4, 58, 92
13, 393704, Note_on_c, 4, 46, 0
13, 393704, Note_on_c, 4, 58, 0
13, 393720, Note_on_c, 4, 58, 92
13, 393720, Note_on_c, 4, 46, 92
13, 393824, Note_on_c, 4, 58, 0
13, 393824, Note_on_c, 4, 46, 0
13, 393840, Note_on_c, 4, 46, 92
13, 393840, Note_on_c, 4, 58, 92
13, 393944, Note_on_c, 4, 46, 0
13, 393944, Note_on_c, 4, 58, 0
13, 393960, Note_on_c, 4, 58, 92
13, 393960, Note_on_c, 4, 46, 92
13, 394064, Note_on_c, 4, 58, 0
13, 394064, Note_on_c, 4, 46, 0
13, 394080, Note_on_c, 4, 46, 92
13, 394080, Note_on_c, 4, 58, 92
13, 394319, Note_on_c, 4, 46, 0
13, 394319, Note_on_c, 4, 58, 0
13, 394440, Note_on_c, 4, 58, 92
13, 394440, Note_on_c, 4, 46, 92
13, 394544, Note_on_c, 4, 58, 0
13, 394544, Note_on_c, 4, 46, 0
13, 394560, Note_on_c, 4, 58, 92
13, 394560, Note_on_c, 4, 46, 92
13, 394664, Note_on_c, 4, 58, 0
13, 394664, Note_on_c, 4, 46, 0
13, 394680, Note_on_c, 4, 46, 92
13, 394680, Note_on_c, 4, 58, 92
13, 394784, Note_on_c, 4, 46, 0
13, 394784, Note_on_c, 4, 58, 0
13, 394800, Note_on_c, 4, 58, 92
13, 394800, Note_on_c, 4, 46, 92
13, 395039, Note_on_c, 4, 58, 0
13, 395039, Note_on_c, 4, 46, 0
13, 395880, Note_on_c, 4, 58, 92
13, 395880, Note_on_c, 4, 46, 92
13, 395984, Note_on_c, 4, 58, 0
13, 395984, Note_on_c, 4, 46, 0
13, 396000, Note_on_c, 4, 46, 92
13, 396000, Note_on_c, 4, 58, 92
13, 396104, Note_on_c, 4, 46, 0
13, 396104, Note_on_c, 4, 58, 0
13, 396120, Note_on_c, 4, 58, 92
13, 396120, Note_on_c, 4, 46, 92
13, 396224, Note_on_c, 4, 58, 0
13, 396224, Note_on_c, 4, 46, 0
13, 396240, Note_on_c, 4, 46, 92
13, 396240, Note_on_c, 4, 58, 92
13, 396344, Note_on_c, 4, 46, 0
13, 396344, Note_on_c, 4, 58, 0
13, 396360, Note_on_c, 4, 46, 92
13, 396360, Note_on_c, 4, 58, 92
13, 396464, Note_on_c, 4, 46, 0
13, 396464, Note_on_c, 4, 58, 0
13, 396480, Note_on_c, 4, 46, 92
13, 396480, Note_on_c, 4, 58, 92
13, 396584, Note_on_c, 4, 46, 0
13, 396584, Note_on_c, 4, 58, 0
13, 396600, Note_on_c, 4, 46, 92
13, 396600, Note_on_c, 4, 58, 92
13, 396704, Note_on_c, 4, 46, 0
13, 396704, Note_on_c, 4, 58, 0
13, 396720, Note_on_c, 4, 58, 92
13, 396720, Note_on_c, 4, 46, 92
13, 396824, Note_on_c, 4, 58, 0
13, 396824, Note_on_c, 4, 46, 0
13, 396840, Note_on_c, 4, 46, 92
13, 396840, Note_on_c, 4, 58, 92
13, 396944, Note_on_c, 4, 46, 0
13, 396944, Note_on_c, 4, 58, 0
13, 396960, Note_on_c, 4, 46, 92
13, 396960, Note_on_c, 4, 58, 92
13, 397064, Note_on_c, 4, 46, 0
13, 397064, Note_on_c, 4, 58, 0
13, 397080, Note_on_c, 4, 58, 92
13, 397080, Note_on_c, 4, 46, 92
13, 397184, Note_on_c, 4, 58, 0
13, 397184, Note_on_c, 4, 46, 0
13, 397200, Note_on_c, 4, 46, 92
13, 397200, Note_on_c, 4, 58, 92
13, 397304, Note_on_c, 4, 46, 0
13, 397304, Note_on_c, 4, 58, 0
13, 397320, Note_on_c, 4, 46, 92
13, 397320, Note_on_c, 4, 58, 92
13, 397559, Note_on_c, 4, 46, 0
13, 397559, Note_on_c, 4, 58, 0
13, 400560, Note_on_c, 4, 58, 92
13, 400560, Note_on_c, 4, 46, 92
13, 400664, Note_on_c, 4, 58, 0
13, 400664, Note_on_c, 4, 46, 0
13, 400680, Note_on_c, 4, 46, 92
13, 400680, Note_on_c, 4, 58, 92
13, 400784, Note_on_c, 4, 46, 0
13, 400784, Note_on_c, 4, 58, 0
13, 400800, Note_on_c, 4, 58, 92
13, 400800, Note_on_c, 4, 46, 92
13, 400904, Note_on_c, 4, 58, 0
13, 400904, Note_on_c, 4, 46, 0
13, 400920, Note_on_c, 4, 58, 92
13, 400920, Note_on_c, 4, 46, 92
13, 401024, Note_on_c, 4, 58, 0
13, 401024, Note_on_c, 4, 46, 0
13, 401040, Note_on_c, 4, 58, 92
13, 401040, Note_on_c, 4, 46, 92
13, 401144, Note_on_c, 4, 58, 0
13, 401144, Note_on_c, 4, 46, 0
13, 401160, Note_on_c, 4, 46, 92
13, 401160, Note_on_c, 4, 58, 92
13, 401264, Note_on_c, 4, 46, 0
13, 401264, Note_on_c, 4, 58, 0
13, 401280, Note_on_c, 4, 46, 92
13, 401280, Note_on_c, 4, 58, 92
13, 401384, Note_on_c, 4, 46, 0
13, 401384, Note_on_c, 4, 58, 0
13, 401400, Note_on_c, 4, 58, 92
13, 401400, Note_on_c, 4, 46, 92
13, 401504, Note_on_c, 4, 58, 0
13, 401504, Note_on_c, 4, 46, 0
13, 401520, Note_on_c, 4, 46, 92
13, 401520, Note_on_c, 4, 58, 92
13, 401624, Note_on_c, 4, 46, 0
13, 401624, Note_on_c, 4, 58, 0
13, 401640, Note_on_c, 4, 58, 92
13, 401640, Note_on_c, 4, 46, 92
13, 401744, Note_on_c, 4, 58, 0
13, 401744, Note_on_c, 4, 46, 0
13, 401760, Note_on_c, 4, 58, 92
13, 401760, Note_on_c, 4, 46, 92
13, 401864, Note_on_c, 4, 58, 0
13, 401864, Note_on_c, 4, 46, 0
13, 401880, Note_on_c, 4, 46, 92
13, 401880, Note_on_c, 4, 58, 92
13, 401984, Note_on_c, 4, 46, 0
13, 401984, Note_on_c, 4, 58, 0
13, 402000, Note_on_c, 4, 58, 92
13, 402000, Note_on_c, 4, 46, 92
13, 402104, Note_on_c, 4, 58, 0
13, 402104, Note_on_c, 4, 46, 0
13, 402120, Note_on_c, 4, 46, 92
13, 402120, Note_on_c, 4, 58, 92
13, 402224, Note_on_c, 4, 46, 0
13, 402224, Note_on_c, 4, 58, 0
13, 402240, Note_on_c, 4, 46, 92
13, 402240, Note_on_c, 4, 58, 92
13, 402344, Note_on_c, 4, 46, 0
13, 402344, Note_on_c, 4, 58, 0
13, 402360, Note_on_c, 4, 46, 92
13, 402360, Note_on_c, 4, 58, 92
13, 402464, Note_on_c, 4, 46, 0
13, 402464, Note_on_c, 4, 58, 0
13, 402480, Note_on_c, 4, 58, 92
13, 402480, Note_on_c, 4, 46, 92
13, 402584, Note_on_c, 4, 58, 0
13, 402584, Note_on_c, 4, 46, 0
13, 402600, Note_on_c, 4, 46, 92
13, 402600, Note_on_c, 4, 58, 92
13, 402704, Note_on_c, 4, 46, 0
13, 402704, Note_on_c, 4, 58, 0
13, 402720, Note_on_c, 4, 46, 92
13, 402720, Note_on_c, 4, 58, 92
13, 402824, Note_on_c, 4, 46, 0
13, 402824, Note_on_c, 4, 58, 0
13, 402840, Note_on_c, 4, 46, 92
13, 402840, Note_on_c, 4, 58, 92
13, 402944, Note_on_c, 4, 46, 0
13, 402944, Note_on_c, 4, 58, 0
13, 402960, Note_on_c, 4, 58, 92
13, 402960, Note_on_c, 4, 46, 92
13, 403064, Note_on_c, 4, 58, 0
13, 403064, Note_on_c, 4, 46, 0
13, 403080, Note_on_c, 4, 46, 92
13, 403080, Note_on_c, 4, 58, 92
13, 403184, Note_on_c, 4, 46, 0
13, 403184, Note_on_c, 4, 58, 0
13, 403200, Note_on_c, 4, 46, 92
13, 403200, Note_on_c, 4, 58, 92
13, 403304, Note_on_c, 4, 46, 0
13, 403304, Note_on_c, 4, 58, 0
13, 403320, Note_on_c, 4, 46, 92
13, 403320, Note_on_c, 4, 58, 92
13, 403424, Note_on_c, 4, 46, 0
13, 403424, Note_on_c, 4, 58, 0
13, 403440, Note_on_c, 4, 58, 92
13, 403440, Note_on_c, 4, 46, 92
13, 403544, Note_on_c, 4, 58, 0
13, 403544, Note_on_c, 4, 46, 0
13, 403560, Note_on_c, 4, 58, 92
13, 403560, Note_on_c, 4, 46, 92
13, 403664, Note_on_c, 4, 58, 0
13, 403664, Note_on_c, 4, 46, 0
13, 403680, Note_on_c, 4, 58, 92
13, 403680, Note_on_c, 4, 46, 92
13, 403784, Note_on_c, 4, 58, 0
13, 403784, Note_on_c, 4, 46, 0
13, 403800, Note_on_c, 4, 58, 92
13, 403800, Note_on_c, 4, 46, 92
13, 403904, Note_on_c, 4, 58, 0
13, 403904, Note_on_c, 4, 46, 0
13, 403920, Note_on_c, 4, 58, 92
13, 403920, Note_on_c, 4, 46, 92
13, 404024, Note_on_c, 4, 58, 0
13, 404024, Note_on_c, 4, 46, 0
13, 404040, Note_on_c, 4, 46, 92
13, 404040, Note_on_c, 4, 58, 92
13, 404144, Note_on_c, 4, 46, 0
13, 404144, Note_on_c, 4, 58, 0
13, 404160, Note_on_c, 4, 62, 92
13, 404160, Note_on_c, 4, 50, 92
13, 404399, Note_on_c, 4, 62, 0
13, 404399, Note_on_c, 4, 50, 0
13, 660480, Marker_t, "Horns in D"
13, 661920, Note_on_c, 4, 66, 92
13, 662379, Note_on_c, 4, 66, 0
13, 662400, Note_on_c, 4, 66, 92
13, 662619, Note_on_c, 4, 66, 0
13, 662640, Note_on_c, 4, 67, 92
13, 663099, Note_on_c, 4, 67, 0
13, 663120, Note_on_c, 4, 69, 92
13, 663339, Note_on_c, 4, 69, 0
13, 663360, Note_on_c, 4, 69, 92
13, 663819, Note_on_c, 4, 69, 0
13, 663840, Note_on_c, 4, 67, 92
13, 664059, Note_on_c, 4, 67, 0
13, 664080, Note_on_c, 4, 66, 92
13, 664539, Note_on_c, 4, 66, 0
13, 664560, Note_on_c, 4, 64, 92
13, 664779, Note_on_c, 4, 64, 0
13, 664800, Note_on_c, 4, 62, 92
13, 665259, Note_on_c, 4, 62, 0
13, 665280, Note_on_c, 4, 62, 92
13, 665499, Note_on_c, 4, 62, 0
13, 665520, Note_on_c, 4, 64, 92
13, 665979, Note_on_c, 4, 64, 0
13, 666000, Note_on_c, 4, 66, 92
13, 666219, Note_on_c, 4, 66, 0
13, 666240, Note_on_c, 4, 66, 92
13, 666699, Note_on_c, 4, 66, 0
13, 666720, Note_on_c, 4, 64, 92
13, 666939, Note_on_c, 4, 64, 0
13, 666960, Note_on_c, 4, 62, 92
13, 667419, Note_on_c, 4, 62, 0
13, 667440, Note_on_c, 4, 60, 92
13, 667659, Note_on_c, 4, 60, 0
13, 667680, Note_on_c, 4, 59, 92
13, 668139, Note_on_c, 4, 59, 0
13, 668160, Note_on_c, 4, 50, 92
13, 668160, Note_on_c, 4, 62, 92
13, 668379, Note_on_c, 4, 50, 0
13, 668379, Note_on_c, 4, 62, 0
13, 668400, Note_on_c, 4, 62, 92
13, 668400, Note_on_c, 4, 50, 92
13, 668859, Note_on_c, 4, 62, 0
13, 668859, Note_on_c, 4, 50, 0
13, 668880, Note_on_c, 4, 62, 92
13, 668880, Note_on_c, 4, 50, 92
13, 669099, Note_on_c, 4, 62, 0
13, 669099, Note_on_c, 4, 50, 0
13, 669120, Note_on_c, 4, 62, 92
13, 669120, Note_on_c, 4, 50, 92
13, 669579, Note_on_c, 4, 62, 0
13, 669579, Note_on_c, 4, 50, 0
13, 669600, Note_on_c, 4, 66, 92
13, 669819, Note_on_c, 4, 66, 0
13, 669840, Note_on_c, 4, 67, 92
13, 670299, Note_on_c, 4, 67, 0
13, 670320, Note_on_c, 4, 69, 92
13, 670539, Note_on_c, 4, 69, 0
13, 670560, Note_on_c, 4, 67, 92
13, 671019, Note_on_c, 4, 67, 0
13, 671040, Note_on_c, 4, 66, 92
13, 671259, Note_on_c, 4, 66, 0
13, 671280, Note_on_c, 4, 67, 92
13, 671739, Note_on_c, 4, 67, 0
13, 671760, Note_on_c, 4, 69, 92
13, 671979, Note_on_c, 4, 69, 0
13, 672000, Note_on_c, 4, 67, 92
13, 672459, Note_on_c, 4, 67, 0
13, 672480, Note_on_c, 4, 66, 92
13, 672699, Note_on_c, 4, 66, 0
13, 672720, Note_on_c, 4, 67, 92
13, 673419, Note_on_c, 4, 67, 0
13, 673440, Note_on_c, 4, 67, 92
13, 674139, Note_on_c, 4, 67, 0
13, 674160, Note_on_c, 4, 67, 92
13, 674859, Note_on_c, 4, 67, 0
13, 674880, Note_on_c, 4, 66, 92
13, 676319, Note_on_c, 4, 66, 0
13, 746880, Note_on_c, 4, 45, 80
13, 746880, Note_on_c, 4, 57, 80
13, 752639, Note_on_c, 4, 45, 0
13, 752639, Note_on_c, 4, 57, 0
13, 752640, Note_on_c, 4, 45, 80
13, 752640, Note_on_c, 4, 57, 80
13, 757419, Note_on_c, 4, 45, 0
13, 757419, Note_on_c, 4, 57, 0
13, 757440, Note_on_c, 4, 45, 80
13, 757440, Note_on_c, 4, 57, 80
13, 757899, Note_on_c, 4, 45, 0
13, 757899, Note_on_c, 4, 57, 0
13, 757920, Note_on_c, 4, 57, 80
13, 757920, Note_on_c, 4, 45, 80
13, 758379, Note_on_c, 4, 57, 0
13, 758379, Note_on_c, 4, 45, 0
13, 758400, Note_on_c, 4, 57, 80
13, 758400, Note_on_c, 4, 45, 80
13, 758859, Note_on_c, 4, 57, 0
13, 758859, Note_on_c, 4, 45, 0
13, 758880, Note_on_c, 4, 57, 80
13, 758880, Note_on_c, 4, 45, 80
13, 759339, Note_on_c, 4, 57, 0
13, 759339, Note_on_c, 4, 45, 0
13, 759360, Note_on_c, 4, 57, 80
13, 759360, Note_on_c, 4, 45, 80
13, 759819, Note_on_c, 4, 57, 0
13, 759819, Note_on_c, 4, 45, 0
13, 759840, Note_on_c, 4, 57, 80
13, 759840, Note_on_c, 4, 45, 80
13, 760299, Note_on_c, 4, 57, 0
13, 760299, Note_on_c, 4, 45, 0
13, 760320, Note_on_c, 4, 57, 80
13, 760320, Note_on_c, 4, 45, 80
13, 760539, Note_on_c, 4, 57, 0
13, 760539, Note_on_c, 4, 45, 0
13, 760560, Note_on_c, 4, 69, 80
13, 760560, Note_on_c, 4, 57, 80
13, 760779, Note_on_c, 4, 69, 0
13, 760779, Note_on_c, 4, 57, 0
13, 760800, Note_on_c, 4, 57, 92
13, 760800, Note_on_c, 4, 69, 92
13, 761019, Note_on_c, 4, 57, 0
13, 761019, Note_on_c, 4, 69, 0
13, 761040, Note_on_c, 4, 57, 80
13, 761040, Note_on_c, 4, 69, 80
13, 761259, Note_on_c, 4, 57, 0
13, 761259, Note_on_c, 4, 69, 0
13, 761280, Note_on_c, 4, 69, 80
13, 761280, Note_on_c, 4, 57, 80
13, 761499, Note_on_c, 4, 69, 0
13, 761499, Note_on_c, 4, 57, 0
13, 761520, Note_on_c, 4, 69, 80
13, 761520, Note_on_c, 4, 57, 80
13, 761739, Note_on_c, 4, 69, 0
13, 761739, Note_on_c, 4, 57, 0
13, 761760, Note_on_c, 4, 69, 80
13, 761760, Note_on_c, 4, 57, 80
13, 761979, Note_on_c, 4, 69, 0
13, 761979, Note_on_c, 4, 57, 0
13, 762000, Note_on_c, 4, 57, 80
13, 762000, Note_on_c, 4, 69, 80
13, 762219, Note_on_c, 4, 57, 0
13, 762219, Note_on_c, 4, 69, 0
13, 762240, Note_on_c, 4, 69, 80
13, 762240, Note_on_c, 4, 57, 80
13, 762459, Note_on_c, 4, 69, 0
13, 762459, Note_on_c, 4, 57, 0
13, 762480, Note_on_c, 4, 57, 80
13, 762480, Note_on_c, 4, 69, 80
13, 762699, Note_on_c, 4, 57, 0
13, 762699, Note_on_c, 4, 69, 0
13, 762720, Note_on_c, 4, 57, 80
13, 762720, Note_on_c, 4, 69, 80
13, 762939, Note_on_c, 4, 57, 0
13, 762939, Note_on_c, 4, 69, 0
13, 762960, Note_on_c, 4, 69, 92
13, 762960, Note_on_c, 4, 57, 92
13, 763179, Note_on_c, 4, 69, 0
13, 763179, Note_on_c, 4, 57, 0
13, 763200, Note_on_c, 4, 57, 80
13, 763200, Note_on_c, 4, 69, 80
13, 763419, Note_on_c, 4, 57, 0
13, 763419, Note_on_c, 4, 69, 0
13, 763440, Note_on_c, 4, 69, 80
13, 763440, Note_on_c, 4, 57, 80
13, 763659, Note_on_c, 4, 69, 0
13, 763659, Note_on_c, 4, 57, 0
13, 763680, Note_on_c, 4, 69, 80
13, 763680, Note_on_c, 4, 57, 80
13, 763899, Note_on_c, 4, 69, 0
13, 763899, Note_on_c, 4, 57, 0
13, 763920, Note_on_c, 4, 57, 80
13, 763920, Note_on_c, 4, 69, 80
13, 764139, Note_on_c, 4, 57, 0
13, 764139, Note_on_c, 4, 69, 0
13, 764160, Note_on_c, 4, 69, 80
13, 764160, Note_on_c, 4, 57, 80
13, 764379, Note_on_c, 4, 69, 0
13, 764379, Note_on_c, 4, 57, 0
13, 764400, Note_on_c, 4, 69, 80
13, 764400, Note_on_c, 4, 57, 80
13, 764619, Note_on_c, 4, 69, 0
13, 764619, Note_on_c, 4, 57, 0
13, 764640, Note_on_c, 4, 64, 80
13, 764640, Note_on_c, 4, 67, 80
13, 765339, Note_on_c, 4, 64, 0
13, 765339, Note_on_c, 4, 67, 0
13, 765360, Note_on_c, 4, 62, 92
13, 765360, Note_on_c, 4, 66, 92
13, 765939, Note_on_c, 4, 62, 0
13, 765939, Note_on_c, 4, 66, 0
13, 765960, Note_on_c, 4, 66, 92
13, 765960, Note_on_c, 4, 62, 92
13, 766059, Note_on_c, 4, 66, 0
13, 766059, Note_on_c, 4, 62, 0
13, 766080, Note_on_c, 4, 66, 80
13, 766080, Note_on_c, 4, 62, 80
13, 766299, Note_on_c, 4, 66, 0
13, 766299, Note_on_c, 4, 62, 0
13, 766320, Note_on_c, 4, 50, 80
13, 766320, Note_on_c, 4, 62, 80
13, 766539, Note_on_c, 4, 50, 0
13, 766539, Note_on_c, 4, 62, 0
13, 766560, Note_on_c, 4, 62, 80
13, 766560, Note_on_c, 4, 50, 80
13, 766899, Note_on_c, 4, 62, 0
13, 766899, Note_on_c, 4, 50, 0
13, 766920, Note_on_c, 4, 50, 80
13, 766920, Note_on_c, 4, 62, 80
13, 767019, Note_on_c, 4, 50, 0
13, 767019, Note_on_c, 4, 62, 0
13, 767040, Note_on_c, 4, 50, 80
13, 767040, Note_on_c, 4, 62, 80
13, 767259, Note_on_c, 4, 50, 0
13, 767259, Note_on_c, 4, 62, 0
13, 767280, Note_on_c, 4, 62, 80
13, 767280, Note_on_c, 4, 50, 80
13, 767499, Note_on_c, 4, 62, 0
13, 767499, Note_on_c, 4, 50, 0
13, 767520, Note_on_c, 4, 67, 80
13, 767859, Note_on_c, 4, 67, 0
13, 767880, Note_on_c, 4, 67, 80
13, 767979, Note_on_c, 4, 67, 0
13, 768000, Note_on_c, 4, 67, 80
13, 768219, Note_on_c, 4, 67, 0
13, 768240, Note_on_c, 4, 67, 80
13, 768240, Note_on_c, 4, 64, 80
13, 768459, Note_on_c, 4, 67, 0
13, 768459, Note_on_c, 4, 64, 0
13, 768480, Note_on_c, 4, 67, 80
13, 768480, Note_on_c, 4, 64, 80
13, 768819, Note_on_c, 4, 67, 0
13, 768819, Note_on_c, 4, 64, 0
13, 768840, Note_on_c, 4, 64, 80
13, 768840, Note_on_c, 4, 67, 80
13, 768939, Note_on_c, 4, 64, 0
13, 768939, Note_on_c, 4, 67, 0
13, 768960, Note_on_c, 4, 67, 80
13, 768960, Note_on_c, 4, 64, 80
13, 769199, Note_on_c, 4, 67, 0
13, 769199, Note_on_c, 4, 64, 0
13, 772080, Note_on_c, 4, 62, 44
13, 772080, Note_on_c, 4, 50, 44
13, 772319, Note_on_c, 4, 62, 0
13, 772319, Note_on_c, 4, 50, 0
13, 772560, Note_on_c, 4, 45, 44
13, 772560, Note_on_c, 4, 57, 44
13, 772784, Note_on_c, 4, 45, 0
13, 772784, Note_on_c, 4, 57, 0
13, 772800, Note_on_c, 4, 57, 44
13, 772800, Note_on_c, 4, 64, 44
13, 772979, Note_on_c, 4, 57, 0
13, 772979, Note_on_c, 4, 64, 0
13, 773040, Note_on_c, 4, 64, 44
13, 773040, Note_on_c, 4, 57, 44
13, 773219, Note_on_c, 4, 64, 0
13, 773219, Note_on_c, 4, 57, 0
13, 773280, Note_on_c, 4, 54, 44
13, 773280, Note_on_c, 4, 62, 44
13, 773519, Note_on_c, 4, 54, 0
13, 773519, Note_on_c, 4, 62, 0
13, 773520, Note_on_c, 4, 64, 44
13, 773520, Note_on_c, 4, 57, 44
13, 773639, Note_on_c, 4, 64, 0
13, 773639, Note_on_c, 4, 57, 0
13, 773640, Note_on_c, 4, 62, 44
13, 773640, Note_on_c, 4, 66, 44
13, 773739, Note_on_c, 4, 62, 0
13, 773739, Note_on_c, 4, 66, 0
13, 773760, Note_on_c, 4, 67, 44
13, 773760, Note_on_c, 4, 64, 44
13, 773939, Note_on_c, 4, 67, 0
13, 773939, Note_on_c, 4, 64, 0
13, 774000, Note_on_c, 4, 67, 44
13, 774000, Note_on_c, 4, 64, 44
13, 774179, Note_on_c, 4, 67, 0
13, 774179, Note_on_c, 4, 64, 0
13, 774240, Note_on_c, 4, 62, 44
13, 774240, Note_on_c, 4, 66, 44
13, 774419, Note_on_c, 4, 62, 0
13, 774419, Note_on_c, 4, 66, 0
13, 774480, Note_on_c, 4, 66, 44
13, 774480, Note_on_c, 4, 62, 44
13, 774659, Note_on_c, 4, 66, 0
13, 774659, Note_on_c, 4, 62, 0
13, 774720, Note_on_c, 4, 66, 44
13, 774720, Note_on_c, 4, 62, 44
13, 774959, Note_on_c, 4, 66, 0
13, 774959, Note_on_c, 4, 62, 0
13, 774960, Note_on_c, 4, 64, 44
13, 774960, Note_on_c, 4, 57, 44
13, 775179, Note_on_c, 4, 64, 0
13, 775179, Note_on_c, 4, 57, 0
13, 775200, Note_on_c, 4, 54, 44
13, 775200, Note_on_c, 4, 62, 44
13, 775439, Note_on_c, 4, 54, 0
13, 775439, Note_on_c, 4, 62, 0
13, 775440, Note_on_c, 4, 69, 44
13, 775440, Note_on_c, 4, 62, 44
13, 775659, Note_on_c, 4, 69, 0
13, 775659, Note_on_c, 4, 62, 0
13, 775680, Note_on_c, 4, 66, 44
13, 775680, Note_on_c, 4, 69, 44
13, 775919, Note_on_c, 4, 66, 0
13, 775919, Note_on_c, 4, 69, 0
13, 775920, Note_on_c, 4, 64, 44
13, 775920, Note_on_c, 4, 67, 44
13, 776139, Note_on_c, 4, 64, 0
13, 776139, Note_on_c, 4, 67, 0
13, 776160, Note_on_c, 4, 67, 44
13, 776160, Note_on_c, 4, 64, 44
13, 776399, Note_on_c, 4, 67, 0
13, 776399, Note_on_c, 4, 64, 0
13, 776400, Note_on_c, 4, 66, 44
13, 776400, Note_on_c, 4, 62, 44
13, 776619, Note_on_c, 4, 66, 0
13, 776619, Note_on_c, 4, 62, 0
13, 776640, Note_on_c, 4, 57, 44
13, 776640, Note_on_c, 4, 64, 44
13, 776859, Note_on_c, 4, 57, 0
13, 776859, Note_on_c, 4, 64, 0
13, 776880, Note_on_c, 4, 64, 46
13, 776880, Note_on_c, 4, 57, 46
13, 777119, Note_on_c, 4, 64, 0
13, 777119, Note_on_c, 4, 57, 0
13, 777120, Note_on_c, 4, 54, 48
13, 777120, Note_on_c, 4, 62, 48
13, 777359, Note_on_c, 4, 54, 0
13, 777359, Note_on_c, 4, 62, 0
13, 777360, Note_on_c, 4, 64, 50
13, 777360, Note_on_c, 4, 57, 50
13, 777479, Note_on_c, 4, 64, 0
13, 777479, Note_on_c, 4, 57, 0
13, 777480, Note_on_c, 4, 66, 51
13, 777480, Note_on_c, 4, 62, 51
13, 777579, Note_on_c, 4, 66, 0
13, 777579, Note_on_c, 4, 62, 0
13, 777600, Note_on_c, 4, 64, 53
13, 777600, Note_on_c, 4, 67, 53
13, 777819, Note_on_c, 4, 64, 0
13, 777819, Note_on_c, 4, 67, 0
13, 777840, Note_on_c, 4, 67, 55
13, 777840, Note_on_c, 4, 64, 55
13, 778059, Note_on_c, 4, 67, 0
13, 778059, Note_on_c, 4, 64, 0
13, 778080, Note_on_c, 4, 66, 57
13, 778080, Note_on_c, 4, 62, 57
13, 778299, Note_on_c, 4, 66, 0
13, 778299, Note_on_c, 4, 62, 0
13, 778320, Note_on_c, 4, 62, 59
13, 778320, Note_on_c, 4, 66, 59
13, 778539, Note_on_c, 4, 62, 0
13, 778539, Note_on_c, 4, 66, 0
13, 778560, Note_on_c, 4, 66, 62
13, 778560, Note_on_c, 4, 62, 62
13, 778799, Note_on_c, 4, 66, 0
13, 778799, Note_on_c, 4, 62, 0
13, 778800, Note_on_c, 4, 64, 64
13, 778800, Note_on_c, 4, 57, 64
13, 779019, Note_on_c, 4, 64, 0
13, 779019, Note_on_c, 4, 57, 0
13, 779040, Note_on_c, 4, 54, 66
13, 779040, Note_on_c, 4, 62, 66
13, 779279, Note_on_c, 4, 54, 0
13, 779279, Note_on_c, 4, 62, 0
13, 779280, Note_on_c, 4, 69, 68
13, 779280, Note_on_c, 4, 57, 68
13, 779499, Note_on_c, 4, 69, 0
13, 779499, Note_on_c, 4, 57, 0
13, 779520, Note_on_c, 4, 66, 71
13, 779520, Note_on_c, 4, 69, 71
13, 779759, Note_on_c, 4, 66, 0
13, 779759, Note_on_c, 4, 69, 0
13, 779760, Note_on_c, 4, 64, 73
13, 779760, Note_on_c, 4, 67, 73
13, 779979, Note_on_c, 4, 64, 0
13, 779979, Note_on_c, 4, 67, 0
13, 780000, Note_on_c, 4, 64, 75
13, 780000, Note_on_c, 4, 67, 75
13, 780239, Note_on_c, 4, 64, 0
13, 780239, Note_on_c, 4, 67, 0
13, 780240, Note_on_c, 4, 66, 77
13, 780240, Note_on_c, 4, 62, 77
13, 780459, Note_on_c, 4, 66, 0
13, 780459, Note_on_c, 4, 62, 0
13, 780480, Note_on_c, 4, 64, 80
13, 780480, Note_on_c, 4, 57, 80
13, 780659, Note_on_c, 4, 64, 0
13, 780659, Note_on_c, 4, 57, 0
13, 780720, Note_on_c, 4, 57, 80
13, 780720, Note_on_c, 4, 69, 80
13, 780899, Note_on_c, 4, 57, 0
13, 780899, Note_on_c, 4, 69, 0
13, 780960, Note_on_c, 4, 57, 80
13, 780960, Note_on_c, 4, 69, 80
13, 781139, Note_on_c, 4, 57, 0
13, 781139, Note_on_c, 4, 69, 0
13, 781200, Note_on_c, 4, 69, 80
13, 781200, Note_on_c, 4, 57, 80
13, 781379, Note_on_c, 4, 69, 0
13, 781379, Note_on_c, 4, 57, 0
13, 781440, Note_on_c, 4, 69, 80
13, 781440, Note_on_c, 4, 57, 80
13, 781659, Note_on_c, 4, 69, 0
13, 781659, Note_on_c, 4, 57, 0
13, 781680, Note_on_c, 4, 57, 80
13, 781680, Note_on_c, 4, 69, 80
13, 781899, Note_on_c, 4, 57, 0
13, 781899, Note_on_c, 4, 69, 0
13, 781920, Note_on_c, 4, 69, 80
13, 781920, Note_on_c, 4, 57, 80
13, 782139, Note_on_c, 4, 69, 0
13, 782139, Note_on_c, 4, 57, 0
13, 782160, Note_on_c, 4, 69, 80
13, 782160, Note_on_c, 4, 57, 80
13, 782379, Note_on_c, 4, 69, 0
13, 782379, Note_on_c, 4, 57, 0
13, 782400, Note_on_c, 4, 57, 80
13, 782400, Note_on_c, 4, 69, 80
13, 782619, Note_on_c, 4, 57, 0
13, 782619, Note_on_c, 4, 69, 0
13, 782640, Note_on_c, 4, 69, 80
13, 782640, Note_on_c, 4, 57, 80
13, 782859, Note_on_c, 4, 69, 0
13, 782859, Note_on_c, 4, 57, 0
13, 782880, Note_on_c, 4, 69, 80
13, 782880, Note_on_c, 4, 57, 80
13, 783099, Note_on_c, 4, 69, 0
13, 783099, Note_on_c, 4, 57, 0
13, 783120, Note_on_c, 4, 57, 92
13, 783120, Note_on_c, 4, 69, 92
13, 783339, Note_on_c, 4, 57, 0
13, 783339, Note_on_c, 4, 69, 0
13, 783360, Note_on_c, 4, 69, 80
13, 783360, Note_on_c, 4, 57, 80
13, 783579, Note_on_c, 4, 69, 0
13, 783579, Note_on_c, 4, 57, 0
13, 783600, Note_on_c, 4, 57, 80
13, 783600, Note_on_c, 4, 69, 80
13, 783819, Note_on_c, 4, 57, 0
13, 783819, Note_on_c, 4, 69, 0
13, 783840, Note_on_c, 4, 69, 80
13, 783840, Note_on_c, 4, 57, 80
13, 784059, Note_on_c, 4, 69, 0
13, 784059, Note_on_c, 4, 57, 0
13, 784080, Note_on_c, 4, 57, 80
13, 784080, Note_on_c, 4, 69, 80
13, 784299, Note_on_c, 4, 57, 0
13, 784299, Note_on_c, 4, 69, 0
13, 784320, Note_on_c, 4, 57, 80
13, 784320, Note_on_c, 4, 69, 80
13, 784539, Note_on_c, 4, 57, 0
13, 784539, Note_on_c, 4, 69, 0
13, 784560, Note_on_c, 4, 57, 80
13, 784560, Note_on_c, 4, 69, 80
13, 784779, Note_on_c, 4, 57, 0
13, 784779, Note_on_c, 4, 69, 0
13, 784800, Note_on_c, 4, 64, 80
13, 784800, Note_on_c, 4, 67, 80
13, 785499, Note_on_c, 4, 64, 0
13, 785499, Note_on_c, 4, 67, 0
13, 785520, Note_on_c, 4, 62, 92
13, 785520, Note_on_c, 4, 66, 92
13, 786099, Note_on_c, 4, 62, 0
13, 786099, Note_on_c, 4, 66, 0
13, 786120, Note_on_c, 4, 62, 92
13, 786120, Note_on_c, 4, 66, 92
13, 786219, Note_on_c, 4, 62, 0
13, 786219, Note_on_c, 4, 66, 0
13, 786240, Note_on_c, 4, 66, 80
13, 786240, Note_on_c, 4, 62, 80
13, 786459, Note_on_c, 4, 66, 0
13, 786459, Note_on_c, 4, 62, 0
13, 786480, Note_on_c, 4, 50, 80
13, 786480, Note_on_c, 4, 62, 80
13, 786699, Note_on_c, 4, 50, 0
13, 786699, Note_on_c, 4, 62, 0
13, 786720, Note_on_c, 4, 62, 80
13, 786720, Note_on_c, 4, 50, 80
13, 787059, Note_on_c, 4, 62, 0
13, 787059, Note_on_c, 4, 50, 0
13, 787080, Note_on_c, 4, 50, 80
13, 787080, Note_on_c, 4, 62, 80
13, 787179, Note_on_c, 4, 50, 0
13, 787179, Note_on_c, 4, 62, 0
13, 787200, Note_on_c, 4, 62, 80
13, 787200, Note_on_c, 4, 50, 80
13, 787419, Note_on_c, 4, 62, 0
13, 787419, Note_on_c, 4, 50, 0
13, 787440, Note_on_c, 4, 50, 80
13, 787440, Note_on_c, 4, 62, 80
13, 787659, Note_on_c, 4, 50, 0
13, 787659, Note_on_c, 4, 62, 0
13, 787680, Note_on_c, 4, 67, 80
13, 788019, Note_on_c, 4, 67, 0
13, 788040, Note_on_c, 4, 67, 80
13, 788139, Note_on_c, 4, 67, 0
13, 788160, Note_on_c, 4, 67, 80
13, 788379, Note_on_c, 4, 67, 0
13, 788400, Note_on_c, 4, 67, 80
13, 788400, Note_on_c, 4, 64, 80
13, 788619, Note_on_c, 4, 67, 0
13, 788619, Note_on_c, 4, 64, 0
13, 788640, Note_on_c, 4, 64, 80
13, 788640, Note_on_c, 4, 67, 80
13, 788879, Note_on_c, 4, 64, 0
13, 788879, Note_on_c, 4, 67, 0
13, 789600, Note_on_c, 4, 64, 80
13, 789839, Note_on_c, 4, 64, 0
13, 806640, Note_on_c, 4, 45, 65
13, 806640, Note_on_c, 4, 57, 65
13, 806859, Note_on_c, 4, 45, 0
13, 806859, Note_on_c, 4, 57, 0
13, 806880, Note_on_c, 4, 57, 69
13, 806880, Note_on_c, 4, 45, 69
13, 807099, Note_on_c, 4, 57, 0
13, 807099, Note_on_c, 4, 45, 0
13, 807120, Note_on_c, 4, 45, 73
13, 807120, Note_on_c, 4, 57, 73
13, 807339, Note_on_c, 4, 45, 0
13, 807339, Note_on_c, 4, 57, 0
13, 807360, Note_on_c, 4, 45, 77
13, 807360, Note_on_c, 4, 57, 77
13, 807579, Note_on_c, 4, 45, 0
13, 807579, Note_on_c, 4, 57, 0
13, 807600, Note_on_c, 4, 57, 80
13, 807600, Note_on_c, 4, 45, 80
13, 807819, Note_on_c, 4, 57, 0
13, 807819, Note_on_c, 4, 45, 0
13, 807840, Note_on_c, 4, 57, 84
13, 807840, Note_on_c, 4, 45, 84
13, 808059, Note_on_c, 4, 57, 0
13, 808059, Note_on_c, 4, 45, 0
13, 808080, Note_on_c, 4, 57, 88
13, 808080, Note_on_c, 4, 45, 88
13, 808179, Note_on_c, 4, 57, 0
13, 808179, Note_on_c, 4, 45, 0
13, 808200, Note_on_c, 4, 57, 90
13, 808200, Note_on_c, 4, 45, 90
13, 808299, Note_on_c, 4, 57, 0
13, 808299, Note_on_c, 4, 45, 0
13, 808320, Note_on_c, 4, 62, 92
13, 808320, Note_on_c, 4, 50, 92
13, 808529, Note_on_c, 4, 62, 0
13, 808529, Note_on_c, 4, 50, 0
13, 808560, Note_on_c, 4, 50, 92
13, 808560, Note_on_c, 4, 62, 92
13, 808769, Note_on_c, 4, 50, 0
13, 808769, Note_on_c, 4, 62, 0
13, 808800, Note_on_c, 4, 69, 92
13, 808800, Note_on_c, 4, 57, 92
13, 809009, Note_on_c, 4, 69, 0
13, 809009, Note_on_c, 4, 57, 0
13, 809040, Note_on_c, 4, 57, 92
13, 809040, Note_on_c, 4, 69, 92
13, 809249, Note_on_c, 4, 57, 0
13, 809249, Note_on_c, 4, 69, 0
13, 809280, Note_on_c, 4, 64, 92
13, 809489, Note_on_c, 4, 64, 0
13, 809520, Note_on_c, 4, 64, 92
13, 809759, Note_on_c, 4, 64, 0
13, 810240, Note_on_c, 4, 64, 92
13, 810449, Note_on_c, 4, 64, 0
13, 810480, Note_on_c, 4, 64, 92
13, 810689, Note_on_c, 4, 64, 0
13, 810720, Note_on_c, 4, 64, 92
13, 810929, Note_on_c, 4, 64, 0
13, 810960, Note_on_c, 4, 64, 92
13, 811169, Note_on_c, 4, 64, 0
13, 811200, Note_on_c, 4, 64, 92
13, 811200, Note_on_c, 4, 57, 92
13, 811409, Note_on_c, 4, 64, 0
13, 811409, Note_on_c, 4, 57, 0
13, 811440, Note_on_c, 4, 64, 92
13, 811649, Note_on_c, 4, 64, 0
13, 811680, Note_on_c, 4, 57, 92
13, 811889, Note_on_c, 4, 57, 0
13, 811920, Note_on_c, 4, 57, 92
13, 811920, Note_on_c, 4, 69, 92
13, 812129, Note_on_c, 4, 57, 0
13, 812129, Note_on_c, 4, 69, 0
13, 812160, Note_on_c, 4, 50, 92
13, 812160, Note_on_c, 4, 62, 92
13, 812339, Note_on_c, 4, 50, 0
13, 812339, Note_on_c, 4, 62, 0
13, 812400, Note_on_c, 4, 50, 92
13, 812400, Note_on_c, 4, 62, 92
13, 812579, Note_on_c, 4, 50, 0
13, 812579, Note_on_c, 4, 62, 0
13, 812640, Note_on_c, 4, 69, 92
13, 812640, Note_on_c, 4, 57, 92
13, 812819, Note_on_c, 4, 69, 0
13, 812819, Note_on_c, 4, 57, 0
13, 812880, Note_on_c, 4, 57, 92
13, 812880, Note_on_c, 4, 69, 92
13, 813059, Note_on_c, 4, 57, 0
13, 813059, Note_on_c, 4, 69, 0
13, 813120, Note_on_c, 4, 64, 92
13, 813299, Note_on_c, 4, 64, 0
13, 813360, Note_on_c, 4, 64, 92
13, 813539, Note_on_c, 4, 64, 0
13, 814080, Note_on_c, 4, 64, 92
13, 814259, Note_on_c, 4, 64, 0
13, 814320, Note_on_c, 4, 64, 92
13, 814499, Note_on_c, 4, 64, 0
13, 814560, Note_on_c, 4, 64, 92
13, 814739, Note_on_c, 4, 64, 0
13, 814800, Note_on_c, 4, 64, 92
13, 814979, Note_on_c, 4, 64, 0
13, 815040, Note_on_c, 4, 57, 92
13, 815040, Note_on_c, 4, 64, 92
13, 815219, Note_on_c, 4, 57, 0
13, 815219, Note_on_c, 4, 64, 0
13, 815280, Note_on_c, 4, 64, 92
13, 815459, Note_on_c, 4, 64, 0
13, 815520, Note_on_c, 4, 57, 92
13, 815699, Note_on_c, 4, 57, 0
13, 816000, Note_on_c, 4, 67, 92
13, 816179, Note_on_c, 4, 67, 0
13, 816240, Note_on_c, 4, 64, 92
13, 816419, Note_on_c, 4, 64, 0
13, 816480, Note_on_c, 4, 64, 92
13, 816659, Note_on_c, 4, 64, 0
13, 816720, Note_on_c, 4, 64, 92
13, 816899, Note_on_c, 4, 64, 0
13, 816960, Note_on_c, 4, 57, 92
13, 816960, Note_on_c, 4, 64, 92
13, 817139, Note_on_c, 4, 57, 0
13, 817139, Note_on_c, 4, 64, 0
13, 817200, Note_on_c, 4, 64, 92
13, 817379, Note_on_c, 4, 64, 0
13, 817440, Note_on_c, 4, 57, 92
13, 817680, Note_on_c, 4, 69, 92
13, 817889, Note_on_c, 4, 57, 0
13, 817889, Note_on_c, 4, 69, 0
13, 817920, Note_on_c, 4, 64, 92
13, 818279, Note_on_c, 4, 64, 0
13, 818280, Note_on_c, 4, 66, 80
13, 818399, Note_on_c, 4, 66, 0
13, 818400, Note_on_c, 4, 64, 80
13, 818639, Note_on_c, 4, 64, 0
13, 818640, Note_on_c, 4, 62, 80
13, 818849, Note_on_c, 4, 62, 0
13, 818880, Note_on_c, 4, 64, 80
13, 819239, Note_on_c, 4, 64, 0
13, 819240, Note_on_c, 4, 66, 80
13, 819359, Note_on_c, 4, 66, 0
13, 819360, Note_on_c, 4, 64, 80
13, 819599, Note_on_c, 4, 64, 0
13, 819600, Note_on_c, 4, 62, 80
13, 819809, Note_on_c, 4, 62, 0
13, 819840, Note_on_c, 4, 64, 80
13, 820199, Note_on_c, 4, 64, 0
13, 820200, Note_on_c, 4, 66, 80
13, 820319, Note_on_c, 4, 66, 0
13, 820320, Note_on_c, 4, 64, 80
13, 820559, Note_on_c, 4, 64, 0
13, 820560, Note_on_c, 4, 62, 80
13, 820769, Note_on_c, 4, 62, 0
13, 820800, Note_on_c, 4, 64, 80
13, 821159, Note_on_c, 4, 64, 0
13, 821160, Note_on_c, 4, 66, 80
13, 821279, Note_on_c, 4, 66, 0
13, 821280, Note_on_c, 4, 64, 80
13, 821519, Note_on_c, 4, 64, 0
13, 821520, Note_on_c, 4, 62, 80
13, 821729, Note_on_c, 4, 62, 0
13, 821760, Note_on_c, 4, 64, 80
13, 822119, Note_on_c, 4, 64, 0
13, 822120, Note_on_c, 4, 66, 80
13, 822239, Note_on_c, 4, 66, 0
13, 822240, Note_on_c, 4, 64, 80
13, 822479, Note_on_c, 4, 64, 0
13, 822480, Note_on_c, 4, 62, 80
13, 822689, Note_on_c, 4, 62, 0
13, 822720, Note_on_c, 4, 64, 80
13, 823079, Note_on_c, 4, 64, 0
13, 823080, Note_on_c, 4, 66, 80
13, 823199, Note_on_c, 4, 66, 0
13, 823200, Note_on_c, 4, 64, 80
13, 823439, Note_on_c, 4, 64, 0
13, 823440, Note_on_c, 4, 62, 80
13, 823649, Note_on_c, 4, 62, 0
13, 823680, Note_on_c, 4, 64, 80
13, 824039, Note_on_c, 4, 64, 0
13, 824040, Note_on_c, 4, 66, 80
13, 824159, Note_on_c, 4, 66, 0
13, 824160, Note_on_c, 4, 64, 80
13, 824399, Note_on_c, 4, 64, 0
13, 824400, Note_on_c, 4, 62, 80
13, 824609, Note_on_c, 4, 62, 0
13, 824640, Note_on_c, 4, 64, 80
13, 824999, Note_on_c, 4, 64, 0
13, 825000, Note_on_c, 4, 66, 80
13, 825119, Note_on_c, 4, 66, 0
13, 825120, Note_on_c, 4, 64, 80
13, 825359, Note_on_c, 4, 64, 0
13, 825360, Note_on_c, 4, 62, 80
13, 825569, Note_on_c, 4, 62, 0
13, 825600, Note_on_c, 4, 67, 80
13, 826049, Note_on_c, 4, 67, 0
13, 826080, Note_on_c, 4, 64, 80
13, 826080, Note_on_c, 4, 67, 80
13, 826319, Note_on_c, 4, 64, 0
13, 826319, Note_on_c, 4, 67, 0
13, 826320, Note_on_c, 4, 62, 80
13, 826320, Note_on_c, 4, 66, 80
13, 826559, Note_on_c, 4, 62, 0
13, 826559, Note_on_c, 4, 66, 0
13, 826800, Note_on_c, 4, 64, 80
13, 826800, Note_on_c, 4, 67, 80
13, 827009, Note_on_c, 4, 64, 0
13, 827009, Note_on_c, 4, 67, 0
13, 827040, Note_on_c, 4, 64, 80
13, 827040, Note_on_c, 4, 67, 80
13, 827249, Note_on_c, 4, 64, 0
13, 827249, Note_on_c, 4, 67, 0
13, 827280, Note_on_c, 4, 67, 80
13, 827280, Note_on_c, 4, 64, 80
13, 827489, Note_on_c, 4, 67, 0
13, 827489, Note_on_c, 4, 64, 0
13, 827520, Note_on_c, 4, 64, 80
13, 827520, Note_on_c, 4, 67, 80
13, 827759, Note_on_c, 4, 64, 0
13, 827759, Note_on_c, 4, 67, 0
13, 827760, Note_on_c, 4, 62, 80
13, 827760, Note_on_c, 4, 66, 80
13, 827969, Note_on_c, 4, 62, 0
13, 827969, Note_on_c, 4, 66, 0
13, 828000, Note_on_c, 4, 57, 80
13, 828000, Note_on_c, 4, 64, 80
13, 828449, Note_on_c, 4, 57, 0
13, 828449, Note_on_c, 4, 64, 0
13, 828480, Note_on_c, 4, 62, 80
13, 828480, Note_on_c, 4, 50, 80
13, 828929, Note_on_c, 4, 62, 0
13, 828929, Note_on_c, 4, 50, 0
13, 828960, Note_on_c, 4, 54, 80
13, 828960, Note_on_c, 4, 66, 80
13, 829439, Note_on_c, 4, 54, 0
13, 829439, Note_on_c, 4, 66, 0
13, 829440, Note_on_c, 4, 57, 80
13, 829440, Note_on_c, 4, 67, 80
13, 829649, Note_on_c, 4, 57, 0
13, 829680, Note_on_c, 4, 57, 80
13, 829889, Note_on_c, 4, 67, 0
13, 829889, Note_on_c, 4, 57, 0
13, 829920, Note_on_c, 4, 67, 80
13, 829920, Note_on_c, 4, 64, 80
13, 830159, Note_on_c, 4, 67, 0
13, 830159, Note_on_c, 4, 64, 0
13, 830160, Note_on_c, 4, 66, 80
13, 830160, Note_on_c, 4, 62, 80
13, 830399, Note_on_c, 4, 66, 0
13, 830399, Note_on_c, 4, 62, 0
13, 830640, Note_on_c, 4, 67, 80
13, 830640, Note_on_c, 4, 64, 80
13, 830849, Note_on_c, 4, 67, 0
13, 830849, Note_on_c, 4, 64, 0
13, 830880, Note_on_c, 4, 64, 80
13, 830880, Note_on_c, 4, 67, 80
13, 831089, Note_on_c, 4, 64, 0
13, 831089, Note_on_c, 4, 67, 0
13, 831120, Note_on_c, 4, 64, 80
13, 831120, Note_on_c, 4, 67, 80
13, 831329, Note_on_c, 4, 64, 0
13, 831329, Note_on_c, 4, 67, 0
13, 831360, Note_on_c, 4, 67, 92
13, 831360, Note_on_c, 4, 64, 92
13, 831599, Note_on_c, 4, 67, 0
13, 831599, Note_on_c, 4, 64, 0
13, 831600, Note_on_c, 4, 66, 92
13, 831600, Note_on_c, 4, 62, 92
13, 831809, Note_on_c, 4, 66, 0
13, 831809, Note_on_c, 4, 62, 0
13, 831840, Note_on_c, 4, 62, 92
13, 831840, Note_on_c, 4, 66, 92
13, 832079, Note_on_c, 4, 62, 0
13, 832079, Note_on_c, 4, 66, 0
13, 832080, Note_on_c, 4, 64, 92
13, 832080, Note_on_c, 4, 57, 92
13, 832289, Note_on_c, 4, 64, 0
13, 832289, Note_on_c, 4, 57, 0
13, 832320, Note_on_c, 4, 64, 92
13, 832320, Note_on_c, 4, 57, 92
13, 832559, Note_on_c, 4, 64, 0
13, 832559, Note_on_c, 4, 57, 0
13, 832560, Note_on_c, 4, 54, 92
13, 832560, Note_on_c, 4, 62, 92
13, 832769, Note_on_c, 4, 54, 0
13, 832769, Note_on_c, 4, 62, 0
13, 832800, Note_on_c, 4, 64, 92
13, 832800, Note_on_c, 4, 57, 92
13, 833039, Note_on_c, 4, 64, 0
13, 833039, Note_on_c, 4, 57, 0
13, 833040, Note_on_c, 4, 69, 92
13, 833040, Note_on_c, 4, 57, 92
13, 833249, Note_on_c, 4, 69, 0
13, 833249, Note_on_c, 4, 57, 0
13, 833280, Note_on_c, 4, 62, 92
13, 833280, Note_on_c, 4, 54, 92
13, 833489, Note_on_c, 4, 62, 0
13, 833489, Note_on_c, 4, 54, 0
13, 833520, Note_on_c, 4, 54, 92
13, 833520, Note_on_c, 4, 62, 92
13, 833729, Note_on_c, 4, 54, 0
13, 833729, Note_on_c, 4, 62, 0
13, 833760, Note_on_c, 4, 64, 92
13, 833760, Note_on_c, 4, 57, 92
13, 833969, Note_on_c, 4, 64, 0
13, 833969, Note_on_c, 4, 57, 0
13, 834000, Note_on_c, 4, 57, 92
13, 834000, Note_on_c, 4, 64, 92
13, 834209, Note_on_c, 4, 57, 0
13, 834209, Note_on_c, 4, 64, 0
13, 834240, Note_on_c, 4, 67, 92
13, 834449, Note_on_c, 4, 67, 0
13, 834480, Note_on_c, 4, 67, 92
13, 834689, Note_on_c, 4, 67, 0
13, 834720, Note_on_c, 4, 54, 92
13, 834720, Note_on_c, 4, 66, 92
13, 834929, Note_on_c, 4, 54, 0
13, 834929, Note_on_c, 4, 66, 0
13, 834960, Note_on_c, 4, 66, 92
13, 834960, Note_on_c, 4, 54, 92
13, 835169, Note_on_c, 4, 66, 0
13, 835169, Note_on_c, 4, 54, 0
13, 835200, Note_on_c, 4, 67, 92
13, 835409, Note_on_c, 4, 67, 0
13, 835440, Note_on_c, 4, 67, 92
13, 835649, Note_on_c, 4, 67, 0
13, 835680, Note_on_c, 4, 66, 92
13, 835680, Note_on_c, 4, 54, 92
13, 835889, Note_on_c, 4, 66, 0
13, 835889, Note_on_c, 4, 54, 0
13, 835920, Note_on_c, 4, 54, 92
13, 835920, Note_on_c, 4, 66, 92
13, 836129, Note_on_c, 4, 54, 0
13, 836129, Note_on_c, 4, 66, 0
13, 836160, Note_on_c, 4, 54, 92
13, 836160, Note_on_c, 4, 69, 92
13, 836519, Note_on_c, 4, 54, 0
13, 836519, Note_on_c, 4, 69, 0
13, 836640, Note_on_c, 4, 54, 92
13, 836640, Note_on_c, 4, 69, 92
13, 836999, Note_on_c, 4, 54, 0
13, 836999, Note_on_c, 4, 69, 0
13, 837120, Note_on_c, 4, 69, 92
13, 837120, Note_on_c, 4, 54, 92
13, 837479, Note_on_c, 4, 69, 0
13, 837479, Note_on_c, 4, 54, 0
13, 837600, Note_on_c, 4, 69, 92
13, 837600, Note_on_c, 4, 54, 92
13, 837959, Note_on_c, 4, 69, 0
13, 837959, Note_on_c, 4, 54, 0
13, 838080, Note_on_c, 4, 54, 92
13, 838080, Note_on_c, 4, 69, 92
13, 838439, Note_on_c, 4, 54, 0
13, 838439, Note_on_c, 4, 69, 0
13, 838560, Note_on_c, 4, 66, 92
13, 838560, Note_on_c, 4, 69, 92
13, 838919, Note_on_c, 4, 66, 0
13, 838919, Note_on_c, 4, 69, 0
13, 839040, Note_on_c, 4, 64, 92
13, 839040, Note_on_c, 4, 67, 92
13, 839399, Note_on_c, 4, 64, 0
13, 839399, Note_on_c, 4, 67, 0
13, 839520, Note_on_c, 4, 67, 92
13, 839520, Note_on_c, 4, 64, 92
13, 839879, Note_on_c, 4, 67, 0
13, 839879, Note_on_c, 4, 64, 0
13, 840000, Note_on_c, 4, 64, 92
13, 840000, Note_on_c, 4, 67, 92
13, 840359, Note_on_c, 4, 64, 0
13, 840359, Note_on_c, 4, 67, 0
13, 840480, Note_on_c, 4, 67, 92
13, 840480, Note_on_c, 4, 64, 92
13, 840839, Note_on_c, 4, 67, 0
13, 840839, Note_on_c, 4, 64, 0
13, 840960, Note_on_c, 4, 65, 92
13, 841319, Note_on_c, 4, 65, 0
13, 841440, Note_on_c, 4, 62, 92
13, 841440, Note_on_c, 4, 50, 92
13, 841799, Note_on_c, 4, 62, 0
13, 841799, Note_on_c, 4, 50, 0
13, 841920, Note_on_c, 4, 57, 92
13, 841920, Note_on_c, 4, 45, 92
13, 842369, Note_on_c, 4, 57, 0
13, 842369, Note_on_c, 4, 45, 0
13, 842400, Note_on_c, 4, 57, 92
13, 842400, Note_on_c, 4, 45, 92
13, 842609, Note_on_c, 4, 57, 0
13, 842609, Note_on_c, 4, 45, 0
13, 842640, Note_on_c, 4, 57, 92
13, 842640, Note_on_c, 4, 69, 92
13, 842849, Note_on_c, 4, 57, 0
13, 842849, Note_on_c, 4, 69, 0
13, 842880, Note_on_c, 4, 66, 92
13, 842880, Note_on_c, 4, 69, 92
13, 843329, Note_on_c, 4, 66, 0
13, 843329, Note_on_c, 4, 69, 0
13, 843360, Note_on_c, 4, 69, 92
13, 843360, Note_on_c, 4, 66, 92
13, 844289, Note_on_c, 4, 69, 0
13, 844289, Note_on_c, 4, 66, 0
13, 844320, Note_on_c, 4, 69, 80
13, 844320, Note_on_c, 4, 66, 80
13, 844769, Note_on_c, 4, 69, 0
13, 844769, Note_on_c, 4, 66, 0
13, 844800, Note_on_c, 4, 69, 80
13, 844800, Note_on_c, 4, 66, 80
13, 845249, Note_on_c, 4, 69, 0
13, 845249, Note_on_c, 4, 66, 0
13, 845280, Note_on_c, 4, 69, 80
13, 845280, Note_on_c, 4, 66, 80
13, 845729, Note_on_c, 4, 69, 0
13, 845729, Note_on_c, 4, 66, 0
13, 845760, Note_on_c, 4, 69, 80
13, 845760, Note_on_c, 4, 66, 80
13, 846209, Note_on_c, 4, 69, 0
13, 846209, Note_on_c, 4, 66, 0
13, 846240, Note_on_c, 4, 69, 80
13, 846240, Note_on_c, 4, 66, 80
13, 846689, Note_on_c, 4, 69, 0
13, 846689, Note_on_c, 4, 66, 0
13, 846720, Note_on_c, 4, 64, 92
13, 846720, Note_on_c, 4, 67, 92
13, 847169, Note_on_c, 4, 64, 0
13, 847169, Note_on_c, 4, 67, 0
13, 847200, Note_on_c, 4, 67, 80
13, 847200, Note_on_c, 4, 64, 80
13, 847649, Note_on_c, 4, 67, 0
13, 847649, Note_on_c, 4, 64, 0
13, 847680, Note_on_c, 4, 67, 80
13, 847680, Note_on_c, 4, 64, 80
13, 848129, Note_on_c, 4, 67, 0
13, 848129, Note_on_c, 4, 64, 0
13, 848160, Note_on_c, 4, 64, 80
13, 848160, Note_on_c, 4, 67, 80
13, 848609, Note_on_c, 4, 64, 0
13, 848609, Note_on_c, 4, 67, 0
13, 848640, Note_on_c, 4, 53, 92
13, 848640, Note_on_c, 4, 65, 92
13, 849089, Note_on_c, 4, 53, 0
13, 849089, Note_on_c, 4, 65, 0
13, 849120, Note_on_c, 4, 62, 92
13, 849120, Note_on_c, 4, 50, 92
13, 849569, Note_on_c, 4, 62, 0
13, 849569, Note_on_c, 4, 50, 0
13, 849600, Note_on_c, 4, 57, 92
13, 849600, Note_on_c, 4, 45, 92
13, 850049, Note_on_c, 4, 57, 0
13, 850049, Note_on_c, 4, 45, 0
13, 850080, Note_on_c, 4, 69, 92
13, 850080, Note_on_c, 4, 57, 92
13, 850529, Note_on_c, 4, 57, 0
13, 850560, Note_on_c, 4, 62, 92
13, 851009, Note_on_c, 4, 69, 0
13, 851040, Note_on_c, 4, 67, 92
13, 851249, Note_on_c, 4, 62, 0
13, 851489, Note_on_c, 4, 67, 0
13, 851520, Note_on_c, 4, 64, 92
13, 851520, Note_on_c, 4, 67, 92
13, 853409, Note_on_c, 4, 64, 0
13, 853409, Note_on_c, 4, 67, 0
13, 853440, Note_on_c, 4, 66, 92
13, 853440, Note_on_c, 4, 62, 92
13, 853889, Note_on_c, 4, 66, 0
13, 853889, Note_on_c, 4, 62, 0
13, 853920, Note_on_c, 4, 64, 92
13, 853920, Note_on_c, 4, 57, 92
13, 854369, Note_on_c, 4, 64, 0
13, 854369, Note_on_c, 4, 57, 0
13, 854400, Note_on_c, 4, 62, 92
13, 854400, Note_on_c, 4, 66, 92
13, 854609, Note_on_c, 4, 62, 0
13, 854609, Note_on_c, 4, 66, 0
13, 854640, Note_on_c, 4, 66, 92
13, 854640, Note_on_c, 4, 62, 92
13, 854849, Note_on_c, 4, 66, 0
13, 854849, Note_on_c, 4, 62, 0
13, 854880, Note_on_c, 4, 62, 92
13, 854880, Note_on_c, 4, 67, 92
13, 855089, Note_on_c, 4, 62, 0
13, 855329, Note_on_c, 4, 67, 0
13, 855360, Note_on_c, 4, 64, 92
13, 855360, Note_on_c, 4, 67, 92
13, 857249, Note_on_c, 4, 64, 0
13, 857249, Note_on_c, 4, 67, 0
13, 857280, Note_on_c, 4, 66, 92
13, 857280, Note_on_c, 4, 62, 92
13, 857729, Note_on_c, 4, 66, 0
13, 857729, Note_on_c, 4, 62, 0
13, 857760, Note_on_c, 4, 57, 92
13, 857760, Note_on_c, 4, 64, 92
13, 858209, Note_on_c, 4, 57, 0
13, 858209, Note_on_c, 4, 64, 0
13, 858240, Note_on_c, 4, 54, 92
13, 858240, Note_on_c, 4, 62, 92
13, 858479, Note_on_c, 4, 54, 0
13, 858479, Note_on_c, 4, 62, 0
13, 858720, Note_on_c, 4, 66, 92
13, 858929, Note_on_c, 4, 66, 0
13, 858960, Note_on_c, 4, 66, 92
13, 859059, Note_on_c, 4, 66, 0
13, 859080, Note_on_c, 4, 64, 92
13, 859179, Note_on_c, 4, 64, 0
13, 859200, Note_on_c, 4, 62, 92
13, 859439, Note_on_c, 4, 62, 0
13, 859680, Note_on_c, 4, 50, 92
13, 859680, Note_on_c, 4, 62, 92
13, 859889, Note_on_c, 4, 50, 0
13, 859889, Note_on_c, 4, 62, 0
13, 859920, Note_on_c, 4, 62, 92
13, 859920, Note_on_c, 4, 50, 92
13, 860129, Note_on_c, 4, 62, 0
13, 860129, Note_on_c, 4, 50, 0
13, 860160, Note_on_c, 4, 67, 92
13, 860399, Note_on_c, 4, 67, 0
13, 860640, Note_on_c, 4, 64, 92
13, 860849, Note_on_c, 4, 64, 0
13, 860880, Note_on_c, 4, 64, 92
13, 861089, Note_on_c, 4, 64, 0
13, 861120, Note_on_c, 4, 69, 92
13, 861120, Note_on_c, 4, 57, 92
13, 861359, Note_on_c, 4, 69, 0
13, 861359, Note_on_c, 4, 57, 0
13, 862560, Note_on_c, 4, 50, 92
13, 862560, Note_on_c, 4, 62, 92
13, 862769, Note_on_c, 4, 50, 0
13, 862769, Note_on_c, 4, 62, 0
13, 862800, Note_on_c, 4, 66, 92
13, 862800, Note_on_c, 4, 54, 92
13, 863009, Note_on_c, 4, 66, 0
13, 863009, Note_on_c, 4, 54, 0
13, 863040, Note_on_c, 4, 57, 92
13, 863040, Note_on_c, 4, 69, 92
13, 863729, Note_on_c, 4, 57, 0
13, 863729, Note_on_c, 4, 69, 0
13, 863760, Note_on_c, 4, 57, 92
13, 863760, Note_on_c, 4, 69, 92
13, 863969, Note_on_c, 4, 57, 0
13, 863969, Note_on_c, 4, 69, 0
13, 864000, Note_on_c, 4, 57, 92
13, 864000, Note_on_c, 4, 69, 92
13, 864209, Note_on_c, 4, 57, 0
13, 864209, Note_on_c, 4, 69, 0
13, 864240, Note_on_c, 4, 62, 92
13, 864240, Note_on_c, 4, 50, 92
13, 864479, Note_on_c, 4, 62, 0
13, 864479, Note_on_c, 4, 50, 0
13, 867360, Note_on_c, 4, 69, 92
13, 867360, Note_on_c, 4, 57, 92
13, 867569, Note_on_c, 4, 69, 0
13, 867569, Note_on_c, 4, 57, 0
13, 867600, Note_on_c, 4, 69, 92
13, 867600, Note_on_c, 4, 57, 92
13, 867809, Note_on_c, 4, 69, 0
13, 867809, Note_on_c, 4, 57, 0
13, 867840, Note_on_c, 4, 69, 92
13, 867840, Note_on_c, 4, 57, 92
13, 869489, Note_on_c, 4, 69, 0
13, 869489, Note_on_c, 4, 57, 0
13, 869520, Note_on_c, 4, 69, 92
13, 869520, Note_on_c, 4, 57, 92
13, 869729, Note_on_c, 4, 69, 0
13, 869729, Note_on_c, 4, 57, 0
13, 869760, Note_on_c, 4, 57, 92
13, 869760, Note_on_c, 4, 69, 92
13, 869969, Note_on_c, 4, 57, 0
13, 869969, Note_on_c, 4, 69, 0
13, 870000, Note_on_c, 4, 50, 92
13, 870000, Note_on_c, 4, 62, 92
13, 870209, Note_on_c, 4, 50, 0
13, 870209, Note_on_c, 4, 62, 0
13, 870240, Note_on_c, 4, 67, 92
13, 870240, Note_on_c, 4, 64, 92
13, 871069, Note_on_c, 4, 67, 0
13, 871069, Note_on_c, 4, 64, 0
13, 871080, Note_on_c, 4, 67, 92
13, 871080, Note_on_c, 4, 64, 92
13, 871189, Note_on_c, 4, 67, 0
13, 871189, Note_on_c, 4, 64, 0
13, 871200, Note_on_c, 4, 67, 92
13, 871200, Note_on_c, 4, 64, 92
13, 871373, Note_on_c, 4, 67, 0
13, 871373, Note_on_c, 4, 64, 0
13, 871380, Note_on_c, 4, 64, 80
13, 871380, Note_on_c, 4, 67, 80
13, 871433, Note_on_c, 4, 64, 0
13, 871433, Note_on_c, 4, 67, 0
13, 871440, Note_on_c, 4, 64, 80
13, 871440, Note_on_c, 4, 67, 80
13, 871613, Note_on_c, 4, 64, 0
13, 871613, Note_on_c, 4, 67, 0
13, 871620, Note_on_c, 4, 64, 80
13, 871620, Note_on_c, 4, 67, 80
13, 871673, Note_on_c, 4, 64, 0
13, 871673, Note_on_c, 4, 67, 0
13, 871680, Note_on_c, 4, 64, 80
13, 871680, Note_on_c, 4, 67, 80
13, 871799, Note_on_c, 4, 64, 0
13, 871799, Note_on_c, 4, 67, 0
13, 871800, Note_on_c, 4, 64, 80
13, 871800, Note_on_c, 4, 57, 80
13, 872039, Note_on_c, 4, 64, 0
13, 872039, Note_on_c, 4, 57, 0
13, 872040, Note_on_c, 4, 66, 80
13, 872040, Note_on_c, 4, 62, 80
13, 872099, Note_on_c, 4, 66, 0
13, 872099, Note_on_c, 4, 62, 0
13, 872100, Note_on_c, 4, 64, 80
13, 872100, Note_on_c, 4, 67, 80
13, 872153, Note_on_c, 4, 64, 0
13, 872153, Note_on_c, 4, 67, 0
13, 872160, Note_on_c, 4, 66, 80
13, 872160, Note_on_c, 4, 62, 80
13, 872333, Note_on_c, 4, 66, 0
13, 872333, Note_on_c, 4, 62, 0
13, 872340, Note_on_c, 4, 62, 80
13, 872340, Note_on_c, 4, 66, 80
13, 872393, Note_on_c, 4, 62, 0
13, 872393, Note_on_c, 4, 66, 0
13, 872400, Note_on_c, 4, 67, 80
13, 872400, Note_on_c, 4, 62, 80
13, 872629, Note_on_c, 4, 62, 0
13, 872640, Note_on_c, 4, 50, 80
13, 872749, Note_on_c, 4, 67, 0
13, 872749, Note_on_c, 4, 50, 0
13, 872760, Note_on_c, 4, 64, 80
13, 872760, Note_on_c, 4, 57, 80
13, 872869, Note_on_c, 4, 64, 0
13, 872869, Note_on_c, 4, 57, 0
13, 872880, Note_on_c, 4, 69, 92
13, 872880, Note_on_c, 4, 57, 92
13, 873049, Note_on_c, 4, 69, 0
13, 873049, Note_on_c, 4, 57, 0
13, 873060, Note_on_c, 4, 57, 92
13, 873060, Note_on_c, 4, 69, 92
13, 873109, Note_on_c, 4, 57, 0
13, 873109, Note_on_c, 4, 69, 0
13, 873120, Note_on_c, 4, 69, 92
13, 873120, Note_on_c, 4, 57, 92
13, 873229, Note_on_c, 4, 69, 0
13, 873229, Note_on_c, 4, 57, 0
13, 873240, Note_on_c, 4, 62, 92
13, 873240, Note_on_c, 4, 50, 92
13, 873349, Note_on_c, 4, 62, 0
13, 873349, Note_on_c, 4, 50, 0
13, 873360, Note_on_c, 4, 57, 92
13, 873360, Note_on_c, 4, 69, 92
13, 873529, Note_on_c, 4, 57, 0
13, 873529, Note_on_c, 4, 69, 0
13, 873540, Note_on_c, 4, 69, 92
13, 873540, Note_on_c, 4, 57, 92
13, 873589, Note_on_c, 4, 69, 0
13, 873589, Note_on_c, 4, 57, 0
13, 873600, Note_on_c, 4, 69, 80
13, 873600, Note_on_c, 4, 57, 80
13, 874049, Note_on_c, 4, 69, 0
13, 874049, Note_on_c, 4, 57, 0
13, 874080, Note_on_c, 4, 62, 80
13, 874080, Note_on_c, 4, 50, 80
13, 874289, Note_on_c, 4, 62, 0
13, 874289, Note_on_c, 4, 50, 0
13, 874320, Note_on_c, 4, 69, 80
13, 874320, Note_on_c, 4, 66, 80
13, 874529, Note_on_c, 4, 69, 0
13, 874529, Note_on_c, 4, 66, 0
13, 874560, Note_on_c, 4, 69, 80
13, 874560, Note_on_c, 4, 66, 80
13, 874769, Note_on_c, 4, 69, 0
13, 874769, Note_on_c, 4, 66, 0
13, 874800, Note_on_c, 4, 67, 80
13, 874800, Note_on_c, 4, 64, 80
13, 875009, Note_on_c, 4, 67, 0
13, 875009, Note_on_c, 4, 64, 0
13, 875040, Note_on_c, 4, 66, 80
13, 875040, Note_on_c, 4, 62, 80
13, 875249, Note_on_c, 4, 66, 0
13, 875249, Note_on_c, 4, 62, 0
13, 875280, Note_on_c, 4, 62, 80
13, 875280, Note_on_c, 4, 66, 80
13, 875379, Note_on_c, 4, 62, 0
13, 875379, Note_on_c, 4, 66, 0
13, 875400, Note_on_c, 4, 57, 80
13, 875400, Note_on_c, 4, 64, 80
13, 875499, Note_on_c, 4, 57, 0
13, 875499, Note_on_c, 4, 64, 0
13, 875520, Note_on_c, 4, 62, 80
13, 875520, Note_on_c, 4, 66, 80
13, 875729, Note_on_c, 4, 62, 0
13, 875729, Note_on_c, 4, 66, 0
13, 875760, Note_on_c, 4, 66, 80
13, 875760, Note_on_c, 4, 62, 80
13, 875969, Note_on_c, 4, 66, 0
13, 875969, Note_on_c, 4, 62, 0
13, 876000, Note_on_c, 4, 67, 80
13, 876000, Note_on_c, 4, 64, 80
13, 876209, Note_on_c, 4, 67, 0
13, 876209, Note_on_c, 4, 64, 0
13, 876240, Note_on_c, 4, 69, 80
13, 876240, Note_on_c, 4, 66, 80
13, 876449, Note_on_c, 4, 69, 0
13, 876449, Note_on_c, 4, 66, 0
13, 876480, Note_on_c, 4, 69, 80
13, 876480, Note_on_c, 4, 66, 80
13, 876689, Note_on_c, 4, 69, 0
13, 876689, Note_on_c, 4, 66, 0
13, 876720, Note_on_c, 4, 67, 80
13, 876720, Note_on_c, 4, 64, 80
13, 876929, Note_on_c, 4, 67, 0
13, 876929, Note_on_c, 4, 64, 0
13, 876960, Note_on_c, 4, 66, 80
13, 876960, Note_on_c, 4, 62, 80
13, 877169, Note_on_c, 4, 66, 0
13, 877169, Note_on_c, 4, 62, 0
13, 877200, Note_on_c, 4, 62, 80
13, 877200, Note_on_c, 4, 66, 80
13, 877299, Note_on_c, 4, 62, 0
13, 877299, Note_on_c, 4, 66, 0
13, 877320, Note_on_c, 4, 64, 80
13, 877320, Note_on_c, 4, 57, 80
13, 877419, Note_on_c, 4, 64, 0
13, 877419, Note_on_c, 4, 57, 0
13, 877440, Note_on_c, 4, 62, 80
13, 877440, Note_on_c, 4, 66, 80
13, 877649, Note_on_c, 4, 62, 0
13, 877649, Note_on_c, 4, 66, 0
13, 877680, Note_on_c, 4, 64, 80
13, 877680, Note_on_c, 4, 57, 80
13, 877889, Note_on_c, 4, 64, 0
13, 877889, Note_on_c, 4, 57, 0
13, 877920, Note_on_c, 4, 66, 80
13, 877920, Note_on_c, 4, 62, 80
13, 878129, Note_on_c, 4, 66, 0
13, 878129, Note_on_c, 4, 62, 0
13, 878160, Note_on_c, 4, 64, 80
13, 878160, Note_on_c, 4, 57, 80
13, 878369, Note_on_c, 4, 64, 0
13, 878369, Note_on_c, 4, 57, 0
13, 878400, Note_on_c, 4, 62, 80
13, 878400, Note_on_c, 4, 54, 80
13, 878609, Note_on_c, 4, 62, 0
13, 878609, Note_on_c, 4, 54, 0
13, 878640, Note_on_c, 4, 57, 80
13, 878640, Note_on_c, 4, 45, 80
13, 878849, Note_on_c, 4, 57, 0
13, 878849, Note_on_c, 4, 45, 0
13, 878880, Note_on_c, 4, 62, 80
13, 878880, Note_on_c, 4, 54, 80
13, 879089, Note_on_c, 4, 62, 0
13, 879089, Note_on_c, 4, 54, 0
13, 879120, Note_on_c, 4, 57, 80
13, 879120, Note_on_c, 4, 64, 80
13, 879329, Note_on_c, 4, 57, 0
13, 879329, Note_on_c, 4, 64, 0
13, 879360, Note_on_c, 4, 62, 80
13, 879360, Note_on_c, 4, 66, 80
13, 879569, Note_on_c, 4, 62, 0
13, 879569, Note_on_c, 4, 66, 0
13, 879600, Note_on_c, 4, 64, 80
13, 879600, Note_on_c, 4, 57, 80
13, 879809, Note_on_c, 4, 64, 0
13, 879809, Note_on_c, 4, 57, 0
13, 879840, Note_on_c, 4, 62, 80
13, 879840, Note_on_c, 4, 66, 80
13, 880049, Note_on_c, 4, 62, 0
13, 880049, Note_on_c, 4, 66, 0
13, 880080, Note_on_c, 4, 67, 80
13, 880080, Note_on_c, 4, 64, 80
13, 880289, Note_on_c, 4, 67, 0
13, 880289, Note_on_c, 4, 64, 0
13, 880320, Note_on_c, 4, 67, 80
13, 880320, Note_on_c, 4, 64, 80
13, 880529, Note_on_c, 4, 67, 0
13, 880529, Note_on_c, 4, 64, 0
13, 880560, Note_on_c, 4, 62, 80
13, 880560, Note_on_c, 4, 66, 80
13, 880769, Note_on_c, 4, 62, 0
13, 880769, Note_on_c, 4, 66, 0
13, 880800, Note_on_c, 4, 64, 80
13, 880800, Note_on_c, 4, 67, 80
13, 881009, Note_on_c, 4, 64, 0
13, 881009, Note_on_c, 4, 67, 0
13, 881040, Note_on_c, 4, 66, 80
13, 881040, Note_on_c, 4, 69, 80
13, 881249, Note_on_c, 4, 66, 0
13, 881249, Note_on_c, 4, 69, 0
13, 881280, Note_on_c, 4, 69, 92
13, 881280, Note_on_c, 4, 66, 92
13, 881519, Note_on_c, 4, 69, 0
13, 881519, Note_on_c, 4, 66, 0
13, 881520, Note_on_c, 4, 66, 80
13, 881520, Note_on_c, 4, 62, 80
13, 881639, Note_on_c, 4, 66, 0
13, 881639, Note_on_c, 4, 62, 0
13, 881760, Note_on_c, 4, 66, 80
13, 881760, Note_on_c, 4, 69, 80
13, 881999, Note_on_c, 4, 66, 0
13, 881999, Note_on_c, 4, 69, 0
13, 882000, Note_on_c, 4, 62, 80
13, 882000, Note_on_c, 4, 66, 80
13, 882119, Note_on_c, 4, 62, 0
13, 882119, Note_on_c, 4, 66, 0
13, 882240, Note_on_c, 4, 69, 80
13, 882240, Note_on_c, 4, 66, 80
13, 882479, Note_on_c, 4, 69, 0
13, 882479, Note_on_c, 4, 66, 0
13, 882480, Note_on_c, 4, 66, 80
13, 882480, Note_on_c, 4, 62, 80
13, 882599, Note_on_c, 4, 66, 0
13, 882599, Note_on_c, 4, 62, 0
13, 882720, Note_on_c, 4, 69, 80
13, 882720, Note_on_c, 4, 66, 80
13, 882959, Note_on_c, 4, 69, 0
13, 882959, Note_on_c, 4, 66, 0
13, 882960, Note_on_c, 4, 66, 80
13, 882960, Note_on_c, 4, 62, 80
13, 883079, Note_on_c, 4, 66, 0
13, 883079, Note_on_c, 4, 62, 0
13, 883200, Note_on_c, 4, 69, 80
13, 883200, Note_on_c, 4, 66, 80
13, 883439, Note_on_c, 4, 69, 0
13, 883439, Note_on_c, 4, 66, 0
13, 883440, Note_on_c, 4, 62, 80
13, 883440, Note_on_c, 4, 66, 80
13, 883559, Note_on_c, 4, 62, 0
13, 883559, Note_on_c, 4, 66, 0
13, 883680, Note_on_c, 4, 69, 80
13, 883680, Note_on_c, 4, 66, 80
13, 883919, Note_on_c, 4, 69, 0
13, 883919, Note_on_c, 4, 66, 0
13, 883920, Note_on_c, 4, 62, 80
13, 883920, Note_on_c, 4, 66, 80
13, 884039, Note_on_c, 4, 62, 0
13, 884039, Note_on_c, 4, 66, 0
13, 884160, Note_on_c, 4, 66, 80
13, 884160, Note_on_c, 4, 69, 80
13, 884399, Note_on_c, 4, 66, 0
13, 884399, Note_on_c, 4, 69, 0
13, 884400, Note_on_c, 4, 62, 80
13, 884400, Note_on_c, 4, 66, 80
13, 884519, Note_on_c, 4, 62, 0
13, 884519, Note_on_c, 4, 66, 0
13, 884640, Note_on_c, 4, 66, 80
13, 884640, Note_on_c, 4, 69, 80
13, 884879, Note_on_c, 4, 66, 0
13, 884879, Note_on_c, 4, 69, 0
13, 884880, Note_on_c, 4, 62, 80
13, 884880, Note_on_c, 4, 66, 80
13, 884999, Note_on_c, 4, 62, 0
13, 884999, Note_on_c, 4, 66, 0
13, 885120, Note_on_c, 4, 66, 80
13, 885120, Note_on_c, 4, 69, 80
13, 885359, Note_on_c, 4, 66, 0
13, 885359, Note_on_c, 4, 69, 0
13, 885360, Note_on_c, 4, 66, 80
13, 885360, Note_on_c, 4, 62, 80
13, 885479, Note_on_c, 4, 66, 0
13, 885479, Note_on_c, 4, 62, 0
13, 885600, Note_on_c, 4, 66, 80
13, 885600, Note_on_c, 4, 69, 80
13, 885839, Note_on_c, 4, 66, 0
13, 885839, Note_on_c, 4, 69, 0
13, 885840, Note_on_c, 4, 66, 80
13, 885840, Note_on_c, 4, 62, 80
13, 885959, Note_on_c, 4, 66, 0
13, 885959, Note_on_c, 4, 62, 0
13, 886080, Note_on_c, 4, 66, 80
13, 886080, Note_on_c, 4, 69, 80
13, 886319, Note_on_c, 4, 66, 0
13, 886319, Note_on_c, 4, 69, 0
13, 886320, Note_on_c, 4, 66, 80
13, 886320, Note_on_c, 4, 62, 80
13, 886439, Note_on_c, 4, 66, 0
13, 886439, Note_on_c, 4, 62, 0
13, 886560, Note_on_c, 4, 66, 80
13, 886560, Note_on_c, 4, 69, 80
13, 886799, Note_on_c, 4, 66, 0
13, 886799, Note_on_c, 4, 69, 0
13, 886800, Note_on_c, 4, 62, 80
13, 886800, Note_on_c, 4, 66, 80
13, 886919, Note_on_c, 4, 62, 0
13, 886919, Note_on_c, 4, 66, 0
13, 887040, Note_on_c, 4, 66, 80
13, 887040, Note_on_c, 4, 69, 80
13, 887279, Note_on_c, 4, 66, 0
13, 887279, Note_on_c, 4, 69, 0
13, 887280, Note_on_c, 4, 62, 80
13, 887280, Note_on_c, 4, 66, 80
13, 887399, Note_on_c, 4, 62, 0
13, 887399, Note_on_c, 4, 66, 0
13, 887520, Note_on_c, 4, 69, 80
13, 887520, Note_on_c, 4, 66, 80
13, 887759, Note_on_c, 4, 69, 0
13, 887759, Note_on_c, 4, 66, 0
13, 887760, Note_on_c, 4, 66, 80
13, 887760, Note_on_c, 4, 62, 80
13, 887879, Note_on_c, 4, 66, 0
13, 887879, Note_on_c, 4, 62, 0
13, 888000, Note_on_c, 4, 66, 80
13, 888000, Note_on_c, 4, 69, 80
13, 888239, Note_on_c, 4, 66, 0
13, 888239, Note_on_c, 4, 69, 0
13, 888240, Note_on_c, 4, 62, 80
13, 888240, Note_on_c, 4, 66, 80
13, 888359, Note_on_c, 4, 62, 0
13, 888359, Note_on_c, 4, 66, 0
13, 888480, Note_on_c, 4, 69, 80
13, 888480, Note_on_c, 4, 66, 80
13, 888719, Note_on_c, 4, 69, 0
13, 888719, Note_on_c, 4, 66, 0
13, 888720, Note_on_c, 4, 66, 80
13, 888720, Note_on_c, 4, 62, 80
13, 888839, Note_on_c, 4, 66, 0
13, 888839, Note_on_c, 4, 62, 0
13, 888960, Note_on_c, 4, 66, 80
13, 888960, Note_on_c, 4, 69, 80
13, 889169, Note_on_c, 4, 66, 0
13, 889169, Note_on_c, 4, 69, 0
13, 889200, Note_on_c, 4, 50, 80
13, 889200, Note_on_c, 4, 62, 80
13, 890849, Note_on_c, 4, 50, 0
13, 890849, Note_on_c, 4, 62, 0
13, 890880, Note_on_c, 4, 50, 80
13, 890880, Note_on_c, 4, 62, 80
13, 891119, Note_on_c, 4, 50, 0
13, 891119, Note_on_c, 4, 62, 0
13, 891840, Note_on_c, 4, 50, 80
13, 891840, Note_on_c, 4, 62, 80
13, 892079, Note_on_c, 4, 50, 0
13, 892079, Note_on_c, 4, 62, 0
13, 892800, Note_on_c, 4, 62, 80
13, 892800, Note_on_c, 4, 50, 80
13, 893039, Note_on_c, 4, 62, 0
13, 893039, Note_on_c, 4, 50, 0
13, 893039, End_track
14, 0, Start_track
14, 0, Title_t, "Trumpet in D"
14, 0, MIDI_port, 0
14, 0, Program_c, 5, 56
14, 0, Control_c, 5, 121, 0
14, 0, Control_c, 5, 7, 112
14, 0, Control_c, 5, 11, 127
14, 0, Control_c, 5, 10, 60
14, 0, Note_on_c, 5, 69, 92
14, 0, Note_on_c, 5, 57, 92
14, 579, Note_on_c, 5, 69, 0
14, 579, Note_on_c, 5, 57, 0
14, 600, Note_on_c, 5, 69, 92
14, 600, Note_on_c, 5, 57, 92
14, 689, Note_on_c, 5, 69, 0
14, 689, Note_on_c, 5, 57, 0
14, 720, Note_on_c, 5, 57, 92
14, 720, Note_on_c, 5, 69, 92
14, 809, Note_on_c, 5, 57, 0
14, 809, Note_on_c, 5, 69, 0
14, 840, Note_on_c, 5, 62, 92
14, 840, Note_on_c, 5, 74, 92
14, 929, Note_on_c, 5, 62, 0
14, 929, Note_on_c, 5, 74, 0
14, 960, Note_on_c, 5, 62, 92
14, 960, Note_on_c, 5, 74, 92
14, 1199, Note_on_c, 5, 62, 0
14, 1199, Note_on_c, 5, 74, 0
14, 1320, Note_on_c, 5, 69, 92
14, 1409, Note_on_c, 5, 69, 0
14, 1440, Note_on_c, 5, 69, 92
14, 1529, Note_on_c, 5, 69, 0
14, 1560, Note_on_c, 5, 62, 92
14, 1649, Note_on_c, 5, 62, 0
14, 1680, Note_on_c, 5, 62, 92
14, 1919, Note_on_c, 5, 62, 0
14, 2040, Note_on_c, 5, 57, 92
14, 2040, Note_on_c, 5, 69, 92
14, 2129, Note_on_c, 5, 57, 0
14, 2129, Note_on_c, 5, 69, 0
14, 2160, Note_on_c, 5, 57, 92
14, 2160, Note_on_c, 5, 69, 92
14, 2249, Note_on_c, 5, 57, 0
14, 2249, Note_on_c, 5, 69, 0
14, 2280, Note_on_c, 5, 74, 92
14, 2280, Note_on_c, 5, 62, 92
14, 2369, Note_on_c, 5, 74, 0
14, 2369, Note_on_c, 5, 62, 0
14, 2400, Note_on_c, 5, 62, 92
14, 2400, Note_on_c, 5, 74, 92
14, 2639, Note_on_c, 5, 62, 0
14, 2639, Note_on_c, 5, 74, 0
14, 2760, Note_on_c, 5, 69, 92
14, 2760, Note_on_c, 5, 81, 92
14, 2849, Note_on_c, 5, 69, 0
14, 2849, Note_on_c, 5, 81, 0
14, 2880, Note_on_c, 5, 81, 92
14, 2880, Note_on_c, 5, 69, 92
14, 2969, Note_on_c, 5, 81, 0
14, 2969, Note_on_c, 5, 69, 0
14, 3000, Note_on_c, 5, 62, 92
14, 3000, Note_on_c, 5, 74, 92
14, 3089, Note_on_c, 5, 62, 0
14, 3089, Note_on_c, 5, 74, 0
14, 3120, Note_on_c, 5, 74, 92
14, 3120, Note_on_c, 5, 62, 92
14, 3209, Note_on_c, 5, 74, 0
14, 3209, Note_on_c, 5, 62, 0
14, 3240, Note_on_c, 5, 62, 92
14, 3240, Note_on_c, 5, 74, 92
14, 3329, Note_on_c, 5, 62, 0
14, 3329, Note_on_c, 5, 74, 0
14, 3360, Note_on_c, 5, 62, 92
14, 3360, Note_on_c, 5, 74, 92
14, 3449, Note_on_c, 5, 62, 0
14, 3449, Note_on_c, 5, 74, 0
14, 3480, Note_on_c, 5, 62, 92
14, 3480, Note_on_c, 5, 74, 92
14, 3569, Note_on_c, 5, 62, 0
14, 3569, Note_on_c, 5, 74, 0
14, 3600, Note_on_c, 5, 62, 92
14, 3600, Note_on_c, 5, 74, 92
14, 3689, Note_on_c, 5, 62, 0
14, 3689, Note_on_c, 5, 74, 0
14, 3720, Note_on_c, 5, 62, 92
14, 3720, Note_on_c, 5, 74, 92
14, 3809, Note_on_c, 5, 62, 0
14, 3809, Note_on_c, 5, 74, 0
14, 3840, Note_on_c, 5, 62, 92
14, 3840, Note_on_c, 5, 74, 92
14, 3929, Note_on_c, 5, 62, 0
14, 3929, Note_on_c, 5, 74, 0
14, 3960, Note_on_c, 5, 62, 92
14, 3960, Note_on_c, 5, 74, 92
14, 4049, Note_on_c, 5, 62, 0
14, 4049, Note_on_c, 5, 74, 0
14, 4080, Note_on_c, 5, 74, 92
14, 4080, Note_on_c, 5, 62, 92
14, 4169, Note_on_c, 5, 74, 0
14, 4169, Note_on_c, 5, 62, 0
14, 4200, Note_on_c, 5, 62, 92
14, 4200, Note_on_c, 5, 74, 92
14, 4289, Note_on_c, 5, 62, 0
14, 4289, Note_on_c, 5, 74, 0
14, 4320, Note_on_c, 5, 74, 92
14, 4320, Note_on_c, 5, 62, 92
14, 4409, Note_on_c, 5, 74, 0
14, 4409, Note_on_c, 5, 62, 0
14, 4440, Note_on_c, 5, 74, 92
14, 4440, Note_on_c, 5, 62, 92
14, 4529, Note_on_c, 5, 74, 0
14, 4529, Note_on_c, 5, 62, 0
14, 4560, Note_on_c, 5, 74, 92
14, 4560, Note_on_c, 5, 62, 92
14, 4739, Note_on_c, 5, 74, 0
14, 4739, Note_on_c, 5, 62, 0
14, 4800, Note_on_c, 5, 57, 92
14, 4800, Note_on_c, 5, 69, 92
14, 4979, Note_on_c, 5, 57, 0
14, 4979, Note_on_c, 5, 69, 0
14, 11520, Note_on_c, 5, 62, 92
14, 11520, Note_on_c, 5, 74, 92
14, 12459, Note_on_c, 5, 62, 0
14, 12459, Note_on_c, 5, 74, 0
14, 12480, Note_on_c, 5, 72, 92
14, 12819, Note_on_c, 5, 72, 0
14, 12840, Note_on_c, 5, 72, 92
14, 12929, Note_on_c, 5, 72, 0
14, 12960, Note_on_c, 5, 72, 92
14, 13049, Note_on_c, 5, 72, 0
14, 13080, Note_on_c, 5, 72, 92
14, 13169, Note_on_c, 5, 72, 0
14, 13200, Note_on_c, 5, 72, 92
14, 13289, Note_on_c, 5, 72, 0
14, 13320, Note_on_c, 5, 66, 92
14, 13409, Note_on_c, 5, 66, 0
14, 13440, Note_on_c, 5, 66, 92
14, 13529, Note_on_c, 5, 66, 0
14, 13560, Note_on_c, 5, 69, 92
14, 13649, Note_on_c, 5, 69, 0
14, 13680, Note_on_c, 5, 69, 92
14, 13769, Note_on_c, 5, 69, 0
14, 13800, Note_on_c, 5, 72, 92
14, 13889, Note_on_c, 5, 72, 0
14, 13920, Note_on_c, 5, 72, 92
14, 14159, Note_on_c, 5, 72, 0
14, 14280, Note_on_c, 5, 72, 92
14, 14369, Note_on_c, 5, 72, 0
14, 14400, Note_on_c, 5, 72, 92
14, 14489, Note_on_c, 5, 72, 0
14, 14520, Note_on_c, 5, 72, 92
14, 14609, Note_on_c, 5, 72, 0
14, 14640, Note_on_c, 5, 72, 92
14, 14729, Note_on_c, 5, 72, 0
14, 14760, Note_on_c, 5, 66, 92
14, 14849, Note_on_c, 5, 66, 0
14, 14880, Note_on_c, 5, 66, 92
14, 14969, Note_on_c, 5, 66, 0
14, 15000, Note_on_c, 5, 69, 92
14, 15089, Note_on_c, 5, 69, 0
14, 15120, Note_on_c, 5, 69, 92
14, 15209, Note_on_c, 5, 69, 0
14, 15240, Note_on_c, 5, 72, 92
14, 15329, Note_on_c, 5, 72, 0
14, 15360, Note_on_c, 5, 72, 92
14, 15599, Note_on_c, 5, 72, 0
14, 15720, Note_on_c, 5, 74, 92
14, 15809, Note_on_c, 5, 74, 0
14, 15840, Note_on_c, 5, 74, 92
14, 15929, Note_on_c, 5, 74, 0
14, 15960, Note_on_c, 5, 72, 92
14, 16049, Note_on_c, 5, 72, 0
14, 16080, Note_on_c, 5, 72, 92
14, 16319, Note_on_c, 5, 72, 0
14, 16440, Note_on_c, 5, 69, 92
14, 16440, Note_on_c, 5, 72, 92
14, 16529, Note_on_c, 5, 69, 0
14, 16529, Note_on_c, 5, 72, 0
14, 16560, Note_on_c, 5, 72, 92
14, 16560, Note_on_c, 5, 69, 92
14, 16649, Note_on_c, 5, 72, 0
14, 16649, Note_on_c, 5, 69, 0
14, 16680, Note_on_c, 5, 69, 92
14, 16680, Note_on_c, 5, 72, 92
14, 16769, Note_on_c, 5, 69, 0
14, 16769, Note_on_c, 5, 72, 0
14, 16800, Note_on_c, 5, 72, 92
14, 16800, Note_on_c, 5, 69, 92
14, 17039, Note_on_c, 5, 72, 0
14, 17039, Note_on_c, 5, 69, 0
14, 17400, Note_on_c, 5, 72, 92
14, 17400, Note_on_c, 5, 69, 92
14, 17499, Note_on_c, 5, 72, 0
14, 17499, Note_on_c, 5, 69, 0
14, 17520, Note_on_c, 5, 72, 92
14, 17520, Note_on_c, 5, 69, 92
14, 17759, Note_on_c, 5, 72, 0
14, 17759, Note_on_c, 5, 69, 0
14, 20640, Note_on_c, 5, 62, 80
14, 20640, Note_on_c, 5, 74, 80
14, 20759, Note_on_c, 5, 62, 0
14, 20759, Note_on_c, 5, 74, 0
14, 20880, Note_on_c, 5, 74, 80
14, 20880, Note_on_c, 5, 62, 80
14, 20999, Note_on_c, 5, 74, 0
14, 20999, Note_on_c, 5, 62, 0
14, 21120, Note_on_c, 5, 69, 44
14, 21120, Note_on_c, 5, 57, 44
14, 21359, Note_on_c, 5, 69, 0
14, 21359, Note_on_c, 5, 57, 0
14, 23010, Note_on_c, 5, 57, 32
14, 23010, Note_on_c, 5, 69, 32
14, 23035, Note_on_c, 5, 57, 0
14, 23035, Note_on_c, 5, 69, 0
14, 23040, Note_on_c, 5, 69, 32
14, 23040, Note_on_c, 5, 57, 32
14, 23279, Note_on_c, 5, 69, 0
14, 23279, Note_on_c, 5, 57, 0
14, 24930, Note_on_c, 5, 57, 32
14, 24930, Note_on_c, 5, 69, 32
14, 24955, Note_on_c, 5, 57, 0
14, 24955, Note_on_c, 5, 69, 0
14, 24960, Note_on_c, 5, 57, 80
14, 24960, Note_on_c, 5, 69, 80
14, 25199, Note_on_c, 5, 57, 0
14, 25199, Note_on_c, 5, 69, 0
14, 59280, Note_on_c, 5, 69, 80
14, 59280, Note_on_c, 5, 57, 80
14, 59519, Note_on_c, 5, 69, 0
14, 59519, Note_on_c, 5, 57, 0
14, 60000, Note_on_c, 5, 62, 80
14, 60000, Note_on_c, 5, 74, 80
14, 60104, Note_on_c, 5, 62, 0
14, 60104, Note_on_c, 5, 74, 0
14, 60120, Note_on_c, 5, 62, 80
14, 60120, Note_on_c, 5, 74, 80
14, 60224, Note_on_c, 5, 62, 0
14, 60224, Note_on_c, 5, 74, 0
14, 60240, Note_on_c, 5, 62, 80
14, 60240, Note_on_c, 5, 74, 80
14, 60344, Note_on_c, 5, 62, 0
14, 60344, Note_on_c, 5, 74, 0
14, 60360, Note_on_c, 5, 62, 80
14, 60360, Note_on_c, 5, 74, 80
14, 60464, Note_on_c, 5, 62, 0
14, 60464, Note_on_c, 5, 74, 0
14, 60480, Note_on_c, 5, 62, 80
14, 60480, Note_on_c, 5, 74, 80
14, 60719, Note_on_c, 5, 62, 0
14, 60719, Note_on_c, 5, 74, 0
14, 62880, Note_on_c, 5, 74, 80
14, 62880, Note_on_c, 5, 62, 80
14, 63104, Note_on_c, 5, 74, 0
14, 63104, Note_on_c, 5, 62, 0
14, 63120, Note_on_c, 5, 74, 80
14, 63120, Note_on_c, 5, 62, 80
14, 63239, Note_on_c, 5, 74, 0
14, 63239, Note_on_c, 5, 62, 0
14, 64800, Note_on_c, 5, 69, 92
14, 64800, Note_on_c, 5, 76, 92
14, 65039, Note_on_c, 5, 69, 0
14, 65039, Note_on_c, 5, 76, 0
14, 65280, Note_on_c, 5, 66, 92
14, 65280, Note_on_c, 5, 74, 92
14, 65519, Note_on_c, 5, 66, 0
14, 65519, Note_on_c, 5, 74, 0
14, 134640, Note_on_c, 5, 78, 80
14, 134640, Note_on_c, 5, 74, 80
14, 135119, Note_on_c, 5, 78, 0
14, 135119, Note_on_c, 5, 74, 0
14, 135120, Note_on_c, 5, 76, 80
14, 135120, Note_on_c, 5, 79, 80
14, 135359, Note_on_c, 5, 76, 0
14, 135359, Note_on_c, 5, 79, 0
14, 135360, Note_on_c, 5, 78, 80
14, 135360, Note_on_c, 5, 81, 80
14, 135584, Note_on_c, 5, 78, 0
14, 135584, Note_on_c, 5, 81, 0
14, 135600, Note_on_c, 5, 78, 80
14, 135600, Note_on_c, 5, 81, 80
14, 135839, Note_on_c, 5, 78, 0
14, 135839, Note_on_c, 5, 81, 0
14, 135840, Note_on_c, 5, 76, 80
14, 135840, Note_on_c, 5, 79, 80
14, 136064, Note_on_c, 5, 76, 0
14, 136064, Note_on_c, 5, 79, 0
14, 136080, Note_on_c, 5, 78, 80
14, 136080, Note_on_c, 5, 74, 80
14, 136289, Note_on_c, 5, 78, 0
14, 136289, Note_on_c, 5, 74, 0
14, 136320, Note_on_c, 5, 69, 80
14, 136320, Note_on_c, 5, 76, 80
14, 136499, Note_on_c, 5, 69, 0
14, 136499, Note_on_c, 5, 76, 0
14, 136560, Note_on_c, 5, 74, 80
14, 136560, Note_on_c, 5, 66, 80
14, 136784, Note_on_c, 5, 74, 0
14, 136784, Note_on_c, 5, 66, 0
14, 136800, Note_on_c, 5, 66, 80
14, 136800, Note_on_c, 5, 74, 80
14, 137039, Note_on_c, 5, 66, 0
14, 137039, Note_on_c, 5, 74, 0
14, 137040, Note_on_c, 5, 69, 80
14, 137040, Note_on_c, 5, 76, 80
14, 137279, Note_on_c, 5, 69, 0
14, 137279, Note_on_c, 5, 76, 0
14, 137280, Note_on_c, 5, 74, 80
14, 137280, Note_on_c, 5, 78, 80
14, 137504, Note_on_c, 5, 74, 0
14, 137504, Note_on_c, 5, 78, 0
14, 137520, Note_on_c, 5, 78, 80
14, 137520, Note_on_c, 5, 74, 80
14, 137879, Note_on_c, 5, 78, 0
14, 137879, Note_on_c, 5, 74, 0
14, 137880, Note_on_c, 5, 76, 80
14, 137880, Note_on_c, 5, 69, 80
14, 137984, Note_on_c, 5, 76, 0
14, 137984, Note_on_c, 5, 69, 0
14, 138000, Note_on_c, 5, 76, 80
14, 138000, Note_on_c, 5, 69, 80
14, 138464, Note_on_c, 5, 76, 0
14, 138464, Note_on_c, 5, 69, 0
14, 138480, Note_on_c, 5, 74, 92
14, 138480, Note_on_c, 5, 78, 92
14, 138540, Control_c, 5, 11, 107
14, 138959, Note_on_c, 5, 74, 0
14, 138959, Note_on_c, 5, 78, 0
14, 138960, Note_on_c, 5, 79, 92
14, 138960, Note_on_c, 5, 76, 92
14, 139199, Note_on_c, 5, 79, 0
14, 139199, Note_on_c, 5, 76, 0
14, 139200, Note_on_c, 5, 81, 92
14, 139200, Note_on_c, 5, 78, 92
14, 139424, Note_on_c, 5, 81, 0
14, 139424, Note_on_c, 5, 78, 0
14, 139438, Control_c, 5, 11, 127
14, 139440, Note_on_c, 5, 81, 80
14, 139440, Note_on_c, 5, 78, 80
14, 139679, Note_on_c, 5, 81, 0
14, 139679, Note_on_c, 5, 78, 0
14, 139680, Note_on_c, 5, 76, 80
14, 139680, Note_on_c, 5, 79, 80
14, 139904, Note_on_c, 5, 76, 0
14, 139904, Note_on_c, 5, 79, 0
14, 139920, Note_on_c, 5, 74, 80
14, 139920, Note_on_c, 5, 78, 80
14, 140129, Note_on_c, 5, 74, 0
14, 140129, Note_on_c, 5, 78, 0
14, 140160, Note_on_c, 5, 76, 80
14, 140160, Note_on_c, 5, 69, 80
14, 140339, Note_on_c, 5, 76, 0
14, 140339, Note_on_c, 5, 69, 0
14, 140400, Note_on_c, 5, 74, 80
14, 140400, Note_on_c, 5, 66, 80
14, 140609, Note_on_c, 5, 74, 0
14, 140609, Note_on_c, 5, 66, 0
14, 140640, Note_on_c, 5, 66, 80
14, 140640, Note_on_c, 5, 74, 80
14, 140849, Note_on_c, 5, 66, 0
14, 140849, Note_on_c, 5, 74, 0
14, 140880, Note_on_c, 5, 69, 80
14, 140880, Note_on_c, 5, 76, 80
14, 141089, Note_on_c, 5, 69, 0
14, 141089, Note_on_c, 5, 76, 0
14, 141120, Note_on_c, 5, 78, 80
14, 141120, Note_on_c, 5, 74, 80
14, 141299, Note_on_c, 5, 78, 0
14, 141299, Note_on_c, 5, 74, 0
14, 141360, Note_on_c, 5, 76, 80
14, 141360, Note_on_c, 5, 69, 80
14, 141719, Note_on_c, 5, 76, 0
14, 141719, Note_on_c, 5, 69, 0
14, 141720, Note_on_c, 5, 66, 80
14, 141720, Note_on_c, 5, 74, 80
14, 141824, Note_on_c, 5, 66, 0
14, 141824, Note_on_c, 5, 74, 0
14, 141840, Note_on_c, 5, 74, 80
14, 141840, Note_on_c, 5, 66, 80
14, 142304, Note_on_c, 5, 74, 0
14, 142304, Note_on_c, 5, 66, 0
14, 142320, Note_on_c, 5, 69, 80
14, 142320, Note_on_c, 5, 76, 80
14, 142799, Note_on_c, 5, 69, 0
14, 142799, Note_on_c, 5, 76, 0
14, 142800, Note_on_c, 5, 74, 80
14, 142800, Note_on_c, 5, 78, 80
14, 143039, Note_on_c, 5, 74, 0
14, 143039, Note_on_c, 5, 78, 0
14, 143040, Note_on_c, 5, 74, 80
14, 143040, Note_on_c, 5, 66, 80
14, 143264, Note_on_c, 5, 74, 0
14, 143264, Note_on_c, 5, 66, 0
14, 143280, Note_on_c, 5, 69, 80
14, 143280, Note_on_c, 5, 76, 80
14, 143519, Note_on_c, 5, 69, 0
14, 143519, Note_on_c, 5, 76, 0
14, 143520, Note_on_c, 5, 74, 80
14, 143520, Note_on_c, 5, 78, 80
14, 143639, Note_on_c, 5, 74, 0
14, 143639, Note_on_c, 5, 78, 0
14, 143640, Note_on_c, 5, 79, 80
14, 143640, Note_on_c, 5, 76, 80
14, 143759, Note_on_c, 5, 79, 0
14, 143759, Note_on_c, 5, 76, 0
14, 143760, Note_on_c, 5, 78, 80
14, 143760, Note_on_c, 5, 74, 80
14, 143984, Note_on_c, 5, 78, 0
14, 143984, Note_on_c, 5, 74, 0
14, 144000, Note_on_c, 5, 74, 80
14, 144000, Note_on_c, 5, 66, 80
14, 144179, Note_on_c, 5, 74, 0
14, 144179, Note_on_c, 5, 66, 0
14, 144240, Note_on_c, 5, 69, 80
14, 144240, Note_on_c, 5, 76, 80
14, 144479, Note_on_c, 5, 69, 0
14, 144479, Note_on_c, 5, 76, 0
14, 144480, Note_on_c, 5, 78, 80
14, 144480, Note_on_c, 5, 74, 80
14, 144599, Note_on_c, 5, 78, 0
14, 144599, Note_on_c, 5, 74, 0
14, 144600, Note_on_c, 5, 79, 80
14, 144600, Note_on_c, 5, 76, 80
14, 144704, Note_on_c, 5, 79, 0
14, 144704, Note_on_c, 5, 76, 0
14, 144720, Note_on_c, 5, 66, 80
14, 144720, Note_on_c, 5, 78, 80
14, 144944, Note_on_c, 5, 66, 0
14, 144944, Note_on_c, 5, 78, 0
14, 144960, Note_on_c, 5, 66, 80
14, 145184, Note_on_c, 5, 66, 0
14, 145200, Note_on_c, 5, 62, 80
14, 145200, Note_on_c, 5, 74, 80
14, 145379, Note_on_c, 5, 62, 0
14, 145379, Note_on_c, 5, 74, 0
14, 145440, Note_on_c, 5, 76, 80
14, 145619, Note_on_c, 5, 76, 0
14, 145680, Note_on_c, 5, 69, 80
14, 145859, Note_on_c, 5, 69, 0
14, 145920, Note_on_c, 5, 74, 80
14, 145920, Note_on_c, 5, 78, 80
14, 146384, Note_on_c, 5, 74, 0
14, 146384, Note_on_c, 5, 78, 0
14, 146400, Note_on_c, 5, 74, 80
14, 146400, Note_on_c, 5, 78, 80
14, 146609, Note_on_c, 5, 74, 0
14, 146609, Note_on_c, 5, 78, 0
14, 146640, Note_on_c, 5, 79, 80
14, 146640, Note_on_c, 5, 76, 80
14, 146849, Note_on_c, 5, 79, 0
14, 146849, Note_on_c, 5, 76, 0
14, 146880, Note_on_c, 5, 81, 80
14, 146880, Note_on_c, 5, 78, 80
14, 147059, Note_on_c, 5, 81, 0
14, 147059, Note_on_c, 5, 78, 0
14, 147120, Note_on_c, 5, 78, 80
14, 147120, Note_on_c, 5, 81, 80
14, 147359, Note_on_c, 5, 78, 0
14, 147359, Note_on_c, 5, 81, 0
14, 147360, Note_on_c, 5, 76, 80
14, 147360, Note_on_c, 5, 79, 80
14, 147584, Note_on_c, 5, 76, 0
14, 147584, Note_on_c, 5, 79, 0
14, 147600, Note_on_c, 5, 74, 80
14, 147600, Note_on_c, 5, 78, 80
14, 147809, Note_on_c, 5, 74, 0
14, 147809, Note_on_c, 5, 78, 0
14, 147840, Note_on_c, 5, 69, 80
14, 147840, Note_on_c, 5, 76, 80
14, 148019, Note_on_c, 5, 69, 0
14, 148019, Note_on_c, 5, 76, 0
14, 148080, Note_on_c, 5, 66, 80
14, 148080, Note_on_c, 5, 74, 80
14, 148289, Note_on_c, 5, 66, 0
14, 148289, Note_on_c, 5, 74, 0
14, 148320, Note_on_c, 5, 74, 80
14, 148320, Note_on_c, 5, 66, 80
14, 148529, Note_on_c, 5, 74, 0
14, 148529, Note_on_c, 5, 66, 0
14, 148560, Note_on_c, 5, 69, 80
14, 148560, Note_on_c, 5, 76, 80
14, 148769, Note_on_c, 5, 69, 0
14, 148769, Note_on_c, 5, 76, 0
14, 148800, Note_on_c, 5, 78, 80
14, 148800, Note_on_c, 5, 74, 80
14, 148979, Note_on_c, 5, 78, 0
14, 148979, Note_on_c, 5, 74, 0
14, 149040, Note_on_c, 5, 69, 80
14, 149040, Note_on_c, 5, 76, 80
14, 149399, Note_on_c, 5, 69, 0
14, 149399, Note_on_c, 5, 76, 0
14, 149400, Note_on_c, 5, 66, 80
14, 149400, Note_on_c, 5, 74, 80
14, 149504, Note_on_c, 5, 66, 0
14, 149504, Note_on_c, 5, 74, 0
14, 149520, Note_on_c, 5, 66, 80
14, 149520, Note_on_c, 5, 74, 80
14, 149609, Note_on_c, 5, 66, 0
14, 149609, Note_on_c, 5, 74, 0
14, 149640, Note_on_c, 5, 78, 80
14, 149640, Note_on_c, 5, 81, 80
14, 149759, Note_on_c, 5, 78, 0
14, 149759, Note_on_c, 5, 81, 0
14, 149760, Note_on_c, 5, 79, 80
14, 149760, Note_on_c, 5, 76, 80
14, 149879, Note_on_c, 5, 79, 0
14, 149879, Note_on_c, 5, 76, 0
14, 149880, Note_on_c, 5, 74, 80
14, 149880, Note_on_c, 5, 78, 80
14, 149984, Note_on_c, 5, 74, 0
14, 149984, Note_on_c, 5, 78, 0
14, 150000, Note_on_c, 5, 76, 92
14, 150000, Note_on_c, 5, 69, 92
14, 150060, Control_c, 5, 11, 107
14, 150464, Note_on_c, 5, 76, 0
14, 150464, Note_on_c, 5, 69, 0
14, 150478, Control_c, 5, 11, 127
14, 150480, Note_on_c, 5, 74, 80
14, 150480, Note_on_c, 5, 78, 80
14, 150719, Note_on_c, 5, 74, 0
14, 150719, Note_on_c, 5, 78, 0
14, 150720, Note_on_c, 5, 66, 80
14, 150720, Note_on_c, 5, 74, 80
14, 150944, Note_on_c, 5, 66, 0
14, 150944, Note_on_c, 5, 74, 0
14, 150960, Note_on_c, 5, 76, 80
14, 150960, Note_on_c, 5, 69, 80
14, 151199, Note_on_c, 5, 76, 0
14, 151199, Note_on_c, 5, 69, 0
14, 151200, Note_on_c, 5, 74, 80
14, 151200, Note_on_c, 5, 78, 80
14, 151319, Note_on_c, 5, 74, 0
14, 151319, Note_on_c, 5, 78, 0
14, 151320, Note_on_c, 5, 76, 80
14, 151320, Note_on_c, 5, 79, 80
14, 151439, Note_on_c, 5, 76, 0
14, 151439, Note_on_c, 5, 79, 0
14, 151440, Note_on_c, 5, 78, 80
14, 151440, Note_on_c, 5, 74, 80
14, 151664, Note_on_c, 5, 78, 0
14, 151664, Note_on_c, 5, 74, 0
14, 151680, Note_on_c, 5, 66, 80
14, 151680, Note_on_c, 5, 74, 80
14, 151859, Note_on_c, 5, 66, 0
14, 151859, Note_on_c, 5, 74, 0
14, 151920, Note_on_c, 5, 69, 80
14, 151920, Note_on_c, 5, 76, 80
14, 152159, Note_on_c, 5, 69, 0
14, 152159, Note_on_c, 5, 76, 0
14, 152160, Note_on_c, 5, 74, 80
14, 152160, Note_on_c, 5, 78, 80
14, 152279, Note_on_c, 5, 74, 0
14, 152279, Note_on_c, 5, 78, 0
14, 152280, Note_on_c, 5, 76, 80
14, 152280, Note_on_c, 5, 79, 80
14, 152384, Note_on_c, 5, 76, 0
14, 152384, Note_on_c, 5, 79, 0
14, 152400, Note_on_c, 5, 66, 80
14, 152400, Note_on_c, 5, 78, 80
14, 152624, Note_on_c, 5, 66, 0
14, 152624, Note_on_c, 5, 78, 0
14, 152640, Note_on_c, 5, 66, 80
14, 152864, Note_on_c, 5, 66, 0
14, 152880, Note_on_c, 5, 62, 80
14, 152880, Note_on_c, 5, 74, 80
14, 153059, Note_on_c, 5, 62, 0
14, 153059, Note_on_c, 5, 74, 0
14, 153120, Note_on_c, 5, 76, 80
14, 153299, Note_on_c, 5, 76, 0
14, 153360, Note_on_c, 5, 69, 80
14, 153539, Note_on_c, 5, 69, 0
14, 153600, Note_on_c, 5, 78, 80
14, 153600, Note_on_c, 5, 74, 80
14, 154064, Note_on_c, 5, 78, 0
14, 154064, Note_on_c, 5, 74, 0
14, 154080, Note_on_c, 5, 78, 80
14, 154080, Note_on_c, 5, 74, 80
14, 154289, Note_on_c, 5, 78, 0
14, 154289, Note_on_c, 5, 74, 0
14, 154320, Note_on_c, 5, 79, 80
14, 154320, Note_on_c, 5, 76, 80
14, 154529, Note_on_c, 5, 79, 0
14, 154529, Note_on_c, 5, 76, 0
14, 154560, Note_on_c, 5, 78, 80
14, 154560, Note_on_c, 5, 81, 80
14, 154739, Note_on_c, 5, 78, 0
14, 154739, Note_on_c, 5, 81, 0
14, 154800, Note_on_c, 5, 78, 80
14, 154800, Note_on_c, 5, 81, 80
14, 155039, Note_on_c, 5, 78, 0
14, 155039, Note_on_c, 5, 81, 0
14, 155040, Note_on_c, 5, 79, 80
14, 155040, Note_on_c, 5, 76, 80
14, 155264, Note_on_c, 5, 79, 0
14, 155264, Note_on_c, 5, 76, 0
14, 155280, Note_on_c, 5, 74, 80
14, 155280, Note_on_c, 5, 78, 80
14, 155489, Note_on_c, 5, 74, 0
14, 155489, Note_on_c, 5, 78, 0
14, 155520, Note_on_c, 5, 69, 80
14, 155520, Note_on_c, 5, 76, 80
14, 155699, Note_on_c, 5, 69, 0
14, 155699, Note_on_c, 5, 76, 0
14, 155760, Note_on_c, 5, 74, 80
14, 155760, Note_on_c, 5, 66, 80
14, 155984, Note_on_c, 5, 74, 0
14, 155984, Note_on_c, 5, 66, 0
14, 156000, Note_on_c, 5, 66, 80
14, 156000, Note_on_c, 5, 74, 80
14, 156209, Note_on_c, 5, 66, 0
14, 156209, Note_on_c, 5, 74, 0
14, 156240, Note_on_c, 5, 76, 80
14, 156240, Note_on_c, 5, 69, 80
14, 156449, Note_on_c, 5, 76, 0
14, 156449, Note_on_c, 5, 69, 0
14, 156480, Note_on_c, 5, 74, 80
14, 156480, Note_on_c, 5, 78, 80
14, 156659, Note_on_c, 5, 74, 0
14, 156659, Note_on_c, 5, 78, 0
14, 156720, Note_on_c, 5, 76, 80
14, 156720, Note_on_c, 5, 69, 80
14, 157079, Note_on_c, 5, 76, 0
14, 157079, Note_on_c, 5, 69, 0
14, 157080, Note_on_c, 5, 74, 80
14, 157080, Note_on_c, 5, 66, 80
14, 157184, Note_on_c, 5, 74, 0
14, 157184, Note_on_c, 5, 66, 0
14, 157200, Note_on_c, 5, 66, 80
14, 157200, Note_on_c, 5, 74, 80
14, 157424, Note_on_c, 5, 66, 0
14, 157424, Note_on_c, 5, 74, 0
14, 157440, Note_on_c, 5, 66, 80
14, 157440, Note_on_c, 5, 69, 80
14, 157664, Note_on_c, 5, 66, 0
14, 157664, Note_on_c, 5, 69, 0
14, 157680, Note_on_c, 5, 74, 80
14, 157680, Note_on_c, 5, 62, 80
14, 158024, Note_on_c, 5, 74, 0
14, 158024, Note_on_c, 5, 62, 0
14, 158040, Note_on_c, 5, 74, 80
14, 158040, Note_on_c, 5, 62, 80
14, 158144, Note_on_c, 5, 74, 0
14, 158144, Note_on_c, 5, 62, 0
14, 158160, Note_on_c, 5, 74, 80
14, 158160, Note_on_c, 5, 62, 80
14, 158384, Note_on_c, 5, 74, 0
14, 158384, Note_on_c, 5, 62, 0
14, 158400, Note_on_c, 5, 74, 80
14, 158400, Note_on_c, 5, 62, 80
14, 158624, Note_on_c, 5, 74, 0
14, 158624, Note_on_c, 5, 62, 0
14, 158640, Note_on_c, 5, 74, 80
14, 158640, Note_on_c, 5, 62, 80
14, 158984, Note_on_c, 5, 74, 0
14, 158984, Note_on_c, 5, 62, 0
14, 159000, Note_on_c, 5, 62, 80
14, 159000, Note_on_c, 5, 74, 80
14, 159104, Note_on_c, 5, 62, 0
14, 159104, Note_on_c, 5, 74, 0
14, 159120, Note_on_c, 5, 74, 80
14, 159120, Note_on_c, 5, 62, 80
14, 159344, Note_on_c, 5, 74, 0
14, 159344, Note_on_c, 5, 62, 0
14, 159360, Note_on_c, 5, 74, 80
14, 159360, Note_on_c, 5, 62, 80
14, 159584, Note_on_c, 5, 74, 0
14, 159584, Note_on_c, 5, 62, 0
14, 159600, Note_on_c, 5, 62, 80
14, 159600, Note_on_c, 5, 74, 80
14, 159944, Note_on_c, 5, 62, 0
14, 159944, Note_on_c, 5, 74, 0
14, 159960, Note_on_c, 5, 74, 80
14, 159960, Note_on_c, 5, 76, 80
14, 160064, Note_on_c, 5, 74, 0
14, 160064, Note_on_c, 5, 76, 0
14, 160080, Note_on_c, 5, 76, 80
14, 160080, Note_on_c, 5, 69, 80
14, 160304, Note_on_c, 5, 76, 0
14, 160304, Note_on_c, 5, 69, 0
14, 160320, Note_on_c, 5, 69, 80
14, 160320, Note_on_c, 5, 76, 80
14, 160439, Note_on_c, 5, 76, 0
14, 160440, Note_on_c, 5, 78, 80
14, 160544, Note_on_c, 5, 69, 0
14, 160544, Note_on_c, 5, 78, 0
14, 160560, Note_on_c, 5, 76, 80
14, 160560, Note_on_c, 5, 69, 80
14, 160919, Note_on_c, 5, 76, 0
14, 160919, Note_on_c, 5, 69, 0
14, 160920, Note_on_c, 5, 66, 80
14, 160920, Note_on_c, 5, 74, 80
14, 161024, Note_on_c, 5, 66, 0
14, 161024, Note_on_c, 5, 74, 0
14, 161040, Note_on_c, 5, 66, 80
14, 161040, Note_on_c, 5, 74, 80
14, 161264, Note_on_c, 5, 66, 0
14, 161264, Note_on_c, 5, 74, 0
14, 161280, Note_on_c, 5, 74, 80
14, 161280, Note_on_c, 5, 62, 80
14, 161864, Note_on_c, 5, 74, 0
14, 161864, Note_on_c, 5, 62, 0
14, 161880, Note_on_c, 5, 74, 80
14, 161880, Note_on_c, 5, 76, 80
14, 161984, Note_on_c, 5, 74, 0
14, 161984, Note_on_c, 5, 76, 0
14, 162000, Note_on_c, 5, 76, 80
14, 162000, Note_on_c, 5, 69, 80
14, 162224, Note_on_c, 5, 76, 0
14, 162224, Note_on_c, 5, 69, 0
14, 162240, Note_on_c, 5, 76, 80
14, 162824, Note_on_c, 5, 76, 0
14, 162840, Note_on_c, 5, 78, 80
14, 162840, Note_on_c, 5, 66, 80
14, 162944, Note_on_c, 5, 78, 0
14, 162944, Note_on_c, 5, 66, 0
14, 162960, Note_on_c, 5, 78, 80
14, 162960, Note_on_c, 5, 66, 80
14, 163184, Note_on_c, 5, 78, 0
14, 163184, Note_on_c, 5, 66, 0
14, 163200, Note_on_c, 5, 78, 80
14, 163200, Note_on_c, 5, 66, 80
14, 163679, Note_on_c, 5, 78, 0
14, 163679, Note_on_c, 5, 66, 0
14, 164400, Note_on_c, 5, 79, 80
14, 164400, Note_on_c, 5, 76, 80
14, 164639, Note_on_c, 5, 79, 0
14, 164639, Note_on_c, 5, 76, 0
14, 164880, Note_on_c, 5, 66, 80
14, 164880, Note_on_c, 5, 78, 80
14, 165119, Note_on_c, 5, 66, 0
14, 165119, Note_on_c, 5, 78, 0
14, 166080, Note_on_c, 5, 74, 80
14, 166080, Note_on_c, 5, 62, 80
14, 166304, Note_on_c, 5, 74, 0
14, 166304, Note_on_c, 5, 62, 0
14, 166320, Note_on_c, 5, 62, 80
14, 166320, Note_on_c, 5, 74, 80
14, 166664, Note_on_c, 5, 62, 0
14, 166664, Note_on_c, 5, 74, 0
14, 166680, Note_on_c, 5, 76, 80
14, 166784, Note_on_c, 5, 76, 0
14, 166800, Note_on_c, 5, 76, 80
14, 167144, Note_on_c, 5, 76, 0
14, 167160, Note_on_c, 5, 74, 80
14, 167624, Note_on_c, 5, 74, 0
14, 167640, Note_on_c, 5, 76, 80
14, 167744, Note_on_c, 5, 76, 0
14, 167760, Note_on_c, 5, 76, 80
14, 167864, Note_on_c, 5, 76, 0
14, 167880, Note_on_c, 5, 76, 80
14, 167984, Note_on_c, 5, 76, 0
14, 168000, Note_on_c, 5, 76, 80
14, 168104, Note_on_c, 5, 76, 0
14, 168120, Note_on_c, 5, 76, 80
14, 168224, Note_on_c, 5, 76, 0
14, 168240, Note_on_c, 5, 76, 80
14, 168240, Note_on_c, 5, 69, 80
14, 168464, Note_on_c, 5, 76, 0
14, 168464, Note_on_c, 5, 69, 0
14, 168480, Note_on_c, 5, 76, 80
14, 168480, Note_on_c, 5, 69, 80
14, 168584, Note_on_c, 5, 76, 0
14, 168584, Note_on_c, 5, 69, 0
14, 168600, Note_on_c, 5, 69, 80
14, 168600, Note_on_c, 5, 76, 80
14, 168704, Note_on_c, 5, 69, 0
14, 168704, Note_on_c, 5, 76, 0
14, 168720, Note_on_c, 5, 62, 80
14, 168720, Note_on_c, 5, 78, 80
14, 168944, Note_on_c, 5, 62, 0
14, 168944, Note_on_c, 5, 78, 0
14, 168960, Note_on_c, 5, 62, 80
14, 168960, Note_on_c, 5, 78, 80
14, 169064, Note_on_c, 5, 62, 0
14, 169064, Note_on_c, 5, 78, 0
14, 169080, Note_on_c, 5, 62, 80
14, 169080, Note_on_c, 5, 78, 80
14, 169184, Note_on_c, 5, 62, 0
14, 169184, Note_on_c, 5, 78, 0
14, 169200, Note_on_c, 5, 76, 80
14, 169439, Note_on_c, 5, 76, 0
14, 169560, Note_on_c, 5, 69, 80
14, 169560, Note_on_c, 5, 57, 80
14, 169664, Note_on_c, 5, 69, 0
14, 169664, Note_on_c, 5, 57, 0
14, 169680, Note_on_c, 5, 69, 80
14, 169680, Note_on_c, 5, 57, 80
14, 169784, Note_on_c, 5, 69, 0
14, 169784, Note_on_c, 5, 57, 0
14, 169800, Note_on_c, 5, 69, 80
14, 169800, Note_on_c, 5, 57, 80
14, 169904, Note_on_c, 5, 69, 0
14, 169904, Note_on_c, 5, 57, 0
14, 169920, Note_on_c, 5, 76, 80
14, 170024, Note_on_c, 5, 76, 0
14, 170040, Note_on_c, 5, 76, 80
14, 170144, Note_on_c, 5, 76, 0
14, 170160, Note_on_c, 5, 81, 92
14, 170160, Note_on_c, 5, 69, 92
14, 170220, Control_c, 5, 11, 107
14, 170624, Note_on_c, 5, 81, 0
14, 170624, Note_on_c, 5, 69, 0
14, 170638, Control_c, 5, 11, 127
14, 170640, Note_on_c, 5, 76, 80
14, 170819, Note_on_c, 5, 76, 0
14, 170880, Note_on_c, 5, 76, 80
14, 171059, Note_on_c, 5, 76, 0
14, 171120, Note_on_c, 5, 81, 92
14, 171120, Note_on_c, 5, 69, 92
14, 171180, Control_c, 5, 11, 107
14, 171584, Note_on_c, 5, 81, 0
14, 171584, Note_on_c, 5, 69, 0
14, 171598, Control_c, 5, 11, 127
14, 171600, Note_on_c, 5, 76, 80
14, 171779, Note_on_c, 5, 76, 0
14, 171840, Note_on_c, 5, 76, 80
14, 172019, Note_on_c, 5, 76, 0
14, 174840, Note_on_c, 5, 76, 80
14, 175079, Note_on_c, 5, 76, 0
14, 175080, Note_on_c, 5, 69, 80
14, 175184, Note_on_c, 5, 69, 0
14, 175200, Note_on_c, 5, 69, 80
14, 175200, Note_on_c, 5, 81, 80
14, 175289, Note_on_c, 5, 69, 0
14, 175289, Note_on_c, 5, 81, 0
14, 175320, Note_on_c, 5, 81, 80
14, 175320, Note_on_c, 5, 69, 80
14, 175409, Note_on_c, 5, 81, 0
14, 175409, Note_on_c, 5, 69, 0
14, 175440, Note_on_c, 5, 76, 80
14, 175664, Note_on_c, 5, 76, 0
14, 175680, Note_on_c, 5, 76, 80
14, 175919, Note_on_c, 5, 76, 0
14, 176160, Note_on_c, 5, 76, 80
14, 176339, Note_on_c, 5, 76, 0
14, 176640, Note_on_c, 5, 69, 80
14, 176819, Note_on_c, 5, 69, 0
14, 177360, Note_on_c, 5, 69, 92
14, 177360, Note_on_c, 5, 57, 92
14, 177939, Note_on_c, 5, 69, 0
14, 177939, Note_on_c, 5, 57, 0
14, 177960, Note_on_c, 5, 69, 92
14, 177960, Note_on_c, 5, 57, 92
14, 178049, Note_on_c, 5, 69, 0
14, 178049, Note_on_c, 5, 57, 0
14, 178080, Note_on_c, 5, 69, 92
14, 178080, Note_on_c, 5, 57, 92
14, 178169, Note_on_c, 5, 69, 0
14, 178169, Note_on_c, 5, 57, 0
14, 178200, Note_on_c, 5, 62, 92
14, 178200, Note_on_c, 5, 74, 92
14, 178289, Note_on_c, 5, 62, 0
14, 178289, Note_on_c, 5, 74, 0
14, 178320, Note_on_c, 5, 74, 92
14, 178320, Note_on_c, 5, 62, 92
14, 178559, Note_on_c, 5, 74, 0
14, 178559, Note_on_c, 5, 62, 0
14, 178680, Note_on_c, 5, 69, 92
14, 178769, Note_on_c, 5, 69, 0
14, 178800, Note_on_c, 5, 69, 92
14, 178889, Note_on_c, 5, 69, 0
14, 178920, Note_on_c, 5, 62, 92
14, 179009, Note_on_c, 5, 62, 0
14, 179040, Note_on_c, 5, 62, 92
14, 179279, Note_on_c, 5, 62, 0
14, 179400, Note_on_c, 5, 57, 92
14, 179400, Note_on_c, 5, 69, 92
14, 179489, Note_on_c, 5, 57, 0
14, 179489, Note_on_c, 5, 69, 0
14, 179520, Note_on_c, 5, 69, 92
14, 179520, Note_on_c, 5, 57, 92
14, 179609, Note_on_c, 5, 69, 0
14, 179609, Note_on_c, 5, 57, 0
14, 179640, Note_on_c, 5, 62, 92
14, 179640, Note_on_c, 5, 74, 92
14, 179729, Note_on_c, 5, 62, 0
14, 179729, Note_on_c, 5, 74, 0
14, 179760, Note_on_c, 5, 62, 92
14, 179760, Note_on_c, 5, 74, 92
14, 179999, Note_on_c, 5, 62, 0
14, 179999, Note_on_c, 5, 74, 0
14, 180120, Note_on_c, 5, 69, 92
14, 180120, Note_on_c, 5, 81, 92
14, 180209, Note_on_c, 5, 69, 0
14, 180209, Note_on_c, 5, 81, 0
14, 180240, Note_on_c, 5, 69, 92
14, 180240, Note_on_c, 5, 81, 92
14, 180329, Note_on_c, 5, 69, 0
14, 180329, Note_on_c, 5, 81, 0
14, 180360, Note_on_c, 5, 62, 92
14, 180360, Note_on_c, 5, 74, 92
14, 180449, Note_on_c, 5, 62, 0
14, 180449, Note_on_c, 5, 74, 0
14, 180480, Note_on_c, 5, 74, 92
14, 180480, Note_on_c, 5, 62, 92
14, 180569, Note_on_c, 5, 74, 0
14, 180569, Note_on_c, 5, 62, 0
14, 180600, Note_on_c, 5, 62, 92
14, 180600, Note_on_c, 5, 74, 92
14, 180689, Note_on_c, 5, 62, 0
14, 180689, Note_on_c, 5, 74, 0
14, 180720, Note_on_c, 5, 62, 92
14, 180720, Note_on_c, 5, 74, 92
14, 180809, Note_on_c, 5, 62, 0
14, 180809, Note_on_c, 5, 74, 0
14, 180840, Note_on_c, 5, 62, 92
14, 180840, Note_on_c, 5, 74, 92
14, 180929, Note_on_c, 5, 62, 0
14, 180929, Note_on_c, 5, 74, 0
14, 180960, Note_on_c, 5, 62, 92
14, 180960, Note_on_c, 5, 74, 92
14, 181049, Note_on_c, 5, 62, 0
14, 181049, Note_on_c, 5, 74, 0
14, 181080, Note_on_c, 5, 74, 92
14, 181080, Note_on_c, 5, 62, 92
14, 181169, Note_on_c, 5, 74, 0
14, 181169, Note_on_c, 5, 62, 0
14, 181200, Note_on_c, 5, 62, 92
14, 181200, Note_on_c, 5, 74, 92
14, 181289, Note_on_c, 5, 62, 0
14, 181289, Note_on_c, 5, 74, 0
14, 181320, Note_on_c, 5, 74, 92
14, 181320, Note_on_c, 5, 62, 92
14, 181409, Note_on_c, 5, 74, 0
14, 181409, Note_on_c, 5, 62, 0
14, 181440, Note_on_c, 5, 62, 92
14, 181440, Note_on_c, 5, 74, 92
14, 181529, Note_on_c, 5, 62, 0
14, 181529, Note_on_c, 5, 74, 0
14, 181560, Note_on_c, 5, 62, 92
14, 181560, Note_on_c, 5, 74, 92
14, 181649, Note_on_c, 5, 62, 0
14, 181649, Note_on_c, 5, 74, 0
14, 181680, Note_on_c, 5, 62, 92
14, 181680, Note_on_c, 5, 74, 92
14, 181769, Note_on_c, 5, 62, 0
14, 181769, Note_on_c, 5, 74, 0
14, 181800, Note_on_c, 5, 74, 92
14, 181800, Note_on_c, 5, 62, 92
14, 181889, Note_on_c, 5, 74, 0
14, 181889, Note_on_c, 5, 62, 0
14, 181920, Note_on_c, 5, 62, 92
14, 181920, Note_on_c, 5, 74, 92
14, 182099, Note_on_c, 5, 62, 0
14, 182099, Note_on_c, 5, 74, 0
14, 182160, Note_on_c, 5, 69, 92
14, 182160, Note_on_c, 5, 57, 92
14, 182339, Note_on_c, 5, 69, 0
14, 182339, Note_on_c, 5, 57, 0
14, 192480, Note_on_c, 5, 69, 80
14, 192480, Note_on_c, 5, 57, 80
14, 192659, Note_on_c, 5, 69, 0
14, 192659, Note_on_c, 5, 57, 0
14, 192720, Note_on_c, 5, 62, 80
14, 192720, Note_on_c, 5, 74, 80
14, 192824, Note_on_c, 5, 62, 0
14, 192824, Note_on_c, 5, 74, 0
14, 192840, Note_on_c, 5, 74, 80
14, 192840, Note_on_c, 5, 62, 80
14, 192944, Note_on_c, 5, 74, 0
14, 192944, Note_on_c, 5, 62, 0
14, 192960, Note_on_c, 5, 74, 80
14, 192960, Note_on_c, 5, 62, 80
14, 193199, Note_on_c, 5, 74, 0
14, 193199, Note_on_c, 5, 62, 0
14, 195840, Note_on_c, 5, 74, 44
14, 195840, Note_on_c, 5, 62, 44
14, 195959, Note_on_c, 5, 74, 0
14, 195959, Note_on_c, 5, 62, 0
14, 196080, Note_on_c, 5, 62, 80
14, 196080, Note_on_c, 5, 74, 80
14, 196199, Note_on_c, 5, 62, 0
14, 196199, Note_on_c, 5, 74, 0
14, 197520, Note_on_c, 5, 69, 80
14, 197520, Note_on_c, 5, 57, 80
14, 197699, Note_on_c, 5, 69, 0
14, 197699, Note_on_c, 5, 57, 0
14, 216960, Note_on_c, 5, 69, 80
14, 216960, Note_on_c, 5, 57, 80
14, 217199, Note_on_c, 5, 69, 0
14, 217199, Note_on_c, 5, 57, 0
14, 217920, Note_on_c, 5, 69, 80
14, 217920, Note_on_c, 5, 57, 80
14, 218159, Note_on_c, 5, 69, 0
14, 218159, Note_on_c, 5, 57, 0
14, 218880, Note_on_c, 5, 69, 80
14, 218880, Note_on_c, 5, 57, 80
14, 219119, Note_on_c, 5, 69, 0
14, 219119, Note_on_c, 5, 57, 0
14, 219360, Note_on_c, 5, 69, 80
14, 219360, Note_on_c, 5, 57, 80
14, 219584, Note_on_c, 5, 69, 0
14, 219584, Note_on_c, 5, 57, 0
14, 219600, Note_on_c, 5, 57, 80
14, 219600, Note_on_c, 5, 69, 80
14, 219824, Note_on_c, 5, 57, 0
14, 219824, Note_on_c, 5, 69, 0
14, 219840, Note_on_c, 5, 69, 80
14, 219840, Note_on_c, 5, 57, 80
14, 220064, Note_on_c, 5, 69, 0
14, 220064, Note_on_c, 5, 57, 0
14, 220080, Note_on_c, 5, 69, 80
14, 220080, Note_on_c, 5, 57, 80
14, 220304, Note_on_c, 5, 69, 0
14, 220304, Note_on_c, 5, 57, 0
14, 220320, Note_on_c, 5, 69, 80
14, 220320, Note_on_c, 5, 57, 80
14, 220559, Note_on_c, 5, 69, 0
14, 220559, Note_on_c, 5, 57, 0
14, 220680, Note_on_c, 5, 57, 80
14, 220680, Note_on_c, 5, 69, 80
14, 220784, Note_on_c, 5, 57, 0
14, 220784, Note_on_c, 5, 69, 0
14, 220800, Note_on_c, 5, 57, 80
14, 220800, Note_on_c, 5, 69, 80
14, 221039, Note_on_c, 5, 57, 0
14, 221039, Note_on_c, 5, 69, 0
14, 221160, Note_on_c, 5, 69, 80
14, 221160, Note_on_c, 5, 57, 80
14, 221264, Note_on_c, 5, 69, 0
14, 221264, Note_on_c, 5, 57, 0
14, 221280, Note_on_c, 5, 69, 80
14, 221280, Note_on_c, 5, 57, 80
14, 221519, Note_on_c, 5, 69, 0
14, 221519, Note_on_c, 5, 57, 0
14, 221640, Note_on_c, 5, 69, 80
14, 221640, Note_on_c, 5, 57, 80
14, 221744, Note_on_c, 5, 69, 0
14, 221744, Note_on_c, 5, 57, 0
14, 221760, Note_on_c, 5, 69, 80
14, 221760, Note_on_c, 5, 57, 80
14, 221999, Note_on_c, 5, 69, 0
14, 221999, Note_on_c, 5, 57, 0
14, 222120, Note_on_c, 5, 57, 80
14, 222120, Note_on_c, 5, 69, 80
14, 222224, Note_on_c, 5, 57, 0
14, 222224, Note_on_c, 5, 69, 0
14, 222240, Note_on_c, 5, 57, 80
14, 222240, Note_on_c, 5, 69, 80
14, 222479, Note_on_c, 5, 57, 0
14, 222479, Note_on_c, 5, 69, 0
14, 222600, Note_on_c, 5, 69, 80
14, 222600, Note_on_c, 5, 57, 80
14, 222704, Note_on_c, 5, 69, 0
14, 222704, Note_on_c, 5, 57, 0
14, 222720, Note_on_c, 5, 57, 80
14, 222720, Note_on_c, 5, 69, 80
14, 222959, Note_on_c, 5, 57, 0
14, 222959, Note_on_c, 5, 69, 0
14, 223080, Note_on_c, 5, 74, 80
14, 223080, Note_on_c, 5, 62, 80
14, 223184, Note_on_c, 5, 74, 0
14, 223184, Note_on_c, 5, 62, 0
14, 223200, Note_on_c, 5, 62, 80
14, 223200, Note_on_c, 5, 74, 80
14, 223439, Note_on_c, 5, 62, 0
14, 223439, Note_on_c, 5, 74, 0
14, 223560, Note_on_c, 5, 74, 80
14, 223560, Note_on_c, 5, 62, 80
14, 223664, Note_on_c, 5, 74, 0
14, 223664, Note_on_c, 5, 62, 0
14, 223680, Note_on_c, 5, 57, 80
14, 223680, Note_on_c, 5, 69, 80
14, 223919, Note_on_c, 5, 57, 0
14, 223919, Note_on_c, 5, 69, 0
14, 224040, Note_on_c, 5, 74, 80
14, 224040, Note_on_c, 5, 62, 80
14, 224144, Note_on_c, 5, 74, 0
14, 224144, Note_on_c, 5, 62, 0
14, 224160, Note_on_c, 5, 74, 80
14, 224160, Note_on_c, 5, 62, 80
14, 224399, Note_on_c, 5, 74, 0
14, 224399, Note_on_c, 5, 62, 0
14, 224520, Note_on_c, 5, 69, 80
14, 224520, Note_on_c, 5, 57, 80
14, 224624, Note_on_c, 5, 69, 0
14, 224624, Note_on_c, 5, 57, 0
14, 224640, Note_on_c, 5, 69, 80
14, 224640, Note_on_c, 5, 57, 80
14, 224879, Note_on_c, 5, 69, 0
14, 224879, Note_on_c, 5, 57, 0
14, 225000, Note_on_c, 5, 62, 80
14, 225000, Note_on_c, 5, 74, 80
14, 225104, Note_on_c, 5, 62, 0
14, 225104, Note_on_c, 5, 74, 0
14, 225120, Note_on_c, 5, 74, 80
14, 225120, Note_on_c, 5, 62, 80
14, 225359, Note_on_c, 5, 74, 0
14, 225359, Note_on_c, 5, 62, 0
14, 225480, Note_on_c, 5, 74, 80
14, 225480, Note_on_c, 5, 62, 80
14, 225584, Note_on_c, 5, 74, 0
14, 225584, Note_on_c, 5, 62, 0
14, 225600, Note_on_c, 5, 74, 80
14, 225600, Note_on_c, 5, 62, 80
14, 225839, Note_on_c, 5, 74, 0
14, 225839, Note_on_c, 5, 62, 0
14, 225960, Note_on_c, 5, 74, 80
14, 225960, Note_on_c, 5, 62, 80
14, 226064, Note_on_c, 5, 74, 0
14, 226064, Note_on_c, 5, 62, 0
14, 226080, Note_on_c, 5, 74, 80
14, 226080, Note_on_c, 5, 62, 80
14, 226319, Note_on_c, 5, 74, 0
14, 226319, Note_on_c, 5, 62, 0
14, 226560, Note_on_c, 5, 69, 80
14, 226560, Note_on_c, 5, 57, 80
14, 226799, Note_on_c, 5, 69, 0
14, 226799, Note_on_c, 5, 57, 0
14, 226920, Note_on_c, 5, 69, 80
14, 226920, Note_on_c, 5, 57, 80
14, 227024, Note_on_c, 5, 69, 0
14, 227024, Note_on_c, 5, 57, 0
14, 227040, Note_on_c, 5, 57, 80
14, 227040, Note_on_c, 5, 69, 80
14, 227279, Note_on_c, 5, 57, 0
14, 227279, Note_on_c, 5, 69, 0
14, 227400, Note_on_c, 5, 69, 80
14, 227400, Note_on_c, 5, 57, 80
14, 227504, Note_on_c, 5, 69, 0
14, 227504, Note_on_c, 5, 57, 0
14, 227520, Note_on_c, 5, 62, 80
14, 227759, Note_on_c, 5, 62, 0
14, 227880, Note_on_c, 5, 57, 80
14, 227880, Note_on_c, 5, 69, 80
14, 227984, Note_on_c, 5, 57, 0
14, 227984, Note_on_c, 5, 69, 0
14, 228000, Note_on_c, 5, 62, 80
14, 228239, Note_on_c, 5, 62, 0
14, 243840, Note_on_c, 5, 69, 80
14, 243840, Note_on_c, 5, 57, 80
14, 244079, Note_on_c, 5, 69, 0
14, 244079, Note_on_c, 5, 57, 0
14, 244560, Note_on_c, 5, 57, 80
14, 244560, Note_on_c, 5, 69, 80
14, 244664, Note_on_c, 5, 57, 0
14, 244664, Note_on_c, 5, 69, 0
14, 244680, Note_on_c, 5, 57, 80
14, 244680, Note_on_c, 5, 69, 80
14, 244784, Note_on_c, 5, 57, 0
14, 244784, Note_on_c, 5, 69, 0
14, 244800, Note_on_c, 5, 69, 80
14, 244800, Note_on_c, 5, 57, 80
14, 245039, Note_on_c, 5, 69, 0
14, 245039, Note_on_c, 5, 57, 0
14, 245520, Note_on_c, 5, 69, 80
14, 245520, Note_on_c, 5, 57, 80
14, 245624, Note_on_c, 5, 69, 0
14, 245624, Note_on_c, 5, 57, 0
14, 245640, Note_on_c, 5, 69, 80
14, 245640, Note_on_c, 5, 57, 80
14, 245744, Note_on_c, 5, 69, 0
14, 245744, Note_on_c, 5, 57, 0
14, 245760, Note_on_c, 5, 57, 80
14, 245760, Note_on_c, 5, 69, 80
14, 245999, Note_on_c, 5, 57, 0
14, 245999, Note_on_c, 5, 69, 0
14, 247200, Note_on_c, 5, 57, 80
14, 247200, Note_on_c, 5, 69, 80
14, 247439, Note_on_c, 5, 57, 0
14, 247439, Note_on_c, 5, 69, 0
14, 247440, Note_on_c, 5, 57, 80
14, 247440, Note_on_c, 5, 69, 80
14, 247544, Note_on_c, 5, 57, 0
14, 247544, Note_on_c, 5, 69, 0
14, 247560, Note_on_c, 5, 57, 80
14, 247560, Note_on_c, 5, 69, 80
14, 247664, Note_on_c, 5, 57, 0
14, 247664, Note_on_c, 5, 69, 0
14, 247680, Note_on_c, 5, 62, 80
14, 247680, Note_on_c, 5, 74, 80
14, 247919, Note_on_c, 5, 62, 0
14, 247919, Note_on_c, 5, 74, 0
14, 248400, Note_on_c, 5, 74, 80
14, 248400, Note_on_c, 5, 62, 80
14, 248624, Note_on_c, 5, 74, 0
14, 248624, Note_on_c, 5, 62, 0
14, 248640, Note_on_c, 5, 57, 80
14, 248640, Note_on_c, 5, 69, 80
14, 248879, Note_on_c, 5, 57, 0
14, 248879, Note_on_c, 5, 69, 0
14, 249360, Note_on_c, 5, 57, 53
14, 249360, Note_on_c, 5, 69, 53
14, 249464, Note_on_c, 5, 57, 0
14, 249464, Note_on_c, 5, 69, 0
14, 249480, Note_on_c, 5, 69, 49
14, 249480, Note_on_c, 5, 57, 49
14, 249584, Note_on_c, 5, 69, 0
14, 249584, Note_on_c, 5, 57, 0
14, 249600, Note_on_c, 5, 69, 44
14, 249600, Note_on_c, 5, 57, 44
14, 249839, Note_on_c, 5, 69, 0
14, 249839, Note_on_c, 5, 57, 0
14, 250320, Note_on_c, 5, 57, 44
14, 250320, Note_on_c, 5, 69, 44
14, 250424, Note_on_c, 5, 57, 0
14, 250424, Note_on_c, 5, 69, 0
14, 250440, Note_on_c, 5, 57, 44
14, 250440, Note_on_c, 5, 69, 44
14, 250544, Note_on_c, 5, 57, 0
14, 250544, Note_on_c, 5, 69, 0
14, 250560, Note_on_c, 5, 69, 44
14, 250560, Note_on_c, 5, 57, 44
14, 250799, Note_on_c, 5, 69, 0
14, 250799, Note_on_c, 5, 57, 0
14, 250920, Note_on_c, 5, 57, 44
14, 250920, Note_on_c, 5, 69, 44
14, 251024, Note_on_c, 5, 57, 0
14, 251024, Note_on_c, 5, 69, 0
14, 251040, Note_on_c, 5, 62, 44
14, 251279, Note_on_c, 5, 62, 0
14, 251520, Note_on_c, 5, 74, 32
14, 251520, Note_on_c, 5, 62, 32
14, 251759, Note_on_c, 5, 74, 0
14, 251759, Note_on_c, 5, 62, 0
14, 252240, Note_on_c, 5, 74, 32
14, 252240, Note_on_c, 5, 62, 32
14, 252344, Note_on_c, 5, 74, 0
14, 252344, Note_on_c, 5, 62, 0
14, 252360, Note_on_c, 5, 74, 32
14, 252360, Note_on_c, 5, 62, 32
14, 252464, Note_on_c, 5, 74, 0
14, 252464, Note_on_c, 5, 62, 0
14, 252480, Note_on_c, 5, 62, 32
14, 252480, Note_on_c, 5, 74, 32
14, 252719, Note_on_c, 5, 62, 0
14, 252719, Note_on_c, 5, 74, 0
14, 253200, Note_on_c, 5, 62, 32
14, 253200, Note_on_c, 5, 74, 32
14, 253304, Note_on_c, 5, 62, 0
14, 253304, Note_on_c, 5, 74, 0
14, 253320, Note_on_c, 5, 62, 32
14, 253320, Note_on_c, 5, 74, 32
14, 253424, Note_on_c, 5, 62, 0
14, 253424, Note_on_c, 5, 74, 0
14, 253440, Note_on_c, 5, 69, 32
14, 253440, Note_on_c, 5, 57, 32
14, 253679, Note_on_c, 5, 69, 0
14, 253679, Note_on_c, 5, 57, 0
14, 254160, Note_on_c, 5, 57, 32
14, 254160, Note_on_c, 5, 69, 32
14, 254264, Note_on_c, 5, 57, 0
14, 254264, Note_on_c, 5, 69, 0
14, 254280, Note_on_c, 5, 57, 32
14, 254280, Note_on_c, 5, 69, 32
14, 254384, Note_on_c, 5, 57, 0
14, 254384, Note_on_c, 5, 69, 0
14, 254400, Note_on_c, 5, 74, 32
14, 254400, Note_on_c, 5, 62, 32
14, 254519, Note_on_c, 5, 74, 0
14, 254519, Note_on_c, 5, 62, 0
14, 254640, Note_on_c, 5, 57, 32
14, 254640, Note_on_c, 5, 69, 32
14, 254759, Note_on_c, 5, 57, 0
14, 254759, Note_on_c, 5, 69, 0
14, 254880, Note_on_c, 5, 74, 32
14, 254880, Note_on_c, 5, 62, 32
14, 254999, Note_on_c, 5, 74, 0
14, 254999, Note_on_c, 5, 62, 0
14, 270480, Note_on_c, 5, 57, 80
14, 270480, Note_on_c, 5, 69, 80
14, 270704, Note_on_c, 5, 57, 0
14, 270704, Note_on_c, 5, 69, 0
14, 270720, Note_on_c, 5, 57, 80
14, 270720, Note_on_c, 5, 69, 80
14, 270929, Note_on_c, 5, 57, 0
14, 270929, Note_on_c, 5, 69, 0
14, 270960, Note_on_c, 5, 57, 80
14, 270960, Note_on_c, 5, 69, 80
14, 271169, Note_on_c, 5, 57, 0
14, 271169, Note_on_c, 5, 69, 0
14, 271200, Note_on_c, 5, 57, 80
14, 271200, Note_on_c, 5, 69, 80
14, 271409, Note_on_c, 5, 57, 0
14, 271409, Note_on_c, 5, 69, 0
14, 271440, Note_on_c, 5, 57, 80
14, 271440, Note_on_c, 5, 69, 80
14, 271619, Note_on_c, 5, 57, 0
14, 271619, Note_on_c, 5, 69, 0
14, 271680, Note_on_c, 5, 69, 80
14, 271680, Note_on_c, 5, 57, 80
14, 271889, Note_on_c, 5, 69, 0
14, 271889, Note_on_c, 5, 57, 0
14, 271920, Note_on_c, 5, 69, 80
14, 271920, Note_on_c, 5, 57, 80
14, 272129, Note_on_c, 5, 69, 0
14, 272129, Note_on_c, 5, 57, 0
14, 272160, Note_on_c, 5, 69, 80
14, 272160, Note_on_c, 5, 57, 80
14, 272369, Note_on_c, 5, 69, 0
14, 272369, Note_on_c, 5, 57, 0
14, 272400, Note_on_c, 5, 57, 80
14, 272400, Note_on_c, 5, 69, 80
14, 272579, Note_on_c, 5, 57, 0
14, 272579, Note_on_c, 5, 69, 0
14, 272640, Note_on_c, 5, 69, 80
14, 272640, Note_on_c, 5, 57, 80
14, 272849, Note_on_c, 5, 69, 0
14, 272849, Note_on_c, 5, 57, 0
14, 272880, Note_on_c, 5, 69, 80
14, 272880, Note_on_c, 5, 57, 80
14, 273089, Note_on_c, 5, 69, 0
14, 273089, Note_on_c, 5, 57, 0
14, 273120, Note_on_c, 5, 69, 80
14, 273120, Note_on_c, 5, 57, 80
14, 273329, Note_on_c, 5, 69, 0
14, 273329, Note_on_c, 5, 57, 0
14, 273360, Note_on_c, 5, 57, 80
14, 273360, Note_on_c, 5, 69, 80
14, 273539, Note_on_c, 5, 57, 0
14, 273539, Note_on_c, 5, 69, 0
14, 273600, Note_on_c, 5, 69, 80
14, 273600, Note_on_c, 5, 57, 80
14, 273809, Note_on_c, 5, 69, 0
14, 273809, Note_on_c, 5, 57, 0
14, 273840, Note_on_c, 5, 57, 80
14, 273840, Note_on_c, 5, 69, 80
14, 274049, Note_on_c, 5, 57, 0
14, 274049, Note_on_c, 5, 69, 0
14, 274080, Note_on_c, 5, 57, 80
14, 274080, Note_on_c, 5, 69, 80
14, 274289, Note_on_c, 5, 57, 0
14, 274289, Note_on_c, 5, 69, 0
14, 274320, Note_on_c, 5, 69, 80
14, 274320, Note_on_c, 5, 57, 80
14, 274499, Note_on_c, 5, 69, 0
14, 274499, Note_on_c, 5, 57, 0
14, 274560, Note_on_c, 5, 57, 80
14, 274560, Note_on_c, 5, 69, 80
14, 274769, Note_on_c, 5, 57, 0
14, 274769, Note_on_c, 5, 69, 0
14, 274800, Note_on_c, 5, 69, 80
14, 274800, Note_on_c, 5, 62, 80
14, 275009, Note_on_c, 5, 69, 0
14, 275009, Note_on_c, 5, 62, 0
14, 275040, Note_on_c, 5, 69, 80
14, 275040, Note_on_c, 5, 62, 80
14, 275249, Note_on_c, 5, 69, 0
14, 275249, Note_on_c, 5, 62, 0
14, 275280, Note_on_c, 5, 62, 80
14, 275280, Note_on_c, 5, 69, 80
14, 275459, Note_on_c, 5, 62, 0
14, 275459, Note_on_c, 5, 69, 0
14, 275520, Note_on_c, 5, 62, 80
14, 275520, Note_on_c, 5, 69, 80
14, 275744, Note_on_c, 5, 62, 0
14, 275744, Note_on_c, 5, 69, 0
14, 275760, Note_on_c, 5, 62, 80
14, 275760, Note_on_c, 5, 69, 80
14, 275984, Note_on_c, 5, 62, 0
14, 275984, Note_on_c, 5, 69, 0
14, 276000, Note_on_c, 5, 62, 80
14, 276000, Note_on_c, 5, 69, 80
14, 276224, Note_on_c, 5, 62, 0
14, 276224, Note_on_c, 5, 69, 0
14, 276240, Note_on_c, 5, 69, 80
14, 276240, Note_on_c, 5, 62, 80
14, 276464, Note_on_c, 5, 69, 0
14, 276464, Note_on_c, 5, 62, 0
14, 276480, Note_on_c, 5, 69, 80
14, 276480, Note_on_c, 5, 62, 80
14, 276704, Note_on_c, 5, 69, 0
14, 276704, Note_on_c, 5, 62, 0
14, 276720, Note_on_c, 5, 62, 80
14, 276720, Note_on_c, 5, 69, 80
14, 276944, Note_on_c, 5, 62, 0
14, 276944, Note_on_c, 5, 69, 0
14, 276960, Note_on_c, 5, 62, 80
14, 276960, Note_on_c, 5, 69, 80
14, 277184, Note_on_c, 5, 62, 0
14, 277184, Note_on_c, 5, 69, 0
14, 277200, Note_on_c, 5, 62, 80
14, 277200, Note_on_c, 5, 74, 80
14, 277424, Note_on_c, 5, 62, 0
14, 277424, Note_on_c, 5, 74, 0
14, 277440, Note_on_c, 5, 69, 80
14, 277440, Note_on_c, 5, 76, 80
14, 277679, Note_on_c, 5, 69, 0
14, 277679, Note_on_c, 5, 76, 0
14, 277800, Note_on_c, 5, 66, 80
14, 277800, Note_on_c, 5, 74, 80
14, 277904, Note_on_c, 5, 66, 0
14, 277904, Note_on_c, 5, 74, 0
14, 277920, Note_on_c, 5, 74, 80
14, 277920, Note_on_c, 5, 66, 80
14, 278144, Note_on_c, 5, 74, 0
14, 278144, Note_on_c, 5, 66, 0
14, 278160, Note_on_c, 5, 62, 80
14, 278160, Note_on_c, 5, 69, 80
14, 278384, Note_on_c, 5, 62, 0
14, 278384, Note_on_c, 5, 69, 0
14, 278400, Note_on_c, 5, 62, 80
14, 278400, Note_on_c, 5, 69, 80
14, 278639, Note_on_c, 5, 62, 0
14, 278639, Note_on_c, 5, 69, 0
14, 278880, Note_on_c, 5, 62, 80
14, 278880, Note_on_c, 5, 69, 80
14, 279119, Note_on_c, 5, 62, 0
14, 279119, Note_on_c, 5, 69, 0
14, 279360, Note_on_c, 5, 62, 80
14, 279360, Note_on_c, 5, 74, 80
14, 279599, Note_on_c, 5, 62, 0
14, 279599, Note_on_c, 5, 74, 0
14, 279840, Note_on_c, 5, 74, 80
14, 279840, Note_on_c, 5, 62, 80
14, 280079, Note_on_c, 5, 74, 0
14, 280079, Note_on_c, 5, 62, 0
14, 280320, Note_on_c, 5, 69, 80
14, 280320, Note_on_c, 5, 57, 80
14, 280559, Note_on_c, 5, 69, 0
14, 280559, Note_on_c, 5, 57, 0
14, 280800, Note_on_c, 5, 76, 80
14, 280800, Note_on_c, 5, 69, 80
14, 281264, Note_on_c, 5, 76, 0
14, 281264, Note_on_c, 5, 69, 0
14, 281280, Note_on_c, 5, 74, 80
14, 281280, Note_on_c, 5, 66, 80
14, 282224, Note_on_c, 5, 74, 0
14, 282224, Note_on_c, 5, 66, 0
14, 282240, Note_on_c, 5, 76, 80
14, 282599, Note_on_c, 5, 76, 0
14, 282720, Note_on_c, 5, 76, 80
14, 283079, Note_on_c, 5, 76, 0
14, 283200, Note_on_c, 5, 81, 92
14, 283200, Note_on_c, 5, 69, 92
14, 284144, Note_on_c, 5, 81, 0
14, 284144, Note_on_c, 5, 69, 0
14, 284160, Note_on_c, 5, 76, 92
14, 284519, Note_on_c, 5, 76, 0
14, 284640, Note_on_c, 5, 76, 92
14, 284999, Note_on_c, 5, 76, 0
14, 285120, Note_on_c, 5, 69, 92
14, 285120, Note_on_c, 5, 81, 92
14, 286064, Note_on_c, 5, 69, 0
14, 286064, Note_on_c, 5, 81, 0
14, 286080, Note_on_c, 5, 69, 92
14, 286080, Note_on_c, 5, 81, 92
14, 286439, Note_on_c, 5, 69, 0
14, 286439, Note_on_c, 5, 81, 0
14, 286560, Note_on_c, 5, 69, 92
14, 286560, Note_on_c, 5, 81, 92
14, 286919, Note_on_c, 5, 69, 0
14, 286919, Note_on_c, 5, 81, 0
14, 287040, Note_on_c, 5, 69, 92
14, 287040, Note_on_c, 5, 81, 92
14, 288959, Note_on_c, 5, 69, 0
14, 288959, Note_on_c, 5, 81, 0
14, 441600, Note_on_c, 5, 62, 92
14, 441600, Note_on_c, 5, 74, 92
14, 441839, Note_on_c, 5, 62, 0
14, 441839, Note_on_c, 5, 74, 0
14, 441960, Note_on_c, 5, 74, 92
14, 441960, Note_on_c, 5, 62, 92
14, 442184, Note_on_c, 5, 74, 0
14, 442184, Note_on_c, 5, 62, 0
14, 442200, Note_on_c, 5, 62, 92
14, 442200, Note_on_c, 5, 74, 92
14, 442304, Note_on_c, 5, 62, 0
14, 442304, Note_on_c, 5, 74, 0
14, 442320, Note_on_c, 5, 62, 92
14, 442320, Note_on_c, 5, 74, 92
14, 442559, Note_on_c, 5, 62, 0
14, 442559, Note_on_c, 5, 74, 0
14, 442680, Note_on_c, 5, 62, 92
14, 442680, Note_on_c, 5, 74, 92
14, 442904, Note_on_c, 5, 62, 0
14, 442904, Note_on_c, 5, 74, 0
14, 442920, Note_on_c, 5, 74, 92
14, 442920, Note_on_c, 5, 62, 92
14, 443024, Note_on_c, 5, 74, 0
14, 443024, Note_on_c, 5, 62, 0
14, 443040, Note_on_c, 5, 69, 92
14, 443040, Note_on_c, 5, 57, 92
14, 443279, Note_on_c, 5, 69, 0
14, 443279, Note_on_c, 5, 57, 0
14, 443400, Note_on_c, 5, 57, 92
14, 443400, Note_on_c, 5, 69, 92
14, 443624, Note_on_c, 5, 57, 0
14, 443624, Note_on_c, 5, 69, 0
14, 443640, Note_on_c, 5, 69, 92
14, 443640, Note_on_c, 5, 57, 92
14, 443744, Note_on_c, 5, 69, 0
14, 443744, Note_on_c, 5, 57, 0
14, 443760, Note_on_c, 5, 69, 92
14, 443760, Note_on_c, 5, 57, 92
14, 443999, Note_on_c, 5, 69, 0
14, 443999, Note_on_c, 5, 57, 0
14, 444120, Note_on_c, 5, 69, 92
14, 444120, Note_on_c, 5, 57, 92
14, 444344, Note_on_c, 5, 69, 0
14, 444344, Note_on_c, 5, 57, 0
14, 444360, Note_on_c, 5, 57, 92
14, 444360, Note_on_c, 5, 69, 92
14, 444464, Note_on_c, 5, 57, 0
14, 444464, Note_on_c, 5, 69, 0
14, 444480, Note_on_c, 5, 62, 92
14, 444480, Note_on_c, 5, 74, 92
14, 444719, Note_on_c, 5, 62, 0
14, 444719, Note_on_c, 5, 74, 0
14, 444840, Note_on_c, 5, 57, 92
14, 444840, Note_on_c, 5, 69, 92
14, 445064, Note_on_c, 5, 57, 0
14, 445064, Note_on_c, 5, 69, 0
14, 445080, Note_on_c, 5, 57, 92
14, 445080, Note_on_c, 5, 69, 92
14, 445184, Note_on_c, 5, 57, 0
14, 445184, Note_on_c, 5, 69, 0
14, 445200, Note_on_c, 5, 57, 92
14, 445200, Note_on_c, 5, 69, 92
14, 445439, Note_on_c, 5, 57, 0
14, 445439, Note_on_c, 5, 69, 0
14, 445560, Note_on_c, 5, 57, 92
14, 445560, Note_on_c, 5, 69, 92
14, 445784, Note_on_c, 5, 57, 0
14, 445784, Note_on_c, 5, 69, 0
14, 445800, Note_on_c, 5, 57, 92
14, 445800, Note_on_c, 5, 69, 92
14, 445904, Note_on_c, 5, 57, 0
14, 445904, Note_on_c, 5, 69, 0
14, 445920, Note_on_c, 5, 57, 92
14, 445920, Note_on_c, 5, 69, 92
14, 446159, Note_on_c, 5, 57, 0
14, 446159, Note_on_c, 5, 69, 0
14, 446280, Note_on_c, 5, 69, 92
14, 446280, Note_on_c, 5, 76, 92
14, 446504, Note_on_c, 5, 69, 0
14, 446504, Note_on_c, 5, 76, 0
14, 446520, Note_on_c, 5, 76, 92
14, 446520, Note_on_c, 5, 69, 92
14, 446624, Note_on_c, 5, 76, 0
14, 446624, Note_on_c, 5, 69, 0
14, 446640, Note_on_c, 5, 81, 92
14, 446640, Note_on_c, 5, 69, 92
14, 446864, Note_on_c, 5, 81, 0
14, 446864, Note_on_c, 5, 69, 0
14, 446880, Note_on_c, 5, 76, 92
14, 446880, Note_on_c, 5, 79, 92
14, 446984, Note_on_c, 5, 76, 0
14, 446984, Note_on_c, 5, 79, 0
14, 447000, Note_on_c, 5, 78, 92
14, 447000, Note_on_c, 5, 74, 92
14, 447224, Note_on_c, 5, 78, 0
14, 447224, Note_on_c, 5, 74, 0
14, 447240, Note_on_c, 5, 69, 92
14, 447240, Note_on_c, 5, 76, 92
14, 447344, Note_on_c, 5, 69, 0
14, 447344, Note_on_c, 5, 76, 0
14, 447360, Note_on_c, 5, 66, 92
14, 447360, Note_on_c, 5, 74, 92
14, 447599, Note_on_c, 5, 66, 0
14, 447599, Note_on_c, 5, 74, 0
14, 447720, Note_on_c, 5, 74, 92
14, 447720, Note_on_c, 5, 62, 92
14, 447944, Note_on_c, 5, 74, 0
14, 447944, Note_on_c, 5, 62, 0
14, 447960, Note_on_c, 5, 74, 92
14, 447960, Note_on_c, 5, 62, 92
14, 448064, Note_on_c, 5, 74, 0
14, 448064, Note_on_c, 5, 62, 0
14, 448080, Note_on_c, 5, 74, 92
14, 448080, Note_on_c, 5, 62, 92
14, 448319, Note_on_c, 5, 74, 0
14, 448319, Note_on_c, 5, 62, 0
14, 448440, Note_on_c, 5, 62, 92
14, 448440, Note_on_c, 5, 74, 92
14, 448664, Note_on_c, 5, 62, 0
14, 448664, Note_on_c, 5, 74, 0
14, 448680, Note_on_c, 5, 74, 92
14, 448680, Note_on_c, 5, 62, 92
14, 448784, Note_on_c, 5, 74, 0
14, 448784, Note_on_c, 5, 62, 0
14, 448800, Note_on_c, 5, 62, 92
14, 448800, Note_on_c, 5, 74, 92
14, 449039, Note_on_c, 5, 62, 0
14, 449039, Note_on_c, 5, 74, 0
14, 449160, Note_on_c, 5, 74, 92
14, 449160, Note_on_c, 5, 62, 92
14, 449384, Note_on_c, 5, 74, 0
14, 449384, Note_on_c, 5, 62, 0
14, 449400, Note_on_c, 5, 74, 92
14, 449400, Note_on_c, 5, 62, 92
14, 449504, Note_on_c, 5, 74, 0
14, 449504, Note_on_c, 5, 62, 0
14, 449520, Note_on_c, 5, 74, 92
14, 449520, Note_on_c, 5, 62, 92
14, 449759, Note_on_c, 5, 74, 0
14, 449759, Note_on_c, 5, 62, 0
14, 449880, Note_on_c, 5, 62, 92
14, 449880, Note_on_c, 5, 74, 92
14, 450104, Note_on_c, 5, 62, 0
14, 450104, Note_on_c, 5, 74, 0
14, 450120, Note_on_c, 5, 74, 92
14, 450120, Note_on_c, 5, 62, 92
14, 450224, Note_on_c, 5, 74, 0
14, 450224, Note_on_c, 5, 62, 0
14, 450240, Note_on_c, 5, 57, 92
14, 450240, Note_on_c, 5, 69, 92
14, 450479, Note_on_c, 5, 57, 0
14, 450479, Note_on_c, 5, 69, 0
14, 450600, Note_on_c, 5, 69, 92
14, 450600, Note_on_c, 5, 57, 92
14, 450824, Note_on_c, 5, 69, 0
14, 450824, Note_on_c, 5, 57, 0
14, 450840, Note_on_c, 5, 57, 92
14, 450840, Note_on_c, 5, 69, 92
14, 450944, Note_on_c, 5, 57, 0
14, 450944, Note_on_c, 5, 69, 0
14, 450960, Note_on_c, 5, 69, 92
14, 450960, Note_on_c, 5, 57, 92
14, 451199, Note_on_c, 5, 69, 0
14, 451199, Note_on_c, 5, 57, 0
14, 451320, Note_on_c, 5, 57, 92
14, 451320, Note_on_c, 5, 69, 92
14, 451544, Note_on_c, 5, 57, 0
14, 451544, Note_on_c, 5, 69, 0
14, 451560, Note_on_c, 5, 69, 92
14, 451560, Note_on_c, 5, 57, 92
14, 451664, Note_on_c, 5, 69, 0
14, 451664, Note_on_c, 5, 57, 0
14, 451680, Note_on_c, 5, 57, 92
14, 451680, Note_on_c, 5, 69, 92
14, 451919, Note_on_c, 5, 57, 0
14, 451919, Note_on_c, 5, 69, 0
14, 452040, Note_on_c, 5, 69, 92
14, 452040, Note_on_c, 5, 57, 92
14, 452264, Note_on_c, 5, 69, 0
14, 452264, Note_on_c, 5, 57, 0
14, 452280, Note_on_c, 5, 57, 92
14, 452280, Note_on_c, 5, 69, 92
14, 452384, Note_on_c, 5, 57, 0
14, 452384, Note_on_c, 5, 69, 0
14, 452400, Note_on_c, 5, 74, 92
14, 452400, Note_on_c, 5, 62, 92
14, 452624, Note_on_c, 5, 74, 0
14, 452624, Note_on_c, 5, 62, 0
14, 452640, Note_on_c, 5, 66, 92
14, 452640, Note_on_c, 5, 74, 92
14, 452744, Note_on_c, 5, 66, 0
14, 452744, Note_on_c, 5, 74, 0
14, 452760, Note_on_c, 5, 74, 92
14, 452760, Note_on_c, 5, 66, 92
14, 452984, Note_on_c, 5, 74, 0
14, 452984, Note_on_c, 5, 66, 0
14, 453000, Note_on_c, 5, 78, 92
14, 453000, Note_on_c, 5, 62, 92
14, 453104, Note_on_c, 5, 78, 0
14, 453104, Note_on_c, 5, 62, 0
14, 453120, Note_on_c, 5, 76, 92
14, 453120, Note_on_c, 5, 69, 92
14, 453359, Note_on_c, 5, 76, 0
14, 453359, Note_on_c, 5, 69, 0
14, 453480, Note_on_c, 5, 57, 92
14, 453480, Note_on_c, 5, 69, 92
14, 453704, Note_on_c, 5, 57, 0
14, 453704, Note_on_c, 5, 69, 0
14, 453720, Note_on_c, 5, 69, 92
14, 453720, Note_on_c, 5, 57, 92
14, 453824, Note_on_c, 5, 69, 0
14, 453824, Note_on_c, 5, 57, 0
14, 453840, Note_on_c, 5, 69, 92
14, 453840, Note_on_c, 5, 57, 92
14, 454079, Note_on_c, 5, 69, 0
14, 454079, Note_on_c, 5, 57, 0
14, 454200, Note_on_c, 5, 69, 92
14, 454200, Note_on_c, 5, 57, 92
14, 454424, Note_on_c, 5, 69, 0
14, 454424, Note_on_c, 5, 57, 0
14, 454440, Note_on_c, 5, 69, 92
14, 454440, Note_on_c, 5, 57, 92
14, 454544, Note_on_c, 5, 69, 0
14, 454544, Note_on_c, 5, 57, 0
14, 454560, Note_on_c, 5, 57, 92
14, 454560, Note_on_c, 5, 69, 92
14, 454799, Note_on_c, 5, 57, 0
14, 454799, Note_on_c, 5, 69, 0
14, 454920, Note_on_c, 5, 57, 92
14, 454920, Note_on_c, 5, 69, 92
14, 455144, Note_on_c, 5, 57, 0
14, 455144, Note_on_c, 5, 69, 0
14, 455160, Note_on_c, 5, 69, 92
14, 455160, Note_on_c, 5, 57, 92
14, 455264, Note_on_c, 5, 69, 0
14, 455264, Note_on_c, 5, 57, 0
14, 455280, Note_on_c, 5, 57, 92
14, 455280, Note_on_c, 5, 69, 92
14, 455519, Note_on_c, 5, 57, 0
14, 455519, Note_on_c, 5, 69, 0
14, 455640, Note_on_c, 5, 69, 92
14, 455640, Note_on_c, 5, 57, 92
14, 455864, Note_on_c, 5, 69, 0
14, 455864, Note_on_c, 5, 57, 0
14, 455880, Note_on_c, 5, 69, 92
14, 455880, Note_on_c, 5, 57, 92
14, 455984, Note_on_c, 5, 69, 0
14, 455984, Note_on_c, 5, 57, 0
14, 456000, Note_on_c, 5, 57, 92
14, 456000, Note_on_c, 5, 69, 92
14, 456239, Note_on_c, 5, 57, 0
14, 456239, Note_on_c, 5, 69, 0
14, 456360, Note_on_c, 5, 57, 92
14, 456360, Note_on_c, 5, 69, 92
14, 456584, Note_on_c, 5, 57, 0
14, 456584, Note_on_c, 5, 69, 0
14, 456600, Note_on_c, 5, 76, 92
14, 456704, Note_on_c, 5, 76, 0
14, 456720, Note_on_c, 5, 66, 92
14, 456720, Note_on_c, 5, 78, 92
14, 456959, Note_on_c, 5, 66, 0
14, 456959, Note_on_c, 5, 78, 0
14, 457080, Note_on_c, 5, 78, 92
14, 457080, Note_on_c, 5, 66, 92
14, 457304, Note_on_c, 5, 78, 0
14, 457304, Note_on_c, 5, 66, 0
14, 457320, Note_on_c, 5, 78, 92
14, 457320, Note_on_c, 5, 66, 92
14, 457424, Note_on_c, 5, 78, 0
14, 457424, Note_on_c, 5, 66, 0
14, 457440, Note_on_c, 5, 66, 92
14, 457440, Note_on_c, 5, 78, 92
14, 457679, Note_on_c, 5, 66, 0
14, 457679, Note_on_c, 5, 78, 0
14, 457800, Note_on_c, 5, 76, 92
14, 458024, Note_on_c, 5, 76, 0
14, 458040, Note_on_c, 5, 76, 92
14, 458144, Note_on_c, 5, 76, 0
14, 458160, Note_on_c, 5, 69, 92
14, 458399, Note_on_c, 5, 69, 0
14, 458520, Note_on_c, 5, 69, 92
14, 458520, Note_on_c, 5, 57, 92
14, 458744, Note_on_c, 5, 69, 0
14, 458744, Note_on_c, 5, 57, 0
14, 458760, Note_on_c, 5, 69, 92
14, 458760, Note_on_c, 5, 57, 92
14, 458864, Note_on_c, 5, 69, 0
14, 458864, Note_on_c, 5, 57, 0
14, 458880, Note_on_c, 5, 62, 92
14, 458880, Note_on_c, 5, 74, 92
14, 459119, Note_on_c, 5, 62, 0
14, 459119, Note_on_c, 5, 74, 0
14, 459240, Note_on_c, 5, 62, 92
14, 459240, Note_on_c, 5, 74, 92
14, 459464, Note_on_c, 5, 62, 0
14, 459464, Note_on_c, 5, 74, 0
14, 459480, Note_on_c, 5, 74, 92
14, 459480, Note_on_c, 5, 62, 92
14, 459584, Note_on_c, 5, 74, 0
14, 459584, Note_on_c, 5, 62, 0
14, 459600, Note_on_c, 5, 74, 92
14, 459600, Note_on_c, 5, 62, 92
14, 459839, Note_on_c, 5, 74, 0
14, 459839, Note_on_c, 5, 62, 0
14, 459960, Note_on_c, 5, 62, 92
14, 459960, Note_on_c, 5, 74, 92
14, 460184, Note_on_c, 5, 62, 0
14, 460184, Note_on_c, 5, 74, 0
14, 460200, Note_on_c, 5, 62, 92
14, 460200, Note_on_c, 5, 74, 92
14, 460304, Note_on_c, 5, 62, 0
14, 460304, Note_on_c, 5, 74, 0
14, 460320, Note_on_c, 5, 62, 92
14, 460320, Note_on_c, 5, 74, 92
14, 460559, Note_on_c, 5, 62, 0
14, 460559, Note_on_c, 5, 74, 0
14, 460680, Note_on_c, 5, 62, 92
14, 460680, Note_on_c, 5, 74, 92
14, 460904, Note_on_c, 5, 62, 0
14, 460904, Note_on_c, 5, 74, 0
14, 460920, Note_on_c, 5, 74, 92
14, 460920, Note_on_c, 5, 62, 92
14, 461024, Note_on_c, 5, 74, 0
14, 461024, Note_on_c, 5, 62, 0
14, 461040, Note_on_c, 5, 62, 92
14, 461040, Note_on_c, 5, 74, 92
14, 461279, Note_on_c, 5, 62, 0
14, 461279, Note_on_c, 5, 74, 0
14, 461400, Note_on_c, 5, 62, 92
14, 461400, Note_on_c, 5, 74, 92
14, 461624, Note_on_c, 5, 62, 0
14, 461624, Note_on_c, 5, 74, 0
14, 461640, Note_on_c, 5, 62, 92
14, 461640, Note_on_c, 5, 74, 92
14, 461744, Note_on_c, 5, 62, 0
14, 461744, Note_on_c, 5, 74, 0
14, 461760, Note_on_c, 5, 57, 92
14, 461760, Note_on_c, 5, 69, 92
14, 461999, Note_on_c, 5, 57, 0
14, 461999, Note_on_c, 5, 69, 0
14, 462120, Note_on_c, 5, 57, 92
14, 462120, Note_on_c, 5, 69, 92
14, 462344, Note_on_c, 5, 57, 0
14, 462344, Note_on_c, 5, 69, 0
14, 462360, Note_on_c, 5, 69, 92
14, 462360, Note_on_c, 5, 57, 92
14, 462464, Note_on_c, 5, 69, 0
14, 462464, Note_on_c, 5, 57, 0
14, 462480, Note_on_c, 5, 69, 92
14, 462480, Note_on_c, 5, 57, 92
14, 462719, Note_on_c, 5, 69, 0
14, 462719, Note_on_c, 5, 57, 0
14, 462840, Note_on_c, 5, 69, 92
14, 462840, Note_on_c, 5, 57, 92
14, 463064, Note_on_c, 5, 69, 0
14, 463064, Note_on_c, 5, 57, 0
14, 463080, Note_on_c, 5, 69, 92
14, 463080, Note_on_c, 5, 57, 92
14, 463184, Note_on_c, 5, 69, 0
14, 463184, Note_on_c, 5, 57, 0
14, 463200, Note_on_c, 5, 69, 92
14, 463200, Note_on_c, 5, 57, 92
14, 463439, Note_on_c, 5, 69, 0
14, 463439, Note_on_c, 5, 57, 0
14, 463560, Note_on_c, 5, 57, 92
14, 463560, Note_on_c, 5, 69, 92
14, 463784, Note_on_c, 5, 57, 0
14, 463784, Note_on_c, 5, 69, 0
14, 463800, Note_on_c, 5, 57, 92
14, 463800, Note_on_c, 5, 69, 92
14, 463904, Note_on_c, 5, 57, 0
14, 463904, Note_on_c, 5, 69, 0
14, 463920, Note_on_c, 5, 74, 92
14, 463920, Note_on_c, 5, 62, 92
14, 464144, Note_on_c, 5, 74, 0
14, 464144, Note_on_c, 5, 62, 0
14, 464160, Note_on_c, 5, 74, 92
14, 464160, Note_on_c, 5, 66, 92
14, 464264, Note_on_c, 5, 74, 0
14, 464264, Note_on_c, 5, 66, 0
14, 464280, Note_on_c, 5, 74, 92
14, 464280, Note_on_c, 5, 66, 92
14, 464504, Note_on_c, 5, 74, 0
14, 464504, Note_on_c, 5, 66, 0
14, 464520, Note_on_c, 5, 62, 92
14, 464520, Note_on_c, 5, 78, 92
14, 464624, Note_on_c, 5, 62, 0
14, 464624, Note_on_c, 5, 78, 0
14, 464640, Note_on_c, 5, 76, 92
14, 464640, Note_on_c, 5, 69, 92
14, 464879, Note_on_c, 5, 76, 0
14, 464879, Note_on_c, 5, 69, 0
14, 465000, Note_on_c, 5, 57, 92
14, 465000, Note_on_c, 5, 69, 92
14, 465224, Note_on_c, 5, 57, 0
14, 465224, Note_on_c, 5, 69, 0
14, 465240, Note_on_c, 5, 69, 92
14, 465240, Note_on_c, 5, 57, 92
14, 465344, Note_on_c, 5, 69, 0
14, 465344, Note_on_c, 5, 57, 0
14, 465360, Note_on_c, 5, 69, 92
14, 465360, Note_on_c, 5, 57, 92
14, 465599, Note_on_c, 5, 69, 0
14, 465599, Note_on_c, 5, 57, 0
14, 465720, Note_on_c, 5, 57, 92
14, 465720, Note_on_c, 5, 69, 92
14, 465944, Note_on_c, 5, 57, 0
14, 465944, Note_on_c, 5, 69, 0
14, 465960, Note_on_c, 5, 69, 92
14, 465960, Note_on_c, 5, 57, 92
14, 466064, Note_on_c, 5, 69, 0
14, 466064, Note_on_c, 5, 57, 0
14, 466080, Note_on_c, 5, 69, 92
14, 466080, Note_on_c, 5, 57, 92
14, 466319, Note_on_c, 5, 69, 0
14, 466319, Note_on_c, 5, 57, 0
14, 466440, Note_on_c, 5, 69, 92
14, 466440, Note_on_c, 5, 57, 92
14, 466664, Note_on_c, 5, 69, 0
14, 466664, Note_on_c, 5, 57, 0
14, 466680, Note_on_c, 5, 69, 92
14, 466680, Note_on_c, 5, 57, 92
14, 466784, Note_on_c, 5, 69, 0
14, 466784, Note_on_c, 5, 57, 0
14, 466800, Note_on_c, 5, 69, 92
14, 466800, Note_on_c, 5, 57, 92
14, 467039, Note_on_c, 5, 69, 0
14, 467039, Note_on_c, 5, 57, 0
14, 467160, Note_on_c, 5, 57, 92
14, 467160, Note_on_c, 5, 69, 92
14, 467384, Note_on_c, 5, 57, 0
14, 467384, Note_on_c, 5, 69, 0
14, 467400, Note_on_c, 5, 57, 92
14, 467400, Note_on_c, 5, 69, 92
14, 467504, Note_on_c, 5, 57, 0
14, 467504, Note_on_c, 5, 69, 0
14, 467520, Note_on_c, 5, 57, 92
14, 467520, Note_on_c, 5, 69, 92
14, 467759, Note_on_c, 5, 57, 0
14, 467759, Note_on_c, 5, 69, 0
14, 467880, Note_on_c, 5, 69, 92
14, 467880, Note_on_c, 5, 57, 92
14, 468104, Note_on_c, 5, 69, 0
14, 468104, Note_on_c, 5, 57, 0
14, 468120, Note_on_c, 5, 76, 92
14, 468224, Note_on_c, 5, 76, 0
14, 468240, Note_on_c, 5, 78, 92
14, 468240, Note_on_c, 5, 66, 92
14, 468479, Note_on_c, 5, 78, 0
14, 468479, Note_on_c, 5, 66, 0
14, 468600, Note_on_c, 5, 66, 92
14, 468600, Note_on_c, 5, 78, 92
14, 468824, Note_on_c, 5, 66, 0
14, 468824, Note_on_c, 5, 78, 0
14, 468840, Note_on_c, 5, 78, 92
14, 468840, Note_on_c, 5, 66, 92
14, 468944, Note_on_c, 5, 78, 0
14, 468944, Note_on_c, 5, 66, 0
14, 468960, Note_on_c, 5, 66, 92
14, 468960, Note_on_c, 5, 78, 92
14, 469199, Note_on_c, 5, 66, 0
14, 469199, Note_on_c, 5, 78, 0
14, 469320, Note_on_c, 5, 76, 92
14, 469544, Note_on_c, 5, 76, 0
14, 469560, Note_on_c, 5, 76, 92
14, 469664, Note_on_c, 5, 76, 0
14, 469680, Note_on_c, 5, 69, 92
14, 469919, Note_on_c, 5, 69, 0
14, 470040, Note_on_c, 5, 57, 92
14, 470040, Note_on_c, 5, 69, 92
14, 470264, Note_on_c, 5, 57, 0
14, 470264, Note_on_c, 5, 69, 0
14, 470280, Note_on_c, 5, 57, 92
14, 470280, Note_on_c, 5, 69, 92
14, 470384, Note_on_c, 5, 57, 0
14, 470384, Note_on_c, 5, 69, 0
14, 470400, Note_on_c, 5, 74, 92
14, 470400, Note_on_c, 5, 62, 92
14, 470639, Note_on_c, 5, 74, 0
14, 470639, Note_on_c, 5, 62, 0
14, 470760, Note_on_c, 5, 62, 92
14, 470760, Note_on_c, 5, 74, 92
14, 470984, Note_on_c, 5, 62, 0
14, 470984, Note_on_c, 5, 74, 0
14, 471000, Note_on_c, 5, 62, 92
14, 471000, Note_on_c, 5, 74, 92
14, 471104, Note_on_c, 5, 62, 0
14, 471104, Note_on_c, 5, 74, 0
14, 471120, Note_on_c, 5, 62, 92
14, 471120, Note_on_c, 5, 74, 92
14, 471359, Note_on_c, 5, 62, 0
14, 471359, Note_on_c, 5, 74, 0
14, 471480, Note_on_c, 5, 74, 92
14, 471480, Note_on_c, 5, 62, 92
14, 471704, Note_on_c, 5, 74, 0
14, 471704, Note_on_c, 5, 62, 0
14, 471720, Note_on_c, 5, 74, 92
14, 471720, Note_on_c, 5, 62, 92
14, 471824, Note_on_c, 5, 74, 0
14, 471824, Note_on_c, 5, 62, 0
14, 471840, Note_on_c, 5, 62, 92
14, 471840, Note_on_c, 5, 74, 92
14, 472079, Note_on_c, 5, 62, 0
14, 472079, Note_on_c, 5, 74, 0
14, 472200, Note_on_c, 5, 62, 92
14, 472200, Note_on_c, 5, 74, 92
14, 472424, Note_on_c, 5, 62, 0
14, 472424, Note_on_c, 5, 74, 0
14, 472440, Note_on_c, 5, 74, 92
14, 472440, Note_on_c, 5, 62, 92
14, 472544, Note_on_c, 5, 74, 0
14, 472544, Note_on_c, 5, 62, 0
14, 472560, Note_on_c, 5, 62, 92
14, 472560, Note_on_c, 5, 74, 92
14, 472799, Note_on_c, 5, 62, 0
14, 472799, Note_on_c, 5, 74, 0
14, 472920, Note_on_c, 5, 62, 92
14, 472920, Note_on_c, 5, 74, 92
14, 473144, Note_on_c, 5, 62, 0
14, 473144, Note_on_c, 5, 74, 0
14, 473160, Note_on_c, 5, 74, 92
14, 473160, Note_on_c, 5, 62, 92
14, 473264, Note_on_c, 5, 74, 0
14, 473264, Note_on_c, 5, 62, 0
14, 473280, Note_on_c, 5, 69, 92
14, 473280, Note_on_c, 5, 57, 92
14, 473519, Note_on_c, 5, 69, 0
14, 473519, Note_on_c, 5, 57, 0
14, 473640, Note_on_c, 5, 57, 92
14, 473640, Note_on_c, 5, 69, 92
14, 473864, Note_on_c, 5, 57, 0
14, 473864, Note_on_c, 5, 69, 0
14, 473880, Note_on_c, 5, 57, 92
14, 473880, Note_on_c, 5, 69, 92
14, 473984, Note_on_c, 5, 57, 0
14, 473984, Note_on_c, 5, 69, 0
14, 474000, Note_on_c, 5, 57, 92
14, 474000, Note_on_c, 5, 69, 92
14, 474239, Note_on_c, 5, 57, 0
14, 474239, Note_on_c, 5, 69, 0
14, 474360, Note_on_c, 5, 57, 92
14, 474360, Note_on_c, 5, 69, 92
14, 474584, Note_on_c, 5, 57, 0
14, 474584, Note_on_c, 5, 69, 0
14, 474600, Note_on_c, 5, 57, 92
14, 474600, Note_on_c, 5, 69, 92
14, 474704, Note_on_c, 5, 57, 0
14, 474704, Note_on_c, 5, 69, 0
14, 474720, Note_on_c, 5, 69, 92
14, 474720, Note_on_c, 5, 57, 92
14, 474959, Note_on_c, 5, 69, 0
14, 474959, Note_on_c, 5, 57, 0
14, 475080, Note_on_c, 5, 57, 92
14, 475080, Note_on_c, 5, 69, 92
14, 475304, Note_on_c, 5, 57, 0
14, 475304, Note_on_c, 5, 69, 0
14, 475320, Note_on_c, 5, 69, 92
14, 475320, Note_on_c, 5, 57, 92
14, 475424, Note_on_c, 5, 69, 0
14, 475424, Note_on_c, 5, 57, 0
14, 475440, Note_on_c, 5, 74, 92
14, 475440, Note_on_c, 5, 62, 92
14, 475679, Note_on_c, 5, 74, 0
14, 475679, Note_on_c, 5, 62, 0
14, 475800, Note_on_c, 5, 62, 92
14, 475800, Note_on_c, 5, 74, 92
14, 476024, Note_on_c, 5, 62, 0
14, 476024, Note_on_c, 5, 74, 0
14, 476040, Note_on_c, 5, 74, 92
14, 476040, Note_on_c, 5, 62, 92
14, 476144, Note_on_c, 5, 74, 0
14, 476144, Note_on_c, 5, 62, 0
14, 476160, Note_on_c, 5, 74, 100
14, 476160, Note_on_c, 5, 62, 100
14, 476399, Note_on_c, 5, 74, 0
14, 476399, Note_on_c, 5, 62, 0
14, 476520, Note_on_c, 5, 74, 92
14, 476520, Note_on_c, 5, 62, 92
14, 476744, Note_on_c, 5, 74, 0
14, 476744, Note_on_c, 5, 62, 0
14, 476760, Note_on_c, 5, 74, 92
14, 476760, Note_on_c, 5, 62, 92
14, 476864, Note_on_c, 5, 74, 0
14, 476864, Note_on_c, 5, 62, 0
14, 476880, Note_on_c, 5, 74, 92
14, 476880, Note_on_c, 5, 62, 92
14, 477119, Note_on_c, 5, 74, 0
14, 477119, Note_on_c, 5, 62, 0
14, 477240, Note_on_c, 5, 74, 92
14, 477240, Note_on_c, 5, 62, 92
14, 477464, Note_on_c, 5, 74, 0
14, 477464, Note_on_c, 5, 62, 0
14, 477480, Note_on_c, 5, 74, 92
14, 477480, Note_on_c, 5, 62, 92
14, 477584, Note_on_c, 5, 74, 0
14, 477584, Note_on_c, 5, 62, 0
14, 477600, Note_on_c, 5, 74, 100
14, 477600, Note_on_c, 5, 62, 100
14, 477839, Note_on_c, 5, 74, 0
14, 477839, Note_on_c, 5, 62, 0
14, 477960, Note_on_c, 5, 62, 92
14, 477960, Note_on_c, 5, 74, 92
14, 478184, Note_on_c, 5, 62, 0
14, 478184, Note_on_c, 5, 74, 0
14, 478200, Note_on_c, 5, 74, 92
14, 478200, Note_on_c, 5, 62, 92
14, 478304, Note_on_c, 5, 74, 0
14, 478304, Note_on_c, 5, 62, 0
14, 478320, Note_on_c, 5, 62, 92
14, 478320, Note_on_c, 5, 74, 92
14, 478559, Note_on_c, 5, 62, 0
14, 478559, Note_on_c, 5, 74, 0
14, 567600, Note_on_c, 5, 74, 92
14, 569019, Note_on_c, 5, 74, 0
14, 569040, Note_on_c, 5, 74, 92
14, 569120, Control_c, 5, 11, 107
14, 569759, Note_on_c, 5, 74, 0
14, 570478, Control_c, 5, 11, 127
14, 570480, Note_on_c, 5, 69, 92
14, 570560, Control_c, 5, 11, 107
14, 571199, Note_on_c, 5, 69, 0
14, 572638, Control_c, 5, 11, 127
14, 572640, Note_on_c, 5, 69, 80
14, 573339, Note_on_c, 5, 69, 0
14, 573360, Note_on_c, 5, 66, 80
14, 574079, Note_on_c, 5, 66, 0
14, 575520, Note_on_c, 5, 66, 80
14, 576219, Note_on_c, 5, 66, 0
14, 576240, Note_on_c, 5, 62, 80
14, 576959, Note_on_c, 5, 62, 0
14, 578400, Note_on_c, 5, 69, 80
14, 579119, Note_on_c, 5, 69, 0
14, 582720, Note_on_c, 5, 69, 80
14, 582720, Note_on_c, 5, 57, 80
14, 582959, Note_on_c, 5, 69, 0
14, 582959, Note_on_c, 5, 57, 0
14, 584880, Note_on_c, 5, 57, 80
14, 584880, Note_on_c, 5, 69, 80
14, 585119, Note_on_c, 5, 57, 0
14, 585119, Note_on_c, 5, 69, 0
14, 585600, Note_on_c, 5, 62, 80
14, 585600, Note_on_c, 5, 74, 80
14, 585839, Note_on_c, 5, 62, 0
14, 585839, Note_on_c, 5, 74, 0
14, 586320, Note_on_c, 5, 74, 80
14, 586320, Note_on_c, 5, 62, 80
14, 586559, Note_on_c, 5, 74, 0
14, 586559, Note_on_c, 5, 62, 0
14, 587040, Note_on_c, 5, 69, 80
14, 587040, Note_on_c, 5, 57, 80
14, 587279, Note_on_c, 5, 69, 0
14, 587279, Note_on_c, 5, 57, 0
14, 587760, Note_on_c, 5, 57, 80
14, 587760, Note_on_c, 5, 69, 80
14, 587999, Note_on_c, 5, 57, 0
14, 587999, Note_on_c, 5, 69, 0
14, 588480, Note_on_c, 5, 57, 80
14, 588480, Note_on_c, 5, 69, 80
14, 588719, Note_on_c, 5, 57, 0
14, 588719, Note_on_c, 5, 69, 0
14, 589200, Note_on_c, 5, 69, 80
14, 589200, Note_on_c, 5, 57, 80
14, 589439, Note_on_c, 5, 69, 0
14, 589439, Note_on_c, 5, 57, 0
14, 589920, Note_on_c, 5, 62, 80
14, 590159, Note_on_c, 5, 62, 0
14, 590400, Note_on_c, 5, 62, 80
14, 590619, Note_on_c, 5, 62, 0
14, 590640, Note_on_c, 5, 62, 80
14, 590879, Note_on_c, 5, 62, 0
14, 591120, Note_on_c, 5, 62, 80
14, 591360, Note_on_c, 5, 74, 80
14, 591599, Note_on_c, 5, 74, 0
14, 592059, Note_on_c, 5, 62, 0
14, 592080, Note_on_c, 5, 62, 80
14, 592080, Note_on_c, 5, 74, 80
14, 592319, Note_on_c, 5, 74, 0
14, 592779, Note_on_c, 5, 62, 0
14, 592800, Note_on_c, 5, 69, 80
14, 592800, Note_on_c, 5, 57, 80
14, 593039, Note_on_c, 5, 69, 0
14, 593039, Note_on_c, 5, 57, 0
14, 593520, Note_on_c, 5, 57, 80
14, 593520, Note_on_c, 5, 69, 80
14, 593759, Note_on_c, 5, 57, 0
14, 593759, Note_on_c, 5, 69, 0
14, 594240, Note_on_c, 5, 74, 80
14, 594240, Note_on_c, 5, 62, 80
14, 594479, Note_on_c, 5, 74, 0
14, 594479, Note_on_c, 5, 62, 0
14, 594960, Note_on_c, 5, 74, 80
14, 594960, Note_on_c, 5, 62, 80
14, 595199, Note_on_c, 5, 74, 0
14, 595199, Note_on_c, 5, 62, 0
14, 595680, Note_on_c, 5, 57, 80
14, 595680, Note_on_c, 5, 69, 80
14, 595919, Note_on_c, 5, 57, 0
14, 595919, Note_on_c, 5, 69, 0
14, 596400, Note_on_c, 5, 62, 80
14, 596400, Note_on_c, 5, 74, 80
14, 596639, Note_on_c, 5, 62, 0
14, 596639, Note_on_c, 5, 74, 0
14, 597120, Note_on_c, 5, 62, 80
14, 597120, Note_on_c, 5, 74, 80
14, 597359, Note_on_c, 5, 62, 0
14, 597359, Note_on_c, 5, 74, 0
14, 597840, Note_on_c, 5, 74, 80
14, 597840, Note_on_c, 5, 62, 80
14, 598079, Note_on_c, 5, 74, 0
14, 598079, Note_on_c, 5, 62, 0
14, 598560, Note_on_c, 5, 62, 80
14, 598560, Note_on_c, 5, 74, 80
14, 598799, Note_on_c, 5, 62, 0
14, 598799, Note_on_c, 5, 74, 0
14, 599280, Note_on_c, 5, 62, 80
14, 599280, Note_on_c, 5, 74, 80
14, 599519, Note_on_c, 5, 62, 0
14, 599519, Note_on_c, 5, 74, 0
14, 600000, Note_on_c, 5, 62, 80
14, 600000, Note_on_c, 5, 74, 80
14, 600239, Note_on_c, 5, 62, 0
14, 600239, Note_on_c, 5, 74, 0
14, 600720, Note_on_c, 5, 74, 80
14, 600720, Note_on_c, 5, 62, 80
14, 600959, Note_on_c, 5, 74, 0
14, 600959, Note_on_c, 5, 62, 0
14, 601440, Note_on_c, 5, 57, 80
14, 601440, Note_on_c, 5, 69, 80
14, 601679, Note_on_c, 5, 57, 0
14, 601679, Note_on_c, 5, 69, 0
14, 602160, Note_on_c, 5, 81, 92
14, 602880, Note_on_c, 5, 69, 92
14, 603119, Note_on_c, 5, 69, 0
14, 603579, Note_on_c, 5, 81, 0
14, 603600, Note_on_c, 5, 81, 80
14, 604319, Note_on_c, 5, 81, 0
14, 605040, Note_on_c, 5, 76, 80
14, 605739, Note_on_c, 5, 76, 0
14, 605760, Note_on_c, 5, 78, 80
14, 606240, Note_on_c, 5, 74, 80
14, 606459, Note_on_c, 5, 78, 0
14, 606459, Note_on_c, 5, 74, 0
14, 606480, Note_on_c, 5, 78, 80
14, 606480, Note_on_c, 5, 74, 80
14, 606719, Note_on_c, 5, 74, 0
14, 606960, Note_on_c, 5, 69, 80
14, 607179, Note_on_c, 5, 78, 0
14, 607179, Note_on_c, 5, 69, 0
14, 607200, Note_on_c, 5, 76, 80
14, 607200, Note_on_c, 5, 57, 80
14, 607439, Note_on_c, 5, 57, 0
14, 607919, Note_on_c, 5, 76, 0
14, 608640, Note_on_c, 5, 74, 80
14, 609339, Note_on_c, 5, 74, 0
14, 609360, Note_on_c, 5, 74, 80
14, 610079, Note_on_c, 5, 74, 0
14, 610800, Note_on_c, 5, 69, 80
14, 610800, Note_on_c, 5, 57, 80
14, 611039, Note_on_c, 5, 57, 0
14, 611499, Note_on_c, 5, 69, 0
14, 611520, Note_on_c, 5, 69, 80
14, 611520, Note_on_c, 5, 79, 92
14, 611600, Control_c, 5, 11, 107
14, 611759, Note_on_c, 5, 69, 0
14, 612219, Note_on_c, 5, 79, 0
14, 612238, Control_c, 5, 11, 127
14, 612240, Note_on_c, 5, 69, 80
14, 612240, Note_on_c, 5, 79, 92
14, 612320, Control_c, 5, 11, 107
14, 612479, Note_on_c, 5, 69, 0
14, 612939, Note_on_c, 5, 79, 0
14, 612958, Control_c, 5, 11, 127
14, 612960, Note_on_c, 5, 66, 92
14, 612960, Note_on_c, 5, 78, 92
14, 613679, Note_on_c, 5, 66, 0
14, 613679, Note_on_c, 5, 78, 0
14, 614400, Note_on_c, 5, 66, 92
14, 614400, Note_on_c, 5, 78, 92
14, 615099, Note_on_c, 5, 66, 0
14, 615099, Note_on_c, 5, 78, 0
14, 615120, Note_on_c, 5, 66, 92
14, 615120, Note_on_c, 5, 78, 92
14, 615819, Note_on_c, 5, 66, 0
14, 615819, Note_on_c, 5, 78, 0
14, 615840, Note_on_c, 5, 78, 92
14, 615840, Note_on_c, 5, 66, 92
14, 616559, Note_on_c, 5, 78, 0
14, 616559, Note_on_c, 5, 66, 0
14, 620160, Note_on_c, 5, 76, 92
14, 620160, Note_on_c, 5, 79, 92
14, 620399, Note_on_c, 5, 76, 0
14, 620859, Note_on_c, 5, 79, 0
14, 620880, Note_on_c, 5, 79, 92
14, 620880, Note_on_c, 5, 69, 92
14, 621119, Note_on_c, 5, 69, 0
14, 621579, Note_on_c, 5, 79, 0
14, 621600, Note_on_c, 5, 78, 92
14, 621600, Note_on_c, 5, 69, 92
14, 621839, Note_on_c, 5, 69, 0
14, 622319, Note_on_c, 5, 78, 0
14, 624480, Note_on_c, 5, 57, 92
14, 624480, Note_on_c, 5, 69, 92
14, 624939, Note_on_c, 5, 57, 0
14, 624939, Note_on_c, 5, 69, 0
14, 624960, Note_on_c, 5, 57, 92
14, 624960, Note_on_c, 5, 69, 92
14, 625199, Note_on_c, 5, 57, 0
14, 625199, Note_on_c, 5, 69, 0
14, 627360, Note_on_c, 5, 74, 92
14, 627360, Note_on_c, 5, 62, 92
14, 627819, Note_on_c, 5, 74, 0
14, 627819, Note_on_c, 5, 62, 0
14, 627840, Note_on_c, 5, 57, 92
14, 627840, Note_on_c, 5, 69, 92
14, 628079, Note_on_c, 5, 57, 0
14, 628079, Note_on_c, 5, 69, 0
14, 630240, Note_on_c, 5, 62, 92
14, 630240, Note_on_c, 5, 74, 92
14, 630479, Note_on_c, 5, 62, 0
14, 630479, Note_on_c, 5, 74, 0
14, 630960, Note_on_c, 5, 74, 92
14, 630960, Note_on_c, 5, 62, 92
14, 631199, Note_on_c, 5, 74, 0
14, 631199, Note_on_c, 5, 62, 0
14, 631680, Note_on_c, 5, 62, 92
14, 631680, Note_on_c, 5, 74, 92
14, 631919, Note_on_c, 5, 62, 0
14, 631919, Note_on_c, 5, 74, 0
14, 632400, Note_on_c, 5, 62, 92
14, 632400, Note_on_c, 5, 74, 92
14, 632639, Note_on_c, 5, 62, 0
14, 632639, Note_on_c, 5, 74, 0
14, 633120, Note_on_c, 5, 69, 92
14, 633120, Note_on_c, 5, 57, 92
14, 633359, Note_on_c, 5, 69, 0
14, 633359, Note_on_c, 5, 57, 0
14, 633840, Note_on_c, 5, 57, 92
14, 633840, Note_on_c, 5, 69, 92
14, 634079, Note_on_c, 5, 57, 0
14, 635259, Note_on_c, 5, 69, 0
14, 635280, Note_on_c, 5, 69, 92
14, 635999, Note_on_c, 5, 69, 0
14, 637440, Note_on_c, 5, 62, 92
14, 637440, Note_on_c, 5, 74, 92
14, 637679, Note_on_c, 5, 62, 0
14, 637679, Note_on_c, 5, 74, 0
14, 638160, Note_on_c, 5, 62, 92
14, 638160, Note_on_c, 5, 74, 92
14, 638399, Note_on_c, 5, 62, 0
14, 638399, Note_on_c, 5, 74, 0
14, 639600, Note_on_c, 5, 66, 92
14, 639600, Note_on_c, 5, 78, 92
14, 641019, Note_on_c, 5, 66, 0
14, 641019, Note_on_c, 5, 78, 0
14, 641040, Note_on_c, 5, 66, 92
14, 641040, Note_on_c, 5, 78, 92
14, 641759, Note_on_c, 5, 66, 0
14, 641759, Note_on_c, 5, 78, 0
14, 643200, Note_on_c, 5, 76, 92
14, 643899, Note_on_c, 5, 76, 0
14, 643920, Note_on_c, 5, 76, 92
14, 644639, Note_on_c, 5, 76, 0
14, 646080, Note_on_c, 5, 78, 92
14, 646080, Note_on_c, 5, 66, 92
14, 647259, Note_on_c, 5, 78, 0
14, 647259, Note_on_c, 5, 66, 0
14, 647280, Note_on_c, 5, 74, 92
14, 647280, Note_on_c, 5, 66, 92
14, 647499, Note_on_c, 5, 74, 0
14, 647499, Note_on_c, 5, 66, 0
14, 647520, Note_on_c, 5, 76, 92
14, 647520, Note_on_c, 5, 66, 92
14, 648219, Note_on_c, 5, 76, 0
14, 648219, Note_on_c, 5, 66, 0
14, 648240, Note_on_c, 5, 66, 92
14, 648720, Note_on_c, 5, 76, 92
14, 648939, Note_on_c, 5, 66, 0
14, 648939, Note_on_c, 5, 76, 0
14, 648960, Note_on_c, 5, 78, 92
14, 648960, Note_on_c, 5, 66, 92
14, 650139, Note_on_c, 5, 78, 0
14, 650139, Note_on_c, 5, 66, 0
14, 650160, Note_on_c, 5, 78, 92
14, 650160, Note_on_c, 5, 66, 92
14, 650379, Note_on_c, 5, 78, 0
14, 650379, Note_on_c, 5, 66, 0
14, 650400, Note_on_c, 5, 78, 92
14, 650400, Note_on_c, 5, 66, 92
14, 651579, Note_on_c, 5, 78, 0
14, 651579, Note_on_c, 5, 66, 0
14, 651600, Note_on_c, 5, 66, 92
14, 651600, Note_on_c, 5, 78, 92
14, 651819, Note_on_c, 5, 66, 0
14, 651819, Note_on_c, 5, 78, 0
14, 651840, Note_on_c, 5, 66, 92
14, 651840, Note_on_c, 5, 78, 92
14, 652079, Note_on_c, 5, 66, 0
14, 652079, Note_on_c, 5, 78, 0
14, 653280, Note_on_c, 5, 76, 92
14, 653979, Note_on_c, 5, 76, 0
14, 654000, Note_on_c, 5, 76, 92
14, 654699, Note_on_c, 5, 76, 0
14, 654720, Note_on_c, 5, 76, 92
14, 655419, Note_on_c, 5, 76, 0
14, 655440, Note_on_c, 5, 76, 92
14, 656139, Note_on_c, 5, 76, 0
14, 656160, Note_on_c, 5, 76, 92
14, 656859, Note_on_c, 5, 76, 0
14, 656880, Note_on_c, 5, 69, 80
14, 657579, Note_on_c, 5, 69, 0
14, 657600, Note_on_c, 5, 81, 80
14, 658299, Note_on_c, 5, 81, 0
14, 658320, Note_on_c, 5, 81, 80
14, 659019, Note_on_c, 5, 81, 0
14, 659040, Note_on_c, 5, 81, 92
14, 659760, Note_on_c, 5, 57, 80
14, 660479, Note_on_c, 5, 57, 0
14, 660480, Note_on_c, 5, 69, 80
14, 661199, Note_on_c, 5, 69, 0
14, 661200, Note_on_c, 5, 69, 80
14, 661919, Note_on_c, 5, 69, 0
14, 661920, Note_on_c, 5, 69, 92
14, 664799, Note_on_c, 5, 81, 0
14, 664799, Note_on_c, 5, 69, 0
14, 664800, Note_on_c, 5, 69, 92
14, 664800, Note_on_c, 5, 81, 92
14, 671259, Note_on_c, 5, 69, 0
14, 671259, Note_on_c, 5, 81, 0
14, 671280, Note_on_c, 5, 69, 92
14, 671280, Note_on_c, 5, 81, 92
14, 671979, Note_on_c, 5, 69, 0
14, 671979, Note_on_c, 5, 81, 0
14, 672000, Note_on_c, 5, 69, 92
14, 672000, Note_on_c, 5, 81, 92
14, 672699, Note_on_c, 5, 69, 0
14, 672699, Note_on_c, 5, 81, 0
14, 672720, Note_on_c, 5, 69, 92
14, 672720, Note_on_c, 5, 81, 92
14, 673419, Note_on_c, 5, 69, 0
14, 673419, Note_on_c, 5, 81, 0
14, 673440, Note_on_c, 5, 69, 92
14, 673440, Note_on_c, 5, 81, 92
14, 676319, Note_on_c, 5, 69, 0
14, 676319, Note_on_c, 5, 81, 0
14, 697920, Note_on_c, 5, 81, 80
14, 697920, Note_on_c, 5, 69, 80
14, 698619, Note_on_c, 5, 81, 0
14, 698619, Note_on_c, 5, 69, 0
14, 698640, Note_on_c, 5, 57, 92
14, 698640, Note_on_c, 5, 69, 92
14, 698720, Control_c, 5, 11, 107
14, 700059, Note_on_c, 5, 57, 0
14, 700059, Note_on_c, 5, 69, 0
14, 700080, Note_on_c, 5, 69, 92
14, 700080, Note_on_c, 5, 57, 92
14, 700799, Note_on_c, 5, 69, 0
14, 700799, Note_on_c, 5, 57, 0
14, 702238, Control_c, 5, 11, 127
14, 702240, Note_on_c, 5, 76, 80
14, 702939, Note_on_c, 5, 76, 0
14, 702960, Note_on_c, 5, 76, 80
14, 703679, Note_on_c, 5, 76, 0
14, 717360, Note_on_c, 5, 62, 44
14, 717360, Note_on_c, 5, 74, 44
14, 718059, Note_on_c, 5, 62, 0
14, 718059, Note_on_c, 5, 74, 0
14, 718080, Note_on_c, 5, 74, 44
14, 718080, Note_on_c, 5, 62, 44
14, 718779, Note_on_c, 5, 74, 0
14, 718779, Note_on_c, 5, 62, 0
14, 718800, Note_on_c, 5, 62, 44
14, 718800, Note_on_c, 5, 74, 44
14, 719499, Note_on_c, 5, 62, 0
14, 719499, Note_on_c, 5, 74, 0
14, 719520, Note_on_c, 5, 62, 38
14, 719520, Note_on_c, 5, 74, 38
14, 720219, Note_on_c, 5, 62, 0
14, 720219, Note_on_c, 5, 74, 0
14, 720240, Note_on_c, 5, 62, 38
14, 720240, Note_on_c, 5, 74, 38
14, 720939, Note_on_c, 5, 62, 0
14, 720939, Note_on_c, 5, 74, 0
14, 720960, Note_on_c, 5, 62, 38
14, 720960, Note_on_c, 5, 74, 38
14, 723099, Note_on_c, 5, 62, 0
14, 723099, Note_on_c, 5, 74, 0
14, 723120, Note_on_c, 5, 74, 32
14, 723120, Note_on_c, 5, 62, 32
14, 723839, Note_on_c, 5, 74, 0
14, 723839, Note_on_c, 5, 62, 0
14, 760080, Control_c, 5, 7, 112
14, 760080, Control_c, 5, 11, 127
14, 760080, Program_c, 5, 56
14, 760080, Control_c, 5, 10, 60
14, 760320, Note_on_c, 5, 57, 80
14, 760320, Note_on_c, 5, 69, 80
14, 760539, Note_on_c, 5, 57, 0
14, 760539, Note_on_c, 5, 69, 0
14, 760560, Note_on_c, 5, 69, 80
14, 760560, Note_on_c, 5, 57, 80
14, 760779, Note_on_c, 5, 69, 0
14, 760779, Note_on_c, 5, 57, 0
14, 760800, Note_on_c, 5, 69, 92
14, 760800, Note_on_c, 5, 57, 92
14, 761019, Note_on_c, 5, 69, 0
14, 761019, Note_on_c, 5, 57, 0
14, 761040, Note_on_c, 5, 69, 80
14, 761040, Note_on_c, 5, 57, 80
14, 761259, Note_on_c, 5, 69, 0
14, 761259, Note_on_c, 5, 57, 0
14, 761280, Note_on_c, 5, 69, 80
14, 761280, Note_on_c, 5, 57, 80
14, 761499, Note_on_c, 5, 69, 0
14, 761499, Note_on_c, 5, 57, 0
14, 761520, Note_on_c, 5, 57, 80
14, 761520, Note_on_c, 5, 69, 80
14, 761739, Note_on_c, 5, 57, 0
14, 761739, Note_on_c, 5, 69, 0
14, 761760, Note_on_c, 5, 57, 80
14, 761760, Note_on_c, 5, 69, 80
14, 761979, Note_on_c, 5, 57, 0
14, 761979, Note_on_c, 5, 69, 0
14, 762000, Note_on_c, 5, 69, 80
14, 762000, Note_on_c, 5, 57, 80
14, 762219, Note_on_c, 5, 69, 0
14, 762219, Note_on_c, 5, 57, 0
14, 762240, Note_on_c, 5, 69, 80
14, 762240, Note_on_c, 5, 57, 80
14, 762459, Note_on_c, 5, 69, 0
14, 762459, Note_on_c, 5, 57, 0
14, 762480, Note_on_c, 5, 69, 80
14, 762480, Note_on_c, 5, 57, 80
14, 762699, Note_on_c, 5, 69, 0
14, 762699, Note_on_c, 5, 57, 0
14, 762720, Note_on_c, 5, 57, 80
14, 762720, Note_on_c, 5, 69, 80
14, 762939, Note_on_c, 5, 57, 0
14, 762939, Note_on_c, 5, 69, 0
14, 762960, Note_on_c, 5, 57, 92
14, 762960, Note_on_c, 5, 69, 92
14, 763179, Note_on_c, 5, 57, 0
14, 763179, Note_on_c, 5, 69, 0
14, 763200, Note_on_c, 5, 69, 80
14, 763200, Note_on_c, 5, 57, 80
14, 763419, Note_on_c, 5, 69, 0
14, 763419, Note_on_c, 5, 57, 0
14, 763440, Note_on_c, 5, 57, 80
14, 763440, Note_on_c, 5, 69, 80
14, 763659, Note_on_c, 5, 57, 0
14, 763659, Note_on_c, 5, 69, 0
14, 763680, Note_on_c, 5, 57, 80
14, 763680, Note_on_c, 5, 69, 80
14, 763899, Note_on_c, 5, 57, 0
14, 763899, Note_on_c, 5, 69, 0
14, 763920, Note_on_c, 5, 69, 80
14, 763920, Note_on_c, 5, 57, 80
14, 764139, Note_on_c, 5, 69, 0
14, 764139, Note_on_c, 5, 57, 0
14, 764160, Note_on_c, 5, 69, 80
14, 764160, Note_on_c, 5, 57, 80
14, 764379, Note_on_c, 5, 69, 0
14, 764379, Note_on_c, 5, 57, 0
14, 764400, Note_on_c, 5, 57, 80
14, 764400, Note_on_c, 5, 69, 80
14, 764619, Note_on_c, 5, 57, 0
14, 764619, Note_on_c, 5, 69, 0
14, 764638, Control_c, 5, 11, 69
14, 764640, Note_on_c, 5, 69, 80
14, 764640, Note_on_c, 5, 57, 80
14, 764640, Control_c, 5, 11, 69
14, 764680, Control_c, 5, 11, 74
14, 764720, Control_c, 5, 11, 79
14, 764760, Control_c, 5, 11, 84
14, 764800, Control_c, 5, 11, 89
14, 764840, Control_c, 5, 11, 94
14, 764880, Control_c, 5, 11, 99
14, 764920, Control_c, 5, 11, 102
14, 764960, Control_c, 5, 11, 107
14, 765000, Control_c, 5, 11, 112
14, 765040, Control_c, 5, 11, 117
14, 765080, Control_c, 5, 11, 122
14, 765339, Note_on_c, 5, 69, 0
14, 765339, Note_on_c, 5, 57, 0
14, 765360, Note_on_c, 5, 62, 92
14, 765360, Control_c, 5, 11, 127
14, 765360, Note_on_c, 5, 74, 92
14, 765459, Note_on_c, 5, 62, 0
14, 765459, Note_on_c, 5, 74, 0
14, 765480, Note_on_c, 5, 74, 92
14, 765480, Note_on_c, 5, 62, 92
14, 765579, Note_on_c, 5, 74, 0
14, 765579, Note_on_c, 5, 62, 0
14, 765600, Note_on_c, 5, 62, 92
14, 765600, Note_on_c, 5, 74, 92
14, 765819, Note_on_c, 5, 62, 0
14, 765819, Note_on_c, 5, 74, 0
14, 765840, Note_on_c, 5, 62, 92
14, 765840, Note_on_c, 5, 74, 92
14, 766059, Note_on_c, 5, 62, 0
14, 766059, Note_on_c, 5, 74, 0
14, 766080, Note_on_c, 5, 74, 80
14, 766080, Note_on_c, 5, 62, 80
14, 766299, Note_on_c, 5, 74, 0
14, 766299, Note_on_c, 5, 62, 0
14, 766320, Note_on_c, 5, 62, 80
14, 766320, Note_on_c, 5, 74, 80
14, 766419, Note_on_c, 5, 62, 0
14, 766419, Note_on_c, 5, 74, 0
14, 766440, Note_on_c, 5, 74, 80
14, 766440, Note_on_c, 5, 62, 80
14, 766539, Note_on_c, 5, 74, 0
14, 766539, Note_on_c, 5, 62, 0
14, 766560, Note_on_c, 5, 62, 80
14, 766560, Note_on_c, 5, 74, 80
14, 766779, Note_on_c, 5, 62, 0
14, 766779, Note_on_c, 5, 74, 0
14, 766800, Note_on_c, 5, 74, 80
14, 766800, Note_on_c, 5, 62, 80
14, 767019, Note_on_c, 5, 74, 0
14, 767019, Note_on_c, 5, 62, 0
14, 767040, Note_on_c, 5, 62, 80
14, 767040, Note_on_c, 5, 74, 80
14, 767259, Note_on_c, 5, 62, 0
14, 767259, Note_on_c, 5, 74, 0
14, 767280, Note_on_c, 5, 74, 80
14, 767280, Note_on_c, 5, 62, 80
14, 767379, Note_on_c, 5, 74, 0
14, 767379, Note_on_c, 5, 62, 0
14, 767400, Note_on_c, 5, 62, 80
14, 767400, Note_on_c, 5, 74, 80
14, 767499, Note_on_c, 5, 62, 0
14, 767499, Note_on_c, 5, 74, 0
14, 767520, Note_on_c, 5, 62, 80
14, 767520, Note_on_c, 5, 74, 80
14, 767739, Note_on_c, 5, 62, 0
14, 767739, Note_on_c, 5, 74, 0
14, 767760, Note_on_c, 5, 62, 80
14, 767760, Note_on_c, 5, 74, 80
14, 767979, Note_on_c, 5, 62, 0
14, 767979, Note_on_c, 5, 74, 0
14, 768000, Note_on_c, 5, 74, 80
14, 768000, Note_on_c, 5, 62, 80
14, 768239, Note_on_c, 5, 74, 0
14, 768239, Note_on_c, 5, 62, 0
14, 780480, Note_on_c, 5, 69, 80
14, 780480, Note_on_c, 5, 57, 80
14, 780659, Note_on_c, 5, 69, 0
14, 780659, Note_on_c, 5, 57, 0
14, 780720, Note_on_c, 5, 57, 80
14, 780720, Note_on_c, 5, 69, 80
14, 780899, Note_on_c, 5, 57, 0
14, 780899, Note_on_c, 5, 69, 0
14, 780960, Note_on_c, 5, 57, 80
14, 780960, Note_on_c, 5, 69, 80
14, 781139, Note_on_c, 5, 57, 0
14, 781139, Note_on_c, 5, 69, 0
14, 781200, Note_on_c, 5, 69, 80
14, 781200, Note_on_c, 5, 57, 80
14, 781379, Note_on_c, 5, 69, 0
14, 781379, Note_on_c, 5, 57, 0
14, 781440, Note_on_c, 5, 57, 80
14, 781440, Note_on_c, 5, 69, 80
14, 781659, Note_on_c, 5, 57, 0
14, 781659, Note_on_c, 5, 69, 0
14, 781680, Note_on_c, 5, 69, 80
14, 781680, Note_on_c, 5, 57, 80
14, 781899, Note_on_c, 5, 69, 0
14, 781899, Note_on_c, 5, 57, 0
14, 781920, Note_on_c, 5, 69, 80
14, 781920, Note_on_c, 5, 57, 80
14, 782139, Note_on_c, 5, 69, 0
14, 782139, Note_on_c, 5, 57, 0
14, 782160, Note_on_c, 5, 69, 80
14, 782160, Note_on_c, 5, 57, 80
14, 782379, Note_on_c, 5, 69, 0
14, 782379, Note_on_c, 5, 57, 0
14, 782400, Note_on_c, 5, 57, 80
14, 782400, Note_on_c, 5, 69, 80
14, 782619, Note_on_c, 5, 57, 0
14, 782619, Note_on_c, 5, 69, 0
14, 782640, Note_on_c, 5, 69, 80
14, 782640, Note_on_c, 5, 57, 80
14, 782859, Note_on_c, 5, 69, 0
14, 782859, Note_on_c, 5, 57, 0
14, 782880, Note_on_c, 5, 69, 80
14, 782880, Note_on_c, 5, 57, 80
14, 783099, Note_on_c, 5, 69, 0
14, 783099, Note_on_c, 5, 57, 0
14, 783120, Note_on_c, 5, 69, 92
14, 783120, Note_on_c, 5, 57, 92
14, 783339, Note_on_c, 5, 69, 0
14, 783339, Note_on_c, 5, 57, 0
14, 783360, Note_on_c, 5, 69, 80
14, 783360, Note_on_c, 5, 57, 80
14, 783579, Note_on_c, 5, 69, 0
14, 783579, Note_on_c, 5, 57, 0
14, 783600, Note_on_c, 5, 57, 80
14, 783600, Note_on_c, 5, 69, 80
14, 783819, Note_on_c, 5, 57, 0
14, 783819, Note_on_c, 5, 69, 0
14, 783840, Note_on_c, 5, 69, 80
14, 783840, Note_on_c, 5, 57, 80
14, 784059, Note_on_c, 5, 69, 0
14, 784059, Note_on_c, 5, 57, 0
14, 784080, Note_on_c, 5, 69, 80
14, 784080, Note_on_c, 5, 57, 80
14, 784299, Note_on_c, 5, 69, 0
14, 784299, Note_on_c, 5, 57, 0
14, 784320, Note_on_c, 5, 57, 80
14, 784320, Note_on_c, 5, 69, 80
14, 784539, Note_on_c, 5, 57, 0
14, 784539, Note_on_c, 5, 69, 0
14, 784560, Note_on_c, 5, 69, 80
14, 784560, Note_on_c, 5, 57, 80
14, 784779, Note_on_c, 5, 69, 0
14, 784779, Note_on_c, 5, 57, 0
14, 784798, Control_c, 5, 11, 69
14, 784800, Note_on_c, 5, 57, 92
14, 784800, Control_c, 5, 11, 69
14, 784800, Note_on_c, 5, 69, 92
14, 784840, Control_c, 5, 11, 74
14, 784880, Control_c, 5, 11, 79
14, 784920, Control_c, 5, 11, 84
14, 784960, Control_c, 5, 11, 89
14, 785000, Control_c, 5, 11, 94
14, 785040, Control_c, 5, 11, 99
14, 785080, Control_c, 5, 11, 102
14, 785120, Control_c, 5, 11, 107
14, 785160, Control_c, 5, 11, 112
14, 785200, Control_c, 5, 11, 117
14, 785240, Control_c, 5, 11, 122
14, 785280, Control_c, 5, 11, 127
14, 785499, Note_on_c, 5, 57, 0
14, 785499, Note_on_c, 5, 69, 0
14, 785520, Note_on_c, 5, 74, 80
14, 785520, Note_on_c, 5, 62, 80
14, 785619, Note_on_c, 5, 74, 0
14, 785619, Note_on_c, 5, 62, 0
14, 785640, Note_on_c, 5, 62, 80
14, 785640, Note_on_c, 5, 74, 80
14, 785739, Note_on_c, 5, 62, 0
14, 785739, Note_on_c, 5, 74, 0
14, 785760, Note_on_c, 5, 74, 80
14, 785760, Note_on_c, 5, 62, 80
14, 785979, Note_on_c, 5, 74, 0
14, 785979, Note_on_c, 5, 62, 0
14, 786000, Note_on_c, 5, 62, 80
14, 786000, Note_on_c, 5, 74, 80
14, 786219, Note_on_c, 5, 62, 0
14, 786219, Note_on_c, 5, 74, 0
14, 786240, Note_on_c, 5, 74, 80
14, 786240, Note_on_c, 5, 62, 80
14, 786459, Note_on_c, 5, 74, 0
14, 786459, Note_on_c, 5, 62, 0
14, 786480, Note_on_c, 5, 74, 80
14, 786480, Note_on_c, 5, 62, 80
14, 786579, Note_on_c, 5, 74, 0
14, 786579, Note_on_c, 5, 62, 0
14, 786600, Note_on_c, 5, 62, 80
14, 786600, Note_on_c, 5, 74, 80
14, 786699, Note_on_c, 5, 62, 0
14, 786699, Note_on_c, 5, 74, 0
14, 786720, Note_on_c, 5, 62, 80
14, 786720, Note_on_c, 5, 74, 80
14, 786939, Note_on_c, 5, 62, 0
14, 786939, Note_on_c, 5, 74, 0
14, 786960, Note_on_c, 5, 62, 80
14, 786960, Note_on_c, 5, 74, 80
14, 787179, Note_on_c, 5, 62, 0
14, 787179, Note_on_c, 5, 74, 0
14, 787200, Note_on_c, 5, 74, 80
14, 787200, Note_on_c, 5, 62, 80
14, 787419, Note_on_c, 5, 74, 0
14, 787419, Note_on_c, 5, 62, 0
14, 787440, Note_on_c, 5, 74, 80
14, 787440, Note_on_c, 5, 62, 80
14, 787539, Note_on_c, 5, 74, 0
14, 787539, Note_on_c, 5, 62, 0
14, 787560, Note_on_c, 5, 62, 80
14, 787560, Note_on_c, 5, 74, 80
14, 787659, Note_on_c, 5, 62, 0
14, 787659, Note_on_c, 5, 74, 0
14, 787680, Note_on_c, 5, 74, 80
14, 787680, Note_on_c, 5, 62, 80
14, 787899, Note_on_c, 5, 74, 0
14, 787899, Note_on_c, 5, 62, 0
14, 787920, Note_on_c, 5, 62, 80
14, 787920, Note_on_c, 5, 74, 80
14, 788139, Note_on_c, 5, 62, 0
14, 788139, Note_on_c, 5, 74, 0
14, 788160, Note_on_c, 5, 74, 80
14, 788160, Note_on_c, 5, 62, 80
14, 788379, Note_on_c, 5, 74, 0
14, 788379, Note_on_c, 5, 62, 0
14, 788400, Note_on_c, 5, 76, 80
14, 788639, Note_on_c, 5, 76, 0
14, 806640, Note_on_c, 5, 69, 65
14, 806640, Note_on_c, 5, 57, 65
14, 806859, Note_on_c, 5, 69, 0
14, 806859, Note_on_c, 5, 57, 0
14, 806880, Note_on_c, 5, 57, 69
14, 806880, Note_on_c, 5, 69, 69
14, 807099, Note_on_c, 5, 57, 0
14, 807099, Note_on_c, 5, 69, 0
14, 807120, Note_on_c, 5, 69, 73
14, 807120, Note_on_c, 5, 57, 73
14, 807339, Note_on_c, 5, 69, 0
14, 807339, Note_on_c, 5, 57, 0
14, 807360, Note_on_c, 5, 69, 77
14, 807360, Note_on_c, 5, 57, 77
14, 807579, Note_on_c, 5, 69, 0
14, 807579, Note_on_c, 5, 57, 0
14, 807600, Note_on_c, 5, 69, 80
14, 807600, Note_on_c, 5, 57, 80
14, 807819, Note_on_c, 5, 69, 0
14, 807819, Note_on_c, 5, 57, 0
14, 807840, Note_on_c, 5, 57, 84
14, 807840, Note_on_c, 5, 69, 84
14, 808059, Note_on_c, 5, 57, 0
14, 808059, Note_on_c, 5, 69, 0
14, 808080, Note_on_c, 5, 57, 88
14, 808080, Note_on_c, 5, 69, 88
14, 808179, Note_on_c, 5, 57, 0
14, 808179, Note_on_c, 5, 69, 0
14, 808200, Note_on_c, 5, 69, 90
14, 808200, Note_on_c, 5, 57, 90
14, 808299, Note_on_c, 5, 69, 0
14, 808299, Note_on_c, 5, 57, 0
14, 808320, Note_on_c, 5, 74, 92
14, 808320, Note_on_c, 5, 62, 92
14, 808529, Note_on_c, 5, 74, 0
14, 808529, Note_on_c, 5, 62, 0
14, 808560, Note_on_c, 5, 62, 92
14, 808560, Note_on_c, 5, 74, 92
14, 808769, Note_on_c, 5, 62, 0
14, 808769, Note_on_c, 5, 74, 0
14, 808800, Note_on_c, 5, 69, 92
14, 808800, Note_on_c, 5, 57, 92
14, 809009, Note_on_c, 5, 69, 0
14, 809009, Note_on_c, 5, 57, 0
14, 809040, Note_on_c, 5, 57, 92
14, 809040, Note_on_c, 5, 69, 92
14, 809279, Note_on_c, 5, 57, 0
14, 809279, Note_on_c, 5, 69, 0
14, 811200, Note_on_c, 5, 69, 92
14, 811200, Note_on_c, 5, 57, 92
14, 811409, Note_on_c, 5, 69, 0
14, 811409, Note_on_c, 5, 57, 0
14, 811440, Note_on_c, 5, 69, 92
14, 811440, Note_on_c, 5, 57, 92
14, 811649, Note_on_c, 5, 69, 0
14, 811649, Note_on_c, 5, 57, 0
14, 811680, Note_on_c, 5, 57, 92
14, 811680, Note_on_c, 5, 69, 92
14, 811889, Note_on_c, 5, 57, 0
14, 811889, Note_on_c, 5, 69, 0
14, 811920, Note_on_c, 5, 69, 92
14, 811920, Note_on_c, 5, 57, 92
14, 812019, Note_on_c, 5, 69, 0
14, 812019, Note_on_c, 5, 57, 0
14, 812040, Note_on_c, 5, 69, 92
14, 812040, Note_on_c, 5, 57, 92
14, 812139, Note_on_c, 5, 69, 0
14, 812139, Note_on_c, 5, 57, 0
14, 812160, Note_on_c, 5, 74, 92
14, 812160, Note_on_c, 5, 62, 92
14, 812339, Note_on_c, 5, 74, 0
14, 812339, Note_on_c, 5, 62, 0
14, 812400, Note_on_c, 5, 62, 92
14, 812400, Note_on_c, 5, 74, 92
14, 812579, Note_on_c, 5, 62, 0
14, 812579, Note_on_c, 5, 74, 0
14, 812640, Note_on_c, 5, 57, 92
14, 812640, Note_on_c, 5, 69, 92
14, 812819, Note_on_c, 5, 57, 0
14, 812819, Note_on_c, 5, 69, 0
14, 812880, Note_on_c, 5, 57, 92
14, 812880, Note_on_c, 5, 69, 92
14, 813059, Note_on_c, 5, 57, 0
14, 813059, Note_on_c, 5, 69, 0
14, 815040, Note_on_c, 5, 57, 92
14, 815040, Note_on_c, 5, 69, 92
14, 815219, Note_on_c, 5, 57, 0
14, 815219, Note_on_c, 5, 69, 0
14, 815280, Note_on_c, 5, 69, 92
14, 815280, Note_on_c, 5, 57, 92
14, 815459, Note_on_c, 5, 69, 0
14, 815459, Note_on_c, 5, 57, 0
14, 815520, Note_on_c, 5, 57, 92
14, 815520, Note_on_c, 5, 69, 92
14, 815699, Note_on_c, 5, 57, 0
14, 815699, Note_on_c, 5, 69, 0
14, 816960, Note_on_c, 5, 57, 92
14, 816960, Note_on_c, 5, 69, 92
14, 817139, Note_on_c, 5, 57, 0
14, 817139, Note_on_c, 5, 69, 0
14, 817200, Note_on_c, 5, 76, 92
14, 817379, Note_on_c, 5, 76, 0
14, 817440, Note_on_c, 5, 57, 92
14, 817440, Note_on_c, 5, 69, 92
14, 817889, Note_on_c, 5, 57, 0
14, 817889, Note_on_c, 5, 69, 0
14, 817920, Note_on_c, 5, 57, 92
14, 817920, Note_on_c, 5, 69, 92
14, 818000, Control_c, 5, 11, 107
14, 818849, Note_on_c, 5, 57, 0
14, 818849, Note_on_c, 5, 69, 0
14, 818878, Control_c, 5, 11, 127
14, 818880, Note_on_c, 5, 69, 80
14, 818880, Note_on_c, 5, 57, 80
14, 819809, Note_on_c, 5, 69, 0
14, 819809, Note_on_c, 5, 57, 0
14, 819840, Note_on_c, 5, 69, 80
14, 819840, Note_on_c, 5, 57, 80
14, 820769, Note_on_c, 5, 69, 0
14, 820769, Note_on_c, 5, 57, 0
14, 820800, Note_on_c, 5, 57, 80
14, 820800, Note_on_c, 5, 69, 80
14, 821729, Note_on_c, 5, 57, 0
14, 821729, Note_on_c, 5, 69, 0
14, 821760, Note_on_c, 5, 81, 80
14, 821760, Note_on_c, 5, 69, 80
14, 825569, Note_on_c, 5, 81, 0
14, 825569, Note_on_c, 5, 69, 0
14, 825600, Note_on_c, 5, 69, 80
14, 825600, Note_on_c, 5, 81, 80
14, 825839, Note_on_c, 5, 69, 0
14, 825839, Note_on_c, 5, 81, 0
14, 826080, Note_on_c, 5, 62, 80
14, 826080, Note_on_c, 5, 74, 80
14, 826319, Note_on_c, 5, 62, 0
14, 826319, Note_on_c, 5, 74, 0
14, 826560, Note_on_c, 5, 74, 80
14, 826560, Note_on_c, 5, 62, 80
14, 826799, Note_on_c, 5, 74, 0
14, 826799, Note_on_c, 5, 62, 0
14, 827040, Note_on_c, 5, 62, 80
14, 827040, Note_on_c, 5, 74, 80
14, 827279, Note_on_c, 5, 62, 0
14, 827279, Note_on_c, 5, 74, 0
14, 827520, Note_on_c, 5, 57, 80
14, 827520, Note_on_c, 5, 69, 80
14, 827759, Note_on_c, 5, 57, 0
14, 827759, Note_on_c, 5, 69, 0
14, 828000, Note_on_c, 5, 57, 80
14, 828000, Note_on_c, 5, 69, 80
14, 828239, Note_on_c, 5, 57, 0
14, 828239, Note_on_c, 5, 69, 0
14, 828480, Note_on_c, 5, 74, 80
14, 828480, Note_on_c, 5, 62, 80
14, 828929, Note_on_c, 5, 74, 0
14, 828929, Note_on_c, 5, 62, 0
14, 828960, Note_on_c, 5, 81, 80
14, 828960, Note_on_c, 5, 69, 80
14, 829409, Note_on_c, 5, 81, 0
14, 829409, Note_on_c, 5, 69, 0
14, 829440, Note_on_c, 5, 69, 80
14, 829440, Note_on_c, 5, 81, 80
14, 829679, Note_on_c, 5, 69, 0
14, 829679, Note_on_c, 5, 81, 0
14, 829920, Note_on_c, 5, 74, 80
14, 829920, Note_on_c, 5, 62, 80
14, 830159, Note_on_c, 5, 74, 0
14, 830159, Note_on_c, 5, 62, 0
14, 830400, Note_on_c, 5, 74, 80
14, 830400, Note_on_c, 5, 62, 80
14, 830639, Note_on_c, 5, 74, 0
14, 830639, Note_on_c, 5, 62, 0
14, 830880, Note_on_c, 5, 62, 80
14, 830880, Note_on_c, 5, 74, 80
14, 831119, Note_on_c, 5, 62, 0
14, 831119, Note_on_c, 5, 74, 0
14, 831360, Note_on_c, 5, 69, 80
14, 831360, Note_on_c, 5, 57, 80
14, 831599, Note_on_c, 5, 69, 0
14, 831599, Note_on_c, 5, 57, 0
14, 831840, Note_on_c, 5, 69, 80
14, 831840, Note_on_c, 5, 57, 80
14, 832079, Note_on_c, 5, 69, 0
14, 832079, Note_on_c, 5, 57, 0
14, 832320, Note_on_c, 5, 62, 80
14, 832320, Note_on_c, 5, 74, 80
14, 832529, Note_on_c, 5, 62, 0
14, 832529, Note_on_c, 5, 74, 0
14, 832560, Note_on_c, 5, 74, 80
14, 832560, Note_on_c, 5, 62, 80
14, 832769, Note_on_c, 5, 74, 0
14, 832769, Note_on_c, 5, 62, 0
14, 832800, Note_on_c, 5, 57, 80
14, 832800, Note_on_c, 5, 69, 80
14, 833009, Note_on_c, 5, 57, 0
14, 833009, Note_on_c, 5, 69, 0
14, 833040, Note_on_c, 5, 69, 80
14, 833040, Note_on_c, 5, 57, 80
14, 833249, Note_on_c, 5, 69, 0
14, 833249, Note_on_c, 5, 57, 0
14, 833280, Note_on_c, 5, 74, 80
14, 833280, Note_on_c, 5, 62, 80
14, 833489, Note_on_c, 5, 74, 0
14, 833489, Note_on_c, 5, 62, 0
14, 833520, Note_on_c, 5, 74, 80
14, 833520, Note_on_c, 5, 62, 80
14, 833729, Note_on_c, 5, 74, 0
14, 833729, Note_on_c, 5, 62, 0
14, 833760, Note_on_c, 5, 76, 80
14, 833760, Note_on_c, 5, 69, 80
14, 833969, Note_on_c, 5, 76, 0
14, 833969, Note_on_c, 5, 69, 0
14, 834000, Note_on_c, 5, 76, 80
14, 834000, Note_on_c, 5, 69, 80
14, 834239, Note_on_c, 5, 76, 0
14, 834239, Note_on_c, 5, 69, 0
14, 839040, Note_on_c, 5, 76, 80
14, 839399, Note_on_c, 5, 76, 0
14, 839520, Note_on_c, 5, 76, 80
14, 839879, Note_on_c, 5, 76, 0
14, 840000, Note_on_c, 5, 76, 80
14, 840359, Note_on_c, 5, 76, 0
14, 840480, Note_on_c, 5, 76, 80
14, 840839, Note_on_c, 5, 76, 0
14, 840960, Note_on_c, 5, 69, 80
14, 841319, Note_on_c, 5, 69, 0
14, 841440, Note_on_c, 5, 62, 80
14, 841440, Note_on_c, 5, 74, 80
14, 841799, Note_on_c, 5, 62, 0
14, 841799, Note_on_c, 5, 74, 0
14, 841920, Note_on_c, 5, 57, 80
14, 841920, Note_on_c, 5, 69, 80
14, 842369, Note_on_c, 5, 57, 0
14, 842369, Note_on_c, 5, 69, 0
14, 842400, Note_on_c, 5, 69, 80
14, 842400, Note_on_c, 5, 57, 80
14, 842849, Note_on_c, 5, 69, 0
14, 842849, Note_on_c, 5, 57, 0
14, 842880, Note_on_c, 5, 81, 92
14, 842880, Note_on_c, 5, 66, 92
14, 843329, Note_on_c, 5, 81, 0
14, 843329, Note_on_c, 5, 66, 0
14, 843360, Note_on_c, 5, 66, 92
14, 843360, Note_on_c, 5, 81, 92
14, 843440, Control_c, 5, 11, 107
14, 844289, Note_on_c, 5, 66, 0
14, 844289, Note_on_c, 5, 81, 0
14, 844318, Control_c, 5, 11, 127
14, 844320, Note_on_c, 5, 78, 80
14, 844320, Note_on_c, 5, 81, 80
14, 844769, Note_on_c, 5, 78, 0
14, 844769, Note_on_c, 5, 81, 0
14, 844800, Note_on_c, 5, 81, 80
14, 844800, Note_on_c, 5, 78, 80
14, 845249, Note_on_c, 5, 81, 0
14, 845249, Note_on_c, 5, 78, 0
14, 845280, Note_on_c, 5, 78, 80
14, 845280, Note_on_c, 5, 81, 80
14, 845729, Note_on_c, 5, 78, 0
14, 845729, Note_on_c, 5, 81, 0
14, 845760, Note_on_c, 5, 81, 80
14, 845760, Note_on_c, 5, 78, 80
14, 846209, Note_on_c, 5, 81, 0
14, 846209, Note_on_c, 5, 78, 0
14, 846240, Note_on_c, 5, 81, 80
14, 846240, Note_on_c, 5, 78, 80
14, 846689, Note_on_c, 5, 81, 0
14, 846689, Note_on_c, 5, 78, 0
14, 846720, Note_on_c, 5, 76, 92
14, 846720, Note_on_c, 5, 79, 92
14, 847169, Note_on_c, 5, 76, 0
14, 847169, Note_on_c, 5, 79, 0
14, 847200, Note_on_c, 5, 76, 80
14, 847200, Note_on_c, 5, 79, 80
14, 847649, Note_on_c, 5, 76, 0
14, 847649, Note_on_c, 5, 79, 0
14, 847680, Note_on_c, 5, 76, 80
14, 847680, Note_on_c, 5, 79, 80
14, 848129, Note_on_c, 5, 76, 0
14, 848129, Note_on_c, 5, 79, 0
14, 848160, Note_on_c, 5, 79, 80
14, 848160, Note_on_c, 5, 76, 80
14, 848609, Note_on_c, 5, 79, 0
14, 848609, Note_on_c, 5, 76, 0
14, 848640, Note_on_c, 5, 69, 92
14, 849089, Note_on_c, 5, 69, 0
14, 849120, Note_on_c, 5, 74, 92
14, 849120, Note_on_c, 5, 62, 92
14, 849569, Note_on_c, 5, 74, 0
14, 849569, Note_on_c, 5, 62, 0
14, 849600, Note_on_c, 5, 69, 92
14, 849600, Note_on_c, 5, 57, 92
14, 850049, Note_on_c, 5, 69, 0
14, 850049, Note_on_c, 5, 57, 0
14, 850080, Note_on_c, 5, 57, 92
14, 850080, Note_on_c, 5, 69, 92
14, 850529, Note_on_c, 5, 57, 0
14, 850529, Note_on_c, 5, 69, 0
14, 850560, Note_on_c, 5, 74, 92
14, 850560, Note_on_c, 5, 62, 92
14, 851249, Note_on_c, 5, 74, 0
14, 851249, Note_on_c, 5, 62, 0
14, 851280, Note_on_c, 5, 79, 92
14, 851489, Note_on_c, 5, 79, 0
14, 851520, Note_on_c, 5, 79, 92
14, 851520, Note_on_c, 5, 76, 92
14, 853409, Note_on_c, 5, 79, 0
14, 853409, Note_on_c, 5, 76, 0
14, 853440, Note_on_c, 5, 78, 92
14, 853440, Note_on_c, 5, 74, 92
14, 853889, Note_on_c, 5, 78, 0
14, 853889, Note_on_c, 5, 74, 0
14, 853920, Note_on_c, 5, 69, 92
14, 853920, Note_on_c, 5, 76, 92
14, 854369, Note_on_c, 5, 69, 0
14, 854369, Note_on_c, 5, 76, 0
14, 854400, Note_on_c, 5, 74, 92
14, 854400, Note_on_c, 5, 78, 92
14, 854609, Note_on_c, 5, 74, 0
14, 854609, Note_on_c, 5, 78, 0
14, 854640, Note_on_c, 5, 78, 92
14, 854640, Note_on_c, 5, 74, 92
14, 854849, Note_on_c, 5, 78, 0
14, 854849, Note_on_c, 5, 74, 0
14, 854880, Note_on_c, 5, 74, 92
14, 854880, Note_on_c, 5, 79, 92
14, 855089, Note_on_c, 5, 74, 0
14, 855329, Note_on_c, 5, 79, 0
14, 855360, Note_on_c, 5, 76, 92
14, 855360, Note_on_c, 5, 79, 92
14, 857249, Note_on_c, 5, 76, 0
14, 857249, Note_on_c, 5, 79, 0
14, 857280, Note_on_c, 5, 74, 92
14, 857280, Note_on_c, 5, 78, 92
14, 857729, Note_on_c, 5, 74, 0
14, 857729, Note_on_c, 5, 78, 0
14, 857760, Note_on_c, 5, 69, 92
14, 857760, Note_on_c, 5, 76, 92
14, 858209, Note_on_c, 5, 69, 0
14, 858209, Note_on_c, 5, 76, 0
14, 858240, Note_on_c, 5, 74, 92
14, 858240, Note_on_c, 5, 66, 92
14, 858479, Note_on_c, 5, 74, 0
14, 858479, Note_on_c, 5, 66, 0
14, 859200, Note_on_c, 5, 74, 92
14, 859200, Note_on_c, 5, 62, 92
14, 859409, Note_on_c, 5, 74, 0
14, 859409, Note_on_c, 5, 62, 0
14, 859440, Note_on_c, 5, 74, 92
14, 859440, Note_on_c, 5, 62, 92
14, 859679, Note_on_c, 5, 74, 0
14, 859679, Note_on_c, 5, 62, 0
14, 860160, Note_on_c, 5, 62, 92
14, 860160, Note_on_c, 5, 74, 92
14, 860369, Note_on_c, 5, 62, 0
14, 860369, Note_on_c, 5, 74, 0
14, 860400, Note_on_c, 5, 74, 92
14, 860400, Note_on_c, 5, 62, 92
14, 860609, Note_on_c, 5, 74, 0
14, 860609, Note_on_c, 5, 62, 0
14, 860640, Note_on_c, 5, 62, 92
14, 860640, Note_on_c, 5, 74, 92
14, 860849, Note_on_c, 5, 62, 0
14, 860849, Note_on_c, 5, 74, 0
14, 860880, Note_on_c, 5, 62, 92
14, 860880, Note_on_c, 5, 74, 92
14, 861089, Note_on_c, 5, 62, 0
14, 861089, Note_on_c, 5, 74, 0
14, 861120, Note_on_c, 5, 69, 92
14, 861120, Note_on_c, 5, 57, 92
14, 861359, Note_on_c, 5, 69, 0
14, 861359, Note_on_c, 5, 57, 0
14, 861840, Note_on_c, 5, 69, 92
14, 861840, Note_on_c, 5, 57, 92
14, 862049, Note_on_c, 5, 69, 0
14, 862049, Note_on_c, 5, 57, 0
14, 862080, Note_on_c, 5, 57, 92
14, 862080, Note_on_c, 5, 69, 92
14, 862289, Note_on_c, 5, 57, 0
14, 862289, Note_on_c, 5, 69, 0
14, 862320, Note_on_c, 5, 62, 92
14, 862320, Note_on_c, 5, 74, 92
14, 862529, Note_on_c, 5, 62, 0
14, 862529, Note_on_c, 5, 74, 0
14, 862560, Note_on_c, 5, 62, 92
14, 862769, Note_on_c, 5, 62, 0
14, 862800, Note_on_c, 5, 66, 92
14, 863009, Note_on_c, 5, 66, 0
14, 863040, Note_on_c, 5, 69, 92
14, 863040, Note_on_c, 5, 57, 92
14, 863279, Note_on_c, 5, 69, 0
14, 863279, Note_on_c, 5, 57, 0
14, 863760, Note_on_c, 5, 57, 92
14, 863760, Note_on_c, 5, 69, 92
14, 863969, Note_on_c, 5, 57, 0
14, 863969, Note_on_c, 5, 69, 0
14, 864000, Note_on_c, 5, 69, 92
14, 864000, Note_on_c, 5, 57, 92
14, 864209, Note_on_c, 5, 69, 0
14, 864209, Note_on_c, 5, 57, 0
14, 864240, Note_on_c, 5, 62, 92
14, 864240, Note_on_c, 5, 74, 92
14, 864449, Note_on_c, 5, 62, 0
14, 864449, Note_on_c, 5, 74, 0
14, 864480, Note_on_c, 5, 62, 92
14, 864689, Note_on_c, 5, 62, 0
14, 864720, Note_on_c, 5, 66, 92
14, 864929, Note_on_c, 5, 66, 0
14, 864960, Note_on_c, 5, 69, 92
14, 864960, Note_on_c, 5, 57, 92
14, 866609, Note_on_c, 5, 69, 0
14, 866609, Note_on_c, 5, 57, 0
14, 866640, Note_on_c, 5, 69, 92
14, 866640, Note_on_c, 5, 57, 92
14, 866849, Note_on_c, 5, 69, 0
14, 866849, Note_on_c, 5, 57, 0
14, 866880, Note_on_c, 5, 57, 92
14, 866880, Note_on_c, 5, 69, 92
14, 867089, Note_on_c, 5, 57, 0
14, 867089, Note_on_c, 5, 69, 0
14, 867120, Note_on_c, 5, 62, 92
14, 867120, Note_on_c, 5, 74, 92
14, 867329, Note_on_c, 5, 62, 0
14, 867329, Note_on_c, 5, 74, 0
14, 867360, Note_on_c, 5, 74, 92
14, 867360, Note_on_c, 5, 62, 92
14, 867569, Note_on_c, 5, 74, 0
14, 867569, Note_on_c, 5, 62, 0
14, 867600, Note_on_c, 5, 78, 92
14, 867600, Note_on_c, 5, 66, 92
14, 867809, Note_on_c, 5, 78, 0
14, 867809, Note_on_c, 5, 66, 0
14, 867840, Note_on_c, 5, 81, 92
14, 867840, Note_on_c, 5, 69, 92
14, 869489, Note_on_c, 5, 81, 0
14, 869489, Note_on_c, 5, 69, 0
14, 869520, Note_on_c, 5, 81, 92
14, 869520, Note_on_c, 5, 69, 92
14, 869729, Note_on_c, 5, 81, 0
14, 869729, Note_on_c, 5, 69, 0
14, 869760, Note_on_c, 5, 81, 92
14, 869760, Note_on_c, 5, 69, 92
14, 869969, Note_on_c, 5, 81, 0
14, 869969, Note_on_c, 5, 69, 0
14, 870000, Note_on_c, 5, 74, 92
14, 870000, Note_on_c, 5, 62, 92
14, 870209, Note_on_c, 5, 74, 0
14, 870209, Note_on_c, 5, 62, 0
14, 870240, Note_on_c, 5, 76, 92
14, 870240, Note_on_c, 5, 69, 92
14, 871069, Note_on_c, 5, 76, 0
14, 871069, Note_on_c, 5, 69, 0
14, 871080, Note_on_c, 5, 76, 92
14, 871080, Note_on_c, 5, 69, 92
14, 871189, Note_on_c, 5, 76, 0
14, 871189, Note_on_c, 5, 69, 0
14, 871200, Note_on_c, 5, 69, 92
14, 871200, Note_on_c, 5, 76, 92
14, 871373, Note_on_c, 5, 69, 0
14, 871373, Note_on_c, 5, 76, 0
14, 871380, Note_on_c, 5, 69, 44
14, 871380, Note_on_c, 5, 76, 44
14, 871433, Note_on_c, 5, 69, 0
14, 871433, Note_on_c, 5, 76, 0
14, 871440, Note_on_c, 5, 76, 44
14, 871440, Note_on_c, 5, 69, 44
14, 871613, Note_on_c, 5, 76, 0
14, 871613, Note_on_c, 5, 69, 0
14, 871620, Note_on_c, 5, 69, 44
14, 871620, Note_on_c, 5, 76, 44
14, 871673, Note_on_c, 5, 69, 0
14, 871673, Note_on_c, 5, 76, 0
14, 871680, Note_on_c, 5, 69, 44
14, 871680, Note_on_c, 5, 76, 44
14, 871919, Note_on_c, 5, 69, 0
14, 871919, Note_on_c, 5, 76, 0
14, 872160, Note_on_c, 5, 74, 80
14, 872160, Note_on_c, 5, 62, 80
14, 872333, Note_on_c, 5, 74, 0
14, 872333, Note_on_c, 5, 62, 0
14, 872340, Note_on_c, 5, 62, 80
14, 872340, Note_on_c, 5, 74, 80
14, 872393, Note_on_c, 5, 62, 0
14, 872393, Note_on_c, 5, 74, 0
14, 872400, Note_on_c, 5, 74, 80
14, 872400, Note_on_c, 5, 62, 80
14, 872639, Note_on_c, 5, 74, 0
14, 872639, Note_on_c, 5, 62, 0
14, 872760, Note_on_c, 5, 57, 80
14, 872760, Note_on_c, 5, 69, 80
14, 872869, Note_on_c, 5, 57, 0
14, 872869, Note_on_c, 5, 69, 0
14, 872880, Note_on_c, 5, 57, 92
14, 872880, Note_on_c, 5, 69, 92
14, 872940, Control_c, 5, 11, 107
14, 873049, Note_on_c, 5, 57, 0
14, 873049, Note_on_c, 5, 69, 0
14, 873060, Note_on_c, 5, 69, 92
14, 873060, Note_on_c, 5, 57, 92
14, 873109, Note_on_c, 5, 69, 0
14, 873109, Note_on_c, 5, 57, 0
14, 873120, Note_on_c, 5, 69, 92
14, 873120, Note_on_c, 5, 57, 92
14, 873229, Note_on_c, 5, 69, 0
14, 873229, Note_on_c, 5, 57, 0
14, 873240, Note_on_c, 5, 62, 92
14, 873240, Note_on_c, 5, 74, 92
14, 873349, Note_on_c, 5, 62, 0
14, 873349, Note_on_c, 5, 74, 0
14, 873358, Control_c, 5, 11, 127
14, 873360, Note_on_c, 5, 57, 92
14, 873360, Note_on_c, 5, 69, 92
14, 873420, Control_c, 5, 11, 107
14, 873529, Note_on_c, 5, 57, 0
14, 873529, Note_on_c, 5, 69, 0
14, 873540, Note_on_c, 5, 69, 92
14, 873540, Note_on_c, 5, 57, 92
14, 873589, Note_on_c, 5, 69, 0
14, 873589, Note_on_c, 5, 57, 0
14, 873598, Control_c, 5, 11, 127
14, 873600, Note_on_c, 5, 74, 80
14, 873600, Note_on_c, 5, 78, 80
14, 873809, Note_on_c, 5, 74, 0
14, 873809, Note_on_c, 5, 78, 0
14, 873840, Note_on_c, 5, 74, 80
14, 873840, Note_on_c, 5, 78, 80
14, 874049, Note_on_c, 5, 74, 0
14, 874049, Note_on_c, 5, 78, 0
14, 874080, Note_on_c, 5, 79, 80
14, 874080, Note_on_c, 5, 76, 80
14, 874289, Note_on_c, 5, 79, 0
14, 874289, Note_on_c, 5, 76, 0
14, 874320, Note_on_c, 5, 78, 80
14, 874320, Note_on_c, 5, 81, 80
14, 874529, Note_on_c, 5, 78, 0
14, 874529, Note_on_c, 5, 81, 0
14, 874560, Note_on_c, 5, 78, 80
14, 874560, Note_on_c, 5, 81, 80
14, 874769, Note_on_c, 5, 78, 0
14, 874769, Note_on_c, 5, 81, 0
14, 874800, Note_on_c, 5, 76, 80
14, 874800, Note_on_c, 5, 79, 80
14, 875009, Note_on_c, 5, 76, 0
14, 875009, Note_on_c, 5, 79, 0
14, 875040, Note_on_c, 5, 74, 80
14, 875040, Note_on_c, 5, 78, 80
14, 875249, Note_on_c, 5, 74, 0
14, 875249, Note_on_c, 5, 78, 0
14, 875280, Note_on_c, 5, 78, 80
14, 875280, Note_on_c, 5, 74, 80
14, 875379, Note_on_c, 5, 78, 0
14, 875379, Note_on_c, 5, 74, 0
14, 875400, Note_on_c, 5, 76, 80
14, 875400, Note_on_c, 5, 69, 80
14, 875499, Note_on_c, 5, 76, 0
14, 875499, Note_on_c, 5, 69, 0
14, 875520, Note_on_c, 5, 78, 80
14, 875520, Note_on_c, 5, 74, 80
14, 875729, Note_on_c, 5, 78, 0
14, 875729, Note_on_c, 5, 74, 0
14, 875760, Note_on_c, 5, 74, 80
14, 875760, Note_on_c, 5, 78, 80
14, 875969, Note_on_c, 5, 74, 0
14, 875969, Note_on_c, 5, 78, 0
14, 876000, Note_on_c, 5, 76, 80
14, 876000, Note_on_c, 5, 79, 80
14, 876209, Note_on_c, 5, 76, 0
14, 876209, Note_on_c, 5, 79, 0
14, 876240, Note_on_c, 5, 81, 80
14, 876240, Note_on_c, 5, 78, 80
14, 876449, Note_on_c, 5, 81, 0
14, 876449, Note_on_c, 5, 78, 0
14, 876480, Note_on_c, 5, 81, 80
14, 876480, Note_on_c, 5, 78, 80
14, 876689, Note_on_c, 5, 81, 0
14, 876689, Note_on_c, 5, 78, 0
14, 876720, Note_on_c, 5, 76, 80
14, 876720, Note_on_c, 5, 79, 80
14, 876929, Note_on_c, 5, 76, 0
14, 876929, Note_on_c, 5, 79, 0
14, 876960, Note_on_c, 5, 74, 80
14, 876960, Note_on_c, 5, 78, 80
14, 877169, Note_on_c, 5, 74, 0
14, 877169, Note_on_c, 5, 78, 0
14, 877200, Note_on_c, 5, 74, 80
14, 877200, Note_on_c, 5, 78, 80
14, 877299, Note_on_c, 5, 74, 0
14, 877299, Note_on_c, 5, 78, 0
14, 877320, Note_on_c, 5, 69, 80
14, 877320, Note_on_c, 5, 76, 80
14, 877419, Note_on_c, 5, 69, 0
14, 877419, Note_on_c, 5, 76, 0
14, 877440, Note_on_c, 5, 74, 80
14, 877440, Note_on_c, 5, 78, 80
14, 877649, Note_on_c, 5, 74, 0
14, 877649, Note_on_c, 5, 78, 0
14, 877680, Note_on_c, 5, 69, 80
14, 877680, Note_on_c, 5, 76, 80
14, 877889, Note_on_c, 5, 69, 0
14, 877889, Note_on_c, 5, 76, 0
14, 877920, Note_on_c, 5, 74, 80
14, 877920, Note_on_c, 5, 78, 80
14, 878129, Note_on_c, 5, 74, 0
14, 878129, Note_on_c, 5, 78, 0
14, 878160, Note_on_c, 5, 69, 80
14, 878160, Note_on_c, 5, 76, 80
14, 878369, Note_on_c, 5, 69, 0
14, 878369, Note_on_c, 5, 76, 0
14, 878400, Note_on_c, 5, 78, 80
14, 878400, Note_on_c, 5, 74, 80
14, 878609, Note_on_c, 5, 78, 0
14, 878609, Note_on_c, 5, 74, 0
14, 878640, Note_on_c, 5, 76, 80
14, 878640, Note_on_c, 5, 69, 80
14, 878849, Note_on_c, 5, 76, 0
14, 878849, Note_on_c, 5, 69, 0
14, 878880, Note_on_c, 5, 78, 80
14, 878880, Note_on_c, 5, 74, 80
14, 879089, Note_on_c, 5, 78, 0
14, 879089, Note_on_c, 5, 74, 0
14, 879120, Note_on_c, 5, 57, 80
14, 879120, Note_on_c, 5, 69, 80
14, 879329, Note_on_c, 5, 57, 0
14, 879329, Note_on_c, 5, 69, 0
14, 879360, Note_on_c, 5, 62, 80
14, 879360, Note_on_c, 5, 74, 80
14, 879569, Note_on_c, 5, 62, 0
14, 879569, Note_on_c, 5, 74, 0
14, 879600, Note_on_c, 5, 69, 80
14, 879600, Note_on_c, 5, 57, 80
14, 879809, Note_on_c, 5, 69, 0
14, 879809, Note_on_c, 5, 57, 0
14, 879840, Note_on_c, 5, 74, 80
14, 879840, Note_on_c, 5, 62, 80
14, 880049, Note_on_c, 5, 74, 0
14, 880049, Note_on_c, 5, 62, 0
14, 880080, Note_on_c, 5, 69, 80
14, 880080, Note_on_c, 5, 57, 80
14, 880289, Note_on_c, 5, 69, 0
14, 880289, Note_on_c, 5, 57, 0
14, 880320, Note_on_c, 5, 62, 80
14, 880320, Note_on_c, 5, 74, 80
14, 880529, Note_on_c, 5, 62, 0
14, 880529, Note_on_c, 5, 74, 0
14, 880560, Note_on_c, 5, 62, 80
14, 880560, Note_on_c, 5, 74, 80
14, 880769, Note_on_c, 5, 62, 0
14, 880769, Note_on_c, 5, 74, 0
14, 880800, Note_on_c, 5, 74, 80
14, 880800, Note_on_c, 5, 62, 80
14, 881009, Note_on_c, 5, 74, 0
14, 881009, Note_on_c, 5, 62, 0
14, 881040, Note_on_c, 5, 62, 80
14, 881040, Note_on_c, 5, 74, 80
14, 881249, Note_on_c, 5, 62, 0
14, 881249, Note_on_c, 5, 74, 0
14, 881280, Note_on_c, 5, 62, 92
14, 881280, Note_on_c, 5, 74, 92
14, 881519, Note_on_c, 5, 62, 0
14, 881519, Note_on_c, 5, 74, 0
14, 881760, Note_on_c, 5, 62, 80
14, 881760, Note_on_c, 5, 74, 80
14, 881999, Note_on_c, 5, 62, 0
14, 881999, Note_on_c, 5, 74, 0
14, 882240, Note_on_c, 5, 74, 80
14, 882240, Note_on_c, 5, 62, 80
14, 882479, Note_on_c, 5, 74, 0
14, 882479, Note_on_c, 5, 62, 0
14, 882720, Note_on_c, 5, 62, 80
14, 882720, Note_on_c, 5, 74, 80
14, 882959, Note_on_c, 5, 62, 0
14, 882959, Note_on_c, 5, 74, 0
14, 883200, Note_on_c, 5, 74, 80
14, 883200, Note_on_c, 5, 62, 80
14, 883439, Note_on_c, 5, 74, 0
14, 883439, Note_on_c, 5, 62, 0
14, 883680, Note_on_c, 5, 74, 80
14, 883680, Note_on_c, 5, 62, 80
14, 883919, Note_on_c, 5, 74, 0
14, 883919, Note_on_c, 5, 62, 0
14, 884160, Note_on_c, 5, 74, 80
14, 884160, Note_on_c, 5, 62, 80
14, 884399, Note_on_c, 5, 74, 0
14, 884399, Note_on_c, 5, 62, 0
14, 884640, Note_on_c, 5, 74, 80
14, 884640, Note_on_c, 5, 62, 80
14, 884879, Note_on_c, 5, 74, 0
14, 884879, Note_on_c, 5, 62, 0
14, 885120, Note_on_c, 5, 62, 80
14, 885120, Note_on_c, 5, 74, 80
14, 885329, Note_on_c, 5, 62, 0
14, 885329, Note_on_c, 5, 74, 0
14, 885360, Note_on_c, 5, 74, 80
14, 885360, Note_on_c, 5, 62, 80
14, 885569, Note_on_c, 5, 74, 0
14, 885569, Note_on_c, 5, 62, 0
14, 885600, Note_on_c, 5, 62, 80
14, 885600, Note_on_c, 5, 74, 80
14, 885809, Note_on_c, 5, 62, 0
14, 885809, Note_on_c, 5, 74, 0
14, 885840, Note_on_c, 5, 74, 80
14, 885840, Note_on_c, 5, 62, 80
14, 886049, Note_on_c, 5, 74, 0
14, 886049, Note_on_c, 5, 62, 0
14, 886080, Note_on_c, 5, 62, 80
14, 886080, Note_on_c, 5, 74, 80
14, 886289, Note_on_c, 5, 62, 0
14, 886289, Note_on_c, 5, 74, 0
14, 886320, Note_on_c, 5, 74, 80
14, 886320, Note_on_c, 5, 62, 80
14, 886529, Note_on_c, 5, 74, 0
14, 886529, Note_on_c, 5, 62, 0
14, 886560, Note_on_c, 5, 74, 80
14, 886560, Note_on_c, 5, 62, 80
14, 886769, Note_on_c, 5, 74, 0
14, 886769, Note_on_c, 5, 62, 0
14, 886800, Note_on_c, 5, 62, 80
14, 886800, Note_on_c, 5, 74, 80
14, 887009, Note_on_c, 5, 62, 0
14, 887009, Note_on_c, 5, 74, 0
14, 887040, Note_on_c, 5, 62, 80
14, 887040, Note_on_c, 5, 74, 80
14, 887249, Note_on_c, 5, 62, 0
14, 887249, Note_on_c, 5, 74, 0
14, 887280, Note_on_c, 5, 74, 80
14, 887280, Note_on_c, 5, 62, 80
14, 887489, Note_on_c, 5, 74, 0
14, 887489, Note_on_c, 5, 62, 0
14, 887520, Note_on_c, 5, 62, 80
14, 887520, Note_on_c, 5, 74, 80
14, 887729, Note_on_c, 5, 62, 0
14, 887729, Note_on_c, 5, 74, 0
14, 887760, Note_on_c, 5, 74, 80
14, 887760, Note_on_c, 5, 62, 80
14, 887969, Note_on_c, 5, 74, 0
14, 887969, Note_on_c, 5, 62, 0
14, 888000, Note_on_c, 5, 62, 80
14, 888000, Note_on_c, 5, 74, 80
14, 888209, Note_on_c, 5, 62, 0
14, 888209, Note_on_c, 5, 74, 0
14, 888240, Note_on_c, 5, 62, 80
14, 888240, Note_on_c, 5, 74, 80
14, 888449, Note_on_c, 5, 62, 0
14, 888449, Note_on_c, 5, 74, 0
14, 888480, Note_on_c, 5, 62, 80
14, 888480, Note_on_c, 5, 74, 80
14, 888689, Note_on_c, 5, 62, 0
14, 888689, Note_on_c, 5, 74, 0
14, 888720, Note_on_c, 5, 74, 80
14, 888720, Note_on_c, 5, 62, 80
14, 888929, Note_on_c, 5, 74, 0
14, 888929, Note_on_c, 5, 62, 0
14, 888960, Note_on_c, 5, 74, 80
14, 888960, Note_on_c, 5, 62, 80
14, 890849, Note_on_c, 5, 74, 0
14, 890849, Note_on_c, 5, 62, 0
14, 890880, Note_on_c, 5, 62, 80
14, 890880, Note_on_c, 5, 74, 80
14, 891119, Note_on_c, 5, 62, 0
14, 891119, Note_on_c, 5, 74, 0
14, 891840, Note_on_c, 5, 74, 80
14, 891840, Note_on_c, 5, 62, 80
14, 892079, Note_on_c, 5, 74, 0
14, 892079, Note_on_c, 5, 62, 0
14, 892800, Note_on_c, 5, 74, 80
14, 892800, Note_on_c, 5, 62, 80
14, 893039, Note_on_c, 5, 74, 0
14, 893039, Note_on_c, 5, 62, 0
14, 893039, End_track
15, 0, Start_track
15, 0, Title_t, "Trumpet in B-flat"
15, 0, MIDI_port, 0
15, 0, Program_c, 5, 56
15, 0, Control_c, 5, 7, 112
15, 0, Control_c, 5, 11, 127
15, 0, Control_c, 5, 10, 60
15, 300480, Note_on_c, 5, 70, 32
15, 300719, Note_on_c, 5, 70, 0
15, 301560, Note_on_c, 5, 70, 32
15, 301784, Note_on_c, 5, 70, 0
15, 301800, Note_on_c, 5, 70, 32
15, 301904, Note_on_c, 5, 70, 0
15, 301920, Note_on_c, 5, 65, 32
15, 302159, Note_on_c, 5, 65, 0
15, 303000, Note_on_c, 5, 65, 32
15, 303224, Note_on_c, 5, 65, 0
15, 303240, Note_on_c, 5, 65, 32
15, 303344, Note_on_c, 5, 65, 0
15, 303360, Note_on_c, 5, 70, 32
15, 303599, Note_on_c, 5, 70, 0
15, 306240, Note_on_c, 5, 70, 32
15, 306479, Note_on_c, 5, 70, 0
15, 307320, Note_on_c, 5, 70, 32
15, 307544, Note_on_c, 5, 70, 0
15, 307560, Note_on_c, 5, 70, 32
15, 307664, Note_on_c, 5, 70, 0
15, 307680, Note_on_c, 5, 65, 32
15, 307919, Note_on_c, 5, 65, 0
15, 308040, Note_on_c, 5, 65, 32
15, 308264, Note_on_c, 5, 65, 0
15, 308280, Note_on_c, 5, 70, 32
15, 308384, Note_on_c, 5, 70, 0
15, 308400, Note_on_c, 5, 70, 32
15, 308639, Note_on_c, 5, 70, 0
15, 309840, Note_on_c, 5, 65, 32
15, 310079, Note_on_c, 5, 65, 0
15, 310200, Note_on_c, 5, 65, 32
15, 310424, Note_on_c, 5, 65, 0
15, 310440, Note_on_c, 5, 65, 32
15, 310544, Note_on_c, 5, 65, 0
15, 310560, Note_on_c, 5, 65, 32
15, 310799, Note_on_c, 5, 65, 0
15, 311280, Note_on_c, 5, 65, 32
15, 311519, Note_on_c, 5, 65, 0
15, 311640, Note_on_c, 5, 65, 32
15, 311864, Note_on_c, 5, 65, 0
15, 311880, Note_on_c, 5, 65, 32
15, 311984, Note_on_c, 5, 65, 0
15, 312000, Note_on_c, 5, 65, 32
15, 312239, Note_on_c, 5, 65, 0
15, 314880, Note_on_c, 5, 70, 32
15, 315119, Note_on_c, 5, 70, 0
15, 315960, Note_on_c, 5, 70, 32
15, 316184, Note_on_c, 5, 70, 0
15, 316200, Note_on_c, 5, 70, 32
15, 316304, Note_on_c, 5, 70, 0
15, 316320, Note_on_c, 5, 70, 32
15, 316559, Note_on_c, 5, 70, 0
15, 317400, Note_on_c, 5, 70, 32
15, 317624, Note_on_c, 5, 70, 0
15, 317640, Note_on_c, 5, 70, 32
15, 317744, Note_on_c, 5, 70, 0
15, 317760, Note_on_c, 5, 65, 32
15, 317999, Note_on_c, 5, 65, 0
15, 319560, Note_on_c, 5, 65, 32
15, 319784, Note_on_c, 5, 65, 0
15, 319800, Note_on_c, 5, 65, 32
15, 319904, Note_on_c, 5, 65, 0
15, 319920, Note_on_c, 5, 70, 32
15, 320159, Note_on_c, 5, 70, 0
15, 323520, Note_on_c, 5, 70, 32
15, 323759, Note_on_c, 5, 70, 0
15, 324600, Note_on_c, 5, 70, 32
15, 324824, Note_on_c, 5, 70, 0
15, 324840, Note_on_c, 5, 70, 32
15, 324944, Note_on_c, 5, 70, 0
15, 324960, Note_on_c, 5, 65, 32
15, 325199, Note_on_c, 5, 65, 0
15, 326040, Note_on_c, 5, 65, 32
15, 326264, Note_on_c, 5, 65, 0
15, 326280, Note_on_c, 5, 65, 32
15, 326384, Note_on_c, 5, 65, 0
15, 326400, Note_on_c, 5, 70, 32
15, 326639, Note_on_c, 5, 70, 0
15, 329280, Note_on_c, 5, 70, 32
15, 329519, Note_on_c, 5, 70, 0
15, 330360, Note_on_c, 5, 70, 32
15, 330584, Note_on_c, 5, 70, 0
15, 330600, Note_on_c, 5, 70, 32
15, 330704, Note_on_c, 5, 70, 0
15, 330720, Note_on_c, 5, 65, 32
15, 330959, Note_on_c, 5, 65, 0
15, 331080, Note_on_c, 5, 65, 32
15, 331304, Note_on_c, 5, 65, 0
15, 331320, Note_on_c, 5, 70, 32
15, 331424, Note_on_c, 5, 70, 0
15, 331440, Note_on_c, 5, 70, 32
15, 331679, Note_on_c, 5, 70, 0
15, 332880, Note_on_c, 5, 65, 32
15, 333119, Note_on_c, 5, 65, 0
15, 333240, Note_on_c, 5, 65, 32
15, 333464, Note_on_c, 5, 65, 0
15, 333480, Note_on_c, 5, 65, 32
15, 333584, Note_on_c, 5, 65, 0
15, 333600, Note_on_c, 5, 65, 32
15, 333839, Note_on_c, 5, 65, 0
15, 334320, Note_on_c, 5, 65, 32
15, 334559, Note_on_c, 5, 65, 0
15, 334680, Note_on_c, 5, 65, 32
15, 334904, Note_on_c, 5, 65, 0
15, 334920, Note_on_c, 5, 65, 32
15, 335024, Note_on_c, 5, 65, 0
15, 335040, Note_on_c, 5, 65, 32
15, 335279, Note_on_c, 5, 65, 0
15, 337920, Note_on_c, 5, 70, 32
15, 338159, Note_on_c, 5, 70, 0
15, 339000, Note_on_c, 5, 70, 32
15, 339224, Note_on_c, 5, 70, 0
15, 339240, Note_on_c, 5, 70, 32
15, 339344, Note_on_c, 5, 70, 0
15, 339360, Note_on_c, 5, 70, 32
15, 339599, Note_on_c, 5, 70, 0
15, 340440, Note_on_c, 5, 70, 32
15, 340664, Note_on_c, 5, 70, 0
15, 340680, Note_on_c, 5, 70, 32
15, 340784, Note_on_c, 5, 70, 0
15, 340800, Note_on_c, 5, 65, 32
15, 341039, Note_on_c, 5, 65, 0
15, 342600, Note_on_c, 5, 65, 32
15, 342824, Note_on_c, 5, 65, 0
15, 342840, Note_on_c, 5, 65, 32
15, 342944, Note_on_c, 5, 65, 0
15, 342960, Note_on_c, 5, 70, 32
15, 343199, Note_on_c, 5, 70, 0
15, 344760, Note_on_c, 5, 65, 32
15, 344984, Note_on_c, 5, 65, 0
15, 345000, Note_on_c, 5, 65, 32
15, 345104, Note_on_c, 5, 65, 0
15, 345120, Note_on_c, 5, 65, 32
15, 345359, Note_on_c, 5, 65, 0
15, 346200, Note_on_c, 5, 65, 32
15, 346424, Note_on_c, 5, 65, 0
15, 346440, Note_on_c, 5, 65, 32
15, 346544, Note_on_c, 5, 65, 0
15, 346560, Note_on_c, 5, 65, 32
15, 346799, Note_on_c, 5, 65, 0
15, 349440, Note_on_c, 5, 70, 32
15, 349679, Note_on_c, 5, 70, 0
15, 350520, Note_on_c, 5, 70, 32
15, 350744, Note_on_c, 5, 70, 0
15, 350760, Note_on_c, 5, 70, 32
15, 350864, Note_on_c, 5, 70, 0
15, 350880, Note_on_c, 5, 70, 32
15, 351119, Note_on_c, 5, 70, 0
15, 351960, Note_on_c, 5, 70, 32
15, 352184, Note_on_c, 5, 70, 0
15, 352200, Note_on_c, 5, 70, 32
15, 352304, Note_on_c, 5, 70, 0
15, 352320, Note_on_c, 5, 70, 80
15, 352559, Note_on_c, 5, 70, 0
15, 353400, Note_on_c, 5, 65, 86
15, 353624, Note_on_c, 5, 65, 0
15, 353640, Note_on_c, 5, 65, 86
15, 353744, Note_on_c, 5, 65, 0
15, 353760, Note_on_c, 5, 65, 86
15, 353999, Note_on_c, 5, 65, 0
15, 354120, Note_on_c, 5, 65, 86
15, 354344, Note_on_c, 5, 65, 0
15, 354360, Note_on_c, 5, 65, 86
15, 354464, Note_on_c, 5, 65, 0
15, 354480, Note_on_c, 5, 58, 86
15, 354719, Note_on_c, 5, 58, 0
15, 355200, Note_on_c, 5, 70, 92
15, 355439, Note_on_c, 5, 70, 0
15, 356280, Note_on_c, 5, 70, 92
15, 356504, Note_on_c, 5, 70, 0
15, 356520, Note_on_c, 5, 70, 92
15, 356624, Note_on_c, 5, 70, 0
15, 356640, Note_on_c, 5, 70, 92
15, 356879, Note_on_c, 5, 70, 0
15, 357720, Note_on_c, 5, 70, 92
15, 357944, Note_on_c, 5, 70, 0
15, 357960, Note_on_c, 5, 70, 92
15, 358064, Note_on_c, 5, 70, 0
15, 358080, Note_on_c, 5, 65, 92
15, 358319, Note_on_c, 5, 65, 0
15, 359160, Note_on_c, 5, 65, 92
15, 359384, Note_on_c, 5, 65, 0
15, 359400, Note_on_c, 5, 65, 92
15, 359504, Note_on_c, 5, 65, 0
15, 359520, Note_on_c, 5, 70, 92
15, 359759, Note_on_c, 5, 70, 0
15, 359880, Note_on_c, 5, 65, 92
15, 360104, Note_on_c, 5, 65, 0
15, 360120, Note_on_c, 5, 65, 92
15, 360224, Note_on_c, 5, 65, 0
15, 360240, Note_on_c, 5, 70, 92
15, 360479, Note_on_c, 5, 70, 0
15, 360600, Note_on_c, 5, 65, 92
15, 360824, Note_on_c, 5, 65, 0
15, 360840, Note_on_c, 5, 65, 92
15, 360944, Note_on_c, 5, 65, 0
15, 360960, Note_on_c, 5, 70, 92
15, 361199, Note_on_c, 5, 70, 0
15, 361199, End_track
16, 0, Start_track
16, 0, Title_t, "Alto and Tenor Trombone"
16, 0, MIDI_port, 0
16, 0, Control_c, 6, 121, 0
16, 479040, Control_c, 4, 11, 127
16, 479040, Program_c, 4, 57
16, 479040, Control_c, 4, 7, 104
16, 479040, Control_c, 4, 10, 80
16, 492480, Note_on_c, 4, 62, 80
16, 492480, Note_on_c, 4, 71, 80
16, 492839, Note_on_c, 4, 62, 0
16, 492839, Note_on_c, 4, 71, 0
16, 492960, Note_on_c, 4, 71, 80
16, 492960, Note_on_c, 4, 62, 80
16, 493319, Note_on_c, 4, 71, 0
16, 493319, Note_on_c, 4, 62, 0
16, 493440, Note_on_c, 4, 62, 80
16, 493440, Note_on_c, 4, 69, 80
16, 493799, Note_on_c, 4, 62, 0
16, 493799, Note_on_c, 4, 69, 0
16, 493920, Note_on_c, 4, 62, 80
16, 493920, Note_on_c, 4, 66, 80
16, 494279, Note_on_c, 4, 62, 0
16, 494279, Note_on_c, 4, 66, 0
16, 494400, Note_on_c, 4, 67, 80
16, 494880, Note_on_c, 4, 64, 80
16, 495819, Note_on_c, 4, 67, 0
16, 495819, Note_on_c, 4, 64, 0
16, 495840, Note_on_c, 4, 60, 80
16, 495840, Note_on_c, 4, 67, 80
16, 496199, Note_on_c, 4, 60, 0
16, 496199, Note_on_c, 4, 67, 0
16, 496320, Note_on_c, 4, 67, 80
16, 496320, Note_on_c, 4, 59, 80
16, 496679, Note_on_c, 4, 67, 0
16, 496679, Note_on_c, 4, 59, 0
16, 496800, Note_on_c, 4, 59, 80
16, 496800, Note_on_c, 4, 71, 80
16, 497159, Note_on_c, 4, 59, 0
16, 497159, Note_on_c, 4, 71, 0
16, 497280, Note_on_c, 4, 71, 92
16, 497360, Control_c, 4, 11, 107
16, 498219, Note_on_c, 4, 71, 0
16, 498238, Control_c, 4, 11, 127
16, 498240, Note_on_c, 4, 60, 80
16, 498240, Note_on_c, 4, 69, 80
16, 498699, Note_on_c, 4, 60, 0
16, 498699, Note_on_c, 4, 69, 0
16, 498720, Note_on_c, 4, 64, 80
16, 498720, Note_on_c, 4, 72, 80
16, 499179, Note_on_c, 4, 64, 0
16, 499179, Note_on_c, 4, 72, 0
16, 499200, Note_on_c, 4, 63, 80
16, 499200, Note_on_c, 4, 71, 80
16, 499659, Note_on_c, 4, 63, 0
16, 499659, Note_on_c, 4, 71, 0
16, 499680, Note_on_c, 4, 64, 92
16, 499680, Note_on_c, 4, 67, 92
16, 499760, Control_c, 4, 11, 107
16, 500619, Note_on_c, 4, 64, 0
16, 500619, Note_on_c, 4, 67, 0
16, 500638, Control_c, 4, 11, 127
16, 500640, Note_on_c, 4, 67, 92
16, 500640, Note_on_c, 4, 72, 92
16, 501579, Note_on_c, 4, 67, 0
16, 501579, Note_on_c, 4, 72, 0
16, 501600, Note_on_c, 4, 67, 92
16, 501600, Note_on_c, 4, 72, 92
16, 502059, Note_on_c, 4, 67, 0
16, 502059, Note_on_c, 4, 72, 0
16, 502080, Note_on_c, 4, 66, 92
16, 502080, Note_on_c, 4, 69, 92
16, 503499, Note_on_c, 4, 66, 0
16, 503499, Note_on_c, 4, 69, 0
16, 503520, Note_on_c, 4, 60, 92
16, 503999, Note_on_c, 4, 60, 0
16, 504000, Note_on_c, 4, 62, 92
16, 504699, Note_on_c, 4, 62, 0
16, 504720, Note_on_c, 4, 60, 92
16, 504959, Note_on_c, 4, 60, 0
16, 505440, Note_on_c, 4, 65, 92
16, 506139, Note_on_c, 4, 65, 0
16, 506160, Note_on_c, 4, 65, 92
16, 506379, Note_on_c, 4, 65, 0
16, 506400, Note_on_c, 4, 65, 92
16, 507339, Note_on_c, 4, 65, 0
16, 507360, Note_on_c, 4, 65, 92
16, 507819, Note_on_c, 4, 65, 0
16, 507840, Note_on_c, 4, 65, 92
16, 508779, Note_on_c, 4, 65, 0
16, 508800, Note_on_c, 4, 62, 104
16, 508880, Control_c, 4, 11, 107
16, 510219, Note_on_c, 4, 62, 0
16, 510238, Control_c, 4, 11, 127
16, 510240, Note_on_c, 4, 60, 92
16, 510699, Note_on_c, 4, 60, 0
16, 510720, Note_on_c, 4, 60, 92
16, 511199, Note_on_c, 4, 60, 0
16, 511200, Note_on_c, 4, 57, 92
16, 511659, Note_on_c, 4, 57, 0
16, 511680, Note_on_c, 4, 55, 92
16, 512139, Note_on_c, 4, 55, 0
16, 512160, Note_on_c, 4, 65, 104
16, 512240, Control_c, 4, 11, 107
16, 513099, Note_on_c, 4, 65, 0
16, 513118, Control_c, 4, 11, 127
16, 513120, Note_on_c, 4, 64, 92
16, 513579, Note_on_c, 4, 64, 0
16, 513600, Note_on_c, 4, 64, 92
16, 513959, Note_on_c, 4, 64, 0
16, 514080, Note_on_c, 4, 62, 92
16, 514439, Note_on_c, 4, 62, 0
16, 515040, Note_on_c, 4, 57, 80
16, 515040, Note_on_c, 4, 65, 80
16, 515519, Note_on_c, 4, 57, 0
16, 515520, Note_on_c, 4, 58, 80
16, 516219, Note_on_c, 4, 65, 0
16, 516219, Note_on_c, 4, 58, 0
16, 516240, Note_on_c, 4, 57, 80
16, 516240, Note_on_c, 4, 65, 80
16, 516479, Note_on_c, 4, 57, 0
16, 516479, Note_on_c, 4, 65, 0
16, 516720, Note_on_c, 4, 60, 80
16, 516720, Note_on_c, 4, 65, 80
16, 516959, Note_on_c, 4, 60, 0
16, 516960, Note_on_c, 4, 58, 80
16, 517659, Note_on_c, 4, 65, 0
16, 517659, Note_on_c, 4, 58, 0
16, 517680, Note_on_c, 4, 65, 80
16, 517680, Note_on_c, 4, 70, 80
16, 517899, Note_on_c, 4, 65, 0
16, 517899, Note_on_c, 4, 70, 0
16, 517920, Note_on_c, 4, 65, 80
16, 517920, Note_on_c, 4, 70, 80
16, 518859, Note_on_c, 4, 65, 0
16, 518859, Note_on_c, 4, 70, 0
16, 518880, Note_on_c, 4, 65, 80
16, 518880, Note_on_c, 4, 70, 80
16, 519339, Note_on_c, 4, 65, 0
16, 519339, Note_on_c, 4, 70, 0
16, 519360, Note_on_c, 4, 65, 80
16, 519360, Note_on_c, 4, 70, 80
16, 520299, Note_on_c, 4, 65, 0
16, 520299, Note_on_c, 4, 70, 0
16, 520320, Note_on_c, 4, 70, 92
16, 520320, Note_on_c, 4, 65, 92
16, 520400, Control_c, 4, 11, 107
16, 521739, Note_on_c, 4, 70, 0
16, 521739, Note_on_c, 4, 65, 0
16, 521758, Control_c, 4, 11, 127
16, 521760, Note_on_c, 4, 64, 80
16, 521760, Note_on_c, 4, 67, 80
16, 522219, Note_on_c, 4, 64, 0
16, 522219, Note_on_c, 4, 67, 0
16, 522240, Note_on_c, 4, 64, 80
16, 522240, Note_on_c, 4, 67, 80
16, 522719, Note_on_c, 4, 64, 0
16, 522719, Note_on_c, 4, 67, 0
16, 522720, Note_on_c, 4, 65, 80
16, 522720, Note_on_c, 4, 69, 80
16, 523179, Note_on_c, 4, 65, 0
16, 523179, Note_on_c, 4, 69, 0
16, 523200, Note_on_c, 4, 67, 80
16, 523200, Note_on_c, 4, 64, 80
16, 523659, Note_on_c, 4, 67, 0
16, 523659, Note_on_c, 4, 64, 0
16, 523680, Note_on_c, 4, 60, 80
16, 523680, Note_on_c, 4, 69, 80
16, 524399, Note_on_c, 4, 60, 0
16, 524399, Note_on_c, 4, 69, 0
16, 524400, Note_on_c, 4, 62, 80
16, 524400, Note_on_c, 4, 71, 80
16, 524619, Note_on_c, 4, 62, 0
16, 524619, Note_on_c, 4, 71, 0
16, 524640, Note_on_c, 4, 72, 80
16, 524640, Note_on_c, 4, 64, 80
16, 524879, Note_on_c, 4, 64, 0
16, 524880, Note_on_c, 4, 65, 80
16, 525099, Note_on_c, 4, 72, 0
16, 525099, Note_on_c, 4, 65, 0
16, 525120, Note_on_c, 4, 72, 80
16, 525120, Note_on_c, 4, 67, 80
16, 525479, Note_on_c, 4, 72, 0
16, 525479, Note_on_c, 4, 67, 0
16, 525600, Note_on_c, 4, 67, 80
16, 525600, Note_on_c, 4, 71, 80
16, 525959, Note_on_c, 4, 67, 0
16, 525959, Note_on_c, 4, 71, 0
16, 526080, Note_on_c, 4, 67, 44
16, 526080, Note_on_c, 4, 70, 44
16, 526319, Note_on_c, 4, 67, 0
16, 526319, Note_on_c, 4, 70, 0
16, 542400, Note_on_c, 4, 72, 80
16, 542400, Note_on_c, 4, 67, 80
16, 543359, Note_on_c, 4, 72, 0
16, 543359, Note_on_c, 4, 67, 0
16, 548160, Note_on_c, 4, 66, 80
16, 548160, Note_on_c, 4, 69, 80
16, 549599, Note_on_c, 4, 66, 0
16, 549599, Note_on_c, 4, 69, 0
16, 550080, Note_on_c, 4, 67, 92
16, 550080, Note_on_c, 4, 63, 92
16, 550784, Note_on_c, 4, 67, 0
16, 550784, Note_on_c, 4, 63, 0
16, 550800, Note_on_c, 4, 67, 92
16, 550800, Note_on_c, 4, 63, 92
16, 551024, Note_on_c, 4, 67, 0
16, 551024, Note_on_c, 4, 63, 0
16, 551040, Note_on_c, 4, 67, 92
16, 551040, Note_on_c, 4, 70, 92
16, 551984, Note_on_c, 4, 67, 0
16, 551984, Note_on_c, 4, 70, 0
16, 552000, Note_on_c, 4, 70, 92
16, 552000, Note_on_c, 4, 67, 92
16, 552464, Note_on_c, 4, 70, 0
16, 552464, Note_on_c, 4, 67, 0
16, 552480, Note_on_c, 4, 67, 92
16, 552480, Note_on_c, 4, 70, 92
16, 552944, Note_on_c, 4, 67, 0
16, 552944, Note_on_c, 4, 70, 0
16, 552960, Note_on_c, 4, 67, 92
16, 552960, Note_on_c, 4, 70, 92
16, 553904, Note_on_c, 4, 67, 0
16, 553904, Note_on_c, 4, 70, 0
16, 553920, Note_on_c, 4, 67, 92
16, 553920, Note_on_c, 4, 70, 92
16, 554864, Note_on_c, 4, 67, 0
16, 554864, Note_on_c, 4, 70, 0
16, 554880, Note_on_c, 4, 67, 92
16, 554880, Note_on_c, 4, 70, 92
16, 555359, Note_on_c, 4, 67, 0
16, 555359, Note_on_c, 4, 70, 0
16, 561600, Note_on_c, 4, 61, 32
16, 561600, Note_on_c, 4, 57, 32
16, 562064, Note_on_c, 4, 61, 0
16, 562064, Note_on_c, 4, 57, 0
16, 562080, Note_on_c, 4, 57, 32
16, 562080, Note_on_c, 4, 61, 32
16, 562544, Note_on_c, 4, 57, 0
16, 562544, Note_on_c, 4, 61, 0
16, 562560, Note_on_c, 4, 57, 32
16, 562560, Note_on_c, 4, 61, 32
16, 563504, Note_on_c, 4, 57, 0
16, 563504, Note_on_c, 4, 61, 0
16, 563520, Note_on_c, 4, 57, 32
16, 563520, Note_on_c, 4, 61, 32
16, 563984, Note_on_c, 4, 57, 0
16, 563984, Note_on_c, 4, 61, 0
16, 564000, Note_on_c, 4, 57, 32
16, 564000, Note_on_c, 4, 61, 32
16, 564464, Note_on_c, 4, 57, 0
16, 564464, Note_on_c, 4, 61, 0
16, 564480, Note_on_c, 4, 61, 32
16, 564480, Note_on_c, 4, 57, 32
16, 565424, Note_on_c, 4, 61, 0
16, 565424, Note_on_c, 4, 57, 0
16, 565440, Note_on_c, 4, 57, 32
16, 565440, Note_on_c, 4, 61, 32
16, 566384, Note_on_c, 4, 57, 0
16, 566384, Note_on_c, 4, 61, 0
16, 566400, Note_on_c, 4, 57, 32
16, 566400, Note_on_c, 4, 61, 32
16, 566879, Note_on_c, 4, 57, 0
16, 566879, Note_on_c, 4, 61, 0
16, 569760, Note_on_c, 6, 73, 92
16, 569840, Control_c, 6, 11, 107
16, 570459, Note_on_c, 6, 73, 0
16, 570478, Control_c, 6, 11, 127
16, 570480, Note_on_c, 6, 69, 92
16, 570560, Control_c, 6, 11, 107
16, 571179, Note_on_c, 6, 69, 0
16, 571198, Control_c, 6, 11, 127
16, 571200, Note_on_c, 6, 71, 92
16, 571280, Control_c, 6, 11, 107
16, 571899, Note_on_c, 6, 71, 0
16, 571918, Control_c, 6, 11, 127
16, 571920, Note_on_c, 6, 71, 92
16, 572000, Control_c, 6, 11, 107
16, 572619, Note_on_c, 6, 71, 0
16, 572638, Control_c, 6, 11, 127
16, 572640, Note_on_c, 6, 69, 80
16, 573339, Note_on_c, 6, 69, 0
16, 573360, Note_on_c, 6, 66, 80
16, 574059, Note_on_c, 6, 66, 0
16, 574080, Note_on_c, 6, 67, 80
16, 574779, Note_on_c, 6, 67, 0
16, 574800, Note_on_c, 6, 67, 80
16, 575499, Note_on_c, 6, 67, 0
16, 575520, Note_on_c, 6, 66, 80
16, 576219, Note_on_c, 6, 66, 0
16, 576240, Note_on_c, 6, 62, 80
16, 576939, Note_on_c, 6, 62, 0
16, 576960, Note_on_c, 6, 71, 80
16, 577659, Note_on_c, 6, 71, 0
16, 577680, Note_on_c, 6, 71, 80
16, 578379, Note_on_c, 6, 71, 0
16, 578400, Note_on_c, 6, 69, 80
16, 579099, Note_on_c, 6, 69, 0
16, 579120, Note_on_c, 6, 69, 92
16, 579120, Note_on_c, 6, 61, 92
16, 580539, Note_on_c, 6, 69, 0
16, 580539, Note_on_c, 6, 61, 0
16, 580560, Note_on_c, 6, 69, 80
16, 580560, Note_on_c, 6, 61, 80
16, 581259, Note_on_c, 6, 69, 0
16, 581259, Note_on_c, 6, 61, 0
16, 581280, Note_on_c, 6, 68, 80
16, 581280, Note_on_c, 6, 59, 80
16, 581979, Note_on_c, 6, 68, 0
16, 581979, Note_on_c, 6, 59, 0
16, 582000, Note_on_c, 6, 57, 80
16, 582000, Note_on_c, 6, 64, 80
16, 582479, Note_on_c, 6, 57, 0
16, 582480, Note_on_c, 6, 56, 80
16, 582699, Note_on_c, 6, 64, 0
16, 582699, Note_on_c, 6, 56, 0
16, 582720, Note_on_c, 6, 66, 80
16, 582720, Note_on_c, 6, 62, 80
16, 583419, Note_on_c, 6, 66, 0
16, 583419, Note_on_c, 6, 62, 0
16, 583440, Note_on_c, 6, 66, 80
16, 584139, Note_on_c, 6, 66, 0
16, 584160, Note_on_c, 6, 64, 80
16, 584859, Note_on_c, 6, 64, 0
16, 584880, Note_on_c, 6, 64, 80
16, 584880, Note_on_c, 6, 61, 80
16, 585579, Note_on_c, 6, 64, 0
16, 585579, Note_on_c, 6, 61, 0
16, 585600, Note_on_c, 6, 66, 80
16, 585600, Note_on_c, 6, 62, 80
16, 586299, Note_on_c, 6, 66, 0
16, 586299, Note_on_c, 6, 62, 0
16, 586320, Note_on_c, 6, 62, 80
16, 586320, Note_on_c, 6, 66, 80
16, 587019, Note_on_c, 6, 62, 0
16, 587019, Note_on_c, 6, 66, 0
16, 587040, Note_on_c, 6, 61, 80
16, 587040, Note_on_c, 6, 64, 80
16, 587739, Note_on_c, 6, 61, 0
16, 587739, Note_on_c, 6, 64, 0
16, 587760, Note_on_c, 6, 62, 80
16, 587760, Note_on_c, 6, 57, 80
16, 588239, Note_on_c, 6, 62, 0
16, 588240, Note_on_c, 6, 61, 80
16, 588459, Note_on_c, 6, 57, 0
16, 588459, Note_on_c, 6, 61, 0
16, 588480, Note_on_c, 6, 67, 80
16, 588480, Note_on_c, 6, 64, 80
16, 589179, Note_on_c, 6, 67, 0
16, 589179, Note_on_c, 6, 64, 0
16, 589200, Note_on_c, 6, 64, 80
16, 589200, Note_on_c, 6, 67, 80
16, 589899, Note_on_c, 6, 64, 0
16, 589899, Note_on_c, 6, 67, 0
16, 589920, Note_on_c, 6, 62, 80
16, 589920, Note_on_c, 6, 66, 80
16, 590639, Note_on_c, 6, 62, 0
16, 590639, Note_on_c, 6, 66, 0
16, 591360, Note_on_c, 6, 66, 80
16, 591819, Note_on_c, 6, 66, 0
16, 591840, Note_on_c, 6, 66, 80
16, 592059, Note_on_c, 6, 66, 0
16, 592080, Note_on_c, 6, 67, 80
16, 592539, Note_on_c, 6, 67, 0
16, 592560, Note_on_c, 6, 69, 80
16, 592779, Note_on_c, 6, 69, 0
16, 592800, Note_on_c, 6, 64, 80
16, 592800, Note_on_c, 6, 69, 80
16, 593259, Note_on_c, 6, 64, 0
16, 593259, Note_on_c, 6, 69, 0
16, 593280, Note_on_c, 6, 64, 80
16, 593280, Note_on_c, 6, 67, 80
16, 593499, Note_on_c, 6, 64, 0
16, 593499, Note_on_c, 6, 67, 0
16, 593520, Note_on_c, 6, 66, 80
16, 593979, Note_on_c, 6, 66, 0
16, 594000, Note_on_c, 6, 64, 80
16, 594219, Note_on_c, 6, 64, 0
16, 594240, Note_on_c, 6, 62, 80
16, 594699, Note_on_c, 6, 62, 0
16, 594720, Note_on_c, 6, 62, 80
16, 594939, Note_on_c, 6, 62, 0
16, 594960, Note_on_c, 6, 64, 80
16, 595419, Note_on_c, 6, 64, 0
16, 595440, Note_on_c, 6, 66, 80
16, 595659, Note_on_c, 6, 66, 0
16, 595680, Note_on_c, 6, 69, 80
16, 595680, Note_on_c, 6, 66, 80
16, 596139, Note_on_c, 6, 69, 0
16, 596139, Note_on_c, 6, 66, 0
16, 596160, Note_on_c, 6, 64, 80
16, 596160, Note_on_c, 6, 69, 80
16, 596379, Note_on_c, 6, 64, 0
16, 596379, Note_on_c, 6, 69, 0
16, 596400, Note_on_c, 6, 62, 80
16, 596859, Note_on_c, 6, 62, 0
16, 596880, Note_on_c, 6, 60, 80
16, 597099, Note_on_c, 6, 60, 0
16, 597120, Note_on_c, 6, 59, 80
16, 597579, Note_on_c, 6, 59, 0
16, 597600, Note_on_c, 6, 59, 80
16, 597819, Note_on_c, 6, 59, 0
16, 597840, Note_on_c, 6, 67, 80
16, 597840, Note_on_c, 6, 61, 80
16, 598299, Note_on_c, 6, 67, 0
16, 598299, Note_on_c, 6, 61, 0
16, 598320, Note_on_c, 6, 55, 80
16, 598320, Note_on_c, 6, 62, 80
16, 598539, Note_on_c, 6, 55, 0
16, 598539, Note_on_c, 6, 62, 0
16, 598560, Note_on_c, 6, 62, 80
16, 599039, Note_on_c, 6, 62, 0
16, 599280, Note_on_c, 6, 67, 80
16, 599280, Note_on_c, 6, 59, 80
16, 599739, Note_on_c, 6, 67, 0
16, 599739, Note_on_c, 6, 59, 0
16, 599760, Note_on_c, 6, 66, 80
16, 599760, Note_on_c, 6, 57, 80
16, 599979, Note_on_c, 6, 66, 0
16, 599979, Note_on_c, 6, 57, 0
16, 600000, Note_on_c, 6, 64, 80
16, 600000, Note_on_c, 6, 55, 80
16, 600459, Note_on_c, 6, 64, 0
16, 600459, Note_on_c, 6, 55, 0
16, 600480, Note_on_c, 6, 62, 80
16, 600480, Note_on_c, 6, 54, 80
16, 600699, Note_on_c, 6, 62, 0
16, 600699, Note_on_c, 6, 54, 0
16, 600720, Note_on_c, 6, 61, 80
16, 600720, Note_on_c, 6, 52, 80
16, 601179, Note_on_c, 6, 61, 0
16, 601179, Note_on_c, 6, 52, 0
16, 601200, Note_on_c, 6, 50, 80
16, 601200, Note_on_c, 6, 62, 80
16, 601419, Note_on_c, 6, 50, 0
16, 601419, Note_on_c, 6, 62, 0
16, 601440, Note_on_c, 6, 57, 80
16, 601440, Note_on_c, 6, 66, 80
16, 601899, Note_on_c, 6, 57, 0
16, 601899, Note_on_c, 6, 66, 0
16, 601920, Note_on_c, 6, 64, 80
16, 601920, Note_on_c, 6, 57, 80
16, 602139, Note_on_c, 6, 64, 0
16, 602139, Note_on_c, 6, 57, 0
16, 602160, Note_on_c, 6, 57, 80
16, 602639, Note_on_c, 6, 57, 0
16, 602880, Note_on_c, 6, 73, 80
16, 603339, Note_on_c, 6, 73, 0
16, 603360, Note_on_c, 6, 73, 80
16, 603599, Note_on_c, 6, 73, 0
16, 604320, Note_on_c, 6, 64, 80
16, 604779, Note_on_c, 6, 64, 0
16, 604800, Note_on_c, 6, 64, 80
16, 605019, Note_on_c, 6, 64, 0
16, 605040, Note_on_c, 6, 73, 80
16, 605499, Note_on_c, 6, 73, 0
16, 605520, Note_on_c, 6, 71, 80
16, 605739, Note_on_c, 6, 71, 0
16, 605760, Note_on_c, 6, 69, 80
16, 606219, Note_on_c, 6, 69, 0
16, 606240, Note_on_c, 6, 69, 80
16, 606459, Note_on_c, 6, 69, 0
16, 606480, Note_on_c, 6, 71, 80
16, 606939, Note_on_c, 6, 71, 0
16, 606960, Note_on_c, 6, 73, 80
16, 607179, Note_on_c, 6, 73, 0
16, 607200, Note_on_c, 6, 73, 80
16, 607200, Note_on_c, 6, 69, 80
16, 607659, Note_on_c, 6, 73, 0
16, 607659, Note_on_c, 6, 69, 0
16, 607680, Note_on_c, 6, 71, 80
16, 607680, Note_on_c, 6, 69, 80
16, 607899, Note_on_c, 6, 71, 0
16, 607899, Note_on_c, 6, 69, 0
16, 607920, Note_on_c, 6, 69, 80
16, 608379, Note_on_c, 6, 69, 0
16, 608400, Note_on_c, 6, 67, 80
16, 608619, Note_on_c, 6, 67, 0
16, 608640, Note_on_c, 6, 66, 80
16, 609099, Note_on_c, 6, 66, 0
16, 609120, Note_on_c, 6, 66, 80
16, 609339, Note_on_c, 6, 66, 0
16, 609360, Note_on_c, 6, 59, 80
16, 609360, Note_on_c, 6, 68, 80
16, 609819, Note_on_c, 6, 68, 0
16, 609840, Note_on_c, 6, 69, 80
16, 610059, Note_on_c, 6, 59, 0
16, 610059, Note_on_c, 6, 69, 0
16, 610080, Note_on_c, 6, 69, 80
16, 610080, Note_on_c, 6, 57, 80
16, 610539, Note_on_c, 6, 69, 0
16, 610539, Note_on_c, 6, 57, 0
16, 610560, Note_on_c, 6, 61, 80
16, 610560, Note_on_c, 6, 67, 80
16, 610779, Note_on_c, 6, 61, 0
16, 610779, Note_on_c, 6, 67, 0
16, 610800, Note_on_c, 6, 62, 80
16, 610800, Note_on_c, 6, 66, 80
16, 611259, Note_on_c, 6, 62, 0
16, 611259, Note_on_c, 6, 66, 0
16, 611280, Note_on_c, 6, 64, 80
16, 611499, Note_on_c, 6, 64, 0
16, 611520, Note_on_c, 6, 64, 80
16, 612219, Note_on_c, 6, 64, 0
16, 612240, Note_on_c, 6, 62, 80
16, 612699, Note_on_c, 6, 62, 0
16, 612720, Note_on_c, 6, 61, 80
16, 612939, Note_on_c, 6, 61, 0
16, 612960, Note_on_c, 6, 73, 80
16, 613419, Note_on_c, 6, 73, 0
16, 613440, Note_on_c, 6, 73, 80
16, 613659, Note_on_c, 6, 73, 0
16, 613680, Note_on_c, 6, 58, 80
16, 613680, Note_on_c, 6, 73, 80
16, 614139, Note_on_c, 6, 58, 0
16, 614379, Note_on_c, 6, 73, 0
16, 614400, Note_on_c, 6, 61, 80
16, 614879, Note_on_c, 6, 61, 0
16, 615120, Note_on_c, 6, 66, 80
16, 615120, Note_on_c, 6, 58, 80
16, 615579, Note_on_c, 6, 58, 0
16, 615600, Note_on_c, 6, 54, 80
16, 615819, Note_on_c, 6, 54, 0
16, 615840, Note_on_c, 6, 54, 80
16, 616319, Note_on_c, 6, 66, 0
16, 616319, Note_on_c, 6, 54, 0
16, 616560, Note_on_c, 6, 59, 80
16, 616560, Note_on_c, 6, 63, 80
16, 617039, Note_on_c, 6, 63, 0
16, 617279, Note_on_c, 6, 59, 0
16, 617280, Note_on_c, 6, 59, 80
16, 617759, Note_on_c, 6, 59, 0
16, 618000, Note_on_c, 6, 54, 80
16, 618000, Note_on_c, 6, 63, 80
16, 618479, Note_on_c, 6, 54, 0
16, 618479, Note_on_c, 6, 63, 0
16, 618720, Note_on_c, 6, 59, 80
16, 619199, Note_on_c, 6, 59, 0
16, 619440, Note_on_c, 6, 64, 80
16, 619440, Note_on_c, 6, 59, 80
16, 619899, Note_on_c, 6, 59, 0
16, 619920, Note_on_c, 6, 64, 80
16, 620159, Note_on_c, 6, 64, 0
16, 620639, Note_on_c, 6, 64, 0
16, 620880, Note_on_c, 6, 57, 80
16, 621339, Note_on_c, 6, 57, 0
16, 621360, Note_on_c, 6, 64, 80
16, 622059, Note_on_c, 6, 64, 0
16, 622080, Note_on_c, 6, 62, 80
16, 622299, Note_on_c, 6, 62, 0
16, 622320, Note_on_c, 6, 66, 80
16, 622779, Note_on_c, 6, 66, 0
16, 622800, Note_on_c, 6, 64, 80
16, 623499, Note_on_c, 6, 64, 0
16, 623520, Note_on_c, 6, 62, 80
16, 623739, Note_on_c, 6, 62, 0
16, 623760, Note_on_c, 6, 64, 80
16, 624219, Note_on_c, 6, 64, 0
16, 624240, Note_on_c, 6, 66, 80
16, 624459, Note_on_c, 6, 66, 0
16, 624480, Note_on_c, 6, 64, 80
16, 624480, Note_on_c, 6, 73, 80
16, 625179, Note_on_c, 6, 64, 0
16, 625179, Note_on_c, 6, 73, 0
16, 625200, Note_on_c, 6, 69, 80
16, 625680, Note_on_c, 6, 61, 80
16, 625899, Note_on_c, 6, 69, 0
16, 625920, Note_on_c, 6, 71, 80
16, 626379, Note_on_c, 6, 61, 0
16, 626400, Note_on_c, 6, 59, 80
16, 626619, Note_on_c, 6, 71, 0
16, 626619, Note_on_c, 6, 59, 0
16, 626640, Note_on_c, 6, 61, 80
16, 626640, Note_on_c, 6, 71, 80
16, 627099, Note_on_c, 6, 61, 0
16, 627120, Note_on_c, 6, 62, 80
16, 627339, Note_on_c, 6, 71, 0
16, 627339, Note_on_c, 6, 62, 0
16, 627360, Note_on_c, 6, 69, 80
16, 627360, Note_on_c, 6, 62, 80
16, 627839, Note_on_c, 6, 62, 0
16, 628059, Note_on_c, 6, 69, 0
16, 628080, Note_on_c, 6, 66, 80
16, 628560, Note_on_c, 6, 57, 80
16, 628779, Note_on_c, 6, 66, 0
16, 628779, Note_on_c, 6, 57, 0
16, 628800, Note_on_c, 6, 68, 80
16, 628800, Note_on_c, 6, 64, 80
16, 629259, Note_on_c, 6, 64, 0
16, 629280, Note_on_c, 6, 62, 80
16, 629499, Note_on_c, 6, 68, 0
16, 629499, Note_on_c, 6, 62, 0
16, 629520, Note_on_c, 6, 61, 80
16, 629520, Note_on_c, 6, 68, 80
16, 629979, Note_on_c, 6, 61, 0
16, 630000, Note_on_c, 6, 59, 80
16, 630219, Note_on_c, 6, 68, 0
16, 630219, Note_on_c, 6, 59, 0
16, 630240, Note_on_c, 6, 66, 80
16, 630720, Note_on_c, 6, 50, 80
16, 630939, Note_on_c, 6, 66, 0
16, 630939, Note_on_c, 6, 50, 0
16, 630960, Note_on_c, 6, 52, 80
16, 630960, Note_on_c, 6, 62, 80
16, 631419, Note_on_c, 6, 52, 0
16, 631440, Note_on_c, 6, 54, 80
16, 631659, Note_on_c, 6, 62, 0
16, 631659, Note_on_c, 6, 54, 0
16, 631680, Note_on_c, 6, 71, 80
16, 631680, Note_on_c, 6, 56, 80
16, 632159, Note_on_c, 6, 56, 0
16, 632379, Note_on_c, 6, 71, 0
16, 632400, Note_on_c, 6, 59, 80
16, 632400, Note_on_c, 6, 71, 80
16, 632859, Note_on_c, 6, 59, 0
16, 632880, Note_on_c, 6, 56, 80
16, 633099, Note_on_c, 6, 71, 0
16, 633119, Note_on_c, 6, 56, 0
16, 633120, Note_on_c, 6, 69, 80
16, 633600, Note_on_c, 6, 61, 80
16, 633819, Note_on_c, 6, 61, 0
16, 633839, Note_on_c, 6, 69, 0
16, 633840, Note_on_c, 6, 62, 80
16, 634299, Note_on_c, 6, 62, 0
16, 634320, Note_on_c, 6, 64, 80
16, 634539, Note_on_c, 6, 64, 0
16, 634560, Note_on_c, 6, 66, 80
16, 634560, Note_on_c, 6, 61, 80
16, 635039, Note_on_c, 6, 61, 0
16, 635259, Note_on_c, 6, 66, 0
16, 635280, Note_on_c, 6, 66, 80
16, 635280, Note_on_c, 6, 63, 80
16, 635739, Note_on_c, 6, 63, 0
16, 635760, Note_on_c, 6, 64, 80
16, 635979, Note_on_c, 6, 66, 0
16, 635979, Note_on_c, 6, 64, 0
16, 636000, Note_on_c, 6, 64, 80
16, 636480, Note_on_c, 6, 62, 80
16, 636699, Note_on_c, 6, 62, 0
16, 636720, Note_on_c, 6, 61, 80
16, 637179, Note_on_c, 6, 64, 0
16, 637179, Note_on_c, 6, 61, 0
16, 637200, Note_on_c, 6, 62, 80
16, 637200, Note_on_c, 6, 59, 80
16, 637419, Note_on_c, 6, 62, 0
16, 637419, Note_on_c, 6, 59, 0
16, 637440, Note_on_c, 6, 62, 80
16, 638139, Note_on_c, 6, 62, 0
16, 638160, Note_on_c, 6, 62, 80
16, 638160, Note_on_c, 6, 64, 80
16, 638619, Note_on_c, 6, 64, 0
16, 638640, Note_on_c, 6, 66, 80
16, 638859, Note_on_c, 6, 62, 0
16, 638859, Note_on_c, 6, 66, 0
16, 638880, Note_on_c, 6, 66, 80
16, 638880, Note_on_c, 6, 61, 80
16, 639339, Note_on_c, 6, 66, 0
16, 639360, Note_on_c, 6, 64, 80
16, 639579, Note_on_c, 6, 61, 0
16, 639579, Note_on_c, 6, 64, 0
16, 639600, Note_on_c, 6, 59, 80
16, 639600, Note_on_c, 6, 62, 80
16, 640059, Note_on_c, 6, 59, 0
16, 640059, Note_on_c, 6, 62, 0
16, 640080, Note_on_c, 6, 61, 80
16, 640080, Note_on_c, 6, 58, 80
16, 640299, Note_on_c, 6, 61, 0
16, 640299, Note_on_c, 6, 58, 0
16, 640320, Note_on_c, 6, 54, 80
16, 640320, Note_on_c, 6, 71, 80
16, 640779, Note_on_c, 6, 71, 0
16, 640800, Note_on_c, 6, 71, 80
16, 641019, Note_on_c, 6, 71, 0
16, 641040, Note_on_c, 6, 73, 80
16, 641519, Note_on_c, 6, 73, 0
16, 641739, Note_on_c, 6, 54, 0
16, 641760, Note_on_c, 6, 61, 80
16, 642479, Note_on_c, 6, 61, 0
16, 642960, Note_on_c, 6, 59, 80
16, 643179, Note_on_c, 6, 59, 0
16, 643200, Note_on_c, 6, 61, 80
16, 643899, Note_on_c, 6, 61, 0
16, 643920, Note_on_c, 6, 59, 80
16, 644379, Note_on_c, 6, 59, 0
16, 644400, Note_on_c, 6, 58, 80
16, 644639, Note_on_c, 6, 58, 0
16, 645360, Note_on_c, 6, 62, 80
16, 646080, Note_on_c, 6, 71, 80
16, 646779, Note_on_c, 6, 62, 0
16, 646779, Note_on_c, 6, 71, 0
16, 646800, Note_on_c, 6, 62, 80
16, 646800, Note_on_c, 6, 71, 80
16, 647499, Note_on_c, 6, 62, 0
16, 647499, Note_on_c, 6, 71, 0
16, 647520, Note_on_c, 6, 70, 80
16, 647520, Note_on_c, 6, 61, 80
16, 648219, Note_on_c, 6, 70, 0
16, 648219, Note_on_c, 6, 61, 0
16, 648240, Note_on_c, 6, 59, 80
16, 648240, Note_on_c, 6, 66, 80
16, 648699, Note_on_c, 6, 59, 0
16, 648720, Note_on_c, 6, 58, 80
16, 648939, Note_on_c, 6, 66, 0
16, 648939, Note_on_c, 6, 58, 0
16, 648960, Note_on_c, 6, 61, 80
16, 649659, Note_on_c, 6, 61, 0
16, 649680, Note_on_c, 6, 54, 80
16, 650379, Note_on_c, 6, 54, 0
16, 650400, Note_on_c, 6, 54, 80
16, 651099, Note_on_c, 6, 54, 0
16, 651120, Note_on_c, 6, 54, 80
16, 651120, Note_on_c, 6, 66, 80
16, 651819, Note_on_c, 6, 54, 0
16, 651819, Note_on_c, 6, 66, 0
16, 651840, Note_on_c, 6, 69, 80
16, 651840, Note_on_c, 6, 59, 80
16, 652539, Note_on_c, 6, 69, 0
16, 652539, Note_on_c, 6, 59, 0
16, 652560, Note_on_c, 6, 59, 80
16, 652560, Note_on_c, 6, 68, 80
16, 653019, Note_on_c, 6, 68, 0
16, 653040, Note_on_c, 6, 66, 80
16, 653259, Note_on_c, 6, 59, 0
16, 653259, Note_on_c, 6, 66, 0
16, 653280, Note_on_c, 6, 64, 80
16, 653280, Note_on_c, 6, 59, 80
16, 653739, Note_on_c, 6, 64, 0
16, 653760, Note_on_c, 6, 68, 80
16, 653979, Note_on_c, 6, 68, 0
16, 653999, Note_on_c, 6, 59, 0
16, 654000, Note_on_c, 6, 69, 80
16, 654459, Note_on_c, 6, 69, 0
16, 654480, Note_on_c, 6, 71, 80
16, 654480, Note_on_c, 6, 56, 80
16, 654699, Note_on_c, 6, 71, 0
16, 654699, Note_on_c, 6, 56, 0
16, 654720, Note_on_c, 6, 62, 80
16, 655419, Note_on_c, 6, 62, 0
16, 655440, Note_on_c, 6, 52, 80
16, 655440, Note_on_c, 6, 73, 80
16, 655899, Note_on_c, 6, 73, 0
16, 655920, Note_on_c, 6, 71, 80
16, 656139, Note_on_c, 6, 52, 0
16, 656139, Note_on_c, 6, 71, 0
16, 656160, Note_on_c, 6, 69, 80
16, 656160, Note_on_c, 6, 57, 80
16, 656879, Note_on_c, 6, 69, 0
16, 656879, Note_on_c, 6, 57, 0
16, 659760, Note_on_c, 6, 57, 80
16, 660459, Note_on_c, 6, 57, 0
16, 660480, Note_on_c, 6, 69, 80
16, 661179, Note_on_c, 6, 69, 0
16, 661200, Note_on_c, 6, 69, 80
16, 661899, Note_on_c, 6, 69, 0
16, 661920, Note_on_c, 6, 66, 92
16, 661920, Note_on_c, 6, 69, 92
16, 662379, Note_on_c, 6, 66, 0
16, 662400, Note_on_c, 6, 66, 92
16, 662619, Note_on_c, 6, 66, 0
16, 662640, Note_on_c, 6, 67, 92
16, 663099, Note_on_c, 6, 67, 0
16, 663120, Note_on_c, 6, 69, 92
16, 663339, Note_on_c, 6, 69, 0
16, 663360, Note_on_c, 6, 69, 92
16, 663819, Note_on_c, 6, 69, 0
16, 663840, Note_on_c, 6, 67, 92
16, 664059, Note_on_c, 6, 69, 0
16, 664059, Note_on_c, 6, 67, 0
16, 664080, Note_on_c, 6, 62, 92
16, 664080, Note_on_c, 6, 66, 92
16, 664539, Note_on_c, 6, 66, 0
16, 664560, Note_on_c, 6, 64, 92
16, 664779, Note_on_c, 6, 64, 0
16, 664800, Note_on_c, 6, 62, 92
16, 665259, Note_on_c, 6, 62, 0
16, 665280, Note_on_c, 6, 62, 92
16, 665499, Note_on_c, 6, 62, 0
16, 665499, Note_on_c, 6, 62, 0
16, 665520, Note_on_c, 6, 62, 92
16, 665520, Note_on_c, 6, 64, 92
16, 665979, Note_on_c, 6, 64, 0
16, 666000, Note_on_c, 6, 66, 92
16, 666219, Note_on_c, 6, 62, 0
16, 666219, Note_on_c, 6, 66, 0
16, 666240, Note_on_c, 6, 66, 92
16, 666240, Note_on_c, 6, 60, 92
16, 666699, Note_on_c, 6, 66, 0
16, 666720, Note_on_c, 6, 64, 92
16, 666939, Note_on_c, 6, 60, 0
16, 666939, Note_on_c, 6, 64, 0
16, 666960, Note_on_c, 6, 57, 92
16, 666960, Note_on_c, 6, 62, 92
16, 667419, Note_on_c, 6, 62, 0
16, 667440, Note_on_c, 6, 60, 92
16, 667659, Note_on_c, 6, 57, 0
16, 667659, Note_on_c, 6, 60, 0
16, 667680, Note_on_c, 6, 59, 92
16, 667680, Note_on_c, 6, 55, 92
16, 668139, Note_on_c, 6, 59, 0
16, 668160, Note_on_c, 6, 71, 92
16, 668379, Note_on_c, 6, 55, 0
16, 668379, Note_on_c, 6, 71, 0
16, 668400, Note_on_c, 6, 72, 92
16, 668400, Note_on_c, 6, 57, 92
16, 668859, Note_on_c, 6, 72, 0
16, 668859, Note_on_c, 6, 57, 0
16, 668880, Note_on_c, 6, 59, 92
16, 669119, Note_on_c, 6, 59, 0
16, 669600, Note_on_c, 6, 62, 92
16, 669600, Note_on_c, 6, 66, 92
16, 669819, Note_on_c, 6, 62, 0
16, 669819, Note_on_c, 6, 66, 0
16, 669840, Note_on_c, 6, 67, 92
16, 669840, Note_on_c, 6, 64, 92
16, 670299, Note_on_c, 6, 67, 0
16, 670299, Note_on_c, 6, 64, 0
16, 670320, Note_on_c, 6, 69, 92
16, 670320, Note_on_c, 6, 66, 92
16, 670539, Note_on_c, 6, 69, 0
16, 670539, Note_on_c, 6, 66, 0
16, 670560, Note_on_c, 6, 64, 92
16, 670560, Note_on_c, 6, 67, 92
16, 671039, Note_on_c, 6, 67, 0
16, 671280, Note_on_c, 6, 67, 92
16, 671739, Note_on_c, 6, 64, 0
16, 671739, Note_on_c, 6, 67, 0
16, 671760, Note_on_c, 6, 69, 92
16, 671760, Note_on_c, 6, 66, 92
16, 671979, Note_on_c, 6, 69, 0
16, 671979, Note_on_c, 6, 66, 0
16, 672000, Note_on_c, 6, 67, 92
16, 672000, Note_on_c, 6, 71, 92
16, 672459, Note_on_c, 6, 67, 0
16, 672459, Note_on_c, 6, 71, 0
16, 672480, Note_on_c, 6, 66, 92
16, 672699, Note_on_c, 6, 66, 0
16, 672720, Note_on_c, 6, 71, 92
16, 672720, Note_on_c, 6, 67, 92
16, 673179, Note_on_c, 6, 71, 0
16, 673200, Note_on_c, 6, 73, 92
16, 673419, Note_on_c, 6, 67, 0
16, 673440, Note_on_c, 6, 67, 92
16, 673899, Note_on_c, 6, 73, 0
16, 673920, Note_on_c, 6, 69, 92
16, 674139, Note_on_c, 6, 67, 0
16, 674139, Note_on_c, 6, 69, 0
16, 674160, Note_on_c, 6, 71, 92
16, 674160, Note_on_c, 6, 67, 92
16, 674619, Note_on_c, 6, 71, 0
16, 674640, Note_on_c, 6, 73, 92
16, 674859, Note_on_c, 6, 67, 0
16, 674859, Note_on_c, 6, 73, 0
16, 674880, Note_on_c, 6, 62, 92
16, 674880, Note_on_c, 6, 66, 92
16, 676319, Note_on_c, 6, 62, 0
16, 676319, Note_on_c, 6, 66, 0
16, 808318, Program_c, 6, 57
16, 808318, Control_c, 6, 10, 80
16, 808318, Control_c, 6, 7, 104
16, 808318, Control_c, 6, 11, 127
16, 808320, Note_on_c, 6, 62, 92
16, 808559, Note_on_c, 6, 62, 0
16, 809280, Note_on_c, 6, 64, 92
16, 809519, Note_on_c, 6, 64, 0
16, 810240, Note_on_c, 6, 64, 92
16, 810479, Note_on_c, 6, 64, 0
16, 811200, Note_on_c, 6, 57, 92
16, 811200, Note_on_c, 6, 69, 92
16, 811439, Note_on_c, 6, 57, 0
16, 811439, Note_on_c, 6, 69, 0
16, 812160, Note_on_c, 6, 62, 92
16, 812399, Note_on_c, 6, 62, 0
16, 813120, Note_on_c, 6, 64, 92
16, 813359, Note_on_c, 6, 64, 0
16, 814080, Note_on_c, 6, 64, 92
16, 814319, Note_on_c, 6, 64, 0
16, 815040, Note_on_c, 6, 57, 92
16, 815040, Note_on_c, 6, 69, 92
16, 815279, Note_on_c, 6, 57, 0
16, 815279, Note_on_c, 6, 69, 0
16, 816000, Note_on_c, 6, 67, 92
16, 816000, Note_on_c, 6, 55, 92
16, 816239, Note_on_c, 6, 67, 0
16, 816239, Note_on_c, 6, 55, 0
16, 816480, Note_on_c, 6, 64, 92
16, 816719, Note_on_c, 6, 64, 0
16, 816960, Note_on_c, 6, 61, 92
16, 817199, Note_on_c, 6, 61, 0
16, 817440, Note_on_c, 6, 57, 92
16, 817679, Note_on_c, 6, 57, 0
16, 818640, Note_on_c, 6, 62, 92
16, 818640, Note_on_c, 6, 57, 92
16, 818879, Note_on_c, 6, 62, 0
16, 818880, Control_c, 6, 11, 107
16, 818880, Note_on_c, 6, 64, 92
16, 819119, Note_on_c, 6, 57, 0
16, 819119, Note_on_c, 6, 64, 0
16, 819360, Control_c, 6, 11, 127
16, 819600, Note_on_c, 6, 62, 80
16, 819600, Note_on_c, 6, 57, 80
16, 819839, Note_on_c, 6, 62, 0
16, 819840, Note_on_c, 6, 64, 80
16, 820079, Note_on_c, 6, 57, 0
16, 820079, Note_on_c, 6, 64, 0
16, 820560, Note_on_c, 6, 57, 80
16, 820560, Note_on_c, 6, 62, 80
16, 820799, Note_on_c, 6, 62, 0
16, 820800, Note_on_c, 6, 64, 80
16, 821039, Note_on_c, 6, 57, 0
16, 821039, Note_on_c, 6, 64, 0
16, 821520, Note_on_c, 6, 62, 80
16, 821520, Note_on_c, 6, 57, 80
16, 821759, Note_on_c, 6, 62, 0
16, 821760, Note_on_c, 6, 64, 80
16, 821999, Note_on_c, 6, 57, 0
16, 821999, Note_on_c, 6, 64, 0
16, 822480, Note_on_c, 6, 57, 80
16, 822480, Note_on_c, 6, 62, 80
16, 822719, Note_on_c, 6, 62, 0
16, 822720, Note_on_c, 6, 64, 80
16, 822959, Note_on_c, 6, 57, 0
16, 822959, Note_on_c, 6, 64, 0
16, 823440, Note_on_c, 6, 57, 80
16, 823440, Note_on_c, 6, 62, 80
16, 823679, Note_on_c, 6, 62, 0
16, 823680, Note_on_c, 6, 64, 80
16, 823919, Note_on_c, 6, 57, 0
16, 823919, Note_on_c, 6, 64, 0
16, 824400, Note_on_c, 6, 62, 80
16, 824400, Note_on_c, 6, 57, 80
16, 824639, Note_on_c, 6, 62, 0
16, 824640, Note_on_c, 6, 64, 80
16, 824879, Note_on_c, 6, 57, 0
16, 824879, Note_on_c, 6, 64, 0
16, 825360, Note_on_c, 6, 57, 80
16, 825360, Note_on_c, 6, 62, 80
16, 825599, Note_on_c, 6, 62, 0
16, 825600, Note_on_c, 6, 67, 80
16, 825839, Note_on_c, 6, 57, 0
16, 825839, Note_on_c, 6, 67, 0
16, 826080, Note_on_c, 6, 62, 80
16, 826080, Note_on_c, 6, 57, 80
16, 826319, Note_on_c, 6, 62, 0
16, 826319, Note_on_c, 6, 57, 0
16, 826560, Note_on_c, 6, 55, 80
16, 826560, Note_on_c, 6, 67, 80
16, 826799, Note_on_c, 6, 55, 0
16, 826799, Note_on_c, 6, 67, 0
16, 827040, Note_on_c, 6, 67, 80
16, 827040, Note_on_c, 6, 55, 80
16, 827279, Note_on_c, 6, 67, 0
16, 827279, Note_on_c, 6, 55, 0
16, 828000, Note_on_c, 6, 64, 80
16, 828000, Note_on_c, 6, 57, 80
16, 828239, Note_on_c, 6, 64, 0
16, 828239, Note_on_c, 6, 57, 0
16, 828480, Note_on_c, 6, 62, 80
16, 828480, Note_on_c, 6, 66, 80
16, 828719, Note_on_c, 6, 62, 0
16, 828719, Note_on_c, 6, 66, 0
16, 828960, Note_on_c, 6, 69, 80
16, 828960, Note_on_c, 6, 57, 80
16, 829199, Note_on_c, 6, 69, 0
16, 829199, Note_on_c, 6, 57, 0
16, 829440, Note_on_c, 6, 67, 80
16, 829440, Note_on_c, 6, 64, 80
16, 829679, Note_on_c, 6, 67, 0
16, 829679, Note_on_c, 6, 64, 0
16, 829920, Note_on_c, 6, 62, 80
16, 830159, Note_on_c, 6, 62, 0
16, 830400, Note_on_c, 6, 71, 80
16, 830400, Note_on_c, 6, 59, 80
16, 830639, Note_on_c, 6, 71, 0
16, 830639, Note_on_c, 6, 59, 0
16, 830880, Note_on_c, 6, 59, 80
16, 830880, Note_on_c, 6, 67, 80
16, 831119, Note_on_c, 6, 59, 0
16, 831119, Note_on_c, 6, 67, 0
16, 831360, Note_on_c, 6, 57, 80
16, 831599, Note_on_c, 6, 57, 0
16, 831840, Note_on_c, 6, 57, 80
16, 832079, Note_on_c, 6, 57, 0
16, 832320, Note_on_c, 6, 62, 80
16, 832559, Note_on_c, 6, 62, 0
16, 833280, Note_on_c, 6, 62, 80
16, 833519, Note_on_c, 6, 62, 0
16, 834240, Note_on_c, 6, 64, 80
16, 834479, Note_on_c, 6, 64, 0
16, 835200, Note_on_c, 6, 64, 80
16, 835439, Note_on_c, 6, 64, 0
16, 836160, Note_on_c, 6, 69, 92
16, 836160, Note_on_c, 6, 66, 92
16, 836519, Note_on_c, 6, 69, 0
16, 836519, Note_on_c, 6, 66, 0
16, 836640, Note_on_c, 6, 66, 92
16, 836640, Note_on_c, 6, 69, 92
16, 836999, Note_on_c, 6, 66, 0
16, 836999, Note_on_c, 6, 69, 0
16, 837120, Note_on_c, 6, 69, 92
16, 837120, Note_on_c, 6, 66, 92
16, 837479, Note_on_c, 6, 69, 0
16, 837479, Note_on_c, 6, 66, 0
16, 837600, Note_on_c, 6, 69, 92
16, 837600, Note_on_c, 6, 66, 92
16, 837959, Note_on_c, 6, 69, 0
16, 837959, Note_on_c, 6, 66, 0
16, 838080, Note_on_c, 6, 66, 92
16, 838080, Note_on_c, 6, 69, 92
16, 838439, Note_on_c, 6, 66, 0
16, 838439, Note_on_c, 6, 69, 0
16, 838560, Note_on_c, 6, 69, 92
16, 838560, Note_on_c, 6, 66, 92
16, 838919, Note_on_c, 6, 69, 0
16, 838919, Note_on_c, 6, 66, 0
16, 839040, Note_on_c, 6, 64, 92
16, 839040, Note_on_c, 6, 67, 92
16, 839399, Note_on_c, 6, 64, 0
16, 839399, Note_on_c, 6, 67, 0
16, 839520, Note_on_c, 6, 67, 92
16, 839520, Note_on_c, 6, 64, 92
16, 839879, Note_on_c, 6, 67, 0
16, 839879, Note_on_c, 6, 64, 0
16, 840000, Note_on_c, 6, 67, 92
16, 840000, Note_on_c, 6, 64, 92
16, 840359, Note_on_c, 6, 67, 0
16, 840359, Note_on_c, 6, 64, 0
16, 840480, Note_on_c, 6, 64, 92
16, 840480, Note_on_c, 6, 67, 92
16, 840839, Note_on_c, 6, 64, 0
16, 840839, Note_on_c, 6, 67, 0
16, 840960, Note_on_c, 6, 69, 92
16, 840960, Note_on_c, 6, 65, 92
16, 841319, Note_on_c, 6, 69, 0
16, 841319, Note_on_c, 6, 65, 0
16, 841440, Note_on_c, 6, 62, 92
16, 841440, Note_on_c, 6, 69, 92
16, 841799, Note_on_c, 6, 62, 0
16, 841799, Note_on_c, 6, 69, 0
16, 841920, Note_on_c, 6, 69, 92
16, 841920, Note_on_c, 6, 61, 92
16, 842369, Note_on_c, 6, 69, 0
16, 842369, Note_on_c, 6, 61, 0
16, 842400, Note_on_c, 6, 69, 92
16, 842400, Note_on_c, 6, 57, 92
16, 842849, Note_on_c, 6, 69, 0
16, 842849, Note_on_c, 6, 57, 0
16, 842880, Note_on_c, 6, 69, 92
16, 842880, Note_on_c, 6, 66, 92
16, 843119, Note_on_c, 6, 69, 0
16, 843119, Note_on_c, 6, 66, 0
16, 843360, Note_on_c, 6, 69, 104
16, 843360, Note_on_c, 6, 66, 104
16, 843440, Control_c, 6, 11, 107
16, 844289, Note_on_c, 6, 69, 0
16, 844289, Note_on_c, 6, 66, 0
16, 844318, Control_c, 6, 11, 127
16, 844320, Note_on_c, 6, 66, 92
16, 844320, Note_on_c, 6, 69, 92
16, 844559, Note_on_c, 6, 66, 0
16, 844559, Note_on_c, 6, 69, 0
16, 844800, Note_on_c, 6, 69, 92
16, 844800, Note_on_c, 6, 66, 92
16, 845039, Note_on_c, 6, 69, 0
16, 845039, Note_on_c, 6, 66, 0
16, 845280, Note_on_c, 6, 69, 92
16, 845280, Note_on_c, 6, 66, 92
16, 845519, Note_on_c, 6, 69, 0
16, 845519, Note_on_c, 6, 66, 0
16, 845760, Note_on_c, 6, 66, 92
16, 845760, Note_on_c, 6, 69, 92
16, 845999, Note_on_c, 6, 66, 0
16, 845999, Note_on_c, 6, 69, 0
16, 846240, Note_on_c, 6, 69, 92
16, 846240, Note_on_c, 6, 66, 92
16, 846479, Note_on_c, 6, 69, 0
16, 846479, Note_on_c, 6, 66, 0
16, 846720, Note_on_c, 6, 64, 92
16, 846720, Note_on_c, 6, 67, 92
16, 846959, Note_on_c, 6, 64, 0
16, 846959, Note_on_c, 6, 67, 0
16, 847200, Note_on_c, 6, 67, 92
16, 847200, Note_on_c, 6, 64, 92
16, 847439, Note_on_c, 6, 67, 0
16, 847439, Note_on_c, 6, 64, 0
16, 847680, Note_on_c, 6, 67, 92
16, 847680, Note_on_c, 6, 64, 92
16, 847919, Note_on_c, 6, 67, 0
16, 847919, Note_on_c, 6, 64, 0
16, 848160, Note_on_c, 6, 64, 92
16, 848160, Note_on_c, 6, 67, 92
16, 848399, Note_on_c, 6, 64, 0
16, 848399, Note_on_c, 6, 67, 0
16, 848640, Note_on_c, 6, 69, 92
16, 848640, Note_on_c, 6, 65, 92
16, 848879, Note_on_c, 6, 69, 0
16, 848879, Note_on_c, 6, 65, 0
16, 849120, Note_on_c, 6, 62, 92
16, 849120, Note_on_c, 6, 74, 92
16, 849359, Note_on_c, 6, 62, 0
16, 849359, Note_on_c, 6, 74, 0
16, 849600, Note_on_c, 6, 73, 92
16, 849600, Note_on_c, 6, 69, 92
16, 849839, Note_on_c, 6, 73, 0
16, 849839, Note_on_c, 6, 69, 0
16, 850080, Note_on_c, 6, 69, 92
16, 850319, Note_on_c, 6, 69, 0
16, 850560, Note_on_c, 6, 62, 92
16, 850560, Note_on_c, 6, 69, 92
16, 851009, Note_on_c, 6, 62, 0
16, 851009, Note_on_c, 6, 69, 0
16, 851040, Note_on_c, 6, 71, 92
16, 851040, Note_on_c, 6, 62, 92
16, 851279, Note_on_c, 6, 71, 0
16, 851279, Note_on_c, 6, 62, 0
16, 851520, Note_on_c, 6, 67, 92
16, 851520, Note_on_c, 6, 64, 92
16, 853409, Note_on_c, 6, 67, 0
16, 853409, Note_on_c, 6, 64, 0
16, 853440, Note_on_c, 6, 62, 92
16, 853440, Note_on_c, 6, 66, 92
16, 853679, Note_on_c, 6, 62, 0
16, 853679, Note_on_c, 6, 66, 0
16, 853920, Note_on_c, 6, 64, 92
16, 853920, Note_on_c, 6, 61, 92
16, 854159, Note_on_c, 6, 64, 0
16, 854159, Note_on_c, 6, 61, 0
16, 854400, Note_on_c, 6, 62, 92
16, 854400, Note_on_c, 6, 66, 92
16, 854849, Note_on_c, 6, 62, 0
16, 854849, Note_on_c, 6, 66, 0
16, 854880, Note_on_c, 6, 67, 92
16, 854880, Note_on_c, 6, 62, 92
16, 855119, Note_on_c, 6, 67, 0
16, 855119, Note_on_c, 6, 62, 0
16, 855360, Note_on_c, 6, 67, 92
16, 855360, Note_on_c, 6, 64, 92
16, 857249, Note_on_c, 6, 67, 0
16, 857249, Note_on_c, 6, 64, 0
16, 857280, Note_on_c, 6, 62, 92
16, 857280, Note_on_c, 6, 66, 92
16, 857519, Note_on_c, 6, 62, 0
16, 857519, Note_on_c, 6, 66, 0
16, 857760, Note_on_c, 6, 64, 92
16, 857760, Note_on_c, 6, 61, 92
16, 857999, Note_on_c, 6, 64, 0
16, 857999, Note_on_c, 6, 61, 0
16, 858240, Note_on_c, 6, 62, 92
16, 858479, Note_on_c, 6, 62, 0
16, 859200, Note_on_c, 6, 59, 92
16, 859200, Note_on_c, 6, 71, 92
16, 859439, Note_on_c, 6, 59, 0
16, 859439, Note_on_c, 6, 71, 0
16, 860160, Note_on_c, 6, 67, 92
16, 860160, Note_on_c, 6, 55, 92
16, 860399, Note_on_c, 6, 67, 0
16, 860399, Note_on_c, 6, 55, 0
16, 860640, Note_on_c, 6, 64, 92
16, 860879, Note_on_c, 6, 64, 0
16, 861120, Note_on_c, 6, 69, 92
16, 861359, Note_on_c, 6, 69, 0
16, 862560, Note_on_c, 6, 62, 92
16, 862799, Note_on_c, 6, 62, 0
16, 863040, Note_on_c, 6, 69, 92
16, 863279, Note_on_c, 6, 69, 0
16, 864480, Note_on_c, 6, 62, 92
16, 864719, Note_on_c, 6, 62, 0
16, 864960, Note_on_c, 6, 69, 92
16, 865199, Note_on_c, 6, 69, 0
16, 867360, Note_on_c, 6, 62, 92
16, 867569, Note_on_c, 6, 62, 0
16, 867600, Note_on_c, 6, 66, 92
16, 867809, Note_on_c, 6, 66, 0
16, 867840, Note_on_c, 6, 69, 92
16, 868079, Note_on_c, 6, 69, 0
16, 868320, Note_on_c, 6, 69, 92
16, 868559, Note_on_c, 6, 69, 0
16, 868800, Note_on_c, 6, 69, 92
16, 869039, Note_on_c, 6, 69, 0
16, 869280, Note_on_c, 6, 69, 92
16, 869519, Note_on_c, 6, 69, 0
16, 870240, Note_on_c, 6, 67, 92
16, 870240, Note_on_c, 6, 64, 92
16, 870479, Note_on_c, 6, 67, 0
16, 870479, Note_on_c, 6, 64, 0
16, 872160, Note_on_c, 6, 66, 80
16, 872160, Note_on_c, 6, 62, 80
16, 872279, Note_on_c, 6, 66, 0
16, 872279, Note_on_c, 6, 62, 0
16, 872400, Note_on_c, 6, 59, 80
16, 872400, Note_on_c, 6, 67, 80
16, 872519, Note_on_c, 6, 59, 0
16, 872519, Note_on_c, 6, 67, 0
16, 872760, Note_on_c, 6, 64, 80
16, 872760, Note_on_c, 6, 61, 80
16, 872869, Note_on_c, 6, 64, 0
16, 872869, Note_on_c, 6, 61, 0
16, 872880, Note_on_c, 6, 57, 92
16, 872880, Note_on_c, 6, 69, 92
16, 872999, Note_on_c, 6, 57, 0
16, 872999, Note_on_c, 6, 69, 0
16, 873120, Note_on_c, 6, 69, 80
16, 873229, Note_on_c, 6, 69, 0
16, 873240, Note_on_c, 6, 62, 80
16, 873349, Note_on_c, 6, 62, 0
16, 873360, Note_on_c, 6, 69, 92
16, 873479, Note_on_c, 6, 69, 0
16, 873600, Note_on_c, 6, 69, 80
16, 873839, Note_on_c, 6, 69, 0
16, 874080, Note_on_c, 6, 62, 80
16, 874319, Note_on_c, 6, 62, 0
16, 874560, Note_on_c, 6, 62, 80
16, 874799, Note_on_c, 6, 62, 0
16, 875520, Note_on_c, 6, 62, 80
16, 875759, Note_on_c, 6, 62, 0
16, 876480, Note_on_c, 6, 62, 80
16, 876719, Note_on_c, 6, 62, 0
16, 877440, Note_on_c, 6, 62, 80
16, 877679, Note_on_c, 6, 62, 0
16, 878400, Note_on_c, 6, 62, 80
16, 878639, Note_on_c, 6, 62, 0
16, 879360, Note_on_c, 6, 62, 80
16, 879599, Note_on_c, 6, 62, 0
16, 880320, Note_on_c, 6, 62, 80
16, 880559, Note_on_c, 6, 62, 0
16, 881280, Note_on_c, 6, 69, 92
16, 881280, Note_on_c, 6, 66, 92
16, 881519, Note_on_c, 6, 69, 0
16, 881519, Note_on_c, 6, 66, 0
16, 882240, Note_on_c, 6, 66, 80
16, 882240, Note_on_c, 6, 69, 80
16, 882479, Note_on_c, 6, 66, 0
16, 882479, Note_on_c, 6, 69, 0
16, 883200, Note_on_c, 6, 69, 80
16, 883200, Note_on_c, 6, 66, 80
16, 883439, Note_on_c, 6, 69, 0
16, 883439, Note_on_c, 6, 66, 0
16, 884160, Note_on_c, 6, 66, 80
16, 884160, Note_on_c, 6, 69, 80
16, 884399, Note_on_c, 6, 66, 0
16, 884399, Note_on_c, 6, 69, 0
16, 885120, Note_on_c, 6, 69, 80
16, 885120, Note_on_c, 6, 66, 80
16, 885359, Note_on_c, 6, 69, 0
16, 885359, Note_on_c, 6, 66, 0
16, 886080, Note_on_c, 6, 69, 80
16, 886080, Note_on_c, 6, 66, 80
16, 886319, Note_on_c, 6, 69, 0
16, 886319, Note_on_c, 6, 66, 0
16, 887040, Note_on_c, 6, 66, 80
16, 887040, Note_on_c, 6, 69, 80
16, 887279, Note_on_c, 6, 66, 0
16, 887279, Note_on_c, 6, 69, 0
16, 888000, Note_on_c, 6, 69, 80
16, 888000, Note_on_c, 6, 66, 80
16, 888239, Note_on_c, 6, 69, 0
16, 888239, Note_on_c, 6, 66, 0
16, 888960, Note_on_c, 6, 66, 80
16, 888960, Note_on_c, 6, 69, 80
16, 889199, Note_on_c, 6, 66, 0
16, 889199, Note_on_c, 6, 69, 0
16, 890880, Note_on_c, 6, 62, 80
16, 891119, Note_on_c, 6, 62, 0
16, 891840, Note_on_c, 6, 62, 80
16, 892079, Note_on_c, 6, 62, 0
16, 892800, Note_on_c, 6, 62, 80
16, 893039, Note_on_c, 6, 62, 0
16, 893039, End_track
17, 0, Start_track
17, 0, Title_t, "Bass Trombone"
17, 0, MIDI_port, 0
17, 479040, Program_c, 6, 57
17, 479040, Control_c, 6, 7, 104
17, 479040, Control_c, 6, 11, 127
17, 479040, Control_c, 6, 10, 80
17, 480000, Note_on_c, 6, 55, 92
17, 481419, Note_on_c, 6, 55, 0
17, 481440, Note_on_c, 6, 55, 92
17, 481799, Note_on_c, 6, 55, 0
17, 481920, Note_on_c, 6, 54, 92
17, 482279, Note_on_c, 6, 54, 0
17, 482400, Note_on_c, 6, 50, 92
17, 482759, Note_on_c, 6, 50, 0
17, 482880, Note_on_c, 6, 64, 92
17, 484299, Note_on_c, 6, 64, 0
17, 484320, Note_on_c, 6, 64, 92
17, 484679, Note_on_c, 6, 64, 0
17, 484800, Note_on_c, 6, 62, 92
17, 485159, Note_on_c, 6, 62, 0
17, 485280, Note_on_c, 6, 59, 92
17, 485639, Note_on_c, 6, 59, 0
17, 485760, Note_on_c, 6, 60, 104
17, 485840, Control_c, 6, 11, 107
17, 487179, Note_on_c, 6, 60, 0
17, 487198, Control_c, 6, 11, 127
17, 487200, Note_on_c, 6, 60, 92
17, 487659, Note_on_c, 6, 60, 0
17, 487680, Note_on_c, 6, 59, 92
17, 488139, Note_on_c, 6, 59, 0
17, 488160, Note_on_c, 6, 55, 104
17, 488240, Control_c, 6, 11, 107
17, 489099, Note_on_c, 6, 55, 0
17, 489120, Note_on_c, 6, 64, 92
17, 490079, Note_on_c, 6, 64, 0
17, 490080, Note_on_c, 6, 64, 92
17, 490558, Control_c, 6, 11, 127
17, 490559, Note_on_c, 6, 64, 0
17, 490560, Note_on_c, 6, 62, 92
17, 491999, Note_on_c, 6, 62, 0
17, 492480, Note_on_c, 6, 55, 80
17, 492839, Note_on_c, 6, 55, 0
17, 492960, Note_on_c, 6, 59, 80
17, 493319, Note_on_c, 6, 59, 0
17, 493440, Note_on_c, 6, 62, 80
17, 493799, Note_on_c, 6, 62, 0
17, 493920, Note_on_c, 6, 50, 80
17, 494279, Note_on_c, 6, 50, 0
17, 494400, Note_on_c, 6, 50, 80
17, 495339, Note_on_c, 6, 50, 0
17, 495360, Note_on_c, 6, 48, 80
17, 495719, Note_on_c, 6, 48, 0
17, 495840, Note_on_c, 6, 60, 80
17, 496199, Note_on_c, 6, 60, 0
17, 496320, Note_on_c, 6, 59, 80
17, 496679, Note_on_c, 6, 59, 0
17, 496800, Note_on_c, 6, 55, 80
17, 497159, Note_on_c, 6, 55, 0
17, 497760, Note_on_c, 6, 57, 92
17, 497840, Control_c, 6, 11, 107
17, 498699, Note_on_c, 6, 57, 0
17, 498718, Control_c, 6, 11, 127
17, 498720, Note_on_c, 6, 57, 80
17, 499179, Note_on_c, 6, 57, 0
17, 499200, Note_on_c, 6, 59, 80
17, 499659, Note_on_c, 6, 59, 0
17, 499680, Note_on_c, 6, 60, 92
17, 499760, Control_c, 6, 11, 107
17, 500619, Note_on_c, 6, 60, 0
17, 500638, Control_c, 6, 11, 127
17, 500640, Note_on_c, 6, 60, 92
17, 501579, Note_on_c, 6, 60, 0
17, 501600, Note_on_c, 6, 60, 92
17, 502059, Note_on_c, 6, 60, 0
17, 502080, Note_on_c, 6, 62, 92
17, 503499, Note_on_c, 6, 62, 0
17, 503520, Note_on_c, 6, 48, 92
17, 503999, Note_on_c, 6, 48, 0
17, 504000, Note_on_c, 6, 50, 92
17, 504699, Note_on_c, 6, 50, 0
17, 504720, Note_on_c, 6, 48, 92
17, 504959, Note_on_c, 6, 48, 0
17, 505440, Note_on_c, 6, 53, 92
17, 506139, Note_on_c, 6, 53, 0
17, 506160, Note_on_c, 6, 53, 92
17, 506379, Note_on_c, 6, 53, 0
17, 506400, Note_on_c, 6, 53, 92
17, 507339, Note_on_c, 6, 53, 0
17, 507360, Note_on_c, 6, 53, 92
17, 507819, Note_on_c, 6, 53, 0
17, 507840, Note_on_c, 6, 53, 92
17, 508779, Note_on_c, 6, 53, 0
17, 508800, Note_on_c, 6, 50, 104
17, 508880, Control_c, 6, 11, 107
17, 510219, Note_on_c, 6, 50, 0
17, 510238, Control_c, 6, 11, 127
17, 510240, Note_on_c, 6, 48, 92
17, 510699, Note_on_c, 6, 48, 0
17, 510720, Note_on_c, 6, 48, 92
17, 511199, Note_on_c, 6, 48, 0
17, 511200, Note_on_c, 6, 45, 92
17, 511659, Note_on_c, 6, 45, 0
17, 511680, Note_on_c, 6, 43, 92
17, 512139, Note_on_c, 6, 43, 0
17, 512160, Note_on_c, 6, 53, 104
17, 512240, Control_c, 6, 11, 107
17, 513099, Note_on_c, 6, 53, 0
17, 513118, Control_c, 6, 11, 127
17, 513120, Note_on_c, 6, 52, 92
17, 513579, Note_on_c, 6, 52, 0
17, 513600, Note_on_c, 6, 52, 92
17, 513959, Note_on_c, 6, 52, 0
17, 514080, Note_on_c, 6, 50, 92
17, 514439, Note_on_c, 6, 50, 0
17, 515040, Note_on_c, 6, 53, 80
17, 516219, Note_on_c, 6, 53, 0
17, 516240, Note_on_c, 6, 53, 80
17, 516479, Note_on_c, 6, 53, 0
17, 516720, Note_on_c, 6, 57, 80
17, 516959, Note_on_c, 6, 57, 0
17, 516960, Note_on_c, 6, 58, 80
17, 517659, Note_on_c, 6, 58, 0
17, 517680, Note_on_c, 6, 58, 80
17, 517899, Note_on_c, 6, 58, 0
17, 517920, Note_on_c, 6, 58, 80
17, 518859, Note_on_c, 6, 58, 0
17, 518880, Note_on_c, 6, 58, 80
17, 519339, Note_on_c, 6, 58, 0
17, 519360, Note_on_c, 6, 58, 80
17, 519819, Note_on_c, 6, 58, 0
17, 519840, Note_on_c, 6, 58, 92
17, 519920, Control_c, 6, 11, 107
17, 521259, Note_on_c, 6, 58, 0
17, 521278, Control_c, 6, 11, 127
17, 521280, Note_on_c, 6, 58, 80
17, 521759, Note_on_c, 6, 58, 0
17, 521760, Note_on_c, 6, 60, 80
17, 522219, Note_on_c, 6, 60, 0
17, 522240, Note_on_c, 6, 60, 80
17, 523179, Note_on_c, 6, 60, 0
17, 523200, Note_on_c, 6, 60, 80
17, 523659, Note_on_c, 6, 60, 0
17, 523680, Note_on_c, 6, 60, 80
17, 524399, Note_on_c, 6, 60, 0
17, 524400, Note_on_c, 6, 62, 80
17, 524619, Note_on_c, 6, 62, 0
17, 524640, Note_on_c, 6, 64, 80
17, 524879, Note_on_c, 6, 64, 0
17, 524880, Note_on_c, 6, 65, 80
17, 525099, Note_on_c, 6, 65, 0
17, 525120, Note_on_c, 6, 55, 80
17, 525479, Note_on_c, 6, 55, 0
17, 525600, Note_on_c, 6, 55, 80
17, 525959, Note_on_c, 6, 55, 0
17, 526080, Note_on_c, 6, 55, 44
17, 526319, Note_on_c, 6, 55, 0
17, 542400, Note_on_c, 6, 60, 80
17, 543359, Note_on_c, 6, 60, 0
17, 548160, Note_on_c, 6, 62, 80
17, 549599, Note_on_c, 6, 62, 0
17, 550080, Note_on_c, 6, 63, 92
17, 550784, Note_on_c, 6, 63, 0
17, 550800, Note_on_c, 6, 63, 92
17, 551024, Note_on_c, 6, 63, 0
17, 551040, Note_on_c, 6, 63, 92
17, 551984, Note_on_c, 6, 63, 0
17, 552000, Note_on_c, 6, 63, 92
17, 552464, Note_on_c, 6, 63, 0
17, 552480, Note_on_c, 6, 63, 92
17, 552944, Note_on_c, 6, 63, 0
17, 552960, Note_on_c, 6, 63, 92
17, 553904, Note_on_c, 6, 63, 0
17, 553920, Note_on_c, 6, 63, 92
17, 554864, Note_on_c, 6, 63, 0
17, 554880, Note_on_c, 6, 63, 92
17, 555359, Note_on_c, 6, 63, 0
17, 561600, Note_on_c, 6, 45, 32
17, 562064, Note_on_c, 6, 45, 0
17, 562080, Note_on_c, 6, 45, 32
17, 562544, Note_on_c, 6, 45, 0
17, 562560, Note_on_c, 6, 45, 32
17, 563504, Note_on_c, 6, 45, 0
17, 563520, Note_on_c, 6, 45, 32
17, 563984, Note_on_c, 6, 45, 0
17, 564000, Note_on_c, 6, 45, 32
17, 564464, Note_on_c, 6, 45, 0
17, 564480, Note_on_c, 6, 45, 32
17, 565424, Note_on_c, 6, 45, 0
17, 565440, Note_on_c, 6, 45, 32
17, 566384, Note_on_c, 6, 45, 0
17, 566400, Note_on_c, 6, 45, 32
17, 566879, Note_on_c, 6, 45, 0
17, 590640, Note_on_c, 6, 62, 92
17, 592059, Note_on_c, 6, 62, 0
17, 592080, Note_on_c, 6, 62, 80
17, 592779, Note_on_c, 6, 62, 0
17, 592800, Note_on_c, 6, 61, 80
17, 593499, Note_on_c, 6, 61, 0
17, 593520, Note_on_c, 6, 57, 80
17, 594219, Note_on_c, 6, 57, 0
17, 594240, Note_on_c, 6, 59, 80
17, 594939, Note_on_c, 6, 59, 0
17, 594960, Note_on_c, 6, 59, 80
17, 595659, Note_on_c, 6, 59, 0
17, 595680, Note_on_c, 6, 57, 80
17, 596379, Note_on_c, 6, 57, 0
17, 596400, Note_on_c, 6, 54, 80
17, 597099, Note_on_c, 6, 54, 0
17, 597120, Note_on_c, 6, 55, 80
17, 597819, Note_on_c, 6, 55, 0
17, 597840, Note_on_c, 6, 55, 80
17, 598539, Note_on_c, 6, 55, 0
17, 598560, Note_on_c, 6, 54, 80
17, 599259, Note_on_c, 6, 54, 0
17, 599280, Note_on_c, 6, 50, 80
17, 599979, Note_on_c, 6, 50, 0
17, 600000, Note_on_c, 6, 59, 80
17, 600699, Note_on_c, 6, 59, 0
17, 600720, Note_on_c, 6, 59, 80
17, 601419, Note_on_c, 6, 59, 0
17, 601440, Note_on_c, 6, 57, 80
17, 601899, Note_on_c, 6, 57, 0
17, 601920, Note_on_c, 6, 61, 80
17, 602619, Note_on_c, 6, 61, 0
17, 602640, Note_on_c, 6, 59, 80
17, 602859, Note_on_c, 6, 59, 0
17, 602880, Note_on_c, 6, 57, 80
17, 603579, Note_on_c, 6, 57, 0
17, 603600, Note_on_c, 6, 59, 80
17, 604059, Note_on_c, 6, 59, 0
17, 604080, Note_on_c, 6, 61, 80
17, 604299, Note_on_c, 6, 61, 0
17, 604320, Note_on_c, 6, 52, 80
17, 606219, Note_on_c, 6, 52, 0
17, 606240, Note_on_c, 6, 50, 80
17, 606459, Note_on_c, 6, 50, 0
17, 606480, Note_on_c, 6, 62, 80
17, 606939, Note_on_c, 6, 62, 0
17, 606960, Note_on_c, 6, 57, 80
17, 608619, Note_on_c, 6, 57, 0
17, 608640, Note_on_c, 6, 59, 80
17, 609339, Note_on_c, 6, 59, 0
17, 609360, Note_on_c, 6, 52, 80
17, 610059, Note_on_c, 6, 52, 0
17, 610080, Note_on_c, 6, 54, 80
17, 610539, Note_on_c, 6, 54, 0
17, 610560, Note_on_c, 6, 64, 80
17, 610779, Note_on_c, 6, 64, 0
17, 610800, Note_on_c, 6, 62, 80
17, 611259, Note_on_c, 6, 62, 0
17, 611280, Note_on_c, 6, 61, 80
17, 611499, Note_on_c, 6, 61, 0
17, 611520, Note_on_c, 6, 59, 80
17, 611759, Note_on_c, 6, 59, 0
17, 611760, Note_on_c, 6, 57, 80
17, 612219, Note_on_c, 6, 57, 0
17, 612240, Note_on_c, 6, 57, 80
17, 612939, Note_on_c, 6, 57, 0
17, 612960, Note_on_c, 6, 58, 80
17, 613659, Note_on_c, 6, 58, 0
17, 613680, Note_on_c, 6, 54, 80
17, 614379, Note_on_c, 6, 54, 0
17, 614400, Note_on_c, 6, 64, 80
17, 615099, Note_on_c, 6, 64, 0
17, 615120, Note_on_c, 6, 64, 80
17, 615819, Note_on_c, 6, 64, 0
17, 615840, Note_on_c, 6, 63, 80
17, 616559, Note_on_c, 6, 63, 0
17, 617280, Note_on_c, 6, 59, 80
17, 617979, Note_on_c, 6, 59, 0
17, 618000, Note_on_c, 6, 59, 80
17, 618699, Note_on_c, 6, 59, 0
17, 618720, Note_on_c, 6, 59, 80
17, 619419, Note_on_c, 6, 59, 0
17, 619440, Note_on_c, 6, 52, 80
17, 620139, Note_on_c, 6, 52, 0
17, 620160, Note_on_c, 6, 62, 80
17, 620859, Note_on_c, 6, 62, 0
17, 620880, Note_on_c, 6, 61, 80
17, 621579, Note_on_c, 6, 61, 0
17, 621600, Note_on_c, 6, 62, 80
17, 622319, Note_on_c, 6, 62, 0
17, 624480, Note_on_c, 6, 57, 80
17, 624939, Note_on_c, 6, 57, 0
17, 624960, Note_on_c, 6, 57, 80
17, 625199, Note_on_c, 6, 57, 0
17, 627360, Note_on_c, 6, 62, 80
17, 627819, Note_on_c, 6, 62, 0
17, 627840, Note_on_c, 6, 57, 80
17, 628079, Note_on_c, 6, 57, 0
17, 629520, Note_on_c, 6, 52, 80
17, 629979, Note_on_c, 6, 52, 0
17, 630000, Note_on_c, 6, 52, 80
17, 630219, Note_on_c, 6, 52, 0
17, 630240, Note_on_c, 6, 47, 80
17, 630699, Note_on_c, 6, 47, 0
17, 630720, Note_on_c, 6, 47, 80
17, 630939, Note_on_c, 6, 47, 0
17, 630960, Note_on_c, 6, 49, 80
17, 631419, Note_on_c, 6, 49, 0
17, 631440, Note_on_c, 6, 50, 80
17, 631659, Note_on_c, 6, 50, 0
17, 631680, Note_on_c, 6, 52, 80
17, 632139, Note_on_c, 6, 52, 0
17, 632160, Note_on_c, 6, 54, 80
17, 632379, Note_on_c, 6, 54, 0
17, 632400, Note_on_c, 6, 56, 80
17, 632859, Note_on_c, 6, 56, 0
17, 632880, Note_on_c, 6, 52, 80
17, 633099, Note_on_c, 6, 52, 0
17, 633120, Note_on_c, 6, 59, 80
17, 633579, Note_on_c, 6, 59, 0
17, 633600, Note_on_c, 6, 57, 80
17, 633819, Note_on_c, 6, 57, 0
17, 633840, Note_on_c, 6, 59, 80
17, 634299, Note_on_c, 6, 59, 0
17, 634320, Note_on_c, 6, 61, 80
17, 634559, Note_on_c, 6, 61, 0
17, 636720, Note_on_c, 6, 59, 92
17, 638139, Note_on_c, 6, 59, 0
17, 638160, Note_on_c, 6, 59, 80
17, 638859, Note_on_c, 6, 59, 0
17, 638880, Note_on_c, 6, 58, 80
17, 639579, Note_on_c, 6, 58, 0
17, 639600, Note_on_c, 6, 54, 80
17, 640299, Note_on_c, 6, 54, 0
17, 640320, Note_on_c, 6, 62, 80
17, 641019, Note_on_c, 6, 62, 0
17, 641040, Note_on_c, 6, 59, 80
17, 641739, Note_on_c, 6, 59, 0
17, 641760, Note_on_c, 6, 61, 80
17, 642459, Note_on_c, 6, 61, 0
17, 642480, Note_on_c, 6, 61, 80
17, 643179, Note_on_c, 6, 61, 0
17, 643200, Note_on_c, 6, 54, 80
17, 643899, Note_on_c, 6, 54, 0
17, 643920, Note_on_c, 6, 54, 80
17, 644619, Note_on_c, 6, 54, 0
17, 644640, Note_on_c, 6, 59, 80
17, 645359, Note_on_c, 6, 59, 0
17, 646080, Note_on_c, 6, 50, 80
17, 646539, Note_on_c, 6, 50, 0
17, 646560, Note_on_c, 6, 50, 80
17, 646779, Note_on_c, 6, 50, 0
17, 646800, Note_on_c, 6, 52, 80
17, 647259, Note_on_c, 6, 52, 0
17, 647280, Note_on_c, 6, 54, 80
17, 647499, Note_on_c, 6, 54, 0
17, 647520, Note_on_c, 6, 54, 80
17, 647979, Note_on_c, 6, 54, 0
17, 648000, Note_on_c, 6, 52, 80
17, 648219, Note_on_c, 6, 52, 0
17, 648240, Note_on_c, 6, 50, 80
17, 648699, Note_on_c, 6, 50, 0
17, 648720, Note_on_c, 6, 49, 80
17, 648939, Note_on_c, 6, 49, 0
17, 648960, Note_on_c, 6, 49, 80
17, 649419, Note_on_c, 6, 49, 0
17, 649440, Note_on_c, 6, 49, 80
17, 649659, Note_on_c, 6, 49, 0
17, 649680, Note_on_c, 6, 51, 80
17, 650139, Note_on_c, 6, 51, 0
17, 650160, Note_on_c, 6, 52, 80
17, 650379, Note_on_c, 6, 52, 0
17, 650400, Note_on_c, 6, 54, 80
17, 650859, Note_on_c, 6, 54, 0
17, 650880, Note_on_c, 6, 51, 80
17, 651099, Note_on_c, 6, 51, 0
17, 651120, Note_on_c, 6, 49, 80
17, 651579, Note_on_c, 6, 49, 0
17, 651600, Note_on_c, 6, 47, 80
17, 651819, Note_on_c, 6, 47, 0
17, 651840, Note_on_c, 6, 54, 80
17, 652299, Note_on_c, 6, 54, 0
17, 652320, Note_on_c, 6, 54, 80
17, 652539, Note_on_c, 6, 54, 0
17, 652560, Note_on_c, 6, 56, 80
17, 653019, Note_on_c, 6, 56, 0
17, 653040, Note_on_c, 6, 57, 80
17, 653259, Note_on_c, 6, 57, 0
17, 653280, Note_on_c, 6, 57, 80
17, 653739, Note_on_c, 6, 57, 0
17, 653760, Note_on_c, 6, 56, 80
17, 653979, Note_on_c, 6, 56, 0
17, 654000, Note_on_c, 6, 54, 80
17, 654459, Note_on_c, 6, 54, 0
17, 654480, Note_on_c, 6, 52, 80
17, 654699, Note_on_c, 6, 52, 0
17, 654720, Note_on_c, 6, 59, 80
17, 655179, Note_on_c, 6, 59, 0
17, 655200, Note_on_c, 6, 59, 80
17, 655419, Note_on_c, 6, 59, 0
17, 655440, Note_on_c, 6, 64, 80
17, 655899, Note_on_c, 6, 64, 0
17, 655920, Note_on_c, 6, 62, 80
17, 656139, Note_on_c, 6, 62, 0
17, 656160, Note_on_c, 6, 62, 80
17, 656619, Note_on_c, 6, 62, 0
17, 656640, Note_on_c, 6, 61, 80
17, 656859, Note_on_c, 6, 61, 0
17, 656880, Note_on_c, 6, 59, 80
17, 657339, Note_on_c, 6, 59, 0
17, 657360, Note_on_c, 6, 61, 80
17, 657579, Note_on_c, 6, 61, 0
17, 657600, Note_on_c, 6, 59, 80
17, 658059, Note_on_c, 6, 59, 0
17, 658080, Note_on_c, 6, 57, 80
17, 658319, Note_on_c, 6, 57, 0
17, 661200, Note_on_c, 6, 62, 92
17, 662619, Note_on_c, 6, 62, 0
17, 662640, Note_on_c, 6, 62, 80
17, 663339, Note_on_c, 6, 62, 0
17, 663360, Note_on_c, 6, 61, 80
17, 664059, Note_on_c, 6, 61, 0
17, 664080, Note_on_c, 6, 57, 80
17, 664779, Note_on_c, 6, 57, 0
17, 664800, Note_on_c, 6, 59, 80
17, 665499, Note_on_c, 6, 59, 0
17, 665520, Note_on_c, 6, 59, 80
17, 666219, Note_on_c, 6, 59, 0
17, 666240, Note_on_c, 6, 57, 80
17, 666939, Note_on_c, 6, 57, 0
17, 666960, Note_on_c, 6, 54, 80
17, 667659, Note_on_c, 6, 54, 0
17, 667680, Note_on_c, 6, 55, 80
17, 668379, Note_on_c, 6, 55, 0
17, 668400, Note_on_c, 6, 55, 80
17, 669099, Note_on_c, 6, 55, 0
17, 669120, Note_on_c, 6, 54, 80
17, 669819, Note_on_c, 6, 54, 0
17, 669840, Note_on_c, 6, 62, 80
17, 670539, Note_on_c, 6, 62, 0
17, 670560, Note_on_c, 6, 64, 80
17, 671259, Note_on_c, 6, 64, 0
17, 671280, Note_on_c, 6, 64, 80
17, 671979, Note_on_c, 6, 64, 0
17, 672000, Note_on_c, 6, 64, 92
17, 674139, Note_on_c, 6, 64, 0
17, 674160, Note_on_c, 6, 64, 92
17, 674859, Note_on_c, 6, 64, 0
17, 674880, Note_on_c, 6, 62, 92
17, 676319, Note_on_c, 6, 62, 0
17, 808320, Note_on_c, 6, 62, 92
17, 808559, Note_on_c, 6, 62, 0
17, 809280, Note_on_c, 6, 64, 92
17, 809519, Note_on_c, 6, 64, 0
17, 810240, Note_on_c, 6, 52, 92
17, 810479, Note_on_c, 6, 52, 0
17, 811200, Note_on_c, 6, 57, 92
17, 811439, Note_on_c, 6, 57, 0
17, 812160, Note_on_c, 6, 62, 92
17, 812399, Note_on_c, 6, 62, 0
17, 813120, Note_on_c, 6, 64, 92
17, 813359, Note_on_c, 6, 64, 0
17, 814080, Note_on_c, 6, 52, 92
17, 814319, Note_on_c, 6, 52, 0
17, 815040, Note_on_c, 6, 57, 92
17, 815279, Note_on_c, 6, 57, 0
17, 816000, Note_on_c, 6, 55, 92
17, 816239, Note_on_c, 6, 55, 0
17, 816480, Note_on_c, 6, 52, 92
17, 816719, Note_on_c, 6, 52, 0
17, 816960, Note_on_c, 6, 49, 92
17, 817199, Note_on_c, 6, 49, 0
17, 817440, Note_on_c, 6, 45, 92
17, 817679, Note_on_c, 6, 45, 0
17, 818640, Note_on_c, 6, 54, 92
17, 818879, Note_on_c, 6, 54, 0
17, 818880, Note_on_c, 6, 55, 92
17, 819119, Note_on_c, 6, 55, 0
17, 819600, Note_on_c, 6, 54, 80
17, 819839, Note_on_c, 6, 54, 0
17, 819840, Note_on_c, 6, 55, 80
17, 820079, Note_on_c, 6, 55, 0
17, 820560, Note_on_c, 6, 54, 80
17, 820799, Note_on_c, 6, 54, 0
17, 820800, Note_on_c, 6, 55, 80
17, 821039, Note_on_c, 6, 55, 0
17, 821520, Note_on_c, 6, 54, 80
17, 821759, Note_on_c, 6, 54, 0
17, 821760, Note_on_c, 6, 55, 80
17, 821999, Note_on_c, 6, 55, 0
17, 822480, Note_on_c, 6, 54, 80
17, 822719, Note_on_c, 6, 54, 0
17, 822720, Note_on_c, 6, 55, 80
17, 822959, Note_on_c, 6, 55, 0
17, 823440, Note_on_c, 6, 54, 80
17, 823679, Note_on_c, 6, 54, 0
17, 823680, Note_on_c, 6, 55, 80
17, 823919, Note_on_c, 6, 55, 0
17, 824400, Note_on_c, 6, 54, 80
17, 824639, Note_on_c, 6, 54, 0
17, 824640, Note_on_c, 6, 55, 80
17, 824879, Note_on_c, 6, 55, 0
17, 825360, Note_on_c, 6, 54, 80
17, 825599, Note_on_c, 6, 54, 0
17, 825600, Note_on_c, 6, 52, 80
17, 825839, Note_on_c, 6, 52, 0
17, 826080, Note_on_c, 6, 50, 80
17, 826319, Note_on_c, 6, 50, 0
17, 826560, Note_on_c, 6, 55, 80
17, 826799, Note_on_c, 6, 55, 0
17, 827040, Note_on_c, 6, 55, 80
17, 827279, Note_on_c, 6, 55, 0
17, 827520, Note_on_c, 6, 57, 80
17, 827759, Note_on_c, 6, 57, 0
17, 828000, Note_on_c, 6, 55, 80
17, 828239, Note_on_c, 6, 55, 0
17, 828480, Note_on_c, 6, 54, 80
17, 828719, Note_on_c, 6, 54, 0
17, 828960, Note_on_c, 6, 54, 80
17, 829199, Note_on_c, 6, 54, 0
17, 829440, Note_on_c, 6, 52, 80
17, 829679, Note_on_c, 6, 52, 0
17, 829920, Note_on_c, 6, 50, 80
17, 830159, Note_on_c, 6, 50, 0
17, 830400, Note_on_c, 6, 55, 80
17, 830639, Note_on_c, 6, 55, 0
17, 830880, Note_on_c, 6, 55, 80
17, 831119, Note_on_c, 6, 55, 0
17, 831360, Note_on_c, 6, 57, 80
17, 831599, Note_on_c, 6, 57, 0
17, 831840, Note_on_c, 6, 57, 80
17, 832079, Note_on_c, 6, 57, 0
17, 832320, Note_on_c, 6, 50, 80
17, 832559, Note_on_c, 6, 50, 0
17, 833280, Note_on_c, 6, 50, 80
17, 833519, Note_on_c, 6, 50, 0
17, 834240, Note_on_c, 6, 52, 80
17, 834479, Note_on_c, 6, 52, 0
17, 835200, Note_on_c, 6, 52, 80
17, 835439, Note_on_c, 6, 52, 0
17, 836160, Note_on_c, 6, 59, 92
17, 836519, Note_on_c, 6, 59, 0
17, 836640, Note_on_c, 6, 59, 92
17, 836999, Note_on_c, 6, 59, 0
17, 837120, Note_on_c, 6, 59, 92
17, 837479, Note_on_c, 6, 59, 0
17, 837600, Note_on_c, 6, 59, 92
17, 837959, Note_on_c, 6, 59, 0
17, 838080, Note_on_c, 6, 59, 92
17, 838439, Note_on_c, 6, 59, 0
17, 838560, Note_on_c, 6, 59, 92
17, 838919, Note_on_c, 6, 59, 0
17, 839040, Note_on_c, 6, 60, 92
17, 839399, Note_on_c, 6, 60, 0
17, 839520, Note_on_c, 6, 60, 92
17, 839879, Note_on_c, 6, 60, 0
17, 840000, Note_on_c, 6, 60, 92
17, 840359, Note_on_c, 6, 60, 0
17, 840480, Note_on_c, 6, 60, 92
17, 840839, Note_on_c, 6, 60, 0
17, 840960, Note_on_c, 6, 65, 92
17, 841319, Note_on_c, 6, 65, 0
17, 841440, Note_on_c, 6, 62, 92
17, 841799, Note_on_c, 6, 62, 0
17, 841920, Note_on_c, 6, 57, 92
17, 842369, Note_on_c, 6, 57, 0
17, 842400, Note_on_c, 6, 57, 92
17, 842849, Note_on_c, 6, 57, 0
17, 842880, Note_on_c, 6, 59, 92
17, 843119, Note_on_c, 6, 59, 0
17, 843360, Note_on_c, 6, 59, 92
17, 844289, Note_on_c, 6, 59, 0
17, 844320, Note_on_c, 6, 59, 92
17, 844559, Note_on_c, 6, 59, 0
17, 844800, Note_on_c, 6, 59, 92
17, 845039, Note_on_c, 6, 59, 0
17, 845280, Note_on_c, 6, 59, 92
17, 845519, Note_on_c, 6, 59, 0
17, 845760, Note_on_c, 6, 59, 92
17, 845999, Note_on_c, 6, 59, 0
17, 846240, Note_on_c, 6, 59, 92
17, 846479, Note_on_c, 6, 59, 0
17, 846720, Note_on_c, 6, 60, 92
17, 846959, Note_on_c, 6, 60, 0
17, 847200, Note_on_c, 6, 60, 92
17, 847439, Note_on_c, 6, 60, 0
17, 847680, Note_on_c, 6, 60, 92
17, 847919, Note_on_c, 6, 60, 0
17, 848160, Note_on_c, 6, 60, 92
17, 848399, Note_on_c, 6, 60, 0
17, 848640, Note_on_c, 6, 65, 92
17, 848879, Note_on_c, 6, 65, 0
17, 849120, Note_on_c, 6, 62, 92
17, 849359, Note_on_c, 6, 62, 0
17, 849600, Note_on_c, 6, 57, 92
17, 849839, Note_on_c, 6, 57, 0
17, 850080, Note_on_c, 6, 57, 92
17, 850319, Note_on_c, 6, 57, 0
17, 850560, Note_on_c, 6, 60, 92
17, 851009, Note_on_c, 6, 60, 0
17, 851040, Note_on_c, 6, 59, 92
17, 851249, Note_on_c, 6, 59, 0
17, 851280, Note_on_c, 6, 55, 92
17, 851489, Note_on_c, 6, 55, 0
17, 851520, Note_on_c, 6, 64, 92
17, 852449, Note_on_c, 6, 64, 0
17, 852480, Note_on_c, 6, 57, 92
17, 853409, Note_on_c, 6, 57, 0
17, 853440, Note_on_c, 6, 57, 92
17, 853679, Note_on_c, 6, 57, 0
17, 853920, Note_on_c, 6, 57, 92
17, 854159, Note_on_c, 6, 57, 0
17, 854400, Note_on_c, 6, 60, 92
17, 854849, Note_on_c, 6, 60, 0
17, 854880, Note_on_c, 6, 59, 92
17, 855089, Note_on_c, 6, 59, 0
17, 855120, Note_on_c, 6, 55, 92
17, 855329, Note_on_c, 6, 55, 0
17, 855360, Note_on_c, 6, 64, 92
17, 856289, Note_on_c, 6, 64, 0
17, 856320, Note_on_c, 6, 57, 92
17, 857249, Note_on_c, 6, 57, 0
17, 857280, Note_on_c, 6, 57, 92
17, 857519, Note_on_c, 6, 57, 0
17, 857760, Note_on_c, 6, 57, 92
17, 857999, Note_on_c, 6, 57, 0
17, 858240, Note_on_c, 6, 50, 92
17, 858479, Note_on_c, 6, 50, 0
17, 859200, Note_on_c, 6, 59, 92
17, 859439, Note_on_c, 6, 59, 0
17, 860160, Note_on_c, 6, 55, 92
17, 860399, Note_on_c, 6, 55, 0
17, 860640, Note_on_c, 6, 52, 92
17, 860879, Note_on_c, 6, 52, 0
17, 861120, Note_on_c, 6, 57, 92
17, 861359, Note_on_c, 6, 57, 0
17, 862560, Note_on_c, 6, 50, 92
17, 862799, Note_on_c, 6, 50, 0
17, 863040, Note_on_c, 6, 57, 92
17, 863279, Note_on_c, 6, 57, 0
17, 864480, Note_on_c, 6, 50, 92
17, 864719, Note_on_c, 6, 50, 0
17, 864960, Note_on_c, 6, 57, 92
17, 865199, Note_on_c, 6, 57, 0
17, 867360, Note_on_c, 6, 50, 92
17, 867569, Note_on_c, 6, 50, 0
17, 867600, Note_on_c, 6, 54, 92
17, 867809, Note_on_c, 6, 54, 0
17, 867840, Note_on_c, 6, 57, 92
17, 868079, Note_on_c, 6, 57, 0
17, 868320, Note_on_c, 6, 57, 92
17, 868559, Note_on_c, 6, 57, 0
17, 868800, Note_on_c, 6, 57, 92
17, 869039, Note_on_c, 6, 57, 0
17, 869280, Note_on_c, 6, 57, 92
17, 869519, Note_on_c, 6, 57, 0
17, 870240, Note_on_c, 6, 57, 92
17, 870479, Note_on_c, 6, 57, 0
17, 872160, Note_on_c, 6, 62, 80
17, 872279, Note_on_c, 6, 62, 0
17, 872400, Note_on_c, 6, 55, 80
17, 872519, Note_on_c, 6, 55, 0
17, 872760, Note_on_c, 6, 57, 80
17, 872869, Note_on_c, 6, 57, 0
17, 872880, Note_on_c, 6, 57, 92
17, 872999, Note_on_c, 6, 57, 0
17, 873120, Note_on_c, 6, 57, 80
17, 873229, Note_on_c, 6, 57, 0
17, 873240, Note_on_c, 6, 50, 80
17, 873349, Note_on_c, 6, 50, 0
17, 873360, Note_on_c, 6, 57, 92
17, 873479, Note_on_c, 6, 57, 0
17, 873600, Note_on_c, 6, 57, 80
17, 873839, Note_on_c, 6, 57, 0
17, 874080, Note_on_c, 6, 50, 80
17, 874319, Note_on_c, 6, 50, 0
17, 874560, Note_on_c, 6, 50, 80
17, 874799, Note_on_c, 6, 50, 0
17, 875520, Note_on_c, 6, 50, 80
17, 875759, Note_on_c, 6, 50, 0
17, 876480, Note_on_c, 6, 50, 80
17, 876719, Note_on_c, 6, 50, 0
17, 877440, Note_on_c, 6, 50, 80
17, 877679, Note_on_c, 6, 50, 0
17, 878400, Note_on_c, 6, 50, 80
17, 878639, Note_on_c, 6, 50, 0
17, 879360, Note_on_c, 6, 50, 80
17, 879599, Note_on_c, 6, 50, 0
17, 880320, Note_on_c, 6, 50, 80
17, 880559, Note_on_c, 6, 50, 0
17, 881280, Note_on_c, 6, 62, 92
17, 881519, Note_on_c, 6, 62, 0
17, 882240, Note_on_c, 6, 62, 80
17, 882479, Note_on_c, 6, 62, 0
17, 883200, Note_on_c, 6, 62, 80
17, 883439, Note_on_c, 6, 62, 0
17, 884160, Note_on_c, 6, 62, 80
17, 884399, Note_on_c, 6, 62, 0
17, 885120, Note_on_c, 6, 62, 80
17, 885359, Note_on_c, 6, 62, 0
17, 886080, Note_on_c, 6, 62, 80
17, 886319, Note_on_c, 6, 62, 0
17, 887040, Note_on_c, 6, 62, 80
17, 887279, Note_on_c, 6, 62, 0
17, 888000, Note_on_c, 6, 62, 80
17, 888239, Note_on_c, 6, 62, 0
17, 888960, Note_on_c, 6, 62, 80
17, 889199, Note_on_c, 6, 62, 0
17, 890880, Note_on_c, 6, 50, 80
17, 891119, Note_on_c, 6, 50, 0
17, 891840, Note_on_c, 6, 50, 80
17, 892079, Note_on_c, 6, 50, 0
17, 892800, Note_on_c, 6, 50, 80
17, 893039, Note_on_c, 6, 50, 0
17, 893039, End_track
18, 0, Start_track
18, 0, Title_t, "Timpani"
18, 0, MIDI_port, 0
18, 0, Program_c, 7, 47
18, 0, Control_c, 7, 121, 0
18, 0, Control_c, 7, 7, 112
18, 0, Control_c, 7, 11, 127
18, 0, Control_c, 7, 10, 25
18, 0, Note_on_c, 7, 45, 92
18, 59, Note_on_c, 7, 45, 0
18, 60, Note_on_c, 7, 45, 92
18, 119, Note_on_c, 7, 45, 0
18, 120, Note_on_c, 7, 45, 92
18, 179, Note_on_c, 7, 45, 0
18, 180, Note_on_c, 7, 45, 92
18, 239, Note_on_c, 7, 45, 0
18, 240, Note_on_c, 7, 45, 92
18, 299, Note_on_c, 7, 45, 0
18, 300, Note_on_c, 7, 45, 92
18, 359, Note_on_c, 7, 45, 0
18, 360, Note_on_c, 7, 45, 92
18, 419, Note_on_c, 7, 45, 0
18, 420, Note_on_c, 7, 45, 92
18, 479, Note_on_c, 7, 45, 0
18, 480, Note_on_c, 7, 45, 92
18, 539, Note_on_c, 7, 45, 0
18, 540, Note_on_c, 7, 45, 92
18, 599, Note_on_c, 7, 45, 0
18, 600, Note_on_c, 7, 45, 92
18, 659, Note_on_c, 7, 45, 0
18, 660, Note_on_c, 7, 45, 92
18, 719, Note_on_c, 7, 45, 0
18, 720, Note_on_c, 7, 45, 92
18, 779, Note_on_c, 7, 45, 0
18, 780, Note_on_c, 7, 45, 92
18, 839, Note_on_c, 7, 45, 0
18, 840, Note_on_c, 7, 45, 92
18, 899, Note_on_c, 7, 45, 0
18, 900, Note_on_c, 7, 45, 92
18, 959, Note_on_c, 7, 45, 0
18, 960, Note_on_c, 7, 45, 92
18, 1019, Note_on_c, 7, 45, 0
18, 1020, Note_on_c, 7, 45, 92
18, 1079, Note_on_c, 7, 45, 0
18, 1080, Note_on_c, 7, 45, 92
18, 1139, Note_on_c, 7, 45, 0
18, 1140, Note_on_c, 7, 45, 92
18, 1199, Note_on_c, 7, 45, 0
18, 1200, Note_on_c, 7, 45, 92
18, 1259, Note_on_c, 7, 45, 0
18, 1260, Note_on_c, 7, 45, 92
18, 1319, Note_on_c, 7, 45, 0
18, 1320, Note_on_c, 7, 45, 92
18, 1379, Note_on_c, 7, 45, 0
18, 1380, Note_on_c, 7, 45, 92
18, 1439, Note_on_c, 7, 45, 0
18, 1440, Note_on_c, 7, 45, 92
18, 1499, Note_on_c, 7, 45, 0
18, 1500, Note_on_c, 7, 45, 92
18, 1559, Note_on_c, 7, 45, 0
18, 1560, Note_on_c, 7, 45, 92
18, 1619, Note_on_c, 7, 45, 0
18, 1620, Note_on_c, 7, 45, 92
18, 1679, Note_on_c, 7, 45, 0
18, 1680, Note_on_c, 7, 45, 92
18, 1739, Note_on_c, 7, 45, 0
18, 1740, Note_on_c, 7, 50, 92
18, 1799, Note_on_c, 7, 50, 0
18, 1800, Note_on_c, 7, 50, 92
18, 1859, Note_on_c, 7, 50, 0
18, 1860, Note_on_c, 7, 50, 92
18, 1919, Note_on_c, 7, 50, 0
18, 1920, Note_on_c, 7, 50, 92
18, 1979, Note_on_c, 7, 50, 0
18, 1980, Note_on_c, 7, 50, 92
18, 2039, Note_on_c, 7, 50, 0
18, 2040, Note_on_c, 7, 50, 92
18, 2099, Note_on_c, 7, 50, 0
18, 2100, Note_on_c, 7, 50, 92
18, 2159, Note_on_c, 7, 50, 0
18, 2160, Note_on_c, 7, 50, 92
18, 2219, Note_on_c, 7, 50, 0
18, 2220, Note_on_c, 7, 50, 92
18, 2279, Note_on_c, 7, 50, 0
18, 2280, Note_on_c, 7, 50, 92
18, 2339, Note_on_c, 7, 50, 0
18, 2340, Note_on_c, 7, 50, 92
18, 2399, Note_on_c, 7, 50, 0
18, 2400, Note_on_c, 7, 50, 92
18, 2459, Note_on_c, 7, 50, 0
18, 2460, Note_on_c, 7, 50, 92
18, 2519, Note_on_c, 7, 50, 0
18, 2520, Note_on_c, 7, 50, 92
18, 2579, Note_on_c, 7, 50, 0
18, 2580, Note_on_c, 7, 50, 92
18, 2639, Note_on_c, 7, 50, 0
18, 2640, Note_on_c, 7, 50, 92
18, 2699, Note_on_c, 7, 50, 0
18, 2700, Note_on_c, 7, 50, 92
18, 2759, Note_on_c, 7, 50, 0
18, 2760, Note_on_c, 7, 50, 92
18, 2819, Note_on_c, 7, 50, 0
18, 2820, Note_on_c, 7, 50, 92
18, 2879, Note_on_c, 7, 50, 0
18, 2880, Note_on_c, 7, 50, 92
18, 2939, Note_on_c, 7, 50, 0
18, 2940, Note_on_c, 7, 50, 92
18, 2999, Note_on_c, 7, 50, 0
18, 3000, Note_on_c, 7, 50, 92
18, 3059, Note_on_c, 7, 50, 0
18, 3060, Note_on_c, 7, 50, 92
18, 3119, Note_on_c, 7, 50, 0
18, 3120, Note_on_c, 7, 50, 92
18, 3179, Note_on_c, 7, 50, 0
18, 3180, Note_on_c, 7, 50, 92
18, 3239, Note_on_c, 7, 50, 0
18, 3240, Note_on_c, 7, 50, 92
18, 3299, Note_on_c, 7, 50, 0
18, 3300, Note_on_c, 7, 50, 92
18, 3359, Note_on_c, 7, 50, 0
18, 3360, Note_on_c, 7, 50, 92
18, 3419, Note_on_c, 7, 50, 0
18, 3420, Note_on_c, 7, 50, 92
18, 3479, Note_on_c, 7, 50, 0
18, 3480, Note_on_c, 7, 50, 92
18, 3539, Note_on_c, 7, 50, 0
18, 3540, Note_on_c, 7, 50, 92
18, 3599, Note_on_c, 7, 50, 0
18, 3600, Note_on_c, 7, 50, 92
18, 3659, Note_on_c, 7, 50, 0
18, 3660, Note_on_c, 7, 50, 92
18, 3719, Note_on_c, 7, 50, 0
18, 3720, Note_on_c, 7, 50, 92
18, 3779, Note_on_c, 7, 50, 0
18, 3780, Note_on_c, 7, 50, 92
18, 3839, Note_on_c, 7, 50, 0
18, 3840, Note_on_c, 7, 50, 92
18, 3899, Note_on_c, 7, 50, 0
18, 3900, Note_on_c, 7, 50, 92
18, 3959, Note_on_c, 7, 50, 0
18, 3960, Note_on_c, 7, 50, 92
18, 4019, Note_on_c, 7, 50, 0
18, 4020, Note_on_c, 7, 50, 92
18, 4079, Note_on_c, 7, 50, 0
18, 4080, Note_on_c, 7, 50, 92
18, 4139, Note_on_c, 7, 50, 0
18, 4140, Note_on_c, 7, 50, 92
18, 4199, Note_on_c, 7, 50, 0
18, 4200, Note_on_c, 7, 50, 92
18, 4259, Note_on_c, 7, 50, 0
18, 4260, Note_on_c, 7, 50, 92
18, 4319, Note_on_c, 7, 50, 0
18, 4320, Note_on_c, 7, 50, 92
18, 4379, Note_on_c, 7, 50, 0
18, 4380, Note_on_c, 7, 50, 92
18, 4439, Note_on_c, 7, 50, 0
18, 4440, Note_on_c, 7, 50, 92
18, 4499, Note_on_c, 7, 50, 0
18, 4500, Note_on_c, 7, 50, 92
18, 4559, Note_on_c, 7, 50, 0
18, 4560, Note_on_c, 7, 50, 92
18, 4739, Note_on_c, 7, 50, 0
18, 4800, Note_on_c, 7, 45, 92
18, 4979, Note_on_c, 7, 45, 0
18, 11520, Note_on_c, 7, 50, 92
18, 11579, Note_on_c, 7, 50, 0
18, 11580, Note_on_c, 7, 50, 92
18, 11639, Note_on_c, 7, 50, 0
18, 11640, Note_on_c, 7, 50, 92
18, 11699, Note_on_c, 7, 50, 0
18, 11700, Note_on_c, 7, 50, 92
18, 11759, Note_on_c, 7, 50, 0
18, 11760, Note_on_c, 7, 50, 92
18, 11819, Note_on_c, 7, 50, 0
18, 11820, Note_on_c, 7, 50, 92
18, 11879, Note_on_c, 7, 50, 0
18, 11880, Note_on_c, 7, 50, 92
18, 11939, Note_on_c, 7, 50, 0
18, 11940, Note_on_c, 7, 50, 92
18, 11999, Note_on_c, 7, 50, 0
18, 12000, Note_on_c, 7, 50, 92
18, 12059, Note_on_c, 7, 50, 0
18, 12060, Note_on_c, 7, 50, 92
18, 12119, Note_on_c, 7, 50, 0
18, 12120, Note_on_c, 7, 50, 92
18, 12179, Note_on_c, 7, 50, 0
18, 12180, Note_on_c, 7, 50, 92
18, 12239, Note_on_c, 7, 50, 0
18, 12240, Note_on_c, 7, 50, 92
18, 12299, Note_on_c, 7, 50, 0
18, 12300, Note_on_c, 7, 50, 92
18, 12359, Note_on_c, 7, 50, 0
18, 12360, Note_on_c, 7, 50, 92
18, 12419, Note_on_c, 7, 50, 0
18, 12420, Note_on_c, 7, 50, 92
18, 12479, Note_on_c, 7, 50, 0
18, 12480, Note_on_c, 7, 50, 92
18, 12539, Note_on_c, 7, 50, 0
18, 12540, Note_on_c, 7, 50, 92
18, 12599, Note_on_c, 7, 50, 0
18, 12600, Note_on_c, 7, 50, 92
18, 12659, Note_on_c, 7, 50, 0
18, 12660, Note_on_c, 7, 50, 92
18, 12719, Note_on_c, 7, 50, 0
18, 12720, Note_on_c, 7, 50, 92
18, 12779, Note_on_c, 7, 50, 0
18, 12780, Note_on_c, 7, 50, 92
18, 12839, Note_on_c, 7, 50, 0
18, 12840, Note_on_c, 7, 50, 92
18, 12899, Note_on_c, 7, 50, 0
18, 12900, Note_on_c, 7, 50, 92
18, 12959, Note_on_c, 7, 50, 0
18, 12960, Note_on_c, 7, 50, 92
18, 13019, Note_on_c, 7, 50, 0
18, 13020, Note_on_c, 7, 50, 92
18, 13079, Note_on_c, 7, 50, 0
18, 13080, Note_on_c, 7, 50, 92
18, 13139, Note_on_c, 7, 50, 0
18, 13140, Note_on_c, 7, 50, 92
18, 13199, Note_on_c, 7, 50, 0
18, 13200, Note_on_c, 7, 50, 92
18, 13259, Note_on_c, 7, 50, 0
18, 13260, Note_on_c, 7, 50, 92
18, 13319, Note_on_c, 7, 50, 0
18, 13320, Note_on_c, 7, 50, 92
18, 13379, Note_on_c, 7, 50, 0
18, 13380, Note_on_c, 7, 50, 92
18, 13439, Note_on_c, 7, 50, 0
18, 13440, Note_on_c, 7, 50, 92
18, 13499, Note_on_c, 7, 50, 0
18, 13500, Note_on_c, 7, 50, 92
18, 13559, Note_on_c, 7, 50, 0
18, 13560, Note_on_c, 7, 50, 92
18, 13619, Note_on_c, 7, 50, 0
18, 13620, Note_on_c, 7, 50, 92
18, 13679, Note_on_c, 7, 50, 0
18, 13680, Note_on_c, 7, 50, 92
18, 13739, Note_on_c, 7, 50, 0
18, 13740, Note_on_c, 7, 50, 92
18, 13799, Note_on_c, 7, 50, 0
18, 13800, Note_on_c, 7, 50, 92
18, 13859, Note_on_c, 7, 50, 0
18, 13860, Note_on_c, 7, 50, 92
18, 13919, Note_on_c, 7, 50, 0
18, 13920, Note_on_c, 7, 50, 92
18, 13979, Note_on_c, 7, 50, 0
18, 13980, Note_on_c, 7, 50, 92
18, 14039, Note_on_c, 7, 50, 0
18, 14040, Note_on_c, 7, 50, 92
18, 14099, Note_on_c, 7, 50, 0
18, 14100, Note_on_c, 7, 50, 92
18, 14159, Note_on_c, 7, 50, 0
18, 14160, Note_on_c, 7, 50, 92
18, 14219, Note_on_c, 7, 50, 0
18, 14220, Note_on_c, 7, 50, 92
18, 14279, Note_on_c, 7, 50, 0
18, 14280, Note_on_c, 7, 50, 92
18, 14339, Note_on_c, 7, 50, 0
18, 14340, Note_on_c, 7, 50, 92
18, 14399, Note_on_c, 7, 50, 0
18, 14400, Note_on_c, 7, 50, 92
18, 14459, Note_on_c, 7, 50, 0
18, 14460, Note_on_c, 7, 50, 92
18, 14519, Note_on_c, 7, 50, 0
18, 14520, Note_on_c, 7, 50, 92
18, 14579, Note_on_c, 7, 50, 0
18, 14580, Note_on_c, 7, 50, 92
18, 14639, Note_on_c, 7, 50, 0
18, 14640, Note_on_c, 7, 50, 92
18, 14699, Note_on_c, 7, 50, 0
18, 14700, Note_on_c, 7, 50, 92
18, 14759, Note_on_c, 7, 50, 0
18, 14760, Note_on_c, 7, 50, 92
18, 14819, Note_on_c, 7, 50, 0
18, 14820, Note_on_c, 7, 50, 92
18, 14879, Note_on_c, 7, 50, 0
18, 14880, Note_on_c, 7, 50, 92
18, 14939, Note_on_c, 7, 50, 0
18, 14940, Note_on_c, 7, 50, 92
18, 14999, Note_on_c, 7, 50, 0
18, 15000, Note_on_c, 7, 50, 92
18, 15059, Note_on_c, 7, 50, 0
18, 15060, Note_on_c, 7, 50, 92
18, 15119, Note_on_c, 7, 50, 0
18, 15120, Note_on_c, 7, 50, 92
18, 15179, Note_on_c, 7, 50, 0
18, 15180, Note_on_c, 7, 50, 92
18, 15239, Note_on_c, 7, 50, 0
18, 15240, Note_on_c, 7, 50, 92
18, 15299, Note_on_c, 7, 50, 0
18, 15300, Note_on_c, 7, 50, 92
18, 15359, Note_on_c, 7, 50, 0
18, 15360, Note_on_c, 7, 50, 92
18, 15419, Note_on_c, 7, 50, 0
18, 15420, Note_on_c, 7, 50, 92
18, 15479, Note_on_c, 7, 50, 0
18, 15480, Note_on_c, 7, 50, 92
18, 15539, Note_on_c, 7, 50, 0
18, 15540, Note_on_c, 7, 50, 92
18, 15599, Note_on_c, 7, 50, 0
18, 15600, Note_on_c, 7, 50, 92
18, 15659, Note_on_c, 7, 50, 0
18, 15660, Note_on_c, 7, 50, 92
18, 15719, Note_on_c, 7, 50, 0
18, 15720, Note_on_c, 7, 50, 92
18, 15779, Note_on_c, 7, 50, 0
18, 15780, Note_on_c, 7, 50, 92
18, 15839, Note_on_c, 7, 50, 0
18, 15840, Note_on_c, 7, 50, 92
18, 15899, Note_on_c, 7, 50, 0
18, 15900, Note_on_c, 7, 50, 92
18, 15959, Note_on_c, 7, 50, 0
18, 15960, Note_on_c, 7, 50, 92
18, 16019, Note_on_c, 7, 50, 0
18, 16020, Note_on_c, 7, 50, 92
18, 16079, Note_on_c, 7, 50, 0
18, 16080, Note_on_c, 7, 50, 92
18, 16139, Note_on_c, 7, 50, 0
18, 16140, Note_on_c, 7, 50, 92
18, 16199, Note_on_c, 7, 50, 0
18, 16200, Note_on_c, 7, 50, 92
18, 16259, Note_on_c, 7, 50, 0
18, 16260, Note_on_c, 7, 50, 92
18, 16319, Note_on_c, 7, 50, 0
18, 16320, Note_on_c, 7, 50, 92
18, 16379, Note_on_c, 7, 50, 0
18, 16380, Note_on_c, 7, 50, 92
18, 16439, Note_on_c, 7, 50, 0
18, 16440, Note_on_c, 7, 45, 92
18, 16499, Note_on_c, 7, 45, 0
18, 16500, Note_on_c, 7, 45, 92
18, 16559, Note_on_c, 7, 45, 0
18, 16560, Note_on_c, 7, 45, 92
18, 16619, Note_on_c, 7, 45, 0
18, 16620, Note_on_c, 7, 45, 92
18, 16679, Note_on_c, 7, 45, 0
18, 16680, Note_on_c, 7, 45, 92
18, 16739, Note_on_c, 7, 45, 0
18, 16740, Note_on_c, 7, 45, 92
18, 16799, Note_on_c, 7, 45, 0
18, 16800, Note_on_c, 7, 45, 92
18, 17039, Note_on_c, 7, 45, 0
18, 17400, Note_on_c, 7, 45, 92
18, 17519, Note_on_c, 7, 45, 0
18, 17520, Note_on_c, 7, 45, 92
18, 17759, Note_on_c, 7, 45, 0
18, 20640, Note_on_c, 7, 50, 80
18, 20759, Note_on_c, 7, 50, 0
18, 20880, Note_on_c, 7, 50, 80
18, 20999, Note_on_c, 7, 50, 0
18, 21120, Note_on_c, 7, 45, 44
18, 21359, Note_on_c, 7, 45, 0
18, 23010, Note_on_c, 7, 45, 32
18, 23039, Note_on_c, 7, 45, 0
18, 23040, Note_on_c, 7, 45, 32
18, 23279, Note_on_c, 7, 45, 0
18, 24930, Note_on_c, 7, 45, 32
18, 24959, Note_on_c, 7, 45, 0
18, 24960, Note_on_c, 7, 45, 80
18, 25199, Note_on_c, 7, 45, 0
18, 59280, Note_on_c, 7, 45, 80
18, 59519, Note_on_c, 7, 45, 0
18, 60000, Note_on_c, 7, 50, 80
18, 60119, Note_on_c, 7, 50, 0
18, 60120, Note_on_c, 7, 50, 80
18, 60239, Note_on_c, 7, 50, 0
18, 60240, Note_on_c, 7, 50, 80
18, 60359, Note_on_c, 7, 50, 0
18, 60360, Note_on_c, 7, 50, 80
18, 60479, Note_on_c, 7, 50, 0
18, 60480, Note_on_c, 7, 50, 80
18, 60719, Note_on_c, 7, 50, 0
18, 62880, Note_on_c, 7, 50, 80
18, 63119, Note_on_c, 7, 50, 0
18, 63120, Note_on_c, 7, 50, 80
18, 63239, Note_on_c, 7, 50, 0
18, 64800, Note_on_c, 7, 45, 92
18, 65039, Note_on_c, 7, 45, 0
18, 65280, Note_on_c, 7, 50, 92
18, 65519, Note_on_c, 7, 50, 0
18, 134640, Note_on_c, 7, 50, 80
18, 134879, Note_on_c, 7, 50, 0
18, 135000, Note_on_c, 7, 50, 80
18, 135119, Note_on_c, 7, 50, 0
18, 135120, Note_on_c, 7, 50, 80
18, 135359, Note_on_c, 7, 50, 0
18, 135480, Note_on_c, 7, 50, 80
18, 135599, Note_on_c, 7, 50, 0
18, 135600, Note_on_c, 7, 45, 80
18, 135839, Note_on_c, 7, 45, 0
18, 135960, Note_on_c, 7, 45, 80
18, 136079, Note_on_c, 7, 45, 0
18, 136080, Note_on_c, 7, 45, 80
18, 136319, Note_on_c, 7, 45, 0
18, 136440, Note_on_c, 7, 45, 80
18, 136559, Note_on_c, 7, 45, 0
18, 136560, Note_on_c, 7, 50, 80
18, 136799, Note_on_c, 7, 50, 0
18, 137280, Note_on_c, 7, 50, 80
18, 137519, Note_on_c, 7, 50, 0
18, 137520, Note_on_c, 7, 45, 80
18, 137759, Note_on_c, 7, 45, 0
18, 138000, Note_on_c, 7, 45, 80
18, 138239, Note_on_c, 7, 45, 0
18, 138480, Note_on_c, 7, 50, 80
18, 138719, Note_on_c, 7, 50, 0
18, 138840, Note_on_c, 7, 50, 80
18, 138959, Note_on_c, 7, 50, 0
18, 138960, Note_on_c, 7, 50, 80
18, 139199, Note_on_c, 7, 50, 0
18, 139320, Note_on_c, 7, 50, 80
18, 139439, Note_on_c, 7, 50, 0
18, 139440, Note_on_c, 7, 45, 80
18, 139679, Note_on_c, 7, 45, 0
18, 139800, Note_on_c, 7, 45, 80
18, 139919, Note_on_c, 7, 45, 0
18, 139920, Note_on_c, 7, 45, 80
18, 140159, Note_on_c, 7, 45, 0
18, 140280, Note_on_c, 7, 45, 80
18, 140399, Note_on_c, 7, 45, 0
18, 140400, Note_on_c, 7, 50, 80
18, 140639, Note_on_c, 7, 50, 0
18, 141120, Note_on_c, 7, 50, 80
18, 141359, Note_on_c, 7, 50, 0
18, 141360, Note_on_c, 7, 45, 80
18, 141599, Note_on_c, 7, 45, 0
18, 141840, Note_on_c, 7, 50, 80
18, 142079, Note_on_c, 7, 50, 0
18, 142320, Note_on_c, 7, 45, 80
18, 142559, Note_on_c, 7, 45, 0
18, 142680, Note_on_c, 7, 45, 80
18, 142799, Note_on_c, 7, 45, 0
18, 142800, Note_on_c, 7, 45, 80
18, 143039, Note_on_c, 7, 45, 0
18, 143040, Note_on_c, 7, 50, 80
18, 143279, Note_on_c, 7, 50, 0
18, 143280, Note_on_c, 7, 45, 80
18, 143519, Note_on_c, 7, 45, 0
18, 143640, Note_on_c, 7, 45, 80
18, 143759, Note_on_c, 7, 45, 0
18, 143760, Note_on_c, 7, 45, 80
18, 143999, Note_on_c, 7, 45, 0
18, 144000, Note_on_c, 7, 50, 80
18, 144239, Note_on_c, 7, 50, 0
18, 144240, Note_on_c, 7, 45, 80
18, 144479, Note_on_c, 7, 45, 0
18, 145200, Note_on_c, 7, 50, 80
18, 145319, Note_on_c, 7, 50, 0
18, 145440, Note_on_c, 7, 50, 80
18, 145559, Note_on_c, 7, 50, 0
18, 145680, Note_on_c, 7, 45, 80
18, 145799, Note_on_c, 7, 45, 0
18, 145920, Note_on_c, 7, 45, 80
18, 146039, Note_on_c, 7, 45, 0
18, 146160, Note_on_c, 7, 50, 80
18, 146399, Note_on_c, 7, 50, 0
18, 146520, Note_on_c, 7, 50, 80
18, 146639, Note_on_c, 7, 50, 0
18, 146640, Note_on_c, 7, 50, 80
18, 146879, Note_on_c, 7, 50, 0
18, 147000, Note_on_c, 7, 50, 80
18, 147119, Note_on_c, 7, 50, 0
18, 147120, Note_on_c, 7, 45, 80
18, 147359, Note_on_c, 7, 45, 0
18, 147480, Note_on_c, 7, 45, 80
18, 147599, Note_on_c, 7, 45, 0
18, 147600, Note_on_c, 7, 45, 80
18, 147839, Note_on_c, 7, 45, 0
18, 147960, Note_on_c, 7, 45, 80
18, 148079, Note_on_c, 7, 45, 0
18, 148080, Note_on_c, 7, 50, 80
18, 148319, Note_on_c, 7, 50, 0
18, 148800, Note_on_c, 7, 50, 80
18, 149039, Note_on_c, 7, 50, 0
18, 149040, Note_on_c, 7, 45, 80
18, 149279, Note_on_c, 7, 45, 0
18, 149520, Note_on_c, 7, 50, 80
18, 149759, Note_on_c, 7, 50, 0
18, 150000, Note_on_c, 7, 45, 80
18, 150239, Note_on_c, 7, 45, 0
18, 150360, Note_on_c, 7, 45, 80
18, 150479, Note_on_c, 7, 45, 0
18, 150480, Note_on_c, 7, 45, 80
18, 150719, Note_on_c, 7, 45, 0
18, 150720, Note_on_c, 7, 50, 80
18, 150959, Note_on_c, 7, 50, 0
18, 150960, Note_on_c, 7, 45, 80
18, 151199, Note_on_c, 7, 45, 0
18, 151320, Note_on_c, 7, 45, 80
18, 151439, Note_on_c, 7, 45, 0
18, 151440, Note_on_c, 7, 45, 80
18, 151679, Note_on_c, 7, 45, 0
18, 151680, Note_on_c, 7, 50, 80
18, 151919, Note_on_c, 7, 50, 0
18, 151920, Note_on_c, 7, 45, 80
18, 152159, Note_on_c, 7, 45, 0
18, 152880, Note_on_c, 7, 50, 80
18, 152999, Note_on_c, 7, 50, 0
18, 153120, Note_on_c, 7, 50, 80
18, 153239, Note_on_c, 7, 50, 0
18, 153360, Note_on_c, 7, 45, 80
18, 153479, Note_on_c, 7, 45, 0
18, 153600, Note_on_c, 7, 45, 80
18, 153719, Note_on_c, 7, 45, 0
18, 153840, Note_on_c, 7, 50, 80
18, 154079, Note_on_c, 7, 50, 0
18, 154200, Note_on_c, 7, 50, 80
18, 154319, Note_on_c, 7, 50, 0
18, 154320, Note_on_c, 7, 50, 80
18, 154559, Note_on_c, 7, 50, 0
18, 154680, Note_on_c, 7, 50, 80
18, 154799, Note_on_c, 7, 50, 0
18, 154800, Note_on_c, 7, 45, 80
18, 155039, Note_on_c, 7, 45, 0
18, 155160, Note_on_c, 7, 45, 80
18, 155279, Note_on_c, 7, 45, 0
18, 155280, Note_on_c, 7, 45, 80
18, 155519, Note_on_c, 7, 45, 0
18, 155640, Note_on_c, 7, 45, 80
18, 155759, Note_on_c, 7, 45, 0
18, 155760, Note_on_c, 7, 50, 80
18, 155999, Note_on_c, 7, 50, 0
18, 156480, Note_on_c, 7, 50, 80
18, 156719, Note_on_c, 7, 50, 0
18, 156720, Note_on_c, 7, 45, 80
18, 156959, Note_on_c, 7, 45, 0
18, 157200, Note_on_c, 7, 50, 80
18, 157439, Note_on_c, 7, 50, 0
18, 157440, Note_on_c, 7, 50, 80
18, 157679, Note_on_c, 7, 50, 0
18, 157680, Note_on_c, 7, 50, 80
18, 157919, Note_on_c, 7, 50, 0
18, 158040, Note_on_c, 7, 50, 80
18, 158159, Note_on_c, 7, 50, 0
18, 158160, Note_on_c, 7, 50, 80
18, 158399, Note_on_c, 7, 50, 0
18, 158400, Note_on_c, 7, 50, 80
18, 158639, Note_on_c, 7, 50, 0
18, 158640, Note_on_c, 7, 50, 80
18, 158879, Note_on_c, 7, 50, 0
18, 159000, Note_on_c, 7, 50, 80
18, 159119, Note_on_c, 7, 50, 0
18, 159120, Note_on_c, 7, 50, 80
18, 159359, Note_on_c, 7, 50, 0
18, 159360, Note_on_c, 7, 50, 80
18, 159599, Note_on_c, 7, 50, 0
18, 159600, Note_on_c, 7, 50, 80
18, 159839, Note_on_c, 7, 50, 0
18, 159960, Note_on_c, 7, 50, 80
18, 160079, Note_on_c, 7, 50, 0
18, 160080, Note_on_c, 7, 45, 80
18, 160319, Note_on_c, 7, 45, 0
18, 160320, Note_on_c, 7, 45, 80
18, 160559, Note_on_c, 7, 45, 0
18, 160560, Note_on_c, 7, 50, 80
18, 160799, Note_on_c, 7, 50, 0
18, 160920, Note_on_c, 7, 50, 80
18, 161039, Note_on_c, 7, 50, 0
18, 161040, Note_on_c, 7, 50, 80
18, 161159, Note_on_c, 7, 50, 0
18, 161280, Note_on_c, 7, 50, 80
18, 161399, Note_on_c, 7, 50, 0
18, 161520, Note_on_c, 7, 50, 80
18, 161759, Note_on_c, 7, 50, 0
18, 161880, Note_on_c, 7, 50, 80
18, 161999, Note_on_c, 7, 50, 0
18, 162000, Note_on_c, 7, 45, 80
18, 162119, Note_on_c, 7, 45, 0
18, 162240, Note_on_c, 7, 45, 80
18, 162359, Note_on_c, 7, 45, 0
18, 166080, Note_on_c, 7, 50, 80
18, 166319, Note_on_c, 7, 50, 0
18, 166320, Note_on_c, 7, 50, 80
18, 166559, Note_on_c, 7, 50, 0
18, 166680, Note_on_c, 7, 50, 80
18, 166799, Note_on_c, 7, 50, 0
18, 166800, Note_on_c, 7, 50, 80
18, 167039, Note_on_c, 7, 50, 0
18, 167160, Note_on_c, 7, 50, 80
18, 167279, Note_on_c, 7, 50, 0
18, 167280, Note_on_c, 7, 50, 80
18, 167519, Note_on_c, 7, 50, 0
18, 167640, Note_on_c, 7, 50, 80
18, 167759, Note_on_c, 7, 50, 0
18, 167760, Note_on_c, 7, 50, 80
18, 167999, Note_on_c, 7, 50, 0
18, 168120, Note_on_c, 7, 50, 80
18, 168239, Note_on_c, 7, 50, 0
18, 168240, Note_on_c, 7, 45, 80
18, 168479, Note_on_c, 7, 45, 0
18, 168480, Note_on_c, 7, 45, 80
18, 168599, Note_on_c, 7, 45, 0
18, 168600, Note_on_c, 7, 45, 80
18, 168719, Note_on_c, 7, 45, 0
18, 168720, Note_on_c, 7, 50, 80
18, 168959, Note_on_c, 7, 50, 0
18, 168960, Note_on_c, 7, 50, 80
18, 169079, Note_on_c, 7, 50, 0
18, 169080, Note_on_c, 7, 50, 80
18, 169199, Note_on_c, 7, 50, 0
18, 169200, Note_on_c, 7, 45, 80
18, 169439, Note_on_c, 7, 45, 0
18, 169440, Note_on_c, 7, 45, 80
18, 169559, Note_on_c, 7, 45, 0
18, 169560, Note_on_c, 7, 45, 80
18, 169679, Note_on_c, 7, 45, 0
18, 169680, Note_on_c, 7, 45, 80
18, 169919, Note_on_c, 7, 45, 0
18, 170160, Note_on_c, 7, 45, 80
18, 170399, Note_on_c, 7, 45, 0
18, 171120, Note_on_c, 7, 45, 80
18, 171359, Note_on_c, 7, 45, 0
18, 174960, Note_on_c, 7, 45, 80
18, 175199, Note_on_c, 7, 45, 0
18, 175200, Note_on_c, 7, 45, 80
18, 175439, Note_on_c, 7, 45, 0
18, 176640, Note_on_c, 7, 45, 80
18, 176699, Note_on_c, 7, 45, 0
18, 176700, Note_on_c, 7, 45, 80
18, 176759, Note_on_c, 7, 45, 0
18, 176760, Note_on_c, 7, 45, 80
18, 176819, Note_on_c, 7, 45, 0
18, 176820, Note_on_c, 7, 45, 80
18, 176879, Note_on_c, 7, 45, 0
18, 176880, Note_on_c, 7, 45, 92
18, 176939, Note_on_c, 7, 45, 0
18, 176940, Note_on_c, 7, 45, 92
18, 176999, Note_on_c, 7, 45, 0
18, 177000, Note_on_c, 7, 45, 92
18, 177059, Note_on_c, 7, 45, 0
18, 177060, Note_on_c, 7, 45, 92
18, 177119, Note_on_c, 7, 45, 0
18, 177120, Note_on_c, 7, 45, 92
18, 177179, Note_on_c, 7, 45, 0
18, 177180, Note_on_c, 7, 45, 92
18, 177239, Note_on_c, 7, 45, 0
18, 177240, Note_on_c, 7, 45, 92
18, 177299, Note_on_c, 7, 45, 0
18, 177300, Note_on_c, 7, 45, 92
18, 177359, Note_on_c, 7, 45, 0
18, 177360, Note_on_c, 7, 45, 92
18, 177419, Note_on_c, 7, 45, 0
18, 177420, Note_on_c, 7, 45, 92
18, 177479, Note_on_c, 7, 45, 0
18, 177480, Note_on_c, 7, 45, 92
18, 177539, Note_on_c, 7, 45, 0
18, 177540, Note_on_c, 7, 45, 92
18, 177599, Note_on_c, 7, 45, 0
18, 177600, Note_on_c, 7, 45, 92
18, 177659, Note_on_c, 7, 45, 0
18, 177660, Note_on_c, 7, 45, 92
18, 177719, Note_on_c, 7, 45, 0
18, 177720, Note_on_c, 7, 45, 92
18, 177779, Note_on_c, 7, 45, 0
18, 177780, Note_on_c, 7, 45, 92
18, 177839, Note_on_c, 7, 45, 0
18, 177840, Note_on_c, 7, 45, 92
18, 177899, Note_on_c, 7, 45, 0
18, 177900, Note_on_c, 7, 45, 92
18, 177959, Note_on_c, 7, 45, 0
18, 177960, Note_on_c, 7, 45, 92
18, 178019, Note_on_c, 7, 45, 0
18, 178020, Note_on_c, 7, 45, 92
18, 178079, Note_on_c, 7, 45, 0
18, 178080, Note_on_c, 7, 45, 92
18, 178139, Note_on_c, 7, 45, 0
18, 178140, Note_on_c, 7, 45, 92
18, 178199, Note_on_c, 7, 45, 0
18, 178200, Note_on_c, 7, 45, 92
18, 178259, Note_on_c, 7, 45, 0
18, 178260, Note_on_c, 7, 45, 92
18, 178319, Note_on_c, 7, 45, 0
18, 178320, Note_on_c, 7, 45, 92
18, 178379, Note_on_c, 7, 45, 0
18, 178380, Note_on_c, 7, 45, 92
18, 178439, Note_on_c, 7, 45, 0
18, 178440, Note_on_c, 7, 45, 92
18, 178499, Note_on_c, 7, 45, 0
18, 178500, Note_on_c, 7, 45, 92
18, 178559, Note_on_c, 7, 45, 0
18, 178560, Note_on_c, 7, 45, 92
18, 178619, Note_on_c, 7, 45, 0
18, 178620, Note_on_c, 7, 45, 92
18, 178679, Note_on_c, 7, 45, 0
18, 178680, Note_on_c, 7, 45, 92
18, 178739, Note_on_c, 7, 45, 0
18, 178740, Note_on_c, 7, 45, 92
18, 178799, Note_on_c, 7, 45, 0
18, 178800, Note_on_c, 7, 45, 92
18, 178859, Note_on_c, 7, 45, 0
18, 178860, Note_on_c, 7, 45, 92
18, 178919, Note_on_c, 7, 45, 0
18, 178920, Note_on_c, 7, 45, 92
18, 178979, Note_on_c, 7, 45, 0
18, 178980, Note_on_c, 7, 45, 92
18, 179039, Note_on_c, 7, 45, 0
18, 179040, Note_on_c, 7, 45, 92
18, 179099, Note_on_c, 7, 45, 0
18, 179100, Note_on_c, 7, 50, 92
18, 179159, Note_on_c, 7, 50, 0
18, 179160, Note_on_c, 7, 50, 92
18, 179219, Note_on_c, 7, 50, 0
18, 179220, Note_on_c, 7, 50, 92
18, 179279, Note_on_c, 7, 50, 0
18, 179280, Note_on_c, 7, 50, 92
18, 179339, Note_on_c, 7, 50, 0
18, 179340, Note_on_c, 7, 50, 92
18, 179399, Note_on_c, 7, 50, 0
18, 179400, Note_on_c, 7, 50, 92
18, 179459, Note_on_c, 7, 50, 0
18, 179460, Note_on_c, 7, 50, 92
18, 179519, Note_on_c, 7, 50, 0
18, 179520, Note_on_c, 7, 50, 92
18, 179579, Note_on_c, 7, 50, 0
18, 179580, Note_on_c, 7, 50, 92
18, 179639, Note_on_c, 7, 50, 0
18, 179640, Note_on_c, 7, 50, 92
18, 179699, Note_on_c, 7, 50, 0
18, 179700, Note_on_c, 7, 50, 92
18, 179759, Note_on_c, 7, 50, 0
18, 179760, Note_on_c, 7, 50, 92
18, 179819, Note_on_c, 7, 50, 0
18, 179820, Note_on_c, 7, 50, 92
18, 179879, Note_on_c, 7, 50, 0
18, 179880, Note_on_c, 7, 50, 92
18, 179939, Note_on_c, 7, 50, 0
18, 179940, Note_on_c, 7, 50, 92
18, 179999, Note_on_c, 7, 50, 0
18, 180000, Note_on_c, 7, 50, 92
18, 180059, Note_on_c, 7, 50, 0
18, 180060, Note_on_c, 7, 50, 92
18, 180119, Note_on_c, 7, 50, 0
18, 180120, Note_on_c, 7, 50, 92
18, 180179, Note_on_c, 7, 50, 0
18, 180180, Note_on_c, 7, 50, 92
18, 180239, Note_on_c, 7, 50, 0
18, 180240, Note_on_c, 7, 50, 92
18, 180299, Note_on_c, 7, 50, 0
18, 180300, Note_on_c, 7, 50, 92
18, 180359, Note_on_c, 7, 50, 0
18, 180360, Note_on_c, 7, 50, 92
18, 180419, Note_on_c, 7, 50, 0
18, 180420, Note_on_c, 7, 50, 92
18, 180479, Note_on_c, 7, 50, 0
18, 180480, Note_on_c, 7, 50, 92
18, 180539, Note_on_c, 7, 50, 0
18, 180540, Note_on_c, 7, 50, 92
18, 180599, Note_on_c, 7, 50, 0
18, 180600, Note_on_c, 7, 50, 92
18, 180659, Note_on_c, 7, 50, 0
18, 180660, Note_on_c, 7, 50, 92
18, 180719, Note_on_c, 7, 50, 0
18, 180720, Note_on_c, 7, 50, 92
18, 180779, Note_on_c, 7, 50, 0
18, 180780, Note_on_c, 7, 50, 92
18, 180839, Note_on_c, 7, 50, 0
18, 180840, Note_on_c, 7, 50, 92
18, 180899, Note_on_c, 7, 50, 0
18, 180900, Note_on_c, 7, 50, 92
18, 180959, Note_on_c, 7, 50, 0
18, 180960, Note_on_c, 7, 50, 92
18, 181019, Note_on_c, 7, 50, 0
18, 181020, Note_on_c, 7, 50, 92
18, 181079, Note_on_c, 7, 50, 0
18, 181080, Note_on_c, 7, 50, 92
18, 181139, Note_on_c, 7, 50, 0
18, 181140, Note_on_c, 7, 50, 92
18, 181199, Note_on_c, 7, 50, 0
18, 181200, Note_on_c, 7, 50, 92
18, 181259, Note_on_c, 7, 50, 0
18, 181260, Note_on_c, 7, 50, 92
18, 181319, Note_on_c, 7, 50, 0
18, 181320, Note_on_c, 7, 50, 92
18, 181379, Note_on_c, 7, 50, 0
18, 181380, Note_on_c, 7, 50, 92
18, 181439, Note_on_c, 7, 50, 0
18, 181440, Note_on_c, 7, 50, 92
18, 181499, Note_on_c, 7, 50, 0
18, 181500, Note_on_c, 7, 50, 92
18, 181559, Note_on_c, 7, 50, 0
18, 181560, Note_on_c, 7, 50, 92
18, 181619, Note_on_c, 7, 50, 0
18, 181620, Note_on_c, 7, 50, 92
18, 181679, Note_on_c, 7, 50, 0
18, 181680, Note_on_c, 7, 50, 92
18, 181739, Note_on_c, 7, 50, 0
18, 181740, Note_on_c, 7, 50, 92
18, 181799, Note_on_c, 7, 50, 0
18, 181800, Note_on_c, 7, 50, 92
18, 181859, Note_on_c, 7, 50, 0
18, 181860, Note_on_c, 7, 50, 92
18, 181919, Note_on_c, 7, 50, 0
18, 181920, Note_on_c, 7, 50, 92
18, 182099, Note_on_c, 7, 50, 0
18, 182160, Note_on_c, 7, 45, 92
18, 182339, Note_on_c, 7, 45, 0
18, 192480, Note_on_c, 7, 45, 80
18, 192659, Note_on_c, 7, 45, 0
18, 192720, Note_on_c, 7, 50, 80
18, 192839, Note_on_c, 7, 50, 0
18, 192840, Note_on_c, 7, 50, 80
18, 192959, Note_on_c, 7, 50, 0
18, 192960, Note_on_c, 7, 50, 80
18, 193199, Note_on_c, 7, 50, 0
18, 195840, Note_on_c, 7, 50, 44
18, 195959, Note_on_c, 7, 50, 0
18, 196080, Note_on_c, 7, 50, 80
18, 196199, Note_on_c, 7, 50, 0
18, 197520, Note_on_c, 7, 45, 80
18, 197699, Note_on_c, 7, 45, 0
18, 216960, Note_on_c, 7, 45, 80
18, 217199, Note_on_c, 7, 45, 0
18, 217920, Note_on_c, 7, 45, 80
18, 218159, Note_on_c, 7, 45, 0
18, 218880, Note_on_c, 7, 45, 80
18, 219119, Note_on_c, 7, 45, 0
18, 219360, Note_on_c, 7, 45, 80
18, 219599, Note_on_c, 7, 45, 0
18, 219600, Note_on_c, 7, 45, 80
18, 219839, Note_on_c, 7, 45, 0
18, 219840, Note_on_c, 7, 45, 80
18, 220079, Note_on_c, 7, 45, 0
18, 220080, Note_on_c, 7, 45, 80
18, 220319, Note_on_c, 7, 45, 0
18, 220320, Note_on_c, 7, 45, 80
18, 220559, Note_on_c, 7, 45, 0
18, 220680, Note_on_c, 7, 45, 80
18, 220799, Note_on_c, 7, 45, 0
18, 220800, Note_on_c, 7, 45, 80
18, 221039, Note_on_c, 7, 45, 0
18, 221160, Note_on_c, 7, 45, 80
18, 221279, Note_on_c, 7, 45, 0
18, 221280, Note_on_c, 7, 45, 80
18, 221519, Note_on_c, 7, 45, 0
18, 221640, Note_on_c, 7, 45, 80
18, 221759, Note_on_c, 7, 45, 0
18, 221760, Note_on_c, 7, 45, 80
18, 221999, Note_on_c, 7, 45, 0
18, 222120, Note_on_c, 7, 45, 80
18, 222239, Note_on_c, 7, 45, 0
18, 222240, Note_on_c, 7, 45, 80
18, 222479, Note_on_c, 7, 45, 0
18, 222600, Note_on_c, 7, 45, 80
18, 222719, Note_on_c, 7, 45, 0
18, 222720, Note_on_c, 7, 45, 80
18, 222959, Note_on_c, 7, 45, 0
18, 223080, Note_on_c, 7, 50, 80
18, 223199, Note_on_c, 7, 50, 0
18, 223200, Note_on_c, 7, 50, 80
18, 223439, Note_on_c, 7, 50, 0
18, 223560, Note_on_c, 7, 50, 80
18, 223679, Note_on_c, 7, 50, 0
18, 223680, Note_on_c, 7, 45, 80
18, 223919, Note_on_c, 7, 45, 0
18, 224040, Note_on_c, 7, 50, 80
18, 224159, Note_on_c, 7, 50, 0
18, 224160, Note_on_c, 7, 50, 80
18, 224399, Note_on_c, 7, 50, 0
18, 224520, Note_on_c, 7, 45, 80
18, 224639, Note_on_c, 7, 45, 0
18, 224640, Note_on_c, 7, 45, 80
18, 224879, Note_on_c, 7, 45, 0
18, 225000, Note_on_c, 7, 50, 80
18, 225119, Note_on_c, 7, 50, 0
18, 225120, Note_on_c, 7, 50, 80
18, 225359, Note_on_c, 7, 50, 0
18, 225480, Note_on_c, 7, 50, 80
18, 225599, Note_on_c, 7, 50, 0
18, 225600, Note_on_c, 7, 50, 80
18, 225839, Note_on_c, 7, 50, 0
18, 225960, Note_on_c, 7, 50, 80
18, 226079, Note_on_c, 7, 50, 0
18, 226080, Note_on_c, 7, 50, 80
18, 226319, Note_on_c, 7, 50, 0
18, 226560, Note_on_c, 7, 45, 80
18, 226799, Note_on_c, 7, 45, 0
18, 226920, Note_on_c, 7, 45, 80
18, 227039, Note_on_c, 7, 45, 0
18, 227040, Note_on_c, 7, 45, 80
18, 227279, Note_on_c, 7, 45, 0
18, 227400, Note_on_c, 7, 45, 80
18, 227519, Note_on_c, 7, 45, 0
18, 227520, Note_on_c, 7, 50, 80
18, 227759, Note_on_c, 7, 50, 0
18, 227880, Note_on_c, 7, 45, 80
18, 227999, Note_on_c, 7, 45, 0
18, 228000, Note_on_c, 7, 50, 80
18, 228239, Note_on_c, 7, 50, 0
18, 243840, Note_on_c, 7, 45, 80
18, 244079, Note_on_c, 7, 45, 0
18, 244560, Note_on_c, 7, 45, 80
18, 244679, Note_on_c, 7, 45, 0
18, 244680, Note_on_c, 7, 45, 80
18, 244799, Note_on_c, 7, 45, 0
18, 244800, Note_on_c, 7, 45, 80
18, 245039, Note_on_c, 7, 45, 0
18, 245520, Note_on_c, 7, 45, 80
18, 245639, Note_on_c, 7, 45, 0
18, 245640, Note_on_c, 7, 45, 80
18, 245759, Note_on_c, 7, 45, 0
18, 245760, Note_on_c, 7, 45, 80
18, 245999, Note_on_c, 7, 45, 0
18, 247200, Note_on_c, 7, 45, 80
18, 247439, Note_on_c, 7, 45, 0
18, 247440, Note_on_c, 7, 45, 80
18, 247559, Note_on_c, 7, 45, 0
18, 247560, Note_on_c, 7, 45, 80
18, 247679, Note_on_c, 7, 45, 0
18, 247680, Note_on_c, 7, 50, 80
18, 247919, Note_on_c, 7, 50, 0
18, 248400, Note_on_c, 7, 50, 80
18, 248639, Note_on_c, 7, 50, 0
18, 248640, Note_on_c, 7, 45, 80
18, 248879, Note_on_c, 7, 45, 0
18, 249360, Note_on_c, 7, 45, 53
18, 249479, Note_on_c, 7, 45, 0
18, 249480, Note_on_c, 7, 45, 49
18, 249599, Note_on_c, 7, 45, 0
18, 249600, Note_on_c, 7, 45, 44
18, 249839, Note_on_c, 7, 45, 0
18, 250320, Note_on_c, 7, 45, 44
18, 250439, Note_on_c, 7, 45, 0
18, 250440, Note_on_c, 7, 45, 44
18, 250559, Note_on_c, 7, 45, 0
18, 250560, Note_on_c, 7, 45, 44
18, 250799, Note_on_c, 7, 45, 0
18, 250920, Note_on_c, 7, 45, 44
18, 251039, Note_on_c, 7, 45, 0
18, 251040, Note_on_c, 7, 50, 44
18, 251279, Note_on_c, 7, 50, 0
18, 251520, Note_on_c, 7, 50, 32
18, 251759, Note_on_c, 7, 50, 0
18, 252240, Note_on_c, 7, 50, 32
18, 252359, Note_on_c, 7, 50, 0
18, 252360, Note_on_c, 7, 50, 32
18, 252479, Note_on_c, 7, 50, 0
18, 252480, Note_on_c, 7, 50, 32
18, 252719, Note_on_c, 7, 50, 0
18, 253200, Note_on_c, 7, 50, 32
18, 253319, Note_on_c, 7, 50, 0
18, 253320, Note_on_c, 7, 50, 32
18, 253439, Note_on_c, 7, 50, 0
18, 253440, Note_on_c, 7, 45, 32
18, 253679, Note_on_c, 7, 45, 0
18, 254160, Note_on_c, 7, 45, 32
18, 254279, Note_on_c, 7, 45, 0
18, 254280, Note_on_c, 7, 45, 32
18, 254399, Note_on_c, 7, 45, 0
18, 254400, Note_on_c, 7, 50, 32
18, 254519, Note_on_c, 7, 50, 0
18, 254640, Note_on_c, 7, 45, 32
18, 254759, Note_on_c, 7, 45, 0
18, 254880, Note_on_c, 7, 50, 32
18, 254999, Note_on_c, 7, 50, 0
18, 262800, Note_on_c, 7, 45, 44
18, 263039, Note_on_c, 7, 45, 0
18, 263040, Note_on_c, 7, 45, 44
18, 263249, Note_on_c, 7, 45, 0
18, 263280, Note_on_c, 7, 45, 44
18, 263489, Note_on_c, 7, 45, 0
18, 263520, Note_on_c, 7, 45, 44
18, 263729, Note_on_c, 7, 45, 0
18, 263760, Note_on_c, 7, 45, 44
18, 263939, Note_on_c, 7, 45, 0
18, 264000, Note_on_c, 7, 45, 44
18, 264209, Note_on_c, 7, 45, 0
18, 264240, Note_on_c, 7, 45, 44
18, 264449, Note_on_c, 7, 45, 0
18, 264480, Note_on_c, 7, 45, 44
18, 264689, Note_on_c, 7, 45, 0
18, 264720, Note_on_c, 7, 45, 44
18, 264899, Note_on_c, 7, 45, 0
18, 264960, Note_on_c, 7, 45, 44
18, 265169, Note_on_c, 7, 45, 0
18, 265200, Note_on_c, 7, 45, 44
18, 265409, Note_on_c, 7, 45, 0
18, 265440, Note_on_c, 7, 45, 44
18, 265649, Note_on_c, 7, 45, 0
18, 265680, Note_on_c, 7, 45, 44
18, 265859, Note_on_c, 7, 45, 0
18, 265920, Note_on_c, 7, 45, 44
18, 266129, Note_on_c, 7, 45, 0
18, 266160, Note_on_c, 7, 45, 44
18, 266369, Note_on_c, 7, 45, 0
18, 266400, Note_on_c, 7, 45, 44
18, 266609, Note_on_c, 7, 45, 0
18, 266640, Note_on_c, 7, 45, 44
18, 266819, Note_on_c, 7, 45, 0
18, 266880, Note_on_c, 7, 45, 44
18, 267089, Note_on_c, 7, 45, 0
18, 267120, Note_on_c, 7, 45, 44
18, 267329, Note_on_c, 7, 45, 0
18, 267360, Note_on_c, 7, 45, 44
18, 267569, Note_on_c, 7, 45, 0
18, 267600, Note_on_c, 7, 45, 44
18, 267779, Note_on_c, 7, 45, 0
18, 267840, Note_on_c, 7, 45, 44
18, 268049, Note_on_c, 7, 45, 0
18, 268080, Note_on_c, 7, 45, 44
18, 268289, Note_on_c, 7, 45, 0
18, 268320, Note_on_c, 7, 45, 44
18, 268529, Note_on_c, 7, 45, 0
18, 268560, Note_on_c, 7, 45, 44
18, 268739, Note_on_c, 7, 45, 0
18, 268800, Note_on_c, 7, 45, 44
18, 269009, Note_on_c, 7, 45, 0
18, 269040, Note_on_c, 7, 45, 44
18, 269249, Note_on_c, 7, 45, 0
18, 269280, Note_on_c, 7, 45, 44
18, 269489, Note_on_c, 7, 45, 0
18, 269520, Note_on_c, 7, 45, 44
18, 269699, Note_on_c, 7, 45, 0
18, 269760, Note_on_c, 7, 45, 44
18, 269999, Note_on_c, 7, 45, 0
18, 270480, Note_on_c, 7, 45, 80
18, 270719, Note_on_c, 7, 45, 0
18, 270720, Note_on_c, 7, 45, 80
18, 270929, Note_on_c, 7, 45, 0
18, 270960, Note_on_c, 7, 45, 80
18, 271169, Note_on_c, 7, 45, 0
18, 271200, Note_on_c, 7, 45, 80
18, 271409, Note_on_c, 7, 45, 0
18, 271440, Note_on_c, 7, 45, 80
18, 271619, Note_on_c, 7, 45, 0
18, 271680, Note_on_c, 7, 45, 80
18, 271889, Note_on_c, 7, 45, 0
18, 271920, Note_on_c, 7, 45, 80
18, 272129, Note_on_c, 7, 45, 0
18, 272160, Note_on_c, 7, 45, 80
18, 272369, Note_on_c, 7, 45, 0
18, 272400, Note_on_c, 7, 45, 80
18, 272579, Note_on_c, 7, 45, 0
18, 272640, Note_on_c, 7, 45, 80
18, 272849, Note_on_c, 7, 45, 0
18, 272880, Note_on_c, 7, 45, 80
18, 273089, Note_on_c, 7, 45, 0
18, 273120, Note_on_c, 7, 45, 80
18, 273329, Note_on_c, 7, 45, 0
18, 273360, Note_on_c, 7, 45, 80
18, 273539, Note_on_c, 7, 45, 0
18, 273600, Note_on_c, 7, 45, 80
18, 273809, Note_on_c, 7, 45, 0
18, 273840, Note_on_c, 7, 45, 80
18, 274049, Note_on_c, 7, 45, 0
18, 274080, Note_on_c, 7, 45, 80
18, 274289, Note_on_c, 7, 45, 0
18, 274320, Note_on_c, 7, 45, 80
18, 274499, Note_on_c, 7, 45, 0
18, 274560, Note_on_c, 7, 45, 80
18, 274769, Note_on_c, 7, 45, 0
18, 274800, Note_on_c, 7, 45, 80
18, 275009, Note_on_c, 7, 45, 0
18, 275040, Note_on_c, 7, 45, 80
18, 275249, Note_on_c, 7, 45, 0
18, 275280, Note_on_c, 7, 45, 80
18, 275459, Note_on_c, 7, 45, 0
18, 275520, Note_on_c, 7, 45, 80
18, 275759, Note_on_c, 7, 45, 0
18, 275760, Note_on_c, 7, 45, 80
18, 275999, Note_on_c, 7, 45, 0
18, 276000, Note_on_c, 7, 45, 80
18, 276239, Note_on_c, 7, 45, 0
18, 276240, Note_on_c, 7, 45, 80
18, 276479, Note_on_c, 7, 45, 0
18, 276480, Note_on_c, 7, 45, 80
18, 276719, Note_on_c, 7, 45, 0
18, 276720, Note_on_c, 7, 45, 80
18, 276959, Note_on_c, 7, 45, 0
18, 276960, Note_on_c, 7, 45, 80
18, 277199, Note_on_c, 7, 45, 0
18, 277200, Note_on_c, 7, 50, 80
18, 277439, Note_on_c, 7, 50, 0
18, 277440, Note_on_c, 7, 50, 80
18, 277679, Note_on_c, 7, 50, 0
18, 277800, Note_on_c, 7, 50, 80
18, 277919, Note_on_c, 7, 50, 0
18, 277920, Note_on_c, 7, 50, 80
18, 278159, Note_on_c, 7, 50, 0
18, 278160, Note_on_c, 7, 50, 80
18, 278399, Note_on_c, 7, 50, 0
18, 278400, Note_on_c, 7, 50, 80
18, 278639, Note_on_c, 7, 50, 0
18, 278880, Note_on_c, 7, 50, 80
18, 279119, Note_on_c, 7, 50, 0
18, 279360, Note_on_c, 7, 50, 80
18, 279599, Note_on_c, 7, 50, 0
18, 279840, Note_on_c, 7, 50, 80
18, 280079, Note_on_c, 7, 50, 0
18, 280320, Note_on_c, 7, 45, 80
18, 280559, Note_on_c, 7, 45, 0
18, 280800, Note_on_c, 7, 45, 80
18, 281039, Note_on_c, 7, 45, 0
18, 281280, Note_on_c, 7, 50, 80
18, 281519, Note_on_c, 7, 50, 0
18, 283200, Note_on_c, 7, 45, 92
18, 283259, Note_on_c, 7, 45, 0
18, 283260, Note_on_c, 7, 45, 92
18, 283319, Note_on_c, 7, 45, 0
18, 283320, Note_on_c, 7, 45, 92
18, 283379, Note_on_c, 7, 45, 0
18, 283380, Note_on_c, 7, 45, 92
18, 283439, Note_on_c, 7, 45, 0
18, 283440, Note_on_c, 7, 45, 92
18, 283499, Note_on_c, 7, 45, 0
18, 283500, Note_on_c, 7, 45, 92
18, 283559, Note_on_c, 7, 45, 0
18, 283560, Note_on_c, 7, 45, 92
18, 283619, Note_on_c, 7, 45, 0
18, 283620, Note_on_c, 7, 45, 92
18, 283679, Note_on_c, 7, 45, 0
18, 283680, Note_on_c, 7, 45, 92
18, 283739, Note_on_c, 7, 45, 0
18, 283740, Note_on_c, 7, 45, 92
18, 283799, Note_on_c, 7, 45, 0
18, 283800, Note_on_c, 7, 45, 92
18, 283859, Note_on_c, 7, 45, 0
18, 283860, Note_on_c, 7, 45, 92
18, 283919, Note_on_c, 7, 45, 0
18, 283920, Note_on_c, 7, 45, 92
18, 284159, Note_on_c, 7, 45, 0
18, 285120, Note_on_c, 7, 45, 92
18, 285179, Note_on_c, 7, 45, 0
18, 285180, Note_on_c, 7, 45, 92
18, 285239, Note_on_c, 7, 45, 0
18, 285240, Note_on_c, 7, 45, 92
18, 285299, Note_on_c, 7, 45, 0
18, 285300, Note_on_c, 7, 45, 92
18, 285359, Note_on_c, 7, 45, 0
18, 285360, Note_on_c, 7, 45, 92
18, 285419, Note_on_c, 7, 45, 0
18, 285420, Note_on_c, 7, 45, 92
18, 285479, Note_on_c, 7, 45, 0
18, 285480, Note_on_c, 7, 45, 92
18, 285539, Note_on_c, 7, 45, 0
18, 285540, Note_on_c, 7, 45, 92
18, 285599, Note_on_c, 7, 45, 0
18, 285600, Note_on_c, 7, 45, 92
18, 285659, Note_on_c, 7, 45, 0
18, 285660, Note_on_c, 7, 45, 92
18, 285719, Note_on_c, 7, 45, 0
18, 285720, Note_on_c, 7, 45, 92
18, 285779, Note_on_c, 7, 45, 0
18, 285780, Note_on_c, 7, 45, 92
18, 285839, Note_on_c, 7, 45, 0
18, 285840, Note_on_c, 7, 45, 92
18, 285899, Note_on_c, 7, 45, 0
18, 285900, Note_on_c, 7, 45, 92
18, 285959, Note_on_c, 7, 45, 0
18, 285960, Note_on_c, 7, 45, 92
18, 286019, Note_on_c, 7, 45, 0
18, 286020, Note_on_c, 7, 45, 92
18, 286079, Note_on_c, 7, 45, 0
18, 286080, Note_on_c, 7, 45, 92
18, 286139, Note_on_c, 7, 45, 0
18, 286140, Note_on_c, 7, 45, 92
18, 286199, Note_on_c, 7, 45, 0
18, 286200, Note_on_c, 7, 45, 92
18, 286259, Note_on_c, 7, 45, 0
18, 286260, Note_on_c, 7, 45, 92
18, 286319, Note_on_c, 7, 45, 0
18, 286320, Note_on_c, 7, 45, 92
18, 286379, Note_on_c, 7, 45, 0
18, 286380, Note_on_c, 7, 45, 92
18, 286439, Note_on_c, 7, 45, 0
18, 286560, Note_on_c, 7, 45, 92
18, 286619, Note_on_c, 7, 45, 0
18, 286620, Note_on_c, 7, 45, 92
18, 286679, Note_on_c, 7, 45, 0
18, 286680, Note_on_c, 7, 45, 92
18, 286739, Note_on_c, 7, 45, 0
18, 286740, Note_on_c, 7, 45, 92
18, 286799, Note_on_c, 7, 45, 0
18, 286800, Note_on_c, 7, 45, 92
18, 286859, Note_on_c, 7, 45, 0
18, 286860, Note_on_c, 7, 45, 92
18, 286919, Note_on_c, 7, 45, 0
18, 287040, Note_on_c, 7, 45, 92
18, 287069, Note_on_c, 7, 45, 0
18, 287070, Note_on_c, 7, 45, 92
18, 287099, Note_on_c, 7, 45, 0
18, 287100, Note_on_c, 7, 45, 91
18, 287129, Note_on_c, 7, 45, 0
18, 287130, Note_on_c, 7, 45, 90
18, 287159, Note_on_c, 7, 45, 0
18, 287160, Note_on_c, 7, 45, 89
18, 287189, Note_on_c, 7, 45, 0
18, 287190, Note_on_c, 7, 45, 88
18, 287219, Note_on_c, 7, 45, 0
18, 287220, Note_on_c, 7, 45, 87
18, 287249, Note_on_c, 7, 45, 0
18, 287250, Note_on_c, 7, 45, 86
18, 287279, Note_on_c, 7, 45, 0
18, 287280, Note_on_c, 7, 45, 85
18, 287309, Note_on_c, 7, 45, 0
18, 287310, Note_on_c, 7, 45, 84
18, 287339, Note_on_c, 7, 45, 0
18, 287340, Note_on_c, 7, 45, 83
18, 287369, Note_on_c, 7, 45, 0
18, 287370, Note_on_c, 7, 45, 82
18, 287399, Note_on_c, 7, 45, 0
18, 287400, Note_on_c, 7, 45, 81
18, 287429, Note_on_c, 7, 45, 0
18, 287430, Note_on_c, 7, 45, 80
18, 287459, Note_on_c, 7, 45, 0
18, 287460, Note_on_c, 7, 45, 79
18, 287489, Note_on_c, 7, 45, 0
18, 287490, Note_on_c, 7, 45, 78
18, 287519, Note_on_c, 7, 45, 0
18, 287520, Note_on_c, 7, 45, 77
18, 287549, Note_on_c, 7, 45, 0
18, 287550, Note_on_c, 7, 45, 77
18, 287579, Note_on_c, 7, 45, 0
18, 287580, Note_on_c, 7, 45, 76
18, 287609, Note_on_c, 7, 45, 0
18, 287610, Note_on_c, 7, 45, 75
18, 287639, Note_on_c, 7, 45, 0
18, 287640, Note_on_c, 7, 45, 74
18, 287669, Note_on_c, 7, 45, 0
18, 287670, Note_on_c, 7, 45, 73
18, 287699, Note_on_c, 7, 45, 0
18, 287700, Note_on_c, 7, 45, 72
18, 287729, Note_on_c, 7, 45, 0
18, 287730, Note_on_c, 7, 45, 71
18, 287759, Note_on_c, 7, 45, 0
18, 287760, Note_on_c, 7, 45, 70
18, 287789, Note_on_c, 7, 45, 0
18, 287790, Note_on_c, 7, 45, 69
18, 287819, Note_on_c, 7, 45, 0
18, 287820, Note_on_c, 7, 45, 68
18, 287849, Note_on_c, 7, 45, 0
18, 287850, Note_on_c, 7, 45, 67
18, 287879, Note_on_c, 7, 45, 0
18, 287880, Note_on_c, 7, 45, 66
18, 287909, Note_on_c, 7, 45, 0
18, 287910, Note_on_c, 7, 45, 65
18, 287939, Note_on_c, 7, 45, 0
18, 287940, Note_on_c, 7, 45, 64
18, 287969, Note_on_c, 7, 45, 0
18, 287970, Note_on_c, 7, 45, 63
18, 287999, Note_on_c, 7, 45, 0
18, 288000, Note_on_c, 7, 45, 62
18, 288029, Note_on_c, 7, 45, 0
18, 288030, Note_on_c, 7, 45, 62
18, 288059, Note_on_c, 7, 45, 0
18, 288060, Note_on_c, 7, 45, 61
18, 288089, Note_on_c, 7, 45, 0
18, 288090, Note_on_c, 7, 45, 60
18, 288119, Note_on_c, 7, 45, 0
18, 288120, Note_on_c, 7, 45, 59
18, 288149, Note_on_c, 7, 45, 0
18, 288150, Note_on_c, 7, 45, 58
18, 288179, Note_on_c, 7, 45, 0
18, 288180, Note_on_c, 7, 45, 57
18, 288209, Note_on_c, 7, 45, 0
18, 288210, Note_on_c, 7, 45, 56
18, 288239, Note_on_c, 7, 45, 0
18, 288240, Note_on_c, 7, 45, 55
18, 288269, Note_on_c, 7, 45, 0
18, 288270, Note_on_c, 7, 45, 54
18, 288299, Note_on_c, 7, 45, 0
18, 288300, Note_on_c, 7, 45, 53
18, 288329, Note_on_c, 7, 45, 0
18, 288330, Note_on_c, 7, 45, 52
18, 288359, Note_on_c, 7, 45, 0
18, 288360, Note_on_c, 7, 45, 51
18, 288389, Note_on_c, 7, 45, 0
18, 288390, Note_on_c, 7, 45, 50
18, 288419, Note_on_c, 7, 45, 0
18, 288420, Note_on_c, 7, 45, 49
18, 288449, Note_on_c, 7, 45, 0
18, 288450, Note_on_c, 7, 45, 48
18, 288479, Note_on_c, 7, 45, 0
18, 288480, Note_on_c, 7, 45, 47
18, 288509, Note_on_c, 7, 45, 0
18, 288510, Note_on_c, 7, 45, 47
18, 288539, Note_on_c, 7, 45, 0
18, 288540, Note_on_c, 7, 45, 46
18, 288569, Note_on_c, 7, 45, 0
18, 288570, Note_on_c, 7, 45, 45
18, 288599, Note_on_c, 7, 45, 0
18, 288600, Note_on_c, 7, 45, 44
18, 288629, Note_on_c, 7, 45, 0
18, 288630, Note_on_c, 7, 45, 43
18, 288659, Note_on_c, 7, 45, 0
18, 288660, Note_on_c, 7, 45, 42
18, 288689, Note_on_c, 7, 45, 0
18, 288690, Note_on_c, 7, 45, 41
18, 288719, Note_on_c, 7, 45, 0
18, 288720, Note_on_c, 7, 45, 40
18, 288749, Note_on_c, 7, 45, 0
18, 288750, Note_on_c, 7, 45, 39
18, 288779, Note_on_c, 7, 45, 0
18, 288780, Note_on_c, 7, 45, 38
18, 288809, Note_on_c, 7, 45, 0
18, 288810, Note_on_c, 7, 45, 37
18, 288839, Note_on_c, 7, 45, 0
18, 288840, Note_on_c, 7, 45, 36
18, 288869, Note_on_c, 7, 45, 0
18, 288870, Note_on_c, 7, 45, 35
18, 288899, Note_on_c, 7, 45, 0
18, 288900, Note_on_c, 7, 45, 34
18, 288929, Note_on_c, 7, 45, 0
18, 288930, Note_on_c, 7, 45, 33
18, 288959, Note_on_c, 7, 45, 0
18, 441600, Note_on_c, 7, 50, 92
18, 441839, Note_on_c, 7, 50, 0
18, 441960, Note_on_c, 7, 50, 92
18, 442199, Note_on_c, 7, 50, 0
18, 442200, Note_on_c, 7, 50, 92
18, 442319, Note_on_c, 7, 50, 0
18, 442320, Note_on_c, 7, 50, 92
18, 442559, Note_on_c, 7, 50, 0
18, 442680, Note_on_c, 7, 50, 92
18, 442919, Note_on_c, 7, 50, 0
18, 442920, Note_on_c, 7, 50, 92
18, 443039, Note_on_c, 7, 50, 0
18, 443040, Note_on_c, 7, 45, 92
18, 443279, Note_on_c, 7, 45, 0
18, 443400, Note_on_c, 7, 45, 92
18, 443639, Note_on_c, 7, 45, 0
18, 443640, Note_on_c, 7, 45, 92
18, 443759, Note_on_c, 7, 45, 0
18, 443760, Note_on_c, 7, 45, 92
18, 443999, Note_on_c, 7, 45, 0
18, 444120, Note_on_c, 7, 45, 92
18, 444359, Note_on_c, 7, 45, 0
18, 444360, Note_on_c, 7, 45, 92
18, 444479, Note_on_c, 7, 45, 0
18, 444480, Note_on_c, 7, 50, 92
18, 444719, Note_on_c, 7, 50, 0
18, 444840, Note_on_c, 7, 45, 92
18, 445079, Note_on_c, 7, 45, 0
18, 445080, Note_on_c, 7, 45, 92
18, 445199, Note_on_c, 7, 45, 0
18, 445200, Note_on_c, 7, 45, 92
18, 445439, Note_on_c, 7, 45, 0
18, 445560, Note_on_c, 7, 45, 92
18, 445799, Note_on_c, 7, 45, 0
18, 445800, Note_on_c, 7, 45, 92
18, 445919, Note_on_c, 7, 45, 0
18, 445920, Note_on_c, 7, 45, 92
18, 446159, Note_on_c, 7, 45, 0
18, 446280, Note_on_c, 7, 45, 92
18, 446519, Note_on_c, 7, 45, 0
18, 446520, Note_on_c, 7, 45, 92
18, 446639, Note_on_c, 7, 45, 0
18, 446640, Note_on_c, 7, 45, 92
18, 446879, Note_on_c, 7, 45, 0
18, 446880, Note_on_c, 7, 45, 92
18, 446999, Note_on_c, 7, 45, 0
18, 447000, Note_on_c, 7, 45, 92
18, 447239, Note_on_c, 7, 45, 0
18, 447240, Note_on_c, 7, 45, 92
18, 447359, Note_on_c, 7, 45, 0
18, 447360, Note_on_c, 7, 50, 92
18, 447599, Note_on_c, 7, 50, 0
18, 447720, Note_on_c, 7, 50, 92
18, 447959, Note_on_c, 7, 50, 0
18, 447960, Note_on_c, 7, 50, 92
18, 448079, Note_on_c, 7, 50, 0
18, 448080, Note_on_c, 7, 50, 92
18, 448319, Note_on_c, 7, 50, 0
18, 448440, Note_on_c, 7, 50, 92
18, 448679, Note_on_c, 7, 50, 0
18, 448680, Note_on_c, 7, 50, 92
18, 448799, Note_on_c, 7, 50, 0
18, 448800, Note_on_c, 7, 50, 92
18, 449039, Note_on_c, 7, 50, 0
18, 449160, Note_on_c, 7, 50, 92
18, 449399, Note_on_c, 7, 50, 0
18, 449400, Note_on_c, 7, 50, 92
18, 449519, Note_on_c, 7, 50, 0
18, 449520, Note_on_c, 7, 50, 92
18, 449759, Note_on_c, 7, 50, 0
18, 449880, Note_on_c, 7, 50, 92
18, 450119, Note_on_c, 7, 50, 0
18, 450120, Note_on_c, 7, 50, 92
18, 450239, Note_on_c, 7, 50, 0
18, 450240, Note_on_c, 7, 45, 92
18, 450479, Note_on_c, 7, 45, 0
18, 450600, Note_on_c, 7, 45, 92
18, 450839, Note_on_c, 7, 45, 0
18, 450840, Note_on_c, 7, 45, 92
18, 450959, Note_on_c, 7, 45, 0
18, 450960, Note_on_c, 7, 45, 92
18, 451199, Note_on_c, 7, 45, 0
18, 451320, Note_on_c, 7, 45, 92
18, 451559, Note_on_c, 7, 45, 0
18, 451560, Note_on_c, 7, 45, 92
18, 451679, Note_on_c, 7, 45, 0
18, 451680, Note_on_c, 7, 45, 92
18, 451919, Note_on_c, 7, 45, 0
18, 452040, Note_on_c, 7, 45, 92
18, 452279, Note_on_c, 7, 45, 0
18, 452280, Note_on_c, 7, 45, 92
18, 452399, Note_on_c, 7, 45, 0
18, 452400, Note_on_c, 7, 50, 92
18, 452639, Note_on_c, 7, 50, 0
18, 452640, Note_on_c, 7, 50, 92
18, 452759, Note_on_c, 7, 50, 0
18, 452760, Note_on_c, 7, 50, 92
18, 452999, Note_on_c, 7, 50, 0
18, 453000, Note_on_c, 7, 50, 92
18, 453119, Note_on_c, 7, 50, 0
18, 453120, Note_on_c, 7, 45, 92
18, 453359, Note_on_c, 7, 45, 0
18, 453480, Note_on_c, 7, 45, 92
18, 453719, Note_on_c, 7, 45, 0
18, 453720, Note_on_c, 7, 45, 92
18, 453839, Note_on_c, 7, 45, 0
18, 453840, Note_on_c, 7, 45, 92
18, 454079, Note_on_c, 7, 45, 0
18, 454200, Note_on_c, 7, 45, 92
18, 454439, Note_on_c, 7, 45, 0
18, 454440, Note_on_c, 7, 45, 92
18, 454559, Note_on_c, 7, 45, 0
18, 454560, Note_on_c, 7, 45, 92
18, 454799, Note_on_c, 7, 45, 0
18, 454920, Note_on_c, 7, 45, 92
18, 455159, Note_on_c, 7, 45, 0
18, 455160, Note_on_c, 7, 45, 92
18, 455279, Note_on_c, 7, 45, 0
18, 455280, Note_on_c, 7, 45, 92
18, 455519, Note_on_c, 7, 45, 0
18, 455640, Note_on_c, 7, 45, 92
18, 455879, Note_on_c, 7, 45, 0
18, 455880, Note_on_c, 7, 45, 92
18, 455999, Note_on_c, 7, 45, 0
18, 456000, Note_on_c, 7, 45, 92
18, 456239, Note_on_c, 7, 45, 0
18, 456360, Note_on_c, 7, 45, 92
18, 456599, Note_on_c, 7, 45, 0
18, 458160, Note_on_c, 7, 45, 92
18, 458399, Note_on_c, 7, 45, 0
18, 458520, Note_on_c, 7, 45, 92
18, 458759, Note_on_c, 7, 45, 0
18, 458760, Note_on_c, 7, 45, 92
18, 458879, Note_on_c, 7, 45, 0
18, 458880, Note_on_c, 7, 50, 92
18, 459119, Note_on_c, 7, 50, 0
18, 459240, Note_on_c, 7, 50, 92
18, 459479, Note_on_c, 7, 50, 0
18, 459480, Note_on_c, 7, 50, 92
18, 459599, Note_on_c, 7, 50, 0
18, 459600, Note_on_c, 7, 50, 92
18, 459839, Note_on_c, 7, 50, 0
18, 459960, Note_on_c, 7, 50, 92
18, 460199, Note_on_c, 7, 50, 0
18, 460200, Note_on_c, 7, 50, 92
18, 460319, Note_on_c, 7, 50, 0
18, 460320, Note_on_c, 7, 50, 92
18, 460559, Note_on_c, 7, 50, 0
18, 460680, Note_on_c, 7, 50, 92
18, 460919, Note_on_c, 7, 50, 0
18, 460920, Note_on_c, 7, 50, 92
18, 461039, Note_on_c, 7, 50, 0
18, 461040, Note_on_c, 7, 50, 92
18, 461279, Note_on_c, 7, 50, 0
18, 461400, Note_on_c, 7, 50, 92
18, 461639, Note_on_c, 7, 50, 0
18, 461640, Note_on_c, 7, 50, 92
18, 461759, Note_on_c, 7, 50, 0
18, 461760, Note_on_c, 7, 45, 92
18, 461999, Note_on_c, 7, 45, 0
18, 462120, Note_on_c, 7, 45, 92
18, 462359, Note_on_c, 7, 45, 0
18, 462360, Note_on_c, 7, 45, 92
18, 462479, Note_on_c, 7, 45, 0
18, 462480, Note_on_c, 7, 45, 92
18, 462719, Note_on_c, 7, 45, 0
18, 462840, Note_on_c, 7, 45, 92
18, 463079, Note_on_c, 7, 45, 0
18, 463080, Note_on_c, 7, 45, 92
18, 463199, Note_on_c, 7, 45, 0
18, 463200, Note_on_c, 7, 45, 92
18, 463439, Note_on_c, 7, 45, 0
18, 463560, Note_on_c, 7, 45, 92
18, 463799, Note_on_c, 7, 45, 0
18, 463800, Note_on_c, 7, 45, 92
18, 463919, Note_on_c, 7, 45, 0
18, 463920, Note_on_c, 7, 50, 92
18, 464159, Note_on_c, 7, 50, 0
18, 464160, Note_on_c, 7, 50, 92
18, 464279, Note_on_c, 7, 50, 0
18, 464280, Note_on_c, 7, 50, 92
18, 464519, Note_on_c, 7, 50, 0
18, 464520, Note_on_c, 7, 50, 92
18, 464639, Note_on_c, 7, 50, 0
18, 464640, Note_on_c, 7, 45, 92
18, 464879, Note_on_c, 7, 45, 0
18, 465000, Note_on_c, 7, 45, 92
18, 465239, Note_on_c, 7, 45, 0
18, 465240, Note_on_c, 7, 45, 92
18, 465359, Note_on_c, 7, 45, 0
18, 465360, Note_on_c, 7, 45, 92
18, 465599, Note_on_c, 7, 45, 0
18, 465720, Note_on_c, 7, 45, 92
18, 465959, Note_on_c, 7, 45, 0
18, 465960, Note_on_c, 7, 45, 92
18, 466079, Note_on_c, 7, 45, 0
18, 466080, Note_on_c, 7, 45, 92
18, 466319, Note_on_c, 7, 45, 0
18, 466440, Note_on_c, 7, 45, 92
18, 466679, Note_on_c, 7, 45, 0
18, 466680, Note_on_c, 7, 45, 92
18, 466799, Note_on_c, 7, 45, 0
18, 466800, Note_on_c, 7, 45, 92
18, 467039, Note_on_c, 7, 45, 0
18, 467160, Note_on_c, 7, 45, 92
18, 467399, Note_on_c, 7, 45, 0
18, 467400, Note_on_c, 7, 45, 92
18, 467519, Note_on_c, 7, 45, 0
18, 467520, Note_on_c, 7, 45, 92
18, 467759, Note_on_c, 7, 45, 0
18, 467880, Note_on_c, 7, 45, 92
18, 468119, Note_on_c, 7, 45, 0
18, 469680, Note_on_c, 7, 45, 92
18, 469919, Note_on_c, 7, 45, 0
18, 470040, Note_on_c, 7, 45, 92
18, 470279, Note_on_c, 7, 45, 0
18, 470280, Note_on_c, 7, 45, 92
18, 470399, Note_on_c, 7, 45, 0
18, 470400, Note_on_c, 7, 50, 92
18, 470639, Note_on_c, 7, 50, 0
18, 470760, Note_on_c, 7, 50, 92
18, 470999, Note_on_c, 7, 50, 0
18, 471000, Note_on_c, 7, 50, 92
18, 471119, Note_on_c, 7, 50, 0
18, 471120, Note_on_c, 7, 50, 92
18, 471359, Note_on_c, 7, 50, 0
18, 471480, Note_on_c, 7, 50, 92
18, 471719, Note_on_c, 7, 50, 0
18, 471720, Note_on_c, 7, 50, 92
18, 471839, Note_on_c, 7, 50, 0
18, 471840, Note_on_c, 7, 50, 92
18, 472079, Note_on_c, 7, 50, 0
18, 472200, Note_on_c, 7, 50, 92
18, 472439, Note_on_c, 7, 50, 0
18, 472440, Note_on_c, 7, 50, 92
18, 472559, Note_on_c, 7, 50, 0
18, 472560, Note_on_c, 7, 50, 92
18, 472799, Note_on_c, 7, 50, 0
18, 472920, Note_on_c, 7, 50, 92
18, 473159, Note_on_c, 7, 50, 0
18, 473160, Note_on_c, 7, 50, 92
18, 473279, Note_on_c, 7, 50, 0
18, 473280, Note_on_c, 7, 45, 92
18, 473519, Note_on_c, 7, 45, 0
18, 473640, Note_on_c, 7, 45, 92
18, 473879, Note_on_c, 7, 45, 0
18, 473880, Note_on_c, 7, 45, 92
18, 473999, Note_on_c, 7, 45, 0
18, 474000, Note_on_c, 7, 45, 92
18, 474239, Note_on_c, 7, 45, 0
18, 474360, Note_on_c, 7, 45, 92
18, 474599, Note_on_c, 7, 45, 0
18, 474600, Note_on_c, 7, 45, 92
18, 474719, Note_on_c, 7, 45, 0
18, 474720, Note_on_c, 7, 45, 92
18, 474959, Note_on_c, 7, 45, 0
18, 475080, Note_on_c, 7, 45, 92
18, 475319, Note_on_c, 7, 45, 0
18, 475320, Note_on_c, 7, 45, 92
18, 475439, Note_on_c, 7, 45, 0
18, 475440, Note_on_c, 7, 50, 92
18, 475679, Note_on_c, 7, 50, 0
18, 475800, Note_on_c, 7, 50, 92
18, 476039, Note_on_c, 7, 50, 0
18, 476040, Note_on_c, 7, 50, 92
18, 476159, Note_on_c, 7, 50, 0
18, 476160, Note_on_c, 7, 50, 104
18, 476399, Note_on_c, 7, 50, 0
18, 476520, Note_on_c, 7, 50, 92
18, 476759, Note_on_c, 7, 50, 0
18, 476760, Note_on_c, 7, 50, 92
18, 476879, Note_on_c, 7, 50, 0
18, 476880, Note_on_c, 7, 50, 92
18, 477119, Note_on_c, 7, 50, 0
18, 477240, Note_on_c, 7, 50, 92
18, 477479, Note_on_c, 7, 50, 0
18, 477480, Note_on_c, 7, 50, 92
18, 477599, Note_on_c, 7, 50, 0
18, 477600, Note_on_c, 7, 50, 104
18, 477839, Note_on_c, 7, 50, 0
18, 477960, Note_on_c, 7, 50, 92
18, 478199, Note_on_c, 7, 50, 0
18, 478200, Note_on_c, 7, 50, 92
18, 478319, Note_on_c, 7, 50, 0
18, 478320, Note_on_c, 7, 50, 92
18, 478559, Note_on_c, 7, 50, 0
18, 560160, Note_on_c, 7, 45, 32
18, 560219, Note_on_c, 7, 45, 0
18, 560220, Note_on_c, 7, 45, 32
18, 560279, Note_on_c, 7, 45, 0
18, 560280, Note_on_c, 7, 45, 32
18, 560339, Note_on_c, 7, 45, 0
18, 560340, Note_on_c, 7, 45, 32
18, 560399, Note_on_c, 7, 45, 0
18, 560400, Note_on_c, 7, 45, 32
18, 560459, Note_on_c, 7, 45, 0
18, 560460, Note_on_c, 7, 45, 32
18, 560519, Note_on_c, 7, 45, 0
18, 560520, Note_on_c, 7, 45, 32
18, 560579, Note_on_c, 7, 45, 0
18, 560580, Note_on_c, 7, 45, 32
18, 560639, Note_on_c, 7, 45, 0
18, 560640, Note_on_c, 7, 45, 32
18, 560699, Note_on_c, 7, 45, 0
18, 560700, Note_on_c, 7, 45, 32
18, 560759, Note_on_c, 7, 45, 0
18, 560760, Note_on_c, 7, 45, 32
18, 560819, Note_on_c, 7, 45, 0
18, 560820, Note_on_c, 7, 45, 32
18, 560879, Note_on_c, 7, 45, 0
18, 560880, Note_on_c, 7, 45, 32
18, 560939, Note_on_c, 7, 45, 0
18, 560940, Note_on_c, 7, 45, 32
18, 560999, Note_on_c, 7, 45, 0
18, 561000, Note_on_c, 7, 45, 32
18, 561059, Note_on_c, 7, 45, 0
18, 561060, Note_on_c, 7, 45, 32
18, 561119, Note_on_c, 7, 45, 0
18, 561120, Note_on_c, 7, 45, 32
18, 561179, Note_on_c, 7, 45, 0
18, 561180, Note_on_c, 7, 45, 32
18, 561239, Note_on_c, 7, 45, 0
18, 561240, Note_on_c, 7, 45, 32
18, 561299, Note_on_c, 7, 45, 0
18, 561300, Note_on_c, 7, 45, 32
18, 561359, Note_on_c, 7, 45, 0
18, 561360, Note_on_c, 7, 45, 32
18, 561419, Note_on_c, 7, 45, 0
18, 561420, Note_on_c, 7, 45, 32
18, 561479, Note_on_c, 7, 45, 0
18, 561480, Note_on_c, 7, 45, 32
18, 561539, Note_on_c, 7, 45, 0
18, 561540, Note_on_c, 7, 45, 32
18, 561599, Note_on_c, 7, 45, 0
18, 561600, Note_on_c, 7, 45, 32
18, 561659, Note_on_c, 7, 45, 0
18, 561660, Note_on_c, 7, 45, 32
18, 561719, Note_on_c, 7, 45, 0
18, 561720, Note_on_c, 7, 45, 32
18, 561779, Note_on_c, 7, 45, 0
18, 561780, Note_on_c, 7, 45, 32
18, 561839, Note_on_c, 7, 45, 0
18, 561840, Note_on_c, 7, 45, 32
18, 561899, Note_on_c, 7, 45, 0
18, 561900, Note_on_c, 7, 45, 32
18, 561959, Note_on_c, 7, 45, 0
18, 561960, Note_on_c, 7, 45, 32
18, 562019, Note_on_c, 7, 45, 0
18, 562020, Note_on_c, 7, 45, 32
18, 562079, Note_on_c, 7, 45, 0
18, 562080, Note_on_c, 7, 45, 32
18, 562139, Note_on_c, 7, 45, 0
18, 562140, Note_on_c, 7, 45, 32
18, 562199, Note_on_c, 7, 45, 0
18, 562200, Note_on_c, 7, 45, 32
18, 562259, Note_on_c, 7, 45, 0
18, 562260, Note_on_c, 7, 45, 32
18, 562319, Note_on_c, 7, 45, 0
18, 562320, Note_on_c, 7, 45, 32
18, 562379, Note_on_c, 7, 45, 0
18, 562380, Note_on_c, 7, 45, 32
18, 562439, Note_on_c, 7, 45, 0
18, 562440, Note_on_c, 7, 45, 32
18, 562499, Note_on_c, 7, 45, 0
18, 562500, Note_on_c, 7, 45, 32
18, 562559, Note_on_c, 7, 45, 0
18, 562560, Note_on_c, 7, 45, 32
18, 562619, Note_on_c, 7, 45, 0
18, 562620, Note_on_c, 7, 45, 32
18, 562679, Note_on_c, 7, 45, 0
18, 562680, Note_on_c, 7, 45, 32
18, 562739, Note_on_c, 7, 45, 0
18, 562740, Note_on_c, 7, 45, 32
18, 562799, Note_on_c, 7, 45, 0
18, 562800, Note_on_c, 7, 45, 32
18, 562859, Note_on_c, 7, 45, 0
18, 562860, Note_on_c, 7, 45, 32
18, 562919, Note_on_c, 7, 45, 0
18, 562920, Note_on_c, 7, 45, 32
18, 562979, Note_on_c, 7, 45, 0
18, 562980, Note_on_c, 7, 45, 32
18, 563039, Note_on_c, 7, 45, 0
18, 563040, Note_on_c, 7, 45, 32
18, 563099, Note_on_c, 7, 45, 0
18, 563100, Note_on_c, 7, 45, 32
18, 563159, Note_on_c, 7, 45, 0
18, 563160, Note_on_c, 7, 45, 32
18, 563219, Note_on_c, 7, 45, 0
18, 563220, Note_on_c, 7, 45, 32
18, 563279, Note_on_c, 7, 45, 0
18, 563280, Note_on_c, 7, 45, 32
18, 563339, Note_on_c, 7, 45, 0
18, 563340, Note_on_c, 7, 45, 32
18, 563399, Note_on_c, 7, 45, 0
18, 563400, Note_on_c, 7, 45, 32
18, 563459, Note_on_c, 7, 45, 0
18, 563460, Note_on_c, 7, 45, 32
18, 563519, Note_on_c, 7, 45, 0
18, 563520, Note_on_c, 7, 45, 32
18, 563579, Note_on_c, 7, 45, 0
18, 563580, Note_on_c, 7, 45, 32
18, 563639, Note_on_c, 7, 45, 0
18, 563640, Note_on_c, 7, 45, 32
18, 563699, Note_on_c, 7, 45, 0
18, 563700, Note_on_c, 7, 45, 32
18, 563759, Note_on_c, 7, 45, 0
18, 563760, Note_on_c, 7, 45, 32
18, 563819, Note_on_c, 7, 45, 0
18, 563820, Note_on_c, 7, 45, 32
18, 563879, Note_on_c, 7, 45, 0
18, 563880, Note_on_c, 7, 45, 32
18, 563939, Note_on_c, 7, 45, 0
18, 563940, Note_on_c, 7, 45, 32
18, 563999, Note_on_c, 7, 45, 0
18, 564000, Note_on_c, 7, 45, 32
18, 564059, Note_on_c, 7, 45, 0
18, 564060, Note_on_c, 7, 45, 32
18, 564119, Note_on_c, 7, 45, 0
18, 564120, Note_on_c, 7, 45, 32
18, 564179, Note_on_c, 7, 45, 0
18, 564180, Note_on_c, 7, 45, 32
18, 564239, Note_on_c, 7, 45, 0
18, 564240, Note_on_c, 7, 45, 32
18, 564299, Note_on_c, 7, 45, 0
18, 564300, Note_on_c, 7, 45, 32
18, 564359, Note_on_c, 7, 45, 0
18, 564360, Note_on_c, 7, 45, 32
18, 564419, Note_on_c, 7, 45, 0
18, 564420, Note_on_c, 7, 45, 32
18, 564479, Note_on_c, 7, 45, 0
18, 564480, Note_on_c, 7, 45, 32
18, 564539, Note_on_c, 7, 45, 0
18, 564540, Note_on_c, 7, 45, 32
18, 564599, Note_on_c, 7, 45, 0
18, 564600, Note_on_c, 7, 45, 32
18, 564659, Note_on_c, 7, 45, 0
18, 564660, Note_on_c, 7, 45, 32
18, 564719, Note_on_c, 7, 45, 0
18, 564720, Note_on_c, 7, 45, 32
18, 564779, Note_on_c, 7, 45, 0
18, 564780, Note_on_c, 7, 45, 32
18, 564839, Note_on_c, 7, 45, 0
18, 564840, Note_on_c, 7, 45, 32
18, 564899, Note_on_c, 7, 45, 0
18, 564900, Note_on_c, 7, 45, 32
18, 564959, Note_on_c, 7, 45, 0
18, 564960, Note_on_c, 7, 45, 32
18, 565019, Note_on_c, 7, 45, 0
18, 565020, Note_on_c, 7, 45, 32
18, 565079, Note_on_c, 7, 45, 0
18, 565080, Note_on_c, 7, 45, 32
18, 565139, Note_on_c, 7, 45, 0
18, 565140, Note_on_c, 7, 45, 32
18, 565199, Note_on_c, 7, 45, 0
18, 565200, Note_on_c, 7, 45, 32
18, 565259, Note_on_c, 7, 45, 0
18, 565260, Note_on_c, 7, 45, 32
18, 565319, Note_on_c, 7, 45, 0
18, 565320, Note_on_c, 7, 45, 32
18, 565379, Note_on_c, 7, 45, 0
18, 565380, Note_on_c, 7, 45, 32
18, 565439, Note_on_c, 7, 45, 0
18, 565440, Note_on_c, 7, 45, 32
18, 565499, Note_on_c, 7, 45, 0
18, 565500, Note_on_c, 7, 45, 32
18, 565559, Note_on_c, 7, 45, 0
18, 565560, Note_on_c, 7, 45, 32
18, 565619, Note_on_c, 7, 45, 0
18, 565620, Note_on_c, 7, 45, 32
18, 565679, Note_on_c, 7, 45, 0
18, 565680, Note_on_c, 7, 45, 32
18, 565739, Note_on_c, 7, 45, 0
18, 565740, Note_on_c, 7, 45, 32
18, 565799, Note_on_c, 7, 45, 0
18, 565800, Note_on_c, 7, 45, 32
18, 565859, Note_on_c, 7, 45, 0
18, 565860, Note_on_c, 7, 45, 32
18, 565919, Note_on_c, 7, 45, 0
18, 565920, Note_on_c, 7, 45, 32
18, 565979, Note_on_c, 7, 45, 0
18, 565980, Note_on_c, 7, 45, 32
18, 566039, Note_on_c, 7, 45, 0
18, 566040, Note_on_c, 7, 45, 32
18, 566099, Note_on_c, 7, 45, 0
18, 566100, Note_on_c, 7, 45, 32
18, 566159, Note_on_c, 7, 45, 0
18, 566160, Note_on_c, 7, 45, 32
18, 566219, Note_on_c, 7, 45, 0
18, 566220, Note_on_c, 7, 45, 32
18, 566279, Note_on_c, 7, 45, 0
18, 566280, Note_on_c, 7, 45, 32
18, 566339, Note_on_c, 7, 45, 0
18, 566340, Note_on_c, 7, 45, 32
18, 566399, Note_on_c, 7, 45, 0
18, 566400, Note_on_c, 7, 45, 32
18, 566459, Note_on_c, 7, 45, 0
18, 566460, Note_on_c, 7, 45, 32
18, 566519, Note_on_c, 7, 45, 0
18, 566520, Note_on_c, 7, 45, 32
18, 566579, Note_on_c, 7, 45, 0
18, 566580, Note_on_c, 7, 45, 32
18, 566639, Note_on_c, 7, 45, 0
18, 566640, Note_on_c, 7, 45, 32
18, 566699, Note_on_c, 7, 45, 0
18, 566700, Note_on_c, 7, 45, 32
18, 566759, Note_on_c, 7, 45, 0
18, 566760, Note_on_c, 7, 45, 32
18, 566819, Note_on_c, 7, 45, 0
18, 566820, Note_on_c, 7, 45, 32
18, 566879, Note_on_c, 7, 45, 0
18, 582720, Note_on_c, 7, 45, 80
18, 582959, Note_on_c, 7, 45, 0
18, 584880, Note_on_c, 7, 45, 80
18, 585119, Note_on_c, 7, 45, 0
18, 585600, Note_on_c, 7, 50, 80
18, 585839, Note_on_c, 7, 50, 0
18, 586320, Note_on_c, 7, 50, 80
18, 586559, Note_on_c, 7, 50, 0
18, 587040, Note_on_c, 7, 45, 80
18, 587279, Note_on_c, 7, 45, 0
18, 587760, Note_on_c, 7, 45, 80
18, 587999, Note_on_c, 7, 45, 0
18, 588480, Note_on_c, 7, 45, 80
18, 588719, Note_on_c, 7, 45, 0
18, 589200, Note_on_c, 7, 45, 80
18, 589439, Note_on_c, 7, 45, 0
18, 589920, Note_on_c, 7, 50, 80
18, 590159, Note_on_c, 7, 50, 0
18, 590400, Note_on_c, 7, 50, 80
18, 590639, Note_on_c, 7, 50, 0
18, 590640, Note_on_c, 7, 50, 80
18, 590879, Note_on_c, 7, 50, 0
18, 591120, Note_on_c, 7, 50, 80
18, 591359, Note_on_c, 7, 50, 0
18, 591360, Note_on_c, 7, 50, 80
18, 591599, Note_on_c, 7, 50, 0
18, 592080, Note_on_c, 7, 50, 80
18, 592319, Note_on_c, 7, 50, 0
18, 592800, Note_on_c, 7, 45, 80
18, 593039, Note_on_c, 7, 45, 0
18, 593520, Note_on_c, 7, 45, 80
18, 593759, Note_on_c, 7, 45, 0
18, 594240, Note_on_c, 7, 50, 80
18, 594479, Note_on_c, 7, 50, 0
18, 594960, Note_on_c, 7, 50, 80
18, 595199, Note_on_c, 7, 50, 0
18, 595680, Note_on_c, 7, 45, 80
18, 595919, Note_on_c, 7, 45, 0
18, 596400, Note_on_c, 7, 50, 80
18, 596639, Note_on_c, 7, 50, 0
18, 597120, Note_on_c, 7, 50, 80
18, 597359, Note_on_c, 7, 50, 0
18, 597840, Note_on_c, 7, 50, 80
18, 598079, Note_on_c, 7, 50, 0
18, 598560, Note_on_c, 7, 50, 80
18, 598799, Note_on_c, 7, 50, 0
18, 599280, Note_on_c, 7, 50, 80
18, 599519, Note_on_c, 7, 50, 0
18, 600000, Note_on_c, 7, 50, 80
18, 600239, Note_on_c, 7, 50, 0
18, 600720, Note_on_c, 7, 50, 80
18, 600959, Note_on_c, 7, 50, 0
18, 601440, Note_on_c, 7, 45, 80
18, 601679, Note_on_c, 7, 45, 0
18, 602880, Note_on_c, 7, 45, 80
18, 603119, Note_on_c, 7, 45, 0
18, 606240, Note_on_c, 7, 50, 80
18, 606479, Note_on_c, 7, 50, 0
18, 606480, Note_on_c, 7, 50, 80
18, 606719, Note_on_c, 7, 50, 0
18, 606960, Note_on_c, 7, 45, 80
18, 607199, Note_on_c, 7, 45, 0
18, 607200, Note_on_c, 7, 45, 80
18, 607439, Note_on_c, 7, 45, 0
18, 610800, Note_on_c, 7, 45, 80
18, 611039, Note_on_c, 7, 45, 0
18, 611520, Note_on_c, 7, 45, 80
18, 611759, Note_on_c, 7, 45, 0
18, 612240, Note_on_c, 7, 45, 80
18, 612479, Note_on_c, 7, 45, 0
18, 620160, Note_on_c, 7, 50, 80
18, 620399, Note_on_c, 7, 50, 0
18, 620880, Note_on_c, 7, 45, 80
18, 621119, Note_on_c, 7, 45, 0
18, 621600, Note_on_c, 7, 50, 80
18, 621839, Note_on_c, 7, 50, 0
18, 624480, Note_on_c, 7, 45, 80
18, 624959, Note_on_c, 7, 45, 0
18, 624960, Note_on_c, 7, 45, 80
18, 625199, Note_on_c, 7, 45, 0
18, 627360, Note_on_c, 7, 50, 80
18, 627839, Note_on_c, 7, 50, 0
18, 627840, Note_on_c, 7, 45, 80
18, 628079, Note_on_c, 7, 45, 0
18, 630240, Note_on_c, 7, 50, 80
18, 630479, Note_on_c, 7, 50, 0
18, 630960, Note_on_c, 7, 50, 80
18, 631199, Note_on_c, 7, 50, 0
18, 631680, Note_on_c, 7, 50, 80
18, 631919, Note_on_c, 7, 50, 0
18, 632400, Note_on_c, 7, 50, 80
18, 632639, Note_on_c, 7, 50, 0
18, 633120, Note_on_c, 7, 45, 80
18, 633359, Note_on_c, 7, 45, 0
18, 633840, Note_on_c, 7, 45, 80
18, 634079, Note_on_c, 7, 45, 0
18, 637440, Note_on_c, 7, 50, 80
18, 637679, Note_on_c, 7, 50, 0
18, 638160, Note_on_c, 7, 50, 80
18, 638399, Note_on_c, 7, 50, 0
18, 656160, Note_on_c, 7, 45, 80
18, 656399, Note_on_c, 7, 45, 0
18, 656880, Note_on_c, 7, 45, 80
18, 657119, Note_on_c, 7, 45, 0
18, 657600, Note_on_c, 7, 45, 80
18, 657839, Note_on_c, 7, 45, 0
18, 661200, Note_on_c, 7, 50, 92
18, 661439, Note_on_c, 7, 50, 0
18, 661920, Note_on_c, 7, 50, 92
18, 662159, Note_on_c, 7, 50, 0
18, 662640, Note_on_c, 7, 50, 92
18, 662879, Note_on_c, 7, 50, 0
18, 663360, Note_on_c, 7, 45, 92
18, 663599, Note_on_c, 7, 45, 0
18, 664080, Note_on_c, 7, 45, 92
18, 664319, Note_on_c, 7, 45, 0
18, 664800, Note_on_c, 7, 50, 92
18, 665039, Note_on_c, 7, 50, 0
18, 665520, Note_on_c, 7, 50, 92
18, 665759, Note_on_c, 7, 50, 0
18, 666240, Note_on_c, 7, 50, 92
18, 666479, Note_on_c, 7, 50, 0
18, 666960, Note_on_c, 7, 50, 92
18, 667199, Note_on_c, 7, 50, 0
18, 667680, Note_on_c, 7, 50, 92
18, 667919, Note_on_c, 7, 50, 0
18, 668400, Note_on_c, 7, 50, 92
18, 668639, Note_on_c, 7, 50, 0
18, 669120, Note_on_c, 7, 50, 92
18, 669359, Note_on_c, 7, 50, 0
18, 669840, Note_on_c, 7, 50, 92
18, 670079, Note_on_c, 7, 50, 0
18, 673440, Note_on_c, 7, 45, 92
18, 673679, Note_on_c, 7, 45, 0
18, 674160, Note_on_c, 7, 45, 92
18, 674399, Note_on_c, 7, 45, 0
18, 674880, Note_on_c, 7, 50, 92
18, 674939, Note_on_c, 7, 50, 0
18, 674940, Note_on_c, 7, 50, 92
18, 674999, Note_on_c, 7, 50, 0
18, 675000, Note_on_c, 7, 50, 92
18, 675059, Note_on_c, 7, 50, 0
18, 675060, Note_on_c, 7, 50, 92
18, 675119, Note_on_c, 7, 50, 0
18, 675120, Note_on_c, 7, 50, 92
18, 675179, Note_on_c, 7, 50, 0
18, 675180, Note_on_c, 7, 50, 92
18, 675239, Note_on_c, 7, 50, 0
18, 675240, Note_on_c, 7, 50, 92
18, 675299, Note_on_c, 7, 50, 0
18, 675300, Note_on_c, 7, 50, 92
18, 675359, Note_on_c, 7, 50, 0
18, 675360, Note_on_c, 7, 50, 92
18, 675419, Note_on_c, 7, 50, 0
18, 675420, Note_on_c, 7, 50, 92
18, 675479, Note_on_c, 7, 50, 0
18, 675480, Note_on_c, 7, 50, 92
18, 675539, Note_on_c, 7, 50, 0
18, 675540, Note_on_c, 7, 50, 92
18, 675599, Note_on_c, 7, 50, 0
18, 675600, Note_on_c, 7, 50, 92
18, 675659, Note_on_c, 7, 50, 0
18, 675660, Note_on_c, 7, 50, 92
18, 675719, Note_on_c, 7, 50, 0
18, 675720, Note_on_c, 7, 50, 92
18, 675779, Note_on_c, 7, 50, 0
18, 675780, Note_on_c, 7, 50, 92
18, 675839, Note_on_c, 7, 50, 0
18, 675840, Note_on_c, 7, 50, 92
18, 675899, Note_on_c, 7, 50, 0
18, 675900, Note_on_c, 7, 50, 92
18, 675959, Note_on_c, 7, 50, 0
18, 675960, Note_on_c, 7, 50, 92
18, 676019, Note_on_c, 7, 50, 0
18, 676020, Note_on_c, 7, 50, 92
18, 676079, Note_on_c, 7, 50, 0
18, 676080, Note_on_c, 7, 50, 92
18, 676319, Note_on_c, 7, 50, 0
18, 718080, Note_on_c, 7, 50, 32
18, 718319, Note_on_c, 7, 50, 0
18, 718800, Note_on_c, 7, 50, 32
18, 719039, Note_on_c, 7, 50, 0
18, 719520, Note_on_c, 7, 50, 26
18, 719759, Note_on_c, 7, 50, 0
18, 720240, Note_on_c, 7, 50, 26
18, 720479, Note_on_c, 7, 50, 0
18, 720960, Note_on_c, 7, 50, 20
18, 721019, Note_on_c, 7, 50, 0
18, 721020, Note_on_c, 7, 50, 20
18, 721079, Note_on_c, 7, 50, 0
18, 721080, Note_on_c, 7, 50, 20
18, 721139, Note_on_c, 7, 50, 0
18, 721140, Note_on_c, 7, 50, 20
18, 721199, Note_on_c, 7, 50, 0
18, 721200, Note_on_c, 7, 50, 20
18, 721259, Note_on_c, 7, 50, 0
18, 721260, Note_on_c, 7, 50, 20
18, 721319, Note_on_c, 7, 50, 0
18, 721320, Note_on_c, 7, 50, 20
18, 721379, Note_on_c, 7, 50, 0
18, 721380, Note_on_c, 7, 50, 20
18, 721439, Note_on_c, 7, 50, 0
18, 721440, Note_on_c, 7, 50, 20
18, 721499, Note_on_c, 7, 50, 0
18, 721500, Note_on_c, 7, 50, 20
18, 721559, Note_on_c, 7, 50, 0
18, 721560, Note_on_c, 7, 50, 20
18, 721619, Note_on_c, 7, 50, 0
18, 721620, Note_on_c, 7, 50, 20
18, 721679, Note_on_c, 7, 50, 0
18, 721680, Note_on_c, 7, 50, 20
18, 721739, Note_on_c, 7, 50, 0
18, 721740, Note_on_c, 7, 50, 20
18, 721799, Note_on_c, 7, 50, 0
18, 721800, Note_on_c, 7, 50, 20
18, 721859, Note_on_c, 7, 50, 0
18, 721860, Note_on_c, 7, 50, 20
18, 721919, Note_on_c, 7, 50, 0
18, 721920, Note_on_c, 7, 50, 20
18, 721979, Note_on_c, 7, 50, 0
18, 721980, Note_on_c, 7, 50, 20
18, 722039, Note_on_c, 7, 50, 0
18, 722040, Note_on_c, 7, 50, 20
18, 722099, Note_on_c, 7, 50, 0
18, 722100, Note_on_c, 7, 50, 20
18, 722159, Note_on_c, 7, 50, 0
18, 722160, Note_on_c, 7, 50, 20
18, 722219, Note_on_c, 7, 50, 0
18, 722220, Note_on_c, 7, 50, 20
18, 722279, Note_on_c, 7, 50, 0
18, 722280, Note_on_c, 7, 50, 20
18, 722339, Note_on_c, 7, 50, 0
18, 722340, Note_on_c, 7, 50, 20
18, 722399, Note_on_c, 7, 50, 0
18, 722400, Note_on_c, 7, 50, 20
18, 722459, Note_on_c, 7, 50, 0
18, 722460, Note_on_c, 7, 50, 20
18, 722519, Note_on_c, 7, 50, 0
18, 722520, Note_on_c, 7, 50, 20
18, 722579, Note_on_c, 7, 50, 0
18, 722580, Note_on_c, 7, 50, 20
18, 722639, Note_on_c, 7, 50, 0
18, 722640, Note_on_c, 7, 50, 20
18, 722699, Note_on_c, 7, 50, 0
18, 722700, Note_on_c, 7, 50, 20
18, 722759, Note_on_c, 7, 50, 0
18, 722760, Note_on_c, 7, 50, 20
18, 722819, Note_on_c, 7, 50, 0
18, 722820, Note_on_c, 7, 50, 20
18, 722879, Note_on_c, 7, 50, 0
18, 722880, Note_on_c, 7, 50, 20
18, 722939, Note_on_c, 7, 50, 0
18, 722940, Note_on_c, 7, 50, 20
18, 722999, Note_on_c, 7, 50, 0
18, 723000, Note_on_c, 7, 50, 20
18, 723059, Note_on_c, 7, 50, 0
18, 723060, Note_on_c, 7, 50, 20
18, 723119, Note_on_c, 7, 50, 0
18, 723120, Note_on_c, 7, 50, 20
18, 723179, Note_on_c, 7, 50, 0
18, 723180, Note_on_c, 7, 50, 20
18, 723239, Note_on_c, 7, 50, 0
18, 723240, Note_on_c, 7, 50, 20
18, 723299, Note_on_c, 7, 50, 0
18, 723300, Note_on_c, 7, 50, 20
18, 723359, Note_on_c, 7, 50, 0
18, 723360, Note_on_c, 7, 50, 20
18, 723419, Note_on_c, 7, 50, 0
18, 723420, Note_on_c, 7, 50, 20
18, 723479, Note_on_c, 7, 50, 0
18, 723480, Note_on_c, 7, 50, 20
18, 723539, Note_on_c, 7, 50, 0
18, 723540, Note_on_c, 7, 50, 20
18, 723599, Note_on_c, 7, 50, 0
18, 760320, Note_on_c, 7, 45, 80
18, 760559, Note_on_c, 7, 45, 0
18, 760560, Note_on_c, 7, 45, 80
18, 760799, Note_on_c, 7, 45, 0
18, 760800, Note_on_c, 7, 45, 92
18, 761039, Note_on_c, 7, 45, 0
18, 761040, Note_on_c, 7, 45, 80
18, 761279, Note_on_c, 7, 45, 0
18, 761280, Note_on_c, 7, 45, 80
18, 761519, Note_on_c, 7, 45, 0
18, 761520, Note_on_c, 7, 45, 80
18, 761759, Note_on_c, 7, 45, 0
18, 761760, Note_on_c, 7, 45, 80
18, 761999, Note_on_c, 7, 45, 0
18, 762000, Note_on_c, 7, 45, 80
18, 762239, Note_on_c, 7, 45, 0
18, 762240, Note_on_c, 7, 45, 80
18, 762479, Note_on_c, 7, 45, 0
18, 762480, Note_on_c, 7, 45, 80
18, 762719, Note_on_c, 7, 45, 0
18, 762720, Note_on_c, 7, 45, 80
18, 762959, Note_on_c, 7, 45, 0
18, 762960, Note_on_c, 7, 45, 92
18, 763199, Note_on_c, 7, 45, 0
18, 763200, Note_on_c, 7, 45, 80
18, 763439, Note_on_c, 7, 45, 0
18, 763440, Note_on_c, 7, 45, 80
18, 763679, Note_on_c, 7, 45, 0
18, 763680, Note_on_c, 7, 45, 80
18, 763919, Note_on_c, 7, 45, 0
18, 763920, Note_on_c, 7, 45, 80
18, 764159, Note_on_c, 7, 45, 0
18, 764160, Note_on_c, 7, 45, 80
18, 764399, Note_on_c, 7, 45, 0
18, 764400, Note_on_c, 7, 45, 80
18, 764639, Note_on_c, 7, 45, 0
18, 764640, Note_on_c, 7, 45, 44
18, 764759, Note_on_c, 7, 45, 0
18, 764760, Note_on_c, 7, 45, 52
18, 764879, Note_on_c, 7, 45, 0
18, 764880, Note_on_c, 7, 45, 60
18, 764999, Note_on_c, 7, 45, 0
18, 765000, Note_on_c, 7, 45, 68
18, 765119, Note_on_c, 7, 45, 0
18, 765120, Note_on_c, 7, 45, 76
18, 765239, Note_on_c, 7, 45, 0
18, 765240, Note_on_c, 7, 45, 84
18, 765359, Note_on_c, 7, 45, 0
18, 765360, Note_on_c, 7, 50, 92
18, 765479, Note_on_c, 7, 50, 0
18, 765480, Note_on_c, 7, 50, 92
18, 765599, Note_on_c, 7, 50, 0
18, 765600, Note_on_c, 7, 50, 92
18, 765839, Note_on_c, 7, 50, 0
18, 765840, Note_on_c, 7, 50, 92
18, 766079, Note_on_c, 7, 50, 0
18, 766080, Note_on_c, 7, 50, 80
18, 766319, Note_on_c, 7, 50, 0
18, 766320, Note_on_c, 7, 50, 80
18, 766439, Note_on_c, 7, 50, 0
18, 766440, Note_on_c, 7, 50, 80
18, 766559, Note_on_c, 7, 50, 0
18, 766560, Note_on_c, 7, 50, 80
18, 766799, Note_on_c, 7, 50, 0
18, 766800, Note_on_c, 7, 50, 80
18, 767039, Note_on_c, 7, 50, 0
18, 767040, Note_on_c, 7, 50, 80
18, 767279, Note_on_c, 7, 50, 0
18, 767280, Note_on_c, 7, 50, 80
18, 767399, Note_on_c, 7, 50, 0
18, 767400, Note_on_c, 7, 50, 80
18, 767519, Note_on_c, 7, 50, 0
18, 767520, Note_on_c, 7, 50, 80
18, 767759, Note_on_c, 7, 50, 0
18, 767760, Note_on_c, 7, 50, 80
18, 767999, Note_on_c, 7, 50, 0
18, 768000, Note_on_c, 7, 50, 80
18, 768239, Note_on_c, 7, 50, 0
18, 780480, Note_on_c, 7, 45, 80
18, 780659, Note_on_c, 7, 45, 0
18, 780720, Note_on_c, 7, 45, 80
18, 780899, Note_on_c, 7, 45, 0
18, 780960, Note_on_c, 7, 45, 80
18, 781139, Note_on_c, 7, 45, 0
18, 781200, Note_on_c, 7, 45, 80
18, 781379, Note_on_c, 7, 45, 0
18, 781440, Note_on_c, 7, 45, 80
18, 781659, Note_on_c, 7, 45, 0
18, 781680, Note_on_c, 7, 45, 80
18, 781899, Note_on_c, 7, 45, 0
18, 781920, Note_on_c, 7, 45, 80
18, 782139, Note_on_c, 7, 45, 0
18, 782160, Note_on_c, 7, 45, 80
18, 782379, Note_on_c, 7, 45, 0
18, 782400, Note_on_c, 7, 45, 80
18, 782619, Note_on_c, 7, 45, 0
18, 782640, Note_on_c, 7, 45, 80
18, 782859, Note_on_c, 7, 45, 0
18, 782880, Note_on_c, 7, 45, 80
18, 783099, Note_on_c, 7, 45, 0
18, 783120, Note_on_c, 7, 45, 92
18, 783339, Note_on_c, 7, 45, 0
18, 783360, Note_on_c, 7, 45, 80
18, 783579, Note_on_c, 7, 45, 0
18, 783600, Note_on_c, 7, 45, 80
18, 783819, Note_on_c, 7, 45, 0
18, 783840, Note_on_c, 7, 45, 80
18, 784059, Note_on_c, 7, 45, 0
18, 784080, Note_on_c, 7, 45, 80
18, 784299, Note_on_c, 7, 45, 0
18, 784320, Note_on_c, 7, 45, 80
18, 784559, Note_on_c, 7, 45, 0
18, 784560, Note_on_c, 7, 45, 80
18, 784799, Note_on_c, 7, 45, 0
18, 784800, Note_on_c, 7, 45, 44
18, 784919, Note_on_c, 7, 45, 0
18, 784920, Note_on_c, 7, 45, 52
18, 785039, Note_on_c, 7, 45, 0
18, 785040, Note_on_c, 7, 45, 60
18, 785159, Note_on_c, 7, 45, 0
18, 785160, Note_on_c, 7, 45, 68
18, 785279, Note_on_c, 7, 45, 0
18, 785280, Note_on_c, 7, 45, 76
18, 785399, Note_on_c, 7, 45, 0
18, 785400, Note_on_c, 7, 45, 84
18, 785519, Note_on_c, 7, 45, 0
18, 785520, Note_on_c, 7, 50, 92
18, 785639, Note_on_c, 7, 50, 0
18, 785640, Note_on_c, 7, 50, 92
18, 785759, Note_on_c, 7, 50, 0
18, 785760, Note_on_c, 7, 50, 92
18, 785999, Note_on_c, 7, 50, 0
18, 786000, Note_on_c, 7, 50, 92
18, 786239, Note_on_c, 7, 50, 0
18, 786240, Note_on_c, 7, 50, 80
18, 786479, Note_on_c, 7, 50, 0
18, 786480, Note_on_c, 7, 50, 80
18, 786599, Note_on_c, 7, 50, 0
18, 786600, Note_on_c, 7, 50, 80
18, 786719, Note_on_c, 7, 50, 0
18, 786720, Note_on_c, 7, 50, 80
18, 786959, Note_on_c, 7, 50, 0
18, 786960, Note_on_c, 7, 50, 80
18, 787199, Note_on_c, 7, 50, 0
18, 787200, Note_on_c, 7, 50, 80
18, 787439, Note_on_c, 7, 50, 0
18, 787440, Note_on_c, 7, 50, 80
18, 787559, Note_on_c, 7, 50, 0
18, 787560, Note_on_c, 7, 50, 80
18, 787679, Note_on_c, 7, 50, 0
18, 787680, Note_on_c, 7, 50, 80
18, 787919, Note_on_c, 7, 50, 0
18, 787920, Note_on_c, 7, 50, 80
18, 788159, Note_on_c, 7, 50, 0
18, 788160, Note_on_c, 7, 50, 80
18, 788399, Note_on_c, 7, 50, 0
18, 806640, Note_on_c, 7, 45, 65
18, 806879, Note_on_c, 7, 45, 0
18, 806880, Note_on_c, 7, 45, 69
18, 807119, Note_on_c, 7, 45, 0
18, 807120, Note_on_c, 7, 45, 73
18, 807359, Note_on_c, 7, 45, 0
18, 807360, Note_on_c, 7, 45, 77
18, 807599, Note_on_c, 7, 45, 0
18, 807600, Note_on_c, 7, 45, 80
18, 807839, Note_on_c, 7, 45, 0
18, 807840, Note_on_c, 7, 45, 84
18, 808079, Note_on_c, 7, 45, 0
18, 808080, Note_on_c, 7, 45, 88
18, 808199, Note_on_c, 7, 45, 0
18, 808200, Note_on_c, 7, 45, 90
18, 808319, Note_on_c, 7, 45, 0
18, 808320, Note_on_c, 7, 50, 92
18, 808559, Note_on_c, 7, 50, 0
18, 808560, Note_on_c, 7, 50, 92
18, 808799, Note_on_c, 7, 50, 0
18, 808800, Note_on_c, 7, 45, 92
18, 809039, Note_on_c, 7, 45, 0
18, 809040, Note_on_c, 7, 45, 92
18, 809279, Note_on_c, 7, 45, 0
18, 811200, Note_on_c, 7, 45, 92
18, 811439, Note_on_c, 7, 45, 0
18, 811440, Note_on_c, 7, 45, 92
18, 811679, Note_on_c, 7, 45, 0
18, 811680, Note_on_c, 7, 45, 92
18, 811919, Note_on_c, 7, 45, 0
18, 811920, Note_on_c, 7, 45, 92
18, 812039, Note_on_c, 7, 45, 0
18, 812040, Note_on_c, 7, 45, 92
18, 812159, Note_on_c, 7, 45, 0
18, 812160, Note_on_c, 7, 50, 92
18, 812339, Note_on_c, 7, 50, 0
18, 812400, Note_on_c, 7, 50, 92
18, 812579, Note_on_c, 7, 50, 0
18, 812640, Note_on_c, 7, 45, 92
18, 812819, Note_on_c, 7, 45, 0
18, 812880, Note_on_c, 7, 45, 92
18, 813059, Note_on_c, 7, 45, 0
18, 815040, Note_on_c, 7, 45, 92
18, 815279, Note_on_c, 7, 45, 0
18, 815280, Note_on_c, 7, 45, 92
18, 815519, Note_on_c, 7, 45, 0
18, 815520, Note_on_c, 7, 45, 92
18, 815759, Note_on_c, 7, 45, 0
18, 816960, Note_on_c, 7, 45, 92
18, 817199, Note_on_c, 7, 45, 0
18, 817200, Note_on_c, 7, 45, 92
18, 817439, Note_on_c, 7, 45, 0
18, 817440, Note_on_c, 7, 45, 92
18, 817559, Note_on_c, 7, 45, 0
18, 817560, Note_on_c, 7, 45, 92
18, 817679, Note_on_c, 7, 45, 0
18, 817680, Note_on_c, 7, 45, 92
18, 817799, Note_on_c, 7, 45, 0
18, 817800, Note_on_c, 7, 45, 92
18, 817919, Note_on_c, 7, 45, 0
18, 817920, Note_on_c, 7, 45, 92
18, 818039, Note_on_c, 7, 45, 0
18, 818040, Note_on_c, 7, 45, 80
18, 818159, Note_on_c, 7, 45, 0
18, 818160, Note_on_c, 7, 45, 80
18, 818279, Note_on_c, 7, 45, 0
18, 818280, Note_on_c, 7, 45, 80
18, 818399, Note_on_c, 7, 45, 0
18, 818400, Note_on_c, 7, 45, 80
18, 818519, Note_on_c, 7, 45, 0
18, 818520, Note_on_c, 7, 45, 80
18, 818639, Note_on_c, 7, 45, 0
18, 818640, Note_on_c, 7, 45, 80
18, 818759, Note_on_c, 7, 45, 0
18, 818760, Note_on_c, 7, 45, 80
18, 818879, Note_on_c, 7, 45, 0
18, 818880, Note_on_c, 7, 45, 80
18, 818999, Note_on_c, 7, 45, 0
18, 819000, Note_on_c, 7, 45, 80
18, 819119, Note_on_c, 7, 45, 0
18, 819120, Note_on_c, 7, 45, 80
18, 819239, Note_on_c, 7, 45, 0
18, 819240, Note_on_c, 7, 45, 80
18, 819359, Note_on_c, 7, 45, 0
18, 819360, Note_on_c, 7, 45, 80
18, 819479, Note_on_c, 7, 45, 0
18, 819480, Note_on_c, 7, 45, 80
18, 819599, Note_on_c, 7, 45, 0
18, 819600, Note_on_c, 7, 45, 80
18, 819719, Note_on_c, 7, 45, 0
18, 819720, Note_on_c, 7, 45, 80
18, 819839, Note_on_c, 7, 45, 0
18, 819840, Note_on_c, 7, 45, 80
18, 819959, Note_on_c, 7, 45, 0
18, 819960, Note_on_c, 7, 45, 80
18, 820079, Note_on_c, 7, 45, 0
18, 820080, Note_on_c, 7, 45, 80
18, 820199, Note_on_c, 7, 45, 0
18, 820200, Note_on_c, 7, 45, 80
18, 820319, Note_on_c, 7, 45, 0
18, 820320, Note_on_c, 7, 45, 80
18, 820439, Note_on_c, 7, 45, 0
18, 820440, Note_on_c, 7, 45, 80
18, 820559, Note_on_c, 7, 45, 0
18, 820560, Note_on_c, 7, 45, 80
18, 820679, Note_on_c, 7, 45, 0
18, 820680, Note_on_c, 7, 45, 80
18, 820799, Note_on_c, 7, 45, 0
18, 820800, Note_on_c, 7, 45, 80
18, 820919, Note_on_c, 7, 45, 0
18, 820920, Note_on_c, 7, 45, 80
18, 821039, Note_on_c, 7, 45, 0
18, 821040, Note_on_c, 7, 45, 80
18, 821159, Note_on_c, 7, 45, 0
18, 821160, Note_on_c, 7, 45, 80
18, 821279, Note_on_c, 7, 45, 0
18, 821280, Note_on_c, 7, 45, 80
18, 821399, Note_on_c, 7, 45, 0
18, 821400, Note_on_c, 7, 45, 80
18, 821519, Note_on_c, 7, 45, 0
18, 821520, Note_on_c, 7, 45, 80
18, 821639, Note_on_c, 7, 45, 0
18, 821640, Note_on_c, 7, 45, 80
18, 821759, Note_on_c, 7, 45, 0
18, 821760, Note_on_c, 7, 45, 80
18, 821879, Note_on_c, 7, 45, 0
18, 821880, Note_on_c, 7, 45, 80
18, 821999, Note_on_c, 7, 45, 0
18, 822000, Note_on_c, 7, 45, 80
18, 822119, Note_on_c, 7, 45, 0
18, 822120, Note_on_c, 7, 45, 80
18, 822239, Note_on_c, 7, 45, 0
18, 822240, Note_on_c, 7, 45, 80
18, 822359, Note_on_c, 7, 45, 0
18, 822360, Note_on_c, 7, 45, 80
18, 822479, Note_on_c, 7, 45, 0
18, 822480, Note_on_c, 7, 45, 80
18, 822599, Note_on_c, 7, 45, 0
18, 822600, Note_on_c, 7, 45, 80
18, 822719, Note_on_c, 7, 45, 0
18, 822720, Note_on_c, 7, 45, 80
18, 822839, Note_on_c, 7, 45, 0
18, 822840, Note_on_c, 7, 45, 80
18, 822959, Note_on_c, 7, 45, 0
18, 822960, Note_on_c, 7, 45, 80
18, 823079, Note_on_c, 7, 45, 0
18, 823080, Note_on_c, 7, 45, 80
18, 823199, Note_on_c, 7, 45, 0
18, 823200, Note_on_c, 7, 45, 80
18, 823319, Note_on_c, 7, 45, 0
18, 823320, Note_on_c, 7, 45, 80
18, 823439, Note_on_c, 7, 45, 0
18, 823440, Note_on_c, 7, 45, 80
18, 823559, Note_on_c, 7, 45, 0
18, 823560, Note_on_c, 7, 45, 80
18, 823679, Note_on_c, 7, 45, 0
18, 823680, Note_on_c, 7, 45, 80
18, 823799, Note_on_c, 7, 45, 0
18, 823800, Note_on_c, 7, 45, 80
18, 823919, Note_on_c, 7, 45, 0
18, 823920, Note_on_c, 7, 45, 80
18, 824039, Note_on_c, 7, 45, 0
18, 824040, Note_on_c, 7, 45, 80
18, 824159, Note_on_c, 7, 45, 0
18, 824160, Note_on_c, 7, 45, 80
18, 824279, Note_on_c, 7, 45, 0
18, 824280, Note_on_c, 7, 45, 80
18, 824399, Note_on_c, 7, 45, 0
18, 824400, Note_on_c, 7, 45, 80
18, 824519, Note_on_c, 7, 45, 0
18, 824520, Note_on_c, 7, 45, 80
18, 824639, Note_on_c, 7, 45, 0
18, 824640, Note_on_c, 7, 45, 80
18, 824759, Note_on_c, 7, 45, 0
18, 824760, Note_on_c, 7, 45, 80
18, 824879, Note_on_c, 7, 45, 0
18, 824880, Note_on_c, 7, 45, 80
18, 824999, Note_on_c, 7, 45, 0
18, 825000, Note_on_c, 7, 45, 80
18, 825119, Note_on_c, 7, 45, 0
18, 825120, Note_on_c, 7, 45, 80
18, 825239, Note_on_c, 7, 45, 0
18, 825240, Note_on_c, 7, 45, 80
18, 825359, Note_on_c, 7, 45, 0
18, 825360, Note_on_c, 7, 45, 80
18, 825479, Note_on_c, 7, 45, 0
18, 825480, Note_on_c, 7, 45, 80
18, 825599, Note_on_c, 7, 45, 0
18, 825600, Note_on_c, 7, 45, 80
18, 825839, Note_on_c, 7, 45, 0
18, 826080, Note_on_c, 7, 50, 80
18, 826319, Note_on_c, 7, 50, 0
18, 826560, Note_on_c, 7, 50, 80
18, 826799, Note_on_c, 7, 50, 0
18, 827040, Note_on_c, 7, 50, 80
18, 827279, Note_on_c, 7, 50, 0
18, 827520, Note_on_c, 7, 45, 80
18, 827759, Note_on_c, 7, 45, 0
18, 828000, Note_on_c, 7, 45, 80
18, 828239, Note_on_c, 7, 45, 0
18, 828480, Note_on_c, 7, 50, 80
18, 828599, Note_on_c, 7, 50, 0
18, 828600, Note_on_c, 7, 50, 80
18, 828719, Note_on_c, 7, 50, 0
18, 828720, Note_on_c, 7, 50, 80
18, 828839, Note_on_c, 7, 50, 0
18, 828840, Note_on_c, 7, 50, 80
18, 828959, Note_on_c, 7, 50, 0
18, 828960, Note_on_c, 7, 50, 80
18, 829079, Note_on_c, 7, 50, 0
18, 829080, Note_on_c, 7, 50, 80
18, 829199, Note_on_c, 7, 50, 0
18, 829200, Note_on_c, 7, 50, 80
18, 829319, Note_on_c, 7, 50, 0
18, 829320, Note_on_c, 7, 50, 80
18, 829439, Note_on_c, 7, 50, 0
18, 829440, Note_on_c, 7, 45, 80
18, 829679, Note_on_c, 7, 45, 0
18, 829920, Note_on_c, 7, 50, 80
18, 830159, Note_on_c, 7, 50, 0
18, 830400, Note_on_c, 7, 50, 80
18, 830639, Note_on_c, 7, 50, 0
18, 830880, Note_on_c, 7, 50, 80
18, 831119, Note_on_c, 7, 50, 0
18, 831360, Note_on_c, 7, 45, 80
18, 831599, Note_on_c, 7, 45, 0
18, 831840, Note_on_c, 7, 45, 80
18, 832079, Note_on_c, 7, 45, 0
18, 832320, Note_on_c, 7, 50, 80
18, 832559, Note_on_c, 7, 50, 0
18, 832560, Note_on_c, 7, 50, 80
18, 832799, Note_on_c, 7, 50, 0
18, 832800, Note_on_c, 7, 45, 80
18, 833039, Note_on_c, 7, 45, 0
18, 833040, Note_on_c, 7, 45, 80
18, 833279, Note_on_c, 7, 45, 0
18, 833280, Note_on_c, 7, 50, 80
18, 833519, Note_on_c, 7, 50, 0
18, 833520, Note_on_c, 7, 50, 80
18, 833759, Note_on_c, 7, 50, 0
18, 833760, Note_on_c, 7, 45, 80
18, 833999, Note_on_c, 7, 45, 0
18, 834000, Note_on_c, 7, 45, 80
18, 834239, Note_on_c, 7, 45, 0
18, 841440, Note_on_c, 7, 50, 80
18, 841919, Note_on_c, 7, 50, 0
18, 841920, Note_on_c, 7, 45, 80
18, 842039, Note_on_c, 7, 45, 0
18, 842040, Note_on_c, 7, 45, 80
18, 842159, Note_on_c, 7, 45, 0
18, 842160, Note_on_c, 7, 45, 80
18, 842279, Note_on_c, 7, 45, 0
18, 842280, Note_on_c, 7, 45, 80
18, 842399, Note_on_c, 7, 45, 0
18, 842400, Note_on_c, 7, 45, 80
18, 842639, Note_on_c, 7, 45, 0
18, 842640, Note_on_c, 7, 45, 80
18, 842879, Note_on_c, 7, 45, 0
18, 849120, Note_on_c, 7, 50, 92
18, 849599, Note_on_c, 7, 50, 0
18, 849600, Note_on_c, 7, 45, 92
18, 850079, Note_on_c, 7, 45, 0
18, 850080, Note_on_c, 7, 45, 92
18, 850559, Note_on_c, 7, 45, 0
18, 850560, Note_on_c, 7, 50, 92
18, 850679, Note_on_c, 7, 50, 0
18, 850680, Note_on_c, 7, 50, 92
18, 850799, Note_on_c, 7, 50, 0
18, 850800, Note_on_c, 7, 50, 92
18, 850919, Note_on_c, 7, 50, 0
18, 850920, Note_on_c, 7, 50, 92
18, 851039, Note_on_c, 7, 50, 0
18, 851040, Note_on_c, 7, 50, 92
18, 851159, Note_on_c, 7, 50, 0
18, 851160, Note_on_c, 7, 50, 92
18, 851279, Note_on_c, 7, 50, 0
18, 851280, Note_on_c, 7, 50, 92
18, 851399, Note_on_c, 7, 50, 0
18, 851400, Note_on_c, 7, 50, 92
18, 851519, Note_on_c, 7, 50, 0
18, 851520, Note_on_c, 7, 45, 92
18, 851639, Note_on_c, 7, 45, 0
18, 851640, Note_on_c, 7, 45, 92
18, 851759, Note_on_c, 7, 45, 0
18, 851760, Note_on_c, 7, 45, 92
18, 851879, Note_on_c, 7, 45, 0
18, 851880, Note_on_c, 7, 45, 92
18, 851999, Note_on_c, 7, 45, 0
18, 852000, Note_on_c, 7, 45, 92
18, 852119, Note_on_c, 7, 45, 0
18, 852120, Note_on_c, 7, 45, 92
18, 852239, Note_on_c, 7, 45, 0
18, 852240, Note_on_c, 7, 45, 92
18, 852359, Note_on_c, 7, 45, 0
18, 852360, Note_on_c, 7, 45, 92
18, 852479, Note_on_c, 7, 45, 0
18, 852480, Note_on_c, 7, 45, 92
18, 852599, Note_on_c, 7, 45, 0
18, 852600, Note_on_c, 7, 45, 92
18, 852719, Note_on_c, 7, 45, 0
18, 852720, Note_on_c, 7, 45, 92
18, 852839, Note_on_c, 7, 45, 0
18, 852840, Note_on_c, 7, 45, 92
18, 852959, Note_on_c, 7, 45, 0
18, 852960, Note_on_c, 7, 45, 92
18, 853079, Note_on_c, 7, 45, 0
18, 853080, Note_on_c, 7, 45, 92
18, 853199, Note_on_c, 7, 45, 0
18, 853200, Note_on_c, 7, 45, 92
18, 853319, Note_on_c, 7, 45, 0
18, 853320, Note_on_c, 7, 45, 92
18, 853439, Note_on_c, 7, 45, 0
18, 853440, Note_on_c, 7, 45, 92
18, 853559, Note_on_c, 7, 45, 0
18, 853560, Note_on_c, 7, 45, 92
18, 853679, Note_on_c, 7, 45, 0
18, 853680, Note_on_c, 7, 45, 92
18, 853799, Note_on_c, 7, 45, 0
18, 853800, Note_on_c, 7, 45, 92
18, 853919, Note_on_c, 7, 45, 0
18, 853920, Note_on_c, 7, 45, 92
18, 854039, Note_on_c, 7, 45, 0
18, 854040, Note_on_c, 7, 45, 92
18, 854159, Note_on_c, 7, 45, 0
18, 854160, Note_on_c, 7, 45, 92
18, 854279, Note_on_c, 7, 45, 0
18, 854280, Note_on_c, 7, 45, 92
18, 854399, Note_on_c, 7, 45, 0
18, 854400, Note_on_c, 7, 50, 92
18, 854519, Note_on_c, 7, 50, 0
18, 854520, Note_on_c, 7, 50, 92
18, 854639, Note_on_c, 7, 50, 0
18, 854640, Note_on_c, 7, 50, 92
18, 854759, Note_on_c, 7, 50, 0
18, 854760, Note_on_c, 7, 50, 92
18, 854879, Note_on_c, 7, 50, 0
18, 854880, Note_on_c, 7, 50, 92
18, 854999, Note_on_c, 7, 50, 0
18, 855000, Note_on_c, 7, 50, 92
18, 855119, Note_on_c, 7, 50, 0
18, 855120, Note_on_c, 7, 50, 92
18, 855239, Note_on_c, 7, 50, 0
18, 855240, Note_on_c, 7, 50, 92
18, 855359, Note_on_c, 7, 50, 0
18, 855360, Note_on_c, 7, 45, 92
18, 855479, Note_on_c, 7, 45, 0
18, 855480, Note_on_c, 7, 45, 92
18, 855599, Note_on_c, 7, 45, 0
18, 855600, Note_on_c, 7, 45, 92
18, 855719, Note_on_c, 7, 45, 0
18, 855720, Note_on_c, 7, 45, 92
18, 855839, Note_on_c, 7, 45, 0
18, 855840, Note_on_c, 7, 45, 92
18, 855959, Note_on_c, 7, 45, 0
18, 855960, Note_on_c, 7, 45, 92
18, 856079, Note_on_c, 7, 45, 0
18, 856080, Note_on_c, 7, 45, 92
18, 856199, Note_on_c, 7, 45, 0
18, 856200, Note_on_c, 7, 45, 92
18, 856319, Note_on_c, 7, 45, 0
18, 856320, Note_on_c, 7, 45, 92
18, 856439, Note_on_c, 7, 45, 0
18, 856440, Note_on_c, 7, 45, 92
18, 856559, Note_on_c, 7, 45, 0
18, 856560, Note_on_c, 7, 45, 92
18, 856679, Note_on_c, 7, 45, 0
18, 856680, Note_on_c, 7, 45, 92
18, 856799, Note_on_c, 7, 45, 0
18, 856800, Note_on_c, 7, 45, 92
18, 856919, Note_on_c, 7, 45, 0
18, 856920, Note_on_c, 7, 45, 92
18, 857039, Note_on_c, 7, 45, 0
18, 857040, Note_on_c, 7, 45, 92
18, 857159, Note_on_c, 7, 45, 0
18, 857160, Note_on_c, 7, 45, 92
18, 857279, Note_on_c, 7, 45, 0
18, 857280, Note_on_c, 7, 45, 92
18, 857399, Note_on_c, 7, 45, 0
18, 857400, Note_on_c, 7, 45, 92
18, 857519, Note_on_c, 7, 45, 0
18, 857520, Note_on_c, 7, 45, 92
18, 857639, Note_on_c, 7, 45, 0
18, 857640, Note_on_c, 7, 45, 92
18, 857759, Note_on_c, 7, 45, 0
18, 857760, Note_on_c, 7, 45, 92
18, 857879, Note_on_c, 7, 45, 0
18, 857880, Note_on_c, 7, 45, 92
18, 857999, Note_on_c, 7, 45, 0
18, 858000, Note_on_c, 7, 45, 92
18, 858119, Note_on_c, 7, 45, 0
18, 858120, Note_on_c, 7, 45, 92
18, 858239, Note_on_c, 7, 45, 0
18, 858240, Note_on_c, 7, 50, 92
18, 858479, Note_on_c, 7, 50, 0
18, 859200, Note_on_c, 7, 50, 92
18, 859439, Note_on_c, 7, 50, 0
18, 859440, Note_on_c, 7, 50, 92
18, 859679, Note_on_c, 7, 50, 0
18, 860160, Note_on_c, 7, 50, 92
18, 860399, Note_on_c, 7, 50, 0
18, 860400, Note_on_c, 7, 50, 92
18, 860639, Note_on_c, 7, 50, 0
18, 860640, Note_on_c, 7, 50, 92
18, 860879, Note_on_c, 7, 50, 0
18, 860880, Note_on_c, 7, 50, 92
18, 861119, Note_on_c, 7, 50, 0
18, 861120, Note_on_c, 7, 45, 92
18, 861359, Note_on_c, 7, 45, 0
18, 861840, Note_on_c, 7, 45, 92
18, 862079, Note_on_c, 7, 45, 0
18, 862080, Note_on_c, 7, 45, 92
18, 862319, Note_on_c, 7, 45, 0
18, 862320, Note_on_c, 7, 50, 92
18, 862559, Note_on_c, 7, 50, 0
18, 863040, Note_on_c, 7, 45, 92
18, 863279, Note_on_c, 7, 45, 0
18, 863760, Note_on_c, 7, 45, 92
18, 863999, Note_on_c, 7, 45, 0
18, 864000, Note_on_c, 7, 45, 92
18, 864239, Note_on_c, 7, 45, 0
18, 864240, Note_on_c, 7, 50, 92
18, 864479, Note_on_c, 7, 50, 0
18, 864480, Note_on_c, 7, 45, 92
18, 864599, Note_on_c, 7, 45, 0
18, 864600, Note_on_c, 7, 45, 92
18, 864719, Note_on_c, 7, 45, 0
18, 864720, Note_on_c, 7, 45, 92
18, 864839, Note_on_c, 7, 45, 0
18, 864840, Note_on_c, 7, 45, 92
18, 864959, Note_on_c, 7, 45, 0
18, 864960, Note_on_c, 7, 45, 92
18, 865079, Note_on_c, 7, 45, 0
18, 865080, Note_on_c, 7, 45, 92
18, 865199, Note_on_c, 7, 45, 0
18, 865200, Note_on_c, 7, 45, 92
18, 865319, Note_on_c, 7, 45, 0
18, 865320, Note_on_c, 7, 45, 92
18, 865439, Note_on_c, 7, 45, 0
18, 865440, Note_on_c, 7, 45, 92
18, 865559, Note_on_c, 7, 45, 0
18, 865560, Note_on_c, 7, 45, 92
18, 865679, Note_on_c, 7, 45, 0
18, 865680, Note_on_c, 7, 45, 92
18, 865799, Note_on_c, 7, 45, 0
18, 865800, Note_on_c, 7, 45, 92
18, 865919, Note_on_c, 7, 45, 0
18, 865920, Note_on_c, 7, 45, 92
18, 866039, Note_on_c, 7, 45, 0
18, 866040, Note_on_c, 7, 45, 92
18, 866159, Note_on_c, 7, 45, 0
18, 866160, Note_on_c, 7, 45, 92
18, 866279, Note_on_c, 7, 45, 0
18, 866280, Note_on_c, 7, 45, 92
18, 866399, Note_on_c, 7, 45, 0
18, 866400, Note_on_c, 7, 45, 92
18, 866519, Note_on_c, 7, 45, 0
18, 866520, Note_on_c, 7, 45, 92
18, 866639, Note_on_c, 7, 45, 0
18, 866640, Note_on_c, 7, 45, 92
18, 866759, Note_on_c, 7, 45, 0
18, 866760, Note_on_c, 7, 45, 92
18, 866879, Note_on_c, 7, 45, 0
18, 866880, Note_on_c, 7, 45, 92
18, 866999, Note_on_c, 7, 45, 0
18, 867000, Note_on_c, 7, 45, 92
18, 867119, Note_on_c, 7, 45, 0
18, 867120, Note_on_c, 7, 50, 92
18, 867239, Note_on_c, 7, 50, 0
18, 867240, Note_on_c, 7, 50, 92
18, 867359, Note_on_c, 7, 50, 0
18, 867360, Note_on_c, 7, 45, 92
18, 867479, Note_on_c, 7, 45, 0
18, 867480, Note_on_c, 7, 45, 92
18, 867599, Note_on_c, 7, 45, 0
18, 867600, Note_on_c, 7, 45, 92
18, 867719, Note_on_c, 7, 45, 0
18, 867720, Note_on_c, 7, 45, 92
18, 867839, Note_on_c, 7, 45, 0
18, 867840, Note_on_c, 7, 45, 92
18, 867959, Note_on_c, 7, 45, 0
18, 867960, Note_on_c, 7, 45, 92
18, 868079, Note_on_c, 7, 45, 0
18, 868080, Note_on_c, 7, 45, 92
18, 868199, Note_on_c, 7, 45, 0
18, 868200, Note_on_c, 7, 45, 92
18, 868319, Note_on_c, 7, 45, 0
18, 868320, Note_on_c, 7, 45, 92
18, 868439, Note_on_c, 7, 45, 0
18, 868440, Note_on_c, 7, 45, 92
18, 868559, Note_on_c, 7, 45, 0
18, 868560, Note_on_c, 7, 45, 92
18, 868679, Note_on_c, 7, 45, 0
18, 868680, Note_on_c, 7, 45, 92
18, 868799, Note_on_c, 7, 45, 0
18, 868800, Note_on_c, 7, 45, 92
18, 868919, Note_on_c, 7, 45, 0
18, 868920, Note_on_c, 7, 45, 92
18, 869039, Note_on_c, 7, 45, 0
18, 869040, Note_on_c, 7, 45, 92
18, 869159, Note_on_c, 7, 45, 0
18, 869160, Note_on_c, 7, 45, 92
18, 869279, Note_on_c, 7, 45, 0
18, 869280, Note_on_c, 7, 45, 92
18, 869399, Note_on_c, 7, 45, 0
18, 869400, Note_on_c, 7, 45, 92
18, 869519, Note_on_c, 7, 45, 0
18, 869520, Note_on_c, 7, 45, 92
18, 869639, Note_on_c, 7, 45, 0
18, 869640, Note_on_c, 7, 45, 92
18, 869759, Note_on_c, 7, 45, 0
18, 869760, Note_on_c, 7, 45, 92
18, 869879, Note_on_c, 7, 45, 0
18, 869880, Note_on_c, 7, 45, 92
18, 869999, Note_on_c, 7, 45, 0
18, 870000, Note_on_c, 7, 50, 92
18, 870119, Note_on_c, 7, 50, 0
18, 870120, Note_on_c, 7, 50, 92
18, 870239, Note_on_c, 7, 50, 0
18, 870240, Note_on_c, 7, 45, 92
18, 870359, Note_on_c, 7, 45, 0
18, 870360, Note_on_c, 7, 45, 92
18, 870479, Note_on_c, 7, 45, 0
18, 870480, Note_on_c, 7, 45, 92
18, 870599, Note_on_c, 7, 45, 0
18, 870600, Note_on_c, 7, 45, 92
18, 870719, Note_on_c, 7, 45, 0
18, 870720, Note_on_c, 7, 45, 92
18, 870959, Note_on_c, 7, 45, 0
18, 871080, Note_on_c, 7, 45, 92
18, 871199, Note_on_c, 7, 45, 0
18, 871200, Note_on_c, 7, 45, 92
18, 871379, Note_on_c, 7, 45, 0
18, 871380, Note_on_c, 7, 45, 44
18, 871439, Note_on_c, 7, 45, 0
18, 871440, Note_on_c, 7, 45, 44
18, 871619, Note_on_c, 7, 45, 0
18, 871620, Note_on_c, 7, 45, 44
18, 871679, Note_on_c, 7, 45, 0
18, 871680, Note_on_c, 7, 45, 44
18, 871919, Note_on_c, 7, 45, 0
18, 872160, Note_on_c, 7, 50, 80
18, 872339, Note_on_c, 7, 50, 0
18, 872340, Note_on_c, 7, 50, 80
18, 872399, Note_on_c, 7, 50, 0
18, 872400, Note_on_c, 7, 50, 80
18, 872639, Note_on_c, 7, 50, 0
18, 872760, Note_on_c, 7, 45, 80
18, 872879, Note_on_c, 7, 45, 0
18, 872880, Note_on_c, 7, 45, 92
18, 873059, Note_on_c, 7, 45, 0
18, 873060, Note_on_c, 7, 45, 80
18, 873119, Note_on_c, 7, 45, 0
18, 873120, Note_on_c, 7, 45, 80
18, 873239, Note_on_c, 7, 45, 0
18, 873240, Note_on_c, 7, 50, 80
18, 873359, Note_on_c, 7, 50, 0
18, 873360, Note_on_c, 7, 45, 92
18, 873539, Note_on_c, 7, 45, 0
18, 873540, Note_on_c, 7, 45, 80
18, 873599, Note_on_c, 7, 45, 0
18, 873600, Note_on_c, 7, 50, 80
18, 873719, Note_on_c, 7, 50, 0
18, 873720, Note_on_c, 7, 50, 80
18, 873839, Note_on_c, 7, 50, 0
18, 873840, Note_on_c, 7, 50, 80
18, 873959, Note_on_c, 7, 50, 0
18, 873960, Note_on_c, 7, 50, 80
18, 874079, Note_on_c, 7, 50, 0
18, 874080, Note_on_c, 7, 50, 80
18, 874319, Note_on_c, 7, 50, 0
18, 874320, Note_on_c, 7, 45, 80
18, 874559, Note_on_c, 7, 45, 0
18, 874560, Note_on_c, 7, 50, 80
18, 874679, Note_on_c, 7, 50, 0
18, 874680, Note_on_c, 7, 50, 80
18, 874799, Note_on_c, 7, 50, 0
18, 874800, Note_on_c, 7, 50, 80
18, 874919, Note_on_c, 7, 50, 0
18, 874920, Note_on_c, 7, 50, 80
18, 875039, Note_on_c, 7, 50, 0
18, 875040, Note_on_c, 7, 50, 80
18, 875279, Note_on_c, 7, 50, 0
18, 875280, Note_on_c, 7, 45, 80
18, 875519, Note_on_c, 7, 45, 0
18, 875520, Note_on_c, 7, 50, 80
18, 875639, Note_on_c, 7, 50, 0
18, 875640, Note_on_c, 7, 50, 80
18, 875759, Note_on_c, 7, 50, 0
18, 875760, Note_on_c, 7, 50, 80
18, 875879, Note_on_c, 7, 50, 0
18, 875880, Note_on_c, 7, 50, 80
18, 875999, Note_on_c, 7, 50, 0
18, 876000, Note_on_c, 7, 50, 80
18, 876239, Note_on_c, 7, 50, 0
18, 876240, Note_on_c, 7, 45, 80
18, 876479, Note_on_c, 7, 45, 0
18, 876480, Note_on_c, 7, 50, 80
18, 876599, Note_on_c, 7, 50, 0
18, 876600, Note_on_c, 7, 50, 80
18, 876719, Note_on_c, 7, 50, 0
18, 876720, Note_on_c, 7, 50, 80
18, 876839, Note_on_c, 7, 50, 0
18, 876840, Note_on_c, 7, 50, 80
18, 876959, Note_on_c, 7, 50, 0
18, 876960, Note_on_c, 7, 50, 80
18, 877199, Note_on_c, 7, 50, 0
18, 877200, Note_on_c, 7, 45, 80
18, 877439, Note_on_c, 7, 45, 0
18, 877440, Note_on_c, 7, 50, 80
18, 877679, Note_on_c, 7, 50, 0
18, 877680, Note_on_c, 7, 45, 80
18, 877919, Note_on_c, 7, 45, 0
18, 877920, Note_on_c, 7, 50, 80
18, 878159, Note_on_c, 7, 50, 0
18, 878160, Note_on_c, 7, 45, 80
18, 878399, Note_on_c, 7, 45, 0
18, 878400, Note_on_c, 7, 50, 80
18, 878639, Note_on_c, 7, 50, 0
18, 878640, Note_on_c, 7, 45, 80
18, 878879, Note_on_c, 7, 45, 0
18, 878880, Note_on_c, 7, 50, 80
18, 879119, Note_on_c, 7, 50, 0
18, 879120, Note_on_c, 7, 45, 80
18, 879359, Note_on_c, 7, 45, 0
18, 879360, Note_on_c, 7, 50, 80
18, 879599, Note_on_c, 7, 50, 0
18, 879600, Note_on_c, 7, 45, 80
18, 879839, Note_on_c, 7, 45, 0
18, 879840, Note_on_c, 7, 50, 80
18, 880079, Note_on_c, 7, 50, 0
18, 880080, Note_on_c, 7, 45, 80
18, 880319, Note_on_c, 7, 45, 0
18, 880320, Note_on_c, 7, 50, 80
18, 880439, Note_on_c, 7, 50, 0
18, 880440, Note_on_c, 7, 50, 80
18, 880559, Note_on_c, 7, 50, 0
18, 880560, Note_on_c, 7, 50, 80
18, 880679, Note_on_c, 7, 50, 0
18, 880680, Note_on_c, 7, 50, 80
18, 880799, Note_on_c, 7, 50, 0
18, 880800, Note_on_c, 7, 50, 80
18, 880919, Note_on_c, 7, 50, 0
18, 880920, Note_on_c, 7, 50, 80
18, 881039, Note_on_c, 7, 50, 0
18, 881040, Note_on_c, 7, 50, 80
18, 881159, Note_on_c, 7, 50, 0
18, 881160, Note_on_c, 7, 50, 80
18, 881279, Note_on_c, 7, 50, 0
18, 881280, Note_on_c, 7, 50, 92
18, 881519, Note_on_c, 7, 50, 0
18, 881520, Note_on_c, 7, 50, 80
18, 881639, Note_on_c, 7, 50, 0
18, 881760, Note_on_c, 7, 50, 80
18, 881999, Note_on_c, 7, 50, 0
18, 882000, Note_on_c, 7, 50, 80
18, 882119, Note_on_c, 7, 50, 0
18, 882240, Note_on_c, 7, 50, 80
18, 882479, Note_on_c, 7, 50, 0
18, 882480, Note_on_c, 7, 50, 80
18, 882599, Note_on_c, 7, 50, 0
18, 882720, Note_on_c, 7, 50, 80
18, 882959, Note_on_c, 7, 50, 0
18, 882960, Note_on_c, 7, 50, 80
18, 883079, Note_on_c, 7, 50, 0
18, 883200, Note_on_c, 7, 50, 80
18, 883439, Note_on_c, 7, 50, 0
18, 883440, Note_on_c, 7, 50, 80
18, 883559, Note_on_c, 7, 50, 0
18, 883680, Note_on_c, 7, 50, 80
18, 883919, Note_on_c, 7, 50, 0
18, 883920, Note_on_c, 7, 50, 80
18, 884039, Note_on_c, 7, 50, 0
18, 884160, Note_on_c, 7, 50, 80
18, 884399, Note_on_c, 7, 50, 0
18, 884400, Note_on_c, 7, 50, 80
18, 884519, Note_on_c, 7, 50, 0
18, 884640, Note_on_c, 7, 50, 80
18, 884879, Note_on_c, 7, 50, 0
18, 884880, Note_on_c, 7, 50, 80
18, 884999, Note_on_c, 7, 50, 0
18, 885120, Note_on_c, 7, 50, 92
18, 885239, Note_on_c, 7, 50, 0
18, 885240, Note_on_c, 7, 50, 92
18, 885359, Note_on_c, 7, 50, 0
18, 885360, Note_on_c, 7, 50, 92
18, 885479, Note_on_c, 7, 50, 0
18, 885480, Note_on_c, 7, 50, 92
18, 885599, Note_on_c, 7, 50, 0
18, 885600, Note_on_c, 7, 50, 92
18, 885719, Note_on_c, 7, 50, 0
18, 885720, Note_on_c, 7, 50, 92
18, 885839, Note_on_c, 7, 50, 0
18, 885840, Note_on_c, 7, 50, 92
18, 885959, Note_on_c, 7, 50, 0
18, 885960, Note_on_c, 7, 50, 92
18, 886079, Note_on_c, 7, 50, 0
18, 886080, Note_on_c, 7, 50, 92
18, 886199, Note_on_c, 7, 50, 0
18, 886200, Note_on_c, 7, 50, 92
18, 886319, Note_on_c, 7, 50, 0
18, 886320, Note_on_c, 7, 50, 92
18, 886439, Note_on_c, 7, 50, 0
18, 886440, Note_on_c, 7, 50, 92
18, 886559, Note_on_c, 7, 50, 0
18, 886560, Note_on_c, 7, 50, 92
18, 886679, Note_on_c, 7, 50, 0
18, 886680, Note_on_c, 7, 50, 92
18, 886799, Note_on_c, 7, 50, 0
18, 886800, Note_on_c, 7, 50, 92
18, 886919, Note_on_c, 7, 50, 0
18, 886920, Note_on_c, 7, 50, 92
18, 887039, Note_on_c, 7, 50, 0
18, 887040, Note_on_c, 7, 50, 92
18, 887159, Note_on_c, 7, 50, 0
18, 887160, Note_on_c, 7, 50, 92
18, 887279, Note_on_c, 7, 50, 0
18, 887280, Note_on_c, 7, 50, 92
18, 887399, Note_on_c, 7, 50, 0
18, 887400, Note_on_c, 7, 50, 92
18, 887519, Note_on_c, 7, 50, 0
18, 887520, Note_on_c, 7, 50, 92
18, 887639, Note_on_c, 7, 50, 0
18, 887640, Note_on_c, 7, 50, 92
18, 887759, Note_on_c, 7, 50, 0
18, 887760, Note_on_c, 7, 50, 92
18, 887879, Note_on_c, 7, 50, 0
18, 887880, Note_on_c, 7, 50, 92
18, 887999, Note_on_c, 7, 50, 0
18, 888000, Note_on_c, 7, 50, 92
18, 888119, Note_on_c, 7, 50, 0
18, 888120, Note_on_c, 7, 50, 92
18, 888239, Note_on_c, 7, 50, 0
18, 888240, Note_on_c, 7, 50, 92
18, 888359, Note_on_c, 7, 50, 0
18, 888360, Note_on_c, 7, 50, 92
18, 888479, Note_on_c, 7, 50, 0
18, 888480, Note_on_c, 7, 50, 92
18, 888599, Note_on_c, 7, 50, 0
18, 888600, Note_on_c, 7, 50, 92
18, 888719, Note_on_c, 7, 50, 0
18, 888720, Note_on_c, 7, 50, 92
18, 888839, Note_on_c, 7, 50, 0
18, 888840, Note_on_c, 7, 50, 92
18, 888959, Note_on_c, 7, 50, 0
18, 888960, Note_on_c, 7, 50, 92
18, 889119, Note_on_c, 7, 50, 0
18, 889120, Note_on_c, 7, 50, 92
18, 889279, Note_on_c, 7, 50, 0
18, 889280, Note_on_c, 7, 50, 92
18, 889439, Note_on_c, 7, 50, 0
18, 889440, Note_on_c, 7, 50, 92
18, 889599, Note_on_c, 7, 50, 0
18, 889600, Note_on_c, 7, 50, 92
18, 889759, Note_on_c, 7, 50, 0
18, 889760, Note_on_c, 7, 50, 92
18, 889919, Note_on_c, 7, 50, 0
18, 889920, Note_on_c, 7, 50, 92
18, 890079, Note_on_c, 7, 50, 0
18, 890080, Note_on_c, 7, 50, 92
18, 890239, Note_on_c, 7, 50, 0
18, 890240, Note_on_c, 7, 50, 92
18, 890399, Note_on_c, 7, 50, 0
18, 890400, Note_on_c, 7, 50, 92
18, 890559, Note_on_c, 7, 50, 0
18, 890560, Note_on_c, 7, 50, 92
18, 890719, Note_on_c, 7, 50, 0
18, 890720, Note_on_c, 7, 50, 92
18, 890879, Note_on_c, 7, 50, 0
18, 890880, Note_on_c, 7, 50, 92
18, 891039, Note_on_c, 7, 50, 0
18, 891040, Note_on_c, 7, 50, 92
18, 891199, Note_on_c, 7, 50, 0
18, 891200, Note_on_c, 7, 50, 92
18, 891359, Note_on_c, 7, 50, 0
18, 891360, Note_on_c, 7, 50, 92
18, 891519, Note_on_c, 7, 50, 0
18, 891520, Note_on_c, 7, 50, 92
18, 891679, Note_on_c, 7, 50, 0
18, 891680, Note_on_c, 7, 50, 92
18, 891839, Note_on_c, 7, 50, 0
18, 891840, Note_on_c, 7, 50, 92
18, 892079, Note_on_c, 7, 50, 0
18, 892080, Note_on_c, 7, 50, 92
18, 892319, Note_on_c, 7, 50, 0
18, 892320, Note_on_c, 7, 50, 92
18, 892559, Note_on_c, 7, 50, 0
18, 892560, Note_on_c, 7, 50, 92
18, 892799, Note_on_c, 7, 50, 0
18, 892800, Note_on_c, 7, 50, 92
18, 893039, Note_on_c, 7, 50, 0
18, 893039, End_track
19, 0, Start_track
19, 0, Title_t, "Soprano"
19, 0, MIDI_port, 0
19, 0, Program_c, 8, 73
19, 0, Control_c, 8, 121, 0
19, 0, Control_c, 8, 11, 127
19, 243838, Control_c, 8, 10, 32
19, 243838, Control_c, 8, 11, 127
19, 243838, Control_c, 8, 7, 112
19, 243840, Note_on_c, 8, 76, 80
19, 244049, Note_on_c, 8, 76, 0
19, 244080, Note_on_c, 8, 76, 80
19, 244319, Note_on_c, 8, 76, 0
19, 244320, Note_on_c, 8, 78, 80
19, 244559, Note_on_c, 8, 78, 0
19, 244560, Note_on_c, 8, 74, 80
19, 244799, Note_on_c, 8, 74, 0
19, 244800, Note_on_c, 8, 76, 80
19, 245039, Note_on_c, 8, 76, 0
19, 245040, Note_on_c, 8, 78, 80
19, 245159, Note_on_c, 8, 78, 0
19, 245160, Note_on_c, 8, 79, 80
19, 245279, Note_on_c, 8, 79, 0
19, 245280, Note_on_c, 8, 78, 80
19, 245519, Note_on_c, 8, 78, 0
19, 245520, Note_on_c, 8, 74, 80
19, 245759, Note_on_c, 8, 74, 0
19, 245760, Note_on_c, 8, 76, 80
19, 245999, Note_on_c, 8, 76, 0
19, 246000, Note_on_c, 8, 78, 80
19, 246119, Note_on_c, 8, 78, 0
19, 246120, Note_on_c, 8, 79, 80
19, 246239, Note_on_c, 8, 79, 0
19, 246240, Note_on_c, 8, 78, 80
19, 246479, Note_on_c, 8, 78, 0
19, 246480, Note_on_c, 8, 76, 80
19, 246719, Note_on_c, 8, 76, 0
19, 246720, Note_on_c, 8, 74, 80
19, 246959, Note_on_c, 8, 74, 0
19, 246960, Note_on_c, 8, 76, 80
19, 247199, Note_on_c, 8, 76, 0
19, 247200, Note_on_c, 8, 69, 80
19, 247409, Note_on_c, 8, 69, 0
19, 247440, Note_on_c, 8, 78, 80
19, 247919, Note_on_c, 8, 78, 0
19, 247920, Note_on_c, 8, 78, 80
19, 248159, Note_on_c, 8, 78, 0
19, 248160, Note_on_c, 8, 79, 92
19, 248399, Note_on_c, 8, 79, 0
19, 248400, Note_on_c, 8, 81, 80
19, 248639, Note_on_c, 8, 81, 0
19, 248640, Note_on_c, 8, 81, 80
19, 248864, Note_on_c, 8, 81, 0
19, 248880, Note_on_c, 8, 79, 71
19, 249119, Note_on_c, 8, 79, 0
19, 249120, Note_on_c, 8, 78, 62
19, 249359, Note_on_c, 8, 78, 0
19, 249360, Note_on_c, 8, 76, 53
19, 249599, Note_on_c, 8, 76, 0
19, 249600, Note_on_c, 8, 74, 44
19, 249839, Note_on_c, 8, 74, 0
19, 249840, Note_on_c, 8, 74, 44
19, 250079, Note_on_c, 8, 74, 0
19, 250080, Note_on_c, 8, 76, 44
19, 250319, Note_on_c, 8, 76, 0
19, 250320, Note_on_c, 8, 78, 44
19, 250559, Note_on_c, 8, 78, 0
19, 250560, Note_on_c, 8, 76, 44
19, 250919, Note_on_c, 8, 76, 0
19, 250920, Note_on_c, 8, 74, 44
19, 251039, Note_on_c, 8, 74, 0
19, 251040, Note_on_c, 8, 74, 44
19, 251519, Note_on_c, 8, 74, 0
19, 253440, Marker_t, "Transition to Soprano Solo"
19, 270718, Control_c, 8, 7, 112
19, 270718, Control_c, 8, 10, 32
19, 270718, Control_c, 8, 11, 127
19, 270720, Note_on_c, 8, 78, 80
19, 270839, Note_on_c, 8, 78, 0
19, 270840, Note_on_c, 8, 76, 80
19, 270959, Note_on_c, 8, 76, 0
19, 270960, Note_on_c, 8, 74, 80
19, 271079, Note_on_c, 8, 74, 0
19, 271080, Note_on_c, 8, 76, 80
19, 271199, Note_on_c, 8, 76, 0
19, 271200, Note_on_c, 8, 79, 80
19, 271319, Note_on_c, 8, 79, 0
19, 271320, Note_on_c, 8, 78, 80
19, 271439, Note_on_c, 8, 78, 0
19, 271440, Note_on_c, 8, 76, 80
19, 271559, Note_on_c, 8, 76, 0
19, 271560, Note_on_c, 8, 74, 80
19, 271679, Note_on_c, 8, 74, 0
19, 271680, Note_on_c, 8, 78, 80
19, 271799, Note_on_c, 8, 78, 0
19, 271800, Note_on_c, 8, 76, 80
19, 271919, Note_on_c, 8, 76, 0
19, 271920, Note_on_c, 8, 74, 80
19, 272039, Note_on_c, 8, 74, 0
19, 272040, Note_on_c, 8, 76, 80
19, 272159, Note_on_c, 8, 76, 0
19, 272160, Note_on_c, 8, 79, 80
19, 272279, Note_on_c, 8, 79, 0
19, 272280, Note_on_c, 8, 78, 80
19, 272399, Note_on_c, 8, 78, 0
19, 272400, Note_on_c, 8, 76, 80
19, 272519, Note_on_c, 8, 76, 0
19, 272520, Note_on_c, 8, 74, 80
19, 272624, Note_on_c, 8, 74, 0
19, 272640, Note_on_c, 8, 78, 80
19, 272759, Note_on_c, 8, 78, 0
19, 272760, Note_on_c, 8, 76, 80
19, 272879, Note_on_c, 8, 76, 0
19, 272880, Note_on_c, 8, 74, 80
19, 272999, Note_on_c, 8, 74, 0
19, 273000, Note_on_c, 8, 76, 80
19, 273119, Note_on_c, 8, 76, 0
19, 273120, Note_on_c, 8, 79, 80
19, 273239, Note_on_c, 8, 79, 0
19, 273240, Note_on_c, 8, 78, 80
19, 273359, Note_on_c, 8, 78, 0
19, 273360, Note_on_c, 8, 78, 80
19, 273479, Note_on_c, 8, 78, 0
19, 273480, Note_on_c, 8, 76, 80
19, 273599, Note_on_c, 8, 76, 0
19, 273600, Note_on_c, 8, 76, 80
19, 273719, Note_on_c, 8, 76, 0
19, 273720, Note_on_c, 8, 74, 80
19, 273839, Note_on_c, 8, 74, 0
19, 273840, Note_on_c, 8, 74, 80
19, 273959, Note_on_c, 8, 74, 0
19, 273960, Note_on_c, 8, 76, 80
19, 274079, Note_on_c, 8, 76, 0
19, 274080, Note_on_c, 8, 69, 80
19, 274289, Note_on_c, 8, 69, 0
19, 274320, Note_on_c, 8, 78, 80
19, 274679, Note_on_c, 8, 78, 0
19, 274680, Note_on_c, 8, 79, 80
19, 274799, Note_on_c, 8, 79, 0
19, 274800, Note_on_c, 8, 76, 80
19, 274919, Note_on_c, 8, 76, 0
19, 274920, Note_on_c, 8, 78, 80
19, 275039, Note_on_c, 8, 78, 0
19, 275040, Note_on_c, 8, 79, 80
19, 275159, Note_on_c, 8, 79, 0
19, 275160, Note_on_c, 8, 81, 80
19, 275279, Note_on_c, 8, 81, 0
19, 275280, Note_on_c, 8, 83, 80
19, 275399, Note_on_c, 8, 83, 0
19, 275400, Note_on_c, 8, 81, 80
19, 275519, Note_on_c, 8, 81, 0
19, 275520, Note_on_c, 8, 81, 80
19, 275639, Note_on_c, 8, 81, 0
19, 275640, Note_on_c, 8, 79, 80
19, 275759, Note_on_c, 8, 79, 0
19, 275760, Note_on_c, 8, 83, 80
19, 275879, Note_on_c, 8, 83, 0
19, 275880, Note_on_c, 8, 79, 80
19, 275999, Note_on_c, 8, 79, 0
19, 276000, Note_on_c, 8, 78, 80
19, 276119, Note_on_c, 8, 78, 0
19, 276120, Note_on_c, 8, 76, 80
19, 276239, Note_on_c, 8, 76, 0
19, 276240, Note_on_c, 8, 79, 80
19, 276359, Note_on_c, 8, 79, 0
19, 276360, Note_on_c, 8, 76, 80
19, 276464, Note_on_c, 8, 76, 0
19, 276480, Note_on_c, 8, 76, 80
19, 276599, Note_on_c, 8, 76, 0
19, 276600, Note_on_c, 8, 74, 80
19, 276719, Note_on_c, 8, 74, 0
19, 276720, Note_on_c, 8, 73, 80
19, 276839, Note_on_c, 8, 73, 0
19, 276840, Note_on_c, 8, 74, 80
19, 276959, Note_on_c, 8, 74, 0
19, 276960, Note_on_c, 8, 78, 92
19, 277079, Note_on_c, 8, 78, 0
19, 277080, Note_on_c, 8, 76, 80
19, 277199, Note_on_c, 8, 76, 0
19, 277200, Note_on_c, 8, 79, 80
19, 277319, Note_on_c, 8, 79, 0
19, 277320, Note_on_c, 8, 78, 80
19, 277439, Note_on_c, 8, 78, 0
19, 277440, Note_on_c, 8, 78, 80
19, 277559, Note_on_c, 8, 78, 0
19, 277560, Note_on_c, 8, 76, 80
19, 277799, Note_on_c, 8, 76, 0
19, 277800, Note_on_c, 8, 69, 80
19, 277919, Note_on_c, 8, 69, 0
19, 277920, Note_on_c, 8, 74, 80
19, 278369, Note_on_c, 8, 74, 0
19, 278400, Note_on_c, 8, 69, 80
19, 278759, Note_on_c, 8, 69, 0
19, 278880, Note_on_c, 8, 69, 80
19, 279239, Note_on_c, 8, 69, 0
19, 279360, Note_on_c, 8, 71, 80
19, 279719, Note_on_c, 8, 71, 0
19, 279840, Note_on_c, 8, 71, 80
19, 280199, Note_on_c, 8, 71, 0
19, 280320, Note_on_c, 8, 73, 80
19, 280679, Note_on_c, 8, 73, 0
19, 280800, Note_on_c, 8, 73, 80
19, 281159, Note_on_c, 8, 73, 0
19, 281280, Note_on_c, 8, 74, 80
19, 282209, Note_on_c, 8, 74, 0
19, 282240, Note_on_c, 8, 80, 80
19, 282599, Note_on_c, 8, 80, 0
19, 282720, Note_on_c, 8, 80, 80
19, 283079, Note_on_c, 8, 80, 0
19, 283200, Note_on_c, 8, 81, 92
19, 284159, Note_on_c, 8, 81, 0
19, 284640, Note_on_c, 8, 80, 92
19, 284999, Note_on_c, 8, 80, 0
19, 285120, Note_on_c, 8, 81, 92
19, 286079, Note_on_c, 8, 81, 0
19, 286560, Note_on_c, 8, 81, 92
19, 286919, Note_on_c, 8, 81, 0
19, 287040, Note_on_c, 8, 81, 92
19, 288959, Note_on_c, 8, 81, 0
19, 440880, Control_c, 8, 7, 112
19, 440880, Control_c, 8, 10, 32
19, 441600, Note_on_c, 8, 78, 80
19, 441959, Note_on_c, 8, 78, 0
19, 441960, Note_on_c, 8, 78, 80
19, 442304, Note_on_c, 8, 78, 0
19, 442320, Note_on_c, 8, 79, 80
19, 442679, Note_on_c, 8, 79, 0
19, 442680, Note_on_c, 8, 81, 80
19, 443039, Note_on_c, 8, 81, 0
19, 443040, Note_on_c, 8, 81, 80
19, 443399, Note_on_c, 8, 81, 0
19, 443400, Note_on_c, 8, 79, 80
19, 443759, Note_on_c, 8, 79, 0
19, 443760, Note_on_c, 8, 78, 80
19, 444119, Note_on_c, 8, 78, 0
19, 444120, Note_on_c, 8, 76, 80
19, 444464, Note_on_c, 8, 76, 0
19, 444480, Note_on_c, 8, 74, 80
19, 444839, Note_on_c, 8, 74, 0
19, 444840, Note_on_c, 8, 74, 80
19, 445199, Note_on_c, 8, 74, 0
19, 445200, Note_on_c, 8, 76, 80
19, 445559, Note_on_c, 8, 76, 0
19, 445560, Note_on_c, 8, 78, 80
19, 445919, Note_on_c, 8, 78, 0
19, 445920, Note_on_c, 8, 78, 92
19, 445980, Control_c, 8, 11, 107
19, 446519, Note_on_c, 8, 78, 0
19, 446520, Note_on_c, 8, 76, 92
19, 446639, Note_on_c, 8, 76, 0
19, 446640, Note_on_c, 8, 76, 92
19, 446879, Note_on_c, 8, 76, 0
19, 447240, Control_c, 8, 11, 127
19, 447360, Note_on_c, 8, 78, 80
19, 447719, Note_on_c, 8, 78, 0
19, 447720, Note_on_c, 8, 78, 80
19, 448079, Note_on_c, 8, 78, 0
19, 448080, Note_on_c, 8, 79, 80
19, 448439, Note_on_c, 8, 79, 0
19, 448440, Note_on_c, 8, 81, 80
19, 448799, Note_on_c, 8, 81, 0
19, 448800, Note_on_c, 8, 81, 92
19, 448860, Control_c, 8, 11, 107
19, 449159, Note_on_c, 8, 81, 0
19, 449160, Note_on_c, 8, 79, 92
19, 449519, Note_on_c, 8, 79, 0
19, 449520, Note_on_c, 8, 78, 92
19, 449879, Note_on_c, 8, 78, 0
19, 449880, Note_on_c, 8, 76, 92
19, 450224, Note_on_c, 8, 76, 0
19, 450238, Control_c, 8, 11, 127
19, 450240, Note_on_c, 8, 74, 80
19, 450599, Note_on_c, 8, 74, 0
19, 450600, Note_on_c, 8, 74, 80
19, 450959, Note_on_c, 8, 74, 0
19, 450960, Note_on_c, 8, 76, 80
19, 451304, Note_on_c, 8, 76, 0
19, 451320, Note_on_c, 8, 78, 80
19, 451679, Note_on_c, 8, 78, 0
19, 451680, Note_on_c, 8, 76, 92
19, 451740, Control_c, 8, 11, 107
19, 452279, Note_on_c, 8, 76, 0
19, 452280, Note_on_c, 8, 74, 92
19, 452399, Note_on_c, 8, 74, 0
19, 452400, Note_on_c, 8, 74, 92
19, 452639, Note_on_c, 8, 74, 0
19, 453000, Control_c, 8, 11, 127
19, 453120, Note_on_c, 8, 76, 80
19, 453479, Note_on_c, 8, 76, 0
19, 453480, Note_on_c, 8, 76, 80
19, 453839, Note_on_c, 8, 76, 0
19, 453840, Note_on_c, 8, 78, 80
19, 454199, Note_on_c, 8, 78, 0
19, 454200, Note_on_c, 8, 74, 80
19, 454559, Note_on_c, 8, 74, 0
19, 454560, Note_on_c, 8, 76, 80
19, 454919, Note_on_c, 8, 76, 0
19, 454920, Note_on_c, 8, 78, 80
19, 455159, Note_on_c, 8, 78, 0
19, 455160, Note_on_c, 8, 79, 80
19, 455279, Note_on_c, 8, 79, 0
19, 455280, Note_on_c, 8, 78, 80
19, 455639, Note_on_c, 8, 78, 0
19, 455640, Note_on_c, 8, 74, 80
19, 455984, Note_on_c, 8, 74, 0
19, 456000, Note_on_c, 8, 76, 80
19, 456359, Note_on_c, 8, 76, 0
19, 456360, Note_on_c, 8, 78, 80
19, 456599, Note_on_c, 8, 78, 0
19, 456600, Note_on_c, 8, 79, 80
19, 456719, Note_on_c, 8, 79, 0
19, 456720, Note_on_c, 8, 78, 80
19, 457079, Note_on_c, 8, 78, 0
19, 457080, Note_on_c, 8, 76, 80
19, 457439, Note_on_c, 8, 76, 0
19, 457440, Note_on_c, 8, 74, 80
19, 457799, Note_on_c, 8, 74, 0
19, 457800, Note_on_c, 8, 76, 80
19, 458159, Note_on_c, 8, 76, 0
19, 458160, Note_on_c, 8, 69, 80
19, 458489, Note_on_c, 8, 69, 0
19, 458520, Note_on_c, 8, 78, 92
19, 459239, Note_on_c, 8, 78, 0
19, 459240, Note_on_c, 8, 78, 92
19, 459599, Note_on_c, 8, 78, 0
19, 459600, Note_on_c, 8, 79, 92
19, 459959, Note_on_c, 8, 79, 0
19, 459960, Note_on_c, 8, 81, 92
19, 460319, Note_on_c, 8, 81, 0
19, 460320, Note_on_c, 8, 81, 92
19, 460679, Note_on_c, 8, 81, 0
19, 460680, Note_on_c, 8, 79, 92
19, 461039, Note_on_c, 8, 79, 0
19, 461040, Note_on_c, 8, 78, 104
19, 461100, Control_c, 8, 11, 107
19, 461399, Note_on_c, 8, 78, 0
19, 461400, Note_on_c, 8, 79, 104
19, 461639, Note_on_c, 8, 79, 0
19, 461640, Note_on_c, 8, 76, 104
19, 461744, Note_on_c, 8, 76, 0
19, 461758, Control_c, 8, 11, 127
19, 461760, Note_on_c, 8, 74, 92
19, 462119, Note_on_c, 8, 74, 0
19, 462120, Note_on_c, 8, 74, 92
19, 462479, Note_on_c, 8, 74, 0
19, 462480, Note_on_c, 8, 76, 92
19, 462839, Note_on_c, 8, 76, 0
19, 462840, Note_on_c, 8, 78, 92
19, 463199, Note_on_c, 8, 78, 0
19, 463200, Note_on_c, 8, 76, 92
19, 463799, Note_on_c, 8, 76, 0
19, 463800, Note_on_c, 8, 74, 92
19, 463919, Note_on_c, 8, 74, 0
19, 463920, Note_on_c, 8, 74, 92
19, 464279, Note_on_c, 8, 74, 0
19, 464640, Note_on_c, 8, 76, 92
19, 464999, Note_on_c, 8, 76, 0
19, 465000, Note_on_c, 8, 76, 92
19, 465359, Note_on_c, 8, 76, 0
19, 465360, Note_on_c, 8, 78, 92
19, 465719, Note_on_c, 8, 78, 0
19, 465720, Note_on_c, 8, 74, 92
19, 466079, Note_on_c, 8, 74, 0
19, 466080, Note_on_c, 8, 76, 92
19, 466439, Note_on_c, 8, 76, 0
19, 466440, Note_on_c, 8, 78, 92
19, 466679, Note_on_c, 8, 78, 0
19, 466680, Note_on_c, 8, 79, 92
19, 466799, Note_on_c, 8, 79, 0
19, 466800, Note_on_c, 8, 78, 92
19, 467159, Note_on_c, 8, 78, 0
19, 467160, Note_on_c, 8, 74, 92
19, 467504, Note_on_c, 8, 74, 0
19, 467520, Note_on_c, 8, 76, 92
19, 467879, Note_on_c, 8, 76, 0
19, 467880, Note_on_c, 8, 78, 92
19, 468119, Note_on_c, 8, 78, 0
19, 468120, Note_on_c, 8, 79, 92
19, 468239, Note_on_c, 8, 79, 0
19, 468240, Note_on_c, 8, 78, 92
19, 468599, Note_on_c, 8, 78, 0
19, 468600, Note_on_c, 8, 76, 92
19, 468959, Note_on_c, 8, 76, 0
19, 468960, Note_on_c, 8, 74, 92
19, 469319, Note_on_c, 8, 74, 0
19, 469320, Note_on_c, 8, 76, 92
19, 469679, Note_on_c, 8, 76, 0
19, 469680, Note_on_c, 8, 69, 92
19, 470009, Note_on_c, 8, 69, 0
19, 470040, Note_on_c, 8, 78, 92
19, 470759, Note_on_c, 8, 78, 0
19, 470760, Note_on_c, 8, 78, 92
19, 471119, Note_on_c, 8, 78, 0
19, 471120, Note_on_c, 8, 79, 92
19, 471479, Note_on_c, 8, 79, 0
19, 471480, Note_on_c, 8, 81, 92
19, 471839, Note_on_c, 8, 81, 0
19, 471840, Note_on_c, 8, 81, 92
19, 472199, Note_on_c, 8, 81, 0
19, 472200, Note_on_c, 8, 79, 92
19, 472559, Note_on_c, 8, 79, 0
19, 472560, Note_on_c, 8, 78, 104
19, 472620, Control_c, 8, 11, 107
19, 472919, Note_on_c, 8, 78, 0
19, 472920, Note_on_c, 8, 79, 104
19, 473159, Note_on_c, 8, 79, 0
19, 473160, Note_on_c, 8, 76, 104
19, 473249, Note_on_c, 8, 76, 0
19, 473280, Note_on_c, 8, 74, 104
19, 473639, Note_on_c, 8, 74, 0
19, 473640, Note_on_c, 8, 74, 104
19, 473999, Note_on_c, 8, 74, 0
19, 474000, Note_on_c, 8, 76, 104
19, 474359, Note_on_c, 8, 76, 0
19, 474360, Note_on_c, 8, 78, 104
19, 474719, Note_on_c, 8, 78, 0
19, 474720, Note_on_c, 8, 76, 104
19, 475319, Note_on_c, 8, 76, 0
19, 475320, Note_on_c, 8, 74, 104
19, 475439, Note_on_c, 8, 74, 0
19, 475440, Note_on_c, 8, 74, 104
19, 475799, Note_on_c, 8, 74, 0
19, 490560, Control_c, 8, 11, 127
19, 492000, Note_on_c, 8, 79, 80
19, 492959, Note_on_c, 8, 79, 0
19, 492960, Note_on_c, 8, 79, 80
19, 493319, Note_on_c, 8, 79, 0
19, 493440, Note_on_c, 8, 78, 80
19, 493799, Note_on_c, 8, 78, 0
19, 493920, Note_on_c, 8, 74, 80
19, 494279, Note_on_c, 8, 74, 0
19, 494400, Note_on_c, 8, 76, 80
19, 495839, Note_on_c, 8, 76, 0
19, 495840, Note_on_c, 8, 76, 80
19, 496319, Note_on_c, 8, 76, 0
19, 496320, Note_on_c, 8, 74, 80
19, 496799, Note_on_c, 8, 74, 0
19, 496800, Note_on_c, 8, 71, 80
19, 497279, Note_on_c, 8, 71, 0
19, 497760, Note_on_c, 8, 72, 80
19, 498719, Note_on_c, 8, 72, 0
19, 498720, Note_on_c, 8, 72, 80
19, 499199, Note_on_c, 8, 72, 0
19, 499200, Note_on_c, 8, 71, 80
19, 499679, Note_on_c, 8, 71, 0
19, 500160, Note_on_c, 8, 67, 80
19, 500639, Note_on_c, 8, 67, 0
19, 500640, Note_on_c, 8, 76, 92
19, 501599, Note_on_c, 8, 76, 0
19, 501600, Note_on_c, 8, 76, 92
19, 502079, Note_on_c, 8, 76, 0
19, 502080, Note_on_c, 8, 74, 92
19, 503519, Note_on_c, 8, 74, 0
19, 515040, Note_on_c, 8, 72, 92
19, 515519, Note_on_c, 8, 72, 0
19, 515520, Note_on_c, 8, 74, 92
19, 516239, Note_on_c, 8, 74, 0
19, 516240, Note_on_c, 8, 72, 92
19, 516479, Note_on_c, 8, 72, 0
19, 516960, Note_on_c, 8, 77, 92
19, 517679, Note_on_c, 8, 77, 0
19, 517680, Note_on_c, 8, 77, 92
19, 517919, Note_on_c, 8, 77, 0
19, 517920, Note_on_c, 8, 77, 92
19, 518879, Note_on_c, 8, 77, 0
19, 518880, Note_on_c, 8, 77, 92
19, 519359, Note_on_c, 8, 77, 0
19, 519360, Note_on_c, 8, 77, 92
19, 520319, Note_on_c, 8, 77, 0
19, 520800, Note_on_c, 8, 74, 104
19, 520880, Control_c, 8, 11, 107
19, 521759, Note_on_c, 8, 74, 0
19, 521760, Note_on_c, 8, 72, 104
19, 522239, Note_on_c, 8, 72, 0
19, 522240, Note_on_c, 8, 72, 104
19, 522719, Note_on_c, 8, 72, 0
19, 522720, Note_on_c, 8, 69, 104
19, 523199, Note_on_c, 8, 69, 0
19, 523200, Note_on_c, 8, 67, 104
19, 523679, Note_on_c, 8, 67, 0
19, 523680, Note_on_c, 8, 77, 104
19, 524639, Note_on_c, 8, 77, 0
19, 524640, Note_on_c, 8, 76, 104
19, 525119, Note_on_c, 8, 76, 0
19, 525120, Note_on_c, 8, 76, 104
19, 525599, Note_on_c, 8, 76, 0
19, 525600, Note_on_c, 8, 74, 104
19, 526079, Note_on_c, 8, 74, 0
19, 531840, Control_c, 8, 11, 89
19, 532320, Note_on_c, 8, 74, 68
19, 532320, Control_c, 8, 11, 89
19, 532360, Control_c, 8, 11, 92
19, 532400, Control_c, 8, 11, 95
19, 532440, Control_c, 8, 11, 99
19, 532480, Control_c, 8, 11, 101
19, 532520, Control_c, 8, 11, 105
19, 532560, Control_c, 8, 11, 109
19, 532600, Control_c, 8, 11, 111
19, 532640, Control_c, 8, 11, 115
19, 532680, Control_c, 8, 11, 117
19, 532720, Control_c, 8, 11, 121
19, 532760, Control_c, 8, 11, 124
19, 532800, Control_c, 8, 11, 127
19, 532840, Control_c, 8, 11, 124
19, 532880, Control_c, 8, 11, 121
19, 532920, Control_c, 8, 11, 117
19, 532960, Control_c, 8, 11, 115
19, 533000, Control_c, 8, 11, 111
19, 533040, Control_c, 8, 11, 109
19, 533080, Control_c, 8, 11, 105
19, 533120, Control_c, 8, 11, 101
19, 533160, Control_c, 8, 11, 99
19, 533200, Control_c, 8, 11, 95
19, 533240, Control_c, 8, 11, 92
19, 533280, Control_c, 8, 11, 89
19, 533519, Note_on_c, 8, 74, 0
19, 533520, Note_on_c, 8, 67, 68
19, 533759, Note_on_c, 8, 67, 0
19, 533760, Note_on_c, 8, 64, 68
19, 534119, Note_on_c, 8, 64, 0
19, 534240, Note_on_c, 8, 64, 68
19, 534599, Note_on_c, 8, 64, 0
19, 535200, Note_on_c, 8, 64, 68
19, 535200, Control_c, 8, 11, 89
19, 535263, Control_c, 8, 11, 90
19, 535326, Control_c, 8, 11, 91
19, 535389, Control_c, 8, 11, 92
19, 535453, Control_c, 8, 11, 93
19, 535516, Control_c, 8, 11, 94
19, 535579, Control_c, 8, 11, 95
19, 535642, Control_c, 8, 11, 96
19, 535679, Note_on_c, 8, 64, 0
19, 535680, Note_on_c, 8, 66, 68
19, 535705, Control_c, 8, 11, 97
19, 535768, Control_c, 8, 11, 98
19, 535832, Control_c, 8, 11, 99
19, 535895, Control_c, 8, 11, 100
19, 535958, Control_c, 8, 11, 101
19, 536021, Control_c, 8, 11, 102
19, 536084, Control_c, 8, 11, 103
19, 536147, Control_c, 8, 11, 104
19, 536211, Control_c, 8, 11, 105
19, 536274, Control_c, 8, 11, 106
19, 536337, Control_c, 8, 11, 107
19, 536399, Note_on_c, 8, 66, 0
19, 536400, Note_on_c, 8, 67, 68
19, 536400, Control_c, 8, 11, 108
19, 536463, Control_c, 8, 11, 109
19, 536526, Control_c, 8, 11, 110
19, 536589, Control_c, 8, 11, 111
19, 536639, Note_on_c, 8, 67, 0
19, 536640, Note_on_c, 8, 67, 68
19, 536653, Control_c, 8, 11, 112
19, 536716, Control_c, 8, 11, 113
19, 536779, Control_c, 8, 11, 114
19, 536842, Control_c, 8, 11, 115
19, 536905, Control_c, 8, 11, 116
19, 536968, Control_c, 8, 11, 117
19, 536999, Note_on_c, 8, 67, 0
19, 537032, Control_c, 8, 11, 118
19, 537095, Control_c, 8, 11, 119
19, 537120, Note_on_c, 8, 69, 68
19, 537158, Control_c, 8, 11, 120
19, 537221, Control_c, 8, 11, 121
19, 537284, Control_c, 8, 11, 122
19, 537347, Control_c, 8, 11, 123
19, 537411, Control_c, 8, 11, 124
19, 537474, Control_c, 8, 11, 125
19, 537479, Note_on_c, 8, 69, 0
19, 537537, Control_c, 8, 11, 126
19, 538078, Control_c, 8, 11, 49
19, 538080, Note_on_c, 8, 70, 92
19, 538080, Control_c, 8, 11, 49
19, 538135, Control_c, 8, 11, 50
19, 538191, Control_c, 8, 11, 51
19, 538246, Control_c, 8, 11, 52
19, 538302, Control_c, 8, 11, 53
19, 538357, Control_c, 8, 11, 54
19, 538412, Control_c, 8, 11, 55
19, 538468, Control_c, 8, 11, 56
19, 538523, Control_c, 8, 11, 57
19, 538578, Control_c, 8, 11, 58
19, 538634, Control_c, 8, 11, 59
19, 538689, Control_c, 8, 11, 60
19, 538745, Control_c, 8, 11, 61
19, 538800, Control_c, 8, 11, 62
19, 538855, Control_c, 8, 11, 63
19, 538911, Control_c, 8, 11, 64
19, 538966, Control_c, 8, 11, 65
19, 539022, Control_c, 8, 11, 66
19, 539039, Note_on_c, 8, 70, 0
19, 539040, Note_on_c, 8, 70, 92
19, 539077, Control_c, 8, 11, 67
19, 539132, Control_c, 8, 11, 68
19, 539188, Control_c, 8, 11, 69
19, 539243, Control_c, 8, 11, 70
19, 539298, Control_c, 8, 11, 71
19, 539354, Control_c, 8, 11, 72
19, 539409, Control_c, 8, 11, 73
19, 539465, Control_c, 8, 11, 74
19, 539519, Note_on_c, 8, 70, 0
19, 539520, Control_c, 8, 11, 75
19, 539520, Note_on_c, 8, 72, 92
19, 539575, Control_c, 8, 11, 76
19, 539631, Control_c, 8, 11, 77
19, 539686, Control_c, 8, 11, 78
19, 539742, Control_c, 8, 11, 79
19, 539797, Control_c, 8, 11, 80
19, 539852, Control_c, 8, 11, 81
19, 539908, Control_c, 8, 11, 82
19, 539963, Control_c, 8, 11, 83
19, 540018, Control_c, 8, 11, 84
19, 540074, Control_c, 8, 11, 85
19, 540129, Control_c, 8, 11, 86
19, 540185, Control_c, 8, 11, 87
19, 540240, Control_c, 8, 11, 88
19, 540295, Control_c, 8, 11, 89
19, 540351, Control_c, 8, 11, 90
19, 540406, Control_c, 8, 11, 91
19, 540462, Control_c, 8, 11, 92
19, 540479, Note_on_c, 8, 72, 0
19, 540480, Note_on_c, 8, 72, 92
19, 540517, Control_c, 8, 11, 93
19, 540572, Control_c, 8, 11, 94
19, 540628, Control_c, 8, 11, 95
19, 540683, Control_c, 8, 11, 96
19, 540738, Control_c, 8, 11, 97
19, 540794, Control_c, 8, 11, 98
19, 540849, Control_c, 8, 11, 99
19, 540905, Control_c, 8, 11, 100
19, 540959, Note_on_c, 8, 72, 0
19, 540960, Control_c, 8, 11, 101
19, 540960, Note_on_c, 8, 74, 92
19, 541015, Control_c, 8, 11, 102
19, 541071, Control_c, 8, 11, 103
19, 541126, Control_c, 8, 11, 104
19, 541182, Control_c, 8, 11, 105
19, 541237, Control_c, 8, 11, 106
19, 541292, Control_c, 8, 11, 107
19, 541348, Control_c, 8, 11, 108
19, 541403, Control_c, 8, 11, 109
19, 541439, Note_on_c, 8, 74, 0
19, 541440, Note_on_c, 8, 74, 92
19, 541458, Control_c, 8, 11, 110
19, 541514, Control_c, 8, 11, 111
19, 541569, Control_c, 8, 11, 112
19, 541625, Control_c, 8, 11, 113
19, 541680, Control_c, 8, 11, 114
19, 541735, Control_c, 8, 11, 115
19, 541791, Control_c, 8, 11, 116
19, 541846, Control_c, 8, 11, 117
19, 541902, Control_c, 8, 11, 118
19, 541919, Note_on_c, 8, 74, 0
19, 542345, Control_c, 8, 11, 127
19, 542400, Note_on_c, 8, 76, 92
19, 543359, Note_on_c, 8, 76, 0
19, 543838, Control_c, 8, 11, 49
19, 543840, Note_on_c, 8, 67, 80
19, 544799, Note_on_c, 8, 67, 0
19, 544800, Note_on_c, 8, 67, 80
19, 545279, Note_on_c, 8, 67, 0
19, 545280, Note_on_c, 8, 76, 80
19, 545280, Control_c, 8, 11, 49
19, 545317, Control_c, 8, 11, 50
19, 545354, Control_c, 8, 11, 51
19, 545391, Control_c, 8, 11, 52
19, 545428, Control_c, 8, 11, 53
19, 545465, Control_c, 8, 11, 54
19, 545502, Control_c, 8, 11, 55
19, 545538, Control_c, 8, 11, 56
19, 545575, Control_c, 8, 11, 57
19, 545612, Control_c, 8, 11, 58
19, 545649, Control_c, 8, 11, 59
19, 545686, Control_c, 8, 11, 60
19, 545723, Control_c, 8, 11, 61
19, 545760, Control_c, 8, 11, 62
19, 545797, Control_c, 8, 11, 63
19, 545834, Control_c, 8, 11, 64
19, 545871, Control_c, 8, 11, 65
19, 545908, Control_c, 8, 11, 66
19, 545945, Control_c, 8, 11, 67
19, 545982, Control_c, 8, 11, 68
19, 546018, Control_c, 8, 11, 69
19, 546055, Control_c, 8, 11, 70
19, 546092, Control_c, 8, 11, 71
19, 546129, Control_c, 8, 11, 72
19, 546166, Control_c, 8, 11, 73
19, 546203, Control_c, 8, 11, 74
19, 546239, Note_on_c, 8, 76, 0
19, 546240, Note_on_c, 8, 76, 80
19, 546240, Control_c, 8, 11, 75
19, 546277, Control_c, 8, 11, 76
19, 546314, Control_c, 8, 11, 77
19, 546351, Control_c, 8, 11, 78
19, 546388, Control_c, 8, 11, 79
19, 546425, Control_c, 8, 11, 80
19, 546462, Control_c, 8, 11, 81
19, 546498, Control_c, 8, 11, 82
19, 546535, Control_c, 8, 11, 83
19, 546572, Control_c, 8, 11, 84
19, 546609, Control_c, 8, 11, 85
19, 546646, Control_c, 8, 11, 86
19, 546683, Control_c, 8, 11, 87
19, 546719, Note_on_c, 8, 76, 0
19, 546720, Control_c, 8, 11, 88
19, 546720, Note_on_c, 8, 77, 80
19, 546757, Control_c, 8, 11, 89
19, 546794, Control_c, 8, 11, 90
19, 546831, Control_c, 8, 11, 91
19, 546868, Control_c, 8, 11, 92
19, 546905, Control_c, 8, 11, 93
19, 546942, Control_c, 8, 11, 94
19, 546978, Control_c, 8, 11, 95
19, 547015, Control_c, 8, 11, 96
19, 547052, Control_c, 8, 11, 97
19, 547089, Control_c, 8, 11, 98
19, 547126, Control_c, 8, 11, 99
19, 547163, Control_c, 8, 11, 100
19, 547200, Control_c, 8, 11, 101
19, 547237, Control_c, 8, 11, 102
19, 547274, Control_c, 8, 11, 103
19, 547311, Control_c, 8, 11, 104
19, 547348, Control_c, 8, 11, 105
19, 547385, Control_c, 8, 11, 106
19, 547422, Control_c, 8, 11, 107
19, 547458, Control_c, 8, 11, 108
19, 547495, Control_c, 8, 11, 109
19, 547532, Control_c, 8, 11, 110
19, 547569, Control_c, 8, 11, 111
19, 547606, Control_c, 8, 11, 112
19, 547643, Control_c, 8, 11, 113
19, 547679, Note_on_c, 8, 77, 0
19, 547680, Note_on_c, 8, 77, 80
19, 547680, Control_c, 8, 11, 114
19, 547717, Control_c, 8, 11, 115
19, 547754, Control_c, 8, 11, 116
19, 547791, Control_c, 8, 11, 117
19, 547828, Control_c, 8, 11, 118
19, 547865, Control_c, 8, 11, 119
19, 547902, Control_c, 8, 11, 120
19, 547938, Control_c, 8, 11, 121
19, 547975, Control_c, 8, 11, 122
19, 548012, Control_c, 8, 11, 123
19, 548049, Control_c, 8, 11, 124
19, 548086, Control_c, 8, 11, 125
19, 548123, Control_c, 8, 11, 127
19, 548159, Note_on_c, 8, 77, 0
19, 548160, Note_on_c, 8, 78, 80
19, 549599, Note_on_c, 8, 78, 0
19, 550080, Note_on_c, 8, 79, 92
19, 550799, Note_on_c, 8, 79, 0
19, 550800, Note_on_c, 8, 79, 92
19, 551039, Note_on_c, 8, 79, 0
19, 551040, Note_on_c, 8, 79, 92
19, 551999, Note_on_c, 8, 79, 0
19, 552000, Note_on_c, 8, 79, 92
19, 552479, Note_on_c, 8, 79, 0
19, 552480, Note_on_c, 8, 79, 92
19, 552959, Note_on_c, 8, 79, 0
19, 552960, Note_on_c, 8, 79, 92
19, 553919, Note_on_c, 8, 79, 0
19, 553920, Note_on_c, 8, 79, 104
19, 553980, Control_c, 8, 11, 107
19, 554879, Note_on_c, 8, 79, 0
19, 554880, Note_on_c, 8, 79, 104
19, 555359, Note_on_c, 8, 79, 0
19, 559680, Control_c, 8, 11, 127
19, 560160, Note_on_c, 8, 79, 32
19, 560879, Note_on_c, 8, 79, 0
19, 560880, Note_on_c, 8, 79, 32
19, 561119, Note_on_c, 8, 79, 0
19, 561120, Note_on_c, 8, 79, 32
19, 562079, Note_on_c, 8, 79, 0
19, 562080, Note_on_c, 8, 79, 32
19, 562559, Note_on_c, 8, 79, 0
19, 562560, Note_on_c, 8, 79, 32
19, 563039, Note_on_c, 8, 79, 0
19, 563040, Note_on_c, 8, 79, 32
19, 563999, Note_on_c, 8, 79, 0
19, 564000, Note_on_c, 8, 79, 32
19, 566399, Note_on_c, 8, 79, 0
19, 566400, Note_on_c, 8, 79, 32
19, 566879, Note_on_c, 8, 79, 0
19, 568320, Note_on_c, 8, 78, 80
19, 568799, Note_on_c, 8, 78, 0
19, 568800, Note_on_c, 8, 78, 80
19, 569024, Note_on_c, 8, 78, 0
19, 569040, Note_on_c, 8, 79, 80
19, 569519, Note_on_c, 8, 79, 0
19, 569520, Note_on_c, 8, 81, 80
19, 569759, Note_on_c, 8, 81, 0
19, 569760, Note_on_c, 8, 81, 80
19, 570239, Note_on_c, 8, 81, 0
19, 570240, Note_on_c, 8, 79, 80
19, 570479, Note_on_c, 8, 79, 0
19, 570480, Note_on_c, 8, 78, 80
19, 570959, Note_on_c, 8, 78, 0
19, 570960, Note_on_c, 8, 76, 80
19, 571184, Note_on_c, 8, 76, 0
19, 571200, Note_on_c, 8, 74, 80
19, 571679, Note_on_c, 8, 74, 0
19, 571680, Note_on_c, 8, 74, 80
19, 571919, Note_on_c, 8, 74, 0
19, 571920, Note_on_c, 8, 76, 80
19, 572399, Note_on_c, 8, 76, 0
19, 572400, Note_on_c, 8, 78, 80
19, 572639, Note_on_c, 8, 78, 0
19, 572640, Note_on_c, 8, 78, 80
19, 573119, Note_on_c, 8, 78, 0
19, 573120, Note_on_c, 8, 76, 80
19, 573359, Note_on_c, 8, 76, 0
19, 573360, Note_on_c, 8, 74, 80
19, 573839, Note_on_c, 8, 74, 0
19, 573840, Note_on_c, 8, 73, 80
19, 574049, Note_on_c, 8, 73, 0
19, 574080, Note_on_c, 8, 71, 80
19, 574559, Note_on_c, 8, 71, 0
19, 574560, Note_on_c, 8, 71, 80
19, 574799, Note_on_c, 8, 71, 0
19, 574800, Note_on_c, 8, 73, 80
19, 575279, Note_on_c, 8, 73, 0
19, 575280, Note_on_c, 8, 74, 80
19, 575519, Note_on_c, 8, 74, 0
19, 575520, Note_on_c, 8, 74, 80
19, 575999, Note_on_c, 8, 74, 0
19, 576000, Note_on_c, 8, 73, 80
19, 576239, Note_on_c, 8, 73, 0
19, 576240, Note_on_c, 8, 71, 80
19, 576719, Note_on_c, 8, 71, 0
19, 576720, Note_on_c, 8, 69, 80
19, 576944, Note_on_c, 8, 69, 0
19, 576960, Note_on_c, 8, 67, 80
19, 577439, Note_on_c, 8, 67, 0
19, 577440, Note_on_c, 8, 66, 80
19, 577679, Note_on_c, 8, 66, 0
19, 577680, Note_on_c, 8, 64, 80
19, 578159, Note_on_c, 8, 64, 0
19, 578160, Note_on_c, 8, 62, 80
19, 578399, Note_on_c, 8, 62, 0
19, 578400, Note_on_c, 8, 69, 80
19, 578879, Note_on_c, 8, 69, 0
19, 578880, Note_on_c, 8, 69, 80
19, 579119, Note_on_c, 8, 69, 0
19, 579120, Note_on_c, 8, 69, 80
19, 579599, Note_on_c, 8, 69, 0
19, 581280, Note_on_c, 8, 76, 80
19, 581759, Note_on_c, 8, 76, 0
19, 581760, Note_on_c, 8, 76, 80
19, 581999, Note_on_c, 8, 76, 0
19, 584160, Note_on_c, 8, 81, 80
19, 584639, Note_on_c, 8, 81, 0
19, 584640, Note_on_c, 8, 81, 80
19, 584879, Note_on_c, 8, 81, 0
19, 586320, Note_on_c, 8, 78, 80
19, 586799, Note_on_c, 8, 78, 0
19, 586800, Note_on_c, 8, 78, 80
19, 587039, Note_on_c, 8, 78, 0
19, 587040, Note_on_c, 8, 78, 80
19, 587519, Note_on_c, 8, 78, 0
19, 587520, Note_on_c, 8, 76, 80
19, 587759, Note_on_c, 8, 76, 0
19, 587760, Note_on_c, 8, 81, 80
19, 588239, Note_on_c, 8, 81, 0
19, 588240, Note_on_c, 8, 79, 80
19, 588479, Note_on_c, 8, 79, 0
19, 588480, Note_on_c, 8, 78, 80
19, 588959, Note_on_c, 8, 78, 0
19, 588960, Note_on_c, 8, 76, 80
19, 589199, Note_on_c, 8, 76, 0
19, 589200, Note_on_c, 8, 74, 80
19, 589679, Note_on_c, 8, 74, 0
19, 589680, Note_on_c, 8, 73, 80
19, 589919, Note_on_c, 8, 73, 0
19, 589920, Note_on_c, 8, 76, 80
19, 590399, Note_on_c, 8, 76, 0
19, 590400, Note_on_c, 8, 74, 80
19, 590639, Note_on_c, 8, 74, 0
19, 590640, Note_on_c, 8, 76, 80
19, 591119, Note_on_c, 8, 76, 0
19, 591120, Note_on_c, 8, 78, 80
19, 593279, Note_on_c, 8, 78, 0
19, 593280, Note_on_c, 8, 76, 80
19, 593519, Note_on_c, 8, 76, 0
19, 593520, Note_on_c, 8, 74, 80
19, 593999, Note_on_c, 8, 74, 0
19, 594000, Note_on_c, 8, 73, 80
19, 594239, Note_on_c, 8, 73, 0
19, 594240, Note_on_c, 8, 74, 80
19, 596159, Note_on_c, 8, 74, 0
19, 596160, Note_on_c, 8, 73, 80
19, 596399, Note_on_c, 8, 73, 0
19, 596400, Note_on_c, 8, 71, 80
19, 596879, Note_on_c, 8, 71, 0
19, 596880, Note_on_c, 8, 69, 80
19, 597119, Note_on_c, 8, 69, 0
19, 597120, Note_on_c, 8, 71, 80
19, 598319, Note_on_c, 8, 71, 0
19, 598320, Note_on_c, 8, 71, 80
19, 598559, Note_on_c, 8, 71, 0
19, 598560, Note_on_c, 8, 69, 80
19, 599999, Note_on_c, 8, 69, 0
19, 602160, Note_on_c, 8, 81, 80
19, 603599, Note_on_c, 8, 81, 0
19, 603600, Note_on_c, 8, 81, 80
19, 604319, Note_on_c, 8, 81, 0
19, 604320, Note_on_c, 8, 80, 80
19, 605039, Note_on_c, 8, 80, 0
19, 605040, Note_on_c, 8, 76, 80
19, 605744, Note_on_c, 8, 76, 0
19, 605760, Note_on_c, 8, 78, 80
19, 606479, Note_on_c, 8, 78, 0
19, 606480, Note_on_c, 8, 78, 80
19, 607199, Note_on_c, 8, 78, 0
19, 607200, Note_on_c, 8, 76, 80
19, 607919, Note_on_c, 8, 76, 0
19, 607920, Note_on_c, 8, 73, 80
19, 608609, Note_on_c, 8, 73, 0
19, 608640, Note_on_c, 8, 74, 80
19, 609359, Note_on_c, 8, 74, 0
19, 609360, Note_on_c, 8, 74, 80
19, 610079, Note_on_c, 8, 74, 0
19, 610080, Note_on_c, 8, 73, 80
19, 610799, Note_on_c, 8, 73, 0
19, 610800, Note_on_c, 8, 69, 80
19, 611519, Note_on_c, 8, 69, 0
19, 611520, Note_on_c, 8, 79, 80
19, 612239, Note_on_c, 8, 79, 0
19, 612240, Note_on_c, 8, 79, 80
19, 612959, Note_on_c, 8, 79, 0
19, 612960, Note_on_c, 8, 78, 80
19, 613679, Note_on_c, 8, 78, 0
19, 614400, Note_on_c, 8, 78, 80
19, 615119, Note_on_c, 8, 78, 0
19, 615120, Note_on_c, 8, 78, 80
19, 615839, Note_on_c, 8, 78, 0
19, 615840, Note_on_c, 8, 78, 80
19, 616559, Note_on_c, 8, 78, 0
19, 616560, Note_on_c, 8, 71, 80
19, 617279, Note_on_c, 8, 71, 0
19, 617280, Note_on_c, 8, 81, 80
19, 617999, Note_on_c, 8, 81, 0
19, 618000, Note_on_c, 8, 81, 80
19, 618719, Note_on_c, 8, 81, 0
19, 618720, Note_on_c, 8, 80, 80
19, 619409, Note_on_c, 8, 80, 0
19, 619440, Note_on_c, 8, 79, 80
19, 620159, Note_on_c, 8, 79, 0
19, 620160, Note_on_c, 8, 79, 80
19, 620879, Note_on_c, 8, 79, 0
19, 620880, Note_on_c, 8, 79, 80
19, 621599, Note_on_c, 8, 79, 0
19, 621600, Note_on_c, 8, 78, 80
19, 622319, Note_on_c, 8, 78, 0
19, 623040, Note_on_c, 8, 78, 80
19, 623519, Note_on_c, 8, 78, 0
19, 623520, Note_on_c, 8, 78, 80
19, 623744, Note_on_c, 8, 78, 0
19, 623760, Note_on_c, 8, 79, 80
19, 624239, Note_on_c, 8, 79, 0
19, 624240, Note_on_c, 8, 81, 80
19, 624479, Note_on_c, 8, 81, 0
19, 624480, Note_on_c, 8, 81, 80
19, 624959, Note_on_c, 8, 81, 0
19, 624960, Note_on_c, 8, 79, 80
19, 625199, Note_on_c, 8, 79, 0
19, 625200, Note_on_c, 8, 78, 80
19, 625679, Note_on_c, 8, 78, 0
19, 625680, Note_on_c, 8, 76, 80
19, 625904, Note_on_c, 8, 76, 0
19, 625920, Note_on_c, 8, 74, 80
19, 626399, Note_on_c, 8, 74, 0
19, 626400, Note_on_c, 8, 74, 80
19, 626639, Note_on_c, 8, 74, 0
19, 626640, Note_on_c, 8, 76, 80
19, 627119, Note_on_c, 8, 76, 0
19, 627120, Note_on_c, 8, 78, 80
19, 627359, Note_on_c, 8, 78, 0
19, 627360, Note_on_c, 8, 78, 80
19, 627839, Note_on_c, 8, 78, 0
19, 627840, Note_on_c, 8, 76, 80
19, 628079, Note_on_c, 8, 76, 0
19, 628080, Note_on_c, 8, 74, 80
19, 628559, Note_on_c, 8, 74, 0
19, 628560, Note_on_c, 8, 73, 80
19, 628784, Note_on_c, 8, 73, 0
19, 628800, Note_on_c, 8, 71, 80
19, 629279, Note_on_c, 8, 71, 0
19, 629280, Note_on_c, 8, 71, 80
19, 629519, Note_on_c, 8, 71, 0
19, 629520, Note_on_c, 8, 73, 80
19, 629999, Note_on_c, 8, 73, 0
19, 630000, Note_on_c, 8, 74, 80
19, 630239, Note_on_c, 8, 74, 0
19, 630240, Note_on_c, 8, 74, 80
19, 630719, Note_on_c, 8, 74, 0
19, 630720, Note_on_c, 8, 73, 80
19, 630959, Note_on_c, 8, 73, 0
19, 630960, Note_on_c, 8, 71, 80
19, 631439, Note_on_c, 8, 71, 0
19, 631440, Note_on_c, 8, 69, 80
19, 631679, Note_on_c, 8, 69, 0
19, 631680, Note_on_c, 8, 68, 80
19, 632159, Note_on_c, 8, 68, 0
19, 632160, Note_on_c, 8, 66, 80
19, 632399, Note_on_c, 8, 66, 0
19, 632400, Note_on_c, 8, 64, 80
19, 632879, Note_on_c, 8, 64, 0
19, 632880, Note_on_c, 8, 74, 80
19, 633119, Note_on_c, 8, 74, 0
19, 633840, Note_on_c, 8, 69, 80
19, 635279, Note_on_c, 8, 69, 0
19, 635280, Note_on_c, 8, 69, 80
19, 635999, Note_on_c, 8, 69, 0
19, 636000, Note_on_c, 8, 68, 80
19, 636719, Note_on_c, 8, 68, 0
19, 636720, Note_on_c, 8, 64, 80
19, 637439, Note_on_c, 8, 64, 0
19, 639600, Note_on_c, 8, 78, 80
19, 641039, Note_on_c, 8, 78, 0
19, 641040, Note_on_c, 8, 78, 80
19, 641759, Note_on_c, 8, 78, 0
19, 641760, Note_on_c, 8, 77, 80
19, 642479, Note_on_c, 8, 77, 0
19, 642480, Note_on_c, 8, 73, 80
19, 643184, Note_on_c, 8, 73, 0
19, 643200, Note_on_c, 8, 76, 80
19, 643919, Note_on_c, 8, 76, 0
19, 643920, Note_on_c, 8, 76, 80
19, 644639, Note_on_c, 8, 76, 0
19, 644640, Note_on_c, 8, 75, 80
19, 645359, Note_on_c, 8, 75, 0
19, 645360, Note_on_c, 8, 71, 80
19, 646049, Note_on_c, 8, 71, 0
19, 646080, Note_on_c, 8, 78, 80
19, 647279, Note_on_c, 8, 78, 0
19, 647280, Note_on_c, 8, 74, 80
19, 647519, Note_on_c, 8, 74, 0
19, 647520, Note_on_c, 8, 76, 80
19, 647999, Note_on_c, 8, 76, 0
19, 648000, Note_on_c, 8, 73, 80
19, 648239, Note_on_c, 8, 73, 0
19, 648240, Note_on_c, 8, 74, 80
19, 648719, Note_on_c, 8, 74, 0
19, 648720, Note_on_c, 8, 76, 80
19, 648959, Note_on_c, 8, 76, 0
19, 648960, Note_on_c, 8, 70, 80
19, 649679, Note_on_c, 8, 70, 0
19, 649680, Note_on_c, 8, 71, 80
19, 650159, Note_on_c, 8, 71, 0
19, 650160, Note_on_c, 8, 70, 80
19, 650399, Note_on_c, 8, 70, 0
19, 650400, Note_on_c, 8, 71, 80
19, 651089, Note_on_c, 8, 71, 0
19, 651120, Note_on_c, 8, 75, 80
19, 652559, Note_on_c, 8, 75, 0
19, 652560, Note_on_c, 8, 75, 80
19, 653279, Note_on_c, 8, 75, 0
19, 653280, Note_on_c, 8, 76, 80
19, 653999, Note_on_c, 8, 76, 0
19, 654000, Note_on_c, 8, 76, 80
19, 654719, Note_on_c, 8, 76, 0
19, 654720, Note_on_c, 8, 80, 80
19, 655439, Note_on_c, 8, 80, 0
19, 655440, Note_on_c, 8, 80, 80
19, 656159, Note_on_c, 8, 80, 0
19, 656160, Note_on_c, 8, 81, 80
19, 656849, Note_on_c, 8, 81, 0
19, 656880, Note_on_c, 8, 69, 80
19, 657599, Note_on_c, 8, 69, 0
19, 657600, Note_on_c, 8, 81, 80
19, 658319, Note_on_c, 8, 81, 0
19, 658320, Note_on_c, 8, 81, 80
19, 659039, Note_on_c, 8, 81, 0
19, 659040, Note_on_c, 8, 81, 92
19, 671249, Note_on_c, 8, 81, 0
19, 671280, Note_on_c, 8, 81, 92
19, 671999, Note_on_c, 8, 81, 0
19, 672000, Note_on_c, 8, 81, 92
19, 672719, Note_on_c, 8, 81, 0
19, 672720, Note_on_c, 8, 81, 92
19, 673439, Note_on_c, 8, 81, 0
19, 673440, Note_on_c, 8, 81, 92
19, 676319, Note_on_c, 8, 81, 0
19, 692160, Control_c, 8, 11, 102
19, 693600, Note_on_c, 8, 70, 80
19, 693749, Control_c, 8, 11, 103
19, 693923, Control_c, 8, 11, 104
19, 694079, Note_on_c, 8, 70, 0
19, 694097, Control_c, 8, 11, 105
19, 694270, Control_c, 8, 11, 106
19, 694444, Control_c, 8, 11, 107
19, 694618, Control_c, 8, 11, 108
19, 694792, Control_c, 8, 11, 109
19, 694800, Note_on_c, 8, 70, 80
19, 694966, Control_c, 8, 11, 110
19, 695039, Note_on_c, 8, 70, 0
19, 695040, Note_on_c, 8, 79, 80
19, 695139, Control_c, 8, 11, 111
19, 695313, Control_c, 8, 11, 112
19, 695487, Control_c, 8, 11, 113
19, 695519, Note_on_c, 8, 79, 0
19, 695661, Control_c, 8, 11, 114
19, 695834, Control_c, 8, 11, 115
19, 696008, Control_c, 8, 11, 116
19, 696182, Control_c, 8, 11, 117
19, 696240, Note_on_c, 8, 79, 80
19, 696356, Control_c, 8, 11, 118
19, 696479, Note_on_c, 8, 79, 0
19, 696480, Note_on_c, 8, 80, 80
19, 696530, Control_c, 8, 11, 119
19, 696703, Control_c, 8, 11, 120
19, 696877, Control_c, 8, 11, 121
19, 696959, Note_on_c, 8, 80, 0
19, 697051, Control_c, 8, 11, 122
19, 697225, Control_c, 8, 11, 123
19, 697399, Control_c, 8, 11, 124
19, 697572, Control_c, 8, 11, 125
19, 697680, Note_on_c, 8, 80, 80
19, 697746, Control_c, 8, 11, 127
19, 697919, Note_on_c, 8, 80, 0
19, 697920, Note_on_c, 8, 81, 80
19, 698609, Note_on_c, 8, 81, 0
19, 698640, Note_on_c, 8, 76, 92
19, 698720, Control_c, 8, 11, 107
19, 700079, Note_on_c, 8, 76, 0
19, 700080, Note_on_c, 8, 76, 92
19, 700799, Note_on_c, 8, 76, 0
19, 702238, Control_c, 8, 11, 127
19, 702240, Note_on_c, 8, 76, 80
19, 702959, Note_on_c, 8, 76, 0
19, 702960, Note_on_c, 8, 76, 80
19, 703679, Note_on_c, 8, 76, 0
19, 704160, Control_c, 8, 11, 69
19, 704400, Note_on_c, 8, 76, 80
19, 705839, Note_on_c, 8, 76, 0
19, 705840, Note_on_c, 8, 76, 80
19, 706559, Note_on_c, 8, 76, 0
19, 706560, Note_on_c, 8, 80, 80
19, 706560, Control_c, 8, 11, 69
19, 706606, Control_c, 8, 11, 70
19, 706651, Control_c, 8, 11, 71
19, 706697, Control_c, 8, 11, 72
19, 706742, Control_c, 8, 11, 73
19, 706788, Control_c, 8, 11, 74
19, 706833, Control_c, 8, 11, 75
19, 706879, Control_c, 8, 11, 76
19, 706924, Control_c, 8, 11, 77
19, 706970, Control_c, 8, 11, 78
19, 707015, Control_c, 8, 11, 79
19, 707061, Control_c, 8, 11, 80
19, 707106, Control_c, 8, 11, 81
19, 707152, Control_c, 8, 11, 82
19, 707197, Control_c, 8, 11, 83
19, 707243, Control_c, 8, 11, 84
19, 707288, Control_c, 8, 11, 85
19, 707334, Control_c, 8, 11, 86
19, 707379, Control_c, 8, 11, 87
19, 707425, Control_c, 8, 11, 88
19, 707470, Control_c, 8, 11, 89
19, 707516, Control_c, 8, 11, 90
19, 707561, Control_c, 8, 11, 91
19, 707607, Control_c, 8, 11, 92
19, 707652, Control_c, 8, 11, 93
19, 707698, Control_c, 8, 11, 94
19, 707743, Control_c, 8, 11, 95
19, 707789, Control_c, 8, 11, 96
19, 707834, Control_c, 8, 11, 97
19, 707880, Control_c, 8, 11, 98
19, 707926, Control_c, 8, 11, 99
19, 707971, Control_c, 8, 11, 100
19, 708017, Control_c, 8, 11, 101
19, 708062, Control_c, 8, 11, 102
19, 708108, Control_c, 8, 11, 103
19, 708153, Control_c, 8, 11, 104
19, 708199, Control_c, 8, 11, 105
19, 708244, Control_c, 8, 11, 106
19, 708290, Control_c, 8, 11, 107
19, 708335, Control_c, 8, 11, 108
19, 708381, Control_c, 8, 11, 109
19, 708426, Control_c, 8, 11, 110
19, 708472, Control_c, 8, 11, 111
19, 708517, Control_c, 8, 11, 112
19, 708563, Control_c, 8, 11, 113
19, 708608, Control_c, 8, 11, 114
19, 708654, Control_c, 8, 11, 115
19, 708699, Control_c, 8, 11, 116
19, 708719, Note_on_c, 8, 80, 0
19, 708720, Note_on_c, 8, 80, 80
19, 708745, Control_c, 8, 11, 117
19, 708790, Control_c, 8, 11, 118
19, 708836, Control_c, 8, 11, 119
19, 708881, Control_c, 8, 11, 120
19, 708927, Control_c, 8, 11, 121
19, 708972, Control_c, 8, 11, 122
19, 709018, Control_c, 8, 11, 123
19, 709063, Control_c, 8, 11, 124
19, 709109, Control_c, 8, 11, 125
19, 709154, Control_c, 8, 11, 127
19, 709240, Control_c, 8, 11, 122
19, 709280, Control_c, 8, 11, 117
19, 709320, Control_c, 8, 11, 112
19, 709360, Control_c, 8, 11, 107
19, 709400, Control_c, 8, 11, 102
19, 709439, Note_on_c, 8, 80, 0
19, 709440, Note_on_c, 8, 81, 80
19, 709440, Control_c, 8, 11, 99
19, 709480, Control_c, 8, 11, 94
19, 709520, Control_c, 8, 11, 89
19, 709560, Control_c, 8, 11, 84
19, 709600, Control_c, 8, 11, 79
19, 709640, Control_c, 8, 11, 74
19, 709680, Control_c, 8, 11, 69
19, 710159, Note_on_c, 8, 81, 0
19, 710160, Note_on_c, 8, 76, 80
19, 711599, Note_on_c, 8, 76, 0
19, 711600, Note_on_c, 8, 76, 80
19, 712319, Note_on_c, 8, 76, 0
19, 712320, Note_on_c, 8, 76, 80
19, 713039, Note_on_c, 8, 76, 0
19, 713040, Note_on_c, 8, 76, 80
19, 713759, Note_on_c, 8, 76, 0
19, 713760, Note_on_c, 8, 76, 80
19, 714479, Note_on_c, 8, 76, 0
19, 714480, Note_on_c, 8, 76, 80
19, 715199, Note_on_c, 8, 76, 0
19, 715200, Note_on_c, 8, 76, 80
19, 715919, Note_on_c, 8, 76, 0
19, 715920, Note_on_c, 8, 76, 80
19, 716609, Note_on_c, 8, 76, 0
19, 716640, Control_c, 8, 11, 69
19, 716640, Note_on_c, 8, 76, 80
19, 716700, Control_c, 8, 11, 72
19, 716760, Control_c, 8, 11, 75
19, 716820, Control_c, 8, 11, 79
19, 716880, Control_c, 8, 11, 82
19, 716940, Control_c, 8, 11, 85
19, 717000, Control_c, 8, 11, 89
19, 717060, Control_c, 8, 11, 92
19, 717120, Control_c, 8, 11, 95
19, 717180, Control_c, 8, 11, 99
19, 717240, Control_c, 8, 11, 102
19, 717300, Control_c, 8, 11, 105
19, 717359, Note_on_c, 8, 76, 0
19, 717360, Note_on_c, 8, 78, 80
19, 717360, Control_c, 8, 11, 109
19, 717420, Control_c, 8, 11, 105
19, 717480, Control_c, 8, 11, 102
19, 717540, Control_c, 8, 11, 99
19, 717600, Control_c, 8, 11, 95
19, 717660, Control_c, 8, 11, 92
19, 717720, Control_c, 8, 11, 89
19, 717780, Control_c, 8, 11, 85
19, 717840, Control_c, 8, 11, 82
19, 717900, Control_c, 8, 11, 79
19, 717960, Control_c, 8, 11, 75
19, 718020, Control_c, 8, 11, 72
19, 718079, Note_on_c, 8, 78, 0
19, 718080, Control_c, 8, 11, 69
19, 718080, Note_on_c, 8, 79, 80
19, 718799, Note_on_c, 8, 79, 0
19, 718800, Note_on_c, 8, 79, 80
19, 719519, Note_on_c, 8, 79, 0
19, 719520, Note_on_c, 8, 79, 74
19, 720239, Note_on_c, 8, 79, 0
19, 720240, Note_on_c, 8, 79, 74
19, 720959, Note_on_c, 8, 79, 0
19, 720960, Note_on_c, 8, 79, 74
19, 723119, Note_on_c, 8, 79, 0
19, 723120, Note_on_c, 8, 79, 68
19, 723839, Note_on_c, 8, 79, 0
19, 724800, Control_c, 8, 11, 127
19, 754560, Note_on_c, 8, 64, 44
19, 754799, Note_on_c, 8, 64, 0
19, 754800, Note_on_c, 8, 64, 45
19, 755039, Note_on_c, 8, 64, 0
19, 755040, Note_on_c, 8, 62, 47
19, 755279, Note_on_c, 8, 62, 0
19, 755280, Note_on_c, 8, 62, 48
19, 755499, Note_on_c, 8, 62, 0
19, 755520, Note_on_c, 8, 67, 50
19, 755759, Note_on_c, 8, 67, 0
19, 755760, Note_on_c, 8, 67, 51
19, 755999, Note_on_c, 8, 67, 0
19, 756000, Note_on_c, 8, 66, 53
19, 756239, Note_on_c, 8, 66, 0
19, 756240, Note_on_c, 8, 66, 54
19, 756479, Note_on_c, 8, 66, 0
19, 756480, Note_on_c, 8, 66, 56
19, 756719, Note_on_c, 8, 66, 0
19, 756720, Note_on_c, 8, 64, 57
19, 756959, Note_on_c, 8, 64, 0
19, 756960, Note_on_c, 8, 62, 59
19, 757199, Note_on_c, 8, 62, 0
19, 757200, Note_on_c, 8, 69, 60
19, 757439, Note_on_c, 8, 69, 0
19, 757440, Note_on_c, 8, 69, 62
19, 757679, Note_on_c, 8, 69, 0
19, 757680, Note_on_c, 8, 67, 63
19, 757919, Note_on_c, 8, 67, 0
19, 757920, Note_on_c, 8, 67, 65
19, 758159, Note_on_c, 8, 67, 0
19, 758160, Note_on_c, 8, 66, 66
19, 758379, Note_on_c, 8, 66, 0
19, 758400, Note_on_c, 8, 66, 68
19, 758639, Note_on_c, 8, 66, 0
19, 758640, Note_on_c, 8, 64, 69
19, 758879, Note_on_c, 8, 64, 0
19, 758880, Note_on_c, 8, 62, 71
19, 759119, Note_on_c, 8, 62, 0
19, 759120, Note_on_c, 8, 69, 72
19, 759359, Note_on_c, 8, 69, 0
19, 759360, Note_on_c, 8, 69, 74
19, 759599, Note_on_c, 8, 69, 0
19, 759600, Note_on_c, 8, 67, 75
19, 759839, Note_on_c, 8, 67, 0
19, 759840, Note_on_c, 8, 67, 77
19, 760079, Note_on_c, 8, 67, 0
19, 760080, Note_on_c, 8, 66, 78
19, 760299, Note_on_c, 8, 66, 0
19, 760320, Note_on_c, 8, 69, 80
19, 760559, Note_on_c, 8, 69, 0
19, 760560, Note_on_c, 8, 69, 80
19, 760799, Note_on_c, 8, 69, 0
19, 760800, Note_on_c, 8, 71, 80
19, 761039, Note_on_c, 8, 71, 0
19, 761040, Note_on_c, 8, 69, 80
19, 761279, Note_on_c, 8, 69, 0
19, 761280, Note_on_c, 8, 74, 80
19, 761519, Note_on_c, 8, 74, 0
19, 761520, Note_on_c, 8, 73, 80
19, 761759, Note_on_c, 8, 73, 0
19, 761760, Note_on_c, 8, 78, 80
19, 761999, Note_on_c, 8, 78, 0
19, 762000, Note_on_c, 8, 76, 80
19, 762239, Note_on_c, 8, 76, 0
19, 762240, Note_on_c, 8, 81, 80
19, 762479, Note_on_c, 8, 81, 0
19, 762480, Note_on_c, 8, 79, 80
19, 762719, Note_on_c, 8, 79, 0
19, 762720, Note_on_c, 8, 79, 80
19, 762959, Note_on_c, 8, 79, 0
19, 765360, Note_on_c, 8, 78, 92
19, 765959, Note_on_c, 8, 78, 0
19, 765960, Note_on_c, 8, 78, 92
19, 766079, Note_on_c, 8, 78, 0
19, 766080, Note_on_c, 8, 78, 92
19, 766319, Note_on_c, 8, 78, 0
19, 766320, Note_on_c, 8, 74, 92
19, 766539, Note_on_c, 8, 74, 0
19, 766560, Note_on_c, 8, 74, 92
19, 766919, Note_on_c, 8, 74, 0
19, 766920, Note_on_c, 8, 74, 92
19, 767039, Note_on_c, 8, 74, 0
19, 767040, Note_on_c, 8, 74, 92
19, 767279, Note_on_c, 8, 74, 0
19, 767280, Note_on_c, 8, 71, 92
19, 767499, Note_on_c, 8, 71, 0
19, 767520, Note_on_c, 8, 71, 92
19, 767879, Note_on_c, 8, 71, 0
19, 767880, Note_on_c, 8, 71, 92
19, 767999, Note_on_c, 8, 71, 0
19, 768000, Note_on_c, 8, 71, 92
19, 768239, Note_on_c, 8, 71, 0
19, 768240, Note_on_c, 8, 67, 92
19, 768459, Note_on_c, 8, 67, 0
19, 768480, Note_on_c, 8, 79, 92
19, 768839, Note_on_c, 8, 79, 0
19, 768840, Note_on_c, 8, 79, 92
19, 768959, Note_on_c, 8, 79, 0
19, 768960, Note_on_c, 8, 79, 92
19, 768960, Control_c, 8, 11, 127
19, 768976, Control_c, 8, 11, 122
19, 768992, Control_c, 8, 11, 117
19, 769008, Control_c, 8, 11, 111
19, 769024, Control_c, 8, 11, 106
19, 769040, Control_c, 8, 11, 101
19, 769056, Control_c, 8, 11, 96
19, 769072, Control_c, 8, 11, 91
19, 769088, Control_c, 8, 11, 85
19, 769104, Control_c, 8, 11, 80
19, 769120, Control_c, 8, 11, 75
19, 769136, Control_c, 8, 11, 70
19, 769152, Control_c, 8, 11, 65
19, 769168, Control_c, 8, 11, 59
19, 769184, Control_c, 8, 11, 54
19, 769199, Note_on_c, 8, 79, 0
19, 769200, Note_on_c, 8, 79, 92
19, 769200, Control_c, 8, 11, 49
19, 769218, Control_c, 8, 11, 50
19, 769236, Control_c, 8, 11, 51
19, 769254, Control_c, 8, 11, 52
19, 769272, Control_c, 8, 11, 53
19, 769290, Control_c, 8, 11, 54
19, 769308, Control_c, 8, 11, 55
19, 769326, Control_c, 8, 11, 56
19, 769344, Control_c, 8, 11, 57
19, 769362, Control_c, 8, 11, 58
19, 769380, Control_c, 8, 11, 59
19, 769398, Control_c, 8, 11, 60
19, 769416, Control_c, 8, 11, 61
19, 769434, Control_c, 8, 11, 62
19, 769439, Note_on_c, 8, 79, 0
19, 769440, Note_on_c, 8, 79, 92
19, 769452, Control_c, 8, 11, 63
19, 769470, Control_c, 8, 11, 64
19, 769488, Control_c, 8, 11, 65
19, 769506, Control_c, 8, 11, 66
19, 769524, Control_c, 8, 11, 67
19, 769542, Control_c, 8, 11, 68
19, 769560, Control_c, 8, 11, 69
19, 769578, Control_c, 8, 11, 70
19, 769596, Control_c, 8, 11, 71
19, 769614, Control_c, 8, 11, 72
19, 769632, Control_c, 8, 11, 73
19, 769650, Control_c, 8, 11, 74
19, 769668, Control_c, 8, 11, 75
19, 769679, Note_on_c, 8, 79, 0
19, 769680, Note_on_c, 8, 79, 92
19, 769686, Control_c, 8, 11, 76
19, 769704, Control_c, 8, 11, 77
19, 769722, Control_c, 8, 11, 78
19, 769740, Control_c, 8, 11, 79
19, 769758, Control_c, 8, 11, 80
19, 769776, Control_c, 8, 11, 81
19, 769794, Control_c, 8, 11, 82
19, 769812, Control_c, 8, 11, 83
19, 769830, Control_c, 8, 11, 84
19, 769848, Control_c, 8, 11, 85
19, 769866, Control_c, 8, 11, 86
19, 769884, Control_c, 8, 11, 87
19, 769902, Control_c, 8, 11, 89
19, 769919, Note_on_c, 8, 79, 0
19, 769920, Note_on_c, 8, 79, 92
19, 769920, Control_c, 8, 11, 89
19, 769936, Control_c, 8, 11, 86
19, 769952, Control_c, 8, 11, 84
19, 769968, Control_c, 8, 11, 81
19, 769984, Control_c, 8, 11, 78
19, 770000, Control_c, 8, 11, 76
19, 770016, Control_c, 8, 11, 73
19, 770032, Control_c, 8, 11, 70
19, 770039, Note_on_c, 8, 79, 0
19, 770040, Note_on_c, 8, 78, 92
19, 770048, Control_c, 8, 11, 68
19, 770064, Control_c, 8, 11, 65
19, 770080, Control_c, 8, 11, 62
19, 770096, Control_c, 8, 11, 60
19, 770112, Control_c, 8, 11, 57
19, 770128, Control_c, 8, 11, 54
19, 770144, Control_c, 8, 11, 49
19, 770159, Note_on_c, 8, 78, 0
19, 770160, Note_on_c, 8, 78, 92
19, 770384, Note_on_c, 8, 78, 0
19, 770400, Note_on_c, 8, 78, 92
19, 770639, Note_on_c, 8, 78, 0
19, 770640, Note_on_c, 8, 78, 92
19, 770879, Note_on_c, 8, 78, 0
19, 770880, Note_on_c, 8, 76, 92
19, 771269, Note_on_c, 8, 76, 0
19, 771270, Note_on_c, 8, 78, 92
19, 771299, Note_on_c, 8, 78, 0
19, 771300, Note_on_c, 8, 76, 92
19, 771329, Note_on_c, 8, 76, 0
19, 771330, Note_on_c, 8, 75, 92
19, 771359, Note_on_c, 8, 75, 0
19, 771360, Note_on_c, 8, 76, 92
19, 771479, Note_on_c, 8, 76, 0
19, 771480, Note_on_c, 8, 78, 92
19, 771599, Note_on_c, 8, 78, 0
19, 771600, Note_on_c, 8, 79, 92
19, 771719, Note_on_c, 8, 79, 0
19, 771720, Note_on_c, 8, 76, 92
19, 771839, Note_on_c, 8, 76, 0
19, 771840, Note_on_c, 8, 76, 92
19, 771959, Note_on_c, 8, 76, 0
19, 771960, Note_on_c, 8, 74, 92
19, 772079, Note_on_c, 8, 74, 0
19, 772080, Note_on_c, 8, 74, 92
19, 772319, Note_on_c, 8, 74, 0
19, 772320, Note_on_c, 8, 74, 92
19, 772559, Note_on_c, 8, 74, 0
19, 772560, Note_on_c, 8, 76, 92
19, 773279, Note_on_c, 8, 76, 0
19, 776160, Control_c, 8, 11, 127
19, 776640, Note_on_c, 8, 76, 44
19, 776879, Note_on_c, 8, 76, 0
19, 776880, Note_on_c, 8, 76, 46
19, 777119, Note_on_c, 8, 76, 0
19, 777120, Note_on_c, 8, 74, 48
19, 777359, Note_on_c, 8, 74, 0
19, 777360, Note_on_c, 8, 74, 50
19, 777579, Note_on_c, 8, 74, 0
19, 777600, Note_on_c, 8, 79, 53
19, 777839, Note_on_c, 8, 79, 0
19, 777840, Note_on_c, 8, 79, 55
19, 778079, Note_on_c, 8, 79, 0
19, 778080, Note_on_c, 8, 78, 57
19, 778319, Note_on_c, 8, 78, 0
19, 778320, Note_on_c, 8, 78, 59
19, 778559, Note_on_c, 8, 78, 0
19, 778560, Note_on_c, 8, 78, 62
19, 778799, Note_on_c, 8, 78, 0
19, 778800, Note_on_c, 8, 76, 64
19, 779039, Note_on_c, 8, 76, 0
19, 779040, Note_on_c, 8, 74, 66
19, 779279, Note_on_c, 8, 74, 0
19, 779280, Note_on_c, 8, 81, 68
19, 779519, Note_on_c, 8, 81, 0
19, 779520, Note_on_c, 8, 81, 71
19, 779759, Note_on_c, 8, 81, 0
19, 779760, Note_on_c, 8, 79, 73
19, 779999, Note_on_c, 8, 79, 0
19, 780000, Note_on_c, 8, 79, 75
19, 780239, Note_on_c, 8, 79, 0
19, 780240, Note_on_c, 8, 78, 77
19, 780459, Note_on_c, 8, 78, 0
19, 780480, Note_on_c, 8, 69, 80
19, 780719, Note_on_c, 8, 69, 0
19, 780720, Note_on_c, 8, 69, 80
19, 780959, Note_on_c, 8, 69, 0
19, 780960, Note_on_c, 8, 71, 80
19, 781199, Note_on_c, 8, 71, 0
19, 781200, Note_on_c, 8, 69, 80
19, 781439, Note_on_c, 8, 69, 0
19, 781440, Note_on_c, 8, 74, 80
19, 781679, Note_on_c, 8, 74, 0
19, 781680, Note_on_c, 8, 73, 80
19, 781919, Note_on_c, 8, 73, 0
19, 781920, Note_on_c, 8, 78, 80
19, 782159, Note_on_c, 8, 78, 0
19, 782160, Note_on_c, 8, 76, 80
19, 782399, Note_on_c, 8, 76, 0
19, 782400, Note_on_c, 8, 81, 80
19, 782639, Note_on_c, 8, 81, 0
19, 782640, Note_on_c, 8, 79, 80
19, 782879, Note_on_c, 8, 79, 0
19, 782880, Note_on_c, 8, 79, 80
19, 783119, Note_on_c, 8, 79, 0
19, 785520, Note_on_c, 8, 78, 92
19, 786119, Note_on_c, 8, 78, 0
19, 786120, Note_on_c, 8, 78, 92
19, 786239, Note_on_c, 8, 78, 0
19, 786240, Note_on_c, 8, 78, 92
19, 786479, Note_on_c, 8, 78, 0
19, 786480, Note_on_c, 8, 74, 92
19, 786699, Note_on_c, 8, 74, 0
19, 786720, Note_on_c, 8, 74, 92
19, 787079, Note_on_c, 8, 74, 0
19, 787080, Note_on_c, 8, 74, 92
19, 787199, Note_on_c, 8, 74, 0
19, 787200, Note_on_c, 8, 74, 92
19, 787439, Note_on_c, 8, 74, 0
19, 787440, Note_on_c, 8, 71, 92
19, 787659, Note_on_c, 8, 71, 0
19, 787680, Note_on_c, 8, 71, 92
19, 788039, Note_on_c, 8, 71, 0
19, 788040, Note_on_c, 8, 71, 92
19, 788159, Note_on_c, 8, 71, 0
19, 788160, Note_on_c, 8, 71, 92
19, 788399, Note_on_c, 8, 71, 0
19, 788400, Note_on_c, 8, 67, 92
19, 788639, Note_on_c, 8, 67, 0
19, 789600, Note_on_c, 8, 76, 92
19, 789959, Note_on_c, 8, 76, 0
19, 789960, Note_on_c, 8, 76, 92
19, 790079, Note_on_c, 8, 76, 0
19, 790080, Note_on_c, 8, 76, 92
19, 790319, Note_on_c, 8, 76, 0
19, 790320, Note_on_c, 8, 64, 92
19, 790559, Note_on_c, 8, 64, 0
19, 812160, Note_on_c, 8, 74, 80
19, 812399, Note_on_c, 8, 74, 0
19, 812400, Note_on_c, 8, 74, 80
19, 812639, Note_on_c, 8, 74, 0
19, 812640, Note_on_c, 8, 73, 80
19, 812879, Note_on_c, 8, 73, 0
19, 812880, Note_on_c, 8, 69, 80
19, 813104, Note_on_c, 8, 69, 0
19, 813120, Note_on_c, 8, 76, 80
19, 813359, Note_on_c, 8, 76, 0
19, 813360, Note_on_c, 8, 76, 80
19, 813599, Note_on_c, 8, 76, 0
19, 813600, Note_on_c, 8, 75, 80
19, 813839, Note_on_c, 8, 75, 0
19, 813840, Note_on_c, 8, 71, 80
19, 814049, Note_on_c, 8, 71, 0
19, 814080, Note_on_c, 8, 76, 80
19, 814319, Note_on_c, 8, 76, 0
19, 814320, Note_on_c, 8, 78, 80
19, 814559, Note_on_c, 8, 78, 0
19, 814560, Note_on_c, 8, 79, 80
19, 814799, Note_on_c, 8, 79, 0
19, 814800, Note_on_c, 8, 80, 80
19, 815039, Note_on_c, 8, 80, 0
19, 815040, Note_on_c, 8, 81, 80
19, 815279, Note_on_c, 8, 81, 0
19, 815280, Note_on_c, 8, 80, 80
19, 815519, Note_on_c, 8, 80, 0
19, 815520, Note_on_c, 8, 81, 80
19, 815759, Note_on_c, 8, 81, 0
19, 816720, Note_on_c, 8, 80, 80
19, 816959, Note_on_c, 8, 80, 0
19, 816960, Note_on_c, 8, 81, 80
19, 817199, Note_on_c, 8, 81, 0
19, 817200, Note_on_c, 8, 80, 80
19, 817439, Note_on_c, 8, 80, 0
19, 817440, Note_on_c, 8, 81, 80
19, 820769, Note_on_c, 8, 81, 0
19, 820800, Note_on_c, 8, 76, 80
19, 821039, Note_on_c, 8, 76, 0
19, 821040, Note_on_c, 8, 76, 80
19, 821279, Note_on_c, 8, 76, 0
19, 821760, Note_on_c, 8, 76, 80
19, 822119, Note_on_c, 8, 76, 0
19, 822120, Note_on_c, 8, 78, 80
19, 822239, Note_on_c, 8, 78, 0
19, 822240, Note_on_c, 8, 76, 80
19, 822479, Note_on_c, 8, 76, 0
19, 822480, Note_on_c, 8, 74, 80
19, 822719, Note_on_c, 8, 74, 0
19, 822720, Note_on_c, 8, 76, 80
19, 823079, Note_on_c, 8, 76, 0
19, 823080, Note_on_c, 8, 78, 80
19, 823199, Note_on_c, 8, 78, 0
19, 823200, Note_on_c, 8, 76, 80
19, 823439, Note_on_c, 8, 76, 0
19, 823440, Note_on_c, 8, 74, 80
19, 823679, Note_on_c, 8, 74, 0
19, 823680, Note_on_c, 8, 76, 80
19, 824039, Note_on_c, 8, 76, 0
19, 824040, Note_on_c, 8, 78, 80
19, 824159, Note_on_c, 8, 78, 0
19, 824160, Note_on_c, 8, 76, 80
19, 824399, Note_on_c, 8, 76, 0
19, 824400, Note_on_c, 8, 74, 80
19, 824639, Note_on_c, 8, 74, 0
19, 824640, Note_on_c, 8, 76, 80
19, 824999, Note_on_c, 8, 76, 0
19, 825000, Note_on_c, 8, 78, 80
19, 825119, Note_on_c, 8, 78, 0
19, 825120, Note_on_c, 8, 76, 80
19, 825359, Note_on_c, 8, 76, 0
19, 825360, Note_on_c, 8, 74, 80
19, 825599, Note_on_c, 8, 74, 0
19, 825600, Note_on_c, 8, 81, 80
19, 825839, Note_on_c, 8, 81, 0
19, 825840, Note_on_c, 8, 79, 80
19, 826079, Note_on_c, 8, 79, 0
19, 826080, Note_on_c, 8, 79, 80
19, 826289, Note_on_c, 8, 79, 0
19, 826320, Note_on_c, 8, 78, 80
19, 826559, Note_on_c, 8, 78, 0
19, 826560, Note_on_c, 8, 78, 80
19, 826799, Note_on_c, 8, 78, 0
19, 826800, Note_on_c, 8, 76, 80
19, 827039, Note_on_c, 8, 76, 0
19, 827040, Note_on_c, 8, 79, 80
19, 827279, Note_on_c, 8, 79, 0
19, 827280, Note_on_c, 8, 76, 80
19, 827519, Note_on_c, 8, 76, 0
19, 827520, Note_on_c, 8, 76, 80
19, 827759, Note_on_c, 8, 76, 0
19, 827760, Note_on_c, 8, 74, 80
19, 827999, Note_on_c, 8, 74, 0
19, 828000, Note_on_c, 8, 74, 80
19, 828239, Note_on_c, 8, 74, 0
19, 828240, Note_on_c, 8, 73, 80
19, 828479, Note_on_c, 8, 73, 0
19, 828480, Note_on_c, 8, 83, 80
19, 828959, Note_on_c, 8, 83, 0
19, 828960, Note_on_c, 8, 81, 80
19, 829679, Note_on_c, 8, 81, 0
19, 829680, Note_on_c, 8, 79, 80
19, 829919, Note_on_c, 8, 79, 0
19, 829920, Note_on_c, 8, 79, 80
19, 830144, Note_on_c, 8, 79, 0
19, 830160, Note_on_c, 8, 78, 80
19, 830399, Note_on_c, 8, 78, 0
19, 830400, Note_on_c, 8, 78, 80
19, 830639, Note_on_c, 8, 78, 0
19, 830640, Note_on_c, 8, 76, 80
19, 830879, Note_on_c, 8, 76, 0
19, 830880, Note_on_c, 8, 79, 80
19, 831119, Note_on_c, 8, 79, 0
19, 831120, Note_on_c, 8, 76, 80
19, 831359, Note_on_c, 8, 76, 0
19, 831360, Note_on_c, 8, 76, 80
19, 831599, Note_on_c, 8, 76, 0
19, 831600, Note_on_c, 8, 74, 80
19, 831839, Note_on_c, 8, 74, 0
19, 831840, Note_on_c, 8, 74, 80
19, 832079, Note_on_c, 8, 74, 0
19, 832080, Note_on_c, 8, 73, 80
19, 832319, Note_on_c, 8, 73, 0
19, 832320, Note_on_c, 8, 76, 80
19, 832559, Note_on_c, 8, 76, 0
19, 832560, Note_on_c, 8, 74, 80
19, 832799, Note_on_c, 8, 74, 0
19, 833280, Note_on_c, 8, 78, 80
19, 833519, Note_on_c, 8, 78, 0
19, 833520, Note_on_c, 8, 78, 80
19, 833759, Note_on_c, 8, 78, 0
19, 833760, Note_on_c, 8, 76, 80
19, 833999, Note_on_c, 8, 76, 0
19, 834000, Note_on_c, 8, 73, 80
19, 834239, Note_on_c, 8, 73, 0
19, 835200, Note_on_c, 8, 79, 80
19, 835439, Note_on_c, 8, 79, 0
19, 835440, Note_on_c, 8, 79, 80
19, 835679, Note_on_c, 8, 79, 0
19, 835680, Note_on_c, 8, 78, 80
19, 835919, Note_on_c, 8, 78, 0
19, 835920, Note_on_c, 8, 75, 80
19, 836129, Note_on_c, 8, 75, 0
19, 836160, Note_on_c, 8, 81, 92
19, 836639, Note_on_c, 8, 81, 0
19, 836640, Note_on_c, 8, 81, 92
19, 837119, Note_on_c, 8, 81, 0
19, 837120, Note_on_c, 8, 81, 92
19, 837599, Note_on_c, 8, 81, 0
19, 837600, Note_on_c, 8, 81, 92
19, 838079, Note_on_c, 8, 81, 0
19, 838080, Note_on_c, 8, 81, 92
19, 838559, Note_on_c, 8, 81, 0
19, 838560, Note_on_c, 8, 81, 92
19, 839039, Note_on_c, 8, 81, 0
19, 839040, Note_on_c, 8, 79, 92
19, 839489, Note_on_c, 8, 79, 0
19, 839520, Note_on_c, 8, 79, 92
19, 839999, Note_on_c, 8, 79, 0
19, 840000, Note_on_c, 8, 79, 92
19, 840479, Note_on_c, 8, 79, 0
19, 840480, Note_on_c, 8, 79, 92
19, 840959, Note_on_c, 8, 79, 0
19, 840960, Note_on_c, 8, 77, 92
19, 841409, Note_on_c, 8, 77, 0
19, 841440, Note_on_c, 8, 77, 92
19, 841919, Note_on_c, 8, 77, 0
19, 841920, Note_on_c, 8, 76, 92
19, 842399, Note_on_c, 8, 76, 0
19, 842400, Note_on_c, 8, 69, 92
19, 842879, Note_on_c, 8, 69, 0
19, 842880, Note_on_c, 8, 81, 92
19, 843329, Note_on_c, 8, 81, 0
19, 843360, Note_on_c, 8, 81, 104
19, 843440, Control_c, 8, 11, 107
19, 844319, Note_on_c, 8, 81, 0
19, 844320, Note_on_c, 8, 81, 104
19, 844799, Note_on_c, 8, 81, 0
19, 844800, Note_on_c, 8, 81, 104
19, 845279, Note_on_c, 8, 81, 0
19, 845280, Note_on_c, 8, 81, 104
19, 845759, Note_on_c, 8, 81, 0
19, 845760, Note_on_c, 8, 81, 104
19, 846239, Note_on_c, 8, 81, 0
19, 846240, Note_on_c, 8, 81, 104
19, 846719, Note_on_c, 8, 81, 0
19, 846720, Note_on_c, 8, 79, 104
19, 847169, Note_on_c, 8, 79, 0
19, 847198, Control_c, 8, 11, 127
19, 847200, Note_on_c, 8, 79, 80
19, 847679, Note_on_c, 8, 79, 0
19, 847680, Note_on_c, 8, 79, 80
19, 848159, Note_on_c, 8, 79, 0
19, 848160, Note_on_c, 8, 79, 80
19, 848639, Note_on_c, 8, 79, 0
19, 848640, Note_on_c, 8, 77, 92
19, 849089, Note_on_c, 8, 77, 0
19, 849120, Note_on_c, 8, 77, 92
19, 849599, Note_on_c, 8, 77, 0
19, 849600, Note_on_c, 8, 76, 92
19, 850079, Note_on_c, 8, 76, 0
19, 850080, Note_on_c, 8, 76, 92
19, 850529, Note_on_c, 8, 76, 0
19, 850560, Note_on_c, 8, 78, 92
19, 851039, Note_on_c, 8, 78, 0
19, 851040, Note_on_c, 8, 79, 92
19, 853439, Note_on_c, 8, 79, 0
19, 853440, Note_on_c, 8, 78, 92
19, 853919, Note_on_c, 8, 78, 0
19, 853920, Note_on_c, 8, 76, 92
19, 854399, Note_on_c, 8, 76, 0
19, 854400, Note_on_c, 8, 78, 92
19, 854609, Note_on_c, 8, 78, 0
19, 854640, Note_on_c, 8, 78, 92
19, 854879, Note_on_c, 8, 78, 0
19, 854880, Note_on_c, 8, 79, 92
19, 857279, Note_on_c, 8, 79, 0
19, 857280, Note_on_c, 8, 78, 92
19, 857759, Note_on_c, 8, 78, 0
19, 857760, Note_on_c, 8, 76, 92
19, 858239, Note_on_c, 8, 76, 0
19, 858240, Note_on_c, 8, 74, 92
19, 858719, Note_on_c, 8, 74, 0
19, 859200, Note_on_c, 8, 71, 92
19, 859439, Note_on_c, 8, 71, 0
19, 859440, Note_on_c, 8, 71, 92
19, 859679, Note_on_c, 8, 71, 0
19, 860160, Note_on_c, 8, 79, 92
19, 860399, Note_on_c, 8, 79, 0
19, 860400, Note_on_c, 8, 79, 92
19, 860624, Note_on_c, 8, 79, 0
19, 860640, Note_on_c, 8, 76, 92
19, 860879, Note_on_c, 8, 76, 0
19, 860880, Note_on_c, 8, 76, 92
19, 861119, Note_on_c, 8, 76, 0
19, 861120, Note_on_c, 8, 81, 92
19, 861839, Note_on_c, 8, 81, 0
19, 861840, Note_on_c, 8, 81, 92
19, 862079, Note_on_c, 8, 81, 0
19, 862080, Note_on_c, 8, 81, 92
19, 862319, Note_on_c, 8, 81, 0
19, 862320, Note_on_c, 8, 74, 92
19, 862559, Note_on_c, 8, 74, 0
19, 864480, Note_on_c, 8, 81, 92
19, 864719, Note_on_c, 8, 81, 0
19, 864720, Note_on_c, 8, 81, 92
19, 864959, Note_on_c, 8, 81, 0
19, 864960, Note_on_c, 8, 81, 92
19, 866639, Note_on_c, 8, 81, 0
19, 866640, Note_on_c, 8, 81, 92
19, 866879, Note_on_c, 8, 81, 0
19, 866880, Note_on_c, 8, 81, 92
19, 867119, Note_on_c, 8, 81, 0
19, 867120, Note_on_c, 8, 74, 92
19, 867359, Note_on_c, 8, 74, 0
19, 870240, Note_on_c, 8, 79, 92
19, 871079, Note_on_c, 8, 79, 0
19, 871080, Note_on_c, 8, 79, 92
19, 871199, Note_on_c, 8, 79, 0
19, 871200, Note_on_c, 8, 79, 92
19, 871379, Note_on_c, 8, 79, 0
19, 871380, Note_on_c, 8, 76, 44
19, 871439, Note_on_c, 8, 76, 0
19, 871440, Note_on_c, 8, 74, 44
19, 871619, Note_on_c, 8, 74, 0
19, 871620, Note_on_c, 8, 73, 44
19, 871679, Note_on_c, 8, 73, 0
19, 871680, Note_on_c, 8, 73, 44
19, 871919, Note_on_c, 8, 73, 0
19, 872160, Note_on_c, 8, 78, 80
19, 872339, Note_on_c, 8, 78, 0
19, 872340, Note_on_c, 8, 78, 80
19, 872379, Note_on_c, 8, 78, 0
19, 872400, Note_on_c, 8, 79, 92
19, 872460, Control_c, 8, 11, 107
19, 872759, Note_on_c, 8, 79, 0
19, 872760, Note_on_c, 8, 76, 92
19, 872875, Note_on_c, 8, 76, 0
19, 872878, Control_c, 8, 11, 127
19, 872880, Note_on_c, 8, 81, 92
19, 873059, Note_on_c, 8, 81, 0
19, 873060, Note_on_c, 8, 81, 92
19, 873119, Note_on_c, 8, 81, 0
19, 873120, Note_on_c, 8, 81, 92
19, 873239, Note_on_c, 8, 81, 0
19, 873240, Note_on_c, 8, 74, 92
19, 873344, Note_on_c, 8, 74, 0
19, 873360, Note_on_c, 8, 81, 92
19, 873539, Note_on_c, 8, 81, 0
19, 873540, Note_on_c, 8, 81, 92
19, 873599, Note_on_c, 8, 81, 0
19, 873600, Note_on_c, 8, 81, 92
19, 874079, Note_on_c, 8, 81, 0
19, 874080, Note_on_c, 8, 74, 92
19, 874319, Note_on_c, 8, 74, 0
19, 874319, End_track
20, 0, Start_track
20, 0, Title_t, "Alto"
20, 0, MIDI_port, 0
20, 0, Program_c, 10, 73
20, 0, Control_c, 10, 121, 0
20, 0, Control_c, 10, 11, 127
20, 216000, Control_c, 10, 7, 112
20, 216000, Control_c, 10, 10, 96
20, 216960, Note_on_c, 10, 64, 80
20, 217199, Note_on_c, 10, 64, 0
20, 217200, Note_on_c, 10, 64, 80
20, 217439, Note_on_c, 10, 64, 0
20, 217440, Note_on_c, 10, 66, 80
20, 217679, Note_on_c, 10, 66, 0
20, 217680, Note_on_c, 10, 62, 80
20, 217919, Note_on_c, 10, 62, 0
20, 217920, Note_on_c, 10, 64, 80
20, 218159, Note_on_c, 10, 64, 0
20, 218160, Note_on_c, 10, 66, 80
20, 218279, Note_on_c, 10, 66, 0
20, 218280, Note_on_c, 10, 67, 80
20, 218399, Note_on_c, 10, 67, 0
20, 218400, Note_on_c, 10, 66, 80
20, 218639, Note_on_c, 10, 66, 0
20, 218640, Note_on_c, 10, 62, 80
20, 218864, Note_on_c, 10, 62, 0
20, 218880, Note_on_c, 10, 64, 80
20, 219119, Note_on_c, 10, 64, 0
20, 219120, Note_on_c, 10, 66, 80
20, 219239, Note_on_c, 10, 66, 0
20, 219240, Note_on_c, 10, 67, 80
20, 219359, Note_on_c, 10, 67, 0
20, 219360, Note_on_c, 10, 66, 80
20, 219599, Note_on_c, 10, 66, 0
20, 219600, Note_on_c, 10, 64, 80
20, 219839, Note_on_c, 10, 64, 0
20, 219840, Note_on_c, 10, 62, 80
20, 220079, Note_on_c, 10, 62, 0
20, 220080, Note_on_c, 10, 64, 80
20, 220319, Note_on_c, 10, 64, 0
20, 220320, Note_on_c, 10, 57, 80
20, 220529, Note_on_c, 10, 57, 0
20, 220560, Note_on_c, 10, 66, 80
20, 221039, Note_on_c, 10, 66, 0
20, 221040, Note_on_c, 10, 66, 80
20, 221279, Note_on_c, 10, 66, 0
20, 221280, Note_on_c, 10, 67, 80
20, 221519, Note_on_c, 10, 67, 0
20, 221520, Note_on_c, 10, 69, 80
20, 221759, Note_on_c, 10, 69, 0
20, 221760, Note_on_c, 10, 69, 80
20, 221999, Note_on_c, 10, 69, 0
20, 222000, Note_on_c, 10, 67, 80
20, 222239, Note_on_c, 10, 67, 0
20, 222240, Note_on_c, 10, 66, 80
20, 222479, Note_on_c, 10, 66, 0
20, 222480, Note_on_c, 10, 67, 80
20, 222599, Note_on_c, 10, 67, 0
20, 222600, Note_on_c, 10, 64, 80
20, 222704, Note_on_c, 10, 64, 0
20, 222720, Note_on_c, 10, 62, 80
20, 222959, Note_on_c, 10, 62, 0
20, 222960, Note_on_c, 10, 62, 80
20, 223199, Note_on_c, 10, 62, 0
20, 223200, Note_on_c, 10, 64, 80
20, 223439, Note_on_c, 10, 64, 0
20, 223440, Note_on_c, 10, 66, 80
20, 223679, Note_on_c, 10, 66, 0
20, 223680, Note_on_c, 10, 64, 80
20, 224039, Note_on_c, 10, 64, 0
20, 224040, Note_on_c, 10, 62, 80
20, 224159, Note_on_c, 10, 62, 0
20, 224160, Note_on_c, 10, 62, 80
20, 224639, Note_on_c, 10, 62, 0
20, 224640, Text_t, "Transition to Alto Solo"
20, 243838, Control_c, 10, 10, 96
20, 243838, Control_c, 10, 7, 112
20, 243840, Note_on_c, 10, 69, 80
20, 244049, Note_on_c, 10, 69, 0
20, 244080, Note_on_c, 10, 69, 80
20, 244319, Note_on_c, 10, 69, 0
20, 244320, Note_on_c, 10, 69, 80
20, 244559, Note_on_c, 10, 69, 0
20, 244560, Note_on_c, 10, 69, 80
20, 244799, Note_on_c, 10, 69, 0
20, 244800, Note_on_c, 10, 69, 80
20, 245039, Note_on_c, 10, 69, 0
20, 245040, Note_on_c, 10, 69, 80
20, 245279, Note_on_c, 10, 69, 0
20, 245280, Note_on_c, 10, 69, 80
20, 245519, Note_on_c, 10, 69, 0
20, 245520, Note_on_c, 10, 67, 80
20, 245639, Note_on_c, 10, 67, 0
20, 245640, Note_on_c, 10, 66, 80
20, 245759, Note_on_c, 10, 66, 0
20, 245760, Note_on_c, 10, 69, 80
20, 245999, Note_on_c, 10, 69, 0
20, 246000, Note_on_c, 10, 64, 80
20, 246239, Note_on_c, 10, 64, 0
20, 246240, Note_on_c, 10, 66, 80
20, 246479, Note_on_c, 10, 66, 0
20, 246480, Note_on_c, 10, 66, 80
20, 246719, Note_on_c, 10, 66, 0
20, 246720, Note_on_c, 10, 66, 80
20, 246959, Note_on_c, 10, 66, 0
20, 246960, Note_on_c, 10, 68, 80
20, 247199, Note_on_c, 10, 68, 0
20, 247200, Note_on_c, 10, 69, 80
20, 247409, Note_on_c, 10, 69, 0
20, 247440, Note_on_c, 10, 69, 80
20, 247919, Note_on_c, 10, 69, 0
20, 247920, Note_on_c, 10, 69, 80
20, 248159, Note_on_c, 10, 69, 0
20, 248160, Note_on_c, 10, 69, 92
20, 248399, Note_on_c, 10, 69, 0
20, 248400, Note_on_c, 10, 69, 80
20, 248639, Note_on_c, 10, 69, 0
20, 248640, Note_on_c, 10, 69, 80
20, 248864, Note_on_c, 10, 69, 0
20, 248880, Note_on_c, 10, 69, 80
20, 249119, Note_on_c, 10, 69, 0
20, 249120, Note_on_c, 10, 69, 68
20, 249359, Note_on_c, 10, 69, 0
20, 249360, Note_on_c, 10, 69, 56
20, 249599, Note_on_c, 10, 69, 0
20, 249600, Note_on_c, 10, 69, 44
20, 249839, Note_on_c, 10, 69, 0
20, 249840, Note_on_c, 10, 66, 44
20, 250079, Note_on_c, 10, 66, 0
20, 250080, Note_on_c, 10, 67, 44
20, 250319, Note_on_c, 10, 67, 0
20, 250320, Note_on_c, 10, 69, 44
20, 250559, Note_on_c, 10, 69, 0
20, 250560, Note_on_c, 10, 67, 44
20, 250919, Note_on_c, 10, 67, 0
20, 250920, Note_on_c, 10, 66, 44
20, 251039, Note_on_c, 10, 66, 0
20, 251040, Note_on_c, 10, 66, 44
20, 251519, Note_on_c, 10, 66, 0
20, 251520, Marker_t, "Transition to Alto Solo"
20, 270718, Control_c, 10, 7, 112
20, 270718, Control_c, 10, 11, 127
20, 270718, Control_c, 10, 10, 96
20, 270720, Note_on_c, 10, 69, 80
20, 270959, Note_on_c, 10, 69, 0
20, 270960, Note_on_c, 10, 69, 80
20, 271199, Note_on_c, 10, 69, 0
20, 271200, Note_on_c, 10, 69, 80
20, 271439, Note_on_c, 10, 69, 0
20, 271440, Note_on_c, 10, 69, 80
20, 271679, Note_on_c, 10, 69, 0
20, 271680, Note_on_c, 10, 69, 80
20, 271919, Note_on_c, 10, 69, 0
20, 271920, Note_on_c, 10, 69, 80
20, 272159, Note_on_c, 10, 69, 0
20, 272160, Note_on_c, 10, 69, 80
20, 272399, Note_on_c, 10, 69, 0
20, 272400, Note_on_c, 10, 69, 80
20, 272624, Note_on_c, 10, 69, 0
20, 272640, Note_on_c, 10, 74, 80
20, 272759, Note_on_c, 10, 74, 0
20, 272760, Note_on_c, 10, 73, 80
20, 272879, Note_on_c, 10, 73, 0
20, 272880, Note_on_c, 10, 71, 80
20, 272999, Note_on_c, 10, 71, 0
20, 273000, Note_on_c, 10, 73, 80
20, 273119, Note_on_c, 10, 73, 0
20, 273120, Note_on_c, 10, 76, 80
20, 273239, Note_on_c, 10, 76, 0
20, 273240, Note_on_c, 10, 74, 80
20, 273359, Note_on_c, 10, 74, 0
20, 273360, Note_on_c, 10, 74, 80
20, 273479, Note_on_c, 10, 74, 0
20, 273480, Note_on_c, 10, 73, 80
20, 273599, Note_on_c, 10, 73, 0
20, 273600, Note_on_c, 10, 73, 80
20, 273719, Note_on_c, 10, 73, 0
20, 273720, Note_on_c, 10, 71, 80
20, 273839, Note_on_c, 10, 71, 0
20, 273840, Note_on_c, 10, 71, 80
20, 273959, Note_on_c, 10, 71, 0
20, 273960, Note_on_c, 10, 64, 80
20, 274079, Note_on_c, 10, 64, 0
20, 274080, Note_on_c, 10, 69, 80
20, 274199, Note_on_c, 10, 69, 0
20, 274200, Note_on_c, 10, 67, 80
20, 274289, Note_on_c, 10, 67, 0
20, 274320, Note_on_c, 10, 66, 80
20, 274439, Note_on_c, 10, 66, 0
20, 274440, Note_on_c, 10, 64, 80
20, 274559, Note_on_c, 10, 64, 0
20, 274560, Note_on_c, 10, 66, 80
20, 274799, Note_on_c, 10, 66, 0
20, 274800, Note_on_c, 10, 69, 80
20, 275039, Note_on_c, 10, 69, 0
20, 275040, Note_on_c, 10, 69, 80
20, 275279, Note_on_c, 10, 69, 0
20, 275280, Note_on_c, 10, 69, 80
20, 275519, Note_on_c, 10, 69, 0
20, 275520, Note_on_c, 10, 62, 80
20, 275759, Note_on_c, 10, 62, 0
20, 275760, Note_on_c, 10, 74, 80
20, 275999, Note_on_c, 10, 74, 0
20, 276000, Note_on_c, 10, 76, 80
20, 276239, Note_on_c, 10, 76, 0
20, 276240, Note_on_c, 10, 67, 80
20, 276464, Note_on_c, 10, 67, 0
20, 276480, Note_on_c, 10, 67, 80
20, 276599, Note_on_c, 10, 67, 0
20, 276600, Note_on_c, 10, 66, 80
20, 276719, Note_on_c, 10, 66, 0
20, 276720, Note_on_c, 10, 64, 80
20, 276839, Note_on_c, 10, 64, 0
20, 276840, Note_on_c, 10, 66, 80
20, 276959, Note_on_c, 10, 66, 0
20, 276960, Note_on_c, 10, 74, 92
20, 277079, Note_on_c, 10, 74, 0
20, 277080, Note_on_c, 10, 73, 80
20, 277199, Note_on_c, 10, 73, 0
20, 277200, Note_on_c, 10, 76, 80
20, 277319, Note_on_c, 10, 76, 0
20, 277320, Note_on_c, 10, 74, 80
20, 277439, Note_on_c, 10, 74, 0
20, 277440, Note_on_c, 10, 74, 80
20, 277559, Note_on_c, 10, 74, 0
20, 277560, Note_on_c, 10, 73, 80
20, 277799, Note_on_c, 10, 73, 0
20, 277800, Note_on_c, 10, 74, 80
20, 277919, Note_on_c, 10, 74, 0
20, 277920, Note_on_c, 10, 74, 80
20, 278399, Note_on_c, 10, 74, 0
20, 278400, Note_on_c, 10, 66, 80
20, 278759, Note_on_c, 10, 66, 0
20, 278880, Note_on_c, 10, 66, 80
20, 279239, Note_on_c, 10, 66, 0
20, 279360, Note_on_c, 10, 67, 80
20, 279719, Note_on_c, 10, 67, 0
20, 279840, Note_on_c, 10, 67, 80
20, 280199, Note_on_c, 10, 67, 0
20, 280320, Note_on_c, 10, 64, 80
20, 280679, Note_on_c, 10, 64, 0
20, 280800, Note_on_c, 10, 69, 80
20, 281159, Note_on_c, 10, 69, 0
20, 281280, Note_on_c, 10, 69, 80
20, 281639, Note_on_c, 10, 69, 0
20, 281760, Note_on_c, 10, 74, 80
20, 282719, Note_on_c, 10, 74, 0
20, 282720, Note_on_c, 10, 71, 80
20, 283079, Note_on_c, 10, 71, 0
20, 283200, Note_on_c, 10, 73, 92
20, 284159, Note_on_c, 10, 73, 0
20, 284640, Note_on_c, 10, 71, 92
20, 284999, Note_on_c, 10, 71, 0
20, 285120, Note_on_c, 10, 73, 92
20, 286079, Note_on_c, 10, 73, 0
20, 286560, Note_on_c, 10, 69, 92
20, 286919, Note_on_c, 10, 69, 0
20, 287040, Note_on_c, 10, 69, 92
20, 288959, Note_on_c, 10, 69, 0
20, 440880, Control_c, 10, 7, 112
20, 441600, Note_on_c, 10, 69, 80
20, 441959, Note_on_c, 10, 69, 0
20, 441960, Note_on_c, 10, 69, 80
20, 442304, Note_on_c, 10, 69, 0
20, 442320, Note_on_c, 10, 69, 80
20, 442679, Note_on_c, 10, 69, 0
20, 442680, Note_on_c, 10, 69, 80
20, 443039, Note_on_c, 10, 69, 0
20, 443040, Note_on_c, 10, 69, 80
20, 443399, Note_on_c, 10, 69, 0
20, 443400, Note_on_c, 10, 69, 80
20, 443759, Note_on_c, 10, 69, 0
20, 443760, Note_on_c, 10, 69, 80
20, 444119, Note_on_c, 10, 69, 0
20, 444120, Note_on_c, 10, 69, 80
20, 444359, Note_on_c, 10, 69, 0
20, 444360, Note_on_c, 10, 67, 80
20, 444464, Note_on_c, 10, 67, 0
20, 444480, Note_on_c, 10, 66, 80
20, 444839, Note_on_c, 10, 66, 0
20, 444840, Note_on_c, 10, 69, 80
20, 445199, Note_on_c, 10, 69, 0
20, 445200, Note_on_c, 10, 69, 80
20, 445559, Note_on_c, 10, 69, 0
20, 445560, Note_on_c, 10, 69, 80
20, 445919, Note_on_c, 10, 69, 0
20, 445920, Note_on_c, 10, 69, 92
20, 445980, Control_c, 10, 11, 107
20, 446519, Note_on_c, 10, 69, 0
20, 446520, Note_on_c, 10, 69, 92
20, 446639, Note_on_c, 10, 69, 0
20, 446640, Note_on_c, 10, 69, 92
20, 446879, Note_on_c, 10, 69, 0
20, 447240, Control_c, 10, 11, 127
20, 447360, Note_on_c, 10, 69, 80
20, 447719, Note_on_c, 10, 69, 0
20, 447720, Note_on_c, 10, 69, 80
20, 448079, Note_on_c, 10, 69, 0
20, 448080, Note_on_c, 10, 71, 80
20, 448439, Note_on_c, 10, 71, 0
20, 448440, Note_on_c, 10, 72, 80
20, 448799, Note_on_c, 10, 72, 0
20, 448800, Note_on_c, 10, 72, 92
20, 448860, Control_c, 10, 11, 107
20, 449159, Note_on_c, 10, 72, 0
20, 449160, Note_on_c, 10, 71, 92
20, 449519, Note_on_c, 10, 71, 0
20, 449520, Note_on_c, 10, 69, 92
20, 449879, Note_on_c, 10, 69, 0
20, 449880, Note_on_c, 10, 67, 92
20, 450224, Note_on_c, 10, 67, 0
20, 450238, Control_c, 10, 11, 127
20, 450240, Note_on_c, 10, 66, 80
20, 450599, Note_on_c, 10, 66, 0
20, 450600, Note_on_c, 10, 66, 80
20, 450959, Note_on_c, 10, 66, 0
20, 450960, Note_on_c, 10, 67, 80
20, 451304, Note_on_c, 10, 67, 0
20, 451320, Note_on_c, 10, 66, 80
20, 451679, Note_on_c, 10, 66, 0
20, 451680, Note_on_c, 10, 67, 92
20, 451740, Control_c, 10, 11, 107
20, 452279, Note_on_c, 10, 67, 0
20, 452280, Note_on_c, 10, 66, 92
20, 452399, Note_on_c, 10, 66, 0
20, 452400, Note_on_c, 10, 66, 92
20, 452639, Note_on_c, 10, 66, 0
20, 453000, Control_c, 10, 11, 127
20, 453120, Note_on_c, 10, 64, 80
20, 453479, Note_on_c, 10, 64, 0
20, 453480, Note_on_c, 10, 69, 80
20, 453839, Note_on_c, 10, 69, 0
20, 453840, Note_on_c, 10, 69, 80
20, 454199, Note_on_c, 10, 69, 0
20, 454200, Note_on_c, 10, 69, 80
20, 454559, Note_on_c, 10, 69, 0
20, 454560, Note_on_c, 10, 69, 80
20, 454919, Note_on_c, 10, 69, 0
20, 454920, Note_on_c, 10, 69, 80
20, 455279, Note_on_c, 10, 69, 0
20, 455280, Note_on_c, 10, 69, 80
20, 455639, Note_on_c, 10, 69, 0
20, 455640, Note_on_c, 10, 69, 80
20, 455984, Note_on_c, 10, 69, 0
20, 456000, Note_on_c, 10, 69, 80
20, 456359, Note_on_c, 10, 69, 0
20, 456360, Note_on_c, 10, 66, 80
20, 456599, Note_on_c, 10, 66, 0
20, 456600, Note_on_c, 10, 64, 80
20, 456719, Note_on_c, 10, 64, 0
20, 456720, Note_on_c, 10, 73, 80
20, 457079, Note_on_c, 10, 73, 0
20, 457080, Note_on_c, 10, 73, 80
20, 457439, Note_on_c, 10, 73, 0
20, 457440, Note_on_c, 10, 66, 80
20, 457799, Note_on_c, 10, 66, 0
20, 457800, Note_on_c, 10, 68, 80
20, 458159, Note_on_c, 10, 68, 0
20, 458160, Note_on_c, 10, 69, 80
20, 458489, Note_on_c, 10, 69, 0
20, 458520, Note_on_c, 10, 69, 92
20, 459239, Note_on_c, 10, 69, 0
20, 459240, Note_on_c, 10, 69, 92
20, 459599, Note_on_c, 10, 69, 0
20, 459600, Note_on_c, 10, 71, 92
20, 459959, Note_on_c, 10, 71, 0
20, 459960, Note_on_c, 10, 72, 92
20, 460319, Note_on_c, 10, 72, 0
20, 460320, Note_on_c, 10, 72, 92
20, 460679, Note_on_c, 10, 72, 0
20, 460680, Note_on_c, 10, 71, 92
20, 461039, Note_on_c, 10, 71, 0
20, 461040, Note_on_c, 10, 69, 104
20, 461100, Control_c, 10, 11, 107
20, 461399, Note_on_c, 10, 69, 0
20, 461400, Note_on_c, 10, 67, 104
20, 461639, Note_on_c, 10, 67, 0
20, 461640, Note_on_c, 10, 71, 104
20, 461744, Note_on_c, 10, 71, 0
20, 461758, Control_c, 10, 11, 127
20, 461760, Note_on_c, 10, 66, 92
20, 462119, Note_on_c, 10, 66, 0
20, 462120, Note_on_c, 10, 66, 92
20, 462479, Note_on_c, 10, 66, 0
20, 462480, Note_on_c, 10, 67, 92
20, 462839, Note_on_c, 10, 67, 0
20, 462840, Note_on_c, 10, 69, 92
20, 463199, Note_on_c, 10, 69, 0
20, 463200, Note_on_c, 10, 67, 92
20, 463799, Note_on_c, 10, 67, 0
20, 463800, Note_on_c, 10, 66, 92
20, 463919, Note_on_c, 10, 66, 0
20, 463920, Note_on_c, 10, 66, 92
20, 464279, Note_on_c, 10, 66, 0
20, 464640, Note_on_c, 10, 64, 92
20, 464999, Note_on_c, 10, 64, 0
20, 465000, Note_on_c, 10, 69, 92
20, 465359, Note_on_c, 10, 69, 0
20, 465360, Note_on_c, 10, 69, 92
20, 465719, Note_on_c, 10, 69, 0
20, 465720, Note_on_c, 10, 69, 92
20, 466079, Note_on_c, 10, 69, 0
20, 466080, Note_on_c, 10, 69, 92
20, 466439, Note_on_c, 10, 69, 0
20, 466440, Note_on_c, 10, 69, 92
20, 466799, Note_on_c, 10, 69, 0
20, 466800, Note_on_c, 10, 69, 92
20, 467159, Note_on_c, 10, 69, 0
20, 467160, Note_on_c, 10, 69, 92
20, 467504, Note_on_c, 10, 69, 0
20, 467520, Note_on_c, 10, 69, 92
20, 467879, Note_on_c, 10, 69, 0
20, 467880, Note_on_c, 10, 66, 92
20, 468119, Note_on_c, 10, 66, 0
20, 468120, Note_on_c, 10, 64, 92
20, 468239, Note_on_c, 10, 64, 0
20, 468240, Note_on_c, 10, 73, 92
20, 468599, Note_on_c, 10, 73, 0
20, 468600, Note_on_c, 10, 73, 92
20, 468959, Note_on_c, 10, 73, 0
20, 468960, Note_on_c, 10, 66, 92
20, 469319, Note_on_c, 10, 66, 0
20, 469320, Note_on_c, 10, 68, 92
20, 469679, Note_on_c, 10, 68, 0
20, 469680, Note_on_c, 10, 69, 92
20, 470009, Note_on_c, 10, 69, 0
20, 470040, Note_on_c, 10, 69, 92
20, 470759, Note_on_c, 10, 69, 0
20, 470760, Note_on_c, 10, 69, 92
20, 471119, Note_on_c, 10, 69, 0
20, 471120, Note_on_c, 10, 71, 92
20, 471479, Note_on_c, 10, 71, 0
20, 471480, Note_on_c, 10, 72, 92
20, 471839, Note_on_c, 10, 72, 0
20, 471840, Note_on_c, 10, 72, 92
20, 472199, Note_on_c, 10, 72, 0
20, 472200, Note_on_c, 10, 71, 92
20, 472559, Note_on_c, 10, 71, 0
20, 472560, Note_on_c, 10, 69, 104
20, 472620, Control_c, 10, 11, 107
20, 472919, Note_on_c, 10, 69, 0
20, 472920, Note_on_c, 10, 67, 104
20, 473159, Note_on_c, 10, 67, 0
20, 473160, Note_on_c, 10, 71, 104
20, 473249, Note_on_c, 10, 71, 0
20, 473280, Note_on_c, 10, 66, 104
20, 473639, Note_on_c, 10, 66, 0
20, 473640, Note_on_c, 10, 66, 104
20, 473999, Note_on_c, 10, 66, 0
20, 474000, Note_on_c, 10, 67, 104
20, 474359, Note_on_c, 10, 67, 0
20, 474360, Note_on_c, 10, 69, 104
20, 474719, Note_on_c, 10, 69, 0
20, 474720, Note_on_c, 10, 67, 104
20, 475319, Note_on_c, 10, 67, 0
20, 475320, Note_on_c, 10, 66, 104
20, 475439, Note_on_c, 10, 66, 0
20, 475440, Note_on_c, 10, 66, 104
20, 475799, Note_on_c, 10, 66, 0
20, 490560, Control_c, 10, 11, 127
20, 492000, Note_on_c, 10, 71, 80
20, 492959, Note_on_c, 10, 71, 0
20, 492990, Note_on_c, 10, 71, 80
20, 493349, Note_on_c, 10, 71, 0
20, 493440, Note_on_c, 10, 69, 80
20, 493799, Note_on_c, 10, 69, 0
20, 493920, Note_on_c, 10, 66, 80
20, 494279, Note_on_c, 10, 66, 0
20, 494400, Note_on_c, 10, 67, 80
20, 495839, Note_on_c, 10, 67, 0
20, 495840, Note_on_c, 10, 67, 80
20, 496319, Note_on_c, 10, 67, 0
20, 496320, Note_on_c, 10, 67, 80
20, 496799, Note_on_c, 10, 67, 0
20, 496800, Note_on_c, 10, 67, 80
20, 497259, Note_on_c, 10, 67, 0
20, 497280, Note_on_c, 10, 71, 92
20, 497360, Control_c, 10, 11, 107
20, 498239, Note_on_c, 10, 71, 0
20, 498240, Note_on_c, 10, 69, 92
20, 498719, Note_on_c, 10, 69, 0
20, 498720, Note_on_c, 10, 69, 92
20, 499199, Note_on_c, 10, 69, 0
20, 499200, Note_on_c, 10, 66, 92
20, 499675, Note_on_c, 10, 66, 0
20, 499678, Control_c, 10, 11, 127
20, 499680, Note_on_c, 10, 64, 92
20, 499760, Control_c, 10, 11, 107
20, 500639, Note_on_c, 10, 64, 0
20, 500640, Note_on_c, 10, 72, 104
20, 501599, Note_on_c, 10, 72, 0
20, 501600, Note_on_c, 10, 72, 104
20, 502079, Note_on_c, 10, 72, 0
20, 502080, Note_on_c, 10, 69, 104
20, 503519, Note_on_c, 10, 69, 0
20, 513600, Control_c, 10, 11, 127
20, 515040, Note_on_c, 10, 65, 92
20, 516239, Note_on_c, 10, 65, 0
20, 516240, Note_on_c, 10, 65, 92
20, 516479, Note_on_c, 10, 65, 0
20, 516720, Note_on_c, 10, 72, 92
20, 516959, Note_on_c, 10, 72, 0
20, 516960, Note_on_c, 10, 74, 92
20, 517679, Note_on_c, 10, 74, 0
20, 517680, Note_on_c, 10, 74, 92
20, 517919, Note_on_c, 10, 74, 0
20, 517920, Note_on_c, 10, 74, 92
20, 518879, Note_on_c, 10, 74, 0
20, 518880, Note_on_c, 10, 74, 92
20, 519359, Note_on_c, 10, 74, 0
20, 519360, Note_on_c, 10, 74, 92
20, 520319, Note_on_c, 10, 74, 0
20, 520320, Note_on_c, 10, 70, 104
20, 520400, Control_c, 10, 11, 107
20, 521759, Note_on_c, 10, 70, 0
20, 521760, Note_on_c, 10, 67, 104
20, 522239, Note_on_c, 10, 67, 0
20, 522240, Note_on_c, 10, 67, 104
20, 522719, Note_on_c, 10, 67, 0
20, 522720, Note_on_c, 10, 65, 104
20, 523199, Note_on_c, 10, 65, 0
20, 523200, Note_on_c, 10, 64, 104
20, 523679, Note_on_c, 10, 64, 0
20, 523680, Note_on_c, 10, 69, 104
20, 524399, Note_on_c, 10, 69, 0
20, 524400, Note_on_c, 10, 71, 104
20, 524639, Note_on_c, 10, 71, 0
20, 524640, Note_on_c, 10, 72, 104
20, 525119, Note_on_c, 10, 72, 0
20, 525120, Note_on_c, 10, 72, 104
20, 525599, Note_on_c, 10, 72, 0
20, 525600, Note_on_c, 10, 71, 104
20, 526079, Note_on_c, 10, 71, 0
20, 531840, Control_c, 10, 11, 89
20, 532320, Control_c, 10, 11, 89
20, 532320, Note_on_c, 10, 62, 68
20, 532360, Control_c, 10, 11, 92
20, 532400, Control_c, 10, 11, 95
20, 532440, Control_c, 10, 11, 99
20, 532480, Control_c, 10, 11, 101
20, 532520, Control_c, 10, 11, 105
20, 532560, Control_c, 10, 11, 109
20, 532600, Control_c, 10, 11, 111
20, 532640, Control_c, 10, 11, 115
20, 532680, Control_c, 10, 11, 117
20, 532720, Control_c, 10, 11, 121
20, 532760, Control_c, 10, 11, 124
20, 532800, Control_c, 10, 11, 127
20, 532840, Control_c, 10, 11, 124
20, 532880, Control_c, 10, 11, 121
20, 532920, Control_c, 10, 11, 117
20, 532960, Control_c, 10, 11, 115
20, 533000, Control_c, 10, 11, 111
20, 533040, Control_c, 10, 11, 109
20, 533080, Control_c, 10, 11, 105
20, 533120, Control_c, 10, 11, 101
20, 533160, Control_c, 10, 11, 99
20, 533200, Control_c, 10, 11, 95
20, 533240, Control_c, 10, 11, 92
20, 533280, Control_c, 10, 11, 89
20, 533519, Note_on_c, 10, 62, 0
20, 533520, Note_on_c, 10, 59, 68
20, 533759, Note_on_c, 10, 59, 0
20, 533760, Note_on_c, 10, 55, 68
20, 534119, Note_on_c, 10, 55, 0
20, 534240, Note_on_c, 10, 55, 68
20, 534599, Note_on_c, 10, 55, 0
20, 535200, Control_c, 10, 11, 89
20, 535200, Note_on_c, 10, 60, 68
20, 535263, Control_c, 10, 11, 90
20, 535326, Control_c, 10, 11, 91
20, 535389, Control_c, 10, 11, 92
20, 535453, Control_c, 10, 11, 93
20, 535516, Control_c, 10, 11, 94
20, 535579, Control_c, 10, 11, 95
20, 535642, Control_c, 10, 11, 96
20, 535705, Control_c, 10, 11, 97
20, 535768, Control_c, 10, 11, 98
20, 535832, Control_c, 10, 11, 99
20, 535895, Control_c, 10, 11, 100
20, 535958, Control_c, 10, 11, 101
20, 536021, Control_c, 10, 11, 102
20, 536084, Control_c, 10, 11, 103
20, 536147, Control_c, 10, 11, 104
20, 536211, Control_c, 10, 11, 105
20, 536274, Control_c, 10, 11, 106
20, 536337, Control_c, 10, 11, 107
20, 536399, Note_on_c, 10, 60, 0
20, 536400, Note_on_c, 10, 58, 68
20, 536400, Control_c, 10, 11, 108
20, 536463, Control_c, 10, 11, 109
20, 536526, Control_c, 10, 11, 110
20, 536589, Control_c, 10, 11, 111
20, 536639, Note_on_c, 10, 58, 0
20, 536640, Note_on_c, 10, 58, 68
20, 536653, Control_c, 10, 11, 112
20, 536716, Control_c, 10, 11, 113
20, 536779, Control_c, 10, 11, 114
20, 536842, Control_c, 10, 11, 115
20, 536905, Control_c, 10, 11, 116
20, 536968, Control_c, 10, 11, 117
20, 536999, Note_on_c, 10, 58, 0
20, 537032, Control_c, 10, 11, 118
20, 537095, Control_c, 10, 11, 119
20, 537120, Note_on_c, 10, 66, 68
20, 537158, Control_c, 10, 11, 120
20, 537221, Control_c, 10, 11, 121
20, 537284, Control_c, 10, 11, 122
20, 537347, Control_c, 10, 11, 123
20, 537411, Control_c, 10, 11, 124
20, 537474, Control_c, 10, 11, 125
20, 537479, Note_on_c, 10, 66, 0
20, 537537, Control_c, 10, 11, 126
20, 538078, Control_c, 10, 11, 49
20, 538080, Control_c, 10, 11, 49
20, 538080, Note_on_c, 10, 62, 92
20, 538135, Control_c, 10, 11, 50
20, 538191, Control_c, 10, 11, 51
20, 538246, Control_c, 10, 11, 52
20, 538302, Control_c, 10, 11, 53
20, 538357, Control_c, 10, 11, 54
20, 538412, Control_c, 10, 11, 55
20, 538468, Control_c, 10, 11, 56
20, 538523, Control_c, 10, 11, 57
20, 538578, Control_c, 10, 11, 58
20, 538634, Control_c, 10, 11, 59
20, 538689, Control_c, 10, 11, 60
20, 538745, Control_c, 10, 11, 61
20, 538800, Control_c, 10, 11, 62
20, 538855, Control_c, 10, 11, 63
20, 538911, Control_c, 10, 11, 64
20, 538966, Control_c, 10, 11, 65
20, 539022, Control_c, 10, 11, 66
20, 539039, Note_on_c, 10, 62, 0
20, 539040, Note_on_c, 10, 62, 92
20, 539077, Control_c, 10, 11, 67
20, 539132, Control_c, 10, 11, 68
20, 539188, Control_c, 10, 11, 69
20, 539243, Control_c, 10, 11, 70
20, 539298, Control_c, 10, 11, 71
20, 539354, Control_c, 10, 11, 72
20, 539409, Control_c, 10, 11, 73
20, 539465, Control_c, 10, 11, 74
20, 539519, Note_on_c, 10, 62, 0
20, 539520, Control_c, 10, 11, 75
20, 539520, Note_on_c, 10, 69, 92
20, 539575, Control_c, 10, 11, 76
20, 539631, Control_c, 10, 11, 77
20, 539686, Control_c, 10, 11, 78
20, 539742, Control_c, 10, 11, 79
20, 539797, Control_c, 10, 11, 80
20, 539852, Control_c, 10, 11, 81
20, 539908, Control_c, 10, 11, 82
20, 539963, Control_c, 10, 11, 83
20, 540018, Control_c, 10, 11, 84
20, 540074, Control_c, 10, 11, 85
20, 540129, Control_c, 10, 11, 86
20, 540185, Control_c, 10, 11, 87
20, 540240, Control_c, 10, 11, 88
20, 540295, Control_c, 10, 11, 89
20, 540351, Control_c, 10, 11, 90
20, 540406, Control_c, 10, 11, 91
20, 540462, Control_c, 10, 11, 92
20, 540479, Note_on_c, 10, 69, 0
20, 540480, Note_on_c, 10, 69, 92
20, 540517, Control_c, 10, 11, 93
20, 540572, Control_c, 10, 11, 94
20, 540628, Control_c, 10, 11, 95
20, 540683, Control_c, 10, 11, 96
20, 540738, Control_c, 10, 11, 97
20, 540794, Control_c, 10, 11, 98
20, 540849, Control_c, 10, 11, 99
20, 540905, Control_c, 10, 11, 100
20, 540959, Note_on_c, 10, 69, 0
20, 540960, Note_on_c, 10, 70, 92
20, 540960, Control_c, 10, 11, 101
20, 541015, Control_c, 10, 11, 102
20, 541071, Control_c, 10, 11, 103
20, 541126, Control_c, 10, 11, 104
20, 541182, Control_c, 10, 11, 105
20, 541237, Control_c, 10, 11, 106
20, 541292, Control_c, 10, 11, 107
20, 541348, Control_c, 10, 11, 108
20, 541403, Control_c, 10, 11, 109
20, 541439, Note_on_c, 10, 70, 0
20, 541440, Note_on_c, 10, 70, 92
20, 541458, Control_c, 10, 11, 110
20, 541514, Control_c, 10, 11, 111
20, 541569, Control_c, 10, 11, 112
20, 541625, Control_c, 10, 11, 113
20, 541680, Control_c, 10, 11, 114
20, 541735, Control_c, 10, 11, 115
20, 541791, Control_c, 10, 11, 116
20, 541846, Control_c, 10, 11, 117
20, 541902, Control_c, 10, 11, 118
20, 541919, Note_on_c, 10, 70, 0
20, 542345, Control_c, 10, 11, 127
20, 542400, Note_on_c, 10, 67, 92
20, 543359, Note_on_c, 10, 67, 0
20, 543838, Control_c, 10, 11, 49
20, 543840, Note_on_c, 10, 64, 80
20, 544799, Note_on_c, 10, 64, 0
20, 544800, Note_on_c, 10, 64, 80
20, 545279, Note_on_c, 10, 64, 0
20, 545280, Control_c, 10, 11, 49
20, 545280, Note_on_c, 10, 67, 80
20, 545317, Control_c, 10, 11, 50
20, 545354, Control_c, 10, 11, 51
20, 545391, Control_c, 10, 11, 52
20, 545428, Control_c, 10, 11, 53
20, 545465, Control_c, 10, 11, 54
20, 545502, Control_c, 10, 11, 55
20, 545538, Control_c, 10, 11, 56
20, 545575, Control_c, 10, 11, 57
20, 545612, Control_c, 10, 11, 58
20, 545649, Control_c, 10, 11, 59
20, 545686, Control_c, 10, 11, 60
20, 545723, Control_c, 10, 11, 61
20, 545760, Control_c, 10, 11, 62
20, 545797, Control_c, 10, 11, 63
20, 545834, Control_c, 10, 11, 64
20, 545871, Control_c, 10, 11, 65
20, 545908, Control_c, 10, 11, 66
20, 545945, Control_c, 10, 11, 67
20, 545982, Control_c, 10, 11, 68
20, 546018, Control_c, 10, 11, 69
20, 546055, Control_c, 10, 11, 70
20, 546092, Control_c, 10, 11, 71
20, 546129, Control_c, 10, 11, 72
20, 546166, Control_c, 10, 11, 73
20, 546203, Control_c, 10, 11, 74
20, 546239, Note_on_c, 10, 67, 0
20, 546240, Note_on_c, 10, 67, 80
20, 546240, Control_c, 10, 11, 75
20, 546277, Control_c, 10, 11, 76
20, 546314, Control_c, 10, 11, 77
20, 546351, Control_c, 10, 11, 78
20, 546388, Control_c, 10, 11, 79
20, 546425, Control_c, 10, 11, 80
20, 546462, Control_c, 10, 11, 81
20, 546498, Control_c, 10, 11, 82
20, 546535, Control_c, 10, 11, 83
20, 546572, Control_c, 10, 11, 84
20, 546609, Control_c, 10, 11, 85
20, 546646, Control_c, 10, 11, 86
20, 546683, Control_c, 10, 11, 87
20, 546719, Note_on_c, 10, 67, 0
20, 546720, Control_c, 10, 11, 88
20, 546720, Note_on_c, 10, 69, 80
20, 546757, Control_c, 10, 11, 89
20, 546794, Control_c, 10, 11, 90
20, 546831, Control_c, 10, 11, 91
20, 546868, Control_c, 10, 11, 92
20, 546905, Control_c, 10, 11, 93
20, 546942, Control_c, 10, 11, 94
20, 546978, Control_c, 10, 11, 95
20, 547015, Control_c, 10, 11, 96
20, 547052, Control_c, 10, 11, 97
20, 547089, Control_c, 10, 11, 98
20, 547126, Control_c, 10, 11, 99
20, 547163, Control_c, 10, 11, 100
20, 547200, Control_c, 10, 11, 101
20, 547237, Control_c, 10, 11, 102
20, 547274, Control_c, 10, 11, 103
20, 547311, Control_c, 10, 11, 104
20, 547348, Control_c, 10, 11, 105
20, 547385, Control_c, 10, 11, 106
20, 547422, Control_c, 10, 11, 107
20, 547458, Control_c, 10, 11, 108
20, 547495, Control_c, 10, 11, 109
20, 547532, Control_c, 10, 11, 110
20, 547569, Control_c, 10, 11, 111
20, 547606, Control_c, 10, 11, 112
20, 547643, Control_c, 10, 11, 113
20, 547679, Note_on_c, 10, 69, 0
20, 547680, Note_on_c, 10, 69, 80
20, 547680, Control_c, 10, 11, 114
20, 547717, Control_c, 10, 11, 115
20, 547754, Control_c, 10, 11, 116
20, 547791, Control_c, 10, 11, 117
20, 547828, Control_c, 10, 11, 118
20, 547865, Control_c, 10, 11, 119
20, 547902, Control_c, 10, 11, 120
20, 547938, Control_c, 10, 11, 121
20, 547975, Control_c, 10, 11, 122
20, 548012, Control_c, 10, 11, 123
20, 548049, Control_c, 10, 11, 124
20, 548086, Control_c, 10, 11, 125
20, 548123, Control_c, 10, 11, 127
20, 548159, Note_on_c, 10, 69, 0
20, 548160, Note_on_c, 10, 69, 80
20, 549599, Note_on_c, 10, 69, 0
20, 550080, Note_on_c, 10, 67, 92
20, 550559, Note_on_c, 10, 67, 0
20, 550560, Note_on_c, 10, 75, 92
20, 550799, Note_on_c, 10, 75, 0
20, 550800, Note_on_c, 10, 75, 92
20, 551039, Note_on_c, 10, 75, 0
20, 551040, Note_on_c, 10, 75, 92
20, 551999, Note_on_c, 10, 75, 0
20, 552000, Note_on_c, 10, 75, 92
20, 552479, Note_on_c, 10, 75, 0
20, 552480, Note_on_c, 10, 75, 92
20, 552959, Note_on_c, 10, 75, 0
20, 552960, Note_on_c, 10, 75, 92
20, 553919, Note_on_c, 10, 75, 0
20, 553920, Note_on_c, 10, 75, 104
20, 554000, Control_c, 10, 11, 107
20, 554879, Note_on_c, 10, 75, 0
20, 554880, Note_on_c, 10, 75, 104
20, 555359, Note_on_c, 10, 75, 0
20, 559680, Control_c, 10, 11, 127
20, 560160, Note_on_c, 10, 76, 32
20, 560879, Note_on_c, 10, 76, 0
20, 560880, Note_on_c, 10, 76, 32
20, 561119, Note_on_c, 10, 76, 0
20, 561120, Note_on_c, 10, 76, 32
20, 562079, Note_on_c, 10, 76, 0
20, 562080, Note_on_c, 10, 76, 32
20, 562559, Note_on_c, 10, 76, 0
20, 562560, Note_on_c, 10, 76, 32
20, 563039, Note_on_c, 10, 76, 0
20, 563040, Note_on_c, 10, 76, 32
20, 563999, Note_on_c, 10, 76, 0
20, 564000, Note_on_c, 10, 76, 32
20, 566399, Note_on_c, 10, 76, 0
20, 566400, Note_on_c, 10, 76, 32
20, 566869, Note_on_c, 10, 76, 0
20, 567600, Note_on_c, 10, 74, 80
20, 569039, Note_on_c, 10, 74, 0
20, 569040, Note_on_c, 10, 74, 80
20, 569759, Note_on_c, 10, 74, 0
20, 569760, Note_on_c, 10, 73, 80
20, 570479, Note_on_c, 10, 73, 0
20, 570480, Note_on_c, 10, 69, 80
20, 571199, Note_on_c, 10, 69, 0
20, 571200, Note_on_c, 10, 71, 80
20, 571919, Note_on_c, 10, 71, 0
20, 571920, Note_on_c, 10, 71, 80
20, 572639, Note_on_c, 10, 71, 0
20, 572640, Note_on_c, 10, 69, 80
20, 573359, Note_on_c, 10, 69, 0
20, 573360, Note_on_c, 10, 66, 80
20, 574049, Note_on_c, 10, 66, 0
20, 574080, Note_on_c, 10, 67, 80
20, 574799, Note_on_c, 10, 67, 0
20, 574800, Note_on_c, 10, 67, 80
20, 575519, Note_on_c, 10, 67, 0
20, 575520, Note_on_c, 10, 66, 80
20, 576239, Note_on_c, 10, 66, 0
20, 576240, Note_on_c, 10, 62, 80
20, 576959, Note_on_c, 10, 62, 0
20, 576960, Note_on_c, 10, 71, 80
20, 577679, Note_on_c, 10, 71, 0
20, 577680, Note_on_c, 10, 71, 80
20, 578399, Note_on_c, 10, 71, 0
20, 578400, Note_on_c, 10, 69, 80
20, 579089, Note_on_c, 10, 69, 0
20, 579120, Note_on_c, 10, 61, 80
20, 580559, Note_on_c, 10, 61, 0
20, 580560, Note_on_c, 10, 61, 80
20, 581279, Note_on_c, 10, 61, 0
20, 581280, Note_on_c, 10, 59, 80
20, 581999, Note_on_c, 10, 59, 0
20, 582000, Note_on_c, 10, 57, 80
20, 582479, Note_on_c, 10, 57, 0
20, 582480, Note_on_c, 10, 56, 80
20, 582704, Note_on_c, 10, 56, 0
20, 582720, Note_on_c, 10, 62, 80
20, 583439, Note_on_c, 10, 62, 0
20, 583440, Note_on_c, 10, 74, 80
20, 584159, Note_on_c, 10, 74, 0
20, 584160, Note_on_c, 10, 76, 80
20, 584879, Note_on_c, 10, 76, 0
20, 584880, Note_on_c, 10, 64, 80
20, 585569, Note_on_c, 10, 64, 0
20, 585600, Note_on_c, 10, 66, 80
20, 586319, Note_on_c, 10, 66, 0
20, 586320, Note_on_c, 10, 66, 80
20, 587039, Note_on_c, 10, 66, 0
20, 587040, Note_on_c, 10, 64, 80
20, 587759, Note_on_c, 10, 64, 0
20, 587760, Note_on_c, 10, 62, 80
20, 588239, Note_on_c, 10, 62, 0
20, 588240, Note_on_c, 10, 61, 80
20, 588479, Note_on_c, 10, 61, 0
20, 588480, Note_on_c, 10, 64, 80
20, 589199, Note_on_c, 10, 64, 0
20, 589200, Note_on_c, 10, 64, 80
20, 589919, Note_on_c, 10, 64, 0
20, 589920, Note_on_c, 10, 62, 80
20, 590639, Note_on_c, 10, 62, 0
20, 592800, Note_on_c, 10, 64, 80
20, 593279, Note_on_c, 10, 64, 0
20, 593280, Note_on_c, 10, 64, 80
20, 593519, Note_on_c, 10, 64, 0
20, 595680, Note_on_c, 10, 69, 80
20, 596159, Note_on_c, 10, 69, 0
20, 596160, Note_on_c, 10, 69, 80
20, 596399, Note_on_c, 10, 69, 0
20, 597840, Note_on_c, 10, 67, 80
20, 598319, Note_on_c, 10, 67, 0
20, 598320, Note_on_c, 10, 55, 80
20, 598559, Note_on_c, 10, 55, 0
20, 598560, Note_on_c, 10, 57, 80
20, 598799, Note_on_c, 10, 57, 0
20, 598800, Note_on_c, 10, 62, 80
20, 599039, Note_on_c, 10, 62, 0
20, 599040, Note_on_c, 10, 64, 80
20, 599159, Note_on_c, 10, 64, 0
20, 599160, Note_on_c, 10, 66, 80
20, 599279, Note_on_c, 10, 66, 0
20, 599280, Note_on_c, 10, 67, 80
20, 599759, Note_on_c, 10, 67, 0
20, 599760, Note_on_c, 10, 66, 80
20, 599999, Note_on_c, 10, 66, 0
20, 600000, Note_on_c, 10, 64, 80
20, 600479, Note_on_c, 10, 64, 0
20, 600480, Note_on_c, 10, 62, 80
20, 600719, Note_on_c, 10, 62, 0
20, 600720, Note_on_c, 10, 61, 80
20, 601199, Note_on_c, 10, 61, 0
20, 601200, Note_on_c, 10, 62, 80
20, 601439, Note_on_c, 10, 62, 0
20, 601440, Note_on_c, 10, 66, 80
20, 601919, Note_on_c, 10, 66, 0
20, 601920, Note_on_c, 10, 64, 80
20, 602159, Note_on_c, 10, 64, 0
20, 602880, Note_on_c, 10, 73, 80
20, 603359, Note_on_c, 10, 73, 0
20, 603360, Note_on_c, 10, 73, 80
20, 603584, Note_on_c, 10, 73, 0
20, 603600, Note_on_c, 10, 74, 80
20, 604079, Note_on_c, 10, 74, 0
20, 604080, Note_on_c, 10, 76, 80
20, 604319, Note_on_c, 10, 76, 0
20, 604320, Note_on_c, 10, 76, 80
20, 604799, Note_on_c, 10, 76, 0
20, 604800, Note_on_c, 10, 74, 80
20, 605039, Note_on_c, 10, 74, 0
20, 605040, Note_on_c, 10, 73, 80
20, 605519, Note_on_c, 10, 73, 0
20, 605520, Note_on_c, 10, 71, 80
20, 605744, Note_on_c, 10, 71, 0
20, 605760, Note_on_c, 10, 69, 80
20, 606239, Note_on_c, 10, 69, 0
20, 606240, Note_on_c, 10, 69, 80
20, 606479, Note_on_c, 10, 69, 0
20, 606480, Note_on_c, 10, 71, 80
20, 606959, Note_on_c, 10, 71, 0
20, 606960, Note_on_c, 10, 73, 80
20, 607199, Note_on_c, 10, 73, 0
20, 607200, Note_on_c, 10, 73, 80
20, 607679, Note_on_c, 10, 73, 0
20, 607680, Note_on_c, 10, 71, 80
20, 607919, Note_on_c, 10, 71, 0
20, 607920, Note_on_c, 10, 69, 80
20, 608399, Note_on_c, 10, 69, 0
20, 608400, Note_on_c, 10, 67, 80
20, 608609, Note_on_c, 10, 67, 0
20, 608640, Note_on_c, 10, 66, 80
20, 609119, Note_on_c, 10, 66, 0
20, 609120, Note_on_c, 10, 66, 80
20, 609359, Note_on_c, 10, 66, 0
20, 609360, Note_on_c, 10, 68, 80
20, 609839, Note_on_c, 10, 68, 0
20, 609840, Note_on_c, 10, 69, 80
20, 610079, Note_on_c, 10, 69, 0
20, 610080, Note_on_c, 10, 69, 80
20, 610559, Note_on_c, 10, 69, 0
20, 610560, Note_on_c, 10, 67, 80
20, 610799, Note_on_c, 10, 67, 0
20, 610800, Note_on_c, 10, 66, 80
20, 611279, Note_on_c, 10, 66, 0
20, 611280, Note_on_c, 10, 64, 80
20, 611504, Note_on_c, 10, 64, 0
20, 611520, Note_on_c, 10, 74, 80
20, 611999, Note_on_c, 10, 74, 0
20, 612000, Note_on_c, 10, 73, 80
20, 612239, Note_on_c, 10, 73, 0
20, 612240, Note_on_c, 10, 71, 80
20, 612689, Note_on_c, 10, 71, 0
20, 612720, Note_on_c, 10, 76, 80
20, 612959, Note_on_c, 10, 76, 0
20, 612960, Note_on_c, 10, 73, 80
20, 613439, Note_on_c, 10, 73, 0
20, 613440, Note_on_c, 10, 73, 80
20, 613679, Note_on_c, 10, 73, 0
20, 613680, Note_on_c, 10, 73, 80
20, 614399, Note_on_c, 10, 73, 0
20, 615120, Note_on_c, 10, 66, 80
20, 615839, Note_on_c, 10, 66, 0
20, 615840, Note_on_c, 10, 66, 80
20, 616319, Note_on_c, 10, 66, 0
20, 616320, Note_on_c, 10, 63, 80
20, 617039, Note_on_c, 10, 63, 0
20, 617040, Note_on_c, 10, 66, 80
20, 617759, Note_on_c, 10, 66, 0
20, 617760, Note_on_c, 10, 63, 80
20, 618479, Note_on_c, 10, 63, 0
20, 618480, Note_on_c, 10, 59, 80
20, 619199, Note_on_c, 10, 59, 0
20, 619200, Note_on_c, 10, 64, 80
20, 619439, Note_on_c, 10, 64, 0
20, 619440, Note_on_c, 10, 64, 80
20, 620159, Note_on_c, 10, 64, 0
20, 622320, Note_on_c, 10, 74, 92
20, 623759, Note_on_c, 10, 74, 0
20, 623760, Note_on_c, 10, 74, 92
20, 624479, Note_on_c, 10, 74, 0
20, 624480, Note_on_c, 10, 73, 92
20, 625199, Note_on_c, 10, 73, 0
20, 625200, Note_on_c, 10, 69, 92
20, 625904, Note_on_c, 10, 69, 0
20, 625920, Note_on_c, 10, 71, 92
20, 626639, Note_on_c, 10, 71, 0
20, 626640, Note_on_c, 10, 71, 92
20, 627359, Note_on_c, 10, 71, 0
20, 627360, Note_on_c, 10, 69, 92
20, 628079, Note_on_c, 10, 69, 0
20, 628080, Note_on_c, 10, 66, 92
20, 628769, Note_on_c, 10, 66, 0
20, 628800, Note_on_c, 10, 68, 92
20, 629519, Note_on_c, 10, 68, 0
20, 629520, Note_on_c, 10, 68, 92
20, 630239, Note_on_c, 10, 68, 0
20, 630240, Note_on_c, 10, 66, 92
20, 630959, Note_on_c, 10, 66, 0
20, 630960, Note_on_c, 10, 62, 92
20, 631679, Note_on_c, 10, 62, 0
20, 631680, Note_on_c, 10, 71, 92
20, 632399, Note_on_c, 10, 71, 0
20, 632400, Note_on_c, 10, 71, 92
20, 633119, Note_on_c, 10, 71, 0
20, 633120, Note_on_c, 10, 69, 92
20, 633839, Note_on_c, 10, 69, 0
20, 634560, Note_on_c, 10, 61, 92
20, 635039, Note_on_c, 10, 61, 0
20, 635040, Note_on_c, 10, 61, 92
20, 635264, Note_on_c, 10, 61, 0
20, 635280, Note_on_c, 10, 63, 92
20, 635759, Note_on_c, 10, 63, 0
20, 635760, Note_on_c, 10, 64, 92
20, 635999, Note_on_c, 10, 64, 0
20, 636000, Note_on_c, 10, 64, 92
20, 636479, Note_on_c, 10, 64, 0
20, 636480, Note_on_c, 10, 62, 92
20, 636719, Note_on_c, 10, 62, 0
20, 636720, Note_on_c, 10, 61, 92
20, 637199, Note_on_c, 10, 61, 0
20, 637200, Note_on_c, 10, 59, 92
20, 637424, Note_on_c, 10, 59, 0
20, 637440, Note_on_c, 10, 62, 92
20, 637919, Note_on_c, 10, 62, 0
20, 637920, Note_on_c, 10, 62, 92
20, 638159, Note_on_c, 10, 62, 0
20, 638160, Note_on_c, 10, 64, 92
20, 638639, Note_on_c, 10, 64, 0
20, 638640, Note_on_c, 10, 66, 92
20, 638879, Note_on_c, 10, 66, 0
20, 638880, Note_on_c, 10, 66, 92
20, 639359, Note_on_c, 10, 66, 0
20, 639360, Note_on_c, 10, 64, 92
20, 639599, Note_on_c, 10, 64, 0
20, 639600, Note_on_c, 10, 62, 92
20, 640079, Note_on_c, 10, 62, 0
20, 640080, Note_on_c, 10, 61, 92
20, 640289, Note_on_c, 10, 61, 0
20, 640320, Note_on_c, 10, 71, 92
20, 640799, Note_on_c, 10, 71, 0
20, 640800, Note_on_c, 10, 71, 92
20, 641039, Note_on_c, 10, 71, 0
20, 641040, Note_on_c, 10, 73, 92
20, 641519, Note_on_c, 10, 73, 0
20, 641520, Note_on_c, 10, 74, 92
20, 641759, Note_on_c, 10, 74, 0
20, 641760, Note_on_c, 10, 73, 92
20, 642239, Note_on_c, 10, 73, 0
20, 642240, Note_on_c, 10, 71, 92
20, 642479, Note_on_c, 10, 71, 0
20, 642480, Note_on_c, 10, 70, 92
20, 642959, Note_on_c, 10, 70, 0
20, 642960, Note_on_c, 10, 68, 92
20, 643184, Note_on_c, 10, 68, 0
20, 643200, Note_on_c, 10, 70, 92
20, 643679, Note_on_c, 10, 70, 0
20, 643680, Note_on_c, 10, 70, 92
20, 643919, Note_on_c, 10, 70, 0
20, 643920, Note_on_c, 10, 71, 92
20, 644384, Note_on_c, 10, 71, 0
20, 644400, Note_on_c, 10, 73, 92
20, 644639, Note_on_c, 10, 73, 0
20, 644640, Note_on_c, 10, 73, 92
20, 645119, Note_on_c, 10, 73, 0
20, 645120, Note_on_c, 10, 71, 92
20, 645359, Note_on_c, 10, 71, 0
20, 645360, Note_on_c, 10, 73, 92
20, 645839, Note_on_c, 10, 73, 0
20, 645840, Note_on_c, 10, 74, 92
20, 646049, Note_on_c, 10, 74, 0
20, 646080, Note_on_c, 10, 71, 92
20, 646799, Note_on_c, 10, 71, 0
20, 646800, Note_on_c, 10, 71, 92
20, 647519, Note_on_c, 10, 71, 0
20, 647520, Note_on_c, 10, 70, 92
20, 648239, Note_on_c, 10, 70, 0
20, 648240, Note_on_c, 10, 66, 92
20, 648944, Note_on_c, 10, 66, 0
20, 648960, Note_on_c, 10, 76, 92
20, 649679, Note_on_c, 10, 76, 0
20, 649680, Note_on_c, 10, 75, 92
20, 650159, Note_on_c, 10, 75, 0
20, 650160, Note_on_c, 10, 73, 92
20, 650399, Note_on_c, 10, 73, 0
20, 650400, Note_on_c, 10, 75, 92
20, 651119, Note_on_c, 10, 75, 0
20, 651120, Note_on_c, 10, 66, 92
20, 651809, Note_on_c, 10, 66, 0
20, 651840, Note_on_c, 10, 69, 92
20, 652559, Note_on_c, 10, 69, 0
20, 652560, Note_on_c, 10, 68, 92
20, 653039, Note_on_c, 10, 68, 0
20, 653040, Note_on_c, 10, 66, 92
20, 653279, Note_on_c, 10, 66, 0
20, 653280, Note_on_c, 10, 64, 92
20, 653759, Note_on_c, 10, 64, 0
20, 653760, Note_on_c, 10, 68, 92
20, 653999, Note_on_c, 10, 68, 0
20, 654000, Note_on_c, 10, 69, 92
20, 654479, Note_on_c, 10, 69, 0
20, 654480, Note_on_c, 10, 71, 92
20, 654719, Note_on_c, 10, 71, 0
20, 654720, Note_on_c, 10, 76, 92
20, 655199, Note_on_c, 10, 76, 0
20, 655200, Note_on_c, 10, 74, 92
20, 655439, Note_on_c, 10, 74, 0
20, 655440, Note_on_c, 10, 73, 92
20, 655919, Note_on_c, 10, 73, 0
20, 655920, Note_on_c, 10, 71, 92
20, 656129, Note_on_c, 10, 71, 0
20, 656160, Note_on_c, 10, 69, 92
20, 656639, Note_on_c, 10, 69, 0
20, 656640, Note_on_c, 10, 76, 92
20, 656879, Note_on_c, 10, 76, 0
20, 656880, Note_on_c, 10, 74, 92
20, 657359, Note_on_c, 10, 74, 0
20, 657360, Note_on_c, 10, 76, 92
20, 657599, Note_on_c, 10, 76, 0
20, 657600, Note_on_c, 10, 74, 92
20, 658079, Note_on_c, 10, 74, 0
20, 658080, Note_on_c, 10, 73, 92
20, 658319, Note_on_c, 10, 73, 0
20, 661920, Note_on_c, 10, 66, 92
20, 662399, Note_on_c, 10, 66, 0
20, 662400, Note_on_c, 10, 66, 92
20, 662624, Note_on_c, 10, 66, 0
20, 662640, Note_on_c, 10, 67, 92
20, 663119, Note_on_c, 10, 67, 0
20, 663120, Note_on_c, 10, 69, 92
20, 663359, Note_on_c, 10, 69, 0
20, 663360, Note_on_c, 10, 69, 92
20, 663839, Note_on_c, 10, 69, 0
20, 663840, Note_on_c, 10, 67, 92
20, 664079, Note_on_c, 10, 67, 0
20, 664080, Note_on_c, 10, 66, 92
20, 664559, Note_on_c, 10, 66, 0
20, 664560, Note_on_c, 10, 64, 92
20, 664784, Note_on_c, 10, 64, 0
20, 664800, Note_on_c, 10, 62, 92
20, 665279, Note_on_c, 10, 62, 0
20, 665280, Note_on_c, 10, 62, 92
20, 665519, Note_on_c, 10, 62, 0
20, 665520, Note_on_c, 10, 64, 92
20, 665999, Note_on_c, 10, 64, 0
20, 666000, Note_on_c, 10, 66, 92
20, 666239, Note_on_c, 10, 66, 0
20, 666240, Note_on_c, 10, 66, 92
20, 666719, Note_on_c, 10, 66, 0
20, 666720, Note_on_c, 10, 64, 92
20, 666959, Note_on_c, 10, 64, 0
20, 666960, Note_on_c, 10, 62, 92
20, 667439, Note_on_c, 10, 62, 0
20, 667440, Note_on_c, 10, 60, 92
20, 667649, Note_on_c, 10, 60, 0
20, 667680, Note_on_c, 10, 59, 92
20, 668159, Note_on_c, 10, 59, 0
20, 668160, Note_on_c, 10, 71, 92
20, 668399, Note_on_c, 10, 71, 0
20, 668400, Note_on_c, 10, 72, 92
20, 668879, Note_on_c, 10, 72, 0
20, 668880, Note_on_c, 10, 74, 92
20, 669104, Note_on_c, 10, 74, 0
20, 669120, Note_on_c, 10, 74, 92
20, 669599, Note_on_c, 10, 74, 0
20, 669600, Note_on_c, 10, 66, 92
20, 669839, Note_on_c, 10, 66, 0
20, 669840, Note_on_c, 10, 67, 92
20, 670304, Note_on_c, 10, 67, 0
20, 670320, Note_on_c, 10, 69, 92
20, 670559, Note_on_c, 10, 69, 0
20, 670560, Note_on_c, 10, 67, 92
20, 671039, Note_on_c, 10, 67, 0
20, 671040, Note_on_c, 10, 66, 92
20, 671279, Note_on_c, 10, 66, 0
20, 671280, Note_on_c, 10, 67, 92
20, 671759, Note_on_c, 10, 67, 0
20, 671760, Note_on_c, 10, 69, 92
20, 671999, Note_on_c, 10, 69, 0
20, 672000, Note_on_c, 10, 71, 92
20, 672479, Note_on_c, 10, 71, 0
20, 672480, Note_on_c, 10, 69, 92
20, 672719, Note_on_c, 10, 69, 0
20, 672720, Note_on_c, 10, 71, 92
20, 673199, Note_on_c, 10, 71, 0
20, 673200, Note_on_c, 10, 73, 92
20, 673919, Note_on_c, 10, 73, 0
20, 673920, Note_on_c, 10, 69, 92
20, 674159, Note_on_c, 10, 69, 0
20, 674160, Note_on_c, 10, 71, 92
20, 674639, Note_on_c, 10, 71, 0
20, 674640, Note_on_c, 10, 73, 92
20, 674879, Note_on_c, 10, 73, 0
20, 674880, Note_on_c, 10, 74, 92
20, 675359, Note_on_c, 10, 74, 0
20, 675360, Note_on_c, 10, 74, 92
20, 675599, Note_on_c, 10, 74, 0
20, 675600, Note_on_c, 10, 74, 92
20, 676319, Note_on_c, 10, 74, 0
20, 687120, Control_c, 10, 11, 69
20, 687840, Note_on_c, 10, 55, 80
20, 687840, Control_c, 10, 11, 69
20, 688014, Control_c, 10, 11, 70
20, 688188, Control_c, 10, 11, 71
20, 688319, Note_on_c, 10, 55, 0
20, 688361, Control_c, 10, 11, 72
20, 688535, Control_c, 10, 11, 73
20, 688709, Control_c, 10, 11, 74
20, 688883, Control_c, 10, 11, 75
20, 689040, Note_on_c, 10, 55, 80
20, 689057, Control_c, 10, 11, 76
20, 689230, Control_c, 10, 11, 77
20, 689279, Note_on_c, 10, 55, 0
20, 689280, Note_on_c, 10, 64, 80
20, 689404, Control_c, 10, 11, 78
20, 689578, Control_c, 10, 11, 79
20, 689752, Control_c, 10, 11, 80
20, 689759, Note_on_c, 10, 64, 0
20, 689926, Control_c, 10, 11, 81
20, 690099, Control_c, 10, 11, 82
20, 690273, Control_c, 10, 11, 83
20, 690447, Control_c, 10, 11, 84
20, 690480, Note_on_c, 10, 64, 80
20, 690621, Control_c, 10, 11, 85
20, 690719, Note_on_c, 10, 64, 0
20, 690720, Note_on_c, 10, 65, 80
20, 690794, Control_c, 10, 11, 86
20, 690968, Control_c, 10, 11, 87
20, 691142, Control_c, 10, 11, 88
20, 691199, Note_on_c, 10, 65, 0
20, 691316, Control_c, 10, 11, 89
20, 691490, Control_c, 10, 11, 90
20, 691663, Control_c, 10, 11, 91
20, 691837, Control_c, 10, 11, 92
20, 691920, Note_on_c, 10, 65, 80
20, 692011, Control_c, 10, 11, 93
20, 692159, Note_on_c, 10, 65, 0
20, 692160, Note_on_c, 10, 66, 80
20, 692185, Control_c, 10, 11, 94
20, 692359, Control_c, 10, 11, 95
20, 692532, Control_c, 10, 11, 96
20, 692706, Control_c, 10, 11, 97
20, 692880, Control_c, 10, 11, 98
20, 693054, Control_c, 10, 11, 99
20, 693228, Control_c, 10, 11, 100
20, 693401, Control_c, 10, 11, 101
20, 693569, Note_on_c, 10, 66, 0
20, 693575, Control_c, 10, 11, 102
20, 693600, Note_on_c, 10, 58, 80
20, 693749, Control_c, 10, 11, 103
20, 693923, Control_c, 10, 11, 104
20, 694079, Note_on_c, 10, 58, 0
20, 694097, Control_c, 10, 11, 105
20, 694270, Control_c, 10, 11, 106
20, 694444, Control_c, 10, 11, 107
20, 694618, Control_c, 10, 11, 108
20, 694792, Control_c, 10, 11, 109
20, 694800, Note_on_c, 10, 58, 80
20, 694966, Control_c, 10, 11, 110
20, 695039, Note_on_c, 10, 58, 0
20, 695040, Note_on_c, 10, 67, 80
20, 695139, Control_c, 10, 11, 111
20, 695313, Control_c, 10, 11, 112
20, 695487, Control_c, 10, 11, 113
20, 695519, Note_on_c, 10, 67, 0
20, 695661, Control_c, 10, 11, 114
20, 695834, Control_c, 10, 11, 115
20, 696008, Control_c, 10, 11, 116
20, 696182, Control_c, 10, 11, 117
20, 696240, Note_on_c, 10, 67, 80
20, 696356, Control_c, 10, 11, 118
20, 696479, Note_on_c, 10, 67, 0
20, 696480, Note_on_c, 10, 68, 80
20, 696530, Control_c, 10, 11, 119
20, 696703, Control_c, 10, 11, 120
20, 696877, Control_c, 10, 11, 121
20, 696959, Note_on_c, 10, 68, 0
20, 697051, Control_c, 10, 11, 122
20, 697225, Control_c, 10, 11, 123
20, 697399, Control_c, 10, 11, 124
20, 697572, Control_c, 10, 11, 125
20, 697680, Note_on_c, 10, 68, 80
20, 697746, Control_c, 10, 11, 127
20, 697919, Note_on_c, 10, 68, 0
20, 697920, Note_on_c, 10, 69, 80
20, 698609, Note_on_c, 10, 69, 0
20, 698640, Note_on_c, 10, 69, 92
20, 698720, Control_c, 10, 11, 107
20, 700079, Note_on_c, 10, 69, 0
20, 700080, Note_on_c, 10, 69, 92
20, 700799, Note_on_c, 10, 69, 0
20, 702238, Control_c, 10, 11, 127
20, 702240, Note_on_c, 10, 71, 80
20, 702959, Note_on_c, 10, 71, 0
20, 702960, Note_on_c, 10, 71, 80
20, 703679, Note_on_c, 10, 71, 0
20, 704160, Control_c, 10, 11, 69
20, 704400, Note_on_c, 10, 73, 80
20, 705839, Note_on_c, 10, 73, 0
20, 705840, Note_on_c, 10, 73, 80
20, 706559, Note_on_c, 10, 73, 0
20, 706560, Control_c, 10, 11, 69
20, 706560, Note_on_c, 10, 71, 80
20, 706606, Control_c, 10, 11, 70
20, 706651, Control_c, 10, 11, 71
20, 706697, Control_c, 10, 11, 72
20, 706742, Control_c, 10, 11, 73
20, 706788, Control_c, 10, 11, 74
20, 706833, Control_c, 10, 11, 75
20, 706879, Control_c, 10, 11, 76
20, 706924, Control_c, 10, 11, 77
20, 706970, Control_c, 10, 11, 78
20, 707015, Control_c, 10, 11, 79
20, 707061, Control_c, 10, 11, 80
20, 707106, Control_c, 10, 11, 81
20, 707152, Control_c, 10, 11, 82
20, 707197, Control_c, 10, 11, 83
20, 707243, Control_c, 10, 11, 84
20, 707288, Control_c, 10, 11, 85
20, 707334, Control_c, 10, 11, 86
20, 707379, Control_c, 10, 11, 87
20, 707425, Control_c, 10, 11, 88
20, 707470, Control_c, 10, 11, 89
20, 707516, Control_c, 10, 11, 90
20, 707561, Control_c, 10, 11, 91
20, 707607, Control_c, 10, 11, 92
20, 707652, Control_c, 10, 11, 93
20, 707698, Control_c, 10, 11, 94
20, 707743, Control_c, 10, 11, 95
20, 707789, Control_c, 10, 11, 96
20, 707834, Control_c, 10, 11, 97
20, 707880, Control_c, 10, 11, 98
20, 707926, Control_c, 10, 11, 99
20, 707971, Control_c, 10, 11, 100
20, 708017, Control_c, 10, 11, 101
20, 708062, Control_c, 10, 11, 102
20, 708108, Control_c, 10, 11, 103
20, 708153, Control_c, 10, 11, 104
20, 708199, Control_c, 10, 11, 105
20, 708244, Control_c, 10, 11, 106
20, 708290, Control_c, 10, 11, 107
20, 708335, Control_c, 10, 11, 108
20, 708381, Control_c, 10, 11, 109
20, 708426, Control_c, 10, 11, 110
20, 708472, Control_c, 10, 11, 111
20, 708517, Control_c, 10, 11, 112
20, 708563, Control_c, 10, 11, 113
20, 708608, Control_c, 10, 11, 114
20, 708654, Control_c, 10, 11, 115
20, 708699, Control_c, 10, 11, 116
20, 708719, Note_on_c, 10, 71, 0
20, 708720, Note_on_c, 10, 71, 80
20, 708745, Control_c, 10, 11, 117
20, 708790, Control_c, 10, 11, 118
20, 708836, Control_c, 10, 11, 119
20, 708881, Control_c, 10, 11, 120
20, 708927, Control_c, 10, 11, 121
20, 708972, Control_c, 10, 11, 122
20, 709018, Control_c, 10, 11, 123
20, 709063, Control_c, 10, 11, 124
20, 709109, Control_c, 10, 11, 125
20, 709154, Control_c, 10, 11, 127
20, 709240, Control_c, 10, 11, 122
20, 709280, Control_c, 10, 11, 117
20, 709320, Control_c, 10, 11, 112
20, 709360, Control_c, 10, 11, 107
20, 709400, Control_c, 10, 11, 102
20, 709439, Note_on_c, 10, 71, 0
20, 709440, Control_c, 10, 11, 99
20, 709440, Note_on_c, 10, 73, 80
20, 709480, Control_c, 10, 11, 94
20, 709520, Control_c, 10, 11, 89
20, 709560, Control_c, 10, 11, 84
20, 709600, Control_c, 10, 11, 79
20, 709640, Control_c, 10, 11, 74
20, 709680, Control_c, 10, 11, 69
20, 710159, Note_on_c, 10, 73, 0
20, 710160, Note_on_c, 10, 73, 80
20, 710879, Note_on_c, 10, 73, 0
20, 710880, Note_on_c, 10, 69, 80
20, 711599, Note_on_c, 10, 69, 0
20, 711600, Note_on_c, 10, 69, 80
20, 712319, Note_on_c, 10, 69, 0
20, 712320, Note_on_c, 10, 71, 80
20, 713039, Note_on_c, 10, 71, 0
20, 713040, Note_on_c, 10, 71, 80
20, 713759, Note_on_c, 10, 71, 0
20, 713760, Note_on_c, 10, 71, 80
20, 714479, Note_on_c, 10, 71, 0
20, 714480, Note_on_c, 10, 71, 80
20, 715199, Note_on_c, 10, 71, 0
20, 715200, Note_on_c, 10, 73, 80
20, 715919, Note_on_c, 10, 73, 0
20, 715920, Note_on_c, 10, 73, 80
20, 716609, Note_on_c, 10, 73, 0
20, 716640, Control_c, 10, 11, 69
20, 716640, Note_on_c, 10, 73, 80
20, 716700, Control_c, 10, 11, 72
20, 716760, Control_c, 10, 11, 75
20, 716820, Control_c, 10, 11, 79
20, 716880, Control_c, 10, 11, 82
20, 716940, Control_c, 10, 11, 85
20, 717000, Control_c, 10, 11, 89
20, 717060, Control_c, 10, 11, 92
20, 717120, Control_c, 10, 11, 95
20, 717180, Control_c, 10, 11, 99
20, 717240, Control_c, 10, 11, 102
20, 717300, Control_c, 10, 11, 105
20, 717359, Note_on_c, 10, 73, 0
20, 717360, Control_c, 10, 11, 109
20, 717360, Note_on_c, 10, 74, 80
20, 717420, Control_c, 10, 11, 105
20, 717480, Control_c, 10, 11, 102
20, 717540, Control_c, 10, 11, 99
20, 717600, Control_c, 10, 11, 95
20, 717660, Control_c, 10, 11, 92
20, 717720, Control_c, 10, 11, 89
20, 717780, Control_c, 10, 11, 85
20, 717840, Control_c, 10, 11, 82
20, 717900, Control_c, 10, 11, 79
20, 717960, Control_c, 10, 11, 75
20, 718020, Control_c, 10, 11, 72
20, 718079, Note_on_c, 10, 74, 0
20, 718080, Control_c, 10, 11, 69
20, 718080, Note_on_c, 10, 74, 80
20, 718799, Note_on_c, 10, 74, 0
20, 718800, Note_on_c, 10, 74, 80
20, 719519, Note_on_c, 10, 74, 0
20, 719520, Note_on_c, 10, 74, 74
20, 720239, Note_on_c, 10, 74, 0
20, 720240, Note_on_c, 10, 74, 74
20, 720959, Note_on_c, 10, 74, 0
20, 720960, Note_on_c, 10, 74, 74
20, 723119, Note_on_c, 10, 74, 0
20, 723120, Note_on_c, 10, 74, 68
20, 723839, Note_on_c, 10, 74, 0
20, 724800, Control_c, 10, 11, 127
20, 754560, Note_on_c, 10, 64, 44
20, 754799, Note_on_c, 10, 64, 0
20, 754800, Note_on_c, 10, 64, 45
20, 755039, Note_on_c, 10, 64, 0
20, 755040, Note_on_c, 10, 62, 47
20, 755279, Note_on_c, 10, 62, 0
20, 755280, Note_on_c, 10, 62, 48
20, 755499, Note_on_c, 10, 62, 0
20, 755520, Note_on_c, 10, 67, 50
20, 755759, Note_on_c, 10, 67, 0
20, 755760, Note_on_c, 10, 67, 51
20, 755999, Note_on_c, 10, 67, 0
20, 756000, Note_on_c, 10, 66, 53
20, 756239, Note_on_c, 10, 66, 0
20, 756240, Note_on_c, 10, 66, 54
20, 756479, Note_on_c, 10, 66, 0
20, 756480, Note_on_c, 10, 66, 56
20, 756719, Note_on_c, 10, 66, 0
20, 756720, Note_on_c, 10, 64, 57
20, 756959, Note_on_c, 10, 64, 0
20, 756960, Note_on_c, 10, 62, 59
20, 757199, Note_on_c, 10, 62, 0
20, 757200, Note_on_c, 10, 69, 60
20, 757439, Note_on_c, 10, 69, 0
20, 757440, Note_on_c, 10, 69, 62
20, 757679, Note_on_c, 10, 69, 0
20, 757680, Note_on_c, 10, 67, 63
20, 757919, Note_on_c, 10, 67, 0
20, 757920, Note_on_c, 10, 67, 65
20, 758159, Note_on_c, 10, 67, 0
20, 758160, Note_on_c, 10, 66, 66
20, 758379, Note_on_c, 10, 66, 0
20, 758400, Note_on_c, 10, 66, 68
20, 758639, Note_on_c, 10, 66, 0
20, 758640, Note_on_c, 10, 64, 69
20, 758879, Note_on_c, 10, 64, 0
20, 758880, Note_on_c, 10, 62, 71
20, 759119, Note_on_c, 10, 62, 0
20, 759120, Note_on_c, 10, 69, 72
20, 759359, Note_on_c, 10, 69, 0
20, 759360, Note_on_c, 10, 69, 74
20, 759599, Note_on_c, 10, 69, 0
20, 759600, Note_on_c, 10, 67, 75
20, 759839, Note_on_c, 10, 67, 0
20, 759840, Note_on_c, 10, 67, 77
20, 760079, Note_on_c, 10, 67, 0
20, 760080, Note_on_c, 10, 66, 78
20, 760299, Note_on_c, 10, 66, 0
20, 760320, Note_on_c, 10, 69, 80
20, 760559, Note_on_c, 10, 69, 0
20, 760560, Note_on_c, 10, 69, 80
20, 760799, Note_on_c, 10, 69, 0
20, 760800, Note_on_c, 10, 71, 80
20, 761039, Note_on_c, 10, 71, 0
20, 761040, Note_on_c, 10, 69, 80
20, 761279, Note_on_c, 10, 69, 0
20, 761280, Note_on_c, 10, 74, 80
20, 761519, Note_on_c, 10, 74, 0
20, 761520, Note_on_c, 10, 73, 80
20, 761759, Note_on_c, 10, 73, 0
20, 761760, Note_on_c, 10, 66, 80
20, 761999, Note_on_c, 10, 66, 0
20, 762000, Note_on_c, 10, 64, 80
20, 762239, Note_on_c, 10, 64, 0
20, 762240, Note_on_c, 10, 69, 80
20, 762479, Note_on_c, 10, 69, 0
20, 762480, Note_on_c, 10, 67, 80
20, 762719, Note_on_c, 10, 67, 0
20, 762720, Note_on_c, 10, 67, 80
20, 762959, Note_on_c, 10, 67, 0
20, 765360, Note_on_c, 10, 66, 92
20, 765959, Note_on_c, 10, 66, 0
20, 765960, Note_on_c, 10, 66, 92
20, 766079, Note_on_c, 10, 66, 0
20, 766080, Note_on_c, 10, 66, 92
20, 766319, Note_on_c, 10, 66, 0
20, 766320, Note_on_c, 10, 62, 92
20, 766539, Note_on_c, 10, 62, 0
20, 766560, Note_on_c, 10, 74, 92
20, 766919, Note_on_c, 10, 74, 0
20, 766920, Note_on_c, 10, 74, 92
20, 767039, Note_on_c, 10, 74, 0
20, 767040, Note_on_c, 10, 74, 92
20, 767279, Note_on_c, 10, 74, 0
20, 767280, Note_on_c, 10, 71, 92
20, 767499, Note_on_c, 10, 71, 0
20, 767520, Note_on_c, 10, 71, 92
20, 767879, Note_on_c, 10, 71, 0
20, 767880, Note_on_c, 10, 71, 92
20, 767999, Note_on_c, 10, 71, 0
20, 768000, Note_on_c, 10, 71, 92
20, 768239, Note_on_c, 10, 71, 0
20, 768240, Note_on_c, 10, 67, 92
20, 768459, Note_on_c, 10, 67, 0
20, 768480, Note_on_c, 10, 76, 92
20, 768839, Note_on_c, 10, 76, 0
20, 768840, Note_on_c, 10, 76, 92
20, 768959, Note_on_c, 10, 76, 0
20, 768960, Control_c, 10, 11, 127
20, 768960, Note_on_c, 10, 76, 92
20, 768976, Control_c, 10, 11, 122
20, 768992, Control_c, 10, 11, 117
20, 769008, Control_c, 10, 11, 111
20, 769024, Control_c, 10, 11, 106
20, 769040, Control_c, 10, 11, 101
20, 769056, Control_c, 10, 11, 96
20, 769072, Control_c, 10, 11, 91
20, 769088, Control_c, 10, 11, 85
20, 769104, Control_c, 10, 11, 80
20, 769120, Control_c, 10, 11, 75
20, 769136, Control_c, 10, 11, 70
20, 769152, Control_c, 10, 11, 65
20, 769168, Control_c, 10, 11, 59
20, 769184, Control_c, 10, 11, 54
20, 769199, Note_on_c, 10, 76, 0
20, 769200, Control_c, 10, 11, 49
20, 769200, Note_on_c, 10, 76, 92
20, 769218, Control_c, 10, 11, 50
20, 769236, Control_c, 10, 11, 51
20, 769254, Control_c, 10, 11, 52
20, 769272, Control_c, 10, 11, 53
20, 769290, Control_c, 10, 11, 54
20, 769308, Control_c, 10, 11, 55
20, 769326, Control_c, 10, 11, 56
20, 769344, Control_c, 10, 11, 57
20, 769362, Control_c, 10, 11, 58
20, 769380, Control_c, 10, 11, 59
20, 769398, Control_c, 10, 11, 60
20, 769416, Control_c, 10, 11, 61
20, 769434, Control_c, 10, 11, 62
20, 769439, Note_on_c, 10, 76, 0
20, 769440, Note_on_c, 10, 76, 92
20, 769452, Control_c, 10, 11, 63
20, 769470, Control_c, 10, 11, 64
20, 769488, Control_c, 10, 11, 65
20, 769506, Control_c, 10, 11, 66
20, 769524, Control_c, 10, 11, 67
20, 769542, Control_c, 10, 11, 68
20, 769560, Control_c, 10, 11, 69
20, 769578, Control_c, 10, 11, 70
20, 769596, Control_c, 10, 11, 71
20, 769614, Control_c, 10, 11, 72
20, 769632, Control_c, 10, 11, 73
20, 769650, Control_c, 10, 11, 74
20, 769668, Control_c, 10, 11, 75
20, 769679, Note_on_c, 10, 76, 0
20, 769680, Note_on_c, 10, 76, 92
20, 769686, Control_c, 10, 11, 76
20, 769704, Control_c, 10, 11, 77
20, 769722, Control_c, 10, 11, 78
20, 769740, Control_c, 10, 11, 79
20, 769758, Control_c, 10, 11, 80
20, 769776, Control_c, 10, 11, 81
20, 769794, Control_c, 10, 11, 82
20, 769812, Control_c, 10, 11, 83
20, 769830, Control_c, 10, 11, 84
20, 769848, Control_c, 10, 11, 85
20, 769866, Control_c, 10, 11, 86
20, 769884, Control_c, 10, 11, 87
20, 769902, Control_c, 10, 11, 89
20, 769919, Note_on_c, 10, 76, 0
20, 769920, Control_c, 10, 11, 89
20, 769920, Note_on_c, 10, 76, 92
20, 769936, Control_c, 10, 11, 86
20, 769952, Control_c, 10, 11, 84
20, 769968, Control_c, 10, 11, 81
20, 769984, Control_c, 10, 11, 78
20, 770000, Control_c, 10, 11, 76
20, 770016, Control_c, 10, 11, 73
20, 770032, Control_c, 10, 11, 70
20, 770039, Note_on_c, 10, 76, 0
20, 770040, Note_on_c, 10, 74, 92
20, 770048, Control_c, 10, 11, 68
20, 770064, Control_c, 10, 11, 65
20, 770080, Control_c, 10, 11, 62
20, 770096, Control_c, 10, 11, 60
20, 770112, Control_c, 10, 11, 57
20, 770128, Control_c, 10, 11, 54
20, 770144, Control_c, 10, 11, 49
20, 770159, Note_on_c, 10, 74, 0
20, 770160, Note_on_c, 10, 74, 92
20, 770384, Note_on_c, 10, 74, 0
20, 770400, Note_on_c, 10, 74, 92
20, 770639, Note_on_c, 10, 74, 0
20, 770640, Note_on_c, 10, 66, 92
20, 770879, Note_on_c, 10, 66, 0
20, 770880, Note_on_c, 10, 71, 92
20, 771479, Note_on_c, 10, 71, 0
20, 771480, Note_on_c, 10, 69, 92
20, 771599, Note_on_c, 10, 69, 0
20, 771600, Note_on_c, 10, 71, 92
20, 771719, Note_on_c, 10, 71, 0
20, 771720, Note_on_c, 10, 67, 92
20, 771839, Note_on_c, 10, 67, 0
20, 771840, Note_on_c, 10, 67, 92
20, 771959, Note_on_c, 10, 67, 0
20, 771960, Note_on_c, 10, 66, 92
20, 772079, Note_on_c, 10, 66, 0
20, 772080, Note_on_c, 10, 66, 92
20, 772319, Note_on_c, 10, 66, 0
20, 772320, Note_on_c, 10, 66, 92
20, 772559, Note_on_c, 10, 66, 0
20, 772560, Note_on_c, 10, 64, 92
20, 773279, Note_on_c, 10, 64, 0
20, 776160, Control_c, 10, 11, 127
20, 776640, Note_on_c, 10, 67, 44
20, 776879, Note_on_c, 10, 67, 0
20, 776880, Note_on_c, 10, 67, 46
20, 777119, Note_on_c, 10, 67, 0
20, 777120, Note_on_c, 10, 66, 48
20, 777359, Note_on_c, 10, 66, 0
20, 777360, Note_on_c, 10, 66, 50
20, 777579, Note_on_c, 10, 66, 0
20, 777600, Note_on_c, 10, 73, 53
20, 777839, Note_on_c, 10, 73, 0
20, 777840, Note_on_c, 10, 73, 55
20, 778079, Note_on_c, 10, 73, 0
20, 778080, Note_on_c, 10, 74, 57
20, 778319, Note_on_c, 10, 74, 0
20, 778320, Note_on_c, 10, 74, 59
20, 778559, Note_on_c, 10, 74, 0
20, 778560, Note_on_c, 10, 69, 62
20, 778799, Note_on_c, 10, 69, 0
20, 778800, Note_on_c, 10, 67, 64
20, 779039, Note_on_c, 10, 67, 0
20, 779040, Note_on_c, 10, 66, 66
20, 779519, Note_on_c, 10, 66, 0
20, 779520, Note_on_c, 10, 69, 71
20, 779999, Note_on_c, 10, 69, 0
20, 780000, Note_on_c, 10, 69, 75
20, 780459, Note_on_c, 10, 69, 0
20, 780480, Note_on_c, 10, 69, 80
20, 780719, Note_on_c, 10, 69, 0
20, 780720, Note_on_c, 10, 69, 80
20, 780959, Note_on_c, 10, 69, 0
20, 780960, Note_on_c, 10, 71, 80
20, 781199, Note_on_c, 10, 71, 0
20, 781200, Note_on_c, 10, 69, 80
20, 781439, Note_on_c, 10, 69, 0
20, 781440, Note_on_c, 10, 62, 80
20, 781679, Note_on_c, 10, 62, 0
20, 781680, Note_on_c, 10, 61, 80
20, 781919, Note_on_c, 10, 61, 0
20, 781920, Note_on_c, 10, 66, 80
20, 782159, Note_on_c, 10, 66, 0
20, 782160, Note_on_c, 10, 64, 80
20, 782399, Note_on_c, 10, 64, 0
20, 782400, Note_on_c, 10, 69, 80
20, 782639, Note_on_c, 10, 69, 0
20, 782640, Note_on_c, 10, 67, 80
20, 782879, Note_on_c, 10, 67, 0
20, 782880, Note_on_c, 10, 67, 80
20, 783119, Note_on_c, 10, 67, 0
20, 785520, Note_on_c, 10, 66, 92
20, 786119, Note_on_c, 10, 66, 0
20, 786120, Note_on_c, 10, 66, 92
20, 786239, Note_on_c, 10, 66, 0
20, 786240, Note_on_c, 10, 66, 92
20, 786479, Note_on_c, 10, 66, 0
20, 786480, Note_on_c, 10, 62, 92
20, 786699, Note_on_c, 10, 62, 0
20, 786720, Note_on_c, 10, 74, 92
20, 787079, Note_on_c, 10, 74, 0
20, 787080, Note_on_c, 10, 74, 92
20, 787199, Note_on_c, 10, 74, 0
20, 787200, Note_on_c, 10, 74, 92
20, 787439, Note_on_c, 10, 74, 0
20, 787440, Note_on_c, 10, 71, 92
20, 787659, Note_on_c, 10, 71, 0
20, 787680, Note_on_c, 10, 71, 92
20, 788039, Note_on_c, 10, 71, 0
20, 788040, Note_on_c, 10, 71, 92
20, 788159, Note_on_c, 10, 71, 0
20, 788160, Note_on_c, 10, 71, 92
20, 788399, Note_on_c, 10, 71, 0
20, 788400, Note_on_c, 10, 67, 92
20, 788639, Note_on_c, 10, 67, 0
20, 789600, Note_on_c, 10, 64, 92
20, 789959, Note_on_c, 10, 64, 0
20, 789960, Note_on_c, 10, 64, 92
20, 790079, Note_on_c, 10, 64, 0
20, 790080, Note_on_c, 10, 64, 92
20, 790319, Note_on_c, 10, 64, 0
20, 790320, Note_on_c, 10, 64, 92
20, 790559, Note_on_c, 10, 64, 0
20, 812160, Note_on_c, 10, 74, 80
20, 812399, Note_on_c, 10, 74, 0
20, 812400, Note_on_c, 10, 74, 80
20, 812639, Note_on_c, 10, 74, 0
20, 812640, Note_on_c, 10, 73, 80
20, 812879, Note_on_c, 10, 73, 0
20, 812880, Note_on_c, 10, 69, 80
20, 813104, Note_on_c, 10, 69, 0
20, 813120, Note_on_c, 10, 76, 80
20, 813359, Note_on_c, 10, 76, 0
20, 813360, Note_on_c, 10, 76, 80
20, 813599, Note_on_c, 10, 76, 0
20, 813600, Note_on_c, 10, 75, 80
20, 813839, Note_on_c, 10, 75, 0
20, 813840, Note_on_c, 10, 71, 80
20, 814049, Note_on_c, 10, 71, 0
20, 814080, Note_on_c, 10, 64, 80
20, 814319, Note_on_c, 10, 64, 0
20, 814320, Note_on_c, 10, 66, 80
20, 814559, Note_on_c, 10, 66, 0
20, 814560, Note_on_c, 10, 67, 80
20, 814799, Note_on_c, 10, 67, 0
20, 814800, Note_on_c, 10, 68, 80
20, 815039, Note_on_c, 10, 68, 0
20, 815040, Note_on_c, 10, 69, 80
20, 815279, Note_on_c, 10, 69, 0
20, 815280, Note_on_c, 10, 68, 80
20, 815519, Note_on_c, 10, 68, 0
20, 815520, Note_on_c, 10, 69, 80
20, 815759, Note_on_c, 10, 69, 0
20, 816720, Note_on_c, 10, 68, 80
20, 816959, Note_on_c, 10, 68, 0
20, 816960, Note_on_c, 10, 69, 80
20, 817199, Note_on_c, 10, 69, 0
20, 817200, Note_on_c, 10, 68, 80
20, 817439, Note_on_c, 10, 68, 0
20, 817440, Note_on_c, 10, 69, 80
20, 820769, Note_on_c, 10, 69, 0
20, 820800, Note_on_c, 10, 69, 80
20, 821039, Note_on_c, 10, 69, 0
20, 821040, Note_on_c, 10, 69, 80
20, 821279, Note_on_c, 10, 69, 0
20, 821760, Note_on_c, 10, 69, 80
20, 822239, Note_on_c, 10, 69, 0
20, 822240, Note_on_c, 10, 69, 80
20, 822719, Note_on_c, 10, 69, 0
20, 822720, Note_on_c, 10, 69, 80
20, 823199, Note_on_c, 10, 69, 0
20, 823200, Note_on_c, 10, 69, 80
20, 823679, Note_on_c, 10, 69, 0
20, 823680, Note_on_c, 10, 69, 80
20, 824159, Note_on_c, 10, 69, 0
20, 824160, Note_on_c, 10, 69, 80
20, 824399, Note_on_c, 10, 69, 0
20, 824400, Note_on_c, 10, 69, 80
20, 824639, Note_on_c, 10, 69, 0
20, 824640, Note_on_c, 10, 69, 80
20, 825119, Note_on_c, 10, 69, 0
20, 825120, Note_on_c, 10, 69, 80
20, 825599, Note_on_c, 10, 69, 0
20, 825600, Note_on_c, 10, 69, 80
20, 826079, Note_on_c, 10, 69, 0
20, 826080, Note_on_c, 10, 69, 80
20, 826289, Note_on_c, 10, 69, 0
20, 826320, Note_on_c, 10, 69, 80
20, 826559, Note_on_c, 10, 69, 0
20, 826560, Note_on_c, 10, 69, 80
20, 826799, Note_on_c, 10, 69, 0
20, 826800, Note_on_c, 10, 67, 80
20, 827039, Note_on_c, 10, 67, 0
20, 827040, Note_on_c, 10, 71, 80
20, 827279, Note_on_c, 10, 71, 0
20, 827280, Note_on_c, 10, 67, 80
20, 827519, Note_on_c, 10, 67, 0
20, 827520, Note_on_c, 10, 67, 80
20, 827759, Note_on_c, 10, 67, 0
20, 827760, Note_on_c, 10, 66, 80
20, 827999, Note_on_c, 10, 66, 0
20, 828000, Note_on_c, 10, 64, 80
20, 828479, Note_on_c, 10, 64, 0
20, 828480, Note_on_c, 10, 62, 80
20, 829199, Note_on_c, 10, 62, 0
20, 829200, Note_on_c, 10, 69, 80
20, 829439, Note_on_c, 10, 69, 0
20, 829440, Note_on_c, 10, 71, 80
20, 829679, Note_on_c, 10, 71, 0
20, 829680, Note_on_c, 10, 73, 80
20, 829919, Note_on_c, 10, 73, 0
20, 829920, Note_on_c, 10, 76, 80
20, 830129, Note_on_c, 10, 76, 0
20, 830160, Note_on_c, 10, 74, 80
20, 830399, Note_on_c, 10, 74, 0
20, 830400, Note_on_c, 10, 69, 80
20, 830639, Note_on_c, 10, 69, 0
20, 830640, Note_on_c, 10, 67, 80
20, 830879, Note_on_c, 10, 67, 0
20, 830880, Note_on_c, 10, 71, 80
20, 831119, Note_on_c, 10, 71, 0
20, 831120, Note_on_c, 10, 67, 80
20, 831359, Note_on_c, 10, 67, 0
20, 831360, Note_on_c, 10, 67, 80
20, 831599, Note_on_c, 10, 67, 0
20, 831600, Note_on_c, 10, 66, 80
20, 831839, Note_on_c, 10, 66, 0
20, 831840, Note_on_c, 10, 66, 80
20, 832079, Note_on_c, 10, 66, 0
20, 832080, Note_on_c, 10, 64, 80
20, 832319, Note_on_c, 10, 64, 0
20, 832320, Note_on_c, 10, 67, 80
20, 832559, Note_on_c, 10, 67, 0
20, 832560, Note_on_c, 10, 66, 80
20, 832799, Note_on_c, 10, 66, 0
20, 833280, Note_on_c, 10, 66, 80
20, 833519, Note_on_c, 10, 66, 0
20, 833520, Note_on_c, 10, 66, 80
20, 833759, Note_on_c, 10, 66, 0
20, 833760, Note_on_c, 10, 64, 80
20, 833999, Note_on_c, 10, 64, 0
20, 834000, Note_on_c, 10, 61, 80
20, 834239, Note_on_c, 10, 61, 0
20, 835200, Note_on_c, 10, 67, 80
20, 835439, Note_on_c, 10, 67, 0
20, 835440, Note_on_c, 10, 67, 80
20, 835679, Note_on_c, 10, 67, 0
20, 835680, Note_on_c, 10, 71, 80
20, 835919, Note_on_c, 10, 71, 0
20, 835920, Note_on_c, 10, 66, 80
20, 836129, Note_on_c, 10, 66, 0
20, 836160, Note_on_c, 10, 69, 92
20, 836639, Note_on_c, 10, 69, 0
20, 836640, Note_on_c, 10, 69, 92
20, 837119, Note_on_c, 10, 69, 0
20, 837120, Note_on_c, 10, 69, 92
20, 837599, Note_on_c, 10, 69, 0
20, 837600, Note_on_c, 10, 69, 92
20, 838079, Note_on_c, 10, 69, 0
20, 838080, Note_on_c, 10, 69, 92
20, 838559, Note_on_c, 10, 69, 0
20, 838560, Note_on_c, 10, 69, 92
20, 839039, Note_on_c, 10, 69, 0
20, 839040, Note_on_c, 10, 67, 92
20, 839489, Note_on_c, 10, 67, 0
20, 839520, Note_on_c, 10, 67, 92
20, 839999, Note_on_c, 10, 67, 0
20, 840000, Note_on_c, 10, 67, 92
20, 840479, Note_on_c, 10, 67, 0
20, 840480, Note_on_c, 10, 67, 92
20, 840959, Note_on_c, 10, 67, 0
20, 840960, Note_on_c, 10, 69, 92
20, 841409, Note_on_c, 10, 69, 0
20, 841440, Note_on_c, 10, 69, 92
20, 841919, Note_on_c, 10, 69, 0
20, 841920, Note_on_c, 10, 69, 92
20, 842399, Note_on_c, 10, 69, 0
20, 842400, Note_on_c, 10, 69, 92
20, 842879, Note_on_c, 10, 69, 0
20, 842880, Note_on_c, 10, 69, 92
20, 843329, Note_on_c, 10, 69, 0
20, 843360, Note_on_c, 10, 69, 104
20, 843440, Control_c, 10, 11, 107
20, 844319, Note_on_c, 10, 69, 0
20, 844320, Note_on_c, 10, 69, 104
20, 844799, Note_on_c, 10, 69, 0
20, 844800, Note_on_c, 10, 69, 104
20, 845279, Note_on_c, 10, 69, 0
20, 845280, Note_on_c, 10, 69, 104
20, 845759, Note_on_c, 10, 69, 0
20, 845760, Note_on_c, 10, 69, 104
20, 846239, Note_on_c, 10, 69, 0
20, 846240, Note_on_c, 10, 69, 104
20, 846719, Note_on_c, 10, 69, 0
20, 846720, Note_on_c, 10, 76, 104
20, 847169, Note_on_c, 10, 76, 0
20, 847198, Control_c, 10, 11, 127
20, 847200, Note_on_c, 10, 76, 80
20, 847679, Note_on_c, 10, 76, 0
20, 847680, Note_on_c, 10, 76, 80
20, 848159, Note_on_c, 10, 76, 0
20, 848160, Note_on_c, 10, 76, 80
20, 848639, Note_on_c, 10, 76, 0
20, 848640, Note_on_c, 10, 69, 92
20, 849089, Note_on_c, 10, 69, 0
20, 849120, Note_on_c, 10, 74, 92
20, 849599, Note_on_c, 10, 74, 0
20, 849600, Note_on_c, 10, 73, 92
20, 850079, Note_on_c, 10, 73, 0
20, 850080, Note_on_c, 10, 69, 92
20, 850529, Note_on_c, 10, 69, 0
20, 850560, Note_on_c, 10, 69, 92
20, 851039, Note_on_c, 10, 69, 0
20, 851040, Note_on_c, 10, 71, 92
20, 851279, Note_on_c, 10, 71, 0
20, 851280, Note_on_c, 10, 67, 92
20, 851519, Note_on_c, 10, 67, 0
20, 851520, Note_on_c, 10, 76, 92
20, 851759, Note_on_c, 10, 76, 0
20, 851760, Note_on_c, 10, 73, 92
20, 851999, Note_on_c, 10, 73, 0
20, 852000, Note_on_c, 10, 69, 92
20, 852239, Note_on_c, 10, 69, 0
20, 852240, Note_on_c, 10, 67, 92
20, 852479, Note_on_c, 10, 67, 0
20, 852480, Note_on_c, 10, 64, 92
20, 852719, Note_on_c, 10, 64, 0
20, 852720, Note_on_c, 10, 61, 92
20, 852959, Note_on_c, 10, 61, 0
20, 852960, Note_on_c, 10, 57, 92
20, 853199, Note_on_c, 10, 57, 0
20, 853200, Note_on_c, 10, 76, 92
20, 853439, Note_on_c, 10, 76, 0
20, 853440, Note_on_c, 10, 74, 92
20, 853919, Note_on_c, 10, 74, 0
20, 853920, Note_on_c, 10, 73, 92
20, 854159, Note_on_c, 10, 73, 0
20, 854160, Note_on_c, 10, 69, 92
20, 854399, Note_on_c, 10, 69, 0
20, 854400, Note_on_c, 10, 69, 92
20, 854609, Note_on_c, 10, 69, 0
20, 854640, Note_on_c, 10, 69, 92
20, 854879, Note_on_c, 10, 69, 0
20, 854880, Note_on_c, 10, 71, 92
20, 855119, Note_on_c, 10, 71, 0
20, 855120, Note_on_c, 10, 67, 92
20, 855359, Note_on_c, 10, 67, 0
20, 855360, Note_on_c, 10, 76, 92
20, 855599, Note_on_c, 10, 76, 0
20, 855600, Note_on_c, 10, 73, 92
20, 855839, Note_on_c, 10, 73, 0
20, 855840, Note_on_c, 10, 69, 92
20, 856079, Note_on_c, 10, 69, 0
20, 856080, Note_on_c, 10, 67, 92
20, 856319, Note_on_c, 10, 67, 0
20, 856320, Note_on_c, 10, 64, 92
20, 856559, Note_on_c, 10, 64, 0
20, 856560, Note_on_c, 10, 61, 92
20, 856799, Note_on_c, 10, 61, 0
20, 856800, Note_on_c, 10, 57, 92
20, 857039, Note_on_c, 10, 57, 0
20, 857040, Note_on_c, 10, 76, 92
20, 857279, Note_on_c, 10, 76, 0
20, 857280, Note_on_c, 10, 74, 92
20, 857759, Note_on_c, 10, 74, 0
20, 857760, Note_on_c, 10, 73, 92
20, 858239, Note_on_c, 10, 73, 0
20, 858240, Note_on_c, 10, 74, 92
20, 858719, Note_on_c, 10, 74, 0
20, 859200, Note_on_c, 10, 71, 92
20, 859439, Note_on_c, 10, 71, 0
20, 859440, Note_on_c, 10, 71, 92
20, 859679, Note_on_c, 10, 71, 0
20, 860160, Note_on_c, 10, 67, 92
20, 860399, Note_on_c, 10, 67, 0
20, 860400, Note_on_c, 10, 67, 92
20, 860624, Note_on_c, 10, 67, 0
20, 860640, Note_on_c, 10, 64, 92
20, 860879, Note_on_c, 10, 64, 0
20, 860880, Note_on_c, 10, 64, 92
20, 861119, Note_on_c, 10, 64, 0
20, 861120, Note_on_c, 10, 69, 92
20, 861839, Note_on_c, 10, 69, 0
20, 861840, Note_on_c, 10, 69, 92
20, 862079, Note_on_c, 10, 69, 0
20, 862080, Note_on_c, 10, 69, 92
20, 862319, Note_on_c, 10, 69, 0
20, 862320, Note_on_c, 10, 62, 92
20, 862559, Note_on_c, 10, 62, 0
20, 864480, Note_on_c, 10, 69, 92
20, 864719, Note_on_c, 10, 69, 0
20, 864720, Note_on_c, 10, 69, 92
20, 864959, Note_on_c, 10, 69, 0
20, 864960, Note_on_c, 10, 69, 92
20, 866639, Note_on_c, 10, 69, 0
20, 866640, Note_on_c, 10, 69, 92
20, 866879, Note_on_c, 10, 69, 0
20, 866880, Note_on_c, 10, 69, 92
20, 867119, Note_on_c, 10, 69, 0
20, 867120, Note_on_c, 10, 62, 92
20, 867359, Note_on_c, 10, 62, 0
20, 870240, Note_on_c, 10, 76, 92
20, 871079, Note_on_c, 10, 76, 0
20, 871080, Note_on_c, 10, 76, 92
20, 871199, Note_on_c, 10, 76, 0
20, 871200, Note_on_c, 10, 76, 92
20, 871379, Note_on_c, 10, 76, 0
20, 871380, Note_on_c, 10, 67, 44
20, 871439, Note_on_c, 10, 67, 0
20, 871440, Note_on_c, 10, 67, 44
20, 871619, Note_on_c, 10, 67, 0
20, 871620, Note_on_c, 10, 67, 44
20, 871679, Note_on_c, 10, 67, 0
20, 871680, Note_on_c, 10, 67, 44
20, 871919, Note_on_c, 10, 67, 0
20, 872160, Note_on_c, 10, 66, 80
20, 872339, Note_on_c, 10, 66, 0
20, 872340, Note_on_c, 10, 74, 80
20, 872379, Note_on_c, 10, 74, 0
20, 872400, Note_on_c, 10, 71, 92
20, 872460, Control_c, 10, 11, 107
20, 872759, Note_on_c, 10, 71, 0
20, 872760, Note_on_c, 10, 73, 80
20, 872875, Note_on_c, 10, 73, 0
20, 872878, Control_c, 10, 11, 127
20, 872880, Note_on_c, 10, 69, 92
20, 873059, Note_on_c, 10, 69, 0
20, 873060, Note_on_c, 10, 69, 92
20, 873119, Note_on_c, 10, 69, 0
20, 873120, Note_on_c, 10, 69, 92
20, 873239, Note_on_c, 10, 69, 0
20, 873240, Note_on_c, 10, 62, 92
20, 873344, Note_on_c, 10, 62, 0
20, 873360, Note_on_c, 10, 69, 92
20, 873539, Note_on_c, 10, 69, 0
20, 873540, Note_on_c, 10, 69, 92
20, 873599, Note_on_c, 10, 69, 0
20, 873600, Note_on_c, 10, 69, 92
20, 874079, Note_on_c, 10, 69, 0
20, 874080, Note_on_c, 10, 62, 92
20, 874319, Note_on_c, 10, 62, 0
20, 874319, End_track
21, 0, Start_track
21, 0, Title_t, "Tenor"
21, 0, MIDI_port, 0
21, 0, Program_c, 11, 70
21, 0, Control_c, 11, 121, 0
21, 0, Control_c, 11, 11, 127
21, 216000, Control_c, 11, 7, 120
21, 216000, Control_c, 11, 10, 64
21, 216960, Note_on_c, 11, 64, 80
21, 217199, Note_on_c, 11, 64, 0
21, 217200, Note_on_c, 11, 52, 80
21, 217439, Note_on_c, 11, 52, 0
21, 217440, Note_on_c, 11, 54, 80
21, 217679, Note_on_c, 11, 54, 0
21, 217680, Note_on_c, 11, 50, 80
21, 217919, Note_on_c, 11, 50, 0
21, 217920, Note_on_c, 11, 52, 80
21, 218159, Note_on_c, 11, 52, 0
21, 218160, Note_on_c, 11, 54, 80
21, 218279, Note_on_c, 11, 54, 0
21, 218280, Note_on_c, 11, 55, 80
21, 218399, Note_on_c, 11, 55, 0
21, 218400, Note_on_c, 11, 54, 80
21, 218639, Note_on_c, 11, 54, 0
21, 218640, Note_on_c, 11, 50, 80
21, 218864, Note_on_c, 11, 50, 0
21, 218880, Note_on_c, 11, 52, 80
21, 219119, Note_on_c, 11, 52, 0
21, 219120, Note_on_c, 11, 54, 80
21, 219239, Note_on_c, 11, 54, 0
21, 219240, Note_on_c, 11, 55, 80
21, 219359, Note_on_c, 11, 55, 0
21, 219360, Note_on_c, 11, 54, 80
21, 219599, Note_on_c, 11, 54, 0
21, 219600, Note_on_c, 11, 52, 80
21, 219839, Note_on_c, 11, 52, 0
21, 219840, Note_on_c, 11, 50, 80
21, 220079, Note_on_c, 11, 50, 0
21, 220080, Note_on_c, 11, 64, 80
21, 220319, Note_on_c, 11, 64, 0
21, 220320, Note_on_c, 11, 57, 80
21, 220529, Note_on_c, 11, 57, 0
21, 220560, Note_on_c, 11, 66, 80
21, 221039, Note_on_c, 11, 66, 0
21, 221040, Note_on_c, 11, 54, 80
21, 221279, Note_on_c, 11, 54, 0
21, 221280, Note_on_c, 11, 55, 80
21, 221519, Note_on_c, 11, 55, 0
21, 221520, Note_on_c, 11, 57, 80
21, 221759, Note_on_c, 11, 57, 0
21, 221760, Note_on_c, 11, 57, 80
21, 221999, Note_on_c, 11, 57, 0
21, 222000, Note_on_c, 11, 55, 80
21, 222239, Note_on_c, 11, 55, 0
21, 222240, Note_on_c, 11, 54, 80
21, 222479, Note_on_c, 11, 54, 0
21, 222480, Note_on_c, 11, 55, 80
21, 222599, Note_on_c, 11, 55, 0
21, 222600, Note_on_c, 11, 52, 80
21, 222704, Note_on_c, 11, 52, 0
21, 222720, Note_on_c, 11, 50, 80
21, 222959, Note_on_c, 11, 50, 0
21, 222960, Note_on_c, 11, 62, 80
21, 223199, Note_on_c, 11, 62, 0
21, 223200, Note_on_c, 11, 64, 80
21, 223439, Note_on_c, 11, 64, 0
21, 223440, Note_on_c, 11, 66, 80
21, 223679, Note_on_c, 11, 66, 0
21, 223680, Note_on_c, 11, 64, 80
21, 224039, Note_on_c, 11, 64, 0
21, 224040, Note_on_c, 11, 62, 80
21, 224159, Note_on_c, 11, 62, 0
21, 224160, Note_on_c, 11, 62, 80
21, 224639, Note_on_c, 11, 62, 0
21, 224640, Marker_t, "Transition to Tenore Solo"
21, 243838, Control_c, 11, 7, 120
21, 243838, Control_c, 11, 10, 64
21, 243840, Note_on_c, 11, 61, 80
21, 244049, Note_on_c, 11, 61, 0
21, 244080, Note_on_c, 11, 61, 80
21, 244319, Note_on_c, 11, 61, 0
21, 244320, Note_on_c, 11, 62, 80
21, 244559, Note_on_c, 11, 62, 0
21, 244560, Note_on_c, 11, 66, 80
21, 244799, Note_on_c, 11, 66, 0
21, 244800, Note_on_c, 11, 61, 80
21, 245039, Note_on_c, 11, 61, 0
21, 245040, Note_on_c, 11, 62, 80
21, 245159, Note_on_c, 11, 62, 0
21, 245160, Note_on_c, 11, 64, 80
21, 245279, Note_on_c, 11, 64, 0
21, 245280, Note_on_c, 11, 62, 80
21, 245519, Note_on_c, 11, 62, 0
21, 245520, Note_on_c, 11, 64, 80
21, 245639, Note_on_c, 11, 64, 0
21, 245640, Note_on_c, 11, 62, 80
21, 245759, Note_on_c, 11, 62, 0
21, 245760, Note_on_c, 11, 61, 80
21, 245999, Note_on_c, 11, 61, 0
21, 246000, Note_on_c, 11, 61, 80
21, 246239, Note_on_c, 11, 61, 0
21, 246240, Note_on_c, 11, 61, 80
21, 246479, Note_on_c, 11, 61, 0
21, 246480, Note_on_c, 11, 58, 80
21, 246719, Note_on_c, 11, 58, 0
21, 246720, Note_on_c, 11, 59, 80
21, 246959, Note_on_c, 11, 59, 0
21, 246960, Note_on_c, 11, 59, 80
21, 247199, Note_on_c, 11, 59, 0
21, 247200, Note_on_c, 11, 61, 80
21, 247409, Note_on_c, 11, 61, 0
21, 247440, Note_on_c, 11, 62, 80
21, 247919, Note_on_c, 11, 62, 0
21, 247920, Note_on_c, 11, 62, 80
21, 248159, Note_on_c, 11, 62, 0
21, 248160, Note_on_c, 11, 64, 92
21, 248399, Note_on_c, 11, 64, 0
21, 248400, Note_on_c, 11, 66, 80
21, 248639, Note_on_c, 11, 66, 0
21, 248640, Note_on_c, 11, 66, 80
21, 248849, Note_on_c, 11, 66, 0
21, 248880, Note_on_c, 11, 64, 80
21, 249119, Note_on_c, 11, 64, 0
21, 249120, Note_on_c, 11, 62, 68
21, 249359, Note_on_c, 11, 62, 0
21, 249360, Note_on_c, 11, 61, 56
21, 249599, Note_on_c, 11, 61, 0
21, 249600, Note_on_c, 11, 62, 44
21, 249839, Note_on_c, 11, 62, 0
21, 249840, Note_on_c, 11, 57, 44
21, 250079, Note_on_c, 11, 57, 0
21, 250080, Note_on_c, 11, 57, 44
21, 250319, Note_on_c, 11, 57, 0
21, 250320, Note_on_c, 11, 57, 44
21, 250559, Note_on_c, 11, 57, 0
21, 250560, Note_on_c, 11, 61, 44
21, 250919, Note_on_c, 11, 61, 0
21, 250920, Note_on_c, 11, 62, 44
21, 251039, Note_on_c, 11, 62, 0
21, 251040, Note_on_c, 11, 62, 44
21, 251519, Note_on_c, 11, 62, 0
21, 251520, Marker_t, "Transition to Tenore Solo"
21, 270718, Control_c, 11, 10, 64
21, 270718, Control_c, 11, 11, 127
21, 270718, Control_c, 11, 7, 120
21, 270720, Note_on_c, 11, 62, 80
21, 270839, Note_on_c, 11, 62, 0
21, 270840, Note_on_c, 11, 61, 80
21, 270959, Note_on_c, 11, 61, 0
21, 270960, Note_on_c, 11, 59, 80
21, 271079, Note_on_c, 11, 59, 0
21, 271080, Note_on_c, 11, 61, 80
21, 271199, Note_on_c, 11, 61, 0
21, 271200, Note_on_c, 11, 64, 80
21, 271319, Note_on_c, 11, 64, 0
21, 271320, Note_on_c, 11, 62, 80
21, 271439, Note_on_c, 11, 62, 0
21, 271440, Note_on_c, 11, 67, 80
21, 271559, Note_on_c, 11, 67, 0
21, 271560, Note_on_c, 11, 66, 80
21, 271679, Note_on_c, 11, 66, 0
21, 271680, Note_on_c, 11, 62, 80
21, 271799, Note_on_c, 11, 62, 0
21, 271800, Note_on_c, 11, 61, 80
21, 271919, Note_on_c, 11, 61, 0
21, 271920, Note_on_c, 11, 59, 80
21, 272039, Note_on_c, 11, 59, 0
21, 272040, Note_on_c, 11, 61, 80
21, 272159, Note_on_c, 11, 61, 0
21, 272160, Note_on_c, 11, 64, 80
21, 272279, Note_on_c, 11, 64, 0
21, 272280, Note_on_c, 11, 62, 80
21, 272399, Note_on_c, 11, 62, 0
21, 272400, Note_on_c, 11, 67, 80
21, 272519, Note_on_c, 11, 67, 0
21, 272520, Note_on_c, 11, 66, 80
21, 272624, Note_on_c, 11, 66, 0
21, 272640, Note_on_c, 11, 62, 80
21, 272759, Note_on_c, 11, 62, 0
21, 272760, Note_on_c, 11, 64, 80
21, 272879, Note_on_c, 11, 64, 0
21, 272880, Note_on_c, 11, 66, 80
21, 272999, Note_on_c, 11, 66, 0
21, 273000, Note_on_c, 11, 64, 80
21, 273119, Note_on_c, 11, 64, 0
21, 273120, Note_on_c, 11, 61, 80
21, 273239, Note_on_c, 11, 61, 0
21, 273240, Note_on_c, 11, 62, 80
21, 273359, Note_on_c, 11, 62, 0
21, 273360, Note_on_c, 11, 62, 80
21, 273479, Note_on_c, 11, 62, 0
21, 273480, Note_on_c, 11, 64, 80
21, 273599, Note_on_c, 11, 64, 0
21, 273600, Note_on_c, 11, 52, 80
21, 273719, Note_on_c, 11, 52, 0
21, 273720, Note_on_c, 11, 54, 80
21, 273839, Note_on_c, 11, 54, 0
21, 273840, Note_on_c, 11, 54, 80
21, 273959, Note_on_c, 11, 54, 0
21, 273960, Note_on_c, 11, 56, 80
21, 274079, Note_on_c, 11, 56, 0
21, 274080, Note_on_c, 11, 57, 80
21, 274199, Note_on_c, 11, 57, 0
21, 274200, Note_on_c, 11, 64, 80
21, 274289, Note_on_c, 11, 64, 0
21, 274320, Note_on_c, 11, 62, 80
21, 274439, Note_on_c, 11, 62, 0
21, 274440, Note_on_c, 11, 61, 80
21, 274559, Note_on_c, 11, 61, 0
21, 274560, Note_on_c, 11, 62, 80
21, 274679, Note_on_c, 11, 62, 0
21, 274680, Note_on_c, 11, 64, 80
21, 274799, Note_on_c, 11, 64, 0
21, 274800, Note_on_c, 11, 61, 80
21, 274919, Note_on_c, 11, 61, 0
21, 274920, Note_on_c, 11, 62, 80
21, 275039, Note_on_c, 11, 62, 0
21, 275040, Note_on_c, 11, 64, 80
21, 275159, Note_on_c, 11, 64, 0
21, 275160, Note_on_c, 11, 66, 80
21, 275279, Note_on_c, 11, 66, 0
21, 275280, Note_on_c, 11, 67, 80
21, 275399, Note_on_c, 11, 67, 0
21, 275400, Note_on_c, 11, 66, 80
21, 275519, Note_on_c, 11, 66, 0
21, 275520, Note_on_c, 11, 60, 80
21, 275639, Note_on_c, 11, 60, 0
21, 275640, Note_on_c, 11, 59, 80
21, 275759, Note_on_c, 11, 59, 0
21, 275760, Note_on_c, 11, 62, 80
21, 275879, Note_on_c, 11, 62, 0
21, 275880, Note_on_c, 11, 59, 80
21, 275999, Note_on_c, 11, 59, 0
21, 276000, Note_on_c, 11, 62, 80
21, 276119, Note_on_c, 11, 62, 0
21, 276120, Note_on_c, 11, 61, 80
21, 276239, Note_on_c, 11, 61, 0
21, 276240, Note_on_c, 11, 64, 80
21, 276359, Note_on_c, 11, 64, 0
21, 276360, Note_on_c, 11, 61, 80
21, 276464, Note_on_c, 11, 61, 0
21, 276480, Note_on_c, 11, 62, 80
21, 276719, Note_on_c, 11, 62, 0
21, 276720, Note_on_c, 11, 62, 80
21, 276959, Note_on_c, 11, 62, 0
21, 276960, Note_on_c, 11, 62, 92
21, 277020, Control_c, 11, 11, 107
21, 277319, Note_on_c, 11, 62, 0
21, 277320, Note_on_c, 11, 62, 92
21, 277439, Note_on_c, 11, 62, 0
21, 277440, Note_on_c, 11, 66, 92
21, 277559, Note_on_c, 11, 66, 0
21, 277560, Note_on_c, 11, 67, 92
21, 277799, Note_on_c, 11, 67, 0
21, 277800, Note_on_c, 11, 66, 92
21, 277919, Note_on_c, 11, 66, 0
21, 277920, Note_on_c, 11, 66, 92
21, 278369, Note_on_c, 11, 66, 0
21, 278398, Control_c, 11, 11, 127
21, 278400, Note_on_c, 11, 62, 80
21, 278759, Note_on_c, 11, 62, 0
21, 278880, Note_on_c, 11, 62, 80
21, 279239, Note_on_c, 11, 62, 0
21, 279360, Note_on_c, 11, 59, 80
21, 279719, Note_on_c, 11, 59, 0
21, 279840, Note_on_c, 11, 55, 80
21, 280199, Note_on_c, 11, 55, 0
21, 280320, Note_on_c, 11, 57, 80
21, 280679, Note_on_c, 11, 57, 0
21, 280800, Note_on_c, 11, 64, 80
21, 281159, Note_on_c, 11, 64, 0
21, 281280, Note_on_c, 11, 66, 80
21, 282209, Note_on_c, 11, 66, 0
21, 282240, Note_on_c, 11, 59, 80
21, 282599, Note_on_c, 11, 59, 0
21, 282720, Note_on_c, 11, 64, 80
21, 283079, Note_on_c, 11, 64, 0
21, 283200, Note_on_c, 11, 64, 92
21, 284159, Note_on_c, 11, 64, 0
21, 284640, Note_on_c, 11, 64, 92
21, 284999, Note_on_c, 11, 64, 0
21, 285120, Note_on_c, 11, 64, 92
21, 286079, Note_on_c, 11, 64, 0
21, 286560, Note_on_c, 11, 57, 92
21, 286919, Note_on_c, 11, 57, 0
21, 287040, Note_on_c, 11, 65, 92
21, 288959, Note_on_c, 11, 65, 0
21, 288960, Marker_t, "Transition to Tenore Solo"
21, 346560, Note_on_c, 11, 65, 68
21, 346560, Note_on_c, 11, 60, 68
21, 346799, Note_on_c, 11, 65, 0
21, 346799, Note_on_c, 11, 60, 0
21, 346920, Note_on_c, 11, 53, 68
21, 347159, Note_on_c, 11, 53, 0
21, 347280, Note_on_c, 11, 60, 68
21, 347280, Note_on_c, 11, 65, 68
21, 347639, Note_on_c, 11, 60, 0
21, 347639, Note_on_c, 11, 65, 0
21, 347640, Note_on_c, 11, 62, 68
21, 347640, Note_on_c, 11, 58, 68
21, 347879, Note_on_c, 11, 62, 0
21, 347879, Note_on_c, 11, 58, 0
21, 347880, Note_on_c, 11, 60, 68
21, 347880, Note_on_c, 11, 57, 68
21, 347984, Note_on_c, 11, 60, 0
21, 347984, Note_on_c, 11, 57, 0
21, 348000, Note_on_c, 11, 58, 68
21, 348000, Note_on_c, 11, 55, 68
21, 348239, Note_on_c, 11, 58, 0
21, 348239, Note_on_c, 11, 55, 0
21, 348240, Note_on_c, 11, 53, 68
21, 348240, Note_on_c, 11, 57, 68
21, 348359, Note_on_c, 11, 53, 0
21, 348359, Note_on_c, 11, 57, 0
21, 348360, Note_on_c, 11, 58, 68
21, 348599, Note_on_c, 11, 58, 0
21, 348600, Note_on_c, 11, 60, 68
21, 348719, Note_on_c, 11, 60, 0
21, 348720, Note_on_c, 11, 63, 68
21, 349079, Note_on_c, 11, 63, 0
21, 349080, Note_on_c, 11, 62, 68
21, 349319, Note_on_c, 11, 62, 0
21, 349320, Note_on_c, 11, 60, 68
21, 349409, Note_on_c, 11, 60, 0
21, 349440, Note_on_c, 11, 62, 68
21, 349440, Note_on_c, 11, 58, 68
21, 349799, Note_on_c, 11, 62, 0
21, 349799, Note_on_c, 11, 58, 0
21, 349800, Note_on_c, 11, 58, 68
21, 350039, Note_on_c, 11, 58, 0
21, 350160, Note_on_c, 11, 62, 68
21, 350160, Note_on_c, 11, 58, 68
21, 350519, Note_on_c, 11, 62, 0
21, 350519, Note_on_c, 11, 58, 0
21, 350520, Note_on_c, 11, 58, 68
21, 350759, Note_on_c, 11, 58, 0
21, 350880, Note_on_c, 11, 58, 68
21, 350880, Note_on_c, 11, 63, 68
21, 351119, Note_on_c, 11, 58, 0
21, 351119, Note_on_c, 11, 63, 0
21, 351240, Note_on_c, 11, 63, 68
21, 351240, Note_on_c, 11, 58, 68
21, 351479, Note_on_c, 11, 63, 0
21, 351480, Note_on_c, 11, 65, 68
21, 351599, Note_on_c, 11, 58, 0
21, 351599, Note_on_c, 11, 65, 0
21, 351600, Note_on_c, 11, 67, 68
21, 351600, Note_on_c, 11, 58, 68
21, 351959, Note_on_c, 11, 67, 0
21, 351959, Note_on_c, 11, 58, 0
21, 351960, Note_on_c, 11, 67, 68
21, 351960, Note_on_c, 11, 55, 68
21, 352199, Note_on_c, 11, 67, 0
21, 352199, Note_on_c, 11, 55, 0
21, 352320, Note_on_c, 11, 62, 68
21, 352320, Note_on_c, 11, 65, 68
21, 352559, Note_on_c, 11, 62, 0
21, 352559, Note_on_c, 11, 65, 0
21, 352680, Note_on_c, 11, 53, 68
21, 352919, Note_on_c, 11, 53, 0
21, 353040, Note_on_c, 11, 65, 68
21, 354119, Note_on_c, 11, 65, 0
21, 354120, Note_on_c, 11, 57, 68
21, 354120, Note_on_c, 11, 60, 68
21, 354359, Note_on_c, 11, 57, 0
21, 354359, Note_on_c, 11, 60, 0
21, 354360, Note_on_c, 11, 58, 68
21, 354360, Note_on_c, 11, 62, 68
21, 354479, Note_on_c, 11, 58, 0
21, 354479, Note_on_c, 11, 62, 0
21, 354480, Note_on_c, 11, 62, 68
21, 354480, Note_on_c, 11, 58, 68
21, 354719, Note_on_c, 11, 62, 0
21, 354719, Note_on_c, 11, 58, 0
21, 354720, Note_on_c, 11, 60, 68
21, 354720, Note_on_c, 11, 53, 68
21, 354839, Note_on_c, 11, 60, 0
21, 354839, Note_on_c, 11, 53, 0
21, 354840, Note_on_c, 11, 53, 68
21, 354840, Note_on_c, 11, 60, 68
21, 355079, Note_on_c, 11, 53, 0
21, 355079, Note_on_c, 11, 60, 0
21, 356640, Note_on_c, 11, 67, 92
21, 356640, Note_on_c, 11, 63, 92
21, 356760, Control_c, 11, 11, 107
21, 356999, Note_on_c, 11, 67, 0
21, 356999, Note_on_c, 11, 63, 0
21, 357000, Note_on_c, 11, 63, 92
21, 357000, Note_on_c, 11, 67, 92
21, 357239, Note_on_c, 11, 63, 0
21, 357239, Note_on_c, 11, 67, 0
21, 357358, Control_c, 11, 11, 127
21, 357360, Note_on_c, 11, 67, 92
21, 357360, Note_on_c, 11, 63, 92
21, 357480, Control_c, 11, 11, 107
21, 357719, Note_on_c, 11, 67, 0
21, 357719, Note_on_c, 11, 63, 0
21, 357720, Note_on_c, 11, 67, 92
21, 357720, Note_on_c, 11, 63, 92
21, 357959, Note_on_c, 11, 67, 0
21, 357959, Note_on_c, 11, 63, 0
21, 358078, Control_c, 11, 11, 127
21, 358080, Note_on_c, 11, 65, 80
21, 358439, Note_on_c, 11, 65, 0
21, 358440, Note_on_c, 11, 53, 80
21, 358799, Note_on_c, 11, 53, 0
21, 358800, Note_on_c, 11, 65, 92
21, 358920, Control_c, 11, 11, 107
21, 359875, Note_on_c, 11, 65, 0
21, 359878, Control_c, 11, 11, 127
21, 359880, Note_on_c, 11, 65, 80
21, 360239, Note_on_c, 11, 65, 0
21, 360240, Note_on_c, 11, 65, 92
21, 360360, Control_c, 11, 11, 107
21, 361319, Note_on_c, 11, 65, 0
21, 361320, Note_on_c, 11, 58, 92
21, 361559, Note_on_c, 11, 58, 0
21, 440880, Control_c, 11, 11, 127
21, 441600, Note_on_c, 11, 62, 80
21, 441959, Note_on_c, 11, 62, 0
21, 441960, Note_on_c, 11, 62, 80
21, 442304, Note_on_c, 11, 62, 0
21, 442320, Note_on_c, 11, 64, 80
21, 442679, Note_on_c, 11, 64, 0
21, 442680, Note_on_c, 11, 66, 80
21, 443039, Note_on_c, 11, 66, 0
21, 443040, Note_on_c, 11, 66, 80
21, 443399, Note_on_c, 11, 66, 0
21, 443400, Note_on_c, 11, 64, 80
21, 443759, Note_on_c, 11, 64, 0
21, 443760, Note_on_c, 11, 62, 80
21, 444119, Note_on_c, 11, 62, 0
21, 444120, Note_on_c, 11, 62, 80
21, 444359, Note_on_c, 11, 62, 0
21, 444360, Note_on_c, 11, 64, 80
21, 444464, Note_on_c, 11, 64, 0
21, 444480, Note_on_c, 11, 66, 80
21, 444839, Note_on_c, 11, 66, 0
21, 444840, Note_on_c, 11, 66, 80
21, 445199, Note_on_c, 11, 66, 0
21, 445200, Note_on_c, 11, 57, 80
21, 445559, Note_on_c, 11, 57, 0
21, 445560, Note_on_c, 11, 62, 80
21, 445919, Note_on_c, 11, 62, 0
21, 445920, Note_on_c, 11, 62, 92
21, 445980, Control_c, 11, 11, 107
21, 446519, Note_on_c, 11, 62, 0
21, 446520, Note_on_c, 11, 61, 92
21, 446639, Note_on_c, 11, 61, 0
21, 446640, Note_on_c, 11, 61, 92
21, 446879, Note_on_c, 11, 61, 0
21, 447240, Control_c, 11, 11, 127
21, 447360, Note_on_c, 11, 62, 80
21, 447719, Note_on_c, 11, 62, 0
21, 447720, Note_on_c, 11, 62, 80
21, 448079, Note_on_c, 11, 62, 0
21, 448080, Note_on_c, 11, 62, 80
21, 448439, Note_on_c, 11, 62, 0
21, 448440, Note_on_c, 11, 62, 80
21, 448799, Note_on_c, 11, 62, 0
21, 448800, Note_on_c, 11, 62, 92
21, 448860, Control_c, 11, 11, 107
21, 449159, Note_on_c, 11, 62, 0
21, 449160, Note_on_c, 11, 62, 92
21, 449519, Note_on_c, 11, 62, 0
21, 449520, Note_on_c, 11, 62, 92
21, 449879, Note_on_c, 11, 62, 0
21, 449880, Note_on_c, 11, 62, 92
21, 450224, Note_on_c, 11, 62, 0
21, 450238, Control_c, 11, 11, 127
21, 450240, Note_on_c, 11, 62, 80
21, 450599, Note_on_c, 11, 62, 0
21, 450600, Note_on_c, 11, 62, 80
21, 450959, Note_on_c, 11, 62, 0
21, 450960, Note_on_c, 11, 61, 80
21, 451304, Note_on_c, 11, 61, 0
21, 451320, Note_on_c, 11, 62, 80
21, 451679, Note_on_c, 11, 62, 0
21, 451680, Note_on_c, 11, 61, 92
21, 451740, Control_c, 11, 11, 107
21, 452279, Note_on_c, 11, 61, 0
21, 452280, Note_on_c, 11, 62, 92
21, 452399, Note_on_c, 11, 62, 0
21, 452400, Note_on_c, 11, 62, 92
21, 452639, Note_on_c, 11, 62, 0
21, 453000, Control_c, 11, 11, 127
21, 453120, Note_on_c, 11, 61, 80
21, 453479, Note_on_c, 11, 61, 0
21, 453480, Note_on_c, 11, 61, 80
21, 453839, Note_on_c, 11, 61, 0
21, 453840, Note_on_c, 11, 62, 80
21, 454199, Note_on_c, 11, 62, 0
21, 454200, Note_on_c, 11, 66, 80
21, 454559, Note_on_c, 11, 66, 0
21, 454560, Note_on_c, 11, 61, 80
21, 454919, Note_on_c, 11, 61, 0
21, 454920, Note_on_c, 11, 62, 80
21, 455159, Note_on_c, 11, 62, 0
21, 455160, Note_on_c, 11, 64, 80
21, 455279, Note_on_c, 11, 64, 0
21, 455280, Note_on_c, 11, 62, 80
21, 455639, Note_on_c, 11, 62, 0
21, 455640, Note_on_c, 11, 66, 80
21, 455984, Note_on_c, 11, 66, 0
21, 456000, Note_on_c, 11, 61, 80
21, 456359, Note_on_c, 11, 61, 0
21, 456360, Note_on_c, 11, 62, 80
21, 456599, Note_on_c, 11, 62, 0
21, 456600, Note_on_c, 11, 64, 80
21, 456719, Note_on_c, 11, 64, 0
21, 456720, Note_on_c, 11, 61, 80
21, 457079, Note_on_c, 11, 61, 0
21, 457080, Note_on_c, 11, 58, 80
21, 457439, Note_on_c, 11, 58, 0
21, 457440, Note_on_c, 11, 59, 80
21, 457799, Note_on_c, 11, 59, 0
21, 457800, Note_on_c, 11, 59, 80
21, 458159, Note_on_c, 11, 59, 0
21, 458160, Note_on_c, 11, 61, 80
21, 458489, Note_on_c, 11, 61, 0
21, 458520, Note_on_c, 11, 62, 92
21, 459239, Note_on_c, 11, 62, 0
21, 459240, Note_on_c, 11, 62, 92
21, 459599, Note_on_c, 11, 62, 0
21, 459600, Note_on_c, 11, 62, 92
21, 459959, Note_on_c, 11, 62, 0
21, 459960, Note_on_c, 11, 64, 92
21, 460199, Note_on_c, 11, 64, 0
21, 460200, Note_on_c, 11, 66, 92
21, 460319, Note_on_c, 11, 66, 0
21, 460320, Note_on_c, 11, 67, 92
21, 460679, Note_on_c, 11, 67, 0
21, 460680, Note_on_c, 11, 67, 92
21, 461039, Note_on_c, 11, 67, 0
21, 461040, Note_on_c, 11, 62, 104
21, 461100, Control_c, 11, 11, 107
21, 461399, Note_on_c, 11, 62, 0
21, 461400, Note_on_c, 11, 59, 104
21, 461639, Note_on_c, 11, 59, 0
21, 461640, Note_on_c, 11, 55, 104
21, 461744, Note_on_c, 11, 55, 0
21, 461758, Control_c, 11, 11, 127
21, 461760, Note_on_c, 11, 57, 92
21, 462119, Note_on_c, 11, 57, 0
21, 462120, Note_on_c, 11, 62, 92
21, 462479, Note_on_c, 11, 62, 0
21, 462480, Note_on_c, 11, 62, 92
21, 462839, Note_on_c, 11, 62, 0
21, 462840, Note_on_c, 11, 62, 92
21, 463199, Note_on_c, 11, 62, 0
21, 463200, Note_on_c, 11, 61, 92
21, 463799, Note_on_c, 11, 61, 0
21, 463800, Note_on_c, 11, 62, 92
21, 463919, Note_on_c, 11, 62, 0
21, 463920, Note_on_c, 11, 62, 92
21, 464279, Note_on_c, 11, 62, 0
21, 464640, Note_on_c, 11, 61, 92
21, 464999, Note_on_c, 11, 61, 0
21, 465000, Note_on_c, 11, 61, 92
21, 465359, Note_on_c, 11, 61, 0
21, 465360, Note_on_c, 11, 62, 92
21, 465719, Note_on_c, 11, 62, 0
21, 465720, Note_on_c, 11, 66, 92
21, 466079, Note_on_c, 11, 66, 0
21, 466080, Note_on_c, 11, 61, 92
21, 466439, Note_on_c, 11, 61, 0
21, 466440, Note_on_c, 11, 62, 92
21, 466679, Note_on_c, 11, 62, 0
21, 466680, Note_on_c, 11, 64, 92
21, 466799, Note_on_c, 11, 64, 0
21, 466800, Note_on_c, 11, 62, 92
21, 467159, Note_on_c, 11, 62, 0
21, 467160, Note_on_c, 11, 66, 92
21, 467504, Note_on_c, 11, 66, 0
21, 467520, Note_on_c, 11, 61, 92
21, 467879, Note_on_c, 11, 61, 0
21, 467880, Note_on_c, 11, 62, 92
21, 468119, Note_on_c, 11, 62, 0
21, 468120, Note_on_c, 11, 64, 92
21, 468239, Note_on_c, 11, 64, 0
21, 468240, Note_on_c, 11, 61, 92
21, 468599, Note_on_c, 11, 61, 0
21, 468600, Note_on_c, 11, 58, 92
21, 468959, Note_on_c, 11, 58, 0
21, 468960, Note_on_c, 11, 59, 92
21, 469319, Note_on_c, 11, 59, 0
21, 469320, Note_on_c, 11, 59, 92
21, 469679, Note_on_c, 11, 59, 0
21, 469680, Note_on_c, 11, 61, 92
21, 470009, Note_on_c, 11, 61, 0
21, 470040, Note_on_c, 11, 62, 92
21, 470759, Note_on_c, 11, 62, 0
21, 470760, Note_on_c, 11, 62, 92
21, 471119, Note_on_c, 11, 62, 0
21, 471120, Note_on_c, 11, 62, 92
21, 471479, Note_on_c, 11, 62, 0
21, 471480, Note_on_c, 11, 64, 92
21, 471719, Note_on_c, 11, 64, 0
21, 471720, Note_on_c, 11, 66, 92
21, 471839, Note_on_c, 11, 66, 0
21, 471840, Note_on_c, 11, 67, 92
21, 472199, Note_on_c, 11, 67, 0
21, 472200, Note_on_c, 11, 67, 92
21, 472559, Note_on_c, 11, 67, 0
21, 472560, Note_on_c, 11, 62, 104
21, 472620, Control_c, 11, 11, 107
21, 472919, Note_on_c, 11, 62, 0
21, 472920, Note_on_c, 11, 59, 104
21, 473159, Note_on_c, 11, 59, 0
21, 473160, Note_on_c, 11, 55, 104
21, 473264, Note_on_c, 11, 55, 0
21, 473280, Note_on_c, 11, 57, 104
21, 473639, Note_on_c, 11, 57, 0
21, 473640, Note_on_c, 11, 62, 104
21, 473999, Note_on_c, 11, 62, 0
21, 474000, Note_on_c, 11, 62, 104
21, 474359, Note_on_c, 11, 62, 0
21, 474360, Note_on_c, 11, 62, 104
21, 474719, Note_on_c, 11, 62, 0
21, 474720, Note_on_c, 11, 61, 104
21, 475319, Note_on_c, 11, 61, 0
21, 475320, Note_on_c, 11, 62, 104
21, 475439, Note_on_c, 11, 62, 0
21, 475440, Note_on_c, 11, 62, 104
21, 475799, Note_on_c, 11, 62, 0
21, 478320, Control_c, 11, 11, 127
21, 480480, Note_on_c, 11, 55, 92
21, 481439, Note_on_c, 11, 55, 0
21, 481440, Note_on_c, 11, 55, 92
21, 481799, Note_on_c, 11, 55, 0
21, 481920, Note_on_c, 11, 54, 92
21, 482279, Note_on_c, 11, 54, 0
21, 482400, Note_on_c, 11, 50, 92
21, 482759, Note_on_c, 11, 50, 0
21, 482880, Note_on_c, 11, 64, 92
21, 484319, Note_on_c, 11, 64, 0
21, 484320, Note_on_c, 11, 64, 92
21, 484679, Note_on_c, 11, 64, 0
21, 484800, Note_on_c, 11, 62, 92
21, 485159, Note_on_c, 11, 62, 0
21, 485280, Note_on_c, 11, 59, 92
21, 485639, Note_on_c, 11, 59, 0
21, 486240, Note_on_c, 11, 60, 92
21, 487199, Note_on_c, 11, 60, 0
21, 487200, Note_on_c, 11, 60, 92
21, 487679, Note_on_c, 11, 60, 0
21, 487680, Note_on_c, 11, 59, 92
21, 488159, Note_on_c, 11, 59, 0
21, 488160, Note_on_c, 11, 55, 92
21, 489119, Note_on_c, 11, 55, 0
21, 489120, Note_on_c, 11, 64, 92
21, 490079, Note_on_c, 11, 64, 0
21, 490080, Note_on_c, 11, 64, 92
21, 490559, Note_on_c, 11, 64, 0
21, 490560, Note_on_c, 11, 62, 92
21, 491999, Note_on_c, 11, 62, 0
21, 492480, Note_on_c, 11, 62, 80
21, 492839, Note_on_c, 11, 62, 0
21, 492960, Note_on_c, 11, 62, 80
21, 493319, Note_on_c, 11, 62, 0
21, 493440, Note_on_c, 11, 62, 80
21, 493799, Note_on_c, 11, 62, 0
21, 493920, Note_on_c, 11, 62, 80
21, 494279, Note_on_c, 11, 62, 0
21, 494880, Note_on_c, 11, 64, 80
21, 495839, Note_on_c, 11, 64, 0
21, 495840, Note_on_c, 11, 60, 80
21, 496319, Note_on_c, 11, 60, 0
21, 496320, Note_on_c, 11, 59, 80
21, 496799, Note_on_c, 11, 59, 0
21, 496800, Note_on_c, 11, 59, 80
21, 497279, Note_on_c, 11, 59, 0
21, 498240, Note_on_c, 11, 60, 92
21, 498319, Note_on_c, 11, 60, 0
21, 498320, Note_on_c, 11, 60, 80
21, 498719, Note_on_c, 11, 60, 0
21, 498720, Note_on_c, 11, 64, 80
21, 499199, Note_on_c, 11, 64, 0
21, 499200, Note_on_c, 11, 63, 80
21, 499679, Note_on_c, 11, 63, 0
21, 499680, Note_on_c, 11, 64, 92
21, 499759, Note_on_c, 11, 64, 0
21, 499760, Note_on_c, 11, 64, 80
21, 500639, Note_on_c, 11, 64, 0
21, 500640, Note_on_c, 11, 67, 92
21, 501599, Note_on_c, 11, 67, 0
21, 501600, Note_on_c, 11, 67, 92
21, 502079, Note_on_c, 11, 67, 0
21, 502080, Note_on_c, 11, 66, 92
21, 503479, Note_on_c, 11, 66, 0
21, 503520, Note_on_c, 11, 60, 92
21, 503999, Note_on_c, 11, 60, 0
21, 504000, Note_on_c, 11, 62, 92
21, 504719, Note_on_c, 11, 62, 0
21, 504720, Note_on_c, 11, 60, 92
21, 504959, Note_on_c, 11, 60, 0
21, 505440, Note_on_c, 11, 65, 92
21, 506159, Note_on_c, 11, 65, 0
21, 506160, Note_on_c, 11, 65, 92
21, 506399, Note_on_c, 11, 65, 0
21, 506400, Note_on_c, 11, 65, 92
21, 507359, Note_on_c, 11, 65, 0
21, 507360, Note_on_c, 11, 65, 92
21, 507839, Note_on_c, 11, 65, 0
21, 507840, Note_on_c, 11, 65, 92
21, 508799, Note_on_c, 11, 65, 0
21, 509280, Note_on_c, 11, 62, 92
21, 510239, Note_on_c, 11, 62, 0
21, 510240, Note_on_c, 11, 60, 92
21, 510719, Note_on_c, 11, 60, 0
21, 510720, Note_on_c, 11, 60, 92
21, 511199, Note_on_c, 11, 60, 0
21, 511200, Note_on_c, 11, 57, 92
21, 511679, Note_on_c, 11, 57, 0
21, 511680, Note_on_c, 11, 55, 92
21, 512159, Note_on_c, 11, 55, 0
21, 512160, Note_on_c, 11, 65, 104
21, 512240, Control_c, 11, 11, 107
21, 513119, Note_on_c, 11, 65, 0
21, 513120, Note_on_c, 11, 64, 104
21, 513599, Note_on_c, 11, 64, 0
21, 513600, Note_on_c, 11, 64, 104
21, 513959, Note_on_c, 11, 64, 0
21, 514080, Note_on_c, 11, 62, 104
21, 514439, Note_on_c, 11, 62, 0
21, 515038, Control_c, 11, 11, 127
21, 515040, Note_on_c, 11, 57, 92
21, 515519, Note_on_c, 11, 57, 0
21, 515520, Note_on_c, 11, 58, 92
21, 516239, Note_on_c, 11, 58, 0
21, 516240, Note_on_c, 11, 57, 92
21, 516479, Note_on_c, 11, 57, 0
21, 516720, Note_on_c, 11, 65, 92
21, 517679, Note_on_c, 11, 65, 0
21, 517680, Note_on_c, 11, 65, 92
21, 517919, Note_on_c, 11, 65, 0
21, 517920, Note_on_c, 11, 65, 92
21, 518879, Note_on_c, 11, 65, 0
21, 518880, Note_on_c, 11, 65, 92
21, 519359, Note_on_c, 11, 65, 0
21, 519360, Note_on_c, 11, 65, 92
21, 520319, Note_on_c, 11, 65, 0
21, 520320, Note_on_c, 11, 65, 104
21, 520399, Note_on_c, 11, 65, 0
21, 520400, Note_on_c, 11, 65, 92
21, 521759, Note_on_c, 11, 65, 0
21, 521760, Note_on_c, 11, 64, 92
21, 522239, Note_on_c, 11, 64, 0
21, 522240, Note_on_c, 11, 64, 92
21, 522719, Note_on_c, 11, 64, 0
21, 522720, Note_on_c, 11, 60, 92
21, 523199, Note_on_c, 11, 60, 0
21, 523200, Note_on_c, 11, 60, 92
21, 523679, Note_on_c, 11, 60, 0
21, 523680, Note_on_c, 11, 60, 92
21, 524399, Note_on_c, 11, 60, 0
21, 524400, Note_on_c, 11, 62, 92
21, 524639, Note_on_c, 11, 62, 0
21, 524640, Note_on_c, 11, 64, 92
21, 524879, Note_on_c, 11, 64, 0
21, 524880, Note_on_c, 11, 65, 92
21, 525119, Note_on_c, 11, 65, 0
21, 525120, Note_on_c, 11, 67, 92
21, 525599, Note_on_c, 11, 67, 0
21, 525600, Note_on_c, 11, 67, 92
21, 526079, Note_on_c, 11, 67, 0
21, 531840, Control_c, 11, 11, 89
21, 532320, Note_on_c, 11, 58, 68
21, 532320, Control_c, 11, 11, 89
21, 532360, Control_c, 11, 11, 92
21, 532400, Control_c, 11, 11, 95
21, 532440, Control_c, 11, 11, 99
21, 532480, Control_c, 11, 11, 101
21, 532520, Control_c, 11, 11, 105
21, 532560, Control_c, 11, 11, 109
21, 532600, Control_c, 11, 11, 111
21, 532640, Control_c, 11, 11, 115
21, 532680, Control_c, 11, 11, 117
21, 532720, Control_c, 11, 11, 121
21, 532760, Control_c, 11, 11, 124
21, 532800, Control_c, 11, 11, 127
21, 532840, Control_c, 11, 11, 124
21, 532880, Control_c, 11, 11, 121
21, 532920, Control_c, 11, 11, 117
21, 532960, Control_c, 11, 11, 115
21, 533000, Control_c, 11, 11, 111
21, 533040, Control_c, 11, 11, 109
21, 533080, Control_c, 11, 11, 105
21, 533120, Control_c, 11, 11, 101
21, 533160, Control_c, 11, 11, 99
21, 533200, Control_c, 11, 11, 95
21, 533240, Control_c, 11, 11, 92
21, 533280, Control_c, 11, 11, 89
21, 533519, Note_on_c, 11, 58, 0
21, 533520, Note_on_c, 11, 50, 68
21, 533759, Note_on_c, 11, 50, 0
21, 533760, Note_on_c, 11, 48, 68
21, 534119, Note_on_c, 11, 48, 0
21, 534240, Note_on_c, 11, 48, 68
21, 534599, Note_on_c, 11, 48, 0
21, 535200, Note_on_c, 11, 48, 68
21, 535200, Control_c, 11, 11, 89
21, 535263, Control_c, 11, 11, 90
21, 535326, Control_c, 11, 11, 91
21, 535389, Control_c, 11, 11, 92
21, 535453, Control_c, 11, 11, 93
21, 535516, Control_c, 11, 11, 94
21, 535579, Control_c, 11, 11, 95
21, 535642, Control_c, 11, 11, 96
21, 535679, Note_on_c, 11, 48, 0
21, 535680, Note_on_c, 11, 50, 68
21, 535705, Control_c, 11, 11, 97
21, 535768, Control_c, 11, 11, 98
21, 535832, Control_c, 11, 11, 99
21, 535895, Control_c, 11, 11, 100
21, 535958, Control_c, 11, 11, 101
21, 536021, Control_c, 11, 11, 102
21, 536084, Control_c, 11, 11, 103
21, 536147, Control_c, 11, 11, 104
21, 536211, Control_c, 11, 11, 105
21, 536274, Control_c, 11, 11, 106
21, 536337, Control_c, 11, 11, 107
21, 536399, Note_on_c, 11, 50, 0
21, 536400, Control_c, 11, 11, 108
21, 536400, Note_on_c, 11, 50, 68
21, 536463, Control_c, 11, 11, 109
21, 536526, Control_c, 11, 11, 110
21, 536589, Control_c, 11, 11, 111
21, 536639, Note_on_c, 11, 50, 0
21, 536640, Note_on_c, 11, 62, 68
21, 536653, Control_c, 11, 11, 112
21, 536716, Control_c, 11, 11, 113
21, 536779, Control_c, 11, 11, 114
21, 536842, Control_c, 11, 11, 115
21, 536905, Control_c, 11, 11, 116
21, 536968, Control_c, 11, 11, 117
21, 536999, Note_on_c, 11, 62, 0
21, 537032, Control_c, 11, 11, 118
21, 537095, Control_c, 11, 11, 119
21, 537120, Note_on_c, 11, 62, 68
21, 537158, Control_c, 11, 11, 120
21, 537221, Control_c, 11, 11, 121
21, 537284, Control_c, 11, 11, 122
21, 537347, Control_c, 11, 11, 123
21, 537411, Control_c, 11, 11, 124
21, 537474, Control_c, 11, 11, 125
21, 537479, Note_on_c, 11, 62, 0
21, 537537, Control_c, 11, 11, 126
21, 538078, Control_c, 11, 11, 49
21, 538080, Control_c, 11, 11, 49
21, 538080, Note_on_c, 11, 58, 92
21, 538135, Control_c, 11, 11, 50
21, 538191, Control_c, 11, 11, 51
21, 538246, Control_c, 11, 11, 52
21, 538302, Control_c, 11, 11, 53
21, 538357, Control_c, 11, 11, 54
21, 538412, Control_c, 11, 11, 55
21, 538468, Control_c, 11, 11, 56
21, 538523, Control_c, 11, 11, 57
21, 538578, Control_c, 11, 11, 58
21, 538634, Control_c, 11, 11, 59
21, 538689, Control_c, 11, 11, 60
21, 538745, Control_c, 11, 11, 61
21, 538800, Control_c, 11, 11, 62
21, 538855, Control_c, 11, 11, 63
21, 538911, Control_c, 11, 11, 64
21, 538966, Control_c, 11, 11, 65
21, 539022, Control_c, 11, 11, 66
21, 539039, Note_on_c, 11, 58, 0
21, 539040, Note_on_c, 11, 58, 92
21, 539077, Control_c, 11, 11, 67
21, 539132, Control_c, 11, 11, 68
21, 539188, Control_c, 11, 11, 69
21, 539243, Control_c, 11, 11, 70
21, 539298, Control_c, 11, 11, 71
21, 539354, Control_c, 11, 11, 72
21, 539409, Control_c, 11, 11, 73
21, 539465, Control_c, 11, 11, 74
21, 539519, Note_on_c, 11, 58, 0
21, 539520, Note_on_c, 11, 57, 92
21, 539520, Control_c, 11, 11, 75
21, 539575, Control_c, 11, 11, 76
21, 539631, Control_c, 11, 11, 77
21, 539686, Control_c, 11, 11, 78
21, 539742, Control_c, 11, 11, 79
21, 539797, Control_c, 11, 11, 80
21, 539852, Control_c, 11, 11, 81
21, 539908, Control_c, 11, 11, 82
21, 539963, Control_c, 11, 11, 83
21, 540018, Control_c, 11, 11, 84
21, 540074, Control_c, 11, 11, 85
21, 540129, Control_c, 11, 11, 86
21, 540185, Control_c, 11, 11, 87
21, 540240, Control_c, 11, 11, 88
21, 540295, Control_c, 11, 11, 89
21, 540351, Control_c, 11, 11, 90
21, 540406, Control_c, 11, 11, 91
21, 540462, Control_c, 11, 11, 92
21, 540517, Control_c, 11, 11, 93
21, 540572, Control_c, 11, 11, 94
21, 540628, Control_c, 11, 11, 95
21, 540683, Control_c, 11, 11, 96
21, 540719, Note_on_c, 11, 57, 0
21, 540720, Note_on_c, 11, 65, 92
21, 540738, Control_c, 11, 11, 97
21, 540794, Control_c, 11, 11, 98
21, 540849, Control_c, 11, 11, 99
21, 540905, Control_c, 11, 11, 100
21, 540959, Note_on_c, 11, 65, 0
21, 540960, Control_c, 11, 11, 101
21, 540960, Note_on_c, 11, 65, 92
21, 541015, Control_c, 11, 11, 102
21, 541071, Control_c, 11, 11, 103
21, 541126, Control_c, 11, 11, 104
21, 541182, Control_c, 11, 11, 105
21, 541237, Control_c, 11, 11, 106
21, 541292, Control_c, 11, 11, 107
21, 541348, Control_c, 11, 11, 108
21, 541403, Control_c, 11, 11, 109
21, 541439, Note_on_c, 11, 65, 0
21, 541440, Note_on_c, 11, 62, 92
21, 541458, Control_c, 11, 11, 110
21, 541514, Control_c, 11, 11, 111
21, 541569, Control_c, 11, 11, 112
21, 541625, Control_c, 11, 11, 113
21, 541680, Control_c, 11, 11, 114
21, 541735, Control_c, 11, 11, 115
21, 541791, Control_c, 11, 11, 116
21, 541846, Control_c, 11, 11, 117
21, 541902, Control_c, 11, 11, 118
21, 541919, Note_on_c, 11, 62, 0
21, 542345, Control_c, 11, 11, 127
21, 542400, Note_on_c, 11, 60, 92
21, 543359, Note_on_c, 11, 60, 0
21, 543838, Control_c, 11, 11, 49
21, 543840, Note_on_c, 11, 55, 80
21, 544799, Note_on_c, 11, 55, 0
21, 544800, Note_on_c, 11, 55, 80
21, 545279, Note_on_c, 11, 55, 0
21, 545280, Control_c, 11, 11, 49
21, 545280, Note_on_c, 11, 60, 80
21, 545317, Control_c, 11, 11, 50
21, 545354, Control_c, 11, 11, 51
21, 545391, Control_c, 11, 11, 52
21, 545428, Control_c, 11, 11, 53
21, 545465, Control_c, 11, 11, 54
21, 545502, Control_c, 11, 11, 55
21, 545538, Control_c, 11, 11, 56
21, 545575, Control_c, 11, 11, 57
21, 545612, Control_c, 11, 11, 58
21, 545649, Control_c, 11, 11, 59
21, 545686, Control_c, 11, 11, 60
21, 545723, Control_c, 11, 11, 61
21, 545760, Control_c, 11, 11, 62
21, 545797, Control_c, 11, 11, 63
21, 545834, Control_c, 11, 11, 64
21, 545871, Control_c, 11, 11, 65
21, 545908, Control_c, 11, 11, 66
21, 545945, Control_c, 11, 11, 67
21, 545982, Control_c, 11, 11, 68
21, 546018, Control_c, 11, 11, 69
21, 546055, Control_c, 11, 11, 70
21, 546092, Control_c, 11, 11, 71
21, 546129, Control_c, 11, 11, 72
21, 546166, Control_c, 11, 11, 73
21, 546203, Control_c, 11, 11, 74
21, 546239, Note_on_c, 11, 60, 0
21, 546240, Note_on_c, 11, 60, 80
21, 546240, Control_c, 11, 11, 75
21, 546277, Control_c, 11, 11, 76
21, 546314, Control_c, 11, 11, 77
21, 546351, Control_c, 11, 11, 78
21, 546388, Control_c, 11, 11, 79
21, 546425, Control_c, 11, 11, 80
21, 546462, Control_c, 11, 11, 81
21, 546498, Control_c, 11, 11, 82
21, 546535, Control_c, 11, 11, 83
21, 546572, Control_c, 11, 11, 84
21, 546609, Control_c, 11, 11, 85
21, 546646, Control_c, 11, 11, 86
21, 546683, Control_c, 11, 11, 87
21, 546719, Note_on_c, 11, 60, 0
21, 546720, Note_on_c, 11, 65, 80
21, 546720, Control_c, 11, 11, 88
21, 546757, Control_c, 11, 11, 89
21, 546794, Control_c, 11, 11, 90
21, 546831, Control_c, 11, 11, 91
21, 546868, Control_c, 11, 11, 92
21, 546905, Control_c, 11, 11, 93
21, 546942, Control_c, 11, 11, 94
21, 546978, Control_c, 11, 11, 95
21, 547015, Control_c, 11, 11, 96
21, 547052, Control_c, 11, 11, 97
21, 547089, Control_c, 11, 11, 98
21, 547126, Control_c, 11, 11, 99
21, 547163, Control_c, 11, 11, 100
21, 547200, Control_c, 11, 11, 101
21, 547237, Control_c, 11, 11, 102
21, 547274, Control_c, 11, 11, 103
21, 547311, Control_c, 11, 11, 104
21, 547348, Control_c, 11, 11, 105
21, 547385, Control_c, 11, 11, 106
21, 547422, Control_c, 11, 11, 107
21, 547458, Control_c, 11, 11, 108
21, 547495, Control_c, 11, 11, 109
21, 547532, Control_c, 11, 11, 110
21, 547569, Control_c, 11, 11, 111
21, 547606, Control_c, 11, 11, 112
21, 547643, Control_c, 11, 11, 113
21, 547679, Note_on_c, 11, 65, 0
21, 547680, Control_c, 11, 11, 114
21, 547680, Note_on_c, 11, 65, 80
21, 547717, Control_c, 11, 11, 115
21, 547754, Control_c, 11, 11, 116
21, 547791, Control_c, 11, 11, 117
21, 547828, Control_c, 11, 11, 118
21, 547865, Control_c, 11, 11, 119
21, 547902, Control_c, 11, 11, 120
21, 547938, Control_c, 11, 11, 121
21, 547975, Control_c, 11, 11, 122
21, 548012, Control_c, 11, 11, 123
21, 548049, Control_c, 11, 11, 124
21, 548086, Control_c, 11, 11, 125
21, 548123, Control_c, 11, 11, 127
21, 548159, Note_on_c, 11, 65, 0
21, 548160, Note_on_c, 11, 62, 80
21, 549599, Note_on_c, 11, 62, 0
21, 550080, Note_on_c, 11, 67, 92
21, 550799, Note_on_c, 11, 67, 0
21, 550800, Note_on_c, 11, 67, 92
21, 551039, Note_on_c, 11, 67, 0
21, 551040, Note_on_c, 11, 67, 92
21, 551999, Note_on_c, 11, 67, 0
21, 552000, Note_on_c, 11, 67, 92
21, 552479, Note_on_c, 11, 67, 0
21, 552480, Note_on_c, 11, 67, 92
21, 552959, Note_on_c, 11, 67, 0
21, 552960, Note_on_c, 11, 67, 92
21, 553919, Note_on_c, 11, 67, 0
21, 553920, Note_on_c, 11, 67, 104
21, 553980, Control_c, 11, 11, 107
21, 554879, Note_on_c, 11, 67, 0
21, 554880, Note_on_c, 11, 67, 104
21, 555359, Note_on_c, 11, 67, 0
21, 561120, Control_c, 11, 11, 127
21, 561600, Note_on_c, 11, 61, 32
21, 562319, Note_on_c, 11, 61, 0
21, 562320, Note_on_c, 11, 61, 32
21, 562559, Note_on_c, 11, 61, 0
21, 562560, Note_on_c, 11, 61, 32
21, 563519, Note_on_c, 11, 61, 0
21, 563520, Note_on_c, 11, 61, 32
21, 563999, Note_on_c, 11, 61, 0
21, 564000, Note_on_c, 11, 61, 32
21, 564479, Note_on_c, 11, 61, 0
21, 564480, Note_on_c, 11, 61, 32
21, 565439, Note_on_c, 11, 61, 0
21, 565440, Note_on_c, 11, 61, 32
21, 566399, Note_on_c, 11, 61, 0
21, 566400, Note_on_c, 11, 61, 32
21, 566879, Note_on_c, 11, 61, 0
21, 579120, Note_on_c, 11, 69, 80
21, 580559, Note_on_c, 11, 69, 0
21, 580560, Note_on_c, 11, 69, 80
21, 581279, Note_on_c, 11, 69, 0
21, 581280, Note_on_c, 11, 68, 80
21, 581999, Note_on_c, 11, 68, 0
21, 582000, Note_on_c, 11, 64, 80
21, 582704, Note_on_c, 11, 64, 0
21, 582720, Note_on_c, 11, 66, 80
21, 583439, Note_on_c, 11, 66, 0
21, 583440, Note_on_c, 11, 66, 80
21, 584159, Note_on_c, 11, 66, 0
21, 584160, Note_on_c, 11, 64, 80
21, 584879, Note_on_c, 11, 64, 0
21, 584880, Note_on_c, 11, 61, 80
21, 585569, Note_on_c, 11, 61, 0
21, 585600, Note_on_c, 11, 62, 80
21, 586319, Note_on_c, 11, 62, 0
21, 586320, Note_on_c, 11, 62, 80
21, 587039, Note_on_c, 11, 62, 0
21, 587040, Note_on_c, 11, 61, 80
21, 587759, Note_on_c, 11, 61, 0
21, 587760, Note_on_c, 11, 57, 80
21, 588479, Note_on_c, 11, 57, 0
21, 588480, Note_on_c, 11, 67, 80
21, 589199, Note_on_c, 11, 67, 0
21, 589200, Note_on_c, 11, 67, 80
21, 589919, Note_on_c, 11, 67, 0
21, 589920, Note_on_c, 11, 66, 80
21, 590639, Note_on_c, 11, 66, 0
21, 591360, Note_on_c, 11, 66, 80
21, 591839, Note_on_c, 11, 66, 0
21, 591840, Note_on_c, 11, 66, 80
21, 592064, Note_on_c, 11, 66, 0
21, 592080, Note_on_c, 11, 67, 80
21, 592559, Note_on_c, 11, 67, 0
21, 592560, Note_on_c, 11, 69, 80
21, 592799, Note_on_c, 11, 69, 0
21, 592800, Note_on_c, 11, 69, 80
21, 593279, Note_on_c, 11, 69, 0
21, 593280, Note_on_c, 11, 67, 80
21, 593519, Note_on_c, 11, 67, 0
21, 593520, Note_on_c, 11, 66, 80
21, 593999, Note_on_c, 11, 66, 0
21, 594000, Note_on_c, 11, 64, 80
21, 594224, Note_on_c, 11, 64, 0
21, 594240, Note_on_c, 11, 62, 80
21, 594719, Note_on_c, 11, 62, 0
21, 594720, Note_on_c, 11, 62, 80
21, 594959, Note_on_c, 11, 62, 0
21, 594960, Note_on_c, 11, 64, 80
21, 595439, Note_on_c, 11, 64, 0
21, 595440, Note_on_c, 11, 66, 80
21, 595679, Note_on_c, 11, 66, 0
21, 595680, Note_on_c, 11, 66, 80
21, 596159, Note_on_c, 11, 66, 0
21, 596160, Note_on_c, 11, 64, 80
21, 596399, Note_on_c, 11, 64, 0
21, 596400, Note_on_c, 11, 62, 80
21, 596879, Note_on_c, 11, 62, 0
21, 596880, Note_on_c, 11, 60, 80
21, 597089, Note_on_c, 11, 60, 0
21, 597120, Note_on_c, 11, 59, 80
21, 597599, Note_on_c, 11, 59, 0
21, 597600, Note_on_c, 11, 59, 80
21, 597839, Note_on_c, 11, 59, 0
21, 597840, Note_on_c, 11, 61, 80
21, 598319, Note_on_c, 11, 61, 0
21, 598320, Note_on_c, 11, 62, 80
21, 598559, Note_on_c, 11, 62, 0
21, 598560, Note_on_c, 11, 62, 80
21, 599039, Note_on_c, 11, 62, 0
21, 599040, Note_on_c, 11, 61, 80
21, 599279, Note_on_c, 11, 61, 0
21, 599280, Note_on_c, 11, 59, 80
21, 599759, Note_on_c, 11, 59, 0
21, 599760, Note_on_c, 11, 57, 80
21, 599984, Note_on_c, 11, 57, 0
21, 600000, Note_on_c, 11, 55, 80
21, 600479, Note_on_c, 11, 55, 0
21, 600480, Note_on_c, 11, 54, 80
21, 600719, Note_on_c, 11, 54, 0
21, 600720, Note_on_c, 11, 52, 80
21, 601199, Note_on_c, 11, 52, 0
21, 601200, Note_on_c, 11, 50, 80
21, 601439, Note_on_c, 11, 50, 0
21, 601440, Note_on_c, 11, 57, 80
21, 601919, Note_on_c, 11, 57, 0
21, 601920, Note_on_c, 11, 57, 80
21, 602159, Note_on_c, 11, 57, 0
21, 602160, Note_on_c, 11, 57, 80
21, 602639, Note_on_c, 11, 57, 0
21, 604320, Note_on_c, 11, 64, 80
21, 604799, Note_on_c, 11, 64, 0
21, 604800, Note_on_c, 11, 64, 80
21, 605039, Note_on_c, 11, 64, 0
21, 607200, Note_on_c, 11, 69, 80
21, 607679, Note_on_c, 11, 69, 0
21, 607680, Note_on_c, 11, 69, 80
21, 607919, Note_on_c, 11, 69, 0
21, 609360, Note_on_c, 11, 59, 80
21, 609839, Note_on_c, 11, 59, 0
21, 609840, Note_on_c, 11, 59, 80
21, 610079, Note_on_c, 11, 59, 0
21, 610080, Note_on_c, 11, 57, 80
21, 610559, Note_on_c, 11, 57, 0
21, 610560, Note_on_c, 11, 61, 80
21, 610799, Note_on_c, 11, 61, 0
21, 610800, Note_on_c, 11, 62, 80
21, 611279, Note_on_c, 11, 62, 0
21, 611280, Note_on_c, 11, 64, 80
21, 611519, Note_on_c, 11, 64, 0
21, 611520, Note_on_c, 11, 64, 80
21, 612239, Note_on_c, 11, 64, 0
21, 612240, Note_on_c, 11, 62, 80
21, 612719, Note_on_c, 11, 62, 0
21, 612720, Note_on_c, 11, 61, 80
21, 613439, Note_on_c, 11, 61, 0
21, 613440, Note_on_c, 11, 58, 80
21, 614159, Note_on_c, 11, 58, 0
21, 614160, Note_on_c, 11, 61, 80
21, 614879, Note_on_c, 11, 61, 0
21, 614880, Note_on_c, 11, 58, 80
21, 615599, Note_on_c, 11, 58, 0
21, 615600, Note_on_c, 11, 54, 80
21, 616319, Note_on_c, 11, 54, 0
21, 616320, Note_on_c, 11, 59, 80
21, 616559, Note_on_c, 11, 59, 0
21, 616560, Note_on_c, 11, 59, 80
21, 617279, Note_on_c, 11, 59, 0
21, 618000, Note_on_c, 11, 54, 80
21, 618479, Note_on_c, 11, 54, 0
21, 618480, Note_on_c, 11, 59, 80
21, 618719, Note_on_c, 11, 59, 0
21, 618720, Note_on_c, 11, 59, 80
21, 619199, Note_on_c, 11, 59, 0
21, 619200, Note_on_c, 11, 52, 80
21, 619919, Note_on_c, 11, 52, 0
21, 619920, Note_on_c, 11, 64, 80
21, 620639, Note_on_c, 11, 64, 0
21, 620640, Note_on_c, 11, 58, 80
21, 620879, Note_on_c, 11, 58, 0
21, 620880, Note_on_c, 11, 57, 80
21, 621359, Note_on_c, 11, 57, 0
21, 621360, Note_on_c, 11, 64, 80
21, 622079, Note_on_c, 11, 64, 0
21, 622080, Note_on_c, 11, 62, 80
21, 622319, Note_on_c, 11, 62, 0
21, 622320, Note_on_c, 11, 66, 80
21, 622799, Note_on_c, 11, 66, 0
21, 622800, Note_on_c, 11, 64, 80
21, 623519, Note_on_c, 11, 64, 0
21, 623520, Note_on_c, 11, 62, 80
21, 623759, Note_on_c, 11, 62, 0
21, 623760, Note_on_c, 11, 64, 80
21, 624239, Note_on_c, 11, 64, 0
21, 624240, Note_on_c, 11, 66, 80
21, 624479, Note_on_c, 11, 66, 0
21, 624480, Note_on_c, 11, 64, 80
21, 625199, Note_on_c, 11, 64, 0
21, 625200, Note_on_c, 11, 62, 80
21, 625679, Note_on_c, 11, 62, 0
21, 625680, Note_on_c, 11, 61, 80
21, 626399, Note_on_c, 11, 61, 0
21, 626400, Note_on_c, 11, 59, 80
21, 626639, Note_on_c, 11, 59, 0
21, 626640, Note_on_c, 11, 61, 80
21, 627119, Note_on_c, 11, 61, 0
21, 627120, Note_on_c, 11, 62, 80
21, 627839, Note_on_c, 11, 62, 0
21, 627840, Note_on_c, 11, 61, 80
21, 628079, Note_on_c, 11, 61, 0
21, 628080, Note_on_c, 11, 59, 80
21, 628559, Note_on_c, 11, 59, 0
21, 628560, Note_on_c, 11, 57, 80
21, 628799, Note_on_c, 11, 57, 0
21, 628800, Note_on_c, 11, 64, 80
21, 629279, Note_on_c, 11, 64, 0
21, 629280, Note_on_c, 11, 62, 80
21, 629519, Note_on_c, 11, 62, 0
21, 629520, Note_on_c, 11, 61, 80
21, 629999, Note_on_c, 11, 61, 0
21, 630000, Note_on_c, 11, 59, 80
21, 630239, Note_on_c, 11, 59, 0
21, 630240, Note_on_c, 11, 50, 80
21, 630689, Note_on_c, 11, 50, 0
21, 630720, Note_on_c, 11, 50, 80
21, 630959, Note_on_c, 11, 50, 0
21, 630960, Note_on_c, 11, 52, 80
21, 631439, Note_on_c, 11, 52, 0
21, 631440, Note_on_c, 11, 54, 80
21, 631679, Note_on_c, 11, 54, 0
21, 631680, Note_on_c, 11, 56, 80
21, 632159, Note_on_c, 11, 56, 0
21, 632160, Note_on_c, 11, 57, 80
21, 632399, Note_on_c, 11, 57, 0
21, 632400, Note_on_c, 11, 59, 80
21, 632879, Note_on_c, 11, 59, 0
21, 632880, Note_on_c, 11, 56, 80
21, 633119, Note_on_c, 11, 56, 0
21, 633120, Note_on_c, 11, 62, 80
21, 633599, Note_on_c, 11, 62, 0
21, 633600, Note_on_c, 11, 61, 80
21, 633839, Note_on_c, 11, 61, 0
21, 633840, Note_on_c, 11, 62, 80
21, 634319, Note_on_c, 11, 62, 0
21, 634320, Note_on_c, 11, 64, 80
21, 634529, Note_on_c, 11, 64, 0
21, 634560, Note_on_c, 11, 66, 80
21, 635279, Note_on_c, 11, 66, 0
21, 635280, Note_on_c, 11, 66, 80
21, 635999, Note_on_c, 11, 66, 0
21, 636000, Note_on_c, 11, 64, 80
21, 637199, Note_on_c, 11, 64, 0
21, 637200, Note_on_c, 11, 62, 80
21, 637409, Note_on_c, 11, 62, 0
21, 637440, Note_on_c, 11, 62, 80
21, 638159, Note_on_c, 11, 62, 0
21, 638160, Note_on_c, 11, 62, 80
21, 638879, Note_on_c, 11, 62, 0
21, 638880, Note_on_c, 11, 61, 80
21, 639599, Note_on_c, 11, 61, 0
21, 639600, Note_on_c, 11, 59, 80
21, 640079, Note_on_c, 11, 59, 0
21, 640080, Note_on_c, 11, 58, 80
21, 640319, Note_on_c, 11, 58, 0
21, 640320, Note_on_c, 11, 54, 80
21, 641759, Note_on_c, 11, 54, 0
21, 641760, Note_on_c, 11, 61, 80
21, 642959, Note_on_c, 11, 61, 0
21, 642960, Note_on_c, 11, 59, 80
21, 643199, Note_on_c, 11, 59, 0
21, 643200, Note_on_c, 11, 61, 80
21, 643919, Note_on_c, 11, 61, 0
21, 643920, Note_on_c, 11, 59, 80
21, 644399, Note_on_c, 11, 59, 0
21, 644400, Note_on_c, 11, 58, 80
21, 644639, Note_on_c, 11, 58, 0
21, 645360, Note_on_c, 11, 62, 80
21, 646799, Note_on_c, 11, 62, 0
21, 646800, Note_on_c, 11, 62, 80
21, 647519, Note_on_c, 11, 62, 0
21, 647520, Note_on_c, 11, 61, 80
21, 648239, Note_on_c, 11, 61, 0
21, 648240, Note_on_c, 11, 59, 80
21, 648719, Note_on_c, 11, 59, 0
21, 648720, Note_on_c, 11, 58, 80
21, 648944, Note_on_c, 11, 58, 0
21, 648960, Note_on_c, 11, 61, 80
21, 649679, Note_on_c, 11, 61, 0
21, 649680, Note_on_c, 11, 54, 80
21, 650399, Note_on_c, 11, 54, 0
21, 650400, Note_on_c, 11, 54, 80
21, 651119, Note_on_c, 11, 54, 0
21, 651120, Note_on_c, 11, 54, 80
21, 651809, Note_on_c, 11, 54, 0
21, 651840, Note_on_c, 11, 59, 80
21, 652559, Note_on_c, 11, 59, 0
21, 652560, Note_on_c, 11, 59, 80
21, 653279, Note_on_c, 11, 59, 0
21, 653280, Note_on_c, 11, 59, 80
21, 653999, Note_on_c, 11, 59, 0
21, 654000, Note_on_c, 11, 57, 80
21, 654479, Note_on_c, 11, 57, 0
21, 654480, Note_on_c, 11, 56, 80
21, 654719, Note_on_c, 11, 56, 0
21, 654720, Note_on_c, 11, 62, 80
21, 655439, Note_on_c, 11, 62, 0
21, 655440, Note_on_c, 11, 52, 80
21, 656159, Note_on_c, 11, 52, 0
21, 656160, Note_on_c, 11, 57, 80
21, 656879, Note_on_c, 11, 57, 0
21, 659760, Note_on_c, 11, 57, 80
21, 660479, Note_on_c, 11, 57, 0
21, 660480, Note_on_c, 11, 69, 80
21, 661199, Note_on_c, 11, 69, 0
21, 661200, Note_on_c, 11, 69, 80
21, 661919, Note_on_c, 11, 69, 0
21, 661920, Note_on_c, 11, 69, 80
21, 664049, Note_on_c, 11, 69, 0
21, 664080, Note_on_c, 11, 62, 80
21, 665519, Note_on_c, 11, 62, 0
21, 665520, Note_on_c, 11, 62, 80
21, 666239, Note_on_c, 11, 62, 0
21, 666240, Note_on_c, 11, 60, 80
21, 666959, Note_on_c, 11, 60, 0
21, 666960, Note_on_c, 11, 57, 80
21, 667664, Note_on_c, 11, 57, 0
21, 667680, Note_on_c, 11, 55, 80
21, 668399, Note_on_c, 11, 55, 0
21, 668400, Note_on_c, 11, 57, 80
21, 668879, Note_on_c, 11, 57, 0
21, 668880, Note_on_c, 11, 59, 80
21, 669119, Note_on_c, 11, 59, 0
21, 669120, Note_on_c, 11, 57, 80
21, 669599, Note_on_c, 11, 57, 0
21, 669600, Note_on_c, 11, 62, 80
21, 669839, Note_on_c, 11, 62, 0
21, 669840, Note_on_c, 11, 64, 80
21, 670319, Note_on_c, 11, 64, 0
21, 670320, Note_on_c, 11, 66, 80
21, 670529, Note_on_c, 11, 66, 0
21, 670560, Note_on_c, 11, 64, 80
21, 671759, Note_on_c, 11, 64, 0
21, 671760, Note_on_c, 11, 66, 80
21, 671999, Note_on_c, 11, 66, 0
21, 672000, Note_on_c, 11, 67, 80
21, 672479, Note_on_c, 11, 67, 0
21, 672480, Note_on_c, 11, 66, 80
21, 672719, Note_on_c, 11, 66, 0
21, 672720, Note_on_c, 11, 67, 80
21, 673439, Note_on_c, 11, 67, 0
21, 673440, Note_on_c, 11, 67, 80
21, 674159, Note_on_c, 11, 67, 0
21, 674160, Note_on_c, 11, 67, 80
21, 674879, Note_on_c, 11, 67, 0
21, 674880, Note_on_c, 11, 66, 80
21, 676319, Note_on_c, 11, 66, 0
21, 682080, Note_on_c, 11, 52, 44
21, 682559, Note_on_c, 11, 52, 0
21, 683280, Note_on_c, 11, 52, 44
21, 683519, Note_on_c, 11, 52, 0
21, 683520, Note_on_c, 11, 61, 44
21, 683999, Note_on_c, 11, 61, 0
21, 684720, Note_on_c, 11, 61, 44
21, 684959, Note_on_c, 11, 61, 0
21, 684960, Note_on_c, 11, 62, 44
21, 685439, Note_on_c, 11, 62, 0
21, 686160, Note_on_c, 11, 62, 44
21, 686384, Note_on_c, 11, 62, 0
21, 686400, Note_on_c, 11, 63, 44
21, 687839, Note_on_c, 11, 63, 0
21, 692160, Control_c, 11, 11, 102
21, 693600, Note_on_c, 11, 58, 80
21, 693749, Control_c, 11, 11, 103
21, 693923, Control_c, 11, 11, 104
21, 694079, Note_on_c, 11, 58, 0
21, 694097, Control_c, 11, 11, 105
21, 694270, Control_c, 11, 11, 106
21, 694444, Control_c, 11, 11, 107
21, 694618, Control_c, 11, 11, 108
21, 694792, Control_c, 11, 11, 109
21, 694800, Note_on_c, 11, 58, 80
21, 694966, Control_c, 11, 11, 110
21, 695039, Note_on_c, 11, 58, 0
21, 695040, Note_on_c, 11, 67, 80
21, 695139, Control_c, 11, 11, 111
21, 695313, Control_c, 11, 11, 112
21, 695487, Control_c, 11, 11, 113
21, 695519, Note_on_c, 11, 67, 0
21, 695661, Control_c, 11, 11, 114
21, 695834, Control_c, 11, 11, 115
21, 696008, Control_c, 11, 11, 116
21, 696182, Control_c, 11, 11, 117
21, 696240, Note_on_c, 11, 67, 80
21, 696356, Control_c, 11, 11, 118
21, 696479, Note_on_c, 11, 67, 0
21, 696480, Note_on_c, 11, 68, 80
21, 696530, Control_c, 11, 11, 119
21, 696703, Control_c, 11, 11, 120
21, 696877, Control_c, 11, 11, 121
21, 696959, Note_on_c, 11, 68, 0
21, 697051, Control_c, 11, 11, 122
21, 697225, Control_c, 11, 11, 123
21, 697399, Control_c, 11, 11, 124
21, 697572, Control_c, 11, 11, 125
21, 697680, Note_on_c, 11, 56, 80
21, 697746, Control_c, 11, 11, 127
21, 697919, Note_on_c, 11, 56, 0
21, 697920, Note_on_c, 11, 57, 80
21, 698609, Note_on_c, 11, 57, 0
21, 698640, Note_on_c, 11, 61, 92
21, 698720, Control_c, 11, 11, 107
21, 700079, Note_on_c, 11, 61, 0
21, 700080, Note_on_c, 11, 61, 92
21, 700799, Note_on_c, 11, 61, 0
21, 702238, Control_c, 11, 11, 127
21, 702240, Note_on_c, 11, 62, 80
21, 702959, Note_on_c, 11, 62, 0
21, 702960, Note_on_c, 11, 62, 80
21, 703679, Note_on_c, 11, 62, 0
21, 704160, Control_c, 11, 11, 69
21, 704400, Note_on_c, 11, 64, 80
21, 705839, Note_on_c, 11, 64, 0
21, 705840, Note_on_c, 11, 64, 80
21, 706559, Note_on_c, 11, 64, 0
21, 706560, Note_on_c, 11, 64, 80
21, 706560, Control_c, 11, 11, 69
21, 706606, Control_c, 11, 11, 70
21, 706651, Control_c, 11, 11, 71
21, 706697, Control_c, 11, 11, 72
21, 706742, Control_c, 11, 11, 73
21, 706788, Control_c, 11, 11, 74
21, 706833, Control_c, 11, 11, 75
21, 706879, Control_c, 11, 11, 76
21, 706924, Control_c, 11, 11, 77
21, 706970, Control_c, 11, 11, 78
21, 707015, Control_c, 11, 11, 79
21, 707061, Control_c, 11, 11, 80
21, 707106, Control_c, 11, 11, 81
21, 707152, Control_c, 11, 11, 82
21, 707197, Control_c, 11, 11, 83
21, 707243, Control_c, 11, 11, 84
21, 707288, Control_c, 11, 11, 85
21, 707334, Control_c, 11, 11, 86
21, 707379, Control_c, 11, 11, 87
21, 707425, Control_c, 11, 11, 88
21, 707470, Control_c, 11, 11, 89
21, 707516, Control_c, 11, 11, 90
21, 707561, Control_c, 11, 11, 91
21, 707607, Control_c, 11, 11, 92
21, 707652, Control_c, 11, 11, 93
21, 707698, Control_c, 11, 11, 94
21, 707743, Control_c, 11, 11, 95
21, 707789, Control_c, 11, 11, 96
21, 707834, Control_c, 11, 11, 97
21, 707880, Control_c, 11, 11, 98
21, 707926, Control_c, 11, 11, 99
21, 707971, Control_c, 11, 11, 100
21, 708017, Control_c, 11, 11, 101
21, 708062, Control_c, 11, 11, 102
21, 708108, Control_c, 11, 11, 103
21, 708153, Control_c, 11, 11, 104
21, 708199, Control_c, 11, 11, 105
21, 708244, Control_c, 11, 11, 106
21, 708290, Control_c, 11, 11, 107
21, 708335, Control_c, 11, 11, 108
21, 708381, Control_c, 11, 11, 109
21, 708426, Control_c, 11, 11, 110
21, 708472, Control_c, 11, 11, 111
21, 708517, Control_c, 11, 11, 112
21, 708563, Control_c, 11, 11, 113
21, 708608, Control_c, 11, 11, 114
21, 708654, Control_c, 11, 11, 115
21, 708699, Control_c, 11, 11, 116
21, 708719, Note_on_c, 11, 64, 0
21, 708720, Note_on_c, 11, 64, 80
21, 708745, Control_c, 11, 11, 117
21, 708790, Control_c, 11, 11, 118
21, 708836, Control_c, 11, 11, 119
21, 708881, Control_c, 11, 11, 120
21, 708927, Control_c, 11, 11, 121
21, 708972, Control_c, 11, 11, 122
21, 709018, Control_c, 11, 11, 123
21, 709063, Control_c, 11, 11, 124
21, 709109, Control_c, 11, 11, 125
21, 709154, Control_c, 11, 11, 127
21, 709240, Control_c, 11, 11, 122
21, 709280, Control_c, 11, 11, 117
21, 709320, Control_c, 11, 11, 112
21, 709360, Control_c, 11, 11, 107
21, 709400, Control_c, 11, 11, 102
21, 709439, Note_on_c, 11, 64, 0
21, 709440, Note_on_c, 11, 64, 80
21, 709440, Control_c, 11, 11, 99
21, 709480, Control_c, 11, 11, 94
21, 709520, Control_c, 11, 11, 89
21, 709560, Control_c, 11, 11, 84
21, 709600, Control_c, 11, 11, 79
21, 709640, Control_c, 11, 11, 74
21, 709680, Control_c, 11, 11, 69
21, 710159, Note_on_c, 11, 64, 0
21, 710160, Note_on_c, 11, 64, 80
21, 711599, Note_on_c, 11, 64, 0
21, 711600, Note_on_c, 11, 64, 80
21, 712319, Note_on_c, 11, 64, 0
21, 712320, Note_on_c, 11, 64, 80
21, 713039, Note_on_c, 11, 64, 0
21, 713040, Note_on_c, 11, 64, 80
21, 713759, Note_on_c, 11, 64, 0
21, 713760, Note_on_c, 11, 64, 80
21, 714479, Note_on_c, 11, 64, 0
21, 714480, Note_on_c, 11, 64, 80
21, 715199, Note_on_c, 11, 64, 0
21, 715200, Note_on_c, 11, 64, 80
21, 715919, Note_on_c, 11, 64, 0
21, 715920, Note_on_c, 11, 64, 80
21, 716609, Note_on_c, 11, 64, 0
21, 716640, Note_on_c, 11, 64, 80
21, 716640, Control_c, 11, 11, 69
21, 716700, Control_c, 11, 11, 72
21, 716760, Control_c, 11, 11, 75
21, 716820, Control_c, 11, 11, 79
21, 716880, Control_c, 11, 11, 82
21, 716940, Control_c, 11, 11, 85
21, 717000, Control_c, 11, 11, 89
21, 717060, Control_c, 11, 11, 92
21, 717120, Control_c, 11, 11, 95
21, 717180, Control_c, 11, 11, 99
21, 717240, Control_c, 11, 11, 102
21, 717300, Control_c, 11, 11, 105
21, 717359, Note_on_c, 11, 64, 0
21, 717360, Control_c, 11, 11, 109
21, 717360, Note_on_c, 11, 62, 80
21, 717420, Control_c, 11, 11, 105
21, 717480, Control_c, 11, 11, 102
21, 717540, Control_c, 11, 11, 99
21, 717600, Control_c, 11, 11, 95
21, 717660, Control_c, 11, 11, 92
21, 717720, Control_c, 11, 11, 89
21, 717780, Control_c, 11, 11, 85
21, 717840, Control_c, 11, 11, 82
21, 717900, Control_c, 11, 11, 79
21, 717960, Control_c, 11, 11, 75
21, 718020, Control_c, 11, 11, 72
21, 718079, Note_on_c, 11, 62, 0
21, 718080, Control_c, 11, 11, 69
21, 718080, Note_on_c, 11, 62, 80
21, 718799, Note_on_c, 11, 62, 0
21, 718800, Note_on_c, 11, 62, 80
21, 719519, Note_on_c, 11, 62, 0
21, 719520, Note_on_c, 11, 62, 74
21, 720239, Note_on_c, 11, 62, 0
21, 720240, Note_on_c, 11, 62, 74
21, 720959, Note_on_c, 11, 62, 0
21, 720960, Note_on_c, 11, 62, 74
21, 723119, Note_on_c, 11, 62, 0
21, 723120, Note_on_c, 11, 62, 68
21, 723839, Note_on_c, 11, 62, 0
21, 724800, Control_c, 11, 11, 127
21, 754560, Note_on_c, 11, 52, 44
21, 754799, Note_on_c, 11, 52, 0
21, 754800, Note_on_c, 11, 52, 45
21, 755039, Note_on_c, 11, 52, 0
21, 755040, Note_on_c, 11, 50, 47
21, 755279, Note_on_c, 11, 50, 0
21, 755280, Note_on_c, 11, 50, 48
21, 755499, Note_on_c, 11, 50, 0
21, 755520, Note_on_c, 11, 55, 50
21, 755759, Note_on_c, 11, 55, 0
21, 755760, Note_on_c, 11, 55, 51
21, 755999, Note_on_c, 11, 55, 0
21, 756000, Note_on_c, 11, 54, 53
21, 756239, Note_on_c, 11, 54, 0
21, 756240, Note_on_c, 11, 54, 54
21, 756479, Note_on_c, 11, 54, 0
21, 756480, Note_on_c, 11, 54, 56
21, 756719, Note_on_c, 11, 54, 0
21, 756720, Note_on_c, 11, 52, 57
21, 756959, Note_on_c, 11, 52, 0
21, 756960, Note_on_c, 11, 50, 59
21, 757199, Note_on_c, 11, 50, 0
21, 757200, Note_on_c, 11, 57, 60
21, 757439, Note_on_c, 11, 57, 0
21, 757440, Note_on_c, 11, 57, 62
21, 757679, Note_on_c, 11, 57, 0
21, 757680, Note_on_c, 11, 55, 63
21, 757919, Note_on_c, 11, 55, 0
21, 757920, Note_on_c, 11, 55, 65
21, 758159, Note_on_c, 11, 55, 0
21, 758160, Note_on_c, 11, 54, 66
21, 758379, Note_on_c, 11, 54, 0
21, 758400, Note_on_c, 11, 54, 68
21, 758639, Note_on_c, 11, 54, 0
21, 758640, Note_on_c, 11, 52, 69
21, 758879, Note_on_c, 11, 52, 0
21, 758880, Note_on_c, 11, 50, 71
21, 759119, Note_on_c, 11, 50, 0
21, 759120, Note_on_c, 11, 57, 72
21, 759359, Note_on_c, 11, 57, 0
21, 759360, Note_on_c, 11, 57, 74
21, 759599, Note_on_c, 11, 57, 0
21, 759600, Note_on_c, 11, 55, 75
21, 759839, Note_on_c, 11, 55, 0
21, 759840, Note_on_c, 11, 55, 77
21, 760079, Note_on_c, 11, 55, 0
21, 760080, Note_on_c, 11, 54, 78
21, 760299, Note_on_c, 11, 54, 0
21, 760320, Note_on_c, 11, 57, 80
21, 760559, Note_on_c, 11, 57, 0
21, 760560, Note_on_c, 11, 57, 80
21, 760799, Note_on_c, 11, 57, 0
21, 760800, Note_on_c, 11, 59, 80
21, 761039, Note_on_c, 11, 59, 0
21, 761040, Note_on_c, 11, 57, 80
21, 761279, Note_on_c, 11, 57, 0
21, 761280, Note_on_c, 11, 62, 80
21, 761519, Note_on_c, 11, 62, 0
21, 761520, Note_on_c, 11, 61, 80
21, 761759, Note_on_c, 11, 61, 0
21, 761760, Note_on_c, 11, 66, 80
21, 761999, Note_on_c, 11, 66, 0
21, 762000, Note_on_c, 11, 64, 80
21, 762239, Note_on_c, 11, 64, 0
21, 762240, Note_on_c, 11, 69, 80
21, 762479, Note_on_c, 11, 69, 0
21, 762480, Note_on_c, 11, 67, 80
21, 762719, Note_on_c, 11, 67, 0
21, 762720, Note_on_c, 11, 67, 80
21, 762959, Note_on_c, 11, 67, 0
21, 765360, Note_on_c, 11, 66, 92
21, 765959, Note_on_c, 11, 66, 0
21, 765960, Note_on_c, 11, 66, 92
21, 766079, Note_on_c, 11, 66, 0
21, 766080, Note_on_c, 11, 66, 92
21, 766319, Note_on_c, 11, 66, 0
21, 766320, Note_on_c, 11, 62, 92
21, 766539, Note_on_c, 11, 62, 0
21, 766560, Note_on_c, 11, 62, 92
21, 766919, Note_on_c, 11, 62, 0
21, 766920, Note_on_c, 11, 62, 92
21, 767039, Note_on_c, 11, 62, 0
21, 767040, Note_on_c, 11, 62, 92
21, 767279, Note_on_c, 11, 62, 0
21, 767280, Note_on_c, 11, 59, 92
21, 767499, Note_on_c, 11, 59, 0
21, 767520, Note_on_c, 11, 59, 92
21, 767879, Note_on_c, 11, 59, 0
21, 767880, Note_on_c, 11, 59, 92
21, 767999, Note_on_c, 11, 59, 0
21, 768000, Note_on_c, 11, 59, 92
21, 768239, Note_on_c, 11, 59, 0
21, 768240, Note_on_c, 11, 55, 92
21, 768459, Note_on_c, 11, 55, 0
21, 768480, Note_on_c, 11, 64, 92
21, 768839, Note_on_c, 11, 64, 0
21, 768840, Note_on_c, 11, 64, 92
21, 768959, Note_on_c, 11, 64, 0
21, 768960, Control_c, 11, 11, 127
21, 768960, Note_on_c, 11, 64, 92
21, 768976, Control_c, 11, 11, 122
21, 768992, Control_c, 11, 11, 117
21, 769008, Control_c, 11, 11, 111
21, 769024, Control_c, 11, 11, 106
21, 769040, Control_c, 11, 11, 101
21, 769056, Control_c, 11, 11, 96
21, 769072, Control_c, 11, 11, 91
21, 769088, Control_c, 11, 11, 85
21, 769104, Control_c, 11, 11, 80
21, 769120, Control_c, 11, 11, 75
21, 769136, Control_c, 11, 11, 70
21, 769152, Control_c, 11, 11, 65
21, 769168, Control_c, 11, 11, 59
21, 769184, Control_c, 11, 11, 54
21, 769199, Note_on_c, 11, 64, 0
21, 769200, Note_on_c, 11, 64, 92
21, 769200, Control_c, 11, 11, 49
21, 769218, Control_c, 11, 11, 50
21, 769236, Control_c, 11, 11, 51
21, 769254, Control_c, 11, 11, 52
21, 769272, Control_c, 11, 11, 53
21, 769290, Control_c, 11, 11, 54
21, 769308, Control_c, 11, 11, 55
21, 769326, Control_c, 11, 11, 56
21, 769344, Control_c, 11, 11, 57
21, 769362, Control_c, 11, 11, 58
21, 769380, Control_c, 11, 11, 59
21, 769398, Control_c, 11, 11, 60
21, 769416, Control_c, 11, 11, 61
21, 769434, Control_c, 11, 11, 62
21, 769439, Note_on_c, 11, 64, 0
21, 769440, Note_on_c, 11, 64, 92
21, 769452, Control_c, 11, 11, 63
21, 769470, Control_c, 11, 11, 64
21, 769488, Control_c, 11, 11, 65
21, 769506, Control_c, 11, 11, 66
21, 769524, Control_c, 11, 11, 67
21, 769542, Control_c, 11, 11, 68
21, 769560, Control_c, 11, 11, 69
21, 769578, Control_c, 11, 11, 70
21, 769596, Control_c, 11, 11, 71
21, 769614, Control_c, 11, 11, 72
21, 769632, Control_c, 11, 11, 73
21, 769650, Control_c, 11, 11, 74
21, 769668, Control_c, 11, 11, 75
21, 769679, Note_on_c, 11, 64, 0
21, 769680, Note_on_c, 11, 64, 92
21, 769686, Control_c, 11, 11, 76
21, 769704, Control_c, 11, 11, 77
21, 769722, Control_c, 11, 11, 78
21, 769740, Control_c, 11, 11, 79
21, 769758, Control_c, 11, 11, 80
21, 769776, Control_c, 11, 11, 81
21, 769794, Control_c, 11, 11, 82
21, 769812, Control_c, 11, 11, 83
21, 769830, Control_c, 11, 11, 84
21, 769848, Control_c, 11, 11, 85
21, 769866, Control_c, 11, 11, 86
21, 769884, Control_c, 11, 11, 87
21, 769902, Control_c, 11, 11, 89
21, 769919, Note_on_c, 11, 64, 0
21, 769920, Control_c, 11, 11, 89
21, 769920, Note_on_c, 11, 64, 92
21, 769936, Control_c, 11, 11, 86
21, 769952, Control_c, 11, 11, 84
21, 769968, Control_c, 11, 11, 81
21, 769984, Control_c, 11, 11, 78
21, 770000, Control_c, 11, 11, 76
21, 770016, Control_c, 11, 11, 73
21, 770032, Control_c, 11, 11, 70
21, 770039, Note_on_c, 11, 64, 0
21, 770040, Note_on_c, 11, 62, 92
21, 770048, Control_c, 11, 11, 68
21, 770064, Control_c, 11, 11, 65
21, 770080, Control_c, 11, 11, 62
21, 770096, Control_c, 11, 11, 60
21, 770112, Control_c, 11, 11, 57
21, 770128, Control_c, 11, 11, 54
21, 770144, Control_c, 11, 11, 49
21, 770159, Note_on_c, 11, 62, 0
21, 770160, Note_on_c, 11, 62, 92
21, 770384, Note_on_c, 11, 62, 0
21, 770400, Note_on_c, 11, 62, 92
21, 770639, Note_on_c, 11, 62, 0
21, 770640, Note_on_c, 11, 62, 92
21, 770879, Note_on_c, 11, 62, 0
21, 770880, Note_on_c, 11, 59, 92
21, 771599, Note_on_c, 11, 59, 0
21, 771600, Note_on_c, 11, 59, 92
21, 771839, Note_on_c, 11, 59, 0
21, 771840, Note_on_c, 11, 57, 92
21, 772079, Note_on_c, 11, 57, 0
21, 772080, Note_on_c, 11, 57, 92
21, 772199, Note_on_c, 11, 57, 0
21, 772200, Note_on_c, 11, 62, 92
21, 772319, Note_on_c, 11, 62, 0
21, 772320, Note_on_c, 11, 62, 92
21, 772559, Note_on_c, 11, 62, 0
21, 772560, Note_on_c, 11, 61, 92
21, 773279, Note_on_c, 11, 61, 0
21, 775680, Control_c, 11, 11, 127
21, 776640, Note_on_c, 11, 61, 44
21, 776879, Note_on_c, 11, 61, 0
21, 776880, Note_on_c, 11, 61, 46
21, 777119, Note_on_c, 11, 61, 0
21, 777120, Note_on_c, 11, 62, 48
21, 777359, Note_on_c, 11, 62, 0
21, 777360, Note_on_c, 11, 62, 50
21, 777579, Note_on_c, 11, 62, 0
21, 777600, Note_on_c, 11, 64, 53
21, 777839, Note_on_c, 11, 64, 0
21, 777840, Note_on_c, 11, 64, 55
21, 778079, Note_on_c, 11, 64, 0
21, 778080, Note_on_c, 11, 62, 57
21, 778319, Note_on_c, 11, 62, 0
21, 778320, Note_on_c, 11, 62, 59
21, 778559, Note_on_c, 11, 62, 0
21, 778560, Note_on_c, 11, 57, 62
21, 779039, Note_on_c, 11, 57, 0
21, 779040, Note_on_c, 11, 57, 66
21, 779519, Note_on_c, 11, 57, 0
21, 779520, Note_on_c, 11, 66, 71
21, 779759, Note_on_c, 11, 66, 0
21, 779760, Note_on_c, 11, 64, 73
21, 779999, Note_on_c, 11, 64, 0
21, 780000, Note_on_c, 11, 64, 75
21, 780239, Note_on_c, 11, 64, 0
21, 780240, Note_on_c, 11, 62, 77
21, 780459, Note_on_c, 11, 62, 0
21, 780480, Note_on_c, 11, 57, 80
21, 780719, Note_on_c, 11, 57, 0
21, 780720, Note_on_c, 11, 57, 80
21, 780959, Note_on_c, 11, 57, 0
21, 780960, Note_on_c, 11, 59, 80
21, 781199, Note_on_c, 11, 59, 0
21, 781200, Note_on_c, 11, 57, 80
21, 781439, Note_on_c, 11, 57, 0
21, 781440, Note_on_c, 11, 62, 80
21, 781679, Note_on_c, 11, 62, 0
21, 781680, Note_on_c, 11, 61, 80
21, 781919, Note_on_c, 11, 61, 0
21, 781920, Note_on_c, 11, 66, 80
21, 782159, Note_on_c, 11, 66, 0
21, 782160, Note_on_c, 11, 64, 80
21, 782399, Note_on_c, 11, 64, 0
21, 782400, Note_on_c, 11, 69, 80
21, 782639, Note_on_c, 11, 69, 0
21, 782640, Note_on_c, 11, 67, 80
21, 782879, Note_on_c, 11, 67, 0
21, 782880, Note_on_c, 11, 67, 80
21, 783119, Note_on_c, 11, 67, 0
21, 785520, Note_on_c, 11, 66, 92
21, 786119, Note_on_c, 11, 66, 0
21, 786120, Note_on_c, 11, 66, 92
21, 786239, Note_on_c, 11, 66, 0
21, 786240, Note_on_c, 11, 66, 92
21, 786479, Note_on_c, 11, 66, 0
21, 786480, Note_on_c, 11, 62, 92
21, 786699, Note_on_c, 11, 62, 0
21, 786720, Note_on_c, 11, 62, 92
21, 787079, Note_on_c, 11, 62, 0
21, 787080, Note_on_c, 11, 62, 92
21, 787199, Note_on_c, 11, 62, 0
21, 787200, Note_on_c, 11, 62, 92
21, 787439, Note_on_c, 11, 62, 0
21, 787440, Note_on_c, 11, 59, 92
21, 787659, Note_on_c, 11, 59, 0
21, 787680, Note_on_c, 11, 59, 92
21, 788039, Note_on_c, 11, 59, 0
21, 788040, Note_on_c, 11, 59, 92
21, 788159, Note_on_c, 11, 59, 0
21, 788160, Note_on_c, 11, 59, 92
21, 788399, Note_on_c, 11, 59, 0
21, 788400, Note_on_c, 11, 55, 92
21, 788639, Note_on_c, 11, 55, 0
21, 789600, Note_on_c, 11, 64, 92
21, 789959, Note_on_c, 11, 64, 0
21, 789960, Note_on_c, 11, 64, 92
21, 790079, Note_on_c, 11, 64, 0
21, 790080, Note_on_c, 11, 64, 92
21, 790319, Note_on_c, 11, 64, 0
21, 790320, Note_on_c, 11, 52, 92
21, 790559, Note_on_c, 11, 52, 0
21, 812160, Note_on_c, 11, 62, 80
21, 812399, Note_on_c, 11, 62, 0
21, 812400, Note_on_c, 11, 62, 80
21, 812639, Note_on_c, 11, 62, 0
21, 812640, Note_on_c, 11, 61, 80
21, 812879, Note_on_c, 11, 61, 0
21, 812880, Note_on_c, 11, 57, 80
21, 813104, Note_on_c, 11, 57, 0
21, 813120, Note_on_c, 11, 64, 80
21, 813359, Note_on_c, 11, 64, 0
21, 813360, Note_on_c, 11, 64, 80
21, 813599, Note_on_c, 11, 64, 0
21, 813600, Note_on_c, 11, 63, 80
21, 813839, Note_on_c, 11, 63, 0
21, 813840, Note_on_c, 11, 59, 80
21, 814049, Note_on_c, 11, 59, 0
21, 814080, Note_on_c, 11, 64, 80
21, 814319, Note_on_c, 11, 64, 0
21, 814320, Note_on_c, 11, 66, 80
21, 814559, Note_on_c, 11, 66, 0
21, 814560, Note_on_c, 11, 67, 80
21, 814799, Note_on_c, 11, 67, 0
21, 814800, Note_on_c, 11, 56, 80
21, 815039, Note_on_c, 11, 56, 0
21, 815040, Note_on_c, 11, 57, 80
21, 815279, Note_on_c, 11, 57, 0
21, 815280, Note_on_c, 11, 56, 80
21, 815519, Note_on_c, 11, 56, 0
21, 815520, Note_on_c, 11, 57, 80
21, 815759, Note_on_c, 11, 57, 0
21, 816720, Note_on_c, 11, 56, 80
21, 816959, Note_on_c, 11, 56, 0
21, 816960, Note_on_c, 11, 57, 80
21, 817199, Note_on_c, 11, 57, 0
21, 817200, Note_on_c, 11, 56, 80
21, 817439, Note_on_c, 11, 56, 0
21, 817440, Note_on_c, 11, 57, 80
21, 820769, Note_on_c, 11, 57, 0
21, 820800, Note_on_c, 11, 64, 80
21, 821039, Note_on_c, 11, 64, 0
21, 821040, Note_on_c, 11, 64, 80
21, 821279, Note_on_c, 11, 64, 0
21, 821760, Note_on_c, 11, 64, 80
21, 822119, Note_on_c, 11, 64, 0
21, 822120, Note_on_c, 11, 66, 80
21, 822239, Note_on_c, 11, 66, 0
21, 822240, Note_on_c, 11, 64, 80
21, 822479, Note_on_c, 11, 64, 0
21, 822480, Note_on_c, 11, 62, 80
21, 822719, Note_on_c, 11, 62, 0
21, 822720, Note_on_c, 11, 64, 80
21, 823079, Note_on_c, 11, 64, 0
21, 823080, Note_on_c, 11, 66, 80
21, 823199, Note_on_c, 11, 66, 0
21, 823200, Note_on_c, 11, 64, 80
21, 823439, Note_on_c, 11, 64, 0
21, 823440, Note_on_c, 11, 62, 80
21, 823679, Note_on_c, 11, 62, 0
21, 823680, Note_on_c, 11, 64, 80
21, 824039, Note_on_c, 11, 64, 0
21, 824040, Note_on_c, 11, 66, 80
21, 824159, Note_on_c, 11, 66, 0
21, 824160, Note_on_c, 11, 64, 80
21, 824399, Note_on_c, 11, 64, 0
21, 824400, Note_on_c, 11, 62, 80
21, 824639, Note_on_c, 11, 62, 0
21, 824640, Note_on_c, 11, 64, 80
21, 824999, Note_on_c, 11, 64, 0
21, 825000, Note_on_c, 11, 66, 80
21, 825119, Note_on_c, 11, 66, 0
21, 825120, Note_on_c, 11, 64, 80
21, 825359, Note_on_c, 11, 64, 0
21, 825360, Note_on_c, 11, 62, 80
21, 825599, Note_on_c, 11, 62, 0
21, 825600, Note_on_c, 11, 61, 80
21, 826079, Note_on_c, 11, 61, 0
21, 826080, Note_on_c, 11, 62, 80
21, 826289, Note_on_c, 11, 62, 0
21, 826320, Note_on_c, 11, 62, 80
21, 826559, Note_on_c, 11, 62, 0
21, 826560, Note_on_c, 11, 59, 80
21, 827039, Note_on_c, 11, 59, 0
21, 827040, Note_on_c, 11, 59, 80
21, 827519, Note_on_c, 11, 59, 0
21, 827520, Note_on_c, 11, 57, 80
21, 827999, Note_on_c, 11, 57, 0
21, 828000, Note_on_c, 11, 57, 80
21, 828479, Note_on_c, 11, 57, 0
21, 828480, Note_on_c, 11, 57, 80
21, 829439, Note_on_c, 11, 57, 0
21, 829440, Note_on_c, 11, 59, 80
21, 829679, Note_on_c, 11, 59, 0
21, 829680, Note_on_c, 11, 61, 80
21, 829919, Note_on_c, 11, 61, 0
21, 829920, Note_on_c, 11, 64, 80
21, 830129, Note_on_c, 11, 64, 0
21, 830160, Note_on_c, 11, 62, 80
21, 830399, Note_on_c, 11, 62, 0
21, 830400, Note_on_c, 11, 59, 80
21, 830879, Note_on_c, 11, 59, 0
21, 830880, Note_on_c, 11, 59, 80
21, 831359, Note_on_c, 11, 59, 0
21, 831360, Note_on_c, 11, 57, 80
21, 831839, Note_on_c, 11, 57, 0
21, 831840, Note_on_c, 11, 57, 80
21, 832319, Note_on_c, 11, 57, 0
21, 832320, Note_on_c, 11, 62, 80
21, 832559, Note_on_c, 11, 62, 0
21, 832560, Note_on_c, 11, 62, 80
21, 832799, Note_on_c, 11, 62, 0
21, 833280, Note_on_c, 11, 66, 80
21, 833519, Note_on_c, 11, 66, 0
21, 833520, Note_on_c, 11, 66, 80
21, 833759, Note_on_c, 11, 66, 0
21, 833760, Note_on_c, 11, 64, 80
21, 833999, Note_on_c, 11, 64, 0
21, 834000, Note_on_c, 11, 61, 80
21, 834239, Note_on_c, 11, 61, 0
21, 835200, Note_on_c, 11, 64, 80
21, 835439, Note_on_c, 11, 64, 0
21, 835440, Note_on_c, 11, 64, 80
21, 835679, Note_on_c, 11, 64, 0
21, 835680, Note_on_c, 11, 63, 80
21, 835919, Note_on_c, 11, 63, 0
21, 835920, Note_on_c, 11, 59, 80
21, 836129, Note_on_c, 11, 59, 0
21, 836160, Note_on_c, 11, 66, 92
21, 836639, Note_on_c, 11, 66, 0
21, 836640, Note_on_c, 11, 66, 92
21, 837119, Note_on_c, 11, 66, 0
21, 837120, Note_on_c, 11, 66, 92
21, 837599, Note_on_c, 11, 66, 0
21, 837600, Note_on_c, 11, 66, 92
21, 838079, Note_on_c, 11, 66, 0
21, 838080, Note_on_c, 11, 66, 92
21, 838559, Note_on_c, 11, 66, 0
21, 838560, Note_on_c, 11, 66, 92
21, 839039, Note_on_c, 11, 66, 0
21, 839040, Note_on_c, 11, 64, 92
21, 839489, Note_on_c, 11, 64, 0
21, 839520, Note_on_c, 11, 64, 92
21, 839999, Note_on_c, 11, 64, 0
21, 840000, Note_on_c, 11, 64, 92
21, 840479, Note_on_c, 11, 64, 0
21, 840480, Note_on_c, 11, 64, 92
21, 840959, Note_on_c, 11, 64, 0
21, 840960, Note_on_c, 11, 65, 92
21, 841409, Note_on_c, 11, 65, 0
21, 841440, Note_on_c, 11, 62, 92
21, 841919, Note_on_c, 11, 62, 0
21, 841920, Note_on_c, 11, 61, 92
21, 842399, Note_on_c, 11, 61, 0
21, 842400, Note_on_c, 11, 57, 92
21, 842879, Note_on_c, 11, 57, 0
21, 842880, Note_on_c, 11, 66, 92
21, 843329, Note_on_c, 11, 66, 0
21, 843360, Note_on_c, 11, 66, 104
21, 843440, Control_c, 11, 11, 107
21, 844319, Note_on_c, 11, 66, 0
21, 844320, Note_on_c, 11, 66, 104
21, 844799, Note_on_c, 11, 66, 0
21, 844800, Note_on_c, 11, 66, 104
21, 845279, Note_on_c, 11, 66, 0
21, 845280, Note_on_c, 11, 66, 104
21, 845759, Note_on_c, 11, 66, 0
21, 845760, Note_on_c, 11, 66, 104
21, 846239, Note_on_c, 11, 66, 0
21, 846240, Note_on_c, 11, 66, 104
21, 846719, Note_on_c, 11, 66, 0
21, 846720, Note_on_c, 11, 64, 104
21, 847169, Note_on_c, 11, 64, 0
21, 847198, Control_c, 11, 11, 127
21, 847200, Note_on_c, 11, 64, 80
21, 847679, Note_on_c, 11, 64, 0
21, 847680, Note_on_c, 11, 64, 80
21, 848159, Note_on_c, 11, 64, 0
21, 848160, Note_on_c, 11, 64, 80
21, 848639, Note_on_c, 11, 64, 0
21, 848640, Note_on_c, 11, 65, 92
21, 849089, Note_on_c, 11, 65, 0
21, 849120, Note_on_c, 11, 62, 92
21, 849599, Note_on_c, 11, 62, 0
21, 849600, Note_on_c, 11, 69, 92
21, 850079, Note_on_c, 11, 69, 0
21, 850080, Note_on_c, 11, 64, 92
21, 850529, Note_on_c, 11, 64, 0
21, 850560, Note_on_c, 11, 62, 92
21, 851039, Note_on_c, 11, 62, 0
21, 851040, Note_on_c, 11, 59, 92
21, 851279, Note_on_c, 11, 59, 0
21, 851280, Note_on_c, 11, 67, 92
21, 851519, Note_on_c, 11, 67, 0
21, 851520, Note_on_c, 11, 64, 92
21, 851759, Note_on_c, 11, 64, 0
21, 851760, Note_on_c, 11, 61, 92
21, 851999, Note_on_c, 11, 61, 0
21, 852000, Note_on_c, 11, 57, 92
21, 852239, Note_on_c, 11, 57, 0
21, 852240, Note_on_c, 11, 55, 92
21, 852479, Note_on_c, 11, 55, 0
21, 852480, Note_on_c, 11, 52, 92
21, 852719, Note_on_c, 11, 52, 0
21, 852720, Note_on_c, 11, 61, 92
21, 852959, Note_on_c, 11, 61, 0
21, 852960, Note_on_c, 11, 57, 92
21, 853199, Note_on_c, 11, 57, 0
21, 853200, Note_on_c, 11, 64, 92
21, 853439, Note_on_c, 11, 64, 0
21, 853440, Note_on_c, 11, 66, 92
21, 853919, Note_on_c, 11, 66, 0
21, 853920, Note_on_c, 11, 57, 92
21, 854399, Note_on_c, 11, 57, 0
21, 854400, Note_on_c, 11, 62, 92
21, 854609, Note_on_c, 11, 62, 0
21, 854640, Note_on_c, 11, 62, 92
21, 854879, Note_on_c, 11, 62, 0
21, 854880, Note_on_c, 11, 59, 92
21, 855119, Note_on_c, 11, 59, 0
21, 855120, Note_on_c, 11, 67, 92
21, 855359, Note_on_c, 11, 67, 0
21, 855360, Note_on_c, 11, 64, 92
21, 855599, Note_on_c, 11, 64, 0
21, 855600, Note_on_c, 11, 61, 92
21, 855839, Note_on_c, 11, 61, 0
21, 855840, Note_on_c, 11, 57, 92
21, 856079, Note_on_c, 11, 57, 0
21, 856080, Note_on_c, 11, 55, 92
21, 856319, Note_on_c, 11, 55, 0
21, 856320, Note_on_c, 11, 52, 92
21, 856559, Note_on_c, 11, 52, 0
21, 856560, Note_on_c, 11, 61, 92
21, 856799, Note_on_c, 11, 61, 0
21, 856800, Note_on_c, 11, 57, 92
21, 857039, Note_on_c, 11, 57, 0
21, 857040, Note_on_c, 11, 67, 92
21, 857279, Note_on_c, 11, 67, 0
21, 857280, Note_on_c, 11, 69, 92
21, 857759, Note_on_c, 11, 69, 0
21, 857760, Note_on_c, 11, 57, 92
21, 858239, Note_on_c, 11, 57, 0
21, 858240, Note_on_c, 11, 62, 92
21, 858719, Note_on_c, 11, 62, 0
21, 859200, Note_on_c, 11, 59, 92
21, 859439, Note_on_c, 11, 59, 0
21, 859440, Note_on_c, 11, 59, 92
21, 859679, Note_on_c, 11, 59, 0
21, 860160, Note_on_c, 11, 67, 92
21, 860399, Note_on_c, 11, 67, 0
21, 860400, Note_on_c, 11, 67, 92
21, 860624, Note_on_c, 11, 67, 0
21, 860640, Note_on_c, 11, 64, 92
21, 860879, Note_on_c, 11, 64, 0
21, 860880, Note_on_c, 11, 64, 92
21, 861119, Note_on_c, 11, 64, 0
21, 861120, Note_on_c, 11, 69, 92
21, 861839, Note_on_c, 11, 69, 0
21, 861840, Note_on_c, 11, 69, 92
21, 862079, Note_on_c, 11, 69, 0
21, 862080, Note_on_c, 11, 69, 92
21, 862319, Note_on_c, 11, 69, 0
21, 862320, Note_on_c, 11, 62, 92
21, 862559, Note_on_c, 11, 62, 0
21, 864480, Note_on_c, 11, 69, 92
21, 864719, Note_on_c, 11, 69, 0
21, 864720, Note_on_c, 11, 69, 92
21, 864959, Note_on_c, 11, 69, 0
21, 864960, Note_on_c, 11, 69, 92
21, 866639, Note_on_c, 11, 69, 0
21, 866640, Note_on_c, 11, 69, 92
21, 866879, Note_on_c, 11, 69, 0
21, 866880, Note_on_c, 11, 69, 92
21, 867119, Note_on_c, 11, 69, 0
21, 867120, Note_on_c, 11, 62, 92
21, 867359, Note_on_c, 11, 62, 0
21, 870240, Note_on_c, 11, 64, 92
21, 871079, Note_on_c, 11, 64, 0
21, 871080, Note_on_c, 11, 64, 92
21, 871199, Note_on_c, 11, 64, 0
21, 871200, Note_on_c, 11, 64, 92
21, 871379, Note_on_c, 11, 64, 0
21, 871380, Note_on_c, 11, 64, 44
21, 871439, Note_on_c, 11, 64, 0
21, 871440, Note_on_c, 11, 64, 44
21, 871619, Note_on_c, 11, 64, 0
21, 871620, Note_on_c, 11, 64, 44
21, 871679, Note_on_c, 11, 64, 0
21, 871680, Note_on_c, 11, 64, 44
21, 871919, Note_on_c, 11, 64, 0
21, 872160, Note_on_c, 11, 62, 80
21, 872339, Note_on_c, 11, 62, 0
21, 872340, Note_on_c, 11, 62, 80
21, 872379, Note_on_c, 11, 62, 0
21, 872400, Note_on_c, 11, 62, 92
21, 872460, Control_c, 11, 11, 107
21, 872759, Note_on_c, 11, 62, 0
21, 872760, Note_on_c, 11, 61, 80
21, 872875, Note_on_c, 11, 61, 0
21, 872878, Control_c, 11, 11, 127
21, 872880, Note_on_c, 11, 69, 92
21, 873059, Note_on_c, 11, 69, 0
21, 873060, Note_on_c, 11, 69, 92
21, 873119, Note_on_c, 11, 69, 0
21, 873120, Note_on_c, 11, 69, 92
21, 873239, Note_on_c, 11, 69, 0
21, 873240, Note_on_c, 11, 62, 92
21, 873344, Note_on_c, 11, 62, 0
21, 873360, Note_on_c, 11, 69, 92
21, 873539, Note_on_c, 11, 69, 0
21, 873540, Note_on_c, 11, 69, 92
21, 873599, Note_on_c, 11, 69, 0
21, 873600, Note_on_c, 11, 69, 92
21, 874079, Note_on_c, 11, 69, 0
21, 874080, Note_on_c, 11, 62, 92
21, 874319, Note_on_c, 11, 62, 0
21, 874319, End_track
22, 0, Start_track
22, 0, Title_t, "Bass"
22, 0, MIDI_port, 0
22, 0, Program_c, 11, 70
22, 0, Control_c, 11, 7, 120
22, 0, Control_c, 11, 11, 127
22, 0, Control_c, 11, 10, 64
22, 199200, Note_on_c, 11, 57, 80
22, 199439, Note_on_c, 11, 57, 0
22, 199440, Note_on_c, 11, 57, 80
22, 199679, Note_on_c, 11, 57, 0
22, 201120, Note_on_c, 11, 57, 80
22, 201359, Note_on_c, 11, 57, 0
22, 201360, Note_on_c, 11, 57, 80
22, 201599, Note_on_c, 11, 57, 0
22, 216960, Note_on_c, 11, 52, 80
22, 217199, Note_on_c, 11, 52, 0
22, 217200, Note_on_c, 11, 52, 80
22, 217439, Note_on_c, 11, 52, 0
22, 217440, Note_on_c, 11, 54, 80
22, 217679, Note_on_c, 11, 54, 0
22, 217680, Note_on_c, 11, 50, 80
22, 217919, Note_on_c, 11, 50, 0
22, 217920, Note_on_c, 11, 52, 80
22, 218159, Note_on_c, 11, 52, 0
22, 218160, Note_on_c, 11, 54, 80
22, 218279, Note_on_c, 11, 54, 0
22, 218280, Note_on_c, 11, 55, 80
22, 218399, Note_on_c, 11, 55, 0
22, 218400, Note_on_c, 11, 54, 80
22, 218639, Note_on_c, 11, 54, 0
22, 218640, Note_on_c, 11, 50, 80
22, 218864, Note_on_c, 11, 50, 0
22, 218880, Note_on_c, 11, 52, 80
22, 219119, Note_on_c, 11, 52, 0
22, 219120, Note_on_c, 11, 54, 80
22, 219239, Note_on_c, 11, 54, 0
22, 219240, Note_on_c, 11, 55, 80
22, 219359, Note_on_c, 11, 55, 0
22, 219360, Note_on_c, 11, 54, 80
22, 219599, Note_on_c, 11, 54, 0
22, 219600, Note_on_c, 11, 52, 80
22, 219839, Note_on_c, 11, 52, 0
22, 219840, Note_on_c, 11, 50, 80
22, 220079, Note_on_c, 11, 50, 0
22, 220080, Note_on_c, 11, 52, 80
22, 220319, Note_on_c, 11, 52, 0
22, 220320, Note_on_c, 11, 45, 80
22, 220529, Note_on_c, 11, 45, 0
22, 220560, Note_on_c, 11, 54, 80
22, 221039, Note_on_c, 11, 54, 0
22, 221040, Note_on_c, 11, 54, 80
22, 221279, Note_on_c, 11, 54, 0
22, 221280, Note_on_c, 11, 55, 80
22, 221519, Note_on_c, 11, 55, 0
22, 221520, Note_on_c, 11, 57, 80
22, 221759, Note_on_c, 11, 57, 0
22, 221760, Note_on_c, 11, 57, 80
22, 221999, Note_on_c, 11, 57, 0
22, 222000, Note_on_c, 11, 55, 80
22, 222239, Note_on_c, 11, 55, 0
22, 222240, Note_on_c, 11, 54, 80
22, 222479, Note_on_c, 11, 54, 0
22, 222480, Note_on_c, 11, 55, 80
22, 222599, Note_on_c, 11, 55, 0
22, 222600, Note_on_c, 11, 52, 80
22, 222704, Note_on_c, 11, 52, 0
22, 222720, Note_on_c, 11, 50, 80
22, 222959, Note_on_c, 11, 50, 0
22, 222960, Note_on_c, 11, 50, 80
22, 223199, Note_on_c, 11, 50, 0
22, 223200, Note_on_c, 11, 52, 80
22, 223439, Note_on_c, 11, 52, 0
22, 223440, Note_on_c, 11, 54, 80
22, 223679, Note_on_c, 11, 54, 0
22, 223680, Note_on_c, 11, 52, 80
22, 224039, Note_on_c, 11, 52, 0
22, 224040, Note_on_c, 11, 50, 80
22, 224159, Note_on_c, 11, 50, 0
22, 224160, Note_on_c, 11, 50, 80
22, 224639, Note_on_c, 11, 50, 0
22, 243600, Note_on_c, 11, 57, 80
22, 244049, Note_on_c, 11, 57, 0
22, 244080, Note_on_c, 11, 45, 80
22, 244319, Note_on_c, 11, 45, 0
22, 244320, Note_on_c, 11, 57, 80
22, 244559, Note_on_c, 11, 57, 0
22, 244560, Note_on_c, 11, 57, 80
22, 244799, Note_on_c, 11, 57, 0
22, 244800, Note_on_c, 11, 57, 80
22, 245039, Note_on_c, 11, 57, 0
22, 245040, Note_on_c, 11, 45, 80
22, 245279, Note_on_c, 11, 45, 0
22, 245280, Note_on_c, 11, 57, 80
22, 245519, Note_on_c, 11, 57, 0
22, 245520, Note_on_c, 11, 57, 80
22, 245759, Note_on_c, 11, 57, 0
22, 245760, Note_on_c, 11, 57, 80
22, 245999, Note_on_c, 11, 57, 0
22, 246000, Note_on_c, 11, 57, 80
22, 246239, Note_on_c, 11, 57, 0
22, 246240, Note_on_c, 11, 58, 80
22, 246479, Note_on_c, 11, 58, 0
22, 246480, Note_on_c, 11, 54, 80
22, 246719, Note_on_c, 11, 54, 0
22, 246720, Note_on_c, 11, 59, 80
22, 246959, Note_on_c, 11, 59, 0
22, 246960, Note_on_c, 11, 52, 80
22, 247199, Note_on_c, 11, 52, 0
22, 247200, Note_on_c, 11, 57, 80
22, 247409, Note_on_c, 11, 57, 0
22, 247440, Note_on_c, 11, 45, 80
22, 247679, Note_on_c, 11, 45, 0
22, 247680, Note_on_c, 11, 50, 80
22, 247919, Note_on_c, 11, 50, 0
22, 247920, Note_on_c, 11, 50, 80
22, 248159, Note_on_c, 11, 50, 0
22, 248160, Note_on_c, 11, 50, 92
22, 248399, Note_on_c, 11, 50, 0
22, 248400, Note_on_c, 11, 49, 80
22, 248519, Note_on_c, 11, 49, 0
22, 248520, Note_on_c, 11, 47, 80
22, 248639, Note_on_c, 11, 47, 0
22, 248640, Note_on_c, 11, 45, 80
22, 248759, Note_on_c, 11, 45, 0
22, 248760, Note_on_c, 11, 47, 80
22, 248864, Note_on_c, 11, 47, 0
22, 248880, Note_on_c, 11, 49, 80
22, 248999, Note_on_c, 11, 49, 0
22, 249000, Note_on_c, 11, 50, 74
22, 249119, Note_on_c, 11, 50, 0
22, 249120, Note_on_c, 11, 52, 68
22, 249239, Note_on_c, 11, 52, 0
22, 249240, Note_on_c, 11, 54, 62
22, 249359, Note_on_c, 11, 54, 0
22, 249360, Note_on_c, 11, 55, 56
22, 249479, Note_on_c, 11, 55, 0
22, 249480, Note_on_c, 11, 52, 50
22, 249599, Note_on_c, 11, 52, 0
22, 249600, Note_on_c, 11, 54, 44
22, 249839, Note_on_c, 11, 54, 0
22, 249840, Note_on_c, 11, 54, 44
22, 250079, Note_on_c, 11, 54, 0
22, 250080, Note_on_c, 11, 50, 44
22, 250319, Note_on_c, 11, 50, 0
22, 250320, Note_on_c, 11, 50, 44
22, 250559, Note_on_c, 11, 50, 0
22, 250560, Note_on_c, 11, 57, 44
22, 250799, Note_on_c, 11, 57, 0
22, 250800, Note_on_c, 11, 45, 44
22, 251039, Note_on_c, 11, 45, 0
22, 251040, Note_on_c, 11, 50, 44
22, 251519, Note_on_c, 11, 50, 0
22, 270720, Note_on_c, 11, 57, 80
22, 270959, Note_on_c, 11, 57, 0
22, 270960, Note_on_c, 11, 57, 80
22, 271199, Note_on_c, 11, 57, 0
22, 271200, Note_on_c, 11, 57, 80
22, 271439, Note_on_c, 11, 57, 0
22, 271440, Note_on_c, 11, 57, 80
22, 271679, Note_on_c, 11, 57, 0
22, 271680, Note_on_c, 11, 57, 80
22, 271919, Note_on_c, 11, 57, 0
22, 271920, Note_on_c, 11, 57, 80
22, 272159, Note_on_c, 11, 57, 0
22, 272160, Note_on_c, 11, 57, 80
22, 272399, Note_on_c, 11, 57, 0
22, 272400, Note_on_c, 11, 57, 80
22, 272624, Note_on_c, 11, 57, 0
22, 272640, Note_on_c, 11, 57, 80
22, 272879, Note_on_c, 11, 57, 0
22, 272880, Note_on_c, 11, 45, 80
22, 273119, Note_on_c, 11, 45, 0
22, 273120, Note_on_c, 11, 45, 80
22, 273359, Note_on_c, 11, 45, 0
22, 273360, Note_on_c, 11, 45, 80
22, 273599, Note_on_c, 11, 45, 0
22, 273600, Note_on_c, 11, 45, 80
22, 273839, Note_on_c, 11, 45, 0
22, 273840, Note_on_c, 11, 45, 80
22, 274079, Note_on_c, 11, 45, 0
22, 274080, Note_on_c, 11, 45, 80
22, 274289, Note_on_c, 11, 45, 0
22, 274320, Note_on_c, 11, 45, 80
22, 274559, Note_on_c, 11, 45, 0
22, 274560, Note_on_c, 11, 50, 80
22, 274799, Note_on_c, 11, 50, 0
22, 274800, Note_on_c, 11, 50, 80
22, 275039, Note_on_c, 11, 50, 0
22, 275040, Note_on_c, 11, 50, 80
22, 275279, Note_on_c, 11, 50, 0
22, 275280, Note_on_c, 11, 50, 80
22, 275519, Note_on_c, 11, 50, 0
22, 275520, Note_on_c, 11, 50, 80
22, 275759, Note_on_c, 11, 50, 0
22, 275760, Note_on_c, 11, 50, 80
22, 275999, Note_on_c, 11, 50, 0
22, 276000, Note_on_c, 11, 50, 80
22, 276239, Note_on_c, 11, 50, 0
22, 276240, Note_on_c, 11, 50, 80
22, 276464, Note_on_c, 11, 50, 0
22, 276480, Note_on_c, 11, 50, 80
22, 276719, Note_on_c, 11, 50, 0
22, 276720, Note_on_c, 11, 50, 80
22, 276959, Note_on_c, 11, 50, 0
22, 276960, Note_on_c, 11, 62, 92
22, 277319, Note_on_c, 11, 62, 0
22, 277320, Note_on_c, 11, 62, 92
22, 277439, Note_on_c, 11, 62, 0
22, 277440, Note_on_c, 11, 62, 92
22, 277559, Note_on_c, 11, 62, 0
22, 277560, Note_on_c, 11, 57, 92
22, 277799, Note_on_c, 11, 57, 0
22, 277800, Note_on_c, 11, 62, 92
22, 277919, Note_on_c, 11, 62, 0
22, 277920, Note_on_c, 11, 62, 92
22, 278369, Note_on_c, 11, 62, 0
22, 278400, Note_on_c, 11, 62, 80
22, 278759, Note_on_c, 11, 62, 0
22, 278880, Note_on_c, 11, 62, 80
22, 279239, Note_on_c, 11, 62, 0
22, 279360, Note_on_c, 11, 55, 80
22, 279719, Note_on_c, 11, 55, 0
22, 279840, Note_on_c, 11, 55, 80
22, 280199, Note_on_c, 11, 55, 0
22, 280320, Note_on_c, 11, 57, 80
22, 280679, Note_on_c, 11, 57, 0
22, 280800, Note_on_c, 11, 57, 80
22, 281159, Note_on_c, 11, 57, 0
22, 281280, Note_on_c, 11, 62, 80
22, 282209, Note_on_c, 11, 62, 0
22, 282240, Note_on_c, 11, 52, 80
22, 282599, Note_on_c, 11, 52, 0
22, 282720, Note_on_c, 11, 52, 80
22, 283079, Note_on_c, 11, 52, 0
22, 283200, Note_on_c, 11, 57, 92
22, 284159, Note_on_c, 11, 57, 0
22, 284640, Note_on_c, 11, 52, 92
22, 284999, Note_on_c, 11, 52, 0
22, 285120, Note_on_c, 11, 57, 92
22, 286079, Note_on_c, 11, 57, 0
22, 286560, Note_on_c, 11, 57, 92
22, 286919, Note_on_c, 11, 57, 0
22, 287040, Note_on_c, 11, 53, 92
22, 288959, Note_on_c, 11, 53, 0
22, 346560, Note_on_c, 11, 53, 68
22, 346799, Note_on_c, 11, 53, 0
22, 346920, Note_on_c, 11, 53, 68
22, 347159, Note_on_c, 11, 53, 0
22, 347280, Note_on_c, 11, 53, 68
22, 347639, Note_on_c, 11, 53, 0
22, 347640, Note_on_c, 11, 53, 68
22, 347984, Note_on_c, 11, 53, 0
22, 348000, Note_on_c, 11, 48, 68
22, 348359, Note_on_c, 11, 48, 0
22, 348360, Note_on_c, 11, 48, 68
22, 348719, Note_on_c, 11, 48, 0
22, 348720, Note_on_c, 11, 51, 68
22, 349079, Note_on_c, 11, 51, 0
22, 349080, Note_on_c, 11, 50, 68
22, 349319, Note_on_c, 11, 50, 0
22, 349320, Note_on_c, 11, 48, 68
22, 349409, Note_on_c, 11, 48, 0
22, 349440, Note_on_c, 11, 58, 68
22, 349799, Note_on_c, 11, 58, 0
22, 349800, Note_on_c, 11, 46, 68
22, 350039, Note_on_c, 11, 46, 0
22, 350160, Note_on_c, 11, 56, 68
22, 350519, Note_on_c, 11, 56, 0
22, 350520, Note_on_c, 11, 44, 68
22, 350759, Note_on_c, 11, 44, 0
22, 350880, Note_on_c, 11, 55, 68
22, 351119, Note_on_c, 11, 55, 0
22, 351240, Note_on_c, 11, 55, 68
22, 351479, Note_on_c, 11, 55, 0
22, 351480, Note_on_c, 11, 53, 68
22, 351599, Note_on_c, 11, 53, 0
22, 351600, Note_on_c, 11, 51, 68
22, 351959, Note_on_c, 11, 51, 0
22, 351960, Note_on_c, 11, 52, 68
22, 352199, Note_on_c, 11, 52, 0
22, 352320, Note_on_c, 11, 53, 68
22, 352559, Note_on_c, 11, 53, 0
22, 352680, Note_on_c, 11, 53, 68
22, 352919, Note_on_c, 11, 53, 0
22, 353040, Note_on_c, 11, 53, 68
22, 354119, Note_on_c, 11, 53, 0
22, 354120, Note_on_c, 11, 53, 68
22, 354479, Note_on_c, 11, 53, 0
22, 354480, Note_on_c, 11, 58, 68
22, 354719, Note_on_c, 11, 58, 0
22, 354720, Note_on_c, 11, 53, 68
22, 354839, Note_on_c, 11, 53, 0
22, 354840, Note_on_c, 11, 53, 68
22, 355079, Note_on_c, 11, 53, 0
22, 355920, Note_on_c, 11, 58, 92
22, 356040, Control_c, 11, 11, 107
22, 356279, Note_on_c, 11, 58, 0
22, 356280, Note_on_c, 11, 58, 92
22, 356519, Note_on_c, 11, 58, 0
22, 356638, Control_c, 11, 11, 127
22, 357360, Note_on_c, 11, 63, 92
22, 357480, Control_c, 11, 11, 107
22, 357719, Note_on_c, 11, 63, 0
22, 357720, Note_on_c, 11, 51, 92
22, 357959, Note_on_c, 11, 51, 0
22, 358078, Control_c, 11, 11, 127
22, 358080, Note_on_c, 11, 53, 80
22, 358439, Note_on_c, 11, 53, 0
22, 358440, Note_on_c, 11, 53, 80
22, 358799, Note_on_c, 11, 53, 0
22, 358800, Note_on_c, 11, 53, 92
22, 358920, Control_c, 11, 11, 107
22, 359875, Note_on_c, 11, 53, 0
22, 359878, Control_c, 11, 11, 127
22, 359880, Note_on_c, 11, 53, 80
22, 360239, Note_on_c, 11, 53, 0
22, 360240, Note_on_c, 11, 53, 92
22, 360360, Control_c, 11, 11, 107
22, 361319, Note_on_c, 11, 53, 0
22, 361320, Note_on_c, 11, 46, 92
22, 361559, Note_on_c, 11, 46, 0
22, 440880, Control_c, 11, 11, 127
22, 441600, Note_on_c, 11, 62, 80
22, 441959, Note_on_c, 11, 62, 0
22, 441960, Note_on_c, 11, 62, 80
22, 442304, Note_on_c, 11, 62, 0
22, 442320, Note_on_c, 11, 62, 80
22, 442679, Note_on_c, 11, 62, 0
22, 442680, Note_on_c, 11, 62, 80
22, 443039, Note_on_c, 11, 62, 0
22, 443040, Note_on_c, 11, 57, 80
22, 443399, Note_on_c, 11, 57, 0
22, 443400, Note_on_c, 11, 57, 80
22, 443759, Note_on_c, 11, 57, 0
22, 443760, Note_on_c, 11, 57, 80
22, 444119, Note_on_c, 11, 57, 0
22, 444120, Note_on_c, 11, 59, 80
22, 444359, Note_on_c, 11, 59, 0
22, 444360, Note_on_c, 11, 61, 80
22, 444464, Note_on_c, 11, 61, 0
22, 444480, Note_on_c, 11, 62, 80
22, 444839, Note_on_c, 11, 62, 0
22, 444840, Note_on_c, 11, 57, 80
22, 445199, Note_on_c, 11, 57, 0
22, 445200, Note_on_c, 11, 57, 80
22, 445559, Note_on_c, 11, 57, 0
22, 445560, Note_on_c, 11, 57, 80
22, 445919, Note_on_c, 11, 57, 0
22, 445920, Note_on_c, 11, 57, 92
22, 446519, Note_on_c, 11, 57, 0
22, 446520, Note_on_c, 11, 57, 92
22, 446639, Note_on_c, 11, 57, 0
22, 446640, Note_on_c, 11, 57, 92
22, 446879, Note_on_c, 11, 57, 0
22, 447360, Note_on_c, 11, 62, 80
22, 447719, Note_on_c, 11, 62, 0
22, 447720, Note_on_c, 11, 62, 80
22, 448079, Note_on_c, 11, 62, 0
22, 448080, Note_on_c, 11, 62, 80
22, 448439, Note_on_c, 11, 62, 0
22, 448440, Note_on_c, 11, 62, 80
22, 448799, Note_on_c, 11, 62, 0
22, 448800, Note_on_c, 11, 55, 92
22, 449159, Note_on_c, 11, 55, 0
22, 449160, Note_on_c, 11, 55, 92
22, 449519, Note_on_c, 11, 55, 0
22, 449520, Note_on_c, 11, 55, 92
22, 449879, Note_on_c, 11, 55, 0
22, 449880, Note_on_c, 11, 55, 92
22, 450224, Note_on_c, 11, 55, 0
22, 450240, Note_on_c, 11, 57, 80
22, 450599, Note_on_c, 11, 57, 0
22, 450600, Note_on_c, 11, 57, 80
22, 450959, Note_on_c, 11, 57, 0
22, 450960, Note_on_c, 11, 57, 80
22, 451304, Note_on_c, 11, 57, 0
22, 451320, Note_on_c, 11, 57, 80
22, 451679, Note_on_c, 11, 57, 0
22, 451680, Note_on_c, 11, 57, 92
22, 452279, Note_on_c, 11, 57, 0
22, 452280, Note_on_c, 11, 57, 92
22, 452399, Note_on_c, 11, 57, 0
22, 452400, Note_on_c, 11, 50, 92
22, 452639, Note_on_c, 11, 50, 0
22, 453120, Note_on_c, 11, 57, 80
22, 453479, Note_on_c, 11, 57, 0
22, 453480, Note_on_c, 11, 57, 80
22, 453839, Note_on_c, 11, 57, 0
22, 453840, Note_on_c, 11, 57, 80
22, 454199, Note_on_c, 11, 57, 0
22, 454200, Note_on_c, 11, 57, 80
22, 454559, Note_on_c, 11, 57, 0
22, 454560, Note_on_c, 11, 57, 80
22, 454919, Note_on_c, 11, 57, 0
22, 454920, Note_on_c, 11, 57, 80
22, 455279, Note_on_c, 11, 57, 0
22, 455280, Note_on_c, 11, 57, 80
22, 455639, Note_on_c, 11, 57, 0
22, 455640, Note_on_c, 11, 57, 80
22, 455984, Note_on_c, 11, 57, 0
22, 456000, Note_on_c, 11, 57, 80
22, 456359, Note_on_c, 11, 57, 0
22, 456360, Note_on_c, 11, 57, 80
22, 456719, Note_on_c, 11, 57, 0
22, 456720, Note_on_c, 11, 58, 80
22, 457079, Note_on_c, 11, 58, 0
22, 457080, Note_on_c, 11, 54, 80
22, 457439, Note_on_c, 11, 54, 0
22, 457440, Note_on_c, 11, 59, 80
22, 457799, Note_on_c, 11, 59, 0
22, 457800, Note_on_c, 11, 52, 80
22, 458159, Note_on_c, 11, 52, 0
22, 458160, Note_on_c, 11, 57, 80
22, 458489, Note_on_c, 11, 57, 0
22, 458520, Note_on_c, 11, 57, 92
22, 458879, Note_on_c, 11, 57, 0
22, 458880, Note_on_c, 11, 62, 92
22, 459239, Note_on_c, 11, 62, 0
22, 459240, Note_on_c, 11, 62, 92
22, 459599, Note_on_c, 11, 62, 0
22, 459600, Note_on_c, 11, 62, 92
22, 459959, Note_on_c, 11, 62, 0
22, 459960, Note_on_c, 11, 62, 92
22, 460319, Note_on_c, 11, 62, 0
22, 460320, Note_on_c, 11, 55, 92
22, 460679, Note_on_c, 11, 55, 0
22, 460680, Note_on_c, 11, 55, 92
22, 461039, Note_on_c, 11, 55, 0
22, 461040, Note_on_c, 11, 55, 104
22, 461399, Note_on_c, 11, 55, 0
22, 461400, Note_on_c, 11, 55, 104
22, 461744, Note_on_c, 11, 55, 0
22, 461760, Note_on_c, 11, 57, 92
22, 462119, Note_on_c, 11, 57, 0
22, 462120, Note_on_c, 11, 57, 92
22, 462479, Note_on_c, 11, 57, 0
22, 462480, Note_on_c, 11, 57, 92
22, 462839, Note_on_c, 11, 57, 0
22, 462840, Note_on_c, 11, 57, 92
22, 463199, Note_on_c, 11, 57, 0
22, 463200, Note_on_c, 11, 57, 92
22, 463799, Note_on_c, 11, 57, 0
22, 463800, Note_on_c, 11, 57, 92
22, 463919, Note_on_c, 11, 57, 0
22, 463920, Note_on_c, 11, 50, 92
22, 464279, Note_on_c, 11, 50, 0
22, 464640, Note_on_c, 11, 57, 92
22, 464999, Note_on_c, 11, 57, 0
22, 465000, Note_on_c, 11, 57, 92
22, 465359, Note_on_c, 11, 57, 0
22, 465360, Note_on_c, 11, 57, 92
22, 465719, Note_on_c, 11, 57, 0
22, 465720, Note_on_c, 11, 57, 92
22, 466079, Note_on_c, 11, 57, 0
22, 466080, Note_on_c, 11, 57, 92
22, 466439, Note_on_c, 11, 57, 0
22, 466440, Note_on_c, 11, 57, 92
22, 466799, Note_on_c, 11, 57, 0
22, 466800, Note_on_c, 11, 57, 92
22, 467159, Note_on_c, 11, 57, 0
22, 467160, Note_on_c, 11, 57, 92
22, 467504, Note_on_c, 11, 57, 0
22, 467520, Note_on_c, 11, 57, 92
22, 467879, Note_on_c, 11, 57, 0
22, 467880, Note_on_c, 11, 57, 92
22, 468239, Note_on_c, 11, 57, 0
22, 468240, Note_on_c, 11, 58, 92
22, 468599, Note_on_c, 11, 58, 0
22, 468600, Note_on_c, 11, 54, 92
22, 468959, Note_on_c, 11, 54, 0
22, 468960, Note_on_c, 11, 59, 92
22, 469319, Note_on_c, 11, 59, 0
22, 469320, Note_on_c, 11, 52, 92
22, 469679, Note_on_c, 11, 52, 0
22, 469680, Note_on_c, 11, 57, 92
22, 470009, Note_on_c, 11, 57, 0
22, 470040, Note_on_c, 11, 57, 92
22, 470399, Note_on_c, 11, 57, 0
22, 470400, Note_on_c, 11, 62, 92
22, 470759, Note_on_c, 11, 62, 0
22, 470760, Note_on_c, 11, 62, 92
22, 471119, Note_on_c, 11, 62, 0
22, 471120, Note_on_c, 11, 62, 92
22, 471479, Note_on_c, 11, 62, 0
22, 471480, Note_on_c, 11, 62, 92
22, 471839, Note_on_c, 11, 62, 0
22, 471840, Note_on_c, 11, 55, 92
22, 472199, Note_on_c, 11, 55, 0
22, 472200, Note_on_c, 11, 55, 92
22, 472559, Note_on_c, 11, 55, 0
22, 472560, Note_on_c, 11, 55, 104
22, 472919, Note_on_c, 11, 55, 0
22, 472920, Note_on_c, 11, 55, 104
22, 473264, Note_on_c, 11, 55, 0
22, 473280, Note_on_c, 11, 57, 104
22, 473639, Note_on_c, 11, 57, 0
22, 473640, Note_on_c, 11, 57, 104
22, 473999, Note_on_c, 11, 57, 0
22, 474000, Note_on_c, 11, 57, 104
22, 474359, Note_on_c, 11, 57, 0
22, 474360, Note_on_c, 11, 57, 104
22, 474719, Note_on_c, 11, 57, 0
22, 474720, Note_on_c, 11, 57, 104
22, 475319, Note_on_c, 11, 57, 0
22, 475320, Note_on_c, 11, 57, 104
22, 475439, Note_on_c, 11, 57, 0
22, 475440, Note_on_c, 11, 50, 104
22, 475799, Note_on_c, 11, 50, 0
22, 480480, Note_on_c, 11, 55, 92
22, 481439, Note_on_c, 11, 55, 0
22, 481440, Note_on_c, 11, 55, 92
22, 481799, Note_on_c, 11, 55, 0
22, 481920, Note_on_c, 11, 54, 92
22, 482279, Note_on_c, 11, 54, 0
22, 482400, Note_on_c, 11, 50, 92
22, 482759, Note_on_c, 11, 50, 0
22, 482880, Note_on_c, 11, 64, 92
22, 484319, Note_on_c, 11, 64, 0
22, 484320, Note_on_c, 11, 64, 92
22, 484679, Note_on_c, 11, 64, 0
22, 484800, Note_on_c, 11, 62, 92
22, 485159, Note_on_c, 11, 62, 0
22, 485280, Note_on_c, 11, 59, 92
22, 485639, Note_on_c, 11, 59, 0
22, 486240, Note_on_c, 11, 60, 92
22, 487199, Note_on_c, 11, 60, 0
22, 487200, Note_on_c, 11, 60, 92
22, 487679, Note_on_c, 11, 60, 0
22, 487680, Note_on_c, 11, 59, 92
22, 488159, Note_on_c, 11, 59, 0
22, 488160, Note_on_c, 11, 55, 92
22, 489119, Note_on_c, 11, 55, 0
22, 489120, Note_on_c, 11, 64, 92
22, 490079, Note_on_c, 11, 64, 0
22, 490080, Note_on_c, 11, 64, 92
22, 490559, Note_on_c, 11, 64, 0
22, 490560, Note_on_c, 11, 62, 92
22, 491999, Note_on_c, 11, 62, 0
22, 492480, Note_on_c, 11, 55, 80
22, 492839, Note_on_c, 11, 55, 0
22, 492960, Note_on_c, 11, 59, 80
22, 493319, Note_on_c, 11, 59, 0
22, 493440, Note_on_c, 11, 62, 80
22, 493799, Note_on_c, 11, 62, 0
22, 493920, Note_on_c, 11, 50, 80
22, 494279, Note_on_c, 11, 50, 0
22, 494400, Note_on_c, 11, 50, 80
22, 495359, Note_on_c, 11, 50, 0
22, 495360, Note_on_c, 11, 48, 80
22, 495839, Note_on_c, 11, 48, 0
22, 495840, Note_on_c, 11, 60, 80
22, 496319, Note_on_c, 11, 60, 0
22, 496320, Note_on_c, 11, 59, 80
22, 496799, Note_on_c, 11, 59, 0
22, 496800, Note_on_c, 11, 55, 80
22, 497279, Note_on_c, 11, 55, 0
22, 497760, Note_on_c, 11, 57, 92
22, 497839, Note_on_c, 11, 57, 0
22, 497840, Note_on_c, 11, 57, 80
22, 498719, Note_on_c, 11, 57, 0
22, 498720, Note_on_c, 11, 57, 80
22, 499199, Note_on_c, 11, 57, 0
22, 499200, Note_on_c, 11, 59, 80
22, 499679, Note_on_c, 11, 59, 0
22, 499680, Note_on_c, 11, 60, 92
22, 499759, Note_on_c, 11, 60, 0
22, 499760, Note_on_c, 11, 60, 80
22, 500639, Note_on_c, 11, 60, 0
22, 500640, Note_on_c, 11, 60, 92
22, 501599, Note_on_c, 11, 60, 0
22, 501600, Note_on_c, 11, 60, 92
22, 502079, Note_on_c, 11, 60, 0
22, 502080, Note_on_c, 11, 62, 92
22, 503479, Note_on_c, 11, 62, 0
22, 503520, Note_on_c, 11, 60, 92
22, 503999, Note_on_c, 11, 60, 0
22, 504000, Note_on_c, 11, 62, 92
22, 504719, Note_on_c, 11, 62, 0
22, 504720, Note_on_c, 11, 60, 92
22, 504959, Note_on_c, 11, 60, 0
22, 505440, Note_on_c, 11, 65, 92
22, 506159, Note_on_c, 11, 65, 0
22, 506160, Note_on_c, 11, 65, 92
22, 506399, Note_on_c, 11, 65, 0
22, 506400, Note_on_c, 11, 65, 92
22, 507359, Note_on_c, 11, 65, 0
22, 507360, Note_on_c, 11, 65, 92
22, 507839, Note_on_c, 11, 65, 0
22, 507840, Note_on_c, 11, 65, 92
22, 508799, Note_on_c, 11, 65, 0
22, 509280, Note_on_c, 11, 62, 92
22, 510239, Note_on_c, 11, 62, 0
22, 510240, Note_on_c, 11, 60, 92
22, 510719, Note_on_c, 11, 60, 0
22, 510720, Note_on_c, 11, 60, 92
22, 511199, Note_on_c, 11, 60, 0
22, 511200, Note_on_c, 11, 57, 92
22, 511679, Note_on_c, 11, 57, 0
22, 511680, Note_on_c, 11, 55, 92
22, 512159, Note_on_c, 11, 55, 0
22, 512160, Note_on_c, 11, 65, 104
22, 513119, Note_on_c, 11, 65, 0
22, 513120, Note_on_c, 11, 64, 104
22, 513599, Note_on_c, 11, 64, 0
22, 513600, Note_on_c, 11, 64, 104
22, 513959, Note_on_c, 11, 64, 0
22, 514080, Note_on_c, 11, 62, 104
22, 514439, Note_on_c, 11, 62, 0
22, 515040, Note_on_c, 11, 53, 92
22, 516239, Note_on_c, 11, 53, 0
22, 516240, Note_on_c, 11, 53, 92
22, 516479, Note_on_c, 11, 53, 0
22, 516720, Note_on_c, 11, 57, 92
22, 516959, Note_on_c, 11, 57, 0
22, 516960, Note_on_c, 11, 58, 92
22, 517679, Note_on_c, 11, 58, 0
22, 517680, Note_on_c, 11, 58, 92
22, 517919, Note_on_c, 11, 58, 0
22, 517920, Note_on_c, 11, 58, 92
22, 518879, Note_on_c, 11, 58, 0
22, 518880, Note_on_c, 11, 58, 92
22, 519359, Note_on_c, 11, 58, 0
22, 519360, Note_on_c, 11, 58, 92
22, 519839, Note_on_c, 11, 58, 0
22, 519840, Note_on_c, 11, 58, 104
22, 519919, Note_on_c, 11, 58, 0
22, 519920, Note_on_c, 11, 58, 92
22, 521279, Note_on_c, 11, 58, 0
22, 521280, Note_on_c, 11, 58, 92
22, 521759, Note_on_c, 11, 58, 0
22, 521760, Note_on_c, 11, 60, 92
22, 522239, Note_on_c, 11, 60, 0
22, 522240, Note_on_c, 11, 60, 92
22, 523199, Note_on_c, 11, 60, 0
22, 523200, Note_on_c, 11, 60, 92
22, 523679, Note_on_c, 11, 60, 0
22, 523680, Note_on_c, 11, 60, 92
22, 524399, Note_on_c, 11, 60, 0
22, 524400, Note_on_c, 11, 62, 92
22, 524639, Note_on_c, 11, 62, 0
22, 524640, Note_on_c, 11, 64, 92
22, 524879, Note_on_c, 11, 64, 0
22, 524880, Note_on_c, 11, 65, 92
22, 525119, Note_on_c, 11, 65, 0
22, 525120, Note_on_c, 11, 55, 92
22, 525599, Note_on_c, 11, 55, 0
22, 525600, Note_on_c, 11, 55, 92
22, 526079, Note_on_c, 11, 55, 0
22, 531840, Control_c, 11, 11, 89
22, 532320, Note_on_c, 11, 55, 68
22, 533519, Note_on_c, 11, 55, 0
22, 533520, Note_on_c, 11, 55, 68
22, 533759, Note_on_c, 11, 55, 0
22, 533760, Note_on_c, 11, 48, 68
22, 534119, Note_on_c, 11, 48, 0
22, 534240, Note_on_c, 11, 48, 68
22, 534599, Note_on_c, 11, 48, 0
22, 535200, Note_on_c, 11, 45, 68
22, 536399, Note_on_c, 11, 45, 0
22, 536400, Note_on_c, 11, 43, 68
22, 536639, Note_on_c, 11, 43, 0
22, 536640, Note_on_c, 11, 50, 68
22, 536999, Note_on_c, 11, 50, 0
22, 537120, Note_on_c, 11, 62, 68
22, 537479, Note_on_c, 11, 62, 0
22, 538080, Note_on_c, 11, 55, 92
22, 539039, Note_on_c, 11, 55, 0
22, 539040, Note_on_c, 11, 55, 92
22, 539519, Note_on_c, 11, 55, 0
22, 539520, Note_on_c, 11, 53, 92
22, 540479, Note_on_c, 11, 53, 0
22, 540480, Note_on_c, 11, 53, 92
22, 540959, Note_on_c, 11, 53, 0
22, 540960, Note_on_c, 11, 46, 92
22, 541439, Note_on_c, 11, 46, 0
22, 541440, Note_on_c, 11, 58, 92
22, 541919, Note_on_c, 11, 58, 0
22, 542400, Note_on_c, 11, 60, 92
22, 543359, Note_on_c, 11, 60, 0
22, 543840, Note_on_c, 11, 48, 80
22, 544799, Note_on_c, 11, 48, 0
22, 544800, Note_on_c, 11, 48, 80
22, 545279, Note_on_c, 11, 48, 0
22, 545280, Note_on_c, 11, 60, 80
22, 546239, Note_on_c, 11, 60, 0
22, 546240, Note_on_c, 11, 60, 80
22, 546719, Note_on_c, 11, 60, 0
22, 546720, Note_on_c, 11, 60, 80
22, 547199, Note_on_c, 11, 60, 0
22, 547200, Note_on_c, 11, 53, 80
22, 547679, Note_on_c, 11, 53, 0
22, 547680, Note_on_c, 11, 65, 80
22, 548159, Note_on_c, 11, 65, 0
22, 548160, Note_on_c, 11, 62, 80
22, 549599, Note_on_c, 11, 62, 0
22, 550080, Note_on_c, 11, 63, 92
22, 550799, Note_on_c, 11, 63, 0
22, 550800, Note_on_c, 11, 63, 92
22, 551039, Note_on_c, 11, 63, 0
22, 551040, Note_on_c, 11, 63, 92
22, 551999, Note_on_c, 11, 63, 0
22, 552000, Note_on_c, 11, 63, 92
22, 552479, Note_on_c, 11, 63, 0
22, 552480, Note_on_c, 11, 63, 92
22, 552959, Note_on_c, 11, 63, 0
22, 552960, Note_on_c, 11, 63, 92
22, 553919, Note_on_c, 11, 63, 0
22, 553920, Note_on_c, 11, 63, 104
22, 554879, Note_on_c, 11, 63, 0
22, 554880, Note_on_c, 11, 63, 104
22, 555359, Note_on_c, 11, 63, 0
22, 561600, Note_on_c, 11, 57, 32
22, 562319, Note_on_c, 11, 57, 0
22, 562320, Note_on_c, 11, 57, 32
22, 562559, Note_on_c, 11, 57, 0
22, 562560, Note_on_c, 11, 57, 32
22, 563519, Note_on_c, 11, 57, 0
22, 563520, Note_on_c, 11, 57, 32
22, 563999, Note_on_c, 11, 57, 0
22, 564000, Note_on_c, 11, 57, 32
22, 564479, Note_on_c, 11, 57, 0
22, 564480, Note_on_c, 11, 57, 32
22, 565439, Note_on_c, 11, 57, 0
22, 565440, Note_on_c, 11, 57, 32
22, 566399, Note_on_c, 11, 57, 0
22, 566400, Note_on_c, 11, 57, 32
22, 566879, Note_on_c, 11, 57, 0
22, 579840, Note_on_c, 11, 61, 80
22, 580319, Note_on_c, 11, 61, 0
22, 580320, Note_on_c, 11, 61, 80
22, 580544, Note_on_c, 11, 61, 0
22, 580560, Note_on_c, 11, 62, 80
22, 581039, Note_on_c, 11, 62, 0
22, 581040, Note_on_c, 11, 64, 80
22, 581279, Note_on_c, 11, 64, 0
22, 581280, Note_on_c, 11, 64, 80
22, 581759, Note_on_c, 11, 64, 0
22, 581760, Note_on_c, 11, 62, 80
22, 581999, Note_on_c, 11, 62, 0
22, 582000, Note_on_c, 11, 61, 80
22, 582479, Note_on_c, 11, 61, 0
22, 582480, Note_on_c, 11, 59, 80
22, 582704, Note_on_c, 11, 59, 0
22, 582720, Note_on_c, 11, 57, 80
22, 583199, Note_on_c, 11, 57, 0
22, 583200, Note_on_c, 11, 57, 80
22, 583439, Note_on_c, 11, 57, 0
22, 583440, Note_on_c, 11, 59, 80
22, 583919, Note_on_c, 11, 59, 0
22, 583920, Note_on_c, 11, 61, 80
22, 584159, Note_on_c, 11, 61, 0
22, 584160, Note_on_c, 11, 61, 80
22, 584639, Note_on_c, 11, 61, 0
22, 584640, Note_on_c, 11, 59, 80
22, 584879, Note_on_c, 11, 59, 0
22, 584880, Note_on_c, 11, 57, 80
22, 585359, Note_on_c, 11, 57, 0
22, 585360, Note_on_c, 11, 55, 80
22, 585569, Note_on_c, 11, 55, 0
22, 585600, Note_on_c, 11, 54, 80
22, 586079, Note_on_c, 11, 54, 0
22, 586080, Note_on_c, 11, 54, 80
22, 586319, Note_on_c, 11, 54, 0
22, 586320, Note_on_c, 11, 56, 80
22, 586799, Note_on_c, 11, 56, 0
22, 586800, Note_on_c, 11, 57, 80
22, 587039, Note_on_c, 11, 57, 0
22, 587040, Note_on_c, 11, 57, 80
22, 587519, Note_on_c, 11, 57, 0
22, 587520, Note_on_c, 11, 55, 80
22, 587759, Note_on_c, 11, 55, 0
22, 587760, Note_on_c, 11, 54, 80
22, 588239, Note_on_c, 11, 54, 0
22, 588240, Note_on_c, 11, 52, 80
22, 588464, Note_on_c, 11, 52, 0
22, 588480, Note_on_c, 11, 50, 80
22, 588959, Note_on_c, 11, 50, 0
22, 588960, Note_on_c, 11, 49, 80
22, 589199, Note_on_c, 11, 49, 0
22, 589200, Note_on_c, 11, 47, 80
22, 589664, Note_on_c, 11, 47, 0
22, 589680, Note_on_c, 11, 45, 80
22, 589919, Note_on_c, 11, 45, 0
22, 589920, Note_on_c, 11, 50, 80
22, 590399, Note_on_c, 11, 50, 0
22, 590400, Note_on_c, 11, 50, 80
22, 590639, Note_on_c, 11, 50, 0
22, 590640, Note_on_c, 11, 50, 80
22, 591089, Note_on_c, 11, 50, 0
22, 591120, Note_on_c, 11, 62, 92
22, 592079, Note_on_c, 11, 62, 0
22, 592080, Note_on_c, 11, 62, 92
22, 592799, Note_on_c, 11, 62, 0
22, 592800, Note_on_c, 11, 61, 92
22, 593519, Note_on_c, 11, 61, 0
22, 593520, Note_on_c, 11, 57, 92
22, 594224, Note_on_c, 11, 57, 0
22, 594240, Note_on_c, 11, 59, 92
22, 594959, Note_on_c, 11, 59, 0
22, 594960, Note_on_c, 11, 59, 92
22, 595679, Note_on_c, 11, 59, 0
22, 595680, Note_on_c, 11, 57, 92
22, 596399, Note_on_c, 11, 57, 0
22, 596400, Note_on_c, 11, 54, 92
22, 597089, Note_on_c, 11, 54, 0
22, 597120, Note_on_c, 11, 55, 92
22, 597839, Note_on_c, 11, 55, 0
22, 597840, Note_on_c, 11, 55, 92
22, 598559, Note_on_c, 11, 55, 0
22, 598560, Note_on_c, 11, 54, 92
22, 599279, Note_on_c, 11, 54, 0
22, 599280, Note_on_c, 11, 50, 92
22, 599999, Note_on_c, 11, 50, 0
22, 600000, Note_on_c, 11, 59, 92
22, 600719, Note_on_c, 11, 59, 0
22, 600720, Note_on_c, 11, 59, 92
22, 601439, Note_on_c, 11, 59, 0
22, 601440, Note_on_c, 11, 57, 92
22, 601919, Note_on_c, 11, 57, 0
22, 601920, Note_on_c, 11, 61, 92
22, 602639, Note_on_c, 11, 61, 0
22, 602640, Note_on_c, 11, 59, 92
22, 602879, Note_on_c, 11, 59, 0
22, 602880, Note_on_c, 11, 57, 92
22, 603599, Note_on_c, 11, 57, 0
22, 603600, Note_on_c, 11, 59, 92
22, 604079, Note_on_c, 11, 59, 0
22, 604080, Note_on_c, 11, 61, 92
22, 604319, Note_on_c, 11, 61, 0
22, 604320, Note_on_c, 11, 52, 92
22, 606239, Note_on_c, 11, 52, 0
22, 606240, Note_on_c, 11, 50, 92
22, 606479, Note_on_c, 11, 50, 0
22, 606480, Note_on_c, 11, 62, 92
22, 606959, Note_on_c, 11, 62, 0
22, 606960, Note_on_c, 11, 57, 92
22, 608639, Note_on_c, 11, 57, 0
22, 608640, Note_on_c, 11, 59, 92
22, 609359, Note_on_c, 11, 59, 0
22, 609360, Note_on_c, 11, 52, 92
22, 610079, Note_on_c, 11, 52, 0
22, 610080, Note_on_c, 11, 54, 92
22, 610559, Note_on_c, 11, 54, 0
22, 610560, Note_on_c, 11, 64, 92
22, 610799, Note_on_c, 11, 64, 0
22, 610800, Note_on_c, 11, 62, 92
22, 611279, Note_on_c, 11, 62, 0
22, 611280, Note_on_c, 11, 61, 92
22, 611489, Note_on_c, 11, 61, 0
22, 611520, Note_on_c, 11, 59, 92
22, 611759, Note_on_c, 11, 59, 0
22, 611760, Note_on_c, 11, 57, 92
22, 612239, Note_on_c, 11, 57, 0
22, 612240, Note_on_c, 11, 57, 92
22, 612959, Note_on_c, 11, 57, 0
22, 612960, Note_on_c, 11, 58, 92
22, 613679, Note_on_c, 11, 58, 0
22, 613680, Note_on_c, 11, 54, 92
22, 614399, Note_on_c, 11, 54, 0
22, 614400, Note_on_c, 11, 64, 92
22, 615119, Note_on_c, 11, 64, 0
22, 615120, Note_on_c, 11, 64, 92
22, 615839, Note_on_c, 11, 64, 0
22, 615840, Note_on_c, 11, 63, 92
22, 616559, Note_on_c, 11, 63, 0
22, 617280, Note_on_c, 11, 59, 92
22, 617999, Note_on_c, 11, 59, 0
22, 618000, Note_on_c, 11, 59, 92
22, 618719, Note_on_c, 11, 59, 0
22, 618720, Note_on_c, 11, 59, 92
22, 619439, Note_on_c, 11, 59, 0
22, 619440, Note_on_c, 11, 52, 92
22, 620159, Note_on_c, 11, 52, 0
22, 620160, Note_on_c, 11, 62, 92
22, 620879, Note_on_c, 11, 62, 0
22, 620880, Note_on_c, 11, 61, 92
22, 621599, Note_on_c, 11, 61, 0
22, 621600, Note_on_c, 11, 62, 92
22, 622319, Note_on_c, 11, 62, 0
22, 624480, Note_on_c, 11, 57, 92
22, 624959, Note_on_c, 11, 57, 0
22, 624960, Note_on_c, 11, 57, 92
22, 625199, Note_on_c, 11, 57, 0
22, 627360, Note_on_c, 11, 62, 92
22, 627839, Note_on_c, 11, 62, 0
22, 627840, Note_on_c, 11, 57, 92
22, 628079, Note_on_c, 11, 57, 0
22, 629520, Note_on_c, 11, 52, 92
22, 629999, Note_on_c, 11, 52, 0
22, 630000, Note_on_c, 11, 52, 92
22, 630239, Note_on_c, 11, 52, 0
22, 630240, Note_on_c, 11, 47, 92
22, 630719, Note_on_c, 11, 47, 0
22, 630720, Note_on_c, 11, 47, 92
22, 630959, Note_on_c, 11, 47, 0
22, 630960, Note_on_c, 11, 49, 92
22, 631439, Note_on_c, 11, 49, 0
22, 631440, Note_on_c, 11, 50, 92
22, 631679, Note_on_c, 11, 50, 0
22, 631680, Note_on_c, 11, 52, 92
22, 632159, Note_on_c, 11, 52, 0
22, 632160, Note_on_c, 11, 54, 92
22, 632399, Note_on_c, 11, 54, 0
22, 632400, Note_on_c, 11, 56, 92
22, 632879, Note_on_c, 11, 56, 0
22, 632880, Note_on_c, 11, 52, 92
22, 633119, Note_on_c, 11, 52, 0
22, 633120, Note_on_c, 11, 59, 92
22, 633599, Note_on_c, 11, 59, 0
22, 633600, Note_on_c, 11, 57, 92
22, 633839, Note_on_c, 11, 57, 0
22, 633840, Note_on_c, 11, 59, 92
22, 634319, Note_on_c, 11, 59, 0
22, 634320, Note_on_c, 11, 61, 92
22, 634559, Note_on_c, 11, 61, 0
22, 636720, Note_on_c, 11, 59, 92
22, 638159, Note_on_c, 11, 59, 0
22, 638160, Note_on_c, 11, 59, 92
22, 638879, Note_on_c, 11, 59, 0
22, 638880, Note_on_c, 11, 58, 92
22, 639599, Note_on_c, 11, 58, 0
22, 639600, Note_on_c, 11, 54, 92
22, 640289, Note_on_c, 11, 54, 0
22, 640320, Note_on_c, 11, 62, 92
22, 641039, Note_on_c, 11, 62, 0
22, 641040, Note_on_c, 11, 59, 92
22, 641759, Note_on_c, 11, 59, 0
22, 641760, Note_on_c, 11, 61, 92
22, 642479, Note_on_c, 11, 61, 0
22, 642480, Note_on_c, 11, 61, 92
22, 643199, Note_on_c, 11, 61, 0
22, 643200, Note_on_c, 11, 54, 92
22, 643919, Note_on_c, 11, 54, 0
22, 643920, Note_on_c, 11, 54, 92
22, 644639, Note_on_c, 11, 54, 0
22, 644640, Note_on_c, 11, 59, 92
22, 645359, Note_on_c, 11, 59, 0
22, 646080, Note_on_c, 11, 50, 92
22, 646559, Note_on_c, 11, 50, 0
22, 646560, Note_on_c, 11, 50, 92
22, 646784, Note_on_c, 11, 50, 0
22, 646800, Note_on_c, 11, 52, 92
22, 647279, Note_on_c, 11, 52, 0
22, 647280, Note_on_c, 11, 54, 92
22, 647519, Note_on_c, 11, 54, 0
22, 647520, Note_on_c, 11, 54, 92
22, 647999, Note_on_c, 11, 54, 0
22, 648000, Note_on_c, 11, 52, 92
22, 648239, Note_on_c, 11, 52, 0
22, 648240, Note_on_c, 11, 50, 92
22, 648719, Note_on_c, 11, 50, 0
22, 648720, Note_on_c, 11, 49, 92
22, 648944, Note_on_c, 11, 49, 0
22, 648960, Note_on_c, 11, 49, 92
22, 649439, Note_on_c, 11, 49, 0
22, 649440, Note_on_c, 11, 49, 92
22, 649679, Note_on_c, 11, 49, 0
22, 649680, Note_on_c, 11, 51, 92
22, 650159, Note_on_c, 11, 51, 0
22, 650160, Note_on_c, 11, 52, 92
22, 650399, Note_on_c, 11, 52, 0
22, 650400, Note_on_c, 11, 54, 92
22, 650879, Note_on_c, 11, 54, 0
22, 650880, Note_on_c, 11, 51, 92
22, 651119, Note_on_c, 11, 51, 0
22, 651120, Note_on_c, 11, 49, 92
22, 651599, Note_on_c, 11, 49, 0
22, 651600, Note_on_c, 11, 47, 92
22, 651809, Note_on_c, 11, 47, 0
22, 651840, Note_on_c, 11, 54, 92
22, 652319, Note_on_c, 11, 54, 0
22, 652320, Note_on_c, 11, 54, 92
22, 652559, Note_on_c, 11, 54, 0
22, 652560, Note_on_c, 11, 56, 92
22, 653039, Note_on_c, 11, 56, 0
22, 653040, Note_on_c, 11, 57, 92
22, 653279, Note_on_c, 11, 57, 0
22, 653280, Note_on_c, 11, 57, 92
22, 653759, Note_on_c, 11, 57, 0
22, 653760, Note_on_c, 11, 56, 92
22, 653999, Note_on_c, 11, 56, 0
22, 654000, Note_on_c, 11, 54, 92
22, 654479, Note_on_c, 11, 54, 0
22, 654480, Note_on_c, 11, 52, 92
22, 654704, Note_on_c, 11, 52, 0
22, 654720, Note_on_c, 11, 59, 92
22, 655199, Note_on_c, 11, 59, 0
22, 655200, Note_on_c, 11, 59, 92
22, 655439, Note_on_c, 11, 59, 0
22, 655440, Note_on_c, 11, 64, 92
22, 655904, Note_on_c, 11, 64, 0
22, 655920, Note_on_c, 11, 62, 92
22, 656159, Note_on_c, 11, 62, 0
22, 656160, Note_on_c, 11, 62, 92
22, 656639, Note_on_c, 11, 62, 0
22, 656640, Note_on_c, 11, 61, 92
22, 656879, Note_on_c, 11, 61, 0
22, 656880, Note_on_c, 11, 59, 92
22, 657359, Note_on_c, 11, 59, 0
22, 657360, Note_on_c, 11, 61, 92
22, 657599, Note_on_c, 11, 61, 0
22, 657600, Note_on_c, 11, 59, 92
22, 658079, Note_on_c, 11, 59, 0
22, 658080, Note_on_c, 11, 57, 92
22, 658319, Note_on_c, 11, 57, 0
22, 661200, Note_on_c, 11, 62, 92
22, 662639, Note_on_c, 11, 62, 0
22, 662640, Note_on_c, 11, 62, 92
22, 663359, Note_on_c, 11, 62, 0
22, 663360, Note_on_c, 11, 61, 92
22, 664079, Note_on_c, 11, 61, 0
22, 664080, Note_on_c, 11, 57, 92
22, 664784, Note_on_c, 11, 57, 0
22, 664800, Note_on_c, 11, 59, 92
22, 665519, Note_on_c, 11, 59, 0
22, 665520, Note_on_c, 11, 59, 92
22, 666239, Note_on_c, 11, 59, 0
22, 666240, Note_on_c, 11, 57, 92
22, 666959, Note_on_c, 11, 57, 0
22, 666960, Note_on_c, 11, 54, 92
22, 667649, Note_on_c, 11, 54, 0
22, 667680, Note_on_c, 11, 55, 92
22, 668399, Note_on_c, 11, 55, 0
22, 668400, Note_on_c, 11, 55, 92
22, 669119, Note_on_c, 11, 55, 0
22, 669120, Note_on_c, 11, 54, 92
22, 669839, Note_on_c, 11, 54, 0
22, 669840, Note_on_c, 11, 62, 92
22, 670559, Note_on_c, 11, 62, 0
22, 670560, Note_on_c, 11, 64, 92
22, 671279, Note_on_c, 11, 64, 0
22, 671280, Note_on_c, 11, 64, 92
22, 671999, Note_on_c, 11, 64, 0
22, 672000, Note_on_c, 11, 64, 92
22, 674159, Note_on_c, 11, 64, 0
22, 674160, Note_on_c, 11, 64, 92
22, 674879, Note_on_c, 11, 64, 0
22, 674880, Note_on_c, 11, 62, 92
22, 676289, Note_on_c, 11, 62, 0
22, 676320, Note_on_c, 11, 54, 44
22, 676799, Note_on_c, 11, 54, 0
22, 677520, Note_on_c, 11, 54, 44
22, 677759, Note_on_c, 11, 54, 0
22, 677760, Note_on_c, 11, 48, 44
22, 678239, Note_on_c, 11, 48, 0
22, 678960, Note_on_c, 11, 48, 44
22, 679184, Note_on_c, 11, 48, 0
22, 679200, Note_on_c, 11, 57, 44
22, 679679, Note_on_c, 11, 57, 0
22, 680400, Note_on_c, 11, 57, 44
22, 680639, Note_on_c, 11, 57, 0
22, 680640, Note_on_c, 11, 58, 44
22, 681119, Note_on_c, 11, 58, 0
22, 681840, Note_on_c, 11, 58, 44
22, 682079, Note_on_c, 11, 58, 0
22, 693600, Note_on_c, 11, 46, 80
22, 694079, Note_on_c, 11, 46, 0
22, 694800, Note_on_c, 11, 46, 80
22, 695039, Note_on_c, 11, 46, 0
22, 695040, Note_on_c, 11, 55, 80
22, 695519, Note_on_c, 11, 55, 0
22, 696240, Note_on_c, 11, 55, 80
22, 696479, Note_on_c, 11, 55, 0
22, 696480, Note_on_c, 11, 56, 80
22, 696959, Note_on_c, 11, 56, 0
22, 697680, Note_on_c, 11, 56, 80
22, 697919, Note_on_c, 11, 56, 0
22, 697920, Note_on_c, 11, 57, 80
22, 698609, Note_on_c, 11, 57, 0
22, 698640, Note_on_c, 11, 57, 92
22, 700079, Note_on_c, 11, 57, 0
22, 700080, Note_on_c, 11, 57, 92
22, 700799, Note_on_c, 11, 57, 0
22, 702240, Note_on_c, 11, 57, 80
22, 702959, Note_on_c, 11, 57, 0
22, 702960, Note_on_c, 11, 57, 80
22, 703679, Note_on_c, 11, 57, 0
22, 704400, Note_on_c, 11, 57, 80
22, 705839, Note_on_c, 11, 57, 0
22, 705840, Note_on_c, 11, 57, 80
22, 706559, Note_on_c, 11, 57, 0
22, 706560, Note_on_c, 11, 57, 80
22, 708719, Note_on_c, 11, 57, 0
22, 708720, Note_on_c, 11, 57, 80
22, 709439, Note_on_c, 11, 57, 0
22, 709440, Note_on_c, 11, 57, 80
22, 710159, Note_on_c, 11, 57, 0
22, 710160, Note_on_c, 11, 57, 80
22, 711599, Note_on_c, 11, 57, 0
22, 711600, Note_on_c, 11, 57, 80
22, 712319, Note_on_c, 11, 57, 0
22, 712320, Note_on_c, 11, 57, 80
22, 713039, Note_on_c, 11, 57, 0
22, 713040, Note_on_c, 11, 57, 80
22, 713759, Note_on_c, 11, 57, 0
22, 713760, Note_on_c, 11, 57, 80
22, 714479, Note_on_c, 11, 57, 0
22, 714480, Note_on_c, 11, 57, 80
22, 715199, Note_on_c, 11, 57, 0
22, 715200, Note_on_c, 11, 57, 80
22, 715919, Note_on_c, 11, 57, 0
22, 715920, Note_on_c, 11, 57, 80
22, 716609, Note_on_c, 11, 57, 0
22, 716640, Note_on_c, 11, 57, 80
22, 717359, Note_on_c, 11, 57, 0
22, 717360, Note_on_c, 11, 50, 80
22, 718079, Note_on_c, 11, 50, 0
22, 718080, Note_on_c, 11, 55, 80
22, 718799, Note_on_c, 11, 55, 0
22, 718800, Note_on_c, 11, 55, 80
22, 719519, Note_on_c, 11, 55, 0
22, 719520, Note_on_c, 11, 55, 74
22, 720239, Note_on_c, 11, 55, 0
22, 720240, Note_on_c, 11, 55, 74
22, 720959, Note_on_c, 11, 55, 0
22, 720960, Note_on_c, 11, 55, 74
22, 723119, Note_on_c, 11, 55, 0
22, 723120, Note_on_c, 11, 55, 68
22, 723839, Note_on_c, 11, 55, 0
22, 754560, Note_on_c, 11, 52, 44
22, 754799, Note_on_c, 11, 52, 0
22, 754800, Note_on_c, 11, 52, 45
22, 755039, Note_on_c, 11, 52, 0
22, 755040, Note_on_c, 11, 50, 47
22, 755279, Note_on_c, 11, 50, 0
22, 755280, Note_on_c, 11, 50, 48
22, 755499, Note_on_c, 11, 50, 0
22, 755520, Note_on_c, 11, 55, 50
22, 755759, Note_on_c, 11, 55, 0
22, 755760, Note_on_c, 11, 55, 51
22, 755999, Note_on_c, 11, 55, 0
22, 756000, Note_on_c, 11, 54, 53
22, 756239, Note_on_c, 11, 54, 0
22, 756240, Note_on_c, 11, 54, 54
22, 756479, Note_on_c, 11, 54, 0
22, 756480, Note_on_c, 11, 54, 56
22, 756719, Note_on_c, 11, 54, 0
22, 756720, Note_on_c, 11, 52, 57
22, 756959, Note_on_c, 11, 52, 0
22, 756960, Note_on_c, 11, 50, 59
22, 757199, Note_on_c, 11, 50, 0
22, 757200, Note_on_c, 11, 57, 60
22, 757439, Note_on_c, 11, 57, 0
22, 757440, Note_on_c, 11, 57, 62
22, 757679, Note_on_c, 11, 57, 0
22, 757680, Note_on_c, 11, 55, 63
22, 757919, Note_on_c, 11, 55, 0
22, 757920, Note_on_c, 11, 55, 65
22, 758159, Note_on_c, 11, 55, 0
22, 758160, Note_on_c, 11, 54, 66
22, 758379, Note_on_c, 11, 54, 0
22, 758400, Note_on_c, 11, 54, 68
22, 758639, Note_on_c, 11, 54, 0
22, 758640, Note_on_c, 11, 52, 69
22, 758879, Note_on_c, 11, 52, 0
22, 758880, Note_on_c, 11, 50, 71
22, 759119, Note_on_c, 11, 50, 0
22, 759120, Note_on_c, 11, 57, 72
22, 759359, Note_on_c, 11, 57, 0
22, 759360, Note_on_c, 11, 57, 74
22, 759599, Note_on_c, 11, 57, 0
22, 759600, Note_on_c, 11, 55, 75
22, 759839, Note_on_c, 11, 55, 0
22, 759840, Note_on_c, 11, 55, 77
22, 760079, Note_on_c, 11, 55, 0
22, 760080, Note_on_c, 11, 54, 78
22, 760299, Note_on_c, 11, 54, 0
22, 760320, Note_on_c, 11, 57, 80
22, 760559, Note_on_c, 11, 57, 0
22, 760560, Note_on_c, 11, 45, 80
22, 760799, Note_on_c, 11, 45, 0
22, 760800, Note_on_c, 11, 47, 80
22, 761039, Note_on_c, 11, 47, 0
22, 761040, Note_on_c, 11, 45, 80
22, 761279, Note_on_c, 11, 45, 0
22, 761280, Note_on_c, 11, 50, 80
22, 761519, Note_on_c, 11, 50, 0
22, 761520, Note_on_c, 11, 49, 80
22, 761759, Note_on_c, 11, 49, 0
22, 761760, Note_on_c, 11, 54, 80
22, 761999, Note_on_c, 11, 54, 0
22, 762000, Note_on_c, 11, 52, 80
22, 762239, Note_on_c, 11, 52, 0
22, 762240, Note_on_c, 11, 57, 80
22, 762479, Note_on_c, 11, 57, 0
22, 762480, Note_on_c, 11, 55, 80
22, 762719, Note_on_c, 11, 55, 0
22, 762720, Note_on_c, 11, 55, 80
22, 762959, Note_on_c, 11, 55, 0
22, 765360, Note_on_c, 11, 62, 92
22, 765959, Note_on_c, 11, 62, 0
22, 765960, Note_on_c, 11, 62, 92
22, 766079, Note_on_c, 11, 62, 0
22, 766080, Note_on_c, 11, 62, 92
22, 766319, Note_on_c, 11, 62, 0
22, 766320, Note_on_c, 11, 59, 92
22, 766539, Note_on_c, 11, 59, 0
22, 766560, Note_on_c, 11, 59, 92
22, 766919, Note_on_c, 11, 59, 0
22, 766920, Note_on_c, 11, 59, 92
22, 767039, Note_on_c, 11, 59, 0
22, 767040, Note_on_c, 11, 59, 92
22, 767279, Note_on_c, 11, 59, 0
22, 767280, Note_on_c, 11, 55, 92
22, 767499, Note_on_c, 11, 55, 0
22, 767520, Note_on_c, 11, 55, 92
22, 767879, Note_on_c, 11, 55, 0
22, 767880, Note_on_c, 11, 55, 92
22, 767999, Note_on_c, 11, 55, 0
22, 768000, Note_on_c, 11, 55, 92
22, 768239, Note_on_c, 11, 55, 0
22, 768240, Note_on_c, 11, 52, 92
22, 768459, Note_on_c, 11, 52, 0
22, 768480, Note_on_c, 11, 64, 92
22, 768839, Note_on_c, 11, 64, 0
22, 768840, Note_on_c, 11, 64, 92
22, 768959, Note_on_c, 11, 64, 0
22, 768960, Note_on_c, 11, 57, 92
22, 769199, Note_on_c, 11, 57, 0
22, 769200, Note_on_c, 11, 57, 92
22, 769439, Note_on_c, 11, 57, 0
22, 769440, Note_on_c, 11, 57, 92
22, 769679, Note_on_c, 11, 57, 0
22, 769680, Note_on_c, 11, 57, 92
22, 769919, Note_on_c, 11, 57, 0
22, 769920, Note_on_c, 11, 59, 92
22, 770159, Note_on_c, 11, 59, 0
22, 770160, Note_on_c, 11, 59, 92
22, 770384, Note_on_c, 11, 59, 0
22, 770400, Note_on_c, 11, 59, 92
22, 770639, Note_on_c, 11, 59, 0
22, 770640, Note_on_c, 11, 59, 92
22, 770879, Note_on_c, 11, 59, 0
22, 770880, Note_on_c, 11, 55, 92
22, 771599, Note_on_c, 11, 55, 0
22, 771600, Note_on_c, 11, 55, 92
22, 771839, Note_on_c, 11, 55, 0
22, 771840, Note_on_c, 11, 57, 92
22, 772079, Note_on_c, 11, 57, 0
22, 772080, Note_on_c, 11, 57, 92
22, 772319, Note_on_c, 11, 57, 0
22, 772320, Note_on_c, 11, 57, 92
22, 773279, Note_on_c, 11, 57, 0
22, 776640, Note_on_c, 11, 57, 44
22, 776879, Note_on_c, 11, 57, 0
22, 776880, Note_on_c, 11, 57, 46
22, 777119, Note_on_c, 11, 57, 0
22, 777120, Note_on_c, 11, 57, 48
22, 777359, Note_on_c, 11, 57, 0
22, 777360, Note_on_c, 11, 57, 50
22, 777579, Note_on_c, 11, 57, 0
22, 777600, Note_on_c, 11, 57, 53
22, 777839, Note_on_c, 11, 57, 0
22, 777840, Note_on_c, 11, 57, 55
22, 778079, Note_on_c, 11, 57, 0
22, 778080, Note_on_c, 11, 57, 57
22, 778319, Note_on_c, 11, 57, 0
22, 778320, Note_on_c, 11, 57, 59
22, 778559, Note_on_c, 11, 57, 0
22, 778560, Note_on_c, 11, 57, 62
22, 779039, Note_on_c, 11, 57, 0
22, 779040, Note_on_c, 11, 57, 66
22, 779519, Note_on_c, 11, 57, 0
22, 779520, Note_on_c, 11, 57, 71
22, 779999, Note_on_c, 11, 57, 0
22, 780000, Note_on_c, 11, 57, 75
22, 780459, Note_on_c, 11, 57, 0
22, 780480, Note_on_c, 11, 57, 80
22, 780719, Note_on_c, 11, 57, 0
22, 780720, Note_on_c, 11, 45, 80
22, 780959, Note_on_c, 11, 45, 0
22, 780960, Note_on_c, 11, 47, 80
22, 781199, Note_on_c, 11, 47, 0
22, 781200, Note_on_c, 11, 45, 80
22, 781439, Note_on_c, 11, 45, 0
22, 781440, Note_on_c, 11, 50, 80
22, 781679, Note_on_c, 11, 50, 0
22, 781680, Note_on_c, 11, 49, 80
22, 781919, Note_on_c, 11, 49, 0
22, 781920, Note_on_c, 11, 54, 80
22, 782159, Note_on_c, 11, 54, 0
22, 782160, Note_on_c, 11, 52, 80
22, 782399, Note_on_c, 11, 52, 0
22, 782400, Note_on_c, 11, 57, 80
22, 782639, Note_on_c, 11, 57, 0
22, 782640, Note_on_c, 11, 55, 80
22, 782879, Note_on_c, 11, 55, 0
22, 782880, Note_on_c, 11, 55, 80
22, 783119, Note_on_c, 11, 55, 0
22, 785520, Note_on_c, 11, 62, 92
22, 786119, Note_on_c, 11, 62, 0
22, 786120, Note_on_c, 11, 62, 92
22, 786239, Note_on_c, 11, 62, 0
22, 786240, Note_on_c, 11, 62, 92
22, 786479, Note_on_c, 11, 62, 0
22, 786480, Note_on_c, 11, 59, 92
22, 786699, Note_on_c, 11, 59, 0
22, 786720, Note_on_c, 11, 59, 92
22, 787079, Note_on_c, 11, 59, 0
22, 787080, Note_on_c, 11, 59, 92
22, 787199, Note_on_c, 11, 59, 0
22, 787200, Note_on_c, 11, 59, 92
22, 787439, Note_on_c, 11, 59, 0
22, 787440, Note_on_c, 11, 55, 92
22, 787659, Note_on_c, 11, 55, 0
22, 787680, Note_on_c, 11, 55, 92
22, 788039, Note_on_c, 11, 55, 0
22, 788040, Note_on_c, 11, 55, 92
22, 788159, Note_on_c, 11, 55, 0
22, 788160, Note_on_c, 11, 55, 92
22, 788399, Note_on_c, 11, 55, 0
22, 788400, Note_on_c, 11, 52, 92
22, 788639, Note_on_c, 11, 52, 0
22, 789600, Note_on_c, 11, 64, 92
22, 789959, Note_on_c, 11, 64, 0
22, 789960, Note_on_c, 11, 64, 92
22, 790079, Note_on_c, 11, 64, 0
22, 790080, Note_on_c, 11, 64, 92
22, 790319, Note_on_c, 11, 64, 0
22, 790320, Note_on_c, 11, 52, 92
22, 790559, Note_on_c, 11, 52, 0
22, 812160, Note_on_c, 11, 62, 80
22, 812399, Note_on_c, 11, 62, 0
22, 812400, Note_on_c, 11, 62, 80
22, 812639, Note_on_c, 11, 62, 0
22, 812640, Note_on_c, 11, 61, 80
22, 812879, Note_on_c, 11, 61, 0
22, 812880, Note_on_c, 11, 57, 80
22, 813104, Note_on_c, 11, 57, 0
22, 813120, Note_on_c, 11, 64, 80
22, 813359, Note_on_c, 11, 64, 0
22, 813360, Note_on_c, 11, 64, 80
22, 813599, Note_on_c, 11, 64, 0
22, 813600, Note_on_c, 11, 63, 80
22, 813839, Note_on_c, 11, 63, 0
22, 813840, Note_on_c, 11, 59, 80
22, 814049, Note_on_c, 11, 59, 0
22, 814080, Note_on_c, 11, 52, 80
22, 814319, Note_on_c, 11, 52, 0
22, 814320, Note_on_c, 11, 54, 80
22, 814559, Note_on_c, 11, 54, 0
22, 814560, Note_on_c, 11, 55, 80
22, 814799, Note_on_c, 11, 55, 0
22, 814800, Note_on_c, 11, 56, 80
22, 815039, Note_on_c, 11, 56, 0
22, 815040, Note_on_c, 11, 57, 80
22, 815279, Note_on_c, 11, 57, 0
22, 815280, Note_on_c, 11, 56, 80
22, 815519, Note_on_c, 11, 56, 0
22, 815520, Note_on_c, 11, 57, 80
22, 815759, Note_on_c, 11, 57, 0
22, 816720, Note_on_c, 11, 56, 80
22, 816959, Note_on_c, 11, 56, 0
22, 816960, Note_on_c, 11, 57, 80
22, 817199, Note_on_c, 11, 57, 0
22, 817200, Note_on_c, 11, 56, 80
22, 817439, Note_on_c, 11, 56, 0
22, 817440, Note_on_c, 11, 57, 80
22, 820769, Note_on_c, 11, 57, 0
22, 820800, Note_on_c, 11, 57, 80
22, 821039, Note_on_c, 11, 57, 0
22, 821040, Note_on_c, 11, 57, 80
22, 821279, Note_on_c, 11, 57, 0
22, 821760, Note_on_c, 11, 55, 80
22, 821999, Note_on_c, 11, 55, 0
22, 822000, Note_on_c, 11, 57, 80
22, 822239, Note_on_c, 11, 57, 0
22, 822240, Note_on_c, 11, 55, 80
22, 822479, Note_on_c, 11, 55, 0
22, 822480, Note_on_c, 11, 54, 80
22, 822719, Note_on_c, 11, 54, 0
22, 822720, Note_on_c, 11, 55, 80
22, 822959, Note_on_c, 11, 55, 0
22, 822960, Note_on_c, 11, 57, 80
22, 823199, Note_on_c, 11, 57, 0
22, 823200, Note_on_c, 11, 55, 80
22, 823439, Note_on_c, 11, 55, 0
22, 823440, Note_on_c, 11, 54, 80
22, 823679, Note_on_c, 11, 54, 0
22, 823680, Note_on_c, 11, 55, 80
22, 823919, Note_on_c, 11, 55, 0
22, 823920, Note_on_c, 11, 57, 80
22, 824159, Note_on_c, 11, 57, 0
22, 824160, Note_on_c, 11, 55, 80
22, 824399, Note_on_c, 11, 55, 0
22, 824400, Note_on_c, 11, 54, 80
22, 824639, Note_on_c, 11, 54, 0
22, 824640, Note_on_c, 11, 55, 80
22, 824879, Note_on_c, 11, 55, 0
22, 824880, Note_on_c, 11, 57, 80
22, 825119, Note_on_c, 11, 57, 0
22, 825120, Note_on_c, 11, 55, 80
22, 825359, Note_on_c, 11, 55, 0
22, 825360, Note_on_c, 11, 54, 80
22, 825599, Note_on_c, 11, 54, 0
22, 825600, Note_on_c, 11, 52, 80
22, 826079, Note_on_c, 11, 52, 0
22, 826080, Note_on_c, 11, 50, 80
22, 826289, Note_on_c, 11, 50, 0
22, 826320, Note_on_c, 11, 50, 80
22, 826559, Note_on_c, 11, 50, 0
22, 826560, Note_on_c, 11, 55, 80
22, 827039, Note_on_c, 11, 55, 0
22, 827040, Note_on_c, 11, 55, 80
22, 827519, Note_on_c, 11, 55, 0
22, 827520, Note_on_c, 11, 57, 80
22, 827999, Note_on_c, 11, 57, 0
22, 828000, Note_on_c, 11, 55, 80
22, 828479, Note_on_c, 11, 55, 0
22, 828480, Note_on_c, 11, 54, 80
22, 829439, Note_on_c, 11, 54, 0
22, 829440, Note_on_c, 11, 52, 80
22, 829919, Note_on_c, 11, 52, 0
22, 829920, Note_on_c, 11, 50, 80
22, 830129, Note_on_c, 11, 50, 0
22, 830160, Note_on_c, 11, 50, 80
22, 830399, Note_on_c, 11, 50, 0
22, 830400, Note_on_c, 11, 55, 80
22, 830879, Note_on_c, 11, 55, 0
22, 830880, Note_on_c, 11, 55, 80
22, 831359, Note_on_c, 11, 55, 0
22, 831360, Note_on_c, 11, 57, 80
22, 831839, Note_on_c, 11, 57, 0
22, 831840, Note_on_c, 11, 57, 80
22, 832319, Note_on_c, 11, 57, 0
22, 832320, Note_on_c, 11, 50, 80
22, 832559, Note_on_c, 11, 50, 0
22, 832560, Note_on_c, 11, 50, 80
22, 832799, Note_on_c, 11, 50, 0
22, 833280, Note_on_c, 11, 62, 80
22, 833519, Note_on_c, 11, 62, 0
22, 833520, Note_on_c, 11, 62, 80
22, 833759, Note_on_c, 11, 62, 0
22, 833760, Note_on_c, 11, 61, 80
22, 833999, Note_on_c, 11, 61, 0
22, 834000, Note_on_c, 11, 57, 80
22, 834239, Note_on_c, 11, 57, 0
22, 835200, Note_on_c, 11, 64, 80
22, 835439, Note_on_c, 11, 64, 0
22, 835440, Note_on_c, 11, 64, 80
22, 835679, Note_on_c, 11, 64, 0
22, 835680, Note_on_c, 11, 63, 80
22, 835919, Note_on_c, 11, 63, 0
22, 835920, Note_on_c, 11, 59, 80
22, 836129, Note_on_c, 11, 59, 0
22, 836160, Note_on_c, 11, 59, 92
22, 836639, Note_on_c, 11, 59, 0
22, 836640, Note_on_c, 11, 59, 92
22, 837119, Note_on_c, 11, 59, 0
22, 837120, Note_on_c, 11, 59, 92
22, 837599, Note_on_c, 11, 59, 0
22, 837600, Note_on_c, 11, 59, 92
22, 838079, Note_on_c, 11, 59, 0
22, 838080, Note_on_c, 11, 59, 92
22, 838559, Note_on_c, 11, 59, 0
22, 838560, Note_on_c, 11, 59, 92
22, 839039, Note_on_c, 11, 59, 0
22, 839040, Note_on_c, 11, 60, 92
22, 839489, Note_on_c, 11, 60, 0
22, 839520, Note_on_c, 11, 60, 92
22, 839999, Note_on_c, 11, 60, 0
22, 840000, Note_on_c, 11, 60, 92
22, 840479, Note_on_c, 11, 60, 0
22, 840480, Note_on_c, 11, 60, 92
22, 840959, Note_on_c, 11, 60, 0
22, 840960, Note_on_c, 11, 65, 92
22, 841409, Note_on_c, 11, 65, 0
22, 841440, Note_on_c, 11, 62, 92
22, 841919, Note_on_c, 11, 62, 0
22, 841920, Note_on_c, 11, 57, 92
22, 842399, Note_on_c, 11, 57, 0
22, 842400, Note_on_c, 11, 57, 92
22, 842879, Note_on_c, 11, 57, 0
22, 842880, Note_on_c, 11, 59, 92
22, 843329, Note_on_c, 11, 59, 0
22, 843360, Note_on_c, 11, 59, 104
22, 844319, Note_on_c, 11, 59, 0
22, 844320, Note_on_c, 11, 59, 104
22, 844799, Note_on_c, 11, 59, 0
22, 844800, Note_on_c, 11, 59, 104
22, 845279, Note_on_c, 11, 59, 0
22, 845280, Note_on_c, 11, 59, 104
22, 845759, Note_on_c, 11, 59, 0
22, 845760, Note_on_c, 11, 59, 104
22, 846239, Note_on_c, 11, 59, 0
22, 846240, Note_on_c, 11, 59, 104
22, 846719, Note_on_c, 11, 59, 0
22, 846720, Note_on_c, 11, 60, 104
22, 847169, Note_on_c, 11, 60, 0
22, 847200, Note_on_c, 11, 60, 80
22, 847679, Note_on_c, 11, 60, 0
22, 847680, Note_on_c, 11, 60, 80
22, 848159, Note_on_c, 11, 60, 0
22, 848160, Note_on_c, 11, 60, 80
22, 848639, Note_on_c, 11, 60, 0
22, 848640, Note_on_c, 11, 65, 92
22, 849089, Note_on_c, 11, 65, 0
22, 849120, Note_on_c, 11, 62, 92
22, 849599, Note_on_c, 11, 62, 0
22, 849600, Note_on_c, 11, 57, 92
22, 850079, Note_on_c, 11, 57, 0
22, 850080, Note_on_c, 11, 57, 92
22, 850319, Note_on_c, 11, 57, 0
22, 850320, Note_on_c, 11, 60, 92
22, 850529, Note_on_c, 11, 60, 0
22, 850560, Note_on_c, 11, 60, 92
22, 851039, Note_on_c, 11, 60, 0
22, 851040, Note_on_c, 11, 59, 92
22, 851279, Note_on_c, 11, 59, 0
22, 851280, Note_on_c, 11, 55, 92
22, 851519, Note_on_c, 11, 55, 0
22, 851520, Note_on_c, 11, 64, 92
22, 851759, Note_on_c, 11, 64, 0
22, 851760, Note_on_c, 11, 61, 92
22, 851999, Note_on_c, 11, 61, 0
22, 852000, Note_on_c, 11, 57, 92
22, 852239, Note_on_c, 11, 57, 0
22, 852240, Note_on_c, 11, 55, 92
22, 852479, Note_on_c, 11, 55, 0
22, 852480, Note_on_c, 11, 52, 92
22, 852719, Note_on_c, 11, 52, 0
22, 852720, Note_on_c, 11, 49, 92
22, 852959, Note_on_c, 11, 49, 0
22, 852960, Note_on_c, 11, 45, 92
22, 853199, Note_on_c, 11, 45, 0
22, 853200, Note_on_c, 11, 57, 92
22, 853919, Note_on_c, 11, 57, 0
22, 853920, Note_on_c, 11, 57, 92
22, 854159, Note_on_c, 11, 57, 0
22, 854160, Note_on_c, 11, 60, 92
22, 854399, Note_on_c, 11, 60, 0
22, 854400, Note_on_c, 11, 60, 92
22, 854609, Note_on_c, 11, 60, 0
22, 854640, Note_on_c, 11, 60, 92
22, 854879, Note_on_c, 11, 60, 0
22, 854880, Note_on_c, 11, 59, 92
22, 855119, Note_on_c, 11, 59, 0
22, 855120, Note_on_c, 11, 55, 92
22, 855359, Note_on_c, 11, 55, 0
22, 855360, Note_on_c, 11, 64, 92
22, 855599, Note_on_c, 11, 64, 0
22, 855600, Note_on_c, 11, 61, 92
22, 855839, Note_on_c, 11, 61, 0
22, 855840, Note_on_c, 11, 57, 92
22, 856079, Note_on_c, 11, 57, 0
22, 856080, Note_on_c, 11, 55, 92
22, 856319, Note_on_c, 11, 55, 0
22, 856320, Note_on_c, 11, 52, 92
22, 856559, Note_on_c, 11, 52, 0
22, 856560, Note_on_c, 11, 49, 92
22, 856799, Note_on_c, 11, 49, 0
22, 856800, Note_on_c, 11, 45, 92
22, 857039, Note_on_c, 11, 45, 0
22, 857040, Note_on_c, 11, 57, 92
22, 857759, Note_on_c, 11, 57, 0
22, 857760, Note_on_c, 11, 57, 92
22, 858239, Note_on_c, 11, 57, 0
22, 858240, Note_on_c, 11, 50, 92
22, 858719, Note_on_c, 11, 50, 0
22, 859200, Note_on_c, 11, 59, 92
22, 859439, Note_on_c, 11, 59, 0
22, 859440, Note_on_c, 11, 59, 92
22, 859679, Note_on_c, 11, 59, 0
22, 860160, Note_on_c, 11, 55, 92
22, 860399, Note_on_c, 11, 55, 0
22, 860400, Note_on_c, 11, 55, 92
22, 860624, Note_on_c, 11, 55, 0
22, 860640, Note_on_c, 11, 52, 92
22, 860879, Note_on_c, 11, 52, 0
22, 860880, Note_on_c, 11, 52, 92
22, 861119, Note_on_c, 11, 52, 0
22, 861120, Note_on_c, 11, 57, 92
22, 861839, Note_on_c, 11, 57, 0
22, 861840, Note_on_c, 11, 57, 92
22, 862079, Note_on_c, 11, 57, 0
22, 862080, Note_on_c, 11, 57, 92
22, 862319, Note_on_c, 11, 57, 0
22, 862320, Note_on_c, 11, 50, 92
22, 862559, Note_on_c, 11, 50, 0
22, 864480, Note_on_c, 11, 57, 92
22, 864719, Note_on_c, 11, 57, 0
22, 864720, Note_on_c, 11, 57, 92
22, 864959, Note_on_c, 11, 57, 0
22, 864960, Note_on_c, 11, 57, 92
22, 866639, Note_on_c, 11, 57, 0
22, 866640, Note_on_c, 11, 57, 92
22, 866879, Note_on_c, 11, 57, 0
22, 866880, Note_on_c, 11, 57, 92
22, 867119, Note_on_c, 11, 57, 0
22, 867120, Note_on_c, 11, 50, 92
22, 867359, Note_on_c, 11, 50, 0
22, 870240, Note_on_c, 11, 57, 92
22, 871079, Note_on_c, 11, 57, 0
22, 871080, Note_on_c, 11, 57, 92
22, 871199, Note_on_c, 11, 57, 0
22, 871200, Note_on_c, 11, 57, 92
22, 871379, Note_on_c, 11, 57, 0
22, 871380, Note_on_c, 11, 57, 44
22, 871439, Note_on_c, 11, 57, 0
22, 871440, Note_on_c, 11, 57, 44
22, 871619, Note_on_c, 11, 57, 0
22, 871620, Note_on_c, 11, 57, 44
22, 871679, Note_on_c, 11, 57, 0
22, 871680, Note_on_c, 11, 57, 44
22, 871919, Note_on_c, 11, 57, 0
22, 872160, Note_on_c, 11, 62, 80
22, 872339, Note_on_c, 11, 62, 0
22, 872340, Note_on_c, 11, 62, 80
22, 872379, Note_on_c, 11, 62, 0
22, 872400, Note_on_c, 11, 55, 92
22, 872759, Note_on_c, 11, 55, 0
22, 872760, Note_on_c, 11, 57, 80
22, 872875, Note_on_c, 11, 57, 0
22, 872880, Note_on_c, 11, 57, 92
22, 873059, Note_on_c, 11, 57, 0
22, 873060, Note_on_c, 11, 57, 92
22, 873119, Note_on_c, 11, 57, 0
22, 873120, Note_on_c, 11, 57, 92
22, 873239, Note_on_c, 11, 57, 0
22, 873240, Note_on_c, 11, 50, 92
22, 873344, Note_on_c, 11, 50, 0
22, 873360, Note_on_c, 11, 57, 92
22, 873539, Note_on_c, 11, 57, 0
22, 873540, Note_on_c, 11, 57, 92
22, 873599, Note_on_c, 11, 57, 0
22, 873600, Note_on_c, 11, 57, 92
22, 874079, Note_on_c, 11, 57, 0
22, 874080, Note_on_c, 11, 50, 92
22, 874319, Note_on_c, 11, 50, 0
22, 874319, End_track
23, 0, Start_track
23, 0, Title_t, "Soprano Solo"
23, 0, MIDI_port, 0
23, 0, Program_c, 8, 73
23, 231360, Control_c, 8, 7, 96
23, 232080, Control_c, 8, 10, 56
23, 232080, Control_c, 8, 11, 127
23, 232320, Note_on_c, 8, 74, 68
23, 232559, Note_on_c, 8, 74, 0
23, 232560, Note_on_c, 8, 74, 68
23, 232799, Note_on_c, 8, 74, 0
23, 232800, Note_on_c, 8, 76, 68
23, 233039, Note_on_c, 8, 76, 0
23, 233040, Note_on_c, 8, 78, 68
23, 233279, Note_on_c, 8, 78, 0
23, 233280, Note_on_c, 8, 78, 68
23, 233519, Note_on_c, 8, 78, 0
23, 233520, Note_on_c, 8, 76, 68
23, 233759, Note_on_c, 8, 76, 0
23, 233760, Note_on_c, 8, 74, 68
23, 233999, Note_on_c, 8, 74, 0
23, 234000, Note_on_c, 8, 73, 68
23, 234224, Note_on_c, 8, 73, 0
23, 234240, Note_on_c, 8, 74, 68
23, 234479, Note_on_c, 8, 74, 0
23, 234480, Note_on_c, 8, 74, 68
23, 234719, Note_on_c, 8, 74, 0
23, 234720, Note_on_c, 8, 76, 68
23, 234959, Note_on_c, 8, 76, 0
23, 234960, Note_on_c, 8, 78, 68
23, 235199, Note_on_c, 8, 78, 0
23, 235200, Note_on_c, 8, 76, 68
23, 235559, Note_on_c, 8, 76, 0
23, 235560, Note_on_c, 8, 74, 68
23, 235679, Note_on_c, 8, 74, 0
23, 235680, Note_on_c, 8, 74, 68
23, 236129, Note_on_c, 8, 74, 0
23, 236160, Note_on_c, 8, 76, 68
23, 236369, Note_on_c, 8, 76, 0
23, 236400, Note_on_c, 8, 76, 68
23, 236639, Note_on_c, 8, 76, 0
23, 236640, Note_on_c, 8, 78, 68
23, 236879, Note_on_c, 8, 78, 0
23, 236880, Note_on_c, 8, 74, 68
23, 237119, Note_on_c, 8, 74, 0
23, 237120, Note_on_c, 8, 76, 68
23, 237359, Note_on_c, 8, 76, 0
23, 237360, Note_on_c, 8, 78, 68
23, 237479, Note_on_c, 8, 78, 0
23, 237480, Note_on_c, 8, 79, 68
23, 237599, Note_on_c, 8, 79, 0
23, 237600, Note_on_c, 8, 78, 68
23, 237839, Note_on_c, 8, 78, 0
23, 237840, Note_on_c, 8, 74, 68
23, 238079, Note_on_c, 8, 74, 0
23, 238080, Note_on_c, 8, 76, 68
23, 238319, Note_on_c, 8, 76, 0
23, 238320, Note_on_c, 8, 78, 68
23, 238439, Note_on_c, 8, 78, 0
23, 238440, Note_on_c, 8, 79, 68
23, 238559, Note_on_c, 8, 79, 0
23, 238560, Note_on_c, 8, 78, 68
23, 238799, Note_on_c, 8, 78, 0
23, 238800, Note_on_c, 8, 76, 68
23, 239039, Note_on_c, 8, 76, 0
23, 239040, Note_on_c, 8, 74, 68
23, 239279, Note_on_c, 8, 74, 0
23, 239280, Note_on_c, 8, 76, 68
23, 239519, Note_on_c, 8, 76, 0
23, 239520, Note_on_c, 8, 69, 68
23, 239729, Note_on_c, 8, 69, 0
23, 239758, Control_c, 8, 11, 107
23, 239760, Note_on_c, 8, 78, 80
23, 239760, Control_c, 8, 11, 109
23, 239820, Control_c, 8, 11, 110
23, 239880, Control_c, 8, 11, 112
23, 239940, Control_c, 8, 11, 114
23, 240000, Control_c, 8, 11, 115
23, 240060, Control_c, 8, 11, 116
23, 240120, Control_c, 8, 11, 119
23, 240180, Control_c, 8, 11, 120
23, 240239, Note_on_c, 8, 78, 0
23, 240240, Note_on_c, 8, 78, 80
23, 240240, Control_c, 8, 11, 121
23, 240300, Control_c, 8, 11, 122
23, 240360, Control_c, 8, 11, 125
23, 240420, Control_c, 8, 11, 126
23, 240479, Note_on_c, 8, 78, 0
23, 240480, Control_c, 8, 11, 127
23, 240480, Note_on_c, 8, 79, 92
23, 240719, Note_on_c, 8, 79, 0
23, 240720, Note_on_c, 8, 81, 80
23, 240959, Note_on_c, 8, 81, 0
23, 240960, Note_on_c, 8, 81, 80
23, 241169, Note_on_c, 8, 81, 0
23, 241200, Note_on_c, 8, 79, 80
23, 241439, Note_on_c, 8, 79, 0
23, 241440, Note_on_c, 8, 78, 79
23, 241679, Note_on_c, 8, 78, 0
23, 241680, Note_on_c, 8, 76, 78
23, 241919, Note_on_c, 8, 76, 0
23, 241920, Note_on_c, 8, 74, 76
23, 242159, Note_on_c, 8, 74, 0
23, 242160, Note_on_c, 8, 74, 75
23, 242399, Note_on_c, 8, 74, 0
23, 242400, Note_on_c, 8, 76, 74
23, 242639, Note_on_c, 8, 76, 0
23, 242640, Note_on_c, 8, 78, 72
23, 242879, Note_on_c, 8, 78, 0
23, 242880, Note_on_c, 8, 76, 71
23, 243239, Note_on_c, 8, 76, 0
23, 243240, Note_on_c, 8, 74, 69
23, 243359, Note_on_c, 8, 74, 0
23, 243360, Note_on_c, 8, 74, 68
23, 243809, Note_on_c, 8, 74, 0
23, 243840, Marker_t, "Transition to Soprani Tutti"
23, 262560, Control_c, 0, 7, 96
23, 262560, Control_c, 8, 10, 56
23, 262560, Control_c, 8, 11, 127
23, 262680, Note_on_c, 8, 74, 44
23, 262799, Note_on_c, 8, 74, 0
23, 262800, Note_on_c, 8, 76, 44
23, 262919, Note_on_c, 8, 76, 0
23, 262920, Note_on_c, 8, 78, 44
23, 263159, Note_on_c, 8, 78, 0
23, 263160, Note_on_c, 8, 76, 44
23, 263279, Note_on_c, 8, 76, 0
23, 263280, Note_on_c, 8, 74, 44
23, 263399, Note_on_c, 8, 74, 0
23, 263400, Note_on_c, 8, 76, 44
23, 263519, Note_on_c, 8, 76, 0
23, 263520, Note_on_c, 8, 79, 44
23, 263639, Note_on_c, 8, 79, 0
23, 263640, Note_on_c, 8, 78, 44
23, 263759, Note_on_c, 8, 78, 0
23, 263760, Note_on_c, 8, 76, 44
23, 263879, Note_on_c, 8, 76, 0
23, 263880, Note_on_c, 8, 74, 44
23, 263999, Note_on_c, 8, 74, 0
23, 264000, Note_on_c, 8, 78, 44
23, 264119, Note_on_c, 8, 78, 0
23, 264120, Note_on_c, 8, 76, 44
23, 264239, Note_on_c, 8, 76, 0
23, 264240, Note_on_c, 8, 74, 44
23, 264359, Note_on_c, 8, 74, 0
23, 264360, Note_on_c, 8, 76, 44
23, 264479, Note_on_c, 8, 76, 0
23, 264480, Note_on_c, 8, 79, 44
23, 264599, Note_on_c, 8, 79, 0
23, 264600, Note_on_c, 8, 78, 44
23, 264719, Note_on_c, 8, 78, 0
23, 264720, Note_on_c, 8, 76, 44
23, 264839, Note_on_c, 8, 76, 0
23, 264840, Note_on_c, 8, 74, 44
23, 264944, Note_on_c, 8, 74, 0
23, 264960, Note_on_c, 8, 78, 44
23, 265079, Note_on_c, 8, 78, 0
23, 265080, Note_on_c, 8, 76, 44
23, 265199, Note_on_c, 8, 76, 0
23, 265200, Note_on_c, 8, 74, 44
23, 265319, Note_on_c, 8, 74, 0
23, 265320, Note_on_c, 8, 76, 44
23, 265439, Note_on_c, 8, 76, 0
23, 265440, Note_on_c, 8, 79, 44
23, 265559, Note_on_c, 8, 79, 0
23, 265560, Note_on_c, 8, 78, 44
23, 265679, Note_on_c, 8, 78, 0
23, 265680, Note_on_c, 8, 78, 44
23, 265799, Note_on_c, 8, 78, 0
23, 265800, Note_on_c, 8, 76, 44
23, 265919, Note_on_c, 8, 76, 0
23, 265920, Note_on_c, 8, 76, 44
23, 266039, Note_on_c, 8, 76, 0
23, 266040, Note_on_c, 8, 74, 44
23, 266159, Note_on_c, 8, 74, 0
23, 266160, Note_on_c, 8, 74, 44
23, 266279, Note_on_c, 8, 74, 0
23, 266280, Note_on_c, 8, 76, 44
23, 266399, Note_on_c, 8, 76, 0
23, 266400, Note_on_c, 8, 69, 44
23, 266609, Note_on_c, 8, 69, 0
23, 266640, Note_on_c, 8, 78, 44
23, 266999, Note_on_c, 8, 78, 0
23, 267000, Note_on_c, 8, 79, 44
23, 267119, Note_on_c, 8, 79, 0
23, 267120, Note_on_c, 8, 76, 44
23, 267239, Note_on_c, 8, 76, 0
23, 267240, Note_on_c, 8, 78, 44
23, 267359, Note_on_c, 8, 78, 0
23, 267360, Note_on_c, 8, 79, 44
23, 267479, Note_on_c, 8, 79, 0
23, 267480, Note_on_c, 8, 81, 44
23, 267599, Note_on_c, 8, 81, 0
23, 267600, Note_on_c, 8, 83, 44
23, 267719, Note_on_c, 8, 83, 0
23, 267720, Note_on_c, 8, 81, 44
23, 267839, Note_on_c, 8, 81, 0
23, 267840, Note_on_c, 8, 81, 44
23, 267959, Note_on_c, 8, 81, 0
23, 267960, Note_on_c, 8, 79, 44
23, 268079, Note_on_c, 8, 79, 0
23, 268080, Note_on_c, 8, 83, 44
23, 268199, Note_on_c, 8, 83, 0
23, 268200, Note_on_c, 8, 79, 44
23, 268319, Note_on_c, 8, 79, 0
23, 268320, Note_on_c, 8, 78, 44
23, 268439, Note_on_c, 8, 78, 0
23, 268440, Note_on_c, 8, 76, 44
23, 268559, Note_on_c, 8, 76, 0
23, 268560, Note_on_c, 8, 79, 44
23, 268679, Note_on_c, 8, 79, 0
23, 268680, Note_on_c, 8, 76, 44
23, 268784, Note_on_c, 8, 76, 0
23, 268800, Note_on_c, 8, 76, 44
23, 268919, Note_on_c, 8, 76, 0
23, 268920, Note_on_c, 8, 74, 44
23, 269039, Note_on_c, 8, 74, 0
23, 269040, Note_on_c, 8, 73, 44
23, 269159, Note_on_c, 8, 73, 0
23, 269160, Note_on_c, 8, 74, 44
23, 269279, Note_on_c, 8, 74, 0
23, 269280, Note_on_c, 8, 78, 80
23, 269399, Note_on_c, 8, 78, 0
23, 269400, Note_on_c, 8, 76, 80
23, 269519, Note_on_c, 8, 76, 0
23, 269520, Note_on_c, 8, 79, 80
23, 269639, Note_on_c, 8, 79, 0
23, 269640, Note_on_c, 8, 78, 80
23, 269759, Note_on_c, 8, 78, 0
23, 269760, Note_on_c, 8, 78, 80
23, 269879, Note_on_c, 8, 78, 0
23, 269880, Note_on_c, 8, 76, 80
23, 270119, Note_on_c, 8, 76, 0
23, 270120, Note_on_c, 8, 69, 80
23, 270239, Note_on_c, 8, 69, 0
23, 270240, Note_on_c, 8, 74, 80
23, 270689, Note_on_c, 8, 74, 0
23, 270720, Marker_t, "Transition to Soprani Tutti"
23, 729120, Program_c, 5, 73
23, 729120, Control_c, 5, 7, 96
23, 729120, Control_c, 5, 10, 56
23, 729120, Control_c, 5, 11, 127
23, 729600, Note_on_c, 5, 74, 56
23, 730199, Note_on_c, 5, 74, 0
23, 730200, Note_on_c, 5, 76, 56
23, 730319, Note_on_c, 5, 76, 0
23, 730320, Note_on_c, 5, 78, 56
23, 730439, Note_on_c, 5, 78, 0
23, 730440, Note_on_c, 5, 74, 56
23, 730539, Note_on_c, 5, 74, 0
23, 730560, Note_on_c, 5, 76, 56
23, 730799, Note_on_c, 5, 76, 0
23, 730800, Note_on_c, 5, 76, 56
23, 731039, Note_on_c, 5, 76, 0
23, 731040, Note_on_c, 5, 76, 56
23, 731279, Note_on_c, 5, 76, 0
23, 731280, Note_on_c, 5, 76, 56
23, 731519, Note_on_c, 5, 76, 0
23, 731520, Note_on_c, 5, 76, 56
23, 731879, Note_on_c, 5, 76, 0
23, 731880, Note_on_c, 5, 74, 56
23, 731999, Note_on_c, 5, 74, 0
23, 732000, Note_on_c, 5, 74, 56
23, 732479, Note_on_c, 5, 74, 0
23, 737280, Note_on_c, 5, 73, 56
23, 737879, Note_on_c, 5, 73, 0
23, 737880, Note_on_c, 5, 74, 56
23, 737999, Note_on_c, 5, 74, 0
23, 738000, Note_on_c, 5, 76, 56
23, 738119, Note_on_c, 5, 76, 0
23, 738120, Note_on_c, 5, 73, 56
23, 738219, Note_on_c, 5, 73, 0
23, 738240, Note_on_c, 5, 74, 56
23, 738479, Note_on_c, 5, 74, 0
23, 738480, Note_on_c, 5, 74, 56
23, 738719, Note_on_c, 5, 74, 0
23, 738720, Note_on_c, 5, 74, 56
23, 738959, Note_on_c, 5, 74, 0
23, 738960, Note_on_c, 5, 74, 56
23, 739199, Note_on_c, 5, 74, 0
23, 739200, Note_on_c, 5, 74, 56
23, 739559, Note_on_c, 5, 74, 0
23, 739560, Note_on_c, 5, 73, 56
23, 739679, Note_on_c, 5, 73, 0
23, 739680, Note_on_c, 5, 73, 56
23, 740159, Note_on_c, 5, 73, 0
23, 742560, Note_on_c, 5, 76, 56
23, 743279, Note_on_c, 5, 76, 0
23, 743280, Note_on_c, 5, 76, 56
23, 743519, Note_on_c, 5, 76, 0
23, 743520, Note_on_c, 5, 74, 56
23, 743759, Note_on_c, 5, 74, 0
23, 743760, Note_on_c, 5, 74, 56
23, 743979, Note_on_c, 5, 74, 0
23, 744000, Note_on_c, 5, 79, 56
23, 744239, Note_on_c, 5, 79, 0
23, 744240, Note_on_c, 5, 79, 56
23, 744479, Note_on_c, 5, 79, 0
23, 744480, Note_on_c, 5, 78, 56
23, 744719, Note_on_c, 5, 78, 0
23, 744720, Note_on_c, 5, 78, 56
23, 744959, Note_on_c, 5, 78, 0
23, 744960, Note_on_c, 5, 78, 56
23, 745199, Note_on_c, 5, 78, 0
23, 745200, Note_on_c, 5, 76, 56
23, 745439, Note_on_c, 5, 76, 0
23, 745440, Note_on_c, 5, 74, 56
23, 745679, Note_on_c, 5, 74, 0
23, 745680, Note_on_c, 5, 81, 56
23, 745919, Note_on_c, 5, 81, 0
23, 745920, Note_on_c, 5, 81, 56
23, 746159, Note_on_c, 5, 81, 0
23, 746160, Note_on_c, 5, 79, 56
23, 746399, Note_on_c, 5, 79, 0
23, 746400, Note_on_c, 5, 79, 56
23, 746639, Note_on_c, 5, 79, 0
23, 746640, Note_on_c, 5, 78, 56
23, 746859, Note_on_c, 5, 78, 0
23, 746880, Note_on_c, 5, 69, 56
23, 747119, Note_on_c, 5, 69, 0
23, 747120, Note_on_c, 5, 73, 56
23, 747359, Note_on_c, 5, 73, 0
23, 747360, Note_on_c, 5, 74, 56
23, 747599, Note_on_c, 5, 74, 0
23, 747600, Note_on_c, 5, 78, 56
23, 747839, Note_on_c, 5, 78, 0
23, 747840, Note_on_c, 5, 81, 56
23, 748079, Note_on_c, 5, 81, 0
23, 748080, Note_on_c, 5, 73, 56
23, 748319, Note_on_c, 5, 73, 0
23, 748320, Note_on_c, 5, 74, 56
23, 748559, Note_on_c, 5, 74, 0
23, 748560, Note_on_c, 5, 78, 56
23, 748799, Note_on_c, 5, 78, 0
23, 748800, Note_on_c, 5, 69, 56
23, 749039, Note_on_c, 5, 69, 0
23, 749040, Note_on_c, 5, 73, 56
23, 749279, Note_on_c, 5, 73, 0
23, 749280, Note_on_c, 5, 74, 56
23, 749519, Note_on_c, 5, 74, 0
23, 749520, Note_on_c, 5, 78, 56
23, 749759, Note_on_c, 5, 78, 0
23, 749760, Note_on_c, 5, 81, 56
23, 749999, Note_on_c, 5, 81, 0
23, 750000, Note_on_c, 5, 73, 56
23, 750239, Note_on_c, 5, 73, 0
23, 750240, Note_on_c, 5, 74, 56
23, 750479, Note_on_c, 5, 74, 0
23, 750480, Note_on_c, 5, 78, 56
23, 750699, Note_on_c, 5, 78, 0
23, 750720, Note_on_c, 5, 78, 56
23, 750959, Note_on_c, 5, 78, 0
23, 750960, Note_on_c, 5, 76, 56
23, 751199, Note_on_c, 5, 76, 0
23, 751200, Note_on_c, 5, 76, 56
23, 751439, Note_on_c, 5, 76, 0
23, 751440, Note_on_c, 5, 74, 56
23, 751679, Note_on_c, 5, 74, 0
23, 751680, Note_on_c, 5, 69, 56
23, 751919, Note_on_c, 5, 69, 0
23, 751920, Note_on_c, 5, 64, 56
23, 752159, Note_on_c, 5, 64, 0
23, 752160, Note_on_c, 5, 66, 56
23, 752379, Note_on_c, 5, 66, 0
23, 752400, Note_on_c, 5, 74, 56
23, 752639, Note_on_c, 5, 74, 0
23, 752640, Note_on_c, 5, 76, 56
23, 752879, Note_on_c, 5, 76, 0
23, 752880, Note_on_c, 5, 76, 56
23, 753119, Note_on_c, 5, 76, 0
23, 753120, Note_on_c, 5, 74, 56
23, 753359, Note_on_c, 5, 74, 0
23, 753360, Note_on_c, 5, 74, 56
23, 753579, Note_on_c, 5, 74, 0
23, 753600, Note_on_c, 5, 79, 56
23, 753839, Note_on_c, 5, 79, 0
23, 753840, Note_on_c, 5, 79, 56
23, 754079, Note_on_c, 5, 79, 0
23, 754080, Note_on_c, 5, 78, 56
23, 754319, Note_on_c, 5, 78, 0
23, 754320, Note_on_c, 5, 78, 56
23, 754559, Note_on_c, 5, 78, 0
23, 754560, Note_on_c, 5, 69, 56
23, 754799, Note_on_c, 5, 69, 0
23, 754800, Note_on_c, 5, 73, 56
23, 755039, Note_on_c, 5, 73, 0
23, 755040, Note_on_c, 5, 74, 56
23, 755279, Note_on_c, 5, 74, 0
23, 755280, Note_on_c, 5, 78, 56
23, 755519, Note_on_c, 5, 78, 0
23, 755520, Note_on_c, 5, 81, 56
23, 755759, Note_on_c, 5, 81, 0
23, 755760, Note_on_c, 5, 73, 56
23, 755999, Note_on_c, 5, 73, 0
23, 756000, Note_on_c, 5, 74, 56
23, 756239, Note_on_c, 5, 74, 0
23, 756240, Note_on_c, 5, 78, 56
23, 756459, Note_on_c, 5, 78, 0
23, 756480, Note_on_c, 5, 81, 80
23, 756719, Note_on_c, 5, 81, 0
23, 756720, Note_on_c, 5, 79, 80
23, 756959, Note_on_c, 5, 79, 0
23, 756960, Note_on_c, 5, 81, 80
23, 757199, Note_on_c, 5, 81, 0
23, 757200, Note_on_c, 5, 78, 80
23, 757439, Note_on_c, 5, 78, 0
23, 757440, Note_on_c, 5, 81, 80
23, 757679, Note_on_c, 5, 81, 0
23, 757680, Note_on_c, 5, 76, 80
23, 758039, Note_on_c, 5, 76, 0
23, 758040, Note_on_c, 5, 74, 80
23, 758159, Note_on_c, 5, 74, 0
23, 758160, Note_on_c, 5, 81, 80
23, 758399, Note_on_c, 5, 81, 0
23, 758400, Note_on_c, 5, 81, 92
23, 758639, Note_on_c, 5, 81, 0
23, 758640, Note_on_c, 5, 79, 80
23, 758879, Note_on_c, 5, 79, 0
23, 758880, Note_on_c, 5, 81, 92
23, 759119, Note_on_c, 5, 81, 0
23, 759120, Note_on_c, 5, 78, 80
23, 759359, Note_on_c, 5, 78, 0
23, 759360, Note_on_c, 5, 81, 92
23, 759599, Note_on_c, 5, 81, 0
23, 759600, Note_on_c, 5, 76, 80
23, 759959, Note_on_c, 5, 76, 0
23, 759960, Note_on_c, 5, 74, 80
23, 760079, Note_on_c, 5, 74, 0
23, 760080, Note_on_c, 8, 81, 80
23, 760080, Marker_t, "Transition to Soprani tutti"
23, 760559, Note_on_c, 8, 81, 0
23, 760560, Note_on_c, 8, 79, 80
23, 760799, Note_on_c, 8, 79, 0
23, 760800, Note_on_c, 8, 79, 80
23, 761039, Note_on_c, 8, 79, 0
23, 788638, Control_c, 5, 7, 96
23, 788638, Control_c, 5, 11, 127
23, 788638, Control_c, 5, 10, 56
23, 788638, Program_c, 5, 73
23, 788640, Note_on_c, 5, 79, 92
23, 788999, Note_on_c, 5, 79, 0
23, 789000, Note_on_c, 5, 79, 92
23, 789119, Note_on_c, 5, 79, 0
23, 789120, Note_on_c, 5, 79, 92
23, 789359, Note_on_c, 5, 79, 0
23, 789360, Note_on_c, 5, 79, 92
23, 789579, Note_on_c, 5, 79, 0
23, 789600, Note_on_c, 5, 80, 92
23, 789959, Note_on_c, 5, 80, 0
23, 789960, Note_on_c, 5, 80, 92
23, 790059, Note_on_c, 5, 80, 0
23, 790080, Note_on_c, 5, 80, 92
23, 790799, Note_on_c, 5, 80, 0
23, 790800, Note_on_c, 5, 80, 92
23, 791039, Note_on_c, 5, 80, 0
23, 791040, Note_on_c, 5, 80, 92
23, 791040, Control_c, 5, 11, 127
23, 791056, Control_c, 5, 11, 122
23, 791072, Control_c, 5, 11, 117
23, 791088, Control_c, 5, 11, 111
23, 791104, Control_c, 5, 11, 106
23, 791120, Control_c, 5, 11, 101
23, 791136, Control_c, 5, 11, 96
23, 791152, Control_c, 5, 11, 91
23, 791168, Control_c, 5, 11, 85
23, 791184, Control_c, 5, 11, 80
23, 791200, Control_c, 5, 11, 75
23, 791216, Control_c, 5, 11, 70
23, 791232, Control_c, 5, 11, 65
23, 791248, Control_c, 5, 11, 59
23, 791264, Control_c, 5, 11, 54
23, 791339, Note_on_c, 5, 80, 0
23, 791340, Note_on_c, 5, 76, 92
23, 791399, Note_on_c, 5, 76, 0
23, 791400, Note_on_c, 5, 76, 92
23, 791519, Note_on_c, 5, 76, 0
23, 791520, Control_c, 5, 11, 49
23, 791520, Note_on_c, 5, 76, 92
23, 791560, Control_c, 5, 11, 52
23, 791600, Control_c, 5, 11, 55
23, 791640, Control_c, 5, 11, 59
23, 791680, Control_c, 5, 11, 62
23, 791720, Control_c, 5, 11, 65
23, 791759, Note_on_c, 5, 76, 0
23, 791760, Control_c, 5, 11, 69
23, 791760, Note_on_c, 5, 76, 92
23, 791800, Control_c, 5, 11, 72
23, 791840, Control_c, 5, 11, 75
23, 791880, Control_c, 5, 11, 79
23, 791920, Control_c, 5, 11, 82
23, 791960, Control_c, 5, 11, 85
23, 791999, Note_on_c, 5, 76, 0
23, 792000, Note_on_c, 5, 76, 92
23, 792000, Control_c, 5, 11, 89
23, 792040, Control_c, 5, 11, 82
23, 792080, Control_c, 5, 11, 75
23, 792119, Note_on_c, 5, 76, 0
23, 792120, Control_c, 5, 11, 69
23, 792120, Note_on_c, 5, 75, 92
23, 792160, Control_c, 5, 11, 62
23, 792200, Control_c, 5, 11, 55
23, 792239, Note_on_c, 5, 75, 0
23, 792240, Note_on_c, 5, 75, 92
23, 792240, Control_c, 5, 11, 49
23, 792464, Note_on_c, 5, 75, 0
23, 792480, Note_on_c, 5, 75, 92
23, 792719, Note_on_c, 5, 75, 0
23, 792720, Note_on_c, 5, 75, 92
23, 792959, Note_on_c, 5, 75, 0
23, 792960, Note_on_c, 5, 73, 92
23, 793319, Note_on_c, 5, 73, 0
23, 793320, Note_on_c, 5, 75, 92
23, 793359, Note_on_c, 5, 75, 0
23, 793360, Note_on_c, 5, 73, 92
23, 793399, Note_on_c, 5, 73, 0
23, 793400, Note_on_c, 5, 72, 92
23, 793439, Note_on_c, 5, 72, 0
23, 793440, Note_on_c, 5, 73, 92
23, 793519, Note_on_c, 5, 73, 0
23, 793520, Note_on_c, 5, 68, 92
23, 793599, Note_on_c, 5, 68, 0
23, 793600, Note_on_c, 5, 75, 92
23, 793679, Note_on_c, 5, 75, 0
23, 793680, Note_on_c, 5, 78, 92
23, 793759, Note_on_c, 5, 78, 0
23, 793760, Note_on_c, 5, 76, 92
23, 793839, Note_on_c, 5, 76, 0
23, 793840, Note_on_c, 5, 73, 92
23, 793919, Note_on_c, 5, 73, 0
23, 793920, Note_on_c, 5, 71, 92
23, 793999, Note_on_c, 5, 71, 0
23, 794000, Note_on_c, 5, 73, 92
23, 794079, Note_on_c, 5, 73, 0
23, 794080, Note_on_c, 5, 70, 92
23, 794159, Note_on_c, 5, 70, 0
23, 794160, Note_on_c, 5, 71, 92
23, 794239, Note_on_c, 5, 71, 0
23, 794240, Note_on_c, 5, 73, 92
23, 794319, Note_on_c, 5, 73, 0
23, 794320, Note_on_c, 5, 75, 92
23, 794399, Note_on_c, 5, 75, 0
23, 794400, Note_on_c, 5, 76, 92
23, 794479, Note_on_c, 5, 76, 0
23, 794480, Note_on_c, 5, 77, 92
23, 794559, Note_on_c, 5, 77, 0
23, 794560, Note_on_c, 5, 78, 92
23, 794639, Note_on_c, 5, 78, 0
23, 794640, Note_on_c, 5, 77, 92
23, 794699, Note_on_c, 5, 77, 0
23, 794700, Note_on_c, 5, 78, 92
23, 794759, Note_on_c, 5, 78, 0
23, 794760, Note_on_c, 5, 80, 92
23, 794819, Note_on_c, 5, 80, 0
23, 794820, Note_on_c, 5, 78, 92
23, 794879, Note_on_c, 5, 78, 0
23, 794880, Note_on_c, 5, 78, 92
23, 795599, Note_on_c, 5, 78, 0
23, 795600, Note_on_c, 5, 76, 92
23, 795839, Note_on_c, 5, 76, 0
23, 795840, Note_on_c, 5, 75, 92
23, 795959, Note_on_c, 5, 75, 0
23, 795960, Note_on_c, 5, 75, 92
23, 796079, Note_on_c, 5, 75, 0
23, 796080, Note_on_c, 5, 75, 92
23, 796799, Note_on_c, 5, 75, 0
23, 796920, Note_on_c, 5, 75, 92
23, 797039, Note_on_c, 5, 75, 0
23, 797040, Note_on_c, 5, 75, 92
23, 797759, Note_on_c, 5, 75, 0
23, 797760, Note_on_c, 5, 73, 92
23, 797880, Control_c, 5, 11, 49
23, 797950, Control_c, 5, 11, 52
23, 797999, Note_on_c, 5, 73, 0
23, 798000, Note_on_c, 5, 78, 92
23, 798020, Control_c, 5, 11, 55
23, 798090, Control_c, 5, 11, 59
23, 798160, Control_c, 5, 11, 62
23, 798230, Control_c, 5, 11, 65
23, 798239, Note_on_c, 5, 78, 0
23, 798240, Note_on_c, 5, 80, 92
23, 798300, Control_c, 5, 11, 69
23, 798370, Control_c, 5, 11, 72
23, 798440, Control_c, 5, 11, 75
23, 798479, Note_on_c, 5, 80, 0
23, 798480, Note_on_c, 5, 82, 92
23, 798510, Control_c, 5, 11, 79
23, 798580, Control_c, 5, 11, 82
23, 798650, Control_c, 5, 11, 85
23, 798719, Note_on_c, 5, 82, 0
23, 798720, Control_c, 5, 11, 89
23, 798720, Note_on_c, 5, 83, 92
23, 798959, Note_on_c, 5, 83, 0
23, 798960, Note_on_c, 5, 83, 92
23, 798960, Control_c, 5, 11, 89
23, 799000, Control_c, 5, 11, 82
23, 799040, Control_c, 5, 11, 75
23, 799079, Note_on_c, 5, 83, 0
23, 799080, Control_c, 5, 11, 69
23, 799080, Note_on_c, 5, 78, 92
23, 799120, Control_c, 5, 11, 62
23, 799160, Control_c, 5, 11, 55
23, 799199, Note_on_c, 5, 78, 0
23, 799200, Control_c, 5, 11, 49
23, 799200, Note_on_c, 5, 78, 92
23, 800639, Note_on_c, 5, 78, 0
23, 801600, Control_c, 5, 11, 127
23, 801600, End_track
24, 0, Start_track
24, 0, Title_t, "Alto Solo"
24, 0, MIDI_port, 0
24, 0, Program_c, 10, 73
24, 0, Control_c, 10, 7, 96
24, 228240, Control_c, 10, 10, 56
24, 228480, Note_on_c, 10, 66, 68
24, 228719, Note_on_c, 10, 66, 0
24, 228720, Note_on_c, 10, 66, 68
24, 228959, Note_on_c, 10, 66, 0
24, 228960, Note_on_c, 10, 67, 68
24, 229199, Note_on_c, 10, 67, 0
24, 229200, Note_on_c, 10, 69, 68
24, 229439, Note_on_c, 10, 69, 0
24, 229440, Note_on_c, 10, 69, 68
24, 229679, Note_on_c, 10, 69, 0
24, 229680, Note_on_c, 10, 67, 68
24, 229919, Note_on_c, 10, 67, 0
24, 229920, Note_on_c, 10, 66, 68
24, 230159, Note_on_c, 10, 66, 0
24, 230160, Note_on_c, 10, 64, 68
24, 230384, Note_on_c, 10, 64, 0
24, 230400, Note_on_c, 10, 62, 68
24, 230639, Note_on_c, 10, 62, 0
24, 230640, Note_on_c, 10, 62, 68
24, 230879, Note_on_c, 10, 62, 0
24, 230880, Note_on_c, 10, 64, 68
24, 231119, Note_on_c, 10, 64, 0
24, 231120, Note_on_c, 10, 66, 68
24, 231359, Note_on_c, 10, 66, 0
24, 231360, Note_on_c, 10, 66, 68
24, 231719, Note_on_c, 10, 66, 0
24, 231720, Note_on_c, 10, 64, 68
24, 231839, Note_on_c, 10, 64, 0
24, 231840, Note_on_c, 10, 64, 68
24, 232289, Note_on_c, 10, 64, 0
24, 232320, Note_on_c, 10, 66, 68
24, 232559, Note_on_c, 10, 66, 0
24, 232560, Note_on_c, 10, 66, 68
24, 232799, Note_on_c, 10, 66, 0
24, 232800, Note_on_c, 10, 67, 68
24, 233039, Note_on_c, 10, 67, 0
24, 233040, Note_on_c, 10, 69, 68
24, 233279, Note_on_c, 10, 69, 0
24, 233280, Note_on_c, 10, 69, 68
24, 233519, Note_on_c, 10, 69, 0
24, 233520, Note_on_c, 10, 67, 68
24, 233759, Note_on_c, 10, 67, 0
24, 233760, Note_on_c, 10, 66, 68
24, 233999, Note_on_c, 10, 66, 0
24, 234000, Note_on_c, 10, 64, 68
24, 234224, Note_on_c, 10, 64, 0
24, 234240, Note_on_c, 10, 62, 68
24, 234479, Note_on_c, 10, 62, 0
24, 234480, Note_on_c, 10, 66, 68
24, 234719, Note_on_c, 10, 66, 0
24, 234720, Note_on_c, 10, 67, 68
24, 234959, Note_on_c, 10, 67, 0
24, 234960, Note_on_c, 10, 69, 68
24, 235199, Note_on_c, 10, 69, 0
24, 235200, Note_on_c, 10, 67, 68
24, 235559, Note_on_c, 10, 67, 0
24, 235560, Note_on_c, 10, 66, 68
24, 235679, Note_on_c, 10, 66, 0
24, 235680, Note_on_c, 10, 66, 68
24, 235799, Note_on_c, 10, 66, 0
24, 235800, Note_on_c, 10, 69, 68
24, 235919, Note_on_c, 10, 69, 0
24, 235920, Note_on_c, 10, 67, 68
24, 236039, Note_on_c, 10, 67, 0
24, 236040, Note_on_c, 10, 66, 68
24, 236129, Note_on_c, 10, 66, 0
24, 236160, Note_on_c, 10, 64, 68
24, 236369, Note_on_c, 10, 64, 0
24, 236400, Note_on_c, 10, 69, 68
24, 236639, Note_on_c, 10, 69, 0
24, 236640, Note_on_c, 10, 69, 68
24, 236879, Note_on_c, 10, 69, 0
24, 236880, Note_on_c, 10, 66, 68
24, 236999, Note_on_c, 10, 66, 0
24, 237000, Note_on_c, 10, 69, 68
24, 237119, Note_on_c, 10, 69, 0
24, 237120, Note_on_c, 10, 69, 68
24, 237359, Note_on_c, 10, 69, 0
24, 237360, Note_on_c, 10, 69, 68
24, 237599, Note_on_c, 10, 69, 0
24, 237600, Note_on_c, 10, 69, 68
24, 237839, Note_on_c, 10, 69, 0
24, 237840, Note_on_c, 10, 67, 68
24, 237959, Note_on_c, 10, 67, 0
24, 237960, Note_on_c, 10, 66, 68
24, 238079, Note_on_c, 10, 66, 0
24, 238080, Note_on_c, 10, 64, 68
24, 238199, Note_on_c, 10, 64, 0
24, 238200, Note_on_c, 10, 73, 68
24, 238319, Note_on_c, 10, 73, 0
24, 238320, Note_on_c, 10, 74, 68
24, 238439, Note_on_c, 10, 74, 0
24, 238440, Note_on_c, 10, 76, 68
24, 238559, Note_on_c, 10, 76, 0
24, 238560, Note_on_c, 10, 73, 68
24, 238799, Note_on_c, 10, 73, 0
24, 238800, Note_on_c, 10, 73, 68
24, 239039, Note_on_c, 10, 73, 0
24, 239040, Note_on_c, 10, 71, 68
24, 239279, Note_on_c, 10, 71, 0
24, 239280, Note_on_c, 10, 68, 68
24, 239519, Note_on_c, 10, 68, 0
24, 239520, Note_on_c, 10, 69, 68
24, 239729, Note_on_c, 10, 69, 0
24, 239758, Control_c, 10, 11, 107
24, 239760, Note_on_c, 10, 69, 80
24, 239760, Control_c, 10, 11, 109
24, 239820, Control_c, 10, 11, 110
24, 239880, Control_c, 10, 11, 112
24, 239940, Control_c, 10, 11, 114
24, 240000, Control_c, 10, 11, 115
24, 240060, Control_c, 10, 11, 116
24, 240120, Control_c, 10, 11, 119
24, 240180, Control_c, 10, 11, 120
24, 240239, Note_on_c, 10, 69, 0
24, 240240, Control_c, 10, 11, 121
24, 240240, Note_on_c, 10, 69, 80
24, 240300, Control_c, 10, 11, 122
24, 240360, Control_c, 10, 11, 125
24, 240420, Control_c, 10, 11, 126
24, 240479, Note_on_c, 10, 69, 0
24, 240480, Control_c, 10, 11, 127
24, 240480, Note_on_c, 10, 69, 92
24, 240719, Note_on_c, 10, 69, 0
24, 240720, Note_on_c, 10, 69, 80
24, 240959, Note_on_c, 10, 69, 0
24, 240960, Note_on_c, 10, 69, 80
24, 241184, Note_on_c, 10, 69, 0
24, 241200, Note_on_c, 10, 69, 80
24, 241439, Note_on_c, 10, 69, 0
24, 241440, Note_on_c, 10, 69, 80
24, 241679, Note_on_c, 10, 69, 0
24, 241680, Note_on_c, 10, 69, 80
24, 241919, Note_on_c, 10, 69, 0
24, 241920, Note_on_c, 10, 69, 80
24, 242159, Note_on_c, 10, 69, 0
24, 242160, Note_on_c, 10, 66, 80
24, 242399, Note_on_c, 10, 66, 0
24, 242400, Note_on_c, 10, 67, 80
24, 242639, Note_on_c, 10, 67, 0
24, 242640, Note_on_c, 10, 69, 80
24, 242879, Note_on_c, 10, 69, 0
24, 242880, Note_on_c, 10, 67, 80
24, 243239, Note_on_c, 10, 67, 0
24, 243240, Note_on_c, 10, 66, 80
24, 243359, Note_on_c, 10, 66, 0
24, 243360, Note_on_c, 10, 66, 80
24, 243809, Note_on_c, 10, 66, 0
24, 243840, Marker_t, "Transition to Alti Tutti"
24, 258240, Control_c, 10, 10, 56
24, 258240, Control_c, 10, 11, 127
24, 258720, Note_on_c, 10, 67, 44
24, 258839, Note_on_c, 10, 67, 0
24, 258840, Note_on_c, 10, 66, 44
24, 258959, Note_on_c, 10, 66, 0
24, 258960, Note_on_c, 10, 69, 44
24, 259079, Note_on_c, 10, 69, 0
24, 259080, Note_on_c, 10, 67, 44
24, 259199, Note_on_c, 10, 67, 0
24, 259200, Note_on_c, 10, 66, 44
24, 259319, Note_on_c, 10, 66, 0
24, 259320, Note_on_c, 10, 67, 44
24, 259439, Note_on_c, 10, 67, 0
24, 259440, Note_on_c, 10, 68, 44
24, 259559, Note_on_c, 10, 68, 0
24, 259560, Note_on_c, 10, 69, 44
24, 259679, Note_on_c, 10, 69, 0
24, 259680, Note_on_c, 10, 68, 44
24, 259799, Note_on_c, 10, 68, 0
24, 259800, Note_on_c, 10, 69, 44
24, 259919, Note_on_c, 10, 69, 0
24, 259920, Note_on_c, 10, 71, 44
24, 260039, Note_on_c, 10, 71, 0
24, 260040, Note_on_c, 10, 69, 44
24, 260144, Note_on_c, 10, 69, 0
24, 260160, Note_on_c, 10, 69, 44
24, 260279, Note_on_c, 10, 69, 0
24, 260280, Note_on_c, 10, 67, 44
24, 260399, Note_on_c, 10, 67, 0
24, 260400, Note_on_c, 10, 71, 44
24, 260519, Note_on_c, 10, 71, 0
24, 260520, Note_on_c, 10, 67, 44
24, 260639, Note_on_c, 10, 67, 0
24, 260640, Note_on_c, 10, 66, 44
24, 260759, Note_on_c, 10, 66, 0
24, 260760, Note_on_c, 10, 64, 44
24, 260879, Note_on_c, 10, 64, 0
24, 260880, Note_on_c, 10, 67, 44
24, 260999, Note_on_c, 10, 67, 0
24, 261000, Note_on_c, 10, 64, 44
24, 261119, Note_on_c, 10, 64, 0
24, 261120, Note_on_c, 10, 62, 44
24, 261239, Note_on_c, 10, 62, 0
24, 261240, Note_on_c, 10, 64, 44
24, 261359, Note_on_c, 10, 64, 0
24, 261360, Note_on_c, 10, 66, 44
24, 261479, Note_on_c, 10, 66, 0
24, 261480, Note_on_c, 10, 67, 44
24, 261599, Note_on_c, 10, 67, 0
24, 261600, Note_on_c, 10, 69, 44
24, 261719, Note_on_c, 10, 69, 0
24, 261720, Note_on_c, 10, 71, 44
24, 261839, Note_on_c, 10, 71, 0
24, 261840, Note_on_c, 10, 73, 44
24, 261959, Note_on_c, 10, 73, 0
24, 261960, Note_on_c, 10, 74, 44
24, 262079, Note_on_c, 10, 74, 0
24, 262080, Note_on_c, 10, 74, 44
24, 262199, Note_on_c, 10, 74, 0
24, 262200, Note_on_c, 10, 73, 44
24, 262319, Note_on_c, 10, 73, 0
24, 262320, Note_on_c, 10, 71, 44
24, 262439, Note_on_c, 10, 71, 0
24, 262440, Note_on_c, 10, 73, 44
24, 262559, Note_on_c, 10, 73, 0
24, 262560, Note_on_c, 10, 74, 44
24, 262679, Note_on_c, 10, 74, 0
24, 262680, Note_on_c, 10, 69, 44
24, 262769, Note_on_c, 10, 69, 0
24, 262800, Note_on_c, 10, 67, 44
24, 262919, Note_on_c, 10, 67, 0
24, 262920, Note_on_c, 10, 66, 44
24, 263039, Note_on_c, 10, 66, 0
24, 263040, Note_on_c, 10, 64, 44
24, 263279, Note_on_c, 10, 64, 0
24, 263280, Note_on_c, 10, 69, 44
24, 263519, Note_on_c, 10, 69, 0
24, 263520, Note_on_c, 10, 69, 44
24, 263759, Note_on_c, 10, 69, 0
24, 263760, Note_on_c, 10, 69, 44
24, 263999, Note_on_c, 10, 69, 0
24, 264000, Note_on_c, 10, 69, 44
24, 264239, Note_on_c, 10, 69, 0
24, 264240, Note_on_c, 10, 69, 44
24, 264479, Note_on_c, 10, 69, 0
24, 264480, Note_on_c, 10, 69, 44
24, 264719, Note_on_c, 10, 69, 0
24, 264720, Note_on_c, 10, 73, 44
24, 264839, Note_on_c, 10, 73, 0
24, 264840, Note_on_c, 10, 74, 44
24, 264944, Note_on_c, 10, 74, 0
24, 264960, Note_on_c, 10, 74, 44
24, 265079, Note_on_c, 10, 74, 0
24, 265080, Note_on_c, 10, 73, 44
24, 265199, Note_on_c, 10, 73, 0
24, 265200, Note_on_c, 10, 71, 44
24, 265319, Note_on_c, 10, 71, 0
24, 265320, Note_on_c, 10, 73, 44
24, 265439, Note_on_c, 10, 73, 0
24, 265440, Note_on_c, 10, 76, 44
24, 265559, Note_on_c, 10, 76, 0
24, 265560, Note_on_c, 10, 74, 44
24, 265679, Note_on_c, 10, 74, 0
24, 265680, Note_on_c, 10, 74, 44
24, 265799, Note_on_c, 10, 74, 0
24, 265800, Note_on_c, 10, 73, 44
24, 265919, Note_on_c, 10, 73, 0
24, 265920, Note_on_c, 10, 73, 44
24, 266039, Note_on_c, 10, 73, 0
24, 266040, Note_on_c, 10, 74, 44
24, 266159, Note_on_c, 10, 74, 0
24, 266160, Note_on_c, 10, 71, 44
24, 266399, Note_on_c, 10, 71, 0
24, 266400, Note_on_c, 10, 69, 44
24, 266609, Note_on_c, 10, 69, 0
24, 266640, Note_on_c, 10, 69, 44
24, 267119, Note_on_c, 10, 69, 0
24, 267120, Note_on_c, 10, 69, 44
24, 267359, Note_on_c, 10, 69, 0
24, 267360, Note_on_c, 10, 62, 44
24, 267599, Note_on_c, 10, 62, 0
24, 267600, Note_on_c, 10, 62, 44
24, 267839, Note_on_c, 10, 62, 0
24, 267840, Note_on_c, 10, 62, 44
24, 268079, Note_on_c, 10, 62, 0
24, 268080, Note_on_c, 10, 67, 44
24, 268319, Note_on_c, 10, 67, 0
24, 268320, Note_on_c, 10, 67, 44
24, 268439, Note_on_c, 10, 67, 0
24, 268440, Note_on_c, 10, 76, 44
24, 268559, Note_on_c, 10, 76, 0
24, 268560, Note_on_c, 10, 76, 44
24, 268679, Note_on_c, 10, 76, 0
24, 268680, Note_on_c, 10, 67, 44
24, 268784, Note_on_c, 10, 67, 0
24, 268800, Note_on_c, 10, 67, 44
24, 268919, Note_on_c, 10, 67, 0
24, 268920, Note_on_c, 10, 69, 44
24, 269039, Note_on_c, 10, 69, 0
24, 269040, Note_on_c, 10, 69, 44
24, 269279, Note_on_c, 10, 69, 0
24, 269280, Note_on_c, 10, 66, 80
24, 269399, Note_on_c, 10, 66, 0
24, 269400, Note_on_c, 10, 67, 80
24, 269639, Note_on_c, 10, 67, 0
24, 269640, Note_on_c, 10, 69, 80
24, 269759, Note_on_c, 10, 69, 0
24, 269760, Note_on_c, 10, 74, 80
24, 269879, Note_on_c, 10, 74, 0
24, 269880, Note_on_c, 10, 73, 80
24, 270119, Note_on_c, 10, 73, 0
24, 270120, Note_on_c, 10, 74, 80
24, 270239, Note_on_c, 10, 74, 0
24, 270240, Note_on_c, 10, 74, 80
24, 270689, Note_on_c, 10, 74, 0
24, 270720, Marker_t, "Transition to Alti Tutti"
24, 729600, Note_on_c, 5, 66, 56
24, 730199, Note_on_c, 5, 66, 0
24, 730200, Note_on_c, 5, 67, 56
24, 730319, Note_on_c, 5, 67, 0
24, 730320, Note_on_c, 5, 69, 56
24, 730439, Note_on_c, 5, 69, 0
24, 730440, Note_on_c, 5, 66, 56
24, 730539, Note_on_c, 5, 66, 0
24, 730560, Note_on_c, 5, 67, 56
24, 730799, Note_on_c, 5, 67, 0
24, 730800, Note_on_c, 5, 67, 56
24, 731039, Note_on_c, 5, 67, 0
24, 731040, Note_on_c, 5, 67, 56
24, 731279, Note_on_c, 5, 67, 0
24, 731280, Note_on_c, 5, 67, 56
24, 731519, Note_on_c, 5, 67, 0
24, 731520, Note_on_c, 5, 67, 56
24, 731879, Note_on_c, 5, 67, 0
24, 731880, Note_on_c, 5, 66, 56
24, 731999, Note_on_c, 5, 66, 0
24, 732000, Note_on_c, 5, 66, 56
24, 732479, Note_on_c, 5, 66, 0
24, 737280, Note_on_c, 5, 69, 56
24, 737879, Note_on_c, 5, 69, 0
24, 737880, Note_on_c, 5, 71, 56
24, 737999, Note_on_c, 5, 71, 0
24, 738000, Note_on_c, 5, 73, 56
24, 738119, Note_on_c, 5, 73, 0
24, 738120, Note_on_c, 5, 69, 56
24, 738219, Note_on_c, 5, 69, 0
24, 738240, Note_on_c, 5, 71, 56
24, 738479, Note_on_c, 5, 71, 0
24, 738480, Note_on_c, 5, 71, 56
24, 738719, Note_on_c, 5, 71, 0
24, 738720, Note_on_c, 5, 71, 56
24, 738959, Note_on_c, 5, 71, 0
24, 738960, Note_on_c, 5, 71, 56
24, 739199, Note_on_c, 5, 71, 0
24, 739200, Note_on_c, 5, 71, 56
24, 739559, Note_on_c, 5, 71, 0
24, 739560, Note_on_c, 5, 69, 56
24, 739679, Note_on_c, 5, 69, 0
24, 739680, Note_on_c, 5, 69, 56
24, 740159, Note_on_c, 5, 69, 0
24, 743040, Note_on_c, 5, 67, 56
24, 743279, Note_on_c, 5, 67, 0
24, 743280, Note_on_c, 5, 67, 56
24, 743519, Note_on_c, 5, 67, 0
24, 743520, Note_on_c, 5, 66, 56
24, 743759, Note_on_c, 5, 66, 0
24, 743760, Note_on_c, 5, 66, 56
24, 743979, Note_on_c, 5, 66, 0
24, 744000, Note_on_c, 5, 73, 56
24, 744239, Note_on_c, 5, 73, 0
24, 744240, Note_on_c, 5, 73, 56
24, 744479, Note_on_c, 5, 73, 0
24, 744480, Note_on_c, 5, 74, 56
24, 744719, Note_on_c, 5, 74, 0
24, 744720, Note_on_c, 5, 74, 56
24, 744959, Note_on_c, 5, 74, 0
24, 744960, Note_on_c, 5, 74, 56
24, 745199, Note_on_c, 5, 74, 0
24, 745200, Note_on_c, 5, 73, 56
24, 745439, Note_on_c, 5, 73, 0
24, 745440, Note_on_c, 5, 69, 56
24, 745679, Note_on_c, 5, 69, 0
24, 745680, Note_on_c, 5, 74, 56
24, 745919, Note_on_c, 5, 74, 0
24, 745920, Note_on_c, 5, 69, 56
24, 746159, Note_on_c, 5, 69, 0
24, 746160, Note_on_c, 5, 73, 56
24, 746399, Note_on_c, 5, 73, 0
24, 746400, Note_on_c, 5, 74, 56
24, 746879, Note_on_c, 5, 74, 0
24, 747840, Note_on_c, 5, 64, 56
24, 748079, Note_on_c, 5, 64, 0
24, 748080, Note_on_c, 5, 64, 56
24, 748319, Note_on_c, 5, 64, 0
24, 748320, Note_on_c, 5, 62, 56
24, 748559, Note_on_c, 5, 62, 0
24, 748560, Note_on_c, 5, 62, 56
24, 748779, Note_on_c, 5, 62, 0
24, 748800, Note_on_c, 5, 67, 56
24, 749039, Note_on_c, 5, 67, 0
24, 749040, Note_on_c, 5, 67, 56
24, 749279, Note_on_c, 5, 67, 0
24, 749280, Note_on_c, 5, 66, 56
24, 749519, Note_on_c, 5, 66, 0
24, 749520, Note_on_c, 5, 66, 56
24, 749759, Note_on_c, 5, 66, 0
24, 749760, Note_on_c, 5, 66, 56
24, 749999, Note_on_c, 5, 66, 0
24, 750000, Note_on_c, 5, 64, 56
24, 750239, Note_on_c, 5, 64, 0
24, 750240, Note_on_c, 5, 62, 56
24, 750479, Note_on_c, 5, 62, 0
24, 750480, Note_on_c, 5, 69, 56
24, 750719, Note_on_c, 5, 69, 0
24, 750720, Note_on_c, 5, 69, 56
24, 750959, Note_on_c, 5, 69, 0
24, 750960, Note_on_c, 5, 67, 56
24, 751199, Note_on_c, 5, 67, 0
24, 751200, Note_on_c, 5, 67, 56
24, 751439, Note_on_c, 5, 67, 0
24, 751440, Note_on_c, 5, 66, 56
24, 751659, Note_on_c, 5, 66, 0
24, 751680, Note_on_c, 5, 69, 56
24, 753119, Note_on_c, 5, 69, 0
24, 753120, Note_on_c, 5, 69, 56
24, 753599, Note_on_c, 5, 69, 0
24, 753600, Note_on_c, 5, 69, 56
24, 754079, Note_on_c, 5, 69, 0
24, 754080, Note_on_c, 5, 69, 56
24, 754559, Note_on_c, 5, 69, 0
24, 754560, Note_on_c, 5, 69, 56
24, 755039, Note_on_c, 5, 69, 0
24, 755040, Note_on_c, 5, 69, 56
24, 755519, Note_on_c, 5, 69, 0
24, 756000, Note_on_c, 5, 69, 56
24, 756719, Note_on_c, 5, 69, 0
24, 756720, Note_on_c, 5, 69, 56
24, 756959, Note_on_c, 5, 69, 0
24, 756960, Note_on_c, 5, 69, 56
24, 757199, Note_on_c, 5, 69, 0
24, 757200, Note_on_c, 5, 69, 56
24, 757439, Note_on_c, 5, 69, 0
24, 757440, Note_on_c, 5, 69, 56
24, 757679, Note_on_c, 5, 69, 0
24, 757680, Note_on_c, 5, 73, 56
24, 757919, Note_on_c, 5, 73, 0
24, 757920, Note_on_c, 5, 69, 56
24, 758159, Note_on_c, 5, 69, 0
24, 758160, Note_on_c, 5, 74, 56
24, 758399, Note_on_c, 5, 74, 0
24, 758400, Note_on_c, 5, 69, 56
24, 758639, Note_on_c, 5, 69, 0
24, 758640, Note_on_c, 5, 73, 56
24, 758879, Note_on_c, 5, 73, 0
24, 758880, Note_on_c, 5, 69, 56
24, 759119, Note_on_c, 5, 69, 0
24, 759120, Note_on_c, 5, 74, 56
24, 759359, Note_on_c, 5, 74, 0
24, 759360, Note_on_c, 5, 69, 56
24, 759599, Note_on_c, 5, 69, 0
24, 759600, Note_on_c, 5, 73, 56
24, 759839, Note_on_c, 5, 73, 0
24, 759840, Note_on_c, 5, 69, 56
24, 760079, Note_on_c, 5, 69, 0
24, 760080, Note_on_c, 8, 74, 56
24, 760559, Note_on_c, 8, 74, 0
24, 760560, Note_on_c, 8, 76, 56
24, 760799, Note_on_c, 8, 76, 0
24, 760800, Note_on_c, 8, 76, 56
24, 761039, Note_on_c, 8, 76, 0
24, 788640, Note_on_c, 5, 71, 92
24, 788999, Note_on_c, 5, 71, 0
24, 789000, Note_on_c, 5, 71, 92
24, 789119, Note_on_c, 5, 71, 0
24, 789120, Note_on_c, 5, 71, 92
24, 789359, Note_on_c, 5, 71, 0
24, 789360, Note_on_c, 5, 71, 92
24, 789579, Note_on_c, 5, 71, 0
24, 789600, Note_on_c, 5, 71, 92
24, 789959, Note_on_c, 5, 71, 0
24, 789960, Note_on_c, 5, 71, 92
24, 790059, Note_on_c, 5, 71, 0
24, 790080, Note_on_c, 5, 71, 92
24, 790799, Note_on_c, 5, 71, 0
24, 790800, Note_on_c, 5, 71, 92
24, 791039, Note_on_c, 5, 71, 0
24, 791040, Note_on_c, 5, 71, 92
24, 791339, Note_on_c, 5, 71, 0
24, 791340, Note_on_c, 5, 64, 92
24, 791399, Note_on_c, 5, 64, 0
24, 791400, Note_on_c, 5, 64, 92
24, 791519, Note_on_c, 5, 64, 0
24, 791520, Note_on_c, 5, 71, 92
24, 791759, Note_on_c, 5, 71, 0
24, 791760, Note_on_c, 5, 71, 92
24, 791999, Note_on_c, 5, 71, 0
24, 792000, Note_on_c, 5, 71, 92
24, 792239, Note_on_c, 5, 71, 0
24, 792240, Note_on_c, 5, 71, 92
24, 792359, Note_on_c, 5, 71, 0
24, 792360, Note_on_c, 5, 66, 92
24, 792464, Note_on_c, 5, 66, 0
24, 792480, Note_on_c, 5, 66, 92
24, 792599, Note_on_c, 5, 66, 0
24, 792600, Note_on_c, 5, 63, 92
24, 792719, Note_on_c, 5, 63, 0
24, 792720, Note_on_c, 5, 63, 92
24, 792839, Note_on_c, 5, 63, 0
24, 792840, Note_on_c, 5, 71, 92
24, 792959, Note_on_c, 5, 71, 0
24, 792960, Note_on_c, 5, 68, 92
24, 793559, Note_on_c, 5, 68, 0
24, 793560, Note_on_c, 5, 66, 92
24, 793679, Note_on_c, 5, 66, 0
24, 793680, Note_on_c, 5, 68, 92
24, 793799, Note_on_c, 5, 68, 0
24, 793800, Note_on_c, 5, 64, 92
24, 793919, Note_on_c, 5, 64, 0
24, 793920, Note_on_c, 5, 63, 92
24, 794279, Note_on_c, 5, 63, 0
24, 794280, Note_on_c, 5, 71, 92
24, 794879, Note_on_c, 5, 71, 0
24, 794880, Note_on_c, 5, 70, 92
24, 794959, Note_on_c, 5, 70, 0
24, 794960, Note_on_c, 5, 71, 92
24, 795039, Note_on_c, 5, 71, 0
24, 795040, Note_on_c, 5, 68, 92
24, 795119, Note_on_c, 5, 68, 0
24, 795120, Note_on_c, 5, 70, 92
24, 795199, Note_on_c, 5, 70, 0
24, 795200, Note_on_c, 5, 71, 92
24, 795279, Note_on_c, 5, 71, 0
24, 795280, Note_on_c, 5, 73, 92
24, 795439, Note_on_c, 5, 73, 0
24, 795440, Note_on_c, 5, 75, 92
24, 795519, Note_on_c, 5, 75, 0
24, 795520, Note_on_c, 5, 76, 92
24, 795599, Note_on_c, 5, 76, 0
24, 795600, Note_on_c, 5, 68, 92
24, 795659, Note_on_c, 5, 68, 0
24, 795660, Note_on_c, 5, 66, 92
24, 795719, Note_on_c, 5, 66, 0
24, 795720, Note_on_c, 5, 68, 92
24, 795779, Note_on_c, 5, 68, 0
24, 795780, Note_on_c, 5, 70, 92
24, 795839, Note_on_c, 5, 70, 0
24, 795840, Note_on_c, 5, 71, 92
24, 795959, Note_on_c, 5, 71, 0
24, 795960, Note_on_c, 5, 71, 92
24, 796079, Note_on_c, 5, 71, 0
24, 796080, Note_on_c, 5, 71, 92
24, 796799, Note_on_c, 5, 71, 0
24, 796920, Note_on_c, 5, 71, 92
24, 797039, Note_on_c, 5, 71, 0
24, 797040, Note_on_c, 5, 71, 92
24, 797759, Note_on_c, 5, 71, 0
24, 797760, Note_on_c, 5, 70, 92
24, 798239, Note_on_c, 5, 70, 0
24, 798240, Note_on_c, 5, 71, 92
24, 798479, Note_on_c, 5, 71, 0
24, 798480, Note_on_c, 5, 73, 92
24, 798719, Note_on_c, 5, 73, 0
24, 798720, Note_on_c, 5, 71, 92
24, 798959, Note_on_c, 5, 71, 0
24, 798960, Note_on_c, 5, 66, 92
24, 799079, Note_on_c, 5, 66, 0
24, 799080, Note_on_c, 5, 71, 92
24, 799199, Note_on_c, 5, 71, 0
24, 799200, Note_on_c, 5, 74, 92
24, 800639, Note_on_c, 5, 74, 0
24, 800639, End_track
25, 0, Start_track
25, 0, Title_t, "Tenor Solo"
25, 0, MIDI_port, 0
25, 0, Program_c, 11, 70
25, 0, Control_c, 11, 11, 127
25, 228240, Control_c, 11, 10, 72
25, 228240, Control_c, 11, 7, 104
25, 228480, Note_on_c, 11, 62, 68
25, 228719, Note_on_c, 11, 62, 0
25, 228720, Note_on_c, 11, 62, 68
25, 228959, Note_on_c, 11, 62, 0
25, 228960, Note_on_c, 11, 64, 68
25, 229199, Note_on_c, 11, 64, 0
25, 229200, Note_on_c, 11, 66, 68
25, 229439, Note_on_c, 11, 66, 0
25, 229440, Note_on_c, 11, 66, 68
25, 229679, Note_on_c, 11, 66, 0
25, 229680, Note_on_c, 11, 64, 68
25, 229919, Note_on_c, 11, 64, 0
25, 229920, Note_on_c, 11, 62, 68
25, 230159, Note_on_c, 11, 62, 0
25, 230160, Note_on_c, 11, 61, 68
25, 230384, Note_on_c, 11, 61, 0
25, 230400, Note_on_c, 11, 66, 68
25, 230639, Note_on_c, 11, 66, 0
25, 230640, Note_on_c, 11, 66, 68
25, 230879, Note_on_c, 11, 66, 0
25, 230880, Note_on_c, 11, 67, 68
25, 230999, Note_on_c, 11, 67, 0
25, 231000, Note_on_c, 11, 66, 68
25, 231119, Note_on_c, 11, 66, 0
25, 231120, Note_on_c, 11, 64, 68
25, 231239, Note_on_c, 11, 64, 0
25, 231240, Note_on_c, 11, 62, 68
25, 231359, Note_on_c, 11, 62, 0
25, 231360, Note_on_c, 11, 62, 68
25, 231719, Note_on_c, 11, 62, 0
25, 231720, Note_on_c, 11, 61, 68
25, 231839, Note_on_c, 11, 61, 0
25, 231840, Note_on_c, 11, 61, 68
25, 232079, Note_on_c, 11, 61, 0
25, 232080, Note_on_c, 11, 57, 68
25, 232199, Note_on_c, 11, 57, 0
25, 232200, Note_on_c, 11, 55, 68
25, 232289, Note_on_c, 11, 55, 0
25, 232320, Note_on_c, 11, 54, 68
25, 232559, Note_on_c, 11, 54, 0
25, 232560, Note_on_c, 11, 57, 68
25, 232799, Note_on_c, 11, 57, 0
25, 232800, Note_on_c, 11, 57, 68
25, 233039, Note_on_c, 11, 57, 0
25, 233040, Note_on_c, 11, 57, 68
25, 233159, Note_on_c, 11, 57, 0
25, 233160, Note_on_c, 11, 62, 68
25, 233279, Note_on_c, 11, 62, 0
25, 233280, Note_on_c, 11, 61, 68
25, 233399, Note_on_c, 11, 61, 0
25, 233400, Note_on_c, 11, 62, 68
25, 233519, Note_on_c, 11, 62, 0
25, 233520, Note_on_c, 11, 64, 68
25, 233639, Note_on_c, 11, 64, 0
25, 233640, Note_on_c, 11, 66, 68
25, 233759, Note_on_c, 11, 66, 0
25, 233760, Note_on_c, 11, 67, 68
25, 233879, Note_on_c, 11, 67, 0
25, 233880, Note_on_c, 11, 57, 68
25, 233999, Note_on_c, 11, 57, 0
25, 234000, Note_on_c, 11, 59, 68
25, 234119, Note_on_c, 11, 59, 0
25, 234120, Note_on_c, 11, 55, 68
25, 234224, Note_on_c, 11, 55, 0
25, 234240, Note_on_c, 11, 54, 68
25, 234479, Note_on_c, 11, 54, 0
25, 234480, Note_on_c, 11, 62, 68
25, 234719, Note_on_c, 11, 62, 0
25, 234720, Note_on_c, 11, 62, 68
25, 234959, Note_on_c, 11, 62, 0
25, 234960, Note_on_c, 11, 61, 68
25, 235079, Note_on_c, 11, 61, 0
25, 235080, Note_on_c, 11, 59, 68
25, 235199, Note_on_c, 11, 59, 0
25, 235200, Note_on_c, 11, 61, 68
25, 235559, Note_on_c, 11, 61, 0
25, 235560, Note_on_c, 11, 62, 68
25, 235679, Note_on_c, 11, 62, 0
25, 235680, Note_on_c, 11, 62, 68
25, 235799, Note_on_c, 11, 62, 0
25, 235800, Note_on_c, 11, 66, 68
25, 235919, Note_on_c, 11, 66, 0
25, 235920, Note_on_c, 11, 64, 68
25, 236039, Note_on_c, 11, 64, 0
25, 236040, Note_on_c, 11, 62, 68
25, 236129, Note_on_c, 11, 62, 0
25, 236160, Note_on_c, 11, 61, 68
25, 236369, Note_on_c, 11, 61, 0
25, 236400, Note_on_c, 11, 61, 68
25, 236639, Note_on_c, 11, 61, 0
25, 236640, Note_on_c, 11, 62, 68
25, 236879, Note_on_c, 11, 62, 0
25, 236880, Note_on_c, 11, 62, 68
25, 236999, Note_on_c, 11, 62, 0
25, 237000, Note_on_c, 11, 66, 68
25, 237119, Note_on_c, 11, 66, 0
25, 237120, Note_on_c, 11, 61, 68
25, 237359, Note_on_c, 11, 61, 0
25, 237360, Note_on_c, 11, 62, 68
25, 237479, Note_on_c, 11, 62, 0
25, 237480, Note_on_c, 11, 64, 68
25, 237599, Note_on_c, 11, 64, 0
25, 237600, Note_on_c, 11, 62, 68
25, 237839, Note_on_c, 11, 62, 0
25, 237840, Note_on_c, 11, 64, 68
25, 237959, Note_on_c, 11, 64, 0
25, 237960, Note_on_c, 11, 62, 68
25, 238079, Note_on_c, 11, 62, 0
25, 238080, Note_on_c, 11, 61, 68
25, 238199, Note_on_c, 11, 61, 0
25, 238200, Note_on_c, 11, 64, 68
25, 238319, Note_on_c, 11, 64, 0
25, 238320, Note_on_c, 11, 62, 68
25, 238439, Note_on_c, 11, 62, 0
25, 238440, Note_on_c, 11, 61, 68
25, 238559, Note_on_c, 11, 61, 0
25, 238560, Note_on_c, 11, 61, 68
25, 238799, Note_on_c, 11, 61, 0
25, 238800, Note_on_c, 11, 58, 68
25, 239039, Note_on_c, 11, 58, 0
25, 239040, Note_on_c, 11, 59, 68
25, 239279, Note_on_c, 11, 59, 0
25, 239280, Note_on_c, 11, 59, 68
25, 239519, Note_on_c, 11, 59, 0
25, 239520, Note_on_c, 11, 61, 68
25, 239729, Note_on_c, 11, 61, 0
25, 239758, Control_c, 11, 11, 107
25, 239760, Control_c, 11, 11, 109
25, 239760, Note_on_c, 11, 62, 68
25, 239820, Control_c, 11, 11, 110
25, 239880, Control_c, 11, 11, 112
25, 239940, Control_c, 11, 11, 114
25, 240000, Control_c, 11, 11, 115
25, 240060, Control_c, 11, 11, 116
25, 240120, Control_c, 11, 11, 119
25, 240180, Control_c, 11, 11, 120
25, 240239, Note_on_c, 11, 62, 0
25, 240240, Control_c, 11, 11, 121
25, 240240, Note_on_c, 11, 62, 80
25, 240300, Control_c, 11, 11, 122
25, 240360, Control_c, 11, 11, 125
25, 240420, Control_c, 11, 11, 126
25, 240479, Note_on_c, 11, 62, 0
25, 240480, Control_c, 11, 11, 127
25, 240480, Note_on_c, 11, 64, 92
25, 240719, Note_on_c, 11, 64, 0
25, 240720, Note_on_c, 11, 66, 80
25, 240959, Note_on_c, 11, 66, 0
25, 240960, Note_on_c, 11, 66, 80
25, 241199, Note_on_c, 11, 66, 0
25, 241200, Note_on_c, 11, 64, 80
25, 241409, Note_on_c, 11, 64, 0
25, 241440, Note_on_c, 11, 62, 79
25, 241679, Note_on_c, 11, 62, 0
25, 241680, Note_on_c, 11, 61, 78
25, 241919, Note_on_c, 11, 61, 0
25, 241920, Note_on_c, 11, 62, 76
25, 242159, Note_on_c, 11, 62, 0
25, 242160, Note_on_c, 11, 57, 75
25, 242399, Note_on_c, 11, 57, 0
25, 242400, Note_on_c, 11, 57, 74
25, 242639, Note_on_c, 11, 57, 0
25, 242640, Note_on_c, 11, 57, 72
25, 242879, Note_on_c, 11, 57, 0
25, 242880, Note_on_c, 11, 61, 71
25, 243239, Note_on_c, 11, 61, 0
25, 243240, Note_on_c, 11, 62, 69
25, 243359, Note_on_c, 11, 62, 0
25, 243360, Note_on_c, 11, 62, 68
25, 243809, Note_on_c, 11, 62, 0
25, 243840, Marker_t, "Transition to Tenori Tutti"
25, 254880, Control_c, 11, 7, 104
25, 254880, Control_c, 11, 10, 72
25, 255000, Note_on_c, 11, 57, 44
25, 255119, Note_on_c, 11, 57, 0
25, 255120, Note_on_c, 11, 59, 44
25, 255239, Note_on_c, 11, 59, 0
25, 255240, Note_on_c, 11, 61, 44
25, 255359, Note_on_c, 11, 61, 0
25, 255360, Note_on_c, 11, 62, 44
25, 255479, Note_on_c, 11, 62, 0
25, 255480, Note_on_c, 11, 64, 44
25, 255599, Note_on_c, 11, 64, 0
25, 255600, Note_on_c, 11, 61, 44
25, 255719, Note_on_c, 11, 61, 0
25, 255720, Note_on_c, 11, 62, 44
25, 255839, Note_on_c, 11, 62, 0
25, 255840, Note_on_c, 11, 64, 44
25, 255959, Note_on_c, 11, 64, 0
25, 255960, Note_on_c, 11, 66, 44
25, 256079, Note_on_c, 11, 66, 0
25, 256080, Note_on_c, 11, 67, 44
25, 256199, Note_on_c, 11, 67, 0
25, 256200, Note_on_c, 11, 66, 44
25, 256319, Note_on_c, 11, 66, 0
25, 256320, Note_on_c, 11, 66, 44
25, 256439, Note_on_c, 11, 66, 0
25, 256440, Note_on_c, 11, 64, 44
25, 256559, Note_on_c, 11, 64, 0
25, 256560, Note_on_c, 11, 67, 44
25, 256679, Note_on_c, 11, 67, 0
25, 256680, Note_on_c, 11, 64, 44
25, 256799, Note_on_c, 11, 64, 0
25, 256800, Note_on_c, 11, 62, 44
25, 256919, Note_on_c, 11, 62, 0
25, 256920, Note_on_c, 11, 61, 44
25, 257039, Note_on_c, 11, 61, 0
25, 257040, Note_on_c, 11, 64, 44
25, 257159, Note_on_c, 11, 64, 0
25, 257160, Note_on_c, 11, 55, 44
25, 257279, Note_on_c, 11, 55, 0
25, 257280, Note_on_c, 11, 54, 44
25, 257399, Note_on_c, 11, 54, 0
25, 257400, Note_on_c, 11, 55, 44
25, 257519, Note_on_c, 11, 55, 0
25, 257520, Note_on_c, 11, 57, 44
25, 257639, Note_on_c, 11, 57, 0
25, 257640, Note_on_c, 11, 59, 44
25, 257759, Note_on_c, 11, 59, 0
25, 257760, Note_on_c, 11, 61, 44
25, 257879, Note_on_c, 11, 61, 0
25, 257880, Note_on_c, 11, 62, 44
25, 257999, Note_on_c, 11, 62, 0
25, 258000, Note_on_c, 11, 64, 44
25, 258119, Note_on_c, 11, 64, 0
25, 258120, Note_on_c, 11, 66, 44
25, 258239, Note_on_c, 11, 66, 0
25, 258240, Note_on_c, 11, 66, 44
25, 258359, Note_on_c, 11, 66, 0
25, 258360, Note_on_c, 11, 64, 44
25, 258479, Note_on_c, 11, 64, 0
25, 258480, Note_on_c, 11, 67, 44
25, 258599, Note_on_c, 11, 67, 0
25, 258600, Note_on_c, 11, 66, 44
25, 258719, Note_on_c, 11, 66, 0
25, 258720, Note_on_c, 11, 64, 44
25, 259169, Note_on_c, 11, 64, 0
25, 259200, Note_on_c, 11, 66, 44
25, 259439, Note_on_c, 11, 66, 0
25, 259440, Note_on_c, 11, 66, 44
25, 259679, Note_on_c, 11, 66, 0
25, 259680, Note_on_c, 11, 66, 44
25, 259919, Note_on_c, 11, 66, 0
25, 259920, Note_on_c, 11, 66, 44
25, 260144, Note_on_c, 11, 66, 0
25, 260160, Note_on_c, 11, 62, 44
25, 260399, Note_on_c, 11, 62, 0
25, 260400, Note_on_c, 11, 62, 44
25, 260639, Note_on_c, 11, 62, 0
25, 260640, Note_on_c, 11, 64, 44
25, 260879, Note_on_c, 11, 64, 0
25, 260880, Note_on_c, 11, 64, 44
25, 261119, Note_on_c, 11, 64, 0
25, 261120, Note_on_c, 11, 66, 44
25, 261239, Note_on_c, 11, 66, 0
25, 261240, Note_on_c, 11, 64, 44
25, 261359, Note_on_c, 11, 64, 0
25, 261360, Note_on_c, 11, 62, 44
25, 261479, Note_on_c, 11, 62, 0
25, 261480, Note_on_c, 11, 61, 44
25, 261599, Note_on_c, 11, 61, 0
25, 261600, Note_on_c, 11, 59, 44
25, 261719, Note_on_c, 11, 59, 0
25, 261720, Note_on_c, 11, 57, 44
25, 261839, Note_on_c, 11, 57, 0
25, 261840, Note_on_c, 11, 55, 44
25, 261959, Note_on_c, 11, 55, 0
25, 261960, Note_on_c, 11, 54, 44
25, 262079, Note_on_c, 11, 54, 0
25, 262080, Note_on_c, 11, 57, 44
25, 262199, Note_on_c, 11, 57, 0
25, 262200, Note_on_c, 11, 55, 44
25, 262319, Note_on_c, 11, 55, 0
25, 262320, Note_on_c, 11, 54, 44
25, 262439, Note_on_c, 11, 54, 0
25, 262440, Note_on_c, 11, 55, 44
25, 262559, Note_on_c, 11, 55, 0
25, 262560, Note_on_c, 11, 54, 44
25, 262769, Note_on_c, 11, 54, 0
25, 262800, Note_on_c, 11, 57, 44
25, 263039, Note_on_c, 11, 57, 0
25, 263040, Note_on_c, 11, 62, 44
25, 263159, Note_on_c, 11, 62, 0
25, 263160, Note_on_c, 11, 61, 44
25, 263279, Note_on_c, 11, 61, 0
25, 263280, Note_on_c, 11, 59, 44
25, 263399, Note_on_c, 11, 59, 0
25, 263400, Note_on_c, 11, 61, 44
25, 263519, Note_on_c, 11, 61, 0
25, 263520, Note_on_c, 11, 64, 44
25, 263639, Note_on_c, 11, 64, 0
25, 263640, Note_on_c, 11, 62, 44
25, 263759, Note_on_c, 11, 62, 0
25, 263760, Note_on_c, 11, 61, 44
25, 263879, Note_on_c, 11, 61, 0
25, 263880, Note_on_c, 11, 62, 44
25, 263999, Note_on_c, 11, 62, 0
25, 264000, Note_on_c, 11, 62, 44
25, 264119, Note_on_c, 11, 62, 0
25, 264120, Note_on_c, 11, 61, 44
25, 264239, Note_on_c, 11, 61, 0
25, 264240, Note_on_c, 11, 59, 44
25, 264359, Note_on_c, 11, 59, 0
25, 264360, Note_on_c, 11, 61, 44
25, 264479, Note_on_c, 11, 61, 0
25, 264480, Note_on_c, 11, 64, 44
25, 264599, Note_on_c, 11, 64, 0
25, 264600, Note_on_c, 11, 62, 44
25, 264719, Note_on_c, 11, 62, 0
25, 264720, Note_on_c, 11, 61, 44
25, 264839, Note_on_c, 11, 61, 0
25, 264840, Note_on_c, 11, 62, 44
25, 264944, Note_on_c, 11, 62, 0
25, 264960, Note_on_c, 11, 62, 44
25, 265079, Note_on_c, 11, 62, 0
25, 265080, Note_on_c, 11, 64, 44
25, 265199, Note_on_c, 11, 64, 0
25, 265200, Note_on_c, 11, 66, 44
25, 265319, Note_on_c, 11, 66, 0
25, 265320, Note_on_c, 11, 64, 44
25, 265439, Note_on_c, 11, 64, 0
25, 265440, Note_on_c, 11, 64, 44
25, 265559, Note_on_c, 11, 64, 0
25, 265560, Note_on_c, 11, 66, 44
25, 265679, Note_on_c, 11, 66, 0
25, 265680, Note_on_c, 11, 66, 44
25, 265799, Note_on_c, 11, 66, 0
25, 265800, Note_on_c, 11, 67, 44
25, 265919, Note_on_c, 11, 67, 0
25, 265920, Note_on_c, 11, 67, 44
25, 266039, Note_on_c, 11, 67, 0
25, 266040, Note_on_c, 11, 66, 44
25, 266159, Note_on_c, 11, 66, 0
25, 266160, Note_on_c, 11, 67, 44
25, 266279, Note_on_c, 11, 67, 0
25, 266280, Note_on_c, 11, 64, 44
25, 266399, Note_on_c, 11, 64, 0
25, 266400, Note_on_c, 11, 57, 44
25, 266609, Note_on_c, 11, 57, 0
25, 266640, Note_on_c, 11, 62, 44
25, 266999, Note_on_c, 11, 62, 0
25, 267000, Note_on_c, 11, 64, 44
25, 267119, Note_on_c, 11, 64, 0
25, 267120, Note_on_c, 11, 61, 44
25, 267239, Note_on_c, 11, 61, 0
25, 267240, Note_on_c, 11, 62, 44
25, 267359, Note_on_c, 11, 62, 0
25, 267360, Note_on_c, 11, 64, 44
25, 267479, Note_on_c, 11, 64, 0
25, 267480, Note_on_c, 11, 66, 44
25, 267599, Note_on_c, 11, 66, 0
25, 267600, Note_on_c, 11, 67, 44
25, 267719, Note_on_c, 11, 67, 0
25, 267720, Note_on_c, 11, 66, 44
25, 267839, Note_on_c, 11, 66, 0
25, 267840, Note_on_c, 11, 66, 44
25, 267959, Note_on_c, 11, 66, 0
25, 267960, Note_on_c, 11, 64, 44
25, 268079, Note_on_c, 11, 64, 0
25, 268080, Note_on_c, 11, 67, 44
25, 268199, Note_on_c, 11, 67, 0
25, 268200, Note_on_c, 11, 64, 44
25, 268319, Note_on_c, 11, 64, 0
25, 268320, Note_on_c, 11, 64, 44
25, 268559, Note_on_c, 11, 64, 0
25, 268560, Note_on_c, 11, 64, 44
25, 268784, Note_on_c, 11, 64, 0
25, 268800, Note_on_c, 11, 64, 44
25, 268919, Note_on_c, 11, 64, 0
25, 268920, Note_on_c, 11, 66, 44
25, 269039, Note_on_c, 11, 66, 0
25, 269040, Note_on_c, 11, 67, 44
25, 269159, Note_on_c, 11, 67, 0
25, 269160, Note_on_c, 11, 69, 44
25, 269279, Note_on_c, 11, 69, 0
25, 269280, Note_on_c, 11, 62, 80
25, 269399, Note_on_c, 11, 62, 0
25, 269400, Note_on_c, 11, 64, 80
25, 269639, Note_on_c, 11, 64, 0
25, 269640, Note_on_c, 11, 66, 80
25, 269759, Note_on_c, 11, 66, 0
25, 269760, Note_on_c, 11, 66, 80
25, 269879, Note_on_c, 11, 66, 0
25, 269880, Note_on_c, 11, 67, 80
25, 270119, Note_on_c, 11, 67, 0
25, 270120, Note_on_c, 11, 66, 80
25, 270239, Note_on_c, 11, 66, 0
25, 270240, Note_on_c, 11, 66, 80
25, 270689, Note_on_c, 11, 66, 0
25, 270720, Marker_t, "Transition to Tenori Tutti"
25, 320280, Control_c, 6, 10, 72
25, 320280, Control_c, 6, 11, 127
25, 320640, Note_on_c, 6, 62, 68
25, 321359, Note_on_c, 6, 62, 0
25, 322080, Note_on_c, 6, 65, 68
25, 322769, Note_on_c, 6, 65, 0
25, 322800, Note_on_c, 6, 53, 68
25, 323159, Note_on_c, 6, 53, 0
25, 323160, Note_on_c, 6, 55, 68
25, 323399, Note_on_c, 6, 55, 0
25, 323400, Note_on_c, 6, 57, 68
25, 323519, Note_on_c, 6, 57, 0
25, 323520, Note_on_c, 6, 58, 68
25, 323879, Note_on_c, 6, 58, 0
25, 323880, Note_on_c, 6, 58, 68
25, 324224, Note_on_c, 6, 58, 0
25, 324240, Note_on_c, 6, 58, 68
25, 324479, Note_on_c, 6, 58, 0
25, 324480, Note_on_c, 6, 60, 68
25, 324599, Note_on_c, 6, 60, 0
25, 324600, Note_on_c, 6, 62, 68
25, 324959, Note_on_c, 6, 62, 0
25, 324960, Note_on_c, 6, 62, 68
25, 325319, Note_on_c, 6, 62, 0
25, 325320, Note_on_c, 6, 60, 68
25, 325679, Note_on_c, 6, 60, 0
25, 325680, Note_on_c, 6, 60, 68
25, 325919, Note_on_c, 6, 60, 0
25, 325920, Note_on_c, 6, 58, 68
25, 326039, Note_on_c, 6, 58, 0
25, 326040, Note_on_c, 6, 60, 68
25, 326279, Note_on_c, 6, 60, 0
25, 326280, Note_on_c, 6, 53, 68
25, 326369, Note_on_c, 6, 53, 0
25, 326400, Note_on_c, 6, 62, 68
25, 326609, Note_on_c, 6, 62, 0
25, 326760, Note_on_c, 6, 58, 68
25, 326999, Note_on_c, 6, 58, 0
25, 327120, Note_on_c, 6, 62, 68
25, 327359, Note_on_c, 6, 62, 0
25, 327480, Note_on_c, 6, 58, 68
25, 327719, Note_on_c, 6, 58, 0
25, 327840, Note_on_c, 6, 65, 68
25, 328079, Note_on_c, 6, 65, 0
25, 328080, Note_on_c, 6, 53, 68
25, 328199, Note_on_c, 6, 53, 0
25, 328200, Note_on_c, 6, 57, 68
25, 328439, Note_on_c, 6, 57, 0
25, 328440, Note_on_c, 6, 60, 68
25, 328559, Note_on_c, 6, 60, 0
25, 328560, Note_on_c, 6, 65, 68
25, 328799, Note_on_c, 6, 65, 0
25, 328800, Note_on_c, 6, 53, 68
25, 328919, Note_on_c, 6, 53, 0
25, 328920, Note_on_c, 6, 55, 68
25, 329159, Note_on_c, 6, 55, 0
25, 329160, Note_on_c, 6, 57, 68
25, 329279, Note_on_c, 6, 57, 0
25, 329280, Note_on_c, 6, 58, 68
25, 329519, Note_on_c, 6, 58, 0
25, 329640, Note_on_c, 6, 53, 68
25, 329879, Note_on_c, 6, 53, 0
25, 330000, Note_on_c, 6, 62, 68
25, 330239, Note_on_c, 6, 62, 0
25, 330360, Note_on_c, 6, 58, 68
25, 330599, Note_on_c, 6, 58, 0
25, 330720, Note_on_c, 6, 65, 68
25, 330959, Note_on_c, 6, 65, 0
25, 331080, Note_on_c, 6, 63, 68
25, 331319, Note_on_c, 6, 63, 0
25, 331320, Note_on_c, 6, 62, 68
25, 331439, Note_on_c, 6, 62, 0
25, 331440, Note_on_c, 6, 62, 68
25, 331679, Note_on_c, 6, 62, 0
25, 332160, Note_on_c, 6, 60, 68
25, 332399, Note_on_c, 6, 60, 0
25, 332520, Note_on_c, 6, 53, 68
25, 332759, Note_on_c, 6, 53, 0
25, 332880, Note_on_c, 6, 60, 68
25, 333239, Note_on_c, 6, 60, 0
25, 333240, Note_on_c, 6, 62, 68
25, 333479, Note_on_c, 6, 62, 0
25, 333480, Note_on_c, 6, 58, 68
25, 333584, Note_on_c, 6, 58, 0
25, 333600, Note_on_c, 6, 60, 68
25, 333839, Note_on_c, 6, 60, 0
25, 333960, Note_on_c, 6, 53, 68
25, 334199, Note_on_c, 6, 53, 0
25, 334320, Note_on_c, 6, 65, 68
25, 335009, Note_on_c, 6, 65, 0
25, 335040, Note_on_c, 6, 65, 68
25, 335279, Note_on_c, 6, 65, 0
25, 335400, Note_on_c, 6, 53, 68
25, 335639, Note_on_c, 6, 53, 0
25, 335760, Note_on_c, 6, 65, 68
25, 336119, Note_on_c, 6, 65, 0
25, 336120, Note_on_c, 6, 62, 68
25, 336359, Note_on_c, 6, 62, 0
25, 336360, Note_on_c, 6, 60, 68
25, 336464, Note_on_c, 6, 60, 0
25, 336480, Note_on_c, 6, 58, 68
25, 336719, Note_on_c, 6, 58, 0
25, 336720, Note_on_c, 6, 57, 68
25, 336839, Note_on_c, 6, 57, 0
25, 336840, Note_on_c, 6, 58, 68
25, 337079, Note_on_c, 6, 58, 0
25, 337080, Note_on_c, 6, 60, 68
25, 337199, Note_on_c, 6, 60, 0
25, 337200, Note_on_c, 6, 63, 68
25, 337559, Note_on_c, 6, 63, 0
25, 337560, Note_on_c, 6, 62, 68
25, 337799, Note_on_c, 6, 62, 0
25, 337800, Note_on_c, 6, 60, 68
25, 337889, Note_on_c, 6, 60, 0
25, 337920, Note_on_c, 6, 62, 68
25, 338279, Note_on_c, 6, 62, 0
25, 338280, Note_on_c, 6, 58, 68
25, 338519, Note_on_c, 6, 58, 0
25, 338640, Note_on_c, 6, 62, 68
25, 338999, Note_on_c, 6, 62, 0
25, 339000, Note_on_c, 6, 60, 68
25, 339239, Note_on_c, 6, 60, 0
25, 339240, Note_on_c, 6, 58, 68
25, 339359, Note_on_c, 6, 58, 0
25, 339360, Note_on_c, 6, 63, 68
25, 339719, Note_on_c, 6, 63, 0
25, 339720, Note_on_c, 6, 63, 68
25, 339959, Note_on_c, 6, 63, 0
25, 339960, Note_on_c, 6, 65, 68
25, 340079, Note_on_c, 6, 65, 0
25, 340080, Note_on_c, 6, 67, 68
25, 340439, Note_on_c, 6, 67, 0
25, 340440, Note_on_c, 6, 67, 68
25, 340769, Note_on_c, 6, 67, 0
25, 340800, Note_on_c, 6, 65, 68
25, 341159, Note_on_c, 6, 65, 0
25, 341160, Note_on_c, 6, 65, 68
25, 341519, Note_on_c, 6, 65, 0
25, 341520, Note_on_c, 6, 65, 68
25, 342599, Note_on_c, 6, 65, 0
25, 342600, Note_on_c, 6, 63, 68
25, 342839, Note_on_c, 6, 63, 0
25, 342840, Note_on_c, 6, 62, 68
25, 342959, Note_on_c, 6, 62, 0
25, 342960, Note_on_c, 6, 62, 68
25, 343199, Note_on_c, 6, 62, 0
25, 343200, Note_on_c, 6, 60, 68
25, 343319, Note_on_c, 6, 60, 0
25, 343320, Note_on_c, 6, 60, 68
25, 343559, Note_on_c, 6, 60, 0
25, 343680, Note_on_c, 6, 60, 68
25, 343919, Note_on_c, 6, 60, 0
25, 344040, Note_on_c, 6, 53, 68
25, 344279, Note_on_c, 6, 53, 0
25, 344400, Note_on_c, 6, 60, 68
25, 344759, Note_on_c, 6, 60, 0
25, 344760, Note_on_c, 6, 62, 68
25, 344999, Note_on_c, 6, 62, 0
25, 345000, Note_on_c, 6, 58, 68
25, 345104, Note_on_c, 6, 58, 0
25, 345120, Note_on_c, 6, 60, 68
25, 345359, Note_on_c, 6, 60, 0
25, 345480, Note_on_c, 6, 53, 68
25, 345719, Note_on_c, 6, 53, 0
25, 345840, Note_on_c, 6, 65, 68
25, 348359, Note_on_c, 6, 65, 0
25, 348360, Note_on_c, 6, 67, 68
25, 348599, Note_on_c, 6, 67, 0
25, 348600, Note_on_c, 6, 64, 68
25, 348719, Note_on_c, 6, 64, 0
25, 348720, Note_on_c, 6, 65, 68
25, 349679, Note_on_c, 6, 65, 0
25, 349680, Note_on_c, 6, 58, 68
25, 349799, Note_on_c, 6, 58, 0
25, 349800, Note_on_c, 6, 60, 68
25, 350039, Note_on_c, 6, 60, 0
25, 350040, Note_on_c, 6, 58, 68
25, 350159, Note_on_c, 6, 58, 0
25, 350160, Note_on_c, 6, 60, 68
25, 350399, Note_on_c, 6, 60, 0
25, 350400, Note_on_c, 6, 58, 68
25, 350519, Note_on_c, 6, 58, 0
25, 350520, Note_on_c, 6, 62, 68
25, 350759, Note_on_c, 6, 62, 0
25, 350760, Note_on_c, 6, 58, 68
25, 350879, Note_on_c, 6, 58, 0
25, 350880, Note_on_c, 6, 63, 68
25, 351119, Note_on_c, 6, 63, 0
25, 351120, Note_on_c, 6, 58, 68
25, 351239, Note_on_c, 6, 58, 0
25, 351240, Note_on_c, 6, 60, 68
25, 351479, Note_on_c, 6, 60, 0
25, 351480, Note_on_c, 6, 62, 68
25, 351599, Note_on_c, 6, 62, 0
25, 351600, Note_on_c, 6, 63, 68
25, 351839, Note_on_c, 6, 63, 0
25, 351840, Note_on_c, 6, 65, 68
25, 351959, Note_on_c, 6, 65, 0
25, 351960, Note_on_c, 6, 67, 68
25, 352199, Note_on_c, 6, 67, 0
25, 352320, Note_on_c, 6, 53, 68
25, 352679, Note_on_c, 6, 53, 0
25, 352680, Note_on_c, 6, 55, 68
25, 352919, Note_on_c, 6, 55, 0
25, 352920, Note_on_c, 6, 57, 68
25, 353039, Note_on_c, 6, 57, 0
25, 353040, Note_on_c, 6, 58, 68
25, 353279, Note_on_c, 6, 58, 0
25, 353280, Note_on_c, 6, 60, 68
25, 353399, Note_on_c, 6, 60, 0
25, 353400, Note_on_c, 6, 62, 68
25, 353639, Note_on_c, 6, 62, 0
25, 353640, Note_on_c, 6, 63, 68
25, 353759, Note_on_c, 6, 63, 0
25, 353760, Note_on_c, 6, 65, 68
25, 354119, Note_on_c, 6, 65, 0
25, 354120, Note_on_c, 6, 65, 68
25, 354479, Note_on_c, 6, 65, 0
25, 354480, Note_on_c, 6, 65, 68
25, 355559, Note_on_c, 6, 65, 0
25, 355560, Note_on_c, 6, 58, 68
25, 355799, Note_on_c, 6, 58, 0
25, 357360, Note_on_c, 6, 67, 92
25, 357480, Control_c, 6, 11, 107
25, 357959, Note_on_c, 6, 67, 0
25, 357960, Note_on_c, 6, 63, 92
25, 358064, Note_on_c, 6, 63, 0
25, 358080, Note_on_c, 6, 63, 92
25, 358199, Note_on_c, 6, 63, 0
25, 358200, Note_on_c, 6, 62, 92
25, 358319, Note_on_c, 6, 62, 0
25, 358320, Note_on_c, 6, 60, 92
25, 358439, Note_on_c, 6, 60, 0
25, 358440, Note_on_c, 6, 63, 92
25, 358679, Note_on_c, 6, 63, 0
25, 358680, Note_on_c, 6, 60, 92
25, 358799, Note_on_c, 6, 60, 0
25, 358800, Note_on_c, 6, 60, 92
25, 358919, Note_on_c, 6, 60, 0
25, 358920, Note_on_c, 6, 58, 92
25, 359039, Note_on_c, 6, 58, 0
25, 359040, Note_on_c, 6, 57, 92
25, 359159, Note_on_c, 6, 57, 0
25, 359160, Note_on_c, 6, 58, 92
25, 359399, Note_on_c, 6, 58, 0
25, 359400, Note_on_c, 6, 60, 92
25, 359519, Note_on_c, 6, 60, 0
25, 359520, Note_on_c, 6, 62, 92
25, 359639, Note_on_c, 6, 62, 0
25, 359640, Note_on_c, 6, 63, 92
25, 359759, Note_on_c, 6, 63, 0
25, 359760, Note_on_c, 6, 65, 92
25, 359879, Note_on_c, 6, 65, 0
25, 359880, Note_on_c, 6, 67, 92
25, 360119, Note_on_c, 6, 67, 0
25, 360120, Note_on_c, 6, 69, 92
25, 360239, Note_on_c, 6, 69, 0
25, 360240, Note_on_c, 6, 70, 92
25, 360479, Note_on_c, 6, 70, 0
25, 360480, Note_on_c, 6, 65, 92
25, 360599, Note_on_c, 6, 65, 0
25, 360600, Note_on_c, 6, 67, 92
25, 360839, Note_on_c, 6, 67, 0
25, 360840, Note_on_c, 6, 69, 92
25, 360959, Note_on_c, 6, 69, 0
25, 360960, Note_on_c, 6, 70, 92
25, 361319, Note_on_c, 6, 70, 0
25, 361320, Note_on_c, 6, 58, 92
25, 361559, Note_on_c, 6, 58, 0
25, 727440, Control_c, 6, 7, 104
25, 727440, Control_c, 6, 11, 127
25, 727440, Control_c, 6, 10, 72
25, 727440, Program_c, 6, 70
25, 727680, Note_on_c, 6, 54, 56
25, 728279, Note_on_c, 6, 54, 0
25, 728280, Note_on_c, 6, 55, 56
25, 728399, Note_on_c, 6, 55, 0
25, 728400, Note_on_c, 6, 57, 56
25, 728519, Note_on_c, 6, 57, 0
25, 728520, Note_on_c, 6, 54, 56
25, 728619, Note_on_c, 6, 54, 0
25, 728640, Note_on_c, 6, 55, 56
25, 728879, Note_on_c, 6, 55, 0
25, 728880, Note_on_c, 6, 55, 56
25, 729119, Note_on_c, 6, 55, 0
25, 729120, Note_on_c, 6, 55, 56
25, 729359, Note_on_c, 6, 55, 0
25, 729360, Note_on_c, 6, 55, 56
25, 729599, Note_on_c, 6, 55, 0
25, 729600, Note_on_c, 6, 55, 56
25, 729959, Note_on_c, 6, 55, 0
25, 729960, Note_on_c, 6, 54, 56
25, 730079, Note_on_c, 6, 54, 0
25, 730080, Note_on_c, 6, 54, 56
25, 730559, Note_on_c, 6, 54, 0
25, 739200, Note_on_c, 6, 61, 56
25, 739799, Note_on_c, 6, 61, 0
25, 739800, Note_on_c, 6, 62, 56
25, 739919, Note_on_c, 6, 62, 0
25, 739920, Note_on_c, 6, 64, 56
25, 740039, Note_on_c, 6, 64, 0
25, 740040, Note_on_c, 6, 61, 56
25, 740139, Note_on_c, 6, 61, 0
25, 740160, Note_on_c, 6, 62, 56
25, 740399, Note_on_c, 6, 62, 0
25, 740400, Note_on_c, 6, 62, 56
25, 740639, Note_on_c, 6, 62, 0
25, 740640, Note_on_c, 6, 62, 56
25, 740879, Note_on_c, 6, 62, 0
25, 740880, Note_on_c, 6, 62, 56
25, 741119, Note_on_c, 6, 62, 0
25, 741120, Note_on_c, 6, 62, 56
25, 741479, Note_on_c, 6, 62, 0
25, 741480, Note_on_c, 6, 61, 56
25, 741599, Note_on_c, 6, 61, 0
25, 741600, Note_on_c, 6, 61, 56
25, 742079, Note_on_c, 6, 61, 0
25, 744000, Note_on_c, 6, 64, 56
25, 744239, Note_on_c, 6, 64, 0
25, 744240, Note_on_c, 6, 64, 56
25, 744479, Note_on_c, 6, 64, 0
25, 744480, Note_on_c, 6, 62, 56
25, 744719, Note_on_c, 6, 62, 0
25, 744720, Note_on_c, 6, 62, 56
25, 744939, Note_on_c, 6, 62, 0
25, 744960, Note_on_c, 6, 67, 56
25, 745199, Note_on_c, 6, 67, 0
25, 745200, Note_on_c, 6, 67, 56
25, 745439, Note_on_c, 6, 67, 0
25, 745440, Note_on_c, 6, 66, 56
25, 745679, Note_on_c, 6, 66, 0
25, 745680, Note_on_c, 6, 66, 56
25, 745919, Note_on_c, 6, 66, 0
25, 745920, Note_on_c, 6, 66, 56
25, 746159, Note_on_c, 6, 66, 0
25, 746160, Note_on_c, 6, 64, 56
25, 746399, Note_on_c, 6, 64, 0
25, 746400, Note_on_c, 6, 62, 56
25, 746639, Note_on_c, 6, 62, 0
25, 746640, Note_on_c, 6, 69, 56
25, 746879, Note_on_c, 6, 69, 0
25, 746880, Note_on_c, 6, 69, 56
25, 747119, Note_on_c, 6, 69, 0
25, 747120, Note_on_c, 6, 67, 56
25, 747359, Note_on_c, 6, 67, 0
25, 747360, Note_on_c, 6, 67, 56
25, 747599, Note_on_c, 6, 67, 0
25, 747600, Note_on_c, 6, 66, 56
25, 747819, Note_on_c, 6, 66, 0
25, 747840, Note_on_c, 6, 57, 56
25, 749279, Note_on_c, 6, 57, 0
25, 749280, Note_on_c, 6, 57, 56
25, 749739, Note_on_c, 6, 57, 0
25, 749760, Note_on_c, 6, 57, 56
25, 750239, Note_on_c, 6, 57, 0
25, 750240, Note_on_c, 6, 57, 56
25, 750719, Note_on_c, 6, 57, 0
25, 750720, Note_on_c, 6, 57, 56
25, 751199, Note_on_c, 6, 57, 0
25, 751200, Note_on_c, 6, 57, 56
25, 751659, Note_on_c, 6, 57, 0
25, 751680, Note_on_c, 6, 64, 56
25, 751919, Note_on_c, 6, 64, 0
25, 751920, Note_on_c, 6, 64, 56
25, 752159, Note_on_c, 6, 64, 0
25, 752160, Note_on_c, 6, 62, 56
25, 752399, Note_on_c, 6, 62, 0
25, 752400, Note_on_c, 6, 62, 56
25, 752619, Note_on_c, 6, 62, 0
25, 752640, Note_on_c, 6, 67, 56
25, 752879, Note_on_c, 6, 67, 0
25, 752880, Note_on_c, 6, 67, 56
25, 753119, Note_on_c, 6, 67, 0
25, 753120, Note_on_c, 6, 66, 56
25, 753359, Note_on_c, 6, 66, 0
25, 753360, Note_on_c, 6, 66, 56
25, 753599, Note_on_c, 6, 66, 0
25, 753600, Note_on_c, 6, 66, 56
25, 753839, Note_on_c, 6, 66, 0
25, 753840, Note_on_c, 6, 64, 56
25, 754079, Note_on_c, 6, 64, 0
25, 754080, Note_on_c, 6, 64, 56
25, 754319, Note_on_c, 6, 64, 0
25, 754320, Note_on_c, 6, 62, 56
25, 754559, Note_on_c, 6, 62, 0
25, 754560, Note_on_c, 6, 61, 56
25, 754799, Note_on_c, 6, 61, 0
25, 754800, Note_on_c, 6, 67, 56
25, 755039, Note_on_c, 6, 67, 0
25, 755040, Note_on_c, 6, 67, 56
25, 755279, Note_on_c, 6, 67, 0
25, 755280, Note_on_c, 6, 66, 56
25, 755499, Note_on_c, 6, 66, 0
25, 755520, Note_on_c, 6, 64, 56
25, 755759, Note_on_c, 6, 64, 0
25, 755760, Note_on_c, 6, 57, 56
25, 755999, Note_on_c, 6, 57, 0
25, 756000, Note_on_c, 6, 57, 56
25, 756239, Note_on_c, 6, 57, 0
25, 756240, Note_on_c, 6, 57, 56
25, 756479, Note_on_c, 6, 57, 0
25, 756480, Note_on_c, 6, 57, 56
25, 756719, Note_on_c, 6, 57, 0
25, 756720, Note_on_c, 6, 64, 56
25, 756959, Note_on_c, 6, 64, 0
25, 756960, Note_on_c, 6, 66, 56
25, 757199, Note_on_c, 6, 66, 0
25, 757200, Note_on_c, 6, 62, 56
25, 757439, Note_on_c, 6, 62, 0
25, 757440, Note_on_c, 6, 57, 56
25, 757679, Note_on_c, 6, 57, 0
25, 757680, Note_on_c, 6, 67, 56
25, 758159, Note_on_c, 6, 67, 0
25, 758160, Note_on_c, 6, 66, 56
25, 758399, Note_on_c, 6, 66, 0
25, 758400, Note_on_c, 6, 62, 56
25, 758639, Note_on_c, 6, 62, 0
25, 758640, Note_on_c, 6, 64, 56
25, 758879, Note_on_c, 6, 64, 0
25, 758880, Note_on_c, 6, 66, 56
25, 759119, Note_on_c, 6, 66, 0
25, 759120, Note_on_c, 6, 57, 56
25, 759359, Note_on_c, 6, 57, 0
25, 759360, Note_on_c, 6, 61, 56
25, 759599, Note_on_c, 6, 61, 0
25, 759600, Note_on_c, 6, 67, 56
25, 760079, Note_on_c, 6, 67, 0
25, 760080, Note_on_c, 6, 66, 56
25, 760559, Note_on_c, 6, 66, 0
25, 760560, Note_on_c, 6, 64, 56
25, 760799, Note_on_c, 6, 64, 0
25, 760800, Note_on_c, 6, 64, 56
25, 761039, Note_on_c, 6, 64, 0
25, 788640, Note_on_c, 6, 64, 92
25, 788999, Note_on_c, 6, 64, 0
25, 789000, Note_on_c, 6, 64, 92
25, 789119, Note_on_c, 6, 64, 0
25, 789120, Note_on_c, 6, 64, 92
25, 789359, Note_on_c, 6, 64, 0
25, 789360, Note_on_c, 6, 64, 92
25, 789579, Note_on_c, 6, 64, 0
25, 789600, Note_on_c, 6, 64, 92
25, 789959, Note_on_c, 6, 64, 0
25, 789960, Note_on_c, 6, 64, 92
25, 790059, Note_on_c, 6, 64, 0
25, 790080, Note_on_c, 6, 64, 92
25, 790799, Note_on_c, 6, 64, 0
25, 790800, Note_on_c, 6, 64, 92
25, 791039, Note_on_c, 6, 64, 0
25, 791040, Control_c, 6, 11, 127
25, 791040, Note_on_c, 6, 64, 92
25, 791056, Control_c, 6, 11, 122
25, 791072, Control_c, 6, 11, 117
25, 791088, Control_c, 6, 11, 111
25, 791104, Control_c, 6, 11, 106
25, 791120, Control_c, 6, 11, 101
25, 791136, Control_c, 6, 11, 96
25, 791152, Control_c, 6, 11, 91
25, 791168, Control_c, 6, 11, 85
25, 791184, Control_c, 6, 11, 80
25, 791200, Control_c, 6, 11, 75
25, 791216, Control_c, 6, 11, 70
25, 791232, Control_c, 6, 11, 65
25, 791248, Control_c, 6, 11, 59
25, 791264, Control_c, 6, 11, 54
25, 791339, Note_on_c, 6, 64, 0
25, 791340, Note_on_c, 6, 59, 92
25, 791399, Note_on_c, 6, 59, 0
25, 791400, Note_on_c, 6, 59, 92
25, 791519, Note_on_c, 6, 59, 0
25, 791520, Control_c, 6, 11, 49
25, 791520, Note_on_c, 6, 59, 92
25, 791560, Control_c, 6, 11, 52
25, 791600, Control_c, 6, 11, 55
25, 791640, Control_c, 6, 11, 59
25, 791680, Control_c, 6, 11, 62
25, 791720, Control_c, 6, 11, 65
25, 791759, Note_on_c, 6, 59, 0
25, 791760, Control_c, 6, 11, 69
25, 791760, Note_on_c, 6, 59, 92
25, 791800, Control_c, 6, 11, 72
25, 791840, Control_c, 6, 11, 75
25, 791880, Control_c, 6, 11, 79
25, 791920, Control_c, 6, 11, 82
25, 791960, Control_c, 6, 11, 85
25, 791999, Note_on_c, 6, 59, 0
25, 792000, Note_on_c, 6, 64, 92
25, 792000, Control_c, 6, 11, 89
25, 792040, Control_c, 6, 11, 82
25, 792080, Control_c, 6, 11, 75
25, 792119, Note_on_c, 6, 64, 0
25, 792120, Control_c, 6, 11, 69
25, 792120, Note_on_c, 6, 59, 92
25, 792160, Control_c, 6, 11, 62
25, 792200, Control_c, 6, 11, 55
25, 792239, Note_on_c, 6, 59, 0
25, 792240, Control_c, 6, 11, 49
25, 792240, Note_on_c, 6, 59, 92
25, 792464, Note_on_c, 6, 59, 0
25, 792480, Note_on_c, 6, 59, 92
25, 792719, Note_on_c, 6, 59, 0
25, 792720, Note_on_c, 6, 59, 92
25, 792959, Note_on_c, 6, 59, 0
25, 792960, Note_on_c, 6, 64, 92
25, 793439, Note_on_c, 6, 64, 0
25, 793440, Note_on_c, 6, 56, 92
25, 793919, Note_on_c, 6, 56, 0
25, 793920, Note_on_c, 6, 54, 92
25, 794159, Note_on_c, 6, 54, 0
25, 794160, Note_on_c, 6, 59, 92
25, 794639, Note_on_c, 6, 59, 0
25, 794640, Note_on_c, 6, 63, 92
25, 794879, Note_on_c, 6, 63, 0
25, 794880, Note_on_c, 6, 61, 92
25, 794959, Note_on_c, 6, 61, 0
25, 794960, Note_on_c, 6, 63, 92
25, 795039, Note_on_c, 6, 63, 0
25, 795040, Note_on_c, 6, 59, 92
25, 795119, Note_on_c, 6, 59, 0
25, 795120, Note_on_c, 6, 61, 92
25, 795199, Note_on_c, 6, 61, 0
25, 795200, Note_on_c, 6, 63, 92
25, 795279, Note_on_c, 6, 63, 0
25, 795280, Note_on_c, 6, 64, 92
25, 795359, Note_on_c, 6, 64, 0
25, 795360, Note_on_c, 6, 58, 92
25, 795439, Note_on_c, 6, 58, 0
25, 795440, Note_on_c, 6, 59, 92
25, 795519, Note_on_c, 6, 59, 0
25, 795520, Note_on_c, 6, 61, 92
25, 795599, Note_on_c, 6, 61, 0
25, 795600, Note_on_c, 6, 64, 92
25, 795659, Note_on_c, 6, 64, 0
25, 795660, Note_on_c, 6, 63, 92
25, 795719, Note_on_c, 6, 63, 0
25, 795720, Note_on_c, 6, 64, 92
25, 795779, Note_on_c, 6, 64, 0
25, 795780, Note_on_c, 6, 61, 92
25, 795839, Note_on_c, 6, 61, 0
25, 795840, Note_on_c, 6, 59, 92
25, 795919, Note_on_c, 6, 59, 0
25, 795920, Note_on_c, 6, 61, 92
25, 795999, Note_on_c, 6, 61, 0
25, 796000, Note_on_c, 6, 58, 92
25, 796079, Note_on_c, 6, 58, 0
25, 796080, Note_on_c, 6, 59, 92
25, 796159, Note_on_c, 6, 59, 0
25, 796160, Note_on_c, 6, 61, 92
25, 796239, Note_on_c, 6, 61, 0
25, 796240, Note_on_c, 6, 63, 92
25, 796319, Note_on_c, 6, 63, 0
25, 796320, Note_on_c, 6, 64, 92
25, 796399, Note_on_c, 6, 64, 0
25, 796400, Note_on_c, 6, 65, 92
25, 796479, Note_on_c, 6, 65, 0
25, 796480, Note_on_c, 6, 66, 92
25, 796559, Note_on_c, 6, 66, 0
25, 796560, Note_on_c, 6, 68, 92
25, 796619, Note_on_c, 6, 68, 0
25, 796620, Note_on_c, 6, 66, 92
25, 796679, Note_on_c, 6, 66, 0
25, 796680, Note_on_c, 6, 65, 92
25, 796739, Note_on_c, 6, 65, 0
25, 796740, Note_on_c, 6, 66, 92
25, 796799, Note_on_c, 6, 66, 0
25, 796800, Note_on_c, 6, 66, 92
25, 796919, Note_on_c, 6, 66, 0
25, 796920, Note_on_c, 6, 66, 92
25, 797039, Note_on_c, 6, 66, 0
25, 797040, Note_on_c, 6, 66, 92
25, 797519, Note_on_c, 6, 66, 0
25, 797638, Control_c, 11, 10, 72
25, 797638, Control_c, 11, 11, 49
25, 797640, Note_on_c, 11, 59, 92
25, 797759, Note_on_c, 11, 59, 0
25, 797760, Note_on_c, 11, 64, 92
25, 797880, Control_c, 11, 11, 49
25, 797950, Control_c, 11, 11, 52
25, 798020, Control_c, 11, 11, 55
25, 798090, Control_c, 11, 11, 59
25, 798119, Note_on_c, 11, 64, 0
25, 798120, Note_on_c, 11, 54, 92
25, 798160, Control_c, 11, 11, 62
25, 798230, Control_c, 11, 11, 65
25, 798239, Note_on_c, 11, 54, 0
25, 798240, Note_on_c, 11, 54, 92
25, 798300, Control_c, 11, 11, 69
25, 798359, Note_on_c, 11, 54, 0
25, 798360, Note_on_c, 11, 66, 92
25, 798370, Control_c, 11, 11, 72
25, 798440, Control_c, 11, 11, 75
25, 798479, Note_on_c, 11, 66, 0
25, 798480, Note_on_c, 11, 66, 92
25, 798510, Control_c, 11, 11, 79
25, 798580, Control_c, 11, 11, 82
25, 798599, Note_on_c, 11, 66, 0
25, 798600, Note_on_c, 11, 64, 92
25, 798650, Control_c, 11, 11, 85
25, 798719, Note_on_c, 11, 64, 0
25, 798720, Note_on_c, 11, 63, 92
25, 798720, Control_c, 11, 11, 89
25, 799199, Note_on_c, 11, 63, 0
25, 799200, Note_on_c, 11, 62, 92
25, 800639, Note_on_c, 11, 62, 0
25, 800639, End_track
26, 0, Start_track
26, 0, Title_t, "Baritone Solo"
26, 0, MIDI_port, 0
26, 0, Program_c, 6, 70
26, 0, Control_c, 6, 7, 96
26, 0, Control_c, 6, 11, 127
26, 182640, Control_c, 6, 10, 72
26, 183120, Note_on_c, 6, 57, 80
26, 183299, Note_on_c, 6, 57, 0
26, 183300, Note_on_c, 6, 57, 80
26, 183359, Note_on_c, 6, 57, 0
26, 183360, Note_on_c, 6, 64, 80
26, 184319, Note_on_c, 6, 64, 0
26, 184320, Note_on_c, 6, 62, 80
26, 184439, Note_on_c, 6, 62, 0
26, 184440, Note_on_c, 6, 61, 80
26, 184559, Note_on_c, 6, 61, 0
26, 184560, Note_on_c, 6, 62, 80
26, 184679, Note_on_c, 6, 62, 0
26, 184680, Note_on_c, 6, 64, 80
26, 185039, Note_on_c, 6, 64, 0
26, 185040, Note_on_c, 6, 55, 80
26, 185279, Note_on_c, 6, 55, 0
26, 185400, Note_on_c, 6, 55, 80
26, 185519, Note_on_c, 6, 55, 0
26, 185520, Note_on_c, 6, 58, 80
26, 185999, Note_on_c, 6, 58, 0
26, 186000, Note_on_c, 6, 57, 80
26, 186119, Note_on_c, 6, 57, 0
26, 186120, Note_on_c, 6, 52, 80
26, 186239, Note_on_c, 6, 52, 0
26, 186240, Note_on_c, 6, 53, 80
26, 186479, Note_on_c, 6, 53, 0
26, 186480, Note_on_c, 6, 53, 80
26, 186719, Note_on_c, 6, 53, 0
26, 188400, Note_on_c, 6, 56, 80
26, 188879, Note_on_c, 6, 56, 0
26, 188880, Note_on_c, 6, 56, 80
26, 189119, Note_on_c, 6, 56, 0
26, 189360, Note_on_c, 6, 62, 80
26, 189719, Note_on_c, 6, 62, 0
26, 189720, Note_on_c, 6, 59, 80
26, 189839, Note_on_c, 6, 59, 0
26, 189840, Note_on_c, 6, 59, 80
26, 190079, Note_on_c, 6, 59, 0
26, 190080, Note_on_c, 6, 56, 80
26, 190199, Note_on_c, 6, 56, 0
26, 190200, Note_on_c, 6, 57, 80
26, 190319, Note_on_c, 6, 57, 0
26, 190320, Note_on_c, 6, 59, 80
26, 190439, Note_on_c, 6, 59, 0
26, 190440, Note_on_c, 6, 61, 80
26, 190559, Note_on_c, 6, 61, 0
26, 190560, Note_on_c, 6, 64, 80
26, 190679, Note_on_c, 6, 64, 0
26, 190680, Note_on_c, 6, 62, 80
26, 190799, Note_on_c, 6, 62, 0
26, 190800, Note_on_c, 6, 61, 80
26, 190919, Note_on_c, 6, 61, 0
26, 190920, Note_on_c, 6, 62, 80
26, 191039, Note_on_c, 6, 62, 0
26, 191040, Note_on_c, 6, 59, 80
26, 191159, Note_on_c, 6, 59, 0
26, 191160, Note_on_c, 6, 56, 80
26, 191279, Note_on_c, 6, 56, 0
26, 191280, Note_on_c, 6, 52, 80
26, 191399, Note_on_c, 6, 52, 0
26, 191400, Note_on_c, 6, 50, 80
26, 191519, Note_on_c, 6, 50, 0
26, 191520, Note_on_c, 6, 50, 80
26, 191759, Note_on_c, 6, 50, 0
26, 191760, Note_on_c, 6, 54, 80
26, 191879, Note_on_c, 6, 54, 0
26, 191880, Note_on_c, 6, 52, 80
26, 191999, Note_on_c, 6, 52, 0
26, 192000, Note_on_c, 6, 50, 80
26, 192239, Note_on_c, 6, 50, 0
26, 192240, Note_on_c, 6, 49, 80
26, 192479, Note_on_c, 6, 49, 0
26, 193200, Note_on_c, 6, 57, 80
26, 193439, Note_on_c, 6, 57, 0
26, 193440, Note_on_c, 6, 62, 80
26, 193799, Note_on_c, 6, 62, 0
26, 193800, Note_on_c, 6, 64, 80
26, 193919, Note_on_c, 6, 64, 0
26, 193920, Note_on_c, 6, 66, 80
26, 194039, Note_on_c, 6, 66, 0
26, 194040, Note_on_c, 6, 64, 80
26, 194159, Note_on_c, 6, 64, 0
26, 194160, Note_on_c, 6, 64, 80
26, 194279, Note_on_c, 6, 64, 0
26, 194280, Note_on_c, 6, 62, 80
26, 194399, Note_on_c, 6, 62, 0
26, 194400, Note_on_c, 6, 62, 80
26, 194519, Note_on_c, 6, 62, 0
26, 194520, Note_on_c, 6, 61, 80
26, 194639, Note_on_c, 6, 61, 0
26, 194640, Note_on_c, 6, 62, 80
26, 194759, Note_on_c, 6, 62, 0
26, 194760, Note_on_c, 6, 57, 80
26, 194879, Note_on_c, 6, 57, 0
26, 194880, Note_on_c, 6, 55, 80
26, 194999, Note_on_c, 6, 55, 0
26, 195000, Note_on_c, 6, 54, 80
26, 195119, Note_on_c, 6, 54, 0
26, 195120, Note_on_c, 6, 54, 80
26, 195239, Note_on_c, 6, 54, 0
26, 195240, Note_on_c, 6, 52, 80
26, 195359, Note_on_c, 6, 52, 0
26, 195360, Note_on_c, 6, 50, 80
26, 195479, Note_on_c, 6, 50, 0
26, 195480, Note_on_c, 6, 48, 80
26, 195599, Note_on_c, 6, 48, 0
26, 195600, Note_on_c, 6, 48, 80
26, 195719, Note_on_c, 6, 48, 0
26, 195720, Note_on_c, 6, 47, 80
26, 195839, Note_on_c, 6, 47, 0
26, 195840, Note_on_c, 6, 55, 80
26, 196679, Note_on_c, 6, 55, 0
26, 196680, Note_on_c, 6, 52, 80
26, 196799, Note_on_c, 6, 52, 0
26, 196800, Note_on_c, 6, 49, 80
26, 196919, Note_on_c, 6, 49, 0
26, 196920, Note_on_c, 6, 50, 80
26, 197039, Note_on_c, 6, 50, 0
26, 197040, Note_on_c, 6, 50, 80
26, 197159, Note_on_c, 6, 50, 0
26, 197160, Note_on_c, 6, 45, 80
26, 197279, Note_on_c, 6, 45, 0
26, 197280, Note_on_c, 6, 45, 80
26, 197519, Note_on_c, 6, 45, 0
26, 198720, Note_on_c, 6, 64, 80
26, 198959, Note_on_c, 6, 64, 0
26, 198960, Note_on_c, 6, 62, 80
26, 199199, Note_on_c, 6, 62, 0
26, 200640, Note_on_c, 6, 64, 80
26, 200879, Note_on_c, 6, 64, 0
26, 200880, Note_on_c, 6, 62, 80
26, 201359, Note_on_c, 6, 62, 0
26, 201360, Note_on_c, 6, 57, 80
26, 201479, Note_on_c, 6, 57, 0
26, 201480, Note_on_c, 6, 55, 80
26, 201584, Note_on_c, 6, 55, 0
26, 201600, Note_on_c, 6, 54, 80
26, 201839, Note_on_c, 6, 54, 0
26, 201840, Note_on_c, 6, 54, 80
26, 202064, Note_on_c, 6, 54, 0
26, 202080, Note_on_c, 6, 55, 80
26, 202319, Note_on_c, 6, 55, 0
26, 202320, Note_on_c, 6, 57, 80
26, 202559, Note_on_c, 6, 57, 0
26, 202560, Note_on_c, 6, 57, 80
26, 202799, Note_on_c, 6, 57, 0
26, 202800, Note_on_c, 6, 55, 80
26, 203039, Note_on_c, 6, 55, 0
26, 203040, Note_on_c, 6, 54, 80
26, 203279, Note_on_c, 6, 54, 0
26, 203280, Note_on_c, 6, 52, 80
26, 203504, Note_on_c, 6, 52, 0
26, 203520, Note_on_c, 6, 50, 80
26, 203759, Note_on_c, 6, 50, 0
26, 203760, Note_on_c, 6, 50, 80
26, 203999, Note_on_c, 6, 50, 0
26, 204000, Note_on_c, 6, 52, 80
26, 204239, Note_on_c, 6, 52, 0
26, 204240, Note_on_c, 6, 54, 80
26, 204479, Note_on_c, 6, 54, 0
26, 204480, Note_on_c, 6, 54, 80
26, 204839, Note_on_c, 6, 54, 0
26, 204840, Note_on_c, 6, 52, 80
26, 204959, Note_on_c, 6, 52, 0
26, 204960, Note_on_c, 6, 52, 80
26, 205409, Note_on_c, 6, 52, 0
26, 205440, Note_on_c, 6, 54, 80
26, 205679, Note_on_c, 6, 54, 0
26, 205680, Note_on_c, 6, 54, 80
26, 205919, Note_on_c, 6, 54, 0
26, 205920, Note_on_c, 6, 55, 80
26, 206159, Note_on_c, 6, 55, 0
26, 206160, Note_on_c, 6, 57, 80
26, 206399, Note_on_c, 6, 57, 0
26, 206400, Note_on_c, 6, 57, 80
26, 206639, Note_on_c, 6, 57, 0
26, 206640, Note_on_c, 6, 55, 80
26, 206879, Note_on_c, 6, 55, 0
26, 206880, Note_on_c, 6, 54, 80
26, 207119, Note_on_c, 6, 54, 0
26, 207120, Note_on_c, 6, 52, 80
26, 207344, Note_on_c, 6, 52, 0
26, 207360, Note_on_c, 6, 50, 80
26, 207599, Note_on_c, 6, 50, 0
26, 207600, Note_on_c, 6, 50, 80
26, 207839, Note_on_c, 6, 50, 0
26, 207840, Note_on_c, 6, 52, 80
26, 208064, Note_on_c, 6, 52, 0
26, 208080, Note_on_c, 6, 54, 80
26, 208319, Note_on_c, 6, 54, 0
26, 208320, Note_on_c, 6, 52, 80
26, 208679, Note_on_c, 6, 52, 0
26, 208680, Note_on_c, 6, 50, 80
26, 208799, Note_on_c, 6, 50, 0
26, 208800, Note_on_c, 6, 50, 80
26, 209249, Note_on_c, 6, 50, 0
26, 209280, Note_on_c, 6, 52, 80
26, 209519, Note_on_c, 6, 52, 0
26, 209520, Note_on_c, 6, 52, 80
26, 209759, Note_on_c, 6, 52, 0
26, 209760, Note_on_c, 6, 54, 80
26, 209999, Note_on_c, 6, 54, 0
26, 210000, Note_on_c, 6, 50, 80
26, 210239, Note_on_c, 6, 50, 0
26, 210240, Note_on_c, 6, 52, 80
26, 210479, Note_on_c, 6, 52, 0
26, 210480, Note_on_c, 6, 54, 80
26, 210599, Note_on_c, 6, 54, 0
26, 210600, Note_on_c, 6, 55, 80
26, 210719, Note_on_c, 6, 55, 0
26, 210720, Note_on_c, 6, 54, 80
26, 210959, Note_on_c, 6, 54, 0
26, 210960, Note_on_c, 6, 50, 80
26, 211184, Note_on_c, 6, 50, 0
26, 211200, Note_on_c, 6, 52, 80
26, 211439, Note_on_c, 6, 52, 0
26, 211440, Note_on_c, 6, 54, 80
26, 211559, Note_on_c, 6, 54, 0
26, 211560, Note_on_c, 6, 55, 80
26, 211679, Note_on_c, 6, 55, 0
26, 211680, Note_on_c, 6, 54, 80
26, 211919, Note_on_c, 6, 54, 0
26, 211920, Note_on_c, 6, 52, 80
26, 212159, Note_on_c, 6, 52, 0
26, 212160, Note_on_c, 6, 50, 80
26, 212399, Note_on_c, 6, 50, 0
26, 212400, Note_on_c, 6, 52, 80
26, 212639, Note_on_c, 6, 52, 0
26, 212640, Note_on_c, 6, 45, 80
26, 212849, Note_on_c, 6, 45, 0
26, 212880, Note_on_c, 6, 54, 80
26, 213359, Note_on_c, 6, 54, 0
26, 213360, Note_on_c, 6, 54, 80
26, 213599, Note_on_c, 6, 54, 0
26, 213600, Note_on_c, 6, 55, 80
26, 213839, Note_on_c, 6, 55, 0
26, 213840, Note_on_c, 6, 57, 80
26, 214079, Note_on_c, 6, 57, 0
26, 214080, Note_on_c, 6, 57, 80
26, 214319, Note_on_c, 6, 57, 0
26, 214320, Note_on_c, 6, 55, 80
26, 214559, Note_on_c, 6, 55, 0
26, 214560, Note_on_c, 6, 54, 80
26, 214560, Control_c, 6, 11, 127
26, 214600, Control_c, 6, 11, 125
26, 214640, Control_c, 6, 11, 123
26, 214680, Control_c, 6, 11, 120
26, 214720, Control_c, 6, 11, 118
26, 214760, Control_c, 6, 11, 116
26, 214799, Note_on_c, 6, 54, 0
26, 214800, Control_c, 6, 11, 114
26, 214800, Note_on_c, 6, 55, 80
26, 214840, Control_c, 6, 11, 111
26, 214880, Control_c, 6, 11, 109
26, 214919, Note_on_c, 6, 55, 0
26, 214920, Control_c, 6, 11, 107
26, 214920, Note_on_c, 6, 52, 80
26, 215024, Note_on_c, 6, 52, 0
26, 215040, Note_on_c, 6, 50, 80
26, 215279, Note_on_c, 6, 50, 0
26, 215280, Note_on_c, 6, 50, 80
26, 215519, Note_on_c, 6, 50, 0
26, 215520, Note_on_c, 6, 52, 80
26, 215759, Note_on_c, 6, 52, 0
26, 215760, Note_on_c, 6, 54, 80
26, 215999, Note_on_c, 6, 54, 0
26, 216000, Note_on_c, 6, 52, 80
26, 216359, Note_on_c, 6, 52, 0
26, 216360, Note_on_c, 6, 50, 80
26, 216479, Note_on_c, 6, 50, 0
26, 216480, Note_on_c, 6, 50, 80
26, 216959, Note_on_c, 6, 50, 0
26, 228240, Control_c, 6, 11, 127
26, 228480, Note_on_c, 6, 50, 68
26, 228719, Note_on_c, 6, 50, 0
26, 228720, Note_on_c, 6, 50, 68
26, 228959, Note_on_c, 6, 50, 0
26, 228960, Note_on_c, 6, 50, 68
26, 229199, Note_on_c, 6, 50, 0
26, 229200, Note_on_c, 6, 49, 68
26, 229319, Note_on_c, 6, 49, 0
26, 229320, Note_on_c, 6, 47, 68
26, 229439, Note_on_c, 6, 47, 0
26, 229440, Note_on_c, 6, 45, 68
26, 229559, Note_on_c, 6, 45, 0
26, 229560, Note_on_c, 6, 47, 68
26, 229679, Note_on_c, 6, 47, 0
26, 229680, Note_on_c, 6, 49, 68
26, 229799, Note_on_c, 6, 49, 0
26, 229800, Note_on_c, 6, 50, 68
26, 229919, Note_on_c, 6, 50, 0
26, 229920, Note_on_c, 6, 52, 68
26, 230039, Note_on_c, 6, 52, 0
26, 230040, Note_on_c, 6, 54, 68
26, 230159, Note_on_c, 6, 54, 0
26, 230160, Note_on_c, 6, 55, 68
26, 230279, Note_on_c, 6, 55, 0
26, 230280, Note_on_c, 6, 52, 68
26, 230384, Note_on_c, 6, 52, 0
26, 230400, Note_on_c, 6, 57, 68
26, 230639, Note_on_c, 6, 57, 0
26, 230640, Note_on_c, 6, 57, 68
26, 230879, Note_on_c, 6, 57, 0
26, 230880, Note_on_c, 6, 57, 68
26, 231119, Note_on_c, 6, 57, 0
26, 231120, Note_on_c, 6, 57, 68
26, 231359, Note_on_c, 6, 57, 0
26, 231360, Note_on_c, 6, 57, 68
26, 231719, Note_on_c, 6, 57, 0
26, 231720, Note_on_c, 6, 45, 68
26, 231839, Note_on_c, 6, 45, 0
26, 231840, Note_on_c, 6, 45, 68
26, 232079, Note_on_c, 6, 45, 0
26, 232080, Note_on_c, 6, 47, 68
26, 232199, Note_on_c, 6, 47, 0
26, 232200, Note_on_c, 6, 49, 68
26, 232289, Note_on_c, 6, 49, 0
26, 232320, Note_on_c, 6, 50, 68
26, 232559, Note_on_c, 6, 50, 0
26, 232560, Note_on_c, 6, 50, 68
26, 232799, Note_on_c, 6, 50, 0
26, 232800, Note_on_c, 6, 50, 68
26, 233039, Note_on_c, 6, 50, 0
26, 233040, Note_on_c, 6, 49, 68
26, 233159, Note_on_c, 6, 49, 0
26, 233160, Note_on_c, 6, 47, 68
26, 233279, Note_on_c, 6, 47, 0
26, 233280, Note_on_c, 6, 45, 68
26, 233399, Note_on_c, 6, 45, 0
26, 233400, Note_on_c, 6, 47, 68
26, 233519, Note_on_c, 6, 47, 0
26, 233520, Note_on_c, 6, 49, 68
26, 233639, Note_on_c, 6, 49, 0
26, 233640, Note_on_c, 6, 50, 68
26, 233759, Note_on_c, 6, 50, 0
26, 233760, Note_on_c, 6, 52, 68
26, 233879, Note_on_c, 6, 52, 0
26, 233880, Note_on_c, 6, 54, 68
26, 233999, Note_on_c, 6, 54, 0
26, 234000, Note_on_c, 6, 55, 68
26, 234119, Note_on_c, 6, 55, 0
26, 234120, Note_on_c, 6, 52, 68
26, 234224, Note_on_c, 6, 52, 0
26, 234240, Note_on_c, 6, 57, 68
26, 234479, Note_on_c, 6, 57, 0
26, 234480, Note_on_c, 6, 57, 68
26, 234719, Note_on_c, 6, 57, 0
26, 234720, Note_on_c, 6, 57, 68
26, 234959, Note_on_c, 6, 57, 0
26, 234960, Note_on_c, 6, 57, 68
26, 235199, Note_on_c, 6, 57, 0
26, 235200, Note_on_c, 6, 57, 68
26, 235439, Note_on_c, 6, 57, 0
26, 235440, Note_on_c, 6, 45, 68
26, 235679, Note_on_c, 6, 45, 0
26, 235680, Note_on_c, 6, 50, 68
26, 235889, Note_on_c, 6, 50, 0
26, 235920, Note_on_c, 6, 57, 68
26, 236369, Note_on_c, 6, 57, 0
26, 236400, Note_on_c, 6, 57, 68
26, 236639, Note_on_c, 6, 57, 0
26, 236640, Note_on_c, 6, 57, 68
26, 236999, Note_on_c, 6, 57, 0
26, 237000, Note_on_c, 6, 45, 68
26, 237119, Note_on_c, 6, 45, 0
26, 237120, Note_on_c, 6, 57, 68
26, 237239, Note_on_c, 6, 57, 0
26, 237240, Note_on_c, 6, 52, 68
26, 237359, Note_on_c, 6, 52, 0
26, 237360, Note_on_c, 6, 50, 68
26, 237479, Note_on_c, 6, 50, 0
26, 237480, Note_on_c, 6, 49, 68
26, 237599, Note_on_c, 6, 49, 0
26, 237600, Note_on_c, 6, 50, 68
26, 237959, Note_on_c, 6, 50, 0
26, 237960, Note_on_c, 6, 57, 68
26, 238079, Note_on_c, 6, 57, 0
26, 238080, Note_on_c, 6, 57, 68
26, 238319, Note_on_c, 6, 57, 0
26, 238320, Note_on_c, 6, 57, 68
26, 238559, Note_on_c, 6, 57, 0
26, 238560, Note_on_c, 6, 58, 68
26, 238799, Note_on_c, 6, 58, 0
26, 238800, Note_on_c, 6, 54, 68
26, 239039, Note_on_c, 6, 54, 0
26, 239040, Note_on_c, 6, 59, 68
26, 239279, Note_on_c, 6, 59, 0
26, 239280, Note_on_c, 6, 52, 68
26, 239519, Note_on_c, 6, 52, 0
26, 239520, Note_on_c, 6, 57, 68
26, 239729, Note_on_c, 6, 57, 0
26, 239758, Control_c, 6, 11, 107
26, 239760, Note_on_c, 6, 45, 80
26, 239760, Control_c, 6, 11, 109
26, 239820, Control_c, 6, 11, 110
26, 239880, Control_c, 6, 11, 112
26, 239940, Control_c, 6, 11, 114
26, 239999, Note_on_c, 6, 45, 0
26, 240000, Note_on_c, 6, 50, 80
26, 240000, Control_c, 6, 11, 115
26, 240060, Control_c, 6, 11, 116
26, 240120, Control_c, 6, 11, 119
26, 240180, Control_c, 6, 11, 120
26, 240239, Note_on_c, 6, 50, 0
26, 240240, Control_c, 6, 11, 121
26, 240240, Note_on_c, 6, 50, 80
26, 240300, Control_c, 6, 11, 122
26, 240360, Control_c, 6, 11, 125
26, 240420, Control_c, 6, 11, 126
26, 240479, Note_on_c, 6, 50, 0
26, 240480, Control_c, 6, 11, 127
26, 240480, Note_on_c, 6, 62, 92
26, 240719, Note_on_c, 6, 62, 0
26, 240720, Note_on_c, 6, 61, 80
26, 240839, Note_on_c, 6, 61, 0
26, 240840, Note_on_c, 6, 59, 80
26, 240959, Note_on_c, 6, 59, 0
26, 240960, Note_on_c, 6, 57, 80
26, 241079, Note_on_c, 6, 57, 0
26, 241080, Note_on_c, 6, 47, 80
26, 241184, Note_on_c, 6, 47, 0
26, 241200, Note_on_c, 6, 49, 80
26, 241319, Note_on_c, 6, 49, 0
26, 241320, Note_on_c, 6, 50, 80
26, 241439, Note_on_c, 6, 50, 0
26, 241440, Note_on_c, 6, 52, 79
26, 241559, Note_on_c, 6, 52, 0
26, 241560, Note_on_c, 6, 54, 78
26, 241679, Note_on_c, 6, 54, 0
26, 241680, Note_on_c, 6, 55, 78
26, 241799, Note_on_c, 6, 55, 0
26, 241800, Note_on_c, 6, 52, 77
26, 241919, Note_on_c, 6, 52, 0
26, 241920, Note_on_c, 6, 54, 76
26, 242159, Note_on_c, 6, 54, 0
26, 242160, Note_on_c, 6, 50, 75
26, 242399, Note_on_c, 6, 50, 0
26, 242400, Note_on_c, 6, 45, 74
26, 242639, Note_on_c, 6, 45, 0
26, 242640, Note_on_c, 6, 45, 72
26, 242879, Note_on_c, 6, 45, 0
26, 242880, Note_on_c, 6, 57, 71
26, 243119, Note_on_c, 6, 57, 0
26, 243120, Note_on_c, 6, 45, 70
26, 243359, Note_on_c, 6, 45, 0
26, 243360, Note_on_c, 6, 50, 68
26, 243809, Note_on_c, 6, 50, 0
26, 255000, Note_on_c, 6, 54, 44
26, 255119, Note_on_c, 6, 54, 0
26, 255120, Note_on_c, 6, 55, 44
26, 255239, Note_on_c, 6, 55, 0
26, 255240, Note_on_c, 6, 52, 44
26, 255359, Note_on_c, 6, 52, 0
26, 255360, Note_on_c, 6, 54, 44
26, 255479, Note_on_c, 6, 54, 0
26, 255480, Note_on_c, 6, 55, 44
26, 255599, Note_on_c, 6, 55, 0
26, 255600, Note_on_c, 6, 52, 44
26, 255719, Note_on_c, 6, 52, 0
26, 255720, Note_on_c, 6, 54, 44
26, 255839, Note_on_c, 6, 54, 0
26, 255840, Note_on_c, 6, 55, 44
26, 255959, Note_on_c, 6, 55, 0
26, 255960, Note_on_c, 6, 57, 44
26, 256079, Note_on_c, 6, 57, 0
26, 256080, Note_on_c, 6, 59, 44
26, 256199, Note_on_c, 6, 59, 0
26, 256200, Note_on_c, 6, 57, 44
26, 256319, Note_on_c, 6, 57, 0
26, 256320, Note_on_c, 6, 57, 44
26, 256439, Note_on_c, 6, 57, 0
26, 256440, Note_on_c, 6, 55, 44
26, 256559, Note_on_c, 6, 55, 0
26, 256560, Note_on_c, 6, 59, 44
26, 256679, Note_on_c, 6, 59, 0
26, 256680, Note_on_c, 6, 55, 44
26, 256799, Note_on_c, 6, 55, 0
26, 256800, Note_on_c, 6, 54, 44
26, 256919, Note_on_c, 6, 54, 0
26, 256920, Note_on_c, 6, 52, 44
26, 257039, Note_on_c, 6, 52, 0
26, 257040, Note_on_c, 6, 55, 44
26, 257159, Note_on_c, 6, 55, 0
26, 257160, Note_on_c, 6, 52, 44
26, 257279, Note_on_c, 6, 52, 0
26, 257280, Note_on_c, 6, 50, 44
26, 257399, Note_on_c, 6, 50, 0
26, 257400, Note_on_c, 6, 52, 44
26, 257519, Note_on_c, 6, 52, 0
26, 257520, Note_on_c, 6, 54, 44
26, 257639, Note_on_c, 6, 54, 0
26, 257640, Note_on_c, 6, 55, 44
26, 257759, Note_on_c, 6, 55, 0
26, 257760, Note_on_c, 6, 57, 44
26, 257879, Note_on_c, 6, 57, 0
26, 257880, Note_on_c, 6, 59, 44
26, 257999, Note_on_c, 6, 59, 0
26, 258000, Note_on_c, 6, 61, 44
26, 258119, Note_on_c, 6, 61, 0
26, 258120, Note_on_c, 6, 62, 44
26, 258239, Note_on_c, 6, 62, 0
26, 258240, Note_on_c, 6, 62, 44
26, 258359, Note_on_c, 6, 62, 0
26, 258360, Note_on_c, 6, 61, 44
26, 258479, Note_on_c, 6, 61, 0
26, 258480, Note_on_c, 6, 64, 44
26, 258599, Note_on_c, 6, 64, 0
26, 258600, Note_on_c, 6, 62, 44
26, 258719, Note_on_c, 6, 62, 0
26, 258720, Note_on_c, 6, 61, 44
26, 259169, Note_on_c, 6, 61, 0
26, 259200, Note_on_c, 6, 62, 44
26, 259439, Note_on_c, 6, 62, 0
26, 259440, Note_on_c, 6, 62, 44
26, 259679, Note_on_c, 6, 62, 0
26, 259680, Note_on_c, 6, 62, 44
26, 259919, Note_on_c, 6, 62, 0
26, 259920, Note_on_c, 6, 62, 44
26, 260144, Note_on_c, 6, 62, 0
26, 260160, Note_on_c, 6, 59, 44
26, 260399, Note_on_c, 6, 59, 0
26, 260400, Note_on_c, 6, 59, 44
26, 260639, Note_on_c, 6, 59, 0
26, 260640, Note_on_c, 6, 61, 44
26, 260879, Note_on_c, 6, 61, 0
26, 260880, Note_on_c, 6, 61, 44
26, 261119, Note_on_c, 6, 61, 0
26, 261120, Note_on_c, 6, 62, 44
26, 261239, Note_on_c, 6, 62, 0
26, 261240, Note_on_c, 6, 61, 44
26, 261359, Note_on_c, 6, 61, 0
26, 261360, Note_on_c, 6, 59, 44
26, 261479, Note_on_c, 6, 59, 0
26, 261480, Note_on_c, 6, 57, 44
26, 261599, Note_on_c, 6, 57, 0
26, 261600, Note_on_c, 6, 55, 44
26, 261719, Note_on_c, 6, 55, 0
26, 261720, Note_on_c, 6, 54, 44
26, 261839, Note_on_c, 6, 54, 0
26, 261840, Note_on_c, 6, 52, 44
26, 261959, Note_on_c, 6, 52, 0
26, 261960, Note_on_c, 6, 50, 44
26, 262079, Note_on_c, 6, 50, 0
26, 262080, Note_on_c, 6, 54, 44
26, 262199, Note_on_c, 6, 54, 0
26, 262200, Note_on_c, 6, 52, 44
26, 262319, Note_on_c, 6, 52, 0
26, 262320, Note_on_c, 6, 50, 44
26, 262439, Note_on_c, 6, 50, 0
26, 262440, Note_on_c, 6, 52, 44
26, 262559, Note_on_c, 6, 52, 0
26, 262560, Note_on_c, 6, 50, 44
26, 262679, Note_on_c, 6, 50, 0
26, 262680, Note_on_c, 6, 54, 44
26, 262769, Note_on_c, 6, 54, 0
26, 262800, Note_on_c, 6, 52, 44
26, 262919, Note_on_c, 6, 52, 0
26, 262920, Note_on_c, 6, 50, 44
26, 263039, Note_on_c, 6, 50, 0
26, 263040, Note_on_c, 6, 57, 44
26, 263279, Note_on_c, 6, 57, 0
26, 263280, Note_on_c, 6, 45, 44
26, 263519, Note_on_c, 6, 45, 0
26, 263520, Note_on_c, 6, 49, 44
26, 263639, Note_on_c, 6, 49, 0
26, 263640, Note_on_c, 6, 50, 44
26, 263759, Note_on_c, 6, 50, 0
26, 263760, Note_on_c, 6, 52, 44
26, 263879, Note_on_c, 6, 52, 0
26, 263880, Note_on_c, 6, 54, 44
26, 263999, Note_on_c, 6, 54, 0
26, 264000, Note_on_c, 6, 45, 44
26, 264239, Note_on_c, 6, 45, 0
26, 264240, Note_on_c, 6, 57, 44
26, 264479, Note_on_c, 6, 57, 0
26, 264480, Note_on_c, 6, 49, 44
26, 264599, Note_on_c, 6, 49, 0
26, 264600, Note_on_c, 6, 50, 44
26, 264719, Note_on_c, 6, 50, 0
26, 264720, Note_on_c, 6, 52, 44
26, 264839, Note_on_c, 6, 52, 0
26, 264840, Note_on_c, 6, 54, 44
26, 264944, Note_on_c, 6, 54, 0
26, 264960, Note_on_c, 6, 54, 44
26, 265079, Note_on_c, 6, 54, 0
26, 265080, Note_on_c, 6, 55, 44
26, 265199, Note_on_c, 6, 55, 0
26, 265200, Note_on_c, 6, 57, 44
26, 265319, Note_on_c, 6, 57, 0
26, 265320, Note_on_c, 6, 55, 44
26, 265439, Note_on_c, 6, 55, 0
26, 265440, Note_on_c, 6, 55, 44
26, 265559, Note_on_c, 6, 55, 0
26, 265560, Note_on_c, 6, 57, 44
26, 265679, Note_on_c, 6, 57, 0
26, 265680, Note_on_c, 6, 57, 44
26, 265799, Note_on_c, 6, 57, 0
26, 265800, Note_on_c, 6, 58, 44
26, 265919, Note_on_c, 6, 58, 0
26, 265920, Note_on_c, 6, 58, 44
26, 266039, Note_on_c, 6, 58, 0
26, 266040, Note_on_c, 6, 59, 44
26, 266159, Note_on_c, 6, 59, 0
26, 266160, Note_on_c, 6, 59, 44
26, 266279, Note_on_c, 6, 59, 0
26, 266280, Note_on_c, 6, 56, 44
26, 266399, Note_on_c, 6, 56, 0
26, 266400, Note_on_c, 6, 57, 44
26, 266609, Note_on_c, 6, 57, 0
26, 266640, Note_on_c, 6, 45, 44
26, 266879, Note_on_c, 6, 45, 0
26, 266880, Note_on_c, 6, 50, 44
26, 267119, Note_on_c, 6, 50, 0
26, 267120, Note_on_c, 6, 57, 44
26, 267359, Note_on_c, 6, 57, 0
26, 267360, Note_on_c, 6, 57, 44
26, 267599, Note_on_c, 6, 57, 0
26, 267600, Note_on_c, 6, 57, 44
26, 267839, Note_on_c, 6, 57, 0
26, 267840, Note_on_c, 6, 59, 44
26, 268079, Note_on_c, 6, 59, 0
26, 268080, Note_on_c, 6, 59, 44
26, 268319, Note_on_c, 6, 59, 0
26, 268320, Note_on_c, 6, 62, 44
26, 268439, Note_on_c, 6, 62, 0
26, 268440, Note_on_c, 6, 61, 44
26, 268559, Note_on_c, 6, 61, 0
26, 268560, Note_on_c, 6, 64, 44
26, 268679, Note_on_c, 6, 64, 0
26, 268680, Note_on_c, 6, 61, 44
26, 268784, Note_on_c, 6, 61, 0
26, 268800, Note_on_c, 6, 62, 44
26, 269039, Note_on_c, 6, 62, 0
26, 269040, Note_on_c, 6, 64, 44
26, 269159, Note_on_c, 6, 64, 0
26, 269160, Note_on_c, 6, 66, 44
26, 269279, Note_on_c, 6, 66, 0
26, 269280, Note_on_c, 6, 62, 80
26, 269639, Note_on_c, 6, 62, 0
26, 269640, Note_on_c, 6, 62, 80
26, 269759, Note_on_c, 6, 62, 0
26, 269760, Note_on_c, 6, 62, 80
26, 269879, Note_on_c, 6, 62, 0
26, 269880, Note_on_c, 6, 57, 80
26, 270119, Note_on_c, 6, 57, 0
26, 270120, Note_on_c, 6, 62, 80
26, 270239, Note_on_c, 6, 62, 0
26, 270240, Note_on_c, 6, 62, 80
26, 270689, Note_on_c, 6, 62, 0
26, 727680, Note_on_c, 6, 50, 56
26, 728279, Note_on_c, 6, 50, 0
26, 728280, Note_on_c, 6, 52, 56
26, 728399, Note_on_c, 6, 52, 0
26, 728400, Note_on_c, 6, 54, 56
26, 728519, Note_on_c, 6, 54, 0
26, 728520, Note_on_c, 6, 50, 56
26, 728619, Note_on_c, 6, 50, 0
26, 728640, Note_on_c, 6, 52, 56
26, 728879, Note_on_c, 6, 52, 0
26, 728880, Note_on_c, 6, 52, 56
26, 729119, Note_on_c, 6, 52, 0
26, 729120, Note_on_c, 6, 52, 56
26, 729359, Note_on_c, 6, 52, 0
26, 729360, Note_on_c, 6, 52, 56
26, 729599, Note_on_c, 6, 52, 0
26, 729600, Note_on_c, 6, 52, 56
26, 729959, Note_on_c, 6, 52, 0
26, 729960, Note_on_c, 6, 50, 56
26, 730079, Note_on_c, 6, 50, 0
26, 730080, Note_on_c, 6, 50, 56
26, 730559, Note_on_c, 6, 50, 0
26, 739200, Note_on_c, 6, 57, 56
26, 739799, Note_on_c, 6, 57, 0
26, 739800, Note_on_c, 6, 59, 56
26, 739919, Note_on_c, 6, 59, 0
26, 739920, Note_on_c, 6, 61, 56
26, 740039, Note_on_c, 6, 61, 0
26, 740040, Note_on_c, 6, 57, 56
26, 740139, Note_on_c, 6, 57, 0
26, 740160, Note_on_c, 6, 59, 56
26, 740399, Note_on_c, 6, 59, 0
26, 740400, Note_on_c, 6, 59, 56
26, 740639, Note_on_c, 6, 59, 0
26, 740640, Note_on_c, 6, 59, 56
26, 740879, Note_on_c, 6, 59, 0
26, 740880, Note_on_c, 6, 59, 56
26, 741119, Note_on_c, 6, 59, 0
26, 741120, Note_on_c, 6, 59, 56
26, 741479, Note_on_c, 6, 59, 0
26, 741480, Note_on_c, 6, 57, 56
26, 741599, Note_on_c, 6, 57, 0
26, 741600, Note_on_c, 6, 57, 56
26, 742079, Note_on_c, 6, 57, 0
26, 746880, Note_on_c, 6, 52, 56
26, 747119, Note_on_c, 6, 52, 0
26, 747120, Note_on_c, 6, 52, 56
26, 747359, Note_on_c, 6, 52, 0
26, 747360, Note_on_c, 6, 50, 56
26, 747599, Note_on_c, 6, 50, 0
26, 747600, Note_on_c, 6, 50, 56
26, 747819, Note_on_c, 6, 50, 0
26, 747840, Note_on_c, 6, 55, 56
26, 748079, Note_on_c, 6, 55, 0
26, 748080, Note_on_c, 6, 55, 56
26, 748319, Note_on_c, 6, 55, 0
26, 748320, Note_on_c, 6, 54, 56
26, 748559, Note_on_c, 6, 54, 0
26, 748560, Note_on_c, 6, 54, 56
26, 748799, Note_on_c, 6, 54, 0
26, 748800, Note_on_c, 6, 54, 56
26, 749039, Note_on_c, 6, 54, 0
26, 749040, Note_on_c, 6, 52, 56
26, 749279, Note_on_c, 6, 52, 0
26, 749280, Note_on_c, 6, 50, 56
26, 749519, Note_on_c, 6, 50, 0
26, 749520, Note_on_c, 6, 57, 56
26, 749759, Note_on_c, 6, 57, 0
26, 749760, Note_on_c, 6, 57, 56
26, 749999, Note_on_c, 6, 57, 0
26, 750000, Note_on_c, 6, 55, 56
26, 750239, Note_on_c, 6, 55, 0
26, 750240, Note_on_c, 6, 55, 56
26, 750479, Note_on_c, 6, 55, 0
26, 750480, Note_on_c, 6, 54, 56
26, 750699, Note_on_c, 6, 54, 0
26, 750720, Note_on_c, 6, 45, 56
26, 750959, Note_on_c, 6, 45, 0
26, 750960, Note_on_c, 6, 49, 56
26, 751199, Note_on_c, 6, 49, 0
26, 751200, Note_on_c, 6, 50, 56
26, 751439, Note_on_c, 6, 50, 0
26, 751440, Note_on_c, 6, 54, 56
26, 751679, Note_on_c, 6, 54, 0
26, 751680, Note_on_c, 6, 57, 56
26, 751919, Note_on_c, 6, 57, 0
26, 751920, Note_on_c, 6, 49, 56
26, 752159, Note_on_c, 6, 49, 0
26, 752160, Note_on_c, 6, 50, 56
26, 752399, Note_on_c, 6, 50, 0
26, 752400, Note_on_c, 6, 54, 56
26, 752639, Note_on_c, 6, 54, 0
26, 752640, Note_on_c, 6, 45, 56
26, 752879, Note_on_c, 6, 45, 0
26, 752880, Note_on_c, 6, 49, 56
26, 753119, Note_on_c, 6, 49, 0
26, 753120, Note_on_c, 6, 50, 56
26, 753359, Note_on_c, 6, 50, 0
26, 753360, Note_on_c, 6, 54, 56
26, 753599, Note_on_c, 6, 54, 0
26, 753600, Note_on_c, 6, 57, 56
26, 753839, Note_on_c, 6, 57, 0
26, 753840, Note_on_c, 6, 49, 56
26, 754079, Note_on_c, 6, 49, 0
26, 754080, Note_on_c, 6, 50, 56
26, 754319, Note_on_c, 6, 50, 0
26, 754320, Note_on_c, 6, 54, 56
26, 754539, Note_on_c, 6, 54, 0
26, 754560, Note_on_c, 6, 52, 56
26, 754799, Note_on_c, 6, 52, 0
26, 754800, Note_on_c, 6, 57, 56
26, 755039, Note_on_c, 6, 57, 0
26, 755040, Note_on_c, 6, 50, 56
26, 755279, Note_on_c, 6, 50, 0
26, 755280, Note_on_c, 6, 57, 56
26, 755519, Note_on_c, 6, 57, 0
26, 755520, Note_on_c, 6, 55, 56
26, 755759, Note_on_c, 6, 55, 0
26, 755760, Note_on_c, 6, 57, 56
26, 755999, Note_on_c, 6, 57, 0
26, 756000, Note_on_c, 6, 54, 56
26, 756239, Note_on_c, 6, 54, 0
26, 756240, Note_on_c, 6, 57, 56
26, 756719, Note_on_c, 6, 57, 0
26, 756720, Note_on_c, 6, 61, 56
26, 756959, Note_on_c, 6, 61, 0
26, 756960, Note_on_c, 6, 57, 56
26, 757199, Note_on_c, 6, 57, 0
26, 757200, Note_on_c, 6, 62, 56
26, 757439, Note_on_c, 6, 62, 0
26, 757440, Note_on_c, 6, 57, 56
26, 757679, Note_on_c, 6, 57, 0
26, 757680, Note_on_c, 6, 45, 56
26, 758159, Note_on_c, 6, 45, 0
26, 758160, Note_on_c, 6, 57, 56
26, 758639, Note_on_c, 6, 57, 0
26, 758640, Note_on_c, 6, 45, 56
26, 759599, Note_on_c, 6, 45, 0
26, 759600, Note_on_c, 6, 57, 56
26, 760559, Note_on_c, 6, 57, 0
26, 760560, Note_on_c, 6, 64, 56
26, 760799, Note_on_c, 6, 64, 0
26, 760800, Note_on_c, 6, 64, 56
26, 761039, Note_on_c, 6, 64, 0
26, 788640, Note_on_c, 6, 52, 92
26, 788999, Note_on_c, 6, 52, 0
26, 789000, Note_on_c, 6, 52, 92
26, 789119, Note_on_c, 6, 52, 0
26, 789120, Note_on_c, 6, 52, 92
26, 789359, Note_on_c, 6, 52, 0
26, 789360, Note_on_c, 6, 52, 92
26, 789579, Note_on_c, 6, 52, 0
26, 789600, Note_on_c, 6, 52, 92
26, 789959, Note_on_c, 6, 52, 0
26, 789960, Note_on_c, 6, 52, 92
26, 790059, Note_on_c, 6, 52, 0
26, 790080, Note_on_c, 6, 52, 92
26, 790799, Note_on_c, 6, 52, 0
26, 790800, Note_on_c, 6, 52, 92
26, 791039, Note_on_c, 6, 52, 0
26, 791040, Note_on_c, 6, 52, 92
26, 791339, Note_on_c, 6, 52, 0
26, 791340, Note_on_c, 6, 56, 92
26, 791399, Note_on_c, 6, 56, 0
26, 791400, Note_on_c, 6, 56, 92
26, 791519, Note_on_c, 6, 56, 0
26, 791520, Note_on_c, 6, 56, 92
26, 791759, Note_on_c, 6, 56, 0
26, 791760, Note_on_c, 6, 56, 92
26, 791999, Note_on_c, 6, 56, 0
26, 792000, Note_on_c, 6, 56, 92
26, 792119, Note_on_c, 6, 56, 0
26, 792120, Note_on_c, 6, 54, 92
26, 792239, Note_on_c, 6, 54, 0
26, 792240, Note_on_c, 6, 54, 92
26, 792459, Note_on_c, 6, 54, 0
26, 792480, Note_on_c, 6, 54, 92
26, 792719, Note_on_c, 6, 54, 0
26, 792720, Note_on_c, 6, 54, 92
26, 792959, Note_on_c, 6, 54, 0
26, 792960, Note_on_c, 6, 52, 92
26, 793919, Note_on_c, 6, 52, 0
26, 793920, Note_on_c, 6, 54, 92
26, 794639, Note_on_c, 6, 54, 0
26, 794640, Note_on_c, 6, 54, 92
26, 794879, Note_on_c, 6, 54, 0
26, 794880, Note_on_c, 6, 54, 92
26, 794999, Note_on_c, 6, 54, 0
26, 795000, Note_on_c, 6, 54, 92
26, 795119, Note_on_c, 6, 54, 0
26, 795120, Note_on_c, 6, 54, 92
26, 796079, Note_on_c, 6, 54, 0
26, 796560, Note_on_c, 6, 42, 92
26, 796799, Note_on_c, 6, 42, 0
26, 796800, Note_on_c, 6, 42, 92
26, 796879, Note_on_c, 6, 42, 0
26, 796880, Note_on_c, 6, 44, 92
26, 796959, Note_on_c, 6, 44, 0
26, 796960, Note_on_c, 6, 46, 92
26, 797039, Note_on_c, 6, 46, 0
26, 797040, Note_on_c, 6, 47, 92
26, 797119, Note_on_c, 6, 47, 0
26, 797120, Note_on_c, 6, 49, 92
26, 797199, Note_on_c, 6, 49, 0
26, 797200, Note_on_c, 6, 51, 92
26, 797279, Note_on_c, 6, 51, 0
26, 797280, Note_on_c, 6, 52, 92
26, 797359, Note_on_c, 6, 52, 0
26, 797360, Note_on_c, 6, 53, 92
26, 797439, Note_on_c, 6, 53, 0
26, 797440, Note_on_c, 6, 54, 92
26, 797519, Note_on_c, 6, 54, 0
26, 797520, Note_on_c, 6, 53, 92
26, 797579, Note_on_c, 6, 53, 0
26, 797580, Note_on_c, 6, 54, 92
26, 797639, Note_on_c, 6, 54, 0
26, 797640, Note_on_c, 6, 56, 92
26, 797699, Note_on_c, 6, 56, 0
26, 797700, Note_on_c, 6, 54, 92
26, 797839, Note_on_c, 6, 54, 0
26, 797840, Note_on_c, 6, 64, 92
26, 797880, Control_c, 6, 11, 49
26, 797919, Note_on_c, 6, 64, 0
26, 797920, Note_on_c, 6, 63, 92
26, 797950, Control_c, 6, 11, 52
26, 797999, Note_on_c, 6, 63, 0
26, 798000, Note_on_c, 6, 64, 92
26, 798020, Control_c, 6, 11, 55
26, 798079, Note_on_c, 6, 64, 0
26, 798080, Note_on_c, 6, 61, 92
26, 798090, Control_c, 6, 11, 59
26, 798159, Note_on_c, 6, 61, 0
26, 798160, Note_on_c, 6, 58, 92
26, 798160, Control_c, 6, 11, 62
26, 798230, Control_c, 6, 11, 65
26, 798239, Note_on_c, 6, 58, 0
26, 798240, Note_on_c, 6, 54, 92
26, 798300, Control_c, 6, 11, 69
26, 798319, Note_on_c, 6, 54, 0
26, 798320, Note_on_c, 6, 52, 92
26, 798370, Control_c, 6, 11, 72
26, 798399, Note_on_c, 6, 52, 0
26, 798400, Note_on_c, 6, 49, 92
26, 798440, Control_c, 6, 11, 75
26, 798479, Note_on_c, 6, 49, 0
26, 798480, Note_on_c, 6, 54, 92
26, 798510, Control_c, 6, 11, 79
26, 798580, Control_c, 6, 11, 82
26, 798599, Note_on_c, 6, 54, 0
26, 798600, Note_on_c, 6, 54, 92
26, 798650, Control_c, 6, 11, 85
26, 798719, Note_on_c, 6, 54, 0
26, 798720, Note_on_c, 6, 47, 92
26, 798720, Control_c, 6, 11, 89
26, 798959, Note_on_c, 6, 47, 0
26, 798960, Note_on_c, 6, 47, 92
26, 798960, Control_c, 6, 11, 89
26, 799000, Control_c, 6, 11, 82
26, 799040, Control_c, 6, 11, 75
26, 799080, Control_c, 6, 11, 69
26, 799120, Control_c, 6, 11, 62
26, 799160, Control_c, 6, 11, 55
26, 799199, Note_on_c, 6, 47, 0
26, 799200, Control_c, 6, 11, 49
26, 799200, Note_on_c, 6, 47, 92
26, 799679, Note_on_c, 6, 47, 0
26, 799680, Note_on_c, 6, 45, 92
26, 800639, Note_on_c, 6, 45, 0
26, 801600, Control_c, 6, 11, 127
26, 801600, End_track
27, 0, Start_track
27, 0, Title_t, "Triangle"
27, 0, MIDI_port, 0
27, 297600, Note_on_c, 9, 81, 32
27, 297839, Note_on_c, 9, 81, 0
27, 297960, Note_on_c, 9, 81, 32
27, 298199, Note_on_c, 9, 81, 0
27, 298320, Note_on_c, 9, 81, 32
27, 298559, Note_on_c, 9, 81, 0
27, 298680, Note_on_c, 9, 81, 32
27, 298919, Note_on_c, 9, 81, 0
27, 299040, Note_on_c, 9, 81, 32
27, 299279, Note_on_c, 9, 81, 0
27, 299400, Note_on_c, 9, 81, 32
27, 299639, Note_on_c, 9, 81, 0
27, 299760, Note_on_c, 9, 81, 32
27, 299999, Note_on_c, 9, 81, 0
27, 300120, Note_on_c, 9, 81, 32
27, 300359, Note_on_c, 9, 81, 0
27, 300480, Note_on_c, 9, 81, 32
27, 300719, Note_on_c, 9, 81, 0
27, 300840, Note_on_c, 9, 81, 32
27, 301079, Note_on_c, 9, 81, 0
27, 301200, Note_on_c, 9, 81, 32
27, 301439, Note_on_c, 9, 81, 0
27, 301560, Note_on_c, 9, 81, 32
27, 301799, Note_on_c, 9, 81, 0
27, 301920, Note_on_c, 9, 81, 32
27, 302159, Note_on_c, 9, 81, 0
27, 302280, Note_on_c, 9, 81, 32
27, 302519, Note_on_c, 9, 81, 0
27, 302640, Note_on_c, 9, 81, 32
27, 302879, Note_on_c, 9, 81, 0
27, 303000, Note_on_c, 9, 81, 32
27, 303239, Note_on_c, 9, 81, 0
27, 303360, Note_on_c, 9, 81, 32
27, 303599, Note_on_c, 9, 81, 0
27, 303720, Note_on_c, 9, 81, 32
27, 303959, Note_on_c, 9, 81, 0
27, 304080, Note_on_c, 9, 81, 32
27, 304319, Note_on_c, 9, 81, 0
27, 304440, Note_on_c, 9, 81, 32
27, 304679, Note_on_c, 9, 81, 0
27, 304800, Note_on_c, 9, 81, 32
27, 305039, Note_on_c, 9, 81, 0
27, 305160, Note_on_c, 9, 81, 32
27, 305399, Note_on_c, 9, 81, 0
27, 305520, Note_on_c, 9, 81, 32
27, 305759, Note_on_c, 9, 81, 0
27, 305880, Note_on_c, 9, 81, 32
27, 306119, Note_on_c, 9, 81, 0
27, 306240, Note_on_c, 9, 81, 32
27, 306479, Note_on_c, 9, 81, 0
27, 306600, Note_on_c, 9, 81, 32
27, 306839, Note_on_c, 9, 81, 0
27, 306960, Note_on_c, 9, 81, 32
27, 307199, Note_on_c, 9, 81, 0
27, 307320, Note_on_c, 9, 81, 32
27, 307559, Note_on_c, 9, 81, 0
27, 307680, Note_on_c, 9, 81, 32
27, 307919, Note_on_c, 9, 81, 0
27, 308040, Note_on_c, 9, 81, 32
27, 308279, Note_on_c, 9, 81, 0
27, 308400, Note_on_c, 9, 81, 32
27, 308639, Note_on_c, 9, 81, 0
27, 309120, Note_on_c, 9, 81, 32
27, 309359, Note_on_c, 9, 81, 0
27, 309480, Note_on_c, 9, 81, 32
27, 309719, Note_on_c, 9, 81, 0
27, 309840, Note_on_c, 9, 81, 32
27, 310079, Note_on_c, 9, 81, 0
27, 310200, Note_on_c, 9, 81, 32
27, 310439, Note_on_c, 9, 81, 0
27, 310560, Note_on_c, 9, 81, 32
27, 310799, Note_on_c, 9, 81, 0
27, 310920, Note_on_c, 9, 81, 32
27, 311159, Note_on_c, 9, 81, 0
27, 311280, Note_on_c, 9, 81, 32
27, 311519, Note_on_c, 9, 81, 0
27, 311640, Note_on_c, 9, 81, 32
27, 311879, Note_on_c, 9, 81, 0
27, 312000, Note_on_c, 9, 81, 32
27, 312239, Note_on_c, 9, 81, 0
27, 312360, Note_on_c, 9, 81, 32
27, 312599, Note_on_c, 9, 81, 0
27, 312720, Note_on_c, 9, 81, 32
27, 312959, Note_on_c, 9, 81, 0
27, 313080, Note_on_c, 9, 81, 32
27, 313319, Note_on_c, 9, 81, 0
27, 313440, Note_on_c, 9, 81, 32
27, 313679, Note_on_c, 9, 81, 0
27, 313800, Note_on_c, 9, 81, 32
27, 314039, Note_on_c, 9, 81, 0
27, 314160, Note_on_c, 9, 81, 32
27, 314399, Note_on_c, 9, 81, 0
27, 314520, Note_on_c, 9, 81, 32
27, 314759, Note_on_c, 9, 81, 0
27, 314880, Note_on_c, 9, 81, 32
27, 315119, Note_on_c, 9, 81, 0
27, 315240, Note_on_c, 9, 81, 32
27, 315479, Note_on_c, 9, 81, 0
27, 315600, Note_on_c, 9, 81, 32
27, 315839, Note_on_c, 9, 81, 0
27, 315960, Note_on_c, 9, 81, 32
27, 316199, Note_on_c, 9, 81, 0
27, 316320, Note_on_c, 9, 81, 32
27, 316559, Note_on_c, 9, 81, 0
27, 316680, Note_on_c, 9, 81, 32
27, 316919, Note_on_c, 9, 81, 0
27, 317040, Note_on_c, 9, 81, 32
27, 317279, Note_on_c, 9, 81, 0
27, 317400, Note_on_c, 9, 81, 32
27, 317639, Note_on_c, 9, 81, 0
27, 317760, Note_on_c, 9, 81, 32
27, 317999, Note_on_c, 9, 81, 0
27, 318120, Note_on_c, 9, 81, 32
27, 318359, Note_on_c, 9, 81, 0
27, 318480, Note_on_c, 9, 81, 32
27, 318719, Note_on_c, 9, 81, 0
27, 318840, Note_on_c, 9, 81, 32
27, 319079, Note_on_c, 9, 81, 0
27, 319200, Note_on_c, 9, 81, 32
27, 319439, Note_on_c, 9, 81, 0
27, 319560, Note_on_c, 9, 81, 32
27, 319799, Note_on_c, 9, 81, 0
27, 319920, Note_on_c, 9, 81, 32
27, 320159, Note_on_c, 9, 81, 0
27, 320640, Note_on_c, 9, 81, 32
27, 320879, Note_on_c, 9, 81, 0
27, 321000, Note_on_c, 9, 81, 32
27, 321239, Note_on_c, 9, 81, 0
27, 321360, Note_on_c, 9, 81, 32
27, 321599, Note_on_c, 9, 81, 0
27, 321720, Note_on_c, 9, 81, 32
27, 321959, Note_on_c, 9, 81, 0
27, 322080, Note_on_c, 9, 81, 32
27, 322319, Note_on_c, 9, 81, 0
27, 322440, Note_on_c, 9, 81, 32
27, 322679, Note_on_c, 9, 81, 0
27, 322800, Note_on_c, 9, 81, 32
27, 323039, Note_on_c, 9, 81, 0
27, 323160, Note_on_c, 9, 81, 32
27, 323399, Note_on_c, 9, 81, 0
27, 323520, Note_on_c, 9, 81, 32
27, 323759, Note_on_c, 9, 81, 0
27, 323880, Note_on_c, 9, 81, 32
27, 324119, Note_on_c, 9, 81, 0
27, 324240, Note_on_c, 9, 81, 32
27, 324479, Note_on_c, 9, 81, 0
27, 324600, Note_on_c, 9, 81, 32
27, 324839, Note_on_c, 9, 81, 0
27, 324960, Note_on_c, 9, 81, 32
27, 325199, Note_on_c, 9, 81, 0
27, 325320, Note_on_c, 9, 81, 32
27, 325559, Note_on_c, 9, 81, 0
27, 325680, Note_on_c, 9, 81, 32
27, 325919, Note_on_c, 9, 81, 0
27, 326040, Note_on_c, 9, 81, 32
27, 326279, Note_on_c, 9, 81, 0
27, 326400, Note_on_c, 9, 81, 32
27, 326639, Note_on_c, 9, 81, 0
27, 326760, Note_on_c, 9, 81, 32
27, 326999, Note_on_c, 9, 81, 0
27, 327120, Note_on_c, 9, 81, 32
27, 327359, Note_on_c, 9, 81, 0
27, 327480, Note_on_c, 9, 81, 33
27, 327719, Note_on_c, 9, 81, 0
27, 327840, Note_on_c, 9, 81, 33
27, 328079, Note_on_c, 9, 81, 0
27, 328200, Note_on_c, 9, 81, 33
27, 328439, Note_on_c, 9, 81, 0
27, 328560, Note_on_c, 9, 81, 34
27, 328799, Note_on_c, 9, 81, 0
27, 328920, Note_on_c, 9, 81, 34
27, 329159, Note_on_c, 9, 81, 0
27, 329280, Note_on_c, 9, 81, 34
27, 329519, Note_on_c, 9, 81, 0
27, 329640, Note_on_c, 9, 81, 35
27, 329879, Note_on_c, 9, 81, 0
27, 330000, Note_on_c, 9, 81, 35
27, 330239, Note_on_c, 9, 81, 0
27, 330360, Note_on_c, 9, 81, 35
27, 330599, Note_on_c, 9, 81, 0
27, 330720, Note_on_c, 9, 81, 36
27, 330959, Note_on_c, 9, 81, 0
27, 331080, Note_on_c, 9, 81, 36
27, 331319, Note_on_c, 9, 81, 0
27, 331440, Note_on_c, 9, 81, 36
27, 331679, Note_on_c, 9, 81, 0
27, 332160, Note_on_c, 9, 81, 37
27, 332399, Note_on_c, 9, 81, 0
27, 332520, Note_on_c, 9, 81, 37
27, 332759, Note_on_c, 9, 81, 0
27, 332880, Note_on_c, 9, 81, 38
27, 333119, Note_on_c, 9, 81, 0
27, 333240, Note_on_c, 9, 81, 38
27, 333479, Note_on_c, 9, 81, 0
27, 333600, Note_on_c, 9, 81, 38
27, 333839, Note_on_c, 9, 81, 0
27, 333960, Note_on_c, 9, 81, 39
27, 334199, Note_on_c, 9, 81, 0
27, 334320, Note_on_c, 9, 81, 39
27, 334559, Note_on_c, 9, 81, 0
27, 334680, Note_on_c, 9, 81, 39
27, 334919, Note_on_c, 9, 81, 0
27, 335040, Note_on_c, 9, 81, 40
27, 335279, Note_on_c, 9, 81, 0
27, 335400, Note_on_c, 9, 81, 40
27, 335639, Note_on_c, 9, 81, 0
27, 335760, Note_on_c, 9, 81, 40
27, 335999, Note_on_c, 9, 81, 0
27, 336120, Note_on_c, 9, 81, 41
27, 336359, Note_on_c, 9, 81, 0
27, 336480, Note_on_c, 9, 81, 41
27, 336719, Note_on_c, 9, 81, 0
27, 336840, Note_on_c, 9, 81, 41
27, 337079, Note_on_c, 9, 81, 0
27, 337200, Note_on_c, 9, 81, 42
27, 337439, Note_on_c, 9, 81, 0
27, 337560, Note_on_c, 9, 81, 42
27, 337799, Note_on_c, 9, 81, 0
27, 337920, Note_on_c, 9, 81, 42
27, 338159, Note_on_c, 9, 81, 0
27, 338280, Note_on_c, 9, 81, 43
27, 338519, Note_on_c, 9, 81, 0
27, 338640, Note_on_c, 9, 81, 43
27, 338879, Note_on_c, 9, 81, 0
27, 339000, Note_on_c, 9, 81, 43
27, 339239, Note_on_c, 9, 81, 0
27, 339360, Note_on_c, 9, 81, 44
27, 339599, Note_on_c, 9, 81, 0
27, 339720, Note_on_c, 9, 81, 44
27, 339959, Note_on_c, 9, 81, 0
27, 340080, Note_on_c, 9, 81, 44
27, 340319, Note_on_c, 9, 81, 0
27, 340440, Note_on_c, 9, 81, 44
27, 340679, Note_on_c, 9, 81, 0
27, 340800, Note_on_c, 9, 81, 44
27, 341039, Note_on_c, 9, 81, 0
27, 341160, Note_on_c, 9, 81, 44
27, 341399, Note_on_c, 9, 81, 0
27, 341520, Note_on_c, 9, 81, 44
27, 341759, Note_on_c, 9, 81, 0
27, 341880, Note_on_c, 9, 81, 44
27, 342119, Note_on_c, 9, 81, 0
27, 342240, Note_on_c, 9, 81, 44
27, 342479, Note_on_c, 9, 81, 0
27, 342600, Note_on_c, 9, 81, 44
27, 342839, Note_on_c, 9, 81, 0
27, 342960, Note_on_c, 9, 81, 44
27, 343199, Note_on_c, 9, 81, 0
27, 343680, Note_on_c, 9, 81, 44
27, 343919, Note_on_c, 9, 81, 0
27, 344040, Note_on_c, 9, 81, 44
27, 344279, Note_on_c, 9, 81, 0
27, 344400, Note_on_c, 9, 81, 44
27, 344639, Note_on_c, 9, 81, 0
27, 344760, Note_on_c, 9, 81, 44
27, 344999, Note_on_c, 9, 81, 0
27, 345120, Note_on_c, 9, 81, 44
27, 345359, Note_on_c, 9, 81, 0
27, 345480, Note_on_c, 9, 81, 44
27, 345719, Note_on_c, 9, 81, 0
27, 345840, Note_on_c, 9, 81, 44
27, 346079, Note_on_c, 9, 81, 0
27, 346200, Note_on_c, 9, 81, 44
27, 346439, Note_on_c, 9, 81, 0
27, 346560, Note_on_c, 9, 81, 44
27, 346799, Note_on_c, 9, 81, 0
27, 346920, Note_on_c, 9, 81, 44
27, 347159, Note_on_c, 9, 81, 0
27, 347280, Note_on_c, 9, 81, 44
27, 347519, Note_on_c, 9, 81, 0
27, 347640, Note_on_c, 9, 81, 44
27, 347879, Note_on_c, 9, 81, 0
27, 348000, Note_on_c, 9, 81, 44
27, 348239, Note_on_c, 9, 81, 0
27, 348360, Note_on_c, 9, 81, 44
27, 348599, Note_on_c, 9, 81, 0
27, 348720, Note_on_c, 9, 81, 44
27, 348959, Note_on_c, 9, 81, 0
27, 349080, Note_on_c, 9, 81, 44
27, 349319, Note_on_c, 9, 81, 0
27, 349440, Note_on_c, 9, 81, 44
27, 349679, Note_on_c, 9, 81, 0
27, 349800, Note_on_c, 9, 81, 44
27, 350039, Note_on_c, 9, 81, 0
27, 350160, Note_on_c, 9, 81, 44
27, 350399, Note_on_c, 9, 81, 0
27, 350520, Note_on_c, 9, 81, 44
27, 350759, Note_on_c, 9, 81, 0
27, 350880, Note_on_c, 9, 81, 44
27, 351119, Note_on_c, 9, 81, 0
27, 351240, Note_on_c, 9, 81, 44
27, 351479, Note_on_c, 9, 81, 0
27, 351600, Note_on_c, 9, 81, 44
27, 351839, Note_on_c, 9, 81, 0
27, 351960, Note_on_c, 9, 81, 44
27, 352199, Note_on_c, 9, 81, 0
27, 352320, Note_on_c, 9, 81, 80
27, 352559, Note_on_c, 9, 81, 0
27, 352680, Note_on_c, 9, 81, 86
27, 352919, Note_on_c, 9, 81, 0
27, 353040, Note_on_c, 9, 81, 86
27, 353279, Note_on_c, 9, 81, 0
27, 353400, Note_on_c, 9, 81, 86
27, 353639, Note_on_c, 9, 81, 0
27, 353760, Note_on_c, 9, 81, 86
27, 353999, Note_on_c, 9, 81, 0
27, 354120, Note_on_c, 9, 81, 86
27, 354359, Note_on_c, 9, 81, 0
27, 354480, Note_on_c, 9, 81, 86
27, 354719, Note_on_c, 9, 81, 0
27, 354840, Note_on_c, 9, 81, 86
27, 355079, Note_on_c, 9, 81, 0
27, 355200, Note_on_c, 9, 81, 92
27, 355439, Note_on_c, 9, 81, 0
27, 355920, Note_on_c, 9, 81, 92
27, 356159, Note_on_c, 9, 81, 0
27, 356640, Note_on_c, 9, 81, 92
27, 356879, Note_on_c, 9, 81, 0
27, 357360, Note_on_c, 9, 81, 92
27, 357599, Note_on_c, 9, 81, 0
27, 358080, Note_on_c, 9, 81, 92
27, 358319, Note_on_c, 9, 81, 0
27, 358800, Note_on_c, 9, 81, 92
27, 359039, Note_on_c, 9, 81, 0
27, 359520, Note_on_c, 9, 81, 92
27, 359759, Note_on_c, 9, 81, 0
27, 359880, Note_on_c, 9, 81, 92
27, 360119, Note_on_c, 9, 81, 0
27, 360240, Note_on_c, 9, 81, 92
27, 360479, Note_on_c, 9, 81, 0
27, 360600, Note_on_c, 9, 81, 92
27, 360839, Note_on_c, 9, 81, 0
27, 360960, Note_on_c, 9, 81, 92
27, 361199, Note_on_c, 9, 81, 0
27, 808320, Note_on_c, 9, 81, 80
27, 808559, Note_on_c, 9, 81, 0
27, 808560, Note_on_c, 9, 81, 80
27, 808799, Note_on_c, 9, 81, 0
27, 808800, Note_on_c, 9, 81, 80
27, 809039, Note_on_c, 9, 81, 0
27, 809280, Note_on_c, 9, 81, 80
27, 809519, Note_on_c, 9, 81, 0
27, 809520, Note_on_c, 9, 81, 80
27, 809759, Note_on_c, 9, 81, 0
27, 809760, Note_on_c, 9, 81, 80
27, 809999, Note_on_c, 9, 81, 0
27, 810240, Note_on_c, 9, 81, 80
27, 810479, Note_on_c, 9, 81, 0
27, 810720, Note_on_c, 9, 81, 80
27, 810959, Note_on_c, 9, 81, 0
27, 811200, Note_on_c, 9, 81, 80
27, 811439, Note_on_c, 9, 81, 0
27, 812160, Note_on_c, 9, 81, 80
27, 812399, Note_on_c, 9, 81, 0
27, 812400, Note_on_c, 9, 81, 80
27, 812639, Note_on_c, 9, 81, 0
27, 812640, Note_on_c, 9, 81, 80
27, 812879, Note_on_c, 9, 81, 0
27, 812880, Note_on_c, 9, 81, 80
27, 813119, Note_on_c, 9, 81, 0
27, 813120, Note_on_c, 9, 81, 80
27, 813359, Note_on_c, 9, 81, 0
27, 813360, Note_on_c, 9, 81, 80
27, 813599, Note_on_c, 9, 81, 0
27, 813600, Note_on_c, 9, 81, 80
27, 813839, Note_on_c, 9, 81, 0
27, 813840, Note_on_c, 9, 81, 80
27, 814079, Note_on_c, 9, 81, 0
27, 814080, Note_on_c, 9, 81, 80
27, 814319, Note_on_c, 9, 81, 0
27, 814560, Note_on_c, 9, 81, 80
27, 814799, Note_on_c, 9, 81, 0
27, 815040, Note_on_c, 9, 81, 80
27, 815279, Note_on_c, 9, 81, 0
27, 815280, Note_on_c, 9, 81, 80
27, 815519, Note_on_c, 9, 81, 0
27, 815520, Note_on_c, 9, 81, 80
27, 815759, Note_on_c, 9, 81, 0
27, 815760, Note_on_c, 9, 81, 80
27, 815999, Note_on_c, 9, 81, 0
27, 816000, Note_on_c, 9, 81, 80
27, 816239, Note_on_c, 9, 81, 0
27, 816480, Note_on_c, 9, 81, 80
27, 816719, Note_on_c, 9, 81, 0
27, 816960, Note_on_c, 9, 81, 80
27, 817199, Note_on_c, 9, 81, 0
27, 817200, Note_on_c, 9, 81, 80
27, 817439, Note_on_c, 9, 81, 0
27, 817440, Note_on_c, 9, 81, 80
27, 817679, Note_on_c, 9, 81, 0
27, 817680, Note_on_c, 9, 81, 80
27, 817919, Note_on_c, 9, 81, 0
27, 817920, Note_on_c, 9, 81, 80
27, 818159, Note_on_c, 9, 81, 0
27, 818160, Note_on_c, 9, 81, 80
27, 818399, Note_on_c, 9, 81, 0
27, 818400, Note_on_c, 9, 81, 80
27, 818639, Note_on_c, 9, 81, 0
27, 818640, Note_on_c, 9, 81, 80
27, 818879, Note_on_c, 9, 81, 0
27, 818880, Note_on_c, 9, 81, 80
27, 819119, Note_on_c, 9, 81, 0
27, 819120, Note_on_c, 9, 81, 80
27, 819359, Note_on_c, 9, 81, 0
27, 819360, Note_on_c, 9, 81, 80
27, 819599, Note_on_c, 9, 81, 0
27, 819600, Note_on_c, 9, 81, 80
27, 819839, Note_on_c, 9, 81, 0
27, 819840, Note_on_c, 9, 81, 80
27, 820079, Note_on_c, 9, 81, 0
27, 820080, Note_on_c, 9, 81, 80
27, 820319, Note_on_c, 9, 81, 0
27, 820320, Note_on_c, 9, 81, 80
27, 820559, Note_on_c, 9, 81, 0
27, 820560, Note_on_c, 9, 81, 80
27, 820799, Note_on_c, 9, 81, 0
27, 820800, Note_on_c, 9, 81, 80
27, 821039, Note_on_c, 9, 81, 0
27, 821040, Note_on_c, 9, 81, 80
27, 821279, Note_on_c, 9, 81, 0
27, 821280, Note_on_c, 9, 81, 80
27, 821519, Note_on_c, 9, 81, 0
27, 821520, Note_on_c, 9, 81, 80
27, 821759, Note_on_c, 9, 81, 0
27, 821760, Note_on_c, 9, 81, 80
27, 821999, Note_on_c, 9, 81, 0
27, 822000, Note_on_c, 9, 81, 80
27, 822239, Note_on_c, 9, 81, 0
27, 822240, Note_on_c, 9, 81, 80
27, 822479, Note_on_c, 9, 81, 0
27, 822480, Note_on_c, 9, 81, 80
27, 822719, Note_on_c, 9, 81, 0
27, 822720, Note_on_c, 9, 81, 80
27, 822959, Note_on_c, 9, 81, 0
27, 822960, Note_on_c, 9, 81, 80
27, 823199, Note_on_c, 9, 81, 0
27, 823200, Note_on_c, 9, 81, 80
27, 823439, Note_on_c, 9, 81, 0
27, 823440, Note_on_c, 9, 81, 80
27, 823679, Note_on_c, 9, 81, 0
27, 823680, Note_on_c, 9, 81, 80
27, 823919, Note_on_c, 9, 81, 0
27, 823920, Note_on_c, 9, 81, 80
27, 824159, Note_on_c, 9, 81, 0
27, 824160, Note_on_c, 9, 81, 80
27, 824399, Note_on_c, 9, 81, 0
27, 824400, Note_on_c, 9, 81, 80
27, 824639, Note_on_c, 9, 81, 0
27, 824640, Note_on_c, 9, 81, 80
27, 824879, Note_on_c, 9, 81, 0
27, 824880, Note_on_c, 9, 81, 80
27, 825119, Note_on_c, 9, 81, 0
27, 825120, Note_on_c, 9, 81, 80
27, 825359, Note_on_c, 9, 81, 0
27, 825360, Note_on_c, 9, 81, 80
27, 825599, Note_on_c, 9, 81, 0
27, 825600, Note_on_c, 9, 81, 80
27, 825839, Note_on_c, 9, 81, 0
27, 826080, Note_on_c, 9, 81, 80
27, 826319, Note_on_c, 9, 81, 0
27, 826560, Note_on_c, 9, 81, 80
27, 826799, Note_on_c, 9, 81, 0
27, 827520, Note_on_c, 9, 81, 80
27, 827759, Note_on_c, 9, 81, 0
27, 828480, Note_on_c, 9, 81, 80
27, 828719, Note_on_c, 9, 81, 0
27, 829440, Note_on_c, 9, 81, 80
27, 829679, Note_on_c, 9, 81, 0
27, 829920, Note_on_c, 9, 81, 80
27, 830159, Note_on_c, 9, 81, 0
27, 830400, Note_on_c, 9, 81, 80
27, 830639, Note_on_c, 9, 81, 0
27, 831360, Note_on_c, 9, 81, 80
27, 831599, Note_on_c, 9, 81, 0
27, 832320, Note_on_c, 9, 81, 80
27, 832559, Note_on_c, 9, 81, 0
27, 832560, Note_on_c, 9, 81, 80
27, 832799, Note_on_c, 9, 81, 0
27, 832800, Note_on_c, 9, 81, 80
27, 833039, Note_on_c, 9, 81, 0
27, 833280, Note_on_c, 9, 81, 80
27, 833519, Note_on_c, 9, 81, 0
27, 833520, Note_on_c, 9, 81, 80
27, 833759, Note_on_c, 9, 81, 0
27, 833760, Note_on_c, 9, 81, 80
27, 833999, Note_on_c, 9, 81, 0
27, 834240, Note_on_c, 9, 81, 80
27, 834479, Note_on_c, 9, 81, 0
27, 834480, Note_on_c, 9, 81, 80
27, 834719, Note_on_c, 9, 81, 0
27, 834720, Note_on_c, 9, 81, 80
27, 834959, Note_on_c, 9, 81, 0
27, 835200, Note_on_c, 9, 81, 80
27, 835439, Note_on_c, 9, 81, 0
27, 835440, Note_on_c, 9, 81, 80
27, 835679, Note_on_c, 9, 81, 0
27, 835680, Note_on_c, 9, 81, 80
27, 835919, Note_on_c, 9, 81, 0
27, 836160, Note_on_c, 9, 81, 80
27, 836399, Note_on_c, 9, 81, 0
27, 836640, Note_on_c, 9, 81, 80
27, 836879, Note_on_c, 9, 81, 0
27, 837120, Note_on_c, 9, 81, 80
27, 837359, Note_on_c, 9, 81, 0
27, 837600, Note_on_c, 9, 81, 80
27, 837839, Note_on_c, 9, 81, 0
27, 838080, Note_on_c, 9, 81, 80
27, 838319, Note_on_c, 9, 81, 0
27, 838560, Note_on_c, 9, 81, 80
27, 838799, Note_on_c, 9, 81, 0
27, 839040, Note_on_c, 9, 81, 80
27, 839279, Note_on_c, 9, 81, 0
27, 839520, Note_on_c, 9, 81, 80
27, 839759, Note_on_c, 9, 81, 0
27, 840000, Note_on_c, 9, 81, 80
27, 840239, Note_on_c, 9, 81, 0
27, 840480, Note_on_c, 9, 81, 80
27, 840719, Note_on_c, 9, 81, 0
27, 840960, Note_on_c, 9, 81, 80
27, 841199, Note_on_c, 9, 81, 0
27, 841440, Note_on_c, 9, 81, 80
27, 841679, Note_on_c, 9, 81, 0
27, 841920, Note_on_c, 9, 81, 80
27, 842159, Note_on_c, 9, 81, 0
27, 842400, Note_on_c, 9, 81, 80
27, 842639, Note_on_c, 9, 81, 0
27, 842880, Note_on_c, 9, 81, 80
27, 843119, Note_on_c, 9, 81, 0
27, 843360, Note_on_c, 9, 81, 80
27, 843599, Note_on_c, 9, 81, 0
27, 844320, Note_on_c, 9, 81, 80
27, 844559, Note_on_c, 9, 81, 0
27, 844800, Note_on_c, 9, 81, 80
27, 845039, Note_on_c, 9, 81, 0
27, 845760, Note_on_c, 9, 81, 80
27, 845999, Note_on_c, 9, 81, 0
27, 846720, Note_on_c, 9, 81, 80
27, 846959, Note_on_c, 9, 81, 0
27, 847200, Note_on_c, 9, 81, 80
27, 847439, Note_on_c, 9, 81, 0
27, 847680, Note_on_c, 9, 81, 80
27, 847919, Note_on_c, 9, 81, 0
27, 848160, Note_on_c, 9, 81, 80
27, 848399, Note_on_c, 9, 81, 0
27, 848640, Note_on_c, 9, 81, 80
27, 848879, Note_on_c, 9, 81, 0
27, 848880, Note_on_c, 9, 81, 80
27, 849119, Note_on_c, 9, 81, 0
27, 849120, Note_on_c, 9, 81, 80
27, 849359, Note_on_c, 9, 81, 0
27, 849360, Note_on_c, 9, 81, 80
27, 849599, Note_on_c, 9, 81, 0
27, 849600, Note_on_c, 9, 81, 80
27, 849839, Note_on_c, 9, 81, 0
27, 849840, Note_on_c, 9, 81, 80
27, 850079, Note_on_c, 9, 81, 0
27, 850080, Note_on_c, 9, 81, 80
27, 850319, Note_on_c, 9, 81, 0
27, 850320, Note_on_c, 9, 81, 80
27, 850559, Note_on_c, 9, 81, 0
27, 850560, Note_on_c, 9, 81, 92
27, 850799, Note_on_c, 9, 81, 0
27, 851040, Note_on_c, 9, 81, 92
27, 851279, Note_on_c, 9, 81, 0
27, 851520, Note_on_c, 9, 81, 92
27, 851759, Note_on_c, 9, 81, 0
27, 851760, Note_on_c, 9, 81, 92
27, 851999, Note_on_c, 9, 81, 0
27, 852000, Note_on_c, 9, 81, 92
27, 852239, Note_on_c, 9, 81, 0
27, 852240, Note_on_c, 9, 81, 92
27, 852479, Note_on_c, 9, 81, 0
27, 852480, Note_on_c, 9, 81, 92
27, 852719, Note_on_c, 9, 81, 0
27, 852720, Note_on_c, 9, 81, 92
27, 852959, Note_on_c, 9, 81, 0
27, 852960, Note_on_c, 9, 81, 92
27, 853199, Note_on_c, 9, 81, 0
27, 853200, Note_on_c, 9, 81, 92
27, 853439, Note_on_c, 9, 81, 0
27, 853440, Note_on_c, 9, 81, 92
27, 853679, Note_on_c, 9, 81, 0
27, 853920, Note_on_c, 9, 81, 92
27, 854159, Note_on_c, 9, 81, 0
27, 854400, Note_on_c, 9, 81, 92
27, 854639, Note_on_c, 9, 81, 0
27, 854880, Note_on_c, 9, 81, 92
27, 855119, Note_on_c, 9, 81, 0
27, 855360, Note_on_c, 9, 81, 92
27, 855599, Note_on_c, 9, 81, 0
27, 855600, Note_on_c, 9, 81, 92
27, 855839, Note_on_c, 9, 81, 0
27, 855840, Note_on_c, 9, 81, 92
27, 856079, Note_on_c, 9, 81, 0
27, 856080, Note_on_c, 9, 81, 92
27, 856319, Note_on_c, 9, 81, 0
27, 856320, Note_on_c, 9, 81, 92
27, 856559, Note_on_c, 9, 81, 0
27, 856560, Note_on_c, 9, 81, 92
27, 856799, Note_on_c, 9, 81, 0
27, 856800, Note_on_c, 9, 81, 92
27, 857039, Note_on_c, 9, 81, 0
27, 857040, Note_on_c, 9, 81, 92
27, 857279, Note_on_c, 9, 81, 0
27, 857280, Note_on_c, 9, 81, 92
27, 857519, Note_on_c, 9, 81, 0
27, 857760, Note_on_c, 9, 81, 92
27, 857999, Note_on_c, 9, 81, 0
27, 858240, Note_on_c, 9, 81, 80
27, 858479, Note_on_c, 9, 81, 0
27, 859200, Note_on_c, 9, 81, 80
27, 859439, Note_on_c, 9, 81, 0
27, 860160, Note_on_c, 9, 81, 80
27, 860399, Note_on_c, 9, 81, 0
27, 861120, Note_on_c, 9, 81, 80
27, 861359, Note_on_c, 9, 81, 0
27, 862080, Note_on_c, 9, 81, 80
27, 862319, Note_on_c, 9, 81, 0
27, 863040, Note_on_c, 9, 81, 80
27, 863279, Note_on_c, 9, 81, 0
27, 864000, Note_on_c, 9, 81, 80
27, 864239, Note_on_c, 9, 81, 0
27, 864960, Note_on_c, 9, 81, 80
27, 865199, Note_on_c, 9, 81, 0
27, 866880, Note_on_c, 9, 81, 80
27, 867119, Note_on_c, 9, 81, 0
27, 867840, Note_on_c, 9, 81, 80
27, 868079, Note_on_c, 9, 81, 0
27, 869760, Note_on_c, 9, 81, 80
27, 869999, Note_on_c, 9, 81, 0
27, 870240, Note_on_c, 9, 81, 80
27, 870479, Note_on_c, 9, 81, 0
27, 870720, Note_on_c, 9, 81, 80
27, 870959, Note_on_c, 9, 81, 0
27, 872160, Note_on_c, 9, 81, 80
27, 872399, Note_on_c, 9, 81, 0
27, 872400, Note_on_c, 9, 81, 80
27, 872639, Note_on_c, 9, 81, 0
27, 872760, Note_on_c, 9, 81, 80
27, 872879, Note_on_c, 9, 81, 0
27, 872880, Note_on_c, 9, 81, 80
27, 872939, Note_on_c, 9, 81, 0
27, 872940, Note_on_c, 9, 81, 80
27, 872999, Note_on_c, 9, 81, 0
27, 873000, Note_on_c, 9, 81, 80
27, 873059, Note_on_c, 9, 81, 0
27, 873060, Note_on_c, 9, 81, 80
27, 873119, Note_on_c, 9, 81, 0
27, 873120, Note_on_c, 9, 81, 80
27, 873179, Note_on_c, 9, 81, 0
27, 873180, Note_on_c, 9, 81, 80
27, 873239, Note_on_c, 9, 81, 0
27, 873240, Note_on_c, 9, 81, 80
27, 873299, Note_on_c, 9, 81, 0
27, 873300, Note_on_c, 9, 81, 80
27, 873359, Note_on_c, 9, 81, 0
27, 873360, Note_on_c, 9, 81, 80
27, 873419, Note_on_c, 9, 81, 0
27, 873420, Note_on_c, 9, 81, 80
27, 873479, Note_on_c, 9, 81, 0
27, 873480, Note_on_c, 9, 81, 80
27, 873539, Note_on_c, 9, 81, 0
27, 873540, Note_on_c, 9, 81, 80
27, 873599, Note_on_c, 9, 81, 0
27, 873600, Note_on_c, 9, 81, 80
27, 873839, Note_on_c, 9, 81, 0
27, 873840, Note_on_c, 9, 81, 80
27, 874079, Note_on_c, 9, 81, 0
27, 874080, Note_on_c, 9, 81, 80
27, 874319, Note_on_c, 9, 81, 0
27, 874320, Note_on_c, 9, 81, 80
27, 874559, Note_on_c, 9, 81, 0
27, 874560, Note_on_c, 9, 81, 80
27, 874799, Note_on_c, 9, 81, 0
27, 874800, Note_on_c, 9, 81, 80
27, 875039, Note_on_c, 9, 81, 0
27, 875040, Note_on_c, 9, 81, 80
27, 875279, Note_on_c, 9, 81, 0
27, 875280, Note_on_c, 9, 81, 80
27, 875519, Note_on_c, 9, 81, 0
27, 875520, Note_on_c, 9, 81, 80
27, 875759, Note_on_c, 9, 81, 0
27, 875760, Note_on_c, 9, 81, 80
27, 875999, Note_on_c, 9, 81, 0
27, 876000, Note_on_c, 9, 81, 80
27, 876239, Note_on_c, 9, 81, 0
27, 876240, Note_on_c, 9, 81, 80
27, 876479, Note_on_c, 9, 81, 0
27, 876480, Note_on_c, 9, 81, 80
27, 876719, Note_on_c, 9, 81, 0
27, 876720, Note_on_c, 9, 81, 80
27, 876959, Note_on_c, 9, 81, 0
27, 876960, Note_on_c, 9, 81, 80
27, 877199, Note_on_c, 9, 81, 0
27, 877200, Note_on_c, 9, 81, 80
27, 877439, Note_on_c, 9, 81, 0
27, 877440, Note_on_c, 9, 81, 80
27, 877679, Note_on_c, 9, 81, 0
27, 877680, Note_on_c, 9, 81, 80
27, 877919, Note_on_c, 9, 81, 0
27, 877920, Note_on_c, 9, 81, 80
27, 878159, Note_on_c, 9, 81, 0
27, 878160, Note_on_c, 9, 81, 80
27, 878399, Note_on_c, 9, 81, 0
27, 878400, Note_on_c, 9, 81, 80
27, 878639, Note_on_c, 9, 81, 0
27, 878640, Note_on_c, 9, 81, 80
27, 878879, Note_on_c, 9, 81, 0
27, 878880, Note_on_c, 9, 81, 80
27, 879119, Note_on_c, 9, 81, 0
27, 879120, Note_on_c, 9, 81, 80
27, 879359, Note_on_c, 9, 81, 0
27, 879360, Note_on_c, 9, 81, 80
27, 879599, Note_on_c, 9, 81, 0
27, 879600, Note_on_c, 9, 81, 80
27, 879839, Note_on_c, 9, 81, 0
27, 879840, Note_on_c, 9, 81, 80
27, 880079, Note_on_c, 9, 81, 0
27, 880080, Note_on_c, 9, 81, 80
27, 880319, Note_on_c, 9, 81, 0
27, 880320, Note_on_c, 9, 81, 80
27, 880559, Note_on_c, 9, 81, 0
27, 880560, Note_on_c, 9, 81, 80
27, 880799, Note_on_c, 9, 81, 0
27, 880800, Note_on_c, 9, 81, 80
27, 881039, Note_on_c, 9, 81, 0
27, 881040, Note_on_c, 9, 81, 80
27, 881279, Note_on_c, 9, 81, 0
27, 881280, Note_on_c, 9, 81, 80
27, 881519, Note_on_c, 9, 81, 0
27, 881760, Note_on_c, 9, 81, 80
27, 881999, Note_on_c, 9, 81, 0
27, 882240, Note_on_c, 9, 81, 80
27, 882479, Note_on_c, 9, 81, 0
27, 882720, Note_on_c, 9, 81, 80
27, 882959, Note_on_c, 9, 81, 0
27, 883200, Note_on_c, 9, 81, 80
27, 883439, Note_on_c, 9, 81, 0
27, 883680, Note_on_c, 9, 81, 80
27, 883919, Note_on_c, 9, 81, 0
27, 884160, Note_on_c, 9, 81, 80
27, 884399, Note_on_c, 9, 81, 0
27, 884640, Note_on_c, 9, 81, 80
27, 884879, Note_on_c, 9, 81, 0
27, 885120, Note_on_c, 9, 81, 80
27, 885359, Note_on_c, 9, 81, 0
27, 885600, Note_on_c, 9, 81, 80
27, 885839, Note_on_c, 9, 81, 0
27, 886080, Note_on_c, 9, 81, 80
27, 886319, Note_on_c, 9, 81, 0
27, 886560, Note_on_c, 9, 81, 80
27, 886799, Note_on_c, 9, 81, 0
27, 887040, Note_on_c, 9, 81, 80
27, 887279, Note_on_c, 9, 81, 0
27, 887520, Note_on_c, 9, 81, 80
27, 887759, Note_on_c, 9, 81, 0
27, 888000, Note_on_c, 9, 81, 80
27, 888239, Note_on_c, 9, 81, 0
27, 888480, Note_on_c, 9, 81, 80
27, 888719, Note_on_c, 9, 81, 0
27, 888960, Note_on_c, 9, 81, 80
27, 889199, Note_on_c, 9, 81, 0
27, 890880, Note_on_c, 9, 81, 80
27, 891119, Note_on_c, 9, 81, 0
27, 891120, Note_on_c, 9, 81, 80
27, 891359, Note_on_c, 9, 81, 0
27, 891360, Note_on_c, 9, 81, 80
27, 891599, Note_on_c, 9, 81, 0
27, 891600, Note_on_c, 9, 81, 80
27, 891839, Note_on_c, 9, 81, 0
27, 891840, Note_on_c, 9, 81, 80
27, 892079, Note_on_c, 9, 81, 0
27, 892080, Note_on_c, 9, 81, 80
27, 892319, Note_on_c, 9, 81, 0
27, 892320, Note_on_c, 9, 81, 80
27, 892559, Note_on_c, 9, 81, 0
27, 892560, Note_on_c, 9, 81, 80
27, 892799, Note_on_c, 9, 81, 0
27, 892800, Note_on_c, 9, 81, 80
27, 893039, Note_on_c, 9, 81, 0
27, 893039, End_track
28, 0, Start_track
28, 0, Title_t, "Bass Drum"
28, 0, MIDI_port, 0
28, 0, Control_c, 9, 121, 0
28, 0, Control_c, 9, 10, 20
28, 0, Control_c, 9, 11, 127
28, 0, Control_c, 9, 7, 80
28, 289320, Note_on_c, 9, 35, 32
28, 289559, Note_on_c, 9, 35, 0
28, 290760, Note_on_c, 9, 35, 32
28, 290999, Note_on_c, 9, 35, 0
28, 292200, Note_on_c, 9, 35, 32
28, 292439, Note_on_c, 9, 35, 0
28, 292920, Note_on_c, 9, 35, 32
28, 293159, Note_on_c, 9, 35, 0
28, 293640, Note_on_c, 9, 35, 32
28, 293879, Note_on_c, 9, 35, 0
28, 294360, Note_on_c, 9, 35, 32
28, 294599, Note_on_c, 9, 35, 0
28, 295080, Note_on_c, 9, 35, 32
28, 295319, Note_on_c, 9, 35, 0
28, 295800, Note_on_c, 9, 35, 32
28, 296039, Note_on_c, 9, 35, 0
28, 296520, Note_on_c, 9, 35, 32
28, 296759, Note_on_c, 9, 35, 0
28, 297240, Note_on_c, 9, 35, 32
28, 297479, Note_on_c, 9, 35, 0
28, 297600, Note_on_c, 9, 35, 32
28, 297629, Note_on_c, 9, 35, 0
28, 298320, Note_on_c, 9, 35, 32
28, 298349, Note_on_c, 9, 35, 0
28, 299040, Note_on_c, 9, 35, 32
28, 299069, Note_on_c, 9, 35, 0
28, 299760, Note_on_c, 9, 35, 32
28, 299789, Note_on_c, 9, 35, 0
28, 300480, Note_on_c, 9, 35, 32
28, 300509, Note_on_c, 9, 35, 0
28, 301200, Note_on_c, 9, 35, 32
28, 301229, Note_on_c, 9, 35, 0
28, 301920, Note_on_c, 9, 35, 32
28, 301949, Note_on_c, 9, 35, 0
28, 302640, Note_on_c, 9, 35, 32
28, 302669, Note_on_c, 9, 35, 0
28, 303360, Note_on_c, 9, 35, 32
28, 303599, Note_on_c, 9, 35, 0
28, 304080, Note_on_c, 9, 35, 32
28, 304319, Note_on_c, 9, 35, 0
28, 304800, Note_on_c, 9, 35, 32
28, 305039, Note_on_c, 9, 35, 0
28, 305520, Note_on_c, 9, 35, 32
28, 305759, Note_on_c, 9, 35, 0
28, 306240, Note_on_c, 9, 35, 32
28, 306479, Note_on_c, 9, 35, 0
28, 306960, Note_on_c, 9, 35, 32
28, 307199, Note_on_c, 9, 35, 0
28, 307680, Note_on_c, 9, 35, 32
28, 307919, Note_on_c, 9, 35, 0
28, 308040, Note_on_c, 9, 35, 32
28, 308279, Note_on_c, 9, 35, 0
28, 308400, Note_on_c, 9, 35, 32
28, 308639, Note_on_c, 9, 35, 0
28, 309120, Note_on_c, 9, 35, 32
28, 309359, Note_on_c, 9, 35, 0
28, 309840, Note_on_c, 9, 35, 32
28, 310079, Note_on_c, 9, 35, 0
28, 310560, Note_on_c, 9, 35, 32
28, 310799, Note_on_c, 9, 35, 0
28, 311280, Note_on_c, 9, 35, 32
28, 311519, Note_on_c, 9, 35, 0
28, 312000, Note_on_c, 9, 35, 32
28, 312239, Note_on_c, 9, 35, 0
28, 312720, Note_on_c, 9, 35, 32
28, 312959, Note_on_c, 9, 35, 0
28, 313440, Note_on_c, 9, 35, 32
28, 313679, Note_on_c, 9, 35, 0
28, 314160, Note_on_c, 9, 35, 32
28, 314399, Note_on_c, 9, 35, 0
28, 314880, Note_on_c, 9, 35, 32
28, 315119, Note_on_c, 9, 35, 0
28, 315600, Note_on_c, 9, 35, 32
28, 315839, Note_on_c, 9, 35, 0
28, 316320, Note_on_c, 9, 35, 32
28, 316559, Note_on_c, 9, 35, 0
28, 317040, Note_on_c, 9, 35, 32
28, 317279, Note_on_c, 9, 35, 0
28, 317760, Note_on_c, 9, 35, 32
28, 317999, Note_on_c, 9, 35, 0
28, 318480, Note_on_c, 9, 35, 32
28, 318719, Note_on_c, 9, 35, 0
28, 319200, Note_on_c, 9, 35, 32
28, 319439, Note_on_c, 9, 35, 0
28, 319560, Note_on_c, 9, 35, 32
28, 319799, Note_on_c, 9, 35, 0
28, 319920, Note_on_c, 9, 35, 32
28, 320159, Note_on_c, 9, 35, 0
28, 320640, Note_on_c, 9, 35, 32
28, 320879, Note_on_c, 9, 35, 0
28, 321360, Note_on_c, 9, 35, 32
28, 321599, Note_on_c, 9, 35, 0
28, 322080, Note_on_c, 9, 35, 32
28, 322319, Note_on_c, 9, 35, 0
28, 322800, Note_on_c, 9, 35, 32
28, 323039, Note_on_c, 9, 35, 0
28, 323520, Note_on_c, 9, 35, 32
28, 323759, Note_on_c, 9, 35, 0
28, 324240, Note_on_c, 9, 35, 32
28, 324479, Note_on_c, 9, 35, 0
28, 324960, Note_on_c, 9, 35, 32
28, 325199, Note_on_c, 9, 35, 0
28, 325680, Note_on_c, 9, 35, 32
28, 325919, Note_on_c, 9, 35, 0
28, 326400, Note_on_c, 9, 35, 32
28, 326639, Note_on_c, 9, 35, 0
28, 327120, Note_on_c, 9, 35, 32
28, 327359, Note_on_c, 9, 35, 0
28, 327840, Note_on_c, 9, 35, 32
28, 328079, Note_on_c, 9, 35, 0
28, 328560, Note_on_c, 9, 35, 32
28, 328799, Note_on_c, 9, 35, 0
28, 329280, Note_on_c, 9, 35, 32
28, 329519, Note_on_c, 9, 35, 0
28, 330000, Note_on_c, 9, 35, 32
28, 330239, Note_on_c, 9, 35, 0
28, 330720, Note_on_c, 9, 35, 32
28, 330959, Note_on_c, 9, 35, 0
28, 331080, Note_on_c, 9, 35, 32
28, 331319, Note_on_c, 9, 35, 0
28, 331440, Note_on_c, 9, 35, 32
28, 331679, Note_on_c, 9, 35, 0
28, 332160, Note_on_c, 9, 35, 32
28, 332399, Note_on_c, 9, 35, 0
28, 332880, Note_on_c, 9, 35, 32
28, 333119, Note_on_c, 9, 35, 0
28, 333600, Note_on_c, 9, 35, 32
28, 333839, Note_on_c, 9, 35, 0
28, 334320, Note_on_c, 9, 35, 32
28, 334559, Note_on_c, 9, 35, 0
28, 335040, Note_on_c, 9, 35, 32
28, 335279, Note_on_c, 9, 35, 0
28, 335760, Note_on_c, 9, 35, 32
28, 335999, Note_on_c, 9, 35, 0
28, 336480, Note_on_c, 9, 35, 32
28, 336719, Note_on_c, 9, 35, 0
28, 337200, Note_on_c, 9, 35, 32
28, 337439, Note_on_c, 9, 35, 0
28, 337920, Note_on_c, 9, 35, 32
28, 338159, Note_on_c, 9, 35, 0
28, 338640, Note_on_c, 9, 35, 32
28, 338879, Note_on_c, 9, 35, 0
28, 339360, Note_on_c, 9, 35, 32
28, 339599, Note_on_c, 9, 35, 0
28, 340080, Note_on_c, 9, 35, 32
28, 340319, Note_on_c, 9, 35, 0
28, 340800, Note_on_c, 9, 35, 32
28, 341039, Note_on_c, 9, 35, 0
28, 341520, Note_on_c, 9, 35, 32
28, 341759, Note_on_c, 9, 35, 0
28, 342240, Note_on_c, 9, 35, 32
28, 342479, Note_on_c, 9, 35, 0
28, 342600, Note_on_c, 9, 35, 32
28, 342839, Note_on_c, 9, 35, 0
28, 342960, Note_on_c, 9, 35, 32
28, 343199, Note_on_c, 9, 35, 0
28, 343680, Note_on_c, 9, 35, 32
28, 343919, Note_on_c, 9, 35, 0
28, 344400, Note_on_c, 9, 35, 32
28, 344639, Note_on_c, 9, 35, 0
28, 345120, Note_on_c, 9, 35, 32
28, 345359, Note_on_c, 9, 35, 0
28, 345840, Note_on_c, 9, 35, 32
28, 346079, Note_on_c, 9, 35, 0
28, 346560, Note_on_c, 9, 35, 32
28, 346799, Note_on_c, 9, 35, 0
28, 347280, Note_on_c, 9, 35, 32
28, 347519, Note_on_c, 9, 35, 0
28, 348000, Note_on_c, 9, 35, 32
28, 348239, Note_on_c, 9, 35, 0
28, 348720, Note_on_c, 9, 35, 32
28, 348959, Note_on_c, 9, 35, 0
28, 349440, Note_on_c, 9, 35, 32
28, 349679, Note_on_c, 9, 35, 0
28, 350160, Note_on_c, 9, 35, 32
28, 350399, Note_on_c, 9, 35, 0
28, 350880, Note_on_c, 9, 35, 32
28, 351119, Note_on_c, 9, 35, 0
28, 351600, Note_on_c, 9, 35, 32
28, 351839, Note_on_c, 9, 35, 0
28, 352320, Note_on_c, 9, 35, 80
28, 352559, Note_on_c, 9, 35, 0
28, 353040, Note_on_c, 9, 35, 86
28, 353279, Note_on_c, 9, 35, 0
28, 353760, Note_on_c, 9, 35, 86
28, 353999, Note_on_c, 9, 35, 0
28, 354120, Note_on_c, 9, 35, 86
28, 354359, Note_on_c, 9, 35, 0
28, 354480, Note_on_c, 9, 35, 86
28, 354719, Note_on_c, 9, 35, 0
28, 354840, Note_on_c, 9, 35, 86
28, 355079, Note_on_c, 9, 35, 0
28, 355200, Note_on_c, 9, 35, 92
28, 355439, Note_on_c, 9, 35, 0
28, 355920, Note_on_c, 9, 35, 92
28, 356159, Note_on_c, 9, 35, 0
28, 356640, Note_on_c, 9, 35, 92
28, 356879, Note_on_c, 9, 35, 0
28, 357360, Note_on_c, 9, 35, 92
28, 357599, Note_on_c, 9, 35, 0
28, 358080, Note_on_c, 9, 35, 92
28, 358319, Note_on_c, 9, 35, 0
28, 358800, Note_on_c, 9, 35, 92
28, 359039, Note_on_c, 9, 35, 0
28, 359520, Note_on_c, 9, 35, 92
28, 359759, Note_on_c, 9, 35, 0
28, 359880, Note_on_c, 9, 35, 92
28, 360119, Note_on_c, 9, 35, 0
28, 360240, Note_on_c, 9, 35, 92
28, 360479, Note_on_c, 9, 35, 0
28, 360600, Note_on_c, 9, 35, 92
28, 360839, Note_on_c, 9, 35, 0
28, 360960, Note_on_c, 9, 35, 92
28, 361199, Note_on_c, 9, 35, 0
28, 808320, Note_on_c, 9, 35, 80
28, 808559, Note_on_c, 9, 35, 0
28, 808560, Note_on_c, 9, 35, 80
28, 808799, Note_on_c, 9, 35, 0
28, 808800, Note_on_c, 9, 35, 80
28, 809039, Note_on_c, 9, 35, 0
28, 809280, Note_on_c, 9, 35, 80
28, 809519, Note_on_c, 9, 35, 0
28, 809520, Note_on_c, 9, 35, 80
28, 809759, Note_on_c, 9, 35, 0
28, 809760, Note_on_c, 9, 35, 80
28, 809999, Note_on_c, 9, 35, 0
28, 810240, Note_on_c, 9, 35, 80
28, 810479, Note_on_c, 9, 35, 0
28, 810720, Note_on_c, 9, 35, 80
28, 810959, Note_on_c, 9, 35, 0
28, 811200, Note_on_c, 9, 35, 80
28, 811439, Note_on_c, 9, 35, 0
28, 812160, Note_on_c, 9, 35, 80
28, 812399, Note_on_c, 9, 35, 0
28, 812400, Note_on_c, 9, 35, 80
28, 812639, Note_on_c, 9, 35, 0
28, 812640, Note_on_c, 9, 35, 80
28, 812879, Note_on_c, 9, 35, 0
28, 813120, Note_on_c, 9, 35, 80
28, 813359, Note_on_c, 9, 35, 0
28, 813360, Note_on_c, 9, 35, 80
28, 813599, Note_on_c, 9, 35, 0
28, 813600, Note_on_c, 9, 35, 80
28, 813839, Note_on_c, 9, 35, 0
28, 814080, Note_on_c, 9, 35, 80
28, 814319, Note_on_c, 9, 35, 0
28, 814560, Note_on_c, 9, 35, 80
28, 814799, Note_on_c, 9, 35, 0
28, 815040, Note_on_c, 9, 35, 80
28, 815279, Note_on_c, 9, 35, 0
28, 816000, Note_on_c, 9, 35, 80
28, 816239, Note_on_c, 9, 35, 0
28, 816480, Note_on_c, 9, 35, 80
28, 816719, Note_on_c, 9, 35, 0
28, 816960, Note_on_c, 9, 35, 80
28, 817199, Note_on_c, 9, 35, 0
28, 817920, Note_on_c, 9, 35, 80
28, 818159, Note_on_c, 9, 35, 0
28, 818880, Note_on_c, 9, 35, 80
28, 819119, Note_on_c, 9, 35, 0
28, 819840, Note_on_c, 9, 35, 80
28, 820079, Note_on_c, 9, 35, 0
28, 820800, Note_on_c, 9, 35, 80
28, 821039, Note_on_c, 9, 35, 0
28, 821760, Note_on_c, 9, 35, 80
28, 821999, Note_on_c, 9, 35, 0
28, 822720, Note_on_c, 9, 35, 80
28, 822959, Note_on_c, 9, 35, 0
28, 823680, Note_on_c, 9, 35, 80
28, 823919, Note_on_c, 9, 35, 0
28, 824640, Note_on_c, 9, 35, 80
28, 824879, Note_on_c, 9, 35, 0
28, 825600, Note_on_c, 9, 35, 80
28, 825839, Note_on_c, 9, 35, 0
28, 826080, Note_on_c, 9, 35, 80
28, 826319, Note_on_c, 9, 35, 0
28, 826560, Note_on_c, 9, 35, 80
28, 826799, Note_on_c, 9, 35, 0
28, 827520, Note_on_c, 9, 35, 80
28, 827759, Note_on_c, 9, 35, 0
28, 828480, Note_on_c, 9, 35, 80
28, 828719, Note_on_c, 9, 35, 0
28, 829440, Note_on_c, 9, 35, 80
28, 829679, Note_on_c, 9, 35, 0
28, 829920, Note_on_c, 9, 35, 80
28, 830159, Note_on_c, 9, 35, 0
28, 830400, Note_on_c, 9, 35, 80
28, 830639, Note_on_c, 9, 35, 0
28, 831360, Note_on_c, 9, 35, 80
28, 831599, Note_on_c, 9, 35, 0
28, 832320, Note_on_c, 9, 35, 80
28, 832559, Note_on_c, 9, 35, 0
28, 832560, Note_on_c, 9, 35, 80
28, 832799, Note_on_c, 9, 35, 0
28, 832800, Note_on_c, 9, 35, 80
28, 833039, Note_on_c, 9, 35, 0
28, 833280, Note_on_c, 9, 35, 80
28, 833519, Note_on_c, 9, 35, 0
28, 833520, Note_on_c, 9, 35, 80
28, 833759, Note_on_c, 9, 35, 0
28, 833760, Note_on_c, 9, 35, 80
28, 833999, Note_on_c, 9, 35, 0
28, 834240, Note_on_c, 9, 35, 80
28, 834479, Note_on_c, 9, 35, 0
28, 834480, Note_on_c, 9, 35, 80
28, 834719, Note_on_c, 9, 35, 0
28, 834720, Note_on_c, 9, 35, 80
28, 834959, Note_on_c, 9, 35, 0
28, 835200, Note_on_c, 9, 35, 80
28, 835439, Note_on_c, 9, 35, 0
28, 835440, Note_on_c, 9, 35, 80
28, 835679, Note_on_c, 9, 35, 0
28, 835680, Note_on_c, 9, 35, 80
28, 835919, Note_on_c, 9, 35, 0
28, 836160, Note_on_c, 9, 35, 80
28, 836399, Note_on_c, 9, 35, 0
28, 837120, Note_on_c, 9, 35, 80
28, 837359, Note_on_c, 9, 35, 0
28, 838080, Note_on_c, 9, 35, 80
28, 838319, Note_on_c, 9, 35, 0
28, 839040, Note_on_c, 9, 35, 80
28, 839279, Note_on_c, 9, 35, 0
28, 840000, Note_on_c, 9, 35, 80
28, 840239, Note_on_c, 9, 35, 0
28, 840960, Note_on_c, 9, 35, 80
28, 841199, Note_on_c, 9, 35, 0
28, 841440, Note_on_c, 9, 35, 80
28, 841679, Note_on_c, 9, 35, 0
28, 841920, Note_on_c, 9, 35, 80
28, 842159, Note_on_c, 9, 35, 0
28, 842400, Note_on_c, 9, 35, 80
28, 842639, Note_on_c, 9, 35, 0
28, 842880, Note_on_c, 9, 35, 80
28, 843119, Note_on_c, 9, 35, 0
28, 843360, Note_on_c, 9, 35, 80
28, 843599, Note_on_c, 9, 35, 0
28, 844320, Note_on_c, 9, 35, 80
28, 844559, Note_on_c, 9, 35, 0
28, 844800, Note_on_c, 9, 35, 80
28, 845039, Note_on_c, 9, 35, 0
28, 845760, Note_on_c, 9, 35, 80
28, 845999, Note_on_c, 9, 35, 0
28, 846720, Note_on_c, 9, 35, 80
28, 846959, Note_on_c, 9, 35, 0
28, 847680, Note_on_c, 9, 35, 80
28, 847919, Note_on_c, 9, 35, 0
28, 848640, Note_on_c, 9, 35, 80
28, 848879, Note_on_c, 9, 35, 0
28, 849120, Note_on_c, 9, 35, 80
28, 849359, Note_on_c, 9, 35, 0
28, 849600, Note_on_c, 9, 35, 80
28, 849839, Note_on_c, 9, 35, 0
28, 850080, Note_on_c, 9, 35, 80
28, 850319, Note_on_c, 9, 35, 0
28, 850560, Note_on_c, 9, 35, 92
28, 850799, Note_on_c, 9, 35, 0
28, 851040, Note_on_c, 9, 35, 92
28, 851279, Note_on_c, 9, 35, 0
28, 851520, Note_on_c, 9, 35, 92
28, 851759, Note_on_c, 9, 35, 0
28, 853440, Note_on_c, 9, 35, 92
28, 853679, Note_on_c, 9, 35, 0
28, 853920, Note_on_c, 9, 35, 92
28, 854159, Note_on_c, 9, 35, 0
28, 854400, Note_on_c, 9, 35, 92
28, 854639, Note_on_c, 9, 35, 0
28, 854880, Note_on_c, 9, 35, 92
28, 855119, Note_on_c, 9, 35, 0
28, 855360, Note_on_c, 9, 35, 92
28, 855599, Note_on_c, 9, 35, 0
28, 857280, Note_on_c, 9, 35, 92
28, 857519, Note_on_c, 9, 35, 0
28, 857760, Note_on_c, 9, 35, 92
28, 857999, Note_on_c, 9, 35, 0
28, 858240, Note_on_c, 9, 35, 80
28, 858479, Note_on_c, 9, 35, 0
28, 859200, Note_on_c, 9, 35, 80
28, 859439, Note_on_c, 9, 35, 0
28, 860160, Note_on_c, 9, 35, 80
28, 860399, Note_on_c, 9, 35, 0
28, 861120, Note_on_c, 9, 35, 80
28, 861359, Note_on_c, 9, 35, 0
28, 862080, Note_on_c, 9, 35, 80
28, 862319, Note_on_c, 9, 35, 0
28, 863040, Note_on_c, 9, 35, 80
28, 863279, Note_on_c, 9, 35, 0
28, 864000, Note_on_c, 9, 35, 80
28, 864239, Note_on_c, 9, 35, 0
28, 864960, Note_on_c, 9, 35, 80
28, 865199, Note_on_c, 9, 35, 0
28, 866880, Note_on_c, 9, 35, 80
28, 867119, Note_on_c, 9, 35, 0
28, 867840, Note_on_c, 9, 35, 80
28, 868079, Note_on_c, 9, 35, 0
28, 869760, Note_on_c, 9, 35, 80
28, 869999, Note_on_c, 9, 35, 0
28, 870240, Note_on_c, 9, 35, 80
28, 870479, Note_on_c, 9, 35, 0
28, 870720, Note_on_c, 9, 35, 80
28, 870959, Note_on_c, 9, 35, 0
28, 872160, Note_on_c, 9, 35, 80
28, 872399, Note_on_c, 9, 35, 0
28, 872400, Note_on_c, 9, 35, 80
28, 872639, Note_on_c, 9, 35, 0
28, 872760, Note_on_c, 9, 35, 80
28, 872879, Note_on_c, 9, 35, 0
28, 872880, Note_on_c, 9, 35, 80
28, 873119, Note_on_c, 9, 35, 0
28, 873120, Note_on_c, 9, 35, 80
28, 873359, Note_on_c, 9, 35, 0
28, 873360, Note_on_c, 9, 35, 80
28, 873599, Note_on_c, 9, 35, 0
28, 873600, Note_on_c, 9, 35, 80
28, 873839, Note_on_c, 9, 35, 0
28, 874560, Note_on_c, 9, 35, 80
28, 874799, Note_on_c, 9, 35, 0
28, 875520, Note_on_c, 9, 35, 80
28, 875759, Note_on_c, 9, 35, 0
28, 876480, Note_on_c, 9, 35, 80
28, 876719, Note_on_c, 9, 35, 0
28, 877440, Note_on_c, 9, 35, 80
28, 877679, Note_on_c, 9, 35, 0
28, 878400, Note_on_c, 9, 35, 80
28, 878639, Note_on_c, 9, 35, 0
28, 879360, Note_on_c, 9, 35, 80
28, 879599, Note_on_c, 9, 35, 0
28, 880320, Note_on_c, 9, 35, 80
28, 880559, Note_on_c, 9, 35, 0
28, 881280, Note_on_c, 9, 35, 80
28, 881519, Note_on_c, 9, 35, 0
28, 881760, Note_on_c, 9, 35, 80
28, 881999, Note_on_c, 9, 35, 0
28, 882240, Note_on_c, 9, 35, 80
28, 882479, Note_on_c, 9, 35, 0
28, 882720, Note_on_c, 9, 35, 80
28, 882959, Note_on_c, 9, 35, 0
28, 883200, Note_on_c, 9, 35, 80
28, 883439, Note_on_c, 9, 35, 0
28, 883680, Note_on_c, 9, 35, 80
28, 883919, Note_on_c, 9, 35, 0
28, 884160, Note_on_c, 9, 35, 80
28, 884399, Note_on_c, 9, 35, 0
28, 884640, Note_on_c, 9, 35, 80
28, 884879, Note_on_c, 9, 35, 0
28, 885120, Note_on_c, 9, 35, 80
28, 885359, Note_on_c, 9, 35, 0
28, 885600, Note_on_c, 9, 35, 80
28, 885839, Note_on_c, 9, 35, 0
28, 886080, Note_on_c, 9, 35, 80
28, 886319, Note_on_c, 9, 35, 0
28, 886560, Note_on_c, 9, 35, 80
28, 886799, Note_on_c, 9, 35, 0
28, 887040, Note_on_c, 9, 35, 80
28, 887279, Note_on_c, 9, 35, 0
28, 887520, Note_on_c, 9, 35, 80
28, 887759, Note_on_c, 9, 35, 0
28, 888000, Note_on_c, 9, 35, 80
28, 888239, Note_on_c, 9, 35, 0
28, 888480, Note_on_c, 9, 35, 80
28, 888719, Note_on_c, 9, 35, 0
28, 888960, Note_on_c, 9, 35, 80
28, 889199, Note_on_c, 9, 35, 0
28, 890880, Note_on_c, 9, 35, 80
28, 891119, Note_on_c, 9, 35, 0
28, 891840, Note_on_c, 9, 35, 80
28, 892079, Note_on_c, 9, 35, 0
28, 892800, Note_on_c, 9, 35, 80
28, 893039, Note_on_c, 9, 35, 0
28, 893039, End_track
29, 0, Start_track
29, 0, Title_t, "Cymbals"
29, 0, MIDI_port, 0
29, 297600, Note_on_c, 9, 49, 32
29, 297839, Note_on_c, 9, 49, 0
29, 298320, Note_on_c, 9, 49, 32
29, 298559, Note_on_c, 9, 49, 0
29, 299040, Note_on_c, 9, 49, 32
29, 299279, Note_on_c, 9, 49, 0
29, 299760, Note_on_c, 9, 49, 32
29, 299999, Note_on_c, 9, 49, 0
29, 300480, Note_on_c, 9, 49, 32
29, 300719, Note_on_c, 9, 49, 0
29, 301200, Note_on_c, 9, 49, 32
29, 301439, Note_on_c, 9, 49, 0
29, 301920, Note_on_c, 9, 49, 32
29, 302159, Note_on_c, 9, 49, 0
29, 302640, Note_on_c, 9, 49, 32
29, 302879, Note_on_c, 9, 49, 0
29, 303360, Note_on_c, 9, 49, 32
29, 303599, Note_on_c, 9, 49, 0
29, 304080, Note_on_c, 9, 49, 32
29, 304319, Note_on_c, 9, 49, 0
29, 304800, Note_on_c, 9, 49, 32
29, 305039, Note_on_c, 9, 49, 0
29, 305520, Note_on_c, 9, 49, 32
29, 305759, Note_on_c, 9, 49, 0
29, 306240, Note_on_c, 9, 49, 32
29, 306479, Note_on_c, 9, 49, 0
29, 306960, Note_on_c, 9, 49, 32
29, 307199, Note_on_c, 9, 49, 0
29, 307680, Note_on_c, 9, 49, 32
29, 307919, Note_on_c, 9, 49, 0
29, 308040, Note_on_c, 9, 49, 32
29, 308279, Note_on_c, 9, 49, 0
29, 308400, Note_on_c, 9, 49, 32
29, 308639, Note_on_c, 9, 49, 0
29, 309120, Note_on_c, 9, 49, 32
29, 309359, Note_on_c, 9, 49, 0
29, 309840, Note_on_c, 9, 49, 32
29, 310079, Note_on_c, 9, 49, 0
29, 310560, Note_on_c, 9, 49, 32
29, 310799, Note_on_c, 9, 49, 0
29, 311280, Note_on_c, 9, 49, 32
29, 311519, Note_on_c, 9, 49, 0
29, 312000, Note_on_c, 9, 49, 32
29, 312239, Note_on_c, 9, 49, 0
29, 312720, Note_on_c, 9, 49, 32
29, 312959, Note_on_c, 9, 49, 0
29, 313440, Note_on_c, 9, 49, 32
29, 313679, Note_on_c, 9, 49, 0
29, 314160, Note_on_c, 9, 49, 32
29, 314399, Note_on_c, 9, 49, 0
29, 314880, Note_on_c, 9, 49, 32
29, 315119, Note_on_c, 9, 49, 0
29, 315600, Note_on_c, 9, 49, 32
29, 315839, Note_on_c, 9, 49, 0
29, 316320, Note_on_c, 9, 49, 32
29, 316559, Note_on_c, 9, 49, 0
29, 317040, Note_on_c, 9, 49, 32
29, 317279, Note_on_c, 9, 49, 0
29, 317760, Note_on_c, 9, 49, 32
29, 317999, Note_on_c, 9, 49, 0
29, 318480, Note_on_c, 9, 49, 32
29, 318719, Note_on_c, 9, 49, 0
29, 319200, Note_on_c, 9, 49, 32
29, 319439, Note_on_c, 9, 49, 0
29, 319560, Note_on_c, 9, 49, 32
29, 319799, Note_on_c, 9, 49, 0
29, 319920, Note_on_c, 9, 49, 32
29, 320159, Note_on_c, 9, 49, 0
29, 320640, Note_on_c, 9, 49, 32
29, 320879, Note_on_c, 9, 49, 0
29, 321360, Note_on_c, 9, 49, 32
29, 321599, Note_on_c, 9, 49, 0
29, 322080, Note_on_c, 9, 49, 32
29, 322319, Note_on_c, 9, 49, 0
29, 322800, Note_on_c, 9, 49, 32
29, 323039, Note_on_c, 9, 49, 0
29, 323520, Note_on_c, 9, 49, 32
29, 323759, Note_on_c, 9, 49, 0
29, 324240, Note_on_c, 9, 49, 32
29, 324479, Note_on_c, 9, 49, 0
29, 324960, Note_on_c, 9, 49, 32
29, 325199, Note_on_c, 9, 49, 0
29, 325680, Note_on_c, 9, 49, 32
29, 325919, Note_on_c, 9, 49, 0
29, 326400, Note_on_c, 9, 49, 32
29, 326639, Note_on_c, 9, 49, 0
29, 327120, Note_on_c, 9, 49, 32
29, 327359, Note_on_c, 9, 49, 0
29, 327840, Note_on_c, 9, 49, 32
29, 328079, Note_on_c, 9, 49, 0
29, 328560, Note_on_c, 9, 49, 32
29, 328799, Note_on_c, 9, 49, 0
29, 329280, Note_on_c, 9, 49, 32
29, 329519, Note_on_c, 9, 49, 0
29, 330000, Note_on_c, 9, 49, 32
29, 330239, Note_on_c, 9, 49, 0
29, 330720, Note_on_c, 9, 49, 32
29, 330959, Note_on_c, 9, 49, 0
29, 331080, Note_on_c, 9, 49, 32
29, 331319, Note_on_c, 9, 49, 0
29, 331440, Note_on_c, 9, 49, 32
29, 331679, Note_on_c, 9, 49, 0
29, 332160, Note_on_c, 9, 49, 32
29, 332399, Note_on_c, 9, 49, 0
29, 332880, Note_on_c, 9, 49, 32
29, 333119, Note_on_c, 9, 49, 0
29, 333600, Note_on_c, 9, 49, 32
29, 333839, Note_on_c, 9, 49, 0
29, 334320, Note_on_c, 9, 49, 32
29, 334559, Note_on_c, 9, 49, 0
29, 335040, Note_on_c, 9, 49, 32
29, 335279, Note_on_c, 9, 49, 0
29, 335760, Note_on_c, 9, 49, 32
29, 335999, Note_on_c, 9, 49, 0
29, 336480, Note_on_c, 9, 49, 32
29, 336719, Note_on_c, 9, 49, 0
29, 337200, Note_on_c, 9, 49, 32
29, 337439, Note_on_c, 9, 49, 0
29, 337920, Note_on_c, 9, 49, 32
29, 338159, Note_on_c, 9, 49, 0
29, 338640, Note_on_c, 9, 49, 32
29, 338879, Note_on_c, 9, 49, 0
29, 339360, Note_on_c, 9, 49, 32
29, 339599, Note_on_c, 9, 49, 0
29, 340080, Note_on_c, 9, 49, 32
29, 340319, Note_on_c, 9, 49, 0
29, 340800, Note_on_c, 9, 49, 32
29, 341039, Note_on_c, 9, 49, 0
29, 341520, Note_on_c, 9, 49, 32
29, 341759, Note_on_c, 9, 49, 0
29, 342240, Note_on_c, 9, 49, 32
29, 342479, Note_on_c, 9, 49, 0
29, 342600, Note_on_c, 9, 49, 32
29, 342839, Note_on_c, 9, 49, 0
29, 342960, Note_on_c, 9, 49, 32
29, 343199, Note_on_c, 9, 49, 0
29, 343680, Note_on_c, 9, 49, 32
29, 343919, Note_on_c, 9, 49, 0
29, 344400, Note_on_c, 9, 49, 32
29, 344639, Note_on_c, 9, 49, 0
29, 345120, Note_on_c, 9, 49, 32
29, 345359, Note_on_c, 9, 49, 0
29, 345840, Note_on_c, 9, 49, 32
29, 346079, Note_on_c, 9, 49, 0
29, 346560, Note_on_c, 9, 49, 32
29, 346799, Note_on_c, 9, 49, 0
29, 347280, Note_on_c, 9, 49, 32
29, 347519, Note_on_c, 9, 49, 0
29, 348000, Note_on_c, 9, 49, 32
29, 348239, Note_on_c, 9, 49, 0
29, 348720, Note_on_c, 9, 49, 32
29, 348959, Note_on_c, 9, 49, 0
29, 349440, Note_on_c, 9, 49, 32
29, 349679, Note_on_c, 9, 49, 0
29, 350160, Note_on_c, 9, 49, 32
29, 350399, Note_on_c, 9, 49, 0
29, 350880, Note_on_c, 9, 49, 32
29, 351119, Note_on_c, 9, 49, 0
29, 351600, Note_on_c, 9, 49, 32
29, 351839, Note_on_c, 9, 49, 0
29, 352320, Note_on_c, 9, 49, 80
29, 352559, Note_on_c, 9, 49, 0
29, 353040, Note_on_c, 9, 49, 86
29, 353279, Note_on_c, 9, 49, 0
29, 353760, Note_on_c, 9, 49, 86
29, 353999, Note_on_c, 9, 49, 0
29, 354120, Note_on_c, 9, 49, 86
29, 354359, Note_on_c, 9, 49, 0
29, 354480, Note_on_c, 9, 49, 86
29, 354719, Note_on_c, 9, 49, 0
29, 354840, Note_on_c, 9, 49, 86
29, 355079, Note_on_c, 9, 49, 0
29, 355200, Note_on_c, 9, 49, 92
29, 355439, Note_on_c, 9, 49, 0
29, 355920, Note_on_c, 9, 49, 92
29, 356159, Note_on_c, 9, 49, 0
29, 356640, Note_on_c, 9, 49, 92
29, 356879, Note_on_c, 9, 49, 0
29, 357360, Note_on_c, 9, 49, 92
29, 357599, Note_on_c, 9, 49, 0
29, 358080, Note_on_c, 9, 49, 92
29, 358319, Note_on_c, 9, 49, 0
29, 358800, Note_on_c, 9, 49, 92
29, 359039, Note_on_c, 9, 49, 0
29, 359520, Note_on_c, 9, 49, 92
29, 359759, Note_on_c, 9, 49, 0
29, 359880, Note_on_c, 9, 49, 92
29, 360119, Note_on_c, 9, 49, 0
29, 360240, Note_on_c, 9, 49, 92
29, 360479, Note_on_c, 9, 49, 0
29, 360600, Note_on_c, 9, 49, 92
29, 360839, Note_on_c, 9, 49, 0
29, 360960, Note_on_c, 9, 49, 92
29, 361199, Note_on_c, 9, 49, 0
29, 808320, Note_on_c, 9, 49, 80
29, 808559, Note_on_c, 9, 49, 0
29, 808560, Note_on_c, 9, 49, 80
29, 808799, Note_on_c, 9, 49, 0
29, 808800, Note_on_c, 9, 49, 80
29, 809039, Note_on_c, 9, 49, 0
29, 809280, Note_on_c, 9, 49, 80
29, 809519, Note_on_c, 9, 49, 0
29, 809520, Note_on_c, 9, 49, 80
29, 809759, Note_on_c, 9, 49, 0
29, 809760, Note_on_c, 9, 49, 80
29, 809999, Note_on_c, 9, 49, 0
29, 810240, Note_on_c, 9, 49, 80
29, 810479, Note_on_c, 9, 49, 0
29, 810720, Note_on_c, 9, 49, 80
29, 810959, Note_on_c, 9, 49, 0
29, 811200, Note_on_c, 9, 49, 80
29, 811439, Note_on_c, 9, 49, 0
29, 812160, Note_on_c, 9, 49, 80
29, 812399, Note_on_c, 9, 49, 0
29, 812400, Note_on_c, 9, 49, 80
29, 812639, Note_on_c, 9, 49, 0
29, 812640, Note_on_c, 9, 49, 80
29, 812879, Note_on_c, 9, 49, 0
29, 813120, Note_on_c, 9, 49, 80
29, 813359, Note_on_c, 9, 49, 0
29, 813360, Note_on_c, 9, 49, 80
29, 813599, Note_on_c, 9, 49, 0
29, 813600, Note_on_c, 9, 49, 80
29, 813839, Note_on_c, 9, 49, 0
29, 814080, Note_on_c, 9, 49, 80
29, 814319, Note_on_c, 9, 49, 0
29, 814560, Note_on_c, 9, 49, 80
29, 814799, Note_on_c, 9, 49, 0
29, 815040, Note_on_c, 9, 49, 80
29, 815279, Note_on_c, 9, 49, 0
29, 816000, Note_on_c, 9, 49, 80
29, 816239, Note_on_c, 9, 49, 0
29, 816480, Note_on_c, 9, 49, 80
29, 816719, Note_on_c, 9, 49, 0
29, 816960, Note_on_c, 9, 49, 80
29, 817199, Note_on_c, 9, 49, 0
29, 817920, Note_on_c, 9, 49, 80
29, 818159, Note_on_c, 9, 49, 0
29, 818880, Note_on_c, 9, 49, 80
29, 819119, Note_on_c, 9, 49, 0
29, 819840, Note_on_c, 9, 49, 80
29, 820079, Note_on_c, 9, 49, 0
29, 820800, Note_on_c, 9, 49, 80
29, 821039, Note_on_c, 9, 49, 0
29, 821760, Note_on_c, 9, 49, 80
29, 821999, Note_on_c, 9, 49, 0
29, 822720, Note_on_c, 9, 49, 80
29, 822959, Note_on_c, 9, 49, 0
29, 823680, Note_on_c, 9, 49, 80
29, 823919, Note_on_c, 9, 49, 0
29, 824640, Note_on_c, 9, 49, 80
29, 824879, Note_on_c, 9, 49, 0
29, 825600, Note_on_c, 9, 49, 80
29, 825839, Note_on_c, 9, 49, 0
29, 826080, Note_on_c, 9, 49, 80
29, 826319, Note_on_c, 9, 49, 0
29, 826560, Note_on_c, 9, 49, 80
29, 826799, Note_on_c, 9, 49, 0
29, 827520, Note_on_c, 9, 49, 80
29, 827759, Note_on_c, 9, 49, 0
29, 828480, Note_on_c, 9, 49, 80
29, 828719, Note_on_c, 9, 49, 0
29, 829440, Note_on_c, 9, 49, 80
29, 829679, Note_on_c, 9, 49, 0
29, 829920, Note_on_c, 9, 49, 80
29, 830159, Note_on_c, 9, 49, 0
29, 830400, Note_on_c, 9, 49, 80
29, 830639, Note_on_c, 9, 49, 0
29, 831360, Note_on_c, 9, 49, 80
29, 831599, Note_on_c, 9, 49, 0
29, 832320, Note_on_c, 9, 49, 80
29, 832559, Note_on_c, 9, 49, 0
29, 832560, Note_on_c, 9, 49, 80
29, 832799, Note_on_c, 9, 49, 0
29, 832800, Note_on_c, 9, 49, 80
29, 833039, Note_on_c, 9, 49, 0
29, 833280, Note_on_c, 9, 49, 80
29, 833519, Note_on_c, 9, 49, 0
29, 833520, Note_on_c, 9, 49, 80
29, 833759, Note_on_c, 9, 49, 0
29, 833760, Note_on_c, 9, 49, 80
29, 833999, Note_on_c, 9, 49, 0
29, 834240, Note_on_c, 9, 49, 80
29, 834479, Note_on_c, 9, 49, 0
29, 834480, Note_on_c, 9, 49, 80
29, 834719, Note_on_c, 9, 49, 0
29, 834720, Note_on_c, 9, 49, 80
29, 834959, Note_on_c, 9, 49, 0
29, 835200, Note_on_c, 9, 49, 80
29, 835439, Note_on_c, 9, 49, 0
29, 835440, Note_on_c, 9, 49, 80
29, 835679, Note_on_c, 9, 49, 0
29, 835680, Note_on_c, 9, 49, 80
29, 835919, Note_on_c, 9, 49, 0
29, 836160, Note_on_c, 9, 49, 80
29, 836399, Note_on_c, 9, 49, 0
29, 837120, Note_on_c, 9, 49, 80
29, 837359, Note_on_c, 9, 49, 0
29, 838080, Note_on_c, 9, 49, 80
29, 838319, Note_on_c, 9, 49, 0
29, 839040, Note_on_c, 9, 49, 80
29, 839279, Note_on_c, 9, 49, 0
29, 840000, Note_on_c, 9, 49, 80
29, 840239, Note_on_c, 9, 49, 0
29, 840960, Note_on_c, 9, 49, 80
29, 841199, Note_on_c, 9, 49, 0
29, 841440, Note_on_c, 9, 49, 80
29, 841679, Note_on_c, 9, 49, 0
29, 841920, Note_on_c, 9, 49, 80
29, 842159, Note_on_c, 9, 49, 0
29, 842400, Note_on_c, 9, 49, 80
29, 842639, Note_on_c, 9, 49, 0
29, 842880, Note_on_c, 9, 49, 80
29, 843119, Note_on_c, 9, 49, 0
29, 843360, Note_on_c, 9, 49, 80
29, 843599, Note_on_c, 9, 49, 0
29, 844320, Note_on_c, 9, 49, 80
29, 844559, Note_on_c, 9, 49, 0
29, 844800, Note_on_c, 9, 49, 80
29, 845039, Note_on_c, 9, 49, 0
29, 845760, Note_on_c, 9, 49, 80
29, 845999, Note_on_c, 9, 49, 0
29, 846720, Note_on_c, 9, 49, 80
29, 846959, Note_on_c, 9, 49, 0
29, 847680, Note_on_c, 9, 49, 80
29, 847919, Note_on_c, 9, 49, 0
29, 848640, Note_on_c, 9, 49, 80
29, 848879, Note_on_c, 9, 49, 0
29, 849120, Note_on_c, 9, 49, 80
29, 849359, Note_on_c, 9, 49, 0
29, 849600, Note_on_c, 9, 49, 80
29, 849839, Note_on_c, 9, 49, 0
29, 850080, Note_on_c, 9, 49, 80
29, 850319, Note_on_c, 9, 49, 0
29, 850560, Note_on_c, 9, 49, 92
29, 850799, Note_on_c, 9, 49, 0
29, 851040, Note_on_c, 9, 49, 92
29, 851279, Note_on_c, 9, 49, 0
29, 851520, Note_on_c, 9, 49, 92
29, 851759, Note_on_c, 9, 49, 0
29, 853440, Note_on_c, 9, 49, 92
29, 853679, Note_on_c, 9, 49, 0
29, 853920, Note_on_c, 9, 49, 92
29, 854159, Note_on_c, 9, 49, 0
29, 854400, Note_on_c, 9, 49, 92
29, 854639, Note_on_c, 9, 49, 0
29, 854880, Note_on_c, 9, 49, 92
29, 855119, Note_on_c, 9, 49, 0
29, 855360, Note_on_c, 9, 49, 92
29, 855599, Note_on_c, 9, 49, 0
29, 857280, Note_on_c, 9, 49, 92
29, 857519, Note_on_c, 9, 49, 0
29, 857760, Note_on_c, 9, 49, 92
29, 857999, Note_on_c, 9, 49, 0
29, 858240, Note_on_c, 9, 49, 80
29, 858479, Note_on_c, 9, 49, 0
29, 859200, Note_on_c, 9, 49, 80
29, 859439, Note_on_c, 9, 49, 0
29, 860160, Note_on_c, 9, 49, 80
29, 860399, Note_on_c, 9, 49, 0
29, 861120, Note_on_c, 9, 49, 80
29, 861359, Note_on_c, 9, 49, 0
29, 862080, Note_on_c, 9, 49, 80
29, 862319, Note_on_c, 9, 49, 0
29, 863040, Note_on_c, 9, 49, 80
29, 863279, Note_on_c, 9, 49, 0
29, 864000, Note_on_c, 9, 49, 80
29, 864239, Note_on_c, 9, 49, 0
29, 864960, Note_on_c, 9, 49, 80
29, 865199, Note_on_c, 9, 49, 0
29, 866880, Note_on_c, 9, 49, 80
29, 867119, Note_on_c, 9, 49, 0
29, 867840, Note_on_c, 9, 49, 80
29, 868079, Note_on_c, 9, 49, 0
29, 869760, Note_on_c, 9, 49, 80
29, 869999, Note_on_c, 9, 49, 0
29, 870240, Note_on_c, 9, 49, 80
29, 870479, Note_on_c, 9, 49, 0
29, 870720, Note_on_c, 9, 49, 80
29, 870959, Note_on_c, 9, 49, 0
29, 872160, Note_on_c, 9, 49, 80
29, 872399, Note_on_c, 9, 49, 0
29, 872400, Note_on_c, 9, 49, 80
29, 872639, Note_on_c, 9, 49, 0
29, 872760, Note_on_c, 9, 49, 80
29, 872879, Note_on_c, 9, 49, 0
29, 872880, Note_on_c, 9, 49, 80
29, 873119, Note_on_c, 9, 49, 0
29, 873120, Note_on_c, 9, 49, 80
29, 873359, Note_on_c, 9, 49, 0
29, 873360, Note_on_c, 9, 49, 80
29, 873599, Note_on_c, 9, 49, 0
29, 873600, Note_on_c, 9, 49, 80
29, 873839, Note_on_c, 9, 49, 0
29, 874560, Note_on_c, 9, 49, 80
29, 874799, Note_on_c, 9, 49, 0
29, 875520, Note_on_c, 9, 49, 80
29, 875759, Note_on_c, 9, 49, 0
29, 876480, Note_on_c, 9, 49, 80
29, 876719, Note_on_c, 9, 49, 0
29, 877440, Note_on_c, 9, 49, 80
29, 877679, Note_on_c, 9, 49, 0
29, 878400, Note_on_c, 9, 49, 80
29, 878639, Note_on_c, 9, 49, 0
29, 879360, Note_on_c, 9, 49, 80
29, 879599, Note_on_c, 9, 49, 0
29, 880320, Note_on_c, 9, 49, 80
29, 880559, Note_on_c, 9, 49, 0
29, 881280, Note_on_c, 9, 49, 80
29, 881519, Note_on_c, 9, 49, 0
29, 881760, Note_on_c, 9, 49, 80
29, 881999, Note_on_c, 9, 49, 0
29, 882240, Note_on_c, 9, 49, 80
29, 882479, Note_on_c, 9, 49, 0
29, 882720, Note_on_c, 9, 49, 80
29, 882959, Note_on_c, 9, 49, 0
29, 883200, Note_on_c, 9, 49, 80
29, 883439, Note_on_c, 9, 49, 0
29, 883680, Note_on_c, 9, 49, 80
29, 883919, Note_on_c, 9, 49, 0
29, 884160, Note_on_c, 9, 49, 80
29, 884399, Note_on_c, 9, 49, 0
29, 884640, Note_on_c, 9, 49, 80
29, 884879, Note_on_c, 9, 49, 0
29, 885120, Note_on_c, 9, 49, 80
29, 885359, Note_on_c, 9, 49, 0
29, 885600, Note_on_c, 9, 49, 80
29, 885839, Note_on_c, 9, 49, 0
29, 886080, Note_on_c, 9, 49, 80
29, 886319, Note_on_c, 9, 49, 0
29, 886560, Note_on_c, 9, 49, 80
29, 886799, Note_on_c, 9, 49, 0
29, 887040, Note_on_c, 9, 49, 80
29, 887279, Note_on_c, 9, 49, 0
29, 887520, Note_on_c, 9, 49, 80
29, 887759, Note_on_c, 9, 49, 0
29, 888000, Note_on_c, 9, 49, 80
29, 888239, Note_on_c, 9, 49, 0
29, 888480, Note_on_c, 9, 49, 80
29, 888719, Note_on_c, 9, 49, 0
29, 888960, Note_on_c, 9, 49, 80
29, 889199, Note_on_c, 9, 49, 0
29, 890880, Note_on_c, 9, 49, 80
29, 891119, Note_on_c, 9, 49, 0
29, 891840, Note_on_c, 9, 49, 80
29, 892079, Note_on_c, 9, 49, 0
29, 892800, Note_on_c, 9, 49, 80
29, 893039, Note_on_c, 9, 49, 0
29, 893039, End_track
30, 0, Start_track
30, 0, Title_t, "Violin I"
30, 0, MIDI_port, 0
30, 0, Control_c, 12, 121, 0
30, 0, Program_c, 12, 48
30, 0, Control_c, 12, 7, 96
30, 0, Control_c, 12, 11, 127
30, 0, Control_c, 12, 10, 48
30, 22050, Note_on_c, 12, 76, 32
30, 22075, Note_on_c, 12, 76, 0
30, 22080, Note_on_c, 12, 69, 32
30, 22319, Note_on_c, 12, 69, 0
30, 22530, Note_on_c, 12, 69, 32
30, 22555, Note_on_c, 12, 69, 0
30, 22560, Note_on_c, 12, 64, 32
30, 22799, Note_on_c, 12, 64, 0
30, 23010, Note_on_c, 12, 64, 32
30, 23035, Note_on_c, 12, 64, 0
30, 23040, Note_on_c, 12, 57, 32
30, 23279, Note_on_c, 12, 57, 0
30, 23970, Note_on_c, 12, 81, 32
30, 23995, Note_on_c, 12, 81, 0
30, 24000, Note_on_c, 12, 76, 32
30, 24239, Note_on_c, 12, 76, 0
30, 24450, Note_on_c, 12, 76, 32
30, 24475, Note_on_c, 12, 76, 0
30, 24480, Note_on_c, 12, 69, 32
30, 24719, Note_on_c, 12, 69, 0
30, 33360, Program_c, 12, 45
30, 33600, Note_on_c, 12, 76, 40
30, 33839, Note_on_c, 12, 76, 0
30, 34320, Note_on_c, 12, 69, 40
30, 34559, Note_on_c, 12, 69, 0
30, 36480, Note_on_c, 12, 72, 40
30, 36719, Note_on_c, 12, 72, 0
30, 37200, Note_on_c, 12, 65, 40
30, 37439, Note_on_c, 12, 65, 0
30, 110640, Program_c, 12, 48
30, 111600, Note_on_c, 12, 78, 38
30, 112079, Note_on_c, 12, 78, 0
30, 112080, Note_on_c, 12, 79, 38
30, 112319, Note_on_c, 12, 79, 0
30, 112320, Note_on_c, 12, 81, 38
30, 112544, Note_on_c, 12, 81, 0
30, 112560, Note_on_c, 12, 81, 38
30, 112799, Note_on_c, 12, 81, 0
30, 112800, Note_on_c, 12, 79, 38
30, 113039, Note_on_c, 12, 79, 0
30, 113040, Note_on_c, 12, 78, 38
30, 113279, Note_on_c, 12, 78, 0
30, 113280, Note_on_c, 12, 76, 38
30, 113504, Note_on_c, 12, 76, 0
30, 113520, Note_on_c, 12, 74, 38
30, 113999, Note_on_c, 12, 74, 0
30, 114000, Note_on_c, 12, 76, 38
30, 114239, Note_on_c, 12, 76, 0
30, 114240, Note_on_c, 12, 78, 38
30, 114464, Note_on_c, 12, 78, 0
30, 114480, Note_on_c, 12, 78, 38
30, 114839, Note_on_c, 12, 78, 0
30, 114840, Note_on_c, 12, 76, 38
30, 114944, Note_on_c, 12, 76, 0
30, 114960, Note_on_c, 12, 76, 38
30, 115424, Note_on_c, 12, 76, 0
30, 115440, Note_on_c, 12, 78, 38
30, 115919, Note_on_c, 12, 78, 0
30, 115920, Note_on_c, 12, 79, 38
30, 116159, Note_on_c, 12, 79, 0
30, 116160, Note_on_c, 12, 81, 38
30, 116384, Note_on_c, 12, 81, 0
30, 116400, Note_on_c, 12, 81, 38
30, 116639, Note_on_c, 12, 81, 0
30, 116640, Note_on_c, 12, 79, 38
30, 116879, Note_on_c, 12, 79, 0
30, 116880, Note_on_c, 12, 78, 38
30, 117119, Note_on_c, 12, 78, 0
30, 117120, Note_on_c, 12, 76, 38
30, 117344, Note_on_c, 12, 76, 0
30, 117360, Note_on_c, 12, 74, 38
30, 117839, Note_on_c, 12, 74, 0
30, 117840, Note_on_c, 12, 76, 38
30, 118079, Note_on_c, 12, 76, 0
30, 118080, Note_on_c, 12, 78, 38
30, 118304, Note_on_c, 12, 78, 0
30, 118320, Note_on_c, 12, 76, 38
30, 118679, Note_on_c, 12, 76, 0
30, 118680, Note_on_c, 12, 74, 38
30, 118784, Note_on_c, 12, 74, 0
30, 118800, Note_on_c, 12, 74, 38
30, 119264, Note_on_c, 12, 74, 0
30, 119278, Control_c, 12, 11, 87
30, 119280, Note_on_c, 12, 76, 68
30, 119759, Note_on_c, 12, 76, 0
30, 119760, Note_on_c, 12, 78, 68
30, 119999, Note_on_c, 12, 78, 0
30, 120000, Note_on_c, 12, 74, 68
30, 120224, Note_on_c, 12, 74, 0
30, 120240, Note_on_c, 12, 76, 68
30, 120479, Note_on_c, 12, 76, 0
30, 120480, Note_on_c, 12, 78, 68
30, 120599, Note_on_c, 12, 78, 0
30, 120600, Note_on_c, 12, 79, 68
30, 120719, Note_on_c, 12, 79, 0
30, 120720, Note_on_c, 12, 78, 68
30, 120959, Note_on_c, 12, 78, 0
30, 120960, Note_on_c, 12, 74, 68
30, 121184, Note_on_c, 12, 74, 0
30, 121200, Note_on_c, 12, 76, 68
30, 121439, Note_on_c, 12, 76, 0
30, 121440, Note_on_c, 12, 78, 68
30, 121559, Note_on_c, 12, 78, 0
30, 121560, Note_on_c, 12, 79, 68
30, 121679, Note_on_c, 12, 79, 0
30, 121680, Note_on_c, 12, 78, 68
30, 121919, Note_on_c, 12, 78, 0
30, 121920, Note_on_c, 12, 76, 68
30, 122144, Note_on_c, 12, 76, 0
30, 122160, Note_on_c, 12, 74, 68
30, 122160, Control_c, 12, 11, 87
30, 122200, Control_c, 12, 11, 89
30, 122240, Control_c, 12, 11, 90
30, 122280, Control_c, 12, 11, 92
30, 122320, Control_c, 12, 11, 94
30, 122360, Control_c, 12, 11, 95
30, 122399, Note_on_c, 12, 74, 0
30, 122400, Control_c, 12, 11, 97
30, 122400, Note_on_c, 12, 76, 68
30, 122440, Control_c, 12, 11, 99
30, 122480, Control_c, 12, 11, 100
30, 122520, Control_c, 12, 11, 102
30, 122560, Control_c, 12, 11, 104
30, 122600, Control_c, 12, 11, 105
30, 122639, Note_on_c, 12, 76, 0
30, 122640, Note_on_c, 12, 69, 68
30, 122640, Control_c, 12, 11, 107
30, 122680, Control_c, 12, 11, 109
30, 122720, Control_c, 12, 11, 110
30, 122760, Control_c, 12, 11, 112
30, 122800, Control_c, 12, 11, 114
30, 122840, Control_c, 12, 11, 115
30, 122864, Note_on_c, 12, 69, 0
30, 122880, Note_on_c, 12, 78, 68
30, 122880, Control_c, 12, 11, 117
30, 122920, Control_c, 12, 11, 119
30, 122960, Control_c, 12, 11, 120
30, 123000, Control_c, 12, 11, 122
30, 123040, Control_c, 12, 11, 124
30, 123080, Control_c, 12, 11, 125
30, 123118, Control_c, 12, 11, 127
30, 123119, Note_on_c, 12, 78, 0
30, 123120, Note_on_c, 12, 78, 44
30, 123344, Note_on_c, 12, 78, 0
30, 123360, Note_on_c, 12, 78, 44
30, 123599, Note_on_c, 12, 78, 0
30, 123600, Note_on_c, 12, 79, 44
30, 123839, Note_on_c, 12, 79, 0
30, 123840, Note_on_c, 12, 81, 44
30, 124064, Note_on_c, 12, 81, 0
30, 124080, Note_on_c, 12, 81, 44
30, 124319, Note_on_c, 12, 81, 0
30, 124320, Note_on_c, 12, 79, 44
30, 124559, Note_on_c, 12, 79, 0
30, 124560, Note_on_c, 12, 78, 44
30, 124799, Note_on_c, 12, 78, 0
30, 124800, Note_on_c, 12, 76, 44
30, 125024, Note_on_c, 12, 76, 0
30, 125040, Note_on_c, 12, 74, 44
30, 125519, Note_on_c, 12, 74, 0
30, 125520, Note_on_c, 12, 76, 44
30, 125759, Note_on_c, 12, 76, 0
30, 125760, Note_on_c, 12, 78, 44
30, 125984, Note_on_c, 12, 78, 0
30, 126000, Note_on_c, 12, 76, 44
30, 126359, Note_on_c, 12, 76, 0
30, 126360, Note_on_c, 12, 74, 44
30, 126464, Note_on_c, 12, 74, 0
30, 126480, Note_on_c, 12, 74, 44
30, 126944, Note_on_c, 12, 74, 0
30, 126958, Control_c, 12, 11, 67
30, 126960, Note_on_c, 12, 76, 80
30, 126960, Control_c, 12, 11, 67
30, 127088, Control_c, 12, 11, 68
30, 127216, Control_c, 12, 11, 69
30, 127344, Control_c, 12, 11, 70
30, 127439, Note_on_c, 12, 76, 0
30, 127440, Note_on_c, 12, 78, 80
30, 127472, Control_c, 12, 11, 71
30, 127600, Control_c, 12, 11, 72
30, 127679, Note_on_c, 12, 78, 0
30, 127680, Note_on_c, 12, 74, 80
30, 127728, Control_c, 12, 11, 73
30, 127856, Control_c, 12, 11, 74
30, 127904, Note_on_c, 12, 74, 0
30, 127920, Note_on_c, 12, 76, 80
30, 127984, Control_c, 12, 11, 75
30, 128112, Control_c, 12, 11, 76
30, 128159, Note_on_c, 12, 76, 0
30, 128160, Note_on_c, 12, 78, 80
30, 128240, Control_c, 12, 11, 77
30, 128279, Note_on_c, 12, 78, 0
30, 128280, Note_on_c, 12, 79, 80
30, 128368, Control_c, 12, 11, 78
30, 128399, Note_on_c, 12, 79, 0
30, 128400, Note_on_c, 12, 78, 80
30, 128496, Control_c, 12, 11, 79
30, 128624, Control_c, 12, 11, 80
30, 128639, Note_on_c, 12, 78, 0
30, 128640, Note_on_c, 12, 74, 80
30, 128752, Control_c, 12, 11, 81
30, 128864, Note_on_c, 12, 74, 0
30, 128880, Control_c, 12, 11, 82
30, 128880, Note_on_c, 12, 76, 80
30, 129008, Control_c, 12, 11, 83
30, 129119, Note_on_c, 12, 76, 0
30, 129120, Note_on_c, 12, 78, 80
30, 129136, Control_c, 12, 11, 84
30, 129239, Note_on_c, 12, 78, 0
30, 129240, Note_on_c, 12, 79, 80
30, 129264, Control_c, 12, 11, 85
30, 129359, Note_on_c, 12, 79, 0
30, 129360, Note_on_c, 12, 78, 80
30, 129392, Control_c, 12, 11, 86
30, 129520, Control_c, 12, 11, 87
30, 129599, Note_on_c, 12, 78, 0
30, 129600, Note_on_c, 12, 76, 80
30, 129648, Control_c, 12, 11, 88
30, 129776, Control_c, 12, 11, 89
30, 129824, Note_on_c, 12, 76, 0
30, 129840, Note_on_c, 12, 74, 80
30, 129904, Control_c, 12, 11, 90
30, 130032, Control_c, 12, 11, 91
30, 130079, Note_on_c, 12, 74, 0
30, 130080, Note_on_c, 12, 76, 80
30, 130160, Control_c, 12, 11, 92
30, 130288, Control_c, 12, 11, 93
30, 130319, Note_on_c, 12, 76, 0
30, 130320, Note_on_c, 12, 69, 80
30, 130416, Control_c, 12, 11, 94
30, 130544, Note_on_c, 12, 69, 0
30, 130544, Control_c, 12, 11, 95
30, 130560, Note_on_c, 12, 78, 80
30, 130672, Control_c, 12, 11, 96
30, 130800, Control_c, 12, 11, 97
30, 130928, Control_c, 12, 11, 98
30, 131024, Note_on_c, 12, 78, 0
30, 131040, Note_on_c, 12, 78, 80
30, 131056, Control_c, 12, 11, 99
30, 131184, Control_c, 12, 11, 100
30, 131279, Note_on_c, 12, 78, 0
30, 131280, Note_on_c, 12, 79, 80
30, 131312, Control_c, 12, 11, 101
30, 131440, Control_c, 12, 11, 102
30, 131519, Note_on_c, 12, 79, 0
30, 131520, Note_on_c, 12, 81, 80
30, 131568, Control_c, 12, 11, 103
30, 131696, Control_c, 12, 11, 104
30, 131744, Note_on_c, 12, 81, 0
30, 131760, Note_on_c, 12, 81, 80
30, 131824, Control_c, 12, 11, 105
30, 131952, Control_c, 12, 11, 106
30, 131999, Note_on_c, 12, 81, 0
30, 132000, Note_on_c, 12, 79, 80
30, 132080, Control_c, 12, 11, 107
30, 132208, Control_c, 12, 11, 108
30, 132239, Note_on_c, 12, 79, 0
30, 132240, Note_on_c, 12, 78, 80
30, 132336, Control_c, 12, 11, 109
30, 132464, Control_c, 12, 11, 110
30, 132479, Note_on_c, 12, 78, 0
30, 132480, Note_on_c, 12, 76, 80
30, 132592, Control_c, 12, 11, 111
30, 132704, Note_on_c, 12, 76, 0
30, 132720, Note_on_c, 12, 74, 80
30, 132720, Control_c, 12, 11, 112
30, 132848, Control_c, 12, 11, 113
30, 132976, Control_c, 12, 11, 114
30, 133104, Control_c, 12, 11, 115
30, 133199, Note_on_c, 12, 74, 0
30, 133200, Note_on_c, 12, 76, 80
30, 133232, Control_c, 12, 11, 116
30, 133360, Control_c, 12, 11, 117
30, 133439, Note_on_c, 12, 76, 0
30, 133440, Note_on_c, 12, 78, 80
30, 133488, Control_c, 12, 11, 118
30, 133616, Control_c, 12, 11, 119
30, 133664, Note_on_c, 12, 78, 0
30, 133680, Note_on_c, 12, 76, 80
30, 133744, Control_c, 12, 11, 120
30, 133872, Control_c, 12, 11, 121
30, 134000, Control_c, 12, 11, 122
30, 134039, Note_on_c, 12, 76, 0
30, 134040, Note_on_c, 12, 74, 80
30, 134128, Control_c, 12, 11, 123
30, 134144, Note_on_c, 12, 74, 0
30, 134160, Note_on_c, 12, 74, 80
30, 134256, Control_c, 12, 11, 124
30, 134384, Control_c, 12, 11, 125
30, 134512, Control_c, 12, 11, 127
30, 134624, Note_on_c, 12, 74, 0
30, 134640, Note_on_c, 12, 69, 80
30, 134640, Note_on_c, 12, 62, 80
30, 134640, Note_on_c, 12, 78, 80
30, 134879, Note_on_c, 12, 69, 0
30, 134879, Note_on_c, 12, 62, 0
30, 134879, Note_on_c, 12, 78, 0
30, 135000, Note_on_c, 12, 62, 80
30, 135104, Note_on_c, 12, 62, 0
30, 135120, Note_on_c, 12, 74, 80
30, 135359, Note_on_c, 12, 74, 0
30, 135480, Note_on_c, 12, 62, 80
30, 135584, Note_on_c, 12, 62, 0
30, 135600, Note_on_c, 12, 81, 80
30, 135600, Note_on_c, 12, 69, 80
30, 135839, Note_on_c, 12, 81, 0
30, 135839, Note_on_c, 12, 69, 0
30, 135960, Note_on_c, 12, 57, 80
30, 136064, Note_on_c, 12, 57, 0
30, 136080, Note_on_c, 12, 69, 80
30, 136319, Note_on_c, 12, 69, 0
30, 136440, Note_on_c, 12, 57, 80
30, 136544, Note_on_c, 12, 57, 0
30, 136560, Note_on_c, 12, 62, 80
30, 136560, Note_on_c, 12, 69, 80
30, 136560, Note_on_c, 12, 78, 80
30, 136799, Note_on_c, 12, 62, 0
30, 136799, Note_on_c, 12, 69, 0
30, 136799, Note_on_c, 12, 78, 0
30, 137280, Note_on_c, 12, 69, 80
30, 137280, Note_on_c, 12, 62, 80
30, 137280, Note_on_c, 12, 78, 80
30, 137504, Note_on_c, 12, 69, 0
30, 137504, Note_on_c, 12, 62, 0
30, 137504, Note_on_c, 12, 78, 0
30, 137520, Note_on_c, 12, 78, 80
30, 137520, Note_on_c, 12, 62, 80
30, 137520, Note_on_c, 12, 69, 80
30, 137759, Note_on_c, 12, 78, 0
30, 137759, Note_on_c, 12, 62, 0
30, 137759, Note_on_c, 12, 69, 0
30, 138000, Note_on_c, 12, 73, 80
30, 138000, Note_on_c, 12, 69, 80
30, 138000, Note_on_c, 12, 76, 80
30, 138239, Note_on_c, 12, 73, 0
30, 138239, Note_on_c, 12, 69, 0
30, 138239, Note_on_c, 12, 76, 0
30, 138480, Note_on_c, 12, 62, 80
30, 138480, Note_on_c, 12, 86, 80
30, 138480, Note_on_c, 12, 74, 80
30, 138719, Note_on_c, 12, 62, 0
30, 138719, Note_on_c, 12, 86, 0
30, 138719, Note_on_c, 12, 74, 0
30, 138840, Note_on_c, 12, 62, 80
30, 138944, Note_on_c, 12, 62, 0
30, 138960, Note_on_c, 12, 74, 80
30, 139199, Note_on_c, 12, 74, 0
30, 139320, Note_on_c, 12, 62, 80
30, 139424, Note_on_c, 12, 62, 0
30, 139440, Note_on_c, 12, 81, 80
30, 139440, Note_on_c, 12, 69, 80
30, 139679, Note_on_c, 12, 81, 0
30, 139679, Note_on_c, 12, 69, 0
30, 139800, Note_on_c, 12, 57, 80
30, 139904, Note_on_c, 12, 57, 0
30, 139920, Note_on_c, 12, 69, 80
30, 140159, Note_on_c, 12, 69, 0
30, 140280, Note_on_c, 12, 57, 80
30, 140384, Note_on_c, 12, 57, 0
30, 140400, Note_on_c, 12, 62, 80
30, 140400, Note_on_c, 12, 69, 80
30, 140400, Note_on_c, 12, 78, 80
30, 140639, Note_on_c, 12, 62, 0
30, 140639, Note_on_c, 12, 69, 0
30, 140639, Note_on_c, 12, 78, 0
30, 141120, Note_on_c, 12, 62, 80
30, 141120, Note_on_c, 12, 69, 80
30, 141120, Note_on_c, 12, 78, 80
30, 141344, Note_on_c, 12, 62, 0
30, 141344, Note_on_c, 12, 69, 0
30, 141344, Note_on_c, 12, 78, 0
30, 141360, Note_on_c, 12, 73, 80
30, 141360, Note_on_c, 12, 69, 80
30, 141360, Note_on_c, 12, 76, 80
30, 141599, Note_on_c, 12, 73, 0
30, 141599, Note_on_c, 12, 69, 0
30, 141599, Note_on_c, 12, 76, 0
30, 141840, Note_on_c, 12, 66, 80
30, 141840, Note_on_c, 12, 74, 80
30, 141840, Note_on_c, 12, 57, 80
30, 142079, Note_on_c, 12, 66, 0
30, 142079, Note_on_c, 12, 74, 0
30, 142079, Note_on_c, 12, 57, 0
30, 142320, Note_on_c, 12, 57, 80
30, 142320, Note_on_c, 12, 64, 80
30, 142320, Note_on_c, 12, 76, 80
30, 142320, Note_on_c, 12, 69, 80
30, 142559, Note_on_c, 12, 57, 0
30, 142559, Note_on_c, 12, 64, 0
30, 142559, Note_on_c, 12, 76, 0
30, 142559, Note_on_c, 12, 69, 0
30, 142680, Note_on_c, 12, 57, 80
30, 142784, Note_on_c, 12, 57, 0
30, 142800, Note_on_c, 12, 69, 80
30, 143024, Note_on_c, 12, 69, 0
30, 143040, Note_on_c, 12, 66, 80
30, 143040, Note_on_c, 12, 74, 80
30, 143040, Note_on_c, 12, 57, 80
30, 143264, Note_on_c, 12, 66, 0
30, 143264, Note_on_c, 12, 74, 0
30, 143264, Note_on_c, 12, 57, 0
30, 143280, Note_on_c, 12, 69, 80
30, 143280, Note_on_c, 12, 76, 80
30, 143280, Note_on_c, 12, 57, 80
30, 143280, Note_on_c, 12, 64, 80
30, 143519, Note_on_c, 12, 69, 0
30, 143519, Note_on_c, 12, 76, 0
30, 143519, Note_on_c, 12, 57, 0
30, 143519, Note_on_c, 12, 64, 0
30, 143640, Note_on_c, 12, 57, 80
30, 143744, Note_on_c, 12, 57, 0
30, 143760, Note_on_c, 12, 69, 80
30, 143984, Note_on_c, 12, 69, 0
30, 144000, Note_on_c, 12, 74, 80
30, 144000, Note_on_c, 12, 57, 80
30, 144000, Note_on_c, 12, 66, 80
30, 144224, Note_on_c, 12, 74, 0
30, 144224, Note_on_c, 12, 57, 0
30, 144224, Note_on_c, 12, 66, 0
30, 144240, Note_on_c, 12, 76, 80
30, 144240, Note_on_c, 12, 73, 80
30, 144479, Note_on_c, 12, 76, 0
30, 144479, Note_on_c, 12, 73, 0
30, 144600, Note_on_c, 12, 57, 80
30, 144704, Note_on_c, 12, 57, 0
30, 144720, Note_on_c, 12, 78, 80
30, 144720, Note_on_c, 12, 73, 80
30, 144839, Note_on_c, 12, 78, 0
30, 144839, Note_on_c, 12, 73, 0
30, 144960, Note_on_c, 12, 76, 80
30, 144960, Note_on_c, 12, 73, 80
30, 145079, Note_on_c, 12, 76, 0
30, 145079, Note_on_c, 12, 73, 0
30, 145200, Note_on_c, 12, 62, 80
30, 145200, Note_on_c, 12, 74, 80
30, 145319, Note_on_c, 12, 62, 0
30, 145319, Note_on_c, 12, 74, 0
30, 145440, Note_on_c, 12, 64, 80
30, 145440, Note_on_c, 12, 76, 80
30, 145559, Note_on_c, 12, 64, 0
30, 145559, Note_on_c, 12, 76, 0
30, 145680, Note_on_c, 12, 69, 80
30, 145799, Note_on_c, 12, 69, 0
30, 145920, Note_on_c, 12, 62, 80
30, 145920, Note_on_c, 12, 78, 80
30, 145920, Note_on_c, 12, 69, 80
30, 146039, Note_on_c, 12, 62, 0
30, 146039, Note_on_c, 12, 78, 0
30, 146039, Note_on_c, 12, 69, 0
30, 146160, Note_on_c, 12, 69, 80
30, 146160, Note_on_c, 12, 78, 80
30, 146160, Note_on_c, 12, 62, 80
30, 146399, Note_on_c, 12, 69, 0
30, 146399, Note_on_c, 12, 78, 0
30, 146399, Note_on_c, 12, 62, 0
30, 146520, Note_on_c, 12, 62, 80
30, 146624, Note_on_c, 12, 62, 0
30, 146640, Note_on_c, 12, 74, 80
30, 146879, Note_on_c, 12, 74, 0
30, 147000, Note_on_c, 12, 62, 80
30, 147104, Note_on_c, 12, 62, 0
30, 147120, Note_on_c, 12, 69, 80
30, 147120, Note_on_c, 12, 81, 80
30, 147359, Note_on_c, 12, 69, 0
30, 147359, Note_on_c, 12, 81, 0
30, 147480, Note_on_c, 12, 57, 80
30, 147584, Note_on_c, 12, 57, 0
30, 147600, Note_on_c, 12, 69, 80
30, 147839, Note_on_c, 12, 69, 0
30, 147960, Note_on_c, 12, 57, 80
30, 148064, Note_on_c, 12, 57, 0
30, 148080, Note_on_c, 12, 57, 80
30, 148080, Note_on_c, 12, 66, 80
30, 148080, Note_on_c, 12, 74, 80
30, 148319, Note_on_c, 12, 57, 0
30, 148319, Note_on_c, 12, 66, 0
30, 148319, Note_on_c, 12, 74, 0
30, 148800, Note_on_c, 12, 69, 80
30, 148800, Note_on_c, 12, 78, 80
30, 148800, Note_on_c, 12, 62, 80
30, 149024, Note_on_c, 12, 69, 0
30, 149024, Note_on_c, 12, 78, 0
30, 149024, Note_on_c, 12, 62, 0
30, 149040, Note_on_c, 12, 57, 80
30, 149040, Note_on_c, 12, 69, 80
30, 149040, Note_on_c, 12, 76, 80
30, 149040, Note_on_c, 12, 64, 80
30, 149279, Note_on_c, 12, 57, 0
30, 149279, Note_on_c, 12, 69, 0
30, 149279, Note_on_c, 12, 76, 0
30, 149279, Note_on_c, 12, 64, 0
30, 149520, Note_on_c, 12, 74, 80
30, 149520, Note_on_c, 12, 66, 80
30, 149520, Note_on_c, 12, 57, 80
30, 149759, Note_on_c, 12, 74, 0
30, 149759, Note_on_c, 12, 66, 0
30, 149759, Note_on_c, 12, 57, 0
30, 150000, Note_on_c, 12, 69, 80
30, 150000, Note_on_c, 12, 76, 80
30, 150000, Note_on_c, 12, 64, 80
30, 150000, Note_on_c, 12, 57, 80
30, 150239, Note_on_c, 12, 69, 0
30, 150239, Note_on_c, 12, 76, 0
30, 150239, Note_on_c, 12, 64, 0
30, 150239, Note_on_c, 12, 57, 0
30, 150360, Note_on_c, 12, 57, 80
30, 150464, Note_on_c, 12, 57, 0
30, 150480, Note_on_c, 12, 69, 80
30, 150704, Note_on_c, 12, 69, 0
30, 150720, Note_on_c, 12, 57, 80
30, 150720, Note_on_c, 12, 74, 80
30, 150720, Note_on_c, 12, 66, 80
30, 150944, Note_on_c, 12, 57, 0
30, 150944, Note_on_c, 12, 74, 0
30, 150944, Note_on_c, 12, 66, 0
30, 150960, Note_on_c, 12, 76, 80
30, 150960, Note_on_c, 12, 57, 80
30, 150960, Note_on_c, 12, 69, 80
30, 150960, Note_on_c, 12, 64, 80
30, 151199, Note_on_c, 12, 76, 0
30, 151199, Note_on_c, 12, 57, 0
30, 151199, Note_on_c, 12, 69, 0
30, 151199, Note_on_c, 12, 64, 0
30, 151320, Note_on_c, 12, 57, 80
30, 151424, Note_on_c, 12, 57, 0
30, 151440, Note_on_c, 12, 69, 80
30, 151664, Note_on_c, 12, 69, 0
30, 151680, Note_on_c, 12, 66, 80
30, 151680, Note_on_c, 12, 57, 80
30, 151680, Note_on_c, 12, 74, 80
30, 151904, Note_on_c, 12, 66, 0
30, 151904, Note_on_c, 12, 57, 0
30, 151904, Note_on_c, 12, 74, 0
30, 151920, Note_on_c, 12, 73, 80
30, 151920, Note_on_c, 12, 76, 80
30, 152159, Note_on_c, 12, 73, 0
30, 152159, Note_on_c, 12, 76, 0
30, 152280, Note_on_c, 12, 57, 80
30, 152384, Note_on_c, 12, 57, 0
30, 152400, Note_on_c, 12, 73, 80
30, 152400, Note_on_c, 12, 78, 80
30, 152519, Note_on_c, 12, 73, 0
30, 152519, Note_on_c, 12, 78, 0
30, 152640, Note_on_c, 12, 73, 80
30, 152640, Note_on_c, 12, 76, 80
30, 152759, Note_on_c, 12, 73, 0
30, 152759, Note_on_c, 12, 76, 0
30, 152880, Note_on_c, 12, 62, 80
30, 152880, Note_on_c, 12, 74, 80
30, 152999, Note_on_c, 12, 62, 0
30, 152999, Note_on_c, 12, 74, 0
30, 153120, Note_on_c, 12, 76, 80
30, 153120, Note_on_c, 12, 64, 80
30, 153239, Note_on_c, 12, 76, 0
30, 153239, Note_on_c, 12, 64, 0
30, 153360, Note_on_c, 12, 69, 80
30, 153479, Note_on_c, 12, 69, 0
30, 153600, Note_on_c, 12, 62, 80
30, 153600, Note_on_c, 12, 69, 80
30, 153600, Note_on_c, 12, 78, 80
30, 153719, Note_on_c, 12, 62, 0
30, 153719, Note_on_c, 12, 69, 0
30, 153719, Note_on_c, 12, 78, 0
30, 153840, Note_on_c, 12, 78, 80
30, 153840, Note_on_c, 12, 69, 80
30, 153840, Note_on_c, 12, 62, 80
30, 154079, Note_on_c, 12, 78, 0
30, 154079, Note_on_c, 12, 69, 0
30, 154079, Note_on_c, 12, 62, 0
30, 154200, Note_on_c, 12, 62, 80
30, 154304, Note_on_c, 12, 62, 0
30, 154320, Note_on_c, 12, 74, 80
30, 154559, Note_on_c, 12, 74, 0
30, 154680, Note_on_c, 12, 62, 80
30, 154784, Note_on_c, 12, 62, 0
30, 154800, Note_on_c, 12, 81, 80
30, 154800, Note_on_c, 12, 69, 80
30, 155039, Note_on_c, 12, 81, 0
30, 155039, Note_on_c, 12, 69, 0
30, 155160, Note_on_c, 12, 57, 80
30, 155264, Note_on_c, 12, 57, 0
30, 155280, Note_on_c, 12, 69, 80
30, 155519, Note_on_c, 12, 69, 0
30, 155640, Note_on_c, 12, 57, 80
30, 155744, Note_on_c, 12, 57, 0
30, 155760, Note_on_c, 12, 66, 80
30, 155760, Note_on_c, 12, 57, 80
30, 155760, Note_on_c, 12, 74, 80
30, 155999, Note_on_c, 12, 66, 0
30, 155999, Note_on_c, 12, 57, 0
30, 155999, Note_on_c, 12, 74, 0
30, 156480, Note_on_c, 12, 78, 80
30, 156480, Note_on_c, 12, 62, 80
30, 156480, Note_on_c, 12, 69, 80
30, 156704, Note_on_c, 12, 78, 0
30, 156704, Note_on_c, 12, 62, 0
30, 156704, Note_on_c, 12, 69, 0
30, 156720, Note_on_c, 12, 69, 80
30, 156720, Note_on_c, 12, 57, 80
30, 156720, Note_on_c, 12, 76, 80
30, 156720, Note_on_c, 12, 64, 80
30, 156959, Note_on_c, 12, 69, 0
30, 156959, Note_on_c, 12, 57, 0
30, 156959, Note_on_c, 12, 76, 0
30, 156959, Note_on_c, 12, 64, 0
30, 157200, Note_on_c, 12, 57, 80
30, 157200, Note_on_c, 12, 74, 80
30, 157200, Note_on_c, 12, 66, 80
30, 157424, Note_on_c, 12, 57, 0
30, 157424, Note_on_c, 12, 74, 0
30, 157424, Note_on_c, 12, 66, 0
30, 157440, Note_on_c, 12, 81, 80
30, 157664, Note_on_c, 12, 81, 0
30, 157680, Note_on_c, 12, 79, 80
30, 158039, Note_on_c, 12, 79, 0
30, 158040, Note_on_c, 12, 78, 80
30, 158144, Note_on_c, 12, 78, 0
30, 158160, Note_on_c, 12, 78, 80
30, 158384, Note_on_c, 12, 78, 0
30, 158400, Note_on_c, 12, 86, 80
30, 158639, Note_on_c, 12, 86, 0
30, 158640, Note_on_c, 12, 84, 80
30, 158999, Note_on_c, 12, 84, 0
30, 159000, Note_on_c, 12, 83, 80
30, 159104, Note_on_c, 12, 83, 0
30, 159120, Note_on_c, 12, 83, 80
30, 159344, Note_on_c, 12, 83, 0
30, 159360, Note_on_c, 12, 86, 80
30, 159419, Note_on_c, 12, 86, 0
30, 159420, Note_on_c, 12, 83, 80
30, 159479, Note_on_c, 12, 83, 0
30, 159600, Note_on_c, 12, 81, 80
30, 159659, Note_on_c, 12, 81, 0
30, 159660, Note_on_c, 12, 79, 80
30, 159719, Note_on_c, 12, 79, 0
30, 159840, Note_on_c, 12, 83, 80
30, 159899, Note_on_c, 12, 83, 0
30, 159900, Note_on_c, 12, 76, 80
30, 159959, Note_on_c, 12, 76, 0
30, 160080, Note_on_c, 12, 79, 80
30, 160139, Note_on_c, 12, 79, 0
30, 160140, Note_on_c, 12, 73, 80
30, 160199, Note_on_c, 12, 73, 0
30, 160320, Note_on_c, 12, 76, 80
30, 160379, Note_on_c, 12, 76, 0
30, 160380, Note_on_c, 12, 67, 80
30, 160439, Note_on_c, 12, 67, 0
30, 160560, Note_on_c, 12, 67, 80
30, 160619, Note_on_c, 12, 67, 0
30, 160620, Note_on_c, 12, 66, 80
30, 160679, Note_on_c, 12, 66, 0
30, 160800, Note_on_c, 12, 74, 80
30, 160859, Note_on_c, 12, 74, 0
30, 160860, Note_on_c, 12, 69, 80
30, 160919, Note_on_c, 12, 69, 0
30, 161040, Note_on_c, 12, 81, 80
30, 161099, Note_on_c, 12, 81, 0
30, 161100, Note_on_c, 12, 78, 80
30, 161159, Note_on_c, 12, 78, 0
30, 161280, Note_on_c, 12, 86, 80
30, 161339, Note_on_c, 12, 86, 0
30, 161340, Note_on_c, 12, 81, 80
30, 161399, Note_on_c, 12, 81, 0
30, 161520, Note_on_c, 12, 81, 80
30, 161579, Note_on_c, 12, 81, 0
30, 161580, Note_on_c, 12, 79, 80
30, 161639, Note_on_c, 12, 79, 0
30, 161760, Note_on_c, 12, 83, 80
30, 161819, Note_on_c, 12, 83, 0
30, 161820, Note_on_c, 12, 76, 80
30, 161879, Note_on_c, 12, 76, 0
30, 162000, Note_on_c, 12, 79, 80
30, 162059, Note_on_c, 12, 79, 0
30, 162060, Note_on_c, 12, 73, 80
30, 162119, Note_on_c, 12, 73, 0
30, 162240, Note_on_c, 12, 76, 80
30, 162299, Note_on_c, 12, 76, 0
30, 162300, Note_on_c, 12, 67, 80
30, 162359, Note_on_c, 12, 67, 0
30, 162480, Note_on_c, 12, 76, 80
30, 162539, Note_on_c, 12, 76, 0
30, 162540, Note_on_c, 12, 73, 80
30, 162599, Note_on_c, 12, 73, 0
30, 162720, Note_on_c, 12, 76, 80
30, 162779, Note_on_c, 12, 76, 0
30, 162780, Note_on_c, 12, 66, 80
30, 162839, Note_on_c, 12, 66, 0
30, 162960, Note_on_c, 12, 74, 80
30, 163019, Note_on_c, 12, 74, 0
30, 163020, Note_on_c, 12, 71, 80
30, 163079, Note_on_c, 12, 71, 0
30, 163200, Note_on_c, 12, 74, 80
30, 163259, Note_on_c, 12, 74, 0
30, 163260, Note_on_c, 12, 66, 80
30, 163319, Note_on_c, 12, 66, 0
30, 163440, Note_on_c, 12, 78, 80
30, 163499, Note_on_c, 12, 78, 0
30, 163500, Note_on_c, 12, 75, 80
30, 163559, Note_on_c, 12, 75, 0
30, 163680, Note_on_c, 12, 78, 80
30, 163739, Note_on_c, 12, 78, 0
30, 163740, Note_on_c, 12, 69, 80
30, 163799, Note_on_c, 12, 69, 0
30, 163920, Note_on_c, 12, 77, 80
30, 163979, Note_on_c, 12, 77, 0
30, 163980, Note_on_c, 12, 73, 80
30, 164039, Note_on_c, 12, 73, 0
30, 164160, Note_on_c, 12, 77, 80
30, 164219, Note_on_c, 12, 77, 0
30, 164220, Note_on_c, 12, 68, 80
30, 164279, Note_on_c, 12, 68, 0
30, 164400, Note_on_c, 12, 79, 80
30, 164459, Note_on_c, 12, 79, 0
30, 164460, Note_on_c, 12, 76, 80
30, 164519, Note_on_c, 12, 76, 0
30, 164640, Note_on_c, 12, 79, 80
30, 164699, Note_on_c, 12, 79, 0
30, 164700, Note_on_c, 12, 70, 80
30, 164759, Note_on_c, 12, 70, 0
30, 164880, Note_on_c, 12, 78, 80
30, 164939, Note_on_c, 12, 78, 0
30, 164940, Note_on_c, 12, 71, 80
30, 164999, Note_on_c, 12, 71, 0
30, 165120, Note_on_c, 12, 83, 80
30, 165179, Note_on_c, 12, 83, 0
30, 165180, Note_on_c, 12, 78, 80
30, 165239, Note_on_c, 12, 78, 0
30, 165360, Note_on_c, 12, 83, 80
30, 165419, Note_on_c, 12, 83, 0
30, 165420, Note_on_c, 12, 80, 80
30, 165479, Note_on_c, 12, 80, 0
30, 165600, Note_on_c, 12, 85, 80
30, 165659, Note_on_c, 12, 85, 0
30, 165660, Note_on_c, 12, 80, 80
30, 165719, Note_on_c, 12, 80, 0
30, 165840, Note_on_c, 12, 85, 80
30, 165899, Note_on_c, 12, 85, 0
30, 165900, Note_on_c, 12, 81, 80
30, 165959, Note_on_c, 12, 81, 0
30, 166080, Note_on_c, 12, 86, 80
30, 166139, Note_on_c, 12, 86, 0
30, 166140, Note_on_c, 12, 81, 80
30, 166199, Note_on_c, 12, 81, 0
30, 166320, Note_on_c, 12, 86, 80
30, 166379, Note_on_c, 12, 86, 0
30, 166380, Note_on_c, 12, 83, 80
30, 166439, Note_on_c, 12, 83, 0
30, 166560, Note_on_c, 12, 86, 80
30, 166619, Note_on_c, 12, 86, 0
30, 166620, Note_on_c, 12, 83, 80
30, 166679, Note_on_c, 12, 83, 0
30, 166800, Note_on_c, 12, 86, 80
30, 166859, Note_on_c, 12, 86, 0
30, 166860, Note_on_c, 12, 83, 80
30, 166919, Note_on_c, 12, 83, 0
30, 167040, Note_on_c, 12, 86, 80
30, 167099, Note_on_c, 12, 86, 0
30, 167100, Note_on_c, 12, 83, 80
30, 167159, Note_on_c, 12, 83, 0
30, 167280, Note_on_c, 12, 88, 80
30, 167339, Note_on_c, 12, 88, 0
30, 167340, Note_on_c, 12, 83, 80
30, 167399, Note_on_c, 12, 83, 0
30, 167520, Note_on_c, 12, 88, 80
30, 167579, Note_on_c, 12, 88, 0
30, 167580, Note_on_c, 12, 83, 80
30, 167639, Note_on_c, 12, 83, 0
30, 167760, Note_on_c, 12, 88, 80
30, 167819, Note_on_c, 12, 88, 0
30, 167820, Note_on_c, 12, 83, 80
30, 167879, Note_on_c, 12, 83, 0
30, 168000, Note_on_c, 12, 88, 80
30, 168059, Note_on_c, 12, 88, 0
30, 168060, Note_on_c, 12, 83, 80
30, 168119, Note_on_c, 12, 83, 0
30, 168240, Note_on_c, 12, 88, 80
30, 168359, Note_on_c, 12, 88, 0
30, 168360, Note_on_c, 12, 86, 80
30, 168419, Note_on_c, 12, 86, 0
30, 168420, Note_on_c, 12, 85, 80
30, 168471, Note_on_c, 12, 85, 0
30, 168480, Note_on_c, 12, 83, 80
30, 168599, Note_on_c, 12, 83, 0
30, 168600, Note_on_c, 12, 81, 80
30, 168659, Note_on_c, 12, 81, 0
30, 168660, Note_on_c, 12, 79, 80
30, 168711, Note_on_c, 12, 79, 0
30, 168720, Note_on_c, 12, 78, 80
30, 168839, Note_on_c, 12, 78, 0
30, 168840, Note_on_c, 12, 79, 80
30, 168899, Note_on_c, 12, 79, 0
30, 168900, Note_on_c, 12, 81, 80
30, 168951, Note_on_c, 12, 81, 0
30, 168960, Note_on_c, 12, 83, 80
30, 169079, Note_on_c, 12, 83, 0
30, 169080, Note_on_c, 12, 85, 80
30, 169139, Note_on_c, 12, 85, 0
30, 169140, Note_on_c, 12, 86, 80
30, 169191, Note_on_c, 12, 86, 0
30, 169200, Note_on_c, 12, 76, 80
30, 169319, Note_on_c, 12, 76, 0
30, 169320, Note_on_c, 12, 78, 80
30, 169379, Note_on_c, 12, 78, 0
30, 169380, Note_on_c, 12, 80, 80
30, 169431, Note_on_c, 12, 80, 0
30, 169440, Note_on_c, 12, 81, 80
30, 169559, Note_on_c, 12, 81, 0
30, 169560, Note_on_c, 12, 83, 80
30, 169619, Note_on_c, 12, 83, 0
30, 169620, Note_on_c, 12, 85, 80
30, 169671, Note_on_c, 12, 85, 0
30, 169680, Note_on_c, 12, 86, 80
30, 169769, Note_on_c, 12, 86, 0
30, 169800, Note_on_c, 12, 87, 80
30, 169889, Note_on_c, 12, 87, 0
30, 169920, Note_on_c, 12, 88, 80
30, 170009, Note_on_c, 12, 88, 0
30, 170040, Note_on_c, 12, 80, 80
30, 170129, Note_on_c, 12, 80, 0
30, 170160, Note_on_c, 12, 81, 92
30, 170219, Note_on_c, 12, 81, 0
30, 170220, Note_on_c, 12, 81, 80
30, 170624, Note_on_c, 12, 81, 0
30, 170640, Note_on_c, 12, 76, 80
30, 170819, Note_on_c, 12, 76, 0
30, 170880, Note_on_c, 12, 76, 80
30, 171059, Note_on_c, 12, 76, 0
30, 171120, Note_on_c, 12, 69, 80
30, 171209, Note_on_c, 12, 69, 0
30, 171240, Note_on_c, 12, 69, 80
30, 171299, Note_on_c, 12, 69, 0
30, 171300, Note_on_c, 12, 71, 80
30, 171351, Note_on_c, 12, 71, 0
30, 171360, Note_on_c, 12, 73, 80
30, 171449, Note_on_c, 12, 73, 0
30, 171480, Note_on_c, 12, 73, 80
30, 171539, Note_on_c, 12, 73, 0
30, 171540, Note_on_c, 12, 74, 80
30, 171591, Note_on_c, 12, 74, 0
30, 171600, Note_on_c, 12, 76, 80
30, 171689, Note_on_c, 12, 76, 0
30, 171720, Note_on_c, 12, 76, 80
30, 171779, Note_on_c, 12, 76, 0
30, 171780, Note_on_c, 12, 78, 80
30, 171831, Note_on_c, 12, 78, 0
30, 171840, Note_on_c, 12, 80, 80
30, 171929, Note_on_c, 12, 80, 0
30, 171960, Note_on_c, 12, 76, 80
30, 171999, Note_on_c, 12, 76, 0
30, 172000, Note_on_c, 12, 78, 80
30, 172039, Note_on_c, 12, 78, 0
30, 172040, Note_on_c, 12, 80, 80
30, 172073, Note_on_c, 12, 80, 0
30, 172080, Note_on_c, 12, 76, 44
30, 172199, Note_on_c, 12, 76, 0
30, 172200, Note_on_c, 12, 73, 44
30, 172304, Note_on_c, 12, 73, 0
30, 172320, Note_on_c, 12, 69, 44
30, 172409, Note_on_c, 12, 69, 0
30, 172440, Note_on_c, 12, 71, 44
30, 172529, Note_on_c, 12, 71, 0
30, 172560, Note_on_c, 12, 73, 44
30, 172799, Note_on_c, 12, 73, 0
30, 172800, Note_on_c, 12, 71, 44
30, 173024, Note_on_c, 12, 71, 0
30, 173040, Note_on_c, 12, 78, 44
30, 173159, Note_on_c, 12, 78, 0
30, 173160, Note_on_c, 12, 74, 44
30, 173264, Note_on_c, 12, 74, 0
30, 173280, Note_on_c, 12, 71, 44
30, 173369, Note_on_c, 12, 71, 0
30, 173400, Note_on_c, 12, 73, 44
30, 173489, Note_on_c, 12, 73, 0
30, 173520, Note_on_c, 12, 74, 44
30, 173759, Note_on_c, 12, 74, 0
30, 173760, Note_on_c, 12, 73, 44
30, 173864, Note_on_c, 12, 73, 0
30, 173880, Note_on_c, 12, 70, 44
30, 174119, Note_on_c, 12, 70, 0
30, 174120, Note_on_c, 12, 66, 44
30, 174224, Note_on_c, 12, 66, 0
30, 174240, Note_on_c, 12, 63, 44
30, 174329, Note_on_c, 12, 63, 0
30, 174360, Note_on_c, 12, 65, 44
30, 174449, Note_on_c, 12, 65, 0
30, 174480, Note_on_c, 12, 66, 44
30, 174719, Note_on_c, 12, 66, 0
30, 174720, Note_on_c, 12, 65, 44
30, 174824, Note_on_c, 12, 65, 0
30, 174840, Note_on_c, 12, 76, 80
30, 174840, Note_on_c, 12, 64, 80
30, 174944, Note_on_c, 12, 76, 0
30, 174944, Note_on_c, 12, 64, 0
30, 174960, Note_on_c, 12, 88, 80
30, 175079, Note_on_c, 12, 88, 0
30, 175080, Note_on_c, 12, 85, 80
30, 175184, Note_on_c, 12, 85, 0
30, 175200, Note_on_c, 12, 81, 80
30, 175289, Note_on_c, 12, 81, 0
30, 175320, Note_on_c, 12, 83, 80
30, 175409, Note_on_c, 12, 83, 0
30, 175440, Note_on_c, 12, 85, 80
30, 175679, Note_on_c, 12, 85, 0
30, 175680, Note_on_c, 12, 83, 80
30, 175919, Note_on_c, 12, 83, 0
30, 176160, Note_on_c, 12, 74, 80
30, 176160, Note_on_c, 12, 64, 80
30, 176160, Note_on_c, 12, 83, 80
30, 176339, Note_on_c, 12, 74, 0
30, 176339, Note_on_c, 12, 64, 0
30, 176339, Note_on_c, 12, 83, 0
30, 176640, Note_on_c, 12, 73, 80
30, 176640, Note_on_c, 12, 81, 80
30, 176640, Note_on_c, 12, 64, 80
30, 176819, Note_on_c, 12, 73, 0
30, 176819, Note_on_c, 12, 81, 0
30, 176819, Note_on_c, 12, 64, 0
30, 177360, Note_on_c, 12, 82, 92
30, 177360, Note_on_c, 12, 70, 92
30, 177939, Note_on_c, 12, 82, 0
30, 177939, Note_on_c, 12, 70, 0
30, 177960, Note_on_c, 12, 69, 92
30, 177960, Note_on_c, 12, 81, 92
30, 178049, Note_on_c, 12, 69, 0
30, 178049, Note_on_c, 12, 81, 0
30, 178080, Note_on_c, 12, 69, 92
30, 178080, Note_on_c, 12, 81, 92
30, 178169, Note_on_c, 12, 69, 0
30, 178169, Note_on_c, 12, 81, 0
30, 178200, Note_on_c, 12, 86, 92
30, 178289, Note_on_c, 12, 86, 0
30, 178320, Note_on_c, 12, 86, 92
30, 178409, Note_on_c, 12, 86, 0
30, 178440, Note_on_c, 12, 77, 92
30, 178529, Note_on_c, 12, 77, 0
30, 178560, Note_on_c, 12, 77, 92
30, 178649, Note_on_c, 12, 77, 0
30, 178680, Note_on_c, 12, 81, 92
30, 178769, Note_on_c, 12, 81, 0
30, 178800, Note_on_c, 12, 81, 92
30, 178889, Note_on_c, 12, 81, 0
30, 178920, Note_on_c, 12, 74, 92
30, 179009, Note_on_c, 12, 74, 0
30, 179040, Note_on_c, 12, 74, 92
30, 179129, Note_on_c, 12, 74, 0
30, 179160, Note_on_c, 12, 77, 92
30, 179249, Note_on_c, 12, 77, 0
30, 179280, Note_on_c, 12, 77, 92
30, 179369, Note_on_c, 12, 77, 0
30, 179400, Note_on_c, 12, 69, 92
30, 179489, Note_on_c, 12, 69, 0
30, 179520, Note_on_c, 12, 69, 92
30, 179609, Note_on_c, 12, 69, 0
30, 179640, Note_on_c, 12, 74, 92
30, 179729, Note_on_c, 12, 74, 0
30, 179760, Note_on_c, 12, 74, 92
30, 179849, Note_on_c, 12, 74, 0
30, 179880, Note_on_c, 12, 65, 92
30, 179969, Note_on_c, 12, 65, 0
30, 180000, Note_on_c, 12, 65, 92
30, 180089, Note_on_c, 12, 65, 0
30, 180120, Note_on_c, 12, 69, 92
30, 180209, Note_on_c, 12, 69, 0
30, 180240, Note_on_c, 12, 69, 92
30, 180329, Note_on_c, 12, 69, 0
30, 180360, Note_on_c, 12, 62, 92
30, 180449, Note_on_c, 12, 62, 0
30, 180480, Note_on_c, 12, 62, 92
30, 180569, Note_on_c, 12, 62, 0
30, 180600, Note_on_c, 12, 77, 92
30, 180689, Note_on_c, 12, 77, 0
30, 180720, Note_on_c, 12, 77, 92
30, 180809, Note_on_c, 12, 77, 0
30, 180840, Note_on_c, 12, 78, 92
30, 180929, Note_on_c, 12, 78, 0
30, 180960, Note_on_c, 12, 78, 92
30, 181049, Note_on_c, 12, 78, 0
30, 181080, Note_on_c, 12, 79, 92
30, 181169, Note_on_c, 12, 79, 0
30, 181200, Note_on_c, 12, 79, 92
30, 181289, Note_on_c, 12, 79, 0
30, 181320, Note_on_c, 12, 80, 92
30, 181409, Note_on_c, 12, 80, 0
30, 181440, Note_on_c, 12, 80, 92
30, 181529, Note_on_c, 12, 80, 0
30, 181560, Note_on_c, 12, 74, 92
30, 181649, Note_on_c, 12, 74, 0
30, 181680, Note_on_c, 12, 74, 92
30, 181769, Note_on_c, 12, 74, 0
30, 181800, Note_on_c, 12, 77, 92
30, 181889, Note_on_c, 12, 77, 0
30, 181920, Note_on_c, 12, 77, 92
30, 182099, Note_on_c, 12, 77, 0
30, 182160, Note_on_c, 12, 69, 92
30, 182160, Note_on_c, 12, 81, 92
30, 182339, Note_on_c, 12, 69, 0
30, 182339, Note_on_c, 12, 81, 0
30, 186480, Note_on_c, 12, 65, 44
30, 186719, Note_on_c, 12, 65, 0
30, 186720, Note_on_c, 12, 66, 44
30, 187199, Note_on_c, 12, 66, 0
30, 187200, Note_on_c, 12, 67, 44
30, 187439, Note_on_c, 12, 67, 0
30, 187440, Note_on_c, 12, 68, 44
30, 187919, Note_on_c, 12, 68, 0
30, 187920, Note_on_c, 12, 74, 44
30, 188399, Note_on_c, 12, 74, 0
30, 188400, Note_on_c, 12, 74, 44
30, 189119, Note_on_c, 12, 74, 0
30, 189120, Note_on_c, 12, 74, 44
30, 189839, Note_on_c, 12, 74, 0
30, 189840, Note_on_c, 12, 74, 44
30, 190559, Note_on_c, 12, 74, 0
30, 190560, Note_on_c, 12, 74, 44
30, 191279, Note_on_c, 12, 74, 0
30, 191280, Note_on_c, 12, 74, 44
30, 191999, Note_on_c, 12, 74, 0
30, 192480, Note_on_c, 12, 73, 80
30, 192480, Note_on_c, 12, 76, 80
30, 192659, Note_on_c, 12, 73, 0
30, 192659, Note_on_c, 12, 76, 0
30, 192720, Note_on_c, 12, 81, 80
30, 192720, Note_on_c, 12, 69, 80
30, 192824, Note_on_c, 12, 81, 0
30, 192824, Note_on_c, 12, 69, 0
30, 192840, Note_on_c, 12, 69, 80
30, 192840, Note_on_c, 12, 81, 80
30, 192944, Note_on_c, 12, 69, 0
30, 192944, Note_on_c, 12, 81, 0
30, 192960, Note_on_c, 12, 86, 80
30, 192960, Note_on_c, 12, 69, 80
30, 193199, Note_on_c, 12, 86, 0
30, 193199, Note_on_c, 12, 69, 0
30, 195840, Note_on_c, 12, 62, 44
30, 195840, Note_on_c, 12, 71, 44
30, 195959, Note_on_c, 12, 62, 0
30, 195959, Note_on_c, 12, 71, 0
30, 196080, Note_on_c, 12, 83, 80
30, 196080, Note_on_c, 12, 71, 80
30, 196199, Note_on_c, 12, 83, 0
30, 196199, Note_on_c, 12, 71, 0
30, 197520, Note_on_c, 12, 69, 80
30, 197520, Note_on_c, 12, 85, 80
30, 197699, Note_on_c, 12, 69, 0
30, 197699, Note_on_c, 12, 85, 0
30, 198720, Program_c, 12, 45
30, 199200, Note_on_c, 12, 57, 56
30, 199439, Note_on_c, 12, 57, 0
30, 199440, Note_on_c, 12, 57, 56
30, 199679, Note_on_c, 12, 57, 0
30, 201120, Note_on_c, 12, 57, 56
30, 201359, Note_on_c, 12, 57, 0
30, 201360, Note_on_c, 12, 57, 56
30, 201599, Note_on_c, 12, 57, 0
30, 201600, Note_on_c, 12, 69, 40
30, 201839, Note_on_c, 12, 69, 0
30, 201840, Note_on_c, 12, 69, 40
30, 202079, Note_on_c, 12, 69, 0
30, 202080, Note_on_c, 12, 69, 40
30, 202319, Note_on_c, 12, 69, 0
30, 202320, Note_on_c, 12, 69, 40
30, 202559, Note_on_c, 12, 69, 0
30, 202560, Note_on_c, 12, 69, 40
30, 202799, Note_on_c, 12, 69, 0
30, 202800, Note_on_c, 12, 69, 40
30, 203039, Note_on_c, 12, 69, 0
30, 203040, Note_on_c, 12, 69, 40
30, 203279, Note_on_c, 12, 69, 0
30, 203280, Note_on_c, 12, 69, 40
30, 203519, Note_on_c, 12, 69, 0
30, 203520, Note_on_c, 12, 69, 40
30, 203759, Note_on_c, 12, 69, 0
30, 203760, Note_on_c, 12, 69, 40
30, 203999, Note_on_c, 12, 69, 0
30, 204000, Note_on_c, 12, 69, 40
30, 204239, Note_on_c, 12, 69, 0
30, 204240, Note_on_c, 12, 69, 40
30, 204479, Note_on_c, 12, 69, 0
30, 204480, Note_on_c, 12, 69, 40
30, 204719, Note_on_c, 12, 69, 0
30, 204960, Note_on_c, 12, 69, 40
30, 205199, Note_on_c, 12, 69, 0
30, 205440, Note_on_c, 12, 69, 40
30, 205679, Note_on_c, 12, 69, 0
30, 205680, Note_on_c, 12, 69, 40
30, 205680, Note_on_c, 12, 62, 40
30, 205919, Note_on_c, 12, 69, 0
30, 205919, Note_on_c, 12, 62, 0
30, 205920, Note_on_c, 12, 69, 40
30, 205920, Note_on_c, 12, 64, 40
30, 206159, Note_on_c, 12, 69, 0
30, 206159, Note_on_c, 12, 64, 0
30, 206160, Note_on_c, 12, 66, 40
30, 206160, Note_on_c, 12, 69, 40
30, 206399, Note_on_c, 12, 66, 0
30, 206399, Note_on_c, 12, 69, 0
30, 206400, Note_on_c, 12, 66, 40
30, 206400, Note_on_c, 12, 69, 40
30, 206639, Note_on_c, 12, 66, 0
30, 206639, Note_on_c, 12, 69, 0
30, 206640, Note_on_c, 12, 69, 40
30, 206640, Note_on_c, 12, 64, 40
30, 206879, Note_on_c, 12, 69, 0
30, 206879, Note_on_c, 12, 64, 0
30, 206880, Note_on_c, 12, 69, 40
30, 206880, Note_on_c, 12, 62, 40
30, 207119, Note_on_c, 12, 69, 0
30, 207119, Note_on_c, 12, 62, 0
30, 207120, Note_on_c, 12, 67, 40
30, 207120, Note_on_c, 12, 69, 40
30, 207359, Note_on_c, 12, 67, 0
30, 207359, Note_on_c, 12, 69, 0
30, 207360, Note_on_c, 12, 66, 40
30, 207360, Note_on_c, 12, 69, 40
30, 207599, Note_on_c, 12, 66, 0
30, 207599, Note_on_c, 12, 69, 0
30, 207600, Note_on_c, 12, 69, 40
30, 207600, Note_on_c, 12, 66, 40
30, 207839, Note_on_c, 12, 69, 0
30, 207839, Note_on_c, 12, 66, 0
30, 207840, Note_on_c, 12, 69, 40
30, 207840, Note_on_c, 12, 67, 40
30, 208079, Note_on_c, 12, 69, 0
30, 208079, Note_on_c, 12, 67, 0
30, 208080, Note_on_c, 12, 69, 40
30, 208319, Note_on_c, 12, 69, 0
30, 208320, Note_on_c, 12, 67, 40
30, 208320, Note_on_c, 12, 69, 40
30, 208559, Note_on_c, 12, 67, 0
30, 208559, Note_on_c, 12, 69, 0
30, 208800, Note_on_c, 12, 69, 40
30, 208800, Note_on_c, 12, 66, 40
30, 209039, Note_on_c, 12, 69, 0
30, 209039, Note_on_c, 12, 66, 0
30, 209520, Note_on_c, 12, 69, 40
30, 209759, Note_on_c, 12, 69, 0
30, 210000, Note_on_c, 12, 69, 40
30, 210239, Note_on_c, 12, 69, 0
30, 210480, Note_on_c, 12, 69, 40
30, 210719, Note_on_c, 12, 69, 0
30, 210960, Note_on_c, 12, 69, 40
30, 211199, Note_on_c, 12, 69, 0
30, 211440, Note_on_c, 12, 69, 40
30, 211679, Note_on_c, 12, 69, 0
30, 211920, Note_on_c, 12, 69, 40
30, 212159, Note_on_c, 12, 69, 0
30, 212160, Note_on_c, 12, 69, 40
30, 212399, Note_on_c, 12, 69, 0
30, 212400, Note_on_c, 12, 69, 42
30, 212639, Note_on_c, 12, 69, 0
30, 212640, Note_on_c, 12, 69, 44
30, 212879, Note_on_c, 12, 69, 0
30, 212880, Note_on_c, 12, 69, 46
30, 213119, Note_on_c, 12, 69, 0
30, 213120, Note_on_c, 12, 69, 48
30, 213359, Note_on_c, 12, 69, 0
30, 213360, Note_on_c, 12, 69, 50
30, 213360, Note_on_c, 12, 63, 50
30, 213599, Note_on_c, 12, 69, 0
30, 213599, Note_on_c, 12, 63, 0
30, 213600, Note_on_c, 12, 69, 52
30, 213600, Note_on_c, 12, 64, 52
30, 213839, Note_on_c, 12, 69, 0
30, 213839, Note_on_c, 12, 64, 0
30, 213840, Note_on_c, 12, 69, 54
30, 213840, Note_on_c, 12, 66, 54
30, 214079, Note_on_c, 12, 69, 0
30, 214079, Note_on_c, 12, 66, 0
30, 214080, Note_on_c, 12, 66, 56
30, 214080, Note_on_c, 12, 69, 56
30, 214319, Note_on_c, 12, 66, 0
30, 214319, Note_on_c, 12, 69, 0
30, 214320, Note_on_c, 12, 69, 58
30, 214320, Note_on_c, 12, 64, 58
30, 214559, Note_on_c, 12, 69, 0
30, 214559, Note_on_c, 12, 64, 0
30, 214560, Note_on_c, 12, 69, 60
30, 214799, Note_on_c, 12, 69, 0
30, 214800, Note_on_c, 12, 67, 62
30, 214800, Note_on_c, 12, 69, 62
30, 215039, Note_on_c, 12, 67, 0
30, 215039, Note_on_c, 12, 69, 0
30, 215040, Note_on_c, 12, 66, 40
30, 215040, Note_on_c, 12, 69, 64
30, 215279, Note_on_c, 12, 66, 0
30, 215279, Note_on_c, 12, 69, 0
30, 215280, Note_on_c, 12, 69, 40
30, 215280, Note_on_c, 12, 66, 40
30, 215519, Note_on_c, 12, 69, 0
30, 215519, Note_on_c, 12, 66, 0
30, 215520, Note_on_c, 12, 67, 40
30, 215520, Note_on_c, 12, 69, 40
30, 215759, Note_on_c, 12, 67, 0
30, 215759, Note_on_c, 12, 69, 0
30, 215760, Note_on_c, 12, 69, 40
30, 215999, Note_on_c, 12, 69, 0
30, 216000, Note_on_c, 12, 69, 40
30, 216239, Note_on_c, 12, 69, 0
30, 216480, Note_on_c, 12, 69, 40
30, 216719, Note_on_c, 12, 69, 0
30, 216958, Program_c, 12, 48
30, 216960, Note_on_c, 12, 64, 80
30, 217184, Note_on_c, 12, 64, 0
30, 217200, Note_on_c, 12, 64, 80
30, 217424, Note_on_c, 12, 64, 0
30, 217440, Note_on_c, 12, 66, 80
30, 217664, Note_on_c, 12, 66, 0
30, 217680, Note_on_c, 12, 62, 80
30, 217904, Note_on_c, 12, 62, 0
30, 217920, Note_on_c, 12, 64, 80
30, 218159, Note_on_c, 12, 64, 0
30, 218160, Note_on_c, 12, 66, 80
30, 218279, Note_on_c, 12, 66, 0
30, 218280, Note_on_c, 12, 67, 80
30, 218384, Note_on_c, 12, 67, 0
30, 218400, Note_on_c, 12, 66, 80
30, 218624, Note_on_c, 12, 66, 0
30, 218640, Note_on_c, 12, 62, 80
30, 218864, Note_on_c, 12, 62, 0
30, 218880, Note_on_c, 12, 64, 80
30, 219119, Note_on_c, 12, 64, 0
30, 219120, Note_on_c, 12, 66, 80
30, 219239, Note_on_c, 12, 66, 0
30, 219240, Note_on_c, 12, 67, 80
30, 219344, Note_on_c, 12, 67, 0
30, 219360, Note_on_c, 12, 66, 80
30, 219584, Note_on_c, 12, 66, 0
30, 219600, Note_on_c, 12, 64, 80
30, 219824, Note_on_c, 12, 64, 0
30, 219840, Note_on_c, 12, 62, 80
30, 220064, Note_on_c, 12, 62, 0
30, 220080, Note_on_c, 12, 64, 80
30, 220304, Note_on_c, 12, 64, 0
30, 220320, Note_on_c, 12, 57, 80
30, 220544, Note_on_c, 12, 57, 0
30, 220560, Note_on_c, 12, 66, 80
30, 221024, Note_on_c, 12, 66, 0
30, 221040, Note_on_c, 12, 66, 80
30, 221264, Note_on_c, 12, 66, 0
30, 221280, Note_on_c, 12, 67, 80
30, 221504, Note_on_c, 12, 67, 0
30, 221520, Note_on_c, 12, 69, 80
30, 221744, Note_on_c, 12, 69, 0
30, 221760, Note_on_c, 12, 69, 80
30, 221984, Note_on_c, 12, 69, 0
30, 222000, Note_on_c, 12, 67, 80
30, 222224, Note_on_c, 12, 67, 0
30, 222240, Note_on_c, 12, 66, 80
30, 222479, Note_on_c, 12, 66, 0
30, 222480, Note_on_c, 12, 67, 80
30, 222599, Note_on_c, 12, 67, 0
30, 222600, Note_on_c, 12, 64, 80
30, 222704, Note_on_c, 12, 64, 0
30, 222720, Note_on_c, 12, 62, 80
30, 222944, Note_on_c, 12, 62, 0
30, 222960, Note_on_c, 12, 62, 80
30, 223184, Note_on_c, 12, 62, 0
30, 223200, Note_on_c, 12, 64, 80
30, 223424, Note_on_c, 12, 64, 0
30, 223440, Note_on_c, 12, 66, 80
30, 223664, Note_on_c, 12, 66, 0
30, 223680, Note_on_c, 12, 64, 80
30, 224039, Note_on_c, 12, 64, 0
30, 224040, Note_on_c, 12, 62, 80
30, 224144, Note_on_c, 12, 62, 0
30, 224160, Note_on_c, 12, 62, 80
30, 224384, Note_on_c, 12, 62, 0
30, 224400, Note_on_c, 12, 69, 80
30, 224624, Note_on_c, 12, 69, 0
30, 224640, Note_on_c, 12, 67, 80
30, 224999, Note_on_c, 12, 67, 0
30, 225000, Note_on_c, 12, 66, 80
30, 225104, Note_on_c, 12, 66, 0
30, 225120, Note_on_c, 12, 66, 80
30, 225344, Note_on_c, 12, 66, 0
30, 225360, Note_on_c, 12, 74, 80
30, 225584, Note_on_c, 12, 74, 0
30, 225600, Note_on_c, 12, 72, 80
30, 225959, Note_on_c, 12, 72, 0
30, 225960, Note_on_c, 12, 71, 80
30, 226064, Note_on_c, 12, 71, 0
30, 226080, Note_on_c, 12, 71, 80
30, 226304, Note_on_c, 12, 71, 0
30, 226320, Note_on_c, 12, 79, 80
30, 226439, Note_on_c, 12, 79, 0
30, 226440, Note_on_c, 12, 76, 80
30, 226544, Note_on_c, 12, 76, 0
30, 226560, Note_on_c, 12, 74, 80
30, 226679, Note_on_c, 12, 74, 0
30, 226680, Note_on_c, 12, 73, 80
30, 226799, Note_on_c, 12, 73, 0
30, 226800, Note_on_c, 12, 76, 80
30, 226919, Note_on_c, 12, 76, 0
30, 226920, Note_on_c, 12, 73, 80
30, 227024, Note_on_c, 12, 73, 0
30, 227040, Note_on_c, 12, 71, 80
30, 227159, Note_on_c, 12, 71, 0
30, 227160, Note_on_c, 12, 69, 80
30, 227279, Note_on_c, 12, 69, 0
30, 227280, Note_on_c, 12, 71, 80
30, 227399, Note_on_c, 12, 71, 0
30, 227400, Note_on_c, 12, 73, 80
30, 227504, Note_on_c, 12, 73, 0
30, 227520, Note_on_c, 12, 74, 80
30, 227639, Note_on_c, 12, 74, 0
30, 227640, Note_on_c, 12, 78, 80
30, 227759, Note_on_c, 12, 78, 0
30, 227760, Note_on_c, 12, 76, 80
30, 227879, Note_on_c, 12, 76, 0
30, 227880, Note_on_c, 12, 73, 80
30, 227984, Note_on_c, 12, 73, 0
30, 228000, Note_on_c, 12, 74, 80
30, 228239, Note_on_c, 12, 74, 0
30, 244320, Note_on_c, 12, 69, 80
30, 244424, Note_on_c, 12, 69, 0
30, 244440, Note_on_c, 12, 69, 80
30, 244559, Note_on_c, 12, 69, 0
30, 244560, Note_on_c, 12, 78, 80
30, 244664, Note_on_c, 12, 78, 0
30, 244680, Note_on_c, 12, 74, 80
30, 244799, Note_on_c, 12, 74, 0
30, 244800, Note_on_c, 12, 79, 80
30, 245039, Note_on_c, 12, 79, 0
30, 245280, Note_on_c, 12, 69, 80
30, 245384, Note_on_c, 12, 69, 0
30, 245400, Note_on_c, 12, 69, 80
30, 245519, Note_on_c, 12, 69, 0
30, 245520, Note_on_c, 12, 76, 80
30, 245624, Note_on_c, 12, 76, 0
30, 245640, Note_on_c, 12, 78, 80
30, 245759, Note_on_c, 12, 78, 0
30, 245760, Note_on_c, 12, 79, 80
30, 245999, Note_on_c, 12, 79, 0
30, 246120, Note_on_c, 12, 73, 80
30, 246239, Note_on_c, 12, 73, 0
30, 246240, Note_on_c, 12, 78, 80
30, 246479, Note_on_c, 12, 78, 0
30, 246600, Note_on_c, 12, 66, 80
30, 246719, Note_on_c, 12, 66, 0
30, 246720, Note_on_c, 12, 74, 80
30, 246959, Note_on_c, 12, 74, 0
30, 247080, Note_on_c, 12, 76, 80
30, 247199, Note_on_c, 12, 76, 0
30, 247200, Note_on_c, 12, 69, 80
30, 247304, Note_on_c, 12, 69, 0
30, 247320, Note_on_c, 12, 69, 80
30, 247439, Note_on_c, 12, 69, 0
30, 247440, Note_on_c, 12, 78, 80
30, 247559, Note_on_c, 12, 78, 0
30, 247800, Note_on_c, 12, 69, 81
30, 247919, Note_on_c, 12, 69, 0
30, 247920, Note_on_c, 12, 78, 83
30, 248159, Note_on_c, 12, 78, 0
30, 248280, Note_on_c, 12, 69, 87
30, 248399, Note_on_c, 12, 69, 0
30, 248400, Note_on_c, 12, 81, 89
30, 248639, Note_on_c, 12, 81, 0
30, 248760, Note_on_c, 12, 69, 92
30, 248879, Note_on_c, 12, 69, 0
30, 248880, Note_on_c, 12, 79, 92
30, 249119, Note_on_c, 12, 79, 0
30, 249240, Note_on_c, 12, 69, 68
30, 249359, Note_on_c, 12, 69, 0
30, 249360, Note_on_c, 12, 76, 60
30, 249599, Note_on_c, 12, 76, 0
30, 249720, Note_on_c, 12, 69, 44
30, 249839, Note_on_c, 12, 69, 0
30, 249840, Note_on_c, 12, 74, 44
30, 250079, Note_on_c, 12, 74, 0
30, 250200, Note_on_c, 12, 69, 44
30, 250319, Note_on_c, 12, 69, 0
30, 250320, Note_on_c, 12, 78, 44
30, 250559, Note_on_c, 12, 78, 0
30, 250680, Note_on_c, 12, 69, 44
30, 250799, Note_on_c, 12, 69, 0
30, 250800, Note_on_c, 12, 76, 44
30, 250919, Note_on_c, 12, 76, 0
30, 251160, Note_on_c, 12, 69, 44
30, 251279, Note_on_c, 12, 69, 0
30, 251280, Note_on_c, 12, 74, 44
30, 251399, Note_on_c, 12, 74, 0
30, 251640, Note_on_c, 12, 69, 44
30, 251759, Note_on_c, 12, 69, 0
30, 251760, Note_on_c, 12, 81, 44
30, 251879, Note_on_c, 12, 81, 0
30, 252120, Note_on_c, 12, 74, 44
30, 252239, Note_on_c, 12, 74, 0
30, 252240, Note_on_c, 12, 86, 44
30, 252359, Note_on_c, 12, 86, 0
30, 252600, Note_on_c, 12, 72, 44
30, 252719, Note_on_c, 12, 72, 0
30, 252720, Note_on_c, 12, 84, 44
30, 252839, Note_on_c, 12, 84, 0
30, 253080, Note_on_c, 12, 71, 44
30, 253199, Note_on_c, 12, 71, 0
30, 253200, Note_on_c, 12, 83, 44
30, 253319, Note_on_c, 12, 83, 0
30, 253560, Note_on_c, 12, 73, 44
30, 253560, Note_on_c, 12, 76, 44
30, 253679, Note_on_c, 12, 73, 0
30, 253679, Note_on_c, 12, 76, 0
30, 253680, Note_on_c, 12, 79, 44
30, 253799, Note_on_c, 12, 79, 0
30, 254040, Note_on_c, 12, 67, 44
30, 254159, Note_on_c, 12, 67, 0
30, 254160, Note_on_c, 12, 79, 44
30, 254279, Note_on_c, 12, 79, 0
30, 254400, Note_on_c, 12, 78, 44
30, 254519, Note_on_c, 12, 78, 0
30, 254640, Note_on_c, 12, 85, 44
30, 254640, Note_on_c, 12, 69, 44
30, 254759, Note_on_c, 12, 85, 0
30, 254759, Note_on_c, 12, 69, 0
30, 254880, Note_on_c, 12, 69, 44
30, 254880, Note_on_c, 12, 62, 44
30, 254880, Note_on_c, 12, 86, 44
30, 254999, Note_on_c, 12, 69, 0
30, 254999, Note_on_c, 12, 62, 0
30, 254999, Note_on_c, 12, 86, 0
30, 261360, Note_on_c, 12, 66, 44
30, 261389, Note_on_c, 12, 66, 0
30, 261390, Note_on_c, 12, 67, 44
30, 261419, Note_on_c, 12, 67, 0
30, 261420, Note_on_c, 12, 66, 44
30, 261449, Note_on_c, 12, 66, 0
30, 261450, Note_on_c, 12, 67, 44
30, 261479, Note_on_c, 12, 67, 0
30, 261480, Note_on_c, 12, 66, 44
30, 261509, Note_on_c, 12, 66, 0
30, 261510, Note_on_c, 12, 67, 44
30, 261539, Note_on_c, 12, 67, 0
30, 261540, Note_on_c, 12, 64, 44
30, 261569, Note_on_c, 12, 64, 0
30, 261570, Note_on_c, 12, 66, 44
30, 261599, Note_on_c, 12, 66, 0
30, 261840, Note_on_c, 12, 74, 44
30, 261869, Note_on_c, 12, 74, 0
30, 261870, Note_on_c, 12, 76, 44
30, 261899, Note_on_c, 12, 76, 0
30, 261900, Note_on_c, 12, 74, 44
30, 261929, Note_on_c, 12, 74, 0
30, 261930, Note_on_c, 12, 76, 44
30, 261959, Note_on_c, 12, 76, 0
30, 261960, Note_on_c, 12, 74, 44
30, 261989, Note_on_c, 12, 74, 0
30, 261990, Note_on_c, 12, 76, 44
30, 262019, Note_on_c, 12, 76, 0
30, 262020, Note_on_c, 12, 73, 44
30, 262049, Note_on_c, 12, 73, 0
30, 262050, Note_on_c, 12, 74, 44
30, 262079, Note_on_c, 12, 74, 0
30, 262320, Note_on_c, 12, 76, 44
30, 262349, Note_on_c, 12, 76, 0
30, 262350, Note_on_c, 12, 78, 44
30, 262379, Note_on_c, 12, 78, 0
30, 262380, Note_on_c, 12, 76, 44
30, 262409, Note_on_c, 12, 76, 0
30, 262410, Note_on_c, 12, 78, 44
30, 262439, Note_on_c, 12, 78, 0
30, 262440, Note_on_c, 12, 76, 44
30, 262469, Note_on_c, 12, 76, 0
30, 262470, Note_on_c, 12, 78, 44
30, 262499, Note_on_c, 12, 78, 0
30, 262500, Note_on_c, 12, 74, 44
30, 262529, Note_on_c, 12, 74, 0
30, 262530, Note_on_c, 12, 76, 44
30, 262559, Note_on_c, 12, 76, 0
30, 262800, Note_on_c, 12, 78, 44
30, 262829, Note_on_c, 12, 78, 0
30, 262830, Note_on_c, 12, 79, 44
30, 262859, Note_on_c, 12, 79, 0
30, 262860, Note_on_c, 12, 78, 44
30, 262889, Note_on_c, 12, 78, 0
30, 262890, Note_on_c, 12, 79, 44
30, 262919, Note_on_c, 12, 79, 0
30, 262920, Note_on_c, 12, 78, 44
30, 262949, Note_on_c, 12, 78, 0
30, 262950, Note_on_c, 12, 79, 44
30, 262979, Note_on_c, 12, 79, 0
30, 262980, Note_on_c, 12, 76, 44
30, 263009, Note_on_c, 12, 76, 0
30, 263010, Note_on_c, 12, 78, 44
30, 263039, Note_on_c, 12, 78, 0
30, 264240, Note_on_c, 12, 81, 44
30, 264269, Note_on_c, 12, 81, 0
30, 264270, Note_on_c, 12, 83, 44
30, 264299, Note_on_c, 12, 83, 0
30, 264300, Note_on_c, 12, 81, 44
30, 264329, Note_on_c, 12, 81, 0
30, 264330, Note_on_c, 12, 83, 44
30, 264359, Note_on_c, 12, 83, 0
30, 264360, Note_on_c, 12, 81, 44
30, 264389, Note_on_c, 12, 81, 0
30, 264390, Note_on_c, 12, 83, 44
30, 264419, Note_on_c, 12, 83, 0
30, 264420, Note_on_c, 12, 80, 44
30, 264449, Note_on_c, 12, 80, 0
30, 264450, Note_on_c, 12, 81, 44
30, 264479, Note_on_c, 12, 81, 0
30, 264720, Note_on_c, 12, 81, 44
30, 264749, Note_on_c, 12, 81, 0
30, 264750, Note_on_c, 12, 83, 44
30, 264779, Note_on_c, 12, 83, 0
30, 264780, Note_on_c, 12, 81, 44
30, 264809, Note_on_c, 12, 81, 0
30, 264810, Note_on_c, 12, 83, 44
30, 264839, Note_on_c, 12, 83, 0
30, 264840, Note_on_c, 12, 81, 44
30, 264869, Note_on_c, 12, 81, 0
30, 264870, Note_on_c, 12, 83, 44
30, 264899, Note_on_c, 12, 83, 0
30, 264900, Note_on_c, 12, 80, 44
30, 264929, Note_on_c, 12, 80, 0
30, 264930, Note_on_c, 12, 81, 44
30, 264959, Note_on_c, 12, 81, 0
30, 266160, Note_on_c, 12, 76, 44
30, 266189, Note_on_c, 12, 76, 0
30, 266190, Note_on_c, 12, 78, 44
30, 266219, Note_on_c, 12, 78, 0
30, 266220, Note_on_c, 12, 76, 44
30, 266249, Note_on_c, 12, 76, 0
30, 266250, Note_on_c, 12, 78, 44
30, 266279, Note_on_c, 12, 78, 0
30, 266280, Note_on_c, 12, 76, 44
30, 266309, Note_on_c, 12, 76, 0
30, 266310, Note_on_c, 12, 78, 44
30, 266339, Note_on_c, 12, 78, 0
30, 266340, Note_on_c, 12, 75, 44
30, 266369, Note_on_c, 12, 75, 0
30, 266370, Note_on_c, 12, 76, 44
30, 266399, Note_on_c, 12, 76, 0
30, 266640, Note_on_c, 12, 81, 44
30, 266669, Note_on_c, 12, 81, 0
30, 266670, Note_on_c, 12, 83, 44
30, 266699, Note_on_c, 12, 83, 0
30, 266700, Note_on_c, 12, 81, 44
30, 266729, Note_on_c, 12, 81, 0
30, 266730, Note_on_c, 12, 83, 44
30, 266759, Note_on_c, 12, 83, 0
30, 266760, Note_on_c, 12, 81, 44
30, 266789, Note_on_c, 12, 81, 0
30, 266790, Note_on_c, 12, 83, 44
30, 266819, Note_on_c, 12, 83, 0
30, 266820, Note_on_c, 12, 80, 44
30, 266849, Note_on_c, 12, 80, 0
30, 266850, Note_on_c, 12, 81, 44
30, 266879, Note_on_c, 12, 81, 0
30, 267120, Note_on_c, 12, 81, 47
30, 267149, Note_on_c, 12, 81, 0
30, 267150, Note_on_c, 12, 83, 48
30, 267179, Note_on_c, 12, 83, 0
30, 267180, Note_on_c, 12, 81, 48
30, 267209, Note_on_c, 12, 81, 0
30, 267210, Note_on_c, 12, 83, 48
30, 267239, Note_on_c, 12, 83, 0
30, 267240, Note_on_c, 12, 81, 49
30, 267269, Note_on_c, 12, 81, 0
30, 267270, Note_on_c, 12, 83, 49
30, 267299, Note_on_c, 12, 83, 0
30, 267300, Note_on_c, 12, 80, 50
30, 267329, Note_on_c, 12, 80, 0
30, 267330, Note_on_c, 12, 81, 50
30, 267359, Note_on_c, 12, 81, 0
30, 267600, Note_on_c, 12, 81, 54
30, 267629, Note_on_c, 12, 81, 0
30, 267630, Note_on_c, 12, 83, 55
30, 267659, Note_on_c, 12, 83, 0
30, 267660, Note_on_c, 12, 81, 55
30, 267689, Note_on_c, 12, 81, 0
30, 267690, Note_on_c, 12, 83, 56
30, 267719, Note_on_c, 12, 83, 0
30, 267720, Note_on_c, 12, 81, 56
30, 267749, Note_on_c, 12, 81, 0
30, 267750, Note_on_c, 12, 83, 57
30, 267779, Note_on_c, 12, 83, 0
30, 267780, Note_on_c, 12, 80, 57
30, 267809, Note_on_c, 12, 80, 0
30, 267810, Note_on_c, 12, 81, 57
30, 267839, Note_on_c, 12, 81, 0
30, 268080, Note_on_c, 12, 83, 62
30, 268109, Note_on_c, 12, 83, 0
30, 268110, Note_on_c, 12, 84, 62
30, 268139, Note_on_c, 12, 84, 0
30, 268140, Note_on_c, 12, 83, 62
30, 268169, Note_on_c, 12, 83, 0
30, 268170, Note_on_c, 12, 84, 63
30, 268199, Note_on_c, 12, 84, 0
30, 268200, Note_on_c, 12, 83, 63
30, 268229, Note_on_c, 12, 83, 0
30, 268230, Note_on_c, 12, 84, 64
30, 268259, Note_on_c, 12, 84, 0
30, 268260, Note_on_c, 12, 81, 64
30, 268289, Note_on_c, 12, 81, 0
30, 268290, Note_on_c, 12, 83, 65
30, 268319, Note_on_c, 12, 83, 0
30, 268560, Note_on_c, 12, 85, 69
30, 268589, Note_on_c, 12, 85, 0
30, 268590, Note_on_c, 12, 86, 69
30, 268619, Note_on_c, 12, 86, 0
30, 268620, Note_on_c, 12, 85, 70
30, 268649, Note_on_c, 12, 85, 0
30, 268650, Note_on_c, 12, 86, 70
30, 268679, Note_on_c, 12, 86, 0
30, 268680, Note_on_c, 12, 85, 71
30, 268709, Note_on_c, 12, 85, 0
30, 268710, Note_on_c, 12, 86, 71
30, 268739, Note_on_c, 12, 86, 0
30, 268740, Note_on_c, 12, 83, 71
30, 268769, Note_on_c, 12, 83, 0
30, 268770, Note_on_c, 12, 85, 72
30, 268799, Note_on_c, 12, 85, 0
30, 269040, Note_on_c, 12, 78, 76
30, 269069, Note_on_c, 12, 78, 0
30, 269070, Note_on_c, 12, 79, 76
30, 269099, Note_on_c, 12, 79, 0
30, 269100, Note_on_c, 12, 78, 77
30, 269129, Note_on_c, 12, 78, 0
30, 269130, Note_on_c, 12, 79, 77
30, 269159, Note_on_c, 12, 79, 0
30, 269160, Note_on_c, 12, 78, 78
30, 269189, Note_on_c, 12, 78, 0
30, 269190, Note_on_c, 12, 79, 78
30, 269219, Note_on_c, 12, 79, 0
30, 269220, Note_on_c, 12, 76, 79
30, 269249, Note_on_c, 12, 76, 0
30, 269250, Note_on_c, 12, 78, 79
30, 269279, Note_on_c, 12, 78, 0
30, 269280, Note_on_c, 12, 78, 80
30, 269519, Note_on_c, 12, 78, 0
30, 269640, Note_on_c, 12, 78, 80
30, 269744, Note_on_c, 12, 78, 0
30, 269760, Note_on_c, 12, 76, 80
30, 269999, Note_on_c, 12, 76, 0
30, 270120, Note_on_c, 12, 69, 80
30, 270224, Note_on_c, 12, 69, 0
30, 270240, Note_on_c, 12, 74, 80
30, 270479, Note_on_c, 12, 74, 0
30, 270960, Note_on_c, 12, 76, 80
30, 270989, Note_on_c, 12, 76, 0
30, 270990, Note_on_c, 12, 78, 80
30, 271019, Note_on_c, 12, 78, 0
30, 271020, Note_on_c, 12, 76, 80
30, 271049, Note_on_c, 12, 76, 0
30, 271050, Note_on_c, 12, 78, 80
30, 271079, Note_on_c, 12, 78, 0
30, 271080, Note_on_c, 12, 76, 80
30, 271109, Note_on_c, 12, 76, 0
30, 271110, Note_on_c, 12, 78, 80
30, 271139, Note_on_c, 12, 78, 0
30, 271140, Note_on_c, 12, 74, 80
30, 271169, Note_on_c, 12, 74, 0
30, 271170, Note_on_c, 12, 76, 80
30, 271199, Note_on_c, 12, 76, 0
30, 271440, Note_on_c, 12, 78, 80
30, 271469, Note_on_c, 12, 78, 0
30, 271470, Note_on_c, 12, 79, 80
30, 271499, Note_on_c, 12, 79, 0
30, 271500, Note_on_c, 12, 78, 80
30, 271529, Note_on_c, 12, 78, 0
30, 271530, Note_on_c, 12, 79, 80
30, 271559, Note_on_c, 12, 79, 0
30, 271560, Note_on_c, 12, 78, 80
30, 271589, Note_on_c, 12, 78, 0
30, 271590, Note_on_c, 12, 79, 80
30, 271619, Note_on_c, 12, 79, 0
30, 271620, Note_on_c, 12, 76, 80
30, 271649, Note_on_c, 12, 76, 0
30, 271650, Note_on_c, 12, 78, 80
30, 271679, Note_on_c, 12, 78, 0
30, 271920, Note_on_c, 12, 76, 80
30, 271949, Note_on_c, 12, 76, 0
30, 271950, Note_on_c, 12, 78, 80
30, 271979, Note_on_c, 12, 78, 0
30, 271980, Note_on_c, 12, 76, 80
30, 272009, Note_on_c, 12, 76, 0
30, 272010, Note_on_c, 12, 78, 80
30, 272039, Note_on_c, 12, 78, 0
30, 272040, Note_on_c, 12, 76, 80
30, 272069, Note_on_c, 12, 76, 0
30, 272070, Note_on_c, 12, 78, 80
30, 272099, Note_on_c, 12, 78, 0
30, 272100, Note_on_c, 12, 74, 80
30, 272129, Note_on_c, 12, 74, 0
30, 272130, Note_on_c, 12, 76, 80
30, 272159, Note_on_c, 12, 76, 0
30, 272400, Note_on_c, 12, 78, 80
30, 272429, Note_on_c, 12, 78, 0
30, 272430, Note_on_c, 12, 79, 80
30, 272459, Note_on_c, 12, 79, 0
30, 272460, Note_on_c, 12, 78, 80
30, 272489, Note_on_c, 12, 78, 0
30, 272490, Note_on_c, 12, 79, 80
30, 272519, Note_on_c, 12, 79, 0
30, 272520, Note_on_c, 12, 78, 80
30, 272549, Note_on_c, 12, 78, 0
30, 272550, Note_on_c, 12, 79, 80
30, 272579, Note_on_c, 12, 79, 0
30, 272580, Note_on_c, 12, 76, 80
30, 272609, Note_on_c, 12, 76, 0
30, 272610, Note_on_c, 12, 78, 80
30, 272639, Note_on_c, 12, 78, 0
30, 272880, Note_on_c, 12, 76, 80
30, 272909, Note_on_c, 12, 76, 0
30, 272910, Note_on_c, 12, 78, 80
30, 272939, Note_on_c, 12, 78, 0
30, 272940, Note_on_c, 12, 76, 80
30, 272969, Note_on_c, 12, 76, 0
30, 272970, Note_on_c, 12, 78, 80
30, 272999, Note_on_c, 12, 78, 0
30, 273000, Note_on_c, 12, 76, 80
30, 273029, Note_on_c, 12, 76, 0
30, 273030, Note_on_c, 12, 78, 80
30, 273059, Note_on_c, 12, 78, 0
30, 273060, Note_on_c, 12, 74, 80
30, 273089, Note_on_c, 12, 74, 0
30, 273090, Note_on_c, 12, 76, 80
30, 273119, Note_on_c, 12, 76, 0
30, 273360, Note_on_c, 12, 78, 80
30, 273389, Note_on_c, 12, 78, 0
30, 273390, Note_on_c, 12, 79, 80
30, 273419, Note_on_c, 12, 79, 0
30, 273420, Note_on_c, 12, 78, 80
30, 273449, Note_on_c, 12, 78, 0
30, 273450, Note_on_c, 12, 79, 80
30, 273479, Note_on_c, 12, 79, 0
30, 273480, Note_on_c, 12, 78, 80
30, 273509, Note_on_c, 12, 78, 0
30, 273510, Note_on_c, 12, 79, 80
30, 273539, Note_on_c, 12, 79, 0
30, 273540, Note_on_c, 12, 76, 80
30, 273569, Note_on_c, 12, 76, 0
30, 273570, Note_on_c, 12, 78, 80
30, 273599, Note_on_c, 12, 78, 0
30, 273840, Note_on_c, 12, 86, 80
30, 273869, Note_on_c, 12, 86, 0
30, 273870, Note_on_c, 12, 88, 80
30, 273899, Note_on_c, 12, 88, 0
30, 273900, Note_on_c, 12, 86, 80
30, 273929, Note_on_c, 12, 86, 0
30, 273930, Note_on_c, 12, 88, 80
30, 273959, Note_on_c, 12, 88, 0
30, 273960, Note_on_c, 12, 86, 80
30, 273989, Note_on_c, 12, 86, 0
30, 273990, Note_on_c, 12, 88, 80
30, 274019, Note_on_c, 12, 88, 0
30, 274020, Note_on_c, 12, 85, 80
30, 274049, Note_on_c, 12, 85, 0
30, 274050, Note_on_c, 12, 86, 80
30, 274079, Note_on_c, 12, 86, 0
30, 274320, Note_on_c, 12, 81, 80
30, 274349, Note_on_c, 12, 81, 0
30, 274350, Note_on_c, 12, 83, 80
30, 274379, Note_on_c, 12, 83, 0
30, 274380, Note_on_c, 12, 81, 80
30, 274409, Note_on_c, 12, 81, 0
30, 274410, Note_on_c, 12, 83, 80
30, 274439, Note_on_c, 12, 83, 0
30, 274440, Note_on_c, 12, 81, 80
30, 274469, Note_on_c, 12, 81, 0
30, 274470, Note_on_c, 12, 83, 80
30, 274499, Note_on_c, 12, 83, 0
30, 274500, Note_on_c, 12, 80, 80
30, 274529, Note_on_c, 12, 80, 0
30, 274530, Note_on_c, 12, 81, 80
30, 274559, Note_on_c, 12, 81, 0
30, 274800, Note_on_c, 12, 78, 81
30, 274829, Note_on_c, 12, 78, 0
30, 274830, Note_on_c, 12, 79, 81
30, 274859, Note_on_c, 12, 79, 0
30, 274860, Note_on_c, 12, 78, 81
30, 274889, Note_on_c, 12, 78, 0
30, 274890, Note_on_c, 12, 79, 81
30, 274919, Note_on_c, 12, 79, 0
30, 274920, Note_on_c, 12, 78, 81
30, 274949, Note_on_c, 12, 78, 0
30, 274950, Note_on_c, 12, 79, 81
30, 274979, Note_on_c, 12, 79, 0
30, 274980, Note_on_c, 12, 76, 82
30, 275009, Note_on_c, 12, 76, 0
30, 275010, Note_on_c, 12, 78, 82
30, 275039, Note_on_c, 12, 78, 0
30, 275280, Note_on_c, 12, 86, 83
30, 275309, Note_on_c, 12, 86, 0
30, 275310, Note_on_c, 12, 88, 83
30, 275339, Note_on_c, 12, 88, 0
30, 275340, Note_on_c, 12, 86, 83
30, 275369, Note_on_c, 12, 86, 0
30, 275370, Note_on_c, 12, 88, 84
30, 275399, Note_on_c, 12, 88, 0
30, 275400, Note_on_c, 12, 86, 84
30, 275429, Note_on_c, 12, 86, 0
30, 275430, Note_on_c, 12, 88, 84
30, 275459, Note_on_c, 12, 88, 0
30, 275460, Note_on_c, 12, 85, 84
30, 275489, Note_on_c, 12, 85, 0
30, 275490, Note_on_c, 12, 86, 84
30, 275519, Note_on_c, 12, 86, 0
30, 275760, Note_on_c, 12, 83, 86
30, 275789, Note_on_c, 12, 83, 0
30, 275790, Note_on_c, 12, 84, 86
30, 275819, Note_on_c, 12, 84, 0
30, 275820, Note_on_c, 12, 83, 86
30, 275849, Note_on_c, 12, 83, 0
30, 275850, Note_on_c, 12, 84, 86
30, 275879, Note_on_c, 12, 84, 0
30, 275880, Note_on_c, 12, 83, 86
30, 275909, Note_on_c, 12, 83, 0
30, 275910, Note_on_c, 12, 84, 86
30, 275939, Note_on_c, 12, 84, 0
30, 275940, Note_on_c, 12, 81, 86
30, 275969, Note_on_c, 12, 81, 0
30, 275970, Note_on_c, 12, 83, 87
30, 275999, Note_on_c, 12, 83, 0
30, 276240, Note_on_c, 12, 79, 88
30, 276269, Note_on_c, 12, 79, 0
30, 276270, Note_on_c, 12, 81, 88
30, 276299, Note_on_c, 12, 81, 0
30, 276300, Note_on_c, 12, 79, 88
30, 276329, Note_on_c, 12, 79, 0
30, 276330, Note_on_c, 12, 81, 88
30, 276359, Note_on_c, 12, 81, 0
30, 276360, Note_on_c, 12, 79, 89
30, 276389, Note_on_c, 12, 79, 0
30, 276390, Note_on_c, 12, 81, 89
30, 276419, Note_on_c, 12, 81, 0
30, 276420, Note_on_c, 12, 78, 89
30, 276449, Note_on_c, 12, 78, 0
30, 276450, Note_on_c, 12, 79, 89
30, 276479, Note_on_c, 12, 79, 0
30, 276720, Note_on_c, 12, 78, 90
30, 276749, Note_on_c, 12, 78, 0
30, 276750, Note_on_c, 12, 79, 90
30, 276779, Note_on_c, 12, 79, 0
30, 276780, Note_on_c, 12, 78, 91
30, 276809, Note_on_c, 12, 78, 0
30, 276810, Note_on_c, 12, 79, 91
30, 276839, Note_on_c, 12, 79, 0
30, 276840, Note_on_c, 12, 78, 91
30, 276869, Note_on_c, 12, 78, 0
30, 276870, Note_on_c, 12, 79, 91
30, 276899, Note_on_c, 12, 79, 0
30, 276900, Note_on_c, 12, 76, 91
30, 276929, Note_on_c, 12, 76, 0
30, 276930, Note_on_c, 12, 78, 91
30, 276959, Note_on_c, 12, 78, 0
30, 276960, Note_on_c, 12, 86, 92
30, 277199, Note_on_c, 12, 86, 0
30, 277440, Note_on_c, 12, 88, 92
30, 277679, Note_on_c, 12, 88, 0
30, 277800, Note_on_c, 12, 69, 92
30, 277800, Note_on_c, 12, 81, 92
30, 277904, Note_on_c, 12, 69, 0
30, 277904, Note_on_c, 12, 81, 0
30, 277920, Note_on_c, 12, 86, 92
30, 278024, Note_on_c, 12, 86, 0
30, 278040, Note_on_c, 12, 74, 92
30, 278099, Note_on_c, 12, 74, 0
30, 278100, Note_on_c, 12, 73, 92
30, 278159, Note_on_c, 12, 73, 0
30, 278160, Note_on_c, 12, 74, 92
30, 278219, Note_on_c, 12, 74, 0
30, 278220, Note_on_c, 12, 76, 92
30, 278279, Note_on_c, 12, 76, 0
30, 278280, Note_on_c, 12, 78, 92
30, 278339, Note_on_c, 12, 78, 0
30, 278340, Note_on_c, 12, 79, 92
30, 278391, Note_on_c, 12, 79, 0
30, 278400, Note_on_c, 12, 69, 92
30, 278400, Note_on_c, 12, 81, 92
30, 278759, Note_on_c, 12, 69, 0
30, 278759, Note_on_c, 12, 81, 0
30, 278880, Note_on_c, 12, 81, 92
30, 278880, Note_on_c, 12, 69, 92
30, 279239, Note_on_c, 12, 81, 0
30, 279239, Note_on_c, 12, 69, 0
30, 279360, Note_on_c, 12, 83, 92
30, 279360, Note_on_c, 12, 71, 92
30, 279719, Note_on_c, 12, 83, 0
30, 279719, Note_on_c, 12, 71, 0
30, 279840, Note_on_c, 12, 83, 92
30, 279840, Note_on_c, 12, 71, 92
30, 280199, Note_on_c, 12, 83, 0
30, 280199, Note_on_c, 12, 71, 0
30, 280320, Note_on_c, 12, 69, 92
30, 280320, Note_on_c, 12, 85, 92
30, 280679, Note_on_c, 12, 69, 0
30, 280679, Note_on_c, 12, 85, 0
30, 280800, Note_on_c, 12, 76, 92
30, 280800, Note_on_c, 12, 85, 92
30, 281159, Note_on_c, 12, 76, 0
30, 281159, Note_on_c, 12, 85, 0
30, 281280, Note_on_c, 12, 86, 92
30, 281280, Note_on_c, 12, 78, 92
30, 281639, Note_on_c, 12, 86, 0
30, 281639, Note_on_c, 12, 78, 0
30, 281760, Note_on_c, 12, 74, 92
30, 281760, Note_on_c, 12, 62, 92
30, 282119, Note_on_c, 12, 74, 0
30, 282119, Note_on_c, 12, 62, 0
30, 282240, Note_on_c, 12, 80, 92
30, 282240, Note_on_c, 12, 71, 92
30, 282599, Note_on_c, 12, 80, 0
30, 282599, Note_on_c, 12, 71, 0
30, 282720, Note_on_c, 12, 71, 92
30, 282720, Note_on_c, 12, 80, 92
30, 283079, Note_on_c, 12, 71, 0
30, 283079, Note_on_c, 12, 80, 0
30, 283200, Note_on_c, 12, 81, 92
30, 283200, Note_on_c, 12, 69, 92
30, 283251, Note_on_c, 12, 81, 0
30, 283251, Note_on_c, 12, 69, 0
30, 283260, Note_on_c, 12, 83, 92
30, 283311, Note_on_c, 12, 83, 0
30, 283320, Note_on_c, 12, 81, 92
30, 283371, Note_on_c, 12, 81, 0
30, 283380, Note_on_c, 12, 80, 92
30, 283431, Note_on_c, 12, 80, 0
30, 283440, Note_on_c, 12, 78, 92
30, 283491, Note_on_c, 12, 78, 0
30, 283500, Note_on_c, 12, 80, 92
30, 283551, Note_on_c, 12, 80, 0
30, 283560, Note_on_c, 12, 78, 92
30, 283611, Note_on_c, 12, 78, 0
30, 283620, Note_on_c, 12, 76, 92
30, 283671, Note_on_c, 12, 76, 0
30, 283680, Note_on_c, 12, 74, 92
30, 283731, Note_on_c, 12, 74, 0
30, 283740, Note_on_c, 12, 76, 92
30, 283791, Note_on_c, 12, 76, 0
30, 283800, Note_on_c, 12, 74, 92
30, 283851, Note_on_c, 12, 74, 0
30, 283860, Note_on_c, 12, 73, 92
30, 283911, Note_on_c, 12, 73, 0
30, 283920, Note_on_c, 12, 71, 92
30, 283971, Note_on_c, 12, 71, 0
30, 283980, Note_on_c, 12, 73, 92
30, 284031, Note_on_c, 12, 73, 0
30, 284040, Note_on_c, 12, 71, 92
30, 284091, Note_on_c, 12, 71, 0
30, 284100, Note_on_c, 12, 69, 92
30, 284151, Note_on_c, 12, 69, 0
30, 284160, Note_on_c, 12, 64, 92
30, 284519, Note_on_c, 12, 64, 0
30, 284640, Note_on_c, 12, 80, 92
30, 284640, Note_on_c, 12, 71, 92
30, 284999, Note_on_c, 12, 80, 0
30, 284999, Note_on_c, 12, 71, 0
30, 285120, Note_on_c, 12, 81, 92
30, 285120, Note_on_c, 12, 69, 92
30, 285171, Note_on_c, 12, 81, 0
30, 285171, Note_on_c, 12, 69, 0
30, 285180, Note_on_c, 12, 83, 92
30, 285231, Note_on_c, 12, 83, 0
30, 285240, Note_on_c, 12, 81, 92
30, 285291, Note_on_c, 12, 81, 0
30, 285300, Note_on_c, 12, 80, 92
30, 285351, Note_on_c, 12, 80, 0
30, 285360, Note_on_c, 12, 78, 92
30, 285411, Note_on_c, 12, 78, 0
30, 285420, Note_on_c, 12, 80, 92
30, 285471, Note_on_c, 12, 80, 0
30, 285480, Note_on_c, 12, 78, 92
30, 285531, Note_on_c, 12, 78, 0
30, 285540, Note_on_c, 12, 76, 92
30, 285591, Note_on_c, 12, 76, 0
30, 285600, Note_on_c, 12, 74, 92
30, 285651, Note_on_c, 12, 74, 0
30, 285660, Note_on_c, 12, 76, 92
30, 285711, Note_on_c, 12, 76, 0
30, 285720, Note_on_c, 12, 74, 92
30, 285771, Note_on_c, 12, 74, 0
30, 285780, Note_on_c, 12, 73, 92
30, 285831, Note_on_c, 12, 73, 0
30, 285840, Note_on_c, 12, 71, 92
30, 285891, Note_on_c, 12, 71, 0
30, 285900, Note_on_c, 12, 73, 92
30, 285951, Note_on_c, 12, 73, 0
30, 285960, Note_on_c, 12, 71, 92
30, 286011, Note_on_c, 12, 71, 0
30, 286020, Note_on_c, 12, 69, 92
30, 286071, Note_on_c, 12, 69, 0
30, 286080, Note_on_c, 12, 69, 92
30, 286439, Note_on_c, 12, 69, 0
30, 286560, Note_on_c, 12, 69, 92
30, 286560, Note_on_c, 12, 81, 92
30, 286919, Note_on_c, 12, 69, 0
30, 286919, Note_on_c, 12, 81, 0
30, 287040, Note_on_c, 12, 81, 92
30, 287040, Note_on_c, 12, 69, 92
30, 288959, Note_on_c, 12, 81, 0
30, 288959, Note_on_c, 12, 69, 0
30, 308400, Note_on_c, 12, 86, 32
30, 308579, Note_on_c, 12, 86, 0
30, 308640, Note_on_c, 12, 84, 32
30, 308729, Note_on_c, 12, 84, 0
30, 308760, Note_on_c, 12, 84, 32
30, 308939, Note_on_c, 12, 84, 0
30, 309000, Note_on_c, 12, 82, 32
30, 309089, Note_on_c, 12, 82, 0
30, 309120, Note_on_c, 12, 84, 32
30, 309359, Note_on_c, 12, 84, 0
30, 319920, Note_on_c, 12, 86, 32
30, 320099, Note_on_c, 12, 86, 0
30, 320160, Note_on_c, 12, 84, 32
30, 320249, Note_on_c, 12, 84, 0
30, 320280, Note_on_c, 12, 84, 32
30, 320459, Note_on_c, 12, 84, 0
30, 320520, Note_on_c, 12, 82, 32
30, 320609, Note_on_c, 12, 82, 0
30, 320640, Note_on_c, 12, 82, 32
30, 320879, Note_on_c, 12, 82, 0
30, 331440, Note_on_c, 12, 86, 36
30, 331619, Note_on_c, 12, 86, 0
30, 331680, Note_on_c, 12, 84, 36
30, 331769, Note_on_c, 12, 84, 0
30, 331800, Note_on_c, 12, 84, 37
30, 331979, Note_on_c, 12, 84, 0
30, 332040, Note_on_c, 12, 82, 37
30, 332129, Note_on_c, 12, 82, 0
30, 332160, Note_on_c, 12, 84, 37
30, 332399, Note_on_c, 12, 84, 0
30, 342960, Note_on_c, 12, 86, 56
30, 343139, Note_on_c, 12, 86, 0
30, 343200, Note_on_c, 12, 84, 56
30, 343289, Note_on_c, 12, 84, 0
30, 343320, Note_on_c, 12, 84, 56
30, 343499, Note_on_c, 12, 84, 0
30, 343560, Note_on_c, 12, 82, 56
30, 343680, Note_on_c, 12, 84, 56
30, 343739, Note_on_c, 12, 82, 0
30, 343919, Note_on_c, 12, 84, 0
30, 349800, Note_on_c, 12, 74, 68
30, 350039, Note_on_c, 12, 74, 0
30, 350520, Note_on_c, 12, 74, 68
30, 350759, Note_on_c, 12, 74, 0
30, 351240, Note_on_c, 12, 75, 68
30, 351479, Note_on_c, 12, 75, 0
30, 351960, Note_on_c, 12, 72, 68
30, 352199, Note_on_c, 12, 72, 0
30, 352680, Note_on_c, 12, 70, 80
30, 352680, Note_on_c, 12, 62, 80
30, 352919, Note_on_c, 12, 70, 0
30, 352919, Note_on_c, 12, 62, 0
30, 353400, Note_on_c, 12, 82, 86
30, 353400, Note_on_c, 12, 74, 86
30, 353639, Note_on_c, 12, 82, 0
30, 353639, Note_on_c, 12, 74, 0
30, 354120, Note_on_c, 12, 72, 86
30, 354120, Note_on_c, 12, 81, 86
30, 354359, Note_on_c, 12, 72, 0
30, 354359, Note_on_c, 12, 81, 0
30, 354480, Note_on_c, 12, 86, 86
30, 354659, Note_on_c, 12, 86, 0
30, 354720, Note_on_c, 12, 84, 86
30, 354809, Note_on_c, 12, 84, 0
30, 354840, Note_on_c, 12, 84, 86
30, 355019, Note_on_c, 12, 84, 0
30, 355080, Note_on_c, 12, 82, 86
30, 355169, Note_on_c, 12, 82, 0
30, 355200, Note_on_c, 12, 82, 92
30, 355439, Note_on_c, 12, 82, 0
30, 355560, Note_on_c, 12, 58, 92
30, 355560, Note_on_c, 12, 74, 92
30, 355560, Note_on_c, 12, 65, 92
30, 355799, Note_on_c, 12, 58, 0
30, 355799, Note_on_c, 12, 74, 0
30, 355799, Note_on_c, 12, 65, 0
30, 356280, Note_on_c, 12, 77, 92
30, 356280, Note_on_c, 12, 62, 92
30, 356280, Note_on_c, 12, 70, 92
30, 356519, Note_on_c, 12, 77, 0
30, 356519, Note_on_c, 12, 62, 0
30, 356519, Note_on_c, 12, 70, 0
30, 357000, Note_on_c, 12, 63, 92
30, 357000, Note_on_c, 12, 79, 92
30, 357000, Note_on_c, 12, 70, 92
30, 357239, Note_on_c, 12, 63, 0
30, 357239, Note_on_c, 12, 79, 0
30, 357239, Note_on_c, 12, 70, 0
30, 357720, Note_on_c, 12, 84, 92
30, 357959, Note_on_c, 12, 84, 0
30, 358440, Note_on_c, 12, 84, 92
30, 358679, Note_on_c, 12, 84, 0
30, 359160, Note_on_c, 12, 72, 92
30, 359160, Note_on_c, 12, 81, 92
30, 359160, Note_on_c, 12, 65, 92
30, 359399, Note_on_c, 12, 72, 0
30, 359399, Note_on_c, 12, 81, 0
30, 359399, Note_on_c, 12, 65, 0
30, 359880, Note_on_c, 12, 65, 92
30, 359880, Note_on_c, 12, 81, 92
30, 359880, Note_on_c, 12, 72, 92
30, 360119, Note_on_c, 12, 65, 0
30, 360119, Note_on_c, 12, 81, 0
30, 360119, Note_on_c, 12, 72, 0
30, 360240, Note_on_c, 12, 82, 92
30, 360359, Note_on_c, 12, 82, 0
30, 360360, Note_on_c, 12, 84, 92
30, 360479, Note_on_c, 12, 84, 0
30, 360480, Note_on_c, 12, 86, 92
30, 360719, Note_on_c, 12, 86, 0
30, 360720, Note_on_c, 12, 84, 92
30, 360839, Note_on_c, 12, 84, 0
30, 360840, Note_on_c, 12, 81, 92
30, 360944, Note_on_c, 12, 81, 0
30, 360960, Note_on_c, 12, 82, 92
30, 361199, Note_on_c, 12, 82, 0
30, 363840, Note_on_c, 12, 81, 92
30, 363944, Note_on_c, 12, 81, 0
30, 363960, Note_on_c, 12, 81, 92
30, 364064, Note_on_c, 12, 81, 0
30, 364080, Note_on_c, 12, 81, 92
30, 364184, Note_on_c, 12, 81, 0
30, 364200, Note_on_c, 12, 81, 92
30, 364304, Note_on_c, 12, 81, 0
30, 364320, Note_on_c, 12, 82, 92
30, 364424, Note_on_c, 12, 82, 0
30, 364440, Note_on_c, 12, 84, 92
30, 364544, Note_on_c, 12, 84, 0
30, 364560, Note_on_c, 12, 84, 92
30, 364664, Note_on_c, 12, 84, 0
30, 364680, Note_on_c, 12, 86, 92
30, 364784, Note_on_c, 12, 86, 0
30, 364800, Note_on_c, 12, 84, 92
30, 364904, Note_on_c, 12, 84, 0
30, 364920, Note_on_c, 12, 82, 92
30, 365024, Note_on_c, 12, 82, 0
30, 365040, Note_on_c, 12, 81, 92
30, 365144, Note_on_c, 12, 81, 0
30, 365160, Note_on_c, 12, 79, 92
30, 365264, Note_on_c, 12, 79, 0
30, 365280, Note_on_c, 12, 77, 92
30, 365384, Note_on_c, 12, 77, 0
30, 365400, Note_on_c, 12, 76, 92
30, 365504, Note_on_c, 12, 76, 0
30, 365520, Note_on_c, 12, 77, 92
30, 365624, Note_on_c, 12, 77, 0
30, 365640, Note_on_c, 12, 77, 92
30, 365744, Note_on_c, 12, 77, 0
30, 365760, Note_on_c, 12, 79, 92
30, 365864, Note_on_c, 12, 79, 0
30, 365880, Note_on_c, 12, 81, 92
30, 365984, Note_on_c, 12, 81, 0
30, 366000, Note_on_c, 12, 79, 92
30, 366104, Note_on_c, 12, 79, 0
30, 366120, Note_on_c, 12, 72, 92
30, 366224, Note_on_c, 12, 72, 0
30, 366240, Note_on_c, 12, 72, 92
30, 366344, Note_on_c, 12, 72, 0
30, 366360, Note_on_c, 12, 77, 92
30, 366464, Note_on_c, 12, 77, 0
30, 366480, Note_on_c, 12, 65, 92
30, 366584, Note_on_c, 12, 65, 0
30, 366600, Note_on_c, 12, 65, 92
30, 366704, Note_on_c, 12, 65, 0
30, 366720, Note_on_c, 12, 77, 92
30, 366824, Note_on_c, 12, 77, 0
30, 366840, Note_on_c, 12, 65, 92
30, 366944, Note_on_c, 12, 65, 0
30, 366960, Note_on_c, 12, 65, 92
30, 367064, Note_on_c, 12, 65, 0
30, 367080, Note_on_c, 12, 75, 92
30, 367184, Note_on_c, 12, 75, 0
30, 367200, Note_on_c, 12, 63, 92
30, 367304, Note_on_c, 12, 63, 0
30, 367320, Note_on_c, 12, 63, 92
30, 367424, Note_on_c, 12, 63, 0
30, 367440, Note_on_c, 12, 75, 92
30, 367544, Note_on_c, 12, 75, 0
30, 367560, Note_on_c, 12, 63, 92
30, 367664, Note_on_c, 12, 63, 0
30, 367680, Note_on_c, 12, 63, 92
30, 367784, Note_on_c, 12, 63, 0
30, 367800, Note_on_c, 12, 74, 92
30, 367904, Note_on_c, 12, 74, 0
30, 367920, Note_on_c, 12, 62, 92
30, 368024, Note_on_c, 12, 62, 0
30, 368040, Note_on_c, 12, 62, 92
30, 368144, Note_on_c, 12, 62, 0
30, 368160, Note_on_c, 12, 74, 92
30, 368264, Note_on_c, 12, 74, 0
30, 368280, Note_on_c, 12, 79, 92
30, 368384, Note_on_c, 12, 79, 0
30, 368400, Note_on_c, 12, 81, 92
30, 368504, Note_on_c, 12, 81, 0
30, 368520, Note_on_c, 12, 83, 92
30, 368624, Note_on_c, 12, 83, 0
30, 368640, Note_on_c, 12, 83, 92
30, 368744, Note_on_c, 12, 83, 0
30, 368760, Note_on_c, 12, 83, 92
30, 368864, Note_on_c, 12, 83, 0
30, 368880, Note_on_c, 12, 83, 92
30, 368984, Note_on_c, 12, 83, 0
30, 369000, Note_on_c, 12, 84, 92
30, 369104, Note_on_c, 12, 84, 0
30, 369120, Note_on_c, 12, 84, 92
30, 369224, Note_on_c, 12, 84, 0
30, 369240, Note_on_c, 12, 84, 92
30, 369344, Note_on_c, 12, 84, 0
30, 369360, Note_on_c, 12, 84, 92
30, 369464, Note_on_c, 12, 84, 0
30, 369480, Note_on_c, 12, 84, 92
30, 369584, Note_on_c, 12, 84, 0
30, 369600, Note_on_c, 12, 84, 92
30, 369704, Note_on_c, 12, 84, 0
30, 369720, Note_on_c, 12, 84, 92
30, 369824, Note_on_c, 12, 84, 0
30, 369840, Note_on_c, 12, 86, 92
30, 369944, Note_on_c, 12, 86, 0
30, 369960, Note_on_c, 12, 86, 92
30, 370064, Note_on_c, 12, 86, 0
30, 370080, Note_on_c, 12, 84, 92
30, 370184, Note_on_c, 12, 84, 0
30, 370200, Note_on_c, 12, 83, 92
30, 370304, Note_on_c, 12, 83, 0
30, 370320, Note_on_c, 12, 74, 92
30, 370424, Note_on_c, 12, 74, 0
30, 370440, Note_on_c, 12, 76, 92
30, 370544, Note_on_c, 12, 76, 0
30, 370560, Note_on_c, 12, 78, 92
30, 370664, Note_on_c, 12, 78, 0
30, 370680, Note_on_c, 12, 79, 92
30, 370784, Note_on_c, 12, 79, 0
30, 370800, Note_on_c, 12, 79, 92
30, 370904, Note_on_c, 12, 79, 0
30, 370920, Note_on_c, 12, 79, 92
30, 371024, Note_on_c, 12, 79, 0
30, 371040, Note_on_c, 12, 79, 92
30, 371144, Note_on_c, 12, 79, 0
30, 371160, Note_on_c, 12, 79, 92
30, 371264, Note_on_c, 12, 79, 0
30, 371280, Note_on_c, 12, 79, 92
30, 371384, Note_on_c, 12, 79, 0
30, 371400, Note_on_c, 12, 86, 92
30, 371504, Note_on_c, 12, 86, 0
30, 371520, Note_on_c, 12, 86, 92
30, 371624, Note_on_c, 12, 86, 0
30, 371640, Note_on_c, 12, 86, 92
30, 371744, Note_on_c, 12, 86, 0
30, 371760, Note_on_c, 12, 84, 92
30, 371864, Note_on_c, 12, 84, 0
30, 371880, Note_on_c, 12, 84, 92
30, 371984, Note_on_c, 12, 84, 0
30, 372000, Note_on_c, 12, 84, 92
30, 372104, Note_on_c, 12, 84, 0
30, 372120, Note_on_c, 12, 83, 92
30, 372224, Note_on_c, 12, 83, 0
30, 372240, Note_on_c, 12, 83, 92
30, 372344, Note_on_c, 12, 83, 0
30, 372360, Note_on_c, 12, 83, 92
30, 372464, Note_on_c, 12, 83, 0
30, 372480, Note_on_c, 12, 83, 92
30, 372584, Note_on_c, 12, 83, 0
30, 372600, Note_on_c, 12, 83, 92
30, 372704, Note_on_c, 12, 83, 0
30, 372720, Note_on_c, 12, 84, 92
30, 372824, Note_on_c, 12, 84, 0
30, 372840, Note_on_c, 12, 84, 92
30, 372944, Note_on_c, 12, 84, 0
30, 372960, Note_on_c, 12, 84, 92
30, 373064, Note_on_c, 12, 84, 0
30, 373080, Note_on_c, 12, 84, 92
30, 373184, Note_on_c, 12, 84, 0
30, 373200, Note_on_c, 12, 84, 92
30, 373304, Note_on_c, 12, 84, 0
30, 373320, Note_on_c, 12, 84, 92
30, 373424, Note_on_c, 12, 84, 0
30, 373440, Note_on_c, 12, 84, 92
30, 373544, Note_on_c, 12, 84, 0
30, 373560, Note_on_c, 12, 83, 92
30, 373664, Note_on_c, 12, 83, 0
30, 373680, Note_on_c, 12, 83, 92
30, 373784, Note_on_c, 12, 83, 0
30, 373800, Note_on_c, 12, 83, 92
30, 373919, Note_on_c, 12, 83, 0
30, 374160, Note_on_c, 12, 72, 92
30, 374264, Note_on_c, 12, 72, 0
30, 374280, Note_on_c, 12, 72, 104
30, 374339, Note_on_c, 12, 72, 0
30, 374340, Note_on_c, 12, 72, 92
30, 374864, Note_on_c, 12, 72, 0
30, 374880, Note_on_c, 12, 74, 92
30, 374984, Note_on_c, 12, 74, 0
30, 375000, Note_on_c, 12, 74, 104
30, 375059, Note_on_c, 12, 74, 0
30, 375060, Note_on_c, 12, 74, 92
30, 375584, Note_on_c, 12, 74, 0
30, 375600, Note_on_c, 12, 75, 92
30, 375704, Note_on_c, 12, 75, 0
30, 375720, Note_on_c, 12, 80, 92
30, 375944, Note_on_c, 12, 80, 0
30, 375960, Note_on_c, 12, 79, 92
30, 376064, Note_on_c, 12, 79, 0
30, 376080, Note_on_c, 12, 77, 92
30, 376319, Note_on_c, 12, 77, 0
30, 376440, Note_on_c, 12, 75, 92
30, 376679, Note_on_c, 12, 75, 0
30, 377040, Note_on_c, 12, 77, 92
30, 377144, Note_on_c, 12, 77, 0
30, 377160, Note_on_c, 12, 82, 92
30, 377384, Note_on_c, 12, 82, 0
30, 377400, Note_on_c, 12, 80, 92
30, 377504, Note_on_c, 12, 80, 0
30, 377520, Note_on_c, 12, 79, 92
30, 377759, Note_on_c, 12, 79, 0
30, 377880, Note_on_c, 12, 77, 92
30, 378119, Note_on_c, 12, 77, 0
30, 378240, Note_on_c, 12, 82, 92
30, 378464, Note_on_c, 12, 82, 0
30, 378480, Note_on_c, 12, 75, 92
30, 378584, Note_on_c, 12, 75, 0
30, 378600, Note_on_c, 12, 75, 104
30, 378659, Note_on_c, 12, 75, 0
30, 378660, Note_on_c, 12, 75, 92
30, 379184, Note_on_c, 12, 75, 0
30, 379200, Note_on_c, 12, 77, 92
30, 379304, Note_on_c, 12, 77, 0
30, 379320, Note_on_c, 12, 77, 104
30, 379379, Note_on_c, 12, 77, 0
30, 379380, Note_on_c, 12, 77, 92
30, 379904, Note_on_c, 12, 77, 0
30, 379920, Note_on_c, 12, 79, 92
30, 380024, Note_on_c, 12, 79, 0
30, 380040, Note_on_c, 12, 84, 92
30, 380264, Note_on_c, 12, 84, 0
30, 380280, Note_on_c, 12, 82, 92
30, 380384, Note_on_c, 12, 82, 0
30, 380400, Note_on_c, 12, 80, 92
30, 380639, Note_on_c, 12, 80, 0
30, 380760, Note_on_c, 12, 79, 92
30, 380999, Note_on_c, 12, 79, 0
30, 381360, Note_on_c, 12, 80, 92
30, 381464, Note_on_c, 12, 80, 0
30, 381480, Note_on_c, 12, 85, 92
30, 381704, Note_on_c, 12, 85, 0
30, 381720, Note_on_c, 12, 84, 92
30, 381824, Note_on_c, 12, 84, 0
30, 381840, Note_on_c, 12, 82, 92
30, 382079, Note_on_c, 12, 82, 0
30, 382200, Note_on_c, 12, 80, 92
30, 382439, Note_on_c, 12, 80, 0
30, 382800, Note_on_c, 12, 82, 92
30, 382904, Note_on_c, 12, 82, 0
30, 382920, Note_on_c, 12, 87, 92
30, 383144, Note_on_c, 12, 87, 0
30, 383160, Note_on_c, 12, 85, 92
30, 383264, Note_on_c, 12, 85, 0
30, 383280, Note_on_c, 12, 84, 92
30, 383519, Note_on_c, 12, 84, 0
30, 383640, Note_on_c, 12, 82, 92
30, 383879, Note_on_c, 12, 82, 0
30, 384000, Note_on_c, 12, 81, 92
30, 384224, Note_on_c, 12, 81, 0
30, 384240, Note_on_c, 12, 81, 92
30, 384344, Note_on_c, 12, 81, 0
30, 384360, Note_on_c, 12, 81, 104
30, 384419, Note_on_c, 12, 81, 0
30, 384420, Note_on_c, 12, 81, 92
30, 384944, Note_on_c, 12, 81, 0
30, 384960, Note_on_c, 12, 81, 92
30, 385064, Note_on_c, 12, 81, 0
30, 385080, Note_on_c, 12, 81, 104
30, 385139, Note_on_c, 12, 81, 0
30, 385140, Note_on_c, 12, 81, 92
30, 385664, Note_on_c, 12, 81, 0
30, 385680, Note_on_c, 12, 82, 92
30, 385784, Note_on_c, 12, 82, 0
30, 385800, Note_on_c, 12, 82, 104
30, 385859, Note_on_c, 12, 82, 0
30, 385860, Note_on_c, 12, 82, 92
30, 386384, Note_on_c, 12, 82, 0
30, 386400, Note_on_c, 12, 82, 92
30, 386504, Note_on_c, 12, 82, 0
30, 386520, Note_on_c, 12, 82, 104
30, 386579, Note_on_c, 12, 82, 0
30, 386580, Note_on_c, 12, 82, 92
30, 387104, Note_on_c, 12, 82, 0
30, 387120, Note_on_c, 12, 82, 92
30, 387224, Note_on_c, 12, 82, 0
30, 387240, Note_on_c, 12, 82, 104
30, 387299, Note_on_c, 12, 82, 0
30, 387300, Note_on_c, 12, 82, 92
30, 387824, Note_on_c, 12, 82, 0
30, 387840, Note_on_c, 12, 82, 92
30, 387944, Note_on_c, 12, 82, 0
30, 387960, Note_on_c, 12, 82, 92
30, 388184, Note_on_c, 12, 82, 0
30, 388200, Note_on_c, 12, 81, 92
30, 388304, Note_on_c, 12, 81, 0
30, 388320, Note_on_c, 12, 82, 92
30, 388424, Note_on_c, 12, 82, 0
30, 388440, Note_on_c, 12, 82, 92
30, 388544, Note_on_c, 12, 82, 0
30, 388560, Note_on_c, 12, 82, 92
30, 388664, Note_on_c, 12, 82, 0
30, 388680, Note_on_c, 12, 82, 92
30, 388784, Note_on_c, 12, 82, 0
30, 388800, Note_on_c, 12, 84, 92
30, 388904, Note_on_c, 12, 84, 0
30, 388920, Note_on_c, 12, 85, 92
30, 389024, Note_on_c, 12, 85, 0
30, 389040, Note_on_c, 12, 85, 92
30, 389144, Note_on_c, 12, 85, 0
30, 389160, Note_on_c, 12, 87, 92
30, 389264, Note_on_c, 12, 87, 0
30, 389280, Note_on_c, 12, 85, 92
30, 389384, Note_on_c, 12, 85, 0
30, 389400, Note_on_c, 12, 84, 92
30, 389504, Note_on_c, 12, 84, 0
30, 389520, Note_on_c, 12, 82, 92
30, 389624, Note_on_c, 12, 82, 0
30, 389640, Note_on_c, 12, 81, 92
30, 389744, Note_on_c, 12, 81, 0
30, 389760, Note_on_c, 12, 82, 92
30, 389999, Note_on_c, 12, 82, 0
30, 390480, Note_on_c, 12, 71, 92
30, 390584, Note_on_c, 12, 71, 0
30, 390600, Note_on_c, 12, 73, 92
30, 390704, Note_on_c, 12, 73, 0
30, 390720, Note_on_c, 12, 71, 92
30, 390824, Note_on_c, 12, 71, 0
30, 390840, Note_on_c, 12, 71, 92
30, 390944, Note_on_c, 12, 71, 0
30, 390960, Note_on_c, 12, 73, 92
30, 391064, Note_on_c, 12, 73, 0
30, 391080, Note_on_c, 12, 75, 92
30, 391184, Note_on_c, 12, 75, 0
30, 391200, Note_on_c, 12, 77, 92
30, 391439, Note_on_c, 12, 77, 0
30, 391560, Note_on_c, 12, 77, 92
30, 391664, Note_on_c, 12, 77, 0
30, 391680, Note_on_c, 12, 78, 92
30, 391784, Note_on_c, 12, 78, 0
30, 391800, Note_on_c, 12, 80, 92
30, 391904, Note_on_c, 12, 80, 0
30, 391920, Note_on_c, 12, 82, 92
30, 392024, Note_on_c, 12, 82, 0
30, 392040, Note_on_c, 12, 77, 92
30, 392144, Note_on_c, 12, 77, 0
30, 392160, Note_on_c, 12, 74, 92
30, 392264, Note_on_c, 12, 74, 0
30, 392280, Note_on_c, 12, 75, 92
30, 392384, Note_on_c, 12, 75, 0
30, 392400, Note_on_c, 12, 77, 92
30, 392504, Note_on_c, 12, 77, 0
30, 392520, Note_on_c, 12, 78, 92
30, 392624, Note_on_c, 12, 78, 0
30, 392640, Note_on_c, 12, 83, 92
30, 392744, Note_on_c, 12, 83, 0
30, 392760, Note_on_c, 12, 82, 92
30, 392864, Note_on_c, 12, 82, 0
30, 392880, Note_on_c, 12, 78, 92
30, 392984, Note_on_c, 12, 78, 0
30, 393000, Note_on_c, 12, 80, 92
30, 393104, Note_on_c, 12, 80, 0
30, 393120, Note_on_c, 12, 82, 92
30, 393224, Note_on_c, 12, 82, 0
30, 393240, Note_on_c, 12, 83, 92
30, 393344, Note_on_c, 12, 83, 0
30, 393360, Note_on_c, 12, 85, 92
30, 393464, Note_on_c, 12, 85, 0
30, 393480, Note_on_c, 12, 83, 92
30, 393584, Note_on_c, 12, 83, 0
30, 393600, Note_on_c, 12, 82, 92
30, 393704, Note_on_c, 12, 82, 0
30, 393720, Note_on_c, 12, 70, 92
30, 393824, Note_on_c, 12, 70, 0
30, 393840, Note_on_c, 12, 70, 92
30, 393944, Note_on_c, 12, 70, 0
30, 393960, Note_on_c, 12, 70, 92
30, 394064, Note_on_c, 12, 70, 0
30, 394080, Note_on_c, 12, 70, 92
30, 394184, Note_on_c, 12, 70, 0
30, 394200, Note_on_c, 12, 71, 92
30, 394304, Note_on_c, 12, 71, 0
30, 394320, Note_on_c, 12, 73, 92
30, 394424, Note_on_c, 12, 73, 0
30, 394440, Note_on_c, 12, 73, 92
30, 394544, Note_on_c, 12, 73, 0
30, 394560, Note_on_c, 12, 75, 92
30, 394664, Note_on_c, 12, 75, 0
30, 394680, Note_on_c, 12, 73, 92
30, 394784, Note_on_c, 12, 73, 0
30, 394800, Note_on_c, 12, 71, 92
30, 394904, Note_on_c, 12, 71, 0
30, 394920, Note_on_c, 12, 70, 92
30, 395024, Note_on_c, 12, 70, 0
30, 395040, Note_on_c, 12, 68, 92
30, 395144, Note_on_c, 12, 68, 0
30, 395160, Note_on_c, 12, 66, 92
30, 395264, Note_on_c, 12, 66, 0
30, 395280, Note_on_c, 12, 66, 92
30, 395384, Note_on_c, 12, 66, 0
30, 395400, Note_on_c, 12, 66, 92
30, 395504, Note_on_c, 12, 66, 0
30, 395520, Note_on_c, 12, 66, 92
30, 395624, Note_on_c, 12, 66, 0
30, 395640, Note_on_c, 12, 68, 92
30, 395744, Note_on_c, 12, 68, 0
30, 395760, Note_on_c, 12, 70, 92
30, 395864, Note_on_c, 12, 70, 0
30, 395880, Note_on_c, 12, 70, 92
30, 395984, Note_on_c, 12, 70, 0
30, 396000, Note_on_c, 12, 71, 92
30, 396104, Note_on_c, 12, 71, 0
30, 396120, Note_on_c, 12, 70, 92
30, 396224, Note_on_c, 12, 70, 0
30, 396240, Note_on_c, 12, 68, 92
30, 396344, Note_on_c, 12, 68, 0
30, 396360, Note_on_c, 12, 66, 92
30, 396464, Note_on_c, 12, 66, 0
30, 396480, Note_on_c, 12, 65, 92
30, 396584, Note_on_c, 12, 65, 0
30, 396600, Note_on_c, 12, 63, 92
30, 396704, Note_on_c, 12, 63, 0
30, 396720, Note_on_c, 12, 66, 92
30, 396824, Note_on_c, 12, 66, 0
30, 396840, Note_on_c, 12, 66, 92
30, 396944, Note_on_c, 12, 66, 0
30, 396960, Note_on_c, 12, 66, 92
30, 397064, Note_on_c, 12, 66, 0
30, 397080, Note_on_c, 12, 68, 92
30, 397184, Note_on_c, 12, 68, 0
30, 397200, Note_on_c, 12, 70, 92
30, 397304, Note_on_c, 12, 70, 0
30, 397320, Note_on_c, 12, 70, 92
30, 397424, Note_on_c, 12, 70, 0
30, 397440, Note_on_c, 12, 71, 92
30, 397544, Note_on_c, 12, 71, 0
30, 397560, Note_on_c, 12, 70, 92
30, 397664, Note_on_c, 12, 70, 0
30, 397680, Note_on_c, 12, 68, 92
30, 397784, Note_on_c, 12, 68, 0
30, 397800, Note_on_c, 12, 66, 92
30, 397904, Note_on_c, 12, 66, 0
30, 397920, Note_on_c, 12, 65, 92
30, 398024, Note_on_c, 12, 65, 0
30, 398040, Note_on_c, 12, 63, 92
30, 398144, Note_on_c, 12, 63, 0
30, 398160, Note_on_c, 12, 70, 92
30, 398264, Note_on_c, 12, 70, 0
30, 398280, Note_on_c, 12, 68, 92
30, 398384, Note_on_c, 12, 68, 0
30, 398400, Note_on_c, 12, 66, 92
30, 398504, Note_on_c, 12, 66, 0
30, 398520, Note_on_c, 12, 65, 92
30, 398624, Note_on_c, 12, 65, 0
30, 398640, Note_on_c, 12, 63, 92
30, 398744, Note_on_c, 12, 63, 0
30, 398760, Note_on_c, 12, 61, 92
30, 398864, Note_on_c, 12, 61, 0
30, 398880, Note_on_c, 12, 68, 92
30, 398984, Note_on_c, 12, 68, 0
30, 399000, Note_on_c, 12, 66, 92
30, 399104, Note_on_c, 12, 66, 0
30, 399120, Note_on_c, 12, 65, 92
30, 399224, Note_on_c, 12, 65, 0
30, 399240, Note_on_c, 12, 63, 92
30, 399344, Note_on_c, 12, 63, 0
30, 399360, Note_on_c, 12, 61, 92
30, 399464, Note_on_c, 12, 61, 0
30, 399480, Note_on_c, 12, 60, 92
30, 399584, Note_on_c, 12, 60, 0
30, 399600, Note_on_c, 12, 65, 92
30, 399704, Note_on_c, 12, 65, 0
30, 399720, Note_on_c, 12, 63, 92
30, 399824, Note_on_c, 12, 63, 0
30, 399840, Note_on_c, 12, 61, 92
30, 400079, Note_on_c, 12, 61, 0
30, 400200, Note_on_c, 12, 82, 92
30, 400304, Note_on_c, 12, 82, 0
30, 400320, Note_on_c, 12, 82, 92
30, 400424, Note_on_c, 12, 82, 0
30, 400440, Note_on_c, 12, 82, 92
30, 400544, Note_on_c, 12, 82, 0
30, 400560, Note_on_c, 12, 82, 92
30, 400664, Note_on_c, 12, 82, 0
30, 400680, Note_on_c, 12, 84, 92
30, 400784, Note_on_c, 12, 84, 0
30, 400800, Note_on_c, 12, 85, 92
30, 400904, Note_on_c, 12, 85, 0
30, 400920, Note_on_c, 12, 85, 92
30, 401024, Note_on_c, 12, 85, 0
30, 401040, Note_on_c, 12, 84, 92
30, 401144, Note_on_c, 12, 84, 0
30, 401160, Note_on_c, 12, 82, 92
30, 401279, Note_on_c, 12, 82, 0
30, 401640, Note_on_c, 12, 82, 92
30, 401744, Note_on_c, 12, 82, 0
30, 401760, Note_on_c, 12, 82, 92
30, 401864, Note_on_c, 12, 82, 0
30, 401880, Note_on_c, 12, 82, 92
30, 401984, Note_on_c, 12, 82, 0
30, 402000, Note_on_c, 12, 82, 92
30, 402104, Note_on_c, 12, 82, 0
30, 402120, Note_on_c, 12, 83, 92
30, 402224, Note_on_c, 12, 83, 0
30, 402240, Note_on_c, 12, 85, 92
30, 402344, Note_on_c, 12, 85, 0
30, 402360, Note_on_c, 12, 85, 92
30, 402464, Note_on_c, 12, 85, 0
30, 402480, Note_on_c, 12, 83, 92
30, 402584, Note_on_c, 12, 83, 0
30, 402600, Note_on_c, 12, 82, 92
30, 402719, Note_on_c, 12, 82, 0
30, 403080, Note_on_c, 12, 82, 92
30, 403184, Note_on_c, 12, 82, 0
30, 403200, Note_on_c, 12, 82, 92
30, 403304, Note_on_c, 12, 82, 0
30, 403320, Note_on_c, 12, 82, 92
30, 403424, Note_on_c, 12, 82, 0
30, 403440, Note_on_c, 12, 82, 92
30, 403544, Note_on_c, 12, 82, 0
30, 403560, Note_on_c, 12, 83, 92
30, 403664, Note_on_c, 12, 83, 0
30, 403680, Note_on_c, 12, 85, 92
30, 403784, Note_on_c, 12, 85, 0
30, 403800, Note_on_c, 12, 76, 92
30, 403904, Note_on_c, 12, 76, 0
30, 403920, Note_on_c, 12, 74, 92
30, 404024, Note_on_c, 12, 74, 0
30, 404040, Note_on_c, 12, 73, 92
30, 404144, Note_on_c, 12, 73, 0
30, 404160, Note_on_c, 12, 71, 92
30, 404384, Note_on_c, 12, 71, 0
30, 404400, Note_on_c, 12, 83, 92
30, 404504, Note_on_c, 12, 83, 0
30, 404520, Note_on_c, 12, 83, 104
30, 404579, Note_on_c, 12, 83, 0
30, 404580, Note_on_c, 12, 83, 92
30, 405104, Note_on_c, 12, 83, 0
30, 405120, Note_on_c, 12, 85, 92
30, 405224, Note_on_c, 12, 85, 0
30, 405240, Note_on_c, 12, 85, 80
30, 405464, Note_on_c, 12, 85, 0
30, 405600, Note_on_c, 12, 75, 80
30, 405704, Note_on_c, 12, 75, 0
30, 405720, Note_on_c, 12, 76, 80
30, 405824, Note_on_c, 12, 76, 0
30, 405840, Note_on_c, 12, 78, 80
30, 405891, Note_on_c, 12, 78, 0
30, 405900, Note_on_c, 12, 79, 80
30, 405951, Note_on_c, 12, 79, 0
30, 405960, Note_on_c, 12, 79, 80
30, 406064, Note_on_c, 12, 79, 0
30, 406080, Note_on_c, 12, 79, 80
30, 406184, Note_on_c, 12, 79, 0
30, 406200, Note_on_c, 12, 79, 80
30, 406304, Note_on_c, 12, 79, 0
30, 406320, Note_on_c, 12, 79, 80
30, 406424, Note_on_c, 12, 79, 0
30, 406440, Note_on_c, 12, 81, 80
30, 406544, Note_on_c, 12, 81, 0
30, 406560, Note_on_c, 12, 79, 80
30, 406664, Note_on_c, 12, 79, 0
30, 406680, Note_on_c, 12, 78, 80
30, 406784, Note_on_c, 12, 78, 0
30, 406800, Note_on_c, 12, 76, 80
30, 406904, Note_on_c, 12, 76, 0
30, 406920, Note_on_c, 12, 75, 80
30, 407024, Note_on_c, 12, 75, 0
30, 407040, Note_on_c, 12, 84, 80
30, 407144, Note_on_c, 12, 84, 0
30, 407160, Note_on_c, 12, 84, 80
30, 407264, Note_on_c, 12, 84, 0
30, 407280, Note_on_c, 12, 84, 80
30, 407384, Note_on_c, 12, 84, 0
30, 407400, Note_on_c, 12, 84, 80
30, 407504, Note_on_c, 12, 84, 0
30, 407520, Note_on_c, 12, 83, 80
30, 407624, Note_on_c, 12, 83, 0
30, 407640, Note_on_c, 12, 81, 80
30, 407744, Note_on_c, 12, 81, 0
30, 407760, Note_on_c, 12, 78, 80
30, 407864, Note_on_c, 12, 78, 0
30, 407880, Note_on_c, 12, 79, 80
30, 407984, Note_on_c, 12, 79, 0
30, 408000, Note_on_c, 12, 79, 80
30, 408104, Note_on_c, 12, 79, 0
30, 408120, Note_on_c, 12, 79, 80
30, 408224, Note_on_c, 12, 79, 0
30, 408240, Note_on_c, 12, 81, 80
30, 408344, Note_on_c, 12, 81, 0
30, 408360, Note_on_c, 12, 83, 80
30, 408464, Note_on_c, 12, 83, 0
30, 408480, Note_on_c, 12, 83, 80
30, 408584, Note_on_c, 12, 83, 0
30, 408600, Note_on_c, 12, 84, 80
30, 408704, Note_on_c, 12, 84, 0
30, 408720, Note_on_c, 12, 83, 80
30, 408824, Note_on_c, 12, 83, 0
30, 408840, Note_on_c, 12, 81, 80
30, 408944, Note_on_c, 12, 81, 0
30, 408960, Note_on_c, 12, 79, 80
30, 409064, Note_on_c, 12, 79, 0
30, 409080, Note_on_c, 12, 78, 80
30, 409184, Note_on_c, 12, 78, 0
30, 409200, Note_on_c, 12, 81, 80
30, 409304, Note_on_c, 12, 81, 0
30, 409320, Note_on_c, 12, 83, 80
30, 409424, Note_on_c, 12, 83, 0
30, 409440, Note_on_c, 12, 81, 80
30, 409544, Note_on_c, 12, 81, 0
30, 409560, Note_on_c, 12, 79, 80
30, 409664, Note_on_c, 12, 79, 0
30, 409680, Note_on_c, 12, 78, 80
30, 409784, Note_on_c, 12, 78, 0
30, 409800, Note_on_c, 12, 76, 80
30, 409904, Note_on_c, 12, 76, 0
30, 409920, Note_on_c, 12, 79, 80
30, 410024, Note_on_c, 12, 79, 0
30, 410040, Note_on_c, 12, 81, 80
30, 410144, Note_on_c, 12, 81, 0
30, 410160, Note_on_c, 12, 79, 80
30, 410264, Note_on_c, 12, 79, 0
30, 410280, Note_on_c, 12, 78, 80
30, 410384, Note_on_c, 12, 78, 0
30, 410400, Note_on_c, 12, 76, 80
30, 410504, Note_on_c, 12, 76, 0
30, 410520, Note_on_c, 12, 74, 80
30, 410624, Note_on_c, 12, 74, 0
30, 410640, Note_on_c, 12, 78, 80
30, 410744, Note_on_c, 12, 78, 0
30, 410760, Note_on_c, 12, 79, 80
30, 410864, Note_on_c, 12, 79, 0
30, 410880, Note_on_c, 12, 78, 80
30, 410984, Note_on_c, 12, 78, 0
30, 411000, Note_on_c, 12, 76, 80
30, 411104, Note_on_c, 12, 76, 0
30, 411120, Note_on_c, 12, 74, 80
30, 411224, Note_on_c, 12, 74, 0
30, 411240, Note_on_c, 12, 73, 80
30, 411344, Note_on_c, 12, 73, 0
30, 411360, Note_on_c, 12, 76, 80
30, 411464, Note_on_c, 12, 76, 0
30, 411480, Note_on_c, 12, 78, 80
30, 411584, Note_on_c, 12, 78, 0
30, 411600, Note_on_c, 12, 76, 80
30, 411704, Note_on_c, 12, 76, 0
30, 411720, Note_on_c, 12, 74, 80
30, 411824, Note_on_c, 12, 74, 0
30, 411840, Note_on_c, 12, 73, 80
30, 411944, Note_on_c, 12, 73, 0
30, 411960, Note_on_c, 12, 71, 80
30, 412064, Note_on_c, 12, 71, 0
30, 412080, Note_on_c, 12, 70, 80
30, 412184, Note_on_c, 12, 70, 0
30, 412200, Note_on_c, 12, 82, 80
30, 412304, Note_on_c, 12, 82, 0
30, 412320, Note_on_c, 12, 82, 80
30, 412424, Note_on_c, 12, 82, 0
30, 412440, Note_on_c, 12, 83, 80
30, 412544, Note_on_c, 12, 83, 0
30, 412560, Note_on_c, 12, 83, 80
30, 412664, Note_on_c, 12, 83, 0
30, 412680, Note_on_c, 12, 83, 80
30, 412784, Note_on_c, 12, 83, 0
30, 412800, Note_on_c, 12, 85, 80
30, 413024, Note_on_c, 12, 85, 0
30, 413040, Note_on_c, 12, 78, 80
30, 413144, Note_on_c, 12, 78, 0
30, 413160, Note_on_c, 12, 78, 92
30, 413219, Note_on_c, 12, 78, 0
30, 413220, Note_on_c, 12, 78, 80
30, 413744, Note_on_c, 12, 78, 0
30, 413760, Note_on_c, 12, 78, 80
30, 413864, Note_on_c, 12, 78, 0
30, 413880, Note_on_c, 12, 80, 92
30, 413939, Note_on_c, 12, 80, 0
30, 413940, Note_on_c, 12, 80, 80
30, 414119, Note_on_c, 12, 80, 0
30, 414240, Note_on_c, 12, 71, 80
30, 414344, Note_on_c, 12, 71, 0
30, 414360, Note_on_c, 12, 73, 80
30, 414464, Note_on_c, 12, 73, 0
30, 414480, Note_on_c, 12, 74, 80
30, 414584, Note_on_c, 12, 74, 0
30, 414600, Note_on_c, 12, 74, 92
30, 414704, Note_on_c, 12, 74, 0
30, 414720, Note_on_c, 12, 74, 80
30, 414824, Note_on_c, 12, 74, 0
30, 414840, Note_on_c, 12, 74, 80
30, 414944, Note_on_c, 12, 74, 0
30, 414960, Note_on_c, 12, 74, 80
30, 415064, Note_on_c, 12, 74, 0
30, 415080, Note_on_c, 12, 76, 80
30, 415184, Note_on_c, 12, 76, 0
30, 415200, Note_on_c, 12, 74, 80
30, 415304, Note_on_c, 12, 74, 0
30, 415320, Note_on_c, 12, 73, 80
30, 415424, Note_on_c, 12, 73, 0
30, 415440, Note_on_c, 12, 71, 80
30, 415544, Note_on_c, 12, 71, 0
30, 415560, Note_on_c, 12, 70, 80
30, 415664, Note_on_c, 12, 70, 0
30, 415680, Note_on_c, 12, 85, 80
30, 415904, Note_on_c, 12, 85, 0
30, 415920, Note_on_c, 12, 82, 80
30, 416024, Note_on_c, 12, 82, 0
30, 416040, Note_on_c, 12, 82, 92
30, 416099, Note_on_c, 12, 82, 0
30, 416100, Note_on_c, 12, 82, 80
30, 416624, Note_on_c, 12, 82, 0
30, 416640, Note_on_c, 12, 82, 80
30, 416744, Note_on_c, 12, 82, 0
30, 416760, Note_on_c, 12, 83, 92
30, 416819, Note_on_c, 12, 83, 0
30, 416820, Note_on_c, 12, 83, 80
30, 416999, Note_on_c, 12, 83, 0
30, 417120, Note_on_c, 12, 80, 80
30, 417344, Note_on_c, 12, 80, 0
30, 417360, Note_on_c, 12, 68, 80
30, 417464, Note_on_c, 12, 68, 0
30, 417480, Note_on_c, 12, 68, 92
30, 417539, Note_on_c, 12, 68, 0
30, 417540, Note_on_c, 12, 68, 80
30, 418064, Note_on_c, 12, 68, 0
30, 418080, Note_on_c, 12, 68, 80
30, 418184, Note_on_c, 12, 68, 0
30, 418200, Note_on_c, 12, 70, 80
30, 418424, Note_on_c, 12, 70, 0
30, 418440, Note_on_c, 12, 70, 80
30, 418544, Note_on_c, 12, 70, 0
30, 418560, Note_on_c, 12, 70, 80
30, 418784, Note_on_c, 12, 70, 0
30, 418800, Note_on_c, 12, 70, 80
30, 418904, Note_on_c, 12, 70, 0
30, 418920, Note_on_c, 12, 71, 80
30, 419144, Note_on_c, 12, 71, 0
30, 419160, Note_on_c, 12, 71, 80
30, 419264, Note_on_c, 12, 71, 0
30, 419280, Note_on_c, 12, 71, 80
30, 419504, Note_on_c, 12, 71, 0
30, 419520, Note_on_c, 12, 71, 80
30, 419624, Note_on_c, 12, 71, 0
30, 419640, Note_on_c, 12, 73, 80
30, 419864, Note_on_c, 12, 73, 0
30, 419880, Note_on_c, 12, 73, 80
30, 419984, Note_on_c, 12, 73, 0
30, 420000, Note_on_c, 12, 73, 80
30, 420224, Note_on_c, 12, 73, 0
30, 420240, Note_on_c, 12, 73, 80
30, 420344, Note_on_c, 12, 73, 0
30, 420360, Note_on_c, 12, 74, 80
30, 420584, Note_on_c, 12, 74, 0
30, 420600, Note_on_c, 12, 74, 80
30, 420704, Note_on_c, 12, 74, 0
30, 420720, Note_on_c, 12, 75, 80
30, 420944, Note_on_c, 12, 75, 0
30, 420960, Note_on_c, 12, 75, 80
30, 421064, Note_on_c, 12, 75, 0
30, 421080, Note_on_c, 12, 76, 80
30, 421304, Note_on_c, 12, 76, 0
30, 421320, Note_on_c, 12, 76, 80
30, 421424, Note_on_c, 12, 76, 0
30, 421440, Note_on_c, 12, 76, 80
30, 421664, Note_on_c, 12, 76, 0
30, 421680, Note_on_c, 12, 76, 80
30, 421784, Note_on_c, 12, 76, 0
30, 421800, Note_on_c, 12, 77, 80
30, 422024, Note_on_c, 12, 77, 0
30, 422040, Note_on_c, 12, 77, 80
30, 422144, Note_on_c, 12, 77, 0
30, 422160, Note_on_c, 12, 77, 80
30, 422384, Note_on_c, 12, 77, 0
30, 422400, Note_on_c, 12, 77, 80
30, 422504, Note_on_c, 12, 77, 0
30, 422520, Note_on_c, 12, 78, 80
30, 422744, Note_on_c, 12, 78, 0
30, 422760, Note_on_c, 12, 78, 80
30, 422864, Note_on_c, 12, 78, 0
30, 422880, Note_on_c, 12, 78, 92
30, 423104, Note_on_c, 12, 78, 0
30, 423120, Note_on_c, 12, 78, 92
30, 423224, Note_on_c, 12, 78, 0
30, 423240, Note_on_c, 12, 90, 104
30, 423299, Note_on_c, 12, 90, 0
30, 423300, Note_on_c, 12, 90, 92
30, 423824, Note_on_c, 12, 90, 0
30, 423840, Note_on_c, 12, 90, 92
30, 423944, Note_on_c, 12, 90, 0
30, 423960, Note_on_c, 12, 78, 104
30, 424019, Note_on_c, 12, 78, 0
30, 424020, Note_on_c, 12, 78, 92
30, 424544, Note_on_c, 12, 78, 0
30, 424560, Note_on_c, 12, 78, 92
30, 424664, Note_on_c, 12, 78, 0
30, 424680, Note_on_c, 12, 66, 104
30, 424739, Note_on_c, 12, 66, 0
30, 424740, Note_on_c, 12, 66, 92
30, 425264, Note_on_c, 12, 66, 0
30, 425280, Note_on_c, 12, 66, 92
30, 425384, Note_on_c, 12, 66, 0
30, 425400, Note_on_c, 12, 78, 104
30, 425459, Note_on_c, 12, 78, 0
30, 425460, Note_on_c, 12, 78, 92
30, 425984, Note_on_c, 12, 78, 0
30, 426000, Note_on_c, 12, 78, 92
30, 426104, Note_on_c, 12, 78, 0
30, 426120, Note_on_c, 12, 90, 104
30, 426179, Note_on_c, 12, 90, 0
30, 426180, Note_on_c, 12, 90, 92
30, 426704, Note_on_c, 12, 90, 0
30, 426720, Note_on_c, 12, 90, 92
30, 426824, Note_on_c, 12, 90, 0
30, 426840, Note_on_c, 12, 78, 104
30, 426899, Note_on_c, 12, 78, 0
30, 426900, Note_on_c, 12, 78, 92
30, 427424, Note_on_c, 12, 78, 0
30, 427440, Note_on_c, 12, 78, 92
30, 427544, Note_on_c, 12, 78, 0
30, 427560, Note_on_c, 12, 66, 104
30, 427619, Note_on_c, 12, 66, 0
30, 427620, Note_on_c, 12, 66, 92
30, 428144, Note_on_c, 12, 66, 0
30, 428160, Note_on_c, 12, 66, 92
30, 428264, Note_on_c, 12, 66, 0
30, 428280, Note_on_c, 12, 78, 104
30, 428339, Note_on_c, 12, 78, 0
30, 428340, Note_on_c, 12, 78, 92
30, 428879, Note_on_c, 12, 78, 0
30, 431520, Note_on_c, 12, 59, 44
30, 432239, Note_on_c, 12, 59, 0
30, 432240, Note_on_c, 12, 59, 44
30, 432959, Note_on_c, 12, 59, 0
30, 435840, Note_on_c, 12, 59, 32
30, 436559, Note_on_c, 12, 59, 0
30, 436560, Note_on_c, 12, 59, 32
30, 437279, Note_on_c, 12, 59, 0
30, 439800, Control_c, 12, 11, 29
30, 440160, Control_c, 12, 11, 29
30, 440160, Note_on_c, 12, 57, 92
30, 440184, Control_c, 12, 11, 31
30, 440208, Control_c, 12, 11, 32
30, 440232, Control_c, 12, 11, 34
30, 440256, Control_c, 12, 11, 36
30, 440280, Control_c, 12, 11, 37
30, 440304, Control_c, 12, 11, 39
30, 440328, Control_c, 12, 11, 40
30, 440352, Control_c, 12, 11, 42
30, 440376, Control_c, 12, 11, 44
30, 440400, Control_c, 12, 11, 45
30, 440424, Control_c, 12, 11, 47
30, 440448, Control_c, 12, 11, 49
30, 440472, Control_c, 12, 11, 50
30, 440496, Control_c, 12, 11, 52
30, 440520, Control_c, 12, 11, 54
30, 440544, Control_c, 12, 11, 55
30, 440568, Control_c, 12, 11, 57
30, 440592, Control_c, 12, 11, 58
30, 440616, Control_c, 12, 11, 60
30, 440640, Control_c, 12, 11, 62
30, 440664, Control_c, 12, 11, 63
30, 440688, Control_c, 12, 11, 65
30, 440712, Control_c, 12, 11, 67
30, 440736, Control_c, 12, 11, 68
30, 440760, Control_c, 12, 11, 70
30, 440784, Control_c, 12, 11, 71
30, 440808, Control_c, 12, 11, 73
30, 440832, Control_c, 12, 11, 75
30, 440856, Control_c, 12, 11, 76
30, 440879, Note_on_c, 12, 57, 0
30, 440880, Note_on_c, 12, 57, 92
30, 440880, Control_c, 12, 11, 78
30, 440904, Control_c, 12, 11, 80
30, 440928, Control_c, 12, 11, 81
30, 440952, Control_c, 12, 11, 83
30, 440976, Control_c, 12, 11, 85
30, 441000, Control_c, 12, 11, 86
30, 441024, Control_c, 12, 11, 88
30, 441048, Control_c, 12, 11, 89
30, 441072, Control_c, 12, 11, 91
30, 441096, Control_c, 12, 11, 93
30, 441120, Control_c, 12, 11, 94
30, 441144, Control_c, 12, 11, 96
30, 441168, Control_c, 12, 11, 98
30, 441192, Control_c, 12, 11, 99
30, 441216, Control_c, 12, 11, 101
30, 441240, Control_c, 12, 11, 103
30, 441264, Control_c, 12, 11, 104
30, 441288, Control_c, 12, 11, 106
30, 441312, Control_c, 12, 11, 107
30, 441336, Control_c, 12, 11, 109
30, 441359, Note_on_c, 12, 57, 0
30, 441360, Note_on_c, 12, 59, 92
30, 441360, Control_c, 12, 11, 111
30, 441384, Control_c, 12, 11, 112
30, 441408, Control_c, 12, 11, 114
30, 441432, Control_c, 12, 11, 116
30, 441456, Control_c, 12, 11, 117
30, 441479, Note_on_c, 12, 59, 0
30, 441480, Note_on_c, 12, 61, 92
30, 441480, Control_c, 12, 11, 119
30, 441504, Control_c, 12, 11, 120
30, 441528, Control_c, 12, 11, 122
30, 441552, Control_c, 12, 11, 124
30, 441576, Control_c, 12, 11, 127
30, 441584, Note_on_c, 12, 61, 0
30, 441600, Note_on_c, 12, 62, 92
30, 441689, Note_on_c, 12, 62, 0
30, 441720, Note_on_c, 12, 86, 92
30, 441809, Note_on_c, 12, 86, 0
30, 441840, Note_on_c, 12, 85, 92
30, 441929, Note_on_c, 12, 85, 0
30, 441960, Note_on_c, 12, 83, 92
30, 442049, Note_on_c, 12, 83, 0
30, 442080, Note_on_c, 12, 81, 92
30, 442169, Note_on_c, 12, 81, 0
30, 442200, Note_on_c, 12, 79, 92
30, 442289, Note_on_c, 12, 79, 0
30, 442320, Note_on_c, 12, 78, 92
30, 442409, Note_on_c, 12, 78, 0
30, 442440, Note_on_c, 12, 76, 92
30, 442529, Note_on_c, 12, 76, 0
30, 442560, Note_on_c, 12, 74, 92
30, 442649, Note_on_c, 12, 74, 0
30, 442680, Note_on_c, 12, 73, 92
30, 442769, Note_on_c, 12, 73, 0
30, 442800, Note_on_c, 12, 71, 92
30, 442889, Note_on_c, 12, 71, 0
30, 442920, Note_on_c, 12, 69, 92
30, 443009, Note_on_c, 12, 69, 0
30, 443040, Note_on_c, 12, 57, 92
30, 443129, Note_on_c, 12, 57, 0
30, 443160, Note_on_c, 12, 69, 92
30, 443249, Note_on_c, 12, 69, 0
30, 443280, Note_on_c, 12, 71, 92
30, 443369, Note_on_c, 12, 71, 0
30, 443400, Note_on_c, 12, 73, 92
30, 443489, Note_on_c, 12, 73, 0
30, 443520, Note_on_c, 12, 74, 92
30, 443609, Note_on_c, 12, 74, 0
30, 443640, Note_on_c, 12, 76, 92
30, 443729, Note_on_c, 12, 76, 0
30, 443760, Note_on_c, 12, 78, 92
30, 443849, Note_on_c, 12, 78, 0
30, 443880, Note_on_c, 12, 79, 92
30, 443969, Note_on_c, 12, 79, 0
30, 444000, Note_on_c, 12, 81, 92
30, 444089, Note_on_c, 12, 81, 0
30, 444120, Note_on_c, 12, 83, 92
30, 444209, Note_on_c, 12, 83, 0
30, 444240, Note_on_c, 12, 81, 92
30, 444329, Note_on_c, 12, 81, 0
30, 444360, Note_on_c, 12, 85, 92
30, 444449, Note_on_c, 12, 85, 0
30, 444480, Note_on_c, 12, 86, 92
30, 444569, Note_on_c, 12, 86, 0
30, 444600, Note_on_c, 12, 81, 92
30, 444689, Note_on_c, 12, 81, 0
30, 444720, Note_on_c, 12, 79, 92
30, 444809, Note_on_c, 12, 79, 0
30, 444840, Note_on_c, 12, 78, 92
30, 444929, Note_on_c, 12, 78, 0
30, 444960, Note_on_c, 12, 76, 92
30, 445049, Note_on_c, 12, 76, 0
30, 445080, Note_on_c, 12, 74, 92
30, 445169, Note_on_c, 12, 74, 0
30, 445200, Note_on_c, 12, 73, 92
30, 445289, Note_on_c, 12, 73, 0
30, 445320, Note_on_c, 12, 74, 92
30, 445409, Note_on_c, 12, 74, 0
30, 445440, Note_on_c, 12, 71, 92
30, 445529, Note_on_c, 12, 71, 0
30, 445560, Note_on_c, 12, 69, 92
30, 445649, Note_on_c, 12, 69, 0
30, 445680, Note_on_c, 12, 71, 92
30, 445769, Note_on_c, 12, 71, 0
30, 445800, Note_on_c, 12, 68, 92
30, 445889, Note_on_c, 12, 68, 0
30, 445920, Note_on_c, 12, 57, 92
30, 446009, Note_on_c, 12, 57, 0
30, 446040, Note_on_c, 12, 69, 92
30, 446129, Note_on_c, 12, 69, 0
30, 446160, Note_on_c, 12, 71, 92
30, 446249, Note_on_c, 12, 71, 0
30, 446280, Note_on_c, 12, 73, 92
30, 446369, Note_on_c, 12, 73, 0
30, 446400, Note_on_c, 12, 74, 92
30, 446489, Note_on_c, 12, 74, 0
30, 446520, Note_on_c, 12, 76, 92
30, 446609, Note_on_c, 12, 76, 0
30, 446640, Note_on_c, 12, 78, 92
30, 446729, Note_on_c, 12, 78, 0
30, 446760, Note_on_c, 12, 79, 92
30, 446849, Note_on_c, 12, 79, 0
30, 446880, Note_on_c, 12, 81, 92
30, 446969, Note_on_c, 12, 81, 0
30, 447000, Note_on_c, 12, 83, 92
30, 447089, Note_on_c, 12, 83, 0
30, 447120, Note_on_c, 12, 81, 92
30, 447209, Note_on_c, 12, 81, 0
30, 447240, Note_on_c, 12, 85, 92
30, 447329, Note_on_c, 12, 85, 0
30, 447360, Note_on_c, 12, 86, 92
30, 447449, Note_on_c, 12, 86, 0
30, 447480, Note_on_c, 12, 83, 92
30, 447569, Note_on_c, 12, 83, 0
30, 447600, Note_on_c, 12, 81, 92
30, 447689, Note_on_c, 12, 81, 0
30, 447720, Note_on_c, 12, 79, 92
30, 447809, Note_on_c, 12, 79, 0
30, 447840, Note_on_c, 12, 78, 92
30, 447929, Note_on_c, 12, 78, 0
30, 447960, Note_on_c, 12, 76, 92
30, 448049, Note_on_c, 12, 76, 0
30, 448080, Note_on_c, 12, 74, 92
30, 448169, Note_on_c, 12, 74, 0
30, 448200, Note_on_c, 12, 76, 92
30, 448289, Note_on_c, 12, 76, 0
30, 448320, Note_on_c, 12, 74, 92
30, 448409, Note_on_c, 12, 74, 0
30, 448440, Note_on_c, 12, 72, 92
30, 448529, Note_on_c, 12, 72, 0
30, 448560, Note_on_c, 12, 71, 92
30, 448649, Note_on_c, 12, 71, 0
30, 448680, Note_on_c, 12, 69, 92
30, 448769, Note_on_c, 12, 69, 0
30, 448800, Note_on_c, 12, 55, 92
30, 448889, Note_on_c, 12, 55, 0
30, 448920, Note_on_c, 12, 69, 92
30, 449009, Note_on_c, 12, 69, 0
30, 449040, Note_on_c, 12, 71, 92
30, 449129, Note_on_c, 12, 71, 0
30, 449160, Note_on_c, 12, 72, 92
30, 449249, Note_on_c, 12, 72, 0
30, 449280, Note_on_c, 12, 74, 92
30, 449369, Note_on_c, 12, 74, 0
30, 449400, Note_on_c, 12, 76, 92
30, 449489, Note_on_c, 12, 76, 0
30, 449520, Note_on_c, 12, 78, 92
30, 449609, Note_on_c, 12, 78, 0
30, 449640, Note_on_c, 12, 79, 92
30, 449729, Note_on_c, 12, 79, 0
30, 449760, Note_on_c, 12, 81, 92
30, 449849, Note_on_c, 12, 81, 0
30, 449880, Note_on_c, 12, 83, 92
30, 449969, Note_on_c, 12, 83, 0
30, 450000, Note_on_c, 12, 67, 92
30, 450089, Note_on_c, 12, 67, 0
30, 450120, Note_on_c, 12, 67, 92
30, 450209, Note_on_c, 12, 67, 0
30, 450240, Note_on_c, 12, 57, 92
30, 450329, Note_on_c, 12, 57, 0
30, 450360, Note_on_c, 12, 79, 92
30, 450449, Note_on_c, 12, 79, 0
30, 450480, Note_on_c, 12, 78, 92
30, 450569, Note_on_c, 12, 78, 0
30, 450600, Note_on_c, 12, 76, 92
30, 450689, Note_on_c, 12, 76, 0
30, 450720, Note_on_c, 12, 74, 92
30, 450809, Note_on_c, 12, 74, 0
30, 450840, Note_on_c, 12, 73, 92
30, 450929, Note_on_c, 12, 73, 0
30, 450960, Note_on_c, 12, 71, 92
30, 451049, Note_on_c, 12, 71, 0
30, 451080, Note_on_c, 12, 69, 92
30, 451169, Note_on_c, 12, 69, 0
30, 451200, Note_on_c, 12, 74, 92
30, 451289, Note_on_c, 12, 74, 0
30, 451320, Note_on_c, 12, 69, 92
30, 451409, Note_on_c, 12, 69, 0
30, 451440, Note_on_c, 12, 66, 92
30, 451529, Note_on_c, 12, 66, 0
30, 451560, Note_on_c, 12, 62, 92
30, 451649, Note_on_c, 12, 62, 0
30, 451680, Note_on_c, 12, 59, 92
30, 451769, Note_on_c, 12, 59, 0
30, 451800, Note_on_c, 12, 57, 92
30, 451889, Note_on_c, 12, 57, 0
30, 451920, Note_on_c, 12, 56, 92
30, 452009, Note_on_c, 12, 56, 0
30, 452040, Note_on_c, 12, 57, 92
30, 452129, Note_on_c, 12, 57, 0
30, 452160, Note_on_c, 12, 69, 92
30, 452249, Note_on_c, 12, 69, 0
30, 452280, Note_on_c, 12, 69, 92
30, 452369, Note_on_c, 12, 69, 0
30, 452400, Note_on_c, 12, 62, 92
30, 452489, Note_on_c, 12, 62, 0
30, 452520, Note_on_c, 12, 69, 92
30, 452609, Note_on_c, 12, 69, 0
30, 452640, Note_on_c, 12, 68, 92
30, 452729, Note_on_c, 12, 68, 0
30, 452760, Note_on_c, 12, 69, 92
30, 452849, Note_on_c, 12, 69, 0
30, 452880, Note_on_c, 12, 78, 92
30, 452969, Note_on_c, 12, 78, 0
30, 453000, Note_on_c, 12, 74, 92
30, 453089, Note_on_c, 12, 74, 0
30, 453120, Note_on_c, 12, 69, 92
30, 453209, Note_on_c, 12, 69, 0
30, 453240, Note_on_c, 12, 81, 92
30, 453329, Note_on_c, 12, 81, 0
30, 453360, Note_on_c, 12, 80, 92
30, 453449, Note_on_c, 12, 80, 0
30, 453480, Note_on_c, 12, 81, 92
30, 453569, Note_on_c, 12, 81, 0
30, 453600, Note_on_c, 12, 76, 92
30, 453689, Note_on_c, 12, 76, 0
30, 453720, Note_on_c, 12, 73, 92
30, 453809, Note_on_c, 12, 73, 0
30, 453840, Note_on_c, 12, 69, 92
30, 453929, Note_on_c, 12, 69, 0
30, 453960, Note_on_c, 12, 81, 92
30, 454049, Note_on_c, 12, 81, 0
30, 454080, Note_on_c, 12, 80, 92
30, 454169, Note_on_c, 12, 80, 0
30, 454200, Note_on_c, 12, 81, 92
30, 454289, Note_on_c, 12, 81, 0
30, 454320, Note_on_c, 12, 78, 92
30, 454409, Note_on_c, 12, 78, 0
30, 454440, Note_on_c, 12, 74, 92
30, 454529, Note_on_c, 12, 74, 0
30, 454560, Note_on_c, 12, 69, 92
30, 454649, Note_on_c, 12, 69, 0
30, 454680, Note_on_c, 12, 81, 92
30, 454769, Note_on_c, 12, 81, 0
30, 454800, Note_on_c, 12, 83, 92
30, 454889, Note_on_c, 12, 83, 0
30, 454920, Note_on_c, 12, 81, 92
30, 455009, Note_on_c, 12, 81, 0
30, 455040, Note_on_c, 12, 69, 92
30, 455129, Note_on_c, 12, 69, 0
30, 455160, Note_on_c, 12, 69, 92
30, 455249, Note_on_c, 12, 69, 0
30, 455280, Note_on_c, 12, 69, 92
30, 455369, Note_on_c, 12, 69, 0
30, 455400, Note_on_c, 12, 81, 92
30, 455489, Note_on_c, 12, 81, 0
30, 455520, Note_on_c, 12, 80, 92
30, 455609, Note_on_c, 12, 80, 0
30, 455640, Note_on_c, 12, 81, 92
30, 455729, Note_on_c, 12, 81, 0
30, 455760, Note_on_c, 12, 78, 92
30, 455849, Note_on_c, 12, 78, 0
30, 455880, Note_on_c, 12, 74, 92
30, 455969, Note_on_c, 12, 74, 0
30, 456000, Note_on_c, 12, 69, 92
30, 456089, Note_on_c, 12, 69, 0
30, 456120, Note_on_c, 12, 81, 92
30, 456209, Note_on_c, 12, 81, 0
30, 456240, Note_on_c, 12, 83, 92
30, 456329, Note_on_c, 12, 83, 0
30, 456360, Note_on_c, 12, 81, 92
30, 456449, Note_on_c, 12, 81, 0
30, 456480, Note_on_c, 12, 69, 92
30, 456569, Note_on_c, 12, 69, 0
30, 456600, Note_on_c, 12, 69, 92
30, 456689, Note_on_c, 12, 69, 0
30, 456720, Note_on_c, 12, 58, 92
30, 456809, Note_on_c, 12, 58, 0
30, 456840, Note_on_c, 12, 70, 92
30, 456929, Note_on_c, 12, 70, 0
30, 456960, Note_on_c, 12, 70, 92
30, 457049, Note_on_c, 12, 70, 0
30, 457080, Note_on_c, 12, 66, 92
30, 457169, Note_on_c, 12, 66, 0
30, 457200, Note_on_c, 12, 78, 92
30, 457289, Note_on_c, 12, 78, 0
30, 457320, Note_on_c, 12, 78, 92
30, 457409, Note_on_c, 12, 78, 0
30, 457440, Note_on_c, 12, 59, 92
30, 457529, Note_on_c, 12, 59, 0
30, 457560, Note_on_c, 12, 71, 92
30, 457649, Note_on_c, 12, 71, 0
30, 457680, Note_on_c, 12, 71, 92
30, 457769, Note_on_c, 12, 71, 0
30, 457800, Note_on_c, 12, 64, 92
30, 457889, Note_on_c, 12, 64, 0
30, 457920, Note_on_c, 12, 76, 92
30, 458009, Note_on_c, 12, 76, 0
30, 458040, Note_on_c, 12, 76, 92
30, 458129, Note_on_c, 12, 76, 0
30, 458160, Note_on_c, 12, 69, 92
30, 458249, Note_on_c, 12, 69, 0
30, 458280, Note_on_c, 12, 81, 92
30, 458369, Note_on_c, 12, 81, 0
30, 458400, Note_on_c, 12, 81, 92
30, 458489, Note_on_c, 12, 81, 0
30, 458520, Note_on_c, 12, 57, 92
30, 458609, Note_on_c, 12, 57, 0
30, 458640, Note_on_c, 12, 69, 92
30, 458729, Note_on_c, 12, 69, 0
30, 458760, Note_on_c, 12, 69, 92
30, 458849, Note_on_c, 12, 69, 0
30, 458880, Note_on_c, 12, 74, 92
30, 458969, Note_on_c, 12, 74, 0
30, 459000, Note_on_c, 12, 86, 92
30, 459089, Note_on_c, 12, 86, 0
30, 459120, Note_on_c, 12, 84, 92
30, 459209, Note_on_c, 12, 84, 0
30, 459240, Note_on_c, 12, 83, 92
30, 459329, Note_on_c, 12, 83, 0
30, 459360, Note_on_c, 12, 81, 92
30, 459449, Note_on_c, 12, 81, 0
30, 459480, Note_on_c, 12, 79, 92
30, 459569, Note_on_c, 12, 79, 0
30, 459600, Note_on_c, 12, 78, 92
30, 459689, Note_on_c, 12, 78, 0
30, 459720, Note_on_c, 12, 76, 92
30, 459809, Note_on_c, 12, 76, 0
30, 459840, Note_on_c, 12, 74, 92
30, 459929, Note_on_c, 12, 74, 0
30, 459960, Note_on_c, 12, 72, 92
30, 460049, Note_on_c, 12, 72, 0
30, 460080, Note_on_c, 12, 71, 92
30, 460169, Note_on_c, 12, 71, 0
30, 460200, Note_on_c, 12, 69, 92
30, 460289, Note_on_c, 12, 69, 0
30, 460320, Note_on_c, 12, 55, 92
30, 460409, Note_on_c, 12, 55, 0
30, 460440, Note_on_c, 12, 69, 92
30, 460529, Note_on_c, 12, 69, 0
30, 460560, Note_on_c, 12, 71, 92
30, 460649, Note_on_c, 12, 71, 0
30, 460680, Note_on_c, 12, 72, 92
30, 460769, Note_on_c, 12, 72, 0
30, 460800, Note_on_c, 12, 74, 92
30, 460889, Note_on_c, 12, 74, 0
30, 460920, Note_on_c, 12, 76, 92
30, 461009, Note_on_c, 12, 76, 0
30, 461040, Note_on_c, 12, 78, 92
30, 461129, Note_on_c, 12, 78, 0
30, 461160, Note_on_c, 12, 79, 92
30, 461249, Note_on_c, 12, 79, 0
30, 461280, Note_on_c, 12, 81, 92
30, 461369, Note_on_c, 12, 81, 0
30, 461400, Note_on_c, 12, 83, 92
30, 461489, Note_on_c, 12, 83, 0
30, 461520, Note_on_c, 12, 67, 92
30, 461609, Note_on_c, 12, 67, 0
30, 461640, Note_on_c, 12, 67, 92
30, 461729, Note_on_c, 12, 67, 0
30, 461760, Note_on_c, 12, 57, 92
30, 461849, Note_on_c, 12, 57, 0
30, 461880, Note_on_c, 12, 79, 92
30, 461969, Note_on_c, 12, 79, 0
30, 462000, Note_on_c, 12, 78, 92
30, 462089, Note_on_c, 12, 78, 0
30, 462120, Note_on_c, 12, 76, 92
30, 462209, Note_on_c, 12, 76, 0
30, 462240, Note_on_c, 12, 74, 92
30, 462329, Note_on_c, 12, 74, 0
30, 462360, Note_on_c, 12, 73, 92
30, 462449, Note_on_c, 12, 73, 0
30, 462480, Note_on_c, 12, 71, 92
30, 462569, Note_on_c, 12, 71, 0
30, 462600, Note_on_c, 12, 69, 92
30, 462689, Note_on_c, 12, 69, 0
30, 462720, Note_on_c, 12, 74, 92
30, 462809, Note_on_c, 12, 74, 0
30, 462840, Note_on_c, 12, 69, 92
30, 462929, Note_on_c, 12, 69, 0
30, 462960, Note_on_c, 12, 66, 92
30, 463049, Note_on_c, 12, 66, 0
30, 463080, Note_on_c, 12, 62, 92
30, 463169, Note_on_c, 12, 62, 0
30, 463200, Note_on_c, 12, 59, 92
30, 463289, Note_on_c, 12, 59, 0
30, 463320, Note_on_c, 12, 57, 92
30, 463409, Note_on_c, 12, 57, 0
30, 463440, Note_on_c, 12, 56, 92
30, 463529, Note_on_c, 12, 56, 0
30, 463560, Note_on_c, 12, 57, 92
30, 463649, Note_on_c, 12, 57, 0
30, 463680, Note_on_c, 12, 69, 92
30, 463769, Note_on_c, 12, 69, 0
30, 463800, Note_on_c, 12, 69, 92
30, 463889, Note_on_c, 12, 69, 0
30, 463920, Note_on_c, 12, 62, 92
30, 464009, Note_on_c, 12, 62, 0
30, 464040, Note_on_c, 12, 69, 92
30, 464129, Note_on_c, 12, 69, 0
30, 464160, Note_on_c, 12, 68, 92
30, 464249, Note_on_c, 12, 68, 0
30, 464280, Note_on_c, 12, 69, 92
30, 464369, Note_on_c, 12, 69, 0
30, 464400, Note_on_c, 12, 78, 92
30, 464489, Note_on_c, 12, 78, 0
30, 464520, Note_on_c, 12, 74, 92
30, 464609, Note_on_c, 12, 74, 0
30, 464640, Note_on_c, 12, 69, 92
30, 464729, Note_on_c, 12, 69, 0
30, 464760, Note_on_c, 12, 81, 92
30, 464849, Note_on_c, 12, 81, 0
30, 464880, Note_on_c, 12, 80, 92
30, 464969, Note_on_c, 12, 80, 0
30, 465000, Note_on_c, 12, 81, 92
30, 465089, Note_on_c, 12, 81, 0
30, 465120, Note_on_c, 12, 76, 92
30, 465209, Note_on_c, 12, 76, 0
30, 465240, Note_on_c, 12, 73, 92
30, 465329, Note_on_c, 12, 73, 0
30, 465360, Note_on_c, 12, 69, 92
30, 465449, Note_on_c, 12, 69, 0
30, 465480, Note_on_c, 12, 81, 92
30, 465569, Note_on_c, 12, 81, 0
30, 465600, Note_on_c, 12, 80, 92
30, 465689, Note_on_c, 12, 80, 0
30, 465720, Note_on_c, 12, 81, 92
30, 465809, Note_on_c, 12, 81, 0
30, 465840, Note_on_c, 12, 78, 92
30, 465929, Note_on_c, 12, 78, 0
30, 465960, Note_on_c, 12, 74, 92
30, 466049, Note_on_c, 12, 74, 0
30, 466080, Note_on_c, 12, 69, 92
30, 466169, Note_on_c, 12, 69, 0
30, 466200, Note_on_c, 12, 81, 92
30, 466289, Note_on_c, 12, 81, 0
30, 466320, Note_on_c, 12, 83, 92
30, 466409, Note_on_c, 12, 83, 0
30, 466440, Note_on_c, 12, 81, 92
30, 466529, Note_on_c, 12, 81, 0
30, 466560, Note_on_c, 12, 69, 92
30, 466649, Note_on_c, 12, 69, 0
30, 466680, Note_on_c, 12, 69, 92
30, 466769, Note_on_c, 12, 69, 0
30, 466800, Note_on_c, 12, 69, 92
30, 466889, Note_on_c, 12, 69, 0
30, 466920, Note_on_c, 12, 81, 92
30, 467009, Note_on_c, 12, 81, 0
30, 467040, Note_on_c, 12, 80, 92
30, 467129, Note_on_c, 12, 80, 0
30, 467160, Note_on_c, 12, 81, 92
30, 467249, Note_on_c, 12, 81, 0
30, 467280, Note_on_c, 12, 78, 92
30, 467369, Note_on_c, 12, 78, 0
30, 467400, Note_on_c, 12, 74, 92
30, 467489, Note_on_c, 12, 74, 0
30, 467520, Note_on_c, 12, 69, 92
30, 467609, Note_on_c, 12, 69, 0
30, 467640, Note_on_c, 12, 81, 92
30, 467729, Note_on_c, 12, 81, 0
30, 467760, Note_on_c, 12, 83, 92
30, 467849, Note_on_c, 12, 83, 0
30, 467880, Note_on_c, 12, 81, 92
30, 467969, Note_on_c, 12, 81, 0
30, 468000, Note_on_c, 12, 69, 92
30, 468089, Note_on_c, 12, 69, 0
30, 468120, Note_on_c, 12, 69, 92
30, 468209, Note_on_c, 12, 69, 0
30, 468240, Note_on_c, 12, 58, 92
30, 468329, Note_on_c, 12, 58, 0
30, 468360, Note_on_c, 12, 70, 92
30, 468449, Note_on_c, 12, 70, 0
30, 468480, Note_on_c, 12, 70, 92
30, 468569, Note_on_c, 12, 70, 0
30, 468600, Note_on_c, 12, 66, 92
30, 468689, Note_on_c, 12, 66, 0
30, 468720, Note_on_c, 12, 78, 92
30, 468809, Note_on_c, 12, 78, 0
30, 468840, Note_on_c, 12, 78, 92
30, 468929, Note_on_c, 12, 78, 0
30, 468960, Note_on_c, 12, 59, 92
30, 469049, Note_on_c, 12, 59, 0
30, 469080, Note_on_c, 12, 71, 92
30, 469169, Note_on_c, 12, 71, 0
30, 469200, Note_on_c, 12, 71, 92
30, 469289, Note_on_c, 12, 71, 0
30, 469320, Note_on_c, 12, 64, 92
30, 469409, Note_on_c, 12, 64, 0
30, 469440, Note_on_c, 12, 76, 92
30, 469529, Note_on_c, 12, 76, 0
30, 469560, Note_on_c, 12, 76, 92
30, 469649, Note_on_c, 12, 76, 0
30, 469680, Note_on_c, 12, 69, 92
30, 469769, Note_on_c, 12, 69, 0
30, 469800, Note_on_c, 12, 81, 92
30, 469889, Note_on_c, 12, 81, 0
30, 469920, Note_on_c, 12, 81, 92
30, 470009, Note_on_c, 12, 81, 0
30, 470040, Note_on_c, 12, 57, 92
30, 470129, Note_on_c, 12, 57, 0
30, 470160, Note_on_c, 12, 69, 92
30, 470249, Note_on_c, 12, 69, 0
30, 470280, Note_on_c, 12, 69, 92
30, 470369, Note_on_c, 12, 69, 0
30, 470400, Note_on_c, 12, 62, 92
30, 470489, Note_on_c, 12, 62, 0
30, 470520, Note_on_c, 12, 86, 92
30, 470609, Note_on_c, 12, 86, 0
30, 470640, Note_on_c, 12, 84, 92
30, 470729, Note_on_c, 12, 84, 0
30, 470760, Note_on_c, 12, 83, 92
30, 470849, Note_on_c, 12, 83, 0
30, 470880, Note_on_c, 12, 81, 92
30, 470969, Note_on_c, 12, 81, 0
30, 471000, Note_on_c, 12, 79, 92
30, 471089, Note_on_c, 12, 79, 0
30, 471120, Note_on_c, 12, 78, 92
30, 471209, Note_on_c, 12, 78, 0
30, 471240, Note_on_c, 12, 76, 92
30, 471329, Note_on_c, 12, 76, 0
30, 471360, Note_on_c, 12, 74, 92
30, 471449, Note_on_c, 12, 74, 0
30, 471480, Note_on_c, 12, 72, 92
30, 471569, Note_on_c, 12, 72, 0
30, 471600, Note_on_c, 12, 71, 92
30, 471689, Note_on_c, 12, 71, 0
30, 471720, Note_on_c, 12, 69, 92
30, 471809, Note_on_c, 12, 69, 0
30, 471840, Note_on_c, 12, 55, 92
30, 471929, Note_on_c, 12, 55, 0
30, 471960, Note_on_c, 12, 69, 92
30, 472049, Note_on_c, 12, 69, 0
30, 472080, Note_on_c, 12, 71, 92
30, 472169, Note_on_c, 12, 71, 0
30, 472200, Note_on_c, 12, 72, 92
30, 472289, Note_on_c, 12, 72, 0
30, 472320, Note_on_c, 12, 74, 92
30, 472409, Note_on_c, 12, 74, 0
30, 472440, Note_on_c, 12, 76, 92
30, 472529, Note_on_c, 12, 76, 0
30, 472560, Note_on_c, 12, 78, 92
30, 472649, Note_on_c, 12, 78, 0
30, 472680, Note_on_c, 12, 79, 92
30, 472769, Note_on_c, 12, 79, 0
30, 472800, Note_on_c, 12, 81, 92
30, 472889, Note_on_c, 12, 81, 0
30, 472920, Note_on_c, 12, 83, 92
30, 473009, Note_on_c, 12, 83, 0
30, 473040, Note_on_c, 12, 67, 92
30, 473129, Note_on_c, 12, 67, 0
30, 473160, Note_on_c, 12, 67, 92
30, 473249, Note_on_c, 12, 67, 0
30, 473280, Note_on_c, 12, 57, 92
30, 473369, Note_on_c, 12, 57, 0
30, 473400, Note_on_c, 12, 79, 92
30, 473489, Note_on_c, 12, 79, 0
30, 473520, Note_on_c, 12, 78, 92
30, 473609, Note_on_c, 12, 78, 0
30, 473640, Note_on_c, 12, 76, 92
30, 473729, Note_on_c, 12, 76, 0
30, 473760, Note_on_c, 12, 74, 92
30, 473849, Note_on_c, 12, 74, 0
30, 473880, Note_on_c, 12, 73, 92
30, 473969, Note_on_c, 12, 73, 0
30, 474000, Note_on_c, 12, 71, 92
30, 474089, Note_on_c, 12, 71, 0
30, 474120, Note_on_c, 12, 69, 92
30, 474209, Note_on_c, 12, 69, 0
30, 474240, Note_on_c, 12, 74, 92
30, 474329, Note_on_c, 12, 74, 0
30, 474360, Note_on_c, 12, 69, 92
30, 474449, Note_on_c, 12, 69, 0
30, 474480, Note_on_c, 12, 66, 92
30, 474569, Note_on_c, 12, 66, 0
30, 474600, Note_on_c, 12, 62, 92
30, 474689, Note_on_c, 12, 62, 0
30, 474720, Note_on_c, 12, 59, 92
30, 474809, Note_on_c, 12, 59, 0
30, 474840, Note_on_c, 12, 57, 92
30, 474929, Note_on_c, 12, 57, 0
30, 474960, Note_on_c, 12, 56, 92
30, 475049, Note_on_c, 12, 56, 0
30, 475080, Note_on_c, 12, 57, 92
30, 475169, Note_on_c, 12, 57, 0
30, 475200, Note_on_c, 12, 69, 92
30, 475289, Note_on_c, 12, 69, 0
30, 475320, Note_on_c, 12, 69, 92
30, 475409, Note_on_c, 12, 69, 0
30, 475440, Note_on_c, 12, 62, 92
30, 475529, Note_on_c, 12, 62, 0
30, 475560, Note_on_c, 12, 74, 92
30, 475649, Note_on_c, 12, 74, 0
30, 475680, Note_on_c, 12, 73, 92
30, 475769, Note_on_c, 12, 73, 0
30, 475800, Note_on_c, 12, 74, 92
30, 475889, Note_on_c, 12, 74, 0
30, 475920, Note_on_c, 12, 78, 92
30, 476009, Note_on_c, 12, 78, 0
30, 476040, Note_on_c, 12, 81, 92
30, 476129, Note_on_c, 12, 81, 0
30, 476160, Note_on_c, 12, 86, 104
30, 476249, Note_on_c, 12, 86, 0
30, 476280, Note_on_c, 12, 62, 92
30, 476369, Note_on_c, 12, 62, 0
30, 476400, Note_on_c, 12, 61, 92
30, 476489, Note_on_c, 12, 61, 0
30, 476520, Note_on_c, 12, 62, 92
30, 476609, Note_on_c, 12, 62, 0
30, 476640, Note_on_c, 12, 66, 92
30, 476729, Note_on_c, 12, 66, 0
30, 476760, Note_on_c, 12, 69, 92
30, 476849, Note_on_c, 12, 69, 0
30, 476880, Note_on_c, 12, 72, 92
30, 476969, Note_on_c, 12, 72, 0
30, 477000, Note_on_c, 12, 64, 92
30, 477089, Note_on_c, 12, 64, 0
30, 477120, Note_on_c, 12, 62, 92
30, 477209, Note_on_c, 12, 62, 0
30, 477240, Note_on_c, 12, 60, 92
30, 477329, Note_on_c, 12, 60, 0
30, 477360, Note_on_c, 12, 59, 92
30, 477449, Note_on_c, 12, 59, 0
30, 477480, Note_on_c, 12, 57, 92
30, 477569, Note_on_c, 12, 57, 0
30, 477600, Note_on_c, 12, 55, 104
30, 477689, Note_on_c, 12, 55, 0
30, 477720, Note_on_c, 12, 59, 92
30, 477809, Note_on_c, 12, 59, 0
30, 477840, Note_on_c, 12, 62, 92
30, 477929, Note_on_c, 12, 62, 0
30, 477960, Note_on_c, 12, 67, 92
30, 478049, Note_on_c, 12, 67, 0
30, 478080, Note_on_c, 12, 71, 92
30, 478169, Note_on_c, 12, 71, 0
30, 478200, Note_on_c, 12, 74, 92
30, 478289, Note_on_c, 12, 74, 0
30, 478320, Note_on_c, 12, 79, 92
30, 478559, Note_on_c, 12, 79, 0
30, 491520, Note_on_c, 12, 79, 80
30, 491759, Note_on_c, 12, 79, 0
30, 491760, Note_on_c, 12, 83, 80
30, 491879, Note_on_c, 12, 83, 0
30, 491880, Note_on_c, 12, 81, 80
30, 492239, Note_on_c, 12, 81, 0
30, 492240, Note_on_c, 12, 79, 80
30, 492359, Note_on_c, 12, 79, 0
30, 492360, Note_on_c, 12, 78, 80
30, 492479, Note_on_c, 12, 78, 0
30, 492480, Note_on_c, 12, 79, 80
30, 492659, Note_on_c, 12, 79, 0
30, 492720, Note_on_c, 12, 69, 80
30, 492839, Note_on_c, 12, 69, 0
30, 492840, Note_on_c, 12, 67, 80
30, 493199, Note_on_c, 12, 67, 0
30, 493200, Note_on_c, 12, 81, 80
30, 493319, Note_on_c, 12, 81, 0
30, 493320, Note_on_c, 12, 79, 80
30, 493559, Note_on_c, 12, 79, 0
30, 493560, Note_on_c, 12, 78, 80
30, 493659, Note_on_c, 12, 78, 0
30, 493680, Note_on_c, 12, 78, 80
30, 493799, Note_on_c, 12, 78, 0
30, 493800, Note_on_c, 12, 76, 80
30, 493899, Note_on_c, 12, 76, 0
30, 493920, Note_on_c, 12, 76, 80
30, 494039, Note_on_c, 12, 76, 0
30, 494040, Note_on_c, 12, 74, 80
30, 494139, Note_on_c, 12, 74, 0
30, 494160, Note_on_c, 12, 74, 80
30, 494279, Note_on_c, 12, 74, 0
30, 494280, Note_on_c, 12, 86, 80
30, 494379, Note_on_c, 12, 86, 0
30, 494400, Note_on_c, 12, 76, 80
30, 494519, Note_on_c, 12, 76, 0
30, 494520, Note_on_c, 12, 88, 80
30, 494619, Note_on_c, 12, 88, 0
30, 494640, Note_on_c, 12, 88, 80
30, 495059, Note_on_c, 12, 88, 0
30, 495120, Note_on_c, 12, 76, 80
30, 495239, Note_on_c, 12, 76, 0
30, 495240, Note_on_c, 12, 74, 80
30, 495359, Note_on_c, 12, 74, 0
30, 495360, Note_on_c, 12, 76, 80
30, 495539, Note_on_c, 12, 76, 0
30, 495600, Note_on_c, 12, 88, 80
30, 495719, Note_on_c, 12, 88, 0
30, 495720, Note_on_c, 12, 86, 80
30, 495839, Note_on_c, 12, 86, 0
30, 495840, Note_on_c, 12, 88, 80
30, 496019, Note_on_c, 12, 88, 0
30, 496080, Note_on_c, 12, 76, 80
30, 496559, Note_on_c, 12, 76, 0
30, 496560, Note_on_c, 12, 74, 80
30, 496679, Note_on_c, 12, 74, 0
30, 496680, Note_on_c, 12, 72, 80
30, 496799, Note_on_c, 12, 72, 0
30, 496800, Note_on_c, 12, 71, 80
30, 496979, Note_on_c, 12, 71, 0
30, 497040, Note_on_c, 12, 83, 80
30, 497159, Note_on_c, 12, 83, 0
30, 497160, Note_on_c, 12, 81, 80
30, 497279, Note_on_c, 12, 81, 0
30, 497280, Note_on_c, 12, 83, 80
30, 497459, Note_on_c, 12, 83, 0
30, 497520, Note_on_c, 12, 72, 80
30, 497639, Note_on_c, 12, 72, 0
30, 497640, Note_on_c, 12, 71, 80
30, 497759, Note_on_c, 12, 71, 0
30, 497760, Note_on_c, 12, 72, 80
30, 497939, Note_on_c, 12, 72, 0
30, 498000, Note_on_c, 12, 84, 80
30, 498119, Note_on_c, 12, 84, 0
30, 498120, Note_on_c, 12, 83, 80
30, 498239, Note_on_c, 12, 83, 0
30, 498240, Note_on_c, 12, 84, 80
30, 498419, Note_on_c, 12, 84, 0
30, 498480, Note_on_c, 12, 72, 80
30, 498599, Note_on_c, 12, 72, 0
30, 498600, Note_on_c, 12, 71, 80
30, 498719, Note_on_c, 12, 71, 0
30, 498720, Note_on_c, 12, 72, 80
30, 498899, Note_on_c, 12, 72, 0
30, 498960, Note_on_c, 12, 74, 80
30, 499079, Note_on_c, 12, 74, 0
30, 499080, Note_on_c, 12, 72, 80
30, 499419, Note_on_c, 12, 72, 0
30, 499440, Note_on_c, 12, 71, 80
30, 499559, Note_on_c, 12, 71, 0
30, 499560, Note_on_c, 12, 83, 80
30, 499679, Note_on_c, 12, 83, 0
30, 499680, Note_on_c, 12, 79, 80
30, 499859, Note_on_c, 12, 79, 0
30, 499920, Note_on_c, 12, 76, 80
30, 500039, Note_on_c, 12, 76, 0
30, 500040, Note_on_c, 12, 79, 80
30, 500379, Note_on_c, 12, 79, 0
30, 500400, Note_on_c, 12, 76, 80
30, 500519, Note_on_c, 12, 76, 0
30, 500520, Note_on_c, 12, 88, 80
30, 500639, Note_on_c, 12, 88, 0
30, 500640, Note_on_c, 12, 88, 92
30, 500859, Note_on_c, 12, 88, 0
30, 500880, Note_on_c, 12, 76, 92
30, 500999, Note_on_c, 12, 76, 0
30, 501000, Note_on_c, 12, 88, 92
30, 501339, Note_on_c, 12, 88, 0
30, 501360, Note_on_c, 12, 76, 92
30, 501479, Note_on_c, 12, 76, 0
30, 501480, Note_on_c, 12, 74, 92
30, 501599, Note_on_c, 12, 74, 0
30, 501600, Note_on_c, 12, 76, 92
30, 501779, Note_on_c, 12, 76, 0
30, 501840, Note_on_c, 12, 78, 92
30, 501959, Note_on_c, 12, 78, 0
30, 501960, Note_on_c, 12, 76, 92
30, 502059, Note_on_c, 12, 76, 0
30, 502080, Note_on_c, 12, 74, 92
30, 503519, Note_on_c, 12, 74, 0
30, 514560, Note_on_c, 12, 72, 80
30, 514799, Note_on_c, 12, 72, 0
30, 514800, Note_on_c, 12, 65, 80
30, 514919, Note_on_c, 12, 65, 0
30, 514920, Note_on_c, 12, 72, 80
30, 515279, Note_on_c, 12, 72, 0
30, 515280, Note_on_c, 12, 65, 80
30, 515399, Note_on_c, 12, 65, 0
30, 515400, Note_on_c, 12, 72, 80
30, 515499, Note_on_c, 12, 72, 0
30, 515520, Note_on_c, 12, 74, 80
30, 515759, Note_on_c, 12, 74, 0
30, 515760, Note_on_c, 12, 65, 80
30, 515879, Note_on_c, 12, 65, 0
30, 515880, Note_on_c, 12, 74, 80
30, 516239, Note_on_c, 12, 74, 0
30, 516240, Note_on_c, 12, 65, 80
30, 516359, Note_on_c, 12, 65, 0
30, 516360, Note_on_c, 12, 72, 80
30, 516699, Note_on_c, 12, 72, 0
30, 516720, Note_on_c, 12, 65, 80
30, 516839, Note_on_c, 12, 65, 0
30, 516840, Note_on_c, 12, 72, 80
30, 516959, Note_on_c, 12, 72, 0
30, 516960, Note_on_c, 12, 74, 80
30, 517179, Note_on_c, 12, 74, 0
30, 517200, Note_on_c, 12, 74, 80
30, 517319, Note_on_c, 12, 74, 0
30, 517320, Note_on_c, 12, 77, 80
30, 517439, Note_on_c, 12, 77, 0
30, 517440, Note_on_c, 12, 77, 80
30, 517659, Note_on_c, 12, 77, 0
30, 517680, Note_on_c, 12, 77, 80
30, 517799, Note_on_c, 12, 77, 0
30, 517800, Note_on_c, 12, 82, 80
30, 518139, Note_on_c, 12, 82, 0
30, 518160, Note_on_c, 12, 82, 80
30, 518279, Note_on_c, 12, 82, 0
30, 518280, Note_on_c, 12, 86, 80
30, 518759, Note_on_c, 12, 86, 0
30, 518760, Note_on_c, 12, 89, 80
30, 519119, Note_on_c, 12, 89, 0
30, 519120, Note_on_c, 12, 77, 80
30, 519239, Note_on_c, 12, 77, 0
30, 519240, Note_on_c, 12, 89, 80
30, 519599, Note_on_c, 12, 89, 0
30, 519600, Note_on_c, 12, 77, 80
30, 519719, Note_on_c, 12, 77, 0
30, 519720, Note_on_c, 12, 89, 80
30, 520079, Note_on_c, 12, 89, 0
30, 520080, Note_on_c, 12, 77, 80
30, 520199, Note_on_c, 12, 77, 0
30, 520200, Note_on_c, 12, 89, 80
30, 520559, Note_on_c, 12, 89, 0
30, 520560, Note_on_c, 12, 77, 80
30, 520679, Note_on_c, 12, 77, 0
30, 520680, Note_on_c, 12, 89, 80
30, 521039, Note_on_c, 12, 89, 0
30, 521040, Note_on_c, 12, 77, 80
30, 521159, Note_on_c, 12, 77, 0
30, 521160, Note_on_c, 12, 89, 80
30, 521259, Note_on_c, 12, 89, 0
30, 521280, Note_on_c, 12, 86, 80
30, 521519, Note_on_c, 12, 86, 0
30, 521520, Note_on_c, 12, 88, 80
30, 521639, Note_on_c, 12, 88, 0
30, 521640, Note_on_c, 12, 86, 80
30, 521739, Note_on_c, 12, 86, 0
30, 521760, Note_on_c, 12, 84, 80
30, 521999, Note_on_c, 12, 84, 0
30, 522000, Note_on_c, 12, 86, 80
30, 522119, Note_on_c, 12, 86, 0
30, 522120, Note_on_c, 12, 84, 80
30, 522479, Note_on_c, 12, 84, 0
30, 522480, Note_on_c, 12, 86, 80
30, 522599, Note_on_c, 12, 86, 0
30, 522600, Note_on_c, 12, 84, 80
30, 522959, Note_on_c, 12, 84, 0
30, 522960, Note_on_c, 12, 86, 80
30, 523079, Note_on_c, 12, 86, 0
30, 523080, Note_on_c, 12, 84, 80
30, 523439, Note_on_c, 12, 84, 0
30, 523440, Note_on_c, 12, 86, 80
30, 523559, Note_on_c, 12, 86, 0
30, 523560, Note_on_c, 12, 88, 80
30, 523659, Note_on_c, 12, 88, 0
30, 523680, Note_on_c, 12, 89, 80
30, 523919, Note_on_c, 12, 89, 0
30, 523920, Note_on_c, 12, 77, 80
30, 524039, Note_on_c, 12, 77, 0
30, 524040, Note_on_c, 12, 89, 80
30, 524399, Note_on_c, 12, 89, 0
30, 524400, Note_on_c, 12, 77, 80
30, 524519, Note_on_c, 12, 77, 0
30, 524520, Note_on_c, 12, 89, 80
30, 524619, Note_on_c, 12, 89, 0
30, 524640, Note_on_c, 12, 88, 80
30, 524879, Note_on_c, 12, 88, 0
30, 524880, Note_on_c, 12, 76, 80
30, 524999, Note_on_c, 12, 76, 0
30, 525000, Note_on_c, 12, 88, 80
30, 525359, Note_on_c, 12, 88, 0
30, 525360, Note_on_c, 12, 76, 80
30, 525479, Note_on_c, 12, 76, 0
30, 525480, Note_on_c, 12, 88, 80
30, 525579, Note_on_c, 12, 88, 0
30, 525600, Note_on_c, 12, 86, 80
30, 525600, Note_on_c, 12, 74, 80
30, 525839, Note_on_c, 12, 86, 0
30, 525839, Note_on_c, 12, 74, 0
30, 526080, Note_on_c, 12, 86, 44
30, 526080, Note_on_c, 12, 74, 44
30, 526319, Note_on_c, 12, 86, 0
30, 526319, Note_on_c, 12, 74, 0
30, 555840, Note_on_c, 12, 79, 32
30, 557744, Note_on_c, 12, 79, 0
30, 557760, Note_on_c, 12, 79, 32
30, 558704, Note_on_c, 12, 79, 0
30, 558720, Note_on_c, 12, 79, 32
30, 560144, Note_on_c, 12, 79, 0
30, 560160, Note_on_c, 12, 85, 32
30, 560160, Note_on_c, 12, 76, 32
30, 560211, Note_on_c, 12, 85, 0
30, 560211, Note_on_c, 12, 76, 0
30, 560220, Note_on_c, 12, 76, 32
30, 560220, Note_on_c, 12, 85, 32
30, 560271, Note_on_c, 12, 76, 0
30, 560271, Note_on_c, 12, 85, 0
30, 560280, Note_on_c, 12, 76, 32
30, 560280, Note_on_c, 12, 85, 32
30, 560331, Note_on_c, 12, 76, 0
30, 560331, Note_on_c, 12, 85, 0
30, 560340, Note_on_c, 12, 85, 32
30, 560340, Note_on_c, 12, 76, 32
30, 560391, Note_on_c, 12, 85, 0
30, 560391, Note_on_c, 12, 76, 0
30, 560400, Note_on_c, 12, 85, 32
30, 560400, Note_on_c, 12, 76, 32
30, 560451, Note_on_c, 12, 85, 0
30, 560451, Note_on_c, 12, 76, 0
30, 560460, Note_on_c, 12, 76, 32
30, 560460, Note_on_c, 12, 85, 32
30, 560511, Note_on_c, 12, 76, 0
30, 560511, Note_on_c, 12, 85, 0
30, 560520, Note_on_c, 12, 85, 32
30, 560520, Note_on_c, 12, 76, 32
30, 560571, Note_on_c, 12, 85, 0
30, 560571, Note_on_c, 12, 76, 0
30, 560580, Note_on_c, 12, 76, 32
30, 560580, Note_on_c, 12, 85, 32
30, 560631, Note_on_c, 12, 76, 0
30, 560631, Note_on_c, 12, 85, 0
30, 560640, Note_on_c, 12, 85, 32
30, 560640, Note_on_c, 12, 76, 32
30, 560691, Note_on_c, 12, 85, 0
30, 560691, Note_on_c, 12, 76, 0
30, 560700, Note_on_c, 12, 85, 32
30, 560700, Note_on_c, 12, 76, 32
30, 560751, Note_on_c, 12, 85, 0
30, 560751, Note_on_c, 12, 76, 0
30, 560760, Note_on_c, 12, 85, 32
30, 560760, Note_on_c, 12, 76, 32
30, 560811, Note_on_c, 12, 85, 0
30, 560811, Note_on_c, 12, 76, 0
30, 560820, Note_on_c, 12, 76, 32
30, 560820, Note_on_c, 12, 85, 32
30, 560871, Note_on_c, 12, 76, 0
30, 560871, Note_on_c, 12, 85, 0
30, 560880, Note_on_c, 12, 76, 32
30, 560880, Note_on_c, 12, 85, 32
30, 560931, Note_on_c, 12, 76, 0
30, 560931, Note_on_c, 12, 85, 0
30, 560940, Note_on_c, 12, 85, 32
30, 560940, Note_on_c, 12, 76, 32
30, 560991, Note_on_c, 12, 85, 0
30, 560991, Note_on_c, 12, 76, 0
30, 561000, Note_on_c, 12, 76, 32
30, 561000, Note_on_c, 12, 85, 32
30, 561051, Note_on_c, 12, 76, 0
30, 561051, Note_on_c, 12, 85, 0
30, 561060, Note_on_c, 12, 76, 32
30, 561060, Note_on_c, 12, 85, 32
30, 561111, Note_on_c, 12, 76, 0
30, 561111, Note_on_c, 12, 85, 0
30, 561120, Note_on_c, 12, 85, 32
30, 561120, Note_on_c, 12, 76, 32
30, 561171, Note_on_c, 12, 85, 0
30, 561171, Note_on_c, 12, 76, 0
30, 561180, Note_on_c, 12, 85, 32
30, 561180, Note_on_c, 12, 76, 32
30, 561231, Note_on_c, 12, 85, 0
30, 561231, Note_on_c, 12, 76, 0
30, 561240, Note_on_c, 12, 85, 32
30, 561240, Note_on_c, 12, 76, 32
30, 561291, Note_on_c, 12, 85, 0
30, 561291, Note_on_c, 12, 76, 0
30, 561300, Note_on_c, 12, 76, 32
30, 561300, Note_on_c, 12, 85, 32
30, 561351, Note_on_c, 12, 76, 0
30, 561351, Note_on_c, 12, 85, 0
30, 561360, Note_on_c, 12, 85, 32
30, 561360, Note_on_c, 12, 76, 32
30, 561411, Note_on_c, 12, 85, 0
30, 561411, Note_on_c, 12, 76, 0
30, 561420, Note_on_c, 12, 85, 32
30, 561420, Note_on_c, 12, 76, 32
30, 561471, Note_on_c, 12, 85, 0
30, 561471, Note_on_c, 12, 76, 0
30, 561480, Note_on_c, 12, 85, 32
30, 561480, Note_on_c, 12, 76, 32
30, 561531, Note_on_c, 12, 85, 0
30, 561531, Note_on_c, 12, 76, 0
30, 561540, Note_on_c, 12, 85, 32
30, 561540, Note_on_c, 12, 76, 32
30, 561591, Note_on_c, 12, 85, 0
30, 561591, Note_on_c, 12, 76, 0
30, 561600, Note_on_c, 12, 85, 32
30, 561600, Note_on_c, 12, 76, 32
30, 561651, Note_on_c, 12, 85, 0
30, 561651, Note_on_c, 12, 76, 0
30, 561660, Note_on_c, 12, 76, 32
30, 561660, Note_on_c, 12, 85, 32
30, 561711, Note_on_c, 12, 76, 0
30, 561711, Note_on_c, 12, 85, 0
30, 561720, Note_on_c, 12, 85, 32
30, 561720, Note_on_c, 12, 76, 32
30, 561771, Note_on_c, 12, 85, 0
30, 561771, Note_on_c, 12, 76, 0
30, 561780, Note_on_c, 12, 76, 32
30, 561780, Note_on_c, 12, 85, 32
30, 561831, Note_on_c, 12, 76, 0
30, 561831, Note_on_c, 12, 85, 0
30, 561840, Note_on_c, 12, 85, 32
30, 561840, Note_on_c, 12, 76, 32
30, 561891, Note_on_c, 12, 85, 0
30, 561891, Note_on_c, 12, 76, 0
30, 561900, Note_on_c, 12, 85, 32
30, 561900, Note_on_c, 12, 76, 32
30, 561951, Note_on_c, 12, 85, 0
30, 561951, Note_on_c, 12, 76, 0
30, 561960, Note_on_c, 12, 85, 32
30, 561960, Note_on_c, 12, 76, 32
30, 562011, Note_on_c, 12, 85, 0
30, 562011, Note_on_c, 12, 76, 0
30, 562020, Note_on_c, 12, 76, 32
30, 562020, Note_on_c, 12, 85, 32
30, 562071, Note_on_c, 12, 76, 0
30, 562071, Note_on_c, 12, 85, 0
30, 562080, Note_on_c, 12, 85, 32
30, 562080, Note_on_c, 12, 76, 32
30, 562131, Note_on_c, 12, 85, 0
30, 562131, Note_on_c, 12, 76, 0
30, 562140, Note_on_c, 12, 85, 32
30, 562140, Note_on_c, 12, 76, 32
30, 562191, Note_on_c, 12, 85, 0
30, 562191, Note_on_c, 12, 76, 0
30, 562200, Note_on_c, 12, 76, 32
30, 562200, Note_on_c, 12, 85, 32
30, 562251, Note_on_c, 12, 76, 0
30, 562251, Note_on_c, 12, 85, 0
30, 562260, Note_on_c, 12, 85, 32
30, 562260, Note_on_c, 12, 76, 32
30, 562311, Note_on_c, 12, 85, 0
30, 562311, Note_on_c, 12, 76, 0
30, 562320, Note_on_c, 12, 85, 32
30, 562320, Note_on_c, 12, 76, 32
30, 562371, Note_on_c, 12, 85, 0
30, 562371, Note_on_c, 12, 76, 0
30, 562380, Note_on_c, 12, 85, 32
30, 562380, Note_on_c, 12, 76, 32
30, 562431, Note_on_c, 12, 85, 0
30, 562431, Note_on_c, 12, 76, 0
30, 562440, Note_on_c, 12, 85, 32
30, 562440, Note_on_c, 12, 76, 32
30, 562491, Note_on_c, 12, 85, 0
30, 562491, Note_on_c, 12, 76, 0
30, 562500, Note_on_c, 12, 76, 32
30, 562500, Note_on_c, 12, 85, 32
30, 562551, Note_on_c, 12, 76, 0
30, 562551, Note_on_c, 12, 85, 0
30, 562560, Note_on_c, 12, 76, 32
30, 562560, Note_on_c, 12, 85, 32
30, 562611, Note_on_c, 12, 76, 0
30, 562611, Note_on_c, 12, 85, 0
30, 562620, Note_on_c, 12, 85, 32
30, 562620, Note_on_c, 12, 76, 32
30, 562671, Note_on_c, 12, 85, 0
30, 562671, Note_on_c, 12, 76, 0
30, 562680, Note_on_c, 12, 85, 32
30, 562680, Note_on_c, 12, 76, 32
30, 562731, Note_on_c, 12, 85, 0
30, 562731, Note_on_c, 12, 76, 0
30, 562740, Note_on_c, 12, 85, 32
30, 562740, Note_on_c, 12, 76, 32
30, 562791, Note_on_c, 12, 85, 0
30, 562791, Note_on_c, 12, 76, 0
30, 562800, Note_on_c, 12, 85, 32
30, 562800, Note_on_c, 12, 76, 32
30, 562851, Note_on_c, 12, 85, 0
30, 562851, Note_on_c, 12, 76, 0
30, 562860, Note_on_c, 12, 85, 32
30, 562860, Note_on_c, 12, 76, 32
30, 562911, Note_on_c, 12, 85, 0
30, 562911, Note_on_c, 12, 76, 0
30, 562920, Note_on_c, 12, 85, 32
30, 562920, Note_on_c, 12, 76, 32
30, 562971, Note_on_c, 12, 85, 0
30, 562971, Note_on_c, 12, 76, 0
30, 562980, Note_on_c, 12, 85, 32
30, 562980, Note_on_c, 12, 76, 32
30, 563031, Note_on_c, 12, 85, 0
30, 563031, Note_on_c, 12, 76, 0
30, 563040, Note_on_c, 12, 76, 32
30, 563040, Note_on_c, 12, 85, 32
30, 563091, Note_on_c, 12, 76, 0
30, 563091, Note_on_c, 12, 85, 0
30, 563100, Note_on_c, 12, 85, 32
30, 563100, Note_on_c, 12, 76, 32
30, 563151, Note_on_c, 12, 85, 0
30, 563151, Note_on_c, 12, 76, 0
30, 563160, Note_on_c, 12, 85, 32
30, 563160, Note_on_c, 12, 76, 32
30, 563211, Note_on_c, 12, 85, 0
30, 563211, Note_on_c, 12, 76, 0
30, 563220, Note_on_c, 12, 85, 32
30, 563220, Note_on_c, 12, 76, 32
30, 563271, Note_on_c, 12, 85, 0
30, 563271, Note_on_c, 12, 76, 0
30, 563280, Note_on_c, 12, 76, 32
30, 563280, Note_on_c, 12, 85, 32
30, 563331, Note_on_c, 12, 76, 0
30, 563331, Note_on_c, 12, 85, 0
30, 563340, Note_on_c, 12, 85, 32
30, 563340, Note_on_c, 12, 76, 32
30, 563391, Note_on_c, 12, 85, 0
30, 563391, Note_on_c, 12, 76, 0
30, 563400, Note_on_c, 12, 76, 32
30, 563400, Note_on_c, 12, 85, 32
30, 563451, Note_on_c, 12, 76, 0
30, 563451, Note_on_c, 12, 85, 0
30, 563460, Note_on_c, 12, 85, 32
30, 563460, Note_on_c, 12, 76, 32
30, 563511, Note_on_c, 12, 85, 0
30, 563511, Note_on_c, 12, 76, 0
30, 563520, Note_on_c, 12, 85, 32
30, 563520, Note_on_c, 12, 76, 32
30, 563571, Note_on_c, 12, 85, 0
30, 563571, Note_on_c, 12, 76, 0
30, 563580, Note_on_c, 12, 85, 32
30, 563580, Note_on_c, 12, 76, 32
30, 563631, Note_on_c, 12, 85, 0
30, 563631, Note_on_c, 12, 76, 0
30, 563640, Note_on_c, 12, 76, 32
30, 563640, Note_on_c, 12, 85, 32
30, 563691, Note_on_c, 12, 76, 0
30, 563691, Note_on_c, 12, 85, 0
30, 563700, Note_on_c, 12, 85, 32
30, 563700, Note_on_c, 12, 76, 32
30, 563751, Note_on_c, 12, 85, 0
30, 563751, Note_on_c, 12, 76, 0
30, 563760, Note_on_c, 12, 76, 32
30, 563760, Note_on_c, 12, 85, 32
30, 563811, Note_on_c, 12, 76, 0
30, 563811, Note_on_c, 12, 85, 0
30, 563820, Note_on_c, 12, 85, 32
30, 563820, Note_on_c, 12, 76, 32
30, 563871, Note_on_c, 12, 85, 0
30, 563871, Note_on_c, 12, 76, 0
30, 563880, Note_on_c, 12, 76, 32
30, 563880, Note_on_c, 12, 85, 32
30, 563931, Note_on_c, 12, 76, 0
30, 563931, Note_on_c, 12, 85, 0
30, 563940, Note_on_c, 12, 76, 32
30, 563940, Note_on_c, 12, 85, 32
30, 563991, Note_on_c, 12, 76, 0
30, 563991, Note_on_c, 12, 85, 0
30, 564000, Note_on_c, 12, 76, 32
30, 564000, Note_on_c, 12, 85, 32
30, 564051, Note_on_c, 12, 76, 0
30, 564051, Note_on_c, 12, 85, 0
30, 564060, Note_on_c, 12, 76, 32
30, 564060, Note_on_c, 12, 85, 32
30, 564111, Note_on_c, 12, 76, 0
30, 564111, Note_on_c, 12, 85, 0
30, 564120, Note_on_c, 12, 85, 32
30, 564120, Note_on_c, 12, 76, 32
30, 564171, Note_on_c, 12, 85, 0
30, 564171, Note_on_c, 12, 76, 0
30, 564180, Note_on_c, 12, 85, 32
30, 564180, Note_on_c, 12, 76, 32
30, 564231, Note_on_c, 12, 85, 0
30, 564231, Note_on_c, 12, 76, 0
30, 564240, Note_on_c, 12, 76, 32
30, 564240, Note_on_c, 12, 85, 32
30, 564291, Note_on_c, 12, 76, 0
30, 564291, Note_on_c, 12, 85, 0
30, 564300, Note_on_c, 12, 76, 32
30, 564300, Note_on_c, 12, 85, 32
30, 564351, Note_on_c, 12, 76, 0
30, 564351, Note_on_c, 12, 85, 0
30, 564360, Note_on_c, 12, 85, 32
30, 564360, Note_on_c, 12, 76, 32
30, 564411, Note_on_c, 12, 85, 0
30, 564411, Note_on_c, 12, 76, 0
30, 564420, Note_on_c, 12, 85, 32
30, 564420, Note_on_c, 12, 76, 32
30, 564471, Note_on_c, 12, 85, 0
30, 564471, Note_on_c, 12, 76, 0
30, 564480, Note_on_c, 12, 85, 32
30, 564480, Note_on_c, 12, 76, 32
30, 564531, Note_on_c, 12, 85, 0
30, 564531, Note_on_c, 12, 76, 0
30, 564540, Note_on_c, 12, 76, 32
30, 564540, Note_on_c, 12, 85, 32
30, 564591, Note_on_c, 12, 76, 0
30, 564591, Note_on_c, 12, 85, 0
30, 564600, Note_on_c, 12, 85, 32
30, 564600, Note_on_c, 12, 76, 32
30, 564651, Note_on_c, 12, 85, 0
30, 564651, Note_on_c, 12, 76, 0
30, 564660, Note_on_c, 12, 76, 32
30, 564660, Note_on_c, 12, 85, 32
30, 564711, Note_on_c, 12, 76, 0
30, 564711, Note_on_c, 12, 85, 0
30, 564720, Note_on_c, 12, 76, 32
30, 564720, Note_on_c, 12, 85, 32
30, 564771, Note_on_c, 12, 76, 0
30, 564771, Note_on_c, 12, 85, 0
30, 564780, Note_on_c, 12, 85, 32
30, 564780, Note_on_c, 12, 76, 32
30, 564831, Note_on_c, 12, 85, 0
30, 564831, Note_on_c, 12, 76, 0
30, 564840, Note_on_c, 12, 85, 32
30, 564840, Note_on_c, 12, 76, 32
30, 564891, Note_on_c, 12, 85, 0
30, 564891, Note_on_c, 12, 76, 0
30, 564900, Note_on_c, 12, 76, 32
30, 564900, Note_on_c, 12, 85, 32
30, 564951, Note_on_c, 12, 76, 0
30, 564951, Note_on_c, 12, 85, 0
30, 564960, Note_on_c, 12, 85, 32
30, 564960, Note_on_c, 12, 76, 32
30, 565011, Note_on_c, 12, 85, 0
30, 565011, Note_on_c, 12, 76, 0
30, 565020, Note_on_c, 12, 76, 32
30, 565020, Note_on_c, 12, 85, 32
30, 565071, Note_on_c, 12, 76, 0
30, 565071, Note_on_c, 12, 85, 0
30, 565080, Note_on_c, 12, 76, 32
30, 565080, Note_on_c, 12, 85, 32
30, 565131, Note_on_c, 12, 76, 0
30, 565131, Note_on_c, 12, 85, 0
30, 565140, Note_on_c, 12, 76, 32
30, 565140, Note_on_c, 12, 85, 32
30, 565191, Note_on_c, 12, 76, 0
30, 565191, Note_on_c, 12, 85, 0
30, 565200, Note_on_c, 12, 85, 32
30, 565200, Note_on_c, 12, 76, 32
30, 565251, Note_on_c, 12, 85, 0
30, 565251, Note_on_c, 12, 76, 0
30, 565260, Note_on_c, 12, 85, 32
30, 565260, Note_on_c, 12, 76, 32
30, 565311, Note_on_c, 12, 85, 0
30, 565311, Note_on_c, 12, 76, 0
30, 565320, Note_on_c, 12, 85, 32
30, 565320, Note_on_c, 12, 76, 32
30, 565371, Note_on_c, 12, 85, 0
30, 565371, Note_on_c, 12, 76, 0
30, 565380, Note_on_c, 12, 76, 32
30, 565380, Note_on_c, 12, 85, 32
30, 565431, Note_on_c, 12, 76, 0
30, 565431, Note_on_c, 12, 85, 0
30, 565440, Note_on_c, 12, 85, 32
30, 565440, Note_on_c, 12, 76, 32
30, 565491, Note_on_c, 12, 85, 0
30, 565491, Note_on_c, 12, 76, 0
30, 565500, Note_on_c, 12, 85, 32
30, 565500, Note_on_c, 12, 76, 32
30, 565551, Note_on_c, 12, 85, 0
30, 565551, Note_on_c, 12, 76, 0
30, 565560, Note_on_c, 12, 85, 32
30, 565560, Note_on_c, 12, 76, 32
30, 565611, Note_on_c, 12, 85, 0
30, 565611, Note_on_c, 12, 76, 0
30, 565620, Note_on_c, 12, 76, 32
30, 565620, Note_on_c, 12, 85, 32
30, 565671, Note_on_c, 12, 76, 0
30, 565671, Note_on_c, 12, 85, 0
30, 565680, Note_on_c, 12, 85, 32
30, 565680, Note_on_c, 12, 76, 32
30, 565731, Note_on_c, 12, 85, 0
30, 565731, Note_on_c, 12, 76, 0
30, 565740, Note_on_c, 12, 85, 32
30, 565740, Note_on_c, 12, 76, 32
30, 565791, Note_on_c, 12, 85, 0
30, 565791, Note_on_c, 12, 76, 0
30, 565800, Note_on_c, 12, 85, 32
30, 565800, Note_on_c, 12, 76, 32
30, 565851, Note_on_c, 12, 85, 0
30, 565851, Note_on_c, 12, 76, 0
30, 565860, Note_on_c, 12, 76, 32
30, 565860, Note_on_c, 12, 85, 32
30, 565911, Note_on_c, 12, 76, 0
30, 565911, Note_on_c, 12, 85, 0
30, 565920, Note_on_c, 12, 76, 32
30, 565920, Note_on_c, 12, 85, 32
30, 565971, Note_on_c, 12, 76, 0
30, 565971, Note_on_c, 12, 85, 0
30, 565980, Note_on_c, 12, 85, 32
30, 565980, Note_on_c, 12, 76, 32
30, 566031, Note_on_c, 12, 85, 0
30, 566031, Note_on_c, 12, 76, 0
30, 566040, Note_on_c, 12, 85, 32
30, 566040, Note_on_c, 12, 76, 32
30, 566091, Note_on_c, 12, 85, 0
30, 566091, Note_on_c, 12, 76, 0
30, 566100, Note_on_c, 12, 85, 32
30, 566100, Note_on_c, 12, 76, 32
30, 566151, Note_on_c, 12, 85, 0
30, 566151, Note_on_c, 12, 76, 0
30, 566160, Note_on_c, 12, 76, 32
30, 566160, Note_on_c, 12, 85, 32
30, 566211, Note_on_c, 12, 76, 0
30, 566211, Note_on_c, 12, 85, 0
30, 566220, Note_on_c, 12, 76, 32
30, 566220, Note_on_c, 12, 85, 32
30, 566271, Note_on_c, 12, 76, 0
30, 566271, Note_on_c, 12, 85, 0
30, 566280, Note_on_c, 12, 76, 32
30, 566280, Note_on_c, 12, 85, 32
30, 566331, Note_on_c, 12, 76, 0
30, 566331, Note_on_c, 12, 85, 0
30, 566340, Note_on_c, 12, 76, 32
30, 566340, Note_on_c, 12, 85, 32
30, 566391, Note_on_c, 12, 76, 0
30, 566391, Note_on_c, 12, 85, 0
30, 566400, Note_on_c, 12, 76, 32
30, 566400, Note_on_c, 12, 85, 32
30, 566451, Note_on_c, 12, 76, 0
30, 566451, Note_on_c, 12, 85, 0
30, 566460, Note_on_c, 12, 85, 32
30, 566460, Note_on_c, 12, 76, 32
30, 566511, Note_on_c, 12, 85, 0
30, 566511, Note_on_c, 12, 76, 0
30, 566520, Note_on_c, 12, 76, 32
30, 566520, Note_on_c, 12, 85, 32
30, 566571, Note_on_c, 12, 76, 0
30, 566571, Note_on_c, 12, 85, 0
30, 566580, Note_on_c, 12, 76, 32
30, 566580, Note_on_c, 12, 85, 32
30, 566631, Note_on_c, 12, 76, 0
30, 566631, Note_on_c, 12, 85, 0
30, 566640, Note_on_c, 12, 85, 32
30, 566640, Note_on_c, 12, 76, 32
30, 566691, Note_on_c, 12, 85, 0
30, 566691, Note_on_c, 12, 76, 0
30, 566700, Note_on_c, 12, 76, 32
30, 566700, Note_on_c, 12, 85, 32
30, 566751, Note_on_c, 12, 76, 0
30, 566751, Note_on_c, 12, 85, 0
30, 566760, Note_on_c, 12, 85, 32
30, 566760, Note_on_c, 12, 76, 32
30, 566811, Note_on_c, 12, 85, 0
30, 566811, Note_on_c, 12, 76, 0
30, 566820, Note_on_c, 12, 76, 32
30, 566820, Note_on_c, 12, 85, 32
30, 566879, Note_on_c, 12, 76, 0
30, 566879, Note_on_c, 12, 85, 0
30, 568320, Note_on_c, 12, 78, 92
30, 568439, Note_on_c, 12, 78, 0
30, 568440, Note_on_c, 12, 69, 92
30, 568559, Note_on_c, 12, 69, 0
30, 568560, Note_on_c, 12, 71, 92
30, 568679, Note_on_c, 12, 71, 0
30, 568680, Note_on_c, 12, 73, 92
30, 568799, Note_on_c, 12, 73, 0
30, 568800, Note_on_c, 12, 74, 92
30, 568919, Note_on_c, 12, 74, 0
30, 568920, Note_on_c, 12, 76, 92
30, 569019, Note_on_c, 12, 76, 0
30, 569040, Note_on_c, 12, 78, 80
30, 569159, Note_on_c, 12, 78, 0
30, 569160, Note_on_c, 12, 76, 80
30, 569279, Note_on_c, 12, 76, 0
30, 569280, Note_on_c, 12, 74, 80
30, 569399, Note_on_c, 12, 74, 0
30, 569400, Note_on_c, 12, 76, 80
30, 569519, Note_on_c, 12, 76, 0
30, 569520, Note_on_c, 12, 78, 80
30, 569639, Note_on_c, 12, 78, 0
30, 569640, Note_on_c, 12, 79, 80
30, 569739, Note_on_c, 12, 79, 0
30, 569760, Note_on_c, 12, 81, 80
30, 569879, Note_on_c, 12, 81, 0
30, 569880, Note_on_c, 12, 83, 80
30, 569999, Note_on_c, 12, 83, 0
30, 570000, Note_on_c, 12, 81, 80
30, 570119, Note_on_c, 12, 81, 0
30, 570120, Note_on_c, 12, 79, 80
30, 570239, Note_on_c, 12, 79, 0
30, 570240, Note_on_c, 12, 81, 80
30, 570359, Note_on_c, 12, 81, 0
30, 570360, Note_on_c, 12, 79, 80
30, 570459, Note_on_c, 12, 79, 0
30, 570480, Note_on_c, 12, 78, 80
30, 570599, Note_on_c, 12, 78, 0
30, 570600, Note_on_c, 12, 79, 80
30, 570719, Note_on_c, 12, 79, 0
30, 570720, Note_on_c, 12, 78, 80
30, 570839, Note_on_c, 12, 78, 0
30, 570840, Note_on_c, 12, 76, 80
30, 570959, Note_on_c, 12, 76, 0
30, 570960, Note_on_c, 12, 78, 80
30, 571079, Note_on_c, 12, 78, 0
30, 571080, Note_on_c, 12, 76, 80
30, 571179, Note_on_c, 12, 76, 0
30, 571200, Note_on_c, 12, 74, 80
30, 571319, Note_on_c, 12, 74, 0
30, 571320, Note_on_c, 12, 66, 80
30, 571439, Note_on_c, 12, 66, 0
30, 571440, Note_on_c, 12, 67, 80
30, 571559, Note_on_c, 12, 67, 0
30, 571560, Note_on_c, 12, 69, 80
30, 571679, Note_on_c, 12, 69, 0
30, 571680, Note_on_c, 12, 71, 80
30, 571799, Note_on_c, 12, 71, 0
30, 571800, Note_on_c, 12, 73, 80
30, 571899, Note_on_c, 12, 73, 0
30, 571920, Note_on_c, 12, 74, 80
30, 572039, Note_on_c, 12, 74, 0
30, 572040, Note_on_c, 12, 73, 80
30, 572159, Note_on_c, 12, 73, 0
30, 572160, Note_on_c, 12, 71, 80
30, 572279, Note_on_c, 12, 71, 0
30, 572280, Note_on_c, 12, 73, 80
30, 572399, Note_on_c, 12, 73, 0
30, 572400, Note_on_c, 12, 74, 80
30, 572519, Note_on_c, 12, 74, 0
30, 572520, Note_on_c, 12, 76, 80
30, 572619, Note_on_c, 12, 76, 0
30, 572640, Note_on_c, 12, 78, 80
30, 572759, Note_on_c, 12, 78, 0
30, 572760, Note_on_c, 12, 79, 80
30, 572879, Note_on_c, 12, 79, 0
30, 572880, Note_on_c, 12, 78, 80
30, 572999, Note_on_c, 12, 78, 0
30, 573000, Note_on_c, 12, 76, 80
30, 573119, Note_on_c, 12, 76, 0
30, 573120, Note_on_c, 12, 78, 80
30, 573239, Note_on_c, 12, 78, 0
30, 573240, Note_on_c, 12, 76, 80
30, 573339, Note_on_c, 12, 76, 0
30, 573360, Note_on_c, 12, 74, 80
30, 573479, Note_on_c, 12, 74, 0
30, 573480, Note_on_c, 12, 76, 80
30, 573599, Note_on_c, 12, 76, 0
30, 573600, Note_on_c, 12, 74, 80
30, 573719, Note_on_c, 12, 74, 0
30, 573720, Note_on_c, 12, 73, 80
30, 573839, Note_on_c, 12, 73, 0
30, 573840, Note_on_c, 12, 74, 80
30, 573959, Note_on_c, 12, 74, 0
30, 573960, Note_on_c, 12, 73, 80
30, 574059, Note_on_c, 12, 73, 0
30, 574080, Note_on_c, 12, 71, 80
30, 574199, Note_on_c, 12, 71, 0
30, 574200, Note_on_c, 12, 62, 80
30, 574319, Note_on_c, 12, 62, 0
30, 574320, Note_on_c, 12, 64, 80
30, 574439, Note_on_c, 12, 64, 0
30, 574440, Note_on_c, 12, 66, 80
30, 574559, Note_on_c, 12, 66, 0
30, 574560, Note_on_c, 12, 67, 80
30, 574679, Note_on_c, 12, 67, 0
30, 574680, Note_on_c, 12, 69, 80
30, 574779, Note_on_c, 12, 69, 0
30, 574800, Note_on_c, 12, 71, 80
30, 574919, Note_on_c, 12, 71, 0
30, 574920, Note_on_c, 12, 69, 80
30, 575039, Note_on_c, 12, 69, 0
30, 575040, Note_on_c, 12, 67, 80
30, 575159, Note_on_c, 12, 67, 0
30, 575160, Note_on_c, 12, 69, 80
30, 575279, Note_on_c, 12, 69, 0
30, 575280, Note_on_c, 12, 71, 80
30, 575399, Note_on_c, 12, 71, 0
30, 575400, Note_on_c, 12, 73, 80
30, 575499, Note_on_c, 12, 73, 0
30, 575520, Note_on_c, 12, 74, 80
30, 575639, Note_on_c, 12, 74, 0
30, 575640, Note_on_c, 12, 76, 80
30, 575759, Note_on_c, 12, 76, 0
30, 575760, Note_on_c, 12, 74, 80
30, 575879, Note_on_c, 12, 74, 0
30, 575880, Note_on_c, 12, 73, 80
30, 575999, Note_on_c, 12, 73, 0
30, 576000, Note_on_c, 12, 74, 80
30, 576119, Note_on_c, 12, 74, 0
30, 576120, Note_on_c, 12, 73, 80
30, 576219, Note_on_c, 12, 73, 0
30, 576240, Note_on_c, 12, 71, 80
30, 576359, Note_on_c, 12, 71, 0
30, 576360, Note_on_c, 12, 73, 80
30, 576479, Note_on_c, 12, 73, 0
30, 576480, Note_on_c, 12, 71, 80
30, 576599, Note_on_c, 12, 71, 0
30, 576600, Note_on_c, 12, 69, 80
30, 576719, Note_on_c, 12, 69, 0
30, 576720, Note_on_c, 12, 71, 80
30, 576839, Note_on_c, 12, 71, 0
30, 576840, Note_on_c, 12, 69, 80
30, 576939, Note_on_c, 12, 69, 0
30, 576960, Note_on_c, 12, 67, 80
30, 577079, Note_on_c, 12, 67, 0
30, 577080, Note_on_c, 12, 69, 80
30, 577199, Note_on_c, 12, 69, 0
30, 577200, Note_on_c, 12, 67, 80
30, 577319, Note_on_c, 12, 67, 0
30, 577320, Note_on_c, 12, 66, 80
30, 577439, Note_on_c, 12, 66, 0
30, 577440, Note_on_c, 12, 67, 80
30, 577559, Note_on_c, 12, 67, 0
30, 577560, Note_on_c, 12, 66, 80
30, 577659, Note_on_c, 12, 66, 0
30, 577680, Note_on_c, 12, 64, 80
30, 577799, Note_on_c, 12, 64, 0
30, 577800, Note_on_c, 12, 66, 80
30, 577919, Note_on_c, 12, 66, 0
30, 577920, Note_on_c, 12, 64, 80
30, 578039, Note_on_c, 12, 64, 0
30, 578040, Note_on_c, 12, 62, 80
30, 578159, Note_on_c, 12, 62, 0
30, 578160, Note_on_c, 12, 64, 80
30, 578279, Note_on_c, 12, 64, 0
30, 578280, Note_on_c, 12, 62, 80
30, 578379, Note_on_c, 12, 62, 0
30, 578400, Note_on_c, 12, 69, 80
30, 578519, Note_on_c, 12, 69, 0
30, 578520, Note_on_c, 12, 68, 80
30, 578639, Note_on_c, 12, 68, 0
30, 578640, Note_on_c, 12, 69, 80
30, 578759, Note_on_c, 12, 69, 0
30, 578760, Note_on_c, 12, 71, 80
30, 578879, Note_on_c, 12, 71, 0
30, 578880, Note_on_c, 12, 73, 80
30, 578999, Note_on_c, 12, 73, 0
30, 579000, Note_on_c, 12, 71, 80
30, 579099, Note_on_c, 12, 71, 0
30, 579120, Note_on_c, 12, 69, 80
30, 579239, Note_on_c, 12, 69, 0
30, 579240, Note_on_c, 12, 73, 80
30, 579359, Note_on_c, 12, 73, 0
30, 579360, Note_on_c, 12, 76, 80
30, 579479, Note_on_c, 12, 76, 0
30, 579480, Note_on_c, 12, 68, 80
30, 579599, Note_on_c, 12, 68, 0
30, 579600, Note_on_c, 12, 69, 80
30, 579839, Note_on_c, 12, 69, 0
30, 581280, Note_on_c, 12, 76, 92
30, 581379, Note_on_c, 12, 76, 0
30, 581400, Note_on_c, 12, 64, 80
30, 581499, Note_on_c, 12, 64, 0
30, 581520, Note_on_c, 12, 76, 80
30, 581619, Note_on_c, 12, 76, 0
30, 581640, Note_on_c, 12, 76, 80
30, 581739, Note_on_c, 12, 76, 0
30, 581760, Note_on_c, 12, 76, 80
30, 581999, Note_on_c, 12, 76, 0
30, 584160, Note_on_c, 12, 81, 92
30, 584259, Note_on_c, 12, 81, 0
30, 584280, Note_on_c, 12, 69, 80
30, 584379, Note_on_c, 12, 69, 0
30, 584400, Note_on_c, 12, 81, 80
30, 584499, Note_on_c, 12, 81, 0
30, 584520, Note_on_c, 12, 81, 80
30, 584619, Note_on_c, 12, 81, 0
30, 584640, Note_on_c, 12, 81, 80
30, 584879, Note_on_c, 12, 81, 0
30, 586320, Note_on_c, 12, 78, 80
30, 586439, Note_on_c, 12, 78, 0
30, 586440, Note_on_c, 12, 79, 80
30, 586559, Note_on_c, 12, 79, 0
30, 586560, Note_on_c, 12, 78, 80
30, 586659, Note_on_c, 12, 78, 0
30, 586680, Note_on_c, 12, 78, 80
30, 586779, Note_on_c, 12, 78, 0
30, 586800, Note_on_c, 12, 78, 80
30, 586899, Note_on_c, 12, 78, 0
30, 586920, Note_on_c, 12, 78, 80
30, 587019, Note_on_c, 12, 78, 0
30, 587040, Note_on_c, 12, 78, 80
30, 587159, Note_on_c, 12, 78, 0
30, 587160, Note_on_c, 12, 79, 80
30, 587279, Note_on_c, 12, 79, 0
30, 587280, Note_on_c, 12, 78, 80
30, 587399, Note_on_c, 12, 78, 0
30, 587400, Note_on_c, 12, 79, 80
30, 587499, Note_on_c, 12, 79, 0
30, 587520, Note_on_c, 12, 76, 80
30, 587619, Note_on_c, 12, 76, 0
30, 587640, Note_on_c, 12, 76, 80
30, 587739, Note_on_c, 12, 76, 0
30, 587760, Note_on_c, 12, 81, 80
30, 587879, Note_on_c, 12, 81, 0
30, 587880, Note_on_c, 12, 83, 80
30, 587999, Note_on_c, 12, 83, 0
30, 588000, Note_on_c, 12, 81, 80
30, 588119, Note_on_c, 12, 81, 0
30, 588120, Note_on_c, 12, 83, 80
30, 588219, Note_on_c, 12, 83, 0
30, 588240, Note_on_c, 12, 79, 80
30, 588339, Note_on_c, 12, 79, 0
30, 588360, Note_on_c, 12, 79, 80
30, 588459, Note_on_c, 12, 79, 0
30, 588480, Note_on_c, 12, 78, 80
30, 588599, Note_on_c, 12, 78, 0
30, 588600, Note_on_c, 12, 79, 80
30, 588719, Note_on_c, 12, 79, 0
30, 588720, Note_on_c, 12, 78, 80
30, 588839, Note_on_c, 12, 78, 0
30, 588840, Note_on_c, 12, 79, 80
30, 588939, Note_on_c, 12, 79, 0
30, 588960, Note_on_c, 12, 76, 80
30, 589059, Note_on_c, 12, 76, 0
30, 589080, Note_on_c, 12, 76, 80
30, 589179, Note_on_c, 12, 76, 0
30, 589200, Note_on_c, 12, 74, 80
30, 589319, Note_on_c, 12, 74, 0
30, 589320, Note_on_c, 12, 76, 80
30, 589439, Note_on_c, 12, 76, 0
30, 589440, Note_on_c, 12, 74, 80
30, 589559, Note_on_c, 12, 74, 0
30, 589560, Note_on_c, 12, 76, 80
30, 589659, Note_on_c, 12, 76, 0
30, 589680, Note_on_c, 12, 73, 80
30, 589779, Note_on_c, 12, 73, 0
30, 589800, Note_on_c, 12, 73, 80
30, 589899, Note_on_c, 12, 73, 0
30, 589920, Note_on_c, 12, 76, 80
30, 590039, Note_on_c, 12, 76, 0
30, 590040, Note_on_c, 12, 78, 80
30, 590159, Note_on_c, 12, 78, 0
30, 590160, Note_on_c, 12, 76, 80
30, 590279, Note_on_c, 12, 76, 0
30, 590280, Note_on_c, 12, 81, 80
30, 590379, Note_on_c, 12, 81, 0
30, 590400, Note_on_c, 12, 74, 80
30, 590499, Note_on_c, 12, 74, 0
30, 590520, Note_on_c, 12, 74, 80
30, 590619, Note_on_c, 12, 74, 0
30, 590640, Note_on_c, 12, 76, 80
30, 590739, Note_on_c, 12, 76, 0
30, 590760, Note_on_c, 12, 76, 80
30, 590859, Note_on_c, 12, 76, 0
30, 590880, Note_on_c, 12, 76, 80
30, 590979, Note_on_c, 12, 76, 0
30, 591000, Note_on_c, 12, 76, 80
30, 591099, Note_on_c, 12, 76, 0
30, 591120, Note_on_c, 12, 78, 80
30, 591219, Note_on_c, 12, 78, 0
30, 591240, Note_on_c, 12, 78, 80
30, 591339, Note_on_c, 12, 78, 0
30, 591360, Note_on_c, 12, 78, 80
30, 591459, Note_on_c, 12, 78, 0
30, 591480, Note_on_c, 12, 78, 80
30, 591579, Note_on_c, 12, 78, 0
30, 591600, Note_on_c, 12, 78, 80
30, 591699, Note_on_c, 12, 78, 0
30, 591720, Note_on_c, 12, 78, 80
30, 591819, Note_on_c, 12, 78, 0
30, 591840, Note_on_c, 12, 78, 80
30, 591939, Note_on_c, 12, 78, 0
30, 591960, Note_on_c, 12, 78, 80
30, 592059, Note_on_c, 12, 78, 0
30, 592080, Note_on_c, 12, 78, 80
30, 592179, Note_on_c, 12, 78, 0
30, 592200, Note_on_c, 12, 78, 80
30, 592299, Note_on_c, 12, 78, 0
30, 592320, Note_on_c, 12, 78, 80
30, 592419, Note_on_c, 12, 78, 0
30, 592440, Note_on_c, 12, 78, 80
30, 592539, Note_on_c, 12, 78, 0
30, 592560, Note_on_c, 12, 78, 80
30, 592659, Note_on_c, 12, 78, 0
30, 592680, Note_on_c, 12, 78, 80
30, 592779, Note_on_c, 12, 78, 0
30, 592800, Note_on_c, 12, 78, 80
30, 592919, Note_on_c, 12, 78, 0
30, 592920, Note_on_c, 12, 79, 80
30, 593039, Note_on_c, 12, 79, 0
30, 593040, Note_on_c, 12, 78, 80
30, 593159, Note_on_c, 12, 78, 0
30, 593160, Note_on_c, 12, 79, 80
30, 593279, Note_on_c, 12, 79, 0
30, 593280, Note_on_c, 12, 78, 80
30, 593399, Note_on_c, 12, 78, 0
30, 593400, Note_on_c, 12, 76, 80
30, 593499, Note_on_c, 12, 76, 0
30, 593520, Note_on_c, 12, 74, 80
30, 593639, Note_on_c, 12, 74, 0
30, 593640, Note_on_c, 12, 76, 80
30, 593759, Note_on_c, 12, 76, 0
30, 593760, Note_on_c, 12, 74, 80
30, 593879, Note_on_c, 12, 74, 0
30, 593880, Note_on_c, 12, 76, 80
30, 593999, Note_on_c, 12, 76, 0
30, 594000, Note_on_c, 12, 74, 80
30, 594119, Note_on_c, 12, 74, 0
30, 594120, Note_on_c, 12, 73, 80
30, 594219, Note_on_c, 12, 73, 0
30, 594240, Note_on_c, 12, 74, 80
30, 594339, Note_on_c, 12, 74, 0
30, 594360, Note_on_c, 12, 74, 80
30, 594459, Note_on_c, 12, 74, 0
30, 594480, Note_on_c, 12, 74, 80
30, 594579, Note_on_c, 12, 74, 0
30, 594600, Note_on_c, 12, 74, 80
30, 594699, Note_on_c, 12, 74, 0
30, 594720, Note_on_c, 12, 74, 80
30, 594819, Note_on_c, 12, 74, 0
30, 594840, Note_on_c, 12, 74, 80
30, 594939, Note_on_c, 12, 74, 0
30, 594960, Note_on_c, 12, 74, 80
30, 595059, Note_on_c, 12, 74, 0
30, 595080, Note_on_c, 12, 74, 80
30, 595179, Note_on_c, 12, 74, 0
30, 595200, Note_on_c, 12, 74, 80
30, 595299, Note_on_c, 12, 74, 0
30, 595320, Note_on_c, 12, 74, 80
30, 595419, Note_on_c, 12, 74, 0
30, 595440, Note_on_c, 12, 74, 80
30, 595539, Note_on_c, 12, 74, 0
30, 595560, Note_on_c, 12, 74, 80
30, 595659, Note_on_c, 12, 74, 0
30, 595680, Note_on_c, 12, 74, 80
30, 595799, Note_on_c, 12, 74, 0
30, 595800, Note_on_c, 12, 76, 80
30, 595919, Note_on_c, 12, 76, 0
30, 595920, Note_on_c, 12, 74, 80
30, 596039, Note_on_c, 12, 74, 0
30, 596040, Note_on_c, 12, 76, 80
30, 596159, Note_on_c, 12, 76, 0
30, 596160, Note_on_c, 12, 74, 80
30, 596279, Note_on_c, 12, 74, 0
30, 596280, Note_on_c, 12, 73, 80
30, 596379, Note_on_c, 12, 73, 0
30, 596400, Note_on_c, 12, 71, 80
30, 596519, Note_on_c, 12, 71, 0
30, 596520, Note_on_c, 12, 73, 80
30, 596639, Note_on_c, 12, 73, 0
30, 596640, Note_on_c, 12, 71, 80
30, 596759, Note_on_c, 12, 71, 0
30, 596760, Note_on_c, 12, 73, 80
30, 596879, Note_on_c, 12, 73, 0
30, 596880, Note_on_c, 12, 71, 80
30, 596999, Note_on_c, 12, 71, 0
30, 597000, Note_on_c, 12, 69, 80
30, 597099, Note_on_c, 12, 69, 0
30, 597120, Note_on_c, 12, 71, 80
30, 597219, Note_on_c, 12, 71, 0
30, 597240, Note_on_c, 12, 71, 80
30, 597339, Note_on_c, 12, 71, 0
30, 597360, Note_on_c, 12, 71, 80
30, 597459, Note_on_c, 12, 71, 0
30, 597480, Note_on_c, 12, 71, 80
30, 597579, Note_on_c, 12, 71, 0
30, 597600, Note_on_c, 12, 71, 80
30, 597699, Note_on_c, 12, 71, 0
30, 597720, Note_on_c, 12, 71, 80
30, 597819, Note_on_c, 12, 71, 0
30, 597840, Note_on_c, 12, 71, 80
30, 597939, Note_on_c, 12, 71, 0
30, 597960, Note_on_c, 12, 71, 80
30, 598059, Note_on_c, 12, 71, 0
30, 598080, Note_on_c, 12, 71, 80
30, 598179, Note_on_c, 12, 71, 0
30, 598200, Note_on_c, 12, 71, 80
30, 598299, Note_on_c, 12, 71, 0
30, 598320, Note_on_c, 12, 71, 80
30, 598419, Note_on_c, 12, 71, 0
30, 598440, Note_on_c, 12, 71, 80
30, 598539, Note_on_c, 12, 71, 0
30, 598560, Note_on_c, 12, 71, 80
30, 598679, Note_on_c, 12, 71, 0
30, 598680, Note_on_c, 12, 69, 80
30, 598799, Note_on_c, 12, 69, 0
30, 598800, Note_on_c, 12, 71, 80
30, 598919, Note_on_c, 12, 71, 0
30, 598920, Note_on_c, 12, 69, 80
30, 599019, Note_on_c, 12, 69, 0
30, 599040, Note_on_c, 12, 69, 80
30, 599139, Note_on_c, 12, 69, 0
30, 599160, Note_on_c, 12, 69, 80
30, 599259, Note_on_c, 12, 69, 0
30, 599280, Note_on_c, 12, 69, 80
30, 599399, Note_on_c, 12, 69, 0
30, 599400, Note_on_c, 12, 57, 80
30, 599519, Note_on_c, 12, 57, 0
30, 599520, Note_on_c, 12, 69, 80
30, 599639, Note_on_c, 12, 69, 0
30, 599640, Note_on_c, 12, 57, 80
30, 599739, Note_on_c, 12, 57, 0
30, 599760, Note_on_c, 12, 69, 80
30, 599999, Note_on_c, 12, 69, 0
30, 602160, Note_on_c, 12, 81, 92
30, 603579, Note_on_c, 12, 81, 0
30, 603600, Note_on_c, 12, 81, 80
30, 604299, Note_on_c, 12, 81, 0
30, 604320, Note_on_c, 12, 80, 80
30, 605019, Note_on_c, 12, 80, 0
30, 605040, Note_on_c, 12, 76, 80
30, 605739, Note_on_c, 12, 76, 0
30, 605760, Note_on_c, 12, 78, 80
30, 606459, Note_on_c, 12, 78, 0
30, 606480, Note_on_c, 12, 78, 80
30, 607179, Note_on_c, 12, 78, 0
30, 607200, Note_on_c, 12, 76, 80
30, 607899, Note_on_c, 12, 76, 0
30, 607920, Note_on_c, 12, 73, 80
30, 608619, Note_on_c, 12, 73, 0
30, 608640, Note_on_c, 12, 74, 80
30, 609339, Note_on_c, 12, 74, 0
30, 609360, Note_on_c, 12, 74, 80
30, 610059, Note_on_c, 12, 74, 0
30, 610080, Note_on_c, 12, 73, 80
30, 610779, Note_on_c, 12, 73, 0
30, 610800, Note_on_c, 12, 69, 80
30, 611499, Note_on_c, 12, 69, 0
30, 611520, Note_on_c, 12, 79, 80
30, 612219, Note_on_c, 12, 79, 0
30, 612240, Note_on_c, 12, 79, 80
30, 612939, Note_on_c, 12, 79, 0
30, 612960, Note_on_c, 12, 78, 80
30, 613679, Note_on_c, 12, 78, 0
30, 614400, Note_on_c, 12, 78, 80
30, 615099, Note_on_c, 12, 78, 0
30, 615120, Note_on_c, 12, 78, 80
30, 615819, Note_on_c, 12, 78, 0
30, 615840, Note_on_c, 12, 78, 80
30, 616539, Note_on_c, 12, 78, 0
30, 616560, Note_on_c, 12, 71, 80
30, 617259, Note_on_c, 12, 71, 0
30, 617280, Note_on_c, 12, 81, 80
30, 617979, Note_on_c, 12, 81, 0
30, 618000, Note_on_c, 12, 81, 80
30, 618699, Note_on_c, 12, 81, 0
30, 618720, Note_on_c, 12, 80, 80
30, 619419, Note_on_c, 12, 80, 0
30, 619440, Note_on_c, 12, 79, 80
30, 620139, Note_on_c, 12, 79, 0
30, 620160, Note_on_c, 12, 79, 80
30, 620859, Note_on_c, 12, 79, 0
30, 620880, Note_on_c, 12, 79, 80
30, 621579, Note_on_c, 12, 79, 0
30, 621600, Note_on_c, 12, 78, 80
30, 622319, Note_on_c, 12, 78, 0
30, 623040, Note_on_c, 12, 78, 80
30, 623159, Note_on_c, 12, 78, 0
30, 623160, Note_on_c, 12, 69, 80
30, 623279, Note_on_c, 12, 69, 0
30, 623280, Note_on_c, 12, 73, 80
30, 623399, Note_on_c, 12, 73, 0
30, 623400, Note_on_c, 12, 74, 80
30, 623519, Note_on_c, 12, 74, 0
30, 623520, Note_on_c, 12, 76, 80
30, 623639, Note_on_c, 12, 76, 0
30, 623640, Note_on_c, 12, 78, 80
30, 623739, Note_on_c, 12, 78, 0
30, 623760, Note_on_c, 12, 79, 80
30, 623879, Note_on_c, 12, 79, 0
30, 623880, Note_on_c, 12, 74, 80
30, 623999, Note_on_c, 12, 74, 0
30, 624000, Note_on_c, 12, 79, 80
30, 624119, Note_on_c, 12, 79, 0
30, 624120, Note_on_c, 12, 74, 80
30, 624239, Note_on_c, 12, 74, 0
30, 624240, Note_on_c, 12, 81, 80
30, 624359, Note_on_c, 12, 81, 0
30, 624360, Note_on_c, 12, 74, 80
30, 624459, Note_on_c, 12, 74, 0
30, 624480, Note_on_c, 12, 81, 80
30, 624599, Note_on_c, 12, 81, 0
30, 624600, Note_on_c, 12, 83, 80
30, 624719, Note_on_c, 12, 83, 0
30, 624720, Note_on_c, 12, 81, 80
30, 624839, Note_on_c, 12, 81, 0
30, 624840, Note_on_c, 12, 79, 80
30, 624959, Note_on_c, 12, 79, 0
30, 624960, Note_on_c, 12, 81, 80
30, 625079, Note_on_c, 12, 81, 0
30, 625080, Note_on_c, 12, 79, 80
30, 625179, Note_on_c, 12, 79, 0
30, 625200, Note_on_c, 12, 78, 80
30, 625319, Note_on_c, 12, 78, 0
30, 625320, Note_on_c, 12, 79, 80
30, 625439, Note_on_c, 12, 79, 0
30, 625440, Note_on_c, 12, 78, 80
30, 625559, Note_on_c, 12, 78, 0
30, 625560, Note_on_c, 12, 76, 80
30, 625679, Note_on_c, 12, 76, 0
30, 625680, Note_on_c, 12, 78, 80
30, 625799, Note_on_c, 12, 78, 0
30, 625800, Note_on_c, 12, 76, 80
30, 625899, Note_on_c, 12, 76, 0
30, 625920, Note_on_c, 12, 74, 80
30, 626039, Note_on_c, 12, 74, 0
30, 626040, Note_on_c, 12, 66, 80
30, 626159, Note_on_c, 12, 66, 0
30, 626160, Note_on_c, 12, 71, 80
30, 626279, Note_on_c, 12, 71, 0
30, 626280, Note_on_c, 12, 73, 80
30, 626399, Note_on_c, 12, 73, 0
30, 626400, Note_on_c, 12, 74, 80
30, 626519, Note_on_c, 12, 74, 0
30, 626520, Note_on_c, 12, 71, 80
30, 626619, Note_on_c, 12, 71, 0
30, 626640, Note_on_c, 12, 76, 80
30, 626759, Note_on_c, 12, 76, 0
30, 626760, Note_on_c, 12, 71, 80
30, 626879, Note_on_c, 12, 71, 0
30, 626880, Note_on_c, 12, 76, 80
30, 626999, Note_on_c, 12, 76, 0
30, 627000, Note_on_c, 12, 71, 80
30, 627119, Note_on_c, 12, 71, 0
30, 627120, Note_on_c, 12, 78, 80
30, 627239, Note_on_c, 12, 78, 0
30, 627240, Note_on_c, 12, 71, 80
30, 627339, Note_on_c, 12, 71, 0
30, 627360, Note_on_c, 12, 78, 80
30, 627479, Note_on_c, 12, 78, 0
30, 627480, Note_on_c, 12, 79, 80
30, 627599, Note_on_c, 12, 79, 0
30, 627600, Note_on_c, 12, 78, 80
30, 627719, Note_on_c, 12, 78, 0
30, 627720, Note_on_c, 12, 76, 80
30, 627839, Note_on_c, 12, 76, 0
30, 627840, Note_on_c, 12, 78, 80
30, 627959, Note_on_c, 12, 78, 0
30, 627960, Note_on_c, 12, 76, 80
30, 628059, Note_on_c, 12, 76, 0
30, 628080, Note_on_c, 12, 74, 80
30, 628199, Note_on_c, 12, 74, 0
30, 628200, Note_on_c, 12, 76, 80
30, 628319, Note_on_c, 12, 76, 0
30, 628320, Note_on_c, 12, 74, 80
30, 628439, Note_on_c, 12, 74, 0
30, 628440, Note_on_c, 12, 73, 80
30, 628559, Note_on_c, 12, 73, 0
30, 628560, Note_on_c, 12, 74, 80
30, 628679, Note_on_c, 12, 74, 0
30, 628680, Note_on_c, 12, 73, 80
30, 628779, Note_on_c, 12, 73, 0
30, 628800, Note_on_c, 12, 71, 80
30, 628919, Note_on_c, 12, 71, 0
30, 628920, Note_on_c, 12, 64, 80
30, 629039, Note_on_c, 12, 64, 0
30, 629040, Note_on_c, 12, 68, 80
30, 629159, Note_on_c, 12, 68, 0
30, 629160, Note_on_c, 12, 69, 80
30, 629279, Note_on_c, 12, 69, 0
30, 629280, Note_on_c, 12, 71, 80
30, 629399, Note_on_c, 12, 71, 0
30, 629400, Note_on_c, 12, 64, 80
30, 629499, Note_on_c, 12, 64, 0
30, 629520, Note_on_c, 12, 73, 80
30, 629639, Note_on_c, 12, 73, 0
30, 629640, Note_on_c, 12, 69, 80
30, 629759, Note_on_c, 12, 69, 0
30, 629760, Note_on_c, 12, 71, 80
30, 629879, Note_on_c, 12, 71, 0
30, 629880, Note_on_c, 12, 73, 80
30, 629999, Note_on_c, 12, 73, 0
30, 630000, Note_on_c, 12, 74, 80
30, 630119, Note_on_c, 12, 74, 0
30, 630120, Note_on_c, 12, 71, 80
30, 630219, Note_on_c, 12, 71, 0
30, 630240, Note_on_c, 12, 74, 80
30, 630359, Note_on_c, 12, 74, 0
30, 630360, Note_on_c, 12, 76, 80
30, 630479, Note_on_c, 12, 76, 0
30, 630480, Note_on_c, 12, 74, 80
30, 630599, Note_on_c, 12, 74, 0
30, 630600, Note_on_c, 12, 73, 80
30, 630719, Note_on_c, 12, 73, 0
30, 630720, Note_on_c, 12, 74, 80
30, 630839, Note_on_c, 12, 74, 0
30, 630840, Note_on_c, 12, 73, 80
30, 630939, Note_on_c, 12, 73, 0
30, 630960, Note_on_c, 12, 71, 80
30, 631079, Note_on_c, 12, 71, 0
30, 631080, Note_on_c, 12, 73, 80
30, 631199, Note_on_c, 12, 73, 0
30, 631200, Note_on_c, 12, 71, 80
30, 631319, Note_on_c, 12, 71, 0
30, 631320, Note_on_c, 12, 69, 80
30, 631439, Note_on_c, 12, 69, 0
30, 631440, Note_on_c, 12, 71, 80
30, 631559, Note_on_c, 12, 71, 0
30, 631560, Note_on_c, 12, 69, 80
30, 631659, Note_on_c, 12, 69, 0
30, 631680, Note_on_c, 12, 68, 80
30, 631799, Note_on_c, 12, 68, 0
30, 631800, Note_on_c, 12, 69, 80
30, 631919, Note_on_c, 12, 69, 0
30, 631920, Note_on_c, 12, 68, 80
30, 632039, Note_on_c, 12, 68, 0
30, 632040, Note_on_c, 12, 66, 80
30, 632159, Note_on_c, 12, 66, 0
30, 632160, Note_on_c, 12, 64, 80
30, 632279, Note_on_c, 12, 64, 0
30, 632280, Note_on_c, 12, 66, 80
30, 632379, Note_on_c, 12, 66, 0
30, 632400, Note_on_c, 12, 64, 80
30, 632519, Note_on_c, 12, 64, 0
30, 632520, Note_on_c, 12, 68, 80
30, 632639, Note_on_c, 12, 68, 0
30, 632640, Note_on_c, 12, 71, 80
30, 632759, Note_on_c, 12, 71, 0
30, 632760, Note_on_c, 12, 73, 80
30, 632859, Note_on_c, 12, 73, 0
30, 632880, Note_on_c, 12, 74, 80
30, 633119, Note_on_c, 12, 74, 0
30, 633840, Note_on_c, 12, 69, 92
30, 635259, Note_on_c, 12, 69, 0
30, 635280, Note_on_c, 12, 69, 80
30, 635979, Note_on_c, 12, 69, 0
30, 636000, Note_on_c, 12, 68, 80
30, 636699, Note_on_c, 12, 68, 0
30, 636720, Note_on_c, 12, 64, 80
30, 637439, Note_on_c, 12, 64, 0
30, 639600, Note_on_c, 12, 78, 92
30, 641019, Note_on_c, 12, 78, 0
30, 641040, Note_on_c, 12, 78, 80
30, 641739, Note_on_c, 12, 78, 0
30, 641760, Note_on_c, 12, 77, 80
30, 642459, Note_on_c, 12, 77, 0
30, 642480, Note_on_c, 12, 73, 80
30, 643179, Note_on_c, 12, 73, 0
30, 643200, Note_on_c, 12, 76, 80
30, 643899, Note_on_c, 12, 76, 0
30, 643920, Note_on_c, 12, 76, 80
30, 644619, Note_on_c, 12, 76, 0
30, 644640, Note_on_c, 12, 75, 80
30, 645339, Note_on_c, 12, 75, 0
30, 645360, Note_on_c, 12, 71, 80
30, 646059, Note_on_c, 12, 71, 0
30, 646080, Note_on_c, 12, 78, 80
30, 647259, Note_on_c, 12, 78, 0
30, 647280, Note_on_c, 12, 74, 80
30, 647499, Note_on_c, 12, 74, 0
30, 647520, Note_on_c, 12, 76, 80
30, 647979, Note_on_c, 12, 76, 0
30, 648000, Note_on_c, 12, 73, 80
30, 648219, Note_on_c, 12, 73, 0
30, 648240, Note_on_c, 12, 74, 80
30, 648699, Note_on_c, 12, 74, 0
30, 648720, Note_on_c, 12, 76, 80
30, 648939, Note_on_c, 12, 76, 0
30, 648960, Note_on_c, 12, 70, 80
30, 649659, Note_on_c, 12, 70, 0
30, 649680, Note_on_c, 12, 71, 80
30, 650139, Note_on_c, 12, 71, 0
30, 650160, Note_on_c, 12, 70, 80
30, 650379, Note_on_c, 12, 70, 0
30, 650400, Note_on_c, 12, 71, 80
30, 651099, Note_on_c, 12, 71, 0
30, 651120, Note_on_c, 12, 75, 92
30, 651199, Note_on_c, 12, 75, 0
30, 651200, Note_on_c, 12, 75, 80
30, 652539, Note_on_c, 12, 75, 0
30, 652560, Note_on_c, 12, 75, 80
30, 653259, Note_on_c, 12, 75, 0
30, 653280, Note_on_c, 12, 76, 80
30, 653979, Note_on_c, 12, 76, 0
30, 654000, Note_on_c, 12, 76, 80
30, 654699, Note_on_c, 12, 76, 0
30, 654720, Note_on_c, 12, 80, 80
30, 655419, Note_on_c, 12, 80, 0
30, 655440, Note_on_c, 12, 80, 80
30, 656139, Note_on_c, 12, 80, 0
30, 656160, Note_on_c, 12, 81, 80
30, 656859, Note_on_c, 12, 81, 0
30, 656880, Note_on_c, 12, 69, 80
30, 657579, Note_on_c, 12, 69, 0
30, 657600, Note_on_c, 12, 81, 80
30, 658299, Note_on_c, 12, 81, 0
30, 658320, Note_on_c, 12, 81, 80
30, 659019, Note_on_c, 12, 81, 0
30, 659040, Note_on_c, 12, 81, 92
30, 661299, Note_on_c, 12, 81, 0
30, 661320, Note_on_c, 12, 83, 92
30, 661419, Note_on_c, 12, 83, 0
30, 661440, Note_on_c, 12, 81, 92
30, 661539, Note_on_c, 12, 81, 0
30, 661560, Note_on_c, 12, 79, 92
30, 661659, Note_on_c, 12, 79, 0
30, 661680, Note_on_c, 12, 78, 92
30, 661779, Note_on_c, 12, 78, 0
30, 661800, Note_on_c, 12, 79, 92
30, 661899, Note_on_c, 12, 79, 0
30, 661920, Note_on_c, 12, 81, 92
30, 662019, Note_on_c, 12, 81, 0
30, 662040, Note_on_c, 12, 73, 92
30, 662139, Note_on_c, 12, 73, 0
30, 662160, Note_on_c, 12, 74, 92
30, 662259, Note_on_c, 12, 74, 0
30, 662280, Note_on_c, 12, 76, 92
30, 662379, Note_on_c, 12, 76, 0
30, 662400, Note_on_c, 12, 78, 92
30, 662499, Note_on_c, 12, 78, 0
30, 662520, Note_on_c, 12, 79, 92
30, 662619, Note_on_c, 12, 79, 0
30, 662640, Note_on_c, 12, 81, 92
30, 662739, Note_on_c, 12, 81, 0
30, 662760, Note_on_c, 12, 79, 92
30, 662859, Note_on_c, 12, 79, 0
30, 662880, Note_on_c, 12, 78, 92
30, 662979, Note_on_c, 12, 78, 0
30, 663000, Note_on_c, 12, 79, 92
30, 663099, Note_on_c, 12, 79, 0
30, 663120, Note_on_c, 12, 81, 92
30, 663219, Note_on_c, 12, 81, 0
30, 663240, Note_on_c, 12, 83, 92
30, 663339, Note_on_c, 12, 83, 0
30, 663360, Note_on_c, 12, 81, 92
30, 663459, Note_on_c, 12, 81, 0
30, 663480, Note_on_c, 12, 79, 92
30, 663579, Note_on_c, 12, 79, 0
30, 663600, Note_on_c, 12, 81, 92
30, 663699, Note_on_c, 12, 81, 0
30, 663720, Note_on_c, 12, 83, 92
30, 663819, Note_on_c, 12, 83, 0
30, 663840, Note_on_c, 12, 76, 92
30, 663939, Note_on_c, 12, 76, 0
30, 663960, Note_on_c, 12, 81, 92
30, 664059, Note_on_c, 12, 81, 0
30, 664080, Note_on_c, 12, 81, 92
30, 664179, Note_on_c, 12, 81, 0
30, 664200, Note_on_c, 12, 74, 92
30, 664299, Note_on_c, 12, 74, 0
30, 664320, Note_on_c, 12, 78, 92
30, 664419, Note_on_c, 12, 78, 0
30, 664440, Note_on_c, 12, 79, 92
30, 664539, Note_on_c, 12, 79, 0
30, 664560, Note_on_c, 12, 81, 92
30, 664659, Note_on_c, 12, 81, 0
30, 664680, Note_on_c, 12, 81, 92
30, 664779, Note_on_c, 12, 81, 0
30, 664800, Note_on_c, 12, 81, 92
30, 664899, Note_on_c, 12, 81, 0
30, 664920, Note_on_c, 12, 76, 92
30, 665019, Note_on_c, 12, 76, 0
30, 665040, Note_on_c, 12, 74, 92
30, 665139, Note_on_c, 12, 74, 0
30, 665160, Note_on_c, 12, 76, 92
30, 665259, Note_on_c, 12, 76, 0
30, 665280, Note_on_c, 12, 78, 92
30, 665379, Note_on_c, 12, 78, 0
30, 665400, Note_on_c, 12, 74, 92
30, 665499, Note_on_c, 12, 74, 0
30, 665520, Note_on_c, 12, 79, 92
30, 665619, Note_on_c, 12, 79, 0
30, 665640, Note_on_c, 12, 76, 92
30, 665739, Note_on_c, 12, 76, 0
30, 665760, Note_on_c, 12, 78, 92
30, 665859, Note_on_c, 12, 78, 0
30, 665880, Note_on_c, 12, 79, 92
30, 665979, Note_on_c, 12, 79, 0
30, 666000, Note_on_c, 12, 81, 92
30, 666099, Note_on_c, 12, 81, 0
30, 666120, Note_on_c, 12, 81, 92
30, 666219, Note_on_c, 12, 81, 0
30, 666240, Note_on_c, 12, 81, 92
30, 666339, Note_on_c, 12, 81, 0
30, 666360, Note_on_c, 12, 83, 92
30, 666459, Note_on_c, 12, 83, 0
30, 666480, Note_on_c, 12, 81, 92
30, 666579, Note_on_c, 12, 81, 0
30, 666600, Note_on_c, 12, 79, 92
30, 666699, Note_on_c, 12, 79, 0
30, 666720, Note_on_c, 12, 81, 92
30, 666819, Note_on_c, 12, 81, 0
30, 666840, Note_on_c, 12, 79, 92
30, 666939, Note_on_c, 12, 79, 0
30, 666960, Note_on_c, 12, 81, 92
30, 667059, Note_on_c, 12, 81, 0
30, 667080, Note_on_c, 12, 81, 92
30, 667179, Note_on_c, 12, 81, 0
30, 667200, Note_on_c, 12, 81, 92
30, 667299, Note_on_c, 12, 81, 0
30, 667320, Note_on_c, 12, 81, 92
30, 667419, Note_on_c, 12, 81, 0
30, 667440, Note_on_c, 12, 81, 92
30, 667539, Note_on_c, 12, 81, 0
30, 667560, Note_on_c, 12, 81, 92
30, 667659, Note_on_c, 12, 81, 0
30, 667680, Note_on_c, 12, 81, 92
30, 667779, Note_on_c, 12, 81, 0
30, 667800, Note_on_c, 12, 71, 92
30, 667899, Note_on_c, 12, 71, 0
30, 667920, Note_on_c, 12, 72, 92
30, 668019, Note_on_c, 12, 72, 0
30, 668040, Note_on_c, 12, 74, 92
30, 668139, Note_on_c, 12, 74, 0
30, 668160, Note_on_c, 12, 76, 92
30, 668259, Note_on_c, 12, 76, 0
30, 668280, Note_on_c, 12, 79, 92
30, 668379, Note_on_c, 12, 79, 0
30, 668400, Note_on_c, 12, 81, 92
30, 668499, Note_on_c, 12, 81, 0
30, 668520, Note_on_c, 12, 81, 92
30, 668619, Note_on_c, 12, 81, 0
30, 668640, Note_on_c, 12, 81, 92
30, 668739, Note_on_c, 12, 81, 0
30, 668760, Note_on_c, 12, 81, 92
30, 668859, Note_on_c, 12, 81, 0
30, 668880, Note_on_c, 12, 83, 92
30, 668979, Note_on_c, 12, 83, 0
30, 669000, Note_on_c, 12, 83, 92
30, 669099, Note_on_c, 12, 83, 0
30, 669120, Note_on_c, 12, 81, 92
30, 669219, Note_on_c, 12, 81, 0
30, 669240, Note_on_c, 12, 78, 92
30, 669339, Note_on_c, 12, 78, 0
30, 669360, Note_on_c, 12, 76, 92
30, 669459, Note_on_c, 12, 76, 0
30, 669480, Note_on_c, 12, 78, 92
30, 669579, Note_on_c, 12, 78, 0
30, 669600, Note_on_c, 12, 79, 92
30, 669699, Note_on_c, 12, 79, 0
30, 669720, Note_on_c, 12, 81, 92
30, 669819, Note_on_c, 12, 81, 0
30, 669840, Note_on_c, 12, 81, 92
30, 669939, Note_on_c, 12, 81, 0
30, 669960, Note_on_c, 12, 74, 92
30, 670059, Note_on_c, 12, 74, 0
30, 670080, Note_on_c, 12, 73, 92
30, 670179, Note_on_c, 12, 73, 0
30, 670200, Note_on_c, 12, 74, 92
30, 670299, Note_on_c, 12, 74, 0
30, 670320, Note_on_c, 12, 81, 92
30, 670419, Note_on_c, 12, 81, 0
30, 670440, Note_on_c, 12, 81, 92
30, 670539, Note_on_c, 12, 81, 0
30, 670560, Note_on_c, 12, 81, 92
30, 670659, Note_on_c, 12, 81, 0
30, 670680, Note_on_c, 12, 81, 92
30, 670779, Note_on_c, 12, 81, 0
30, 670800, Note_on_c, 12, 79, 92
30, 670899, Note_on_c, 12, 79, 0
30, 670920, Note_on_c, 12, 78, 92
30, 671019, Note_on_c, 12, 78, 0
30, 671040, Note_on_c, 12, 79, 92
30, 671139, Note_on_c, 12, 79, 0
30, 671160, Note_on_c, 12, 81, 92
30, 671259, Note_on_c, 12, 81, 0
30, 671280, Note_on_c, 12, 81, 92
30, 671379, Note_on_c, 12, 81, 0
30, 671400, Note_on_c, 12, 81, 92
30, 671499, Note_on_c, 12, 81, 0
30, 671520, Note_on_c, 12, 79, 92
30, 671619, Note_on_c, 12, 79, 0
30, 671640, Note_on_c, 12, 78, 92
30, 671739, Note_on_c, 12, 78, 0
30, 671760, Note_on_c, 12, 76, 92
30, 671859, Note_on_c, 12, 76, 0
30, 671880, Note_on_c, 12, 81, 92
30, 671979, Note_on_c, 12, 81, 0
30, 672000, Note_on_c, 12, 81, 92
30, 672099, Note_on_c, 12, 81, 0
30, 672120, Note_on_c, 12, 78, 92
30, 672219, Note_on_c, 12, 78, 0
30, 672240, Note_on_c, 12, 76, 92
30, 672339, Note_on_c, 12, 76, 0
30, 672360, Note_on_c, 12, 74, 92
30, 672459, Note_on_c, 12, 74, 0
30, 672480, Note_on_c, 12, 76, 92
30, 672579, Note_on_c, 12, 76, 0
30, 672600, Note_on_c, 12, 81, 92
30, 672699, Note_on_c, 12, 81, 0
30, 672720, Note_on_c, 12, 79, 92
30, 672819, Note_on_c, 12, 79, 0
30, 672840, Note_on_c, 12, 79, 92
30, 672939, Note_on_c, 12, 79, 0
30, 672960, Note_on_c, 12, 79, 92
30, 673059, Note_on_c, 12, 79, 0
30, 673080, Note_on_c, 12, 79, 92
30, 673179, Note_on_c, 12, 79, 0
30, 673200, Note_on_c, 12, 81, 92
30, 673299, Note_on_c, 12, 81, 0
30, 673320, Note_on_c, 12, 81, 92
30, 673419, Note_on_c, 12, 81, 0
30, 673440, Note_on_c, 12, 81, 92
30, 673539, Note_on_c, 12, 81, 0
30, 673560, Note_on_c, 12, 69, 92
30, 673659, Note_on_c, 12, 69, 0
30, 673680, Note_on_c, 12, 81, 92
30, 673779, Note_on_c, 12, 81, 0
30, 673800, Note_on_c, 12, 69, 92
30, 673899, Note_on_c, 12, 69, 0
30, 673920, Note_on_c, 12, 81, 92
30, 674019, Note_on_c, 12, 81, 0
30, 674040, Note_on_c, 12, 69, 92
30, 674139, Note_on_c, 12, 69, 0
30, 674160, Note_on_c, 12, 81, 92
30, 674259, Note_on_c, 12, 81, 0
30, 674280, Note_on_c, 12, 69, 92
30, 674379, Note_on_c, 12, 69, 0
30, 674400, Note_on_c, 12, 81, 92
30, 674499, Note_on_c, 12, 81, 0
30, 674520, Note_on_c, 12, 69, 92
30, 674619, Note_on_c, 12, 69, 0
30, 674640, Note_on_c, 12, 81, 92
30, 674739, Note_on_c, 12, 81, 0
30, 674760, Note_on_c, 12, 69, 92
30, 674859, Note_on_c, 12, 69, 0
30, 674880, Note_on_c, 12, 81, 92
30, 674979, Note_on_c, 12, 81, 0
30, 675000, Note_on_c, 12, 78, 92
30, 675099, Note_on_c, 12, 78, 0
30, 675120, Note_on_c, 12, 79, 92
30, 675219, Note_on_c, 12, 79, 0
30, 675240, Note_on_c, 12, 81, 92
30, 675339, Note_on_c, 12, 81, 0
30, 675360, Note_on_c, 12, 83, 92
30, 675459, Note_on_c, 12, 83, 0
30, 675480, Note_on_c, 12, 81, 92
30, 675579, Note_on_c, 12, 81, 0
30, 675600, Note_on_c, 12, 81, 92
30, 675699, Note_on_c, 12, 81, 0
30, 675720, Note_on_c, 12, 74, 92
30, 675819, Note_on_c, 12, 74, 0
30, 675840, Note_on_c, 12, 78, 92
30, 675939, Note_on_c, 12, 78, 0
30, 675960, Note_on_c, 12, 81, 92
30, 676059, Note_on_c, 12, 81, 0
30, 676080, Note_on_c, 12, 81, 92
30, 676319, Note_on_c, 12, 81, 0
30, 676320, Note_on_c, 12, 66, 32
30, 676799, Note_on_c, 12, 66, 0
30, 677520, Note_on_c, 12, 66, 32
30, 677739, Note_on_c, 12, 66, 0
30, 677760, Note_on_c, 12, 60, 32
30, 678239, Note_on_c, 12, 60, 0
30, 678960, Note_on_c, 12, 60, 32
30, 679179, Note_on_c, 12, 60, 0
30, 679200, Note_on_c, 12, 69, 32
30, 679679, Note_on_c, 12, 69, 0
30, 680400, Note_on_c, 12, 69, 32
30, 680619, Note_on_c, 12, 69, 0
30, 680640, Note_on_c, 12, 70, 32
30, 681119, Note_on_c, 12, 70, 0
30, 681840, Note_on_c, 12, 70, 32
30, 682059, Note_on_c, 12, 70, 0
30, 682080, Note_on_c, 12, 64, 32
30, 682559, Note_on_c, 12, 64, 0
30, 683280, Note_on_c, 12, 64, 32
30, 683499, Note_on_c, 12, 64, 0
30, 683520, Note_on_c, 12, 73, 32
30, 683999, Note_on_c, 12, 73, 0
30, 684720, Note_on_c, 12, 73, 32
30, 684939, Note_on_c, 12, 73, 0
30, 684960, Note_on_c, 12, 74, 32
30, 685439, Note_on_c, 12, 74, 0
30, 685680, Control_c, 12, 11, 69
30, 686160, Note_on_c, 12, 74, 80
30, 686379, Note_on_c, 12, 74, 0
30, 686400, Note_on_c, 12, 75, 80
30, 687819, Note_on_c, 12, 75, 0
30, 687840, Note_on_c, 12, 67, 80
30, 687840, Control_c, 12, 11, 69
30, 688014, Control_c, 12, 11, 70
30, 688188, Control_c, 12, 11, 71
30, 688319, Note_on_c, 12, 67, 0
30, 688361, Control_c, 12, 11, 72
30, 688535, Control_c, 12, 11, 73
30, 688709, Control_c, 12, 11, 74
30, 688883, Control_c, 12, 11, 75
30, 689040, Note_on_c, 12, 67, 80
30, 689057, Control_c, 12, 11, 76
30, 689230, Control_c, 12, 11, 77
30, 689259, Note_on_c, 12, 67, 0
30, 689280, Note_on_c, 12, 76, 80
30, 689404, Control_c, 12, 11, 78
30, 689578, Control_c, 12, 11, 79
30, 689752, Control_c, 12, 11, 80
30, 689759, Note_on_c, 12, 76, 0
30, 689926, Control_c, 12, 11, 81
30, 690099, Control_c, 12, 11, 82
30, 690273, Control_c, 12, 11, 83
30, 690447, Control_c, 12, 11, 84
30, 690480, Note_on_c, 12, 76, 80
30, 690621, Control_c, 12, 11, 85
30, 690699, Note_on_c, 12, 76, 0
30, 690720, Note_on_c, 12, 77, 80
30, 690794, Control_c, 12, 11, 86
30, 690968, Control_c, 12, 11, 87
30, 691142, Control_c, 12, 11, 88
30, 691199, Note_on_c, 12, 77, 0
30, 691316, Control_c, 12, 11, 89
30, 691490, Control_c, 12, 11, 90
30, 691663, Control_c, 12, 11, 91
30, 691837, Control_c, 12, 11, 92
30, 691920, Note_on_c, 12, 77, 80
30, 692011, Control_c, 12, 11, 93
30, 692139, Note_on_c, 12, 77, 0
30, 692160, Note_on_c, 12, 78, 80
30, 692185, Control_c, 12, 11, 94
30, 692359, Control_c, 12, 11, 95
30, 692532, Control_c, 12, 11, 96
30, 692706, Control_c, 12, 11, 97
30, 692880, Control_c, 12, 11, 98
30, 693054, Control_c, 12, 11, 99
30, 693228, Control_c, 12, 11, 100
30, 693401, Control_c, 12, 11, 101
30, 693575, Control_c, 12, 11, 102
30, 693579, Note_on_c, 12, 78, 0
30, 693600, Note_on_c, 12, 70, 80
30, 693749, Control_c, 12, 11, 103
30, 693923, Control_c, 12, 11, 104
30, 694079, Note_on_c, 12, 70, 0
30, 694097, Control_c, 12, 11, 105
30, 694270, Control_c, 12, 11, 106
30, 694444, Control_c, 12, 11, 107
30, 694618, Control_c, 12, 11, 108
30, 694792, Control_c, 12, 11, 109
30, 694800, Note_on_c, 12, 70, 80
30, 694966, Control_c, 12, 11, 110
30, 695019, Note_on_c, 12, 70, 0
30, 695040, Note_on_c, 12, 79, 80
30, 695139, Control_c, 12, 11, 111
30, 695313, Control_c, 12, 11, 112
30, 695487, Control_c, 12, 11, 113
30, 695519, Note_on_c, 12, 79, 0
30, 695661, Control_c, 12, 11, 114
30, 695834, Control_c, 12, 11, 115
30, 696008, Control_c, 12, 11, 116
30, 696182, Control_c, 12, 11, 117
30, 696240, Note_on_c, 12, 79, 80
30, 696356, Control_c, 12, 11, 118
30, 696459, Note_on_c, 12, 79, 0
30, 696480, Note_on_c, 12, 80, 80
30, 696530, Control_c, 12, 11, 119
30, 696703, Control_c, 12, 11, 120
30, 696877, Control_c, 12, 11, 121
30, 696959, Note_on_c, 12, 80, 0
30, 697051, Control_c, 12, 11, 122
30, 697225, Control_c, 12, 11, 123
30, 697399, Control_c, 12, 11, 124
30, 697572, Control_c, 12, 11, 125
30, 697680, Note_on_c, 12, 80, 80
30, 697746, Control_c, 12, 11, 127
30, 697899, Note_on_c, 12, 80, 0
30, 697920, Note_on_c, 12, 81, 80
30, 698639, Note_on_c, 12, 81, 0
30, 700800, Note_on_c, 12, 76, 80
30, 700800, Note_on_c, 12, 64, 80
30, 701499, Note_on_c, 12, 76, 0
30, 701499, Note_on_c, 12, 64, 0
30, 701520, Note_on_c, 12, 76, 80
30, 701520, Note_on_c, 12, 64, 80
30, 702239, Note_on_c, 12, 76, 0
30, 702239, Note_on_c, 12, 64, 0
30, 702960, Control_c, 12, 11, 69
30, 703680, Note_on_c, 12, 76, 80
30, 703680, Note_on_c, 12, 73, 80
30, 704379, Note_on_c, 12, 76, 0
30, 704379, Note_on_c, 12, 73, 0
30, 704400, Note_on_c, 12, 76, 80
30, 704400, Note_on_c, 12, 73, 80
30, 705099, Note_on_c, 12, 76, 0
30, 705099, Note_on_c, 12, 73, 0
30, 705120, Note_on_c, 12, 76, 80
30, 705120, Note_on_c, 12, 73, 80
30, 705819, Note_on_c, 12, 76, 0
30, 705819, Note_on_c, 12, 73, 0
30, 705840, Note_on_c, 12, 76, 80
30, 705840, Note_on_c, 12, 73, 80
30, 706539, Note_on_c, 12, 76, 0
30, 706539, Note_on_c, 12, 73, 0
30, 706560, Note_on_c, 12, 71, 80
30, 706560, Note_on_c, 12, 80, 80
30, 706560, Control_c, 12, 11, 69
30, 706606, Control_c, 12, 11, 70
30, 706651, Control_c, 12, 11, 71
30, 706697, Control_c, 12, 11, 72
30, 706742, Control_c, 12, 11, 73
30, 706788, Control_c, 12, 11, 74
30, 706833, Control_c, 12, 11, 75
30, 706879, Control_c, 12, 11, 76
30, 706924, Control_c, 12, 11, 77
30, 706970, Control_c, 12, 11, 78
30, 707015, Control_c, 12, 11, 79
30, 707061, Control_c, 12, 11, 80
30, 707106, Control_c, 12, 11, 81
30, 707152, Control_c, 12, 11, 82
30, 707197, Control_c, 12, 11, 83
30, 707243, Control_c, 12, 11, 84
30, 707288, Control_c, 12, 11, 85
30, 707334, Control_c, 12, 11, 86
30, 707379, Control_c, 12, 11, 87
30, 707425, Control_c, 12, 11, 88
30, 707470, Control_c, 12, 11, 89
30, 707516, Control_c, 12, 11, 90
30, 707561, Control_c, 12, 11, 91
30, 707607, Control_c, 12, 11, 92
30, 707652, Control_c, 12, 11, 93
30, 707698, Control_c, 12, 11, 94
30, 707743, Control_c, 12, 11, 95
30, 707789, Control_c, 12, 11, 96
30, 707834, Control_c, 12, 11, 97
30, 707880, Control_c, 12, 11, 98
30, 707926, Control_c, 12, 11, 99
30, 707971, Control_c, 12, 11, 100
30, 708017, Control_c, 12, 11, 101
30, 708062, Control_c, 12, 11, 102
30, 708108, Control_c, 12, 11, 103
30, 708153, Control_c, 12, 11, 104
30, 708199, Control_c, 12, 11, 105
30, 708244, Control_c, 12, 11, 106
30, 708290, Control_c, 12, 11, 107
30, 708335, Control_c, 12, 11, 108
30, 708381, Control_c, 12, 11, 109
30, 708426, Control_c, 12, 11, 110
30, 708472, Control_c, 12, 11, 111
30, 708517, Control_c, 12, 11, 112
30, 708563, Control_c, 12, 11, 113
30, 708608, Control_c, 12, 11, 114
30, 708654, Control_c, 12, 11, 115
30, 708699, Note_on_c, 12, 71, 0
30, 708699, Note_on_c, 12, 80, 0
30, 708699, Control_c, 12, 11, 116
30, 708720, Note_on_c, 12, 71, 80
30, 708720, Note_on_c, 12, 80, 80
30, 708745, Control_c, 12, 11, 117
30, 708790, Control_c, 12, 11, 118
30, 708836, Control_c, 12, 11, 119
30, 708881, Control_c, 12, 11, 120
30, 708927, Control_c, 12, 11, 121
30, 708972, Control_c, 12, 11, 122
30, 709018, Control_c, 12, 11, 123
30, 709063, Control_c, 12, 11, 124
30, 709109, Control_c, 12, 11, 125
30, 709154, Control_c, 12, 11, 127
30, 709240, Control_c, 12, 11, 122
30, 709280, Control_c, 12, 11, 117
30, 709320, Control_c, 12, 11, 112
30, 709360, Control_c, 12, 11, 107
30, 709400, Control_c, 12, 11, 102
30, 709419, Note_on_c, 12, 71, 0
30, 709419, Note_on_c, 12, 80, 0
30, 709440, Note_on_c, 12, 81, 80
30, 709440, Control_c, 12, 11, 99
30, 709440, Note_on_c, 12, 73, 80
30, 709480, Control_c, 12, 11, 94
30, 709520, Control_c, 12, 11, 89
30, 709560, Control_c, 12, 11, 84
30, 709600, Control_c, 12, 11, 79
30, 709640, Control_c, 12, 11, 74
30, 709680, Control_c, 12, 11, 69
30, 710139, Note_on_c, 12, 81, 0
30, 710139, Note_on_c, 12, 73, 0
30, 710160, Note_on_c, 12, 73, 80
30, 710160, Note_on_c, 12, 76, 80
30, 711579, Note_on_c, 12, 73, 0
30, 711579, Note_on_c, 12, 76, 0
30, 711600, Note_on_c, 12, 76, 80
30, 711600, Note_on_c, 12, 73, 80
30, 712299, Note_on_c, 12, 76, 0
30, 712299, Note_on_c, 12, 73, 0
30, 712320, Note_on_c, 12, 71, 80
30, 712320, Note_on_c, 12, 76, 80
30, 713019, Note_on_c, 12, 71, 0
30, 713019, Note_on_c, 12, 76, 0
30, 713040, Note_on_c, 12, 76, 80
30, 713040, Note_on_c, 12, 71, 80
30, 713739, Note_on_c, 12, 76, 0
30, 713739, Note_on_c, 12, 71, 0
30, 713760, Note_on_c, 12, 76, 80
30, 713760, Note_on_c, 12, 71, 80
30, 714459, Note_on_c, 12, 76, 0
30, 714459, Note_on_c, 12, 71, 0
30, 714480, Note_on_c, 12, 71, 80
30, 714480, Note_on_c, 12, 76, 80
30, 715179, Note_on_c, 12, 71, 0
30, 715179, Note_on_c, 12, 76, 0
30, 715200, Note_on_c, 12, 76, 80
30, 715200, Note_on_c, 12, 69, 80
30, 715899, Note_on_c, 12, 76, 0
30, 715899, Note_on_c, 12, 69, 0
30, 715920, Note_on_c, 12, 76, 80
30, 715920, Note_on_c, 12, 69, 80
30, 716619, Note_on_c, 12, 76, 0
30, 716619, Note_on_c, 12, 69, 0
30, 716640, Note_on_c, 12, 76, 80
30, 716640, Note_on_c, 12, 69, 80
30, 716640, Control_c, 12, 11, 69
30, 716700, Control_c, 12, 11, 72
30, 716760, Control_c, 12, 11, 75
30, 716820, Control_c, 12, 11, 79
30, 716880, Control_c, 12, 11, 82
30, 716940, Control_c, 12, 11, 85
30, 717000, Control_c, 12, 11, 89
30, 717060, Control_c, 12, 11, 92
30, 717120, Control_c, 12, 11, 95
30, 717180, Control_c, 12, 11, 99
30, 717240, Control_c, 12, 11, 102
30, 717300, Control_c, 12, 11, 105
30, 717359, Note_on_c, 12, 76, 0
30, 717360, Note_on_c, 12, 78, 80
30, 717360, Control_c, 12, 11, 109
30, 717420, Control_c, 12, 11, 105
30, 717480, Control_c, 12, 11, 102
30, 717540, Control_c, 12, 11, 99
30, 717600, Control_c, 12, 11, 95
30, 717660, Control_c, 12, 11, 92
30, 717720, Control_c, 12, 11, 89
30, 717780, Control_c, 12, 11, 85
30, 717840, Control_c, 12, 11, 82
30, 717900, Control_c, 12, 11, 79
30, 717960, Control_c, 12, 11, 75
30, 718020, Control_c, 12, 11, 72
30, 718059, Note_on_c, 12, 69, 0
30, 718059, Note_on_c, 12, 78, 0
30, 718080, Note_on_c, 12, 79, 80
30, 718080, Control_c, 12, 11, 69
30, 718779, Note_on_c, 12, 79, 0
30, 718800, Note_on_c, 12, 79, 80
30, 719499, Note_on_c, 12, 79, 0
30, 719520, Note_on_c, 12, 79, 74
30, 720219, Note_on_c, 12, 79, 0
30, 720240, Note_on_c, 12, 79, 74
30, 720939, Note_on_c, 12, 79, 0
30, 720960, Note_on_c, 12, 79, 74
30, 723099, Note_on_c, 12, 79, 0
30, 723120, Note_on_c, 12, 79, 68
30, 723819, Note_on_c, 12, 79, 0
30, 723840, Note_on_c, 12, 83, 68
30, 723939, Note_on_c, 12, 83, 0
30, 723960, Note_on_c, 12, 84, 68
30, 724059, Note_on_c, 12, 84, 0
30, 724080, Note_on_c, 12, 86, 68
30, 724179, Note_on_c, 12, 86, 0
30, 724200, Note_on_c, 12, 86, 68
30, 724299, Note_on_c, 12, 86, 0
30, 724320, Note_on_c, 12, 86, 68
30, 724419, Note_on_c, 12, 86, 0
30, 724440, Note_on_c, 12, 84, 68
30, 724539, Note_on_c, 12, 84, 0
30, 724560, Note_on_c, 12, 83, 68
30, 724659, Note_on_c, 12, 83, 0
30, 724680, Note_on_c, 12, 81, 68
30, 724779, Note_on_c, 12, 81, 0
30, 724800, Note_on_c, 12, 79, 68
30, 724899, Note_on_c, 12, 79, 0
30, 724920, Note_on_c, 12, 81, 68
30, 725019, Note_on_c, 12, 81, 0
30, 725040, Note_on_c, 12, 83, 68
30, 725139, Note_on_c, 12, 83, 0
30, 725160, Note_on_c, 12, 83, 68
30, 725259, Note_on_c, 12, 83, 0
30, 725280, Note_on_c, 12, 83, 68
30, 725379, Note_on_c, 12, 83, 0
30, 725400, Note_on_c, 12, 81, 68
30, 725499, Note_on_c, 12, 81, 0
30, 725520, Note_on_c, 12, 79, 68
30, 725619, Note_on_c, 12, 79, 0
30, 725640, Note_on_c, 12, 78, 68
30, 725739, Note_on_c, 12, 78, 0
30, 725760, Note_on_c, 12, 76, 68
30, 725859, Note_on_c, 12, 76, 0
30, 725880, Note_on_c, 12, 78, 68
30, 725979, Note_on_c, 12, 78, 0
30, 726000, Note_on_c, 12, 79, 68
30, 726099, Note_on_c, 12, 79, 0
30, 726120, Note_on_c, 12, 79, 68
30, 726219, Note_on_c, 12, 79, 0
30, 726240, Note_on_c, 12, 79, 68
30, 726339, Note_on_c, 12, 79, 0
30, 726360, Note_on_c, 12, 78, 68
30, 726459, Note_on_c, 12, 78, 0
30, 726480, Note_on_c, 12, 76, 68
30, 726579, Note_on_c, 12, 76, 0
30, 726600, Note_on_c, 12, 74, 68
30, 726699, Note_on_c, 12, 74, 0
30, 726720, Note_on_c, 12, 73, 68
30, 726819, Note_on_c, 12, 73, 0
30, 726840, Note_on_c, 12, 74, 68
30, 726939, Note_on_c, 12, 74, 0
30, 726960, Note_on_c, 12, 76, 68
30, 727059, Note_on_c, 12, 76, 0
30, 727080, Note_on_c, 12, 78, 68
30, 727179, Note_on_c, 12, 78, 0
30, 727200, Note_on_c, 12, 79, 68
30, 727299, Note_on_c, 12, 79, 0
30, 727320, Note_on_c, 12, 81, 68
30, 727419, Note_on_c, 12, 81, 0
30, 727440, Note_on_c, 12, 83, 68
30, 727539, Note_on_c, 12, 83, 0
30, 727560, Note_on_c, 12, 85, 68
30, 727659, Note_on_c, 12, 85, 0
30, 727680, Note_on_c, 12, 86, 68
30, 727919, Note_on_c, 12, 86, 0
30, 728400, Control_c, 12, 11, 127
30, 732480, Note_on_c, 12, 81, 32
30, 733079, Note_on_c, 12, 81, 0
30, 733080, Note_on_c, 12, 83, 32
30, 733199, Note_on_c, 12, 83, 0
30, 733200, Note_on_c, 12, 85, 32
30, 733319, Note_on_c, 12, 85, 0
30, 733320, Note_on_c, 12, 81, 32
30, 733419, Note_on_c, 12, 81, 0
30, 733440, Note_on_c, 12, 86, 32
30, 733679, Note_on_c, 12, 86, 0
30, 733920, Note_on_c, 12, 74, 32
30, 734019, Note_on_c, 12, 74, 0
30, 734040, Note_on_c, 12, 76, 32
30, 734139, Note_on_c, 12, 76, 0
30, 734160, Note_on_c, 12, 78, 32
30, 734259, Note_on_c, 12, 78, 0
30, 734280, Note_on_c, 12, 78, 32
30, 734379, Note_on_c, 12, 78, 0
30, 734400, Note_on_c, 12, 78, 32
30, 734499, Note_on_c, 12, 78, 0
30, 734520, Note_on_c, 12, 76, 32
30, 734619, Note_on_c, 12, 76, 0
30, 734640, Note_on_c, 12, 74, 32
30, 734739, Note_on_c, 12, 74, 0
30, 734760, Note_on_c, 12, 73, 32
30, 734859, Note_on_c, 12, 73, 0
30, 734880, Note_on_c, 12, 71, 32
30, 734979, Note_on_c, 12, 71, 0
30, 735000, Note_on_c, 12, 73, 32
30, 735099, Note_on_c, 12, 73, 0
30, 735120, Note_on_c, 12, 74, 32
30, 735219, Note_on_c, 12, 74, 0
30, 735240, Note_on_c, 12, 74, 32
30, 735339, Note_on_c, 12, 74, 0
30, 735360, Note_on_c, 12, 74, 32
30, 735459, Note_on_c, 12, 74, 0
30, 735480, Note_on_c, 12, 73, 32
30, 735579, Note_on_c, 12, 73, 0
30, 735600, Note_on_c, 12, 71, 32
30, 735699, Note_on_c, 12, 71, 0
30, 735720, Note_on_c, 12, 69, 32
30, 735819, Note_on_c, 12, 69, 0
30, 735840, Note_on_c, 12, 68, 32
30, 735939, Note_on_c, 12, 68, 0
30, 735960, Note_on_c, 12, 69, 32
30, 736059, Note_on_c, 12, 69, 0
30, 736080, Note_on_c, 12, 71, 32
30, 736179, Note_on_c, 12, 71, 0
30, 736200, Note_on_c, 12, 71, 32
30, 736299, Note_on_c, 12, 71, 0
30, 736320, Note_on_c, 12, 71, 32
30, 736419, Note_on_c, 12, 71, 0
30, 736440, Note_on_c, 12, 69, 32
30, 736539, Note_on_c, 12, 69, 0
30, 736560, Note_on_c, 12, 68, 32
30, 736659, Note_on_c, 12, 68, 0
30, 736680, Note_on_c, 12, 66, 32
30, 736779, Note_on_c, 12, 66, 0
30, 736800, Note_on_c, 12, 64, 32
30, 736899, Note_on_c, 12, 64, 0
30, 736920, Note_on_c, 12, 62, 32
30, 737019, Note_on_c, 12, 62, 0
30, 737040, Note_on_c, 12, 61, 32
30, 737139, Note_on_c, 12, 61, 0
30, 737160, Note_on_c, 12, 59, 32
30, 737259, Note_on_c, 12, 59, 0
30, 737280, Note_on_c, 12, 57, 32
30, 737379, Note_on_c, 12, 57, 0
30, 737400, Note_on_c, 12, 81, 32
30, 737499, Note_on_c, 12, 81, 0
30, 737520, Note_on_c, 12, 81, 32
30, 737619, Note_on_c, 12, 81, 0
30, 737640, Note_on_c, 12, 81, 32
30, 737739, Note_on_c, 12, 81, 0
30, 737760, Note_on_c, 12, 81, 32
30, 737859, Note_on_c, 12, 81, 0
30, 737880, Note_on_c, 12, 81, 32
30, 737979, Note_on_c, 12, 81, 0
30, 738000, Note_on_c, 12, 81, 32
30, 738099, Note_on_c, 12, 81, 0
30, 738120, Note_on_c, 12, 81, 32
30, 738219, Note_on_c, 12, 81, 0
30, 738240, Note_on_c, 12, 81, 32
30, 738339, Note_on_c, 12, 81, 0
30, 738360, Note_on_c, 12, 81, 32
30, 738459, Note_on_c, 12, 81, 0
30, 738480, Note_on_c, 12, 81, 32
30, 738579, Note_on_c, 12, 81, 0
30, 738600, Note_on_c, 12, 81, 32
30, 738699, Note_on_c, 12, 81, 0
30, 738720, Note_on_c, 12, 81, 32
30, 738819, Note_on_c, 12, 81, 0
30, 738840, Note_on_c, 12, 81, 32
30, 738939, Note_on_c, 12, 81, 0
30, 738960, Note_on_c, 12, 81, 32
30, 739059, Note_on_c, 12, 81, 0
30, 739080, Note_on_c, 12, 81, 32
30, 739179, Note_on_c, 12, 81, 0
30, 739200, Note_on_c, 12, 81, 32
30, 739299, Note_on_c, 12, 81, 0
30, 739320, Note_on_c, 12, 81, 32
30, 739419, Note_on_c, 12, 81, 0
30, 739440, Note_on_c, 12, 81, 32
30, 739539, Note_on_c, 12, 81, 0
30, 739560, Note_on_c, 12, 81, 32
30, 739659, Note_on_c, 12, 81, 0
30, 739680, Note_on_c, 12, 81, 32
30, 739779, Note_on_c, 12, 81, 0
30, 739800, Note_on_c, 12, 81, 32
30, 739899, Note_on_c, 12, 81, 0
30, 739920, Note_on_c, 12, 81, 32
30, 740019, Note_on_c, 12, 81, 0
30, 740040, Note_on_c, 12, 81, 32
30, 740139, Note_on_c, 12, 81, 0
30, 740160, Note_on_c, 12, 81, 32
30, 740259, Note_on_c, 12, 81, 0
30, 740280, Note_on_c, 12, 81, 32
30, 740379, Note_on_c, 12, 81, 0
30, 740400, Note_on_c, 12, 81, 32
30, 740499, Note_on_c, 12, 81, 0
30, 740520, Note_on_c, 12, 81, 32
30, 740619, Note_on_c, 12, 81, 0
30, 740640, Note_on_c, 12, 81, 32
30, 740739, Note_on_c, 12, 81, 0
30, 740760, Note_on_c, 12, 81, 32
30, 740859, Note_on_c, 12, 81, 0
30, 740880, Note_on_c, 12, 81, 32
30, 740979, Note_on_c, 12, 81, 0
30, 741000, Note_on_c, 12, 81, 32
30, 741099, Note_on_c, 12, 81, 0
30, 741120, Note_on_c, 12, 81, 32
30, 741219, Note_on_c, 12, 81, 0
30, 741240, Note_on_c, 12, 81, 32
30, 741339, Note_on_c, 12, 81, 0
30, 741360, Note_on_c, 12, 81, 32
30, 741459, Note_on_c, 12, 81, 0
30, 741480, Note_on_c, 12, 81, 32
30, 741579, Note_on_c, 12, 81, 0
30, 741600, Note_on_c, 12, 81, 32
30, 741699, Note_on_c, 12, 81, 0
30, 741720, Note_on_c, 12, 81, 32
30, 741819, Note_on_c, 12, 81, 0
30, 741840, Note_on_c, 12, 81, 32
30, 741939, Note_on_c, 12, 81, 0
30, 741960, Note_on_c, 12, 81, 32
30, 742059, Note_on_c, 12, 81, 0
30, 742080, Note_on_c, 12, 81, 32
30, 742179, Note_on_c, 12, 81, 0
30, 742200, Note_on_c, 12, 81, 32
30, 742299, Note_on_c, 12, 81, 0
30, 742320, Note_on_c, 12, 81, 32
30, 742419, Note_on_c, 12, 81, 0
30, 742440, Note_on_c, 12, 81, 32
30, 742539, Note_on_c, 12, 81, 0
30, 742560, Note_on_c, 12, 76, 32
30, 742659, Note_on_c, 12, 76, 0
30, 742680, Note_on_c, 12, 76, 32
30, 742779, Note_on_c, 12, 76, 0
30, 742800, Note_on_c, 12, 76, 32
30, 742899, Note_on_c, 12, 76, 0
30, 742920, Note_on_c, 12, 76, 32
30, 743019, Note_on_c, 12, 76, 0
30, 743040, Note_on_c, 12, 76, 32
30, 743279, Note_on_c, 12, 76, 0
30, 743280, Program_c, 12, 45
30, 743520, Note_on_c, 12, 74, 28
30, 743759, Note_on_c, 12, 74, 0
30, 743760, Note_on_c, 12, 74, 28
30, 743999, Note_on_c, 12, 74, 0
30, 744000, Note_on_c, 12, 69, 28
30, 744000, Note_on_c, 12, 79, 28
30, 744239, Note_on_c, 12, 69, 0
30, 744239, Note_on_c, 12, 79, 0
30, 744480, Note_on_c, 12, 69, 28
30, 744480, Note_on_c, 12, 78, 28
30, 744719, Note_on_c, 12, 69, 0
30, 744719, Note_on_c, 12, 78, 0
30, 744720, Note_on_c, 12, 78, 28
30, 744720, Note_on_c, 12, 69, 28
30, 744959, Note_on_c, 12, 78, 0
30, 744959, Note_on_c, 12, 69, 0
30, 744960, Note_on_c, 12, 76, 28
30, 744960, Note_on_c, 12, 69, 28
30, 745199, Note_on_c, 12, 76, 0
30, 745199, Note_on_c, 12, 69, 0
30, 745440, Note_on_c, 12, 74, 28
30, 745679, Note_on_c, 12, 74, 0
30, 745920, Note_on_c, 12, 79, 28
30, 746159, Note_on_c, 12, 79, 0
30, 746400, Note_on_c, 12, 78, 28
30, 746639, Note_on_c, 12, 78, 0
30, 746880, Note_on_c, 12, 73, 28
30, 747119, Note_on_c, 12, 73, 0
30, 747360, Note_on_c, 12, 74, 29
30, 747599, Note_on_c, 12, 74, 0
30, 747840, Note_on_c, 12, 81, 31
30, 748079, Note_on_c, 12, 81, 0
30, 748320, Note_on_c, 12, 74, 33
30, 748559, Note_on_c, 12, 74, 0
30, 748800, Note_on_c, 12, 69, 34
30, 749039, Note_on_c, 12, 69, 0
30, 749280, Note_on_c, 12, 74, 36
30, 749519, Note_on_c, 12, 74, 0
30, 749760, Note_on_c, 12, 81, 38
30, 749999, Note_on_c, 12, 81, 0
30, 750240, Note_on_c, 12, 74, 40
30, 750479, Note_on_c, 12, 74, 0
30, 750720, Note_on_c, 12, 76, 41
30, 750959, Note_on_c, 12, 76, 0
30, 751200, Note_on_c, 12, 74, 43
30, 751439, Note_on_c, 12, 74, 0
30, 751680, Note_on_c, 12, 69, 45
30, 751680, Note_on_c, 12, 67, 45
30, 751919, Note_on_c, 12, 69, 0
30, 751919, Note_on_c, 12, 67, 0
30, 752160, Note_on_c, 12, 66, 46
30, 752160, Note_on_c, 12, 69, 46
30, 752399, Note_on_c, 12, 66, 0
30, 752399, Note_on_c, 12, 69, 0
30, 752640, Note_on_c, 12, 76, 48
30, 752879, Note_on_c, 12, 76, 0
30, 753120, Note_on_c, 12, 74, 50
30, 753359, Note_on_c, 12, 74, 0
30, 753360, Note_on_c, 12, 74, 51
30, 753599, Note_on_c, 12, 74, 0
30, 753600, Note_on_c, 12, 79, 52
30, 753839, Note_on_c, 12, 79, 0
30, 754080, Note_on_c, 12, 78, 53
30, 754319, Note_on_c, 12, 78, 0
30, 754320, Note_on_c, 12, 78, 54
30, 754539, Note_on_c, 12, 78, 0
30, 754558, Program_c, 12, 48
30, 754560, Note_on_c, 12, 64, 59
30, 754779, Note_on_c, 12, 64, 0
30, 754800, Note_on_c, 12, 64, 60
30, 755019, Note_on_c, 12, 64, 0
30, 755040, Note_on_c, 12, 62, 61
30, 755259, Note_on_c, 12, 62, 0
30, 755280, Note_on_c, 12, 62, 62
30, 755499, Note_on_c, 12, 62, 0
30, 755520, Note_on_c, 12, 67, 62
30, 755739, Note_on_c, 12, 67, 0
30, 755760, Note_on_c, 12, 67, 63
30, 755979, Note_on_c, 12, 67, 0
30, 756000, Note_on_c, 12, 66, 64
30, 756219, Note_on_c, 12, 66, 0
30, 756240, Note_on_c, 12, 66, 65
30, 756459, Note_on_c, 12, 66, 0
30, 756480, Note_on_c, 12, 66, 66
30, 756719, Note_on_c, 12, 66, 0
30, 756720, Note_on_c, 12, 64, 67
30, 756939, Note_on_c, 12, 64, 0
30, 756960, Note_on_c, 12, 62, 68
30, 757199, Note_on_c, 12, 62, 0
30, 757200, Note_on_c, 12, 69, 68
30, 757419, Note_on_c, 12, 69, 0
30, 757440, Note_on_c, 12, 69, 69
30, 757679, Note_on_c, 12, 69, 0
30, 757680, Note_on_c, 12, 67, 70
30, 757899, Note_on_c, 12, 67, 0
30, 757920, Note_on_c, 12, 67, 71
30, 758159, Note_on_c, 12, 67, 0
30, 758160, Note_on_c, 12, 66, 72
30, 758379, Note_on_c, 12, 66, 0
30, 758400, Note_on_c, 12, 66, 73
30, 758639, Note_on_c, 12, 66, 0
30, 758640, Note_on_c, 12, 64, 74
30, 758859, Note_on_c, 12, 64, 0
30, 758880, Note_on_c, 12, 62, 74
30, 759119, Note_on_c, 12, 62, 0
30, 759120, Note_on_c, 12, 69, 75
30, 759339, Note_on_c, 12, 69, 0
30, 759360, Note_on_c, 12, 69, 76
30, 759599, Note_on_c, 12, 69, 0
30, 759600, Note_on_c, 12, 67, 77
30, 759819, Note_on_c, 12, 67, 0
30, 759840, Note_on_c, 12, 67, 78
30, 760079, Note_on_c, 12, 67, 0
30, 760080, Note_on_c, 12, 66, 79
30, 760299, Note_on_c, 12, 66, 0
30, 760320, Note_on_c, 12, 69, 80
30, 760539, Note_on_c, 12, 69, 0
30, 760560, Note_on_c, 12, 57, 80
30, 760659, Note_on_c, 12, 57, 0
30, 760680, Note_on_c, 12, 57, 80
30, 760779, Note_on_c, 12, 57, 0
30, 760800, Note_on_c, 12, 59, 92
30, 760899, Note_on_c, 12, 59, 0
30, 760920, Note_on_c, 12, 59, 80
30, 761019, Note_on_c, 12, 59, 0
30, 761040, Note_on_c, 12, 57, 80
30, 761139, Note_on_c, 12, 57, 0
30, 761160, Note_on_c, 12, 57, 80
30, 761259, Note_on_c, 12, 57, 0
30, 761280, Note_on_c, 12, 62, 80
30, 761379, Note_on_c, 12, 62, 0
30, 761400, Note_on_c, 12, 62, 80
30, 761499, Note_on_c, 12, 62, 0
30, 761520, Note_on_c, 12, 61, 80
30, 761619, Note_on_c, 12, 61, 0
30, 761640, Note_on_c, 12, 61, 80
30, 761739, Note_on_c, 12, 61, 0
30, 761760, Note_on_c, 12, 66, 80
30, 761859, Note_on_c, 12, 66, 0
30, 761880, Note_on_c, 12, 66, 80
30, 761979, Note_on_c, 12, 66, 0
30, 762000, Note_on_c, 12, 64, 80
30, 762099, Note_on_c, 12, 64, 0
30, 762120, Note_on_c, 12, 64, 80
30, 762219, Note_on_c, 12, 64, 0
30, 762240, Note_on_c, 12, 69, 80
30, 762339, Note_on_c, 12, 69, 0
30, 762360, Note_on_c, 12, 69, 80
30, 762459, Note_on_c, 12, 69, 0
30, 762480, Note_on_c, 12, 67, 80
30, 762579, Note_on_c, 12, 67, 0
30, 762600, Note_on_c, 12, 67, 80
30, 762699, Note_on_c, 12, 67, 0
30, 762720, Note_on_c, 12, 67, 80
30, 762819, Note_on_c, 12, 67, 0
30, 762840, Note_on_c, 12, 67, 80
30, 762939, Note_on_c, 12, 67, 0
30, 762960, Note_on_c, 12, 67, 92
30, 763059, Note_on_c, 12, 67, 0
30, 763080, Note_on_c, 12, 67, 92
30, 763179, Note_on_c, 12, 67, 0
30, 763200, Note_on_c, 12, 74, 80
30, 763299, Note_on_c, 12, 74, 0
30, 763320, Note_on_c, 12, 74, 80
30, 763419, Note_on_c, 12, 74, 0
30, 763440, Note_on_c, 12, 73, 80
30, 763539, Note_on_c, 12, 73, 0
30, 763560, Note_on_c, 12, 73, 80
30, 763659, Note_on_c, 12, 73, 0
30, 763680, Note_on_c, 12, 78, 80
30, 763779, Note_on_c, 12, 78, 0
30, 763800, Note_on_c, 12, 78, 80
30, 763899, Note_on_c, 12, 78, 0
30, 763920, Note_on_c, 12, 76, 80
30, 764019, Note_on_c, 12, 76, 0
30, 764040, Note_on_c, 12, 76, 80
30, 764139, Note_on_c, 12, 76, 0
30, 764160, Note_on_c, 12, 81, 80
30, 764259, Note_on_c, 12, 81, 0
30, 764280, Note_on_c, 12, 81, 80
30, 764379, Note_on_c, 12, 81, 0
30, 764400, Note_on_c, 12, 79, 80
30, 764499, Note_on_c, 12, 79, 0
30, 764520, Note_on_c, 12, 79, 80
30, 764619, Note_on_c, 12, 79, 0
30, 764640, Note_on_c, 12, 79, 44
30, 764739, Note_on_c, 12, 79, 0
30, 764760, Note_on_c, 12, 76, 52
30, 764760, Note_on_c, 12, 73, 52
30, 764859, Note_on_c, 12, 76, 0
30, 764859, Note_on_c, 12, 73, 0
30, 764880, Note_on_c, 12, 76, 60
30, 764880, Note_on_c, 12, 73, 60
30, 764979, Note_on_c, 12, 76, 0
30, 764979, Note_on_c, 12, 73, 0
30, 765000, Note_on_c, 12, 76, 68
30, 765000, Note_on_c, 12, 73, 68
30, 765099, Note_on_c, 12, 76, 0
30, 765099, Note_on_c, 12, 73, 0
30, 765120, Note_on_c, 12, 73, 76
30, 765120, Note_on_c, 12, 76, 76
30, 765219, Note_on_c, 12, 73, 0
30, 765219, Note_on_c, 12, 76, 0
30, 765240, Note_on_c, 12, 76, 84
30, 765240, Note_on_c, 12, 73, 84
30, 765339, Note_on_c, 12, 76, 0
30, 765339, Note_on_c, 12, 73, 0
30, 765360, Note_on_c, 12, 78, 92
30, 765459, Note_on_c, 12, 78, 0
30, 765480, Note_on_c, 12, 66, 92
30, 765579, Note_on_c, 12, 66, 0
30, 765600, Note_on_c, 12, 78, 92
30, 765699, Note_on_c, 12, 78, 0
30, 765720, Note_on_c, 12, 66, 92
30, 765819, Note_on_c, 12, 66, 0
30, 765840, Note_on_c, 12, 69, 92
30, 765939, Note_on_c, 12, 69, 0
30, 765960, Note_on_c, 12, 74, 92
30, 766059, Note_on_c, 12, 74, 0
30, 766080, Note_on_c, 12, 78, 80
30, 766179, Note_on_c, 12, 78, 0
30, 766200, Note_on_c, 12, 76, 80
30, 766299, Note_on_c, 12, 76, 0
30, 766320, Note_on_c, 12, 74, 80
30, 766419, Note_on_c, 12, 74, 0
30, 766440, Note_on_c, 12, 62, 80
30, 766539, Note_on_c, 12, 62, 0
30, 766560, Note_on_c, 12, 74, 80
30, 766659, Note_on_c, 12, 74, 0
30, 766680, Note_on_c, 12, 62, 80
30, 766779, Note_on_c, 12, 62, 0
30, 766800, Note_on_c, 12, 66, 80
30, 766899, Note_on_c, 12, 66, 0
30, 766920, Note_on_c, 12, 71, 80
30, 767019, Note_on_c, 12, 71, 0
30, 767040, Note_on_c, 12, 74, 80
30, 767139, Note_on_c, 12, 74, 0
30, 767160, Note_on_c, 12, 73, 80
30, 767259, Note_on_c, 12, 73, 0
30, 767280, Note_on_c, 12, 71, 80
30, 767379, Note_on_c, 12, 71, 0
30, 767400, Note_on_c, 12, 59, 80
30, 767499, Note_on_c, 12, 59, 0
30, 767520, Note_on_c, 12, 83, 80
30, 767619, Note_on_c, 12, 83, 0
30, 767640, Note_on_c, 12, 71, 80
30, 767739, Note_on_c, 12, 71, 0
30, 767760, Note_on_c, 12, 74, 80
30, 767859, Note_on_c, 12, 74, 0
30, 767880, Note_on_c, 12, 79, 80
30, 767979, Note_on_c, 12, 79, 0
30, 768000, Note_on_c, 12, 83, 80
30, 768099, Note_on_c, 12, 83, 0
30, 768120, Note_on_c, 12, 81, 80
30, 768219, Note_on_c, 12, 81, 0
30, 768240, Note_on_c, 12, 79, 80
30, 768339, Note_on_c, 12, 79, 0
30, 768360, Note_on_c, 12, 67, 80
30, 768459, Note_on_c, 12, 67, 0
30, 768480, Note_on_c, 12, 79, 80
30, 768579, Note_on_c, 12, 79, 0
30, 768600, Note_on_c, 12, 67, 80
30, 768699, Note_on_c, 12, 67, 0
30, 768720, Note_on_c, 12, 71, 80
30, 768819, Note_on_c, 12, 71, 0
30, 768840, Note_on_c, 12, 76, 80
30, 768939, Note_on_c, 12, 76, 0
30, 768960, Note_on_c, 12, 79, 80
30, 769199, Note_on_c, 12, 79, 0
30, 769440, Control_c, 12, 11, 69
30, 769560, Note_on_c, 12, 88, 80
30, 769560, Control_c, 12, 11, 69
30, 769576, Control_c, 12, 11, 70
30, 769592, Control_c, 12, 11, 72
30, 769608, Control_c, 12, 11, 73
30, 769624, Control_c, 12, 11, 74
30, 769640, Control_c, 12, 11, 76
30, 769656, Control_c, 12, 11, 77
30, 769672, Control_c, 12, 11, 78
30, 769688, Control_c, 12, 11, 80
30, 769704, Control_c, 12, 11, 81
30, 769720, Control_c, 12, 11, 82
30, 769736, Control_c, 12, 11, 84
30, 769752, Control_c, 12, 11, 85
30, 769768, Control_c, 12, 11, 86
30, 769784, Control_c, 12, 11, 88
30, 769799, Note_on_c, 12, 88, 0
30, 769800, Note_on_c, 12, 85, 80
30, 769820, Control_c, 12, 11, 85
30, 769840, Control_c, 12, 11, 82
30, 769859, Note_on_c, 12, 85, 0
30, 769860, Control_c, 12, 11, 79
30, 769860, Note_on_c, 12, 79, 80
30, 769880, Control_c, 12, 11, 75
30, 769900, Control_c, 12, 11, 72
30, 769919, Note_on_c, 12, 79, 0
30, 769920, Control_c, 12, 11, 69
30, 770400, Control_c, 12, 11, 127
30, 770520, Note_on_c, 12, 86, 38
30, 770699, Note_on_c, 12, 86, 0
30, 770700, Note_on_c, 12, 85, 38
30, 770759, Note_on_c, 12, 85, 0
30, 770760, Note_on_c, 12, 86, 38
30, 770819, Note_on_c, 12, 86, 0
30, 770820, Note_on_c, 12, 78, 38
30, 770871, Note_on_c, 12, 78, 0
30, 770880, Note_on_c, 12, 76, 38
30, 771119, Note_on_c, 12, 76, 0
30, 771840, Note_on_c, 12, 76, 38
30, 771959, Note_on_c, 12, 76, 0
30, 771960, Note_on_c, 12, 74, 38
30, 772064, Note_on_c, 12, 74, 0
30, 772080, Note_on_c, 12, 74, 38
30, 772319, Note_on_c, 12, 74, 0
30, 772800, Note_on_c, 12, 76, 44
30, 773279, Note_on_c, 12, 76, 0
30, 776640, Note_on_c, 12, 76, 44
30, 776640, Note_on_c, 12, 73, 44
30, 776879, Note_on_c, 12, 76, 0
30, 776879, Note_on_c, 12, 73, 0
30, 777120, Note_on_c, 12, 74, 48
30, 777359, Note_on_c, 12, 74, 0
30, 777600, Note_on_c, 12, 79, 53
30, 777839, Note_on_c, 12, 79, 0
30, 778080, Note_on_c, 12, 78, 57
30, 778319, Note_on_c, 12, 78, 0
30, 778560, Note_on_c, 12, 57, 62
30, 778799, Note_on_c, 12, 57, 0
30, 778800, Note_on_c, 12, 61, 64
30, 779019, Note_on_c, 12, 61, 0
30, 779040, Note_on_c, 12, 62, 66
30, 779279, Note_on_c, 12, 62, 0
30, 779280, Note_on_c, 12, 66, 68
30, 779499, Note_on_c, 12, 66, 0
30, 779520, Note_on_c, 12, 69, 71
30, 779759, Note_on_c, 12, 69, 0
30, 779760, Note_on_c, 12, 61, 73
30, 779979, Note_on_c, 12, 61, 0
30, 780000, Note_on_c, 12, 62, 75
30, 780239, Note_on_c, 12, 62, 0
30, 780240, Note_on_c, 12, 66, 77
30, 780459, Note_on_c, 12, 66, 0
30, 780480, Note_on_c, 12, 69, 80
30, 780579, Note_on_c, 12, 69, 0
30, 780600, Note_on_c, 12, 69, 80
30, 780699, Note_on_c, 12, 69, 0
30, 780720, Note_on_c, 12, 57, 80
30, 780819, Note_on_c, 12, 57, 0
30, 780840, Note_on_c, 12, 57, 80
30, 780939, Note_on_c, 12, 57, 0
30, 780960, Note_on_c, 12, 59, 80
30, 781059, Note_on_c, 12, 59, 0
30, 781080, Note_on_c, 12, 59, 80
30, 781179, Note_on_c, 12, 59, 0
30, 781200, Note_on_c, 12, 57, 80
30, 781299, Note_on_c, 12, 57, 0
30, 781320, Note_on_c, 12, 57, 80
30, 781419, Note_on_c, 12, 57, 0
30, 781440, Note_on_c, 12, 62, 80
30, 781539, Note_on_c, 12, 62, 0
30, 781560, Note_on_c, 12, 62, 80
30, 781659, Note_on_c, 12, 62, 0
30, 781680, Note_on_c, 12, 61, 80
30, 781779, Note_on_c, 12, 61, 0
30, 781800, Note_on_c, 12, 61, 80
30, 781899, Note_on_c, 12, 61, 0
30, 781920, Note_on_c, 12, 66, 80
30, 782019, Note_on_c, 12, 66, 0
30, 782040, Note_on_c, 12, 66, 80
30, 782139, Note_on_c, 12, 66, 0
30, 782160, Note_on_c, 12, 64, 80
30, 782259, Note_on_c, 12, 64, 0
30, 782280, Note_on_c, 12, 64, 80
30, 782379, Note_on_c, 12, 64, 0
30, 782400, Note_on_c, 12, 69, 80
30, 782499, Note_on_c, 12, 69, 0
30, 782520, Note_on_c, 12, 69, 80
30, 782619, Note_on_c, 12, 69, 0
30, 782640, Note_on_c, 12, 67, 80
30, 782739, Note_on_c, 12, 67, 0
30, 782760, Note_on_c, 12, 67, 80
30, 782859, Note_on_c, 12, 67, 0
30, 782880, Note_on_c, 12, 67, 80
30, 782979, Note_on_c, 12, 67, 0
30, 783000, Note_on_c, 12, 67, 80
30, 783099, Note_on_c, 12, 67, 0
30, 783120, Note_on_c, 12, 67, 92
30, 783219, Note_on_c, 12, 67, 0
30, 783240, Note_on_c, 12, 67, 92
30, 783339, Note_on_c, 12, 67, 0
30, 783360, Note_on_c, 12, 74, 80
30, 783459, Note_on_c, 12, 74, 0
30, 783480, Note_on_c, 12, 74, 80
30, 783579, Note_on_c, 12, 74, 0
30, 783600, Note_on_c, 12, 73, 80
30, 783699, Note_on_c, 12, 73, 0
30, 783720, Note_on_c, 12, 73, 80
30, 783819, Note_on_c, 12, 73, 0
30, 783840, Note_on_c, 12, 78, 80
30, 783939, Note_on_c, 12, 78, 0
30, 783960, Note_on_c, 12, 78, 80
30, 784059, Note_on_c, 12, 78, 0
30, 784080, Note_on_c, 12, 76, 80
30, 784179, Note_on_c, 12, 76, 0
30, 784200, Note_on_c, 12, 76, 80
30, 784299, Note_on_c, 12, 76, 0
30, 784320, Note_on_c, 12, 81, 80
30, 784419, Note_on_c, 12, 81, 0
30, 784440, Note_on_c, 12, 81, 80
30, 784539, Note_on_c, 12, 81, 0
30, 784560, Note_on_c, 12, 79, 80
30, 784659, Note_on_c, 12, 79, 0
30, 784680, Note_on_c, 12, 79, 80
30, 784779, Note_on_c, 12, 79, 0
30, 784800, Note_on_c, 12, 79, 44
30, 784899, Note_on_c, 12, 79, 0
30, 784920, Note_on_c, 12, 76, 52
30, 785019, Note_on_c, 12, 76, 0
30, 785040, Note_on_c, 12, 76, 60
30, 785139, Note_on_c, 12, 76, 0
30, 785160, Note_on_c, 12, 76, 68
30, 785259, Note_on_c, 12, 76, 0
30, 785280, Note_on_c, 12, 76, 76
30, 785379, Note_on_c, 12, 76, 0
30, 785400, Note_on_c, 12, 76, 84
30, 785499, Note_on_c, 12, 76, 0
30, 785520, Note_on_c, 12, 78, 92
30, 785619, Note_on_c, 12, 78, 0
30, 785640, Note_on_c, 12, 66, 92
30, 785739, Note_on_c, 12, 66, 0
30, 785760, Note_on_c, 12, 78, 92
30, 785859, Note_on_c, 12, 78, 0
30, 785880, Note_on_c, 12, 66, 92
30, 785979, Note_on_c, 12, 66, 0
30, 786000, Note_on_c, 12, 69, 92
30, 786099, Note_on_c, 12, 69, 0
30, 786120, Note_on_c, 12, 74, 92
30, 786219, Note_on_c, 12, 74, 0
30, 786240, Note_on_c, 12, 78, 80
30, 786339, Note_on_c, 12, 78, 0
30, 786360, Note_on_c, 12, 76, 80
30, 786459, Note_on_c, 12, 76, 0
30, 786480, Note_on_c, 12, 74, 80
30, 786579, Note_on_c, 12, 74, 0
30, 786600, Note_on_c, 12, 62, 80
30, 786699, Note_on_c, 12, 62, 0
30, 786720, Note_on_c, 12, 74, 80
30, 786819, Note_on_c, 12, 74, 0
30, 786840, Note_on_c, 12, 62, 80
30, 786939, Note_on_c, 12, 62, 0
30, 786960, Note_on_c, 12, 66, 80
30, 787059, Note_on_c, 12, 66, 0
30, 787080, Note_on_c, 12, 71, 80
30, 787179, Note_on_c, 12, 71, 0
30, 787200, Note_on_c, 12, 74, 80
30, 787299, Note_on_c, 12, 74, 0
30, 787320, Note_on_c, 12, 73, 80
30, 787419, Note_on_c, 12, 73, 0
30, 787440, Note_on_c, 12, 71, 80
30, 787539, Note_on_c, 12, 71, 0
30, 787560, Note_on_c, 12, 59, 80
30, 787659, Note_on_c, 12, 59, 0
30, 787680, Note_on_c, 12, 83, 80
30, 787779, Note_on_c, 12, 83, 0
30, 787800, Note_on_c, 12, 71, 80
30, 787899, Note_on_c, 12, 71, 0
30, 787920, Note_on_c, 12, 74, 80
30, 788019, Note_on_c, 12, 74, 0
30, 788040, Note_on_c, 12, 79, 80
30, 788139, Note_on_c, 12, 79, 0
30, 788160, Note_on_c, 12, 83, 80
30, 788259, Note_on_c, 12, 83, 0
30, 788280, Note_on_c, 12, 81, 80
30, 788379, Note_on_c, 12, 81, 0
30, 788400, Note_on_c, 12, 79, 80
30, 788499, Note_on_c, 12, 79, 0
30, 788520, Note_on_c, 12, 67, 80
30, 788619, Note_on_c, 12, 67, 0
30, 788640, Note_on_c, 12, 79, 80
30, 788739, Note_on_c, 12, 79, 0
30, 788760, Note_on_c, 12, 67, 80
30, 788859, Note_on_c, 12, 67, 0
30, 788880, Note_on_c, 12, 71, 80
30, 788979, Note_on_c, 12, 71, 0
30, 789000, Note_on_c, 12, 76, 80
30, 789099, Note_on_c, 12, 76, 0
30, 789120, Note_on_c, 12, 79, 80
30, 789219, Note_on_c, 12, 79, 0
30, 789240, Note_on_c, 12, 67, 80
30, 789339, Note_on_c, 12, 67, 0
30, 789360, Note_on_c, 12, 71, 80
30, 789459, Note_on_c, 12, 71, 0
30, 789480, Note_on_c, 12, 76, 80
30, 789579, Note_on_c, 12, 76, 0
30, 789600, Note_on_c, 12, 80, 80
30, 789699, Note_on_c, 12, 80, 0
30, 789720, Note_on_c, 12, 68, 80
30, 789819, Note_on_c, 12, 68, 0
30, 789840, Note_on_c, 12, 71, 80
30, 789939, Note_on_c, 12, 71, 0
30, 789960, Note_on_c, 12, 76, 80
30, 790059, Note_on_c, 12, 76, 0
30, 790080, Note_on_c, 12, 80, 80
30, 790319, Note_on_c, 12, 80, 0
30, 791520, Note_on_c, 12, 76, 44
30, 791759, Note_on_c, 12, 76, 0
30, 792240, Note_on_c, 12, 75, 44
30, 792479, Note_on_c, 12, 75, 0
30, 793320, Note_on_c, 12, 68, 44
30, 793439, Note_on_c, 12, 68, 0
30, 793440, Note_on_c, 12, 73, 44
30, 793679, Note_on_c, 12, 73, 0
30, 794280, Note_on_c, 12, 63, 44
30, 794399, Note_on_c, 12, 63, 0
30, 794400, Note_on_c, 12, 71, 44
30, 794639, Note_on_c, 12, 71, 0
30, 795240, Note_on_c, 12, 64, 44
30, 795359, Note_on_c, 12, 64, 0
30, 795360, Note_on_c, 12, 73, 44
30, 795599, Note_on_c, 12, 73, 0
30, 796200, Note_on_c, 12, 63, 44
30, 796319, Note_on_c, 12, 63, 0
30, 796320, Note_on_c, 12, 71, 44
30, 796559, Note_on_c, 12, 71, 0
30, 797160, Note_on_c, 12, 63, 44
30, 797279, Note_on_c, 12, 63, 0
30, 797280, Note_on_c, 12, 71, 44
30, 797519, Note_on_c, 12, 71, 0
30, 798120, Note_on_c, 12, 64, 44
30, 798479, Note_on_c, 12, 64, 0
30, 799080, Note_on_c, 12, 63, 44
30, 799199, Note_on_c, 12, 63, 0
30, 799200, Note_on_c, 12, 66, 44
30, 799439, Note_on_c, 12, 66, 0
30, 800040, Note_on_c, 12, 62, 44
30, 800159, Note_on_c, 12, 62, 0
30, 800160, Note_on_c, 12, 66, 44
30, 800399, Note_on_c, 12, 66, 0
30, 800880, Note_on_c, 12, 83, 28
30, 801099, Note_on_c, 12, 83, 0
30, 801120, Note_on_c, 12, 81, 28
30, 801359, Note_on_c, 12, 81, 0
30, 801840, Note_on_c, 12, 83, 28
30, 802059, Note_on_c, 12, 83, 0
30, 802080, Note_on_c, 12, 81, 28
30, 802319, Note_on_c, 12, 81, 0
30, 802800, Note_on_c, 12, 83, 28
30, 803019, Note_on_c, 12, 83, 0
30, 803040, Note_on_c, 12, 81, 28
30, 803279, Note_on_c, 12, 81, 0
30, 803760, Note_on_c, 12, 83, 28
30, 803979, Note_on_c, 12, 83, 0
30, 804000, Note_on_c, 12, 81, 28
30, 804239, Note_on_c, 12, 81, 0
30, 804720, Note_on_c, 12, 83, 35
30, 804939, Note_on_c, 12, 83, 0
30, 804960, Note_on_c, 12, 81, 39
30, 805179, Note_on_c, 12, 81, 0
30, 805200, Note_on_c, 12, 83, 43
30, 805419, Note_on_c, 12, 83, 0
30, 805440, Note_on_c, 12, 81, 47
30, 805659, Note_on_c, 12, 81, 0
30, 805680, Note_on_c, 12, 83, 50
30, 805899, Note_on_c, 12, 83, 0
30, 805920, Note_on_c, 12, 81, 54
30, 806139, Note_on_c, 12, 81, 0
30, 806160, Note_on_c, 12, 83, 58
30, 806379, Note_on_c, 12, 83, 0
30, 806398, Control_c, 12, 10, 32
30, 806400, Note_on_c, 12, 81, 62
30, 806619, Note_on_c, 12, 81, 0
30, 806640, Note_on_c, 12, 83, 65
30, 806859, Note_on_c, 12, 83, 0
30, 806880, Note_on_c, 12, 81, 69
30, 807099, Note_on_c, 12, 81, 0
30, 807120, Note_on_c, 12, 83, 73
30, 807339, Note_on_c, 12, 83, 0
30, 807360, Note_on_c, 12, 81, 77
30, 807579, Note_on_c, 12, 81, 0
30, 807600, Note_on_c, 12, 83, 80
30, 807819, Note_on_c, 12, 83, 0
30, 807840, Note_on_c, 12, 81, 84
30, 808059, Note_on_c, 12, 81, 0
30, 808080, Note_on_c, 12, 83, 88
30, 808199, Note_on_c, 12, 83, 0
30, 808200, Note_on_c, 12, 85, 90
30, 808299, Note_on_c, 12, 85, 0
30, 808320, Note_on_c, 12, 86, 92
30, 808559, Note_on_c, 12, 86, 0
30, 811680, Note_on_c, 12, 81, 92
30, 811919, Note_on_c, 12, 81, 0
30, 811920, Note_on_c, 12, 83, 92
30, 812039, Note_on_c, 12, 83, 0
30, 812040, Note_on_c, 12, 85, 92
30, 812139, Note_on_c, 12, 85, 0
30, 812160, Note_on_c, 12, 86, 92
30, 812160, Note_on_c, 12, 74, 92
30, 812160, Note_on_c, 12, 62, 92
30, 812339, Note_on_c, 12, 86, 0
30, 812339, Note_on_c, 12, 74, 0
30, 812339, Note_on_c, 12, 62, 0
30, 812400, Note_on_c, 12, 86, 80
30, 812579, Note_on_c, 12, 86, 0
30, 812640, Note_on_c, 12, 85, 80
30, 812819, Note_on_c, 12, 85, 0
30, 812880, Note_on_c, 12, 81, 80
30, 813059, Note_on_c, 12, 81, 0
30, 813120, Note_on_c, 12, 88, 92
30, 813299, Note_on_c, 12, 88, 0
30, 813360, Note_on_c, 12, 88, 80
30, 813539, Note_on_c, 12, 88, 0
30, 813600, Note_on_c, 12, 87, 80
30, 813779, Note_on_c, 12, 87, 0
30, 813840, Note_on_c, 12, 83, 80
30, 814019, Note_on_c, 12, 83, 0
30, 814080, Note_on_c, 12, 88, 92
30, 814259, Note_on_c, 12, 88, 0
30, 814320, Note_on_c, 12, 78, 80
30, 814499, Note_on_c, 12, 78, 0
30, 814560, Note_on_c, 12, 79, 80
30, 814739, Note_on_c, 12, 79, 0
30, 814800, Note_on_c, 12, 80, 80
30, 814979, Note_on_c, 12, 80, 0
30, 815040, Note_on_c, 12, 81, 92
30, 815219, Note_on_c, 12, 81, 0
30, 815280, Note_on_c, 12, 80, 80
30, 815459, Note_on_c, 12, 80, 0
30, 815520, Note_on_c, 12, 81, 80
30, 815699, Note_on_c, 12, 81, 0
30, 815760, Note_on_c, 12, 83, 80
30, 815879, Note_on_c, 12, 83, 0
30, 815880, Note_on_c, 12, 81, 80
30, 815979, Note_on_c, 12, 81, 0
30, 816000, Note_on_c, 12, 79, 80
30, 816179, Note_on_c, 12, 79, 0
30, 816240, Note_on_c, 12, 79, 80
30, 816359, Note_on_c, 12, 79, 0
30, 816360, Note_on_c, 12, 78, 80
30, 816459, Note_on_c, 12, 78, 0
30, 816480, Note_on_c, 12, 76, 80
30, 816659, Note_on_c, 12, 76, 0
30, 816720, Note_on_c, 12, 76, 80
30, 816839, Note_on_c, 12, 76, 0
30, 816840, Note_on_c, 12, 74, 80
30, 816939, Note_on_c, 12, 74, 0
30, 816960, Note_on_c, 12, 73, 80
30, 817139, Note_on_c, 12, 73, 0
30, 817200, Note_on_c, 12, 73, 80
30, 817319, Note_on_c, 12, 73, 0
30, 817320, Note_on_c, 12, 71, 80
30, 817419, Note_on_c, 12, 71, 0
30, 817440, Note_on_c, 12, 69, 80
30, 817539, Note_on_c, 12, 69, 0
30, 817560, Note_on_c, 12, 81, 80
30, 817659, Note_on_c, 12, 81, 0
30, 817680, Note_on_c, 12, 81, 80
30, 817779, Note_on_c, 12, 81, 0
30, 817800, Note_on_c, 12, 81, 80
30, 817899, Note_on_c, 12, 81, 0
30, 817920, Note_on_c, 12, 69, 92
30, 817920, Note_on_c, 12, 81, 92
30, 818019, Note_on_c, 12, 69, 0
30, 818019, Note_on_c, 12, 81, 0
30, 818040, Note_on_c, 12, 69, 80
30, 818040, Note_on_c, 12, 81, 80
30, 818139, Note_on_c, 12, 69, 0
30, 818139, Note_on_c, 12, 81, 0
30, 818160, Note_on_c, 12, 69, 80
30, 818160, Note_on_c, 12, 81, 80
30, 818259, Note_on_c, 12, 69, 0
30, 818259, Note_on_c, 12, 81, 0
30, 818280, Note_on_c, 12, 69, 80
30, 818280, Note_on_c, 12, 81, 80
30, 818379, Note_on_c, 12, 69, 0
30, 818379, Note_on_c, 12, 81, 0
30, 818400, Note_on_c, 12, 81, 80
30, 818400, Note_on_c, 12, 69, 80
30, 818499, Note_on_c, 12, 81, 0
30, 818499, Note_on_c, 12, 69, 0
30, 818520, Note_on_c, 12, 81, 80
30, 818520, Note_on_c, 12, 69, 80
30, 818619, Note_on_c, 12, 81, 0
30, 818619, Note_on_c, 12, 69, 0
30, 818640, Note_on_c, 12, 81, 80
30, 818640, Note_on_c, 12, 69, 80
30, 818739, Note_on_c, 12, 81, 0
30, 818739, Note_on_c, 12, 69, 0
30, 818760, Note_on_c, 12, 81, 80
30, 818760, Note_on_c, 12, 69, 80
30, 818859, Note_on_c, 12, 81, 0
30, 818859, Note_on_c, 12, 69, 0
30, 818880, Note_on_c, 12, 69, 80
30, 818880, Note_on_c, 12, 81, 80
30, 818979, Note_on_c, 12, 69, 0
30, 818979, Note_on_c, 12, 81, 0
30, 819000, Note_on_c, 12, 69, 80
30, 819000, Note_on_c, 12, 81, 80
30, 819099, Note_on_c, 12, 69, 0
30, 819099, Note_on_c, 12, 81, 0
30, 819120, Note_on_c, 12, 69, 80
30, 819120, Note_on_c, 12, 81, 80
30, 819219, Note_on_c, 12, 69, 0
30, 819219, Note_on_c, 12, 81, 0
30, 819240, Note_on_c, 12, 69, 80
30, 819240, Note_on_c, 12, 81, 80
30, 819339, Note_on_c, 12, 69, 0
30, 819339, Note_on_c, 12, 81, 0
30, 819360, Note_on_c, 12, 69, 80
30, 819360, Note_on_c, 12, 81, 80
30, 819459, Note_on_c, 12, 69, 0
30, 819459, Note_on_c, 12, 81, 0
30, 819480, Note_on_c, 12, 81, 80
30, 819480, Note_on_c, 12, 69, 80
30, 819579, Note_on_c, 12, 81, 0
30, 819579, Note_on_c, 12, 69, 0
30, 819600, Note_on_c, 12, 81, 80
30, 819600, Note_on_c, 12, 69, 80
30, 819699, Note_on_c, 12, 81, 0
30, 819699, Note_on_c, 12, 69, 0
30, 819720, Note_on_c, 12, 81, 80
30, 819720, Note_on_c, 12, 69, 80
30, 819819, Note_on_c, 12, 81, 0
30, 819819, Note_on_c, 12, 69, 0
30, 819840, Note_on_c, 12, 69, 80
30, 819840, Note_on_c, 12, 81, 80
30, 819939, Note_on_c, 12, 69, 0
30, 819939, Note_on_c, 12, 81, 0
30, 819960, Note_on_c, 12, 69, 80
30, 819960, Note_on_c, 12, 81, 80
30, 820059, Note_on_c, 12, 69, 0
30, 820059, Note_on_c, 12, 81, 0
30, 820080, Note_on_c, 12, 81, 80
30, 820080, Note_on_c, 12, 69, 80
30, 820179, Note_on_c, 12, 81, 0
30, 820179, Note_on_c, 12, 69, 0
30, 820200, Note_on_c, 12, 69, 80
30, 820200, Note_on_c, 12, 81, 80
30, 820299, Note_on_c, 12, 69, 0
30, 820299, Note_on_c, 12, 81, 0
30, 820320, Note_on_c, 12, 69, 80
30, 820320, Note_on_c, 12, 81, 80
30, 820419, Note_on_c, 12, 69, 0
30, 820419, Note_on_c, 12, 81, 0
30, 820440, Note_on_c, 12, 69, 80
30, 820440, Note_on_c, 12, 81, 80
30, 820539, Note_on_c, 12, 69, 0
30, 820539, Note_on_c, 12, 81, 0
30, 820560, Note_on_c, 12, 81, 80
30, 820560, Note_on_c, 12, 69, 80
30, 820659, Note_on_c, 12, 81, 0
30, 820659, Note_on_c, 12, 69, 0
30, 820680, Note_on_c, 12, 81, 80
30, 820680, Note_on_c, 12, 69, 80
30, 820779, Note_on_c, 12, 81, 0
30, 820779, Note_on_c, 12, 69, 0
30, 820800, Note_on_c, 12, 81, 80
30, 820800, Note_on_c, 12, 69, 80
30, 820899, Note_on_c, 12, 81, 0
30, 820899, Note_on_c, 12, 69, 0
30, 820920, Note_on_c, 12, 69, 80
30, 820920, Note_on_c, 12, 81, 80
30, 821019, Note_on_c, 12, 69, 0
30, 821019, Note_on_c, 12, 81, 0
30, 821040, Note_on_c, 12, 81, 80
30, 821040, Note_on_c, 12, 69, 80
30, 821139, Note_on_c, 12, 81, 0
30, 821139, Note_on_c, 12, 69, 0
30, 821160, Note_on_c, 12, 81, 80
30, 821160, Note_on_c, 12, 69, 80
30, 821259, Note_on_c, 12, 81, 0
30, 821259, Note_on_c, 12, 69, 0
30, 821280, Note_on_c, 12, 69, 80
30, 821280, Note_on_c, 12, 81, 80
30, 821379, Note_on_c, 12, 69, 0
30, 821379, Note_on_c, 12, 81, 0
30, 821400, Note_on_c, 12, 69, 80
30, 821400, Note_on_c, 12, 81, 80
30, 821499, Note_on_c, 12, 69, 0
30, 821499, Note_on_c, 12, 81, 0
30, 821520, Note_on_c, 12, 81, 80
30, 821520, Note_on_c, 12, 69, 80
30, 821619, Note_on_c, 12, 81, 0
30, 821619, Note_on_c, 12, 69, 0
30, 821640, Note_on_c, 12, 81, 80
30, 821640, Note_on_c, 12, 69, 80
30, 821739, Note_on_c, 12, 81, 0
30, 821739, Note_on_c, 12, 69, 0
30, 821760, Note_on_c, 12, 88, 80
30, 821859, Note_on_c, 12, 88, 0
30, 821880, Note_on_c, 12, 76, 80
30, 821979, Note_on_c, 12, 76, 0
30, 822000, Note_on_c, 12, 76, 80
30, 822099, Note_on_c, 12, 76, 0
30, 822120, Note_on_c, 12, 78, 80
30, 822219, Note_on_c, 12, 78, 0
30, 822240, Note_on_c, 12, 76, 80
30, 822339, Note_on_c, 12, 76, 0
30, 822360, Note_on_c, 12, 76, 80
30, 822459, Note_on_c, 12, 76, 0
30, 822480, Note_on_c, 12, 74, 80
30, 822579, Note_on_c, 12, 74, 0
30, 822600, Note_on_c, 12, 74, 80
30, 822699, Note_on_c, 12, 74, 0
30, 822720, Note_on_c, 12, 76, 80
30, 822819, Note_on_c, 12, 76, 0
30, 822840, Note_on_c, 12, 76, 80
30, 822939, Note_on_c, 12, 76, 0
30, 822960, Note_on_c, 12, 76, 80
30, 823059, Note_on_c, 12, 76, 0
30, 823080, Note_on_c, 12, 78, 80
30, 823179, Note_on_c, 12, 78, 0
30, 823200, Note_on_c, 12, 76, 80
30, 823299, Note_on_c, 12, 76, 0
30, 823320, Note_on_c, 12, 76, 80
30, 823419, Note_on_c, 12, 76, 0
30, 823440, Note_on_c, 12, 74, 80
30, 823539, Note_on_c, 12, 74, 0
30, 823560, Note_on_c, 12, 74, 80
30, 823659, Note_on_c, 12, 74, 0
30, 823680, Note_on_c, 12, 76, 80
30, 823779, Note_on_c, 12, 76, 0
30, 823800, Note_on_c, 12, 76, 80
30, 823899, Note_on_c, 12, 76, 0
30, 823920, Note_on_c, 12, 76, 80
30, 824019, Note_on_c, 12, 76, 0
30, 824040, Note_on_c, 12, 78, 80
30, 824139, Note_on_c, 12, 78, 0
30, 824160, Note_on_c, 12, 76, 80
30, 824259, Note_on_c, 12, 76, 0
30, 824280, Note_on_c, 12, 76, 80
30, 824379, Note_on_c, 12, 76, 0
30, 824400, Note_on_c, 12, 74, 80
30, 824499, Note_on_c, 12, 74, 0
30, 824520, Note_on_c, 12, 74, 80
30, 824619, Note_on_c, 12, 74, 0
30, 824640, Note_on_c, 12, 76, 80
30, 824739, Note_on_c, 12, 76, 0
30, 824760, Note_on_c, 12, 76, 80
30, 824859, Note_on_c, 12, 76, 0
30, 824880, Note_on_c, 12, 76, 80
30, 824979, Note_on_c, 12, 76, 0
30, 825000, Note_on_c, 12, 78, 80
30, 825099, Note_on_c, 12, 78, 0
30, 825120, Note_on_c, 12, 76, 80
30, 825219, Note_on_c, 12, 76, 0
30, 825240, Note_on_c, 12, 76, 80
30, 825339, Note_on_c, 12, 76, 0
30, 825360, Note_on_c, 12, 74, 80
30, 825459, Note_on_c, 12, 74, 0
30, 825480, Note_on_c, 12, 74, 80
30, 825579, Note_on_c, 12, 74, 0
30, 825600, Note_on_c, 12, 81, 80
30, 825699, Note_on_c, 12, 81, 0
30, 825720, Note_on_c, 12, 81, 80
30, 825819, Note_on_c, 12, 81, 0
30, 825840, Note_on_c, 12, 79, 80
30, 825939, Note_on_c, 12, 79, 0
30, 825960, Note_on_c, 12, 79, 80
30, 826059, Note_on_c, 12, 79, 0
30, 826080, Note_on_c, 12, 79, 80
30, 826179, Note_on_c, 12, 79, 0
30, 826200, Note_on_c, 12, 79, 80
30, 826299, Note_on_c, 12, 79, 0
30, 826320, Note_on_c, 12, 78, 80
30, 826419, Note_on_c, 12, 78, 0
30, 826440, Note_on_c, 12, 78, 80
30, 826539, Note_on_c, 12, 78, 0
30, 826560, Note_on_c, 12, 78, 80
30, 826659, Note_on_c, 12, 78, 0
30, 826680, Note_on_c, 12, 78, 80
30, 826779, Note_on_c, 12, 78, 0
30, 826800, Note_on_c, 12, 76, 80
30, 826899, Note_on_c, 12, 76, 0
30, 826920, Note_on_c, 12, 76, 80
30, 827019, Note_on_c, 12, 76, 0
30, 827040, Note_on_c, 12, 79, 80
30, 827139, Note_on_c, 12, 79, 0
30, 827160, Note_on_c, 12, 79, 80
30, 827259, Note_on_c, 12, 79, 0
30, 827280, Note_on_c, 12, 76, 80
30, 827379, Note_on_c, 12, 76, 0
30, 827400, Note_on_c, 12, 76, 80
30, 827499, Note_on_c, 12, 76, 0
30, 827520, Note_on_c, 12, 76, 80
30, 827619, Note_on_c, 12, 76, 0
30, 827640, Note_on_c, 12, 76, 80
30, 827739, Note_on_c, 12, 76, 0
30, 827760, Note_on_c, 12, 74, 80
30, 827859, Note_on_c, 12, 74, 0
30, 827880, Note_on_c, 12, 74, 80
30, 827979, Note_on_c, 12, 74, 0
30, 828000, Note_on_c, 12, 74, 80
30, 828099, Note_on_c, 12, 74, 0
30, 828120, Note_on_c, 12, 74, 80
30, 828219, Note_on_c, 12, 74, 0
30, 828240, Note_on_c, 12, 73, 80
30, 828339, Note_on_c, 12, 73, 0
30, 828360, Note_on_c, 12, 73, 80
30, 828459, Note_on_c, 12, 73, 0
30, 828480, Note_on_c, 12, 83, 80
30, 828579, Note_on_c, 12, 83, 0
30, 828600, Note_on_c, 12, 83, 80
30, 828699, Note_on_c, 12, 83, 0
30, 828720, Note_on_c, 12, 83, 80
30, 828819, Note_on_c, 12, 83, 0
30, 828840, Note_on_c, 12, 83, 80
30, 828939, Note_on_c, 12, 83, 0
30, 828960, Note_on_c, 12, 81, 80
30, 829059, Note_on_c, 12, 81, 0
30, 829080, Note_on_c, 12, 81, 80
30, 829179, Note_on_c, 12, 81, 0
30, 829200, Note_on_c, 12, 81, 80
30, 829299, Note_on_c, 12, 81, 0
30, 829320, Note_on_c, 12, 81, 80
30, 829419, Note_on_c, 12, 81, 0
30, 829440, Note_on_c, 12, 81, 80
30, 829539, Note_on_c, 12, 81, 0
30, 829560, Note_on_c, 12, 81, 80
30, 829659, Note_on_c, 12, 81, 0
30, 829680, Note_on_c, 12, 79, 80
30, 829779, Note_on_c, 12, 79, 0
30, 829800, Note_on_c, 12, 79, 80
30, 829899, Note_on_c, 12, 79, 0
30, 829920, Note_on_c, 12, 79, 80
30, 830019, Note_on_c, 12, 79, 0
30, 830040, Note_on_c, 12, 79, 80
30, 830139, Note_on_c, 12, 79, 0
30, 830160, Note_on_c, 12, 78, 80
30, 830259, Note_on_c, 12, 78, 0
30, 830280, Note_on_c, 12, 78, 80
30, 830379, Note_on_c, 12, 78, 0
30, 830400, Note_on_c, 12, 78, 80
30, 830499, Note_on_c, 12, 78, 0
30, 830520, Note_on_c, 12, 78, 80
30, 830619, Note_on_c, 12, 78, 0
30, 830640, Note_on_c, 12, 76, 80
30, 830739, Note_on_c, 12, 76, 0
30, 830760, Note_on_c, 12, 76, 80
30, 830859, Note_on_c, 12, 76, 0
30, 830880, Note_on_c, 12, 79, 80
30, 830979, Note_on_c, 12, 79, 0
30, 831000, Note_on_c, 12, 79, 80
30, 831099, Note_on_c, 12, 79, 0
30, 831120, Note_on_c, 12, 76, 80
30, 831219, Note_on_c, 12, 76, 0
30, 831240, Note_on_c, 12, 76, 80
30, 831339, Note_on_c, 12, 76, 0
30, 831360, Note_on_c, 12, 76, 80
30, 831459, Note_on_c, 12, 76, 0
30, 831480, Note_on_c, 12, 76, 80
30, 831579, Note_on_c, 12, 76, 0
30, 831600, Note_on_c, 12, 74, 80
30, 831699, Note_on_c, 12, 74, 0
30, 831720, Note_on_c, 12, 74, 80
30, 831819, Note_on_c, 12, 74, 0
30, 831840, Note_on_c, 12, 74, 80
30, 831939, Note_on_c, 12, 74, 0
30, 831960, Note_on_c, 12, 74, 80
30, 832059, Note_on_c, 12, 74, 0
30, 832080, Note_on_c, 12, 73, 80
30, 832179, Note_on_c, 12, 73, 0
30, 832200, Note_on_c, 12, 73, 80
30, 832299, Note_on_c, 12, 73, 0
30, 832320, Note_on_c, 12, 74, 80
30, 832320, Note_on_c, 12, 62, 80
30, 832529, Note_on_c, 12, 74, 0
30, 832529, Note_on_c, 12, 62, 0
30, 832560, Note_on_c, 12, 62, 80
30, 832560, Note_on_c, 12, 74, 80
30, 832769, Note_on_c, 12, 62, 0
30, 832769, Note_on_c, 12, 74, 0
30, 832800, Note_on_c, 12, 73, 80
30, 833009, Note_on_c, 12, 73, 0
30, 833040, Note_on_c, 12, 69, 80
30, 833249, Note_on_c, 12, 69, 0
30, 833280, Note_on_c, 12, 78, 80
30, 833489, Note_on_c, 12, 78, 0
30, 833520, Note_on_c, 12, 78, 80
30, 833639, Note_on_c, 12, 78, 0
30, 833640, Note_on_c, 12, 79, 80
30, 833739, Note_on_c, 12, 79, 0
30, 833760, Note_on_c, 12, 81, 80
30, 833939, Note_on_c, 12, 81, 0
30, 834240, Note_on_c, 12, 79, 80
30, 834449, Note_on_c, 12, 79, 0
30, 834480, Note_on_c, 12, 79, 80
30, 834689, Note_on_c, 12, 79, 0
30, 834720, Note_on_c, 12, 78, 80
30, 834929, Note_on_c, 12, 78, 0
30, 834960, Note_on_c, 12, 75, 80
30, 835169, Note_on_c, 12, 75, 0
30, 835200, Note_on_c, 12, 79, 80
30, 835409, Note_on_c, 12, 79, 0
30, 835440, Note_on_c, 12, 79, 80
30, 835559, Note_on_c, 12, 79, 0
30, 835560, Note_on_c, 12, 81, 80
30, 835679, Note_on_c, 12, 81, 0
30, 835680, Note_on_c, 12, 83, 80
30, 835859, Note_on_c, 12, 83, 0
30, 835920, Note_on_c, 12, 78, 80
30, 836039, Note_on_c, 12, 78, 0
30, 836040, Note_on_c, 12, 79, 80
30, 836159, Note_on_c, 12, 79, 0
30, 836160, Note_on_c, 12, 81, 92
30, 836339, Note_on_c, 12, 81, 0
30, 836400, Note_on_c, 12, 78, 92
30, 836519, Note_on_c, 12, 78, 0
30, 836520, Note_on_c, 12, 79, 92
30, 836639, Note_on_c, 12, 79, 0
30, 836640, Note_on_c, 12, 81, 92
30, 836819, Note_on_c, 12, 81, 0
30, 836880, Note_on_c, 12, 78, 92
30, 836999, Note_on_c, 12, 78, 0
30, 837000, Note_on_c, 12, 79, 92
30, 837119, Note_on_c, 12, 79, 0
30, 837120, Note_on_c, 12, 81, 92
30, 837299, Note_on_c, 12, 81, 0
30, 837360, Note_on_c, 12, 78, 92
30, 837479, Note_on_c, 12, 78, 0
30, 837480, Note_on_c, 12, 79, 92
30, 837599, Note_on_c, 12, 79, 0
30, 837600, Note_on_c, 12, 81, 92
30, 837779, Note_on_c, 12, 81, 0
30, 837840, Note_on_c, 12, 78, 92
30, 837959, Note_on_c, 12, 78, 0
30, 837960, Note_on_c, 12, 79, 92
30, 838079, Note_on_c, 12, 79, 0
30, 838080, Note_on_c, 12, 81, 92
30, 838259, Note_on_c, 12, 81, 0
30, 838320, Note_on_c, 12, 78, 92
30, 838439, Note_on_c, 12, 78, 0
30, 838440, Note_on_c, 12, 79, 92
30, 838559, Note_on_c, 12, 79, 0
30, 838560, Note_on_c, 12, 81, 92
30, 838739, Note_on_c, 12, 81, 0
30, 838800, Note_on_c, 12, 83, 92
30, 838919, Note_on_c, 12, 83, 0
30, 838920, Note_on_c, 12, 81, 92
30, 839039, Note_on_c, 12, 81, 0
30, 839040, Note_on_c, 12, 79, 92
30, 839219, Note_on_c, 12, 79, 0
30, 839280, Note_on_c, 12, 76, 92
30, 839399, Note_on_c, 12, 76, 0
30, 839400, Note_on_c, 12, 78, 92
30, 839519, Note_on_c, 12, 78, 0
30, 839520, Note_on_c, 12, 79, 92
30, 839699, Note_on_c, 12, 79, 0
30, 839760, Note_on_c, 12, 76, 92
30, 839879, Note_on_c, 12, 76, 0
30, 839880, Note_on_c, 12, 78, 92
30, 839999, Note_on_c, 12, 78, 0
30, 840000, Note_on_c, 12, 79, 92
30, 840179, Note_on_c, 12, 79, 0
30, 840240, Note_on_c, 12, 76, 92
30, 840359, Note_on_c, 12, 76, 0
30, 840360, Note_on_c, 12, 78, 92
30, 840479, Note_on_c, 12, 78, 0
30, 840480, Note_on_c, 12, 79, 92
30, 840659, Note_on_c, 12, 79, 0
30, 840720, Note_on_c, 12, 81, 92
30, 840839, Note_on_c, 12, 81, 0
30, 840840, Note_on_c, 12, 79, 92
30, 840959, Note_on_c, 12, 79, 0
30, 840960, Note_on_c, 12, 77, 92
30, 841139, Note_on_c, 12, 77, 0
30, 841200, Note_on_c, 12, 74, 92
30, 841319, Note_on_c, 12, 74, 0
30, 841320, Note_on_c, 12, 76, 92
30, 841439, Note_on_c, 12, 76, 0
30, 841440, Note_on_c, 12, 77, 92
30, 841619, Note_on_c, 12, 77, 0
30, 841680, Note_on_c, 12, 79, 92
30, 841799, Note_on_c, 12, 79, 0
30, 841800, Note_on_c, 12, 77, 92
30, 841919, Note_on_c, 12, 77, 0
30, 841920, Note_on_c, 12, 76, 92
30, 842099, Note_on_c, 12, 76, 0
30, 842160, Note_on_c, 12, 88, 92
30, 842279, Note_on_c, 12, 88, 0
30, 842280, Note_on_c, 12, 85, 92
30, 842399, Note_on_c, 12, 85, 0
30, 842400, Note_on_c, 12, 81, 92
30, 842579, Note_on_c, 12, 81, 0
30, 842640, Note_on_c, 12, 80, 92
30, 842759, Note_on_c, 12, 80, 0
30, 842760, Note_on_c, 12, 81, 92
30, 842859, Note_on_c, 12, 81, 0
30, 842880, Note_on_c, 12, 81, 92
30, 842979, Note_on_c, 12, 81, 0
30, 843000, Note_on_c, 12, 81, 92
30, 843099, Note_on_c, 12, 81, 0
30, 843120, Note_on_c, 12, 81, 92
30, 843219, Note_on_c, 12, 81, 0
30, 843240, Note_on_c, 12, 81, 92
30, 843339, Note_on_c, 12, 81, 0
30, 843360, Note_on_c, 12, 81, 92
30, 843459, Note_on_c, 12, 81, 0
30, 843480, Note_on_c, 12, 81, 80
30, 843579, Note_on_c, 12, 81, 0
30, 843600, Note_on_c, 12, 81, 80
30, 843699, Note_on_c, 12, 81, 0
30, 843720, Note_on_c, 12, 81, 80
30, 843819, Note_on_c, 12, 81, 0
30, 843840, Note_on_c, 12, 81, 80
30, 843939, Note_on_c, 12, 81, 0
30, 843960, Note_on_c, 12, 81, 80
30, 844059, Note_on_c, 12, 81, 0
30, 844080, Note_on_c, 12, 81, 80
30, 844179, Note_on_c, 12, 81, 0
30, 844200, Note_on_c, 12, 81, 80
30, 844299, Note_on_c, 12, 81, 0
30, 844320, Note_on_c, 12, 81, 80
30, 844419, Note_on_c, 12, 81, 0
30, 844440, Note_on_c, 12, 81, 80
30, 844539, Note_on_c, 12, 81, 0
30, 844560, Note_on_c, 12, 81, 80
30, 844659, Note_on_c, 12, 81, 0
30, 844680, Note_on_c, 12, 81, 80
30, 844779, Note_on_c, 12, 81, 0
30, 844800, Note_on_c, 12, 81, 80
30, 844899, Note_on_c, 12, 81, 0
30, 844920, Note_on_c, 12, 81, 80
30, 845019, Note_on_c, 12, 81, 0
30, 845040, Note_on_c, 12, 81, 80
30, 845139, Note_on_c, 12, 81, 0
30, 845160, Note_on_c, 12, 81, 80
30, 845259, Note_on_c, 12, 81, 0
30, 845280, Note_on_c, 12, 81, 80
30, 845379, Note_on_c, 12, 81, 0
30, 845400, Note_on_c, 12, 81, 80
30, 845499, Note_on_c, 12, 81, 0
30, 845520, Note_on_c, 12, 81, 80
30, 845619, Note_on_c, 12, 81, 0
30, 845640, Note_on_c, 12, 81, 80
30, 845739, Note_on_c, 12, 81, 0
30, 845760, Note_on_c, 12, 81, 80
30, 845859, Note_on_c, 12, 81, 0
30, 845880, Note_on_c, 12, 81, 80
30, 845979, Note_on_c, 12, 81, 0
30, 846000, Note_on_c, 12, 81, 80
30, 846099, Note_on_c, 12, 81, 0
30, 846120, Note_on_c, 12, 81, 80
30, 846219, Note_on_c, 12, 81, 0
30, 846240, Note_on_c, 12, 81, 80
30, 846339, Note_on_c, 12, 81, 0
30, 846360, Note_on_c, 12, 81, 80
30, 846459, Note_on_c, 12, 81, 0
30, 846480, Note_on_c, 12, 81, 80
30, 846579, Note_on_c, 12, 81, 0
30, 846600, Note_on_c, 12, 81, 80
30, 846699, Note_on_c, 12, 81, 0
30, 846720, Note_on_c, 12, 76, 92
30, 846720, Note_on_c, 12, 79, 92
30, 846819, Note_on_c, 12, 76, 0
30, 846819, Note_on_c, 12, 79, 0
30, 846840, Note_on_c, 12, 79, 92
30, 846840, Note_on_c, 12, 76, 92
30, 846939, Note_on_c, 12, 79, 0
30, 846939, Note_on_c, 12, 76, 0
30, 846960, Note_on_c, 12, 76, 92
30, 846960, Note_on_c, 12, 79, 92
30, 847059, Note_on_c, 12, 76, 0
30, 847059, Note_on_c, 12, 79, 0
30, 847080, Note_on_c, 12, 79, 92
30, 847080, Note_on_c, 12, 76, 92
30, 847179, Note_on_c, 12, 79, 0
30, 847179, Note_on_c, 12, 76, 0
30, 847200, Note_on_c, 12, 79, 80
30, 847200, Note_on_c, 12, 76, 80
30, 847299, Note_on_c, 12, 79, 0
30, 847299, Note_on_c, 12, 76, 0
30, 847320, Note_on_c, 12, 76, 80
30, 847320, Note_on_c, 12, 79, 80
30, 847419, Note_on_c, 12, 76, 0
30, 847419, Note_on_c, 12, 79, 0
30, 847440, Note_on_c, 12, 76, 80
30, 847440, Note_on_c, 12, 79, 80
30, 847539, Note_on_c, 12, 76, 0
30, 847539, Note_on_c, 12, 79, 0
30, 847560, Note_on_c, 12, 76, 80
30, 847560, Note_on_c, 12, 79, 80
30, 847659, Note_on_c, 12, 76, 0
30, 847659, Note_on_c, 12, 79, 0
30, 847680, Note_on_c, 12, 76, 80
30, 847680, Note_on_c, 12, 79, 80
30, 847779, Note_on_c, 12, 76, 0
30, 847779, Note_on_c, 12, 79, 0
30, 847800, Note_on_c, 12, 79, 80
30, 847800, Note_on_c, 12, 76, 80
30, 847899, Note_on_c, 12, 79, 0
30, 847899, Note_on_c, 12, 76, 0
30, 847920, Note_on_c, 12, 79, 80
30, 847920, Note_on_c, 12, 76, 80
30, 848019, Note_on_c, 12, 79, 0
30, 848019, Note_on_c, 12, 76, 0
30, 848040, Note_on_c, 12, 76, 80
30, 848040, Note_on_c, 12, 79, 80
30, 848139, Note_on_c, 12, 76, 0
30, 848139, Note_on_c, 12, 79, 0
30, 848160, Note_on_c, 12, 88, 80
30, 848259, Note_on_c, 12, 88, 0
30, 848280, Note_on_c, 12, 88, 80
30, 848379, Note_on_c, 12, 88, 0
30, 848400, Note_on_c, 12, 88, 80
30, 848499, Note_on_c, 12, 88, 0
30, 848520, Note_on_c, 12, 88, 80
30, 848619, Note_on_c, 12, 88, 0
30, 848640, Note_on_c, 12, 89, 92
30, 848739, Note_on_c, 12, 89, 0
30, 848760, Note_on_c, 12, 89, 92
30, 848859, Note_on_c, 12, 89, 0
30, 848880, Note_on_c, 12, 89, 92
30, 848979, Note_on_c, 12, 89, 0
30, 849000, Note_on_c, 12, 89, 92
30, 849099, Note_on_c, 12, 89, 0
30, 849120, Note_on_c, 12, 89, 80
30, 849219, Note_on_c, 12, 89, 0
30, 849240, Note_on_c, 12, 89, 80
30, 849339, Note_on_c, 12, 89, 0
30, 849360, Note_on_c, 12, 89, 80
30, 849459, Note_on_c, 12, 89, 0
30, 849480, Note_on_c, 12, 89, 80
30, 849579, Note_on_c, 12, 89, 0
30, 849600, Note_on_c, 12, 88, 80
30, 849699, Note_on_c, 12, 88, 0
30, 849720, Note_on_c, 12, 88, 80
30, 849819, Note_on_c, 12, 88, 0
30, 849840, Note_on_c, 12, 88, 80
30, 849939, Note_on_c, 12, 88, 0
30, 849960, Note_on_c, 12, 88, 80
30, 850059, Note_on_c, 12, 88, 0
30, 850080, Note_on_c, 12, 88, 80
30, 850179, Note_on_c, 12, 88, 0
30, 850200, Note_on_c, 12, 88, 80
30, 850299, Note_on_c, 12, 88, 0
30, 850320, Note_on_c, 12, 88, 80
30, 850419, Note_on_c, 12, 88, 0
30, 850440, Note_on_c, 12, 88, 80
30, 850539, Note_on_c, 12, 88, 0
30, 850560, Note_on_c, 12, 90, 92
30, 850659, Note_on_c, 12, 90, 0
30, 850680, Note_on_c, 12, 90, 92
30, 850779, Note_on_c, 12, 90, 0
30, 850800, Note_on_c, 12, 90, 92
30, 850899, Note_on_c, 12, 90, 0
30, 850920, Note_on_c, 12, 90, 92
30, 851019, Note_on_c, 12, 90, 0
30, 851040, Note_on_c, 12, 91, 92
30, 851139, Note_on_c, 12, 91, 0
30, 851160, Note_on_c, 12, 91, 92
30, 851259, Note_on_c, 12, 91, 0
30, 851280, Note_on_c, 12, 91, 92
30, 851379, Note_on_c, 12, 91, 0
30, 851400, Note_on_c, 12, 91, 92
30, 851499, Note_on_c, 12, 91, 0
30, 851520, Note_on_c, 12, 91, 92
30, 851619, Note_on_c, 12, 91, 0
30, 851640, Note_on_c, 12, 91, 92
30, 851739, Note_on_c, 12, 91, 0
30, 851760, Note_on_c, 12, 91, 92
30, 851859, Note_on_c, 12, 91, 0
30, 851880, Note_on_c, 12, 91, 92
30, 851979, Note_on_c, 12, 91, 0
30, 852000, Note_on_c, 12, 91, 92
30, 852099, Note_on_c, 12, 91, 0
30, 852120, Note_on_c, 12, 91, 92
30, 852219, Note_on_c, 12, 91, 0
30, 852240, Note_on_c, 12, 91, 92
30, 852339, Note_on_c, 12, 91, 0
30, 852360, Note_on_c, 12, 91, 92
30, 852459, Note_on_c, 12, 91, 0
30, 852480, Note_on_c, 12, 91, 92
30, 852579, Note_on_c, 12, 91, 0
30, 852600, Note_on_c, 12, 91, 92
30, 852699, Note_on_c, 12, 91, 0
30, 852720, Note_on_c, 12, 91, 92
30, 852819, Note_on_c, 12, 91, 0
30, 852840, Note_on_c, 12, 91, 92
30, 852939, Note_on_c, 12, 91, 0
30, 852960, Note_on_c, 12, 91, 92
30, 853059, Note_on_c, 12, 91, 0
30, 853080, Note_on_c, 12, 91, 92
30, 853179, Note_on_c, 12, 91, 0
30, 853200, Note_on_c, 12, 91, 92
30, 853299, Note_on_c, 12, 91, 0
30, 853320, Note_on_c, 12, 91, 92
30, 853419, Note_on_c, 12, 91, 0
30, 853440, Note_on_c, 12, 90, 92
30, 853539, Note_on_c, 12, 90, 0
30, 853560, Note_on_c, 12, 90, 92
30, 853659, Note_on_c, 12, 90, 0
30, 853680, Note_on_c, 12, 90, 92
30, 853779, Note_on_c, 12, 90, 0
30, 853800, Note_on_c, 12, 90, 92
30, 853899, Note_on_c, 12, 90, 0
30, 853920, Note_on_c, 12, 88, 92
30, 854019, Note_on_c, 12, 88, 0
30, 854040, Note_on_c, 12, 88, 92
30, 854139, Note_on_c, 12, 88, 0
30, 854160, Note_on_c, 12, 88, 92
30, 854259, Note_on_c, 12, 88, 0
30, 854280, Note_on_c, 12, 88, 92
30, 854379, Note_on_c, 12, 88, 0
30, 854400, Note_on_c, 12, 90, 92
30, 854499, Note_on_c, 12, 90, 0
30, 854520, Note_on_c, 12, 90, 92
30, 854619, Note_on_c, 12, 90, 0
30, 854640, Note_on_c, 12, 90, 92
30, 854739, Note_on_c, 12, 90, 0
30, 854760, Note_on_c, 12, 90, 92
30, 854859, Note_on_c, 12, 90, 0
30, 854880, Note_on_c, 12, 91, 92
30, 854979, Note_on_c, 12, 91, 0
30, 855000, Note_on_c, 12, 91, 92
30, 855099, Note_on_c, 12, 91, 0
30, 855120, Note_on_c, 12, 91, 92
30, 855219, Note_on_c, 12, 91, 0
30, 855240, Note_on_c, 12, 91, 92
30, 855339, Note_on_c, 12, 91, 0
30, 855360, Note_on_c, 12, 91, 92
30, 855459, Note_on_c, 12, 91, 0
30, 855480, Note_on_c, 12, 91, 92
30, 855579, Note_on_c, 12, 91, 0
30, 855600, Note_on_c, 12, 91, 92
30, 855699, Note_on_c, 12, 91, 0
30, 855720, Note_on_c, 12, 91, 92
30, 855819, Note_on_c, 12, 91, 0
30, 855840, Note_on_c, 12, 91, 92
30, 855939, Note_on_c, 12, 91, 0
30, 855960, Note_on_c, 12, 91, 92
30, 856059, Note_on_c, 12, 91, 0
30, 856080, Note_on_c, 12, 91, 92
30, 856179, Note_on_c, 12, 91, 0
30, 856200, Note_on_c, 12, 91, 92
30, 856299, Note_on_c, 12, 91, 0
30, 856320, Note_on_c, 12, 91, 92
30, 856419, Note_on_c, 12, 91, 0
30, 856440, Note_on_c, 12, 91, 92
30, 856539, Note_on_c, 12, 91, 0
30, 856560, Note_on_c, 12, 91, 92
30, 856659, Note_on_c, 12, 91, 0
30, 856680, Note_on_c, 12, 91, 92
30, 856779, Note_on_c, 12, 91, 0
30, 856800, Note_on_c, 12, 91, 92
30, 856899, Note_on_c, 12, 91, 0
30, 856920, Note_on_c, 12, 91, 92
30, 857019, Note_on_c, 12, 91, 0
30, 857040, Note_on_c, 12, 91, 92
30, 857139, Note_on_c, 12, 91, 0
30, 857160, Note_on_c, 12, 91, 92
30, 857259, Note_on_c, 12, 91, 0
30, 857280, Note_on_c, 12, 90, 92
30, 857379, Note_on_c, 12, 90, 0
30, 857400, Note_on_c, 12, 90, 92
30, 857499, Note_on_c, 12, 90, 0
30, 857520, Note_on_c, 12, 90, 92
30, 857619, Note_on_c, 12, 90, 0
30, 857640, Note_on_c, 12, 90, 92
30, 857739, Note_on_c, 12, 90, 0
30, 857760, Note_on_c, 12, 88, 92
30, 857859, Note_on_c, 12, 88, 0
30, 857880, Note_on_c, 12, 88, 92
30, 857979, Note_on_c, 12, 88, 0
30, 858000, Note_on_c, 12, 88, 92
30, 858099, Note_on_c, 12, 88, 0
30, 858120, Note_on_c, 12, 88, 92
30, 858219, Note_on_c, 12, 88, 0
30, 858240, Note_on_c, 12, 86, 80
30, 858339, Note_on_c, 12, 86, 0
30, 858360, Note_on_c, 12, 74, 80
30, 858459, Note_on_c, 12, 74, 0
30, 858480, Note_on_c, 12, 76, 80
30, 858579, Note_on_c, 12, 76, 0
30, 858600, Note_on_c, 12, 78, 80
30, 858699, Note_on_c, 12, 78, 0
30, 858720, Note_on_c, 12, 78, 80
30, 858819, Note_on_c, 12, 78, 0
30, 858840, Note_on_c, 12, 78, 80
30, 858939, Note_on_c, 12, 78, 0
30, 858960, Note_on_c, 12, 79, 80
30, 859059, Note_on_c, 12, 79, 0
30, 859080, Note_on_c, 12, 81, 80
30, 859179, Note_on_c, 12, 81, 0
30, 859200, Note_on_c, 12, 83, 80
30, 859299, Note_on_c, 12, 83, 0
30, 859320, Note_on_c, 12, 83, 80
30, 859419, Note_on_c, 12, 83, 0
30, 859440, Note_on_c, 12, 84, 80
30, 859539, Note_on_c, 12, 84, 0
30, 859560, Note_on_c, 12, 86, 80
30, 859659, Note_on_c, 12, 86, 0
30, 859680, Note_on_c, 12, 86, 80
30, 859779, Note_on_c, 12, 86, 0
30, 859800, Note_on_c, 12, 86, 80
30, 859899, Note_on_c, 12, 86, 0
30, 859920, Note_on_c, 12, 88, 80
30, 860019, Note_on_c, 12, 88, 0
30, 860040, Note_on_c, 12, 90, 80
30, 860139, Note_on_c, 12, 90, 0
30, 860160, Note_on_c, 12, 91, 80
30, 860259, Note_on_c, 12, 91, 0
30, 860280, Note_on_c, 12, 91, 80
30, 860379, Note_on_c, 12, 91, 0
30, 860400, Note_on_c, 12, 69, 80
30, 860499, Note_on_c, 12, 69, 0
30, 860520, Note_on_c, 12, 71, 80
30, 860619, Note_on_c, 12, 71, 0
30, 860640, Note_on_c, 12, 64, 80
30, 860739, Note_on_c, 12, 64, 0
30, 860760, Note_on_c, 12, 76, 80
30, 860859, Note_on_c, 12, 76, 0
30, 860880, Note_on_c, 12, 78, 80
30, 860979, Note_on_c, 12, 78, 0
30, 861000, Note_on_c, 12, 79, 80
30, 861099, Note_on_c, 12, 79, 0
30, 861120, Note_on_c, 12, 81, 92
30, 861219, Note_on_c, 12, 81, 0
30, 861240, Note_on_c, 12, 83, 92
30, 861339, Note_on_c, 12, 83, 0
30, 861360, Note_on_c, 12, 85, 92
30, 861459, Note_on_c, 12, 85, 0
30, 861480, Note_on_c, 12, 86, 92
30, 861579, Note_on_c, 12, 86, 0
30, 861600, Note_on_c, 12, 88, 92
30, 861699, Note_on_c, 12, 88, 0
30, 861720, Note_on_c, 12, 90, 92
30, 861819, Note_on_c, 12, 90, 0
30, 861840, Note_on_c, 12, 91, 92
30, 861939, Note_on_c, 12, 91, 0
30, 861960, Note_on_c, 12, 93, 92
30, 862059, Note_on_c, 12, 93, 0
30, 862080, Note_on_c, 12, 93, 92
30, 862179, Note_on_c, 12, 93, 0
30, 862200, Note_on_c, 12, 69, 92
30, 862299, Note_on_c, 12, 69, 0
30, 862320, Note_on_c, 12, 71, 92
30, 862419, Note_on_c, 12, 71, 0
30, 862440, Note_on_c, 12, 73, 92
30, 862539, Note_on_c, 12, 73, 0
30, 862560, Note_on_c, 12, 74, 92
30, 862659, Note_on_c, 12, 74, 0
30, 862680, Note_on_c, 12, 76, 92
30, 862779, Note_on_c, 12, 76, 0
30, 862800, Note_on_c, 12, 78, 92
30, 862899, Note_on_c, 12, 78, 0
30, 862920, Note_on_c, 12, 74, 92
30, 863019, Note_on_c, 12, 74, 0
30, 863040, Note_on_c, 12, 81, 92
30, 863139, Note_on_c, 12, 81, 0
30, 863160, Note_on_c, 12, 83, 92
30, 863259, Note_on_c, 12, 83, 0
30, 863280, Note_on_c, 12, 85, 92
30, 863379, Note_on_c, 12, 85, 0
30, 863400, Note_on_c, 12, 86, 92
30, 863499, Note_on_c, 12, 86, 0
30, 863520, Note_on_c, 12, 88, 92
30, 863619, Note_on_c, 12, 88, 0
30, 863640, Note_on_c, 12, 90, 92
30, 863739, Note_on_c, 12, 90, 0
30, 863760, Note_on_c, 12, 91, 92
30, 863859, Note_on_c, 12, 91, 0
30, 863880, Note_on_c, 12, 93, 92
30, 863979, Note_on_c, 12, 93, 0
30, 864000, Note_on_c, 12, 93, 92
30, 864099, Note_on_c, 12, 93, 0
30, 864120, Note_on_c, 12, 69, 92
30, 864219, Note_on_c, 12, 69, 0
30, 864240, Note_on_c, 12, 71, 92
30, 864339, Note_on_c, 12, 71, 0
30, 864360, Note_on_c, 12, 73, 92
30, 864459, Note_on_c, 12, 73, 0
30, 864480, Note_on_c, 12, 74, 92
30, 864579, Note_on_c, 12, 74, 0
30, 864600, Note_on_c, 12, 76, 92
30, 864699, Note_on_c, 12, 76, 0
30, 864720, Note_on_c, 12, 78, 92
30, 864819, Note_on_c, 12, 78, 0
30, 864840, Note_on_c, 12, 74, 92
30, 864939, Note_on_c, 12, 74, 0
30, 864960, Note_on_c, 12, 81, 92
30, 865059, Note_on_c, 12, 81, 0
30, 865080, Note_on_c, 12, 73, 92
30, 865179, Note_on_c, 12, 73, 0
30, 865200, Note_on_c, 12, 74, 92
30, 865299, Note_on_c, 12, 74, 0
30, 865320, Note_on_c, 12, 76, 92
30, 865419, Note_on_c, 12, 76, 0
30, 865440, Note_on_c, 12, 81, 92
30, 865539, Note_on_c, 12, 81, 0
30, 865560, Note_on_c, 12, 74, 92
30, 865659, Note_on_c, 12, 74, 0
30, 865680, Note_on_c, 12, 76, 92
30, 865779, Note_on_c, 12, 76, 0
30, 865800, Note_on_c, 12, 78, 92
30, 865899, Note_on_c, 12, 78, 0
30, 865920, Note_on_c, 12, 81, 92
30, 866019, Note_on_c, 12, 81, 0
30, 866040, Note_on_c, 12, 75, 92
30, 866139, Note_on_c, 12, 75, 0
30, 866160, Note_on_c, 12, 76, 92
30, 866259, Note_on_c, 12, 76, 0
30, 866280, Note_on_c, 12, 78, 92
30, 866379, Note_on_c, 12, 78, 0
30, 866400, Note_on_c, 12, 79, 92
30, 866499, Note_on_c, 12, 79, 0
30, 866520, Note_on_c, 12, 81, 92
30, 866619, Note_on_c, 12, 81, 0
30, 866640, Note_on_c, 12, 83, 92
30, 866739, Note_on_c, 12, 83, 0
30, 866760, Note_on_c, 12, 85, 92
30, 866859, Note_on_c, 12, 85, 0
30, 866880, Note_on_c, 12, 86, 92
30, 866979, Note_on_c, 12, 86, 0
30, 867000, Note_on_c, 12, 88, 92
30, 867099, Note_on_c, 12, 88, 0
30, 867120, Note_on_c, 12, 90, 92
30, 867219, Note_on_c, 12, 90, 0
30, 867240, Note_on_c, 12, 91, 92
30, 867339, Note_on_c, 12, 91, 0
30, 867360, Note_on_c, 12, 93, 92
30, 867459, Note_on_c, 12, 93, 0
30, 867480, Note_on_c, 12, 62, 92
30, 867579, Note_on_c, 12, 62, 0
30, 867600, Note_on_c, 12, 76, 92
30, 867699, Note_on_c, 12, 76, 0
30, 867720, Note_on_c, 12, 78, 92
30, 867819, Note_on_c, 12, 78, 0
30, 867840, Note_on_c, 12, 81, 92
30, 867939, Note_on_c, 12, 81, 0
30, 867960, Note_on_c, 12, 73, 92
30, 868059, Note_on_c, 12, 73, 0
30, 868080, Note_on_c, 12, 74, 92
30, 868179, Note_on_c, 12, 74, 0
30, 868200, Note_on_c, 12, 76, 92
30, 868299, Note_on_c, 12, 76, 0
30, 868320, Note_on_c, 12, 81, 92
30, 868419, Note_on_c, 12, 81, 0
30, 868440, Note_on_c, 12, 74, 92
30, 868539, Note_on_c, 12, 74, 0
30, 868560, Note_on_c, 12, 76, 92
30, 868659, Note_on_c, 12, 76, 0
30, 868680, Note_on_c, 12, 78, 92
30, 868779, Note_on_c, 12, 78, 0
30, 868800, Note_on_c, 12, 81, 92
30, 868899, Note_on_c, 12, 81, 0
30, 868920, Note_on_c, 12, 75, 92
30, 869019, Note_on_c, 12, 75, 0
30, 869040, Note_on_c, 12, 76, 92
30, 869139, Note_on_c, 12, 76, 0
30, 869160, Note_on_c, 12, 78, 92
30, 869259, Note_on_c, 12, 78, 0
30, 869280, Note_on_c, 12, 79, 92
30, 869379, Note_on_c, 12, 79, 0
30, 869400, Note_on_c, 12, 81, 92
30, 869499, Note_on_c, 12, 81, 0
30, 869520, Note_on_c, 12, 83, 92
30, 869619, Note_on_c, 12, 83, 0
30, 869640, Note_on_c, 12, 85, 92
30, 869739, Note_on_c, 12, 85, 0
30, 869760, Note_on_c, 12, 86, 92
30, 869859, Note_on_c, 12, 86, 0
30, 869880, Note_on_c, 12, 88, 92
30, 869979, Note_on_c, 12, 88, 0
30, 870000, Note_on_c, 12, 90, 92
30, 870099, Note_on_c, 12, 90, 0
30, 870120, Note_on_c, 12, 91, 92
30, 870219, Note_on_c, 12, 91, 0
30, 870240, Note_on_c, 12, 91, 92
30, 870339, Note_on_c, 12, 91, 0
30, 870360, Note_on_c, 12, 91, 92
30, 870459, Note_on_c, 12, 91, 0
30, 870480, Note_on_c, 12, 91, 92
30, 870579, Note_on_c, 12, 91, 0
30, 870600, Note_on_c, 12, 91, 92
30, 870699, Note_on_c, 12, 91, 0
30, 870720, Note_on_c, 12, 91, 92
30, 870959, Note_on_c, 12, 91, 0
30, 871620, Note_on_c, 12, 76, 44
30, 871679, Note_on_c, 12, 76, 0
30, 871680, Note_on_c, 12, 88, 44
30, 871949, Note_on_c, 12, 88, 0
30, 871950, Note_on_c, 12, 86, 64
30, 871969, Note_on_c, 12, 86, 0
30, 871980, Note_on_c, 12, 85, 66
30, 871999, Note_on_c, 12, 85, 0
30, 872010, Note_on_c, 12, 83, 68
30, 872029, Note_on_c, 12, 83, 0
30, 872040, Note_on_c, 12, 81, 71
30, 872059, Note_on_c, 12, 81, 0
30, 872070, Note_on_c, 12, 79, 73
30, 872089, Note_on_c, 12, 79, 0
30, 872100, Note_on_c, 12, 78, 75
30, 872119, Note_on_c, 12, 78, 0
30, 872130, Note_on_c, 12, 76, 77
30, 872149, Note_on_c, 12, 76, 0
30, 872160, Note_on_c, 12, 78, 80
30, 872179, Note_on_c, 12, 78, 0
30, 872190, Note_on_c, 12, 76, 80
30, 872209, Note_on_c, 12, 76, 0
30, 872220, Note_on_c, 12, 74, 80
30, 872239, Note_on_c, 12, 74, 0
30, 872250, Note_on_c, 12, 73, 80
30, 872269, Note_on_c, 12, 73, 0
30, 872280, Note_on_c, 12, 71, 80
30, 872299, Note_on_c, 12, 71, 0
30, 872310, Note_on_c, 12, 69, 80
30, 872329, Note_on_c, 12, 69, 0
30, 872340, Note_on_c, 12, 67, 80
30, 872359, Note_on_c, 12, 67, 0
30, 872370, Note_on_c, 12, 66, 80
30, 872389, Note_on_c, 12, 66, 0
30, 872400, Note_on_c, 12, 83, 80
30, 872419, Note_on_c, 12, 83, 0
30, 872430, Note_on_c, 12, 81, 80
30, 872449, Note_on_c, 12, 81, 0
30, 872460, Note_on_c, 12, 79, 80
30, 872479, Note_on_c, 12, 79, 0
30, 872490, Note_on_c, 12, 78, 80
30, 872509, Note_on_c, 12, 78, 0
30, 872520, Note_on_c, 12, 76, 80
30, 872539, Note_on_c, 12, 76, 0
30, 872550, Note_on_c, 12, 74, 80
30, 872569, Note_on_c, 12, 74, 0
30, 872580, Note_on_c, 12, 73, 80
30, 872599, Note_on_c, 12, 73, 0
30, 872610, Note_on_c, 12, 71, 80
30, 872629, Note_on_c, 12, 71, 0
30, 872640, Note_on_c, 12, 79, 80
30, 872659, Note_on_c, 12, 79, 0
30, 872670, Note_on_c, 12, 78, 80
30, 872689, Note_on_c, 12, 78, 0
30, 872700, Note_on_c, 12, 76, 80
30, 872719, Note_on_c, 12, 76, 0
30, 872730, Note_on_c, 12, 74, 80
30, 872749, Note_on_c, 12, 74, 0
30, 872760, Note_on_c, 12, 73, 80
30, 872779, Note_on_c, 12, 73, 0
30, 872790, Note_on_c, 12, 71, 80
30, 872809, Note_on_c, 12, 71, 0
30, 872820, Note_on_c, 12, 69, 80
30, 872839, Note_on_c, 12, 69, 0
30, 872850, Note_on_c, 12, 79, 80
30, 872869, Note_on_c, 12, 79, 0
30, 872880, Note_on_c, 12, 79, 92
30, 872899, Note_on_c, 12, 79, 0
30, 872910, Note_on_c, 12, 78, 92
30, 872929, Note_on_c, 12, 78, 0
30, 872940, Note_on_c, 12, 79, 92
30, 872959, Note_on_c, 12, 79, 0
30, 872970, Note_on_c, 12, 81, 92
30, 872989, Note_on_c, 12, 81, 0
30, 873000, Note_on_c, 12, 83, 92
30, 873019, Note_on_c, 12, 83, 0
30, 873030, Note_on_c, 12, 81, 92
30, 873049, Note_on_c, 12, 81, 0
30, 873060, Note_on_c, 12, 83, 92
30, 873079, Note_on_c, 12, 83, 0
30, 873090, Note_on_c, 12, 85, 92
30, 873109, Note_on_c, 12, 85, 0
30, 873120, Note_on_c, 12, 86, 92
30, 873139, Note_on_c, 12, 86, 0
30, 873150, Note_on_c, 12, 85, 92
30, 873169, Note_on_c, 12, 85, 0
30, 873180, Note_on_c, 12, 86, 92
30, 873199, Note_on_c, 12, 86, 0
30, 873210, Note_on_c, 12, 88, 92
30, 873229, Note_on_c, 12, 88, 0
30, 873240, Note_on_c, 12, 90, 92
30, 873259, Note_on_c, 12, 90, 0
30, 873270, Note_on_c, 12, 88, 92
30, 873289, Note_on_c, 12, 88, 0
30, 873300, Note_on_c, 12, 90, 92
30, 873319, Note_on_c, 12, 90, 0
30, 873330, Note_on_c, 12, 86, 92
30, 873349, Note_on_c, 12, 86, 0
30, 873360, Note_on_c, 12, 85, 92
30, 873379, Note_on_c, 12, 85, 0
30, 873390, Note_on_c, 12, 86, 92
30, 873409, Note_on_c, 12, 86, 0
30, 873420, Note_on_c, 12, 88, 92
30, 873439, Note_on_c, 12, 88, 0
30, 873450, Note_on_c, 12, 81, 92
30, 873469, Note_on_c, 12, 81, 0
30, 873480, Note_on_c, 12, 83, 92
30, 873499, Note_on_c, 12, 83, 0
30, 873510, Note_on_c, 12, 81, 92
30, 873529, Note_on_c, 12, 81, 0
30, 873540, Note_on_c, 12, 83, 92
30, 873559, Note_on_c, 12, 83, 0
30, 873570, Note_on_c, 12, 85, 92
30, 873589, Note_on_c, 12, 85, 0
30, 873600, Note_on_c, 12, 86, 92
30, 873699, Note_on_c, 12, 86, 0
30, 873720, Note_on_c, 12, 78, 92
30, 873819, Note_on_c, 12, 78, 0
30, 873840, Note_on_c, 12, 79, 92
30, 873939, Note_on_c, 12, 79, 0
30, 873960, Note_on_c, 12, 81, 92
30, 874059, Note_on_c, 12, 81, 0
30, 874080, Note_on_c, 12, 81, 92
30, 874179, Note_on_c, 12, 81, 0
30, 874200, Note_on_c, 12, 79, 92
30, 874299, Note_on_c, 12, 79, 0
30, 874320, Note_on_c, 12, 78, 92
30, 874419, Note_on_c, 12, 78, 0
30, 874440, Note_on_c, 12, 76, 92
30, 874539, Note_on_c, 12, 76, 0
30, 874558, Control_c, 12, 10, 48
30, 874560, Note_on_c, 12, 78, 92
30, 874659, Note_on_c, 12, 78, 0
30, 874680, Note_on_c, 12, 78, 92
30, 874779, Note_on_c, 12, 78, 0
30, 874800, Note_on_c, 12, 79, 92
30, 874899, Note_on_c, 12, 79, 0
30, 874920, Note_on_c, 12, 81, 92
30, 875019, Note_on_c, 12, 81, 0
30, 875040, Note_on_c, 12, 81, 92
30, 875139, Note_on_c, 12, 81, 0
30, 875160, Note_on_c, 12, 79, 92
30, 875259, Note_on_c, 12, 79, 0
30, 875280, Note_on_c, 12, 78, 92
30, 875379, Note_on_c, 12, 78, 0
30, 875400, Note_on_c, 12, 76, 92
30, 875499, Note_on_c, 12, 76, 0
30, 875520, Note_on_c, 12, 78, 92
30, 875619, Note_on_c, 12, 78, 0
30, 875640, Note_on_c, 12, 78, 92
30, 875739, Note_on_c, 12, 78, 0
30, 875760, Note_on_c, 12, 79, 92
30, 875859, Note_on_c, 12, 79, 0
30, 875880, Note_on_c, 12, 81, 92
30, 875979, Note_on_c, 12, 81, 0
30, 876000, Note_on_c, 12, 81, 92
30, 876099, Note_on_c, 12, 81, 0
30, 876120, Note_on_c, 12, 79, 92
30, 876219, Note_on_c, 12, 79, 0
30, 876240, Note_on_c, 12, 78, 92
30, 876339, Note_on_c, 12, 78, 0
30, 876360, Note_on_c, 12, 76, 92
30, 876459, Note_on_c, 12, 76, 0
30, 876480, Note_on_c, 12, 78, 92
30, 876579, Note_on_c, 12, 78, 0
30, 876600, Note_on_c, 12, 78, 92
30, 876699, Note_on_c, 12, 78, 0
30, 876720, Note_on_c, 12, 79, 92
30, 876819, Note_on_c, 12, 79, 0
30, 876840, Note_on_c, 12, 81, 92
30, 876939, Note_on_c, 12, 81, 0
30, 876960, Note_on_c, 12, 81, 92
30, 877059, Note_on_c, 12, 81, 0
30, 877080, Note_on_c, 12, 79, 92
30, 877179, Note_on_c, 12, 79, 0
30, 877200, Note_on_c, 12, 78, 92
30, 877299, Note_on_c, 12, 78, 0
30, 877320, Note_on_c, 12, 76, 92
30, 877419, Note_on_c, 12, 76, 0
30, 877440, Note_on_c, 12, 78, 92
30, 877539, Note_on_c, 12, 78, 0
30, 877560, Note_on_c, 12, 78, 92
30, 877659, Note_on_c, 12, 78, 0
30, 877680, Note_on_c, 12, 76, 92
30, 877779, Note_on_c, 12, 76, 0
30, 877800, Note_on_c, 12, 76, 92
30, 877899, Note_on_c, 12, 76, 0
30, 877920, Note_on_c, 12, 78, 92
30, 878019, Note_on_c, 12, 78, 0
30, 878040, Note_on_c, 12, 78, 92
30, 878139, Note_on_c, 12, 78, 0
30, 878160, Note_on_c, 12, 85, 92
30, 878259, Note_on_c, 12, 85, 0
30, 878280, Note_on_c, 12, 85, 92
30, 878379, Note_on_c, 12, 85, 0
30, 878400, Note_on_c, 12, 86, 92
30, 878499, Note_on_c, 12, 86, 0
30, 878520, Note_on_c, 12, 86, 92
30, 878619, Note_on_c, 12, 86, 0
30, 878640, Note_on_c, 12, 85, 92
30, 878739, Note_on_c, 12, 85, 0
30, 878760, Note_on_c, 12, 85, 92
30, 878859, Note_on_c, 12, 85, 0
30, 878880, Note_on_c, 12, 86, 92
30, 878979, Note_on_c, 12, 86, 0
30, 879000, Note_on_c, 12, 86, 92
30, 879099, Note_on_c, 12, 86, 0
30, 879120, Note_on_c, 12, 88, 92
30, 879219, Note_on_c, 12, 88, 0
30, 879240, Note_on_c, 12, 88, 92
30, 879339, Note_on_c, 12, 88, 0
30, 879360, Note_on_c, 12, 90, 92
30, 879459, Note_on_c, 12, 90, 0
30, 879480, Note_on_c, 12, 90, 92
30, 879579, Note_on_c, 12, 90, 0
30, 879600, Note_on_c, 12, 88, 92
30, 879699, Note_on_c, 12, 88, 0
30, 879720, Note_on_c, 12, 88, 92
30, 879819, Note_on_c, 12, 88, 0
30, 879840, Note_on_c, 12, 90, 92
30, 879939, Note_on_c, 12, 90, 0
30, 879960, Note_on_c, 12, 90, 92
30, 880059, Note_on_c, 12, 90, 0
30, 880080, Note_on_c, 12, 91, 92
30, 880179, Note_on_c, 12, 91, 0
30, 880200, Note_on_c, 12, 91, 92
30, 880299, Note_on_c, 12, 91, 0
30, 880320, Note_on_c, 12, 91, 92
30, 880419, Note_on_c, 12, 91, 0
30, 880440, Note_on_c, 12, 91, 92
30, 880539, Note_on_c, 12, 91, 0
30, 880560, Note_on_c, 12, 90, 92
30, 880659, Note_on_c, 12, 90, 0
30, 880680, Note_on_c, 12, 90, 92
30, 880779, Note_on_c, 12, 90, 0
30, 880800, Note_on_c, 12, 91, 92
30, 880899, Note_on_c, 12, 91, 0
30, 880920, Note_on_c, 12, 91, 92
30, 881019, Note_on_c, 12, 91, 0
30, 881040, Note_on_c, 12, 93, 92
30, 881139, Note_on_c, 12, 93, 0
30, 881160, Note_on_c, 12, 93, 92
30, 881259, Note_on_c, 12, 93, 0
30, 881280, Note_on_c, 12, 93, 92
30, 881519, Note_on_c, 12, 93, 0
30, 881520, Note_on_c, 12, 69, 80
30, 881639, Note_on_c, 12, 69, 0
30, 881760, Note_on_c, 12, 93, 80
30, 881999, Note_on_c, 12, 93, 0
30, 882000, Note_on_c, 12, 69, 80
30, 882119, Note_on_c, 12, 69, 0
30, 882240, Note_on_c, 12, 93, 80
30, 882479, Note_on_c, 12, 93, 0
30, 882480, Note_on_c, 12, 69, 80
30, 882599, Note_on_c, 12, 69, 0
30, 882720, Note_on_c, 12, 93, 80
30, 882959, Note_on_c, 12, 93, 0
30, 882960, Note_on_c, 12, 69, 80
30, 883079, Note_on_c, 12, 69, 0
30, 883200, Note_on_c, 12, 93, 80
30, 883439, Note_on_c, 12, 93, 0
30, 883440, Note_on_c, 12, 69, 80
30, 883559, Note_on_c, 12, 69, 0
30, 883680, Note_on_c, 12, 93, 80
30, 883919, Note_on_c, 12, 93, 0
30, 883920, Note_on_c, 12, 69, 80
30, 884039, Note_on_c, 12, 69, 0
30, 884160, Note_on_c, 12, 93, 80
30, 884399, Note_on_c, 12, 93, 0
30, 884400, Note_on_c, 12, 69, 80
30, 884519, Note_on_c, 12, 69, 0
30, 884640, Note_on_c, 12, 93, 80
30, 884879, Note_on_c, 12, 93, 0
30, 884880, Note_on_c, 12, 69, 80
30, 884999, Note_on_c, 12, 69, 0
30, 885120, Note_on_c, 12, 93, 92
30, 885219, Note_on_c, 12, 93, 0
30, 885240, Note_on_c, 12, 93, 92
30, 885339, Note_on_c, 12, 93, 0
30, 885360, Note_on_c, 12, 69, 92
30, 885360, Note_on_c, 12, 62, 92
30, 885459, Note_on_c, 12, 69, 0
30, 885459, Note_on_c, 12, 62, 0
30, 885480, Note_on_c, 12, 62, 92
30, 885480, Note_on_c, 12, 69, 92
30, 885579, Note_on_c, 12, 62, 0
30, 885579, Note_on_c, 12, 69, 0
30, 885600, Note_on_c, 12, 93, 92
30, 885699, Note_on_c, 12, 93, 0
30, 885720, Note_on_c, 12, 93, 92
30, 885819, Note_on_c, 12, 93, 0
30, 885840, Note_on_c, 12, 62, 92
30, 885840, Note_on_c, 12, 69, 92
30, 885939, Note_on_c, 12, 62, 0
30, 885939, Note_on_c, 12, 69, 0
30, 885960, Note_on_c, 12, 62, 92
30, 885960, Note_on_c, 12, 69, 92
30, 886059, Note_on_c, 12, 62, 0
30, 886059, Note_on_c, 12, 69, 0
30, 886080, Note_on_c, 12, 93, 92
30, 886179, Note_on_c, 12, 93, 0
30, 886200, Note_on_c, 12, 93, 92
30, 886299, Note_on_c, 12, 93, 0
30, 886320, Note_on_c, 12, 69, 92
30, 886320, Note_on_c, 12, 62, 92
30, 886419, Note_on_c, 12, 69, 0
30, 886419, Note_on_c, 12, 62, 0
30, 886440, Note_on_c, 12, 69, 92
30, 886440, Note_on_c, 12, 62, 92
30, 886539, Note_on_c, 12, 69, 0
30, 886539, Note_on_c, 12, 62, 0
30, 886560, Note_on_c, 12, 93, 92
30, 886659, Note_on_c, 12, 93, 0
30, 886680, Note_on_c, 12, 93, 92
30, 886779, Note_on_c, 12, 93, 0
30, 886800, Note_on_c, 12, 62, 92
30, 886800, Note_on_c, 12, 69, 92
30, 886899, Note_on_c, 12, 62, 0
30, 886899, Note_on_c, 12, 69, 0
30, 886920, Note_on_c, 12, 69, 92
30, 886920, Note_on_c, 12, 62, 92
30, 887019, Note_on_c, 12, 69, 0
30, 887019, Note_on_c, 12, 62, 0
30, 887040, Note_on_c, 12, 93, 92
30, 887139, Note_on_c, 12, 93, 0
30, 887160, Note_on_c, 12, 93, 92
30, 887259, Note_on_c, 12, 93, 0
30, 887280, Note_on_c, 12, 62, 92
30, 887280, Note_on_c, 12, 69, 92
30, 887379, Note_on_c, 12, 62, 0
30, 887379, Note_on_c, 12, 69, 0
30, 887400, Note_on_c, 12, 62, 92
30, 887400, Note_on_c, 12, 69, 92
30, 887499, Note_on_c, 12, 62, 0
30, 887499, Note_on_c, 12, 69, 0
30, 887520, Note_on_c, 12, 93, 92
30, 887619, Note_on_c, 12, 93, 0
30, 887640, Note_on_c, 12, 93, 92
30, 887739, Note_on_c, 12, 93, 0
30, 887760, Note_on_c, 12, 62, 92
30, 887760, Note_on_c, 12, 69, 92
30, 887859, Note_on_c, 12, 62, 0
30, 887859, Note_on_c, 12, 69, 0
30, 887880, Note_on_c, 12, 69, 92
30, 887880, Note_on_c, 12, 62, 92
30, 887979, Note_on_c, 12, 69, 0
30, 887979, Note_on_c, 12, 62, 0
30, 888000, Note_on_c, 12, 93, 92
30, 888099, Note_on_c, 12, 93, 0
30, 888120, Note_on_c, 12, 93, 92
30, 888219, Note_on_c, 12, 93, 0
30, 888240, Note_on_c, 12, 62, 92
30, 888240, Note_on_c, 12, 69, 92
30, 888339, Note_on_c, 12, 62, 0
30, 888339, Note_on_c, 12, 69, 0
30, 888360, Note_on_c, 12, 69, 92
30, 888360, Note_on_c, 12, 62, 92
30, 888459, Note_on_c, 12, 69, 0
30, 888459, Note_on_c, 12, 62, 0
30, 888480, Note_on_c, 12, 93, 92
30, 888579, Note_on_c, 12, 93, 0
30, 888600, Note_on_c, 12, 93, 92
30, 888699, Note_on_c, 12, 93, 0
30, 888720, Note_on_c, 12, 62, 92
30, 888720, Note_on_c, 12, 69, 92
30, 888819, Note_on_c, 12, 62, 0
30, 888819, Note_on_c, 12, 69, 0
30, 888840, Note_on_c, 12, 62, 92
30, 888840, Note_on_c, 12, 69, 92
30, 888939, Note_on_c, 12, 62, 0
30, 888939, Note_on_c, 12, 69, 0
30, 888960, Note_on_c, 12, 69, 92
30, 888960, Note_on_c, 12, 62, 92
30, 888960, Note_on_c, 12, 93, 92
30, 889199, Note_on_c, 12, 69, 0
30, 889199, Note_on_c, 12, 62, 0
30, 889199, Note_on_c, 12, 93, 0
30, 890880, Note_on_c, 12, 74, 92
30, 890880, Note_on_c, 12, 86, 92
30, 890880, Note_on_c, 12, 62, 92
30, 891119, Note_on_c, 12, 74, 0
30, 891119, Note_on_c, 12, 86, 0
30, 891119, Note_on_c, 12, 62, 0
30, 891840, Note_on_c, 12, 62, 92
30, 891840, Note_on_c, 12, 86, 92
30, 891840, Note_on_c, 12, 74, 92
30, 892079, Note_on_c, 12, 62, 0
30, 892079, Note_on_c, 12, 86, 0
30, 892079, Note_on_c, 12, 74, 0
30, 892800, Note_on_c, 12, 74, 92
30, 892800, Note_on_c, 12, 62, 92
30, 892800, Note_on_c, 12, 86, 92
30, 893039, Note_on_c, 12, 74, 0
30, 893039, Note_on_c, 12, 62, 0
30, 893039, Note_on_c, 12, 86, 0
30, 893039, End_track
31, 0, Start_track
31, 0, Title_t, "Violin II"
31, 0, MIDI_port, 0
31, 0, Control_c, 13, 121, 0
31, 0, Program_c, 13, 48
31, 0, Control_c, 13, 7, 96
31, 0, Control_c, 13, 11, 127
31, 0, Control_c, 13, 10, 24
31, 21120, Note_on_c, 13, 64, 32
31, 21120, Note_on_c, 13, 57, 32
31, 21153, Note_on_c, 13, 64, 0
31, 21153, Note_on_c, 13, 57, 0
31, 21160, Note_on_c, 13, 57, 32
31, 21160, Note_on_c, 13, 64, 32
31, 21193, Note_on_c, 13, 57, 0
31, 21193, Note_on_c, 13, 64, 0
31, 21200, Note_on_c, 13, 57, 32
31, 21200, Note_on_c, 13, 64, 32
31, 21233, Note_on_c, 13, 57, 0
31, 21233, Note_on_c, 13, 64, 0
31, 21240, Note_on_c, 13, 57, 32
31, 21240, Note_on_c, 13, 64, 32
31, 21273, Note_on_c, 13, 57, 0
31, 21273, Note_on_c, 13, 64, 0
31, 21280, Note_on_c, 13, 57, 32
31, 21280, Note_on_c, 13, 64, 32
31, 21313, Note_on_c, 13, 57, 0
31, 21313, Note_on_c, 13, 64, 0
31, 21320, Note_on_c, 13, 64, 32
31, 21320, Note_on_c, 13, 57, 32
31, 21353, Note_on_c, 13, 64, 0
31, 21353, Note_on_c, 13, 57, 0
31, 21360, Note_on_c, 13, 64, 32
31, 21360, Note_on_c, 13, 57, 32
31, 21393, Note_on_c, 13, 64, 0
31, 21393, Note_on_c, 13, 57, 0
31, 21400, Note_on_c, 13, 57, 32
31, 21400, Note_on_c, 13, 64, 32
31, 21433, Note_on_c, 13, 57, 0
31, 21433, Note_on_c, 13, 64, 0
31, 21440, Note_on_c, 13, 64, 32
31, 21440, Note_on_c, 13, 57, 32
31, 21473, Note_on_c, 13, 64, 0
31, 21473, Note_on_c, 13, 57, 0
31, 21480, Note_on_c, 13, 57, 32
31, 21480, Note_on_c, 13, 64, 32
31, 21513, Note_on_c, 13, 57, 0
31, 21513, Note_on_c, 13, 64, 0
31, 21520, Note_on_c, 13, 57, 32
31, 21520, Note_on_c, 13, 64, 32
31, 21553, Note_on_c, 13, 57, 0
31, 21553, Note_on_c, 13, 64, 0
31, 21560, Note_on_c, 13, 64, 32
31, 21560, Note_on_c, 13, 57, 32
31, 21593, Note_on_c, 13, 64, 0
31, 21593, Note_on_c, 13, 57, 0
31, 21600, Note_on_c, 13, 57, 32
31, 21600, Note_on_c, 13, 64, 32
31, 21633, Note_on_c, 13, 57, 0
31, 21633, Note_on_c, 13, 64, 0
31, 21640, Note_on_c, 13, 64, 32
31, 21640, Note_on_c, 13, 57, 32
31, 21673, Note_on_c, 13, 64, 0
31, 21673, Note_on_c, 13, 57, 0
31, 21680, Note_on_c, 13, 64, 32
31, 21680, Note_on_c, 13, 57, 32
31, 21713, Note_on_c, 13, 64, 0
31, 21713, Note_on_c, 13, 57, 0
31, 21720, Note_on_c, 13, 64, 32
31, 21720, Note_on_c, 13, 57, 32
31, 21753, Note_on_c, 13, 64, 0
31, 21753, Note_on_c, 13, 57, 0
31, 21760, Note_on_c, 13, 64, 32
31, 21760, Note_on_c, 13, 57, 32
31, 21793, Note_on_c, 13, 64, 0
31, 21793, Note_on_c, 13, 57, 0
31, 21800, Note_on_c, 13, 57, 32
31, 21800, Note_on_c, 13, 64, 32
31, 21833, Note_on_c, 13, 57, 0
31, 21833, Note_on_c, 13, 64, 0
31, 21840, Note_on_c, 13, 57, 32
31, 21840, Note_on_c, 13, 64, 32
31, 21873, Note_on_c, 13, 57, 0
31, 21873, Note_on_c, 13, 64, 0
31, 21880, Note_on_c, 13, 57, 32
31, 21880, Note_on_c, 13, 64, 32
31, 21913, Note_on_c, 13, 57, 0
31, 21913, Note_on_c, 13, 64, 0
31, 21920, Note_on_c, 13, 64, 32
31, 21920, Note_on_c, 13, 57, 32
31, 21953, Note_on_c, 13, 64, 0
31, 21953, Note_on_c, 13, 57, 0
31, 21960, Note_on_c, 13, 57, 32
31, 21960, Note_on_c, 13, 64, 32
31, 21993, Note_on_c, 13, 57, 0
31, 21993, Note_on_c, 13, 64, 0
31, 22000, Note_on_c, 13, 57, 32
31, 22000, Note_on_c, 13, 64, 32
31, 22033, Note_on_c, 13, 57, 0
31, 22033, Note_on_c, 13, 64, 0
31, 22040, Note_on_c, 13, 57, 32
31, 22040, Note_on_c, 13, 64, 32
31, 22073, Note_on_c, 13, 57, 0
31, 22073, Note_on_c, 13, 64, 0
31, 22080, Note_on_c, 13, 64, 32
31, 22080, Note_on_c, 13, 57, 32
31, 22113, Note_on_c, 13, 64, 0
31, 22113, Note_on_c, 13, 57, 0
31, 22120, Note_on_c, 13, 64, 32
31, 22120, Note_on_c, 13, 57, 32
31, 22153, Note_on_c, 13, 64, 0
31, 22153, Note_on_c, 13, 57, 0
31, 22160, Note_on_c, 13, 57, 32
31, 22160, Note_on_c, 13, 64, 32
31, 22193, Note_on_c, 13, 57, 0
31, 22193, Note_on_c, 13, 64, 0
31, 22200, Note_on_c, 13, 64, 32
31, 22200, Note_on_c, 13, 57, 32
31, 22233, Note_on_c, 13, 64, 0
31, 22233, Note_on_c, 13, 57, 0
31, 22240, Note_on_c, 13, 57, 32
31, 22240, Note_on_c, 13, 64, 32
31, 22273, Note_on_c, 13, 57, 0
31, 22273, Note_on_c, 13, 64, 0
31, 22280, Note_on_c, 13, 64, 32
31, 22280, Note_on_c, 13, 57, 32
31, 22313, Note_on_c, 13, 64, 0
31, 22313, Note_on_c, 13, 57, 0
31, 22320, Note_on_c, 13, 64, 32
31, 22320, Note_on_c, 13, 57, 32
31, 22353, Note_on_c, 13, 64, 0
31, 22353, Note_on_c, 13, 57, 0
31, 22360, Note_on_c, 13, 64, 32
31, 22360, Note_on_c, 13, 57, 32
31, 22393, Note_on_c, 13, 64, 0
31, 22393, Note_on_c, 13, 57, 0
31, 22400, Note_on_c, 13, 57, 32
31, 22400, Note_on_c, 13, 64, 32
31, 22433, Note_on_c, 13, 57, 0
31, 22433, Note_on_c, 13, 64, 0
31, 22440, Note_on_c, 13, 57, 32
31, 22440, Note_on_c, 13, 64, 32
31, 22473, Note_on_c, 13, 57, 0
31, 22473, Note_on_c, 13, 64, 0
31, 22480, Note_on_c, 13, 64, 32
31, 22480, Note_on_c, 13, 57, 32
31, 22513, Note_on_c, 13, 64, 0
31, 22513, Note_on_c, 13, 57, 0
31, 22520, Note_on_c, 13, 57, 32
31, 22520, Note_on_c, 13, 64, 32
31, 22553, Note_on_c, 13, 57, 0
31, 22553, Note_on_c, 13, 64, 0
31, 22560, Note_on_c, 13, 57, 32
31, 22560, Note_on_c, 13, 64, 32
31, 22593, Note_on_c, 13, 57, 0
31, 22593, Note_on_c, 13, 64, 0
31, 22600, Note_on_c, 13, 57, 32
31, 22600, Note_on_c, 13, 64, 32
31, 22633, Note_on_c, 13, 57, 0
31, 22633, Note_on_c, 13, 64, 0
31, 22640, Note_on_c, 13, 57, 32
31, 22640, Note_on_c, 13, 64, 32
31, 22673, Note_on_c, 13, 57, 0
31, 22673, Note_on_c, 13, 64, 0
31, 22680, Note_on_c, 13, 57, 32
31, 22680, Note_on_c, 13, 64, 32
31, 22713, Note_on_c, 13, 57, 0
31, 22713, Note_on_c, 13, 64, 0
31, 22720, Note_on_c, 13, 64, 32
31, 22720, Note_on_c, 13, 57, 32
31, 22753, Note_on_c, 13, 64, 0
31, 22753, Note_on_c, 13, 57, 0
31, 22760, Note_on_c, 13, 64, 32
31, 22760, Note_on_c, 13, 57, 32
31, 22793, Note_on_c, 13, 64, 0
31, 22793, Note_on_c, 13, 57, 0
31, 22800, Note_on_c, 13, 57, 32
31, 22800, Note_on_c, 13, 64, 32
31, 22833, Note_on_c, 13, 57, 0
31, 22833, Note_on_c, 13, 64, 0
31, 22840, Note_on_c, 13, 64, 32
31, 22840, Note_on_c, 13, 57, 32
31, 22873, Note_on_c, 13, 64, 0
31, 22873, Note_on_c, 13, 57, 0
31, 22880, Note_on_c, 13, 64, 32
31, 22880, Note_on_c, 13, 57, 32
31, 22913, Note_on_c, 13, 64, 0
31, 22913, Note_on_c, 13, 57, 0
31, 22920, Note_on_c, 13, 57, 32
31, 22920, Note_on_c, 13, 64, 32
31, 22953, Note_on_c, 13, 57, 0
31, 22953, Note_on_c, 13, 64, 0
31, 22960, Note_on_c, 13, 57, 32
31, 22960, Note_on_c, 13, 64, 32
31, 22993, Note_on_c, 13, 57, 0
31, 22993, Note_on_c, 13, 64, 0
31, 23000, Note_on_c, 13, 57, 32
31, 23000, Note_on_c, 13, 64, 32
31, 23033, Note_on_c, 13, 57, 0
31, 23033, Note_on_c, 13, 64, 0
31, 23040, Note_on_c, 13, 64, 32
31, 23040, Note_on_c, 13, 57, 32
31, 23073, Note_on_c, 13, 64, 0
31, 23073, Note_on_c, 13, 57, 0
31, 23080, Note_on_c, 13, 64, 32
31, 23080, Note_on_c, 13, 57, 32
31, 23113, Note_on_c, 13, 64, 0
31, 23113, Note_on_c, 13, 57, 0
31, 23120, Note_on_c, 13, 57, 32
31, 23120, Note_on_c, 13, 64, 32
31, 23153, Note_on_c, 13, 57, 0
31, 23153, Note_on_c, 13, 64, 0
31, 23160, Note_on_c, 13, 57, 32
31, 23160, Note_on_c, 13, 64, 32
31, 23193, Note_on_c, 13, 57, 0
31, 23193, Note_on_c, 13, 64, 0
31, 23200, Note_on_c, 13, 64, 32
31, 23200, Note_on_c, 13, 57, 32
31, 23233, Note_on_c, 13, 64, 0
31, 23233, Note_on_c, 13, 57, 0
31, 23240, Note_on_c, 13, 57, 32
31, 23240, Note_on_c, 13, 64, 32
31, 23273, Note_on_c, 13, 57, 0
31, 23273, Note_on_c, 13, 64, 0
31, 23280, Note_on_c, 13, 57, 32
31, 23280, Note_on_c, 13, 64, 32
31, 23313, Note_on_c, 13, 57, 0
31, 23313, Note_on_c, 13, 64, 0
31, 23320, Note_on_c, 13, 57, 32
31, 23320, Note_on_c, 13, 64, 32
31, 23353, Note_on_c, 13, 57, 0
31, 23353, Note_on_c, 13, 64, 0
31, 23360, Note_on_c, 13, 57, 32
31, 23360, Note_on_c, 13, 64, 32
31, 23393, Note_on_c, 13, 57, 0
31, 23393, Note_on_c, 13, 64, 0
31, 23400, Note_on_c, 13, 64, 32
31, 23400, Note_on_c, 13, 57, 32
31, 23433, Note_on_c, 13, 64, 0
31, 23433, Note_on_c, 13, 57, 0
31, 23440, Note_on_c, 13, 57, 32
31, 23440, Note_on_c, 13, 64, 32
31, 23473, Note_on_c, 13, 57, 0
31, 23473, Note_on_c, 13, 64, 0
31, 23480, Note_on_c, 13, 64, 32
31, 23480, Note_on_c, 13, 57, 32
31, 23513, Note_on_c, 13, 64, 0
31, 23513, Note_on_c, 13, 57, 0
31, 23520, Note_on_c, 13, 64, 32
31, 23520, Note_on_c, 13, 57, 32
31, 23553, Note_on_c, 13, 64, 0
31, 23553, Note_on_c, 13, 57, 0
31, 23560, Note_on_c, 13, 57, 32
31, 23560, Note_on_c, 13, 64, 32
31, 23593, Note_on_c, 13, 57, 0
31, 23593, Note_on_c, 13, 64, 0
31, 23600, Note_on_c, 13, 64, 32
31, 23600, Note_on_c, 13, 57, 32
31, 23633, Note_on_c, 13, 64, 0
31, 23633, Note_on_c, 13, 57, 0
31, 23640, Note_on_c, 13, 64, 32
31, 23640, Note_on_c, 13, 57, 32
31, 23673, Note_on_c, 13, 64, 0
31, 23673, Note_on_c, 13, 57, 0
31, 23680, Note_on_c, 13, 57, 32
31, 23680, Note_on_c, 13, 64, 32
31, 23713, Note_on_c, 13, 57, 0
31, 23713, Note_on_c, 13, 64, 0
31, 23720, Note_on_c, 13, 57, 32
31, 23720, Note_on_c, 13, 64, 32
31, 23753, Note_on_c, 13, 57, 0
31, 23753, Note_on_c, 13, 64, 0
31, 23760, Note_on_c, 13, 57, 32
31, 23760, Note_on_c, 13, 64, 32
31, 23793, Note_on_c, 13, 57, 0
31, 23793, Note_on_c, 13, 64, 0
31, 23800, Note_on_c, 13, 64, 32
31, 23800, Note_on_c, 13, 57, 32
31, 23833, Note_on_c, 13, 64, 0
31, 23833, Note_on_c, 13, 57, 0
31, 23840, Note_on_c, 13, 64, 32
31, 23840, Note_on_c, 13, 57, 32
31, 23873, Note_on_c, 13, 64, 0
31, 23873, Note_on_c, 13, 57, 0
31, 23880, Note_on_c, 13, 64, 32
31, 23880, Note_on_c, 13, 57, 32
31, 23913, Note_on_c, 13, 64, 0
31, 23913, Note_on_c, 13, 57, 0
31, 23920, Note_on_c, 13, 64, 32
31, 23920, Note_on_c, 13, 57, 32
31, 23953, Note_on_c, 13, 64, 0
31, 23953, Note_on_c, 13, 57, 0
31, 23960, Note_on_c, 13, 57, 32
31, 23960, Note_on_c, 13, 64, 32
31, 23993, Note_on_c, 13, 57, 0
31, 23993, Note_on_c, 13, 64, 0
31, 24000, Note_on_c, 13, 64, 32
31, 24000, Note_on_c, 13, 57, 32
31, 24033, Note_on_c, 13, 64, 0
31, 24033, Note_on_c, 13, 57, 0
31, 24040, Note_on_c, 13, 57, 32
31, 24040, Note_on_c, 13, 64, 32
31, 24073, Note_on_c, 13, 57, 0
31, 24073, Note_on_c, 13, 64, 0
31, 24080, Note_on_c, 13, 57, 32
31, 24080, Note_on_c, 13, 64, 32
31, 24113, Note_on_c, 13, 57, 0
31, 24113, Note_on_c, 13, 64, 0
31, 24120, Note_on_c, 13, 57, 32
31, 24120, Note_on_c, 13, 64, 32
31, 24153, Note_on_c, 13, 57, 0
31, 24153, Note_on_c, 13, 64, 0
31, 24160, Note_on_c, 13, 64, 32
31, 24160, Note_on_c, 13, 57, 32
31, 24193, Note_on_c, 13, 64, 0
31, 24193, Note_on_c, 13, 57, 0
31, 24200, Note_on_c, 13, 57, 32
31, 24200, Note_on_c, 13, 64, 32
31, 24233, Note_on_c, 13, 57, 0
31, 24233, Note_on_c, 13, 64, 0
31, 24240, Note_on_c, 13, 64, 32
31, 24240, Note_on_c, 13, 57, 32
31, 24273, Note_on_c, 13, 64, 0
31, 24273, Note_on_c, 13, 57, 0
31, 24280, Note_on_c, 13, 64, 32
31, 24280, Note_on_c, 13, 57, 32
31, 24313, Note_on_c, 13, 64, 0
31, 24313, Note_on_c, 13, 57, 0
31, 24320, Note_on_c, 13, 64, 32
31, 24320, Note_on_c, 13, 57, 32
31, 24353, Note_on_c, 13, 64, 0
31, 24353, Note_on_c, 13, 57, 0
31, 24360, Note_on_c, 13, 64, 32
31, 24360, Note_on_c, 13, 57, 32
31, 24393, Note_on_c, 13, 64, 0
31, 24393, Note_on_c, 13, 57, 0
31, 24400, Note_on_c, 13, 64, 32
31, 24400, Note_on_c, 13, 57, 32
31, 24433, Note_on_c, 13, 64, 0
31, 24433, Note_on_c, 13, 57, 0
31, 24440, Note_on_c, 13, 64, 32
31, 24440, Note_on_c, 13, 57, 32
31, 24473, Note_on_c, 13, 64, 0
31, 24473, Note_on_c, 13, 57, 0
31, 24480, Note_on_c, 13, 64, 32
31, 24480, Note_on_c, 13, 57, 32
31, 24513, Note_on_c, 13, 64, 0
31, 24513, Note_on_c, 13, 57, 0
31, 24520, Note_on_c, 13, 57, 32
31, 24520, Note_on_c, 13, 64, 32
31, 24553, Note_on_c, 13, 57, 0
31, 24553, Note_on_c, 13, 64, 0
31, 24560, Note_on_c, 13, 57, 32
31, 24560, Note_on_c, 13, 64, 32
31, 24593, Note_on_c, 13, 57, 0
31, 24593, Note_on_c, 13, 64, 0
31, 24600, Note_on_c, 13, 57, 32
31, 24600, Note_on_c, 13, 64, 32
31, 24633, Note_on_c, 13, 57, 0
31, 24633, Note_on_c, 13, 64, 0
31, 24640, Note_on_c, 13, 64, 32
31, 24640, Note_on_c, 13, 57, 32
31, 24673, Note_on_c, 13, 64, 0
31, 24673, Note_on_c, 13, 57, 0
31, 24680, Note_on_c, 13, 64, 32
31, 24680, Note_on_c, 13, 57, 32
31, 24713, Note_on_c, 13, 64, 0
31, 24713, Note_on_c, 13, 57, 0
31, 24720, Note_on_c, 13, 64, 32
31, 24720, Note_on_c, 13, 57, 32
31, 24753, Note_on_c, 13, 64, 0
31, 24753, Note_on_c, 13, 57, 0
31, 24760, Note_on_c, 13, 64, 32
31, 24760, Note_on_c, 13, 57, 32
31, 24793, Note_on_c, 13, 64, 0
31, 24793, Note_on_c, 13, 57, 0
31, 24800, Note_on_c, 13, 64, 32
31, 24800, Note_on_c, 13, 57, 32
31, 24833, Note_on_c, 13, 64, 0
31, 24833, Note_on_c, 13, 57, 0
31, 24840, Note_on_c, 13, 57, 32
31, 24840, Note_on_c, 13, 64, 32
31, 24873, Note_on_c, 13, 57, 0
31, 24873, Note_on_c, 13, 64, 0
31, 24880, Note_on_c, 13, 64, 32
31, 24880, Note_on_c, 13, 57, 32
31, 24913, Note_on_c, 13, 64, 0
31, 24913, Note_on_c, 13, 57, 0
31, 24920, Note_on_c, 13, 64, 32
31, 24920, Note_on_c, 13, 57, 32
31, 24953, Note_on_c, 13, 64, 0
31, 24953, Note_on_c, 13, 57, 0
31, 24960, Note_on_c, 13, 63, 80
31, 24960, Note_on_c, 13, 60, 80
31, 25199, Note_on_c, 13, 63, 0
31, 25199, Note_on_c, 13, 60, 0
31, 31920, Program_c, 13, 45
31, 32160, Note_on_c, 13, 76, 40
31, 32399, Note_on_c, 13, 76, 0
31, 32880, Note_on_c, 13, 69, 40
31, 33119, Note_on_c, 13, 69, 0
31, 33600, Note_on_c, 13, 64, 40
31, 33839, Note_on_c, 13, 64, 0
31, 34320, Note_on_c, 13, 57, 40
31, 34559, Note_on_c, 13, 57, 0
31, 35040, Note_on_c, 13, 72, 40
31, 35279, Note_on_c, 13, 72, 0
31, 35760, Note_on_c, 13, 65, 40
31, 35999, Note_on_c, 13, 65, 0
31, 36480, Note_on_c, 13, 60, 40
31, 36719, Note_on_c, 13, 60, 0
31, 37200, Note_on_c, 13, 60, 40
31, 37439, Note_on_c, 13, 60, 0
31, 110640, Program_c, 13, 48
31, 111240, Note_on_c, 13, 71, 44
31, 111359, Note_on_c, 13, 71, 0
31, 111360, Note_on_c, 13, 69, 44
31, 111479, Note_on_c, 13, 69, 0
31, 111480, Note_on_c, 13, 67, 44
31, 111584, Note_on_c, 13, 67, 0
31, 111600, Note_on_c, 13, 66, 44
31, 111839, Note_on_c, 13, 66, 0
31, 111840, Note_on_c, 13, 62, 44
31, 112079, Note_on_c, 13, 62, 0
31, 112080, Note_on_c, 13, 64, 44
31, 112319, Note_on_c, 13, 64, 0
31, 112320, Note_on_c, 13, 66, 44
31, 112544, Note_on_c, 13, 66, 0
31, 112560, Note_on_c, 13, 62, 44
31, 112919, Note_on_c, 13, 62, 0
31, 112920, Note_on_c, 13, 64, 44
31, 113039, Note_on_c, 13, 64, 0
31, 113040, Note_on_c, 13, 66, 44
31, 113159, Note_on_c, 13, 66, 0
31, 113160, Note_on_c, 13, 62, 44
31, 113279, Note_on_c, 13, 62, 0
31, 113280, Note_on_c, 13, 59, 44
31, 113399, Note_on_c, 13, 59, 0
31, 113400, Note_on_c, 13, 61, 44
31, 113504, Note_on_c, 13, 61, 0
31, 113520, Note_on_c, 13, 57, 44
31, 113744, Note_on_c, 13, 57, 0
31, 113760, Note_on_c, 13, 69, 44
31, 114224, Note_on_c, 13, 69, 0
31, 114240, Note_on_c, 13, 69, 44
31, 114719, Note_on_c, 13, 69, 0
31, 114720, Note_on_c, 13, 64, 44
31, 114959, Note_on_c, 13, 64, 0
31, 114960, Note_on_c, 13, 61, 44
31, 115064, Note_on_c, 13, 61, 0
31, 115080, Note_on_c, 13, 64, 44
31, 115199, Note_on_c, 13, 64, 0
31, 115200, Note_on_c, 13, 66, 44
31, 115319, Note_on_c, 13, 66, 0
31, 115320, Note_on_c, 13, 67, 44
31, 115424, Note_on_c, 13, 67, 0
31, 115440, Note_on_c, 13, 66, 44
31, 115679, Note_on_c, 13, 66, 0
31, 115680, Note_on_c, 13, 62, 44
31, 115919, Note_on_c, 13, 62, 0
31, 115920, Note_on_c, 13, 64, 44
31, 116159, Note_on_c, 13, 64, 0
31, 116160, Note_on_c, 13, 66, 44
31, 116384, Note_on_c, 13, 66, 0
31, 116400, Note_on_c, 13, 62, 44
31, 116759, Note_on_c, 13, 62, 0
31, 116760, Note_on_c, 13, 64, 44
31, 116879, Note_on_c, 13, 64, 0
31, 116880, Note_on_c, 13, 66, 44
31, 116999, Note_on_c, 13, 66, 0
31, 117000, Note_on_c, 13, 69, 44
31, 117119, Note_on_c, 13, 69, 0
31, 117120, Note_on_c, 13, 71, 44
31, 117239, Note_on_c, 13, 71, 0
31, 117240, Note_on_c, 13, 73, 44
31, 117344, Note_on_c, 13, 73, 0
31, 117360, Note_on_c, 13, 74, 44
31, 117479, Note_on_c, 13, 74, 0
31, 117480, Note_on_c, 13, 73, 44
31, 117599, Note_on_c, 13, 73, 0
31, 117600, Note_on_c, 13, 71, 44
31, 117719, Note_on_c, 13, 71, 0
31, 117720, Note_on_c, 13, 69, 44
31, 117839, Note_on_c, 13, 69, 0
31, 117840, Note_on_c, 13, 67, 44
31, 117959, Note_on_c, 13, 67, 0
31, 117960, Note_on_c, 13, 66, 44
31, 118079, Note_on_c, 13, 66, 0
31, 118080, Note_on_c, 13, 64, 44
31, 118199, Note_on_c, 13, 64, 0
31, 118200, Note_on_c, 13, 62, 44
31, 118439, Note_on_c, 13, 62, 0
31, 118440, Note_on_c, 13, 61, 44
31, 118559, Note_on_c, 13, 61, 0
31, 118560, Note_on_c, 13, 67, 44
31, 118679, Note_on_c, 13, 67, 0
31, 118680, Note_on_c, 13, 66, 44
31, 118784, Note_on_c, 13, 66, 0
31, 118800, Note_on_c, 13, 66, 44
31, 118889, Note_on_c, 13, 66, 0
31, 118920, Note_on_c, 13, 66, 44
31, 119039, Note_on_c, 13, 66, 0
31, 119040, Note_on_c, 13, 64, 44
31, 119159, Note_on_c, 13, 64, 0
31, 119160, Note_on_c, 13, 62, 44
31, 119264, Note_on_c, 13, 62, 0
31, 119280, Note_on_c, 13, 61, 44
31, 119519, Note_on_c, 13, 61, 0
31, 119520, Note_on_c, 13, 64, 44
31, 119759, Note_on_c, 13, 64, 0
31, 119760, Note_on_c, 13, 62, 44
31, 119999, Note_on_c, 13, 62, 0
31, 120000, Note_on_c, 13, 74, 44
31, 120224, Note_on_c, 13, 74, 0
31, 120240, Note_on_c, 13, 67, 44
31, 120479, Note_on_c, 13, 67, 0
31, 120480, Note_on_c, 13, 66, 44
31, 120599, Note_on_c, 13, 66, 0
31, 120600, Note_on_c, 13, 64, 44
31, 120719, Note_on_c, 13, 64, 0
31, 120720, Note_on_c, 13, 66, 44
31, 120959, Note_on_c, 13, 66, 0
31, 120960, Note_on_c, 13, 67, 44
31, 121079, Note_on_c, 13, 67, 0
31, 121080, Note_on_c, 13, 69, 44
31, 121184, Note_on_c, 13, 69, 0
31, 121200, Note_on_c, 13, 71, 44
31, 121319, Note_on_c, 13, 71, 0
31, 121320, Note_on_c, 13, 73, 44
31, 121439, Note_on_c, 13, 73, 0
31, 121440, Note_on_c, 13, 74, 44
31, 121559, Note_on_c, 13, 74, 0
31, 121560, Note_on_c, 13, 76, 44
31, 121679, Note_on_c, 13, 76, 0
31, 121680, Note_on_c, 13, 74, 44
31, 121904, Note_on_c, 13, 74, 0
31, 121918, Control_c, 13, 11, 87
31, 121920, Note_on_c, 13, 73, 68
31, 122039, Note_on_c, 13, 73, 0
31, 122040, Note_on_c, 13, 61, 68
31, 122159, Note_on_c, 13, 61, 0
31, 122160, Note_on_c, 13, 71, 68
31, 122160, Control_c, 13, 11, 87
31, 122200, Control_c, 13, 11, 89
31, 122240, Control_c, 13, 11, 90
31, 122279, Note_on_c, 13, 71, 0
31, 122280, Control_c, 13, 11, 92
31, 122280, Note_on_c, 13, 59, 68
31, 122320, Control_c, 13, 11, 94
31, 122360, Control_c, 13, 11, 95
31, 122399, Note_on_c, 13, 59, 0
31, 122400, Control_c, 13, 11, 97
31, 122400, Note_on_c, 13, 58, 68
31, 122440, Control_c, 13, 11, 99
31, 122480, Control_c, 13, 11, 100
31, 122519, Note_on_c, 13, 58, 0
31, 122520, Control_c, 13, 11, 102
31, 122520, Note_on_c, 13, 70, 68
31, 122560, Control_c, 13, 11, 104
31, 122600, Control_c, 13, 11, 105
31, 122639, Note_on_c, 13, 70, 0
31, 122640, Control_c, 13, 11, 107
31, 122640, Note_on_c, 13, 69, 68
31, 122680, Control_c, 13, 11, 109
31, 122720, Control_c, 13, 11, 110
31, 122759, Note_on_c, 13, 69, 0
31, 122760, Control_c, 13, 11, 112
31, 122760, Note_on_c, 13, 64, 68
31, 122800, Control_c, 13, 11, 114
31, 122840, Control_c, 13, 11, 115
31, 122879, Note_on_c, 13, 64, 0
31, 122880, Note_on_c, 13, 69, 68
31, 122880, Control_c, 13, 11, 117
31, 122920, Control_c, 13, 11, 119
31, 122960, Control_c, 13, 11, 120
31, 122999, Note_on_c, 13, 69, 0
31, 123000, Note_on_c, 13, 67, 68
31, 123000, Control_c, 13, 11, 122
31, 123040, Control_c, 13, 11, 124
31, 123080, Control_c, 13, 11, 127
31, 123119, Note_on_c, 13, 67, 0
31, 123120, Note_on_c, 13, 66, 44
31, 123344, Note_on_c, 13, 66, 0
31, 123360, Note_on_c, 13, 74, 44
31, 123599, Note_on_c, 13, 74, 0
31, 123600, Note_on_c, 13, 76, 44
31, 123839, Note_on_c, 13, 76, 0
31, 123840, Note_on_c, 13, 78, 44
31, 124064, Note_on_c, 13, 78, 0
31, 124080, Note_on_c, 13, 74, 44
31, 124319, Note_on_c, 13, 74, 0
31, 124320, Note_on_c, 13, 76, 44
31, 124559, Note_on_c, 13, 76, 0
31, 124560, Note_on_c, 13, 69, 44
31, 124799, Note_on_c, 13, 69, 0
31, 124800, Note_on_c, 13, 71, 44
31, 124919, Note_on_c, 13, 71, 0
31, 124920, Note_on_c, 13, 73, 44
31, 125024, Note_on_c, 13, 73, 0
31, 125040, Note_on_c, 13, 74, 44
31, 125159, Note_on_c, 13, 74, 0
31, 125160, Note_on_c, 13, 69, 44
31, 125279, Note_on_c, 13, 69, 0
31, 125280, Note_on_c, 13, 71, 44
31, 125399, Note_on_c, 13, 71, 0
31, 125400, Note_on_c, 13, 69, 44
31, 125519, Note_on_c, 13, 69, 0
31, 125520, Note_on_c, 13, 67, 44
31, 125639, Note_on_c, 13, 67, 0
31, 125640, Note_on_c, 13, 66, 44
31, 125759, Note_on_c, 13, 66, 0
31, 125760, Note_on_c, 13, 64, 44
31, 125879, Note_on_c, 13, 64, 0
31, 125880, Note_on_c, 13, 62, 44
31, 126119, Note_on_c, 13, 62, 0
31, 126120, Note_on_c, 13, 61, 44
31, 126239, Note_on_c, 13, 61, 0
31, 126240, Note_on_c, 13, 67, 44
31, 126359, Note_on_c, 13, 67, 0
31, 126360, Note_on_c, 13, 66, 44
31, 126464, Note_on_c, 13, 66, 0
31, 126480, Note_on_c, 13, 66, 44
31, 126569, Note_on_c, 13, 66, 0
31, 126600, Note_on_c, 13, 66, 44
31, 126719, Note_on_c, 13, 66, 0
31, 126720, Note_on_c, 13, 64, 44
31, 126839, Note_on_c, 13, 64, 0
31, 126840, Note_on_c, 13, 62, 44
31, 126944, Note_on_c, 13, 62, 0
31, 126958, Control_c, 13, 11, 67
31, 126960, Note_on_c, 13, 61, 80
31, 126960, Control_c, 13, 11, 67
31, 127088, Control_c, 13, 11, 68
31, 127199, Note_on_c, 13, 61, 0
31, 127200, Note_on_c, 13, 64, 80
31, 127216, Control_c, 13, 11, 69
31, 127344, Control_c, 13, 11, 70
31, 127439, Note_on_c, 13, 64, 0
31, 127440, Note_on_c, 13, 62, 80
31, 127472, Control_c, 13, 11, 71
31, 127600, Control_c, 13, 11, 72
31, 127679, Note_on_c, 13, 62, 0
31, 127680, Note_on_c, 13, 74, 80
31, 127728, Control_c, 13, 11, 73
31, 127856, Control_c, 13, 11, 74
31, 127904, Note_on_c, 13, 74, 0
31, 127920, Note_on_c, 13, 67, 80
31, 127984, Control_c, 13, 11, 75
31, 128112, Control_c, 13, 11, 76
31, 128159, Note_on_c, 13, 67, 0
31, 128160, Note_on_c, 13, 66, 80
31, 128240, Control_c, 13, 11, 77
31, 128279, Note_on_c, 13, 66, 0
31, 128280, Note_on_c, 13, 64, 80
31, 128368, Control_c, 13, 11, 78
31, 128399, Note_on_c, 13, 64, 0
31, 128400, Note_on_c, 13, 66, 80
31, 128496, Control_c, 13, 11, 79
31, 128624, Control_c, 13, 11, 80
31, 128639, Note_on_c, 13, 66, 0
31, 128640, Note_on_c, 13, 67, 80
31, 128752, Control_c, 13, 11, 81
31, 128759, Note_on_c, 13, 67, 0
31, 128760, Note_on_c, 13, 69, 80
31, 128864, Note_on_c, 13, 69, 0
31, 128880, Note_on_c, 13, 71, 80
31, 128880, Control_c, 13, 11, 82
31, 128999, Note_on_c, 13, 71, 0
31, 129000, Note_on_c, 13, 73, 80
31, 129008, Control_c, 13, 11, 83
31, 129119, Note_on_c, 13, 73, 0
31, 129120, Note_on_c, 13, 74, 80
31, 129136, Control_c, 13, 11, 84
31, 129239, Note_on_c, 13, 74, 0
31, 129240, Note_on_c, 13, 76, 80
31, 129264, Control_c, 13, 11, 85
31, 129359, Note_on_c, 13, 76, 0
31, 129360, Note_on_c, 13, 74, 80
31, 129392, Control_c, 13, 11, 86
31, 129520, Control_c, 13, 11, 87
31, 129584, Note_on_c, 13, 74, 0
31, 129600, Note_on_c, 13, 73, 80
31, 129648, Control_c, 13, 11, 88
31, 129719, Note_on_c, 13, 73, 0
31, 129720, Note_on_c, 13, 61, 80
31, 129776, Control_c, 13, 11, 89
31, 129839, Note_on_c, 13, 61, 0
31, 129840, Note_on_c, 13, 71, 80
31, 129904, Control_c, 13, 11, 90
31, 129959, Note_on_c, 13, 71, 0
31, 129960, Note_on_c, 13, 59, 80
31, 130032, Control_c, 13, 11, 91
31, 130079, Note_on_c, 13, 59, 0
31, 130080, Note_on_c, 13, 58, 80
31, 130160, Control_c, 13, 11, 92
31, 130199, Note_on_c, 13, 58, 0
31, 130200, Note_on_c, 13, 70, 80
31, 130288, Control_c, 13, 11, 93
31, 130319, Note_on_c, 13, 70, 0
31, 130320, Note_on_c, 13, 69, 80
31, 130416, Control_c, 13, 11, 94
31, 130439, Note_on_c, 13, 69, 0
31, 130440, Note_on_c, 13, 64, 80
31, 130544, Control_c, 13, 11, 95
31, 130559, Note_on_c, 13, 64, 0
31, 130560, Note_on_c, 13, 69, 80
31, 130672, Control_c, 13, 11, 96
31, 130679, Note_on_c, 13, 69, 0
31, 130680, Note_on_c, 13, 67, 80
31, 130799, Note_on_c, 13, 67, 0
31, 130800, Control_c, 13, 11, 97
31, 130800, Note_on_c, 13, 66, 80
31, 130928, Control_c, 13, 11, 98
31, 131024, Note_on_c, 13, 66, 0
31, 131040, Note_on_c, 13, 74, 80
31, 131056, Control_c, 13, 11, 99
31, 131184, Control_c, 13, 11, 100
31, 131279, Note_on_c, 13, 74, 0
31, 131280, Note_on_c, 13, 76, 80
31, 131312, Control_c, 13, 11, 101
31, 131440, Control_c, 13, 11, 102
31, 131519, Note_on_c, 13, 76, 0
31, 131520, Note_on_c, 13, 78, 80
31, 131568, Control_c, 13, 11, 103
31, 131696, Control_c, 13, 11, 104
31, 131744, Note_on_c, 13, 78, 0
31, 131760, Note_on_c, 13, 74, 80
31, 131824, Control_c, 13, 11, 105
31, 131952, Control_c, 13, 11, 106
31, 131999, Note_on_c, 13, 74, 0
31, 132000, Note_on_c, 13, 76, 80
31, 132080, Control_c, 13, 11, 107
31, 132208, Control_c, 13, 11, 108
31, 132239, Note_on_c, 13, 76, 0
31, 132240, Note_on_c, 13, 69, 80
31, 132336, Control_c, 13, 11, 109
31, 132464, Control_c, 13, 11, 110
31, 132479, Note_on_c, 13, 69, 0
31, 132480, Note_on_c, 13, 71, 80
31, 132592, Control_c, 13, 11, 111
31, 132599, Note_on_c, 13, 71, 0
31, 132600, Note_on_c, 13, 73, 80
31, 132704, Note_on_c, 13, 73, 0
31, 132720, Control_c, 13, 11, 112
31, 132720, Note_on_c, 13, 74, 80
31, 132839, Note_on_c, 13, 74, 0
31, 132840, Note_on_c, 13, 69, 80
31, 132848, Control_c, 13, 11, 113
31, 132959, Note_on_c, 13, 69, 0
31, 132960, Note_on_c, 13, 71, 80
31, 132976, Control_c, 13, 11, 114
31, 133079, Note_on_c, 13, 71, 0
31, 133080, Note_on_c, 13, 69, 80
31, 133104, Control_c, 13, 11, 115
31, 133199, Note_on_c, 13, 69, 0
31, 133200, Note_on_c, 13, 67, 80
31, 133232, Control_c, 13, 11, 116
31, 133319, Note_on_c, 13, 67, 0
31, 133320, Note_on_c, 13, 66, 80
31, 133360, Control_c, 13, 11, 117
31, 133439, Note_on_c, 13, 66, 0
31, 133440, Note_on_c, 13, 64, 80
31, 133488, Control_c, 13, 11, 118
31, 133559, Note_on_c, 13, 64, 0
31, 133560, Note_on_c, 13, 62, 80
31, 133616, Control_c, 13, 11, 119
31, 133744, Control_c, 13, 11, 120
31, 133799, Note_on_c, 13, 62, 0
31, 133800, Note_on_c, 13, 61, 80
31, 133872, Control_c, 13, 11, 121
31, 133919, Note_on_c, 13, 61, 0
31, 133920, Note_on_c, 13, 67, 80
31, 134000, Control_c, 13, 11, 122
31, 134039, Note_on_c, 13, 67, 0
31, 134040, Note_on_c, 13, 66, 80
31, 134128, Control_c, 13, 11, 123
31, 134144, Note_on_c, 13, 66, 0
31, 134160, Note_on_c, 13, 66, 80
31, 134256, Control_c, 13, 11, 124
31, 134279, Note_on_c, 13, 66, 0
31, 134280, Note_on_c, 13, 71, 80
31, 134384, Control_c, 13, 11, 125
31, 134399, Note_on_c, 13, 71, 0
31, 134400, Note_on_c, 13, 69, 80
31, 134512, Control_c, 13, 11, 127
31, 134519, Note_on_c, 13, 69, 0
31, 134520, Note_on_c, 13, 67, 80
31, 134624, Note_on_c, 13, 67, 0
31, 134640, Note_on_c, 13, 62, 80
31, 134640, Note_on_c, 13, 69, 80
31, 134640, Note_on_c, 13, 78, 80
31, 134879, Note_on_c, 13, 62, 0
31, 134879, Note_on_c, 13, 69, 0
31, 134879, Note_on_c, 13, 78, 0
31, 135000, Note_on_c, 13, 62, 80
31, 135104, Note_on_c, 13, 62, 0
31, 135120, Note_on_c, 13, 74, 80
31, 135359, Note_on_c, 13, 74, 0
31, 135480, Note_on_c, 13, 62, 80
31, 135584, Note_on_c, 13, 62, 0
31, 135600, Note_on_c, 13, 69, 80
31, 135600, Note_on_c, 13, 81, 80
31, 135839, Note_on_c, 13, 69, 0
31, 135839, Note_on_c, 13, 81, 0
31, 135960, Note_on_c, 13, 57, 80
31, 136064, Note_on_c, 13, 57, 0
31, 136080, Note_on_c, 13, 69, 80
31, 136319, Note_on_c, 13, 69, 0
31, 136440, Note_on_c, 13, 57, 80
31, 136544, Note_on_c, 13, 57, 0
31, 136560, Note_on_c, 13, 62, 80
31, 136560, Note_on_c, 13, 69, 80
31, 136560, Note_on_c, 13, 78, 80
31, 136799, Note_on_c, 13, 62, 0
31, 136799, Note_on_c, 13, 69, 0
31, 136799, Note_on_c, 13, 78, 0
31, 137280, Note_on_c, 13, 78, 80
31, 137280, Note_on_c, 13, 62, 80
31, 137280, Note_on_c, 13, 69, 80
31, 137504, Note_on_c, 13, 78, 0
31, 137504, Note_on_c, 13, 62, 0
31, 137504, Note_on_c, 13, 69, 0
31, 137520, Note_on_c, 13, 78, 80
31, 137520, Note_on_c, 13, 69, 80
31, 137520, Note_on_c, 13, 62, 80
31, 137759, Note_on_c, 13, 78, 0
31, 137759, Note_on_c, 13, 69, 0
31, 137759, Note_on_c, 13, 62, 0
31, 138000, Note_on_c, 13, 69, 80
31, 138000, Note_on_c, 13, 73, 80
31, 138000, Note_on_c, 13, 76, 80
31, 138239, Note_on_c, 13, 69, 0
31, 138239, Note_on_c, 13, 73, 0
31, 138239, Note_on_c, 13, 76, 0
31, 138480, Note_on_c, 13, 86, 80
31, 138480, Note_on_c, 13, 62, 80
31, 138480, Note_on_c, 13, 74, 80
31, 138719, Note_on_c, 13, 86, 0
31, 138719, Note_on_c, 13, 62, 0
31, 138719, Note_on_c, 13, 74, 0
31, 138840, Note_on_c, 13, 62, 80
31, 138944, Note_on_c, 13, 62, 0
31, 138960, Note_on_c, 13, 74, 80
31, 139199, Note_on_c, 13, 74, 0
31, 139320, Note_on_c, 13, 62, 80
31, 139424, Note_on_c, 13, 62, 0
31, 139440, Note_on_c, 13, 69, 80
31, 139440, Note_on_c, 13, 81, 80
31, 139679, Note_on_c, 13, 69, 0
31, 139679, Note_on_c, 13, 81, 0
31, 139800, Note_on_c, 13, 57, 80
31, 139904, Note_on_c, 13, 57, 0
31, 139920, Note_on_c, 13, 69, 80
31, 140159, Note_on_c, 13, 69, 0
31, 140280, Note_on_c, 13, 57, 80
31, 140384, Note_on_c, 13, 57, 0
31, 140400, Note_on_c, 13, 78, 80
31, 140400, Note_on_c, 13, 62, 80
31, 140400, Note_on_c, 13, 69, 80
31, 140639, Note_on_c, 13, 78, 0
31, 140639, Note_on_c, 13, 62, 0
31, 140639, Note_on_c, 13, 69, 0
31, 141120, Note_on_c, 13, 69, 80
31, 141120, Note_on_c, 13, 78, 80
31, 141120, Note_on_c, 13, 62, 80
31, 141344, Note_on_c, 13, 69, 0
31, 141344, Note_on_c, 13, 78, 0
31, 141344, Note_on_c, 13, 62, 0
31, 141360, Note_on_c, 13, 73, 80
31, 141360, Note_on_c, 13, 69, 80
31, 141360, Note_on_c, 13, 76, 80
31, 141599, Note_on_c, 13, 73, 0
31, 141599, Note_on_c, 13, 69, 0
31, 141599, Note_on_c, 13, 76, 0
31, 141840, Note_on_c, 13, 74, 80
31, 141840, Note_on_c, 13, 66, 80
31, 141840, Note_on_c, 13, 57, 80
31, 142079, Note_on_c, 13, 74, 0
31, 142079, Note_on_c, 13, 66, 0
31, 142079, Note_on_c, 13, 57, 0
31, 142320, Note_on_c, 13, 64, 80
31, 142320, Note_on_c, 13, 76, 80
31, 142320, Note_on_c, 13, 69, 80
31, 142320, Note_on_c, 13, 57, 80
31, 142559, Note_on_c, 13, 64, 0
31, 142559, Note_on_c, 13, 76, 0
31, 142559, Note_on_c, 13, 69, 0
31, 142559, Note_on_c, 13, 57, 0
31, 142680, Note_on_c, 13, 57, 80
31, 142784, Note_on_c, 13, 57, 0
31, 142800, Note_on_c, 13, 69, 80
31, 143024, Note_on_c, 13, 69, 0
31, 143040, Note_on_c, 13, 66, 80
31, 143040, Note_on_c, 13, 57, 80
31, 143040, Note_on_c, 13, 74, 80
31, 143264, Note_on_c, 13, 66, 0
31, 143264, Note_on_c, 13, 57, 0
31, 143264, Note_on_c, 13, 74, 0
31, 143280, Note_on_c, 13, 69, 80
31, 143280, Note_on_c, 13, 76, 80
31, 143280, Note_on_c, 13, 57, 80
31, 143280, Note_on_c, 13, 64, 80
31, 143519, Note_on_c, 13, 69, 0
31, 143519, Note_on_c, 13, 76, 0
31, 143519, Note_on_c, 13, 57, 0
31, 143519, Note_on_c, 13, 64, 0
31, 143640, Note_on_c, 13, 57, 80
31, 143744, Note_on_c, 13, 57, 0
31, 143760, Note_on_c, 13, 69, 80
31, 143984, Note_on_c, 13, 69, 0
31, 144000, Note_on_c, 13, 74, 80
31, 144000, Note_on_c, 13, 66, 80
31, 144000, Note_on_c, 13, 57, 80
31, 144224, Note_on_c, 13, 74, 0
31, 144224, Note_on_c, 13, 66, 0
31, 144224, Note_on_c, 13, 57, 0
31, 144240, Note_on_c, 13, 73, 80
31, 144240, Note_on_c, 13, 76, 80
31, 144479, Note_on_c, 13, 73, 0
31, 144479, Note_on_c, 13, 76, 0
31, 144600, Note_on_c, 13, 57, 80
31, 144704, Note_on_c, 13, 57, 0
31, 144720, Note_on_c, 13, 73, 80
31, 144720, Note_on_c, 13, 78, 80
31, 144839, Note_on_c, 13, 73, 0
31, 144839, Note_on_c, 13, 78, 0
31, 144960, Note_on_c, 13, 76, 80
31, 144960, Note_on_c, 13, 73, 80
31, 145079, Note_on_c, 13, 76, 0
31, 145079, Note_on_c, 13, 73, 0
31, 145200, Note_on_c, 13, 62, 80
31, 145200, Note_on_c, 13, 74, 80
31, 145319, Note_on_c, 13, 62, 0
31, 145319, Note_on_c, 13, 74, 0
31, 145440, Note_on_c, 13, 68, 80
31, 145440, Note_on_c, 13, 71, 80
31, 145559, Note_on_c, 13, 68, 0
31, 145559, Note_on_c, 13, 71, 0
31, 145680, Note_on_c, 13, 61, 80
31, 145680, Note_on_c, 13, 69, 80
31, 145799, Note_on_c, 13, 61, 0
31, 145799, Note_on_c, 13, 69, 0
31, 145920, Note_on_c, 13, 78, 80
31, 145920, Note_on_c, 13, 69, 80
31, 145920, Note_on_c, 13, 62, 80
31, 146039, Note_on_c, 13, 78, 0
31, 146039, Note_on_c, 13, 69, 0
31, 146039, Note_on_c, 13, 62, 0
31, 146160, Note_on_c, 13, 62, 80
31, 146160, Note_on_c, 13, 78, 80
31, 146160, Note_on_c, 13, 69, 80
31, 146399, Note_on_c, 13, 62, 0
31, 146399, Note_on_c, 13, 78, 0
31, 146399, Note_on_c, 13, 69, 0
31, 146520, Note_on_c, 13, 62, 80
31, 146624, Note_on_c, 13, 62, 0
31, 146640, Note_on_c, 13, 74, 80
31, 146879, Note_on_c, 13, 74, 0
31, 147000, Note_on_c, 13, 62, 80
31, 147104, Note_on_c, 13, 62, 0
31, 147120, Note_on_c, 13, 69, 80
31, 147120, Note_on_c, 13, 81, 80
31, 147359, Note_on_c, 13, 69, 0
31, 147359, Note_on_c, 13, 81, 0
31, 147480, Note_on_c, 13, 57, 80
31, 147584, Note_on_c, 13, 57, 0
31, 147600, Note_on_c, 13, 69, 80
31, 147839, Note_on_c, 13, 69, 0
31, 147960, Note_on_c, 13, 57, 80
31, 148064, Note_on_c, 13, 57, 0
31, 148080, Note_on_c, 13, 74, 80
31, 148080, Note_on_c, 13, 66, 80
31, 148080, Note_on_c, 13, 57, 80
31, 148319, Note_on_c, 13, 74, 0
31, 148319, Note_on_c, 13, 66, 0
31, 148319, Note_on_c, 13, 57, 0
31, 148800, Note_on_c, 13, 62, 80
31, 148800, Note_on_c, 13, 78, 80
31, 148800, Note_on_c, 13, 69, 80
31, 149024, Note_on_c, 13, 62, 0
31, 149024, Note_on_c, 13, 78, 0
31, 149024, Note_on_c, 13, 69, 0
31, 149040, Note_on_c, 13, 57, 80
31, 149040, Note_on_c, 13, 76, 80
31, 149040, Note_on_c, 13, 69, 80
31, 149040, Note_on_c, 13, 64, 80
31, 149279, Note_on_c, 13, 57, 0
31, 149279, Note_on_c, 13, 76, 0
31, 149279, Note_on_c, 13, 69, 0
31, 149279, Note_on_c, 13, 64, 0
31, 149520, Note_on_c, 13, 74, 80
31, 149520, Note_on_c, 13, 66, 80
31, 149520, Note_on_c, 13, 57, 80
31, 149759, Note_on_c, 13, 74, 0
31, 149759, Note_on_c, 13, 66, 0
31, 149759, Note_on_c, 13, 57, 0
31, 150000, Note_on_c, 13, 69, 80
31, 150000, Note_on_c, 13, 76, 80
31, 150000, Note_on_c, 13, 57, 80
31, 150000, Note_on_c, 13, 64, 80
31, 150239, Note_on_c, 13, 69, 0
31, 150239, Note_on_c, 13, 76, 0
31, 150239, Note_on_c, 13, 57, 0
31, 150239, Note_on_c, 13, 64, 0
31, 150360, Note_on_c, 13, 57, 80
31, 150464, Note_on_c, 13, 57, 0
31, 150480, Note_on_c, 13, 69, 80
31, 150704, Note_on_c, 13, 69, 0
31, 150720, Note_on_c, 13, 74, 80
31, 150720, Note_on_c, 13, 57, 80
31, 150720, Note_on_c, 13, 66, 80
31, 150944, Note_on_c, 13, 74, 0
31, 150944, Note_on_c, 13, 57, 0
31, 150944, Note_on_c, 13, 66, 0
31, 150960, Note_on_c, 13, 57, 80
31, 150960, Note_on_c, 13, 76, 80
31, 150960, Note_on_c, 13, 69, 80
31, 150960, Note_on_c, 13, 64, 80
31, 151199, Note_on_c, 13, 57, 0
31, 151199, Note_on_c, 13, 76, 0
31, 151199, Note_on_c, 13, 69, 0
31, 151199, Note_on_c, 13, 64, 0
31, 151320, Note_on_c, 13, 57, 80
31, 151424, Note_on_c, 13, 57, 0
31, 151440, Note_on_c, 13, 69, 80
31, 151664, Note_on_c, 13, 69, 0
31, 151680, Note_on_c, 13, 57, 80
31, 151680, Note_on_c, 13, 66, 80
31, 151680, Note_on_c, 13, 74, 80
31, 151904, Note_on_c, 13, 57, 0
31, 151904, Note_on_c, 13, 66, 0
31, 151904, Note_on_c, 13, 74, 0
31, 151920, Note_on_c, 13, 76, 80
31, 151920, Note_on_c, 13, 73, 80
31, 152159, Note_on_c, 13, 76, 0
31, 152159, Note_on_c, 13, 73, 0
31, 152280, Note_on_c, 13, 57, 80
31, 152384, Note_on_c, 13, 57, 0
31, 152400, Note_on_c, 13, 73, 80
31, 152400, Note_on_c, 13, 78, 80
31, 152519, Note_on_c, 13, 73, 0
31, 152519, Note_on_c, 13, 78, 0
31, 152640, Note_on_c, 13, 76, 80
31, 152640, Note_on_c, 13, 73, 80
31, 152759, Note_on_c, 13, 76, 0
31, 152759, Note_on_c, 13, 73, 0
31, 152880, Note_on_c, 13, 62, 80
31, 152880, Note_on_c, 13, 74, 80
31, 152999, Note_on_c, 13, 62, 0
31, 152999, Note_on_c, 13, 74, 0
31, 153120, Note_on_c, 13, 68, 80
31, 153120, Note_on_c, 13, 71, 80
31, 153239, Note_on_c, 13, 68, 0
31, 153239, Note_on_c, 13, 71, 0
31, 153360, Note_on_c, 13, 61, 80
31, 153360, Note_on_c, 13, 69, 80
31, 153479, Note_on_c, 13, 61, 0
31, 153479, Note_on_c, 13, 69, 0
31, 153600, Note_on_c, 13, 62, 80
31, 153600, Note_on_c, 13, 78, 80
31, 153600, Note_on_c, 13, 69, 80
31, 153719, Note_on_c, 13, 62, 0
31, 153719, Note_on_c, 13, 78, 0
31, 153719, Note_on_c, 13, 69, 0
31, 153840, Note_on_c, 13, 69, 80
31, 153840, Note_on_c, 13, 62, 80
31, 153840, Note_on_c, 13, 78, 80
31, 154079, Note_on_c, 13, 69, 0
31, 154079, Note_on_c, 13, 62, 0
31, 154079, Note_on_c, 13, 78, 0
31, 154200, Note_on_c, 13, 62, 80
31, 154304, Note_on_c, 13, 62, 0
31, 154320, Note_on_c, 13, 74, 80
31, 154559, Note_on_c, 13, 74, 0
31, 154680, Note_on_c, 13, 62, 80
31, 154784, Note_on_c, 13, 62, 0
31, 154800, Note_on_c, 13, 81, 80
31, 154800, Note_on_c, 13, 69, 80
31, 155039, Note_on_c, 13, 81, 0
31, 155039, Note_on_c, 13, 69, 0
31, 155160, Note_on_c, 13, 57, 80
31, 155264, Note_on_c, 13, 57, 0
31, 155280, Note_on_c, 13, 69, 80
31, 155519, Note_on_c, 13, 69, 0
31, 155640, Note_on_c, 13, 57, 80
31, 155744, Note_on_c, 13, 57, 0
31, 155760, Note_on_c, 13, 66, 80
31, 155760, Note_on_c, 13, 74, 80
31, 155760, Note_on_c, 13, 57, 80
31, 155999, Note_on_c, 13, 66, 0
31, 155999, Note_on_c, 13, 74, 0
31, 155999, Note_on_c, 13, 57, 0
31, 156480, Note_on_c, 13, 78, 80
31, 156480, Note_on_c, 13, 69, 80
31, 156480, Note_on_c, 13, 62, 80
31, 156704, Note_on_c, 13, 78, 0
31, 156704, Note_on_c, 13, 69, 0
31, 156704, Note_on_c, 13, 62, 0
31, 156720, Note_on_c, 13, 76, 80
31, 156720, Note_on_c, 13, 69, 80
31, 156720, Note_on_c, 13, 64, 80
31, 156720, Note_on_c, 13, 57, 80
31, 156959, Note_on_c, 13, 76, 0
31, 156959, Note_on_c, 13, 69, 0
31, 156959, Note_on_c, 13, 64, 0
31, 156959, Note_on_c, 13, 57, 0
31, 157200, Note_on_c, 13, 62, 80
31, 157251, Note_on_c, 13, 62, 0
31, 157260, Note_on_c, 13, 66, 80
31, 157311, Note_on_c, 13, 66, 0
31, 157320, Note_on_c, 13, 64, 80
31, 157371, Note_on_c, 13, 64, 0
31, 157380, Note_on_c, 13, 62, 80
31, 157431, Note_on_c, 13, 62, 0
31, 157440, Note_on_c, 13, 61, 80
31, 157491, Note_on_c, 13, 61, 0
31, 157500, Note_on_c, 13, 62, 80
31, 157551, Note_on_c, 13, 62, 0
31, 157560, Note_on_c, 13, 64, 80
31, 157611, Note_on_c, 13, 64, 0
31, 157620, Note_on_c, 13, 62, 80
31, 157671, Note_on_c, 13, 62, 0
31, 157680, Note_on_c, 13, 62, 80
31, 157731, Note_on_c, 13, 62, 0
31, 157740, Note_on_c, 13, 57, 80
31, 157791, Note_on_c, 13, 57, 0
31, 157800, Note_on_c, 13, 59, 80
31, 157851, Note_on_c, 13, 59, 0
31, 157860, Note_on_c, 13, 61, 80
31, 157911, Note_on_c, 13, 61, 0
31, 157920, Note_on_c, 13, 62, 80
31, 157971, Note_on_c, 13, 62, 0
31, 157980, Note_on_c, 13, 61, 80
31, 158031, Note_on_c, 13, 61, 0
31, 158040, Note_on_c, 13, 62, 80
31, 158091, Note_on_c, 13, 62, 0
31, 158100, Note_on_c, 13, 64, 80
31, 158151, Note_on_c, 13, 64, 0
31, 158160, Note_on_c, 13, 66, 80
31, 158211, Note_on_c, 13, 66, 0
31, 158220, Note_on_c, 13, 69, 80
31, 158271, Note_on_c, 13, 69, 0
31, 158280, Note_on_c, 13, 67, 80
31, 158331, Note_on_c, 13, 67, 0
31, 158340, Note_on_c, 13, 66, 80
31, 158391, Note_on_c, 13, 66, 0
31, 158400, Note_on_c, 13, 64, 80
31, 158451, Note_on_c, 13, 64, 0
31, 158460, Note_on_c, 13, 66, 80
31, 158511, Note_on_c, 13, 66, 0
31, 158520, Note_on_c, 13, 67, 80
31, 158571, Note_on_c, 13, 67, 0
31, 158580, Note_on_c, 13, 69, 80
31, 158631, Note_on_c, 13, 69, 0
31, 158640, Note_on_c, 13, 71, 80
31, 158691, Note_on_c, 13, 71, 0
31, 158700, Note_on_c, 13, 72, 80
31, 158751, Note_on_c, 13, 72, 0
31, 158760, Note_on_c, 13, 74, 80
31, 158811, Note_on_c, 13, 74, 0
31, 158820, Note_on_c, 13, 76, 80
31, 158871, Note_on_c, 13, 76, 0
31, 158880, Note_on_c, 13, 78, 80
31, 158931, Note_on_c, 13, 78, 0
31, 158940, Note_on_c, 13, 79, 80
31, 158991, Note_on_c, 13, 79, 0
31, 159000, Note_on_c, 13, 81, 80
31, 159051, Note_on_c, 13, 81, 0
31, 159060, Note_on_c, 13, 83, 80
31, 159111, Note_on_c, 13, 83, 0
31, 159120, Note_on_c, 13, 71, 80
31, 159171, Note_on_c, 13, 71, 0
31, 159180, Note_on_c, 13, 72, 80
31, 159231, Note_on_c, 13, 72, 0
31, 159240, Note_on_c, 13, 74, 80
31, 159291, Note_on_c, 13, 74, 0
31, 159300, Note_on_c, 13, 76, 80
31, 159351, Note_on_c, 13, 76, 0
31, 159360, Note_on_c, 13, 78, 80
31, 159411, Note_on_c, 13, 78, 0
31, 159420, Note_on_c, 13, 79, 80
31, 159471, Note_on_c, 13, 79, 0
31, 159480, Note_on_c, 13, 81, 80
31, 159531, Note_on_c, 13, 81, 0
31, 159540, Note_on_c, 13, 83, 80
31, 159591, Note_on_c, 13, 83, 0
31, 159600, Note_on_c, 13, 71, 80
31, 159651, Note_on_c, 13, 71, 0
31, 159660, Note_on_c, 13, 73, 80
31, 159711, Note_on_c, 13, 73, 0
31, 159720, Note_on_c, 13, 74, 80
31, 159771, Note_on_c, 13, 74, 0
31, 159780, Note_on_c, 13, 76, 80
31, 159831, Note_on_c, 13, 76, 0
31, 159840, Note_on_c, 13, 71, 80
31, 159891, Note_on_c, 13, 71, 0
31, 159900, Note_on_c, 13, 73, 80
31, 159951, Note_on_c, 13, 73, 0
31, 159960, Note_on_c, 13, 74, 80
31, 160011, Note_on_c, 13, 74, 0
31, 160020, Note_on_c, 13, 76, 80
31, 160071, Note_on_c, 13, 76, 0
31, 160080, Note_on_c, 13, 64, 80
31, 160131, Note_on_c, 13, 64, 0
31, 160140, Note_on_c, 13, 66, 80
31, 160191, Note_on_c, 13, 66, 0
31, 160200, Note_on_c, 13, 67, 80
31, 160251, Note_on_c, 13, 67, 0
31, 160260, Note_on_c, 13, 69, 80
31, 160311, Note_on_c, 13, 69, 0
31, 160320, Note_on_c, 13, 71, 80
31, 160371, Note_on_c, 13, 71, 0
31, 160380, Note_on_c, 13, 73, 80
31, 160431, Note_on_c, 13, 73, 0
31, 160440, Note_on_c, 13, 73, 80
31, 160491, Note_on_c, 13, 73, 0
31, 160500, Note_on_c, 13, 73, 80
31, 160551, Note_on_c, 13, 73, 0
31, 160560, Note_on_c, 13, 66, 80
31, 160611, Note_on_c, 13, 66, 0
31, 160620, Note_on_c, 13, 67, 80
31, 160671, Note_on_c, 13, 67, 0
31, 160680, Note_on_c, 13, 69, 80
31, 160731, Note_on_c, 13, 69, 0
31, 160740, Note_on_c, 13, 71, 80
31, 160791, Note_on_c, 13, 71, 0
31, 160800, Note_on_c, 13, 73, 80
31, 160851, Note_on_c, 13, 73, 0
31, 160860, Note_on_c, 13, 74, 80
31, 160911, Note_on_c, 13, 74, 0
31, 160920, Note_on_c, 13, 76, 80
31, 160971, Note_on_c, 13, 76, 0
31, 160980, Note_on_c, 13, 78, 80
31, 161031, Note_on_c, 13, 78, 0
31, 161040, Note_on_c, 13, 69, 80
31, 161091, Note_on_c, 13, 69, 0
31, 161100, Note_on_c, 13, 71, 80
31, 161151, Note_on_c, 13, 71, 0
31, 161160, Note_on_c, 13, 73, 80
31, 161211, Note_on_c, 13, 73, 0
31, 161220, Note_on_c, 13, 74, 80
31, 161271, Note_on_c, 13, 74, 0
31, 161280, Note_on_c, 13, 76, 80
31, 161331, Note_on_c, 13, 76, 0
31, 161340, Note_on_c, 13, 78, 80
31, 161391, Note_on_c, 13, 78, 0
31, 161400, Note_on_c, 13, 79, 80
31, 161451, Note_on_c, 13, 79, 0
31, 161460, Note_on_c, 13, 81, 80
31, 161511, Note_on_c, 13, 81, 0
31, 161520, Note_on_c, 13, 71, 80
31, 161571, Note_on_c, 13, 71, 0
31, 161580, Note_on_c, 13, 73, 80
31, 161631, Note_on_c, 13, 73, 0
31, 161640, Note_on_c, 13, 74, 80
31, 161691, Note_on_c, 13, 74, 0
31, 161700, Note_on_c, 13, 76, 80
31, 161751, Note_on_c, 13, 76, 0
31, 161760, Note_on_c, 13, 78, 80
31, 161811, Note_on_c, 13, 78, 0
31, 161820, Note_on_c, 13, 79, 80
31, 161871, Note_on_c, 13, 79, 0
31, 161880, Note_on_c, 13, 81, 80
31, 161931, Note_on_c, 13, 81, 0
31, 161940, Note_on_c, 13, 83, 80
31, 161991, Note_on_c, 13, 83, 0
31, 162000, Note_on_c, 13, 64, 80
31, 162051, Note_on_c, 13, 64, 0
31, 162060, Note_on_c, 13, 66, 80
31, 162111, Note_on_c, 13, 66, 0
31, 162120, Note_on_c, 13, 67, 80
31, 162171, Note_on_c, 13, 67, 0
31, 162180, Note_on_c, 13, 69, 80
31, 162231, Note_on_c, 13, 69, 0
31, 162240, Note_on_c, 13, 71, 80
31, 162291, Note_on_c, 13, 71, 0
31, 162300, Note_on_c, 13, 73, 80
31, 162351, Note_on_c, 13, 73, 0
31, 162360, Note_on_c, 13, 74, 80
31, 162411, Note_on_c, 13, 74, 0
31, 162420, Note_on_c, 13, 76, 80
31, 162471, Note_on_c, 13, 76, 0
31, 162480, Note_on_c, 13, 61, 80
31, 162531, Note_on_c, 13, 61, 0
31, 162540, Note_on_c, 13, 62, 80
31, 162591, Note_on_c, 13, 62, 0
31, 162600, Note_on_c, 13, 64, 80
31, 162651, Note_on_c, 13, 64, 0
31, 162660, Note_on_c, 13, 66, 80
31, 162711, Note_on_c, 13, 66, 0
31, 162720, Note_on_c, 13, 61, 80
31, 162771, Note_on_c, 13, 61, 0
31, 162780, Note_on_c, 13, 62, 80
31, 162831, Note_on_c, 13, 62, 0
31, 162840, Note_on_c, 13, 64, 80
31, 162891, Note_on_c, 13, 64, 0
31, 162900, Note_on_c, 13, 66, 80
31, 162951, Note_on_c, 13, 66, 0
31, 162960, Note_on_c, 13, 59, 80
31, 163011, Note_on_c, 13, 59, 0
31, 163020, Note_on_c, 13, 61, 80
31, 163071, Note_on_c, 13, 61, 0
31, 163080, Note_on_c, 13, 62, 80
31, 163131, Note_on_c, 13, 62, 0
31, 163140, Note_on_c, 13, 64, 80
31, 163191, Note_on_c, 13, 64, 0
31, 163200, Note_on_c, 13, 66, 80
31, 163251, Note_on_c, 13, 66, 0
31, 163260, Note_on_c, 13, 67, 80
31, 163311, Note_on_c, 13, 67, 0
31, 163320, Note_on_c, 13, 69, 80
31, 163371, Note_on_c, 13, 69, 0
31, 163380, Note_on_c, 13, 71, 80
31, 163431, Note_on_c, 13, 71, 0
31, 163440, Note_on_c, 13, 69, 80
31, 163491, Note_on_c, 13, 69, 0
31, 163500, Note_on_c, 13, 81, 80
31, 163551, Note_on_c, 13, 81, 0
31, 163560, Note_on_c, 13, 78, 80
31, 163611, Note_on_c, 13, 78, 0
31, 163620, Note_on_c, 13, 75, 80
31, 163671, Note_on_c, 13, 75, 0
31, 163680, Note_on_c, 13, 69, 80
31, 163731, Note_on_c, 13, 69, 0
31, 163740, Note_on_c, 13, 78, 80
31, 163791, Note_on_c, 13, 78, 0
31, 163800, Note_on_c, 13, 75, 80
31, 163851, Note_on_c, 13, 75, 0
31, 163860, Note_on_c, 13, 69, 80
31, 163911, Note_on_c, 13, 69, 0
31, 163920, Note_on_c, 13, 68, 80
31, 163971, Note_on_c, 13, 68, 0
31, 163980, Note_on_c, 13, 77, 80
31, 164031, Note_on_c, 13, 77, 0
31, 164040, Note_on_c, 13, 73, 80
31, 164091, Note_on_c, 13, 73, 0
31, 164100, Note_on_c, 13, 68, 80
31, 164151, Note_on_c, 13, 68, 0
31, 164160, Note_on_c, 13, 68, 80
31, 164211, Note_on_c, 13, 68, 0
31, 164220, Note_on_c, 13, 77, 80
31, 164271, Note_on_c, 13, 77, 0
31, 164280, Note_on_c, 13, 73, 80
31, 164331, Note_on_c, 13, 73, 0
31, 164340, Note_on_c, 13, 68, 80
31, 164391, Note_on_c, 13, 68, 0
31, 164400, Note_on_c, 13, 70, 80
31, 164451, Note_on_c, 13, 70, 0
31, 164460, Note_on_c, 13, 79, 80
31, 164511, Note_on_c, 13, 79, 0
31, 164520, Note_on_c, 13, 76, 80
31, 164571, Note_on_c, 13, 76, 0
31, 164580, Note_on_c, 13, 70, 80
31, 164631, Note_on_c, 13, 70, 0
31, 164640, Note_on_c, 13, 70, 80
31, 164691, Note_on_c, 13, 70, 0
31, 164700, Note_on_c, 13, 79, 80
31, 164751, Note_on_c, 13, 79, 0
31, 164760, Note_on_c, 13, 76, 80
31, 164811, Note_on_c, 13, 76, 0
31, 164820, Note_on_c, 13, 70, 80
31, 164871, Note_on_c, 13, 70, 0
31, 164880, Note_on_c, 13, 71, 80
31, 164931, Note_on_c, 13, 71, 0
31, 164940, Note_on_c, 13, 78, 80
31, 164991, Note_on_c, 13, 78, 0
31, 165000, Note_on_c, 13, 74, 80
31, 165051, Note_on_c, 13, 74, 0
31, 165060, Note_on_c, 13, 71, 80
31, 165111, Note_on_c, 13, 71, 0
31, 165120, Note_on_c, 13, 71, 80
31, 165171, Note_on_c, 13, 71, 0
31, 165180, Note_on_c, 13, 69, 80
31, 165231, Note_on_c, 13, 69, 0
31, 165240, Note_on_c, 13, 66, 80
31, 165291, Note_on_c, 13, 66, 0
31, 165300, Note_on_c, 13, 71, 80
31, 165351, Note_on_c, 13, 71, 0
31, 165360, Note_on_c, 13, 68, 80
31, 165411, Note_on_c, 13, 68, 0
31, 165420, Note_on_c, 13, 73, 80
31, 165471, Note_on_c, 13, 73, 0
31, 165480, Note_on_c, 13, 71, 80
31, 165531, Note_on_c, 13, 71, 0
31, 165540, Note_on_c, 13, 68, 80
31, 165591, Note_on_c, 13, 68, 0
31, 165600, Note_on_c, 13, 68, 80
31, 165651, Note_on_c, 13, 68, 0
31, 165660, Note_on_c, 13, 74, 80
31, 165711, Note_on_c, 13, 74, 0
31, 165720, Note_on_c, 13, 73, 80
31, 165771, Note_on_c, 13, 73, 0
31, 165780, Note_on_c, 13, 68, 80
31, 165831, Note_on_c, 13, 68, 0
31, 165840, Note_on_c, 13, 69, 80
31, 165891, Note_on_c, 13, 69, 0
31, 165900, Note_on_c, 13, 74, 80
31, 165951, Note_on_c, 13, 74, 0
31, 165960, Note_on_c, 13, 73, 80
31, 166011, Note_on_c, 13, 73, 0
31, 166020, Note_on_c, 13, 69, 80
31, 166071, Note_on_c, 13, 69, 0
31, 166080, Note_on_c, 13, 69, 80
31, 166131, Note_on_c, 13, 69, 0
31, 166140, Note_on_c, 13, 76, 80
31, 166191, Note_on_c, 13, 76, 0
31, 166200, Note_on_c, 13, 74, 80
31, 166251, Note_on_c, 13, 74, 0
31, 166260, Note_on_c, 13, 69, 80
31, 166311, Note_on_c, 13, 69, 0
31, 166320, Note_on_c, 13, 71, 80
31, 166371, Note_on_c, 13, 71, 0
31, 166380, Note_on_c, 13, 76, 80
31, 166431, Note_on_c, 13, 76, 0
31, 166440, Note_on_c, 13, 74, 80
31, 166491, Note_on_c, 13, 74, 0
31, 166500, Note_on_c, 13, 71, 80
31, 166551, Note_on_c, 13, 71, 0
31, 166560, Note_on_c, 13, 71, 80
31, 166611, Note_on_c, 13, 71, 0
31, 166620, Note_on_c, 13, 78, 80
31, 166671, Note_on_c, 13, 78, 0
31, 166680, Note_on_c, 13, 76, 80
31, 166731, Note_on_c, 13, 76, 0
31, 166740, Note_on_c, 13, 71, 80
31, 166791, Note_on_c, 13, 71, 0
31, 166800, Note_on_c, 13, 71, 80
31, 166851, Note_on_c, 13, 71, 0
31, 166860, Note_on_c, 13, 76, 80
31, 166911, Note_on_c, 13, 76, 0
31, 166920, Note_on_c, 13, 74, 80
31, 166971, Note_on_c, 13, 74, 0
31, 166980, Note_on_c, 13, 71, 80
31, 167031, Note_on_c, 13, 71, 0
31, 167040, Note_on_c, 13, 71, 80
31, 167091, Note_on_c, 13, 71, 0
31, 167100, Note_on_c, 13, 78, 80
31, 167151, Note_on_c, 13, 78, 0
31, 167160, Note_on_c, 13, 76, 80
31, 167211, Note_on_c, 13, 76, 0
31, 167220, Note_on_c, 13, 71, 80
31, 167271, Note_on_c, 13, 71, 0
31, 167280, Note_on_c, 13, 71, 80
31, 167331, Note_on_c, 13, 71, 0
31, 167340, Note_on_c, 13, 76, 80
31, 167391, Note_on_c, 13, 76, 0
31, 167400, Note_on_c, 13, 74, 80
31, 167451, Note_on_c, 13, 74, 0
31, 167460, Note_on_c, 13, 71, 80
31, 167511, Note_on_c, 13, 71, 0
31, 167520, Note_on_c, 13, 71, 80
31, 167571, Note_on_c, 13, 71, 0
31, 167580, Note_on_c, 13, 78, 80
31, 167631, Note_on_c, 13, 78, 0
31, 167640, Note_on_c, 13, 76, 80
31, 167691, Note_on_c, 13, 76, 0
31, 167700, Note_on_c, 13, 71, 80
31, 167751, Note_on_c, 13, 71, 0
31, 167760, Note_on_c, 13, 71, 80
31, 167811, Note_on_c, 13, 71, 0
31, 167820, Note_on_c, 13, 76, 80
31, 167871, Note_on_c, 13, 76, 0
31, 167880, Note_on_c, 13, 74, 80
31, 167931, Note_on_c, 13, 74, 0
31, 167940, Note_on_c, 13, 71, 80
31, 167991, Note_on_c, 13, 71, 0
31, 168000, Note_on_c, 13, 71, 80
31, 168051, Note_on_c, 13, 71, 0
31, 168060, Note_on_c, 13, 78, 80
31, 168111, Note_on_c, 13, 78, 0
31, 168120, Note_on_c, 13, 76, 80
31, 168171, Note_on_c, 13, 76, 0
31, 168180, Note_on_c, 13, 71, 80
31, 168231, Note_on_c, 13, 71, 0
31, 168240, Note_on_c, 13, 73, 80
31, 168291, Note_on_c, 13, 73, 0
31, 168300, Note_on_c, 13, 73, 80
31, 168351, Note_on_c, 13, 73, 0
31, 168360, Note_on_c, 13, 73, 80
31, 168411, Note_on_c, 13, 73, 0
31, 168420, Note_on_c, 13, 73, 80
31, 168471, Note_on_c, 13, 73, 0
31, 168480, Note_on_c, 13, 73, 80
31, 168531, Note_on_c, 13, 73, 0
31, 168540, Note_on_c, 13, 73, 80
31, 168591, Note_on_c, 13, 73, 0
31, 168600, Note_on_c, 13, 74, 80
31, 168651, Note_on_c, 13, 74, 0
31, 168660, Note_on_c, 13, 76, 80
31, 168711, Note_on_c, 13, 76, 0
31, 168720, Note_on_c, 13, 78, 80
31, 168771, Note_on_c, 13, 78, 0
31, 168780, Note_on_c, 13, 66, 80
31, 168831, Note_on_c, 13, 66, 0
31, 168840, Note_on_c, 13, 78, 80
31, 168891, Note_on_c, 13, 78, 0
31, 168900, Note_on_c, 13, 78, 80
31, 168951, Note_on_c, 13, 78, 0
31, 168960, Note_on_c, 13, 78, 80
31, 169011, Note_on_c, 13, 78, 0
31, 169020, Note_on_c, 13, 78, 80
31, 169071, Note_on_c, 13, 78, 0
31, 169080, Note_on_c, 13, 76, 80
31, 169131, Note_on_c, 13, 76, 0
31, 169140, Note_on_c, 13, 74, 80
31, 169191, Note_on_c, 13, 74, 0
31, 169200, Note_on_c, 13, 76, 80
31, 169251, Note_on_c, 13, 76, 0
31, 169260, Note_on_c, 13, 76, 80
31, 169311, Note_on_c, 13, 76, 0
31, 169320, Note_on_c, 13, 76, 80
31, 169371, Note_on_c, 13, 76, 0
31, 169380, Note_on_c, 13, 76, 80
31, 169431, Note_on_c, 13, 76, 0
31, 169440, Note_on_c, 13, 76, 80
31, 169491, Note_on_c, 13, 76, 0
31, 169500, Note_on_c, 13, 76, 80
31, 169551, Note_on_c, 13, 76, 0
31, 169560, Note_on_c, 13, 69, 80
31, 169611, Note_on_c, 13, 69, 0
31, 169620, Note_on_c, 13, 69, 80
31, 169671, Note_on_c, 13, 69, 0
31, 169680, Note_on_c, 13, 71, 80
31, 169731, Note_on_c, 13, 71, 0
31, 169740, Note_on_c, 13, 71, 80
31, 169791, Note_on_c, 13, 71, 0
31, 169800, Note_on_c, 13, 71, 80
31, 169851, Note_on_c, 13, 71, 0
31, 169860, Note_on_c, 13, 71, 80
31, 169911, Note_on_c, 13, 71, 0
31, 169920, Note_on_c, 13, 73, 80
31, 169971, Note_on_c, 13, 73, 0
31, 169980, Note_on_c, 13, 73, 80
31, 170031, Note_on_c, 13, 73, 0
31, 170040, Note_on_c, 13, 74, 80
31, 170091, Note_on_c, 13, 74, 0
31, 170100, Note_on_c, 13, 74, 80
31, 170151, Note_on_c, 13, 74, 0
31, 170160, Note_on_c, 12, 69, 92
31, 170160, Note_on_c, 12, 81, 92
31, 170219, Note_on_c, 12, 69, 0
31, 170219, Note_on_c, 12, 81, 0
31, 170220, Note_on_c, 12, 69, 80
31, 170220, Note_on_c, 12, 81, 80
31, 170624, Note_on_c, 12, 69, 0
31, 170624, Note_on_c, 12, 81, 0
31, 170640, Note_on_c, 12, 76, 80
31, 170819, Note_on_c, 12, 76, 0
31, 170880, Note_on_c, 12, 76, 80
31, 171059, Note_on_c, 12, 76, 0
31, 171120, Note_on_c, 12, 69, 80
31, 171209, Note_on_c, 12, 69, 0
31, 171240, Note_on_c, 12, 69, 80
31, 171299, Note_on_c, 12, 69, 0
31, 171300, Note_on_c, 12, 71, 80
31, 171351, Note_on_c, 12, 71, 0
31, 171360, Note_on_c, 12, 73, 80
31, 171449, Note_on_c, 12, 73, 0
31, 171480, Note_on_c, 12, 73, 80
31, 171539, Note_on_c, 12, 73, 0
31, 171540, Note_on_c, 12, 74, 80
31, 171591, Note_on_c, 12, 74, 0
31, 171600, Note_on_c, 12, 76, 80
31, 171689, Note_on_c, 12, 76, 0
31, 171720, Note_on_c, 12, 76, 80
31, 171779, Note_on_c, 12, 76, 0
31, 171780, Note_on_c, 12, 78, 80
31, 171831, Note_on_c, 12, 78, 0
31, 171840, Note_on_c, 12, 80, 80
31, 171929, Note_on_c, 12, 80, 0
31, 171960, Note_on_c, 12, 76, 80
31, 171999, Note_on_c, 12, 76, 0
31, 172000, Note_on_c, 12, 78, 80
31, 172039, Note_on_c, 12, 78, 0
31, 172040, Note_on_c, 12, 80, 80
31, 172073, Note_on_c, 12, 80, 0
31, 172080, Note_on_c, 13, 64, 44
31, 172319, Note_on_c, 13, 64, 0
31, 172320, Note_on_c, 13, 69, 44
31, 172799, Note_on_c, 13, 69, 0
31, 172800, Note_on_c, 13, 68, 44
31, 172919, Note_on_c, 13, 68, 0
31, 172920, Note_on_c, 13, 67, 44
31, 173024, Note_on_c, 13, 67, 0
31, 173040, Note_on_c, 13, 70, 44
31, 173159, Note_on_c, 13, 70, 0
31, 173160, Note_on_c, 13, 66, 44
31, 173279, Note_on_c, 13, 66, 0
31, 173280, Note_on_c, 13, 71, 44
31, 173759, Note_on_c, 13, 71, 0
31, 173760, Note_on_c, 13, 70, 44
31, 173984, Note_on_c, 13, 70, 0
31, 174000, Note_on_c, 13, 63, 44
31, 174704, Note_on_c, 13, 63, 0
31, 174720, Note_on_c, 13, 62, 44
31, 174824, Note_on_c, 13, 62, 0
31, 174840, Note_on_c, 13, 62, 80
31, 174840, Note_on_c, 13, 74, 80
31, 174944, Note_on_c, 13, 62, 0
31, 174944, Note_on_c, 13, 74, 0
31, 174960, Note_on_c, 13, 61, 80
31, 175011, Note_on_c, 13, 61, 0
31, 175020, Note_on_c, 13, 69, 80
31, 175071, Note_on_c, 13, 69, 0
31, 175080, Note_on_c, 13, 69, 80
31, 175131, Note_on_c, 13, 69, 0
31, 175140, Note_on_c, 13, 69, 80
31, 175191, Note_on_c, 13, 69, 0
31, 175200, Note_on_c, 13, 69, 80
31, 175251, Note_on_c, 13, 69, 0
31, 175260, Note_on_c, 13, 69, 80
31, 175311, Note_on_c, 13, 69, 0
31, 175320, Note_on_c, 13, 69, 80
31, 175371, Note_on_c, 13, 69, 0
31, 175380, Note_on_c, 13, 69, 80
31, 175431, Note_on_c, 13, 69, 0
31, 175440, Note_on_c, 13, 69, 80
31, 175491, Note_on_c, 13, 69, 0
31, 175500, Note_on_c, 13, 73, 80
31, 175551, Note_on_c, 13, 73, 0
31, 175560, Note_on_c, 13, 73, 80
31, 175611, Note_on_c, 13, 73, 0
31, 175620, Note_on_c, 13, 73, 80
31, 175671, Note_on_c, 13, 73, 0
31, 175680, Note_on_c, 13, 74, 80
31, 175731, Note_on_c, 13, 74, 0
31, 175740, Note_on_c, 13, 74, 80
31, 175791, Note_on_c, 13, 74, 0
31, 175800, Note_on_c, 13, 74, 80
31, 175851, Note_on_c, 13, 74, 0
31, 175860, Note_on_c, 13, 74, 80
31, 175911, Note_on_c, 13, 74, 0
31, 175920, Note_on_c, 13, 74, 80
31, 175971, Note_on_c, 13, 74, 0
31, 175980, Note_on_c, 13, 74, 80
31, 176031, Note_on_c, 13, 74, 0
31, 176040, Note_on_c, 13, 68, 80
31, 176091, Note_on_c, 13, 68, 0
31, 176100, Note_on_c, 13, 68, 80
31, 176151, Note_on_c, 13, 68, 0
31, 176160, Note_on_c, 13, 74, 80
31, 176211, Note_on_c, 13, 74, 0
31, 176220, Note_on_c, 13, 74, 80
31, 176271, Note_on_c, 13, 74, 0
31, 176280, Note_on_c, 13, 68, 80
31, 176331, Note_on_c, 13, 68, 0
31, 176340, Note_on_c, 13, 68, 80
31, 176391, Note_on_c, 13, 68, 0
31, 176400, Note_on_c, 13, 73, 80
31, 176451, Note_on_c, 13, 73, 0
31, 176460, Note_on_c, 13, 73, 80
31, 176511, Note_on_c, 13, 73, 0
31, 176520, Note_on_c, 13, 69, 80
31, 176571, Note_on_c, 13, 69, 0
31, 176580, Note_on_c, 13, 69, 80
31, 176631, Note_on_c, 13, 69, 0
31, 176640, Note_on_c, 13, 73, 80
31, 176640, Note_on_c, 13, 64, 80
31, 176640, Note_on_c, 13, 81, 80
31, 176819, Note_on_c, 13, 73, 0
31, 176819, Note_on_c, 13, 64, 0
31, 176819, Note_on_c, 13, 81, 0
31, 177360, Note_on_c, 13, 79, 92
31, 177360, Note_on_c, 13, 76, 92
31, 177939, Note_on_c, 13, 79, 0
31, 177939, Note_on_c, 13, 76, 0
31, 177960, Note_on_c, 13, 77, 92
31, 177960, Note_on_c, 13, 74, 92
31, 178049, Note_on_c, 13, 77, 0
31, 178049, Note_on_c, 13, 74, 0
31, 178080, Note_on_c, 13, 74, 92
31, 178080, Note_on_c, 13, 77, 92
31, 178169, Note_on_c, 13, 74, 0
31, 178169, Note_on_c, 13, 77, 0
31, 178200, Note_on_c, 13, 86, 92
31, 178289, Note_on_c, 13, 86, 0
31, 178320, Note_on_c, 13, 86, 92
31, 178409, Note_on_c, 13, 86, 0
31, 178440, Note_on_c, 13, 77, 92
31, 178529, Note_on_c, 13, 77, 0
31, 178560, Note_on_c, 13, 77, 92
31, 178649, Note_on_c, 13, 77, 0
31, 178680, Note_on_c, 13, 81, 92
31, 178769, Note_on_c, 13, 81, 0
31, 178800, Note_on_c, 13, 81, 92
31, 178889, Note_on_c, 13, 81, 0
31, 178920, Note_on_c, 13, 74, 92
31, 179009, Note_on_c, 13, 74, 0
31, 179040, Note_on_c, 13, 74, 92
31, 179129, Note_on_c, 13, 74, 0
31, 179160, Note_on_c, 13, 77, 92
31, 179249, Note_on_c, 13, 77, 0
31, 179280, Note_on_c, 13, 77, 92
31, 179369, Note_on_c, 13, 77, 0
31, 179400, Note_on_c, 13, 69, 92
31, 179489, Note_on_c, 13, 69, 0
31, 179520, Note_on_c, 13, 69, 92
31, 179609, Note_on_c, 13, 69, 0
31, 179640, Note_on_c, 13, 74, 92
31, 179729, Note_on_c, 13, 74, 0
31, 179760, Note_on_c, 13, 74, 92
31, 179849, Note_on_c, 13, 74, 0
31, 179880, Note_on_c, 13, 65, 92
31, 179969, Note_on_c, 13, 65, 0
31, 180000, Note_on_c, 13, 65, 92
31, 180089, Note_on_c, 13, 65, 0
31, 180120, Note_on_c, 13, 69, 92
31, 180209, Note_on_c, 13, 69, 0
31, 180240, Note_on_c, 13, 69, 92
31, 180329, Note_on_c, 13, 69, 0
31, 180360, Note_on_c, 13, 62, 92
31, 180449, Note_on_c, 13, 62, 0
31, 180480, Note_on_c, 13, 62, 92
31, 180569, Note_on_c, 13, 62, 0
31, 180600, Note_on_c, 13, 69, 92
31, 180689, Note_on_c, 13, 69, 0
31, 180720, Note_on_c, 13, 69, 92
31, 180809, Note_on_c, 13, 69, 0
31, 180840, Note_on_c, 13, 81, 92
31, 180929, Note_on_c, 13, 81, 0
31, 180960, Note_on_c, 13, 81, 92
31, 181049, Note_on_c, 13, 81, 0
31, 181080, Note_on_c, 13, 74, 92
31, 181169, Note_on_c, 13, 74, 0
31, 181200, Note_on_c, 13, 74, 92
31, 181289, Note_on_c, 13, 74, 0
31, 181320, Note_on_c, 13, 74, 92
31, 181409, Note_on_c, 13, 74, 0
31, 181440, Note_on_c, 13, 74, 92
31, 181529, Note_on_c, 13, 74, 0
31, 181560, Note_on_c, 13, 56, 92
31, 181649, Note_on_c, 13, 56, 0
31, 181680, Note_on_c, 13, 56, 92
31, 181769, Note_on_c, 13, 56, 0
31, 181800, Note_on_c, 13, 74, 92
31, 181800, Note_on_c, 13, 65, 92
31, 181889, Note_on_c, 13, 74, 0
31, 181889, Note_on_c, 13, 65, 0
31, 181920, Note_on_c, 13, 74, 92
31, 181920, Note_on_c, 13, 65, 92
31, 182099, Note_on_c, 13, 74, 0
31, 182099, Note_on_c, 13, 65, 0
31, 182160, Note_on_c, 13, 69, 92
31, 182160, Note_on_c, 13, 81, 92
31, 182339, Note_on_c, 13, 69, 0
31, 182339, Note_on_c, 13, 81, 0
31, 186480, Note_on_c, 13, 57, 44
31, 187199, Note_on_c, 13, 57, 0
31, 187200, Note_on_c, 13, 59, 44
31, 187439, Note_on_c, 13, 59, 0
31, 187440, Note_on_c, 13, 68, 44
31, 187680, Note_on_c, 13, 71, 44
31, 188399, Note_on_c, 13, 68, 0
31, 188399, Note_on_c, 13, 71, 0
31, 188400, Note_on_c, 13, 71, 44
31, 188400, Note_on_c, 13, 68, 44
31, 189119, Note_on_c, 13, 71, 0
31, 189119, Note_on_c, 13, 68, 0
31, 189120, Note_on_c, 13, 68, 44
31, 189120, Note_on_c, 13, 71, 44
31, 189839, Note_on_c, 13, 68, 0
31, 189839, Note_on_c, 13, 71, 0
31, 189840, Note_on_c, 13, 68, 44
31, 189840, Note_on_c, 13, 71, 44
31, 190559, Note_on_c, 13, 68, 0
31, 190559, Note_on_c, 13, 71, 0
31, 190560, Note_on_c, 13, 71, 44
31, 190560, Note_on_c, 13, 68, 44
31, 191279, Note_on_c, 13, 71, 0
31, 191279, Note_on_c, 13, 68, 0
31, 191280, Note_on_c, 13, 68, 44
31, 191280, Note_on_c, 13, 71, 44
31, 191999, Note_on_c, 13, 68, 0
31, 191999, Note_on_c, 13, 71, 0
31, 192480, Note_on_c, 13, 76, 80
31, 192480, Note_on_c, 13, 73, 80
31, 192659, Note_on_c, 13, 76, 0
31, 192659, Note_on_c, 13, 73, 0
31, 192720, Note_on_c, 13, 81, 80
31, 192720, Note_on_c, 13, 69, 80
31, 192824, Note_on_c, 13, 81, 0
31, 192824, Note_on_c, 13, 69, 0
31, 192840, Note_on_c, 13, 81, 80
31, 192840, Note_on_c, 13, 69, 80
31, 192944, Note_on_c, 13, 81, 0
31, 192944, Note_on_c, 13, 69, 0
31, 192960, Note_on_c, 13, 69, 80
31, 192960, Note_on_c, 13, 86, 80
31, 193199, Note_on_c, 13, 69, 0
31, 193199, Note_on_c, 13, 86, 0
31, 195840, Note_on_c, 13, 71, 44
31, 195840, Note_on_c, 13, 67, 44
31, 195959, Note_on_c, 13, 71, 0
31, 195959, Note_on_c, 13, 67, 0
31, 196080, Note_on_c, 13, 83, 80
31, 196080, Note_on_c, 13, 71, 80
31, 196199, Note_on_c, 13, 83, 0
31, 196199, Note_on_c, 13, 71, 0
31, 197520, Note_on_c, 13, 73, 80
31, 197520, Note_on_c, 13, 64, 80
31, 197520, Note_on_c, 13, 81, 80
31, 197699, Note_on_c, 13, 73, 0
31, 197699, Note_on_c, 13, 64, 0
31, 197699, Note_on_c, 13, 81, 0
31, 198720, Program_c, 13, 45
31, 199200, Note_on_c, 13, 57, 56
31, 199439, Note_on_c, 13, 57, 0
31, 199440, Note_on_c, 13, 57, 56
31, 199679, Note_on_c, 13, 57, 0
31, 201120, Note_on_c, 13, 57, 56
31, 201359, Note_on_c, 13, 57, 0
31, 201360, Note_on_c, 13, 57, 56
31, 201599, Note_on_c, 13, 57, 0
31, 201600, Note_on_c, 13, 57, 40
31, 201839, Note_on_c, 13, 57, 0
31, 201840, Note_on_c, 13, 57, 40
31, 202079, Note_on_c, 13, 57, 0
31, 202080, Note_on_c, 13, 57, 40
31, 202319, Note_on_c, 13, 57, 0
31, 202320, Note_on_c, 13, 57, 40
31, 202559, Note_on_c, 13, 57, 0
31, 202560, Note_on_c, 13, 57, 40
31, 202799, Note_on_c, 13, 57, 0
31, 202800, Note_on_c, 13, 57, 40
31, 203039, Note_on_c, 13, 57, 0
31, 203040, Note_on_c, 13, 57, 40
31, 203279, Note_on_c, 13, 57, 0
31, 203280, Note_on_c, 13, 57, 40
31, 203519, Note_on_c, 13, 57, 0
31, 203520, Note_on_c, 13, 57, 40
31, 203759, Note_on_c, 13, 57, 0
31, 203760, Note_on_c, 13, 57, 40
31, 203999, Note_on_c, 13, 57, 0
31, 204000, Note_on_c, 13, 57, 40
31, 204239, Note_on_c, 13, 57, 0
31, 204240, Note_on_c, 13, 57, 40
31, 204479, Note_on_c, 13, 57, 0
31, 204480, Note_on_c, 13, 57, 40
31, 204719, Note_on_c, 13, 57, 0
31, 204960, Note_on_c, 13, 57, 40
31, 205199, Note_on_c, 13, 57, 0
31, 205440, Note_on_c, 13, 57, 40
31, 205679, Note_on_c, 13, 57, 0
31, 205680, Note_on_c, 13, 57, 40
31, 205680, Note_on_c, 13, 62, 40
31, 205919, Note_on_c, 13, 57, 0
31, 205919, Note_on_c, 13, 62, 0
31, 205920, Note_on_c, 13, 57, 40
31, 205920, Note_on_c, 13, 64, 40
31, 206159, Note_on_c, 13, 57, 0
31, 206159, Note_on_c, 13, 64, 0
31, 206160, Note_on_c, 13, 57, 40
31, 206160, Note_on_c, 13, 66, 40
31, 206399, Note_on_c, 13, 57, 0
31, 206399, Note_on_c, 13, 66, 0
31, 206400, Note_on_c, 13, 57, 40
31, 206400, Note_on_c, 13, 66, 40
31, 206639, Note_on_c, 13, 57, 0
31, 206639, Note_on_c, 13, 66, 0
31, 206640, Note_on_c, 13, 64, 40
31, 206640, Note_on_c, 13, 57, 40
31, 206879, Note_on_c, 13, 64, 0
31, 206879, Note_on_c, 13, 57, 0
31, 206880, Note_on_c, 13, 57, 40
31, 206880, Note_on_c, 13, 62, 40
31, 207119, Note_on_c, 13, 57, 0
31, 207119, Note_on_c, 13, 62, 0
31, 207120, Note_on_c, 13, 57, 40
31, 207120, Note_on_c, 13, 67, 40
31, 207359, Note_on_c, 13, 57, 0
31, 207359, Note_on_c, 13, 67, 0
31, 207360, Note_on_c, 13, 57, 40
31, 207360, Note_on_c, 13, 66, 40
31, 207599, Note_on_c, 13, 57, 0
31, 207599, Note_on_c, 13, 66, 0
31, 207600, Note_on_c, 13, 57, 40
31, 207839, Note_on_c, 13, 57, 0
31, 207840, Note_on_c, 13, 57, 40
31, 208079, Note_on_c, 13, 57, 0
31, 208080, Note_on_c, 13, 57, 40
31, 208319, Note_on_c, 13, 57, 0
31, 208320, Note_on_c, 13, 57, 40
31, 208559, Note_on_c, 13, 57, 0
31, 208800, Note_on_c, 13, 57, 40
31, 209039, Note_on_c, 13, 57, 0
31, 209520, Note_on_c, 13, 57, 40
31, 209759, Note_on_c, 13, 57, 0
31, 210000, Note_on_c, 13, 57, 40
31, 210239, Note_on_c, 13, 57, 0
31, 210480, Note_on_c, 13, 57, 40
31, 210719, Note_on_c, 13, 57, 0
31, 210960, Note_on_c, 13, 57, 40
31, 211199, Note_on_c, 13, 57, 0
31, 211440, Note_on_c, 13, 57, 40
31, 211679, Note_on_c, 13, 57, 0
31, 211920, Note_on_c, 13, 57, 40
31, 212159, Note_on_c, 13, 57, 0
31, 212160, Note_on_c, 13, 57, 40
31, 212399, Note_on_c, 13, 57, 0
31, 212400, Note_on_c, 13, 57, 42
31, 212639, Note_on_c, 13, 57, 0
31, 212640, Note_on_c, 13, 57, 44
31, 212879, Note_on_c, 13, 57, 0
31, 212880, Note_on_c, 13, 57, 46
31, 213119, Note_on_c, 13, 57, 0
31, 213120, Note_on_c, 13, 57, 48
31, 213359, Note_on_c, 13, 57, 0
31, 213360, Note_on_c, 13, 57, 50
31, 213599, Note_on_c, 13, 57, 0
31, 213600, Note_on_c, 13, 57, 52
31, 213839, Note_on_c, 13, 57, 0
31, 213840, Note_on_c, 13, 57, 54
31, 214079, Note_on_c, 13, 57, 0
31, 214080, Note_on_c, 13, 57, 56
31, 214319, Note_on_c, 13, 57, 0
31, 214320, Note_on_c, 13, 57, 58
31, 214559, Note_on_c, 13, 57, 0
31, 214560, Note_on_c, 13, 57, 60
31, 214799, Note_on_c, 13, 57, 0
31, 214800, Note_on_c, 13, 57, 62
31, 215039, Note_on_c, 13, 57, 0
31, 215040, Note_on_c, 13, 57, 40
31, 215279, Note_on_c, 13, 57, 0
31, 215280, Note_on_c, 13, 57, 40
31, 215519, Note_on_c, 13, 57, 0
31, 215520, Note_on_c, 13, 57, 40
31, 215759, Note_on_c, 13, 57, 0
31, 215760, Note_on_c, 13, 57, 40
31, 215999, Note_on_c, 13, 57, 0
31, 216000, Note_on_c, 13, 57, 40
31, 216239, Note_on_c, 13, 57, 0
31, 216480, Note_on_c, 13, 57, 40
31, 216719, Note_on_c, 13, 57, 0
31, 216958, Program_c, 13, 48
31, 216960, Note_on_c, 13, 64, 80
31, 217184, Note_on_c, 13, 64, 0
31, 217200, Note_on_c, 13, 64, 80
31, 217424, Note_on_c, 13, 64, 0
31, 217440, Note_on_c, 13, 66, 80
31, 217664, Note_on_c, 13, 66, 0
31, 217680, Note_on_c, 13, 62, 80
31, 217904, Note_on_c, 13, 62, 0
31, 217920, Note_on_c, 13, 64, 80
31, 218159, Note_on_c, 13, 64, 0
31, 218160, Note_on_c, 13, 66, 80
31, 218279, Note_on_c, 13, 66, 0
31, 218280, Note_on_c, 13, 67, 80
31, 218384, Note_on_c, 13, 67, 0
31, 218400, Note_on_c, 13, 66, 80
31, 218624, Note_on_c, 13, 66, 0
31, 218640, Note_on_c, 13, 62, 80
31, 218864, Note_on_c, 13, 62, 0
31, 218880, Note_on_c, 13, 64, 80
31, 219119, Note_on_c, 13, 64, 0
31, 219120, Note_on_c, 13, 66, 80
31, 219239, Note_on_c, 13, 66, 0
31, 219240, Note_on_c, 13, 67, 80
31, 219344, Note_on_c, 13, 67, 0
31, 219360, Note_on_c, 13, 66, 80
31, 219584, Note_on_c, 13, 66, 0
31, 219600, Note_on_c, 13, 64, 80
31, 219824, Note_on_c, 13, 64, 0
31, 219840, Note_on_c, 13, 62, 80
31, 220064, Note_on_c, 13, 62, 0
31, 220080, Note_on_c, 13, 64, 80
31, 220304, Note_on_c, 13, 64, 0
31, 220320, Note_on_c, 13, 57, 80
31, 220544, Note_on_c, 13, 57, 0
31, 220560, Note_on_c, 13, 66, 80
31, 221024, Note_on_c, 13, 66, 0
31, 221040, Note_on_c, 13, 66, 80
31, 221264, Note_on_c, 13, 66, 0
31, 221280, Note_on_c, 13, 67, 80
31, 221504, Note_on_c, 13, 67, 0
31, 221520, Note_on_c, 13, 69, 80
31, 221744, Note_on_c, 13, 69, 0
31, 221760, Note_on_c, 13, 69, 80
31, 221984, Note_on_c, 13, 69, 0
31, 222000, Note_on_c, 13, 67, 80
31, 222224, Note_on_c, 13, 67, 0
31, 222240, Note_on_c, 13, 66, 80
31, 222479, Note_on_c, 13, 66, 0
31, 222480, Note_on_c, 13, 67, 80
31, 222599, Note_on_c, 13, 67, 0
31, 222600, Note_on_c, 13, 64, 80
31, 222704, Note_on_c, 13, 64, 0
31, 222720, Note_on_c, 13, 62, 80
31, 222944, Note_on_c, 13, 62, 0
31, 222960, Note_on_c, 13, 62, 80
31, 223184, Note_on_c, 13, 62, 0
31, 223200, Note_on_c, 13, 64, 80
31, 223424, Note_on_c, 13, 64, 0
31, 223440, Note_on_c, 13, 66, 80
31, 223664, Note_on_c, 13, 66, 0
31, 223680, Note_on_c, 13, 64, 80
31, 224039, Note_on_c, 13, 64, 0
31, 224040, Note_on_c, 13, 62, 80
31, 224144, Note_on_c, 13, 62, 0
31, 224160, Note_on_c, 13, 62, 80
31, 224384, Note_on_c, 13, 62, 0
31, 224400, Note_on_c, 13, 69, 80
31, 224624, Note_on_c, 13, 69, 0
31, 224640, Note_on_c, 13, 67, 80
31, 224999, Note_on_c, 13, 67, 0
31, 225000, Note_on_c, 13, 66, 80
31, 225104, Note_on_c, 13, 66, 0
31, 225120, Note_on_c, 13, 66, 80
31, 225344, Note_on_c, 13, 66, 0
31, 225360, Note_on_c, 13, 74, 80
31, 225584, Note_on_c, 13, 74, 0
31, 225600, Note_on_c, 13, 72, 80
31, 225959, Note_on_c, 13, 72, 0
31, 225960, Note_on_c, 13, 71, 80
31, 226064, Note_on_c, 13, 71, 0
31, 226080, Note_on_c, 13, 71, 80
31, 226304, Note_on_c, 13, 71, 0
31, 226320, Note_on_c, 13, 79, 80
31, 226439, Note_on_c, 13, 79, 0
31, 226440, Note_on_c, 13, 76, 80
31, 226544, Note_on_c, 13, 76, 0
31, 226560, Note_on_c, 13, 74, 80
31, 226679, Note_on_c, 13, 74, 0
31, 226680, Note_on_c, 13, 73, 80
31, 226799, Note_on_c, 13, 73, 0
31, 226800, Note_on_c, 13, 76, 80
31, 226919, Note_on_c, 13, 76, 0
31, 226920, Note_on_c, 13, 73, 80
31, 227024, Note_on_c, 13, 73, 0
31, 227040, Note_on_c, 13, 71, 80
31, 227159, Note_on_c, 13, 71, 0
31, 227160, Note_on_c, 13, 69, 80
31, 227279, Note_on_c, 13, 69, 0
31, 227280, Note_on_c, 13, 71, 80
31, 227399, Note_on_c, 13, 71, 0
31, 227400, Note_on_c, 13, 73, 80
31, 227504, Note_on_c, 13, 73, 0
31, 227520, Note_on_c, 13, 74, 80
31, 227639, Note_on_c, 13, 74, 0
31, 227640, Note_on_c, 13, 78, 80
31, 227759, Note_on_c, 13, 78, 0
31, 227760, Note_on_c, 13, 76, 80
31, 227879, Note_on_c, 13, 76, 0
31, 227880, Note_on_c, 13, 73, 80
31, 227984, Note_on_c, 13, 73, 0
31, 228000, Note_on_c, 13, 74, 80
31, 228239, Note_on_c, 13, 74, 0
31, 244320, Note_on_c, 13, 66, 80
31, 244424, Note_on_c, 13, 66, 0
31, 244440, Note_on_c, 13, 66, 80
31, 244559, Note_on_c, 13, 66, 0
31, 244560, Note_on_c, 13, 74, 80
31, 244664, Note_on_c, 13, 74, 0
31, 244680, Note_on_c, 13, 69, 80
31, 244799, Note_on_c, 13, 69, 0
31, 244800, Note_on_c, 13, 73, 80
31, 245039, Note_on_c, 13, 73, 0
31, 245280, Note_on_c, 13, 66, 80
31, 245384, Note_on_c, 13, 66, 0
31, 245400, Note_on_c, 13, 74, 80
31, 245519, Note_on_c, 13, 74, 0
31, 245520, Note_on_c, 13, 67, 80
31, 245624, Note_on_c, 13, 67, 0
31, 245640, Note_on_c, 13, 74, 80
31, 245759, Note_on_c, 13, 74, 0
31, 245760, Note_on_c, 13, 76, 80
31, 245999, Note_on_c, 13, 76, 0
31, 246120, Note_on_c, 13, 64, 80
31, 246239, Note_on_c, 13, 64, 0
31, 246240, Note_on_c, 13, 73, 80
31, 246479, Note_on_c, 13, 73, 0
31, 246600, Note_on_c, 13, 64, 80
31, 246600, Note_on_c, 13, 73, 80
31, 246719, Note_on_c, 13, 64, 0
31, 246719, Note_on_c, 13, 73, 0
31, 246720, Note_on_c, 13, 62, 80
31, 246720, Note_on_c, 13, 71, 80
31, 246959, Note_on_c, 13, 62, 0
31, 246959, Note_on_c, 13, 71, 0
31, 247080, Note_on_c, 13, 68, 80
31, 247199, Note_on_c, 13, 68, 0
31, 247200, Note_on_c, 13, 61, 80
31, 247200, Note_on_c, 13, 69, 80
31, 247304, Note_on_c, 13, 61, 0
31, 247304, Note_on_c, 13, 69, 0
31, 247320, Note_on_c, 13, 66, 80
31, 247439, Note_on_c, 13, 66, 0
31, 247440, Note_on_c, 13, 74, 80
31, 247559, Note_on_c, 13, 74, 0
31, 247800, Note_on_c, 13, 66, 81
31, 247919, Note_on_c, 13, 66, 0
31, 247920, Note_on_c, 13, 69, 83
31, 248159, Note_on_c, 13, 69, 0
31, 248280, Note_on_c, 13, 66, 87
31, 248399, Note_on_c, 13, 66, 0
31, 248400, Note_on_c, 13, 78, 89
31, 248639, Note_on_c, 13, 78, 0
31, 248760, Note_on_c, 13, 69, 92
31, 248879, Note_on_c, 13, 69, 0
31, 248880, Note_on_c, 13, 76, 92
31, 249119, Note_on_c, 13, 76, 0
31, 249240, Note_on_c, 13, 62, 68
31, 249359, Note_on_c, 13, 62, 0
31, 249360, Note_on_c, 13, 73, 60
31, 249599, Note_on_c, 13, 73, 0
31, 249720, Note_on_c, 13, 62, 44
31, 249839, Note_on_c, 13, 62, 0
31, 249840, Note_on_c, 13, 69, 44
31, 250079, Note_on_c, 13, 69, 0
31, 250200, Note_on_c, 13, 66, 44
31, 250319, Note_on_c, 13, 66, 0
31, 250320, Note_on_c, 13, 74, 44
31, 250559, Note_on_c, 13, 74, 0
31, 250680, Note_on_c, 13, 67, 44
31, 250799, Note_on_c, 13, 67, 0
31, 250800, Note_on_c, 13, 73, 44
31, 250919, Note_on_c, 13, 73, 0
31, 251160, Note_on_c, 13, 66, 44
31, 251279, Note_on_c, 13, 66, 0
31, 251280, Note_on_c, 13, 69, 44
31, 251399, Note_on_c, 13, 69, 0
31, 251640, Note_on_c, 13, 57, 44
31, 251759, Note_on_c, 13, 57, 0
31, 251760, Note_on_c, 13, 69, 44
31, 251879, Note_on_c, 13, 69, 0
31, 252120, Note_on_c, 13, 62, 44
31, 252239, Note_on_c, 13, 62, 0
31, 252240, Note_on_c, 13, 74, 44
31, 252359, Note_on_c, 13, 74, 0
31, 252600, Note_on_c, 13, 60, 44
31, 252719, Note_on_c, 13, 60, 0
31, 252720, Note_on_c, 13, 72, 44
31, 252839, Note_on_c, 13, 72, 0
31, 253080, Note_on_c, 13, 59, 44
31, 253199, Note_on_c, 13, 59, 0
31, 253200, Note_on_c, 13, 71, 44
31, 253319, Note_on_c, 13, 71, 0
31, 253560, Note_on_c, 13, 64, 44
31, 253679, Note_on_c, 13, 64, 0
31, 253680, Note_on_c, 13, 76, 44
31, 253799, Note_on_c, 13, 76, 0
31, 254040, Note_on_c, 13, 64, 44
31, 254159, Note_on_c, 13, 64, 0
31, 254160, Note_on_c, 13, 76, 44
31, 254279, Note_on_c, 13, 76, 0
31, 254400, Note_on_c, 13, 74, 44
31, 254519, Note_on_c, 13, 74, 0
31, 254640, Note_on_c, 13, 76, 44
31, 254640, Note_on_c, 13, 69, 44
31, 254759, Note_on_c, 13, 76, 0
31, 254759, Note_on_c, 13, 69, 0
31, 254880, Note_on_c, 13, 69, 44
31, 254880, Note_on_c, 13, 78, 44
31, 254880, Note_on_c, 13, 62, 44
31, 254999, Note_on_c, 13, 69, 0
31, 254999, Note_on_c, 13, 78, 0
31, 254999, Note_on_c, 13, 62, 0
31, 259440, Note_on_c, 13, 66, 44
31, 259469, Note_on_c, 13, 66, 0
31, 259470, Note_on_c, 13, 67, 44
31, 259499, Note_on_c, 13, 67, 0
31, 259500, Note_on_c, 13, 66, 44
31, 259529, Note_on_c, 13, 66, 0
31, 259530, Note_on_c, 13, 67, 44
31, 259559, Note_on_c, 13, 67, 0
31, 259560, Note_on_c, 13, 66, 44
31, 259589, Note_on_c, 13, 66, 0
31, 259590, Note_on_c, 13, 67, 44
31, 259619, Note_on_c, 13, 67, 0
31, 259620, Note_on_c, 13, 64, 44
31, 259649, Note_on_c, 13, 64, 0
31, 259650, Note_on_c, 13, 66, 44
31, 259679, Note_on_c, 13, 66, 0
31, 259920, Note_on_c, 13, 74, 44
31, 259949, Note_on_c, 13, 74, 0
31, 259950, Note_on_c, 13, 76, 44
31, 259979, Note_on_c, 13, 76, 0
31, 259980, Note_on_c, 13, 74, 44
31, 260009, Note_on_c, 13, 74, 0
31, 260010, Note_on_c, 13, 76, 44
31, 260039, Note_on_c, 13, 76, 0
31, 260040, Note_on_c, 13, 74, 44
31, 260069, Note_on_c, 13, 74, 0
31, 260070, Note_on_c, 13, 76, 44
31, 260099, Note_on_c, 13, 76, 0
31, 260100, Note_on_c, 13, 73, 44
31, 260129, Note_on_c, 13, 73, 0
31, 260130, Note_on_c, 13, 74, 44
31, 260159, Note_on_c, 13, 74, 0
31, 260400, Note_on_c, 13, 71, 44
31, 260429, Note_on_c, 13, 71, 0
31, 260430, Note_on_c, 13, 72, 44
31, 260459, Note_on_c, 13, 72, 0
31, 260460, Note_on_c, 13, 71, 44
31, 260489, Note_on_c, 13, 71, 0
31, 260490, Note_on_c, 13, 72, 44
31, 260519, Note_on_c, 13, 72, 0
31, 260520, Note_on_c, 13, 71, 44
31, 260549, Note_on_c, 13, 71, 0
31, 260550, Note_on_c, 13, 72, 44
31, 260579, Note_on_c, 13, 72, 0
31, 260580, Note_on_c, 13, 69, 44
31, 260609, Note_on_c, 13, 69, 0
31, 260610, Note_on_c, 13, 71, 44
31, 260639, Note_on_c, 13, 71, 0
31, 260880, Note_on_c, 13, 67, 44
31, 260909, Note_on_c, 13, 67, 0
31, 260910, Note_on_c, 13, 69, 44
31, 260939, Note_on_c, 13, 69, 0
31, 260940, Note_on_c, 13, 67, 44
31, 260969, Note_on_c, 13, 67, 0
31, 260970, Note_on_c, 13, 69, 44
31, 260999, Note_on_c, 13, 69, 0
31, 261000, Note_on_c, 13, 67, 44
31, 261029, Note_on_c, 13, 67, 0
31, 261030, Note_on_c, 13, 69, 44
31, 261059, Note_on_c, 13, 69, 0
31, 261060, Note_on_c, 13, 66, 44
31, 261089, Note_on_c, 13, 66, 0
31, 261090, Note_on_c, 13, 67, 44
31, 261119, Note_on_c, 13, 67, 0
31, 263760, Note_on_c, 13, 69, 44
31, 263789, Note_on_c, 13, 69, 0
31, 263790, Note_on_c, 13, 71, 44
31, 263819, Note_on_c, 13, 71, 0
31, 263820, Note_on_c, 13, 69, 44
31, 263849, Note_on_c, 13, 69, 0
31, 263850, Note_on_c, 13, 71, 44
31, 263879, Note_on_c, 13, 71, 0
31, 263880, Note_on_c, 13, 69, 44
31, 263909, Note_on_c, 13, 69, 0
31, 263910, Note_on_c, 13, 71, 44
31, 263939, Note_on_c, 13, 71, 0
31, 263940, Note_on_c, 13, 68, 44
31, 263969, Note_on_c, 13, 68, 0
31, 263970, Note_on_c, 13, 69, 44
31, 263999, Note_on_c, 13, 69, 0
31, 264240, Note_on_c, 13, 69, 44
31, 264269, Note_on_c, 13, 69, 0
31, 264270, Note_on_c, 13, 71, 44
31, 264299, Note_on_c, 13, 71, 0
31, 264300, Note_on_c, 13, 69, 44
31, 264329, Note_on_c, 13, 69, 0
31, 264330, Note_on_c, 13, 71, 44
31, 264359, Note_on_c, 13, 71, 0
31, 264360, Note_on_c, 13, 69, 44
31, 264389, Note_on_c, 13, 69, 0
31, 264390, Note_on_c, 13, 71, 44
31, 264419, Note_on_c, 13, 71, 0
31, 264420, Note_on_c, 13, 68, 44
31, 264449, Note_on_c, 13, 68, 0
31, 264450, Note_on_c, 13, 69, 44
31, 264479, Note_on_c, 13, 69, 0
31, 264720, Note_on_c, 13, 69, 44
31, 264749, Note_on_c, 13, 69, 0
31, 264750, Note_on_c, 13, 71, 44
31, 264779, Note_on_c, 13, 71, 0
31, 264780, Note_on_c, 13, 69, 44
31, 264809, Note_on_c, 13, 69, 0
31, 264810, Note_on_c, 13, 71, 44
31, 264839, Note_on_c, 13, 71, 0
31, 264840, Note_on_c, 13, 69, 44
31, 264869, Note_on_c, 13, 69, 0
31, 264870, Note_on_c, 13, 71, 44
31, 264899, Note_on_c, 13, 71, 0
31, 264900, Note_on_c, 13, 68, 44
31, 264929, Note_on_c, 13, 68, 0
31, 264930, Note_on_c, 13, 69, 44
31, 264959, Note_on_c, 13, 69, 0
31, 265680, Note_on_c, 13, 66, 44
31, 265709, Note_on_c, 13, 66, 0
31, 265710, Note_on_c, 13, 67, 44
31, 265739, Note_on_c, 13, 67, 0
31, 265740, Note_on_c, 13, 66, 44
31, 265769, Note_on_c, 13, 66, 0
31, 265770, Note_on_c, 13, 67, 44
31, 265799, Note_on_c, 13, 67, 0
31, 265800, Note_on_c, 13, 66, 44
31, 265829, Note_on_c, 13, 66, 0
31, 265830, Note_on_c, 13, 67, 44
31, 265859, Note_on_c, 13, 67, 0
31, 265860, Note_on_c, 13, 64, 44
31, 265889, Note_on_c, 13, 64, 0
31, 265890, Note_on_c, 13, 66, 44
31, 265919, Note_on_c, 13, 66, 0
31, 266160, Note_on_c, 13, 64, 44
31, 266189, Note_on_c, 13, 64, 0
31, 266190, Note_on_c, 13, 66, 44
31, 266219, Note_on_c, 13, 66, 0
31, 266220, Note_on_c, 13, 64, 44
31, 266249, Note_on_c, 13, 64, 0
31, 266250, Note_on_c, 13, 66, 44
31, 266279, Note_on_c, 13, 66, 0
31, 266280, Note_on_c, 13, 64, 44
31, 266309, Note_on_c, 13, 64, 0
31, 266310, Note_on_c, 13, 66, 44
31, 266339, Note_on_c, 13, 66, 0
31, 266340, Note_on_c, 13, 63, 44
31, 266369, Note_on_c, 13, 63, 0
31, 266370, Note_on_c, 13, 64, 44
31, 266399, Note_on_c, 13, 64, 0
31, 266640, Note_on_c, 13, 69, 44
31, 266669, Note_on_c, 13, 69, 0
31, 266670, Note_on_c, 13, 71, 44
31, 266699, Note_on_c, 13, 71, 0
31, 266700, Note_on_c, 13, 69, 44
31, 266729, Note_on_c, 13, 69, 0
31, 266730, Note_on_c, 13, 71, 44
31, 266759, Note_on_c, 13, 71, 0
31, 266760, Note_on_c, 13, 69, 44
31, 266789, Note_on_c, 13, 69, 0
31, 266790, Note_on_c, 13, 71, 44
31, 266819, Note_on_c, 13, 71, 0
31, 266820, Note_on_c, 13, 68, 44
31, 266849, Note_on_c, 13, 68, 0
31, 266850, Note_on_c, 13, 69, 44
31, 266879, Note_on_c, 13, 69, 0
31, 267120, Note_on_c, 13, 69, 47
31, 267149, Note_on_c, 13, 69, 0
31, 267150, Note_on_c, 13, 71, 48
31, 267179, Note_on_c, 13, 71, 0
31, 267180, Note_on_c, 13, 69, 48
31, 267209, Note_on_c, 13, 69, 0
31, 267210, Note_on_c, 13, 71, 48
31, 267239, Note_on_c, 13, 71, 0
31, 267240, Note_on_c, 13, 69, 49
31, 267269, Note_on_c, 13, 69, 0
31, 267270, Note_on_c, 13, 71, 49
31, 267299, Note_on_c, 13, 71, 0
31, 267300, Note_on_c, 13, 68, 50
31, 267329, Note_on_c, 13, 68, 0
31, 267330, Note_on_c, 13, 69, 50
31, 267359, Note_on_c, 13, 69, 0
31, 267600, Note_on_c, 13, 69, 54
31, 267629, Note_on_c, 13, 69, 0
31, 267630, Note_on_c, 13, 71, 55
31, 267659, Note_on_c, 13, 71, 0
31, 267660, Note_on_c, 13, 69, 55
31, 267689, Note_on_c, 13, 69, 0
31, 267690, Note_on_c, 13, 71, 56
31, 267719, Note_on_c, 13, 71, 0
31, 267720, Note_on_c, 13, 69, 56
31, 267749, Note_on_c, 13, 69, 0
31, 267750, Note_on_c, 13, 71, 57
31, 267779, Note_on_c, 13, 71, 0
31, 267780, Note_on_c, 13, 68, 57
31, 267809, Note_on_c, 13, 68, 0
31, 267810, Note_on_c, 13, 69, 57
31, 267839, Note_on_c, 13, 69, 0
31, 268080, Note_on_c, 13, 71, 62
31, 268109, Note_on_c, 13, 71, 0
31, 268110, Note_on_c, 13, 72, 62
31, 268139, Note_on_c, 13, 72, 0
31, 268140, Note_on_c, 13, 71, 62
31, 268169, Note_on_c, 13, 71, 0
31, 268170, Note_on_c, 13, 72, 63
31, 268199, Note_on_c, 13, 72, 0
31, 268200, Note_on_c, 13, 71, 63
31, 268229, Note_on_c, 13, 71, 0
31, 268230, Note_on_c, 13, 72, 64
31, 268259, Note_on_c, 13, 72, 0
31, 268260, Note_on_c, 13, 69, 64
31, 268289, Note_on_c, 13, 69, 0
31, 268290, Note_on_c, 13, 71, 65
31, 268319, Note_on_c, 13, 71, 0
31, 268560, Note_on_c, 13, 73, 69
31, 268589, Note_on_c, 13, 73, 0
31, 268590, Note_on_c, 13, 74, 69
31, 268619, Note_on_c, 13, 74, 0
31, 268620, Note_on_c, 13, 73, 70
31, 268649, Note_on_c, 13, 73, 0
31, 268650, Note_on_c, 13, 74, 70
31, 268679, Note_on_c, 13, 74, 0
31, 268680, Note_on_c, 13, 73, 71
31, 268709, Note_on_c, 13, 73, 0
31, 268710, Note_on_c, 13, 74, 71
31, 268739, Note_on_c, 13, 74, 0
31, 268740, Note_on_c, 13, 71, 71
31, 268769, Note_on_c, 13, 71, 0
31, 268770, Note_on_c, 13, 73, 72
31, 268799, Note_on_c, 13, 73, 0
31, 269040, Note_on_c, 13, 74, 76
31, 269069, Note_on_c, 13, 74, 0
31, 269070, Note_on_c, 13, 76, 76
31, 269099, Note_on_c, 13, 76, 0
31, 269100, Note_on_c, 13, 74, 77
31, 269129, Note_on_c, 13, 74, 0
31, 269130, Note_on_c, 13, 76, 77
31, 269159, Note_on_c, 13, 76, 0
31, 269160, Note_on_c, 13, 74, 78
31, 269189, Note_on_c, 13, 74, 0
31, 269190, Note_on_c, 13, 76, 78
31, 269219, Note_on_c, 13, 76, 0
31, 269220, Note_on_c, 13, 73, 79
31, 269249, Note_on_c, 13, 73, 0
31, 269250, Note_on_c, 13, 74, 79
31, 269279, Note_on_c, 13, 74, 0
31, 269280, Note_on_c, 13, 69, 80
31, 269519, Note_on_c, 13, 69, 0
31, 269640, Note_on_c, 13, 69, 80
31, 269744, Note_on_c, 13, 69, 0
31, 269760, Note_on_c, 13, 67, 80
31, 269999, Note_on_c, 13, 67, 0
31, 270120, Note_on_c, 13, 74, 80
31, 270120, Note_on_c, 13, 66, 80
31, 270224, Note_on_c, 13, 74, 0
31, 270224, Note_on_c, 13, 66, 0
31, 270240, Note_on_c, 13, 74, 80
31, 270240, Note_on_c, 13, 66, 80
31, 270479, Note_on_c, 13, 74, 0
31, 270479, Note_on_c, 13, 66, 0
31, 270960, Note_on_c, 13, 73, 80
31, 270989, Note_on_c, 13, 73, 0
31, 270990, Note_on_c, 13, 74, 80
31, 271019, Note_on_c, 13, 74, 0
31, 271020, Note_on_c, 13, 73, 80
31, 271049, Note_on_c, 13, 73, 0
31, 271050, Note_on_c, 13, 74, 80
31, 271079, Note_on_c, 13, 74, 0
31, 271080, Note_on_c, 13, 73, 80
31, 271109, Note_on_c, 13, 73, 0
31, 271110, Note_on_c, 13, 74, 80
31, 271139, Note_on_c, 13, 74, 0
31, 271140, Note_on_c, 13, 71, 80
31, 271169, Note_on_c, 13, 71, 0
31, 271170, Note_on_c, 13, 73, 80
31, 271199, Note_on_c, 13, 73, 0
31, 271440, Note_on_c, 13, 74, 80
31, 271469, Note_on_c, 13, 74, 0
31, 271470, Note_on_c, 13, 76, 80
31, 271499, Note_on_c, 13, 76, 0
31, 271500, Note_on_c, 13, 74, 80
31, 271529, Note_on_c, 13, 74, 0
31, 271530, Note_on_c, 13, 76, 80
31, 271559, Note_on_c, 13, 76, 0
31, 271560, Note_on_c, 13, 74, 80
31, 271589, Note_on_c, 13, 74, 0
31, 271590, Note_on_c, 13, 76, 80
31, 271619, Note_on_c, 13, 76, 0
31, 271620, Note_on_c, 13, 73, 80
31, 271649, Note_on_c, 13, 73, 0
31, 271650, Note_on_c, 13, 74, 80
31, 271679, Note_on_c, 13, 74, 0
31, 271920, Note_on_c, 13, 73, 80
31, 271949, Note_on_c, 13, 73, 0
31, 271950, Note_on_c, 13, 74, 80
31, 271979, Note_on_c, 13, 74, 0
31, 271980, Note_on_c, 13, 73, 80
31, 272009, Note_on_c, 13, 73, 0
31, 272010, Note_on_c, 13, 74, 80
31, 272039, Note_on_c, 13, 74, 0
31, 272040, Note_on_c, 13, 73, 80
31, 272069, Note_on_c, 13, 73, 0
31, 272070, Note_on_c, 13, 74, 80
31, 272099, Note_on_c, 13, 74, 0
31, 272100, Note_on_c, 13, 71, 80
31, 272129, Note_on_c, 13, 71, 0
31, 272130, Note_on_c, 13, 73, 80
31, 272159, Note_on_c, 13, 73, 0
31, 272400, Note_on_c, 13, 74, 80
31, 272429, Note_on_c, 13, 74, 0
31, 272430, Note_on_c, 13, 76, 80
31, 272459, Note_on_c, 13, 76, 0
31, 272460, Note_on_c, 13, 74, 80
31, 272489, Note_on_c, 13, 74, 0
31, 272490, Note_on_c, 13, 76, 80
31, 272519, Note_on_c, 13, 76, 0
31, 272520, Note_on_c, 13, 74, 80
31, 272549, Note_on_c, 13, 74, 0
31, 272550, Note_on_c, 13, 76, 80
31, 272579, Note_on_c, 13, 76, 0
31, 272580, Note_on_c, 13, 73, 80
31, 272609, Note_on_c, 13, 73, 0
31, 272610, Note_on_c, 13, 74, 80
31, 272639, Note_on_c, 13, 74, 0
31, 272880, Note_on_c, 13, 73, 80
31, 272909, Note_on_c, 13, 73, 0
31, 272910, Note_on_c, 13, 74, 80
31, 272939, Note_on_c, 13, 74, 0
31, 272940, Note_on_c, 13, 73, 80
31, 272969, Note_on_c, 13, 73, 0
31, 272970, Note_on_c, 13, 74, 80
31, 272999, Note_on_c, 13, 74, 0
31, 273000, Note_on_c, 13, 73, 80
31, 273029, Note_on_c, 13, 73, 0
31, 273030, Note_on_c, 13, 74, 80
31, 273059, Note_on_c, 13, 74, 0
31, 273060, Note_on_c, 13, 71, 80
31, 273089, Note_on_c, 13, 71, 0
31, 273090, Note_on_c, 13, 73, 80
31, 273119, Note_on_c, 13, 73, 0
31, 273360, Note_on_c, 13, 66, 80
31, 273389, Note_on_c, 13, 66, 0
31, 273390, Note_on_c, 13, 67, 80
31, 273419, Note_on_c, 13, 67, 0
31, 273420, Note_on_c, 13, 66, 80
31, 273449, Note_on_c, 13, 66, 0
31, 273450, Note_on_c, 13, 67, 80
31, 273479, Note_on_c, 13, 67, 0
31, 273480, Note_on_c, 13, 66, 80
31, 273509, Note_on_c, 13, 66, 0
31, 273510, Note_on_c, 13, 67, 80
31, 273539, Note_on_c, 13, 67, 0
31, 273540, Note_on_c, 13, 64, 80
31, 273569, Note_on_c, 13, 64, 0
31, 273570, Note_on_c, 13, 66, 80
31, 273599, Note_on_c, 13, 66, 0
31, 273840, Note_on_c, 13, 74, 80
31, 273869, Note_on_c, 13, 74, 0
31, 273870, Note_on_c, 13, 76, 80
31, 273899, Note_on_c, 13, 76, 0
31, 273900, Note_on_c, 13, 74, 80
31, 273929, Note_on_c, 13, 74, 0
31, 273930, Note_on_c, 13, 76, 80
31, 273959, Note_on_c, 13, 76, 0
31, 273960, Note_on_c, 13, 74, 80
31, 273989, Note_on_c, 13, 74, 0
31, 273990, Note_on_c, 13, 76, 80
31, 274019, Note_on_c, 13, 76, 0
31, 274020, Note_on_c, 13, 73, 80
31, 274049, Note_on_c, 13, 73, 0
31, 274050, Note_on_c, 13, 74, 80
31, 274079, Note_on_c, 13, 74, 0
31, 274320, Note_on_c, 13, 69, 80
31, 274349, Note_on_c, 13, 69, 0
31, 274350, Note_on_c, 13, 71, 80
31, 274379, Note_on_c, 13, 71, 0
31, 274380, Note_on_c, 13, 69, 80
31, 274409, Note_on_c, 13, 69, 0
31, 274410, Note_on_c, 13, 71, 80
31, 274439, Note_on_c, 13, 71, 0
31, 274440, Note_on_c, 13, 69, 80
31, 274469, Note_on_c, 13, 69, 0
31, 274470, Note_on_c, 13, 71, 80
31, 274499, Note_on_c, 13, 71, 0
31, 274500, Note_on_c, 13, 68, 80
31, 274529, Note_on_c, 13, 68, 0
31, 274530, Note_on_c, 13, 69, 80
31, 274559, Note_on_c, 13, 69, 0
31, 274800, Note_on_c, 13, 66, 81
31, 274829, Note_on_c, 13, 66, 0
31, 274830, Note_on_c, 13, 67, 81
31, 274859, Note_on_c, 13, 67, 0
31, 274860, Note_on_c, 13, 66, 81
31, 274889, Note_on_c, 13, 66, 0
31, 274890, Note_on_c, 13, 67, 81
31, 274919, Note_on_c, 13, 67, 0
31, 274920, Note_on_c, 13, 66, 81
31, 274949, Note_on_c, 13, 66, 0
31, 274950, Note_on_c, 13, 67, 81
31, 274979, Note_on_c, 13, 67, 0
31, 274980, Note_on_c, 13, 64, 82
31, 275009, Note_on_c, 13, 64, 0
31, 275010, Note_on_c, 13, 66, 82
31, 275039, Note_on_c, 13, 66, 0
31, 275280, Note_on_c, 13, 74, 83
31, 275309, Note_on_c, 13, 74, 0
31, 275310, Note_on_c, 13, 76, 83
31, 275339, Note_on_c, 13, 76, 0
31, 275340, Note_on_c, 13, 74, 83
31, 275369, Note_on_c, 13, 74, 0
31, 275370, Note_on_c, 13, 76, 84
31, 275399, Note_on_c, 13, 76, 0
31, 275400, Note_on_c, 13, 74, 84
31, 275429, Note_on_c, 13, 74, 0
31, 275430, Note_on_c, 13, 76, 84
31, 275459, Note_on_c, 13, 76, 0
31, 275460, Note_on_c, 13, 73, 84
31, 275489, Note_on_c, 13, 73, 0
31, 275490, Note_on_c, 13, 74, 84
31, 275519, Note_on_c, 13, 74, 0
31, 275760, Note_on_c, 13, 71, 86
31, 275789, Note_on_c, 13, 71, 0
31, 275790, Note_on_c, 13, 72, 86
31, 275819, Note_on_c, 13, 72, 0
31, 275820, Note_on_c, 13, 71, 86
31, 275849, Note_on_c, 13, 71, 0
31, 275850, Note_on_c, 13, 72, 86
31, 275879, Note_on_c, 13, 72, 0
31, 275880, Note_on_c, 13, 71, 86
31, 275909, Note_on_c, 13, 71, 0
31, 275910, Note_on_c, 13, 72, 86
31, 275939, Note_on_c, 13, 72, 0
31, 275940, Note_on_c, 13, 69, 86
31, 275969, Note_on_c, 13, 69, 0
31, 275970, Note_on_c, 13, 71, 87
31, 275999, Note_on_c, 13, 71, 0
31, 276240, Note_on_c, 13, 67, 88
31, 276269, Note_on_c, 13, 67, 0
31, 276270, Note_on_c, 13, 69, 88
31, 276299, Note_on_c, 13, 69, 0
31, 276300, Note_on_c, 13, 67, 88
31, 276329, Note_on_c, 13, 67, 0
31, 276330, Note_on_c, 13, 69, 88
31, 276359, Note_on_c, 13, 69, 0
31, 276360, Note_on_c, 13, 67, 89
31, 276389, Note_on_c, 13, 67, 0
31, 276390, Note_on_c, 13, 69, 89
31, 276419, Note_on_c, 13, 69, 0
31, 276420, Note_on_c, 13, 66, 89
31, 276449, Note_on_c, 13, 66, 0
31, 276450, Note_on_c, 13, 67, 89
31, 276479, Note_on_c, 13, 67, 0
31, 276720, Note_on_c, 13, 66, 90
31, 276749, Note_on_c, 13, 66, 0
31, 276750, Note_on_c, 13, 67, 90
31, 276779, Note_on_c, 13, 67, 0
31, 276780, Note_on_c, 13, 66, 91
31, 276809, Note_on_c, 13, 66, 0
31, 276810, Note_on_c, 13, 67, 91
31, 276839, Note_on_c, 13, 67, 0
31, 276840, Note_on_c, 13, 66, 91
31, 276869, Note_on_c, 13, 66, 0
31, 276870, Note_on_c, 13, 67, 91
31, 276899, Note_on_c, 13, 67, 0
31, 276900, Note_on_c, 13, 64, 91
31, 276929, Note_on_c, 13, 64, 0
31, 276930, Note_on_c, 13, 66, 91
31, 276955, Note_on_c, 13, 66, 0
31, 276960, Note_on_c, 13, 78, 92
31, 276960, Note_on_c, 13, 74, 92
31, 277199, Note_on_c, 13, 78, 0
31, 277199, Note_on_c, 13, 74, 0
31, 277440, Note_on_c, 13, 76, 92
31, 277440, Note_on_c, 13, 85, 92
31, 277679, Note_on_c, 13, 76, 0
31, 277679, Note_on_c, 13, 85, 0
31, 277800, Note_on_c, 13, 86, 92
31, 277800, Note_on_c, 13, 78, 92
31, 277904, Note_on_c, 13, 86, 0
31, 277904, Note_on_c, 13, 78, 0
31, 277920, Note_on_c, 13, 78, 92
31, 277920, Note_on_c, 13, 69, 92
31, 278024, Note_on_c, 13, 78, 0
31, 278024, Note_on_c, 13, 69, 0
31, 278040, Note_on_c, 13, 62, 92
31, 278099, Note_on_c, 13, 62, 0
31, 278100, Note_on_c, 13, 61, 92
31, 278159, Note_on_c, 13, 61, 0
31, 278160, Note_on_c, 13, 62, 92
31, 278219, Note_on_c, 13, 62, 0
31, 278220, Note_on_c, 13, 64, 92
31, 278279, Note_on_c, 13, 64, 0
31, 278280, Note_on_c, 13, 66, 92
31, 278339, Note_on_c, 13, 66, 0
31, 278340, Note_on_c, 13, 67, 92
31, 278391, Note_on_c, 13, 67, 0
31, 278400, Note_on_c, 13, 69, 92
31, 278400, Note_on_c, 13, 66, 92
31, 278759, Note_on_c, 13, 69, 0
31, 278759, Note_on_c, 13, 66, 0
31, 278880, Note_on_c, 13, 69, 92
31, 278880, Note_on_c, 13, 66, 92
31, 279239, Note_on_c, 13, 69, 0
31, 279239, Note_on_c, 13, 66, 0
31, 279360, Note_on_c, 13, 55, 92
31, 279719, Note_on_c, 13, 55, 0
31, 279840, Note_on_c, 13, 71, 92
31, 279840, Note_on_c, 13, 79, 92
31, 280199, Note_on_c, 13, 71, 0
31, 280199, Note_on_c, 13, 79, 0
31, 280320, Note_on_c, 13, 73, 92
31, 280320, Note_on_c, 13, 76, 92
31, 280679, Note_on_c, 13, 73, 0
31, 280679, Note_on_c, 13, 76, 0
31, 280800, Note_on_c, 13, 76, 92
31, 280800, Note_on_c, 13, 73, 92
31, 281159, Note_on_c, 13, 76, 0
31, 281159, Note_on_c, 13, 73, 0
31, 281280, Note_on_c, 13, 74, 92
31, 281280, Note_on_c, 13, 78, 92
31, 281639, Note_on_c, 13, 74, 0
31, 281639, Note_on_c, 13, 78, 0
31, 281760, Note_on_c, 13, 74, 92
31, 281760, Note_on_c, 13, 62, 92
31, 282119, Note_on_c, 13, 74, 0
31, 282119, Note_on_c, 13, 62, 0
31, 282240, Note_on_c, 13, 71, 92
31, 282240, Note_on_c, 13, 80, 92
31, 282599, Note_on_c, 13, 71, 0
31, 282599, Note_on_c, 13, 80, 0
31, 282720, Note_on_c, 13, 80, 92
31, 282720, Note_on_c, 13, 71, 92
31, 283079, Note_on_c, 13, 80, 0
31, 283079, Note_on_c, 13, 71, 0
31, 283200, Note_on_c, 13, 81, 92
31, 283200, Note_on_c, 13, 69, 92
31, 283251, Note_on_c, 13, 81, 0
31, 283251, Note_on_c, 13, 69, 0
31, 283260, Note_on_c, 13, 83, 92
31, 283311, Note_on_c, 13, 83, 0
31, 283320, Note_on_c, 13, 81, 92
31, 283371, Note_on_c, 13, 81, 0
31, 283380, Note_on_c, 13, 80, 92
31, 283431, Note_on_c, 13, 80, 0
31, 283440, Note_on_c, 13, 78, 92
31, 283491, Note_on_c, 13, 78, 0
31, 283500, Note_on_c, 13, 80, 92
31, 283551, Note_on_c, 13, 80, 0
31, 283560, Note_on_c, 13, 78, 92
31, 283611, Note_on_c, 13, 78, 0
31, 283620, Note_on_c, 13, 76, 92
31, 283671, Note_on_c, 13, 76, 0
31, 283680, Note_on_c, 13, 74, 92
31, 283731, Note_on_c, 13, 74, 0
31, 283740, Note_on_c, 13, 76, 92
31, 283791, Note_on_c, 13, 76, 0
31, 283800, Note_on_c, 13, 74, 92
31, 283851, Note_on_c, 13, 74, 0
31, 283860, Note_on_c, 13, 73, 92
31, 283911, Note_on_c, 13, 73, 0
31, 283920, Note_on_c, 13, 71, 92
31, 283971, Note_on_c, 13, 71, 0
31, 283980, Note_on_c, 13, 73, 92
31, 284031, Note_on_c, 13, 73, 0
31, 284040, Note_on_c, 13, 71, 92
31, 284091, Note_on_c, 13, 71, 0
31, 284100, Note_on_c, 13, 69, 92
31, 284151, Note_on_c, 13, 69, 0
31, 284160, Note_on_c, 13, 64, 92
31, 284519, Note_on_c, 13, 64, 0
31, 284640, Note_on_c, 13, 71, 92
31, 284640, Note_on_c, 13, 80, 92
31, 284999, Note_on_c, 13, 71, 0
31, 284999, Note_on_c, 13, 80, 0
31, 285120, Note_on_c, 13, 81, 92
31, 285120, Note_on_c, 13, 69, 92
31, 285171, Note_on_c, 13, 81, 0
31, 285171, Note_on_c, 13, 69, 0
31, 285180, Note_on_c, 13, 83, 92
31, 285231, Note_on_c, 13, 83, 0
31, 285240, Note_on_c, 13, 81, 92
31, 285291, Note_on_c, 13, 81, 0
31, 285300, Note_on_c, 13, 80, 92
31, 285351, Note_on_c, 13, 80, 0
31, 285360, Note_on_c, 13, 78, 92
31, 285411, Note_on_c, 13, 78, 0
31, 285420, Note_on_c, 13, 80, 92
31, 285471, Note_on_c, 13, 80, 0
31, 285480, Note_on_c, 13, 78, 92
31, 285531, Note_on_c, 13, 78, 0
31, 285540, Note_on_c, 13, 76, 92
31, 285591, Note_on_c, 13, 76, 0
31, 285600, Note_on_c, 13, 74, 92
31, 285651, Note_on_c, 13, 74, 0
31, 285660, Note_on_c, 13, 76, 92
31, 285711, Note_on_c, 13, 76, 0
31, 285720, Note_on_c, 13, 74, 92
31, 285771, Note_on_c, 13, 74, 0
31, 285780, Note_on_c, 13, 73, 92
31, 285831, Note_on_c, 13, 73, 0
31, 285840, Note_on_c, 13, 71, 92
31, 285891, Note_on_c, 13, 71, 0
31, 285900, Note_on_c, 13, 73, 92
31, 285951, Note_on_c, 13, 73, 0
31, 285960, Note_on_c, 13, 71, 92
31, 286011, Note_on_c, 13, 71, 0
31, 286020, Note_on_c, 13, 69, 92
31, 286071, Note_on_c, 13, 69, 0
31, 286080, Note_on_c, 13, 69, 92
31, 286439, Note_on_c, 13, 69, 0
31, 286560, Note_on_c, 13, 81, 92
31, 286560, Note_on_c, 13, 69, 92
31, 286919, Note_on_c, 13, 81, 0
31, 286919, Note_on_c, 13, 69, 0
31, 287040, Note_on_c, 13, 69, 92
31, 287040, Note_on_c, 13, 81, 92
31, 288959, Note_on_c, 13, 69, 0
31, 288959, Note_on_c, 13, 81, 0
31, 308400, Note_on_c, 13, 70, 32
31, 308579, Note_on_c, 13, 70, 0
31, 308640, Note_on_c, 13, 72, 32
31, 308729, Note_on_c, 13, 72, 0
31, 308760, Note_on_c, 13, 72, 32
31, 308939, Note_on_c, 13, 72, 0
31, 309000, Note_on_c, 13, 74, 32
31, 309089, Note_on_c, 13, 74, 0
31, 309120, Note_on_c, 13, 72, 32
31, 309359, Note_on_c, 13, 72, 0
31, 319920, Note_on_c, 13, 70, 32
31, 320099, Note_on_c, 13, 70, 0
31, 320160, Note_on_c, 13, 72, 32
31, 320249, Note_on_c, 13, 72, 0
31, 320280, Note_on_c, 13, 72, 32
31, 320459, Note_on_c, 13, 72, 0
31, 320520, Note_on_c, 13, 74, 32
31, 320609, Note_on_c, 13, 74, 0
31, 320640, Note_on_c, 13, 74, 32
31, 320879, Note_on_c, 13, 74, 0
31, 331440, Note_on_c, 13, 77, 36
31, 331619, Note_on_c, 13, 77, 0
31, 331680, Note_on_c, 13, 81, 36
31, 331769, Note_on_c, 13, 81, 0
31, 331800, Note_on_c, 13, 81, 37
31, 331979, Note_on_c, 13, 81, 0
31, 332040, Note_on_c, 13, 74, 37
31, 332129, Note_on_c, 13, 74, 0
31, 332160, Note_on_c, 13, 72, 37
31, 332399, Note_on_c, 13, 72, 0
31, 342960, Note_on_c, 13, 70, 56
31, 343139, Note_on_c, 13, 70, 0
31, 343200, Note_on_c, 13, 72, 56
31, 343289, Note_on_c, 13, 72, 0
31, 343320, Note_on_c, 13, 72, 56
31, 343499, Note_on_c, 13, 72, 0
31, 343560, Note_on_c, 13, 74, 56
31, 343649, Note_on_c, 13, 74, 0
31, 343680, Note_on_c, 13, 72, 56
31, 343919, Note_on_c, 13, 72, 0
31, 349800, Note_on_c, 13, 70, 68
31, 350039, Note_on_c, 13, 70, 0
31, 350520, Note_on_c, 13, 58, 68
31, 350759, Note_on_c, 13, 58, 0
31, 351240, Note_on_c, 13, 70, 68
31, 351240, Note_on_c, 13, 67, 68
31, 351479, Note_on_c, 13, 70, 0
31, 351479, Note_on_c, 13, 67, 0
31, 351960, Note_on_c, 13, 67, 68
31, 351960, Note_on_c, 13, 55, 68
31, 352199, Note_on_c, 13, 67, 0
31, 352199, Note_on_c, 13, 55, 0
31, 352560, Note_on_c, 13, 66, 80
31, 352679, Note_on_c, 13, 66, 0
31, 352680, Note_on_c, 13, 65, 80
31, 352919, Note_on_c, 13, 65, 0
31, 353280, Note_on_c, 13, 66, 86
31, 353399, Note_on_c, 13, 66, 0
31, 353400, Note_on_c, 13, 65, 86
31, 353639, Note_on_c, 13, 65, 0
31, 354000, Note_on_c, 13, 79, 86
31, 354119, Note_on_c, 13, 79, 0
31, 354120, Note_on_c, 13, 77, 86
31, 354359, Note_on_c, 13, 77, 0
31, 354480, Note_on_c, 13, 74, 86
31, 354659, Note_on_c, 13, 74, 0
31, 354720, Note_on_c, 13, 72, 86
31, 354720, Note_on_c, 13, 81, 86
31, 354809, Note_on_c, 13, 72, 0
31, 354809, Note_on_c, 13, 81, 0
31, 354840, Note_on_c, 13, 81, 86
31, 354840, Note_on_c, 13, 72, 86
31, 355019, Note_on_c, 13, 81, 0
31, 355019, Note_on_c, 13, 72, 0
31, 355080, Note_on_c, 13, 82, 86
31, 355080, Note_on_c, 13, 74, 86
31, 355169, Note_on_c, 13, 82, 0
31, 355169, Note_on_c, 13, 74, 0
31, 355200, Note_on_c, 13, 74, 92
31, 355200, Note_on_c, 13, 82, 92
31, 355439, Note_on_c, 13, 74, 0
31, 355439, Note_on_c, 13, 82, 0
31, 355560, Note_on_c, 13, 74, 92
31, 355560, Note_on_c, 13, 58, 92
31, 355560, Note_on_c, 13, 65, 92
31, 355799, Note_on_c, 13, 74, 0
31, 355799, Note_on_c, 13, 58, 0
31, 355799, Note_on_c, 13, 65, 0
31, 356280, Note_on_c, 13, 65, 92
31, 356280, Note_on_c, 13, 82, 92
31, 356280, Note_on_c, 13, 74, 92
31, 356519, Note_on_c, 13, 65, 0
31, 356519, Note_on_c, 13, 82, 0
31, 356519, Note_on_c, 13, 74, 0
31, 357000, Note_on_c, 13, 79, 92
31, 357000, Note_on_c, 13, 63, 92
31, 357000, Note_on_c, 13, 70, 92
31, 357239, Note_on_c, 13, 79, 0
31, 357239, Note_on_c, 13, 63, 0
31, 357239, Note_on_c, 13, 70, 0
31, 357720, Note_on_c, 13, 72, 92
31, 357959, Note_on_c, 13, 72, 0
31, 358440, Note_on_c, 13, 81, 92
31, 358440, Note_on_c, 13, 72, 92
31, 358679, Note_on_c, 13, 81, 0
31, 358679, Note_on_c, 13, 72, 0
31, 359160, Note_on_c, 13, 81, 92
31, 359160, Note_on_c, 13, 65, 92
31, 359160, Note_on_c, 13, 72, 92
31, 359399, Note_on_c, 13, 81, 0
31, 359399, Note_on_c, 13, 65, 0
31, 359399, Note_on_c, 13, 72, 0
31, 359880, Note_on_c, 13, 65, 92
31, 359880, Note_on_c, 13, 72, 92
31, 359880, Note_on_c, 13, 81, 92
31, 360119, Note_on_c, 13, 65, 0
31, 360119, Note_on_c, 13, 72, 0
31, 360119, Note_on_c, 13, 81, 0
31, 360240, Note_on_c, 13, 74, 92
31, 360359, Note_on_c, 13, 74, 0
31, 360360, Note_on_c, 13, 75, 92
31, 360479, Note_on_c, 13, 75, 0
31, 360480, Note_on_c, 13, 77, 92
31, 360719, Note_on_c, 13, 77, 0
31, 360720, Note_on_c, 13, 75, 92
31, 360839, Note_on_c, 13, 75, 0
31, 360840, Note_on_c, 13, 72, 92
31, 360944, Note_on_c, 13, 72, 0
31, 360960, Note_on_c, 13, 70, 92
31, 361184, Note_on_c, 13, 70, 0
31, 361200, Note_on_c, 13, 58, 92
31, 361304, Note_on_c, 13, 58, 0
31, 361320, Note_on_c, 13, 58, 104
31, 361379, Note_on_c, 13, 58, 0
31, 361380, Note_on_c, 13, 58, 92
31, 361904, Note_on_c, 13, 58, 0
31, 361920, Note_on_c, 13, 60, 92
31, 362024, Note_on_c, 13, 60, 0
31, 362040, Note_on_c, 13, 60, 104
31, 362099, Note_on_c, 13, 60, 0
31, 362100, Note_on_c, 13, 60, 92
31, 362624, Note_on_c, 13, 60, 0
31, 362640, Note_on_c, 13, 62, 92
31, 362729, Note_on_c, 13, 62, 0
31, 362760, Note_on_c, 13, 67, 92
31, 362939, Note_on_c, 13, 67, 0
31, 363000, Note_on_c, 13, 65, 92
31, 363104, Note_on_c, 13, 65, 0
31, 363120, Note_on_c, 13, 63, 92
31, 363359, Note_on_c, 13, 63, 0
31, 363480, Note_on_c, 13, 62, 92
31, 363719, Note_on_c, 13, 62, 0
31, 363840, Note_on_c, 13, 60, 92
31, 363944, Note_on_c, 13, 60, 0
31, 363960, Note_on_c, 13, 72, 92
31, 364064, Note_on_c, 13, 72, 0
31, 364080, Note_on_c, 13, 72, 92
31, 364184, Note_on_c, 13, 72, 0
31, 364200, Note_on_c, 13, 57, 92
31, 364304, Note_on_c, 13, 57, 0
31, 364320, Note_on_c, 13, 69, 92
31, 364424, Note_on_c, 13, 69, 0
31, 364440, Note_on_c, 13, 69, 92
31, 364544, Note_on_c, 13, 69, 0
31, 364560, Note_on_c, 13, 58, 92
31, 364664, Note_on_c, 13, 58, 0
31, 364680, Note_on_c, 13, 70, 92
31, 364784, Note_on_c, 13, 70, 0
31, 364800, Note_on_c, 13, 70, 92
31, 364904, Note_on_c, 13, 70, 0
31, 364920, Note_on_c, 13, 70, 92
31, 365024, Note_on_c, 13, 70, 0
31, 365040, Note_on_c, 13, 70, 92
31, 365144, Note_on_c, 13, 70, 0
31, 365160, Note_on_c, 13, 70, 92
31, 365264, Note_on_c, 13, 70, 0
31, 365280, Note_on_c, 13, 70, 92
31, 365384, Note_on_c, 13, 70, 0
31, 365400, Note_on_c, 13, 58, 92
31, 365504, Note_on_c, 13, 58, 0
31, 365520, Note_on_c, 13, 60, 92
31, 365624, Note_on_c, 13, 60, 0
31, 365640, Note_on_c, 13, 65, 92
31, 365744, Note_on_c, 13, 65, 0
31, 365760, Note_on_c, 13, 77, 92
31, 365864, Note_on_c, 13, 77, 0
31, 365880, Note_on_c, 13, 77, 92
31, 365984, Note_on_c, 13, 77, 0
31, 366000, Note_on_c, 13, 64, 92
31, 366104, Note_on_c, 13, 64, 0
31, 366120, Note_on_c, 13, 76, 92
31, 366224, Note_on_c, 13, 76, 0
31, 366240, Note_on_c, 13, 76, 92
31, 366344, Note_on_c, 13, 76, 0
31, 366360, Note_on_c, 13, 60, 92
31, 366464, Note_on_c, 13, 60, 0
31, 366480, Note_on_c, 13, 72, 92
31, 366584, Note_on_c, 13, 72, 0
31, 366600, Note_on_c, 13, 72, 92
31, 366704, Note_on_c, 13, 72, 0
31, 366720, Note_on_c, 13, 58, 92
31, 366824, Note_on_c, 13, 58, 0
31, 366840, Note_on_c, 13, 70, 92
31, 366944, Note_on_c, 13, 70, 0
31, 366960, Note_on_c, 13, 70, 92
31, 367064, Note_on_c, 13, 70, 0
31, 367080, Note_on_c, 13, 58, 92
31, 367184, Note_on_c, 13, 58, 0
31, 367200, Note_on_c, 13, 70, 92
31, 367304, Note_on_c, 13, 70, 0
31, 367320, Note_on_c, 13, 70, 92
31, 367424, Note_on_c, 13, 70, 0
31, 367440, Note_on_c, 13, 57, 92
31, 367544, Note_on_c, 13, 57, 0
31, 367560, Note_on_c, 13, 69, 92
31, 367664, Note_on_c, 13, 69, 0
31, 367680, Note_on_c, 13, 69, 92
31, 367784, Note_on_c, 13, 69, 0
31, 367800, Note_on_c, 13, 57, 92
31, 367904, Note_on_c, 13, 57, 0
31, 367920, Note_on_c, 13, 69, 92
31, 368024, Note_on_c, 13, 69, 0
31, 368040, Note_on_c, 13, 69, 92
31, 368144, Note_on_c, 13, 69, 0
31, 368160, Note_on_c, 13, 71, 92
31, 368264, Note_on_c, 13, 71, 0
31, 368280, Note_on_c, 13, 71, 92
31, 368384, Note_on_c, 13, 71, 0
31, 368400, Note_on_c, 13, 71, 92
31, 368504, Note_on_c, 13, 71, 0
31, 368520, Note_on_c, 13, 71, 92
31, 368624, Note_on_c, 13, 71, 0
31, 368640, Note_on_c, 13, 72, 92
31, 368744, Note_on_c, 13, 72, 0
31, 368760, Note_on_c, 13, 74, 92
31, 368864, Note_on_c, 13, 74, 0
31, 368880, Note_on_c, 13, 74, 92
31, 368984, Note_on_c, 13, 74, 0
31, 369000, Note_on_c, 13, 76, 92
31, 369104, Note_on_c, 13, 76, 0
31, 369120, Note_on_c, 13, 74, 92
31, 369224, Note_on_c, 13, 74, 0
31, 369240, Note_on_c, 13, 72, 92
31, 369344, Note_on_c, 13, 72, 0
31, 369360, Note_on_c, 13, 71, 92
31, 369464, Note_on_c, 13, 71, 0
31, 369480, Note_on_c, 13, 69, 92
31, 369584, Note_on_c, 13, 69, 0
31, 369600, Note_on_c, 13, 67, 92
31, 369704, Note_on_c, 13, 67, 0
31, 369720, Note_on_c, 13, 69, 92
31, 369824, Note_on_c, 13, 69, 0
31, 369840, Note_on_c, 13, 67, 92
31, 369944, Note_on_c, 13, 67, 0
31, 369960, Note_on_c, 13, 67, 92
31, 370064, Note_on_c, 13, 67, 0
31, 370080, Note_on_c, 13, 79, 92
31, 370184, Note_on_c, 13, 79, 0
31, 370200, Note_on_c, 13, 67, 92
31, 370304, Note_on_c, 13, 67, 0
31, 370320, Note_on_c, 13, 69, 92
31, 370424, Note_on_c, 13, 69, 0
31, 370440, Note_on_c, 13, 62, 92
31, 370544, Note_on_c, 13, 62, 0
31, 370560, Note_on_c, 13, 62, 92
31, 370664, Note_on_c, 13, 62, 0
31, 370680, Note_on_c, 13, 67, 92
31, 370784, Note_on_c, 13, 67, 0
31, 370800, Note_on_c, 13, 55, 92
31, 370904, Note_on_c, 13, 55, 0
31, 370920, Note_on_c, 13, 55, 92
31, 371024, Note_on_c, 13, 55, 0
31, 371040, Note_on_c, 13, 67, 92
31, 371144, Note_on_c, 13, 67, 0
31, 371160, Note_on_c, 13, 55, 92
31, 371264, Note_on_c, 13, 55, 0
31, 371280, Note_on_c, 13, 55, 92
31, 371384, Note_on_c, 13, 55, 0
31, 371400, Note_on_c, 13, 59, 92
31, 371504, Note_on_c, 13, 59, 0
31, 371520, Note_on_c, 13, 55, 92
31, 371624, Note_on_c, 13, 55, 0
31, 371640, Note_on_c, 13, 55, 92
31, 371744, Note_on_c, 13, 55, 0
31, 371760, Note_on_c, 13, 60, 92
31, 371864, Note_on_c, 13, 60, 0
31, 371880, Note_on_c, 13, 55, 92
31, 371984, Note_on_c, 13, 55, 0
31, 372000, Note_on_c, 13, 55, 92
31, 372104, Note_on_c, 13, 55, 0
31, 372120, Note_on_c, 13, 62, 92
31, 372224, Note_on_c, 13, 62, 0
31, 372240, Note_on_c, 13, 55, 92
31, 372344, Note_on_c, 13, 55, 0
31, 372360, Note_on_c, 13, 55, 92
31, 372464, Note_on_c, 13, 55, 0
31, 372480, Note_on_c, 13, 65, 92
31, 372584, Note_on_c, 13, 65, 0
31, 372600, Note_on_c, 13, 55, 92
31, 372704, Note_on_c, 13, 55, 0
31, 372720, Note_on_c, 13, 55, 92
31, 372824, Note_on_c, 13, 55, 0
31, 372840, Note_on_c, 13, 63, 92
31, 372944, Note_on_c, 13, 63, 0
31, 372960, Note_on_c, 13, 55, 92
31, 373064, Note_on_c, 13, 55, 0
31, 373080, Note_on_c, 13, 55, 92
31, 373184, Note_on_c, 13, 55, 0
31, 373200, Note_on_c, 13, 62, 92
31, 373304, Note_on_c, 13, 62, 0
31, 373320, Note_on_c, 13, 55, 92
31, 373424, Note_on_c, 13, 55, 0
31, 373440, Note_on_c, 13, 55, 92
31, 373544, Note_on_c, 13, 55, 0
31, 373560, Note_on_c, 13, 62, 92
31, 373664, Note_on_c, 13, 62, 0
31, 373680, Note_on_c, 13, 55, 92
31, 373784, Note_on_c, 13, 55, 0
31, 373800, Note_on_c, 13, 55, 92
31, 373904, Note_on_c, 13, 55, 0
31, 373920, Note_on_c, 13, 67, 92
31, 374024, Note_on_c, 13, 67, 0
31, 374040, Note_on_c, 13, 60, 92
31, 374144, Note_on_c, 13, 60, 0
31, 374160, Note_on_c, 13, 60, 92
31, 374264, Note_on_c, 13, 60, 0
31, 374280, Note_on_c, 13, 60, 92
31, 374384, Note_on_c, 13, 60, 0
31, 374400, Note_on_c, 13, 62, 92
31, 374504, Note_on_c, 13, 62, 0
31, 374520, Note_on_c, 13, 63, 92
31, 374624, Note_on_c, 13, 63, 0
31, 374640, Note_on_c, 13, 63, 92
31, 374744, Note_on_c, 13, 63, 0
31, 374760, Note_on_c, 13, 65, 92
31, 374864, Note_on_c, 13, 65, 0
31, 374880, Note_on_c, 13, 65, 92
31, 374984, Note_on_c, 13, 65, 0
31, 375000, Note_on_c, 13, 62, 92
31, 375104, Note_on_c, 13, 62, 0
31, 375120, Note_on_c, 13, 60, 92
31, 375224, Note_on_c, 13, 60, 0
31, 375240, Note_on_c, 13, 59, 92
31, 375344, Note_on_c, 13, 59, 0
31, 375360, Note_on_c, 13, 63, 92
31, 375464, Note_on_c, 13, 63, 0
31, 375480, Note_on_c, 13, 65, 92
31, 375584, Note_on_c, 13, 65, 0
31, 375600, Note_on_c, 13, 63, 92
31, 375704, Note_on_c, 13, 63, 0
31, 375720, Note_on_c, 13, 63, 92
31, 375824, Note_on_c, 13, 63, 0
31, 375840, Note_on_c, 13, 65, 92
31, 375944, Note_on_c, 13, 65, 0
31, 375960, Note_on_c, 13, 72, 92
31, 376064, Note_on_c, 13, 72, 0
31, 376080, Note_on_c, 13, 72, 92
31, 376184, Note_on_c, 13, 72, 0
31, 376200, Note_on_c, 13, 71, 92
31, 376304, Note_on_c, 13, 71, 0
31, 376320, Note_on_c, 13, 71, 92
31, 376424, Note_on_c, 13, 71, 0
31, 376440, Note_on_c, 13, 55, 92
31, 376544, Note_on_c, 13, 55, 0
31, 376560, Note_on_c, 13, 67, 92
31, 376664, Note_on_c, 13, 67, 0
31, 376680, Note_on_c, 13, 67, 92
31, 376784, Note_on_c, 13, 67, 0
31, 376800, Note_on_c, 13, 65, 92
31, 376904, Note_on_c, 13, 65, 0
31, 376920, Note_on_c, 13, 62, 92
31, 377024, Note_on_c, 13, 62, 0
31, 377040, Note_on_c, 13, 62, 92
31, 377144, Note_on_c, 13, 62, 0
31, 377160, Note_on_c, 13, 74, 92
31, 377264, Note_on_c, 13, 74, 0
31, 377280, Note_on_c, 13, 62, 92
31, 377384, Note_on_c, 13, 62, 0
31, 377400, Note_on_c, 13, 62, 92
31, 377504, Note_on_c, 13, 62, 0
31, 377520, Note_on_c, 13, 67, 92
31, 377624, Note_on_c, 13, 67, 0
31, 377640, Note_on_c, 13, 63, 92
31, 377744, Note_on_c, 13, 63, 0
31, 377760, Note_on_c, 13, 62, 92
31, 377864, Note_on_c, 13, 62, 0
31, 377880, Note_on_c, 13, 74, 92
31, 377984, Note_on_c, 13, 74, 0
31, 378000, Note_on_c, 13, 62, 92
31, 378104, Note_on_c, 13, 62, 0
31, 378120, Note_on_c, 13, 62, 92
31, 378224, Note_on_c, 13, 62, 0
31, 378240, Note_on_c, 13, 75, 92
31, 378344, Note_on_c, 13, 75, 0
31, 378360, Note_on_c, 13, 74, 92
31, 378464, Note_on_c, 13, 74, 0
31, 378480, Note_on_c, 13, 75, 92
31, 378584, Note_on_c, 13, 75, 0
31, 378600, Note_on_c, 13, 67, 104
31, 378659, Note_on_c, 13, 67, 0
31, 378660, Note_on_c, 13, 67, 92
31, 379184, Note_on_c, 13, 67, 0
31, 379200, Note_on_c, 13, 68, 92
31, 379304, Note_on_c, 13, 68, 0
31, 379320, Note_on_c, 13, 68, 92
31, 379544, Note_on_c, 13, 68, 0
31, 379560, Note_on_c, 13, 70, 92
31, 379664, Note_on_c, 13, 70, 0
31, 379680, Note_on_c, 13, 70, 92
31, 380024, Note_on_c, 13, 70, 0
31, 380040, Note_on_c, 13, 60, 92
31, 380264, Note_on_c, 13, 60, 0
31, 380280, Note_on_c, 13, 72, 92
31, 380384, Note_on_c, 13, 72, 0
31, 380400, Note_on_c, 13, 72, 92
31, 380624, Note_on_c, 13, 72, 0
31, 380640, Note_on_c, 13, 72, 92
31, 380744, Note_on_c, 13, 72, 0
31, 380760, Note_on_c, 13, 77, 92
31, 380984, Note_on_c, 13, 77, 0
31, 381000, Note_on_c, 13, 76, 92
31, 381104, Note_on_c, 13, 76, 0
31, 381120, Note_on_c, 13, 77, 92
31, 381344, Note_on_c, 13, 77, 0
31, 381360, Note_on_c, 13, 73, 92
31, 381464, Note_on_c, 13, 73, 0
31, 381480, Note_on_c, 13, 73, 104
31, 381539, Note_on_c, 13, 73, 0
31, 381540, Note_on_c, 13, 73, 92
31, 382064, Note_on_c, 13, 73, 0
31, 382080, Note_on_c, 13, 68, 92
31, 382184, Note_on_c, 13, 68, 0
31, 382200, Note_on_c, 13, 73, 92
31, 382424, Note_on_c, 13, 73, 0
31, 382440, Note_on_c, 13, 72, 92
31, 382544, Note_on_c, 13, 72, 0
31, 382560, Note_on_c, 13, 70, 92
31, 382784, Note_on_c, 13, 70, 0
31, 382800, Note_on_c, 13, 63, 92
31, 382904, Note_on_c, 13, 63, 0
31, 382920, Note_on_c, 13, 63, 92
31, 383144, Note_on_c, 13, 63, 0
31, 383160, Note_on_c, 13, 75, 92
31, 383504, Note_on_c, 13, 75, 0
31, 383520, Note_on_c, 13, 80, 92
31, 383864, Note_on_c, 13, 80, 0
31, 383880, Note_on_c, 13, 79, 92
31, 383984, Note_on_c, 13, 79, 0
31, 384000, Note_on_c, 13, 78, 92
31, 384104, Note_on_c, 13, 78, 0
31, 384120, Note_on_c, 13, 63, 92
31, 384224, Note_on_c, 13, 63, 0
31, 384240, Note_on_c, 13, 63, 92
31, 384344, Note_on_c, 13, 63, 0
31, 384360, Note_on_c, 13, 63, 92
31, 384464, Note_on_c, 13, 63, 0
31, 384480, Note_on_c, 13, 61, 92
31, 384584, Note_on_c, 13, 61, 0
31, 384600, Note_on_c, 13, 60, 92
31, 384704, Note_on_c, 13, 60, 0
31, 384720, Note_on_c, 13, 72, 92
31, 384824, Note_on_c, 13, 72, 0
31, 384840, Note_on_c, 13, 72, 92
31, 384944, Note_on_c, 13, 72, 0
31, 384960, Note_on_c, 13, 72, 92
31, 385064, Note_on_c, 13, 72, 0
31, 385080, Note_on_c, 13, 72, 92
31, 385184, Note_on_c, 13, 72, 0
31, 385200, Note_on_c, 13, 73, 92
31, 385304, Note_on_c, 13, 73, 0
31, 385320, Note_on_c, 13, 75, 92
31, 385424, Note_on_c, 13, 75, 0
31, 385440, Note_on_c, 13, 77, 92
31, 385544, Note_on_c, 13, 77, 0
31, 385560, Note_on_c, 13, 65, 92
31, 385664, Note_on_c, 13, 65, 0
31, 385680, Note_on_c, 13, 65, 92
31, 385784, Note_on_c, 13, 65, 0
31, 385800, Note_on_c, 13, 65, 92
31, 385904, Note_on_c, 13, 65, 0
31, 385920, Note_on_c, 13, 63, 92
31, 386024, Note_on_c, 13, 63, 0
31, 386040, Note_on_c, 13, 61, 92
31, 386144, Note_on_c, 13, 61, 0
31, 386160, Note_on_c, 13, 70, 92
31, 386264, Note_on_c, 13, 70, 0
31, 386280, Note_on_c, 13, 70, 92
31, 386384, Note_on_c, 13, 70, 0
31, 386400, Note_on_c, 13, 70, 92
31, 386504, Note_on_c, 13, 70, 0
31, 386520, Note_on_c, 13, 70, 92
31, 386624, Note_on_c, 13, 70, 0
31, 386640, Note_on_c, 13, 72, 92
31, 386744, Note_on_c, 13, 72, 0
31, 386760, Note_on_c, 13, 73, 92
31, 386864, Note_on_c, 13, 73, 0
31, 386880, Note_on_c, 13, 78, 92
31, 386984, Note_on_c, 13, 78, 0
31, 387000, Note_on_c, 13, 78, 92
31, 387104, Note_on_c, 13, 78, 0
31, 387120, Note_on_c, 13, 78, 92
31, 387224, Note_on_c, 13, 78, 0
31, 387240, Note_on_c, 13, 78, 92
31, 387344, Note_on_c, 13, 78, 0
31, 387360, Note_on_c, 13, 77, 92
31, 387464, Note_on_c, 13, 77, 0
31, 387480, Note_on_c, 13, 75, 92
31, 387584, Note_on_c, 13, 75, 0
31, 387600, Note_on_c, 13, 75, 92
31, 387704, Note_on_c, 13, 75, 0
31, 387720, Note_on_c, 13, 73, 92
31, 387824, Note_on_c, 13, 73, 0
31, 387840, Note_on_c, 13, 72, 92
31, 387944, Note_on_c, 13, 72, 0
31, 387960, Note_on_c, 13, 72, 92
31, 388064, Note_on_c, 13, 72, 0
31, 388080, Note_on_c, 13, 75, 92
31, 388184, Note_on_c, 13, 75, 0
31, 388200, Note_on_c, 13, 75, 92
31, 388304, Note_on_c, 13, 75, 0
31, 388320, Note_on_c, 13, 73, 92
31, 388424, Note_on_c, 13, 73, 0
31, 388440, Note_on_c, 13, 73, 92
31, 388544, Note_on_c, 13, 73, 0
31, 388560, Note_on_c, 13, 73, 92
31, 388664, Note_on_c, 13, 73, 0
31, 388680, Note_on_c, 13, 73, 92
31, 388784, Note_on_c, 13, 73, 0
31, 388800, Note_on_c, 13, 75, 92
31, 388904, Note_on_c, 13, 75, 0
31, 388920, Note_on_c, 13, 77, 92
31, 389024, Note_on_c, 13, 77, 0
31, 389040, Note_on_c, 13, 77, 92
31, 389144, Note_on_c, 13, 77, 0
31, 389160, Note_on_c, 13, 78, 92
31, 389264, Note_on_c, 13, 78, 0
31, 389280, Note_on_c, 13, 77, 92
31, 389384, Note_on_c, 13, 77, 0
31, 389400, Note_on_c, 13, 75, 92
31, 389504, Note_on_c, 13, 75, 0
31, 389520, Note_on_c, 13, 73, 92
31, 389624, Note_on_c, 13, 73, 0
31, 389640, Note_on_c, 13, 72, 92
31, 389744, Note_on_c, 13, 72, 0
31, 389760, Note_on_c, 13, 70, 92
31, 389864, Note_on_c, 13, 70, 0
31, 389880, Note_on_c, 13, 72, 92
31, 389984, Note_on_c, 13, 72, 0
31, 390000, Note_on_c, 13, 70, 92
31, 390104, Note_on_c, 13, 70, 0
31, 390120, Note_on_c, 13, 70, 92
31, 390224, Note_on_c, 13, 70, 0
31, 390240, Note_on_c, 13, 72, 92
31, 390344, Note_on_c, 13, 72, 0
31, 390360, Note_on_c, 13, 73, 92
31, 390464, Note_on_c, 13, 73, 0
31, 390480, Note_on_c, 13, 75, 92
31, 390719, Note_on_c, 13, 75, 0
31, 390840, Note_on_c, 13, 75, 92
31, 390944, Note_on_c, 13, 75, 0
31, 390960, Note_on_c, 13, 77, 92
31, 391064, Note_on_c, 13, 77, 0
31, 391080, Note_on_c, 13, 78, 92
31, 391184, Note_on_c, 13, 78, 0
31, 391200, Note_on_c, 13, 80, 92
31, 391304, Note_on_c, 13, 80, 0
31, 391320, Note_on_c, 13, 75, 92
31, 391424, Note_on_c, 13, 75, 0
31, 391440, Note_on_c, 13, 72, 92
31, 391544, Note_on_c, 13, 72, 0
31, 391560, Note_on_c, 13, 73, 92
31, 391664, Note_on_c, 13, 73, 0
31, 391680, Note_on_c, 13, 75, 92
31, 391784, Note_on_c, 13, 75, 0
31, 391800, Note_on_c, 13, 77, 92
31, 391904, Note_on_c, 13, 77, 0
31, 391920, Note_on_c, 13, 75, 92
31, 392159, Note_on_c, 13, 75, 0
31, 392280, Note_on_c, 13, 78, 92
31, 392384, Note_on_c, 13, 78, 0
31, 392400, Note_on_c, 13, 80, 92
31, 392504, Note_on_c, 13, 80, 0
31, 392520, Note_on_c, 13, 82, 92
31, 392624, Note_on_c, 13, 82, 0
31, 392640, Note_on_c, 13, 77, 92
31, 392744, Note_on_c, 13, 77, 0
31, 392760, Note_on_c, 13, 78, 92
31, 392864, Note_on_c, 13, 78, 0
31, 392880, Note_on_c, 13, 75, 92
31, 392984, Note_on_c, 13, 75, 0
31, 393000, Note_on_c, 13, 77, 92
31, 393104, Note_on_c, 13, 77, 0
31, 393120, Note_on_c, 13, 78, 92
31, 393224, Note_on_c, 13, 78, 0
31, 393240, Note_on_c, 13, 80, 92
31, 393344, Note_on_c, 13, 80, 0
31, 393360, Note_on_c, 13, 78, 92
31, 393464, Note_on_c, 13, 78, 0
31, 393480, Note_on_c, 13, 77, 92
31, 393584, Note_on_c, 13, 77, 0
31, 393600, Note_on_c, 13, 78, 92
31, 393704, Note_on_c, 13, 78, 0
31, 393720, Note_on_c, 13, 82, 92
31, 393824, Note_on_c, 13, 82, 0
31, 393840, Note_on_c, 13, 80, 92
31, 393944, Note_on_c, 13, 80, 0
31, 393960, Note_on_c, 13, 78, 92
31, 394064, Note_on_c, 13, 78, 0
31, 394080, Note_on_c, 13, 78, 92
31, 394184, Note_on_c, 13, 78, 0
31, 394200, Note_on_c, 13, 80, 92
31, 394304, Note_on_c, 13, 80, 0
31, 394320, Note_on_c, 13, 82, 92
31, 394424, Note_on_c, 13, 82, 0
31, 394440, Note_on_c, 13, 78, 92
31, 394544, Note_on_c, 13, 78, 0
31, 394560, Note_on_c, 13, 78, 92
31, 394664, Note_on_c, 13, 78, 0
31, 394680, Note_on_c, 13, 78, 92
31, 394784, Note_on_c, 13, 78, 0
31, 394800, Note_on_c, 13, 78, 92
31, 394904, Note_on_c, 13, 78, 0
31, 394920, Note_on_c, 13, 78, 92
31, 395024, Note_on_c, 13, 78, 0
31, 395040, Note_on_c, 13, 77, 92
31, 395144, Note_on_c, 13, 77, 0
31, 395160, Note_on_c, 13, 70, 92
31, 395264, Note_on_c, 13, 70, 0
31, 395280, Note_on_c, 13, 70, 92
31, 395384, Note_on_c, 13, 70, 0
31, 395400, Note_on_c, 13, 70, 92
31, 395504, Note_on_c, 13, 70, 0
31, 395520, Note_on_c, 13, 70, 92
31, 395624, Note_on_c, 13, 70, 0
31, 395640, Note_on_c, 13, 71, 92
31, 395744, Note_on_c, 13, 71, 0
31, 395760, Note_on_c, 13, 73, 92
31, 395864, Note_on_c, 13, 73, 0
31, 395880, Note_on_c, 13, 73, 92
31, 395984, Note_on_c, 13, 73, 0
31, 396000, Note_on_c, 13, 75, 92
31, 396104, Note_on_c, 13, 75, 0
31, 396120, Note_on_c, 13, 73, 92
31, 396224, Note_on_c, 13, 73, 0
31, 396240, Note_on_c, 13, 71, 92
31, 396344, Note_on_c, 13, 71, 0
31, 396360, Note_on_c, 13, 70, 92
31, 396464, Note_on_c, 13, 70, 0
31, 396480, Note_on_c, 13, 68, 92
31, 396584, Note_on_c, 13, 68, 0
31, 396600, Note_on_c, 13, 66, 92
31, 396704, Note_on_c, 13, 66, 0
31, 396720, Note_on_c, 13, 75, 92
31, 396824, Note_on_c, 13, 75, 0
31, 396840, Note_on_c, 13, 75, 92
31, 396944, Note_on_c, 13, 75, 0
31, 396960, Note_on_c, 13, 75, 92
31, 397064, Note_on_c, 13, 75, 0
31, 397080, Note_on_c, 13, 77, 92
31, 397184, Note_on_c, 13, 77, 0
31, 397200, Note_on_c, 13, 78, 92
31, 397304, Note_on_c, 13, 78, 0
31, 397320, Note_on_c, 13, 78, 92
31, 397424, Note_on_c, 13, 78, 0
31, 397440, Note_on_c, 13, 80, 92
31, 397544, Note_on_c, 13, 80, 0
31, 397560, Note_on_c, 13, 78, 92
31, 397664, Note_on_c, 13, 78, 0
31, 397680, Note_on_c, 13, 77, 92
31, 397784, Note_on_c, 13, 77, 0
31, 397800, Note_on_c, 13, 75, 92
31, 397904, Note_on_c, 13, 75, 0
31, 397920, Note_on_c, 13, 73, 92
31, 398024, Note_on_c, 13, 73, 0
31, 398040, Note_on_c, 13, 72, 92
31, 398144, Note_on_c, 13, 72, 0
31, 398160, Note_on_c, 13, 78, 92
31, 398264, Note_on_c, 13, 78, 0
31, 398280, Note_on_c, 13, 77, 92
31, 398384, Note_on_c, 13, 77, 0
31, 398400, Note_on_c, 13, 75, 92
31, 398504, Note_on_c, 13, 75, 0
31, 398520, Note_on_c, 13, 73, 92
31, 398624, Note_on_c, 13, 73, 0
31, 398640, Note_on_c, 13, 72, 92
31, 398744, Note_on_c, 13, 72, 0
31, 398760, Note_on_c, 13, 70, 92
31, 398864, Note_on_c, 13, 70, 0
31, 398880, Note_on_c, 13, 77, 92
31, 398984, Note_on_c, 13, 77, 0
31, 399000, Note_on_c, 13, 75, 92
31, 399104, Note_on_c, 13, 75, 0
31, 399120, Note_on_c, 13, 73, 92
31, 399224, Note_on_c, 13, 73, 0
31, 399240, Note_on_c, 13, 72, 92
31, 399344, Note_on_c, 13, 72, 0
31, 399360, Note_on_c, 13, 70, 92
31, 399464, Note_on_c, 13, 70, 0
31, 399480, Note_on_c, 13, 69, 92
31, 399584, Note_on_c, 13, 69, 0
31, 399600, Note_on_c, 13, 73, 92
31, 399704, Note_on_c, 13, 73, 0
31, 399720, Note_on_c, 13, 72, 92
31, 399824, Note_on_c, 13, 72, 0
31, 399840, Note_on_c, 13, 73, 92
31, 399944, Note_on_c, 13, 73, 0
31, 399960, Note_on_c, 13, 73, 92
31, 400064, Note_on_c, 13, 73, 0
31, 400080, Note_on_c, 13, 73, 92
31, 400184, Note_on_c, 13, 73, 0
31, 400200, Note_on_c, 13, 73, 92
31, 400304, Note_on_c, 13, 73, 0
31, 400320, Note_on_c, 13, 75, 92
31, 400424, Note_on_c, 13, 75, 0
31, 400440, Note_on_c, 13, 77, 92
31, 400544, Note_on_c, 13, 77, 0
31, 400560, Note_on_c, 13, 77, 92
31, 400664, Note_on_c, 13, 77, 0
31, 400680, Note_on_c, 13, 75, 92
31, 400784, Note_on_c, 13, 75, 0
31, 400800, Note_on_c, 13, 73, 92
31, 400904, Note_on_c, 13, 73, 0
31, 400920, Note_on_c, 13, 73, 92
31, 401024, Note_on_c, 13, 73, 0
31, 401040, Note_on_c, 13, 75, 92
31, 401144, Note_on_c, 13, 75, 0
31, 401160, Note_on_c, 13, 77, 92
31, 401264, Note_on_c, 13, 77, 0
31, 401280, Note_on_c, 13, 73, 92
31, 401384, Note_on_c, 13, 73, 0
31, 401400, Note_on_c, 13, 73, 92
31, 401504, Note_on_c, 13, 73, 0
31, 401520, Note_on_c, 13, 73, 92
31, 401624, Note_on_c, 13, 73, 0
31, 401640, Note_on_c, 13, 73, 92
31, 401744, Note_on_c, 13, 73, 0
31, 401760, Note_on_c, 13, 75, 92
31, 401864, Note_on_c, 13, 75, 0
31, 401880, Note_on_c, 13, 76, 92
31, 401984, Note_on_c, 13, 76, 0
31, 402000, Note_on_c, 13, 76, 92
31, 402104, Note_on_c, 13, 76, 0
31, 402120, Note_on_c, 13, 75, 92
31, 402224, Note_on_c, 13, 75, 0
31, 402240, Note_on_c, 13, 73, 92
31, 402344, Note_on_c, 13, 73, 0
31, 402360, Note_on_c, 13, 73, 92
31, 402464, Note_on_c, 13, 73, 0
31, 402480, Note_on_c, 13, 75, 92
31, 402584, Note_on_c, 13, 75, 0
31, 402600, Note_on_c, 13, 76, 92
31, 402704, Note_on_c, 13, 76, 0
31, 402720, Note_on_c, 13, 73, 92
31, 402824, Note_on_c, 13, 73, 0
31, 402840, Note_on_c, 13, 73, 92
31, 402944, Note_on_c, 13, 73, 0
31, 402960, Note_on_c, 13, 73, 92
31, 403064, Note_on_c, 13, 73, 0
31, 403080, Note_on_c, 13, 73, 92
31, 403184, Note_on_c, 13, 73, 0
31, 403200, Note_on_c, 13, 74, 92
31, 403304, Note_on_c, 13, 74, 0
31, 403320, Note_on_c, 13, 76, 92
31, 403424, Note_on_c, 13, 76, 0
31, 403440, Note_on_c, 13, 76, 92
31, 403544, Note_on_c, 13, 76, 0
31, 403560, Note_on_c, 13, 78, 92
31, 403664, Note_on_c, 13, 78, 0
31, 403680, Note_on_c, 13, 79, 92
31, 403784, Note_on_c, 13, 79, 0
31, 403800, Note_on_c, 13, 73, 92
31, 403904, Note_on_c, 13, 73, 0
31, 403920, Note_on_c, 13, 71, 92
31, 404024, Note_on_c, 13, 71, 0
31, 404040, Note_on_c, 13, 70, 92
31, 404144, Note_on_c, 13, 70, 0
31, 404160, Note_on_c, 13, 66, 92
31, 404264, Note_on_c, 13, 66, 0
31, 404280, Note_on_c, 13, 71, 92
31, 404384, Note_on_c, 13, 71, 0
31, 404400, Note_on_c, 13, 71, 92
31, 404504, Note_on_c, 13, 71, 0
31, 404520, Note_on_c, 13, 71, 92
31, 404624, Note_on_c, 13, 71, 0
31, 404640, Note_on_c, 13, 73, 92
31, 404744, Note_on_c, 13, 73, 0
31, 404760, Note_on_c, 13, 74, 92
31, 404864, Note_on_c, 13, 74, 0
31, 404880, Note_on_c, 13, 74, 92
31, 404984, Note_on_c, 13, 74, 0
31, 405000, Note_on_c, 13, 76, 92
31, 405104, Note_on_c, 13, 76, 0
31, 405120, Note_on_c, 13, 76, 92
31, 405224, Note_on_c, 13, 76, 0
31, 405240, Note_on_c, 13, 73, 92
31, 405344, Note_on_c, 13, 73, 0
31, 405360, Note_on_c, 13, 71, 92
31, 405464, Note_on_c, 13, 71, 0
31, 405480, Note_on_c, 13, 70, 92
31, 405584, Note_on_c, 13, 70, 0
31, 405600, Note_on_c, 13, 69, 92
31, 405704, Note_on_c, 13, 69, 0
31, 405720, Note_on_c, 13, 67, 92
31, 405824, Note_on_c, 13, 67, 0
31, 405840, Note_on_c, 13, 66, 92
31, 405891, Note_on_c, 13, 66, 0
31, 405900, Note_on_c, 13, 64, 92
31, 405951, Note_on_c, 13, 64, 0
31, 405960, Note_on_c, 13, 59, 92
31, 406064, Note_on_c, 13, 59, 0
31, 406080, Note_on_c, 13, 76, 92
31, 406184, Note_on_c, 13, 76, 0
31, 406200, Note_on_c, 13, 76, 92
31, 406304, Note_on_c, 13, 76, 0
31, 406320, Note_on_c, 13, 76, 92
31, 406424, Note_on_c, 13, 76, 0
31, 406440, Note_on_c, 13, 76, 92
31, 406544, Note_on_c, 13, 76, 0
31, 406560, Note_on_c, 13, 76, 92
31, 406664, Note_on_c, 13, 76, 0
31, 406680, Note_on_c, 13, 72, 92
31, 406784, Note_on_c, 13, 72, 0
31, 406800, Note_on_c, 13, 71, 92
31, 406904, Note_on_c, 13, 71, 0
31, 406920, Note_on_c, 13, 70, 92
31, 407024, Note_on_c, 13, 70, 0
31, 407040, Note_on_c, 13, 63, 92
31, 407264, Note_on_c, 13, 63, 0
31, 407280, Note_on_c, 13, 75, 92
31, 407384, Note_on_c, 13, 75, 0
31, 407400, Note_on_c, 13, 75, 104
31, 407459, Note_on_c, 13, 75, 0
31, 407460, Note_on_c, 13, 75, 92
31, 407984, Note_on_c, 13, 75, 0
31, 408000, Note_on_c, 13, 76, 92
31, 408104, Note_on_c, 13, 76, 0
31, 408120, Note_on_c, 13, 76, 104
31, 408179, Note_on_c, 13, 76, 0
31, 408180, Note_on_c, 13, 76, 92
31, 408344, Note_on_c, 13, 76, 0
31, 408360, Note_on_c, 13, 76, 92
31, 408704, Note_on_c, 13, 76, 0
31, 408720, Note_on_c, 13, 78, 92
31, 408824, Note_on_c, 13, 78, 0
31, 408840, Note_on_c, 13, 78, 92
31, 408944, Note_on_c, 13, 78, 0
31, 408960, Note_on_c, 13, 71, 92
31, 409064, Note_on_c, 13, 71, 0
31, 409080, Note_on_c, 13, 71, 92
31, 409184, Note_on_c, 13, 71, 0
31, 409200, Note_on_c, 13, 71, 92
31, 409304, Note_on_c, 13, 71, 0
31, 409320, Note_on_c, 13, 59, 92
31, 409424, Note_on_c, 13, 59, 0
31, 409440, Note_on_c, 13, 59, 92
31, 409544, Note_on_c, 13, 59, 0
31, 409560, Note_on_c, 13, 59, 92
31, 409664, Note_on_c, 13, 59, 0
31, 409680, Note_on_c, 13, 71, 92
31, 409784, Note_on_c, 13, 71, 0
31, 409800, Note_on_c, 13, 71, 92
31, 409904, Note_on_c, 13, 71, 0
31, 409920, Note_on_c, 13, 76, 92
31, 410024, Note_on_c, 13, 76, 0
31, 410040, Note_on_c, 13, 69, 92
31, 410144, Note_on_c, 13, 69, 0
31, 410160, Note_on_c, 13, 69, 92
31, 410264, Note_on_c, 13, 69, 0
31, 410280, Note_on_c, 13, 69, 92
31, 410384, Note_on_c, 13, 69, 0
31, 410400, Note_on_c, 13, 74, 92
31, 410504, Note_on_c, 13, 74, 0
31, 410520, Note_on_c, 13, 74, 92
31, 410624, Note_on_c, 13, 74, 0
31, 410640, Note_on_c, 13, 74, 92
31, 410744, Note_on_c, 13, 74, 0
31, 410760, Note_on_c, 13, 67, 92
31, 410864, Note_on_c, 13, 67, 0
31, 410880, Note_on_c, 13, 67, 92
31, 410984, Note_on_c, 13, 67, 0
31, 411000, Note_on_c, 13, 67, 92
31, 411104, Note_on_c, 13, 67, 0
31, 411120, Note_on_c, 13, 73, 92
31, 411224, Note_on_c, 13, 73, 0
31, 411240, Note_on_c, 13, 73, 92
31, 411344, Note_on_c, 13, 73, 0
31, 411360, Note_on_c, 13, 73, 92
31, 411464, Note_on_c, 13, 73, 0
31, 411480, Note_on_c, 13, 66, 92
31, 411584, Note_on_c, 13, 66, 0
31, 411600, Note_on_c, 13, 66, 92
31, 411704, Note_on_c, 13, 66, 0
31, 411720, Note_on_c, 13, 66, 92
31, 411824, Note_on_c, 13, 66, 0
31, 411840, Note_on_c, 13, 66, 92
31, 411944, Note_on_c, 13, 66, 0
31, 411960, Note_on_c, 13, 66, 92
31, 412064, Note_on_c, 13, 66, 0
31, 412080, Note_on_c, 13, 73, 92
31, 412184, Note_on_c, 13, 73, 0
31, 412200, Note_on_c, 13, 74, 92
31, 412304, Note_on_c, 13, 74, 0
31, 412320, Note_on_c, 13, 73, 92
31, 412424, Note_on_c, 13, 73, 0
31, 412440, Note_on_c, 13, 71, 92
31, 412544, Note_on_c, 13, 71, 0
31, 412560, Note_on_c, 13, 70, 92
31, 412664, Note_on_c, 13, 70, 0
31, 412680, Note_on_c, 13, 68, 92
31, 412784, Note_on_c, 13, 68, 0
31, 412800, Note_on_c, 13, 66, 92
31, 412904, Note_on_c, 13, 66, 0
31, 412920, Note_on_c, 13, 62, 92
31, 413024, Note_on_c, 13, 62, 0
31, 413040, Note_on_c, 13, 64, 92
31, 413144, Note_on_c, 13, 64, 0
31, 413160, Note_on_c, 13, 64, 104
31, 413264, Note_on_c, 13, 64, 0
31, 413280, Note_on_c, 13, 64, 92
31, 413384, Note_on_c, 13, 64, 0
31, 413400, Note_on_c, 13, 64, 92
31, 413504, Note_on_c, 13, 64, 0
31, 413520, Note_on_c, 13, 64, 92
31, 413624, Note_on_c, 13, 64, 0
31, 413640, Note_on_c, 13, 66, 92
31, 413744, Note_on_c, 13, 66, 0
31, 413760, Note_on_c, 13, 64, 92
31, 413864, Note_on_c, 13, 64, 0
31, 413880, Note_on_c, 13, 62, 92
31, 413984, Note_on_c, 13, 62, 0
31, 414000, Note_on_c, 13, 61, 92
31, 414104, Note_on_c, 13, 61, 0
31, 414120, Note_on_c, 13, 59, 92
31, 414224, Note_on_c, 13, 59, 0
31, 414240, Note_on_c, 13, 65, 92
31, 414240, Note_on_c, 13, 56, 92
31, 414344, Note_on_c, 13, 65, 0
31, 414344, Note_on_c, 13, 56, 0
31, 414360, Note_on_c, 13, 56, 92
31, 414360, Note_on_c, 13, 65, 92
31, 414464, Note_on_c, 13, 56, 0
31, 414464, Note_on_c, 13, 65, 0
31, 414480, Note_on_c, 13, 56, 92
31, 414480, Note_on_c, 13, 65, 92
31, 414584, Note_on_c, 13, 56, 0
31, 414584, Note_on_c, 13, 65, 0
31, 414600, Note_on_c, 13, 59, 104
31, 414704, Note_on_c, 13, 59, 0
31, 414720, Note_on_c, 13, 59, 92
31, 414824, Note_on_c, 13, 59, 0
31, 414840, Note_on_c, 13, 59, 92
31, 414944, Note_on_c, 13, 59, 0
31, 414960, Note_on_c, 13, 59, 92
31, 415064, Note_on_c, 13, 59, 0
31, 415080, Note_on_c, 13, 59, 92
31, 415184, Note_on_c, 13, 59, 0
31, 415200, Note_on_c, 13, 59, 92
31, 415304, Note_on_c, 13, 59, 0
31, 415320, Note_on_c, 13, 61, 92
31, 415424, Note_on_c, 13, 61, 0
31, 415440, Note_on_c, 13, 61, 92
31, 415544, Note_on_c, 13, 61, 0
31, 415560, Note_on_c, 13, 61, 92
31, 415664, Note_on_c, 13, 61, 0
31, 415680, Note_on_c, 13, 73, 92
31, 415784, Note_on_c, 13, 73, 0
31, 415800, Note_on_c, 13, 74, 92
31, 415904, Note_on_c, 13, 74, 0
31, 415920, Note_on_c, 13, 76, 92
31, 416024, Note_on_c, 13, 76, 0
31, 416040, Note_on_c, 13, 76, 104
31, 416144, Note_on_c, 13, 76, 0
31, 416160, Note_on_c, 13, 76, 92
31, 416264, Note_on_c, 13, 76, 0
31, 416280, Note_on_c, 13, 76, 92
31, 416384, Note_on_c, 13, 76, 0
31, 416400, Note_on_c, 13, 76, 92
31, 416504, Note_on_c, 13, 76, 0
31, 416520, Note_on_c, 13, 78, 92
31, 416624, Note_on_c, 13, 78, 0
31, 416640, Note_on_c, 13, 76, 92
31, 416744, Note_on_c, 13, 76, 0
31, 416760, Note_on_c, 13, 74, 92
31, 416864, Note_on_c, 13, 74, 0
31, 416880, Note_on_c, 13, 73, 92
31, 416984, Note_on_c, 13, 73, 0
31, 417000, Note_on_c, 13, 71, 92
31, 417104, Note_on_c, 13, 71, 0
31, 417120, Note_on_c, 13, 74, 92
31, 417224, Note_on_c, 13, 74, 0
31, 417240, Note_on_c, 13, 73, 92
31, 417344, Note_on_c, 13, 73, 0
31, 417360, Note_on_c, 13, 71, 92
31, 417464, Note_on_c, 13, 71, 0
31, 417480, Note_on_c, 13, 71, 104
31, 417584, Note_on_c, 13, 71, 0
31, 417600, Note_on_c, 13, 71, 92
31, 417704, Note_on_c, 13, 71, 0
31, 417720, Note_on_c, 13, 71, 92
31, 417824, Note_on_c, 13, 71, 0
31, 417840, Note_on_c, 13, 71, 92
31, 417944, Note_on_c, 13, 71, 0
31, 417960, Note_on_c, 13, 71, 92
31, 418064, Note_on_c, 13, 71, 0
31, 418080, Note_on_c, 13, 71, 92
31, 418184, Note_on_c, 13, 71, 0
31, 418200, Note_on_c, 13, 73, 92
31, 418304, Note_on_c, 13, 73, 0
31, 418320, Note_on_c, 13, 73, 92
31, 418424, Note_on_c, 13, 73, 0
31, 418440, Note_on_c, 13, 73, 92
31, 418544, Note_on_c, 13, 73, 0
31, 418560, Note_on_c, 13, 73, 92
31, 418664, Note_on_c, 13, 73, 0
31, 418680, Note_on_c, 13, 74, 92
31, 418784, Note_on_c, 13, 74, 0
31, 418800, Note_on_c, 13, 73, 92
31, 418904, Note_on_c, 13, 73, 0
31, 418920, Note_on_c, 13, 71, 92
31, 419024, Note_on_c, 13, 71, 0
31, 419040, Note_on_c, 13, 73, 92
31, 419144, Note_on_c, 13, 73, 0
31, 419160, Note_on_c, 13, 71, 92
31, 419264, Note_on_c, 13, 71, 0
31, 419280, Note_on_c, 13, 74, 92
31, 419384, Note_on_c, 13, 74, 0
31, 419400, Note_on_c, 13, 76, 92
31, 419504, Note_on_c, 13, 76, 0
31, 419520, Note_on_c, 13, 74, 92
31, 419624, Note_on_c, 13, 74, 0
31, 419640, Note_on_c, 13, 73, 92
31, 419744, Note_on_c, 13, 73, 0
31, 419760, Note_on_c, 13, 74, 92
31, 419864, Note_on_c, 13, 74, 0
31, 419880, Note_on_c, 13, 73, 92
31, 419984, Note_on_c, 13, 73, 0
31, 420000, Note_on_c, 13, 69, 92
31, 420104, Note_on_c, 13, 69, 0
31, 420120, Note_on_c, 13, 69, 92
31, 420224, Note_on_c, 13, 69, 0
31, 420240, Note_on_c, 13, 69, 92
31, 420344, Note_on_c, 13, 69, 0
31, 420360, Note_on_c, 13, 69, 92
31, 420464, Note_on_c, 13, 69, 0
31, 420480, Note_on_c, 13, 69, 92
31, 420584, Note_on_c, 13, 69, 0
31, 420600, Note_on_c, 13, 69, 92
31, 420704, Note_on_c, 13, 69, 0
31, 420720, Note_on_c, 13, 71, 92
31, 420824, Note_on_c, 13, 71, 0
31, 420840, Note_on_c, 13, 71, 92
31, 420944, Note_on_c, 13, 71, 0
31, 420960, Note_on_c, 13, 71, 92
31, 421064, Note_on_c, 13, 71, 0
31, 421080, Note_on_c, 13, 71, 92
31, 421184, Note_on_c, 13, 71, 0
31, 421200, Note_on_c, 13, 71, 92
31, 421304, Note_on_c, 13, 71, 0
31, 421320, Note_on_c, 13, 71, 92
31, 421424, Note_on_c, 13, 71, 0
31, 421440, Note_on_c, 13, 71, 92
31, 421544, Note_on_c, 13, 71, 0
31, 421560, Note_on_c, 13, 83, 92
31, 421664, Note_on_c, 13, 83, 0
31, 421680, Note_on_c, 13, 83, 92
31, 421784, Note_on_c, 13, 83, 0
31, 421800, Note_on_c, 13, 83, 92
31, 421904, Note_on_c, 13, 83, 0
31, 421920, Note_on_c, 13, 83, 92
31, 422024, Note_on_c, 13, 83, 0
31, 422040, Note_on_c, 13, 83, 92
31, 422144, Note_on_c, 13, 83, 0
31, 422160, Note_on_c, 13, 83, 92
31, 422264, Note_on_c, 13, 83, 0
31, 422280, Note_on_c, 13, 83, 92
31, 422384, Note_on_c, 13, 83, 0
31, 422400, Note_on_c, 13, 73, 92
31, 422504, Note_on_c, 13, 73, 0
31, 422520, Note_on_c, 13, 73, 92
31, 422624, Note_on_c, 13, 73, 0
31, 422640, Note_on_c, 13, 73, 92
31, 422744, Note_on_c, 13, 73, 0
31, 422760, Note_on_c, 13, 66, 92
31, 422864, Note_on_c, 13, 66, 0
31, 422880, Note_on_c, 13, 66, 92
31, 423104, Note_on_c, 13, 66, 0
31, 423120, Note_on_c, 13, 66, 92
31, 423224, Note_on_c, 13, 66, 0
31, 423240, Note_on_c, 13, 78, 104
31, 423299, Note_on_c, 13, 78, 0
31, 423300, Note_on_c, 13, 78, 92
31, 423824, Note_on_c, 13, 78, 0
31, 423840, Note_on_c, 13, 78, 92
31, 423944, Note_on_c, 13, 78, 0
31, 423960, Note_on_c, 13, 78, 104
31, 424019, Note_on_c, 13, 78, 0
31, 424020, Note_on_c, 13, 78, 92
31, 424544, Note_on_c, 13, 78, 0
31, 424560, Note_on_c, 13, 78, 92
31, 424664, Note_on_c, 13, 78, 0
31, 424680, Note_on_c, 13, 66, 104
31, 424739, Note_on_c, 13, 66, 0
31, 424740, Note_on_c, 13, 66, 92
31, 425264, Note_on_c, 13, 66, 0
31, 425280, Note_on_c, 13, 66, 92
31, 425384, Note_on_c, 13, 66, 0
31, 425400, Note_on_c, 13, 78, 104
31, 425459, Note_on_c, 13, 78, 0
31, 425460, Note_on_c, 13, 78, 92
31, 425984, Note_on_c, 13, 78, 0
31, 426000, Note_on_c, 13, 78, 92
31, 426104, Note_on_c, 13, 78, 0
31, 426120, Note_on_c, 13, 78, 104
31, 426179, Note_on_c, 13, 78, 0
31, 426180, Note_on_c, 13, 78, 92
31, 426704, Note_on_c, 13, 78, 0
31, 426720, Note_on_c, 13, 78, 92
31, 426824, Note_on_c, 13, 78, 0
31, 426840, Note_on_c, 13, 66, 104
31, 426899, Note_on_c, 13, 66, 0
31, 426900, Note_on_c, 13, 66, 92
31, 427424, Note_on_c, 13, 66, 0
31, 427440, Note_on_c, 13, 66, 92
31, 427544, Note_on_c, 13, 66, 0
31, 427560, Note_on_c, 13, 66, 104
31, 427619, Note_on_c, 13, 66, 0
31, 427620, Note_on_c, 13, 66, 92
31, 428144, Note_on_c, 13, 66, 0
31, 428160, Note_on_c, 13, 66, 92
31, 428264, Note_on_c, 13, 66, 0
31, 428280, Note_on_c, 13, 78, 104
31, 428339, Note_on_c, 13, 78, 0
31, 428340, Note_on_c, 13, 78, 92
31, 428879, Note_on_c, 13, 78, 0
31, 431520, Note_on_c, 13, 59, 44
31, 432239, Note_on_c, 13, 59, 0
31, 432240, Note_on_c, 13, 59, 44
31, 432959, Note_on_c, 13, 59, 0
31, 435840, Note_on_c, 13, 59, 32
31, 436559, Note_on_c, 13, 59, 0
31, 436560, Note_on_c, 13, 59, 32
31, 437279, Note_on_c, 13, 59, 0
31, 439800, Control_c, 13, 11, 29
31, 440160, Control_c, 13, 11, 29
31, 440160, Note_on_c, 13, 57, 92
31, 440184, Control_c, 13, 11, 31
31, 440208, Control_c, 13, 11, 32
31, 440232, Control_c, 13, 11, 34
31, 440256, Control_c, 13, 11, 36
31, 440280, Control_c, 13, 11, 37
31, 440304, Control_c, 13, 11, 39
31, 440328, Control_c, 13, 11, 40
31, 440352, Control_c, 13, 11, 42
31, 440376, Control_c, 13, 11, 44
31, 440400, Control_c, 13, 11, 45
31, 440424, Control_c, 13, 11, 47
31, 440448, Control_c, 13, 11, 49
31, 440472, Control_c, 13, 11, 50
31, 440496, Control_c, 13, 11, 52
31, 440520, Control_c, 13, 11, 54
31, 440544, Control_c, 13, 11, 55
31, 440568, Control_c, 13, 11, 57
31, 440592, Control_c, 13, 11, 58
31, 440616, Control_c, 13, 11, 60
31, 440640, Control_c, 13, 11, 62
31, 440664, Control_c, 13, 11, 63
31, 440688, Control_c, 13, 11, 65
31, 440712, Control_c, 13, 11, 67
31, 440736, Control_c, 13, 11, 68
31, 440760, Control_c, 13, 11, 70
31, 440784, Control_c, 13, 11, 71
31, 440808, Control_c, 13, 11, 73
31, 440832, Control_c, 13, 11, 75
31, 440856, Control_c, 13, 11, 76
31, 440879, Note_on_c, 13, 57, 0
31, 440880, Note_on_c, 13, 57, 92
31, 440880, Control_c, 13, 11, 78
31, 440904, Control_c, 13, 11, 80
31, 440928, Control_c, 13, 11, 81
31, 440952, Control_c, 13, 11, 83
31, 440976, Control_c, 13, 11, 85
31, 441000, Control_c, 13, 11, 86
31, 441024, Control_c, 13, 11, 88
31, 441048, Control_c, 13, 11, 89
31, 441072, Control_c, 13, 11, 91
31, 441096, Control_c, 13, 11, 93
31, 441120, Control_c, 13, 11, 94
31, 441144, Control_c, 13, 11, 96
31, 441168, Control_c, 13, 11, 98
31, 441192, Control_c, 13, 11, 99
31, 441216, Control_c, 13, 11, 101
31, 441240, Control_c, 13, 11, 103
31, 441264, Control_c, 13, 11, 104
31, 441288, Control_c, 13, 11, 106
31, 441312, Control_c, 13, 11, 107
31, 441336, Control_c, 13, 11, 109
31, 441359, Note_on_c, 13, 57, 0
31, 441360, Control_c, 13, 11, 111
31, 441360, Note_on_c, 13, 59, 92
31, 441384, Control_c, 13, 11, 112
31, 441408, Control_c, 13, 11, 114
31, 441432, Control_c, 13, 11, 116
31, 441456, Control_c, 13, 11, 117
31, 441479, Note_on_c, 13, 59, 0
31, 441480, Control_c, 13, 11, 119
31, 441480, Note_on_c, 13, 61, 92
31, 441504, Control_c, 13, 11, 120
31, 441528, Control_c, 13, 11, 122
31, 441552, Control_c, 13, 11, 124
31, 441576, Control_c, 13, 11, 127
31, 441584, Note_on_c, 13, 61, 0
31, 441600, Note_on_c, 13, 62, 92
31, 441689, Note_on_c, 13, 62, 0
31, 441720, Note_on_c, 13, 86, 92
31, 441809, Note_on_c, 13, 86, 0
31, 441840, Note_on_c, 13, 85, 92
31, 441929, Note_on_c, 13, 85, 0
31, 441960, Note_on_c, 13, 83, 92
31, 442049, Note_on_c, 13, 83, 0
31, 442080, Note_on_c, 13, 81, 92
31, 442169, Note_on_c, 13, 81, 0
31, 442200, Note_on_c, 13, 79, 92
31, 442289, Note_on_c, 13, 79, 0
31, 442320, Note_on_c, 13, 78, 92
31, 442409, Note_on_c, 13, 78, 0
31, 442440, Note_on_c, 13, 76, 92
31, 442529, Note_on_c, 13, 76, 0
31, 442560, Note_on_c, 13, 74, 92
31, 442649, Note_on_c, 13, 74, 0
31, 442680, Note_on_c, 13, 73, 92
31, 442769, Note_on_c, 13, 73, 0
31, 442800, Note_on_c, 13, 71, 92
31, 442889, Note_on_c, 13, 71, 0
31, 442920, Note_on_c, 13, 69, 92
31, 443009, Note_on_c, 13, 69, 0
31, 443040, Note_on_c, 13, 57, 92
31, 443129, Note_on_c, 13, 57, 0
31, 443160, Note_on_c, 13, 69, 92
31, 443249, Note_on_c, 13, 69, 0
31, 443280, Note_on_c, 13, 71, 92
31, 443369, Note_on_c, 13, 71, 0
31, 443400, Note_on_c, 13, 73, 92
31, 443489, Note_on_c, 13, 73, 0
31, 443520, Note_on_c, 13, 74, 92
31, 443609, Note_on_c, 13, 74, 0
31, 443640, Note_on_c, 13, 76, 92
31, 443729, Note_on_c, 13, 76, 0
31, 443760, Note_on_c, 13, 78, 92
31, 443849, Note_on_c, 13, 78, 0
31, 443880, Note_on_c, 13, 79, 92
31, 443969, Note_on_c, 13, 79, 0
31, 444000, Note_on_c, 13, 81, 92
31, 444089, Note_on_c, 13, 81, 0
31, 444120, Note_on_c, 13, 83, 92
31, 444209, Note_on_c, 13, 83, 0
31, 444240, Note_on_c, 13, 81, 92
31, 444329, Note_on_c, 13, 81, 0
31, 444360, Note_on_c, 13, 85, 92
31, 444449, Note_on_c, 13, 85, 0
31, 444480, Note_on_c, 13, 86, 92
31, 444569, Note_on_c, 13, 86, 0
31, 444600, Note_on_c, 13, 81, 92
31, 444689, Note_on_c, 13, 81, 0
31, 444720, Note_on_c, 13, 79, 92
31, 444809, Note_on_c, 13, 79, 0
31, 444840, Note_on_c, 13, 78, 92
31, 444929, Note_on_c, 13, 78, 0
31, 444960, Note_on_c, 13, 76, 92
31, 445049, Note_on_c, 13, 76, 0
31, 445080, Note_on_c, 13, 74, 92
31, 445169, Note_on_c, 13, 74, 0
31, 445200, Note_on_c, 13, 73, 92
31, 445289, Note_on_c, 13, 73, 0
31, 445320, Note_on_c, 13, 74, 92
31, 445409, Note_on_c, 13, 74, 0
31, 445440, Note_on_c, 13, 71, 92
31, 445529, Note_on_c, 13, 71, 0
31, 445560, Note_on_c, 13, 69, 92
31, 445649, Note_on_c, 13, 69, 0
31, 445680, Note_on_c, 13, 71, 92
31, 445769, Note_on_c, 13, 71, 0
31, 445800, Note_on_c, 13, 68, 92
31, 445889, Note_on_c, 13, 68, 0
31, 445920, Note_on_c, 13, 57, 92
31, 446009, Note_on_c, 13, 57, 0
31, 446040, Note_on_c, 13, 69, 92
31, 446129, Note_on_c, 13, 69, 0
31, 446160, Note_on_c, 13, 71, 92
31, 446249, Note_on_c, 13, 71, 0
31, 446280, Note_on_c, 13, 73, 92
31, 446369, Note_on_c, 13, 73, 0
31, 446400, Note_on_c, 13, 74, 92
31, 446489, Note_on_c, 13, 74, 0
31, 446520, Note_on_c, 13, 76, 92
31, 446609, Note_on_c, 13, 76, 0
31, 446640, Note_on_c, 13, 78, 92
31, 446729, Note_on_c, 13, 78, 0
31, 446760, Note_on_c, 13, 79, 92
31, 446849, Note_on_c, 13, 79, 0
31, 446880, Note_on_c, 13, 81, 92
31, 446969, Note_on_c, 13, 81, 0
31, 447000, Note_on_c, 13, 83, 92
31, 447089, Note_on_c, 13, 83, 0
31, 447120, Note_on_c, 13, 81, 92
31, 447209, Note_on_c, 13, 81, 0
31, 447240, Note_on_c, 13, 85, 92
31, 447329, Note_on_c, 13, 85, 0
31, 447360, Note_on_c, 13, 86, 92
31, 447449, Note_on_c, 13, 86, 0
31, 447480, Note_on_c, 13, 83, 92
31, 447569, Note_on_c, 13, 83, 0
31, 447600, Note_on_c, 13, 81, 92
31, 447689, Note_on_c, 13, 81, 0
31, 447720, Note_on_c, 13, 79, 92
31, 447809, Note_on_c, 13, 79, 0
31, 447840, Note_on_c, 13, 78, 92
31, 447929, Note_on_c, 13, 78, 0
31, 447960, Note_on_c, 13, 76, 92
31, 448049, Note_on_c, 13, 76, 0
31, 448080, Note_on_c, 13, 74, 92
31, 448169, Note_on_c, 13, 74, 0
31, 448200, Note_on_c, 13, 76, 92
31, 448289, Note_on_c, 13, 76, 0
31, 448320, Note_on_c, 13, 74, 92
31, 448409, Note_on_c, 13, 74, 0
31, 448440, Note_on_c, 13, 72, 92
31, 448529, Note_on_c, 13, 72, 0
31, 448560, Note_on_c, 13, 71, 92
31, 448649, Note_on_c, 13, 71, 0
31, 448680, Note_on_c, 13, 69, 92
31, 448769, Note_on_c, 13, 69, 0
31, 448800, Note_on_c, 13, 55, 92
31, 448889, Note_on_c, 13, 55, 0
31, 448920, Note_on_c, 13, 69, 92
31, 449009, Note_on_c, 13, 69, 0
31, 449040, Note_on_c, 13, 71, 92
31, 449129, Note_on_c, 13, 71, 0
31, 449160, Note_on_c, 13, 72, 92
31, 449249, Note_on_c, 13, 72, 0
31, 449280, Note_on_c, 13, 74, 92
31, 449369, Note_on_c, 13, 74, 0
31, 449400, Note_on_c, 13, 76, 92
31, 449489, Note_on_c, 13, 76, 0
31, 449520, Note_on_c, 13, 78, 92
31, 449609, Note_on_c, 13, 78, 0
31, 449640, Note_on_c, 13, 79, 92
31, 449729, Note_on_c, 13, 79, 0
31, 449760, Note_on_c, 13, 81, 92
31, 449849, Note_on_c, 13, 81, 0
31, 449880, Note_on_c, 13, 83, 92
31, 449969, Note_on_c, 13, 83, 0
31, 450000, Note_on_c, 13, 67, 92
31, 450089, Note_on_c, 13, 67, 0
31, 450120, Note_on_c, 13, 67, 92
31, 450209, Note_on_c, 13, 67, 0
31, 450240, Note_on_c, 13, 57, 92
31, 450329, Note_on_c, 13, 57, 0
31, 450360, Note_on_c, 13, 79, 92
31, 450449, Note_on_c, 13, 79, 0
31, 450480, Note_on_c, 13, 78, 92
31, 450569, Note_on_c, 13, 78, 0
31, 450600, Note_on_c, 13, 76, 92
31, 450689, Note_on_c, 13, 76, 0
31, 450720, Note_on_c, 13, 74, 92
31, 450809, Note_on_c, 13, 74, 0
31, 450840, Note_on_c, 13, 73, 92
31, 450929, Note_on_c, 13, 73, 0
31, 450960, Note_on_c, 13, 71, 92
31, 451049, Note_on_c, 13, 71, 0
31, 451080, Note_on_c, 13, 69, 92
31, 451169, Note_on_c, 13, 69, 0
31, 451200, Note_on_c, 13, 74, 92
31, 451289, Note_on_c, 13, 74, 0
31, 451320, Note_on_c, 13, 69, 92
31, 451409, Note_on_c, 13, 69, 0
31, 451440, Note_on_c, 13, 66, 92
31, 451529, Note_on_c, 13, 66, 0
31, 451560, Note_on_c, 13, 62, 92
31, 451649, Note_on_c, 13, 62, 0
31, 451680, Note_on_c, 13, 59, 92
31, 451769, Note_on_c, 13, 59, 0
31, 451800, Note_on_c, 13, 57, 92
31, 451889, Note_on_c, 13, 57, 0
31, 451920, Note_on_c, 13, 56, 92
31, 452009, Note_on_c, 13, 56, 0
31, 452040, Note_on_c, 13, 57, 92
31, 452129, Note_on_c, 13, 57, 0
31, 452160, Note_on_c, 13, 69, 92
31, 452249, Note_on_c, 13, 69, 0
31, 452280, Note_on_c, 13, 69, 92
31, 452369, Note_on_c, 13, 69, 0
31, 452400, Note_on_c, 13, 62, 92
31, 452489, Note_on_c, 13, 62, 0
31, 452520, Note_on_c, 13, 69, 92
31, 452609, Note_on_c, 13, 69, 0
31, 452640, Note_on_c, 13, 68, 92
31, 452729, Note_on_c, 13, 68, 0
31, 452760, Note_on_c, 13, 69, 92
31, 452849, Note_on_c, 13, 69, 0
31, 452880, Note_on_c, 13, 78, 92
31, 452969, Note_on_c, 13, 78, 0
31, 453000, Note_on_c, 13, 74, 92
31, 453089, Note_on_c, 13, 74, 0
31, 453120, Note_on_c, 13, 69, 92
31, 453209, Note_on_c, 13, 69, 0
31, 453240, Note_on_c, 13, 81, 92
31, 453329, Note_on_c, 13, 81, 0
31, 453360, Note_on_c, 13, 80, 92
31, 453449, Note_on_c, 13, 80, 0
31, 453480, Note_on_c, 13, 81, 92
31, 453569, Note_on_c, 13, 81, 0
31, 453600, Note_on_c, 13, 76, 92
31, 453689, Note_on_c, 13, 76, 0
31, 453720, Note_on_c, 13, 73, 92
31, 453809, Note_on_c, 13, 73, 0
31, 453840, Note_on_c, 13, 69, 92
31, 453929, Note_on_c, 13, 69, 0
31, 453960, Note_on_c, 13, 81, 92
31, 454049, Note_on_c, 13, 81, 0
31, 454080, Note_on_c, 13, 80, 92
31, 454169, Note_on_c, 13, 80, 0
31, 454200, Note_on_c, 13, 81, 92
31, 454289, Note_on_c, 13, 81, 0
31, 454320, Note_on_c, 13, 78, 92
31, 454409, Note_on_c, 13, 78, 0
31, 454440, Note_on_c, 13, 74, 92
31, 454529, Note_on_c, 13, 74, 0
31, 454560, Note_on_c, 13, 69, 92
31, 454649, Note_on_c, 13, 69, 0
31, 454680, Note_on_c, 13, 81, 92
31, 454769, Note_on_c, 13, 81, 0
31, 454800, Note_on_c, 13, 83, 92
31, 454889, Note_on_c, 13, 83, 0
31, 454920, Note_on_c, 13, 81, 92
31, 455009, Note_on_c, 13, 81, 0
31, 455040, Note_on_c, 13, 69, 92
31, 455129, Note_on_c, 13, 69, 0
31, 455160, Note_on_c, 13, 69, 92
31, 455249, Note_on_c, 13, 69, 0
31, 455280, Note_on_c, 13, 69, 92
31, 455369, Note_on_c, 13, 69, 0
31, 455400, Note_on_c, 13, 81, 92
31, 455489, Note_on_c, 13, 81, 0
31, 455520, Note_on_c, 13, 80, 92
31, 455609, Note_on_c, 13, 80, 0
31, 455640, Note_on_c, 13, 81, 92
31, 455729, Note_on_c, 13, 81, 0
31, 455760, Note_on_c, 13, 78, 92
31, 455849, Note_on_c, 13, 78, 0
31, 455880, Note_on_c, 13, 74, 92
31, 455969, Note_on_c, 13, 74, 0
31, 456000, Note_on_c, 13, 69, 92
31, 456089, Note_on_c, 13, 69, 0
31, 456120, Note_on_c, 13, 81, 92
31, 456209, Note_on_c, 13, 81, 0
31, 456240, Note_on_c, 13, 83, 92
31, 456329, Note_on_c, 13, 83, 0
31, 456360, Note_on_c, 13, 81, 92
31, 456449, Note_on_c, 13, 81, 0
31, 456480, Note_on_c, 13, 69, 92
31, 456569, Note_on_c, 13, 69, 0
31, 456600, Note_on_c, 13, 69, 92
31, 456689, Note_on_c, 13, 69, 0
31, 456720, Note_on_c, 13, 58, 92
31, 456809, Note_on_c, 13, 58, 0
31, 456840, Note_on_c, 13, 70, 92
31, 456929, Note_on_c, 13, 70, 0
31, 456960, Note_on_c, 13, 70, 92
31, 457049, Note_on_c, 13, 70, 0
31, 457080, Note_on_c, 13, 66, 92
31, 457169, Note_on_c, 13, 66, 0
31, 457200, Note_on_c, 13, 78, 92
31, 457289, Note_on_c, 13, 78, 0
31, 457320, Note_on_c, 13, 78, 92
31, 457409, Note_on_c, 13, 78, 0
31, 457440, Note_on_c, 13, 59, 92
31, 457529, Note_on_c, 13, 59, 0
31, 457560, Note_on_c, 13, 71, 92
31, 457649, Note_on_c, 13, 71, 0
31, 457680, Note_on_c, 13, 71, 92
31, 457769, Note_on_c, 13, 71, 0
31, 457800, Note_on_c, 13, 64, 92
31, 457889, Note_on_c, 13, 64, 0
31, 457920, Note_on_c, 13, 76, 92
31, 458009, Note_on_c, 13, 76, 0
31, 458040, Note_on_c, 13, 76, 92
31, 458129, Note_on_c, 13, 76, 0
31, 458160, Note_on_c, 13, 69, 92
31, 458249, Note_on_c, 13, 69, 0
31, 458280, Note_on_c, 13, 81, 92
31, 458369, Note_on_c, 13, 81, 0
31, 458400, Note_on_c, 13, 81, 92
31, 458489, Note_on_c, 13, 81, 0
31, 458520, Note_on_c, 13, 57, 92
31, 458609, Note_on_c, 13, 57, 0
31, 458640, Note_on_c, 13, 69, 92
31, 458729, Note_on_c, 13, 69, 0
31, 458760, Note_on_c, 13, 69, 92
31, 458849, Note_on_c, 13, 69, 0
31, 458880, Note_on_c, 13, 74, 92
31, 458969, Note_on_c, 13, 74, 0
31, 459000, Note_on_c, 13, 86, 92
31, 459089, Note_on_c, 13, 86, 0
31, 459120, Note_on_c, 13, 84, 92
31, 459209, Note_on_c, 13, 84, 0
31, 459240, Note_on_c, 13, 83, 92
31, 459329, Note_on_c, 13, 83, 0
31, 459360, Note_on_c, 13, 81, 92
31, 459449, Note_on_c, 13, 81, 0
31, 459480, Note_on_c, 13, 79, 92
31, 459569, Note_on_c, 13, 79, 0
31, 459600, Note_on_c, 13, 78, 92
31, 459689, Note_on_c, 13, 78, 0
31, 459720, Note_on_c, 13, 76, 92
31, 459809, Note_on_c, 13, 76, 0
31, 459840, Note_on_c, 13, 74, 92
31, 459929, Note_on_c, 13, 74, 0
31, 459960, Note_on_c, 13, 72, 92
31, 460049, Note_on_c, 13, 72, 0
31, 460080, Note_on_c, 13, 71, 92
31, 460169, Note_on_c, 13, 71, 0
31, 460200, Note_on_c, 13, 69, 92
31, 460289, Note_on_c, 13, 69, 0
31, 460320, Note_on_c, 13, 55, 92
31, 460409, Note_on_c, 13, 55, 0
31, 460440, Note_on_c, 13, 69, 92
31, 460529, Note_on_c, 13, 69, 0
31, 460560, Note_on_c, 13, 71, 92
31, 460649, Note_on_c, 13, 71, 0
31, 460680, Note_on_c, 13, 72, 92
31, 460769, Note_on_c, 13, 72, 0
31, 460800, Note_on_c, 13, 74, 92
31, 460889, Note_on_c, 13, 74, 0
31, 460920, Note_on_c, 13, 76, 92
31, 461009, Note_on_c, 13, 76, 0
31, 461040, Note_on_c, 13, 78, 92
31, 461129, Note_on_c, 13, 78, 0
31, 461160, Note_on_c, 13, 79, 92
31, 461249, Note_on_c, 13, 79, 0
31, 461280, Note_on_c, 13, 81, 92
31, 461369, Note_on_c, 13, 81, 0
31, 461400, Note_on_c, 13, 83, 92
31, 461489, Note_on_c, 13, 83, 0
31, 461520, Note_on_c, 13, 67, 92
31, 461609, Note_on_c, 13, 67, 0
31, 461640, Note_on_c, 13, 67, 92
31, 461729, Note_on_c, 13, 67, 0
31, 461760, Note_on_c, 13, 57, 92
31, 461849, Note_on_c, 13, 57, 0
31, 461880, Note_on_c, 13, 79, 92
31, 461969, Note_on_c, 13, 79, 0
31, 462000, Note_on_c, 13, 78, 92
31, 462089, Note_on_c, 13, 78, 0
31, 462120, Note_on_c, 13, 76, 92
31, 462209, Note_on_c, 13, 76, 0
31, 462240, Note_on_c, 13, 74, 92
31, 462329, Note_on_c, 13, 74, 0
31, 462360, Note_on_c, 13, 73, 92
31, 462449, Note_on_c, 13, 73, 0
31, 462480, Note_on_c, 13, 71, 92
31, 462569, Note_on_c, 13, 71, 0
31, 462600, Note_on_c, 13, 69, 92
31, 462689, Note_on_c, 13, 69, 0
31, 462720, Note_on_c, 13, 74, 92
31, 462809, Note_on_c, 13, 74, 0
31, 462840, Note_on_c, 13, 69, 92
31, 462929, Note_on_c, 13, 69, 0
31, 462960, Note_on_c, 13, 66, 92
31, 463049, Note_on_c, 13, 66, 0
31, 463080, Note_on_c, 13, 62, 92
31, 463169, Note_on_c, 13, 62, 0
31, 463200, Note_on_c, 13, 59, 92
31, 463289, Note_on_c, 13, 59, 0
31, 463320, Note_on_c, 13, 57, 92
31, 463409, Note_on_c, 13, 57, 0
31, 463440, Note_on_c, 13, 56, 92
31, 463529, Note_on_c, 13, 56, 0
31, 463560, Note_on_c, 13, 57, 92
31, 463649, Note_on_c, 13, 57, 0
31, 463680, Note_on_c, 13, 69, 92
31, 463769, Note_on_c, 13, 69, 0
31, 463800, Note_on_c, 13, 69, 92
31, 463889, Note_on_c, 13, 69, 0
31, 463920, Note_on_c, 13, 62, 92
31, 464009, Note_on_c, 13, 62, 0
31, 464040, Note_on_c, 13, 69, 92
31, 464129, Note_on_c, 13, 69, 0
31, 464160, Note_on_c, 13, 68, 92
31, 464249, Note_on_c, 13, 68, 0
31, 464280, Note_on_c, 13, 69, 92
31, 464369, Note_on_c, 13, 69, 0
31, 464400, Note_on_c, 13, 78, 92
31, 464489, Note_on_c, 13, 78, 0
31, 464520, Note_on_c, 13, 74, 92
31, 464609, Note_on_c, 13, 74, 0
31, 464640, Note_on_c, 13, 69, 92
31, 464729, Note_on_c, 13, 69, 0
31, 464760, Note_on_c, 13, 81, 92
31, 464849, Note_on_c, 13, 81, 0
31, 464880, Note_on_c, 13, 80, 92
31, 464969, Note_on_c, 13, 80, 0
31, 465000, Note_on_c, 13, 81, 92
31, 465089, Note_on_c, 13, 81, 0
31, 465120, Note_on_c, 13, 76, 92
31, 465209, Note_on_c, 13, 76, 0
31, 465240, Note_on_c, 13, 73, 92
31, 465329, Note_on_c, 13, 73, 0
31, 465360, Note_on_c, 13, 69, 92
31, 465449, Note_on_c, 13, 69, 0
31, 465480, Note_on_c, 13, 81, 92
31, 465569, Note_on_c, 13, 81, 0
31, 465600, Note_on_c, 13, 80, 92
31, 465689, Note_on_c, 13, 80, 0
31, 465720, Note_on_c, 13, 81, 92
31, 465809, Note_on_c, 13, 81, 0
31, 465840, Note_on_c, 13, 78, 92
31, 465929, Note_on_c, 13, 78, 0
31, 465960, Note_on_c, 13, 74, 92
31, 466049, Note_on_c, 13, 74, 0
31, 466080, Note_on_c, 13, 69, 92
31, 466169, Note_on_c, 13, 69, 0
31, 466200, Note_on_c, 13, 81, 92
31, 466289, Note_on_c, 13, 81, 0
31, 466320, Note_on_c, 13, 83, 92
31, 466409, Note_on_c, 13, 83, 0
31, 466440, Note_on_c, 13, 81, 92
31, 466529, Note_on_c, 13, 81, 0
31, 466560, Note_on_c, 13, 69, 92
31, 466649, Note_on_c, 13, 69, 0
31, 466680, Note_on_c, 13, 69, 92
31, 466769, Note_on_c, 13, 69, 0
31, 466800, Note_on_c, 13, 69, 92
31, 466889, Note_on_c, 13, 69, 0
31, 466920, Note_on_c, 13, 81, 92
31, 467009, Note_on_c, 13, 81, 0
31, 467040, Note_on_c, 13, 80, 92
31, 467129, Note_on_c, 13, 80, 0
31, 467160, Note_on_c, 13, 81, 92
31, 467249, Note_on_c, 13, 81, 0
31, 467280, Note_on_c, 13, 78, 92
31, 467369, Note_on_c, 13, 78, 0
31, 467400, Note_on_c, 13, 74, 92
31, 467489, Note_on_c, 13, 74, 0
31, 467520, Note_on_c, 13, 69, 92
31, 467609, Note_on_c, 13, 69, 0
31, 467640, Note_on_c, 13, 81, 92
31, 467729, Note_on_c, 13, 81, 0
31, 467760, Note_on_c, 13, 83, 92
31, 467849, Note_on_c, 13, 83, 0
31, 467880, Note_on_c, 13, 81, 92
31, 467969, Note_on_c, 13, 81, 0
31, 468000, Note_on_c, 13, 69, 92
31, 468089, Note_on_c, 13, 69, 0
31, 468120, Note_on_c, 13, 69, 92
31, 468209, Note_on_c, 13, 69, 0
31, 468240, Note_on_c, 13, 58, 92
31, 468329, Note_on_c, 13, 58, 0
31, 468360, Note_on_c, 13, 70, 92
31, 468449, Note_on_c, 13, 70, 0
31, 468480, Note_on_c, 13, 70, 92
31, 468569, Note_on_c, 13, 70, 0
31, 468600, Note_on_c, 13, 66, 92
31, 468689, Note_on_c, 13, 66, 0
31, 468720, Note_on_c, 13, 78, 92
31, 468809, Note_on_c, 13, 78, 0
31, 468840, Note_on_c, 13, 78, 92
31, 468929, Note_on_c, 13, 78, 0
31, 468960, Note_on_c, 13, 59, 92
31, 469049, Note_on_c, 13, 59, 0
31, 469080, Note_on_c, 13, 71, 92
31, 469169, Note_on_c, 13, 71, 0
31, 469200, Note_on_c, 13, 71, 92
31, 469289, Note_on_c, 13, 71, 0
31, 469320, Note_on_c, 13, 64, 92
31, 469409, Note_on_c, 13, 64, 0
31, 469440, Note_on_c, 13, 76, 92
31, 469529, Note_on_c, 13, 76, 0
31, 469560, Note_on_c, 13, 76, 92
31, 469649, Note_on_c, 13, 76, 0
31, 469680, Note_on_c, 13, 69, 92
31, 469769, Note_on_c, 13, 69, 0
31, 469800, Note_on_c, 13, 81, 92
31, 469889, Note_on_c, 13, 81, 0
31, 469920, Note_on_c, 13, 81, 92
31, 470009, Note_on_c, 13, 81, 0
31, 470040, Note_on_c, 13, 57, 92
31, 470129, Note_on_c, 13, 57, 0
31, 470160, Note_on_c, 13, 69, 92
31, 470249, Note_on_c, 13, 69, 0
31, 470280, Note_on_c, 13, 69, 92
31, 470369, Note_on_c, 13, 69, 0
31, 470400, Note_on_c, 13, 62, 92
31, 470489, Note_on_c, 13, 62, 0
31, 470520, Note_on_c, 13, 86, 92
31, 470609, Note_on_c, 13, 86, 0
31, 470640, Note_on_c, 13, 84, 92
31, 470729, Note_on_c, 13, 84, 0
31, 470760, Note_on_c, 13, 83, 92
31, 470849, Note_on_c, 13, 83, 0
31, 470880, Note_on_c, 13, 81, 92
31, 470969, Note_on_c, 13, 81, 0
31, 471000, Note_on_c, 13, 79, 92
31, 471089, Note_on_c, 13, 79, 0
31, 471120, Note_on_c, 13, 78, 92
31, 471209, Note_on_c, 13, 78, 0
31, 471240, Note_on_c, 13, 76, 92
31, 471329, Note_on_c, 13, 76, 0
31, 471360, Note_on_c, 13, 74, 92
31, 471449, Note_on_c, 13, 74, 0
31, 471480, Note_on_c, 13, 72, 92
31, 471569, Note_on_c, 13, 72, 0
31, 471600, Note_on_c, 13, 71, 92
31, 471689, Note_on_c, 13, 71, 0
31, 471720, Note_on_c, 13, 69, 92
31, 471809, Note_on_c, 13, 69, 0
31, 471840, Note_on_c, 13, 55, 92
31, 471929, Note_on_c, 13, 55, 0
31, 471960, Note_on_c, 13, 69, 92
31, 472049, Note_on_c, 13, 69, 0
31, 472080, Note_on_c, 13, 71, 92
31, 472169, Note_on_c, 13, 71, 0
31, 472200, Note_on_c, 13, 72, 92
31, 472289, Note_on_c, 13, 72, 0
31, 472320, Note_on_c, 13, 74, 92
31, 472409, Note_on_c, 13, 74, 0
31, 472440, Note_on_c, 13, 76, 92
31, 472529, Note_on_c, 13, 76, 0
31, 472560, Note_on_c, 13, 78, 92
31, 472649, Note_on_c, 13, 78, 0
31, 472680, Note_on_c, 13, 79, 92
31, 472769, Note_on_c, 13, 79, 0
31, 472800, Note_on_c, 13, 81, 92
31, 472889, Note_on_c, 13, 81, 0
31, 472920, Note_on_c, 13, 83, 92
31, 473009, Note_on_c, 13, 83, 0
31, 473040, Note_on_c, 13, 67, 92
31, 473129, Note_on_c, 13, 67, 0
31, 473160, Note_on_c, 13, 67, 92
31, 473249, Note_on_c, 13, 67, 0
31, 473280, Note_on_c, 13, 57, 92
31, 473369, Note_on_c, 13, 57, 0
31, 473400, Note_on_c, 13, 79, 92
31, 473489, Note_on_c, 13, 79, 0
31, 473520, Note_on_c, 13, 78, 92
31, 473609, Note_on_c, 13, 78, 0
31, 473640, Note_on_c, 13, 76, 92
31, 473729, Note_on_c, 13, 76, 0
31, 473760, Note_on_c, 13, 74, 92
31, 473849, Note_on_c, 13, 74, 0
31, 473880, Note_on_c, 13, 73, 92
31, 473969, Note_on_c, 13, 73, 0
31, 474000, Note_on_c, 13, 71, 92
31, 474089, Note_on_c, 13, 71, 0
31, 474120, Note_on_c, 13, 69, 92
31, 474209, Note_on_c, 13, 69, 0
31, 474240, Note_on_c, 13, 74, 92
31, 474329, Note_on_c, 13, 74, 0
31, 474360, Note_on_c, 13, 69, 92
31, 474449, Note_on_c, 13, 69, 0
31, 474480, Note_on_c, 13, 66, 92
31, 474569, Note_on_c, 13, 66, 0
31, 474600, Note_on_c, 13, 62, 92
31, 474689, Note_on_c, 13, 62, 0
31, 474720, Note_on_c, 13, 59, 92
31, 474809, Note_on_c, 13, 59, 0
31, 474840, Note_on_c, 13, 57, 92
31, 474929, Note_on_c, 13, 57, 0
31, 474960, Note_on_c, 13, 56, 92
31, 475049, Note_on_c, 13, 56, 0
31, 475080, Note_on_c, 13, 57, 92
31, 475169, Note_on_c, 13, 57, 0
31, 475200, Note_on_c, 13, 69, 92
31, 475289, Note_on_c, 13, 69, 0
31, 475320, Note_on_c, 13, 69, 92
31, 475409, Note_on_c, 13, 69, 0
31, 475440, Note_on_c, 13, 62, 92
31, 475529, Note_on_c, 13, 62, 0
31, 475560, Note_on_c, 13, 74, 92
31, 475649, Note_on_c, 13, 74, 0
31, 475680, Note_on_c, 13, 73, 92
31, 475769, Note_on_c, 13, 73, 0
31, 475800, Note_on_c, 13, 74, 92
31, 475889, Note_on_c, 13, 74, 0
31, 475920, Note_on_c, 13, 78, 92
31, 476009, Note_on_c, 13, 78, 0
31, 476040, Note_on_c, 13, 81, 92
31, 476129, Note_on_c, 13, 81, 0
31, 476160, Note_on_c, 13, 86, 104
31, 476249, Note_on_c, 13, 86, 0
31, 476280, Note_on_c, 13, 62, 92
31, 476369, Note_on_c, 13, 62, 0
31, 476400, Note_on_c, 13, 61, 92
31, 476489, Note_on_c, 13, 61, 0
31, 476520, Note_on_c, 13, 62, 92
31, 476609, Note_on_c, 13, 62, 0
31, 476640, Note_on_c, 13, 66, 92
31, 476729, Note_on_c, 13, 66, 0
31, 476760, Note_on_c, 13, 69, 92
31, 476849, Note_on_c, 13, 69, 0
31, 476880, Note_on_c, 13, 72, 92
31, 476969, Note_on_c, 13, 72, 0
31, 477000, Note_on_c, 13, 64, 92
31, 477089, Note_on_c, 13, 64, 0
31, 477120, Note_on_c, 13, 62, 92
31, 477209, Note_on_c, 13, 62, 0
31, 477240, Note_on_c, 13, 60, 92
31, 477329, Note_on_c, 13, 60, 0
31, 477360, Note_on_c, 13, 59, 92
31, 477449, Note_on_c, 13, 59, 0
31, 477480, Note_on_c, 13, 57, 92
31, 477569, Note_on_c, 13, 57, 0
31, 477600, Note_on_c, 13, 55, 104
31, 477689, Note_on_c, 13, 55, 0
31, 477720, Note_on_c, 13, 59, 92
31, 477809, Note_on_c, 13, 59, 0
31, 477840, Note_on_c, 13, 62, 92
31, 477929, Note_on_c, 13, 62, 0
31, 477960, Note_on_c, 13, 67, 92
31, 478049, Note_on_c, 13, 67, 0
31, 478080, Note_on_c, 13, 71, 92
31, 478169, Note_on_c, 13, 71, 0
31, 478200, Note_on_c, 13, 74, 92
31, 478289, Note_on_c, 13, 74, 0
31, 478320, Note_on_c, 13, 79, 92
31, 478559, Note_on_c, 13, 79, 0
31, 491520, Note_on_c, 13, 71, 80
31, 491759, Note_on_c, 13, 71, 0
31, 491760, Note_on_c, 13, 74, 80
31, 491879, Note_on_c, 13, 74, 0
31, 491880, Note_on_c, 13, 72, 80
31, 492239, Note_on_c, 13, 72, 0
31, 492240, Note_on_c, 13, 71, 80
31, 492359, Note_on_c, 13, 71, 0
31, 492360, Note_on_c, 13, 69, 80
31, 492479, Note_on_c, 13, 69, 0
31, 492480, Note_on_c, 13, 71, 80
31, 492659, Note_on_c, 13, 71, 0
31, 492720, Note_on_c, 13, 60, 80
31, 492839, Note_on_c, 13, 60, 0
31, 492840, Note_on_c, 13, 59, 80
31, 493179, Note_on_c, 13, 59, 0
31, 493200, Note_on_c, 13, 72, 80
31, 493319, Note_on_c, 13, 72, 0
31, 493320, Note_on_c, 13, 71, 80
31, 493559, Note_on_c, 13, 71, 0
31, 493560, Note_on_c, 13, 69, 80
31, 493659, Note_on_c, 13, 69, 0
31, 493680, Note_on_c, 13, 69, 80
31, 493799, Note_on_c, 13, 69, 0
31, 493800, Note_on_c, 13, 67, 80
31, 493899, Note_on_c, 13, 67, 0
31, 493920, Note_on_c, 13, 67, 80
31, 494039, Note_on_c, 13, 67, 0
31, 494040, Note_on_c, 13, 66, 80
31, 494139, Note_on_c, 13, 66, 0
31, 494160, Note_on_c, 13, 66, 80
31, 494279, Note_on_c, 13, 66, 0
31, 494280, Note_on_c, 13, 78, 80
31, 494379, Note_on_c, 13, 78, 0
31, 494400, Note_on_c, 13, 67, 80
31, 494519, Note_on_c, 13, 67, 0
31, 494520, Note_on_c, 13, 79, 80
31, 494619, Note_on_c, 13, 79, 0
31, 494640, Note_on_c, 13, 79, 80
31, 495099, Note_on_c, 13, 79, 0
31, 495120, Note_on_c, 13, 79, 80
31, 495579, Note_on_c, 13, 79, 0
31, 495600, Note_on_c, 13, 79, 80
31, 496059, Note_on_c, 13, 79, 0
31, 496080, Note_on_c, 13, 79, 80
31, 496539, Note_on_c, 13, 79, 0
31, 496560, Note_on_c, 13, 79, 80
31, 496679, Note_on_c, 13, 79, 0
31, 496680, Note_on_c, 13, 81, 80
31, 496799, Note_on_c, 13, 81, 0
31, 496800, Note_on_c, 13, 83, 80
31, 496979, Note_on_c, 13, 83, 0
31, 497040, Note_on_c, 13, 74, 80
31, 497159, Note_on_c, 13, 74, 0
31, 497160, Note_on_c, 13, 72, 80
31, 497279, Note_on_c, 13, 72, 0
31, 497280, Note_on_c, 13, 74, 80
31, 497459, Note_on_c, 13, 74, 0
31, 497520, Note_on_c, 13, 64, 80
31, 497639, Note_on_c, 13, 64, 0
31, 497640, Note_on_c, 13, 62, 80
31, 497759, Note_on_c, 13, 62, 0
31, 497760, Note_on_c, 13, 60, 80
31, 497939, Note_on_c, 13, 60, 0
31, 498000, Note_on_c, 13, 76, 80
31, 498119, Note_on_c, 13, 76, 0
31, 498120, Note_on_c, 13, 74, 80
31, 498239, Note_on_c, 13, 74, 0
31, 498240, Note_on_c, 13, 76, 80
31, 498419, Note_on_c, 13, 76, 0
31, 498480, Note_on_c, 13, 64, 80
31, 498599, Note_on_c, 13, 64, 0
31, 498600, Note_on_c, 13, 62, 80
31, 498719, Note_on_c, 13, 62, 0
31, 498720, Note_on_c, 13, 60, 80
31, 498899, Note_on_c, 13, 60, 0
31, 498960, Note_on_c, 13, 64, 80
31, 499199, Note_on_c, 13, 64, 0
31, 499200, Note_on_c, 13, 63, 80
31, 499419, Note_on_c, 13, 63, 0
31, 499440, Note_on_c, 13, 63, 80
31, 499559, Note_on_c, 13, 63, 0
31, 499560, Note_on_c, 13, 71, 80
31, 499679, Note_on_c, 13, 71, 0
31, 499680, Note_on_c, 13, 64, 80
31, 499859, Note_on_c, 13, 64, 0
31, 499920, Note_on_c, 13, 55, 80
31, 499920, Note_on_c, 13, 64, 80
31, 500039, Note_on_c, 13, 55, 0
31, 500039, Note_on_c, 13, 64, 0
31, 500040, Note_on_c, 13, 76, 80
31, 500379, Note_on_c, 13, 76, 0
31, 500400, Note_on_c, 13, 67, 80
31, 500519, Note_on_c, 13, 67, 0
31, 500520, Note_on_c, 13, 79, 80
31, 500639, Note_on_c, 13, 79, 0
31, 500640, Note_on_c, 13, 79, 92
31, 500859, Note_on_c, 13, 79, 0
31, 500880, Note_on_c, 13, 67, 92
31, 500999, Note_on_c, 13, 67, 0
31, 501000, Note_on_c, 13, 79, 92
31, 501339, Note_on_c, 13, 79, 0
31, 501360, Note_on_c, 13, 60, 92
31, 501479, Note_on_c, 13, 60, 0
31, 501480, Note_on_c, 13, 59, 92
31, 501599, Note_on_c, 13, 59, 0
31, 501600, Note_on_c, 13, 60, 92
31, 501779, Note_on_c, 13, 60, 0
31, 501840, Note_on_c, 13, 69, 92
31, 501959, Note_on_c, 13, 69, 0
31, 501960, Note_on_c, 13, 67, 92
31, 502059, Note_on_c, 13, 67, 0
31, 502080, Note_on_c, 13, 66, 92
31, 503519, Note_on_c, 13, 66, 0
31, 514560, Note_on_c, 13, 65, 80
31, 514799, Note_on_c, 13, 65, 0
31, 514800, Note_on_c, 13, 57, 80
31, 514919, Note_on_c, 13, 57, 0
31, 514920, Note_on_c, 13, 65, 80
31, 515279, Note_on_c, 13, 65, 0
31, 515280, Note_on_c, 13, 57, 80
31, 515399, Note_on_c, 13, 57, 0
31, 515400, Note_on_c, 13, 65, 80
31, 515759, Note_on_c, 13, 65, 0
31, 515760, Note_on_c, 13, 58, 80
31, 515879, Note_on_c, 13, 58, 0
31, 515880, Note_on_c, 13, 65, 80
31, 516239, Note_on_c, 13, 65, 0
31, 516240, Note_on_c, 13, 57, 80
31, 516359, Note_on_c, 13, 57, 0
31, 516360, Note_on_c, 13, 65, 80
31, 516719, Note_on_c, 13, 65, 0
31, 516720, Note_on_c, 13, 60, 80
31, 516839, Note_on_c, 13, 60, 0
31, 516840, Note_on_c, 13, 65, 80
31, 517199, Note_on_c, 13, 65, 0
31, 517200, Note_on_c, 13, 65, 80
31, 517319, Note_on_c, 13, 65, 0
31, 517320, Note_on_c, 13, 74, 80
31, 518139, Note_on_c, 13, 74, 0
31, 518160, Note_on_c, 13, 74, 80
31, 518279, Note_on_c, 13, 74, 0
31, 518280, Note_on_c, 13, 77, 80
31, 518759, Note_on_c, 13, 77, 0
31, 518760, Note_on_c, 13, 86, 80
31, 519119, Note_on_c, 13, 86, 0
31, 519120, Note_on_c, 13, 74, 80
31, 519239, Note_on_c, 13, 74, 0
31, 519240, Note_on_c, 13, 86, 80
31, 519599, Note_on_c, 13, 86, 0
31, 519600, Note_on_c, 13, 74, 80
31, 519719, Note_on_c, 13, 74, 0
31, 519720, Note_on_c, 13, 86, 80
31, 520079, Note_on_c, 13, 86, 0
31, 520080, Note_on_c, 13, 74, 80
31, 520199, Note_on_c, 13, 74, 0
31, 520200, Note_on_c, 13, 86, 80
31, 520299, Note_on_c, 13, 86, 0
31, 520320, Note_on_c, 13, 86, 80
31, 520539, Note_on_c, 13, 86, 0
31, 520560, Note_on_c, 13, 74, 80
31, 520679, Note_on_c, 13, 74, 0
31, 520680, Note_on_c, 13, 86, 80
31, 521039, Note_on_c, 13, 86, 0
31, 521040, Note_on_c, 13, 74, 80
31, 521159, Note_on_c, 13, 74, 0
31, 521160, Note_on_c, 13, 86, 80
31, 521259, Note_on_c, 13, 86, 0
31, 521280, Note_on_c, 13, 77, 80
31, 521519, Note_on_c, 13, 77, 0
31, 521520, Note_on_c, 13, 79, 80
31, 521639, Note_on_c, 13, 79, 0
31, 521640, Note_on_c, 13, 77, 80
31, 521739, Note_on_c, 13, 77, 0
31, 521760, Note_on_c, 13, 76, 80
31, 521999, Note_on_c, 13, 76, 0
31, 522000, Note_on_c, 13, 77, 80
31, 522119, Note_on_c, 13, 77, 0
31, 522120, Note_on_c, 13, 76, 80
31, 522479, Note_on_c, 13, 76, 0
31, 522480, Note_on_c, 13, 77, 80
31, 522599, Note_on_c, 13, 77, 0
31, 522600, Note_on_c, 13, 76, 80
31, 522699, Note_on_c, 13, 76, 0
31, 522720, Note_on_c, 13, 77, 80
31, 522959, Note_on_c, 13, 77, 0
31, 522960, Note_on_c, 13, 69, 80
31, 523079, Note_on_c, 13, 69, 0
31, 523080, Note_on_c, 13, 77, 80
31, 523179, Note_on_c, 13, 77, 0
31, 523200, Note_on_c, 13, 76, 80
31, 523439, Note_on_c, 13, 76, 0
31, 523440, Note_on_c, 13, 67, 80
31, 523559, Note_on_c, 13, 67, 0
31, 523560, Note_on_c, 13, 79, 80
31, 523659, Note_on_c, 13, 79, 0
31, 523680, Note_on_c, 13, 81, 80
31, 523919, Note_on_c, 13, 81, 0
31, 523920, Note_on_c, 13, 72, 80
31, 524039, Note_on_c, 13, 72, 0
31, 524040, Note_on_c, 13, 81, 80
31, 524399, Note_on_c, 13, 81, 0
31, 524400, Note_on_c, 13, 74, 80
31, 524519, Note_on_c, 13, 74, 0
31, 524520, Note_on_c, 13, 86, 80
31, 524619, Note_on_c, 13, 86, 0
31, 524640, Note_on_c, 13, 84, 80
31, 524879, Note_on_c, 13, 84, 0
31, 524880, Note_on_c, 13, 72, 80
31, 524999, Note_on_c, 13, 72, 0
31, 525000, Note_on_c, 13, 84, 80
31, 525359, Note_on_c, 13, 84, 0
31, 525360, Note_on_c, 13, 72, 80
31, 525479, Note_on_c, 13, 72, 0
31, 525480, Note_on_c, 13, 84, 80
31, 525579, Note_on_c, 13, 84, 0
31, 525600, Note_on_c, 13, 74, 80
31, 525600, Note_on_c, 13, 83, 80
31, 525839, Note_on_c, 13, 74, 0
31, 525839, Note_on_c, 13, 83, 0
31, 526080, Note_on_c, 13, 74, 44
31, 526080, Note_on_c, 13, 82, 44
31, 526319, Note_on_c, 13, 74, 0
31, 526319, Note_on_c, 13, 82, 0
31, 555840, Note_on_c, 13, 73, 32
31, 557744, Note_on_c, 13, 73, 0
31, 557760, Note_on_c, 13, 73, 32
31, 558704, Note_on_c, 13, 73, 0
31, 558720, Note_on_c, 13, 73, 32
31, 560144, Note_on_c, 13, 73, 0
31, 560160, Note_on_c, 13, 82, 32
31, 560160, Note_on_c, 13, 73, 32
31, 560211, Note_on_c, 13, 82, 0
31, 560211, Note_on_c, 13, 73, 0
31, 560220, Note_on_c, 13, 73, 32
31, 560220, Note_on_c, 13, 82, 32
31, 560271, Note_on_c, 13, 73, 0
31, 560271, Note_on_c, 13, 82, 0
31, 560280, Note_on_c, 13, 82, 32
31, 560280, Note_on_c, 13, 73, 32
31, 560331, Note_on_c, 13, 82, 0
31, 560331, Note_on_c, 13, 73, 0
31, 560340, Note_on_c, 13, 73, 32
31, 560340, Note_on_c, 13, 82, 32
31, 560391, Note_on_c, 13, 73, 0
31, 560391, Note_on_c, 13, 82, 0
31, 560400, Note_on_c, 13, 82, 32
31, 560400, Note_on_c, 13, 73, 32
31, 560451, Note_on_c, 13, 82, 0
31, 560451, Note_on_c, 13, 73, 0
31, 560460, Note_on_c, 13, 82, 32
31, 560460, Note_on_c, 13, 73, 32
31, 560511, Note_on_c, 13, 82, 0
31, 560511, Note_on_c, 13, 73, 0
31, 560520, Note_on_c, 13, 82, 32
31, 560520, Note_on_c, 13, 73, 32
31, 560571, Note_on_c, 13, 82, 0
31, 560571, Note_on_c, 13, 73, 0
31, 560580, Note_on_c, 13, 73, 32
31, 560580, Note_on_c, 13, 82, 32
31, 560631, Note_on_c, 13, 73, 0
31, 560631, Note_on_c, 13, 82, 0
31, 560640, Note_on_c, 13, 73, 32
31, 560640, Note_on_c, 13, 82, 32
31, 560691, Note_on_c, 13, 73, 0
31, 560691, Note_on_c, 13, 82, 0
31, 560700, Note_on_c, 13, 82, 32
31, 560700, Note_on_c, 13, 73, 32
31, 560751, Note_on_c, 13, 82, 0
31, 560751, Note_on_c, 13, 73, 0
31, 560760, Note_on_c, 13, 73, 32
31, 560760, Note_on_c, 13, 82, 32
31, 560811, Note_on_c, 13, 73, 0
31, 560811, Note_on_c, 13, 82, 0
31, 560820, Note_on_c, 13, 73, 32
31, 560820, Note_on_c, 13, 82, 32
31, 560871, Note_on_c, 13, 73, 0
31, 560871, Note_on_c, 13, 82, 0
31, 560880, Note_on_c, 13, 82, 32
31, 560880, Note_on_c, 13, 73, 32
31, 560931, Note_on_c, 13, 82, 0
31, 560931, Note_on_c, 13, 73, 0
31, 560940, Note_on_c, 13, 73, 32
31, 560940, Note_on_c, 13, 82, 32
31, 560991, Note_on_c, 13, 73, 0
31, 560991, Note_on_c, 13, 82, 0
31, 561000, Note_on_c, 13, 82, 32
31, 561000, Note_on_c, 13, 73, 32
31, 561051, Note_on_c, 13, 82, 0
31, 561051, Note_on_c, 13, 73, 0
31, 561060, Note_on_c, 13, 82, 32
31, 561060, Note_on_c, 13, 73, 32
31, 561111, Note_on_c, 13, 82, 0
31, 561111, Note_on_c, 13, 73, 0
31, 561120, Note_on_c, 13, 82, 32
31, 561120, Note_on_c, 13, 73, 32
31, 561171, Note_on_c, 13, 82, 0
31, 561171, Note_on_c, 13, 73, 0
31, 561180, Note_on_c, 13, 73, 32
31, 561180, Note_on_c, 13, 82, 32
31, 561231, Note_on_c, 13, 73, 0
31, 561231, Note_on_c, 13, 82, 0
31, 561240, Note_on_c, 13, 82, 32
31, 561240, Note_on_c, 13, 73, 32
31, 561291, Note_on_c, 13, 82, 0
31, 561291, Note_on_c, 13, 73, 0
31, 561300, Note_on_c, 13, 82, 32
31, 561300, Note_on_c, 13, 73, 32
31, 561351, Note_on_c, 13, 82, 0
31, 561351, Note_on_c, 13, 73, 0
31, 561360, Note_on_c, 13, 73, 32
31, 561360, Note_on_c, 13, 82, 32
31, 561411, Note_on_c, 13, 73, 0
31, 561411, Note_on_c, 13, 82, 0
31, 561420, Note_on_c, 13, 82, 32
31, 561420, Note_on_c, 13, 73, 32
31, 561471, Note_on_c, 13, 82, 0
31, 561471, Note_on_c, 13, 73, 0
31, 561480, Note_on_c, 13, 73, 32
31, 561480, Note_on_c, 13, 82, 32
31, 561531, Note_on_c, 13, 73, 0
31, 561531, Note_on_c, 13, 82, 0
31, 561540, Note_on_c, 13, 82, 32
31, 561540, Note_on_c, 13, 73, 32
31, 561591, Note_on_c, 13, 82, 0
31, 561591, Note_on_c, 13, 73, 0
31, 561600, Note_on_c, 13, 82, 32
31, 561600, Note_on_c, 13, 73, 32
31, 561651, Note_on_c, 13, 82, 0
31, 561651, Note_on_c, 13, 73, 0
31, 561660, Note_on_c, 13, 82, 32
31, 561660, Note_on_c, 13, 73, 32
31, 561711, Note_on_c, 13, 82, 0
31, 561711, Note_on_c, 13, 73, 0
31, 561720, Note_on_c, 13, 73, 32
31, 561720, Note_on_c, 13, 82, 32
31, 561771, Note_on_c, 13, 73, 0
31, 561771, Note_on_c, 13, 82, 0
31, 561780, Note_on_c, 13, 82, 32
31, 561780, Note_on_c, 13, 73, 32
31, 561831, Note_on_c, 13, 82, 0
31, 561831, Note_on_c, 13, 73, 0
31, 561840, Note_on_c, 13, 82, 32
31, 561840, Note_on_c, 13, 73, 32
31, 561891, Note_on_c, 13, 82, 0
31, 561891, Note_on_c, 13, 73, 0
31, 561900, Note_on_c, 13, 73, 32
31, 561900, Note_on_c, 13, 82, 32
31, 561951, Note_on_c, 13, 73, 0
31, 561951, Note_on_c, 13, 82, 0
31, 561960, Note_on_c, 13, 73, 32
31, 561960, Note_on_c, 13, 82, 32
31, 562011, Note_on_c, 13, 73, 0
31, 562011, Note_on_c, 13, 82, 0
31, 562020, Note_on_c, 13, 82, 32
31, 562020, Note_on_c, 13, 73, 32
31, 562071, Note_on_c, 13, 82, 0
31, 562071, Note_on_c, 13, 73, 0
31, 562080, Note_on_c, 13, 73, 32
31, 562080, Note_on_c, 13, 82, 32
31, 562131, Note_on_c, 13, 73, 0
31, 562131, Note_on_c, 13, 82, 0
31, 562140, Note_on_c, 13, 82, 32
31, 562140, Note_on_c, 13, 73, 32
31, 562191, Note_on_c, 13, 82, 0
31, 562191, Note_on_c, 13, 73, 0
31, 562200, Note_on_c, 13, 82, 32
31, 562200, Note_on_c, 13, 73, 32
31, 562251, Note_on_c, 13, 82, 0
31, 562251, Note_on_c, 13, 73, 0
31, 562260, Note_on_c, 13, 73, 32
31, 562260, Note_on_c, 13, 82, 32
31, 562311, Note_on_c, 13, 73, 0
31, 562311, Note_on_c, 13, 82, 0
31, 562320, Note_on_c, 13, 82, 32
31, 562320, Note_on_c, 13, 73, 32
31, 562371, Note_on_c, 13, 82, 0
31, 562371, Note_on_c, 13, 73, 0
31, 562380, Note_on_c, 13, 82, 32
31, 562380, Note_on_c, 13, 73, 32
31, 562431, Note_on_c, 13, 82, 0
31, 562431, Note_on_c, 13, 73, 0
31, 562440, Note_on_c, 13, 73, 32
31, 562440, Note_on_c, 13, 82, 32
31, 562491, Note_on_c, 13, 73, 0
31, 562491, Note_on_c, 13, 82, 0
31, 562500, Note_on_c, 13, 73, 32
31, 562500, Note_on_c, 13, 82, 32
31, 562551, Note_on_c, 13, 73, 0
31, 562551, Note_on_c, 13, 82, 0
31, 562560, Note_on_c, 13, 82, 32
31, 562560, Note_on_c, 13, 73, 32
31, 562611, Note_on_c, 13, 82, 0
31, 562611, Note_on_c, 13, 73, 0
31, 562620, Note_on_c, 13, 82, 32
31, 562620, Note_on_c, 13, 73, 32
31, 562671, Note_on_c, 13, 82, 0
31, 562671, Note_on_c, 13, 73, 0
31, 562680, Note_on_c, 13, 73, 32
31, 562680, Note_on_c, 13, 82, 32
31, 562731, Note_on_c, 13, 73, 0
31, 562731, Note_on_c, 13, 82, 0
31, 562740, Note_on_c, 13, 73, 32
31, 562740, Note_on_c, 13, 82, 32
31, 562791, Note_on_c, 13, 73, 0
31, 562791, Note_on_c, 13, 82, 0
31, 562800, Note_on_c, 13, 82, 32
31, 562800, Note_on_c, 13, 73, 32
31, 562851, Note_on_c, 13, 82, 0
31, 562851, Note_on_c, 13, 73, 0
31, 562860, Note_on_c, 13, 73, 32
31, 562860, Note_on_c, 13, 82, 32
31, 562911, Note_on_c, 13, 73, 0
31, 562911, Note_on_c, 13, 82, 0
31, 562920, Note_on_c, 13, 73, 32
31, 562920, Note_on_c, 13, 82, 32
31, 562971, Note_on_c, 13, 73, 0
31, 562971, Note_on_c, 13, 82, 0
31, 562980, Note_on_c, 13, 73, 32
31, 562980, Note_on_c, 13, 82, 32
31, 563031, Note_on_c, 13, 73, 0
31, 563031, Note_on_c, 13, 82, 0
31, 563040, Note_on_c, 13, 82, 32
31, 563040, Note_on_c, 13, 73, 32
31, 563091, Note_on_c, 13, 82, 0
31, 563091, Note_on_c, 13, 73, 0
31, 563100, Note_on_c, 13, 73, 32
31, 563100, Note_on_c, 13, 82, 32
31, 563151, Note_on_c, 13, 73, 0
31, 563151, Note_on_c, 13, 82, 0
31, 563160, Note_on_c, 13, 82, 32
31, 563160, Note_on_c, 13, 73, 32
31, 563211, Note_on_c, 13, 82, 0
31, 563211, Note_on_c, 13, 73, 0
31, 563220, Note_on_c, 13, 82, 32
31, 563220, Note_on_c, 13, 73, 32
31, 563271, Note_on_c, 13, 82, 0
31, 563271, Note_on_c, 13, 73, 0
31, 563280, Note_on_c, 13, 73, 32
31, 563280, Note_on_c, 13, 82, 32
31, 563331, Note_on_c, 13, 73, 0
31, 563331, Note_on_c, 13, 82, 0
31, 563340, Note_on_c, 13, 73, 32
31, 563340, Note_on_c, 13, 82, 32
31, 563391, Note_on_c, 13, 73, 0
31, 563391, Note_on_c, 13, 82, 0
31, 563400, Note_on_c, 13, 73, 32
31, 563400, Note_on_c, 13, 82, 32
31, 563451, Note_on_c, 13, 73, 0
31, 563451, Note_on_c, 13, 82, 0
31, 563460, Note_on_c, 13, 82, 32
31, 563460, Note_on_c, 13, 73, 32
31, 563511, Note_on_c, 13, 82, 0
31, 563511, Note_on_c, 13, 73, 0
31, 563520, Note_on_c, 13, 73, 32
31, 563520, Note_on_c, 13, 82, 32
31, 563571, Note_on_c, 13, 73, 0
31, 563571, Note_on_c, 13, 82, 0
31, 563580, Note_on_c, 13, 73, 32
31, 563580, Note_on_c, 13, 82, 32
31, 563631, Note_on_c, 13, 73, 0
31, 563631, Note_on_c, 13, 82, 0
31, 563640, Note_on_c, 13, 73, 32
31, 563640, Note_on_c, 13, 82, 32
31, 563691, Note_on_c, 13, 73, 0
31, 563691, Note_on_c, 13, 82, 0
31, 563700, Note_on_c, 13, 73, 32
31, 563700, Note_on_c, 13, 82, 32
31, 563751, Note_on_c, 13, 73, 0
31, 563751, Note_on_c, 13, 82, 0
31, 563760, Note_on_c, 13, 73, 32
31, 563760, Note_on_c, 13, 82, 32
31, 563811, Note_on_c, 13, 73, 0
31, 563811, Note_on_c, 13, 82, 0
31, 563820, Note_on_c, 13, 73, 32
31, 563820, Note_on_c, 13, 82, 32
31, 563871, Note_on_c, 13, 73, 0
31, 563871, Note_on_c, 13, 82, 0
31, 563880, Note_on_c, 13, 82, 32
31, 563880, Note_on_c, 13, 73, 32
31, 563931, Note_on_c, 13, 82, 0
31, 563931, Note_on_c, 13, 73, 0
31, 563940, Note_on_c, 13, 82, 32
31, 563940, Note_on_c, 13, 73, 32
31, 563991, Note_on_c, 13, 82, 0
31, 563991, Note_on_c, 13, 73, 0
31, 564000, Note_on_c, 13, 73, 32
31, 564000, Note_on_c, 13, 82, 32
31, 564051, Note_on_c, 13, 73, 0
31, 564051, Note_on_c, 13, 82, 0
31, 564060, Note_on_c, 13, 82, 32
31, 564060, Note_on_c, 13, 73, 32
31, 564111, Note_on_c, 13, 82, 0
31, 564111, Note_on_c, 13, 73, 0
31, 564120, Note_on_c, 13, 73, 32
31, 564120, Note_on_c, 13, 82, 32
31, 564171, Note_on_c, 13, 73, 0
31, 564171, Note_on_c, 13, 82, 0
31, 564180, Note_on_c, 13, 73, 32
31, 564180, Note_on_c, 13, 82, 32
31, 564231, Note_on_c, 13, 73, 0
31, 564231, Note_on_c, 13, 82, 0
31, 564240, Note_on_c, 13, 73, 32
31, 564240, Note_on_c, 13, 82, 32
31, 564291, Note_on_c, 13, 73, 0
31, 564291, Note_on_c, 13, 82, 0
31, 564300, Note_on_c, 13, 82, 32
31, 564300, Note_on_c, 13, 73, 32
31, 564351, Note_on_c, 13, 82, 0
31, 564351, Note_on_c, 13, 73, 0
31, 564360, Note_on_c, 13, 73, 32
31, 564360, Note_on_c, 13, 82, 32
31, 564411, Note_on_c, 13, 73, 0
31, 564411, Note_on_c, 13, 82, 0
31, 564420, Note_on_c, 13, 82, 32
31, 564420, Note_on_c, 13, 73, 32
31, 564471, Note_on_c, 13, 82, 0
31, 564471, Note_on_c, 13, 73, 0
31, 564480, Note_on_c, 13, 73, 32
31, 564480, Note_on_c, 13, 82, 32
31, 564531, Note_on_c, 13, 73, 0
31, 564531, Note_on_c, 13, 82, 0
31, 564540, Note_on_c, 13, 82, 32
31, 564540, Note_on_c, 13, 73, 32
31, 564591, Note_on_c, 13, 82, 0
31, 564591, Note_on_c, 13, 73, 0
31, 564600, Note_on_c, 13, 82, 32
31, 564600, Note_on_c, 13, 73, 32
31, 564651, Note_on_c, 13, 82, 0
31, 564651, Note_on_c, 13, 73, 0
31, 564660, Note_on_c, 13, 73, 32
31, 564660, Note_on_c, 13, 82, 32
31, 564711, Note_on_c, 13, 73, 0
31, 564711, Note_on_c, 13, 82, 0
31, 564720, Note_on_c, 13, 82, 32
31, 564720, Note_on_c, 13, 73, 32
31, 564771, Note_on_c, 13, 82, 0
31, 564771, Note_on_c, 13, 73, 0
31, 564780, Note_on_c, 13, 82, 32
31, 564780, Note_on_c, 13, 73, 32
31, 564831, Note_on_c, 13, 82, 0
31, 564831, Note_on_c, 13, 73, 0
31, 564840, Note_on_c, 13, 73, 32
31, 564840, Note_on_c, 13, 82, 32
31, 564891, Note_on_c, 13, 73, 0
31, 564891, Note_on_c, 13, 82, 0
31, 564900, Note_on_c, 13, 73, 32
31, 564900, Note_on_c, 13, 82, 32
31, 564951, Note_on_c, 13, 73, 0
31, 564951, Note_on_c, 13, 82, 0
31, 564960, Note_on_c, 13, 73, 32
31, 564960, Note_on_c, 13, 82, 32
31, 565011, Note_on_c, 13, 73, 0
31, 565011, Note_on_c, 13, 82, 0
31, 565020, Note_on_c, 13, 82, 32
31, 565020, Note_on_c, 13, 73, 32
31, 565071, Note_on_c, 13, 82, 0
31, 565071, Note_on_c, 13, 73, 0
31, 565080, Note_on_c, 13, 73, 32
31, 565080, Note_on_c, 13, 82, 32
31, 565131, Note_on_c, 13, 73, 0
31, 565131, Note_on_c, 13, 82, 0
31, 565140, Note_on_c, 13, 73, 32
31, 565140, Note_on_c, 13, 82, 32
31, 565191, Note_on_c, 13, 73, 0
31, 565191, Note_on_c, 13, 82, 0
31, 565200, Note_on_c, 13, 73, 32
31, 565200, Note_on_c, 13, 82, 32
31, 565251, Note_on_c, 13, 73, 0
31, 565251, Note_on_c, 13, 82, 0
31, 565260, Note_on_c, 13, 73, 32
31, 565260, Note_on_c, 13, 82, 32
31, 565311, Note_on_c, 13, 73, 0
31, 565311, Note_on_c, 13, 82, 0
31, 565320, Note_on_c, 13, 73, 32
31, 565320, Note_on_c, 13, 82, 32
31, 565371, Note_on_c, 13, 73, 0
31, 565371, Note_on_c, 13, 82, 0
31, 565380, Note_on_c, 13, 73, 32
31, 565380, Note_on_c, 13, 82, 32
31, 565431, Note_on_c, 13, 73, 0
31, 565431, Note_on_c, 13, 82, 0
31, 565440, Note_on_c, 13, 73, 32
31, 565440, Note_on_c, 13, 82, 32
31, 565491, Note_on_c, 13, 73, 0
31, 565491, Note_on_c, 13, 82, 0
31, 565500, Note_on_c, 13, 82, 32
31, 565500, Note_on_c, 13, 73, 32
31, 565551, Note_on_c, 13, 82, 0
31, 565551, Note_on_c, 13, 73, 0
31, 565560, Note_on_c, 13, 82, 32
31, 565560, Note_on_c, 13, 73, 32
31, 565611, Note_on_c, 13, 82, 0
31, 565611, Note_on_c, 13, 73, 0
31, 565620, Note_on_c, 13, 73, 32
31, 565620, Note_on_c, 13, 82, 32
31, 565671, Note_on_c, 13, 73, 0
31, 565671, Note_on_c, 13, 82, 0
31, 565680, Note_on_c, 13, 73, 32
31, 565680, Note_on_c, 13, 82, 32
31, 565731, Note_on_c, 13, 73, 0
31, 565731, Note_on_c, 13, 82, 0
31, 565740, Note_on_c, 13, 82, 32
31, 565740, Note_on_c, 13, 73, 32
31, 565791, Note_on_c, 13, 82, 0
31, 565791, Note_on_c, 13, 73, 0
31, 565800, Note_on_c, 13, 73, 32
31, 565800, Note_on_c, 13, 82, 32
31, 565851, Note_on_c, 13, 73, 0
31, 565851, Note_on_c, 13, 82, 0
31, 565860, Note_on_c, 13, 82, 32
31, 565860, Note_on_c, 13, 73, 32
31, 565911, Note_on_c, 13, 82, 0
31, 565911, Note_on_c, 13, 73, 0
31, 565920, Note_on_c, 13, 73, 32
31, 565920, Note_on_c, 13, 82, 32
31, 565971, Note_on_c, 13, 73, 0
31, 565971, Note_on_c, 13, 82, 0
31, 565980, Note_on_c, 13, 73, 32
31, 565980, Note_on_c, 13, 82, 32
31, 566031, Note_on_c, 13, 73, 0
31, 566031, Note_on_c, 13, 82, 0
31, 566040, Note_on_c, 13, 73, 32
31, 566040, Note_on_c, 13, 82, 32
31, 566091, Note_on_c, 13, 73, 0
31, 566091, Note_on_c, 13, 82, 0
31, 566100, Note_on_c, 13, 73, 32
31, 566100, Note_on_c, 13, 82, 32
31, 566151, Note_on_c, 13, 73, 0
31, 566151, Note_on_c, 13, 82, 0
31, 566160, Note_on_c, 13, 73, 32
31, 566160, Note_on_c, 13, 82, 32
31, 566211, Note_on_c, 13, 73, 0
31, 566211, Note_on_c, 13, 82, 0
31, 566220, Note_on_c, 13, 73, 32
31, 566220, Note_on_c, 13, 82, 32
31, 566271, Note_on_c, 13, 73, 0
31, 566271, Note_on_c, 13, 82, 0
31, 566280, Note_on_c, 13, 82, 32
31, 566280, Note_on_c, 13, 73, 32
31, 566331, Note_on_c, 13, 82, 0
31, 566331, Note_on_c, 13, 73, 0
31, 566340, Note_on_c, 13, 82, 32
31, 566340, Note_on_c, 13, 73, 32
31, 566391, Note_on_c, 13, 82, 0
31, 566391, Note_on_c, 13, 73, 0
31, 566400, Note_on_c, 13, 73, 32
31, 566400, Note_on_c, 13, 82, 32
31, 566451, Note_on_c, 13, 73, 0
31, 566451, Note_on_c, 13, 82, 0
31, 566460, Note_on_c, 13, 82, 32
31, 566460, Note_on_c, 13, 73, 32
31, 566511, Note_on_c, 13, 82, 0
31, 566511, Note_on_c, 13, 73, 0
31, 566520, Note_on_c, 13, 82, 32
31, 566520, Note_on_c, 13, 73, 32
31, 566571, Note_on_c, 13, 82, 0
31, 566571, Note_on_c, 13, 73, 0
31, 566580, Note_on_c, 13, 73, 32
31, 566580, Note_on_c, 13, 82, 32
31, 566631, Note_on_c, 13, 73, 0
31, 566631, Note_on_c, 13, 82, 0
31, 566640, Note_on_c, 13, 73, 32
31, 566640, Note_on_c, 13, 82, 32
31, 566691, Note_on_c, 13, 73, 0
31, 566691, Note_on_c, 13, 82, 0
31, 566700, Note_on_c, 13, 73, 32
31, 566700, Note_on_c, 13, 82, 32
31, 566751, Note_on_c, 13, 73, 0
31, 566751, Note_on_c, 13, 82, 0
31, 566760, Note_on_c, 13, 82, 32
31, 566760, Note_on_c, 13, 73, 32
31, 566811, Note_on_c, 13, 82, 0
31, 566811, Note_on_c, 13, 73, 0
31, 566820, Note_on_c, 13, 73, 32
31, 566820, Note_on_c, 13, 82, 32
31, 566879, Note_on_c, 13, 73, 0
31, 566879, Note_on_c, 13, 82, 0
31, 567600, Note_on_c, 13, 74, 92
31, 569019, Note_on_c, 13, 74, 0
31, 569040, Note_on_c, 13, 74, 92
31, 569119, Note_on_c, 13, 74, 0
31, 569120, Note_on_c, 13, 74, 80
31, 569739, Note_on_c, 13, 74, 0
31, 569760, Note_on_c, 13, 73, 92
31, 569839, Note_on_c, 13, 73, 0
31, 569840, Note_on_c, 13, 73, 80
31, 570459, Note_on_c, 13, 73, 0
31, 570480, Note_on_c, 13, 69, 92
31, 570559, Note_on_c, 13, 69, 0
31, 570560, Note_on_c, 13, 69, 80
31, 571179, Note_on_c, 13, 69, 0
31, 571200, Note_on_c, 13, 71, 92
31, 571279, Note_on_c, 13, 71, 0
31, 571280, Note_on_c, 13, 71, 80
31, 571899, Note_on_c, 13, 71, 0
31, 571920, Note_on_c, 13, 71, 92
31, 571999, Note_on_c, 13, 71, 0
31, 572000, Note_on_c, 13, 71, 80
31, 572619, Note_on_c, 13, 71, 0
31, 572640, Note_on_c, 13, 69, 80
31, 573339, Note_on_c, 13, 69, 0
31, 573360, Note_on_c, 13, 66, 80
31, 574059, Note_on_c, 13, 66, 0
31, 574080, Note_on_c, 13, 67, 80
31, 574779, Note_on_c, 13, 67, 0
31, 574800, Note_on_c, 13, 67, 80
31, 575499, Note_on_c, 13, 67, 0
31, 575520, Note_on_c, 13, 66, 80
31, 576219, Note_on_c, 13, 66, 0
31, 576240, Note_on_c, 13, 62, 80
31, 576939, Note_on_c, 13, 62, 0
31, 576960, Note_on_c, 13, 71, 80
31, 577659, Note_on_c, 13, 71, 0
31, 577680, Note_on_c, 13, 71, 80
31, 578379, Note_on_c, 13, 71, 0
31, 578400, Note_on_c, 13, 69, 80
31, 579099, Note_on_c, 13, 69, 0
31, 579120, Note_on_c, 13, 61, 92
31, 580539, Note_on_c, 13, 61, 0
31, 580560, Note_on_c, 13, 61, 80
31, 581259, Note_on_c, 13, 61, 0
31, 581280, Note_on_c, 13, 59, 80
31, 581979, Note_on_c, 13, 59, 0
31, 582000, Note_on_c, 13, 57, 80
31, 582479, Note_on_c, 13, 57, 0
31, 582480, Note_on_c, 13, 56, 80
31, 582699, Note_on_c, 13, 56, 0
31, 582720, Note_on_c, 13, 62, 80
31, 583419, Note_on_c, 13, 62, 0
31, 583440, Note_on_c, 13, 74, 80
31, 584139, Note_on_c, 13, 74, 0
31, 584160, Note_on_c, 13, 76, 80
31, 584859, Note_on_c, 13, 76, 0
31, 584880, Note_on_c, 13, 64, 80
31, 585579, Note_on_c, 13, 64, 0
31, 585600, Note_on_c, 13, 66, 80
31, 586299, Note_on_c, 13, 66, 0
31, 586320, Note_on_c, 13, 66, 80
31, 587019, Note_on_c, 13, 66, 0
31, 587040, Note_on_c, 13, 64, 80
31, 587739, Note_on_c, 13, 64, 0
31, 587760, Note_on_c, 13, 62, 80
31, 588239, Note_on_c, 13, 62, 0
31, 588240, Note_on_c, 13, 61, 80
31, 588459, Note_on_c, 13, 61, 0
31, 588480, Note_on_c, 13, 64, 80
31, 589179, Note_on_c, 13, 64, 0
31, 589200, Note_on_c, 13, 64, 80
31, 589899, Note_on_c, 13, 64, 0
31, 589920, Note_on_c, 13, 62, 80
31, 590639, Note_on_c, 13, 62, 0
31, 592800, Note_on_c, 13, 64, 80
31, 592899, Note_on_c, 13, 64, 0
31, 592920, Note_on_c, 13, 57, 80
31, 593019, Note_on_c, 13, 57, 0
31, 593040, Note_on_c, 13, 64, 80
31, 593139, Note_on_c, 13, 64, 0
31, 593160, Note_on_c, 13, 64, 80
31, 593259, Note_on_c, 13, 64, 0
31, 593280, Note_on_c, 13, 64, 80
31, 593519, Note_on_c, 13, 64, 0
31, 595680, Note_on_c, 13, 69, 80
31, 595779, Note_on_c, 13, 69, 0
31, 595800, Note_on_c, 13, 57, 80
31, 595899, Note_on_c, 13, 57, 0
31, 595920, Note_on_c, 13, 69, 80
31, 596019, Note_on_c, 13, 69, 0
31, 596040, Note_on_c, 13, 69, 80
31, 596139, Note_on_c, 13, 69, 0
31, 596160, Note_on_c, 13, 69, 80
31, 596399, Note_on_c, 13, 69, 0
31, 597840, Note_on_c, 13, 67, 80
31, 597939, Note_on_c, 13, 67, 0
31, 597960, Note_on_c, 13, 67, 80
31, 598059, Note_on_c, 13, 67, 0
31, 598080, Note_on_c, 13, 67, 80
31, 598179, Note_on_c, 13, 67, 0
31, 598200, Note_on_c, 13, 67, 80
31, 598299, Note_on_c, 13, 67, 0
31, 598320, Note_on_c, 13, 55, 80
31, 598419, Note_on_c, 13, 55, 0
31, 598440, Note_on_c, 13, 55, 80
31, 598539, Note_on_c, 13, 55, 0
31, 598560, Note_on_c, 13, 57, 80
31, 598659, Note_on_c, 13, 57, 0
31, 598680, Note_on_c, 13, 57, 80
31, 598779, Note_on_c, 13, 57, 0
31, 598800, Note_on_c, 13, 57, 80
31, 598899, Note_on_c, 13, 57, 0
31, 598920, Note_on_c, 13, 57, 80
31, 599019, Note_on_c, 13, 57, 0
31, 599040, Note_on_c, 13, 57, 80
31, 599139, Note_on_c, 13, 57, 0
31, 599160, Note_on_c, 13, 57, 80
31, 599259, Note_on_c, 13, 57, 0
31, 599280, Note_on_c, 13, 67, 80
31, 599399, Note_on_c, 13, 67, 0
31, 599400, Note_on_c, 13, 69, 80
31, 599519, Note_on_c, 13, 69, 0
31, 599520, Note_on_c, 13, 67, 80
31, 599639, Note_on_c, 13, 67, 0
31, 599640, Note_on_c, 13, 69, 80
31, 599759, Note_on_c, 13, 69, 0
31, 599760, Note_on_c, 13, 67, 80
31, 599879, Note_on_c, 13, 67, 0
31, 599880, Note_on_c, 13, 66, 80
31, 599979, Note_on_c, 13, 66, 0
31, 600000, Note_on_c, 13, 64, 80
31, 600119, Note_on_c, 13, 64, 0
31, 600120, Note_on_c, 13, 66, 80
31, 600239, Note_on_c, 13, 66, 0
31, 600240, Note_on_c, 13, 64, 80
31, 600359, Note_on_c, 13, 64, 0
31, 600360, Note_on_c, 13, 66, 80
31, 600479, Note_on_c, 13, 66, 0
31, 600480, Note_on_c, 13, 64, 80
31, 600599, Note_on_c, 13, 64, 0
31, 600600, Note_on_c, 13, 62, 80
31, 600699, Note_on_c, 13, 62, 0
31, 600720, Note_on_c, 13, 61, 80
31, 600839, Note_on_c, 13, 61, 0
31, 600840, Note_on_c, 13, 62, 80
31, 600959, Note_on_c, 13, 62, 0
31, 600960, Note_on_c, 13, 61, 80
31, 601079, Note_on_c, 13, 61, 0
31, 601080, Note_on_c, 13, 62, 80
31, 601179, Note_on_c, 13, 62, 0
31, 601200, Note_on_c, 13, 62, 80
31, 601299, Note_on_c, 13, 62, 0
31, 601320, Note_on_c, 13, 62, 80
31, 601419, Note_on_c, 13, 62, 0
31, 601440, Note_on_c, 13, 66, 80
31, 601539, Note_on_c, 13, 66, 0
31, 601560, Note_on_c, 13, 66, 80
31, 601659, Note_on_c, 13, 66, 0
31, 601680, Note_on_c, 13, 66, 80
31, 601779, Note_on_c, 13, 66, 0
31, 601800, Note_on_c, 13, 66, 80
31, 601899, Note_on_c, 13, 66, 0
31, 601920, Note_on_c, 13, 62, 80
31, 602159, Note_on_c, 13, 62, 0
31, 602880, Note_on_c, 13, 73, 80
31, 602999, Note_on_c, 13, 73, 0
31, 603000, Note_on_c, 13, 64, 80
31, 603119, Note_on_c, 13, 64, 0
31, 603120, Note_on_c, 13, 66, 80
31, 603239, Note_on_c, 13, 66, 0
31, 603240, Note_on_c, 13, 68, 80
31, 603359, Note_on_c, 13, 68, 0
31, 603360, Note_on_c, 13, 69, 80
31, 603479, Note_on_c, 13, 69, 0
31, 603480, Note_on_c, 13, 73, 80
31, 603579, Note_on_c, 13, 73, 0
31, 603600, Note_on_c, 13, 74, 80
31, 603719, Note_on_c, 13, 74, 0
31, 603720, Note_on_c, 13, 69, 80
31, 603839, Note_on_c, 13, 69, 0
31, 603840, Note_on_c, 13, 74, 80
31, 603959, Note_on_c, 13, 74, 0
31, 603960, Note_on_c, 13, 69, 80
31, 604079, Note_on_c, 13, 69, 0
31, 604080, Note_on_c, 13, 76, 80
31, 604199, Note_on_c, 13, 76, 0
31, 604200, Note_on_c, 13, 69, 80
31, 604299, Note_on_c, 13, 69, 0
31, 604320, Note_on_c, 13, 76, 80
31, 604439, Note_on_c, 13, 76, 0
31, 604440, Note_on_c, 13, 78, 80
31, 604559, Note_on_c, 13, 78, 0
31, 604560, Note_on_c, 13, 76, 80
31, 604679, Note_on_c, 13, 76, 0
31, 604680, Note_on_c, 13, 74, 80
31, 604799, Note_on_c, 13, 74, 0
31, 604800, Note_on_c, 13, 76, 80
31, 604919, Note_on_c, 13, 76, 0
31, 604920, Note_on_c, 13, 74, 80
31, 605019, Note_on_c, 13, 74, 0
31, 605040, Note_on_c, 13, 73, 80
31, 605159, Note_on_c, 13, 73, 0
31, 605160, Note_on_c, 13, 74, 80
31, 605279, Note_on_c, 13, 74, 0
31, 605280, Note_on_c, 13, 73, 80
31, 605399, Note_on_c, 13, 73, 0
31, 605400, Note_on_c, 13, 71, 80
31, 605519, Note_on_c, 13, 71, 0
31, 605520, Note_on_c, 13, 73, 80
31, 605639, Note_on_c, 13, 73, 0
31, 605640, Note_on_c, 13, 71, 80
31, 605739, Note_on_c, 13, 71, 0
31, 605760, Note_on_c, 13, 69, 80
31, 605879, Note_on_c, 13, 69, 0
31, 605880, Note_on_c, 13, 57, 80
31, 605999, Note_on_c, 13, 57, 0
31, 606000, Note_on_c, 13, 66, 80
31, 606119, Note_on_c, 13, 66, 0
31, 606120, Note_on_c, 13, 68, 80
31, 606239, Note_on_c, 13, 68, 0
31, 606240, Note_on_c, 13, 69, 80
31, 606359, Note_on_c, 13, 69, 0
31, 606360, Note_on_c, 13, 66, 80
31, 606459, Note_on_c, 13, 66, 0
31, 606480, Note_on_c, 13, 71, 80
31, 606599, Note_on_c, 13, 71, 0
31, 606600, Note_on_c, 13, 62, 80
31, 606719, Note_on_c, 13, 62, 0
31, 606720, Note_on_c, 13, 69, 80
31, 606839, Note_on_c, 13, 69, 0
31, 606840, Note_on_c, 13, 71, 80
31, 606959, Note_on_c, 13, 71, 0
31, 606960, Note_on_c, 13, 73, 80
31, 607079, Note_on_c, 13, 73, 0
31, 607080, Note_on_c, 13, 69, 80
31, 607179, Note_on_c, 13, 69, 0
31, 607200, Note_on_c, 13, 73, 80
31, 607319, Note_on_c, 13, 73, 0
31, 607320, Note_on_c, 13, 74, 80
31, 607439, Note_on_c, 13, 74, 0
31, 607440, Note_on_c, 13, 73, 80
31, 607559, Note_on_c, 13, 73, 0
31, 607560, Note_on_c, 13, 71, 80
31, 607679, Note_on_c, 13, 71, 0
31, 607680, Note_on_c, 13, 73, 80
31, 607799, Note_on_c, 13, 73, 0
31, 607800, Note_on_c, 13, 71, 80
31, 607899, Note_on_c, 13, 71, 0
31, 607920, Note_on_c, 13, 69, 80
31, 608039, Note_on_c, 13, 69, 0
31, 608040, Note_on_c, 13, 71, 80
31, 608159, Note_on_c, 13, 71, 0
31, 608160, Note_on_c, 13, 69, 80
31, 608279, Note_on_c, 13, 69, 0
31, 608280, Note_on_c, 13, 67, 80
31, 608399, Note_on_c, 13, 67, 0
31, 608400, Note_on_c, 13, 69, 80
31, 608519, Note_on_c, 13, 69, 0
31, 608520, Note_on_c, 13, 67, 80
31, 608619, Note_on_c, 13, 67, 0
31, 608640, Note_on_c, 13, 66, 80
31, 608759, Note_on_c, 13, 66, 0
31, 608760, Note_on_c, 13, 61, 80
31, 608879, Note_on_c, 13, 61, 0
31, 608880, Note_on_c, 13, 62, 80
31, 608999, Note_on_c, 13, 62, 0
31, 609000, Note_on_c, 13, 64, 80
31, 609119, Note_on_c, 13, 64, 0
31, 609120, Note_on_c, 13, 66, 80
31, 609239, Note_on_c, 13, 66, 0
31, 609240, Note_on_c, 13, 62, 80
31, 609339, Note_on_c, 13, 62, 0
31, 609360, Note_on_c, 13, 68, 80
31, 609479, Note_on_c, 13, 68, 0
31, 609480, Note_on_c, 13, 64, 80
31, 609599, Note_on_c, 13, 64, 0
31, 609600, Note_on_c, 13, 66, 80
31, 609719, Note_on_c, 13, 66, 0
31, 609720, Note_on_c, 13, 68, 80
31, 609839, Note_on_c, 13, 68, 0
31, 609840, Note_on_c, 13, 69, 80
31, 609959, Note_on_c, 13, 69, 0
31, 609960, Note_on_c, 13, 68, 80
31, 610059, Note_on_c, 13, 68, 0
31, 610080, Note_on_c, 13, 69, 80
31, 610199, Note_on_c, 13, 69, 0
31, 610200, Note_on_c, 13, 71, 80
31, 610319, Note_on_c, 13, 71, 0
31, 610320, Note_on_c, 13, 69, 80
31, 610439, Note_on_c, 13, 69, 0
31, 610440, Note_on_c, 13, 67, 80
31, 610559, Note_on_c, 13, 67, 0
31, 610560, Note_on_c, 13, 69, 80
31, 610679, Note_on_c, 13, 69, 0
31, 610680, Note_on_c, 13, 67, 80
31, 610779, Note_on_c, 13, 67, 0
31, 610800, Note_on_c, 13, 66, 80
31, 610919, Note_on_c, 13, 66, 0
31, 610920, Note_on_c, 13, 67, 80
31, 611039, Note_on_c, 13, 67, 0
31, 611040, Note_on_c, 13, 66, 80
31, 611159, Note_on_c, 13, 66, 0
31, 611160, Note_on_c, 13, 64, 80
31, 611279, Note_on_c, 13, 64, 0
31, 611280, Note_on_c, 13, 66, 80
31, 611399, Note_on_c, 13, 66, 0
31, 611400, Note_on_c, 13, 64, 80
31, 611499, Note_on_c, 13, 64, 0
31, 611520, Note_on_c, 13, 74, 80
31, 611639, Note_on_c, 13, 74, 0
31, 611640, Note_on_c, 13, 76, 80
31, 611759, Note_on_c, 13, 76, 0
31, 611760, Note_on_c, 13, 74, 80
31, 611879, Note_on_c, 13, 74, 0
31, 611880, Note_on_c, 13, 73, 80
31, 611999, Note_on_c, 13, 73, 0
31, 612000, Note_on_c, 13, 74, 80
31, 612119, Note_on_c, 13, 74, 0
31, 612120, Note_on_c, 13, 73, 80
31, 612219, Note_on_c, 13, 73, 0
31, 612240, Note_on_c, 13, 71, 80
31, 612359, Note_on_c, 13, 71, 0
31, 612360, Note_on_c, 13, 73, 80
31, 612479, Note_on_c, 13, 73, 0
31, 612480, Note_on_c, 13, 71, 80
31, 612599, Note_on_c, 13, 71, 0
31, 612600, Note_on_c, 13, 64, 80
31, 612719, Note_on_c, 13, 64, 0
31, 612720, Note_on_c, 13, 69, 80
31, 612839, Note_on_c, 13, 69, 0
31, 612840, Note_on_c, 13, 64, 80
31, 612939, Note_on_c, 13, 64, 0
31, 612960, Note_on_c, 13, 73, 80
31, 613079, Note_on_c, 13, 73, 0
31, 613080, Note_on_c, 13, 74, 80
31, 613199, Note_on_c, 13, 74, 0
31, 613200, Note_on_c, 13, 73, 80
31, 613319, Note_on_c, 13, 73, 0
31, 613320, Note_on_c, 13, 71, 80
31, 613439, Note_on_c, 13, 71, 0
31, 613440, Note_on_c, 13, 73, 80
31, 613559, Note_on_c, 13, 73, 0
31, 613560, Note_on_c, 13, 71, 80
31, 613659, Note_on_c, 13, 71, 0
31, 613680, Note_on_c, 13, 73, 80
31, 613799, Note_on_c, 13, 73, 0
31, 613800, Note_on_c, 13, 66, 80
31, 613919, Note_on_c, 13, 66, 0
31, 613920, Note_on_c, 13, 70, 80
31, 614039, Note_on_c, 13, 70, 0
31, 614040, Note_on_c, 13, 71, 80
31, 614159, Note_on_c, 13, 71, 0
31, 614160, Note_on_c, 13, 73, 80
31, 614399, Note_on_c, 13, 73, 0
31, 615120, Note_on_c, 13, 66, 80
31, 615239, Note_on_c, 13, 66, 0
31, 615240, Note_on_c, 13, 61, 80
31, 615359, Note_on_c, 13, 61, 0
31, 615360, Note_on_c, 13, 66, 80
31, 615479, Note_on_c, 13, 66, 0
31, 615480, Note_on_c, 13, 61, 80
31, 615599, Note_on_c, 13, 61, 0
31, 615600, Note_on_c, 13, 66, 80
31, 615719, Note_on_c, 13, 66, 0
31, 615720, Note_on_c, 13, 61, 80
31, 615819, Note_on_c, 13, 61, 0
31, 615840, Note_on_c, 13, 66, 80
31, 615959, Note_on_c, 13, 66, 0
31, 615960, Note_on_c, 13, 63, 80
31, 616079, Note_on_c, 13, 63, 0
31, 616080, Note_on_c, 13, 66, 80
31, 616199, Note_on_c, 13, 66, 0
31, 616200, Note_on_c, 13, 63, 80
31, 616319, Note_on_c, 13, 63, 0
31, 616320, Note_on_c, 13, 66, 80
31, 616439, Note_on_c, 13, 66, 0
31, 616440, Note_on_c, 13, 63, 80
31, 616539, Note_on_c, 13, 63, 0
31, 616560, Note_on_c, 13, 63, 80
31, 616679, Note_on_c, 13, 63, 0
31, 616680, Note_on_c, 13, 66, 80
31, 616799, Note_on_c, 13, 66, 0
31, 616800, Note_on_c, 13, 63, 80
31, 616919, Note_on_c, 13, 63, 0
31, 616920, Note_on_c, 13, 66, 80
31, 617039, Note_on_c, 13, 66, 0
31, 617040, Note_on_c, 13, 63, 80
31, 617159, Note_on_c, 13, 63, 0
31, 617160, Note_on_c, 13, 66, 80
31, 617259, Note_on_c, 13, 66, 0
31, 617280, Note_on_c, 13, 66, 80
31, 617399, Note_on_c, 13, 66, 0
31, 617400, Note_on_c, 13, 63, 80
31, 617519, Note_on_c, 13, 63, 0
31, 617520, Note_on_c, 13, 66, 80
31, 617639, Note_on_c, 13, 66, 0
31, 617640, Note_on_c, 13, 63, 80
31, 617759, Note_on_c, 13, 63, 0
31, 617760, Note_on_c, 13, 66, 80
31, 617879, Note_on_c, 13, 66, 0
31, 617880, Note_on_c, 13, 63, 80
31, 617979, Note_on_c, 13, 63, 0
31, 618000, Note_on_c, 13, 63, 80
31, 618119, Note_on_c, 13, 63, 0
31, 618120, Note_on_c, 13, 59, 80
31, 618239, Note_on_c, 13, 59, 0
31, 618240, Note_on_c, 13, 63, 80
31, 618359, Note_on_c, 13, 63, 0
31, 618360, Note_on_c, 13, 59, 80
31, 618479, Note_on_c, 13, 59, 0
31, 618480, Note_on_c, 13, 63, 80
31, 618599, Note_on_c, 13, 63, 0
31, 618600, Note_on_c, 13, 59, 80
31, 618699, Note_on_c, 13, 59, 0
31, 618720, Note_on_c, 13, 59, 80
31, 618839, Note_on_c, 13, 59, 0
31, 618840, Note_on_c, 13, 64, 80
31, 618959, Note_on_c, 13, 64, 0
31, 618960, Note_on_c, 13, 59, 80
31, 619079, Note_on_c, 13, 59, 0
31, 619080, Note_on_c, 13, 64, 80
31, 619199, Note_on_c, 13, 64, 0
31, 619200, Note_on_c, 13, 59, 80
31, 619319, Note_on_c, 13, 59, 0
31, 619320, Note_on_c, 13, 64, 80
31, 619419, Note_on_c, 13, 64, 0
31, 619440, Note_on_c, 13, 59, 80
31, 619559, Note_on_c, 13, 59, 0
31, 619560, Note_on_c, 13, 64, 80
31, 619679, Note_on_c, 13, 64, 0
31, 619680, Note_on_c, 13, 59, 80
31, 619799, Note_on_c, 13, 59, 0
31, 619800, Note_on_c, 13, 64, 80
31, 619899, Note_on_c, 13, 64, 0
31, 619920, Note_on_c, 13, 64, 80
31, 620139, Note_on_c, 13, 64, 0
31, 620160, Note_on_c, 13, 64, 80
31, 620279, Note_on_c, 13, 64, 0
31, 620280, Note_on_c, 13, 67, 80
31, 620399, Note_on_c, 13, 67, 0
31, 620400, Note_on_c, 13, 64, 80
31, 620519, Note_on_c, 13, 64, 0
31, 620520, Note_on_c, 13, 67, 80
31, 620639, Note_on_c, 13, 67, 0
31, 620640, Note_on_c, 13, 64, 80
31, 620759, Note_on_c, 13, 64, 0
31, 620760, Note_on_c, 13, 67, 80
31, 620859, Note_on_c, 13, 67, 0
31, 620880, Note_on_c, 13, 64, 80
31, 620999, Note_on_c, 13, 64, 0
31, 621000, Note_on_c, 13, 67, 80
31, 621119, Note_on_c, 13, 67, 0
31, 621120, Note_on_c, 13, 64, 80
31, 621239, Note_on_c, 13, 64, 0
31, 621240, Note_on_c, 13, 67, 80
31, 621359, Note_on_c, 13, 67, 0
31, 621360, Note_on_c, 13, 64, 80
31, 621479, Note_on_c, 13, 64, 0
31, 621480, Note_on_c, 13, 67, 80
31, 621579, Note_on_c, 13, 67, 0
31, 621600, Note_on_c, 13, 64, 80
31, 621719, Note_on_c, 13, 64, 0
31, 621720, Note_on_c, 13, 69, 80
31, 621839, Note_on_c, 13, 69, 0
31, 621840, Note_on_c, 13, 64, 80
31, 621959, Note_on_c, 13, 64, 0
31, 621960, Note_on_c, 13, 69, 80
31, 622079, Note_on_c, 13, 69, 0
31, 622080, Note_on_c, 13, 62, 80
31, 622199, Note_on_c, 13, 62, 0
31, 622200, Note_on_c, 13, 69, 80
31, 622299, Note_on_c, 13, 69, 0
31, 622320, Note_on_c, 13, 74, 92
31, 623739, Note_on_c, 13, 74, 0
31, 623760, Note_on_c, 13, 74, 80
31, 624459, Note_on_c, 13, 74, 0
31, 624480, Note_on_c, 13, 73, 80
31, 625179, Note_on_c, 13, 73, 0
31, 625200, Note_on_c, 13, 69, 80
31, 625899, Note_on_c, 13, 69, 0
31, 625920, Note_on_c, 13, 71, 80
31, 626619, Note_on_c, 13, 71, 0
31, 626640, Note_on_c, 13, 71, 80
31, 627339, Note_on_c, 13, 71, 0
31, 627360, Note_on_c, 13, 69, 80
31, 628059, Note_on_c, 13, 69, 0
31, 628080, Note_on_c, 13, 66, 80
31, 628779, Note_on_c, 13, 66, 0
31, 628800, Note_on_c, 13, 68, 80
31, 629499, Note_on_c, 13, 68, 0
31, 629520, Note_on_c, 13, 68, 80
31, 630219, Note_on_c, 13, 68, 0
31, 630240, Note_on_c, 13, 66, 80
31, 630939, Note_on_c, 13, 66, 0
31, 630960, Note_on_c, 13, 62, 80
31, 631659, Note_on_c, 13, 62, 0
31, 631680, Note_on_c, 13, 71, 80
31, 632379, Note_on_c, 13, 71, 0
31, 632400, Note_on_c, 13, 64, 80
31, 632400, Note_on_c, 13, 71, 80
31, 633099, Note_on_c, 13, 64, 0
31, 633099, Note_on_c, 13, 71, 0
31, 633120, Note_on_c, 13, 64, 80
31, 633120, Note_on_c, 13, 69, 80
31, 633839, Note_on_c, 13, 64, 0
31, 633839, Note_on_c, 13, 69, 0
31, 634560, Note_on_c, 13, 61, 80
31, 634679, Note_on_c, 13, 61, 0
31, 634680, Note_on_c, 13, 59, 80
31, 634799, Note_on_c, 13, 59, 0
31, 634800, Note_on_c, 13, 57, 80
31, 634919, Note_on_c, 13, 57, 0
31, 634920, Note_on_c, 13, 59, 80
31, 635039, Note_on_c, 13, 59, 0
31, 635040, Note_on_c, 13, 61, 80
31, 635159, Note_on_c, 13, 61, 0
31, 635160, Note_on_c, 13, 57, 80
31, 635259, Note_on_c, 13, 57, 0
31, 635280, Note_on_c, 13, 63, 80
31, 635399, Note_on_c, 13, 63, 0
31, 635400, Note_on_c, 13, 59, 80
31, 635519, Note_on_c, 13, 59, 0
31, 635520, Note_on_c, 13, 61, 80
31, 635639, Note_on_c, 13, 61, 0
31, 635640, Note_on_c, 13, 63, 80
31, 635759, Note_on_c, 13, 63, 0
31, 635760, Note_on_c, 13, 64, 80
31, 635879, Note_on_c, 13, 64, 0
31, 635880, Note_on_c, 13, 63, 80
31, 635979, Note_on_c, 13, 63, 0
31, 636000, Note_on_c, 13, 64, 80
31, 636119, Note_on_c, 13, 64, 0
31, 636120, Note_on_c, 13, 66, 80
31, 636239, Note_on_c, 13, 66, 0
31, 636240, Note_on_c, 13, 64, 80
31, 636359, Note_on_c, 13, 64, 0
31, 636360, Note_on_c, 13, 62, 80
31, 636479, Note_on_c, 13, 62, 0
31, 636480, Note_on_c, 13, 64, 80
31, 636599, Note_on_c, 13, 64, 0
31, 636600, Note_on_c, 13, 62, 80
31, 636699, Note_on_c, 13, 62, 0
31, 636720, Note_on_c, 13, 61, 80
31, 636839, Note_on_c, 13, 61, 0
31, 636840, Note_on_c, 13, 62, 80
31, 636959, Note_on_c, 13, 62, 0
31, 636960, Note_on_c, 13, 61, 80
31, 637079, Note_on_c, 13, 61, 0
31, 637080, Note_on_c, 13, 59, 80
31, 637199, Note_on_c, 13, 59, 0
31, 637200, Note_on_c, 13, 61, 80
31, 637319, Note_on_c, 13, 61, 0
31, 637320, Note_on_c, 13, 59, 80
31, 637419, Note_on_c, 13, 59, 0
31, 637440, Note_on_c, 13, 62, 80
31, 637559, Note_on_c, 13, 62, 0
31, 637560, Note_on_c, 13, 58, 80
31, 637679, Note_on_c, 13, 58, 0
31, 637680, Note_on_c, 13, 59, 80
31, 637799, Note_on_c, 13, 59, 0
31, 637800, Note_on_c, 13, 61, 80
31, 637919, Note_on_c, 13, 61, 0
31, 637920, Note_on_c, 13, 62, 80
31, 638039, Note_on_c, 13, 62, 0
31, 638040, Note_on_c, 13, 59, 80
31, 638139, Note_on_c, 13, 59, 0
31, 638160, Note_on_c, 13, 62, 80
31, 638279, Note_on_c, 13, 62, 0
31, 638280, Note_on_c, 13, 61, 80
31, 638399, Note_on_c, 13, 61, 0
31, 638400, Note_on_c, 13, 59, 80
31, 638519, Note_on_c, 13, 59, 0
31, 638520, Note_on_c, 13, 61, 80
31, 638639, Note_on_c, 13, 61, 0
31, 638640, Note_on_c, 13, 62, 80
31, 638759, Note_on_c, 13, 62, 0
31, 638760, Note_on_c, 13, 64, 80
31, 638859, Note_on_c, 13, 64, 0
31, 638880, Note_on_c, 13, 66, 80
31, 638999, Note_on_c, 13, 66, 0
31, 639000, Note_on_c, 13, 67, 80
31, 639119, Note_on_c, 13, 67, 0
31, 639120, Note_on_c, 13, 66, 80
31, 639239, Note_on_c, 13, 66, 0
31, 639240, Note_on_c, 13, 64, 80
31, 639359, Note_on_c, 13, 64, 0
31, 639360, Note_on_c, 13, 66, 80
31, 639479, Note_on_c, 13, 66, 0
31, 639480, Note_on_c, 13, 64, 80
31, 639579, Note_on_c, 13, 64, 0
31, 639600, Note_on_c, 13, 62, 80
31, 639719, Note_on_c, 13, 62, 0
31, 639720, Note_on_c, 13, 64, 80
31, 639839, Note_on_c, 13, 64, 0
31, 639840, Note_on_c, 13, 62, 80
31, 639959, Note_on_c, 13, 62, 0
31, 639960, Note_on_c, 13, 61, 80
31, 640079, Note_on_c, 13, 61, 0
31, 640080, Note_on_c, 13, 62, 80
31, 640199, Note_on_c, 13, 62, 0
31, 640200, Note_on_c, 13, 61, 80
31, 640299, Note_on_c, 13, 61, 0
31, 640320, Note_on_c, 13, 71, 80
31, 640439, Note_on_c, 13, 71, 0
31, 640440, Note_on_c, 13, 62, 80
31, 640559, Note_on_c, 13, 62, 0
31, 640560, Note_on_c, 13, 66, 80
31, 640679, Note_on_c, 13, 66, 0
31, 640680, Note_on_c, 13, 68, 80
31, 640799, Note_on_c, 13, 68, 0
31, 640800, Note_on_c, 13, 70, 80
31, 640919, Note_on_c, 13, 70, 0
31, 640920, Note_on_c, 13, 71, 80
31, 641019, Note_on_c, 13, 71, 0
31, 641040, Note_on_c, 13, 73, 80
31, 641159, Note_on_c, 13, 73, 0
31, 641160, Note_on_c, 13, 66, 80
31, 641279, Note_on_c, 13, 66, 0
31, 641280, Note_on_c, 13, 73, 80
31, 641399, Note_on_c, 13, 73, 0
31, 641400, Note_on_c, 13, 66, 80
31, 641519, Note_on_c, 13, 66, 0
31, 641520, Note_on_c, 13, 74, 80
31, 641639, Note_on_c, 13, 74, 0
31, 641640, Note_on_c, 13, 66, 80
31, 641739, Note_on_c, 13, 66, 0
31, 641760, Note_on_c, 13, 73, 80
31, 641879, Note_on_c, 13, 73, 0
31, 641880, Note_on_c, 13, 74, 80
31, 641999, Note_on_c, 13, 74, 0
31, 642000, Note_on_c, 13, 73, 80
31, 642119, Note_on_c, 13, 73, 0
31, 642120, Note_on_c, 13, 71, 80
31, 642239, Note_on_c, 13, 71, 0
31, 642240, Note_on_c, 13, 73, 80
31, 642359, Note_on_c, 13, 73, 0
31, 642360, Note_on_c, 13, 71, 80
31, 642459, Note_on_c, 13, 71, 0
31, 642480, Note_on_c, 13, 70, 80
31, 642599, Note_on_c, 13, 70, 0
31, 642600, Note_on_c, 13, 71, 80
31, 642719, Note_on_c, 13, 71, 0
31, 642720, Note_on_c, 13, 70, 80
31, 642839, Note_on_c, 13, 70, 0
31, 642840, Note_on_c, 13, 68, 80
31, 642959, Note_on_c, 13, 68, 0
31, 642960, Note_on_c, 13, 70, 80
31, 643079, Note_on_c, 13, 70, 0
31, 643080, Note_on_c, 13, 68, 80
31, 643179, Note_on_c, 13, 68, 0
31, 643200, Note_on_c, 13, 70, 80
31, 643319, Note_on_c, 13, 70, 0
31, 643320, Note_on_c, 13, 61, 80
31, 643439, Note_on_c, 13, 61, 0
31, 643440, Note_on_c, 13, 66, 80
31, 643559, Note_on_c, 13, 66, 0
31, 643560, Note_on_c, 13, 68, 80
31, 643679, Note_on_c, 13, 68, 0
31, 643680, Note_on_c, 13, 70, 80
31, 643799, Note_on_c, 13, 70, 0
31, 643800, Note_on_c, 13, 66, 80
31, 643899, Note_on_c, 13, 66, 0
31, 643920, Note_on_c, 13, 71, 80
31, 644039, Note_on_c, 13, 71, 0
31, 644040, Note_on_c, 13, 66, 80
31, 644159, Note_on_c, 13, 66, 0
31, 644160, Note_on_c, 13, 71, 80
31, 644279, Note_on_c, 13, 71, 0
31, 644280, Note_on_c, 13, 66, 80
31, 644399, Note_on_c, 13, 66, 0
31, 644400, Note_on_c, 13, 73, 80
31, 644519, Note_on_c, 13, 73, 0
31, 644520, Note_on_c, 13, 66, 80
31, 644619, Note_on_c, 13, 66, 0
31, 644640, Note_on_c, 13, 73, 80
31, 644759, Note_on_c, 13, 73, 0
31, 644760, Note_on_c, 13, 66, 80
31, 644879, Note_on_c, 13, 66, 0
31, 644880, Note_on_c, 13, 73, 80
31, 644999, Note_on_c, 13, 73, 0
31, 645000, Note_on_c, 13, 66, 80
31, 645119, Note_on_c, 13, 66, 0
31, 645120, Note_on_c, 13, 71, 80
31, 645239, Note_on_c, 13, 71, 0
31, 645240, Note_on_c, 13, 66, 80
31, 645339, Note_on_c, 13, 66, 0
31, 645360, Note_on_c, 13, 73, 80
31, 645479, Note_on_c, 13, 73, 0
31, 645480, Note_on_c, 13, 66, 80
31, 645599, Note_on_c, 13, 66, 0
31, 645600, Note_on_c, 13, 73, 80
31, 645719, Note_on_c, 13, 73, 0
31, 645720, Note_on_c, 13, 66, 80
31, 645839, Note_on_c, 13, 66, 0
31, 645840, Note_on_c, 13, 74, 80
31, 645959, Note_on_c, 13, 74, 0
31, 645960, Note_on_c, 13, 66, 80
31, 646059, Note_on_c, 13, 66, 0
31, 646080, Note_on_c, 13, 71, 80
31, 646779, Note_on_c, 13, 71, 0
31, 646800, Note_on_c, 13, 71, 80
31, 647499, Note_on_c, 13, 71, 0
31, 647520, Note_on_c, 13, 70, 80
31, 648219, Note_on_c, 13, 70, 0
31, 648240, Note_on_c, 13, 66, 80
31, 648939, Note_on_c, 13, 66, 0
31, 648960, Note_on_c, 13, 76, 80
31, 649659, Note_on_c, 13, 76, 0
31, 649680, Note_on_c, 13, 75, 80
31, 650159, Note_on_c, 13, 75, 0
31, 650160, Note_on_c, 13, 73, 80
31, 650379, Note_on_c, 13, 73, 0
31, 650400, Note_on_c, 13, 75, 80
31, 651099, Note_on_c, 13, 75, 0
31, 651120, Note_on_c, 13, 66, 92
31, 651199, Note_on_c, 13, 66, 0
31, 651200, Note_on_c, 13, 66, 80
31, 651819, Note_on_c, 13, 66, 0
31, 651840, Note_on_c, 13, 69, 80
31, 652539, Note_on_c, 13, 69, 0
31, 652560, Note_on_c, 13, 68, 80
31, 653019, Note_on_c, 13, 68, 0
31, 653040, Note_on_c, 13, 66, 80
31, 653259, Note_on_c, 13, 66, 0
31, 653280, Note_on_c, 13, 64, 80
31, 653739, Note_on_c, 13, 64, 0
31, 653760, Note_on_c, 13, 68, 80
31, 653979, Note_on_c, 13, 68, 0
31, 654000, Note_on_c, 13, 69, 80
31, 654459, Note_on_c, 13, 69, 0
31, 654480, Note_on_c, 13, 71, 80
31, 654699, Note_on_c, 13, 71, 0
31, 654720, Note_on_c, 13, 76, 80
31, 655179, Note_on_c, 13, 76, 0
31, 655200, Note_on_c, 13, 74, 80
31, 655419, Note_on_c, 13, 74, 0
31, 655440, Note_on_c, 13, 73, 80
31, 655899, Note_on_c, 13, 73, 0
31, 655920, Note_on_c, 13, 71, 80
31, 656139, Note_on_c, 13, 71, 0
31, 656160, Note_on_c, 13, 69, 80
31, 656639, Note_on_c, 13, 69, 0
31, 656640, Note_on_c, 13, 76, 80
31, 656859, Note_on_c, 13, 76, 0
31, 656880, Note_on_c, 13, 74, 80
31, 657359, Note_on_c, 13, 74, 0
31, 657360, Note_on_c, 13, 76, 80
31, 657579, Note_on_c, 13, 76, 0
31, 657600, Note_on_c, 13, 74, 80
31, 658079, Note_on_c, 13, 74, 0
31, 658080, Note_on_c, 13, 73, 80
31, 658319, Note_on_c, 13, 73, 0
31, 661920, Note_on_c, 13, 66, 92
31, 662039, Note_on_c, 13, 66, 0
31, 662040, Note_on_c, 13, 57, 92
31, 662159, Note_on_c, 13, 57, 0
31, 662160, Note_on_c, 13, 59, 92
31, 662279, Note_on_c, 13, 59, 0
31, 662280, Note_on_c, 13, 61, 92
31, 662399, Note_on_c, 13, 61, 0
31, 662400, Note_on_c, 13, 62, 92
31, 662519, Note_on_c, 13, 62, 0
31, 662520, Note_on_c, 13, 64, 92
31, 662619, Note_on_c, 13, 64, 0
31, 662640, Note_on_c, 13, 66, 92
31, 662759, Note_on_c, 13, 66, 0
31, 662760, Note_on_c, 13, 64, 92
31, 662879, Note_on_c, 13, 64, 0
31, 662880, Note_on_c, 13, 62, 92
31, 662999, Note_on_c, 13, 62, 0
31, 663000, Note_on_c, 13, 64, 92
31, 663119, Note_on_c, 13, 64, 0
31, 663120, Note_on_c, 13, 66, 92
31, 663239, Note_on_c, 13, 66, 0
31, 663240, Note_on_c, 13, 67, 92
31, 663339, Note_on_c, 13, 67, 0
31, 663360, Note_on_c, 13, 69, 92
31, 663479, Note_on_c, 13, 69, 0
31, 663480, Note_on_c, 13, 71, 92
31, 663599, Note_on_c, 13, 71, 0
31, 663600, Note_on_c, 13, 69, 92
31, 663719, Note_on_c, 13, 69, 0
31, 663720, Note_on_c, 13, 67, 92
31, 663839, Note_on_c, 13, 67, 0
31, 663840, Note_on_c, 13, 69, 92
31, 663959, Note_on_c, 13, 69, 0
31, 663960, Note_on_c, 13, 67, 92
31, 664059, Note_on_c, 13, 67, 0
31, 664080, Note_on_c, 13, 66, 92
31, 664199, Note_on_c, 13, 66, 0
31, 664200, Note_on_c, 13, 67, 92
31, 664319, Note_on_c, 13, 67, 0
31, 664320, Note_on_c, 13, 66, 92
31, 664439, Note_on_c, 13, 66, 0
31, 664440, Note_on_c, 13, 64, 92
31, 664559, Note_on_c, 13, 64, 0
31, 664560, Note_on_c, 13, 66, 92
31, 664679, Note_on_c, 13, 66, 0
31, 664680, Note_on_c, 13, 64, 92
31, 664779, Note_on_c, 13, 64, 0
31, 664800, Note_on_c, 13, 62, 92
31, 664919, Note_on_c, 13, 62, 0
31, 664920, Note_on_c, 13, 61, 92
31, 665039, Note_on_c, 13, 61, 0
31, 665040, Note_on_c, 13, 59, 92
31, 665159, Note_on_c, 13, 59, 0
31, 665160, Note_on_c, 13, 61, 92
31, 665279, Note_on_c, 13, 61, 0
31, 665280, Note_on_c, 13, 62, 92
31, 665399, Note_on_c, 13, 62, 0
31, 665400, Note_on_c, 13, 59, 92
31, 665499, Note_on_c, 13, 59, 0
31, 665520, Note_on_c, 13, 64, 92
31, 665639, Note_on_c, 13, 64, 0
31, 665640, Note_on_c, 13, 61, 92
31, 665759, Note_on_c, 13, 61, 0
31, 665760, Note_on_c, 13, 62, 92
31, 665879, Note_on_c, 13, 62, 0
31, 665880, Note_on_c, 13, 64, 92
31, 665999, Note_on_c, 13, 64, 0
31, 666000, Note_on_c, 13, 66, 92
31, 666119, Note_on_c, 13, 66, 0
31, 666120, Note_on_c, 13, 62, 92
31, 666219, Note_on_c, 13, 62, 0
31, 666240, Note_on_c, 13, 66, 92
31, 666359, Note_on_c, 13, 66, 0
31, 666360, Note_on_c, 13, 67, 92
31, 666479, Note_on_c, 13, 67, 0
31, 666480, Note_on_c, 13, 66, 92
31, 666599, Note_on_c, 13, 66, 0
31, 666600, Note_on_c, 13, 64, 92
31, 666719, Note_on_c, 13, 64, 0
31, 666720, Note_on_c, 13, 66, 92
31, 666839, Note_on_c, 13, 66, 0
31, 666840, Note_on_c, 13, 64, 92
31, 666939, Note_on_c, 13, 64, 0
31, 666960, Note_on_c, 13, 62, 92
31, 667079, Note_on_c, 13, 62, 0
31, 667080, Note_on_c, 13, 64, 92
31, 667199, Note_on_c, 13, 64, 0
31, 667200, Note_on_c, 13, 62, 92
31, 667319, Note_on_c, 13, 62, 0
31, 667320, Note_on_c, 13, 61, 92
31, 667439, Note_on_c, 13, 61, 0
31, 667440, Note_on_c, 13, 62, 92
31, 667559, Note_on_c, 13, 62, 0
31, 667560, Note_on_c, 13, 60, 92
31, 667659, Note_on_c, 13, 60, 0
31, 667680, Note_on_c, 13, 59, 92
31, 667799, Note_on_c, 13, 59, 0
31, 667800, Note_on_c, 13, 62, 92
31, 667919, Note_on_c, 13, 62, 0
31, 667920, Note_on_c, 13, 64, 92
31, 668039, Note_on_c, 13, 64, 0
31, 668040, Note_on_c, 13, 66, 92
31, 668159, Note_on_c, 13, 66, 0
31, 668160, Note_on_c, 13, 67, 92
31, 668279, Note_on_c, 13, 67, 0
31, 668280, Note_on_c, 13, 71, 92
31, 668379, Note_on_c, 13, 71, 0
31, 668400, Note_on_c, 13, 72, 92
31, 668519, Note_on_c, 13, 72, 0
31, 668520, Note_on_c, 13, 62, 92
31, 668639, Note_on_c, 13, 62, 0
31, 668640, Note_on_c, 13, 72, 92
31, 668759, Note_on_c, 13, 72, 0
31, 668760, Note_on_c, 13, 62, 92
31, 668879, Note_on_c, 13, 62, 0
31, 668880, Note_on_c, 13, 74, 92
31, 668999, Note_on_c, 13, 74, 0
31, 669000, Note_on_c, 13, 62, 92
31, 669099, Note_on_c, 13, 62, 0
31, 669120, Note_on_c, 13, 74, 92
31, 669239, Note_on_c, 13, 74, 0
31, 669240, Note_on_c, 13, 62, 92
31, 669359, Note_on_c, 13, 62, 0
31, 669360, Note_on_c, 13, 61, 92
31, 669479, Note_on_c, 13, 61, 0
31, 669480, Note_on_c, 13, 62, 92
31, 669599, Note_on_c, 13, 62, 0
31, 669600, Note_on_c, 13, 64, 92
31, 669719, Note_on_c, 13, 64, 0
31, 669720, Note_on_c, 13, 66, 92
31, 669819, Note_on_c, 13, 66, 0
31, 669840, Note_on_c, 13, 67, 92
31, 669959, Note_on_c, 13, 67, 0
31, 669960, Note_on_c, 13, 66, 92
31, 670079, Note_on_c, 13, 66, 0
31, 670080, Note_on_c, 13, 64, 92
31, 670199, Note_on_c, 13, 64, 0
31, 670200, Note_on_c, 13, 66, 92
31, 670319, Note_on_c, 13, 66, 0
31, 670320, Note_on_c, 13, 67, 92
31, 670439, Note_on_c, 13, 67, 0
31, 670440, Note_on_c, 13, 69, 92
31, 670539, Note_on_c, 13, 69, 0
31, 670560, Note_on_c, 13, 67, 92
31, 670679, Note_on_c, 13, 67, 0
31, 670680, Note_on_c, 13, 66, 92
31, 670799, Note_on_c, 13, 66, 0
31, 670800, Note_on_c, 13, 64, 92
31, 670919, Note_on_c, 13, 64, 0
31, 670920, Note_on_c, 13, 62, 92
31, 671039, Note_on_c, 13, 62, 0
31, 671040, Note_on_c, 13, 64, 92
31, 671159, Note_on_c, 13, 64, 0
31, 671160, Note_on_c, 13, 66, 92
31, 671259, Note_on_c, 13, 66, 0
31, 671280, Note_on_c, 13, 67, 92
31, 671399, Note_on_c, 13, 67, 0
31, 671400, Note_on_c, 13, 66, 92
31, 671519, Note_on_c, 13, 66, 0
31, 671520, Note_on_c, 13, 64, 92
31, 671639, Note_on_c, 13, 64, 0
31, 671640, Note_on_c, 13, 66, 92
31, 671759, Note_on_c, 13, 66, 0
31, 671760, Note_on_c, 13, 67, 92
31, 671879, Note_on_c, 13, 67, 0
31, 671880, Note_on_c, 13, 69, 92
31, 671979, Note_on_c, 13, 69, 0
31, 672000, Note_on_c, 13, 71, 92
31, 672119, Note_on_c, 13, 71, 0
31, 672120, Note_on_c, 13, 69, 92
31, 672239, Note_on_c, 13, 69, 0
31, 672240, Note_on_c, 13, 67, 92
31, 672359, Note_on_c, 13, 67, 0
31, 672360, Note_on_c, 13, 66, 92
31, 672479, Note_on_c, 13, 66, 0
31, 672480, Note_on_c, 13, 67, 92
31, 672599, Note_on_c, 13, 67, 0
31, 672600, Note_on_c, 13, 69, 92
31, 672699, Note_on_c, 13, 69, 0
31, 672720, Note_on_c, 13, 71, 92
31, 672839, Note_on_c, 13, 71, 0
31, 672840, Note_on_c, 13, 67, 92
31, 672959, Note_on_c, 13, 67, 0
31, 672960, Note_on_c, 13, 71, 92
31, 673079, Note_on_c, 13, 71, 0
31, 673080, Note_on_c, 13, 67, 92
31, 673199, Note_on_c, 13, 67, 0
31, 673200, Note_on_c, 13, 73, 92
31, 673319, Note_on_c, 13, 73, 0
31, 673320, Note_on_c, 13, 67, 92
31, 673419, Note_on_c, 13, 67, 0
31, 673440, Note_on_c, 13, 73, 92
31, 673559, Note_on_c, 13, 73, 0
31, 673560, Note_on_c, 13, 67, 92
31, 673679, Note_on_c, 13, 67, 0
31, 673680, Note_on_c, 13, 73, 92
31, 673799, Note_on_c, 13, 73, 0
31, 673800, Note_on_c, 13, 67, 92
31, 673919, Note_on_c, 13, 67, 0
31, 673920, Note_on_c, 13, 69, 92
31, 674039, Note_on_c, 13, 69, 0
31, 674040, Note_on_c, 13, 67, 92
31, 674139, Note_on_c, 13, 67, 0
31, 674160, Note_on_c, 13, 71, 92
31, 674279, Note_on_c, 13, 71, 0
31, 674280, Note_on_c, 13, 67, 92
31, 674399, Note_on_c, 13, 67, 0
31, 674400, Note_on_c, 13, 71, 92
31, 674519, Note_on_c, 13, 71, 0
31, 674520, Note_on_c, 13, 67, 92
31, 674639, Note_on_c, 13, 67, 0
31, 674640, Note_on_c, 13, 73, 92
31, 674759, Note_on_c, 13, 73, 0
31, 674760, Note_on_c, 13, 67, 92
31, 674859, Note_on_c, 13, 67, 0
31, 674880, Note_on_c, 13, 74, 92
31, 674999, Note_on_c, 13, 74, 0
31, 675000, Note_on_c, 13, 69, 92
31, 675119, Note_on_c, 13, 69, 0
31, 675120, Note_on_c, 13, 71, 92
31, 675239, Note_on_c, 13, 71, 0
31, 675240, Note_on_c, 13, 73, 92
31, 675359, Note_on_c, 13, 73, 0
31, 675360, Note_on_c, 13, 74, 92
31, 675479, Note_on_c, 13, 74, 0
31, 675480, Note_on_c, 13, 73, 92
31, 675599, Note_on_c, 13, 73, 0
31, 675600, Note_on_c, 13, 74, 92
31, 675719, Note_on_c, 13, 74, 0
31, 675720, Note_on_c, 13, 78, 92
31, 675839, Note_on_c, 13, 78, 0
31, 675840, Note_on_c, 13, 81, 92
31, 675959, Note_on_c, 13, 81, 0
31, 675960, Note_on_c, 13, 73, 92
31, 676079, Note_on_c, 13, 73, 0
31, 676080, Note_on_c, 13, 74, 92
31, 676299, Note_on_c, 13, 74, 0
31, 676320, Note_on_c, 13, 66, 32
31, 676799, Note_on_c, 13, 66, 0
31, 677520, Note_on_c, 13, 66, 32
31, 677739, Note_on_c, 13, 66, 0
31, 677760, Note_on_c, 13, 60, 32
31, 678239, Note_on_c, 13, 60, 0
31, 678960, Note_on_c, 13, 60, 32
31, 679179, Note_on_c, 13, 60, 0
31, 679200, Note_on_c, 13, 69, 32
31, 679679, Note_on_c, 13, 69, 0
31, 680400, Note_on_c, 13, 69, 32
31, 680619, Note_on_c, 13, 69, 0
31, 680640, Note_on_c, 13, 70, 32
31, 681119, Note_on_c, 13, 70, 0
31, 681840, Note_on_c, 13, 70, 32
31, 682059, Note_on_c, 13, 70, 0
31, 682080, Note_on_c, 13, 64, 32
31, 682559, Note_on_c, 13, 64, 0
31, 683280, Note_on_c, 13, 64, 32
31, 683499, Note_on_c, 13, 64, 0
31, 683520, Note_on_c, 13, 73, 32
31, 683999, Note_on_c, 13, 73, 0
31, 684720, Note_on_c, 13, 73, 32
31, 684939, Note_on_c, 13, 73, 0
31, 684960, Note_on_c, 13, 74, 32
31, 685439, Note_on_c, 13, 74, 0
31, 685680, Control_c, 13, 11, 69
31, 686160, Note_on_c, 13, 74, 80
31, 686379, Note_on_c, 13, 74, 0
31, 686400, Note_on_c, 13, 75, 80
31, 687819, Note_on_c, 13, 75, 0
31, 687840, Control_c, 13, 11, 69
31, 687840, Note_on_c, 13, 67, 80
31, 688014, Control_c, 13, 11, 70
31, 688188, Control_c, 13, 11, 71
31, 688319, Note_on_c, 13, 67, 0
31, 688361, Control_c, 13, 11, 72
31, 688535, Control_c, 13, 11, 73
31, 688709, Control_c, 13, 11, 74
31, 688883, Control_c, 13, 11, 75
31, 689040, Note_on_c, 13, 67, 80
31, 689057, Control_c, 13, 11, 76
31, 689230, Control_c, 13, 11, 77
31, 689259, Note_on_c, 13, 67, 0
31, 689280, Note_on_c, 13, 76, 80
31, 689404, Control_c, 13, 11, 78
31, 689578, Control_c, 13, 11, 79
31, 689752, Control_c, 13, 11, 80
31, 689759, Note_on_c, 13, 76, 0
31, 689926, Control_c, 13, 11, 81
31, 690099, Control_c, 13, 11, 82
31, 690273, Control_c, 13, 11, 83
31, 690447, Control_c, 13, 11, 84
31, 690480, Note_on_c, 13, 76, 80
31, 690621, Control_c, 13, 11, 85
31, 690699, Note_on_c, 13, 76, 0
31, 690720, Note_on_c, 13, 77, 80
31, 690794, Control_c, 13, 11, 86
31, 690968, Control_c, 13, 11, 87
31, 691142, Control_c, 13, 11, 88
31, 691199, Note_on_c, 13, 77, 0
31, 691316, Control_c, 13, 11, 89
31, 691490, Control_c, 13, 11, 90
31, 691663, Control_c, 13, 11, 91
31, 691837, Control_c, 13, 11, 92
31, 691920, Note_on_c, 13, 77, 80
31, 692011, Control_c, 13, 11, 93
31, 692139, Note_on_c, 13, 77, 0
31, 692160, Note_on_c, 13, 78, 80
31, 692185, Control_c, 13, 11, 94
31, 692359, Control_c, 13, 11, 95
31, 692532, Control_c, 13, 11, 96
31, 692706, Control_c, 13, 11, 97
31, 692880, Control_c, 13, 11, 98
31, 693054, Control_c, 13, 11, 99
31, 693228, Control_c, 13, 11, 100
31, 693401, Control_c, 13, 11, 101
31, 693575, Control_c, 13, 11, 102
31, 693579, Note_on_c, 13, 78, 0
31, 693600, Note_on_c, 13, 70, 80
31, 693749, Control_c, 13, 11, 103
31, 693923, Control_c, 13, 11, 104
31, 694079, Note_on_c, 13, 70, 0
31, 694097, Control_c, 13, 11, 105
31, 694270, Control_c, 13, 11, 106
31, 694444, Control_c, 13, 11, 107
31, 694618, Control_c, 13, 11, 108
31, 694792, Control_c, 13, 11, 109
31, 694800, Note_on_c, 13, 70, 80
31, 694966, Control_c, 13, 11, 110
31, 695019, Note_on_c, 13, 70, 0
31, 695040, Note_on_c, 13, 79, 80
31, 695139, Control_c, 13, 11, 111
31, 695313, Control_c, 13, 11, 112
31, 695487, Control_c, 13, 11, 113
31, 695519, Note_on_c, 13, 79, 0
31, 695661, Control_c, 13, 11, 114
31, 695834, Control_c, 13, 11, 115
31, 696008, Control_c, 13, 11, 116
31, 696182, Control_c, 13, 11, 117
31, 696240, Note_on_c, 13, 79, 80
31, 696356, Control_c, 13, 11, 118
31, 696459, Note_on_c, 13, 79, 0
31, 696480, Note_on_c, 13, 80, 80
31, 696530, Control_c, 13, 11, 119
31, 696703, Control_c, 13, 11, 120
31, 696877, Control_c, 13, 11, 121
31, 696959, Note_on_c, 13, 80, 0
31, 697051, Control_c, 13, 11, 122
31, 697225, Control_c, 13, 11, 123
31, 697399, Control_c, 13, 11, 124
31, 697572, Control_c, 13, 11, 125
31, 697680, Note_on_c, 13, 80, 80
31, 697746, Control_c, 13, 11, 127
31, 697899, Note_on_c, 13, 80, 0
31, 697920, Note_on_c, 13, 81, 80
31, 698639, Note_on_c, 13, 81, 0
31, 700800, Note_on_c, 13, 71, 80
31, 700800, Note_on_c, 13, 68, 80
31, 701499, Note_on_c, 13, 71, 0
31, 701499, Note_on_c, 13, 68, 0
31, 701520, Note_on_c, 13, 68, 80
31, 701520, Note_on_c, 13, 71, 80
31, 702239, Note_on_c, 13, 68, 0
31, 702239, Note_on_c, 13, 71, 0
31, 702960, Control_c, 13, 11, 69
31, 703680, Note_on_c, 13, 64, 80
31, 703680, Note_on_c, 13, 73, 80
31, 704379, Note_on_c, 13, 64, 0
31, 704379, Note_on_c, 13, 73, 0
31, 704400, Note_on_c, 13, 64, 80
31, 704400, Note_on_c, 13, 73, 80
31, 705099, Note_on_c, 13, 64, 0
31, 705099, Note_on_c, 13, 73, 0
31, 705120, Note_on_c, 13, 64, 80
31, 705120, Note_on_c, 13, 73, 80
31, 705819, Note_on_c, 13, 64, 0
31, 705819, Note_on_c, 13, 73, 0
31, 705840, Note_on_c, 13, 64, 80
31, 705840, Note_on_c, 13, 73, 80
31, 706539, Note_on_c, 13, 64, 0
31, 706539, Note_on_c, 13, 73, 0
31, 706560, Note_on_c, 13, 64, 80
31, 706560, Control_c, 13, 11, 69
31, 706560, Note_on_c, 13, 74, 80
31, 706606, Control_c, 13, 11, 70
31, 706651, Control_c, 13, 11, 71
31, 706697, Control_c, 13, 11, 72
31, 706742, Control_c, 13, 11, 73
31, 706788, Control_c, 13, 11, 74
31, 706833, Control_c, 13, 11, 75
31, 706879, Control_c, 13, 11, 76
31, 706924, Control_c, 13, 11, 77
31, 706970, Control_c, 13, 11, 78
31, 707015, Control_c, 13, 11, 79
31, 707061, Control_c, 13, 11, 80
31, 707106, Control_c, 13, 11, 81
31, 707152, Control_c, 13, 11, 82
31, 707197, Control_c, 13, 11, 83
31, 707243, Control_c, 13, 11, 84
31, 707288, Control_c, 13, 11, 85
31, 707334, Control_c, 13, 11, 86
31, 707379, Control_c, 13, 11, 87
31, 707425, Control_c, 13, 11, 88
31, 707470, Control_c, 13, 11, 89
31, 707516, Control_c, 13, 11, 90
31, 707561, Control_c, 13, 11, 91
31, 707607, Control_c, 13, 11, 92
31, 707652, Control_c, 13, 11, 93
31, 707698, Control_c, 13, 11, 94
31, 707743, Control_c, 13, 11, 95
31, 707789, Control_c, 13, 11, 96
31, 707834, Control_c, 13, 11, 97
31, 707880, Control_c, 13, 11, 98
31, 707926, Control_c, 13, 11, 99
31, 707971, Control_c, 13, 11, 100
31, 708017, Control_c, 13, 11, 101
31, 708062, Control_c, 13, 11, 102
31, 708108, Control_c, 13, 11, 103
31, 708153, Control_c, 13, 11, 104
31, 708199, Control_c, 13, 11, 105
31, 708244, Control_c, 13, 11, 106
31, 708290, Control_c, 13, 11, 107
31, 708335, Control_c, 13, 11, 108
31, 708381, Control_c, 13, 11, 109
31, 708426, Control_c, 13, 11, 110
31, 708472, Control_c, 13, 11, 111
31, 708517, Control_c, 13, 11, 112
31, 708563, Control_c, 13, 11, 113
31, 708608, Control_c, 13, 11, 114
31, 708654, Control_c, 13, 11, 115
31, 708699, Note_on_c, 13, 64, 0
31, 708699, Note_on_c, 13, 74, 0
31, 708699, Control_c, 13, 11, 116
31, 708720, Note_on_c, 13, 64, 80
31, 708720, Note_on_c, 13, 74, 80
31, 708745, Control_c, 13, 11, 117
31, 708790, Control_c, 13, 11, 118
31, 708836, Control_c, 13, 11, 119
31, 708881, Control_c, 13, 11, 120
31, 708927, Control_c, 13, 11, 121
31, 708972, Control_c, 13, 11, 122
31, 709018, Control_c, 13, 11, 123
31, 709063, Control_c, 13, 11, 124
31, 709109, Control_c, 13, 11, 125
31, 709154, Control_c, 13, 11, 127
31, 709240, Control_c, 13, 11, 122
31, 709280, Control_c, 13, 11, 117
31, 709320, Control_c, 13, 11, 112
31, 709360, Control_c, 13, 11, 107
31, 709400, Control_c, 13, 11, 102
31, 709419, Note_on_c, 13, 64, 0
31, 709419, Note_on_c, 13, 74, 0
31, 709440, Note_on_c, 13, 73, 80
31, 709440, Note_on_c, 13, 64, 80
31, 709440, Control_c, 13, 11, 99
31, 709480, Control_c, 13, 11, 94
31, 709520, Control_c, 13, 11, 89
31, 709560, Control_c, 13, 11, 84
31, 709600, Control_c, 13, 11, 79
31, 709640, Control_c, 13, 11, 74
31, 709680, Control_c, 13, 11, 69
31, 710139, Note_on_c, 13, 73, 0
31, 710139, Note_on_c, 13, 64, 0
31, 710160, Note_on_c, 13, 73, 80
31, 710160, Note_on_c, 13, 64, 80
31, 711579, Note_on_c, 13, 73, 0
31, 711579, Note_on_c, 13, 64, 0
31, 711600, Note_on_c, 13, 73, 80
31, 711600, Note_on_c, 13, 64, 80
31, 712299, Note_on_c, 13, 73, 0
31, 712299, Note_on_c, 13, 64, 0
31, 712320, Note_on_c, 13, 71, 80
31, 712320, Note_on_c, 13, 68, 80
31, 713019, Note_on_c, 13, 71, 0
31, 713019, Note_on_c, 13, 68, 0
31, 713040, Note_on_c, 13, 71, 80
31, 713040, Note_on_c, 13, 68, 80
31, 713739, Note_on_c, 13, 71, 0
31, 713739, Note_on_c, 13, 68, 0
31, 713760, Note_on_c, 13, 68, 80
31, 713760, Note_on_c, 13, 71, 80
31, 714459, Note_on_c, 13, 68, 0
31, 714459, Note_on_c, 13, 71, 0
31, 714480, Note_on_c, 13, 71, 80
31, 714480, Note_on_c, 13, 68, 80
31, 715179, Note_on_c, 13, 71, 0
31, 715179, Note_on_c, 13, 68, 0
31, 715200, Note_on_c, 13, 69, 80
31, 715200, Note_on_c, 13, 73, 80
31, 715899, Note_on_c, 13, 69, 0
31, 715899, Note_on_c, 13, 73, 0
31, 715920, Note_on_c, 13, 69, 80
31, 716619, Note_on_c, 13, 69, 0
31, 716640, Note_on_c, 13, 69, 80
31, 716640, Control_c, 13, 11, 69
31, 716700, Control_c, 13, 11, 72
31, 716760, Control_c, 13, 11, 75
31, 716820, Control_c, 13, 11, 79
31, 716880, Control_c, 13, 11, 82
31, 716940, Control_c, 13, 11, 85
31, 717000, Control_c, 13, 11, 89
31, 717060, Control_c, 13, 11, 92
31, 717120, Control_c, 13, 11, 95
31, 717180, Control_c, 13, 11, 99
31, 717240, Control_c, 13, 11, 102
31, 717300, Control_c, 13, 11, 105
31, 717360, Control_c, 13, 11, 109
31, 717420, Control_c, 13, 11, 105
31, 717480, Control_c, 13, 11, 102
31, 717540, Control_c, 13, 11, 99
31, 717600, Control_c, 13, 11, 95
31, 717660, Control_c, 13, 11, 92
31, 717720, Control_c, 13, 11, 89
31, 717780, Control_c, 13, 11, 85
31, 717840, Control_c, 13, 11, 82
31, 717900, Control_c, 13, 11, 79
31, 717960, Control_c, 13, 11, 75
31, 718020, Control_c, 13, 11, 72
31, 718059, Note_on_c, 13, 69, 0
31, 718080, Control_c, 13, 11, 69
31, 718080, Note_on_c, 13, 71, 80
31, 718080, Note_on_c, 13, 67, 80
31, 718779, Note_on_c, 13, 71, 0
31, 718779, Note_on_c, 13, 67, 0
31, 718800, Note_on_c, 13, 71, 80
31, 718800, Note_on_c, 13, 67, 80
31, 719499, Note_on_c, 13, 71, 0
31, 719499, Note_on_c, 13, 67, 0
31, 719520, Note_on_c, 13, 71, 74
31, 719520, Note_on_c, 13, 67, 74
31, 720219, Note_on_c, 13, 71, 0
31, 720219, Note_on_c, 13, 67, 0
31, 720240, Note_on_c, 13, 67, 74
31, 720240, Note_on_c, 13, 71, 74
31, 720939, Note_on_c, 13, 67, 0
31, 720939, Note_on_c, 13, 71, 0
31, 720960, Note_on_c, 13, 71, 74
31, 720960, Note_on_c, 13, 67, 74
31, 723119, Note_on_c, 13, 71, 0
31, 723119, Note_on_c, 13, 67, 0
31, 723120, Note_on_c, 13, 71, 68
31, 723120, Note_on_c, 13, 67, 68
31, 723839, Note_on_c, 13, 71, 0
31, 723839, Note_on_c, 13, 67, 0
31, 724080, Control_c, 13, 11, 127
31, 724320, Note_on_c, 13, 71, 32
31, 724419, Note_on_c, 13, 71, 0
31, 724440, Note_on_c, 13, 72, 32
31, 724539, Note_on_c, 13, 72, 0
31, 724560, Note_on_c, 13, 74, 32
31, 724659, Note_on_c, 13, 74, 0
31, 724680, Note_on_c, 13, 74, 32
31, 724779, Note_on_c, 13, 74, 0
31, 724800, Note_on_c, 13, 74, 32
31, 724899, Note_on_c, 13, 74, 0
31, 724920, Note_on_c, 13, 72, 32
31, 725019, Note_on_c, 13, 72, 0
31, 725040, Note_on_c, 13, 71, 32
31, 725139, Note_on_c, 13, 71, 0
31, 725160, Note_on_c, 13, 69, 32
31, 725259, Note_on_c, 13, 69, 0
31, 725280, Note_on_c, 13, 67, 32
31, 725379, Note_on_c, 13, 67, 0
31, 725400, Note_on_c, 13, 69, 32
31, 725499, Note_on_c, 13, 69, 0
31, 725520, Note_on_c, 13, 71, 32
31, 725619, Note_on_c, 13, 71, 0
31, 725640, Note_on_c, 13, 71, 32
31, 725739, Note_on_c, 13, 71, 0
31, 725760, Note_on_c, 13, 71, 32
31, 725859, Note_on_c, 13, 71, 0
31, 725880, Note_on_c, 13, 69, 32
31, 725979, Note_on_c, 13, 69, 0
31, 726000, Note_on_c, 13, 67, 32
31, 726099, Note_on_c, 13, 67, 0
31, 726120, Note_on_c, 13, 66, 32
31, 726219, Note_on_c, 13, 66, 0
31, 726240, Note_on_c, 13, 64, 32
31, 726339, Note_on_c, 13, 64, 0
31, 726360, Note_on_c, 13, 66, 32
31, 726459, Note_on_c, 13, 66, 0
31, 726480, Note_on_c, 13, 67, 32
31, 726579, Note_on_c, 13, 67, 0
31, 726600, Note_on_c, 13, 67, 32
31, 726699, Note_on_c, 13, 67, 0
31, 726720, Note_on_c, 13, 67, 32
31, 726819, Note_on_c, 13, 67, 0
31, 726840, Note_on_c, 13, 69, 32
31, 726939, Note_on_c, 13, 69, 0
31, 726960, Note_on_c, 13, 71, 32
31, 727059, Note_on_c, 13, 71, 0
31, 727080, Note_on_c, 13, 73, 32
31, 727179, Note_on_c, 13, 73, 0
31, 727200, Note_on_c, 13, 74, 32
31, 727299, Note_on_c, 13, 74, 0
31, 727320, Note_on_c, 13, 76, 32
31, 727419, Note_on_c, 13, 76, 0
31, 727440, Note_on_c, 13, 78, 32
31, 727539, Note_on_c, 13, 78, 0
31, 727560, Note_on_c, 13, 79, 32
31, 727659, Note_on_c, 13, 79, 0
31, 727680, Note_on_c, 13, 74, 32
31, 727680, Note_on_c, 13, 78, 32
31, 727919, Note_on_c, 13, 74, 0
31, 727919, Note_on_c, 13, 78, 0
31, 732480, Note_on_c, 13, 69, 32
31, 733079, Note_on_c, 13, 69, 0
31, 733080, Note_on_c, 13, 71, 32
31, 733199, Note_on_c, 13, 71, 0
31, 733200, Note_on_c, 13, 73, 32
31, 733319, Note_on_c, 13, 73, 0
31, 733320, Note_on_c, 13, 69, 32
31, 733419, Note_on_c, 13, 69, 0
31, 733440, Note_on_c, 13, 74, 32
31, 733679, Note_on_c, 13, 74, 0
31, 733920, Note_on_c, 13, 62, 32
31, 734019, Note_on_c, 13, 62, 0
31, 734040, Note_on_c, 13, 64, 32
31, 734139, Note_on_c, 13, 64, 0
31, 734160, Note_on_c, 13, 66, 32
31, 734259, Note_on_c, 13, 66, 0
31, 734280, Note_on_c, 13, 66, 32
31, 734379, Note_on_c, 13, 66, 0
31, 734400, Note_on_c, 13, 66, 32
31, 734499, Note_on_c, 13, 66, 0
31, 734520, Note_on_c, 13, 64, 32
31, 734619, Note_on_c, 13, 64, 0
31, 734640, Note_on_c, 13, 62, 32
31, 734739, Note_on_c, 13, 62, 0
31, 734760, Note_on_c, 13, 61, 32
31, 734859, Note_on_c, 13, 61, 0
31, 734880, Note_on_c, 13, 59, 32
31, 734979, Note_on_c, 13, 59, 0
31, 735000, Note_on_c, 13, 61, 32
31, 735099, Note_on_c, 13, 61, 0
31, 735120, Note_on_c, 13, 62, 32
31, 735219, Note_on_c, 13, 62, 0
31, 735240, Note_on_c, 13, 62, 32
31, 735339, Note_on_c, 13, 62, 0
31, 735360, Note_on_c, 13, 62, 32
31, 735459, Note_on_c, 13, 62, 0
31, 735480, Note_on_c, 13, 73, 32
31, 735579, Note_on_c, 13, 73, 0
31, 735600, Note_on_c, 13, 71, 32
31, 735699, Note_on_c, 13, 71, 0
31, 735720, Note_on_c, 13, 69, 32
31, 735819, Note_on_c, 13, 69, 0
31, 735840, Note_on_c, 13, 68, 32
31, 735939, Note_on_c, 13, 68, 0
31, 735960, Note_on_c, 13, 69, 32
31, 736059, Note_on_c, 13, 69, 0
31, 736080, Note_on_c, 13, 71, 32
31, 736179, Note_on_c, 13, 71, 0
31, 736200, Note_on_c, 13, 71, 32
31, 736299, Note_on_c, 13, 71, 0
31, 736320, Note_on_c, 13, 71, 32
31, 736419, Note_on_c, 13, 71, 0
31, 736440, Note_on_c, 13, 69, 32
31, 736539, Note_on_c, 13, 69, 0
31, 736560, Note_on_c, 13, 68, 32
31, 736659, Note_on_c, 13, 68, 0
31, 736680, Note_on_c, 13, 66, 32
31, 736779, Note_on_c, 13, 66, 0
31, 736800, Note_on_c, 13, 64, 32
31, 736899, Note_on_c, 13, 64, 0
31, 736920, Note_on_c, 13, 62, 32
31, 737019, Note_on_c, 13, 62, 0
31, 737040, Note_on_c, 13, 61, 32
31, 737139, Note_on_c, 13, 61, 0
31, 737160, Note_on_c, 13, 59, 32
31, 737259, Note_on_c, 13, 59, 0
31, 737280, Note_on_c, 13, 57, 32
31, 737379, Note_on_c, 13, 57, 0
31, 737520, Note_on_c, 13, 69, 32
31, 737619, Note_on_c, 13, 69, 0
31, 737640, Note_on_c, 13, 69, 32
31, 737739, Note_on_c, 13, 69, 0
31, 737760, Note_on_c, 13, 69, 32
31, 737859, Note_on_c, 13, 69, 0
31, 737880, Note_on_c, 13, 69, 32
31, 737979, Note_on_c, 13, 69, 0
31, 738000, Note_on_c, 13, 69, 32
31, 738099, Note_on_c, 13, 69, 0
31, 738120, Note_on_c, 13, 69, 32
31, 738219, Note_on_c, 13, 69, 0
31, 738240, Note_on_c, 13, 69, 32
31, 738339, Note_on_c, 13, 69, 0
31, 738360, Note_on_c, 13, 69, 32
31, 738459, Note_on_c, 13, 69, 0
31, 738480, Note_on_c, 13, 69, 32
31, 738579, Note_on_c, 13, 69, 0
31, 738600, Note_on_c, 13, 69, 32
31, 738699, Note_on_c, 13, 69, 0
31, 738720, Note_on_c, 13, 69, 32
31, 738819, Note_on_c, 13, 69, 0
31, 738840, Note_on_c, 13, 69, 32
31, 738939, Note_on_c, 13, 69, 0
31, 738960, Note_on_c, 13, 69, 32
31, 739059, Note_on_c, 13, 69, 0
31, 739080, Note_on_c, 13, 69, 32
31, 739179, Note_on_c, 13, 69, 0
31, 739200, Note_on_c, 13, 69, 32
31, 739299, Note_on_c, 13, 69, 0
31, 739320, Note_on_c, 13, 69, 32
31, 739419, Note_on_c, 13, 69, 0
31, 739440, Note_on_c, 13, 69, 32
31, 739539, Note_on_c, 13, 69, 0
31, 739560, Note_on_c, 13, 69, 32
31, 739659, Note_on_c, 13, 69, 0
31, 739680, Note_on_c, 13, 69, 32
31, 739779, Note_on_c, 13, 69, 0
31, 739800, Note_on_c, 13, 69, 32
31, 739899, Note_on_c, 13, 69, 0
31, 739920, Note_on_c, 13, 69, 32
31, 740019, Note_on_c, 13, 69, 0
31, 740040, Note_on_c, 13, 69, 32
31, 740139, Note_on_c, 13, 69, 0
31, 740160, Note_on_c, 13, 69, 32
31, 740259, Note_on_c, 13, 69, 0
31, 740280, Note_on_c, 13, 69, 32
31, 740379, Note_on_c, 13, 69, 0
31, 740400, Note_on_c, 13, 69, 32
31, 740499, Note_on_c, 13, 69, 0
31, 740520, Note_on_c, 13, 69, 32
31, 740619, Note_on_c, 13, 69, 0
31, 740640, Note_on_c, 13, 69, 32
31, 740739, Note_on_c, 13, 69, 0
31, 740760, Note_on_c, 13, 69, 32
31, 740859, Note_on_c, 13, 69, 0
31, 740880, Note_on_c, 13, 69, 32
31, 740979, Note_on_c, 13, 69, 0
31, 741000, Note_on_c, 13, 69, 32
31, 741099, Note_on_c, 13, 69, 0
31, 741120, Note_on_c, 13, 69, 32
31, 741219, Note_on_c, 13, 69, 0
31, 741240, Note_on_c, 13, 69, 32
31, 741339, Note_on_c, 13, 69, 0
31, 741360, Note_on_c, 13, 69, 32
31, 741459, Note_on_c, 13, 69, 0
31, 741480, Note_on_c, 13, 69, 32
31, 741579, Note_on_c, 13, 69, 0
31, 741600, Note_on_c, 13, 69, 32
31, 741699, Note_on_c, 13, 69, 0
31, 741720, Note_on_c, 13, 69, 32
31, 741819, Note_on_c, 13, 69, 0
31, 741840, Note_on_c, 13, 69, 32
31, 741939, Note_on_c, 13, 69, 0
31, 741960, Note_on_c, 13, 69, 32
31, 742059, Note_on_c, 13, 69, 0
31, 742080, Note_on_c, 13, 69, 32
31, 742179, Note_on_c, 13, 69, 0
31, 742200, Note_on_c, 13, 69, 32
31, 742299, Note_on_c, 13, 69, 0
31, 742320, Note_on_c, 13, 69, 32
31, 742419, Note_on_c, 13, 69, 0
31, 742440, Note_on_c, 13, 69, 32
31, 742539, Note_on_c, 13, 69, 0
31, 742560, Note_on_c, 13, 73, 32
31, 742659, Note_on_c, 13, 73, 0
31, 742680, Note_on_c, 13, 73, 32
31, 742779, Note_on_c, 13, 73, 0
31, 742800, Note_on_c, 13, 73, 32
31, 742899, Note_on_c, 13, 73, 0
31, 742920, Note_on_c, 13, 73, 32
31, 743019, Note_on_c, 13, 73, 0
31, 743040, Note_on_c, 13, 73, 32
31, 743279, Note_on_c, 13, 73, 0
31, 743518, Program_c, 13, 45
31, 743520, Note_on_c, 13, 69, 28
31, 743759, Note_on_c, 13, 69, 0
31, 743760, Note_on_c, 13, 69, 28
31, 743999, Note_on_c, 13, 69, 0
31, 744000, Note_on_c, 13, 73, 28
31, 744239, Note_on_c, 13, 73, 0
31, 744480, Note_on_c, 13, 74, 28
31, 744719, Note_on_c, 13, 74, 0
31, 744720, Note_on_c, 13, 74, 28
31, 744959, Note_on_c, 13, 74, 0
31, 744960, Note_on_c, 13, 73, 28
31, 745199, Note_on_c, 13, 73, 0
31, 745440, Note_on_c, 13, 69, 28
31, 745679, Note_on_c, 13, 69, 0
31, 745920, Note_on_c, 13, 69, 28
31, 746159, Note_on_c, 13, 69, 0
31, 746400, Note_on_c, 13, 69, 28
31, 746639, Note_on_c, 13, 69, 0
31, 746880, Note_on_c, 13, 67, 28
31, 747119, Note_on_c, 13, 67, 0
31, 747360, Note_on_c, 13, 66, 29
31, 747599, Note_on_c, 13, 66, 0
31, 747840, Note_on_c, 13, 61, 31
31, 747840, Note_on_c, 13, 64, 31
31, 748079, Note_on_c, 13, 61, 0
31, 748079, Note_on_c, 13, 64, 0
31, 748320, Note_on_c, 13, 62, 33
31, 748559, Note_on_c, 13, 62, 0
31, 748560, Note_on_c, 13, 62, 34
31, 748799, Note_on_c, 13, 62, 0
31, 748800, Note_on_c, 13, 67, 34
31, 749039, Note_on_c, 13, 67, 0
31, 749280, Note_on_c, 13, 66, 36
31, 749519, Note_on_c, 13, 66, 0
31, 749520, Note_on_c, 13, 66, 37
31, 749759, Note_on_c, 13, 66, 0
31, 749760, Note_on_c, 13, 64, 38
31, 749999, Note_on_c, 13, 64, 0
31, 750240, Note_on_c, 13, 62, 40
31, 750479, Note_on_c, 13, 62, 0
31, 750720, Note_on_c, 13, 69, 41
31, 750959, Note_on_c, 13, 69, 0
31, 751200, Note_on_c, 13, 69, 43
31, 751439, Note_on_c, 13, 69, 0
31, 751680, Note_on_c, 13, 57, 45
31, 751919, Note_on_c, 13, 57, 0
31, 752160, Note_on_c, 13, 57, 46
31, 752399, Note_on_c, 13, 57, 0
31, 752640, Note_on_c, 13, 69, 48
31, 752879, Note_on_c, 13, 69, 0
31, 753120, Note_on_c, 13, 69, 50
31, 753359, Note_on_c, 13, 69, 0
31, 753600, Note_on_c, 13, 69, 52
31, 753839, Note_on_c, 13, 69, 0
31, 754080, Note_on_c, 13, 69, 53
31, 754319, Note_on_c, 13, 69, 0
31, 754320, Note_on_c, 13, 69, 54
31, 754539, Note_on_c, 13, 69, 0
31, 754558, Program_c, 13, 48
31, 754560, Note_on_c, 13, 64, 59
31, 754779, Note_on_c, 13, 64, 0
31, 754800, Note_on_c, 13, 64, 60
31, 755019, Note_on_c, 13, 64, 0
31, 755040, Note_on_c, 13, 62, 61
31, 755259, Note_on_c, 13, 62, 0
31, 755280, Note_on_c, 13, 62, 62
31, 755499, Note_on_c, 13, 62, 0
31, 755520, Note_on_c, 13, 67, 62
31, 755739, Note_on_c, 13, 67, 0
31, 755760, Note_on_c, 13, 67, 63
31, 755979, Note_on_c, 13, 67, 0
31, 756000, Note_on_c, 13, 66, 64
31, 756219, Note_on_c, 13, 66, 0
31, 756240, Note_on_c, 13, 66, 65
31, 756459, Note_on_c, 13, 66, 0
31, 756480, Note_on_c, 13, 66, 66
31, 756719, Note_on_c, 13, 66, 0
31, 756720, Note_on_c, 13, 64, 67
31, 756939, Note_on_c, 13, 64, 0
31, 756960, Note_on_c, 13, 62, 68
31, 757199, Note_on_c, 13, 62, 0
31, 757200, Note_on_c, 13, 69, 68
31, 757419, Note_on_c, 13, 69, 0
31, 757440, Note_on_c, 13, 69, 69
31, 757679, Note_on_c, 13, 69, 0
31, 757680, Note_on_c, 13, 67, 70
31, 757899, Note_on_c, 13, 67, 0
31, 757920, Note_on_c, 13, 67, 71
31, 758159, Note_on_c, 13, 67, 0
31, 758160, Note_on_c, 13, 66, 72
31, 758379, Note_on_c, 13, 66, 0
31, 758400, Note_on_c, 13, 66, 73
31, 758639, Note_on_c, 13, 66, 0
31, 758640, Note_on_c, 13, 64, 74
31, 758859, Note_on_c, 13, 64, 0
31, 758880, Note_on_c, 13, 62, 74
31, 759119, Note_on_c, 13, 62, 0
31, 759120, Note_on_c, 13, 69, 75
31, 759339, Note_on_c, 13, 69, 0
31, 759360, Note_on_c, 13, 69, 76
31, 759599, Note_on_c, 13, 69, 0
31, 759600, Note_on_c, 13, 67, 77
31, 759819, Note_on_c, 13, 67, 0
31, 759840, Note_on_c, 13, 67, 78
31, 760079, Note_on_c, 13, 67, 0
31, 760080, Note_on_c, 13, 66, 79
31, 760299, Note_on_c, 13, 66, 0
31, 760320, Note_on_c, 13, 69, 80
31, 760539, Note_on_c, 13, 69, 0
31, 760560, Note_on_c, 13, 57, 80
31, 760659, Note_on_c, 13, 57, 0
31, 760680, Note_on_c, 13, 57, 80
31, 760779, Note_on_c, 13, 57, 0
31, 760800, Note_on_c, 13, 59, 92
31, 760899, Note_on_c, 13, 59, 0
31, 760920, Note_on_c, 13, 59, 80
31, 761019, Note_on_c, 13, 59, 0
31, 761040, Note_on_c, 13, 57, 80
31, 761139, Note_on_c, 13, 57, 0
31, 761160, Note_on_c, 13, 57, 80
31, 761259, Note_on_c, 13, 57, 0
31, 761280, Note_on_c, 13, 62, 80
31, 761379, Note_on_c, 13, 62, 0
31, 761400, Note_on_c, 13, 62, 80
31, 761499, Note_on_c, 13, 62, 0
31, 761520, Note_on_c, 13, 61, 80
31, 761619, Note_on_c, 13, 61, 0
31, 761640, Note_on_c, 13, 61, 80
31, 761739, Note_on_c, 13, 61, 0
31, 761760, Note_on_c, 13, 66, 80
31, 761859, Note_on_c, 13, 66, 0
31, 761880, Note_on_c, 13, 66, 80
31, 761979, Note_on_c, 13, 66, 0
31, 762000, Note_on_c, 13, 64, 80
31, 762099, Note_on_c, 13, 64, 0
31, 762120, Note_on_c, 13, 64, 80
31, 762219, Note_on_c, 13, 64, 0
31, 762240, Note_on_c, 13, 69, 80
31, 762339, Note_on_c, 13, 69, 0
31, 762360, Note_on_c, 13, 69, 80
31, 762459, Note_on_c, 13, 69, 0
31, 762480, Note_on_c, 13, 67, 80
31, 762579, Note_on_c, 13, 67, 0
31, 762600, Note_on_c, 13, 67, 80
31, 762699, Note_on_c, 13, 67, 0
31, 762720, Note_on_c, 13, 67, 80
31, 762819, Note_on_c, 13, 67, 0
31, 762840, Note_on_c, 13, 67, 80
31, 762939, Note_on_c, 13, 67, 0
31, 762960, Note_on_c, 13, 67, 92
31, 763059, Note_on_c, 13, 67, 0
31, 763080, Note_on_c, 13, 67, 92
31, 763179, Note_on_c, 13, 67, 0
31, 763200, Note_on_c, 13, 74, 80
31, 763299, Note_on_c, 13, 74, 0
31, 763320, Note_on_c, 13, 74, 80
31, 763419, Note_on_c, 13, 74, 0
31, 763440, Note_on_c, 13, 73, 80
31, 763539, Note_on_c, 13, 73, 0
31, 763560, Note_on_c, 13, 73, 80
31, 763659, Note_on_c, 13, 73, 0
31, 763680, Note_on_c, 13, 78, 80
31, 763779, Note_on_c, 13, 78, 0
31, 763800, Note_on_c, 13, 78, 80
31, 763899, Note_on_c, 13, 78, 0
31, 763920, Note_on_c, 13, 76, 80
31, 764019, Note_on_c, 13, 76, 0
31, 764040, Note_on_c, 13, 76, 80
31, 764139, Note_on_c, 13, 76, 0
31, 764160, Note_on_c, 13, 81, 80
31, 764259, Note_on_c, 13, 81, 0
31, 764280, Note_on_c, 13, 81, 80
31, 764379, Note_on_c, 13, 81, 0
31, 764400, Note_on_c, 13, 79, 80
31, 764499, Note_on_c, 13, 79, 0
31, 764520, Note_on_c, 13, 79, 80
31, 764619, Note_on_c, 13, 79, 0
31, 764640, Note_on_c, 13, 79, 44
31, 764739, Note_on_c, 13, 79, 0
31, 764760, Note_on_c, 13, 67, 52
31, 764859, Note_on_c, 13, 67, 0
31, 764880, Note_on_c, 13, 67, 60
31, 764979, Note_on_c, 13, 67, 0
31, 765000, Note_on_c, 13, 67, 68
31, 765099, Note_on_c, 13, 67, 0
31, 765120, Note_on_c, 13, 67, 76
31, 765219, Note_on_c, 13, 67, 0
31, 765240, Note_on_c, 13, 67, 84
31, 765339, Note_on_c, 13, 67, 0
31, 765360, Note_on_c, 13, 74, 92
31, 765459, Note_on_c, 13, 74, 0
31, 765480, Note_on_c, 13, 66, 92
31, 765579, Note_on_c, 13, 66, 0
31, 765600, Note_on_c, 13, 78, 92
31, 765699, Note_on_c, 13, 78, 0
31, 765720, Note_on_c, 13, 66, 92
31, 765819, Note_on_c, 13, 66, 0
31, 765840, Note_on_c, 13, 69, 92
31, 765939, Note_on_c, 13, 69, 0
31, 765960, Note_on_c, 13, 74, 92
31, 766059, Note_on_c, 13, 74, 0
31, 766080, Note_on_c, 13, 78, 80
31, 766179, Note_on_c, 13, 78, 0
31, 766200, Note_on_c, 13, 76, 80
31, 766299, Note_on_c, 13, 76, 0
31, 766320, Note_on_c, 13, 74, 80
31, 766419, Note_on_c, 13, 74, 0
31, 766440, Note_on_c, 13, 62, 80
31, 766539, Note_on_c, 13, 62, 0
31, 766560, Note_on_c, 13, 74, 80
31, 766659, Note_on_c, 13, 74, 0
31, 766680, Note_on_c, 13, 62, 80
31, 766779, Note_on_c, 13, 62, 0
31, 766800, Note_on_c, 13, 66, 80
31, 766899, Note_on_c, 13, 66, 0
31, 766920, Note_on_c, 13, 71, 80
31, 767019, Note_on_c, 13, 71, 0
31, 767040, Note_on_c, 13, 74, 80
31, 767139, Note_on_c, 13, 74, 0
31, 767160, Note_on_c, 13, 73, 80
31, 767259, Note_on_c, 13, 73, 0
31, 767280, Note_on_c, 13, 71, 80
31, 767379, Note_on_c, 13, 71, 0
31, 767400, Note_on_c, 13, 59, 80
31, 767499, Note_on_c, 13, 59, 0
31, 767520, Note_on_c, 13, 83, 80
31, 767619, Note_on_c, 13, 83, 0
31, 767640, Note_on_c, 13, 71, 80
31, 767739, Note_on_c, 13, 71, 0
31, 767760, Note_on_c, 13, 74, 80
31, 767859, Note_on_c, 13, 74, 0
31, 767880, Note_on_c, 13, 79, 80
31, 767979, Note_on_c, 13, 79, 0
31, 768000, Note_on_c, 13, 83, 80
31, 768099, Note_on_c, 13, 83, 0
31, 768120, Note_on_c, 13, 81, 80
31, 768219, Note_on_c, 13, 81, 0
31, 768240, Note_on_c, 13, 79, 80
31, 768339, Note_on_c, 13, 79, 0
31, 768360, Note_on_c, 13, 67, 80
31, 768459, Note_on_c, 13, 67, 0
31, 768480, Note_on_c, 13, 79, 80
31, 768579, Note_on_c, 13, 79, 0
31, 768600, Note_on_c, 13, 67, 80
31, 768699, Note_on_c, 13, 67, 0
31, 768720, Note_on_c, 13, 71, 80
31, 768819, Note_on_c, 13, 71, 0
31, 768840, Note_on_c, 13, 76, 80
31, 768939, Note_on_c, 13, 76, 0
31, 768960, Note_on_c, 13, 64, 80
31, 768960, Note_on_c, 13, 73, 80
31, 769199, Note_on_c, 13, 64, 0
31, 769199, Note_on_c, 13, 73, 0
31, 769440, Control_c, 12, 11, 69
31, 769560, Control_c, 12, 11, 69
31, 769560, Note_on_c, 13, 76, 80
31, 769576, Control_c, 12, 11, 70
31, 769592, Control_c, 12, 11, 72
31, 769608, Control_c, 12, 11, 73
31, 769624, Control_c, 12, 11, 74
31, 769640, Control_c, 12, 11, 76
31, 769656, Control_c, 12, 11, 77
31, 769672, Control_c, 12, 11, 78
31, 769688, Control_c, 12, 11, 80
31, 769704, Control_c, 12, 11, 81
31, 769720, Control_c, 12, 11, 82
31, 769736, Control_c, 12, 11, 84
31, 769752, Control_c, 12, 11, 85
31, 769768, Control_c, 12, 11, 86
31, 769784, Control_c, 12, 11, 88
31, 769799, Note_on_c, 13, 76, 0
31, 769800, Note_on_c, 13, 73, 80
31, 769820, Control_c, 12, 11, 85
31, 769840, Control_c, 12, 11, 82
31, 769859, Note_on_c, 13, 73, 0
31, 769860, Control_c, 12, 11, 79
31, 769860, Note_on_c, 13, 67, 80
31, 769880, Control_c, 12, 11, 75
31, 769900, Control_c, 12, 11, 72
31, 769919, Note_on_c, 13, 67, 0
31, 769920, Control_c, 12, 11, 69
31, 770400, Control_c, 12, 11, 127
31, 770520, Note_on_c, 13, 74, 38
31, 770699, Note_on_c, 13, 74, 0
31, 770700, Note_on_c, 13, 73, 38
31, 770759, Note_on_c, 13, 73, 0
31, 770760, Note_on_c, 13, 74, 38
31, 770819, Note_on_c, 13, 74, 0
31, 770820, Note_on_c, 13, 66, 38
31, 770871, Note_on_c, 13, 66, 0
31, 770880, Note_on_c, 13, 64, 38
31, 771119, Note_on_c, 13, 64, 0
31, 771840, Note_on_c, 13, 67, 38
31, 771959, Note_on_c, 13, 67, 0
31, 771960, Note_on_c, 13, 66, 38
31, 772079, Note_on_c, 13, 66, 0
31, 772080, Note_on_c, 13, 66, 38
31, 772319, Note_on_c, 13, 66, 0
31, 772800, Note_on_c, 13, 73, 44
31, 772800, Note_on_c, 13, 64, 44
31, 773279, Note_on_c, 13, 73, 0
31, 773279, Note_on_c, 13, 64, 0
31, 776640, Note_on_c, 13, 67, 44
31, 776879, Note_on_c, 13, 67, 0
31, 777120, Note_on_c, 13, 66, 48
31, 777359, Note_on_c, 13, 66, 0
31, 777600, Note_on_c, 13, 73, 53
31, 777839, Note_on_c, 13, 73, 0
31, 778080, Note_on_c, 13, 74, 57
31, 778319, Note_on_c, 13, 74, 0
31, 778560, Note_on_c, 13, 57, 62
31, 778799, Note_on_c, 13, 57, 0
31, 778800, Note_on_c, 13, 61, 64
31, 779019, Note_on_c, 13, 61, 0
31, 779040, Note_on_c, 13, 62, 66
31, 779279, Note_on_c, 13, 62, 0
31, 779280, Note_on_c, 13, 66, 68
31, 779499, Note_on_c, 13, 66, 0
31, 779520, Note_on_c, 13, 69, 71
31, 779759, Note_on_c, 13, 69, 0
31, 779760, Note_on_c, 13, 61, 73
31, 779979, Note_on_c, 13, 61, 0
31, 780000, Note_on_c, 13, 62, 75
31, 780239, Note_on_c, 13, 62, 0
31, 780240, Note_on_c, 13, 66, 77
31, 780459, Note_on_c, 13, 66, 0
31, 780480, Note_on_c, 13, 69, 80
31, 780579, Note_on_c, 13, 69, 0
31, 780600, Note_on_c, 13, 69, 80
31, 780699, Note_on_c, 13, 69, 0
31, 780720, Note_on_c, 13, 57, 80
31, 780819, Note_on_c, 13, 57, 0
31, 780840, Note_on_c, 13, 57, 80
31, 780939, Note_on_c, 13, 57, 0
31, 780960, Note_on_c, 13, 59, 80
31, 781059, Note_on_c, 13, 59, 0
31, 781080, Note_on_c, 13, 59, 80
31, 781179, Note_on_c, 13, 59, 0
31, 781200, Note_on_c, 13, 57, 80
31, 781299, Note_on_c, 13, 57, 0
31, 781320, Note_on_c, 13, 57, 80
31, 781419, Note_on_c, 13, 57, 0
31, 781440, Note_on_c, 13, 62, 80
31, 781539, Note_on_c, 13, 62, 0
31, 781560, Note_on_c, 13, 62, 80
31, 781659, Note_on_c, 13, 62, 0
31, 781680, Note_on_c, 13, 61, 80
31, 781779, Note_on_c, 13, 61, 0
31, 781800, Note_on_c, 13, 61, 80
31, 781899, Note_on_c, 13, 61, 0
31, 781920, Note_on_c, 13, 66, 80
31, 782019, Note_on_c, 13, 66, 0
31, 782040, Note_on_c, 13, 66, 80
31, 782139, Note_on_c, 13, 66, 0
31, 782160, Note_on_c, 13, 64, 80
31, 782259, Note_on_c, 13, 64, 0
31, 782280, Note_on_c, 13, 64, 80
31, 782379, Note_on_c, 13, 64, 0
31, 782400, Note_on_c, 13, 69, 80
31, 782499, Note_on_c, 13, 69, 0
31, 782520, Note_on_c, 13, 69, 80
31, 782619, Note_on_c, 13, 69, 0
31, 782640, Note_on_c, 13, 67, 80
31, 782739, Note_on_c, 13, 67, 0
31, 782760, Note_on_c, 13, 67, 80
31, 782859, Note_on_c, 13, 67, 0
31, 782880, Note_on_c, 13, 67, 80
31, 782979, Note_on_c, 13, 67, 0
31, 783000, Note_on_c, 13, 67, 80
31, 783099, Note_on_c, 13, 67, 0
31, 783120, Note_on_c, 13, 67, 92
31, 783219, Note_on_c, 13, 67, 0
31, 783240, Note_on_c, 13, 67, 92
31, 783339, Note_on_c, 13, 67, 0
31, 783360, Note_on_c, 13, 74, 80
31, 783459, Note_on_c, 13, 74, 0
31, 783480, Note_on_c, 13, 74, 80
31, 783579, Note_on_c, 13, 74, 0
31, 783600, Note_on_c, 13, 73, 80
31, 783699, Note_on_c, 13, 73, 0
31, 783720, Note_on_c, 13, 73, 80
31, 783819, Note_on_c, 13, 73, 0
31, 783840, Note_on_c, 13, 78, 80
31, 783939, Note_on_c, 13, 78, 0
31, 783960, Note_on_c, 13, 78, 80
31, 784059, Note_on_c, 13, 78, 0
31, 784080, Note_on_c, 13, 76, 80
31, 784179, Note_on_c, 13, 76, 0
31, 784200, Note_on_c, 13, 76, 80
31, 784299, Note_on_c, 13, 76, 0
31, 784320, Note_on_c, 13, 81, 80
31, 784419, Note_on_c, 13, 81, 0
31, 784440, Note_on_c, 13, 81, 80
31, 784539, Note_on_c, 13, 81, 0
31, 784560, Note_on_c, 13, 79, 80
31, 784659, Note_on_c, 13, 79, 0
31, 784680, Note_on_c, 13, 79, 80
31, 784779, Note_on_c, 13, 79, 0
31, 784800, Note_on_c, 13, 79, 44
31, 784899, Note_on_c, 13, 79, 0
31, 784920, Note_on_c, 13, 73, 52
31, 785019, Note_on_c, 13, 73, 0
31, 785040, Note_on_c, 13, 73, 60
31, 785139, Note_on_c, 13, 73, 0
31, 785160, Note_on_c, 13, 73, 68
31, 785259, Note_on_c, 13, 73, 0
31, 785280, Note_on_c, 13, 73, 76
31, 785379, Note_on_c, 13, 73, 0
31, 785400, Note_on_c, 13, 73, 84
31, 785499, Note_on_c, 13, 73, 0
31, 785520, Note_on_c, 13, 74, 92
31, 785619, Note_on_c, 13, 74, 0
31, 785640, Note_on_c, 13, 66, 92
31, 785739, Note_on_c, 13, 66, 0
31, 785760, Note_on_c, 13, 78, 92
31, 785859, Note_on_c, 13, 78, 0
31, 785880, Note_on_c, 13, 66, 92
31, 785979, Note_on_c, 13, 66, 0
31, 786000, Note_on_c, 13, 69, 92
31, 786099, Note_on_c, 13, 69, 0
31, 786120, Note_on_c, 13, 74, 92
31, 786219, Note_on_c, 13, 74, 0
31, 786240, Note_on_c, 13, 78, 80
31, 786339, Note_on_c, 13, 78, 0
31, 786360, Note_on_c, 13, 76, 80
31, 786459, Note_on_c, 13, 76, 0
31, 786480, Note_on_c, 13, 74, 80
31, 786579, Note_on_c, 13, 74, 0
31, 786600, Note_on_c, 13, 62, 80
31, 786699, Note_on_c, 13, 62, 0
31, 786720, Note_on_c, 13, 74, 80
31, 786819, Note_on_c, 13, 74, 0
31, 786840, Note_on_c, 13, 62, 80
31, 786939, Note_on_c, 13, 62, 0
31, 786960, Note_on_c, 13, 66, 80
31, 787059, Note_on_c, 13, 66, 0
31, 787080, Note_on_c, 13, 71, 80
31, 787179, Note_on_c, 13, 71, 0
31, 787200, Note_on_c, 13, 74, 80
31, 787299, Note_on_c, 13, 74, 0
31, 787320, Note_on_c, 13, 73, 80
31, 787419, Note_on_c, 13, 73, 0
31, 787440, Note_on_c, 13, 71, 80
31, 787539, Note_on_c, 13, 71, 0
31, 787560, Note_on_c, 13, 59, 80
31, 787659, Note_on_c, 13, 59, 0
31, 787680, Note_on_c, 13, 83, 80
31, 787779, Note_on_c, 13, 83, 0
31, 787800, Note_on_c, 13, 71, 80
31, 787899, Note_on_c, 13, 71, 0
31, 787920, Note_on_c, 13, 74, 80
31, 788019, Note_on_c, 13, 74, 0
31, 788040, Note_on_c, 13, 79, 80
31, 788139, Note_on_c, 13, 79, 0
31, 788160, Note_on_c, 13, 83, 80
31, 788259, Note_on_c, 13, 83, 0
31, 788280, Note_on_c, 13, 81, 80
31, 788379, Note_on_c, 13, 81, 0
31, 788400, Note_on_c, 13, 79, 80
31, 788499, Note_on_c, 13, 79, 0
31, 788520, Note_on_c, 13, 67, 80
31, 788619, Note_on_c, 13, 67, 0
31, 788640, Note_on_c, 13, 79, 80
31, 788739, Note_on_c, 13, 79, 0
31, 788760, Note_on_c, 13, 67, 80
31, 788859, Note_on_c, 13, 67, 0
31, 788880, Note_on_c, 13, 71, 80
31, 788979, Note_on_c, 13, 71, 0
31, 789000, Note_on_c, 13, 76, 80
31, 789099, Note_on_c, 13, 76, 0
31, 789120, Note_on_c, 13, 79, 80
31, 789219, Note_on_c, 13, 79, 0
31, 789240, Note_on_c, 13, 67, 80
31, 789339, Note_on_c, 13, 67, 0
31, 789360, Note_on_c, 13, 71, 80
31, 789459, Note_on_c, 13, 71, 0
31, 789480, Note_on_c, 13, 76, 80
31, 789579, Note_on_c, 13, 76, 0
31, 789600, Note_on_c, 13, 80, 80
31, 789699, Note_on_c, 13, 80, 0
31, 789720, Note_on_c, 13, 68, 80
31, 789819, Note_on_c, 13, 68, 0
31, 789840, Note_on_c, 13, 71, 80
31, 789939, Note_on_c, 13, 71, 0
31, 789960, Note_on_c, 13, 76, 80
31, 790059, Note_on_c, 13, 76, 0
31, 790080, Note_on_c, 13, 71, 80
31, 790319, Note_on_c, 13, 71, 0
31, 791520, Note_on_c, 13, 71, 44
31, 791520, Note_on_c, 13, 64, 44
31, 791759, Note_on_c, 13, 71, 0
31, 791759, Note_on_c, 13, 64, 0
31, 792240, Note_on_c, 13, 71, 44
31, 792240, Note_on_c, 13, 66, 44
31, 792479, Note_on_c, 13, 71, 0
31, 792479, Note_on_c, 13, 66, 0
31, 793320, Note_on_c, 13, 64, 44
31, 793439, Note_on_c, 13, 64, 0
31, 793440, Note_on_c, 13, 68, 44
31, 793679, Note_on_c, 13, 68, 0
31, 794280, Note_on_c, 13, 59, 44
31, 794639, Note_on_c, 13, 59, 0
31, 795240, Note_on_c, 13, 61, 44
31, 795599, Note_on_c, 13, 61, 0
31, 796200, Note_on_c, 13, 59, 44
31, 796559, Note_on_c, 13, 59, 0
31, 797160, Note_on_c, 13, 59, 44
31, 797519, Note_on_c, 13, 59, 0
31, 798120, Note_on_c, 13, 61, 44
31, 798479, Note_on_c, 13, 61, 0
31, 799080, Note_on_c, 13, 63, 44
31, 799199, Note_on_c, 13, 63, 0
31, 799200, Note_on_c, 13, 62, 44
31, 799439, Note_on_c, 13, 62, 0
31, 800040, Note_on_c, 13, 62, 44
31, 800399, Note_on_c, 13, 62, 0
31, 800880, Note_on_c, 13, 71, 28
31, 801099, Note_on_c, 13, 71, 0
31, 801120, Note_on_c, 13, 69, 28
31, 801359, Note_on_c, 13, 69, 0
31, 801840, Note_on_c, 13, 71, 28
31, 802059, Note_on_c, 13, 71, 0
31, 802080, Note_on_c, 13, 69, 28
31, 802319, Note_on_c, 13, 69, 0
31, 802800, Note_on_c, 13, 71, 28
31, 803019, Note_on_c, 13, 71, 0
31, 803040, Note_on_c, 13, 69, 28
31, 803279, Note_on_c, 13, 69, 0
31, 803760, Note_on_c, 13, 71, 28
31, 803979, Note_on_c, 13, 71, 0
31, 804000, Note_on_c, 13, 69, 28
31, 804239, Note_on_c, 13, 69, 0
31, 804720, Note_on_c, 13, 71, 35
31, 804939, Note_on_c, 13, 71, 0
31, 804960, Note_on_c, 13, 69, 39
31, 805179, Note_on_c, 13, 69, 0
31, 805200, Note_on_c, 13, 71, 43
31, 805419, Note_on_c, 13, 71, 0
31, 805440, Note_on_c, 13, 69, 47
31, 805659, Note_on_c, 13, 69, 0
31, 805680, Note_on_c, 13, 71, 50
31, 805899, Note_on_c, 13, 71, 0
31, 805920, Note_on_c, 13, 69, 54
31, 806139, Note_on_c, 13, 69, 0
31, 806160, Note_on_c, 13, 71, 58
31, 806379, Note_on_c, 13, 71, 0
31, 806400, Note_on_c, 12, 69, 62
31, 806619, Note_on_c, 12, 69, 0
31, 806640, Note_on_c, 12, 71, 65
31, 806859, Note_on_c, 12, 71, 0
31, 806880, Note_on_c, 12, 69, 69
31, 807099, Note_on_c, 12, 69, 0
31, 807120, Note_on_c, 12, 71, 73
31, 807339, Note_on_c, 12, 71, 0
31, 807360, Note_on_c, 12, 69, 77
31, 807579, Note_on_c, 12, 69, 0
31, 807600, Note_on_c, 12, 71, 80
31, 807819, Note_on_c, 12, 71, 0
31, 807840, Note_on_c, 12, 69, 84
31, 808059, Note_on_c, 12, 69, 0
31, 808080, Note_on_c, 12, 71, 88
31, 808199, Note_on_c, 12, 71, 0
31, 808200, Note_on_c, 12, 73, 90
31, 808299, Note_on_c, 12, 73, 0
31, 808320, Note_on_c, 12, 74, 92
31, 808559, Note_on_c, 12, 74, 0
31, 811680, Note_on_c, 12, 69, 92
31, 811919, Note_on_c, 12, 69, 0
31, 811920, Note_on_c, 12, 71, 92
31, 812039, Note_on_c, 12, 71, 0
31, 812040, Note_on_c, 12, 73, 92
31, 812139, Note_on_c, 12, 73, 0
31, 812160, Note_on_c, 12, 62, 92
31, 812160, Note_on_c, 12, 74, 92
31, 812339, Note_on_c, 12, 62, 0
31, 812339, Note_on_c, 12, 74, 0
31, 812400, Note_on_c, 12, 74, 80
31, 812579, Note_on_c, 12, 74, 0
31, 812640, Note_on_c, 12, 73, 80
31, 812819, Note_on_c, 12, 73, 0
31, 812880, Note_on_c, 12, 69, 80
31, 813059, Note_on_c, 12, 69, 0
31, 813120, Note_on_c, 12, 76, 92
31, 813299, Note_on_c, 12, 76, 0
31, 813360, Note_on_c, 12, 76, 80
31, 813539, Note_on_c, 12, 76, 0
31, 813600, Note_on_c, 12, 75, 80
31, 813779, Note_on_c, 12, 75, 0
31, 813840, Note_on_c, 12, 71, 80
31, 814019, Note_on_c, 12, 71, 0
31, 814080, Note_on_c, 12, 76, 92
31, 814259, Note_on_c, 12, 76, 0
31, 814320, Note_on_c, 12, 66, 80
31, 814499, Note_on_c, 12, 66, 0
31, 814560, Note_on_c, 12, 67, 80
31, 814739, Note_on_c, 12, 67, 0
31, 814800, Note_on_c, 12, 68, 80
31, 814979, Note_on_c, 12, 68, 0
31, 815040, Note_on_c, 12, 69, 92
31, 815219, Note_on_c, 12, 69, 0
31, 815280, Note_on_c, 12, 68, 80
31, 815459, Note_on_c, 12, 68, 0
31, 815520, Note_on_c, 12, 69, 80
31, 815699, Note_on_c, 12, 69, 0
31, 815760, Note_on_c, 12, 71, 80
31, 815879, Note_on_c, 12, 71, 0
31, 815880, Note_on_c, 12, 69, 80
31, 815979, Note_on_c, 12, 69, 0
31, 816000, Note_on_c, 12, 67, 80
31, 816179, Note_on_c, 12, 67, 0
31, 816240, Note_on_c, 12, 67, 80
31, 816359, Note_on_c, 12, 67, 0
31, 816360, Note_on_c, 12, 66, 80
31, 816459, Note_on_c, 12, 66, 0
31, 816480, Note_on_c, 12, 64, 80
31, 816659, Note_on_c, 12, 64, 0
31, 816720, Note_on_c, 12, 64, 80
31, 816839, Note_on_c, 12, 64, 0
31, 816840, Note_on_c, 12, 62, 80
31, 816939, Note_on_c, 12, 62, 0
31, 816960, Note_on_c, 12, 61, 80
31, 817139, Note_on_c, 12, 61, 0
31, 817200, Note_on_c, 12, 61, 80
31, 817319, Note_on_c, 12, 61, 0
31, 817320, Note_on_c, 12, 59, 80
31, 817419, Note_on_c, 12, 59, 0
31, 817440, Note_on_c, 12, 57, 80
31, 817539, Note_on_c, 12, 57, 0
31, 817560, Note_on_c, 12, 69, 80
31, 817659, Note_on_c, 12, 69, 0
31, 817680, Note_on_c, 12, 69, 80
31, 817779, Note_on_c, 12, 69, 0
31, 817800, Note_on_c, 12, 69, 80
31, 817899, Note_on_c, 12, 69, 0
31, 817920, Note_on_c, 12, 76, 92
31, 818019, Note_on_c, 12, 76, 0
31, 818040, Note_on_c, 12, 76, 80
31, 818139, Note_on_c, 12, 76, 0
31, 818160, Note_on_c, 12, 76, 80
31, 818259, Note_on_c, 12, 76, 0
31, 818280, Note_on_c, 12, 78, 80
31, 818379, Note_on_c, 12, 78, 0
31, 818400, Note_on_c, 12, 76, 80
31, 818499, Note_on_c, 12, 76, 0
31, 818520, Note_on_c, 12, 76, 80
31, 818619, Note_on_c, 12, 76, 0
31, 818640, Note_on_c, 12, 74, 80
31, 818739, Note_on_c, 12, 74, 0
31, 818760, Note_on_c, 12, 74, 80
31, 818859, Note_on_c, 12, 74, 0
31, 818880, Note_on_c, 12, 76, 80
31, 818979, Note_on_c, 12, 76, 0
31, 819000, Note_on_c, 12, 76, 80
31, 819099, Note_on_c, 12, 76, 0
31, 819120, Note_on_c, 12, 76, 80
31, 819219, Note_on_c, 12, 76, 0
31, 819240, Note_on_c, 12, 78, 80
31, 819339, Note_on_c, 12, 78, 0
31, 819360, Note_on_c, 12, 76, 80
31, 819459, Note_on_c, 12, 76, 0
31, 819480, Note_on_c, 12, 76, 80
31, 819579, Note_on_c, 12, 76, 0
31, 819600, Note_on_c, 12, 74, 80
31, 819699, Note_on_c, 12, 74, 0
31, 819720, Note_on_c, 12, 74, 80
31, 819819, Note_on_c, 12, 74, 0
31, 819840, Note_on_c, 12, 76, 80
31, 819939, Note_on_c, 12, 76, 0
31, 819960, Note_on_c, 12, 76, 80
31, 820059, Note_on_c, 12, 76, 0
31, 820080, Note_on_c, 12, 76, 80
31, 820179, Note_on_c, 12, 76, 0
31, 820200, Note_on_c, 12, 78, 80
31, 820299, Note_on_c, 12, 78, 0
31, 820320, Note_on_c, 12, 76, 80
31, 820419, Note_on_c, 12, 76, 0
31, 820440, Note_on_c, 12, 76, 80
31, 820539, Note_on_c, 12, 76, 0
31, 820560, Note_on_c, 12, 74, 80
31, 820659, Note_on_c, 12, 74, 0
31, 820680, Note_on_c, 12, 74, 80
31, 820779, Note_on_c, 12, 74, 0
31, 820800, Note_on_c, 12, 76, 80
31, 820899, Note_on_c, 12, 76, 0
31, 820920, Note_on_c, 12, 76, 80
31, 821019, Note_on_c, 12, 76, 0
31, 821040, Note_on_c, 12, 76, 80
31, 821139, Note_on_c, 12, 76, 0
31, 821160, Note_on_c, 12, 78, 80
31, 821259, Note_on_c, 12, 78, 0
31, 821280, Note_on_c, 12, 76, 80
31, 821379, Note_on_c, 12, 76, 0
31, 821400, Note_on_c, 12, 76, 80
31, 821499, Note_on_c, 12, 76, 0
31, 821520, Note_on_c, 12, 74, 80
31, 821619, Note_on_c, 12, 74, 0
31, 821640, Note_on_c, 12, 74, 80
31, 821739, Note_on_c, 12, 74, 0
31, 821760, Note_on_c, 12, 81, 80
31, 821760, Note_on_c, 12, 69, 80
31, 821859, Note_on_c, 12, 81, 0
31, 821859, Note_on_c, 12, 69, 0
31, 821880, Note_on_c, 12, 81, 80
31, 821880, Note_on_c, 12, 69, 80
31, 821979, Note_on_c, 12, 81, 0
31, 821979, Note_on_c, 12, 69, 0
31, 822000, Note_on_c, 12, 69, 80
31, 822000, Note_on_c, 12, 81, 80
31, 822099, Note_on_c, 12, 69, 0
31, 822099, Note_on_c, 12, 81, 0
31, 822120, Note_on_c, 12, 81, 80
31, 822120, Note_on_c, 12, 69, 80
31, 822219, Note_on_c, 12, 81, 0
31, 822219, Note_on_c, 12, 69, 0
31, 822240, Note_on_c, 12, 69, 80
31, 822240, Note_on_c, 12, 81, 80
31, 822339, Note_on_c, 12, 69, 0
31, 822339, Note_on_c, 12, 81, 0
31, 822360, Note_on_c, 12, 81, 80
31, 822360, Note_on_c, 12, 69, 80
31, 822459, Note_on_c, 12, 81, 0
31, 822459, Note_on_c, 12, 69, 0
31, 822480, Note_on_c, 12, 81, 80
31, 822480, Note_on_c, 12, 69, 80
31, 822579, Note_on_c, 12, 81, 0
31, 822579, Note_on_c, 12, 69, 0
31, 822600, Note_on_c, 12, 69, 80
31, 822600, Note_on_c, 12, 81, 80
31, 822699, Note_on_c, 12, 69, 0
31, 822699, Note_on_c, 12, 81, 0
31, 822720, Note_on_c, 12, 81, 80
31, 822720, Note_on_c, 12, 69, 80
31, 822819, Note_on_c, 12, 81, 0
31, 822819, Note_on_c, 12, 69, 0
31, 822840, Note_on_c, 12, 81, 80
31, 822840, Note_on_c, 12, 69, 80
31, 822939, Note_on_c, 12, 81, 0
31, 822939, Note_on_c, 12, 69, 0
31, 822960, Note_on_c, 12, 69, 80
31, 822960, Note_on_c, 12, 81, 80
31, 823059, Note_on_c, 12, 69, 0
31, 823059, Note_on_c, 12, 81, 0
31, 823080, Note_on_c, 12, 69, 80
31, 823080, Note_on_c, 12, 81, 80
31, 823179, Note_on_c, 12, 69, 0
31, 823179, Note_on_c, 12, 81, 0
31, 823200, Note_on_c, 12, 69, 80
31, 823200, Note_on_c, 12, 81, 80
31, 823299, Note_on_c, 12, 69, 0
31, 823299, Note_on_c, 12, 81, 0
31, 823320, Note_on_c, 12, 69, 80
31, 823320, Note_on_c, 12, 81, 80
31, 823419, Note_on_c, 12, 69, 0
31, 823419, Note_on_c, 12, 81, 0
31, 823440, Note_on_c, 12, 81, 80
31, 823440, Note_on_c, 12, 69, 80
31, 823539, Note_on_c, 12, 81, 0
31, 823539, Note_on_c, 12, 69, 0
31, 823560, Note_on_c, 12, 69, 80
31, 823560, Note_on_c, 12, 81, 80
31, 823659, Note_on_c, 12, 69, 0
31, 823659, Note_on_c, 12, 81, 0
31, 823680, Note_on_c, 12, 69, 80
31, 823680, Note_on_c, 12, 81, 80
31, 823779, Note_on_c, 12, 69, 0
31, 823779, Note_on_c, 12, 81, 0
31, 823800, Note_on_c, 12, 69, 80
31, 823800, Note_on_c, 12, 81, 80
31, 823899, Note_on_c, 12, 69, 0
31, 823899, Note_on_c, 12, 81, 0
31, 823920, Note_on_c, 12, 69, 80
31, 823920, Note_on_c, 12, 81, 80
31, 824019, Note_on_c, 12, 69, 0
31, 824019, Note_on_c, 12, 81, 0
31, 824040, Note_on_c, 12, 81, 80
31, 824040, Note_on_c, 12, 69, 80
31, 824139, Note_on_c, 12, 81, 0
31, 824139, Note_on_c, 12, 69, 0
31, 824160, Note_on_c, 12, 69, 80
31, 824160, Note_on_c, 12, 81, 80
31, 824259, Note_on_c, 12, 69, 0
31, 824259, Note_on_c, 12, 81, 0
31, 824280, Note_on_c, 12, 69, 80
31, 824280, Note_on_c, 12, 81, 80
31, 824379, Note_on_c, 12, 69, 0
31, 824379, Note_on_c, 12, 81, 0
31, 824400, Note_on_c, 12, 81, 80
31, 824400, Note_on_c, 12, 69, 80
31, 824499, Note_on_c, 12, 81, 0
31, 824499, Note_on_c, 12, 69, 0
31, 824520, Note_on_c, 12, 69, 80
31, 824520, Note_on_c, 12, 81, 80
31, 824619, Note_on_c, 12, 69, 0
31, 824619, Note_on_c, 12, 81, 0
31, 824640, Note_on_c, 12, 69, 80
31, 824640, Note_on_c, 12, 81, 80
31, 824739, Note_on_c, 12, 69, 0
31, 824739, Note_on_c, 12, 81, 0
31, 824760, Note_on_c, 12, 69, 80
31, 824760, Note_on_c, 12, 81, 80
31, 824859, Note_on_c, 12, 69, 0
31, 824859, Note_on_c, 12, 81, 0
31, 824880, Note_on_c, 12, 69, 80
31, 824880, Note_on_c, 12, 81, 80
31, 824979, Note_on_c, 12, 69, 0
31, 824979, Note_on_c, 12, 81, 0
31, 825000, Note_on_c, 12, 81, 80
31, 825000, Note_on_c, 12, 69, 80
31, 825099, Note_on_c, 12, 81, 0
31, 825099, Note_on_c, 12, 69, 0
31, 825120, Note_on_c, 12, 69, 80
31, 825120, Note_on_c, 12, 81, 80
31, 825219, Note_on_c, 12, 69, 0
31, 825219, Note_on_c, 12, 81, 0
31, 825240, Note_on_c, 12, 69, 80
31, 825240, Note_on_c, 12, 81, 80
31, 825339, Note_on_c, 12, 69, 0
31, 825339, Note_on_c, 12, 81, 0
31, 825360, Note_on_c, 12, 69, 80
31, 825360, Note_on_c, 12, 81, 80
31, 825459, Note_on_c, 12, 69, 0
31, 825459, Note_on_c, 12, 81, 0
31, 825480, Note_on_c, 12, 69, 80
31, 825480, Note_on_c, 12, 81, 80
31, 825579, Note_on_c, 12, 69, 0
31, 825579, Note_on_c, 12, 81, 0
31, 825600, Note_on_c, 12, 69, 80
31, 825600, Note_on_c, 12, 81, 80
31, 825699, Note_on_c, 12, 69, 0
31, 825699, Note_on_c, 12, 81, 0
31, 825720, Note_on_c, 12, 69, 80
31, 825720, Note_on_c, 12, 81, 80
31, 825819, Note_on_c, 12, 69, 0
31, 825819, Note_on_c, 12, 81, 0
31, 825840, Note_on_c, 12, 69, 80
31, 825840, Note_on_c, 12, 81, 80
31, 825939, Note_on_c, 12, 69, 0
31, 825939, Note_on_c, 12, 81, 0
31, 825960, Note_on_c, 12, 69, 80
31, 825960, Note_on_c, 12, 81, 80
31, 826059, Note_on_c, 12, 69, 0
31, 826059, Note_on_c, 12, 81, 0
31, 826080, Note_on_c, 12, 81, 80
31, 826080, Note_on_c, 12, 69, 80
31, 826179, Note_on_c, 12, 81, 0
31, 826179, Note_on_c, 12, 69, 0
31, 826200, Note_on_c, 12, 69, 80
31, 826200, Note_on_c, 12, 81, 80
31, 826299, Note_on_c, 12, 69, 0
31, 826299, Note_on_c, 12, 81, 0
31, 826320, Note_on_c, 12, 69, 80
31, 826419, Note_on_c, 12, 69, 0
31, 826440, Note_on_c, 12, 69, 80
31, 826539, Note_on_c, 12, 69, 0
31, 826560, Note_on_c, 12, 69, 80
31, 826659, Note_on_c, 12, 69, 0
31, 826680, Note_on_c, 12, 69, 80
31, 826779, Note_on_c, 12, 69, 0
31, 826800, Note_on_c, 12, 67, 80
31, 826899, Note_on_c, 12, 67, 0
31, 826920, Note_on_c, 12, 67, 80
31, 827019, Note_on_c, 12, 67, 0
31, 827040, Note_on_c, 12, 71, 80
31, 827139, Note_on_c, 12, 71, 0
31, 827160, Note_on_c, 12, 71, 80
31, 827259, Note_on_c, 12, 71, 0
31, 827280, Note_on_c, 12, 67, 80
31, 827379, Note_on_c, 12, 67, 0
31, 827400, Note_on_c, 12, 67, 80
31, 827499, Note_on_c, 12, 67, 0
31, 827520, Note_on_c, 12, 67, 80
31, 827619, Note_on_c, 12, 67, 0
31, 827640, Note_on_c, 12, 67, 80
31, 827739, Note_on_c, 12, 67, 0
31, 827760, Note_on_c, 12, 66, 80
31, 827859, Note_on_c, 12, 66, 0
31, 827880, Note_on_c, 12, 66, 80
31, 827979, Note_on_c, 12, 66, 0
31, 828000, Note_on_c, 12, 64, 80
31, 828099, Note_on_c, 12, 64, 0
31, 828120, Note_on_c, 12, 64, 80
31, 828219, Note_on_c, 12, 64, 0
31, 828240, Note_on_c, 12, 64, 80
31, 828339, Note_on_c, 12, 64, 0
31, 828360, Note_on_c, 12, 64, 80
31, 828459, Note_on_c, 12, 64, 0
31, 828480, Note_on_c, 12, 71, 80
31, 828579, Note_on_c, 12, 71, 0
31, 828600, Note_on_c, 12, 71, 80
31, 828699, Note_on_c, 12, 71, 0
31, 828720, Note_on_c, 12, 71, 80
31, 828819, Note_on_c, 12, 71, 0
31, 828840, Note_on_c, 12, 71, 80
31, 828939, Note_on_c, 12, 71, 0
31, 828960, Note_on_c, 12, 69, 80
31, 829059, Note_on_c, 12, 69, 0
31, 829080, Note_on_c, 12, 69, 80
31, 829179, Note_on_c, 12, 69, 0
31, 829200, Note_on_c, 12, 69, 80
31, 829299, Note_on_c, 12, 69, 0
31, 829320, Note_on_c, 12, 69, 80
31, 829419, Note_on_c, 12, 69, 0
31, 829440, Note_on_c, 12, 71, 80
31, 829539, Note_on_c, 12, 71, 0
31, 829560, Note_on_c, 12, 71, 80
31, 829659, Note_on_c, 12, 71, 0
31, 829680, Note_on_c, 12, 73, 80
31, 829779, Note_on_c, 12, 73, 0
31, 829800, Note_on_c, 12, 73, 80
31, 829899, Note_on_c, 12, 73, 0
31, 829920, Note_on_c, 12, 76, 80
31, 830019, Note_on_c, 12, 76, 0
31, 830040, Note_on_c, 12, 76, 80
31, 830139, Note_on_c, 12, 76, 0
31, 830160, Note_on_c, 12, 74, 80
31, 830259, Note_on_c, 12, 74, 0
31, 830280, Note_on_c, 12, 74, 80
31, 830379, Note_on_c, 12, 74, 0
31, 830400, Note_on_c, 12, 69, 80
31, 830499, Note_on_c, 12, 69, 0
31, 830520, Note_on_c, 12, 69, 80
31, 830619, Note_on_c, 12, 69, 0
31, 830640, Note_on_c, 12, 67, 80
31, 830739, Note_on_c, 12, 67, 0
31, 830760, Note_on_c, 12, 67, 80
31, 830859, Note_on_c, 12, 67, 0
31, 830880, Note_on_c, 12, 71, 80
31, 830979, Note_on_c, 12, 71, 0
31, 831000, Note_on_c, 12, 71, 80
31, 831099, Note_on_c, 12, 71, 0
31, 831120, Note_on_c, 12, 67, 80
31, 831219, Note_on_c, 12, 67, 0
31, 831240, Note_on_c, 12, 67, 80
31, 831339, Note_on_c, 12, 67, 0
31, 831360, Note_on_c, 12, 67, 80
31, 831459, Note_on_c, 12, 67, 0
31, 831480, Note_on_c, 12, 67, 80
31, 831579, Note_on_c, 12, 67, 0
31, 831600, Note_on_c, 12, 66, 80
31, 831699, Note_on_c, 12, 66, 0
31, 831720, Note_on_c, 12, 66, 80
31, 831819, Note_on_c, 12, 66, 0
31, 831840, Note_on_c, 12, 66, 80
31, 831939, Note_on_c, 12, 66, 0
31, 831960, Note_on_c, 12, 66, 80
31, 832059, Note_on_c, 12, 66, 0
31, 832080, Note_on_c, 12, 64, 80
31, 832179, Note_on_c, 12, 64, 0
31, 832200, Note_on_c, 12, 64, 80
31, 832299, Note_on_c, 12, 64, 0
31, 832320, Note_on_c, 12, 62, 80
31, 832320, Note_on_c, 12, 74, 80
31, 832529, Note_on_c, 12, 62, 0
31, 832529, Note_on_c, 12, 74, 0
31, 832560, Note_on_c, 12, 62, 80
31, 832560, Note_on_c, 12, 74, 80
31, 832769, Note_on_c, 12, 62, 0
31, 832769, Note_on_c, 12, 74, 0
31, 832800, Note_on_c, 12, 73, 80
31, 833009, Note_on_c, 12, 73, 0
31, 833040, Note_on_c, 12, 69, 80
31, 833249, Note_on_c, 12, 69, 0
31, 833280, Note_on_c, 12, 66, 80
31, 833489, Note_on_c, 12, 66, 0
31, 833520, Note_on_c, 12, 66, 80
31, 833639, Note_on_c, 12, 66, 0
31, 833640, Note_on_c, 12, 67, 80
31, 833739, Note_on_c, 12, 67, 0
31, 833760, Note_on_c, 12, 69, 80
31, 833939, Note_on_c, 12, 69, 0
31, 834240, Note_on_c, 12, 67, 80
31, 834449, Note_on_c, 12, 67, 0
31, 834480, Note_on_c, 12, 67, 80
31, 834689, Note_on_c, 12, 67, 0
31, 834720, Note_on_c, 12, 66, 80
31, 834929, Note_on_c, 12, 66, 0
31, 834960, Note_on_c, 12, 63, 80
31, 835169, Note_on_c, 12, 63, 0
31, 835200, Note_on_c, 12, 67, 80
31, 835409, Note_on_c, 12, 67, 0
31, 835440, Note_on_c, 12, 67, 80
31, 835559, Note_on_c, 12, 67, 0
31, 835560, Note_on_c, 12, 69, 80
31, 835659, Note_on_c, 12, 69, 0
31, 835680, Note_on_c, 12, 71, 80
31, 835859, Note_on_c, 12, 71, 0
31, 835920, Note_on_c, 12, 66, 80
31, 836039, Note_on_c, 12, 66, 0
31, 836040, Note_on_c, 12, 67, 80
31, 836159, Note_on_c, 12, 67, 0
31, 836160, Note_on_c, 12, 69, 92
31, 836339, Note_on_c, 12, 69, 0
31, 836400, Note_on_c, 12, 66, 92
31, 836519, Note_on_c, 12, 66, 0
31, 836520, Note_on_c, 12, 67, 92
31, 836639, Note_on_c, 12, 67, 0
31, 836640, Note_on_c, 12, 69, 92
31, 836819, Note_on_c, 12, 69, 0
31, 836880, Note_on_c, 12, 66, 92
31, 836999, Note_on_c, 12, 66, 0
31, 837000, Note_on_c, 12, 67, 92
31, 837119, Note_on_c, 12, 67, 0
31, 837120, Note_on_c, 12, 69, 92
31, 837299, Note_on_c, 12, 69, 0
31, 837360, Note_on_c, 12, 66, 92
31, 837479, Note_on_c, 12, 66, 0
31, 837480, Note_on_c, 12, 67, 92
31, 837599, Note_on_c, 12, 67, 0
31, 837600, Note_on_c, 12, 69, 92
31, 837779, Note_on_c, 12, 69, 0
31, 837840, Note_on_c, 12, 66, 92
31, 837959, Note_on_c, 12, 66, 0
31, 837960, Note_on_c, 12, 67, 92
31, 838079, Note_on_c, 12, 67, 0
31, 838080, Note_on_c, 12, 69, 92
31, 838259, Note_on_c, 12, 69, 0
31, 838320, Note_on_c, 12, 66, 92
31, 838439, Note_on_c, 12, 66, 0
31, 838440, Note_on_c, 12, 67, 92
31, 838559, Note_on_c, 12, 67, 0
31, 838560, Note_on_c, 12, 69, 92
31, 838739, Note_on_c, 12, 69, 0
31, 838800, Note_on_c, 12, 71, 92
31, 838919, Note_on_c, 12, 71, 0
31, 838920, Note_on_c, 12, 69, 92
31, 839039, Note_on_c, 12, 69, 0
31, 839040, Note_on_c, 12, 67, 92
31, 839219, Note_on_c, 12, 67, 0
31, 839280, Note_on_c, 12, 64, 92
31, 839399, Note_on_c, 12, 64, 0
31, 839400, Note_on_c, 12, 66, 92
31, 839519, Note_on_c, 12, 66, 0
31, 839520, Note_on_c, 12, 67, 92
31, 839699, Note_on_c, 12, 67, 0
31, 839760, Note_on_c, 12, 64, 92
31, 839879, Note_on_c, 12, 64, 0
31, 839880, Note_on_c, 12, 66, 92
31, 839999, Note_on_c, 12, 66, 0
31, 840000, Note_on_c, 12, 67, 92
31, 840179, Note_on_c, 12, 67, 0
31, 840240, Note_on_c, 12, 64, 92
31, 840359, Note_on_c, 12, 64, 0
31, 840360, Note_on_c, 12, 66, 92
31, 840479, Note_on_c, 12, 66, 0
31, 840480, Note_on_c, 12, 67, 92
31, 840659, Note_on_c, 12, 67, 0
31, 840720, Note_on_c, 12, 69, 92
31, 840839, Note_on_c, 12, 69, 0
31, 840840, Note_on_c, 12, 67, 92
31, 840959, Note_on_c, 12, 67, 0
31, 840960, Note_on_c, 12, 65, 92
31, 841139, Note_on_c, 12, 65, 0
31, 841200, Note_on_c, 12, 62, 92
31, 841319, Note_on_c, 12, 62, 0
31, 841320, Note_on_c, 12, 64, 92
31, 841439, Note_on_c, 12, 64, 0
31, 841440, Note_on_c, 12, 65, 92
31, 841619, Note_on_c, 12, 65, 0
31, 841680, Note_on_c, 12, 67, 92
31, 841799, Note_on_c, 12, 67, 0
31, 841800, Note_on_c, 12, 65, 92
31, 841919, Note_on_c, 12, 65, 0
31, 841920, Note_on_c, 12, 64, 92
31, 842099, Note_on_c, 12, 64, 0
31, 842160, Note_on_c, 12, 76, 92
31, 842279, Note_on_c, 12, 76, 0
31, 842280, Note_on_c, 12, 73, 92
31, 842399, Note_on_c, 12, 73, 0
31, 842400, Note_on_c, 12, 69, 92
31, 842579, Note_on_c, 12, 69, 0
31, 842640, Note_on_c, 12, 68, 92
31, 842759, Note_on_c, 12, 68, 0
31, 842760, Note_on_c, 12, 69, 92
31, 842859, Note_on_c, 12, 69, 0
31, 842880, Note_on_c, 12, 75, 92
31, 842880, Note_on_c, 12, 78, 92
31, 842979, Note_on_c, 12, 75, 0
31, 842979, Note_on_c, 12, 78, 0
31, 843000, Note_on_c, 12, 78, 92
31, 843000, Note_on_c, 12, 75, 92
31, 843099, Note_on_c, 12, 78, 0
31, 843099, Note_on_c, 12, 75, 0
31, 843120, Note_on_c, 12, 78, 92
31, 843120, Note_on_c, 12, 75, 92
31, 843219, Note_on_c, 12, 78, 0
31, 843219, Note_on_c, 12, 75, 0
31, 843240, Note_on_c, 12, 78, 92
31, 843240, Note_on_c, 12, 75, 92
31, 843339, Note_on_c, 12, 78, 0
31, 843339, Note_on_c, 12, 75, 0
31, 843360, Note_on_c, 12, 75, 92
31, 843360, Note_on_c, 12, 78, 92
31, 843459, Note_on_c, 12, 75, 0
31, 843459, Note_on_c, 12, 78, 0
31, 843480, Note_on_c, 12, 78, 80
31, 843480, Note_on_c, 12, 75, 80
31, 843579, Note_on_c, 12, 78, 0
31, 843579, Note_on_c, 12, 75, 0
31, 843600, Note_on_c, 12, 75, 80
31, 843600, Note_on_c, 12, 78, 80
31, 843699, Note_on_c, 12, 75, 0
31, 843699, Note_on_c, 12, 78, 0
31, 843720, Note_on_c, 12, 78, 80
31, 843720, Note_on_c, 12, 75, 80
31, 843819, Note_on_c, 12, 78, 0
31, 843819, Note_on_c, 12, 75, 0
31, 843840, Note_on_c, 12, 78, 80
31, 843840, Note_on_c, 12, 75, 80
31, 843939, Note_on_c, 12, 78, 0
31, 843939, Note_on_c, 12, 75, 0
31, 843960, Note_on_c, 12, 78, 80
31, 843960, Note_on_c, 12, 75, 80
31, 844059, Note_on_c, 12, 78, 0
31, 844059, Note_on_c, 12, 75, 0
31, 844080, Note_on_c, 12, 75, 80
31, 844080, Note_on_c, 12, 78, 80
31, 844179, Note_on_c, 12, 75, 0
31, 844179, Note_on_c, 12, 78, 0
31, 844200, Note_on_c, 12, 75, 80
31, 844200, Note_on_c, 12, 78, 80
31, 844299, Note_on_c, 12, 75, 0
31, 844299, Note_on_c, 12, 78, 0
31, 844320, Note_on_c, 12, 78, 80
31, 844320, Note_on_c, 12, 75, 80
31, 844419, Note_on_c, 12, 78, 0
31, 844419, Note_on_c, 12, 75, 0
31, 844440, Note_on_c, 12, 75, 80
31, 844440, Note_on_c, 12, 78, 80
31, 844539, Note_on_c, 12, 75, 0
31, 844539, Note_on_c, 12, 78, 0
31, 844560, Note_on_c, 12, 75, 80
31, 844560, Note_on_c, 12, 78, 80
31, 844659, Note_on_c, 12, 75, 0
31, 844659, Note_on_c, 12, 78, 0
31, 844680, Note_on_c, 12, 75, 80
31, 844680, Note_on_c, 12, 78, 80
31, 844779, Note_on_c, 12, 75, 0
31, 844779, Note_on_c, 12, 78, 0
31, 844800, Note_on_c, 12, 75, 80
31, 844800, Note_on_c, 12, 78, 80
31, 844899, Note_on_c, 12, 75, 0
31, 844899, Note_on_c, 12, 78, 0
31, 844920, Note_on_c, 12, 78, 80
31, 844920, Note_on_c, 12, 75, 80
31, 845019, Note_on_c, 12, 78, 0
31, 845019, Note_on_c, 12, 75, 0
31, 845040, Note_on_c, 12, 78, 80
31, 845040, Note_on_c, 12, 75, 80
31, 845139, Note_on_c, 12, 78, 0
31, 845139, Note_on_c, 12, 75, 0
31, 845160, Note_on_c, 12, 75, 80
31, 845160, Note_on_c, 12, 78, 80
31, 845259, Note_on_c, 12, 75, 0
31, 845259, Note_on_c, 12, 78, 0
31, 845280, Note_on_c, 12, 75, 80
31, 845280, Note_on_c, 12, 78, 80
31, 845379, Note_on_c, 12, 75, 0
31, 845379, Note_on_c, 12, 78, 0
31, 845400, Note_on_c, 12, 78, 80
31, 845400, Note_on_c, 12, 75, 80
31, 845499, Note_on_c, 12, 78, 0
31, 845499, Note_on_c, 12, 75, 0
31, 845520, Note_on_c, 12, 78, 80
31, 845520, Note_on_c, 12, 75, 80
31, 845619, Note_on_c, 12, 78, 0
31, 845619, Note_on_c, 12, 75, 0
31, 845640, Note_on_c, 12, 78, 80
31, 845640, Note_on_c, 12, 75, 80
31, 845739, Note_on_c, 12, 78, 0
31, 845739, Note_on_c, 12, 75, 0
31, 845760, Note_on_c, 12, 78, 80
31, 845760, Note_on_c, 12, 75, 80
31, 845859, Note_on_c, 12, 78, 0
31, 845859, Note_on_c, 12, 75, 0
31, 845880, Note_on_c, 12, 75, 80
31, 845880, Note_on_c, 12, 78, 80
31, 845979, Note_on_c, 12, 75, 0
31, 845979, Note_on_c, 12, 78, 0
31, 846000, Note_on_c, 12, 75, 80
31, 846000, Note_on_c, 12, 78, 80
31, 846099, Note_on_c, 12, 75, 0
31, 846099, Note_on_c, 12, 78, 0
31, 846120, Note_on_c, 12, 78, 80
31, 846120, Note_on_c, 12, 75, 80
31, 846219, Note_on_c, 12, 78, 0
31, 846219, Note_on_c, 12, 75, 0
31, 846240, Note_on_c, 12, 75, 80
31, 846240, Note_on_c, 12, 78, 80
31, 846339, Note_on_c, 12, 75, 0
31, 846339, Note_on_c, 12, 78, 0
31, 846360, Note_on_c, 12, 75, 80
31, 846360, Note_on_c, 12, 78, 80
31, 846459, Note_on_c, 12, 75, 0
31, 846459, Note_on_c, 12, 78, 0
31, 846480, Note_on_c, 12, 75, 80
31, 846480, Note_on_c, 12, 78, 80
31, 846579, Note_on_c, 12, 75, 0
31, 846579, Note_on_c, 12, 78, 0
31, 846600, Note_on_c, 12, 78, 80
31, 846600, Note_on_c, 12, 75, 80
31, 846699, Note_on_c, 12, 78, 0
31, 846699, Note_on_c, 12, 75, 0
31, 846720, Note_on_c, 12, 67, 92
31, 846720, Note_on_c, 12, 76, 92
31, 846819, Note_on_c, 12, 67, 0
31, 846819, Note_on_c, 12, 76, 0
31, 846840, Note_on_c, 12, 67, 92
31, 846840, Note_on_c, 12, 76, 92
31, 846939, Note_on_c, 12, 67, 0
31, 846939, Note_on_c, 12, 76, 0
31, 846960, Note_on_c, 12, 67, 92
31, 846960, Note_on_c, 12, 76, 92
31, 847059, Note_on_c, 12, 67, 0
31, 847059, Note_on_c, 12, 76, 0
31, 847080, Note_on_c, 12, 67, 92
31, 847080, Note_on_c, 12, 76, 92
31, 847179, Note_on_c, 12, 67, 0
31, 847179, Note_on_c, 12, 76, 0
31, 847200, Note_on_c, 12, 67, 80
31, 847200, Note_on_c, 12, 76, 80
31, 847299, Note_on_c, 12, 67, 0
31, 847299, Note_on_c, 12, 76, 0
31, 847320, Note_on_c, 12, 76, 80
31, 847320, Note_on_c, 12, 67, 80
31, 847419, Note_on_c, 12, 76, 0
31, 847419, Note_on_c, 12, 67, 0
31, 847440, Note_on_c, 12, 76, 80
31, 847440, Note_on_c, 12, 67, 80
31, 847539, Note_on_c, 12, 76, 0
31, 847539, Note_on_c, 12, 67, 0
31, 847560, Note_on_c, 12, 76, 80
31, 847560, Note_on_c, 12, 67, 80
31, 847659, Note_on_c, 12, 76, 0
31, 847659, Note_on_c, 12, 67, 0
31, 847680, Note_on_c, 12, 67, 80
31, 847680, Note_on_c, 12, 76, 80
31, 847779, Note_on_c, 12, 67, 0
31, 847779, Note_on_c, 12, 76, 0
31, 847800, Note_on_c, 12, 76, 80
31, 847800, Note_on_c, 12, 67, 80
31, 847899, Note_on_c, 12, 76, 0
31, 847899, Note_on_c, 12, 67, 0
31, 847920, Note_on_c, 12, 76, 80
31, 847920, Note_on_c, 12, 67, 80
31, 848019, Note_on_c, 12, 76, 0
31, 848019, Note_on_c, 12, 67, 0
31, 848040, Note_on_c, 12, 76, 80
31, 848040, Note_on_c, 12, 67, 80
31, 848139, Note_on_c, 12, 76, 0
31, 848139, Note_on_c, 12, 67, 0
31, 848160, Note_on_c, 12, 76, 80
31, 848160, Note_on_c, 12, 79, 80
31, 848259, Note_on_c, 12, 76, 0
31, 848259, Note_on_c, 12, 79, 0
31, 848280, Note_on_c, 12, 76, 80
31, 848280, Note_on_c, 12, 79, 80
31, 848379, Note_on_c, 12, 76, 0
31, 848379, Note_on_c, 12, 79, 0
31, 848400, Note_on_c, 12, 79, 80
31, 848400, Note_on_c, 12, 76, 80
31, 848499, Note_on_c, 12, 79, 0
31, 848499, Note_on_c, 12, 76, 0
31, 848520, Note_on_c, 12, 76, 80
31, 848520, Note_on_c, 12, 79, 80
31, 848619, Note_on_c, 12, 76, 0
31, 848619, Note_on_c, 12, 79, 0
31, 848640, Note_on_c, 12, 69, 92
31, 848640, Note_on_c, 12, 77, 92
31, 848739, Note_on_c, 12, 69, 0
31, 848739, Note_on_c, 12, 77, 0
31, 848760, Note_on_c, 12, 77, 92
31, 848760, Note_on_c, 12, 69, 92
31, 848859, Note_on_c, 12, 77, 0
31, 848859, Note_on_c, 12, 69, 0
31, 848880, Note_on_c, 12, 77, 92
31, 848880, Note_on_c, 12, 69, 92
31, 848979, Note_on_c, 12, 77, 0
31, 848979, Note_on_c, 12, 69, 0
31, 849000, Note_on_c, 12, 77, 92
31, 849000, Note_on_c, 12, 69, 92
31, 849099, Note_on_c, 12, 77, 0
31, 849099, Note_on_c, 12, 69, 0
31, 849120, Note_on_c, 12, 74, 80
31, 849120, Note_on_c, 12, 77, 80
31, 849219, Note_on_c, 12, 74, 0
31, 849219, Note_on_c, 12, 77, 0
31, 849240, Note_on_c, 12, 74, 80
31, 849240, Note_on_c, 12, 77, 80
31, 849339, Note_on_c, 12, 74, 0
31, 849339, Note_on_c, 12, 77, 0
31, 849360, Note_on_c, 12, 74, 80
31, 849360, Note_on_c, 12, 77, 80
31, 849459, Note_on_c, 12, 74, 0
31, 849459, Note_on_c, 12, 77, 0
31, 849480, Note_on_c, 12, 77, 80
31, 849480, Note_on_c, 12, 74, 80
31, 849579, Note_on_c, 12, 77, 0
31, 849579, Note_on_c, 12, 74, 0
31, 849600, Note_on_c, 12, 76, 80
31, 849600, Note_on_c, 12, 73, 80
31, 849699, Note_on_c, 12, 76, 0
31, 849699, Note_on_c, 12, 73, 0
31, 849720, Note_on_c, 12, 73, 80
31, 849720, Note_on_c, 12, 76, 80
31, 849819, Note_on_c, 12, 73, 0
31, 849819, Note_on_c, 12, 76, 0
31, 849840, Note_on_c, 12, 76, 80
31, 849840, Note_on_c, 12, 73, 80
31, 849939, Note_on_c, 12, 76, 0
31, 849939, Note_on_c, 12, 73, 0
31, 849960, Note_on_c, 12, 73, 80
31, 849960, Note_on_c, 12, 76, 80
31, 850059, Note_on_c, 12, 73, 0
31, 850059, Note_on_c, 12, 76, 0
31, 850080, Note_on_c, 12, 73, 80
31, 850080, Note_on_c, 12, 76, 80
31, 850179, Note_on_c, 12, 73, 0
31, 850179, Note_on_c, 12, 76, 0
31, 850200, Note_on_c, 12, 73, 80
31, 850200, Note_on_c, 12, 76, 80
31, 850299, Note_on_c, 12, 73, 0
31, 850299, Note_on_c, 12, 76, 0
31, 850320, Note_on_c, 12, 76, 80
31, 850320, Note_on_c, 12, 69, 80
31, 850419, Note_on_c, 12, 76, 0
31, 850419, Note_on_c, 12, 69, 0
31, 850440, Note_on_c, 12, 69, 80
31, 850440, Note_on_c, 12, 76, 80
31, 850539, Note_on_c, 12, 69, 0
31, 850539, Note_on_c, 12, 76, 0
31, 850560, Note_on_c, 12, 69, 92
31, 850560, Note_on_c, 12, 78, 92
31, 850659, Note_on_c, 12, 69, 0
31, 850659, Note_on_c, 12, 78, 0
31, 850680, Note_on_c, 12, 69, 92
31, 850680, Note_on_c, 12, 78, 92
31, 850779, Note_on_c, 12, 69, 0
31, 850779, Note_on_c, 12, 78, 0
31, 850800, Note_on_c, 12, 78, 92
31, 850800, Note_on_c, 12, 69, 92
31, 850899, Note_on_c, 12, 78, 0
31, 850899, Note_on_c, 12, 69, 0
31, 850920, Note_on_c, 12, 78, 92
31, 850920, Note_on_c, 12, 69, 92
31, 851019, Note_on_c, 12, 78, 0
31, 851019, Note_on_c, 12, 69, 0
31, 851040, Note_on_c, 12, 79, 92
31, 851040, Note_on_c, 12, 71, 92
31, 851139, Note_on_c, 12, 79, 0
31, 851139, Note_on_c, 12, 71, 0
31, 851160, Note_on_c, 12, 71, 92
31, 851160, Note_on_c, 12, 79, 92
31, 851259, Note_on_c, 12, 71, 0
31, 851259, Note_on_c, 12, 79, 0
31, 851280, Note_on_c, 12, 71, 92
31, 851280, Note_on_c, 12, 79, 92
31, 851379, Note_on_c, 12, 71, 0
31, 851379, Note_on_c, 12, 79, 0
31, 851400, Note_on_c, 12, 79, 92
31, 851400, Note_on_c, 12, 71, 92
31, 851499, Note_on_c, 12, 79, 0
31, 851499, Note_on_c, 12, 71, 0
31, 851520, Note_on_c, 12, 88, 92
31, 851619, Note_on_c, 12, 88, 0
31, 851640, Note_on_c, 12, 88, 92
31, 851739, Note_on_c, 12, 88, 0
31, 851760, Note_on_c, 12, 85, 92
31, 851859, Note_on_c, 12, 85, 0
31, 851880, Note_on_c, 12, 85, 92
31, 851979, Note_on_c, 12, 85, 0
31, 852000, Note_on_c, 12, 81, 92
31, 852099, Note_on_c, 12, 81, 0
31, 852120, Note_on_c, 12, 81, 92
31, 852219, Note_on_c, 12, 81, 0
31, 852240, Note_on_c, 12, 79, 92
31, 852339, Note_on_c, 12, 79, 0
31, 852360, Note_on_c, 12, 79, 92
31, 852459, Note_on_c, 12, 79, 0
31, 852480, Note_on_c, 12, 76, 92
31, 852579, Note_on_c, 12, 76, 0
31, 852600, Note_on_c, 12, 76, 92
31, 852699, Note_on_c, 12, 76, 0
31, 852720, Note_on_c, 12, 73, 92
31, 852819, Note_on_c, 12, 73, 0
31, 852840, Note_on_c, 12, 73, 92
31, 852939, Note_on_c, 12, 73, 0
31, 852960, Note_on_c, 12, 69, 92
31, 853059, Note_on_c, 12, 69, 0
31, 853080, Note_on_c, 12, 69, 92
31, 853179, Note_on_c, 12, 69, 0
31, 853200, Note_on_c, 12, 88, 92
31, 853299, Note_on_c, 12, 88, 0
31, 853320, Note_on_c, 12, 88, 92
31, 853419, Note_on_c, 12, 88, 0
31, 853440, Note_on_c, 12, 78, 92
31, 853440, Note_on_c, 12, 86, 92
31, 853539, Note_on_c, 12, 78, 0
31, 853539, Note_on_c, 12, 86, 0
31, 853560, Note_on_c, 12, 86, 92
31, 853560, Note_on_c, 12, 78, 92
31, 853659, Note_on_c, 12, 86, 0
31, 853659, Note_on_c, 12, 78, 0
31, 853680, Note_on_c, 12, 86, 92
31, 853680, Note_on_c, 12, 78, 92
31, 853779, Note_on_c, 12, 86, 0
31, 853779, Note_on_c, 12, 78, 0
31, 853800, Note_on_c, 12, 78, 92
31, 853800, Note_on_c, 12, 86, 92
31, 853899, Note_on_c, 12, 78, 0
31, 853899, Note_on_c, 12, 86, 0
31, 853920, Note_on_c, 12, 76, 92
31, 853920, Note_on_c, 12, 85, 92
31, 854019, Note_on_c, 12, 76, 0
31, 854019, Note_on_c, 12, 85, 0
31, 854040, Note_on_c, 12, 76, 92
31, 854040, Note_on_c, 12, 85, 92
31, 854139, Note_on_c, 12, 76, 0
31, 854139, Note_on_c, 12, 85, 0
31, 854160, Note_on_c, 12, 81, 92
31, 854259, Note_on_c, 12, 81, 0
31, 854280, Note_on_c, 12, 81, 92
31, 854379, Note_on_c, 12, 81, 0
31, 854400, Note_on_c, 12, 86, 92
31, 854400, Note_on_c, 12, 78, 92
31, 854499, Note_on_c, 12, 86, 0
31, 854499, Note_on_c, 12, 78, 0
31, 854520, Note_on_c, 12, 74, 92
31, 854619, Note_on_c, 12, 74, 0
31, 854640, Note_on_c, 12, 76, 92
31, 854739, Note_on_c, 12, 76, 0
31, 854760, Note_on_c, 12, 78, 92
31, 854859, Note_on_c, 12, 78, 0
31, 854880, Note_on_c, 12, 79, 92
31, 854880, Note_on_c, 12, 71, 92
31, 854979, Note_on_c, 12, 79, 0
31, 854979, Note_on_c, 12, 71, 0
31, 855000, Note_on_c, 12, 79, 92
31, 855000, Note_on_c, 12, 71, 92
31, 855099, Note_on_c, 12, 79, 0
31, 855099, Note_on_c, 12, 71, 0
31, 855120, Note_on_c, 12, 71, 92
31, 855120, Note_on_c, 12, 79, 92
31, 855219, Note_on_c, 12, 71, 0
31, 855219, Note_on_c, 12, 79, 0
31, 855240, Note_on_c, 12, 71, 92
31, 855240, Note_on_c, 12, 79, 92
31, 855339, Note_on_c, 12, 71, 0
31, 855339, Note_on_c, 12, 79, 0
31, 855360, Note_on_c, 12, 88, 92
31, 855459, Note_on_c, 12, 88, 0
31, 855480, Note_on_c, 12, 88, 92
31, 855579, Note_on_c, 12, 88, 0
31, 855600, Note_on_c, 12, 85, 92
31, 855699, Note_on_c, 12, 85, 0
31, 855720, Note_on_c, 12, 85, 92
31, 855819, Note_on_c, 12, 85, 0
31, 855840, Note_on_c, 12, 81, 92
31, 855939, Note_on_c, 12, 81, 0
31, 855960, Note_on_c, 12, 81, 92
31, 856059, Note_on_c, 12, 81, 0
31, 856080, Note_on_c, 12, 79, 92
31, 856179, Note_on_c, 12, 79, 0
31, 856200, Note_on_c, 12, 79, 92
31, 856299, Note_on_c, 12, 79, 0
31, 856320, Note_on_c, 12, 76, 92
31, 856419, Note_on_c, 12, 76, 0
31, 856440, Note_on_c, 12, 76, 92
31, 856539, Note_on_c, 12, 76, 0
31, 856560, Note_on_c, 12, 73, 92
31, 856659, Note_on_c, 12, 73, 0
31, 856680, Note_on_c, 12, 73, 92
31, 856779, Note_on_c, 12, 73, 0
31, 856800, Note_on_c, 12, 69, 92
31, 856899, Note_on_c, 12, 69, 0
31, 856920, Note_on_c, 12, 69, 92
31, 857019, Note_on_c, 12, 69, 0
31, 857040, Note_on_c, 12, 88, 92
31, 857139, Note_on_c, 12, 88, 0
31, 857160, Note_on_c, 12, 88, 92
31, 857259, Note_on_c, 12, 88, 0
31, 857280, Note_on_c, 12, 78, 92
31, 857280, Note_on_c, 12, 86, 92
31, 857379, Note_on_c, 12, 78, 0
31, 857379, Note_on_c, 12, 86, 0
31, 857400, Note_on_c, 12, 78, 92
31, 857400, Note_on_c, 12, 86, 92
31, 857499, Note_on_c, 12, 78, 0
31, 857499, Note_on_c, 12, 86, 0
31, 857520, Note_on_c, 12, 78, 92
31, 857520, Note_on_c, 12, 86, 92
31, 857619, Note_on_c, 12, 78, 0
31, 857619, Note_on_c, 12, 86, 0
31, 857640, Note_on_c, 12, 86, 92
31, 857640, Note_on_c, 12, 78, 92
31, 857739, Note_on_c, 12, 86, 0
31, 857739, Note_on_c, 12, 78, 0
31, 857760, Note_on_c, 12, 85, 92
31, 857760, Note_on_c, 12, 76, 92
31, 857859, Note_on_c, 12, 85, 0
31, 857859, Note_on_c, 12, 76, 0
31, 857880, Note_on_c, 12, 85, 92
31, 857880, Note_on_c, 12, 76, 92
31, 857979, Note_on_c, 12, 85, 0
31, 857979, Note_on_c, 12, 76, 0
31, 858000, Note_on_c, 12, 76, 92
31, 858000, Note_on_c, 12, 85, 92
31, 858099, Note_on_c, 12, 76, 0
31, 858099, Note_on_c, 12, 85, 0
31, 858120, Note_on_c, 12, 76, 92
31, 858120, Note_on_c, 12, 85, 92
31, 858219, Note_on_c, 12, 76, 0
31, 858219, Note_on_c, 12, 85, 0
31, 858240, Note_on_c, 12, 78, 80
31, 858240, Note_on_c, 12, 86, 80
31, 858339, Note_on_c, 12, 78, 0
31, 858339, Note_on_c, 12, 86, 0
31, 858360, Note_on_c, 12, 62, 80
31, 858459, Note_on_c, 12, 62, 0
31, 858480, Note_on_c, 12, 64, 80
31, 858579, Note_on_c, 12, 64, 0
31, 858600, Note_on_c, 12, 66, 80
31, 858699, Note_on_c, 12, 66, 0
31, 858720, Note_on_c, 12, 66, 80
31, 858819, Note_on_c, 12, 66, 0
31, 858840, Note_on_c, 12, 66, 80
31, 858939, Note_on_c, 12, 66, 0
31, 858960, Note_on_c, 12, 67, 80
31, 859059, Note_on_c, 12, 67, 0
31, 859080, Note_on_c, 12, 69, 80
31, 859179, Note_on_c, 12, 69, 0
31, 859200, Note_on_c, 12, 71, 80
31, 859299, Note_on_c, 12, 71, 0
31, 859320, Note_on_c, 12, 71, 80
31, 859419, Note_on_c, 12, 71, 0
31, 859440, Note_on_c, 12, 72, 80
31, 859539, Note_on_c, 12, 72, 0
31, 859560, Note_on_c, 12, 74, 80
31, 859659, Note_on_c, 12, 74, 0
31, 859680, Note_on_c, 12, 74, 80
31, 859779, Note_on_c, 12, 74, 0
31, 859800, Note_on_c, 12, 74, 80
31, 859899, Note_on_c, 12, 74, 0
31, 859920, Note_on_c, 12, 76, 80
31, 860019, Note_on_c, 12, 76, 0
31, 860040, Note_on_c, 12, 78, 80
31, 860139, Note_on_c, 12, 78, 0
31, 860160, Note_on_c, 12, 79, 80
31, 860259, Note_on_c, 12, 79, 0
31, 860280, Note_on_c, 12, 79, 80
31, 860379, Note_on_c, 12, 79, 0
31, 860400, Note_on_c, 12, 81, 80
31, 860499, Note_on_c, 12, 81, 0
31, 860520, Note_on_c, 12, 83, 80
31, 860619, Note_on_c, 12, 83, 0
31, 860640, Note_on_c, 12, 76, 80
31, 860739, Note_on_c, 12, 76, 0
31, 860760, Note_on_c, 12, 76, 80
31, 860859, Note_on_c, 12, 76, 0
31, 860880, Note_on_c, 12, 78, 80
31, 860979, Note_on_c, 12, 78, 0
31, 861000, Note_on_c, 12, 79, 80
31, 861099, Note_on_c, 12, 79, 0
31, 861120, Note_on_c, 12, 69, 92
31, 861219, Note_on_c, 12, 69, 0
31, 861240, Note_on_c, 12, 71, 92
31, 861339, Note_on_c, 12, 71, 0
31, 861360, Note_on_c, 12, 73, 92
31, 861459, Note_on_c, 12, 73, 0
31, 861480, Note_on_c, 12, 74, 92
31, 861579, Note_on_c, 12, 74, 0
31, 861600, Note_on_c, 12, 76, 92
31, 861699, Note_on_c, 12, 76, 0
31, 861720, Note_on_c, 12, 78, 92
31, 861819, Note_on_c, 12, 78, 0
31, 861840, Note_on_c, 12, 79, 92
31, 861939, Note_on_c, 12, 79, 0
31, 861960, Note_on_c, 12, 81, 92
31, 862059, Note_on_c, 12, 81, 0
31, 862080, Note_on_c, 12, 81, 92
31, 862179, Note_on_c, 12, 81, 0
31, 862200, Note_on_c, 12, 81, 92
31, 862299, Note_on_c, 12, 81, 0
31, 862320, Note_on_c, 12, 83, 92
31, 862419, Note_on_c, 12, 83, 0
31, 862440, Note_on_c, 12, 85, 92
31, 862539, Note_on_c, 12, 85, 0
31, 862560, Note_on_c, 12, 86, 92
31, 862659, Note_on_c, 12, 86, 0
31, 862680, Note_on_c, 12, 76, 92
31, 862779, Note_on_c, 12, 76, 0
31, 862800, Note_on_c, 12, 78, 92
31, 862899, Note_on_c, 12, 78, 0
31, 862920, Note_on_c, 12, 74, 92
31, 863019, Note_on_c, 12, 74, 0
31, 863040, Note_on_c, 12, 69, 92
31, 863139, Note_on_c, 12, 69, 0
31, 863160, Note_on_c, 12, 71, 92
31, 863259, Note_on_c, 12, 71, 0
31, 863280, Note_on_c, 12, 73, 92
31, 863379, Note_on_c, 12, 73, 0
31, 863400, Note_on_c, 12, 74, 92
31, 863499, Note_on_c, 12, 74, 0
31, 863520, Note_on_c, 12, 76, 92
31, 863619, Note_on_c, 12, 76, 0
31, 863640, Note_on_c, 12, 78, 92
31, 863739, Note_on_c, 12, 78, 0
31, 863760, Note_on_c, 12, 79, 92
31, 863859, Note_on_c, 12, 79, 0
31, 863880, Note_on_c, 12, 81, 92
31, 863979, Note_on_c, 12, 81, 0
31, 864000, Note_on_c, 12, 81, 92
31, 864099, Note_on_c, 12, 81, 0
31, 864120, Note_on_c, 12, 81, 92
31, 864219, Note_on_c, 12, 81, 0
31, 864240, Note_on_c, 12, 83, 92
31, 864339, Note_on_c, 12, 83, 0
31, 864360, Note_on_c, 12, 85, 92
31, 864459, Note_on_c, 12, 85, 0
31, 864480, Note_on_c, 12, 86, 92
31, 864579, Note_on_c, 12, 86, 0
31, 864600, Note_on_c, 12, 76, 92
31, 864699, Note_on_c, 12, 76, 0
31, 864720, Note_on_c, 12, 78, 92
31, 864819, Note_on_c, 12, 78, 0
31, 864840, Note_on_c, 12, 74, 92
31, 864939, Note_on_c, 12, 74, 0
31, 864960, Note_on_c, 12, 81, 92
31, 865059, Note_on_c, 12, 81, 0
31, 865080, Note_on_c, 12, 73, 92
31, 865179, Note_on_c, 12, 73, 0
31, 865200, Note_on_c, 12, 74, 92
31, 865299, Note_on_c, 12, 74, 0
31, 865320, Note_on_c, 12, 76, 92
31, 865419, Note_on_c, 12, 76, 0
31, 865440, Note_on_c, 12, 81, 92
31, 865539, Note_on_c, 12, 81, 0
31, 865560, Note_on_c, 12, 74, 92
31, 865659, Note_on_c, 12, 74, 0
31, 865680, Note_on_c, 12, 76, 92
31, 865779, Note_on_c, 12, 76, 0
31, 865800, Note_on_c, 12, 78, 92
31, 865899, Note_on_c, 12, 78, 0
31, 865920, Note_on_c, 12, 81, 92
31, 866019, Note_on_c, 12, 81, 0
31, 866040, Note_on_c, 12, 75, 92
31, 866139, Note_on_c, 12, 75, 0
31, 866160, Note_on_c, 12, 76, 92
31, 866259, Note_on_c, 12, 76, 0
31, 866280, Note_on_c, 12, 78, 92
31, 866379, Note_on_c, 12, 78, 0
31, 866400, Note_on_c, 12, 79, 92
31, 866499, Note_on_c, 12, 79, 0
31, 866520, Note_on_c, 12, 69, 92
31, 866619, Note_on_c, 12, 69, 0
31, 866640, Note_on_c, 12, 71, 92
31, 866739, Note_on_c, 12, 71, 0
31, 866760, Note_on_c, 12, 73, 92
31, 866859, Note_on_c, 12, 73, 0
31, 866880, Note_on_c, 12, 74, 92
31, 866979, Note_on_c, 12, 74, 0
31, 867000, Note_on_c, 12, 76, 92
31, 867099, Note_on_c, 12, 76, 0
31, 867120, Note_on_c, 12, 78, 92
31, 867219, Note_on_c, 12, 78, 0
31, 867240, Note_on_c, 12, 79, 92
31, 867339, Note_on_c, 12, 79, 0
31, 867360, Note_on_c, 12, 81, 92
31, 867459, Note_on_c, 12, 81, 0
31, 867480, Note_on_c, 12, 62, 92
31, 867579, Note_on_c, 12, 62, 0
31, 867600, Note_on_c, 12, 76, 92
31, 867699, Note_on_c, 12, 76, 0
31, 867720, Note_on_c, 12, 78, 92
31, 867819, Note_on_c, 12, 78, 0
31, 867840, Note_on_c, 12, 81, 92
31, 867939, Note_on_c, 12, 81, 0
31, 867960, Note_on_c, 12, 73, 92
31, 868059, Note_on_c, 12, 73, 0
31, 868080, Note_on_c, 12, 74, 92
31, 868179, Note_on_c, 12, 74, 0
31, 868200, Note_on_c, 12, 76, 92
31, 868299, Note_on_c, 12, 76, 0
31, 868320, Note_on_c, 12, 81, 92
31, 868419, Note_on_c, 12, 81, 0
31, 868440, Note_on_c, 12, 74, 92
31, 868539, Note_on_c, 12, 74, 0
31, 868560, Note_on_c, 12, 76, 92
31, 868659, Note_on_c, 12, 76, 0
31, 868680, Note_on_c, 12, 78, 92
31, 868779, Note_on_c, 12, 78, 0
31, 868800, Note_on_c, 12, 81, 92
31, 868899, Note_on_c, 12, 81, 0
31, 868920, Note_on_c, 12, 75, 92
31, 869019, Note_on_c, 12, 75, 0
31, 869040, Note_on_c, 12, 76, 92
31, 869139, Note_on_c, 12, 76, 0
31, 869160, Note_on_c, 12, 78, 92
31, 869259, Note_on_c, 12, 78, 0
31, 869280, Note_on_c, 12, 79, 92
31, 869379, Note_on_c, 12, 79, 0
31, 869400, Note_on_c, 12, 69, 92
31, 869499, Note_on_c, 12, 69, 0
31, 869520, Note_on_c, 12, 71, 92
31, 869619, Note_on_c, 12, 71, 0
31, 869640, Note_on_c, 12, 73, 92
31, 869739, Note_on_c, 12, 73, 0
31, 869760, Note_on_c, 12, 74, 92
31, 869859, Note_on_c, 12, 74, 0
31, 869880, Note_on_c, 12, 76, 92
31, 869979, Note_on_c, 12, 76, 0
31, 870000, Note_on_c, 12, 78, 92
31, 870099, Note_on_c, 12, 78, 0
31, 870120, Note_on_c, 12, 79, 92
31, 870219, Note_on_c, 12, 79, 0
31, 870240, Note_on_c, 12, 76, 92
31, 870240, Note_on_c, 12, 79, 92
31, 870339, Note_on_c, 12, 76, 0
31, 870339, Note_on_c, 12, 79, 0
31, 870360, Note_on_c, 12, 76, 92
31, 870360, Note_on_c, 12, 79, 92
31, 870459, Note_on_c, 12, 76, 0
31, 870459, Note_on_c, 12, 79, 0
31, 870480, Note_on_c, 12, 76, 92
31, 870480, Note_on_c, 12, 79, 92
31, 870579, Note_on_c, 12, 76, 0
31, 870579, Note_on_c, 12, 79, 0
31, 870600, Note_on_c, 12, 79, 92
31, 870600, Note_on_c, 12, 76, 92
31, 870699, Note_on_c, 12, 79, 0
31, 870699, Note_on_c, 12, 76, 0
31, 870720, Note_on_c, 12, 79, 92
31, 870720, Note_on_c, 12, 76, 92
31, 870959, Note_on_c, 12, 79, 0
31, 870959, Note_on_c, 12, 76, 0
31, 871680, Note_on_c, 12, 85, 44
31, 871949, Note_on_c, 12, 85, 0
31, 871950, Note_on_c, 12, 83, 64
31, 871969, Note_on_c, 12, 83, 0
31, 871980, Note_on_c, 12, 81, 66
31, 871999, Note_on_c, 12, 81, 0
31, 872010, Note_on_c, 12, 79, 68
31, 872029, Note_on_c, 12, 79, 0
31, 872040, Note_on_c, 12, 78, 71
31, 872059, Note_on_c, 12, 78, 0
31, 872070, Note_on_c, 12, 76, 73
31, 872089, Note_on_c, 12, 76, 0
31, 872100, Note_on_c, 12, 74, 75
31, 872119, Note_on_c, 12, 74, 0
31, 872130, Note_on_c, 12, 73, 77
31, 872149, Note_on_c, 12, 73, 0
31, 872160, Note_on_c, 12, 74, 80
31, 872179, Note_on_c, 12, 74, 0
31, 872190, Note_on_c, 12, 73, 80
31, 872209, Note_on_c, 12, 73, 0
31, 872220, Note_on_c, 12, 71, 80
31, 872239, Note_on_c, 12, 71, 0
31, 872250, Note_on_c, 12, 69, 80
31, 872269, Note_on_c, 12, 69, 0
31, 872280, Note_on_c, 12, 67, 80
31, 872299, Note_on_c, 12, 67, 0
31, 872310, Note_on_c, 12, 66, 80
31, 872329, Note_on_c, 12, 66, 0
31, 872340, Note_on_c, 12, 64, 80
31, 872359, Note_on_c, 12, 64, 0
31, 872370, Note_on_c, 12, 62, 80
31, 872389, Note_on_c, 12, 62, 0
31, 872400, Note_on_c, 12, 79, 80
31, 872419, Note_on_c, 12, 79, 0
31, 872430, Note_on_c, 12, 78, 80
31, 872449, Note_on_c, 12, 78, 0
31, 872460, Note_on_c, 12, 76, 80
31, 872479, Note_on_c, 12, 76, 0
31, 872490, Note_on_c, 12, 74, 80
31, 872509, Note_on_c, 12, 74, 0
31, 872520, Note_on_c, 12, 73, 80
31, 872539, Note_on_c, 12, 73, 0
31, 872550, Note_on_c, 12, 71, 80
31, 872569, Note_on_c, 12, 71, 0
31, 872580, Note_on_c, 12, 69, 80
31, 872599, Note_on_c, 12, 69, 0
31, 872610, Note_on_c, 12, 67, 80
31, 872629, Note_on_c, 12, 67, 0
31, 872640, Note_on_c, 12, 76, 80
31, 872659, Note_on_c, 12, 76, 0
31, 872670, Note_on_c, 12, 74, 80
31, 872689, Note_on_c, 12, 74, 0
31, 872700, Note_on_c, 12, 73, 80
31, 872719, Note_on_c, 12, 73, 0
31, 872730, Note_on_c, 12, 71, 80
31, 872749, Note_on_c, 12, 71, 0
31, 872760, Note_on_c, 12, 69, 80
31, 872779, Note_on_c, 12, 69, 0
31, 872790, Note_on_c, 12, 67, 80
31, 872809, Note_on_c, 12, 67, 0
31, 872820, Note_on_c, 12, 66, 80
31, 872839, Note_on_c, 12, 66, 0
31, 872850, Note_on_c, 12, 76, 80
31, 872869, Note_on_c, 12, 76, 0
31, 872880, Note_on_c, 12, 76, 92
31, 872899, Note_on_c, 12, 76, 0
31, 872910, Note_on_c, 12, 74, 92
31, 872929, Note_on_c, 12, 74, 0
31, 872940, Note_on_c, 12, 76, 92
31, 872959, Note_on_c, 12, 76, 0
31, 872970, Note_on_c, 12, 78, 92
31, 872989, Note_on_c, 12, 78, 0
31, 873000, Note_on_c, 12, 79, 92
31, 873019, Note_on_c, 12, 79, 0
31, 873030, Note_on_c, 12, 78, 92
31, 873049, Note_on_c, 12, 78, 0
31, 873060, Note_on_c, 12, 79, 92
31, 873079, Note_on_c, 12, 79, 0
31, 873090, Note_on_c, 12, 76, 92
31, 873109, Note_on_c, 12, 76, 0
31, 873120, Note_on_c, 12, 78, 92
31, 873139, Note_on_c, 12, 78, 0
31, 873150, Note_on_c, 12, 76, 92
31, 873169, Note_on_c, 12, 76, 0
31, 873180, Note_on_c, 12, 78, 92
31, 873199, Note_on_c, 12, 78, 0
31, 873210, Note_on_c, 12, 79, 92
31, 873229, Note_on_c, 12, 79, 0
31, 873240, Note_on_c, 12, 81, 92
31, 873259, Note_on_c, 12, 81, 0
31, 873270, Note_on_c, 12, 79, 92
31, 873289, Note_on_c, 12, 79, 0
31, 873300, Note_on_c, 12, 81, 92
31, 873319, Note_on_c, 12, 81, 0
31, 873330, Note_on_c, 12, 78, 92
31, 873349, Note_on_c, 12, 78, 0
31, 873360, Note_on_c, 12, 76, 92
31, 873379, Note_on_c, 12, 76, 0
31, 873390, Note_on_c, 12, 78, 92
31, 873409, Note_on_c, 12, 78, 0
31, 873420, Note_on_c, 12, 79, 92
31, 873439, Note_on_c, 12, 79, 0
31, 873450, Note_on_c, 12, 73, 92
31, 873469, Note_on_c, 12, 73, 0
31, 873480, Note_on_c, 12, 74, 92
31, 873499, Note_on_c, 12, 74, 0
31, 873510, Note_on_c, 12, 73, 92
31, 873529, Note_on_c, 12, 73, 0
31, 873540, Note_on_c, 12, 74, 92
31, 873559, Note_on_c, 12, 74, 0
31, 873570, Note_on_c, 12, 76, 92
31, 873589, Note_on_c, 12, 76, 0
31, 873600, Note_on_c, 12, 78, 92
31, 873719, Note_on_c, 12, 78, 0
31, 873720, Note_on_c, 12, 74, 92
31, 873839, Note_on_c, 12, 74, 0
31, 873840, Note_on_c, 12, 76, 92
31, 873959, Note_on_c, 12, 76, 0
31, 873960, Note_on_c, 12, 78, 92
31, 874079, Note_on_c, 12, 78, 0
31, 874080, Note_on_c, 12, 78, 92
31, 874199, Note_on_c, 12, 78, 0
31, 874200, Note_on_c, 12, 76, 92
31, 874319, Note_on_c, 12, 76, 0
31, 874320, Note_on_c, 12, 74, 92
31, 874439, Note_on_c, 12, 74, 0
31, 874440, Note_on_c, 12, 73, 92
31, 874558, Program_c, 13, 48
31, 874558, Control_c, 13, 7, 104
31, 874558, Control_c, 13, 10, 24
31, 874558, Control_c, 13, 11, 127
31, 874559, Note_on_c, 12, 73, 0
31, 874560, Note_on_c, 13, 74, 92
31, 874659, Note_on_c, 13, 74, 0
31, 874680, Note_on_c, 13, 74, 92
31, 874779, Note_on_c, 13, 74, 0
31, 874800, Note_on_c, 13, 76, 92
31, 874899, Note_on_c, 13, 76, 0
31, 874920, Note_on_c, 13, 78, 92
31, 875019, Note_on_c, 13, 78, 0
31, 875040, Note_on_c, 13, 78, 92
31, 875139, Note_on_c, 13, 78, 0
31, 875160, Note_on_c, 13, 76, 92
31, 875259, Note_on_c, 13, 76, 0
31, 875280, Note_on_c, 13, 74, 92
31, 875379, Note_on_c, 13, 74, 0
31, 875400, Note_on_c, 13, 73, 92
31, 875499, Note_on_c, 13, 73, 0
31, 875520, Note_on_c, 13, 74, 92
31, 875619, Note_on_c, 13, 74, 0
31, 875640, Note_on_c, 13, 74, 92
31, 875739, Note_on_c, 13, 74, 0
31, 875760, Note_on_c, 13, 76, 92
31, 875859, Note_on_c, 13, 76, 0
31, 875880, Note_on_c, 13, 78, 92
31, 875979, Note_on_c, 13, 78, 0
31, 876000, Note_on_c, 13, 78, 92
31, 876099, Note_on_c, 13, 78, 0
31, 876120, Note_on_c, 13, 76, 92
31, 876219, Note_on_c, 13, 76, 0
31, 876240, Note_on_c, 13, 74, 92
31, 876339, Note_on_c, 13, 74, 0
31, 876360, Note_on_c, 13, 73, 92
31, 876459, Note_on_c, 13, 73, 0
31, 876480, Note_on_c, 13, 74, 92
31, 876579, Note_on_c, 13, 74, 0
31, 876600, Note_on_c, 13, 74, 92
31, 876699, Note_on_c, 13, 74, 0
31, 876720, Note_on_c, 13, 76, 92
31, 876819, Note_on_c, 13, 76, 0
31, 876840, Note_on_c, 13, 78, 92
31, 876939, Note_on_c, 13, 78, 0
31, 876960, Note_on_c, 13, 78, 92
31, 877059, Note_on_c, 13, 78, 0
31, 877080, Note_on_c, 13, 76, 92
31, 877179, Note_on_c, 13, 76, 0
31, 877200, Note_on_c, 13, 74, 92
31, 877299, Note_on_c, 13, 74, 0
31, 877320, Note_on_c, 13, 73, 92
31, 877419, Note_on_c, 13, 73, 0
31, 877440, Note_on_c, 13, 74, 92
31, 877539, Note_on_c, 13, 74, 0
31, 877560, Note_on_c, 13, 74, 92
31, 877659, Note_on_c, 13, 74, 0
31, 877680, Note_on_c, 13, 73, 92
31, 877779, Note_on_c, 13, 73, 0
31, 877800, Note_on_c, 13, 73, 92
31, 877899, Note_on_c, 13, 73, 0
31, 877920, Note_on_c, 13, 74, 92
31, 878019, Note_on_c, 13, 74, 0
31, 878040, Note_on_c, 13, 74, 92
31, 878139, Note_on_c, 13, 74, 0
31, 878160, Note_on_c, 13, 76, 92
31, 878259, Note_on_c, 13, 76, 0
31, 878280, Note_on_c, 13, 76, 92
31, 878379, Note_on_c, 13, 76, 0
31, 878400, Note_on_c, 13, 78, 92
31, 878499, Note_on_c, 13, 78, 0
31, 878520, Note_on_c, 13, 78, 92
31, 878619, Note_on_c, 13, 78, 0
31, 878640, Note_on_c, 13, 76, 92
31, 878739, Note_on_c, 13, 76, 0
31, 878760, Note_on_c, 13, 76, 92
31, 878859, Note_on_c, 13, 76, 0
31, 878880, Note_on_c, 13, 78, 92
31, 878979, Note_on_c, 13, 78, 0
31, 879000, Note_on_c, 13, 78, 92
31, 879099, Note_on_c, 13, 78, 0
31, 879120, Note_on_c, 13, 85, 92
31, 879219, Note_on_c, 13, 85, 0
31, 879240, Note_on_c, 13, 85, 92
31, 879339, Note_on_c, 13, 85, 0
31, 879360, Note_on_c, 13, 86, 92
31, 879459, Note_on_c, 13, 86, 0
31, 879480, Note_on_c, 13, 86, 92
31, 879579, Note_on_c, 13, 86, 0
31, 879600, Note_on_c, 13, 85, 92
31, 879699, Note_on_c, 13, 85, 0
31, 879720, Note_on_c, 13, 85, 92
31, 879819, Note_on_c, 13, 85, 0
31, 879840, Note_on_c, 13, 86, 92
31, 879939, Note_on_c, 13, 86, 0
31, 879960, Note_on_c, 13, 86, 92
31, 880059, Note_on_c, 13, 86, 0
31, 880080, Note_on_c, 13, 88, 92
31, 880179, Note_on_c, 13, 88, 0
31, 880200, Note_on_c, 13, 88, 92
31, 880299, Note_on_c, 13, 88, 0
31, 880320, Note_on_c, 13, 88, 92
31, 880419, Note_on_c, 13, 88, 0
31, 880440, Note_on_c, 13, 88, 92
31, 880539, Note_on_c, 13, 88, 0
31, 880560, Note_on_c, 13, 86, 92
31, 880659, Note_on_c, 13, 86, 0
31, 880680, Note_on_c, 13, 86, 92
31, 880779, Note_on_c, 13, 86, 0
31, 880800, Note_on_c, 13, 79, 92
31, 880899, Note_on_c, 13, 79, 0
31, 880920, Note_on_c, 13, 79, 92
31, 881019, Note_on_c, 13, 79, 0
31, 881040, Note_on_c, 13, 81, 92
31, 881139, Note_on_c, 13, 81, 0
31, 881160, Note_on_c, 13, 81, 92
31, 881259, Note_on_c, 13, 81, 0
31, 881280, Note_on_c, 13, 81, 92
31, 881519, Note_on_c, 13, 81, 0
31, 881520, Note_on_c, 13, 69, 80
31, 881639, Note_on_c, 13, 69, 0
31, 881760, Note_on_c, 13, 81, 80
31, 881999, Note_on_c, 13, 81, 0
31, 882000, Note_on_c, 13, 69, 80
31, 882119, Note_on_c, 13, 69, 0
31, 882240, Note_on_c, 13, 81, 80
31, 882479, Note_on_c, 13, 81, 0
31, 882480, Note_on_c, 13, 69, 80
31, 882599, Note_on_c, 13, 69, 0
31, 882720, Note_on_c, 13, 81, 80
31, 882959, Note_on_c, 13, 81, 0
31, 882960, Note_on_c, 13, 69, 80
31, 883079, Note_on_c, 13, 69, 0
31, 883200, Note_on_c, 13, 81, 80
31, 883439, Note_on_c, 13, 81, 0
31, 883440, Note_on_c, 13, 69, 80
31, 883559, Note_on_c, 13, 69, 0
31, 883680, Note_on_c, 13, 81, 80
31, 883919, Note_on_c, 13, 81, 0
31, 883920, Note_on_c, 13, 69, 80
31, 884039, Note_on_c, 13, 69, 0
31, 884160, Note_on_c, 13, 81, 80
31, 884399, Note_on_c, 13, 81, 0
31, 884400, Note_on_c, 13, 69, 80
31, 884519, Note_on_c, 13, 69, 0
31, 884640, Note_on_c, 13, 81, 80
31, 884879, Note_on_c, 13, 81, 0
31, 884880, Note_on_c, 13, 69, 80
31, 884999, Note_on_c, 13, 69, 0
31, 885120, Note_on_c, 13, 81, 92
31, 885219, Note_on_c, 13, 81, 0
31, 885240, Note_on_c, 13, 81, 92
31, 885339, Note_on_c, 13, 81, 0
31, 885360, Note_on_c, 13, 69, 92
31, 885360, Note_on_c, 13, 62, 92
31, 885459, Note_on_c, 13, 69, 0
31, 885459, Note_on_c, 13, 62, 0
31, 885480, Note_on_c, 13, 62, 92
31, 885480, Note_on_c, 13, 69, 92
31, 885579, Note_on_c, 13, 62, 0
31, 885579, Note_on_c, 13, 69, 0
31, 885600, Note_on_c, 13, 81, 92
31, 885699, Note_on_c, 13, 81, 0
31, 885720, Note_on_c, 13, 81, 92
31, 885819, Note_on_c, 13, 81, 0
31, 885840, Note_on_c, 13, 62, 92
31, 885840, Note_on_c, 13, 69, 92
31, 885939, Note_on_c, 13, 62, 0
31, 885939, Note_on_c, 13, 69, 0
31, 885960, Note_on_c, 13, 69, 92
31, 885960, Note_on_c, 13, 62, 92
31, 886059, Note_on_c, 13, 69, 0
31, 886059, Note_on_c, 13, 62, 0
31, 886080, Note_on_c, 13, 81, 92
31, 886179, Note_on_c, 13, 81, 0
31, 886200, Note_on_c, 13, 81, 92
31, 886299, Note_on_c, 13, 81, 0
31, 886320, Note_on_c, 13, 62, 92
31, 886320, Note_on_c, 13, 69, 92
31, 886419, Note_on_c, 13, 62, 0
31, 886419, Note_on_c, 13, 69, 0
31, 886440, Note_on_c, 13, 69, 92
31, 886440, Note_on_c, 13, 62, 92
31, 886539, Note_on_c, 13, 69, 0
31, 886539, Note_on_c, 13, 62, 0
31, 886560, Note_on_c, 13, 81, 92
31, 886659, Note_on_c, 13, 81, 0
31, 886680, Note_on_c, 13, 81, 92
31, 886779, Note_on_c, 13, 81, 0
31, 886800, Note_on_c, 13, 62, 92
31, 886800, Note_on_c, 13, 69, 92
31, 886899, Note_on_c, 13, 62, 0
31, 886899, Note_on_c, 13, 69, 0
31, 886920, Note_on_c, 13, 62, 92
31, 886920, Note_on_c, 13, 69, 92
31, 887019, Note_on_c, 13, 62, 0
31, 887019, Note_on_c, 13, 69, 0
31, 887040, Note_on_c, 13, 81, 92
31, 887139, Note_on_c, 13, 81, 0
31, 887160, Note_on_c, 13, 81, 92
31, 887259, Note_on_c, 13, 81, 0
31, 887280, Note_on_c, 13, 69, 92
31, 887280, Note_on_c, 13, 62, 92
31, 887379, Note_on_c, 13, 69, 0
31, 887379, Note_on_c, 13, 62, 0
31, 887400, Note_on_c, 13, 69, 92
31, 887400, Note_on_c, 13, 62, 92
31, 887499, Note_on_c, 13, 69, 0
31, 887499, Note_on_c, 13, 62, 0
31, 887520, Note_on_c, 13, 81, 92
31, 887619, Note_on_c, 13, 81, 0
31, 887640, Note_on_c, 13, 81, 92
31, 887739, Note_on_c, 13, 81, 0
31, 887760, Note_on_c, 13, 62, 92
31, 887760, Note_on_c, 13, 69, 92
31, 887859, Note_on_c, 13, 62, 0
31, 887859, Note_on_c, 13, 69, 0
31, 887880, Note_on_c, 13, 69, 92
31, 887880, Note_on_c, 13, 62, 92
31, 887979, Note_on_c, 13, 69, 0
31, 887979, Note_on_c, 13, 62, 0
31, 888000, Note_on_c, 13, 81, 92
31, 888099, Note_on_c, 13, 81, 0
31, 888120, Note_on_c, 13, 81, 92
31, 888219, Note_on_c, 13, 81, 0
31, 888240, Note_on_c, 13, 69, 92
31, 888240, Note_on_c, 13, 62, 92
31, 888339, Note_on_c, 13, 69, 0
31, 888339, Note_on_c, 13, 62, 0
31, 888360, Note_on_c, 13, 69, 92
31, 888360, Note_on_c, 13, 62, 92
31, 888459, Note_on_c, 13, 69, 0
31, 888459, Note_on_c, 13, 62, 0
31, 888480, Note_on_c, 13, 81, 92
31, 888579, Note_on_c, 13, 81, 0
31, 888600, Note_on_c, 13, 81, 92
31, 888699, Note_on_c, 13, 81, 0
31, 888720, Note_on_c, 13, 69, 92
31, 888720, Note_on_c, 13, 62, 92
31, 888819, Note_on_c, 13, 69, 0
31, 888819, Note_on_c, 13, 62, 0
31, 888840, Note_on_c, 13, 69, 92
31, 888840, Note_on_c, 13, 62, 92
31, 888939, Note_on_c, 13, 69, 0
31, 888939, Note_on_c, 13, 62, 0
31, 888960, Note_on_c, 13, 69, 92
31, 888960, Note_on_c, 13, 81, 92
31, 888960, Note_on_c, 13, 62, 92
31, 889199, Note_on_c, 13, 69, 0
31, 889199, Note_on_c, 13, 81, 0
31, 889199, Note_on_c, 13, 62, 0
31, 890880, Note_on_c, 13, 62, 92
31, 890880, Note_on_c, 13, 86, 92
31, 890880, Note_on_c, 13, 74, 92
31, 891119, Note_on_c, 13, 62, 0
31, 891119, Note_on_c, 13, 86, 0
31, 891119, Note_on_c, 13, 74, 0
31, 891840, Note_on_c, 13, 62, 92
31, 891840, Note_on_c, 13, 86, 92
31, 891840, Note_on_c, 13, 74, 92
31, 892079, Note_on_c, 13, 62, 0
31, 892079, Note_on_c, 13, 86, 0
31, 892079, Note_on_c, 13, 74, 0
31, 892800, Note_on_c, 13, 86, 92
31, 892800, Note_on_c, 13, 62, 92
31, 892800, Note_on_c, 13, 74, 92
31, 893039, Note_on_c, 13, 86, 0
31, 893039, Note_on_c, 13, 62, 0
31, 893039, Note_on_c, 13, 74, 0
31, 893039, End_track
32, 0, Start_track
32, 0, Title_t, "Viola"
32, 0, MIDI_port, 0
32, 0, Control_c, 14, 121, 0
32, 0, Program_c, 14, 48
32, 0, Control_c, 14, 7, 96
32, 0, Control_c, 14, 11, 127
32, 0, Control_c, 14, 10, 70
32, 24960, Note_on_c, 14, 54, 80
32, 24960, Note_on_c, 14, 57, 80
32, 25199, Note_on_c, 14, 54, 0
32, 25199, Note_on_c, 14, 57, 0
32, 31920, Program_c, 14, 45
32, 32160, Note_on_c, 14, 64, 40
32, 32399, Note_on_c, 14, 64, 0
32, 32880, Note_on_c, 14, 57, 40
32, 33119, Note_on_c, 14, 57, 0
32, 33600, Note_on_c, 14, 52, 40
32, 33839, Note_on_c, 14, 52, 0
32, 34320, Note_on_c, 14, 57, 40
32, 34559, Note_on_c, 14, 57, 0
32, 35040, Note_on_c, 14, 60, 40
32, 35279, Note_on_c, 14, 60, 0
32, 35760, Note_on_c, 14, 53, 40
32, 35999, Note_on_c, 14, 53, 0
32, 36480, Note_on_c, 14, 48, 40
32, 36480, Note_on_c, 14, 60, 40
32, 36719, Note_on_c, 14, 48, 0
32, 36719, Note_on_c, 14, 60, 0
32, 37200, Note_on_c, 14, 53, 40
32, 37439, Note_on_c, 14, 53, 0
32, 88320, Program_c, 14, 48
32, 88320, Control_c, 14, 11, 87
32, 88560, Note_on_c, 14, 66, 68
32, 89039, Note_on_c, 14, 66, 0
32, 89040, Note_on_c, 14, 67, 68
32, 89279, Note_on_c, 14, 67, 0
32, 89280, Note_on_c, 14, 69, 68
32, 89504, Note_on_c, 14, 69, 0
32, 89520, Note_on_c, 14, 69, 68
32, 89759, Note_on_c, 14, 69, 0
32, 89760, Note_on_c, 14, 67, 68
32, 89999, Note_on_c, 14, 67, 0
32, 90000, Note_on_c, 14, 66, 68
32, 90239, Note_on_c, 14, 66, 0
32, 90240, Note_on_c, 14, 64, 68
32, 90464, Note_on_c, 14, 64, 0
32, 90480, Note_on_c, 14, 62, 68
32, 90959, Note_on_c, 14, 62, 0
32, 90960, Note_on_c, 14, 64, 68
32, 91199, Note_on_c, 14, 64, 0
32, 91200, Note_on_c, 14, 66, 68
32, 91424, Note_on_c, 14, 66, 0
32, 91440, Note_on_c, 14, 66, 68
32, 91679, Note_on_c, 14, 66, 0
32, 91680, Note_on_c, 14, 64, 68
32, 91904, Note_on_c, 14, 64, 0
32, 91920, Note_on_c, 14, 64, 68
32, 92384, Note_on_c, 14, 64, 0
32, 92400, Note_on_c, 14, 66, 68
32, 92879, Note_on_c, 14, 66, 0
32, 92880, Note_on_c, 14, 67, 68
32, 93119, Note_on_c, 14, 67, 0
32, 93120, Note_on_c, 14, 69, 68
32, 93344, Note_on_c, 14, 69, 0
32, 93360, Note_on_c, 14, 69, 68
32, 93599, Note_on_c, 14, 69, 0
32, 93600, Note_on_c, 14, 67, 68
32, 93839, Note_on_c, 14, 67, 0
32, 93840, Note_on_c, 14, 66, 68
32, 94079, Note_on_c, 14, 66, 0
32, 94080, Note_on_c, 14, 64, 68
32, 94304, Note_on_c, 14, 64, 0
32, 94320, Note_on_c, 14, 62, 68
32, 94799, Note_on_c, 14, 62, 0
32, 94800, Note_on_c, 14, 64, 68
32, 95039, Note_on_c, 14, 64, 0
32, 95040, Note_on_c, 14, 66, 68
32, 95264, Note_on_c, 14, 66, 0
32, 95280, Note_on_c, 14, 64, 68
32, 95639, Note_on_c, 14, 64, 0
32, 95640, Note_on_c, 14, 62, 68
32, 95744, Note_on_c, 14, 62, 0
32, 95760, Note_on_c, 14, 62, 68
32, 96224, Note_on_c, 14, 62, 0
32, 96240, Note_on_c, 14, 64, 68
32, 96719, Note_on_c, 14, 64, 0
32, 96720, Note_on_c, 14, 66, 68
32, 96959, Note_on_c, 14, 66, 0
32, 96960, Note_on_c, 14, 62, 68
32, 97184, Note_on_c, 14, 62, 0
32, 97200, Note_on_c, 14, 64, 68
32, 97439, Note_on_c, 14, 64, 0
32, 97440, Note_on_c, 14, 66, 68
32, 97559, Note_on_c, 14, 66, 0
32, 97560, Note_on_c, 14, 67, 68
32, 97679, Note_on_c, 14, 67, 0
32, 97680, Note_on_c, 14, 66, 68
32, 97919, Note_on_c, 14, 66, 0
32, 97920, Note_on_c, 14, 62, 68
32, 98144, Note_on_c, 14, 62, 0
32, 98160, Note_on_c, 14, 64, 68
32, 98399, Note_on_c, 14, 64, 0
32, 98400, Note_on_c, 14, 66, 68
32, 98519, Note_on_c, 14, 66, 0
32, 98520, Note_on_c, 14, 67, 68
32, 98639, Note_on_c, 14, 67, 0
32, 98640, Note_on_c, 14, 66, 68
32, 98879, Note_on_c, 14, 66, 0
32, 98880, Note_on_c, 14, 64, 68
32, 99104, Note_on_c, 14, 64, 0
32, 99120, Note_on_c, 14, 62, 68
32, 99120, Control_c, 14, 11, 87
32, 99160, Control_c, 14, 11, 89
32, 99200, Control_c, 14, 11, 90
32, 99240, Control_c, 14, 11, 92
32, 99280, Control_c, 14, 11, 94
32, 99320, Control_c, 14, 11, 95
32, 99359, Note_on_c, 14, 62, 0
32, 99360, Note_on_c, 14, 64, 68
32, 99360, Control_c, 14, 11, 97
32, 99400, Control_c, 14, 11, 99
32, 99440, Control_c, 14, 11, 100
32, 99480, Control_c, 14, 11, 102
32, 99520, Control_c, 14, 11, 104
32, 99560, Control_c, 14, 11, 105
32, 99599, Note_on_c, 14, 64, 0
32, 99600, Note_on_c, 14, 57, 68
32, 99600, Control_c, 14, 11, 107
32, 99640, Control_c, 14, 11, 109
32, 99680, Control_c, 14, 11, 110
32, 99720, Control_c, 14, 11, 112
32, 99760, Control_c, 14, 11, 114
32, 99800, Control_c, 14, 11, 115
32, 99824, Note_on_c, 14, 57, 0
32, 99840, Control_c, 14, 11, 117
32, 99840, Note_on_c, 14, 66, 68
32, 99880, Control_c, 14, 11, 119
32, 99920, Control_c, 14, 11, 120
32, 99960, Control_c, 14, 11, 122
32, 100000, Control_c, 14, 11, 124
32, 100040, Control_c, 14, 11, 125
32, 100080, Control_c, 14, 11, 87
32, 100304, Note_on_c, 14, 66, 0
32, 100320, Note_on_c, 14, 66, 68
32, 100559, Note_on_c, 14, 66, 0
32, 100560, Note_on_c, 14, 67, 68
32, 100799, Note_on_c, 14, 67, 0
32, 100800, Note_on_c, 14, 69, 68
32, 101024, Note_on_c, 14, 69, 0
32, 101040, Note_on_c, 14, 69, 68
32, 101279, Note_on_c, 14, 69, 0
32, 101280, Note_on_c, 14, 67, 68
32, 101519, Note_on_c, 14, 67, 0
32, 101520, Note_on_c, 14, 66, 68
32, 101759, Note_on_c, 14, 66, 0
32, 101760, Note_on_c, 14, 64, 68
32, 101984, Note_on_c, 14, 64, 0
32, 102000, Note_on_c, 14, 62, 68
32, 102479, Note_on_c, 14, 62, 0
32, 102480, Note_on_c, 14, 64, 68
32, 102719, Note_on_c, 14, 64, 0
32, 102720, Note_on_c, 14, 66, 68
32, 102944, Note_on_c, 14, 66, 0
32, 102960, Note_on_c, 14, 64, 68
32, 103319, Note_on_c, 14, 64, 0
32, 103320, Note_on_c, 14, 62, 68
32, 103424, Note_on_c, 14, 62, 0
32, 103440, Note_on_c, 14, 62, 68
32, 103904, Note_on_c, 14, 62, 0
32, 103920, Note_on_c, 14, 64, 68
32, 104399, Note_on_c, 14, 64, 0
32, 104400, Note_on_c, 14, 66, 68
32, 104639, Note_on_c, 14, 66, 0
32, 104640, Note_on_c, 14, 62, 68
32, 104864, Note_on_c, 14, 62, 0
32, 104880, Note_on_c, 14, 64, 68
32, 105119, Note_on_c, 14, 64, 0
32, 105120, Note_on_c, 14, 66, 68
32, 105239, Note_on_c, 14, 66, 0
32, 105240, Note_on_c, 14, 67, 68
32, 105359, Note_on_c, 14, 67, 0
32, 105360, Note_on_c, 14, 66, 68
32, 105599, Note_on_c, 14, 66, 0
32, 105600, Note_on_c, 14, 62, 68
32, 105824, Note_on_c, 14, 62, 0
32, 105840, Note_on_c, 14, 64, 68
32, 106079, Note_on_c, 14, 64, 0
32, 106080, Note_on_c, 14, 66, 68
32, 106199, Note_on_c, 14, 66, 0
32, 106200, Note_on_c, 14, 67, 68
32, 106319, Note_on_c, 14, 67, 0
32, 106320, Note_on_c, 14, 66, 68
32, 106559, Note_on_c, 14, 66, 0
32, 106560, Note_on_c, 14, 64, 68
32, 106784, Note_on_c, 14, 64, 0
32, 106800, Control_c, 14, 11, 87
32, 106800, Note_on_c, 14, 62, 68
32, 106840, Control_c, 14, 11, 89
32, 106880, Control_c, 14, 11, 90
32, 106920, Control_c, 14, 11, 92
32, 106960, Control_c, 14, 11, 94
32, 107000, Control_c, 14, 11, 95
32, 107039, Note_on_c, 14, 62, 0
32, 107040, Control_c, 14, 11, 97
32, 107040, Note_on_c, 14, 64, 68
32, 107080, Control_c, 14, 11, 99
32, 107120, Control_c, 14, 11, 100
32, 107160, Control_c, 14, 11, 102
32, 107200, Control_c, 14, 11, 104
32, 107240, Control_c, 14, 11, 105
32, 107279, Note_on_c, 14, 64, 0
32, 107280, Control_c, 14, 11, 107
32, 107280, Note_on_c, 14, 57, 68
32, 107320, Control_c, 14, 11, 109
32, 107360, Control_c, 14, 11, 110
32, 107400, Control_c, 14, 11, 112
32, 107440, Control_c, 14, 11, 114
32, 107480, Control_c, 14, 11, 115
32, 107504, Note_on_c, 14, 57, 0
32, 107520, Control_c, 14, 11, 117
32, 107520, Note_on_c, 14, 66, 68
32, 107560, Control_c, 14, 11, 119
32, 107600, Control_c, 14, 11, 120
32, 107640, Control_c, 14, 11, 122
32, 107680, Control_c, 14, 11, 124
32, 107720, Control_c, 14, 11, 125
32, 107760, Control_c, 14, 11, 87
32, 107984, Note_on_c, 14, 66, 0
32, 108000, Note_on_c, 14, 66, 68
32, 108239, Note_on_c, 14, 66, 0
32, 108240, Note_on_c, 14, 67, 68
32, 108479, Note_on_c, 14, 67, 0
32, 108480, Note_on_c, 14, 69, 68
32, 108704, Note_on_c, 14, 69, 0
32, 108720, Note_on_c, 14, 69, 68
32, 108959, Note_on_c, 14, 69, 0
32, 108960, Note_on_c, 14, 67, 68
32, 109199, Note_on_c, 14, 67, 0
32, 109200, Note_on_c, 14, 66, 68
32, 109439, Note_on_c, 14, 66, 0
32, 109440, Note_on_c, 14, 64, 68
32, 109664, Note_on_c, 14, 64, 0
32, 109680, Note_on_c, 14, 62, 68
32, 110159, Note_on_c, 14, 62, 0
32, 110160, Note_on_c, 14, 64, 68
32, 110399, Note_on_c, 14, 64, 0
32, 110400, Note_on_c, 14, 66, 68
32, 110624, Note_on_c, 14, 66, 0
32, 110640, Note_on_c, 14, 64, 68
32, 110999, Note_on_c, 14, 64, 0
32, 111000, Note_on_c, 14, 62, 68
32, 111104, Note_on_c, 14, 62, 0
32, 111120, Note_on_c, 14, 62, 68
32, 111584, Note_on_c, 14, 62, 0
32, 111600, Note_on_c, 14, 69, 68
32, 112079, Note_on_c, 14, 69, 0
32, 112080, Note_on_c, 14, 62, 68
32, 112544, Note_on_c, 14, 62, 0
32, 112560, Note_on_c, 14, 59, 68
32, 112919, Note_on_c, 14, 59, 0
32, 112920, Note_on_c, 14, 61, 68
32, 113039, Note_on_c, 14, 61, 0
32, 113040, Note_on_c, 14, 62, 68
32, 113264, Note_on_c, 14, 62, 0
32, 113280, Note_on_c, 14, 67, 68
32, 113759, Note_on_c, 14, 67, 0
32, 113760, Note_on_c, 14, 66, 68
32, 113999, Note_on_c, 14, 66, 0
32, 114000, Note_on_c, 14, 64, 68
32, 114239, Note_on_c, 14, 64, 0
32, 114240, Note_on_c, 14, 62, 68
32, 114719, Note_on_c, 14, 62, 0
32, 114720, Note_on_c, 14, 61, 68
32, 114959, Note_on_c, 14, 61, 0
32, 114960, Note_on_c, 14, 59, 68
32, 115199, Note_on_c, 14, 59, 0
32, 115200, Note_on_c, 14, 57, 68
32, 115424, Note_on_c, 14, 57, 0
32, 115440, Note_on_c, 14, 69, 68
32, 115919, Note_on_c, 14, 69, 0
32, 115920, Note_on_c, 14, 62, 68
32, 116384, Note_on_c, 14, 62, 0
32, 116400, Note_on_c, 14, 59, 68
32, 116759, Note_on_c, 14, 59, 0
32, 116760, Note_on_c, 14, 61, 68
32, 116879, Note_on_c, 14, 61, 0
32, 116880, Note_on_c, 14, 62, 68
32, 117104, Note_on_c, 14, 62, 0
32, 117120, Note_on_c, 14, 67, 68
32, 117584, Note_on_c, 14, 67, 0
32, 117600, Note_on_c, 14, 66, 68
32, 117719, Note_on_c, 14, 66, 0
32, 117720, Note_on_c, 14, 64, 68
32, 117839, Note_on_c, 14, 64, 0
32, 117840, Note_on_c, 14, 62, 68
32, 117959, Note_on_c, 14, 62, 0
32, 117960, Note_on_c, 14, 61, 68
32, 118079, Note_on_c, 14, 61, 0
32, 118080, Note_on_c, 14, 59, 68
32, 118199, Note_on_c, 14, 59, 0
32, 118200, Note_on_c, 14, 57, 68
32, 118304, Note_on_c, 14, 57, 0
32, 118320, Note_on_c, 14, 55, 68
32, 118559, Note_on_c, 14, 55, 0
32, 118560, Note_on_c, 14, 57, 68
32, 118799, Note_on_c, 14, 57, 0
32, 118800, Note_on_c, 14, 54, 68
32, 119024, Note_on_c, 14, 54, 0
32, 119040, Note_on_c, 14, 66, 68
32, 119279, Note_on_c, 14, 66, 0
32, 119280, Note_on_c, 14, 67, 68
32, 119759, Note_on_c, 14, 67, 0
32, 119760, Note_on_c, 14, 69, 68
32, 119999, Note_on_c, 14, 69, 0
32, 120000, Note_on_c, 14, 59, 68
32, 120224, Note_on_c, 14, 59, 0
32, 120240, Note_on_c, 14, 61, 68
32, 120719, Note_on_c, 14, 61, 0
32, 120720, Note_on_c, 14, 62, 68
32, 120959, Note_on_c, 14, 62, 0
32, 120960, Note_on_c, 14, 64, 68
32, 121079, Note_on_c, 14, 64, 0
32, 121080, Note_on_c, 14, 66, 68
32, 121184, Note_on_c, 14, 66, 0
32, 121200, Note_on_c, 14, 67, 68
32, 121679, Note_on_c, 14, 67, 0
32, 121680, Note_on_c, 14, 69, 68
32, 121799, Note_on_c, 14, 69, 0
32, 121800, Note_on_c, 14, 57, 68
32, 121919, Note_on_c, 14, 57, 0
32, 121920, Note_on_c, 14, 58, 68
32, 122144, Note_on_c, 14, 58, 0
32, 122160, Control_c, 14, 11, 87
32, 122160, Note_on_c, 14, 59, 68
32, 122200, Control_c, 14, 11, 89
32, 122240, Control_c, 14, 11, 90
32, 122280, Control_c, 14, 11, 92
32, 122320, Control_c, 14, 11, 94
32, 122360, Control_c, 14, 11, 95
32, 122399, Note_on_c, 14, 59, 0
32, 122400, Note_on_c, 14, 61, 68
32, 122400, Control_c, 14, 11, 97
32, 122440, Control_c, 14, 11, 99
32, 122480, Control_c, 14, 11, 100
32, 122520, Control_c, 14, 11, 102
32, 122560, Control_c, 14, 11, 104
32, 122600, Control_c, 14, 11, 105
32, 122640, Control_c, 14, 11, 107
32, 122680, Control_c, 14, 11, 109
32, 122720, Control_c, 14, 11, 110
32, 122760, Control_c, 14, 11, 112
32, 122800, Control_c, 14, 11, 114
32, 122840, Control_c, 14, 11, 115
32, 122879, Note_on_c, 14, 61, 0
32, 122880, Control_c, 14, 11, 117
32, 122880, Note_on_c, 14, 62, 68
32, 122920, Control_c, 14, 11, 119
32, 122960, Control_c, 14, 11, 120
32, 123000, Control_c, 14, 11, 122
32, 123040, Control_c, 14, 11, 124
32, 123080, Control_c, 14, 11, 125
32, 123104, Note_on_c, 14, 62, 0
32, 123118, Control_c, 14, 11, 67
32, 123120, Note_on_c, 14, 69, 80
32, 123599, Note_on_c, 14, 69, 0
32, 123600, Note_on_c, 14, 60, 80
32, 124064, Note_on_c, 14, 60, 0
32, 124080, Note_on_c, 14, 59, 80
32, 124439, Note_on_c, 14, 59, 0
32, 124440, Note_on_c, 14, 61, 80
32, 124559, Note_on_c, 14, 61, 0
32, 124560, Note_on_c, 14, 62, 80
32, 124784, Note_on_c, 14, 62, 0
32, 124800, Note_on_c, 14, 67, 80
32, 125264, Note_on_c, 14, 67, 0
32, 125280, Note_on_c, 14, 66, 80
32, 125399, Note_on_c, 14, 66, 0
32, 125400, Note_on_c, 14, 64, 80
32, 125519, Note_on_c, 14, 64, 0
32, 125520, Note_on_c, 14, 62, 80
32, 125639, Note_on_c, 14, 62, 0
32, 125640, Note_on_c, 14, 61, 80
32, 125759, Note_on_c, 14, 61, 0
32, 125760, Note_on_c, 14, 59, 80
32, 125879, Note_on_c, 14, 59, 0
32, 125880, Note_on_c, 14, 57, 80
32, 125984, Note_on_c, 14, 57, 0
32, 126000, Note_on_c, 14, 55, 80
32, 126239, Note_on_c, 14, 55, 0
32, 126240, Note_on_c, 14, 57, 80
32, 126479, Note_on_c, 14, 57, 0
32, 126480, Note_on_c, 14, 54, 80
32, 126704, Note_on_c, 14, 54, 0
32, 126720, Note_on_c, 14, 66, 80
32, 126959, Note_on_c, 14, 66, 0
32, 126960, Control_c, 14, 11, 67
32, 126960, Note_on_c, 14, 67, 80
32, 127088, Control_c, 14, 11, 68
32, 127216, Control_c, 14, 11, 69
32, 127344, Control_c, 14, 11, 70
32, 127439, Note_on_c, 14, 67, 0
32, 127440, Note_on_c, 14, 69, 80
32, 127472, Control_c, 14, 11, 71
32, 127600, Control_c, 14, 11, 72
32, 127679, Note_on_c, 14, 69, 0
32, 127680, Note_on_c, 14, 59, 80
32, 127728, Control_c, 14, 11, 73
32, 127856, Control_c, 14, 11, 74
32, 127904, Note_on_c, 14, 59, 0
32, 127920, Note_on_c, 14, 61, 80
32, 127984, Control_c, 14, 11, 75
32, 128112, Control_c, 14, 11, 76
32, 128240, Control_c, 14, 11, 77
32, 128368, Control_c, 14, 11, 78
32, 128399, Note_on_c, 14, 61, 0
32, 128400, Note_on_c, 14, 62, 80
32, 128496, Control_c, 14, 11, 79
32, 128624, Control_c, 14, 11, 80
32, 128639, Note_on_c, 14, 62, 0
32, 128640, Note_on_c, 14, 64, 80
32, 128752, Control_c, 14, 11, 81
32, 128759, Note_on_c, 14, 64, 0
32, 128760, Note_on_c, 14, 66, 80
32, 128864, Note_on_c, 14, 66, 0
32, 128880, Note_on_c, 14, 67, 80
32, 128880, Control_c, 14, 11, 82
32, 129008, Control_c, 14, 11, 83
32, 129136, Control_c, 14, 11, 84
32, 129264, Control_c, 14, 11, 85
32, 129359, Note_on_c, 14, 67, 0
32, 129360, Note_on_c, 14, 69, 80
32, 129392, Control_c, 14, 11, 86
32, 129479, Note_on_c, 14, 69, 0
32, 129480, Note_on_c, 14, 57, 80
32, 129520, Control_c, 14, 11, 87
32, 129599, Note_on_c, 14, 57, 0
32, 129600, Note_on_c, 14, 58, 80
32, 129648, Control_c, 14, 11, 88
32, 129776, Control_c, 14, 11, 89
32, 129824, Note_on_c, 14, 58, 0
32, 129840, Note_on_c, 14, 59, 80
32, 129904, Control_c, 14, 11, 90
32, 130032, Control_c, 14, 11, 91
32, 130079, Note_on_c, 14, 59, 0
32, 130080, Note_on_c, 14, 61, 80
32, 130160, Control_c, 14, 11, 92
32, 130288, Control_c, 14, 11, 93
32, 130416, Control_c, 14, 11, 94
32, 130544, Control_c, 14, 11, 95
32, 130559, Note_on_c, 14, 61, 0
32, 130560, Note_on_c, 14, 62, 80
32, 130672, Control_c, 14, 11, 96
32, 130784, Note_on_c, 14, 62, 0
32, 130800, Note_on_c, 14, 69, 80
32, 130800, Control_c, 14, 11, 97
32, 130928, Control_c, 14, 11, 98
32, 131056, Control_c, 14, 11, 99
32, 131184, Control_c, 14, 11, 100
32, 131279, Note_on_c, 14, 69, 0
32, 131280, Note_on_c, 14, 60, 80
32, 131312, Control_c, 14, 11, 101
32, 131440, Control_c, 14, 11, 102
32, 131568, Control_c, 14, 11, 103
32, 131696, Control_c, 14, 11, 104
32, 131744, Note_on_c, 14, 60, 0
32, 131760, Note_on_c, 14, 59, 80
32, 131824, Control_c, 14, 11, 105
32, 131952, Control_c, 14, 11, 106
32, 132080, Control_c, 14, 11, 107
32, 132119, Note_on_c, 14, 59, 0
32, 132120, Note_on_c, 14, 61, 80
32, 132208, Control_c, 14, 11, 108
32, 132239, Note_on_c, 14, 61, 0
32, 132240, Note_on_c, 14, 62, 80
32, 132336, Control_c, 14, 11, 109
32, 132464, Note_on_c, 14, 62, 0
32, 132464, Control_c, 14, 11, 110
32, 132480, Note_on_c, 14, 67, 80
32, 132592, Control_c, 14, 11, 111
32, 132720, Control_c, 14, 11, 112
32, 132848, Control_c, 14, 11, 113
32, 132944, Note_on_c, 14, 67, 0
32, 132960, Note_on_c, 14, 66, 80
32, 132976, Control_c, 14, 11, 114
32, 133079, Note_on_c, 14, 66, 0
32, 133080, Note_on_c, 14, 64, 80
32, 133104, Control_c, 14, 11, 115
32, 133199, Note_on_c, 14, 64, 0
32, 133200, Note_on_c, 14, 62, 80
32, 133232, Control_c, 14, 11, 116
32, 133319, Note_on_c, 14, 62, 0
32, 133320, Note_on_c, 14, 61, 80
32, 133360, Control_c, 14, 11, 117
32, 133439, Note_on_c, 14, 61, 0
32, 133440, Note_on_c, 14, 59, 80
32, 133488, Control_c, 14, 11, 118
32, 133559, Note_on_c, 14, 59, 0
32, 133560, Note_on_c, 14, 57, 80
32, 133616, Control_c, 14, 11, 119
32, 133664, Note_on_c, 14, 57, 0
32, 133680, Note_on_c, 14, 55, 80
32, 133744, Control_c, 14, 11, 120
32, 133872, Control_c, 14, 11, 121
32, 133919, Note_on_c, 14, 55, 0
32, 133920, Note_on_c, 14, 57, 80
32, 134000, Control_c, 14, 11, 122
32, 134128, Control_c, 14, 11, 123
32, 134159, Note_on_c, 14, 57, 0
32, 134160, Note_on_c, 14, 54, 80
32, 134256, Control_c, 14, 11, 124
32, 134279, Note_on_c, 14, 54, 0
32, 134280, Note_on_c, 14, 59, 80
32, 134384, Control_c, 14, 11, 125
32, 134399, Note_on_c, 14, 59, 0
32, 134400, Note_on_c, 14, 57, 80
32, 134512, Control_c, 14, 11, 127
32, 134519, Note_on_c, 14, 57, 0
32, 134520, Note_on_c, 14, 55, 80
32, 134624, Note_on_c, 14, 55, 0
32, 134640, Note_on_c, 14, 54, 80
32, 134640, Note_on_c, 14, 62, 80
32, 134879, Note_on_c, 14, 54, 0
32, 134879, Note_on_c, 14, 62, 0
32, 135000, Note_on_c, 14, 50, 80
32, 135104, Note_on_c, 14, 50, 0
32, 135120, Note_on_c, 14, 62, 80
32, 135359, Note_on_c, 14, 62, 0
32, 135480, Note_on_c, 14, 50, 80
32, 135584, Note_on_c, 14, 50, 0
32, 135600, Note_on_c, 14, 69, 80
32, 135839, Note_on_c, 14, 69, 0
32, 135960, Note_on_c, 14, 57, 80
32, 136064, Note_on_c, 14, 57, 0
32, 136080, Note_on_c, 14, 69, 80
32, 136319, Note_on_c, 14, 69, 0
32, 136440, Note_on_c, 14, 57, 80
32, 136544, Note_on_c, 14, 57, 0
32, 136560, Note_on_c, 14, 74, 80
32, 136560, Note_on_c, 14, 57, 80
32, 136560, Note_on_c, 14, 66, 80
32, 136799, Note_on_c, 14, 74, 0
32, 136799, Note_on_c, 14, 57, 0
32, 136799, Note_on_c, 14, 66, 0
32, 137280, Note_on_c, 14, 66, 80
32, 137280, Note_on_c, 14, 57, 80
32, 137280, Note_on_c, 14, 74, 80
32, 137504, Note_on_c, 14, 66, 0
32, 137504, Note_on_c, 14, 57, 0
32, 137504, Note_on_c, 14, 74, 0
32, 137520, Note_on_c, 14, 74, 80
32, 137520, Note_on_c, 14, 57, 80
32, 137520, Note_on_c, 14, 66, 80
32, 137759, Note_on_c, 14, 74, 0
32, 137759, Note_on_c, 14, 57, 0
32, 137759, Note_on_c, 14, 66, 0
32, 138000, Note_on_c, 14, 64, 80
32, 138000, Note_on_c, 14, 57, 80
32, 138000, Note_on_c, 14, 73, 80
32, 138239, Note_on_c, 14, 64, 0
32, 138239, Note_on_c, 14, 57, 0
32, 138239, Note_on_c, 14, 73, 0
32, 138480, Note_on_c, 14, 74, 80
32, 138480, Note_on_c, 14, 62, 80
32, 138719, Note_on_c, 14, 74, 0
32, 138719, Note_on_c, 14, 62, 0
32, 138840, Note_on_c, 14, 50, 80
32, 138944, Note_on_c, 14, 50, 0
32, 138960, Note_on_c, 14, 62, 80
32, 139199, Note_on_c, 14, 62, 0
32, 139320, Note_on_c, 14, 50, 80
32, 139424, Note_on_c, 14, 50, 0
32, 139440, Note_on_c, 14, 69, 80
32, 139679, Note_on_c, 14, 69, 0
32, 139800, Note_on_c, 14, 57, 80
32, 139904, Note_on_c, 14, 57, 0
32, 139920, Note_on_c, 14, 69, 80
32, 140159, Note_on_c, 14, 69, 0
32, 140280, Note_on_c, 14, 57, 80
32, 140384, Note_on_c, 14, 57, 0
32, 140400, Note_on_c, 14, 62, 80
32, 140639, Note_on_c, 14, 62, 0
32, 141120, Note_on_c, 14, 66, 80
32, 141120, Note_on_c, 14, 57, 80
32, 141120, Note_on_c, 14, 74, 80
32, 141344, Note_on_c, 14, 66, 0
32, 141344, Note_on_c, 14, 57, 0
32, 141344, Note_on_c, 14, 74, 0
32, 141360, Note_on_c, 14, 57, 80
32, 141360, Note_on_c, 14, 64, 80
32, 141360, Note_on_c, 14, 73, 80
32, 141599, Note_on_c, 14, 57, 0
32, 141599, Note_on_c, 14, 64, 0
32, 141599, Note_on_c, 14, 73, 0
32, 141840, Note_on_c, 14, 66, 80
32, 141840, Note_on_c, 14, 57, 80
32, 141840, Note_on_c, 14, 74, 80
32, 142079, Note_on_c, 14, 66, 0
32, 142079, Note_on_c, 14, 57, 0
32, 142079, Note_on_c, 14, 74, 0
32, 142320, Note_on_c, 14, 64, 80
32, 142320, Note_on_c, 14, 57, 80
32, 142320, Note_on_c, 14, 73, 80
32, 142559, Note_on_c, 14, 64, 0
32, 142559, Note_on_c, 14, 57, 0
32, 142559, Note_on_c, 14, 73, 0
32, 142680, Note_on_c, 14, 57, 80
32, 142784, Note_on_c, 14, 57, 0
32, 142800, Note_on_c, 14, 69, 80
32, 143024, Note_on_c, 14, 69, 0
32, 143040, Note_on_c, 14, 66, 80
32, 143040, Note_on_c, 14, 74, 80
32, 143040, Note_on_c, 14, 57, 80
32, 143264, Note_on_c, 14, 66, 0
32, 143264, Note_on_c, 14, 74, 0
32, 143264, Note_on_c, 14, 57, 0
32, 143280, Note_on_c, 14, 64, 80
32, 143280, Note_on_c, 14, 73, 80
32, 143280, Note_on_c, 14, 57, 80
32, 143519, Note_on_c, 14, 64, 0
32, 143519, Note_on_c, 14, 73, 0
32, 143519, Note_on_c, 14, 57, 0
32, 143640, Note_on_c, 14, 57, 80
32, 143744, Note_on_c, 14, 57, 0
32, 143760, Note_on_c, 14, 69, 80
32, 143984, Note_on_c, 14, 69, 0
32, 144000, Note_on_c, 14, 74, 80
32, 144000, Note_on_c, 14, 66, 80
32, 144000, Note_on_c, 14, 57, 80
32, 144224, Note_on_c, 14, 74, 0
32, 144224, Note_on_c, 14, 66, 0
32, 144224, Note_on_c, 14, 57, 0
32, 144240, Note_on_c, 14, 57, 80
32, 144240, Note_on_c, 14, 73, 80
32, 144240, Note_on_c, 14, 64, 80
32, 144479, Note_on_c, 14, 57, 0
32, 144479, Note_on_c, 14, 73, 0
32, 144479, Note_on_c, 14, 64, 0
32, 144600, Note_on_c, 14, 57, 80
32, 144704, Note_on_c, 14, 57, 0
32, 144720, Note_on_c, 14, 66, 80
32, 144720, Note_on_c, 14, 61, 80
32, 144839, Note_on_c, 14, 66, 0
32, 144839, Note_on_c, 14, 61, 0
32, 144960, Note_on_c, 14, 64, 80
32, 144960, Note_on_c, 14, 61, 80
32, 145079, Note_on_c, 14, 64, 0
32, 145079, Note_on_c, 14, 61, 0
32, 145200, Note_on_c, 14, 62, 80
32, 145200, Note_on_c, 14, 59, 80
32, 145319, Note_on_c, 14, 62, 0
32, 145319, Note_on_c, 14, 59, 0
32, 145440, Note_on_c, 14, 59, 80
32, 145440, Note_on_c, 14, 52, 80
32, 145559, Note_on_c, 14, 59, 0
32, 145559, Note_on_c, 14, 52, 0
32, 145680, Note_on_c, 14, 57, 80
32, 145799, Note_on_c, 14, 57, 0
32, 145920, Note_on_c, 14, 50, 80
32, 145920, Note_on_c, 14, 66, 80
32, 145920, Note_on_c, 14, 57, 80
32, 146039, Note_on_c, 14, 50, 0
32, 146039, Note_on_c, 14, 66, 0
32, 146039, Note_on_c, 14, 57, 0
32, 146160, Note_on_c, 14, 50, 80
32, 146160, Note_on_c, 14, 57, 80
32, 146160, Note_on_c, 14, 66, 80
32, 146399, Note_on_c, 14, 50, 0
32, 146399, Note_on_c, 14, 57, 0
32, 146399, Note_on_c, 14, 66, 0
32, 146520, Note_on_c, 14, 50, 80
32, 146624, Note_on_c, 14, 50, 0
32, 146640, Note_on_c, 14, 62, 80
32, 146879, Note_on_c, 14, 62, 0
32, 147000, Note_on_c, 14, 50, 80
32, 147104, Note_on_c, 14, 50, 0
32, 147120, Note_on_c, 14, 57, 80
32, 147120, Note_on_c, 14, 69, 80
32, 147359, Note_on_c, 14, 57, 0
32, 147359, Note_on_c, 14, 69, 0
32, 147480, Note_on_c, 14, 57, 80
32, 147584, Note_on_c, 14, 57, 0
32, 147600, Note_on_c, 14, 69, 80
32, 147839, Note_on_c, 14, 69, 0
32, 147960, Note_on_c, 14, 57, 80
32, 148064, Note_on_c, 14, 57, 0
32, 148080, Note_on_c, 14, 50, 80
32, 148080, Note_on_c, 14, 62, 80
32, 148319, Note_on_c, 14, 50, 0
32, 148319, Note_on_c, 14, 62, 0
32, 148800, Note_on_c, 14, 66, 80
32, 148800, Note_on_c, 14, 57, 80
32, 148800, Note_on_c, 14, 74, 80
32, 149024, Note_on_c, 14, 66, 0
32, 149024, Note_on_c, 14, 57, 0
32, 149024, Note_on_c, 14, 74, 0
32, 149040, Note_on_c, 14, 57, 80
32, 149040, Note_on_c, 14, 73, 80
32, 149040, Note_on_c, 14, 64, 80
32, 149279, Note_on_c, 14, 57, 0
32, 149279, Note_on_c, 14, 73, 0
32, 149279, Note_on_c, 14, 64, 0
32, 149520, Note_on_c, 14, 57, 80
32, 149520, Note_on_c, 14, 66, 80
32, 149520, Note_on_c, 14, 50, 80
32, 149520, Note_on_c, 14, 74, 80
32, 149759, Note_on_c, 14, 57, 0
32, 149759, Note_on_c, 14, 66, 0
32, 149759, Note_on_c, 14, 50, 0
32, 149759, Note_on_c, 14, 74, 0
32, 150000, Note_on_c, 14, 57, 80
32, 150000, Note_on_c, 14, 73, 80
32, 150000, Note_on_c, 14, 64, 80
32, 150239, Note_on_c, 14, 57, 0
32, 150239, Note_on_c, 14, 73, 0
32, 150239, Note_on_c, 14, 64, 0
32, 150360, Note_on_c, 14, 57, 80
32, 150464, Note_on_c, 14, 57, 0
32, 150480, Note_on_c, 14, 69, 80
32, 150704, Note_on_c, 14, 69, 0
32, 150720, Note_on_c, 14, 66, 80
32, 150720, Note_on_c, 14, 57, 80
32, 150720, Note_on_c, 14, 74, 80
32, 150944, Note_on_c, 14, 66, 0
32, 150944, Note_on_c, 14, 57, 0
32, 150944, Note_on_c, 14, 74, 0
32, 150960, Note_on_c, 14, 57, 80
32, 150960, Note_on_c, 14, 64, 80
32, 150960, Note_on_c, 14, 73, 80
32, 151199, Note_on_c, 14, 57, 0
32, 151199, Note_on_c, 14, 64, 0
32, 151199, Note_on_c, 14, 73, 0
32, 151320, Note_on_c, 14, 57, 80
32, 151424, Note_on_c, 14, 57, 0
32, 151440, Note_on_c, 14, 69, 80
32, 151664, Note_on_c, 14, 69, 0
32, 151680, Note_on_c, 14, 66, 80
32, 151680, Note_on_c, 14, 74, 80
32, 151680, Note_on_c, 14, 57, 80
32, 151904, Note_on_c, 14, 66, 0
32, 151904, Note_on_c, 14, 74, 0
32, 151904, Note_on_c, 14, 57, 0
32, 151920, Note_on_c, 14, 73, 80
32, 151920, Note_on_c, 14, 57, 80
32, 151920, Note_on_c, 14, 64, 80
32, 152159, Note_on_c, 14, 73, 0
32, 152159, Note_on_c, 14, 57, 0
32, 152159, Note_on_c, 14, 64, 0
32, 152280, Note_on_c, 14, 57, 80
32, 152384, Note_on_c, 14, 57, 0
32, 152400, Note_on_c, 14, 66, 80
32, 152400, Note_on_c, 14, 61, 80
32, 152519, Note_on_c, 14, 66, 0
32, 152519, Note_on_c, 14, 61, 0
32, 152640, Note_on_c, 14, 61, 80
32, 152640, Note_on_c, 14, 64, 80
32, 152759, Note_on_c, 14, 61, 0
32, 152759, Note_on_c, 14, 64, 0
32, 152880, Note_on_c, 14, 59, 80
32, 152880, Note_on_c, 14, 62, 80
32, 152999, Note_on_c, 14, 59, 0
32, 152999, Note_on_c, 14, 62, 0
32, 153120, Note_on_c, 14, 52, 80
32, 153120, Note_on_c, 14, 59, 80
32, 153239, Note_on_c, 14, 52, 0
32, 153239, Note_on_c, 14, 59, 0
32, 153360, Note_on_c, 14, 57, 80
32, 153479, Note_on_c, 14, 57, 0
32, 153600, Note_on_c, 14, 66, 80
32, 153600, Note_on_c, 14, 57, 80
32, 153600, Note_on_c, 14, 50, 80
32, 153719, Note_on_c, 14, 66, 0
32, 153719, Note_on_c, 14, 57, 0
32, 153719, Note_on_c, 14, 50, 0
32, 153840, Note_on_c, 14, 57, 80
32, 153840, Note_on_c, 14, 66, 80
32, 153840, Note_on_c, 14, 50, 80
32, 154079, Note_on_c, 14, 57, 0
32, 154079, Note_on_c, 14, 66, 0
32, 154079, Note_on_c, 14, 50, 0
32, 154200, Note_on_c, 14, 50, 80
32, 154304, Note_on_c, 14, 50, 0
32, 154320, Note_on_c, 14, 62, 80
32, 154559, Note_on_c, 14, 62, 0
32, 154680, Note_on_c, 14, 50, 80
32, 154784, Note_on_c, 14, 50, 0
32, 154800, Note_on_c, 14, 69, 80
32, 154800, Note_on_c, 14, 57, 80
32, 155039, Note_on_c, 14, 69, 0
32, 155039, Note_on_c, 14, 57, 0
32, 155160, Note_on_c, 14, 57, 80
32, 155264, Note_on_c, 14, 57, 0
32, 155280, Note_on_c, 14, 69, 80
32, 155519, Note_on_c, 14, 69, 0
32, 155640, Note_on_c, 14, 57, 80
32, 155744, Note_on_c, 14, 57, 0
32, 155760, Note_on_c, 14, 62, 80
32, 155760, Note_on_c, 14, 50, 80
32, 155999, Note_on_c, 14, 62, 0
32, 155999, Note_on_c, 14, 50, 0
32, 156480, Note_on_c, 14, 66, 80
32, 156480, Note_on_c, 14, 74, 80
32, 156480, Note_on_c, 14, 57, 80
32, 156704, Note_on_c, 14, 66, 0
32, 156704, Note_on_c, 14, 74, 0
32, 156704, Note_on_c, 14, 57, 0
32, 156720, Note_on_c, 14, 57, 80
32, 156720, Note_on_c, 14, 64, 80
32, 156720, Note_on_c, 14, 73, 80
32, 156959, Note_on_c, 14, 57, 0
32, 156959, Note_on_c, 14, 64, 0
32, 156959, Note_on_c, 14, 73, 0
32, 157200, Note_on_c, 14, 54, 80
32, 157251, Note_on_c, 14, 54, 0
32, 157260, Note_on_c, 14, 57, 80
32, 157311, Note_on_c, 14, 57, 0
32, 157320, Note_on_c, 14, 55, 80
32, 157371, Note_on_c, 14, 55, 0
32, 157380, Note_on_c, 14, 54, 80
32, 157431, Note_on_c, 14, 54, 0
32, 157440, Note_on_c, 14, 52, 80
32, 157491, Note_on_c, 14, 52, 0
32, 157500, Note_on_c, 14, 54, 80
32, 157551, Note_on_c, 14, 54, 0
32, 157560, Note_on_c, 14, 55, 80
32, 157611, Note_on_c, 14, 55, 0
32, 157620, Note_on_c, 14, 54, 80
32, 157671, Note_on_c, 14, 54, 0
32, 157680, Note_on_c, 14, 54, 80
32, 157731, Note_on_c, 14, 54, 0
32, 157740, Note_on_c, 14, 49, 80
32, 157791, Note_on_c, 14, 49, 0
32, 157800, Note_on_c, 14, 50, 80
32, 157851, Note_on_c, 14, 50, 0
32, 157860, Note_on_c, 14, 52, 80
32, 157911, Note_on_c, 14, 52, 0
32, 157920, Note_on_c, 14, 54, 80
32, 157971, Note_on_c, 14, 54, 0
32, 157980, Note_on_c, 14, 52, 80
32, 158031, Note_on_c, 14, 52, 0
32, 158040, Note_on_c, 14, 54, 80
32, 158091, Note_on_c, 14, 54, 0
32, 158100, Note_on_c, 14, 55, 80
32, 158151, Note_on_c, 14, 55, 0
32, 158160, Note_on_c, 14, 57, 80
32, 158211, Note_on_c, 14, 57, 0
32, 158220, Note_on_c, 14, 66, 80
32, 158271, Note_on_c, 14, 66, 0
32, 158280, Note_on_c, 14, 64, 80
32, 158331, Note_on_c, 14, 64, 0
32, 158340, Note_on_c, 14, 62, 80
32, 158391, Note_on_c, 14, 62, 0
32, 158400, Note_on_c, 14, 61, 80
32, 158451, Note_on_c, 14, 61, 0
32, 158460, Note_on_c, 14, 62, 80
32, 158511, Note_on_c, 14, 62, 0
32, 158520, Note_on_c, 14, 64, 80
32, 158571, Note_on_c, 14, 64, 0
32, 158580, Note_on_c, 14, 66, 80
32, 158631, Note_on_c, 14, 66, 0
32, 158640, Note_on_c, 14, 55, 80
32, 158691, Note_on_c, 14, 55, 0
32, 158700, Note_on_c, 14, 57, 80
32, 158751, Note_on_c, 14, 57, 0
32, 158760, Note_on_c, 14, 59, 80
32, 158811, Note_on_c, 14, 59, 0
32, 158820, Note_on_c, 14, 60, 80
32, 158871, Note_on_c, 14, 60, 0
32, 158880, Note_on_c, 14, 62, 80
32, 158931, Note_on_c, 14, 62, 0
32, 158940, Note_on_c, 14, 64, 80
32, 158991, Note_on_c, 14, 64, 0
32, 159000, Note_on_c, 14, 66, 80
32, 159051, Note_on_c, 14, 66, 0
32, 159060, Note_on_c, 14, 67, 80
32, 159111, Note_on_c, 14, 67, 0
32, 159120, Note_on_c, 14, 55, 80
32, 159171, Note_on_c, 14, 55, 0
32, 159180, Note_on_c, 14, 57, 80
32, 159231, Note_on_c, 14, 57, 0
32, 159240, Note_on_c, 14, 59, 80
32, 159291, Note_on_c, 14, 59, 0
32, 159300, Note_on_c, 14, 60, 80
32, 159351, Note_on_c, 14, 60, 0
32, 159360, Note_on_c, 14, 62, 80
32, 159411, Note_on_c, 14, 62, 0
32, 159420, Note_on_c, 14, 64, 80
32, 159471, Note_on_c, 14, 64, 0
32, 159480, Note_on_c, 14, 66, 80
32, 159531, Note_on_c, 14, 66, 0
32, 159540, Note_on_c, 14, 67, 80
32, 159591, Note_on_c, 14, 67, 0
32, 159600, Note_on_c, 14, 59, 80
32, 159651, Note_on_c, 14, 59, 0
32, 159660, Note_on_c, 14, 61, 80
32, 159711, Note_on_c, 14, 61, 0
32, 159720, Note_on_c, 14, 62, 80
32, 159771, Note_on_c, 14, 62, 0
32, 159780, Note_on_c, 14, 64, 80
32, 159831, Note_on_c, 14, 64, 0
32, 159840, Note_on_c, 14, 59, 80
32, 159891, Note_on_c, 14, 59, 0
32, 159900, Note_on_c, 14, 61, 80
32, 159951, Note_on_c, 14, 61, 0
32, 159960, Note_on_c, 14, 62, 80
32, 160011, Note_on_c, 14, 62, 0
32, 160020, Note_on_c, 14, 64, 80
32, 160071, Note_on_c, 14, 64, 0
32, 160080, Note_on_c, 14, 52, 80
32, 160131, Note_on_c, 14, 52, 0
32, 160140, Note_on_c, 14, 54, 80
32, 160191, Note_on_c, 14, 54, 0
32, 160200, Note_on_c, 14, 55, 80
32, 160251, Note_on_c, 14, 55, 0
32, 160260, Note_on_c, 14, 57, 80
32, 160311, Note_on_c, 14, 57, 0
32, 160320, Note_on_c, 14, 59, 80
32, 160371, Note_on_c, 14, 59, 0
32, 160380, Note_on_c, 14, 61, 80
32, 160431, Note_on_c, 14, 61, 0
32, 160440, Note_on_c, 14, 61, 80
32, 160491, Note_on_c, 14, 61, 0
32, 160500, Note_on_c, 14, 61, 80
32, 160551, Note_on_c, 14, 61, 0
32, 160560, Note_on_c, 14, 54, 80
32, 160611, Note_on_c, 14, 54, 0
32, 160620, Note_on_c, 14, 55, 80
32, 160671, Note_on_c, 14, 55, 0
32, 160680, Note_on_c, 14, 57, 80
32, 160731, Note_on_c, 14, 57, 0
32, 160740, Note_on_c, 14, 59, 80
32, 160791, Note_on_c, 14, 59, 0
32, 160800, Note_on_c, 14, 61, 80
32, 160851, Note_on_c, 14, 61, 0
32, 160860, Note_on_c, 14, 62, 80
32, 160911, Note_on_c, 14, 62, 0
32, 160920, Note_on_c, 14, 64, 80
32, 160971, Note_on_c, 14, 64, 0
32, 160980, Note_on_c, 14, 66, 80
32, 161031, Note_on_c, 14, 66, 0
32, 161040, Note_on_c, 14, 57, 80
32, 161091, Note_on_c, 14, 57, 0
32, 161100, Note_on_c, 14, 59, 80
32, 161151, Note_on_c, 14, 59, 0
32, 161160, Note_on_c, 14, 61, 80
32, 161211, Note_on_c, 14, 61, 0
32, 161220, Note_on_c, 14, 62, 80
32, 161271, Note_on_c, 14, 62, 0
32, 161280, Note_on_c, 14, 64, 80
32, 161331, Note_on_c, 14, 64, 0
32, 161340, Note_on_c, 14, 66, 80
32, 161391, Note_on_c, 14, 66, 0
32, 161400, Note_on_c, 14, 67, 80
32, 161451, Note_on_c, 14, 67, 0
32, 161460, Note_on_c, 14, 69, 80
32, 161511, Note_on_c, 14, 69, 0
32, 161520, Note_on_c, 14, 59, 80
32, 161571, Note_on_c, 14, 59, 0
32, 161580, Note_on_c, 14, 61, 80
32, 161631, Note_on_c, 14, 61, 0
32, 161640, Note_on_c, 14, 62, 80
32, 161691, Note_on_c, 14, 62, 0
32, 161700, Note_on_c, 14, 64, 80
32, 161751, Note_on_c, 14, 64, 0
32, 161760, Note_on_c, 14, 66, 80
32, 161811, Note_on_c, 14, 66, 0
32, 161820, Note_on_c, 14, 67, 80
32, 161871, Note_on_c, 14, 67, 0
32, 161880, Note_on_c, 14, 69, 80
32, 161931, Note_on_c, 14, 69, 0
32, 161940, Note_on_c, 14, 71, 80
32, 161991, Note_on_c, 14, 71, 0
32, 162000, Note_on_c, 14, 52, 80
32, 162051, Note_on_c, 14, 52, 0
32, 162060, Note_on_c, 14, 54, 80
32, 162111, Note_on_c, 14, 54, 0
32, 162120, Note_on_c, 14, 55, 80
32, 162171, Note_on_c, 14, 55, 0
32, 162180, Note_on_c, 14, 57, 80
32, 162231, Note_on_c, 14, 57, 0
32, 162240, Note_on_c, 14, 59, 80
32, 162291, Note_on_c, 14, 59, 0
32, 162300, Note_on_c, 14, 61, 80
32, 162351, Note_on_c, 14, 61, 0
32, 162360, Note_on_c, 14, 62, 80
32, 162411, Note_on_c, 14, 62, 0
32, 162420, Note_on_c, 14, 64, 80
32, 162471, Note_on_c, 14, 64, 0
32, 162480, Note_on_c, 14, 49, 80
32, 162531, Note_on_c, 14, 49, 0
32, 162540, Note_on_c, 14, 50, 80
32, 162591, Note_on_c, 14, 50, 0
32, 162600, Note_on_c, 14, 52, 80
32, 162651, Note_on_c, 14, 52, 0
32, 162660, Note_on_c, 14, 54, 80
32, 162711, Note_on_c, 14, 54, 0
32, 162720, Note_on_c, 14, 49, 80
32, 162771, Note_on_c, 14, 49, 0
32, 162780, Note_on_c, 14, 50, 80
32, 162831, Note_on_c, 14, 50, 0
32, 162840, Note_on_c, 14, 52, 80
32, 162891, Note_on_c, 14, 52, 0
32, 162900, Note_on_c, 14, 54, 80
32, 162951, Note_on_c, 14, 54, 0
32, 162960, Note_on_c, 14, 50, 80
32, 163011, Note_on_c, 14, 50, 0
32, 163020, Note_on_c, 14, 49, 80
32, 163071, Note_on_c, 14, 49, 0
32, 163080, Note_on_c, 14, 50, 80
32, 163131, Note_on_c, 14, 50, 0
32, 163140, Note_on_c, 14, 52, 80
32, 163191, Note_on_c, 14, 52, 0
32, 163200, Note_on_c, 14, 54, 80
32, 163251, Note_on_c, 14, 54, 0
32, 163260, Note_on_c, 14, 55, 80
32, 163311, Note_on_c, 14, 55, 0
32, 163320, Note_on_c, 14, 57, 80
32, 163371, Note_on_c, 14, 57, 0
32, 163380, Note_on_c, 14, 59, 80
32, 163431, Note_on_c, 14, 59, 0
32, 163440, Note_on_c, 14, 60, 80
32, 163491, Note_on_c, 14, 60, 0
32, 163500, Note_on_c, 14, 57, 80
32, 163551, Note_on_c, 14, 57, 0
32, 163560, Note_on_c, 14, 54, 80
32, 163611, Note_on_c, 14, 54, 0
32, 163620, Note_on_c, 14, 51, 80
32, 163671, Note_on_c, 14, 51, 0
32, 163680, Note_on_c, 14, 48, 80
32, 163731, Note_on_c, 14, 48, 0
32, 163740, Note_on_c, 14, 51, 80
32, 163791, Note_on_c, 14, 51, 0
32, 163800, Note_on_c, 14, 54, 80
32, 163851, Note_on_c, 14, 54, 0
32, 163860, Note_on_c, 14, 57, 80
32, 163911, Note_on_c, 14, 57, 0
32, 163920, Note_on_c, 14, 49, 80
32, 163971, Note_on_c, 14, 49, 0
32, 163980, Note_on_c, 14, 49, 80
32, 164031, Note_on_c, 14, 49, 0
32, 164040, Note_on_c, 14, 61, 80
32, 164091, Note_on_c, 14, 61, 0
32, 164100, Note_on_c, 14, 61, 80
32, 164151, Note_on_c, 14, 61, 0
32, 164160, Note_on_c, 14, 49, 80
32, 164211, Note_on_c, 14, 49, 0
32, 164220, Note_on_c, 14, 53, 80
32, 164271, Note_on_c, 14, 53, 0
32, 164280, Note_on_c, 14, 56, 80
32, 164331, Note_on_c, 14, 56, 0
32, 164340, Note_on_c, 14, 61, 80
32, 164391, Note_on_c, 14, 61, 0
32, 164400, Note_on_c, 14, 49, 80
32, 164451, Note_on_c, 14, 49, 0
32, 164460, Note_on_c, 14, 52, 80
32, 164511, Note_on_c, 14, 52, 0
32, 164520, Note_on_c, 14, 55, 80
32, 164571, Note_on_c, 14, 55, 0
32, 164580, Note_on_c, 14, 58, 80
32, 164631, Note_on_c, 14, 58, 0
32, 164640, Note_on_c, 14, 49, 80
32, 164691, Note_on_c, 14, 49, 0
32, 164700, Note_on_c, 14, 52, 80
32, 164751, Note_on_c, 14, 52, 0
32, 164760, Note_on_c, 14, 55, 80
32, 164811, Note_on_c, 14, 55, 0
32, 164820, Note_on_c, 14, 58, 80
32, 164871, Note_on_c, 14, 58, 0
32, 164880, Note_on_c, 14, 50, 80
32, 164931, Note_on_c, 14, 50, 0
32, 164940, Note_on_c, 14, 54, 80
32, 164991, Note_on_c, 14, 54, 0
32, 165000, Note_on_c, 14, 59, 80
32, 165051, Note_on_c, 14, 59, 0
32, 165060, Note_on_c, 14, 62, 80
32, 165111, Note_on_c, 14, 62, 0
32, 165120, Note_on_c, 14, 59, 80
32, 165171, Note_on_c, 14, 59, 0
32, 165180, Note_on_c, 14, 57, 80
32, 165231, Note_on_c, 14, 57, 0
32, 165240, Note_on_c, 14, 54, 80
32, 165291, Note_on_c, 14, 54, 0
32, 165300, Note_on_c, 14, 59, 80
32, 165351, Note_on_c, 14, 59, 0
32, 165360, Note_on_c, 14, 56, 80
32, 165411, Note_on_c, 14, 56, 0
32, 165420, Note_on_c, 14, 61, 80
32, 165471, Note_on_c, 14, 61, 0
32, 165480, Note_on_c, 14, 59, 80
32, 165531, Note_on_c, 14, 59, 0
32, 165540, Note_on_c, 14, 56, 80
32, 165591, Note_on_c, 14, 56, 0
32, 165600, Note_on_c, 14, 56, 80
32, 165651, Note_on_c, 14, 56, 0
32, 165660, Note_on_c, 14, 62, 80
32, 165711, Note_on_c, 14, 62, 0
32, 165720, Note_on_c, 14, 61, 80
32, 165771, Note_on_c, 14, 61, 0
32, 165780, Note_on_c, 14, 56, 80
32, 165831, Note_on_c, 14, 56, 0
32, 165840, Note_on_c, 14, 57, 80
32, 165891, Note_on_c, 14, 57, 0
32, 165900, Note_on_c, 14, 62, 80
32, 165951, Note_on_c, 14, 62, 0
32, 165960, Note_on_c, 14, 61, 80
32, 166011, Note_on_c, 14, 61, 0
32, 166020, Note_on_c, 14, 57, 80
32, 166071, Note_on_c, 14, 57, 0
32, 166080, Note_on_c, 14, 57, 80
32, 166131, Note_on_c, 14, 57, 0
32, 166140, Note_on_c, 14, 64, 80
32, 166191, Note_on_c, 14, 64, 0
32, 166200, Note_on_c, 14, 62, 80
32, 166251, Note_on_c, 14, 62, 0
32, 166260, Note_on_c, 14, 57, 80
32, 166311, Note_on_c, 14, 57, 0
32, 166320, Note_on_c, 14, 59, 80
32, 166371, Note_on_c, 14, 59, 0
32, 166380, Note_on_c, 14, 64, 80
32, 166431, Note_on_c, 14, 64, 0
32, 166440, Note_on_c, 14, 62, 80
32, 166491, Note_on_c, 14, 62, 0
32, 166500, Note_on_c, 14, 59, 80
32, 166551, Note_on_c, 14, 59, 0
32, 166560, Note_on_c, 14, 59, 80
32, 166611, Note_on_c, 14, 59, 0
32, 166620, Note_on_c, 14, 66, 80
32, 166671, Note_on_c, 14, 66, 0
32, 166680, Note_on_c, 14, 64, 80
32, 166731, Note_on_c, 14, 64, 0
32, 166740, Note_on_c, 14, 59, 80
32, 166791, Note_on_c, 14, 59, 0
32, 166800, Note_on_c, 14, 59, 80
32, 166851, Note_on_c, 14, 59, 0
32, 166860, Note_on_c, 14, 64, 80
32, 166911, Note_on_c, 14, 64, 0
32, 166920, Note_on_c, 14, 62, 80
32, 166971, Note_on_c, 14, 62, 0
32, 166980, Note_on_c, 14, 59, 80
32, 167031, Note_on_c, 14, 59, 0
32, 167040, Note_on_c, 14, 59, 80
32, 167091, Note_on_c, 14, 59, 0
32, 167100, Note_on_c, 14, 66, 80
32, 167151, Note_on_c, 14, 66, 0
32, 167160, Note_on_c, 14, 64, 80
32, 167211, Note_on_c, 14, 64, 0
32, 167220, Note_on_c, 14, 59, 80
32, 167271, Note_on_c, 14, 59, 0
32, 167280, Note_on_c, 14, 59, 80
32, 167331, Note_on_c, 14, 59, 0
32, 167340, Note_on_c, 14, 64, 80
32, 167391, Note_on_c, 14, 64, 0
32, 167400, Note_on_c, 14, 62, 80
32, 167451, Note_on_c, 14, 62, 0
32, 167460, Note_on_c, 14, 59, 80
32, 167511, Note_on_c, 14, 59, 0
32, 167520, Note_on_c, 14, 59, 80
32, 167571, Note_on_c, 14, 59, 0
32, 167580, Note_on_c, 14, 66, 80
32, 167631, Note_on_c, 14, 66, 0
32, 167640, Note_on_c, 14, 64, 80
32, 167691, Note_on_c, 14, 64, 0
32, 167700, Note_on_c, 14, 59, 80
32, 167751, Note_on_c, 14, 59, 0
32, 167760, Note_on_c, 14, 59, 80
32, 167811, Note_on_c, 14, 59, 0
32, 167820, Note_on_c, 14, 64, 80
32, 167871, Note_on_c, 14, 64, 0
32, 167880, Note_on_c, 14, 62, 80
32, 167931, Note_on_c, 14, 62, 0
32, 167940, Note_on_c, 14, 59, 80
32, 167991, Note_on_c, 14, 59, 0
32, 168000, Note_on_c, 14, 59, 80
32, 168051, Note_on_c, 14, 59, 0
32, 168060, Note_on_c, 14, 66, 80
32, 168111, Note_on_c, 14, 66, 0
32, 168120, Note_on_c, 14, 64, 80
32, 168171, Note_on_c, 14, 64, 0
32, 168180, Note_on_c, 14, 59, 80
32, 168231, Note_on_c, 14, 59, 0
32, 168240, Note_on_c, 14, 61, 80
32, 168291, Note_on_c, 14, 61, 0
32, 168300, Note_on_c, 14, 61, 80
32, 168351, Note_on_c, 14, 61, 0
32, 168360, Note_on_c, 14, 61, 80
32, 168411, Note_on_c, 14, 61, 0
32, 168420, Note_on_c, 14, 61, 80
32, 168471, Note_on_c, 14, 61, 0
32, 168480, Note_on_c, 14, 61, 80
32, 168531, Note_on_c, 14, 61, 0
32, 168540, Note_on_c, 14, 61, 80
32, 168591, Note_on_c, 14, 61, 0
32, 168600, Note_on_c, 14, 62, 80
32, 168651, Note_on_c, 14, 62, 0
32, 168660, Note_on_c, 14, 64, 80
32, 168711, Note_on_c, 14, 64, 0
32, 168720, Note_on_c, 14, 66, 80
32, 168771, Note_on_c, 14, 66, 0
32, 168780, Note_on_c, 14, 54, 80
32, 168831, Note_on_c, 14, 54, 0
32, 168840, Note_on_c, 14, 66, 80
32, 168891, Note_on_c, 14, 66, 0
32, 168900, Note_on_c, 14, 66, 80
32, 168951, Note_on_c, 14, 66, 0
32, 168960, Note_on_c, 14, 66, 80
32, 169011, Note_on_c, 14, 66, 0
32, 169020, Note_on_c, 14, 66, 80
32, 169071, Note_on_c, 14, 66, 0
32, 169080, Note_on_c, 14, 64, 80
32, 169131, Note_on_c, 14, 64, 0
32, 169140, Note_on_c, 14, 62, 80
32, 169191, Note_on_c, 14, 62, 0
32, 169200, Note_on_c, 14, 61, 80
32, 169251, Note_on_c, 14, 61, 0
32, 169260, Note_on_c, 14, 61, 80
32, 169311, Note_on_c, 14, 61, 0
32, 169320, Note_on_c, 14, 61, 80
32, 169371, Note_on_c, 14, 61, 0
32, 169380, Note_on_c, 14, 61, 80
32, 169431, Note_on_c, 14, 61, 0
32, 169440, Note_on_c, 14, 61, 80
32, 169491, Note_on_c, 14, 61, 0
32, 169500, Note_on_c, 14, 61, 80
32, 169551, Note_on_c, 14, 61, 0
32, 169560, Note_on_c, 14, 62, 80
32, 169611, Note_on_c, 14, 62, 0
32, 169620, Note_on_c, 14, 62, 80
32, 169671, Note_on_c, 14, 62, 0
32, 169680, Note_on_c, 14, 69, 80
32, 169731, Note_on_c, 14, 69, 0
32, 169740, Note_on_c, 14, 69, 80
32, 169791, Note_on_c, 14, 69, 0
32, 169800, Note_on_c, 14, 69, 80
32, 169851, Note_on_c, 14, 69, 0
32, 169860, Note_on_c, 14, 69, 80
32, 169911, Note_on_c, 14, 69, 0
32, 169920, Note_on_c, 14, 69, 80
32, 169971, Note_on_c, 14, 69, 0
32, 169980, Note_on_c, 14, 69, 80
32, 170031, Note_on_c, 14, 69, 0
32, 170040, Note_on_c, 14, 71, 80
32, 170091, Note_on_c, 14, 71, 0
32, 170100, Note_on_c, 14, 71, 80
32, 170151, Note_on_c, 14, 71, 0
32, 170160, Note_on_c, 14, 69, 92
32, 170219, Note_on_c, 14, 69, 0
32, 170220, Note_on_c, 14, 69, 80
32, 170624, Note_on_c, 14, 69, 0
32, 170640, Note_on_c, 14, 64, 80
32, 170819, Note_on_c, 14, 64, 0
32, 170880, Note_on_c, 14, 64, 80
32, 171059, Note_on_c, 14, 64, 0
32, 171120, Note_on_c, 14, 57, 80
32, 171209, Note_on_c, 14, 57, 0
32, 171240, Note_on_c, 14, 57, 80
32, 171299, Note_on_c, 14, 57, 0
32, 171300, Note_on_c, 14, 59, 80
32, 171351, Note_on_c, 14, 59, 0
32, 171360, Note_on_c, 14, 61, 80
32, 171449, Note_on_c, 14, 61, 0
32, 171480, Note_on_c, 14, 61, 80
32, 171539, Note_on_c, 14, 61, 0
32, 171540, Note_on_c, 14, 62, 80
32, 171591, Note_on_c, 14, 62, 0
32, 171600, Note_on_c, 14, 64, 80
32, 171689, Note_on_c, 14, 64, 0
32, 171720, Note_on_c, 14, 64, 80
32, 171779, Note_on_c, 14, 64, 0
32, 171780, Note_on_c, 14, 66, 80
32, 171831, Note_on_c, 14, 66, 0
32, 171840, Note_on_c, 14, 68, 80
32, 171929, Note_on_c, 14, 68, 0
32, 171960, Note_on_c, 14, 64, 80
32, 171999, Note_on_c, 14, 64, 0
32, 172000, Note_on_c, 14, 66, 80
32, 172039, Note_on_c, 14, 66, 0
32, 172040, Note_on_c, 14, 68, 80
32, 172073, Note_on_c, 14, 68, 0
32, 172080, Note_on_c, 14, 61, 44
32, 172424, Note_on_c, 14, 61, 0
32, 172440, Note_on_c, 14, 63, 44
32, 172544, Note_on_c, 14, 63, 0
32, 172560, Note_on_c, 14, 64, 44
32, 173264, Note_on_c, 14, 64, 0
32, 173280, Note_on_c, 14, 62, 44
32, 173399, Note_on_c, 14, 62, 0
32, 173400, Note_on_c, 14, 64, 44
32, 173519, Note_on_c, 14, 64, 0
32, 173520, Note_on_c, 14, 66, 44
32, 173984, Note_on_c, 14, 66, 0
32, 174000, Note_on_c, 14, 58, 44
32, 174344, Note_on_c, 14, 58, 0
32, 174360, Note_on_c, 14, 59, 44
32, 174464, Note_on_c, 14, 59, 0
32, 174480, Note_on_c, 14, 58, 44
32, 174704, Note_on_c, 14, 58, 0
32, 174720, Note_on_c, 14, 59, 44
32, 174824, Note_on_c, 14, 59, 0
32, 174840, Note_on_c, 14, 71, 80
32, 174944, Note_on_c, 14, 71, 0
32, 174960, Note_on_c, 14, 69, 80
32, 175011, Note_on_c, 14, 69, 0
32, 175020, Note_on_c, 14, 64, 80
32, 175071, Note_on_c, 14, 64, 0
32, 175080, Note_on_c, 14, 64, 80
32, 175131, Note_on_c, 14, 64, 0
32, 175140, Note_on_c, 14, 64, 80
32, 175191, Note_on_c, 14, 64, 0
32, 175200, Note_on_c, 14, 66, 80
32, 175251, Note_on_c, 14, 66, 0
32, 175260, Note_on_c, 14, 66, 80
32, 175311, Note_on_c, 14, 66, 0
32, 175320, Note_on_c, 14, 66, 80
32, 175371, Note_on_c, 14, 66, 0
32, 175380, Note_on_c, 14, 66, 80
32, 175431, Note_on_c, 14, 66, 0
32, 175440, Note_on_c, 14, 64, 80
32, 175491, Note_on_c, 14, 64, 0
32, 175500, Note_on_c, 14, 69, 80
32, 175551, Note_on_c, 14, 69, 0
32, 175560, Note_on_c, 14, 69, 80
32, 175611, Note_on_c, 14, 69, 0
32, 175620, Note_on_c, 14, 69, 80
32, 175671, Note_on_c, 14, 69, 0
32, 175680, Note_on_c, 14, 68, 80
32, 175731, Note_on_c, 14, 68, 0
32, 175740, Note_on_c, 14, 68, 80
32, 175791, Note_on_c, 14, 68, 0
32, 175800, Note_on_c, 14, 68, 80
32, 175851, Note_on_c, 14, 68, 0
32, 175860, Note_on_c, 14, 68, 80
32, 175911, Note_on_c, 14, 68, 0
32, 175920, Note_on_c, 14, 68, 80
32, 175971, Note_on_c, 14, 68, 0
32, 175980, Note_on_c, 14, 68, 80
32, 176031, Note_on_c, 14, 68, 0
32, 176040, Note_on_c, 14, 59, 80
32, 176091, Note_on_c, 14, 59, 0
32, 176100, Note_on_c, 14, 59, 80
32, 176151, Note_on_c, 14, 59, 0
32, 176160, Note_on_c, 14, 68, 80
32, 176211, Note_on_c, 14, 68, 0
32, 176220, Note_on_c, 14, 68, 80
32, 176271, Note_on_c, 14, 68, 0
32, 176280, Note_on_c, 14, 59, 80
32, 176331, Note_on_c, 14, 59, 0
32, 176340, Note_on_c, 14, 59, 80
32, 176391, Note_on_c, 14, 59, 0
32, 176400, Note_on_c, 14, 69, 80
32, 176451, Note_on_c, 14, 69, 0
32, 176460, Note_on_c, 14, 69, 80
32, 176511, Note_on_c, 14, 69, 0
32, 176520, Note_on_c, 14, 61, 80
32, 176571, Note_on_c, 14, 61, 0
32, 176580, Note_on_c, 14, 61, 80
32, 176631, Note_on_c, 14, 61, 0
32, 176640, Note_on_c, 14, 57, 80
32, 176640, Note_on_c, 14, 64, 80
32, 176640, Note_on_c, 14, 69, 80
32, 176819, Note_on_c, 14, 57, 0
32, 176819, Note_on_c, 14, 64, 0
32, 176819, Note_on_c, 14, 69, 0
32, 177360, Note_on_c, 14, 64, 92
32, 177360, Note_on_c, 14, 61, 92
32, 177939, Note_on_c, 14, 64, 0
32, 177939, Note_on_c, 14, 61, 0
32, 177960, Note_on_c, 14, 62, 92
32, 177960, Note_on_c, 14, 65, 92
32, 178049, Note_on_c, 14, 62, 0
32, 178049, Note_on_c, 14, 65, 0
32, 178080, Note_on_c, 14, 65, 92
32, 178080, Note_on_c, 14, 62, 92
32, 178169, Note_on_c, 14, 65, 0
32, 178169, Note_on_c, 14, 62, 0
32, 178200, Note_on_c, 14, 74, 92
32, 178289, Note_on_c, 14, 74, 0
32, 178320, Note_on_c, 14, 74, 92
32, 178409, Note_on_c, 14, 74, 0
32, 178440, Note_on_c, 14, 65, 92
32, 178529, Note_on_c, 14, 65, 0
32, 178560, Note_on_c, 14, 65, 92
32, 178649, Note_on_c, 14, 65, 0
32, 178680, Note_on_c, 14, 69, 92
32, 178769, Note_on_c, 14, 69, 0
32, 178800, Note_on_c, 14, 69, 92
32, 178889, Note_on_c, 14, 69, 0
32, 178920, Note_on_c, 14, 62, 92
32, 179009, Note_on_c, 14, 62, 0
32, 179040, Note_on_c, 14, 62, 92
32, 179129, Note_on_c, 14, 62, 0
32, 179160, Note_on_c, 14, 65, 92
32, 179249, Note_on_c, 14, 65, 0
32, 179280, Note_on_c, 14, 65, 92
32, 179369, Note_on_c, 14, 65, 0
32, 179400, Note_on_c, 14, 57, 92
32, 179489, Note_on_c, 14, 57, 0
32, 179520, Note_on_c, 14, 57, 92
32, 179609, Note_on_c, 14, 57, 0
32, 179640, Note_on_c, 14, 62, 92
32, 179729, Note_on_c, 14, 62, 0
32, 179760, Note_on_c, 14, 62, 92
32, 179849, Note_on_c, 14, 62, 0
32, 179880, Note_on_c, 14, 53, 92
32, 179969, Note_on_c, 14, 53, 0
32, 180000, Note_on_c, 14, 53, 92
32, 180089, Note_on_c, 14, 53, 0
32, 180120, Note_on_c, 14, 57, 92
32, 180209, Note_on_c, 14, 57, 0
32, 180240, Note_on_c, 14, 57, 92
32, 180329, Note_on_c, 14, 57, 0
32, 180360, Note_on_c, 14, 50, 92
32, 180449, Note_on_c, 14, 50, 0
32, 180480, Note_on_c, 14, 50, 92
32, 180569, Note_on_c, 14, 50, 0
32, 180600, Note_on_c, 14, 62, 92
32, 180600, Note_on_c, 14, 50, 92
32, 180689, Note_on_c, 14, 62, 0
32, 180689, Note_on_c, 14, 50, 0
32, 180720, Note_on_c, 14, 50, 92
32, 180720, Note_on_c, 14, 62, 92
32, 180809, Note_on_c, 14, 50, 0
32, 180809, Note_on_c, 14, 62, 0
32, 180840, Note_on_c, 14, 48, 92
32, 180929, Note_on_c, 14, 48, 0
32, 180960, Note_on_c, 14, 48, 92
32, 181049, Note_on_c, 14, 48, 0
32, 181080, Note_on_c, 14, 59, 92
32, 181169, Note_on_c, 14, 59, 0
32, 181200, Note_on_c, 14, 59, 92
32, 181289, Note_on_c, 14, 59, 0
32, 181320, Note_on_c, 14, 62, 92
32, 181320, Note_on_c, 14, 58, 92
32, 181409, Note_on_c, 14, 62, 0
32, 181409, Note_on_c, 14, 58, 0
32, 181440, Note_on_c, 14, 65, 92
32, 181529, Note_on_c, 14, 65, 0
32, 181560, Note_on_c, 14, 65, 92
32, 181649, Note_on_c, 14, 65, 0
32, 181680, Note_on_c, 14, 65, 92
32, 181769, Note_on_c, 14, 65, 0
32, 181800, Note_on_c, 14, 62, 92
32, 181889, Note_on_c, 14, 62, 0
32, 181920, Note_on_c, 14, 58, 92
32, 182099, Note_on_c, 14, 58, 0
32, 182160, Note_on_c, 14, 57, 92
32, 182339, Note_on_c, 14, 57, 0
32, 186480, Note_on_c, 14, 62, 44
32, 186719, Note_on_c, 14, 62, 0
32, 186720, Note_on_c, 14, 63, 44
32, 187199, Note_on_c, 14, 63, 0
32, 187200, Note_on_c, 14, 62, 44
32, 187439, Note_on_c, 14, 62, 0
32, 187440, Note_on_c, 14, 59, 44
32, 187440, Note_on_c, 14, 62, 44
32, 188399, Note_on_c, 14, 59, 0
32, 188399, Note_on_c, 14, 62, 0
32, 188400, Note_on_c, 14, 62, 44
32, 188400, Note_on_c, 14, 59, 44
32, 189119, Note_on_c, 14, 62, 0
32, 189119, Note_on_c, 14, 59, 0
32, 189120, Note_on_c, 14, 59, 44
32, 189120, Note_on_c, 14, 62, 44
32, 189839, Note_on_c, 14, 59, 0
32, 189839, Note_on_c, 14, 62, 0
32, 189840, Note_on_c, 14, 62, 44
32, 189840, Note_on_c, 14, 59, 44
32, 190559, Note_on_c, 14, 62, 0
32, 190559, Note_on_c, 14, 59, 0
32, 190560, Note_on_c, 14, 62, 44
32, 190560, Note_on_c, 14, 59, 44
32, 191279, Note_on_c, 14, 62, 0
32, 191279, Note_on_c, 14, 59, 0
32, 191280, Note_on_c, 14, 59, 44
32, 191280, Note_on_c, 14, 62, 44
32, 191999, Note_on_c, 14, 59, 0
32, 191999, Note_on_c, 14, 62, 0
32, 192480, Note_on_c, 14, 69, 80
32, 192480, Note_on_c, 14, 64, 80
32, 192659, Note_on_c, 14, 69, 0
32, 192659, Note_on_c, 14, 64, 0
32, 192720, Note_on_c, 14, 66, 80
32, 192720, Note_on_c, 14, 69, 80
32, 192824, Note_on_c, 14, 66, 0
32, 192824, Note_on_c, 14, 69, 0
32, 192840, Note_on_c, 14, 69, 80
32, 192840, Note_on_c, 14, 66, 80
32, 192944, Note_on_c, 14, 69, 0
32, 192944, Note_on_c, 14, 66, 0
32, 192960, Note_on_c, 14, 69, 80
32, 192960, Note_on_c, 14, 66, 80
32, 193199, Note_on_c, 14, 69, 0
32, 193199, Note_on_c, 14, 66, 0
32, 195840, Note_on_c, 14, 55, 44
32, 195959, Note_on_c, 14, 55, 0
32, 196080, Note_on_c, 14, 67, 80
32, 196199, Note_on_c, 14, 67, 0
32, 197520, Note_on_c, 14, 69, 80
32, 197520, Note_on_c, 14, 61, 80
32, 197520, Note_on_c, 14, 64, 80
32, 197699, Note_on_c, 14, 69, 0
32, 197699, Note_on_c, 14, 61, 0
32, 197699, Note_on_c, 14, 64, 0
32, 198720, Program_c, 14, 45
32, 199200, Note_on_c, 14, 57, 56
32, 199439, Note_on_c, 14, 57, 0
32, 199440, Note_on_c, 14, 57, 56
32, 199679, Note_on_c, 14, 57, 0
32, 201120, Note_on_c, 14, 57, 56
32, 201359, Note_on_c, 14, 57, 0
32, 201360, Note_on_c, 14, 57, 56
32, 201599, Note_on_c, 14, 57, 0
32, 201600, Note_on_c, 14, 54, 40
32, 201839, Note_on_c, 14, 54, 0
32, 201840, Note_on_c, 14, 54, 40
32, 202079, Note_on_c, 14, 54, 0
32, 202080, Note_on_c, 14, 55, 40
32, 202319, Note_on_c, 14, 55, 0
32, 202320, Note_on_c, 14, 57, 40
32, 202559, Note_on_c, 14, 57, 0
32, 202560, Note_on_c, 14, 57, 40
32, 202799, Note_on_c, 14, 57, 0
32, 202800, Note_on_c, 14, 55, 40
32, 203039, Note_on_c, 14, 55, 0
32, 203040, Note_on_c, 14, 54, 40
32, 203279, Note_on_c, 14, 54, 0
32, 203280, Note_on_c, 14, 52, 40
32, 203519, Note_on_c, 14, 52, 0
32, 203520, Note_on_c, 14, 50, 40
32, 203759, Note_on_c, 14, 50, 0
32, 203760, Note_on_c, 14, 50, 40
32, 203999, Note_on_c, 14, 50, 0
32, 204000, Note_on_c, 14, 52, 40
32, 204239, Note_on_c, 14, 52, 0
32, 204240, Note_on_c, 14, 54, 40
32, 204479, Note_on_c, 14, 54, 0
32, 204480, Note_on_c, 14, 54, 40
32, 204719, Note_on_c, 14, 54, 0
32, 204960, Note_on_c, 14, 52, 40
32, 205199, Note_on_c, 14, 52, 0
32, 205440, Note_on_c, 14, 54, 40
32, 205679, Note_on_c, 14, 54, 0
32, 205680, Note_on_c, 14, 54, 40
32, 205919, Note_on_c, 14, 54, 0
32, 205920, Note_on_c, 14, 55, 40
32, 206159, Note_on_c, 14, 55, 0
32, 206160, Note_on_c, 14, 57, 40
32, 206399, Note_on_c, 14, 57, 0
32, 206400, Note_on_c, 14, 57, 40
32, 206639, Note_on_c, 14, 57, 0
32, 206640, Note_on_c, 14, 55, 40
32, 206879, Note_on_c, 14, 55, 0
32, 206880, Note_on_c, 14, 54, 40
32, 207119, Note_on_c, 14, 54, 0
32, 207120, Note_on_c, 14, 52, 40
32, 207359, Note_on_c, 14, 52, 0
32, 207360, Note_on_c, 14, 50, 40
32, 207599, Note_on_c, 14, 50, 0
32, 207600, Note_on_c, 14, 50, 40
32, 207839, Note_on_c, 14, 50, 0
32, 207840, Note_on_c, 14, 52, 40
32, 208079, Note_on_c, 14, 52, 0
32, 208080, Note_on_c, 14, 54, 40
32, 208319, Note_on_c, 14, 54, 0
32, 208320, Note_on_c, 14, 52, 40
32, 208559, Note_on_c, 14, 52, 0
32, 208800, Note_on_c, 14, 50, 40
32, 209039, Note_on_c, 14, 50, 0
32, 209280, Note_on_c, 14, 52, 40
32, 209519, Note_on_c, 14, 52, 0
32, 209520, Note_on_c, 14, 52, 40
32, 209759, Note_on_c, 14, 52, 0
32, 209760, Note_on_c, 14, 54, 40
32, 209999, Note_on_c, 14, 54, 0
32, 210000, Note_on_c, 14, 50, 40
32, 210239, Note_on_c, 14, 50, 0
32, 210240, Note_on_c, 14, 52, 40
32, 210479, Note_on_c, 14, 52, 0
32, 210480, Note_on_c, 14, 54, 40
32, 210599, Note_on_c, 14, 54, 0
32, 210600, Note_on_c, 14, 55, 40
32, 210719, Note_on_c, 14, 55, 0
32, 210720, Note_on_c, 14, 54, 40
32, 210959, Note_on_c, 14, 54, 0
32, 210960, Note_on_c, 14, 50, 40
32, 211199, Note_on_c, 14, 50, 0
32, 211200, Note_on_c, 14, 52, 40
32, 211439, Note_on_c, 14, 52, 0
32, 211440, Note_on_c, 14, 54, 40
32, 211559, Note_on_c, 14, 54, 0
32, 211560, Note_on_c, 14, 55, 40
32, 211679, Note_on_c, 14, 55, 0
32, 211680, Note_on_c, 14, 54, 40
32, 211919, Note_on_c, 14, 54, 0
32, 211920, Note_on_c, 14, 52, 40
32, 212159, Note_on_c, 14, 52, 0
32, 212160, Note_on_c, 14, 50, 40
32, 212399, Note_on_c, 14, 50, 0
32, 212400, Note_on_c, 14, 52, 42
32, 212639, Note_on_c, 14, 52, 0
32, 212640, Note_on_c, 14, 57, 44
32, 212879, Note_on_c, 14, 57, 0
32, 212880, Note_on_c, 14, 54, 46
32, 213119, Note_on_c, 14, 54, 0
32, 213120, Note_on_c, 14, 54, 48
32, 213359, Note_on_c, 14, 54, 0
32, 213360, Note_on_c, 14, 54, 50
32, 213599, Note_on_c, 14, 54, 0
32, 213600, Note_on_c, 14, 55, 52
32, 213839, Note_on_c, 14, 55, 0
32, 213840, Note_on_c, 14, 57, 54
32, 214079, Note_on_c, 14, 57, 0
32, 214080, Note_on_c, 14, 57, 56
32, 214319, Note_on_c, 14, 57, 0
32, 214320, Note_on_c, 14, 55, 58
32, 214559, Note_on_c, 14, 55, 0
32, 214560, Note_on_c, 14, 54, 60
32, 214799, Note_on_c, 14, 54, 0
32, 214800, Note_on_c, 14, 52, 62
32, 215039, Note_on_c, 14, 52, 0
32, 215040, Note_on_c, 14, 50, 40
32, 215279, Note_on_c, 14, 50, 0
32, 215280, Note_on_c, 14, 50, 40
32, 215519, Note_on_c, 14, 50, 0
32, 215520, Note_on_c, 14, 52, 40
32, 215759, Note_on_c, 14, 52, 0
32, 215760, Note_on_c, 14, 54, 40
32, 215999, Note_on_c, 14, 54, 0
32, 216000, Note_on_c, 14, 52, 40
32, 216239, Note_on_c, 14, 52, 0
32, 216480, Note_on_c, 14, 50, 40
32, 216719, Note_on_c, 14, 50, 0
32, 216958, Program_c, 14, 48
32, 216960, Note_on_c, 14, 52, 80
32, 217184, Note_on_c, 14, 52, 0
32, 217200, Note_on_c, 14, 52, 80
32, 217424, Note_on_c, 14, 52, 0
32, 217440, Note_on_c, 14, 54, 80
32, 217664, Note_on_c, 14, 54, 0
32, 217680, Note_on_c, 14, 50, 80
32, 217904, Note_on_c, 14, 50, 0
32, 217920, Note_on_c, 14, 52, 80
32, 218159, Note_on_c, 14, 52, 0
32, 218160, Note_on_c, 14, 54, 80
32, 218279, Note_on_c, 14, 54, 0
32, 218280, Note_on_c, 14, 55, 80
32, 218384, Note_on_c, 14, 55, 0
32, 218400, Note_on_c, 14, 54, 80
32, 218624, Note_on_c, 14, 54, 0
32, 218640, Note_on_c, 14, 50, 80
32, 218864, Note_on_c, 14, 50, 0
32, 218880, Note_on_c, 14, 52, 80
32, 219119, Note_on_c, 14, 52, 0
32, 219120, Note_on_c, 14, 54, 80
32, 219239, Note_on_c, 14, 54, 0
32, 219240, Note_on_c, 14, 55, 80
32, 219344, Note_on_c, 14, 55, 0
32, 219360, Note_on_c, 14, 54, 80
32, 219584, Note_on_c, 14, 54, 0
32, 219600, Note_on_c, 14, 52, 80
32, 219824, Note_on_c, 14, 52, 0
32, 219840, Note_on_c, 14, 50, 80
32, 220064, Note_on_c, 14, 50, 0
32, 220080, Note_on_c, 14, 52, 80
32, 220304, Note_on_c, 14, 52, 0
32, 220320, Note_on_c, 14, 57, 80
32, 220544, Note_on_c, 14, 57, 0
32, 220560, Note_on_c, 14, 54, 80
32, 221024, Note_on_c, 14, 54, 0
32, 221040, Note_on_c, 14, 54, 80
32, 221264, Note_on_c, 14, 54, 0
32, 221280, Note_on_c, 14, 55, 80
32, 221504, Note_on_c, 14, 55, 0
32, 221520, Note_on_c, 14, 57, 80
32, 221744, Note_on_c, 14, 57, 0
32, 221760, Note_on_c, 14, 57, 80
32, 221984, Note_on_c, 14, 57, 0
32, 222000, Note_on_c, 14, 55, 80
32, 222224, Note_on_c, 14, 55, 0
32, 222240, Note_on_c, 14, 54, 80
32, 222479, Note_on_c, 14, 54, 0
32, 222480, Note_on_c, 14, 55, 80
32, 222599, Note_on_c, 14, 55, 0
32, 222600, Note_on_c, 14, 52, 80
32, 222704, Note_on_c, 14, 52, 0
32, 222720, Note_on_c, 14, 50, 80
32, 222944, Note_on_c, 14, 50, 0
32, 222960, Note_on_c, 14, 50, 80
32, 223184, Note_on_c, 14, 50, 0
32, 223200, Note_on_c, 14, 52, 80
32, 223424, Note_on_c, 14, 52, 0
32, 223440, Note_on_c, 14, 54, 80
32, 223664, Note_on_c, 14, 54, 0
32, 223680, Note_on_c, 14, 52, 80
32, 224039, Note_on_c, 14, 52, 0
32, 224040, Note_on_c, 14, 50, 80
32, 224144, Note_on_c, 14, 50, 0
32, 224160, Note_on_c, 14, 50, 80
32, 224384, Note_on_c, 14, 50, 0
32, 224400, Note_on_c, 14, 57, 80
32, 224624, Note_on_c, 14, 57, 0
32, 224640, Note_on_c, 14, 55, 80
32, 224999, Note_on_c, 14, 55, 0
32, 225000, Note_on_c, 14, 54, 80
32, 225104, Note_on_c, 14, 54, 0
32, 225120, Note_on_c, 14, 54, 80
32, 225344, Note_on_c, 14, 54, 0
32, 225360, Note_on_c, 14, 62, 80
32, 225584, Note_on_c, 14, 62, 0
32, 225600, Note_on_c, 14, 60, 80
32, 225959, Note_on_c, 14, 60, 0
32, 225960, Note_on_c, 14, 59, 80
32, 226064, Note_on_c, 14, 59, 0
32, 226080, Note_on_c, 14, 59, 80
32, 226304, Note_on_c, 14, 59, 0
32, 226320, Note_on_c, 14, 67, 80
32, 226439, Note_on_c, 14, 67, 0
32, 226440, Note_on_c, 14, 64, 80
32, 226544, Note_on_c, 14, 64, 0
32, 226560, Note_on_c, 14, 62, 80
32, 226679, Note_on_c, 14, 62, 0
32, 226680, Note_on_c, 14, 61, 80
32, 226799, Note_on_c, 14, 61, 0
32, 226800, Note_on_c, 14, 64, 80
32, 226919, Note_on_c, 14, 64, 0
32, 226920, Note_on_c, 14, 61, 80
32, 227024, Note_on_c, 14, 61, 0
32, 227040, Note_on_c, 14, 59, 80
32, 227159, Note_on_c, 14, 59, 0
32, 227160, Note_on_c, 14, 57, 80
32, 227279, Note_on_c, 14, 57, 0
32, 227280, Note_on_c, 14, 59, 80
32, 227399, Note_on_c, 14, 59, 0
32, 227400, Note_on_c, 14, 61, 80
32, 227504, Note_on_c, 14, 61, 0
32, 227520, Note_on_c, 14, 62, 80
32, 227639, Note_on_c, 14, 62, 0
32, 227640, Note_on_c, 14, 66, 80
32, 227759, Note_on_c, 14, 66, 0
32, 227760, Note_on_c, 14, 64, 80
32, 227879, Note_on_c, 14, 64, 0
32, 227880, Note_on_c, 14, 61, 80
32, 227984, Note_on_c, 14, 61, 0
32, 228000, Note_on_c, 14, 62, 80
32, 228239, Note_on_c, 14, 62, 0
32, 243600, Note_on_c, 14, 57, 80
32, 243944, Note_on_c, 14, 57, 0
32, 243960, Note_on_c, 14, 52, 80
32, 244079, Note_on_c, 14, 52, 0
32, 244080, Note_on_c, 14, 61, 80
32, 244184, Note_on_c, 14, 61, 0
32, 244200, Note_on_c, 14, 57, 80
32, 244319, Note_on_c, 14, 57, 0
32, 244320, Note_on_c, 14, 62, 80
32, 244439, Note_on_c, 14, 62, 0
32, 244800, Note_on_c, 14, 57, 80
32, 244904, Note_on_c, 14, 57, 0
32, 244920, Note_on_c, 14, 57, 80
32, 245039, Note_on_c, 14, 57, 0
32, 245040, Note_on_c, 14, 62, 80
32, 245144, Note_on_c, 14, 62, 0
32, 245160, Note_on_c, 14, 57, 80
32, 245279, Note_on_c, 14, 57, 0
32, 245280, Note_on_c, 14, 62, 80
32, 245399, Note_on_c, 14, 62, 0
32, 245760, Note_on_c, 14, 49, 80
32, 245864, Note_on_c, 14, 49, 0
32, 245880, Note_on_c, 14, 49, 80
32, 245999, Note_on_c, 14, 49, 0
32, 246000, Note_on_c, 14, 57, 80
32, 246119, Note_on_c, 14, 57, 0
32, 246360, Note_on_c, 14, 58, 80
32, 246479, Note_on_c, 14, 58, 0
32, 246480, Note_on_c, 14, 66, 80
32, 246719, Note_on_c, 14, 66, 0
32, 246840, Note_on_c, 14, 62, 80
32, 246840, Note_on_c, 14, 59, 80
32, 246959, Note_on_c, 14, 62, 0
32, 246959, Note_on_c, 14, 59, 0
32, 246960, Note_on_c, 14, 68, 80
32, 247079, Note_on_c, 14, 68, 0
32, 247320, Note_on_c, 14, 57, 80
32, 247439, Note_on_c, 14, 57, 0
32, 247440, Note_on_c, 14, 69, 80
32, 247544, Note_on_c, 14, 69, 0
32, 247560, Note_on_c, 14, 57, 80
32, 247679, Note_on_c, 14, 57, 0
32, 247680, Note_on_c, 14, 50, 80
32, 247919, Note_on_c, 14, 50, 0
32, 248040, Note_on_c, 14, 50, 84
32, 248159, Note_on_c, 14, 50, 0
32, 248160, Note_on_c, 14, 62, 86
32, 248399, Note_on_c, 14, 62, 0
32, 248520, Note_on_c, 14, 50, 90
32, 248639, Note_on_c, 14, 50, 0
32, 248640, Note_on_c, 14, 57, 92
32, 248879, Note_on_c, 14, 57, 0
32, 249000, Note_on_c, 14, 57, 84
32, 249119, Note_on_c, 14, 57, 0
32, 249120, Note_on_c, 14, 69, 76
32, 249359, Note_on_c, 14, 69, 0
32, 249480, Note_on_c, 14, 57, 52
32, 249599, Note_on_c, 14, 57, 0
32, 249600, Note_on_c, 14, 69, 44
32, 249839, Note_on_c, 14, 69, 0
32, 249960, Note_on_c, 14, 62, 44
32, 250079, Note_on_c, 14, 62, 0
32, 250080, Note_on_c, 14, 57, 44
32, 250319, Note_on_c, 14, 57, 0
32, 250440, Note_on_c, 14, 66, 44
32, 250559, Note_on_c, 14, 66, 0
32, 250560, Note_on_c, 14, 57, 44
32, 250799, Note_on_c, 14, 57, 0
32, 250920, Note_on_c, 14, 55, 44
32, 251039, Note_on_c, 14, 55, 0
32, 251040, Note_on_c, 14, 54, 44
32, 251279, Note_on_c, 14, 54, 0
32, 251400, Note_on_c, 14, 66, 44
32, 251519, Note_on_c, 14, 66, 0
32, 251520, Note_on_c, 14, 54, 44
32, 251759, Note_on_c, 14, 54, 0
32, 251880, Note_on_c, 14, 66, 44
32, 251999, Note_on_c, 14, 66, 0
32, 252000, Note_on_c, 14, 54, 44
32, 252239, Note_on_c, 14, 54, 0
32, 252360, Note_on_c, 14, 62, 44
32, 252479, Note_on_c, 14, 62, 0
32, 252480, Note_on_c, 14, 55, 44
32, 252719, Note_on_c, 14, 55, 0
32, 252840, Note_on_c, 14, 67, 44
32, 252959, Note_on_c, 14, 67, 0
32, 252960, Note_on_c, 14, 55, 44
32, 253199, Note_on_c, 14, 55, 0
32, 253320, Note_on_c, 14, 67, 44
32, 253439, Note_on_c, 14, 67, 0
32, 253440, Note_on_c, 14, 69, 44
32, 253679, Note_on_c, 14, 69, 0
32, 253800, Note_on_c, 14, 57, 44
32, 253919, Note_on_c, 14, 57, 0
32, 253920, Note_on_c, 14, 69, 44
32, 254159, Note_on_c, 14, 69, 0
32, 254280, Note_on_c, 14, 57, 44
32, 254399, Note_on_c, 14, 57, 0
32, 254400, Note_on_c, 14, 62, 44
32, 254519, Note_on_c, 14, 62, 0
32, 254640, Note_on_c, 14, 73, 44
32, 254640, Note_on_c, 14, 64, 44
32, 254759, Note_on_c, 14, 73, 0
32, 254759, Note_on_c, 14, 64, 0
32, 254880, Note_on_c, 14, 74, 44
32, 254880, Note_on_c, 14, 66, 44
32, 254999, Note_on_c, 14, 74, 0
32, 254999, Note_on_c, 14, 66, 0
32, 257520, Note_on_c, 14, 54, 44
32, 257549, Note_on_c, 14, 54, 0
32, 257550, Note_on_c, 14, 55, 44
32, 257579, Note_on_c, 14, 55, 0
32, 257580, Note_on_c, 14, 54, 44
32, 257609, Note_on_c, 14, 54, 0
32, 257610, Note_on_c, 14, 55, 44
32, 257639, Note_on_c, 14, 55, 0
32, 257640, Note_on_c, 14, 54, 44
32, 257669, Note_on_c, 14, 54, 0
32, 257670, Note_on_c, 14, 55, 44
32, 257699, Note_on_c, 14, 55, 0
32, 257700, Note_on_c, 14, 52, 44
32, 257729, Note_on_c, 14, 52, 0
32, 257730, Note_on_c, 14, 54, 44
32, 257759, Note_on_c, 14, 54, 0
32, 258000, Note_on_c, 14, 62, 44
32, 258029, Note_on_c, 14, 62, 0
32, 258030, Note_on_c, 14, 64, 44
32, 258059, Note_on_c, 14, 64, 0
32, 258060, Note_on_c, 14, 62, 44
32, 258089, Note_on_c, 14, 62, 0
32, 258090, Note_on_c, 14, 64, 44
32, 258119, Note_on_c, 14, 64, 0
32, 258120, Note_on_c, 14, 62, 44
32, 258149, Note_on_c, 14, 62, 0
32, 258150, Note_on_c, 14, 64, 44
32, 258179, Note_on_c, 14, 64, 0
32, 258180, Note_on_c, 14, 61, 44
32, 258209, Note_on_c, 14, 61, 0
32, 258210, Note_on_c, 14, 62, 44
32, 258239, Note_on_c, 14, 62, 0
32, 258480, Note_on_c, 14, 64, 44
32, 258509, Note_on_c, 14, 64, 0
32, 258510, Note_on_c, 14, 66, 44
32, 258539, Note_on_c, 14, 66, 0
32, 258540, Note_on_c, 14, 64, 44
32, 258569, Note_on_c, 14, 64, 0
32, 258570, Note_on_c, 14, 66, 44
32, 258599, Note_on_c, 14, 66, 0
32, 258600, Note_on_c, 14, 64, 44
32, 258629, Note_on_c, 14, 64, 0
32, 258630, Note_on_c, 14, 66, 44
32, 258659, Note_on_c, 14, 66, 0
32, 258660, Note_on_c, 14, 62, 44
32, 258689, Note_on_c, 14, 62, 0
32, 258690, Note_on_c, 14, 64, 44
32, 258719, Note_on_c, 14, 64, 0
32, 258960, Note_on_c, 14, 67, 44
32, 258989, Note_on_c, 14, 67, 0
32, 258990, Note_on_c, 14, 69, 44
32, 259019, Note_on_c, 14, 69, 0
32, 259020, Note_on_c, 14, 67, 44
32, 259049, Note_on_c, 14, 67, 0
32, 259050, Note_on_c, 14, 69, 44
32, 259079, Note_on_c, 14, 69, 0
32, 259080, Note_on_c, 14, 67, 44
32, 259109, Note_on_c, 14, 67, 0
32, 259110, Note_on_c, 14, 69, 44
32, 259139, Note_on_c, 14, 69, 0
32, 259140, Note_on_c, 14, 66, 44
32, 259169, Note_on_c, 14, 66, 0
32, 259170, Note_on_c, 14, 67, 44
32, 259199, Note_on_c, 14, 67, 0
32, 263280, Note_on_c, 14, 57, 44
32, 263309, Note_on_c, 14, 57, 0
32, 263310, Note_on_c, 14, 59, 44
32, 263339, Note_on_c, 14, 59, 0
32, 263340, Note_on_c, 14, 57, 44
32, 263369, Note_on_c, 14, 57, 0
32, 263370, Note_on_c, 14, 59, 44
32, 263399, Note_on_c, 14, 59, 0
32, 263400, Note_on_c, 14, 57, 44
32, 263429, Note_on_c, 14, 57, 0
32, 263430, Note_on_c, 14, 59, 44
32, 263459, Note_on_c, 14, 59, 0
32, 263460, Note_on_c, 14, 56, 44
32, 263489, Note_on_c, 14, 56, 0
32, 263490, Note_on_c, 14, 57, 44
32, 263519, Note_on_c, 14, 57, 0
32, 263760, Note_on_c, 14, 57, 44
32, 263789, Note_on_c, 14, 57, 0
32, 263790, Note_on_c, 14, 59, 44
32, 263819, Note_on_c, 14, 59, 0
32, 263820, Note_on_c, 14, 57, 44
32, 263849, Note_on_c, 14, 57, 0
32, 263850, Note_on_c, 14, 59, 44
32, 263879, Note_on_c, 14, 59, 0
32, 263880, Note_on_c, 14, 57, 44
32, 263909, Note_on_c, 14, 57, 0
32, 263910, Note_on_c, 14, 59, 44
32, 263939, Note_on_c, 14, 59, 0
32, 263940, Note_on_c, 14, 56, 44
32, 263969, Note_on_c, 14, 56, 0
32, 263970, Note_on_c, 14, 57, 44
32, 263999, Note_on_c, 14, 57, 0
32, 265200, Note_on_c, 14, 57, 44
32, 265229, Note_on_c, 14, 57, 0
32, 265230, Note_on_c, 14, 59, 44
32, 265259, Note_on_c, 14, 59, 0
32, 265260, Note_on_c, 14, 57, 44
32, 265289, Note_on_c, 14, 57, 0
32, 265290, Note_on_c, 14, 59, 44
32, 265319, Note_on_c, 14, 59, 0
32, 265320, Note_on_c, 14, 57, 44
32, 265349, Note_on_c, 14, 57, 0
32, 265350, Note_on_c, 14, 59, 44
32, 265379, Note_on_c, 14, 59, 0
32, 265380, Note_on_c, 14, 56, 44
32, 265409, Note_on_c, 14, 56, 0
32, 265410, Note_on_c, 14, 57, 44
32, 265439, Note_on_c, 14, 57, 0
32, 265680, Note_on_c, 14, 54, 44
32, 265709, Note_on_c, 14, 54, 0
32, 265710, Note_on_c, 14, 55, 44
32, 265739, Note_on_c, 14, 55, 0
32, 265740, Note_on_c, 14, 54, 44
32, 265769, Note_on_c, 14, 54, 0
32, 265770, Note_on_c, 14, 55, 44
32, 265799, Note_on_c, 14, 55, 0
32, 265800, Note_on_c, 14, 54, 44
32, 265829, Note_on_c, 14, 54, 0
32, 265830, Note_on_c, 14, 55, 44
32, 265859, Note_on_c, 14, 55, 0
32, 265860, Note_on_c, 14, 52, 44
32, 265889, Note_on_c, 14, 52, 0
32, 265890, Note_on_c, 14, 54, 44
32, 265919, Note_on_c, 14, 54, 0
32, 266880, Note_on_c, 14, 57, 44
32, 266909, Note_on_c, 14, 57, 0
32, 266910, Note_on_c, 14, 59, 44
32, 266939, Note_on_c, 14, 59, 0
32, 266940, Note_on_c, 14, 57, 44
32, 266969, Note_on_c, 14, 57, 0
32, 266970, Note_on_c, 14, 59, 45
32, 266999, Note_on_c, 14, 59, 0
32, 267000, Note_on_c, 14, 57, 45
32, 267029, Note_on_c, 14, 57, 0
32, 267030, Note_on_c, 14, 59, 46
32, 267059, Note_on_c, 14, 59, 0
32, 267060, Note_on_c, 14, 56, 46
32, 267089, Note_on_c, 14, 56, 0
32, 267090, Note_on_c, 14, 57, 47
32, 267119, Note_on_c, 14, 57, 0
32, 267360, Note_on_c, 14, 57, 51
32, 267389, Note_on_c, 14, 57, 0
32, 267390, Note_on_c, 14, 59, 51
32, 267419, Note_on_c, 14, 59, 0
32, 267420, Note_on_c, 14, 57, 52
32, 267449, Note_on_c, 14, 57, 0
32, 267450, Note_on_c, 14, 59, 52
32, 267479, Note_on_c, 14, 59, 0
32, 267480, Note_on_c, 14, 57, 53
32, 267509, Note_on_c, 14, 57, 0
32, 267510, Note_on_c, 14, 59, 53
32, 267539, Note_on_c, 14, 59, 0
32, 267540, Note_on_c, 14, 56, 53
32, 267569, Note_on_c, 14, 56, 0
32, 267570, Note_on_c, 14, 57, 54
32, 267599, Note_on_c, 14, 57, 0
32, 267840, Note_on_c, 14, 59, 58
32, 267869, Note_on_c, 14, 59, 0
32, 267870, Note_on_c, 14, 60, 58
32, 267899, Note_on_c, 14, 60, 0
32, 267900, Note_on_c, 14, 59, 59
32, 267929, Note_on_c, 14, 59, 0
32, 267930, Note_on_c, 14, 60, 59
32, 267959, Note_on_c, 14, 60, 0
32, 267960, Note_on_c, 14, 59, 60
32, 267989, Note_on_c, 14, 59, 0
32, 267990, Note_on_c, 14, 60, 60
32, 268019, Note_on_c, 14, 60, 0
32, 268020, Note_on_c, 14, 57, 61
32, 268049, Note_on_c, 14, 57, 0
32, 268050, Note_on_c, 14, 59, 61
32, 268079, Note_on_c, 14, 59, 0
32, 268320, Note_on_c, 14, 67, 65
32, 268349, Note_on_c, 14, 67, 0
32, 268350, Note_on_c, 14, 69, 66
32, 268379, Note_on_c, 14, 69, 0
32, 268380, Note_on_c, 14, 67, 66
32, 268409, Note_on_c, 14, 67, 0
32, 268410, Note_on_c, 14, 69, 66
32, 268439, Note_on_c, 14, 69, 0
32, 268440, Note_on_c, 14, 67, 67
32, 268469, Note_on_c, 14, 67, 0
32, 268470, Note_on_c, 14, 69, 67
32, 268499, Note_on_c, 14, 69, 0
32, 268500, Note_on_c, 14, 66, 68
32, 268529, Note_on_c, 14, 66, 0
32, 268530, Note_on_c, 14, 67, 68
32, 268559, Note_on_c, 14, 67, 0
32, 268800, Note_on_c, 14, 66, 72
32, 268829, Note_on_c, 14, 66, 0
32, 268830, Note_on_c, 14, 67, 73
32, 268859, Note_on_c, 14, 67, 0
32, 268860, Note_on_c, 14, 66, 73
32, 268889, Note_on_c, 14, 66, 0
32, 268890, Note_on_c, 14, 67, 74
32, 268919, Note_on_c, 14, 67, 0
32, 268920, Note_on_c, 14, 66, 74
32, 268949, Note_on_c, 14, 66, 0
32, 268950, Note_on_c, 14, 67, 75
32, 268979, Note_on_c, 14, 67, 0
32, 268980, Note_on_c, 14, 64, 75
32, 269009, Note_on_c, 14, 64, 0
32, 269010, Note_on_c, 14, 66, 75
32, 269039, Note_on_c, 14, 66, 0
32, 269280, Note_on_c, 14, 62, 80
32, 269519, Note_on_c, 14, 62, 0
32, 269640, Note_on_c, 14, 62, 80
32, 269744, Note_on_c, 14, 62, 0
32, 269760, Note_on_c, 14, 62, 80
32, 269999, Note_on_c, 14, 62, 0
32, 270120, Note_on_c, 14, 62, 80
32, 270224, Note_on_c, 14, 62, 0
32, 270240, Note_on_c, 14, 62, 80
32, 270464, Note_on_c, 14, 62, 0
32, 270480, Note_on_c, 14, 66, 80
32, 270509, Note_on_c, 14, 66, 0
32, 270510, Note_on_c, 14, 67, 80
32, 270539, Note_on_c, 14, 67, 0
32, 270540, Note_on_c, 14, 66, 80
32, 270569, Note_on_c, 14, 66, 0
32, 270570, Note_on_c, 14, 67, 80
32, 270599, Note_on_c, 14, 67, 0
32, 270600, Note_on_c, 14, 66, 80
32, 270629, Note_on_c, 14, 66, 0
32, 270630, Note_on_c, 14, 67, 80
32, 270659, Note_on_c, 14, 67, 0
32, 270660, Note_on_c, 14, 64, 80
32, 270689, Note_on_c, 14, 64, 0
32, 270690, Note_on_c, 14, 66, 80
32, 270715, Note_on_c, 14, 66, 0
32, 270720, Note_on_c, 14, 64, 80
32, 270749, Note_on_c, 14, 64, 0
32, 270750, Note_on_c, 14, 66, 80
32, 270779, Note_on_c, 14, 66, 0
32, 270780, Note_on_c, 14, 64, 80
32, 270809, Note_on_c, 14, 64, 0
32, 270810, Note_on_c, 14, 66, 80
32, 270839, Note_on_c, 14, 66, 0
32, 270840, Note_on_c, 14, 64, 80
32, 270869, Note_on_c, 14, 64, 0
32, 270870, Note_on_c, 14, 66, 80
32, 270899, Note_on_c, 14, 66, 0
32, 270900, Note_on_c, 14, 62, 80
32, 270929, Note_on_c, 14, 62, 0
32, 270930, Note_on_c, 14, 64, 80
32, 270959, Note_on_c, 14, 64, 0
32, 271200, Note_on_c, 14, 66, 80
32, 271229, Note_on_c, 14, 66, 0
32, 271230, Note_on_c, 14, 67, 80
32, 271259, Note_on_c, 14, 67, 0
32, 271260, Note_on_c, 14, 66, 80
32, 271289, Note_on_c, 14, 66, 0
32, 271290, Note_on_c, 14, 67, 80
32, 271319, Note_on_c, 14, 67, 0
32, 271320, Note_on_c, 14, 66, 80
32, 271349, Note_on_c, 14, 66, 0
32, 271350, Note_on_c, 14, 67, 80
32, 271379, Note_on_c, 14, 67, 0
32, 271380, Note_on_c, 14, 64, 80
32, 271409, Note_on_c, 14, 64, 0
32, 271410, Note_on_c, 14, 66, 80
32, 271439, Note_on_c, 14, 66, 0
32, 271680, Note_on_c, 14, 64, 80
32, 271709, Note_on_c, 14, 64, 0
32, 271710, Note_on_c, 14, 66, 80
32, 271739, Note_on_c, 14, 66, 0
32, 271740, Note_on_c, 14, 64, 80
32, 271769, Note_on_c, 14, 64, 0
32, 271770, Note_on_c, 14, 66, 80
32, 271799, Note_on_c, 14, 66, 0
32, 271800, Note_on_c, 14, 64, 80
32, 271829, Note_on_c, 14, 64, 0
32, 271830, Note_on_c, 14, 66, 80
32, 271859, Note_on_c, 14, 66, 0
32, 271860, Note_on_c, 14, 62, 80
32, 271889, Note_on_c, 14, 62, 0
32, 271890, Note_on_c, 14, 64, 80
32, 271919, Note_on_c, 14, 64, 0
32, 272160, Note_on_c, 14, 66, 80
32, 272189, Note_on_c, 14, 66, 0
32, 272190, Note_on_c, 14, 67, 80
32, 272219, Note_on_c, 14, 67, 0
32, 272220, Note_on_c, 14, 66, 80
32, 272249, Note_on_c, 14, 66, 0
32, 272250, Note_on_c, 14, 67, 80
32, 272279, Note_on_c, 14, 67, 0
32, 272280, Note_on_c, 14, 66, 80
32, 272309, Note_on_c, 14, 66, 0
32, 272310, Note_on_c, 14, 67, 80
32, 272339, Note_on_c, 14, 67, 0
32, 272340, Note_on_c, 14, 64, 80
32, 272369, Note_on_c, 14, 64, 0
32, 272370, Note_on_c, 14, 66, 80
32, 272399, Note_on_c, 14, 66, 0
32, 272640, Note_on_c, 14, 64, 80
32, 272669, Note_on_c, 14, 64, 0
32, 272670, Note_on_c, 14, 66, 80
32, 272699, Note_on_c, 14, 66, 0
32, 272700, Note_on_c, 14, 64, 80
32, 272729, Note_on_c, 14, 64, 0
32, 272730, Note_on_c, 14, 66, 80
32, 272759, Note_on_c, 14, 66, 0
32, 272760, Note_on_c, 14, 64, 80
32, 272789, Note_on_c, 14, 64, 0
32, 272790, Note_on_c, 14, 66, 80
32, 272819, Note_on_c, 14, 66, 0
32, 272820, Note_on_c, 14, 62, 80
32, 272849, Note_on_c, 14, 62, 0
32, 272850, Note_on_c, 14, 64, 80
32, 272879, Note_on_c, 14, 64, 0
32, 273120, Note_on_c, 14, 66, 80
32, 273149, Note_on_c, 14, 66, 0
32, 273150, Note_on_c, 14, 67, 80
32, 273179, Note_on_c, 14, 67, 0
32, 273180, Note_on_c, 14, 66, 80
32, 273209, Note_on_c, 14, 66, 0
32, 273210, Note_on_c, 14, 67, 80
32, 273239, Note_on_c, 14, 67, 0
32, 273240, Note_on_c, 14, 66, 80
32, 273269, Note_on_c, 14, 66, 0
32, 273270, Note_on_c, 14, 67, 80
32, 273299, Note_on_c, 14, 67, 0
32, 273300, Note_on_c, 14, 64, 80
32, 273329, Note_on_c, 14, 64, 0
32, 273330, Note_on_c, 14, 66, 80
32, 273359, Note_on_c, 14, 66, 0
32, 273600, Note_on_c, 14, 62, 80
32, 273629, Note_on_c, 14, 62, 0
32, 273630, Note_on_c, 14, 64, 80
32, 273659, Note_on_c, 14, 64, 0
32, 273660, Note_on_c, 14, 62, 80
32, 273689, Note_on_c, 14, 62, 0
32, 273690, Note_on_c, 14, 64, 80
32, 273719, Note_on_c, 14, 64, 0
32, 273720, Note_on_c, 14, 62, 80
32, 273749, Note_on_c, 14, 62, 0
32, 273750, Note_on_c, 14, 64, 80
32, 273779, Note_on_c, 14, 64, 0
32, 273780, Note_on_c, 14, 61, 80
32, 273809, Note_on_c, 14, 61, 0
32, 273810, Note_on_c, 14, 62, 80
32, 273839, Note_on_c, 14, 62, 0
32, 274080, Note_on_c, 14, 64, 80
32, 274109, Note_on_c, 14, 64, 0
32, 274110, Note_on_c, 14, 66, 80
32, 274139, Note_on_c, 14, 66, 0
32, 274140, Note_on_c, 14, 64, 80
32, 274169, Note_on_c, 14, 64, 0
32, 274170, Note_on_c, 14, 66, 80
32, 274199, Note_on_c, 14, 66, 0
32, 274200, Note_on_c, 14, 64, 80
32, 274229, Note_on_c, 14, 64, 0
32, 274230, Note_on_c, 14, 66, 80
32, 274259, Note_on_c, 14, 66, 0
32, 274260, Note_on_c, 14, 62, 80
32, 274289, Note_on_c, 14, 62, 0
32, 274290, Note_on_c, 14, 64, 80
32, 274319, Note_on_c, 14, 64, 0
32, 274560, Note_on_c, 14, 66, 80
32, 274589, Note_on_c, 14, 66, 0
32, 274590, Note_on_c, 14, 67, 80
32, 274619, Note_on_c, 14, 67, 0
32, 274620, Note_on_c, 14, 66, 80
32, 274649, Note_on_c, 14, 66, 0
32, 274650, Note_on_c, 14, 67, 80
32, 274679, Note_on_c, 14, 67, 0
32, 274680, Note_on_c, 14, 66, 80
32, 274709, Note_on_c, 14, 66, 0
32, 274710, Note_on_c, 14, 67, 80
32, 274739, Note_on_c, 14, 67, 0
32, 274740, Note_on_c, 14, 64, 80
32, 274769, Note_on_c, 14, 64, 0
32, 274770, Note_on_c, 14, 66, 81
32, 274799, Note_on_c, 14, 66, 0
32, 275040, Note_on_c, 14, 74, 82
32, 275069, Note_on_c, 14, 74, 0
32, 275070, Note_on_c, 14, 76, 82
32, 275099, Note_on_c, 14, 76, 0
32, 275100, Note_on_c, 14, 74, 82
32, 275129, Note_on_c, 14, 74, 0
32, 275130, Note_on_c, 14, 76, 82
32, 275159, Note_on_c, 14, 76, 0
32, 275160, Note_on_c, 14, 74, 83
32, 275189, Note_on_c, 14, 74, 0
32, 275190, Note_on_c, 14, 76, 83
32, 275219, Note_on_c, 14, 76, 0
32, 275220, Note_on_c, 14, 73, 83
32, 275249, Note_on_c, 14, 73, 0
32, 275250, Note_on_c, 14, 74, 83
32, 275279, Note_on_c, 14, 74, 0
32, 275520, Note_on_c, 14, 71, 84
32, 275549, Note_on_c, 14, 71, 0
32, 275550, Note_on_c, 14, 72, 84
32, 275579, Note_on_c, 14, 72, 0
32, 275580, Note_on_c, 14, 71, 85
32, 275609, Note_on_c, 14, 71, 0
32, 275610, Note_on_c, 14, 72, 85
32, 275639, Note_on_c, 14, 72, 0
32, 275640, Note_on_c, 14, 71, 85
32, 275669, Note_on_c, 14, 71, 0
32, 275670, Note_on_c, 14, 72, 85
32, 275699, Note_on_c, 14, 72, 0
32, 275700, Note_on_c, 14, 69, 85
32, 275729, Note_on_c, 14, 69, 0
32, 275730, Note_on_c, 14, 71, 85
32, 275759, Note_on_c, 14, 71, 0
32, 276000, Note_on_c, 14, 67, 87
32, 276029, Note_on_c, 14, 67, 0
32, 276030, Note_on_c, 14, 69, 87
32, 276059, Note_on_c, 14, 69, 0
32, 276060, Note_on_c, 14, 67, 87
32, 276089, Note_on_c, 14, 67, 0
32, 276090, Note_on_c, 14, 69, 87
32, 276119, Note_on_c, 14, 69, 0
32, 276120, Note_on_c, 14, 67, 87
32, 276149, Note_on_c, 14, 67, 0
32, 276150, Note_on_c, 14, 69, 87
32, 276179, Note_on_c, 14, 69, 0
32, 276180, Note_on_c, 14, 66, 88
32, 276209, Note_on_c, 14, 66, 0
32, 276210, Note_on_c, 14, 67, 88
32, 276239, Note_on_c, 14, 67, 0
32, 276480, Note_on_c, 14, 66, 89
32, 276509, Note_on_c, 14, 66, 0
32, 276510, Note_on_c, 14, 67, 89
32, 276539, Note_on_c, 14, 67, 0
32, 276540, Note_on_c, 14, 66, 89
32, 276569, Note_on_c, 14, 66, 0
32, 276570, Note_on_c, 14, 67, 90
32, 276599, Note_on_c, 14, 67, 0
32, 276600, Note_on_c, 14, 66, 90
32, 276629, Note_on_c, 14, 66, 0
32, 276630, Note_on_c, 14, 67, 90
32, 276659, Note_on_c, 14, 67, 0
32, 276660, Note_on_c, 14, 64, 90
32, 276689, Note_on_c, 14, 64, 0
32, 276690, Note_on_c, 14, 66, 90
32, 276719, Note_on_c, 14, 66, 0
32, 276960, Note_on_c, 14, 66, 92
32, 276960, Note_on_c, 14, 69, 92
32, 277199, Note_on_c, 14, 66, 0
32, 277199, Note_on_c, 14, 69, 0
32, 277440, Note_on_c, 14, 67, 92
32, 277440, Note_on_c, 14, 69, 92
32, 277679, Note_on_c, 14, 67, 0
32, 277679, Note_on_c, 14, 69, 0
32, 277800, Note_on_c, 14, 69, 92
32, 277800, Note_on_c, 14, 66, 92
32, 277904, Note_on_c, 14, 69, 0
32, 277904, Note_on_c, 14, 66, 0
32, 277920, Note_on_c, 14, 69, 92
32, 277920, Note_on_c, 14, 66, 92
32, 278024, Note_on_c, 14, 69, 0
32, 278024, Note_on_c, 14, 66, 0
32, 278040, Note_on_c, 14, 50, 92
32, 278099, Note_on_c, 14, 50, 0
32, 278100, Note_on_c, 14, 49, 92
32, 278159, Note_on_c, 14, 49, 0
32, 278160, Note_on_c, 14, 50, 92
32, 278219, Note_on_c, 14, 50, 0
32, 278220, Note_on_c, 14, 52, 92
32, 278279, Note_on_c, 14, 52, 0
32, 278280, Note_on_c, 14, 54, 92
32, 278339, Note_on_c, 14, 54, 0
32, 278340, Note_on_c, 14, 55, 92
32, 278391, Note_on_c, 14, 55, 0
32, 278400, Note_on_c, 14, 50, 92
32, 278400, Note_on_c, 14, 57, 92
32, 278759, Note_on_c, 14, 50, 0
32, 278759, Note_on_c, 14, 57, 0
32, 278880, Note_on_c, 14, 74, 92
32, 279239, Note_on_c, 14, 74, 0
32, 279360, Note_on_c, 14, 67, 92
32, 279360, Note_on_c, 14, 71, 92
32, 279719, Note_on_c, 14, 67, 0
32, 279719, Note_on_c, 14, 71, 0
32, 279840, Note_on_c, 14, 55, 92
32, 280199, Note_on_c, 14, 55, 0
32, 280320, Note_on_c, 14, 57, 92
32, 280679, Note_on_c, 14, 57, 0
32, 280800, Note_on_c, 14, 69, 92
32, 281159, Note_on_c, 14, 69, 0
32, 281280, Note_on_c, 14, 66, 92
32, 281639, Note_on_c, 14, 66, 0
32, 281760, Note_on_c, 14, 62, 92
32, 281760, Note_on_c, 14, 59, 92
32, 282704, Note_on_c, 14, 62, 0
32, 282704, Note_on_c, 14, 59, 0
32, 282720, Note_on_c, 14, 64, 92
32, 282720, Note_on_c, 14, 59, 92
32, 283079, Note_on_c, 14, 64, 0
32, 283079, Note_on_c, 14, 59, 0
32, 283200, Note_on_c, 14, 69, 92
32, 283251, Note_on_c, 14, 69, 0
32, 283260, Note_on_c, 14, 71, 92
32, 283311, Note_on_c, 14, 71, 0
32, 283320, Note_on_c, 14, 69, 92
32, 283371, Note_on_c, 14, 69, 0
32, 283380, Note_on_c, 14, 68, 92
32, 283431, Note_on_c, 14, 68, 0
32, 283440, Note_on_c, 14, 66, 92
32, 283491, Note_on_c, 14, 66, 0
32, 283500, Note_on_c, 14, 68, 92
32, 283551, Note_on_c, 14, 68, 0
32, 283560, Note_on_c, 14, 66, 92
32, 283611, Note_on_c, 14, 66, 0
32, 283620, Note_on_c, 14, 64, 92
32, 283671, Note_on_c, 14, 64, 0
32, 283680, Note_on_c, 14, 62, 92
32, 283731, Note_on_c, 14, 62, 0
32, 283740, Note_on_c, 14, 64, 92
32, 283791, Note_on_c, 14, 64, 0
32, 283800, Note_on_c, 14, 62, 92
32, 283851, Note_on_c, 14, 62, 0
32, 283860, Note_on_c, 14, 61, 92
32, 283911, Note_on_c, 14, 61, 0
32, 283920, Note_on_c, 14, 59, 92
32, 283971, Note_on_c, 14, 59, 0
32, 283980, Note_on_c, 14, 61, 92
32, 284031, Note_on_c, 14, 61, 0
32, 284040, Note_on_c, 14, 59, 92
32, 284091, Note_on_c, 14, 59, 0
32, 284100, Note_on_c, 14, 57, 92
32, 284151, Note_on_c, 14, 57, 0
32, 284160, Note_on_c, 14, 49, 92
32, 284519, Note_on_c, 14, 49, 0
32, 284640, Note_on_c, 14, 64, 92
32, 284640, Note_on_c, 14, 76, 92
32, 284999, Note_on_c, 14, 64, 0
32, 284999, Note_on_c, 14, 76, 0
32, 285120, Note_on_c, 14, 69, 92
32, 285171, Note_on_c, 14, 69, 0
32, 285180, Note_on_c, 14, 71, 92
32, 285231, Note_on_c, 14, 71, 0
32, 285240, Note_on_c, 14, 69, 92
32, 285291, Note_on_c, 14, 69, 0
32, 285300, Note_on_c, 14, 68, 92
32, 285351, Note_on_c, 14, 68, 0
32, 285360, Note_on_c, 14, 66, 92
32, 285411, Note_on_c, 14, 66, 0
32, 285420, Note_on_c, 14, 68, 92
32, 285471, Note_on_c, 14, 68, 0
32, 285480, Note_on_c, 14, 66, 92
32, 285531, Note_on_c, 14, 66, 0
32, 285540, Note_on_c, 14, 64, 92
32, 285591, Note_on_c, 14, 64, 0
32, 285600, Note_on_c, 14, 62, 92
32, 285651, Note_on_c, 14, 62, 0
32, 285660, Note_on_c, 14, 64, 92
32, 285711, Note_on_c, 14, 64, 0
32, 285720, Note_on_c, 14, 62, 92
32, 285771, Note_on_c, 14, 62, 0
32, 285780, Note_on_c, 14, 61, 92
32, 285831, Note_on_c, 14, 61, 0
32, 285840, Note_on_c, 14, 59, 92
32, 285891, Note_on_c, 14, 59, 0
32, 285900, Note_on_c, 14, 61, 92
32, 285951, Note_on_c, 14, 61, 0
32, 285960, Note_on_c, 14, 59, 92
32, 286011, Note_on_c, 14, 59, 0
32, 286020, Note_on_c, 14, 57, 92
32, 286071, Note_on_c, 14, 57, 0
32, 286080, Note_on_c, 14, 57, 92
32, 286439, Note_on_c, 14, 57, 0
32, 286560, Note_on_c, 14, 69, 92
32, 286560, Note_on_c, 14, 57, 92
32, 286919, Note_on_c, 14, 69, 0
32, 286919, Note_on_c, 14, 57, 0
32, 287040, Note_on_c, 14, 57, 92
32, 287040, Note_on_c, 14, 53, 92
32, 288959, Note_on_c, 14, 57, 0
32, 288959, Note_on_c, 14, 53, 0
32, 308400, Note_on_c, 14, 65, 32
32, 308579, Note_on_c, 14, 65, 0
32, 308640, Note_on_c, 14, 69, 32
32, 308729, Note_on_c, 14, 69, 0
32, 308760, Note_on_c, 14, 69, 32
32, 308939, Note_on_c, 14, 69, 0
32, 309000, Note_on_c, 14, 70, 32
32, 309089, Note_on_c, 14, 70, 0
32, 309120, Note_on_c, 14, 69, 32
32, 309359, Note_on_c, 14, 69, 0
32, 319920, Note_on_c, 14, 65, 32
32, 320099, Note_on_c, 14, 65, 0
32, 320160, Note_on_c, 14, 69, 32
32, 320249, Note_on_c, 14, 69, 0
32, 320280, Note_on_c, 14, 69, 32
32, 320459, Note_on_c, 14, 69, 0
32, 320520, Note_on_c, 14, 70, 32
32, 320609, Note_on_c, 14, 70, 0
32, 320640, Note_on_c, 14, 70, 32
32, 320879, Note_on_c, 14, 70, 0
32, 331440, Note_on_c, 14, 70, 36
32, 331619, Note_on_c, 14, 70, 0
32, 331680, Note_on_c, 14, 69, 36
32, 331769, Note_on_c, 14, 69, 0
32, 331800, Note_on_c, 14, 69, 37
32, 331979, Note_on_c, 14, 69, 0
32, 332040, Note_on_c, 14, 70, 37
32, 332129, Note_on_c, 14, 70, 0
32, 332160, Note_on_c, 14, 69, 37
32, 332399, Note_on_c, 14, 69, 0
32, 342960, Note_on_c, 14, 65, 56
32, 343139, Note_on_c, 14, 65, 0
32, 343200, Note_on_c, 14, 69, 56
32, 343289, Note_on_c, 14, 69, 0
32, 343320, Note_on_c, 14, 69, 56
32, 343499, Note_on_c, 14, 69, 0
32, 343560, Note_on_c, 14, 70, 56
32, 343649, Note_on_c, 14, 70, 0
32, 343680, Note_on_c, 14, 69, 56
32, 343919, Note_on_c, 14, 69, 0
32, 349800, Note_on_c, 14, 65, 68
32, 350039, Note_on_c, 14, 65, 0
32, 350520, Note_on_c, 14, 65, 68
32, 350520, Note_on_c, 14, 70, 68
32, 350759, Note_on_c, 14, 65, 0
32, 350759, Note_on_c, 14, 70, 0
32, 351240, Note_on_c, 14, 58, 68
32, 351479, Note_on_c, 14, 58, 0
32, 351960, Note_on_c, 14, 70, 68
32, 351960, Note_on_c, 14, 67, 68
32, 352199, Note_on_c, 14, 70, 0
32, 352199, Note_on_c, 14, 67, 0
32, 352560, Note_on_c, 14, 54, 80
32, 352679, Note_on_c, 14, 54, 0
32, 352680, Note_on_c, 14, 53, 80
32, 352919, Note_on_c, 14, 53, 0
32, 353280, Note_on_c, 14, 54, 86
32, 353399, Note_on_c, 14, 54, 0
32, 353400, Note_on_c, 14, 53, 86
32, 353639, Note_on_c, 14, 53, 0
32, 354000, Note_on_c, 14, 67, 86
32, 354119, Note_on_c, 14, 67, 0
32, 354120, Note_on_c, 14, 65, 86
32, 354359, Note_on_c, 14, 65, 0
32, 354480, Note_on_c, 14, 65, 86
32, 354659, Note_on_c, 14, 65, 0
32, 354720, Note_on_c, 14, 75, 86
32, 354809, Note_on_c, 14, 75, 0
32, 354840, Note_on_c, 14, 75, 86
32, 355019, Note_on_c, 14, 75, 0
32, 355080, Note_on_c, 14, 74, 86
32, 355169, Note_on_c, 14, 74, 0
32, 355200, Note_on_c, 14, 74, 92
32, 355439, Note_on_c, 14, 74, 0
32, 355560, Note_on_c, 14, 58, 92
32, 355560, Note_on_c, 14, 70, 92
32, 355560, Note_on_c, 14, 65, 92
32, 355799, Note_on_c, 14, 58, 0
32, 355799, Note_on_c, 14, 70, 0
32, 355799, Note_on_c, 14, 65, 0
32, 356280, Note_on_c, 14, 58, 92
32, 356280, Note_on_c, 14, 70, 92
32, 356280, Note_on_c, 14, 65, 92
32, 356519, Note_on_c, 14, 58, 0
32, 356519, Note_on_c, 14, 70, 0
32, 356519, Note_on_c, 14, 65, 0
32, 357000, Note_on_c, 14, 51, 92
32, 357000, Note_on_c, 14, 67, 92
32, 357000, Note_on_c, 14, 58, 92
32, 357239, Note_on_c, 14, 51, 0
32, 357239, Note_on_c, 14, 67, 0
32, 357239, Note_on_c, 14, 58, 0
32, 357720, Note_on_c, 14, 60, 92
32, 357720, Note_on_c, 14, 67, 92
32, 357959, Note_on_c, 14, 60, 0
32, 357959, Note_on_c, 14, 67, 0
32, 358440, Note_on_c, 14, 60, 92
32, 358440, Note_on_c, 14, 69, 92
32, 358679, Note_on_c, 14, 60, 0
32, 358679, Note_on_c, 14, 69, 0
32, 359160, Note_on_c, 14, 65, 92
32, 359160, Note_on_c, 14, 69, 92
32, 359160, Note_on_c, 14, 60, 92
32, 359399, Note_on_c, 14, 65, 0
32, 359399, Note_on_c, 14, 69, 0
32, 359399, Note_on_c, 14, 60, 0
32, 359880, Note_on_c, 14, 60, 92
32, 359880, Note_on_c, 14, 69, 92
32, 359880, Note_on_c, 14, 65, 92
32, 360119, Note_on_c, 14, 60, 0
32, 360119, Note_on_c, 14, 69, 0
32, 360119, Note_on_c, 14, 65, 0
32, 360240, Note_on_c, 14, 70, 92
32, 360359, Note_on_c, 14, 70, 0
32, 360360, Note_on_c, 14, 72, 92
32, 360479, Note_on_c, 14, 72, 0
32, 360480, Note_on_c, 14, 74, 92
32, 360719, Note_on_c, 14, 74, 0
32, 360720, Note_on_c, 14, 72, 92
32, 360839, Note_on_c, 14, 72, 0
32, 360840, Note_on_c, 14, 69, 92
32, 360944, Note_on_c, 14, 69, 0
32, 360960, Note_on_c, 14, 67, 92
32, 361199, Note_on_c, 14, 67, 0
32, 368400, Note_on_c, 14, 67, 92
32, 368504, Note_on_c, 14, 67, 0
32, 368520, Note_on_c, 14, 67, 104
32, 368579, Note_on_c, 14, 67, 0
32, 368580, Note_on_c, 14, 67, 92
32, 369104, Note_on_c, 14, 67, 0
32, 369120, Note_on_c, 14, 69, 92
32, 369224, Note_on_c, 14, 69, 0
32, 369240, Note_on_c, 14, 69, 104
32, 369299, Note_on_c, 14, 69, 0
32, 369300, Note_on_c, 14, 69, 92
32, 369824, Note_on_c, 14, 69, 0
32, 369840, Note_on_c, 14, 71, 92
32, 369944, Note_on_c, 14, 71, 0
32, 369960, Note_on_c, 14, 76, 92
32, 370184, Note_on_c, 14, 76, 0
32, 370200, Note_on_c, 14, 74, 92
32, 370304, Note_on_c, 14, 74, 0
32, 370320, Note_on_c, 14, 72, 92
32, 370559, Note_on_c, 14, 72, 0
32, 370680, Note_on_c, 14, 71, 92
32, 370919, Note_on_c, 14, 71, 0
32, 371040, Note_on_c, 14, 71, 92
32, 371279, Note_on_c, 14, 71, 0
32, 371400, Note_on_c, 14, 67, 92
32, 371639, Note_on_c, 14, 67, 0
32, 371760, Note_on_c, 14, 67, 92
32, 371999, Note_on_c, 14, 67, 0
32, 372120, Note_on_c, 14, 65, 92
32, 372359, Note_on_c, 14, 65, 0
32, 372480, Note_on_c, 14, 55, 92
32, 372480, Note_on_c, 14, 68, 92
32, 372719, Note_on_c, 14, 55, 0
32, 372719, Note_on_c, 14, 68, 0
32, 372840, Note_on_c, 14, 67, 92
32, 372840, Note_on_c, 14, 55, 92
32, 373079, Note_on_c, 14, 67, 0
32, 373079, Note_on_c, 14, 55, 0
32, 373200, Note_on_c, 14, 55, 92
32, 373200, Note_on_c, 14, 65, 92
32, 373439, Note_on_c, 14, 55, 0
32, 373439, Note_on_c, 14, 65, 0
32, 373560, Note_on_c, 14, 55, 92
32, 373560, Note_on_c, 14, 65, 92
32, 373799, Note_on_c, 14, 55, 0
32, 373799, Note_on_c, 14, 65, 0
32, 373920, Note_on_c, 14, 63, 92
32, 374024, Note_on_c, 14, 63, 0
32, 374040, Note_on_c, 14, 63, 92
32, 374144, Note_on_c, 14, 63, 0
32, 374160, Note_on_c, 14, 63, 92
32, 374264, Note_on_c, 14, 63, 0
32, 374280, Note_on_c, 14, 63, 92
32, 374384, Note_on_c, 14, 63, 0
32, 374400, Note_on_c, 14, 65, 92
32, 374504, Note_on_c, 14, 65, 0
32, 374520, Note_on_c, 14, 67, 92
32, 374624, Note_on_c, 14, 67, 0
32, 374640, Note_on_c, 14, 67, 92
32, 374744, Note_on_c, 14, 67, 0
32, 374760, Note_on_c, 14, 68, 92
32, 374864, Note_on_c, 14, 68, 0
32, 374880, Note_on_c, 14, 67, 92
32, 374984, Note_on_c, 14, 67, 0
32, 375000, Note_on_c, 14, 65, 92
32, 375104, Note_on_c, 14, 65, 0
32, 375120, Note_on_c, 14, 63, 92
32, 375224, Note_on_c, 14, 63, 0
32, 375240, Note_on_c, 14, 62, 92
32, 375344, Note_on_c, 14, 62, 0
32, 375360, Note_on_c, 14, 60, 92
32, 375464, Note_on_c, 14, 60, 0
32, 375480, Note_on_c, 14, 59, 92
32, 375584, Note_on_c, 14, 59, 0
32, 375600, Note_on_c, 14, 60, 92
32, 375704, Note_on_c, 14, 60, 0
32, 375720, Note_on_c, 14, 60, 92
32, 375824, Note_on_c, 14, 60, 0
32, 375840, Note_on_c, 14, 62, 92
32, 375944, Note_on_c, 14, 62, 0
32, 375960, Note_on_c, 14, 63, 92
32, 376064, Note_on_c, 14, 63, 0
32, 376080, Note_on_c, 14, 62, 92
32, 376184, Note_on_c, 14, 62, 0
32, 376200, Note_on_c, 14, 55, 92
32, 376304, Note_on_c, 14, 55, 0
32, 376320, Note_on_c, 14, 55, 92
32, 376424, Note_on_c, 14, 55, 0
32, 376440, Note_on_c, 14, 60, 92
32, 376544, Note_on_c, 14, 60, 0
32, 376560, Note_on_c, 14, 48, 92
32, 376664, Note_on_c, 14, 48, 0
32, 376680, Note_on_c, 14, 48, 92
32, 376784, Note_on_c, 14, 48, 0
32, 376800, Note_on_c, 14, 62, 92
32, 376904, Note_on_c, 14, 62, 0
32, 376920, Note_on_c, 14, 58, 92
32, 377024, Note_on_c, 14, 58, 0
32, 377040, Note_on_c, 14, 58, 92
32, 377144, Note_on_c, 14, 58, 0
32, 377160, Note_on_c, 14, 65, 92
32, 377264, Note_on_c, 14, 65, 0
32, 377280, Note_on_c, 14, 58, 92
32, 377384, Note_on_c, 14, 58, 0
32, 377400, Note_on_c, 14, 58, 92
32, 377504, Note_on_c, 14, 58, 0
32, 377520, Note_on_c, 14, 70, 92
32, 377624, Note_on_c, 14, 70, 0
32, 377640, Note_on_c, 14, 58, 92
32, 377744, Note_on_c, 14, 58, 0
32, 377760, Note_on_c, 14, 58, 92
32, 377864, Note_on_c, 14, 58, 0
32, 377880, Note_on_c, 14, 58, 92
32, 377984, Note_on_c, 14, 58, 0
32, 378000, Note_on_c, 14, 65, 92
32, 378104, Note_on_c, 14, 65, 0
32, 378120, Note_on_c, 14, 65, 92
32, 378224, Note_on_c, 14, 65, 0
32, 378240, Note_on_c, 14, 63, 92
32, 378344, Note_on_c, 14, 63, 0
32, 378360, Note_on_c, 14, 65, 92
32, 378464, Note_on_c, 14, 65, 0
32, 378480, Note_on_c, 14, 67, 92
32, 378584, Note_on_c, 14, 67, 0
32, 378600, Note_on_c, 14, 67, 92
32, 378704, Note_on_c, 14, 67, 0
32, 378720, Note_on_c, 14, 68, 92
32, 378824, Note_on_c, 14, 68, 0
32, 378840, Note_on_c, 14, 70, 92
32, 378944, Note_on_c, 14, 70, 0
32, 378960, Note_on_c, 14, 55, 92
32, 379064, Note_on_c, 14, 55, 0
32, 379080, Note_on_c, 14, 56, 92
32, 379184, Note_on_c, 14, 56, 0
32, 379200, Note_on_c, 14, 55, 92
32, 379304, Note_on_c, 14, 55, 0
32, 379320, Note_on_c, 14, 53, 92
32, 379424, Note_on_c, 14, 53, 0
32, 379440, Note_on_c, 14, 51, 92
32, 379544, Note_on_c, 14, 51, 0
32, 379560, Note_on_c, 14, 50, 92
32, 379664, Note_on_c, 14, 50, 0
32, 379680, Note_on_c, 14, 63, 92
32, 379784, Note_on_c, 14, 63, 0
32, 379800, Note_on_c, 14, 56, 92
32, 379904, Note_on_c, 14, 56, 0
32, 379920, Note_on_c, 14, 55, 92
32, 380024, Note_on_c, 14, 55, 0
32, 380040, Note_on_c, 14, 55, 92
32, 380144, Note_on_c, 14, 55, 0
32, 380160, Note_on_c, 14, 56, 92
32, 380264, Note_on_c, 14, 56, 0
32, 380280, Note_on_c, 14, 64, 92
32, 380384, Note_on_c, 14, 64, 0
32, 380400, Note_on_c, 14, 65, 92
32, 380624, Note_on_c, 14, 65, 0
32, 380640, Note_on_c, 14, 65, 92
32, 380744, Note_on_c, 14, 65, 0
32, 380760, Note_on_c, 14, 72, 92
32, 380984, Note_on_c, 14, 72, 0
32, 381000, Note_on_c, 14, 70, 92
32, 381104, Note_on_c, 14, 70, 0
32, 381120, Note_on_c, 14, 68, 92
32, 381344, Note_on_c, 14, 68, 0
32, 381360, Note_on_c, 14, 65, 92
32, 381464, Note_on_c, 14, 65, 0
32, 381480, Note_on_c, 14, 70, 92
32, 381704, Note_on_c, 14, 70, 0
32, 381720, Note_on_c, 14, 68, 92
32, 381824, Note_on_c, 14, 68, 0
32, 381840, Note_on_c, 14, 67, 92
32, 382079, Note_on_c, 14, 67, 0
32, 382200, Note_on_c, 14, 65, 92
32, 382439, Note_on_c, 14, 65, 0
32, 382800, Note_on_c, 14, 67, 92
32, 382904, Note_on_c, 14, 67, 0
32, 382920, Note_on_c, 14, 72, 92
32, 383144, Note_on_c, 14, 72, 0
32, 383160, Note_on_c, 14, 70, 92
32, 383504, Note_on_c, 14, 70, 0
32, 383520, Note_on_c, 14, 68, 92
32, 383624, Note_on_c, 14, 68, 0
32, 383640, Note_on_c, 14, 75, 92
32, 383864, Note_on_c, 14, 75, 0
32, 383880, Note_on_c, 14, 73, 92
32, 383984, Note_on_c, 14, 73, 0
32, 384000, Note_on_c, 14, 72, 92
32, 384104, Note_on_c, 14, 72, 0
32, 384120, Note_on_c, 14, 60, 92
32, 384224, Note_on_c, 14, 60, 0
32, 384240, Note_on_c, 14, 60, 92
32, 384344, Note_on_c, 14, 60, 0
32, 384360, Note_on_c, 14, 60, 92
32, 384464, Note_on_c, 14, 60, 0
32, 384480, Note_on_c, 14, 61, 92
32, 384584, Note_on_c, 14, 61, 0
32, 384600, Note_on_c, 14, 63, 92
32, 384704, Note_on_c, 14, 63, 0
32, 384720, Note_on_c, 14, 63, 92
32, 384824, Note_on_c, 14, 63, 0
32, 384840, Note_on_c, 14, 63, 92
32, 384944, Note_on_c, 14, 63, 0
32, 384960, Note_on_c, 14, 63, 92
32, 385064, Note_on_c, 14, 63, 0
32, 385080, Note_on_c, 14, 63, 92
32, 385184, Note_on_c, 14, 63, 0
32, 385200, Note_on_c, 14, 65, 92
32, 385304, Note_on_c, 14, 65, 0
32, 385320, Note_on_c, 14, 66, 92
32, 385424, Note_on_c, 14, 66, 0
32, 385440, Note_on_c, 14, 58, 92
32, 385544, Note_on_c, 14, 58, 0
32, 385560, Note_on_c, 14, 58, 92
32, 385664, Note_on_c, 14, 58, 0
32, 385680, Note_on_c, 14, 58, 92
32, 385784, Note_on_c, 14, 58, 0
32, 385800, Note_on_c, 14, 58, 92
32, 385904, Note_on_c, 14, 58, 0
32, 385920, Note_on_c, 14, 60, 92
32, 386024, Note_on_c, 14, 60, 0
32, 386040, Note_on_c, 14, 61, 92
32, 386144, Note_on_c, 14, 61, 0
32, 386160, Note_on_c, 14, 61, 92
32, 386264, Note_on_c, 14, 61, 0
32, 386280, Note_on_c, 14, 61, 92
32, 386384, Note_on_c, 14, 61, 0
32, 386400, Note_on_c, 14, 61, 92
32, 386504, Note_on_c, 14, 61, 0
32, 386520, Note_on_c, 14, 61, 92
32, 386624, Note_on_c, 14, 61, 0
32, 386640, Note_on_c, 14, 63, 92
32, 386744, Note_on_c, 14, 63, 0
32, 386760, Note_on_c, 14, 65, 92
32, 386864, Note_on_c, 14, 65, 0
32, 386880, Note_on_c, 14, 75, 92
32, 386984, Note_on_c, 14, 75, 0
32, 387000, Note_on_c, 14, 75, 92
32, 387104, Note_on_c, 14, 75, 0
32, 387120, Note_on_c, 14, 75, 92
32, 387224, Note_on_c, 14, 75, 0
32, 387240, Note_on_c, 14, 75, 92
32, 387344, Note_on_c, 14, 75, 0
32, 387360, Note_on_c, 14, 73, 92
32, 387464, Note_on_c, 14, 73, 0
32, 387480, Note_on_c, 14, 72, 92
32, 387584, Note_on_c, 14, 72, 0
32, 387600, Note_on_c, 14, 66, 92
32, 387704, Note_on_c, 14, 66, 0
32, 387720, Note_on_c, 14, 65, 92
32, 387824, Note_on_c, 14, 65, 0
32, 387840, Note_on_c, 14, 63, 92
32, 387944, Note_on_c, 14, 63, 0
32, 387960, Note_on_c, 14, 63, 92
32, 388064, Note_on_c, 14, 63, 0
32, 388080, Note_on_c, 14, 72, 92
32, 388184, Note_on_c, 14, 72, 0
32, 388200, Note_on_c, 14, 72, 92
32, 388304, Note_on_c, 14, 72, 0
32, 388320, Note_on_c, 14, 70, 92
32, 388544, Note_on_c, 14, 70, 0
32, 388560, Note_on_c, 14, 49, 92
32, 388664, Note_on_c, 14, 49, 0
32, 388680, Note_on_c, 14, 49, 104
32, 388739, Note_on_c, 14, 49, 0
32, 388740, Note_on_c, 14, 49, 92
32, 389264, Note_on_c, 14, 49, 0
32, 389280, Note_on_c, 14, 51, 92
32, 389384, Note_on_c, 14, 51, 0
32, 389400, Note_on_c, 14, 51, 104
32, 389459, Note_on_c, 14, 51, 0
32, 389460, Note_on_c, 14, 51, 92
32, 389984, Note_on_c, 14, 51, 0
32, 390000, Note_on_c, 14, 53, 92
32, 390104, Note_on_c, 14, 53, 0
32, 390120, Note_on_c, 14, 58, 92
32, 390344, Note_on_c, 14, 58, 0
32, 390360, Note_on_c, 14, 56, 92
32, 390464, Note_on_c, 14, 56, 0
32, 390480, Note_on_c, 14, 54, 92
32, 390704, Note_on_c, 14, 54, 0
32, 390720, Note_on_c, 14, 54, 92
32, 390824, Note_on_c, 14, 54, 0
32, 390840, Note_on_c, 14, 59, 92
32, 391064, Note_on_c, 14, 59, 0
32, 391080, Note_on_c, 14, 58, 92
32, 391184, Note_on_c, 14, 58, 0
32, 391200, Note_on_c, 14, 56, 92
32, 391424, Note_on_c, 14, 56, 0
32, 391440, Note_on_c, 14, 56, 92
32, 391544, Note_on_c, 14, 56, 0
32, 391560, Note_on_c, 14, 61, 92
32, 391784, Note_on_c, 14, 61, 0
32, 391800, Note_on_c, 14, 59, 92
32, 391904, Note_on_c, 14, 59, 0
32, 391920, Note_on_c, 14, 58, 92
32, 392144, Note_on_c, 14, 58, 0
32, 392160, Note_on_c, 14, 58, 92
32, 392264, Note_on_c, 14, 58, 0
32, 392280, Note_on_c, 14, 63, 92
32, 392504, Note_on_c, 14, 63, 0
32, 392520, Note_on_c, 14, 61, 92
32, 392624, Note_on_c, 14, 61, 0
32, 392640, Note_on_c, 14, 59, 92
32, 392864, Note_on_c, 14, 59, 0
32, 392880, Note_on_c, 14, 59, 92
32, 392984, Note_on_c, 14, 59, 0
32, 393000, Note_on_c, 14, 68, 92
32, 393104, Note_on_c, 14, 68, 0
32, 393120, Note_on_c, 14, 66, 92
32, 393224, Note_on_c, 14, 66, 0
32, 393240, Note_on_c, 14, 65, 92
32, 393344, Note_on_c, 14, 65, 0
32, 393360, Note_on_c, 14, 61, 92
32, 393464, Note_on_c, 14, 61, 0
32, 393480, Note_on_c, 14, 73, 92
32, 393584, Note_on_c, 14, 73, 0
32, 393600, Note_on_c, 14, 73, 92
32, 393704, Note_on_c, 14, 73, 0
32, 393720, Note_on_c, 14, 73, 92
32, 393824, Note_on_c, 14, 73, 0
32, 393840, Note_on_c, 14, 73, 92
32, 393944, Note_on_c, 14, 73, 0
32, 393960, Note_on_c, 14, 73, 92
32, 394064, Note_on_c, 14, 73, 0
32, 394080, Note_on_c, 14, 73, 92
32, 394319, Note_on_c, 14, 73, 0
32, 397320, Note_on_c, 14, 63, 92
32, 397424, Note_on_c, 14, 63, 0
32, 397440, Note_on_c, 14, 63, 92
32, 397544, Note_on_c, 14, 63, 0
32, 397560, Note_on_c, 14, 63, 92
32, 397664, Note_on_c, 14, 63, 0
32, 397680, Note_on_c, 14, 63, 92
32, 397784, Note_on_c, 14, 63, 0
32, 397800, Note_on_c, 14, 65, 92
32, 397904, Note_on_c, 14, 65, 0
32, 397920, Note_on_c, 14, 66, 92
32, 398024, Note_on_c, 14, 66, 0
32, 398040, Note_on_c, 14, 68, 92
32, 398144, Note_on_c, 14, 68, 0
32, 398160, Note_on_c, 14, 60, 92
32, 398264, Note_on_c, 14, 60, 0
32, 398280, Note_on_c, 14, 61, 92
32, 398384, Note_on_c, 14, 61, 0
32, 398400, Note_on_c, 14, 61, 92
32, 398504, Note_on_c, 14, 61, 0
32, 398520, Note_on_c, 14, 63, 92
32, 398624, Note_on_c, 14, 63, 0
32, 398640, Note_on_c, 14, 65, 92
32, 398744, Note_on_c, 14, 65, 0
32, 398760, Note_on_c, 14, 66, 92
32, 398864, Note_on_c, 14, 66, 0
32, 398880, Note_on_c, 14, 58, 92
32, 398984, Note_on_c, 14, 58, 0
32, 399000, Note_on_c, 14, 60, 92
32, 399104, Note_on_c, 14, 60, 0
32, 399120, Note_on_c, 14, 60, 92
32, 399224, Note_on_c, 14, 60, 0
32, 399240, Note_on_c, 14, 61, 92
32, 399344, Note_on_c, 14, 61, 0
32, 399360, Note_on_c, 14, 63, 92
32, 399464, Note_on_c, 14, 63, 0
32, 399480, Note_on_c, 14, 65, 92
32, 399584, Note_on_c, 14, 65, 0
32, 399600, Note_on_c, 14, 55, 92
32, 399704, Note_on_c, 14, 55, 0
32, 399720, Note_on_c, 14, 57, 92
32, 399824, Note_on_c, 14, 57, 0
32, 399840, Note_on_c, 14, 58, 92
32, 399944, Note_on_c, 14, 58, 0
32, 399960, Note_on_c, 14, 58, 92
32, 400064, Note_on_c, 14, 58, 0
32, 400080, Note_on_c, 14, 58, 92
32, 400184, Note_on_c, 14, 58, 0
32, 400200, Note_on_c, 14, 58, 92
32, 400304, Note_on_c, 14, 58, 0
32, 400320, Note_on_c, 14, 60, 92
32, 400424, Note_on_c, 14, 60, 0
32, 400440, Note_on_c, 14, 61, 92
32, 400544, Note_on_c, 14, 61, 0
32, 400560, Note_on_c, 14, 61, 92
32, 400664, Note_on_c, 14, 61, 0
32, 400680, Note_on_c, 14, 60, 92
32, 400784, Note_on_c, 14, 60, 0
32, 400800, Note_on_c, 14, 58, 92
32, 400904, Note_on_c, 14, 58, 0
32, 400920, Note_on_c, 14, 65, 92
32, 401024, Note_on_c, 14, 65, 0
32, 401040, Note_on_c, 14, 63, 92
32, 401144, Note_on_c, 14, 63, 0
32, 401160, Note_on_c, 14, 61, 92
32, 401264, Note_on_c, 14, 61, 0
32, 401280, Note_on_c, 14, 58, 92
32, 401384, Note_on_c, 14, 58, 0
32, 401400, Note_on_c, 14, 58, 92
32, 401504, Note_on_c, 14, 58, 0
32, 401520, Note_on_c, 14, 58, 92
32, 401624, Note_on_c, 14, 58, 0
32, 401640, Note_on_c, 14, 58, 92
32, 401744, Note_on_c, 14, 58, 0
32, 401760, Note_on_c, 14, 59, 92
32, 401864, Note_on_c, 14, 59, 0
32, 401880, Note_on_c, 14, 61, 92
32, 401984, Note_on_c, 14, 61, 0
32, 402000, Note_on_c, 14, 61, 92
32, 402104, Note_on_c, 14, 61, 0
32, 402120, Note_on_c, 14, 59, 92
32, 402224, Note_on_c, 14, 59, 0
32, 402240, Note_on_c, 14, 58, 92
32, 402344, Note_on_c, 14, 58, 0
32, 402360, Note_on_c, 14, 58, 92
32, 402464, Note_on_c, 14, 58, 0
32, 402480, Note_on_c, 14, 59, 92
32, 402584, Note_on_c, 14, 59, 0
32, 402600, Note_on_c, 14, 61, 92
32, 402704, Note_on_c, 14, 61, 0
32, 402720, Note_on_c, 14, 64, 92
32, 402824, Note_on_c, 14, 64, 0
32, 402840, Note_on_c, 14, 64, 92
32, 402944, Note_on_c, 14, 64, 0
32, 402960, Note_on_c, 14, 64, 92
32, 403064, Note_on_c, 14, 64, 0
32, 403080, Note_on_c, 14, 64, 92
32, 403184, Note_on_c, 14, 64, 0
32, 403200, Note_on_c, 14, 66, 92
32, 403304, Note_on_c, 14, 66, 0
32, 403320, Note_on_c, 14, 67, 92
32, 403424, Note_on_c, 14, 67, 0
32, 403440, Note_on_c, 14, 73, 92
32, 403544, Note_on_c, 14, 73, 0
32, 403560, Note_on_c, 14, 74, 92
32, 403664, Note_on_c, 14, 74, 0
32, 403680, Note_on_c, 14, 76, 92
32, 403784, Note_on_c, 14, 76, 0
32, 403800, Note_on_c, 14, 67, 92
32, 403904, Note_on_c, 14, 67, 0
32, 403920, Note_on_c, 14, 66, 92
32, 404024, Note_on_c, 14, 66, 0
32, 404040, Note_on_c, 14, 64, 92
32, 404144, Note_on_c, 14, 64, 0
32, 404160, Note_on_c, 14, 54, 92
32, 404264, Note_on_c, 14, 54, 0
32, 404280, Note_on_c, 14, 66, 92
32, 404384, Note_on_c, 14, 66, 0
32, 404400, Note_on_c, 14, 66, 92
32, 404504, Note_on_c, 14, 66, 0
32, 404520, Note_on_c, 14, 66, 92
32, 404624, Note_on_c, 14, 66, 0
32, 404640, Note_on_c, 14, 67, 92
32, 404744, Note_on_c, 14, 67, 0
32, 404760, Note_on_c, 14, 71, 92
32, 404864, Note_on_c, 14, 71, 0
32, 404880, Note_on_c, 14, 71, 92
32, 404984, Note_on_c, 14, 71, 0
32, 405000, Note_on_c, 14, 71, 92
32, 405104, Note_on_c, 14, 71, 0
32, 405120, Note_on_c, 14, 70, 92
32, 405224, Note_on_c, 14, 70, 0
32, 405240, Note_on_c, 14, 67, 92
32, 405344, Note_on_c, 14, 67, 0
32, 405360, Note_on_c, 14, 66, 92
32, 405464, Note_on_c, 14, 66, 0
32, 405480, Note_on_c, 14, 64, 92
32, 405584, Note_on_c, 14, 64, 0
32, 405600, Note_on_c, 14, 66, 92
32, 405704, Note_on_c, 14, 66, 0
32, 405720, Note_on_c, 14, 64, 92
32, 405824, Note_on_c, 14, 64, 0
32, 405840, Note_on_c, 14, 57, 92
32, 405891, Note_on_c, 14, 57, 0
32, 405900, Note_on_c, 14, 55, 92
32, 405951, Note_on_c, 14, 55, 0
32, 405960, Note_on_c, 14, 55, 92
32, 406064, Note_on_c, 14, 55, 0
32, 406080, Note_on_c, 14, 72, 92
32, 406184, Note_on_c, 14, 72, 0
32, 406200, Note_on_c, 14, 71, 92
32, 406304, Note_on_c, 14, 71, 0
32, 406320, Note_on_c, 14, 71, 92
32, 406424, Note_on_c, 14, 71, 0
32, 406440, Note_on_c, 14, 72, 92
32, 406544, Note_on_c, 14, 72, 0
32, 406560, Note_on_c, 14, 71, 92
32, 406664, Note_on_c, 14, 71, 0
32, 406680, Note_on_c, 14, 69, 92
32, 406784, Note_on_c, 14, 69, 0
32, 406800, Note_on_c, 14, 67, 92
32, 406904, Note_on_c, 14, 67, 0
32, 406920, Note_on_c, 14, 66, 92
32, 407024, Note_on_c, 14, 66, 0
32, 407040, Note_on_c, 14, 69, 92
32, 407144, Note_on_c, 14, 69, 0
32, 407160, Note_on_c, 14, 69, 92
32, 407264, Note_on_c, 14, 69, 0
32, 407280, Note_on_c, 14, 69, 92
32, 407384, Note_on_c, 14, 69, 0
32, 407400, Note_on_c, 14, 69, 92
32, 407504, Note_on_c, 14, 69, 0
32, 407520, Note_on_c, 14, 71, 92
32, 407624, Note_on_c, 14, 71, 0
32, 407640, Note_on_c, 14, 72, 92
32, 407744, Note_on_c, 14, 72, 0
32, 407760, Note_on_c, 14, 71, 92
32, 407864, Note_on_c, 14, 71, 0
32, 407880, Note_on_c, 14, 71, 92
32, 407984, Note_on_c, 14, 71, 0
32, 408000, Note_on_c, 14, 71, 92
32, 408104, Note_on_c, 14, 71, 0
32, 408120, Note_on_c, 14, 71, 92
32, 408224, Note_on_c, 14, 71, 0
32, 408240, Note_on_c, 14, 69, 92
32, 408344, Note_on_c, 14, 69, 0
32, 408360, Note_on_c, 14, 67, 92
32, 408464, Note_on_c, 14, 67, 0
32, 408480, Note_on_c, 14, 67, 92
32, 408584, Note_on_c, 14, 67, 0
32, 408600, Note_on_c, 14, 69, 92
32, 408704, Note_on_c, 14, 69, 0
32, 408720, Note_on_c, 14, 66, 92
32, 408824, Note_on_c, 14, 66, 0
32, 408840, Note_on_c, 14, 66, 92
32, 409064, Note_on_c, 14, 66, 0
32, 409080, Note_on_c, 14, 66, 92
32, 409184, Note_on_c, 14, 66, 0
32, 409200, Note_on_c, 14, 66, 92
32, 409424, Note_on_c, 14, 66, 0
32, 409440, Note_on_c, 14, 66, 92
32, 409544, Note_on_c, 14, 66, 0
32, 409560, Note_on_c, 14, 67, 92
32, 409784, Note_on_c, 14, 67, 0
32, 409800, Note_on_c, 14, 67, 92
32, 409904, Note_on_c, 14, 67, 0
32, 409920, Note_on_c, 14, 64, 92
32, 410144, Note_on_c, 14, 64, 0
32, 410160, Note_on_c, 14, 64, 92
32, 410264, Note_on_c, 14, 64, 0
32, 410280, Note_on_c, 14, 66, 92
32, 410504, Note_on_c, 14, 66, 0
32, 410520, Note_on_c, 14, 66, 92
32, 410624, Note_on_c, 14, 66, 0
32, 410640, Note_on_c, 14, 62, 92
32, 410864, Note_on_c, 14, 62, 0
32, 410880, Note_on_c, 14, 62, 92
32, 410984, Note_on_c, 14, 62, 0
32, 411000, Note_on_c, 14, 64, 92
32, 411224, Note_on_c, 14, 64, 0
32, 411240, Note_on_c, 14, 64, 92
32, 411344, Note_on_c, 14, 64, 0
32, 411360, Note_on_c, 14, 61, 92
32, 411584, Note_on_c, 14, 61, 0
32, 411600, Note_on_c, 14, 61, 92
32, 411704, Note_on_c, 14, 61, 0
32, 411720, Note_on_c, 14, 62, 92
32, 411944, Note_on_c, 14, 62, 0
32, 411960, Note_on_c, 14, 62, 92
32, 412064, Note_on_c, 14, 62, 0
32, 412080, Note_on_c, 14, 67, 92
32, 412184, Note_on_c, 14, 67, 0
32, 412200, Note_on_c, 14, 67, 92
32, 412304, Note_on_c, 14, 67, 0
32, 412320, Note_on_c, 14, 67, 92
32, 412424, Note_on_c, 14, 67, 0
32, 412440, Note_on_c, 14, 66, 92
32, 412544, Note_on_c, 14, 66, 0
32, 412560, Note_on_c, 14, 64, 92
32, 412664, Note_on_c, 14, 64, 0
32, 412680, Note_on_c, 14, 62, 92
32, 412784, Note_on_c, 14, 62, 0
32, 412800, Note_on_c, 14, 61, 92
32, 412904, Note_on_c, 14, 61, 0
32, 412920, Note_on_c, 14, 68, 92
32, 413024, Note_on_c, 14, 68, 0
32, 413040, Note_on_c, 14, 70, 92
32, 413144, Note_on_c, 14, 70, 0
32, 413160, Note_on_c, 14, 70, 98
32, 413264, Note_on_c, 14, 70, 0
32, 413280, Note_on_c, 14, 70, 92
32, 413384, Note_on_c, 14, 70, 0
32, 413400, Note_on_c, 14, 70, 92
32, 413504, Note_on_c, 14, 70, 0
32, 413520, Note_on_c, 14, 70, 92
32, 413624, Note_on_c, 14, 70, 0
32, 413640, Note_on_c, 14, 71, 92
32, 413744, Note_on_c, 14, 71, 0
32, 413760, Note_on_c, 14, 70, 92
32, 413864, Note_on_c, 14, 70, 0
32, 413880, Note_on_c, 14, 68, 92
32, 413984, Note_on_c, 14, 68, 0
32, 414000, Note_on_c, 14, 66, 92
32, 414104, Note_on_c, 14, 66, 0
32, 414120, Note_on_c, 14, 65, 92
32, 414224, Note_on_c, 14, 65, 0
32, 414240, Note_on_c, 14, 59, 92
32, 414344, Note_on_c, 14, 59, 0
32, 414360, Note_on_c, 14, 59, 92
32, 414464, Note_on_c, 14, 59, 0
32, 414480, Note_on_c, 14, 59, 92
32, 414584, Note_on_c, 14, 59, 0
32, 414600, Note_on_c, 14, 65, 104
32, 414704, Note_on_c, 14, 65, 0
32, 414720, Note_on_c, 14, 65, 92
32, 414824, Note_on_c, 14, 65, 0
32, 414840, Note_on_c, 14, 65, 92
32, 414944, Note_on_c, 14, 65, 0
32, 414960, Note_on_c, 14, 65, 92
32, 415064, Note_on_c, 14, 65, 0
32, 415080, Note_on_c, 14, 65, 92
32, 415184, Note_on_c, 14, 65, 0
32, 415200, Note_on_c, 14, 65, 92
32, 415304, Note_on_c, 14, 65, 0
32, 415320, Note_on_c, 14, 66, 92
32, 415424, Note_on_c, 14, 66, 0
32, 415440, Note_on_c, 14, 66, 92
32, 415544, Note_on_c, 14, 66, 0
32, 415560, Note_on_c, 14, 66, 92
32, 415664, Note_on_c, 14, 66, 0
32, 415680, Note_on_c, 14, 58, 92
32, 415784, Note_on_c, 14, 58, 0
32, 415800, Note_on_c, 14, 59, 92
32, 415904, Note_on_c, 14, 59, 0
32, 415920, Note_on_c, 14, 61, 92
32, 416024, Note_on_c, 14, 61, 0
32, 416040, Note_on_c, 14, 61, 104
32, 416144, Note_on_c, 14, 61, 0
32, 416160, Note_on_c, 14, 61, 92
32, 416264, Note_on_c, 14, 61, 0
32, 416280, Note_on_c, 14, 61, 92
32, 416384, Note_on_c, 14, 61, 0
32, 416400, Note_on_c, 14, 61, 92
32, 416504, Note_on_c, 14, 61, 0
32, 416520, Note_on_c, 14, 62, 92
32, 416624, Note_on_c, 14, 62, 0
32, 416640, Note_on_c, 14, 61, 92
32, 416744, Note_on_c, 14, 61, 0
32, 416760, Note_on_c, 14, 59, 92
32, 416864, Note_on_c, 14, 59, 0
32, 416880, Note_on_c, 14, 58, 92
32, 416984, Note_on_c, 14, 58, 0
32, 417000, Note_on_c, 14, 56, 92
32, 417104, Note_on_c, 14, 56, 0
32, 417120, Note_on_c, 14, 65, 92
32, 417224, Note_on_c, 14, 65, 0
32, 417240, Note_on_c, 14, 65, 92
32, 417344, Note_on_c, 14, 65, 0
32, 417360, Note_on_c, 14, 65, 92
32, 417464, Note_on_c, 14, 65, 0
32, 417480, Note_on_c, 14, 65, 104
32, 417584, Note_on_c, 14, 65, 0
32, 417600, Note_on_c, 14, 65, 92
32, 417704, Note_on_c, 14, 65, 0
32, 417720, Note_on_c, 14, 65, 92
32, 417824, Note_on_c, 14, 65, 0
32, 417840, Note_on_c, 14, 65, 92
32, 417944, Note_on_c, 14, 65, 0
32, 417960, Note_on_c, 14, 65, 92
32, 418064, Note_on_c, 14, 65, 0
32, 418080, Note_on_c, 14, 65, 92
32, 418184, Note_on_c, 14, 65, 0
32, 418200, Note_on_c, 14, 64, 92
32, 418304, Note_on_c, 14, 64, 0
32, 418320, Note_on_c, 14, 64, 92
32, 418424, Note_on_c, 14, 64, 0
32, 418440, Note_on_c, 14, 64, 92
32, 418544, Note_on_c, 14, 64, 0
32, 418560, Note_on_c, 14, 67, 92
32, 418664, Note_on_c, 14, 67, 0
32, 418680, Note_on_c, 14, 67, 92
32, 418784, Note_on_c, 14, 67, 0
32, 418800, Note_on_c, 14, 67, 92
32, 418904, Note_on_c, 14, 67, 0
32, 418920, Note_on_c, 14, 66, 92
32, 419024, Note_on_c, 14, 66, 0
32, 419040, Note_on_c, 14, 66, 92
32, 419144, Note_on_c, 14, 66, 0
32, 419160, Note_on_c, 14, 66, 92
32, 419264, Note_on_c, 14, 66, 0
32, 419280, Note_on_c, 14, 69, 92
32, 419384, Note_on_c, 14, 69, 0
32, 419400, Note_on_c, 14, 71, 92
32, 419504, Note_on_c, 14, 71, 0
32, 419520, Note_on_c, 14, 69, 92
32, 419624, Note_on_c, 14, 69, 0
32, 419640, Note_on_c, 14, 67, 92
32, 419744, Note_on_c, 14, 67, 0
32, 419760, Note_on_c, 14, 69, 92
32, 419864, Note_on_c, 14, 69, 0
32, 419880, Note_on_c, 14, 67, 92
32, 419984, Note_on_c, 14, 67, 0
32, 420000, Note_on_c, 14, 64, 92
32, 420104, Note_on_c, 14, 64, 0
32, 420120, Note_on_c, 14, 66, 92
32, 420224, Note_on_c, 14, 66, 0
32, 420240, Note_on_c, 14, 64, 92
32, 420344, Note_on_c, 14, 64, 0
32, 420360, Note_on_c, 14, 62, 92
32, 420464, Note_on_c, 14, 62, 0
32, 420480, Note_on_c, 14, 64, 92
32, 420584, Note_on_c, 14, 64, 0
32, 420600, Note_on_c, 14, 62, 92
32, 420704, Note_on_c, 14, 62, 0
32, 420720, Note_on_c, 14, 66, 92
32, 420824, Note_on_c, 14, 66, 0
32, 420840, Note_on_c, 14, 67, 92
32, 420944, Note_on_c, 14, 67, 0
32, 420960, Note_on_c, 14, 66, 92
32, 421064, Note_on_c, 14, 66, 0
32, 421080, Note_on_c, 14, 64, 92
32, 421184, Note_on_c, 14, 64, 0
32, 421200, Note_on_c, 14, 66, 92
32, 421304, Note_on_c, 14, 66, 0
32, 421320, Note_on_c, 14, 64, 92
32, 421424, Note_on_c, 14, 64, 0
32, 421440, Note_on_c, 14, 71, 92
32, 421544, Note_on_c, 14, 71, 0
32, 421560, Note_on_c, 14, 73, 92
32, 421664, Note_on_c, 14, 73, 0
32, 421680, Note_on_c, 14, 71, 92
32, 421784, Note_on_c, 14, 71, 0
32, 421800, Note_on_c, 14, 59, 92
32, 421904, Note_on_c, 14, 59, 0
32, 421920, Note_on_c, 14, 61, 92
32, 422024, Note_on_c, 14, 61, 0
32, 422040, Note_on_c, 14, 59, 92
32, 422144, Note_on_c, 14, 59, 0
32, 422160, Note_on_c, 14, 59, 92
32, 422264, Note_on_c, 14, 59, 0
32, 422280, Note_on_c, 14, 61, 92
32, 422384, Note_on_c, 14, 61, 0
32, 422400, Note_on_c, 14, 59, 92
32, 422504, Note_on_c, 14, 59, 0
32, 422520, Note_on_c, 14, 58, 92
32, 422624, Note_on_c, 14, 58, 0
32, 422640, Note_on_c, 14, 59, 92
32, 422744, Note_on_c, 14, 59, 0
32, 422760, Note_on_c, 14, 58, 92
32, 422864, Note_on_c, 14, 58, 0
32, 422880, Note_on_c, 14, 54, 92
32, 423104, Note_on_c, 14, 54, 0
32, 423120, Note_on_c, 14, 54, 92
32, 423224, Note_on_c, 14, 54, 0
32, 423240, Note_on_c, 14, 66, 104
32, 423299, Note_on_c, 14, 66, 0
32, 423300, Note_on_c, 14, 66, 92
32, 423824, Note_on_c, 14, 66, 0
32, 423840, Note_on_c, 14, 66, 92
32, 423944, Note_on_c, 14, 66, 0
32, 423960, Note_on_c, 14, 66, 104
32, 424019, Note_on_c, 14, 66, 0
32, 424020, Note_on_c, 14, 66, 92
32, 424544, Note_on_c, 14, 66, 0
32, 424560, Note_on_c, 14, 66, 92
32, 424664, Note_on_c, 14, 66, 0
32, 424680, Note_on_c, 14, 54, 104
32, 424739, Note_on_c, 14, 54, 0
32, 424740, Note_on_c, 14, 54, 92
32, 425264, Note_on_c, 14, 54, 0
32, 425280, Note_on_c, 14, 54, 92
32, 425384, Note_on_c, 14, 54, 0
32, 425400, Note_on_c, 14, 66, 104
32, 425459, Note_on_c, 14, 66, 0
32, 425460, Note_on_c, 14, 66, 92
32, 425984, Note_on_c, 14, 66, 0
32, 426000, Note_on_c, 14, 66, 92
32, 426104, Note_on_c, 14, 66, 0
32, 426120, Note_on_c, 14, 66, 104
32, 426179, Note_on_c, 14, 66, 0
32, 426180, Note_on_c, 14, 66, 92
32, 426704, Note_on_c, 14, 66, 0
32, 426720, Note_on_c, 14, 66, 92
32, 426824, Note_on_c, 14, 66, 0
32, 426840, Note_on_c, 14, 54, 104
32, 426899, Note_on_c, 14, 54, 0
32, 426900, Note_on_c, 14, 54, 92
32, 427424, Note_on_c, 14, 54, 0
32, 427440, Note_on_c, 14, 54, 92
32, 427544, Note_on_c, 14, 54, 0
32, 427560, Note_on_c, 14, 54, 104
32, 427619, Note_on_c, 14, 54, 0
32, 427620, Note_on_c, 14, 54, 92
32, 428144, Note_on_c, 14, 54, 0
32, 428160, Note_on_c, 14, 54, 92
32, 428264, Note_on_c, 14, 54, 0
32, 428280, Note_on_c, 14, 66, 104
32, 428339, Note_on_c, 14, 66, 0
32, 428340, Note_on_c, 14, 66, 92
32, 428879, Note_on_c, 14, 66, 0
32, 431520, Note_on_c, 14, 59, 44
32, 432239, Note_on_c, 14, 59, 0
32, 432240, Note_on_c, 14, 59, 44
32, 432959, Note_on_c, 14, 59, 0
32, 435840, Note_on_c, 14, 59, 32
32, 436559, Note_on_c, 14, 59, 0
32, 436560, Note_on_c, 14, 59, 32
32, 437279, Note_on_c, 14, 59, 0
32, 439800, Control_c, 14, 11, 29
32, 440160, Note_on_c, 14, 57, 92
32, 440160, Control_c, 14, 11, 29
32, 440184, Control_c, 14, 11, 31
32, 440208, Control_c, 14, 11, 32
32, 440232, Control_c, 14, 11, 34
32, 440256, Control_c, 14, 11, 36
32, 440280, Control_c, 14, 11, 37
32, 440304, Control_c, 14, 11, 39
32, 440328, Control_c, 14, 11, 40
32, 440352, Control_c, 14, 11, 42
32, 440376, Control_c, 14, 11, 44
32, 440400, Control_c, 14, 11, 45
32, 440424, Control_c, 14, 11, 47
32, 440448, Control_c, 14, 11, 49
32, 440472, Control_c, 14, 11, 50
32, 440496, Control_c, 14, 11, 52
32, 440520, Control_c, 14, 11, 54
32, 440544, Control_c, 14, 11, 55
32, 440568, Control_c, 14, 11, 57
32, 440592, Control_c, 14, 11, 58
32, 440616, Control_c, 14, 11, 60
32, 440640, Control_c, 14, 11, 62
32, 440664, Control_c, 14, 11, 63
32, 440688, Control_c, 14, 11, 65
32, 440712, Control_c, 14, 11, 67
32, 440736, Control_c, 14, 11, 68
32, 440760, Control_c, 14, 11, 70
32, 440784, Control_c, 14, 11, 71
32, 440808, Control_c, 14, 11, 73
32, 440832, Control_c, 14, 11, 75
32, 440856, Control_c, 14, 11, 76
32, 440879, Note_on_c, 14, 57, 0
32, 440880, Note_on_c, 14, 57, 92
32, 440880, Control_c, 14, 11, 78
32, 440904, Control_c, 14, 11, 80
32, 440928, Control_c, 14, 11, 81
32, 440952, Control_c, 14, 11, 83
32, 440976, Control_c, 14, 11, 85
32, 441000, Control_c, 14, 11, 86
32, 441024, Control_c, 14, 11, 88
32, 441048, Control_c, 14, 11, 89
32, 441072, Control_c, 14, 11, 91
32, 441096, Control_c, 14, 11, 93
32, 441120, Control_c, 14, 11, 94
32, 441144, Control_c, 14, 11, 96
32, 441168, Control_c, 14, 11, 98
32, 441192, Control_c, 14, 11, 99
32, 441216, Control_c, 14, 11, 101
32, 441240, Control_c, 14, 11, 103
32, 441264, Control_c, 14, 11, 104
32, 441288, Control_c, 14, 11, 106
32, 441312, Control_c, 14, 11, 107
32, 441336, Control_c, 14, 11, 109
32, 441359, Note_on_c, 14, 57, 0
32, 441360, Control_c, 14, 11, 111
32, 441360, Note_on_c, 14, 59, 92
32, 441384, Control_c, 14, 11, 112
32, 441408, Control_c, 14, 11, 114
32, 441432, Control_c, 14, 11, 116
32, 441456, Control_c, 14, 11, 117
32, 441479, Note_on_c, 14, 59, 0
32, 441480, Note_on_c, 14, 61, 92
32, 441480, Control_c, 14, 11, 119
32, 441504, Control_c, 14, 11, 120
32, 441528, Control_c, 14, 11, 122
32, 441552, Control_c, 14, 11, 124
32, 441576, Control_c, 14, 11, 127
32, 441584, Note_on_c, 14, 61, 0
32, 441600, Note_on_c, 14, 50, 92
32, 441689, Note_on_c, 14, 50, 0
32, 441720, Note_on_c, 14, 74, 92
32, 441809, Note_on_c, 14, 74, 0
32, 441840, Note_on_c, 14, 73, 92
32, 441929, Note_on_c, 14, 73, 0
32, 441960, Note_on_c, 14, 71, 92
32, 442049, Note_on_c, 14, 71, 0
32, 442080, Note_on_c, 14, 69, 92
32, 442169, Note_on_c, 14, 69, 0
32, 442200, Note_on_c, 14, 67, 92
32, 442289, Note_on_c, 14, 67, 0
32, 442320, Note_on_c, 14, 66, 92
32, 442409, Note_on_c, 14, 66, 0
32, 442440, Note_on_c, 14, 64, 92
32, 442529, Note_on_c, 14, 64, 0
32, 442560, Note_on_c, 14, 62, 92
32, 442649, Note_on_c, 14, 62, 0
32, 442680, Note_on_c, 14, 61, 92
32, 442769, Note_on_c, 14, 61, 0
32, 442800, Note_on_c, 14, 59, 92
32, 442889, Note_on_c, 14, 59, 0
32, 442920, Note_on_c, 14, 57, 92
32, 443009, Note_on_c, 14, 57, 0
32, 443040, Note_on_c, 14, 57, 92
32, 443129, Note_on_c, 14, 57, 0
32, 443160, Note_on_c, 14, 69, 92
32, 443249, Note_on_c, 14, 69, 0
32, 443280, Note_on_c, 14, 59, 92
32, 443369, Note_on_c, 14, 59, 0
32, 443400, Note_on_c, 14, 61, 92
32, 443489, Note_on_c, 14, 61, 0
32, 443520, Note_on_c, 14, 62, 92
32, 443609, Note_on_c, 14, 62, 0
32, 443640, Note_on_c, 14, 64, 92
32, 443729, Note_on_c, 14, 64, 0
32, 443760, Note_on_c, 14, 66, 92
32, 443849, Note_on_c, 14, 66, 0
32, 443880, Note_on_c, 14, 67, 92
32, 443969, Note_on_c, 14, 67, 0
32, 444000, Note_on_c, 14, 69, 92
32, 444089, Note_on_c, 14, 69, 0
32, 444120, Note_on_c, 14, 71, 92
32, 444209, Note_on_c, 14, 71, 0
32, 444240, Note_on_c, 14, 69, 92
32, 444329, Note_on_c, 14, 69, 0
32, 444360, Note_on_c, 14, 73, 92
32, 444449, Note_on_c, 14, 73, 0
32, 444480, Note_on_c, 14, 74, 92
32, 444569, Note_on_c, 14, 74, 0
32, 444600, Note_on_c, 14, 69, 92
32, 444689, Note_on_c, 14, 69, 0
32, 444720, Note_on_c, 14, 67, 92
32, 444809, Note_on_c, 14, 67, 0
32, 444840, Note_on_c, 14, 66, 92
32, 444929, Note_on_c, 14, 66, 0
32, 444960, Note_on_c, 14, 64, 92
32, 445049, Note_on_c, 14, 64, 0
32, 445080, Note_on_c, 14, 62, 92
32, 445169, Note_on_c, 14, 62, 0
32, 445200, Note_on_c, 14, 61, 92
32, 445289, Note_on_c, 14, 61, 0
32, 445320, Note_on_c, 14, 62, 92
32, 445409, Note_on_c, 14, 62, 0
32, 445440, Note_on_c, 14, 59, 92
32, 445529, Note_on_c, 14, 59, 0
32, 445560, Note_on_c, 14, 57, 92
32, 445649, Note_on_c, 14, 57, 0
32, 445680, Note_on_c, 14, 59, 92
32, 445769, Note_on_c, 14, 59, 0
32, 445800, Note_on_c, 14, 56, 92
32, 445889, Note_on_c, 14, 56, 0
32, 445920, Note_on_c, 14, 57, 92
32, 446009, Note_on_c, 14, 57, 0
32, 446040, Note_on_c, 14, 57, 92
32, 446129, Note_on_c, 14, 57, 0
32, 446160, Note_on_c, 14, 59, 92
32, 446249, Note_on_c, 14, 59, 0
32, 446280, Note_on_c, 14, 61, 92
32, 446369, Note_on_c, 14, 61, 0
32, 446400, Note_on_c, 14, 62, 92
32, 446489, Note_on_c, 14, 62, 0
32, 446520, Note_on_c, 14, 64, 92
32, 446609, Note_on_c, 14, 64, 0
32, 446640, Note_on_c, 14, 66, 92
32, 446729, Note_on_c, 14, 66, 0
32, 446760, Note_on_c, 14, 67, 92
32, 446849, Note_on_c, 14, 67, 0
32, 446880, Note_on_c, 14, 57, 92
32, 446969, Note_on_c, 14, 57, 0
32, 447000, Note_on_c, 14, 59, 92
32, 447089, Note_on_c, 14, 59, 0
32, 447120, Note_on_c, 14, 57, 92
32, 447209, Note_on_c, 14, 57, 0
32, 447240, Note_on_c, 14, 61, 92
32, 447329, Note_on_c, 14, 61, 0
32, 447360, Note_on_c, 14, 62, 92
32, 447449, Note_on_c, 14, 62, 0
32, 447480, Note_on_c, 14, 59, 92
32, 447569, Note_on_c, 14, 59, 0
32, 447600, Note_on_c, 14, 57, 92
32, 447689, Note_on_c, 14, 57, 0
32, 447720, Note_on_c, 14, 55, 92
32, 447809, Note_on_c, 14, 55, 0
32, 447840, Note_on_c, 14, 54, 92
32, 447929, Note_on_c, 14, 54, 0
32, 447960, Note_on_c, 14, 52, 92
32, 448049, Note_on_c, 14, 52, 0
32, 448080, Note_on_c, 14, 50, 92
32, 448169, Note_on_c, 14, 50, 0
32, 448200, Note_on_c, 14, 64, 92
32, 448289, Note_on_c, 14, 64, 0
32, 448320, Note_on_c, 14, 62, 92
32, 448409, Note_on_c, 14, 62, 0
32, 448440, Note_on_c, 14, 60, 92
32, 448529, Note_on_c, 14, 60, 0
32, 448560, Note_on_c, 14, 59, 92
32, 448649, Note_on_c, 14, 59, 0
32, 448680, Note_on_c, 14, 57, 92
32, 448769, Note_on_c, 14, 57, 0
32, 448800, Note_on_c, 14, 55, 92
32, 448889, Note_on_c, 14, 55, 0
32, 448920, Note_on_c, 14, 69, 92
32, 449009, Note_on_c, 14, 69, 0
32, 449040, Note_on_c, 14, 71, 92
32, 449129, Note_on_c, 14, 71, 0
32, 449160, Note_on_c, 14, 72, 92
32, 449249, Note_on_c, 14, 72, 0
32, 449280, Note_on_c, 14, 74, 92
32, 449369, Note_on_c, 14, 74, 0
32, 449400, Note_on_c, 14, 76, 92
32, 449489, Note_on_c, 14, 76, 0
32, 449520, Note_on_c, 14, 66, 92
32, 449609, Note_on_c, 14, 66, 0
32, 449640, Note_on_c, 14, 67, 92
32, 449729, Note_on_c, 14, 67, 0
32, 449760, Note_on_c, 14, 69, 92
32, 449849, Note_on_c, 14, 69, 0
32, 449880, Note_on_c, 14, 71, 92
32, 449969, Note_on_c, 14, 71, 0
32, 450000, Note_on_c, 14, 55, 92
32, 450089, Note_on_c, 14, 55, 0
32, 450120, Note_on_c, 14, 55, 92
32, 450209, Note_on_c, 14, 55, 0
32, 450240, Note_on_c, 14, 57, 92
32, 450329, Note_on_c, 14, 57, 0
32, 450360, Note_on_c, 14, 67, 92
32, 450449, Note_on_c, 14, 67, 0
32, 450480, Note_on_c, 14, 66, 92
32, 450569, Note_on_c, 14, 66, 0
32, 450600, Note_on_c, 14, 76, 92
32, 450689, Note_on_c, 14, 76, 0
32, 450720, Note_on_c, 14, 74, 92
32, 450809, Note_on_c, 14, 74, 0
32, 450840, Note_on_c, 14, 73, 92
32, 450929, Note_on_c, 14, 73, 0
32, 450960, Note_on_c, 14, 71, 92
32, 451049, Note_on_c, 14, 71, 0
32, 451080, Note_on_c, 14, 69, 92
32, 451169, Note_on_c, 14, 69, 0
32, 451200, Note_on_c, 14, 74, 92
32, 451289, Note_on_c, 14, 74, 0
32, 451320, Note_on_c, 14, 69, 92
32, 451409, Note_on_c, 14, 69, 0
32, 451440, Note_on_c, 14, 66, 92
32, 451529, Note_on_c, 14, 66, 0
32, 451560, Note_on_c, 14, 62, 92
32, 451649, Note_on_c, 14, 62, 0
32, 451680, Note_on_c, 14, 59, 92
32, 451769, Note_on_c, 14, 59, 0
32, 451800, Note_on_c, 14, 57, 92
32, 451889, Note_on_c, 14, 57, 0
32, 451920, Note_on_c, 14, 56, 92
32, 452009, Note_on_c, 14, 56, 0
32, 452040, Note_on_c, 14, 57, 92
32, 452129, Note_on_c, 14, 57, 0
32, 452160, Note_on_c, 14, 69, 92
32, 452249, Note_on_c, 14, 69, 0
32, 452280, Note_on_c, 14, 69, 92
32, 452369, Note_on_c, 14, 69, 0
32, 452400, Note_on_c, 14, 62, 92
32, 452489, Note_on_c, 14, 62, 0
32, 452520, Note_on_c, 14, 69, 92
32, 452609, Note_on_c, 14, 69, 0
32, 452640, Note_on_c, 14, 68, 92
32, 452729, Note_on_c, 14, 68, 0
32, 452760, Note_on_c, 14, 69, 92
32, 452849, Note_on_c, 14, 69, 0
32, 452880, Note_on_c, 14, 66, 92
32, 452969, Note_on_c, 14, 66, 0
32, 453000, Note_on_c, 14, 62, 92
32, 453089, Note_on_c, 14, 62, 0
32, 453120, Note_on_c, 14, 57, 92
32, 453209, Note_on_c, 14, 57, 0
32, 453240, Note_on_c, 14, 69, 92
32, 453329, Note_on_c, 14, 69, 0
32, 453360, Note_on_c, 14, 68, 92
32, 453449, Note_on_c, 14, 68, 0
32, 453480, Note_on_c, 14, 69, 92
32, 453569, Note_on_c, 14, 69, 0
32, 453600, Note_on_c, 14, 64, 92
32, 453689, Note_on_c, 14, 64, 0
32, 453720, Note_on_c, 14, 61, 92
32, 453809, Note_on_c, 14, 61, 0
32, 453840, Note_on_c, 14, 57, 92
32, 453929, Note_on_c, 14, 57, 0
32, 453960, Note_on_c, 14, 69, 92
32, 454049, Note_on_c, 14, 69, 0
32, 454080, Note_on_c, 14, 68, 92
32, 454169, Note_on_c, 14, 68, 0
32, 454200, Note_on_c, 14, 69, 92
32, 454289, Note_on_c, 14, 69, 0
32, 454320, Note_on_c, 14, 66, 92
32, 454409, Note_on_c, 14, 66, 0
32, 454440, Note_on_c, 14, 62, 92
32, 454529, Note_on_c, 14, 62, 0
32, 454560, Note_on_c, 14, 57, 92
32, 454649, Note_on_c, 14, 57, 0
32, 454680, Note_on_c, 14, 69, 92
32, 454769, Note_on_c, 14, 69, 0
32, 454800, Note_on_c, 14, 71, 92
32, 454889, Note_on_c, 14, 71, 0
32, 454920, Note_on_c, 14, 69, 92
32, 455009, Note_on_c, 14, 69, 0
32, 455040, Note_on_c, 14, 57, 92
32, 455129, Note_on_c, 14, 57, 0
32, 455160, Note_on_c, 14, 57, 92
32, 455249, Note_on_c, 14, 57, 0
32, 455280, Note_on_c, 14, 57, 92
32, 455369, Note_on_c, 14, 57, 0
32, 455400, Note_on_c, 14, 69, 92
32, 455489, Note_on_c, 14, 69, 0
32, 455520, Note_on_c, 14, 68, 92
32, 455609, Note_on_c, 14, 68, 0
32, 455640, Note_on_c, 14, 69, 92
32, 455729, Note_on_c, 14, 69, 0
32, 455760, Note_on_c, 14, 66, 92
32, 455849, Note_on_c, 14, 66, 0
32, 455880, Note_on_c, 14, 62, 92
32, 455969, Note_on_c, 14, 62, 0
32, 456000, Note_on_c, 14, 57, 92
32, 456089, Note_on_c, 14, 57, 0
32, 456120, Note_on_c, 14, 69, 92
32, 456209, Note_on_c, 14, 69, 0
32, 456240, Note_on_c, 14, 71, 92
32, 456329, Note_on_c, 14, 71, 0
32, 456360, Note_on_c, 14, 69, 92
32, 456449, Note_on_c, 14, 69, 0
32, 456480, Note_on_c, 14, 57, 92
32, 456569, Note_on_c, 14, 57, 0
32, 456600, Note_on_c, 14, 57, 92
32, 456689, Note_on_c, 14, 57, 0
32, 456720, Note_on_c, 14, 58, 92
32, 456809, Note_on_c, 14, 58, 0
32, 456840, Note_on_c, 14, 70, 92
32, 456929, Note_on_c, 14, 70, 0
32, 456960, Note_on_c, 14, 70, 92
32, 457049, Note_on_c, 14, 70, 0
32, 457080, Note_on_c, 14, 54, 92
32, 457169, Note_on_c, 14, 54, 0
32, 457200, Note_on_c, 14, 66, 92
32, 457289, Note_on_c, 14, 66, 0
32, 457320, Note_on_c, 14, 66, 92
32, 457409, Note_on_c, 14, 66, 0
32, 457440, Note_on_c, 14, 59, 92
32, 457529, Note_on_c, 14, 59, 0
32, 457560, Note_on_c, 14, 71, 92
32, 457649, Note_on_c, 14, 71, 0
32, 457680, Note_on_c, 14, 71, 92
32, 457769, Note_on_c, 14, 71, 0
32, 457800, Note_on_c, 14, 52, 92
32, 457889, Note_on_c, 14, 52, 0
32, 457920, Note_on_c, 14, 64, 92
32, 458009, Note_on_c, 14, 64, 0
32, 458040, Note_on_c, 14, 64, 92
32, 458129, Note_on_c, 14, 64, 0
32, 458160, Note_on_c, 14, 57, 92
32, 458249, Note_on_c, 14, 57, 0
32, 458280, Note_on_c, 14, 69, 92
32, 458369, Note_on_c, 14, 69, 0
32, 458400, Note_on_c, 14, 69, 92
32, 458489, Note_on_c, 14, 69, 0
32, 458520, Note_on_c, 14, 57, 92
32, 458609, Note_on_c, 14, 57, 0
32, 458640, Note_on_c, 14, 69, 92
32, 458729, Note_on_c, 14, 69, 0
32, 458760, Note_on_c, 14, 69, 92
32, 458849, Note_on_c, 14, 69, 0
32, 458880, Note_on_c, 14, 50, 92
32, 458969, Note_on_c, 14, 50, 0
32, 459000, Note_on_c, 14, 74, 92
32, 459089, Note_on_c, 14, 74, 0
32, 459120, Note_on_c, 14, 72, 92
32, 459209, Note_on_c, 14, 72, 0
32, 459240, Note_on_c, 14, 71, 92
32, 459329, Note_on_c, 14, 71, 0
32, 459360, Note_on_c, 14, 69, 92
32, 459449, Note_on_c, 14, 69, 0
32, 459480, Note_on_c, 14, 67, 92
32, 459569, Note_on_c, 14, 67, 0
32, 459600, Note_on_c, 14, 66, 92
32, 459689, Note_on_c, 14, 66, 0
32, 459720, Note_on_c, 14, 64, 92
32, 459809, Note_on_c, 14, 64, 0
32, 459840, Note_on_c, 14, 62, 92
32, 459929, Note_on_c, 14, 62, 0
32, 459960, Note_on_c, 14, 60, 92
32, 460049, Note_on_c, 14, 60, 0
32, 460080, Note_on_c, 14, 59, 92
32, 460169, Note_on_c, 14, 59, 0
32, 460200, Note_on_c, 14, 57, 92
32, 460289, Note_on_c, 14, 57, 0
32, 460320, Note_on_c, 14, 55, 92
32, 460409, Note_on_c, 14, 55, 0
32, 460440, Note_on_c, 14, 69, 92
32, 460529, Note_on_c, 14, 69, 0
32, 460560, Note_on_c, 14, 71, 92
32, 460649, Note_on_c, 14, 71, 0
32, 460680, Note_on_c, 14, 72, 92
32, 460769, Note_on_c, 14, 72, 0
32, 460800, Note_on_c, 14, 74, 92
32, 460889, Note_on_c, 14, 74, 0
32, 460920, Note_on_c, 14, 76, 92
32, 461009, Note_on_c, 14, 76, 0
32, 461040, Note_on_c, 14, 66, 92
32, 461129, Note_on_c, 14, 66, 0
32, 461160, Note_on_c, 14, 67, 92
32, 461249, Note_on_c, 14, 67, 0
32, 461280, Note_on_c, 14, 69, 92
32, 461369, Note_on_c, 14, 69, 0
32, 461400, Note_on_c, 14, 71, 92
32, 461489, Note_on_c, 14, 71, 0
32, 461520, Note_on_c, 14, 55, 92
32, 461609, Note_on_c, 14, 55, 0
32, 461640, Note_on_c, 14, 55, 92
32, 461729, Note_on_c, 14, 55, 0
32, 461760, Note_on_c, 14, 57, 92
32, 461849, Note_on_c, 14, 57, 0
32, 461880, Note_on_c, 14, 67, 92
32, 461969, Note_on_c, 14, 67, 0
32, 462000, Note_on_c, 14, 66, 92
32, 462089, Note_on_c, 14, 66, 0
32, 462120, Note_on_c, 14, 76, 92
32, 462209, Note_on_c, 14, 76, 0
32, 462240, Note_on_c, 14, 74, 92
32, 462329, Note_on_c, 14, 74, 0
32, 462360, Note_on_c, 14, 73, 92
32, 462449, Note_on_c, 14, 73, 0
32, 462480, Note_on_c, 14, 71, 92
32, 462569, Note_on_c, 14, 71, 0
32, 462600, Note_on_c, 14, 69, 92
32, 462689, Note_on_c, 14, 69, 0
32, 462720, Note_on_c, 14, 74, 92
32, 462809, Note_on_c, 14, 74, 0
32, 462840, Note_on_c, 14, 69, 92
32, 462929, Note_on_c, 14, 69, 0
32, 462960, Note_on_c, 14, 66, 92
32, 463049, Note_on_c, 14, 66, 0
32, 463080, Note_on_c, 14, 62, 92
32, 463169, Note_on_c, 14, 62, 0
32, 463200, Note_on_c, 14, 59, 92
32, 463289, Note_on_c, 14, 59, 0
32, 463320, Note_on_c, 14, 57, 92
32, 463409, Note_on_c, 14, 57, 0
32, 463440, Note_on_c, 14, 56, 92
32, 463529, Note_on_c, 14, 56, 0
32, 463560, Note_on_c, 14, 57, 92
32, 463649, Note_on_c, 14, 57, 0
32, 463680, Note_on_c, 14, 69, 92
32, 463769, Note_on_c, 14, 69, 0
32, 463800, Note_on_c, 14, 69, 92
32, 463889, Note_on_c, 14, 69, 0
32, 463920, Note_on_c, 14, 62, 92
32, 464009, Note_on_c, 14, 62, 0
32, 464040, Note_on_c, 14, 69, 92
32, 464129, Note_on_c, 14, 69, 0
32, 464160, Note_on_c, 14, 68, 92
32, 464249, Note_on_c, 14, 68, 0
32, 464280, Note_on_c, 14, 69, 92
32, 464369, Note_on_c, 14, 69, 0
32, 464400, Note_on_c, 14, 66, 92
32, 464489, Note_on_c, 14, 66, 0
32, 464520, Note_on_c, 14, 62, 92
32, 464609, Note_on_c, 14, 62, 0
32, 464640, Note_on_c, 14, 57, 92
32, 464729, Note_on_c, 14, 57, 0
32, 464760, Note_on_c, 14, 69, 92
32, 464849, Note_on_c, 14, 69, 0
32, 464880, Note_on_c, 14, 68, 92
32, 464969, Note_on_c, 14, 68, 0
32, 465000, Note_on_c, 14, 69, 92
32, 465089, Note_on_c, 14, 69, 0
32, 465120, Note_on_c, 14, 64, 92
32, 465209, Note_on_c, 14, 64, 0
32, 465240, Note_on_c, 14, 61, 92
32, 465329, Note_on_c, 14, 61, 0
32, 465360, Note_on_c, 14, 57, 92
32, 465449, Note_on_c, 14, 57, 0
32, 465480, Note_on_c, 14, 69, 92
32, 465569, Note_on_c, 14, 69, 0
32, 465600, Note_on_c, 14, 68, 92
32, 465689, Note_on_c, 14, 68, 0
32, 465720, Note_on_c, 14, 69, 92
32, 465809, Note_on_c, 14, 69, 0
32, 465840, Note_on_c, 14, 66, 92
32, 465929, Note_on_c, 14, 66, 0
32, 465960, Note_on_c, 14, 62, 92
32, 466049, Note_on_c, 14, 62, 0
32, 466080, Note_on_c, 14, 57, 92
32, 466169, Note_on_c, 14, 57, 0
32, 466200, Note_on_c, 14, 69, 92
32, 466289, Note_on_c, 14, 69, 0
32, 466320, Note_on_c, 14, 71, 92
32, 466409, Note_on_c, 14, 71, 0
32, 466440, Note_on_c, 14, 69, 92
32, 466529, Note_on_c, 14, 69, 0
32, 466560, Note_on_c, 14, 57, 92
32, 466649, Note_on_c, 14, 57, 0
32, 466680, Note_on_c, 14, 57, 92
32, 466769, Note_on_c, 14, 57, 0
32, 466800, Note_on_c, 14, 57, 92
32, 466889, Note_on_c, 14, 57, 0
32, 466920, Note_on_c, 14, 69, 92
32, 467009, Note_on_c, 14, 69, 0
32, 467040, Note_on_c, 14, 68, 92
32, 467129, Note_on_c, 14, 68, 0
32, 467160, Note_on_c, 14, 69, 92
32, 467249, Note_on_c, 14, 69, 0
32, 467280, Note_on_c, 14, 66, 92
32, 467369, Note_on_c, 14, 66, 0
32, 467400, Note_on_c, 14, 62, 92
32, 467489, Note_on_c, 14, 62, 0
32, 467520, Note_on_c, 14, 57, 92
32, 467609, Note_on_c, 14, 57, 0
32, 467640, Note_on_c, 14, 69, 92
32, 467729, Note_on_c, 14, 69, 0
32, 467760, Note_on_c, 14, 71, 92
32, 467849, Note_on_c, 14, 71, 0
32, 467880, Note_on_c, 14, 69, 92
32, 467969, Note_on_c, 14, 69, 0
32, 468000, Note_on_c, 14, 57, 92
32, 468089, Note_on_c, 14, 57, 0
32, 468120, Note_on_c, 14, 57, 92
32, 468209, Note_on_c, 14, 57, 0
32, 468240, Note_on_c, 14, 58, 92
32, 468329, Note_on_c, 14, 58, 0
32, 468360, Note_on_c, 14, 70, 92
32, 468449, Note_on_c, 14, 70, 0
32, 468480, Note_on_c, 14, 70, 92
32, 468569, Note_on_c, 14, 70, 0
32, 468600, Note_on_c, 14, 54, 92
32, 468689, Note_on_c, 14, 54, 0
32, 468720, Note_on_c, 14, 66, 92
32, 468809, Note_on_c, 14, 66, 0
32, 468840, Note_on_c, 14, 66, 92
32, 468929, Note_on_c, 14, 66, 0
32, 468960, Note_on_c, 14, 59, 92
32, 469049, Note_on_c, 14, 59, 0
32, 469080, Note_on_c, 14, 71, 92
32, 469169, Note_on_c, 14, 71, 0
32, 469200, Note_on_c, 14, 71, 92
32, 469289, Note_on_c, 14, 71, 0
32, 469320, Note_on_c, 14, 52, 92
32, 469409, Note_on_c, 14, 52, 0
32, 469440, Note_on_c, 14, 64, 92
32, 469529, Note_on_c, 14, 64, 0
32, 469560, Note_on_c, 14, 64, 92
32, 469649, Note_on_c, 14, 64, 0
32, 469680, Note_on_c, 14, 57, 92
32, 469769, Note_on_c, 14, 57, 0
32, 469800, Note_on_c, 14, 69, 92
32, 469889, Note_on_c, 14, 69, 0
32, 469920, Note_on_c, 14, 69, 92
32, 470009, Note_on_c, 14, 69, 0
32, 470040, Note_on_c, 14, 57, 92
32, 470129, Note_on_c, 14, 57, 0
32, 470160, Note_on_c, 14, 69, 92
32, 470249, Note_on_c, 14, 69, 0
32, 470280, Note_on_c, 14, 69, 92
32, 470369, Note_on_c, 14, 69, 0
32, 470400, Note_on_c, 14, 50, 92
32, 470489, Note_on_c, 14, 50, 0
32, 470520, Note_on_c, 14, 74, 92
32, 470609, Note_on_c, 14, 74, 0
32, 470640, Note_on_c, 14, 72, 92
32, 470729, Note_on_c, 14, 72, 0
32, 470760, Note_on_c, 14, 71, 92
32, 470849, Note_on_c, 14, 71, 0
32, 470880, Note_on_c, 14, 69, 92
32, 470969, Note_on_c, 14, 69, 0
32, 471000, Note_on_c, 14, 67, 92
32, 471089, Note_on_c, 14, 67, 0
32, 471120, Note_on_c, 14, 66, 92
32, 471209, Note_on_c, 14, 66, 0
32, 471240, Note_on_c, 14, 64, 92
32, 471329, Note_on_c, 14, 64, 0
32, 471360, Note_on_c, 14, 62, 92
32, 471449, Note_on_c, 14, 62, 0
32, 471480, Note_on_c, 14, 60, 92
32, 471569, Note_on_c, 14, 60, 0
32, 471600, Note_on_c, 14, 59, 92
32, 471689, Note_on_c, 14, 59, 0
32, 471720, Note_on_c, 14, 57, 92
32, 471809, Note_on_c, 14, 57, 0
32, 471840, Note_on_c, 14, 55, 92
32, 471929, Note_on_c, 14, 55, 0
32, 471960, Note_on_c, 14, 69, 92
32, 472049, Note_on_c, 14, 69, 0
32, 472080, Note_on_c, 14, 71, 92
32, 472169, Note_on_c, 14, 71, 0
32, 472200, Note_on_c, 14, 72, 92
32, 472289, Note_on_c, 14, 72, 0
32, 472320, Note_on_c, 14, 74, 92
32, 472409, Note_on_c, 14, 74, 0
32, 472440, Note_on_c, 14, 76, 92
32, 472529, Note_on_c, 14, 76, 0
32, 472560, Note_on_c, 14, 66, 92
32, 472649, Note_on_c, 14, 66, 0
32, 472680, Note_on_c, 14, 67, 92
32, 472769, Note_on_c, 14, 67, 0
32, 472800, Note_on_c, 14, 69, 92
32, 472889, Note_on_c, 14, 69, 0
32, 472920, Note_on_c, 14, 71, 92
32, 473009, Note_on_c, 14, 71, 0
32, 473040, Note_on_c, 14, 55, 92
32, 473129, Note_on_c, 14, 55, 0
32, 473160, Note_on_c, 14, 55, 92
32, 473249, Note_on_c, 14, 55, 0
32, 473280, Note_on_c, 14, 57, 92
32, 473369, Note_on_c, 14, 57, 0
32, 473400, Note_on_c, 14, 67, 92
32, 473489, Note_on_c, 14, 67, 0
32, 473520, Note_on_c, 14, 66, 92
32, 473609, Note_on_c, 14, 66, 0
32, 473640, Note_on_c, 14, 76, 92
32, 473729, Note_on_c, 14, 76, 0
32, 473760, Note_on_c, 14, 74, 92
32, 473849, Note_on_c, 14, 74, 0
32, 473880, Note_on_c, 14, 73, 92
32, 473969, Note_on_c, 14, 73, 0
32, 474000, Note_on_c, 14, 71, 92
32, 474089, Note_on_c, 14, 71, 0
32, 474120, Note_on_c, 14, 69, 92
32, 474209, Note_on_c, 14, 69, 0
32, 474240, Note_on_c, 14, 74, 92
32, 474329, Note_on_c, 14, 74, 0
32, 474360, Note_on_c, 14, 69, 92
32, 474449, Note_on_c, 14, 69, 0
32, 474480, Note_on_c, 14, 66, 92
32, 474569, Note_on_c, 14, 66, 0
32, 474600, Note_on_c, 14, 62, 92
32, 474689, Note_on_c, 14, 62, 0
32, 474720, Note_on_c, 14, 59, 92
32, 474809, Note_on_c, 14, 59, 0
32, 474840, Note_on_c, 14, 57, 92
32, 474929, Note_on_c, 14, 57, 0
32, 474960, Note_on_c, 14, 56, 92
32, 475049, Note_on_c, 14, 56, 0
32, 475080, Note_on_c, 14, 57, 92
32, 475169, Note_on_c, 14, 57, 0
32, 475200, Note_on_c, 14, 69, 92
32, 475289, Note_on_c, 14, 69, 0
32, 475320, Note_on_c, 14, 69, 92
32, 475409, Note_on_c, 14, 69, 0
32, 475440, Note_on_c, 14, 62, 92
32, 475529, Note_on_c, 14, 62, 0
32, 475560, Note_on_c, 14, 74, 92
32, 475649, Note_on_c, 14, 74, 0
32, 475680, Note_on_c, 14, 73, 92
32, 475769, Note_on_c, 14, 73, 0
32, 475800, Note_on_c, 14, 74, 92
32, 475889, Note_on_c, 14, 74, 0
32, 475920, Note_on_c, 14, 66, 92
32, 476009, Note_on_c, 14, 66, 0
32, 476040, Note_on_c, 14, 69, 92
32, 476129, Note_on_c, 14, 69, 0
32, 476160, Note_on_c, 14, 74, 104
32, 476249, Note_on_c, 14, 74, 0
32, 476280, Note_on_c, 14, 50, 92
32, 476369, Note_on_c, 14, 50, 0
32, 476400, Note_on_c, 14, 49, 92
32, 476489, Note_on_c, 14, 49, 0
32, 476520, Note_on_c, 14, 50, 92
32, 476609, Note_on_c, 14, 50, 0
32, 476640, Note_on_c, 14, 54, 92
32, 476729, Note_on_c, 14, 54, 0
32, 476760, Note_on_c, 14, 57, 92
32, 476849, Note_on_c, 14, 57, 0
32, 476880, Note_on_c, 14, 60, 92
32, 476969, Note_on_c, 14, 60, 0
32, 477000, Note_on_c, 14, 76, 92
32, 477089, Note_on_c, 14, 76, 0
32, 477120, Note_on_c, 14, 74, 92
32, 477209, Note_on_c, 14, 74, 0
32, 477240, Note_on_c, 14, 72, 92
32, 477329, Note_on_c, 14, 72, 0
32, 477360, Note_on_c, 14, 71, 92
32, 477449, Note_on_c, 14, 71, 0
32, 477480, Note_on_c, 14, 69, 92
32, 477569, Note_on_c, 14, 69, 0
32, 477600, Note_on_c, 14, 67, 104
32, 477689, Note_on_c, 14, 67, 0
32, 477720, Note_on_c, 14, 71, 92
32, 477809, Note_on_c, 14, 71, 0
32, 477840, Note_on_c, 14, 74, 92
32, 477929, Note_on_c, 14, 74, 0
32, 477960, Note_on_c, 14, 55, 92
32, 478049, Note_on_c, 14, 55, 0
32, 478080, Note_on_c, 14, 59, 92
32, 478169, Note_on_c, 14, 59, 0
32, 478200, Note_on_c, 14, 62, 92
32, 478289, Note_on_c, 14, 62, 0
32, 478320, Note_on_c, 14, 67, 92
32, 478679, Note_on_c, 14, 67, 0
32, 492000, Note_on_c, 14, 67, 80
32, 492179, Note_on_c, 14, 67, 0
32, 492240, Note_on_c, 14, 55, 92
32, 492319, Note_on_c, 14, 55, 0
32, 492320, Note_on_c, 14, 55, 80
32, 492699, Note_on_c, 14, 55, 0
32, 492720, Note_on_c, 14, 74, 92
32, 492799, Note_on_c, 14, 74, 0
32, 492800, Note_on_c, 14, 74, 80
32, 493179, Note_on_c, 14, 74, 0
32, 493200, Note_on_c, 14, 67, 80
32, 493379, Note_on_c, 14, 67, 0
32, 493440, Note_on_c, 14, 62, 80
32, 493619, Note_on_c, 14, 62, 0
32, 493680, Note_on_c, 14, 50, 92
32, 493759, Note_on_c, 14, 50, 0
32, 493760, Note_on_c, 14, 50, 80
32, 494139, Note_on_c, 14, 50, 0
32, 494160, Note_on_c, 14, 62, 92
32, 494239, Note_on_c, 14, 62, 0
32, 494240, Note_on_c, 14, 62, 80
32, 494619, Note_on_c, 14, 62, 0
32, 494640, Note_on_c, 14, 74, 80
32, 494819, Note_on_c, 14, 74, 0
32, 494880, Note_on_c, 14, 64, 80
32, 495099, Note_on_c, 14, 64, 0
32, 495120, Note_on_c, 14, 48, 92
32, 495199, Note_on_c, 14, 48, 0
32, 495200, Note_on_c, 14, 48, 80
32, 495579, Note_on_c, 14, 48, 0
32, 495600, Note_on_c, 14, 67, 92
32, 495600, Note_on_c, 14, 72, 92
32, 495679, Note_on_c, 14, 67, 0
32, 495679, Note_on_c, 14, 72, 0
32, 495680, Note_on_c, 14, 72, 80
32, 495680, Note_on_c, 14, 67, 80
32, 496059, Note_on_c, 14, 72, 0
32, 496059, Note_on_c, 14, 67, 0
32, 496080, Note_on_c, 14, 76, 80
32, 496299, Note_on_c, 14, 76, 0
32, 496320, Note_on_c, 14, 67, 80
32, 496539, Note_on_c, 14, 67, 0
32, 496560, Note_on_c, 14, 55, 92
32, 496639, Note_on_c, 14, 55, 0
32, 496640, Note_on_c, 14, 55, 80
32, 497019, Note_on_c, 14, 55, 0
32, 497040, Note_on_c, 14, 67, 92
32, 497119, Note_on_c, 14, 67, 0
32, 497120, Note_on_c, 14, 67, 80
32, 497499, Note_on_c, 14, 67, 0
32, 497520, Note_on_c, 14, 71, 80
32, 497739, Note_on_c, 14, 71, 0
32, 497760, Note_on_c, 14, 60, 80
32, 497979, Note_on_c, 14, 60, 0
32, 498000, Note_on_c, 14, 48, 92
32, 498079, Note_on_c, 14, 48, 0
32, 498080, Note_on_c, 14, 48, 80
32, 498459, Note_on_c, 14, 48, 0
32, 498480, Note_on_c, 14, 60, 92
32, 498559, Note_on_c, 14, 60, 0
32, 498560, Note_on_c, 14, 60, 80
32, 498939, Note_on_c, 14, 60, 0
32, 498960, Note_on_c, 14, 72, 80
32, 499179, Note_on_c, 14, 72, 0
32, 499200, Note_on_c, 14, 66, 80
32, 499419, Note_on_c, 14, 66, 0
32, 499440, Note_on_c, 14, 59, 80
32, 499659, Note_on_c, 14, 59, 0
32, 499680, Note_on_c, 14, 52, 80
32, 499899, Note_on_c, 14, 52, 0
32, 499920, Note_on_c, 14, 55, 92
32, 499999, Note_on_c, 14, 55, 0
32, 500000, Note_on_c, 14, 55, 80
32, 500379, Note_on_c, 14, 55, 0
32, 500400, Note_on_c, 14, 60, 80
32, 500639, Note_on_c, 14, 60, 0
32, 500640, Note_on_c, 14, 60, 92
32, 500859, Note_on_c, 14, 60, 0
32, 500880, Note_on_c, 14, 64, 92
32, 501339, Note_on_c, 14, 64, 0
32, 501360, Note_on_c, 14, 67, 92
32, 501819, Note_on_c, 14, 67, 0
32, 501840, Note_on_c, 14, 72, 92
32, 502059, Note_on_c, 14, 72, 0
32, 502080, Note_on_c, 14, 69, 92
32, 502080, Note_on_c, 14, 66, 92
32, 503519, Note_on_c, 14, 69, 0
32, 503519, Note_on_c, 14, 66, 0
32, 515040, Note_on_c, 14, 65, 80
32, 515219, Note_on_c, 14, 65, 0
32, 515280, Note_on_c, 14, 53, 92
32, 515359, Note_on_c, 14, 53, 0
32, 515360, Note_on_c, 14, 53, 80
32, 515739, Note_on_c, 14, 53, 0
32, 515760, Note_on_c, 14, 65, 92
32, 515839, Note_on_c, 14, 65, 0
32, 515840, Note_on_c, 14, 65, 80
32, 516219, Note_on_c, 14, 65, 0
32, 516240, Note_on_c, 14, 77, 80
32, 516479, Note_on_c, 14, 77, 0
32, 516480, Note_on_c, 14, 72, 80
32, 516699, Note_on_c, 14, 72, 0
32, 516720, Note_on_c, 14, 53, 80
32, 516899, Note_on_c, 14, 53, 0
32, 516960, Note_on_c, 14, 50, 80
32, 517139, Note_on_c, 14, 50, 0
32, 517200, Note_on_c, 14, 62, 92
32, 517279, Note_on_c, 14, 62, 0
32, 517280, Note_on_c, 14, 62, 80
32, 517659, Note_on_c, 14, 62, 0
32, 517680, Note_on_c, 14, 70, 92
32, 517759, Note_on_c, 14, 70, 0
32, 517760, Note_on_c, 14, 70, 80
32, 518139, Note_on_c, 14, 70, 0
32, 518160, Note_on_c, 14, 58, 80
32, 518619, Note_on_c, 14, 58, 0
32, 518640, Note_on_c, 14, 50, 80
32, 519099, Note_on_c, 14, 50, 0
32, 519120, Note_on_c, 14, 62, 80
32, 519299, Note_on_c, 14, 62, 0
32, 519360, Note_on_c, 14, 74, 80
32, 519539, Note_on_c, 14, 74, 0
32, 519600, Note_on_c, 14, 62, 80
32, 520059, Note_on_c, 14, 62, 0
32, 520080, Note_on_c, 14, 53, 80
32, 520539, Note_on_c, 14, 53, 0
32, 520560, Note_on_c, 14, 74, 80
32, 521019, Note_on_c, 14, 74, 0
32, 521040, Note_on_c, 14, 58, 80
32, 521499, Note_on_c, 14, 58, 0
32, 521520, Note_on_c, 14, 50, 80
32, 521699, Note_on_c, 14, 50, 0
32, 521760, Note_on_c, 14, 55, 80
32, 521760, Note_on_c, 14, 52, 80
32, 521939, Note_on_c, 14, 55, 0
32, 521939, Note_on_c, 14, 52, 0
32, 522000, Note_on_c, 14, 67, 80
32, 522179, Note_on_c, 14, 67, 0
32, 522240, Note_on_c, 14, 72, 80
32, 522419, Note_on_c, 14, 72, 0
32, 522480, Note_on_c, 14, 55, 80
32, 522939, Note_on_c, 14, 55, 0
32, 522960, Note_on_c, 14, 48, 80
32, 523419, Note_on_c, 14, 48, 0
32, 523440, Note_on_c, 14, 76, 92
32, 523519, Note_on_c, 14, 76, 0
32, 523520, Note_on_c, 14, 76, 80
32, 523679, Note_on_c, 14, 76, 0
32, 523680, Note_on_c, 14, 65, 92
32, 523759, Note_on_c, 14, 65, 0
32, 523760, Note_on_c, 14, 65, 80
32, 523919, Note_on_c, 14, 65, 0
32, 523920, Note_on_c, 14, 53, 92
32, 523999, Note_on_c, 14, 53, 0
32, 524000, Note_on_c, 14, 53, 80
32, 524379, Note_on_c, 14, 53, 0
32, 524400, Note_on_c, 14, 65, 80
32, 524579, Note_on_c, 14, 65, 0
32, 524640, Note_on_c, 14, 60, 80
32, 524819, Note_on_c, 14, 60, 0
32, 524880, Note_on_c, 14, 72, 80
32, 525059, Note_on_c, 14, 72, 0
32, 525120, Note_on_c, 14, 55, 80
32, 525339, Note_on_c, 14, 55, 0
32, 525360, Note_on_c, 14, 67, 80
32, 525360, Note_on_c, 14, 55, 80
32, 525839, Note_on_c, 14, 67, 0
32, 525839, Note_on_c, 14, 55, 0
32, 525840, Control_c, 14, 11, 49
32, 526080, Note_on_c, 14, 62, 92
32, 526080, Note_on_c, 14, 58, 92
32, 526080, Note_on_c, 14, 74, 92
32, 526560, Control_c, 14, 11, 49
32, 526600, Control_c, 14, 11, 52
32, 526640, Control_c, 14, 11, 55
32, 526680, Control_c, 14, 11, 59
32, 526720, Control_c, 14, 11, 62
32, 526760, Control_c, 14, 11, 65
32, 526800, Control_c, 14, 11, 69
32, 526840, Control_c, 14, 11, 72
32, 526880, Control_c, 14, 11, 75
32, 526920, Control_c, 14, 11, 79
32, 526960, Control_c, 14, 11, 82
32, 527000, Control_c, 14, 11, 85
32, 527040, Control_c, 14, 11, 89
32, 527120, Control_c, 14, 11, 85
32, 527200, Control_c, 14, 11, 82
32, 527280, Control_c, 14, 11, 79
32, 527360, Control_c, 14, 11, 75
32, 527440, Control_c, 14, 11, 72
32, 527504, Note_on_c, 14, 62, 0
32, 527504, Note_on_c, 14, 58, 0
32, 527504, Note_on_c, 14, 74, 0
32, 527520, Note_on_c, 14, 67, 92
32, 527520, Note_on_c, 14, 59, 92
32, 527520, Note_on_c, 14, 62, 92
32, 527520, Control_c, 14, 11, 69
32, 527600, Control_c, 14, 11, 65
32, 527680, Control_c, 14, 11, 62
32, 527760, Control_c, 14, 11, 59
32, 527840, Control_c, 14, 11, 55
32, 527920, Control_c, 14, 11, 52
32, 527984, Note_on_c, 14, 67, 0
32, 527984, Note_on_c, 14, 59, 0
32, 528000, Note_on_c, 14, 55, 92
32, 528000, Control_c, 14, 11, 49
32, 528000, Note_on_c, 14, 64, 92
32, 528464, Note_on_c, 14, 62, 0
32, 528464, Note_on_c, 14, 55, 0
32, 528480, Note_on_c, 14, 60, 92
32, 528944, Note_on_c, 14, 64, 0
32, 528944, Note_on_c, 14, 60, 0
32, 528960, Note_on_c, 14, 60, 92
32, 528960, Note_on_c, 14, 64, 92
32, 528960, Note_on_c, 14, 48, 92
32, 529440, Control_c, 14, 11, 49
32, 529480, Control_c, 14, 11, 50
32, 529520, Control_c, 14, 11, 51
32, 529560, Control_c, 14, 11, 52
32, 529600, Control_c, 14, 11, 53
32, 529640, Control_c, 14, 11, 55
32, 529680, Control_c, 14, 11, 56
32, 529720, Control_c, 14, 11, 57
32, 529760, Control_c, 14, 11, 58
32, 529800, Control_c, 14, 11, 59
32, 529840, Control_c, 14, 11, 60
32, 529880, Control_c, 14, 11, 61
32, 529904, Note_on_c, 14, 60, 0
32, 529904, Note_on_c, 14, 64, 0
32, 529904, Note_on_c, 14, 48, 0
32, 529920, Note_on_c, 14, 50, 92
32, 529920, Note_on_c, 14, 66, 92
32, 529920, Control_c, 14, 11, 62
32, 529920, Note_on_c, 14, 60, 92
32, 529960, Control_c, 14, 11, 63
32, 530000, Control_c, 14, 11, 65
32, 530040, Control_c, 14, 11, 66
32, 530080, Control_c, 14, 11, 67
32, 530120, Control_c, 14, 11, 68
32, 530160, Control_c, 14, 11, 69
32, 530200, Control_c, 14, 11, 70
32, 530240, Control_c, 14, 11, 71
32, 530280, Control_c, 14, 11, 72
32, 530320, Control_c, 14, 11, 73
32, 530360, Control_c, 14, 11, 75
32, 530400, Control_c, 14, 11, 76
32, 530440, Control_c, 14, 11, 77
32, 530480, Control_c, 14, 11, 78
32, 530520, Control_c, 14, 11, 79
32, 530560, Control_c, 14, 11, 80
32, 530600, Control_c, 14, 11, 81
32, 530624, Note_on_c, 14, 50, 0
32, 530624, Note_on_c, 14, 66, 0
32, 530624, Note_on_c, 14, 60, 0
32, 530640, Note_on_c, 14, 67, 92
32, 530640, Note_on_c, 14, 58, 92
32, 530640, Control_c, 14, 11, 82
32, 530640, Note_on_c, 14, 50, 92
32, 530680, Control_c, 14, 11, 83
32, 530720, Control_c, 14, 11, 85
32, 530760, Control_c, 14, 11, 86
32, 530800, Control_c, 14, 11, 87
32, 530840, Control_c, 14, 11, 88
32, 530864, Note_on_c, 14, 67, 0
32, 530864, Note_on_c, 14, 58, 0
32, 530864, Note_on_c, 14, 50, 0
32, 530880, Note_on_c, 14, 58, 92
32, 530880, Note_on_c, 14, 50, 92
32, 530880, Note_on_c, 14, 67, 92
32, 531239, Note_on_c, 14, 58, 0
32, 531239, Note_on_c, 14, 50, 0
32, 531239, Note_on_c, 14, 67, 0
32, 531360, Note_on_c, 14, 57, 92
32, 531360, Note_on_c, 14, 66, 92
32, 531360, Note_on_c, 14, 50, 92
32, 531360, Note_on_c, 14, 69, 92
32, 531824, Note_on_c, 14, 57, 0
32, 531824, Note_on_c, 14, 66, 0
32, 531824, Note_on_c, 14, 50, 0
32, 531824, Note_on_c, 14, 69, 0
32, 531838, Control_c, 14, 11, 49
32, 531840, Note_on_c, 14, 74, 92
32, 531840, Note_on_c, 14, 58, 92
32, 531840, Note_on_c, 14, 62, 92
32, 531840, Control_c, 14, 11, 49
32, 531867, Control_c, 14, 11, 50
32, 531893, Control_c, 14, 11, 51
32, 531920, Control_c, 14, 11, 52
32, 531947, Control_c, 14, 11, 53
32, 531973, Control_c, 14, 11, 55
32, 532000, Control_c, 14, 11, 56
32, 532027, Control_c, 14, 11, 57
32, 532053, Control_c, 14, 11, 58
32, 532080, Control_c, 14, 11, 59
32, 532107, Control_c, 14, 11, 60
32, 532133, Control_c, 14, 11, 61
32, 532160, Control_c, 14, 11, 62
32, 532187, Control_c, 14, 11, 63
32, 532213, Control_c, 14, 11, 65
32, 532240, Control_c, 14, 11, 66
32, 532267, Control_c, 14, 11, 67
32, 532293, Control_c, 14, 11, 68
32, 532320, Control_c, 14, 11, 69
32, 532347, Control_c, 14, 11, 70
32, 532373, Control_c, 14, 11, 71
32, 532400, Control_c, 14, 11, 72
32, 532427, Control_c, 14, 11, 73
32, 532453, Control_c, 14, 11, 75
32, 532480, Control_c, 14, 11, 76
32, 532507, Control_c, 14, 11, 77
32, 532533, Control_c, 14, 11, 78
32, 532560, Control_c, 14, 11, 79
32, 532587, Control_c, 14, 11, 80
32, 532613, Control_c, 14, 11, 81
32, 532640, Control_c, 14, 11, 82
32, 532667, Control_c, 14, 11, 83
32, 532693, Control_c, 14, 11, 85
32, 532720, Control_c, 14, 11, 86
32, 532747, Control_c, 14, 11, 87
32, 532773, Control_c, 14, 11, 88
32, 532800, Control_c, 14, 11, 89
32, 532827, Control_c, 14, 11, 87
32, 532853, Control_c, 14, 11, 85
32, 532880, Control_c, 14, 11, 82
32, 532907, Control_c, 14, 11, 80
32, 532933, Control_c, 14, 11, 78
32, 532960, Control_c, 14, 11, 76
32, 532987, Control_c, 14, 11, 73
32, 533013, Control_c, 14, 11, 71
32, 533040, Control_c, 14, 11, 69
32, 533067, Control_c, 14, 11, 67
32, 533093, Control_c, 14, 11, 65
32, 533120, Control_c, 14, 11, 62
32, 533147, Control_c, 14, 11, 60
32, 533173, Control_c, 14, 11, 58
32, 533200, Control_c, 14, 11, 56
32, 533227, Control_c, 14, 11, 53
32, 533253, Control_c, 14, 11, 49
32, 533504, Note_on_c, 14, 74, 0
32, 533504, Note_on_c, 14, 58, 0
32, 533504, Note_on_c, 14, 62, 0
32, 533520, Note_on_c, 14, 59, 92
32, 533520, Note_on_c, 14, 67, 92
32, 533520, Note_on_c, 14, 50, 92
32, 533699, Note_on_c, 14, 59, 0
32, 533699, Note_on_c, 14, 67, 0
32, 533699, Note_on_c, 14, 50, 0
32, 533760, Note_on_c, 14, 55, 92
32, 533760, Note_on_c, 14, 48, 92
32, 533760, Note_on_c, 14, 64, 92
32, 534119, Note_on_c, 14, 55, 0
32, 534119, Note_on_c, 14, 48, 0
32, 534119, Note_on_c, 14, 64, 0
32, 534240, Note_on_c, 14, 48, 92
32, 534240, Note_on_c, 14, 64, 92
32, 534240, Note_on_c, 14, 55, 92
32, 534599, Note_on_c, 14, 48, 0
32, 534599, Note_on_c, 14, 64, 0
32, 534599, Note_on_c, 14, 55, 0
32, 534720, Note_on_c, 14, 48, 92
32, 534720, Note_on_c, 14, 55, 92
32, 534720, Note_on_c, 14, 64, 92
32, 535199, Note_on_c, 14, 55, 0
32, 535200, Control_c, 14, 11, 49
32, 535200, Note_on_c, 14, 60, 92
32, 535248, Control_c, 14, 11, 50
32, 535296, Control_c, 14, 11, 51
32, 535344, Control_c, 14, 11, 52
32, 535392, Control_c, 14, 11, 53
32, 535440, Control_c, 14, 11, 54
32, 535488, Control_c, 14, 11, 55
32, 535536, Control_c, 14, 11, 56
32, 535584, Control_c, 14, 11, 57
32, 535632, Control_c, 14, 11, 58
32, 535679, Note_on_c, 14, 48, 0
32, 535679, Note_on_c, 14, 64, 0
32, 535679, Note_on_c, 14, 60, 0
32, 535680, Note_on_c, 14, 50, 92
32, 535680, Note_on_c, 14, 60, 92
32, 535680, Control_c, 14, 11, 59
32, 535680, Note_on_c, 14, 66, 92
32, 535728, Control_c, 14, 11, 60
32, 535776, Control_c, 14, 11, 61
32, 535824, Control_c, 14, 11, 62
32, 535872, Control_c, 14, 11, 63
32, 535920, Control_c, 14, 11, 64
32, 535968, Control_c, 14, 11, 65
32, 536016, Control_c, 14, 11, 66
32, 536064, Control_c, 14, 11, 67
32, 536112, Control_c, 14, 11, 68
32, 536160, Control_c, 14, 11, 69
32, 536208, Control_c, 14, 11, 70
32, 536256, Control_c, 14, 11, 71
32, 536304, Control_c, 14, 11, 72
32, 536352, Control_c, 14, 11, 73
32, 536384, Note_on_c, 14, 50, 0
32, 536384, Note_on_c, 14, 60, 0
32, 536384, Note_on_c, 14, 66, 0
32, 536400, Note_on_c, 14, 67, 92
32, 536400, Note_on_c, 14, 58, 92
32, 536400, Control_c, 14, 11, 74
32, 536400, Note_on_c, 14, 50, 92
32, 536448, Control_c, 14, 11, 75
32, 536496, Control_c, 14, 11, 76
32, 536544, Control_c, 14, 11, 77
32, 536592, Control_c, 14, 11, 78
32, 536624, Note_on_c, 14, 67, 0
32, 536624, Note_on_c, 14, 58, 0
32, 536624, Note_on_c, 14, 50, 0
32, 536640, Note_on_c, 14, 58, 92
32, 536640, Note_on_c, 14, 50, 92
32, 536640, Note_on_c, 14, 67, 92
32, 536640, Control_c, 14, 11, 79
32, 536688, Control_c, 14, 11, 80
32, 536736, Control_c, 14, 11, 81
32, 536784, Control_c, 14, 11, 82
32, 536832, Control_c, 14, 11, 83
32, 536880, Control_c, 14, 11, 84
32, 536928, Control_c, 14, 11, 85
32, 536976, Control_c, 14, 11, 86
32, 536999, Note_on_c, 14, 58, 0
32, 536999, Note_on_c, 14, 50, 0
32, 536999, Note_on_c, 14, 67, 0
32, 537024, Control_c, 14, 11, 87
32, 537072, Control_c, 14, 11, 88
32, 537120, Note_on_c, 14, 66, 92
32, 537120, Note_on_c, 14, 69, 92
32, 537120, Note_on_c, 14, 50, 92
32, 537120, Note_on_c, 14, 62, 92
32, 537479, Note_on_c, 14, 66, 0
32, 537479, Note_on_c, 14, 69, 0
32, 537479, Note_on_c, 14, 50, 0
32, 537479, Note_on_c, 14, 62, 0
32, 537598, Control_c, 14, 11, 29
32, 537600, Note_on_c, 14, 50, 92
32, 537600, Note_on_c, 14, 58, 92
32, 537600, Note_on_c, 14, 67, 92
32, 537600, Note_on_c, 14, 70, 92
32, 538080, Control_c, 14, 11, 29
32, 538119, Control_c, 14, 11, 30
32, 538158, Control_c, 14, 11, 31
32, 538198, Control_c, 14, 11, 32
32, 538237, Control_c, 14, 11, 33
32, 538276, Control_c, 14, 11, 34
32, 538315, Control_c, 14, 11, 35
32, 538354, Control_c, 14, 11, 36
32, 538393, Control_c, 14, 11, 37
32, 538433, Control_c, 14, 11, 38
32, 538472, Control_c, 14, 11, 39
32, 538511, Control_c, 14, 11, 40
32, 538544, Note_on_c, 14, 50, 0
32, 538544, Note_on_c, 14, 58, 0
32, 538544, Note_on_c, 14, 67, 0
32, 538544, Note_on_c, 14, 70, 0
32, 538550, Control_c, 14, 11, 41
32, 538560, Note_on_c, 14, 62, 92
32, 538560, Note_on_c, 14, 58, 92
32, 538560, Note_on_c, 14, 50, 92
32, 538560, Note_on_c, 14, 70, 92
32, 538589, Control_c, 14, 11, 42
32, 538629, Control_c, 14, 11, 43
32, 538668, Control_c, 14, 11, 44
32, 538707, Control_c, 14, 11, 45
32, 538746, Control_c, 14, 11, 46
32, 538785, Control_c, 14, 11, 47
32, 538824, Control_c, 14, 11, 48
32, 538864, Control_c, 14, 11, 49
32, 538903, Control_c, 14, 11, 50
32, 538942, Control_c, 14, 11, 51
32, 538981, Control_c, 14, 11, 52
32, 539020, Control_c, 14, 11, 53
32, 539060, Control_c, 14, 11, 54
32, 539099, Control_c, 14, 11, 55
32, 539138, Control_c, 14, 11, 56
32, 539177, Control_c, 14, 11, 57
32, 539216, Control_c, 14, 11, 58
32, 539256, Control_c, 14, 11, 59
32, 539264, Note_on_c, 14, 62, 0
32, 539264, Note_on_c, 14, 58, 0
32, 539264, Note_on_c, 14, 50, 0
32, 539264, Note_on_c, 14, 70, 0
32, 539280, Note_on_c, 14, 70, 92
32, 539280, Note_on_c, 14, 50, 92
32, 539280, Note_on_c, 14, 62, 92
32, 539280, Note_on_c, 14, 58, 92
32, 539295, Control_c, 14, 11, 60
32, 539334, Control_c, 14, 11, 61
32, 539373, Control_c, 14, 11, 62
32, 539412, Control_c, 14, 11, 63
32, 539451, Control_c, 14, 11, 64
32, 539491, Control_c, 14, 11, 65
32, 539504, Note_on_c, 14, 70, 0
32, 539504, Note_on_c, 14, 50, 0
32, 539504, Note_on_c, 14, 62, 0
32, 539504, Note_on_c, 14, 58, 0
32, 539520, Note_on_c, 14, 72, 92
32, 539520, Note_on_c, 14, 57, 92
32, 539520, Note_on_c, 14, 53, 92
32, 539520, Note_on_c, 14, 69, 92
32, 539530, Control_c, 14, 11, 66
32, 539569, Control_c, 14, 11, 67
32, 539608, Control_c, 14, 11, 68
32, 539647, Control_c, 14, 11, 69
32, 539687, Control_c, 14, 11, 70
32, 539726, Control_c, 14, 11, 71
32, 539765, Control_c, 14, 11, 72
32, 539804, Control_c, 14, 11, 73
32, 539843, Control_c, 14, 11, 74
32, 539882, Control_c, 14, 11, 75
32, 539922, Control_c, 14, 11, 76
32, 539961, Control_c, 14, 11, 77
32, 540000, Control_c, 14, 11, 78
32, 540039, Control_c, 14, 11, 79
32, 540078, Control_c, 14, 11, 80
32, 540118, Control_c, 14, 11, 81
32, 540157, Control_c, 14, 11, 82
32, 540196, Control_c, 14, 11, 83
32, 540235, Control_c, 14, 11, 84
32, 540274, Control_c, 14, 11, 85
32, 540313, Control_c, 14, 11, 86
32, 540353, Control_c, 14, 11, 87
32, 540392, Control_c, 14, 11, 88
32, 540431, Control_c, 14, 11, 89
32, 540464, Note_on_c, 14, 72, 0
32, 540464, Note_on_c, 14, 57, 0
32, 540464, Note_on_c, 14, 53, 0
32, 540464, Note_on_c, 14, 69, 0
32, 540470, Control_c, 14, 11, 90
32, 540480, Note_on_c, 14, 69, 92
32, 540480, Note_on_c, 14, 72, 92
32, 540480, Note_on_c, 14, 53, 92
32, 540480, Note_on_c, 14, 57, 92
32, 540509, Control_c, 14, 11, 91
32, 540549, Control_c, 14, 11, 92
32, 540588, Control_c, 14, 11, 93
32, 540627, Control_c, 14, 11, 94
32, 540666, Control_c, 14, 11, 95
32, 540705, Control_c, 14, 11, 96
32, 540744, Control_c, 14, 11, 97
32, 540784, Control_c, 14, 11, 98
32, 540823, Control_c, 14, 11, 99
32, 540862, Control_c, 14, 11, 100
32, 540901, Control_c, 14, 11, 101
32, 540940, Control_c, 14, 11, 102
32, 540944, Note_on_c, 14, 69, 0
32, 540944, Note_on_c, 14, 72, 0
32, 540944, Note_on_c, 14, 53, 0
32, 540944, Note_on_c, 14, 57, 0
32, 540960, Note_on_c, 14, 58, 92
32, 540960, Note_on_c, 14, 62, 92
32, 540960, Note_on_c, 14, 50, 92
32, 540960, Note_on_c, 14, 74, 92
32, 540980, Control_c, 14, 11, 103
32, 541019, Control_c, 14, 11, 104
32, 541058, Control_c, 14, 11, 105
32, 541097, Control_c, 14, 11, 106
32, 541136, Control_c, 14, 11, 107
32, 541176, Control_c, 14, 11, 108
32, 541215, Control_c, 14, 11, 109
32, 541254, Control_c, 14, 11, 110
32, 541293, Control_c, 14, 11, 111
32, 541332, Control_c, 14, 11, 112
32, 541371, Control_c, 14, 11, 113
32, 541411, Control_c, 14, 11, 114
32, 541424, Note_on_c, 14, 58, 0
32, 541424, Note_on_c, 14, 62, 0
32, 541424, Note_on_c, 14, 50, 0
32, 541424, Note_on_c, 14, 74, 0
32, 541440, Note_on_c, 14, 62, 92
32, 541440, Note_on_c, 14, 74, 92
32, 541440, Note_on_c, 14, 58, 92
32, 541450, Control_c, 14, 11, 115
32, 541489, Control_c, 14, 11, 116
32, 541528, Control_c, 14, 11, 117
32, 541567, Control_c, 14, 11, 118
32, 541607, Control_c, 14, 11, 119
32, 541646, Control_c, 14, 11, 120
32, 541685, Control_c, 14, 11, 121
32, 541724, Control_c, 14, 11, 122
32, 541763, Control_c, 14, 11, 123
32, 541802, Control_c, 14, 11, 124
32, 541842, Control_c, 14, 11, 125
32, 541881, Control_c, 14, 11, 127
32, 541904, Note_on_c, 14, 62, 0
32, 541904, Note_on_c, 14, 74, 0
32, 541904, Note_on_c, 14, 58, 0
32, 541920, Note_on_c, 14, 64, 92
32, 541920, Note_on_c, 14, 55, 92
32, 541920, Note_on_c, 14, 76, 92
32, 541920, Note_on_c, 14, 48, 92
32, 543344, Note_on_c, 14, 64, 0
32, 543344, Note_on_c, 14, 55, 0
32, 543344, Note_on_c, 14, 76, 0
32, 543344, Note_on_c, 14, 48, 0
32, 543358, Control_c, 14, 11, 49
32, 543360, Note_on_c, 14, 67, 92
32, 543360, Note_on_c, 14, 64, 92
32, 543840, Control_c, 14, 11, 27
32, 544784, Note_on_c, 14, 67, 0
32, 544784, Note_on_c, 14, 64, 0
32, 544800, Note_on_c, 14, 67, 92
32, 544800, Note_on_c, 14, 64, 92
32, 545264, Note_on_c, 14, 67, 0
32, 545264, Note_on_c, 14, 64, 0
32, 545280, Control_c, 14, 11, 27
32, 545280, Note_on_c, 14, 67, 92
32, 545280, Note_on_c, 14, 76, 92
32, 545280, Note_on_c, 14, 64, 92
32, 545280, Note_on_c, 14, 60, 92
32, 545320, Control_c, 14, 11, 28
32, 545360, Control_c, 14, 11, 29
32, 545400, Control_c, 14, 11, 30
32, 545440, Control_c, 14, 11, 31
32, 545480, Control_c, 14, 11, 33
32, 545520, Control_c, 14, 11, 34
32, 545560, Control_c, 14, 11, 35
32, 545600, Control_c, 14, 11, 36
32, 545640, Control_c, 14, 11, 37
32, 545680, Control_c, 14, 11, 38
32, 545720, Control_c, 14, 11, 39
32, 545760, Control_c, 14, 11, 40
32, 545800, Control_c, 14, 11, 41
32, 545840, Control_c, 14, 11, 43
32, 545880, Control_c, 14, 11, 44
32, 545920, Control_c, 14, 11, 45
32, 545960, Control_c, 14, 11, 46
32, 546000, Control_c, 14, 11, 47
32, 546040, Control_c, 14, 11, 48
32, 546080, Control_c, 14, 11, 49
32, 546120, Control_c, 14, 11, 50
32, 546160, Control_c, 14, 11, 51
32, 546200, Control_c, 14, 11, 53
32, 546224, Note_on_c, 14, 67, 0
32, 546224, Note_on_c, 14, 76, 0
32, 546224, Note_on_c, 14, 64, 0
32, 546224, Note_on_c, 14, 60, 0
32, 546240, Note_on_c, 14, 60, 92
32, 546240, Note_on_c, 14, 67, 92
32, 546240, Note_on_c, 14, 76, 92
32, 546240, Note_on_c, 14, 64, 92
32, 546240, Control_c, 14, 11, 54
32, 546280, Control_c, 14, 11, 55
32, 546320, Control_c, 14, 11, 56
32, 546360, Control_c, 14, 11, 57
32, 546400, Control_c, 14, 11, 58
32, 546440, Control_c, 14, 11, 59
32, 546480, Control_c, 14, 11, 60
32, 546520, Control_c, 14, 11, 61
32, 546560, Control_c, 14, 11, 63
32, 546600, Control_c, 14, 11, 64
32, 546640, Control_c, 14, 11, 65
32, 546680, Control_c, 14, 11, 66
32, 546704, Note_on_c, 14, 60, 0
32, 546704, Note_on_c, 14, 67, 0
32, 546704, Note_on_c, 14, 76, 0
32, 546704, Note_on_c, 14, 64, 0
32, 546720, Control_c, 14, 11, 67
32, 546720, Note_on_c, 14, 60, 92
32, 546720, Note_on_c, 14, 65, 92
32, 546720, Note_on_c, 14, 69, 92
32, 546760, Control_c, 14, 11, 68
32, 546800, Control_c, 14, 11, 69
32, 546840, Control_c, 14, 11, 70
32, 546880, Control_c, 14, 11, 71
32, 546920, Control_c, 14, 11, 73
32, 546960, Control_c, 14, 11, 74
32, 547000, Control_c, 14, 11, 75
32, 547040, Control_c, 14, 11, 76
32, 547080, Control_c, 14, 11, 77
32, 547120, Control_c, 14, 11, 78
32, 547160, Control_c, 14, 11, 79
32, 547199, Note_on_c, 14, 60, 0
32, 547200, Control_c, 14, 11, 80
32, 547200, Note_on_c, 14, 53, 92
32, 547240, Control_c, 14, 11, 81
32, 547280, Control_c, 14, 11, 83
32, 547320, Control_c, 14, 11, 84
32, 547360, Control_c, 14, 11, 85
32, 547400, Control_c, 14, 11, 86
32, 547440, Control_c, 14, 11, 87
32, 547480, Control_c, 14, 11, 88
32, 547520, Control_c, 14, 11, 89
32, 547560, Control_c, 14, 11, 90
32, 547600, Control_c, 14, 11, 91
32, 547640, Control_c, 14, 11, 93
32, 547664, Note_on_c, 14, 65, 0
32, 547664, Note_on_c, 14, 69, 0
32, 547664, Note_on_c, 14, 53, 0
32, 547680, Note_on_c, 14, 69, 92
32, 547680, Control_c, 14, 11, 94
32, 547680, Note_on_c, 14, 65, 92
32, 547720, Control_c, 14, 11, 95
32, 547760, Control_c, 14, 11, 96
32, 547800, Control_c, 14, 11, 97
32, 547840, Control_c, 14, 11, 98
32, 547880, Control_c, 14, 11, 99
32, 547920, Control_c, 14, 11, 100
32, 547960, Control_c, 14, 11, 101
32, 548000, Control_c, 14, 11, 103
32, 548040, Control_c, 14, 11, 104
32, 548080, Control_c, 14, 11, 105
32, 548120, Control_c, 14, 11, 107
32, 548144, Note_on_c, 14, 69, 0
32, 548144, Note_on_c, 14, 65, 0
32, 548160, Note_on_c, 14, 66, 92
32, 548160, Note_on_c, 14, 69, 92
32, 548160, Note_on_c, 14, 62, 92
32, 549599, Note_on_c, 14, 66, 0
32, 549599, Note_on_c, 14, 69, 0
32, 549599, Note_on_c, 14, 62, 0
32, 549840, Control_c, 14, 11, 127
32, 550080, Note_on_c, 14, 67, 92
32, 550080, Note_on_c, 14, 63, 92
32, 550784, Note_on_c, 14, 67, 0
32, 550784, Note_on_c, 14, 63, 0
32, 550800, Note_on_c, 14, 67, 92
32, 550800, Note_on_c, 14, 75, 92
32, 550800, Note_on_c, 14, 63, 92
32, 550800, Note_on_c, 14, 70, 92
32, 551024, Note_on_c, 14, 67, 0
32, 551024, Note_on_c, 14, 75, 0
32, 551024, Note_on_c, 14, 63, 0
32, 551024, Note_on_c, 14, 70, 0
32, 551040, Note_on_c, 14, 75, 92
32, 551040, Note_on_c, 14, 63, 92
32, 551040, Note_on_c, 14, 70, 92
32, 551040, Note_on_c, 14, 67, 92
32, 551984, Note_on_c, 14, 75, 0
32, 551984, Note_on_c, 14, 63, 0
32, 551984, Note_on_c, 14, 70, 0
32, 551984, Note_on_c, 14, 67, 0
32, 552000, Note_on_c, 14, 63, 92
32, 552000, Note_on_c, 14, 70, 92
32, 552000, Note_on_c, 14, 75, 92
32, 552000, Note_on_c, 14, 67, 92
32, 552464, Note_on_c, 14, 63, 0
32, 552464, Note_on_c, 14, 70, 0
32, 552464, Note_on_c, 14, 75, 0
32, 552464, Note_on_c, 14, 67, 0
32, 552480, Note_on_c, 14, 67, 92
32, 552480, Note_on_c, 14, 75, 92
32, 552480, Note_on_c, 14, 63, 92
32, 552480, Note_on_c, 14, 70, 92
32, 552944, Note_on_c, 14, 67, 0
32, 552944, Note_on_c, 14, 75, 0
32, 552944, Note_on_c, 14, 63, 0
32, 552944, Note_on_c, 14, 70, 0
32, 552960, Note_on_c, 14, 75, 92
32, 552960, Note_on_c, 14, 67, 92
32, 552960, Note_on_c, 14, 70, 92
32, 552960, Note_on_c, 14, 63, 92
32, 553904, Note_on_c, 14, 75, 0
32, 553904, Note_on_c, 14, 67, 0
32, 553904, Note_on_c, 14, 70, 0
32, 553904, Note_on_c, 14, 63, 0
32, 553920, Note_on_c, 14, 63, 92
32, 553920, Note_on_c, 14, 70, 92
32, 553920, Note_on_c, 14, 67, 92
32, 553920, Note_on_c, 14, 75, 92
32, 554864, Note_on_c, 14, 63, 0
32, 554864, Note_on_c, 14, 70, 0
32, 554864, Note_on_c, 14, 67, 0
32, 554864, Note_on_c, 14, 75, 0
32, 554880, Note_on_c, 14, 75, 92
32, 554880, Note_on_c, 14, 70, 92
32, 554880, Note_on_c, 14, 67, 92
32, 554880, Note_on_c, 14, 63, 92
32, 555359, Note_on_c, 14, 75, 0
32, 555359, Note_on_c, 14, 70, 0
32, 555359, Note_on_c, 14, 67, 0
32, 555359, Note_on_c, 14, 63, 0
32, 555840, Note_on_c, 14, 70, 32
32, 555840, Note_on_c, 14, 67, 32
32, 557744, Note_on_c, 14, 70, 0
32, 557744, Note_on_c, 14, 67, 0
32, 557760, Note_on_c, 14, 67, 32
32, 557760, Note_on_c, 14, 70, 32
32, 558704, Note_on_c, 14, 67, 0
32, 558704, Note_on_c, 14, 70, 0
32, 558720, Note_on_c, 14, 67, 32
32, 558720, Note_on_c, 14, 70, 32
32, 560144, Note_on_c, 14, 67, 0
32, 560144, Note_on_c, 14, 70, 0
32, 560160, Note_on_c, 14, 67, 32
32, 560160, Note_on_c, 14, 76, 32
32, 560211, Note_on_c, 14, 67, 0
32, 560211, Note_on_c, 14, 76, 0
32, 560220, Note_on_c, 14, 76, 32
32, 560220, Note_on_c, 14, 67, 32
32, 560271, Note_on_c, 14, 76, 0
32, 560271, Note_on_c, 14, 67, 0
32, 560280, Note_on_c, 14, 67, 32
32, 560280, Note_on_c, 14, 76, 32
32, 560331, Note_on_c, 14, 67, 0
32, 560331, Note_on_c, 14, 76, 0
32, 560340, Note_on_c, 14, 67, 32
32, 560340, Note_on_c, 14, 76, 32
32, 560391, Note_on_c, 14, 67, 0
32, 560391, Note_on_c, 14, 76, 0
32, 560400, Note_on_c, 14, 67, 32
32, 560400, Note_on_c, 14, 76, 32
32, 560451, Note_on_c, 14, 67, 0
32, 560451, Note_on_c, 14, 76, 0
32, 560460, Note_on_c, 14, 67, 32
32, 560460, Note_on_c, 14, 76, 32
32, 560511, Note_on_c, 14, 67, 0
32, 560511, Note_on_c, 14, 76, 0
32, 560520, Note_on_c, 14, 76, 32
32, 560520, Note_on_c, 14, 67, 32
32, 560571, Note_on_c, 14, 76, 0
32, 560571, Note_on_c, 14, 67, 0
32, 560580, Note_on_c, 14, 76, 32
32, 560580, Note_on_c, 14, 67, 32
32, 560631, Note_on_c, 14, 76, 0
32, 560631, Note_on_c, 14, 67, 0
32, 560640, Note_on_c, 14, 76, 32
32, 560640, Note_on_c, 14, 67, 32
32, 560691, Note_on_c, 14, 76, 0
32, 560691, Note_on_c, 14, 67, 0
32, 560700, Note_on_c, 14, 76, 32
32, 560700, Note_on_c, 14, 67, 32
32, 560751, Note_on_c, 14, 76, 0
32, 560751, Note_on_c, 14, 67, 0
32, 560760, Note_on_c, 14, 67, 32
32, 560760, Note_on_c, 14, 76, 32
32, 560811, Note_on_c, 14, 67, 0
32, 560811, Note_on_c, 14, 76, 0
32, 560820, Note_on_c, 14, 67, 32
32, 560820, Note_on_c, 14, 76, 32
32, 560871, Note_on_c, 14, 67, 0
32, 560871, Note_on_c, 14, 76, 0
32, 560880, Note_on_c, 14, 67, 32
32, 560880, Note_on_c, 14, 76, 32
32, 560931, Note_on_c, 14, 67, 0
32, 560931, Note_on_c, 14, 76, 0
32, 560940, Note_on_c, 14, 67, 32
32, 560940, Note_on_c, 14, 76, 32
32, 560991, Note_on_c, 14, 67, 0
32, 560991, Note_on_c, 14, 76, 0
32, 561000, Note_on_c, 14, 67, 32
32, 561000, Note_on_c, 14, 76, 32
32, 561051, Note_on_c, 14, 67, 0
32, 561051, Note_on_c, 14, 76, 0
32, 561060, Note_on_c, 14, 67, 32
32, 561060, Note_on_c, 14, 76, 32
32, 561111, Note_on_c, 14, 67, 0
32, 561111, Note_on_c, 14, 76, 0
32, 561120, Note_on_c, 14, 67, 32
32, 561120, Note_on_c, 14, 76, 32
32, 561171, Note_on_c, 14, 67, 0
32, 561171, Note_on_c, 14, 76, 0
32, 561180, Note_on_c, 14, 76, 32
32, 561180, Note_on_c, 14, 67, 32
32, 561231, Note_on_c, 14, 76, 0
32, 561231, Note_on_c, 14, 67, 0
32, 561240, Note_on_c, 14, 67, 32
32, 561240, Note_on_c, 14, 76, 32
32, 561291, Note_on_c, 14, 67, 0
32, 561291, Note_on_c, 14, 76, 0
32, 561300, Note_on_c, 14, 67, 32
32, 561300, Note_on_c, 14, 76, 32
32, 561351, Note_on_c, 14, 67, 0
32, 561351, Note_on_c, 14, 76, 0
32, 561360, Note_on_c, 14, 76, 32
32, 561360, Note_on_c, 14, 67, 32
32, 561411, Note_on_c, 14, 76, 0
32, 561411, Note_on_c, 14, 67, 0
32, 561420, Note_on_c, 14, 76, 32
32, 561420, Note_on_c, 14, 67, 32
32, 561471, Note_on_c, 14, 76, 0
32, 561471, Note_on_c, 14, 67, 0
32, 561480, Note_on_c, 14, 67, 32
32, 561480, Note_on_c, 14, 76, 32
32, 561531, Note_on_c, 14, 67, 0
32, 561531, Note_on_c, 14, 76, 0
32, 561540, Note_on_c, 14, 76, 32
32, 561540, Note_on_c, 14, 67, 32
32, 561591, Note_on_c, 14, 76, 0
32, 561591, Note_on_c, 14, 67, 0
32, 561600, Note_on_c, 14, 67, 32
32, 561600, Note_on_c, 14, 76, 32
32, 561651, Note_on_c, 14, 67, 0
32, 561651, Note_on_c, 14, 76, 0
32, 561660, Note_on_c, 14, 76, 32
32, 561660, Note_on_c, 14, 67, 32
32, 561711, Note_on_c, 14, 76, 0
32, 561711, Note_on_c, 14, 67, 0
32, 561720, Note_on_c, 14, 67, 32
32, 561720, Note_on_c, 14, 76, 32
32, 561771, Note_on_c, 14, 67, 0
32, 561771, Note_on_c, 14, 76, 0
32, 561780, Note_on_c, 14, 76, 32
32, 561780, Note_on_c, 14, 67, 32
32, 561831, Note_on_c, 14, 76, 0
32, 561831, Note_on_c, 14, 67, 0
32, 561840, Note_on_c, 14, 76, 32
32, 561840, Note_on_c, 14, 67, 32
32, 561891, Note_on_c, 14, 76, 0
32, 561891, Note_on_c, 14, 67, 0
32, 561900, Note_on_c, 14, 67, 32
32, 561900, Note_on_c, 14, 76, 32
32, 561951, Note_on_c, 14, 67, 0
32, 561951, Note_on_c, 14, 76, 0
32, 561960, Note_on_c, 14, 67, 32
32, 561960, Note_on_c, 14, 76, 32
32, 562011, Note_on_c, 14, 67, 0
32, 562011, Note_on_c, 14, 76, 0
32, 562020, Note_on_c, 14, 76, 32
32, 562020, Note_on_c, 14, 67, 32
32, 562071, Note_on_c, 14, 76, 0
32, 562071, Note_on_c, 14, 67, 0
32, 562080, Note_on_c, 14, 67, 32
32, 562080, Note_on_c, 14, 76, 32
32, 562131, Note_on_c, 14, 67, 0
32, 562131, Note_on_c, 14, 76, 0
32, 562140, Note_on_c, 14, 76, 32
32, 562140, Note_on_c, 14, 67, 32
32, 562191, Note_on_c, 14, 76, 0
32, 562191, Note_on_c, 14, 67, 0
32, 562200, Note_on_c, 14, 67, 32
32, 562200, Note_on_c, 14, 76, 32
32, 562251, Note_on_c, 14, 67, 0
32, 562251, Note_on_c, 14, 76, 0
32, 562260, Note_on_c, 14, 67, 32
32, 562260, Note_on_c, 14, 76, 32
32, 562311, Note_on_c, 14, 67, 0
32, 562311, Note_on_c, 14, 76, 0
32, 562320, Note_on_c, 14, 76, 32
32, 562320, Note_on_c, 14, 67, 32
32, 562371, Note_on_c, 14, 76, 0
32, 562371, Note_on_c, 14, 67, 0
32, 562380, Note_on_c, 14, 67, 32
32, 562380, Note_on_c, 14, 76, 32
32, 562431, Note_on_c, 14, 67, 0
32, 562431, Note_on_c, 14, 76, 0
32, 562440, Note_on_c, 14, 67, 32
32, 562440, Note_on_c, 14, 76, 32
32, 562491, Note_on_c, 14, 67, 0
32, 562491, Note_on_c, 14, 76, 0
32, 562500, Note_on_c, 14, 67, 32
32, 562500, Note_on_c, 14, 76, 32
32, 562551, Note_on_c, 14, 67, 0
32, 562551, Note_on_c, 14, 76, 0
32, 562560, Note_on_c, 14, 67, 32
32, 562560, Note_on_c, 14, 76, 32
32, 562611, Note_on_c, 14, 67, 0
32, 562611, Note_on_c, 14, 76, 0
32, 562620, Note_on_c, 14, 67, 32
32, 562620, Note_on_c, 14, 76, 32
32, 562671, Note_on_c, 14, 67, 0
32, 562671, Note_on_c, 14, 76, 0
32, 562680, Note_on_c, 14, 67, 32
32, 562680, Note_on_c, 14, 76, 32
32, 562731, Note_on_c, 14, 67, 0
32, 562731, Note_on_c, 14, 76, 0
32, 562740, Note_on_c, 14, 67, 32
32, 562740, Note_on_c, 14, 76, 32
32, 562791, Note_on_c, 14, 67, 0
32, 562791, Note_on_c, 14, 76, 0
32, 562800, Note_on_c, 14, 67, 32
32, 562800, Note_on_c, 14, 76, 32
32, 562851, Note_on_c, 14, 67, 0
32, 562851, Note_on_c, 14, 76, 0
32, 562860, Note_on_c, 14, 76, 32
32, 562860, Note_on_c, 14, 67, 32
32, 562911, Note_on_c, 14, 76, 0
32, 562911, Note_on_c, 14, 67, 0
32, 562920, Note_on_c, 14, 67, 32
32, 562920, Note_on_c, 14, 76, 32
32, 562971, Note_on_c, 14, 67, 0
32, 562971, Note_on_c, 14, 76, 0
32, 562980, Note_on_c, 14, 76, 32
32, 562980, Note_on_c, 14, 67, 32
32, 563031, Note_on_c, 14, 76, 0
32, 563031, Note_on_c, 14, 67, 0
32, 563040, Note_on_c, 14, 76, 32
32, 563040, Note_on_c, 14, 67, 32
32, 563091, Note_on_c, 14, 76, 0
32, 563091, Note_on_c, 14, 67, 0
32, 563100, Note_on_c, 14, 67, 32
32, 563100, Note_on_c, 14, 76, 32
32, 563151, Note_on_c, 14, 67, 0
32, 563151, Note_on_c, 14, 76, 0
32, 563160, Note_on_c, 14, 76, 32
32, 563160, Note_on_c, 14, 67, 32
32, 563211, Note_on_c, 14, 76, 0
32, 563211, Note_on_c, 14, 67, 0
32, 563220, Note_on_c, 14, 67, 32
32, 563220, Note_on_c, 14, 76, 32
32, 563271, Note_on_c, 14, 67, 0
32, 563271, Note_on_c, 14, 76, 0
32, 563280, Note_on_c, 14, 76, 32
32, 563280, Note_on_c, 14, 67, 32
32, 563331, Note_on_c, 14, 76, 0
32, 563331, Note_on_c, 14, 67, 0
32, 563340, Note_on_c, 14, 76, 32
32, 563340, Note_on_c, 14, 67, 32
32, 563391, Note_on_c, 14, 76, 0
32, 563391, Note_on_c, 14, 67, 0
32, 563400, Note_on_c, 14, 76, 32
32, 563400, Note_on_c, 14, 67, 32
32, 563451, Note_on_c, 14, 76, 0
32, 563451, Note_on_c, 14, 67, 0
32, 563460, Note_on_c, 14, 76, 32
32, 563460, Note_on_c, 14, 67, 32
32, 563511, Note_on_c, 14, 76, 0
32, 563511, Note_on_c, 14, 67, 0
32, 563520, Note_on_c, 14, 76, 32
32, 563520, Note_on_c, 14, 67, 32
32, 563571, Note_on_c, 14, 76, 0
32, 563571, Note_on_c, 14, 67, 0
32, 563580, Note_on_c, 14, 76, 32
32, 563580, Note_on_c, 14, 67, 32
32, 563631, Note_on_c, 14, 76, 0
32, 563631, Note_on_c, 14, 67, 0
32, 563640, Note_on_c, 14, 76, 32
32, 563640, Note_on_c, 14, 67, 32
32, 563691, Note_on_c, 14, 76, 0
32, 563691, Note_on_c, 14, 67, 0
32, 563700, Note_on_c, 14, 76, 32
32, 563700, Note_on_c, 14, 67, 32
32, 563751, Note_on_c, 14, 76, 0
32, 563751, Note_on_c, 14, 67, 0
32, 563760, Note_on_c, 14, 67, 32
32, 563760, Note_on_c, 14, 76, 32
32, 563811, Note_on_c, 14, 67, 0
32, 563811, Note_on_c, 14, 76, 0
32, 563820, Note_on_c, 14, 67, 32
32, 563820, Note_on_c, 14, 76, 32
32, 563871, Note_on_c, 14, 67, 0
32, 563871, Note_on_c, 14, 76, 0
32, 563880, Note_on_c, 14, 67, 32
32, 563880, Note_on_c, 14, 76, 32
32, 563931, Note_on_c, 14, 67, 0
32, 563931, Note_on_c, 14, 76, 0
32, 563940, Note_on_c, 14, 76, 32
32, 563940, Note_on_c, 14, 67, 32
32, 563991, Note_on_c, 14, 76, 0
32, 563991, Note_on_c, 14, 67, 0
32, 564000, Note_on_c, 14, 76, 32
32, 564000, Note_on_c, 14, 67, 32
32, 564051, Note_on_c, 14, 76, 0
32, 564051, Note_on_c, 14, 67, 0
32, 564060, Note_on_c, 14, 76, 32
32, 564060, Note_on_c, 14, 67, 32
32, 564111, Note_on_c, 14, 76, 0
32, 564111, Note_on_c, 14, 67, 0
32, 564120, Note_on_c, 14, 76, 32
32, 564120, Note_on_c, 14, 67, 32
32, 564171, Note_on_c, 14, 76, 0
32, 564171, Note_on_c, 14, 67, 0
32, 564180, Note_on_c, 14, 76, 32
32, 564180, Note_on_c, 14, 67, 32
32, 564231, Note_on_c, 14, 76, 0
32, 564231, Note_on_c, 14, 67, 0
32, 564240, Note_on_c, 14, 67, 32
32, 564240, Note_on_c, 14, 76, 32
32, 564291, Note_on_c, 14, 67, 0
32, 564291, Note_on_c, 14, 76, 0
32, 564300, Note_on_c, 14, 76, 32
32, 564300, Note_on_c, 14, 67, 32
32, 564351, Note_on_c, 14, 76, 0
32, 564351, Note_on_c, 14, 67, 0
32, 564360, Note_on_c, 14, 76, 32
32, 564360, Note_on_c, 14, 67, 32
32, 564411, Note_on_c, 14, 76, 0
32, 564411, Note_on_c, 14, 67, 0
32, 564420, Note_on_c, 14, 76, 32
32, 564420, Note_on_c, 14, 67, 32
32, 564471, Note_on_c, 14, 76, 0
32, 564471, Note_on_c, 14, 67, 0
32, 564480, Note_on_c, 14, 76, 32
32, 564480, Note_on_c, 14, 67, 32
32, 564531, Note_on_c, 14, 76, 0
32, 564531, Note_on_c, 14, 67, 0
32, 564540, Note_on_c, 14, 76, 32
32, 564540, Note_on_c, 14, 67, 32
32, 564591, Note_on_c, 14, 76, 0
32, 564591, Note_on_c, 14, 67, 0
32, 564600, Note_on_c, 14, 67, 32
32, 564600, Note_on_c, 14, 76, 32
32, 564651, Note_on_c, 14, 67, 0
32, 564651, Note_on_c, 14, 76, 0
32, 564660, Note_on_c, 14, 67, 32
32, 564660, Note_on_c, 14, 76, 32
32, 564711, Note_on_c, 14, 67, 0
32, 564711, Note_on_c, 14, 76, 0
32, 564720, Note_on_c, 14, 76, 32
32, 564720, Note_on_c, 14, 67, 32
32, 564771, Note_on_c, 14, 76, 0
32, 564771, Note_on_c, 14, 67, 0
32, 564780, Note_on_c, 14, 67, 32
32, 564780, Note_on_c, 14, 76, 32
32, 564831, Note_on_c, 14, 67, 0
32, 564831, Note_on_c, 14, 76, 0
32, 564840, Note_on_c, 14, 67, 32
32, 564840, Note_on_c, 14, 76, 32
32, 564891, Note_on_c, 14, 67, 0
32, 564891, Note_on_c, 14, 76, 0
32, 564900, Note_on_c, 14, 76, 32
32, 564900, Note_on_c, 14, 67, 32
32, 564951, Note_on_c, 14, 76, 0
32, 564951, Note_on_c, 14, 67, 0
32, 564960, Note_on_c, 14, 67, 32
32, 564960, Note_on_c, 14, 76, 32
32, 565011, Note_on_c, 14, 67, 0
32, 565011, Note_on_c, 14, 76, 0
32, 565020, Note_on_c, 14, 67, 32
32, 565020, Note_on_c, 14, 76, 32
32, 565071, Note_on_c, 14, 67, 0
32, 565071, Note_on_c, 14, 76, 0
32, 565080, Note_on_c, 14, 67, 32
32, 565080, Note_on_c, 14, 76, 32
32, 565131, Note_on_c, 14, 67, 0
32, 565131, Note_on_c, 14, 76, 0
32, 565140, Note_on_c, 14, 67, 32
32, 565140, Note_on_c, 14, 76, 32
32, 565191, Note_on_c, 14, 67, 0
32, 565191, Note_on_c, 14, 76, 0
32, 565200, Note_on_c, 14, 67, 32
32, 565200, Note_on_c, 14, 76, 32
32, 565251, Note_on_c, 14, 67, 0
32, 565251, Note_on_c, 14, 76, 0
32, 565260, Note_on_c, 14, 67, 32
32, 565260, Note_on_c, 14, 76, 32
32, 565311, Note_on_c, 14, 67, 0
32, 565311, Note_on_c, 14, 76, 0
32, 565320, Note_on_c, 14, 67, 32
32, 565320, Note_on_c, 14, 76, 32
32, 565371, Note_on_c, 14, 67, 0
32, 565371, Note_on_c, 14, 76, 0
32, 565380, Note_on_c, 14, 67, 32
32, 565380, Note_on_c, 14, 76, 32
32, 565431, Note_on_c, 14, 67, 0
32, 565431, Note_on_c, 14, 76, 0
32, 565440, Note_on_c, 14, 76, 32
32, 565440, Note_on_c, 14, 67, 32
32, 565491, Note_on_c, 14, 76, 0
32, 565491, Note_on_c, 14, 67, 0
32, 565500, Note_on_c, 14, 76, 32
32, 565500, Note_on_c, 14, 67, 32
32, 565551, Note_on_c, 14, 76, 0
32, 565551, Note_on_c, 14, 67, 0
32, 565560, Note_on_c, 14, 67, 32
32, 565560, Note_on_c, 14, 76, 32
32, 565611, Note_on_c, 14, 67, 0
32, 565611, Note_on_c, 14, 76, 0
32, 565620, Note_on_c, 14, 76, 32
32, 565620, Note_on_c, 14, 67, 32
32, 565671, Note_on_c, 14, 76, 0
32, 565671, Note_on_c, 14, 67, 0
32, 565680, Note_on_c, 14, 76, 32
32, 565680, Note_on_c, 14, 67, 32
32, 565731, Note_on_c, 14, 76, 0
32, 565731, Note_on_c, 14, 67, 0
32, 565740, Note_on_c, 14, 67, 32
32, 565740, Note_on_c, 14, 76, 32
32, 565791, Note_on_c, 14, 67, 0
32, 565791, Note_on_c, 14, 76, 0
32, 565800, Note_on_c, 14, 67, 32
32, 565800, Note_on_c, 14, 76, 32
32, 565851, Note_on_c, 14, 67, 0
32, 565851, Note_on_c, 14, 76, 0
32, 565860, Note_on_c, 14, 67, 32
32, 565860, Note_on_c, 14, 76, 32
32, 565911, Note_on_c, 14, 67, 0
32, 565911, Note_on_c, 14, 76, 0
32, 565920, Note_on_c, 14, 67, 32
32, 565920, Note_on_c, 14, 76, 32
32, 565971, Note_on_c, 14, 67, 0
32, 565971, Note_on_c, 14, 76, 0
32, 565980, Note_on_c, 14, 67, 32
32, 565980, Note_on_c, 14, 76, 32
32, 566031, Note_on_c, 14, 67, 0
32, 566031, Note_on_c, 14, 76, 0
32, 566040, Note_on_c, 14, 76, 32
32, 566040, Note_on_c, 14, 67, 32
32, 566091, Note_on_c, 14, 76, 0
32, 566091, Note_on_c, 14, 67, 0
32, 566100, Note_on_c, 14, 76, 32
32, 566100, Note_on_c, 14, 67, 32
32, 566151, Note_on_c, 14, 76, 0
32, 566151, Note_on_c, 14, 67, 0
32, 566160, Note_on_c, 14, 67, 32
32, 566160, Note_on_c, 14, 76, 32
32, 566211, Note_on_c, 14, 67, 0
32, 566211, Note_on_c, 14, 76, 0
32, 566220, Note_on_c, 14, 67, 32
32, 566220, Note_on_c, 14, 76, 32
32, 566271, Note_on_c, 14, 67, 0
32, 566271, Note_on_c, 14, 76, 0
32, 566280, Note_on_c, 14, 67, 32
32, 566280, Note_on_c, 14, 76, 32
32, 566331, Note_on_c, 14, 67, 0
32, 566331, Note_on_c, 14, 76, 0
32, 566340, Note_on_c, 14, 67, 32
32, 566340, Note_on_c, 14, 76, 32
32, 566391, Note_on_c, 14, 67, 0
32, 566391, Note_on_c, 14, 76, 0
32, 566400, Note_on_c, 14, 76, 32
32, 566400, Note_on_c, 14, 67, 32
32, 566451, Note_on_c, 14, 76, 0
32, 566451, Note_on_c, 14, 67, 0
32, 566460, Note_on_c, 14, 76, 32
32, 566460, Note_on_c, 14, 67, 32
32, 566511, Note_on_c, 14, 76, 0
32, 566511, Note_on_c, 14, 67, 0
32, 566520, Note_on_c, 14, 67, 32
32, 566520, Note_on_c, 14, 76, 32
32, 566571, Note_on_c, 14, 67, 0
32, 566571, Note_on_c, 14, 76, 0
32, 566580, Note_on_c, 14, 76, 32
32, 566580, Note_on_c, 14, 67, 32
32, 566631, Note_on_c, 14, 76, 0
32, 566631, Note_on_c, 14, 67, 0
32, 566640, Note_on_c, 14, 76, 32
32, 566640, Note_on_c, 14, 67, 32
32, 566691, Note_on_c, 14, 76, 0
32, 566691, Note_on_c, 14, 67, 0
32, 566700, Note_on_c, 14, 67, 32
32, 566700, Note_on_c, 14, 76, 32
32, 566751, Note_on_c, 14, 67, 0
32, 566751, Note_on_c, 14, 76, 0
32, 566760, Note_on_c, 14, 76, 32
32, 566760, Note_on_c, 14, 67, 32
32, 566811, Note_on_c, 14, 76, 0
32, 566811, Note_on_c, 14, 67, 0
32, 566820, Note_on_c, 14, 67, 32
32, 566820, Note_on_c, 14, 76, 32
32, 566879, Note_on_c, 14, 67, 0
32, 566879, Note_on_c, 14, 76, 0
32, 579120, Note_on_c, 14, 69, 92
32, 580539, Note_on_c, 14, 69, 0
32, 580560, Note_on_c, 14, 69, 80
32, 581259, Note_on_c, 14, 69, 0
32, 581280, Note_on_c, 14, 68, 80
32, 581979, Note_on_c, 14, 68, 0
32, 582000, Note_on_c, 14, 64, 80
32, 582699, Note_on_c, 14, 64, 0
32, 582720, Note_on_c, 14, 66, 80
32, 583419, Note_on_c, 14, 66, 0
32, 583440, Note_on_c, 14, 66, 80
32, 584139, Note_on_c, 14, 66, 0
32, 584160, Note_on_c, 14, 64, 80
32, 584859, Note_on_c, 14, 64, 0
32, 584880, Note_on_c, 14, 61, 80
32, 585579, Note_on_c, 14, 61, 0
32, 585600, Note_on_c, 14, 62, 80
32, 586299, Note_on_c, 14, 62, 0
32, 586320, Note_on_c, 14, 62, 80
32, 587019, Note_on_c, 14, 62, 0
32, 587040, Note_on_c, 14, 61, 80
32, 587739, Note_on_c, 14, 61, 0
32, 587760, Note_on_c, 14, 57, 80
32, 588459, Note_on_c, 14, 57, 0
32, 588480, Note_on_c, 14, 67, 80
32, 589179, Note_on_c, 14, 67, 0
32, 589200, Note_on_c, 14, 67, 80
32, 589899, Note_on_c, 14, 67, 0
32, 589920, Note_on_c, 14, 66, 80
32, 590639, Note_on_c, 14, 66, 0
32, 591360, Note_on_c, 14, 66, 80
32, 591479, Note_on_c, 14, 66, 0
32, 591480, Note_on_c, 14, 57, 80
32, 591599, Note_on_c, 14, 57, 0
32, 591600, Note_on_c, 14, 59, 80
32, 591719, Note_on_c, 14, 59, 0
32, 591720, Note_on_c, 14, 61, 80
32, 591839, Note_on_c, 14, 61, 0
32, 591840, Note_on_c, 14, 62, 80
32, 591959, Note_on_c, 14, 62, 0
32, 591960, Note_on_c, 14, 64, 80
32, 592059, Note_on_c, 14, 64, 0
32, 592080, Note_on_c, 14, 66, 80
32, 592199, Note_on_c, 14, 66, 0
32, 592200, Note_on_c, 14, 64, 80
32, 592319, Note_on_c, 14, 64, 0
32, 592320, Note_on_c, 14, 62, 80
32, 592439, Note_on_c, 14, 62, 0
32, 592440, Note_on_c, 14, 64, 80
32, 592559, Note_on_c, 14, 64, 0
32, 592560, Note_on_c, 14, 66, 80
32, 592679, Note_on_c, 14, 66, 0
32, 592680, Note_on_c, 14, 67, 80
32, 592779, Note_on_c, 14, 67, 0
32, 592800, Note_on_c, 14, 69, 80
32, 592919, Note_on_c, 14, 69, 0
32, 592920, Note_on_c, 14, 71, 80
32, 593039, Note_on_c, 14, 71, 0
32, 593040, Note_on_c, 14, 69, 80
32, 593159, Note_on_c, 14, 69, 0
32, 593160, Note_on_c, 14, 67, 80
32, 593279, Note_on_c, 14, 67, 0
32, 593280, Note_on_c, 14, 69, 80
32, 593399, Note_on_c, 14, 69, 0
32, 593400, Note_on_c, 14, 67, 80
32, 593499, Note_on_c, 14, 67, 0
32, 593520, Note_on_c, 14, 66, 80
32, 593639, Note_on_c, 14, 66, 0
32, 593640, Note_on_c, 14, 67, 80
32, 593759, Note_on_c, 14, 67, 0
32, 593760, Note_on_c, 14, 66, 80
32, 593879, Note_on_c, 14, 66, 0
32, 593880, Note_on_c, 14, 64, 80
32, 593999, Note_on_c, 14, 64, 0
32, 594000, Note_on_c, 14, 66, 80
32, 594119, Note_on_c, 14, 66, 0
32, 594120, Note_on_c, 14, 64, 80
32, 594219, Note_on_c, 14, 64, 0
32, 594240, Note_on_c, 14, 62, 80
32, 594359, Note_on_c, 14, 62, 0
32, 594360, Note_on_c, 14, 54, 80
32, 594479, Note_on_c, 14, 54, 0
32, 594480, Note_on_c, 14, 55, 80
32, 594599, Note_on_c, 14, 55, 0
32, 594600, Note_on_c, 14, 57, 80
32, 594719, Note_on_c, 14, 57, 0
32, 594720, Note_on_c, 14, 59, 80
32, 594839, Note_on_c, 14, 59, 0
32, 594840, Note_on_c, 14, 61, 80
32, 594939, Note_on_c, 14, 61, 0
32, 594960, Note_on_c, 14, 62, 80
32, 595079, Note_on_c, 14, 62, 0
32, 595080, Note_on_c, 14, 61, 80
32, 595199, Note_on_c, 14, 61, 0
32, 595200, Note_on_c, 14, 59, 80
32, 595319, Note_on_c, 14, 59, 0
32, 595320, Note_on_c, 14, 61, 80
32, 595439, Note_on_c, 14, 61, 0
32, 595440, Note_on_c, 14, 62, 80
32, 595559, Note_on_c, 14, 62, 0
32, 595560, Note_on_c, 14, 64, 80
32, 595659, Note_on_c, 14, 64, 0
32, 595680, Note_on_c, 14, 66, 80
32, 595799, Note_on_c, 14, 66, 0
32, 595800, Note_on_c, 14, 67, 80
32, 595919, Note_on_c, 14, 67, 0
32, 595920, Note_on_c, 14, 66, 80
32, 596039, Note_on_c, 14, 66, 0
32, 596040, Note_on_c, 14, 64, 80
32, 596159, Note_on_c, 14, 64, 0
32, 596160, Note_on_c, 14, 66, 80
32, 596279, Note_on_c, 14, 66, 0
32, 596280, Note_on_c, 14, 64, 80
32, 596379, Note_on_c, 14, 64, 0
32, 596400, Note_on_c, 14, 62, 80
32, 596519, Note_on_c, 14, 62, 0
32, 596520, Note_on_c, 14, 64, 80
32, 596639, Note_on_c, 14, 64, 0
32, 596640, Note_on_c, 14, 62, 80
32, 596759, Note_on_c, 14, 62, 0
32, 596760, Note_on_c, 14, 61, 80
32, 596879, Note_on_c, 14, 61, 0
32, 596880, Note_on_c, 14, 62, 80
32, 596999, Note_on_c, 14, 62, 0
32, 597000, Note_on_c, 14, 60, 80
32, 597099, Note_on_c, 14, 60, 0
32, 597120, Note_on_c, 14, 59, 80
32, 597239, Note_on_c, 14, 59, 0
32, 597240, Note_on_c, 14, 50, 80
32, 597359, Note_on_c, 14, 50, 0
32, 597360, Note_on_c, 14, 52, 80
32, 597479, Note_on_c, 14, 52, 0
32, 597480, Note_on_c, 14, 54, 80
32, 597599, Note_on_c, 14, 54, 0
32, 597600, Note_on_c, 14, 55, 80
32, 597719, Note_on_c, 14, 55, 0
32, 597720, Note_on_c, 14, 57, 80
32, 597819, Note_on_c, 14, 57, 0
32, 597840, Note_on_c, 14, 59, 80
32, 597959, Note_on_c, 14, 59, 0
32, 597960, Note_on_c, 14, 57, 80
32, 598079, Note_on_c, 14, 57, 0
32, 598080, Note_on_c, 14, 55, 80
32, 598199, Note_on_c, 14, 55, 0
32, 598200, Note_on_c, 14, 57, 80
32, 598319, Note_on_c, 14, 57, 0
32, 598320, Note_on_c, 14, 59, 80
32, 598439, Note_on_c, 14, 59, 0
32, 598440, Note_on_c, 14, 61, 80
32, 598539, Note_on_c, 14, 61, 0
32, 598560, Note_on_c, 14, 62, 80
32, 598679, Note_on_c, 14, 62, 0
32, 598680, Note_on_c, 14, 64, 80
32, 598799, Note_on_c, 14, 64, 0
32, 598800, Note_on_c, 14, 62, 80
32, 598919, Note_on_c, 14, 62, 0
32, 598920, Note_on_c, 14, 61, 80
32, 599039, Note_on_c, 14, 61, 0
32, 599040, Note_on_c, 14, 62, 80
32, 599159, Note_on_c, 14, 62, 0
32, 599160, Note_on_c, 14, 61, 80
32, 599259, Note_on_c, 14, 61, 0
32, 599280, Note_on_c, 14, 59, 80
32, 599399, Note_on_c, 14, 59, 0
32, 599400, Note_on_c, 14, 61, 80
32, 599519, Note_on_c, 14, 61, 0
32, 599520, Note_on_c, 14, 59, 80
32, 599639, Note_on_c, 14, 59, 0
32, 599640, Note_on_c, 14, 57, 80
32, 599759, Note_on_c, 14, 57, 0
32, 599760, Note_on_c, 14, 59, 80
32, 599879, Note_on_c, 14, 59, 0
32, 599880, Note_on_c, 14, 57, 80
32, 599979, Note_on_c, 14, 57, 0
32, 600000, Note_on_c, 14, 55, 80
32, 600119, Note_on_c, 14, 55, 0
32, 600120, Note_on_c, 14, 57, 80
32, 600239, Note_on_c, 14, 57, 0
32, 600240, Note_on_c, 14, 55, 80
32, 600359, Note_on_c, 14, 55, 0
32, 600360, Note_on_c, 14, 54, 80
32, 600479, Note_on_c, 14, 54, 0
32, 600480, Note_on_c, 14, 55, 80
32, 600599, Note_on_c, 14, 55, 0
32, 600600, Note_on_c, 14, 54, 80
32, 600699, Note_on_c, 14, 54, 0
32, 600720, Note_on_c, 14, 52, 80
32, 600839, Note_on_c, 14, 52, 0
32, 600840, Note_on_c, 14, 54, 80
32, 600959, Note_on_c, 14, 54, 0
32, 600960, Note_on_c, 14, 52, 80
32, 601079, Note_on_c, 14, 52, 0
32, 601080, Note_on_c, 14, 50, 80
32, 601199, Note_on_c, 14, 50, 0
32, 601200, Note_on_c, 14, 52, 80
32, 601319, Note_on_c, 14, 52, 0
32, 601320, Note_on_c, 14, 50, 80
32, 601419, Note_on_c, 14, 50, 0
32, 601440, Note_on_c, 14, 57, 80
32, 601559, Note_on_c, 14, 57, 0
32, 601560, Note_on_c, 14, 52, 80
32, 601679, Note_on_c, 14, 52, 0
32, 601680, Note_on_c, 14, 54, 80
32, 601799, Note_on_c, 14, 54, 0
32, 601800, Note_on_c, 14, 56, 80
32, 601919, Note_on_c, 14, 56, 0
32, 601920, Note_on_c, 14, 57, 80
32, 602039, Note_on_c, 14, 57, 0
32, 602040, Note_on_c, 14, 56, 80
32, 602139, Note_on_c, 14, 56, 0
32, 602160, Note_on_c, 14, 57, 80
32, 602279, Note_on_c, 14, 57, 0
32, 602280, Note_on_c, 14, 61, 80
32, 602399, Note_on_c, 14, 61, 0
32, 602400, Note_on_c, 14, 64, 80
32, 602519, Note_on_c, 14, 64, 0
32, 602520, Note_on_c, 14, 56, 80
32, 602619, Note_on_c, 14, 56, 0
32, 602640, Note_on_c, 14, 57, 80
32, 602879, Note_on_c, 14, 57, 0
32, 604320, Note_on_c, 14, 64, 80
32, 604419, Note_on_c, 14, 64, 0
32, 604440, Note_on_c, 14, 52, 80
32, 604539, Note_on_c, 14, 52, 0
32, 604560, Note_on_c, 14, 64, 80
32, 604659, Note_on_c, 14, 64, 0
32, 604680, Note_on_c, 14, 64, 80
32, 604779, Note_on_c, 14, 64, 0
32, 604800, Note_on_c, 14, 64, 80
32, 605039, Note_on_c, 14, 64, 0
32, 607200, Note_on_c, 14, 69, 80
32, 607299, Note_on_c, 14, 69, 0
32, 607320, Note_on_c, 14, 57, 80
32, 607419, Note_on_c, 14, 57, 0
32, 607440, Note_on_c, 14, 69, 80
32, 607539, Note_on_c, 14, 69, 0
32, 607560, Note_on_c, 14, 69, 80
32, 607659, Note_on_c, 14, 69, 0
32, 607680, Note_on_c, 14, 69, 80
32, 607919, Note_on_c, 14, 69, 0
32, 609360, Note_on_c, 14, 59, 80
32, 609479, Note_on_c, 14, 59, 0
32, 609480, Note_on_c, 14, 61, 80
32, 609599, Note_on_c, 14, 61, 0
32, 609600, Note_on_c, 14, 59, 80
32, 609699, Note_on_c, 14, 59, 0
32, 609720, Note_on_c, 14, 59, 80
32, 609839, Note_on_c, 14, 59, 0
32, 609840, Note_on_c, 14, 61, 80
32, 609959, Note_on_c, 14, 61, 0
32, 609960, Note_on_c, 14, 59, 80
32, 610059, Note_on_c, 14, 59, 0
32, 610080, Note_on_c, 14, 57, 80
32, 610179, Note_on_c, 14, 57, 0
32, 610200, Note_on_c, 14, 57, 80
32, 610299, Note_on_c, 14, 57, 0
32, 610320, Note_on_c, 14, 57, 80
32, 610439, Note_on_c, 14, 57, 0
32, 610440, Note_on_c, 14, 59, 80
32, 610559, Note_on_c, 14, 59, 0
32, 610560, Note_on_c, 14, 61, 80
32, 610679, Note_on_c, 14, 61, 0
32, 610680, Note_on_c, 14, 57, 80
32, 610779, Note_on_c, 14, 57, 0
32, 610800, Note_on_c, 14, 62, 80
32, 610919, Note_on_c, 14, 62, 0
32, 610920, Note_on_c, 14, 57, 80
32, 611039, Note_on_c, 14, 57, 0
32, 611040, Note_on_c, 14, 62, 80
32, 611159, Note_on_c, 14, 62, 0
32, 611160, Note_on_c, 14, 57, 80
32, 611279, Note_on_c, 14, 57, 0
32, 611280, Note_on_c, 14, 64, 80
32, 611399, Note_on_c, 14, 64, 0
32, 611400, Note_on_c, 14, 57, 80
32, 611499, Note_on_c, 14, 57, 0
32, 611520, Note_on_c, 14, 64, 80
32, 611639, Note_on_c, 14, 64, 0
32, 611640, Note_on_c, 14, 57, 80
32, 611759, Note_on_c, 14, 57, 0
32, 611760, Note_on_c, 14, 64, 80
32, 611879, Note_on_c, 14, 64, 0
32, 611880, Note_on_c, 14, 57, 80
32, 611999, Note_on_c, 14, 57, 0
32, 612000, Note_on_c, 14, 64, 80
32, 612119, Note_on_c, 14, 64, 0
32, 612120, Note_on_c, 14, 57, 80
32, 612219, Note_on_c, 14, 57, 0
32, 612240, Note_on_c, 14, 62, 80
32, 612359, Note_on_c, 14, 62, 0
32, 612360, Note_on_c, 14, 57, 80
32, 612479, Note_on_c, 14, 57, 0
32, 612480, Note_on_c, 14, 62, 80
32, 612599, Note_on_c, 14, 62, 0
32, 612600, Note_on_c, 14, 57, 80
32, 612719, Note_on_c, 14, 57, 0
32, 612720, Note_on_c, 14, 62, 80
32, 612839, Note_on_c, 14, 62, 0
32, 612840, Note_on_c, 14, 61, 80
32, 612939, Note_on_c, 14, 61, 0
32, 612960, Note_on_c, 14, 61, 80
32, 613059, Note_on_c, 14, 61, 0
32, 613080, Note_on_c, 14, 61, 80
32, 613179, Note_on_c, 14, 61, 0
32, 613200, Note_on_c, 14, 61, 80
32, 613299, Note_on_c, 14, 61, 0
32, 613320, Note_on_c, 14, 61, 80
32, 613419, Note_on_c, 14, 61, 0
32, 613440, Note_on_c, 14, 58, 80
32, 613539, Note_on_c, 14, 58, 0
32, 613560, Note_on_c, 14, 58, 80
32, 613659, Note_on_c, 14, 58, 0
32, 613680, Note_on_c, 14, 59, 80
32, 613779, Note_on_c, 14, 59, 0
32, 613800, Note_on_c, 14, 59, 80
32, 613899, Note_on_c, 14, 59, 0
32, 613920, Note_on_c, 14, 59, 80
32, 614019, Note_on_c, 14, 59, 0
32, 614040, Note_on_c, 14, 59, 80
32, 614139, Note_on_c, 14, 59, 0
32, 614160, Note_on_c, 14, 61, 80
32, 614259, Note_on_c, 14, 61, 0
32, 614280, Note_on_c, 14, 61, 80
32, 614379, Note_on_c, 14, 61, 0
32, 614400, Note_on_c, 14, 61, 80
32, 614519, Note_on_c, 14, 61, 0
32, 614520, Note_on_c, 14, 62, 80
32, 614639, Note_on_c, 14, 62, 0
32, 614640, Note_on_c, 14, 61, 80
32, 614759, Note_on_c, 14, 61, 0
32, 614760, Note_on_c, 14, 59, 80
32, 614879, Note_on_c, 14, 59, 0
32, 614880, Note_on_c, 14, 61, 80
32, 614999, Note_on_c, 14, 61, 0
32, 615000, Note_on_c, 14, 58, 80
32, 615099, Note_on_c, 14, 58, 0
32, 615120, Note_on_c, 14, 58, 80
32, 615239, Note_on_c, 14, 58, 0
32, 615240, Note_on_c, 14, 59, 80
32, 615359, Note_on_c, 14, 59, 0
32, 615360, Note_on_c, 14, 58, 80
32, 615479, Note_on_c, 14, 58, 0
32, 615480, Note_on_c, 14, 54, 80
32, 615579, Note_on_c, 14, 54, 0
32, 615600, Note_on_c, 14, 54, 80
32, 615699, Note_on_c, 14, 54, 0
32, 615720, Note_on_c, 14, 54, 80
32, 615819, Note_on_c, 14, 54, 0
32, 615840, Note_on_c, 14, 54, 80
32, 615939, Note_on_c, 14, 54, 0
32, 615960, Note_on_c, 14, 54, 80
32, 616059, Note_on_c, 14, 54, 0
32, 616080, Note_on_c, 14, 54, 80
32, 616179, Note_on_c, 14, 54, 0
32, 616200, Note_on_c, 14, 54, 80
32, 616299, Note_on_c, 14, 54, 0
32, 616320, Note_on_c, 14, 59, 80
32, 616419, Note_on_c, 14, 59, 0
32, 616440, Note_on_c, 14, 59, 80
32, 616539, Note_on_c, 14, 59, 0
32, 616560, Note_on_c, 14, 59, 80
32, 616679, Note_on_c, 14, 59, 0
32, 616680, Note_on_c, 14, 61, 80
32, 616799, Note_on_c, 14, 61, 0
32, 616800, Note_on_c, 14, 59, 80
32, 616919, Note_on_c, 14, 59, 0
32, 616920, Note_on_c, 14, 61, 80
32, 617039, Note_on_c, 14, 61, 0
32, 617040, Note_on_c, 14, 59, 80
32, 617159, Note_on_c, 14, 59, 0
32, 617160, Note_on_c, 14, 61, 80
32, 617279, Note_on_c, 14, 61, 0
32, 618000, Note_on_c, 14, 59, 80
32, 618119, Note_on_c, 14, 59, 0
32, 618120, Note_on_c, 14, 61, 80
32, 618239, Note_on_c, 14, 61, 0
32, 618240, Note_on_c, 14, 59, 80
32, 618359, Note_on_c, 14, 59, 0
32, 618360, Note_on_c, 14, 61, 80
32, 618479, Note_on_c, 14, 61, 0
32, 618480, Note_on_c, 14, 59, 80
32, 618579, Note_on_c, 14, 59, 0
32, 618600, Note_on_c, 14, 59, 80
32, 618699, Note_on_c, 14, 59, 0
32, 618720, Note_on_c, 14, 59, 80
32, 618839, Note_on_c, 14, 59, 0
32, 618840, Note_on_c, 14, 52, 80
32, 618959, Note_on_c, 14, 52, 0
32, 618960, Note_on_c, 14, 59, 80
32, 619079, Note_on_c, 14, 59, 0
32, 619080, Note_on_c, 14, 52, 80
32, 619199, Note_on_c, 14, 52, 0
32, 619200, Note_on_c, 14, 59, 80
32, 619319, Note_on_c, 14, 59, 0
32, 619320, Note_on_c, 14, 52, 80
32, 619419, Note_on_c, 14, 52, 0
32, 619440, Note_on_c, 14, 59, 80
32, 619559, Note_on_c, 14, 59, 0
32, 619560, Note_on_c, 14, 52, 80
32, 619679, Note_on_c, 14, 52, 0
32, 619680, Note_on_c, 14, 59, 80
32, 619799, Note_on_c, 14, 59, 0
32, 619800, Note_on_c, 14, 52, 80
32, 619919, Note_on_c, 14, 52, 0
32, 619920, Note_on_c, 14, 59, 80
32, 620039, Note_on_c, 14, 59, 0
32, 620040, Note_on_c, 14, 64, 80
32, 620139, Note_on_c, 14, 64, 0
32, 620160, Note_on_c, 14, 58, 80
32, 620279, Note_on_c, 14, 58, 0
32, 620280, Note_on_c, 14, 64, 80
32, 620399, Note_on_c, 14, 64, 0
32, 620400, Note_on_c, 14, 58, 80
32, 620519, Note_on_c, 14, 58, 0
32, 620520, Note_on_c, 14, 64, 80
32, 620639, Note_on_c, 14, 64, 0
32, 620640, Note_on_c, 14, 58, 80
32, 620759, Note_on_c, 14, 58, 0
32, 620760, Note_on_c, 14, 64, 80
32, 620859, Note_on_c, 14, 64, 0
32, 620880, Note_on_c, 14, 57, 80
32, 620999, Note_on_c, 14, 57, 0
32, 621000, Note_on_c, 14, 64, 80
32, 621119, Note_on_c, 14, 64, 0
32, 621120, Note_on_c, 14, 57, 80
32, 621239, Note_on_c, 14, 57, 0
32, 621240, Note_on_c, 14, 64, 80
32, 621359, Note_on_c, 14, 64, 0
32, 621360, Note_on_c, 14, 57, 80
32, 621479, Note_on_c, 14, 57, 0
32, 621480, Note_on_c, 14, 64, 80
32, 621579, Note_on_c, 14, 64, 0
32, 621600, Note_on_c, 14, 57, 80
32, 621719, Note_on_c, 14, 57, 0
32, 621720, Note_on_c, 14, 64, 80
32, 621839, Note_on_c, 14, 64, 0
32, 621840, Note_on_c, 14, 57, 80
32, 621959, Note_on_c, 14, 57, 0
32, 621960, Note_on_c, 14, 64, 80
32, 622079, Note_on_c, 14, 64, 0
32, 622080, Note_on_c, 14, 57, 80
32, 622199, Note_on_c, 14, 57, 0
32, 622200, Note_on_c, 14, 62, 80
32, 622299, Note_on_c, 14, 62, 0
32, 622320, Note_on_c, 14, 66, 80
32, 622439, Note_on_c, 14, 66, 0
32, 622440, Note_on_c, 14, 67, 80
32, 622559, Note_on_c, 14, 67, 0
32, 622560, Note_on_c, 14, 66, 80
32, 622679, Note_on_c, 14, 66, 0
32, 622680, Note_on_c, 14, 64, 80
32, 622799, Note_on_c, 14, 64, 0
32, 622800, Note_on_c, 14, 66, 80
32, 622919, Note_on_c, 14, 66, 0
32, 622920, Note_on_c, 14, 64, 80
32, 623019, Note_on_c, 14, 64, 0
32, 623040, Note_on_c, 14, 64, 80
32, 623159, Note_on_c, 14, 64, 0
32, 623160, Note_on_c, 14, 66, 80
32, 623279, Note_on_c, 14, 66, 0
32, 623280, Note_on_c, 14, 64, 80
32, 623399, Note_on_c, 14, 64, 0
32, 623400, Note_on_c, 14, 62, 80
32, 623519, Note_on_c, 14, 62, 0
32, 623520, Note_on_c, 14, 64, 80
32, 623639, Note_on_c, 14, 64, 0
32, 623640, Note_on_c, 14, 62, 80
32, 623739, Note_on_c, 14, 62, 0
32, 623760, Note_on_c, 14, 64, 80
32, 623859, Note_on_c, 14, 64, 0
32, 623880, Note_on_c, 14, 64, 80
32, 623979, Note_on_c, 14, 64, 0
32, 624000, Note_on_c, 14, 64, 80
32, 624099, Note_on_c, 14, 64, 0
32, 624120, Note_on_c, 14, 64, 80
32, 624219, Note_on_c, 14, 64, 0
32, 624240, Note_on_c, 14, 66, 80
32, 624339, Note_on_c, 14, 66, 0
32, 624360, Note_on_c, 14, 66, 80
32, 624459, Note_on_c, 14, 66, 0
32, 624480, Note_on_c, 14, 64, 80
32, 624579, Note_on_c, 14, 64, 0
32, 624600, Note_on_c, 14, 64, 80
32, 624699, Note_on_c, 14, 64, 0
32, 624720, Note_on_c, 14, 64, 80
32, 624819, Note_on_c, 14, 64, 0
32, 624840, Note_on_c, 14, 64, 80
32, 624939, Note_on_c, 14, 64, 0
32, 624960, Note_on_c, 14, 64, 80
32, 625059, Note_on_c, 14, 64, 0
32, 625080, Note_on_c, 14, 64, 80
32, 625179, Note_on_c, 14, 64, 0
32, 625200, Note_on_c, 14, 62, 80
32, 625299, Note_on_c, 14, 62, 0
32, 625320, Note_on_c, 14, 62, 80
32, 625419, Note_on_c, 14, 62, 0
32, 625440, Note_on_c, 14, 62, 80
32, 625539, Note_on_c, 14, 62, 0
32, 625560, Note_on_c, 14, 62, 80
32, 625659, Note_on_c, 14, 62, 0
32, 625680, Note_on_c, 14, 61, 80
32, 625779, Note_on_c, 14, 61, 0
32, 625800, Note_on_c, 14, 61, 80
32, 625899, Note_on_c, 14, 61, 0
32, 625920, Note_on_c, 14, 61, 80
32, 626019, Note_on_c, 14, 61, 0
32, 626040, Note_on_c, 14, 61, 80
32, 626139, Note_on_c, 14, 61, 0
32, 626160, Note_on_c, 14, 61, 80
32, 626259, Note_on_c, 14, 61, 0
32, 626280, Note_on_c, 14, 61, 80
32, 626379, Note_on_c, 14, 61, 0
32, 626400, Note_on_c, 14, 59, 80
32, 626499, Note_on_c, 14, 59, 0
32, 626520, Note_on_c, 14, 59, 80
32, 626619, Note_on_c, 14, 59, 0
32, 626640, Note_on_c, 14, 61, 80
32, 626739, Note_on_c, 14, 61, 0
32, 626760, Note_on_c, 14, 61, 80
32, 626859, Note_on_c, 14, 61, 0
32, 626880, Note_on_c, 14, 61, 80
32, 626979, Note_on_c, 14, 61, 0
32, 627000, Note_on_c, 14, 61, 80
32, 627099, Note_on_c, 14, 61, 0
32, 627120, Note_on_c, 14, 62, 80
32, 627219, Note_on_c, 14, 62, 0
32, 627240, Note_on_c, 14, 62, 80
32, 627339, Note_on_c, 14, 62, 0
32, 627360, Note_on_c, 14, 62, 80
32, 627459, Note_on_c, 14, 62, 0
32, 627480, Note_on_c, 14, 62, 80
32, 627579, Note_on_c, 14, 62, 0
32, 627600, Note_on_c, 14, 62, 80
32, 627699, Note_on_c, 14, 62, 0
32, 627720, Note_on_c, 14, 62, 80
32, 627819, Note_on_c, 14, 62, 0
32, 627840, Note_on_c, 14, 61, 80
32, 627939, Note_on_c, 14, 61, 0
32, 627960, Note_on_c, 14, 61, 80
32, 628059, Note_on_c, 14, 61, 0
32, 628080, Note_on_c, 14, 59, 80
32, 628179, Note_on_c, 14, 59, 0
32, 628200, Note_on_c, 14, 59, 80
32, 628299, Note_on_c, 14, 59, 0
32, 628320, Note_on_c, 14, 59, 80
32, 628419, Note_on_c, 14, 59, 0
32, 628440, Note_on_c, 14, 59, 80
32, 628539, Note_on_c, 14, 59, 0
32, 628560, Note_on_c, 14, 57, 80
32, 628659, Note_on_c, 14, 57, 0
32, 628680, Note_on_c, 14, 57, 80
32, 628779, Note_on_c, 14, 57, 0
32, 628800, Note_on_c, 14, 64, 80
32, 628919, Note_on_c, 14, 64, 0
32, 628920, Note_on_c, 14, 66, 80
32, 629039, Note_on_c, 14, 66, 0
32, 629040, Note_on_c, 14, 64, 80
32, 629159, Note_on_c, 14, 64, 0
32, 629160, Note_on_c, 14, 66, 80
32, 629279, Note_on_c, 14, 66, 0
32, 629280, Note_on_c, 14, 64, 80
32, 629399, Note_on_c, 14, 64, 0
32, 629400, Note_on_c, 14, 62, 80
32, 629499, Note_on_c, 14, 62, 0
32, 629520, Note_on_c, 14, 61, 80
32, 629619, Note_on_c, 14, 61, 0
32, 629640, Note_on_c, 14, 61, 80
32, 629739, Note_on_c, 14, 61, 0
32, 629760, Note_on_c, 14, 61, 80
32, 629859, Note_on_c, 14, 61, 0
32, 629880, Note_on_c, 14, 61, 80
32, 629979, Note_on_c, 14, 61, 0
32, 630000, Note_on_c, 14, 59, 80
32, 630099, Note_on_c, 14, 59, 0
32, 630120, Note_on_c, 14, 59, 80
32, 630219, Note_on_c, 14, 59, 0
32, 630240, Note_on_c, 14, 50, 80
32, 630339, Note_on_c, 14, 50, 0
32, 630360, Note_on_c, 14, 62, 80
32, 630459, Note_on_c, 14, 62, 0
32, 630480, Note_on_c, 14, 50, 80
32, 630579, Note_on_c, 14, 50, 0
32, 630600, Note_on_c, 14, 50, 80
32, 630699, Note_on_c, 14, 50, 0
32, 630720, Note_on_c, 14, 50, 80
32, 630819, Note_on_c, 14, 50, 0
32, 630840, Note_on_c, 14, 50, 80
32, 630939, Note_on_c, 14, 50, 0
32, 630960, Note_on_c, 14, 52, 80
32, 631059, Note_on_c, 14, 52, 0
32, 631080, Note_on_c, 14, 52, 80
32, 631179, Note_on_c, 14, 52, 0
32, 631200, Note_on_c, 14, 52, 80
32, 631299, Note_on_c, 14, 52, 0
32, 631320, Note_on_c, 14, 52, 80
32, 631419, Note_on_c, 14, 52, 0
32, 631440, Note_on_c, 14, 54, 80
32, 631539, Note_on_c, 14, 54, 0
32, 631560, Note_on_c, 14, 54, 80
32, 631659, Note_on_c, 14, 54, 0
32, 631680, Note_on_c, 14, 56, 80
32, 631779, Note_on_c, 14, 56, 0
32, 631800, Note_on_c, 14, 56, 80
32, 631899, Note_on_c, 14, 56, 0
32, 631920, Note_on_c, 14, 56, 80
32, 632019, Note_on_c, 14, 56, 0
32, 632040, Note_on_c, 14, 56, 80
32, 632139, Note_on_c, 14, 56, 0
32, 632160, Note_on_c, 14, 57, 80
32, 632259, Note_on_c, 14, 57, 0
32, 632280, Note_on_c, 14, 57, 80
32, 632379, Note_on_c, 14, 57, 0
32, 632400, Note_on_c, 14, 59, 80
32, 632499, Note_on_c, 14, 59, 0
32, 632520, Note_on_c, 14, 59, 80
32, 632619, Note_on_c, 14, 59, 0
32, 632640, Note_on_c, 14, 59, 80
32, 632739, Note_on_c, 14, 59, 0
32, 632760, Note_on_c, 14, 59, 80
32, 632859, Note_on_c, 14, 59, 0
32, 632880, Note_on_c, 14, 56, 80
32, 632979, Note_on_c, 14, 56, 0
32, 633000, Note_on_c, 14, 56, 80
32, 633099, Note_on_c, 14, 56, 0
32, 633120, Note_on_c, 14, 62, 80
32, 633239, Note_on_c, 14, 62, 0
32, 633240, Note_on_c, 14, 64, 80
32, 633359, Note_on_c, 14, 64, 0
32, 633360, Note_on_c, 14, 62, 80
32, 633479, Note_on_c, 14, 62, 0
32, 633480, Note_on_c, 14, 64, 80
32, 633579, Note_on_c, 14, 64, 0
32, 633600, Note_on_c, 14, 61, 80
32, 633699, Note_on_c, 14, 61, 0
32, 633720, Note_on_c, 14, 61, 80
32, 633819, Note_on_c, 14, 61, 0
32, 633840, Note_on_c, 14, 62, 80
32, 633959, Note_on_c, 14, 62, 0
32, 633960, Note_on_c, 14, 64, 80
32, 634079, Note_on_c, 14, 64, 0
32, 634080, Note_on_c, 14, 62, 80
32, 634199, Note_on_c, 14, 62, 0
32, 634200, Note_on_c, 14, 64, 80
32, 634299, Note_on_c, 14, 64, 0
32, 634320, Note_on_c, 14, 64, 80
32, 634419, Note_on_c, 14, 64, 0
32, 634440, Note_on_c, 14, 64, 80
32, 634539, Note_on_c, 14, 64, 0
32, 634560, Note_on_c, 14, 66, 80
32, 635259, Note_on_c, 14, 66, 0
32, 635280, Note_on_c, 14, 66, 80
32, 635979, Note_on_c, 14, 66, 0
32, 636000, Note_on_c, 14, 64, 80
32, 637179, Note_on_c, 14, 64, 0
32, 637200, Note_on_c, 14, 62, 80
32, 637419, Note_on_c, 14, 62, 0
32, 637440, Note_on_c, 14, 62, 80
32, 638139, Note_on_c, 14, 62, 0
32, 638160, Note_on_c, 14, 62, 80
32, 638859, Note_on_c, 14, 62, 0
32, 638880, Note_on_c, 14, 61, 80
32, 639579, Note_on_c, 14, 61, 0
32, 639600, Note_on_c, 14, 59, 80
32, 640059, Note_on_c, 14, 59, 0
32, 640080, Note_on_c, 14, 58, 80
32, 640299, Note_on_c, 14, 58, 0
32, 640320, Note_on_c, 14, 54, 80
32, 641739, Note_on_c, 14, 54, 0
32, 641760, Note_on_c, 14, 61, 80
32, 642939, Note_on_c, 14, 61, 0
32, 642960, Note_on_c, 14, 59, 80
32, 643179, Note_on_c, 14, 59, 0
32, 643200, Note_on_c, 14, 61, 80
32, 643899, Note_on_c, 14, 61, 0
32, 643920, Note_on_c, 14, 59, 80
32, 644379, Note_on_c, 14, 59, 0
32, 644400, Note_on_c, 14, 58, 80
32, 644619, Note_on_c, 14, 58, 0
32, 644640, Note_on_c, 14, 59, 80
32, 645339, Note_on_c, 14, 59, 0
32, 645360, Note_on_c, 14, 62, 80
32, 646779, Note_on_c, 14, 62, 0
32, 646800, Note_on_c, 14, 62, 80
32, 647499, Note_on_c, 14, 62, 0
32, 647520, Note_on_c, 14, 61, 80
32, 648219, Note_on_c, 14, 61, 0
32, 648240, Note_on_c, 14, 59, 80
32, 648699, Note_on_c, 14, 59, 0
32, 648720, Note_on_c, 14, 58, 80
32, 648939, Note_on_c, 14, 58, 0
32, 648960, Note_on_c, 14, 61, 80
32, 649659, Note_on_c, 14, 61, 0
32, 649680, Note_on_c, 14, 54, 80
32, 651099, Note_on_c, 14, 54, 0
32, 651120, Note_on_c, 14, 59, 92
32, 651199, Note_on_c, 14, 59, 0
32, 651200, Note_on_c, 14, 59, 80
32, 652539, Note_on_c, 14, 59, 0
32, 652560, Note_on_c, 14, 59, 80
32, 653259, Note_on_c, 14, 59, 0
32, 653280, Note_on_c, 14, 59, 80
32, 653979, Note_on_c, 14, 59, 0
32, 654000, Note_on_c, 14, 57, 80
32, 654459, Note_on_c, 14, 57, 0
32, 654480, Note_on_c, 14, 56, 80
32, 654699, Note_on_c, 14, 56, 0
32, 654720, Note_on_c, 14, 62, 80
32, 655419, Note_on_c, 14, 62, 0
32, 655440, Note_on_c, 14, 52, 80
32, 656139, Note_on_c, 14, 52, 0
32, 656160, Note_on_c, 14, 57, 80
32, 656879, Note_on_c, 14, 57, 0
32, 659760, Note_on_c, 14, 57, 80
32, 660459, Note_on_c, 14, 57, 0
32, 660480, Note_on_c, 14, 69, 80
32, 661179, Note_on_c, 14, 69, 0
32, 661200, Note_on_c, 14, 69, 80
32, 661899, Note_on_c, 14, 69, 0
32, 661920, Note_on_c, 14, 69, 92
32, 664059, Note_on_c, 14, 69, 0
32, 664080, Note_on_c, 14, 62, 92
32, 665499, Note_on_c, 14, 62, 0
32, 665520, Note_on_c, 14, 62, 80
32, 666219, Note_on_c, 14, 62, 0
32, 666240, Note_on_c, 14, 60, 80
32, 666939, Note_on_c, 14, 60, 0
32, 666960, Note_on_c, 14, 57, 80
32, 667659, Note_on_c, 14, 57, 0
32, 667680, Note_on_c, 14, 55, 80
32, 668379, Note_on_c, 14, 55, 0
32, 668400, Note_on_c, 14, 57, 80
32, 668859, Note_on_c, 14, 57, 0
32, 668880, Note_on_c, 14, 59, 80
32, 669099, Note_on_c, 14, 59, 0
32, 669120, Note_on_c, 14, 57, 80
32, 669579, Note_on_c, 14, 57, 0
32, 669600, Note_on_c, 14, 62, 80
32, 669819, Note_on_c, 14, 62, 0
32, 669840, Note_on_c, 14, 64, 80
32, 670299, Note_on_c, 14, 64, 0
32, 670320, Note_on_c, 14, 66, 80
32, 670539, Note_on_c, 14, 66, 0
32, 670560, Note_on_c, 14, 64, 80
32, 671739, Note_on_c, 14, 64, 0
32, 671760, Note_on_c, 14, 66, 80
32, 671979, Note_on_c, 14, 66, 0
32, 672000, Note_on_c, 14, 67, 80
32, 672459, Note_on_c, 14, 67, 0
32, 672480, Note_on_c, 14, 66, 80
32, 672699, Note_on_c, 14, 66, 0
32, 672720, Note_on_c, 14, 67, 80
32, 673419, Note_on_c, 14, 67, 0
32, 673440, Note_on_c, 14, 67, 80
32, 674139, Note_on_c, 14, 67, 0
32, 674160, Note_on_c, 14, 67, 80
32, 674859, Note_on_c, 14, 67, 0
32, 674880, Note_on_c, 14, 66, 80
32, 676299, Note_on_c, 14, 66, 0
32, 676320, Note_on_c, 14, 54, 32
32, 676799, Note_on_c, 14, 54, 0
32, 677520, Note_on_c, 14, 54, 32
32, 677739, Note_on_c, 14, 54, 0
32, 677760, Note_on_c, 14, 48, 32
32, 678239, Note_on_c, 14, 48, 0
32, 678960, Note_on_c, 14, 48, 32
32, 679179, Note_on_c, 14, 48, 0
32, 679200, Note_on_c, 14, 57, 32
32, 679679, Note_on_c, 14, 57, 0
32, 680400, Note_on_c, 14, 57, 32
32, 680619, Note_on_c, 14, 57, 0
32, 680640, Note_on_c, 14, 58, 32
32, 681119, Note_on_c, 14, 58, 0
32, 681840, Note_on_c, 14, 58, 32
32, 682059, Note_on_c, 14, 58, 0
32, 682080, Note_on_c, 14, 52, 32
32, 682559, Note_on_c, 14, 52, 0
32, 683280, Note_on_c, 14, 52, 32
32, 683499, Note_on_c, 14, 52, 0
32, 683520, Note_on_c, 14, 61, 32
32, 683999, Note_on_c, 14, 61, 0
32, 684720, Note_on_c, 14, 61, 32
32, 684939, Note_on_c, 14, 61, 0
32, 684960, Note_on_c, 14, 62, 32
32, 685439, Note_on_c, 14, 62, 0
32, 685680, Control_c, 14, 11, 69
32, 686160, Note_on_c, 14, 62, 80
32, 686379, Note_on_c, 14, 62, 0
32, 686400, Note_on_c, 14, 63, 80
32, 687819, Note_on_c, 14, 63, 0
32, 687840, Control_c, 14, 11, 69
32, 687840, Note_on_c, 14, 55, 80
32, 688014, Control_c, 14, 11, 70
32, 688188, Control_c, 14, 11, 71
32, 688319, Note_on_c, 14, 55, 0
32, 688361, Control_c, 14, 11, 72
32, 688535, Control_c, 14, 11, 73
32, 688709, Control_c, 14, 11, 74
32, 688883, Control_c, 14, 11, 75
32, 689040, Note_on_c, 14, 55, 80
32, 689057, Control_c, 14, 11, 76
32, 689230, Control_c, 14, 11, 77
32, 689259, Note_on_c, 14, 55, 0
32, 689280, Note_on_c, 14, 64, 80
32, 689404, Control_c, 14, 11, 78
32, 689578, Control_c, 14, 11, 79
32, 689752, Control_c, 14, 11, 80
32, 689759, Note_on_c, 14, 64, 0
32, 689926, Control_c, 14, 11, 81
32, 690099, Control_c, 14, 11, 82
32, 690273, Control_c, 14, 11, 83
32, 690447, Control_c, 14, 11, 84
32, 690480, Note_on_c, 14, 64, 80
32, 690621, Control_c, 14, 11, 85
32, 690699, Note_on_c, 14, 64, 0
32, 690720, Note_on_c, 14, 65, 80
32, 690794, Control_c, 14, 11, 86
32, 690968, Control_c, 14, 11, 87
32, 691142, Control_c, 14, 11, 88
32, 691199, Note_on_c, 14, 65, 0
32, 691316, Control_c, 14, 11, 89
32, 691490, Control_c, 14, 11, 90
32, 691663, Control_c, 14, 11, 91
32, 691837, Control_c, 14, 11, 92
32, 691920, Note_on_c, 14, 65, 80
32, 692011, Control_c, 14, 11, 93
32, 692139, Note_on_c, 14, 65, 0
32, 692160, Note_on_c, 14, 66, 80
32, 692185, Control_c, 14, 11, 94
32, 692359, Control_c, 14, 11, 95
32, 692532, Control_c, 14, 11, 96
32, 692706, Control_c, 14, 11, 97
32, 692880, Control_c, 14, 11, 98
32, 693054, Control_c, 14, 11, 99
32, 693228, Control_c, 14, 11, 100
32, 693401, Control_c, 14, 11, 101
32, 693575, Control_c, 14, 11, 102
32, 693579, Note_on_c, 14, 66, 0
32, 693600, Note_on_c, 14, 58, 80
32, 693749, Control_c, 14, 11, 103
32, 693923, Control_c, 14, 11, 104
32, 694079, Note_on_c, 14, 58, 0
32, 694097, Control_c, 14, 11, 105
32, 694270, Control_c, 14, 11, 106
32, 694444, Control_c, 14, 11, 107
32, 694618, Control_c, 14, 11, 108
32, 694792, Control_c, 14, 11, 109
32, 694800, Note_on_c, 14, 58, 80
32, 694966, Control_c, 14, 11, 110
32, 695019, Note_on_c, 14, 58, 0
32, 695040, Note_on_c, 14, 67, 80
32, 695139, Control_c, 14, 11, 111
32, 695313, Control_c, 14, 11, 112
32, 695487, Control_c, 14, 11, 113
32, 695519, Note_on_c, 14, 67, 0
32, 695661, Control_c, 14, 11, 114
32, 695834, Control_c, 14, 11, 115
32, 696008, Control_c, 14, 11, 116
32, 696182, Control_c, 14, 11, 117
32, 696240, Note_on_c, 14, 67, 80
32, 696356, Control_c, 14, 11, 118
32, 696459, Note_on_c, 14, 67, 0
32, 696480, Note_on_c, 14, 68, 80
32, 696530, Control_c, 14, 11, 119
32, 696703, Control_c, 14, 11, 120
32, 696877, Control_c, 14, 11, 121
32, 696959, Note_on_c, 14, 68, 0
32, 697051, Control_c, 14, 11, 122
32, 697225, Control_c, 14, 11, 123
32, 697399, Control_c, 14, 11, 124
32, 697572, Control_c, 14, 11, 125
32, 697680, Note_on_c, 14, 68, 80
32, 697746, Control_c, 14, 11, 127
32, 697899, Note_on_c, 14, 68, 0
32, 697920, Note_on_c, 14, 69, 80
32, 698639, Note_on_c, 14, 69, 0
32, 700800, Note_on_c, 14, 62, 80
32, 700800, Note_on_c, 14, 57, 80
32, 701499, Note_on_c, 14, 62, 0
32, 701499, Note_on_c, 14, 57, 0
32, 701520, Note_on_c, 14, 62, 80
32, 701520, Note_on_c, 14, 57, 80
32, 702239, Note_on_c, 14, 62, 0
32, 702239, Note_on_c, 14, 57, 0
32, 702960, Control_c, 14, 11, 69
32, 703680, Note_on_c, 14, 64, 80
32, 703680, Note_on_c, 14, 61, 80
32, 704379, Note_on_c, 14, 64, 0
32, 704379, Note_on_c, 14, 61, 0
32, 704400, Note_on_c, 14, 61, 80
32, 704400, Note_on_c, 14, 64, 80
32, 705099, Note_on_c, 14, 61, 0
32, 705099, Note_on_c, 14, 64, 0
32, 705120, Note_on_c, 14, 61, 80
32, 705120, Note_on_c, 14, 64, 80
32, 705819, Note_on_c, 14, 61, 0
32, 705819, Note_on_c, 14, 64, 0
32, 705840, Note_on_c, 14, 61, 80
32, 705840, Note_on_c, 14, 64, 80
32, 706539, Note_on_c, 14, 61, 0
32, 706539, Note_on_c, 14, 64, 0
32, 706560, Note_on_c, 14, 62, 80
32, 706560, Control_c, 14, 11, 69
32, 706560, Note_on_c, 14, 64, 80
32, 706606, Control_c, 14, 11, 70
32, 706651, Control_c, 14, 11, 71
32, 706697, Control_c, 14, 11, 72
32, 706742, Control_c, 14, 11, 73
32, 706788, Control_c, 14, 11, 74
32, 706833, Control_c, 14, 11, 75
32, 706879, Control_c, 14, 11, 76
32, 706924, Control_c, 14, 11, 77
32, 706970, Control_c, 14, 11, 78
32, 707015, Control_c, 14, 11, 79
32, 707061, Control_c, 14, 11, 80
32, 707106, Control_c, 14, 11, 81
32, 707152, Control_c, 14, 11, 82
32, 707197, Control_c, 14, 11, 83
32, 707243, Control_c, 14, 11, 84
32, 707288, Control_c, 14, 11, 85
32, 707334, Control_c, 14, 11, 86
32, 707379, Control_c, 14, 11, 87
32, 707425, Control_c, 14, 11, 88
32, 707470, Control_c, 14, 11, 89
32, 707516, Control_c, 14, 11, 90
32, 707561, Control_c, 14, 11, 91
32, 707607, Control_c, 14, 11, 92
32, 707652, Control_c, 14, 11, 93
32, 707698, Control_c, 14, 11, 94
32, 707743, Control_c, 14, 11, 95
32, 707789, Control_c, 14, 11, 96
32, 707834, Control_c, 14, 11, 97
32, 707880, Control_c, 14, 11, 98
32, 707926, Control_c, 14, 11, 99
32, 707971, Control_c, 14, 11, 100
32, 708017, Control_c, 14, 11, 101
32, 708062, Control_c, 14, 11, 102
32, 708108, Control_c, 14, 11, 103
32, 708153, Control_c, 14, 11, 104
32, 708199, Control_c, 14, 11, 105
32, 708244, Control_c, 14, 11, 106
32, 708290, Control_c, 14, 11, 107
32, 708335, Control_c, 14, 11, 108
32, 708381, Control_c, 14, 11, 109
32, 708426, Control_c, 14, 11, 110
32, 708472, Control_c, 14, 11, 111
32, 708517, Control_c, 14, 11, 112
32, 708563, Control_c, 14, 11, 113
32, 708608, Control_c, 14, 11, 114
32, 708654, Control_c, 14, 11, 115
32, 708699, Note_on_c, 14, 62, 0
32, 708699, Note_on_c, 14, 64, 0
32, 708699, Control_c, 14, 11, 116
32, 708720, Note_on_c, 14, 62, 80
32, 708720, Note_on_c, 14, 64, 80
32, 708745, Control_c, 14, 11, 117
32, 708790, Control_c, 14, 11, 118
32, 708836, Control_c, 14, 11, 119
32, 708881, Control_c, 14, 11, 120
32, 708927, Control_c, 14, 11, 121
32, 708972, Control_c, 14, 11, 122
32, 709018, Control_c, 14, 11, 123
32, 709063, Control_c, 14, 11, 124
32, 709109, Control_c, 14, 11, 125
32, 709154, Control_c, 14, 11, 127
32, 709240, Control_c, 14, 11, 122
32, 709280, Control_c, 14, 11, 117
32, 709320, Control_c, 14, 11, 112
32, 709360, Control_c, 14, 11, 107
32, 709400, Control_c, 14, 11, 102
32, 709419, Note_on_c, 14, 62, 0
32, 709419, Note_on_c, 14, 64, 0
32, 709440, Note_on_c, 14, 64, 80
32, 709440, Note_on_c, 14, 61, 80
32, 709440, Control_c, 14, 11, 99
32, 709480, Control_c, 14, 11, 94
32, 709520, Control_c, 14, 11, 89
32, 709560, Control_c, 14, 11, 84
32, 709600, Control_c, 14, 11, 79
32, 709640, Control_c, 14, 11, 74
32, 709680, Control_c, 14, 11, 69
32, 710139, Note_on_c, 14, 64, 0
32, 710139, Note_on_c, 14, 61, 0
32, 710160, Note_on_c, 14, 64, 80
32, 710160, Note_on_c, 14, 61, 80
32, 711579, Note_on_c, 14, 64, 0
32, 711579, Note_on_c, 14, 61, 0
32, 711600, Note_on_c, 14, 64, 80
32, 711600, Note_on_c, 14, 61, 80
32, 712299, Note_on_c, 14, 64, 0
32, 712299, Note_on_c, 14, 61, 0
32, 712320, Note_on_c, 14, 62, 80
32, 712320, Note_on_c, 14, 64, 80
32, 713019, Note_on_c, 14, 62, 0
32, 713019, Note_on_c, 14, 64, 0
32, 713040, Note_on_c, 14, 64, 80
32, 713040, Note_on_c, 14, 62, 80
32, 713739, Note_on_c, 14, 64, 0
32, 713739, Note_on_c, 14, 62, 0
32, 713760, Note_on_c, 14, 62, 80
32, 713760, Note_on_c, 14, 64, 80
32, 714459, Note_on_c, 14, 62, 0
32, 714459, Note_on_c, 14, 64, 0
32, 714480, Note_on_c, 14, 62, 80
32, 714480, Note_on_c, 14, 64, 80
32, 715179, Note_on_c, 14, 62, 0
32, 715179, Note_on_c, 14, 64, 0
32, 715200, Note_on_c, 14, 61, 80
32, 715200, Note_on_c, 14, 64, 80
32, 715899, Note_on_c, 14, 61, 0
32, 715899, Note_on_c, 14, 64, 0
32, 715920, Note_on_c, 14, 61, 80
32, 716619, Note_on_c, 14, 61, 0
32, 716640, Note_on_c, 14, 61, 80
32, 716640, Control_c, 14, 11, 69
32, 716700, Control_c, 14, 11, 72
32, 716760, Control_c, 14, 11, 75
32, 716820, Control_c, 14, 11, 79
32, 716880, Control_c, 14, 11, 82
32, 716940, Control_c, 14, 11, 85
32, 717000, Control_c, 14, 11, 89
32, 717060, Control_c, 14, 11, 92
32, 717120, Control_c, 14, 11, 95
32, 717180, Control_c, 14, 11, 99
32, 717240, Control_c, 14, 11, 102
32, 717300, Control_c, 14, 11, 105
32, 717359, Note_on_c, 14, 61, 0
32, 717360, Control_c, 14, 11, 109
32, 717360, Note_on_c, 14, 60, 80
32, 717420, Control_c, 14, 11, 105
32, 717480, Control_c, 14, 11, 102
32, 717540, Control_c, 14, 11, 99
32, 717600, Control_c, 14, 11, 95
32, 717660, Control_c, 14, 11, 92
32, 717720, Control_c, 14, 11, 89
32, 717780, Control_c, 14, 11, 85
32, 717840, Control_c, 14, 11, 82
32, 717900, Control_c, 14, 11, 79
32, 717960, Control_c, 14, 11, 75
32, 718020, Control_c, 14, 11, 72
32, 718059, Note_on_c, 14, 60, 0
32, 718080, Control_c, 14, 11, 69
32, 718080, Note_on_c, 14, 59, 80
32, 718080, Note_on_c, 14, 62, 80
32, 718779, Note_on_c, 14, 59, 0
32, 718779, Note_on_c, 14, 62, 0
32, 718800, Note_on_c, 14, 59, 80
32, 718800, Note_on_c, 14, 62, 80
32, 719499, Note_on_c, 14, 59, 0
32, 719499, Note_on_c, 14, 62, 0
32, 719520, Note_on_c, 14, 62, 74
32, 719520, Note_on_c, 14, 59, 74
32, 720219, Note_on_c, 14, 62, 0
32, 720219, Note_on_c, 14, 59, 0
32, 720240, Note_on_c, 14, 59, 74
32, 720240, Note_on_c, 14, 62, 74
32, 720939, Note_on_c, 14, 59, 0
32, 720939, Note_on_c, 14, 62, 0
32, 720960, Note_on_c, 14, 62, 74
32, 720960, Note_on_c, 14, 59, 74
32, 723119, Note_on_c, 14, 62, 0
32, 723119, Note_on_c, 14, 59, 0
32, 723120, Note_on_c, 14, 59, 68
32, 723120, Note_on_c, 14, 62, 68
32, 723839, Note_on_c, 14, 59, 0
32, 723839, Note_on_c, 14, 62, 0
32, 724080, Control_c, 14, 11, 127
32, 724320, Note_on_c, 14, 67, 32
32, 724419, Note_on_c, 14, 67, 0
32, 724440, Note_on_c, 14, 69, 32
32, 724539, Note_on_c, 14, 69, 0
32, 724560, Note_on_c, 14, 71, 32
32, 724659, Note_on_c, 14, 71, 0
32, 724680, Note_on_c, 14, 71, 32
32, 724779, Note_on_c, 14, 71, 0
32, 724800, Note_on_c, 14, 71, 32
32, 724899, Note_on_c, 14, 71, 0
32, 724920, Note_on_c, 14, 69, 32
32, 725019, Note_on_c, 14, 69, 0
32, 725040, Note_on_c, 14, 67, 32
32, 725139, Note_on_c, 14, 67, 0
32, 725160, Note_on_c, 14, 66, 32
32, 725259, Note_on_c, 14, 66, 0
32, 725280, Note_on_c, 14, 64, 32
32, 725379, Note_on_c, 14, 64, 0
32, 725400, Note_on_c, 14, 66, 32
32, 725499, Note_on_c, 14, 66, 0
32, 725520, Note_on_c, 14, 67, 32
32, 725619, Note_on_c, 14, 67, 0
32, 725640, Note_on_c, 14, 67, 32
32, 725739, Note_on_c, 14, 67, 0
32, 725760, Note_on_c, 14, 67, 32
32, 725859, Note_on_c, 14, 67, 0
32, 725880, Note_on_c, 14, 66, 32
32, 725979, Note_on_c, 14, 66, 0
32, 726000, Note_on_c, 14, 64, 32
32, 726099, Note_on_c, 14, 64, 0
32, 726120, Note_on_c, 14, 62, 32
32, 726219, Note_on_c, 14, 62, 0
32, 726240, Note_on_c, 14, 61, 32
32, 726339, Note_on_c, 14, 61, 0
32, 726360, Note_on_c, 14, 62, 32
32, 726459, Note_on_c, 14, 62, 0
32, 726480, Note_on_c, 14, 64, 32
32, 726579, Note_on_c, 14, 64, 0
32, 726600, Note_on_c, 14, 64, 32
32, 726699, Note_on_c, 14, 64, 0
32, 726720, Note_on_c, 14, 64, 32
32, 726819, Note_on_c, 14, 64, 0
32, 726840, Note_on_c, 14, 66, 32
32, 726939, Note_on_c, 14, 66, 0
32, 726960, Note_on_c, 14, 67, 32
32, 727059, Note_on_c, 14, 67, 0
32, 727080, Note_on_c, 14, 69, 32
32, 727179, Note_on_c, 14, 69, 0
32, 727200, Note_on_c, 14, 71, 32
32, 727299, Note_on_c, 14, 71, 0
32, 727320, Note_on_c, 14, 73, 32
32, 727419, Note_on_c, 14, 73, 0
32, 727440, Note_on_c, 14, 74, 32
32, 727539, Note_on_c, 14, 74, 0
32, 727560, Note_on_c, 14, 76, 32
32, 727659, Note_on_c, 14, 76, 0
32, 727680, Note_on_c, 14, 50, 32
32, 727779, Note_on_c, 14, 50, 0
32, 727800, Note_on_c, 14, 50, 32
32, 727899, Note_on_c, 14, 50, 0
32, 727920, Note_on_c, 14, 50, 32
32, 728019, Note_on_c, 14, 50, 0
32, 728040, Note_on_c, 14, 50, 32
32, 728139, Note_on_c, 14, 50, 0
32, 728160, Note_on_c, 14, 50, 32
32, 728259, Note_on_c, 14, 50, 0
32, 728280, Note_on_c, 14, 50, 32
32, 728379, Note_on_c, 14, 50, 0
32, 728400, Note_on_c, 14, 50, 32
32, 728499, Note_on_c, 14, 50, 0
32, 728520, Note_on_c, 14, 50, 32
32, 728619, Note_on_c, 14, 50, 0
32, 728640, Note_on_c, 14, 50, 32
32, 728739, Note_on_c, 14, 50, 0
32, 728760, Note_on_c, 14, 50, 32
32, 728859, Note_on_c, 14, 50, 0
32, 728880, Note_on_c, 14, 50, 32
32, 728979, Note_on_c, 14, 50, 0
32, 729000, Note_on_c, 14, 50, 32
32, 729099, Note_on_c, 14, 50, 0
32, 729120, Note_on_c, 14, 50, 32
32, 729219, Note_on_c, 14, 50, 0
32, 729240, Note_on_c, 14, 50, 32
32, 729339, Note_on_c, 14, 50, 0
32, 729360, Note_on_c, 14, 50, 32
32, 729459, Note_on_c, 14, 50, 0
32, 729480, Note_on_c, 14, 50, 32
32, 729579, Note_on_c, 14, 50, 0
32, 729600, Note_on_c, 14, 50, 32
32, 729699, Note_on_c, 14, 50, 0
32, 729720, Note_on_c, 14, 50, 32
32, 729819, Note_on_c, 14, 50, 0
32, 729840, Note_on_c, 14, 50, 32
32, 729939, Note_on_c, 14, 50, 0
32, 729960, Note_on_c, 14, 50, 32
32, 730059, Note_on_c, 14, 50, 0
32, 730080, Note_on_c, 14, 50, 32
32, 730179, Note_on_c, 14, 50, 0
32, 730200, Note_on_c, 14, 50, 32
32, 730299, Note_on_c, 14, 50, 0
32, 730320, Note_on_c, 14, 50, 32
32, 730419, Note_on_c, 14, 50, 0
32, 730440, Note_on_c, 14, 50, 32
32, 730539, Note_on_c, 14, 50, 0
32, 730560, Note_on_c, 14, 50, 32
32, 730659, Note_on_c, 14, 50, 0
32, 730680, Note_on_c, 14, 50, 32
32, 730779, Note_on_c, 14, 50, 0
32, 730800, Note_on_c, 14, 50, 32
32, 730899, Note_on_c, 14, 50, 0
32, 730920, Note_on_c, 14, 50, 32
32, 731019, Note_on_c, 14, 50, 0
32, 731040, Note_on_c, 14, 50, 32
32, 731139, Note_on_c, 14, 50, 0
32, 731160, Note_on_c, 14, 50, 32
32, 731259, Note_on_c, 14, 50, 0
32, 731280, Note_on_c, 14, 50, 32
32, 731379, Note_on_c, 14, 50, 0
32, 731400, Note_on_c, 14, 50, 32
32, 731499, Note_on_c, 14, 50, 0
32, 731520, Note_on_c, 14, 50, 32
32, 731619, Note_on_c, 14, 50, 0
32, 731640, Note_on_c, 14, 50, 32
32, 731739, Note_on_c, 14, 50, 0
32, 731760, Note_on_c, 14, 50, 32
32, 731859, Note_on_c, 14, 50, 0
32, 731880, Note_on_c, 14, 50, 32
32, 731979, Note_on_c, 14, 50, 0
32, 732000, Note_on_c, 14, 50, 32
32, 732099, Note_on_c, 14, 50, 0
32, 732120, Note_on_c, 14, 50, 32
32, 732219, Note_on_c, 14, 50, 0
32, 732240, Note_on_c, 14, 50, 32
32, 732339, Note_on_c, 14, 50, 0
32, 732360, Note_on_c, 14, 50, 32
32, 732459, Note_on_c, 14, 50, 0
32, 732480, Note_on_c, 14, 50, 32
32, 732579, Note_on_c, 14, 50, 0
32, 732600, Note_on_c, 14, 50, 32
32, 732699, Note_on_c, 14, 50, 0
32, 732720, Note_on_c, 14, 50, 32
32, 732819, Note_on_c, 14, 50, 0
32, 732840, Note_on_c, 14, 50, 32
32, 732939, Note_on_c, 14, 50, 0
32, 732960, Note_on_c, 14, 50, 32
32, 733059, Note_on_c, 14, 50, 0
32, 733080, Note_on_c, 14, 50, 32
32, 733179, Note_on_c, 14, 50, 0
32, 733200, Note_on_c, 14, 50, 32
32, 733299, Note_on_c, 14, 50, 0
32, 733320, Note_on_c, 14, 50, 32
32, 733419, Note_on_c, 14, 50, 0
32, 733440, Note_on_c, 14, 50, 32
32, 733679, Note_on_c, 14, 50, 0
32, 733920, Note_on_c, 14, 62, 32
32, 734019, Note_on_c, 14, 62, 0
32, 734040, Note_on_c, 14, 64, 32
32, 734139, Note_on_c, 14, 64, 0
32, 734160, Note_on_c, 14, 66, 32
32, 734259, Note_on_c, 14, 66, 0
32, 734280, Note_on_c, 14, 66, 32
32, 734379, Note_on_c, 14, 66, 0
32, 734400, Note_on_c, 14, 66, 32
32, 734499, Note_on_c, 14, 66, 0
32, 734520, Note_on_c, 14, 64, 32
32, 734619, Note_on_c, 14, 64, 0
32, 734640, Note_on_c, 14, 62, 32
32, 734739, Note_on_c, 14, 62, 0
32, 734760, Note_on_c, 14, 61, 32
32, 734859, Note_on_c, 14, 61, 0
32, 734880, Note_on_c, 14, 59, 32
32, 734979, Note_on_c, 14, 59, 0
32, 735000, Note_on_c, 14, 61, 32
32, 735099, Note_on_c, 14, 61, 0
32, 735120, Note_on_c, 14, 62, 32
32, 735219, Note_on_c, 14, 62, 0
32, 735240, Note_on_c, 14, 62, 32
32, 735339, Note_on_c, 14, 62, 0
32, 735360, Note_on_c, 14, 62, 32
32, 735459, Note_on_c, 14, 62, 0
32, 735480, Note_on_c, 14, 61, 32
32, 735579, Note_on_c, 14, 61, 0
32, 735600, Note_on_c, 14, 59, 32
32, 735699, Note_on_c, 14, 59, 0
32, 735720, Note_on_c, 14, 57, 32
32, 735819, Note_on_c, 14, 57, 0
32, 735840, Note_on_c, 14, 56, 32
32, 735939, Note_on_c, 14, 56, 0
32, 735960, Note_on_c, 14, 57, 32
32, 736059, Note_on_c, 14, 57, 0
32, 736080, Note_on_c, 14, 59, 32
32, 736179, Note_on_c, 14, 59, 0
32, 736200, Note_on_c, 14, 59, 32
32, 736299, Note_on_c, 14, 59, 0
32, 736320, Note_on_c, 14, 59, 32
32, 736419, Note_on_c, 14, 59, 0
32, 736440, Note_on_c, 14, 57, 32
32, 736539, Note_on_c, 14, 57, 0
32, 736560, Note_on_c, 14, 56, 32
32, 736659, Note_on_c, 14, 56, 0
32, 736680, Note_on_c, 14, 54, 32
32, 736779, Note_on_c, 14, 54, 0
32, 736800, Note_on_c, 14, 52, 32
32, 736899, Note_on_c, 14, 52, 0
32, 736920, Note_on_c, 14, 50, 32
32, 737019, Note_on_c, 14, 50, 0
32, 737040, Note_on_c, 14, 49, 32
32, 737139, Note_on_c, 14, 49, 0
32, 737160, Note_on_c, 14, 59, 32
32, 737259, Note_on_c, 14, 59, 0
32, 737280, Note_on_c, 14, 57, 32
32, 737379, Note_on_c, 14, 57, 0
32, 737400, Note_on_c, 14, 57, 32
32, 737499, Note_on_c, 14, 57, 0
32, 737520, Note_on_c, 14, 57, 32
32, 737619, Note_on_c, 14, 57, 0
32, 737640, Note_on_c, 14, 57, 32
32, 737739, Note_on_c, 14, 57, 0
32, 737760, Note_on_c, 14, 57, 32
32, 737859, Note_on_c, 14, 57, 0
32, 737880, Note_on_c, 14, 57, 32
32, 737979, Note_on_c, 14, 57, 0
32, 738000, Note_on_c, 14, 57, 32
32, 738099, Note_on_c, 14, 57, 0
32, 738120, Note_on_c, 14, 57, 32
32, 738219, Note_on_c, 14, 57, 0
32, 738240, Note_on_c, 14, 57, 32
32, 738339, Note_on_c, 14, 57, 0
32, 738360, Note_on_c, 14, 57, 32
32, 738459, Note_on_c, 14, 57, 0
32, 738480, Note_on_c, 14, 57, 32
32, 738579, Note_on_c, 14, 57, 0
32, 738600, Note_on_c, 14, 57, 32
32, 738699, Note_on_c, 14, 57, 0
32, 738720, Note_on_c, 14, 57, 32
32, 738819, Note_on_c, 14, 57, 0
32, 738840, Note_on_c, 14, 57, 32
32, 738939, Note_on_c, 14, 57, 0
32, 738960, Note_on_c, 14, 57, 32
32, 739059, Note_on_c, 14, 57, 0
32, 739080, Note_on_c, 14, 57, 32
32, 739179, Note_on_c, 14, 57, 0
32, 739200, Note_on_c, 14, 57, 32
32, 739299, Note_on_c, 14, 57, 0
32, 739320, Note_on_c, 14, 57, 32
32, 739419, Note_on_c, 14, 57, 0
32, 739440, Note_on_c, 14, 57, 32
32, 739539, Note_on_c, 14, 57, 0
32, 739560, Note_on_c, 14, 57, 32
32, 739659, Note_on_c, 14, 57, 0
32, 739680, Note_on_c, 14, 57, 32
32, 739779, Note_on_c, 14, 57, 0
32, 739800, Note_on_c, 14, 57, 32
32, 739899, Note_on_c, 14, 57, 0
32, 739920, Note_on_c, 14, 57, 32
32, 740019, Note_on_c, 14, 57, 0
32, 740040, Note_on_c, 14, 57, 32
32, 740139, Note_on_c, 14, 57, 0
32, 740160, Note_on_c, 14, 57, 32
32, 740259, Note_on_c, 14, 57, 0
32, 740280, Note_on_c, 14, 57, 32
32, 740379, Note_on_c, 14, 57, 0
32, 740400, Note_on_c, 14, 57, 32
32, 740499, Note_on_c, 14, 57, 0
32, 740520, Note_on_c, 14, 57, 32
32, 740619, Note_on_c, 14, 57, 0
32, 740640, Note_on_c, 14, 57, 32
32, 740739, Note_on_c, 14, 57, 0
32, 740760, Note_on_c, 14, 57, 32
32, 740859, Note_on_c, 14, 57, 0
32, 740880, Note_on_c, 14, 57, 32
32, 740979, Note_on_c, 14, 57, 0
32, 741000, Note_on_c, 14, 57, 32
32, 741099, Note_on_c, 14, 57, 0
32, 741120, Note_on_c, 14, 57, 32
32, 741219, Note_on_c, 14, 57, 0
32, 741240, Note_on_c, 14, 57, 32
32, 741339, Note_on_c, 14, 57, 0
32, 741360, Note_on_c, 14, 57, 32
32, 741459, Note_on_c, 14, 57, 0
32, 741480, Note_on_c, 14, 57, 32
32, 741579, Note_on_c, 14, 57, 0
32, 741600, Note_on_c, 14, 57, 32
32, 741699, Note_on_c, 14, 57, 0
32, 741720, Note_on_c, 14, 57, 32
32, 741819, Note_on_c, 14, 57, 0
32, 741840, Note_on_c, 14, 57, 32
32, 741939, Note_on_c, 14, 57, 0
32, 741960, Note_on_c, 14, 57, 32
32, 742059, Note_on_c, 14, 57, 0
32, 742080, Note_on_c, 14, 57, 32
32, 742179, Note_on_c, 14, 57, 0
32, 742200, Note_on_c, 14, 57, 32
32, 742299, Note_on_c, 14, 57, 0
32, 742320, Note_on_c, 14, 57, 32
32, 742419, Note_on_c, 14, 57, 0
32, 742440, Note_on_c, 14, 57, 32
32, 742539, Note_on_c, 14, 57, 0
32, 742560, Note_on_c, 14, 69, 32
32, 742659, Note_on_c, 14, 69, 0
32, 742680, Note_on_c, 14, 69, 32
32, 742779, Note_on_c, 14, 69, 0
32, 742800, Note_on_c, 14, 69, 32
32, 742899, Note_on_c, 14, 69, 0
32, 742920, Note_on_c, 14, 69, 32
32, 743019, Note_on_c, 14, 69, 0
32, 743040, Note_on_c, 14, 67, 32
32, 743279, Note_on_c, 14, 67, 0
32, 743518, Program_c, 14, 45
32, 743520, Note_on_c, 14, 66, 28
32, 743759, Note_on_c, 14, 66, 0
32, 743760, Note_on_c, 14, 66, 28
32, 743999, Note_on_c, 14, 66, 0
32, 744000, Note_on_c, 14, 64, 28
32, 744239, Note_on_c, 14, 64, 0
32, 744480, Note_on_c, 14, 62, 28
32, 744719, Note_on_c, 14, 62, 0
32, 744720, Note_on_c, 14, 62, 28
32, 744959, Note_on_c, 14, 62, 0
32, 744960, Note_on_c, 14, 67, 28
32, 745199, Note_on_c, 14, 67, 0
32, 745440, Note_on_c, 14, 66, 28
32, 745679, Note_on_c, 14, 66, 0
32, 745680, Note_on_c, 14, 66, 28
32, 745919, Note_on_c, 14, 66, 0
32, 745920, Note_on_c, 14, 64, 28
32, 746159, Note_on_c, 14, 64, 0
32, 746400, Note_on_c, 14, 62, 28
32, 746639, Note_on_c, 14, 62, 0
32, 746880, Note_on_c, 14, 69, 28
32, 746880, Note_on_c, 14, 57, 28
32, 747119, Note_on_c, 14, 69, 0
32, 747119, Note_on_c, 14, 57, 0
32, 747360, Note_on_c, 14, 57, 29
32, 747360, Note_on_c, 14, 69, 29
32, 747599, Note_on_c, 14, 57, 0
32, 747599, Note_on_c, 14, 69, 0
32, 747840, Note_on_c, 14, 69, 31
32, 747840, Note_on_c, 14, 57, 31
32, 748079, Note_on_c, 14, 69, 0
32, 748079, Note_on_c, 14, 57, 0
32, 748320, Note_on_c, 14, 57, 33
32, 748320, Note_on_c, 14, 69, 33
32, 748559, Note_on_c, 14, 57, 0
32, 748559, Note_on_c, 14, 69, 0
32, 748800, Note_on_c, 14, 57, 34
32, 748800, Note_on_c, 14, 69, 34
32, 749039, Note_on_c, 14, 57, 0
32, 749039, Note_on_c, 14, 69, 0
32, 749280, Note_on_c, 14, 69, 36
32, 749280, Note_on_c, 14, 57, 36
32, 749519, Note_on_c, 14, 69, 0
32, 749519, Note_on_c, 14, 57, 0
32, 749760, Note_on_c, 14, 69, 38
32, 749760, Note_on_c, 14, 57, 38
32, 749999, Note_on_c, 14, 69, 0
32, 749999, Note_on_c, 14, 57, 0
32, 750240, Note_on_c, 14, 69, 40
32, 750240, Note_on_c, 14, 57, 40
32, 750479, Note_on_c, 14, 69, 0
32, 750479, Note_on_c, 14, 57, 0
32, 750720, Note_on_c, 14, 57, 41
32, 750959, Note_on_c, 14, 57, 0
32, 751200, Note_on_c, 14, 57, 43
32, 751439, Note_on_c, 14, 57, 0
32, 751680, Note_on_c, 14, 64, 45
32, 751919, Note_on_c, 14, 64, 0
32, 752160, Note_on_c, 14, 62, 46
32, 752399, Note_on_c, 14, 62, 0
32, 752400, Note_on_c, 14, 62, 47
32, 752639, Note_on_c, 14, 62, 0
32, 752640, Note_on_c, 14, 67, 48
32, 752879, Note_on_c, 14, 67, 0
32, 753120, Note_on_c, 14, 66, 50
32, 753359, Note_on_c, 14, 66, 0
32, 753360, Note_on_c, 14, 66, 51
32, 753599, Note_on_c, 14, 66, 0
32, 753600, Note_on_c, 14, 64, 52
32, 753600, Note_on_c, 14, 57, 52
32, 753839, Note_on_c, 14, 64, 0
32, 753839, Note_on_c, 14, 57, 0
32, 754080, Note_on_c, 14, 62, 53
32, 754080, Note_on_c, 14, 57, 53
32, 754299, Note_on_c, 14, 62, 0
32, 754299, Note_on_c, 14, 57, 0
32, 754320, Program_c, 14, 48
32, 754560, Note_on_c, 14, 52, 59
32, 754779, Note_on_c, 14, 52, 0
32, 754800, Note_on_c, 14, 52, 60
32, 755019, Note_on_c, 14, 52, 0
32, 755040, Note_on_c, 14, 50, 61
32, 755259, Note_on_c, 14, 50, 0
32, 755280, Note_on_c, 14, 50, 62
32, 755499, Note_on_c, 14, 50, 0
32, 755520, Note_on_c, 14, 55, 62
32, 755739, Note_on_c, 14, 55, 0
32, 755760, Note_on_c, 14, 55, 63
32, 755979, Note_on_c, 14, 55, 0
32, 756000, Note_on_c, 14, 54, 64
32, 756219, Note_on_c, 14, 54, 0
32, 756240, Note_on_c, 14, 54, 65
32, 756459, Note_on_c, 14, 54, 0
32, 756480, Note_on_c, 14, 54, 66
32, 756719, Note_on_c, 14, 54, 0
32, 756720, Note_on_c, 14, 52, 67
32, 756939, Note_on_c, 14, 52, 0
32, 756960, Note_on_c, 14, 50, 68
32, 757199, Note_on_c, 14, 50, 0
32, 757200, Note_on_c, 14, 57, 68
32, 757419, Note_on_c, 14, 57, 0
32, 757440, Note_on_c, 14, 57, 69
32, 757679, Note_on_c, 14, 57, 0
32, 757680, Note_on_c, 14, 55, 70
32, 757899, Note_on_c, 14, 55, 0
32, 757920, Note_on_c, 14, 55, 71
32, 758159, Note_on_c, 14, 55, 0
32, 758160, Note_on_c, 14, 54, 72
32, 758379, Note_on_c, 14, 54, 0
32, 758400, Note_on_c, 14, 54, 73
32, 758639, Note_on_c, 14, 54, 0
32, 758640, Note_on_c, 14, 52, 74
32, 758859, Note_on_c, 14, 52, 0
32, 758880, Note_on_c, 14, 50, 74
32, 759119, Note_on_c, 14, 50, 0
32, 759120, Note_on_c, 14, 57, 75
32, 759339, Note_on_c, 14, 57, 0
32, 759360, Note_on_c, 14, 57, 76
32, 759599, Note_on_c, 14, 57, 0
32, 759600, Note_on_c, 14, 55, 77
32, 759819, Note_on_c, 14, 55, 0
32, 759840, Note_on_c, 14, 55, 78
32, 760079, Note_on_c, 14, 55, 0
32, 760080, Note_on_c, 14, 54, 79
32, 760299, Note_on_c, 14, 54, 0
32, 760320, Note_on_c, 14, 57, 80
32, 760539, Note_on_c, 14, 57, 0
32, 760560, Note_on_c, 14, 57, 80
32, 760659, Note_on_c, 14, 57, 0
32, 760680, Note_on_c, 14, 57, 80
32, 760779, Note_on_c, 14, 57, 0
32, 760800, Note_on_c, 14, 59, 92
32, 760899, Note_on_c, 14, 59, 0
32, 760920, Note_on_c, 14, 59, 80
32, 761019, Note_on_c, 14, 59, 0
32, 761040, Note_on_c, 14, 57, 80
32, 761139, Note_on_c, 14, 57, 0
32, 761160, Note_on_c, 14, 57, 80
32, 761259, Note_on_c, 14, 57, 0
32, 761280, Note_on_c, 14, 62, 80
32, 761379, Note_on_c, 14, 62, 0
32, 761400, Note_on_c, 14, 62, 80
32, 761499, Note_on_c, 14, 62, 0
32, 761520, Note_on_c, 14, 49, 80
32, 761619, Note_on_c, 14, 49, 0
32, 761640, Note_on_c, 14, 49, 80
32, 761739, Note_on_c, 14, 49, 0
32, 761760, Note_on_c, 14, 54, 80
32, 761859, Note_on_c, 14, 54, 0
32, 761880, Note_on_c, 14, 54, 80
32, 761979, Note_on_c, 14, 54, 0
32, 762000, Note_on_c, 14, 52, 80
32, 762099, Note_on_c, 14, 52, 0
32, 762120, Note_on_c, 14, 52, 80
32, 762219, Note_on_c, 14, 52, 0
32, 762240, Note_on_c, 14, 57, 80
32, 762339, Note_on_c, 14, 57, 0
32, 762360, Note_on_c, 14, 57, 80
32, 762459, Note_on_c, 14, 57, 0
32, 762480, Note_on_c, 14, 55, 80
32, 762579, Note_on_c, 14, 55, 0
32, 762600, Note_on_c, 14, 55, 80
32, 762699, Note_on_c, 14, 55, 0
32, 762720, Note_on_c, 14, 55, 80
32, 762819, Note_on_c, 14, 55, 0
32, 762840, Note_on_c, 14, 55, 80
32, 762939, Note_on_c, 14, 55, 0
32, 762960, Note_on_c, 14, 55, 92
32, 763059, Note_on_c, 14, 55, 0
32, 763080, Note_on_c, 14, 55, 92
32, 763179, Note_on_c, 14, 55, 0
32, 763200, Note_on_c, 14, 62, 80
32, 763299, Note_on_c, 14, 62, 0
32, 763320, Note_on_c, 14, 62, 80
32, 763419, Note_on_c, 14, 62, 0
32, 763440, Note_on_c, 14, 61, 80
32, 763539, Note_on_c, 14, 61, 0
32, 763560, Note_on_c, 14, 61, 80
32, 763659, Note_on_c, 14, 61, 0
32, 763680, Note_on_c, 14, 66, 80
32, 763779, Note_on_c, 14, 66, 0
32, 763800, Note_on_c, 14, 66, 80
32, 763899, Note_on_c, 14, 66, 0
32, 763920, Note_on_c, 14, 64, 80
32, 764019, Note_on_c, 14, 64, 0
32, 764040, Note_on_c, 14, 64, 80
32, 764139, Note_on_c, 14, 64, 0
32, 764160, Note_on_c, 14, 69, 80
32, 764259, Note_on_c, 14, 69, 0
32, 764280, Note_on_c, 14, 69, 80
32, 764379, Note_on_c, 14, 69, 0
32, 764400, Note_on_c, 14, 67, 80
32, 764499, Note_on_c, 14, 67, 0
32, 764520, Note_on_c, 14, 67, 80
32, 764619, Note_on_c, 14, 67, 0
32, 764640, Note_on_c, 14, 57, 44
32, 764640, Note_on_c, 14, 67, 44
32, 764739, Note_on_c, 14, 57, 0
32, 764739, Note_on_c, 14, 67, 0
32, 764760, Note_on_c, 14, 67, 52
32, 764760, Note_on_c, 14, 57, 52
32, 764859, Note_on_c, 14, 67, 0
32, 764859, Note_on_c, 14, 57, 0
32, 764880, Note_on_c, 14, 57, 60
32, 764880, Note_on_c, 14, 67, 60
32, 764979, Note_on_c, 14, 57, 0
32, 764979, Note_on_c, 14, 67, 0
32, 765000, Note_on_c, 14, 67, 68
32, 765000, Note_on_c, 14, 57, 68
32, 765099, Note_on_c, 14, 67, 0
32, 765099, Note_on_c, 14, 57, 0
32, 765120, Note_on_c, 14, 64, 76
32, 765120, Note_on_c, 14, 57, 76
32, 765219, Note_on_c, 14, 64, 0
32, 765219, Note_on_c, 14, 57, 0
32, 765240, Note_on_c, 14, 64, 84
32, 765240, Note_on_c, 14, 57, 84
32, 765339, Note_on_c, 14, 64, 0
32, 765339, Note_on_c, 14, 57, 0
32, 765360, Note_on_c, 14, 66, 92
32, 765459, Note_on_c, 14, 66, 0
32, 765480, Note_on_c, 14, 54, 92
32, 765579, Note_on_c, 14, 54, 0
32, 765600, Note_on_c, 14, 66, 92
32, 765699, Note_on_c, 14, 66, 0
32, 765720, Note_on_c, 14, 54, 92
32, 765819, Note_on_c, 14, 54, 0
32, 765840, Note_on_c, 14, 57, 92
32, 765939, Note_on_c, 14, 57, 0
32, 765960, Note_on_c, 14, 62, 92
32, 766059, Note_on_c, 14, 62, 0
32, 766080, Note_on_c, 14, 66, 80
32, 766179, Note_on_c, 14, 66, 0
32, 766200, Note_on_c, 14, 64, 80
32, 766299, Note_on_c, 14, 64, 0
32, 766320, Note_on_c, 14, 62, 80
32, 766419, Note_on_c, 14, 62, 0
32, 766440, Note_on_c, 14, 50, 80
32, 766539, Note_on_c, 14, 50, 0
32, 766560, Note_on_c, 14, 62, 80
32, 766659, Note_on_c, 14, 62, 0
32, 766680, Note_on_c, 14, 50, 80
32, 766779, Note_on_c, 14, 50, 0
32, 766800, Note_on_c, 14, 54, 80
32, 766899, Note_on_c, 14, 54, 0
32, 766920, Note_on_c, 14, 59, 80
32, 767019, Note_on_c, 14, 59, 0
32, 767040, Note_on_c, 14, 62, 80
32, 767139, Note_on_c, 14, 62, 0
32, 767160, Note_on_c, 14, 61, 80
32, 767259, Note_on_c, 14, 61, 0
32, 767280, Note_on_c, 14, 59, 80
32, 767379, Note_on_c, 14, 59, 0
32, 767400, Note_on_c, 14, 59, 80
32, 767499, Note_on_c, 14, 59, 0
32, 767520, Note_on_c, 14, 71, 80
32, 767619, Note_on_c, 14, 71, 0
32, 767640, Note_on_c, 14, 59, 80
32, 767739, Note_on_c, 14, 59, 0
32, 767760, Note_on_c, 14, 62, 80
32, 767859, Note_on_c, 14, 62, 0
32, 767880, Note_on_c, 14, 67, 80
32, 767979, Note_on_c, 14, 67, 0
32, 768000, Note_on_c, 14, 71, 80
32, 768099, Note_on_c, 14, 71, 0
32, 768120, Note_on_c, 14, 69, 80
32, 768219, Note_on_c, 14, 69, 0
32, 768240, Note_on_c, 14, 67, 80
32, 768339, Note_on_c, 14, 67, 0
32, 768360, Note_on_c, 14, 55, 80
32, 768459, Note_on_c, 14, 55, 0
32, 768480, Note_on_c, 14, 67, 80
32, 768579, Note_on_c, 14, 67, 0
32, 768600, Note_on_c, 14, 55, 80
32, 768699, Note_on_c, 14, 55, 0
32, 768720, Note_on_c, 14, 59, 80
32, 768819, Note_on_c, 14, 59, 0
32, 768840, Note_on_c, 14, 64, 80
32, 768939, Note_on_c, 14, 64, 0
32, 768960, Note_on_c, 14, 67, 80
32, 769199, Note_on_c, 14, 67, 0
32, 769920, Control_c, 14, 11, 127
32, 769920, Note_on_c, 14, 59, 68
32, 769936, Control_c, 14, 11, 124
32, 769952, Control_c, 14, 11, 122
32, 769968, Control_c, 14, 11, 119
32, 769984, Control_c, 14, 11, 116
32, 770000, Control_c, 14, 11, 114
32, 770016, Control_c, 14, 11, 111
32, 770032, Control_c, 14, 11, 108
32, 770048, Control_c, 14, 11, 106
32, 770064, Control_c, 14, 11, 103
32, 770080, Control_c, 14, 11, 100
32, 770096, Control_c, 14, 11, 98
32, 770112, Control_c, 14, 11, 95
32, 770128, Control_c, 14, 11, 92
32, 770144, Control_c, 14, 11, 90
32, 770159, Note_on_c, 14, 59, 0
32, 770160, Control_c, 14, 11, 87
32, 770878, Control_c, 14, 11, 127
32, 770880, Note_on_c, 14, 59, 44
32, 771119, Note_on_c, 14, 59, 0
32, 771840, Note_on_c, 14, 57, 44
32, 772079, Note_on_c, 14, 57, 0
32, 772800, Note_on_c, 14, 64, 44
32, 772800, Note_on_c, 14, 61, 44
32, 773279, Note_on_c, 14, 64, 0
32, 773279, Note_on_c, 14, 61, 0
32, 776640, Note_on_c, 14, 61, 44
32, 776640, Note_on_c, 14, 64, 44
32, 776879, Note_on_c, 14, 61, 0
32, 776879, Note_on_c, 14, 64, 0
32, 777120, Note_on_c, 14, 69, 48
32, 777120, Note_on_c, 14, 57, 48
32, 777359, Note_on_c, 14, 69, 0
32, 777359, Note_on_c, 14, 57, 0
32, 777600, Note_on_c, 14, 64, 53
32, 777839, Note_on_c, 14, 64, 0
32, 778080, Note_on_c, 14, 62, 57
32, 778319, Note_on_c, 14, 62, 0
32, 778560, Note_on_c, 14, 57, 62
32, 778799, Note_on_c, 14, 57, 0
32, 778800, Note_on_c, 14, 61, 64
32, 779019, Note_on_c, 14, 61, 0
32, 779040, Note_on_c, 14, 62, 66
32, 779279, Note_on_c, 14, 62, 0
32, 779280, Note_on_c, 14, 66, 68
32, 779499, Note_on_c, 14, 66, 0
32, 779520, Note_on_c, 14, 69, 71
32, 779759, Note_on_c, 14, 69, 0
32, 779760, Note_on_c, 14, 61, 73
32, 779979, Note_on_c, 14, 61, 0
32, 780000, Note_on_c, 14, 62, 75
32, 780239, Note_on_c, 14, 62, 0
32, 780240, Note_on_c, 14, 66, 77
32, 780459, Note_on_c, 14, 66, 0
32, 780480, Note_on_c, 14, 69, 80
32, 780579, Note_on_c, 14, 69, 0
32, 780600, Note_on_c, 14, 69, 80
32, 780699, Note_on_c, 14, 69, 0
32, 780720, Note_on_c, 14, 57, 80
32, 780819, Note_on_c, 14, 57, 0
32, 780840, Note_on_c, 14, 57, 80
32, 780939, Note_on_c, 14, 57, 0
32, 780960, Note_on_c, 14, 59, 80
32, 781059, Note_on_c, 14, 59, 0
32, 781080, Note_on_c, 14, 59, 80
32, 781179, Note_on_c, 14, 59, 0
32, 781200, Note_on_c, 14, 57, 80
32, 781299, Note_on_c, 14, 57, 0
32, 781320, Note_on_c, 14, 57, 80
32, 781419, Note_on_c, 14, 57, 0
32, 781440, Note_on_c, 14, 50, 80
32, 781539, Note_on_c, 14, 50, 0
32, 781560, Note_on_c, 14, 50, 80
32, 781659, Note_on_c, 14, 50, 0
32, 781680, Note_on_c, 14, 49, 80
32, 781779, Note_on_c, 14, 49, 0
32, 781800, Note_on_c, 14, 49, 80
32, 781899, Note_on_c, 14, 49, 0
32, 781920, Note_on_c, 14, 54, 80
32, 782019, Note_on_c, 14, 54, 0
32, 782040, Note_on_c, 14, 54, 80
32, 782139, Note_on_c, 14, 54, 0
32, 782160, Note_on_c, 14, 52, 80
32, 782259, Note_on_c, 14, 52, 0
32, 782280, Note_on_c, 14, 52, 80
32, 782379, Note_on_c, 14, 52, 0
32, 782400, Note_on_c, 14, 57, 80
32, 782499, Note_on_c, 14, 57, 0
32, 782520, Note_on_c, 14, 57, 80
32, 782619, Note_on_c, 14, 57, 0
32, 782640, Note_on_c, 14, 55, 80
32, 782739, Note_on_c, 14, 55, 0
32, 782760, Note_on_c, 14, 55, 80
32, 782859, Note_on_c, 14, 55, 0
32, 782880, Note_on_c, 14, 55, 80
32, 782979, Note_on_c, 14, 55, 0
32, 783000, Note_on_c, 14, 55, 80
32, 783099, Note_on_c, 14, 55, 0
32, 783120, Note_on_c, 14, 55, 92
32, 783219, Note_on_c, 14, 55, 0
32, 783240, Note_on_c, 14, 55, 92
32, 783339, Note_on_c, 14, 55, 0
32, 783360, Note_on_c, 14, 62, 80
32, 783459, Note_on_c, 14, 62, 0
32, 783480, Note_on_c, 14, 62, 80
32, 783579, Note_on_c, 14, 62, 0
32, 783600, Note_on_c, 14, 61, 80
32, 783699, Note_on_c, 14, 61, 0
32, 783720, Note_on_c, 14, 61, 80
32, 783819, Note_on_c, 14, 61, 0
32, 783840, Note_on_c, 14, 66, 80
32, 783939, Note_on_c, 14, 66, 0
32, 783960, Note_on_c, 14, 66, 80
32, 784059, Note_on_c, 14, 66, 0
32, 784080, Note_on_c, 14, 64, 80
32, 784179, Note_on_c, 14, 64, 0
32, 784200, Note_on_c, 14, 64, 80
32, 784299, Note_on_c, 14, 64, 0
32, 784320, Note_on_c, 14, 69, 80
32, 784419, Note_on_c, 14, 69, 0
32, 784440, Note_on_c, 14, 69, 80
32, 784539, Note_on_c, 14, 69, 0
32, 784560, Note_on_c, 14, 67, 80
32, 784659, Note_on_c, 14, 67, 0
32, 784680, Note_on_c, 14, 67, 80
32, 784779, Note_on_c, 14, 67, 0
32, 784800, Note_on_c, 14, 67, 44
32, 784800, Note_on_c, 14, 57, 44
32, 784899, Note_on_c, 14, 67, 0
32, 784899, Note_on_c, 14, 57, 0
32, 784920, Note_on_c, 14, 57, 52
32, 784920, Note_on_c, 14, 67, 52
32, 785019, Note_on_c, 14, 57, 0
32, 785019, Note_on_c, 14, 67, 0
32, 785040, Note_on_c, 14, 57, 60
32, 785040, Note_on_c, 14, 67, 60
32, 785139, Note_on_c, 14, 57, 0
32, 785139, Note_on_c, 14, 67, 0
32, 785160, Note_on_c, 14, 67, 68
32, 785160, Note_on_c, 14, 57, 68
32, 785259, Note_on_c, 14, 67, 0
32, 785259, Note_on_c, 14, 57, 0
32, 785280, Note_on_c, 14, 67, 76
32, 785280, Note_on_c, 14, 57, 76
32, 785379, Note_on_c, 14, 67, 0
32, 785379, Note_on_c, 14, 57, 0
32, 785400, Note_on_c, 14, 67, 84
32, 785400, Note_on_c, 14, 57, 84
32, 785499, Note_on_c, 14, 67, 0
32, 785499, Note_on_c, 14, 57, 0
32, 785520, Note_on_c, 14, 66, 92
32, 785619, Note_on_c, 14, 66, 0
32, 785640, Note_on_c, 14, 54, 92
32, 785739, Note_on_c, 14, 54, 0
32, 785760, Note_on_c, 14, 66, 92
32, 785859, Note_on_c, 14, 66, 0
32, 785880, Note_on_c, 14, 54, 92
32, 785979, Note_on_c, 14, 54, 0
32, 786000, Note_on_c, 14, 57, 92
32, 786099, Note_on_c, 14, 57, 0
32, 786120, Note_on_c, 14, 62, 92
32, 786219, Note_on_c, 14, 62, 0
32, 786240, Note_on_c, 14, 66, 80
32, 786339, Note_on_c, 14, 66, 0
32, 786360, Note_on_c, 14, 64, 80
32, 786459, Note_on_c, 14, 64, 0
32, 786480, Note_on_c, 14, 62, 80
32, 786579, Note_on_c, 14, 62, 0
32, 786600, Note_on_c, 14, 50, 80
32, 786699, Note_on_c, 14, 50, 0
32, 786720, Note_on_c, 14, 62, 80
32, 786819, Note_on_c, 14, 62, 0
32, 786840, Note_on_c, 14, 50, 80
32, 786939, Note_on_c, 14, 50, 0
32, 786960, Note_on_c, 14, 54, 80
32, 787059, Note_on_c, 14, 54, 0
32, 787080, Note_on_c, 14, 59, 80
32, 787179, Note_on_c, 14, 59, 0
32, 787200, Note_on_c, 14, 62, 80
32, 787299, Note_on_c, 14, 62, 0
32, 787320, Note_on_c, 14, 61, 80
32, 787419, Note_on_c, 14, 61, 0
32, 787440, Note_on_c, 14, 59, 80
32, 787539, Note_on_c, 14, 59, 0
32, 787560, Note_on_c, 14, 71, 80
32, 787659, Note_on_c, 14, 71, 0
32, 787680, Note_on_c, 14, 71, 80
32, 787779, Note_on_c, 14, 71, 0
32, 787800, Note_on_c, 14, 59, 80
32, 787899, Note_on_c, 14, 59, 0
32, 787920, Note_on_c, 14, 62, 80
32, 788019, Note_on_c, 14, 62, 0
32, 788040, Note_on_c, 14, 67, 80
32, 788139, Note_on_c, 14, 67, 0
32, 788160, Note_on_c, 14, 71, 80
32, 788259, Note_on_c, 14, 71, 0
32, 788280, Note_on_c, 14, 69, 80
32, 788379, Note_on_c, 14, 69, 0
32, 788400, Note_on_c, 14, 67, 80
32, 788499, Note_on_c, 14, 67, 0
32, 788520, Note_on_c, 14, 55, 80
32, 788619, Note_on_c, 14, 55, 0
32, 788640, Note_on_c, 14, 67, 80
32, 788739, Note_on_c, 14, 67, 0
32, 788760, Note_on_c, 14, 55, 80
32, 788859, Note_on_c, 14, 55, 0
32, 788880, Note_on_c, 14, 59, 80
32, 788979, Note_on_c, 14, 59, 0
32, 789000, Note_on_c, 14, 64, 80
32, 789099, Note_on_c, 14, 64, 0
32, 789120, Note_on_c, 14, 67, 80
32, 789219, Note_on_c, 14, 67, 0
32, 789240, Note_on_c, 14, 55, 80
32, 789339, Note_on_c, 14, 55, 0
32, 789360, Note_on_c, 14, 59, 80
32, 789459, Note_on_c, 14, 59, 0
32, 789480, Note_on_c, 14, 64, 80
32, 789579, Note_on_c, 14, 64, 0
32, 789600, Note_on_c, 14, 68, 80
32, 789699, Note_on_c, 14, 68, 0
32, 789720, Note_on_c, 14, 56, 80
32, 789819, Note_on_c, 14, 56, 0
32, 789840, Note_on_c, 14, 59, 80
32, 789939, Note_on_c, 14, 59, 0
32, 789960, Note_on_c, 14, 64, 80
32, 790059, Note_on_c, 14, 64, 0
32, 790080, Note_on_c, 14, 68, 80
32, 790319, Note_on_c, 14, 68, 0
32, 791520, Note_on_c, 14, 59, 44
32, 791759, Note_on_c, 14, 59, 0
32, 792240, Note_on_c, 14, 66, 44
32, 792240, Note_on_c, 14, 59, 44
32, 792479, Note_on_c, 14, 66, 0
32, 792479, Note_on_c, 14, 59, 0
32, 793320, Note_on_c, 14, 61, 44
32, 793439, Note_on_c, 14, 61, 0
32, 793440, Note_on_c, 14, 64, 44
32, 793679, Note_on_c, 14, 64, 0
32, 794280, Note_on_c, 14, 54, 44
32, 794639, Note_on_c, 14, 54, 0
32, 795240, Note_on_c, 14, 58, 44
32, 795599, Note_on_c, 14, 58, 0
32, 796200, Note_on_c, 14, 54, 44
32, 796559, Note_on_c, 14, 54, 0
32, 797160, Note_on_c, 14, 54, 44
32, 797519, Note_on_c, 14, 54, 0
32, 798120, Note_on_c, 14, 54, 44
32, 798479, Note_on_c, 14, 54, 0
32, 799080, Note_on_c, 14, 54, 44
32, 799439, Note_on_c, 14, 54, 0
32, 800040, Note_on_c, 14, 54, 44
32, 800399, Note_on_c, 14, 54, 0
32, 801360, Note_on_c, 14, 71, 28
32, 801579, Note_on_c, 14, 71, 0
32, 801600, Note_on_c, 14, 69, 28
32, 801839, Note_on_c, 14, 69, 0
32, 802320, Note_on_c, 14, 71, 28
32, 802539, Note_on_c, 14, 71, 0
32, 802560, Note_on_c, 14, 69, 28
32, 802799, Note_on_c, 14, 69, 0
32, 803280, Note_on_c, 14, 71, 28
32, 803499, Note_on_c, 14, 71, 0
32, 803520, Note_on_c, 14, 69, 28
32, 803759, Note_on_c, 14, 69, 0
32, 804240, Note_on_c, 14, 71, 28
32, 804459, Note_on_c, 14, 71, 0
32, 804480, Note_on_c, 14, 69, 28
32, 804699, Note_on_c, 14, 69, 0
32, 804720, Note_on_c, 14, 71, 35
32, 804939, Note_on_c, 14, 71, 0
32, 804960, Note_on_c, 14, 69, 39
32, 805179, Note_on_c, 14, 69, 0
32, 805200, Note_on_c, 14, 71, 43
32, 805419, Note_on_c, 14, 71, 0
32, 805440, Note_on_c, 14, 69, 47
32, 805659, Note_on_c, 14, 69, 0
32, 805680, Note_on_c, 14, 71, 50
32, 805899, Note_on_c, 14, 71, 0
32, 805920, Note_on_c, 14, 69, 54
32, 806139, Note_on_c, 14, 69, 0
32, 806160, Note_on_c, 14, 71, 58
32, 806379, Note_on_c, 14, 71, 0
32, 806400, Note_on_c, 14, 69, 62
32, 806619, Note_on_c, 14, 69, 0
32, 806640, Note_on_c, 14, 71, 65
32, 806859, Note_on_c, 14, 71, 0
32, 806880, Note_on_c, 14, 69, 69
32, 807099, Note_on_c, 14, 69, 0
32, 807120, Note_on_c, 14, 71, 73
32, 807339, Note_on_c, 14, 71, 0
32, 807360, Note_on_c, 14, 69, 77
32, 807579, Note_on_c, 14, 69, 0
32, 807600, Note_on_c, 14, 71, 80
32, 807819, Note_on_c, 14, 71, 0
32, 807840, Note_on_c, 14, 69, 84
32, 808059, Note_on_c, 14, 69, 0
32, 808080, Note_on_c, 14, 71, 88
32, 808199, Note_on_c, 14, 71, 0
32, 808200, Note_on_c, 14, 73, 90
32, 808299, Note_on_c, 14, 73, 0
32, 808320, Note_on_c, 14, 74, 92
32, 808559, Note_on_c, 14, 74, 0
32, 811680, Note_on_c, 14, 57, 92
32, 811919, Note_on_c, 14, 57, 0
32, 811920, Note_on_c, 14, 59, 92
32, 812039, Note_on_c, 14, 59, 0
32, 812040, Note_on_c, 14, 61, 92
32, 812139, Note_on_c, 14, 61, 0
32, 812160, Note_on_c, 14, 50, 92
32, 812160, Note_on_c, 14, 62, 92
32, 812339, Note_on_c, 14, 50, 0
32, 812339, Note_on_c, 14, 62, 0
32, 812400, Note_on_c, 14, 50, 80
32, 812400, Note_on_c, 14, 62, 80
32, 812579, Note_on_c, 14, 50, 0
32, 812579, Note_on_c, 14, 62, 0
32, 812640, Note_on_c, 14, 61, 80
32, 812819, Note_on_c, 14, 61, 0
32, 812880, Note_on_c, 14, 57, 80
32, 813059, Note_on_c, 14, 57, 0
32, 813120, Note_on_c, 14, 52, 92
32, 813299, Note_on_c, 14, 52, 0
32, 813360, Note_on_c, 14, 64, 80
32, 813539, Note_on_c, 14, 64, 0
32, 813600, Note_on_c, 14, 63, 80
32, 813779, Note_on_c, 14, 63, 0
32, 813840, Note_on_c, 14, 59, 80
32, 814019, Note_on_c, 14, 59, 0
32, 814080, Note_on_c, 14, 64, 92
32, 814259, Note_on_c, 14, 64, 0
32, 814320, Note_on_c, 14, 54, 80
32, 814499, Note_on_c, 14, 54, 0
32, 814560, Note_on_c, 14, 55, 80
32, 814739, Note_on_c, 14, 55, 0
32, 814800, Note_on_c, 14, 56, 80
32, 814979, Note_on_c, 14, 56, 0
32, 815040, Note_on_c, 14, 57, 92
32, 815219, Note_on_c, 14, 57, 0
32, 815280, Note_on_c, 14, 56, 80
32, 815459, Note_on_c, 14, 56, 0
32, 815520, Note_on_c, 14, 57, 80
32, 815699, Note_on_c, 14, 57, 0
32, 815760, Note_on_c, 14, 59, 80
32, 815879, Note_on_c, 14, 59, 0
32, 815880, Note_on_c, 14, 57, 80
32, 815979, Note_on_c, 14, 57, 0
32, 816000, Note_on_c, 14, 55, 80
32, 816179, Note_on_c, 14, 55, 0
32, 816240, Note_on_c, 14, 67, 80
32, 816359, Note_on_c, 14, 67, 0
32, 816360, Note_on_c, 14, 66, 80
32, 816459, Note_on_c, 14, 66, 0
32, 816480, Note_on_c, 14, 64, 80
32, 816659, Note_on_c, 14, 64, 0
32, 816720, Note_on_c, 14, 64, 80
32, 816839, Note_on_c, 14, 64, 0
32, 816840, Note_on_c, 14, 62, 80
32, 816939, Note_on_c, 14, 62, 0
32, 816960, Note_on_c, 14, 61, 80
32, 817139, Note_on_c, 14, 61, 0
32, 817200, Note_on_c, 14, 61, 80
32, 817319, Note_on_c, 14, 61, 0
32, 817320, Note_on_c, 14, 59, 80
32, 817419, Note_on_c, 14, 59, 0
32, 817440, Note_on_c, 14, 57, 80
32, 817539, Note_on_c, 14, 57, 0
32, 817560, Note_on_c, 14, 69, 80
32, 817659, Note_on_c, 14, 69, 0
32, 817680, Note_on_c, 14, 69, 80
32, 817779, Note_on_c, 14, 69, 0
32, 817800, Note_on_c, 14, 57, 80
32, 817899, Note_on_c, 14, 57, 0
32, 817920, Note_on_c, 14, 55, 92
32, 818019, Note_on_c, 14, 55, 0
32, 818040, Note_on_c, 14, 55, 80
32, 818139, Note_on_c, 14, 55, 0
32, 818160, Note_on_c, 14, 57, 80
32, 818259, Note_on_c, 14, 57, 0
32, 818280, Note_on_c, 14, 57, 80
32, 818379, Note_on_c, 14, 57, 0
32, 818400, Note_on_c, 14, 55, 80
32, 818499, Note_on_c, 14, 55, 0
32, 818520, Note_on_c, 14, 55, 80
32, 818619, Note_on_c, 14, 55, 0
32, 818640, Note_on_c, 14, 54, 80
32, 818739, Note_on_c, 14, 54, 0
32, 818760, Note_on_c, 14, 54, 80
32, 818859, Note_on_c, 14, 54, 0
32, 818880, Note_on_c, 14, 55, 80
32, 818979, Note_on_c, 14, 55, 0
32, 819000, Note_on_c, 14, 55, 80
32, 819099, Note_on_c, 14, 55, 0
32, 819120, Note_on_c, 14, 57, 80
32, 819219, Note_on_c, 14, 57, 0
32, 819240, Note_on_c, 14, 57, 80
32, 819339, Note_on_c, 14, 57, 0
32, 819360, Note_on_c, 14, 55, 80
32, 819459, Note_on_c, 14, 55, 0
32, 819480, Note_on_c, 14, 55, 80
32, 819579, Note_on_c, 14, 55, 0
32, 819600, Note_on_c, 14, 54, 80
32, 819699, Note_on_c, 14, 54, 0
32, 819720, Note_on_c, 14, 54, 80
32, 819819, Note_on_c, 14, 54, 0
32, 819840, Note_on_c, 14, 55, 80
32, 819939, Note_on_c, 14, 55, 0
32, 819960, Note_on_c, 14, 55, 80
32, 820059, Note_on_c, 14, 55, 0
32, 820080, Note_on_c, 14, 57, 80
32, 820179, Note_on_c, 14, 57, 0
32, 820200, Note_on_c, 14, 57, 80
32, 820299, Note_on_c, 14, 57, 0
32, 820320, Note_on_c, 14, 55, 80
32, 820419, Note_on_c, 14, 55, 0
32, 820440, Note_on_c, 14, 55, 80
32, 820539, Note_on_c, 14, 55, 0
32, 820560, Note_on_c, 14, 54, 80
32, 820659, Note_on_c, 14, 54, 0
32, 820680, Note_on_c, 14, 54, 80
32, 820779, Note_on_c, 14, 54, 0
32, 820800, Note_on_c, 14, 55, 80
32, 820899, Note_on_c, 14, 55, 0
32, 820920, Note_on_c, 14, 55, 80
32, 821019, Note_on_c, 14, 55, 0
32, 821040, Note_on_c, 14, 57, 80
32, 821139, Note_on_c, 14, 57, 0
32, 821160, Note_on_c, 14, 57, 80
32, 821259, Note_on_c, 14, 57, 0
32, 821280, Note_on_c, 14, 55, 80
32, 821379, Note_on_c, 14, 55, 0
32, 821400, Note_on_c, 14, 55, 80
32, 821499, Note_on_c, 14, 55, 0
32, 821520, Note_on_c, 14, 54, 80
32, 821619, Note_on_c, 14, 54, 0
32, 821640, Note_on_c, 14, 54, 80
32, 821739, Note_on_c, 14, 54, 0
32, 821760, Note_on_c, 14, 55, 80
32, 821859, Note_on_c, 14, 55, 0
32, 821880, Note_on_c, 14, 55, 80
32, 821979, Note_on_c, 14, 55, 0
32, 822000, Note_on_c, 14, 57, 80
32, 822099, Note_on_c, 14, 57, 0
32, 822120, Note_on_c, 14, 57, 80
32, 822219, Note_on_c, 14, 57, 0
32, 822240, Note_on_c, 14, 55, 80
32, 822339, Note_on_c, 14, 55, 0
32, 822360, Note_on_c, 14, 55, 80
32, 822459, Note_on_c, 14, 55, 0
32, 822480, Note_on_c, 14, 54, 80
32, 822579, Note_on_c, 14, 54, 0
32, 822600, Note_on_c, 14, 54, 80
32, 822699, Note_on_c, 14, 54, 0
32, 822720, Note_on_c, 14, 55, 80
32, 822819, Note_on_c, 14, 55, 0
32, 822840, Note_on_c, 14, 55, 80
32, 822939, Note_on_c, 14, 55, 0
32, 822960, Note_on_c, 14, 57, 80
32, 823059, Note_on_c, 14, 57, 0
32, 823080, Note_on_c, 14, 57, 80
32, 823179, Note_on_c, 14, 57, 0
32, 823200, Note_on_c, 14, 55, 80
32, 823299, Note_on_c, 14, 55, 0
32, 823320, Note_on_c, 14, 55, 80
32, 823419, Note_on_c, 14, 55, 0
32, 823440, Note_on_c, 14, 54, 80
32, 823539, Note_on_c, 14, 54, 0
32, 823560, Note_on_c, 14, 54, 80
32, 823659, Note_on_c, 14, 54, 0
32, 823680, Note_on_c, 14, 55, 80
32, 823779, Note_on_c, 14, 55, 0
32, 823800, Note_on_c, 14, 55, 80
32, 823899, Note_on_c, 14, 55, 0
32, 823920, Note_on_c, 14, 57, 80
32, 824019, Note_on_c, 14, 57, 0
32, 824040, Note_on_c, 14, 57, 80
32, 824139, Note_on_c, 14, 57, 0
32, 824160, Note_on_c, 14, 55, 80
32, 824259, Note_on_c, 14, 55, 0
32, 824280, Note_on_c, 14, 55, 80
32, 824379, Note_on_c, 14, 55, 0
32, 824400, Note_on_c, 14, 54, 80
32, 824499, Note_on_c, 14, 54, 0
32, 824520, Note_on_c, 14, 54, 80
32, 824619, Note_on_c, 14, 54, 0
32, 824640, Note_on_c, 14, 55, 80
32, 824739, Note_on_c, 14, 55, 0
32, 824760, Note_on_c, 14, 55, 80
32, 824859, Note_on_c, 14, 55, 0
32, 824880, Note_on_c, 14, 57, 80
32, 824979, Note_on_c, 14, 57, 0
32, 825000, Note_on_c, 14, 57, 80
32, 825099, Note_on_c, 14, 57, 0
32, 825120, Note_on_c, 14, 55, 80
32, 825219, Note_on_c, 14, 55, 0
32, 825240, Note_on_c, 14, 55, 80
32, 825339, Note_on_c, 14, 55, 0
32, 825360, Note_on_c, 14, 54, 80
32, 825459, Note_on_c, 14, 54, 0
32, 825480, Note_on_c, 14, 54, 80
32, 825579, Note_on_c, 14, 54, 0
32, 825600, Note_on_c, 14, 61, 80
32, 825699, Note_on_c, 14, 61, 0
32, 825720, Note_on_c, 14, 61, 80
32, 825819, Note_on_c, 14, 61, 0
32, 825840, Note_on_c, 14, 61, 80
32, 825939, Note_on_c, 14, 61, 0
32, 825960, Note_on_c, 14, 61, 80
32, 826059, Note_on_c, 14, 61, 0
32, 826080, Note_on_c, 14, 62, 80
32, 826179, Note_on_c, 14, 62, 0
32, 826200, Note_on_c, 14, 62, 80
32, 826299, Note_on_c, 14, 62, 0
32, 826320, Note_on_c, 14, 62, 80
32, 826419, Note_on_c, 14, 62, 0
32, 826440, Note_on_c, 14, 62, 80
32, 826539, Note_on_c, 14, 62, 0
32, 826560, Note_on_c, 14, 59, 80
32, 826659, Note_on_c, 14, 59, 0
32, 826680, Note_on_c, 14, 59, 80
32, 826779, Note_on_c, 14, 59, 0
32, 826800, Note_on_c, 14, 59, 80
32, 826899, Note_on_c, 14, 59, 0
32, 826920, Note_on_c, 14, 59, 80
32, 827019, Note_on_c, 14, 59, 0
32, 827040, Note_on_c, 14, 59, 80
32, 827139, Note_on_c, 14, 59, 0
32, 827160, Note_on_c, 14, 59, 80
32, 827259, Note_on_c, 14, 59, 0
32, 827280, Note_on_c, 14, 59, 80
32, 827379, Note_on_c, 14, 59, 0
32, 827400, Note_on_c, 14, 59, 80
32, 827499, Note_on_c, 14, 59, 0
32, 827520, Note_on_c, 14, 57, 80
32, 827619, Note_on_c, 14, 57, 0
32, 827640, Note_on_c, 14, 57, 80
32, 827739, Note_on_c, 14, 57, 0
32, 827760, Note_on_c, 14, 57, 80
32, 827859, Note_on_c, 14, 57, 0
32, 827880, Note_on_c, 14, 57, 80
32, 827979, Note_on_c, 14, 57, 0
32, 828000, Note_on_c, 14, 57, 80
32, 828000, Note_on_c, 14, 52, 80
32, 828099, Note_on_c, 14, 57, 0
32, 828099, Note_on_c, 14, 52, 0
32, 828120, Note_on_c, 14, 57, 80
32, 828120, Note_on_c, 14, 52, 80
32, 828219, Note_on_c, 14, 57, 0
32, 828219, Note_on_c, 14, 52, 0
32, 828240, Note_on_c, 14, 52, 80
32, 828240, Note_on_c, 14, 57, 80
32, 828339, Note_on_c, 14, 52, 0
32, 828339, Note_on_c, 14, 57, 0
32, 828360, Note_on_c, 14, 52, 80
32, 828360, Note_on_c, 14, 57, 80
32, 828459, Note_on_c, 14, 52, 0
32, 828459, Note_on_c, 14, 57, 0
32, 828480, Note_on_c, 14, 57, 80
32, 828480, Note_on_c, 14, 54, 80
32, 828579, Note_on_c, 14, 57, 0
32, 828579, Note_on_c, 14, 54, 0
32, 828600, Note_on_c, 14, 57, 80
32, 828600, Note_on_c, 14, 54, 80
32, 828699, Note_on_c, 14, 57, 0
32, 828699, Note_on_c, 14, 54, 0
32, 828720, Note_on_c, 14, 57, 80
32, 828720, Note_on_c, 14, 54, 80
32, 828819, Note_on_c, 14, 57, 0
32, 828819, Note_on_c, 14, 54, 0
32, 828840, Note_on_c, 14, 57, 80
32, 828840, Note_on_c, 14, 54, 80
32, 828939, Note_on_c, 14, 57, 0
32, 828939, Note_on_c, 14, 54, 0
32, 828960, Note_on_c, 14, 54, 80
32, 828960, Note_on_c, 14, 57, 80
32, 829059, Note_on_c, 14, 54, 0
32, 829059, Note_on_c, 14, 57, 0
32, 829080, Note_on_c, 14, 57, 80
32, 829080, Note_on_c, 14, 54, 80
32, 829179, Note_on_c, 14, 57, 0
32, 829179, Note_on_c, 14, 54, 0
32, 829200, Note_on_c, 14, 57, 80
32, 829200, Note_on_c, 14, 54, 80
32, 829299, Note_on_c, 14, 57, 0
32, 829299, Note_on_c, 14, 54, 0
32, 829320, Note_on_c, 14, 54, 80
32, 829320, Note_on_c, 14, 57, 80
32, 829419, Note_on_c, 14, 54, 0
32, 829419, Note_on_c, 14, 57, 0
32, 829440, Note_on_c, 14, 59, 80
32, 829539, Note_on_c, 14, 59, 0
32, 829560, Note_on_c, 14, 59, 80
32, 829659, Note_on_c, 14, 59, 0
32, 829680, Note_on_c, 14, 61, 80
32, 829779, Note_on_c, 14, 61, 0
32, 829800, Note_on_c, 14, 61, 80
32, 829899, Note_on_c, 14, 61, 0
32, 829920, Note_on_c, 14, 64, 80
32, 830019, Note_on_c, 14, 64, 0
32, 830040, Note_on_c, 14, 64, 80
32, 830139, Note_on_c, 14, 64, 0
32, 830160, Note_on_c, 14, 62, 80
32, 830259, Note_on_c, 14, 62, 0
32, 830280, Note_on_c, 14, 62, 80
32, 830379, Note_on_c, 14, 62, 0
32, 830400, Note_on_c, 14, 59, 80
32, 830499, Note_on_c, 14, 59, 0
32, 830520, Note_on_c, 14, 59, 80
32, 830619, Note_on_c, 14, 59, 0
32, 830640, Note_on_c, 14, 71, 80
32, 830739, Note_on_c, 14, 71, 0
32, 830760, Note_on_c, 14, 71, 80
32, 830859, Note_on_c, 14, 71, 0
32, 830880, Note_on_c, 14, 59, 80
32, 830979, Note_on_c, 14, 59, 0
32, 831000, Note_on_c, 14, 59, 80
32, 831099, Note_on_c, 14, 59, 0
32, 831120, Note_on_c, 14, 71, 80
32, 831219, Note_on_c, 14, 71, 0
32, 831240, Note_on_c, 14, 71, 80
32, 831339, Note_on_c, 14, 71, 0
32, 831360, Note_on_c, 14, 54, 80
32, 831360, Note_on_c, 14, 57, 80
32, 831459, Note_on_c, 14, 54, 0
32, 831459, Note_on_c, 14, 57, 0
32, 831480, Note_on_c, 14, 54, 80
32, 831480, Note_on_c, 14, 57, 80
32, 831579, Note_on_c, 14, 54, 0
32, 831579, Note_on_c, 14, 57, 0
32, 831600, Note_on_c, 14, 66, 80
32, 831600, Note_on_c, 14, 69, 80
32, 831699, Note_on_c, 14, 66, 0
32, 831699, Note_on_c, 14, 69, 0
32, 831720, Note_on_c, 14, 66, 80
32, 831720, Note_on_c, 14, 69, 80
32, 831819, Note_on_c, 14, 66, 0
32, 831819, Note_on_c, 14, 69, 0
32, 831840, Note_on_c, 14, 57, 80
32, 831840, Note_on_c, 14, 52, 80
32, 831939, Note_on_c, 14, 57, 0
32, 831939, Note_on_c, 14, 52, 0
32, 831960, Note_on_c, 14, 52, 80
32, 831960, Note_on_c, 14, 57, 80
32, 832059, Note_on_c, 14, 52, 0
32, 832059, Note_on_c, 14, 57, 0
32, 832080, Note_on_c, 14, 64, 80
32, 832080, Note_on_c, 14, 69, 80
32, 832179, Note_on_c, 14, 64, 0
32, 832179, Note_on_c, 14, 69, 0
32, 832200, Note_on_c, 14, 69, 80
32, 832200, Note_on_c, 14, 64, 80
32, 832299, Note_on_c, 14, 69, 0
32, 832299, Note_on_c, 14, 64, 0
32, 832320, Note_on_c, 14, 62, 80
32, 832320, Note_on_c, 14, 50, 80
32, 832529, Note_on_c, 14, 62, 0
32, 832529, Note_on_c, 14, 50, 0
32, 832560, Note_on_c, 14, 50, 80
32, 832560, Note_on_c, 14, 62, 80
32, 832769, Note_on_c, 14, 50, 0
32, 832769, Note_on_c, 14, 62, 0
32, 832800, Note_on_c, 14, 61, 80
32, 833009, Note_on_c, 14, 61, 0
32, 833040, Note_on_c, 14, 57, 80
32, 833249, Note_on_c, 14, 57, 0
32, 833280, Note_on_c, 14, 54, 80
32, 833489, Note_on_c, 14, 54, 0
32, 833520, Note_on_c, 14, 54, 80
32, 833639, Note_on_c, 14, 54, 0
32, 833640, Note_on_c, 14, 55, 80
32, 833739, Note_on_c, 14, 55, 0
32, 833760, Note_on_c, 14, 57, 80
32, 833939, Note_on_c, 14, 57, 0
32, 834240, Note_on_c, 14, 64, 80
32, 834449, Note_on_c, 14, 64, 0
32, 834480, Note_on_c, 14, 64, 80
32, 834689, Note_on_c, 14, 64, 0
32, 834720, Note_on_c, 14, 63, 80
32, 834929, Note_on_c, 14, 63, 0
32, 834960, Note_on_c, 14, 59, 80
32, 835169, Note_on_c, 14, 59, 0
32, 835200, Note_on_c, 14, 55, 80
32, 835409, Note_on_c, 14, 55, 0
32, 835440, Note_on_c, 14, 55, 80
32, 835559, Note_on_c, 14, 55, 0
32, 835560, Note_on_c, 14, 57, 80
32, 835659, Note_on_c, 14, 57, 0
32, 835680, Note_on_c, 14, 59, 80
32, 835859, Note_on_c, 14, 59, 0
32, 835920, Note_on_c, 14, 63, 80
32, 836039, Note_on_c, 14, 63, 0
32, 836040, Note_on_c, 14, 64, 80
32, 836159, Note_on_c, 14, 64, 0
32, 836160, Note_on_c, 14, 66, 92
32, 836339, Note_on_c, 14, 66, 0
32, 836400, Note_on_c, 14, 63, 92
32, 836519, Note_on_c, 14, 63, 0
32, 836520, Note_on_c, 14, 64, 92
32, 836639, Note_on_c, 14, 64, 0
32, 836640, Note_on_c, 14, 66, 92
32, 836819, Note_on_c, 14, 66, 0
32, 836880, Note_on_c, 14, 63, 92
32, 836999, Note_on_c, 14, 63, 0
32, 837000, Note_on_c, 14, 64, 92
32, 837119, Note_on_c, 14, 64, 0
32, 837120, Note_on_c, 14, 66, 92
32, 837299, Note_on_c, 14, 66, 0
32, 837360, Note_on_c, 14, 63, 92
32, 837479, Note_on_c, 14, 63, 0
32, 837480, Note_on_c, 14, 64, 92
32, 837599, Note_on_c, 14, 64, 0
32, 837600, Note_on_c, 14, 66, 92
32, 837779, Note_on_c, 14, 66, 0
32, 837840, Note_on_c, 14, 63, 92
32, 837959, Note_on_c, 14, 63, 0
32, 837960, Note_on_c, 14, 64, 92
32, 838079, Note_on_c, 14, 64, 0
32, 838080, Note_on_c, 14, 66, 92
32, 838259, Note_on_c, 14, 66, 0
32, 838320, Note_on_c, 14, 63, 92
32, 838439, Note_on_c, 14, 63, 0
32, 838440, Note_on_c, 14, 64, 92
32, 838559, Note_on_c, 14, 64, 0
32, 838560, Note_on_c, 14, 66, 92
32, 838739, Note_on_c, 14, 66, 0
32, 838800, Note_on_c, 14, 67, 92
32, 838919, Note_on_c, 14, 67, 0
32, 838920, Note_on_c, 14, 66, 92
32, 839019, Note_on_c, 14, 66, 0
32, 839040, Note_on_c, 14, 64, 92
32, 839489, Note_on_c, 14, 64, 0
32, 839520, Note_on_c, 14, 64, 92
32, 839969, Note_on_c, 14, 64, 0
32, 840000, Note_on_c, 14, 64, 92
32, 840449, Note_on_c, 14, 64, 0
32, 840480, Note_on_c, 14, 64, 92
32, 840929, Note_on_c, 14, 64, 0
32, 840960, Note_on_c, 14, 65, 92
32, 840960, Note_on_c, 14, 69, 92
32, 841409, Note_on_c, 14, 65, 0
32, 841409, Note_on_c, 14, 69, 0
32, 841440, Note_on_c, 14, 65, 92
32, 841440, Note_on_c, 14, 74, 92
32, 841889, Note_on_c, 14, 65, 0
32, 841889, Note_on_c, 14, 74, 0
32, 841920, Note_on_c, 14, 73, 92
32, 842369, Note_on_c, 14, 73, 0
32, 842400, Note_on_c, 14, 57, 92
32, 842609, Note_on_c, 14, 57, 0
32, 842640, Note_on_c, 14, 68, 92
32, 842759, Note_on_c, 14, 68, 0
32, 842760, Note_on_c, 14, 69, 92
32, 842859, Note_on_c, 14, 69, 0
32, 842880, Note_on_c, 14, 66, 92
32, 842880, Note_on_c, 14, 69, 92
32, 842979, Note_on_c, 14, 66, 0
32, 842979, Note_on_c, 14, 69, 0
32, 843000, Note_on_c, 14, 69, 92
32, 843000, Note_on_c, 14, 66, 92
32, 843099, Note_on_c, 14, 69, 0
32, 843099, Note_on_c, 14, 66, 0
32, 843120, Note_on_c, 14, 69, 92
32, 843120, Note_on_c, 14, 66, 92
32, 843219, Note_on_c, 14, 69, 0
32, 843219, Note_on_c, 14, 66, 0
32, 843240, Note_on_c, 14, 66, 92
32, 843240, Note_on_c, 14, 69, 92
32, 843339, Note_on_c, 14, 66, 0
32, 843339, Note_on_c, 14, 69, 0
32, 843360, Note_on_c, 14, 66, 92
32, 843360, Note_on_c, 14, 69, 92
32, 843459, Note_on_c, 14, 66, 0
32, 843459, Note_on_c, 14, 69, 0
32, 843480, Note_on_c, 14, 69, 80
32, 843480, Note_on_c, 14, 66, 80
32, 843579, Note_on_c, 14, 69, 0
32, 843579, Note_on_c, 14, 66, 0
32, 843600, Note_on_c, 14, 66, 80
32, 843600, Note_on_c, 14, 69, 80
32, 843699, Note_on_c, 14, 66, 0
32, 843699, Note_on_c, 14, 69, 0
32, 843720, Note_on_c, 14, 66, 80
32, 843720, Note_on_c, 14, 69, 80
32, 843819, Note_on_c, 14, 66, 0
32, 843819, Note_on_c, 14, 69, 0
32, 843840, Note_on_c, 14, 69, 80
32, 843840, Note_on_c, 14, 66, 80
32, 843939, Note_on_c, 14, 69, 0
32, 843939, Note_on_c, 14, 66, 0
32, 843960, Note_on_c, 14, 66, 80
32, 843960, Note_on_c, 14, 69, 80
32, 844059, Note_on_c, 14, 66, 0
32, 844059, Note_on_c, 14, 69, 0
32, 844080, Note_on_c, 14, 66, 80
32, 844080, Note_on_c, 14, 69, 80
32, 844179, Note_on_c, 14, 66, 0
32, 844179, Note_on_c, 14, 69, 0
32, 844200, Note_on_c, 14, 66, 80
32, 844200, Note_on_c, 14, 69, 80
32, 844299, Note_on_c, 14, 66, 0
32, 844299, Note_on_c, 14, 69, 0
32, 844320, Note_on_c, 14, 69, 80
32, 844320, Note_on_c, 14, 66, 80
32, 844419, Note_on_c, 14, 69, 0
32, 844419, Note_on_c, 14, 66, 0
32, 844440, Note_on_c, 14, 69, 80
32, 844440, Note_on_c, 14, 66, 80
32, 844539, Note_on_c, 14, 69, 0
32, 844539, Note_on_c, 14, 66, 0
32, 844560, Note_on_c, 14, 66, 80
32, 844560, Note_on_c, 14, 69, 80
32, 844659, Note_on_c, 14, 66, 0
32, 844659, Note_on_c, 14, 69, 0
32, 844680, Note_on_c, 14, 69, 80
32, 844680, Note_on_c, 14, 66, 80
32, 844779, Note_on_c, 14, 69, 0
32, 844779, Note_on_c, 14, 66, 0
32, 844800, Note_on_c, 14, 66, 80
32, 844800, Note_on_c, 14, 69, 80
32, 844899, Note_on_c, 14, 66, 0
32, 844899, Note_on_c, 14, 69, 0
32, 844920, Note_on_c, 14, 66, 80
32, 844920, Note_on_c, 14, 69, 80
32, 845019, Note_on_c, 14, 66, 0
32, 845019, Note_on_c, 14, 69, 0
32, 845040, Note_on_c, 14, 69, 80
32, 845040, Note_on_c, 14, 66, 80
32, 845139, Note_on_c, 14, 69, 0
32, 845139, Note_on_c, 14, 66, 0
32, 845160, Note_on_c, 14, 69, 80
32, 845160, Note_on_c, 14, 66, 80
32, 845259, Note_on_c, 14, 69, 0
32, 845259, Note_on_c, 14, 66, 0
32, 845280, Note_on_c, 14, 69, 80
32, 845280, Note_on_c, 14, 66, 80
32, 845379, Note_on_c, 14, 69, 0
32, 845379, Note_on_c, 14, 66, 0
32, 845400, Note_on_c, 14, 66, 80
32, 845400, Note_on_c, 14, 69, 80
32, 845499, Note_on_c, 14, 66, 0
32, 845499, Note_on_c, 14, 69, 0
32, 845520, Note_on_c, 14, 66, 80
32, 845520, Note_on_c, 14, 69, 80
32, 845619, Note_on_c, 14, 66, 0
32, 845619, Note_on_c, 14, 69, 0
32, 845640, Note_on_c, 14, 66, 80
32, 845640, Note_on_c, 14, 69, 80
32, 845739, Note_on_c, 14, 66, 0
32, 845739, Note_on_c, 14, 69, 0
32, 845760, Note_on_c, 14, 69, 80
32, 845760, Note_on_c, 14, 66, 80
32, 845859, Note_on_c, 14, 69, 0
32, 845859, Note_on_c, 14, 66, 0
32, 845880, Note_on_c, 14, 66, 80
32, 845880, Note_on_c, 14, 69, 80
32, 845979, Note_on_c, 14, 66, 0
32, 845979, Note_on_c, 14, 69, 0
32, 846000, Note_on_c, 14, 69, 80
32, 846000, Note_on_c, 14, 66, 80
32, 846099, Note_on_c, 14, 69, 0
32, 846099, Note_on_c, 14, 66, 0
32, 846120, Note_on_c, 14, 66, 80
32, 846120, Note_on_c, 14, 69, 80
32, 846219, Note_on_c, 14, 66, 0
32, 846219, Note_on_c, 14, 69, 0
32, 846240, Note_on_c, 14, 66, 80
32, 846240, Note_on_c, 14, 69, 80
32, 846339, Note_on_c, 14, 66, 0
32, 846339, Note_on_c, 14, 69, 0
32, 846360, Note_on_c, 14, 66, 80
32, 846360, Note_on_c, 14, 69, 80
32, 846459, Note_on_c, 14, 66, 0
32, 846459, Note_on_c, 14, 69, 0
32, 846480, Note_on_c, 14, 69, 80
32, 846480, Note_on_c, 14, 66, 80
32, 846579, Note_on_c, 14, 69, 0
32, 846579, Note_on_c, 14, 66, 0
32, 846600, Note_on_c, 14, 69, 80
32, 846600, Note_on_c, 14, 66, 80
32, 846699, Note_on_c, 14, 69, 0
32, 846699, Note_on_c, 14, 66, 0
32, 846720, Note_on_c, 14, 76, 92
32, 846720, Note_on_c, 14, 64, 92
32, 846819, Note_on_c, 14, 76, 0
32, 846819, Note_on_c, 14, 64, 0
32, 846840, Note_on_c, 14, 76, 92
32, 846840, Note_on_c, 14, 64, 92
32, 846939, Note_on_c, 14, 76, 0
32, 846939, Note_on_c, 14, 64, 0
32, 846960, Note_on_c, 14, 64, 92
32, 846960, Note_on_c, 14, 76, 92
32, 847059, Note_on_c, 14, 64, 0
32, 847059, Note_on_c, 14, 76, 0
32, 847080, Note_on_c, 14, 64, 92
32, 847080, Note_on_c, 14, 76, 92
32, 847179, Note_on_c, 14, 64, 0
32, 847179, Note_on_c, 14, 76, 0
32, 847200, Note_on_c, 14, 76, 80
32, 847200, Note_on_c, 14, 64, 80
32, 847299, Note_on_c, 14, 76, 0
32, 847299, Note_on_c, 14, 64, 0
32, 847320, Note_on_c, 14, 64, 80
32, 847320, Note_on_c, 14, 76, 80
32, 847419, Note_on_c, 14, 64, 0
32, 847419, Note_on_c, 14, 76, 0
32, 847440, Note_on_c, 14, 76, 80
32, 847440, Note_on_c, 14, 64, 80
32, 847539, Note_on_c, 14, 76, 0
32, 847539, Note_on_c, 14, 64, 0
32, 847560, Note_on_c, 14, 76, 80
32, 847560, Note_on_c, 14, 64, 80
32, 847659, Note_on_c, 14, 76, 0
32, 847659, Note_on_c, 14, 64, 0
32, 847680, Note_on_c, 14, 64, 80
32, 847680, Note_on_c, 14, 76, 80
32, 847779, Note_on_c, 14, 64, 0
32, 847779, Note_on_c, 14, 76, 0
32, 847800, Note_on_c, 14, 64, 80
32, 847800, Note_on_c, 14, 76, 80
32, 847899, Note_on_c, 14, 64, 0
32, 847899, Note_on_c, 14, 76, 0
32, 847920, Note_on_c, 14, 64, 80
32, 847920, Note_on_c, 14, 76, 80
32, 848019, Note_on_c, 14, 64, 0
32, 848019, Note_on_c, 14, 76, 0
32, 848040, Note_on_c, 14, 76, 80
32, 848040, Note_on_c, 14, 64, 80
32, 848139, Note_on_c, 14, 76, 0
32, 848139, Note_on_c, 14, 64, 0
32, 848160, Note_on_c, 14, 76, 80
32, 848160, Note_on_c, 14, 64, 80
32, 848259, Note_on_c, 14, 76, 0
32, 848259, Note_on_c, 14, 64, 0
32, 848280, Note_on_c, 14, 64, 80
32, 848280, Note_on_c, 14, 76, 80
32, 848379, Note_on_c, 14, 64, 0
32, 848379, Note_on_c, 14, 76, 0
32, 848400, Note_on_c, 14, 64, 80
32, 848400, Note_on_c, 14, 76, 80
32, 848499, Note_on_c, 14, 64, 0
32, 848499, Note_on_c, 14, 76, 0
32, 848520, Note_on_c, 14, 76, 80
32, 848520, Note_on_c, 14, 64, 80
32, 848619, Note_on_c, 14, 76, 0
32, 848619, Note_on_c, 14, 64, 0
32, 848640, Note_on_c, 14, 69, 92
32, 848640, Note_on_c, 14, 65, 92
32, 848739, Note_on_c, 14, 69, 0
32, 848739, Note_on_c, 14, 65, 0
32, 848760, Note_on_c, 14, 69, 92
32, 848760, Note_on_c, 14, 65, 92
32, 848859, Note_on_c, 14, 69, 0
32, 848859, Note_on_c, 14, 65, 0
32, 848880, Note_on_c, 14, 65, 92
32, 848880, Note_on_c, 14, 69, 92
32, 848979, Note_on_c, 14, 65, 0
32, 848979, Note_on_c, 14, 69, 0
32, 849000, Note_on_c, 14, 65, 92
32, 849000, Note_on_c, 14, 69, 92
32, 849099, Note_on_c, 14, 65, 0
32, 849099, Note_on_c, 14, 69, 0
32, 849120, Note_on_c, 14, 74, 80
32, 849120, Note_on_c, 14, 65, 80
32, 849219, Note_on_c, 14, 74, 0
32, 849219, Note_on_c, 14, 65, 0
32, 849240, Note_on_c, 14, 65, 80
32, 849240, Note_on_c, 14, 74, 80
32, 849339, Note_on_c, 14, 65, 0
32, 849339, Note_on_c, 14, 74, 0
32, 849360, Note_on_c, 14, 65, 80
32, 849360, Note_on_c, 14, 74, 80
32, 849459, Note_on_c, 14, 65, 0
32, 849459, Note_on_c, 14, 74, 0
32, 849480, Note_on_c, 14, 65, 80
32, 849480, Note_on_c, 14, 74, 80
32, 849579, Note_on_c, 14, 65, 0
32, 849579, Note_on_c, 14, 74, 0
32, 849600, Note_on_c, 14, 69, 80
32, 849699, Note_on_c, 14, 69, 0
32, 849720, Note_on_c, 14, 69, 80
32, 849819, Note_on_c, 14, 69, 0
32, 849840, Note_on_c, 14, 69, 80
32, 849939, Note_on_c, 14, 69, 0
32, 849960, Note_on_c, 14, 69, 80
32, 850059, Note_on_c, 14, 69, 0
32, 850080, Note_on_c, 14, 69, 80
32, 850179, Note_on_c, 14, 69, 0
32, 850200, Note_on_c, 14, 69, 80
32, 850299, Note_on_c, 14, 69, 0
32, 850320, Note_on_c, 14, 60, 80
32, 850320, Note_on_c, 14, 48, 80
32, 850419, Note_on_c, 14, 60, 0
32, 850419, Note_on_c, 14, 48, 0
32, 850440, Note_on_c, 14, 60, 80
32, 850440, Note_on_c, 14, 48, 80
32, 850539, Note_on_c, 14, 60, 0
32, 850539, Note_on_c, 14, 48, 0
32, 850560, Note_on_c, 14, 60, 92
32, 850560, Note_on_c, 14, 48, 92
32, 850659, Note_on_c, 14, 60, 0
32, 850659, Note_on_c, 14, 48, 0
32, 850680, Note_on_c, 14, 60, 92
32, 850680, Note_on_c, 14, 48, 92
32, 850779, Note_on_c, 14, 60, 0
32, 850779, Note_on_c, 14, 48, 0
32, 850800, Note_on_c, 14, 48, 92
32, 850800, Note_on_c, 14, 60, 92
32, 850899, Note_on_c, 14, 48, 0
32, 850899, Note_on_c, 14, 60, 0
32, 850920, Note_on_c, 14, 60, 92
32, 850920, Note_on_c, 14, 48, 92
32, 851019, Note_on_c, 14, 60, 0
32, 851019, Note_on_c, 14, 48, 0
32, 851040, Note_on_c, 14, 59, 92
32, 851139, Note_on_c, 14, 59, 0
32, 851160, Note_on_c, 14, 59, 92
32, 851259, Note_on_c, 14, 59, 0
32, 851280, Note_on_c, 14, 67, 92
32, 851379, Note_on_c, 14, 67, 0
32, 851400, Note_on_c, 14, 67, 92
32, 851499, Note_on_c, 14, 67, 0
32, 851520, Note_on_c, 14, 76, 92
32, 851619, Note_on_c, 14, 76, 0
32, 851640, Note_on_c, 14, 76, 92
32, 851739, Note_on_c, 14, 76, 0
32, 851760, Note_on_c, 14, 73, 92
32, 851859, Note_on_c, 14, 73, 0
32, 851880, Note_on_c, 14, 73, 92
32, 851979, Note_on_c, 14, 73, 0
32, 852000, Note_on_c, 14, 69, 92
32, 852099, Note_on_c, 14, 69, 0
32, 852120, Note_on_c, 14, 69, 92
32, 852219, Note_on_c, 14, 69, 0
32, 852240, Note_on_c, 14, 67, 92
32, 852339, Note_on_c, 14, 67, 0
32, 852360, Note_on_c, 14, 67, 92
32, 852459, Note_on_c, 14, 67, 0
32, 852480, Note_on_c, 14, 64, 92
32, 852579, Note_on_c, 14, 64, 0
32, 852600, Note_on_c, 14, 64, 92
32, 852699, Note_on_c, 14, 64, 0
32, 852720, Note_on_c, 14, 61, 92
32, 852819, Note_on_c, 14, 61, 0
32, 852840, Note_on_c, 14, 61, 92
32, 852939, Note_on_c, 14, 61, 0
32, 852960, Note_on_c, 14, 57, 92
32, 853059, Note_on_c, 14, 57, 0
32, 853080, Note_on_c, 14, 57, 92
32, 853179, Note_on_c, 14, 57, 0
32, 853200, Note_on_c, 14, 76, 92
32, 853299, Note_on_c, 14, 76, 0
32, 853320, Note_on_c, 14, 76, 92
32, 853419, Note_on_c, 14, 76, 0
32, 853440, Note_on_c, 14, 74, 92
32, 853539, Note_on_c, 14, 74, 0
32, 853560, Note_on_c, 14, 74, 92
32, 853659, Note_on_c, 14, 74, 0
32, 853680, Note_on_c, 14, 74, 92
32, 853779, Note_on_c, 14, 74, 0
32, 853800, Note_on_c, 14, 74, 92
32, 853899, Note_on_c, 14, 74, 0
32, 853920, Note_on_c, 14, 73, 92
32, 854019, Note_on_c, 14, 73, 0
32, 854040, Note_on_c, 14, 57, 92
32, 854139, Note_on_c, 14, 57, 0
32, 854160, Note_on_c, 14, 48, 92
32, 854160, Note_on_c, 14, 60, 92
32, 854259, Note_on_c, 14, 48, 0
32, 854259, Note_on_c, 14, 60, 0
32, 854280, Note_on_c, 14, 60, 92
32, 854280, Note_on_c, 14, 48, 92
32, 854379, Note_on_c, 14, 60, 0
32, 854379, Note_on_c, 14, 48, 0
32, 854400, Note_on_c, 14, 48, 92
32, 854400, Note_on_c, 14, 60, 92
32, 854499, Note_on_c, 14, 48, 0
32, 854499, Note_on_c, 14, 60, 0
32, 854520, Note_on_c, 14, 66, 92
32, 854619, Note_on_c, 14, 66, 0
32, 854640, Note_on_c, 14, 67, 92
32, 854739, Note_on_c, 14, 67, 0
32, 854760, Note_on_c, 14, 69, 92
32, 854859, Note_on_c, 14, 69, 0
32, 854880, Note_on_c, 14, 67, 92
32, 854880, Note_on_c, 14, 71, 92
32, 854979, Note_on_c, 14, 67, 0
32, 854979, Note_on_c, 14, 71, 0
32, 855000, Note_on_c, 14, 71, 92
32, 855000, Note_on_c, 14, 67, 92
32, 855099, Note_on_c, 14, 71, 0
32, 855099, Note_on_c, 14, 67, 0
32, 855120, Note_on_c, 14, 71, 92
32, 855120, Note_on_c, 14, 67, 92
32, 855219, Note_on_c, 14, 71, 0
32, 855219, Note_on_c, 14, 67, 0
32, 855240, Note_on_c, 14, 67, 92
32, 855240, Note_on_c, 14, 71, 92
32, 855339, Note_on_c, 14, 67, 0
32, 855339, Note_on_c, 14, 71, 0
32, 855360, Note_on_c, 14, 76, 92
32, 855459, Note_on_c, 14, 76, 0
32, 855480, Note_on_c, 14, 76, 92
32, 855579, Note_on_c, 14, 76, 0
32, 855600, Note_on_c, 14, 73, 92
32, 855699, Note_on_c, 14, 73, 0
32, 855720, Note_on_c, 14, 73, 92
32, 855819, Note_on_c, 14, 73, 0
32, 855840, Note_on_c, 14, 69, 92
32, 855939, Note_on_c, 14, 69, 0
32, 855960, Note_on_c, 14, 69, 92
32, 856059, Note_on_c, 14, 69, 0
32, 856080, Note_on_c, 14, 67, 92
32, 856179, Note_on_c, 14, 67, 0
32, 856200, Note_on_c, 14, 67, 92
32, 856299, Note_on_c, 14, 67, 0
32, 856320, Note_on_c, 14, 64, 92
32, 856419, Note_on_c, 14, 64, 0
32, 856440, Note_on_c, 14, 64, 92
32, 856539, Note_on_c, 14, 64, 0
32, 856560, Note_on_c, 14, 61, 92
32, 856659, Note_on_c, 14, 61, 0
32, 856680, Note_on_c, 14, 61, 92
32, 856779, Note_on_c, 14, 61, 0
32, 856800, Note_on_c, 14, 57, 92
32, 856899, Note_on_c, 14, 57, 0
32, 856920, Note_on_c, 14, 57, 92
32, 857019, Note_on_c, 14, 57, 0
32, 857040, Note_on_c, 14, 67, 92
32, 857040, Note_on_c, 14, 76, 92
32, 857139, Note_on_c, 14, 67, 0
32, 857139, Note_on_c, 14, 76, 0
32, 857160, Note_on_c, 14, 67, 92
32, 857160, Note_on_c, 14, 76, 92
32, 857259, Note_on_c, 14, 67, 0
32, 857259, Note_on_c, 14, 76, 0
32, 857280, Note_on_c, 14, 66, 92
32, 857280, Note_on_c, 14, 74, 92
32, 857379, Note_on_c, 14, 66, 0
32, 857379, Note_on_c, 14, 74, 0
32, 857400, Note_on_c, 14, 74, 92
32, 857400, Note_on_c, 14, 66, 92
32, 857499, Note_on_c, 14, 74, 0
32, 857499, Note_on_c, 14, 66, 0
32, 857520, Note_on_c, 14, 74, 92
32, 857520, Note_on_c, 14, 66, 92
32, 857619, Note_on_c, 14, 74, 0
32, 857619, Note_on_c, 14, 66, 0
32, 857640, Note_on_c, 14, 66, 92
32, 857640, Note_on_c, 14, 74, 92
32, 857739, Note_on_c, 14, 66, 0
32, 857739, Note_on_c, 14, 74, 0
32, 857760, Note_on_c, 14, 64, 92
32, 857760, Note_on_c, 14, 73, 92
32, 857859, Note_on_c, 14, 64, 0
32, 857859, Note_on_c, 14, 73, 0
32, 857880, Note_on_c, 14, 73, 92
32, 857880, Note_on_c, 14, 64, 92
32, 857979, Note_on_c, 14, 73, 0
32, 857979, Note_on_c, 14, 64, 0
32, 858000, Note_on_c, 14, 64, 92
32, 858000, Note_on_c, 14, 73, 92
32, 858099, Note_on_c, 14, 64, 0
32, 858099, Note_on_c, 14, 73, 0
32, 858120, Note_on_c, 14, 64, 92
32, 858120, Note_on_c, 14, 73, 92
32, 858219, Note_on_c, 14, 64, 0
32, 858219, Note_on_c, 14, 73, 0
32, 858240, Note_on_c, 14, 74, 80
32, 858240, Note_on_c, 14, 66, 80
32, 858339, Note_on_c, 14, 74, 0
32, 858339, Note_on_c, 14, 66, 0
32, 858360, Note_on_c, 14, 62, 80
32, 858459, Note_on_c, 14, 62, 0
32, 858480, Note_on_c, 14, 64, 80
32, 858579, Note_on_c, 14, 64, 0
32, 858600, Note_on_c, 14, 66, 80
32, 858699, Note_on_c, 14, 66, 0
32, 858720, Note_on_c, 14, 66, 80
32, 858819, Note_on_c, 14, 66, 0
32, 858840, Note_on_c, 14, 64, 80
32, 858939, Note_on_c, 14, 64, 0
32, 858960, Note_on_c, 14, 62, 80
32, 859059, Note_on_c, 14, 62, 0
32, 859080, Note_on_c, 14, 61, 80
32, 859179, Note_on_c, 14, 61, 0
32, 859200, Note_on_c, 14, 59, 80
32, 859299, Note_on_c, 14, 59, 0
32, 859320, Note_on_c, 14, 59, 80
32, 859419, Note_on_c, 14, 59, 0
32, 859440, Note_on_c, 14, 60, 80
32, 859539, Note_on_c, 14, 60, 0
32, 859560, Note_on_c, 14, 62, 80
32, 859659, Note_on_c, 14, 62, 0
32, 859680, Note_on_c, 14, 62, 80
32, 859779, Note_on_c, 14, 62, 0
32, 859800, Note_on_c, 14, 60, 80
32, 859899, Note_on_c, 14, 60, 0
32, 859920, Note_on_c, 14, 59, 80
32, 860019, Note_on_c, 14, 59, 0
32, 860040, Note_on_c, 14, 57, 80
32, 860139, Note_on_c, 14, 57, 0
32, 860160, Note_on_c, 14, 55, 80
32, 860259, Note_on_c, 14, 55, 0
32, 860280, Note_on_c, 14, 55, 80
32, 860379, Note_on_c, 14, 55, 0
32, 860400, Note_on_c, 14, 57, 80
32, 860499, Note_on_c, 14, 57, 0
32, 860520, Note_on_c, 14, 59, 80
32, 860619, Note_on_c, 14, 59, 0
32, 860640, Note_on_c, 14, 52, 80
32, 860739, Note_on_c, 14, 52, 0
32, 860760, Note_on_c, 14, 64, 80
32, 860859, Note_on_c, 14, 64, 0
32, 860880, Note_on_c, 14, 66, 80
32, 860979, Note_on_c, 14, 66, 0
32, 861000, Note_on_c, 14, 67, 80
32, 861099, Note_on_c, 14, 67, 0
32, 861120, Note_on_c, 14, 69, 92
32, 861219, Note_on_c, 14, 69, 0
32, 861240, Note_on_c, 14, 71, 92
32, 861339, Note_on_c, 14, 71, 0
32, 861360, Note_on_c, 14, 73, 92
32, 861459, Note_on_c, 14, 73, 0
32, 861480, Note_on_c, 14, 74, 92
32, 861579, Note_on_c, 14, 74, 0
32, 861600, Note_on_c, 14, 76, 92
32, 861699, Note_on_c, 14, 76, 0
32, 861720, Note_on_c, 14, 66, 92
32, 861819, Note_on_c, 14, 66, 0
32, 861840, Note_on_c, 14, 67, 92
32, 861939, Note_on_c, 14, 67, 0
32, 861960, Note_on_c, 14, 69, 92
32, 862059, Note_on_c, 14, 69, 0
32, 862080, Note_on_c, 14, 69, 92
32, 862179, Note_on_c, 14, 69, 0
32, 862200, Note_on_c, 14, 69, 92
32, 862299, Note_on_c, 14, 69, 0
32, 862320, Note_on_c, 14, 71, 92
32, 862419, Note_on_c, 14, 71, 0
32, 862440, Note_on_c, 14, 73, 92
32, 862539, Note_on_c, 14, 73, 0
32, 862560, Note_on_c, 14, 74, 92
32, 862659, Note_on_c, 14, 74, 0
32, 862680, Note_on_c, 14, 76, 92
32, 862779, Note_on_c, 14, 76, 0
32, 862800, Note_on_c, 14, 66, 92
32, 862899, Note_on_c, 14, 66, 0
32, 862920, Note_on_c, 14, 62, 92
32, 863019, Note_on_c, 14, 62, 0
32, 863040, Note_on_c, 14, 57, 92
32, 863139, Note_on_c, 14, 57, 0
32, 863160, Note_on_c, 14, 59, 92
32, 863259, Note_on_c, 14, 59, 0
32, 863280, Note_on_c, 14, 61, 92
32, 863379, Note_on_c, 14, 61, 0
32, 863400, Note_on_c, 14, 62, 92
32, 863499, Note_on_c, 14, 62, 0
32, 863520, Note_on_c, 14, 64, 92
32, 863619, Note_on_c, 14, 64, 0
32, 863640, Note_on_c, 14, 66, 92
32, 863739, Note_on_c, 14, 66, 0
32, 863760, Note_on_c, 14, 67, 92
32, 863859, Note_on_c, 14, 67, 0
32, 863880, Note_on_c, 14, 69, 92
32, 863979, Note_on_c, 14, 69, 0
32, 864000, Note_on_c, 14, 69, 92
32, 864099, Note_on_c, 14, 69, 0
32, 864120, Note_on_c, 14, 69, 92
32, 864219, Note_on_c, 14, 69, 0
32, 864240, Note_on_c, 14, 71, 92
32, 864339, Note_on_c, 14, 71, 0
32, 864360, Note_on_c, 14, 73, 92
32, 864459, Note_on_c, 14, 73, 0
32, 864480, Note_on_c, 14, 74, 92
32, 864579, Note_on_c, 14, 74, 0
32, 864600, Note_on_c, 14, 76, 92
32, 864699, Note_on_c, 14, 76, 0
32, 864720, Note_on_c, 14, 66, 92
32, 864819, Note_on_c, 14, 66, 0
32, 864840, Note_on_c, 14, 62, 92
32, 864939, Note_on_c, 14, 62, 0
32, 864960, Note_on_c, 14, 69, 92
32, 865059, Note_on_c, 14, 69, 0
32, 865080, Note_on_c, 14, 61, 92
32, 865179, Note_on_c, 14, 61, 0
32, 865200, Note_on_c, 14, 62, 92
32, 865299, Note_on_c, 14, 62, 0
32, 865320, Note_on_c, 14, 64, 92
32, 865419, Note_on_c, 14, 64, 0
32, 865440, Note_on_c, 14, 69, 92
32, 865539, Note_on_c, 14, 69, 0
32, 865560, Note_on_c, 14, 62, 92
32, 865659, Note_on_c, 14, 62, 0
32, 865680, Note_on_c, 14, 64, 92
32, 865779, Note_on_c, 14, 64, 0
32, 865800, Note_on_c, 14, 66, 92
32, 865899, Note_on_c, 14, 66, 0
32, 865920, Note_on_c, 14, 69, 92
32, 866019, Note_on_c, 14, 69, 0
32, 866040, Note_on_c, 14, 63, 92
32, 866139, Note_on_c, 14, 63, 0
32, 866160, Note_on_c, 14, 64, 92
32, 866259, Note_on_c, 14, 64, 0
32, 866280, Note_on_c, 14, 66, 92
32, 866379, Note_on_c, 14, 66, 0
32, 866400, Note_on_c, 14, 67, 92
32, 866499, Note_on_c, 14, 67, 0
32, 866520, Note_on_c, 14, 57, 92
32, 866619, Note_on_c, 14, 57, 0
32, 866640, Note_on_c, 14, 59, 92
32, 866739, Note_on_c, 14, 59, 0
32, 866760, Note_on_c, 14, 61, 92
32, 866859, Note_on_c, 14, 61, 0
32, 866880, Note_on_c, 14, 62, 92
32, 866979, Note_on_c, 14, 62, 0
32, 867000, Note_on_c, 14, 64, 92
32, 867099, Note_on_c, 14, 64, 0
32, 867120, Note_on_c, 14, 66, 92
32, 867219, Note_on_c, 14, 66, 0
32, 867240, Note_on_c, 14, 67, 92
32, 867339, Note_on_c, 14, 67, 0
32, 867360, Note_on_c, 14, 69, 92
32, 867459, Note_on_c, 14, 69, 0
32, 867480, Note_on_c, 14, 50, 92
32, 867579, Note_on_c, 14, 50, 0
32, 867600, Note_on_c, 14, 64, 92
32, 867699, Note_on_c, 14, 64, 0
32, 867720, Note_on_c, 14, 66, 92
32, 867819, Note_on_c, 14, 66, 0
32, 867840, Note_on_c, 14, 69, 92
32, 867939, Note_on_c, 14, 69, 0
32, 867960, Note_on_c, 14, 61, 92
32, 868059, Note_on_c, 14, 61, 0
32, 868080, Note_on_c, 14, 62, 92
32, 868179, Note_on_c, 14, 62, 0
32, 868200, Note_on_c, 14, 64, 92
32, 868299, Note_on_c, 14, 64, 0
32, 868320, Note_on_c, 14, 69, 92
32, 868419, Note_on_c, 14, 69, 0
32, 868440, Note_on_c, 14, 62, 92
32, 868539, Note_on_c, 14, 62, 0
32, 868560, Note_on_c, 14, 64, 92
32, 868659, Note_on_c, 14, 64, 0
32, 868680, Note_on_c, 14, 66, 92
32, 868779, Note_on_c, 14, 66, 0
32, 868800, Note_on_c, 14, 69, 92
32, 868899, Note_on_c, 14, 69, 0
32, 868920, Note_on_c, 14, 63, 92
32, 869019, Note_on_c, 14, 63, 0
32, 869040, Note_on_c, 14, 64, 92
32, 869139, Note_on_c, 14, 64, 0
32, 869160, Note_on_c, 14, 66, 92
32, 869259, Note_on_c, 14, 66, 0
32, 869280, Note_on_c, 14, 67, 92
32, 869379, Note_on_c, 14, 67, 0
32, 869400, Note_on_c, 14, 69, 92
32, 869499, Note_on_c, 14, 69, 0
32, 869520, Note_on_c, 14, 71, 92
32, 869619, Note_on_c, 14, 71, 0
32, 869640, Note_on_c, 14, 73, 92
32, 869739, Note_on_c, 14, 73, 0
32, 869760, Note_on_c, 14, 74, 92
32, 869859, Note_on_c, 14, 74, 0
32, 869880, Note_on_c, 14, 76, 92
32, 869979, Note_on_c, 14, 76, 0
32, 870000, Note_on_c, 14, 78, 92
32, 870099, Note_on_c, 14, 78, 0
32, 870120, Note_on_c, 14, 79, 92
32, 870219, Note_on_c, 14, 79, 0
32, 870240, Note_on_c, 14, 76, 92
32, 870240, Note_on_c, 14, 67, 92
32, 870339, Note_on_c, 14, 76, 0
32, 870339, Note_on_c, 14, 67, 0
32, 870360, Note_on_c, 14, 67, 92
32, 870360, Note_on_c, 14, 76, 92
32, 870459, Note_on_c, 14, 67, 0
32, 870459, Note_on_c, 14, 76, 0
32, 870480, Note_on_c, 14, 76, 92
32, 870480, Note_on_c, 14, 67, 92
32, 870579, Note_on_c, 14, 76, 0
32, 870579, Note_on_c, 14, 67, 0
32, 870600, Note_on_c, 14, 76, 92
32, 870600, Note_on_c, 14, 67, 92
32, 870699, Note_on_c, 14, 76, 0
32, 870699, Note_on_c, 14, 67, 0
32, 870720, Note_on_c, 14, 67, 92
32, 870720, Note_on_c, 14, 76, 92
32, 870959, Note_on_c, 14, 67, 0
32, 870959, Note_on_c, 14, 76, 0
32, 871680, Note_on_c, 14, 73, 44
32, 871680, Note_on_c, 14, 76, 44
32, 871949, Note_on_c, 14, 73, 0
32, 871949, Note_on_c, 14, 76, 0
32, 871950, Note_on_c, 14, 74, 64
32, 871950, Note_on_c, 14, 71, 64
32, 871969, Note_on_c, 14, 74, 0
32, 871969, Note_on_c, 14, 71, 0
32, 871980, Note_on_c, 14, 73, 66
32, 871980, Note_on_c, 14, 69, 66
32, 871999, Note_on_c, 14, 73, 0
32, 871999, Note_on_c, 14, 69, 0
32, 872010, Note_on_c, 14, 71, 68
32, 872010, Note_on_c, 14, 67, 68
32, 872029, Note_on_c, 14, 71, 0
32, 872029, Note_on_c, 14, 67, 0
32, 872040, Note_on_c, 14, 66, 71
32, 872040, Note_on_c, 14, 69, 71
32, 872059, Note_on_c, 14, 66, 0
32, 872059, Note_on_c, 14, 69, 0
32, 872070, Note_on_c, 14, 67, 73
32, 872070, Note_on_c, 14, 64, 73
32, 872089, Note_on_c, 14, 67, 0
32, 872089, Note_on_c, 14, 64, 0
32, 872100, Note_on_c, 14, 62, 75
32, 872100, Note_on_c, 14, 66, 75
32, 872119, Note_on_c, 14, 62, 0
32, 872119, Note_on_c, 14, 66, 0
32, 872130, Note_on_c, 14, 61, 77
32, 872130, Note_on_c, 14, 64, 77
32, 872149, Note_on_c, 14, 61, 0
32, 872149, Note_on_c, 14, 64, 0
32, 872160, Note_on_c, 14, 66, 80
32, 872179, Note_on_c, 14, 66, 0
32, 872190, Note_on_c, 14, 64, 80
32, 872209, Note_on_c, 14, 64, 0
32, 872220, Note_on_c, 14, 62, 80
32, 872239, Note_on_c, 14, 62, 0
32, 872250, Note_on_c, 14, 61, 80
32, 872269, Note_on_c, 14, 61, 0
32, 872280, Note_on_c, 14, 59, 80
32, 872299, Note_on_c, 14, 59, 0
32, 872310, Note_on_c, 14, 57, 80
32, 872329, Note_on_c, 14, 57, 0
32, 872340, Note_on_c, 14, 55, 80
32, 872359, Note_on_c, 14, 55, 0
32, 872370, Note_on_c, 14, 54, 80
32, 872389, Note_on_c, 14, 54, 0
32, 872400, Note_on_c, 14, 71, 80
32, 872419, Note_on_c, 14, 71, 0
32, 872430, Note_on_c, 14, 69, 80
32, 872449, Note_on_c, 14, 69, 0
32, 872460, Note_on_c, 14, 67, 80
32, 872479, Note_on_c, 14, 67, 0
32, 872490, Note_on_c, 14, 66, 80
32, 872509, Note_on_c, 14, 66, 0
32, 872520, Note_on_c, 14, 64, 80
32, 872539, Note_on_c, 14, 64, 0
32, 872550, Note_on_c, 14, 62, 80
32, 872569, Note_on_c, 14, 62, 0
32, 872580, Note_on_c, 14, 61, 80
32, 872599, Note_on_c, 14, 61, 0
32, 872610, Note_on_c, 14, 59, 80
32, 872629, Note_on_c, 14, 59, 0
32, 872640, Note_on_c, 14, 67, 80
32, 872659, Note_on_c, 14, 67, 0
32, 872670, Note_on_c, 14, 66, 80
32, 872689, Note_on_c, 14, 66, 0
32, 872700, Note_on_c, 14, 64, 80
32, 872719, Note_on_c, 14, 64, 0
32, 872730, Note_on_c, 14, 62, 80
32, 872749, Note_on_c, 14, 62, 0
32, 872760, Note_on_c, 14, 61, 80
32, 872779, Note_on_c, 14, 61, 0
32, 872790, Note_on_c, 14, 59, 80
32, 872809, Note_on_c, 14, 59, 0
32, 872820, Note_on_c, 14, 57, 80
32, 872839, Note_on_c, 14, 57, 0
32, 872850, Note_on_c, 14, 64, 80
32, 872869, Note_on_c, 14, 64, 0
32, 872880, Note_on_c, 14, 64, 92
32, 872880, Note_on_c, 14, 67, 92
32, 872899, Note_on_c, 14, 64, 0
32, 872899, Note_on_c, 14, 67, 0
32, 872910, Note_on_c, 14, 62, 92
32, 872910, Note_on_c, 14, 66, 92
32, 872929, Note_on_c, 14, 62, 0
32, 872929, Note_on_c, 14, 66, 0
32, 872940, Note_on_c, 14, 64, 92
32, 872940, Note_on_c, 14, 67, 92
32, 872959, Note_on_c, 14, 64, 0
32, 872959, Note_on_c, 14, 67, 0
32, 872970, Note_on_c, 14, 66, 92
32, 872970, Note_on_c, 14, 69, 92
32, 872989, Note_on_c, 14, 66, 0
32, 872989, Note_on_c, 14, 69, 0
32, 873000, Note_on_c, 14, 67, 92
32, 873000, Note_on_c, 14, 71, 92
32, 873019, Note_on_c, 14, 67, 0
32, 873019, Note_on_c, 14, 71, 0
32, 873030, Note_on_c, 14, 66, 92
32, 873030, Note_on_c, 14, 69, 92
32, 873049, Note_on_c, 14, 66, 0
32, 873049, Note_on_c, 14, 69, 0
32, 873060, Note_on_c, 14, 71, 92
32, 873060, Note_on_c, 14, 67, 92
32, 873079, Note_on_c, 14, 71, 0
32, 873079, Note_on_c, 14, 67, 0
32, 873090, Note_on_c, 14, 73, 92
32, 873090, Note_on_c, 14, 64, 92
32, 873109, Note_on_c, 14, 73, 0
32, 873109, Note_on_c, 14, 64, 0
32, 873120, Note_on_c, 14, 66, 92
32, 873120, Note_on_c, 14, 74, 92
32, 873139, Note_on_c, 14, 66, 0
32, 873139, Note_on_c, 14, 74, 0
32, 873150, Note_on_c, 14, 64, 92
32, 873150, Note_on_c, 14, 73, 92
32, 873169, Note_on_c, 14, 64, 0
32, 873169, Note_on_c, 14, 73, 0
32, 873180, Note_on_c, 14, 74, 92
32, 873180, Note_on_c, 14, 66, 92
32, 873199, Note_on_c, 14, 74, 0
32, 873199, Note_on_c, 14, 66, 0
32, 873210, Note_on_c, 14, 67, 92
32, 873210, Note_on_c, 14, 76, 92
32, 873229, Note_on_c, 14, 67, 0
32, 873229, Note_on_c, 14, 76, 0
32, 873240, Note_on_c, 14, 69, 92
32, 873240, Note_on_c, 14, 78, 92
32, 873259, Note_on_c, 14, 69, 0
32, 873259, Note_on_c, 14, 78, 0
32, 873270, Note_on_c, 14, 76, 92
32, 873270, Note_on_c, 14, 67, 92
32, 873289, Note_on_c, 14, 76, 0
32, 873289, Note_on_c, 14, 67, 0
32, 873300, Note_on_c, 14, 69, 92
32, 873300, Note_on_c, 14, 78, 92
32, 873319, Note_on_c, 14, 69, 0
32, 873319, Note_on_c, 14, 78, 0
32, 873330, Note_on_c, 14, 74, 92
32, 873330, Note_on_c, 14, 66, 92
32, 873349, Note_on_c, 14, 74, 0
32, 873349, Note_on_c, 14, 66, 0
32, 873360, Note_on_c, 14, 64, 92
32, 873360, Note_on_c, 14, 73, 92
32, 873379, Note_on_c, 14, 64, 0
32, 873379, Note_on_c, 14, 73, 0
32, 873390, Note_on_c, 14, 66, 92
32, 873390, Note_on_c, 14, 74, 92
32, 873409, Note_on_c, 14, 66, 0
32, 873409, Note_on_c, 14, 74, 0
32, 873420, Note_on_c, 14, 76, 92
32, 873420, Note_on_c, 14, 67, 92
32, 873439, Note_on_c, 14, 76, 0
32, 873439, Note_on_c, 14, 67, 0
32, 873450, Note_on_c, 14, 69, 92
32, 873450, Note_on_c, 14, 61, 92
32, 873469, Note_on_c, 14, 69, 0
32, 873469, Note_on_c, 14, 61, 0
32, 873480, Note_on_c, 14, 71, 92
32, 873480, Note_on_c, 14, 62, 92
32, 873499, Note_on_c, 14, 71, 0
32, 873499, Note_on_c, 14, 62, 0
32, 873510, Note_on_c, 14, 69, 92
32, 873510, Note_on_c, 14, 61, 92
32, 873529, Note_on_c, 14, 69, 0
32, 873529, Note_on_c, 14, 61, 0
32, 873540, Note_on_c, 14, 71, 92
32, 873540, Note_on_c, 14, 62, 92
32, 873559, Note_on_c, 14, 71, 0
32, 873559, Note_on_c, 14, 62, 0
32, 873570, Note_on_c, 14, 73, 92
32, 873570, Note_on_c, 14, 64, 92
32, 873589, Note_on_c, 14, 73, 0
32, 873589, Note_on_c, 14, 64, 0
32, 873600, Note_on_c, 14, 66, 92
32, 873600, Note_on_c, 14, 74, 92
32, 873699, Note_on_c, 14, 66, 0
32, 873699, Note_on_c, 14, 74, 0
32, 873720, Note_on_c, 14, 62, 92
32, 873720, Note_on_c, 14, 66, 92
32, 873819, Note_on_c, 14, 62, 0
32, 873819, Note_on_c, 14, 66, 0
32, 873840, Note_on_c, 14, 67, 92
32, 873840, Note_on_c, 14, 64, 92
32, 873939, Note_on_c, 14, 67, 0
32, 873939, Note_on_c, 14, 64, 0
32, 873960, Note_on_c, 14, 69, 92
32, 873960, Note_on_c, 14, 66, 92
32, 874059, Note_on_c, 14, 69, 0
32, 874059, Note_on_c, 14, 66, 0
32, 874080, Note_on_c, 14, 69, 92
32, 874080, Note_on_c, 14, 66, 92
32, 874179, Note_on_c, 14, 69, 0
32, 874179, Note_on_c, 14, 66, 0
32, 874200, Note_on_c, 14, 67, 92
32, 874200, Note_on_c, 14, 64, 92
32, 874299, Note_on_c, 14, 67, 0
32, 874299, Note_on_c, 14, 64, 0
32, 874320, Note_on_c, 14, 66, 92
32, 874320, Note_on_c, 14, 62, 92
32, 874419, Note_on_c, 14, 66, 0
32, 874419, Note_on_c, 14, 62, 0
32, 874440, Note_on_c, 14, 64, 92
32, 874440, Note_on_c, 14, 61, 92
32, 874539, Note_on_c, 14, 64, 0
32, 874539, Note_on_c, 14, 61, 0
32, 874560, Note_on_c, 14, 66, 92
32, 874560, Note_on_c, 14, 62, 92
32, 874659, Note_on_c, 14, 66, 0
32, 874659, Note_on_c, 14, 62, 0
32, 874680, Note_on_c, 14, 66, 92
32, 874680, Note_on_c, 14, 62, 92
32, 874779, Note_on_c, 14, 66, 0
32, 874779, Note_on_c, 14, 62, 0
32, 874800, Note_on_c, 14, 64, 92
32, 874800, Note_on_c, 14, 67, 92
32, 874899, Note_on_c, 14, 64, 0
32, 874899, Note_on_c, 14, 67, 0
32, 874920, Note_on_c, 14, 69, 92
32, 874920, Note_on_c, 14, 66, 92
32, 875019, Note_on_c, 14, 69, 0
32, 875019, Note_on_c, 14, 66, 0
32, 875040, Note_on_c, 14, 69, 92
32, 875040, Note_on_c, 14, 66, 92
32, 875139, Note_on_c, 14, 69, 0
32, 875139, Note_on_c, 14, 66, 0
32, 875160, Note_on_c, 14, 64, 92
32, 875160, Note_on_c, 14, 67, 92
32, 875259, Note_on_c, 14, 64, 0
32, 875259, Note_on_c, 14, 67, 0
32, 875280, Note_on_c, 14, 62, 92
32, 875280, Note_on_c, 14, 66, 92
32, 875379, Note_on_c, 14, 62, 0
32, 875379, Note_on_c, 14, 66, 0
32, 875400, Note_on_c, 14, 61, 92
32, 875400, Note_on_c, 14, 64, 92
32, 875499, Note_on_c, 14, 61, 0
32, 875499, Note_on_c, 14, 64, 0
32, 875520, Note_on_c, 14, 66, 92
32, 875520, Note_on_c, 14, 62, 92
32, 875619, Note_on_c, 14, 66, 0
32, 875619, Note_on_c, 14, 62, 0
32, 875640, Note_on_c, 14, 62, 92
32, 875640, Note_on_c, 14, 66, 92
32, 875739, Note_on_c, 14, 62, 0
32, 875739, Note_on_c, 14, 66, 0
32, 875760, Note_on_c, 14, 67, 92
32, 875760, Note_on_c, 14, 64, 92
32, 875859, Note_on_c, 14, 67, 0
32, 875859, Note_on_c, 14, 64, 0
32, 875880, Note_on_c, 14, 69, 92
32, 875880, Note_on_c, 14, 66, 92
32, 875979, Note_on_c, 14, 69, 0
32, 875979, Note_on_c, 14, 66, 0
32, 876000, Note_on_c, 14, 69, 92
32, 876000, Note_on_c, 14, 66, 92
32, 876099, Note_on_c, 14, 69, 0
32, 876099, Note_on_c, 14, 66, 0
32, 876120, Note_on_c, 14, 67, 92
32, 876120, Note_on_c, 14, 64, 92
32, 876219, Note_on_c, 14, 67, 0
32, 876219, Note_on_c, 14, 64, 0
32, 876240, Note_on_c, 14, 62, 92
32, 876240, Note_on_c, 14, 66, 92
32, 876339, Note_on_c, 14, 62, 0
32, 876339, Note_on_c, 14, 66, 0
32, 876360, Note_on_c, 14, 61, 92
32, 876360, Note_on_c, 14, 64, 92
32, 876459, Note_on_c, 14, 61, 0
32, 876459, Note_on_c, 14, 64, 0
32, 876480, Note_on_c, 14, 66, 92
32, 876480, Note_on_c, 14, 62, 92
32, 876579, Note_on_c, 14, 66, 0
32, 876579, Note_on_c, 14, 62, 0
32, 876600, Note_on_c, 14, 66, 92
32, 876600, Note_on_c, 14, 62, 92
32, 876699, Note_on_c, 14, 66, 0
32, 876699, Note_on_c, 14, 62, 0
32, 876720, Note_on_c, 14, 67, 92
32, 876720, Note_on_c, 14, 64, 92
32, 876819, Note_on_c, 14, 67, 0
32, 876819, Note_on_c, 14, 64, 0
32, 876840, Note_on_c, 14, 69, 92
32, 876840, Note_on_c, 14, 66, 92
32, 876939, Note_on_c, 14, 69, 0
32, 876939, Note_on_c, 14, 66, 0
32, 876960, Note_on_c, 14, 66, 92
32, 876960, Note_on_c, 14, 69, 92
32, 877059, Note_on_c, 14, 66, 0
32, 877059, Note_on_c, 14, 69, 0
32, 877080, Note_on_c, 14, 67, 92
32, 877080, Note_on_c, 14, 64, 92
32, 877179, Note_on_c, 14, 67, 0
32, 877179, Note_on_c, 14, 64, 0
32, 877200, Note_on_c, 14, 66, 92
32, 877200, Note_on_c, 14, 62, 92
32, 877299, Note_on_c, 14, 66, 0
32, 877299, Note_on_c, 14, 62, 0
32, 877320, Note_on_c, 14, 61, 92
32, 877320, Note_on_c, 14, 64, 92
32, 877419, Note_on_c, 14, 61, 0
32, 877419, Note_on_c, 14, 64, 0
32, 877440, Note_on_c, 14, 62, 92
32, 877440, Note_on_c, 14, 66, 92
32, 877539, Note_on_c, 14, 62, 0
32, 877539, Note_on_c, 14, 66, 0
32, 877560, Note_on_c, 14, 62, 92
32, 877560, Note_on_c, 14, 66, 92
32, 877659, Note_on_c, 14, 62, 0
32, 877659, Note_on_c, 14, 66, 0
32, 877680, Note_on_c, 14, 61, 92
32, 877680, Note_on_c, 14, 64, 92
32, 877779, Note_on_c, 14, 61, 0
32, 877779, Note_on_c, 14, 64, 0
32, 877800, Note_on_c, 14, 64, 92
32, 877800, Note_on_c, 14, 61, 92
32, 877899, Note_on_c, 14, 64, 0
32, 877899, Note_on_c, 14, 61, 0
32, 877920, Note_on_c, 14, 62, 92
32, 877920, Note_on_c, 14, 66, 92
32, 878019, Note_on_c, 14, 62, 0
32, 878019, Note_on_c, 14, 66, 0
32, 878040, Note_on_c, 14, 62, 92
32, 878040, Note_on_c, 14, 66, 92
32, 878139, Note_on_c, 14, 62, 0
32, 878139, Note_on_c, 14, 66, 0
32, 878160, Note_on_c, 14, 64, 92
32, 878160, Note_on_c, 14, 67, 92
32, 878259, Note_on_c, 14, 64, 0
32, 878259, Note_on_c, 14, 67, 0
32, 878280, Note_on_c, 14, 64, 92
32, 878280, Note_on_c, 14, 67, 92
32, 878379, Note_on_c, 14, 64, 0
32, 878379, Note_on_c, 14, 67, 0
32, 878400, Note_on_c, 14, 62, 92
32, 878400, Note_on_c, 14, 66, 92
32, 878499, Note_on_c, 14, 62, 0
32, 878499, Note_on_c, 14, 66, 0
32, 878520, Note_on_c, 14, 62, 92
32, 878520, Note_on_c, 14, 66, 92
32, 878619, Note_on_c, 14, 62, 0
32, 878619, Note_on_c, 14, 66, 0
32, 878640, Note_on_c, 14, 64, 92
32, 878640, Note_on_c, 14, 61, 92
32, 878739, Note_on_c, 14, 64, 0
32, 878739, Note_on_c, 14, 61, 0
32, 878760, Note_on_c, 14, 64, 92
32, 878760, Note_on_c, 14, 61, 92
32, 878859, Note_on_c, 14, 64, 0
32, 878859, Note_on_c, 14, 61, 0
32, 878880, Note_on_c, 14, 62, 92
32, 878880, Note_on_c, 14, 66, 92
32, 878979, Note_on_c, 14, 62, 0
32, 878979, Note_on_c, 14, 66, 0
32, 879000, Note_on_c, 14, 66, 92
32, 879000, Note_on_c, 14, 62, 92
32, 879099, Note_on_c, 14, 66, 0
32, 879099, Note_on_c, 14, 62, 0
32, 879120, Note_on_c, 14, 64, 92
32, 879120, Note_on_c, 14, 73, 92
32, 879219, Note_on_c, 14, 64, 0
32, 879219, Note_on_c, 14, 73, 0
32, 879240, Note_on_c, 14, 73, 92
32, 879240, Note_on_c, 14, 64, 92
32, 879339, Note_on_c, 14, 73, 0
32, 879339, Note_on_c, 14, 64, 0
32, 879360, Note_on_c, 14, 74, 92
32, 879360, Note_on_c, 14, 66, 92
32, 879459, Note_on_c, 14, 74, 0
32, 879459, Note_on_c, 14, 66, 0
32, 879480, Note_on_c, 14, 66, 92
32, 879480, Note_on_c, 14, 74, 92
32, 879579, Note_on_c, 14, 66, 0
32, 879579, Note_on_c, 14, 74, 0
32, 879600, Note_on_c, 14, 64, 92
32, 879600, Note_on_c, 14, 73, 92
32, 879699, Note_on_c, 14, 64, 0
32, 879699, Note_on_c, 14, 73, 0
32, 879720, Note_on_c, 14, 73, 92
32, 879720, Note_on_c, 14, 64, 92
32, 879819, Note_on_c, 14, 73, 0
32, 879819, Note_on_c, 14, 64, 0
32, 879840, Note_on_c, 14, 66, 92
32, 879840, Note_on_c, 14, 74, 92
32, 879939, Note_on_c, 14, 66, 0
32, 879939, Note_on_c, 14, 74, 0
32, 879960, Note_on_c, 14, 74, 92
32, 879960, Note_on_c, 14, 66, 92
32, 880059, Note_on_c, 14, 74, 0
32, 880059, Note_on_c, 14, 66, 0
32, 880080, Note_on_c, 14, 76, 92
32, 880080, Note_on_c, 14, 67, 92
32, 880179, Note_on_c, 14, 76, 0
32, 880179, Note_on_c, 14, 67, 0
32, 880200, Note_on_c, 14, 67, 92
32, 880200, Note_on_c, 14, 76, 92
32, 880299, Note_on_c, 14, 67, 0
32, 880299, Note_on_c, 14, 76, 0
32, 880320, Note_on_c, 14, 67, 92
32, 880320, Note_on_c, 14, 76, 92
32, 880419, Note_on_c, 14, 67, 0
32, 880419, Note_on_c, 14, 76, 0
32, 880440, Note_on_c, 14, 67, 92
32, 880440, Note_on_c, 14, 76, 92
32, 880539, Note_on_c, 14, 67, 0
32, 880539, Note_on_c, 14, 76, 0
32, 880560, Note_on_c, 14, 74, 92
32, 880560, Note_on_c, 14, 66, 92
32, 880659, Note_on_c, 14, 74, 0
32, 880659, Note_on_c, 14, 66, 0
32, 880680, Note_on_c, 14, 66, 92
32, 880680, Note_on_c, 14, 74, 92
32, 880779, Note_on_c, 14, 66, 0
32, 880779, Note_on_c, 14, 74, 0
32, 880800, Note_on_c, 14, 67, 92
32, 880800, Note_on_c, 14, 76, 92
32, 880899, Note_on_c, 14, 67, 0
32, 880899, Note_on_c, 14, 76, 0
32, 880920, Note_on_c, 14, 67, 92
32, 880920, Note_on_c, 14, 76, 92
32, 881019, Note_on_c, 14, 67, 0
32, 881019, Note_on_c, 14, 76, 0
32, 881040, Note_on_c, 14, 78, 92
32, 881040, Note_on_c, 14, 69, 92
32, 881139, Note_on_c, 14, 78, 0
32, 881139, Note_on_c, 14, 69, 0
32, 881160, Note_on_c, 14, 78, 92
32, 881160, Note_on_c, 14, 69, 92
32, 881259, Note_on_c, 14, 78, 0
32, 881259, Note_on_c, 14, 69, 0
32, 881280, Note_on_c, 14, 78, 92
32, 881280, Note_on_c, 14, 69, 92
32, 881519, Note_on_c, 14, 78, 0
32, 881519, Note_on_c, 14, 69, 0
32, 881520, Note_on_c, 14, 69, 80
32, 881520, Note_on_c, 14, 66, 80
32, 881639, Note_on_c, 14, 69, 0
32, 881639, Note_on_c, 14, 66, 0
32, 881760, Note_on_c, 14, 69, 80
32, 881760, Note_on_c, 14, 78, 80
32, 881999, Note_on_c, 14, 69, 0
32, 881999, Note_on_c, 14, 78, 0
32, 882000, Note_on_c, 14, 69, 80
32, 882000, Note_on_c, 14, 66, 80
32, 882119, Note_on_c, 14, 69, 0
32, 882119, Note_on_c, 14, 66, 0
32, 882240, Note_on_c, 14, 78, 80
32, 882240, Note_on_c, 14, 69, 80
32, 882479, Note_on_c, 14, 78, 0
32, 882479, Note_on_c, 14, 69, 0
32, 882480, Note_on_c, 14, 66, 80
32, 882480, Note_on_c, 14, 69, 80
32, 882599, Note_on_c, 14, 66, 0
32, 882599, Note_on_c, 14, 69, 0
32, 882720, Note_on_c, 14, 69, 80
32, 882720, Note_on_c, 14, 78, 80
32, 882959, Note_on_c, 14, 69, 0
32, 882959, Note_on_c, 14, 78, 0
32, 882960, Note_on_c, 14, 66, 80
32, 882960, Note_on_c, 14, 69, 80
32, 883079, Note_on_c, 14, 66, 0
32, 883079, Note_on_c, 14, 69, 0
32, 883200, Note_on_c, 14, 78, 80
32, 883200, Note_on_c, 14, 69, 80
32, 883439, Note_on_c, 14, 78, 0
32, 883439, Note_on_c, 14, 69, 0
32, 883440, Note_on_c, 14, 69, 80
32, 883440, Note_on_c, 14, 66, 80
32, 883559, Note_on_c, 14, 69, 0
32, 883559, Note_on_c, 14, 66, 0
32, 883680, Note_on_c, 14, 69, 80
32, 883680, Note_on_c, 14, 78, 80
32, 883919, Note_on_c, 14, 69, 0
32, 883919, Note_on_c, 14, 78, 0
32, 883920, Note_on_c, 14, 66, 80
32, 883920, Note_on_c, 14, 69, 80
32, 884039, Note_on_c, 14, 66, 0
32, 884039, Note_on_c, 14, 69, 0
32, 884160, Note_on_c, 14, 78, 80
32, 884160, Note_on_c, 14, 69, 80
32, 884399, Note_on_c, 14, 78, 0
32, 884399, Note_on_c, 14, 69, 0
32, 884400, Note_on_c, 14, 69, 80
32, 884400, Note_on_c, 14, 66, 80
32, 884519, Note_on_c, 14, 69, 0
32, 884519, Note_on_c, 14, 66, 0
32, 884640, Note_on_c, 14, 78, 80
32, 884640, Note_on_c, 14, 69, 80
32, 884879, Note_on_c, 14, 78, 0
32, 884879, Note_on_c, 14, 69, 0
32, 884880, Note_on_c, 14, 69, 80
32, 884880, Note_on_c, 14, 66, 80
32, 884999, Note_on_c, 14, 69, 0
32, 884999, Note_on_c, 14, 66, 0
32, 885120, Note_on_c, 14, 78, 92
32, 885120, Note_on_c, 14, 69, 92
32, 885219, Note_on_c, 14, 78, 0
32, 885219, Note_on_c, 14, 69, 0
32, 885240, Note_on_c, 14, 78, 92
32, 885240, Note_on_c, 14, 69, 92
32, 885339, Note_on_c, 14, 78, 0
32, 885339, Note_on_c, 14, 69, 0
32, 885360, Note_on_c, 14, 66, 92
32, 885360, Note_on_c, 14, 69, 92
32, 885459, Note_on_c, 14, 66, 0
32, 885459, Note_on_c, 14, 69, 0
32, 885480, Note_on_c, 14, 66, 92
32, 885480, Note_on_c, 14, 69, 92
32, 885579, Note_on_c, 14, 66, 0
32, 885579, Note_on_c, 14, 69, 0
32, 885600, Note_on_c, 14, 78, 92
32, 885600, Note_on_c, 14, 69, 92
32, 885699, Note_on_c, 14, 78, 0
32, 885699, Note_on_c, 14, 69, 0
32, 885720, Note_on_c, 14, 69, 92
32, 885720, Note_on_c, 14, 78, 92
32, 885819, Note_on_c, 14, 69, 0
32, 885819, Note_on_c, 14, 78, 0
32, 885840, Note_on_c, 14, 66, 92
32, 885840, Note_on_c, 14, 69, 92
32, 885939, Note_on_c, 14, 66, 0
32, 885939, Note_on_c, 14, 69, 0
32, 885960, Note_on_c, 14, 66, 92
32, 885960, Note_on_c, 14, 69, 92
32, 886059, Note_on_c, 14, 66, 0
32, 886059, Note_on_c, 14, 69, 0
32, 886080, Note_on_c, 14, 78, 92
32, 886080, Note_on_c, 14, 69, 92
32, 886179, Note_on_c, 14, 78, 0
32, 886179, Note_on_c, 14, 69, 0
32, 886200, Note_on_c, 14, 69, 92
32, 886200, Note_on_c, 14, 78, 92
32, 886299, Note_on_c, 14, 69, 0
32, 886299, Note_on_c, 14, 78, 0
32, 886320, Note_on_c, 14, 69, 92
32, 886320, Note_on_c, 14, 66, 92
32, 886419, Note_on_c, 14, 69, 0
32, 886419, Note_on_c, 14, 66, 0
32, 886440, Note_on_c, 14, 66, 92
32, 886440, Note_on_c, 14, 69, 92
32, 886539, Note_on_c, 14, 66, 0
32, 886539, Note_on_c, 14, 69, 0
32, 886560, Note_on_c, 14, 69, 92
32, 886560, Note_on_c, 14, 78, 92
32, 886659, Note_on_c, 14, 69, 0
32, 886659, Note_on_c, 14, 78, 0
32, 886680, Note_on_c, 14, 78, 92
32, 886680, Note_on_c, 14, 69, 92
32, 886779, Note_on_c, 14, 78, 0
32, 886779, Note_on_c, 14, 69, 0
32, 886800, Note_on_c, 14, 69, 92
32, 886800, Note_on_c, 14, 66, 92
32, 886899, Note_on_c, 14, 69, 0
32, 886899, Note_on_c, 14, 66, 0
32, 886920, Note_on_c, 14, 66, 92
32, 886920, Note_on_c, 14, 69, 92
32, 887019, Note_on_c, 14, 66, 0
32, 887019, Note_on_c, 14, 69, 0
32, 887040, Note_on_c, 14, 69, 92
32, 887040, Note_on_c, 14, 78, 92
32, 887139, Note_on_c, 14, 69, 0
32, 887139, Note_on_c, 14, 78, 0
32, 887160, Note_on_c, 14, 78, 92
32, 887160, Note_on_c, 14, 69, 92
32, 887259, Note_on_c, 14, 78, 0
32, 887259, Note_on_c, 14, 69, 0
32, 887280, Note_on_c, 14, 69, 92
32, 887280, Note_on_c, 14, 66, 92
32, 887379, Note_on_c, 14, 69, 0
32, 887379, Note_on_c, 14, 66, 0
32, 887400, Note_on_c, 14, 69, 92
32, 887400, Note_on_c, 14, 66, 92
32, 887499, Note_on_c, 14, 69, 0
32, 887499, Note_on_c, 14, 66, 0
32, 887520, Note_on_c, 14, 69, 92
32, 887520, Note_on_c, 14, 78, 92
32, 887619, Note_on_c, 14, 69, 0
32, 887619, Note_on_c, 14, 78, 0
32, 887640, Note_on_c, 14, 69, 92
32, 887640, Note_on_c, 14, 78, 92
32, 887739, Note_on_c, 14, 69, 0
32, 887739, Note_on_c, 14, 78, 0
32, 887760, Note_on_c, 14, 69, 92
32, 887760, Note_on_c, 14, 66, 92
32, 887859, Note_on_c, 14, 69, 0
32, 887859, Note_on_c, 14, 66, 0
32, 887880, Note_on_c, 14, 66, 92
32, 887880, Note_on_c, 14, 69, 92
32, 887979, Note_on_c, 14, 66, 0
32, 887979, Note_on_c, 14, 69, 0
32, 888000, Note_on_c, 14, 78, 92
32, 888000, Note_on_c, 14, 69, 92
32, 888099, Note_on_c, 14, 78, 0
32, 888099, Note_on_c, 14, 69, 0
32, 888120, Note_on_c, 14, 69, 92
32, 888120, Note_on_c, 14, 78, 92
32, 888219, Note_on_c, 14, 69, 0
32, 888219, Note_on_c, 14, 78, 0
32, 888240, Note_on_c, 14, 66, 92
32, 888240, Note_on_c, 14, 69, 92
32, 888339, Note_on_c, 14, 66, 0
32, 888339, Note_on_c, 14, 69, 0
32, 888360, Note_on_c, 14, 69, 92
32, 888360, Note_on_c, 14, 66, 92
32, 888459, Note_on_c, 14, 69, 0
32, 888459, Note_on_c, 14, 66, 0
32, 888480, Note_on_c, 14, 78, 92
32, 888480, Note_on_c, 14, 69, 92
32, 888579, Note_on_c, 14, 78, 0
32, 888579, Note_on_c, 14, 69, 0
32, 888600, Note_on_c, 14, 78, 92
32, 888600, Note_on_c, 14, 69, 92
32, 888699, Note_on_c, 14, 78, 0
32, 888699, Note_on_c, 14, 69, 0
32, 888720, Note_on_c, 14, 69, 92
32, 888720, Note_on_c, 14, 66, 92
32, 888819, Note_on_c, 14, 69, 0
32, 888819, Note_on_c, 14, 66, 0
32, 888840, Note_on_c, 14, 66, 92
32, 888840, Note_on_c, 14, 69, 92
32, 888939, Note_on_c, 14, 66, 0
32, 888939, Note_on_c, 14, 69, 0
32, 888960, Note_on_c, 14, 69, 92
32, 888960, Note_on_c, 14, 57, 92
32, 888960, Note_on_c, 14, 66, 92
32, 889199, Note_on_c, 14, 69, 0
32, 889199, Note_on_c, 14, 57, 0
32, 889199, Note_on_c, 14, 66, 0
32, 890880, Note_on_c, 14, 62, 92
32, 890880, Note_on_c, 14, 74, 92
32, 891119, Note_on_c, 14, 62, 0
32, 891119, Note_on_c, 14, 74, 0
32, 891840, Note_on_c, 14, 74, 92
32, 891840, Note_on_c, 14, 62, 92
32, 892079, Note_on_c, 14, 74, 0
32, 892079, Note_on_c, 14, 62, 0
32, 892800, Note_on_c, 14, 74, 92
32, 892800, Note_on_c, 14, 62, 92
32, 893039, Note_on_c, 14, 74, 0
32, 893039, Note_on_c, 14, 62, 0
32, 893039, End_track
33, 0, Start_track
33, 0, Title_t, "Cello"
33, 0, MIDI_port, 0
33, 0, Control_c, 15, 121, 0
33, 0, Program_c, 15, 48
33, 0, Control_c, 15, 7, 96
33, 0, Control_c, 15, 11, 127
33, 0, Control_c, 15, 10, 96
33, 5760, Note_on_c, 15, 57, 80
33, 5984, Note_on_c, 15, 57, 0
33, 6000, Note_on_c, 15, 64, 80
33, 6944, Note_on_c, 15, 64, 0
33, 6960, Note_on_c, 15, 62, 80
33, 7079, Note_on_c, 15, 62, 0
33, 7080, Note_on_c, 15, 61, 80
33, 7199, Note_on_c, 15, 61, 0
33, 7200, Note_on_c, 15, 62, 80
33, 7319, Note_on_c, 15, 62, 0
33, 7320, Note_on_c, 15, 64, 80
33, 7424, Note_on_c, 15, 64, 0
33, 7440, Note_on_c, 15, 64, 80
33, 7784, Note_on_c, 15, 64, 0
33, 7800, Note_on_c, 15, 55, 80
33, 7889, Note_on_c, 15, 55, 0
33, 7920, Note_on_c, 15, 57, 80
33, 8009, Note_on_c, 15, 57, 0
33, 8040, Note_on_c, 15, 58, 80
33, 8129, Note_on_c, 15, 58, 0
33, 8160, Note_on_c, 15, 58, 80
33, 8279, Note_on_c, 15, 58, 0
33, 8280, Note_on_c, 15, 52, 80
33, 8399, Note_on_c, 15, 52, 0
33, 8400, Note_on_c, 15, 53, 80
33, 8519, Note_on_c, 15, 53, 0
33, 8520, Note_on_c, 15, 55, 80
33, 8624, Note_on_c, 15, 55, 0
33, 8640, Note_on_c, 15, 49, 80
33, 8729, Note_on_c, 15, 49, 0
33, 8760, Note_on_c, 15, 50, 80
33, 8849, Note_on_c, 15, 50, 0
33, 8880, Note_on_c, 15, 52, 80
33, 8999, Note_on_c, 15, 52, 0
33, 9000, Note_on_c, 15, 43, 80
33, 9104, Note_on_c, 15, 43, 0
33, 9120, Note_on_c, 15, 43, 80
33, 9464, Note_on_c, 15, 43, 0
33, 9480, Note_on_c, 15, 45, 80
33, 9584, Note_on_c, 15, 45, 0
33, 9600, Note_on_c, 15, 46, 80
33, 9824, Note_on_c, 15, 46, 0
33, 9840, Note_on_c, 15, 58, 80
33, 10320, Control_c, 15, 11, 127
33, 10380, Control_c, 15, 11, 122
33, 10440, Control_c, 15, 11, 117
33, 10500, Control_c, 15, 11, 112
33, 10544, Note_on_c, 15, 58, 0
33, 10560, Control_c, 15, 11, 107
33, 10560, Note_on_c, 15, 57, 80
33, 10620, Control_c, 15, 11, 102
33, 10680, Control_c, 15, 11, 99
33, 10740, Control_c, 15, 11, 94
33, 10800, Control_c, 15, 11, 89
33, 10860, Control_c, 15, 11, 84
33, 10904, Note_on_c, 15, 57, 0
33, 10920, Note_on_c, 15, 52, 80
33, 10920, Control_c, 15, 11, 79
33, 10980, Control_c, 15, 11, 74
33, 11024, Note_on_c, 15, 52, 0
33, 11040, Note_on_c, 15, 55, 80
33, 11040, Control_c, 15, 11, 69
33, 11279, Note_on_c, 15, 55, 0
33, 11280, Note_on_c, 15, 53, 80
33, 11519, Note_on_c, 15, 53, 0
33, 16800, Control_c, 15, 11, 127
33, 16920, Note_on_c, 15, 54, 80
33, 17024, Note_on_c, 15, 54, 0
33, 17040, Note_on_c, 15, 57, 80
33, 17279, Note_on_c, 15, 57, 0
33, 17880, Note_on_c, 15, 53, 80
33, 17984, Note_on_c, 15, 53, 0
33, 18000, Note_on_c, 15, 60, 80
33, 18104, Note_on_c, 15, 60, 0
33, 18120, Note_on_c, 15, 60, 80
33, 18224, Note_on_c, 15, 60, 0
33, 18240, Note_on_c, 15, 63, 80
33, 18584, Note_on_c, 15, 63, 0
33, 18600, Note_on_c, 15, 63, 80
33, 18704, Note_on_c, 15, 63, 0
33, 18720, Note_on_c, 15, 60, 80
33, 18824, Note_on_c, 15, 60, 0
33, 18840, Note_on_c, 15, 58, 80
33, 18944, Note_on_c, 15, 58, 0
33, 18960, Note_on_c, 15, 58, 80
33, 19079, Note_on_c, 15, 58, 0
33, 19080, Note_on_c, 15, 57, 80
33, 19184, Note_on_c, 15, 57, 0
33, 19200, Note_on_c, 15, 57, 80
33, 19304, Note_on_c, 15, 57, 0
33, 19320, Note_on_c, 15, 57, 80
33, 19424, Note_on_c, 15, 57, 0
33, 19440, Note_on_c, 15, 58, 80
33, 19544, Note_on_c, 15, 58, 0
33, 19560, Note_on_c, 15, 60, 80
33, 19664, Note_on_c, 15, 60, 0
33, 19680, Note_on_c, 15, 60, 80
33, 19799, Note_on_c, 15, 60, 0
33, 19800, Note_on_c, 15, 53, 80
33, 19919, Note_on_c, 15, 53, 0
33, 20040, Note_on_c, 15, 51, 80
33, 20144, Note_on_c, 15, 51, 0
33, 20160, Note_on_c, 15, 51, 80
33, 20264, Note_on_c, 15, 51, 0
33, 20280, Note_on_c, 15, 50, 80
33, 20384, Note_on_c, 15, 50, 0
33, 20400, Note_on_c, 15, 48, 80
33, 20504, Note_on_c, 15, 48, 0
33, 20520, Note_on_c, 15, 46, 80
33, 20639, Note_on_c, 15, 46, 0
33, 21120, Note_on_c, 15, 45, 32
33, 21120, Note_on_c, 15, 52, 32
33, 21153, Note_on_c, 15, 45, 0
33, 21153, Note_on_c, 15, 52, 0
33, 21160, Note_on_c, 15, 52, 32
33, 21160, Note_on_c, 15, 45, 32
33, 21193, Note_on_c, 15, 52, 0
33, 21193, Note_on_c, 15, 45, 0
33, 21200, Note_on_c, 15, 45, 32
33, 21200, Note_on_c, 15, 52, 32
33, 21233, Note_on_c, 15, 45, 0
33, 21233, Note_on_c, 15, 52, 0
33, 21240, Note_on_c, 15, 52, 32
33, 21240, Note_on_c, 15, 45, 32
33, 21273, Note_on_c, 15, 52, 0
33, 21273, Note_on_c, 15, 45, 0
33, 21280, Note_on_c, 15, 52, 32
33, 21280, Note_on_c, 15, 45, 32
33, 21313, Note_on_c, 15, 52, 0
33, 21313, Note_on_c, 15, 45, 0
33, 21320, Note_on_c, 15, 45, 32
33, 21320, Note_on_c, 15, 52, 32
33, 21353, Note_on_c, 15, 45, 0
33, 21353, Note_on_c, 15, 52, 0
33, 21360, Note_on_c, 15, 45, 32
33, 21360, Note_on_c, 15, 52, 32
33, 21393, Note_on_c, 15, 45, 0
33, 21393, Note_on_c, 15, 52, 0
33, 21400, Note_on_c, 15, 52, 32
33, 21400, Note_on_c, 15, 45, 32
33, 21433, Note_on_c, 15, 52, 0
33, 21433, Note_on_c, 15, 45, 0
33, 21440, Note_on_c, 15, 52, 32
33, 21440, Note_on_c, 15, 45, 32
33, 21473, Note_on_c, 15, 52, 0
33, 21473, Note_on_c, 15, 45, 0
33, 21480, Note_on_c, 15, 52, 32
33, 21480, Note_on_c, 15, 45, 32
33, 21513, Note_on_c, 15, 52, 0
33, 21513, Note_on_c, 15, 45, 0
33, 21520, Note_on_c, 15, 45, 32
33, 21520, Note_on_c, 15, 52, 32
33, 21553, Note_on_c, 15, 45, 0
33, 21553, Note_on_c, 15, 52, 0
33, 21560, Note_on_c, 15, 45, 32
33, 21560, Note_on_c, 15, 52, 32
33, 21593, Note_on_c, 15, 45, 0
33, 21593, Note_on_c, 15, 52, 0
33, 21600, Note_on_c, 15, 52, 32
33, 21600, Note_on_c, 15, 45, 32
33, 21633, Note_on_c, 15, 52, 0
33, 21633, Note_on_c, 15, 45, 0
33, 21640, Note_on_c, 15, 45, 32
33, 21640, Note_on_c, 15, 52, 32
33, 21673, Note_on_c, 15, 45, 0
33, 21673, Note_on_c, 15, 52, 0
33, 21680, Note_on_c, 15, 52, 32
33, 21680, Note_on_c, 15, 45, 32
33, 21713, Note_on_c, 15, 52, 0
33, 21713, Note_on_c, 15, 45, 0
33, 21720, Note_on_c, 15, 45, 32
33, 21720, Note_on_c, 15, 52, 32
33, 21753, Note_on_c, 15, 45, 0
33, 21753, Note_on_c, 15, 52, 0
33, 21760, Note_on_c, 15, 45, 32
33, 21760, Note_on_c, 15, 52, 32
33, 21793, Note_on_c, 15, 45, 0
33, 21793, Note_on_c, 15, 52, 0
33, 21800, Note_on_c, 15, 52, 32
33, 21800, Note_on_c, 15, 45, 32
33, 21833, Note_on_c, 15, 52, 0
33, 21833, Note_on_c, 15, 45, 0
33, 21840, Note_on_c, 15, 52, 32
33, 21840, Note_on_c, 15, 45, 32
33, 21873, Note_on_c, 15, 52, 0
33, 21873, Note_on_c, 15, 45, 0
33, 21880, Note_on_c, 15, 52, 32
33, 21880, Note_on_c, 15, 45, 32
33, 21913, Note_on_c, 15, 52, 0
33, 21913, Note_on_c, 15, 45, 0
33, 21920, Note_on_c, 15, 45, 32
33, 21920, Note_on_c, 15, 52, 32
33, 21953, Note_on_c, 15, 45, 0
33, 21953, Note_on_c, 15, 52, 0
33, 21960, Note_on_c, 15, 45, 32
33, 21960, Note_on_c, 15, 52, 32
33, 21993, Note_on_c, 15, 45, 0
33, 21993, Note_on_c, 15, 52, 0
33, 22000, Note_on_c, 15, 45, 32
33, 22000, Note_on_c, 15, 52, 32
33, 22033, Note_on_c, 15, 45, 0
33, 22033, Note_on_c, 15, 52, 0
33, 22040, Note_on_c, 15, 45, 32
33, 22040, Note_on_c, 15, 52, 32
33, 22073, Note_on_c, 15, 45, 0
33, 22073, Note_on_c, 15, 52, 0
33, 22080, Note_on_c, 15, 52, 32
33, 22080, Note_on_c, 15, 45, 32
33, 22113, Note_on_c, 15, 52, 0
33, 22113, Note_on_c, 15, 45, 0
33, 22120, Note_on_c, 15, 45, 32
33, 22120, Note_on_c, 15, 52, 32
33, 22153, Note_on_c, 15, 45, 0
33, 22153, Note_on_c, 15, 52, 0
33, 22160, Note_on_c, 15, 52, 32
33, 22160, Note_on_c, 15, 45, 32
33, 22193, Note_on_c, 15, 52, 0
33, 22193, Note_on_c, 15, 45, 0
33, 22200, Note_on_c, 15, 45, 32
33, 22200, Note_on_c, 15, 52, 32
33, 22233, Note_on_c, 15, 45, 0
33, 22233, Note_on_c, 15, 52, 0
33, 22240, Note_on_c, 15, 52, 32
33, 22240, Note_on_c, 15, 45, 32
33, 22273, Note_on_c, 15, 52, 0
33, 22273, Note_on_c, 15, 45, 0
33, 22280, Note_on_c, 15, 52, 32
33, 22280, Note_on_c, 15, 45, 32
33, 22313, Note_on_c, 15, 52, 0
33, 22313, Note_on_c, 15, 45, 0
33, 22320, Note_on_c, 15, 52, 32
33, 22320, Note_on_c, 15, 45, 32
33, 22353, Note_on_c, 15, 52, 0
33, 22353, Note_on_c, 15, 45, 0
33, 22360, Note_on_c, 15, 52, 32
33, 22360, Note_on_c, 15, 45, 32
33, 22393, Note_on_c, 15, 52, 0
33, 22393, Note_on_c, 15, 45, 0
33, 22400, Note_on_c, 15, 45, 32
33, 22400, Note_on_c, 15, 52, 32
33, 22433, Note_on_c, 15, 45, 0
33, 22433, Note_on_c, 15, 52, 0
33, 22440, Note_on_c, 15, 45, 32
33, 22440, Note_on_c, 15, 52, 32
33, 22473, Note_on_c, 15, 45, 0
33, 22473, Note_on_c, 15, 52, 0
33, 22480, Note_on_c, 15, 45, 32
33, 22480, Note_on_c, 15, 52, 32
33, 22513, Note_on_c, 15, 45, 0
33, 22513, Note_on_c, 15, 52, 0
33, 22520, Note_on_c, 15, 45, 32
33, 22520, Note_on_c, 15, 52, 32
33, 22553, Note_on_c, 15, 45, 0
33, 22553, Note_on_c, 15, 52, 0
33, 22560, Note_on_c, 15, 45, 32
33, 22560, Note_on_c, 15, 52, 32
33, 22593, Note_on_c, 15, 45, 0
33, 22593, Note_on_c, 15, 52, 0
33, 22600, Note_on_c, 15, 52, 32
33, 22600, Note_on_c, 15, 45, 32
33, 22633, Note_on_c, 15, 52, 0
33, 22633, Note_on_c, 15, 45, 0
33, 22640, Note_on_c, 15, 45, 32
33, 22640, Note_on_c, 15, 52, 32
33, 22673, Note_on_c, 15, 45, 0
33, 22673, Note_on_c, 15, 52, 0
33, 22680, Note_on_c, 15, 45, 32
33, 22680, Note_on_c, 15, 52, 32
33, 22713, Note_on_c, 15, 45, 0
33, 22713, Note_on_c, 15, 52, 0
33, 22720, Note_on_c, 15, 52, 32
33, 22720, Note_on_c, 15, 45, 32
33, 22753, Note_on_c, 15, 52, 0
33, 22753, Note_on_c, 15, 45, 0
33, 22760, Note_on_c, 15, 45, 32
33, 22760, Note_on_c, 15, 52, 32
33, 22793, Note_on_c, 15, 45, 0
33, 22793, Note_on_c, 15, 52, 0
33, 22800, Note_on_c, 15, 52, 32
33, 22800, Note_on_c, 15, 45, 32
33, 22833, Note_on_c, 15, 52, 0
33, 22833, Note_on_c, 15, 45, 0
33, 22840, Note_on_c, 15, 52, 32
33, 22840, Note_on_c, 15, 45, 32
33, 22873, Note_on_c, 15, 52, 0
33, 22873, Note_on_c, 15, 45, 0
33, 22880, Note_on_c, 15, 52, 32
33, 22880, Note_on_c, 15, 45, 32
33, 22913, Note_on_c, 15, 52, 0
33, 22913, Note_on_c, 15, 45, 0
33, 22920, Note_on_c, 15, 45, 32
33, 22920, Note_on_c, 15, 52, 32
33, 22953, Note_on_c, 15, 45, 0
33, 22953, Note_on_c, 15, 52, 0
33, 22960, Note_on_c, 15, 45, 32
33, 22960, Note_on_c, 15, 52, 32
33, 22993, Note_on_c, 15, 45, 0
33, 22993, Note_on_c, 15, 52, 0
33, 23000, Note_on_c, 15, 45, 32
33, 23000, Note_on_c, 15, 52, 32
33, 23033, Note_on_c, 15, 45, 0
33, 23033, Note_on_c, 15, 52, 0
33, 23040, Note_on_c, 15, 45, 32
33, 23040, Note_on_c, 15, 52, 32
33, 23073, Note_on_c, 15, 45, 0
33, 23073, Note_on_c, 15, 52, 0
33, 23080, Note_on_c, 15, 52, 32
33, 23080, Note_on_c, 15, 45, 32
33, 23113, Note_on_c, 15, 52, 0
33, 23113, Note_on_c, 15, 45, 0
33, 23120, Note_on_c, 15, 45, 32
33, 23120, Note_on_c, 15, 52, 32
33, 23153, Note_on_c, 15, 45, 0
33, 23153, Note_on_c, 15, 52, 0
33, 23160, Note_on_c, 15, 52, 32
33, 23160, Note_on_c, 15, 45, 32
33, 23193, Note_on_c, 15, 52, 0
33, 23193, Note_on_c, 15, 45, 0
33, 23200, Note_on_c, 15, 52, 32
33, 23200, Note_on_c, 15, 45, 32
33, 23233, Note_on_c, 15, 52, 0
33, 23233, Note_on_c, 15, 45, 0
33, 23240, Note_on_c, 15, 45, 32
33, 23240, Note_on_c, 15, 52, 32
33, 23273, Note_on_c, 15, 45, 0
33, 23273, Note_on_c, 15, 52, 0
33, 23280, Note_on_c, 15, 45, 32
33, 23280, Note_on_c, 15, 52, 32
33, 23313, Note_on_c, 15, 45, 0
33, 23313, Note_on_c, 15, 52, 0
33, 23320, Note_on_c, 15, 52, 32
33, 23320, Note_on_c, 15, 45, 32
33, 23353, Note_on_c, 15, 52, 0
33, 23353, Note_on_c, 15, 45, 0
33, 23360, Note_on_c, 15, 52, 32
33, 23360, Note_on_c, 15, 45, 32
33, 23393, Note_on_c, 15, 52, 0
33, 23393, Note_on_c, 15, 45, 0
33, 23400, Note_on_c, 15, 52, 32
33, 23400, Note_on_c, 15, 45, 32
33, 23433, Note_on_c, 15, 52, 0
33, 23433, Note_on_c, 15, 45, 0
33, 23440, Note_on_c, 15, 52, 32
33, 23440, Note_on_c, 15, 45, 32
33, 23473, Note_on_c, 15, 52, 0
33, 23473, Note_on_c, 15, 45, 0
33, 23480, Note_on_c, 15, 52, 32
33, 23480, Note_on_c, 15, 45, 32
33, 23513, Note_on_c, 15, 52, 0
33, 23513, Note_on_c, 15, 45, 0
33, 23520, Note_on_c, 15, 45, 32
33, 23520, Note_on_c, 15, 52, 32
33, 23553, Note_on_c, 15, 45, 0
33, 23553, Note_on_c, 15, 52, 0
33, 23560, Note_on_c, 15, 45, 32
33, 23560, Note_on_c, 15, 52, 32
33, 23593, Note_on_c, 15, 45, 0
33, 23593, Note_on_c, 15, 52, 0
33, 23600, Note_on_c, 15, 45, 32
33, 23600, Note_on_c, 15, 52, 32
33, 23633, Note_on_c, 15, 45, 0
33, 23633, Note_on_c, 15, 52, 0
33, 23640, Note_on_c, 15, 45, 32
33, 23640, Note_on_c, 15, 52, 32
33, 23673, Note_on_c, 15, 45, 0
33, 23673, Note_on_c, 15, 52, 0
33, 23680, Note_on_c, 15, 45, 32
33, 23680, Note_on_c, 15, 52, 32
33, 23713, Note_on_c, 15, 45, 0
33, 23713, Note_on_c, 15, 52, 0
33, 23720, Note_on_c, 15, 52, 32
33, 23720, Note_on_c, 15, 45, 32
33, 23753, Note_on_c, 15, 52, 0
33, 23753, Note_on_c, 15, 45, 0
33, 23760, Note_on_c, 15, 45, 32
33, 23760, Note_on_c, 15, 52, 32
33, 23793, Note_on_c, 15, 45, 0
33, 23793, Note_on_c, 15, 52, 0
33, 23800, Note_on_c, 15, 52, 32
33, 23800, Note_on_c, 15, 45, 32
33, 23833, Note_on_c, 15, 52, 0
33, 23833, Note_on_c, 15, 45, 0
33, 23840, Note_on_c, 15, 45, 32
33, 23840, Note_on_c, 15, 52, 32
33, 23873, Note_on_c, 15, 45, 0
33, 23873, Note_on_c, 15, 52, 0
33, 23880, Note_on_c, 15, 45, 32
33, 23880, Note_on_c, 15, 52, 32
33, 23913, Note_on_c, 15, 45, 0
33, 23913, Note_on_c, 15, 52, 0
33, 23920, Note_on_c, 15, 45, 32
33, 23920, Note_on_c, 15, 52, 32
33, 23953, Note_on_c, 15, 45, 0
33, 23953, Note_on_c, 15, 52, 0
33, 23960, Note_on_c, 15, 52, 32
33, 23960, Note_on_c, 15, 45, 32
33, 23993, Note_on_c, 15, 52, 0
33, 23993, Note_on_c, 15, 45, 0
33, 24000, Note_on_c, 15, 52, 32
33, 24000, Note_on_c, 15, 45, 32
33, 24033, Note_on_c, 15, 52, 0
33, 24033, Note_on_c, 15, 45, 0
33, 24040, Note_on_c, 15, 52, 32
33, 24040, Note_on_c, 15, 45, 32
33, 24073, Note_on_c, 15, 52, 0
33, 24073, Note_on_c, 15, 45, 0
33, 24080, Note_on_c, 15, 52, 32
33, 24080, Note_on_c, 15, 45, 32
33, 24113, Note_on_c, 15, 52, 0
33, 24113, Note_on_c, 15, 45, 0
33, 24120, Note_on_c, 15, 45, 32
33, 24120, Note_on_c, 15, 52, 32
33, 24153, Note_on_c, 15, 45, 0
33, 24153, Note_on_c, 15, 52, 0
33, 24160, Note_on_c, 15, 52, 32
33, 24160, Note_on_c, 15, 45, 32
33, 24193, Note_on_c, 15, 52, 0
33, 24193, Note_on_c, 15, 45, 0
33, 24200, Note_on_c, 15, 45, 32
33, 24200, Note_on_c, 15, 52, 32
33, 24233, Note_on_c, 15, 45, 0
33, 24233, Note_on_c, 15, 52, 0
33, 24240, Note_on_c, 15, 45, 32
33, 24240, Note_on_c, 15, 52, 32
33, 24273, Note_on_c, 15, 45, 0
33, 24273, Note_on_c, 15, 52, 0
33, 24280, Note_on_c, 15, 52, 32
33, 24280, Note_on_c, 15, 45, 32
33, 24313, Note_on_c, 15, 52, 0
33, 24313, Note_on_c, 15, 45, 0
33, 24320, Note_on_c, 15, 45, 32
33, 24320, Note_on_c, 15, 52, 32
33, 24353, Note_on_c, 15, 45, 0
33, 24353, Note_on_c, 15, 52, 0
33, 24360, Note_on_c, 15, 45, 32
33, 24360, Note_on_c, 15, 52, 32
33, 24393, Note_on_c, 15, 45, 0
33, 24393, Note_on_c, 15, 52, 0
33, 24400, Note_on_c, 15, 45, 32
33, 24400, Note_on_c, 15, 52, 32
33, 24433, Note_on_c, 15, 45, 0
33, 24433, Note_on_c, 15, 52, 0
33, 24440, Note_on_c, 15, 45, 32
33, 24440, Note_on_c, 15, 52, 32
33, 24473, Note_on_c, 15, 45, 0
33, 24473, Note_on_c, 15, 52, 0
33, 24480, Note_on_c, 15, 52, 32
33, 24480, Note_on_c, 15, 45, 32
33, 24513, Note_on_c, 15, 52, 0
33, 24513, Note_on_c, 15, 45, 0
33, 24520, Note_on_c, 15, 52, 32
33, 24520, Note_on_c, 15, 45, 32
33, 24553, Note_on_c, 15, 52, 0
33, 24553, Note_on_c, 15, 45, 0
33, 24560, Note_on_c, 15, 52, 32
33, 24560, Note_on_c, 15, 45, 32
33, 24593, Note_on_c, 15, 52, 0
33, 24593, Note_on_c, 15, 45, 0
33, 24600, Note_on_c, 15, 45, 32
33, 24600, Note_on_c, 15, 52, 32
33, 24633, Note_on_c, 15, 45, 0
33, 24633, Note_on_c, 15, 52, 0
33, 24640, Note_on_c, 15, 52, 32
33, 24640, Note_on_c, 15, 45, 32
33, 24673, Note_on_c, 15, 52, 0
33, 24673, Note_on_c, 15, 45, 0
33, 24680, Note_on_c, 15, 45, 32
33, 24680, Note_on_c, 15, 52, 32
33, 24713, Note_on_c, 15, 45, 0
33, 24713, Note_on_c, 15, 52, 0
33, 24720, Note_on_c, 15, 52, 32
33, 24720, Note_on_c, 15, 45, 32
33, 24753, Note_on_c, 15, 52, 0
33, 24753, Note_on_c, 15, 45, 0
33, 24760, Note_on_c, 15, 52, 32
33, 24760, Note_on_c, 15, 45, 32
33, 24793, Note_on_c, 15, 52, 0
33, 24793, Note_on_c, 15, 45, 0
33, 24800, Note_on_c, 15, 52, 32
33, 24800, Note_on_c, 15, 45, 32
33, 24833, Note_on_c, 15, 52, 0
33, 24833, Note_on_c, 15, 45, 0
33, 24840, Note_on_c, 15, 45, 32
33, 24840, Note_on_c, 15, 52, 32
33, 24873, Note_on_c, 15, 45, 0
33, 24873, Note_on_c, 15, 52, 0
33, 24880, Note_on_c, 15, 45, 32
33, 24880, Note_on_c, 15, 52, 32
33, 24913, Note_on_c, 15, 45, 0
33, 24913, Note_on_c, 15, 52, 0
33, 24920, Note_on_c, 15, 45, 32
33, 24920, Note_on_c, 15, 52, 32
33, 24953, Note_on_c, 15, 45, 0
33, 24953, Note_on_c, 15, 52, 0
33, 24960, Note_on_c, 15, 54, 80
33, 25064, Note_on_c, 15, 54, 0
33, 25080, Note_on_c, 15, 54, 80
33, 25184, Note_on_c, 15, 54, 0
33, 25200, Note_on_c, 15, 63, 92
33, 26024, Note_on_c, 15, 63, 0
33, 26040, Note_on_c, 15, 63, 92
33, 26144, Note_on_c, 15, 63, 0
33, 26160, Note_on_c, 15, 63, 92
33, 26264, Note_on_c, 15, 63, 0
33, 26280, Note_on_c, 15, 60, 92
33, 26384, Note_on_c, 15, 60, 0
33, 26400, Note_on_c, 15, 58, 92
33, 26504, Note_on_c, 15, 58, 0
33, 26520, Note_on_c, 15, 57, 92
33, 26624, Note_on_c, 15, 57, 0
33, 26640, Note_on_c, 15, 60, 92
33, 26744, Note_on_c, 15, 60, 0
33, 26760, Note_on_c, 15, 54, 92
33, 26864, Note_on_c, 15, 54, 0
33, 26880, Note_on_c, 15, 55, 92
33, 26984, Note_on_c, 15, 55, 0
33, 27000, Note_on_c, 15, 57, 92
33, 27104, Note_on_c, 15, 57, 0
33, 27120, Note_on_c, 15, 57, 92
33, 27224, Note_on_c, 15, 57, 0
33, 27240, Note_on_c, 15, 48, 92
33, 27344, Note_on_c, 15, 48, 0
33, 27360, Note_on_c, 15, 50, 92
33, 27464, Note_on_c, 15, 50, 0
33, 27480, Note_on_c, 15, 51, 92
33, 27704, Note_on_c, 15, 51, 0
33, 27720, Note_on_c, 15, 50, 92
33, 27824, Note_on_c, 15, 50, 0
33, 27840, Note_on_c, 15, 50, 92
33, 28184, Note_on_c, 15, 50, 0
33, 28200, Note_on_c, 15, 48, 92
33, 28304, Note_on_c, 15, 48, 0
33, 28320, Note_on_c, 15, 48, 92
33, 28424, Note_on_c, 15, 48, 0
33, 28440, Note_on_c, 15, 47, 92
33, 28544, Note_on_c, 15, 47, 0
33, 28560, Note_on_c, 15, 47, 92
33, 28664, Note_on_c, 15, 47, 0
33, 28680, Note_on_c, 15, 53, 92
33, 28784, Note_on_c, 15, 53, 0
33, 28800, Note_on_c, 15, 53, 92
33, 28904, Note_on_c, 15, 53, 0
33, 28920, Note_on_c, 15, 52, 92
33, 29144, Note_on_c, 15, 52, 0
33, 29160, Note_on_c, 15, 50, 92
33, 29264, Note_on_c, 15, 50, 0
33, 29280, Note_on_c, 15, 50, 92
33, 29280, Control_c, 15, 11, 127
33, 29340, Control_c, 15, 11, 125
33, 29384, Note_on_c, 15, 50, 0
33, 29400, Note_on_c, 15, 59, 92
33, 29400, Control_c, 15, 11, 124
33, 29460, Control_c, 15, 11, 122
33, 29504, Note_on_c, 15, 59, 0
33, 29520, Note_on_c, 15, 59, 92
33, 29520, Control_c, 15, 11, 120
33, 29580, Control_c, 15, 11, 119
33, 29624, Note_on_c, 15, 59, 0
33, 29640, Control_c, 15, 11, 117
33, 29640, Note_on_c, 15, 59, 92
33, 29700, Control_c, 15, 11, 115
33, 29744, Note_on_c, 15, 59, 0
33, 29760, Control_c, 15, 11, 114
33, 29760, Note_on_c, 15, 59, 92
33, 29820, Control_c, 15, 11, 112
33, 29864, Note_on_c, 15, 59, 0
33, 29880, Control_c, 15, 11, 110
33, 29880, Note_on_c, 15, 60, 92
33, 29940, Control_c, 15, 11, 109
33, 29984, Note_on_c, 15, 60, 0
33, 30000, Note_on_c, 15, 62, 92
33, 30000, Control_c, 15, 11, 107
33, 30060, Control_c, 15, 11, 105
33, 30120, Control_c, 15, 11, 104
33, 30180, Control_c, 15, 11, 102
33, 30240, Control_c, 15, 11, 100
33, 30300, Control_c, 15, 11, 99
33, 30360, Control_c, 15, 11, 97
33, 30420, Control_c, 15, 11, 95
33, 30480, Control_c, 15, 11, 94
33, 30540, Control_c, 15, 11, 92
33, 30600, Control_c, 15, 11, 90
33, 30660, Control_c, 15, 11, 89
33, 30719, Note_on_c, 15, 62, 0
33, 30720, Control_c, 15, 11, 87
33, 30720, Note_on_c, 15, 60, 92
33, 30780, Control_c, 15, 11, 85
33, 30840, Control_c, 15, 11, 84
33, 30900, Control_c, 15, 11, 82
33, 30960, Control_c, 15, 11, 80
33, 31020, Control_c, 15, 11, 79
33, 31080, Control_c, 15, 11, 77
33, 31140, Control_c, 15, 11, 75
33, 31199, Note_on_c, 15, 60, 0
33, 31200, Note_on_c, 15, 59, 92
33, 31200, Control_c, 15, 11, 74
33, 31260, Control_c, 15, 11, 72
33, 31320, Control_c, 15, 11, 70
33, 31380, Control_c, 15, 11, 69
33, 31424, Note_on_c, 15, 59, 0
33, 31440, Control_c, 15, 11, 67
33, 31440, Note_on_c, 15, 62, 92
33, 31500, Control_c, 15, 11, 65
33, 31560, Control_c, 15, 11, 64
33, 31620, Control_c, 15, 11, 62
33, 31679, Note_on_c, 15, 62, 0
33, 31680, Note_on_c, 15, 60, 92
33, 31680, Control_c, 15, 11, 60
33, 31740, Control_c, 15, 11, 59
33, 31800, Control_c, 15, 11, 57
33, 31860, Control_c, 15, 11, 55
33, 31919, Note_on_c, 15, 60, 0
33, 31920, Control_c, 15, 11, 54
33, 31980, Control_c, 15, 11, 52
33, 32040, Control_c, 15, 11, 50
33, 32100, Control_c, 15, 11, 49
33, 32158, Program_c, 15, 45
33, 32158, Control_c, 15, 11, 127
33, 32160, Note_on_c, 15, 64, 40
33, 32399, Note_on_c, 15, 64, 0
33, 32880, Note_on_c, 15, 57, 40
33, 33119, Note_on_c, 15, 57, 0
33, 33600, Note_on_c, 15, 52, 40
33, 33839, Note_on_c, 15, 52, 0
33, 34320, Note_on_c, 15, 45, 40
33, 34559, Note_on_c, 15, 45, 0
33, 35040, Note_on_c, 15, 60, 40
33, 35279, Note_on_c, 15, 60, 0
33, 35760, Note_on_c, 15, 53, 40
33, 35999, Note_on_c, 15, 53, 0
33, 36480, Note_on_c, 15, 48, 40
33, 36719, Note_on_c, 15, 48, 0
33, 37200, Note_on_c, 15, 41, 40
33, 37439, Note_on_c, 15, 41, 0
33, 37920, Program_c, 15, 48
33, 38160, Note_on_c, 15, 65, 80
33, 38399, Note_on_c, 15, 65, 0
33, 38400, Note_on_c, 15, 60, 80
33, 38639, Note_on_c, 15, 60, 0
33, 39120, Note_on_c, 15, 60, 80
33, 39359, Note_on_c, 15, 60, 0
33, 39360, Note_on_c, 15, 58, 80
33, 39464, Note_on_c, 15, 58, 0
33, 39480, Note_on_c, 15, 60, 80
33, 39584, Note_on_c, 15, 60, 0
33, 39600, Note_on_c, 15, 58, 80
33, 39719, Note_on_c, 15, 58, 0
33, 39720, Note_on_c, 15, 57, 80
33, 39824, Note_on_c, 15, 57, 0
33, 39840, Note_on_c, 15, 57, 80
33, 40064, Note_on_c, 15, 57, 0
33, 40080, Note_on_c, 15, 53, 80
33, 40664, Note_on_c, 15, 53, 0
33, 40680, Note_on_c, 15, 53, 80
33, 40784, Note_on_c, 15, 53, 0
33, 40800, Note_on_c, 15, 53, 80
33, 40904, Note_on_c, 15, 53, 0
33, 40920, Note_on_c, 15, 55, 80
33, 41024, Note_on_c, 15, 55, 0
33, 41040, Note_on_c, 15, 58, 80
33, 41144, Note_on_c, 15, 58, 0
33, 41160, Note_on_c, 15, 57, 80
33, 41279, Note_on_c, 15, 57, 0
33, 41400, Note_on_c, 15, 57, 80
33, 41504, Note_on_c, 15, 57, 0
33, 41520, Note_on_c, 15, 57, 80
33, 41624, Note_on_c, 15, 57, 0
33, 41640, Note_on_c, 15, 58, 80
33, 41744, Note_on_c, 15, 58, 0
33, 41760, Note_on_c, 15, 62, 80
33, 41864, Note_on_c, 15, 62, 0
33, 41880, Note_on_c, 15, 60, 80
33, 41984, Note_on_c, 15, 60, 0
33, 42000, Note_on_c, 15, 60, 80
33, 42104, Note_on_c, 15, 60, 0
33, 42120, Note_on_c, 15, 60, 71
33, 42224, Note_on_c, 15, 60, 0
33, 42240, Note_on_c, 15, 60, 62
33, 42344, Note_on_c, 15, 60, 0
33, 42360, Note_on_c, 15, 62, 53
33, 42464, Note_on_c, 15, 62, 0
33, 42480, Note_on_c, 15, 63, 44
33, 42719, Note_on_c, 15, 63, 0
33, 45120, Note_on_c, 15, 58, 44
33, 46319, Note_on_c, 15, 58, 0
33, 46320, Note_on_c, 15, 59, 44
33, 46544, Note_on_c, 15, 59, 0
33, 46560, Note_on_c, 15, 59, 44
33, 47039, Note_on_c, 15, 59, 0
33, 47040, Note_on_c, 15, 56, 44
33, 47279, Note_on_c, 15, 56, 0
33, 47280, Note_on_c, 15, 54, 44
33, 47759, Note_on_c, 15, 54, 0
33, 47760, Note_on_c, 15, 53, 44
33, 47999, Note_on_c, 15, 53, 0
33, 48480, Note_on_c, 15, 53, 44
33, 48719, Note_on_c, 15, 53, 0
33, 48720, Note_on_c, 15, 56, 44
33, 49199, Note_on_c, 15, 56, 0
33, 49200, Note_on_c, 15, 61, 44
33, 49424, Note_on_c, 15, 61, 0
33, 49440, Note_on_c, 15, 61, 44
33, 49664, Note_on_c, 15, 61, 0
33, 49680, Note_on_c, 15, 54, 49
33, 50024, Note_on_c, 15, 54, 0
33, 50040, Note_on_c, 15, 57, 57
33, 50144, Note_on_c, 15, 57, 0
33, 50160, Note_on_c, 15, 57, 60
33, 50384, Note_on_c, 15, 57, 0
33, 50400, Note_on_c, 15, 48, 65
33, 50489, Note_on_c, 15, 48, 0
33, 50520, Note_on_c, 15, 63, 68
33, 50609, Note_on_c, 15, 63, 0
33, 50640, Note_on_c, 15, 63, 70
33, 50729, Note_on_c, 15, 63, 0
33, 50760, Note_on_c, 15, 61, 73
33, 50849, Note_on_c, 15, 61, 0
33, 50880, Note_on_c, 15, 61, 76
33, 50969, Note_on_c, 15, 61, 0
33, 51000, Note_on_c, 15, 60, 78
33, 51089, Note_on_c, 15, 60, 0
33, 51120, Note_on_c, 15, 60, 81
33, 51209, Note_on_c, 15, 60, 0
33, 51240, Note_on_c, 15, 63, 84
33, 51329, Note_on_c, 15, 63, 0
33, 51360, Note_on_c, 15, 63, 86
33, 51449, Note_on_c, 15, 63, 0
33, 51480, Note_on_c, 15, 64, 89
33, 51569, Note_on_c, 15, 64, 0
33, 51600, Note_on_c, 15, 66, 92
33, 51944, Note_on_c, 15, 66, 0
33, 51960, Note_on_c, 15, 63, 92
33, 52049, Note_on_c, 15, 63, 0
33, 52080, Note_on_c, 15, 60, 92
33, 52169, Note_on_c, 15, 60, 0
33, 52200, Note_on_c, 15, 61, 92
33, 52289, Note_on_c, 15, 61, 0
33, 52320, Note_on_c, 15, 61, 92
33, 52544, Note_on_c, 15, 61, 0
33, 52560, Note_on_c, 15, 56, 92
33, 52799, Note_on_c, 15, 56, 0
33, 57120, Note_on_c, 15, 57, 80
33, 57344, Note_on_c, 15, 57, 0
33, 57600, Note_on_c, 15, 64, 80
33, 57839, Note_on_c, 15, 64, 0
33, 58080, Note_on_c, 15, 62, 80
33, 58184, Note_on_c, 15, 62, 0
33, 58200, Note_on_c, 15, 64, 80
33, 58304, Note_on_c, 15, 64, 0
33, 58320, Note_on_c, 15, 62, 80
33, 58424, Note_on_c, 15, 62, 0
33, 58440, Note_on_c, 15, 61, 80
33, 58559, Note_on_c, 15, 61, 0
33, 58920, Note_on_c, 15, 64, 80
33, 59024, Note_on_c, 15, 64, 0
33, 59040, Note_on_c, 15, 64, 80
33, 59264, Note_on_c, 15, 64, 0
33, 59280, Note_on_c, 15, 55, 80
33, 59624, Note_on_c, 15, 55, 0
33, 59640, Note_on_c, 15, 57, 80
33, 59744, Note_on_c, 15, 57, 0
33, 59760, Note_on_c, 15, 55, 80
33, 59984, Note_on_c, 15, 55, 0
33, 60000, Note_on_c, 15, 54, 80
33, 60224, Note_on_c, 15, 54, 0
33, 60240, Note_on_c, 15, 57, 80
33, 60419, Note_on_c, 15, 57, 0
33, 60420, Note_on_c, 15, 62, 80
33, 60471, Note_on_c, 15, 62, 0
33, 60480, Note_on_c, 15, 62, 80
33, 60824, Note_on_c, 15, 62, 0
33, 60840, Note_on_c, 15, 64, 80
33, 60959, Note_on_c, 15, 64, 0
33, 60960, Note_on_c, 15, 66, 80
33, 61079, Note_on_c, 15, 66, 0
33, 61080, Note_on_c, 15, 64, 80
33, 61184, Note_on_c, 15, 64, 0
33, 61200, Note_on_c, 15, 64, 80
33, 61319, Note_on_c, 15, 64, 0
33, 61320, Note_on_c, 15, 62, 80
33, 61424, Note_on_c, 15, 62, 0
33, 61440, Note_on_c, 15, 62, 80
33, 61559, Note_on_c, 15, 62, 0
33, 61560, Note_on_c, 15, 61, 80
33, 61679, Note_on_c, 15, 61, 0
33, 61680, Note_on_c, 15, 62, 80
33, 61799, Note_on_c, 15, 62, 0
33, 61800, Note_on_c, 15, 57, 80
33, 61919, Note_on_c, 15, 57, 0
33, 61920, Note_on_c, 15, 55, 80
33, 62039, Note_on_c, 15, 55, 0
33, 62040, Note_on_c, 15, 54, 80
33, 62144, Note_on_c, 15, 54, 0
33, 62160, Note_on_c, 15, 54, 80
33, 62279, Note_on_c, 15, 54, 0
33, 62280, Note_on_c, 15, 52, 80
33, 62399, Note_on_c, 15, 52, 0
33, 62400, Note_on_c, 15, 50, 80
33, 62519, Note_on_c, 15, 50, 0
33, 62520, Note_on_c, 15, 48, 80
33, 62624, Note_on_c, 15, 48, 0
33, 62640, Note_on_c, 15, 48, 80
33, 62759, Note_on_c, 15, 48, 0
33, 62760, Note_on_c, 15, 47, 80
33, 62864, Note_on_c, 15, 47, 0
33, 62880, Note_on_c, 15, 55, 92
33, 62939, Note_on_c, 15, 55, 0
33, 62940, Note_on_c, 15, 55, 80
33, 63704, Note_on_c, 15, 55, 0
33, 63720, Note_on_c, 15, 52, 80
33, 63824, Note_on_c, 15, 52, 0
33, 63840, Note_on_c, 15, 49, 80
33, 63944, Note_on_c, 15, 49, 0
33, 63960, Note_on_c, 15, 50, 80
33, 64064, Note_on_c, 15, 50, 0
33, 64080, Note_on_c, 15, 50, 80
33, 64304, Note_on_c, 15, 50, 0
33, 64320, Note_on_c, 15, 45, 80
33, 64559, Note_on_c, 15, 45, 0
33, 65520, Note_on_c, 15, 54, 44
33, 65999, Note_on_c, 15, 54, 0
33, 66000, Note_on_c, 15, 55, 44
33, 66239, Note_on_c, 15, 55, 0
33, 66240, Note_on_c, 15, 57, 44
33, 66464, Note_on_c, 15, 57, 0
33, 66480, Note_on_c, 15, 57, 44
33, 66719, Note_on_c, 15, 57, 0
33, 66720, Note_on_c, 15, 55, 44
33, 66959, Note_on_c, 15, 55, 0
33, 66960, Note_on_c, 15, 54, 44
33, 67199, Note_on_c, 15, 54, 0
33, 67200, Note_on_c, 15, 52, 44
33, 67424, Note_on_c, 15, 52, 0
33, 67440, Note_on_c, 15, 50, 44
33, 67919, Note_on_c, 15, 50, 0
33, 67920, Note_on_c, 15, 52, 44
33, 68159, Note_on_c, 15, 52, 0
33, 68160, Note_on_c, 15, 54, 44
33, 68384, Note_on_c, 15, 54, 0
33, 68400, Note_on_c, 15, 54, 44
33, 68759, Note_on_c, 15, 54, 0
33, 68760, Note_on_c, 15, 52, 44
33, 68864, Note_on_c, 15, 52, 0
33, 68880, Note_on_c, 15, 52, 44
33, 69344, Note_on_c, 15, 52, 0
33, 69360, Note_on_c, 15, 54, 44
33, 69839, Note_on_c, 15, 54, 0
33, 69840, Note_on_c, 15, 55, 44
33, 70079, Note_on_c, 15, 55, 0
33, 70080, Note_on_c, 15, 57, 44
33, 70304, Note_on_c, 15, 57, 0
33, 70320, Note_on_c, 15, 57, 44
33, 70559, Note_on_c, 15, 57, 0
33, 70560, Note_on_c, 15, 55, 44
33, 70799, Note_on_c, 15, 55, 0
33, 70800, Note_on_c, 15, 54, 44
33, 71039, Note_on_c, 15, 54, 0
33, 71040, Note_on_c, 15, 52, 44
33, 71264, Note_on_c, 15, 52, 0
33, 71280, Note_on_c, 15, 50, 44
33, 71759, Note_on_c, 15, 50, 0
33, 71760, Note_on_c, 15, 52, 44
33, 71999, Note_on_c, 15, 52, 0
33, 72000, Note_on_c, 15, 54, 44
33, 72224, Note_on_c, 15, 54, 0
33, 72240, Note_on_c, 15, 52, 44
33, 72599, Note_on_c, 15, 52, 0
33, 72600, Note_on_c, 15, 50, 44
33, 72704, Note_on_c, 15, 50, 0
33, 72720, Note_on_c, 15, 50, 44
33, 73184, Note_on_c, 15, 50, 0
33, 73200, Note_on_c, 15, 52, 44
33, 73679, Note_on_c, 15, 52, 0
33, 73680, Note_on_c, 15, 54, 44
33, 73919, Note_on_c, 15, 54, 0
33, 73920, Note_on_c, 15, 50, 44
33, 74144, Note_on_c, 15, 50, 0
33, 74160, Note_on_c, 15, 52, 44
33, 74399, Note_on_c, 15, 52, 0
33, 74400, Note_on_c, 15, 54, 44
33, 74519, Note_on_c, 15, 54, 0
33, 74520, Note_on_c, 15, 55, 44
33, 74639, Note_on_c, 15, 55, 0
33, 74640, Note_on_c, 15, 54, 44
33, 74879, Note_on_c, 15, 54, 0
33, 74880, Note_on_c, 15, 50, 44
33, 75104, Note_on_c, 15, 50, 0
33, 75120, Note_on_c, 15, 52, 44
33, 75359, Note_on_c, 15, 52, 0
33, 75360, Note_on_c, 15, 54, 44
33, 75479, Note_on_c, 15, 54, 0
33, 75480, Note_on_c, 15, 55, 44
33, 75599, Note_on_c, 15, 55, 0
33, 75600, Note_on_c, 15, 54, 44
33, 75839, Note_on_c, 15, 54, 0
33, 75840, Note_on_c, 15, 52, 44
33, 76064, Note_on_c, 15, 52, 0
33, 76078, Control_c, 15, 11, 87
33, 76080, Control_c, 15, 11, 87
33, 76080, Note_on_c, 15, 50, 68
33, 76120, Control_c, 15, 11, 89
33, 76160, Control_c, 15, 11, 90
33, 76200, Control_c, 15, 11, 92
33, 76240, Control_c, 15, 11, 94
33, 76280, Control_c, 15, 11, 95
33, 76319, Note_on_c, 15, 50, 0
33, 76320, Note_on_c, 15, 52, 68
33, 76320, Control_c, 15, 11, 97
33, 76360, Control_c, 15, 11, 99
33, 76400, Control_c, 15, 11, 100
33, 76440, Control_c, 15, 11, 102
33, 76480, Control_c, 15, 11, 104
33, 76520, Control_c, 15, 11, 105
33, 76559, Note_on_c, 15, 52, 0
33, 76560, Note_on_c, 15, 45, 68
33, 76560, Control_c, 15, 11, 107
33, 76600, Control_c, 15, 11, 109
33, 76640, Control_c, 15, 11, 110
33, 76680, Control_c, 15, 11, 112
33, 76720, Control_c, 15, 11, 114
33, 76760, Control_c, 15, 11, 115
33, 76784, Note_on_c, 15, 45, 0
33, 76800, Control_c, 15, 11, 117
33, 76800, Note_on_c, 15, 54, 68
33, 76840, Control_c, 15, 11, 119
33, 76880, Control_c, 15, 11, 120
33, 76920, Control_c, 15, 11, 122
33, 76960, Control_c, 15, 11, 124
33, 77000, Control_c, 15, 11, 125
33, 77040, Control_c, 15, 11, 87
33, 77264, Note_on_c, 15, 54, 0
33, 77280, Note_on_c, 15, 54, 68
33, 77519, Note_on_c, 15, 54, 0
33, 77520, Note_on_c, 15, 55, 68
33, 77759, Note_on_c, 15, 55, 0
33, 77760, Note_on_c, 15, 57, 68
33, 77984, Note_on_c, 15, 57, 0
33, 78000, Note_on_c, 15, 57, 68
33, 78239, Note_on_c, 15, 57, 0
33, 78240, Note_on_c, 15, 55, 68
33, 78479, Note_on_c, 15, 55, 0
33, 78480, Note_on_c, 15, 54, 68
33, 78719, Note_on_c, 15, 54, 0
33, 78720, Note_on_c, 15, 52, 68
33, 78944, Note_on_c, 15, 52, 0
33, 78960, Note_on_c, 15, 50, 68
33, 79439, Note_on_c, 15, 50, 0
33, 79440, Note_on_c, 15, 52, 68
33, 79679, Note_on_c, 15, 52, 0
33, 79680, Note_on_c, 15, 54, 68
33, 79904, Note_on_c, 15, 54, 0
33, 79920, Note_on_c, 15, 52, 68
33, 80279, Note_on_c, 15, 52, 0
33, 80280, Note_on_c, 15, 50, 68
33, 80384, Note_on_c, 15, 50, 0
33, 80400, Note_on_c, 15, 50, 68
33, 80864, Note_on_c, 15, 50, 0
33, 80880, Note_on_c, 15, 52, 68
33, 81359, Note_on_c, 15, 52, 0
33, 81360, Note_on_c, 15, 54, 68
33, 81599, Note_on_c, 15, 54, 0
33, 81600, Note_on_c, 15, 50, 68
33, 81824, Note_on_c, 15, 50, 0
33, 81840, Note_on_c, 15, 52, 68
33, 82079, Note_on_c, 15, 52, 0
33, 82080, Note_on_c, 15, 54, 68
33, 82199, Note_on_c, 15, 54, 0
33, 82200, Note_on_c, 15, 55, 68
33, 82319, Note_on_c, 15, 55, 0
33, 82320, Note_on_c, 15, 54, 68
33, 82559, Note_on_c, 15, 54, 0
33, 82560, Note_on_c, 15, 50, 68
33, 82784, Note_on_c, 15, 50, 0
33, 82800, Note_on_c, 15, 52, 68
33, 83039, Note_on_c, 15, 52, 0
33, 83040, Note_on_c, 15, 54, 68
33, 83159, Note_on_c, 15, 54, 0
33, 83160, Note_on_c, 15, 55, 68
33, 83279, Note_on_c, 15, 55, 0
33, 83280, Note_on_c, 15, 54, 68
33, 83519, Note_on_c, 15, 54, 0
33, 83520, Note_on_c, 15, 52, 68
33, 83744, Note_on_c, 15, 52, 0
33, 83760, Control_c, 15, 11, 87
33, 83760, Note_on_c, 15, 50, 68
33, 83800, Control_c, 15, 11, 89
33, 83840, Control_c, 15, 11, 90
33, 83880, Control_c, 15, 11, 92
33, 83920, Control_c, 15, 11, 94
33, 83960, Control_c, 15, 11, 95
33, 83999, Note_on_c, 15, 50, 0
33, 84000, Control_c, 15, 11, 97
33, 84000, Note_on_c, 15, 52, 68
33, 84040, Control_c, 15, 11, 99
33, 84080, Control_c, 15, 11, 100
33, 84120, Control_c, 15, 11, 102
33, 84160, Control_c, 15, 11, 104
33, 84200, Control_c, 15, 11, 105
33, 84239, Note_on_c, 15, 52, 0
33, 84240, Control_c, 15, 11, 107
33, 84240, Note_on_c, 15, 45, 68
33, 84280, Control_c, 15, 11, 109
33, 84320, Control_c, 15, 11, 110
33, 84360, Control_c, 15, 11, 112
33, 84400, Control_c, 15, 11, 114
33, 84440, Control_c, 15, 11, 115
33, 84464, Note_on_c, 15, 45, 0
33, 84480, Note_on_c, 15, 54, 68
33, 84480, Control_c, 15, 11, 117
33, 84520, Control_c, 15, 11, 119
33, 84560, Control_c, 15, 11, 120
33, 84600, Control_c, 15, 11, 122
33, 84640, Control_c, 15, 11, 124
33, 84680, Control_c, 15, 11, 125
33, 84720, Control_c, 15, 11, 87
33, 84944, Note_on_c, 15, 54, 0
33, 84960, Note_on_c, 15, 54, 68
33, 85199, Note_on_c, 15, 54, 0
33, 85200, Note_on_c, 15, 55, 68
33, 85439, Note_on_c, 15, 55, 0
33, 85440, Note_on_c, 15, 57, 68
33, 85664, Note_on_c, 15, 57, 0
33, 85680, Note_on_c, 15, 57, 68
33, 85919, Note_on_c, 15, 57, 0
33, 85920, Note_on_c, 15, 55, 68
33, 86159, Note_on_c, 15, 55, 0
33, 86160, Note_on_c, 15, 54, 68
33, 86399, Note_on_c, 15, 54, 0
33, 86400, Note_on_c, 15, 52, 68
33, 86624, Note_on_c, 15, 52, 0
33, 86640, Note_on_c, 15, 50, 68
33, 87119, Note_on_c, 15, 50, 0
33, 87120, Note_on_c, 15, 52, 68
33, 87359, Note_on_c, 15, 52, 0
33, 87360, Note_on_c, 15, 54, 68
33, 87584, Note_on_c, 15, 54, 0
33, 87600, Note_on_c, 15, 52, 68
33, 87959, Note_on_c, 15, 52, 0
33, 87960, Note_on_c, 15, 50, 68
33, 88064, Note_on_c, 15, 50, 0
33, 88080, Note_on_c, 15, 50, 68
33, 88304, Note_on_c, 15, 50, 0
33, 88320, Note_on_c, 15, 57, 68
33, 88544, Note_on_c, 15, 57, 0
33, 88560, Note_on_c, 15, 66, 68
33, 89039, Note_on_c, 15, 66, 0
33, 89040, Note_on_c, 15, 67, 68
33, 89279, Note_on_c, 15, 67, 0
33, 89280, Note_on_c, 15, 69, 68
33, 89504, Note_on_c, 15, 69, 0
33, 89520, Note_on_c, 15, 69, 68
33, 89759, Note_on_c, 15, 69, 0
33, 89760, Note_on_c, 15, 67, 68
33, 89999, Note_on_c, 15, 67, 0
33, 90000, Note_on_c, 15, 66, 68
33, 90239, Note_on_c, 15, 66, 0
33, 90240, Note_on_c, 15, 64, 68
33, 90464, Note_on_c, 15, 64, 0
33, 90480, Note_on_c, 15, 62, 68
33, 90959, Note_on_c, 15, 62, 0
33, 90960, Note_on_c, 15, 64, 68
33, 91199, Note_on_c, 15, 64, 0
33, 91200, Note_on_c, 15, 66, 68
33, 91424, Note_on_c, 15, 66, 0
33, 91440, Note_on_c, 15, 66, 68
33, 91679, Note_on_c, 15, 66, 0
33, 91680, Note_on_c, 15, 64, 68
33, 91904, Note_on_c, 15, 64, 0
33, 91920, Note_on_c, 15, 64, 68
33, 92384, Note_on_c, 15, 64, 0
33, 92400, Note_on_c, 15, 66, 68
33, 92879, Note_on_c, 15, 66, 0
33, 92880, Note_on_c, 15, 67, 68
33, 93119, Note_on_c, 15, 67, 0
33, 93120, Note_on_c, 15, 69, 68
33, 93344, Note_on_c, 15, 69, 0
33, 93360, Note_on_c, 15, 69, 68
33, 93599, Note_on_c, 15, 69, 0
33, 93600, Note_on_c, 15, 67, 68
33, 93839, Note_on_c, 15, 67, 0
33, 93840, Note_on_c, 15, 66, 68
33, 94079, Note_on_c, 15, 66, 0
33, 94080, Note_on_c, 15, 64, 68
33, 94304, Note_on_c, 15, 64, 0
33, 94320, Note_on_c, 15, 62, 68
33, 94799, Note_on_c, 15, 62, 0
33, 94800, Note_on_c, 15, 64, 68
33, 95039, Note_on_c, 15, 64, 0
33, 95040, Note_on_c, 15, 66, 68
33, 95264, Note_on_c, 15, 66, 0
33, 95280, Note_on_c, 15, 64, 68
33, 95639, Note_on_c, 15, 64, 0
33, 95640, Note_on_c, 15, 62, 68
33, 95744, Note_on_c, 15, 62, 0
33, 95760, Note_on_c, 15, 62, 68
33, 96224, Note_on_c, 15, 62, 0
33, 96240, Note_on_c, 15, 64, 68
33, 96719, Note_on_c, 15, 64, 0
33, 96720, Note_on_c, 15, 66, 68
33, 96959, Note_on_c, 15, 66, 0
33, 96960, Note_on_c, 15, 62, 68
33, 97184, Note_on_c, 15, 62, 0
33, 97200, Note_on_c, 15, 64, 68
33, 97439, Note_on_c, 15, 64, 0
33, 97440, Note_on_c, 15, 66, 68
33, 97559, Note_on_c, 15, 66, 0
33, 97560, Note_on_c, 15, 67, 68
33, 97679, Note_on_c, 15, 67, 0
33, 97680, Note_on_c, 15, 66, 68
33, 97919, Note_on_c, 15, 66, 0
33, 97920, Note_on_c, 15, 62, 68
33, 98144, Note_on_c, 15, 62, 0
33, 98160, Note_on_c, 15, 64, 68
33, 98399, Note_on_c, 15, 64, 0
33, 98400, Note_on_c, 15, 66, 68
33, 98519, Note_on_c, 15, 66, 0
33, 98520, Note_on_c, 15, 67, 68
33, 98639, Note_on_c, 15, 67, 0
33, 98640, Note_on_c, 15, 66, 68
33, 98879, Note_on_c, 15, 66, 0
33, 98880, Note_on_c, 15, 64, 68
33, 99104, Note_on_c, 15, 64, 0
33, 99120, Control_c, 15, 11, 87
33, 99120, Note_on_c, 15, 62, 68
33, 99160, Control_c, 15, 11, 89
33, 99200, Control_c, 15, 11, 90
33, 99240, Control_c, 15, 11, 92
33, 99280, Control_c, 15, 11, 94
33, 99320, Control_c, 15, 11, 95
33, 99359, Note_on_c, 15, 62, 0
33, 99360, Control_c, 15, 11, 97
33, 99360, Note_on_c, 15, 64, 68
33, 99400, Control_c, 15, 11, 99
33, 99440, Control_c, 15, 11, 100
33, 99480, Control_c, 15, 11, 102
33, 99520, Control_c, 15, 11, 104
33, 99560, Control_c, 15, 11, 105
33, 99599, Note_on_c, 15, 64, 0
33, 99600, Control_c, 15, 11, 107
33, 99600, Note_on_c, 15, 57, 68
33, 99640, Control_c, 15, 11, 109
33, 99680, Control_c, 15, 11, 110
33, 99720, Control_c, 15, 11, 112
33, 99760, Control_c, 15, 11, 114
33, 99800, Control_c, 15, 11, 115
33, 99824, Note_on_c, 15, 57, 0
33, 99840, Control_c, 15, 11, 117
33, 99840, Note_on_c, 15, 66, 68
33, 99880, Control_c, 15, 11, 119
33, 99920, Control_c, 15, 11, 120
33, 99960, Control_c, 15, 11, 122
33, 100000, Control_c, 15, 11, 124
33, 100040, Control_c, 15, 11, 125
33, 100080, Control_c, 15, 11, 87
33, 100304, Note_on_c, 15, 66, 0
33, 100320, Note_on_c, 15, 66, 68
33, 100559, Note_on_c, 15, 66, 0
33, 100560, Note_on_c, 15, 67, 68
33, 100799, Note_on_c, 15, 67, 0
33, 100800, Note_on_c, 15, 69, 68
33, 101024, Note_on_c, 15, 69, 0
33, 101040, Note_on_c, 15, 69, 68
33, 101279, Note_on_c, 15, 69, 0
33, 101280, Note_on_c, 15, 67, 68
33, 101519, Note_on_c, 15, 67, 0
33, 101520, Note_on_c, 15, 66, 68
33, 101759, Note_on_c, 15, 66, 0
33, 101760, Note_on_c, 15, 64, 68
33, 101984, Note_on_c, 15, 64, 0
33, 102000, Note_on_c, 15, 62, 68
33, 102479, Note_on_c, 15, 62, 0
33, 102480, Note_on_c, 15, 64, 68
33, 102719, Note_on_c, 15, 64, 0
33, 102720, Note_on_c, 15, 66, 68
33, 102944, Note_on_c, 15, 66, 0
33, 102960, Note_on_c, 15, 64, 68
33, 103319, Note_on_c, 15, 64, 0
33, 103320, Note_on_c, 15, 62, 68
33, 103424, Note_on_c, 15, 62, 0
33, 103440, Note_on_c, 15, 62, 68
33, 103904, Note_on_c, 15, 62, 0
33, 103920, Note_on_c, 15, 64, 68
33, 104399, Note_on_c, 15, 64, 0
33, 104400, Note_on_c, 15, 66, 68
33, 104639, Note_on_c, 15, 66, 0
33, 104640, Note_on_c, 15, 62, 68
33, 104864, Note_on_c, 15, 62, 0
33, 104880, Note_on_c, 15, 64, 68
33, 105119, Note_on_c, 15, 64, 0
33, 105120, Note_on_c, 15, 66, 68
33, 105239, Note_on_c, 15, 66, 0
33, 105240, Note_on_c, 15, 67, 68
33, 105359, Note_on_c, 15, 67, 0
33, 105360, Note_on_c, 15, 66, 68
33, 105599, Note_on_c, 15, 66, 0
33, 105600, Note_on_c, 15, 62, 68
33, 105824, Note_on_c, 15, 62, 0
33, 105840, Note_on_c, 15, 64, 68
33, 106079, Note_on_c, 15, 64, 0
33, 106080, Note_on_c, 15, 66, 68
33, 106199, Note_on_c, 15, 66, 0
33, 106200, Note_on_c, 15, 67, 68
33, 106319, Note_on_c, 15, 67, 0
33, 106320, Note_on_c, 15, 66, 68
33, 106559, Note_on_c, 15, 66, 0
33, 106560, Note_on_c, 15, 64, 68
33, 106784, Note_on_c, 15, 64, 0
33, 106800, Control_c, 15, 11, 87
33, 106800, Note_on_c, 15, 62, 68
33, 106840, Control_c, 15, 11, 89
33, 106880, Control_c, 15, 11, 90
33, 106920, Control_c, 15, 11, 92
33, 106960, Control_c, 15, 11, 94
33, 107000, Control_c, 15, 11, 95
33, 107039, Note_on_c, 15, 62, 0
33, 107040, Note_on_c, 15, 64, 68
33, 107040, Control_c, 15, 11, 97
33, 107080, Control_c, 15, 11, 99
33, 107120, Control_c, 15, 11, 100
33, 107160, Control_c, 15, 11, 102
33, 107200, Control_c, 15, 11, 104
33, 107240, Control_c, 15, 11, 105
33, 107279, Note_on_c, 15, 64, 0
33, 107280, Note_on_c, 15, 57, 68
33, 107280, Control_c, 15, 11, 107
33, 107320, Control_c, 15, 11, 109
33, 107360, Control_c, 15, 11, 110
33, 107400, Control_c, 15, 11, 112
33, 107440, Control_c, 15, 11, 114
33, 107480, Control_c, 15, 11, 115
33, 107504, Note_on_c, 15, 57, 0
33, 107520, Note_on_c, 15, 66, 68
33, 107520, Control_c, 15, 11, 117
33, 107560, Control_c, 15, 11, 119
33, 107600, Control_c, 15, 11, 120
33, 107640, Control_c, 15, 11, 122
33, 107680, Control_c, 15, 11, 124
33, 107720, Control_c, 15, 11, 125
33, 107760, Control_c, 15, 11, 87
33, 107984, Note_on_c, 15, 66, 0
33, 108000, Note_on_c, 15, 66, 68
33, 108239, Note_on_c, 15, 66, 0
33, 108240, Note_on_c, 15, 67, 68
33, 108479, Note_on_c, 15, 67, 0
33, 108480, Note_on_c, 15, 69, 68
33, 108704, Note_on_c, 15, 69, 0
33, 108720, Note_on_c, 15, 69, 68
33, 108959, Note_on_c, 15, 69, 0
33, 108960, Note_on_c, 15, 67, 68
33, 109199, Note_on_c, 15, 67, 0
33, 109200, Note_on_c, 15, 66, 68
33, 109439, Note_on_c, 15, 66, 0
33, 109440, Note_on_c, 15, 64, 68
33, 109664, Note_on_c, 15, 64, 0
33, 109680, Note_on_c, 15, 62, 68
33, 110159, Note_on_c, 15, 62, 0
33, 110160, Note_on_c, 15, 64, 68
33, 110399, Note_on_c, 15, 64, 0
33, 110400, Note_on_c, 15, 66, 68
33, 110624, Note_on_c, 15, 66, 0
33, 110640, Note_on_c, 15, 64, 68
33, 110999, Note_on_c, 15, 64, 0
33, 111000, Note_on_c, 15, 62, 68
33, 111104, Note_on_c, 15, 62, 0
33, 111120, Note_on_c, 15, 62, 68
33, 111584, Note_on_c, 15, 62, 0
33, 111600, Note_on_c, 15, 69, 68
33, 112079, Note_on_c, 15, 69, 0
33, 112080, Note_on_c, 15, 62, 68
33, 112544, Note_on_c, 15, 62, 0
33, 112560, Note_on_c, 15, 59, 68
33, 112919, Note_on_c, 15, 59, 0
33, 112920, Note_on_c, 15, 61, 68
33, 113039, Note_on_c, 15, 61, 0
33, 113040, Note_on_c, 15, 62, 68
33, 113264, Note_on_c, 15, 62, 0
33, 113280, Note_on_c, 15, 67, 68
33, 113759, Note_on_c, 15, 67, 0
33, 113760, Note_on_c, 15, 66, 68
33, 113999, Note_on_c, 15, 66, 0
33, 114000, Note_on_c, 15, 64, 68
33, 114239, Note_on_c, 15, 64, 0
33, 114240, Note_on_c, 15, 62, 68
33, 114719, Note_on_c, 15, 62, 0
33, 114720, Note_on_c, 15, 61, 68
33, 114959, Note_on_c, 15, 61, 0
33, 114960, Note_on_c, 15, 59, 68
33, 115199, Note_on_c, 15, 59, 0
33, 115200, Note_on_c, 15, 57, 68
33, 115424, Note_on_c, 15, 57, 0
33, 115440, Note_on_c, 15, 69, 68
33, 115919, Note_on_c, 15, 69, 0
33, 115920, Note_on_c, 15, 62, 68
33, 116384, Note_on_c, 15, 62, 0
33, 116400, Note_on_c, 15, 59, 68
33, 116759, Note_on_c, 15, 59, 0
33, 116760, Note_on_c, 15, 61, 68
33, 116879, Note_on_c, 15, 61, 0
33, 116880, Note_on_c, 15, 62, 68
33, 117104, Note_on_c, 15, 62, 0
33, 117120, Note_on_c, 15, 67, 68
33, 117584, Note_on_c, 15, 67, 0
33, 117600, Note_on_c, 15, 66, 68
33, 117719, Note_on_c, 15, 66, 0
33, 117720, Note_on_c, 15, 64, 68
33, 117839, Note_on_c, 15, 64, 0
33, 117840, Note_on_c, 15, 62, 68
33, 117959, Note_on_c, 15, 62, 0
33, 117960, Note_on_c, 15, 61, 68
33, 118079, Note_on_c, 15, 61, 0
33, 118080, Note_on_c, 15, 59, 68
33, 118199, Note_on_c, 15, 59, 0
33, 118200, Note_on_c, 15, 57, 68
33, 118304, Note_on_c, 15, 57, 0
33, 118320, Note_on_c, 15, 55, 68
33, 118559, Note_on_c, 15, 55, 0
33, 118560, Note_on_c, 15, 57, 68
33, 118799, Note_on_c, 15, 57, 0
33, 118800, Note_on_c, 15, 54, 68
33, 119024, Note_on_c, 15, 54, 0
33, 119040, Note_on_c, 15, 66, 68
33, 119279, Note_on_c, 15, 66, 0
33, 119280, Note_on_c, 15, 67, 68
33, 119759, Note_on_c, 15, 67, 0
33, 119760, Note_on_c, 15, 69, 68
33, 119999, Note_on_c, 15, 69, 0
33, 120000, Note_on_c, 15, 59, 68
33, 120224, Note_on_c, 15, 59, 0
33, 120240, Note_on_c, 15, 61, 68
33, 120719, Note_on_c, 15, 61, 0
33, 120720, Note_on_c, 15, 62, 68
33, 120959, Note_on_c, 15, 62, 0
33, 120960, Note_on_c, 15, 64, 68
33, 121079, Note_on_c, 15, 64, 0
33, 121080, Note_on_c, 15, 66, 68
33, 121184, Note_on_c, 15, 66, 0
33, 121200, Note_on_c, 15, 67, 68
33, 121679, Note_on_c, 15, 67, 0
33, 121680, Note_on_c, 15, 69, 68
33, 121799, Note_on_c, 15, 69, 0
33, 121800, Note_on_c, 15, 57, 68
33, 121919, Note_on_c, 15, 57, 0
33, 121920, Note_on_c, 15, 58, 68
33, 122144, Note_on_c, 15, 58, 0
33, 122160, Control_c, 15, 11, 87
33, 122160, Note_on_c, 15, 59, 68
33, 122200, Control_c, 15, 11, 89
33, 122240, Control_c, 15, 11, 90
33, 122280, Control_c, 15, 11, 92
33, 122320, Control_c, 15, 11, 94
33, 122360, Control_c, 15, 11, 95
33, 122399, Note_on_c, 15, 59, 0
33, 122400, Control_c, 15, 11, 97
33, 122400, Note_on_c, 15, 61, 68
33, 122440, Control_c, 15, 11, 99
33, 122480, Control_c, 15, 11, 100
33, 122520, Control_c, 15, 11, 102
33, 122560, Control_c, 15, 11, 104
33, 122600, Control_c, 15, 11, 105
33, 122640, Control_c, 15, 11, 107
33, 122680, Control_c, 15, 11, 109
33, 122720, Control_c, 15, 11, 110
33, 122760, Control_c, 15, 11, 112
33, 122800, Control_c, 15, 11, 114
33, 122840, Control_c, 15, 11, 115
33, 122879, Note_on_c, 15, 61, 0
33, 122880, Control_c, 15, 11, 117
33, 122880, Note_on_c, 15, 62, 68
33, 122920, Control_c, 15, 11, 119
33, 122960, Control_c, 15, 11, 120
33, 123000, Control_c, 15, 11, 122
33, 123040, Control_c, 15, 11, 124
33, 123080, Control_c, 15, 11, 125
33, 123104, Note_on_c, 15, 62, 0
33, 123118, Control_c, 15, 11, 67
33, 123120, Note_on_c, 15, 69, 80
33, 123599, Note_on_c, 15, 69, 0
33, 123600, Note_on_c, 15, 60, 80
33, 124064, Note_on_c, 15, 60, 0
33, 124080, Note_on_c, 15, 59, 80
33, 124439, Note_on_c, 15, 59, 0
33, 124440, Note_on_c, 15, 61, 80
33, 124559, Note_on_c, 15, 61, 0
33, 124560, Note_on_c, 15, 62, 80
33, 124784, Note_on_c, 15, 62, 0
33, 124800, Note_on_c, 15, 67, 80
33, 125264, Note_on_c, 15, 67, 0
33, 125280, Note_on_c, 15, 66, 80
33, 125399, Note_on_c, 15, 66, 0
33, 125400, Note_on_c, 15, 64, 80
33, 125519, Note_on_c, 15, 64, 0
33, 125520, Note_on_c, 15, 62, 80
33, 125639, Note_on_c, 15, 62, 0
33, 125640, Note_on_c, 15, 61, 80
33, 125759, Note_on_c, 15, 61, 0
33, 125760, Note_on_c, 15, 59, 80
33, 125879, Note_on_c, 15, 59, 0
33, 125880, Note_on_c, 15, 57, 80
33, 125984, Note_on_c, 15, 57, 0
33, 126000, Note_on_c, 15, 55, 80
33, 126239, Note_on_c, 15, 55, 0
33, 126240, Note_on_c, 15, 57, 80
33, 126479, Note_on_c, 15, 57, 0
33, 126480, Note_on_c, 15, 54, 80
33, 126704, Note_on_c, 15, 54, 0
33, 126720, Note_on_c, 15, 66, 80
33, 126959, Note_on_c, 15, 66, 0
33, 126960, Control_c, 15, 11, 67
33, 126960, Note_on_c, 15, 67, 80
33, 127088, Control_c, 15, 11, 68
33, 127216, Control_c, 15, 11, 69
33, 127344, Control_c, 15, 11, 70
33, 127439, Note_on_c, 15, 67, 0
33, 127440, Note_on_c, 15, 69, 80
33, 127472, Control_c, 15, 11, 71
33, 127600, Control_c, 15, 11, 72
33, 127679, Note_on_c, 15, 69, 0
33, 127680, Note_on_c, 15, 59, 80
33, 127728, Control_c, 15, 11, 73
33, 127856, Control_c, 15, 11, 74
33, 127904, Note_on_c, 15, 59, 0
33, 127920, Note_on_c, 15, 61, 80
33, 127984, Control_c, 15, 11, 75
33, 128112, Control_c, 15, 11, 76
33, 128240, Control_c, 15, 11, 77
33, 128368, Control_c, 15, 11, 78
33, 128399, Note_on_c, 15, 61, 0
33, 128400, Note_on_c, 15, 62, 80
33, 128496, Control_c, 15, 11, 79
33, 128624, Control_c, 15, 11, 80
33, 128639, Note_on_c, 15, 62, 0
33, 128640, Note_on_c, 15, 64, 80
33, 128752, Control_c, 15, 11, 81
33, 128759, Note_on_c, 15, 64, 0
33, 128760, Note_on_c, 15, 66, 80
33, 128864, Note_on_c, 15, 66, 0
33, 128880, Note_on_c, 15, 67, 80
33, 128880, Control_c, 15, 11, 82
33, 129008, Control_c, 15, 11, 83
33, 129136, Control_c, 15, 11, 84
33, 129264, Control_c, 15, 11, 85
33, 129359, Note_on_c, 15, 67, 0
33, 129360, Note_on_c, 15, 69, 80
33, 129392, Control_c, 15, 11, 86
33, 129479, Note_on_c, 15, 69, 0
33, 129480, Note_on_c, 15, 57, 80
33, 129520, Control_c, 15, 11, 87
33, 129599, Note_on_c, 15, 57, 0
33, 129600, Note_on_c, 15, 58, 80
33, 129648, Control_c, 15, 11, 88
33, 129776, Control_c, 15, 11, 89
33, 129824, Note_on_c, 15, 58, 0
33, 129840, Note_on_c, 15, 59, 80
33, 129904, Control_c, 15, 11, 90
33, 130032, Control_c, 15, 11, 91
33, 130079, Note_on_c, 15, 59, 0
33, 130080, Note_on_c, 15, 61, 80
33, 130160, Control_c, 15, 11, 92
33, 130288, Control_c, 15, 11, 93
33, 130416, Control_c, 15, 11, 94
33, 130544, Control_c, 15, 11, 95
33, 130559, Note_on_c, 15, 61, 0
33, 130560, Note_on_c, 15, 62, 80
33, 130672, Control_c, 15, 11, 96
33, 130784, Note_on_c, 15, 62, 0
33, 130800, Note_on_c, 15, 69, 80
33, 130800, Control_c, 15, 11, 97
33, 130928, Control_c, 15, 11, 98
33, 131056, Control_c, 15, 11, 99
33, 131184, Control_c, 15, 11, 100
33, 131279, Note_on_c, 15, 69, 0
33, 131280, Note_on_c, 15, 60, 80
33, 131312, Control_c, 15, 11, 101
33, 131440, Control_c, 15, 11, 102
33, 131568, Control_c, 15, 11, 103
33, 131696, Control_c, 15, 11, 104
33, 131744, Note_on_c, 15, 60, 0
33, 131760, Note_on_c, 15, 59, 80
33, 131824, Control_c, 15, 11, 105
33, 131952, Control_c, 15, 11, 106
33, 132080, Control_c, 15, 11, 107
33, 132119, Note_on_c, 15, 59, 0
33, 132120, Note_on_c, 15, 61, 80
33, 132208, Control_c, 15, 11, 108
33, 132239, Note_on_c, 15, 61, 0
33, 132240, Note_on_c, 15, 62, 80
33, 132336, Control_c, 15, 11, 109
33, 132464, Note_on_c, 15, 62, 0
33, 132464, Control_c, 15, 11, 110
33, 132480, Note_on_c, 15, 67, 80
33, 132592, Control_c, 15, 11, 111
33, 132720, Control_c, 15, 11, 112
33, 132848, Control_c, 15, 11, 113
33, 132944, Note_on_c, 15, 67, 0
33, 132960, Note_on_c, 15, 66, 80
33, 132976, Control_c, 15, 11, 114
33, 133079, Note_on_c, 15, 66, 0
33, 133080, Note_on_c, 15, 64, 80
33, 133104, Control_c, 15, 11, 115
33, 133199, Note_on_c, 15, 64, 0
33, 133200, Note_on_c, 15, 62, 80
33, 133232, Control_c, 15, 11, 116
33, 133319, Note_on_c, 15, 62, 0
33, 133320, Note_on_c, 15, 61, 80
33, 133360, Control_c, 15, 11, 117
33, 133439, Note_on_c, 15, 61, 0
33, 133440, Note_on_c, 15, 59, 80
33, 133488, Control_c, 15, 11, 118
33, 133559, Note_on_c, 15, 59, 0
33, 133560, Note_on_c, 15, 57, 80
33, 133616, Control_c, 15, 11, 119
33, 133664, Note_on_c, 15, 57, 0
33, 133680, Note_on_c, 15, 55, 80
33, 133744, Control_c, 15, 11, 120
33, 133872, Control_c, 15, 11, 121
33, 133919, Note_on_c, 15, 55, 0
33, 133920, Note_on_c, 15, 57, 80
33, 134000, Control_c, 15, 11, 122
33, 134128, Control_c, 15, 11, 123
33, 134159, Note_on_c, 15, 57, 0
33, 134160, Note_on_c, 15, 54, 80
33, 134256, Control_c, 15, 11, 124
33, 134279, Note_on_c, 15, 54, 0
33, 134280, Note_on_c, 15, 55, 80
33, 134384, Control_c, 15, 11, 125
33, 134399, Note_on_c, 15, 55, 0
33, 134400, Note_on_c, 15, 54, 80
33, 134512, Control_c, 15, 11, 127
33, 134519, Note_on_c, 15, 54, 0
33, 134520, Note_on_c, 15, 52, 80
33, 134624, Note_on_c, 15, 52, 0
33, 134640, Note_on_c, 15, 62, 80
33, 134879, Note_on_c, 15, 62, 0
33, 135000, Note_on_c, 15, 50, 80
33, 135104, Note_on_c, 15, 50, 0
33, 135120, Note_on_c, 15, 62, 80
33, 135359, Note_on_c, 15, 62, 0
33, 135480, Note_on_c, 15, 50, 80
33, 135584, Note_on_c, 15, 50, 0
33, 135600, Note_on_c, 15, 57, 80
33, 135839, Note_on_c, 15, 57, 0
33, 135960, Note_on_c, 15, 45, 80
33, 136064, Note_on_c, 15, 45, 0
33, 136080, Note_on_c, 15, 57, 80
33, 136319, Note_on_c, 15, 57, 0
33, 136440, Note_on_c, 15, 45, 80
33, 136544, Note_on_c, 15, 45, 0
33, 136560, Note_on_c, 15, 50, 80
33, 136799, Note_on_c, 15, 50, 0
33, 137280, Note_on_c, 15, 50, 80
33, 137504, Note_on_c, 15, 50, 0
33, 137520, Note_on_c, 15, 57, 80
33, 137759, Note_on_c, 15, 57, 0
33, 138000, Note_on_c, 15, 45, 80
33, 138239, Note_on_c, 15, 45, 0
33, 138480, Note_on_c, 15, 62, 80
33, 138719, Note_on_c, 15, 62, 0
33, 138840, Note_on_c, 15, 50, 80
33, 138944, Note_on_c, 15, 50, 0
33, 138960, Note_on_c, 15, 62, 80
33, 139199, Note_on_c, 15, 62, 0
33, 139320, Note_on_c, 15, 50, 80
33, 139424, Note_on_c, 15, 50, 0
33, 139440, Note_on_c, 15, 57, 80
33, 139679, Note_on_c, 15, 57, 0
33, 139800, Note_on_c, 15, 45, 80
33, 139904, Note_on_c, 15, 45, 0
33, 139920, Note_on_c, 15, 57, 80
33, 140159, Note_on_c, 15, 57, 0
33, 140280, Note_on_c, 15, 45, 80
33, 140384, Note_on_c, 15, 45, 0
33, 140400, Note_on_c, 15, 50, 80
33, 140639, Note_on_c, 15, 50, 0
33, 141120, Note_on_c, 15, 50, 80
33, 141344, Note_on_c, 15, 50, 0
33, 141360, Note_on_c, 15, 45, 80
33, 141599, Note_on_c, 15, 45, 0
33, 141840, Note_on_c, 15, 50, 80
33, 142079, Note_on_c, 15, 50, 0
33, 142320, Note_on_c, 15, 45, 80
33, 142559, Note_on_c, 15, 45, 0
33, 142680, Note_on_c, 15, 45, 80
33, 142784, Note_on_c, 15, 45, 0
33, 142800, Note_on_c, 15, 57, 80
33, 143024, Note_on_c, 15, 57, 0
33, 143040, Note_on_c, 15, 50, 80
33, 143264, Note_on_c, 15, 50, 0
33, 143280, Note_on_c, 15, 45, 80
33, 143519, Note_on_c, 15, 45, 0
33, 143640, Note_on_c, 15, 45, 80
33, 143744, Note_on_c, 15, 45, 0
33, 143760, Note_on_c, 15, 57, 80
33, 143984, Note_on_c, 15, 57, 0
33, 144000, Note_on_c, 15, 50, 80
33, 144224, Note_on_c, 15, 50, 0
33, 144240, Note_on_c, 15, 45, 80
33, 144479, Note_on_c, 15, 45, 0
33, 144600, Note_on_c, 15, 57, 80
33, 144704, Note_on_c, 15, 57, 0
33, 144720, Note_on_c, 15, 58, 80
33, 144839, Note_on_c, 15, 58, 0
33, 144960, Note_on_c, 15, 54, 80
33, 145079, Note_on_c, 15, 54, 0
33, 145200, Note_on_c, 15, 59, 80
33, 145319, Note_on_c, 15, 59, 0
33, 145440, Note_on_c, 15, 52, 80
33, 145559, Note_on_c, 15, 52, 0
33, 145680, Note_on_c, 15, 57, 80
33, 145799, Note_on_c, 15, 57, 0
33, 145920, Note_on_c, 15, 45, 80
33, 146039, Note_on_c, 15, 45, 0
33, 146160, Note_on_c, 15, 62, 80
33, 146399, Note_on_c, 15, 62, 0
33, 146520, Note_on_c, 15, 50, 80
33, 146624, Note_on_c, 15, 50, 0
33, 146640, Note_on_c, 15, 62, 80
33, 146879, Note_on_c, 15, 62, 0
33, 147000, Note_on_c, 15, 50, 80
33, 147104, Note_on_c, 15, 50, 0
33, 147120, Note_on_c, 15, 57, 80
33, 147359, Note_on_c, 15, 57, 0
33, 147480, Note_on_c, 15, 45, 80
33, 147584, Note_on_c, 15, 45, 0
33, 147600, Note_on_c, 15, 57, 80
33, 147839, Note_on_c, 15, 57, 0
33, 147960, Note_on_c, 15, 45, 80
33, 148064, Note_on_c, 15, 45, 0
33, 148080, Note_on_c, 15, 50, 80
33, 148319, Note_on_c, 15, 50, 0
33, 148800, Note_on_c, 15, 50, 80
33, 149024, Note_on_c, 15, 50, 0
33, 149040, Note_on_c, 15, 45, 80
33, 149279, Note_on_c, 15, 45, 0
33, 149520, Note_on_c, 15, 50, 80
33, 149759, Note_on_c, 15, 50, 0
33, 150000, Note_on_c, 15, 45, 80
33, 150239, Note_on_c, 15, 45, 0
33, 150360, Note_on_c, 15, 45, 80
33, 150464, Note_on_c, 15, 45, 0
33, 150480, Note_on_c, 15, 57, 80
33, 150704, Note_on_c, 15, 57, 0
33, 150720, Note_on_c, 15, 50, 80
33, 150944, Note_on_c, 15, 50, 0
33, 150960, Note_on_c, 15, 45, 80
33, 151199, Note_on_c, 15, 45, 0
33, 151320, Note_on_c, 15, 45, 80
33, 151424, Note_on_c, 15, 45, 0
33, 151440, Note_on_c, 15, 57, 80
33, 151664, Note_on_c, 15, 57, 0
33, 151680, Note_on_c, 15, 50, 80
33, 151904, Note_on_c, 15, 50, 0
33, 151920, Note_on_c, 15, 45, 80
33, 152159, Note_on_c, 15, 45, 0
33, 152280, Note_on_c, 15, 57, 80
33, 152384, Note_on_c, 15, 57, 0
33, 152400, Note_on_c, 15, 58, 80
33, 152519, Note_on_c, 15, 58, 0
33, 152640, Note_on_c, 15, 54, 80
33, 152759, Note_on_c, 15, 54, 0
33, 152880, Note_on_c, 15, 59, 80
33, 152999, Note_on_c, 15, 59, 0
33, 153120, Note_on_c, 15, 52, 80
33, 153239, Note_on_c, 15, 52, 0
33, 153360, Note_on_c, 15, 57, 80
33, 153479, Note_on_c, 15, 57, 0
33, 153600, Note_on_c, 15, 45, 80
33, 153719, Note_on_c, 15, 45, 0
33, 153840, Note_on_c, 15, 62, 80
33, 154079, Note_on_c, 15, 62, 0
33, 154200, Note_on_c, 15, 50, 80
33, 154304, Note_on_c, 15, 50, 0
33, 154320, Note_on_c, 15, 62, 80
33, 154559, Note_on_c, 15, 62, 0
33, 154680, Note_on_c, 15, 50, 80
33, 154784, Note_on_c, 15, 50, 0
33, 154800, Note_on_c, 15, 57, 80
33, 155039, Note_on_c, 15, 57, 0
33, 155160, Note_on_c, 15, 45, 80
33, 155264, Note_on_c, 15, 45, 0
33, 155280, Note_on_c, 15, 57, 80
33, 155519, Note_on_c, 15, 57, 0
33, 155640, Note_on_c, 15, 45, 80
33, 155744, Note_on_c, 15, 45, 0
33, 155760, Note_on_c, 15, 50, 80
33, 155999, Note_on_c, 15, 50, 0
33, 156480, Note_on_c, 15, 50, 80
33, 156704, Note_on_c, 15, 50, 0
33, 156720, Note_on_c, 15, 45, 80
33, 156959, Note_on_c, 15, 45, 0
33, 157200, Note_on_c, 15, 50, 80
33, 157439, Note_on_c, 15, 50, 0
33, 157560, Note_on_c, 15, 50, 80
33, 157664, Note_on_c, 15, 50, 0
33, 157680, Note_on_c, 15, 62, 80
33, 157919, Note_on_c, 15, 62, 0
33, 158040, Note_on_c, 15, 50, 80
33, 158144, Note_on_c, 15, 50, 0
33, 158160, Note_on_c, 15, 62, 80
33, 158399, Note_on_c, 15, 62, 0
33, 158520, Note_on_c, 15, 50, 80
33, 158624, Note_on_c, 15, 50, 0
33, 158640, Note_on_c, 15, 55, 80
33, 158879, Note_on_c, 15, 55, 0
33, 159000, Note_on_c, 15, 43, 80
33, 159104, Note_on_c, 15, 43, 0
33, 159120, Note_on_c, 15, 55, 80
33, 159359, Note_on_c, 15, 55, 0
33, 159480, Note_on_c, 15, 55, 80
33, 159584, Note_on_c, 15, 55, 0
33, 159600, Note_on_c, 15, 67, 80
33, 159839, Note_on_c, 15, 67, 0
33, 159960, Note_on_c, 15, 55, 80
33, 160064, Note_on_c, 15, 55, 0
33, 160080, Note_on_c, 15, 69, 80
33, 160319, Note_on_c, 15, 69, 0
33, 160440, Note_on_c, 15, 57, 80
33, 160544, Note_on_c, 15, 57, 0
33, 160560, Note_on_c, 15, 62, 80
33, 160799, Note_on_c, 15, 62, 0
33, 160920, Note_on_c, 15, 50, 80
33, 161024, Note_on_c, 15, 50, 0
33, 161040, Note_on_c, 15, 66, 80
33, 161279, Note_on_c, 15, 66, 0
33, 161400, Note_on_c, 15, 54, 80
33, 161504, Note_on_c, 15, 54, 0
33, 161520, Note_on_c, 15, 67, 80
33, 161759, Note_on_c, 15, 67, 0
33, 161880, Note_on_c, 15, 55, 80
33, 161984, Note_on_c, 15, 55, 0
33, 162000, Note_on_c, 15, 69, 80
33, 162239, Note_on_c, 15, 69, 0
33, 162360, Note_on_c, 15, 57, 80
33, 162464, Note_on_c, 15, 57, 0
33, 162480, Note_on_c, 15, 58, 80
33, 162719, Note_on_c, 15, 58, 0
33, 162840, Note_on_c, 15, 46, 80
33, 162944, Note_on_c, 15, 46, 0
33, 162960, Note_on_c, 15, 59, 80
33, 163199, Note_on_c, 15, 59, 0
33, 163320, Note_on_c, 15, 47, 80
33, 163424, Note_on_c, 15, 47, 0
33, 163440, Note_on_c, 15, 60, 80
33, 163679, Note_on_c, 15, 60, 0
33, 163800, Note_on_c, 15, 48, 80
33, 163904, Note_on_c, 15, 48, 0
33, 163920, Note_on_c, 15, 61, 80
33, 164159, Note_on_c, 15, 61, 0
33, 164280, Note_on_c, 15, 49, 80
33, 164384, Note_on_c, 15, 49, 0
33, 164400, Note_on_c, 15, 61, 80
33, 164639, Note_on_c, 15, 61, 0
33, 164760, Note_on_c, 15, 49, 80
33, 164864, Note_on_c, 15, 49, 0
33, 164880, Note_on_c, 15, 62, 80
33, 165119, Note_on_c, 15, 62, 0
33, 165240, Note_on_c, 15, 63, 80
33, 165344, Note_on_c, 15, 63, 0
33, 165360, Note_on_c, 15, 64, 80
33, 165599, Note_on_c, 15, 64, 0
33, 165720, Note_on_c, 15, 65, 80
33, 165824, Note_on_c, 15, 65, 0
33, 165840, Note_on_c, 15, 66, 80
33, 166079, Note_on_c, 15, 66, 0
33, 166200, Note_on_c, 15, 66, 80
33, 166304, Note_on_c, 15, 66, 0
33, 166320, Note_on_c, 15, 68, 80
33, 166559, Note_on_c, 15, 68, 0
33, 166680, Note_on_c, 15, 56, 80
33, 166784, Note_on_c, 15, 56, 0
33, 166800, Note_on_c, 15, 68, 80
33, 167039, Note_on_c, 15, 68, 0
33, 167160, Note_on_c, 15, 56, 80
33, 167264, Note_on_c, 15, 56, 0
33, 167280, Note_on_c, 15, 68, 80
33, 167519, Note_on_c, 15, 68, 0
33, 167640, Note_on_c, 15, 56, 80
33, 167744, Note_on_c, 15, 56, 0
33, 167760, Note_on_c, 15, 68, 80
33, 167999, Note_on_c, 15, 68, 0
33, 168120, Note_on_c, 15, 56, 80
33, 168224, Note_on_c, 15, 56, 0
33, 168240, Note_on_c, 15, 57, 80
33, 168599, Note_on_c, 15, 57, 0
33, 168600, Note_on_c, 15, 59, 80
33, 168659, Note_on_c, 15, 59, 0
33, 168660, Note_on_c, 15, 61, 80
33, 168711, Note_on_c, 15, 61, 0
33, 168720, Note_on_c, 15, 62, 80
33, 169079, Note_on_c, 15, 62, 0
33, 169080, Note_on_c, 15, 61, 80
33, 169139, Note_on_c, 15, 61, 0
33, 169140, Note_on_c, 15, 59, 80
33, 169191, Note_on_c, 15, 59, 0
33, 169200, Note_on_c, 15, 61, 80
33, 169319, Note_on_c, 15, 61, 0
33, 169320, Note_on_c, 15, 59, 80
33, 169379, Note_on_c, 15, 59, 0
33, 169380, Note_on_c, 15, 57, 80
33, 169431, Note_on_c, 15, 57, 0
33, 169440, Note_on_c, 15, 55, 80
33, 169529, Note_on_c, 15, 55, 0
33, 169560, Note_on_c, 15, 54, 80
33, 169649, Note_on_c, 15, 54, 0
33, 169680, Note_on_c, 15, 54, 80
33, 169769, Note_on_c, 15, 54, 0
33, 169800, Note_on_c, 15, 53, 80
33, 169889, Note_on_c, 15, 53, 0
33, 169920, Note_on_c, 15, 52, 80
33, 170009, Note_on_c, 15, 52, 0
33, 170040, Note_on_c, 15, 52, 80
33, 170129, Note_on_c, 15, 52, 0
33, 170160, Note_on_c, 15, 57, 92
33, 170219, Note_on_c, 15, 57, 0
33, 170220, Note_on_c, 15, 57, 80
33, 170624, Note_on_c, 15, 57, 0
33, 170640, Note_on_c, 15, 52, 80
33, 170819, Note_on_c, 15, 52, 0
33, 170880, Note_on_c, 15, 52, 80
33, 171059, Note_on_c, 15, 52, 0
33, 171120, Note_on_c, 15, 45, 80
33, 171209, Note_on_c, 15, 45, 0
33, 171240, Note_on_c, 15, 45, 80
33, 171299, Note_on_c, 15, 45, 0
33, 171300, Note_on_c, 15, 47, 80
33, 171351, Note_on_c, 15, 47, 0
33, 171360, Note_on_c, 15, 49, 80
33, 171449, Note_on_c, 15, 49, 0
33, 171480, Note_on_c, 15, 49, 80
33, 171539, Note_on_c, 15, 49, 0
33, 171540, Note_on_c, 15, 50, 80
33, 171591, Note_on_c, 15, 50, 0
33, 171600, Note_on_c, 15, 52, 80
33, 171689, Note_on_c, 15, 52, 0
33, 171720, Note_on_c, 15, 52, 80
33, 171779, Note_on_c, 15, 52, 0
33, 171780, Note_on_c, 15, 54, 80
33, 171831, Note_on_c, 15, 54, 0
33, 171840, Note_on_c, 15, 56, 80
33, 171929, Note_on_c, 15, 56, 0
33, 171960, Note_on_c, 15, 52, 80
33, 171999, Note_on_c, 15, 52, 0
33, 172000, Note_on_c, 15, 54, 80
33, 172039, Note_on_c, 15, 54, 0
33, 172040, Note_on_c, 15, 56, 80
33, 172073, Note_on_c, 15, 56, 0
33, 173760, Note_on_c, 15, 54, 44
33, 174344, Note_on_c, 15, 54, 0
33, 174360, Note_on_c, 15, 56, 44
33, 174464, Note_on_c, 15, 56, 0
33, 174480, Note_on_c, 15, 58, 44
33, 174704, Note_on_c, 15, 58, 0
33, 174720, Note_on_c, 15, 56, 44
33, 174824, Note_on_c, 15, 56, 0
33, 174840, Note_on_c, 15, 56, 80
33, 174944, Note_on_c, 15, 56, 0
33, 174960, Note_on_c, 15, 57, 80
33, 175079, Note_on_c, 15, 57, 0
33, 175080, Note_on_c, 15, 61, 80
33, 175184, Note_on_c, 15, 61, 0
33, 175200, Note_on_c, 15, 66, 80
33, 175289, Note_on_c, 15, 66, 0
33, 175320, Note_on_c, 15, 63, 80
33, 175409, Note_on_c, 15, 63, 0
33, 175440, Note_on_c, 15, 64, 80
33, 175679, Note_on_c, 15, 64, 0
33, 175680, Note_on_c, 15, 52, 80
33, 175919, Note_on_c, 15, 52, 0
33, 176160, Note_on_c, 15, 52, 80
33, 176339, Note_on_c, 15, 52, 0
33, 176640, Note_on_c, 15, 57, 80
33, 176819, Note_on_c, 15, 57, 0
33, 177360, Note_on_c, 15, 41, 92
33, 177939, Note_on_c, 15, 41, 0
33, 177960, Note_on_c, 15, 57, 92
33, 178049, Note_on_c, 15, 57, 0
33, 178080, Note_on_c, 15, 57, 92
33, 178169, Note_on_c, 15, 57, 0
33, 178200, Note_on_c, 15, 62, 92
33, 178289, Note_on_c, 15, 62, 0
33, 178320, Note_on_c, 15, 62, 92
33, 178409, Note_on_c, 15, 62, 0
33, 178440, Note_on_c, 15, 53, 92
33, 178529, Note_on_c, 15, 53, 0
33, 178560, Note_on_c, 15, 53, 92
33, 178649, Note_on_c, 15, 53, 0
33, 178680, Note_on_c, 15, 57, 92
33, 178769, Note_on_c, 15, 57, 0
33, 178800, Note_on_c, 15, 57, 92
33, 178889, Note_on_c, 15, 57, 0
33, 178920, Note_on_c, 15, 50, 92
33, 179009, Note_on_c, 15, 50, 0
33, 179040, Note_on_c, 15, 50, 92
33, 179129, Note_on_c, 15, 50, 0
33, 179160, Note_on_c, 15, 65, 92
33, 179249, Note_on_c, 15, 65, 0
33, 179280, Note_on_c, 15, 65, 92
33, 179369, Note_on_c, 15, 65, 0
33, 179400, Note_on_c, 15, 57, 92
33, 179489, Note_on_c, 15, 57, 0
33, 179520, Note_on_c, 15, 57, 92
33, 179609, Note_on_c, 15, 57, 0
33, 179640, Note_on_c, 15, 62, 92
33, 179729, Note_on_c, 15, 62, 0
33, 179760, Note_on_c, 15, 62, 92
33, 179849, Note_on_c, 15, 62, 0
33, 179880, Note_on_c, 15, 53, 92
33, 179969, Note_on_c, 15, 53, 0
33, 180000, Note_on_c, 15, 53, 92
33, 180089, Note_on_c, 15, 53, 0
33, 180120, Note_on_c, 15, 57, 92
33, 180209, Note_on_c, 15, 57, 0
33, 180240, Note_on_c, 15, 57, 92
33, 180329, Note_on_c, 15, 57, 0
33, 180360, Note_on_c, 15, 50, 92
33, 180449, Note_on_c, 15, 50, 0
33, 180480, Note_on_c, 15, 50, 92
33, 180569, Note_on_c, 15, 50, 0
33, 180600, Note_on_c, 15, 62, 92
33, 180689, Note_on_c, 15, 62, 0
33, 180720, Note_on_c, 15, 62, 92
33, 180809, Note_on_c, 15, 62, 0
33, 180840, Note_on_c, 15, 60, 92
33, 180929, Note_on_c, 15, 60, 0
33, 180960, Note_on_c, 15, 60, 92
33, 181049, Note_on_c, 15, 60, 0
33, 181080, Note_on_c, 15, 59, 92
33, 181169, Note_on_c, 15, 59, 0
33, 181200, Note_on_c, 15, 59, 92
33, 181289, Note_on_c, 15, 59, 0
33, 181320, Note_on_c, 15, 58, 92
33, 181409, Note_on_c, 15, 58, 0
33, 181440, Note_on_c, 15, 58, 92
33, 181529, Note_on_c, 15, 58, 0
33, 181560, Note_on_c, 15, 46, 92
33, 181649, Note_on_c, 15, 46, 0
33, 181680, Note_on_c, 15, 46, 92
33, 181769, Note_on_c, 15, 46, 0
33, 181800, Note_on_c, 15, 46, 92
33, 181889, Note_on_c, 15, 46, 0
33, 181920, Note_on_c, 15, 46, 92
33, 182099, Note_on_c, 15, 46, 0
33, 182160, Note_on_c, 15, 45, 92
33, 182339, Note_on_c, 15, 45, 0
33, 186480, Note_on_c, 15, 62, 44
33, 186719, Note_on_c, 15, 62, 0
33, 186720, Note_on_c, 15, 60, 44
33, 187199, Note_on_c, 15, 60, 0
33, 187200, Note_on_c, 15, 59, 44
33, 187439, Note_on_c, 15, 59, 0
33, 187440, Note_on_c, 15, 53, 44
33, 187919, Note_on_c, 15, 53, 0
33, 187920, Note_on_c, 15, 52, 44
33, 188399, Note_on_c, 15, 52, 0
33, 188400, Note_on_c, 15, 52, 44
33, 189119, Note_on_c, 15, 52, 0
33, 189120, Note_on_c, 15, 52, 44
33, 189839, Note_on_c, 15, 52, 0
33, 189840, Note_on_c, 15, 52, 44
33, 190559, Note_on_c, 15, 52, 0
33, 190560, Note_on_c, 15, 52, 44
33, 191279, Note_on_c, 15, 52, 0
33, 191280, Note_on_c, 15, 52, 44
33, 191999, Note_on_c, 15, 52, 0
33, 192480, Note_on_c, 15, 55, 80
33, 192659, Note_on_c, 15, 55, 0
33, 192720, Note_on_c, 15, 54, 80
33, 192824, Note_on_c, 15, 54, 0
33, 192840, Note_on_c, 15, 54, 80
33, 192944, Note_on_c, 15, 54, 0
33, 192960, Note_on_c, 15, 66, 80
33, 193199, Note_on_c, 15, 66, 0
33, 195840, Note_on_c, 15, 55, 44
33, 195959, Note_on_c, 15, 55, 0
33, 196080, Note_on_c, 15, 67, 80
33, 196199, Note_on_c, 15, 67, 0
33, 197520, Note_on_c, 15, 57, 80
33, 197699, Note_on_c, 15, 57, 0
33, 198720, Program_c, 15, 45
33, 199200, Note_on_c, 15, 45, 56
33, 199439, Note_on_c, 15, 45, 0
33, 199440, Note_on_c, 15, 45, 56
33, 199679, Note_on_c, 15, 45, 0
33, 201120, Note_on_c, 15, 45, 56
33, 201359, Note_on_c, 15, 45, 0
33, 201360, Note_on_c, 15, 45, 56
33, 201599, Note_on_c, 15, 45, 0
33, 201600, Note_on_c, 15, 54, 40
33, 201839, Note_on_c, 15, 54, 0
33, 201840, Note_on_c, 15, 54, 40
33, 202079, Note_on_c, 15, 54, 0
33, 202080, Note_on_c, 15, 55, 40
33, 202319, Note_on_c, 15, 55, 0
33, 202320, Note_on_c, 15, 57, 40
33, 202559, Note_on_c, 15, 57, 0
33, 202560, Note_on_c, 15, 57, 40
33, 202799, Note_on_c, 15, 57, 0
33, 202800, Note_on_c, 15, 55, 40
33, 203039, Note_on_c, 15, 55, 0
33, 203040, Note_on_c, 15, 54, 40
33, 203279, Note_on_c, 15, 54, 0
33, 203280, Note_on_c, 15, 52, 40
33, 203519, Note_on_c, 15, 52, 0
33, 203520, Note_on_c, 15, 50, 40
33, 203759, Note_on_c, 15, 50, 0
33, 203760, Note_on_c, 15, 50, 40
33, 203999, Note_on_c, 15, 50, 0
33, 204000, Note_on_c, 15, 52, 40
33, 204239, Note_on_c, 15, 52, 0
33, 204240, Note_on_c, 15, 54, 40
33, 204479, Note_on_c, 15, 54, 0
33, 204480, Note_on_c, 15, 54, 40
33, 204719, Note_on_c, 15, 54, 0
33, 204960, Note_on_c, 15, 52, 40
33, 205199, Note_on_c, 15, 52, 0
33, 205440, Note_on_c, 15, 54, 40
33, 205679, Note_on_c, 15, 54, 0
33, 205680, Note_on_c, 15, 54, 40
33, 205919, Note_on_c, 15, 54, 0
33, 205920, Note_on_c, 15, 55, 40
33, 206159, Note_on_c, 15, 55, 0
33, 206160, Note_on_c, 15, 57, 40
33, 206399, Note_on_c, 15, 57, 0
33, 206400, Note_on_c, 15, 57, 40
33, 206639, Note_on_c, 15, 57, 0
33, 206640, Note_on_c, 15, 55, 40
33, 206879, Note_on_c, 15, 55, 0
33, 206880, Note_on_c, 15, 54, 40
33, 207119, Note_on_c, 15, 54, 0
33, 207120, Note_on_c, 15, 52, 40
33, 207359, Note_on_c, 15, 52, 0
33, 207360, Note_on_c, 15, 50, 40
33, 207599, Note_on_c, 15, 50, 0
33, 207600, Note_on_c, 15, 50, 40
33, 207839, Note_on_c, 15, 50, 0
33, 207840, Note_on_c, 15, 52, 40
33, 208079, Note_on_c, 15, 52, 0
33, 208080, Note_on_c, 15, 54, 40
33, 208319, Note_on_c, 15, 54, 0
33, 208320, Note_on_c, 15, 52, 40
33, 208559, Note_on_c, 15, 52, 0
33, 208800, Note_on_c, 15, 50, 40
33, 209039, Note_on_c, 15, 50, 0
33, 209280, Note_on_c, 15, 52, 40
33, 209519, Note_on_c, 15, 52, 0
33, 209520, Note_on_c, 15, 52, 40
33, 209759, Note_on_c, 15, 52, 0
33, 209760, Note_on_c, 15, 54, 40
33, 209999, Note_on_c, 15, 54, 0
33, 210000, Note_on_c, 15, 50, 40
33, 210239, Note_on_c, 15, 50, 0
33, 210240, Note_on_c, 15, 52, 40
33, 210479, Note_on_c, 15, 52, 0
33, 210480, Note_on_c, 15, 54, 40
33, 210599, Note_on_c, 15, 54, 0
33, 210600, Note_on_c, 15, 55, 40
33, 210719, Note_on_c, 15, 55, 0
33, 210720, Note_on_c, 15, 54, 40
33, 210959, Note_on_c, 15, 54, 0
33, 210960, Note_on_c, 15, 50, 40
33, 211199, Note_on_c, 15, 50, 0
33, 211200, Note_on_c, 15, 52, 40
33, 211439, Note_on_c, 15, 52, 0
33, 211440, Note_on_c, 15, 54, 40
33, 211559, Note_on_c, 15, 54, 0
33, 211560, Note_on_c, 15, 55, 40
33, 211679, Note_on_c, 15, 55, 0
33, 211680, Note_on_c, 15, 54, 40
33, 211919, Note_on_c, 15, 54, 0
33, 211920, Note_on_c, 15, 52, 40
33, 212159, Note_on_c, 15, 52, 0
33, 212160, Note_on_c, 15, 50, 40
33, 212399, Note_on_c, 15, 50, 0
33, 212400, Note_on_c, 15, 52, 42
33, 212639, Note_on_c, 15, 52, 0
33, 212640, Note_on_c, 15, 45, 44
33, 212879, Note_on_c, 15, 45, 0
33, 212880, Note_on_c, 15, 54, 46
33, 213119, Note_on_c, 15, 54, 0
33, 213120, Note_on_c, 15, 54, 48
33, 213359, Note_on_c, 15, 54, 0
33, 213360, Note_on_c, 15, 54, 50
33, 213599, Note_on_c, 15, 54, 0
33, 213600, Note_on_c, 15, 55, 52
33, 213839, Note_on_c, 15, 55, 0
33, 213840, Note_on_c, 15, 57, 54
33, 214079, Note_on_c, 15, 57, 0
33, 214080, Note_on_c, 15, 57, 56
33, 214319, Note_on_c, 15, 57, 0
33, 214320, Note_on_c, 15, 55, 58
33, 214559, Note_on_c, 15, 55, 0
33, 214560, Note_on_c, 15, 54, 60
33, 214799, Note_on_c, 15, 54, 0
33, 214800, Note_on_c, 15, 52, 62
33, 215039, Note_on_c, 15, 52, 0
33, 215040, Note_on_c, 15, 50, 40
33, 215279, Note_on_c, 15, 50, 0
33, 215280, Note_on_c, 15, 50, 40
33, 215519, Note_on_c, 15, 50, 0
33, 215520, Note_on_c, 15, 52, 40
33, 215759, Note_on_c, 15, 52, 0
33, 215760, Note_on_c, 15, 54, 40
33, 215999, Note_on_c, 15, 54, 0
33, 216000, Note_on_c, 15, 52, 40
33, 216239, Note_on_c, 15, 52, 0
33, 216480, Note_on_c, 15, 50, 40
33, 216719, Note_on_c, 15, 50, 0
33, 216958, Program_c, 15, 48
33, 216960, Note_on_c, 15, 52, 80
33, 217184, Note_on_c, 15, 52, 0
33, 217200, Note_on_c, 15, 52, 80
33, 217424, Note_on_c, 15, 52, 0
33, 217440, Note_on_c, 15, 54, 80
33, 217664, Note_on_c, 15, 54, 0
33, 217680, Note_on_c, 15, 50, 80
33, 217904, Note_on_c, 15, 50, 0
33, 217920, Note_on_c, 15, 52, 80
33, 218159, Note_on_c, 15, 52, 0
33, 218160, Note_on_c, 15, 54, 80
33, 218279, Note_on_c, 15, 54, 0
33, 218280, Note_on_c, 15, 55, 80
33, 218384, Note_on_c, 15, 55, 0
33, 218400, Note_on_c, 15, 54, 80
33, 218624, Note_on_c, 15, 54, 0
33, 218640, Note_on_c, 15, 50, 80
33, 218864, Note_on_c, 15, 50, 0
33, 218880, Note_on_c, 15, 52, 80
33, 219119, Note_on_c, 15, 52, 0
33, 219120, Note_on_c, 15, 54, 80
33, 219239, Note_on_c, 15, 54, 0
33, 219240, Note_on_c, 15, 55, 80
33, 219344, Note_on_c, 15, 55, 0
33, 219360, Note_on_c, 15, 54, 80
33, 219584, Note_on_c, 15, 54, 0
33, 219600, Note_on_c, 15, 52, 80
33, 219824, Note_on_c, 15, 52, 0
33, 219840, Note_on_c, 15, 50, 80
33, 220064, Note_on_c, 15, 50, 0
33, 220080, Note_on_c, 15, 52, 80
33, 220304, Note_on_c, 15, 52, 0
33, 220320, Note_on_c, 15, 45, 80
33, 220544, Note_on_c, 15, 45, 0
33, 220560, Note_on_c, 15, 54, 80
33, 221024, Note_on_c, 15, 54, 0
33, 221040, Note_on_c, 15, 54, 80
33, 221264, Note_on_c, 15, 54, 0
33, 221280, Note_on_c, 15, 55, 80
33, 221504, Note_on_c, 15, 55, 0
33, 221520, Note_on_c, 15, 57, 80
33, 221744, Note_on_c, 15, 57, 0
33, 221760, Note_on_c, 15, 57, 80
33, 221984, Note_on_c, 15, 57, 0
33, 222000, Note_on_c, 15, 55, 80
33, 222224, Note_on_c, 15, 55, 0
33, 222240, Note_on_c, 15, 54, 80
33, 222479, Note_on_c, 15, 54, 0
33, 222480, Note_on_c, 15, 55, 80
33, 222599, Note_on_c, 15, 55, 0
33, 222600, Note_on_c, 15, 52, 80
33, 222704, Note_on_c, 15, 52, 0
33, 222720, Note_on_c, 15, 50, 80
33, 222944, Note_on_c, 15, 50, 0
33, 222960, Note_on_c, 15, 50, 80
33, 223184, Note_on_c, 15, 50, 0
33, 223200, Note_on_c, 15, 52, 80
33, 223424, Note_on_c, 15, 52, 0
33, 223440, Note_on_c, 15, 54, 80
33, 223664, Note_on_c, 15, 54, 0
33, 223680, Note_on_c, 15, 52, 80
33, 224039, Note_on_c, 15, 52, 0
33, 224040, Note_on_c, 15, 50, 80
33, 224144, Note_on_c, 15, 50, 0
33, 224160, Note_on_c, 15, 50, 80
33, 224384, Note_on_c, 15, 50, 0
33, 224400, Note_on_c, 15, 57, 80
33, 224624, Note_on_c, 15, 57, 0
33, 224640, Note_on_c, 15, 55, 80
33, 224999, Note_on_c, 15, 55, 0
33, 225000, Note_on_c, 15, 54, 80
33, 225104, Note_on_c, 15, 54, 0
33, 225120, Note_on_c, 15, 54, 80
33, 225344, Note_on_c, 15, 54, 0
33, 225360, Note_on_c, 15, 62, 80
33, 225584, Note_on_c, 15, 62, 0
33, 225600, Note_on_c, 15, 60, 80
33, 225959, Note_on_c, 15, 60, 0
33, 225960, Note_on_c, 15, 59, 80
33, 226064, Note_on_c, 15, 59, 0
33, 226080, Note_on_c, 15, 59, 80
33, 226304, Note_on_c, 15, 59, 0
33, 226320, Note_on_c, 15, 67, 80
33, 226439, Note_on_c, 15, 67, 0
33, 226440, Note_on_c, 15, 64, 80
33, 226544, Note_on_c, 15, 64, 0
33, 226560, Note_on_c, 15, 62, 80
33, 226679, Note_on_c, 15, 62, 0
33, 226680, Note_on_c, 15, 61, 80
33, 226799, Note_on_c, 15, 61, 0
33, 226800, Note_on_c, 15, 64, 80
33, 226919, Note_on_c, 15, 64, 0
33, 226920, Note_on_c, 15, 61, 80
33, 227024, Note_on_c, 15, 61, 0
33, 227040, Note_on_c, 15, 59, 80
33, 227159, Note_on_c, 15, 59, 0
33, 227160, Note_on_c, 15, 57, 80
33, 227279, Note_on_c, 15, 57, 0
33, 227280, Note_on_c, 15, 59, 80
33, 227399, Note_on_c, 15, 59, 0
33, 227400, Note_on_c, 15, 61, 80
33, 227504, Note_on_c, 15, 61, 0
33, 227520, Note_on_c, 15, 62, 80
33, 227639, Note_on_c, 15, 62, 0
33, 227640, Note_on_c, 15, 66, 80
33, 227759, Note_on_c, 15, 66, 0
33, 227760, Note_on_c, 15, 64, 80
33, 227879, Note_on_c, 15, 64, 0
33, 227880, Note_on_c, 15, 61, 80
33, 227984, Note_on_c, 15, 61, 0
33, 228000, Note_on_c, 15, 62, 80
33, 228239, Note_on_c, 15, 62, 0
33, 228480, Note_on_c, 15, 50, 44
33, 229199, Note_on_c, 15, 50, 0
33, 229200, Note_on_c, 15, 49, 44
33, 229319, Note_on_c, 15, 49, 0
33, 229320, Note_on_c, 15, 47, 44
33, 229424, Note_on_c, 15, 47, 0
33, 229440, Note_on_c, 15, 45, 44
33, 229559, Note_on_c, 15, 45, 0
33, 229560, Note_on_c, 15, 47, 44
33, 229679, Note_on_c, 15, 47, 0
33, 229680, Note_on_c, 15, 49, 44
33, 229799, Note_on_c, 15, 49, 0
33, 229800, Note_on_c, 15, 50, 44
33, 229919, Note_on_c, 15, 50, 0
33, 229920, Note_on_c, 15, 52, 44
33, 230039, Note_on_c, 15, 52, 0
33, 230040, Note_on_c, 15, 54, 44
33, 230159, Note_on_c, 15, 54, 0
33, 230160, Note_on_c, 15, 55, 44
33, 230279, Note_on_c, 15, 55, 0
33, 230280, Note_on_c, 15, 52, 44
33, 230384, Note_on_c, 15, 52, 0
33, 230400, Note_on_c, 15, 57, 44
33, 230639, Note_on_c, 15, 57, 0
33, 231960, Note_on_c, 15, 45, 44
33, 232079, Note_on_c, 15, 45, 0
33, 232080, Note_on_c, 15, 47, 44
33, 232199, Note_on_c, 15, 47, 0
33, 232200, Note_on_c, 15, 49, 44
33, 232304, Note_on_c, 15, 49, 0
33, 232320, Note_on_c, 15, 50, 44
33, 233039, Note_on_c, 15, 50, 0
33, 233040, Note_on_c, 15, 49, 44
33, 233159, Note_on_c, 15, 49, 0
33, 233160, Note_on_c, 15, 47, 44
33, 233264, Note_on_c, 15, 47, 0
33, 233280, Note_on_c, 15, 45, 44
33, 233399, Note_on_c, 15, 45, 0
33, 233400, Note_on_c, 15, 47, 44
33, 233519, Note_on_c, 15, 47, 0
33, 233520, Note_on_c, 15, 49, 44
33, 233639, Note_on_c, 15, 49, 0
33, 233640, Note_on_c, 15, 50, 44
33, 233759, Note_on_c, 15, 50, 0
33, 233760, Note_on_c, 15, 52, 44
33, 233879, Note_on_c, 15, 52, 0
33, 233880, Note_on_c, 15, 54, 44
33, 233999, Note_on_c, 15, 54, 0
33, 234000, Note_on_c, 15, 55, 44
33, 234119, Note_on_c, 15, 55, 0
33, 234120, Note_on_c, 15, 52, 44
33, 234224, Note_on_c, 15, 52, 0
33, 234240, Note_on_c, 15, 57, 44
33, 234479, Note_on_c, 15, 57, 0
33, 236160, Note_on_c, 15, 45, 44
33, 236264, Note_on_c, 15, 45, 0
33, 236280, Note_on_c, 15, 45, 44
33, 236399, Note_on_c, 15, 45, 0
33, 236400, Note_on_c, 15, 52, 44
33, 236504, Note_on_c, 15, 52, 0
33, 236520, Note_on_c, 15, 49, 44
33, 236639, Note_on_c, 15, 49, 0
33, 236640, Note_on_c, 15, 57, 44
33, 236759, Note_on_c, 15, 57, 0
33, 237120, Note_on_c, 15, 45, 44
33, 237224, Note_on_c, 15, 45, 0
33, 237240, Note_on_c, 15, 45, 44
33, 237359, Note_on_c, 15, 45, 0
33, 237360, Note_on_c, 15, 57, 44
33, 237464, Note_on_c, 15, 57, 0
33, 237480, Note_on_c, 15, 45, 44
33, 237599, Note_on_c, 15, 45, 0
33, 237600, Note_on_c, 15, 57, 44
33, 237719, Note_on_c, 15, 57, 0
33, 237840, Control_c, 15, 11, 89
33, 238080, Note_on_c, 15, 45, 68
33, 238184, Note_on_c, 15, 45, 0
33, 238200, Note_on_c, 15, 45, 68
33, 238319, Note_on_c, 15, 45, 0
33, 238320, Note_on_c, 15, 57, 68
33, 238439, Note_on_c, 15, 57, 0
33, 238680, Note_on_c, 15, 58, 68
33, 238799, Note_on_c, 15, 58, 0
33, 238800, Note_on_c, 15, 54, 68
33, 239039, Note_on_c, 15, 54, 0
33, 239040, Control_c, 15, 11, 89
33, 239100, Control_c, 15, 11, 92
33, 239160, Note_on_c, 15, 59, 68
33, 239160, Control_c, 15, 11, 95
33, 239220, Control_c, 15, 11, 99
33, 239279, Note_on_c, 15, 59, 0
33, 239280, Control_c, 15, 11, 101
33, 239280, Note_on_c, 15, 52, 68
33, 239340, Control_c, 15, 11, 105
33, 239400, Control_c, 15, 11, 109
33, 239460, Control_c, 15, 11, 111
33, 239519, Note_on_c, 15, 52, 0
33, 239520, Control_c, 15, 11, 115
33, 239580, Control_c, 15, 11, 117
33, 239640, Control_c, 15, 11, 121
33, 239640, Note_on_c, 15, 57, 68
33, 239700, Control_c, 15, 11, 124
33, 239759, Note_on_c, 15, 57, 0
33, 239760, Control_c, 15, 11, 127
33, 239760, Note_on_c, 15, 45, 68
33, 239864, Note_on_c, 15, 45, 0
33, 239880, Note_on_c, 15, 45, 68
33, 239999, Note_on_c, 15, 45, 0
33, 240000, Note_on_c, 15, 50, 68
33, 240719, Note_on_c, 15, 50, 0
33, 240720, Note_on_c, 15, 49, 68
33, 240839, Note_on_c, 15, 49, 0
33, 240840, Note_on_c, 15, 47, 68
33, 240944, Note_on_c, 15, 47, 0
33, 240960, Note_on_c, 15, 45, 68
33, 241079, Note_on_c, 15, 45, 0
33, 241080, Note_on_c, 15, 47, 67
33, 241199, Note_on_c, 15, 47, 0
33, 241200, Note_on_c, 15, 49, 66
33, 241319, Note_on_c, 15, 49, 0
33, 241320, Note_on_c, 15, 50, 65
33, 241439, Note_on_c, 15, 50, 0
33, 241440, Note_on_c, 15, 52, 64
33, 241559, Note_on_c, 15, 52, 0
33, 241560, Note_on_c, 15, 54, 62
33, 241679, Note_on_c, 15, 54, 0
33, 241680, Note_on_c, 15, 55, 61
33, 241799, Note_on_c, 15, 55, 0
33, 241800, Note_on_c, 15, 52, 60
33, 241904, Note_on_c, 15, 52, 0
33, 241920, Note_on_c, 15, 54, 59
33, 242159, Note_on_c, 15, 54, 0
33, 243600, Note_on_c, 15, 57, 80
33, 243944, Note_on_c, 15, 57, 0
33, 243960, Note_on_c, 15, 45, 80
33, 244079, Note_on_c, 15, 45, 0
33, 244080, Note_on_c, 15, 52, 80
33, 244184, Note_on_c, 15, 52, 0
33, 244200, Note_on_c, 15, 49, 80
33, 244319, Note_on_c, 15, 49, 0
33, 244320, Note_on_c, 15, 57, 80
33, 244439, Note_on_c, 15, 57, 0
33, 244800, Note_on_c, 15, 45, 80
33, 244904, Note_on_c, 15, 45, 0
33, 244920, Note_on_c, 15, 45, 80
33, 245039, Note_on_c, 15, 45, 0
33, 245040, Note_on_c, 15, 57, 80
33, 245144, Note_on_c, 15, 57, 0
33, 245280, Note_on_c, 15, 45, 80
33, 245399, Note_on_c, 15, 45, 0
33, 245400, Note_on_c, 15, 57, 80
33, 245519, Note_on_c, 15, 57, 0
33, 245760, Note_on_c, 15, 45, 80
33, 245850, Note_on_c, 15, 45, 80
33, 245864, Note_on_c, 15, 45, 0
33, 245969, Note_on_c, 15, 45, 0
33, 246000, Note_on_c, 15, 57, 80
33, 246119, Note_on_c, 15, 57, 0
33, 246360, Note_on_c, 15, 58, 80
33, 246479, Note_on_c, 15, 58, 0
33, 246480, Note_on_c, 15, 54, 80
33, 246719, Note_on_c, 15, 54, 0
33, 246840, Note_on_c, 15, 59, 80
33, 246959, Note_on_c, 15, 59, 0
33, 246960, Note_on_c, 15, 52, 80
33, 247199, Note_on_c, 15, 52, 0
33, 247318, Control_c, 15, 11, 109
33, 247320, Note_on_c, 15, 57, 92
33, 247439, Note_on_c, 15, 57, 0
33, 247440, Note_on_c, 15, 45, 92
33, 247544, Note_on_c, 15, 45, 0
33, 247560, Note_on_c, 15, 45, 92
33, 247679, Note_on_c, 15, 45, 0
33, 247680, Control_c, 15, 11, 109
33, 247680, Note_on_c, 15, 50, 92
33, 247760, Control_c, 15, 11, 110
33, 247840, Control_c, 15, 11, 112
33, 247920, Control_c, 15, 11, 114
33, 248000, Control_c, 15, 11, 115
33, 248080, Control_c, 15, 11, 116
33, 248160, Control_c, 15, 11, 119
33, 248240, Control_c, 15, 11, 120
33, 248320, Control_c, 15, 11, 121
33, 248399, Note_on_c, 15, 50, 0
33, 248400, Control_c, 15, 11, 122
33, 248400, Note_on_c, 15, 49, 92
33, 248480, Control_c, 15, 11, 125
33, 248519, Note_on_c, 15, 49, 0
33, 248520, Note_on_c, 15, 47, 92
33, 248560, Control_c, 15, 11, 126
33, 248624, Note_on_c, 15, 47, 0
33, 248640, Control_c, 15, 11, 127
33, 248640, Note_on_c, 15, 45, 92
33, 248759, Note_on_c, 15, 45, 0
33, 248760, Note_on_c, 15, 47, 86
33, 248879, Note_on_c, 15, 47, 0
33, 248880, Note_on_c, 15, 49, 80
33, 248999, Note_on_c, 15, 49, 0
33, 249000, Note_on_c, 15, 50, 74
33, 249119, Note_on_c, 15, 50, 0
33, 249120, Note_on_c, 15, 52, 68
33, 249239, Note_on_c, 15, 52, 0
33, 249240, Note_on_c, 15, 54, 62
33, 249359, Note_on_c, 15, 54, 0
33, 249360, Note_on_c, 15, 55, 56
33, 249479, Note_on_c, 15, 55, 0
33, 249480, Note_on_c, 15, 52, 50
33, 249584, Note_on_c, 15, 52, 0
33, 249600, Note_on_c, 15, 54, 44
33, 249839, Note_on_c, 15, 54, 0
33, 249960, Note_on_c, 15, 54, 44
33, 250079, Note_on_c, 15, 54, 0
33, 250080, Note_on_c, 15, 50, 44
33, 250319, Note_on_c, 15, 50, 0
33, 250440, Note_on_c, 15, 50, 44
33, 250559, Note_on_c, 15, 50, 0
33, 250560, Note_on_c, 15, 57, 44
33, 250799, Note_on_c, 15, 57, 0
33, 250920, Note_on_c, 15, 45, 44
33, 251039, Note_on_c, 15, 45, 0
33, 251040, Note_on_c, 15, 50, 44
33, 251279, Note_on_c, 15, 50, 0
33, 251400, Note_on_c, 15, 62, 44
33, 251519, Note_on_c, 15, 62, 0
33, 251520, Note_on_c, 15, 50, 44
33, 251759, Note_on_c, 15, 50, 0
33, 251880, Note_on_c, 15, 62, 44
33, 251999, Note_on_c, 15, 62, 0
33, 252000, Note_on_c, 15, 50, 44
33, 252239, Note_on_c, 15, 50, 0
33, 252360, Note_on_c, 15, 50, 44
33, 252479, Note_on_c, 15, 50, 0
33, 252480, Note_on_c, 15, 43, 44
33, 252719, Note_on_c, 15, 43, 0
33, 252840, Note_on_c, 15, 55, 44
33, 252959, Note_on_c, 15, 55, 0
33, 252960, Note_on_c, 15, 43, 44
33, 253199, Note_on_c, 15, 43, 0
33, 253320, Note_on_c, 15, 55, 44
33, 253439, Note_on_c, 15, 55, 0
33, 253440, Note_on_c, 15, 57, 44
33, 253679, Note_on_c, 15, 57, 0
33, 253800, Note_on_c, 15, 45, 44
33, 253919, Note_on_c, 15, 45, 0
33, 253920, Note_on_c, 15, 57, 44
33, 254159, Note_on_c, 15, 57, 0
33, 254280, Note_on_c, 15, 57, 44
33, 254399, Note_on_c, 15, 57, 0
33, 254400, Note_on_c, 15, 62, 44
33, 254519, Note_on_c, 15, 62, 0
33, 254640, Note_on_c, 15, 57, 44
33, 254759, Note_on_c, 15, 57, 0
33, 254880, Note_on_c, 15, 50, 44
33, 254999, Note_on_c, 15, 50, 0
33, 255600, Note_on_c, 15, 54, 44
33, 255629, Note_on_c, 15, 54, 0
33, 255630, Note_on_c, 15, 55, 44
33, 255659, Note_on_c, 15, 55, 0
33, 255660, Note_on_c, 15, 54, 44
33, 255689, Note_on_c, 15, 54, 0
33, 255690, Note_on_c, 15, 55, 44
33, 255719, Note_on_c, 15, 55, 0
33, 255720, Note_on_c, 15, 54, 44
33, 255749, Note_on_c, 15, 54, 0
33, 255750, Note_on_c, 15, 55, 44
33, 255779, Note_on_c, 15, 55, 0
33, 255780, Note_on_c, 15, 52, 44
33, 255809, Note_on_c, 15, 52, 0
33, 255810, Note_on_c, 15, 54, 44
33, 255839, Note_on_c, 15, 54, 0
33, 256080, Note_on_c, 15, 62, 44
33, 256109, Note_on_c, 15, 62, 0
33, 256110, Note_on_c, 15, 64, 44
33, 256139, Note_on_c, 15, 64, 0
33, 256140, Note_on_c, 15, 62, 44
33, 256169, Note_on_c, 15, 62, 0
33, 256170, Note_on_c, 15, 64, 44
33, 256199, Note_on_c, 15, 64, 0
33, 256200, Note_on_c, 15, 62, 44
33, 256229, Note_on_c, 15, 62, 0
33, 256230, Note_on_c, 15, 64, 44
33, 256259, Note_on_c, 15, 64, 0
33, 256260, Note_on_c, 15, 61, 44
33, 256289, Note_on_c, 15, 61, 0
33, 256290, Note_on_c, 15, 62, 44
33, 256319, Note_on_c, 15, 62, 0
33, 256560, Note_on_c, 15, 59, 44
33, 256589, Note_on_c, 15, 59, 0
33, 256590, Note_on_c, 15, 60, 44
33, 256619, Note_on_c, 15, 60, 0
33, 256620, Note_on_c, 15, 59, 44
33, 256649, Note_on_c, 15, 59, 0
33, 256650, Note_on_c, 15, 60, 44
33, 256679, Note_on_c, 15, 60, 0
33, 256680, Note_on_c, 15, 59, 44
33, 256709, Note_on_c, 15, 59, 0
33, 256710, Note_on_c, 15, 60, 44
33, 256739, Note_on_c, 15, 60, 0
33, 256740, Note_on_c, 15, 57, 44
33, 256769, Note_on_c, 15, 57, 0
33, 256770, Note_on_c, 15, 59, 44
33, 256799, Note_on_c, 15, 59, 0
33, 257040, Note_on_c, 15, 67, 44
33, 257069, Note_on_c, 15, 67, 0
33, 257070, Note_on_c, 15, 69, 44
33, 257099, Note_on_c, 15, 69, 0
33, 257100, Note_on_c, 15, 67, 44
33, 257129, Note_on_c, 15, 67, 0
33, 257130, Note_on_c, 15, 69, 44
33, 257159, Note_on_c, 15, 69, 0
33, 257160, Note_on_c, 15, 67, 44
33, 257189, Note_on_c, 15, 67, 0
33, 257190, Note_on_c, 15, 69, 44
33, 257219, Note_on_c, 15, 69, 0
33, 257220, Note_on_c, 15, 66, 44
33, 257249, Note_on_c, 15, 66, 0
33, 257250, Note_on_c, 15, 67, 44
33, 257279, Note_on_c, 15, 67, 0
33, 263280, Note_on_c, 15, 45, 44
33, 263309, Note_on_c, 15, 45, 0
33, 263310, Note_on_c, 15, 47, 44
33, 263339, Note_on_c, 15, 47, 0
33, 263340, Note_on_c, 15, 45, 44
33, 263369, Note_on_c, 15, 45, 0
33, 263370, Note_on_c, 15, 47, 44
33, 263399, Note_on_c, 15, 47, 0
33, 263400, Note_on_c, 15, 45, 44
33, 263429, Note_on_c, 15, 45, 0
33, 263430, Note_on_c, 15, 47, 44
33, 263459, Note_on_c, 15, 47, 0
33, 263460, Note_on_c, 15, 44, 44
33, 263489, Note_on_c, 15, 44, 0
33, 263490, Note_on_c, 15, 45, 44
33, 263519, Note_on_c, 15, 45, 0
33, 265200, Note_on_c, 15, 45, 44
33, 265229, Note_on_c, 15, 45, 0
33, 265230, Note_on_c, 15, 47, 44
33, 265259, Note_on_c, 15, 47, 0
33, 265260, Note_on_c, 15, 45, 44
33, 265289, Note_on_c, 15, 45, 0
33, 265290, Note_on_c, 15, 47, 44
33, 265319, Note_on_c, 15, 47, 0
33, 265320, Note_on_c, 15, 45, 44
33, 265349, Note_on_c, 15, 45, 0
33, 265350, Note_on_c, 15, 47, 44
33, 265379, Note_on_c, 15, 47, 0
33, 265380, Note_on_c, 15, 44, 44
33, 265409, Note_on_c, 15, 44, 0
33, 265410, Note_on_c, 15, 45, 44
33, 265439, Note_on_c, 15, 45, 0
33, 266880, Note_on_c, 15, 45, 44
33, 266909, Note_on_c, 15, 45, 0
33, 266910, Note_on_c, 15, 47, 44
33, 266939, Note_on_c, 15, 47, 0
33, 266940, Note_on_c, 15, 45, 44
33, 266969, Note_on_c, 15, 45, 0
33, 266970, Note_on_c, 15, 47, 45
33, 266999, Note_on_c, 15, 47, 0
33, 267000, Note_on_c, 15, 45, 45
33, 267029, Note_on_c, 15, 45, 0
33, 267030, Note_on_c, 15, 47, 46
33, 267059, Note_on_c, 15, 47, 0
33, 267060, Note_on_c, 15, 44, 46
33, 267089, Note_on_c, 15, 44, 0
33, 267090, Note_on_c, 15, 45, 47
33, 267119, Note_on_c, 15, 45, 0
33, 267360, Note_on_c, 15, 45, 51
33, 267389, Note_on_c, 15, 45, 0
33, 267390, Note_on_c, 15, 47, 51
33, 267419, Note_on_c, 15, 47, 0
33, 267420, Note_on_c, 15, 45, 52
33, 267449, Note_on_c, 15, 45, 0
33, 267450, Note_on_c, 15, 47, 52
33, 267479, Note_on_c, 15, 47, 0
33, 267480, Note_on_c, 15, 45, 53
33, 267509, Note_on_c, 15, 45, 0
33, 267510, Note_on_c, 15, 47, 53
33, 267539, Note_on_c, 15, 47, 0
33, 267540, Note_on_c, 15, 44, 53
33, 267569, Note_on_c, 15, 44, 0
33, 267570, Note_on_c, 15, 45, 54
33, 267599, Note_on_c, 15, 45, 0
33, 267840, Note_on_c, 15, 47, 58
33, 267869, Note_on_c, 15, 47, 0
33, 267870, Note_on_c, 15, 48, 58
33, 267899, Note_on_c, 15, 48, 0
33, 267900, Note_on_c, 15, 47, 59
33, 267929, Note_on_c, 15, 47, 0
33, 267930, Note_on_c, 15, 48, 59
33, 267959, Note_on_c, 15, 48, 0
33, 267960, Note_on_c, 15, 47, 60
33, 267989, Note_on_c, 15, 47, 0
33, 267990, Note_on_c, 15, 48, 60
33, 268019, Note_on_c, 15, 48, 0
33, 268020, Note_on_c, 15, 45, 61
33, 268049, Note_on_c, 15, 45, 0
33, 268050, Note_on_c, 15, 47, 61
33, 268079, Note_on_c, 15, 47, 0
33, 268320, Note_on_c, 15, 64, 65
33, 268349, Note_on_c, 15, 64, 0
33, 268350, Note_on_c, 15, 66, 66
33, 268379, Note_on_c, 15, 66, 0
33, 268380, Note_on_c, 15, 64, 66
33, 268409, Note_on_c, 15, 64, 0
33, 268410, Note_on_c, 15, 66, 66
33, 268439, Note_on_c, 15, 66, 0
33, 268440, Note_on_c, 15, 64, 67
33, 268469, Note_on_c, 15, 64, 0
33, 268470, Note_on_c, 15, 66, 67
33, 268499, Note_on_c, 15, 66, 0
33, 268500, Note_on_c, 15, 62, 68
33, 268529, Note_on_c, 15, 62, 0
33, 268530, Note_on_c, 15, 64, 68
33, 268559, Note_on_c, 15, 64, 0
33, 268800, Note_on_c, 15, 62, 72
33, 268829, Note_on_c, 15, 62, 0
33, 268830, Note_on_c, 15, 64, 73
33, 268859, Note_on_c, 15, 64, 0
33, 268860, Note_on_c, 15, 62, 73
33, 268889, Note_on_c, 15, 62, 0
33, 268890, Note_on_c, 15, 64, 74
33, 268919, Note_on_c, 15, 64, 0
33, 268920, Note_on_c, 15, 62, 74
33, 268949, Note_on_c, 15, 62, 0
33, 268950, Note_on_c, 15, 64, 75
33, 268979, Note_on_c, 15, 64, 0
33, 268980, Note_on_c, 15, 61, 75
33, 269009, Note_on_c, 15, 61, 0
33, 269010, Note_on_c, 15, 62, 75
33, 269039, Note_on_c, 15, 62, 0
33, 269280, Note_on_c, 15, 62, 80
33, 269519, Note_on_c, 15, 62, 0
33, 269640, Note_on_c, 15, 62, 80
33, 269744, Note_on_c, 15, 62, 0
33, 269760, Note_on_c, 15, 62, 80
33, 269999, Note_on_c, 15, 62, 0
33, 270120, Note_on_c, 15, 62, 80
33, 270224, Note_on_c, 15, 62, 0
33, 270240, Note_on_c, 15, 62, 80
33, 270464, Note_on_c, 15, 62, 0
33, 270480, Note_on_c, 15, 62, 80
33, 270509, Note_on_c, 15, 62, 0
33, 270510, Note_on_c, 15, 64, 80
33, 270539, Note_on_c, 15, 64, 0
33, 270540, Note_on_c, 15, 62, 80
33, 270569, Note_on_c, 15, 62, 0
33, 270570, Note_on_c, 15, 64, 80
33, 270599, Note_on_c, 15, 64, 0
33, 270600, Note_on_c, 15, 62, 80
33, 270629, Note_on_c, 15, 62, 0
33, 270630, Note_on_c, 15, 64, 80
33, 270659, Note_on_c, 15, 64, 0
33, 270660, Note_on_c, 15, 61, 80
33, 270689, Note_on_c, 15, 61, 0
33, 270690, Note_on_c, 15, 62, 80
33, 270715, Note_on_c, 15, 62, 0
33, 270720, Note_on_c, 15, 61, 80
33, 270749, Note_on_c, 15, 61, 0
33, 270750, Note_on_c, 15, 62, 80
33, 270779, Note_on_c, 15, 62, 0
33, 270780, Note_on_c, 15, 61, 80
33, 270809, Note_on_c, 15, 61, 0
33, 270810, Note_on_c, 15, 62, 80
33, 270839, Note_on_c, 15, 62, 0
33, 270840, Note_on_c, 15, 61, 80
33, 270869, Note_on_c, 15, 61, 0
33, 270870, Note_on_c, 15, 62, 80
33, 270899, Note_on_c, 15, 62, 0
33, 270900, Note_on_c, 15, 59, 80
33, 270929, Note_on_c, 15, 59, 0
33, 270930, Note_on_c, 15, 61, 80
33, 270959, Note_on_c, 15, 61, 0
33, 271200, Note_on_c, 15, 62, 80
33, 271229, Note_on_c, 15, 62, 0
33, 271230, Note_on_c, 15, 64, 80
33, 271259, Note_on_c, 15, 64, 0
33, 271260, Note_on_c, 15, 62, 80
33, 271289, Note_on_c, 15, 62, 0
33, 271290, Note_on_c, 15, 64, 80
33, 271319, Note_on_c, 15, 64, 0
33, 271320, Note_on_c, 15, 62, 80
33, 271349, Note_on_c, 15, 62, 0
33, 271350, Note_on_c, 15, 64, 80
33, 271379, Note_on_c, 15, 64, 0
33, 271380, Note_on_c, 15, 61, 80
33, 271409, Note_on_c, 15, 61, 0
33, 271410, Note_on_c, 15, 62, 80
33, 271439, Note_on_c, 15, 62, 0
33, 271680, Note_on_c, 15, 61, 80
33, 271709, Note_on_c, 15, 61, 0
33, 271710, Note_on_c, 15, 62, 80
33, 271739, Note_on_c, 15, 62, 0
33, 271740, Note_on_c, 15, 61, 80
33, 271769, Note_on_c, 15, 61, 0
33, 271770, Note_on_c, 15, 62, 80
33, 271799, Note_on_c, 15, 62, 0
33, 271800, Note_on_c, 15, 61, 80
33, 271829, Note_on_c, 15, 61, 0
33, 271830, Note_on_c, 15, 62, 80
33, 271859, Note_on_c, 15, 62, 0
33, 271860, Note_on_c, 15, 59, 80
33, 271889, Note_on_c, 15, 59, 0
33, 271890, Note_on_c, 15, 61, 80
33, 271919, Note_on_c, 15, 61, 0
33, 272160, Note_on_c, 15, 62, 80
33, 272189, Note_on_c, 15, 62, 0
33, 272190, Note_on_c, 15, 64, 80
33, 272219, Note_on_c, 15, 64, 0
33, 272220, Note_on_c, 15, 62, 80
33, 272249, Note_on_c, 15, 62, 0
33, 272250, Note_on_c, 15, 64, 80
33, 272279, Note_on_c, 15, 64, 0
33, 272280, Note_on_c, 15, 62, 80
33, 272309, Note_on_c, 15, 62, 0
33, 272310, Note_on_c, 15, 64, 80
33, 272339, Note_on_c, 15, 64, 0
33, 272340, Note_on_c, 15, 61, 80
33, 272369, Note_on_c, 15, 61, 0
33, 272370, Note_on_c, 15, 62, 80
33, 272399, Note_on_c, 15, 62, 0
33, 272640, Note_on_c, 15, 61, 80
33, 272669, Note_on_c, 15, 61, 0
33, 272670, Note_on_c, 15, 62, 80
33, 272699, Note_on_c, 15, 62, 0
33, 272700, Note_on_c, 15, 61, 80
33, 272729, Note_on_c, 15, 61, 0
33, 272730, Note_on_c, 15, 62, 80
33, 272759, Note_on_c, 15, 62, 0
33, 272760, Note_on_c, 15, 61, 80
33, 272789, Note_on_c, 15, 61, 0
33, 272790, Note_on_c, 15, 62, 80
33, 272819, Note_on_c, 15, 62, 0
33, 272820, Note_on_c, 15, 59, 80
33, 272849, Note_on_c, 15, 59, 0
33, 272850, Note_on_c, 15, 61, 80
33, 272879, Note_on_c, 15, 61, 0
33, 273120, Note_on_c, 15, 62, 80
33, 273149, Note_on_c, 15, 62, 0
33, 273150, Note_on_c, 15, 64, 80
33, 273179, Note_on_c, 15, 64, 0
33, 273180, Note_on_c, 15, 62, 80
33, 273209, Note_on_c, 15, 62, 0
33, 273210, Note_on_c, 15, 64, 80
33, 273239, Note_on_c, 15, 64, 0
33, 273240, Note_on_c, 15, 62, 80
33, 273269, Note_on_c, 15, 62, 0
33, 273270, Note_on_c, 15, 64, 80
33, 273299, Note_on_c, 15, 64, 0
33, 273300, Note_on_c, 15, 61, 80
33, 273329, Note_on_c, 15, 61, 0
33, 273330, Note_on_c, 15, 62, 80
33, 273359, Note_on_c, 15, 62, 0
33, 273600, Note_on_c, 15, 59, 80
33, 273629, Note_on_c, 15, 59, 0
33, 273630, Note_on_c, 15, 61, 80
33, 273659, Note_on_c, 15, 61, 0
33, 273660, Note_on_c, 15, 59, 80
33, 273689, Note_on_c, 15, 59, 0
33, 273690, Note_on_c, 15, 61, 80
33, 273719, Note_on_c, 15, 61, 0
33, 273720, Note_on_c, 15, 59, 80
33, 273749, Note_on_c, 15, 59, 0
33, 273750, Note_on_c, 15, 61, 80
33, 273779, Note_on_c, 15, 61, 0
33, 273780, Note_on_c, 15, 57, 80
33, 273809, Note_on_c, 15, 57, 0
33, 273810, Note_on_c, 15, 59, 80
33, 273839, Note_on_c, 15, 59, 0
33, 274080, Note_on_c, 15, 61, 80
33, 274109, Note_on_c, 15, 61, 0
33, 274110, Note_on_c, 15, 62, 80
33, 274139, Note_on_c, 15, 62, 0
33, 274140, Note_on_c, 15, 61, 80
33, 274169, Note_on_c, 15, 61, 0
33, 274170, Note_on_c, 15, 62, 80
33, 274199, Note_on_c, 15, 62, 0
33, 274200, Note_on_c, 15, 61, 80
33, 274229, Note_on_c, 15, 61, 0
33, 274230, Note_on_c, 15, 62, 80
33, 274259, Note_on_c, 15, 62, 0
33, 274260, Note_on_c, 15, 59, 80
33, 274289, Note_on_c, 15, 59, 0
33, 274290, Note_on_c, 15, 61, 80
33, 274319, Note_on_c, 15, 61, 0
33, 274560, Note_on_c, 15, 54, 80
33, 274589, Note_on_c, 15, 54, 0
33, 274590, Note_on_c, 15, 55, 80
33, 274619, Note_on_c, 15, 55, 0
33, 274620, Note_on_c, 15, 54, 80
33, 274649, Note_on_c, 15, 54, 0
33, 274650, Note_on_c, 15, 55, 80
33, 274679, Note_on_c, 15, 55, 0
33, 274680, Note_on_c, 15, 54, 80
33, 274709, Note_on_c, 15, 54, 0
33, 274710, Note_on_c, 15, 55, 80
33, 274739, Note_on_c, 15, 55, 0
33, 274740, Note_on_c, 15, 52, 80
33, 274769, Note_on_c, 15, 52, 0
33, 274770, Note_on_c, 15, 54, 80
33, 274799, Note_on_c, 15, 54, 0
33, 275040, Note_on_c, 15, 62, 80
33, 275069, Note_on_c, 15, 62, 0
33, 275070, Note_on_c, 15, 64, 80
33, 275099, Note_on_c, 15, 64, 0
33, 275100, Note_on_c, 15, 62, 80
33, 275129, Note_on_c, 15, 62, 0
33, 275130, Note_on_c, 15, 64, 80
33, 275159, Note_on_c, 15, 64, 0
33, 275160, Note_on_c, 15, 62, 80
33, 275189, Note_on_c, 15, 62, 0
33, 275190, Note_on_c, 15, 64, 80
33, 275219, Note_on_c, 15, 64, 0
33, 275220, Note_on_c, 15, 61, 80
33, 275249, Note_on_c, 15, 61, 0
33, 275250, Note_on_c, 15, 62, 80
33, 275279, Note_on_c, 15, 62, 0
33, 275520, Note_on_c, 15, 59, 80
33, 275549, Note_on_c, 15, 59, 0
33, 275550, Note_on_c, 15, 60, 80
33, 275579, Note_on_c, 15, 60, 0
33, 275580, Note_on_c, 15, 59, 80
33, 275609, Note_on_c, 15, 59, 0
33, 275610, Note_on_c, 15, 60, 80
33, 275639, Note_on_c, 15, 60, 0
33, 275640, Note_on_c, 15, 59, 80
33, 275669, Note_on_c, 15, 59, 0
33, 275670, Note_on_c, 15, 60, 80
33, 275699, Note_on_c, 15, 60, 0
33, 275700, Note_on_c, 15, 57, 80
33, 275729, Note_on_c, 15, 57, 0
33, 275730, Note_on_c, 15, 59, 80
33, 275759, Note_on_c, 15, 59, 0
33, 276000, Note_on_c, 15, 55, 80
33, 276029, Note_on_c, 15, 55, 0
33, 276030, Note_on_c, 15, 57, 80
33, 276059, Note_on_c, 15, 57, 0
33, 276060, Note_on_c, 15, 55, 80
33, 276089, Note_on_c, 15, 55, 0
33, 276090, Note_on_c, 15, 57, 80
33, 276119, Note_on_c, 15, 57, 0
33, 276120, Note_on_c, 15, 55, 80
33, 276149, Note_on_c, 15, 55, 0
33, 276150, Note_on_c, 15, 57, 80
33, 276179, Note_on_c, 15, 57, 0
33, 276180, Note_on_c, 15, 54, 80
33, 276209, Note_on_c, 15, 54, 0
33, 276210, Note_on_c, 15, 55, 80
33, 276239, Note_on_c, 15, 55, 0
33, 276480, Note_on_c, 15, 54, 80
33, 276509, Note_on_c, 15, 54, 0
33, 276510, Note_on_c, 15, 55, 80
33, 276539, Note_on_c, 15, 55, 0
33, 276540, Note_on_c, 15, 54, 80
33, 276569, Note_on_c, 15, 54, 0
33, 276570, Note_on_c, 15, 55, 80
33, 276599, Note_on_c, 15, 55, 0
33, 276600, Note_on_c, 15, 54, 80
33, 276629, Note_on_c, 15, 54, 0
33, 276630, Note_on_c, 15, 55, 80
33, 276659, Note_on_c, 15, 55, 0
33, 276660, Note_on_c, 15, 52, 80
33, 276689, Note_on_c, 15, 52, 0
33, 276690, Note_on_c, 15, 54, 80
33, 276719, Note_on_c, 15, 54, 0
33, 276960, Note_on_c, 15, 62, 92
33, 277199, Note_on_c, 15, 62, 0
33, 277440, Note_on_c, 15, 62, 92
33, 277679, Note_on_c, 15, 62, 0
33, 277800, Note_on_c, 15, 62, 92
33, 277904, Note_on_c, 15, 62, 0
33, 277920, Note_on_c, 15, 62, 92
33, 278159, Note_on_c, 15, 62, 0
33, 278400, Note_on_c, 15, 62, 92
33, 278759, Note_on_c, 15, 62, 0
33, 278880, Note_on_c, 15, 62, 92
33, 279239, Note_on_c, 15, 62, 0
33, 279360, Note_on_c, 15, 55, 92
33, 279719, Note_on_c, 15, 55, 0
33, 279840, Note_on_c, 15, 55, 92
33, 280199, Note_on_c, 15, 55, 0
33, 280320, Note_on_c, 15, 57, 92
33, 280679, Note_on_c, 15, 57, 0
33, 280800, Note_on_c, 15, 57, 92
33, 281159, Note_on_c, 15, 57, 0
33, 281280, Note_on_c, 15, 62, 92
33, 282224, Note_on_c, 15, 62, 0
33, 282240, Note_on_c, 15, 52, 92
33, 282599, Note_on_c, 15, 52, 0
33, 282720, Note_on_c, 15, 52, 92
33, 283079, Note_on_c, 15, 52, 0
33, 283200, Note_on_c, 15, 57, 92
33, 283251, Note_on_c, 15, 57, 0
33, 283260, Note_on_c, 15, 59, 92
33, 283311, Note_on_c, 15, 59, 0
33, 283320, Note_on_c, 15, 57, 92
33, 283371, Note_on_c, 15, 57, 0
33, 283380, Note_on_c, 15, 56, 92
33, 283431, Note_on_c, 15, 56, 0
33, 283440, Note_on_c, 15, 54, 92
33, 283491, Note_on_c, 15, 54, 0
33, 283500, Note_on_c, 15, 56, 92
33, 283551, Note_on_c, 15, 56, 0
33, 283560, Note_on_c, 15, 54, 92
33, 283611, Note_on_c, 15, 54, 0
33, 283620, Note_on_c, 15, 52, 92
33, 283671, Note_on_c, 15, 52, 0
33, 283680, Note_on_c, 15, 50, 92
33, 283731, Note_on_c, 15, 50, 0
33, 283740, Note_on_c, 15, 52, 92
33, 283791, Note_on_c, 15, 52, 0
33, 283800, Note_on_c, 15, 50, 92
33, 283851, Note_on_c, 15, 50, 0
33, 283860, Note_on_c, 15, 49, 92
33, 283911, Note_on_c, 15, 49, 0
33, 283920, Note_on_c, 15, 47, 92
33, 283971, Note_on_c, 15, 47, 0
33, 283980, Note_on_c, 15, 49, 92
33, 284031, Note_on_c, 15, 49, 0
33, 284040, Note_on_c, 15, 47, 92
33, 284091, Note_on_c, 15, 47, 0
33, 284100, Note_on_c, 15, 45, 92
33, 284151, Note_on_c, 15, 45, 0
33, 284160, Note_on_c, 15, 52, 92
33, 284519, Note_on_c, 15, 52, 0
33, 284640, Note_on_c, 15, 52, 92
33, 284999, Note_on_c, 15, 52, 0
33, 285120, Note_on_c, 15, 57, 92
33, 285171, Note_on_c, 15, 57, 0
33, 285180, Note_on_c, 15, 59, 92
33, 285231, Note_on_c, 15, 59, 0
33, 285240, Note_on_c, 15, 57, 92
33, 285291, Note_on_c, 15, 57, 0
33, 285300, Note_on_c, 15, 56, 92
33, 285351, Note_on_c, 15, 56, 0
33, 285360, Note_on_c, 15, 54, 92
33, 285411, Note_on_c, 15, 54, 0
33, 285420, Note_on_c, 15, 56, 92
33, 285471, Note_on_c, 15, 56, 0
33, 285480, Note_on_c, 15, 54, 92
33, 285531, Note_on_c, 15, 54, 0
33, 285540, Note_on_c, 15, 52, 92
33, 285591, Note_on_c, 15, 52, 0
33, 285600, Note_on_c, 15, 50, 92
33, 285651, Note_on_c, 15, 50, 0
33, 285660, Note_on_c, 15, 52, 92
33, 285711, Note_on_c, 15, 52, 0
33, 285720, Note_on_c, 15, 50, 92
33, 285771, Note_on_c, 15, 50, 0
33, 285780, Note_on_c, 15, 49, 92
33, 285831, Note_on_c, 15, 49, 0
33, 285840, Note_on_c, 15, 47, 92
33, 285891, Note_on_c, 15, 47, 0
33, 285900, Note_on_c, 15, 49, 92
33, 285951, Note_on_c, 15, 49, 0
33, 285960, Note_on_c, 15, 47, 92
33, 286011, Note_on_c, 15, 47, 0
33, 286020, Note_on_c, 15, 45, 92
33, 286071, Note_on_c, 15, 45, 0
33, 286080, Note_on_c, 15, 45, 92
33, 286544, Note_on_c, 15, 45, 0
33, 286560, Note_on_c, 15, 57, 92
33, 287024, Note_on_c, 15, 57, 0
33, 287040, Note_on_c, 15, 41, 92
33, 288959, Note_on_c, 15, 41, 0
33, 308400, Note_on_c, 15, 58, 32
33, 308579, Note_on_c, 15, 58, 0
33, 308640, Note_on_c, 15, 65, 32
33, 308729, Note_on_c, 15, 65, 0
33, 308760, Note_on_c, 15, 65, 32
33, 308939, Note_on_c, 15, 65, 0
33, 309000, Note_on_c, 15, 65, 32
33, 309089, Note_on_c, 15, 65, 0
33, 309120, Note_on_c, 15, 65, 32
33, 309359, Note_on_c, 15, 65, 0
33, 319920, Note_on_c, 15, 58, 32
33, 320099, Note_on_c, 15, 58, 0
33, 320160, Note_on_c, 15, 65, 32
33, 320249, Note_on_c, 15, 65, 0
33, 320280, Note_on_c, 15, 65, 32
33, 320459, Note_on_c, 15, 65, 0
33, 320520, Note_on_c, 15, 65, 32
33, 320609, Note_on_c, 15, 65, 0
33, 320640, Note_on_c, 15, 58, 32
33, 320879, Note_on_c, 15, 58, 0
33, 331440, Note_on_c, 15, 58, 36
33, 331619, Note_on_c, 15, 58, 0
33, 331680, Note_on_c, 15, 65, 36
33, 331769, Note_on_c, 15, 65, 0
33, 331800, Note_on_c, 15, 65, 37
33, 331979, Note_on_c, 15, 65, 0
33, 332040, Note_on_c, 15, 65, 37
33, 332129, Note_on_c, 15, 65, 0
33, 332160, Note_on_c, 15, 65, 37
33, 332399, Note_on_c, 15, 65, 0
33, 342960, Note_on_c, 15, 58, 56
33, 343139, Note_on_c, 15, 58, 0
33, 343200, Note_on_c, 15, 65, 56
33, 343289, Note_on_c, 15, 65, 0
33, 343320, Note_on_c, 15, 65, 56
33, 343499, Note_on_c, 15, 65, 0
33, 343560, Note_on_c, 15, 65, 56
33, 343649, Note_on_c, 15, 65, 0
33, 343680, Note_on_c, 15, 65, 56
33, 343919, Note_on_c, 15, 65, 0
33, 349800, Note_on_c, 15, 58, 68
33, 350039, Note_on_c, 15, 58, 0
33, 350520, Note_on_c, 15, 56, 68
33, 350759, Note_on_c, 15, 56, 0
33, 351240, Note_on_c, 15, 55, 68
33, 351479, Note_on_c, 15, 55, 0
33, 351480, Note_on_c, 15, 53, 68
33, 351584, Note_on_c, 15, 53, 0
33, 351600, Note_on_c, 15, 51, 68
33, 351944, Note_on_c, 15, 51, 0
33, 351960, Note_on_c, 15, 52, 68
33, 352199, Note_on_c, 15, 52, 0
33, 352680, Note_on_c, 15, 53, 80
33, 352919, Note_on_c, 15, 53, 0
33, 353400, Note_on_c, 15, 53, 86
33, 353639, Note_on_c, 15, 53, 0
33, 354120, Note_on_c, 15, 53, 86
33, 354359, Note_on_c, 15, 53, 0
33, 354480, Note_on_c, 15, 58, 86
33, 354659, Note_on_c, 15, 58, 0
33, 354720, Note_on_c, 15, 53, 86
33, 354809, Note_on_c, 15, 53, 0
33, 354840, Note_on_c, 15, 53, 86
33, 355019, Note_on_c, 15, 53, 0
33, 355080, Note_on_c, 15, 58, 86
33, 355169, Note_on_c, 15, 58, 0
33, 355200, Note_on_c, 15, 58, 92
33, 355439, Note_on_c, 15, 58, 0
33, 355560, Note_on_c, 15, 58, 92
33, 355799, Note_on_c, 15, 58, 0
33, 356280, Note_on_c, 15, 58, 92
33, 356519, Note_on_c, 15, 58, 0
33, 357000, Note_on_c, 15, 51, 92
33, 357239, Note_on_c, 15, 51, 0
33, 357720, Note_on_c, 15, 51, 92
33, 357959, Note_on_c, 15, 51, 0
33, 358440, Note_on_c, 15, 53, 92
33, 358679, Note_on_c, 15, 53, 0
33, 359160, Note_on_c, 15, 53, 92
33, 359399, Note_on_c, 15, 53, 0
33, 359880, Note_on_c, 15, 53, 92
33, 360119, Note_on_c, 15, 53, 0
33, 360240, Note_on_c, 15, 58, 92
33, 360479, Note_on_c, 15, 58, 0
33, 360600, Note_on_c, 15, 53, 92
33, 360839, Note_on_c, 15, 53, 0
33, 360960, Note_on_c, 15, 62, 92
33, 361064, Note_on_c, 15, 62, 0
33, 361080, Note_on_c, 15, 62, 92
33, 361184, Note_on_c, 15, 62, 0
33, 361200, Note_on_c, 15, 62, 92
33, 361304, Note_on_c, 15, 62, 0
33, 361320, Note_on_c, 15, 62, 92
33, 361424, Note_on_c, 15, 62, 0
33, 361440, Note_on_c, 15, 63, 92
33, 361544, Note_on_c, 15, 63, 0
33, 361560, Note_on_c, 15, 65, 92
33, 361664, Note_on_c, 15, 65, 0
33, 361680, Note_on_c, 15, 65, 92
33, 361784, Note_on_c, 15, 65, 0
33, 361800, Note_on_c, 15, 67, 92
33, 361904, Note_on_c, 15, 67, 0
33, 361920, Note_on_c, 15, 65, 92
33, 362024, Note_on_c, 15, 65, 0
33, 362040, Note_on_c, 15, 63, 92
33, 362144, Note_on_c, 15, 63, 0
33, 362160, Note_on_c, 15, 62, 92
33, 362264, Note_on_c, 15, 62, 0
33, 362280, Note_on_c, 15, 60, 92
33, 362384, Note_on_c, 15, 60, 0
33, 362400, Note_on_c, 15, 58, 92
33, 362504, Note_on_c, 15, 58, 0
33, 362520, Note_on_c, 15, 57, 92
33, 362624, Note_on_c, 15, 57, 0
33, 362640, Note_on_c, 15, 58, 92
33, 362744, Note_on_c, 15, 58, 0
33, 362760, Note_on_c, 15, 59, 92
33, 362864, Note_on_c, 15, 59, 0
33, 362880, Note_on_c, 15, 60, 92
33, 362984, Note_on_c, 15, 60, 0
33, 363000, Note_on_c, 15, 62, 92
33, 363104, Note_on_c, 15, 62, 0
33, 363120, Note_on_c, 15, 60, 92
33, 363224, Note_on_c, 15, 60, 0
33, 363240, Note_on_c, 15, 53, 92
33, 363344, Note_on_c, 15, 53, 0
33, 363360, Note_on_c, 15, 53, 92
33, 363464, Note_on_c, 15, 53, 0
33, 363480, Note_on_c, 15, 58, 92
33, 363584, Note_on_c, 15, 58, 0
33, 363600, Note_on_c, 15, 46, 92
33, 363704, Note_on_c, 15, 46, 0
33, 363720, Note_on_c, 15, 46, 92
33, 363824, Note_on_c, 15, 46, 0
33, 363840, Note_on_c, 15, 65, 92
33, 364064, Note_on_c, 15, 65, 0
33, 364080, Note_on_c, 15, 53, 92
33, 364184, Note_on_c, 15, 53, 0
33, 364200, Note_on_c, 15, 53, 104
33, 364259, Note_on_c, 15, 53, 0
33, 364260, Note_on_c, 15, 53, 92
33, 364784, Note_on_c, 15, 53, 0
33, 364800, Note_on_c, 15, 55, 92
33, 364904, Note_on_c, 15, 55, 0
33, 364920, Note_on_c, 15, 55, 104
33, 364979, Note_on_c, 15, 55, 0
33, 364980, Note_on_c, 15, 55, 92
33, 365504, Note_on_c, 15, 55, 0
33, 365520, Note_on_c, 15, 57, 92
33, 365624, Note_on_c, 15, 57, 0
33, 365640, Note_on_c, 15, 62, 92
33, 365864, Note_on_c, 15, 62, 0
33, 365880, Note_on_c, 15, 60, 92
33, 365984, Note_on_c, 15, 60, 0
33, 366000, Note_on_c, 15, 58, 92
33, 366239, Note_on_c, 15, 58, 0
33, 366360, Note_on_c, 15, 57, 92
33, 366599, Note_on_c, 15, 57, 0
33, 366720, Note_on_c, 15, 57, 92
33, 366959, Note_on_c, 15, 57, 0
33, 367080, Note_on_c, 15, 55, 92
33, 367319, Note_on_c, 15, 55, 0
33, 367440, Note_on_c, 15, 55, 92
33, 367679, Note_on_c, 15, 55, 0
33, 367800, Note_on_c, 15, 54, 92
33, 368039, Note_on_c, 15, 54, 0
33, 368160, Note_on_c, 15, 55, 92
33, 368384, Note_on_c, 15, 55, 0
33, 368400, Note_on_c, 15, 67, 92
33, 368504, Note_on_c, 15, 67, 0
33, 368520, Note_on_c, 15, 67, 104
33, 368579, Note_on_c, 15, 67, 0
33, 368580, Note_on_c, 15, 67, 92
33, 369104, Note_on_c, 15, 67, 0
33, 369120, Note_on_c, 15, 69, 92
33, 369224, Note_on_c, 15, 69, 0
33, 369240, Note_on_c, 15, 69, 104
33, 369299, Note_on_c, 15, 69, 0
33, 369300, Note_on_c, 15, 69, 92
33, 369599, Note_on_c, 15, 69, 0
33, 373920, Note_on_c, 15, 63, 92
33, 374024, Note_on_c, 15, 63, 0
33, 374040, Note_on_c, 15, 63, 92
33, 374144, Note_on_c, 15, 63, 0
33, 374160, Note_on_c, 15, 63, 92
33, 374264, Note_on_c, 15, 63, 0
33, 374280, Note_on_c, 15, 63, 92
33, 374384, Note_on_c, 15, 63, 0
33, 374400, Note_on_c, 15, 65, 92
33, 374504, Note_on_c, 15, 65, 0
33, 374520, Note_on_c, 15, 67, 92
33, 374624, Note_on_c, 15, 67, 0
33, 374640, Note_on_c, 15, 67, 92
33, 374744, Note_on_c, 15, 67, 0
33, 374760, Note_on_c, 15, 68, 92
33, 374864, Note_on_c, 15, 68, 0
33, 374880, Note_on_c, 15, 67, 92
33, 374984, Note_on_c, 15, 67, 0
33, 375000, Note_on_c, 15, 65, 92
33, 375104, Note_on_c, 15, 65, 0
33, 375120, Note_on_c, 15, 63, 92
33, 375224, Note_on_c, 15, 63, 0
33, 375240, Note_on_c, 15, 62, 92
33, 375344, Note_on_c, 15, 62, 0
33, 375360, Note_on_c, 15, 60, 92
33, 375464, Note_on_c, 15, 60, 0
33, 375480, Note_on_c, 15, 59, 92
33, 375584, Note_on_c, 15, 59, 0
33, 375600, Note_on_c, 15, 60, 92
33, 375704, Note_on_c, 15, 60, 0
33, 375720, Note_on_c, 15, 60, 92
33, 375824, Note_on_c, 15, 60, 0
33, 375840, Note_on_c, 15, 62, 92
33, 375944, Note_on_c, 15, 62, 0
33, 375960, Note_on_c, 15, 63, 92
33, 376064, Note_on_c, 15, 63, 0
33, 376080, Note_on_c, 15, 62, 92
33, 376184, Note_on_c, 15, 62, 0
33, 376200, Note_on_c, 15, 55, 92
33, 376304, Note_on_c, 15, 55, 0
33, 376320, Note_on_c, 15, 55, 92
33, 376424, Note_on_c, 15, 55, 0
33, 376440, Note_on_c, 15, 60, 92
33, 376544, Note_on_c, 15, 60, 0
33, 376560, Note_on_c, 15, 48, 92
33, 376664, Note_on_c, 15, 48, 0
33, 376680, Note_on_c, 15, 48, 92
33, 376784, Note_on_c, 15, 48, 0
33, 376800, Note_on_c, 15, 62, 92
33, 376904, Note_on_c, 15, 62, 0
33, 376920, Note_on_c, 15, 58, 92
33, 377024, Note_on_c, 15, 58, 0
33, 377040, Note_on_c, 15, 58, 92
33, 377144, Note_on_c, 15, 58, 0
33, 377160, Note_on_c, 15, 65, 92
33, 377264, Note_on_c, 15, 65, 0
33, 377280, Note_on_c, 15, 58, 92
33, 377384, Note_on_c, 15, 58, 0
33, 377400, Note_on_c, 15, 58, 92
33, 377504, Note_on_c, 15, 58, 0
33, 377520, Note_on_c, 15, 63, 92
33, 377624, Note_on_c, 15, 63, 0
33, 377640, Note_on_c, 15, 58, 92
33, 377744, Note_on_c, 15, 58, 0
33, 377760, Note_on_c, 15, 53, 80
33, 377864, Note_on_c, 15, 53, 0
33, 377880, Note_on_c, 15, 58, 80
33, 378104, Note_on_c, 15, 58, 0
33, 378120, Note_on_c, 15, 56, 80
33, 378224, Note_on_c, 15, 56, 0
33, 378240, Note_on_c, 15, 55, 80
33, 378344, Note_on_c, 15, 55, 0
33, 378360, Note_on_c, 15, 56, 80
33, 378464, Note_on_c, 15, 56, 0
33, 378480, Note_on_c, 15, 58, 80
33, 378584, Note_on_c, 15, 58, 0
33, 378600, Note_on_c, 15, 58, 80
33, 378704, Note_on_c, 15, 58, 0
33, 378720, Note_on_c, 15, 58, 80
33, 378824, Note_on_c, 15, 58, 0
33, 378840, Note_on_c, 15, 58, 80
33, 378944, Note_on_c, 15, 58, 0
33, 378960, Note_on_c, 15, 58, 80
33, 379064, Note_on_c, 15, 58, 0
33, 379080, Note_on_c, 15, 60, 80
33, 379184, Note_on_c, 15, 60, 0
33, 379200, Note_on_c, 15, 58, 80
33, 379304, Note_on_c, 15, 58, 0
33, 379320, Note_on_c, 15, 56, 80
33, 379424, Note_on_c, 15, 56, 0
33, 379440, Note_on_c, 15, 55, 80
33, 379544, Note_on_c, 15, 55, 0
33, 379560, Note_on_c, 15, 53, 80
33, 379664, Note_on_c, 15, 53, 0
33, 379680, Note_on_c, 15, 51, 80
33, 379784, Note_on_c, 15, 51, 0
33, 379800, Note_on_c, 15, 53, 80
33, 379904, Note_on_c, 15, 53, 0
33, 379920, Note_on_c, 15, 51, 80
33, 380024, Note_on_c, 15, 51, 0
33, 380040, Note_on_c, 15, 52, 80
33, 380144, Note_on_c, 15, 52, 0
33, 380160, Note_on_c, 15, 53, 80
33, 380264, Note_on_c, 15, 53, 0
33, 380280, Note_on_c, 15, 55, 80
33, 380384, Note_on_c, 15, 55, 0
33, 380400, Note_on_c, 15, 53, 80
33, 380504, Note_on_c, 15, 53, 0
33, 380520, Note_on_c, 15, 48, 80
33, 380624, Note_on_c, 15, 48, 0
33, 380640, Note_on_c, 15, 48, 80
33, 380744, Note_on_c, 15, 48, 0
33, 380760, Note_on_c, 15, 60, 80
33, 380864, Note_on_c, 15, 60, 0
33, 380880, Note_on_c, 15, 48, 80
33, 380984, Note_on_c, 15, 48, 0
33, 381000, Note_on_c, 15, 48, 80
33, 381104, Note_on_c, 15, 48, 0
33, 381120, Note_on_c, 15, 60, 80
33, 381224, Note_on_c, 15, 60, 0
33, 381240, Note_on_c, 15, 53, 80
33, 381344, Note_on_c, 15, 53, 0
33, 381360, Note_on_c, 15, 53, 80
33, 381464, Note_on_c, 15, 53, 0
33, 381480, Note_on_c, 15, 65, 80
33, 381584, Note_on_c, 15, 65, 0
33, 381600, Note_on_c, 15, 53, 80
33, 381704, Note_on_c, 15, 53, 0
33, 381720, Note_on_c, 15, 53, 80
33, 381824, Note_on_c, 15, 53, 0
33, 381840, Note_on_c, 15, 65, 80
33, 381944, Note_on_c, 15, 65, 0
33, 381960, Note_on_c, 15, 53, 80
33, 382064, Note_on_c, 15, 53, 0
33, 382080, Note_on_c, 15, 53, 80
33, 382184, Note_on_c, 15, 53, 0
33, 382200, Note_on_c, 15, 65, 80
33, 382304, Note_on_c, 15, 65, 0
33, 382320, Note_on_c, 15, 53, 80
33, 382424, Note_on_c, 15, 53, 0
33, 382440, Note_on_c, 15, 53, 80
33, 382544, Note_on_c, 15, 53, 0
33, 382560, Note_on_c, 15, 67, 80
33, 382664, Note_on_c, 15, 67, 0
33, 382680, Note_on_c, 15, 55, 80
33, 382784, Note_on_c, 15, 55, 0
33, 382800, Note_on_c, 15, 55, 80
33, 382904, Note_on_c, 15, 55, 0
33, 382920, Note_on_c, 15, 67, 80
33, 383024, Note_on_c, 15, 67, 0
33, 383040, Note_on_c, 15, 55, 80
33, 383144, Note_on_c, 15, 55, 0
33, 383160, Note_on_c, 15, 55, 80
33, 383264, Note_on_c, 15, 55, 0
33, 383280, Note_on_c, 15, 68, 80
33, 383384, Note_on_c, 15, 68, 0
33, 383400, Note_on_c, 15, 56, 80
33, 383504, Note_on_c, 15, 56, 0
33, 383520, Note_on_c, 15, 56, 80
33, 383624, Note_on_c, 15, 56, 0
33, 383640, Note_on_c, 15, 63, 80
33, 383744, Note_on_c, 15, 63, 0
33, 383760, Note_on_c, 15, 51, 80
33, 383864, Note_on_c, 15, 51, 0
33, 383880, Note_on_c, 15, 51, 80
33, 383984, Note_on_c, 15, 51, 0
33, 384000, Note_on_c, 15, 51, 80
33, 384104, Note_on_c, 15, 51, 0
33, 384120, Note_on_c, 15, 51, 80
33, 384224, Note_on_c, 15, 51, 0
33, 384240, Note_on_c, 15, 51, 80
33, 384344, Note_on_c, 15, 51, 0
33, 384360, Note_on_c, 15, 51, 80
33, 384464, Note_on_c, 15, 51, 0
33, 384480, Note_on_c, 15, 53, 80
33, 384584, Note_on_c, 15, 53, 0
33, 384600, Note_on_c, 15, 54, 80
33, 384704, Note_on_c, 15, 54, 0
33, 384720, Note_on_c, 15, 54, 80
33, 384824, Note_on_c, 15, 54, 0
33, 384840, Note_on_c, 15, 54, 80
33, 384944, Note_on_c, 15, 54, 0
33, 384960, Note_on_c, 15, 54, 80
33, 385064, Note_on_c, 15, 54, 0
33, 385080, Note_on_c, 15, 54, 80
33, 385184, Note_on_c, 15, 54, 0
33, 385200, Note_on_c, 15, 53, 80
33, 385304, Note_on_c, 15, 53, 0
33, 385320, Note_on_c, 15, 51, 80
33, 385424, Note_on_c, 15, 51, 0
33, 385440, Note_on_c, 15, 49, 80
33, 385544, Note_on_c, 15, 49, 0
33, 385560, Note_on_c, 15, 49, 80
33, 385664, Note_on_c, 15, 49, 0
33, 385680, Note_on_c, 15, 49, 80
33, 385784, Note_on_c, 15, 49, 0
33, 385800, Note_on_c, 15, 49, 80
33, 385904, Note_on_c, 15, 49, 0
33, 385920, Note_on_c, 15, 51, 80
33, 386024, Note_on_c, 15, 51, 0
33, 386040, Note_on_c, 15, 53, 80
33, 386144, Note_on_c, 15, 53, 0
33, 386160, Note_on_c, 15, 53, 80
33, 386264, Note_on_c, 15, 53, 0
33, 386280, Note_on_c, 15, 53, 80
33, 386384, Note_on_c, 15, 53, 0
33, 386400, Note_on_c, 15, 53, 80
33, 386504, Note_on_c, 15, 53, 0
33, 386520, Note_on_c, 15, 53, 80
33, 386624, Note_on_c, 15, 53, 0
33, 386640, Note_on_c, 15, 51, 80
33, 386744, Note_on_c, 15, 51, 0
33, 386760, Note_on_c, 15, 49, 80
33, 386864, Note_on_c, 15, 49, 0
33, 386880, Note_on_c, 15, 48, 80
33, 386984, Note_on_c, 15, 48, 0
33, 387000, Note_on_c, 15, 48, 80
33, 387104, Note_on_c, 15, 48, 0
33, 387120, Note_on_c, 15, 48, 80
33, 387224, Note_on_c, 15, 48, 0
33, 387240, Note_on_c, 15, 48, 80
33, 387344, Note_on_c, 15, 48, 0
33, 387360, Note_on_c, 15, 49, 80
33, 387464, Note_on_c, 15, 49, 0
33, 387480, Note_on_c, 15, 51, 80
33, 387584, Note_on_c, 15, 51, 0
33, 387600, Note_on_c, 15, 51, 80
33, 387704, Note_on_c, 15, 51, 0
33, 387720, Note_on_c, 15, 53, 80
33, 387824, Note_on_c, 15, 53, 0
33, 387840, Note_on_c, 15, 54, 80
33, 387944, Note_on_c, 15, 54, 0
33, 387960, Note_on_c, 15, 53, 80
33, 388064, Note_on_c, 15, 53, 0
33, 388080, Note_on_c, 15, 65, 80
33, 388184, Note_on_c, 15, 65, 0
33, 388200, Note_on_c, 15, 65, 80
33, 388304, Note_on_c, 15, 65, 0
33, 388320, Note_on_c, 15, 65, 80
33, 388544, Note_on_c, 15, 65, 0
33, 388560, Note_on_c, 15, 46, 80
33, 388664, Note_on_c, 15, 46, 0
33, 388680, Note_on_c, 15, 46, 92
33, 388739, Note_on_c, 15, 46, 0
33, 388740, Note_on_c, 15, 46, 80
33, 389264, Note_on_c, 15, 46, 0
33, 389280, Note_on_c, 15, 48, 80
33, 389384, Note_on_c, 15, 48, 0
33, 389400, Note_on_c, 15, 48, 92
33, 389459, Note_on_c, 15, 48, 0
33, 389460, Note_on_c, 15, 48, 80
33, 389984, Note_on_c, 15, 48, 0
33, 390000, Note_on_c, 15, 49, 80
33, 390104, Note_on_c, 15, 49, 0
33, 390120, Note_on_c, 15, 54, 80
33, 390344, Note_on_c, 15, 54, 0
33, 390360, Note_on_c, 15, 53, 80
33, 390464, Note_on_c, 15, 53, 0
33, 390480, Note_on_c, 15, 51, 80
33, 390704, Note_on_c, 15, 51, 0
33, 390720, Note_on_c, 15, 51, 80
33, 390824, Note_on_c, 15, 51, 0
33, 390840, Note_on_c, 15, 56, 80
33, 391064, Note_on_c, 15, 56, 0
33, 391080, Note_on_c, 15, 54, 80
33, 391184, Note_on_c, 15, 54, 0
33, 391200, Note_on_c, 15, 53, 80
33, 391424, Note_on_c, 15, 53, 0
33, 391440, Note_on_c, 15, 53, 80
33, 391544, Note_on_c, 15, 53, 0
33, 391560, Note_on_c, 15, 58, 80
33, 391784, Note_on_c, 15, 58, 0
33, 391800, Note_on_c, 15, 56, 80
33, 391904, Note_on_c, 15, 56, 0
33, 391920, Note_on_c, 15, 54, 80
33, 392144, Note_on_c, 15, 54, 0
33, 392160, Note_on_c, 15, 54, 80
33, 392264, Note_on_c, 15, 54, 0
33, 392280, Note_on_c, 15, 59, 80
33, 392504, Note_on_c, 15, 59, 0
33, 392520, Note_on_c, 15, 58, 80
33, 392624, Note_on_c, 15, 58, 0
33, 392640, Note_on_c, 15, 56, 80
33, 392864, Note_on_c, 15, 56, 0
33, 392880, Note_on_c, 15, 56, 80
33, 392984, Note_on_c, 15, 56, 0
33, 393000, Note_on_c, 15, 61, 80
33, 393224, Note_on_c, 15, 61, 0
33, 393240, Note_on_c, 15, 59, 80
33, 393344, Note_on_c, 15, 59, 0
33, 393360, Note_on_c, 15, 58, 80
33, 393464, Note_on_c, 15, 58, 0
33, 393480, Note_on_c, 15, 56, 80
33, 393584, Note_on_c, 15, 56, 0
33, 393600, Note_on_c, 15, 54, 80
33, 393704, Note_on_c, 15, 54, 0
33, 393720, Note_on_c, 15, 61, 80
33, 393824, Note_on_c, 15, 61, 0
33, 393840, Note_on_c, 15, 49, 80
33, 393944, Note_on_c, 15, 49, 0
33, 393960, Note_on_c, 15, 49, 80
33, 394064, Note_on_c, 15, 49, 0
33, 394080, Note_on_c, 15, 54, 80
33, 394319, Note_on_c, 15, 54, 0
33, 394440, Note_on_c, 15, 58, 80
33, 394544, Note_on_c, 15, 58, 0
33, 394560, Note_on_c, 15, 58, 80
33, 394664, Note_on_c, 15, 58, 0
33, 394680, Note_on_c, 15, 58, 80
33, 394784, Note_on_c, 15, 58, 0
33, 394800, Note_on_c, 15, 58, 80
33, 394904, Note_on_c, 15, 58, 0
33, 394920, Note_on_c, 15, 59, 80
33, 395024, Note_on_c, 15, 59, 0
33, 395040, Note_on_c, 15, 61, 80
33, 395144, Note_on_c, 15, 61, 0
33, 395160, Note_on_c, 15, 61, 80
33, 395264, Note_on_c, 15, 61, 0
33, 395280, Note_on_c, 15, 63, 80
33, 395384, Note_on_c, 15, 63, 0
33, 395400, Note_on_c, 15, 61, 80
33, 395504, Note_on_c, 15, 61, 0
33, 395520, Note_on_c, 15, 59, 80
33, 395624, Note_on_c, 15, 59, 0
33, 395640, Note_on_c, 15, 58, 80
33, 395744, Note_on_c, 15, 58, 0
33, 395760, Note_on_c, 15, 56, 80
33, 395864, Note_on_c, 15, 56, 0
33, 395880, Note_on_c, 15, 54, 80
33, 395984, Note_on_c, 15, 54, 0
33, 396000, Note_on_c, 15, 54, 80
33, 396104, Note_on_c, 15, 54, 0
33, 396120, Note_on_c, 15, 54, 80
33, 396224, Note_on_c, 15, 54, 0
33, 396240, Note_on_c, 15, 54, 80
33, 396344, Note_on_c, 15, 54, 0
33, 396360, Note_on_c, 15, 56, 80
33, 396464, Note_on_c, 15, 56, 0
33, 396480, Note_on_c, 15, 58, 80
33, 396584, Note_on_c, 15, 58, 0
33, 396600, Note_on_c, 15, 58, 80
33, 396704, Note_on_c, 15, 58, 0
33, 396720, Note_on_c, 15, 59, 80
33, 396824, Note_on_c, 15, 59, 0
33, 396840, Note_on_c, 15, 58, 80
33, 396944, Note_on_c, 15, 58, 0
33, 396960, Note_on_c, 15, 56, 80
33, 397064, Note_on_c, 15, 56, 0
33, 397080, Note_on_c, 15, 54, 80
33, 397184, Note_on_c, 15, 54, 0
33, 397200, Note_on_c, 15, 53, 80
33, 397304, Note_on_c, 15, 53, 0
33, 397320, Note_on_c, 15, 51, 80
33, 397559, Note_on_c, 15, 51, 0
33, 400560, Note_on_c, 15, 58, 80
33, 400664, Note_on_c, 15, 58, 0
33, 400680, Note_on_c, 15, 58, 80
33, 400784, Note_on_c, 15, 58, 0
33, 400800, Note_on_c, 15, 58, 80
33, 400904, Note_on_c, 15, 58, 0
33, 400920, Note_on_c, 15, 58, 80
33, 401024, Note_on_c, 15, 58, 0
33, 401040, Note_on_c, 15, 60, 80
33, 401144, Note_on_c, 15, 60, 0
33, 401160, Note_on_c, 15, 61, 80
33, 401264, Note_on_c, 15, 61, 0
33, 401280, Note_on_c, 15, 58, 80
33, 401384, Note_on_c, 15, 58, 0
33, 401400, Note_on_c, 15, 56, 80
33, 401504, Note_on_c, 15, 56, 0
33, 401520, Note_on_c, 15, 54, 80
33, 401639, Note_on_c, 15, 54, 0
33, 402360, Note_on_c, 15, 54, 80
33, 402464, Note_on_c, 15, 54, 0
33, 402480, Note_on_c, 15, 54, 80
33, 402584, Note_on_c, 15, 54, 0
33, 402600, Note_on_c, 15, 54, 80
33, 402704, Note_on_c, 15, 54, 0
33, 402720, Note_on_c, 15, 55, 80
33, 402824, Note_on_c, 15, 55, 0
33, 402840, Note_on_c, 15, 67, 80
33, 402944, Note_on_c, 15, 67, 0
33, 402960, Note_on_c, 15, 67, 80
33, 403064, Note_on_c, 15, 67, 0
33, 403080, Note_on_c, 15, 67, 80
33, 403184, Note_on_c, 15, 67, 0
33, 403200, Note_on_c, 15, 66, 80
33, 403304, Note_on_c, 15, 66, 0
33, 403320, Note_on_c, 15, 64, 80
33, 403424, Note_on_c, 15, 64, 0
33, 403440, Note_on_c, 15, 64, 80
33, 403544, Note_on_c, 15, 64, 0
33, 403560, Note_on_c, 15, 62, 80
33, 403664, Note_on_c, 15, 62, 0
33, 403680, Note_on_c, 15, 61, 80
33, 403784, Note_on_c, 15, 61, 0
33, 403800, Note_on_c, 15, 66, 80
33, 403904, Note_on_c, 15, 66, 0
33, 403920, Note_on_c, 15, 54, 80
33, 404024, Note_on_c, 15, 54, 0
33, 404040, Note_on_c, 15, 54, 80
33, 404144, Note_on_c, 15, 54, 0
33, 404160, Note_on_c, 15, 62, 80
33, 404264, Note_on_c, 15, 62, 0
33, 404280, Note_on_c, 15, 62, 80
33, 404384, Note_on_c, 15, 62, 0
33, 404400, Note_on_c, 15, 62, 80
33, 404504, Note_on_c, 15, 62, 0
33, 404520, Note_on_c, 15, 62, 80
33, 404624, Note_on_c, 15, 62, 0
33, 404640, Note_on_c, 15, 64, 80
33, 404744, Note_on_c, 15, 64, 0
33, 404760, Note_on_c, 15, 66, 80
33, 404864, Note_on_c, 15, 66, 0
33, 404880, Note_on_c, 15, 66, 80
33, 404984, Note_on_c, 15, 66, 0
33, 405000, Note_on_c, 15, 67, 80
33, 405104, Note_on_c, 15, 67, 0
33, 405120, Note_on_c, 15, 66, 80
33, 405224, Note_on_c, 15, 66, 0
33, 405240, Note_on_c, 15, 64, 80
33, 405344, Note_on_c, 15, 64, 0
33, 405360, Note_on_c, 15, 62, 80
33, 405464, Note_on_c, 15, 62, 0
33, 405480, Note_on_c, 15, 61, 80
33, 405584, Note_on_c, 15, 61, 0
33, 405600, Note_on_c, 15, 60, 80
33, 405704, Note_on_c, 15, 60, 0
33, 405720, Note_on_c, 15, 59, 80
33, 405824, Note_on_c, 15, 59, 0
33, 405840, Note_on_c, 15, 64, 80
33, 405944, Note_on_c, 15, 64, 0
33, 405960, Note_on_c, 15, 64, 92
33, 406019, Note_on_c, 15, 64, 0
33, 406020, Note_on_c, 15, 64, 80
33, 406544, Note_on_c, 15, 64, 0
33, 406560, Note_on_c, 15, 66, 80
33, 406664, Note_on_c, 15, 66, 0
33, 406680, Note_on_c, 15, 66, 92
33, 406739, Note_on_c, 15, 66, 0
33, 406740, Note_on_c, 15, 66, 80
33, 406919, Note_on_c, 15, 66, 0
33, 407040, Note_on_c, 15, 54, 80
33, 407144, Note_on_c, 15, 54, 0
33, 407160, Note_on_c, 15, 54, 80
33, 407264, Note_on_c, 15, 54, 0
33, 407280, Note_on_c, 15, 54, 80
33, 407384, Note_on_c, 15, 54, 0
33, 407400, Note_on_c, 15, 54, 80
33, 407504, Note_on_c, 15, 54, 0
33, 407520, Note_on_c, 15, 55, 80
33, 407624, Note_on_c, 15, 55, 0
33, 407640, Note_on_c, 15, 57, 80
33, 407744, Note_on_c, 15, 57, 0
33, 407760, Note_on_c, 15, 57, 80
33, 407864, Note_on_c, 15, 57, 0
33, 407880, Note_on_c, 15, 59, 80
33, 407984, Note_on_c, 15, 59, 0
33, 408000, Note_on_c, 15, 57, 80
33, 408104, Note_on_c, 15, 57, 0
33, 408120, Note_on_c, 15, 55, 80
33, 408224, Note_on_c, 15, 55, 0
33, 408240, Note_on_c, 15, 54, 80
33, 408344, Note_on_c, 15, 54, 0
33, 408360, Note_on_c, 15, 52, 80
33, 408464, Note_on_c, 15, 52, 0
33, 408480, Note_on_c, 15, 52, 80
33, 408584, Note_on_c, 15, 52, 0
33, 408600, Note_on_c, 15, 52, 80
33, 408704, Note_on_c, 15, 52, 0
33, 408720, Note_on_c, 15, 63, 80
33, 408824, Note_on_c, 15, 63, 0
33, 408840, Note_on_c, 15, 63, 92
33, 408899, Note_on_c, 15, 63, 0
33, 408900, Note_on_c, 15, 63, 80
33, 409424, Note_on_c, 15, 63, 0
33, 409440, Note_on_c, 15, 63, 80
33, 409544, Note_on_c, 15, 63, 0
33, 409560, Note_on_c, 15, 64, 80
33, 409784, Note_on_c, 15, 64, 0
33, 409800, Note_on_c, 15, 64, 80
33, 409904, Note_on_c, 15, 64, 0
33, 409920, Note_on_c, 15, 61, 80
33, 410144, Note_on_c, 15, 61, 0
33, 410160, Note_on_c, 15, 61, 80
33, 410264, Note_on_c, 15, 61, 0
33, 410280, Note_on_c, 15, 62, 80
33, 410504, Note_on_c, 15, 62, 0
33, 410520, Note_on_c, 15, 62, 80
33, 410624, Note_on_c, 15, 62, 0
33, 410640, Note_on_c, 15, 59, 80
33, 410864, Note_on_c, 15, 59, 0
33, 410880, Note_on_c, 15, 59, 80
33, 410984, Note_on_c, 15, 59, 0
33, 411000, Note_on_c, 15, 61, 80
33, 411224, Note_on_c, 15, 61, 0
33, 411240, Note_on_c, 15, 61, 80
33, 411344, Note_on_c, 15, 61, 0
33, 411360, Note_on_c, 15, 58, 80
33, 411584, Note_on_c, 15, 58, 0
33, 411600, Note_on_c, 15, 58, 80
33, 411704, Note_on_c, 15, 58, 0
33, 411720, Note_on_c, 15, 59, 80
33, 411944, Note_on_c, 15, 59, 0
33, 411960, Note_on_c, 15, 59, 80
33, 412064, Note_on_c, 15, 59, 0
33, 412080, Note_on_c, 15, 64, 80
33, 412184, Note_on_c, 15, 64, 0
33, 412200, Note_on_c, 15, 64, 80
33, 412304, Note_on_c, 15, 64, 0
33, 412320, Note_on_c, 15, 64, 80
33, 412424, Note_on_c, 15, 64, 0
33, 412440, Note_on_c, 15, 62, 80
33, 412544, Note_on_c, 15, 62, 0
33, 412560, Note_on_c, 15, 61, 80
33, 412664, Note_on_c, 15, 61, 0
33, 412680, Note_on_c, 15, 59, 80
33, 412784, Note_on_c, 15, 59, 0
33, 412800, Note_on_c, 15, 58, 80
33, 412904, Note_on_c, 15, 58, 0
33, 412920, Note_on_c, 15, 59, 80
33, 413024, Note_on_c, 15, 59, 0
33, 413040, Note_on_c, 15, 61, 80
33, 413144, Note_on_c, 15, 61, 0
33, 413160, Note_on_c, 15, 61, 92
33, 413264, Note_on_c, 15, 61, 0
33, 413280, Note_on_c, 15, 61, 80
33, 413384, Note_on_c, 15, 61, 0
33, 413400, Note_on_c, 15, 61, 80
33, 413504, Note_on_c, 15, 61, 0
33, 413520, Note_on_c, 15, 61, 80
33, 413624, Note_on_c, 15, 61, 0
33, 413640, Note_on_c, 15, 62, 80
33, 413744, Note_on_c, 15, 62, 0
33, 413760, Note_on_c, 15, 61, 80
33, 413864, Note_on_c, 15, 61, 0
33, 413880, Note_on_c, 15, 59, 80
33, 413984, Note_on_c, 15, 59, 0
33, 414000, Note_on_c, 15, 58, 80
33, 414104, Note_on_c, 15, 58, 0
33, 414120, Note_on_c, 15, 56, 80
33, 414224, Note_on_c, 15, 56, 0
33, 414240, Note_on_c, 15, 44, 80
33, 414464, Note_on_c, 15, 44, 0
33, 414480, Note_on_c, 15, 56, 80
33, 414584, Note_on_c, 15, 56, 0
33, 414600, Note_on_c, 15, 56, 92
33, 414659, Note_on_c, 15, 56, 0
33, 414660, Note_on_c, 15, 56, 80
33, 415184, Note_on_c, 15, 56, 0
33, 415200, Note_on_c, 15, 56, 80
33, 415304, Note_on_c, 15, 56, 0
33, 415320, Note_on_c, 15, 58, 92
33, 415379, Note_on_c, 15, 58, 0
33, 415380, Note_on_c, 15, 58, 80
33, 415559, Note_on_c, 15, 58, 0
33, 415680, Note_on_c, 15, 42, 80
33, 415904, Note_on_c, 15, 42, 0
33, 415920, Note_on_c, 15, 54, 80
33, 416024, Note_on_c, 15, 54, 0
33, 416040, Note_on_c, 15, 54, 92
33, 416099, Note_on_c, 15, 54, 0
33, 416100, Note_on_c, 15, 54, 80
33, 416624, Note_on_c, 15, 54, 0
33, 416640, Note_on_c, 15, 54, 80
33, 416744, Note_on_c, 15, 54, 0
33, 416760, Note_on_c, 15, 56, 92
33, 416819, Note_on_c, 15, 56, 0
33, 416820, Note_on_c, 15, 56, 80
33, 416999, Note_on_c, 15, 56, 0
33, 417120, Note_on_c, 15, 59, 80
33, 417224, Note_on_c, 15, 59, 0
33, 417240, Note_on_c, 15, 61, 80
33, 417344, Note_on_c, 15, 61, 0
33, 417360, Note_on_c, 15, 62, 80
33, 417464, Note_on_c, 15, 62, 0
33, 417480, Note_on_c, 15, 62, 92
33, 417584, Note_on_c, 15, 62, 0
33, 417600, Note_on_c, 15, 62, 80
33, 417704, Note_on_c, 15, 62, 0
33, 417720, Note_on_c, 15, 62, 80
33, 417824, Note_on_c, 15, 62, 0
33, 417840, Note_on_c, 15, 62, 80
33, 417944, Note_on_c, 15, 62, 0
33, 417960, Note_on_c, 15, 64, 80
33, 418064, Note_on_c, 15, 64, 0
33, 418080, Note_on_c, 15, 62, 80
33, 418184, Note_on_c, 15, 62, 0
33, 418200, Note_on_c, 15, 61, 80
33, 418304, Note_on_c, 15, 61, 0
33, 418320, Note_on_c, 15, 62, 80
33, 418424, Note_on_c, 15, 62, 0
33, 418440, Note_on_c, 15, 61, 80
33, 418544, Note_on_c, 15, 61, 0
33, 418560, Note_on_c, 15, 64, 80
33, 418664, Note_on_c, 15, 64, 0
33, 418680, Note_on_c, 15, 66, 80
33, 418784, Note_on_c, 15, 66, 0
33, 418800, Note_on_c, 15, 64, 80
33, 418904, Note_on_c, 15, 64, 0
33, 418920, Note_on_c, 15, 62, 80
33, 419024, Note_on_c, 15, 62, 0
33, 419040, Note_on_c, 15, 64, 80
33, 419144, Note_on_c, 15, 64, 0
33, 419160, Note_on_c, 15, 62, 80
33, 419264, Note_on_c, 15, 62, 0
33, 419280, Note_on_c, 15, 66, 80
33, 419384, Note_on_c, 15, 66, 0
33, 419400, Note_on_c, 15, 67, 80
33, 419504, Note_on_c, 15, 67, 0
33, 419520, Note_on_c, 15, 66, 80
33, 419624, Note_on_c, 15, 66, 0
33, 419640, Note_on_c, 15, 64, 80
33, 419744, Note_on_c, 15, 64, 0
33, 419760, Note_on_c, 15, 66, 80
33, 419864, Note_on_c, 15, 66, 0
33, 419880, Note_on_c, 15, 64, 80
33, 419984, Note_on_c, 15, 64, 0
33, 420000, Note_on_c, 15, 55, 80
33, 420104, Note_on_c, 15, 55, 0
33, 420120, Note_on_c, 15, 57, 80
33, 420224, Note_on_c, 15, 57, 0
33, 420240, Note_on_c, 15, 55, 80
33, 420344, Note_on_c, 15, 55, 0
33, 420360, Note_on_c, 15, 54, 80
33, 420464, Note_on_c, 15, 54, 0
33, 420480, Note_on_c, 15, 55, 80
33, 420584, Note_on_c, 15, 55, 0
33, 420600, Note_on_c, 15, 54, 80
33, 420704, Note_on_c, 15, 54, 0
33, 420720, Note_on_c, 15, 57, 80
33, 420824, Note_on_c, 15, 57, 0
33, 420840, Note_on_c, 15, 59, 80
33, 420944, Note_on_c, 15, 59, 0
33, 420960, Note_on_c, 15, 57, 80
33, 421064, Note_on_c, 15, 57, 0
33, 421080, Note_on_c, 15, 55, 80
33, 421184, Note_on_c, 15, 55, 0
33, 421200, Note_on_c, 15, 57, 80
33, 421304, Note_on_c, 15, 57, 0
33, 421320, Note_on_c, 15, 55, 80
33, 421424, Note_on_c, 15, 55, 0
33, 421440, Note_on_c, 15, 55, 80
33, 421544, Note_on_c, 15, 55, 0
33, 421560, Note_on_c, 15, 57, 80
33, 421664, Note_on_c, 15, 57, 0
33, 421680, Note_on_c, 15, 55, 80
33, 421784, Note_on_c, 15, 55, 0
33, 421800, Note_on_c, 15, 43, 80
33, 421904, Note_on_c, 15, 43, 0
33, 421920, Note_on_c, 15, 45, 80
33, 422024, Note_on_c, 15, 45, 0
33, 422040, Note_on_c, 15, 43, 80
33, 422144, Note_on_c, 15, 43, 0
33, 422160, Note_on_c, 15, 43, 80
33, 422264, Note_on_c, 15, 43, 0
33, 422280, Note_on_c, 15, 45, 80
33, 422384, Note_on_c, 15, 45, 0
33, 422400, Note_on_c, 15, 43, 80
33, 422504, Note_on_c, 15, 43, 0
33, 422520, Note_on_c, 15, 42, 80
33, 422624, Note_on_c, 15, 42, 0
33, 422640, Note_on_c, 15, 43, 80
33, 422744, Note_on_c, 15, 43, 0
33, 422760, Note_on_c, 15, 42, 80
33, 422864, Note_on_c, 15, 42, 0
33, 422880, Note_on_c, 15, 42, 92
33, 423104, Note_on_c, 15, 42, 0
33, 423120, Note_on_c, 15, 54, 92
33, 423224, Note_on_c, 15, 54, 0
33, 423240, Note_on_c, 15, 66, 104
33, 423299, Note_on_c, 15, 66, 0
33, 423300, Note_on_c, 15, 66, 92
33, 423824, Note_on_c, 15, 66, 0
33, 423840, Note_on_c, 15, 66, 92
33, 423944, Note_on_c, 15, 66, 0
33, 423960, Note_on_c, 15, 54, 104
33, 424019, Note_on_c, 15, 54, 0
33, 424020, Note_on_c, 15, 54, 92
33, 424544, Note_on_c, 15, 54, 0
33, 424560, Note_on_c, 15, 54, 92
33, 424664, Note_on_c, 15, 54, 0
33, 424680, Note_on_c, 15, 42, 104
33, 424739, Note_on_c, 15, 42, 0
33, 424740, Note_on_c, 15, 42, 92
33, 425264, Note_on_c, 15, 42, 0
33, 425280, Note_on_c, 15, 42, 92
33, 425384, Note_on_c, 15, 42, 0
33, 425400, Note_on_c, 15, 54, 104
33, 425459, Note_on_c, 15, 54, 0
33, 425460, Note_on_c, 15, 54, 92
33, 425984, Note_on_c, 15, 54, 0
33, 426000, Note_on_c, 15, 54, 92
33, 426104, Note_on_c, 15, 54, 0
33, 426120, Note_on_c, 15, 66, 104
33, 426179, Note_on_c, 15, 66, 0
33, 426180, Note_on_c, 15, 66, 92
33, 426704, Note_on_c, 15, 66, 0
33, 426720, Note_on_c, 15, 66, 92
33, 426824, Note_on_c, 15, 66, 0
33, 426840, Note_on_c, 15, 54, 104
33, 426899, Note_on_c, 15, 54, 0
33, 426900, Note_on_c, 15, 54, 92
33, 427424, Note_on_c, 15, 54, 0
33, 427440, Note_on_c, 15, 54, 92
33, 427544, Note_on_c, 15, 54, 0
33, 427560, Note_on_c, 15, 42, 104
33, 427619, Note_on_c, 15, 42, 0
33, 427620, Note_on_c, 15, 42, 92
33, 428144, Note_on_c, 15, 42, 0
33, 428160, Note_on_c, 15, 42, 92
33, 428264, Note_on_c, 15, 42, 0
33, 428280, Note_on_c, 15, 54, 104
33, 428339, Note_on_c, 15, 54, 0
33, 428340, Note_on_c, 15, 54, 92
33, 428879, Note_on_c, 15, 54, 0
33, 431520, Note_on_c, 15, 47, 44
33, 432239, Note_on_c, 15, 47, 0
33, 432240, Note_on_c, 15, 47, 44
33, 432959, Note_on_c, 15, 47, 0
33, 435840, Note_on_c, 15, 47, 32
33, 436559, Note_on_c, 15, 47, 0
33, 436560, Note_on_c, 15, 47, 32
33, 437279, Note_on_c, 15, 47, 0
33, 439800, Control_c, 15, 11, 29
33, 440160, Note_on_c, 15, 45, 92
33, 440160, Control_c, 15, 11, 29
33, 440184, Control_c, 15, 11, 31
33, 440208, Control_c, 15, 11, 32
33, 440232, Control_c, 15, 11, 34
33, 440256, Control_c, 15, 11, 36
33, 440280, Control_c, 15, 11, 37
33, 440304, Control_c, 15, 11, 39
33, 440328, Control_c, 15, 11, 40
33, 440352, Control_c, 15, 11, 42
33, 440376, Control_c, 15, 11, 44
33, 440400, Control_c, 15, 11, 45
33, 440424, Control_c, 15, 11, 47
33, 440448, Control_c, 15, 11, 49
33, 440472, Control_c, 15, 11, 50
33, 440496, Control_c, 15, 11, 52
33, 440520, Control_c, 15, 11, 54
33, 440544, Control_c, 15, 11, 55
33, 440568, Control_c, 15, 11, 57
33, 440592, Control_c, 15, 11, 58
33, 440616, Control_c, 15, 11, 60
33, 440640, Control_c, 15, 11, 62
33, 440664, Control_c, 15, 11, 63
33, 440688, Control_c, 15, 11, 65
33, 440712, Control_c, 15, 11, 67
33, 440736, Control_c, 15, 11, 68
33, 440760, Control_c, 15, 11, 70
33, 440784, Control_c, 15, 11, 71
33, 440808, Control_c, 15, 11, 73
33, 440832, Control_c, 15, 11, 75
33, 440856, Control_c, 15, 11, 76
33, 440879, Note_on_c, 15, 45, 0
33, 440880, Note_on_c, 15, 45, 92
33, 440880, Control_c, 15, 11, 78
33, 440904, Control_c, 15, 11, 80
33, 440928, Control_c, 15, 11, 81
33, 440952, Control_c, 15, 11, 83
33, 440976, Control_c, 15, 11, 85
33, 441000, Control_c, 15, 11, 86
33, 441024, Control_c, 15, 11, 88
33, 441048, Control_c, 15, 11, 89
33, 441072, Control_c, 15, 11, 91
33, 441096, Control_c, 15, 11, 93
33, 441120, Control_c, 15, 11, 94
33, 441144, Control_c, 15, 11, 96
33, 441168, Control_c, 15, 11, 98
33, 441192, Control_c, 15, 11, 99
33, 441216, Control_c, 15, 11, 101
33, 441240, Control_c, 15, 11, 103
33, 441264, Control_c, 15, 11, 104
33, 441288, Control_c, 15, 11, 106
33, 441312, Control_c, 15, 11, 107
33, 441336, Control_c, 15, 11, 109
33, 441359, Note_on_c, 15, 45, 0
33, 441360, Control_c, 15, 11, 111
33, 441360, Note_on_c, 15, 47, 92
33, 441384, Control_c, 15, 11, 112
33, 441408, Control_c, 15, 11, 114
33, 441432, Control_c, 15, 11, 116
33, 441456, Control_c, 15, 11, 117
33, 441479, Note_on_c, 15, 47, 0
33, 441480, Note_on_c, 15, 49, 92
33, 441480, Control_c, 15, 11, 119
33, 441504, Control_c, 15, 11, 120
33, 441528, Control_c, 15, 11, 122
33, 441552, Control_c, 15, 11, 124
33, 441576, Control_c, 15, 11, 127
33, 441584, Note_on_c, 15, 49, 0
33, 441600, Note_on_c, 15, 50, 92
33, 441689, Note_on_c, 15, 50, 0
33, 441720, Note_on_c, 15, 62, 92
33, 441809, Note_on_c, 15, 62, 0
33, 441840, Note_on_c, 15, 61, 92
33, 441929, Note_on_c, 15, 61, 0
33, 441960, Note_on_c, 15, 59, 92
33, 442049, Note_on_c, 15, 59, 0
33, 442080, Note_on_c, 15, 57, 92
33, 442169, Note_on_c, 15, 57, 0
33, 442200, Note_on_c, 15, 55, 92
33, 442289, Note_on_c, 15, 55, 0
33, 442320, Note_on_c, 15, 54, 92
33, 442409, Note_on_c, 15, 54, 0
33, 442440, Note_on_c, 15, 52, 92
33, 442529, Note_on_c, 15, 52, 0
33, 442560, Note_on_c, 15, 50, 92
33, 442649, Note_on_c, 15, 50, 0
33, 442680, Note_on_c, 15, 49, 92
33, 442769, Note_on_c, 15, 49, 0
33, 442800, Note_on_c, 15, 47, 92
33, 442889, Note_on_c, 15, 47, 0
33, 442920, Note_on_c, 15, 57, 92
33, 443009, Note_on_c, 15, 57, 0
33, 443040, Note_on_c, 15, 45, 92
33, 443129, Note_on_c, 15, 45, 0
33, 443160, Note_on_c, 15, 57, 92
33, 443249, Note_on_c, 15, 57, 0
33, 443280, Note_on_c, 15, 59, 92
33, 443369, Note_on_c, 15, 59, 0
33, 443400, Note_on_c, 15, 61, 92
33, 443489, Note_on_c, 15, 61, 0
33, 443520, Note_on_c, 15, 62, 92
33, 443609, Note_on_c, 15, 62, 0
33, 443640, Note_on_c, 15, 64, 92
33, 443729, Note_on_c, 15, 64, 0
33, 443760, Note_on_c, 15, 66, 92
33, 443849, Note_on_c, 15, 66, 0
33, 443880, Note_on_c, 15, 55, 92
33, 443969, Note_on_c, 15, 55, 0
33, 444000, Note_on_c, 15, 57, 92
33, 444089, Note_on_c, 15, 57, 0
33, 444120, Note_on_c, 15, 59, 92
33, 444209, Note_on_c, 15, 59, 0
33, 444240, Note_on_c, 15, 57, 92
33, 444329, Note_on_c, 15, 57, 0
33, 444360, Note_on_c, 15, 61, 92
33, 444449, Note_on_c, 15, 61, 0
33, 444480, Note_on_c, 15, 62, 92
33, 444569, Note_on_c, 15, 62, 0
33, 444600, Note_on_c, 15, 57, 92
33, 444689, Note_on_c, 15, 57, 0
33, 444720, Note_on_c, 15, 55, 92
33, 444809, Note_on_c, 15, 55, 0
33, 444840, Note_on_c, 15, 54, 92
33, 444929, Note_on_c, 15, 54, 0
33, 444960, Note_on_c, 15, 52, 92
33, 445049, Note_on_c, 15, 52, 0
33, 445080, Note_on_c, 15, 50, 92
33, 445169, Note_on_c, 15, 50, 0
33, 445200, Note_on_c, 15, 49, 92
33, 445289, Note_on_c, 15, 49, 0
33, 445320, Note_on_c, 15, 50, 92
33, 445409, Note_on_c, 15, 50, 0
33, 445440, Note_on_c, 15, 47, 92
33, 445529, Note_on_c, 15, 47, 0
33, 445560, Note_on_c, 15, 45, 92
33, 445649, Note_on_c, 15, 45, 0
33, 445680, Note_on_c, 15, 47, 92
33, 445769, Note_on_c, 15, 47, 0
33, 445800, Note_on_c, 15, 44, 92
33, 445889, Note_on_c, 15, 44, 0
33, 445920, Note_on_c, 15, 45, 92
33, 446009, Note_on_c, 15, 45, 0
33, 446040, Note_on_c, 15, 57, 92
33, 446129, Note_on_c, 15, 57, 0
33, 446160, Note_on_c, 15, 59, 92
33, 446249, Note_on_c, 15, 59, 0
33, 446280, Note_on_c, 15, 61, 92
33, 446369, Note_on_c, 15, 61, 0
33, 446400, Note_on_c, 15, 62, 92
33, 446489, Note_on_c, 15, 62, 0
33, 446520, Note_on_c, 15, 64, 92
33, 446609, Note_on_c, 15, 64, 0
33, 446640, Note_on_c, 15, 66, 92
33, 446729, Note_on_c, 15, 66, 0
33, 446760, Note_on_c, 15, 67, 92
33, 446849, Note_on_c, 15, 67, 0
33, 446880, Note_on_c, 15, 57, 92
33, 446969, Note_on_c, 15, 57, 0
33, 447000, Note_on_c, 15, 59, 92
33, 447089, Note_on_c, 15, 59, 0
33, 447120, Note_on_c, 15, 57, 92
33, 447209, Note_on_c, 15, 57, 0
33, 447240, Note_on_c, 15, 61, 92
33, 447329, Note_on_c, 15, 61, 0
33, 447360, Note_on_c, 15, 62, 92
33, 447449, Note_on_c, 15, 62, 0
33, 447480, Note_on_c, 15, 59, 92
33, 447569, Note_on_c, 15, 59, 0
33, 447600, Note_on_c, 15, 57, 92
33, 447689, Note_on_c, 15, 57, 0
33, 447720, Note_on_c, 15, 55, 92
33, 447809, Note_on_c, 15, 55, 0
33, 447840, Note_on_c, 15, 54, 92
33, 447929, Note_on_c, 15, 54, 0
33, 447960, Note_on_c, 15, 52, 92
33, 448049, Note_on_c, 15, 52, 0
33, 448080, Note_on_c, 15, 50, 92
33, 448169, Note_on_c, 15, 50, 0
33, 448200, Note_on_c, 15, 52, 92
33, 448289, Note_on_c, 15, 52, 0
33, 448320, Note_on_c, 15, 50, 92
33, 448409, Note_on_c, 15, 50, 0
33, 448440, Note_on_c, 15, 48, 92
33, 448529, Note_on_c, 15, 48, 0
33, 448560, Note_on_c, 15, 47, 92
33, 448649, Note_on_c, 15, 47, 0
33, 448680, Note_on_c, 15, 45, 92
33, 448769, Note_on_c, 15, 45, 0
33, 448800, Note_on_c, 15, 43, 92
33, 448889, Note_on_c, 15, 43, 0
33, 448920, Note_on_c, 15, 57, 92
33, 449009, Note_on_c, 15, 57, 0
33, 449040, Note_on_c, 15, 59, 92
33, 449129, Note_on_c, 15, 59, 0
33, 449160, Note_on_c, 15, 60, 92
33, 449249, Note_on_c, 15, 60, 0
33, 449280, Note_on_c, 15, 62, 92
33, 449369, Note_on_c, 15, 62, 0
33, 449400, Note_on_c, 15, 64, 92
33, 449489, Note_on_c, 15, 64, 0
33, 449520, Note_on_c, 15, 66, 92
33, 449609, Note_on_c, 15, 66, 0
33, 449640, Note_on_c, 15, 67, 92
33, 449729, Note_on_c, 15, 67, 0
33, 449760, Note_on_c, 15, 57, 92
33, 449849, Note_on_c, 15, 57, 0
33, 449880, Note_on_c, 15, 59, 92
33, 449969, Note_on_c, 15, 59, 0
33, 450000, Note_on_c, 15, 43, 92
33, 450089, Note_on_c, 15, 43, 0
33, 450120, Note_on_c, 15, 43, 92
33, 450209, Note_on_c, 15, 43, 0
33, 450240, Note_on_c, 15, 45, 92
33, 450329, Note_on_c, 15, 45, 0
33, 450360, Note_on_c, 15, 67, 92
33, 450449, Note_on_c, 15, 67, 0
33, 450480, Note_on_c, 15, 66, 92
33, 450569, Note_on_c, 15, 66, 0
33, 450600, Note_on_c, 15, 64, 92
33, 450689, Note_on_c, 15, 64, 0
33, 450720, Note_on_c, 15, 62, 92
33, 450809, Note_on_c, 15, 62, 0
33, 450840, Note_on_c, 15, 61, 92
33, 450929, Note_on_c, 15, 61, 0
33, 450960, Note_on_c, 15, 59, 92
33, 451049, Note_on_c, 15, 59, 0
33, 451080, Note_on_c, 15, 57, 92
33, 451169, Note_on_c, 15, 57, 0
33, 451200, Note_on_c, 15, 62, 92
33, 451289, Note_on_c, 15, 62, 0
33, 451320, Note_on_c, 15, 57, 92
33, 451409, Note_on_c, 15, 57, 0
33, 451440, Note_on_c, 15, 54, 92
33, 451529, Note_on_c, 15, 54, 0
33, 451560, Note_on_c, 15, 50, 92
33, 451649, Note_on_c, 15, 50, 0
33, 451680, Note_on_c, 15, 47, 92
33, 451769, Note_on_c, 15, 47, 0
33, 451800, Note_on_c, 15, 45, 92
33, 451889, Note_on_c, 15, 45, 0
33, 451920, Note_on_c, 15, 44, 92
33, 452009, Note_on_c, 15, 44, 0
33, 452040, Note_on_c, 15, 45, 92
33, 452129, Note_on_c, 15, 45, 0
33, 452160, Note_on_c, 15, 57, 92
33, 452249, Note_on_c, 15, 57, 0
33, 452280, Note_on_c, 15, 57, 92
33, 452369, Note_on_c, 15, 57, 0
33, 452400, Note_on_c, 15, 50, 92
33, 452489, Note_on_c, 15, 50, 0
33, 452520, Note_on_c, 15, 57, 92
33, 452609, Note_on_c, 15, 57, 0
33, 452640, Note_on_c, 15, 56, 92
33, 452729, Note_on_c, 15, 56, 0
33, 452760, Note_on_c, 15, 57, 92
33, 452849, Note_on_c, 15, 57, 0
33, 452880, Note_on_c, 15, 54, 92
33, 452969, Note_on_c, 15, 54, 0
33, 453000, Note_on_c, 15, 50, 92
33, 453089, Note_on_c, 15, 50, 0
33, 453120, Note_on_c, 15, 45, 92
33, 453209, Note_on_c, 15, 45, 0
33, 453240, Note_on_c, 15, 57, 92
33, 453329, Note_on_c, 15, 57, 0
33, 453360, Note_on_c, 15, 56, 92
33, 453449, Note_on_c, 15, 56, 0
33, 453480, Note_on_c, 15, 57, 92
33, 453569, Note_on_c, 15, 57, 0
33, 453600, Note_on_c, 15, 52, 92
33, 453689, Note_on_c, 15, 52, 0
33, 453720, Note_on_c, 15, 49, 92
33, 453809, Note_on_c, 15, 49, 0
33, 453840, Note_on_c, 15, 45, 92
33, 453929, Note_on_c, 15, 45, 0
33, 453960, Note_on_c, 15, 57, 92
33, 454049, Note_on_c, 15, 57, 0
33, 454080, Note_on_c, 15, 56, 92
33, 454169, Note_on_c, 15, 56, 0
33, 454200, Note_on_c, 15, 57, 92
33, 454289, Note_on_c, 15, 57, 0
33, 454320, Note_on_c, 15, 54, 92
33, 454409, Note_on_c, 15, 54, 0
33, 454440, Note_on_c, 15, 50, 92
33, 454529, Note_on_c, 15, 50, 0
33, 454560, Note_on_c, 15, 45, 92
33, 454649, Note_on_c, 15, 45, 0
33, 454680, Note_on_c, 15, 57, 92
33, 454769, Note_on_c, 15, 57, 0
33, 454800, Note_on_c, 15, 59, 92
33, 454889, Note_on_c, 15, 59, 0
33, 454920, Note_on_c, 15, 57, 92
33, 455009, Note_on_c, 15, 57, 0
33, 455040, Note_on_c, 15, 45, 92
33, 455129, Note_on_c, 15, 45, 0
33, 455160, Note_on_c, 15, 45, 92
33, 455249, Note_on_c, 15, 45, 0
33, 455280, Note_on_c, 15, 45, 92
33, 455369, Note_on_c, 15, 45, 0
33, 455400, Note_on_c, 15, 57, 92
33, 455489, Note_on_c, 15, 57, 0
33, 455520, Note_on_c, 15, 56, 92
33, 455609, Note_on_c, 15, 56, 0
33, 455640, Note_on_c, 15, 57, 92
33, 455729, Note_on_c, 15, 57, 0
33, 455760, Note_on_c, 15, 54, 92
33, 455849, Note_on_c, 15, 54, 0
33, 455880, Note_on_c, 15, 50, 92
33, 455969, Note_on_c, 15, 50, 0
33, 456000, Note_on_c, 15, 45, 92
33, 456089, Note_on_c, 15, 45, 0
33, 456120, Note_on_c, 15, 57, 92
33, 456209, Note_on_c, 15, 57, 0
33, 456240, Note_on_c, 15, 59, 92
33, 456329, Note_on_c, 15, 59, 0
33, 456360, Note_on_c, 15, 57, 92
33, 456449, Note_on_c, 15, 57, 0
33, 456480, Note_on_c, 15, 45, 92
33, 456569, Note_on_c, 15, 45, 0
33, 456600, Note_on_c, 15, 45, 92
33, 456689, Note_on_c, 15, 45, 0
33, 456720, Note_on_c, 15, 46, 92
33, 456809, Note_on_c, 15, 46, 0
33, 456840, Note_on_c, 15, 58, 92
33, 456929, Note_on_c, 15, 58, 0
33, 456960, Note_on_c, 15, 58, 92
33, 457049, Note_on_c, 15, 58, 0
33, 457080, Note_on_c, 15, 42, 92
33, 457169, Note_on_c, 15, 42, 0
33, 457200, Note_on_c, 15, 54, 92
33, 457289, Note_on_c, 15, 54, 0
33, 457320, Note_on_c, 15, 54, 92
33, 457409, Note_on_c, 15, 54, 0
33, 457440, Note_on_c, 15, 47, 92
33, 457529, Note_on_c, 15, 47, 0
33, 457560, Note_on_c, 15, 59, 92
33, 457649, Note_on_c, 15, 59, 0
33, 457680, Note_on_c, 15, 59, 92
33, 457769, Note_on_c, 15, 59, 0
33, 457800, Note_on_c, 15, 40, 92
33, 457889, Note_on_c, 15, 40, 0
33, 457920, Note_on_c, 15, 52, 92
33, 458009, Note_on_c, 15, 52, 0
33, 458040, Note_on_c, 15, 52, 92
33, 458129, Note_on_c, 15, 52, 0
33, 458160, Note_on_c, 15, 45, 92
33, 458249, Note_on_c, 15, 45, 0
33, 458280, Note_on_c, 15, 57, 92
33, 458369, Note_on_c, 15, 57, 0
33, 458400, Note_on_c, 15, 57, 92
33, 458489, Note_on_c, 15, 57, 0
33, 458520, Note_on_c, 15, 45, 92
33, 458609, Note_on_c, 15, 45, 0
33, 458640, Note_on_c, 15, 57, 92
33, 458729, Note_on_c, 15, 57, 0
33, 458760, Note_on_c, 15, 57, 92
33, 458849, Note_on_c, 15, 57, 0
33, 458880, Note_on_c, 15, 50, 92
33, 458969, Note_on_c, 15, 50, 0
33, 459000, Note_on_c, 15, 62, 92
33, 459089, Note_on_c, 15, 62, 0
33, 459120, Note_on_c, 15, 60, 92
33, 459209, Note_on_c, 15, 60, 0
33, 459240, Note_on_c, 15, 59, 92
33, 459329, Note_on_c, 15, 59, 0
33, 459360, Note_on_c, 15, 57, 92
33, 459449, Note_on_c, 15, 57, 0
33, 459480, Note_on_c, 15, 55, 92
33, 459569, Note_on_c, 15, 55, 0
33, 459600, Note_on_c, 15, 54, 92
33, 459689, Note_on_c, 15, 54, 0
33, 459720, Note_on_c, 15, 52, 92
33, 459809, Note_on_c, 15, 52, 0
33, 459840, Note_on_c, 15, 50, 92
33, 459929, Note_on_c, 15, 50, 0
33, 459960, Note_on_c, 15, 48, 92
33, 460049, Note_on_c, 15, 48, 0
33, 460080, Note_on_c, 15, 47, 92
33, 460169, Note_on_c, 15, 47, 0
33, 460200, Note_on_c, 15, 45, 92
33, 460289, Note_on_c, 15, 45, 0
33, 460320, Note_on_c, 15, 43, 92
33, 460409, Note_on_c, 15, 43, 0
33, 460440, Note_on_c, 15, 57, 92
33, 460529, Note_on_c, 15, 57, 0
33, 460560, Note_on_c, 15, 59, 92
33, 460649, Note_on_c, 15, 59, 0
33, 460680, Note_on_c, 15, 60, 92
33, 460769, Note_on_c, 15, 60, 0
33, 460800, Note_on_c, 15, 62, 92
33, 460889, Note_on_c, 15, 62, 0
33, 460920, Note_on_c, 15, 64, 92
33, 461009, Note_on_c, 15, 64, 0
33, 461040, Note_on_c, 15, 66, 92
33, 461129, Note_on_c, 15, 66, 0
33, 461160, Note_on_c, 15, 67, 92
33, 461249, Note_on_c, 15, 67, 0
33, 461280, Note_on_c, 15, 57, 92
33, 461369, Note_on_c, 15, 57, 0
33, 461400, Note_on_c, 15, 59, 92
33, 461489, Note_on_c, 15, 59, 0
33, 461520, Note_on_c, 15, 43, 92
33, 461609, Note_on_c, 15, 43, 0
33, 461640, Note_on_c, 15, 43, 92
33, 461729, Note_on_c, 15, 43, 0
33, 461760, Note_on_c, 15, 45, 92
33, 461849, Note_on_c, 15, 45, 0
33, 461880, Note_on_c, 15, 67, 92
33, 461969, Note_on_c, 15, 67, 0
33, 462000, Note_on_c, 15, 66, 92
33, 462089, Note_on_c, 15, 66, 0
33, 462120, Note_on_c, 15, 64, 92
33, 462209, Note_on_c, 15, 64, 0
33, 462240, Note_on_c, 15, 62, 92
33, 462329, Note_on_c, 15, 62, 0
33, 462360, Note_on_c, 15, 61, 92
33, 462449, Note_on_c, 15, 61, 0
33, 462480, Note_on_c, 15, 59, 92
33, 462569, Note_on_c, 15, 59, 0
33, 462600, Note_on_c, 15, 57, 92
33, 462689, Note_on_c, 15, 57, 0
33, 462720, Note_on_c, 15, 62, 92
33, 462809, Note_on_c, 15, 62, 0
33, 462840, Note_on_c, 15, 57, 92
33, 462929, Note_on_c, 15, 57, 0
33, 462960, Note_on_c, 15, 54, 92
33, 463049, Note_on_c, 15, 54, 0
33, 463080, Note_on_c, 15, 50, 92
33, 463169, Note_on_c, 15, 50, 0
33, 463200, Note_on_c, 15, 47, 92
33, 463289, Note_on_c, 15, 47, 0
33, 463320, Note_on_c, 15, 45, 92
33, 463409, Note_on_c, 15, 45, 0
33, 463440, Note_on_c, 15, 44, 92
33, 463529, Note_on_c, 15, 44, 0
33, 463560, Note_on_c, 15, 45, 92
33, 463649, Note_on_c, 15, 45, 0
33, 463680, Note_on_c, 15, 57, 92
33, 463769, Note_on_c, 15, 57, 0
33, 463800, Note_on_c, 15, 57, 92
33, 463889, Note_on_c, 15, 57, 0
33, 463920, Note_on_c, 15, 50, 92
33, 464009, Note_on_c, 15, 50, 0
33, 464040, Note_on_c, 15, 57, 92
33, 464129, Note_on_c, 15, 57, 0
33, 464160, Note_on_c, 15, 56, 92
33, 464249, Note_on_c, 15, 56, 0
33, 464280, Note_on_c, 15, 57, 92
33, 464369, Note_on_c, 15, 57, 0
33, 464400, Note_on_c, 15, 54, 92
33, 464489, Note_on_c, 15, 54, 0
33, 464520, Note_on_c, 15, 50, 92
33, 464609, Note_on_c, 15, 50, 0
33, 464640, Note_on_c, 15, 45, 92
33, 464729, Note_on_c, 15, 45, 0
33, 464760, Note_on_c, 15, 57, 92
33, 464849, Note_on_c, 15, 57, 0
33, 464880, Note_on_c, 15, 56, 92
33, 464969, Note_on_c, 15, 56, 0
33, 465000, Note_on_c, 15, 57, 92
33, 465089, Note_on_c, 15, 57, 0
33, 465120, Note_on_c, 15, 52, 92
33, 465209, Note_on_c, 15, 52, 0
33, 465240, Note_on_c, 15, 49, 92
33, 465329, Note_on_c, 15, 49, 0
33, 465360, Note_on_c, 15, 45, 92
33, 465449, Note_on_c, 15, 45, 0
33, 465480, Note_on_c, 15, 57, 92
33, 465569, Note_on_c, 15, 57, 0
33, 465600, Note_on_c, 15, 56, 92
33, 465689, Note_on_c, 15, 56, 0
33, 465720, Note_on_c, 15, 57, 92
33, 465809, Note_on_c, 15, 57, 0
33, 465840, Note_on_c, 15, 54, 92
33, 465929, Note_on_c, 15, 54, 0
33, 465960, Note_on_c, 15, 50, 92
33, 466049, Note_on_c, 15, 50, 0
33, 466080, Note_on_c, 15, 45, 92
33, 466169, Note_on_c, 15, 45, 0
33, 466200, Note_on_c, 15, 57, 92
33, 466289, Note_on_c, 15, 57, 0
33, 466320, Note_on_c, 15, 59, 92
33, 466409, Note_on_c, 15, 59, 0
33, 466440, Note_on_c, 15, 57, 92
33, 466529, Note_on_c, 15, 57, 0
33, 466560, Note_on_c, 15, 45, 92
33, 466649, Note_on_c, 15, 45, 0
33, 466680, Note_on_c, 15, 45, 92
33, 466769, Note_on_c, 15, 45, 0
33, 466800, Note_on_c, 15, 45, 92
33, 466889, Note_on_c, 15, 45, 0
33, 466920, Note_on_c, 15, 57, 92
33, 467009, Note_on_c, 15, 57, 0
33, 467040, Note_on_c, 15, 56, 92
33, 467129, Note_on_c, 15, 56, 0
33, 467160, Note_on_c, 15, 57, 92
33, 467249, Note_on_c, 15, 57, 0
33, 467280, Note_on_c, 15, 54, 92
33, 467369, Note_on_c, 15, 54, 0
33, 467400, Note_on_c, 15, 50, 92
33, 467489, Note_on_c, 15, 50, 0
33, 467520, Note_on_c, 15, 45, 92
33, 467609, Note_on_c, 15, 45, 0
33, 467640, Note_on_c, 15, 57, 92
33, 467729, Note_on_c, 15, 57, 0
33, 467760, Note_on_c, 15, 59, 92
33, 467849, Note_on_c, 15, 59, 0
33, 467880, Note_on_c, 15, 57, 92
33, 467969, Note_on_c, 15, 57, 0
33, 468000, Note_on_c, 15, 45, 92
33, 468089, Note_on_c, 15, 45, 0
33, 468120, Note_on_c, 15, 45, 92
33, 468209, Note_on_c, 15, 45, 0
33, 468240, Note_on_c, 15, 46, 92
33, 468329, Note_on_c, 15, 46, 0
33, 468360, Note_on_c, 15, 58, 92
33, 468449, Note_on_c, 15, 58, 0
33, 468480, Note_on_c, 15, 58, 92
33, 468569, Note_on_c, 15, 58, 0
33, 468600, Note_on_c, 15, 42, 92
33, 468689, Note_on_c, 15, 42, 0
33, 468720, Note_on_c, 15, 54, 92
33, 468809, Note_on_c, 15, 54, 0
33, 468840, Note_on_c, 15, 54, 92
33, 468929, Note_on_c, 15, 54, 0
33, 468960, Note_on_c, 15, 47, 92
33, 469049, Note_on_c, 15, 47, 0
33, 469080, Note_on_c, 15, 59, 92
33, 469169, Note_on_c, 15, 59, 0
33, 469200, Note_on_c, 15, 59, 92
33, 469289, Note_on_c, 15, 59, 0
33, 469320, Note_on_c, 15, 40, 92
33, 469409, Note_on_c, 15, 40, 0
33, 469440, Note_on_c, 15, 52, 92
33, 469529, Note_on_c, 15, 52, 0
33, 469560, Note_on_c, 15, 52, 92
33, 469649, Note_on_c, 15, 52, 0
33, 469680, Note_on_c, 15, 45, 92
33, 469769, Note_on_c, 15, 45, 0
33, 469800, Note_on_c, 15, 57, 92
33, 469889, Note_on_c, 15, 57, 0
33, 469920, Note_on_c, 15, 57, 92
33, 470009, Note_on_c, 15, 57, 0
33, 470040, Note_on_c, 15, 45, 92
33, 470129, Note_on_c, 15, 45, 0
33, 470160, Note_on_c, 15, 57, 92
33, 470249, Note_on_c, 15, 57, 0
33, 470280, Note_on_c, 15, 57, 92
33, 470369, Note_on_c, 15, 57, 0
33, 470400, Note_on_c, 15, 50, 92
33, 470489, Note_on_c, 15, 50, 0
33, 470520, Note_on_c, 15, 62, 92
33, 470609, Note_on_c, 15, 62, 0
33, 470640, Note_on_c, 15, 60, 92
33, 470729, Note_on_c, 15, 60, 0
33, 470760, Note_on_c, 15, 59, 92
33, 470849, Note_on_c, 15, 59, 0
33, 470880, Note_on_c, 15, 57, 92
33, 470969, Note_on_c, 15, 57, 0
33, 471000, Note_on_c, 15, 55, 92
33, 471089, Note_on_c, 15, 55, 0
33, 471120, Note_on_c, 15, 54, 92
33, 471209, Note_on_c, 15, 54, 0
33, 471240, Note_on_c, 15, 52, 92
33, 471329, Note_on_c, 15, 52, 0
33, 471360, Note_on_c, 15, 50, 92
33, 471449, Note_on_c, 15, 50, 0
33, 471480, Note_on_c, 15, 48, 92
33, 471569, Note_on_c, 15, 48, 0
33, 471600, Note_on_c, 15, 47, 92
33, 471689, Note_on_c, 15, 47, 0
33, 471720, Note_on_c, 15, 45, 92
33, 471809, Note_on_c, 15, 45, 0
33, 471840, Note_on_c, 15, 43, 92
33, 471929, Note_on_c, 15, 43, 0
33, 471960, Note_on_c, 15, 57, 92
33, 472049, Note_on_c, 15, 57, 0
33, 472080, Note_on_c, 15, 59, 92
33, 472169, Note_on_c, 15, 59, 0
33, 472200, Note_on_c, 15, 60, 92
33, 472289, Note_on_c, 15, 60, 0
33, 472320, Note_on_c, 15, 62, 92
33, 472409, Note_on_c, 15, 62, 0
33, 472440, Note_on_c, 15, 64, 92
33, 472529, Note_on_c, 15, 64, 0
33, 472560, Note_on_c, 15, 66, 92
33, 472649, Note_on_c, 15, 66, 0
33, 472680, Note_on_c, 15, 67, 92
33, 472769, Note_on_c, 15, 67, 0
33, 472800, Note_on_c, 15, 57, 92
33, 472889, Note_on_c, 15, 57, 0
33, 472920, Note_on_c, 15, 59, 92
33, 473009, Note_on_c, 15, 59, 0
33, 473040, Note_on_c, 15, 43, 92
33, 473129, Note_on_c, 15, 43, 0
33, 473160, Note_on_c, 15, 43, 92
33, 473249, Note_on_c, 15, 43, 0
33, 473280, Note_on_c, 15, 45, 92
33, 473369, Note_on_c, 15, 45, 0
33, 473400, Note_on_c, 15, 67, 92
33, 473489, Note_on_c, 15, 67, 0
33, 473520, Note_on_c, 15, 66, 92
33, 473609, Note_on_c, 15, 66, 0
33, 473640, Note_on_c, 15, 64, 92
33, 473729, Note_on_c, 15, 64, 0
33, 473760, Note_on_c, 15, 62, 92
33, 473849, Note_on_c, 15, 62, 0
33, 473880, Note_on_c, 15, 61, 92
33, 473969, Note_on_c, 15, 61, 0
33, 474000, Note_on_c, 15, 59, 92
33, 474089, Note_on_c, 15, 59, 0
33, 474120, Note_on_c, 15, 57, 92
33, 474209, Note_on_c, 15, 57, 0
33, 474240, Note_on_c, 15, 62, 92
33, 474329, Note_on_c, 15, 62, 0
33, 474360, Note_on_c, 15, 57, 92
33, 474449, Note_on_c, 15, 57, 0
33, 474480, Note_on_c, 15, 54, 92
33, 474569, Note_on_c, 15, 54, 0
33, 474600, Note_on_c, 15, 50, 92
33, 474689, Note_on_c, 15, 50, 0
33, 474720, Note_on_c, 15, 47, 92
33, 474809, Note_on_c, 15, 47, 0
33, 474840, Note_on_c, 15, 45, 92
33, 474929, Note_on_c, 15, 45, 0
33, 474960, Note_on_c, 15, 44, 92
33, 475049, Note_on_c, 15, 44, 0
33, 475080, Note_on_c, 15, 45, 92
33, 475169, Note_on_c, 15, 45, 0
33, 475200, Note_on_c, 15, 57, 92
33, 475289, Note_on_c, 15, 57, 0
33, 475320, Note_on_c, 15, 57, 92
33, 475409, Note_on_c, 15, 57, 0
33, 475440, Note_on_c, 15, 50, 92
33, 475529, Note_on_c, 15, 50, 0
33, 475560, Note_on_c, 15, 62, 92
33, 475649, Note_on_c, 15, 62, 0
33, 475680, Note_on_c, 15, 61, 92
33, 475769, Note_on_c, 15, 61, 0
33, 475800, Note_on_c, 15, 62, 92
33, 475889, Note_on_c, 15, 62, 0
33, 475920, Note_on_c, 15, 54, 92
33, 476009, Note_on_c, 15, 54, 0
33, 476040, Note_on_c, 15, 57, 92
33, 476129, Note_on_c, 15, 57, 0
33, 476160, Note_on_c, 15, 50, 104
33, 476249, Note_on_c, 15, 50, 0
33, 476280, Note_on_c, 15, 50, 92
33, 476369, Note_on_c, 15, 50, 0
33, 476400, Note_on_c, 15, 49, 92
33, 476489, Note_on_c, 15, 49, 0
33, 476520, Note_on_c, 15, 50, 92
33, 476609, Note_on_c, 15, 50, 0
33, 476640, Note_on_c, 15, 54, 92
33, 476729, Note_on_c, 15, 54, 0
33, 476760, Note_on_c, 15, 57, 92
33, 476849, Note_on_c, 15, 57, 0
33, 476880, Note_on_c, 15, 60, 92
33, 476969, Note_on_c, 15, 60, 0
33, 477000, Note_on_c, 15, 52, 92
33, 477089, Note_on_c, 15, 52, 0
33, 477120, Note_on_c, 15, 50, 92
33, 477209, Note_on_c, 15, 50, 0
33, 477240, Note_on_c, 15, 48, 92
33, 477329, Note_on_c, 15, 48, 0
33, 477360, Note_on_c, 15, 47, 92
33, 477449, Note_on_c, 15, 47, 0
33, 477480, Note_on_c, 15, 45, 92
33, 477569, Note_on_c, 15, 45, 0
33, 477600, Note_on_c, 15, 43, 104
33, 477689, Note_on_c, 15, 43, 0
33, 477720, Note_on_c, 15, 47, 92
33, 477809, Note_on_c, 15, 47, 0
33, 477840, Note_on_c, 15, 50, 92
33, 477929, Note_on_c, 15, 50, 0
33, 477960, Note_on_c, 15, 55, 92
33, 478049, Note_on_c, 15, 55, 0
33, 478080, Note_on_c, 15, 59, 92
33, 478169, Note_on_c, 15, 59, 0
33, 478200, Note_on_c, 15, 62, 92
33, 478289, Note_on_c, 15, 62, 0
33, 478320, Note_on_c, 15, 67, 92
33, 478559, Note_on_c, 15, 67, 0
33, 480000, Note_on_c, 15, 55, 92
33, 481419, Note_on_c, 15, 55, 0
33, 481440, Note_on_c, 15, 55, 92
33, 481799, Note_on_c, 15, 55, 0
33, 481920, Note_on_c, 15, 54, 92
33, 482279, Note_on_c, 15, 54, 0
33, 482400, Note_on_c, 15, 50, 92
33, 482759, Note_on_c, 15, 50, 0
33, 482880, Note_on_c, 15, 64, 92
33, 484299, Note_on_c, 15, 64, 0
33, 484320, Note_on_c, 15, 64, 92
33, 484679, Note_on_c, 15, 64, 0
33, 484800, Note_on_c, 15, 62, 92
33, 485159, Note_on_c, 15, 62, 0
33, 485280, Note_on_c, 15, 59, 92
33, 485639, Note_on_c, 15, 59, 0
33, 485760, Note_on_c, 15, 60, 104
33, 485839, Note_on_c, 15, 60, 0
33, 485840, Note_on_c, 15, 60, 92
33, 487179, Note_on_c, 15, 60, 0
33, 487200, Note_on_c, 15, 60, 92
33, 487659, Note_on_c, 15, 60, 0
33, 487680, Note_on_c, 15, 59, 92
33, 488139, Note_on_c, 15, 59, 0
33, 488160, Note_on_c, 15, 55, 104
33, 488239, Note_on_c, 15, 55, 0
33, 488240, Note_on_c, 15, 55, 92
33, 489099, Note_on_c, 15, 55, 0
33, 489120, Note_on_c, 15, 64, 92
33, 490059, Note_on_c, 15, 64, 0
33, 490080, Note_on_c, 15, 64, 92
33, 490539, Note_on_c, 15, 64, 0
33, 490560, Note_on_c, 15, 62, 92
33, 491999, Note_on_c, 15, 62, 0
33, 492480, Note_on_c, 15, 55, 80
33, 492659, Note_on_c, 15, 55, 0
33, 492720, Note_on_c, 15, 55, 80
33, 492839, Note_on_c, 15, 55, 0
33, 492840, Note_on_c, 15, 57, 80
33, 492959, Note_on_c, 15, 57, 0
33, 492960, Note_on_c, 15, 59, 80
33, 493139, Note_on_c, 15, 59, 0
33, 493200, Note_on_c, 15, 59, 80
33, 493319, Note_on_c, 15, 59, 0
33, 493320, Note_on_c, 15, 60, 80
33, 493439, Note_on_c, 15, 60, 0
33, 493440, Note_on_c, 15, 62, 80
33, 493619, Note_on_c, 15, 62, 0
33, 493680, Note_on_c, 15, 62, 80
33, 493799, Note_on_c, 15, 62, 0
33, 493800, Note_on_c, 15, 64, 80
33, 493919, Note_on_c, 15, 64, 0
33, 493920, Note_on_c, 15, 62, 80
33, 494099, Note_on_c, 15, 62, 0
33, 494160, Note_on_c, 15, 62, 80
33, 494279, Note_on_c, 15, 62, 0
33, 494280, Note_on_c, 15, 50, 80
33, 494619, Note_on_c, 15, 50, 0
33, 494640, Note_on_c, 15, 50, 80
33, 494759, Note_on_c, 15, 50, 0
33, 494760, Note_on_c, 15, 52, 80
33, 494879, Note_on_c, 15, 52, 0
33, 494880, Note_on_c, 15, 50, 80
33, 495059, Note_on_c, 15, 50, 0
33, 495120, Note_on_c, 15, 50, 80
33, 495239, Note_on_c, 15, 50, 0
33, 495240, Note_on_c, 15, 52, 80
33, 495359, Note_on_c, 15, 52, 0
33, 495360, Note_on_c, 15, 48, 80
33, 495539, Note_on_c, 15, 48, 0
33, 495600, Note_on_c, 15, 60, 80
33, 495719, Note_on_c, 15, 60, 0
33, 495720, Note_on_c, 15, 59, 80
33, 495839, Note_on_c, 15, 59, 0
33, 495840, Note_on_c, 15, 60, 80
33, 496019, Note_on_c, 15, 60, 0
33, 496080, Note_on_c, 15, 62, 80
33, 496199, Note_on_c, 15, 62, 0
33, 496200, Note_on_c, 15, 60, 80
33, 496559, Note_on_c, 15, 60, 0
33, 496560, Note_on_c, 15, 59, 80
33, 496679, Note_on_c, 15, 59, 0
33, 496680, Note_on_c, 15, 57, 80
33, 496799, Note_on_c, 15, 57, 0
33, 496800, Note_on_c, 15, 55, 80
33, 496979, Note_on_c, 15, 55, 0
33, 497040, Note_on_c, 15, 55, 80
33, 497159, Note_on_c, 15, 55, 0
33, 497160, Note_on_c, 15, 57, 80
33, 497279, Note_on_c, 15, 57, 0
33, 497280, Note_on_c, 15, 55, 80
33, 497459, Note_on_c, 15, 55, 0
33, 497520, Note_on_c, 15, 43, 80
33, 497639, Note_on_c, 15, 43, 0
33, 497640, Note_on_c, 15, 55, 80
33, 497759, Note_on_c, 15, 55, 0
33, 497760, Note_on_c, 15, 57, 80
33, 497939, Note_on_c, 15, 57, 0
33, 498000, Note_on_c, 15, 57, 80
33, 498119, Note_on_c, 15, 57, 0
33, 498120, Note_on_c, 15, 59, 80
33, 498239, Note_on_c, 15, 59, 0
33, 498240, Note_on_c, 15, 57, 80
33, 498419, Note_on_c, 15, 57, 0
33, 498480, Note_on_c, 15, 45, 80
33, 498599, Note_on_c, 15, 45, 0
33, 498600, Note_on_c, 15, 47, 80
33, 498719, Note_on_c, 15, 47, 0
33, 498720, Note_on_c, 15, 45, 80
33, 498899, Note_on_c, 15, 45, 0
33, 498960, Note_on_c, 15, 57, 80
33, 499079, Note_on_c, 15, 57, 0
33, 499080, Note_on_c, 15, 55, 80
33, 499199, Note_on_c, 15, 55, 0
33, 499200, Note_on_c, 15, 59, 80
33, 499379, Note_on_c, 15, 59, 0
33, 499440, Note_on_c, 15, 60, 80
33, 499559, Note_on_c, 15, 60, 0
33, 499560, Note_on_c, 15, 59, 80
33, 499679, Note_on_c, 15, 59, 0
33, 499680, Note_on_c, 15, 60, 80
33, 499859, Note_on_c, 15, 60, 0
33, 499920, Note_on_c, 15, 48, 80
33, 500039, Note_on_c, 15, 48, 0
33, 500040, Note_on_c, 15, 47, 80
33, 500159, Note_on_c, 15, 47, 0
33, 500160, Note_on_c, 15, 48, 80
33, 500339, Note_on_c, 15, 48, 0
33, 500400, Note_on_c, 15, 60, 80
33, 500519, Note_on_c, 15, 60, 0
33, 500520, Note_on_c, 15, 59, 80
33, 500639, Note_on_c, 15, 59, 0
33, 500640, Note_on_c, 15, 60, 92
33, 500819, Note_on_c, 15, 60, 0
33, 500880, Note_on_c, 15, 48, 92
33, 500999, Note_on_c, 15, 48, 0
33, 501000, Note_on_c, 15, 47, 92
33, 501119, Note_on_c, 15, 47, 0
33, 501120, Note_on_c, 15, 48, 92
33, 501299, Note_on_c, 15, 48, 0
33, 501360, Note_on_c, 15, 60, 92
33, 501479, Note_on_c, 15, 60, 0
33, 501480, Note_on_c, 15, 59, 92
33, 501599, Note_on_c, 15, 59, 0
33, 501600, Note_on_c, 15, 60, 92
33, 501779, Note_on_c, 15, 60, 0
33, 501840, Note_on_c, 15, 48, 92
33, 501959, Note_on_c, 15, 48, 0
33, 501960, Note_on_c, 15, 60, 92
33, 502059, Note_on_c, 15, 60, 0
33, 502080, Note_on_c, 15, 62, 92
33, 503499, Note_on_c, 15, 62, 0
33, 503520, Note_on_c, 15, 60, 92
33, 503999, Note_on_c, 15, 60, 0
33, 504000, Note_on_c, 15, 62, 92
33, 504699, Note_on_c, 15, 62, 0
33, 504720, Note_on_c, 15, 60, 92
33, 504959, Note_on_c, 15, 60, 0
33, 505440, Note_on_c, 15, 65, 92
33, 506139, Note_on_c, 15, 65, 0
33, 506160, Note_on_c, 15, 65, 92
33, 506379, Note_on_c, 15, 65, 0
33, 506400, Note_on_c, 15, 65, 92
33, 507339, Note_on_c, 15, 65, 0
33, 507360, Note_on_c, 15, 65, 92
33, 507819, Note_on_c, 15, 65, 0
33, 507840, Note_on_c, 15, 65, 92
33, 508779, Note_on_c, 15, 65, 0
33, 508800, Note_on_c, 15, 62, 104
33, 508879, Note_on_c, 15, 62, 0
33, 508880, Note_on_c, 15, 62, 92
33, 510219, Note_on_c, 15, 62, 0
33, 510240, Note_on_c, 15, 60, 92
33, 510699, Note_on_c, 15, 60, 0
33, 510720, Note_on_c, 15, 60, 92
33, 511199, Note_on_c, 15, 60, 0
33, 511200, Note_on_c, 15, 57, 92
33, 511659, Note_on_c, 15, 57, 0
33, 511680, Note_on_c, 15, 55, 92
33, 512139, Note_on_c, 15, 55, 0
33, 512160, Note_on_c, 15, 65, 104
33, 512239, Note_on_c, 15, 65, 0
33, 512240, Note_on_c, 15, 65, 92
33, 513099, Note_on_c, 15, 65, 0
33, 513120, Note_on_c, 15, 64, 92
33, 513579, Note_on_c, 15, 64, 0
33, 513600, Note_on_c, 15, 64, 92
33, 513959, Note_on_c, 15, 64, 0
33, 514080, Note_on_c, 15, 62, 92
33, 514439, Note_on_c, 15, 62, 0
33, 515040, Note_on_c, 15, 53, 80
33, 515279, Note_on_c, 15, 53, 0
33, 515280, Note_on_c, 15, 55, 80
33, 515399, Note_on_c, 15, 55, 0
33, 515400, Note_on_c, 15, 53, 80
33, 515759, Note_on_c, 15, 53, 0
33, 515760, Note_on_c, 15, 55, 80
33, 515879, Note_on_c, 15, 55, 0
33, 515880, Note_on_c, 15, 53, 80
33, 516239, Note_on_c, 15, 53, 0
33, 516240, Note_on_c, 15, 55, 80
33, 516359, Note_on_c, 15, 55, 0
33, 516360, Note_on_c, 15, 53, 80
33, 516459, Note_on_c, 15, 53, 0
33, 516480, Note_on_c, 15, 57, 80
33, 516719, Note_on_c, 15, 57, 0
33, 516720, Note_on_c, 15, 58, 80
33, 516839, Note_on_c, 15, 58, 0
33, 516840, Note_on_c, 15, 57, 80
33, 516939, Note_on_c, 15, 57, 0
33, 516960, Note_on_c, 15, 58, 80
33, 517199, Note_on_c, 15, 58, 0
33, 517200, Note_on_c, 15, 60, 80
33, 517319, Note_on_c, 15, 60, 0
33, 517320, Note_on_c, 15, 58, 80
33, 517679, Note_on_c, 15, 58, 0
33, 517680, Note_on_c, 15, 60, 80
33, 517799, Note_on_c, 15, 60, 0
33, 517800, Note_on_c, 15, 58, 80
33, 518159, Note_on_c, 15, 58, 0
33, 518160, Note_on_c, 15, 60, 80
33, 518279, Note_on_c, 15, 60, 0
33, 518280, Note_on_c, 15, 58, 80
33, 518639, Note_on_c, 15, 58, 0
33, 518640, Note_on_c, 15, 60, 80
33, 518759, Note_on_c, 15, 60, 0
33, 518760, Note_on_c, 15, 58, 80
33, 519119, Note_on_c, 15, 58, 0
33, 519120, Note_on_c, 15, 60, 80
33, 519239, Note_on_c, 15, 60, 0
33, 519240, Note_on_c, 15, 58, 80
33, 519599, Note_on_c, 15, 58, 0
33, 519600, Note_on_c, 15, 60, 80
33, 519719, Note_on_c, 15, 60, 0
33, 519720, Note_on_c, 15, 58, 80
33, 520079, Note_on_c, 15, 58, 0
33, 520080, Note_on_c, 15, 60, 80
33, 520199, Note_on_c, 15, 60, 0
33, 520200, Note_on_c, 15, 58, 80
33, 520559, Note_on_c, 15, 58, 0
33, 520560, Note_on_c, 15, 60, 80
33, 520679, Note_on_c, 15, 60, 0
33, 520680, Note_on_c, 15, 58, 80
33, 521039, Note_on_c, 15, 58, 0
33, 521040, Note_on_c, 15, 60, 80
33, 521159, Note_on_c, 15, 60, 0
33, 521160, Note_on_c, 15, 58, 80
33, 521259, Note_on_c, 15, 58, 0
33, 521280, Note_on_c, 15, 58, 80
33, 521519, Note_on_c, 15, 58, 0
33, 521520, Note_on_c, 15, 46, 80
33, 521639, Note_on_c, 15, 46, 0
33, 521640, Note_on_c, 15, 58, 80
33, 521739, Note_on_c, 15, 58, 0
33, 521760, Note_on_c, 15, 60, 80
33, 521999, Note_on_c, 15, 60, 0
33, 522000, Note_on_c, 15, 48, 80
33, 522119, Note_on_c, 15, 48, 0
33, 522120, Note_on_c, 15, 60, 80
33, 522479, Note_on_c, 15, 60, 0
33, 522480, Note_on_c, 15, 48, 80
33, 522599, Note_on_c, 15, 48, 0
33, 522600, Note_on_c, 15, 60, 80
33, 522959, Note_on_c, 15, 60, 0
33, 522960, Note_on_c, 15, 48, 80
33, 523079, Note_on_c, 15, 48, 0
33, 523080, Note_on_c, 15, 60, 80
33, 523199, Note_on_c, 15, 60, 0
33, 523200, Note_on_c, 15, 60, 80
33, 523439, Note_on_c, 15, 60, 0
33, 523440, Note_on_c, 15, 48, 80
33, 523559, Note_on_c, 15, 48, 0
33, 523560, Note_on_c, 15, 60, 80
33, 523919, Note_on_c, 15, 60, 0
33, 523920, Note_on_c, 15, 62, 80
33, 524039, Note_on_c, 15, 62, 0
33, 524040, Note_on_c, 15, 60, 80
33, 524399, Note_on_c, 15, 60, 0
33, 524400, Note_on_c, 15, 62, 80
33, 524519, Note_on_c, 15, 62, 0
33, 524520, Note_on_c, 15, 60, 80
33, 524619, Note_on_c, 15, 60, 0
33, 524640, Note_on_c, 15, 64, 80
33, 524879, Note_on_c, 15, 64, 0
33, 524880, Note_on_c, 15, 65, 80
33, 524999, Note_on_c, 15, 65, 0
33, 525000, Note_on_c, 15, 64, 80
33, 525099, Note_on_c, 15, 64, 0
33, 525120, Note_on_c, 15, 67, 80
33, 525359, Note_on_c, 15, 67, 0
33, 525360, Note_on_c, 15, 69, 80
33, 525479, Note_on_c, 15, 69, 0
33, 525480, Note_on_c, 15, 67, 80
33, 525579, Note_on_c, 15, 67, 0
33, 525600, Note_on_c, 15, 67, 80
33, 525839, Note_on_c, 15, 67, 0
33, 526078, Control_c, 15, 11, 49
33, 526080, Note_on_c, 15, 43, 92
33, 526080, Note_on_c, 15, 50, 92
33, 526560, Control_c, 15, 11, 49
33, 526600, Control_c, 15, 11, 52
33, 526640, Control_c, 15, 11, 55
33, 526680, Control_c, 15, 11, 59
33, 526720, Control_c, 15, 11, 62
33, 526760, Control_c, 15, 11, 65
33, 526800, Control_c, 15, 11, 69
33, 526840, Control_c, 15, 11, 72
33, 526880, Control_c, 15, 11, 75
33, 526920, Control_c, 15, 11, 79
33, 526960, Control_c, 15, 11, 82
33, 527000, Control_c, 15, 11, 85
33, 527040, Control_c, 15, 11, 89
33, 527120, Control_c, 15, 11, 85
33, 527200, Control_c, 15, 11, 82
33, 527280, Control_c, 15, 11, 79
33, 527360, Control_c, 15, 11, 75
33, 527440, Control_c, 15, 11, 72
33, 527504, Note_on_c, 15, 43, 0
33, 527504, Note_on_c, 15, 50, 0
33, 527520, Control_c, 15, 11, 69
33, 527520, Note_on_c, 15, 50, 92
33, 527520, Note_on_c, 15, 43, 92
33, 527600, Control_c, 15, 11, 65
33, 527680, Control_c, 15, 11, 62
33, 527760, Control_c, 15, 11, 59
33, 527840, Control_c, 15, 11, 55
33, 527920, Control_c, 15, 11, 52
33, 527984, Note_on_c, 15, 50, 0
33, 527984, Note_on_c, 15, 43, 0
33, 528000, Control_c, 15, 11, 49
33, 528000, Note_on_c, 15, 48, 92
33, 528000, Note_on_c, 15, 36, 92
33, 528944, Note_on_c, 15, 48, 0
33, 528944, Note_on_c, 15, 36, 0
33, 528960, Note_on_c, 15, 48, 92
33, 528960, Note_on_c, 15, 36, 92
33, 529424, Note_on_c, 15, 48, 0
33, 529424, Note_on_c, 15, 36, 0
33, 529440, Note_on_c, 15, 45, 92
33, 529440, Control_c, 15, 11, 49
33, 529480, Control_c, 15, 11, 50
33, 529520, Control_c, 15, 11, 51
33, 529560, Control_c, 15, 11, 52
33, 529600, Control_c, 15, 11, 53
33, 529640, Control_c, 15, 11, 55
33, 529680, Control_c, 15, 11, 56
33, 529720, Control_c, 15, 11, 57
33, 529760, Control_c, 15, 11, 58
33, 529800, Control_c, 15, 11, 59
33, 529840, Control_c, 15, 11, 60
33, 529880, Control_c, 15, 11, 61
33, 529920, Control_c, 15, 11, 62
33, 529960, Control_c, 15, 11, 63
33, 530000, Control_c, 15, 11, 65
33, 530040, Control_c, 15, 11, 66
33, 530080, Control_c, 15, 11, 67
33, 530120, Control_c, 15, 11, 68
33, 530160, Control_c, 15, 11, 69
33, 530200, Control_c, 15, 11, 70
33, 530240, Control_c, 15, 11, 71
33, 530280, Control_c, 15, 11, 72
33, 530320, Control_c, 15, 11, 73
33, 530360, Control_c, 15, 11, 75
33, 530400, Control_c, 15, 11, 76
33, 530440, Control_c, 15, 11, 77
33, 530480, Control_c, 15, 11, 78
33, 530520, Control_c, 15, 11, 79
33, 530560, Control_c, 15, 11, 80
33, 530600, Control_c, 15, 11, 81
33, 530624, Note_on_c, 15, 45, 0
33, 530640, Note_on_c, 15, 43, 92
33, 530640, Control_c, 15, 11, 82
33, 530680, Control_c, 15, 11, 83
33, 530720, Control_c, 15, 11, 85
33, 530760, Control_c, 15, 11, 86
33, 530800, Control_c, 15, 11, 87
33, 530840, Control_c, 15, 11, 88
33, 530864, Note_on_c, 15, 43, 0
33, 530880, Note_on_c, 15, 38, 92
33, 531239, Note_on_c, 15, 38, 0
33, 531360, Note_on_c, 15, 50, 92
33, 531719, Note_on_c, 15, 50, 0
33, 531838, Control_c, 15, 11, 49
33, 531840, Note_on_c, 15, 50, 92
33, 531840, Note_on_c, 15, 43, 92
33, 531840, Control_c, 15, 11, 49
33, 531867, Control_c, 15, 11, 50
33, 531893, Control_c, 15, 11, 51
33, 531920, Control_c, 15, 11, 52
33, 531947, Control_c, 15, 11, 53
33, 531973, Control_c, 15, 11, 55
33, 532000, Control_c, 15, 11, 56
33, 532027, Control_c, 15, 11, 57
33, 532053, Control_c, 15, 11, 58
33, 532080, Control_c, 15, 11, 59
33, 532107, Control_c, 15, 11, 60
33, 532133, Control_c, 15, 11, 61
33, 532160, Control_c, 15, 11, 62
33, 532187, Control_c, 15, 11, 63
33, 532213, Control_c, 15, 11, 65
33, 532240, Control_c, 15, 11, 66
33, 532267, Control_c, 15, 11, 67
33, 532293, Control_c, 15, 11, 68
33, 532320, Control_c, 15, 11, 69
33, 532347, Control_c, 15, 11, 70
33, 532373, Control_c, 15, 11, 71
33, 532400, Control_c, 15, 11, 72
33, 532427, Control_c, 15, 11, 73
33, 532453, Control_c, 15, 11, 75
33, 532480, Control_c, 15, 11, 76
33, 532507, Control_c, 15, 11, 77
33, 532533, Control_c, 15, 11, 78
33, 532560, Control_c, 15, 11, 79
33, 532587, Control_c, 15, 11, 80
33, 532613, Control_c, 15, 11, 81
33, 532640, Control_c, 15, 11, 82
33, 532667, Control_c, 15, 11, 83
33, 532693, Control_c, 15, 11, 85
33, 532720, Control_c, 15, 11, 86
33, 532747, Control_c, 15, 11, 87
33, 532773, Control_c, 15, 11, 88
33, 532800, Control_c, 15, 11, 89
33, 532827, Control_c, 15, 11, 87
33, 532853, Control_c, 15, 11, 85
33, 532880, Control_c, 15, 11, 82
33, 532907, Control_c, 15, 11, 80
33, 532933, Control_c, 15, 11, 78
33, 532960, Control_c, 15, 11, 76
33, 532987, Control_c, 15, 11, 73
33, 533013, Control_c, 15, 11, 71
33, 533040, Control_c, 15, 11, 69
33, 533067, Control_c, 15, 11, 67
33, 533093, Control_c, 15, 11, 65
33, 533120, Control_c, 15, 11, 62
33, 533147, Control_c, 15, 11, 60
33, 533173, Control_c, 15, 11, 58
33, 533200, Control_c, 15, 11, 56
33, 533227, Control_c, 15, 11, 53
33, 533253, Control_c, 15, 11, 49
33, 533504, Note_on_c, 15, 50, 0
33, 533504, Note_on_c, 15, 43, 0
33, 533520, Note_on_c, 15, 43, 92
33, 533520, Note_on_c, 15, 50, 92
33, 533699, Note_on_c, 15, 43, 0
33, 533699, Note_on_c, 15, 50, 0
33, 533760, Note_on_c, 15, 48, 92
33, 533760, Note_on_c, 15, 36, 92
33, 533999, Note_on_c, 15, 48, 0
33, 533999, Note_on_c, 15, 36, 0
33, 534240, Note_on_c, 15, 36, 92
33, 534240, Note_on_c, 15, 48, 92
33, 534479, Note_on_c, 15, 36, 0
33, 534479, Note_on_c, 15, 48, 0
33, 534720, Note_on_c, 15, 36, 92
33, 534720, Note_on_c, 15, 48, 92
33, 535199, Note_on_c, 15, 36, 0
33, 535199, Note_on_c, 15, 48, 0
33, 535200, Control_c, 15, 11, 49
33, 535200, Note_on_c, 15, 45, 92
33, 535248, Control_c, 15, 11, 50
33, 535296, Control_c, 15, 11, 51
33, 535344, Control_c, 15, 11, 52
33, 535392, Control_c, 15, 11, 53
33, 535440, Control_c, 15, 11, 54
33, 535488, Control_c, 15, 11, 55
33, 535536, Control_c, 15, 11, 56
33, 535584, Control_c, 15, 11, 57
33, 535632, Control_c, 15, 11, 58
33, 535680, Control_c, 15, 11, 59
33, 535728, Control_c, 15, 11, 60
33, 535776, Control_c, 15, 11, 61
33, 535824, Control_c, 15, 11, 62
33, 535872, Control_c, 15, 11, 63
33, 535920, Control_c, 15, 11, 64
33, 535968, Control_c, 15, 11, 65
33, 536016, Control_c, 15, 11, 66
33, 536064, Control_c, 15, 11, 67
33, 536112, Control_c, 15, 11, 68
33, 536160, Control_c, 15, 11, 69
33, 536208, Control_c, 15, 11, 70
33, 536256, Control_c, 15, 11, 71
33, 536304, Control_c, 15, 11, 72
33, 536352, Control_c, 15, 11, 73
33, 536384, Note_on_c, 15, 45, 0
33, 536400, Note_on_c, 15, 43, 92
33, 536400, Control_c, 15, 11, 74
33, 536448, Control_c, 15, 11, 75
33, 536496, Control_c, 15, 11, 76
33, 536544, Control_c, 15, 11, 77
33, 536592, Control_c, 15, 11, 78
33, 536624, Note_on_c, 15, 43, 0
33, 536640, Note_on_c, 15, 38, 92
33, 536640, Control_c, 15, 11, 79
33, 536688, Control_c, 15, 11, 80
33, 536736, Control_c, 15, 11, 81
33, 536784, Control_c, 15, 11, 82
33, 536832, Control_c, 15, 11, 83
33, 536880, Control_c, 15, 11, 84
33, 536928, Control_c, 15, 11, 85
33, 536976, Control_c, 15, 11, 86
33, 536999, Note_on_c, 15, 38, 0
33, 537024, Control_c, 15, 11, 87
33, 537072, Control_c, 15, 11, 88
33, 537120, Note_on_c, 15, 50, 92
33, 537479, Note_on_c, 15, 50, 0
33, 537598, Control_c, 15, 11, 29
33, 537600, Note_on_c, 15, 43, 92
33, 538080, Control_c, 15, 11, 29
33, 538119, Control_c, 15, 11, 30
33, 538158, Control_c, 15, 11, 31
33, 538198, Control_c, 15, 11, 32
33, 538237, Control_c, 15, 11, 33
33, 538276, Control_c, 15, 11, 34
33, 538315, Control_c, 15, 11, 35
33, 538354, Control_c, 15, 11, 36
33, 538393, Control_c, 15, 11, 37
33, 538433, Control_c, 15, 11, 38
33, 538472, Control_c, 15, 11, 39
33, 538511, Control_c, 15, 11, 40
33, 538544, Note_on_c, 15, 43, 0
33, 538550, Control_c, 15, 11, 41
33, 538560, Note_on_c, 15, 43, 92
33, 538589, Control_c, 15, 11, 42
33, 538629, Control_c, 15, 11, 43
33, 538668, Control_c, 15, 11, 44
33, 538707, Control_c, 15, 11, 45
33, 538746, Control_c, 15, 11, 46
33, 538785, Control_c, 15, 11, 47
33, 538824, Control_c, 15, 11, 48
33, 538864, Control_c, 15, 11, 49
33, 538903, Control_c, 15, 11, 50
33, 538942, Control_c, 15, 11, 51
33, 538981, Control_c, 15, 11, 52
33, 539020, Control_c, 15, 11, 53
33, 539060, Control_c, 15, 11, 54
33, 539099, Control_c, 15, 11, 55
33, 539138, Control_c, 15, 11, 56
33, 539177, Control_c, 15, 11, 57
33, 539216, Control_c, 15, 11, 58
33, 539256, Control_c, 15, 11, 59
33, 539264, Note_on_c, 15, 43, 0
33, 539280, Note_on_c, 15, 43, 92
33, 539295, Control_c, 15, 11, 60
33, 539334, Control_c, 15, 11, 61
33, 539373, Control_c, 15, 11, 62
33, 539412, Control_c, 15, 11, 63
33, 539451, Control_c, 15, 11, 64
33, 539491, Control_c, 15, 11, 65
33, 539504, Note_on_c, 15, 43, 0
33, 539520, Note_on_c, 15, 41, 92
33, 539530, Control_c, 15, 11, 66
33, 539569, Control_c, 15, 11, 67
33, 539608, Control_c, 15, 11, 68
33, 539647, Control_c, 15, 11, 69
33, 539687, Control_c, 15, 11, 70
33, 539726, Control_c, 15, 11, 71
33, 539765, Control_c, 15, 11, 72
33, 539804, Control_c, 15, 11, 73
33, 539843, Control_c, 15, 11, 74
33, 539882, Control_c, 15, 11, 75
33, 539922, Control_c, 15, 11, 76
33, 539961, Control_c, 15, 11, 77
33, 539984, Note_on_c, 15, 41, 0
33, 540000, Control_c, 15, 11, 78
33, 540000, Note_on_c, 15, 53, 92
33, 540039, Control_c, 15, 11, 79
33, 540078, Control_c, 15, 11, 80
33, 540118, Control_c, 15, 11, 81
33, 540157, Control_c, 15, 11, 82
33, 540196, Control_c, 15, 11, 83
33, 540235, Control_c, 15, 11, 84
33, 540274, Control_c, 15, 11, 85
33, 540313, Control_c, 15, 11, 86
33, 540353, Control_c, 15, 11, 87
33, 540392, Control_c, 15, 11, 88
33, 540431, Control_c, 15, 11, 89
33, 540464, Note_on_c, 15, 53, 0
33, 540470, Control_c, 15, 11, 90
33, 540480, Note_on_c, 15, 53, 92
33, 540509, Control_c, 15, 11, 91
33, 540549, Control_c, 15, 11, 92
33, 540588, Control_c, 15, 11, 93
33, 540627, Control_c, 15, 11, 94
33, 540666, Control_c, 15, 11, 95
33, 540705, Control_c, 15, 11, 96
33, 540744, Control_c, 15, 11, 97
33, 540784, Control_c, 15, 11, 98
33, 540823, Control_c, 15, 11, 99
33, 540862, Control_c, 15, 11, 100
33, 540901, Control_c, 15, 11, 101
33, 540940, Control_c, 15, 11, 102
33, 540944, Note_on_c, 15, 53, 0
33, 540960, Note_on_c, 15, 46, 92
33, 540980, Control_c, 15, 11, 103
33, 541019, Control_c, 15, 11, 104
33, 541058, Control_c, 15, 11, 105
33, 541097, Control_c, 15, 11, 106
33, 541136, Control_c, 15, 11, 107
33, 541176, Control_c, 15, 11, 108
33, 541215, Control_c, 15, 11, 109
33, 541254, Control_c, 15, 11, 110
33, 541293, Control_c, 15, 11, 111
33, 541332, Control_c, 15, 11, 112
33, 541371, Control_c, 15, 11, 113
33, 541411, Control_c, 15, 11, 114
33, 541424, Note_on_c, 15, 46, 0
33, 541440, Note_on_c, 15, 58, 92
33, 541450, Control_c, 15, 11, 115
33, 541489, Control_c, 15, 11, 116
33, 541528, Control_c, 15, 11, 117
33, 541567, Control_c, 15, 11, 118
33, 541607, Control_c, 15, 11, 119
33, 541646, Control_c, 15, 11, 120
33, 541685, Control_c, 15, 11, 121
33, 541724, Control_c, 15, 11, 122
33, 541763, Control_c, 15, 11, 123
33, 541802, Control_c, 15, 11, 124
33, 541842, Control_c, 15, 11, 125
33, 541881, Control_c, 15, 11, 127
33, 541904, Note_on_c, 15, 58, 0
33, 541920, Note_on_c, 15, 48, 92
33, 541920, Note_on_c, 15, 36, 92
33, 543344, Note_on_c, 15, 48, 0
33, 543344, Note_on_c, 15, 36, 0
33, 543360, Control_c, 15, 11, 49
33, 543360, Note_on_c, 15, 48, 92
33, 543360, Note_on_c, 15, 36, 92
33, 543840, Control_c, 15, 11, 27
33, 544784, Note_on_c, 15, 48, 0
33, 544784, Note_on_c, 15, 36, 0
33, 544800, Note_on_c, 15, 48, 92
33, 544800, Note_on_c, 15, 36, 92
33, 545264, Note_on_c, 15, 48, 0
33, 545264, Note_on_c, 15, 36, 0
33, 545280, Control_c, 15, 11, 27
33, 545280, Note_on_c, 15, 60, 92
33, 545320, Control_c, 15, 11, 28
33, 545360, Control_c, 15, 11, 29
33, 545400, Control_c, 15, 11, 30
33, 545440, Control_c, 15, 11, 31
33, 545480, Control_c, 15, 11, 33
33, 545520, Control_c, 15, 11, 34
33, 545560, Control_c, 15, 11, 35
33, 545600, Control_c, 15, 11, 36
33, 545640, Control_c, 15, 11, 37
33, 545680, Control_c, 15, 11, 38
33, 545720, Control_c, 15, 11, 39
33, 545760, Control_c, 15, 11, 40
33, 545800, Control_c, 15, 11, 41
33, 545840, Control_c, 15, 11, 43
33, 545880, Control_c, 15, 11, 44
33, 545920, Control_c, 15, 11, 45
33, 545960, Control_c, 15, 11, 46
33, 546000, Control_c, 15, 11, 47
33, 546040, Control_c, 15, 11, 48
33, 546080, Control_c, 15, 11, 49
33, 546120, Control_c, 15, 11, 50
33, 546160, Control_c, 15, 11, 51
33, 546200, Control_c, 15, 11, 53
33, 546224, Note_on_c, 15, 60, 0
33, 546240, Control_c, 15, 11, 54
33, 546240, Note_on_c, 15, 60, 92
33, 546280, Control_c, 15, 11, 55
33, 546320, Control_c, 15, 11, 56
33, 546360, Control_c, 15, 11, 57
33, 546400, Control_c, 15, 11, 58
33, 546440, Control_c, 15, 11, 59
33, 546480, Control_c, 15, 11, 60
33, 546520, Control_c, 15, 11, 61
33, 546560, Control_c, 15, 11, 63
33, 546600, Control_c, 15, 11, 64
33, 546640, Control_c, 15, 11, 65
33, 546680, Control_c, 15, 11, 66
33, 546704, Note_on_c, 15, 60, 0
33, 546720, Note_on_c, 15, 60, 92
33, 546720, Control_c, 15, 11, 67
33, 546760, Control_c, 15, 11, 68
33, 546800, Control_c, 15, 11, 69
33, 546840, Control_c, 15, 11, 70
33, 546880, Control_c, 15, 11, 71
33, 546920, Control_c, 15, 11, 73
33, 546960, Control_c, 15, 11, 74
33, 547000, Control_c, 15, 11, 75
33, 547040, Control_c, 15, 11, 76
33, 547080, Control_c, 15, 11, 77
33, 547120, Control_c, 15, 11, 78
33, 547160, Control_c, 15, 11, 79
33, 547199, Note_on_c, 15, 60, 0
33, 547200, Note_on_c, 15, 53, 92
33, 547200, Control_c, 15, 11, 80
33, 547240, Control_c, 15, 11, 81
33, 547280, Control_c, 15, 11, 83
33, 547320, Control_c, 15, 11, 84
33, 547360, Control_c, 15, 11, 85
33, 547400, Control_c, 15, 11, 86
33, 547440, Control_c, 15, 11, 87
33, 547480, Control_c, 15, 11, 88
33, 547520, Control_c, 15, 11, 89
33, 547560, Control_c, 15, 11, 90
33, 547600, Control_c, 15, 11, 91
33, 547640, Control_c, 15, 11, 93
33, 547664, Note_on_c, 15, 53, 0
33, 547680, Control_c, 15, 11, 94
33, 547680, Note_on_c, 15, 65, 92
33, 547720, Control_c, 15, 11, 95
33, 547760, Control_c, 15, 11, 96
33, 547800, Control_c, 15, 11, 97
33, 547840, Control_c, 15, 11, 98
33, 547880, Control_c, 15, 11, 99
33, 547920, Control_c, 15, 11, 100
33, 547960, Control_c, 15, 11, 101
33, 548000, Control_c, 15, 11, 103
33, 548040, Control_c, 15, 11, 104
33, 548080, Control_c, 15, 11, 105
33, 548120, Control_c, 15, 11, 107
33, 548144, Note_on_c, 15, 65, 0
33, 548160, Note_on_c, 15, 62, 92
33, 549599, Note_on_c, 15, 62, 0
33, 549840, Control_c, 15, 11, 127
33, 550080, Note_on_c, 15, 63, 92
33, 550784, Note_on_c, 15, 63, 0
33, 550800, Note_on_c, 15, 63, 92
33, 551024, Note_on_c, 15, 63, 0
33, 551040, Note_on_c, 15, 63, 92
33, 551984, Note_on_c, 15, 63, 0
33, 552000, Note_on_c, 15, 63, 92
33, 552464, Note_on_c, 15, 63, 0
33, 552480, Note_on_c, 15, 63, 92
33, 552944, Note_on_c, 15, 63, 0
33, 552960, Note_on_c, 15, 63, 92
33, 553904, Note_on_c, 15, 63, 0
33, 553920, Note_on_c, 15, 63, 92
33, 554864, Note_on_c, 15, 63, 0
33, 554880, Note_on_c, 15, 63, 92
33, 555359, Note_on_c, 15, 63, 0
33, 555840, Note_on_c, 15, 64, 32
33, 557744, Note_on_c, 15, 64, 0
33, 557760, Note_on_c, 15, 64, 32
33, 558704, Note_on_c, 15, 64, 0
33, 558720, Note_on_c, 15, 64, 32
33, 560144, Note_on_c, 15, 64, 0
33, 560160, Note_on_c, 15, 57, 32
33, 560211, Note_on_c, 15, 57, 0
33, 560220, Note_on_c, 15, 69, 32
33, 560271, Note_on_c, 15, 69, 0
33, 560280, Note_on_c, 15, 69, 32
33, 560331, Note_on_c, 15, 69, 0
33, 560340, Note_on_c, 15, 69, 32
33, 560391, Note_on_c, 15, 69, 0
33, 560400, Note_on_c, 15, 69, 32
33, 560451, Note_on_c, 15, 69, 0
33, 560460, Note_on_c, 15, 69, 32
33, 560511, Note_on_c, 15, 69, 0
33, 560520, Note_on_c, 15, 69, 32
33, 560571, Note_on_c, 15, 69, 0
33, 560580, Note_on_c, 15, 69, 32
33, 560631, Note_on_c, 15, 69, 0
33, 560640, Note_on_c, 15, 69, 32
33, 560691, Note_on_c, 15, 69, 0
33, 560700, Note_on_c, 15, 69, 32
33, 560751, Note_on_c, 15, 69, 0
33, 560760, Note_on_c, 15, 69, 32
33, 560811, Note_on_c, 15, 69, 0
33, 560820, Note_on_c, 15, 69, 32
33, 560871, Note_on_c, 15, 69, 0
33, 560880, Note_on_c, 15, 69, 32
33, 560931, Note_on_c, 15, 69, 0
33, 560940, Note_on_c, 15, 69, 32
33, 560991, Note_on_c, 15, 69, 0
33, 561000, Note_on_c, 15, 69, 32
33, 561051, Note_on_c, 15, 69, 0
33, 561060, Note_on_c, 15, 69, 32
33, 561111, Note_on_c, 15, 69, 0
33, 561120, Note_on_c, 15, 69, 32
33, 561171, Note_on_c, 15, 69, 0
33, 561180, Note_on_c, 15, 69, 32
33, 561231, Note_on_c, 15, 69, 0
33, 561240, Note_on_c, 15, 69, 32
33, 561291, Note_on_c, 15, 69, 0
33, 561300, Note_on_c, 15, 69, 32
33, 561351, Note_on_c, 15, 69, 0
33, 561360, Note_on_c, 15, 69, 32
33, 561411, Note_on_c, 15, 69, 0
33, 561420, Note_on_c, 15, 69, 32
33, 561471, Note_on_c, 15, 69, 0
33, 561480, Note_on_c, 15, 69, 32
33, 561531, Note_on_c, 15, 69, 0
33, 561540, Note_on_c, 15, 69, 32
33, 561591, Note_on_c, 15, 69, 0
33, 561600, Note_on_c, 15, 69, 32
33, 561651, Note_on_c, 15, 69, 0
33, 561660, Note_on_c, 15, 69, 32
33, 561711, Note_on_c, 15, 69, 0
33, 561720, Note_on_c, 15, 69, 32
33, 561771, Note_on_c, 15, 69, 0
33, 561780, Note_on_c, 15, 69, 32
33, 561831, Note_on_c, 15, 69, 0
33, 561840, Note_on_c, 15, 69, 32
33, 561891, Note_on_c, 15, 69, 0
33, 561900, Note_on_c, 15, 69, 32
33, 561951, Note_on_c, 15, 69, 0
33, 561960, Note_on_c, 15, 69, 32
33, 562011, Note_on_c, 15, 69, 0
33, 562020, Note_on_c, 15, 69, 32
33, 562071, Note_on_c, 15, 69, 0
33, 562080, Note_on_c, 15, 69, 32
33, 562131, Note_on_c, 15, 69, 0
33, 562140, Note_on_c, 15, 69, 32
33, 562191, Note_on_c, 15, 69, 0
33, 562200, Note_on_c, 15, 69, 32
33, 562251, Note_on_c, 15, 69, 0
33, 562260, Note_on_c, 15, 69, 32
33, 562311, Note_on_c, 15, 69, 0
33, 562320, Note_on_c, 15, 69, 32
33, 562371, Note_on_c, 15, 69, 0
33, 562380, Note_on_c, 15, 69, 32
33, 562431, Note_on_c, 15, 69, 0
33, 562440, Note_on_c, 15, 69, 32
33, 562491, Note_on_c, 15, 69, 0
33, 562500, Note_on_c, 15, 69, 32
33, 562551, Note_on_c, 15, 69, 0
33, 562560, Note_on_c, 15, 69, 32
33, 562611, Note_on_c, 15, 69, 0
33, 562620, Note_on_c, 15, 69, 32
33, 562671, Note_on_c, 15, 69, 0
33, 562680, Note_on_c, 15, 69, 32
33, 562731, Note_on_c, 15, 69, 0
33, 562740, Note_on_c, 15, 69, 32
33, 562791, Note_on_c, 15, 69, 0
33, 562800, Note_on_c, 15, 69, 32
33, 562851, Note_on_c, 15, 69, 0
33, 562860, Note_on_c, 15, 69, 32
33, 562911, Note_on_c, 15, 69, 0
33, 562920, Note_on_c, 15, 69, 32
33, 562971, Note_on_c, 15, 69, 0
33, 562980, Note_on_c, 15, 69, 32
33, 563031, Note_on_c, 15, 69, 0
33, 563040, Note_on_c, 15, 69, 32
33, 563091, Note_on_c, 15, 69, 0
33, 563100, Note_on_c, 15, 69, 32
33, 563151, Note_on_c, 15, 69, 0
33, 563160, Note_on_c, 15, 69, 32
33, 563211, Note_on_c, 15, 69, 0
33, 563220, Note_on_c, 15, 69, 32
33, 563271, Note_on_c, 15, 69, 0
33, 563280, Note_on_c, 15, 69, 32
33, 563331, Note_on_c, 15, 69, 0
33, 563340, Note_on_c, 15, 69, 32
33, 563391, Note_on_c, 15, 69, 0
33, 563400, Note_on_c, 15, 69, 32
33, 563451, Note_on_c, 15, 69, 0
33, 563460, Note_on_c, 15, 69, 32
33, 563511, Note_on_c, 15, 69, 0
33, 563520, Note_on_c, 15, 69, 32
33, 563571, Note_on_c, 15, 69, 0
33, 563580, Note_on_c, 15, 69, 32
33, 563631, Note_on_c, 15, 69, 0
33, 563640, Note_on_c, 15, 69, 32
33, 563691, Note_on_c, 15, 69, 0
33, 563700, Note_on_c, 15, 69, 32
33, 563751, Note_on_c, 15, 69, 0
33, 563760, Note_on_c, 15, 69, 32
33, 563811, Note_on_c, 15, 69, 0
33, 563820, Note_on_c, 15, 69, 32
33, 563871, Note_on_c, 15, 69, 0
33, 563880, Note_on_c, 15, 69, 32
33, 563931, Note_on_c, 15, 69, 0
33, 563940, Note_on_c, 15, 69, 32
33, 563991, Note_on_c, 15, 69, 0
33, 564000, Note_on_c, 15, 69, 32
33, 564051, Note_on_c, 15, 69, 0
33, 564060, Note_on_c, 15, 69, 32
33, 564111, Note_on_c, 15, 69, 0
33, 564120, Note_on_c, 15, 69, 32
33, 564171, Note_on_c, 15, 69, 0
33, 564180, Note_on_c, 15, 69, 32
33, 564231, Note_on_c, 15, 69, 0
33, 564240, Note_on_c, 15, 69, 32
33, 564291, Note_on_c, 15, 69, 0
33, 564300, Note_on_c, 15, 69, 32
33, 564351, Note_on_c, 15, 69, 0
33, 564360, Note_on_c, 15, 69, 32
33, 564411, Note_on_c, 15, 69, 0
33, 564420, Note_on_c, 15, 69, 32
33, 564471, Note_on_c, 15, 69, 0
33, 564480, Note_on_c, 15, 69, 32
33, 564531, Note_on_c, 15, 69, 0
33, 564540, Note_on_c, 15, 69, 32
33, 564591, Note_on_c, 15, 69, 0
33, 564600, Note_on_c, 15, 69, 32
33, 564651, Note_on_c, 15, 69, 0
33, 564660, Note_on_c, 15, 69, 32
33, 564711, Note_on_c, 15, 69, 0
33, 564720, Note_on_c, 15, 69, 32
33, 564771, Note_on_c, 15, 69, 0
33, 564780, Note_on_c, 15, 69, 32
33, 564831, Note_on_c, 15, 69, 0
33, 564840, Note_on_c, 15, 69, 32
33, 564891, Note_on_c, 15, 69, 0
33, 564900, Note_on_c, 15, 69, 32
33, 564951, Note_on_c, 15, 69, 0
33, 564960, Note_on_c, 15, 69, 32
33, 565011, Note_on_c, 15, 69, 0
33, 565020, Note_on_c, 15, 69, 32
33, 565071, Note_on_c, 15, 69, 0
33, 565080, Note_on_c, 15, 69, 32
33, 565131, Note_on_c, 15, 69, 0
33, 565140, Note_on_c, 15, 69, 32
33, 565191, Note_on_c, 15, 69, 0
33, 565200, Note_on_c, 15, 69, 32
33, 565251, Note_on_c, 15, 69, 0
33, 565260, Note_on_c, 15, 69, 32
33, 565311, Note_on_c, 15, 69, 0
33, 565320, Note_on_c, 15, 69, 32
33, 565371, Note_on_c, 15, 69, 0
33, 565380, Note_on_c, 15, 69, 32
33, 565431, Note_on_c, 15, 69, 0
33, 565440, Note_on_c, 15, 69, 32
33, 565491, Note_on_c, 15, 69, 0
33, 565500, Note_on_c, 15, 69, 32
33, 565551, Note_on_c, 15, 69, 0
33, 565560, Note_on_c, 15, 69, 32
33, 565611, Note_on_c, 15, 69, 0
33, 565620, Note_on_c, 15, 69, 32
33, 565671, Note_on_c, 15, 69, 0
33, 565680, Note_on_c, 15, 69, 32
33, 565731, Note_on_c, 15, 69, 0
33, 565740, Note_on_c, 15, 69, 32
33, 565791, Note_on_c, 15, 69, 0
33, 565800, Note_on_c, 15, 69, 32
33, 565851, Note_on_c, 15, 69, 0
33, 565860, Note_on_c, 15, 69, 32
33, 565911, Note_on_c, 15, 69, 0
33, 565920, Note_on_c, 15, 69, 32
33, 565971, Note_on_c, 15, 69, 0
33, 565980, Note_on_c, 15, 69, 32
33, 566031, Note_on_c, 15, 69, 0
33, 566040, Note_on_c, 15, 69, 32
33, 566091, Note_on_c, 15, 69, 0
33, 566100, Note_on_c, 15, 69, 32
33, 566151, Note_on_c, 15, 69, 0
33, 566160, Note_on_c, 15, 69, 32
33, 566211, Note_on_c, 15, 69, 0
33, 566220, Note_on_c, 15, 69, 32
33, 566271, Note_on_c, 15, 69, 0
33, 566280, Note_on_c, 15, 69, 32
33, 566331, Note_on_c, 15, 69, 0
33, 566340, Note_on_c, 15, 69, 32
33, 566391, Note_on_c, 15, 69, 0
33, 566400, Note_on_c, 15, 69, 32
33, 566451, Note_on_c, 15, 69, 0
33, 566460, Note_on_c, 15, 69, 32
33, 566511, Note_on_c, 15, 69, 0
33, 566520, Note_on_c, 15, 69, 32
33, 566571, Note_on_c, 15, 69, 0
33, 566580, Note_on_c, 15, 69, 32
33, 566631, Note_on_c, 15, 69, 0
33, 566640, Note_on_c, 15, 69, 32
33, 566691, Note_on_c, 15, 69, 0
33, 566700, Note_on_c, 15, 69, 32
33, 566751, Note_on_c, 15, 69, 0
33, 566760, Note_on_c, 15, 69, 32
33, 566811, Note_on_c, 15, 69, 0
33, 566820, Note_on_c, 15, 69, 32
33, 566879, Note_on_c, 15, 69, 0
33, 579120, Note_on_c, 15, 69, 92
33, 579819, Note_on_c, 15, 69, 0
33, 579840, Note_on_c, 15, 61, 92
33, 579959, Note_on_c, 15, 61, 0
33, 579960, Note_on_c, 15, 52, 92
33, 580079, Note_on_c, 15, 52, 0
33, 580080, Note_on_c, 15, 54, 92
33, 580199, Note_on_c, 15, 54, 0
33, 580200, Note_on_c, 15, 56, 92
33, 580319, Note_on_c, 15, 56, 0
33, 580320, Note_on_c, 15, 57, 92
33, 580439, Note_on_c, 15, 57, 0
33, 580440, Note_on_c, 15, 59, 92
33, 580539, Note_on_c, 15, 59, 0
33, 580560, Note_on_c, 15, 61, 92
33, 580679, Note_on_c, 15, 61, 0
33, 580680, Note_on_c, 15, 59, 92
33, 580799, Note_on_c, 15, 59, 0
33, 580800, Note_on_c, 15, 57, 92
33, 580919, Note_on_c, 15, 57, 0
33, 580920, Note_on_c, 15, 59, 92
33, 581039, Note_on_c, 15, 59, 0
33, 581040, Note_on_c, 15, 61, 92
33, 581159, Note_on_c, 15, 61, 0
33, 581160, Note_on_c, 15, 62, 92
33, 581259, Note_on_c, 15, 62, 0
33, 581280, Note_on_c, 15, 64, 92
33, 581399, Note_on_c, 15, 64, 0
33, 581400, Note_on_c, 15, 66, 92
33, 581519, Note_on_c, 15, 66, 0
33, 581520, Note_on_c, 15, 64, 92
33, 581639, Note_on_c, 15, 64, 0
33, 581640, Note_on_c, 15, 62, 92
33, 581759, Note_on_c, 15, 62, 0
33, 581760, Note_on_c, 15, 64, 92
33, 581879, Note_on_c, 15, 64, 0
33, 581880, Note_on_c, 15, 62, 92
33, 581979, Note_on_c, 15, 62, 0
33, 582000, Note_on_c, 15, 61, 92
33, 582119, Note_on_c, 15, 61, 0
33, 582120, Note_on_c, 15, 62, 92
33, 582239, Note_on_c, 15, 62, 0
33, 582240, Note_on_c, 15, 61, 92
33, 582359, Note_on_c, 15, 61, 0
33, 582360, Note_on_c, 15, 59, 92
33, 582479, Note_on_c, 15, 59, 0
33, 582480, Note_on_c, 15, 61, 92
33, 582599, Note_on_c, 15, 61, 0
33, 582600, Note_on_c, 15, 59, 92
33, 582699, Note_on_c, 15, 59, 0
33, 582720, Note_on_c, 15, 57, 92
33, 582839, Note_on_c, 15, 57, 0
33, 582840, Note_on_c, 15, 49, 92
33, 582959, Note_on_c, 15, 49, 0
33, 582960, Note_on_c, 15, 50, 92
33, 583079, Note_on_c, 15, 50, 0
33, 583080, Note_on_c, 15, 52, 92
33, 583199, Note_on_c, 15, 52, 0
33, 583200, Note_on_c, 15, 54, 92
33, 583319, Note_on_c, 15, 54, 0
33, 583320, Note_on_c, 15, 56, 92
33, 583419, Note_on_c, 15, 56, 0
33, 583440, Note_on_c, 15, 57, 92
33, 583559, Note_on_c, 15, 57, 0
33, 583560, Note_on_c, 15, 56, 92
33, 583679, Note_on_c, 15, 56, 0
33, 583680, Note_on_c, 15, 54, 92
33, 583799, Note_on_c, 15, 54, 0
33, 583800, Note_on_c, 15, 56, 92
33, 583919, Note_on_c, 15, 56, 0
33, 583920, Note_on_c, 15, 57, 92
33, 584039, Note_on_c, 15, 57, 0
33, 584040, Note_on_c, 15, 59, 92
33, 584139, Note_on_c, 15, 59, 0
33, 584160, Note_on_c, 15, 61, 92
33, 584279, Note_on_c, 15, 61, 0
33, 584280, Note_on_c, 15, 62, 92
33, 584399, Note_on_c, 15, 62, 0
33, 584400, Note_on_c, 15, 61, 92
33, 584519, Note_on_c, 15, 61, 0
33, 584520, Note_on_c, 15, 59, 92
33, 584639, Note_on_c, 15, 59, 0
33, 584640, Note_on_c, 15, 61, 92
33, 584759, Note_on_c, 15, 61, 0
33, 584760, Note_on_c, 15, 59, 92
33, 584859, Note_on_c, 15, 59, 0
33, 584880, Note_on_c, 15, 57, 92
33, 584999, Note_on_c, 15, 57, 0
33, 585000, Note_on_c, 15, 59, 92
33, 585119, Note_on_c, 15, 59, 0
33, 585120, Note_on_c, 15, 57, 92
33, 585239, Note_on_c, 15, 57, 0
33, 585240, Note_on_c, 15, 55, 92
33, 585359, Note_on_c, 15, 55, 0
33, 585360, Note_on_c, 15, 57, 92
33, 585479, Note_on_c, 15, 57, 0
33, 585480, Note_on_c, 15, 55, 92
33, 585579, Note_on_c, 15, 55, 0
33, 585600, Note_on_c, 15, 54, 92
33, 585719, Note_on_c, 15, 54, 0
33, 585720, Note_on_c, 15, 45, 92
33, 585839, Note_on_c, 15, 45, 0
33, 585840, Note_on_c, 15, 47, 92
33, 585959, Note_on_c, 15, 47, 0
33, 585960, Note_on_c, 15, 49, 92
33, 586079, Note_on_c, 15, 49, 0
33, 586080, Note_on_c, 15, 50, 92
33, 586199, Note_on_c, 15, 50, 0
33, 586200, Note_on_c, 15, 52, 92
33, 586299, Note_on_c, 15, 52, 0
33, 586320, Note_on_c, 15, 54, 92
33, 586439, Note_on_c, 15, 54, 0
33, 586440, Note_on_c, 15, 52, 92
33, 586559, Note_on_c, 15, 52, 0
33, 586560, Note_on_c, 15, 50, 92
33, 586679, Note_on_c, 15, 50, 0
33, 586680, Note_on_c, 15, 52, 92
33, 586799, Note_on_c, 15, 52, 0
33, 586800, Note_on_c, 15, 54, 92
33, 586919, Note_on_c, 15, 54, 0
33, 586920, Note_on_c, 15, 56, 92
33, 587019, Note_on_c, 15, 56, 0
33, 587040, Note_on_c, 15, 57, 92
33, 587159, Note_on_c, 15, 57, 0
33, 587160, Note_on_c, 15, 59, 92
33, 587279, Note_on_c, 15, 59, 0
33, 587280, Note_on_c, 15, 57, 92
33, 587399, Note_on_c, 15, 57, 0
33, 587400, Note_on_c, 15, 55, 92
33, 587519, Note_on_c, 15, 55, 0
33, 587520, Note_on_c, 15, 57, 92
33, 587639, Note_on_c, 15, 57, 0
33, 587640, Note_on_c, 15, 55, 92
33, 587739, Note_on_c, 15, 55, 0
33, 587760, Note_on_c, 15, 54, 92
33, 587879, Note_on_c, 15, 54, 0
33, 587880, Note_on_c, 15, 55, 92
33, 587999, Note_on_c, 15, 55, 0
33, 588000, Note_on_c, 15, 54, 92
33, 588119, Note_on_c, 15, 54, 0
33, 588120, Note_on_c, 15, 52, 92
33, 588239, Note_on_c, 15, 52, 0
33, 588240, Note_on_c, 15, 54, 92
33, 588359, Note_on_c, 15, 54, 0
33, 588360, Note_on_c, 15, 52, 92
33, 588459, Note_on_c, 15, 52, 0
33, 588480, Note_on_c, 15, 50, 92
33, 588599, Note_on_c, 15, 50, 0
33, 588600, Note_on_c, 15, 52, 92
33, 588719, Note_on_c, 15, 52, 0
33, 588720, Note_on_c, 15, 50, 92
33, 588839, Note_on_c, 15, 50, 0
33, 588840, Note_on_c, 15, 49, 92
33, 588959, Note_on_c, 15, 49, 0
33, 588960, Note_on_c, 15, 50, 92
33, 589079, Note_on_c, 15, 50, 0
33, 589080, Note_on_c, 15, 49, 92
33, 589179, Note_on_c, 15, 49, 0
33, 589200, Note_on_c, 15, 47, 92
33, 589319, Note_on_c, 15, 47, 0
33, 589320, Note_on_c, 15, 49, 92
33, 589439, Note_on_c, 15, 49, 0
33, 589440, Note_on_c, 15, 47, 92
33, 589559, Note_on_c, 15, 47, 0
33, 589560, Note_on_c, 15, 45, 92
33, 589679, Note_on_c, 15, 45, 0
33, 589680, Note_on_c, 15, 47, 92
33, 589799, Note_on_c, 15, 47, 0
33, 589800, Note_on_c, 15, 45, 92
33, 589899, Note_on_c, 15, 45, 0
33, 589920, Note_on_c, 15, 50, 92
33, 590039, Note_on_c, 15, 50, 0
33, 590040, Note_on_c, 15, 45, 92
33, 590159, Note_on_c, 15, 45, 0
33, 590160, Note_on_c, 15, 47, 92
33, 590279, Note_on_c, 15, 47, 0
33, 590280, Note_on_c, 15, 49, 92
33, 590399, Note_on_c, 15, 49, 0
33, 590400, Note_on_c, 15, 50, 92
33, 590519, Note_on_c, 15, 50, 0
33, 590520, Note_on_c, 15, 49, 92
33, 590619, Note_on_c, 15, 49, 0
33, 590640, Note_on_c, 15, 50, 92
33, 590759, Note_on_c, 15, 50, 0
33, 590760, Note_on_c, 15, 54, 92
33, 590879, Note_on_c, 15, 54, 0
33, 590880, Note_on_c, 15, 57, 92
33, 590999, Note_on_c, 15, 57, 0
33, 591000, Note_on_c, 15, 61, 92
33, 591099, Note_on_c, 15, 61, 0
33, 591120, Note_on_c, 15, 62, 92
33, 591339, Note_on_c, 15, 62, 0
33, 591360, Note_on_c, 15, 66, 92
33, 591819, Note_on_c, 15, 66, 0
33, 591840, Note_on_c, 15, 66, 92
33, 592059, Note_on_c, 15, 66, 0
33, 592080, Note_on_c, 15, 67, 92
33, 592539, Note_on_c, 15, 67, 0
33, 592560, Note_on_c, 15, 69, 92
33, 592779, Note_on_c, 15, 69, 0
33, 592800, Note_on_c, 15, 69, 92
33, 593259, Note_on_c, 15, 69, 0
33, 593280, Note_on_c, 15, 67, 92
33, 593499, Note_on_c, 15, 67, 0
33, 593520, Note_on_c, 15, 66, 92
33, 593979, Note_on_c, 15, 66, 0
33, 594000, Note_on_c, 15, 64, 92
33, 594219, Note_on_c, 15, 64, 0
33, 594240, Note_on_c, 15, 62, 92
33, 594699, Note_on_c, 15, 62, 0
33, 594720, Note_on_c, 15, 62, 92
33, 594939, Note_on_c, 15, 62, 0
33, 594960, Note_on_c, 15, 64, 92
33, 595419, Note_on_c, 15, 64, 0
33, 595440, Note_on_c, 15, 66, 92
33, 595659, Note_on_c, 15, 66, 0
33, 595680, Note_on_c, 15, 66, 92
33, 596139, Note_on_c, 15, 66, 0
33, 596160, Note_on_c, 15, 64, 92
33, 596379, Note_on_c, 15, 64, 0
33, 596400, Note_on_c, 15, 62, 92
33, 596859, Note_on_c, 15, 62, 0
33, 596880, Note_on_c, 15, 60, 92
33, 597099, Note_on_c, 15, 60, 0
33, 597120, Note_on_c, 15, 59, 92
33, 597579, Note_on_c, 15, 59, 0
33, 597600, Note_on_c, 15, 59, 92
33, 597819, Note_on_c, 15, 59, 0
33, 597840, Note_on_c, 15, 61, 92
33, 598299, Note_on_c, 15, 61, 0
33, 598320, Note_on_c, 15, 62, 92
33, 598539, Note_on_c, 15, 62, 0
33, 598560, Note_on_c, 15, 62, 92
33, 599019, Note_on_c, 15, 62, 0
33, 599040, Note_on_c, 15, 61, 92
33, 599259, Note_on_c, 15, 61, 0
33, 599280, Note_on_c, 15, 59, 92
33, 599739, Note_on_c, 15, 59, 0
33, 599760, Note_on_c, 15, 57, 92
33, 599979, Note_on_c, 15, 57, 0
33, 600000, Note_on_c, 15, 55, 92
33, 600459, Note_on_c, 15, 55, 0
33, 600480, Note_on_c, 15, 54, 92
33, 600699, Note_on_c, 15, 54, 0
33, 600720, Note_on_c, 15, 52, 92
33, 601179, Note_on_c, 15, 52, 0
33, 601200, Note_on_c, 15, 50, 92
33, 601419, Note_on_c, 15, 50, 0
33, 601440, Note_on_c, 15, 57, 92
33, 601899, Note_on_c, 15, 57, 0
33, 601920, Note_on_c, 15, 61, 92
33, 602619, Note_on_c, 15, 61, 0
33, 602640, Note_on_c, 15, 59, 92
33, 602859, Note_on_c, 15, 59, 0
33, 602880, Note_on_c, 15, 57, 92
33, 603579, Note_on_c, 15, 57, 0
33, 603600, Note_on_c, 15, 59, 92
33, 604059, Note_on_c, 15, 59, 0
33, 604080, Note_on_c, 15, 61, 92
33, 604299, Note_on_c, 15, 61, 0
33, 604320, Note_on_c, 15, 64, 92
33, 604779, Note_on_c, 15, 64, 0
33, 604800, Note_on_c, 15, 64, 92
33, 605019, Note_on_c, 15, 64, 0
33, 605040, Note_on_c, 15, 52, 92
33, 606219, Note_on_c, 15, 52, 0
33, 606240, Note_on_c, 15, 50, 92
33, 606459, Note_on_c, 15, 50, 0
33, 606480, Note_on_c, 15, 62, 92
33, 606939, Note_on_c, 15, 62, 0
33, 606960, Note_on_c, 15, 57, 92
33, 607179, Note_on_c, 15, 57, 0
33, 607200, Note_on_c, 15, 69, 92
33, 607659, Note_on_c, 15, 69, 0
33, 607680, Note_on_c, 15, 69, 92
33, 607899, Note_on_c, 15, 69, 0
33, 607920, Note_on_c, 15, 57, 92
33, 608619, Note_on_c, 15, 57, 0
33, 608640, Note_on_c, 15, 59, 92
33, 609339, Note_on_c, 15, 59, 0
33, 609360, Note_on_c, 15, 52, 92
33, 610059, Note_on_c, 15, 52, 0
33, 610080, Note_on_c, 15, 54, 92
33, 610539, Note_on_c, 15, 54, 0
33, 610560, Note_on_c, 15, 64, 92
33, 610779, Note_on_c, 15, 64, 0
33, 610800, Note_on_c, 15, 62, 92
33, 611259, Note_on_c, 15, 62, 0
33, 611280, Note_on_c, 15, 61, 92
33, 611499, Note_on_c, 15, 61, 0
33, 611520, Note_on_c, 15, 59, 92
33, 611759, Note_on_c, 15, 59, 0
33, 611760, Note_on_c, 15, 57, 92
33, 612219, Note_on_c, 15, 57, 0
33, 612240, Note_on_c, 15, 57, 92
33, 612939, Note_on_c, 15, 57, 0
33, 612960, Note_on_c, 15, 58, 80
33, 613659, Note_on_c, 15, 58, 0
33, 613680, Note_on_c, 15, 54, 80
33, 614379, Note_on_c, 15, 54, 0
33, 614400, Note_on_c, 15, 64, 80
33, 615099, Note_on_c, 15, 64, 0
33, 615120, Note_on_c, 15, 64, 80
33, 615819, Note_on_c, 15, 64, 0
33, 615840, Note_on_c, 15, 63, 80
33, 616559, Note_on_c, 15, 63, 0
33, 617280, Note_on_c, 15, 59, 80
33, 617979, Note_on_c, 15, 59, 0
33, 618000, Note_on_c, 15, 59, 80
33, 618699, Note_on_c, 15, 59, 0
33, 618720, Note_on_c, 15, 59, 80
33, 619419, Note_on_c, 15, 59, 0
33, 619440, Note_on_c, 15, 52, 80
33, 620139, Note_on_c, 15, 52, 0
33, 620160, Note_on_c, 15, 62, 80
33, 620859, Note_on_c, 15, 62, 0
33, 620880, Note_on_c, 15, 61, 80
33, 621579, Note_on_c, 15, 61, 0
33, 621600, Note_on_c, 15, 64, 80
33, 622059, Note_on_c, 15, 64, 0
33, 622080, Note_on_c, 15, 62, 80
33, 622299, Note_on_c, 15, 62, 0
33, 622320, Note_on_c, 15, 66, 80
33, 622779, Note_on_c, 15, 66, 0
33, 622800, Note_on_c, 15, 64, 80
33, 623519, Note_on_c, 15, 64, 0
33, 623520, Note_on_c, 15, 62, 80
33, 623759, Note_on_c, 15, 62, 0
33, 623760, Note_on_c, 15, 64, 80
33, 624239, Note_on_c, 15, 64, 0
33, 624240, Note_on_c, 15, 66, 80
33, 624459, Note_on_c, 15, 66, 0
33, 624480, Note_on_c, 15, 64, 80
33, 625179, Note_on_c, 15, 64, 0
33, 625200, Note_on_c, 15, 62, 80
33, 625659, Note_on_c, 15, 62, 0
33, 625680, Note_on_c, 15, 61, 80
33, 626399, Note_on_c, 15, 61, 0
33, 626400, Note_on_c, 15, 59, 80
33, 626639, Note_on_c, 15, 59, 0
33, 626640, Note_on_c, 15, 61, 80
33, 627119, Note_on_c, 15, 61, 0
33, 627120, Note_on_c, 15, 62, 80
33, 627819, Note_on_c, 15, 62, 0
33, 627840, Note_on_c, 15, 61, 80
33, 628059, Note_on_c, 15, 61, 0
33, 628080, Note_on_c, 15, 59, 80
33, 628539, Note_on_c, 15, 59, 0
33, 628560, Note_on_c, 15, 57, 80
33, 628779, Note_on_c, 15, 57, 0
33, 628800, Note_on_c, 15, 64, 80
33, 629259, Note_on_c, 15, 64, 0
33, 629280, Note_on_c, 15, 62, 80
33, 629499, Note_on_c, 15, 62, 0
33, 629520, Note_on_c, 15, 61, 80
33, 629979, Note_on_c, 15, 61, 0
33, 630000, Note_on_c, 15, 59, 80
33, 630219, Note_on_c, 15, 59, 0
33, 630240, Note_on_c, 15, 47, 80
33, 630699, Note_on_c, 15, 47, 0
33, 630720, Note_on_c, 15, 47, 80
33, 630959, Note_on_c, 15, 47, 0
33, 630960, Note_on_c, 15, 49, 80
33, 631439, Note_on_c, 15, 49, 0
33, 631440, Note_on_c, 15, 50, 80
33, 631659, Note_on_c, 15, 50, 0
33, 631680, Note_on_c, 15, 52, 80
33, 632159, Note_on_c, 15, 52, 0
33, 632160, Note_on_c, 15, 54, 80
33, 632399, Note_on_c, 15, 54, 0
33, 632400, Note_on_c, 15, 56, 80
33, 632879, Note_on_c, 15, 56, 0
33, 632880, Note_on_c, 15, 52, 80
33, 633099, Note_on_c, 15, 52, 0
33, 633120, Note_on_c, 15, 59, 80
33, 633599, Note_on_c, 15, 59, 0
33, 633600, Note_on_c, 15, 57, 80
33, 633839, Note_on_c, 15, 57, 0
33, 633840, Note_on_c, 15, 59, 80
33, 634319, Note_on_c, 15, 59, 0
33, 634320, Note_on_c, 15, 61, 80
33, 634539, Note_on_c, 15, 61, 0
33, 634560, Note_on_c, 15, 66, 80
33, 635259, Note_on_c, 15, 66, 0
33, 635280, Note_on_c, 15, 66, 80
33, 635979, Note_on_c, 15, 66, 0
33, 636000, Note_on_c, 15, 64, 92
33, 637179, Note_on_c, 15, 64, 0
33, 637200, Note_on_c, 15, 62, 92
33, 637419, Note_on_c, 15, 62, 0
33, 637440, Note_on_c, 15, 59, 92
33, 638139, Note_on_c, 15, 59, 0
33, 638160, Note_on_c, 15, 59, 80
33, 638859, Note_on_c, 15, 59, 0
33, 638880, Note_on_c, 15, 58, 80
33, 639579, Note_on_c, 15, 58, 0
33, 639600, Note_on_c, 15, 54, 80
33, 640299, Note_on_c, 15, 54, 0
33, 640320, Note_on_c, 15, 62, 80
33, 641019, Note_on_c, 15, 62, 0
33, 641040, Note_on_c, 15, 59, 80
33, 641739, Note_on_c, 15, 59, 0
33, 641760, Note_on_c, 15, 61, 80
33, 642459, Note_on_c, 15, 61, 0
33, 642480, Note_on_c, 15, 61, 80
33, 643179, Note_on_c, 15, 61, 0
33, 643200, Note_on_c, 15, 54, 80
33, 643899, Note_on_c, 15, 54, 0
33, 643920, Note_on_c, 15, 54, 80
33, 644619, Note_on_c, 15, 54, 0
33, 644640, Note_on_c, 15, 59, 80
33, 645339, Note_on_c, 15, 59, 0
33, 645360, Note_on_c, 15, 62, 80
33, 646059, Note_on_c, 15, 62, 0
33, 646080, Note_on_c, 15, 47, 80
33, 646199, Note_on_c, 15, 47, 0
33, 646200, Note_on_c, 15, 42, 80
33, 646319, Note_on_c, 15, 42, 0
33, 646320, Note_on_c, 15, 44, 80
33, 646439, Note_on_c, 15, 44, 0
33, 646440, Note_on_c, 15, 46, 80
33, 646559, Note_on_c, 15, 46, 0
33, 646560, Note_on_c, 15, 47, 80
33, 646679, Note_on_c, 15, 47, 0
33, 646680, Note_on_c, 15, 49, 80
33, 646779, Note_on_c, 15, 49, 0
33, 646800, Note_on_c, 15, 50, 80
33, 646919, Note_on_c, 15, 50, 0
33, 646920, Note_on_c, 15, 49, 80
33, 647039, Note_on_c, 15, 49, 0
33, 647040, Note_on_c, 15, 47, 80
33, 647159, Note_on_c, 15, 47, 0
33, 647160, Note_on_c, 15, 49, 80
33, 647279, Note_on_c, 15, 49, 0
33, 647280, Note_on_c, 15, 50, 80
33, 647399, Note_on_c, 15, 50, 0
33, 647400, Note_on_c, 15, 52, 80
33, 647499, Note_on_c, 15, 52, 0
33, 647520, Note_on_c, 15, 54, 80
33, 647639, Note_on_c, 15, 54, 0
33, 647640, Note_on_c, 15, 55, 80
33, 647759, Note_on_c, 15, 55, 0
33, 647760, Note_on_c, 15, 54, 80
33, 647879, Note_on_c, 15, 54, 0
33, 647880, Note_on_c, 15, 52, 80
33, 647999, Note_on_c, 15, 52, 0
33, 648000, Note_on_c, 15, 54, 80
33, 648119, Note_on_c, 15, 54, 0
33, 648120, Note_on_c, 15, 52, 80
33, 648219, Note_on_c, 15, 52, 0
33, 648240, Note_on_c, 15, 50, 80
33, 648359, Note_on_c, 15, 50, 0
33, 648360, Note_on_c, 15, 52, 80
33, 648479, Note_on_c, 15, 52, 0
33, 648480, Note_on_c, 15, 50, 80
33, 648599, Note_on_c, 15, 50, 0
33, 648600, Note_on_c, 15, 49, 80
33, 648719, Note_on_c, 15, 49, 0
33, 648720, Note_on_c, 15, 50, 80
33, 648839, Note_on_c, 15, 50, 0
33, 648840, Note_on_c, 15, 49, 80
33, 648939, Note_on_c, 15, 49, 0
33, 648960, Note_on_c, 15, 49, 80
33, 649079, Note_on_c, 15, 49, 0
33, 649080, Note_on_c, 15, 42, 80
33, 649199, Note_on_c, 15, 42, 0
33, 649200, Note_on_c, 15, 44, 80
33, 649319, Note_on_c, 15, 44, 0
33, 649320, Note_on_c, 15, 46, 80
33, 649439, Note_on_c, 15, 46, 0
33, 649440, Note_on_c, 15, 47, 80
33, 649559, Note_on_c, 15, 47, 0
33, 649560, Note_on_c, 15, 49, 80
33, 649659, Note_on_c, 15, 49, 0
33, 649680, Note_on_c, 15, 51, 80
33, 649799, Note_on_c, 15, 51, 0
33, 649800, Note_on_c, 15, 47, 80
33, 649919, Note_on_c, 15, 47, 0
33, 649920, Note_on_c, 15, 49, 80
33, 650039, Note_on_c, 15, 49, 0
33, 650040, Note_on_c, 15, 51, 80
33, 650159, Note_on_c, 15, 51, 0
33, 650160, Note_on_c, 15, 52, 80
33, 650279, Note_on_c, 15, 52, 0
33, 650280, Note_on_c, 15, 49, 80
33, 650379, Note_on_c, 15, 49, 0
33, 650400, Note_on_c, 15, 54, 80
33, 650519, Note_on_c, 15, 54, 0
33, 650520, Note_on_c, 15, 56, 80
33, 650639, Note_on_c, 15, 56, 0
33, 650640, Note_on_c, 15, 54, 80
33, 650759, Note_on_c, 15, 54, 0
33, 650760, Note_on_c, 15, 51, 80
33, 650879, Note_on_c, 15, 51, 0
33, 650880, Note_on_c, 15, 52, 80
33, 650999, Note_on_c, 15, 52, 0
33, 651000, Note_on_c, 15, 51, 80
33, 651099, Note_on_c, 15, 51, 0
33, 651120, Note_on_c, 15, 49, 80
33, 651239, Note_on_c, 15, 49, 0
33, 651240, Note_on_c, 15, 51, 80
33, 651359, Note_on_c, 15, 51, 0
33, 651360, Note_on_c, 15, 49, 80
33, 651479, Note_on_c, 15, 49, 0
33, 651480, Note_on_c, 15, 47, 80
33, 651599, Note_on_c, 15, 47, 0
33, 651600, Note_on_c, 15, 49, 80
33, 651719, Note_on_c, 15, 49, 0
33, 651720, Note_on_c, 15, 47, 80
33, 651819, Note_on_c, 15, 47, 0
33, 651840, Note_on_c, 15, 54, 80
33, 651959, Note_on_c, 15, 54, 0
33, 651960, Note_on_c, 15, 47, 80
33, 652079, Note_on_c, 15, 47, 0
33, 652080, Note_on_c, 15, 49, 80
33, 652199, Note_on_c, 15, 49, 0
33, 652200, Note_on_c, 15, 51, 80
33, 652319, Note_on_c, 15, 51, 0
33, 652320, Note_on_c, 15, 52, 80
33, 652439, Note_on_c, 15, 52, 0
33, 652440, Note_on_c, 15, 54, 80
33, 652539, Note_on_c, 15, 54, 0
33, 652560, Note_on_c, 15, 56, 80
33, 652679, Note_on_c, 15, 56, 0
33, 652680, Note_on_c, 15, 47, 80
33, 652799, Note_on_c, 15, 47, 0
33, 652800, Note_on_c, 15, 54, 80
33, 652919, Note_on_c, 15, 54, 0
33, 652920, Note_on_c, 15, 56, 80
33, 653039, Note_on_c, 15, 56, 0
33, 653040, Note_on_c, 15, 57, 80
33, 653159, Note_on_c, 15, 57, 0
33, 653160, Note_on_c, 15, 54, 80
33, 653259, Note_on_c, 15, 54, 0
33, 653280, Note_on_c, 15, 57, 80
33, 653399, Note_on_c, 15, 57, 0
33, 653400, Note_on_c, 15, 59, 80
33, 653519, Note_on_c, 15, 59, 0
33, 653520, Note_on_c, 15, 57, 80
33, 653639, Note_on_c, 15, 57, 0
33, 653640, Note_on_c, 15, 56, 80
33, 653759, Note_on_c, 15, 56, 0
33, 653760, Note_on_c, 15, 57, 80
33, 653879, Note_on_c, 15, 57, 0
33, 653880, Note_on_c, 15, 56, 80
33, 653979, Note_on_c, 15, 56, 0
33, 654000, Note_on_c, 15, 54, 80
33, 654119, Note_on_c, 15, 54, 0
33, 654120, Note_on_c, 15, 56, 80
33, 654239, Note_on_c, 15, 56, 0
33, 654240, Note_on_c, 15, 54, 80
33, 654359, Note_on_c, 15, 54, 0
33, 654360, Note_on_c, 15, 52, 80
33, 654479, Note_on_c, 15, 52, 0
33, 654480, Note_on_c, 15, 54, 80
33, 654599, Note_on_c, 15, 54, 0
33, 654600, Note_on_c, 15, 52, 80
33, 654699, Note_on_c, 15, 52, 0
33, 654720, Note_on_c, 15, 59, 80
33, 654839, Note_on_c, 15, 59, 0
33, 654840, Note_on_c, 15, 52, 80
33, 654959, Note_on_c, 15, 52, 0
33, 654960, Note_on_c, 15, 56, 80
33, 655079, Note_on_c, 15, 56, 0
33, 655080, Note_on_c, 15, 57, 80
33, 655199, Note_on_c, 15, 57, 0
33, 655200, Note_on_c, 15, 59, 80
33, 655319, Note_on_c, 15, 59, 0
33, 655320, Note_on_c, 15, 52, 80
33, 655419, Note_on_c, 15, 52, 0
33, 655440, Note_on_c, 15, 64, 80
33, 655559, Note_on_c, 15, 64, 0
33, 655560, Note_on_c, 15, 66, 80
33, 655679, Note_on_c, 15, 66, 0
33, 655680, Note_on_c, 15, 64, 80
33, 655799, Note_on_c, 15, 64, 0
33, 655800, Note_on_c, 15, 62, 80
33, 655919, Note_on_c, 15, 62, 0
33, 655920, Note_on_c, 15, 64, 80
33, 656039, Note_on_c, 15, 64, 0
33, 656040, Note_on_c, 15, 62, 80
33, 656139, Note_on_c, 15, 62, 0
33, 656160, Note_on_c, 15, 61, 80
33, 656279, Note_on_c, 15, 61, 0
33, 656280, Note_on_c, 15, 64, 80
33, 656399, Note_on_c, 15, 64, 0
33, 656400, Note_on_c, 15, 62, 80
33, 656519, Note_on_c, 15, 62, 0
33, 656520, Note_on_c, 15, 61, 80
33, 656639, Note_on_c, 15, 61, 0
33, 656640, Note_on_c, 15, 62, 80
33, 656759, Note_on_c, 15, 62, 0
33, 656760, Note_on_c, 15, 61, 80
33, 656859, Note_on_c, 15, 61, 0
33, 656880, Note_on_c, 15, 59, 80
33, 656999, Note_on_c, 15, 59, 0
33, 657000, Note_on_c, 15, 61, 80
33, 657119, Note_on_c, 15, 61, 0
33, 657120, Note_on_c, 15, 59, 80
33, 657239, Note_on_c, 15, 59, 0
33, 657240, Note_on_c, 15, 57, 80
33, 657359, Note_on_c, 15, 57, 0
33, 657360, Note_on_c, 15, 61, 80
33, 657479, Note_on_c, 15, 61, 0
33, 657480, Note_on_c, 15, 59, 80
33, 657579, Note_on_c, 15, 59, 0
33, 657600, Note_on_c, 15, 59, 80
33, 657719, Note_on_c, 15, 59, 0
33, 657720, Note_on_c, 15, 57, 80
33, 657839, Note_on_c, 15, 57, 0
33, 657840, Note_on_c, 15, 59, 80
33, 657959, Note_on_c, 15, 59, 0
33, 657960, Note_on_c, 15, 57, 80
33, 658059, Note_on_c, 15, 57, 0
33, 658080, Note_on_c, 15, 45, 80
33, 658319, Note_on_c, 15, 45, 0
33, 659760, Note_on_c, 15, 57, 80
33, 660459, Note_on_c, 15, 57, 0
33, 660480, Note_on_c, 15, 69, 80
33, 661179, Note_on_c, 15, 69, 0
33, 661200, Note_on_c, 15, 69, 92
33, 662619, Note_on_c, 15, 69, 0
33, 662640, Note_on_c, 15, 62, 80
33, 663339, Note_on_c, 15, 62, 0
33, 663360, Note_on_c, 15, 61, 80
33, 664059, Note_on_c, 15, 61, 0
33, 664080, Note_on_c, 15, 57, 80
33, 664779, Note_on_c, 15, 57, 0
33, 664800, Note_on_c, 15, 59, 80
33, 665499, Note_on_c, 15, 59, 0
33, 665520, Note_on_c, 15, 59, 80
33, 666219, Note_on_c, 15, 59, 0
33, 666240, Note_on_c, 15, 57, 80
33, 666939, Note_on_c, 15, 57, 0
33, 666960, Note_on_c, 15, 54, 80
33, 667659, Note_on_c, 15, 54, 0
33, 667680, Note_on_c, 15, 55, 80
33, 668379, Note_on_c, 15, 55, 0
33, 668400, Note_on_c, 15, 55, 80
33, 669099, Note_on_c, 15, 55, 0
33, 669120, Note_on_c, 15, 54, 80
33, 669819, Note_on_c, 15, 54, 0
33, 669840, Note_on_c, 15, 62, 80
33, 670539, Note_on_c, 15, 62, 0
33, 670560, Note_on_c, 15, 64, 80
33, 671259, Note_on_c, 15, 64, 0
33, 671280, Note_on_c, 15, 64, 80
33, 671979, Note_on_c, 15, 64, 0
33, 672000, Note_on_c, 15, 64, 92
33, 674139, Note_on_c, 15, 64, 0
33, 674160, Note_on_c, 15, 64, 80
33, 674859, Note_on_c, 15, 64, 0
33, 674880, Note_on_c, 15, 62, 80
33, 676299, Note_on_c, 15, 62, 0
33, 676320, Note_on_c, 15, 54, 32
33, 676799, Note_on_c, 15, 54, 0
33, 677520, Note_on_c, 15, 54, 32
33, 677739, Note_on_c, 15, 54, 0
33, 677760, Note_on_c, 15, 48, 32
33, 678239, Note_on_c, 15, 48, 0
33, 678960, Note_on_c, 15, 48, 32
33, 679179, Note_on_c, 15, 48, 0
33, 679200, Note_on_c, 15, 57, 32
33, 679679, Note_on_c, 15, 57, 0
33, 680400, Note_on_c, 15, 57, 32
33, 680619, Note_on_c, 15, 57, 0
33, 680640, Note_on_c, 15, 58, 32
33, 681119, Note_on_c, 15, 58, 0
33, 681840, Note_on_c, 15, 58, 32
33, 682059, Note_on_c, 15, 58, 0
33, 682080, Note_on_c, 15, 52, 32
33, 682559, Note_on_c, 15, 52, 0
33, 683280, Note_on_c, 15, 52, 32
33, 683499, Note_on_c, 15, 52, 0
33, 683520, Note_on_c, 15, 61, 32
33, 683999, Note_on_c, 15, 61, 0
33, 684720, Note_on_c, 15, 61, 32
33, 684939, Note_on_c, 15, 61, 0
33, 684960, Note_on_c, 15, 50, 32
33, 685439, Note_on_c, 15, 50, 0
33, 685680, Control_c, 15, 11, 69
33, 686160, Note_on_c, 15, 50, 80
33, 686379, Note_on_c, 15, 50, 0
33, 686400, Note_on_c, 15, 51, 80
33, 687819, Note_on_c, 15, 51, 0
33, 687840, Control_c, 15, 11, 69
33, 687840, Note_on_c, 15, 43, 80
33, 688014, Control_c, 15, 11, 70
33, 688188, Control_c, 15, 11, 71
33, 688319, Note_on_c, 15, 43, 0
33, 688361, Control_c, 15, 11, 72
33, 688535, Control_c, 15, 11, 73
33, 688709, Control_c, 15, 11, 74
33, 688883, Control_c, 15, 11, 75
33, 689040, Note_on_c, 15, 43, 80
33, 689057, Control_c, 15, 11, 76
33, 689230, Control_c, 15, 11, 77
33, 689259, Note_on_c, 15, 43, 0
33, 689280, Note_on_c, 15, 52, 80
33, 689404, Control_c, 15, 11, 78
33, 689578, Control_c, 15, 11, 79
33, 689752, Control_c, 15, 11, 80
33, 689759, Note_on_c, 15, 52, 0
33, 689926, Control_c, 15, 11, 81
33, 690099, Control_c, 15, 11, 82
33, 690273, Control_c, 15, 11, 83
33, 690447, Control_c, 15, 11, 84
33, 690480, Note_on_c, 15, 52, 80
33, 690621, Control_c, 15, 11, 85
33, 690699, Note_on_c, 15, 52, 0
33, 690720, Note_on_c, 15, 53, 80
33, 690794, Control_c, 15, 11, 86
33, 690968, Control_c, 15, 11, 87
33, 691142, Control_c, 15, 11, 88
33, 691199, Note_on_c, 15, 53, 0
33, 691316, Control_c, 15, 11, 89
33, 691490, Control_c, 15, 11, 90
33, 691663, Control_c, 15, 11, 91
33, 691837, Control_c, 15, 11, 92
33, 691920, Note_on_c, 15, 53, 80
33, 692011, Control_c, 15, 11, 93
33, 692139, Note_on_c, 15, 53, 0
33, 692160, Note_on_c, 15, 54, 80
33, 692185, Control_c, 15, 11, 94
33, 692359, Control_c, 15, 11, 95
33, 692532, Control_c, 15, 11, 96
33, 692706, Control_c, 15, 11, 97
33, 692880, Control_c, 15, 11, 98
33, 693054, Control_c, 15, 11, 99
33, 693228, Control_c, 15, 11, 100
33, 693401, Control_c, 15, 11, 101
33, 693575, Control_c, 15, 11, 102
33, 693579, Note_on_c, 15, 54, 0
33, 693600, Note_on_c, 15, 46, 80
33, 693749, Control_c, 15, 11, 103
33, 693923, Control_c, 15, 11, 104
33, 694079, Note_on_c, 15, 46, 0
33, 694097, Control_c, 15, 11, 105
33, 694270, Control_c, 15, 11, 106
33, 694444, Control_c, 15, 11, 107
33, 694618, Control_c, 15, 11, 108
33, 694792, Control_c, 15, 11, 109
33, 694800, Note_on_c, 15, 46, 80
33, 694966, Control_c, 15, 11, 110
33, 695019, Note_on_c, 15, 46, 0
33, 695040, Note_on_c, 15, 55, 80
33, 695139, Control_c, 15, 11, 111
33, 695313, Control_c, 15, 11, 112
33, 695487, Control_c, 15, 11, 113
33, 695519, Note_on_c, 15, 55, 0
33, 695661, Control_c, 15, 11, 114
33, 695834, Control_c, 15, 11, 115
33, 696008, Control_c, 15, 11, 116
33, 696182, Control_c, 15, 11, 117
33, 696240, Note_on_c, 15, 55, 80
33, 696356, Control_c, 15, 11, 118
33, 696459, Note_on_c, 15, 55, 0
33, 696480, Note_on_c, 15, 56, 80
33, 696530, Control_c, 15, 11, 119
33, 696703, Control_c, 15, 11, 120
33, 696877, Control_c, 15, 11, 121
33, 696959, Note_on_c, 15, 56, 0
33, 697051, Control_c, 15, 11, 122
33, 697225, Control_c, 15, 11, 123
33, 697399, Control_c, 15, 11, 124
33, 697572, Control_c, 15, 11, 125
33, 697680, Note_on_c, 15, 56, 80
33, 697746, Control_c, 15, 11, 127
33, 697899, Note_on_c, 15, 56, 0
33, 697920, Note_on_c, 15, 57, 80
33, 698639, Note_on_c, 15, 57, 0
33, 700800, Note_on_c, 15, 57, 80
33, 701499, Note_on_c, 15, 57, 0
33, 701520, Note_on_c, 15, 57, 80
33, 702239, Note_on_c, 15, 57, 0
33, 702960, Control_c, 15, 11, 69
33, 703680, Note_on_c, 15, 57, 80
33, 704379, Note_on_c, 15, 57, 0
33, 704400, Note_on_c, 15, 57, 80
33, 705099, Note_on_c, 15, 57, 0
33, 705120, Note_on_c, 15, 57, 80
33, 705819, Note_on_c, 15, 57, 0
33, 705840, Note_on_c, 15, 57, 80
33, 706539, Note_on_c, 15, 57, 0
33, 706560, Control_c, 15, 11, 69
33, 706560, Note_on_c, 15, 57, 80
33, 706606, Control_c, 15, 11, 70
33, 706651, Control_c, 15, 11, 71
33, 706697, Control_c, 15, 11, 72
33, 706742, Control_c, 15, 11, 73
33, 706788, Control_c, 15, 11, 74
33, 706833, Control_c, 15, 11, 75
33, 706879, Control_c, 15, 11, 76
33, 706924, Control_c, 15, 11, 77
33, 706970, Control_c, 15, 11, 78
33, 707015, Control_c, 15, 11, 79
33, 707061, Control_c, 15, 11, 80
33, 707106, Control_c, 15, 11, 81
33, 707152, Control_c, 15, 11, 82
33, 707197, Control_c, 15, 11, 83
33, 707243, Control_c, 15, 11, 84
33, 707288, Control_c, 15, 11, 85
33, 707334, Control_c, 15, 11, 86
33, 707379, Control_c, 15, 11, 87
33, 707425, Control_c, 15, 11, 88
33, 707470, Control_c, 15, 11, 89
33, 707516, Control_c, 15, 11, 90
33, 707561, Control_c, 15, 11, 91
33, 707607, Control_c, 15, 11, 92
33, 707652, Control_c, 15, 11, 93
33, 707698, Control_c, 15, 11, 94
33, 707743, Control_c, 15, 11, 95
33, 707789, Control_c, 15, 11, 96
33, 707834, Control_c, 15, 11, 97
33, 707880, Control_c, 15, 11, 98
33, 707926, Control_c, 15, 11, 99
33, 707971, Control_c, 15, 11, 100
33, 708017, Control_c, 15, 11, 101
33, 708062, Control_c, 15, 11, 102
33, 708108, Control_c, 15, 11, 103
33, 708153, Control_c, 15, 11, 104
33, 708199, Control_c, 15, 11, 105
33, 708244, Control_c, 15, 11, 106
33, 708290, Control_c, 15, 11, 107
33, 708335, Control_c, 15, 11, 108
33, 708381, Control_c, 15, 11, 109
33, 708426, Control_c, 15, 11, 110
33, 708472, Control_c, 15, 11, 111
33, 708517, Control_c, 15, 11, 112
33, 708563, Control_c, 15, 11, 113
33, 708608, Control_c, 15, 11, 114
33, 708654, Control_c, 15, 11, 115
33, 708699, Note_on_c, 15, 57, 0
33, 708699, Control_c, 15, 11, 116
33, 708720, Note_on_c, 15, 57, 80
33, 708745, Control_c, 15, 11, 117
33, 708790, Control_c, 15, 11, 118
33, 708836, Control_c, 15, 11, 119
33, 708881, Control_c, 15, 11, 120
33, 708927, Control_c, 15, 11, 121
33, 708972, Control_c, 15, 11, 122
33, 709018, Control_c, 15, 11, 123
33, 709063, Control_c, 15, 11, 124
33, 709109, Control_c, 15, 11, 125
33, 709154, Control_c, 15, 11, 127
33, 709240, Control_c, 15, 11, 122
33, 709280, Control_c, 15, 11, 117
33, 709320, Control_c, 15, 11, 112
33, 709360, Control_c, 15, 11, 107
33, 709400, Control_c, 15, 11, 102
33, 709419, Note_on_c, 15, 57, 0
33, 709440, Control_c, 15, 11, 99
33, 709440, Note_on_c, 15, 57, 80
33, 709480, Control_c, 15, 11, 94
33, 709520, Control_c, 15, 11, 89
33, 709560, Control_c, 15, 11, 84
33, 709600, Control_c, 15, 11, 79
33, 709640, Control_c, 15, 11, 74
33, 709680, Control_c, 15, 11, 69
33, 710139, Note_on_c, 15, 57, 0
33, 710160, Note_on_c, 15, 57, 80
33, 711579, Note_on_c, 15, 57, 0
33, 711600, Note_on_c, 15, 57, 80
33, 712299, Note_on_c, 15, 57, 0
33, 712320, Note_on_c, 15, 57, 80
33, 713019, Note_on_c, 15, 57, 0
33, 713040, Note_on_c, 15, 57, 80
33, 713739, Note_on_c, 15, 57, 0
33, 713760, Note_on_c, 15, 57, 80
33, 714459, Note_on_c, 15, 57, 0
33, 714480, Note_on_c, 15, 57, 80
33, 715179, Note_on_c, 15, 57, 0
33, 715200, Note_on_c, 15, 57, 80
33, 715899, Note_on_c, 15, 57, 0
33, 715920, Note_on_c, 15, 57, 80
33, 716619, Note_on_c, 15, 57, 0
33, 716640, Control_c, 15, 11, 69
33, 716640, Note_on_c, 15, 57, 80
33, 716700, Control_c, 15, 11, 72
33, 716760, Control_c, 15, 11, 75
33, 716820, Control_c, 15, 11, 79
33, 716880, Control_c, 15, 11, 82
33, 716940, Control_c, 15, 11, 85
33, 717000, Control_c, 15, 11, 89
33, 717060, Control_c, 15, 11, 92
33, 717120, Control_c, 15, 11, 95
33, 717180, Control_c, 15, 11, 99
33, 717240, Control_c, 15, 11, 102
33, 717300, Control_c, 15, 11, 105
33, 717359, Note_on_c, 15, 57, 0
33, 717360, Note_on_c, 15, 50, 80
33, 717360, Control_c, 15, 11, 109
33, 717420, Control_c, 15, 11, 105
33, 717480, Control_c, 15, 11, 102
33, 717540, Control_c, 15, 11, 99
33, 717600, Control_c, 15, 11, 95
33, 717660, Control_c, 15, 11, 92
33, 717720, Control_c, 15, 11, 89
33, 717780, Control_c, 15, 11, 85
33, 717840, Control_c, 15, 11, 82
33, 717900, Control_c, 15, 11, 79
33, 717960, Control_c, 15, 11, 75
33, 718020, Control_c, 15, 11, 72
33, 718059, Note_on_c, 15, 50, 0
33, 718080, Note_on_c, 15, 55, 80
33, 718080, Control_c, 15, 11, 69
33, 718779, Note_on_c, 15, 55, 0
33, 718800, Note_on_c, 15, 55, 80
33, 719499, Note_on_c, 15, 55, 0
33, 719520, Note_on_c, 15, 55, 74
33, 720219, Note_on_c, 15, 55, 0
33, 720240, Note_on_c, 15, 55, 74
33, 720939, Note_on_c, 15, 55, 0
33, 720960, Note_on_c, 15, 55, 74
33, 723099, Note_on_c, 15, 55, 0
33, 723120, Note_on_c, 15, 55, 68
33, 723839, Note_on_c, 15, 55, 0
33, 724800, Control_c, 15, 11, 127
33, 726240, Note_on_c, 15, 57, 32
33, 726339, Note_on_c, 15, 57, 0
33, 726360, Note_on_c, 15, 57, 32
33, 726459, Note_on_c, 15, 57, 0
33, 726480, Note_on_c, 15, 57, 32
33, 726579, Note_on_c, 15, 57, 0
33, 726600, Note_on_c, 15, 57, 32
33, 726699, Note_on_c, 15, 57, 0
33, 726720, Note_on_c, 15, 57, 32
33, 726819, Note_on_c, 15, 57, 0
33, 726840, Note_on_c, 15, 55, 32
33, 726939, Note_on_c, 15, 55, 0
33, 726960, Note_on_c, 15, 54, 32
33, 727059, Note_on_c, 15, 54, 0
33, 727080, Note_on_c, 15, 52, 32
33, 727179, Note_on_c, 15, 52, 0
33, 727200, Note_on_c, 15, 50, 32
33, 727299, Note_on_c, 15, 50, 0
33, 727320, Note_on_c, 15, 49, 32
33, 727419, Note_on_c, 15, 49, 0
33, 727440, Note_on_c, 15, 47, 32
33, 727539, Note_on_c, 15, 47, 0
33, 727560, Note_on_c, 15, 45, 32
33, 727659, Note_on_c, 15, 45, 0
33, 727680, Note_on_c, 15, 50, 32
33, 727919, Note_on_c, 15, 50, 0
33, 732480, Note_on_c, 15, 50, 32
33, 732579, Note_on_c, 15, 50, 0
33, 732600, Note_on_c, 15, 50, 32
33, 732699, Note_on_c, 15, 50, 0
33, 732720, Note_on_c, 15, 50, 32
33, 732819, Note_on_c, 15, 50, 0
33, 732840, Note_on_c, 15, 50, 32
33, 732939, Note_on_c, 15, 50, 0
33, 732960, Note_on_c, 15, 50, 32
33, 733059, Note_on_c, 15, 50, 0
33, 733080, Note_on_c, 15, 50, 32
33, 733179, Note_on_c, 15, 50, 0
33, 733200, Note_on_c, 15, 50, 32
33, 733299, Note_on_c, 15, 50, 0
33, 733320, Note_on_c, 15, 50, 32
33, 733419, Note_on_c, 15, 50, 0
33, 733440, Note_on_c, 15, 50, 32
33, 733679, Note_on_c, 15, 50, 0
33, 733920, Note_on_c, 15, 62, 32
33, 734019, Note_on_c, 15, 62, 0
33, 734040, Note_on_c, 15, 64, 32
33, 734139, Note_on_c, 15, 64, 0
33, 734160, Note_on_c, 15, 66, 32
33, 734259, Note_on_c, 15, 66, 0
33, 734280, Note_on_c, 15, 66, 32
33, 734379, Note_on_c, 15, 66, 0
33, 734400, Note_on_c, 15, 66, 32
33, 734499, Note_on_c, 15, 66, 0
33, 734520, Note_on_c, 15, 64, 32
33, 734619, Note_on_c, 15, 64, 0
33, 734640, Note_on_c, 15, 62, 32
33, 734739, Note_on_c, 15, 62, 0
33, 734760, Note_on_c, 15, 61, 32
33, 734859, Note_on_c, 15, 61, 0
33, 734880, Note_on_c, 15, 59, 32
33, 734979, Note_on_c, 15, 59, 0
33, 735000, Note_on_c, 15, 61, 32
33, 735099, Note_on_c, 15, 61, 0
33, 735120, Note_on_c, 15, 62, 32
33, 735219, Note_on_c, 15, 62, 0
33, 735240, Note_on_c, 15, 62, 32
33, 735339, Note_on_c, 15, 62, 0
33, 735360, Note_on_c, 15, 62, 32
33, 735459, Note_on_c, 15, 62, 0
33, 735480, Note_on_c, 15, 61, 32
33, 735579, Note_on_c, 15, 61, 0
33, 735600, Note_on_c, 15, 59, 32
33, 735699, Note_on_c, 15, 59, 0
33, 735720, Note_on_c, 15, 57, 32
33, 735819, Note_on_c, 15, 57, 0
33, 735840, Note_on_c, 15, 56, 32
33, 735939, Note_on_c, 15, 56, 0
33, 735960, Note_on_c, 15, 57, 32
33, 736059, Note_on_c, 15, 57, 0
33, 736080, Note_on_c, 15, 59, 32
33, 736179, Note_on_c, 15, 59, 0
33, 736200, Note_on_c, 15, 59, 32
33, 736299, Note_on_c, 15, 59, 0
33, 736320, Note_on_c, 15, 59, 32
33, 736419, Note_on_c, 15, 59, 0
33, 736440, Note_on_c, 15, 57, 32
33, 736539, Note_on_c, 15, 57, 0
33, 736560, Note_on_c, 15, 56, 32
33, 736659, Note_on_c, 15, 56, 0
33, 736680, Note_on_c, 15, 54, 32
33, 736779, Note_on_c, 15, 54, 0
33, 736800, Note_on_c, 15, 52, 32
33, 736899, Note_on_c, 15, 52, 0
33, 736920, Note_on_c, 15, 50, 32
33, 737019, Note_on_c, 15, 50, 0
33, 737040, Note_on_c, 15, 49, 32
33, 737139, Note_on_c, 15, 49, 0
33, 737160, Note_on_c, 15, 47, 32
33, 737259, Note_on_c, 15, 47, 0
33, 737280, Note_on_c, 15, 45, 32
33, 737519, Note_on_c, 15, 45, 0
33, 742080, Note_on_c, 15, 57, 32
33, 742179, Note_on_c, 15, 57, 0
33, 742200, Note_on_c, 15, 57, 32
33, 742299, Note_on_c, 15, 57, 0
33, 742320, Note_on_c, 15, 57, 32
33, 742419, Note_on_c, 15, 57, 0
33, 742440, Note_on_c, 15, 57, 32
33, 742539, Note_on_c, 15, 57, 0
33, 742560, Note_on_c, 15, 57, 32
33, 742659, Note_on_c, 15, 57, 0
33, 742680, Note_on_c, 15, 57, 32
33, 742779, Note_on_c, 15, 57, 0
33, 742800, Note_on_c, 15, 57, 32
33, 742899, Note_on_c, 15, 57, 0
33, 742920, Note_on_c, 15, 57, 32
33, 743019, Note_on_c, 15, 57, 0
33, 743040, Note_on_c, 15, 57, 32
33, 743279, Note_on_c, 15, 57, 0
33, 743518, Program_c, 15, 45
33, 743520, Note_on_c, 15, 57, 28
33, 743759, Note_on_c, 15, 57, 0
33, 744000, Note_on_c, 15, 64, 28
33, 744239, Note_on_c, 15, 64, 0
33, 744480, Note_on_c, 15, 62, 28
33, 744719, Note_on_c, 15, 62, 0
33, 744720, Note_on_c, 15, 62, 28
33, 744959, Note_on_c, 15, 62, 0
33, 744960, Note_on_c, 15, 67, 28
33, 745199, Note_on_c, 15, 67, 0
33, 745440, Note_on_c, 15, 66, 28
33, 745679, Note_on_c, 15, 66, 0
33, 745680, Note_on_c, 15, 66, 28
33, 745919, Note_on_c, 15, 66, 0
33, 745920, Note_on_c, 15, 57, 28
33, 746159, Note_on_c, 15, 57, 0
33, 746400, Note_on_c, 15, 57, 28
33, 746639, Note_on_c, 15, 57, 0
33, 746880, Note_on_c, 15, 52, 28
33, 747119, Note_on_c, 15, 52, 0
33, 747360, Note_on_c, 15, 50, 28
33, 747599, Note_on_c, 15, 50, 0
33, 747600, Note_on_c, 15, 50, 29
33, 747839, Note_on_c, 15, 50, 0
33, 747840, Note_on_c, 15, 55, 29
33, 748079, Note_on_c, 15, 55, 0
33, 748320, Note_on_c, 15, 54, 30
33, 748559, Note_on_c, 15, 54, 0
33, 748560, Note_on_c, 15, 54, 30
33, 748799, Note_on_c, 15, 54, 0
33, 748800, Note_on_c, 15, 52, 31
33, 749039, Note_on_c, 15, 52, 0
33, 749280, Note_on_c, 15, 50, 31
33, 749519, Note_on_c, 15, 50, 0
33, 749760, Note_on_c, 15, 55, 32
33, 749999, Note_on_c, 15, 55, 0
33, 750240, Note_on_c, 15, 54, 33
33, 750479, Note_on_c, 15, 54, 0
33, 750720, Note_on_c, 15, 45, 34
33, 750959, Note_on_c, 15, 45, 0
33, 751200, Note_on_c, 15, 50, 34
33, 751439, Note_on_c, 15, 50, 0
33, 751680, Note_on_c, 15, 57, 35
33, 751919, Note_on_c, 15, 57, 0
33, 752160, Note_on_c, 15, 50, 36
33, 752399, Note_on_c, 15, 50, 0
33, 752640, Note_on_c, 15, 45, 37
33, 752879, Note_on_c, 15, 45, 0
33, 753120, Note_on_c, 15, 50, 37
33, 753359, Note_on_c, 15, 50, 0
33, 753600, Note_on_c, 15, 57, 38
33, 753839, Note_on_c, 15, 57, 0
33, 754080, Note_on_c, 15, 50, 39
33, 754299, Note_on_c, 15, 50, 0
33, 754558, Program_c, 15, 48
33, 754560, Note_on_c, 15, 52, 44
33, 754779, Note_on_c, 15, 52, 0
33, 754800, Note_on_c, 15, 52, 45
33, 755019, Note_on_c, 15, 52, 0
33, 755040, Note_on_c, 15, 50, 47
33, 755259, Note_on_c, 15, 50, 0
33, 755280, Note_on_c, 15, 50, 48
33, 755499, Note_on_c, 15, 50, 0
33, 755520, Note_on_c, 15, 55, 50
33, 755739, Note_on_c, 15, 55, 0
33, 755760, Note_on_c, 15, 55, 51
33, 755979, Note_on_c, 15, 55, 0
33, 756000, Note_on_c, 15, 54, 53
33, 756219, Note_on_c, 15, 54, 0
33, 756240, Note_on_c, 15, 54, 54
33, 756459, Note_on_c, 15, 54, 0
33, 756480, Note_on_c, 15, 54, 56
33, 756719, Note_on_c, 15, 54, 0
33, 756720, Note_on_c, 15, 52, 57
33, 756939, Note_on_c, 15, 52, 0
33, 756960, Note_on_c, 15, 50, 59
33, 757199, Note_on_c, 15, 50, 0
33, 757200, Note_on_c, 15, 57, 60
33, 757419, Note_on_c, 15, 57, 0
33, 757440, Note_on_c, 15, 57, 62
33, 757679, Note_on_c, 15, 57, 0
33, 757680, Note_on_c, 15, 55, 63
33, 757899, Note_on_c, 15, 55, 0
33, 757920, Note_on_c, 15, 55, 65
33, 758159, Note_on_c, 15, 55, 0
33, 758160, Note_on_c, 15, 54, 66
33, 758379, Note_on_c, 15, 54, 0
33, 758400, Note_on_c, 15, 54, 68
33, 758639, Note_on_c, 15, 54, 0
33, 758640, Note_on_c, 15, 52, 69
33, 758859, Note_on_c, 15, 52, 0
33, 758880, Note_on_c, 15, 50, 71
33, 759119, Note_on_c, 15, 50, 0
33, 759120, Note_on_c, 15, 57, 72
33, 759339, Note_on_c, 15, 57, 0
33, 759360, Note_on_c, 15, 57, 74
33, 759599, Note_on_c, 15, 57, 0
33, 759600, Note_on_c, 15, 55, 75
33, 759819, Note_on_c, 15, 55, 0
33, 759840, Note_on_c, 15, 55, 77
33, 760079, Note_on_c, 15, 55, 0
33, 760080, Note_on_c, 15, 54, 78
33, 760299, Note_on_c, 15, 54, 0
33, 760320, Note_on_c, 15, 57, 80
33, 760539, Note_on_c, 15, 57, 0
33, 760560, Note_on_c, 15, 45, 80
33, 760659, Note_on_c, 15, 45, 0
33, 760680, Note_on_c, 15, 45, 80
33, 760779, Note_on_c, 15, 45, 0
33, 760800, Note_on_c, 15, 47, 92
33, 760899, Note_on_c, 15, 47, 0
33, 760920, Note_on_c, 15, 47, 80
33, 761019, Note_on_c, 15, 47, 0
33, 761040, Note_on_c, 15, 45, 80
33, 761139, Note_on_c, 15, 45, 0
33, 761160, Note_on_c, 15, 45, 80
33, 761259, Note_on_c, 15, 45, 0
33, 761280, Note_on_c, 15, 50, 80
33, 761379, Note_on_c, 15, 50, 0
33, 761400, Note_on_c, 15, 50, 80
33, 761499, Note_on_c, 15, 50, 0
33, 761520, Note_on_c, 15, 49, 80
33, 761619, Note_on_c, 15, 49, 0
33, 761640, Note_on_c, 15, 49, 80
33, 761739, Note_on_c, 15, 49, 0
33, 761760, Note_on_c, 15, 54, 80
33, 761859, Note_on_c, 15, 54, 0
33, 761880, Note_on_c, 15, 54, 80
33, 761979, Note_on_c, 15, 54, 0
33, 762000, Note_on_c, 15, 52, 80
33, 762099, Note_on_c, 15, 52, 0
33, 762120, Note_on_c, 15, 52, 80
33, 762219, Note_on_c, 15, 52, 0
33, 762240, Note_on_c, 15, 57, 80
33, 762339, Note_on_c, 15, 57, 0
33, 762360, Note_on_c, 15, 57, 80
33, 762459, Note_on_c, 15, 57, 0
33, 762480, Note_on_c, 15, 55, 80
33, 762579, Note_on_c, 15, 55, 0
33, 762600, Note_on_c, 15, 55, 80
33, 762699, Note_on_c, 15, 55, 0
33, 762720, Note_on_c, 15, 55, 80
33, 762819, Note_on_c, 15, 55, 0
33, 762840, Note_on_c, 15, 55, 80
33, 762939, Note_on_c, 15, 55, 0
33, 762960, Note_on_c, 15, 55, 92
33, 763059, Note_on_c, 15, 55, 0
33, 763080, Note_on_c, 15, 55, 92
33, 763179, Note_on_c, 15, 55, 0
33, 763200, Note_on_c, 15, 62, 80
33, 763299, Note_on_c, 15, 62, 0
33, 763320, Note_on_c, 15, 62, 80
33, 763419, Note_on_c, 15, 62, 0
33, 763440, Note_on_c, 15, 61, 80
33, 763539, Note_on_c, 15, 61, 0
33, 763560, Note_on_c, 15, 61, 80
33, 763659, Note_on_c, 15, 61, 0
33, 763680, Note_on_c, 15, 66, 80
33, 763779, Note_on_c, 15, 66, 0
33, 763800, Note_on_c, 15, 66, 80
33, 763899, Note_on_c, 15, 66, 0
33, 763920, Note_on_c, 15, 64, 80
33, 764019, Note_on_c, 15, 64, 0
33, 764040, Note_on_c, 15, 64, 80
33, 764139, Note_on_c, 15, 64, 0
33, 764160, Note_on_c, 15, 69, 80
33, 764259, Note_on_c, 15, 69, 0
33, 764280, Note_on_c, 15, 69, 80
33, 764379, Note_on_c, 15, 69, 0
33, 764400, Note_on_c, 15, 67, 80
33, 764499, Note_on_c, 15, 67, 0
33, 764520, Note_on_c, 15, 67, 80
33, 764619, Note_on_c, 15, 67, 0
33, 764640, Note_on_c, 15, 67, 44
33, 764739, Note_on_c, 15, 67, 0
33, 764760, Note_on_c, 15, 57, 52
33, 764859, Note_on_c, 15, 57, 0
33, 764880, Note_on_c, 15, 57, 60
33, 764979, Note_on_c, 15, 57, 0
33, 765000, Note_on_c, 15, 57, 68
33, 765099, Note_on_c, 15, 57, 0
33, 765120, Note_on_c, 15, 57, 76
33, 765219, Note_on_c, 15, 57, 0
33, 765240, Note_on_c, 15, 57, 84
33, 765339, Note_on_c, 15, 57, 0
33, 765360, Note_on_c, 15, 62, 92
33, 765459, Note_on_c, 15, 62, 0
33, 765480, Note_on_c, 15, 50, 92
33, 765579, Note_on_c, 15, 50, 0
33, 765600, Note_on_c, 15, 62, 92
33, 765699, Note_on_c, 15, 62, 0
33, 765720, Note_on_c, 15, 50, 92
33, 765819, Note_on_c, 15, 50, 0
33, 765840, Note_on_c, 15, 54, 92
33, 765939, Note_on_c, 15, 54, 0
33, 765960, Note_on_c, 15, 57, 92
33, 766059, Note_on_c, 15, 57, 0
33, 766080, Note_on_c, 15, 62, 80
33, 766179, Note_on_c, 15, 62, 0
33, 766200, Note_on_c, 15, 61, 80
33, 766299, Note_on_c, 15, 61, 0
33, 766320, Note_on_c, 15, 59, 80
33, 766419, Note_on_c, 15, 59, 0
33, 766440, Note_on_c, 15, 47, 80
33, 766539, Note_on_c, 15, 47, 0
33, 766560, Note_on_c, 15, 59, 80
33, 766659, Note_on_c, 15, 59, 0
33, 766680, Note_on_c, 15, 47, 80
33, 766779, Note_on_c, 15, 47, 0
33, 766800, Note_on_c, 15, 50, 80
33, 766899, Note_on_c, 15, 50, 0
33, 766920, Note_on_c, 15, 54, 80
33, 767019, Note_on_c, 15, 54, 0
33, 767040, Note_on_c, 15, 59, 80
33, 767139, Note_on_c, 15, 59, 0
33, 767160, Note_on_c, 15, 57, 80
33, 767259, Note_on_c, 15, 57, 0
33, 767280, Note_on_c, 15, 55, 80
33, 767379, Note_on_c, 15, 55, 0
33, 767400, Note_on_c, 15, 43, 80
33, 767499, Note_on_c, 15, 43, 0
33, 767520, Note_on_c, 15, 67, 80
33, 767619, Note_on_c, 15, 67, 0
33, 767640, Note_on_c, 15, 55, 80
33, 767739, Note_on_c, 15, 55, 0
33, 767760, Note_on_c, 15, 59, 80
33, 767859, Note_on_c, 15, 59, 0
33, 767880, Note_on_c, 15, 62, 80
33, 767979, Note_on_c, 15, 62, 0
33, 768000, Note_on_c, 15, 67, 80
33, 768099, Note_on_c, 15, 67, 0
33, 768120, Note_on_c, 15, 66, 80
33, 768219, Note_on_c, 15, 66, 0
33, 768240, Note_on_c, 15, 64, 80
33, 768339, Note_on_c, 15, 64, 0
33, 768360, Note_on_c, 15, 52, 80
33, 768459, Note_on_c, 15, 52, 0
33, 768480, Note_on_c, 15, 64, 80
33, 768579, Note_on_c, 15, 64, 0
33, 768600, Note_on_c, 15, 52, 80
33, 768699, Note_on_c, 15, 52, 0
33, 768720, Note_on_c, 15, 55, 80
33, 768819, Note_on_c, 15, 55, 0
33, 768840, Note_on_c, 15, 59, 80
33, 768939, Note_on_c, 15, 59, 0
33, 768960, Note_on_c, 15, 57, 80
33, 768960, Control_c, 15, 11, 127
33, 768976, Control_c, 15, 11, 123
33, 768992, Control_c, 15, 11, 119
33, 769008, Control_c, 15, 11, 115
33, 769024, Control_c, 15, 11, 112
33, 769040, Control_c, 15, 11, 108
33, 769056, Control_c, 15, 11, 104
33, 769072, Control_c, 15, 11, 100
33, 769088, Control_c, 15, 11, 96
33, 769104, Control_c, 15, 11, 92
33, 769120, Control_c, 15, 11, 88
33, 769136, Control_c, 15, 11, 84
33, 769152, Control_c, 15, 11, 81
33, 769168, Control_c, 15, 11, 77
33, 769184, Control_c, 15, 11, 73
33, 769199, Note_on_c, 15, 57, 0
33, 769200, Control_c, 15, 11, 69
33, 769680, Control_c, 15, 11, 127
33, 769920, Control_c, 15, 11, 127
33, 769920, Note_on_c, 15, 59, 68
33, 769936, Control_c, 15, 11, 124
33, 769952, Control_c, 15, 11, 122
33, 769968, Control_c, 15, 11, 119
33, 769984, Control_c, 15, 11, 116
33, 770000, Control_c, 15, 11, 114
33, 770016, Control_c, 15, 11, 111
33, 770032, Control_c, 15, 11, 108
33, 770048, Control_c, 15, 11, 106
33, 770064, Control_c, 15, 11, 103
33, 770080, Control_c, 15, 11, 100
33, 770096, Control_c, 15, 11, 98
33, 770112, Control_c, 15, 11, 95
33, 770128, Control_c, 15, 11, 92
33, 770144, Control_c, 15, 11, 90
33, 770159, Note_on_c, 15, 59, 0
33, 770160, Control_c, 15, 11, 87
33, 770878, Control_c, 15, 11, 127
33, 770880, Note_on_c, 15, 55, 44
33, 771119, Note_on_c, 15, 55, 0
33, 771840, Note_on_c, 15, 57, 44
33, 772079, Note_on_c, 15, 57, 0
33, 772800, Note_on_c, 15, 57, 44
33, 773279, Note_on_c, 15, 57, 0
33, 776640, Note_on_c, 15, 57, 44
33, 776879, Note_on_c, 15, 57, 0
33, 777120, Note_on_c, 15, 57, 48
33, 777359, Note_on_c, 15, 57, 0
33, 777600, Note_on_c, 15, 57, 53
33, 777839, Note_on_c, 15, 57, 0
33, 778080, Note_on_c, 15, 57, 57
33, 778319, Note_on_c, 15, 57, 0
33, 778560, Note_on_c, 15, 45, 62
33, 778799, Note_on_c, 15, 45, 0
33, 778800, Note_on_c, 15, 49, 64
33, 779019, Note_on_c, 15, 49, 0
33, 779040, Note_on_c, 15, 50, 66
33, 779279, Note_on_c, 15, 50, 0
33, 779280, Note_on_c, 15, 54, 68
33, 779499, Note_on_c, 15, 54, 0
33, 779520, Note_on_c, 15, 57, 71
33, 779759, Note_on_c, 15, 57, 0
33, 779760, Note_on_c, 15, 49, 73
33, 779979, Note_on_c, 15, 49, 0
33, 780000, Note_on_c, 15, 50, 75
33, 780239, Note_on_c, 15, 50, 0
33, 780240, Note_on_c, 15, 54, 77
33, 780459, Note_on_c, 15, 54, 0
33, 780480, Note_on_c, 15, 57, 80
33, 780579, Note_on_c, 15, 57, 0
33, 780600, Note_on_c, 15, 57, 80
33, 780699, Note_on_c, 15, 57, 0
33, 780720, Note_on_c, 15, 45, 80
33, 780819, Note_on_c, 15, 45, 0
33, 780840, Note_on_c, 15, 45, 80
33, 780939, Note_on_c, 15, 45, 0
33, 780960, Note_on_c, 15, 47, 80
33, 781059, Note_on_c, 15, 47, 0
33, 781080, Note_on_c, 15, 47, 80
33, 781179, Note_on_c, 15, 47, 0
33, 781200, Note_on_c, 15, 45, 80
33, 781299, Note_on_c, 15, 45, 0
33, 781320, Note_on_c, 15, 45, 80
33, 781419, Note_on_c, 15, 45, 0
33, 781440, Note_on_c, 15, 50, 80
33, 781539, Note_on_c, 15, 50, 0
33, 781560, Note_on_c, 15, 50, 80
33, 781659, Note_on_c, 15, 50, 0
33, 781680, Note_on_c, 15, 49, 80
33, 781779, Note_on_c, 15, 49, 0
33, 781800, Note_on_c, 15, 49, 80
33, 781899, Note_on_c, 15, 49, 0
33, 781920, Note_on_c, 15, 54, 80
33, 782019, Note_on_c, 15, 54, 0
33, 782040, Note_on_c, 15, 54, 80
33, 782139, Note_on_c, 15, 54, 0
33, 782160, Note_on_c, 15, 52, 80
33, 782259, Note_on_c, 15, 52, 0
33, 782280, Note_on_c, 15, 52, 80
33, 782379, Note_on_c, 15, 52, 0
33, 782400, Note_on_c, 15, 57, 80
33, 782499, Note_on_c, 15, 57, 0
33, 782520, Note_on_c, 15, 57, 80
33, 782619, Note_on_c, 15, 57, 0
33, 782640, Note_on_c, 15, 55, 80
33, 782739, Note_on_c, 15, 55, 0
33, 782760, Note_on_c, 15, 55, 80
33, 782859, Note_on_c, 15, 55, 0
33, 782880, Note_on_c, 15, 55, 80
33, 782979, Note_on_c, 15, 55, 0
33, 783000, Note_on_c, 15, 55, 80
33, 783099, Note_on_c, 15, 55, 0
33, 783120, Note_on_c, 15, 55, 92
33, 783219, Note_on_c, 15, 55, 0
33, 783240, Note_on_c, 15, 55, 92
33, 783339, Note_on_c, 15, 55, 0
33, 783360, Note_on_c, 15, 62, 80
33, 783459, Note_on_c, 15, 62, 0
33, 783480, Note_on_c, 15, 62, 80
33, 783579, Note_on_c, 15, 62, 0
33, 783600, Note_on_c, 15, 61, 80
33, 783699, Note_on_c, 15, 61, 0
33, 783720, Note_on_c, 15, 61, 80
33, 783819, Note_on_c, 15, 61, 0
33, 783840, Note_on_c, 15, 66, 80
33, 783939, Note_on_c, 15, 66, 0
33, 783960, Note_on_c, 15, 66, 80
33, 784059, Note_on_c, 15, 66, 0
33, 784080, Note_on_c, 15, 64, 80
33, 784179, Note_on_c, 15, 64, 0
33, 784200, Note_on_c, 15, 64, 80
33, 784299, Note_on_c, 15, 64, 0
33, 784320, Note_on_c, 15, 69, 80
33, 784419, Note_on_c, 15, 69, 0
33, 784440, Note_on_c, 15, 69, 80
33, 784539, Note_on_c, 15, 69, 0
33, 784560, Note_on_c, 15, 67, 80
33, 784659, Note_on_c, 15, 67, 0
33, 784680, Note_on_c, 15, 67, 80
33, 784779, Note_on_c, 15, 67, 0
33, 784800, Note_on_c, 15, 67, 44
33, 784899, Note_on_c, 15, 67, 0
33, 784920, Note_on_c, 15, 57, 52
33, 785019, Note_on_c, 15, 57, 0
33, 785040, Note_on_c, 15, 57, 60
33, 785139, Note_on_c, 15, 57, 0
33, 785160, Note_on_c, 15, 57, 68
33, 785259, Note_on_c, 15, 57, 0
33, 785280, Note_on_c, 15, 57, 76
33, 785379, Note_on_c, 15, 57, 0
33, 785400, Note_on_c, 15, 57, 84
33, 785499, Note_on_c, 15, 57, 0
33, 785520, Note_on_c, 15, 62, 92
33, 785619, Note_on_c, 15, 62, 0
33, 785640, Note_on_c, 15, 50, 92
33, 785739, Note_on_c, 15, 50, 0
33, 785760, Note_on_c, 15, 62, 92
33, 785859, Note_on_c, 15, 62, 0
33, 785880, Note_on_c, 15, 50, 92
33, 785979, Note_on_c, 15, 50, 0
33, 786000, Note_on_c, 15, 54, 92
33, 786099, Note_on_c, 15, 54, 0
33, 786120, Note_on_c, 15, 57, 92
33, 786219, Note_on_c, 15, 57, 0
33, 786240, Note_on_c, 15, 62, 80
33, 786339, Note_on_c, 15, 62, 0
33, 786360, Note_on_c, 15, 61, 80
33, 786459, Note_on_c, 15, 61, 0
33, 786480, Note_on_c, 15, 59, 80
33, 786579, Note_on_c, 15, 59, 0
33, 786600, Note_on_c, 15, 47, 80
33, 786699, Note_on_c, 15, 47, 0
33, 786720, Note_on_c, 15, 59, 80
33, 786819, Note_on_c, 15, 59, 0
33, 786840, Note_on_c, 15, 47, 80
33, 786939, Note_on_c, 15, 47, 0
33, 786960, Note_on_c, 15, 50, 80
33, 787059, Note_on_c, 15, 50, 0
33, 787080, Note_on_c, 15, 54, 80
33, 787179, Note_on_c, 15, 54, 0
33, 787200, Note_on_c, 15, 59, 80
33, 787299, Note_on_c, 15, 59, 0
33, 787320, Note_on_c, 15, 57, 80
33, 787419, Note_on_c, 15, 57, 0
33, 787440, Note_on_c, 15, 55, 80
33, 787539, Note_on_c, 15, 55, 0
33, 787560, Note_on_c, 15, 43, 80
33, 787659, Note_on_c, 15, 43, 0
33, 787680, Note_on_c, 15, 67, 80
33, 787779, Note_on_c, 15, 67, 0
33, 787800, Note_on_c, 15, 55, 80
33, 787899, Note_on_c, 15, 55, 0
33, 787920, Note_on_c, 15, 59, 80
33, 788019, Note_on_c, 15, 59, 0
33, 788040, Note_on_c, 15, 62, 80
33, 788139, Note_on_c, 15, 62, 0
33, 788160, Note_on_c, 15, 67, 80
33, 788259, Note_on_c, 15, 67, 0
33, 788280, Note_on_c, 15, 66, 80
33, 788379, Note_on_c, 15, 66, 0
33, 788400, Note_on_c, 15, 64, 80
33, 788499, Note_on_c, 15, 64, 0
33, 788520, Note_on_c, 15, 52, 80
33, 788619, Note_on_c, 15, 52, 0
33, 788640, Note_on_c, 15, 64, 80
33, 788739, Note_on_c, 15, 64, 0
33, 788760, Note_on_c, 15, 52, 80
33, 788859, Note_on_c, 15, 52, 0
33, 788880, Note_on_c, 15, 55, 80
33, 788979, Note_on_c, 15, 55, 0
33, 789000, Note_on_c, 15, 59, 80
33, 789099, Note_on_c, 15, 59, 0
33, 789120, Note_on_c, 15, 64, 80
33, 789219, Note_on_c, 15, 64, 0
33, 789240, Note_on_c, 15, 52, 80
33, 789339, Note_on_c, 15, 52, 0
33, 789360, Note_on_c, 15, 55, 80
33, 789459, Note_on_c, 15, 55, 0
33, 789480, Note_on_c, 15, 59, 80
33, 789579, Note_on_c, 15, 59, 0
33, 789600, Note_on_c, 15, 64, 80
33, 789699, Note_on_c, 15, 64, 0
33, 789720, Note_on_c, 15, 52, 80
33, 789819, Note_on_c, 15, 52, 0
33, 789840, Note_on_c, 15, 56, 80
33, 789939, Note_on_c, 15, 56, 0
33, 789960, Note_on_c, 15, 59, 80
33, 790059, Note_on_c, 15, 59, 0
33, 790080, Note_on_c, 15, 64, 80
33, 790319, Note_on_c, 15, 64, 0
33, 791520, Note_on_c, 15, 56, 44
33, 791759, Note_on_c, 15, 56, 0
33, 792240, Note_on_c, 15, 54, 44
33, 792479, Note_on_c, 15, 54, 0
33, 793320, Note_on_c, 15, 52, 44
33, 793679, Note_on_c, 15, 52, 0
33, 794280, Note_on_c, 15, 54, 44
33, 794639, Note_on_c, 15, 54, 0
33, 795240, Note_on_c, 15, 54, 44
33, 795599, Note_on_c, 15, 54, 0
33, 796200, Note_on_c, 15, 54, 44
33, 796559, Note_on_c, 15, 54, 0
33, 797160, Note_on_c, 15, 54, 44
33, 797519, Note_on_c, 15, 54, 0
33, 798120, Note_on_c, 15, 54, 44
33, 798479, Note_on_c, 15, 54, 0
33, 799080, Note_on_c, 15, 47, 44
33, 799439, Note_on_c, 15, 47, 0
33, 800040, Note_on_c, 15, 45, 44
33, 800399, Note_on_c, 15, 45, 0
33, 801360, Note_on_c, 15, 59, 28
33, 801579, Note_on_c, 15, 59, 0
33, 801600, Note_on_c, 15, 57, 28
33, 801839, Note_on_c, 15, 57, 0
33, 802320, Note_on_c, 15, 59, 28
33, 802539, Note_on_c, 15, 59, 0
33, 802560, Note_on_c, 15, 57, 28
33, 802799, Note_on_c, 15, 57, 0
33, 803280, Note_on_c, 15, 59, 28
33, 803499, Note_on_c, 15, 59, 0
33, 803520, Note_on_c, 15, 57, 28
33, 803759, Note_on_c, 15, 57, 0
33, 804240, Note_on_c, 15, 59, 28
33, 804459, Note_on_c, 15, 59, 0
33, 804480, Note_on_c, 15, 57, 28
33, 804699, Note_on_c, 15, 57, 0
33, 804720, Note_on_c, 15, 59, 35
33, 804939, Note_on_c, 15, 59, 0
33, 804960, Note_on_c, 15, 57, 39
33, 805179, Note_on_c, 15, 57, 0
33, 805200, Note_on_c, 15, 59, 43
33, 805419, Note_on_c, 15, 59, 0
33, 805440, Note_on_c, 15, 57, 47
33, 805659, Note_on_c, 15, 57, 0
33, 805680, Note_on_c, 15, 59, 50
33, 805899, Note_on_c, 15, 59, 0
33, 805920, Note_on_c, 15, 57, 54
33, 806139, Note_on_c, 15, 57, 0
33, 806160, Note_on_c, 15, 59, 58
33, 806379, Note_on_c, 15, 59, 0
33, 806400, Note_on_c, 15, 57, 62
33, 806619, Note_on_c, 15, 57, 0
33, 806640, Note_on_c, 15, 59, 65
33, 806859, Note_on_c, 15, 59, 0
33, 806880, Note_on_c, 15, 57, 69
33, 807099, Note_on_c, 15, 57, 0
33, 807120, Note_on_c, 15, 59, 73
33, 807339, Note_on_c, 15, 59, 0
33, 807360, Note_on_c, 15, 57, 77
33, 807579, Note_on_c, 15, 57, 0
33, 807600, Note_on_c, 15, 59, 80
33, 807819, Note_on_c, 15, 59, 0
33, 807840, Note_on_c, 15, 57, 84
33, 808059, Note_on_c, 15, 57, 0
33, 808080, Note_on_c, 15, 59, 88
33, 808199, Note_on_c, 15, 59, 0
33, 808200, Note_on_c, 15, 61, 90
33, 808299, Note_on_c, 15, 61, 0
33, 808320, Note_on_c, 15, 62, 92
33, 808559, Note_on_c, 15, 62, 0
33, 811680, Note_on_c, 15, 45, 92
33, 811919, Note_on_c, 15, 45, 0
33, 811920, Note_on_c, 15, 47, 92
33, 812039, Note_on_c, 15, 47, 0
33, 812040, Note_on_c, 15, 49, 92
33, 812159, Note_on_c, 15, 49, 0
33, 812160, Note_on_c, 15, 50, 92
33, 812339, Note_on_c, 15, 50, 0
33, 812400, Note_on_c, 15, 50, 80
33, 812579, Note_on_c, 15, 50, 0
33, 812640, Note_on_c, 15, 49, 80
33, 812819, Note_on_c, 15, 49, 0
33, 812880, Note_on_c, 15, 45, 80
33, 813059, Note_on_c, 15, 45, 0
33, 813120, Note_on_c, 15, 52, 92
33, 813299, Note_on_c, 15, 52, 0
33, 813360, Note_on_c, 15, 52, 80
33, 813539, Note_on_c, 15, 52, 0
33, 813600, Note_on_c, 15, 51, 80
33, 813779, Note_on_c, 15, 51, 0
33, 813840, Note_on_c, 15, 47, 80
33, 814019, Note_on_c, 15, 47, 0
33, 814080, Note_on_c, 15, 52, 92
33, 814259, Note_on_c, 15, 52, 0
33, 814320, Note_on_c, 15, 54, 80
33, 814499, Note_on_c, 15, 54, 0
33, 814560, Note_on_c, 15, 55, 80
33, 814739, Note_on_c, 15, 55, 0
33, 814800, Note_on_c, 15, 56, 80
33, 814979, Note_on_c, 15, 56, 0
33, 815040, Note_on_c, 15, 57, 92
33, 815219, Note_on_c, 15, 57, 0
33, 815280, Note_on_c, 15, 56, 80
33, 815459, Note_on_c, 15, 56, 0
33, 815520, Note_on_c, 15, 57, 80
33, 815699, Note_on_c, 15, 57, 0
33, 815760, Note_on_c, 15, 59, 80
33, 815879, Note_on_c, 15, 59, 0
33, 815880, Note_on_c, 15, 57, 80
33, 815979, Note_on_c, 15, 57, 0
33, 816000, Note_on_c, 15, 55, 80
33, 816179, Note_on_c, 15, 55, 0
33, 816240, Note_on_c, 15, 55, 80
33, 816359, Note_on_c, 15, 55, 0
33, 816360, Note_on_c, 15, 54, 80
33, 816459, Note_on_c, 15, 54, 0
33, 816480, Note_on_c, 15, 52, 80
33, 816659, Note_on_c, 15, 52, 0
33, 816720, Note_on_c, 15, 52, 80
33, 816839, Note_on_c, 15, 52, 0
33, 816840, Note_on_c, 15, 50, 80
33, 816939, Note_on_c, 15, 50, 0
33, 816960, Note_on_c, 15, 49, 80
33, 817139, Note_on_c, 15, 49, 0
33, 817200, Note_on_c, 15, 49, 80
33, 817319, Note_on_c, 15, 49, 0
33, 817320, Note_on_c, 15, 47, 80
33, 817419, Note_on_c, 15, 47, 0
33, 817440, Note_on_c, 15, 45, 80
33, 817619, Note_on_c, 15, 45, 0
33, 817680, Note_on_c, 15, 57, 80
33, 817889, Note_on_c, 15, 57, 0
33, 817920, Note_on_c, 15, 55, 92
33, 818159, Note_on_c, 15, 55, 0
33, 818160, Note_on_c, 15, 57, 80
33, 818399, Note_on_c, 15, 57, 0
33, 818400, Note_on_c, 15, 55, 80
33, 818639, Note_on_c, 15, 55, 0
33, 818640, Note_on_c, 15, 54, 80
33, 818849, Note_on_c, 15, 54, 0
33, 818880, Note_on_c, 15, 55, 80
33, 819119, Note_on_c, 15, 55, 0
33, 819120, Note_on_c, 15, 57, 80
33, 819359, Note_on_c, 15, 57, 0
33, 819360, Note_on_c, 15, 55, 80
33, 819599, Note_on_c, 15, 55, 0
33, 819600, Note_on_c, 15, 54, 80
33, 819809, Note_on_c, 15, 54, 0
33, 819840, Note_on_c, 15, 55, 80
33, 820079, Note_on_c, 15, 55, 0
33, 820080, Note_on_c, 15, 57, 80
33, 820319, Note_on_c, 15, 57, 0
33, 820320, Note_on_c, 15, 55, 80
33, 820559, Note_on_c, 15, 55, 0
33, 820560, Note_on_c, 15, 54, 80
33, 820769, Note_on_c, 15, 54, 0
33, 820800, Note_on_c, 15, 55, 80
33, 821039, Note_on_c, 15, 55, 0
33, 821040, Note_on_c, 15, 57, 80
33, 821279, Note_on_c, 15, 57, 0
33, 821280, Note_on_c, 15, 55, 80
33, 821519, Note_on_c, 15, 55, 0
33, 821520, Note_on_c, 15, 54, 80
33, 821729, Note_on_c, 15, 54, 0
33, 821760, Note_on_c, 15, 55, 80
33, 821999, Note_on_c, 15, 55, 0
33, 822000, Note_on_c, 15, 57, 80
33, 822239, Note_on_c, 15, 57, 0
33, 822240, Note_on_c, 15, 55, 80
33, 822479, Note_on_c, 15, 55, 0
33, 822480, Note_on_c, 15, 54, 80
33, 822689, Note_on_c, 15, 54, 0
33, 822720, Note_on_c, 15, 55, 80
33, 822959, Note_on_c, 15, 55, 0
33, 822960, Note_on_c, 15, 57, 80
33, 823199, Note_on_c, 15, 57, 0
33, 823200, Note_on_c, 15, 55, 80
33, 823439, Note_on_c, 15, 55, 0
33, 823440, Note_on_c, 15, 54, 80
33, 823649, Note_on_c, 15, 54, 0
33, 823680, Note_on_c, 15, 55, 80
33, 823919, Note_on_c, 15, 55, 0
33, 823920, Note_on_c, 15, 57, 80
33, 824159, Note_on_c, 15, 57, 0
33, 824160, Note_on_c, 15, 55, 80
33, 824399, Note_on_c, 15, 55, 0
33, 824400, Note_on_c, 15, 54, 80
33, 824609, Note_on_c, 15, 54, 0
33, 824640, Note_on_c, 15, 55, 80
33, 824879, Note_on_c, 15, 55, 0
33, 824880, Note_on_c, 15, 57, 80
33, 825119, Note_on_c, 15, 57, 0
33, 825120, Note_on_c, 15, 55, 80
33, 825359, Note_on_c, 15, 55, 0
33, 825360, Note_on_c, 15, 54, 80
33, 825569, Note_on_c, 15, 54, 0
33, 825600, Note_on_c, 15, 52, 80
33, 825809, Note_on_c, 15, 52, 0
33, 825840, Note_on_c, 15, 64, 80
33, 826049, Note_on_c, 15, 64, 0
33, 826080, Note_on_c, 15, 50, 80
33, 826289, Note_on_c, 15, 50, 0
33, 826320, Note_on_c, 15, 62, 80
33, 826529, Note_on_c, 15, 62, 0
33, 826560, Note_on_c, 15, 55, 80
33, 826769, Note_on_c, 15, 55, 0
33, 826800, Note_on_c, 15, 67, 80
33, 827009, Note_on_c, 15, 67, 0
33, 827040, Note_on_c, 15, 43, 80
33, 827249, Note_on_c, 15, 43, 0
33, 827280, Note_on_c, 15, 55, 80
33, 827489, Note_on_c, 15, 55, 0
33, 827520, Note_on_c, 15, 45, 80
33, 827729, Note_on_c, 15, 45, 0
33, 827760, Note_on_c, 15, 57, 80
33, 827969, Note_on_c, 15, 57, 0
33, 828000, Note_on_c, 15, 43, 80
33, 828209, Note_on_c, 15, 43, 0
33, 828240, Note_on_c, 15, 55, 80
33, 828449, Note_on_c, 15, 55, 0
33, 828480, Note_on_c, 15, 42, 80
33, 828689, Note_on_c, 15, 42, 0
33, 828720, Note_on_c, 15, 54, 80
33, 828929, Note_on_c, 15, 54, 0
33, 828960, Note_on_c, 15, 54, 80
33, 829169, Note_on_c, 15, 54, 0
33, 829200, Note_on_c, 15, 66, 80
33, 829409, Note_on_c, 15, 66, 0
33, 829440, Note_on_c, 15, 52, 80
33, 829649, Note_on_c, 15, 52, 0
33, 829680, Note_on_c, 15, 64, 80
33, 829889, Note_on_c, 15, 64, 0
33, 829920, Note_on_c, 15, 50, 80
33, 830129, Note_on_c, 15, 50, 0
33, 830160, Note_on_c, 15, 62, 80
33, 830369, Note_on_c, 15, 62, 0
33, 830400, Note_on_c, 15, 55, 80
33, 830609, Note_on_c, 15, 55, 0
33, 830640, Note_on_c, 15, 67, 80
33, 830849, Note_on_c, 15, 67, 0
33, 830880, Note_on_c, 15, 43, 80
33, 831089, Note_on_c, 15, 43, 0
33, 831120, Note_on_c, 15, 55, 80
33, 831329, Note_on_c, 15, 55, 0
33, 831360, Note_on_c, 15, 45, 80
33, 831569, Note_on_c, 15, 45, 0
33, 831600, Note_on_c, 15, 57, 80
33, 831809, Note_on_c, 15, 57, 0
33, 831840, Note_on_c, 15, 45, 80
33, 832049, Note_on_c, 15, 45, 0
33, 832080, Note_on_c, 15, 57, 80
33, 832289, Note_on_c, 15, 57, 0
33, 832320, Note_on_c, 15, 62, 80
33, 832529, Note_on_c, 15, 62, 0
33, 832560, Note_on_c, 15, 62, 80
33, 832769, Note_on_c, 15, 62, 0
33, 832800, Note_on_c, 15, 61, 80
33, 833009, Note_on_c, 15, 61, 0
33, 833040, Note_on_c, 15, 57, 80
33, 833279, Note_on_c, 15, 57, 0
33, 834240, Note_on_c, 15, 64, 80
33, 834449, Note_on_c, 15, 64, 0
33, 834480, Note_on_c, 15, 64, 80
33, 834689, Note_on_c, 15, 64, 0
33, 834720, Note_on_c, 15, 63, 80
33, 834929, Note_on_c, 15, 63, 0
33, 834960, Note_on_c, 15, 59, 80
33, 835169, Note_on_c, 15, 59, 0
33, 835200, Note_on_c, 15, 52, 80
33, 835409, Note_on_c, 15, 52, 0
33, 835440, Note_on_c, 15, 52, 80
33, 835649, Note_on_c, 15, 52, 0
33, 835680, Note_on_c, 15, 51, 80
33, 835889, Note_on_c, 15, 51, 0
33, 835920, Note_on_c, 15, 47, 80
33, 836019, Note_on_c, 15, 47, 0
33, 836040, Note_on_c, 15, 59, 80
33, 836139, Note_on_c, 15, 59, 0
33, 836160, Note_on_c, 15, 59, 92
33, 836519, Note_on_c, 15, 59, 0
33, 836640, Note_on_c, 15, 59, 92
33, 836999, Note_on_c, 15, 59, 0
33, 837120, Note_on_c, 15, 59, 92
33, 837479, Note_on_c, 15, 59, 0
33, 837600, Note_on_c, 15, 59, 92
33, 837959, Note_on_c, 15, 59, 0
33, 838080, Note_on_c, 15, 59, 92
33, 838439, Note_on_c, 15, 59, 0
33, 838560, Note_on_c, 15, 59, 92
33, 838919, Note_on_c, 15, 59, 0
33, 839040, Note_on_c, 15, 60, 92
33, 839399, Note_on_c, 15, 60, 0
33, 839520, Note_on_c, 15, 60, 92
33, 839879, Note_on_c, 15, 60, 0
33, 840000, Note_on_c, 15, 60, 92
33, 840359, Note_on_c, 15, 60, 0
33, 840480, Note_on_c, 15, 60, 92
33, 840839, Note_on_c, 15, 60, 0
33, 840960, Note_on_c, 15, 65, 92
33, 841319, Note_on_c, 15, 65, 0
33, 841440, Note_on_c, 15, 62, 92
33, 841799, Note_on_c, 15, 62, 0
33, 841920, Note_on_c, 15, 57, 92
33, 842279, Note_on_c, 15, 57, 0
33, 842400, Note_on_c, 15, 69, 92
33, 842609, Note_on_c, 15, 69, 0
33, 842640, Note_on_c, 15, 57, 92
33, 842849, Note_on_c, 15, 57, 0
33, 842880, Note_on_c, 15, 59, 92
33, 842979, Note_on_c, 15, 59, 0
33, 843000, Note_on_c, 15, 59, 92
33, 843099, Note_on_c, 15, 59, 0
33, 843120, Note_on_c, 15, 59, 92
33, 843219, Note_on_c, 15, 59, 0
33, 843240, Note_on_c, 15, 59, 92
33, 843339, Note_on_c, 15, 59, 0
33, 843360, Note_on_c, 15, 59, 92
33, 843459, Note_on_c, 15, 59, 0
33, 843480, Note_on_c, 15, 59, 80
33, 843579, Note_on_c, 15, 59, 0
33, 843600, Note_on_c, 15, 59, 80
33, 843699, Note_on_c, 15, 59, 0
33, 843720, Note_on_c, 15, 59, 80
33, 843819, Note_on_c, 15, 59, 0
33, 843840, Note_on_c, 15, 59, 80
33, 843939, Note_on_c, 15, 59, 0
33, 843960, Note_on_c, 15, 59, 80
33, 844059, Note_on_c, 15, 59, 0
33, 844080, Note_on_c, 15, 59, 80
33, 844179, Note_on_c, 15, 59, 0
33, 844200, Note_on_c, 15, 59, 80
33, 844299, Note_on_c, 15, 59, 0
33, 844320, Note_on_c, 15, 59, 80
33, 844419, Note_on_c, 15, 59, 0
33, 844440, Note_on_c, 15, 59, 80
33, 844539, Note_on_c, 15, 59, 0
33, 844560, Note_on_c, 15, 59, 80
33, 844659, Note_on_c, 15, 59, 0
33, 844680, Note_on_c, 15, 59, 80
33, 844779, Note_on_c, 15, 59, 0
33, 844800, Note_on_c, 15, 59, 80
33, 844899, Note_on_c, 15, 59, 0
33, 844920, Note_on_c, 15, 59, 80
33, 845019, Note_on_c, 15, 59, 0
33, 845040, Note_on_c, 15, 59, 80
33, 845139, Note_on_c, 15, 59, 0
33, 845160, Note_on_c, 15, 59, 80
33, 845259, Note_on_c, 15, 59, 0
33, 845280, Note_on_c, 15, 59, 80
33, 845379, Note_on_c, 15, 59, 0
33, 845400, Note_on_c, 15, 59, 80
33, 845499, Note_on_c, 15, 59, 0
33, 845520, Note_on_c, 15, 59, 80
33, 845619, Note_on_c, 15, 59, 0
33, 845640, Note_on_c, 15, 59, 80
33, 845739, Note_on_c, 15, 59, 0
33, 845760, Note_on_c, 15, 59, 80
33, 845859, Note_on_c, 15, 59, 0
33, 845880, Note_on_c, 15, 59, 80
33, 845979, Note_on_c, 15, 59, 0
33, 846000, Note_on_c, 15, 59, 80
33, 846099, Note_on_c, 15, 59, 0
33, 846120, Note_on_c, 15, 59, 80
33, 846219, Note_on_c, 15, 59, 0
33, 846240, Note_on_c, 15, 59, 80
33, 846339, Note_on_c, 15, 59, 0
33, 846360, Note_on_c, 15, 59, 80
33, 846459, Note_on_c, 15, 59, 0
33, 846480, Note_on_c, 15, 59, 80
33, 846579, Note_on_c, 15, 59, 0
33, 846600, Note_on_c, 15, 59, 80
33, 846699, Note_on_c, 15, 59, 0
33, 846720, Note_on_c, 15, 60, 92
33, 846819, Note_on_c, 15, 60, 0
33, 846840, Note_on_c, 15, 60, 92
33, 846939, Note_on_c, 15, 60, 0
33, 846960, Note_on_c, 15, 60, 92
33, 847059, Note_on_c, 15, 60, 0
33, 847080, Note_on_c, 15, 60, 92
33, 847179, Note_on_c, 15, 60, 0
33, 847200, Note_on_c, 15, 60, 80
33, 847299, Note_on_c, 15, 60, 0
33, 847320, Note_on_c, 15, 60, 80
33, 847419, Note_on_c, 15, 60, 0
33, 847440, Note_on_c, 15, 60, 80
33, 847539, Note_on_c, 15, 60, 0
33, 847560, Note_on_c, 15, 60, 80
33, 847659, Note_on_c, 15, 60, 0
33, 847680, Note_on_c, 15, 60, 92
33, 847779, Note_on_c, 15, 60, 0
33, 847800, Note_on_c, 15, 60, 92
33, 847899, Note_on_c, 15, 60, 0
33, 847920, Note_on_c, 15, 60, 92
33, 848019, Note_on_c, 15, 60, 0
33, 848040, Note_on_c, 15, 60, 92
33, 848139, Note_on_c, 15, 60, 0
33, 848160, Note_on_c, 15, 60, 80
33, 848259, Note_on_c, 15, 60, 0
33, 848280, Note_on_c, 15, 60, 80
33, 848379, Note_on_c, 15, 60, 0
33, 848400, Note_on_c, 15, 60, 80
33, 848499, Note_on_c, 15, 60, 0
33, 848520, Note_on_c, 15, 60, 80
33, 848619, Note_on_c, 15, 60, 0
33, 848640, Note_on_c, 15, 65, 92
33, 848739, Note_on_c, 15, 65, 0
33, 848760, Note_on_c, 15, 65, 92
33, 848859, Note_on_c, 15, 65, 0
33, 848880, Note_on_c, 15, 65, 92
33, 848979, Note_on_c, 15, 65, 0
33, 849000, Note_on_c, 15, 65, 92
33, 849099, Note_on_c, 15, 65, 0
33, 849120, Note_on_c, 15, 62, 80
33, 849219, Note_on_c, 15, 62, 0
33, 849240, Note_on_c, 15, 62, 80
33, 849339, Note_on_c, 15, 62, 0
33, 849360, Note_on_c, 15, 62, 80
33, 849459, Note_on_c, 15, 62, 0
33, 849480, Note_on_c, 15, 62, 80
33, 849579, Note_on_c, 15, 62, 0
33, 849600, Note_on_c, 15, 57, 80
33, 849699, Note_on_c, 15, 57, 0
33, 849720, Note_on_c, 15, 57, 80
33, 849819, Note_on_c, 15, 57, 0
33, 849840, Note_on_c, 15, 57, 80
33, 849939, Note_on_c, 15, 57, 0
33, 849960, Note_on_c, 15, 57, 80
33, 850059, Note_on_c, 15, 57, 0
33, 850080, Note_on_c, 15, 69, 80
33, 850179, Note_on_c, 15, 69, 0
33, 850200, Note_on_c, 15, 69, 80
33, 850299, Note_on_c, 15, 69, 0
33, 850320, Note_on_c, 15, 60, 80
33, 850419, Note_on_c, 15, 60, 0
33, 850440, Note_on_c, 15, 60, 80
33, 850539, Note_on_c, 15, 60, 0
33, 850560, Note_on_c, 15, 60, 92
33, 850659, Note_on_c, 15, 60, 0
33, 850680, Note_on_c, 15, 60, 92
33, 850779, Note_on_c, 15, 60, 0
33, 850800, Note_on_c, 15, 60, 92
33, 850899, Note_on_c, 15, 60, 0
33, 850920, Note_on_c, 15, 60, 92
33, 851019, Note_on_c, 15, 60, 0
33, 851040, Note_on_c, 15, 59, 92
33, 851139, Note_on_c, 15, 59, 0
33, 851160, Note_on_c, 15, 59, 92
33, 851259, Note_on_c, 15, 59, 0
33, 851280, Note_on_c, 15, 67, 92
33, 851379, Note_on_c, 15, 67, 0
33, 851400, Note_on_c, 15, 67, 92
33, 851499, Note_on_c, 15, 67, 0
33, 851520, Note_on_c, 15, 64, 92
33, 851619, Note_on_c, 15, 64, 0
33, 851640, Note_on_c, 15, 64, 92
33, 851739, Note_on_c, 15, 64, 0
33, 851760, Note_on_c, 15, 61, 92
33, 851859, Note_on_c, 15, 61, 0
33, 851880, Note_on_c, 15, 61, 92
33, 851979, Note_on_c, 15, 61, 0
33, 852000, Note_on_c, 15, 57, 92
33, 852099, Note_on_c, 15, 57, 0
33, 852120, Note_on_c, 15, 57, 92
33, 852219, Note_on_c, 15, 57, 0
33, 852240, Note_on_c, 15, 55, 92
33, 852339, Note_on_c, 15, 55, 0
33, 852360, Note_on_c, 15, 55, 92
33, 852459, Note_on_c, 15, 55, 0
33, 852480, Note_on_c, 15, 52, 92
33, 852579, Note_on_c, 15, 52, 0
33, 852600, Note_on_c, 15, 52, 92
33, 852699, Note_on_c, 15, 52, 0
33, 852720, Note_on_c, 15, 49, 92
33, 852819, Note_on_c, 15, 49, 0
33, 852840, Note_on_c, 15, 49, 92
33, 852939, Note_on_c, 15, 49, 0
33, 852960, Note_on_c, 15, 45, 92
33, 853059, Note_on_c, 15, 45, 0
33, 853080, Note_on_c, 15, 45, 92
33, 853179, Note_on_c, 15, 45, 0
33, 853200, Note_on_c, 15, 69, 92
33, 853299, Note_on_c, 15, 69, 0
33, 853320, Note_on_c, 15, 69, 92
33, 853419, Note_on_c, 15, 69, 0
33, 853440, Note_on_c, 15, 69, 92
33, 853539, Note_on_c, 15, 69, 0
33, 853560, Note_on_c, 15, 69, 92
33, 853659, Note_on_c, 15, 69, 0
33, 853680, Note_on_c, 15, 69, 92
33, 853779, Note_on_c, 15, 69, 0
33, 853800, Note_on_c, 15, 69, 92
33, 853899, Note_on_c, 15, 69, 0
33, 853920, Note_on_c, 15, 69, 92
33, 854019, Note_on_c, 15, 69, 0
33, 854040, Note_on_c, 15, 69, 92
33, 854139, Note_on_c, 15, 69, 0
33, 854160, Note_on_c, 15, 60, 92
33, 854259, Note_on_c, 15, 60, 0
33, 854280, Note_on_c, 15, 60, 92
33, 854379, Note_on_c, 15, 60, 0
33, 854400, Note_on_c, 15, 60, 92
33, 854499, Note_on_c, 15, 60, 0
33, 854520, Note_on_c, 15, 60, 92
33, 854619, Note_on_c, 15, 60, 0
33, 854640, Note_on_c, 15, 60, 92
33, 854739, Note_on_c, 15, 60, 0
33, 854760, Note_on_c, 15, 60, 92
33, 854859, Note_on_c, 15, 60, 0
33, 854880, Note_on_c, 15, 59, 92
33, 854979, Note_on_c, 15, 59, 0
33, 855000, Note_on_c, 15, 59, 92
33, 855099, Note_on_c, 15, 59, 0
33, 855120, Note_on_c, 15, 55, 92
33, 855219, Note_on_c, 15, 55, 0
33, 855240, Note_on_c, 15, 55, 92
33, 855339, Note_on_c, 15, 55, 0
33, 855360, Note_on_c, 15, 64, 92
33, 855459, Note_on_c, 15, 64, 0
33, 855480, Note_on_c, 15, 64, 92
33, 855579, Note_on_c, 15, 64, 0
33, 855600, Note_on_c, 15, 61, 92
33, 855699, Note_on_c, 15, 61, 0
33, 855720, Note_on_c, 15, 61, 92
33, 855819, Note_on_c, 15, 61, 0
33, 855840, Note_on_c, 15, 57, 92
33, 855939, Note_on_c, 15, 57, 0
33, 855960, Note_on_c, 15, 57, 92
33, 856059, Note_on_c, 15, 57, 0
33, 856080, Note_on_c, 15, 55, 92
33, 856179, Note_on_c, 15, 55, 0
33, 856200, Note_on_c, 15, 55, 92
33, 856299, Note_on_c, 15, 55, 0
33, 856320, Note_on_c, 15, 52, 92
33, 856419, Note_on_c, 15, 52, 0
33, 856440, Note_on_c, 15, 52, 92
33, 856539, Note_on_c, 15, 52, 0
33, 856560, Note_on_c, 15, 49, 92
33, 856659, Note_on_c, 15, 49, 0
33, 856680, Note_on_c, 15, 49, 92
33, 856779, Note_on_c, 15, 49, 0
33, 856800, Note_on_c, 15, 45, 92
33, 856899, Note_on_c, 15, 45, 0
33, 856920, Note_on_c, 15, 45, 92
33, 857019, Note_on_c, 15, 45, 0
33, 857040, Note_on_c, 15, 69, 92
33, 857139, Note_on_c, 15, 69, 0
33, 857160, Note_on_c, 15, 69, 92
33, 857259, Note_on_c, 15, 69, 0
33, 857280, Note_on_c, 15, 69, 92
33, 857379, Note_on_c, 15, 69, 0
33, 857400, Note_on_c, 15, 69, 92
33, 857499, Note_on_c, 15, 69, 0
33, 857520, Note_on_c, 15, 69, 92
33, 857619, Note_on_c, 15, 69, 0
33, 857640, Note_on_c, 15, 69, 92
33, 857739, Note_on_c, 15, 69, 0
33, 857760, Note_on_c, 15, 57, 92
33, 857859, Note_on_c, 15, 57, 0
33, 857880, Note_on_c, 15, 57, 92
33, 857979, Note_on_c, 15, 57, 0
33, 858000, Note_on_c, 15, 57, 92
33, 858099, Note_on_c, 15, 57, 0
33, 858120, Note_on_c, 15, 57, 92
33, 858219, Note_on_c, 15, 57, 0
33, 858240, Note_on_c, 15, 62, 80
33, 858339, Note_on_c, 15, 62, 0
33, 858360, Note_on_c, 15, 62, 80
33, 858459, Note_on_c, 15, 62, 0
33, 858480, Note_on_c, 15, 64, 80
33, 858579, Note_on_c, 15, 64, 0
33, 858600, Note_on_c, 15, 66, 80
33, 858699, Note_on_c, 15, 66, 0
33, 858720, Note_on_c, 15, 66, 80
33, 858819, Note_on_c, 15, 66, 0
33, 858840, Note_on_c, 15, 64, 80
33, 858939, Note_on_c, 15, 64, 0
33, 858960, Note_on_c, 15, 62, 80
33, 859059, Note_on_c, 15, 62, 0
33, 859080, Note_on_c, 15, 61, 80
33, 859179, Note_on_c, 15, 61, 0
33, 859200, Note_on_c, 15, 59, 80
33, 859299, Note_on_c, 15, 59, 0
33, 859320, Note_on_c, 15, 59, 80
33, 859419, Note_on_c, 15, 59, 0
33, 859440, Note_on_c, 15, 60, 80
33, 859539, Note_on_c, 15, 60, 0
33, 859560, Note_on_c, 15, 62, 80
33, 859659, Note_on_c, 15, 62, 0
33, 859680, Note_on_c, 15, 62, 80
33, 859779, Note_on_c, 15, 62, 0
33, 859800, Note_on_c, 15, 60, 80
33, 859899, Note_on_c, 15, 60, 0
33, 859920, Note_on_c, 15, 59, 80
33, 860019, Note_on_c, 15, 59, 0
33, 860040, Note_on_c, 15, 57, 80
33, 860139, Note_on_c, 15, 57, 0
33, 860160, Note_on_c, 15, 55, 80
33, 860259, Note_on_c, 15, 55, 0
33, 860280, Note_on_c, 15, 55, 80
33, 860379, Note_on_c, 15, 55, 0
33, 860400, Note_on_c, 15, 57, 80
33, 860499, Note_on_c, 15, 57, 0
33, 860520, Note_on_c, 15, 59, 80
33, 860619, Note_on_c, 15, 59, 0
33, 860640, Note_on_c, 15, 52, 80
33, 860739, Note_on_c, 15, 52, 0
33, 860760, Note_on_c, 15, 52, 80
33, 860859, Note_on_c, 15, 52, 0
33, 860880, Note_on_c, 15, 54, 80
33, 860979, Note_on_c, 15, 54, 0
33, 861000, Note_on_c, 15, 55, 80
33, 861099, Note_on_c, 15, 55, 0
33, 861120, Note_on_c, 15, 57, 92
33, 861219, Note_on_c, 15, 57, 0
33, 861240, Note_on_c, 15, 59, 92
33, 861339, Note_on_c, 15, 59, 0
33, 861360, Note_on_c, 15, 61, 92
33, 861459, Note_on_c, 15, 61, 0
33, 861480, Note_on_c, 15, 62, 92
33, 861579, Note_on_c, 15, 62, 0
33, 861600, Note_on_c, 15, 64, 92
33, 861699, Note_on_c, 15, 64, 0
33, 861720, Note_on_c, 15, 66, 92
33, 861819, Note_on_c, 15, 66, 0
33, 861840, Note_on_c, 15, 67, 92
33, 861939, Note_on_c, 15, 67, 0
33, 861960, Note_on_c, 15, 69, 92
33, 862059, Note_on_c, 15, 69, 0
33, 862080, Note_on_c, 15, 69, 92
33, 862179, Note_on_c, 15, 69, 0
33, 862200, Note_on_c, 15, 57, 92
33, 862299, Note_on_c, 15, 57, 0
33, 862320, Note_on_c, 15, 59, 92
33, 862419, Note_on_c, 15, 59, 0
33, 862440, Note_on_c, 15, 61, 92
33, 862539, Note_on_c, 15, 61, 0
33, 862560, Note_on_c, 15, 62, 92
33, 862659, Note_on_c, 15, 62, 0
33, 862680, Note_on_c, 15, 64, 92
33, 862779, Note_on_c, 15, 64, 0
33, 862800, Note_on_c, 15, 66, 92
33, 862899, Note_on_c, 15, 66, 0
33, 862920, Note_on_c, 15, 62, 92
33, 863019, Note_on_c, 15, 62, 0
33, 863040, Note_on_c, 15, 57, 92
33, 863139, Note_on_c, 15, 57, 0
33, 863160, Note_on_c, 15, 59, 92
33, 863259, Note_on_c, 15, 59, 0
33, 863280, Note_on_c, 15, 61, 92
33, 863379, Note_on_c, 15, 61, 0
33, 863400, Note_on_c, 15, 62, 92
33, 863499, Note_on_c, 15, 62, 0
33, 863520, Note_on_c, 15, 64, 92
33, 863619, Note_on_c, 15, 64, 0
33, 863640, Note_on_c, 15, 66, 92
33, 863739, Note_on_c, 15, 66, 0
33, 863760, Note_on_c, 15, 67, 92
33, 863859, Note_on_c, 15, 67, 0
33, 863880, Note_on_c, 15, 69, 92
33, 863979, Note_on_c, 15, 69, 0
33, 864000, Note_on_c, 15, 57, 92
33, 864099, Note_on_c, 15, 57, 0
33, 864120, Note_on_c, 15, 57, 92
33, 864219, Note_on_c, 15, 57, 0
33, 864240, Note_on_c, 15, 59, 92
33, 864339, Note_on_c, 15, 59, 0
33, 864360, Note_on_c, 15, 61, 92
33, 864459, Note_on_c, 15, 61, 0
33, 864480, Note_on_c, 15, 62, 92
33, 864579, Note_on_c, 15, 62, 0
33, 864600, Note_on_c, 15, 64, 92
33, 864699, Note_on_c, 15, 64, 0
33, 864720, Note_on_c, 15, 66, 92
33, 864819, Note_on_c, 15, 66, 0
33, 864840, Note_on_c, 15, 62, 92
33, 864939, Note_on_c, 15, 62, 0
33, 864960, Note_on_c, 15, 57, 92
33, 865059, Note_on_c, 15, 57, 0
33, 865080, Note_on_c, 15, 49, 92
33, 865179, Note_on_c, 15, 49, 0
33, 865200, Note_on_c, 15, 50, 92
33, 865299, Note_on_c, 15, 50, 0
33, 865320, Note_on_c, 15, 52, 92
33, 865419, Note_on_c, 15, 52, 0
33, 865440, Note_on_c, 15, 57, 92
33, 865539, Note_on_c, 15, 57, 0
33, 865560, Note_on_c, 15, 50, 92
33, 865659, Note_on_c, 15, 50, 0
33, 865680, Note_on_c, 15, 52, 92
33, 865779, Note_on_c, 15, 52, 0
33, 865800, Note_on_c, 15, 54, 92
33, 865899, Note_on_c, 15, 54, 0
33, 865920, Note_on_c, 15, 57, 92
33, 866019, Note_on_c, 15, 57, 0
33, 866040, Note_on_c, 15, 51, 92
33, 866139, Note_on_c, 15, 51, 0
33, 866160, Note_on_c, 15, 52, 92
33, 866259, Note_on_c, 15, 52, 0
33, 866280, Note_on_c, 15, 54, 92
33, 866379, Note_on_c, 15, 54, 0
33, 866400, Note_on_c, 15, 55, 92
33, 866499, Note_on_c, 15, 55, 0
33, 866520, Note_on_c, 15, 57, 92
33, 866619, Note_on_c, 15, 57, 0
33, 866640, Note_on_c, 15, 59, 92
33, 866739, Note_on_c, 15, 59, 0
33, 866760, Note_on_c, 15, 61, 92
33, 866859, Note_on_c, 15, 61, 0
33, 866880, Note_on_c, 15, 62, 92
33, 866979, Note_on_c, 15, 62, 0
33, 867000, Note_on_c, 15, 64, 92
33, 867099, Note_on_c, 15, 64, 0
33, 867120, Note_on_c, 15, 66, 92
33, 867219, Note_on_c, 15, 66, 0
33, 867240, Note_on_c, 15, 67, 92
33, 867339, Note_on_c, 15, 67, 0
33, 867360, Note_on_c, 15, 69, 92
33, 867459, Note_on_c, 15, 69, 0
33, 867480, Note_on_c, 15, 50, 92
33, 867579, Note_on_c, 15, 50, 0
33, 867600, Note_on_c, 15, 52, 92
33, 867699, Note_on_c, 15, 52, 0
33, 867720, Note_on_c, 15, 54, 92
33, 867819, Note_on_c, 15, 54, 0
33, 867840, Note_on_c, 15, 57, 92
33, 867939, Note_on_c, 15, 57, 0
33, 867960, Note_on_c, 15, 49, 92
33, 868059, Note_on_c, 15, 49, 0
33, 868080, Note_on_c, 15, 50, 92
33, 868179, Note_on_c, 15, 50, 0
33, 868200, Note_on_c, 15, 52, 92
33, 868299, Note_on_c, 15, 52, 0
33, 868320, Note_on_c, 15, 57, 92
33, 868419, Note_on_c, 15, 57, 0
33, 868440, Note_on_c, 15, 50, 92
33, 868539, Note_on_c, 15, 50, 0
33, 868560, Note_on_c, 15, 52, 92
33, 868659, Note_on_c, 15, 52, 0
33, 868680, Note_on_c, 15, 54, 92
33, 868779, Note_on_c, 15, 54, 0
33, 868800, Note_on_c, 15, 57, 92
33, 868899, Note_on_c, 15, 57, 0
33, 868920, Note_on_c, 15, 51, 92
33, 869019, Note_on_c, 15, 51, 0
33, 869040, Note_on_c, 15, 52, 92
33, 869139, Note_on_c, 15, 52, 0
33, 869160, Note_on_c, 15, 54, 92
33, 869259, Note_on_c, 15, 54, 0
33, 869280, Note_on_c, 15, 55, 92
33, 869379, Note_on_c, 15, 55, 0
33, 869400, Note_on_c, 15, 57, 92
33, 869499, Note_on_c, 15, 57, 0
33, 869520, Note_on_c, 15, 59, 92
33, 869619, Note_on_c, 15, 59, 0
33, 869640, Note_on_c, 15, 61, 92
33, 869739, Note_on_c, 15, 61, 0
33, 869760, Note_on_c, 15, 62, 92
33, 869859, Note_on_c, 15, 62, 0
33, 869880, Note_on_c, 15, 64, 92
33, 869979, Note_on_c, 15, 64, 0
33, 870000, Note_on_c, 15, 66, 92
33, 870099, Note_on_c, 15, 66, 0
33, 870120, Note_on_c, 15, 67, 92
33, 870219, Note_on_c, 15, 67, 0
33, 870240, Note_on_c, 15, 57, 92
33, 870339, Note_on_c, 15, 57, 0
33, 870360, Note_on_c, 15, 57, 92
33, 870459, Note_on_c, 15, 57, 0
33, 870480, Note_on_c, 15, 57, 92
33, 870579, Note_on_c, 15, 57, 0
33, 870600, Note_on_c, 15, 57, 92
33, 870699, Note_on_c, 15, 57, 0
33, 870720, Note_on_c, 15, 57, 92
33, 870959, Note_on_c, 15, 57, 0
33, 871680, Note_on_c, 15, 67, 44
33, 871949, Note_on_c, 15, 67, 0
33, 871950, Note_on_c, 15, 66, 64
33, 871969, Note_on_c, 15, 66, 0
33, 871980, Note_on_c, 15, 64, 66
33, 871999, Note_on_c, 15, 64, 0
33, 872010, Note_on_c, 15, 62, 68
33, 872029, Note_on_c, 15, 62, 0
33, 872040, Note_on_c, 15, 61, 71
33, 872059, Note_on_c, 15, 61, 0
33, 872070, Note_on_c, 15, 59, 73
33, 872089, Note_on_c, 15, 59, 0
33, 872100, Note_on_c, 15, 57, 75
33, 872119, Note_on_c, 15, 57, 0
33, 872130, Note_on_c, 15, 55, 77
33, 872149, Note_on_c, 15, 55, 0
33, 872160, Note_on_c, 15, 62, 80
33, 872179, Note_on_c, 15, 62, 0
33, 872190, Note_on_c, 15, 61, 80
33, 872209, Note_on_c, 15, 61, 0
33, 872220, Note_on_c, 15, 59, 80
33, 872239, Note_on_c, 15, 59, 0
33, 872250, Note_on_c, 15, 57, 80
33, 872269, Note_on_c, 15, 57, 0
33, 872280, Note_on_c, 15, 55, 80
33, 872299, Note_on_c, 15, 55, 0
33, 872310, Note_on_c, 15, 54, 80
33, 872329, Note_on_c, 15, 54, 0
33, 872340, Note_on_c, 15, 52, 80
33, 872359, Note_on_c, 15, 52, 0
33, 872370, Note_on_c, 15, 50, 80
33, 872389, Note_on_c, 15, 50, 0
33, 872400, Note_on_c, 15, 67, 80
33, 872419, Note_on_c, 15, 67, 0
33, 872430, Note_on_c, 15, 66, 80
33, 872449, Note_on_c, 15, 66, 0
33, 872460, Note_on_c, 15, 64, 80
33, 872479, Note_on_c, 15, 64, 0
33, 872490, Note_on_c, 15, 62, 80
33, 872509, Note_on_c, 15, 62, 0
33, 872520, Note_on_c, 15, 61, 80
33, 872539, Note_on_c, 15, 61, 0
33, 872550, Note_on_c, 15, 59, 80
33, 872569, Note_on_c, 15, 59, 0
33, 872580, Note_on_c, 15, 57, 80
33, 872599, Note_on_c, 15, 57, 0
33, 872610, Note_on_c, 15, 55, 80
33, 872629, Note_on_c, 15, 55, 0
33, 872640, Note_on_c, 15, 64, 80
33, 872659, Note_on_c, 15, 64, 0
33, 872670, Note_on_c, 15, 62, 80
33, 872689, Note_on_c, 15, 62, 0
33, 872700, Note_on_c, 15, 61, 80
33, 872719, Note_on_c, 15, 61, 0
33, 872730, Note_on_c, 15, 59, 80
33, 872749, Note_on_c, 15, 59, 0
33, 872760, Note_on_c, 15, 57, 80
33, 872779, Note_on_c, 15, 57, 0
33, 872790, Note_on_c, 15, 55, 80
33, 872809, Note_on_c, 15, 55, 0
33, 872820, Note_on_c, 15, 54, 80
33, 872839, Note_on_c, 15, 54, 0
33, 872850, Note_on_c, 15, 64, 80
33, 872869, Note_on_c, 15, 64, 0
33, 872880, Note_on_c, 15, 64, 92
33, 872899, Note_on_c, 15, 64, 0
33, 872910, Note_on_c, 15, 62, 92
33, 872929, Note_on_c, 15, 62, 0
33, 872940, Note_on_c, 15, 64, 92
33, 872959, Note_on_c, 15, 64, 0
33, 872970, Note_on_c, 15, 66, 92
33, 872989, Note_on_c, 15, 66, 0
33, 873000, Note_on_c, 15, 67, 92
33, 873019, Note_on_c, 15, 67, 0
33, 873030, Note_on_c, 15, 66, 92
33, 873049, Note_on_c, 15, 66, 0
33, 873060, Note_on_c, 15, 67, 92
33, 873079, Note_on_c, 15, 67, 0
33, 873090, Note_on_c, 15, 64, 92
33, 873109, Note_on_c, 15, 64, 0
33, 873120, Note_on_c, 15, 66, 92
33, 873139, Note_on_c, 15, 66, 0
33, 873150, Note_on_c, 15, 64, 92
33, 873169, Note_on_c, 15, 64, 0
33, 873180, Note_on_c, 15, 66, 92
33, 873199, Note_on_c, 15, 66, 0
33, 873210, Note_on_c, 15, 67, 92
33, 873229, Note_on_c, 15, 67, 0
33, 873240, Note_on_c, 15, 69, 92
33, 873259, Note_on_c, 15, 69, 0
33, 873270, Note_on_c, 15, 67, 92
33, 873289, Note_on_c, 15, 67, 0
33, 873300, Note_on_c, 15, 69, 92
33, 873319, Note_on_c, 15, 69, 0
33, 873330, Note_on_c, 15, 66, 92
33, 873349, Note_on_c, 15, 66, 0
33, 873360, Note_on_c, 15, 64, 92
33, 873379, Note_on_c, 15, 64, 0
33, 873390, Note_on_c, 15, 66, 92
33, 873409, Note_on_c, 15, 66, 0
33, 873420, Note_on_c, 15, 67, 92
33, 873439, Note_on_c, 15, 67, 0
33, 873450, Note_on_c, 15, 61, 92
33, 873469, Note_on_c, 15, 61, 0
33, 873480, Note_on_c, 15, 62, 92
33, 873499, Note_on_c, 15, 62, 0
33, 873510, Note_on_c, 15, 61, 92
33, 873529, Note_on_c, 15, 61, 0
33, 873540, Note_on_c, 15, 62, 92
33, 873559, Note_on_c, 15, 62, 0
33, 873570, Note_on_c, 15, 64, 92
33, 873589, Note_on_c, 15, 64, 0
33, 873600, Note_on_c, 15, 62, 92
33, 873699, Note_on_c, 15, 62, 0
33, 873720, Note_on_c, 15, 50, 92
33, 873819, Note_on_c, 15, 50, 0
33, 873840, Note_on_c, 15, 50, 92
33, 873939, Note_on_c, 15, 50, 0
33, 873960, Note_on_c, 15, 50, 92
33, 874059, Note_on_c, 15, 50, 0
33, 874080, Note_on_c, 15, 50, 92
33, 874179, Note_on_c, 15, 50, 0
33, 874200, Note_on_c, 15, 50, 92
33, 874299, Note_on_c, 15, 50, 0
33, 874320, Note_on_c, 15, 45, 92
33, 874419, Note_on_c, 15, 45, 0
33, 874440, Note_on_c, 15, 45, 92
33, 874539, Note_on_c, 15, 45, 0
33, 874560, Note_on_c, 15, 50, 92
33, 874659, Note_on_c, 15, 50, 0
33, 874680, Note_on_c, 15, 50, 92
33, 874779, Note_on_c, 15, 50, 0
33, 874800, Note_on_c, 15, 50, 92
33, 874899, Note_on_c, 15, 50, 0
33, 874920, Note_on_c, 15, 50, 92
33, 875019, Note_on_c, 15, 50, 0
33, 875040, Note_on_c, 15, 50, 92
33, 875139, Note_on_c, 15, 50, 0
33, 875160, Note_on_c, 15, 50, 92
33, 875259, Note_on_c, 15, 50, 0
33, 875280, Note_on_c, 15, 45, 92
33, 875379, Note_on_c, 15, 45, 0
33, 875400, Note_on_c, 15, 45, 92
33, 875499, Note_on_c, 15, 45, 0
33, 875520, Note_on_c, 15, 50, 92
33, 875619, Note_on_c, 15, 50, 0
33, 875640, Note_on_c, 15, 50, 92
33, 875739, Note_on_c, 15, 50, 0
33, 875760, Note_on_c, 15, 50, 92
33, 875859, Note_on_c, 15, 50, 0
33, 875880, Note_on_c, 15, 50, 92
33, 875979, Note_on_c, 15, 50, 0
33, 876000, Note_on_c, 15, 50, 92
33, 876099, Note_on_c, 15, 50, 0
33, 876120, Note_on_c, 15, 50, 92
33, 876219, Note_on_c, 15, 50, 0
33, 876240, Note_on_c, 15, 45, 92
33, 876339, Note_on_c, 15, 45, 0
33, 876360, Note_on_c, 15, 45, 92
33, 876459, Note_on_c, 15, 45, 0
33, 876480, Note_on_c, 15, 50, 92
33, 876579, Note_on_c, 15, 50, 0
33, 876600, Note_on_c, 15, 50, 92
33, 876699, Note_on_c, 15, 50, 0
33, 876720, Note_on_c, 15, 50, 92
33, 876819, Note_on_c, 15, 50, 0
33, 876840, Note_on_c, 15, 50, 92
33, 876939, Note_on_c, 15, 50, 0
33, 876960, Note_on_c, 15, 50, 92
33, 877059, Note_on_c, 15, 50, 0
33, 877080, Note_on_c, 15, 50, 92
33, 877179, Note_on_c, 15, 50, 0
33, 877200, Note_on_c, 15, 45, 92
33, 877299, Note_on_c, 15, 45, 0
33, 877320, Note_on_c, 15, 45, 92
33, 877419, Note_on_c, 15, 45, 0
33, 877440, Note_on_c, 15, 50, 92
33, 877539, Note_on_c, 15, 50, 0
33, 877560, Note_on_c, 15, 50, 92
33, 877659, Note_on_c, 15, 50, 0
33, 877680, Note_on_c, 15, 45, 92
33, 877779, Note_on_c, 15, 45, 0
33, 877800, Note_on_c, 15, 45, 92
33, 877899, Note_on_c, 15, 45, 0
33, 877920, Note_on_c, 15, 50, 92
33, 878019, Note_on_c, 15, 50, 0
33, 878040, Note_on_c, 15, 50, 92
33, 878139, Note_on_c, 15, 50, 0
33, 878160, Note_on_c, 15, 45, 92
33, 878259, Note_on_c, 15, 45, 0
33, 878280, Note_on_c, 15, 45, 92
33, 878379, Note_on_c, 15, 45, 0
33, 878400, Note_on_c, 15, 50, 92
33, 878499, Note_on_c, 15, 50, 0
33, 878520, Note_on_c, 15, 50, 92
33, 878619, Note_on_c, 15, 50, 0
33, 878640, Note_on_c, 15, 45, 92
33, 878739, Note_on_c, 15, 45, 0
33, 878760, Note_on_c, 15, 45, 92
33, 878859, Note_on_c, 15, 45, 0
33, 878880, Note_on_c, 15, 50, 92
33, 878979, Note_on_c, 15, 50, 0
33, 879000, Note_on_c, 15, 50, 92
33, 879099, Note_on_c, 15, 50, 0
33, 879120, Note_on_c, 15, 57, 92
33, 879219, Note_on_c, 15, 57, 0
33, 879240, Note_on_c, 15, 57, 92
33, 879339, Note_on_c, 15, 57, 0
33, 879360, Note_on_c, 15, 62, 92
33, 879459, Note_on_c, 15, 62, 0
33, 879480, Note_on_c, 15, 62, 92
33, 879579, Note_on_c, 15, 62, 0
33, 879600, Note_on_c, 15, 57, 92
33, 879699, Note_on_c, 15, 57, 0
33, 879720, Note_on_c, 15, 57, 92
33, 879819, Note_on_c, 15, 57, 0
33, 879840, Note_on_c, 15, 62, 92
33, 879939, Note_on_c, 15, 62, 0
33, 879960, Note_on_c, 15, 62, 92
33, 880059, Note_on_c, 15, 62, 0
33, 880080, Note_on_c, 15, 57, 92
33, 880179, Note_on_c, 15, 57, 0
33, 880200, Note_on_c, 15, 57, 92
33, 880299, Note_on_c, 15, 57, 0
33, 880320, Note_on_c, 15, 62, 92
33, 880419, Note_on_c, 15, 62, 0
33, 880440, Note_on_c, 15, 62, 92
33, 880539, Note_on_c, 15, 62, 0
33, 880560, Note_on_c, 15, 62, 92
33, 880659, Note_on_c, 15, 62, 0
33, 880680, Note_on_c, 15, 62, 92
33, 880779, Note_on_c, 15, 62, 0
33, 880800, Note_on_c, 15, 62, 92
33, 880899, Note_on_c, 15, 62, 0
33, 880920, Note_on_c, 15, 62, 92
33, 881019, Note_on_c, 15, 62, 0
33, 881040, Note_on_c, 15, 62, 92
33, 881139, Note_on_c, 15, 62, 0
33, 881160, Note_on_c, 15, 62, 92
33, 881259, Note_on_c, 15, 62, 0
33, 881280, Note_on_c, 15, 62, 92
33, 881519, Note_on_c, 15, 62, 0
33, 881520, Note_on_c, 15, 50, 80
33, 881639, Note_on_c, 15, 50, 0
33, 881760, Note_on_c, 15, 62, 80
33, 881999, Note_on_c, 15, 62, 0
33, 882000, Note_on_c, 15, 50, 80
33, 882119, Note_on_c, 15, 50, 0
33, 882240, Note_on_c, 15, 62, 80
33, 882479, Note_on_c, 15, 62, 0
33, 882480, Note_on_c, 15, 50, 80
33, 882599, Note_on_c, 15, 50, 0
33, 882720, Note_on_c, 15, 62, 80
33, 882959, Note_on_c, 15, 62, 0
33, 882960, Note_on_c, 15, 50, 80
33, 883079, Note_on_c, 15, 50, 0
33, 883200, Note_on_c, 15, 62, 80
33, 883439, Note_on_c, 15, 62, 0
33, 883440, Note_on_c, 15, 50, 80
33, 883559, Note_on_c, 15, 50, 0
33, 883680, Note_on_c, 15, 62, 80
33, 883919, Note_on_c, 15, 62, 0
33, 883920, Note_on_c, 15, 50, 80
33, 884039, Note_on_c, 15, 50, 0
33, 884160, Note_on_c, 15, 62, 80
33, 884399, Note_on_c, 15, 62, 0
33, 884400, Note_on_c, 15, 50, 80
33, 884519, Note_on_c, 15, 50, 0
33, 884640, Note_on_c, 15, 62, 80
33, 884879, Note_on_c, 15, 62, 0
33, 884880, Note_on_c, 15, 50, 80
33, 884999, Note_on_c, 15, 50, 0
33, 885120, Note_on_c, 15, 62, 92
33, 885219, Note_on_c, 15, 62, 0
33, 885240, Note_on_c, 15, 62, 92
33, 885339, Note_on_c, 15, 62, 0
33, 885360, Note_on_c, 15, 50, 92
33, 885459, Note_on_c, 15, 50, 0
33, 885480, Note_on_c, 15, 50, 92
33, 885579, Note_on_c, 15, 50, 0
33, 885600, Note_on_c, 15, 62, 92
33, 885699, Note_on_c, 15, 62, 0
33, 885720, Note_on_c, 15, 62, 92
33, 885819, Note_on_c, 15, 62, 0
33, 885840, Note_on_c, 15, 50, 92
33, 885939, Note_on_c, 15, 50, 0
33, 885960, Note_on_c, 15, 50, 92
33, 886059, Note_on_c, 15, 50, 0
33, 886080, Note_on_c, 15, 62, 92
33, 886179, Note_on_c, 15, 62, 0
33, 886200, Note_on_c, 15, 62, 92
33, 886299, Note_on_c, 15, 62, 0
33, 886320, Note_on_c, 15, 50, 92
33, 886419, Note_on_c, 15, 50, 0
33, 886440, Note_on_c, 15, 50, 92
33, 886539, Note_on_c, 15, 50, 0
33, 886560, Note_on_c, 15, 62, 92
33, 886659, Note_on_c, 15, 62, 0
33, 886680, Note_on_c, 15, 62, 92
33, 886779, Note_on_c, 15, 62, 0
33, 886800, Note_on_c, 15, 50, 92
33, 886899, Note_on_c, 15, 50, 0
33, 886920, Note_on_c, 15, 50, 92
33, 887019, Note_on_c, 15, 50, 0
33, 887040, Note_on_c, 15, 62, 92
33, 887139, Note_on_c, 15, 62, 0
33, 887160, Note_on_c, 15, 62, 92
33, 887259, Note_on_c, 15, 62, 0
33, 887280, Note_on_c, 15, 50, 92
33, 887379, Note_on_c, 15, 50, 0
33, 887400, Note_on_c, 15, 50, 92
33, 887499, Note_on_c, 15, 50, 0
33, 887520, Note_on_c, 15, 62, 92
33, 887619, Note_on_c, 15, 62, 0
33, 887640, Note_on_c, 15, 62, 92
33, 887739, Note_on_c, 15, 62, 0
33, 887760, Note_on_c, 15, 50, 92
33, 887859, Note_on_c, 15, 50, 0
33, 887880, Note_on_c, 15, 50, 92
33, 887979, Note_on_c, 15, 50, 0
33, 888000, Note_on_c, 15, 62, 92
33, 888099, Note_on_c, 15, 62, 0
33, 888120, Note_on_c, 15, 62, 92
33, 888219, Note_on_c, 15, 62, 0
33, 888240, Note_on_c, 15, 50, 92
33, 888339, Note_on_c, 15, 50, 0
33, 888360, Note_on_c, 15, 50, 92
33, 888459, Note_on_c, 15, 50, 0
33, 888480, Note_on_c, 15, 62, 92
33, 888579, Note_on_c, 15, 62, 0
33, 888600, Note_on_c, 15, 62, 92
33, 888699, Note_on_c, 15, 62, 0
33, 888720, Note_on_c, 15, 50, 92
33, 888819, Note_on_c, 15, 50, 0
33, 888840, Note_on_c, 15, 50, 92
33, 888939, Note_on_c, 15, 50, 0
33, 888960, Note_on_c, 15, 50, 92
33, 889199, Note_on_c, 15, 50, 0
33, 890880, Note_on_c, 15, 50, 92
33, 891119, Note_on_c, 15, 50, 0
33, 891840, Note_on_c, 15, 50, 92
33, 892079, Note_on_c, 15, 50, 0
33, 892800, Note_on_c, 15, 50, 92
33, 893039, Note_on_c, 15, 50, 0
33, 893039, End_track
34, 0, Start_track
34, 0, Title_t, "Contrabass"
34, 0, MIDI_port, 0
34, 0, Program_c, 15, 48
34, 0, Control_c, 15, 7, 96
34, 0, Control_c, 15, 10, 96
34, 5760, Note_on_c, 15, 45, 80
34, 5984, Note_on_c, 15, 45, 0
34, 6000, Note_on_c, 15, 52, 80
34, 6944, Note_on_c, 15, 52, 0
34, 6960, Note_on_c, 15, 50, 80
34, 7079, Note_on_c, 15, 50, 0
34, 7080, Note_on_c, 15, 49, 80
34, 7199, Note_on_c, 15, 49, 0
34, 7200, Note_on_c, 15, 50, 80
34, 7319, Note_on_c, 15, 50, 0
34, 7320, Note_on_c, 15, 52, 80
34, 7424, Note_on_c, 15, 52, 0
34, 7440, Note_on_c, 15, 52, 80
34, 7784, Note_on_c, 15, 52, 0
34, 7800, Note_on_c, 15, 43, 80
34, 7889, Note_on_c, 15, 43, 0
34, 7920, Note_on_c, 15, 45, 80
34, 8009, Note_on_c, 15, 45, 0
34, 8040, Note_on_c, 15, 46, 80
34, 8129, Note_on_c, 15, 46, 0
34, 8160, Note_on_c, 15, 46, 80
34, 8279, Note_on_c, 15, 46, 0
34, 8280, Note_on_c, 15, 40, 80
34, 8399, Note_on_c, 15, 40, 0
34, 8400, Note_on_c, 15, 41, 80
34, 8519, Note_on_c, 15, 41, 0
34, 8520, Note_on_c, 15, 43, 80
34, 8624, Note_on_c, 15, 43, 0
34, 8640, Note_on_c, 15, 37, 80
34, 8729, Note_on_c, 15, 37, 0
34, 8760, Note_on_c, 15, 38, 80
34, 8849, Note_on_c, 15, 38, 0
34, 8880, Note_on_c, 15, 40, 80
34, 8999, Note_on_c, 15, 40, 0
34, 9000, Note_on_c, 15, 31, 80
34, 9104, Note_on_c, 15, 31, 0
34, 9120, Note_on_c, 15, 31, 80
34, 9464, Note_on_c, 15, 31, 0
34, 9480, Note_on_c, 15, 33, 80
34, 9584, Note_on_c, 15, 33, 0
34, 9600, Note_on_c, 15, 34, 80
34, 9824, Note_on_c, 15, 34, 0
34, 9840, Note_on_c, 15, 46, 80
34, 10320, Control_c, 15, 11, 127
34, 10380, Control_c, 15, 11, 122
34, 10440, Control_c, 15, 11, 117
34, 10500, Control_c, 15, 11, 112
34, 10544, Note_on_c, 15, 46, 0
34, 10560, Note_on_c, 15, 45, 80
34, 10560, Control_c, 15, 11, 107
34, 10620, Control_c, 15, 11, 102
34, 10680, Control_c, 15, 11, 99
34, 10740, Control_c, 15, 11, 94
34, 10800, Control_c, 15, 11, 89
34, 10860, Control_c, 15, 11, 84
34, 10904, Note_on_c, 15, 45, 0
34, 10920, Control_c, 15, 11, 79
34, 10920, Note_on_c, 15, 40, 80
34, 10980, Control_c, 15, 11, 74
34, 11024, Note_on_c, 15, 40, 0
34, 11040, Note_on_c, 15, 43, 80
34, 11040, Control_c, 15, 11, 69
34, 11279, Note_on_c, 15, 43, 0
34, 11280, Note_on_c, 15, 41, 80
34, 11519, Note_on_c, 15, 41, 0
34, 16800, Control_c, 15, 11, 127
34, 16920, Note_on_c, 15, 42, 80
34, 17024, Note_on_c, 15, 42, 0
34, 17040, Note_on_c, 15, 45, 80
34, 17279, Note_on_c, 15, 45, 0
34, 17880, Note_on_c, 15, 41, 80
34, 17984, Note_on_c, 15, 41, 0
34, 18000, Note_on_c, 15, 48, 80
34, 18104, Note_on_c, 15, 48, 0
34, 18120, Note_on_c, 15, 48, 80
34, 18224, Note_on_c, 15, 48, 0
34, 18240, Note_on_c, 15, 51, 80
34, 18584, Note_on_c, 15, 51, 0
34, 18600, Note_on_c, 15, 51, 80
34, 18704, Note_on_c, 15, 51, 0
34, 18720, Note_on_c, 15, 48, 80
34, 18824, Note_on_c, 15, 48, 0
34, 18840, Note_on_c, 15, 46, 80
34, 18944, Note_on_c, 15, 46, 0
34, 18960, Note_on_c, 15, 46, 80
34, 19079, Note_on_c, 15, 46, 0
34, 19080, Note_on_c, 15, 45, 80
34, 19184, Note_on_c, 15, 45, 0
34, 19200, Note_on_c, 15, 45, 80
34, 19304, Note_on_c, 15, 45, 0
34, 19320, Note_on_c, 15, 45, 80
34, 19424, Note_on_c, 15, 45, 0
34, 19440, Note_on_c, 15, 46, 80
34, 19544, Note_on_c, 15, 46, 0
34, 19560, Note_on_c, 15, 48, 80
34, 19664, Note_on_c, 15, 48, 0
34, 19680, Note_on_c, 15, 48, 80
34, 19799, Note_on_c, 15, 48, 0
34, 19800, Note_on_c, 15, 41, 80
34, 19919, Note_on_c, 15, 41, 0
34, 20040, Note_on_c, 15, 39, 80
34, 20144, Note_on_c, 15, 39, 0
34, 20160, Note_on_c, 15, 39, 80
34, 20264, Note_on_c, 15, 39, 0
34, 20280, Note_on_c, 15, 38, 80
34, 20384, Note_on_c, 15, 38, 0
34, 20400, Note_on_c, 15, 36, 80
34, 20504, Note_on_c, 15, 36, 0
34, 20520, Note_on_c, 15, 34, 80
34, 20639, Note_on_c, 15, 34, 0
34, 21120, Note_on_c, 15, 37, 32
34, 21599, Note_on_c, 15, 37, 0
34, 21600, Note_on_c, 15, 37, 32
34, 22079, Note_on_c, 15, 37, 0
34, 22080, Note_on_c, 15, 37, 32
34, 22559, Note_on_c, 15, 37, 0
34, 22560, Note_on_c, 15, 37, 32
34, 23039, Note_on_c, 15, 37, 0
34, 23040, Note_on_c, 15, 37, 32
34, 23519, Note_on_c, 15, 37, 0
34, 23520, Note_on_c, 15, 37, 32
34, 23999, Note_on_c, 15, 37, 0
34, 24000, Note_on_c, 15, 37, 32
34, 24479, Note_on_c, 15, 37, 0
34, 24480, Note_on_c, 15, 37, 32
34, 24944, Note_on_c, 15, 37, 0
34, 24960, Note_on_c, 15, 42, 80
34, 25064, Note_on_c, 15, 42, 0
34, 25080, Note_on_c, 15, 42, 80
34, 25184, Note_on_c, 15, 42, 0
34, 25200, Note_on_c, 15, 51, 92
34, 26024, Note_on_c, 15, 51, 0
34, 26040, Note_on_c, 15, 51, 92
34, 26144, Note_on_c, 15, 51, 0
34, 26160, Note_on_c, 15, 51, 92
34, 26264, Note_on_c, 15, 51, 0
34, 26280, Note_on_c, 15, 48, 92
34, 26384, Note_on_c, 15, 48, 0
34, 26400, Note_on_c, 15, 46, 92
34, 26504, Note_on_c, 15, 46, 0
34, 26520, Note_on_c, 15, 45, 92
34, 26624, Note_on_c, 15, 45, 0
34, 26640, Note_on_c, 15, 48, 92
34, 26744, Note_on_c, 15, 48, 0
34, 26760, Note_on_c, 15, 42, 92
34, 26864, Note_on_c, 15, 42, 0
34, 26880, Note_on_c, 15, 43, 92
34, 26984, Note_on_c, 15, 43, 0
34, 27000, Note_on_c, 15, 45, 92
34, 27104, Note_on_c, 15, 45, 0
34, 27120, Note_on_c, 15, 45, 92
34, 27224, Note_on_c, 15, 45, 0
34, 27240, Note_on_c, 15, 36, 92
34, 27344, Note_on_c, 15, 36, 0
34, 27360, Note_on_c, 15, 38, 92
34, 27464, Note_on_c, 15, 38, 0
34, 27480, Note_on_c, 15, 39, 92
34, 27704, Note_on_c, 15, 39, 0
34, 27720, Note_on_c, 15, 38, 92
34, 27824, Note_on_c, 15, 38, 0
34, 27840, Note_on_c, 15, 38, 92
34, 28184, Note_on_c, 15, 38, 0
34, 28200, Note_on_c, 15, 36, 92
34, 28304, Note_on_c, 15, 36, 0
34, 28320, Note_on_c, 15, 36, 92
34, 28424, Note_on_c, 15, 36, 0
34, 28440, Note_on_c, 15, 35, 92
34, 28544, Note_on_c, 15, 35, 0
34, 28560, Note_on_c, 15, 35, 92
34, 28664, Note_on_c, 15, 35, 0
34, 28680, Note_on_c, 15, 41, 92
34, 28784, Note_on_c, 15, 41, 0
34, 28800, Note_on_c, 15, 41, 92
34, 28904, Note_on_c, 15, 41, 0
34, 28920, Note_on_c, 15, 40, 92
34, 29144, Note_on_c, 15, 40, 0
34, 29160, Note_on_c, 15, 38, 92
34, 29264, Note_on_c, 15, 38, 0
34, 29280, Note_on_c, 15, 38, 92
34, 29384, Note_on_c, 15, 38, 0
34, 29400, Note_on_c, 15, 47, 92
34, 29504, Note_on_c, 15, 47, 0
34, 29520, Note_on_c, 15, 47, 92
34, 29624, Note_on_c, 15, 47, 0
34, 29640, Note_on_c, 15, 47, 92
34, 29744, Note_on_c, 15, 47, 0
34, 29760, Note_on_c, 15, 47, 92
34, 29864, Note_on_c, 15, 47, 0
34, 29880, Note_on_c, 15, 48, 92
34, 29984, Note_on_c, 15, 48, 0
34, 30000, Note_on_c, 15, 50, 92
34, 30719, Note_on_c, 15, 50, 0
34, 30720, Note_on_c, 15, 48, 92
34, 31199, Note_on_c, 15, 48, 0
34, 31200, Note_on_c, 15, 47, 92
34, 31424, Note_on_c, 15, 47, 0
34, 31440, Note_on_c, 15, 50, 92
34, 31679, Note_on_c, 15, 50, 0
34, 31680, Note_on_c, 15, 48, 92
34, 31919, Note_on_c, 15, 48, 0
34, 38160, Note_on_c, 15, 53, 80
34, 38399, Note_on_c, 15, 53, 0
34, 38400, Note_on_c, 15, 48, 80
34, 38639, Note_on_c, 15, 48, 0
34, 39120, Note_on_c, 15, 48, 80
34, 39359, Note_on_c, 15, 48, 0
34, 39360, Note_on_c, 15, 46, 80
34, 39464, Note_on_c, 15, 46, 0
34, 39480, Note_on_c, 15, 48, 80
34, 39584, Note_on_c, 15, 48, 0
34, 39600, Note_on_c, 15, 46, 80
34, 39719, Note_on_c, 15, 46, 0
34, 39720, Note_on_c, 15, 45, 80
34, 39824, Note_on_c, 15, 45, 0
34, 39840, Note_on_c, 15, 45, 80
34, 40064, Note_on_c, 15, 45, 0
34, 40080, Note_on_c, 15, 41, 80
34, 40664, Note_on_c, 15, 41, 0
34, 40680, Note_on_c, 15, 41, 80
34, 40784, Note_on_c, 15, 41, 0
34, 40800, Note_on_c, 15, 41, 80
34, 40904, Note_on_c, 15, 41, 0
34, 40920, Note_on_c, 15, 43, 80
34, 41024, Note_on_c, 15, 43, 0
34, 41040, Note_on_c, 15, 46, 80
34, 41144, Note_on_c, 15, 46, 0
34, 41160, Note_on_c, 15, 45, 80
34, 41279, Note_on_c, 15, 45, 0
34, 41400, Note_on_c, 15, 45, 80
34, 41504, Note_on_c, 15, 45, 0
34, 41520, Note_on_c, 15, 45, 80
34, 41624, Note_on_c, 15, 45, 0
34, 41640, Note_on_c, 15, 46, 80
34, 41744, Note_on_c, 15, 46, 0
34, 41760, Note_on_c, 15, 50, 80
34, 41864, Note_on_c, 15, 50, 0
34, 41880, Note_on_c, 15, 48, 80
34, 41984, Note_on_c, 15, 48, 0
34, 42000, Note_on_c, 15, 48, 80
34, 42104, Note_on_c, 15, 48, 0
34, 42120, Note_on_c, 15, 48, 71
34, 42224, Note_on_c, 15, 48, 0
34, 42240, Note_on_c, 15, 48, 62
34, 42344, Note_on_c, 15, 48, 0
34, 42360, Note_on_c, 15, 50, 53
34, 42464, Note_on_c, 15, 50, 0
34, 42480, Note_on_c, 15, 51, 44
34, 42719, Note_on_c, 15, 51, 0
34, 45120, Note_on_c, 15, 46, 44
34, 46319, Note_on_c, 15, 46, 0
34, 46320, Note_on_c, 15, 47, 44
34, 46544, Note_on_c, 15, 47, 0
34, 46560, Note_on_c, 15, 47, 44
34, 47039, Note_on_c, 15, 47, 0
34, 47040, Note_on_c, 15, 44, 44
34, 47279, Note_on_c, 15, 44, 0
34, 47280, Note_on_c, 15, 42, 44
34, 47759, Note_on_c, 15, 42, 0
34, 47760, Note_on_c, 15, 41, 44
34, 47999, Note_on_c, 15, 41, 0
34, 48480, Note_on_c, 15, 41, 44
34, 48719, Note_on_c, 15, 41, 0
34, 48720, Note_on_c, 15, 44, 44
34, 49199, Note_on_c, 15, 44, 0
34, 49200, Note_on_c, 15, 49, 44
34, 49424, Note_on_c, 15, 49, 0
34, 49440, Note_on_c, 15, 49, 44
34, 49664, Note_on_c, 15, 49, 0
34, 49680, Note_on_c, 15, 42, 49
34, 50024, Note_on_c, 15, 42, 0
34, 50040, Note_on_c, 15, 45, 57
34, 50144, Note_on_c, 15, 45, 0
34, 50160, Note_on_c, 15, 45, 60
34, 50384, Note_on_c, 15, 45, 0
34, 50400, Note_on_c, 15, 36, 65
34, 50489, Note_on_c, 15, 36, 0
34, 50520, Note_on_c, 15, 51, 68
34, 50609, Note_on_c, 15, 51, 0
34, 50640, Note_on_c, 15, 51, 70
34, 50729, Note_on_c, 15, 51, 0
34, 50760, Note_on_c, 15, 49, 73
34, 50849, Note_on_c, 15, 49, 0
34, 50880, Note_on_c, 15, 49, 76
34, 50969, Note_on_c, 15, 49, 0
34, 51000, Note_on_c, 15, 48, 78
34, 51089, Note_on_c, 15, 48, 0
34, 51120, Note_on_c, 15, 48, 81
34, 51209, Note_on_c, 15, 48, 0
34, 51240, Note_on_c, 15, 51, 84
34, 51329, Note_on_c, 15, 51, 0
34, 51360, Note_on_c, 15, 51, 86
34, 51449, Note_on_c, 15, 51, 0
34, 51480, Note_on_c, 15, 52, 89
34, 51569, Note_on_c, 15, 52, 0
34, 51600, Note_on_c, 15, 54, 92
34, 51944, Note_on_c, 15, 54, 0
34, 51960, Note_on_c, 15, 51, 92
34, 52049, Note_on_c, 15, 51, 0
34, 52080, Note_on_c, 15, 48, 92
34, 52169, Note_on_c, 15, 48, 0
34, 52200, Note_on_c, 15, 49, 92
34, 52289, Note_on_c, 15, 49, 0
34, 52320, Note_on_c, 15, 49, 92
34, 52544, Note_on_c, 15, 49, 0
34, 52560, Note_on_c, 15, 44, 92
34, 52799, Note_on_c, 15, 44, 0
34, 57120, Note_on_c, 15, 45, 80
34, 57344, Note_on_c, 15, 45, 0
34, 57600, Note_on_c, 15, 52, 80
34, 57839, Note_on_c, 15, 52, 0
34, 58080, Note_on_c, 15, 50, 80
34, 58184, Note_on_c, 15, 50, 0
34, 58200, Note_on_c, 15, 52, 80
34, 58304, Note_on_c, 15, 52, 0
34, 58320, Note_on_c, 15, 50, 80
34, 58424, Note_on_c, 15, 50, 0
34, 58440, Note_on_c, 15, 49, 80
34, 58559, Note_on_c, 15, 49, 0
34, 58920, Note_on_c, 15, 52, 80
34, 59024, Note_on_c, 15, 52, 0
34, 59040, Note_on_c, 15, 52, 80
34, 59264, Note_on_c, 15, 52, 0
34, 59280, Note_on_c, 15, 43, 80
34, 59624, Note_on_c, 15, 43, 0
34, 59640, Note_on_c, 15, 45, 80
34, 59744, Note_on_c, 15, 45, 0
34, 59760, Note_on_c, 15, 43, 80
34, 59984, Note_on_c, 15, 43, 0
34, 60000, Note_on_c, 15, 42, 80
34, 60224, Note_on_c, 15, 42, 0
34, 60240, Note_on_c, 15, 45, 80
34, 60419, Note_on_c, 15, 45, 0
34, 60420, Note_on_c, 15, 50, 80
34, 60471, Note_on_c, 15, 50, 0
34, 60480, Note_on_c, 15, 50, 80
34, 60824, Note_on_c, 15, 50, 0
34, 60840, Note_on_c, 15, 52, 80
34, 60959, Note_on_c, 15, 52, 0
34, 60960, Note_on_c, 15, 54, 80
34, 61079, Note_on_c, 15, 54, 0
34, 61080, Note_on_c, 15, 52, 80
34, 61184, Note_on_c, 15, 52, 0
34, 61200, Note_on_c, 15, 52, 80
34, 61319, Note_on_c, 15, 52, 0
34, 61320, Note_on_c, 15, 50, 80
34, 61424, Note_on_c, 15, 50, 0
34, 61440, Note_on_c, 15, 50, 80
34, 61559, Note_on_c, 15, 50, 0
34, 61560, Note_on_c, 15, 49, 80
34, 61679, Note_on_c, 15, 49, 0
34, 61680, Note_on_c, 15, 50, 80
34, 61799, Note_on_c, 15, 50, 0
34, 61800, Note_on_c, 15, 45, 80
34, 61919, Note_on_c, 15, 45, 0
34, 61920, Note_on_c, 15, 43, 80
34, 62039, Note_on_c, 15, 43, 0
34, 62040, Note_on_c, 15, 42, 80
34, 62144, Note_on_c, 15, 42, 0
34, 62160, Note_on_c, 15, 42, 80
34, 62279, Note_on_c, 15, 42, 0
34, 62280, Note_on_c, 15, 40, 80
34, 62399, Note_on_c, 15, 40, 0
34, 62400, Note_on_c, 15, 38, 80
34, 62519, Note_on_c, 15, 38, 0
34, 62520, Note_on_c, 15, 36, 80
34, 62624, Note_on_c, 15, 36, 0
34, 62640, Note_on_c, 15, 36, 80
34, 62759, Note_on_c, 15, 36, 0
34, 62760, Note_on_c, 15, 35, 80
34, 62864, Note_on_c, 15, 35, 0
34, 62880, Note_on_c, 15, 43, 92
34, 62939, Note_on_c, 15, 43, 0
34, 62940, Note_on_c, 15, 43, 80
34, 63704, Note_on_c, 15, 43, 0
34, 63720, Note_on_c, 15, 40, 80
34, 63824, Note_on_c, 15, 40, 0
34, 63840, Note_on_c, 15, 37, 80
34, 63944, Note_on_c, 15, 37, 0
34, 63960, Note_on_c, 15, 38, 80
34, 64064, Note_on_c, 15, 38, 0
34, 64080, Note_on_c, 15, 38, 80
34, 64304, Note_on_c, 15, 38, 0
34, 64320, Note_on_c, 15, 33, 80
34, 64559, Note_on_c, 15, 33, 0
34, 65520, Note_on_c, 15, 42, 44
34, 65999, Note_on_c, 15, 42, 0
34, 66000, Note_on_c, 15, 43, 44
34, 66239, Note_on_c, 15, 43, 0
34, 66240, Note_on_c, 15, 45, 44
34, 66464, Note_on_c, 15, 45, 0
34, 66480, Note_on_c, 15, 45, 44
34, 66719, Note_on_c, 15, 45, 0
34, 66720, Note_on_c, 15, 43, 44
34, 66959, Note_on_c, 15, 43, 0
34, 66960, Note_on_c, 15, 42, 44
34, 67199, Note_on_c, 15, 42, 0
34, 67200, Note_on_c, 15, 40, 44
34, 67424, Note_on_c, 15, 40, 0
34, 67440, Note_on_c, 15, 38, 44
34, 67919, Note_on_c, 15, 38, 0
34, 67920, Note_on_c, 15, 40, 44
34, 68159, Note_on_c, 15, 40, 0
34, 68160, Note_on_c, 15, 42, 44
34, 68384, Note_on_c, 15, 42, 0
34, 68400, Note_on_c, 15, 42, 44
34, 68759, Note_on_c, 15, 42, 0
34, 68760, Note_on_c, 15, 40, 44
34, 68864, Note_on_c, 15, 40, 0
34, 68880, Note_on_c, 15, 40, 44
34, 69344, Note_on_c, 15, 40, 0
34, 69360, Note_on_c, 15, 42, 44
34, 69839, Note_on_c, 15, 42, 0
34, 69840, Note_on_c, 15, 43, 44
34, 70079, Note_on_c, 15, 43, 0
34, 70080, Note_on_c, 15, 45, 44
34, 70304, Note_on_c, 15, 45, 0
34, 70320, Note_on_c, 15, 45, 44
34, 70559, Note_on_c, 15, 45, 0
34, 70560, Note_on_c, 15, 43, 44
34, 70799, Note_on_c, 15, 43, 0
34, 70800, Note_on_c, 15, 42, 44
34, 71039, Note_on_c, 15, 42, 0
34, 71040, Note_on_c, 15, 40, 44
34, 71264, Note_on_c, 15, 40, 0
34, 71280, Note_on_c, 15, 38, 44
34, 71759, Note_on_c, 15, 38, 0
34, 71760, Note_on_c, 15, 40, 44
34, 71999, Note_on_c, 15, 40, 0
34, 72000, Note_on_c, 15, 42, 44
34, 72224, Note_on_c, 15, 42, 0
34, 72240, Note_on_c, 15, 40, 44
34, 72599, Note_on_c, 15, 40, 0
34, 72600, Note_on_c, 15, 38, 44
34, 72704, Note_on_c, 15, 38, 0
34, 72720, Note_on_c, 15, 38, 44
34, 73184, Note_on_c, 15, 38, 0
34, 73200, Note_on_c, 15, 40, 44
34, 73679, Note_on_c, 15, 40, 0
34, 73680, Note_on_c, 15, 42, 44
34, 73919, Note_on_c, 15, 42, 0
34, 73920, Note_on_c, 15, 38, 44
34, 74144, Note_on_c, 15, 38, 0
34, 74160, Note_on_c, 15, 40, 44
34, 74399, Note_on_c, 15, 40, 0
34, 74400, Note_on_c, 15, 42, 44
34, 74519, Note_on_c, 15, 42, 0
34, 74520, Note_on_c, 15, 43, 44
34, 74639, Note_on_c, 15, 43, 0
34, 74640, Note_on_c, 15, 42, 44
34, 74879, Note_on_c, 15, 42, 0
34, 74880, Note_on_c, 15, 38, 44
34, 75104, Note_on_c, 15, 38, 0
34, 75120, Note_on_c, 15, 40, 44
34, 75359, Note_on_c, 15, 40, 0
34, 75360, Note_on_c, 15, 42, 44
34, 75479, Note_on_c, 15, 42, 0
34, 75480, Note_on_c, 15, 43, 44
34, 75599, Note_on_c, 15, 43, 0
34, 75600, Note_on_c, 15, 42, 44
34, 75839, Note_on_c, 15, 42, 0
34, 75840, Note_on_c, 15, 40, 44
34, 76064, Note_on_c, 15, 40, 0
34, 76080, Note_on_c, 15, 38, 68
34, 76319, Note_on_c, 15, 38, 0
34, 76320, Note_on_c, 15, 40, 68
34, 76559, Note_on_c, 15, 40, 0
34, 76560, Note_on_c, 15, 33, 68
34, 76784, Note_on_c, 15, 33, 0
34, 76800, Note_on_c, 15, 42, 68
34, 77264, Note_on_c, 15, 42, 0
34, 77280, Note_on_c, 15, 42, 68
34, 77519, Note_on_c, 15, 42, 0
34, 77520, Note_on_c, 15, 43, 68
34, 77759, Note_on_c, 15, 43, 0
34, 77760, Note_on_c, 15, 45, 68
34, 77984, Note_on_c, 15, 45, 0
34, 78000, Note_on_c, 15, 45, 68
34, 78239, Note_on_c, 15, 45, 0
34, 78240, Note_on_c, 15, 43, 68
34, 78479, Note_on_c, 15, 43, 0
34, 78480, Note_on_c, 15, 42, 68
34, 78719, Note_on_c, 15, 42, 0
34, 78720, Note_on_c, 15, 40, 68
34, 78944, Note_on_c, 15, 40, 0
34, 78960, Note_on_c, 15, 38, 68
34, 79439, Note_on_c, 15, 38, 0
34, 79440, Note_on_c, 15, 40, 68
34, 79679, Note_on_c, 15, 40, 0
34, 79680, Note_on_c, 15, 42, 68
34, 79904, Note_on_c, 15, 42, 0
34, 79920, Note_on_c, 15, 40, 68
34, 80279, Note_on_c, 15, 40, 0
34, 80280, Note_on_c, 15, 38, 68
34, 80384, Note_on_c, 15, 38, 0
34, 80400, Note_on_c, 15, 38, 68
34, 80864, Note_on_c, 15, 38, 0
34, 80880, Note_on_c, 15, 40, 68
34, 81359, Note_on_c, 15, 40, 0
34, 81360, Note_on_c, 15, 42, 68
34, 81599, Note_on_c, 15, 42, 0
34, 81600, Note_on_c, 15, 38, 68
34, 81824, Note_on_c, 15, 38, 0
34, 81840, Note_on_c, 15, 40, 68
34, 82079, Note_on_c, 15, 40, 0
34, 82080, Note_on_c, 15, 42, 68
34, 82199, Note_on_c, 15, 42, 0
34, 82200, Note_on_c, 15, 43, 68
34, 82319, Note_on_c, 15, 43, 0
34, 82320, Note_on_c, 15, 42, 68
34, 82559, Note_on_c, 15, 42, 0
34, 82560, Note_on_c, 15, 38, 68
34, 82784, Note_on_c, 15, 38, 0
34, 82800, Note_on_c, 15, 40, 68
34, 83039, Note_on_c, 15, 40, 0
34, 83040, Note_on_c, 15, 42, 68
34, 83159, Note_on_c, 15, 42, 0
34, 83160, Note_on_c, 15, 43, 68
34, 83279, Note_on_c, 15, 43, 0
34, 83280, Note_on_c, 15, 42, 68
34, 83519, Note_on_c, 15, 42, 0
34, 83520, Note_on_c, 15, 40, 68
34, 83744, Note_on_c, 15, 40, 0
34, 83760, Note_on_c, 15, 38, 68
34, 83999, Note_on_c, 15, 38, 0
34, 84000, Note_on_c, 15, 40, 68
34, 84239, Note_on_c, 15, 40, 0
34, 84240, Note_on_c, 15, 33, 68
34, 84464, Note_on_c, 15, 33, 0
34, 84480, Note_on_c, 15, 42, 68
34, 84944, Note_on_c, 15, 42, 0
34, 84960, Note_on_c, 15, 42, 68
34, 85199, Note_on_c, 15, 42, 0
34, 85200, Note_on_c, 15, 43, 68
34, 85439, Note_on_c, 15, 43, 0
34, 85440, Note_on_c, 15, 45, 68
34, 85664, Note_on_c, 15, 45, 0
34, 85680, Note_on_c, 15, 45, 68
34, 85919, Note_on_c, 15, 45, 0
34, 85920, Note_on_c, 15, 43, 68
34, 86159, Note_on_c, 15, 43, 0
34, 86160, Note_on_c, 15, 42, 68
34, 86399, Note_on_c, 15, 42, 0
34, 86400, Note_on_c, 15, 40, 68
34, 86624, Note_on_c, 15, 40, 0
34, 86640, Note_on_c, 15, 38, 68
34, 87119, Note_on_c, 15, 38, 0
34, 87120, Note_on_c, 15, 40, 68
34, 87359, Note_on_c, 15, 40, 0
34, 87360, Note_on_c, 15, 42, 68
34, 87584, Note_on_c, 15, 42, 0
34, 87600, Note_on_c, 15, 40, 68
34, 87959, Note_on_c, 15, 40, 0
34, 87960, Note_on_c, 15, 38, 68
34, 88064, Note_on_c, 15, 38, 0
34, 88080, Note_on_c, 15, 38, 68
34, 88304, Note_on_c, 15, 38, 0
34, 88320, Note_on_c, 15, 45, 68
34, 89039, Note_on_c, 15, 45, 0
34, 89040, Note_on_c, 15, 38, 68
34, 89504, Note_on_c, 15, 38, 0
34, 89520, Note_on_c, 15, 35, 68
34, 89879, Note_on_c, 15, 35, 0
34, 89880, Note_on_c, 15, 37, 68
34, 89999, Note_on_c, 15, 37, 0
34, 90000, Note_on_c, 15, 38, 68
34, 90224, Note_on_c, 15, 38, 0
34, 90240, Note_on_c, 15, 43, 68
34, 90719, Note_on_c, 15, 43, 0
34, 90720, Note_on_c, 15, 42, 68
34, 90959, Note_on_c, 15, 42, 0
34, 90960, Note_on_c, 15, 40, 68
34, 91199, Note_on_c, 15, 40, 0
34, 91200, Note_on_c, 15, 38, 68
34, 91679, Note_on_c, 15, 38, 0
34, 91680, Note_on_c, 15, 37, 68
34, 91919, Note_on_c, 15, 37, 0
34, 91920, Note_on_c, 15, 35, 68
34, 92159, Note_on_c, 15, 35, 0
34, 92160, Note_on_c, 15, 33, 68
34, 92384, Note_on_c, 15, 33, 0
34, 92400, Note_on_c, 15, 45, 68
34, 92879, Note_on_c, 15, 45, 0
34, 92880, Note_on_c, 15, 38, 68
34, 93344, Note_on_c, 15, 38, 0
34, 93360, Note_on_c, 15, 35, 68
34, 93719, Note_on_c, 15, 35, 0
34, 93720, Note_on_c, 15, 37, 68
34, 93839, Note_on_c, 15, 37, 0
34, 93840, Note_on_c, 15, 38, 68
34, 94064, Note_on_c, 15, 38, 0
34, 94080, Note_on_c, 15, 43, 68
34, 94544, Note_on_c, 15, 43, 0
34, 94560, Note_on_c, 15, 42, 68
34, 94679, Note_on_c, 15, 42, 0
34, 94680, Note_on_c, 15, 40, 68
34, 94799, Note_on_c, 15, 40, 0
34, 94800, Note_on_c, 15, 38, 68
34, 94919, Note_on_c, 15, 38, 0
34, 94920, Note_on_c, 15, 37, 68
34, 95039, Note_on_c, 15, 37, 0
34, 95040, Note_on_c, 15, 35, 68
34, 95159, Note_on_c, 15, 35, 0
34, 95160, Note_on_c, 15, 33, 68
34, 95264, Note_on_c, 15, 33, 0
34, 95280, Note_on_c, 15, 31, 68
34, 95519, Note_on_c, 15, 31, 0
34, 95520, Note_on_c, 15, 33, 68
34, 95759, Note_on_c, 15, 33, 0
34, 95760, Note_on_c, 15, 30, 68
34, 95984, Note_on_c, 15, 30, 0
34, 96000, Note_on_c, 15, 42, 68
34, 96239, Note_on_c, 15, 42, 0
34, 96240, Note_on_c, 15, 43, 68
34, 96719, Note_on_c, 15, 43, 0
34, 96720, Note_on_c, 15, 45, 68
34, 96959, Note_on_c, 15, 45, 0
34, 96960, Note_on_c, 15, 47, 68
34, 97184, Note_on_c, 15, 47, 0
34, 97200, Note_on_c, 15, 37, 68
34, 97679, Note_on_c, 15, 37, 0
34, 97680, Note_on_c, 15, 38, 68
34, 97919, Note_on_c, 15, 38, 0
34, 97920, Note_on_c, 15, 40, 68
34, 98039, Note_on_c, 15, 40, 0
34, 98040, Note_on_c, 15, 42, 68
34, 98144, Note_on_c, 15, 42, 0
34, 98160, Note_on_c, 15, 43, 68
34, 98639, Note_on_c, 15, 43, 0
34, 98640, Note_on_c, 15, 45, 68
34, 98879, Note_on_c, 15, 45, 0
34, 98880, Note_on_c, 15, 46, 68
34, 99104, Note_on_c, 15, 46, 0
34, 99120, Note_on_c, 15, 47, 68
34, 99344, Note_on_c, 15, 47, 0
34, 99360, Note_on_c, 15, 49, 68
34, 99824, Note_on_c, 15, 49, 0
34, 99840, Note_on_c, 15, 50, 68
34, 100079, Note_on_c, 15, 50, 0
34, 100080, Note_on_c, 15, 45, 68
34, 100559, Note_on_c, 15, 45, 0
34, 100560, Note_on_c, 15, 36, 68
34, 101024, Note_on_c, 15, 36, 0
34, 101040, Note_on_c, 15, 35, 68
34, 101399, Note_on_c, 15, 35, 0
34, 101400, Note_on_c, 15, 37, 68
34, 101519, Note_on_c, 15, 37, 0
34, 101520, Note_on_c, 15, 38, 68
34, 101744, Note_on_c, 15, 38, 0
34, 101760, Note_on_c, 15, 43, 68
34, 102224, Note_on_c, 15, 43, 0
34, 102240, Note_on_c, 15, 42, 68
34, 102359, Note_on_c, 15, 42, 0
34, 102360, Note_on_c, 15, 40, 68
34, 102479, Note_on_c, 15, 40, 0
34, 102480, Note_on_c, 15, 38, 68
34, 102599, Note_on_c, 15, 38, 0
34, 102600, Note_on_c, 15, 37, 68
34, 102719, Note_on_c, 15, 37, 0
34, 102720, Note_on_c, 15, 35, 68
34, 102839, Note_on_c, 15, 35, 0
34, 102840, Note_on_c, 15, 33, 68
34, 102944, Note_on_c, 15, 33, 0
34, 102960, Note_on_c, 15, 31, 68
34, 103199, Note_on_c, 15, 31, 0
34, 103200, Note_on_c, 15, 33, 68
34, 103439, Note_on_c, 15, 33, 0
34, 103440, Note_on_c, 15, 30, 68
34, 103664, Note_on_c, 15, 30, 0
34, 103680, Note_on_c, 15, 42, 68
34, 103904, Note_on_c, 15, 42, 0
34, 103920, Note_on_c, 15, 43, 68
34, 104399, Note_on_c, 15, 43, 0
34, 104400, Note_on_c, 15, 45, 68
34, 104639, Note_on_c, 15, 45, 0
34, 104640, Note_on_c, 15, 47, 68
34, 104864, Note_on_c, 15, 47, 0
34, 104880, Note_on_c, 15, 37, 68
34, 105359, Note_on_c, 15, 37, 0
34, 105360, Note_on_c, 15, 38, 68
34, 105599, Note_on_c, 15, 38, 0
34, 105600, Note_on_c, 15, 40, 68
34, 105719, Note_on_c, 15, 40, 0
34, 105720, Note_on_c, 15, 42, 68
34, 105824, Note_on_c, 15, 42, 0
34, 105840, Note_on_c, 15, 43, 68
34, 106319, Note_on_c, 15, 43, 0
34, 106320, Note_on_c, 15, 45, 68
34, 106559, Note_on_c, 15, 45, 0
34, 106560, Note_on_c, 15, 46, 68
34, 106784, Note_on_c, 15, 46, 0
34, 106800, Note_on_c, 15, 47, 68
34, 107264, Note_on_c, 15, 47, 0
34, 107280, Note_on_c, 15, 49, 68
34, 107504, Note_on_c, 15, 49, 0
34, 107520, Note_on_c, 15, 50, 68
34, 107759, Note_on_c, 15, 50, 0
34, 107760, Note_on_c, 15, 45, 68
34, 108239, Note_on_c, 15, 45, 0
34, 108240, Note_on_c, 15, 36, 68
34, 108704, Note_on_c, 15, 36, 0
34, 108720, Note_on_c, 15, 35, 68
34, 109079, Note_on_c, 15, 35, 0
34, 109080, Note_on_c, 15, 37, 68
34, 109199, Note_on_c, 15, 37, 0
34, 109200, Note_on_c, 15, 38, 68
34, 109424, Note_on_c, 15, 38, 0
34, 109440, Note_on_c, 15, 43, 68
34, 109904, Note_on_c, 15, 43, 0
34, 109920, Note_on_c, 15, 42, 68
34, 110039, Note_on_c, 15, 42, 0
34, 110040, Note_on_c, 15, 40, 68
34, 110159, Note_on_c, 15, 40, 0
34, 110160, Note_on_c, 15, 38, 68
34, 110279, Note_on_c, 15, 38, 0
34, 110280, Note_on_c, 15, 37, 68
34, 110399, Note_on_c, 15, 37, 0
34, 110400, Note_on_c, 15, 35, 68
34, 110519, Note_on_c, 15, 35, 0
34, 110520, Note_on_c, 15, 33, 68
34, 110624, Note_on_c, 15, 33, 0
34, 110640, Note_on_c, 15, 31, 68
34, 110879, Note_on_c, 15, 31, 0
34, 110880, Note_on_c, 15, 33, 68
34, 111104, Note_on_c, 15, 33, 0
34, 111120, Note_on_c, 15, 30, 68
34, 111224, Note_on_c, 15, 30, 0
34, 111240, Note_on_c, 15, 43, 68
34, 111359, Note_on_c, 15, 43, 0
34, 111360, Note_on_c, 15, 42, 68
34, 111479, Note_on_c, 15, 42, 0
34, 111480, Note_on_c, 15, 40, 68
34, 111584, Note_on_c, 15, 40, 0
34, 111600, Note_on_c, 15, 38, 68
34, 112559, Note_on_c, 15, 38, 0
34, 112560, Note_on_c, 15, 38, 68
34, 113744, Note_on_c, 15, 38, 0
34, 113760, Note_on_c, 15, 38, 68
34, 113999, Note_on_c, 15, 38, 0
34, 114000, Note_on_c, 15, 37, 68
34, 114239, Note_on_c, 15, 37, 0
34, 114240, Note_on_c, 15, 35, 68
34, 114464, Note_on_c, 15, 35, 0
34, 114480, Note_on_c, 15, 33, 68
34, 115064, Note_on_c, 15, 33, 0
34, 115080, Note_on_c, 15, 43, 68
34, 115199, Note_on_c, 15, 43, 0
34, 115200, Note_on_c, 15, 42, 68
34, 115319, Note_on_c, 15, 42, 0
34, 115320, Note_on_c, 15, 40, 68
34, 115424, Note_on_c, 15, 40, 0
34, 115440, Note_on_c, 15, 38, 68
34, 116399, Note_on_c, 15, 38, 0
34, 116400, Note_on_c, 15, 38, 68
34, 117464, Note_on_c, 15, 38, 0
34, 117480, Note_on_c, 15, 52, 68
34, 117599, Note_on_c, 15, 52, 0
34, 117600, Note_on_c, 15, 50, 68
34, 117719, Note_on_c, 15, 50, 0
34, 117720, Note_on_c, 15, 49, 68
34, 117839, Note_on_c, 15, 49, 0
34, 117840, Note_on_c, 15, 47, 68
34, 117959, Note_on_c, 15, 47, 0
34, 117960, Note_on_c, 15, 45, 68
34, 118079, Note_on_c, 15, 45, 0
34, 118080, Note_on_c, 15, 43, 68
34, 118199, Note_on_c, 15, 43, 0
34, 118200, Note_on_c, 15, 42, 68
34, 118304, Note_on_c, 15, 42, 0
34, 118320, Note_on_c, 15, 45, 68
34, 118559, Note_on_c, 15, 45, 0
34, 118560, Note_on_c, 15, 33, 68
34, 118799, Note_on_c, 15, 33, 0
34, 118800, Note_on_c, 15, 38, 68
34, 119024, Note_on_c, 15, 38, 0
34, 119040, Note_on_c, 15, 45, 68
34, 120239, Note_on_c, 15, 45, 0
34, 120240, Note_on_c, 15, 45, 68
34, 121199, Note_on_c, 15, 45, 0
34, 121200, Note_on_c, 15, 45, 68
34, 121904, Note_on_c, 15, 45, 0
34, 121920, Note_on_c, 15, 42, 68
34, 122159, Note_on_c, 15, 42, 0
34, 122160, Note_on_c, 15, 47, 68
34, 122399, Note_on_c, 15, 47, 0
34, 122400, Note_on_c, 15, 43, 68
34, 122879, Note_on_c, 15, 43, 0
34, 122880, Note_on_c, 15, 42, 68
34, 122999, Note_on_c, 15, 42, 0
34, 123000, Note_on_c, 15, 40, 68
34, 123104, Note_on_c, 15, 40, 0
34, 123120, Note_on_c, 15, 38, 80
34, 124079, Note_on_c, 15, 38, 0
34, 124080, Note_on_c, 15, 38, 80
34, 125264, Note_on_c, 15, 38, 0
34, 125280, Note_on_c, 15, 50, 80
34, 125399, Note_on_c, 15, 50, 0
34, 125400, Note_on_c, 15, 49, 80
34, 125519, Note_on_c, 15, 49, 0
34, 125520, Note_on_c, 15, 47, 80
34, 125639, Note_on_c, 15, 47, 0
34, 125640, Note_on_c, 15, 45, 80
34, 125759, Note_on_c, 15, 45, 0
34, 125760, Note_on_c, 15, 43, 80
34, 125879, Note_on_c, 15, 43, 0
34, 125880, Note_on_c, 15, 42, 80
34, 125984, Note_on_c, 15, 42, 0
34, 126000, Note_on_c, 15, 45, 80
34, 126239, Note_on_c, 15, 45, 0
34, 126240, Note_on_c, 15, 33, 80
34, 126479, Note_on_c, 15, 33, 0
34, 126480, Note_on_c, 15, 38, 80
34, 126704, Note_on_c, 15, 38, 0
34, 126720, Note_on_c, 15, 45, 80
34, 127919, Note_on_c, 15, 45, 0
34, 127920, Note_on_c, 15, 45, 80
34, 128879, Note_on_c, 15, 45, 0
34, 128880, Note_on_c, 15, 45, 80
34, 129584, Note_on_c, 15, 45, 0
34, 129600, Note_on_c, 15, 42, 80
34, 129839, Note_on_c, 15, 42, 0
34, 129840, Note_on_c, 15, 47, 80
34, 130079, Note_on_c, 15, 47, 0
34, 130080, Note_on_c, 15, 43, 80
34, 130559, Note_on_c, 15, 43, 0
34, 130560, Note_on_c, 15, 42, 80
34, 130679, Note_on_c, 15, 42, 0
34, 130680, Note_on_c, 15, 40, 80
34, 130784, Note_on_c, 15, 40, 0
34, 130800, Note_on_c, 15, 38, 80
34, 131759, Note_on_c, 15, 38, 0
34, 131760, Note_on_c, 15, 38, 80
34, 132944, Note_on_c, 15, 38, 0
34, 132960, Note_on_c, 15, 50, 80
34, 133079, Note_on_c, 15, 50, 0
34, 133080, Note_on_c, 15, 49, 80
34, 133199, Note_on_c, 15, 49, 0
34, 133200, Note_on_c, 15, 47, 80
34, 133319, Note_on_c, 15, 47, 0
34, 133320, Note_on_c, 15, 45, 80
34, 133439, Note_on_c, 15, 45, 0
34, 133440, Note_on_c, 15, 43, 80
34, 133559, Note_on_c, 15, 43, 0
34, 133560, Note_on_c, 15, 42, 80
34, 133664, Note_on_c, 15, 42, 0
34, 133680, Note_on_c, 15, 45, 80
34, 133919, Note_on_c, 15, 45, 0
34, 133920, Note_on_c, 15, 33, 80
34, 134159, Note_on_c, 15, 33, 0
34, 134160, Note_on_c, 15, 38, 80
34, 134279, Note_on_c, 15, 38, 0
34, 134280, Note_on_c, 15, 43, 80
34, 134399, Note_on_c, 15, 43, 0
34, 134400, Note_on_c, 15, 42, 80
34, 134519, Note_on_c, 15, 42, 0
34, 134520, Note_on_c, 15, 40, 80
34, 134624, Note_on_c, 15, 40, 0
34, 134640, Note_on_c, 15, 50, 80
34, 134879, Note_on_c, 15, 50, 0
34, 135000, Note_on_c, 15, 38, 80
34, 135104, Note_on_c, 15, 38, 0
34, 135120, Note_on_c, 15, 50, 80
34, 135359, Note_on_c, 15, 50, 0
34, 135480, Note_on_c, 15, 38, 80
34, 135584, Note_on_c, 15, 38, 0
34, 135600, Note_on_c, 15, 45, 80
34, 135839, Note_on_c, 15, 45, 0
34, 135960, Note_on_c, 15, 33, 80
34, 136064, Note_on_c, 15, 33, 0
34, 136080, Note_on_c, 15, 45, 80
34, 136319, Note_on_c, 15, 45, 0
34, 136440, Note_on_c, 15, 33, 80
34, 136544, Note_on_c, 15, 33, 0
34, 136560, Note_on_c, 15, 38, 80
34, 136799, Note_on_c, 15, 38, 0
34, 137280, Note_on_c, 15, 38, 80
34, 137504, Note_on_c, 15, 38, 0
34, 137520, Note_on_c, 15, 45, 80
34, 137759, Note_on_c, 15, 45, 0
34, 138000, Note_on_c, 15, 33, 80
34, 138239, Note_on_c, 15, 33, 0
34, 138480, Note_on_c, 15, 50, 80
34, 138719, Note_on_c, 15, 50, 0
34, 138840, Note_on_c, 15, 38, 80
34, 138944, Note_on_c, 15, 38, 0
34, 138960, Note_on_c, 15, 50, 80
34, 139199, Note_on_c, 15, 50, 0
34, 139320, Note_on_c, 15, 38, 80
34, 139424, Note_on_c, 15, 38, 0
34, 139440, Note_on_c, 15, 45, 80
34, 139679, Note_on_c, 15, 45, 0
34, 139800, Note_on_c, 15, 33, 80
34, 139904, Note_on_c, 15, 33, 0
34, 139920, Note_on_c, 15, 45, 80
34, 140159, Note_on_c, 15, 45, 0
34, 140280, Note_on_c, 15, 33, 80
34, 140384, Note_on_c, 15, 33, 0
34, 140400, Note_on_c, 15, 38, 80
34, 140639, Note_on_c, 15, 38, 0
34, 141120, Note_on_c, 15, 38, 80
34, 141344, Note_on_c, 15, 38, 0
34, 141360, Note_on_c, 15, 33, 80
34, 141599, Note_on_c, 15, 33, 0
34, 141840, Note_on_c, 15, 38, 80
34, 142079, Note_on_c, 15, 38, 0
34, 142320, Note_on_c, 15, 33, 80
34, 142559, Note_on_c, 15, 33, 0
34, 142680, Note_on_c, 15, 33, 80
34, 142784, Note_on_c, 15, 33, 0
34, 142800, Note_on_c, 15, 45, 80
34, 143024, Note_on_c, 15, 45, 0
34, 143040, Note_on_c, 15, 38, 80
34, 143264, Note_on_c, 15, 38, 0
34, 143280, Note_on_c, 15, 33, 80
34, 143519, Note_on_c, 15, 33, 0
34, 143640, Note_on_c, 15, 33, 80
34, 143744, Note_on_c, 15, 33, 0
34, 143760, Note_on_c, 15, 45, 80
34, 143984, Note_on_c, 15, 45, 0
34, 144000, Note_on_c, 15, 38, 80
34, 144224, Note_on_c, 15, 38, 0
34, 144240, Note_on_c, 15, 33, 80
34, 144479, Note_on_c, 15, 33, 0
34, 144600, Note_on_c, 15, 45, 80
34, 144704, Note_on_c, 15, 45, 0
34, 144720, Note_on_c, 15, 46, 80
34, 144839, Note_on_c, 15, 46, 0
34, 144960, Note_on_c, 15, 42, 80
34, 145079, Note_on_c, 15, 42, 0
34, 145200, Note_on_c, 15, 47, 80
34, 145319, Note_on_c, 15, 47, 0
34, 145440, Note_on_c, 15, 40, 80
34, 145559, Note_on_c, 15, 40, 0
34, 145680, Note_on_c, 15, 45, 80
34, 145799, Note_on_c, 15, 45, 0
34, 145920, Note_on_c, 15, 33, 80
34, 146039, Note_on_c, 15, 33, 0
34, 146160, Note_on_c, 15, 50, 80
34, 146399, Note_on_c, 15, 50, 0
34, 146520, Note_on_c, 15, 38, 80
34, 146624, Note_on_c, 15, 38, 0
34, 146640, Note_on_c, 15, 50, 80
34, 146879, Note_on_c, 15, 50, 0
34, 147000, Note_on_c, 15, 38, 80
34, 147104, Note_on_c, 15, 38, 0
34, 147120, Note_on_c, 15, 45, 80
34, 147359, Note_on_c, 15, 45, 0
34, 147480, Note_on_c, 15, 33, 80
34, 147584, Note_on_c, 15, 33, 0
34, 147600, Note_on_c, 15, 45, 80
34, 147839, Note_on_c, 15, 45, 0
34, 147960, Note_on_c, 15, 33, 80
34, 148064, Note_on_c, 15, 33, 0
34, 148080, Note_on_c, 15, 38, 80
34, 148319, Note_on_c, 15, 38, 0
34, 148800, Note_on_c, 15, 38, 80
34, 149024, Note_on_c, 15, 38, 0
34, 149040, Note_on_c, 15, 33, 80
34, 149279, Note_on_c, 15, 33, 0
34, 149520, Note_on_c, 15, 38, 80
34, 149759, Note_on_c, 15, 38, 0
34, 150000, Note_on_c, 15, 33, 80
34, 150239, Note_on_c, 15, 33, 0
34, 150360, Note_on_c, 15, 33, 80
34, 150464, Note_on_c, 15, 33, 0
34, 150480, Note_on_c, 15, 45, 80
34, 150704, Note_on_c, 15, 45, 0
34, 150720, Note_on_c, 15, 38, 80
34, 150944, Note_on_c, 15, 38, 0
34, 150960, Note_on_c, 15, 33, 80
34, 151199, Note_on_c, 15, 33, 0
34, 151320, Note_on_c, 15, 33, 80
34, 151424, Note_on_c, 15, 33, 0
34, 151440, Note_on_c, 15, 45, 80
34, 151664, Note_on_c, 15, 45, 0
34, 151680, Note_on_c, 15, 38, 80
34, 151904, Note_on_c, 15, 38, 0
34, 151920, Note_on_c, 15, 33, 80
34, 152159, Note_on_c, 15, 33, 0
34, 152280, Note_on_c, 15, 45, 80
34, 152384, Note_on_c, 15, 45, 0
34, 152400, Note_on_c, 15, 46, 80
34, 152519, Note_on_c, 15, 46, 0
34, 152640, Note_on_c, 15, 42, 80
34, 152759, Note_on_c, 15, 42, 0
34, 152880, Note_on_c, 15, 47, 80
34, 152999, Note_on_c, 15, 47, 0
34, 153120, Note_on_c, 15, 40, 80
34, 153239, Note_on_c, 15, 40, 0
34, 153360, Note_on_c, 15, 45, 80
34, 153479, Note_on_c, 15, 45, 0
34, 153600, Note_on_c, 15, 33, 80
34, 153719, Note_on_c, 15, 33, 0
34, 153840, Note_on_c, 15, 50, 80
34, 154079, Note_on_c, 15, 50, 0
34, 154200, Note_on_c, 15, 38, 80
34, 154304, Note_on_c, 15, 38, 0
34, 154320, Note_on_c, 15, 50, 80
34, 154559, Note_on_c, 15, 50, 0
34, 154680, Note_on_c, 15, 38, 80
34, 154784, Note_on_c, 15, 38, 0
34, 154800, Note_on_c, 15, 45, 80
34, 155039, Note_on_c, 15, 45, 0
34, 155160, Note_on_c, 15, 33, 80
34, 155264, Note_on_c, 15, 33, 0
34, 155280, Note_on_c, 15, 45, 80
34, 155519, Note_on_c, 15, 45, 0
34, 155640, Note_on_c, 15, 33, 80
34, 155744, Note_on_c, 15, 33, 0
34, 155760, Note_on_c, 15, 38, 80
34, 155999, Note_on_c, 15, 38, 0
34, 156480, Note_on_c, 15, 38, 80
34, 156704, Note_on_c, 15, 38, 0
34, 156720, Note_on_c, 15, 33, 80
34, 156959, Note_on_c, 15, 33, 0
34, 157200, Note_on_c, 15, 38, 80
34, 157439, Note_on_c, 15, 38, 0
34, 157560, Note_on_c, 15, 38, 80
34, 157664, Note_on_c, 15, 38, 0
34, 157680, Note_on_c, 15, 50, 80
34, 157919, Note_on_c, 15, 50, 0
34, 158040, Note_on_c, 15, 38, 80
34, 158144, Note_on_c, 15, 38, 0
34, 158160, Note_on_c, 15, 50, 80
34, 158399, Note_on_c, 15, 50, 0
34, 158520, Note_on_c, 15, 38, 80
34, 158624, Note_on_c, 15, 38, 0
34, 158640, Note_on_c, 15, 43, 80
34, 158879, Note_on_c, 15, 43, 0
34, 159000, Note_on_c, 15, 31, 80
34, 159104, Note_on_c, 15, 31, 0
34, 159120, Note_on_c, 15, 43, 80
34, 159359, Note_on_c, 15, 43, 0
34, 159480, Note_on_c, 15, 43, 80
34, 159584, Note_on_c, 15, 43, 0
34, 159600, Note_on_c, 15, 55, 80
34, 159839, Note_on_c, 15, 55, 0
34, 159960, Note_on_c, 15, 43, 80
34, 160064, Note_on_c, 15, 43, 0
34, 160080, Note_on_c, 15, 57, 80
34, 160319, Note_on_c, 15, 57, 0
34, 160440, Note_on_c, 15, 45, 80
34, 160544, Note_on_c, 15, 45, 0
34, 160560, Note_on_c, 15, 50, 80
34, 160799, Note_on_c, 15, 50, 0
34, 160920, Note_on_c, 15, 38, 80
34, 161024, Note_on_c, 15, 38, 0
34, 161040, Note_on_c, 15, 54, 80
34, 161279, Note_on_c, 15, 54, 0
34, 161400, Note_on_c, 15, 42, 80
34, 161504, Note_on_c, 15, 42, 0
34, 161520, Note_on_c, 15, 55, 80
34, 161759, Note_on_c, 15, 55, 0
34, 161880, Note_on_c, 15, 43, 80
34, 161984, Note_on_c, 15, 43, 0
34, 162000, Note_on_c, 15, 57, 80
34, 162239, Note_on_c, 15, 57, 0
34, 162360, Note_on_c, 15, 45, 80
34, 162464, Note_on_c, 15, 45, 0
34, 162480, Note_on_c, 15, 46, 80
34, 162719, Note_on_c, 15, 46, 0
34, 162840, Note_on_c, 15, 34, 80
34, 162944, Note_on_c, 15, 34, 0
34, 162960, Note_on_c, 15, 47, 80
34, 163199, Note_on_c, 15, 47, 0
34, 163320, Note_on_c, 15, 35, 80
34, 163424, Note_on_c, 15, 35, 0
34, 163440, Note_on_c, 15, 48, 80
34, 163679, Note_on_c, 15, 48, 0
34, 163800, Note_on_c, 15, 36, 80
34, 163904, Note_on_c, 15, 36, 0
34, 163920, Note_on_c, 15, 49, 80
34, 164159, Note_on_c, 15, 49, 0
34, 164280, Note_on_c, 15, 37, 80
34, 164384, Note_on_c, 15, 37, 0
34, 164400, Note_on_c, 15, 49, 80
34, 164639, Note_on_c, 15, 49, 0
34, 164760, Note_on_c, 15, 37, 80
34, 164864, Note_on_c, 15, 37, 0
34, 164880, Note_on_c, 15, 50, 80
34, 165119, Note_on_c, 15, 50, 0
34, 165240, Note_on_c, 15, 51, 80
34, 165344, Note_on_c, 15, 51, 0
34, 165360, Note_on_c, 15, 52, 80
34, 165599, Note_on_c, 15, 52, 0
34, 165720, Note_on_c, 15, 53, 80
34, 165824, Note_on_c, 15, 53, 0
34, 165840, Note_on_c, 15, 54, 80
34, 166079, Note_on_c, 15, 54, 0
34, 166200, Note_on_c, 15, 54, 80
34, 166304, Note_on_c, 15, 54, 0
34, 166320, Note_on_c, 15, 56, 80
34, 166559, Note_on_c, 15, 56, 0
34, 166680, Note_on_c, 15, 44, 80
34, 166784, Note_on_c, 15, 44, 0
34, 166800, Note_on_c, 15, 56, 80
34, 167039, Note_on_c, 15, 56, 0
34, 167160, Note_on_c, 15, 44, 80
34, 167264, Note_on_c, 15, 44, 0
34, 167280, Note_on_c, 15, 56, 80
34, 167519, Note_on_c, 15, 56, 0
34, 167640, Note_on_c, 15, 44, 80
34, 167744, Note_on_c, 15, 44, 0
34, 167760, Note_on_c, 15, 56, 80
34, 167999, Note_on_c, 15, 56, 0
34, 168120, Note_on_c, 15, 44, 80
34, 168224, Note_on_c, 15, 44, 0
34, 168240, Note_on_c, 15, 45, 80
34, 168599, Note_on_c, 15, 45, 0
34, 168600, Note_on_c, 15, 47, 80
34, 168659, Note_on_c, 15, 47, 0
34, 168660, Note_on_c, 15, 49, 80
34, 168711, Note_on_c, 15, 49, 0
34, 168720, Note_on_c, 15, 50, 80
34, 169079, Note_on_c, 15, 50, 0
34, 169080, Note_on_c, 15, 49, 80
34, 169139, Note_on_c, 15, 49, 0
34, 169140, Note_on_c, 15, 47, 80
34, 169191, Note_on_c, 15, 47, 0
34, 169200, Note_on_c, 15, 49, 80
34, 169319, Note_on_c, 15, 49, 0
34, 169320, Note_on_c, 15, 47, 80
34, 169379, Note_on_c, 15, 47, 0
34, 169380, Note_on_c, 15, 45, 80
34, 169431, Note_on_c, 15, 45, 0
34, 169440, Note_on_c, 15, 43, 80
34, 169529, Note_on_c, 15, 43, 0
34, 169560, Note_on_c, 15, 42, 80
34, 169649, Note_on_c, 15, 42, 0
34, 169680, Note_on_c, 15, 42, 80
34, 169769, Note_on_c, 15, 42, 0
34, 169800, Note_on_c, 15, 41, 80
34, 169889, Note_on_c, 15, 41, 0
34, 169920, Note_on_c, 15, 40, 80
34, 170009, Note_on_c, 15, 40, 0
34, 170040, Note_on_c, 15, 40, 80
34, 170129, Note_on_c, 15, 40, 0
34, 170160, Note_on_c, 15, 45, 92
34, 170219, Note_on_c, 15, 45, 0
34, 170220, Note_on_c, 15, 45, 80
34, 170624, Note_on_c, 15, 45, 0
34, 170640, Note_on_c, 15, 40, 80
34, 170819, Note_on_c, 15, 40, 0
34, 170880, Note_on_c, 15, 40, 80
34, 171059, Note_on_c, 15, 40, 0
34, 171120, Note_on_c, 15, 33, 80
34, 171209, Note_on_c, 15, 33, 0
34, 171240, Note_on_c, 15, 33, 80
34, 171299, Note_on_c, 15, 33, 0
34, 171300, Note_on_c, 15, 35, 80
34, 171351, Note_on_c, 15, 35, 0
34, 171360, Note_on_c, 15, 37, 80
34, 171449, Note_on_c, 15, 37, 0
34, 171480, Note_on_c, 15, 37, 80
34, 171539, Note_on_c, 15, 37, 0
34, 171540, Note_on_c, 15, 38, 80
34, 171591, Note_on_c, 15, 38, 0
34, 171600, Note_on_c, 15, 40, 80
34, 171689, Note_on_c, 15, 40, 0
34, 171720, Note_on_c, 15, 40, 80
34, 171779, Note_on_c, 15, 40, 0
34, 171780, Note_on_c, 15, 42, 80
34, 171831, Note_on_c, 15, 42, 0
34, 171840, Note_on_c, 15, 44, 80
34, 171929, Note_on_c, 15, 44, 0
34, 171960, Note_on_c, 15, 40, 80
34, 171999, Note_on_c, 15, 40, 0
34, 172000, Note_on_c, 15, 42, 80
34, 172039, Note_on_c, 15, 42, 0
34, 172040, Note_on_c, 15, 44, 80
34, 172073, Note_on_c, 15, 44, 0
34, 174720, Note_on_c, 15, 44, 44
34, 174824, Note_on_c, 15, 44, 0
34, 174840, Note_on_c, 15, 44, 80
34, 174944, Note_on_c, 15, 44, 0
34, 174960, Note_on_c, 15, 45, 80
34, 175079, Note_on_c, 15, 45, 0
34, 175080, Note_on_c, 15, 49, 80
34, 175184, Note_on_c, 15, 49, 0
34, 175200, Note_on_c, 15, 54, 80
34, 175289, Note_on_c, 15, 54, 0
34, 175320, Note_on_c, 15, 51, 80
34, 175409, Note_on_c, 15, 51, 0
34, 175440, Note_on_c, 15, 52, 80
34, 175679, Note_on_c, 15, 52, 0
34, 175680, Note_on_c, 15, 40, 80
34, 175919, Note_on_c, 15, 40, 0
34, 176160, Note_on_c, 15, 40, 80
34, 176264, Note_on_c, 15, 40, 0
34, 176640, Note_on_c, 15, 45, 80
34, 176744, Note_on_c, 15, 45, 0
34, 177360, Note_on_c, 15, 29, 92
34, 177939, Note_on_c, 15, 29, 0
34, 177960, Note_on_c, 15, 45, 92
34, 178049, Note_on_c, 15, 45, 0
34, 178080, Note_on_c, 15, 45, 92
34, 178169, Note_on_c, 15, 45, 0
34, 178200, Note_on_c, 15, 50, 92
34, 178289, Note_on_c, 15, 50, 0
34, 178320, Note_on_c, 15, 50, 92
34, 178409, Note_on_c, 15, 50, 0
34, 178440, Note_on_c, 15, 41, 92
34, 178529, Note_on_c, 15, 41, 0
34, 178560, Note_on_c, 15, 41, 92
34, 178649, Note_on_c, 15, 41, 0
34, 178680, Note_on_c, 15, 45, 92
34, 178769, Note_on_c, 15, 45, 0
34, 178800, Note_on_c, 15, 45, 92
34, 178889, Note_on_c, 15, 45, 0
34, 178920, Note_on_c, 15, 38, 92
34, 179009, Note_on_c, 15, 38, 0
34, 179040, Note_on_c, 15, 38, 92
34, 179129, Note_on_c, 15, 38, 0
34, 179160, Note_on_c, 15, 53, 92
34, 179249, Note_on_c, 15, 53, 0
34, 179280, Note_on_c, 15, 53, 92
34, 179369, Note_on_c, 15, 53, 0
34, 179400, Note_on_c, 15, 45, 92
34, 179489, Note_on_c, 15, 45, 0
34, 179520, Note_on_c, 15, 45, 92
34, 179609, Note_on_c, 15, 45, 0
34, 179640, Note_on_c, 15, 50, 92
34, 179729, Note_on_c, 15, 50, 0
34, 179760, Note_on_c, 15, 50, 92
34, 179849, Note_on_c, 15, 50, 0
34, 179880, Note_on_c, 15, 41, 92
34, 179969, Note_on_c, 15, 41, 0
34, 180000, Note_on_c, 15, 41, 92
34, 180089, Note_on_c, 15, 41, 0
34, 180120, Note_on_c, 15, 45, 92
34, 180209, Note_on_c, 15, 45, 0
34, 180240, Note_on_c, 15, 45, 92
34, 180329, Note_on_c, 15, 45, 0
34, 180360, Note_on_c, 15, 38, 92
34, 180449, Note_on_c, 15, 38, 0
34, 180480, Note_on_c, 15, 38, 92
34, 180569, Note_on_c, 15, 38, 0
34, 180600, Note_on_c, 15, 50, 92
34, 180689, Note_on_c, 15, 50, 0
34, 180720, Note_on_c, 15, 50, 92
34, 180809, Note_on_c, 15, 50, 0
34, 180840, Note_on_c, 15, 48, 92
34, 180929, Note_on_c, 15, 48, 0
34, 180960, Note_on_c, 15, 48, 92
34, 181049, Note_on_c, 15, 48, 0
34, 181080, Note_on_c, 15, 47, 92
34, 181169, Note_on_c, 15, 47, 0
34, 181200, Note_on_c, 15, 47, 92
34, 181289, Note_on_c, 15, 47, 0
34, 181320, Note_on_c, 15, 46, 92
34, 181409, Note_on_c, 15, 46, 0
34, 181440, Note_on_c, 15, 46, 92
34, 181529, Note_on_c, 15, 46, 0
34, 181560, Note_on_c, 15, 34, 92
34, 181649, Note_on_c, 15, 34, 0
34, 181680, Note_on_c, 15, 34, 92
34, 181769, Note_on_c, 15, 34, 0
34, 181800, Note_on_c, 15, 34, 92
34, 181889, Note_on_c, 15, 34, 0
34, 181920, Note_on_c, 15, 34, 92
34, 182099, Note_on_c, 15, 34, 0
34, 182160, Note_on_c, 15, 33, 92
34, 182339, Note_on_c, 15, 33, 0
34, 186480, Note_on_c, 15, 50, 44
34, 186719, Note_on_c, 15, 50, 0
34, 186720, Note_on_c, 15, 48, 44
34, 187199, Note_on_c, 15, 48, 0
34, 187200, Note_on_c, 15, 47, 44
34, 187439, Note_on_c, 15, 47, 0
34, 187440, Note_on_c, 15, 41, 44
34, 187919, Note_on_c, 15, 41, 0
34, 187920, Note_on_c, 15, 40, 44
34, 188399, Note_on_c, 15, 40, 0
34, 188400, Note_on_c, 15, 40, 44
34, 189119, Note_on_c, 15, 40, 0
34, 189120, Note_on_c, 15, 40, 44
34, 189839, Note_on_c, 15, 40, 0
34, 189840, Note_on_c, 15, 40, 44
34, 190559, Note_on_c, 15, 40, 0
34, 190560, Note_on_c, 15, 40, 44
34, 191279, Note_on_c, 15, 40, 0
34, 191280, Note_on_c, 15, 40, 44
34, 191999, Note_on_c, 15, 40, 0
34, 192480, Note_on_c, 15, 43, 80
34, 192659, Note_on_c, 15, 43, 0
34, 192720, Note_on_c, 15, 42, 80
34, 192824, Note_on_c, 15, 42, 0
34, 192840, Note_on_c, 15, 42, 80
34, 192944, Note_on_c, 15, 42, 0
34, 192960, Note_on_c, 15, 54, 80
34, 193199, Note_on_c, 15, 54, 0
34, 195840, Note_on_c, 15, 43, 44
34, 195959, Note_on_c, 15, 43, 0
34, 196080, Note_on_c, 15, 55, 80
34, 196199, Note_on_c, 15, 55, 0
34, 197520, Note_on_c, 15, 45, 80
34, 197699, Note_on_c, 15, 45, 0
34, 199200, Note_on_c, 15, 33, 56
34, 199439, Note_on_c, 15, 33, 0
34, 199440, Note_on_c, 15, 33, 56
34, 199679, Note_on_c, 15, 33, 0
34, 201120, Note_on_c, 15, 33, 56
34, 201359, Note_on_c, 15, 33, 0
34, 201360, Note_on_c, 15, 33, 56
34, 201599, Note_on_c, 15, 33, 0
34, 201600, Note_on_c, 15, 42, 40
34, 201839, Note_on_c, 15, 42, 0
34, 201840, Note_on_c, 15, 42, 40
34, 202079, Note_on_c, 15, 42, 0
34, 202080, Note_on_c, 15, 43, 40
34, 202319, Note_on_c, 15, 43, 0
34, 202320, Note_on_c, 15, 45, 40
34, 202559, Note_on_c, 15, 45, 0
34, 202560, Note_on_c, 15, 45, 40
34, 202799, Note_on_c, 15, 45, 0
34, 202800, Note_on_c, 15, 43, 40
34, 203039, Note_on_c, 15, 43, 0
34, 203040, Note_on_c, 15, 42, 40
34, 203279, Note_on_c, 15, 42, 0
34, 203280, Note_on_c, 15, 40, 40
34, 203519, Note_on_c, 15, 40, 0
34, 203520, Note_on_c, 15, 38, 40
34, 203759, Note_on_c, 15, 38, 0
34, 203760, Note_on_c, 15, 38, 40
34, 203999, Note_on_c, 15, 38, 0
34, 204000, Note_on_c, 15, 40, 40
34, 204239, Note_on_c, 15, 40, 0
34, 204240, Note_on_c, 15, 42, 40
34, 204479, Note_on_c, 15, 42, 0
34, 204480, Note_on_c, 15, 42, 40
34, 204719, Note_on_c, 15, 42, 0
34, 204960, Note_on_c, 15, 40, 40
34, 205199, Note_on_c, 15, 40, 0
34, 205440, Note_on_c, 15, 42, 40
34, 205679, Note_on_c, 15, 42, 0
34, 205680, Note_on_c, 15, 42, 40
34, 205919, Note_on_c, 15, 42, 0
34, 205920, Note_on_c, 15, 43, 40
34, 206159, Note_on_c, 15, 43, 0
34, 206160, Note_on_c, 15, 45, 40
34, 206399, Note_on_c, 15, 45, 0
34, 206400, Note_on_c, 15, 45, 40
34, 206639, Note_on_c, 15, 45, 0
34, 206640, Note_on_c, 15, 43, 40
34, 206879, Note_on_c, 15, 43, 0
34, 206880, Note_on_c, 15, 42, 40
34, 207119, Note_on_c, 15, 42, 0
34, 207120, Note_on_c, 15, 40, 40
34, 207359, Note_on_c, 15, 40, 0
34, 207360, Note_on_c, 15, 38, 40
34, 207599, Note_on_c, 15, 38, 0
34, 207600, Note_on_c, 15, 38, 40
34, 207839, Note_on_c, 15, 38, 0
34, 207840, Note_on_c, 15, 40, 40
34, 208079, Note_on_c, 15, 40, 0
34, 208080, Note_on_c, 15, 42, 40
34, 208319, Note_on_c, 15, 42, 0
34, 208320, Note_on_c, 15, 40, 40
34, 208559, Note_on_c, 15, 40, 0
34, 208800, Note_on_c, 15, 38, 40
34, 209039, Note_on_c, 15, 38, 0
34, 209280, Note_on_c, 15, 40, 40
34, 209519, Note_on_c, 15, 40, 0
34, 209520, Note_on_c, 15, 40, 40
34, 209759, Note_on_c, 15, 40, 0
34, 209760, Note_on_c, 15, 42, 40
34, 209999, Note_on_c, 15, 42, 0
34, 210000, Note_on_c, 15, 38, 40
34, 210239, Note_on_c, 15, 38, 0
34, 210240, Note_on_c, 15, 40, 40
34, 210479, Note_on_c, 15, 40, 0
34, 210480, Note_on_c, 15, 42, 40
34, 210599, Note_on_c, 15, 42, 0
34, 210600, Note_on_c, 15, 43, 40
34, 210719, Note_on_c, 15, 43, 0
34, 210720, Note_on_c, 15, 42, 40
34, 210959, Note_on_c, 15, 42, 0
34, 210960, Note_on_c, 15, 38, 40
34, 211199, Note_on_c, 15, 38, 0
34, 211200, Note_on_c, 15, 40, 40
34, 211439, Note_on_c, 15, 40, 0
34, 211440, Note_on_c, 15, 42, 40
34, 211559, Note_on_c, 15, 42, 0
34, 211560, Note_on_c, 15, 43, 40
34, 211679, Note_on_c, 15, 43, 0
34, 211680, Note_on_c, 15, 42, 40
34, 211919, Note_on_c, 15, 42, 0
34, 211920, Note_on_c, 15, 40, 40
34, 212159, Note_on_c, 15, 40, 0
34, 212160, Note_on_c, 15, 38, 40
34, 212399, Note_on_c, 15, 38, 0
34, 212400, Note_on_c, 15, 40, 42
34, 212639, Note_on_c, 15, 40, 0
34, 212640, Note_on_c, 15, 33, 44
34, 212879, Note_on_c, 15, 33, 0
34, 212880, Note_on_c, 15, 42, 46
34, 213119, Note_on_c, 15, 42, 0
34, 213120, Note_on_c, 15, 42, 48
34, 213359, Note_on_c, 15, 42, 0
34, 213360, Note_on_c, 15, 42, 50
34, 213599, Note_on_c, 15, 42, 0
34, 213600, Note_on_c, 15, 43, 52
34, 213839, Note_on_c, 15, 43, 0
34, 213840, Note_on_c, 15, 45, 54
34, 214079, Note_on_c, 15, 45, 0
34, 214080, Note_on_c, 15, 45, 56
34, 214319, Note_on_c, 15, 45, 0
34, 214320, Note_on_c, 15, 43, 58
34, 214559, Note_on_c, 15, 43, 0
34, 214560, Note_on_c, 15, 42, 60
34, 214799, Note_on_c, 15, 42, 0
34, 214800, Note_on_c, 15, 40, 62
34, 215039, Note_on_c, 15, 40, 0
34, 215040, Note_on_c, 15, 38, 40
34, 215279, Note_on_c, 15, 38, 0
34, 215280, Note_on_c, 15, 38, 40
34, 215519, Note_on_c, 15, 38, 0
34, 215520, Note_on_c, 15, 40, 40
34, 215759, Note_on_c, 15, 40, 0
34, 215760, Note_on_c, 15, 42, 40
34, 215999, Note_on_c, 15, 42, 0
34, 216000, Note_on_c, 15, 40, 40
34, 216239, Note_on_c, 15, 40, 0
34, 216480, Note_on_c, 15, 38, 40
34, 216719, Note_on_c, 15, 38, 0
34, 216960, Note_on_c, 15, 40, 80
34, 217184, Note_on_c, 15, 40, 0
34, 217200, Note_on_c, 15, 40, 80
34, 217424, Note_on_c, 15, 40, 0
34, 217440, Note_on_c, 15, 42, 80
34, 217664, Note_on_c, 15, 42, 0
34, 217680, Note_on_c, 15, 38, 80
34, 217904, Note_on_c, 15, 38, 0
34, 217920, Note_on_c, 15, 40, 80
34, 218159, Note_on_c, 15, 40, 0
34, 218160, Note_on_c, 15, 42, 80
34, 218279, Note_on_c, 15, 42, 0
34, 218280, Note_on_c, 15, 43, 80
34, 218384, Note_on_c, 15, 43, 0
34, 218400, Note_on_c, 15, 42, 80
34, 218624, Note_on_c, 15, 42, 0
34, 218640, Note_on_c, 15, 38, 80
34, 218864, Note_on_c, 15, 38, 0
34, 218880, Note_on_c, 15, 40, 80
34, 219119, Note_on_c, 15, 40, 0
34, 219120, Note_on_c, 15, 42, 80
34, 219239, Note_on_c, 15, 42, 0
34, 219240, Note_on_c, 15, 43, 80
34, 219344, Note_on_c, 15, 43, 0
34, 219360, Note_on_c, 15, 42, 80
34, 219584, Note_on_c, 15, 42, 0
34, 219600, Note_on_c, 15, 40, 80
34, 219824, Note_on_c, 15, 40, 0
34, 219840, Note_on_c, 15, 38, 80
34, 220064, Note_on_c, 15, 38, 0
34, 220080, Note_on_c, 15, 40, 80
34, 220304, Note_on_c, 15, 40, 0
34, 220320, Note_on_c, 15, 33, 80
34, 220544, Note_on_c, 15, 33, 0
34, 220560, Note_on_c, 15, 42, 80
34, 221024, Note_on_c, 15, 42, 0
34, 221040, Note_on_c, 15, 42, 80
34, 221264, Note_on_c, 15, 42, 0
34, 221280, Note_on_c, 15, 43, 80
34, 221504, Note_on_c, 15, 43, 0
34, 221520, Note_on_c, 15, 45, 80
34, 221744, Note_on_c, 15, 45, 0
34, 221760, Note_on_c, 15, 45, 80
34, 221984, Note_on_c, 15, 45, 0
34, 222000, Note_on_c, 15, 43, 80
34, 222224, Note_on_c, 15, 43, 0
34, 222240, Note_on_c, 15, 42, 80
34, 222479, Note_on_c, 15, 42, 0
34, 222480, Note_on_c, 15, 43, 80
34, 222599, Note_on_c, 15, 43, 0
34, 222600, Note_on_c, 15, 40, 80
34, 222704, Note_on_c, 15, 40, 0
34, 222720, Note_on_c, 15, 38, 80
34, 222944, Note_on_c, 15, 38, 0
34, 222960, Note_on_c, 15, 38, 80
34, 223184, Note_on_c, 15, 38, 0
34, 223200, Note_on_c, 15, 40, 80
34, 223424, Note_on_c, 15, 40, 0
34, 223440, Note_on_c, 15, 42, 80
34, 223664, Note_on_c, 15, 42, 0
34, 223680, Note_on_c, 15, 40, 80
34, 224039, Note_on_c, 15, 40, 0
34, 224040, Note_on_c, 15, 38, 80
34, 224144, Note_on_c, 15, 38, 0
34, 224160, Note_on_c, 15, 38, 80
34, 224384, Note_on_c, 15, 38, 0
34, 224400, Note_on_c, 15, 45, 80
34, 224624, Note_on_c, 15, 45, 0
34, 224640, Note_on_c, 15, 43, 80
34, 224999, Note_on_c, 15, 43, 0
34, 225000, Note_on_c, 15, 42, 80
34, 225104, Note_on_c, 15, 42, 0
34, 225120, Note_on_c, 15, 42, 80
34, 225344, Note_on_c, 15, 42, 0
34, 225360, Note_on_c, 15, 50, 80
34, 225584, Note_on_c, 15, 50, 0
34, 225600, Note_on_c, 15, 48, 80
34, 225959, Note_on_c, 15, 48, 0
34, 225960, Note_on_c, 15, 47, 80
34, 226064, Note_on_c, 15, 47, 0
34, 226080, Note_on_c, 15, 47, 80
34, 226304, Note_on_c, 15, 47, 0
34, 226320, Note_on_c, 15, 55, 80
34, 226439, Note_on_c, 15, 55, 0
34, 226440, Note_on_c, 15, 52, 80
34, 226544, Note_on_c, 15, 52, 0
34, 226560, Note_on_c, 15, 50, 80
34, 226679, Note_on_c, 15, 50, 0
34, 226680, Note_on_c, 15, 49, 80
34, 226799, Note_on_c, 15, 49, 0
34, 226800, Note_on_c, 15, 52, 80
34, 226919, Note_on_c, 15, 52, 0
34, 226920, Note_on_c, 15, 49, 80
34, 227024, Note_on_c, 15, 49, 0
34, 227040, Note_on_c, 15, 47, 80
34, 227159, Note_on_c, 15, 47, 0
34, 227160, Note_on_c, 15, 45, 80
34, 227279, Note_on_c, 15, 45, 0
34, 227280, Note_on_c, 15, 47, 80
34, 227399, Note_on_c, 15, 47, 0
34, 227400, Note_on_c, 15, 49, 80
34, 227504, Note_on_c, 15, 49, 0
34, 227520, Note_on_c, 15, 50, 80
34, 227639, Note_on_c, 15, 50, 0
34, 227640, Note_on_c, 15, 54, 80
34, 227759, Note_on_c, 15, 54, 0
34, 227760, Note_on_c, 15, 52, 80
34, 227879, Note_on_c, 15, 52, 0
34, 227880, Note_on_c, 15, 49, 80
34, 227984, Note_on_c, 15, 49, 0
34, 228000, Note_on_c, 15, 50, 80
34, 228239, Note_on_c, 15, 50, 0
34, 243600, Note_on_c, 15, 45, 80
34, 243944, Note_on_c, 15, 45, 0
34, 243960, Note_on_c, 15, 33, 80
34, 244079, Note_on_c, 15, 33, 0
34, 244080, Note_on_c, 15, 40, 80
34, 244184, Note_on_c, 15, 40, 0
34, 244200, Note_on_c, 15, 37, 80
34, 244319, Note_on_c, 15, 37, 0
34, 244320, Note_on_c, 15, 45, 80
34, 244439, Note_on_c, 15, 45, 0
34, 244800, Note_on_c, 15, 33, 80
34, 244904, Note_on_c, 15, 33, 0
34, 244920, Note_on_c, 15, 33, 80
34, 245039, Note_on_c, 15, 33, 0
34, 245040, Note_on_c, 15, 45, 80
34, 245144, Note_on_c, 15, 45, 0
34, 245280, Note_on_c, 15, 33, 80
34, 245399, Note_on_c, 15, 33, 0
34, 245400, Note_on_c, 15, 45, 80
34, 245519, Note_on_c, 15, 45, 0
34, 245760, Note_on_c, 15, 33, 80
34, 245850, Note_on_c, 15, 33, 80
34, 245864, Note_on_c, 15, 33, 0
34, 245969, Note_on_c, 15, 33, 0
34, 246000, Note_on_c, 15, 45, 80
34, 246119, Note_on_c, 15, 45, 0
34, 246360, Note_on_c, 15, 46, 80
34, 246479, Note_on_c, 15, 46, 0
34, 246480, Note_on_c, 15, 42, 80
34, 246719, Note_on_c, 15, 42, 0
34, 246840, Note_on_c, 15, 47, 80
34, 246959, Note_on_c, 15, 47, 0
34, 246960, Note_on_c, 15, 40, 80
34, 247199, Note_on_c, 15, 40, 0
34, 247318, Control_c, 15, 11, 109
34, 247320, Note_on_c, 15, 45, 92
34, 247439, Note_on_c, 15, 45, 0
34, 247440, Note_on_c, 15, 33, 92
34, 247544, Note_on_c, 15, 33, 0
34, 247560, Note_on_c, 15, 33, 92
34, 247679, Note_on_c, 15, 33, 0
34, 247680, Control_c, 15, 11, 109
34, 247680, Note_on_c, 15, 38, 92
34, 247760, Control_c, 15, 11, 110
34, 247840, Control_c, 15, 11, 112
34, 247920, Control_c, 15, 11, 114
34, 248000, Control_c, 15, 11, 115
34, 248080, Control_c, 15, 11, 116
34, 248160, Control_c, 15, 11, 119
34, 248240, Control_c, 15, 11, 120
34, 248320, Control_c, 15, 11, 121
34, 248399, Note_on_c, 15, 38, 0
34, 248400, Control_c, 15, 11, 122
34, 248400, Note_on_c, 15, 37, 92
34, 248480, Control_c, 15, 11, 125
34, 248519, Note_on_c, 15, 37, 0
34, 248520, Note_on_c, 15, 35, 92
34, 248560, Control_c, 15, 11, 126
34, 248624, Note_on_c, 15, 35, 0
34, 248640, Note_on_c, 15, 33, 92
34, 248640, Control_c, 15, 11, 127
34, 248759, Note_on_c, 15, 33, 0
34, 248760, Note_on_c, 15, 35, 86
34, 248879, Note_on_c, 15, 35, 0
34, 248880, Note_on_c, 15, 37, 80
34, 248999, Note_on_c, 15, 37, 0
34, 249000, Note_on_c, 15, 38, 74
34, 249119, Note_on_c, 15, 38, 0
34, 249120, Note_on_c, 15, 40, 68
34, 249239, Note_on_c, 15, 40, 0
34, 249240, Note_on_c, 15, 42, 62
34, 249359, Note_on_c, 15, 42, 0
34, 249360, Note_on_c, 15, 43, 56
34, 249479, Note_on_c, 15, 43, 0
34, 249480, Note_on_c, 15, 40, 50
34, 249584, Note_on_c, 15, 40, 0
34, 249600, Note_on_c, 15, 42, 44
34, 249839, Note_on_c, 15, 42, 0
34, 249960, Note_on_c, 15, 42, 44
34, 250079, Note_on_c, 15, 42, 0
34, 250080, Note_on_c, 15, 38, 44
34, 250319, Note_on_c, 15, 38, 0
34, 250440, Note_on_c, 15, 38, 44
34, 250559, Note_on_c, 15, 38, 0
34, 250560, Note_on_c, 15, 45, 44
34, 250799, Note_on_c, 15, 45, 0
34, 250920, Note_on_c, 15, 33, 44
34, 251039, Note_on_c, 15, 33, 0
34, 251040, Note_on_c, 15, 38, 44
34, 251279, Note_on_c, 15, 38, 0
34, 251400, Note_on_c, 15, 50, 44
34, 251519, Note_on_c, 15, 50, 0
34, 251520, Note_on_c, 15, 38, 44
34, 251759, Note_on_c, 15, 38, 0
34, 251880, Note_on_c, 15, 50, 44
34, 251999, Note_on_c, 15, 50, 0
34, 252000, Note_on_c, 15, 38, 44
34, 252239, Note_on_c, 15, 38, 0
34, 252360, Note_on_c, 15, 38, 44
34, 252479, Note_on_c, 15, 38, 0
34, 252480, Note_on_c, 15, 31, 44
34, 252719, Note_on_c, 15, 31, 0
34, 252840, Note_on_c, 15, 43, 44
34, 252959, Note_on_c, 15, 43, 0
34, 252960, Note_on_c, 15, 31, 44
34, 253199, Note_on_c, 15, 31, 0
34, 253320, Note_on_c, 15, 43, 44
34, 253439, Note_on_c, 15, 43, 0
34, 253440, Note_on_c, 15, 45, 44
34, 253679, Note_on_c, 15, 45, 0
34, 253800, Note_on_c, 15, 33, 44
34, 253919, Note_on_c, 15, 33, 0
34, 253920, Note_on_c, 15, 45, 44
34, 254159, Note_on_c, 15, 45, 0
34, 254280, Note_on_c, 15, 45, 44
34, 254399, Note_on_c, 15, 45, 0
34, 254400, Note_on_c, 15, 50, 44
34, 254519, Note_on_c, 15, 50, 0
34, 254640, Note_on_c, 15, 45, 44
34, 254759, Note_on_c, 15, 45, 0
34, 254880, Note_on_c, 15, 38, 44
34, 254999, Note_on_c, 15, 38, 0
34, 269280, Note_on_c, 15, 50, 80
34, 269519, Note_on_c, 15, 50, 0
34, 269640, Note_on_c, 15, 50, 80
34, 269744, Note_on_c, 15, 50, 0
34, 269760, Note_on_c, 15, 50, 80
34, 269999, Note_on_c, 15, 50, 0
34, 270120, Note_on_c, 15, 50, 80
34, 270224, Note_on_c, 15, 50, 0
34, 270240, Note_on_c, 15, 50, 80
34, 270464, Note_on_c, 15, 50, 0
34, 270480, Note_on_c, 15, 33, 80
34, 270584, Note_on_c, 15, 33, 0
34, 270600, Note_on_c, 15, 45, 80
34, 270704, Note_on_c, 15, 45, 0
34, 270720, Note_on_c, 15, 33, 80
34, 270824, Note_on_c, 15, 33, 0
34, 270840, Note_on_c, 15, 45, 80
34, 270944, Note_on_c, 15, 45, 0
34, 270960, Note_on_c, 15, 33, 80
34, 271064, Note_on_c, 15, 33, 0
34, 271080, Note_on_c, 15, 45, 80
34, 271184, Note_on_c, 15, 45, 0
34, 271200, Note_on_c, 15, 33, 80
34, 271304, Note_on_c, 15, 33, 0
34, 271320, Note_on_c, 15, 45, 80
34, 271424, Note_on_c, 15, 45, 0
34, 271440, Note_on_c, 15, 33, 80
34, 271544, Note_on_c, 15, 33, 0
34, 271560, Note_on_c, 15, 45, 80
34, 271664, Note_on_c, 15, 45, 0
34, 271680, Note_on_c, 15, 33, 80
34, 271784, Note_on_c, 15, 33, 0
34, 271800, Note_on_c, 15, 45, 80
34, 271904, Note_on_c, 15, 45, 0
34, 271920, Note_on_c, 15, 33, 80
34, 272024, Note_on_c, 15, 33, 0
34, 272040, Note_on_c, 15, 45, 80
34, 272144, Note_on_c, 15, 45, 0
34, 272160, Note_on_c, 15, 33, 80
34, 272264, Note_on_c, 15, 33, 0
34, 272280, Note_on_c, 15, 45, 80
34, 272384, Note_on_c, 15, 45, 0
34, 272400, Note_on_c, 15, 33, 80
34, 272504, Note_on_c, 15, 33, 0
34, 272520, Note_on_c, 15, 45, 80
34, 272624, Note_on_c, 15, 45, 0
34, 272640, Note_on_c, 15, 33, 80
34, 272744, Note_on_c, 15, 33, 0
34, 272760, Note_on_c, 15, 45, 80
34, 272864, Note_on_c, 15, 45, 0
34, 272880, Note_on_c, 15, 33, 80
34, 272984, Note_on_c, 15, 33, 0
34, 273000, Note_on_c, 15, 45, 80
34, 273104, Note_on_c, 15, 45, 0
34, 273120, Note_on_c, 15, 33, 80
34, 273224, Note_on_c, 15, 33, 0
34, 273240, Note_on_c, 15, 45, 80
34, 273344, Note_on_c, 15, 45, 0
34, 273360, Note_on_c, 15, 33, 80
34, 273464, Note_on_c, 15, 33, 0
34, 273480, Note_on_c, 15, 45, 80
34, 273584, Note_on_c, 15, 45, 0
34, 273600, Note_on_c, 15, 33, 80
34, 273704, Note_on_c, 15, 33, 0
34, 273720, Note_on_c, 15, 45, 80
34, 273824, Note_on_c, 15, 45, 0
34, 273840, Note_on_c, 15, 33, 80
34, 273944, Note_on_c, 15, 33, 0
34, 273960, Note_on_c, 15, 45, 80
34, 274064, Note_on_c, 15, 45, 0
34, 274080, Note_on_c, 15, 33, 80
34, 274184, Note_on_c, 15, 33, 0
34, 274200, Note_on_c, 15, 45, 80
34, 274304, Note_on_c, 15, 45, 0
34, 274320, Note_on_c, 15, 26, 80
34, 274424, Note_on_c, 15, 26, 0
34, 274440, Note_on_c, 15, 33, 80
34, 274544, Note_on_c, 15, 33, 0
34, 274560, Note_on_c, 15, 26, 80
34, 274664, Note_on_c, 15, 26, 0
34, 274680, Note_on_c, 15, 33, 80
34, 274784, Note_on_c, 15, 33, 0
34, 274800, Note_on_c, 15, 26, 80
34, 274904, Note_on_c, 15, 26, 0
34, 274920, Note_on_c, 15, 33, 80
34, 275024, Note_on_c, 15, 33, 0
34, 275040, Note_on_c, 15, 26, 80
34, 275144, Note_on_c, 15, 26, 0
34, 275160, Note_on_c, 15, 33, 80
34, 275264, Note_on_c, 15, 33, 0
34, 275280, Note_on_c, 15, 26, 80
34, 275384, Note_on_c, 15, 26, 0
34, 275400, Note_on_c, 15, 33, 80
34, 275504, Note_on_c, 15, 33, 0
34, 275520, Note_on_c, 15, 26, 80
34, 275624, Note_on_c, 15, 26, 0
34, 275640, Note_on_c, 15, 33, 80
34, 275744, Note_on_c, 15, 33, 0
34, 275760, Note_on_c, 15, 26, 80
34, 275864, Note_on_c, 15, 26, 0
34, 275880, Note_on_c, 15, 33, 80
34, 275984, Note_on_c, 15, 33, 0
34, 276000, Note_on_c, 15, 26, 80
34, 276104, Note_on_c, 15, 26, 0
34, 276120, Note_on_c, 15, 33, 80
34, 276224, Note_on_c, 15, 33, 0
34, 276240, Note_on_c, 15, 26, 80
34, 276344, Note_on_c, 15, 26, 0
34, 276360, Note_on_c, 15, 33, 80
34, 276464, Note_on_c, 15, 33, 0
34, 276480, Note_on_c, 15, 26, 80
34, 276584, Note_on_c, 15, 26, 0
34, 276600, Note_on_c, 15, 33, 80
34, 276704, Note_on_c, 15, 33, 0
34, 276720, Note_on_c, 15, 26, 80
34, 276824, Note_on_c, 15, 26, 0
34, 276840, Note_on_c, 15, 33, 80
34, 276944, Note_on_c, 15, 33, 0
34, 276960, Note_on_c, 15, 50, 92
34, 277199, Note_on_c, 15, 50, 0
34, 277440, Note_on_c, 15, 50, 92
34, 277679, Note_on_c, 15, 50, 0
34, 277800, Note_on_c, 15, 50, 92
34, 277904, Note_on_c, 15, 50, 0
34, 277920, Note_on_c, 15, 50, 92
34, 278159, Note_on_c, 15, 50, 0
34, 278400, Note_on_c, 15, 50, 92
34, 278759, Note_on_c, 15, 50, 0
34, 278880, Note_on_c, 15, 50, 92
34, 279239, Note_on_c, 15, 50, 0
34, 279360, Note_on_c, 15, 43, 92
34, 279719, Note_on_c, 15, 43, 0
34, 279840, Note_on_c, 15, 43, 92
34, 280199, Note_on_c, 15, 43, 0
34, 280320, Note_on_c, 15, 45, 92
34, 280679, Note_on_c, 15, 45, 0
34, 280800, Note_on_c, 15, 45, 92
34, 281159, Note_on_c, 15, 45, 0
34, 281280, Note_on_c, 15, 50, 92
34, 282224, Note_on_c, 15, 50, 0
34, 282240, Note_on_c, 15, 40, 92
34, 282599, Note_on_c, 15, 40, 0
34, 282720, Note_on_c, 15, 40, 92
34, 283079, Note_on_c, 15, 40, 0
34, 283200, Note_on_c, 15, 45, 92
34, 283251, Note_on_c, 15, 45, 0
34, 283260, Note_on_c, 15, 47, 92
34, 283311, Note_on_c, 15, 47, 0
34, 283320, Note_on_c, 15, 45, 92
34, 283371, Note_on_c, 15, 45, 0
34, 283380, Note_on_c, 15, 44, 92
34, 283431, Note_on_c, 15, 44, 0
34, 283440, Note_on_c, 15, 42, 92
34, 283491, Note_on_c, 15, 42, 0
34, 283500, Note_on_c, 15, 44, 92
34, 283551, Note_on_c, 15, 44, 0
34, 283560, Note_on_c, 15, 42, 92
34, 283611, Note_on_c, 15, 42, 0
34, 283620, Note_on_c, 15, 40, 92
34, 283671, Note_on_c, 15, 40, 0
34, 283680, Note_on_c, 15, 38, 92
34, 283731, Note_on_c, 15, 38, 0
34, 283740, Note_on_c, 15, 40, 92
34, 283791, Note_on_c, 15, 40, 0
34, 283800, Note_on_c, 15, 38, 92
34, 283851, Note_on_c, 15, 38, 0
34, 283860, Note_on_c, 15, 37, 92
34, 283911, Note_on_c, 15, 37, 0
34, 283920, Note_on_c, 15, 35, 92
34, 283971, Note_on_c, 15, 35, 0
34, 283980, Note_on_c, 15, 37, 92
34, 284031, Note_on_c, 15, 37, 0
34, 284040, Note_on_c, 15, 35, 92
34, 284091, Note_on_c, 15, 35, 0
34, 284100, Note_on_c, 15, 33, 92
34, 284151, Note_on_c, 15, 33, 0
34, 284160, Note_on_c, 15, 40, 92
34, 284519, Note_on_c, 15, 40, 0
34, 284640, Note_on_c, 15, 40, 92
34, 284999, Note_on_c, 15, 40, 0
34, 285120, Note_on_c, 15, 45, 92
34, 285171, Note_on_c, 15, 45, 0
34, 285180, Note_on_c, 15, 47, 92
34, 285231, Note_on_c, 15, 47, 0
34, 285240, Note_on_c, 15, 45, 92
34, 285291, Note_on_c, 15, 45, 0
34, 285300, Note_on_c, 15, 44, 92
34, 285351, Note_on_c, 15, 44, 0
34, 285360, Note_on_c, 15, 42, 92
34, 285411, Note_on_c, 15, 42, 0
34, 285420, Note_on_c, 15, 44, 92
34, 285471, Note_on_c, 15, 44, 0
34, 285480, Note_on_c, 15, 42, 92
34, 285531, Note_on_c, 15, 42, 0
34, 285540, Note_on_c, 15, 40, 92
34, 285591, Note_on_c, 15, 40, 0
34, 285600, Note_on_c, 15, 38, 92
34, 285651, Note_on_c, 15, 38, 0
34, 285660, Note_on_c, 15, 40, 92
34, 285711, Note_on_c, 15, 40, 0
34, 285720, Note_on_c, 15, 38, 92
34, 285771, Note_on_c, 15, 38, 0
34, 285780, Note_on_c, 15, 37, 92
34, 285831, Note_on_c, 15, 37, 0
34, 285840, Note_on_c, 15, 35, 92
34, 285891, Note_on_c, 15, 35, 0
34, 285900, Note_on_c, 15, 37, 92
34, 285951, Note_on_c, 15, 37, 0
34, 285960, Note_on_c, 15, 35, 92
34, 286011, Note_on_c, 15, 35, 0
34, 286020, Note_on_c, 15, 33, 92
34, 286071, Note_on_c, 15, 33, 0
34, 286080, Note_on_c, 15, 33, 92
34, 286544, Note_on_c, 15, 33, 0
34, 286560, Note_on_c, 15, 45, 92
34, 287024, Note_on_c, 15, 45, 0
34, 287040, Note_on_c, 15, 29, 92
34, 288959, Note_on_c, 15, 29, 0
34, 349800, Note_on_c, 15, 46, 68
34, 350039, Note_on_c, 15, 46, 0
34, 350520, Note_on_c, 15, 44, 68
34, 350759, Note_on_c, 15, 44, 0
34, 351240, Note_on_c, 15, 43, 68
34, 351479, Note_on_c, 15, 43, 0
34, 351480, Note_on_c, 15, 41, 68
34, 351584, Note_on_c, 15, 41, 0
34, 351600, Note_on_c, 15, 39, 68
34, 351944, Note_on_c, 15, 39, 0
34, 351960, Note_on_c, 15, 40, 68
34, 352199, Note_on_c, 15, 40, 0
34, 352680, Note_on_c, 15, 41, 80
34, 352919, Note_on_c, 15, 41, 0
34, 353400, Note_on_c, 15, 41, 86
34, 353639, Note_on_c, 15, 41, 0
34, 354120, Note_on_c, 15, 41, 86
34, 354359, Note_on_c, 15, 41, 0
34, 354480, Note_on_c, 15, 46, 86
34, 354659, Note_on_c, 15, 46, 0
34, 354720, Note_on_c, 15, 41, 86
34, 354809, Note_on_c, 15, 41, 0
34, 354840, Note_on_c, 15, 41, 86
34, 355019, Note_on_c, 15, 41, 0
34, 355080, Note_on_c, 15, 46, 86
34, 355169, Note_on_c, 15, 46, 0
34, 355200, Note_on_c, 15, 46, 92
34, 355439, Note_on_c, 15, 46, 0
34, 355560, Note_on_c, 15, 46, 92
34, 355799, Note_on_c, 15, 46, 0
34, 356280, Note_on_c, 15, 46, 92
34, 356519, Note_on_c, 15, 46, 0
34, 357000, Note_on_c, 15, 39, 92
34, 357239, Note_on_c, 15, 39, 0
34, 357720, Note_on_c, 15, 39, 92
34, 357959, Note_on_c, 15, 39, 0
34, 358440, Note_on_c, 15, 41, 92
34, 358679, Note_on_c, 15, 41, 0
34, 359160, Note_on_c, 15, 41, 92
34, 359399, Note_on_c, 15, 41, 0
34, 359880, Note_on_c, 15, 41, 92
34, 360119, Note_on_c, 15, 41, 0
34, 360240, Note_on_c, 15, 46, 92
34, 360479, Note_on_c, 15, 46, 0
34, 360600, Note_on_c, 15, 41, 92
34, 360839, Note_on_c, 15, 41, 0
34, 360960, Note_on_c, 15, 50, 92
34, 361064, Note_on_c, 15, 50, 0
34, 361080, Note_on_c, 15, 50, 92
34, 361184, Note_on_c, 15, 50, 0
34, 361200, Note_on_c, 15, 50, 92
34, 361304, Note_on_c, 15, 50, 0
34, 361320, Note_on_c, 15, 50, 92
34, 361424, Note_on_c, 15, 50, 0
34, 361440, Note_on_c, 15, 51, 92
34, 361544, Note_on_c, 15, 51, 0
34, 361560, Note_on_c, 15, 53, 92
34, 361664, Note_on_c, 15, 53, 0
34, 361680, Note_on_c, 15, 53, 92
34, 361784, Note_on_c, 15, 53, 0
34, 361800, Note_on_c, 15, 55, 92
34, 361904, Note_on_c, 15, 55, 0
34, 361920, Note_on_c, 15, 53, 92
34, 362024, Note_on_c, 15, 53, 0
34, 362040, Note_on_c, 15, 51, 92
34, 362144, Note_on_c, 15, 51, 0
34, 362160, Note_on_c, 15, 50, 92
34, 362264, Note_on_c, 15, 50, 0
34, 362280, Note_on_c, 15, 48, 92
34, 362384, Note_on_c, 15, 48, 0
34, 362400, Note_on_c, 15, 46, 92
34, 362504, Note_on_c, 15, 46, 0
34, 362520, Note_on_c, 15, 45, 92
34, 362624, Note_on_c, 15, 45, 0
34, 362640, Note_on_c, 15, 46, 92
34, 362744, Note_on_c, 15, 46, 0
34, 362760, Note_on_c, 15, 47, 92
34, 362864, Note_on_c, 15, 47, 0
34, 362880, Note_on_c, 15, 48, 92
34, 362984, Note_on_c, 15, 48, 0
34, 363000, Note_on_c, 15, 50, 92
34, 363104, Note_on_c, 15, 50, 0
34, 363120, Note_on_c, 15, 48, 92
34, 363224, Note_on_c, 15, 48, 0
34, 363240, Note_on_c, 15, 41, 92
34, 363344, Note_on_c, 15, 41, 0
34, 363360, Note_on_c, 15, 41, 92
34, 363464, Note_on_c, 15, 41, 0
34, 363480, Note_on_c, 15, 46, 92
34, 363584, Note_on_c, 15, 46, 0
34, 363600, Note_on_c, 15, 34, 92
34, 363704, Note_on_c, 15, 34, 0
34, 363720, Note_on_c, 15, 34, 92
34, 363824, Note_on_c, 15, 34, 0
34, 363840, Note_on_c, 15, 53, 92
34, 364064, Note_on_c, 15, 53, 0
34, 364080, Note_on_c, 15, 41, 92
34, 364184, Note_on_c, 15, 41, 0
34, 364200, Note_on_c, 15, 41, 104
34, 364259, Note_on_c, 15, 41, 0
34, 364260, Note_on_c, 15, 41, 92
34, 364784, Note_on_c, 15, 41, 0
34, 364800, Note_on_c, 15, 43, 92
34, 364904, Note_on_c, 15, 43, 0
34, 364920, Note_on_c, 15, 43, 104
34, 364979, Note_on_c, 15, 43, 0
34, 364980, Note_on_c, 15, 43, 92
34, 365504, Note_on_c, 15, 43, 0
34, 365520, Note_on_c, 15, 45, 92
34, 365624, Note_on_c, 15, 45, 0
34, 365640, Note_on_c, 15, 50, 92
34, 365864, Note_on_c, 15, 50, 0
34, 365880, Note_on_c, 15, 48, 92
34, 365984, Note_on_c, 15, 48, 0
34, 366000, Note_on_c, 15, 46, 92
34, 366239, Note_on_c, 15, 46, 0
34, 366360, Note_on_c, 15, 45, 92
34, 366599, Note_on_c, 15, 45, 0
34, 366720, Note_on_c, 15, 45, 92
34, 366959, Note_on_c, 15, 45, 0
34, 367080, Note_on_c, 15, 43, 92
34, 367319, Note_on_c, 15, 43, 0
34, 367440, Note_on_c, 15, 43, 92
34, 367679, Note_on_c, 15, 43, 0
34, 367800, Note_on_c, 15, 42, 92
34, 368039, Note_on_c, 15, 42, 0
34, 368160, Note_on_c, 15, 43, 92
34, 368399, Note_on_c, 15, 43, 0
34, 377760, Note_on_c, 15, 41, 80
34, 377864, Note_on_c, 15, 41, 0
34, 377880, Note_on_c, 15, 46, 80
34, 378104, Note_on_c, 15, 46, 0
34, 378120, Note_on_c, 15, 44, 80
34, 378224, Note_on_c, 15, 44, 0
34, 378240, Note_on_c, 15, 43, 80
34, 378344, Note_on_c, 15, 43, 0
34, 378360, Note_on_c, 15, 44, 80
34, 378464, Note_on_c, 15, 44, 0
34, 378480, Note_on_c, 15, 46, 80
34, 378584, Note_on_c, 15, 46, 0
34, 378600, Note_on_c, 15, 46, 80
34, 378704, Note_on_c, 15, 46, 0
34, 378720, Note_on_c, 15, 46, 80
34, 378824, Note_on_c, 15, 46, 0
34, 378840, Note_on_c, 15, 46, 80
34, 378944, Note_on_c, 15, 46, 0
34, 378960, Note_on_c, 15, 46, 80
34, 379064, Note_on_c, 15, 46, 0
34, 379080, Note_on_c, 15, 48, 80
34, 379184, Note_on_c, 15, 48, 0
34, 379200, Note_on_c, 15, 46, 80
34, 379304, Note_on_c, 15, 46, 0
34, 379320, Note_on_c, 15, 44, 80
34, 379424, Note_on_c, 15, 44, 0
34, 379440, Note_on_c, 15, 43, 80
34, 379544, Note_on_c, 15, 43, 0
34, 379560, Note_on_c, 15, 41, 80
34, 379664, Note_on_c, 15, 41, 0
34, 379680, Note_on_c, 15, 39, 80
34, 379784, Note_on_c, 15, 39, 0
34, 379800, Note_on_c, 15, 41, 80
34, 379904, Note_on_c, 15, 41, 0
34, 379920, Note_on_c, 15, 39, 80
34, 380024, Note_on_c, 15, 39, 0
34, 380040, Note_on_c, 15, 40, 80
34, 380144, Note_on_c, 15, 40, 0
34, 380160, Note_on_c, 15, 41, 80
34, 380264, Note_on_c, 15, 41, 0
34, 380280, Note_on_c, 15, 43, 80
34, 380384, Note_on_c, 15, 43, 0
34, 380400, Note_on_c, 15, 41, 80
34, 380504, Note_on_c, 15, 41, 0
34, 380520, Note_on_c, 15, 36, 80
34, 380624, Note_on_c, 15, 36, 0
34, 380640, Note_on_c, 15, 36, 80
34, 380744, Note_on_c, 15, 36, 0
34, 380760, Note_on_c, 15, 48, 80
34, 380864, Note_on_c, 15, 48, 0
34, 380880, Note_on_c, 15, 36, 80
34, 380984, Note_on_c, 15, 36, 0
34, 381000, Note_on_c, 15, 36, 80
34, 381104, Note_on_c, 15, 36, 0
34, 381120, Note_on_c, 15, 48, 80
34, 381224, Note_on_c, 15, 48, 0
34, 381240, Note_on_c, 15, 41, 80
34, 381344, Note_on_c, 15, 41, 0
34, 381360, Note_on_c, 15, 41, 80
34, 381464, Note_on_c, 15, 41, 0
34, 381480, Note_on_c, 15, 53, 80
34, 381584, Note_on_c, 15, 53, 0
34, 381600, Note_on_c, 15, 41, 80
34, 381704, Note_on_c, 15, 41, 0
34, 381720, Note_on_c, 15, 41, 80
34, 381824, Note_on_c, 15, 41, 0
34, 381840, Note_on_c, 15, 53, 80
34, 381944, Note_on_c, 15, 53, 0
34, 381960, Note_on_c, 15, 41, 80
34, 382064, Note_on_c, 15, 41, 0
34, 382080, Note_on_c, 15, 41, 80
34, 382184, Note_on_c, 15, 41, 0
34, 382200, Note_on_c, 15, 53, 80
34, 382304, Note_on_c, 15, 53, 0
34, 382320, Note_on_c, 15, 41, 80
34, 382424, Note_on_c, 15, 41, 0
34, 382440, Note_on_c, 15, 41, 80
34, 382544, Note_on_c, 15, 41, 0
34, 382560, Note_on_c, 15, 55, 80
34, 382664, Note_on_c, 15, 55, 0
34, 382680, Note_on_c, 15, 43, 80
34, 382784, Note_on_c, 15, 43, 0
34, 382800, Note_on_c, 15, 43, 80
34, 382904, Note_on_c, 15, 43, 0
34, 382920, Note_on_c, 15, 55, 80
34, 383024, Note_on_c, 15, 55, 0
34, 383040, Note_on_c, 15, 43, 80
34, 383144, Note_on_c, 15, 43, 0
34, 383160, Note_on_c, 15, 43, 80
34, 383264, Note_on_c, 15, 43, 0
34, 383280, Note_on_c, 15, 56, 80
34, 383384, Note_on_c, 15, 56, 0
34, 383400, Note_on_c, 15, 44, 80
34, 383504, Note_on_c, 15, 44, 0
34, 383520, Note_on_c, 15, 44, 80
34, 383624, Note_on_c, 15, 44, 0
34, 383640, Note_on_c, 15, 51, 80
34, 383744, Note_on_c, 15, 51, 0
34, 383760, Note_on_c, 15, 39, 80
34, 383864, Note_on_c, 15, 39, 0
34, 383880, Note_on_c, 15, 39, 80
34, 383984, Note_on_c, 15, 39, 0
34, 384000, Note_on_c, 15, 39, 80
34, 384104, Note_on_c, 15, 39, 0
34, 384120, Note_on_c, 15, 39, 80
34, 384224, Note_on_c, 15, 39, 0
34, 384240, Note_on_c, 15, 39, 80
34, 384344, Note_on_c, 15, 39, 0
34, 384360, Note_on_c, 15, 39, 80
34, 384464, Note_on_c, 15, 39, 0
34, 384480, Note_on_c, 15, 41, 80
34, 384584, Note_on_c, 15, 41, 0
34, 384600, Note_on_c, 15, 42, 80
34, 384704, Note_on_c, 15, 42, 0
34, 384720, Note_on_c, 15, 42, 80
34, 384824, Note_on_c, 15, 42, 0
34, 384840, Note_on_c, 15, 42, 80
34, 384944, Note_on_c, 15, 42, 0
34, 384960, Note_on_c, 15, 42, 80
34, 385064, Note_on_c, 15, 42, 0
34, 385080, Note_on_c, 15, 42, 80
34, 385184, Note_on_c, 15, 42, 0
34, 385200, Note_on_c, 15, 41, 80
34, 385304, Note_on_c, 15, 41, 0
34, 385320, Note_on_c, 15, 39, 80
34, 385424, Note_on_c, 15, 39, 0
34, 385440, Note_on_c, 15, 37, 80
34, 385544, Note_on_c, 15, 37, 0
34, 385560, Note_on_c, 15, 37, 80
34, 385664, Note_on_c, 15, 37, 0
34, 385680, Note_on_c, 15, 37, 80
34, 385784, Note_on_c, 15, 37, 0
34, 385800, Note_on_c, 15, 37, 80
34, 385904, Note_on_c, 15, 37, 0
34, 385920, Note_on_c, 15, 39, 80
34, 386024, Note_on_c, 15, 39, 0
34, 386040, Note_on_c, 15, 41, 80
34, 386144, Note_on_c, 15, 41, 0
34, 386160, Note_on_c, 15, 41, 80
34, 386264, Note_on_c, 15, 41, 0
34, 386280, Note_on_c, 15, 41, 80
34, 386384, Note_on_c, 15, 41, 0
34, 386400, Note_on_c, 15, 41, 80
34, 386504, Note_on_c, 15, 41, 0
34, 386520, Note_on_c, 15, 41, 80
34, 386624, Note_on_c, 15, 41, 0
34, 386640, Note_on_c, 15, 39, 80
34, 386744, Note_on_c, 15, 39, 0
34, 386760, Note_on_c, 15, 37, 80
34, 386864, Note_on_c, 15, 37, 0
34, 386880, Note_on_c, 15, 36, 80
34, 386984, Note_on_c, 15, 36, 0
34, 387000, Note_on_c, 15, 36, 80
34, 387104, Note_on_c, 15, 36, 0
34, 387120, Note_on_c, 15, 36, 80
34, 387224, Note_on_c, 15, 36, 0
34, 387240, Note_on_c, 15, 36, 80
34, 387344, Note_on_c, 15, 36, 0
34, 387360, Note_on_c, 15, 37, 80
34, 387464, Note_on_c, 15, 37, 0
34, 387480, Note_on_c, 15, 39, 80
34, 387584, Note_on_c, 15, 39, 0
34, 387600, Note_on_c, 15, 39, 80
34, 387704, Note_on_c, 15, 39, 0
34, 387720, Note_on_c, 15, 41, 80
34, 387824, Note_on_c, 15, 41, 0
34, 387840, Note_on_c, 15, 42, 80
34, 387944, Note_on_c, 15, 42, 0
34, 387960, Note_on_c, 15, 41, 80
34, 388064, Note_on_c, 15, 41, 0
34, 388080, Note_on_c, 15, 53, 80
34, 388184, Note_on_c, 15, 53, 0
34, 388200, Note_on_c, 15, 53, 80
34, 388304, Note_on_c, 15, 53, 0
34, 388320, Note_on_c, 15, 53, 80
34, 388544, Note_on_c, 15, 53, 0
34, 388560, Note_on_c, 15, 34, 80
34, 388664, Note_on_c, 15, 34, 0
34, 388680, Note_on_c, 15, 34, 92
34, 388739, Note_on_c, 15, 34, 0
34, 388740, Note_on_c, 15, 34, 80
34, 389264, Note_on_c, 15, 34, 0
34, 389280, Note_on_c, 15, 36, 80
34, 389384, Note_on_c, 15, 36, 0
34, 389400, Note_on_c, 15, 36, 92
34, 389459, Note_on_c, 15, 36, 0
34, 389460, Note_on_c, 15, 36, 80
34, 389984, Note_on_c, 15, 36, 0
34, 390000, Note_on_c, 15, 37, 80
34, 390104, Note_on_c, 15, 37, 0
34, 390120, Note_on_c, 15, 42, 80
34, 390344, Note_on_c, 15, 42, 0
34, 390360, Note_on_c, 15, 41, 80
34, 390464, Note_on_c, 15, 41, 0
34, 390480, Note_on_c, 15, 39, 80
34, 390704, Note_on_c, 15, 39, 0
34, 390720, Note_on_c, 15, 39, 80
34, 390824, Note_on_c, 15, 39, 0
34, 390840, Note_on_c, 15, 44, 80
34, 391064, Note_on_c, 15, 44, 0
34, 391080, Note_on_c, 15, 42, 80
34, 391184, Note_on_c, 15, 42, 0
34, 391200, Note_on_c, 15, 41, 80
34, 391424, Note_on_c, 15, 41, 0
34, 391440, Note_on_c, 15, 41, 80
34, 391544, Note_on_c, 15, 41, 0
34, 391560, Note_on_c, 15, 46, 80
34, 391784, Note_on_c, 15, 46, 0
34, 391800, Note_on_c, 15, 44, 80
34, 391904, Note_on_c, 15, 44, 0
34, 391920, Note_on_c, 15, 42, 80
34, 392144, Note_on_c, 15, 42, 0
34, 392160, Note_on_c, 15, 42, 80
34, 392264, Note_on_c, 15, 42, 0
34, 392280, Note_on_c, 15, 47, 80
34, 392504, Note_on_c, 15, 47, 0
34, 392520, Note_on_c, 15, 46, 80
34, 392624, Note_on_c, 15, 46, 0
34, 392640, Note_on_c, 15, 44, 80
34, 392864, Note_on_c, 15, 44, 0
34, 392880, Note_on_c, 15, 44, 80
34, 392984, Note_on_c, 15, 44, 0
34, 393000, Note_on_c, 15, 49, 80
34, 393224, Note_on_c, 15, 49, 0
34, 393240, Note_on_c, 15, 47, 80
34, 393344, Note_on_c, 15, 47, 0
34, 393360, Note_on_c, 15, 46, 80
34, 393464, Note_on_c, 15, 46, 0
34, 393480, Note_on_c, 15, 44, 80
34, 393584, Note_on_c, 15, 44, 0
34, 393600, Note_on_c, 15, 42, 80
34, 393704, Note_on_c, 15, 42, 0
34, 393720, Note_on_c, 15, 49, 80
34, 393824, Note_on_c, 15, 49, 0
34, 393840, Note_on_c, 15, 37, 80
34, 393944, Note_on_c, 15, 37, 0
34, 393960, Note_on_c, 15, 37, 80
34, 394064, Note_on_c, 15, 37, 0
34, 394080, Note_on_c, 15, 42, 80
34, 394319, Note_on_c, 15, 42, 0
34, 394440, Note_on_c, 15, 46, 80
34, 394544, Note_on_c, 15, 46, 0
34, 394560, Note_on_c, 15, 46, 80
34, 394664, Note_on_c, 15, 46, 0
34, 394680, Note_on_c, 15, 46, 80
34, 394784, Note_on_c, 15, 46, 0
34, 394800, Note_on_c, 15, 46, 80
34, 394904, Note_on_c, 15, 46, 0
34, 394920, Note_on_c, 15, 47, 80
34, 395024, Note_on_c, 15, 47, 0
34, 395040, Note_on_c, 15, 49, 80
34, 395144, Note_on_c, 15, 49, 0
34, 395160, Note_on_c, 15, 49, 80
34, 395264, Note_on_c, 15, 49, 0
34, 395280, Note_on_c, 15, 51, 80
34, 395384, Note_on_c, 15, 51, 0
34, 395400, Note_on_c, 15, 49, 80
34, 395504, Note_on_c, 15, 49, 0
34, 395520, Note_on_c, 15, 47, 80
34, 395624, Note_on_c, 15, 47, 0
34, 395640, Note_on_c, 15, 46, 80
34, 395744, Note_on_c, 15, 46, 0
34, 395760, Note_on_c, 15, 44, 80
34, 395864, Note_on_c, 15, 44, 0
34, 395880, Note_on_c, 15, 42, 80
34, 395984, Note_on_c, 15, 42, 0
34, 396000, Note_on_c, 15, 42, 80
34, 396104, Note_on_c, 15, 42, 0
34, 396120, Note_on_c, 15, 42, 80
34, 396224, Note_on_c, 15, 42, 0
34, 396240, Note_on_c, 15, 42, 80
34, 396344, Note_on_c, 15, 42, 0
34, 396360, Note_on_c, 15, 44, 80
34, 396464, Note_on_c, 15, 44, 0
34, 396480, Note_on_c, 15, 46, 80
34, 396584, Note_on_c, 15, 46, 0
34, 396600, Note_on_c, 15, 46, 80
34, 396704, Note_on_c, 15, 46, 0
34, 396720, Note_on_c, 15, 47, 80
34, 396824, Note_on_c, 15, 47, 0
34, 396840, Note_on_c, 15, 46, 80
34, 396944, Note_on_c, 15, 46, 0
34, 396960, Note_on_c, 15, 44, 80
34, 397064, Note_on_c, 15, 44, 0
34, 397080, Note_on_c, 15, 42, 80
34, 397184, Note_on_c, 15, 42, 0
34, 397200, Note_on_c, 15, 41, 80
34, 397304, Note_on_c, 15, 41, 0
34, 397320, Note_on_c, 15, 39, 80
34, 397559, Note_on_c, 15, 39, 0
34, 400560, Note_on_c, 15, 46, 80
34, 400664, Note_on_c, 15, 46, 0
34, 400680, Note_on_c, 15, 46, 80
34, 400784, Note_on_c, 15, 46, 0
34, 400800, Note_on_c, 15, 46, 80
34, 400904, Note_on_c, 15, 46, 0
34, 400920, Note_on_c, 15, 46, 80
34, 401024, Note_on_c, 15, 46, 0
34, 401040, Note_on_c, 15, 48, 80
34, 401144, Note_on_c, 15, 48, 0
34, 401160, Note_on_c, 15, 49, 80
34, 401264, Note_on_c, 15, 49, 0
34, 401280, Note_on_c, 15, 46, 80
34, 401384, Note_on_c, 15, 46, 0
34, 401400, Note_on_c, 15, 44, 80
34, 401504, Note_on_c, 15, 44, 0
34, 401520, Note_on_c, 15, 42, 80
34, 401639, Note_on_c, 15, 42, 0
34, 402360, Note_on_c, 15, 42, 80
34, 402464, Note_on_c, 15, 42, 0
34, 402480, Note_on_c, 15, 42, 80
34, 402584, Note_on_c, 15, 42, 0
34, 402600, Note_on_c, 15, 42, 80
34, 402704, Note_on_c, 15, 42, 0
34, 402720, Note_on_c, 15, 43, 80
34, 402824, Note_on_c, 15, 43, 0
34, 402840, Note_on_c, 15, 55, 80
34, 402944, Note_on_c, 15, 55, 0
34, 402960, Note_on_c, 15, 55, 80
34, 403064, Note_on_c, 15, 55, 0
34, 403080, Note_on_c, 15, 55, 80
34, 403184, Note_on_c, 15, 55, 0
34, 403200, Note_on_c, 15, 54, 80
34, 403304, Note_on_c, 15, 54, 0
34, 403320, Note_on_c, 15, 52, 80
34, 403424, Note_on_c, 15, 52, 0
34, 403440, Note_on_c, 15, 52, 80
34, 403544, Note_on_c, 15, 52, 0
34, 403560, Note_on_c, 15, 50, 80
34, 403664, Note_on_c, 15, 50, 0
34, 403680, Note_on_c, 15, 49, 80
34, 403784, Note_on_c, 15, 49, 0
34, 403800, Note_on_c, 15, 54, 80
34, 403904, Note_on_c, 15, 54, 0
34, 403920, Note_on_c, 15, 42, 80
34, 404024, Note_on_c, 15, 42, 0
34, 404040, Note_on_c, 15, 42, 80
34, 404144, Note_on_c, 15, 42, 0
34, 404160, Note_on_c, 15, 50, 80
34, 404264, Note_on_c, 15, 50, 0
34, 404280, Note_on_c, 15, 50, 80
34, 404384, Note_on_c, 15, 50, 0
34, 404400, Note_on_c, 15, 50, 80
34, 404504, Note_on_c, 15, 50, 0
34, 404520, Note_on_c, 15, 50, 80
34, 404624, Note_on_c, 15, 50, 0
34, 404640, Note_on_c, 15, 52, 80
34, 404744, Note_on_c, 15, 52, 0
34, 404760, Note_on_c, 15, 54, 80
34, 404864, Note_on_c, 15, 54, 0
34, 404880, Note_on_c, 15, 54, 80
34, 404984, Note_on_c, 15, 54, 0
34, 405000, Note_on_c, 15, 55, 80
34, 405104, Note_on_c, 15, 55, 0
34, 405120, Note_on_c, 15, 54, 80
34, 405224, Note_on_c, 15, 54, 0
34, 405240, Note_on_c, 15, 52, 80
34, 405344, Note_on_c, 15, 52, 0
34, 405360, Note_on_c, 15, 50, 80
34, 405464, Note_on_c, 15, 50, 0
34, 405480, Note_on_c, 15, 49, 80
34, 405584, Note_on_c, 15, 49, 0
34, 405600, Note_on_c, 15, 48, 80
34, 405704, Note_on_c, 15, 48, 0
34, 405720, Note_on_c, 15, 47, 80
34, 405824, Note_on_c, 15, 47, 0
34, 405840, Note_on_c, 15, 52, 80
34, 405944, Note_on_c, 15, 52, 0
34, 405960, Note_on_c, 15, 52, 92
34, 406019, Note_on_c, 15, 52, 0
34, 406020, Note_on_c, 15, 52, 80
34, 406544, Note_on_c, 15, 52, 0
34, 406560, Note_on_c, 15, 54, 80
34, 406664, Note_on_c, 15, 54, 0
34, 406680, Note_on_c, 15, 54, 92
34, 406739, Note_on_c, 15, 54, 0
34, 406740, Note_on_c, 15, 54, 80
34, 406919, Note_on_c, 15, 54, 0
34, 407040, Note_on_c, 15, 42, 80
34, 407144, Note_on_c, 15, 42, 0
34, 407160, Note_on_c, 15, 42, 80
34, 407264, Note_on_c, 15, 42, 0
34, 407280, Note_on_c, 15, 42, 80
34, 407384, Note_on_c, 15, 42, 0
34, 407400, Note_on_c, 15, 42, 80
34, 407504, Note_on_c, 15, 42, 0
34, 407520, Note_on_c, 15, 43, 80
34, 407624, Note_on_c, 15, 43, 0
34, 407640, Note_on_c, 15, 45, 80
34, 407744, Note_on_c, 15, 45, 0
34, 407760, Note_on_c, 15, 45, 80
34, 407864, Note_on_c, 15, 45, 0
34, 407880, Note_on_c, 15, 47, 80
34, 407984, Note_on_c, 15, 47, 0
34, 408000, Note_on_c, 15, 45, 80
34, 408104, Note_on_c, 15, 45, 0
34, 408120, Note_on_c, 15, 43, 80
34, 408224, Note_on_c, 15, 43, 0
34, 408240, Note_on_c, 15, 42, 80
34, 408344, Note_on_c, 15, 42, 0
34, 408360, Note_on_c, 15, 40, 80
34, 408464, Note_on_c, 15, 40, 0
34, 408480, Note_on_c, 15, 40, 80
34, 408584, Note_on_c, 15, 40, 0
34, 408600, Note_on_c, 15, 40, 80
34, 408704, Note_on_c, 15, 40, 0
34, 408720, Note_on_c, 15, 51, 80
34, 408824, Note_on_c, 15, 51, 0
34, 408840, Note_on_c, 15, 51, 92
34, 408899, Note_on_c, 15, 51, 0
34, 408900, Note_on_c, 15, 51, 80
34, 409424, Note_on_c, 15, 51, 0
34, 409440, Note_on_c, 15, 51, 80
34, 409544, Note_on_c, 15, 51, 0
34, 409560, Note_on_c, 15, 52, 80
34, 409784, Note_on_c, 15, 52, 0
34, 409800, Note_on_c, 15, 52, 80
34, 409904, Note_on_c, 15, 52, 0
34, 409920, Note_on_c, 15, 49, 80
34, 410144, Note_on_c, 15, 49, 0
34, 410160, Note_on_c, 15, 49, 80
34, 410264, Note_on_c, 15, 49, 0
34, 410280, Note_on_c, 15, 50, 80
34, 410504, Note_on_c, 15, 50, 0
34, 410520, Note_on_c, 15, 50, 80
34, 410624, Note_on_c, 15, 50, 0
34, 410640, Note_on_c, 15, 47, 80
34, 410864, Note_on_c, 15, 47, 0
34, 410880, Note_on_c, 15, 47, 80
34, 410984, Note_on_c, 15, 47, 0
34, 411000, Note_on_c, 15, 49, 80
34, 411224, Note_on_c, 15, 49, 0
34, 411240, Note_on_c, 15, 49, 80
34, 411344, Note_on_c, 15, 49, 0
34, 411360, Note_on_c, 15, 46, 80
34, 411584, Note_on_c, 15, 46, 0
34, 411600, Note_on_c, 15, 46, 80
34, 411704, Note_on_c, 15, 46, 0
34, 411720, Note_on_c, 15, 47, 80
34, 411944, Note_on_c, 15, 47, 0
34, 411960, Note_on_c, 15, 47, 80
34, 412064, Note_on_c, 15, 47, 0
34, 412080, Note_on_c, 15, 52, 80
34, 412184, Note_on_c, 15, 52, 0
34, 412200, Note_on_c, 15, 52, 80
34, 412304, Note_on_c, 15, 52, 0
34, 412320, Note_on_c, 15, 52, 80
34, 412424, Note_on_c, 15, 52, 0
34, 412440, Note_on_c, 15, 50, 80
34, 412544, Note_on_c, 15, 50, 0
34, 412560, Note_on_c, 15, 49, 80
34, 412664, Note_on_c, 15, 49, 0
34, 412680, Note_on_c, 15, 47, 80
34, 412784, Note_on_c, 15, 47, 0
34, 412800, Note_on_c, 15, 46, 80
34, 412904, Note_on_c, 15, 46, 0
34, 412920, Note_on_c, 15, 47, 80
34, 413024, Note_on_c, 15, 47, 0
34, 413040, Note_on_c, 15, 49, 80
34, 413144, Note_on_c, 15, 49, 0
34, 413160, Note_on_c, 15, 49, 92
34, 413264, Note_on_c, 15, 49, 0
34, 413280, Note_on_c, 15, 49, 80
34, 413384, Note_on_c, 15, 49, 0
34, 413400, Note_on_c, 15, 49, 80
34, 413504, Note_on_c, 15, 49, 0
34, 413520, Note_on_c, 15, 49, 80
34, 413624, Note_on_c, 15, 49, 0
34, 413640, Note_on_c, 15, 50, 80
34, 413744, Note_on_c, 15, 50, 0
34, 413760, Note_on_c, 15, 49, 80
34, 413864, Note_on_c, 15, 49, 0
34, 413880, Note_on_c, 15, 47, 80
34, 413984, Note_on_c, 15, 47, 0
34, 414000, Note_on_c, 15, 46, 80
34, 414104, Note_on_c, 15, 46, 0
34, 414120, Note_on_c, 15, 44, 80
34, 414224, Note_on_c, 15, 44, 0
34, 414240, Note_on_c, 15, 32, 80
34, 414464, Note_on_c, 15, 32, 0
34, 414480, Note_on_c, 15, 44, 80
34, 414584, Note_on_c, 15, 44, 0
34, 414600, Note_on_c, 15, 44, 92
34, 414659, Note_on_c, 15, 44, 0
34, 414660, Note_on_c, 15, 44, 80
34, 415184, Note_on_c, 15, 44, 0
34, 415200, Note_on_c, 15, 44, 80
34, 415304, Note_on_c, 15, 44, 0
34, 415320, Note_on_c, 15, 46, 92
34, 415379, Note_on_c, 15, 46, 0
34, 415380, Note_on_c, 15, 46, 80
34, 415559, Note_on_c, 15, 46, 0
34, 415680, Note_on_c, 15, 30, 80
34, 415904, Note_on_c, 15, 30, 0
34, 415920, Note_on_c, 15, 42, 80
34, 416024, Note_on_c, 15, 42, 0
34, 416040, Note_on_c, 15, 42, 92
34, 416099, Note_on_c, 15, 42, 0
34, 416100, Note_on_c, 15, 42, 80
34, 416624, Note_on_c, 15, 42, 0
34, 416640, Note_on_c, 15, 42, 80
34, 416744, Note_on_c, 15, 42, 0
34, 416760, Note_on_c, 15, 44, 92
34, 416819, Note_on_c, 15, 44, 0
34, 416820, Note_on_c, 15, 44, 80
34, 416999, Note_on_c, 15, 44, 0
34, 417120, Note_on_c, 15, 47, 80
34, 417224, Note_on_c, 15, 47, 0
34, 417240, Note_on_c, 15, 49, 80
34, 417344, Note_on_c, 15, 49, 0
34, 417360, Note_on_c, 15, 50, 80
34, 417464, Note_on_c, 15, 50, 0
34, 417480, Note_on_c, 15, 50, 92
34, 417584, Note_on_c, 15, 50, 0
34, 417600, Note_on_c, 15, 50, 80
34, 417704, Note_on_c, 15, 50, 0
34, 417720, Note_on_c, 15, 50, 80
34, 417824, Note_on_c, 15, 50, 0
34, 417840, Note_on_c, 15, 50, 80
34, 417944, Note_on_c, 15, 50, 0
34, 417960, Note_on_c, 15, 52, 80
34, 418064, Note_on_c, 15, 52, 0
34, 418080, Note_on_c, 15, 50, 80
34, 418184, Note_on_c, 15, 50, 0
34, 418200, Note_on_c, 15, 49, 80
34, 418304, Note_on_c, 15, 49, 0
34, 418320, Note_on_c, 15, 50, 80
34, 418424, Note_on_c, 15, 50, 0
34, 418440, Note_on_c, 15, 49, 80
34, 418544, Note_on_c, 15, 49, 0
34, 418560, Note_on_c, 15, 52, 80
34, 418664, Note_on_c, 15, 52, 0
34, 418680, Note_on_c, 15, 54, 80
34, 418784, Note_on_c, 15, 54, 0
34, 418800, Note_on_c, 15, 52, 80
34, 418904, Note_on_c, 15, 52, 0
34, 418920, Note_on_c, 15, 50, 80
34, 419024, Note_on_c, 15, 50, 0
34, 419040, Note_on_c, 15, 52, 80
34, 419144, Note_on_c, 15, 52, 0
34, 419160, Note_on_c, 15, 50, 80
34, 419264, Note_on_c, 15, 50, 0
34, 419280, Note_on_c, 15, 54, 80
34, 419384, Note_on_c, 15, 54, 0
34, 419400, Note_on_c, 15, 55, 80
34, 419504, Note_on_c, 15, 55, 0
34, 419520, Note_on_c, 15, 54, 80
34, 419624, Note_on_c, 15, 54, 0
34, 419640, Note_on_c, 15, 52, 80
34, 419744, Note_on_c, 15, 52, 0
34, 419760, Note_on_c, 15, 54, 80
34, 419864, Note_on_c, 15, 54, 0
34, 419880, Note_on_c, 15, 52, 80
34, 419984, Note_on_c, 15, 52, 0
34, 420000, Note_on_c, 15, 43, 80
34, 420104, Note_on_c, 15, 43, 0
34, 420120, Note_on_c, 15, 45, 80
34, 420224, Note_on_c, 15, 45, 0
34, 420240, Note_on_c, 15, 43, 80
34, 420344, Note_on_c, 15, 43, 0
34, 420360, Note_on_c, 15, 42, 80
34, 420464, Note_on_c, 15, 42, 0
34, 420480, Note_on_c, 15, 43, 80
34, 420584, Note_on_c, 15, 43, 0
34, 420600, Note_on_c, 15, 42, 80
34, 420704, Note_on_c, 15, 42, 0
34, 420720, Note_on_c, 15, 45, 80
34, 420824, Note_on_c, 15, 45, 0
34, 420840, Note_on_c, 15, 47, 80
34, 420944, Note_on_c, 15, 47, 0
34, 420960, Note_on_c, 15, 45, 80
34, 421064, Note_on_c, 15, 45, 0
34, 421080, Note_on_c, 15, 43, 80
34, 421184, Note_on_c, 15, 43, 0
34, 421200, Note_on_c, 15, 45, 80
34, 421304, Note_on_c, 15, 45, 0
34, 421320, Note_on_c, 15, 43, 80
34, 421424, Note_on_c, 15, 43, 0
34, 421440, Note_on_c, 15, 43, 80
34, 421544, Note_on_c, 15, 43, 0
34, 421560, Note_on_c, 15, 45, 80
34, 421664, Note_on_c, 15, 45, 0
34, 421680, Note_on_c, 15, 43, 80
34, 421784, Note_on_c, 15, 43, 0
34, 421800, Note_on_c, 15, 31, 80
34, 421904, Note_on_c, 15, 31, 0
34, 421920, Note_on_c, 15, 33, 80
34, 422024, Note_on_c, 15, 33, 0
34, 422040, Note_on_c, 15, 31, 80
34, 422144, Note_on_c, 15, 31, 0
34, 422160, Note_on_c, 15, 31, 80
34, 422264, Note_on_c, 15, 31, 0
34, 422280, Note_on_c, 15, 33, 80
34, 422384, Note_on_c, 15, 33, 0
34, 422400, Note_on_c, 15, 31, 80
34, 422504, Note_on_c, 15, 31, 0
34, 422520, Note_on_c, 15, 30, 80
34, 422624, Note_on_c, 15, 30, 0
34, 422640, Note_on_c, 15, 31, 80
34, 422744, Note_on_c, 15, 31, 0
34, 422760, Note_on_c, 15, 30, 80
34, 422864, Note_on_c, 15, 30, 0
34, 422880, Note_on_c, 15, 30, 92
34, 423104, Note_on_c, 15, 30, 0
34, 423120, Note_on_c, 15, 42, 92
34, 423224, Note_on_c, 15, 42, 0
34, 423240, Note_on_c, 15, 54, 104
34, 423299, Note_on_c, 15, 54, 0
34, 423300, Note_on_c, 15, 54, 92
34, 423824, Note_on_c, 15, 54, 0
34, 423840, Note_on_c, 15, 54, 92
34, 423944, Note_on_c, 15, 54, 0
34, 423960, Note_on_c, 15, 42, 104
34, 424019, Note_on_c, 15, 42, 0
34, 424020, Note_on_c, 15, 42, 92
34, 424544, Note_on_c, 15, 42, 0
34, 424560, Note_on_c, 15, 42, 92
34, 424664, Note_on_c, 15, 42, 0
34, 424680, Note_on_c, 15, 30, 104
34, 424739, Note_on_c, 15, 30, 0
34, 424740, Note_on_c, 15, 30, 92
34, 425264, Note_on_c, 15, 30, 0
34, 425280, Note_on_c, 15, 30, 92
34, 425384, Note_on_c, 15, 30, 0
34, 425400, Note_on_c, 15, 42, 104
34, 425459, Note_on_c, 15, 42, 0
34, 425460, Note_on_c, 15, 42, 92
34, 425984, Note_on_c, 15, 42, 0
34, 426000, Note_on_c, 15, 42, 92
34, 426104, Note_on_c, 15, 42, 0
34, 426120, Note_on_c, 15, 54, 104
34, 426179, Note_on_c, 15, 54, 0
34, 426180, Note_on_c, 15, 54, 92
34, 426704, Note_on_c, 15, 54, 0
34, 426720, Note_on_c, 15, 54, 92
34, 426824, Note_on_c, 15, 54, 0
34, 426840, Note_on_c, 15, 42, 104
34, 426899, Note_on_c, 15, 42, 0
34, 426900, Note_on_c, 15, 42, 92
34, 427424, Note_on_c, 15, 42, 0
34, 427440, Note_on_c, 15, 42, 92
34, 427544, Note_on_c, 15, 42, 0
34, 427560, Note_on_c, 15, 30, 104
34, 427619, Note_on_c, 15, 30, 0
34, 427620, Note_on_c, 15, 30, 92
34, 428144, Note_on_c, 15, 30, 0
34, 428160, Note_on_c, 15, 30, 92
34, 428264, Note_on_c, 15, 30, 0
34, 428280, Note_on_c, 15, 42, 104
34, 428339, Note_on_c, 15, 42, 0
34, 428340, Note_on_c, 15, 42, 92
34, 428879, Note_on_c, 15, 42, 0
34, 431520, Note_on_c, 15, 35, 44
34, 432239, Note_on_c, 15, 35, 0
34, 432240, Note_on_c, 15, 35, 44
34, 432959, Note_on_c, 15, 35, 0
34, 435840, Note_on_c, 15, 35, 32
34, 436559, Note_on_c, 15, 35, 0
34, 436560, Note_on_c, 15, 35, 32
34, 437279, Note_on_c, 15, 35, 0
34, 440160, Note_on_c, 15, 33, 92
34, 440879, Note_on_c, 15, 33, 0
34, 440880, Note_on_c, 15, 33, 92
34, 441359, Note_on_c, 15, 33, 0
34, 441360, Note_on_c, 15, 35, 92
34, 441479, Note_on_c, 15, 35, 0
34, 441480, Note_on_c, 15, 37, 92
34, 441584, Note_on_c, 15, 37, 0
34, 441600, Note_on_c, 15, 38, 92
34, 441689, Note_on_c, 15, 38, 0
34, 441720, Note_on_c, 15, 50, 92
34, 441809, Note_on_c, 15, 50, 0
34, 441840, Note_on_c, 15, 49, 92
34, 441929, Note_on_c, 15, 49, 0
34, 441960, Note_on_c, 15, 47, 92
34, 442049, Note_on_c, 15, 47, 0
34, 442080, Note_on_c, 15, 45, 92
34, 442169, Note_on_c, 15, 45, 0
34, 442200, Note_on_c, 15, 43, 92
34, 442289, Note_on_c, 15, 43, 0
34, 442320, Note_on_c, 15, 42, 92
34, 442409, Note_on_c, 15, 42, 0
34, 442440, Note_on_c, 15, 40, 92
34, 442529, Note_on_c, 15, 40, 0
34, 442560, Note_on_c, 15, 38, 92
34, 442649, Note_on_c, 15, 38, 0
34, 442680, Note_on_c, 15, 37, 92
34, 442769, Note_on_c, 15, 37, 0
34, 442800, Note_on_c, 15, 35, 92
34, 442889, Note_on_c, 15, 35, 0
34, 442920, Note_on_c, 15, 45, 92
34, 443009, Note_on_c, 15, 45, 0
34, 443040, Note_on_c, 15, 33, 92
34, 443129, Note_on_c, 15, 33, 0
34, 443160, Note_on_c, 15, 45, 92
34, 443249, Note_on_c, 15, 45, 0
34, 443280, Note_on_c, 15, 47, 92
34, 443369, Note_on_c, 15, 47, 0
34, 443400, Note_on_c, 15, 49, 92
34, 443489, Note_on_c, 15, 49, 0
34, 443520, Note_on_c, 15, 50, 92
34, 443609, Note_on_c, 15, 50, 0
34, 443640, Note_on_c, 15, 52, 92
34, 443729, Note_on_c, 15, 52, 0
34, 443760, Note_on_c, 15, 54, 92
34, 443849, Note_on_c, 15, 54, 0
34, 443880, Note_on_c, 15, 43, 92
34, 443969, Note_on_c, 15, 43, 0
34, 444000, Note_on_c, 15, 45, 92
34, 444089, Note_on_c, 15, 45, 0
34, 444120, Note_on_c, 15, 47, 92
34, 444209, Note_on_c, 15, 47, 0
34, 444240, Note_on_c, 15, 45, 92
34, 444329, Note_on_c, 15, 45, 0
34, 444360, Note_on_c, 15, 49, 92
34, 444449, Note_on_c, 15, 49, 0
34, 444480, Note_on_c, 15, 50, 92
34, 444569, Note_on_c, 15, 50, 0
34, 444600, Note_on_c, 15, 45, 92
34, 444689, Note_on_c, 15, 45, 0
34, 444720, Note_on_c, 15, 43, 92
34, 444809, Note_on_c, 15, 43, 0
34, 444840, Note_on_c, 15, 42, 92
34, 444929, Note_on_c, 15, 42, 0
34, 444960, Note_on_c, 15, 40, 92
34, 445049, Note_on_c, 15, 40, 0
34, 445080, Note_on_c, 15, 38, 92
34, 445169, Note_on_c, 15, 38, 0
34, 445200, Note_on_c, 15, 37, 92
34, 445289, Note_on_c, 15, 37, 0
34, 445320, Note_on_c, 15, 38, 92
34, 445409, Note_on_c, 15, 38, 0
34, 445440, Note_on_c, 15, 35, 92
34, 445529, Note_on_c, 15, 35, 0
34, 445560, Note_on_c, 15, 33, 92
34, 445649, Note_on_c, 15, 33, 0
34, 445680, Note_on_c, 15, 35, 92
34, 445769, Note_on_c, 15, 35, 0
34, 445800, Note_on_c, 15, 32, 92
34, 445889, Note_on_c, 15, 32, 0
34, 445920, Note_on_c, 15, 33, 92
34, 446009, Note_on_c, 15, 33, 0
34, 446040, Note_on_c, 15, 45, 92
34, 446129, Note_on_c, 15, 45, 0
34, 446160, Note_on_c, 15, 47, 92
34, 446249, Note_on_c, 15, 47, 0
34, 446280, Note_on_c, 15, 49, 92
34, 446369, Note_on_c, 15, 49, 0
34, 446400, Note_on_c, 15, 50, 92
34, 446489, Note_on_c, 15, 50, 0
34, 446520, Note_on_c, 15, 52, 92
34, 446609, Note_on_c, 15, 52, 0
34, 446640, Note_on_c, 15, 54, 92
34, 446729, Note_on_c, 15, 54, 0
34, 446760, Note_on_c, 15, 55, 92
34, 446849, Note_on_c, 15, 55, 0
34, 446880, Note_on_c, 15, 45, 92
34, 446969, Note_on_c, 15, 45, 0
34, 447000, Note_on_c, 15, 47, 92
34, 447089, Note_on_c, 15, 47, 0
34, 447120, Note_on_c, 15, 45, 92
34, 447209, Note_on_c, 15, 45, 0
34, 447240, Note_on_c, 15, 49, 92
34, 447329, Note_on_c, 15, 49, 0
34, 447360, Note_on_c, 15, 50, 92
34, 447449, Note_on_c, 15, 50, 0
34, 447480, Note_on_c, 15, 47, 92
34, 447569, Note_on_c, 15, 47, 0
34, 447600, Note_on_c, 15, 45, 92
34, 447689, Note_on_c, 15, 45, 0
34, 447720, Note_on_c, 15, 43, 92
34, 447809, Note_on_c, 15, 43, 0
34, 447840, Note_on_c, 15, 42, 92
34, 447929, Note_on_c, 15, 42, 0
34, 447960, Note_on_c, 15, 40, 92
34, 448049, Note_on_c, 15, 40, 0
34, 448080, Note_on_c, 15, 38, 92
34, 448169, Note_on_c, 15, 38, 0
34, 448200, Note_on_c, 15, 40, 92
34, 448289, Note_on_c, 15, 40, 0
34, 448320, Note_on_c, 15, 38, 92
34, 448409, Note_on_c, 15, 38, 0
34, 448440, Note_on_c, 15, 36, 92
34, 448529, Note_on_c, 15, 36, 0
34, 448560, Note_on_c, 15, 35, 92
34, 448649, Note_on_c, 15, 35, 0
34, 448680, Note_on_c, 15, 33, 92
34, 448769, Note_on_c, 15, 33, 0
34, 448800, Note_on_c, 15, 31, 92
34, 448889, Note_on_c, 15, 31, 0
34, 448920, Note_on_c, 15, 45, 92
34, 449009, Note_on_c, 15, 45, 0
34, 449040, Note_on_c, 15, 47, 92
34, 449129, Note_on_c, 15, 47, 0
34, 449160, Note_on_c, 15, 48, 92
34, 449249, Note_on_c, 15, 48, 0
34, 449280, Note_on_c, 15, 50, 92
34, 449369, Note_on_c, 15, 50, 0
34, 449400, Note_on_c, 15, 52, 92
34, 449489, Note_on_c, 15, 52, 0
34, 449520, Note_on_c, 15, 54, 92
34, 449609, Note_on_c, 15, 54, 0
34, 449640, Note_on_c, 15, 55, 92
34, 449729, Note_on_c, 15, 55, 0
34, 449760, Note_on_c, 15, 45, 92
34, 449849, Note_on_c, 15, 45, 0
34, 449880, Note_on_c, 15, 47, 92
34, 449969, Note_on_c, 15, 47, 0
34, 450000, Note_on_c, 15, 31, 92
34, 450089, Note_on_c, 15, 31, 0
34, 450120, Note_on_c, 15, 31, 92
34, 450209, Note_on_c, 15, 31, 0
34, 450240, Note_on_c, 15, 33, 92
34, 450329, Note_on_c, 15, 33, 0
34, 450360, Note_on_c, 15, 55, 92
34, 450449, Note_on_c, 15, 55, 0
34, 450480, Note_on_c, 15, 54, 92
34, 450569, Note_on_c, 15, 54, 0
34, 450600, Note_on_c, 15, 52, 92
34, 450689, Note_on_c, 15, 52, 0
34, 450720, Note_on_c, 15, 50, 92
34, 450809, Note_on_c, 15, 50, 0
34, 450840, Note_on_c, 15, 49, 92
34, 450929, Note_on_c, 15, 49, 0
34, 450960, Note_on_c, 15, 47, 92
34, 451049, Note_on_c, 15, 47, 0
34, 451080, Note_on_c, 15, 45, 92
34, 451169, Note_on_c, 15, 45, 0
34, 451200, Note_on_c, 15, 50, 92
34, 451289, Note_on_c, 15, 50, 0
34, 451320, Note_on_c, 15, 45, 92
34, 451409, Note_on_c, 15, 45, 0
34, 451440, Note_on_c, 15, 42, 92
34, 451529, Note_on_c, 15, 42, 0
34, 451560, Note_on_c, 15, 38, 92
34, 451649, Note_on_c, 15, 38, 0
34, 451680, Note_on_c, 15, 35, 92
34, 451769, Note_on_c, 15, 35, 0
34, 451800, Note_on_c, 15, 33, 92
34, 451889, Note_on_c, 15, 33, 0
34, 451920, Note_on_c, 15, 32, 92
34, 452009, Note_on_c, 15, 32, 0
34, 452040, Note_on_c, 15, 33, 92
34, 452129, Note_on_c, 15, 33, 0
34, 452160, Note_on_c, 15, 45, 92
34, 452249, Note_on_c, 15, 45, 0
34, 452280, Note_on_c, 15, 45, 92
34, 452369, Note_on_c, 15, 45, 0
34, 452400, Note_on_c, 15, 38, 92
34, 452489, Note_on_c, 15, 38, 0
34, 452520, Note_on_c, 15, 45, 92
34, 452609, Note_on_c, 15, 45, 0
34, 452640, Note_on_c, 15, 44, 92
34, 452729, Note_on_c, 15, 44, 0
34, 452760, Note_on_c, 15, 45, 92
34, 452849, Note_on_c, 15, 45, 0
34, 452880, Note_on_c, 15, 42, 92
34, 452969, Note_on_c, 15, 42, 0
34, 453000, Note_on_c, 15, 38, 92
34, 453089, Note_on_c, 15, 38, 0
34, 453120, Note_on_c, 15, 33, 92
34, 453209, Note_on_c, 15, 33, 0
34, 453240, Note_on_c, 15, 45, 92
34, 453329, Note_on_c, 15, 45, 0
34, 453360, Note_on_c, 15, 44, 92
34, 453449, Note_on_c, 15, 44, 0
34, 453480, Note_on_c, 15, 45, 92
34, 453569, Note_on_c, 15, 45, 0
34, 453600, Note_on_c, 15, 40, 92
34, 453689, Note_on_c, 15, 40, 0
34, 453720, Note_on_c, 15, 37, 92
34, 453809, Note_on_c, 15, 37, 0
34, 453840, Note_on_c, 15, 33, 92
34, 453929, Note_on_c, 15, 33, 0
34, 453960, Note_on_c, 15, 45, 92
34, 454049, Note_on_c, 15, 45, 0
34, 454080, Note_on_c, 15, 44, 92
34, 454169, Note_on_c, 15, 44, 0
34, 454200, Note_on_c, 15, 45, 92
34, 454289, Note_on_c, 15, 45, 0
34, 454320, Note_on_c, 15, 42, 92
34, 454409, Note_on_c, 15, 42, 0
34, 454440, Note_on_c, 15, 38, 92
34, 454529, Note_on_c, 15, 38, 0
34, 454560, Note_on_c, 15, 33, 92
34, 454649, Note_on_c, 15, 33, 0
34, 454680, Note_on_c, 15, 45, 92
34, 454769, Note_on_c, 15, 45, 0
34, 454800, Note_on_c, 15, 47, 92
34, 454889, Note_on_c, 15, 47, 0
34, 454920, Note_on_c, 15, 45, 92
34, 455009, Note_on_c, 15, 45, 0
34, 455040, Note_on_c, 15, 33, 92
34, 455129, Note_on_c, 15, 33, 0
34, 455160, Note_on_c, 15, 33, 92
34, 455249, Note_on_c, 15, 33, 0
34, 455280, Note_on_c, 15, 33, 92
34, 455369, Note_on_c, 15, 33, 0
34, 455400, Note_on_c, 15, 45, 92
34, 455489, Note_on_c, 15, 45, 0
34, 455520, Note_on_c, 15, 44, 92
34, 455609, Note_on_c, 15, 44, 0
34, 455640, Note_on_c, 15, 45, 92
34, 455729, Note_on_c, 15, 45, 0
34, 455760, Note_on_c, 15, 42, 92
34, 455849, Note_on_c, 15, 42, 0
34, 455880, Note_on_c, 15, 38, 92
34, 455969, Note_on_c, 15, 38, 0
34, 456000, Note_on_c, 15, 33, 92
34, 456089, Note_on_c, 15, 33, 0
34, 456120, Note_on_c, 15, 45, 92
34, 456209, Note_on_c, 15, 45, 0
34, 456240, Note_on_c, 15, 47, 92
34, 456329, Note_on_c, 15, 47, 0
34, 456360, Note_on_c, 15, 45, 92
34, 456449, Note_on_c, 15, 45, 0
34, 456480, Note_on_c, 15, 33, 92
34, 456569, Note_on_c, 15, 33, 0
34, 456600, Note_on_c, 15, 33, 92
34, 456689, Note_on_c, 15, 33, 0
34, 456720, Note_on_c, 15, 34, 92
34, 456809, Note_on_c, 15, 34, 0
34, 456840, Note_on_c, 15, 46, 92
34, 456929, Note_on_c, 15, 46, 0
34, 456960, Note_on_c, 15, 46, 92
34, 457049, Note_on_c, 15, 46, 0
34, 457080, Note_on_c, 15, 30, 92
34, 457169, Note_on_c, 15, 30, 0
34, 457200, Note_on_c, 15, 42, 92
34, 457289, Note_on_c, 15, 42, 0
34, 457320, Note_on_c, 15, 42, 92
34, 457409, Note_on_c, 15, 42, 0
34, 457440, Note_on_c, 15, 35, 92
34, 457529, Note_on_c, 15, 35, 0
34, 457560, Note_on_c, 15, 47, 92
34, 457649, Note_on_c, 15, 47, 0
34, 457680, Note_on_c, 15, 47, 92
34, 457769, Note_on_c, 15, 47, 0
34, 457800, Note_on_c, 15, 28, 92
34, 457889, Note_on_c, 15, 28, 0
34, 457920, Note_on_c, 15, 40, 92
34, 458009, Note_on_c, 15, 40, 0
34, 458040, Note_on_c, 15, 40, 92
34, 458129, Note_on_c, 15, 40, 0
34, 458160, Note_on_c, 15, 33, 92
34, 458249, Note_on_c, 15, 33, 0
34, 458280, Note_on_c, 15, 45, 92
34, 458369, Note_on_c, 15, 45, 0
34, 458400, Note_on_c, 15, 45, 92
34, 458489, Note_on_c, 15, 45, 0
34, 458520, Note_on_c, 15, 33, 92
34, 458609, Note_on_c, 15, 33, 0
34, 458640, Note_on_c, 15, 45, 92
34, 458729, Note_on_c, 15, 45, 0
34, 458760, Note_on_c, 15, 45, 92
34, 458849, Note_on_c, 15, 45, 0
34, 458880, Note_on_c, 15, 38, 92
34, 458969, Note_on_c, 15, 38, 0
34, 459000, Note_on_c, 15, 50, 92
34, 459089, Note_on_c, 15, 50, 0
34, 459120, Note_on_c, 15, 48, 92
34, 459209, Note_on_c, 15, 48, 0
34, 459240, Note_on_c, 15, 47, 92
34, 459329, Note_on_c, 15, 47, 0
34, 459360, Note_on_c, 15, 45, 92
34, 459449, Note_on_c, 15, 45, 0
34, 459480, Note_on_c, 15, 43, 92
34, 459569, Note_on_c, 15, 43, 0
34, 459600, Note_on_c, 15, 42, 92
34, 459689, Note_on_c, 15, 42, 0
34, 459720, Note_on_c, 15, 40, 92
34, 459809, Note_on_c, 15, 40, 0
34, 459840, Note_on_c, 15, 38, 92
34, 459929, Note_on_c, 15, 38, 0
34, 459960, Note_on_c, 15, 36, 92
34, 460049, Note_on_c, 15, 36, 0
34, 460080, Note_on_c, 15, 35, 92
34, 460169, Note_on_c, 15, 35, 0
34, 460200, Note_on_c, 15, 33, 92
34, 460289, Note_on_c, 15, 33, 0
34, 460320, Note_on_c, 15, 31, 92
34, 460409, Note_on_c, 15, 31, 0
34, 460440, Note_on_c, 15, 45, 92
34, 460529, Note_on_c, 15, 45, 0
34, 460560, Note_on_c, 15, 47, 92
34, 460649, Note_on_c, 15, 47, 0
34, 460680, Note_on_c, 15, 48, 92
34, 460769, Note_on_c, 15, 48, 0
34, 460800, Note_on_c, 15, 50, 92
34, 460889, Note_on_c, 15, 50, 0
34, 460920, Note_on_c, 15, 52, 92
34, 461009, Note_on_c, 15, 52, 0
34, 461040, Note_on_c, 15, 54, 92
34, 461129, Note_on_c, 15, 54, 0
34, 461160, Note_on_c, 15, 55, 92
34, 461249, Note_on_c, 15, 55, 0
34, 461280, Note_on_c, 15, 45, 92
34, 461369, Note_on_c, 15, 45, 0
34, 461400, Note_on_c, 15, 47, 92
34, 461489, Note_on_c, 15, 47, 0
34, 461520, Note_on_c, 15, 31, 92
34, 461609, Note_on_c, 15, 31, 0
34, 461640, Note_on_c, 15, 31, 92
34, 461729, Note_on_c, 15, 31, 0
34, 461760, Note_on_c, 15, 33, 92
34, 461849, Note_on_c, 15, 33, 0
34, 461880, Note_on_c, 15, 55, 92
34, 461969, Note_on_c, 15, 55, 0
34, 462000, Note_on_c, 15, 54, 92
34, 462089, Note_on_c, 15, 54, 0
34, 462120, Note_on_c, 15, 52, 92
34, 462209, Note_on_c, 15, 52, 0
34, 462240, Note_on_c, 15, 50, 92
34, 462329, Note_on_c, 15, 50, 0
34, 462360, Note_on_c, 15, 49, 92
34, 462449, Note_on_c, 15, 49, 0
34, 462480, Note_on_c, 15, 47, 92
34, 462569, Note_on_c, 15, 47, 0
34, 462600, Note_on_c, 15, 45, 92
34, 462689, Note_on_c, 15, 45, 0
34, 462720, Note_on_c, 15, 50, 92
34, 462809, Note_on_c, 15, 50, 0
34, 462840, Note_on_c, 15, 45, 92
34, 462929, Note_on_c, 15, 45, 0
34, 462960, Note_on_c, 15, 42, 92
34, 463049, Note_on_c, 15, 42, 0
34, 463080, Note_on_c, 15, 38, 92
34, 463169, Note_on_c, 15, 38, 0
34, 463200, Note_on_c, 15, 35, 92
34, 463289, Note_on_c, 15, 35, 0
34, 463320, Note_on_c, 15, 33, 92
34, 463409, Note_on_c, 15, 33, 0
34, 463440, Note_on_c, 15, 32, 92
34, 463529, Note_on_c, 15, 32, 0
34, 463560, Note_on_c, 15, 33, 92
34, 463649, Note_on_c, 15, 33, 0
34, 463680, Note_on_c, 15, 45, 92
34, 463769, Note_on_c, 15, 45, 0
34, 463800, Note_on_c, 15, 45, 92
34, 463889, Note_on_c, 15, 45, 0
34, 463920, Note_on_c, 15, 38, 92
34, 464009, Note_on_c, 15, 38, 0
34, 464040, Note_on_c, 15, 45, 92
34, 464129, Note_on_c, 15, 45, 0
34, 464160, Note_on_c, 15, 44, 92
34, 464249, Note_on_c, 15, 44, 0
34, 464280, Note_on_c, 15, 45, 92
34, 464369, Note_on_c, 15, 45, 0
34, 464400, Note_on_c, 15, 42, 92
34, 464489, Note_on_c, 15, 42, 0
34, 464520, Note_on_c, 15, 38, 92
34, 464609, Note_on_c, 15, 38, 0
34, 464640, Note_on_c, 15, 33, 92
34, 464729, Note_on_c, 15, 33, 0
34, 464760, Note_on_c, 15, 45, 92
34, 464849, Note_on_c, 15, 45, 0
34, 464880, Note_on_c, 15, 44, 92
34, 464969, Note_on_c, 15, 44, 0
34, 465000, Note_on_c, 15, 45, 92
34, 465089, Note_on_c, 15, 45, 0
34, 465120, Note_on_c, 15, 40, 92
34, 465209, Note_on_c, 15, 40, 0
34, 465240, Note_on_c, 15, 37, 92
34, 465329, Note_on_c, 15, 37, 0
34, 465360, Note_on_c, 15, 33, 92
34, 465449, Note_on_c, 15, 33, 0
34, 465480, Note_on_c, 15, 45, 92
34, 465569, Note_on_c, 15, 45, 0
34, 465600, Note_on_c, 15, 44, 92
34, 465689, Note_on_c, 15, 44, 0
34, 465720, Note_on_c, 15, 45, 92
34, 465809, Note_on_c, 15, 45, 0
34, 465840, Note_on_c, 15, 42, 92
34, 465929, Note_on_c, 15, 42, 0
34, 465960, Note_on_c, 15, 38, 92
34, 466049, Note_on_c, 15, 38, 0
34, 466080, Note_on_c, 15, 33, 92
34, 466169, Note_on_c, 15, 33, 0
34, 466200, Note_on_c, 15, 45, 92
34, 466289, Note_on_c, 15, 45, 0
34, 466320, Note_on_c, 15, 47, 92
34, 466409, Note_on_c, 15, 47, 0
34, 466440, Note_on_c, 15, 45, 92
34, 466529, Note_on_c, 15, 45, 0
34, 466560, Note_on_c, 15, 33, 92
34, 466649, Note_on_c, 15, 33, 0
34, 466680, Note_on_c, 15, 33, 92
34, 466769, Note_on_c, 15, 33, 0
34, 466800, Note_on_c, 15, 33, 92
34, 466889, Note_on_c, 15, 33, 0
34, 466920, Note_on_c, 15, 45, 92
34, 467009, Note_on_c, 15, 45, 0
34, 467040, Note_on_c, 15, 44, 92
34, 467129, Note_on_c, 15, 44, 0
34, 467160, Note_on_c, 15, 45, 92
34, 467249, Note_on_c, 15, 45, 0
34, 467280, Note_on_c, 15, 42, 92
34, 467369, Note_on_c, 15, 42, 0
34, 467400, Note_on_c, 15, 38, 92
34, 467489, Note_on_c, 15, 38, 0
34, 467520, Note_on_c, 15, 33, 92
34, 467609, Note_on_c, 15, 33, 0
34, 467640, Note_on_c, 15, 45, 92
34, 467729, Note_on_c, 15, 45, 0
34, 467760, Note_on_c, 15, 47, 92
34, 467849, Note_on_c, 15, 47, 0
34, 467880, Note_on_c, 15, 45, 92
34, 467969, Note_on_c, 15, 45, 0
34, 468000, Note_on_c, 15, 33, 92
34, 468089, Note_on_c, 15, 33, 0
34, 468120, Note_on_c, 15, 33, 92
34, 468209, Note_on_c, 15, 33, 0
34, 468240, Note_on_c, 15, 34, 92
34, 468329, Note_on_c, 15, 34, 0
34, 468360, Note_on_c, 15, 46, 92
34, 468449, Note_on_c, 15, 46, 0
34, 468480, Note_on_c, 15, 46, 92
34, 468569, Note_on_c, 15, 46, 0
34, 468600, Note_on_c, 15, 30, 92
34, 468689, Note_on_c, 15, 30, 0
34, 468720, Note_on_c, 15, 42, 92
34, 468809, Note_on_c, 15, 42, 0
34, 468840, Note_on_c, 15, 42, 92
34, 468929, Note_on_c, 15, 42, 0
34, 468960, Note_on_c, 15, 35, 92
34, 469049, Note_on_c, 15, 35, 0
34, 469080, Note_on_c, 15, 47, 92
34, 469169, Note_on_c, 15, 47, 0
34, 469200, Note_on_c, 15, 47, 92
34, 469289, Note_on_c, 15, 47, 0
34, 469320, Note_on_c, 15, 28, 92
34, 469409, Note_on_c, 15, 28, 0
34, 469440, Note_on_c, 15, 40, 92
34, 469529, Note_on_c, 15, 40, 0
34, 469560, Note_on_c, 15, 40, 92
34, 469649, Note_on_c, 15, 40, 0
34, 469680, Note_on_c, 15, 33, 92
34, 469769, Note_on_c, 15, 33, 0
34, 469800, Note_on_c, 15, 45, 92
34, 469889, Note_on_c, 15, 45, 0
34, 469920, Note_on_c, 15, 45, 92
34, 470009, Note_on_c, 15, 45, 0
34, 470040, Note_on_c, 15, 33, 92
34, 470129, Note_on_c, 15, 33, 0
34, 470160, Note_on_c, 15, 45, 92
34, 470249, Note_on_c, 15, 45, 0
34, 470280, Note_on_c, 15, 45, 92
34, 470369, Note_on_c, 15, 45, 0
34, 470400, Note_on_c, 15, 38, 92
34, 470489, Note_on_c, 15, 38, 0
34, 470520, Note_on_c, 15, 50, 92
34, 470609, Note_on_c, 15, 50, 0
34, 470640, Note_on_c, 15, 48, 92
34, 470729, Note_on_c, 15, 48, 0
34, 470760, Note_on_c, 15, 47, 92
34, 470849, Note_on_c, 15, 47, 0
34, 470880, Note_on_c, 15, 45, 92
34, 470969, Note_on_c, 15, 45, 0
34, 471000, Note_on_c, 15, 43, 92
34, 471089, Note_on_c, 15, 43, 0
34, 471120, Note_on_c, 15, 42, 92
34, 471209, Note_on_c, 15, 42, 0
34, 471240, Note_on_c, 15, 40, 92
34, 471329, Note_on_c, 15, 40, 0
34, 471360, Note_on_c, 15, 38, 92
34, 471449, Note_on_c, 15, 38, 0
34, 471480, Note_on_c, 15, 36, 92
34, 471569, Note_on_c, 15, 36, 0
34, 471600, Note_on_c, 15, 35, 92
34, 471689, Note_on_c, 15, 35, 0
34, 471720, Note_on_c, 15, 33, 92
34, 471809, Note_on_c, 15, 33, 0
34, 471840, Note_on_c, 15, 31, 92
34, 471929, Note_on_c, 15, 31, 0
34, 471960, Note_on_c, 15, 45, 92
34, 472049, Note_on_c, 15, 45, 0
34, 472080, Note_on_c, 15, 47, 92
34, 472169, Note_on_c, 15, 47, 0
34, 472200, Note_on_c, 15, 48, 92
34, 472289, Note_on_c, 15, 48, 0
34, 472320, Note_on_c, 15, 50, 92
34, 472409, Note_on_c, 15, 50, 0
34, 472440, Note_on_c, 15, 52, 92
34, 472529, Note_on_c, 15, 52, 0
34, 472560, Note_on_c, 15, 54, 92
34, 472649, Note_on_c, 15, 54, 0
34, 472680, Note_on_c, 15, 55, 92
34, 472769, Note_on_c, 15, 55, 0
34, 472800, Note_on_c, 15, 45, 92
34, 472889, Note_on_c, 15, 45, 0
34, 472920, Note_on_c, 15, 47, 92
34, 473009, Note_on_c, 15, 47, 0
34, 473040, Note_on_c, 15, 31, 92
34, 473129, Note_on_c, 15, 31, 0
34, 473160, Note_on_c, 15, 31, 92
34, 473249, Note_on_c, 15, 31, 0
34, 473280, Note_on_c, 15, 33, 92
34, 473369, Note_on_c, 15, 33, 0
34, 473400, Note_on_c, 15, 55, 92
34, 473489, Note_on_c, 15, 55, 0
34, 473520, Note_on_c, 15, 54, 92
34, 473609, Note_on_c, 15, 54, 0
34, 473640, Note_on_c, 15, 52, 92
34, 473729, Note_on_c, 15, 52, 0
34, 473760, Note_on_c, 15, 50, 92
34, 473849, Note_on_c, 15, 50, 0
34, 473880, Note_on_c, 15, 49, 92
34, 473969, Note_on_c, 15, 49, 0
34, 474000, Note_on_c, 15, 47, 92
34, 474089, Note_on_c, 15, 47, 0
34, 474120, Note_on_c, 15, 45, 92
34, 474209, Note_on_c, 15, 45, 0
34, 474240, Note_on_c, 15, 50, 92
34, 474329, Note_on_c, 15, 50, 0
34, 474360, Note_on_c, 15, 45, 92
34, 474449, Note_on_c, 15, 45, 0
34, 474480, Note_on_c, 15, 42, 92
34, 474569, Note_on_c, 15, 42, 0
34, 474600, Note_on_c, 15, 38, 92
34, 474689, Note_on_c, 15, 38, 0
34, 474720, Note_on_c, 15, 35, 92
34, 474809, Note_on_c, 15, 35, 0
34, 474840, Note_on_c, 15, 33, 92
34, 474929, Note_on_c, 15, 33, 0
34, 474960, Note_on_c, 15, 32, 92
34, 475049, Note_on_c, 15, 32, 0
34, 475080, Note_on_c, 15, 33, 92
34, 475169, Note_on_c, 15, 33, 0
34, 475200, Note_on_c, 15, 45, 92
34, 475289, Note_on_c, 15, 45, 0
34, 475320, Note_on_c, 15, 45, 92
34, 475409, Note_on_c, 15, 45, 0
34, 475440, Note_on_c, 15, 38, 92
34, 475529, Note_on_c, 15, 38, 0
34, 475560, Note_on_c, 15, 50, 92
34, 475649, Note_on_c, 15, 50, 0
34, 475680, Note_on_c, 15, 49, 92
34, 475769, Note_on_c, 15, 49, 0
34, 475800, Note_on_c, 15, 50, 92
34, 475889, Note_on_c, 15, 50, 0
34, 475920, Note_on_c, 15, 42, 92
34, 476009, Note_on_c, 15, 42, 0
34, 476040, Note_on_c, 15, 45, 92
34, 476129, Note_on_c, 15, 45, 0
34, 476160, Note_on_c, 15, 38, 104
34, 476249, Note_on_c, 15, 38, 0
34, 476280, Note_on_c, 15, 38, 92
34, 476369, Note_on_c, 15, 38, 0
34, 476400, Note_on_c, 15, 37, 92
34, 476489, Note_on_c, 15, 37, 0
34, 476520, Note_on_c, 15, 38, 92
34, 476609, Note_on_c, 15, 38, 0
34, 476640, Note_on_c, 15, 42, 92
34, 476729, Note_on_c, 15, 42, 0
34, 476760, Note_on_c, 15, 45, 92
34, 476849, Note_on_c, 15, 45, 0
34, 476880, Note_on_c, 15, 48, 92
34, 476969, Note_on_c, 15, 48, 0
34, 477000, Note_on_c, 15, 40, 92
34, 477089, Note_on_c, 15, 40, 0
34, 477120, Note_on_c, 15, 38, 92
34, 477209, Note_on_c, 15, 38, 0
34, 477240, Note_on_c, 15, 36, 92
34, 477329, Note_on_c, 15, 36, 0
34, 477360, Note_on_c, 15, 35, 92
34, 477449, Note_on_c, 15, 35, 0
34, 477480, Note_on_c, 15, 33, 92
34, 477569, Note_on_c, 15, 33, 0
34, 477600, Note_on_c, 15, 31, 104
34, 477689, Note_on_c, 15, 31, 0
34, 477720, Note_on_c, 15, 35, 92
34, 477809, Note_on_c, 15, 35, 0
34, 477840, Note_on_c, 15, 38, 92
34, 477929, Note_on_c, 15, 38, 0
34, 477960, Note_on_c, 15, 43, 92
34, 478049, Note_on_c, 15, 43, 0
34, 478080, Note_on_c, 15, 47, 92
34, 478169, Note_on_c, 15, 47, 0
34, 478200, Note_on_c, 15, 50, 92
34, 478289, Note_on_c, 15, 50, 0
34, 478320, Note_on_c, 15, 55, 92
34, 478559, Note_on_c, 15, 55, 0
34, 480000, Note_on_c, 15, 43, 92
34, 481419, Note_on_c, 15, 43, 0
34, 481440, Note_on_c, 15, 43, 92
34, 481799, Note_on_c, 15, 43, 0
34, 481920, Note_on_c, 15, 42, 92
34, 482279, Note_on_c, 15, 42, 0
34, 482400, Note_on_c, 15, 38, 92
34, 482759, Note_on_c, 15, 38, 0
34, 482880, Note_on_c, 15, 52, 92
34, 484299, Note_on_c, 15, 52, 0
34, 484320, Note_on_c, 15, 52, 92
34, 484679, Note_on_c, 15, 52, 0
34, 484800, Note_on_c, 15, 50, 92
34, 485159, Note_on_c, 15, 50, 0
34, 485280, Note_on_c, 15, 47, 92
34, 485639, Note_on_c, 15, 47, 0
34, 485760, Note_on_c, 15, 48, 104
34, 485839, Note_on_c, 15, 48, 0
34, 485840, Note_on_c, 15, 48, 92
34, 487179, Note_on_c, 15, 48, 0
34, 487200, Note_on_c, 15, 48, 92
34, 487659, Note_on_c, 15, 48, 0
34, 487680, Note_on_c, 15, 47, 92
34, 488139, Note_on_c, 15, 47, 0
34, 488160, Note_on_c, 15, 43, 104
34, 488239, Note_on_c, 15, 43, 0
34, 488240, Note_on_c, 15, 43, 92
34, 489099, Note_on_c, 15, 43, 0
34, 489120, Note_on_c, 15, 52, 92
34, 490059, Note_on_c, 15, 52, 0
34, 490080, Note_on_c, 15, 52, 92
34, 490539, Note_on_c, 15, 52, 0
34, 490560, Note_on_c, 15, 50, 92
34, 491999, Note_on_c, 15, 50, 0
34, 492480, Note_on_c, 15, 43, 80
34, 492659, Note_on_c, 15, 43, 0
34, 492720, Note_on_c, 15, 43, 80
34, 492839, Note_on_c, 15, 43, 0
34, 492840, Note_on_c, 15, 45, 80
34, 492959, Note_on_c, 15, 45, 0
34, 492960, Note_on_c, 15, 47, 80
34, 493139, Note_on_c, 15, 47, 0
34, 493200, Note_on_c, 15, 47, 80
34, 493319, Note_on_c, 15, 47, 0
34, 493320, Note_on_c, 15, 48, 80
34, 493439, Note_on_c, 15, 48, 0
34, 493440, Note_on_c, 15, 50, 80
34, 493619, Note_on_c, 15, 50, 0
34, 493680, Note_on_c, 15, 50, 80
34, 493799, Note_on_c, 15, 50, 0
34, 493800, Note_on_c, 15, 52, 80
34, 493919, Note_on_c, 15, 52, 0
34, 493920, Note_on_c, 15, 50, 80
34, 494099, Note_on_c, 15, 50, 0
34, 494160, Note_on_c, 15, 50, 80
34, 494279, Note_on_c, 15, 50, 0
34, 494280, Note_on_c, 15, 38, 80
34, 494619, Note_on_c, 15, 38, 0
34, 494640, Note_on_c, 15, 38, 80
34, 494759, Note_on_c, 15, 38, 0
34, 494760, Note_on_c, 15, 40, 80
34, 494879, Note_on_c, 15, 40, 0
34, 494880, Note_on_c, 15, 38, 80
34, 495059, Note_on_c, 15, 38, 0
34, 495120, Note_on_c, 15, 38, 80
34, 495239, Note_on_c, 15, 38, 0
34, 495240, Note_on_c, 15, 40, 80
34, 495359, Note_on_c, 15, 40, 0
34, 495360, Note_on_c, 15, 36, 80
34, 495539, Note_on_c, 15, 36, 0
34, 495600, Note_on_c, 15, 48, 80
34, 495719, Note_on_c, 15, 48, 0
34, 495720, Note_on_c, 15, 47, 80
34, 495839, Note_on_c, 15, 47, 0
34, 495840, Note_on_c, 15, 48, 80
34, 496019, Note_on_c, 15, 48, 0
34, 496080, Note_on_c, 15, 50, 80
34, 496199, Note_on_c, 15, 50, 0
34, 496200, Note_on_c, 15, 48, 80
34, 496559, Note_on_c, 15, 48, 0
34, 496560, Note_on_c, 15, 47, 80
34, 496679, Note_on_c, 15, 47, 0
34, 496680, Note_on_c, 15, 45, 80
34, 496799, Note_on_c, 15, 45, 0
34, 496800, Note_on_c, 15, 43, 80
34, 496979, Note_on_c, 15, 43, 0
34, 497040, Note_on_c, 15, 43, 80
34, 497159, Note_on_c, 15, 43, 0
34, 497160, Note_on_c, 15, 45, 80
34, 497279, Note_on_c, 15, 45, 0
34, 497280, Note_on_c, 15, 43, 80
34, 497459, Note_on_c, 15, 43, 0
34, 497520, Note_on_c, 15, 31, 80
34, 497639, Note_on_c, 15, 31, 0
34, 497640, Note_on_c, 15, 43, 80
34, 497759, Note_on_c, 15, 43, 0
34, 497760, Note_on_c, 15, 45, 80
34, 497939, Note_on_c, 15, 45, 0
34, 498000, Note_on_c, 15, 45, 80
34, 498119, Note_on_c, 15, 45, 0
34, 498120, Note_on_c, 15, 47, 80
34, 498239, Note_on_c, 15, 47, 0
34, 498240, Note_on_c, 15, 45, 80
34, 498419, Note_on_c, 15, 45, 0
34, 498480, Note_on_c, 15, 33, 80
34, 498599, Note_on_c, 15, 33, 0
34, 498600, Note_on_c, 15, 35, 80
34, 498719, Note_on_c, 15, 35, 0
34, 498720, Note_on_c, 15, 33, 80
34, 498899, Note_on_c, 15, 33, 0
34, 498960, Note_on_c, 15, 45, 80
34, 499079, Note_on_c, 15, 45, 0
34, 499080, Note_on_c, 15, 43, 80
34, 499199, Note_on_c, 15, 43, 0
34, 499200, Note_on_c, 15, 47, 80
34, 499379, Note_on_c, 15, 47, 0
34, 499440, Note_on_c, 15, 48, 80
34, 499559, Note_on_c, 15, 48, 0
34, 499560, Note_on_c, 15, 47, 80
34, 499679, Note_on_c, 15, 47, 0
34, 499680, Note_on_c, 15, 48, 80
34, 499859, Note_on_c, 15, 48, 0
34, 499920, Note_on_c, 15, 36, 80
34, 500039, Note_on_c, 15, 36, 0
34, 500040, Note_on_c, 15, 35, 80
34, 500159, Note_on_c, 15, 35, 0
34, 500160, Note_on_c, 15, 36, 80
34, 500339, Note_on_c, 15, 36, 0
34, 500400, Note_on_c, 15, 48, 80
34, 500519, Note_on_c, 15, 48, 0
34, 500520, Note_on_c, 15, 47, 80
34, 500639, Note_on_c, 15, 47, 0
34, 500640, Note_on_c, 15, 48, 92
34, 500819, Note_on_c, 15, 48, 0
34, 500880, Note_on_c, 15, 36, 92
34, 500999, Note_on_c, 15, 36, 0
34, 501000, Note_on_c, 15, 35, 92
34, 501119, Note_on_c, 15, 35, 0
34, 501120, Note_on_c, 15, 36, 92
34, 501299, Note_on_c, 15, 36, 0
34, 501360, Note_on_c, 15, 48, 92
34, 501479, Note_on_c, 15, 48, 0
34, 501480, Note_on_c, 15, 47, 92
34, 501599, Note_on_c, 15, 47, 0
34, 501600, Note_on_c, 15, 48, 92
34, 501779, Note_on_c, 15, 48, 0
34, 501840, Note_on_c, 15, 36, 92
34, 501959, Note_on_c, 15, 36, 0
34, 501960, Note_on_c, 15, 48, 92
34, 502059, Note_on_c, 15, 48, 0
34, 502080, Note_on_c, 15, 50, 92
34, 503499, Note_on_c, 15, 50, 0
34, 503520, Note_on_c, 15, 48, 92
34, 503999, Note_on_c, 15, 48, 0
34, 504000, Note_on_c, 15, 50, 92
34, 504699, Note_on_c, 15, 50, 0
34, 504720, Note_on_c, 15, 48, 92
34, 504959, Note_on_c, 15, 48, 0
34, 505440, Note_on_c, 15, 53, 92
34, 506139, Note_on_c, 15, 53, 0
34, 506160, Note_on_c, 15, 53, 92
34, 506379, Note_on_c, 15, 53, 0
34, 506400, Note_on_c, 15, 53, 92
34, 507339, Note_on_c, 15, 53, 0
34, 507360, Note_on_c, 15, 53, 92
34, 507819, Note_on_c, 15, 53, 0
34, 507840, Note_on_c, 15, 53, 92
34, 508779, Note_on_c, 15, 53, 0
34, 508800, Note_on_c, 15, 50, 104
34, 508879, Note_on_c, 15, 50, 0
34, 508880, Note_on_c, 15, 50, 92
34, 510219, Note_on_c, 15, 50, 0
34, 510240, Note_on_c, 15, 48, 92
34, 510699, Note_on_c, 15, 48, 0
34, 510720, Note_on_c, 15, 48, 92
34, 511199, Note_on_c, 15, 48, 0
34, 511200, Note_on_c, 15, 45, 92
34, 511659, Note_on_c, 15, 45, 0
34, 511680, Note_on_c, 15, 43, 92
34, 512139, Note_on_c, 15, 43, 0
34, 512160, Note_on_c, 15, 53, 104
34, 512239, Note_on_c, 15, 53, 0
34, 512240, Note_on_c, 15, 53, 92
34, 513099, Note_on_c, 15, 53, 0
34, 513120, Note_on_c, 15, 52, 92
34, 513579, Note_on_c, 15, 52, 0
34, 513600, Note_on_c, 15, 52, 92
34, 513959, Note_on_c, 15, 52, 0
34, 514080, Note_on_c, 15, 50, 92
34, 514439, Note_on_c, 15, 50, 0
34, 515040, Note_on_c, 15, 41, 80
34, 515279, Note_on_c, 15, 41, 0
34, 515280, Note_on_c, 15, 43, 80
34, 515399, Note_on_c, 15, 43, 0
34, 515400, Note_on_c, 15, 41, 80
34, 515759, Note_on_c, 15, 41, 0
34, 515760, Note_on_c, 15, 43, 80
34, 515879, Note_on_c, 15, 43, 0
34, 515880, Note_on_c, 15, 41, 80
34, 516239, Note_on_c, 15, 41, 0
34, 516240, Note_on_c, 15, 43, 80
34, 516359, Note_on_c, 15, 43, 0
34, 516360, Note_on_c, 15, 41, 80
34, 516459, Note_on_c, 15, 41, 0
34, 516480, Note_on_c, 15, 45, 80
34, 516719, Note_on_c, 15, 45, 0
34, 516720, Note_on_c, 15, 46, 80
34, 516839, Note_on_c, 15, 46, 0
34, 516840, Note_on_c, 15, 45, 80
34, 516939, Note_on_c, 15, 45, 0
34, 516960, Note_on_c, 15, 46, 80
34, 517199, Note_on_c, 15, 46, 0
34, 517200, Note_on_c, 15, 48, 80
34, 517319, Note_on_c, 15, 48, 0
34, 517320, Note_on_c, 15, 46, 80
34, 517679, Note_on_c, 15, 46, 0
34, 517680, Note_on_c, 15, 48, 80
34, 517799, Note_on_c, 15, 48, 0
34, 517800, Note_on_c, 15, 46, 80
34, 518159, Note_on_c, 15, 46, 0
34, 518160, Note_on_c, 15, 48, 80
34, 518279, Note_on_c, 15, 48, 0
34, 518280, Note_on_c, 15, 46, 80
34, 518639, Note_on_c, 15, 46, 0
34, 518640, Note_on_c, 15, 48, 80
34, 518759, Note_on_c, 15, 48, 0
34, 518760, Note_on_c, 15, 46, 80
34, 519119, Note_on_c, 15, 46, 0
34, 519120, Note_on_c, 15, 48, 80
34, 519239, Note_on_c, 15, 48, 0
34, 519240, Note_on_c, 15, 46, 80
34, 519599, Note_on_c, 15, 46, 0
34, 519600, Note_on_c, 15, 48, 80
34, 519719, Note_on_c, 15, 48, 0
34, 519720, Note_on_c, 15, 46, 80
34, 520079, Note_on_c, 15, 46, 0
34, 520080, Note_on_c, 15, 48, 80
34, 520199, Note_on_c, 15, 48, 0
34, 520200, Note_on_c, 15, 46, 80
34, 520559, Note_on_c, 15, 46, 0
34, 520560, Note_on_c, 15, 48, 80
34, 520679, Note_on_c, 15, 48, 0
34, 520680, Note_on_c, 15, 46, 80
34, 521039, Note_on_c, 15, 46, 0
34, 521040, Note_on_c, 15, 48, 80
34, 521159, Note_on_c, 15, 48, 0
34, 521160, Note_on_c, 15, 46, 80
34, 521259, Note_on_c, 15, 46, 0
34, 521280, Note_on_c, 15, 46, 80
34, 521519, Note_on_c, 15, 46, 0
34, 521520, Note_on_c, 15, 34, 80
34, 521639, Note_on_c, 15, 34, 0
34, 521640, Note_on_c, 15, 46, 80
34, 521739, Note_on_c, 15, 46, 0
34, 521760, Note_on_c, 15, 48, 80
34, 521999, Note_on_c, 15, 48, 0
34, 522000, Note_on_c, 15, 36, 80
34, 522119, Note_on_c, 15, 36, 0
34, 522120, Note_on_c, 15, 48, 80
34, 522479, Note_on_c, 15, 48, 0
34, 522480, Note_on_c, 15, 36, 80
34, 522599, Note_on_c, 15, 36, 0
34, 522600, Note_on_c, 15, 48, 80
34, 522699, Note_on_c, 15, 48, 0
34, 522720, Note_on_c, 15, 48, 80
34, 522959, Note_on_c, 15, 48, 0
34, 522960, Note_on_c, 15, 36, 80
34, 523079, Note_on_c, 15, 36, 0
34, 523080, Note_on_c, 15, 48, 80
34, 523199, Note_on_c, 15, 48, 0
34, 523200, Note_on_c, 15, 48, 80
34, 523439, Note_on_c, 15, 48, 0
34, 523440, Note_on_c, 15, 36, 80
34, 523559, Note_on_c, 15, 36, 0
34, 523560, Note_on_c, 15, 48, 80
34, 523919, Note_on_c, 15, 48, 0
34, 523920, Note_on_c, 15, 50, 80
34, 524039, Note_on_c, 15, 50, 0
34, 524040, Note_on_c, 15, 48, 80
34, 524399, Note_on_c, 15, 48, 0
34, 524400, Note_on_c, 15, 50, 80
34, 524519, Note_on_c, 15, 50, 0
34, 524520, Note_on_c, 15, 48, 80
34, 524619, Note_on_c, 15, 48, 0
34, 524640, Note_on_c, 15, 52, 80
34, 524879, Note_on_c, 15, 52, 0
34, 524880, Note_on_c, 15, 53, 80
34, 524999, Note_on_c, 15, 53, 0
34, 525000, Note_on_c, 15, 52, 80
34, 525099, Note_on_c, 15, 52, 0
34, 525120, Note_on_c, 15, 55, 80
34, 525359, Note_on_c, 15, 55, 0
34, 525360, Note_on_c, 15, 57, 80
34, 525479, Note_on_c, 15, 57, 0
34, 525480, Note_on_c, 15, 55, 80
34, 525579, Note_on_c, 15, 55, 0
34, 525600, Note_on_c, 15, 55, 80
34, 525839, Note_on_c, 15, 55, 0
34, 526080, Note_on_c, 15, 31, 44
34, 526319, Note_on_c, 15, 31, 0
34, 555840, Note_on_c, 15, 52, 32
34, 557744, Note_on_c, 15, 52, 0
34, 557760, Note_on_c, 15, 52, 32
34, 558704, Note_on_c, 15, 52, 0
34, 558720, Note_on_c, 15, 52, 32
34, 560144, Note_on_c, 15, 52, 0
34, 560160, Note_on_c, 15, 45, 32
34, 560211, Note_on_c, 15, 45, 0
34, 560220, Note_on_c, 15, 57, 32
34, 560271, Note_on_c, 15, 57, 0
34, 560280, Note_on_c, 15, 57, 32
34, 560331, Note_on_c, 15, 57, 0
34, 560340, Note_on_c, 15, 57, 32
34, 560391, Note_on_c, 15, 57, 0
34, 560400, Note_on_c, 15, 57, 32
34, 560451, Note_on_c, 15, 57, 0
34, 560460, Note_on_c, 15, 57, 32
34, 560511, Note_on_c, 15, 57, 0
34, 560520, Note_on_c, 15, 57, 32
34, 560571, Note_on_c, 15, 57, 0
34, 560580, Note_on_c, 15, 57, 32
34, 560631, Note_on_c, 15, 57, 0
34, 560640, Note_on_c, 15, 57, 32
34, 560691, Note_on_c, 15, 57, 0
34, 560700, Note_on_c, 15, 57, 32
34, 560751, Note_on_c, 15, 57, 0
34, 560760, Note_on_c, 15, 57, 32
34, 560811, Note_on_c, 15, 57, 0
34, 560820, Note_on_c, 15, 57, 32
34, 560871, Note_on_c, 15, 57, 0
34, 560880, Note_on_c, 15, 57, 32
34, 560931, Note_on_c, 15, 57, 0
34, 560940, Note_on_c, 15, 57, 32
34, 560991, Note_on_c, 15, 57, 0
34, 561000, Note_on_c, 15, 57, 32
34, 561051, Note_on_c, 15, 57, 0
34, 561060, Note_on_c, 15, 57, 32
34, 561111, Note_on_c, 15, 57, 0
34, 561120, Note_on_c, 15, 57, 32
34, 561171, Note_on_c, 15, 57, 0
34, 561180, Note_on_c, 15, 57, 32
34, 561231, Note_on_c, 15, 57, 0
34, 561240, Note_on_c, 15, 57, 32
34, 561291, Note_on_c, 15, 57, 0
34, 561300, Note_on_c, 15, 57, 32
34, 561351, Note_on_c, 15, 57, 0
34, 561360, Note_on_c, 15, 57, 32
34, 561411, Note_on_c, 15, 57, 0
34, 561420, Note_on_c, 15, 57, 32
34, 561471, Note_on_c, 15, 57, 0
34, 561480, Note_on_c, 15, 57, 32
34, 561531, Note_on_c, 15, 57, 0
34, 561540, Note_on_c, 15, 57, 32
34, 561591, Note_on_c, 15, 57, 0
34, 561600, Note_on_c, 15, 57, 32
34, 561651, Note_on_c, 15, 57, 0
34, 561660, Note_on_c, 15, 57, 32
34, 561711, Note_on_c, 15, 57, 0
34, 561720, Note_on_c, 15, 57, 32
34, 561771, Note_on_c, 15, 57, 0
34, 561780, Note_on_c, 15, 57, 32
34, 561831, Note_on_c, 15, 57, 0
34, 561840, Note_on_c, 15, 57, 32
34, 561891, Note_on_c, 15, 57, 0
34, 561900, Note_on_c, 15, 57, 32
34, 561951, Note_on_c, 15, 57, 0
34, 561960, Note_on_c, 15, 57, 32
34, 562011, Note_on_c, 15, 57, 0
34, 562020, Note_on_c, 15, 57, 32
34, 562071, Note_on_c, 15, 57, 0
34, 562080, Note_on_c, 15, 57, 32
34, 562131, Note_on_c, 15, 57, 0
34, 562140, Note_on_c, 15, 57, 32
34, 562191, Note_on_c, 15, 57, 0
34, 562200, Note_on_c, 15, 57, 32
34, 562251, Note_on_c, 15, 57, 0
34, 562260, Note_on_c, 15, 57, 32
34, 562311, Note_on_c, 15, 57, 0
34, 562320, Note_on_c, 15, 57, 32
34, 562371, Note_on_c, 15, 57, 0
34, 562380, Note_on_c, 15, 57, 32
34, 562431, Note_on_c, 15, 57, 0
34, 562440, Note_on_c, 15, 57, 32
34, 562491, Note_on_c, 15, 57, 0
34, 562500, Note_on_c, 15, 57, 32
34, 562551, Note_on_c, 15, 57, 0
34, 562560, Note_on_c, 15, 57, 32
34, 562611, Note_on_c, 15, 57, 0
34, 562620, Note_on_c, 15, 57, 32
34, 562671, Note_on_c, 15, 57, 0
34, 562680, Note_on_c, 15, 57, 32
34, 562731, Note_on_c, 15, 57, 0
34, 562740, Note_on_c, 15, 57, 32
34, 562791, Note_on_c, 15, 57, 0
34, 562800, Note_on_c, 15, 57, 32
34, 562851, Note_on_c, 15, 57, 0
34, 562860, Note_on_c, 15, 57, 32
34, 562911, Note_on_c, 15, 57, 0
34, 562920, Note_on_c, 15, 57, 32
34, 562971, Note_on_c, 15, 57, 0
34, 562980, Note_on_c, 15, 57, 32
34, 563031, Note_on_c, 15, 57, 0
34, 563040, Note_on_c, 15, 57, 32
34, 563091, Note_on_c, 15, 57, 0
34, 563100, Note_on_c, 15, 57, 32
34, 563151, Note_on_c, 15, 57, 0
34, 563160, Note_on_c, 15, 57, 32
34, 563211, Note_on_c, 15, 57, 0
34, 563220, Note_on_c, 15, 57, 32
34, 563271, Note_on_c, 15, 57, 0
34, 563280, Note_on_c, 15, 57, 32
34, 563331, Note_on_c, 15, 57, 0
34, 563340, Note_on_c, 15, 57, 32
34, 563391, Note_on_c, 15, 57, 0
34, 563400, Note_on_c, 15, 57, 32
34, 563451, Note_on_c, 15, 57, 0
34, 563460, Note_on_c, 15, 57, 32
34, 563511, Note_on_c, 15, 57, 0
34, 563520, Note_on_c, 15, 57, 32
34, 563571, Note_on_c, 15, 57, 0
34, 563580, Note_on_c, 15, 57, 32
34, 563631, Note_on_c, 15, 57, 0
34, 563640, Note_on_c, 15, 57, 32
34, 563691, Note_on_c, 15, 57, 0
34, 563700, Note_on_c, 15, 57, 32
34, 563751, Note_on_c, 15, 57, 0
34, 563760, Note_on_c, 15, 57, 32
34, 563811, Note_on_c, 15, 57, 0
34, 563820, Note_on_c, 15, 57, 32
34, 563871, Note_on_c, 15, 57, 0
34, 563880, Note_on_c, 15, 57, 32
34, 563931, Note_on_c, 15, 57, 0
34, 563940, Note_on_c, 15, 57, 32
34, 563991, Note_on_c, 15, 57, 0
34, 564000, Note_on_c, 15, 57, 32
34, 564051, Note_on_c, 15, 57, 0
34, 564060, Note_on_c, 15, 57, 32
34, 564111, Note_on_c, 15, 57, 0
34, 564120, Note_on_c, 15, 57, 32
34, 564171, Note_on_c, 15, 57, 0
34, 564180, Note_on_c, 15, 57, 32
34, 564231, Note_on_c, 15, 57, 0
34, 564240, Note_on_c, 15, 57, 32
34, 564291, Note_on_c, 15, 57, 0
34, 564300, Note_on_c, 15, 57, 32
34, 564351, Note_on_c, 15, 57, 0
34, 564360, Note_on_c, 15, 57, 32
34, 564411, Note_on_c, 15, 57, 0
34, 564420, Note_on_c, 15, 57, 32
34, 564471, Note_on_c, 15, 57, 0
34, 564480, Note_on_c, 15, 57, 32
34, 564531, Note_on_c, 15, 57, 0
34, 564540, Note_on_c, 15, 57, 32
34, 564591, Note_on_c, 15, 57, 0
34, 564600, Note_on_c, 15, 57, 32
34, 564651, Note_on_c, 15, 57, 0
34, 564660, Note_on_c, 15, 57, 32
34, 564711, Note_on_c, 15, 57, 0
34, 564720, Note_on_c, 15, 57, 32
34, 564771, Note_on_c, 15, 57, 0
34, 564780, Note_on_c, 15, 57, 32
34, 564831, Note_on_c, 15, 57, 0
34, 564840, Note_on_c, 15, 57, 32
34, 564891, Note_on_c, 15, 57, 0
34, 564900, Note_on_c, 15, 57, 32
34, 564951, Note_on_c, 15, 57, 0
34, 564960, Note_on_c, 15, 57, 32
34, 565011, Note_on_c, 15, 57, 0
34, 565020, Note_on_c, 15, 57, 32
34, 565071, Note_on_c, 15, 57, 0
34, 565080, Note_on_c, 15, 57, 32
34, 565131, Note_on_c, 15, 57, 0
34, 565140, Note_on_c, 15, 57, 32
34, 565191, Note_on_c, 15, 57, 0
34, 565200, Note_on_c, 15, 57, 32
34, 565251, Note_on_c, 15, 57, 0
34, 565260, Note_on_c, 15, 57, 32
34, 565311, Note_on_c, 15, 57, 0
34, 565320, Note_on_c, 15, 57, 32
34, 565371, Note_on_c, 15, 57, 0
34, 565380, Note_on_c, 15, 57, 32
34, 565431, Note_on_c, 15, 57, 0
34, 565440, Note_on_c, 15, 57, 32
34, 565491, Note_on_c, 15, 57, 0
34, 565500, Note_on_c, 15, 57, 32
34, 565551, Note_on_c, 15, 57, 0
34, 565560, Note_on_c, 15, 57, 32
34, 565611, Note_on_c, 15, 57, 0
34, 565620, Note_on_c, 15, 57, 32
34, 565671, Note_on_c, 15, 57, 0
34, 565680, Note_on_c, 15, 57, 32
34, 565731, Note_on_c, 15, 57, 0
34, 565740, Note_on_c, 15, 57, 32
34, 565791, Note_on_c, 15, 57, 0
34, 565800, Note_on_c, 15, 57, 32
34, 565851, Note_on_c, 15, 57, 0
34, 565860, Note_on_c, 15, 57, 32
34, 565911, Note_on_c, 15, 57, 0
34, 565920, Note_on_c, 15, 57, 32
34, 565971, Note_on_c, 15, 57, 0
34, 565980, Note_on_c, 15, 57, 32
34, 566031, Note_on_c, 15, 57, 0
34, 566040, Note_on_c, 15, 57, 32
34, 566091, Note_on_c, 15, 57, 0
34, 566100, Note_on_c, 15, 57, 32
34, 566151, Note_on_c, 15, 57, 0
34, 566160, Note_on_c, 15, 57, 32
34, 566211, Note_on_c, 15, 57, 0
34, 566220, Note_on_c, 15, 57, 32
34, 566271, Note_on_c, 15, 57, 0
34, 566280, Note_on_c, 15, 57, 32
34, 566331, Note_on_c, 15, 57, 0
34, 566340, Note_on_c, 15, 57, 32
34, 566391, Note_on_c, 15, 57, 0
34, 566400, Note_on_c, 15, 57, 32
34, 566451, Note_on_c, 15, 57, 0
34, 566460, Note_on_c, 15, 57, 32
34, 566511, Note_on_c, 15, 57, 0
34, 566520, Note_on_c, 15, 57, 32
34, 566571, Note_on_c, 15, 57, 0
34, 566580, Note_on_c, 15, 57, 32
34, 566631, Note_on_c, 15, 57, 0
34, 566640, Note_on_c, 15, 57, 32
34, 566691, Note_on_c, 15, 57, 0
34, 566700, Note_on_c, 15, 57, 32
34, 566751, Note_on_c, 15, 57, 0
34, 566760, Note_on_c, 15, 57, 32
34, 566811, Note_on_c, 15, 57, 0
34, 566820, Note_on_c, 15, 57, 32
34, 566879, Note_on_c, 15, 57, 0
34, 579840, Note_on_c, 15, 49, 92
34, 579959, Note_on_c, 15, 49, 0
34, 579960, Note_on_c, 15, 40, 92
34, 580079, Note_on_c, 15, 40, 0
34, 580080, Note_on_c, 15, 42, 92
34, 580199, Note_on_c, 15, 42, 0
34, 580200, Note_on_c, 15, 44, 92
34, 580319, Note_on_c, 15, 44, 0
34, 580320, Note_on_c, 15, 45, 92
34, 580439, Note_on_c, 15, 45, 0
34, 580440, Note_on_c, 15, 47, 92
34, 580539, Note_on_c, 15, 47, 0
34, 580560, Note_on_c, 15, 49, 92
34, 580679, Note_on_c, 15, 49, 0
34, 580680, Note_on_c, 15, 47, 92
34, 580799, Note_on_c, 15, 47, 0
34, 580800, Note_on_c, 15, 45, 92
34, 580919, Note_on_c, 15, 45, 0
34, 580920, Note_on_c, 15, 47, 92
34, 581039, Note_on_c, 15, 47, 0
34, 581040, Note_on_c, 15, 49, 92
34, 581159, Note_on_c, 15, 49, 0
34, 581160, Note_on_c, 15, 50, 92
34, 581259, Note_on_c, 15, 50, 0
34, 581280, Note_on_c, 15, 52, 92
34, 581399, Note_on_c, 15, 52, 0
34, 581400, Note_on_c, 15, 54, 92
34, 581519, Note_on_c, 15, 54, 0
34, 581520, Note_on_c, 15, 52, 92
34, 581639, Note_on_c, 15, 52, 0
34, 581640, Note_on_c, 15, 50, 92
34, 581759, Note_on_c, 15, 50, 0
34, 581760, Note_on_c, 15, 52, 92
34, 581879, Note_on_c, 15, 52, 0
34, 581880, Note_on_c, 15, 50, 92
34, 581979, Note_on_c, 15, 50, 0
34, 582000, Note_on_c, 15, 49, 92
34, 582119, Note_on_c, 15, 49, 0
34, 582120, Note_on_c, 15, 50, 92
34, 582239, Note_on_c, 15, 50, 0
34, 582240, Note_on_c, 15, 49, 92
34, 582359, Note_on_c, 15, 49, 0
34, 582360, Note_on_c, 15, 47, 92
34, 582479, Note_on_c, 15, 47, 0
34, 582480, Note_on_c, 15, 49, 92
34, 582599, Note_on_c, 15, 49, 0
34, 582600, Note_on_c, 15, 47, 92
34, 582699, Note_on_c, 15, 47, 0
34, 582720, Note_on_c, 15, 45, 92
34, 582839, Note_on_c, 15, 45, 0
34, 582840, Note_on_c, 15, 37, 92
34, 582959, Note_on_c, 15, 37, 0
34, 582960, Note_on_c, 15, 38, 92
34, 583079, Note_on_c, 15, 38, 0
34, 583080, Note_on_c, 15, 40, 92
34, 583199, Note_on_c, 15, 40, 0
34, 583200, Note_on_c, 15, 42, 92
34, 583319, Note_on_c, 15, 42, 0
34, 583320, Note_on_c, 15, 44, 92
34, 583419, Note_on_c, 15, 44, 0
34, 583440, Note_on_c, 15, 45, 92
34, 583559, Note_on_c, 15, 45, 0
34, 583560, Note_on_c, 15, 44, 92
34, 583679, Note_on_c, 15, 44, 0
34, 583680, Note_on_c, 15, 42, 92
34, 583799, Note_on_c, 15, 42, 0
34, 583800, Note_on_c, 15, 44, 92
34, 583919, Note_on_c, 15, 44, 0
34, 583920, Note_on_c, 15, 45, 92
34, 584039, Note_on_c, 15, 45, 0
34, 584040, Note_on_c, 15, 47, 92
34, 584139, Note_on_c, 15, 47, 0
34, 584160, Note_on_c, 15, 49, 92
34, 584279, Note_on_c, 15, 49, 0
34, 584280, Note_on_c, 15, 50, 92
34, 584399, Note_on_c, 15, 50, 0
34, 584400, Note_on_c, 15, 49, 92
34, 584519, Note_on_c, 15, 49, 0
34, 584520, Note_on_c, 15, 47, 92
34, 584639, Note_on_c, 15, 47, 0
34, 584640, Note_on_c, 15, 49, 92
34, 584759, Note_on_c, 15, 49, 0
34, 584760, Note_on_c, 15, 47, 92
34, 584859, Note_on_c, 15, 47, 0
34, 584880, Note_on_c, 15, 45, 92
34, 584999, Note_on_c, 15, 45, 0
34, 585000, Note_on_c, 15, 47, 92
34, 585119, Note_on_c, 15, 47, 0
34, 585120, Note_on_c, 15, 45, 92
34, 585239, Note_on_c, 15, 45, 0
34, 585240, Note_on_c, 15, 43, 92
34, 585359, Note_on_c, 15, 43, 0
34, 585360, Note_on_c, 15, 45, 92
34, 585479, Note_on_c, 15, 45, 0
34, 585480, Note_on_c, 15, 43, 92
34, 585579, Note_on_c, 15, 43, 0
34, 585600, Note_on_c, 15, 42, 92
34, 585719, Note_on_c, 15, 42, 0
34, 585720, Note_on_c, 15, 33, 92
34, 585839, Note_on_c, 15, 33, 0
34, 585840, Note_on_c, 15, 35, 92
34, 585959, Note_on_c, 15, 35, 0
34, 585960, Note_on_c, 15, 37, 92
34, 586079, Note_on_c, 15, 37, 0
34, 586080, Note_on_c, 15, 38, 92
34, 586199, Note_on_c, 15, 38, 0
34, 586200, Note_on_c, 15, 40, 92
34, 586299, Note_on_c, 15, 40, 0
34, 586320, Note_on_c, 15, 42, 92
34, 586439, Note_on_c, 15, 42, 0
34, 586440, Note_on_c, 15, 40, 92
34, 586559, Note_on_c, 15, 40, 0
34, 586560, Note_on_c, 15, 38, 92
34, 586679, Note_on_c, 15, 38, 0
34, 586680, Note_on_c, 15, 40, 92
34, 586799, Note_on_c, 15, 40, 0
34, 586800, Note_on_c, 15, 42, 92
34, 586919, Note_on_c, 15, 42, 0
34, 586920, Note_on_c, 15, 44, 92
34, 587019, Note_on_c, 15, 44, 0
34, 587040, Note_on_c, 15, 45, 92
34, 587159, Note_on_c, 15, 45, 0
34, 587160, Note_on_c, 15, 47, 92
34, 587279, Note_on_c, 15, 47, 0
34, 587280, Note_on_c, 15, 45, 92
34, 587399, Note_on_c, 15, 45, 0
34, 587400, Note_on_c, 15, 43, 92
34, 587519, Note_on_c, 15, 43, 0
34, 587520, Note_on_c, 15, 45, 92
34, 587639, Note_on_c, 15, 45, 0
34, 587640, Note_on_c, 15, 43, 92
34, 587739, Note_on_c, 15, 43, 0
34, 587760, Note_on_c, 15, 42, 92
34, 587879, Note_on_c, 15, 42, 0
34, 587880, Note_on_c, 15, 43, 92
34, 587999, Note_on_c, 15, 43, 0
34, 588000, Note_on_c, 15, 42, 92
34, 588119, Note_on_c, 15, 42, 0
34, 588120, Note_on_c, 15, 40, 92
34, 588239, Note_on_c, 15, 40, 0
34, 588240, Note_on_c, 15, 42, 92
34, 588359, Note_on_c, 15, 42, 0
34, 588360, Note_on_c, 15, 40, 92
34, 588459, Note_on_c, 15, 40, 0
34, 588480, Note_on_c, 15, 38, 92
34, 588599, Note_on_c, 15, 38, 0
34, 588600, Note_on_c, 15, 40, 92
34, 588719, Note_on_c, 15, 40, 0
34, 588720, Note_on_c, 15, 38, 92
34, 588839, Note_on_c, 15, 38, 0
34, 588840, Note_on_c, 15, 37, 92
34, 588959, Note_on_c, 15, 37, 0
34, 588960, Note_on_c, 15, 38, 92
34, 589079, Note_on_c, 15, 38, 0
34, 589080, Note_on_c, 15, 37, 92
34, 589179, Note_on_c, 15, 37, 0
34, 589200, Note_on_c, 15, 35, 92
34, 589319, Note_on_c, 15, 35, 0
34, 589320, Note_on_c, 15, 37, 92
34, 589439, Note_on_c, 15, 37, 0
34, 589440, Note_on_c, 15, 35, 92
34, 589559, Note_on_c, 15, 35, 0
34, 589560, Note_on_c, 15, 33, 92
34, 589679, Note_on_c, 15, 33, 0
34, 589680, Note_on_c, 15, 35, 92
34, 589799, Note_on_c, 15, 35, 0
34, 589800, Note_on_c, 15, 33, 92
34, 589899, Note_on_c, 15, 33, 0
34, 589920, Note_on_c, 15, 38, 92
34, 590039, Note_on_c, 15, 38, 0
34, 590040, Note_on_c, 15, 33, 92
34, 590159, Note_on_c, 15, 33, 0
34, 590160, Note_on_c, 15, 35, 92
34, 590279, Note_on_c, 15, 35, 0
34, 590280, Note_on_c, 15, 37, 92
34, 590399, Note_on_c, 15, 37, 0
34, 590400, Note_on_c, 15, 38, 92
34, 590519, Note_on_c, 15, 38, 0
34, 590520, Note_on_c, 15, 37, 92
34, 590619, Note_on_c, 15, 37, 0
34, 590640, Note_on_c, 15, 38, 92
34, 590759, Note_on_c, 15, 38, 0
34, 590760, Note_on_c, 15, 42, 92
34, 590879, Note_on_c, 15, 42, 0
34, 590880, Note_on_c, 15, 45, 92
34, 590999, Note_on_c, 15, 45, 0
34, 591000, Note_on_c, 15, 49, 92
34, 591099, Note_on_c, 15, 49, 0
34, 591120, Note_on_c, 15, 50, 92
34, 592059, Note_on_c, 15, 50, 0
34, 592080, Note_on_c, 15, 50, 80
34, 592779, Note_on_c, 15, 50, 0
34, 592800, Note_on_c, 15, 49, 80
34, 593499, Note_on_c, 15, 49, 0
34, 593520, Note_on_c, 15, 45, 80
34, 594219, Note_on_c, 15, 45, 0
34, 594240, Note_on_c, 15, 47, 80
34, 594939, Note_on_c, 15, 47, 0
34, 594960, Note_on_c, 15, 47, 80
34, 595659, Note_on_c, 15, 47, 0
34, 595680, Note_on_c, 15, 45, 80
34, 596379, Note_on_c, 15, 45, 0
34, 596400, Note_on_c, 15, 42, 80
34, 597099, Note_on_c, 15, 42, 0
34, 597120, Note_on_c, 15, 43, 80
34, 597819, Note_on_c, 15, 43, 0
34, 597840, Note_on_c, 15, 43, 80
34, 598539, Note_on_c, 15, 43, 0
34, 598560, Note_on_c, 15, 42, 80
34, 599259, Note_on_c, 15, 42, 0
34, 599280, Note_on_c, 15, 38, 80
34, 599979, Note_on_c, 15, 38, 0
34, 600000, Note_on_c, 15, 47, 80
34, 600699, Note_on_c, 15, 47, 0
34, 600720, Note_on_c, 15, 47, 80
34, 601419, Note_on_c, 15, 47, 0
34, 601440, Note_on_c, 15, 45, 92
34, 601899, Note_on_c, 15, 45, 0
34, 601920, Note_on_c, 15, 49, 92
34, 602619, Note_on_c, 15, 49, 0
34, 602640, Note_on_c, 15, 47, 92
34, 602859, Note_on_c, 15, 47, 0
34, 602880, Note_on_c, 15, 45, 92
34, 603579, Note_on_c, 15, 45, 0
34, 603600, Note_on_c, 15, 47, 92
34, 604059, Note_on_c, 15, 47, 0
34, 604080, Note_on_c, 15, 49, 92
34, 604299, Note_on_c, 15, 49, 0
34, 604320, Note_on_c, 15, 40, 92
34, 606219, Note_on_c, 15, 40, 0
34, 606240, Note_on_c, 15, 38, 92
34, 606459, Note_on_c, 15, 38, 0
34, 606480, Note_on_c, 15, 50, 92
34, 606939, Note_on_c, 15, 50, 0
34, 606960, Note_on_c, 15, 45, 92
34, 607179, Note_on_c, 15, 45, 0
34, 607200, Note_on_c, 15, 45, 92
34, 608619, Note_on_c, 15, 45, 0
34, 608640, Note_on_c, 15, 47, 92
34, 609339, Note_on_c, 15, 47, 0
34, 609360, Note_on_c, 15, 40, 92
34, 610059, Note_on_c, 15, 40, 0
34, 610080, Note_on_c, 15, 42, 92
34, 610539, Note_on_c, 15, 42, 0
34, 610560, Note_on_c, 15, 52, 92
34, 610779, Note_on_c, 15, 52, 0
34, 610800, Note_on_c, 15, 50, 92
34, 611259, Note_on_c, 15, 50, 0
34, 611280, Note_on_c, 15, 49, 92
34, 611499, Note_on_c, 15, 49, 0
34, 611520, Note_on_c, 15, 47, 92
34, 611759, Note_on_c, 15, 47, 0
34, 611760, Note_on_c, 15, 45, 92
34, 612219, Note_on_c, 15, 45, 0
34, 612240, Note_on_c, 15, 45, 92
34, 612939, Note_on_c, 15, 45, 0
34, 612960, Note_on_c, 15, 46, 92
34, 613659, Note_on_c, 15, 46, 0
34, 613680, Note_on_c, 15, 42, 92
34, 614379, Note_on_c, 15, 42, 0
34, 614400, Note_on_c, 15, 52, 92
34, 615099, Note_on_c, 15, 52, 0
34, 615120, Note_on_c, 15, 52, 92
34, 615819, Note_on_c, 15, 52, 0
34, 615840, Note_on_c, 15, 51, 92
34, 616559, Note_on_c, 15, 51, 0
34, 617280, Note_on_c, 15, 47, 80
34, 617979, Note_on_c, 15, 47, 0
34, 618000, Note_on_c, 15, 47, 80
34, 618699, Note_on_c, 15, 47, 0
34, 618720, Note_on_c, 15, 47, 80
34, 619419, Note_on_c, 15, 47, 0
34, 619440, Note_on_c, 15, 40, 80
34, 620139, Note_on_c, 15, 40, 0
34, 620160, Note_on_c, 15, 50, 80
34, 620859, Note_on_c, 15, 50, 0
34, 620880, Note_on_c, 15, 49, 80
34, 621579, Note_on_c, 15, 49, 0
34, 621600, Note_on_c, 15, 50, 80
34, 622319, Note_on_c, 15, 50, 0
34, 624480, Note_on_c, 15, 45, 80
34, 624579, Note_on_c, 15, 45, 0
34, 624600, Note_on_c, 15, 33, 80
34, 624699, Note_on_c, 15, 33, 0
34, 624720, Note_on_c, 15, 45, 80
34, 624819, Note_on_c, 15, 45, 0
34, 624840, Note_on_c, 15, 45, 80
34, 624939, Note_on_c, 15, 45, 0
34, 624960, Note_on_c, 15, 45, 80
34, 625199, Note_on_c, 15, 45, 0
34, 627360, Note_on_c, 15, 50, 80
34, 627459, Note_on_c, 15, 50, 0
34, 627480, Note_on_c, 15, 38, 80
34, 627579, Note_on_c, 15, 38, 0
34, 627600, Note_on_c, 15, 38, 80
34, 627699, Note_on_c, 15, 38, 0
34, 627720, Note_on_c, 15, 50, 80
34, 627819, Note_on_c, 15, 50, 0
34, 627840, Note_on_c, 15, 45, 80
34, 628079, Note_on_c, 15, 45, 0
34, 629520, Note_on_c, 15, 40, 80
34, 629979, Note_on_c, 15, 40, 0
34, 630000, Note_on_c, 15, 40, 80
34, 630219, Note_on_c, 15, 40, 0
34, 630240, Note_on_c, 15, 35, 80
34, 630699, Note_on_c, 15, 35, 0
34, 630720, Note_on_c, 15, 35, 80
34, 630959, Note_on_c, 15, 35, 0
34, 630960, Note_on_c, 15, 37, 80
34, 631439, Note_on_c, 15, 37, 0
34, 631440, Note_on_c, 15, 38, 80
34, 631659, Note_on_c, 15, 38, 0
34, 631680, Note_on_c, 15, 40, 80
34, 632159, Note_on_c, 15, 40, 0
34, 632160, Note_on_c, 15, 42, 80
34, 632399, Note_on_c, 15, 42, 0
34, 632400, Note_on_c, 15, 44, 80
34, 632879, Note_on_c, 15, 44, 0
34, 632880, Note_on_c, 15, 40, 80
34, 633099, Note_on_c, 15, 40, 0
34, 633120, Note_on_c, 15, 47, 80
34, 633599, Note_on_c, 15, 47, 0
34, 633600, Note_on_c, 15, 45, 80
34, 633839, Note_on_c, 15, 45, 0
34, 633840, Note_on_c, 15, 47, 80
34, 634319, Note_on_c, 15, 47, 0
34, 634320, Note_on_c, 15, 49, 80
34, 634559, Note_on_c, 15, 49, 0
34, 636720, Note_on_c, 15, 47, 92
34, 638139, Note_on_c, 15, 47, 0
34, 638160, Note_on_c, 15, 47, 80
34, 638859, Note_on_c, 15, 47, 0
34, 638880, Note_on_c, 15, 46, 80
34, 639579, Note_on_c, 15, 46, 0
34, 639600, Note_on_c, 15, 42, 80
34, 640299, Note_on_c, 15, 42, 0
34, 640320, Note_on_c, 15, 50, 80
34, 641019, Note_on_c, 15, 50, 0
34, 641040, Note_on_c, 15, 47, 80
34, 641739, Note_on_c, 15, 47, 0
34, 641760, Note_on_c, 15, 49, 80
34, 642459, Note_on_c, 15, 49, 0
34, 642480, Note_on_c, 15, 49, 80
34, 643179, Note_on_c, 15, 49, 0
34, 643200, Note_on_c, 15, 42, 80
34, 643899, Note_on_c, 15, 42, 0
34, 643920, Note_on_c, 15, 42, 80
34, 644619, Note_on_c, 15, 42, 0
34, 644640, Note_on_c, 15, 47, 80
34, 645359, Note_on_c, 15, 47, 0
34, 646080, Note_on_c, 15, 35, 80
34, 646199, Note_on_c, 15, 35, 0
34, 646200, Note_on_c, 15, 30, 80
34, 646319, Note_on_c, 15, 30, 0
34, 646320, Note_on_c, 15, 32, 80
34, 646439, Note_on_c, 15, 32, 0
34, 646440, Note_on_c, 15, 34, 80
34, 646559, Note_on_c, 15, 34, 0
34, 646560, Note_on_c, 15, 35, 80
34, 646679, Note_on_c, 15, 35, 0
34, 646680, Note_on_c, 15, 37, 80
34, 646779, Note_on_c, 15, 37, 0
34, 646800, Note_on_c, 15, 38, 80
34, 646919, Note_on_c, 15, 38, 0
34, 646920, Note_on_c, 15, 37, 80
34, 647039, Note_on_c, 15, 37, 0
34, 647040, Note_on_c, 15, 35, 80
34, 647159, Note_on_c, 15, 35, 0
34, 647160, Note_on_c, 15, 37, 80
34, 647279, Note_on_c, 15, 37, 0
34, 647280, Note_on_c, 15, 38, 80
34, 647399, Note_on_c, 15, 38, 0
34, 647400, Note_on_c, 15, 40, 80
34, 647499, Note_on_c, 15, 40, 0
34, 647520, Note_on_c, 15, 42, 80
34, 647639, Note_on_c, 15, 42, 0
34, 647640, Note_on_c, 15, 43, 80
34, 647759, Note_on_c, 15, 43, 0
34, 647760, Note_on_c, 15, 42, 80
34, 647879, Note_on_c, 15, 42, 0
34, 647880, Note_on_c, 15, 40, 80
34, 647999, Note_on_c, 15, 40, 0
34, 648000, Note_on_c, 15, 42, 80
34, 648119, Note_on_c, 15, 42, 0
34, 648120, Note_on_c, 15, 40, 80
34, 648219, Note_on_c, 15, 40, 0
34, 648240, Note_on_c, 15, 38, 80
34, 648359, Note_on_c, 15, 38, 0
34, 648360, Note_on_c, 15, 40, 80
34, 648479, Note_on_c, 15, 40, 0
34, 648480, Note_on_c, 15, 38, 80
34, 648599, Note_on_c, 15, 38, 0
34, 648600, Note_on_c, 15, 37, 80
34, 648719, Note_on_c, 15, 37, 0
34, 648720, Note_on_c, 15, 38, 80
34, 648839, Note_on_c, 15, 38, 0
34, 648840, Note_on_c, 15, 37, 80
34, 648939, Note_on_c, 15, 37, 0
34, 648960, Note_on_c, 15, 37, 80
34, 649079, Note_on_c, 15, 37, 0
34, 649080, Note_on_c, 15, 30, 80
34, 649199, Note_on_c, 15, 30, 0
34, 649200, Note_on_c, 15, 32, 80
34, 649319, Note_on_c, 15, 32, 0
34, 649320, Note_on_c, 15, 34, 80
34, 649439, Note_on_c, 15, 34, 0
34, 649440, Note_on_c, 15, 35, 80
34, 649559, Note_on_c, 15, 35, 0
34, 649560, Note_on_c, 15, 37, 80
34, 649659, Note_on_c, 15, 37, 0
34, 649680, Note_on_c, 15, 39, 80
34, 649799, Note_on_c, 15, 39, 0
34, 649800, Note_on_c, 15, 35, 80
34, 649919, Note_on_c, 15, 35, 0
34, 649920, Note_on_c, 15, 37, 80
34, 650039, Note_on_c, 15, 37, 0
34, 650040, Note_on_c, 15, 39, 80
34, 650159, Note_on_c, 15, 39, 0
34, 650160, Note_on_c, 15, 40, 80
34, 650279, Note_on_c, 15, 40, 0
34, 650280, Note_on_c, 15, 37, 80
34, 650379, Note_on_c, 15, 37, 0
34, 650400, Note_on_c, 15, 42, 80
34, 650519, Note_on_c, 15, 42, 0
34, 650520, Note_on_c, 15, 44, 80
34, 650639, Note_on_c, 15, 44, 0
34, 650640, Note_on_c, 15, 42, 80
34, 650759, Note_on_c, 15, 42, 0
34, 650760, Note_on_c, 15, 39, 80
34, 650879, Note_on_c, 15, 39, 0
34, 650880, Note_on_c, 15, 40, 80
34, 650999, Note_on_c, 15, 40, 0
34, 651000, Note_on_c, 15, 39, 80
34, 651099, Note_on_c, 15, 39, 0
34, 651120, Note_on_c, 15, 37, 80
34, 651239, Note_on_c, 15, 37, 0
34, 651240, Note_on_c, 15, 39, 80
34, 651359, Note_on_c, 15, 39, 0
34, 651360, Note_on_c, 15, 37, 80
34, 651479, Note_on_c, 15, 37, 0
34, 651480, Note_on_c, 15, 35, 80
34, 651599, Note_on_c, 15, 35, 0
34, 651600, Note_on_c, 15, 37, 80
34, 651719, Note_on_c, 15, 37, 0
34, 651720, Note_on_c, 15, 35, 80
34, 651819, Note_on_c, 15, 35, 0
34, 651840, Note_on_c, 15, 42, 80
34, 651959, Note_on_c, 15, 42, 0
34, 651960, Note_on_c, 15, 35, 80
34, 652079, Note_on_c, 15, 35, 0
34, 652080, Note_on_c, 15, 37, 80
34, 652199, Note_on_c, 15, 37, 0
34, 652200, Note_on_c, 15, 39, 80
34, 652319, Note_on_c, 15, 39, 0
34, 652320, Note_on_c, 15, 40, 80
34, 652439, Note_on_c, 15, 40, 0
34, 652440, Note_on_c, 15, 42, 80
34, 652539, Note_on_c, 15, 42, 0
34, 652560, Note_on_c, 15, 44, 80
34, 652679, Note_on_c, 15, 44, 0
34, 652680, Note_on_c, 15, 35, 80
34, 652799, Note_on_c, 15, 35, 0
34, 652800, Note_on_c, 15, 42, 80
34, 652919, Note_on_c, 15, 42, 0
34, 652920, Note_on_c, 15, 44, 80
34, 653039, Note_on_c, 15, 44, 0
34, 653040, Note_on_c, 15, 45, 80
34, 653159, Note_on_c, 15, 45, 0
34, 653160, Note_on_c, 15, 42, 80
34, 653259, Note_on_c, 15, 42, 0
34, 653280, Note_on_c, 15, 45, 80
34, 653399, Note_on_c, 15, 45, 0
34, 653400, Note_on_c, 15, 47, 80
34, 653519, Note_on_c, 15, 47, 0
34, 653520, Note_on_c, 15, 45, 80
34, 653639, Note_on_c, 15, 45, 0
34, 653640, Note_on_c, 15, 44, 80
34, 653759, Note_on_c, 15, 44, 0
34, 653760, Note_on_c, 15, 45, 80
34, 653879, Note_on_c, 15, 45, 0
34, 653880, Note_on_c, 15, 44, 80
34, 653979, Note_on_c, 15, 44, 0
34, 654000, Note_on_c, 15, 42, 80
34, 654119, Note_on_c, 15, 42, 0
34, 654120, Note_on_c, 15, 44, 80
34, 654239, Note_on_c, 15, 44, 0
34, 654240, Note_on_c, 15, 42, 80
34, 654359, Note_on_c, 15, 42, 0
34, 654360, Note_on_c, 15, 40, 80
34, 654479, Note_on_c, 15, 40, 0
34, 654480, Note_on_c, 15, 42, 80
34, 654599, Note_on_c, 15, 42, 0
34, 654600, Note_on_c, 15, 40, 80
34, 654699, Note_on_c, 15, 40, 0
34, 654720, Note_on_c, 15, 47, 80
34, 654839, Note_on_c, 15, 47, 0
34, 654840, Note_on_c, 15, 40, 80
34, 654959, Note_on_c, 15, 40, 0
34, 654960, Note_on_c, 15, 44, 80
34, 655079, Note_on_c, 15, 44, 0
34, 655080, Note_on_c, 15, 45, 80
34, 655199, Note_on_c, 15, 45, 0
34, 655200, Note_on_c, 15, 47, 80
34, 655319, Note_on_c, 15, 47, 0
34, 655320, Note_on_c, 15, 40, 80
34, 655419, Note_on_c, 15, 40, 0
34, 655440, Note_on_c, 15, 52, 80
34, 655559, Note_on_c, 15, 52, 0
34, 655560, Note_on_c, 15, 54, 80
34, 655679, Note_on_c, 15, 54, 0
34, 655680, Note_on_c, 15, 52, 80
34, 655799, Note_on_c, 15, 52, 0
34, 655800, Note_on_c, 15, 50, 80
34, 655919, Note_on_c, 15, 50, 0
34, 655920, Note_on_c, 15, 52, 80
34, 656039, Note_on_c, 15, 52, 0
34, 656040, Note_on_c, 15, 50, 80
34, 656139, Note_on_c, 15, 50, 0
34, 656160, Note_on_c, 15, 49, 80
34, 656279, Note_on_c, 15, 49, 0
34, 656280, Note_on_c, 15, 52, 80
34, 656399, Note_on_c, 15, 52, 0
34, 656400, Note_on_c, 15, 50, 80
34, 656519, Note_on_c, 15, 50, 0
34, 656520, Note_on_c, 15, 49, 80
34, 656639, Note_on_c, 15, 49, 0
34, 656640, Note_on_c, 15, 50, 80
34, 656759, Note_on_c, 15, 50, 0
34, 656760, Note_on_c, 15, 49, 80
34, 656859, Note_on_c, 15, 49, 0
34, 656880, Note_on_c, 15, 47, 80
34, 656999, Note_on_c, 15, 47, 0
34, 657000, Note_on_c, 15, 49, 80
34, 657119, Note_on_c, 15, 49, 0
34, 657120, Note_on_c, 15, 47, 80
34, 657239, Note_on_c, 15, 47, 0
34, 657240, Note_on_c, 15, 45, 80
34, 657359, Note_on_c, 15, 45, 0
34, 657360, Note_on_c, 15, 49, 80
34, 657479, Note_on_c, 15, 49, 0
34, 657480, Note_on_c, 15, 47, 80
34, 657579, Note_on_c, 15, 47, 0
34, 657600, Note_on_c, 15, 47, 80
34, 657719, Note_on_c, 15, 47, 0
34, 657720, Note_on_c, 15, 45, 80
34, 657839, Note_on_c, 15, 45, 0
34, 657840, Note_on_c, 15, 47, 80
34, 657959, Note_on_c, 15, 47, 0
34, 657960, Note_on_c, 15, 45, 80
34, 658059, Note_on_c, 15, 45, 0
34, 658080, Note_on_c, 15, 33, 80
34, 658319, Note_on_c, 15, 33, 0
34, 661200, Note_on_c, 15, 50, 92
34, 662619, Note_on_c, 15, 50, 0
34, 662640, Note_on_c, 15, 50, 80
34, 663339, Note_on_c, 15, 50, 0
34, 663360, Note_on_c, 15, 49, 80
34, 664059, Note_on_c, 15, 49, 0
34, 664080, Note_on_c, 15, 45, 80
34, 664779, Note_on_c, 15, 45, 0
34, 664800, Note_on_c, 15, 47, 80
34, 665499, Note_on_c, 15, 47, 0
34, 665520, Note_on_c, 15, 47, 80
34, 666219, Note_on_c, 15, 47, 0
34, 666240, Note_on_c, 15, 45, 80
34, 666939, Note_on_c, 15, 45, 0
34, 666960, Note_on_c, 15, 42, 80
34, 667659, Note_on_c, 15, 42, 0
34, 667680, Note_on_c, 15, 43, 80
34, 668379, Note_on_c, 15, 43, 0
34, 668400, Note_on_c, 15, 43, 80
34, 669099, Note_on_c, 15, 43, 0
34, 669120, Note_on_c, 15, 42, 80
34, 669819, Note_on_c, 15, 42, 0
34, 669840, Note_on_c, 15, 50, 80
34, 670539, Note_on_c, 15, 50, 0
34, 670560, Note_on_c, 15, 52, 80
34, 671259, Note_on_c, 15, 52, 0
34, 671280, Note_on_c, 15, 52, 80
34, 671979, Note_on_c, 15, 52, 0
34, 672000, Note_on_c, 15, 52, 92
34, 674139, Note_on_c, 15, 52, 0
34, 674160, Note_on_c, 15, 52, 80
34, 674859, Note_on_c, 15, 52, 0
34, 674880, Note_on_c, 15, 50, 80
34, 676299, Note_on_c, 15, 50, 0
34, 676320, Note_on_c, 15, 42, 32
34, 676799, Note_on_c, 15, 42, 0
34, 677520, Note_on_c, 15, 42, 32
34, 677739, Note_on_c, 15, 42, 0
34, 677760, Note_on_c, 15, 36, 32
34, 678239, Note_on_c, 15, 36, 0
34, 678960, Note_on_c, 15, 36, 32
34, 679179, Note_on_c, 15, 36, 0
34, 679200, Note_on_c, 15, 45, 32
34, 679679, Note_on_c, 15, 45, 0
34, 680400, Note_on_c, 15, 45, 32
34, 680619, Note_on_c, 15, 45, 0
34, 680640, Note_on_c, 15, 46, 32
34, 681119, Note_on_c, 15, 46, 0
34, 681840, Note_on_c, 15, 46, 32
34, 682059, Note_on_c, 15, 46, 0
34, 682080, Note_on_c, 15, 40, 32
34, 682559, Note_on_c, 15, 40, 0
34, 683280, Note_on_c, 15, 40, 32
34, 683499, Note_on_c, 15, 40, 0
34, 683520, Note_on_c, 15, 49, 32
34, 683999, Note_on_c, 15, 49, 0
34, 684720, Note_on_c, 15, 49, 32
34, 684939, Note_on_c, 15, 49, 0
34, 684960, Note_on_c, 15, 38, 32
34, 685439, Note_on_c, 15, 38, 0
34, 686160, Note_on_c, 15, 38, 80
34, 686379, Note_on_c, 15, 38, 0
34, 686400, Note_on_c, 15, 39, 80
34, 687819, Note_on_c, 15, 39, 0
34, 687840, Note_on_c, 15, 31, 80
34, 688319, Note_on_c, 15, 31, 0
34, 689040, Note_on_c, 15, 31, 80
34, 689259, Note_on_c, 15, 31, 0
34, 689280, Note_on_c, 15, 40, 80
34, 689759, Note_on_c, 15, 40, 0
34, 690480, Note_on_c, 15, 40, 80
34, 690699, Note_on_c, 15, 40, 0
34, 690720, Note_on_c, 15, 41, 80
34, 691199, Note_on_c, 15, 41, 0
34, 691920, Note_on_c, 15, 41, 80
34, 692139, Note_on_c, 15, 41, 0
34, 692160, Note_on_c, 15, 42, 80
34, 693579, Note_on_c, 15, 42, 0
34, 693600, Note_on_c, 15, 34, 80
34, 694079, Note_on_c, 15, 34, 0
34, 694800, Note_on_c, 15, 34, 80
34, 695019, Note_on_c, 15, 34, 0
34, 695040, Note_on_c, 15, 43, 80
34, 695519, Note_on_c, 15, 43, 0
34, 696240, Note_on_c, 15, 43, 80
34, 696459, Note_on_c, 15, 43, 0
34, 696480, Note_on_c, 15, 44, 80
34, 696959, Note_on_c, 15, 44, 0
34, 697680, Note_on_c, 15, 44, 80
34, 697899, Note_on_c, 15, 44, 0
34, 697920, Note_on_c, 15, 45, 80
34, 698639, Note_on_c, 15, 45, 0
34, 700800, Note_on_c, 15, 45, 80
34, 701499, Note_on_c, 15, 45, 0
34, 701520, Note_on_c, 15, 45, 80
34, 702239, Note_on_c, 15, 45, 0
34, 703680, Note_on_c, 15, 45, 80
34, 704379, Note_on_c, 15, 45, 0
34, 704400, Note_on_c, 15, 45, 80
34, 705099, Note_on_c, 15, 45, 0
34, 705120, Note_on_c, 15, 45, 80
34, 705819, Note_on_c, 15, 45, 0
34, 705840, Note_on_c, 15, 45, 80
34, 706539, Note_on_c, 15, 45, 0
34, 706560, Note_on_c, 15, 45, 80
34, 708699, Note_on_c, 15, 45, 0
34, 708720, Note_on_c, 15, 45, 80
34, 709419, Note_on_c, 15, 45, 0
34, 709440, Note_on_c, 15, 45, 80
34, 710139, Note_on_c, 15, 45, 0
34, 710160, Note_on_c, 15, 45, 80
34, 711579, Note_on_c, 15, 45, 0
34, 711600, Note_on_c, 15, 45, 80
34, 712299, Note_on_c, 15, 45, 0
34, 712320, Note_on_c, 15, 45, 80
34, 713019, Note_on_c, 15, 45, 0
34, 713040, Note_on_c, 15, 45, 80
34, 713739, Note_on_c, 15, 45, 0
34, 713760, Note_on_c, 15, 45, 80
34, 714459, Note_on_c, 15, 45, 0
34, 714480, Note_on_c, 15, 45, 80
34, 715179, Note_on_c, 15, 45, 0
34, 715200, Note_on_c, 15, 45, 80
34, 715899, Note_on_c, 15, 45, 0
34, 715920, Note_on_c, 15, 45, 80
34, 716619, Note_on_c, 15, 45, 0
34, 716640, Note_on_c, 15, 45, 80
34, 717359, Note_on_c, 15, 45, 0
34, 717360, Note_on_c, 15, 38, 80
34, 718059, Note_on_c, 15, 38, 0
34, 718080, Note_on_c, 15, 43, 80
34, 718779, Note_on_c, 15, 43, 0
34, 718800, Note_on_c, 15, 43, 80
34, 719499, Note_on_c, 15, 43, 0
34, 719520, Note_on_c, 15, 43, 74
34, 720219, Note_on_c, 15, 43, 0
34, 720240, Note_on_c, 15, 43, 74
34, 720939, Note_on_c, 15, 43, 0
34, 720960, Note_on_c, 15, 43, 74
34, 723099, Note_on_c, 15, 43, 0
34, 723120, Note_on_c, 15, 43, 68
34, 723839, Note_on_c, 15, 43, 0
34, 726240, Note_on_c, 15, 45, 32
34, 726339, Note_on_c, 15, 45, 0
34, 726360, Note_on_c, 15, 45, 32
34, 726459, Note_on_c, 15, 45, 0
34, 726480, Note_on_c, 15, 45, 32
34, 726579, Note_on_c, 15, 45, 0
34, 726600, Note_on_c, 15, 45, 32
34, 726699, Note_on_c, 15, 45, 0
34, 726720, Note_on_c, 15, 45, 32
34, 726819, Note_on_c, 15, 45, 0
34, 726840, Note_on_c, 15, 43, 32
34, 726939, Note_on_c, 15, 43, 0
34, 726960, Note_on_c, 15, 42, 32
34, 727059, Note_on_c, 15, 42, 0
34, 727080, Note_on_c, 15, 40, 32
34, 727179, Note_on_c, 15, 40, 0
34, 727200, Note_on_c, 15, 38, 32
34, 727299, Note_on_c, 15, 38, 0
34, 727320, Note_on_c, 15, 37, 32
34, 727419, Note_on_c, 15, 37, 0
34, 727440, Note_on_c, 15, 35, 32
34, 727539, Note_on_c, 15, 35, 0
34, 727560, Note_on_c, 15, 33, 32
34, 727659, Note_on_c, 15, 33, 0
34, 727680, Note_on_c, 15, 38, 32
34, 727919, Note_on_c, 15, 38, 0
34, 732480, Note_on_c, 15, 38, 32
34, 732579, Note_on_c, 15, 38, 0
34, 732600, Note_on_c, 15, 38, 32
34, 732699, Note_on_c, 15, 38, 0
34, 732720, Note_on_c, 15, 38, 32
34, 732819, Note_on_c, 15, 38, 0
34, 732840, Note_on_c, 15, 38, 32
34, 732939, Note_on_c, 15, 38, 0
34, 732960, Note_on_c, 15, 38, 32
34, 733059, Note_on_c, 15, 38, 0
34, 733080, Note_on_c, 15, 38, 32
34, 733179, Note_on_c, 15, 38, 0
34, 733200, Note_on_c, 15, 38, 32
34, 733299, Note_on_c, 15, 38, 0
34, 733320, Note_on_c, 15, 38, 32
34, 733419, Note_on_c, 15, 38, 0
34, 733440, Note_on_c, 15, 38, 32
34, 733679, Note_on_c, 15, 38, 0
34, 733920, Note_on_c, 15, 50, 32
34, 734019, Note_on_c, 15, 50, 0
34, 734040, Note_on_c, 15, 52, 32
34, 734139, Note_on_c, 15, 52, 0
34, 734160, Note_on_c, 15, 54, 32
34, 734259, Note_on_c, 15, 54, 0
34, 734280, Note_on_c, 15, 54, 32
34, 734379, Note_on_c, 15, 54, 0
34, 734400, Note_on_c, 15, 54, 32
34, 734499, Note_on_c, 15, 54, 0
34, 734520, Note_on_c, 15, 52, 32
34, 734619, Note_on_c, 15, 52, 0
34, 734640, Note_on_c, 15, 50, 32
34, 734739, Note_on_c, 15, 50, 0
34, 734760, Note_on_c, 15, 49, 32
34, 734859, Note_on_c, 15, 49, 0
34, 734880, Note_on_c, 15, 47, 32
34, 734979, Note_on_c, 15, 47, 0
34, 735000, Note_on_c, 15, 49, 32
34, 735099, Note_on_c, 15, 49, 0
34, 735120, Note_on_c, 15, 50, 32
34, 735219, Note_on_c, 15, 50, 0
34, 735240, Note_on_c, 15, 50, 32
34, 735339, Note_on_c, 15, 50, 0
34, 735360, Note_on_c, 15, 50, 32
34, 735459, Note_on_c, 15, 50, 0
34, 735480, Note_on_c, 15, 49, 32
34, 735579, Note_on_c, 15, 49, 0
34, 735600, Note_on_c, 15, 47, 32
34, 735699, Note_on_c, 15, 47, 0
34, 735720, Note_on_c, 15, 45, 32
34, 735819, Note_on_c, 15, 45, 0
34, 735840, Note_on_c, 15, 44, 32
34, 735939, Note_on_c, 15, 44, 0
34, 735960, Note_on_c, 15, 45, 32
34, 736059, Note_on_c, 15, 45, 0
34, 736080, Note_on_c, 15, 47, 32
34, 736179, Note_on_c, 15, 47, 0
34, 736200, Note_on_c, 15, 47, 32
34, 736299, Note_on_c, 15, 47, 0
34, 736320, Note_on_c, 15, 47, 32
34, 736419, Note_on_c, 15, 47, 0
34, 736440, Note_on_c, 15, 45, 32
34, 736539, Note_on_c, 15, 45, 0
34, 736560, Note_on_c, 15, 44, 32
34, 736659, Note_on_c, 15, 44, 0
34, 736680, Note_on_c, 15, 42, 32
34, 736779, Note_on_c, 15, 42, 0
34, 736800, Note_on_c, 15, 40, 32
34, 736899, Note_on_c, 15, 40, 0
34, 736920, Note_on_c, 15, 38, 32
34, 737019, Note_on_c, 15, 38, 0
34, 737040, Note_on_c, 15, 37, 32
34, 737139, Note_on_c, 15, 37, 0
34, 737160, Note_on_c, 15, 35, 32
34, 737259, Note_on_c, 15, 35, 0
34, 737280, Note_on_c, 15, 33, 32
34, 737519, Note_on_c, 15, 33, 0
34, 742080, Note_on_c, 15, 45, 32
34, 742179, Note_on_c, 15, 45, 0
34, 742200, Note_on_c, 15, 45, 32
34, 742299, Note_on_c, 15, 45, 0
34, 742320, Note_on_c, 15, 45, 32
34, 742419, Note_on_c, 15, 45, 0
34, 742440, Note_on_c, 15, 45, 32
34, 742539, Note_on_c, 15, 45, 0
34, 742560, Note_on_c, 15, 45, 32
34, 742659, Note_on_c, 15, 45, 0
34, 742680, Note_on_c, 15, 45, 32
34, 742779, Note_on_c, 15, 45, 0
34, 742800, Note_on_c, 15, 45, 32
34, 742899, Note_on_c, 15, 45, 0
34, 742920, Note_on_c, 15, 45, 32
34, 743019, Note_on_c, 15, 45, 0
34, 743040, Note_on_c, 15, 45, 32
34, 743279, Note_on_c, 15, 45, 0
34, 743520, Note_on_c, 15, 45, 28
34, 743759, Note_on_c, 15, 45, 0
34, 744000, Note_on_c, 15, 45, 28
34, 744239, Note_on_c, 15, 45, 0
34, 744480, Note_on_c, 15, 45, 28
34, 744719, Note_on_c, 15, 45, 0
34, 744960, Note_on_c, 15, 45, 28
34, 745199, Note_on_c, 15, 45, 0
34, 745440, Note_on_c, 15, 45, 28
34, 745679, Note_on_c, 15, 45, 0
34, 745920, Note_on_c, 15, 45, 28
34, 746159, Note_on_c, 15, 45, 0
34, 746400, Note_on_c, 15, 45, 28
34, 746639, Note_on_c, 15, 45, 0
34, 746880, Note_on_c, 15, 40, 28
34, 747119, Note_on_c, 15, 40, 0
34, 747360, Note_on_c, 15, 38, 28
34, 747599, Note_on_c, 15, 38, 0
34, 747600, Note_on_c, 15, 38, 29
34, 747839, Note_on_c, 15, 38, 0
34, 747840, Note_on_c, 15, 43, 29
34, 748079, Note_on_c, 15, 43, 0
34, 748320, Note_on_c, 15, 42, 30
34, 748559, Note_on_c, 15, 42, 0
34, 748560, Note_on_c, 15, 42, 30
34, 748799, Note_on_c, 15, 42, 0
34, 748800, Note_on_c, 15, 40, 31
34, 749039, Note_on_c, 15, 40, 0
34, 749280, Note_on_c, 15, 38, 31
34, 749519, Note_on_c, 15, 38, 0
34, 749760, Note_on_c, 15, 43, 32
34, 749999, Note_on_c, 15, 43, 0
34, 750240, Note_on_c, 15, 42, 33
34, 750479, Note_on_c, 15, 42, 0
34, 750720, Note_on_c, 15, 33, 34
34, 750959, Note_on_c, 15, 33, 0
34, 751200, Note_on_c, 15, 38, 34
34, 751439, Note_on_c, 15, 38, 0
34, 751680, Note_on_c, 15, 45, 35
34, 751919, Note_on_c, 15, 45, 0
34, 752160, Note_on_c, 15, 38, 36
34, 752399, Note_on_c, 15, 38, 0
34, 752640, Note_on_c, 15, 33, 37
34, 752879, Note_on_c, 15, 33, 0
34, 753120, Note_on_c, 15, 38, 37
34, 753359, Note_on_c, 15, 38, 0
34, 753600, Note_on_c, 15, 45, 38
34, 753839, Note_on_c, 15, 45, 0
34, 754080, Note_on_c, 15, 38, 39
34, 754299, Note_on_c, 15, 38, 0
34, 754560, Note_on_c, 15, 40, 44
34, 754779, Note_on_c, 15, 40, 0
34, 754800, Note_on_c, 15, 40, 45
34, 755019, Note_on_c, 15, 40, 0
34, 755040, Note_on_c, 15, 38, 47
34, 755259, Note_on_c, 15, 38, 0
34, 755280, Note_on_c, 15, 38, 48
34, 755499, Note_on_c, 15, 38, 0
34, 755520, Note_on_c, 15, 43, 50
34, 755739, Note_on_c, 15, 43, 0
34, 755760, Note_on_c, 15, 43, 51
34, 755979, Note_on_c, 15, 43, 0
34, 756000, Note_on_c, 15, 42, 53
34, 756219, Note_on_c, 15, 42, 0
34, 756240, Note_on_c, 15, 42, 54
34, 756459, Note_on_c, 15, 42, 0
34, 756480, Note_on_c, 15, 42, 56
34, 756719, Note_on_c, 15, 42, 0
34, 756720, Note_on_c, 15, 40, 57
34, 756939, Note_on_c, 15, 40, 0
34, 756960, Note_on_c, 15, 38, 59
34, 757199, Note_on_c, 15, 38, 0
34, 757200, Note_on_c, 15, 45, 60
34, 757419, Note_on_c, 15, 45, 0
34, 757440, Note_on_c, 15, 45, 62
34, 757679, Note_on_c, 15, 45, 0
34, 757680, Note_on_c, 15, 43, 63
34, 757899, Note_on_c, 15, 43, 0
34, 757920, Note_on_c, 15, 43, 65
34, 758159, Note_on_c, 15, 43, 0
34, 758160, Note_on_c, 15, 42, 66
34, 758379, Note_on_c, 15, 42, 0
34, 758400, Note_on_c, 15, 42, 68
34, 758639, Note_on_c, 15, 42, 0
34, 758640, Note_on_c, 15, 40, 69
34, 758859, Note_on_c, 15, 40, 0
34, 758880, Note_on_c, 15, 38, 71
34, 759119, Note_on_c, 15, 38, 0
34, 759120, Note_on_c, 15, 45, 72
34, 759339, Note_on_c, 15, 45, 0
34, 759360, Note_on_c, 15, 45, 74
34, 759599, Note_on_c, 15, 45, 0
34, 759600, Note_on_c, 15, 43, 75
34, 759819, Note_on_c, 15, 43, 0
34, 759840, Note_on_c, 15, 43, 77
34, 760079, Note_on_c, 15, 43, 0
34, 760080, Note_on_c, 15, 42, 78
34, 760299, Note_on_c, 15, 42, 0
34, 760320, Note_on_c, 15, 45, 80
34, 760539, Note_on_c, 15, 45, 0
34, 760560, Note_on_c, 15, 33, 80
34, 760779, Note_on_c, 15, 33, 0
34, 760800, Note_on_c, 15, 35, 92
34, 760859, Note_on_c, 15, 35, 0
34, 760860, Note_on_c, 15, 35, 80
34, 761019, Note_on_c, 15, 35, 0
34, 761040, Note_on_c, 15, 33, 80
34, 761259, Note_on_c, 15, 33, 0
34, 761280, Note_on_c, 15, 38, 80
34, 761499, Note_on_c, 15, 38, 0
34, 761520, Note_on_c, 15, 37, 80
34, 761739, Note_on_c, 15, 37, 0
34, 761760, Note_on_c, 15, 42, 80
34, 761979, Note_on_c, 15, 42, 0
34, 762000, Note_on_c, 15, 40, 80
34, 762219, Note_on_c, 15, 40, 0
34, 762240, Note_on_c, 15, 45, 80
34, 762459, Note_on_c, 15, 45, 0
34, 762480, Note_on_c, 15, 43, 80
34, 762699, Note_on_c, 15, 43, 0
34, 762720, Note_on_c, 15, 43, 80
34, 762939, Note_on_c, 15, 43, 0
34, 762960, Note_on_c, 15, 43, 92
34, 763179, Note_on_c, 15, 43, 0
34, 763200, Note_on_c, 15, 50, 80
34, 763419, Note_on_c, 15, 50, 0
34, 763440, Note_on_c, 15, 49, 80
34, 763659, Note_on_c, 15, 49, 0
34, 763680, Note_on_c, 15, 54, 80
34, 763899, Note_on_c, 15, 54, 0
34, 763920, Note_on_c, 15, 52, 80
34, 764139, Note_on_c, 15, 52, 0
34, 764160, Note_on_c, 15, 57, 80
34, 764379, Note_on_c, 15, 57, 0
34, 764400, Note_on_c, 15, 55, 80
34, 764619, Note_on_c, 15, 55, 0
34, 764640, Note_on_c, 15, 55, 44
34, 764739, Note_on_c, 15, 55, 0
34, 764760, Note_on_c, 15, 45, 52
34, 764859, Note_on_c, 15, 45, 0
34, 764880, Note_on_c, 15, 45, 60
34, 764979, Note_on_c, 15, 45, 0
34, 765000, Note_on_c, 15, 45, 68
34, 765099, Note_on_c, 15, 45, 0
34, 765120, Note_on_c, 15, 45, 76
34, 765219, Note_on_c, 15, 45, 0
34, 765240, Note_on_c, 15, 45, 84
34, 765339, Note_on_c, 15, 45, 0
34, 765360, Note_on_c, 15, 50, 92
34, 765459, Note_on_c, 15, 50, 0
34, 765480, Note_on_c, 15, 38, 92
34, 765579, Note_on_c, 15, 38, 0
34, 765600, Note_on_c, 15, 50, 92
34, 765699, Note_on_c, 15, 50, 0
34, 765720, Note_on_c, 15, 38, 92
34, 765819, Note_on_c, 15, 38, 0
34, 765840, Note_on_c, 15, 42, 92
34, 765939, Note_on_c, 15, 42, 0
34, 765960, Note_on_c, 15, 45, 92
34, 766059, Note_on_c, 15, 45, 0
34, 766080, Note_on_c, 15, 50, 80
34, 766179, Note_on_c, 15, 50, 0
34, 766200, Note_on_c, 15, 49, 80
34, 766299, Note_on_c, 15, 49, 0
34, 766320, Note_on_c, 15, 47, 80
34, 766419, Note_on_c, 15, 47, 0
34, 766440, Note_on_c, 15, 35, 80
34, 766539, Note_on_c, 15, 35, 0
34, 766560, Note_on_c, 15, 47, 80
34, 766659, Note_on_c, 15, 47, 0
34, 766680, Note_on_c, 15, 35, 80
34, 766779, Note_on_c, 15, 35, 0
34, 766800, Note_on_c, 15, 38, 80
34, 766899, Note_on_c, 15, 38, 0
34, 766920, Note_on_c, 15, 42, 80
34, 767019, Note_on_c, 15, 42, 0
34, 767040, Note_on_c, 15, 47, 80
34, 767139, Note_on_c, 15, 47, 0
34, 767160, Note_on_c, 15, 45, 80
34, 767259, Note_on_c, 15, 45, 0
34, 767280, Note_on_c, 15, 43, 80
34, 767379, Note_on_c, 15, 43, 0
34, 767400, Note_on_c, 15, 31, 80
34, 767499, Note_on_c, 15, 31, 0
34, 767520, Note_on_c, 15, 55, 80
34, 767619, Note_on_c, 15, 55, 0
34, 767640, Note_on_c, 15, 43, 80
34, 767739, Note_on_c, 15, 43, 0
34, 767760, Note_on_c, 15, 47, 80
34, 767859, Note_on_c, 15, 47, 0
34, 767880, Note_on_c, 15, 50, 80
34, 767979, Note_on_c, 15, 50, 0
34, 768000, Note_on_c, 15, 55, 80
34, 768099, Note_on_c, 15, 55, 0
34, 768120, Note_on_c, 15, 54, 80
34, 768219, Note_on_c, 15, 54, 0
34, 768240, Note_on_c, 15, 52, 80
34, 768339, Note_on_c, 15, 52, 0
34, 768360, Note_on_c, 15, 40, 80
34, 768459, Note_on_c, 15, 40, 0
34, 768480, Note_on_c, 15, 52, 80
34, 768579, Note_on_c, 15, 52, 0
34, 768600, Note_on_c, 15, 40, 80
34, 768699, Note_on_c, 15, 40, 0
34, 768720, Note_on_c, 15, 43, 80
34, 768819, Note_on_c, 15, 43, 0
34, 768840, Note_on_c, 15, 47, 80
34, 768939, Note_on_c, 15, 47, 0
34, 768960, Note_on_c, 15, 45, 80
34, 769199, Note_on_c, 15, 45, 0
34, 769920, Note_on_c, 15, 47, 68
34, 770159, Note_on_c, 15, 47, 0
34, 770880, Note_on_c, 15, 43, 44
34, 771119, Note_on_c, 15, 43, 0
34, 771840, Note_on_c, 15, 45, 44
34, 772079, Note_on_c, 15, 45, 0
34, 772800, Note_on_c, 15, 45, 44
34, 773279, Note_on_c, 15, 45, 0
34, 776640, Note_on_c, 15, 45, 44
34, 776879, Note_on_c, 15, 45, 0
34, 777120, Note_on_c, 15, 45, 48
34, 777359, Note_on_c, 15, 45, 0
34, 777600, Note_on_c, 15, 45, 53
34, 777839, Note_on_c, 15, 45, 0
34, 778080, Note_on_c, 15, 45, 57
34, 778319, Note_on_c, 15, 45, 0
34, 778560, Note_on_c, 15, 33, 62
34, 778799, Note_on_c, 15, 33, 0
34, 778800, Note_on_c, 15, 37, 64
34, 779019, Note_on_c, 15, 37, 0
34, 779040, Note_on_c, 15, 38, 66
34, 779279, Note_on_c, 15, 38, 0
34, 779280, Note_on_c, 15, 42, 68
34, 779499, Note_on_c, 15, 42, 0
34, 779520, Note_on_c, 15, 45, 71
34, 779759, Note_on_c, 15, 45, 0
34, 779760, Note_on_c, 15, 37, 73
34, 779979, Note_on_c, 15, 37, 0
34, 780000, Note_on_c, 15, 38, 75
34, 780239, Note_on_c, 15, 38, 0
34, 780240, Note_on_c, 15, 42, 77
34, 780459, Note_on_c, 15, 42, 0
34, 780480, Note_on_c, 15, 45, 80
34, 780699, Note_on_c, 15, 45, 0
34, 780720, Note_on_c, 15, 33, 80
34, 780939, Note_on_c, 15, 33, 0
34, 780960, Note_on_c, 15, 35, 80
34, 781179, Note_on_c, 15, 35, 0
34, 781200, Note_on_c, 15, 33, 80
34, 781419, Note_on_c, 15, 33, 0
34, 781440, Note_on_c, 15, 38, 80
34, 781659, Note_on_c, 15, 38, 0
34, 781680, Note_on_c, 15, 37, 80
34, 781899, Note_on_c, 15, 37, 0
34, 781920, Note_on_c, 15, 42, 80
34, 782139, Note_on_c, 15, 42, 0
34, 782160, Note_on_c, 15, 40, 80
34, 782379, Note_on_c, 15, 40, 0
34, 782400, Note_on_c, 15, 45, 80
34, 782619, Note_on_c, 15, 45, 0
34, 782640, Note_on_c, 15, 43, 80
34, 782859, Note_on_c, 15, 43, 0
34, 782880, Note_on_c, 15, 43, 80
34, 783099, Note_on_c, 15, 43, 0
34, 783120, Note_on_c, 15, 43, 92
34, 783339, Note_on_c, 15, 43, 0
34, 783360, Note_on_c, 15, 50, 80
34, 783579, Note_on_c, 15, 50, 0
34, 783600, Note_on_c, 15, 49, 80
34, 783819, Note_on_c, 15, 49, 0
34, 783840, Note_on_c, 15, 54, 80
34, 784059, Note_on_c, 15, 54, 0
34, 784080, Note_on_c, 15, 52, 80
34, 784299, Note_on_c, 15, 52, 0
34, 784320, Note_on_c, 15, 57, 80
34, 784539, Note_on_c, 15, 57, 0
34, 784560, Note_on_c, 15, 55, 80
34, 784779, Note_on_c, 15, 55, 0
34, 784800, Note_on_c, 15, 55, 44
34, 784899, Note_on_c, 15, 55, 0
34, 784920, Note_on_c, 15, 45, 52
34, 785019, Note_on_c, 15, 45, 0
34, 785040, Note_on_c, 15, 45, 60
34, 785139, Note_on_c, 15, 45, 0
34, 785160, Note_on_c, 15, 45, 68
34, 785259, Note_on_c, 15, 45, 0
34, 785280, Note_on_c, 15, 45, 76
34, 785379, Note_on_c, 15, 45, 0
34, 785400, Note_on_c, 15, 45, 84
34, 785499, Note_on_c, 15, 45, 0
34, 785520, Note_on_c, 15, 50, 92
34, 785619, Note_on_c, 15, 50, 0
34, 785640, Note_on_c, 15, 38, 92
34, 785739, Note_on_c, 15, 38, 0
34, 785760, Note_on_c, 15, 50, 92
34, 785859, Note_on_c, 15, 50, 0
34, 785880, Note_on_c, 15, 38, 92
34, 785979, Note_on_c, 15, 38, 0
34, 786000, Note_on_c, 15, 42, 92
34, 786099, Note_on_c, 15, 42, 0
34, 786120, Note_on_c, 15, 45, 92
34, 786219, Note_on_c, 15, 45, 0
34, 786240, Note_on_c, 15, 50, 80
34, 786339, Note_on_c, 15, 50, 0
34, 786360, Note_on_c, 15, 49, 80
34, 786459, Note_on_c, 15, 49, 0
34, 786480, Note_on_c, 15, 47, 80
34, 786579, Note_on_c, 15, 47, 0
34, 786600, Note_on_c, 15, 35, 80
34, 786699, Note_on_c, 15, 35, 0
34, 786720, Note_on_c, 15, 47, 80
34, 786819, Note_on_c, 15, 47, 0
34, 786840, Note_on_c, 15, 35, 80
34, 786939, Note_on_c, 15, 35, 0
34, 786960, Note_on_c, 15, 38, 80
34, 787059, Note_on_c, 15, 38, 0
34, 787080, Note_on_c, 15, 42, 80
34, 787179, Note_on_c, 15, 42, 0
34, 787200, Note_on_c, 15, 47, 80
34, 787299, Note_on_c, 15, 47, 0
34, 787320, Note_on_c, 15, 45, 80
34, 787419, Note_on_c, 15, 45, 0
34, 787440, Note_on_c, 15, 43, 80
34, 787539, Note_on_c, 15, 43, 0
34, 787560, Note_on_c, 15, 31, 80
34, 787659, Note_on_c, 15, 31, 0
34, 787680, Note_on_c, 15, 55, 80
34, 787779, Note_on_c, 15, 55, 0
34, 787800, Note_on_c, 15, 43, 80
34, 787899, Note_on_c, 15, 43, 0
34, 787920, Note_on_c, 15, 47, 80
34, 788019, Note_on_c, 15, 47, 0
34, 788040, Note_on_c, 15, 50, 80
34, 788139, Note_on_c, 15, 50, 0
34, 788160, Note_on_c, 15, 55, 80
34, 788259, Note_on_c, 15, 55, 0
34, 788280, Note_on_c, 15, 54, 80
34, 788379, Note_on_c, 15, 54, 0
34, 788400, Note_on_c, 15, 52, 80
34, 788499, Note_on_c, 15, 52, 0
34, 788520, Note_on_c, 15, 40, 80
34, 788619, Note_on_c, 15, 40, 0
34, 788640, Note_on_c, 15, 52, 80
34, 788739, Note_on_c, 15, 52, 0
34, 788760, Note_on_c, 15, 40, 80
34, 788859, Note_on_c, 15, 40, 0
34, 788880, Note_on_c, 15, 43, 80
34, 788979, Note_on_c, 15, 43, 0
34, 789000, Note_on_c, 15, 47, 80
34, 789099, Note_on_c, 15, 47, 0
34, 789120, Note_on_c, 15, 52, 80
34, 789219, Note_on_c, 15, 52, 0
34, 789240, Note_on_c, 15, 40, 80
34, 789339, Note_on_c, 15, 40, 0
34, 789360, Note_on_c, 15, 43, 80
34, 789459, Note_on_c, 15, 43, 0
34, 789480, Note_on_c, 15, 47, 80
34, 789579, Note_on_c, 15, 47, 0
34, 789600, Note_on_c, 15, 52, 80
34, 789699, Note_on_c, 15, 52, 0
34, 789720, Note_on_c, 15, 40, 80
34, 789819, Note_on_c, 15, 40, 0
34, 789840, Note_on_c, 15, 44, 80
34, 789939, Note_on_c, 15, 44, 0
34, 789960, Note_on_c, 15, 47, 80
34, 790059, Note_on_c, 15, 47, 0
34, 790080, Note_on_c, 15, 52, 80
34, 790319, Note_on_c, 15, 52, 0
34, 791520, Note_on_c, 15, 44, 44
34, 791759, Note_on_c, 15, 44, 0
34, 792240, Note_on_c, 15, 42, 44
34, 792479, Note_on_c, 15, 42, 0
34, 793320, Note_on_c, 15, 40, 44
34, 793679, Note_on_c, 15, 40, 0
34, 794280, Note_on_c, 15, 42, 44
34, 794639, Note_on_c, 15, 42, 0
34, 795240, Note_on_c, 15, 42, 44
34, 795599, Note_on_c, 15, 42, 0
34, 796200, Note_on_c, 15, 42, 44
34, 796559, Note_on_c, 15, 42, 0
34, 797160, Note_on_c, 15, 42, 44
34, 797519, Note_on_c, 15, 42, 0
34, 798120, Note_on_c, 15, 42, 44
34, 798479, Note_on_c, 15, 42, 0
34, 799080, Note_on_c, 15, 35, 44
34, 799439, Note_on_c, 15, 35, 0
34, 800040, Note_on_c, 15, 33, 44
34, 800399, Note_on_c, 15, 33, 0
34, 801360, Note_on_c, 15, 47, 28
34, 801579, Note_on_c, 15, 47, 0
34, 801600, Note_on_c, 15, 45, 28
34, 801839, Note_on_c, 15, 45, 0
34, 802320, Note_on_c, 15, 47, 28
34, 802539, Note_on_c, 15, 47, 0
34, 802560, Note_on_c, 15, 45, 28
34, 802799, Note_on_c, 15, 45, 0
34, 803280, Note_on_c, 15, 47, 28
34, 803499, Note_on_c, 15, 47, 0
34, 803520, Note_on_c, 15, 45, 28
34, 803759, Note_on_c, 15, 45, 0
34, 804240, Note_on_c, 15, 47, 28
34, 804459, Note_on_c, 15, 47, 0
34, 804480, Note_on_c, 15, 45, 28
34, 804699, Note_on_c, 15, 45, 0
34, 804720, Note_on_c, 15, 47, 35
34, 804939, Note_on_c, 15, 47, 0
34, 804960, Note_on_c, 15, 45, 39
34, 805179, Note_on_c, 15, 45, 0
34, 805200, Note_on_c, 15, 47, 43
34, 805419, Note_on_c, 15, 47, 0
34, 805440, Note_on_c, 15, 45, 47
34, 805659, Note_on_c, 15, 45, 0
34, 805680, Note_on_c, 15, 47, 50
34, 805899, Note_on_c, 15, 47, 0
34, 805920, Note_on_c, 15, 45, 54
34, 806139, Note_on_c, 15, 45, 0
34, 806160, Note_on_c, 15, 47, 58
34, 806379, Note_on_c, 15, 47, 0
34, 806400, Note_on_c, 15, 45, 62
34, 806619, Note_on_c, 15, 45, 0
34, 806640, Note_on_c, 15, 47, 65
34, 806859, Note_on_c, 15, 47, 0
34, 806880, Note_on_c, 15, 45, 69
34, 807099, Note_on_c, 15, 45, 0
34, 807120, Note_on_c, 15, 47, 73
34, 807339, Note_on_c, 15, 47, 0
34, 807360, Note_on_c, 15, 45, 77
34, 807579, Note_on_c, 15, 45, 0
34, 807600, Note_on_c, 15, 47, 80
34, 807819, Note_on_c, 15, 47, 0
34, 807840, Note_on_c, 15, 45, 84
34, 808059, Note_on_c, 15, 45, 0
34, 808080, Note_on_c, 15, 47, 88
34, 808199, Note_on_c, 15, 47, 0
34, 808200, Note_on_c, 15, 49, 90
34, 808299, Note_on_c, 15, 49, 0
34, 808320, Note_on_c, 15, 50, 92
34, 808559, Note_on_c, 15, 50, 0
34, 811680, Note_on_c, 15, 33, 92
34, 811919, Note_on_c, 15, 33, 0
34, 811920, Note_on_c, 15, 35, 92
34, 812039, Note_on_c, 15, 35, 0
34, 812040, Note_on_c, 15, 37, 92
34, 812159, Note_on_c, 15, 37, 0
34, 812160, Note_on_c, 15, 38, 92
34, 812339, Note_on_c, 15, 38, 0
34, 812400, Note_on_c, 15, 38, 80
34, 812579, Note_on_c, 15, 38, 0
34, 812640, Note_on_c, 15, 37, 80
34, 812819, Note_on_c, 15, 37, 0
34, 812880, Note_on_c, 15, 33, 80
34, 813059, Note_on_c, 15, 33, 0
34, 813120, Note_on_c, 15, 40, 92
34, 813299, Note_on_c, 15, 40, 0
34, 813360, Note_on_c, 15, 40, 80
34, 813539, Note_on_c, 15, 40, 0
34, 813600, Note_on_c, 15, 39, 80
34, 813779, Note_on_c, 15, 39, 0
34, 813840, Note_on_c, 15, 35, 80
34, 814019, Note_on_c, 15, 35, 0
34, 814080, Note_on_c, 15, 40, 92
34, 814259, Note_on_c, 15, 40, 0
34, 814320, Note_on_c, 15, 42, 80
34, 814499, Note_on_c, 15, 42, 0
34, 814560, Note_on_c, 15, 43, 80
34, 814739, Note_on_c, 15, 43, 0
34, 814800, Note_on_c, 15, 44, 80
34, 814979, Note_on_c, 15, 44, 0
34, 815040, Note_on_c, 15, 45, 92
34, 815219, Note_on_c, 15, 45, 0
34, 815280, Note_on_c, 15, 44, 80
34, 815459, Note_on_c, 15, 44, 0
34, 815520, Note_on_c, 15, 45, 80
34, 815699, Note_on_c, 15, 45, 0
34, 815760, Note_on_c, 15, 47, 80
34, 815879, Note_on_c, 15, 47, 0
34, 815880, Note_on_c, 15, 45, 80
34, 815979, Note_on_c, 15, 45, 0
34, 816000, Note_on_c, 15, 43, 80
34, 816179, Note_on_c, 15, 43, 0
34, 816240, Note_on_c, 15, 43, 80
34, 816359, Note_on_c, 15, 43, 0
34, 816360, Note_on_c, 15, 42, 80
34, 816459, Note_on_c, 15, 42, 0
34, 816480, Note_on_c, 15, 40, 80
34, 816659, Note_on_c, 15, 40, 0
34, 816720, Note_on_c, 15, 40, 80
34, 816839, Note_on_c, 15, 40, 0
34, 816840, Note_on_c, 15, 38, 80
34, 816939, Note_on_c, 15, 38, 0
34, 816960, Note_on_c, 15, 37, 80
34, 817139, Note_on_c, 15, 37, 0
34, 817200, Note_on_c, 15, 37, 80
34, 817319, Note_on_c, 15, 37, 0
34, 817320, Note_on_c, 15, 35, 80
34, 817419, Note_on_c, 15, 35, 0
34, 817440, Note_on_c, 15, 33, 80
34, 817619, Note_on_c, 15, 33, 0
34, 817680, Note_on_c, 15, 45, 80
34, 817889, Note_on_c, 15, 45, 0
34, 817920, Note_on_c, 15, 43, 92
34, 818159, Note_on_c, 15, 43, 0
34, 818160, Note_on_c, 15, 45, 80
34, 818399, Note_on_c, 15, 45, 0
34, 818400, Note_on_c, 15, 43, 80
34, 818639, Note_on_c, 15, 43, 0
34, 818640, Note_on_c, 15, 42, 80
34, 818849, Note_on_c, 15, 42, 0
34, 818880, Note_on_c, 15, 43, 80
34, 819119, Note_on_c, 15, 43, 0
34, 819120, Note_on_c, 15, 45, 80
34, 819359, Note_on_c, 15, 45, 0
34, 819360, Note_on_c, 15, 43, 80
34, 819599, Note_on_c, 15, 43, 0
34, 819600, Note_on_c, 15, 42, 80
34, 819809, Note_on_c, 15, 42, 0
34, 819840, Note_on_c, 15, 43, 80
34, 820079, Note_on_c, 15, 43, 0
34, 820080, Note_on_c, 15, 45, 80
34, 820319, Note_on_c, 15, 45, 0
34, 820320, Note_on_c, 15, 43, 80
34, 820559, Note_on_c, 15, 43, 0
34, 820560, Note_on_c, 15, 42, 80
34, 820769, Note_on_c, 15, 42, 0
34, 820800, Note_on_c, 15, 43, 80
34, 821039, Note_on_c, 15, 43, 0
34, 821040, Note_on_c, 15, 45, 80
34, 821279, Note_on_c, 15, 45, 0
34, 821280, Note_on_c, 15, 43, 80
34, 821519, Note_on_c, 15, 43, 0
34, 821520, Note_on_c, 15, 42, 80
34, 821729, Note_on_c, 15, 42, 0
34, 821760, Note_on_c, 15, 43, 80
34, 821999, Note_on_c, 15, 43, 0
34, 822000, Note_on_c, 15, 45, 80
34, 822239, Note_on_c, 15, 45, 0
34, 822240, Note_on_c, 15, 43, 80
34, 822479, Note_on_c, 15, 43, 0
34, 822480, Note_on_c, 15, 42, 80
34, 822689, Note_on_c, 15, 42, 0
34, 822720, Note_on_c, 15, 43, 80
34, 822959, Note_on_c, 15, 43, 0
34, 822960, Note_on_c, 15, 45, 80
34, 823199, Note_on_c, 15, 45, 0
34, 823200, Note_on_c, 15, 43, 80
34, 823439, Note_on_c, 15, 43, 0
34, 823440, Note_on_c, 15, 42, 80
34, 823649, Note_on_c, 15, 42, 0
34, 823680, Note_on_c, 15, 43, 80
34, 823919, Note_on_c, 15, 43, 0
34, 823920, Note_on_c, 15, 45, 80
34, 824159, Note_on_c, 15, 45, 0
34, 824160, Note_on_c, 15, 43, 80
34, 824399, Note_on_c, 15, 43, 0
34, 824400, Note_on_c, 15, 42, 80
34, 824609, Note_on_c, 15, 42, 0
34, 824640, Note_on_c, 15, 43, 80
34, 824879, Note_on_c, 15, 43, 0
34, 824880, Note_on_c, 15, 45, 80
34, 825119, Note_on_c, 15, 45, 0
34, 825120, Note_on_c, 15, 43, 80
34, 825359, Note_on_c, 15, 43, 0
34, 825360, Note_on_c, 15, 42, 80
34, 825569, Note_on_c, 15, 42, 0
34, 825600, Note_on_c, 15, 40, 80
34, 825809, Note_on_c, 15, 40, 0
34, 825840, Note_on_c, 15, 52, 80
34, 826049, Note_on_c, 15, 52, 0
34, 826080, Note_on_c, 15, 38, 80
34, 826289, Note_on_c, 15, 38, 0
34, 826320, Note_on_c, 15, 50, 80
34, 826529, Note_on_c, 15, 50, 0
34, 826560, Note_on_c, 15, 43, 80
34, 826769, Note_on_c, 15, 43, 0
34, 826800, Note_on_c, 15, 55, 80
34, 827009, Note_on_c, 15, 55, 0
34, 827040, Note_on_c, 15, 31, 80
34, 827249, Note_on_c, 15, 31, 0
34, 827280, Note_on_c, 15, 43, 80
34, 827489, Note_on_c, 15, 43, 0
34, 827520, Note_on_c, 15, 33, 80
34, 827729, Note_on_c, 15, 33, 0
34, 827760, Note_on_c, 15, 45, 80
34, 827969, Note_on_c, 15, 45, 0
34, 828000, Note_on_c, 15, 31, 80
34, 828209, Note_on_c, 15, 31, 0
34, 828240, Note_on_c, 15, 43, 80
34, 828449, Note_on_c, 15, 43, 0
34, 828480, Note_on_c, 15, 30, 80
34, 828689, Note_on_c, 15, 30, 0
34, 828720, Note_on_c, 15, 42, 80
34, 828929, Note_on_c, 15, 42, 0
34, 828960, Note_on_c, 15, 42, 80
34, 829169, Note_on_c, 15, 42, 0
34, 829200, Note_on_c, 15, 54, 80
34, 829409, Note_on_c, 15, 54, 0
34, 829440, Note_on_c, 15, 40, 80
34, 829649, Note_on_c, 15, 40, 0
34, 829680, Note_on_c, 15, 52, 80
34, 829889, Note_on_c, 15, 52, 0
34, 829920, Note_on_c, 15, 38, 80
34, 830129, Note_on_c, 15, 38, 0
34, 830160, Note_on_c, 15, 50, 80
34, 830369, Note_on_c, 15, 50, 0
34, 830400, Note_on_c, 15, 43, 80
34, 830609, Note_on_c, 15, 43, 0
34, 830640, Note_on_c, 15, 55, 80
34, 830849, Note_on_c, 15, 55, 0
34, 830880, Note_on_c, 15, 31, 80
34, 831089, Note_on_c, 15, 31, 0
34, 831120, Note_on_c, 15, 43, 80
34, 831329, Note_on_c, 15, 43, 0
34, 831360, Note_on_c, 15, 33, 80
34, 831569, Note_on_c, 15, 33, 0
34, 831600, Note_on_c, 15, 45, 80
34, 831809, Note_on_c, 15, 45, 0
34, 831840, Note_on_c, 15, 33, 80
34, 832049, Note_on_c, 15, 33, 0
34, 832080, Note_on_c, 15, 45, 80
34, 832289, Note_on_c, 15, 45, 0
34, 832320, Note_on_c, 15, 50, 80
34, 832529, Note_on_c, 15, 50, 0
34, 832560, Note_on_c, 15, 50, 80
34, 832769, Note_on_c, 15, 50, 0
34, 832800, Note_on_c, 15, 49, 80
34, 833009, Note_on_c, 15, 49, 0
34, 833040, Note_on_c, 15, 45, 80
34, 833279, Note_on_c, 15, 45, 0
34, 834240, Note_on_c, 15, 52, 80
34, 834449, Note_on_c, 15, 52, 0
34, 834480, Note_on_c, 15, 52, 80
34, 834689, Note_on_c, 15, 52, 0
34, 834720, Note_on_c, 15, 51, 80
34, 834929, Note_on_c, 15, 51, 0
34, 834960, Note_on_c, 15, 47, 80
34, 835169, Note_on_c, 15, 47, 0
34, 835200, Note_on_c, 15, 40, 80
34, 835409, Note_on_c, 15, 40, 0
34, 835440, Note_on_c, 15, 40, 80
34, 835649, Note_on_c, 15, 40, 0
34, 835680, Note_on_c, 15, 39, 80
34, 835889, Note_on_c, 15, 39, 0
34, 835920, Note_on_c, 15, 35, 80
34, 836019, Note_on_c, 15, 35, 0
34, 836040, Note_on_c, 15, 47, 80
34, 836139, Note_on_c, 15, 47, 0
34, 836160, Note_on_c, 15, 47, 92
34, 836519, Note_on_c, 15, 47, 0
34, 836640, Note_on_c, 15, 47, 92
34, 836999, Note_on_c, 15, 47, 0
34, 837120, Note_on_c, 15, 47, 92
34, 837479, Note_on_c, 15, 47, 0
34, 837600, Note_on_c, 15, 47, 92
34, 837959, Note_on_c, 15, 47, 0
34, 838080, Note_on_c, 15, 47, 92
34, 838439, Note_on_c, 15, 47, 0
34, 838560, Note_on_c, 15, 47, 92
34, 838919, Note_on_c, 15, 47, 0
34, 839040, Note_on_c, 15, 48, 92
34, 839399, Note_on_c, 15, 48, 0
34, 839520, Note_on_c, 15, 48, 92
34, 839879, Note_on_c, 15, 48, 0
34, 840000, Note_on_c, 15, 48, 92
34, 840359, Note_on_c, 15, 48, 0
34, 840480, Note_on_c, 15, 48, 92
34, 840839, Note_on_c, 15, 48, 0
34, 840960, Note_on_c, 15, 53, 92
34, 841319, Note_on_c, 15, 53, 0
34, 841440, Note_on_c, 15, 50, 92
34, 841799, Note_on_c, 15, 50, 0
34, 841920, Note_on_c, 15, 45, 92
34, 842279, Note_on_c, 15, 45, 0
34, 842400, Note_on_c, 15, 57, 92
34, 842609, Note_on_c, 15, 57, 0
34, 842640, Note_on_c, 15, 45, 92
34, 842849, Note_on_c, 15, 45, 0
34, 842880, Note_on_c, 15, 47, 92
34, 842979, Note_on_c, 15, 47, 0
34, 843000, Note_on_c, 15, 47, 92
34, 843099, Note_on_c, 15, 47, 0
34, 843120, Note_on_c, 15, 47, 92
34, 843219, Note_on_c, 15, 47, 0
34, 843240, Note_on_c, 15, 47, 92
34, 843339, Note_on_c, 15, 47, 0
34, 843360, Note_on_c, 15, 47, 92
34, 843459, Note_on_c, 15, 47, 0
34, 843480, Note_on_c, 15, 47, 80
34, 843579, Note_on_c, 15, 47, 0
34, 843600, Note_on_c, 15, 47, 80
34, 843699, Note_on_c, 15, 47, 0
34, 843720, Note_on_c, 15, 47, 80
34, 843819, Note_on_c, 15, 47, 0
34, 843840, Note_on_c, 15, 47, 80
34, 843939, Note_on_c, 15, 47, 0
34, 843960, Note_on_c, 15, 47, 80
34, 844059, Note_on_c, 15, 47, 0
34, 844080, Note_on_c, 15, 47, 80
34, 844179, Note_on_c, 15, 47, 0
34, 844200, Note_on_c, 15, 47, 80
34, 844299, Note_on_c, 15, 47, 0
34, 844320, Note_on_c, 15, 47, 80
34, 844419, Note_on_c, 15, 47, 0
34, 844440, Note_on_c, 15, 47, 80
34, 844539, Note_on_c, 15, 47, 0
34, 844560, Note_on_c, 15, 47, 80
34, 844659, Note_on_c, 15, 47, 0
34, 844680, Note_on_c, 15, 47, 80
34, 844779, Note_on_c, 15, 47, 0
34, 844800, Note_on_c, 15, 47, 80
34, 844899, Note_on_c, 15, 47, 0
34, 844920, Note_on_c, 15, 47, 80
34, 845019, Note_on_c, 15, 47, 0
34, 845040, Note_on_c, 15, 47, 80
34, 845139, Note_on_c, 15, 47, 0
34, 845160, Note_on_c, 15, 47, 80
34, 845259, Note_on_c, 15, 47, 0
34, 845280, Note_on_c, 15, 47, 80
34, 845379, Note_on_c, 15, 47, 0
34, 845400, Note_on_c, 15, 47, 80
34, 845499, Note_on_c, 15, 47, 0
34, 845520, Note_on_c, 15, 47, 80
34, 845619, Note_on_c, 15, 47, 0
34, 845640, Note_on_c, 15, 47, 80
34, 845739, Note_on_c, 15, 47, 0
34, 845760, Note_on_c, 15, 47, 80
34, 845859, Note_on_c, 15, 47, 0
34, 845880, Note_on_c, 15, 47, 80
34, 845979, Note_on_c, 15, 47, 0
34, 846000, Note_on_c, 15, 47, 80
34, 846099, Note_on_c, 15, 47, 0
34, 846120, Note_on_c, 15, 47, 80
34, 846219, Note_on_c, 15, 47, 0
34, 846240, Note_on_c, 15, 47, 80
34, 846339, Note_on_c, 15, 47, 0
34, 846360, Note_on_c, 15, 47, 80
34, 846459, Note_on_c, 15, 47, 0
34, 846480, Note_on_c, 15, 47, 80
34, 846579, Note_on_c, 15, 47, 0
34, 846600, Note_on_c, 15, 47, 80
34, 846699, Note_on_c, 15, 47, 0
34, 846720, Note_on_c, 15, 48, 92
34, 846819, Note_on_c, 15, 48, 0
34, 846840, Note_on_c, 15, 48, 92
34, 846939, Note_on_c, 15, 48, 0
34, 846960, Note_on_c, 15, 48, 92
34, 847059, Note_on_c, 15, 48, 0
34, 847080, Note_on_c, 15, 48, 92
34, 847179, Note_on_c, 15, 48, 0
34, 847200, Note_on_c, 15, 48, 80
34, 847299, Note_on_c, 15, 48, 0
34, 847320, Note_on_c, 15, 48, 80
34, 847419, Note_on_c, 15, 48, 0
34, 847440, Note_on_c, 15, 48, 80
34, 847539, Note_on_c, 15, 48, 0
34, 847560, Note_on_c, 15, 48, 80
34, 847659, Note_on_c, 15, 48, 0
34, 847680, Note_on_c, 15, 48, 92
34, 847779, Note_on_c, 15, 48, 0
34, 847800, Note_on_c, 15, 48, 92
34, 847899, Note_on_c, 15, 48, 0
34, 847920, Note_on_c, 15, 48, 92
34, 848019, Note_on_c, 15, 48, 0
34, 848040, Note_on_c, 15, 48, 92
34, 848139, Note_on_c, 15, 48, 0
34, 848160, Note_on_c, 15, 48, 80
34, 848259, Note_on_c, 15, 48, 0
34, 848280, Note_on_c, 15, 48, 80
34, 848379, Note_on_c, 15, 48, 0
34, 848400, Note_on_c, 15, 48, 80
34, 848499, Note_on_c, 15, 48, 0
34, 848520, Note_on_c, 15, 48, 80
34, 848619, Note_on_c, 15, 48, 0
34, 848640, Note_on_c, 15, 53, 92
34, 848739, Note_on_c, 15, 53, 0
34, 848760, Note_on_c, 15, 53, 92
34, 848859, Note_on_c, 15, 53, 0
34, 848880, Note_on_c, 15, 53, 92
34, 848979, Note_on_c, 15, 53, 0
34, 849000, Note_on_c, 15, 53, 92
34, 849099, Note_on_c, 15, 53, 0
34, 849120, Note_on_c, 15, 50, 80
34, 849219, Note_on_c, 15, 50, 0
34, 849240, Note_on_c, 15, 50, 80
34, 849339, Note_on_c, 15, 50, 0
34, 849360, Note_on_c, 15, 50, 80
34, 849459, Note_on_c, 15, 50, 0
34, 849480, Note_on_c, 15, 50, 80
34, 849579, Note_on_c, 15, 50, 0
34, 849600, Note_on_c, 15, 45, 80
34, 849699, Note_on_c, 15, 45, 0
34, 849720, Note_on_c, 15, 45, 80
34, 849819, Note_on_c, 15, 45, 0
34, 849840, Note_on_c, 15, 45, 80
34, 849939, Note_on_c, 15, 45, 0
34, 849960, Note_on_c, 15, 45, 80
34, 850059, Note_on_c, 15, 45, 0
34, 850080, Note_on_c, 15, 57, 80
34, 850179, Note_on_c, 15, 57, 0
34, 850200, Note_on_c, 15, 57, 80
34, 850299, Note_on_c, 15, 57, 0
34, 850320, Note_on_c, 15, 48, 80
34, 850419, Note_on_c, 15, 48, 0
34, 850440, Note_on_c, 15, 48, 80
34, 850539, Note_on_c, 15, 48, 0
34, 850560, Note_on_c, 15, 48, 92
34, 850659, Note_on_c, 15, 48, 0
34, 850680, Note_on_c, 15, 48, 92
34, 850779, Note_on_c, 15, 48, 0
34, 850800, Note_on_c, 15, 48, 92
34, 850899, Note_on_c, 15, 48, 0
34, 850920, Note_on_c, 15, 48, 92
34, 851019, Note_on_c, 15, 48, 0
34, 851040, Note_on_c, 15, 47, 92
34, 851139, Note_on_c, 15, 47, 0
34, 851160, Note_on_c, 15, 47, 92
34, 851259, Note_on_c, 15, 47, 0
34, 851280, Note_on_c, 15, 55, 92
34, 851379, Note_on_c, 15, 55, 0
34, 851400, Note_on_c, 15, 55, 92
34, 851499, Note_on_c, 15, 55, 0
34, 851520, Note_on_c, 15, 52, 92
34, 851619, Note_on_c, 15, 52, 0
34, 851640, Note_on_c, 15, 52, 92
34, 851739, Note_on_c, 15, 52, 0
34, 851760, Note_on_c, 15, 49, 92
34, 851859, Note_on_c, 15, 49, 0
34, 851880, Note_on_c, 15, 49, 92
34, 851979, Note_on_c, 15, 49, 0
34, 852000, Note_on_c, 15, 45, 92
34, 852099, Note_on_c, 15, 45, 0
34, 852120, Note_on_c, 15, 45, 92
34, 852219, Note_on_c, 15, 45, 0
34, 852240, Note_on_c, 15, 43, 92
34, 852339, Note_on_c, 15, 43, 0
34, 852360, Note_on_c, 15, 43, 92
34, 852459, Note_on_c, 15, 43, 0
34, 852480, Note_on_c, 15, 40, 92
34, 852579, Note_on_c, 15, 40, 0
34, 852600, Note_on_c, 15, 40, 92
34, 852699, Note_on_c, 15, 40, 0
34, 852720, Note_on_c, 15, 37, 92
34, 852819, Note_on_c, 15, 37, 0
34, 852840, Note_on_c, 15, 37, 92
34, 852939, Note_on_c, 15, 37, 0
34, 852960, Note_on_c, 15, 33, 92
34, 853059, Note_on_c, 15, 33, 0
34, 853080, Note_on_c, 15, 33, 92
34, 853179, Note_on_c, 15, 33, 0
34, 853200, Note_on_c, 15, 57, 92
34, 853299, Note_on_c, 15, 57, 0
34, 853320, Note_on_c, 15, 57, 92
34, 853419, Note_on_c, 15, 57, 0
34, 853440, Note_on_c, 15, 57, 92
34, 853539, Note_on_c, 15, 57, 0
34, 853560, Note_on_c, 15, 57, 92
34, 853659, Note_on_c, 15, 57, 0
34, 853680, Note_on_c, 15, 57, 92
34, 853779, Note_on_c, 15, 57, 0
34, 853800, Note_on_c, 15, 57, 92
34, 853899, Note_on_c, 15, 57, 0
34, 853920, Note_on_c, 15, 57, 92
34, 854019, Note_on_c, 15, 57, 0
34, 854040, Note_on_c, 15, 57, 92
34, 854139, Note_on_c, 15, 57, 0
34, 854160, Note_on_c, 15, 48, 92
34, 854259, Note_on_c, 15, 48, 0
34, 854280, Note_on_c, 15, 48, 92
34, 854379, Note_on_c, 15, 48, 0
34, 854400, Note_on_c, 15, 48, 92
34, 854499, Note_on_c, 15, 48, 0
34, 854520, Note_on_c, 15, 48, 92
34, 854619, Note_on_c, 15, 48, 0
34, 854640, Note_on_c, 15, 48, 92
34, 854739, Note_on_c, 15, 48, 0
34, 854760, Note_on_c, 15, 48, 92
34, 854859, Note_on_c, 15, 48, 0
34, 854880, Note_on_c, 15, 47, 92
34, 854979, Note_on_c, 15, 47, 0
34, 855000, Note_on_c, 15, 47, 92
34, 855099, Note_on_c, 15, 47, 0
34, 855120, Note_on_c, 15, 43, 92
34, 855219, Note_on_c, 15, 43, 0
34, 855240, Note_on_c, 15, 43, 92
34, 855339, Note_on_c, 15, 43, 0
34, 855360, Note_on_c, 15, 52, 92
34, 855459, Note_on_c, 15, 52, 0
34, 855480, Note_on_c, 15, 52, 92
34, 855579, Note_on_c, 15, 52, 0
34, 855600, Note_on_c, 15, 49, 92
34, 855699, Note_on_c, 15, 49, 0
34, 855720, Note_on_c, 15, 49, 92
34, 855819, Note_on_c, 15, 49, 0
34, 855840, Note_on_c, 15, 45, 92
34, 855939, Note_on_c, 15, 45, 0
34, 855960, Note_on_c, 15, 45, 92
34, 856059, Note_on_c, 15, 45, 0
34, 856080, Note_on_c, 15, 43, 92
34, 856179, Note_on_c, 15, 43, 0
34, 856200, Note_on_c, 15, 43, 92
34, 856299, Note_on_c, 15, 43, 0
34, 856320, Note_on_c, 15, 40, 92
34, 856419, Note_on_c, 15, 40, 0
34, 856440, Note_on_c, 15, 40, 92
34, 856539, Note_on_c, 15, 40, 0
34, 856560, Note_on_c, 15, 37, 92
34, 856659, Note_on_c, 15, 37, 0
34, 856680, Note_on_c, 15, 37, 92
34, 856779, Note_on_c, 15, 37, 0
34, 856800, Note_on_c, 15, 33, 92
34, 856899, Note_on_c, 15, 33, 0
34, 856920, Note_on_c, 15, 33, 92
34, 857019, Note_on_c, 15, 33, 0
34, 857040, Note_on_c, 15, 57, 92
34, 857139, Note_on_c, 15, 57, 0
34, 857160, Note_on_c, 15, 57, 92
34, 857259, Note_on_c, 15, 57, 0
34, 857280, Note_on_c, 15, 57, 92
34, 857379, Note_on_c, 15, 57, 0
34, 857400, Note_on_c, 15, 57, 92
34, 857499, Note_on_c, 15, 57, 0
34, 857520, Note_on_c, 15, 57, 92
34, 857619, Note_on_c, 15, 57, 0
34, 857640, Note_on_c, 15, 57, 92
34, 857739, Note_on_c, 15, 57, 0
34, 857760, Note_on_c, 15, 45, 92
34, 857859, Note_on_c, 15, 45, 0
34, 857880, Note_on_c, 15, 45, 92
34, 857979, Note_on_c, 15, 45, 0
34, 858000, Note_on_c, 15, 45, 92
34, 858099, Note_on_c, 15, 45, 0
34, 858120, Note_on_c, 15, 45, 92
34, 858219, Note_on_c, 15, 45, 0
34, 858240, Note_on_c, 15, 50, 80
34, 858339, Note_on_c, 15, 50, 0
34, 858360, Note_on_c, 15, 50, 80
34, 858459, Note_on_c, 15, 50, 0
34, 858480, Note_on_c, 15, 52, 80
34, 858579, Note_on_c, 15, 52, 0
34, 858600, Note_on_c, 15, 54, 80
34, 858699, Note_on_c, 15, 54, 0
34, 858720, Note_on_c, 15, 54, 80
34, 858819, Note_on_c, 15, 54, 0
34, 858840, Note_on_c, 15, 52, 80
34, 858939, Note_on_c, 15, 52, 0
34, 858960, Note_on_c, 15, 50, 80
34, 859059, Note_on_c, 15, 50, 0
34, 859080, Note_on_c, 15, 49, 80
34, 859179, Note_on_c, 15, 49, 0
34, 859200, Note_on_c, 15, 47, 80
34, 859299, Note_on_c, 15, 47, 0
34, 859320, Note_on_c, 15, 47, 80
34, 859419, Note_on_c, 15, 47, 0
34, 859440, Note_on_c, 15, 48, 80
34, 859539, Note_on_c, 15, 48, 0
34, 859560, Note_on_c, 15, 50, 80
34, 859659, Note_on_c, 15, 50, 0
34, 859680, Note_on_c, 15, 50, 80
34, 859779, Note_on_c, 15, 50, 0
34, 859800, Note_on_c, 15, 48, 80
34, 859899, Note_on_c, 15, 48, 0
34, 859920, Note_on_c, 15, 47, 80
34, 860019, Note_on_c, 15, 47, 0
34, 860040, Note_on_c, 15, 45, 80
34, 860139, Note_on_c, 15, 45, 0
34, 860160, Note_on_c, 15, 43, 80
34, 860259, Note_on_c, 15, 43, 0
34, 860280, Note_on_c, 15, 43, 80
34, 860379, Note_on_c, 15, 43, 0
34, 860400, Note_on_c, 15, 45, 80
34, 860499, Note_on_c, 15, 45, 0
34, 860520, Note_on_c, 15, 47, 80
34, 860619, Note_on_c, 15, 47, 0
34, 860640, Note_on_c, 15, 40, 80
34, 860739, Note_on_c, 15, 40, 0
34, 860760, Note_on_c, 15, 40, 80
34, 860859, Note_on_c, 15, 40, 0
34, 860880, Note_on_c, 15, 42, 80
34, 860979, Note_on_c, 15, 42, 0
34, 861000, Note_on_c, 15, 43, 80
34, 861099, Note_on_c, 15, 43, 0
34, 861120, Note_on_c, 15, 45, 92
34, 861219, Note_on_c, 15, 45, 0
34, 861240, Note_on_c, 15, 47, 92
34, 861339, Note_on_c, 15, 47, 0
34, 861360, Note_on_c, 15, 49, 92
34, 861459, Note_on_c, 15, 49, 0
34, 861480, Note_on_c, 15, 50, 92
34, 861579, Note_on_c, 15, 50, 0
34, 861600, Note_on_c, 15, 52, 92
34, 861699, Note_on_c, 15, 52, 0
34, 861720, Note_on_c, 15, 54, 92
34, 861819, Note_on_c, 15, 54, 0
34, 861840, Note_on_c, 15, 55, 92
34, 861939, Note_on_c, 15, 55, 0
34, 861960, Note_on_c, 15, 57, 92
34, 862059, Note_on_c, 15, 57, 0
34, 862080, Note_on_c, 15, 57, 92
34, 862179, Note_on_c, 15, 57, 0
34, 862200, Note_on_c, 15, 45, 92
34, 862299, Note_on_c, 15, 45, 0
34, 862320, Note_on_c, 15, 47, 92
34, 862419, Note_on_c, 15, 47, 0
34, 862440, Note_on_c, 15, 49, 92
34, 862539, Note_on_c, 15, 49, 0
34, 862560, Note_on_c, 15, 50, 92
34, 862659, Note_on_c, 15, 50, 0
34, 862680, Note_on_c, 15, 52, 92
34, 862779, Note_on_c, 15, 52, 0
34, 862800, Note_on_c, 15, 54, 92
34, 862899, Note_on_c, 15, 54, 0
34, 862920, Note_on_c, 15, 50, 92
34, 863019, Note_on_c, 15, 50, 0
34, 863040, Note_on_c, 15, 45, 92
34, 863139, Note_on_c, 15, 45, 0
34, 863160, Note_on_c, 15, 47, 92
34, 863259, Note_on_c, 15, 47, 0
34, 863280, Note_on_c, 15, 49, 92
34, 863379, Note_on_c, 15, 49, 0
34, 863400, Note_on_c, 15, 50, 92
34, 863499, Note_on_c, 15, 50, 0
34, 863520, Note_on_c, 15, 52, 92
34, 863619, Note_on_c, 15, 52, 0
34, 863640, Note_on_c, 15, 54, 92
34, 863739, Note_on_c, 15, 54, 0
34, 863760, Note_on_c, 15, 55, 92
34, 863859, Note_on_c, 15, 55, 0
34, 863880, Note_on_c, 15, 57, 92
34, 863979, Note_on_c, 15, 57, 0
34, 864000, Note_on_c, 15, 45, 92
34, 864099, Note_on_c, 15, 45, 0
34, 864120, Note_on_c, 15, 45, 92
34, 864219, Note_on_c, 15, 45, 0
34, 864240, Note_on_c, 15, 47, 92
34, 864339, Note_on_c, 15, 47, 0
34, 864360, Note_on_c, 15, 49, 92
34, 864459, Note_on_c, 15, 49, 0
34, 864480, Note_on_c, 15, 50, 92
34, 864579, Note_on_c, 15, 50, 0
34, 864600, Note_on_c, 15, 52, 92
34, 864699, Note_on_c, 15, 52, 0
34, 864720, Note_on_c, 15, 54, 92
34, 864819, Note_on_c, 15, 54, 0
34, 864840, Note_on_c, 15, 50, 92
34, 864939, Note_on_c, 15, 50, 0
34, 864960, Note_on_c, 15, 45, 92
34, 865059, Note_on_c, 15, 45, 0
34, 865080, Note_on_c, 15, 37, 92
34, 865179, Note_on_c, 15, 37, 0
34, 865200, Note_on_c, 15, 38, 92
34, 865299, Note_on_c, 15, 38, 0
34, 865320, Note_on_c, 15, 40, 92
34, 865419, Note_on_c, 15, 40, 0
34, 865440, Note_on_c, 15, 45, 92
34, 865539, Note_on_c, 15, 45, 0
34, 865560, Note_on_c, 15, 38, 92
34, 865659, Note_on_c, 15, 38, 0
34, 865680, Note_on_c, 15, 40, 92
34, 865779, Note_on_c, 15, 40, 0
34, 865800, Note_on_c, 15, 42, 92
34, 865899, Note_on_c, 15, 42, 0
34, 865920, Note_on_c, 15, 45, 92
34, 866019, Note_on_c, 15, 45, 0
34, 866040, Note_on_c, 15, 39, 92
34, 866139, Note_on_c, 15, 39, 0
34, 866160, Note_on_c, 15, 40, 92
34, 866259, Note_on_c, 15, 40, 0
34, 866280, Note_on_c, 15, 42, 92
34, 866379, Note_on_c, 15, 42, 0
34, 866400, Note_on_c, 15, 43, 92
34, 866499, Note_on_c, 15, 43, 0
34, 866520, Note_on_c, 15, 45, 92
34, 866619, Note_on_c, 15, 45, 0
34, 866640, Note_on_c, 15, 47, 92
34, 866739, Note_on_c, 15, 47, 0
34, 866760, Note_on_c, 15, 49, 92
34, 866859, Note_on_c, 15, 49, 0
34, 866880, Note_on_c, 15, 50, 92
34, 866979, Note_on_c, 15, 50, 0
34, 867000, Note_on_c, 15, 52, 92
34, 867099, Note_on_c, 15, 52, 0
34, 867120, Note_on_c, 15, 54, 92
34, 867219, Note_on_c, 15, 54, 0
34, 867240, Note_on_c, 15, 55, 92
34, 867339, Note_on_c, 15, 55, 0
34, 867360, Note_on_c, 15, 57, 92
34, 867459, Note_on_c, 15, 57, 0
34, 867480, Note_on_c, 15, 38, 92
34, 867579, Note_on_c, 15, 38, 0
34, 867600, Note_on_c, 15, 40, 92
34, 867699, Note_on_c, 15, 40, 0
34, 867720, Note_on_c, 15, 42, 92
34, 867819, Note_on_c, 15, 42, 0
34, 867840, Note_on_c, 15, 45, 92
34, 867939, Note_on_c, 15, 45, 0
34, 867960, Note_on_c, 15, 37, 92
34, 868059, Note_on_c, 15, 37, 0
34, 868080, Note_on_c, 15, 38, 92
34, 868179, Note_on_c, 15, 38, 0
34, 868200, Note_on_c, 15, 40, 92
34, 868299, Note_on_c, 15, 40, 0
34, 868320, Note_on_c, 15, 45, 92
34, 868419, Note_on_c, 15, 45, 0
34, 868440, Note_on_c, 15, 38, 92
34, 868539, Note_on_c, 15, 38, 0
34, 868560, Note_on_c, 15, 40, 92
34, 868659, Note_on_c, 15, 40, 0
34, 868680, Note_on_c, 15, 42, 92
34, 868779, Note_on_c, 15, 42, 0
34, 868800, Note_on_c, 15, 45, 92
34, 868899, Note_on_c, 15, 45, 0
34, 868920, Note_on_c, 15, 39, 92
34, 869019, Note_on_c, 15, 39, 0
34, 869040, Note_on_c, 15, 40, 92
34, 869139, Note_on_c, 15, 40, 0
34, 869160, Note_on_c, 15, 42, 92
34, 869259, Note_on_c, 15, 42, 0
34, 869280, Note_on_c, 15, 43, 92
34, 869379, Note_on_c, 15, 43, 0
34, 869400, Note_on_c, 15, 45, 92
34, 869499, Note_on_c, 15, 45, 0
34, 869520, Note_on_c, 15, 47, 92
34, 869619, Note_on_c, 15, 47, 0
34, 869640, Note_on_c, 15, 49, 92
34, 869739, Note_on_c, 15, 49, 0
34, 869760, Note_on_c, 15, 50, 92
34, 869859, Note_on_c, 15, 50, 0
34, 869880, Note_on_c, 15, 52, 92
34, 869979, Note_on_c, 15, 52, 0
34, 870000, Note_on_c, 15, 54, 92
34, 870099, Note_on_c, 15, 54, 0
34, 870120, Note_on_c, 15, 55, 92
34, 870219, Note_on_c, 15, 55, 0
34, 870240, Note_on_c, 15, 45, 92
34, 870339, Note_on_c, 15, 45, 0
34, 870360, Note_on_c, 15, 45, 92
34, 870459, Note_on_c, 15, 45, 0
34, 870480, Note_on_c, 15, 45, 92
34, 870579, Note_on_c, 15, 45, 0
34, 870600, Note_on_c, 15, 45, 92
34, 870699, Note_on_c, 15, 45, 0
34, 870720, Note_on_c, 15, 45, 92
34, 870959, Note_on_c, 15, 45, 0
34, 872160, Note_on_c, 15, 38, 80
34, 872179, Note_on_c, 15, 38, 0
34, 872190, Note_on_c, 15, 50, 80
34, 872209, Note_on_c, 15, 50, 0
34, 872220, Note_on_c, 15, 50, 80
34, 872239, Note_on_c, 15, 50, 0
34, 872250, Note_on_c, 15, 50, 80
34, 872269, Note_on_c, 15, 50, 0
34, 872280, Note_on_c, 15, 50, 80
34, 872299, Note_on_c, 15, 50, 0
34, 872310, Note_on_c, 15, 50, 80
34, 872329, Note_on_c, 15, 50, 0
34, 872340, Note_on_c, 15, 50, 80
34, 872359, Note_on_c, 15, 50, 0
34, 872370, Note_on_c, 15, 50, 80
34, 872389, Note_on_c, 15, 50, 0
34, 872400, Note_on_c, 15, 31, 80
34, 872419, Note_on_c, 15, 31, 0
34, 872430, Note_on_c, 15, 43, 80
34, 872449, Note_on_c, 15, 43, 0
34, 872460, Note_on_c, 15, 43, 80
34, 872479, Note_on_c, 15, 43, 0
34, 872490, Note_on_c, 15, 43, 80
34, 872509, Note_on_c, 15, 43, 0
34, 872520, Note_on_c, 15, 43, 80
34, 872539, Note_on_c, 15, 43, 0
34, 872550, Note_on_c, 15, 43, 80
34, 872569, Note_on_c, 15, 43, 0
34, 872580, Note_on_c, 15, 43, 80
34, 872599, Note_on_c, 15, 43, 0
34, 872610, Note_on_c, 15, 43, 80
34, 872629, Note_on_c, 15, 43, 0
34, 872640, Note_on_c, 15, 33, 80
34, 872659, Note_on_c, 15, 33, 0
34, 872670, Note_on_c, 15, 45, 80
34, 872689, Note_on_c, 15, 45, 0
34, 872700, Note_on_c, 15, 45, 80
34, 872719, Note_on_c, 15, 45, 0
34, 872730, Note_on_c, 15, 45, 80
34, 872749, Note_on_c, 15, 45, 0
34, 872760, Note_on_c, 15, 45, 80
34, 872779, Note_on_c, 15, 45, 0
34, 872790, Note_on_c, 15, 45, 80
34, 872809, Note_on_c, 15, 45, 0
34, 872820, Note_on_c, 15, 45, 80
34, 872839, Note_on_c, 15, 45, 0
34, 872850, Note_on_c, 15, 45, 80
34, 872869, Note_on_c, 15, 45, 0
34, 872880, Note_on_c, 15, 33, 92
34, 872899, Note_on_c, 15, 33, 0
34, 872910, Note_on_c, 15, 45, 92
34, 872929, Note_on_c, 15, 45, 0
34, 872940, Note_on_c, 15, 45, 92
34, 872959, Note_on_c, 15, 45, 0
34, 872970, Note_on_c, 15, 45, 92
34, 872989, Note_on_c, 15, 45, 0
34, 873000, Note_on_c, 15, 45, 92
34, 873019, Note_on_c, 15, 45, 0
34, 873030, Note_on_c, 15, 45, 92
34, 873049, Note_on_c, 15, 45, 0
34, 873060, Note_on_c, 15, 45, 92
34, 873079, Note_on_c, 15, 45, 0
34, 873090, Note_on_c, 15, 45, 92
34, 873109, Note_on_c, 15, 45, 0
34, 873120, Note_on_c, 15, 33, 92
34, 873139, Note_on_c, 15, 33, 0
34, 873150, Note_on_c, 15, 45, 92
34, 873169, Note_on_c, 15, 45, 0
34, 873180, Note_on_c, 15, 45, 92
34, 873199, Note_on_c, 15, 45, 0
34, 873210, Note_on_c, 15, 45, 92
34, 873229, Note_on_c, 15, 45, 0
34, 873240, Note_on_c, 15, 26, 92
34, 873259, Note_on_c, 15, 26, 0
34, 873270, Note_on_c, 15, 38, 92
34, 873289, Note_on_c, 15, 38, 0
34, 873300, Note_on_c, 15, 38, 92
34, 873319, Note_on_c, 15, 38, 0
34, 873330, Note_on_c, 15, 38, 92
34, 873349, Note_on_c, 15, 38, 0
34, 873360, Note_on_c, 15, 33, 92
34, 873379, Note_on_c, 15, 33, 0
34, 873390, Note_on_c, 15, 45, 92
34, 873409, Note_on_c, 15, 45, 0
34, 873420, Note_on_c, 15, 45, 92
34, 873439, Note_on_c, 15, 45, 0
34, 873450, Note_on_c, 15, 45, 92
34, 873469, Note_on_c, 15, 45, 0
34, 873480, Note_on_c, 15, 45, 92
34, 873499, Note_on_c, 15, 45, 0
34, 873510, Note_on_c, 15, 45, 92
34, 873529, Note_on_c, 15, 45, 0
34, 873540, Note_on_c, 15, 45, 92
34, 873559, Note_on_c, 15, 45, 0
34, 873570, Note_on_c, 15, 45, 92
34, 873589, Note_on_c, 15, 45, 0
34, 873600, Note_on_c, 15, 38, 92
34, 873699, Note_on_c, 15, 38, 0
34, 873720, Note_on_c, 15, 38, 92
34, 873819, Note_on_c, 15, 38, 0
34, 873840, Note_on_c, 15, 38, 92
34, 873939, Note_on_c, 15, 38, 0
34, 873960, Note_on_c, 15, 38, 92
34, 874059, Note_on_c, 15, 38, 0
34, 874080, Note_on_c, 15, 38, 92
34, 874179, Note_on_c, 15, 38, 0
34, 874200, Note_on_c, 15, 38, 92
34, 874299, Note_on_c, 15, 38, 0
34, 874320, Note_on_c, 15, 33, 92
34, 874419, Note_on_c, 15, 33, 0
34, 874440, Note_on_c, 15, 33, 92
34, 874539, Note_on_c, 15, 33, 0
34, 874560, Note_on_c, 15, 38, 92
34, 874659, Note_on_c, 15, 38, 0
34, 874680, Note_on_c, 15, 38, 92
34, 874779, Note_on_c, 15, 38, 0
34, 874800, Note_on_c, 15, 38, 92
34, 874899, Note_on_c, 15, 38, 0
34, 874920, Note_on_c, 15, 38, 92
34, 875019, Note_on_c, 15, 38, 0
34, 875040, Note_on_c, 15, 38, 92
34, 875139, Note_on_c, 15, 38, 0
34, 875160, Note_on_c, 15, 38, 92
34, 875259, Note_on_c, 15, 38, 0
34, 875280, Note_on_c, 15, 33, 92
34, 875379, Note_on_c, 15, 33, 0
34, 875400, Note_on_c, 15, 33, 92
34, 875499, Note_on_c, 15, 33, 0
34, 875520, Note_on_c, 15, 38, 92
34, 875619, Note_on_c, 15, 38, 0
34, 875640, Note_on_c, 15, 38, 92
34, 875739, Note_on_c, 15, 38, 0
34, 875760, Note_on_c, 15, 38, 92
34, 875859, Note_on_c, 15, 38, 0
34, 875880, Note_on_c, 15, 38, 92
34, 875979, Note_on_c, 15, 38, 0
34, 876000, Note_on_c, 15, 38, 92
34, 876099, Note_on_c, 15, 38, 0
34, 876120, Note_on_c, 15, 38, 92
34, 876219, Note_on_c, 15, 38, 0
34, 876240, Note_on_c, 15, 33, 92
34, 876339, Note_on_c, 15, 33, 0
34, 876360, Note_on_c, 15, 33, 92
34, 876459, Note_on_c, 15, 33, 0
34, 876480, Note_on_c, 15, 38, 92
34, 876579, Note_on_c, 15, 38, 0
34, 876600, Note_on_c, 15, 38, 92
34, 876699, Note_on_c, 15, 38, 0
34, 876720, Note_on_c, 15, 38, 92
34, 876819, Note_on_c, 15, 38, 0
34, 876840, Note_on_c, 15, 38, 92
34, 876939, Note_on_c, 15, 38, 0
34, 876960, Note_on_c, 15, 38, 92
34, 877059, Note_on_c, 15, 38, 0
34, 877080, Note_on_c, 15, 38, 92
34, 877179, Note_on_c, 15, 38, 0
34, 877200, Note_on_c, 15, 33, 92
34, 877299, Note_on_c, 15, 33, 0
34, 877320, Note_on_c, 15, 33, 92
34, 877419, Note_on_c, 15, 33, 0
34, 877440, Note_on_c, 15, 38, 92
34, 877539, Note_on_c, 15, 38, 0
34, 877560, Note_on_c, 15, 38, 92
34, 877659, Note_on_c, 15, 38, 0
34, 877680, Note_on_c, 15, 33, 92
34, 877779, Note_on_c, 15, 33, 0
34, 877800, Note_on_c, 15, 33, 92
34, 877899, Note_on_c, 15, 33, 0
34, 877920, Note_on_c, 15, 38, 92
34, 878019, Note_on_c, 15, 38, 0
34, 878040, Note_on_c, 15, 38, 92
34, 878139, Note_on_c, 15, 38, 0
34, 878160, Note_on_c, 15, 33, 92
34, 878259, Note_on_c, 15, 33, 0
34, 878280, Note_on_c, 15, 33, 92
34, 878379, Note_on_c, 15, 33, 0
34, 878400, Note_on_c, 15, 38, 92
34, 878499, Note_on_c, 15, 38, 0
34, 878520, Note_on_c, 15, 38, 92
34, 878619, Note_on_c, 15, 38, 0
34, 878640, Note_on_c, 15, 33, 92
34, 878739, Note_on_c, 15, 33, 0
34, 878760, Note_on_c, 15, 33, 92
34, 878859, Note_on_c, 15, 33, 0
34, 878880, Note_on_c, 15, 38, 92
34, 878979, Note_on_c, 15, 38, 0
34, 879000, Note_on_c, 15, 38, 92
34, 879099, Note_on_c, 15, 38, 0
34, 879120, Note_on_c, 15, 45, 92
34, 879219, Note_on_c, 15, 45, 0
34, 879240, Note_on_c, 15, 45, 92
34, 879339, Note_on_c, 15, 45, 0
34, 879360, Note_on_c, 15, 50, 92
34, 879459, Note_on_c, 15, 50, 0
34, 879480, Note_on_c, 15, 50, 92
34, 879579, Note_on_c, 15, 50, 0
34, 879600, Note_on_c, 15, 45, 92
34, 879699, Note_on_c, 15, 45, 0
34, 879720, Note_on_c, 15, 45, 92
34, 879819, Note_on_c, 15, 45, 0
34, 879840, Note_on_c, 15, 50, 92
34, 879939, Note_on_c, 15, 50, 0
34, 879960, Note_on_c, 15, 50, 92
34, 880059, Note_on_c, 15, 50, 0
34, 880080, Note_on_c, 15, 45, 92
34, 880179, Note_on_c, 15, 45, 0
34, 880200, Note_on_c, 15, 45, 92
34, 880299, Note_on_c, 15, 45, 0
34, 880320, Note_on_c, 15, 50, 92
34, 880419, Note_on_c, 15, 50, 0
34, 880440, Note_on_c, 15, 50, 92
34, 880539, Note_on_c, 15, 50, 0
34, 880560, Note_on_c, 15, 50, 92
34, 880659, Note_on_c, 15, 50, 0
34, 880680, Note_on_c, 15, 50, 92
34, 880779, Note_on_c, 15, 50, 0
34, 880800, Note_on_c, 15, 50, 92
34, 880899, Note_on_c, 15, 50, 0
34, 880920, Note_on_c, 15, 50, 92
34, 881019, Note_on_c, 15, 50, 0
34, 881040, Note_on_c, 15, 50, 92
34, 881139, Note_on_c, 15, 50, 0
34, 881160, Note_on_c, 15, 50, 92
34, 881259, Note_on_c, 15, 50, 0
34, 881280, Note_on_c, 15, 50, 92
34, 881519, Note_on_c, 15, 50, 0
34, 881520, Note_on_c, 15, 38, 80
34, 881639, Note_on_c, 15, 38, 0
34, 881760, Note_on_c, 15, 50, 80
34, 881999, Note_on_c, 15, 50, 0
34, 882000, Note_on_c, 15, 38, 80
34, 882119, Note_on_c, 15, 38, 0
34, 882240, Note_on_c, 15, 50, 80
34, 882479, Note_on_c, 15, 50, 0
34, 882480, Note_on_c, 15, 38, 80
34, 882599, Note_on_c, 15, 38, 0
34, 882720, Note_on_c, 15, 50, 80
34, 882959, Note_on_c, 15, 50, 0
34, 882960, Note_on_c, 15, 38, 80
34, 883079, Note_on_c, 15, 38, 0
34, 883200, Note_on_c, 15, 50, 80
34, 883439, Note_on_c, 15, 50, 0
34, 883440, Note_on_c, 15, 38, 80
34, 883559, Note_on_c, 15, 38, 0
34, 883680, Note_on_c, 15, 50, 80
34, 883919, Note_on_c, 15, 50, 0
34, 883920, Note_on_c, 15, 38, 80
34, 884039, Note_on_c, 15, 38, 0
34, 884160, Note_on_c, 15, 50, 80
34, 884399, Note_on_c, 15, 50, 0
34, 884400, Note_on_c, 15, 38, 80
34, 884519, Note_on_c, 15, 38, 0
34, 884640, Note_on_c, 15, 50, 80
34, 884879, Note_on_c, 15, 50, 0
34, 884880, Note_on_c, 15, 38, 80
34, 884999, Note_on_c, 15, 38, 0
34, 885120, Note_on_c, 15, 50, 92
34, 885219, Note_on_c, 15, 50, 0
34, 885240, Note_on_c, 15, 50, 92
34, 885339, Note_on_c, 15, 50, 0
34, 885360, Note_on_c, 15, 38, 92
34, 885459, Note_on_c, 15, 38, 0
34, 885480, Note_on_c, 15, 38, 92
34, 885579, Note_on_c, 15, 38, 0
34, 885600, Note_on_c, 15, 50, 92
34, 885699, Note_on_c, 15, 50, 0
34, 885720, Note_on_c, 15, 50, 92
34, 885819, Note_on_c, 15, 50, 0
34, 885840, Note_on_c, 15, 38, 92
34, 885939, Note_on_c, 15, 38, 0
34, 885960, Note_on_c, 15, 38, 92
34, 886059, Note_on_c, 15, 38, 0
34, 886080, Note_on_c, 15, 50, 92
34, 886179, Note_on_c, 15, 50, 0
34, 886200, Note_on_c, 15, 50, 92
34, 886299, Note_on_c, 15, 50, 0
34, 886320, Note_on_c, 15, 38, 92
34, 886419, Note_on_c, 15, 38, 0
34, 886440, Note_on_c, 15, 38, 92
34, 886539, Note_on_c, 15, 38, 0
34, 886560, Note_on_c, 15, 50, 92
34, 886659, Note_on_c, 15, 50, 0
34, 886680, Note_on_c, 15, 50, 92
34, 886779, Note_on_c, 15, 50, 0
34, 886800, Note_on_c, 15, 38, 92
34, 886899, Note_on_c, 15, 38, 0
34, 886920, Note_on_c, 15, 38, 92
34, 887019, Note_on_c, 15, 38, 0
34, 887040, Note_on_c, 15, 50, 92
34, 887139, Note_on_c, 15, 50, 0
34, 887160, Note_on_c, 15, 50, 92
34, 887259, Note_on_c, 15, 50, 0
34, 887280, Note_on_c, 15, 38, 92
34, 887379, Note_on_c, 15, 38, 0
34, 887400, Note_on_c, 15, 38, 92
34, 887499, Note_on_c, 15, 38, 0
34, 887520, Note_on_c, 15, 50, 92
34, 887619, Note_on_c, 15, 50, 0
34, 887640, Note_on_c, 15, 50, 92
34, 887739, Note_on_c, 15, 50, 0
34, 887760, Note_on_c, 15, 38, 92
34, 887859, Note_on_c, 15, 38, 0
34, 887880, Note_on_c, 15, 38, 92
34, 887979, Note_on_c, 15, 38, 0
34, 888000, Note_on_c, 15, 50, 92
34, 888099, Note_on_c, 15, 50, 0
34, 888120, Note_on_c, 15, 50, 92
34, 888219, Note_on_c, 15, 50, 0
34, 888240, Note_on_c, 15, 38, 92
34, 888339, Note_on_c, 15, 38, 0
34, 888360, Note_on_c, 15, 38, 92
34, 888459, Note_on_c, 15, 38, 0
34, 888480, Note_on_c, 15, 50, 92
34, 888579, Note_on_c, 15, 50, 0
34, 888600, Note_on_c, 15, 50, 92
34, 888699, Note_on_c, 15, 50, 0
34, 888720, Note_on_c, 15, 38, 92
34, 888819, Note_on_c, 15, 38, 0
34, 888840, Note_on_c, 15, 38, 92
34, 888939, Note_on_c, 15, 38, 0
34, 888960, Note_on_c, 15, 38, 92
34, 889199, Note_on_c, 15, 38, 0
34, 890880, Note_on_c, 15, 38, 92
34, 891119, Note_on_c, 15, 38, 0
34, 891840, Note_on_c, 15, 38, 92
34, 892079, Note_on_c, 15, 38, 0
34, 892800, Note_on_c, 15, 38, 92
34, 893039, Note_on_c, 15, 38, 0
34, 893039, End_track
35, 0, Start_track
35, 0, Title_t, "Ludwig van Beethoven - Symphony No. 9 in D minor, Op.125 - 4. Finale"
35, 0, MIDI_port, 0
35, 0, End_track
0, 0, End_of_file
