0, 0, Header, 1, 20, 240
1, 0, Start_track
1, 0, Sequencer_specific, 10, 0, 0, 91, 35, 1, 0, 5, 6, 42, 0
1, 0, Title_t, "Ludwig van Beethoven - Symphony No, 9 Op. 125"
1, 0, Instrument_name_t, "Conductor Track"
1, 0, SMPTE_offset, 96, 0, 3, 0, 0
1, 0, MIDI_port, 0
1, 0, Marker_t, "Originally Sequenced 11 Mar 1998"
1, 0, Key_signature, -2, "major"
1, 0, Tempo, 1200000
1, 0, Time_signature, 4, 2, 24, 8
1, 23040, Tempo, 1200000
1, 23040, Time_signature, 3, 2, 24, 8
1, 23040, Key_signature, 2, "major"
1, 35940, Tempo, 7500000
1, 36000, Key_signature, -2, "major"
1, 36000, Tempo, 1200000
1, 36000, Time_signature, 4, 2, 24, 8
1, 57120, Tempo, 1200000
1, 57120, Time_signature, 3, 2, 24, 8
1, 57120, Key_signature, 1, "major"
1, 70080, Time_signature, 4, 2, 24, 8
1, 70080, Tempo, 1200000
1, 70080, Key_signature, -3, "major"
1, 85440, Tempo, 1200000
1, 85440, Time_signature, 12, 3, 36, 8
1, 85440, Key_signature, -2, "major"
1, 170280, Tempo, 1200000
1, 171480, Tempo, 909090
1, 171480, End_track
2, 0, Start_track
2, 0, Title_t, "3rd Movement - Adagio molto e cantabile"
2, 0, MIDI_port, 0
2, 0, End_track
3, 0, Start_track
3, 0, Title_t, "Sequenced by D. L. Viens 30 Dec 2000"
3, 0, MIDI_port, 0
3, 0, End_track
4, 0, Start_track
4, 0, Title_t, "dlviens@empire.net"
4, 0, MIDI_port, 0
4, 0, End_track
5, 0, Start_track
5, 0, MIDI_port, 0
5, 0, End_track
6, 0, Start_track
6, 0, Title_t, "Flute"
6, 0, MIDI_port, 0
6, 0, Program_c, 1, 73
6, 0, Control_c, 1, 121, 0
6, 0, Control_c, 1, 7, 88
6, 0, Control_c, 1, 10, 60
6, 0, Control_c, 1, 11, 109
6, 26520, Control_c, 1, 11, 109
6, 26520, Note_on_c, 1, 88, 56
6, 26560, Control_c, 1, 11, 110
6, 26600, Control_c, 1, 11, 112
6, 26640, Control_c, 1, 11, 114
6, 26680, Control_c, 1, 11, 115
6, 26720, Control_c, 1, 11, 116
6, 26760, Control_c, 1, 11, 119
6, 26800, Control_c, 1, 11, 120
6, 26840, Control_c, 1, 11, 121
6, 26879, Note_on_c, 1, 88, 0
6, 26880, Note_on_c, 1, 86, 56
6, 26880, Control_c, 1, 11, 122
6, 26920, Control_c, 1, 11, 125
6, 26960, Control_c, 1, 11, 126
6, 26999, Note_on_c, 1, 86, 0
6, 27000, Control_c, 1, 11, 127
6, 30432, Control_c, 1, 11, 111
6, 30480, Note_on_c, 1, 79, 68
6, 30480, Control_c, 1, 11, 112
6, 30528, Control_c, 1, 11, 113
6, 30576, Control_c, 1, 11, 114
6, 30584, Note_on_c, 1, 79, 0
6, 30600, Note_on_c, 1, 81, 68
6, 30624, Control_c, 1, 11, 115
6, 30672, Control_c, 1, 11, 116
6, 30704, Note_on_c, 1, 81, 0
6, 30720, Control_c, 1, 11, 117
6, 30720, Note_on_c, 1, 83, 68
6, 30768, Control_c, 1, 11, 118
6, 30816, Control_c, 1, 11, 119
6, 30824, Note_on_c, 1, 83, 0
6, 30840, Note_on_c, 1, 85, 68
6, 30864, Control_c, 1, 11, 120
6, 30912, Control_c, 1, 11, 121
6, 30929, Note_on_c, 1, 85, 0
6, 30960, Note_on_c, 1, 88, 68
6, 30960, Control_c, 1, 11, 122
6, 31008, Control_c, 1, 11, 123
6, 31056, Control_c, 1, 11, 124
6, 31079, Note_on_c, 1, 88, 0
6, 31080, Note_on_c, 1, 86, 68
6, 31104, Control_c, 1, 11, 125
6, 31152, Control_c, 1, 11, 127
6, 31311, Note_on_c, 1, 86, 0
6, 31320, Note_on_c, 1, 86, 68
6, 31379, Note_on_c, 1, 86, 0
6, 31380, Note_on_c, 1, 85, 64
6, 31439, Note_on_c, 1, 85, 0
6, 31440, Note_on_c, 1, 83, 60
6, 31499, Note_on_c, 1, 83, 0
6, 31500, Note_on_c, 1, 81, 56
6, 31559, Note_on_c, 1, 81, 0
6, 31560, Note_on_c, 1, 79, 52
6, 31619, Note_on_c, 1, 79, 0
6, 31620, Note_on_c, 1, 78, 48
6, 31671, Note_on_c, 1, 78, 0
6, 31680, Note_on_c, 1, 78, 44
6, 31799, Note_on_c, 1, 78, 0
6, 31800, Note_on_c, 1, 76, 44
6, 31919, Note_on_c, 1, 76, 0
6, 33480, Note_on_c, 1, 83, 68
6, 33480, Control_c, 1, 11, 127
6, 33495, Control_c, 1, 11, 125
6, 33510, Control_c, 1, 11, 124
6, 33525, Control_c, 1, 11, 122
6, 33539, Note_on_c, 1, 83, 0
6, 33540, Control_c, 1, 11, 120
6, 33540, Note_on_c, 1, 91, 68
6, 33555, Control_c, 1, 11, 119
6, 33570, Control_c, 1, 11, 117
6, 33585, Control_c, 1, 11, 115
6, 33599, Note_on_c, 1, 91, 0
6, 33600, Control_c, 1, 11, 114
6, 33600, Note_on_c, 1, 90, 68
6, 33615, Control_c, 1, 11, 112
6, 33630, Control_c, 1, 11, 110
6, 33645, Control_c, 1, 11, 109
6, 33659, Note_on_c, 1, 90, 0
6, 33660, Control_c, 1, 11, 107
6, 33660, Note_on_c, 1, 88, 68
6, 33675, Control_c, 1, 11, 105
6, 33690, Control_c, 1, 11, 104
6, 33705, Control_c, 1, 11, 102
6, 33719, Note_on_c, 1, 88, 0
6, 33720, Note_on_c, 1, 86, 68
6, 33720, Control_c, 1, 11, 100
6, 33735, Control_c, 1, 11, 99
6, 33750, Control_c, 1, 11, 97
6, 33765, Control_c, 1, 11, 95
6, 33779, Note_on_c, 1, 86, 0
6, 33780, Note_on_c, 1, 85, 68
6, 33780, Control_c, 1, 11, 94
6, 33795, Control_c, 1, 11, 92
6, 33810, Control_c, 1, 11, 90
6, 33825, Control_c, 1, 11, 89
6, 33831, Note_on_c, 1, 85, 0
6, 33840, Note_on_c, 1, 88, 68
6, 33840, Control_c, 1, 11, 87
6, 33912, Control_c, 1, 11, 86
6, 33984, Control_c, 1, 11, 85
6, 34056, Control_c, 1, 11, 84
6, 34128, Control_c, 1, 11, 83
6, 34199, Note_on_c, 1, 88, 0
6, 34200, Control_c, 1, 11, 82
6, 34200, Note_on_c, 1, 79, 68
6, 34272, Control_c, 1, 11, 81
6, 34319, Note_on_c, 1, 79, 0
6, 34320, Note_on_c, 1, 78, 68
6, 34344, Control_c, 1, 11, 80
6, 34416, Control_c, 1, 11, 79
6, 34488, Control_c, 1, 11, 78
6, 34559, Note_on_c, 1, 78, 0
6, 34560, Control_c, 1, 11, 77
6, 34632, Control_c, 1, 11, 76
6, 34704, Control_c, 1, 11, 75
6, 34776, Control_c, 1, 11, 74
6, 34800, Note_on_c, 1, 88, 68
6, 34848, Control_c, 1, 11, 73
6, 34919, Note_on_c, 1, 88, 0
6, 34920, Note_on_c, 1, 79, 68
6, 34920, Control_c, 1, 11, 72
6, 34992, Control_c, 1, 11, 71
6, 35039, Note_on_c, 1, 79, 0
6, 35040, Note_on_c, 1, 77, 68
6, 35064, Control_c, 1, 11, 70
6, 35136, Control_c, 1, 11, 69
6, 35208, Control_c, 1, 11, 67
6, 35759, Note_on_c, 1, 77, 0
6, 35760, Note_on_c, 1, 75, 68
6, 35991, Note_on_c, 1, 75, 0
6, 36000, Note_on_c, 1, 74, 68
6, 36239, Note_on_c, 1, 74, 0
6, 56160, Control_c, 1, 11, 89
6, 57000, Note_on_c, 1, 83, 56
6, 57239, Note_on_c, 1, 83, 0
6, 57240, Note_on_c, 1, 81, 56
6, 57240, Control_c, 1, 11, 89
6, 57410, Control_c, 1, 11, 92
6, 57471, Note_on_c, 1, 81, 0
6, 57480, Note_on_c, 1, 81, 56
6, 57580, Control_c, 1, 11, 95
6, 57659, Note_on_c, 1, 81, 0
6, 57660, Note_on_c, 1, 83, 56
6, 57719, Note_on_c, 1, 83, 0
6, 57720, Note_on_c, 1, 84, 56
6, 57750, Control_c, 1, 11, 99
6, 57779, Note_on_c, 1, 84, 0
6, 57780, Note_on_c, 1, 81, 56
6, 57831, Note_on_c, 1, 81, 0
6, 57840, Note_on_c, 1, 84, 56
6, 57920, Control_c, 1, 11, 101
6, 57959, Note_on_c, 1, 84, 0
6, 57960, Note_on_c, 1, 83, 56
6, 58090, Control_c, 1, 11, 105
6, 58191, Note_on_c, 1, 83, 0
6, 58200, Note_on_c, 1, 83, 56
6, 58260, Control_c, 1, 11, 109
6, 58379, Note_on_c, 1, 83, 0
6, 58380, Note_on_c, 1, 84, 56
6, 58430, Control_c, 1, 11, 111
6, 58439, Note_on_c, 1, 84, 0
6, 58440, Note_on_c, 1, 86, 56
6, 58499, Note_on_c, 1, 86, 0
6, 58500, Note_on_c, 1, 83, 56
6, 58551, Note_on_c, 1, 83, 0
6, 58560, Note_on_c, 1, 86, 56
6, 58600, Control_c, 1, 11, 115
6, 58679, Note_on_c, 1, 86, 0
6, 58680, Note_on_c, 1, 84, 56
6, 58770, Control_c, 1, 11, 117
6, 58911, Note_on_c, 1, 84, 0
6, 58920, Note_on_c, 1, 84, 56
6, 58940, Control_c, 1, 11, 121
6, 59024, Note_on_c, 1, 84, 0
6, 59040, Note_on_c, 1, 84, 56
6, 59110, Control_c, 1, 11, 124
6, 59144, Note_on_c, 1, 84, 0
6, 59160, Note_on_c, 1, 84, 56
6, 59249, Note_on_c, 1, 84, 0
6, 59280, Note_on_c, 1, 84, 56
6, 59280, Control_c, 1, 11, 127
6, 59399, Note_on_c, 1, 84, 0
6, 59400, Note_on_c, 1, 83, 56
6, 59459, Note_on_c, 1, 83, 0
6, 59460, Note_on_c, 1, 81, 56
6, 59519, Note_on_c, 1, 81, 0
6, 59520, Note_on_c, 1, 79, 56
6, 59520, Control_c, 1, 11, 127
6, 59560, Control_c, 1, 11, 124
6, 59579, Note_on_c, 1, 79, 0
6, 59580, Note_on_c, 1, 86, 56
6, 59600, Control_c, 1, 11, 121
6, 59639, Note_on_c, 1, 86, 0
6, 59640, Note_on_c, 1, 91, 56
6, 59640, Control_c, 1, 11, 117
6, 59680, Control_c, 1, 11, 115
6, 59699, Note_on_c, 1, 91, 0
6, 59700, Note_on_c, 1, 90, 56
6, 59720, Control_c, 1, 11, 111
6, 59759, Note_on_c, 1, 90, 0
6, 59760, Control_c, 1, 11, 109
6, 59760, Note_on_c, 1, 88, 56
6, 59800, Control_c, 1, 11, 105
6, 59819, Note_on_c, 1, 88, 0
6, 59820, Note_on_c, 1, 86, 56
6, 59840, Control_c, 1, 11, 101
6, 59879, Note_on_c, 1, 86, 0
6, 59880, Control_c, 1, 11, 99
6, 59880, Note_on_c, 1, 84, 56
6, 59920, Control_c, 1, 11, 95
6, 59939, Note_on_c, 1, 84, 0
6, 59940, Note_on_c, 1, 83, 56
6, 59960, Control_c, 1, 11, 92
6, 59991, Note_on_c, 1, 83, 0
6, 60000, Control_c, 1, 11, 89
6, 60000, Note_on_c, 1, 83, 56
6, 60119, Note_on_c, 1, 83, 0
6, 60120, Note_on_c, 1, 81, 56
6, 60250, Control_c, 1, 11, 92
6, 60351, Note_on_c, 1, 81, 0
6, 60360, Note_on_c, 1, 81, 56
6, 60380, Control_c, 1, 11, 95
6, 60510, Control_c, 1, 11, 99
6, 60539, Note_on_c, 1, 81, 0
6, 60540, Note_on_c, 1, 83, 56
6, 60599, Note_on_c, 1, 83, 0
6, 60600, Note_on_c, 1, 84, 56
6, 60640, Control_c, 1, 11, 101
6, 60659, Note_on_c, 1, 84, 0
6, 60660, Note_on_c, 1, 81, 56
6, 60711, Note_on_c, 1, 81, 0
6, 60720, Note_on_c, 1, 84, 56
6, 60770, Control_c, 1, 11, 105
6, 60839, Note_on_c, 1, 84, 0
6, 60840, Note_on_c, 1, 83, 56
6, 60900, Control_c, 1, 11, 109
6, 61030, Control_c, 1, 11, 111
6, 61071, Note_on_c, 1, 83, 0
6, 61080, Note_on_c, 1, 83, 56
6, 61160, Control_c, 1, 11, 115
6, 61259, Note_on_c, 1, 83, 0
6, 61260, Note_on_c, 1, 84, 56
6, 61290, Control_c, 1, 11, 117
6, 61319, Note_on_c, 1, 84, 0
6, 61320, Note_on_c, 1, 86, 56
6, 61379, Note_on_c, 1, 86, 0
6, 61380, Note_on_c, 1, 83, 56
6, 61420, Control_c, 1, 11, 121
6, 61431, Note_on_c, 1, 83, 0
6, 61440, Note_on_c, 1, 86, 56
6, 61550, Control_c, 1, 11, 124
6, 61559, Note_on_c, 1, 86, 0
6, 61560, Note_on_c, 1, 84, 56
6, 61799, Note_on_c, 1, 84, 0
6, 62400, Control_c, 1, 11, 89
6, 62520, Note_on_c, 1, 81, 56
6, 62520, Note_on_c, 1, 84, 56
6, 62639, Note_on_c, 1, 81, 0
6, 62639, Note_on_c, 1, 84, 0
6, 62640, Note_on_c, 1, 83, 56
6, 62640, Note_on_c, 1, 79, 56
6, 62751, Note_on_c, 1, 83, 0
6, 62751, Note_on_c, 1, 79, 0
6, 62760, Note_on_c, 1, 83, 56
6, 62760, Note_on_c, 1, 62, 56
6, 62871, Note_on_c, 1, 62, 0
6, 62880, Note_on_c, 1, 74, 56
6, 62999, Note_on_c, 1, 83, 0
6, 63000, Note_on_c, 1, 81, 56
6, 63000, Control_c, 1, 11, 89
6, 63170, Control_c, 1, 11, 92
6, 63231, Note_on_c, 1, 81, 0
6, 63240, Note_on_c, 1, 81, 56
6, 63340, Control_c, 1, 11, 95
6, 63419, Note_on_c, 1, 81, 0
6, 63420, Note_on_c, 1, 83, 56
6, 63479, Note_on_c, 1, 83, 0
6, 63480, Note_on_c, 1, 84, 56
6, 63510, Control_c, 1, 11, 99
6, 63539, Note_on_c, 1, 84, 0
6, 63540, Note_on_c, 1, 81, 56
6, 63591, Note_on_c, 1, 81, 0
6, 63600, Note_on_c, 1, 84, 56
6, 63680, Control_c, 1, 11, 101
6, 63719, Note_on_c, 1, 84, 0
6, 63720, Note_on_c, 1, 83, 56
6, 63850, Control_c, 1, 11, 105
6, 63951, Note_on_c, 1, 83, 0
6, 63960, Note_on_c, 1, 83, 56
6, 64020, Control_c, 1, 11, 109
6, 64139, Note_on_c, 1, 83, 0
6, 64140, Note_on_c, 1, 84, 56
6, 64190, Control_c, 1, 11, 111
6, 64199, Note_on_c, 1, 84, 0
6, 64200, Note_on_c, 1, 86, 56
6, 64259, Note_on_c, 1, 86, 0
6, 64260, Note_on_c, 1, 83, 56
6, 64311, Note_on_c, 1, 83, 0
6, 64320, Note_on_c, 1, 86, 56
6, 64360, Control_c, 1, 11, 115
6, 64439, Note_on_c, 1, 86, 0
6, 64440, Note_on_c, 1, 84, 56
6, 64530, Control_c, 1, 11, 117
6, 64671, Note_on_c, 1, 84, 0
6, 64679, Note_on_c, 1, 74, 0
6, 64680, Note_on_c, 1, 84, 56
6, 64700, Control_c, 1, 11, 121
6, 64784, Note_on_c, 1, 84, 0
6, 64800, Note_on_c, 1, 84, 56
6, 64870, Control_c, 1, 11, 124
6, 64904, Note_on_c, 1, 84, 0
6, 64920, Note_on_c, 1, 84, 56
6, 65009, Note_on_c, 1, 84, 0
6, 65040, Control_c, 1, 11, 127
6, 65040, Note_on_c, 1, 84, 56
6, 65159, Note_on_c, 1, 84, 0
6, 65160, Note_on_c, 1, 83, 56
6, 65391, Note_on_c, 1, 83, 0
6, 65400, Note_on_c, 1, 83, 56
6, 65400, Control_c, 1, 11, 127
6, 65430, Control_c, 1, 11, 124
6, 65459, Note_on_c, 1, 83, 0
6, 65460, Control_c, 1, 11, 121
6, 65460, Note_on_c, 1, 86, 56
6, 65490, Control_c, 1, 11, 117
6, 65519, Note_on_c, 1, 86, 0
6, 65520, Control_c, 1, 11, 115
6, 65520, Note_on_c, 1, 84, 56
6, 65550, Control_c, 1, 11, 111
6, 65579, Note_on_c, 1, 84, 0
6, 65580, Note_on_c, 1, 83, 56
6, 65580, Control_c, 1, 11, 109
6, 65610, Control_c, 1, 11, 105
6, 65639, Note_on_c, 1, 83, 0
6, 65640, Note_on_c, 1, 81, 56
6, 65640, Control_c, 1, 11, 101
6, 65670, Control_c, 1, 11, 99
6, 65699, Note_on_c, 1, 81, 0
6, 65700, Control_c, 1, 11, 95
6, 65700, Note_on_c, 1, 79, 56
6, 65730, Control_c, 1, 11, 92
6, 65751, Note_on_c, 1, 79, 0
6, 65758, Control_c, 1, 11, 69
6, 65760, Note_on_c, 1, 83, 68
6, 65879, Note_on_c, 1, 83, 0
6, 65880, Note_on_c, 1, 81, 68
6, 65880, Control_c, 1, 11, 69
6, 65990, Control_c, 1, 11, 74
6, 66100, Control_c, 1, 11, 79
6, 66111, Note_on_c, 1, 81, 0
6, 66120, Note_on_c, 1, 81, 68
6, 66210, Control_c, 1, 11, 84
6, 66299, Note_on_c, 1, 81, 0
6, 66300, Note_on_c, 1, 83, 68
6, 66320, Control_c, 1, 11, 89
6, 66359, Note_on_c, 1, 83, 0
6, 66360, Note_on_c, 1, 84, 68
6, 66419, Note_on_c, 1, 84, 0
6, 66420, Note_on_c, 1, 81, 68
6, 66430, Control_c, 1, 11, 94
6, 66471, Note_on_c, 1, 81, 0
6, 66480, Note_on_c, 1, 84, 68
6, 66540, Control_c, 1, 11, 99
6, 66599, Note_on_c, 1, 84, 0
6, 66600, Note_on_c, 1, 83, 68
6, 66650, Control_c, 1, 11, 102
6, 66760, Control_c, 1, 11, 107
6, 66831, Note_on_c, 1, 83, 0
6, 66840, Note_on_c, 1, 83, 68
6, 66870, Control_c, 1, 11, 112
6, 66980, Control_c, 1, 11, 117
6, 67019, Note_on_c, 1, 83, 0
6, 67020, Note_on_c, 1, 84, 68
6, 67079, Note_on_c, 1, 84, 0
6, 67080, Note_on_c, 1, 86, 68
6, 67090, Control_c, 1, 11, 122
6, 67139, Note_on_c, 1, 86, 0
6, 67140, Note_on_c, 1, 83, 68
6, 67191, Note_on_c, 1, 83, 0
6, 67200, Control_c, 1, 11, 127
6, 67200, Note_on_c, 1, 86, 68
6, 67319, Note_on_c, 1, 86, 0
6, 67320, Note_on_c, 1, 84, 68
6, 67551, Note_on_c, 1, 84, 0
6, 67560, Control_c, 1, 11, 127
6, 67560, Note_on_c, 1, 88, 68
6, 67590, Control_c, 1, 11, 124
6, 67619, Note_on_c, 1, 88, 0
6, 67620, Note_on_c, 1, 84, 68
6, 67620, Control_c, 1, 11, 121
6, 67650, Control_c, 1, 11, 117
6, 67679, Note_on_c, 1, 84, 0
6, 67680, Control_c, 1, 11, 115
6, 67680, Note_on_c, 1, 83, 68
6, 67710, Control_c, 1, 11, 111
6, 67739, Note_on_c, 1, 83, 0
6, 67740, Note_on_c, 1, 81, 68
6, 67740, Control_c, 1, 11, 109
6, 67770, Control_c, 1, 11, 105
6, 67799, Note_on_c, 1, 81, 0
6, 67800, Note_on_c, 1, 79, 68
6, 67800, Control_c, 1, 11, 101
6, 67830, Control_c, 1, 11, 99
6, 67859, Note_on_c, 1, 79, 0
6, 67860, Note_on_c, 1, 78, 68
6, 67860, Control_c, 1, 11, 95
6, 67890, Control_c, 1, 11, 92
6, 67919, Note_on_c, 1, 78, 0
6, 67920, Control_c, 1, 11, 89
6, 68158, Control_c, 1, 11, 127
6, 68160, Note_on_c, 1, 81, 44
6, 68160, Note_on_c, 1, 72, 44
6, 68279, Note_on_c, 1, 81, 0
6, 68279, Note_on_c, 1, 72, 0
6, 68280, Note_on_c, 1, 81, 44
6, 68280, Note_on_c, 1, 84, 44
6, 68399, Note_on_c, 1, 81, 0
6, 68399, Note_on_c, 1, 84, 0
6, 68400, Note_on_c, 1, 83, 44
6, 68400, Note_on_c, 1, 79, 44
6, 68639, Note_on_c, 1, 83, 0
6, 68639, Note_on_c, 1, 79, 0
6, 77760, Note_on_c, 1, 83, 32
6, 78239, Note_on_c, 1, 83, 0
6, 78240, Note_on_c, 1, 78, 32
6, 78599, Note_on_c, 1, 78, 0
6, 78600, Note_on_c, 1, 76, 32
6, 78711, Note_on_c, 1, 76, 0
6, 78720, Note_on_c, 1, 76, 32
6, 78839, Note_on_c, 1, 76, 0
6, 78840, Note_on_c, 1, 75, 32
6, 78951, Note_on_c, 1, 75, 0
6, 78960, Note_on_c, 1, 75, 32
6, 79311, Note_on_c, 1, 75, 0
6, 79320, Note_on_c, 1, 76, 32
6, 79424, Note_on_c, 1, 76, 0
6, 79440, Note_on_c, 1, 78, 32
6, 79544, Note_on_c, 1, 78, 0
6, 79560, Note_on_c, 1, 80, 32
6, 79649, Note_on_c, 1, 80, 0
6, 79680, Control_c, 1, 11, 89
6, 79682, Note_on_c, 1, 80, 56
6, 79693, Control_c, 1, 11, 91
6, 79707, Control_c, 1, 11, 93
6, 79720, Control_c, 1, 11, 95
6, 79733, Control_c, 1, 11, 97
6, 79747, Control_c, 1, 11, 100
6, 79760, Control_c, 1, 11, 102
6, 79773, Control_c, 1, 11, 104
6, 79787, Control_c, 1, 11, 106
6, 79800, Control_c, 1, 11, 108
6, 79800, Note_on_c, 1, 78, 56
6, 79801, Note_on_c, 1, 80, 0
6, 79813, Control_c, 1, 11, 110
6, 79827, Control_c, 1, 11, 112
6, 79840, Control_c, 1, 11, 114
6, 79853, Control_c, 1, 11, 116
6, 79867, Control_c, 1, 11, 119
6, 79880, Control_c, 1, 11, 121
6, 79893, Control_c, 1, 11, 123
6, 79907, Control_c, 1, 11, 127
6, 79919, Note_on_c, 1, 78, 0
6, 79920, Note_on_c, 1, 83, 56
6, 79920, Control_c, 1, 11, 127
6, 79933, Control_c, 1, 11, 125
6, 79947, Control_c, 1, 11, 123
6, 79960, Control_c, 1, 11, 121
6, 79973, Control_c, 1, 11, 119
6, 79987, Control_c, 1, 11, 116
6, 80000, Control_c, 1, 11, 114
6, 80013, Control_c, 1, 11, 112
6, 80027, Control_c, 1, 11, 110
6, 80039, Note_on_c, 1, 83, 0
6, 80040, Control_c, 1, 11, 108
6, 80040, Note_on_c, 1, 75, 56
6, 80053, Control_c, 1, 11, 106
6, 80067, Control_c, 1, 11, 104
6, 80080, Control_c, 1, 11, 102
6, 80093, Control_c, 1, 11, 100
6, 80107, Control_c, 1, 11, 97
6, 80120, Control_c, 1, 11, 95
6, 80133, Control_c, 1, 11, 93
6, 80147, Control_c, 1, 11, 91
6, 80151, Note_on_c, 1, 75, 0
6, 80160, Note_on_c, 1, 78, 56
6, 80399, Note_on_c, 1, 78, 0
6, 80400, Note_on_c, 1, 76, 56
6, 80631, Note_on_c, 1, 76, 0
6, 80640, Note_on_c, 1, 76, 56
6, 80640, Control_c, 1, 11, 89
6, 80653, Control_c, 1, 11, 91
6, 80667, Control_c, 1, 11, 93
6, 80680, Control_c, 1, 11, 95
6, 80693, Control_c, 1, 11, 97
6, 80707, Control_c, 1, 11, 100
6, 80720, Control_c, 1, 11, 102
6, 80733, Control_c, 1, 11, 104
6, 80747, Control_c, 1, 11, 106
6, 80759, Note_on_c, 1, 76, 0
6, 80760, Note_on_c, 1, 75, 56
6, 80760, Control_c, 1, 11, 108
6, 80773, Control_c, 1, 11, 110
6, 80787, Control_c, 1, 11, 112
6, 80800, Control_c, 1, 11, 114
6, 80813, Control_c, 1, 11, 116
6, 80827, Control_c, 1, 11, 119
6, 80840, Control_c, 1, 11, 121
6, 80853, Control_c, 1, 11, 123
6, 80867, Control_c, 1, 11, 125
6, 80879, Note_on_c, 1, 75, 0
6, 80880, Control_c, 1, 11, 127
6, 81360, Note_on_c, 1, 70, 44
6, 81591, Note_on_c, 1, 70, 0
6, 81600, Note_on_c, 1, 70, 44
6, 82551, Note_on_c, 1, 70, 0
6, 82560, Note_on_c, 1, 71, 44
6, 82799, Note_on_c, 1, 71, 0
6, 83040, Control_c, 1, 11, 89
6, 83400, Note_on_c, 1, 71, 68
6, 83511, Note_on_c, 1, 71, 0
6, 83520, Control_c, 1, 11, 89
6, 83520, Note_on_c, 1, 73, 68
6, 83571, Control_c, 1, 11, 90
6, 83621, Control_c, 1, 11, 91
6, 83672, Control_c, 1, 11, 92
6, 83722, Control_c, 1, 11, 93
6, 83751, Note_on_c, 1, 73, 0
6, 83760, Note_on_c, 1, 76, 68
6, 83773, Control_c, 1, 11, 94
6, 83823, Control_c, 1, 11, 95
6, 83874, Control_c, 1, 11, 96
6, 83924, Control_c, 1, 11, 97
6, 83975, Control_c, 1, 11, 98
6, 84025, Control_c, 1, 11, 99
6, 84076, Control_c, 1, 11, 100
6, 84126, Control_c, 1, 11, 101
6, 84177, Control_c, 1, 11, 102
6, 84227, Control_c, 1, 11, 103
6, 84231, Note_on_c, 1, 76, 0
6, 84240, Note_on_c, 1, 76, 68
6, 84278, Control_c, 1, 11, 104
6, 84328, Control_c, 1, 11, 105
6, 84379, Control_c, 1, 11, 106
6, 84429, Control_c, 1, 11, 107
6, 84480, Control_c, 1, 11, 108
6, 84531, Control_c, 1, 11, 109
6, 84581, Control_c, 1, 11, 110
6, 84632, Control_c, 1, 11, 111
6, 84682, Control_c, 1, 11, 112
6, 84711, Note_on_c, 1, 76, 0
6, 84720, Note_on_c, 1, 76, 68
6, 84720, Note_on_c, 1, 85, 68
6, 84733, Control_c, 1, 11, 113
6, 84783, Control_c, 1, 11, 114
6, 84834, Control_c, 1, 11, 115
6, 84884, Control_c, 1, 11, 116
6, 84935, Control_c, 1, 11, 117
6, 84985, Control_c, 1, 11, 118
6, 85036, Control_c, 1, 11, 119
6, 85086, Control_c, 1, 11, 120
6, 85137, Control_c, 1, 11, 121
6, 85187, Control_c, 1, 11, 122
6, 85191, Note_on_c, 1, 76, 0
6, 85191, Note_on_c, 1, 85, 0
6, 85200, Note_on_c, 1, 77, 68
6, 85200, Note_on_c, 1, 86, 68
6, 85238, Control_c, 1, 11, 123
6, 85288, Control_c, 1, 11, 124
6, 85339, Control_c, 1, 11, 125
6, 85389, Control_c, 1, 11, 127
6, 85431, Note_on_c, 1, 77, 0
6, 85431, Note_on_c, 1, 86, 0
6, 85440, Note_on_c, 1, 86, 68
6, 85440, Note_on_c, 1, 77, 68
6, 85440, Control_c, 1, 11, 79
6, 86159, Note_on_c, 1, 86, 0
6, 86160, Note_on_c, 1, 81, 68
6, 86879, Note_on_c, 1, 77, 0
6, 86879, Note_on_c, 1, 81, 0
6, 86880, Note_on_c, 1, 77, 68
6, 86880, Note_on_c, 1, 82, 68
6, 87599, Note_on_c, 1, 82, 0
6, 87600, Note_on_c, 1, 89, 68
6, 88199, Note_on_c, 1, 77, 0
6, 88199, Note_on_c, 1, 89, 0
6, 88200, Note_on_c, 1, 87, 68
6, 88200, Note_on_c, 1, 72, 68
6, 88311, Note_on_c, 1, 87, 0
6, 88311, Note_on_c, 1, 72, 0
6, 88318, Control_c, 1, 11, 89
6, 88320, Control_c, 1, 11, 89
6, 88320, Note_on_c, 1, 86, 68
6, 88320, Note_on_c, 1, 74, 68
6, 88339, Control_c, 1, 11, 90
6, 88358, Control_c, 1, 11, 91
6, 88377, Control_c, 1, 11, 92
6, 88396, Control_c, 1, 11, 93
6, 88415, Control_c, 1, 11, 94
6, 88434, Control_c, 1, 11, 95
6, 88453, Control_c, 1, 11, 96
6, 88472, Control_c, 1, 11, 97
6, 88491, Control_c, 1, 11, 98
6, 88509, Control_c, 1, 11, 99
6, 88528, Control_c, 1, 11, 100
6, 88547, Control_c, 1, 11, 101
6, 88566, Control_c, 1, 11, 102
6, 88585, Control_c, 1, 11, 103
6, 88604, Control_c, 1, 11, 104
6, 88623, Control_c, 1, 11, 105
6, 88642, Control_c, 1, 11, 106
6, 88661, Control_c, 1, 11, 107
6, 88679, Note_on_c, 1, 86, 0
6, 88679, Note_on_c, 1, 74, 0
6, 88680, Note_on_c, 1, 77, 68
6, 88680, Control_c, 1, 11, 108
6, 88680, Note_on_c, 1, 89, 68
6, 88699, Control_c, 1, 11, 109
6, 88718, Control_c, 1, 11, 110
6, 88737, Control_c, 1, 11, 111
6, 88756, Control_c, 1, 11, 112
6, 88775, Control_c, 1, 11, 113
6, 88794, Control_c, 1, 11, 114
6, 88813, Control_c, 1, 11, 115
6, 88832, Control_c, 1, 11, 116
6, 88851, Control_c, 1, 11, 117
6, 88869, Control_c, 1, 11, 118
6, 88888, Control_c, 1, 11, 119
6, 88907, Control_c, 1, 11, 120
6, 88926, Control_c, 1, 11, 121
6, 88945, Control_c, 1, 11, 122
6, 88964, Control_c, 1, 11, 123
6, 88983, Control_c, 1, 11, 124
6, 89002, Control_c, 1, 11, 125
6, 89021, Control_c, 1, 11, 126
6, 89039, Note_on_c, 1, 77, 0
6, 89039, Note_on_c, 1, 89, 0
6, 89040, Note_on_c, 1, 82, 68
6, 89040, Control_c, 1, 11, 127
6, 89058, Control_c, 1, 11, 126
6, 89076, Control_c, 1, 11, 125
6, 89094, Control_c, 1, 11, 124
6, 89112, Control_c, 1, 11, 123
6, 89130, Control_c, 1, 11, 122
6, 89148, Control_c, 1, 11, 121
6, 89166, Control_c, 1, 11, 120
6, 89184, Control_c, 1, 11, 119
6, 89202, Control_c, 1, 11, 118
6, 89220, Control_c, 1, 11, 117
6, 89238, Control_c, 1, 11, 116
6, 89256, Control_c, 1, 11, 115
6, 89274, Control_c, 1, 11, 114
6, 89292, Control_c, 1, 11, 113
6, 89310, Control_c, 1, 11, 112
6, 89328, Control_c, 1, 11, 111
6, 89346, Control_c, 1, 11, 110
6, 89364, Control_c, 1, 11, 109
6, 89382, Control_c, 1, 11, 108
6, 89400, Control_c, 1, 11, 107
6, 89418, Control_c, 1, 11, 106
6, 89436, Control_c, 1, 11, 105
6, 89454, Control_c, 1, 11, 104
6, 89472, Control_c, 1, 11, 103
6, 89490, Control_c, 1, 11, 102
6, 89508, Control_c, 1, 11, 101
6, 89526, Control_c, 1, 11, 100
6, 89544, Control_c, 1, 11, 99
6, 89562, Control_c, 1, 11, 98
6, 89580, Control_c, 1, 11, 97
6, 89598, Control_c, 1, 11, 96
6, 89616, Control_c, 1, 11, 95
6, 89634, Control_c, 1, 11, 94
6, 89640, Note_on_c, 1, 84, 68
6, 89652, Control_c, 1, 11, 93
6, 89670, Control_c, 1, 11, 92
6, 89688, Control_c, 1, 11, 91
6, 89706, Control_c, 1, 11, 90
6, 89724, Control_c, 1, 11, 89
6, 89751, Note_on_c, 1, 84, 0
6, 89760, Note_on_c, 1, 86, 68
6, 89760, Control_c, 1, 11, 89
6, 89779, Control_c, 1, 11, 90
6, 89798, Control_c, 1, 11, 91
6, 89817, Control_c, 1, 11, 92
6, 89836, Control_c, 1, 11, 93
6, 89855, Control_c, 1, 11, 94
6, 89874, Control_c, 1, 11, 95
6, 89893, Control_c, 1, 11, 96
6, 89912, Control_c, 1, 11, 97
6, 89931, Control_c, 1, 11, 98
6, 89949, Control_c, 1, 11, 99
6, 89968, Control_c, 1, 11, 100
6, 89987, Control_c, 1, 11, 101
6, 90006, Control_c, 1, 11, 102
6, 90025, Control_c, 1, 11, 103
6, 90044, Control_c, 1, 11, 104
6, 90063, Control_c, 1, 11, 105
6, 90082, Control_c, 1, 11, 106
6, 90101, Control_c, 1, 11, 107
6, 90119, Note_on_c, 1, 82, 0
6, 90119, Note_on_c, 1, 86, 0
6, 90120, Control_c, 1, 11, 108
6, 90120, Note_on_c, 1, 89, 68
6, 90120, Note_on_c, 1, 86, 68
6, 90139, Control_c, 1, 11, 109
6, 90158, Control_c, 1, 11, 110
6, 90177, Control_c, 1, 11, 111
6, 90196, Control_c, 1, 11, 112
6, 90215, Control_c, 1, 11, 113
6, 90234, Control_c, 1, 11, 114
6, 90253, Control_c, 1, 11, 115
6, 90272, Control_c, 1, 11, 116
6, 90291, Control_c, 1, 11, 117
6, 90309, Control_c, 1, 11, 118
6, 90328, Control_c, 1, 11, 119
6, 90347, Control_c, 1, 11, 120
6, 90359, Note_on_c, 1, 89, 0
6, 90359, Note_on_c, 1, 86, 0
6, 90360, Note_on_c, 1, 87, 68
6, 90360, Note_on_c, 1, 84, 68
6, 90366, Control_c, 1, 11, 121
6, 90385, Control_c, 1, 11, 122
6, 90404, Control_c, 1, 11, 123
6, 90423, Control_c, 1, 11, 124
6, 90442, Control_c, 1, 11, 125
6, 90461, Control_c, 1, 11, 126
6, 90479, Note_on_c, 1, 87, 0
6, 90479, Note_on_c, 1, 84, 0
6, 90480, Note_on_c, 1, 84, 68
6, 90480, Control_c, 1, 11, 127
6, 90489, Control_c, 1, 11, 126
6, 90499, Control_c, 1, 11, 125
6, 90508, Control_c, 1, 11, 124
6, 90518, Control_c, 1, 11, 123
6, 90527, Control_c, 1, 11, 122
6, 90537, Control_c, 1, 11, 121
6, 90546, Control_c, 1, 11, 120
6, 90556, Control_c, 1, 11, 119
6, 90565, Control_c, 1, 11, 118
6, 90575, Control_c, 1, 11, 117
6, 90584, Control_c, 1, 11, 116
6, 90594, Control_c, 1, 11, 115
6, 90603, Control_c, 1, 11, 114
6, 90613, Control_c, 1, 11, 113
6, 90622, Control_c, 1, 11, 112
6, 90632, Control_c, 1, 11, 111
6, 90641, Control_c, 1, 11, 110
6, 90651, Control_c, 1, 11, 109
6, 90660, Control_c, 1, 11, 108
6, 90669, Control_c, 1, 11, 107
6, 90679, Control_c, 1, 11, 106
6, 90688, Control_c, 1, 11, 105
6, 90698, Control_c, 1, 11, 104
6, 90707, Control_c, 1, 11, 103
6, 90717, Control_c, 1, 11, 102
6, 90726, Control_c, 1, 11, 101
6, 90736, Control_c, 1, 11, 100
6, 90745, Control_c, 1, 11, 99
6, 90755, Control_c, 1, 11, 98
6, 90764, Control_c, 1, 11, 97
6, 90774, Control_c, 1, 11, 96
6, 90783, Control_c, 1, 11, 95
6, 90793, Control_c, 1, 11, 94
6, 90802, Control_c, 1, 11, 93
6, 90812, Control_c, 1, 11, 92
6, 90821, Control_c, 1, 11, 91
6, 90831, Control_c, 1, 11, 90
6, 90839, Note_on_c, 1, 84, 0
6, 91551, Control_c, 1, 11, 100
6, 91560, Note_on_c, 1, 82, 68
6, 91578, Control_c, 1, 11, 101
6, 91605, Control_c, 1, 11, 102
6, 91632, Control_c, 1, 11, 103
6, 91659, Control_c, 1, 11, 104
6, 91686, Control_c, 1, 11, 105
6, 91713, Control_c, 1, 11, 106
6, 91740, Control_c, 1, 11, 107
6, 91767, Control_c, 1, 11, 108
6, 91794, Control_c, 1, 11, 109
6, 91821, Control_c, 1, 11, 110
6, 91848, Control_c, 1, 11, 111
6, 91875, Control_c, 1, 11, 112
6, 91902, Control_c, 1, 11, 113
6, 91929, Control_c, 1, 11, 114
6, 91956, Control_c, 1, 11, 115
6, 91983, Control_c, 1, 11, 116
6, 92010, Control_c, 1, 11, 117
6, 92037, Control_c, 1, 11, 118
6, 92064, Control_c, 1, 11, 119
6, 92091, Control_c, 1, 11, 120
6, 92118, Control_c, 1, 11, 121
6, 92145, Control_c, 1, 11, 122
6, 92159, Note_on_c, 1, 82, 0
6, 92160, Note_on_c, 1, 81, 68
6, 92172, Control_c, 1, 11, 123
6, 92199, Control_c, 1, 11, 124
6, 92226, Control_c, 1, 11, 125
6, 92253, Control_c, 1, 11, 126
6, 92279, Note_on_c, 1, 81, 0
6, 92280, Control_c, 1, 11, 127
6, 92280, Note_on_c, 1, 91, 68
6, 92289, Control_c, 1, 11, 126
6, 92298, Control_c, 1, 11, 125
6, 92307, Control_c, 1, 11, 124
6, 92316, Control_c, 1, 11, 123
6, 92325, Control_c, 1, 11, 122
6, 92334, Control_c, 1, 11, 121
6, 92343, Control_c, 1, 11, 120
6, 92352, Control_c, 1, 11, 119
6, 92361, Control_c, 1, 11, 118
6, 92370, Control_c, 1, 11, 117
6, 92379, Control_c, 1, 11, 116
6, 92388, Control_c, 1, 11, 115
6, 92397, Control_c, 1, 11, 114
6, 92399, Note_on_c, 1, 91, 0
6, 92400, Note_on_c, 1, 89, 68
6, 92406, Control_c, 1, 11, 113
6, 92415, Control_c, 1, 11, 112
6, 92424, Control_c, 1, 11, 111
6, 92433, Control_c, 1, 11, 110
6, 92442, Control_c, 1, 11, 109
6, 92451, Control_c, 1, 11, 108
6, 92459, Note_on_c, 1, 89, 0
6, 92460, Note_on_c, 1, 87, 68
6, 92460, Control_c, 1, 11, 107
6, 92469, Control_c, 1, 11, 106
6, 92478, Control_c, 1, 11, 105
6, 92487, Control_c, 1, 11, 104
6, 92496, Control_c, 1, 11, 103
6, 92505, Control_c, 1, 11, 102
6, 92514, Control_c, 1, 11, 101
6, 92519, Note_on_c, 1, 87, 0
6, 92520, Note_on_c, 1, 84, 68
6, 92523, Control_c, 1, 11, 100
6, 92532, Control_c, 1, 11, 99
6, 92541, Control_c, 1, 11, 98
6, 92550, Control_c, 1, 11, 97
6, 92559, Control_c, 1, 11, 96
6, 92568, Control_c, 1, 11, 95
6, 92577, Control_c, 1, 11, 94
6, 92586, Control_c, 1, 11, 93
6, 92595, Control_c, 1, 11, 92
6, 92604, Control_c, 1, 11, 91
6, 92613, Control_c, 1, 11, 90
6, 92622, Control_c, 1, 11, 89
6, 92631, Note_on_c, 1, 84, 0
6, 92631, Control_c, 1, 11, 87
6, 92640, Note_on_c, 1, 77, 68
6, 92640, Note_on_c, 1, 84, 68
6, 93359, Note_on_c, 1, 84, 0
6, 93360, Note_on_c, 1, 82, 68
6, 93959, Note_on_c, 1, 82, 0
6, 93960, Note_on_c, 1, 89, 68
6, 94079, Note_on_c, 1, 77, 0
6, 94079, Note_on_c, 1, 89, 0
6, 94080, Note_on_c, 1, 77, 68
6, 94080, Note_on_c, 1, 89, 68
6, 94439, Note_on_c, 1, 89, 0
6, 94440, Note_on_c, 1, 87, 68
6, 95039, Note_on_c, 1, 77, 0
6, 95040, Note_on_c, 1, 82, 68
6, 95151, Note_on_c, 1, 82, 0
6, 95159, Note_on_c, 1, 87, 0
6, 95160, Note_on_c, 1, 86, 68
6, 95160, Note_on_c, 1, 82, 68
6, 95511, Note_on_c, 1, 86, 0
6, 95520, Note_on_c, 1, 84, 68
6, 96119, Note_on_c, 1, 84, 0
6, 96120, Note_on_c, 1, 86, 68
6, 96179, Note_on_c, 1, 86, 0
6, 96180, Note_on_c, 1, 87, 68
6, 96231, Note_on_c, 1, 87, 0
6, 96240, Note_on_c, 1, 86, 68
6, 96479, Note_on_c, 1, 82, 0
6, 96480, Note_on_c, 1, 77, 68
6, 96599, Note_on_c, 1, 86, 0
6, 96600, Note_on_c, 1, 84, 68
6, 96839, Note_on_c, 1, 84, 0
6, 96840, Note_on_c, 1, 85, 68
6, 96951, Note_on_c, 1, 85, 0
6, 96960, Note_on_c, 1, 85, 68
6, 96960, Control_c, 1, 11, 87
6, 96978, Control_c, 1, 11, 88
6, 96996, Control_c, 1, 11, 89
6, 97014, Control_c, 1, 11, 90
6, 97032, Control_c, 1, 11, 91
6, 97050, Control_c, 1, 11, 92
6, 97068, Control_c, 1, 11, 93
6, 97086, Control_c, 1, 11, 94
6, 97104, Control_c, 1, 11, 95
6, 97122, Control_c, 1, 11, 96
6, 97140, Control_c, 1, 11, 97
6, 97158, Control_c, 1, 11, 98
6, 97176, Control_c, 1, 11, 99
6, 97194, Control_c, 1, 11, 100
6, 97212, Control_c, 1, 11, 101
6, 97230, Control_c, 1, 11, 102
6, 97248, Control_c, 1, 11, 103
6, 97266, Control_c, 1, 11, 104
6, 97284, Control_c, 1, 11, 105
6, 97302, Control_c, 1, 11, 106
6, 97320, Control_c, 1, 11, 107
6, 97338, Control_c, 1, 11, 108
6, 97356, Control_c, 1, 11, 109
6, 97374, Control_c, 1, 11, 110
6, 97392, Control_c, 1, 11, 111
6, 97410, Control_c, 1, 11, 112
6, 97428, Control_c, 1, 11, 113
6, 97446, Control_c, 1, 11, 114
6, 97464, Control_c, 1, 11, 115
6, 97482, Control_c, 1, 11, 116
6, 97500, Control_c, 1, 11, 117
6, 97518, Control_c, 1, 11, 118
6, 97536, Control_c, 1, 11, 119
6, 97554, Control_c, 1, 11, 120
6, 97559, Note_on_c, 1, 85, 0
6, 97560, Note_on_c, 1, 86, 68
6, 97572, Control_c, 1, 11, 121
6, 97590, Control_c, 1, 11, 122
6, 97608, Control_c, 1, 11, 123
6, 97626, Control_c, 1, 11, 124
6, 97644, Control_c, 1, 11, 125
6, 97662, Control_c, 1, 11, 126
6, 97671, Note_on_c, 1, 86, 0
6, 97680, Note_on_c, 1, 86, 68
6, 97680, Control_c, 1, 11, 127
6, 97686, Control_c, 1, 11, 126
6, 97692, Control_c, 1, 11, 125
6, 97699, Control_c, 1, 11, 124
6, 97705, Control_c, 1, 11, 123
6, 97711, Control_c, 1, 11, 122
6, 97717, Control_c, 1, 11, 121
6, 97723, Control_c, 1, 11, 120
6, 97730, Control_c, 1, 11, 119
6, 97736, Control_c, 1, 11, 118
6, 97742, Control_c, 1, 11, 117
6, 97748, Control_c, 1, 11, 116
6, 97754, Control_c, 1, 11, 115
6, 97761, Control_c, 1, 11, 114
6, 97767, Control_c, 1, 11, 113
6, 97773, Control_c, 1, 11, 112
6, 97779, Control_c, 1, 11, 111
6, 97786, Control_c, 1, 11, 110
6, 97792, Control_c, 1, 11, 109
6, 97798, Control_c, 1, 11, 108
6, 97804, Control_c, 1, 11, 107
6, 97810, Control_c, 1, 11, 106
6, 97817, Control_c, 1, 11, 105
6, 97823, Control_c, 1, 11, 104
6, 97829, Control_c, 1, 11, 103
6, 97835, Control_c, 1, 11, 102
6, 97841, Control_c, 1, 11, 101
6, 97848, Control_c, 1, 11, 100
6, 97854, Control_c, 1, 11, 99
6, 97860, Control_c, 1, 11, 98
6, 97866, Control_c, 1, 11, 97
6, 97872, Control_c, 1, 11, 96
6, 97879, Control_c, 1, 11, 95
6, 97885, Control_c, 1, 11, 94
6, 97891, Control_c, 1, 11, 93
6, 97897, Control_c, 1, 11, 92
6, 97903, Control_c, 1, 11, 91
6, 97910, Control_c, 1, 11, 90
6, 97916, Control_c, 1, 11, 89
6, 97922, Control_c, 1, 11, 88
6, 97928, Control_c, 1, 11, 87
6, 97934, Control_c, 1, 11, 86
6, 97941, Control_c, 1, 11, 85
6, 97947, Control_c, 1, 11, 84
6, 97953, Control_c, 1, 11, 83
6, 97959, Control_c, 1, 11, 82
6, 97966, Control_c, 1, 11, 81
6, 97972, Control_c, 1, 11, 80
6, 97978, Control_c, 1, 11, 79
6, 97984, Control_c, 1, 11, 78
6, 97990, Control_c, 1, 11, 77
6, 97997, Control_c, 1, 11, 76
6, 98003, Control_c, 1, 11, 75
6, 98009, Control_c, 1, 11, 74
6, 98015, Control_c, 1, 11, 73
6, 98021, Control_c, 1, 11, 72
6, 98028, Control_c, 1, 11, 71
6, 98034, Control_c, 1, 11, 70
6, 98039, Note_on_c, 1, 77, 0
6, 98039, Note_on_c, 1, 86, 0
6, 98508, Control_c, 1, 11, 93
6, 98520, Note_on_c, 1, 89, 68
6, 98526, Control_c, 1, 11, 94
6, 98544, Control_c, 1, 11, 95
6, 98562, Control_c, 1, 11, 96
6, 98580, Control_c, 1, 11, 97
6, 98598, Control_c, 1, 11, 98
6, 98616, Control_c, 1, 11, 99
6, 98634, Control_c, 1, 11, 100
6, 98639, Note_on_c, 1, 89, 0
6, 98640, Note_on_c, 1, 85, 68
6, 98652, Control_c, 1, 11, 101
6, 98670, Control_c, 1, 11, 102
6, 98688, Control_c, 1, 11, 103
6, 98706, Control_c, 1, 11, 104
6, 98724, Control_c, 1, 11, 105
6, 98742, Control_c, 1, 11, 106
6, 98751, Note_on_c, 1, 85, 0
6, 98760, Note_on_c, 1, 85, 68
6, 98760, Control_c, 1, 11, 107
6, 98778, Control_c, 1, 11, 108
6, 98796, Control_c, 1, 11, 109
6, 98814, Control_c, 1, 11, 110
6, 98832, Control_c, 1, 11, 111
6, 98850, Control_c, 1, 11, 112
6, 98868, Control_c, 1, 11, 113
6, 98886, Control_c, 1, 11, 114
6, 98904, Control_c, 1, 11, 115
6, 98922, Control_c, 1, 11, 116
6, 98940, Control_c, 1, 11, 117
6, 98958, Control_c, 1, 11, 118
6, 98976, Control_c, 1, 11, 119
6, 98994, Control_c, 1, 11, 120
6, 98999, Note_on_c, 1, 85, 0
6, 99000, Note_on_c, 1, 86, 68
6, 99012, Control_c, 1, 11, 121
6, 99030, Control_c, 1, 11, 122
6, 99048, Control_c, 1, 11, 123
6, 99066, Control_c, 1, 11, 124
6, 99084, Control_c, 1, 11, 125
6, 99102, Control_c, 1, 11, 126
6, 99111, Note_on_c, 1, 86, 0
6, 99120, Note_on_c, 1, 86, 68
6, 99120, Control_c, 1, 11, 127
6, 99129, Control_c, 1, 11, 126
6, 99138, Control_c, 1, 11, 125
6, 99147, Control_c, 1, 11, 124
6, 99156, Control_c, 1, 11, 123
6, 99165, Control_c, 1, 11, 122
6, 99174, Control_c, 1, 11, 121
6, 99183, Control_c, 1, 11, 120
6, 99192, Control_c, 1, 11, 119
6, 99201, Control_c, 1, 11, 118
6, 99210, Control_c, 1, 11, 117
6, 99219, Control_c, 1, 11, 116
6, 99228, Control_c, 1, 11, 115
6, 99237, Control_c, 1, 11, 114
6, 99246, Control_c, 1, 11, 113
6, 99255, Control_c, 1, 11, 112
6, 99264, Control_c, 1, 11, 111
6, 99273, Control_c, 1, 11, 110
6, 99282, Control_c, 1, 11, 109
6, 99291, Control_c, 1, 11, 108
6, 99300, Control_c, 1, 11, 107
6, 99309, Control_c, 1, 11, 106
6, 99318, Control_c, 1, 11, 105
6, 99327, Control_c, 1, 11, 104
6, 99336, Control_c, 1, 11, 103
6, 99345, Control_c, 1, 11, 102
6, 99354, Control_c, 1, 11, 101
6, 99363, Control_c, 1, 11, 100
6, 99372, Control_c, 1, 11, 99
6, 99381, Control_c, 1, 11, 98
6, 99390, Control_c, 1, 11, 97
6, 99399, Control_c, 1, 11, 96
6, 99408, Control_c, 1, 11, 95
6, 99417, Control_c, 1, 11, 94
6, 99426, Control_c, 1, 11, 93
6, 99435, Control_c, 1, 11, 92
6, 99444, Control_c, 1, 11, 91
6, 99453, Control_c, 1, 11, 90
6, 99462, Control_c, 1, 11, 89
6, 99471, Note_on_c, 1, 86, 0
6, 99480, Note_on_c, 1, 86, 68
6, 99480, Note_on_c, 1, 77, 68
6, 99831, Note_on_c, 1, 77, 0
6, 99839, Note_on_c, 1, 86, 0
6, 99840, Note_on_c, 1, 84, 68
6, 99840, Note_on_c, 1, 79, 68
6, 100199, Note_on_c, 1, 79, 0
6, 100200, Note_on_c, 1, 81, 68
6, 100559, Note_on_c, 1, 84, 0
6, 100559, Note_on_c, 1, 81, 0
6, 100560, Note_on_c, 1, 77, 68
6, 100560, Note_on_c, 1, 82, 68
6, 100919, Note_on_c, 1, 77, 0
6, 101160, Note_on_c, 1, 89, 68
6, 101271, Note_on_c, 1, 82, 0
6, 101271, Note_on_c, 1, 89, 0
6, 101280, Control_c, 1, 11, 89
6, 101280, Note_on_c, 1, 79, 68
6, 101280, Note_on_c, 1, 89, 68
6, 101299, Control_c, 1, 11, 90
6, 101318, Control_c, 1, 11, 91
6, 101337, Control_c, 1, 11, 92
6, 101356, Control_c, 1, 11, 93
6, 101375, Control_c, 1, 11, 94
6, 101394, Control_c, 1, 11, 95
6, 101413, Control_c, 1, 11, 96
6, 101432, Control_c, 1, 11, 97
6, 101451, Control_c, 1, 11, 98
6, 101469, Control_c, 1, 11, 99
6, 101488, Control_c, 1, 11, 100
6, 101507, Control_c, 1, 11, 101
6, 101526, Control_c, 1, 11, 102
6, 101545, Control_c, 1, 11, 103
6, 101564, Control_c, 1, 11, 104
6, 101583, Control_c, 1, 11, 105
6, 101602, Control_c, 1, 11, 106
6, 101621, Control_c, 1, 11, 107
6, 101639, Note_on_c, 1, 79, 0
6, 101639, Note_on_c, 1, 89, 0
6, 101640, Control_c, 1, 11, 108
6, 101640, Note_on_c, 1, 87, 68
6, 101640, Note_on_c, 1, 81, 68
6, 101659, Control_c, 1, 11, 109
6, 101678, Control_c, 1, 11, 110
6, 101697, Control_c, 1, 11, 111
6, 101716, Control_c, 1, 11, 112
6, 101735, Control_c, 1, 11, 113
6, 101754, Control_c, 1, 11, 114
6, 101773, Control_c, 1, 11, 115
6, 101792, Control_c, 1, 11, 116
6, 101811, Control_c, 1, 11, 117
6, 101829, Control_c, 1, 11, 118
6, 101848, Control_c, 1, 11, 119
6, 101867, Control_c, 1, 11, 120
6, 101886, Control_c, 1, 11, 121
6, 101905, Control_c, 1, 11, 122
6, 101924, Control_c, 1, 11, 123
6, 101943, Control_c, 1, 11, 124
6, 101962, Control_c, 1, 11, 125
6, 101981, Control_c, 1, 11, 126
6, 102000, Control_c, 1, 11, 127
6, 102018, Control_c, 1, 11, 126
6, 102036, Control_c, 1, 11, 125
6, 102054, Control_c, 1, 11, 124
6, 102072, Control_c, 1, 11, 123
6, 102090, Control_c, 1, 11, 122
6, 102108, Control_c, 1, 11, 121
6, 102126, Control_c, 1, 11, 120
6, 102144, Control_c, 1, 11, 119
6, 102162, Control_c, 1, 11, 118
6, 102180, Control_c, 1, 11, 117
6, 102198, Control_c, 1, 11, 116
6, 102216, Control_c, 1, 11, 115
6, 102234, Control_c, 1, 11, 114
6, 102252, Control_c, 1, 11, 113
6, 102270, Control_c, 1, 11, 112
6, 102288, Control_c, 1, 11, 111
6, 102306, Control_c, 1, 11, 110
6, 102324, Control_c, 1, 11, 109
6, 102342, Control_c, 1, 11, 108
6, 102359, Note_on_c, 1, 87, 0
6, 102359, Note_on_c, 1, 81, 0
6, 102360, Control_c, 1, 11, 107
6, 102360, Note_on_c, 1, 86, 68
6, 102360, Note_on_c, 1, 82, 68
6, 102378, Control_c, 1, 11, 106
6, 102396, Control_c, 1, 11, 105
6, 102414, Control_c, 1, 11, 104
6, 102432, Control_c, 1, 11, 103
6, 102450, Control_c, 1, 11, 102
6, 102468, Control_c, 1, 11, 101
6, 102486, Control_c, 1, 11, 100
6, 102504, Control_c, 1, 11, 99
6, 102522, Control_c, 1, 11, 98
6, 102540, Control_c, 1, 11, 97
6, 102558, Control_c, 1, 11, 96
6, 102576, Control_c, 1, 11, 95
6, 102594, Control_c, 1, 11, 94
6, 102599, Note_on_c, 1, 86, 0
6, 102599, Note_on_c, 1, 82, 0
6, 102612, Control_c, 1, 11, 93
6, 102630, Control_c, 1, 11, 92
6, 102648, Control_c, 1, 11, 91
6, 102666, Control_c, 1, 11, 90
6, 102684, Control_c, 1, 11, 89
6, 103800, Control_c, 1, 11, 89
6, 103800, Note_on_c, 1, 91, 68
6, 103847, Control_c, 1, 11, 90
6, 103895, Control_c, 1, 11, 91
6, 103942, Control_c, 1, 11, 92
6, 103989, Control_c, 1, 11, 93
6, 104037, Control_c, 1, 11, 94
6, 104084, Control_c, 1, 11, 95
6, 104132, Control_c, 1, 11, 96
6, 104151, Note_on_c, 1, 91, 0
6, 104160, Note_on_c, 1, 91, 68
6, 104179, Control_c, 1, 11, 97
6, 104226, Control_c, 1, 11, 98
6, 104274, Control_c, 1, 11, 99
6, 104321, Control_c, 1, 11, 100
6, 104368, Control_c, 1, 11, 101
6, 104416, Control_c, 1, 11, 102
6, 104463, Control_c, 1, 11, 103
6, 104511, Control_c, 1, 11, 104
6, 104558, Control_c, 1, 11, 105
6, 104605, Control_c, 1, 11, 106
6, 104653, Control_c, 1, 11, 107
6, 104700, Control_c, 1, 11, 108
6, 104747, Control_c, 1, 11, 109
6, 104795, Control_c, 1, 11, 110
6, 104842, Control_c, 1, 11, 111
6, 104889, Control_c, 1, 11, 112
6, 104937, Control_c, 1, 11, 113
6, 104984, Control_c, 1, 11, 114
6, 105032, Control_c, 1, 11, 115
6, 105079, Control_c, 1, 11, 116
6, 105120, Note_on_c, 1, 79, 68
6, 105126, Control_c, 1, 11, 117
6, 105174, Control_c, 1, 11, 118
6, 105221, Control_c, 1, 11, 119
6, 105231, Note_on_c, 1, 79, 0
6, 105240, Note_on_c, 1, 79, 68
6, 105268, Control_c, 1, 11, 120
6, 105316, Control_c, 1, 11, 121
6, 105359, Note_on_c, 1, 79, 0
6, 105360, Note_on_c, 1, 81, 68
6, 105363, Control_c, 1, 11, 122
6, 105411, Control_c, 1, 11, 123
6, 105458, Control_c, 1, 11, 124
6, 105479, Note_on_c, 1, 91, 0
6, 105479, Note_on_c, 1, 81, 0
6, 105480, Note_on_c, 1, 84, 68
6, 105480, Note_on_c, 1, 82, 68
6, 105505, Control_c, 1, 11, 125
6, 105553, Control_c, 1, 11, 126
6, 105591, Note_on_c, 1, 84, 0
6, 105591, Note_on_c, 1, 82, 0
6, 105600, Note_on_c, 1, 86, 68
6, 105600, Note_on_c, 1, 82, 68
6, 105600, Control_c, 1, 11, 127
6, 105618, Control_c, 1, 11, 126
6, 105636, Control_c, 1, 11, 125
6, 105654, Control_c, 1, 11, 124
6, 105672, Control_c, 1, 11, 123
6, 105690, Control_c, 1, 11, 122
6, 105708, Control_c, 1, 11, 121
6, 105726, Control_c, 1, 11, 120
6, 105744, Control_c, 1, 11, 119
6, 105762, Control_c, 1, 11, 118
6, 105780, Control_c, 1, 11, 117
6, 105798, Control_c, 1, 11, 116
6, 105816, Control_c, 1, 11, 115
6, 105834, Control_c, 1, 11, 114
6, 105852, Control_c, 1, 11, 113
6, 105870, Control_c, 1, 11, 112
6, 105888, Control_c, 1, 11, 111
6, 105906, Control_c, 1, 11, 110
6, 105924, Control_c, 1, 11, 109
6, 105942, Control_c, 1, 11, 108
6, 105960, Control_c, 1, 11, 107
6, 105978, Control_c, 1, 11, 106
6, 105996, Control_c, 1, 11, 105
6, 106014, Control_c, 1, 11, 104
6, 106032, Control_c, 1, 11, 103
6, 106050, Control_c, 1, 11, 102
6, 106068, Control_c, 1, 11, 101
6, 106086, Control_c, 1, 11, 100
6, 106104, Control_c, 1, 11, 99
6, 106122, Control_c, 1, 11, 98
6, 106140, Control_c, 1, 11, 97
6, 106158, Control_c, 1, 11, 96
6, 106176, Control_c, 1, 11, 95
6, 106191, Note_on_c, 1, 86, 0
6, 106191, Note_on_c, 1, 82, 0
6, 106194, Control_c, 1, 11, 94
6, 106200, Note_on_c, 1, 86, 68
6, 106212, Control_c, 1, 11, 93
6, 106230, Control_c, 1, 11, 92
6, 106248, Control_c, 1, 11, 91
6, 106266, Control_c, 1, 11, 90
6, 106284, Control_c, 1, 11, 89
6, 106319, Note_on_c, 1, 86, 0
6, 106320, Note_on_c, 1, 89, 68
6, 106679, Note_on_c, 1, 89, 0
6, 106680, Note_on_c, 1, 87, 68
6, 106919, Note_on_c, 1, 87, 0
6, 106920, Note_on_c, 1, 84, 68
6, 107031, Note_on_c, 1, 84, 0
6, 107040, Note_on_c, 1, 84, 68
6, 107639, Note_on_c, 1, 84, 0
6, 107640, Note_on_c, 1, 86, 68
6, 107759, Note_on_c, 1, 86, 0
6, 107880, Note_on_c, 1, 82, 68
6, 107999, Note_on_c, 1, 82, 0
6, 108000, Note_on_c, 1, 84, 68
6, 108059, Note_on_c, 1, 84, 0
6, 108060, Note_on_c, 1, 86, 68
6, 108119, Note_on_c, 1, 86, 0
6, 108120, Note_on_c, 1, 87, 68
6, 108359, Note_on_c, 1, 87, 0
6, 108360, Note_on_c, 1, 84, 68
6, 108471, Note_on_c, 1, 84, 0
6, 108480, Note_on_c, 1, 84, 68
6, 109079, Note_on_c, 1, 84, 0
6, 109080, Note_on_c, 1, 86, 68
6, 109191, Note_on_c, 1, 86, 0
6, 109200, Note_on_c, 1, 84, 68
6, 109439, Note_on_c, 1, 84, 0
6, 109440, Note_on_c, 1, 82, 68
6, 109559, Note_on_c, 1, 82, 0
6, 109560, Note_on_c, 1, 86, 68
6, 109799, Note_on_c, 1, 86, 0
6, 109800, Note_on_c, 1, 87, 68
6, 109911, Note_on_c, 1, 87, 0
6, 109920, Note_on_c, 1, 87, 68
6, 110519, Note_on_c, 1, 87, 0
6, 110520, Note_on_c, 1, 89, 68
6, 110639, Note_on_c, 1, 89, 0
6, 110640, Note_on_c, 1, 87, 68
6, 110879, Note_on_c, 1, 87, 0
6, 110880, Note_on_c, 1, 86, 68
6, 110991, Note_on_c, 1, 86, 0
6, 111000, Control_c, 1, 11, 89
6, 111000, Note_on_c, 1, 91, 68
6, 111047, Control_c, 1, 11, 90
6, 111095, Control_c, 1, 11, 91
6, 111142, Control_c, 1, 11, 92
6, 111189, Control_c, 1, 11, 93
6, 111237, Control_c, 1, 11, 94
6, 111284, Control_c, 1, 11, 95
6, 111332, Control_c, 1, 11, 96
6, 111351, Note_on_c, 1, 91, 0
6, 111360, Note_on_c, 1, 91, 68
6, 111379, Control_c, 1, 11, 97
6, 111426, Control_c, 1, 11, 98
6, 111474, Control_c, 1, 11, 99
6, 111521, Control_c, 1, 11, 100
6, 111568, Control_c, 1, 11, 101
6, 111616, Control_c, 1, 11, 102
6, 111663, Control_c, 1, 11, 103
6, 111711, Control_c, 1, 11, 104
6, 111758, Control_c, 1, 11, 105
6, 111805, Control_c, 1, 11, 106
6, 111853, Control_c, 1, 11, 107
6, 111900, Control_c, 1, 11, 108
6, 111947, Control_c, 1, 11, 109
6, 111995, Control_c, 1, 11, 110
6, 112042, Control_c, 1, 11, 111
6, 112089, Control_c, 1, 11, 112
6, 112137, Control_c, 1, 11, 113
6, 112184, Control_c, 1, 11, 114
6, 112232, Control_c, 1, 11, 115
6, 112279, Control_c, 1, 11, 116
6, 112311, Note_on_c, 1, 91, 0
6, 112320, Note_on_c, 1, 79, 68
6, 112326, Control_c, 1, 11, 117
6, 112374, Control_c, 1, 11, 118
6, 112421, Control_c, 1, 11, 119
6, 112431, Note_on_c, 1, 79, 0
6, 112440, Note_on_c, 1, 79, 68
6, 112468, Control_c, 1, 11, 120
6, 112516, Control_c, 1, 11, 121
6, 112559, Note_on_c, 1, 79, 0
6, 112560, Note_on_c, 1, 81, 68
6, 112563, Control_c, 1, 11, 122
6, 112611, Control_c, 1, 11, 123
6, 112658, Control_c, 1, 11, 124
6, 112679, Note_on_c, 1, 81, 0
6, 112680, Note_on_c, 1, 82, 68
6, 112705, Control_c, 1, 11, 125
6, 112753, Control_c, 1, 11, 126
6, 112791, Note_on_c, 1, 82, 0
6, 112800, Control_c, 1, 11, 127
6, 112800, Note_on_c, 1, 82, 68
6, 112818, Control_c, 1, 11, 126
6, 112836, Control_c, 1, 11, 125
6, 112854, Control_c, 1, 11, 124
6, 112872, Control_c, 1, 11, 123
6, 112890, Control_c, 1, 11, 122
6, 112908, Control_c, 1, 11, 121
6, 112926, Control_c, 1, 11, 120
6, 112944, Control_c, 1, 11, 119
6, 112962, Control_c, 1, 11, 118
6, 112980, Control_c, 1, 11, 117
6, 112998, Control_c, 1, 11, 116
6, 113016, Control_c, 1, 11, 115
6, 113034, Control_c, 1, 11, 114
6, 113052, Control_c, 1, 11, 113
6, 113070, Control_c, 1, 11, 112
6, 113088, Control_c, 1, 11, 111
6, 113106, Control_c, 1, 11, 110
6, 113124, Control_c, 1, 11, 109
6, 113142, Control_c, 1, 11, 108
6, 113160, Control_c, 1, 11, 107
6, 113178, Control_c, 1, 11, 106
6, 113196, Control_c, 1, 11, 105
6, 113214, Control_c, 1, 11, 104
6, 113232, Control_c, 1, 11, 103
6, 113250, Control_c, 1, 11, 102
6, 113268, Control_c, 1, 11, 101
6, 113286, Control_c, 1, 11, 100
6, 113304, Control_c, 1, 11, 99
6, 113322, Control_c, 1, 11, 98
6, 113340, Control_c, 1, 11, 97
6, 113358, Control_c, 1, 11, 96
6, 113376, Control_c, 1, 11, 95
6, 113394, Control_c, 1, 11, 94
6, 113399, Note_on_c, 1, 82, 0
6, 113400, Note_on_c, 1, 86, 68
6, 113412, Control_c, 1, 11, 93
6, 113430, Control_c, 1, 11, 92
6, 113448, Control_c, 1, 11, 91
6, 113466, Control_c, 1, 11, 90
6, 113484, Control_c, 1, 11, 89
6, 113502, Control_c, 1, 11, 87
6, 113519, Note_on_c, 1, 86, 0
6, 113520, Note_on_c, 1, 89, 68
6, 113879, Note_on_c, 1, 89, 0
6, 113880, Note_on_c, 1, 87, 68
6, 114119, Note_on_c, 1, 87, 0
6, 114120, Note_on_c, 1, 84, 68
6, 114231, Note_on_c, 1, 84, 0
6, 114240, Control_c, 1, 11, 79
6, 114240, Note_on_c, 1, 87, 68
6, 115319, Note_on_c, 1, 87, 0
6, 115320, Note_on_c, 1, 86, 68
6, 115671, Note_on_c, 1, 86, 0
6, 115678, Control_c, 1, 11, 47
6, 115680, Note_on_c, 1, 87, 80
6, 116400, Control_c, 1, 11, 47
6, 116417, Control_c, 1, 11, 49
6, 116433, Control_c, 1, 11, 51
6, 116450, Control_c, 1, 11, 54
6, 116467, Control_c, 1, 11, 56
6, 116483, Control_c, 1, 11, 58
6, 116500, Control_c, 1, 11, 60
6, 116517, Control_c, 1, 11, 63
6, 116533, Control_c, 1, 11, 65
6, 116550, Control_c, 1, 11, 67
6, 116567, Control_c, 1, 11, 69
6, 116583, Control_c, 1, 11, 71
6, 116600, Control_c, 1, 11, 74
6, 116617, Control_c, 1, 11, 76
6, 116633, Control_c, 1, 11, 78
6, 116650, Control_c, 1, 11, 80
6, 116667, Control_c, 1, 11, 83
6, 116683, Control_c, 1, 11, 85
6, 116700, Control_c, 1, 11, 87
6, 116717, Control_c, 1, 11, 89
6, 116733, Control_c, 1, 11, 91
6, 116750, Control_c, 1, 11, 94
6, 116759, Note_on_c, 1, 87, 0
6, 116760, Note_on_c, 1, 86, 80
6, 116767, Control_c, 1, 11, 96
6, 116783, Control_c, 1, 11, 98
6, 116800, Control_c, 1, 11, 100
6, 116817, Control_c, 1, 11, 103
6, 116833, Control_c, 1, 11, 105
6, 116850, Control_c, 1, 11, 107
6, 116867, Control_c, 1, 11, 109
6, 116883, Control_c, 1, 11, 111
6, 116900, Control_c, 1, 11, 114
6, 116917, Control_c, 1, 11, 116
6, 116933, Control_c, 1, 11, 118
6, 116950, Control_c, 1, 11, 120
6, 116967, Control_c, 1, 11, 123
6, 116983, Control_c, 1, 11, 127
6, 116991, Note_on_c, 1, 86, 0
6, 117000, Note_on_c, 1, 82, 80
6, 117051, Note_on_c, 1, 82, 0
6, 117060, Note_on_c, 1, 82, 80
6, 117111, Note_on_c, 1, 82, 0
6, 117120, Note_on_c, 1, 87, 80
6, 117239, Note_on_c, 1, 87, 0
6, 117720, Note_on_c, 1, 75, 80
6, 117771, Note_on_c, 1, 75, 0
6, 117780, Note_on_c, 1, 75, 80
6, 117831, Note_on_c, 1, 75, 0
6, 117840, Note_on_c, 1, 82, 80
6, 117959, Note_on_c, 1, 82, 0
6, 118440, Note_on_c, 1, 82, 80
6, 118491, Note_on_c, 1, 82, 0
6, 118500, Note_on_c, 1, 82, 80
6, 118551, Note_on_c, 1, 82, 0
6, 118560, Note_on_c, 1, 87, 92
6, 118619, Note_on_c, 1, 87, 0
6, 118800, Note_on_c, 1, 87, 80
6, 118851, Note_on_c, 1, 87, 0
6, 118860, Note_on_c, 1, 87, 80
6, 118911, Note_on_c, 1, 87, 0
6, 118920, Note_on_c, 1, 86, 92
6, 118979, Note_on_c, 1, 86, 0
6, 119160, Note_on_c, 1, 86, 80
6, 119211, Note_on_c, 1, 86, 0
6, 119220, Note_on_c, 1, 86, 80
6, 119271, Note_on_c, 1, 86, 0
6, 119280, Note_on_c, 1, 84, 80
6, 119519, Note_on_c, 1, 84, 0
6, 121440, Control_c, 1, 11, 127
6, 121440, Note_on_c, 1, 87, 68
6, 121458, Control_c, 1, 11, 126
6, 121476, Control_c, 1, 11, 125
6, 121494, Control_c, 1, 11, 124
6, 121512, Control_c, 1, 11, 123
6, 121530, Control_c, 1, 11, 122
6, 121548, Control_c, 1, 11, 121
6, 121566, Control_c, 1, 11, 120
6, 121584, Control_c, 1, 11, 119
6, 121602, Control_c, 1, 11, 118
6, 121620, Control_c, 1, 11, 117
6, 121638, Control_c, 1, 11, 116
6, 121656, Control_c, 1, 11, 115
6, 121674, Control_c, 1, 11, 114
6, 121692, Control_c, 1, 11, 113
6, 121710, Control_c, 1, 11, 112
6, 121728, Control_c, 1, 11, 111
6, 121746, Control_c, 1, 11, 110
6, 121764, Control_c, 1, 11, 109
6, 121782, Control_c, 1, 11, 108
6, 121800, Control_c, 1, 11, 107
6, 121818, Control_c, 1, 11, 106
6, 121836, Control_c, 1, 11, 105
6, 121854, Control_c, 1, 11, 104
6, 121872, Control_c, 1, 11, 103
6, 121890, Control_c, 1, 11, 102
6, 121908, Control_c, 1, 11, 101
6, 121926, Control_c, 1, 11, 100
6, 121944, Control_c, 1, 11, 99
6, 121962, Control_c, 1, 11, 98
6, 121980, Control_c, 1, 11, 97
6, 121998, Control_c, 1, 11, 96
6, 122016, Control_c, 1, 11, 95
6, 122034, Control_c, 1, 11, 94
6, 122052, Control_c, 1, 11, 93
6, 122070, Control_c, 1, 11, 92
6, 122088, Control_c, 1, 11, 91
6, 122106, Control_c, 1, 11, 90
6, 122124, Control_c, 1, 11, 89
6, 122159, Note_on_c, 1, 87, 0
6, 122160, Note_on_c, 1, 82, 68
6, 122879, Note_on_c, 1, 82, 0
6, 122880, Note_on_c, 1, 86, 62
6, 123119, Note_on_c, 1, 86, 0
6, 123598, Control_c, 1, 11, 127
6, 123600, Note_on_c, 1, 87, 38
6, 124079, Note_on_c, 1, 87, 0
6, 124080, Note_on_c, 1, 86, 38
6, 124199, Note_on_c, 1, 86, 0
6, 124200, Note_on_c, 1, 84, 38
6, 124259, Note_on_c, 1, 84, 0
6, 124320, Note_on_c, 1, 84, 38
6, 124439, Note_on_c, 1, 84, 0
6, 124440, Note_on_c, 1, 82, 38
6, 124559, Note_on_c, 1, 82, 0
6, 124560, Note_on_c, 1, 86, 38
6, 124679, Note_on_c, 1, 86, 0
6, 124680, Note_on_c, 1, 77, 38
6, 125039, Note_on_c, 1, 77, 0
6, 125040, Note_on_c, 1, 87, 38
6, 125519, Note_on_c, 1, 87, 0
6, 125520, Note_on_c, 1, 86, 38
6, 125639, Note_on_c, 1, 86, 0
6, 125640, Note_on_c, 1, 84, 38
6, 125699, Note_on_c, 1, 84, 0
6, 125760, Control_c, 1, 11, 67
6, 125854, Control_c, 1, 11, 68
6, 125948, Control_c, 1, 11, 69
6, 126042, Control_c, 1, 11, 70
6, 126120, Note_on_c, 1, 86, 80
6, 126136, Control_c, 1, 11, 71
6, 126230, Control_c, 1, 11, 72
6, 126324, Control_c, 1, 11, 73
6, 126418, Control_c, 1, 11, 74
6, 126479, Note_on_c, 1, 86, 0
6, 126480, Note_on_c, 1, 87, 80
6, 126512, Control_c, 1, 11, 75
6, 126606, Control_c, 1, 11, 76
6, 126700, Control_c, 1, 11, 77
6, 126794, Control_c, 1, 11, 78
6, 126888, Control_c, 1, 11, 79
6, 126959, Note_on_c, 1, 87, 0
6, 126960, Note_on_c, 1, 84, 80
6, 126982, Control_c, 1, 11, 80
6, 127076, Control_c, 1, 11, 81
6, 127079, Note_on_c, 1, 84, 0
6, 127080, Note_on_c, 1, 89, 80
6, 127170, Control_c, 1, 11, 82
6, 127191, Note_on_c, 1, 89, 0
6, 127200, Note_on_c, 1, 89, 80
6, 127264, Control_c, 1, 11, 83
6, 127358, Control_c, 1, 11, 84
6, 127452, Control_c, 1, 11, 85
6, 127546, Control_c, 1, 11, 86
6, 127559, Note_on_c, 1, 89, 0
6, 127560, Note_on_c, 1, 87, 80
6, 127640, Control_c, 1, 11, 87
6, 127734, Control_c, 1, 11, 88
6, 127828, Control_c, 1, 11, 89
6, 127919, Note_on_c, 1, 87, 0
6, 127920, Note_on_c, 1, 86, 80
6, 127922, Control_c, 1, 11, 90
6, 128016, Control_c, 1, 11, 91
6, 128110, Control_c, 1, 11, 92
6, 128204, Control_c, 1, 11, 93
6, 128279, Note_on_c, 1, 86, 0
6, 128280, Note_on_c, 1, 84, 80
6, 128298, Control_c, 1, 11, 94
6, 128392, Control_c, 1, 11, 95
6, 128486, Control_c, 1, 11, 96
6, 128580, Control_c, 1, 11, 97
6, 128631, Note_on_c, 1, 84, 0
6, 128640, Note_on_c, 1, 82, 80
6, 128674, Control_c, 1, 11, 98
6, 128768, Control_c, 1, 11, 99
6, 128862, Control_c, 1, 11, 100
6, 128956, Control_c, 1, 11, 101
6, 128999, Note_on_c, 1, 82, 0
6, 129000, Note_on_c, 1, 86, 80
6, 129050, Control_c, 1, 11, 102
6, 129144, Control_c, 1, 11, 103
6, 129238, Control_c, 1, 11, 104
6, 129239, Note_on_c, 1, 86, 0
6, 129240, Note_on_c, 1, 84, 80
6, 129332, Control_c, 1, 11, 105
6, 129351, Note_on_c, 1, 84, 0
6, 129360, Note_on_c, 1, 81, 80
6, 129426, Control_c, 1, 11, 106
6, 129520, Control_c, 1, 11, 107
6, 129614, Control_c, 1, 11, 108
6, 129708, Control_c, 1, 11, 109
6, 129802, Control_c, 1, 11, 110
6, 129839, Note_on_c, 1, 81, 0
6, 129840, Note_on_c, 1, 82, 80
6, 129896, Control_c, 1, 11, 111
6, 129959, Note_on_c, 1, 82, 0
6, 129960, Note_on_c, 1, 84, 80
6, 129990, Control_c, 1, 11, 112
6, 130049, Note_on_c, 1, 84, 0
6, 130080, Note_on_c, 1, 86, 80
6, 130084, Control_c, 1, 11, 113
6, 130178, Control_c, 1, 11, 114
6, 130272, Control_c, 1, 11, 115
6, 130366, Control_c, 1, 11, 116
6, 130439, Note_on_c, 1, 86, 0
6, 130440, Note_on_c, 1, 89, 80
6, 130460, Control_c, 1, 11, 117
6, 130554, Control_c, 1, 11, 118
6, 130648, Control_c, 1, 11, 119
6, 130679, Note_on_c, 1, 89, 0
6, 130680, Note_on_c, 1, 87, 80
6, 130742, Control_c, 1, 11, 120
6, 130791, Note_on_c, 1, 87, 0
6, 130800, Note_on_c, 1, 84, 80
6, 130836, Control_c, 1, 11, 121
6, 130930, Control_c, 1, 11, 122
6, 131024, Control_c, 1, 11, 123
6, 131118, Control_c, 1, 11, 124
6, 131159, Note_on_c, 1, 84, 0
6, 131160, Note_on_c, 1, 86, 80
6, 131212, Control_c, 1, 11, 125
6, 131306, Control_c, 1, 11, 127
6, 131391, Note_on_c, 1, 86, 0
6, 131400, Note_on_c, 1, 82, 80
6, 131451, Note_on_c, 1, 82, 0
6, 131460, Note_on_c, 1, 82, 80
6, 131511, Note_on_c, 1, 82, 0
6, 131520, Note_on_c, 1, 87, 80
6, 131639, Note_on_c, 1, 87, 0
6, 132120, Note_on_c, 1, 75, 80
6, 132171, Note_on_c, 1, 75, 0
6, 132180, Note_on_c, 1, 75, 80
6, 132231, Note_on_c, 1, 75, 0
6, 132240, Note_on_c, 1, 82, 80
6, 132359, Note_on_c, 1, 82, 0
6, 132840, Note_on_c, 1, 82, 80
6, 132891, Note_on_c, 1, 82, 0
6, 132900, Note_on_c, 1, 82, 80
6, 132951, Note_on_c, 1, 82, 0
6, 132960, Note_on_c, 1, 87, 92
6, 133019, Note_on_c, 1, 87, 0
6, 133200, Note_on_c, 1, 87, 80
6, 133251, Note_on_c, 1, 87, 0
6, 133260, Note_on_c, 1, 87, 80
6, 133311, Note_on_c, 1, 87, 0
6, 133320, Note_on_c, 1, 86, 92
6, 133379, Note_on_c, 1, 86, 0
6, 133560, Note_on_c, 1, 86, 80
6, 133611, Note_on_c, 1, 86, 0
6, 133620, Note_on_c, 1, 86, 80
6, 133671, Note_on_c, 1, 86, 0
6, 133680, Note_on_c, 1, 84, 80
6, 133919, Note_on_c, 1, 84, 0
6, 134400, Control_c, 1, 11, 127
6, 134400, Note_on_c, 1, 85, 80
6, 134424, Control_c, 1, 11, 126
6, 134448, Control_c, 1, 11, 125
6, 134472, Control_c, 1, 11, 124
6, 134496, Control_c, 1, 11, 123
6, 134520, Control_c, 1, 11, 122
6, 134544, Control_c, 1, 11, 121
6, 134568, Control_c, 1, 11, 120
6, 134592, Control_c, 1, 11, 119
6, 134616, Control_c, 1, 11, 118
6, 134640, Control_c, 1, 11, 117
6, 134664, Control_c, 1, 11, 116
6, 134688, Control_c, 1, 11, 115
6, 134712, Control_c, 1, 11, 114
6, 134736, Control_c, 1, 11, 113
6, 134760, Control_c, 1, 11, 112
6, 134784, Control_c, 1, 11, 111
6, 134808, Control_c, 1, 11, 110
6, 134832, Control_c, 1, 11, 109
6, 134856, Control_c, 1, 11, 108
6, 134880, Control_c, 1, 11, 107
6, 134904, Control_c, 1, 11, 106
6, 134928, Control_c, 1, 11, 105
6, 134952, Control_c, 1, 11, 104
6, 134976, Control_c, 1, 11, 103
6, 135000, Control_c, 1, 11, 102
6, 135024, Control_c, 1, 11, 101
6, 135048, Control_c, 1, 11, 100
6, 135072, Control_c, 1, 11, 99
6, 135096, Control_c, 1, 11, 98
6, 135120, Control_c, 1, 11, 97
6, 135144, Control_c, 1, 11, 96
6, 135168, Control_c, 1, 11, 95
6, 135192, Control_c, 1, 11, 94
6, 135216, Control_c, 1, 11, 93
6, 135240, Control_c, 1, 11, 92
6, 135264, Control_c, 1, 11, 91
6, 135288, Control_c, 1, 11, 90
6, 135312, Control_c, 1, 11, 89
6, 135336, Control_c, 1, 11, 88
6, 135360, Control_c, 1, 11, 87
6, 135384, Control_c, 1, 11, 86
6, 135408, Control_c, 1, 11, 85
6, 135432, Control_c, 1, 11, 84
6, 135456, Control_c, 1, 11, 83
6, 135480, Control_c, 1, 11, 82
6, 135504, Control_c, 1, 11, 81
6, 135528, Control_c, 1, 11, 80
6, 135552, Control_c, 1, 11, 79
6, 135576, Control_c, 1, 11, 78
6, 135600, Control_c, 1, 11, 77
6, 135624, Control_c, 1, 11, 76
6, 135648, Control_c, 1, 11, 75
6, 135672, Control_c, 1, 11, 74
6, 135696, Control_c, 1, 11, 73
6, 135720, Control_c, 1, 11, 72
6, 135744, Control_c, 1, 11, 71
6, 135768, Control_c, 1, 11, 70
6, 135792, Control_c, 1, 11, 69
6, 135816, Control_c, 1, 11, 67
6, 135831, Note_on_c, 1, 85, 0
6, 135840, Note_on_c, 1, 80, 80
6, 136079, Note_on_c, 1, 80, 0
6, 137160, Control_c, 1, 11, 127
6, 137280, Note_on_c, 1, 87, 44
6, 137434, Control_c, 1, 11, 126
6, 137588, Control_c, 1, 11, 125
6, 137742, Control_c, 1, 11, 124
6, 137898, Control_c, 1, 11, 122
6, 138052, Control_c, 1, 11, 121
6, 138206, Control_c, 1, 11, 120
6, 138360, Control_c, 1, 11, 119
6, 138711, Note_on_c, 1, 87, 0
6, 138720, Control_c, 1, 11, 118
6, 138720, Note_on_c, 1, 82, 44
6, 138810, Control_c, 1, 11, 117
6, 138900, Control_c, 1, 11, 116
6, 138990, Control_c, 1, 11, 115
6, 139080, Control_c, 1, 11, 114
6, 139170, Control_c, 1, 11, 112
6, 139260, Control_c, 1, 11, 111
6, 139350, Control_c, 1, 11, 110
6, 139440, Control_c, 1, 11, 109
6, 139800, Control_c, 1, 11, 109
6, 139860, Control_c, 1, 11, 112
6, 139919, Note_on_c, 1, 82, 0
6, 139920, Note_on_c, 1, 84, 44
6, 139920, Control_c, 1, 11, 115
6, 139980, Control_c, 1, 11, 119
6, 140039, Note_on_c, 1, 84, 0
6, 140040, Note_on_c, 1, 85, 44
6, 140040, Control_c, 1, 11, 121
6, 140100, Control_c, 1, 11, 125
6, 140151, Note_on_c, 1, 85, 0
6, 140158, Control_c, 1, 11, 89
6, 140160, Note_on_c, 1, 86, 68
6, 140639, Note_on_c, 1, 86, 0
6, 140640, Note_on_c, 1, 84, 68
6, 140759, Note_on_c, 1, 84, 0
6, 140760, Note_on_c, 1, 82, 68
6, 140849, Note_on_c, 1, 82, 0
6, 140880, Note_on_c, 1, 82, 68
6, 140999, Note_on_c, 1, 82, 0
6, 141000, Note_on_c, 1, 81, 68
6, 141119, Note_on_c, 1, 81, 0
6, 141120, Note_on_c, 1, 84, 68
6, 141239, Note_on_c, 1, 84, 0
6, 141240, Note_on_c, 1, 87, 68
6, 141359, Note_on_c, 1, 87, 0
6, 141360, Note_on_c, 1, 86, 68
6, 141479, Note_on_c, 1, 86, 0
6, 141480, Note_on_c, 1, 84, 68
6, 141569, Note_on_c, 1, 84, 0
6, 141600, Note_on_c, 1, 84, 68
6, 141600, Control_c, 1, 11, 89
6, 141619, Control_c, 1, 11, 90
6, 141638, Control_c, 1, 11, 91
6, 141657, Control_c, 1, 11, 92
6, 141676, Control_c, 1, 11, 93
6, 141695, Control_c, 1, 11, 94
6, 141714, Control_c, 1, 11, 95
6, 141719, Note_on_c, 1, 84, 0
6, 141720, Note_on_c, 1, 82, 68
6, 141733, Control_c, 1, 11, 96
6, 141752, Control_c, 1, 11, 97
6, 141771, Control_c, 1, 11, 98
6, 141789, Control_c, 1, 11, 99
6, 141808, Control_c, 1, 11, 100
6, 141827, Control_c, 1, 11, 101
6, 141839, Note_on_c, 1, 82, 0
6, 141840, Note_on_c, 1, 86, 68
6, 141846, Control_c, 1, 11, 102
6, 141865, Control_c, 1, 11, 103
6, 141884, Control_c, 1, 11, 104
6, 141903, Control_c, 1, 11, 105
6, 141922, Control_c, 1, 11, 106
6, 141941, Control_c, 1, 11, 107
6, 141951, Note_on_c, 1, 86, 0
6, 141960, Note_on_c, 1, 77, 68
6, 141960, Control_c, 1, 11, 108
6, 141979, Control_c, 1, 11, 109
6, 141998, Control_c, 1, 11, 110
6, 142017, Control_c, 1, 11, 111
6, 142036, Control_c, 1, 11, 112
6, 142055, Control_c, 1, 11, 113
6, 142074, Control_c, 1, 11, 114
6, 142079, Note_on_c, 1, 77, 0
6, 142080, Note_on_c, 1, 82, 68
6, 142093, Control_c, 1, 11, 115
6, 142112, Control_c, 1, 11, 116
6, 142131, Control_c, 1, 11, 117
6, 142149, Control_c, 1, 11, 118
6, 142168, Control_c, 1, 11, 119
6, 142187, Control_c, 1, 11, 120
6, 142199, Note_on_c, 1, 82, 0
6, 142200, Note_on_c, 1, 84, 68
6, 142206, Control_c, 1, 11, 121
6, 142225, Control_c, 1, 11, 122
6, 142244, Control_c, 1, 11, 123
6, 142259, Note_on_c, 1, 84, 0
6, 142260, Note_on_c, 1, 86, 68
6, 142263, Control_c, 1, 11, 124
6, 142282, Control_c, 1, 11, 125
6, 142301, Control_c, 1, 11, 126
6, 142311, Note_on_c, 1, 86, 0
6, 142320, Note_on_c, 1, 87, 68
6, 142400, Control_c, 1, 11, 121
6, 142480, Control_c, 1, 11, 124
6, 142559, Note_on_c, 1, 87, 0
6, 142560, Note_on_c, 1, 86, 68
6, 142560, Control_c, 1, 11, 127
6, 142680, Control_c, 1, 11, 127
6, 142695, Control_c, 1, 11, 125
6, 142710, Control_c, 1, 11, 124
6, 142725, Control_c, 1, 11, 122
6, 142739, Note_on_c, 1, 86, 0
6, 142740, Control_c, 1, 11, 120
6, 142740, Note_on_c, 1, 84, 68
6, 142755, Control_c, 1, 11, 119
6, 142770, Control_c, 1, 11, 117
6, 142785, Control_c, 1, 11, 115
6, 142799, Note_on_c, 1, 84, 0
6, 142800, Note_on_c, 1, 91, 68
6, 142800, Control_c, 1, 11, 114
6, 142815, Control_c, 1, 11, 112
6, 142830, Control_c, 1, 11, 110
6, 142845, Control_c, 1, 11, 109
6, 142860, Control_c, 1, 11, 107
6, 142875, Control_c, 1, 11, 105
6, 142890, Control_c, 1, 11, 104
6, 142905, Control_c, 1, 11, 102
6, 142919, Note_on_c, 1, 91, 0
6, 142920, Control_c, 1, 11, 100
6, 142920, Note_on_c, 1, 89, 68
6, 142935, Control_c, 1, 11, 99
6, 142950, Control_c, 1, 11, 97
6, 142965, Control_c, 1, 11, 95
6, 142979, Note_on_c, 1, 89, 0
6, 142980, Note_on_c, 1, 81, 68
6, 142980, Control_c, 1, 11, 94
6, 142995, Control_c, 1, 11, 92
6, 143010, Control_c, 1, 11, 90
6, 143025, Control_c, 1, 11, 89
6, 143031, Note_on_c, 1, 81, 0
6, 143040, Note_on_c, 1, 82, 68
6, 143279, Note_on_c, 1, 82, 0
6, 144360, Control_c, 1, 11, 127
6, 144480, Note_on_c, 1, 82, 38
6, 144959, Note_on_c, 1, 82, 0
6, 144960, Note_on_c, 1, 84, 38
6, 145079, Note_on_c, 1, 84, 0
6, 145080, Note_on_c, 1, 86, 38
6, 145191, Note_on_c, 1, 86, 0
6, 145200, Note_on_c, 1, 86, 38
6, 145200, Control_c, 1, 11, 89
6, 145319, Note_on_c, 1, 86, 0
6, 145320, Note_on_c, 1, 84, 38
6, 145358, Control_c, 1, 11, 90
6, 145516, Control_c, 1, 11, 91
6, 145674, Control_c, 1, 11, 92
6, 145679, Note_on_c, 1, 84, 0
6, 145680, Note_on_c, 1, 81, 38
6, 145799, Note_on_c, 1, 81, 0
6, 145800, Note_on_c, 1, 77, 38
6, 145832, Control_c, 1, 11, 93
6, 145889, Note_on_c, 1, 77, 0
6, 145920, Note_on_c, 1, 77, 68
6, 145989, Control_c, 1, 11, 94
6, 146147, Control_c, 1, 11, 95
6, 146305, Control_c, 1, 11, 96
6, 146463, Control_c, 1, 11, 97
6, 146621, Control_c, 1, 11, 98
6, 146639, Note_on_c, 1, 77, 0
6, 146640, Note_on_c, 1, 77, 68
6, 146779, Control_c, 1, 11, 99
6, 146937, Control_c, 1, 11, 100
6, 147095, Control_c, 1, 11, 101
6, 147253, Control_c, 1, 11, 102
6, 147359, Note_on_c, 1, 77, 0
6, 147360, Note_on_c, 1, 77, 68
6, 147411, Control_c, 1, 11, 103
6, 147568, Control_c, 1, 11, 104
6, 147726, Control_c, 1, 11, 105
6, 147884, Control_c, 1, 11, 106
6, 148042, Control_c, 1, 11, 107
6, 148079, Note_on_c, 1, 77, 0
6, 148080, Note_on_c, 1, 77, 68
6, 148200, Control_c, 1, 11, 108
6, 148358, Control_c, 1, 11, 109
6, 148516, Control_c, 1, 11, 110
6, 148674, Control_c, 1, 11, 111
6, 148832, Control_c, 1, 11, 112
6, 148859, Note_on_c, 1, 77, 0
6, 148860, Note_on_c, 1, 77, 68
6, 148919, Note_on_c, 1, 77, 0
6, 148920, Note_on_c, 1, 79, 68
6, 148979, Note_on_c, 1, 79, 0
6, 148980, Note_on_c, 1, 81, 68
6, 148989, Control_c, 1, 11, 113
6, 149039, Note_on_c, 1, 81, 0
6, 149040, Note_on_c, 1, 82, 68
6, 149099, Note_on_c, 1, 82, 0
6, 149100, Note_on_c, 1, 84, 68
6, 149147, Control_c, 1, 11, 114
6, 149151, Note_on_c, 1, 84, 0
6, 149160, Note_on_c, 1, 84, 68
6, 149305, Control_c, 1, 11, 115
6, 149399, Note_on_c, 1, 84, 0
6, 149463, Control_c, 1, 11, 116
6, 149580, Note_on_c, 1, 82, 68
6, 149621, Control_c, 1, 11, 117
6, 149639, Note_on_c, 1, 82, 0
6, 149640, Note_on_c, 1, 84, 68
6, 149699, Note_on_c, 1, 84, 0
6, 149700, Note_on_c, 1, 86, 68
6, 149759, Note_on_c, 1, 86, 0
6, 149760, Note_on_c, 1, 87, 68
6, 149779, Control_c, 1, 11, 118
6, 149819, Note_on_c, 1, 87, 0
6, 149820, Note_on_c, 1, 89, 68
6, 149871, Note_on_c, 1, 89, 0
6, 149880, Note_on_c, 1, 89, 68
6, 149937, Control_c, 1, 11, 119
6, 150095, Control_c, 1, 11, 120
6, 150119, Note_on_c, 1, 89, 0
6, 150253, Control_c, 1, 11, 121
6, 150411, Control_c, 1, 11, 122
6, 150568, Control_c, 1, 11, 123
6, 150726, Control_c, 1, 11, 124
6, 150884, Control_c, 1, 11, 125
6, 150960, Note_on_c, 1, 87, 68
6, 151042, Control_c, 1, 11, 126
6, 151319, Note_on_c, 1, 87, 0
6, 151320, Note_on_c, 1, 86, 68
6, 151320, Control_c, 1, 11, 127
6, 151335, Control_c, 1, 11, 125
6, 151350, Control_c, 1, 11, 124
6, 151365, Control_c, 1, 11, 122
6, 151380, Control_c, 1, 11, 120
6, 151395, Control_c, 1, 11, 119
6, 151410, Control_c, 1, 11, 117
6, 151425, Control_c, 1, 11, 115
6, 151440, Control_c, 1, 11, 114
6, 151455, Control_c, 1, 11, 112
6, 151470, Control_c, 1, 11, 110
6, 151485, Control_c, 1, 11, 109
6, 151500, Control_c, 1, 11, 107
6, 151515, Control_c, 1, 11, 105
6, 151530, Control_c, 1, 11, 104
6, 151545, Control_c, 1, 11, 102
6, 151559, Note_on_c, 1, 86, 0
6, 151560, Note_on_c, 1, 89, 68
6, 151560, Control_c, 1, 11, 100
6, 151575, Control_c, 1, 11, 99
6, 151590, Control_c, 1, 11, 97
6, 151605, Control_c, 1, 11, 95
6, 151620, Control_c, 1, 11, 94
6, 151635, Control_c, 1, 11, 92
6, 151650, Control_c, 1, 11, 90
6, 151665, Control_c, 1, 11, 89
6, 151671, Note_on_c, 1, 89, 0
6, 151680, Note_on_c, 1, 89, 68
6, 151739, Note_on_c, 1, 89, 0
6, 151740, Control_c, 1, 11, 92
6, 151740, Note_on_c, 1, 76, 68
6, 151799, Note_on_c, 1, 76, 0
6, 151800, Control_c, 1, 11, 95
6, 151800, Note_on_c, 1, 77, 68
6, 151859, Note_on_c, 1, 77, 0
6, 151860, Control_c, 1, 11, 99
6, 151860, Note_on_c, 1, 79, 68
6, 151919, Note_on_c, 1, 79, 0
6, 151920, Note_on_c, 1, 81, 68
6, 151920, Control_c, 1, 11, 101
6, 151979, Note_on_c, 1, 81, 0
6, 151980, Control_c, 1, 11, 105
6, 151980, Note_on_c, 1, 82, 68
6, 152031, Note_on_c, 1, 82, 0
6, 152040, Note_on_c, 1, 84, 68
6, 152040, Control_c, 1, 11, 109
6, 152084, Note_on_c, 1, 84, 0
6, 152100, Control_c, 1, 11, 111
6, 152100, Note_on_c, 1, 79, 68
6, 152159, Note_on_c, 1, 79, 0
6, 152160, Control_c, 1, 11, 115
6, 152160, Note_on_c, 1, 81, 68
6, 152219, Note_on_c, 1, 81, 0
6, 152220, Note_on_c, 1, 82, 68
6, 152220, Control_c, 1, 11, 117
6, 152279, Note_on_c, 1, 82, 0
6, 152280, Control_c, 1, 11, 121
6, 152280, Note_on_c, 1, 84, 68
6, 152339, Note_on_c, 1, 84, 0
6, 152340, Control_c, 1, 11, 124
6, 152340, Note_on_c, 1, 86, 68
6, 152391, Note_on_c, 1, 86, 0
6, 152400, Note_on_c, 1, 87, 68
6, 152639, Note_on_c, 1, 87, 0
6, 153000, Control_c, 1, 11, 127
6, 153180, Note_on_c, 1, 76, 46
6, 153239, Note_on_c, 1, 76, 0
6, 153240, Note_on_c, 1, 77, 48
6, 153299, Note_on_c, 1, 77, 0
6, 153300, Note_on_c, 1, 79, 50
6, 153359, Note_on_c, 1, 79, 0
6, 153360, Note_on_c, 1, 81, 52
6, 153419, Note_on_c, 1, 81, 0
6, 153420, Note_on_c, 1, 82, 54
6, 153471, Note_on_c, 1, 82, 0
6, 153480, Note_on_c, 1, 84, 56
6, 153524, Note_on_c, 1, 84, 0
6, 153540, Note_on_c, 1, 79, 58
6, 153599, Note_on_c, 1, 79, 0
6, 153600, Note_on_c, 1, 81, 60
6, 153659, Note_on_c, 1, 81, 0
6, 153660, Note_on_c, 1, 82, 62
6, 153719, Note_on_c, 1, 82, 0
6, 153720, Note_on_c, 1, 84, 64
6, 153779, Note_on_c, 1, 84, 0
6, 153780, Note_on_c, 1, 86, 66
6, 153831, Note_on_c, 1, 86, 0
6, 153840, Note_on_c, 1, 87, 68
6, 154079, Note_on_c, 1, 87, 0
6, 154620, Note_on_c, 1, 77, 52
6, 154679, Note_on_c, 1, 77, 0
6, 154680, Note_on_c, 1, 81, 60
6, 154739, Note_on_c, 1, 81, 0
6, 154740, Note_on_c, 1, 82, 68
6, 154799, Note_on_c, 1, 82, 0
6, 154800, Note_on_c, 1, 84, 76
6, 154859, Note_on_c, 1, 84, 0
6, 154860, Note_on_c, 1, 86, 84
6, 154911, Note_on_c, 1, 86, 0
6, 154920, Note_on_c, 1, 87, 92
6, 155159, Note_on_c, 1, 87, 0
6, 155280, Note_on_c, 1, 87, 92
6, 155519, Note_on_c, 1, 87, 0
6, 155640, Note_on_c, 1, 87, 80
6, 155879, Note_on_c, 1, 87, 0
6, 156000, Note_on_c, 1, 87, 68
6, 156239, Note_on_c, 1, 87, 0
6, 156360, Note_on_c, 1, 87, 56
6, 156599, Note_on_c, 1, 87, 0
6, 156720, Note_on_c, 1, 87, 44
6, 156959, Note_on_c, 1, 87, 0
6, 157080, Note_on_c, 1, 87, 32
6, 157311, Note_on_c, 1, 87, 0
6, 157320, Note_on_c, 1, 81, 32
6, 157439, Note_on_c, 1, 81, 0
6, 157680, Note_on_c, 1, 82, 36
6, 157799, Note_on_c, 1, 82, 0
6, 158040, Note_on_c, 1, 82, 42
6, 158159, Note_on_c, 1, 82, 0
6, 158400, Note_on_c, 1, 82, 48
6, 158519, Note_on_c, 1, 82, 0
6, 158760, Note_on_c, 1, 84, 54
6, 158879, Note_on_c, 1, 84, 0
6, 159120, Note_on_c, 1, 82, 61
6, 159239, Note_on_c, 1, 82, 0
6, 159480, Note_on_c, 1, 82, 67
6, 159599, Note_on_c, 1, 82, 0
6, 159840, Note_on_c, 1, 82, 73
6, 159959, Note_on_c, 1, 82, 0
6, 160200, Note_on_c, 1, 87, 80
6, 160200, Note_on_c, 1, 84, 80
6, 160319, Note_on_c, 1, 87, 0
6, 160319, Note_on_c, 1, 84, 0
6, 161040, Note_on_c, 1, 82, 44
6, 161040, Note_on_c, 1, 86, 44
6, 161279, Note_on_c, 1, 82, 0
6, 161279, Note_on_c, 1, 86, 0
6, 164400, Control_c, 1, 11, 47
6, 164520, Note_on_c, 1, 87, 80
6, 164631, Note_on_c, 1, 87, 0
6, 164640, Note_on_c, 1, 77, 80
6, 164640, Control_c, 1, 11, 47
6, 164658, Control_c, 1, 11, 48
6, 164676, Control_c, 1, 11, 49
6, 164694, Control_c, 1, 11, 50
6, 164712, Control_c, 1, 11, 51
6, 164730, Control_c, 1, 11, 52
6, 164748, Control_c, 1, 11, 53
6, 164766, Control_c, 1, 11, 54
6, 164784, Control_c, 1, 11, 55
6, 164802, Control_c, 1, 11, 56
6, 164820, Control_c, 1, 11, 57
6, 164838, Control_c, 1, 11, 58
6, 164856, Control_c, 1, 11, 59
6, 164874, Control_c, 1, 11, 60
6, 164892, Control_c, 1, 11, 61
6, 164910, Control_c, 1, 11, 62
6, 164928, Control_c, 1, 11, 63
6, 164946, Control_c, 1, 11, 64
6, 164964, Control_c, 1, 11, 65
6, 164982, Control_c, 1, 11, 66
6, 164999, Note_on_c, 1, 77, 0
6, 165000, Control_c, 1, 11, 67
6, 165000, Note_on_c, 1, 82, 80
6, 165018, Control_c, 1, 11, 68
6, 165036, Control_c, 1, 11, 69
6, 165054, Control_c, 1, 11, 70
6, 165072, Control_c, 1, 11, 71
6, 165090, Control_c, 1, 11, 72
6, 165108, Control_c, 1, 11, 73
6, 165126, Control_c, 1, 11, 74
6, 165144, Control_c, 1, 11, 75
6, 165162, Control_c, 1, 11, 76
6, 165180, Control_c, 1, 11, 77
6, 165198, Control_c, 1, 11, 78
6, 165216, Control_c, 1, 11, 79
6, 165234, Control_c, 1, 11, 80
6, 165252, Control_c, 1, 11, 81
6, 165270, Control_c, 1, 11, 82
6, 165288, Control_c, 1, 11, 83
6, 165306, Control_c, 1, 11, 84
6, 165324, Control_c, 1, 11, 85
6, 165342, Control_c, 1, 11, 86
6, 165359, Note_on_c, 1, 82, 0
6, 165360, Note_on_c, 1, 86, 80
6, 165360, Control_c, 1, 11, 87
6, 165378, Control_c, 1, 11, 88
6, 165396, Control_c, 1, 11, 89
6, 165414, Control_c, 1, 11, 90
6, 165432, Control_c, 1, 11, 91
6, 165450, Control_c, 1, 11, 92
6, 165468, Control_c, 1, 11, 93
6, 165486, Control_c, 1, 11, 94
6, 165504, Control_c, 1, 11, 95
6, 165522, Control_c, 1, 11, 96
6, 165540, Control_c, 1, 11, 97
6, 165558, Control_c, 1, 11, 98
6, 165576, Control_c, 1, 11, 99
6, 165594, Control_c, 1, 11, 100
6, 165612, Control_c, 1, 11, 101
6, 165630, Control_c, 1, 11, 102
6, 165648, Control_c, 1, 11, 103
6, 165666, Control_c, 1, 11, 104
6, 165684, Control_c, 1, 11, 105
6, 165702, Control_c, 1, 11, 106
6, 165719, Note_on_c, 1, 86, 0
6, 165720, Control_c, 1, 11, 107
6, 165720, Note_on_c, 1, 89, 80
6, 165738, Control_c, 1, 11, 108
6, 165756, Control_c, 1, 11, 109
6, 165774, Control_c, 1, 11, 110
6, 165792, Control_c, 1, 11, 111
6, 165810, Control_c, 1, 11, 112
6, 165828, Control_c, 1, 11, 113
6, 165846, Control_c, 1, 11, 114
6, 165864, Control_c, 1, 11, 115
6, 165882, Control_c, 1, 11, 116
6, 165900, Control_c, 1, 11, 117
6, 165918, Control_c, 1, 11, 118
6, 165936, Control_c, 1, 11, 119
6, 165954, Control_c, 1, 11, 120
6, 165972, Control_c, 1, 11, 121
6, 165990, Control_c, 1, 11, 122
6, 166008, Control_c, 1, 11, 123
6, 166026, Control_c, 1, 11, 124
6, 166044, Control_c, 1, 11, 125
6, 166062, Control_c, 1, 11, 126
6, 166071, Note_on_c, 1, 89, 0
6, 166080, Note_on_c, 1, 89, 80
6, 166791, Note_on_c, 1, 89, 0
6, 166800, Note_on_c, 1, 89, 80
6, 166800, Control_c, 1, 11, 127
6, 166815, Control_c, 1, 11, 126
6, 166830, Control_c, 1, 11, 125
6, 166845, Control_c, 1, 11, 123
6, 166860, Control_c, 1, 11, 122
6, 166875, Control_c, 1, 11, 121
6, 166890, Control_c, 1, 11, 120
6, 166905, Control_c, 1, 11, 118
6, 166920, Control_c, 1, 11, 117
6, 166935, Control_c, 1, 11, 116
6, 166950, Control_c, 1, 11, 115
6, 166965, Control_c, 1, 11, 113
6, 166980, Control_c, 1, 11, 112
6, 166995, Control_c, 1, 11, 111
6, 167010, Control_c, 1, 11, 110
6, 167025, Control_c, 1, 11, 108
6, 167040, Control_c, 1, 11, 107
6, 167055, Control_c, 1, 11, 106
6, 167070, Control_c, 1, 11, 105
6, 167085, Control_c, 1, 11, 103
6, 167100, Control_c, 1, 11, 102
6, 167115, Control_c, 1, 11, 101
6, 167130, Control_c, 1, 11, 100
6, 167145, Control_c, 1, 11, 98
6, 167160, Control_c, 1, 11, 97
6, 167175, Control_c, 1, 11, 96
6, 167190, Control_c, 1, 11, 95
6, 167205, Control_c, 1, 11, 93
6, 167220, Control_c, 1, 11, 92
6, 167235, Control_c, 1, 11, 91
6, 167250, Control_c, 1, 11, 90
6, 167265, Control_c, 1, 11, 88
6, 167280, Control_c, 1, 11, 87
6, 167295, Control_c, 1, 11, 86
6, 167310, Control_c, 1, 11, 85
6, 167325, Control_c, 1, 11, 83
6, 167340, Control_c, 1, 11, 82
6, 167355, Control_c, 1, 11, 81
6, 167370, Control_c, 1, 11, 80
6, 167385, Control_c, 1, 11, 78
6, 167399, Note_on_c, 1, 89, 0
6, 167400, Control_c, 1, 11, 77
6, 167400, Note_on_c, 1, 87, 80
6, 167415, Control_c, 1, 11, 76
6, 167430, Control_c, 1, 11, 75
6, 167445, Control_c, 1, 11, 73
6, 167460, Control_c, 1, 11, 72
6, 167475, Control_c, 1, 11, 71
6, 167490, Control_c, 1, 11, 70
6, 167511, Note_on_c, 1, 87, 0
6, 167518, Control_c, 1, 11, 89
6, 167520, Note_on_c, 1, 87, 68
6, 167879, Note_on_c, 1, 87, 0
6, 167880, Note_on_c, 1, 89, 68
6, 168239, Note_on_c, 1, 89, 0
6, 168240, Note_on_c, 1, 86, 68
6, 168471, Note_on_c, 1, 86, 0
6, 168472, Control_c, 1, 11, 109
6, 168480, Note_on_c, 1, 77, 56
6, 168659, Note_on_c, 1, 77, 0
6, 168660, Note_on_c, 1, 79, 56
6, 168719, Note_on_c, 1, 79, 0
6, 168720, Note_on_c, 1, 81, 56
6, 168779, Note_on_c, 1, 81, 0
6, 168780, Note_on_c, 1, 82, 56
6, 168839, Note_on_c, 1, 82, 0
6, 168840, Note_on_c, 1, 84, 56
6, 168899, Note_on_c, 1, 84, 0
6, 168900, Note_on_c, 1, 86, 56
6, 168951, Note_on_c, 1, 86, 0
6, 168960, Note_on_c, 1, 87, 56
6, 169311, Note_on_c, 1, 87, 0
6, 169318, Control_c, 1, 11, 127
6, 169320, Note_on_c, 1, 89, 80
6, 169559, Note_on_c, 1, 89, 0
6, 169680, Note_on_c, 1, 86, 32
6, 169784, Note_on_c, 1, 86, 0
6, 169800, Note_on_c, 1, 86, 32
6, 169904, Note_on_c, 1, 86, 0
6, 169920, Note_on_c, 1, 86, 32
6, 170009, Note_on_c, 1, 86, 0
6, 170040, Note_on_c, 1, 86, 32
6, 170279, Note_on_c, 1, 86, 0
6, 170279, End_track
7, 0, Start_track
7, 0, Title_t, "Oboe"
7, 0, MIDI_port, 0
7, 0, Program_c, 2, 68
7, 0, Control_c, 2, 121, 0
7, 0, Control_c, 2, 7, 80
7, 0, Control_c, 2, 10, 70
7, 0, Control_c, 2, 11, 89
7, 25800, Note_on_c, 2, 81, 68
7, 25800, Control_c, 2, 11, 89
7, 25930, Control_c, 2, 11, 92
7, 26060, Control_c, 2, 11, 95
7, 26159, Note_on_c, 2, 81, 0
7, 26160, Note_on_c, 2, 79, 68
7, 26190, Control_c, 2, 11, 99
7, 26279, Note_on_c, 2, 79, 0
7, 26320, Control_c, 2, 11, 101
7, 26450, Control_c, 2, 11, 105
7, 26520, Note_on_c, 2, 79, 68
7, 26580, Control_c, 2, 11, 109
7, 26710, Control_c, 2, 11, 111
7, 26759, Note_on_c, 2, 79, 0
7, 26760, Note_on_c, 2, 78, 68
7, 26840, Control_c, 2, 11, 115
7, 26970, Control_c, 2, 11, 117
7, 26991, Note_on_c, 2, 78, 0
7, 27000, Note_on_c, 2, 78, 68
7, 27100, Control_c, 2, 11, 121
7, 27179, Note_on_c, 2, 78, 0
7, 27180, Note_on_c, 2, 79, 68
7, 27230, Control_c, 2, 11, 124
7, 27239, Note_on_c, 2, 79, 0
7, 27240, Note_on_c, 2, 81, 68
7, 27295, Note_on_c, 2, 81, 0
7, 27300, Note_on_c, 2, 78, 68
7, 27351, Note_on_c, 2, 78, 0
7, 27360, Control_c, 2, 11, 127
7, 27360, Note_on_c, 2, 81, 68
7, 27479, Note_on_c, 2, 81, 0
7, 27480, Note_on_c, 2, 79, 68
7, 27711, Note_on_c, 2, 79, 0
7, 27720, Note_on_c, 2, 83, 68
7, 27779, Note_on_c, 2, 83, 0
7, 27780, Note_on_c, 2, 79, 68
7, 27839, Note_on_c, 2, 79, 0
7, 27840, Control_c, 2, 11, 127
7, 27840, Note_on_c, 2, 78, 68
7, 27860, Control_c, 2, 11, 124
7, 27880, Control_c, 2, 11, 121
7, 27899, Note_on_c, 2, 78, 0
7, 27900, Note_on_c, 2, 76, 68
7, 27900, Control_c, 2, 11, 117
7, 27920, Control_c, 2, 11, 115
7, 27940, Control_c, 2, 11, 111
7, 27959, Note_on_c, 2, 76, 0
7, 27960, Control_c, 2, 11, 109
7, 27960, Note_on_c, 2, 74, 68
7, 27980, Control_c, 2, 11, 105
7, 28000, Control_c, 2, 11, 101
7, 28019, Note_on_c, 2, 74, 0
7, 28020, Note_on_c, 2, 73, 68
7, 28020, Control_c, 2, 11, 99
7, 28040, Control_c, 2, 11, 95
7, 28060, Control_c, 2, 11, 92
7, 28071, Note_on_c, 2, 73, 0
7, 28080, Note_on_c, 2, 76, 68
7, 28080, Control_c, 2, 11, 89
7, 28140, Control_c, 2, 11, 87
7, 28200, Control_c, 2, 11, 85
7, 28260, Control_c, 2, 11, 84
7, 28320, Control_c, 2, 11, 82
7, 28380, Control_c, 2, 11, 80
7, 28439, Note_on_c, 2, 76, 0
7, 28440, Note_on_c, 2, 67, 68
7, 28440, Control_c, 2, 11, 79
7, 28500, Control_c, 2, 11, 77
7, 28559, Note_on_c, 2, 67, 0
7, 28560, Note_on_c, 2, 66, 68
7, 28560, Control_c, 2, 11, 75
7, 28620, Control_c, 2, 11, 74
7, 28679, Note_on_c, 2, 66, 0
7, 28680, Control_c, 2, 11, 72
7, 28680, Note_on_c, 2, 78, 68
7, 28740, Control_c, 2, 11, 70
7, 28800, Control_c, 2, 11, 89
7, 28919, Note_on_c, 2, 78, 0
7, 28920, Note_on_c, 2, 76, 68
7, 29151, Note_on_c, 2, 76, 0
7, 29160, Note_on_c, 2, 76, 68
7, 29280, Control_c, 2, 11, 89
7, 29339, Note_on_c, 2, 76, 0
7, 29340, Note_on_c, 2, 78, 68
7, 29399, Note_on_c, 2, 78, 0
7, 29400, Note_on_c, 2, 79, 68
7, 29420, Control_c, 2, 11, 92
7, 29459, Note_on_c, 2, 79, 0
7, 29460, Note_on_c, 2, 76, 68
7, 29511, Note_on_c, 2, 76, 0
7, 29520, Note_on_c, 2, 79, 68
7, 29560, Control_c, 2, 11, 95
7, 29639, Note_on_c, 2, 79, 0
7, 29640, Note_on_c, 2, 78, 68
7, 29700, Control_c, 2, 11, 99
7, 29840, Control_c, 2, 11, 101
7, 29871, Note_on_c, 2, 78, 0
7, 29880, Note_on_c, 2, 78, 68
7, 29980, Control_c, 2, 11, 105
7, 30059, Note_on_c, 2, 78, 0
7, 30060, Note_on_c, 2, 79, 68
7, 30119, Note_on_c, 2, 79, 0
7, 30120, Control_c, 2, 11, 109
7, 30120, Note_on_c, 2, 81, 68
7, 30179, Note_on_c, 2, 81, 0
7, 30180, Note_on_c, 2, 78, 68
7, 30231, Note_on_c, 2, 78, 0
7, 30240, Note_on_c, 2, 81, 68
7, 30260, Control_c, 2, 11, 111
7, 30359, Note_on_c, 2, 81, 0
7, 30360, Note_on_c, 2, 79, 68
7, 30400, Control_c, 2, 11, 115
7, 30540, Control_c, 2, 11, 117
7, 30591, Note_on_c, 2, 79, 0
7, 30600, Note_on_c, 2, 79, 68
7, 30680, Control_c, 2, 11, 121
7, 30704, Note_on_c, 2, 79, 0
7, 30720, Note_on_c, 2, 79, 68
7, 30820, Control_c, 2, 11, 124
7, 30824, Note_on_c, 2, 79, 0
7, 30840, Note_on_c, 2, 79, 68
7, 30929, Note_on_c, 2, 79, 0
7, 30960, Note_on_c, 2, 79, 68
7, 31079, Note_on_c, 2, 79, 0
7, 31080, Note_on_c, 2, 78, 68
7, 31319, Note_on_c, 2, 78, 0
7, 31680, Control_c, 2, 11, 89
7, 31800, Control_c, 2, 11, 92
7, 31800, Note_on_c, 2, 76, 68
7, 31920, Control_c, 2, 11, 95
7, 32039, Note_on_c, 2, 76, 0
7, 32040, Note_on_c, 2, 76, 68
7, 32040, Control_c, 2, 11, 99
7, 32160, Control_c, 2, 11, 101
7, 32219, Note_on_c, 2, 76, 0
7, 32220, Note_on_c, 2, 78, 68
7, 32279, Note_on_c, 2, 78, 0
7, 32280, Note_on_c, 2, 79, 68
7, 32280, Control_c, 2, 11, 105
7, 32339, Note_on_c, 2, 79, 0
7, 32340, Note_on_c, 2, 76, 68
7, 32391, Note_on_c, 2, 76, 0
7, 32400, Note_on_c, 2, 79, 68
7, 32400, Control_c, 2, 11, 109
7, 32519, Note_on_c, 2, 79, 0
7, 32520, Note_on_c, 2, 78, 68
7, 32520, Control_c, 2, 11, 111
7, 32640, Control_c, 2, 11, 115
7, 32751, Note_on_c, 2, 78, 0
7, 32760, Control_c, 2, 11, 117
7, 32760, Note_on_c, 2, 78, 68
7, 32880, Control_c, 2, 11, 121
7, 32939, Note_on_c, 2, 78, 0
7, 32940, Note_on_c, 2, 79, 68
7, 32999, Note_on_c, 2, 79, 0
7, 33000, Note_on_c, 2, 81, 68
7, 33000, Control_c, 2, 11, 124
7, 33059, Note_on_c, 2, 81, 0
7, 33060, Note_on_c, 2, 78, 68
7, 33111, Note_on_c, 2, 78, 0
7, 33120, Note_on_c, 2, 81, 68
7, 33239, Note_on_c, 2, 81, 0
7, 33240, Note_on_c, 2, 79, 68
7, 33471, Note_on_c, 2, 79, 0
7, 33480, Note_on_c, 2, 83, 68
7, 33480, Control_c, 2, 11, 127
7, 33510, Control_c, 2, 11, 124
7, 33539, Note_on_c, 2, 83, 0
7, 33540, Control_c, 2, 11, 121
7, 33540, Note_on_c, 2, 79, 68
7, 33570, Control_c, 2, 11, 117
7, 33599, Note_on_c, 2, 79, 0
7, 33600, Control_c, 2, 11, 115
7, 33600, Note_on_c, 2, 78, 68
7, 33630, Control_c, 2, 11, 111
7, 33659, Note_on_c, 2, 78, 0
7, 33660, Control_c, 2, 11, 109
7, 33660, Note_on_c, 2, 76, 68
7, 33690, Control_c, 2, 11, 105
7, 33719, Note_on_c, 2, 76, 0
7, 33720, Control_c, 2, 11, 101
7, 33720, Note_on_c, 2, 74, 68
7, 33750, Control_c, 2, 11, 99
7, 33779, Note_on_c, 2, 74, 0
7, 33780, Control_c, 2, 11, 95
7, 33780, Note_on_c, 2, 73, 68
7, 33810, Control_c, 2, 11, 92
7, 33831, Note_on_c, 2, 73, 0
7, 33840, Control_c, 2, 11, 89
7, 33840, Note_on_c, 2, 76, 68
7, 33960, Control_c, 2, 11, 87
7, 34080, Control_c, 2, 11, 85
7, 34199, Note_on_c, 2, 76, 0
7, 34200, Note_on_c, 2, 67, 68
7, 34200, Control_c, 2, 11, 84
7, 34311, Note_on_c, 2, 67, 0
7, 34320, Note_on_c, 2, 66, 68
7, 34320, Control_c, 2, 11, 82
7, 34440, Control_c, 2, 11, 80
7, 34551, Note_on_c, 2, 66, 0
7, 34560, Control_c, 2, 11, 79
7, 34680, Control_c, 2, 11, 77
7, 34800, Note_on_c, 2, 79, 68
7, 34800, Control_c, 2, 11, 75
7, 34919, Note_on_c, 2, 79, 0
7, 34920, Note_on_c, 2, 76, 68
7, 34920, Control_c, 2, 11, 74
7, 35039, Note_on_c, 2, 76, 0
7, 35040, Note_on_c, 2, 74, 68
7, 35040, Control_c, 2, 11, 72
7, 35160, Control_c, 2, 11, 70
7, 35759, Note_on_c, 2, 74, 0
7, 35760, Note_on_c, 2, 72, 68
7, 35991, Note_on_c, 2, 72, 0
7, 36000, Note_on_c, 2, 70, 68
7, 36239, Note_on_c, 2, 70, 0
7, 57240, Control_c, 2, 11, 89
7, 57240, Note_on_c, 2, 69, 56
7, 57410, Control_c, 2, 11, 92
7, 57471, Note_on_c, 2, 69, 0
7, 57480, Note_on_c, 2, 69, 56
7, 57580, Control_c, 2, 11, 95
7, 57659, Note_on_c, 2, 69, 0
7, 57660, Note_on_c, 2, 71, 56
7, 57719, Note_on_c, 2, 71, 0
7, 57720, Note_on_c, 2, 72, 56
7, 57750, Control_c, 2, 11, 99
7, 57779, Note_on_c, 2, 72, 0
7, 57780, Note_on_c, 2, 69, 56
7, 57831, Note_on_c, 2, 69, 0
7, 57840, Note_on_c, 2, 72, 56
7, 57920, Control_c, 2, 11, 101
7, 57959, Note_on_c, 2, 72, 0
7, 57960, Note_on_c, 2, 71, 56
7, 58090, Control_c, 2, 11, 105
7, 58191, Note_on_c, 2, 71, 0
7, 58200, Note_on_c, 2, 71, 56
7, 58260, Control_c, 2, 11, 109
7, 58379, Note_on_c, 2, 71, 0
7, 58380, Note_on_c, 2, 72, 56
7, 58430, Control_c, 2, 11, 111
7, 58439, Note_on_c, 2, 72, 0
7, 58440, Note_on_c, 2, 74, 56
7, 58499, Note_on_c, 2, 74, 0
7, 58500, Note_on_c, 2, 71, 56
7, 58551, Note_on_c, 2, 71, 0
7, 58560, Note_on_c, 2, 74, 56
7, 58600, Control_c, 2, 11, 115
7, 58679, Note_on_c, 2, 74, 0
7, 58680, Note_on_c, 2, 72, 56
7, 58770, Control_c, 2, 11, 117
7, 58911, Note_on_c, 2, 72, 0
7, 58920, Note_on_c, 2, 74, 56
7, 58940, Control_c, 2, 11, 121
7, 59024, Note_on_c, 2, 74, 0
7, 59040, Note_on_c, 2, 76, 56
7, 59110, Control_c, 2, 11, 124
7, 59144, Note_on_c, 2, 76, 0
7, 59160, Note_on_c, 2, 78, 56
7, 59249, Note_on_c, 2, 78, 0
7, 59280, Note_on_c, 2, 81, 56
7, 59280, Control_c, 2, 11, 127
7, 59399, Note_on_c, 2, 81, 0
7, 59400, Note_on_c, 2, 79, 56
7, 59631, Note_on_c, 2, 79, 0
7, 59640, Control_c, 2, 11, 127
7, 59640, Note_on_c, 2, 79, 56
7, 59670, Control_c, 2, 11, 124
7, 59699, Note_on_c, 2, 79, 0
7, 59700, Control_c, 2, 11, 121
7, 59700, Note_on_c, 2, 78, 56
7, 59730, Control_c, 2, 11, 117
7, 59759, Note_on_c, 2, 78, 0
7, 59760, Note_on_c, 2, 76, 56
7, 59760, Control_c, 2, 11, 115
7, 59790, Control_c, 2, 11, 111
7, 59819, Note_on_c, 2, 76, 0
7, 59820, Note_on_c, 2, 74, 56
7, 59820, Control_c, 2, 11, 109
7, 59850, Control_c, 2, 11, 105
7, 59879, Note_on_c, 2, 74, 0
7, 59880, Control_c, 2, 11, 101
7, 59880, Note_on_c, 2, 72, 56
7, 59910, Control_c, 2, 11, 99
7, 59939, Note_on_c, 2, 72, 0
7, 59940, Note_on_c, 2, 71, 56
7, 59940, Control_c, 2, 11, 95
7, 59970, Control_c, 2, 11, 92
7, 59991, Note_on_c, 2, 71, 0
7, 60000, Control_c, 2, 11, 89
7, 60000, Note_on_c, 2, 71, 56
7, 60119, Note_on_c, 2, 71, 0
7, 60120, Control_c, 2, 11, 89
7, 60120, Note_on_c, 2, 69, 56
7, 60230, Control_c, 2, 11, 92
7, 60340, Control_c, 2, 11, 95
7, 60351, Note_on_c, 2, 69, 0
7, 60360, Note_on_c, 2, 69, 56
7, 60450, Control_c, 2, 11, 99
7, 60539, Note_on_c, 2, 69, 0
7, 60540, Note_on_c, 2, 71, 56
7, 60560, Control_c, 2, 11, 101
7, 60599, Note_on_c, 2, 71, 0
7, 60600, Note_on_c, 2, 72, 56
7, 60659, Note_on_c, 2, 72, 0
7, 60660, Note_on_c, 2, 69, 56
7, 60670, Control_c, 2, 11, 105
7, 60711, Note_on_c, 2, 69, 0
7, 60720, Note_on_c, 2, 72, 56
7, 60780, Control_c, 2, 11, 109
7, 60839, Note_on_c, 2, 72, 0
7, 60840, Note_on_c, 2, 71, 56
7, 60890, Control_c, 2, 11, 111
7, 61000, Control_c, 2, 11, 115
7, 61071, Note_on_c, 2, 71, 0
7, 61080, Note_on_c, 2, 71, 56
7, 61110, Control_c, 2, 11, 117
7, 61220, Control_c, 2, 11, 121
7, 61259, Note_on_c, 2, 71, 0
7, 61260, Note_on_c, 2, 72, 56
7, 61319, Note_on_c, 2, 72, 0
7, 61320, Note_on_c, 2, 74, 56
7, 61330, Control_c, 2, 11, 124
7, 61379, Note_on_c, 2, 74, 0
7, 61380, Note_on_c, 2, 71, 56
7, 61431, Note_on_c, 2, 71, 0
7, 61440, Control_c, 2, 11, 127
7, 61440, Note_on_c, 2, 74, 56
7, 61559, Note_on_c, 2, 74, 0
7, 61560, Note_on_c, 2, 72, 56
7, 61791, Note_on_c, 2, 72, 0
7, 61800, Note_on_c, 2, 72, 56
7, 61800, Control_c, 2, 11, 127
7, 61800, Note_on_c, 2, 76, 56
7, 61830, Control_c, 2, 11, 124
7, 61859, Note_on_c, 2, 72, 0
7, 61859, Note_on_c, 2, 76, 0
7, 61860, Control_c, 2, 11, 121
7, 61860, Note_on_c, 2, 76, 56
7, 61860, Note_on_c, 2, 84, 56
7, 61890, Control_c, 2, 11, 117
7, 61919, Note_on_c, 2, 76, 0
7, 61919, Note_on_c, 2, 84, 0
7, 61920, Control_c, 2, 11, 115
7, 61920, Note_on_c, 2, 74, 56
7, 61920, Note_on_c, 2, 83, 56
7, 61950, Control_c, 2, 11, 111
7, 61979, Note_on_c, 2, 74, 0
7, 61979, Note_on_c, 2, 83, 0
7, 61980, Note_on_c, 2, 81, 56
7, 61980, Note_on_c, 2, 72, 56
7, 61980, Control_c, 2, 11, 109
7, 62010, Control_c, 2, 11, 105
7, 62039, Note_on_c, 2, 81, 0
7, 62039, Note_on_c, 2, 72, 0
7, 62040, Control_c, 2, 11, 101
7, 62040, Note_on_c, 2, 79, 56
7, 62040, Note_on_c, 2, 71, 56
7, 62070, Control_c, 2, 11, 99
7, 62099, Note_on_c, 2, 79, 0
7, 62099, Note_on_c, 2, 71, 0
7, 62100, Note_on_c, 2, 69, 56
7, 62100, Note_on_c, 2, 78, 56
7, 62100, Control_c, 2, 11, 95
7, 62130, Control_c, 2, 11, 92
7, 62151, Note_on_c, 2, 69, 0
7, 62151, Note_on_c, 2, 78, 0
7, 62160, Control_c, 2, 11, 89
7, 62160, Note_on_c, 2, 72, 56
7, 62160, Note_on_c, 2, 81, 56
7, 62250, Control_c, 2, 11, 87
7, 62340, Control_c, 2, 11, 86
7, 62430, Control_c, 2, 11, 85
7, 62519, Note_on_c, 2, 72, 0
7, 62519, Note_on_c, 2, 81, 0
7, 62520, Control_c, 2, 11, 84
7, 62520, Note_on_c, 2, 69, 56
7, 62520, Note_on_c, 2, 72, 56
7, 62610, Control_c, 2, 11, 82
7, 62631, Note_on_c, 2, 69, 0
7, 62631, Note_on_c, 2, 72, 0
7, 62640, Note_on_c, 2, 71, 56
7, 62640, Note_on_c, 2, 67, 56
7, 62700, Control_c, 2, 11, 81
7, 62759, Note_on_c, 2, 71, 0
7, 62760, Note_on_c, 2, 79, 56
7, 62790, Control_c, 2, 11, 80
7, 62871, Note_on_c, 2, 67, 0
7, 62999, Note_on_c, 2, 79, 0
7, 63000, Control_c, 2, 11, 79
7, 63000, Note_on_c, 2, 78, 56
7, 63170, Control_c, 2, 11, 82
7, 63231, Note_on_c, 2, 78, 0
7, 63240, Note_on_c, 2, 78, 56
7, 63340, Control_c, 2, 11, 87
7, 63419, Note_on_c, 2, 78, 0
7, 63420, Note_on_c, 2, 79, 56
7, 63479, Note_on_c, 2, 79, 0
7, 63480, Note_on_c, 2, 81, 56
7, 63510, Control_c, 2, 11, 91
7, 63539, Note_on_c, 2, 81, 0
7, 63540, Note_on_c, 2, 78, 56
7, 63591, Note_on_c, 2, 78, 0
7, 63600, Note_on_c, 2, 81, 56
7, 63680, Control_c, 2, 11, 95
7, 63719, Note_on_c, 2, 81, 0
7, 63720, Note_on_c, 2, 79, 56
7, 63850, Control_c, 2, 11, 99
7, 63951, Note_on_c, 2, 79, 0
7, 63960, Note_on_c, 2, 79, 56
7, 64020, Control_c, 2, 11, 104
7, 64139, Note_on_c, 2, 79, 0
7, 64140, Note_on_c, 2, 81, 56
7, 64190, Control_c, 2, 11, 107
7, 64199, Note_on_c, 2, 81, 0
7, 64200, Note_on_c, 2, 83, 56
7, 64259, Note_on_c, 2, 83, 0
7, 64260, Note_on_c, 2, 79, 56
7, 64311, Note_on_c, 2, 79, 0
7, 64320, Note_on_c, 2, 83, 56
7, 64360, Control_c, 2, 11, 111
7, 64439, Note_on_c, 2, 83, 0
7, 64440, Note_on_c, 2, 81, 56
7, 64530, Control_c, 2, 11, 115
7, 64671, Note_on_c, 2, 81, 0
7, 64680, Note_on_c, 2, 74, 56
7, 64700, Control_c, 2, 11, 120
7, 64784, Note_on_c, 2, 74, 0
7, 64800, Note_on_c, 2, 76, 56
7, 64870, Control_c, 2, 11, 124
7, 64904, Note_on_c, 2, 76, 0
7, 64920, Note_on_c, 2, 78, 56
7, 65009, Note_on_c, 2, 78, 0
7, 65040, Note_on_c, 2, 81, 56
7, 65159, Note_on_c, 2, 81, 0
7, 65160, Note_on_c, 2, 79, 56
7, 65391, Note_on_c, 2, 79, 0
7, 65400, Control_c, 2, 11, 127
7, 65400, Note_on_c, 2, 79, 56
7, 65430, Control_c, 2, 11, 124
7, 65459, Note_on_c, 2, 79, 0
7, 65460, Control_c, 2, 11, 121
7, 65460, Note_on_c, 2, 78, 56
7, 65490, Control_c, 2, 11, 117
7, 65519, Note_on_c, 2, 78, 0
7, 65520, Note_on_c, 2, 76, 56
7, 65520, Control_c, 2, 11, 115
7, 65550, Control_c, 2, 11, 111
7, 65579, Note_on_c, 2, 76, 0
7, 65580, Note_on_c, 2, 74, 56
7, 65580, Control_c, 2, 11, 109
7, 65610, Control_c, 2, 11, 105
7, 65639, Note_on_c, 2, 74, 0
7, 65640, Note_on_c, 2, 72, 56
7, 65640, Control_c, 2, 11, 101
7, 65670, Control_c, 2, 11, 99
7, 65699, Note_on_c, 2, 72, 0
7, 65700, Control_c, 2, 11, 95
7, 65700, Note_on_c, 2, 71, 56
7, 65730, Control_c, 2, 11, 92
7, 65751, Note_on_c, 2, 71, 0
7, 65758, Control_c, 2, 11, 69
7, 65760, Note_on_c, 2, 79, 68
7, 65879, Note_on_c, 2, 79, 0
7, 65880, Control_c, 2, 11, 69
7, 65880, Note_on_c, 2, 78, 68
7, 65990, Control_c, 2, 11, 74
7, 66100, Control_c, 2, 11, 79
7, 66111, Note_on_c, 2, 78, 0
7, 66120, Note_on_c, 2, 78, 68
7, 66210, Control_c, 2, 11, 84
7, 66299, Note_on_c, 2, 78, 0
7, 66300, Note_on_c, 2, 79, 68
7, 66320, Control_c, 2, 11, 89
7, 66359, Note_on_c, 2, 79, 0
7, 66360, Note_on_c, 2, 81, 68
7, 66419, Note_on_c, 2, 81, 0
7, 66420, Note_on_c, 2, 78, 68
7, 66430, Control_c, 2, 11, 94
7, 66471, Note_on_c, 2, 78, 0
7, 66480, Note_on_c, 2, 81, 68
7, 66540, Control_c, 2, 11, 99
7, 66599, Note_on_c, 2, 81, 0
7, 66600, Note_on_c, 2, 79, 68
7, 66650, Control_c, 2, 11, 102
7, 66760, Control_c, 2, 11, 107
7, 66831, Note_on_c, 2, 79, 0
7, 66840, Note_on_c, 2, 79, 68
7, 66870, Control_c, 2, 11, 112
7, 66980, Control_c, 2, 11, 117
7, 67019, Note_on_c, 2, 79, 0
7, 67020, Note_on_c, 2, 81, 68
7, 67079, Note_on_c, 2, 81, 0
7, 67080, Note_on_c, 2, 83, 68
7, 67090, Control_c, 2, 11, 122
7, 67139, Note_on_c, 2, 83, 0
7, 67140, Note_on_c, 2, 79, 68
7, 67191, Note_on_c, 2, 79, 0
7, 67200, Control_c, 2, 11, 127
7, 67200, Note_on_c, 2, 83, 68
7, 67319, Note_on_c, 2, 83, 0
7, 67320, Note_on_c, 2, 81, 68
7, 67551, Note_on_c, 2, 81, 0
7, 67560, Note_on_c, 2, 84, 68
7, 67560, Control_c, 2, 11, 127
7, 67590, Control_c, 2, 11, 124
7, 67619, Note_on_c, 2, 84, 0
7, 67620, Control_c, 2, 11, 121
7, 67620, Note_on_c, 2, 76, 68
7, 67650, Control_c, 2, 11, 117
7, 67679, Note_on_c, 2, 76, 0
7, 67680, Note_on_c, 2, 74, 68
7, 67680, Control_c, 2, 11, 115
7, 67710, Control_c, 2, 11, 111
7, 67739, Note_on_c, 2, 74, 0
7, 67740, Control_c, 2, 11, 109
7, 67740, Note_on_c, 2, 72, 68
7, 67770, Control_c, 2, 11, 105
7, 67799, Note_on_c, 2, 72, 0
7, 67800, Control_c, 2, 11, 101
7, 67800, Note_on_c, 2, 71, 68
7, 67830, Control_c, 2, 11, 99
7, 67859, Note_on_c, 2, 71, 0
7, 67860, Control_c, 2, 11, 95
7, 67860, Note_on_c, 2, 69, 68
7, 67890, Control_c, 2, 11, 92
7, 67911, Note_on_c, 2, 69, 0
7, 67920, Note_on_c, 2, 72, 68
7, 67920, Control_c, 2, 11, 89
7, 67920, Note_on_c, 2, 81, 68
7, 68040, Control_c, 2, 11, 87
7, 68160, Control_c, 2, 11, 85
7, 68279, Note_on_c, 2, 72, 0
7, 68279, Note_on_c, 2, 81, 0
7, 68280, Note_on_c, 2, 69, 68
7, 68280, Note_on_c, 2, 72, 68
7, 68280, Control_c, 2, 11, 84
7, 68391, Note_on_c, 2, 69, 0
7, 68391, Note_on_c, 2, 72, 0
7, 68400, Note_on_c, 2, 71, 68
7, 68400, Control_c, 2, 11, 82
7, 68400, Note_on_c, 2, 67, 68
7, 68520, Control_c, 2, 11, 80
7, 68639, Note_on_c, 2, 71, 0
7, 68639, Note_on_c, 2, 67, 0
7, 68640, Control_c, 2, 11, 79
7, 68760, Control_c, 2, 11, 77
7, 68880, Note_on_c, 2, 81, 68
7, 68880, Note_on_c, 2, 72, 68
7, 68880, Control_c, 2, 11, 75
7, 68999, Note_on_c, 2, 81, 0
7, 68999, Note_on_c, 2, 72, 0
7, 69000, Control_c, 2, 11, 74
7, 69000, Note_on_c, 2, 84, 68
7, 69000, Note_on_c, 2, 81, 68
7, 69119, Note_on_c, 2, 84, 0
7, 69119, Note_on_c, 2, 81, 0
7, 69120, Note_on_c, 2, 79, 68
7, 69120, Control_c, 2, 11, 72
7, 69120, Note_on_c, 2, 82, 68
7, 69240, Control_c, 2, 11, 69
7, 69839, Note_on_c, 2, 79, 0
7, 69839, Note_on_c, 2, 82, 0
7, 69840, Note_on_c, 2, 77, 68
7, 69840, Note_on_c, 2, 80, 68
7, 69959, Note_on_c, 2, 77, 0
7, 69959, Note_on_c, 2, 80, 0
7, 85440, Control_c, 2, 11, 79
7, 85440, Note_on_c, 2, 74, 68
7, 86159, Note_on_c, 2, 74, 0
7, 86160, Note_on_c, 2, 69, 68
7, 86879, Note_on_c, 2, 69, 0
7, 86880, Note_on_c, 2, 70, 68
7, 87240, Note_on_c, 2, 65, 68
7, 87599, Note_on_c, 2, 70, 0
7, 87600, Note_on_c, 2, 77, 68
7, 88199, Note_on_c, 2, 65, 0
7, 88199, Note_on_c, 2, 77, 0
7, 88200, Note_on_c, 2, 75, 68
7, 88200, Note_on_c, 2, 63, 68
7, 88311, Note_on_c, 2, 75, 0
7, 88311, Note_on_c, 2, 63, 0
7, 88318, Control_c, 2, 11, 89
7, 88320, Note_on_c, 2, 62, 68
7, 88320, Control_c, 2, 11, 89
7, 88320, Note_on_c, 2, 74, 68
7, 88339, Control_c, 2, 11, 90
7, 88358, Control_c, 2, 11, 91
7, 88377, Control_c, 2, 11, 92
7, 88396, Control_c, 2, 11, 93
7, 88415, Control_c, 2, 11, 94
7, 88434, Control_c, 2, 11, 95
7, 88453, Control_c, 2, 11, 96
7, 88472, Control_c, 2, 11, 97
7, 88491, Control_c, 2, 11, 98
7, 88509, Control_c, 2, 11, 99
7, 88528, Control_c, 2, 11, 100
7, 88547, Control_c, 2, 11, 101
7, 88566, Control_c, 2, 11, 102
7, 88585, Control_c, 2, 11, 103
7, 88604, Control_c, 2, 11, 104
7, 88623, Control_c, 2, 11, 105
7, 88642, Control_c, 2, 11, 106
7, 88661, Control_c, 2, 11, 107
7, 88679, Note_on_c, 2, 62, 0
7, 88679, Note_on_c, 2, 74, 0
7, 88680, Note_on_c, 2, 77, 68
7, 88680, Control_c, 2, 11, 108
7, 88680, Note_on_c, 2, 65, 68
7, 88699, Control_c, 2, 11, 109
7, 88718, Control_c, 2, 11, 110
7, 88737, Control_c, 2, 11, 111
7, 88756, Control_c, 2, 11, 112
7, 88775, Control_c, 2, 11, 113
7, 88794, Control_c, 2, 11, 114
7, 88813, Control_c, 2, 11, 115
7, 88832, Control_c, 2, 11, 116
7, 88851, Control_c, 2, 11, 117
7, 88869, Control_c, 2, 11, 118
7, 88888, Control_c, 2, 11, 119
7, 88907, Control_c, 2, 11, 120
7, 88926, Control_c, 2, 11, 121
7, 88945, Control_c, 2, 11, 122
7, 88964, Control_c, 2, 11, 123
7, 88983, Control_c, 2, 11, 124
7, 89002, Control_c, 2, 11, 125
7, 89021, Control_c, 2, 11, 126
7, 89039, Note_on_c, 2, 77, 0
7, 89039, Note_on_c, 2, 65, 0
7, 89040, Note_on_c, 2, 70, 68
7, 89040, Control_c, 2, 11, 127
7, 89058, Control_c, 2, 11, 126
7, 89076, Control_c, 2, 11, 125
7, 89094, Control_c, 2, 11, 124
7, 89112, Control_c, 2, 11, 123
7, 89130, Control_c, 2, 11, 122
7, 89148, Control_c, 2, 11, 121
7, 89166, Control_c, 2, 11, 120
7, 89184, Control_c, 2, 11, 119
7, 89202, Control_c, 2, 11, 118
7, 89220, Control_c, 2, 11, 117
7, 89238, Control_c, 2, 11, 116
7, 89256, Control_c, 2, 11, 115
7, 89274, Control_c, 2, 11, 114
7, 89292, Control_c, 2, 11, 113
7, 89310, Control_c, 2, 11, 112
7, 89328, Control_c, 2, 11, 111
7, 89346, Control_c, 2, 11, 110
7, 89364, Control_c, 2, 11, 109
7, 89382, Control_c, 2, 11, 108
7, 89400, Control_c, 2, 11, 107
7, 89418, Control_c, 2, 11, 106
7, 89436, Control_c, 2, 11, 105
7, 89454, Control_c, 2, 11, 104
7, 89472, Control_c, 2, 11, 103
7, 89490, Control_c, 2, 11, 102
7, 89508, Control_c, 2, 11, 101
7, 89526, Control_c, 2, 11, 100
7, 89544, Control_c, 2, 11, 99
7, 89562, Control_c, 2, 11, 98
7, 89580, Control_c, 2, 11, 97
7, 89598, Control_c, 2, 11, 96
7, 89616, Control_c, 2, 11, 95
7, 89634, Control_c, 2, 11, 94
7, 89639, Note_on_c, 2, 70, 0
7, 89640, Note_on_c, 2, 72, 68
7, 89652, Control_c, 2, 11, 93
7, 89670, Control_c, 2, 11, 92
7, 89688, Control_c, 2, 11, 91
7, 89706, Control_c, 2, 11, 90
7, 89724, Control_c, 2, 11, 89
7, 89751, Note_on_c, 2, 72, 0
7, 89760, Control_c, 2, 11, 89
7, 89760, Note_on_c, 2, 74, 68
7, 89779, Control_c, 2, 11, 90
7, 89798, Control_c, 2, 11, 91
7, 89817, Control_c, 2, 11, 92
7, 89836, Control_c, 2, 11, 93
7, 89855, Control_c, 2, 11, 94
7, 89874, Control_c, 2, 11, 95
7, 89893, Control_c, 2, 11, 96
7, 89912, Control_c, 2, 11, 97
7, 89931, Control_c, 2, 11, 98
7, 89949, Control_c, 2, 11, 99
7, 89968, Control_c, 2, 11, 100
7, 89987, Control_c, 2, 11, 101
7, 90006, Control_c, 2, 11, 102
7, 90025, Control_c, 2, 11, 103
7, 90044, Control_c, 2, 11, 104
7, 90063, Control_c, 2, 11, 105
7, 90082, Control_c, 2, 11, 106
7, 90101, Control_c, 2, 11, 107
7, 90119, Note_on_c, 2, 74, 0
7, 90120, Note_on_c, 2, 77, 68
7, 90120, Control_c, 2, 11, 108
7, 90139, Control_c, 2, 11, 109
7, 90158, Control_c, 2, 11, 110
7, 90177, Control_c, 2, 11, 111
7, 90196, Control_c, 2, 11, 112
7, 90215, Control_c, 2, 11, 113
7, 90234, Control_c, 2, 11, 114
7, 90253, Control_c, 2, 11, 115
7, 90272, Control_c, 2, 11, 116
7, 90291, Control_c, 2, 11, 117
7, 90309, Control_c, 2, 11, 118
7, 90328, Control_c, 2, 11, 119
7, 90347, Control_c, 2, 11, 120
7, 90359, Note_on_c, 2, 77, 0
7, 90360, Note_on_c, 2, 75, 68
7, 90366, Control_c, 2, 11, 121
7, 90385, Control_c, 2, 11, 122
7, 90404, Control_c, 2, 11, 123
7, 90423, Control_c, 2, 11, 124
7, 90442, Control_c, 2, 11, 125
7, 90461, Control_c, 2, 11, 126
7, 90479, Note_on_c, 2, 75, 0
7, 90480, Control_c, 2, 11, 127
7, 90480, Note_on_c, 2, 72, 68
7, 90489, Control_c, 2, 11, 126
7, 90499, Control_c, 2, 11, 125
7, 90508, Control_c, 2, 11, 124
7, 90518, Control_c, 2, 11, 123
7, 90527, Control_c, 2, 11, 122
7, 90537, Control_c, 2, 11, 121
7, 90546, Control_c, 2, 11, 120
7, 90556, Control_c, 2, 11, 119
7, 90565, Control_c, 2, 11, 118
7, 90575, Control_c, 2, 11, 117
7, 90584, Control_c, 2, 11, 116
7, 90594, Control_c, 2, 11, 115
7, 90603, Control_c, 2, 11, 114
7, 90613, Control_c, 2, 11, 113
7, 90622, Control_c, 2, 11, 112
7, 90632, Control_c, 2, 11, 111
7, 90641, Control_c, 2, 11, 110
7, 90651, Control_c, 2, 11, 109
7, 90660, Control_c, 2, 11, 108
7, 90669, Control_c, 2, 11, 107
7, 90679, Control_c, 2, 11, 106
7, 90688, Control_c, 2, 11, 105
7, 90698, Control_c, 2, 11, 104
7, 90707, Control_c, 2, 11, 103
7, 90717, Control_c, 2, 11, 102
7, 90726, Control_c, 2, 11, 101
7, 90736, Control_c, 2, 11, 100
7, 90745, Control_c, 2, 11, 99
7, 90755, Control_c, 2, 11, 98
7, 90764, Control_c, 2, 11, 97
7, 90774, Control_c, 2, 11, 96
7, 90783, Control_c, 2, 11, 95
7, 90793, Control_c, 2, 11, 94
7, 90802, Control_c, 2, 11, 93
7, 90812, Control_c, 2, 11, 92
7, 90821, Control_c, 2, 11, 91
7, 90831, Control_c, 2, 11, 90
7, 90839, Note_on_c, 2, 72, 0
7, 91551, Control_c, 2, 11, 100
7, 91560, Note_on_c, 2, 70, 68
7, 91578, Control_c, 2, 11, 101
7, 91605, Control_c, 2, 11, 102
7, 91632, Control_c, 2, 11, 103
7, 91659, Control_c, 2, 11, 104
7, 91686, Control_c, 2, 11, 105
7, 91713, Control_c, 2, 11, 106
7, 91740, Control_c, 2, 11, 107
7, 91767, Control_c, 2, 11, 108
7, 91794, Control_c, 2, 11, 109
7, 91821, Control_c, 2, 11, 110
7, 91848, Control_c, 2, 11, 111
7, 91875, Control_c, 2, 11, 112
7, 91902, Control_c, 2, 11, 113
7, 91929, Control_c, 2, 11, 114
7, 91956, Control_c, 2, 11, 115
7, 91983, Control_c, 2, 11, 116
7, 92010, Control_c, 2, 11, 117
7, 92037, Control_c, 2, 11, 118
7, 92064, Control_c, 2, 11, 119
7, 92091, Control_c, 2, 11, 120
7, 92118, Control_c, 2, 11, 121
7, 92145, Control_c, 2, 11, 122
7, 92159, Note_on_c, 2, 70, 0
7, 92160, Note_on_c, 2, 69, 68
7, 92172, Control_c, 2, 11, 123
7, 92199, Control_c, 2, 11, 124
7, 92226, Control_c, 2, 11, 125
7, 92253, Control_c, 2, 11, 126
7, 92279, Note_on_c, 2, 69, 0
7, 92280, Note_on_c, 2, 79, 68
7, 92280, Control_c, 2, 11, 127
7, 92289, Control_c, 2, 11, 126
7, 92298, Control_c, 2, 11, 125
7, 92307, Control_c, 2, 11, 124
7, 92316, Control_c, 2, 11, 123
7, 92325, Control_c, 2, 11, 122
7, 92334, Control_c, 2, 11, 121
7, 92343, Control_c, 2, 11, 120
7, 92352, Control_c, 2, 11, 119
7, 92361, Control_c, 2, 11, 118
7, 92370, Control_c, 2, 11, 117
7, 92379, Control_c, 2, 11, 116
7, 92388, Control_c, 2, 11, 115
7, 92397, Control_c, 2, 11, 114
7, 92399, Note_on_c, 2, 79, 0
7, 92400, Note_on_c, 2, 77, 68
7, 92406, Control_c, 2, 11, 113
7, 92415, Control_c, 2, 11, 112
7, 92424, Control_c, 2, 11, 111
7, 92433, Control_c, 2, 11, 110
7, 92442, Control_c, 2, 11, 109
7, 92451, Control_c, 2, 11, 108
7, 92459, Note_on_c, 2, 77, 0
7, 92460, Control_c, 2, 11, 107
7, 92460, Note_on_c, 2, 75, 68
7, 92469, Control_c, 2, 11, 106
7, 92478, Control_c, 2, 11, 105
7, 92487, Control_c, 2, 11, 104
7, 92496, Control_c, 2, 11, 103
7, 92505, Control_c, 2, 11, 102
7, 92514, Control_c, 2, 11, 101
7, 92519, Note_on_c, 2, 75, 0
7, 92520, Note_on_c, 2, 72, 68
7, 92523, Control_c, 2, 11, 100
7, 92532, Control_c, 2, 11, 99
7, 92541, Control_c, 2, 11, 98
7, 92550, Control_c, 2, 11, 97
7, 92559, Control_c, 2, 11, 96
7, 92568, Control_c, 2, 11, 95
7, 92577, Control_c, 2, 11, 94
7, 92586, Control_c, 2, 11, 93
7, 92595, Control_c, 2, 11, 92
7, 92604, Control_c, 2, 11, 91
7, 92613, Control_c, 2, 11, 90
7, 92622, Control_c, 2, 11, 89
7, 92631, Note_on_c, 2, 72, 0
7, 92631, Control_c, 2, 11, 87
7, 92640, Note_on_c, 2, 72, 68
7, 93359, Note_on_c, 2, 72, 0
7, 93360, Note_on_c, 2, 70, 68
7, 93959, Note_on_c, 2, 70, 0
7, 93960, Note_on_c, 2, 77, 68
7, 94071, Note_on_c, 2, 77, 0
7, 94080, Note_on_c, 2, 77, 68
7, 94439, Note_on_c, 2, 77, 0
7, 94440, Note_on_c, 2, 75, 68
7, 95159, Note_on_c, 2, 75, 0
7, 95160, Note_on_c, 2, 74, 68
7, 95511, Note_on_c, 2, 74, 0
7, 95520, Note_on_c, 2, 72, 68
7, 96119, Note_on_c, 2, 72, 0
7, 96120, Note_on_c, 2, 74, 68
7, 96179, Note_on_c, 2, 74, 0
7, 96180, Note_on_c, 2, 75, 68
7, 96231, Note_on_c, 2, 75, 0
7, 96240, Note_on_c, 2, 74, 68
7, 96599, Note_on_c, 2, 74, 0
7, 96600, Note_on_c, 2, 72, 68
7, 96839, Note_on_c, 2, 72, 0
7, 96840, Note_on_c, 2, 73, 68
7, 96951, Note_on_c, 2, 73, 0
7, 96960, Note_on_c, 2, 73, 68
7, 96960, Control_c, 2, 11, 87
7, 96978, Control_c, 2, 11, 88
7, 96996, Control_c, 2, 11, 89
7, 97014, Control_c, 2, 11, 90
7, 97032, Control_c, 2, 11, 91
7, 97050, Control_c, 2, 11, 92
7, 97068, Control_c, 2, 11, 93
7, 97086, Control_c, 2, 11, 94
7, 97104, Control_c, 2, 11, 95
7, 97122, Control_c, 2, 11, 96
7, 97140, Control_c, 2, 11, 97
7, 97158, Control_c, 2, 11, 98
7, 97176, Control_c, 2, 11, 99
7, 97194, Control_c, 2, 11, 100
7, 97212, Control_c, 2, 11, 101
7, 97230, Control_c, 2, 11, 102
7, 97248, Control_c, 2, 11, 103
7, 97266, Control_c, 2, 11, 104
7, 97284, Control_c, 2, 11, 105
7, 97302, Control_c, 2, 11, 106
7, 97320, Control_c, 2, 11, 107
7, 97338, Control_c, 2, 11, 108
7, 97356, Control_c, 2, 11, 109
7, 97374, Control_c, 2, 11, 110
7, 97392, Control_c, 2, 11, 111
7, 97410, Control_c, 2, 11, 112
7, 97428, Control_c, 2, 11, 113
7, 97446, Control_c, 2, 11, 114
7, 97464, Control_c, 2, 11, 115
7, 97482, Control_c, 2, 11, 116
7, 97500, Control_c, 2, 11, 117
7, 97518, Control_c, 2, 11, 118
7, 97536, Control_c, 2, 11, 119
7, 97554, Control_c, 2, 11, 120
7, 97559, Note_on_c, 2, 73, 0
7, 97560, Note_on_c, 2, 74, 68
7, 97572, Control_c, 2, 11, 121
7, 97590, Control_c, 2, 11, 122
7, 97608, Control_c, 2, 11, 123
7, 97626, Control_c, 2, 11, 124
7, 97644, Control_c, 2, 11, 125
7, 97662, Control_c, 2, 11, 126
7, 97671, Note_on_c, 2, 74, 0
7, 97680, Control_c, 2, 11, 127
7, 97680, Note_on_c, 2, 74, 68
7, 97686, Control_c, 2, 11, 126
7, 97692, Control_c, 2, 11, 125
7, 97699, Control_c, 2, 11, 124
7, 97705, Control_c, 2, 11, 123
7, 97711, Control_c, 2, 11, 122
7, 97717, Control_c, 2, 11, 121
7, 97723, Control_c, 2, 11, 120
7, 97730, Control_c, 2, 11, 119
7, 97736, Control_c, 2, 11, 118
7, 97742, Control_c, 2, 11, 117
7, 97748, Control_c, 2, 11, 116
7, 97754, Control_c, 2, 11, 115
7, 97761, Control_c, 2, 11, 114
7, 97767, Control_c, 2, 11, 113
7, 97773, Control_c, 2, 11, 112
7, 97779, Control_c, 2, 11, 111
7, 97786, Control_c, 2, 11, 110
7, 97792, Control_c, 2, 11, 109
7, 97798, Control_c, 2, 11, 108
7, 97804, Control_c, 2, 11, 107
7, 97810, Control_c, 2, 11, 106
7, 97817, Control_c, 2, 11, 105
7, 97823, Control_c, 2, 11, 104
7, 97829, Control_c, 2, 11, 103
7, 97835, Control_c, 2, 11, 102
7, 97841, Control_c, 2, 11, 101
7, 97848, Control_c, 2, 11, 100
7, 97854, Control_c, 2, 11, 99
7, 97860, Control_c, 2, 11, 98
7, 97866, Control_c, 2, 11, 97
7, 97872, Control_c, 2, 11, 96
7, 97879, Control_c, 2, 11, 95
7, 97885, Control_c, 2, 11, 94
7, 97891, Control_c, 2, 11, 93
7, 97897, Control_c, 2, 11, 92
7, 97903, Control_c, 2, 11, 91
7, 97910, Control_c, 2, 11, 90
7, 97916, Control_c, 2, 11, 89
7, 97922, Control_c, 2, 11, 88
7, 97928, Control_c, 2, 11, 87
7, 97934, Control_c, 2, 11, 86
7, 97941, Control_c, 2, 11, 85
7, 97947, Control_c, 2, 11, 84
7, 97953, Control_c, 2, 11, 83
7, 97959, Control_c, 2, 11, 82
7, 97966, Control_c, 2, 11, 81
7, 97972, Control_c, 2, 11, 80
7, 97978, Control_c, 2, 11, 79
7, 97984, Control_c, 2, 11, 78
7, 97990, Control_c, 2, 11, 77
7, 97997, Control_c, 2, 11, 76
7, 98003, Control_c, 2, 11, 75
7, 98009, Control_c, 2, 11, 74
7, 98015, Control_c, 2, 11, 73
7, 98021, Control_c, 2, 11, 72
7, 98028, Control_c, 2, 11, 71
7, 98034, Control_c, 2, 11, 70
7, 98039, Note_on_c, 2, 74, 0
7, 99360, Control_c, 2, 11, 89
7, 99480, Note_on_c, 2, 77, 68
7, 99719, Note_on_c, 2, 77, 0
7, 99720, Note_on_c, 2, 74, 68
7, 99831, Note_on_c, 2, 74, 0
7, 99840, Note_on_c, 2, 72, 68
7, 100559, Note_on_c, 2, 72, 0
7, 100560, Note_on_c, 2, 70, 68
7, 101159, Note_on_c, 2, 70, 0
7, 101160, Note_on_c, 2, 77, 68
7, 101271, Note_on_c, 2, 77, 0
7, 101280, Control_c, 2, 11, 89
7, 101280, Note_on_c, 2, 77, 68
7, 101299, Control_c, 2, 11, 90
7, 101318, Control_c, 2, 11, 91
7, 101337, Control_c, 2, 11, 92
7, 101356, Control_c, 2, 11, 93
7, 101375, Control_c, 2, 11, 94
7, 101394, Control_c, 2, 11, 95
7, 101413, Control_c, 2, 11, 96
7, 101432, Control_c, 2, 11, 97
7, 101451, Control_c, 2, 11, 98
7, 101469, Control_c, 2, 11, 99
7, 101488, Control_c, 2, 11, 100
7, 101507, Control_c, 2, 11, 101
7, 101526, Control_c, 2, 11, 102
7, 101545, Control_c, 2, 11, 103
7, 101564, Control_c, 2, 11, 104
7, 101583, Control_c, 2, 11, 105
7, 101602, Control_c, 2, 11, 106
7, 101621, Control_c, 2, 11, 107
7, 101639, Note_on_c, 2, 77, 0
7, 101640, Control_c, 2, 11, 108
7, 101640, Note_on_c, 2, 75, 68
7, 101659, Control_c, 2, 11, 109
7, 101678, Control_c, 2, 11, 110
7, 101697, Control_c, 2, 11, 111
7, 101716, Control_c, 2, 11, 112
7, 101735, Control_c, 2, 11, 113
7, 101754, Control_c, 2, 11, 114
7, 101773, Control_c, 2, 11, 115
7, 101792, Control_c, 2, 11, 116
7, 101811, Control_c, 2, 11, 117
7, 101829, Control_c, 2, 11, 118
7, 101848, Control_c, 2, 11, 119
7, 101867, Control_c, 2, 11, 120
7, 101886, Control_c, 2, 11, 121
7, 101905, Control_c, 2, 11, 122
7, 101924, Control_c, 2, 11, 123
7, 101943, Control_c, 2, 11, 124
7, 101962, Control_c, 2, 11, 125
7, 101981, Control_c, 2, 11, 126
7, 102000, Control_c, 2, 11, 127
7, 102018, Control_c, 2, 11, 126
7, 102036, Control_c, 2, 11, 125
7, 102054, Control_c, 2, 11, 124
7, 102072, Control_c, 2, 11, 123
7, 102090, Control_c, 2, 11, 122
7, 102108, Control_c, 2, 11, 121
7, 102126, Control_c, 2, 11, 120
7, 102144, Control_c, 2, 11, 119
7, 102162, Control_c, 2, 11, 118
7, 102180, Control_c, 2, 11, 117
7, 102198, Control_c, 2, 11, 116
7, 102216, Control_c, 2, 11, 115
7, 102234, Control_c, 2, 11, 114
7, 102252, Control_c, 2, 11, 113
7, 102270, Control_c, 2, 11, 112
7, 102288, Control_c, 2, 11, 111
7, 102306, Control_c, 2, 11, 110
7, 102324, Control_c, 2, 11, 109
7, 102342, Control_c, 2, 11, 108
7, 102359, Note_on_c, 2, 75, 0
7, 102360, Control_c, 2, 11, 107
7, 102360, Note_on_c, 2, 74, 68
7, 102378, Control_c, 2, 11, 106
7, 102396, Control_c, 2, 11, 105
7, 102414, Control_c, 2, 11, 104
7, 102432, Control_c, 2, 11, 103
7, 102450, Control_c, 2, 11, 102
7, 102468, Control_c, 2, 11, 101
7, 102486, Control_c, 2, 11, 100
7, 102504, Control_c, 2, 11, 99
7, 102522, Control_c, 2, 11, 98
7, 102540, Control_c, 2, 11, 97
7, 102558, Control_c, 2, 11, 96
7, 102576, Control_c, 2, 11, 95
7, 102594, Control_c, 2, 11, 94
7, 102599, Note_on_c, 2, 74, 0
7, 102612, Control_c, 2, 11, 93
7, 102630, Control_c, 2, 11, 92
7, 102648, Control_c, 2, 11, 91
7, 102666, Control_c, 2, 11, 90
7, 102684, Control_c, 2, 11, 89
7, 103800, Control_c, 2, 11, 89
7, 103800, Note_on_c, 2, 79, 68
7, 103847, Control_c, 2, 11, 90
7, 103895, Control_c, 2, 11, 91
7, 103942, Control_c, 2, 11, 92
7, 103989, Control_c, 2, 11, 93
7, 104037, Control_c, 2, 11, 94
7, 104084, Control_c, 2, 11, 95
7, 104132, Control_c, 2, 11, 96
7, 104151, Note_on_c, 2, 79, 0
7, 104160, Note_on_c, 2, 79, 68
7, 104179, Control_c, 2, 11, 97
7, 104226, Control_c, 2, 11, 98
7, 104274, Control_c, 2, 11, 99
7, 104321, Control_c, 2, 11, 100
7, 104368, Control_c, 2, 11, 101
7, 104416, Control_c, 2, 11, 102
7, 104463, Control_c, 2, 11, 103
7, 104511, Control_c, 2, 11, 104
7, 104558, Control_c, 2, 11, 105
7, 104605, Control_c, 2, 11, 106
7, 104653, Control_c, 2, 11, 107
7, 104700, Control_c, 2, 11, 108
7, 104747, Control_c, 2, 11, 109
7, 104795, Control_c, 2, 11, 110
7, 104842, Control_c, 2, 11, 111
7, 104889, Control_c, 2, 11, 112
7, 104937, Control_c, 2, 11, 113
7, 104984, Control_c, 2, 11, 114
7, 105032, Control_c, 2, 11, 115
7, 105079, Control_c, 2, 11, 116
7, 105111, Note_on_c, 2, 79, 0
7, 105120, Note_on_c, 2, 67, 68
7, 105120, Note_on_c, 2, 79, 68
7, 105126, Control_c, 2, 11, 117
7, 105174, Control_c, 2, 11, 118
7, 105221, Control_c, 2, 11, 119
7, 105231, Note_on_c, 2, 67, 0
7, 105231, Note_on_c, 2, 79, 0
7, 105240, Note_on_c, 2, 79, 68
7, 105240, Note_on_c, 2, 67, 68
7, 105268, Control_c, 2, 11, 120
7, 105316, Control_c, 2, 11, 121
7, 105359, Note_on_c, 2, 79, 0
7, 105359, Note_on_c, 2, 67, 0
7, 105360, Note_on_c, 2, 69, 68
7, 105360, Note_on_c, 2, 81, 68
7, 105363, Control_c, 2, 11, 122
7, 105411, Control_c, 2, 11, 123
7, 105458, Control_c, 2, 11, 124
7, 105479, Note_on_c, 2, 69, 0
7, 105479, Note_on_c, 2, 81, 0
7, 105480, Note_on_c, 2, 82, 68
7, 105480, Note_on_c, 2, 70, 68
7, 105505, Control_c, 2, 11, 125
7, 105553, Control_c, 2, 11, 126
7, 105591, Note_on_c, 2, 82, 0
7, 105591, Note_on_c, 2, 70, 0
7, 105600, Note_on_c, 2, 82, 68
7, 105600, Control_c, 2, 11, 127
7, 105600, Note_on_c, 2, 70, 68
7, 105618, Control_c, 2, 11, 126
7, 105636, Control_c, 2, 11, 125
7, 105654, Control_c, 2, 11, 124
7, 105672, Control_c, 2, 11, 123
7, 105690, Control_c, 2, 11, 122
7, 105708, Control_c, 2, 11, 121
7, 105726, Control_c, 2, 11, 120
7, 105744, Control_c, 2, 11, 119
7, 105762, Control_c, 2, 11, 118
7, 105780, Control_c, 2, 11, 117
7, 105798, Control_c, 2, 11, 116
7, 105816, Control_c, 2, 11, 115
7, 105834, Control_c, 2, 11, 114
7, 105852, Control_c, 2, 11, 113
7, 105870, Control_c, 2, 11, 112
7, 105888, Control_c, 2, 11, 111
7, 105906, Control_c, 2, 11, 110
7, 105924, Control_c, 2, 11, 109
7, 105942, Control_c, 2, 11, 108
7, 105960, Control_c, 2, 11, 107
7, 105978, Control_c, 2, 11, 106
7, 105996, Control_c, 2, 11, 105
7, 106014, Control_c, 2, 11, 104
7, 106032, Control_c, 2, 11, 103
7, 106050, Control_c, 2, 11, 102
7, 106068, Control_c, 2, 11, 101
7, 106086, Control_c, 2, 11, 100
7, 106104, Control_c, 2, 11, 99
7, 106122, Control_c, 2, 11, 98
7, 106140, Control_c, 2, 11, 97
7, 106158, Control_c, 2, 11, 96
7, 106176, Control_c, 2, 11, 95
7, 106191, Note_on_c, 2, 82, 0
7, 106191, Note_on_c, 2, 70, 0
7, 106194, Control_c, 2, 11, 94
7, 106200, Note_on_c, 2, 74, 68
7, 106212, Control_c, 2, 11, 93
7, 106230, Control_c, 2, 11, 92
7, 106248, Control_c, 2, 11, 91
7, 106266, Control_c, 2, 11, 90
7, 106284, Control_c, 2, 11, 89
7, 106319, Note_on_c, 2, 74, 0
7, 106320, Note_on_c, 2, 77, 68
7, 106679, Note_on_c, 2, 77, 0
7, 106680, Note_on_c, 2, 75, 68
7, 106919, Note_on_c, 2, 75, 0
7, 106920, Note_on_c, 2, 72, 68
7, 107031, Note_on_c, 2, 72, 0
7, 107040, Note_on_c, 2, 72, 68
7, 107639, Note_on_c, 2, 72, 0
7, 107640, Note_on_c, 2, 74, 68
7, 107759, Note_on_c, 2, 74, 0
7, 107880, Note_on_c, 2, 70, 68
7, 107999, Note_on_c, 2, 70, 0
7, 108000, Note_on_c, 2, 81, 68
7, 108059, Note_on_c, 2, 81, 0
7, 108060, Note_on_c, 2, 82, 68
7, 108119, Note_on_c, 2, 82, 0
7, 108120, Note_on_c, 2, 84, 68
7, 108359, Note_on_c, 2, 84, 0
7, 108360, Note_on_c, 2, 75, 68
7, 108471, Note_on_c, 2, 75, 0
7, 108480, Note_on_c, 2, 75, 68
7, 109079, Note_on_c, 2, 75, 0
7, 109080, Note_on_c, 2, 77, 68
7, 109191, Note_on_c, 2, 77, 0
7, 109200, Note_on_c, 2, 75, 68
7, 109439, Note_on_c, 2, 75, 0
7, 109440, Note_on_c, 2, 74, 68
7, 109559, Note_on_c, 2, 74, 0
7, 109560, Note_on_c, 2, 82, 68
7, 109799, Note_on_c, 2, 82, 0
7, 109800, Note_on_c, 2, 84, 68
7, 109911, Note_on_c, 2, 84, 0
7, 109920, Note_on_c, 2, 84, 68
7, 110519, Note_on_c, 2, 84, 0
7, 110520, Note_on_c, 2, 86, 68
7, 110639, Note_on_c, 2, 86, 0
7, 110640, Note_on_c, 2, 84, 68
7, 110879, Note_on_c, 2, 84, 0
7, 110880, Note_on_c, 2, 82, 68
7, 110991, Note_on_c, 2, 82, 0
7, 111000, Control_c, 2, 11, 89
7, 111047, Control_c, 2, 11, 90
7, 111095, Control_c, 2, 11, 91
7, 111142, Control_c, 2, 11, 92
7, 111189, Control_c, 2, 11, 93
7, 111237, Control_c, 2, 11, 94
7, 111240, Note_on_c, 2, 70, 68
7, 111284, Control_c, 2, 11, 95
7, 111332, Control_c, 2, 11, 96
7, 111351, Note_on_c, 2, 70, 0
7, 111360, Note_on_c, 2, 79, 68
7, 111379, Control_c, 2, 11, 97
7, 111426, Control_c, 2, 11, 98
7, 111474, Control_c, 2, 11, 99
7, 111521, Control_c, 2, 11, 100
7, 111568, Control_c, 2, 11, 101
7, 111616, Control_c, 2, 11, 102
7, 111663, Control_c, 2, 11, 103
7, 111711, Control_c, 2, 11, 104
7, 111758, Control_c, 2, 11, 105
7, 111805, Control_c, 2, 11, 106
7, 111853, Control_c, 2, 11, 107
7, 111900, Control_c, 2, 11, 108
7, 111947, Control_c, 2, 11, 109
7, 111995, Control_c, 2, 11, 110
7, 112042, Control_c, 2, 11, 111
7, 112089, Control_c, 2, 11, 112
7, 112137, Control_c, 2, 11, 113
7, 112184, Control_c, 2, 11, 114
7, 112232, Control_c, 2, 11, 115
7, 112279, Control_c, 2, 11, 116
7, 112311, Note_on_c, 2, 79, 0
7, 112320, Note_on_c, 2, 67, 68
7, 112326, Control_c, 2, 11, 117
7, 112374, Control_c, 2, 11, 118
7, 112421, Control_c, 2, 11, 119
7, 112431, Note_on_c, 2, 67, 0
7, 112440, Note_on_c, 2, 67, 68
7, 112468, Control_c, 2, 11, 120
7, 112516, Control_c, 2, 11, 121
7, 112559, Note_on_c, 2, 67, 0
7, 112560, Note_on_c, 2, 69, 68
7, 112563, Control_c, 2, 11, 122
7, 112611, Control_c, 2, 11, 123
7, 112658, Control_c, 2, 11, 124
7, 112679, Note_on_c, 2, 69, 0
7, 112680, Note_on_c, 2, 70, 68
7, 112705, Control_c, 2, 11, 125
7, 112753, Control_c, 2, 11, 126
7, 112791, Note_on_c, 2, 70, 0
7, 112800, Control_c, 2, 11, 127
7, 112800, Note_on_c, 2, 70, 68
7, 112818, Control_c, 2, 11, 126
7, 112836, Control_c, 2, 11, 125
7, 112854, Control_c, 2, 11, 124
7, 112872, Control_c, 2, 11, 123
7, 112890, Control_c, 2, 11, 122
7, 112908, Control_c, 2, 11, 121
7, 112926, Control_c, 2, 11, 120
7, 112944, Control_c, 2, 11, 119
7, 112962, Control_c, 2, 11, 118
7, 112980, Control_c, 2, 11, 117
7, 112998, Control_c, 2, 11, 116
7, 113016, Control_c, 2, 11, 115
7, 113034, Control_c, 2, 11, 114
7, 113052, Control_c, 2, 11, 113
7, 113070, Control_c, 2, 11, 112
7, 113088, Control_c, 2, 11, 111
7, 113106, Control_c, 2, 11, 110
7, 113124, Control_c, 2, 11, 109
7, 113142, Control_c, 2, 11, 108
7, 113160, Control_c, 2, 11, 107
7, 113178, Control_c, 2, 11, 106
7, 113196, Control_c, 2, 11, 105
7, 113214, Control_c, 2, 11, 104
7, 113232, Control_c, 2, 11, 103
7, 113250, Control_c, 2, 11, 102
7, 113268, Control_c, 2, 11, 101
7, 113286, Control_c, 2, 11, 100
7, 113304, Control_c, 2, 11, 99
7, 113322, Control_c, 2, 11, 98
7, 113340, Control_c, 2, 11, 97
7, 113358, Control_c, 2, 11, 96
7, 113376, Control_c, 2, 11, 95
7, 113394, Control_c, 2, 11, 94
7, 113399, Note_on_c, 2, 70, 0
7, 113400, Note_on_c, 2, 74, 68
7, 113412, Control_c, 2, 11, 93
7, 113430, Control_c, 2, 11, 92
7, 113448, Control_c, 2, 11, 91
7, 113466, Control_c, 2, 11, 90
7, 113484, Control_c, 2, 11, 89
7, 113502, Control_c, 2, 11, 87
7, 113519, Note_on_c, 2, 74, 0
7, 113520, Note_on_c, 2, 77, 68
7, 113879, Note_on_c, 2, 77, 0
7, 113880, Note_on_c, 2, 75, 68
7, 114119, Note_on_c, 2, 75, 0
7, 114120, Note_on_c, 2, 72, 68
7, 114231, Note_on_c, 2, 72, 0
7, 114240, Note_on_c, 2, 75, 68
7, 114240, Control_c, 2, 11, 79
7, 114599, Note_on_c, 2, 75, 0
7, 114600, Note_on_c, 2, 84, 68
7, 114959, Note_on_c, 2, 84, 0
7, 114960, Note_on_c, 2, 81, 68
7, 115319, Note_on_c, 2, 81, 0
7, 115320, Note_on_c, 2, 82, 68
7, 115671, Note_on_c, 2, 82, 0
7, 115678, Control_c, 2, 11, 47
7, 115680, Note_on_c, 2, 81, 80
7, 116039, Note_on_c, 2, 81, 0
7, 116040, Note_on_c, 2, 84, 80
7, 116399, Note_on_c, 2, 84, 0
7, 116400, Control_c, 2, 11, 47
7, 116400, Note_on_c, 2, 81, 80
7, 116417, Control_c, 2, 11, 49
7, 116433, Control_c, 2, 11, 51
7, 116450, Control_c, 2, 11, 54
7, 116467, Control_c, 2, 11, 56
7, 116483, Control_c, 2, 11, 58
7, 116500, Control_c, 2, 11, 60
7, 116517, Control_c, 2, 11, 63
7, 116533, Control_c, 2, 11, 65
7, 116550, Control_c, 2, 11, 67
7, 116567, Control_c, 2, 11, 69
7, 116583, Control_c, 2, 11, 71
7, 116600, Control_c, 2, 11, 74
7, 116617, Control_c, 2, 11, 76
7, 116633, Control_c, 2, 11, 78
7, 116650, Control_c, 2, 11, 80
7, 116667, Control_c, 2, 11, 83
7, 116683, Control_c, 2, 11, 85
7, 116700, Control_c, 2, 11, 87
7, 116717, Control_c, 2, 11, 89
7, 116733, Control_c, 2, 11, 91
7, 116750, Control_c, 2, 11, 94
7, 116759, Note_on_c, 2, 81, 0
7, 116760, Note_on_c, 2, 80, 80
7, 116767, Control_c, 2, 11, 96
7, 116783, Control_c, 2, 11, 98
7, 116800, Control_c, 2, 11, 100
7, 116817, Control_c, 2, 11, 103
7, 116833, Control_c, 2, 11, 105
7, 116850, Control_c, 2, 11, 107
7, 116867, Control_c, 2, 11, 109
7, 116883, Control_c, 2, 11, 111
7, 116900, Control_c, 2, 11, 114
7, 116917, Control_c, 2, 11, 116
7, 116933, Control_c, 2, 11, 118
7, 116950, Control_c, 2, 11, 120
7, 116967, Control_c, 2, 11, 123
7, 116983, Control_c, 2, 11, 127
7, 116991, Note_on_c, 2, 80, 0
7, 117000, Note_on_c, 2, 70, 80
7, 117051, Note_on_c, 2, 70, 0
7, 117060, Note_on_c, 2, 70, 80
7, 117111, Note_on_c, 2, 70, 0
7, 117120, Note_on_c, 2, 75, 80
7, 117239, Note_on_c, 2, 75, 0
7, 117720, Note_on_c, 2, 75, 80
7, 117720, Note_on_c, 2, 63, 80
7, 117771, Note_on_c, 2, 75, 0
7, 117771, Note_on_c, 2, 63, 0
7, 117780, Note_on_c, 2, 63, 80
7, 117780, Note_on_c, 2, 75, 80
7, 117831, Note_on_c, 2, 63, 0
7, 117831, Note_on_c, 2, 75, 0
7, 117840, Note_on_c, 2, 70, 80
7, 117840, Note_on_c, 2, 82, 80
7, 117959, Note_on_c, 2, 70, 0
7, 117959, Note_on_c, 2, 82, 0
7, 118440, Note_on_c, 2, 82, 80
7, 118440, Note_on_c, 2, 70, 80
7, 118491, Note_on_c, 2, 82, 0
7, 118491, Note_on_c, 2, 70, 0
7, 118500, Note_on_c, 2, 70, 80
7, 118500, Note_on_c, 2, 82, 80
7, 118551, Note_on_c, 2, 70, 0
7, 118551, Note_on_c, 2, 82, 0
7, 118560, Note_on_c, 2, 82, 92
7, 118560, Note_on_c, 2, 79, 92
7, 118619, Note_on_c, 2, 82, 0
7, 118619, Note_on_c, 2, 79, 0
7, 118800, Note_on_c, 2, 79, 80
7, 118800, Note_on_c, 2, 82, 80
7, 118851, Note_on_c, 2, 79, 0
7, 118851, Note_on_c, 2, 82, 0
7, 118860, Note_on_c, 2, 82, 80
7, 118860, Note_on_c, 2, 79, 80
7, 118911, Note_on_c, 2, 82, 0
7, 118911, Note_on_c, 2, 79, 0
7, 118920, Note_on_c, 2, 82, 92
7, 118920, Note_on_c, 2, 77, 92
7, 118979, Note_on_c, 2, 82, 0
7, 118979, Note_on_c, 2, 77, 0
7, 119160, Note_on_c, 2, 82, 80
7, 119160, Note_on_c, 2, 77, 80
7, 119211, Note_on_c, 2, 82, 0
7, 119211, Note_on_c, 2, 77, 0
7, 119220, Note_on_c, 2, 82, 80
7, 119220, Note_on_c, 2, 77, 80
7, 119271, Note_on_c, 2, 82, 0
7, 119271, Note_on_c, 2, 77, 0
7, 119280, Note_on_c, 2, 77, 80
7, 119280, Note_on_c, 2, 81, 80
7, 119519, Note_on_c, 2, 77, 0
7, 119519, Note_on_c, 2, 81, 0
7, 123600, Note_on_c, 2, 75, 38
7, 124079, Note_on_c, 2, 75, 0
7, 124080, Note_on_c, 2, 74, 38
7, 124199, Note_on_c, 2, 74, 0
7, 124200, Note_on_c, 2, 72, 38
7, 124289, Note_on_c, 2, 72, 0
7, 124320, Note_on_c, 2, 72, 38
7, 124439, Note_on_c, 2, 72, 0
7, 124440, Note_on_c, 2, 70, 38
7, 124559, Note_on_c, 2, 70, 0
7, 124560, Note_on_c, 2, 74, 38
7, 124671, Note_on_c, 2, 74, 0
7, 124680, Note_on_c, 2, 65, 38
7, 125031, Note_on_c, 2, 65, 0
7, 125040, Note_on_c, 2, 75, 38
7, 125519, Note_on_c, 2, 75, 0
7, 125520, Note_on_c, 2, 74, 38
7, 125639, Note_on_c, 2, 74, 0
7, 125640, Note_on_c, 2, 72, 38
7, 125729, Note_on_c, 2, 72, 0
7, 125760, Control_c, 2, 11, 67
7, 125854, Control_c, 2, 11, 68
7, 125948, Control_c, 2, 11, 69
7, 126042, Control_c, 2, 11, 70
7, 126120, Note_on_c, 2, 74, 80
7, 126136, Control_c, 2, 11, 71
7, 126230, Control_c, 2, 11, 72
7, 126324, Control_c, 2, 11, 73
7, 126418, Control_c, 2, 11, 74
7, 126479, Note_on_c, 2, 74, 0
7, 126480, Note_on_c, 2, 75, 80
7, 126512, Control_c, 2, 11, 75
7, 126606, Control_c, 2, 11, 76
7, 126700, Control_c, 2, 11, 77
7, 126794, Control_c, 2, 11, 78
7, 126888, Control_c, 2, 11, 79
7, 126959, Note_on_c, 2, 75, 0
7, 126960, Note_on_c, 2, 72, 80
7, 126982, Control_c, 2, 11, 80
7, 127076, Control_c, 2, 11, 81
7, 127079, Note_on_c, 2, 72, 0
7, 127080, Note_on_c, 2, 77, 80
7, 127170, Control_c, 2, 11, 82
7, 127191, Note_on_c, 2, 77, 0
7, 127200, Note_on_c, 2, 77, 80
7, 127264, Control_c, 2, 11, 83
7, 127358, Control_c, 2, 11, 84
7, 127452, Control_c, 2, 11, 85
7, 127546, Control_c, 2, 11, 86
7, 127559, Note_on_c, 2, 77, 0
7, 127560, Note_on_c, 2, 75, 80
7, 127640, Control_c, 2, 11, 87
7, 127734, Control_c, 2, 11, 88
7, 127828, Control_c, 2, 11, 89
7, 127919, Note_on_c, 2, 75, 0
7, 127920, Note_on_c, 2, 74, 80
7, 127922, Control_c, 2, 11, 90
7, 128016, Control_c, 2, 11, 91
7, 128110, Control_c, 2, 11, 92
7, 128204, Control_c, 2, 11, 93
7, 128279, Note_on_c, 2, 74, 0
7, 128280, Note_on_c, 2, 72, 80
7, 128298, Control_c, 2, 11, 94
7, 128392, Control_c, 2, 11, 95
7, 128486, Control_c, 2, 11, 96
7, 128580, Control_c, 2, 11, 97
7, 128631, Note_on_c, 2, 72, 0
7, 128640, Note_on_c, 2, 70, 80
7, 128674, Control_c, 2, 11, 98
7, 128768, Control_c, 2, 11, 99
7, 128862, Control_c, 2, 11, 100
7, 128956, Control_c, 2, 11, 101
7, 128999, Note_on_c, 2, 70, 0
7, 129000, Note_on_c, 2, 74, 80
7, 129050, Control_c, 2, 11, 102
7, 129144, Control_c, 2, 11, 103
7, 129238, Control_c, 2, 11, 104
7, 129239, Note_on_c, 2, 74, 0
7, 129240, Note_on_c, 2, 72, 80
7, 129332, Control_c, 2, 11, 105
7, 129351, Note_on_c, 2, 72, 0
7, 129360, Note_on_c, 2, 69, 80
7, 129426, Control_c, 2, 11, 106
7, 129520, Control_c, 2, 11, 107
7, 129614, Control_c, 2, 11, 108
7, 129708, Control_c, 2, 11, 109
7, 129802, Control_c, 2, 11, 110
7, 129839, Note_on_c, 2, 69, 0
7, 129840, Note_on_c, 2, 70, 80
7, 129896, Control_c, 2, 11, 111
7, 129959, Note_on_c, 2, 70, 0
7, 129960, Note_on_c, 2, 72, 80
7, 129990, Control_c, 2, 11, 112
7, 130049, Note_on_c, 2, 72, 0
7, 130080, Note_on_c, 2, 74, 80
7, 130084, Control_c, 2, 11, 113
7, 130178, Control_c, 2, 11, 114
7, 130272, Control_c, 2, 11, 115
7, 130366, Control_c, 2, 11, 116
7, 130439, Note_on_c, 2, 74, 0
7, 130440, Note_on_c, 2, 77, 80
7, 130460, Control_c, 2, 11, 117
7, 130554, Control_c, 2, 11, 118
7, 130648, Control_c, 2, 11, 119
7, 130679, Note_on_c, 2, 77, 0
7, 130680, Note_on_c, 2, 75, 80
7, 130742, Control_c, 2, 11, 120
7, 130791, Note_on_c, 2, 75, 0
7, 130800, Note_on_c, 2, 72, 80
7, 130836, Control_c, 2, 11, 121
7, 130930, Control_c, 2, 11, 122
7, 131024, Control_c, 2, 11, 123
7, 131118, Control_c, 2, 11, 124
7, 131159, Note_on_c, 2, 72, 0
7, 131160, Note_on_c, 2, 74, 80
7, 131212, Control_c, 2, 11, 125
7, 131306, Control_c, 2, 11, 127
7, 131391, Note_on_c, 2, 74, 0
7, 131400, Note_on_c, 2, 70, 80
7, 131451, Note_on_c, 2, 70, 0
7, 131460, Note_on_c, 2, 70, 80
7, 131511, Note_on_c, 2, 70, 0
7, 131520, Note_on_c, 2, 75, 80
7, 131639, Note_on_c, 2, 75, 0
7, 132120, Note_on_c, 2, 75, 80
7, 132120, Note_on_c, 2, 63, 80
7, 132171, Note_on_c, 2, 75, 0
7, 132171, Note_on_c, 2, 63, 0
7, 132180, Note_on_c, 2, 75, 80
7, 132180, Note_on_c, 2, 63, 80
7, 132231, Note_on_c, 2, 75, 0
7, 132231, Note_on_c, 2, 63, 0
7, 132240, Note_on_c, 2, 70, 80
7, 132240, Note_on_c, 2, 82, 80
7, 132359, Note_on_c, 2, 70, 0
7, 132359, Note_on_c, 2, 82, 0
7, 132840, Note_on_c, 2, 70, 80
7, 132840, Note_on_c, 2, 82, 80
7, 132891, Note_on_c, 2, 70, 0
7, 132891, Note_on_c, 2, 82, 0
7, 132900, Note_on_c, 2, 70, 80
7, 132900, Note_on_c, 2, 82, 80
7, 132951, Note_on_c, 2, 70, 0
7, 132951, Note_on_c, 2, 82, 0
7, 132960, Note_on_c, 2, 82, 92
7, 132960, Note_on_c, 2, 79, 92
7, 133019, Note_on_c, 2, 82, 0
7, 133019, Note_on_c, 2, 79, 0
7, 133200, Note_on_c, 2, 82, 80
7, 133200, Note_on_c, 2, 79, 80
7, 133251, Note_on_c, 2, 82, 0
7, 133251, Note_on_c, 2, 79, 0
7, 133260, Note_on_c, 2, 79, 80
7, 133260, Note_on_c, 2, 82, 80
7, 133311, Note_on_c, 2, 79, 0
7, 133311, Note_on_c, 2, 82, 0
7, 133320, Note_on_c, 2, 77, 92
7, 133320, Note_on_c, 2, 82, 92
7, 133379, Note_on_c, 2, 77, 0
7, 133379, Note_on_c, 2, 82, 0
7, 133560, Note_on_c, 2, 82, 80
7, 133560, Note_on_c, 2, 77, 80
7, 133611, Note_on_c, 2, 82, 0
7, 133611, Note_on_c, 2, 77, 0
7, 133620, Note_on_c, 2, 82, 80
7, 133620, Note_on_c, 2, 77, 80
7, 133671, Note_on_c, 2, 82, 0
7, 133671, Note_on_c, 2, 77, 0
7, 133680, Note_on_c, 2, 81, 80
7, 133680, Note_on_c, 2, 77, 80
7, 133919, Note_on_c, 2, 81, 0
7, 133919, Note_on_c, 2, 77, 0
7, 135720, Control_c, 2, 11, 127
7, 135840, Note_on_c, 2, 80, 56
7, 135960, Control_c, 2, 11, 126
7, 136080, Control_c, 2, 11, 125
7, 136200, Control_c, 2, 11, 122
7, 136320, Control_c, 2, 11, 121
7, 136440, Control_c, 2, 11, 120
7, 136560, Control_c, 2, 11, 119
7, 136680, Control_c, 2, 11, 116
7, 136800, Control_c, 2, 11, 115
7, 136920, Control_c, 2, 11, 114
7, 137040, Control_c, 2, 11, 112
7, 137160, Control_c, 2, 11, 110
7, 137271, Note_on_c, 2, 80, 0
7, 137280, Note_on_c, 2, 75, 56
7, 137280, Control_c, 2, 11, 109
7, 137519, Note_on_c, 2, 75, 0
7, 139680, Control_c, 2, 11, 69
7, 139800, Note_on_c, 2, 82, 68
7, 139800, Control_c, 2, 11, 69
7, 139850, Control_c, 2, 11, 70
7, 139899, Control_c, 2, 11, 71
7, 139949, Control_c, 2, 11, 72
7, 139999, Control_c, 2, 11, 73
7, 140048, Control_c, 2, 11, 74
7, 140098, Control_c, 2, 11, 75
7, 140148, Control_c, 2, 11, 76
7, 140197, Control_c, 2, 11, 77
7, 140247, Control_c, 2, 11, 78
7, 140297, Control_c, 2, 11, 79
7, 140346, Control_c, 2, 11, 80
7, 140396, Control_c, 2, 11, 81
7, 140399, Note_on_c, 2, 82, 0
7, 140400, Note_on_c, 2, 77, 68
7, 140446, Control_c, 2, 11, 82
7, 140495, Control_c, 2, 11, 83
7, 140545, Control_c, 2, 11, 84
7, 140594, Control_c, 2, 11, 85
7, 140644, Control_c, 2, 11, 86
7, 140694, Control_c, 2, 11, 87
7, 140743, Control_c, 2, 11, 88
7, 140793, Control_c, 2, 11, 89
7, 140843, Control_c, 2, 11, 90
7, 140892, Control_c, 2, 11, 91
7, 140942, Control_c, 2, 11, 92
7, 140992, Control_c, 2, 11, 93
7, 141041, Control_c, 2, 11, 94
7, 141091, Control_c, 2, 11, 95
7, 141141, Control_c, 2, 11, 96
7, 141190, Control_c, 2, 11, 97
7, 141240, Control_c, 2, 11, 98
7, 141290, Control_c, 2, 11, 99
7, 141339, Control_c, 2, 11, 100
7, 141389, Control_c, 2, 11, 101
7, 141439, Control_c, 2, 11, 102
7, 141488, Control_c, 2, 11, 103
7, 141538, Control_c, 2, 11, 104
7, 141588, Control_c, 2, 11, 105
7, 141637, Control_c, 2, 11, 106
7, 141687, Control_c, 2, 11, 107
7, 141737, Control_c, 2, 11, 108
7, 141786, Control_c, 2, 11, 109
7, 141836, Control_c, 2, 11, 110
7, 141886, Control_c, 2, 11, 111
7, 141935, Control_c, 2, 11, 112
7, 141985, Control_c, 2, 11, 113
7, 142034, Control_c, 2, 11, 114
7, 142071, Note_on_c, 2, 77, 0
7, 142080, Note_on_c, 2, 74, 68
7, 142084, Control_c, 2, 11, 115
7, 142134, Control_c, 2, 11, 116
7, 142183, Control_c, 2, 11, 117
7, 142199, Note_on_c, 2, 74, 0
7, 142200, Note_on_c, 2, 75, 68
7, 142233, Control_c, 2, 11, 118
7, 142259, Note_on_c, 2, 75, 0
7, 142260, Note_on_c, 2, 77, 68
7, 142283, Control_c, 2, 11, 119
7, 142319, Note_on_c, 2, 77, 0
7, 142320, Note_on_c, 2, 79, 68
7, 142332, Control_c, 2, 11, 120
7, 142382, Control_c, 2, 11, 121
7, 142432, Control_c, 2, 11, 122
7, 142439, Note_on_c, 2, 79, 0
7, 142440, Note_on_c, 2, 81, 68
7, 142481, Control_c, 2, 11, 123
7, 142531, Control_c, 2, 11, 124
7, 142559, Note_on_c, 2, 81, 0
7, 142560, Note_on_c, 2, 82, 68
7, 142581, Control_c, 2, 11, 125
7, 142630, Control_c, 2, 11, 126
7, 142680, Control_c, 2, 11, 127
7, 142695, Control_c, 2, 11, 125
7, 142710, Control_c, 2, 11, 124
7, 142725, Control_c, 2, 11, 122
7, 142740, Control_c, 2, 11, 120
7, 142755, Control_c, 2, 11, 119
7, 142770, Control_c, 2, 11, 117
7, 142785, Control_c, 2, 11, 115
7, 142800, Control_c, 2, 11, 114
7, 142815, Control_c, 2, 11, 112
7, 142830, Control_c, 2, 11, 110
7, 142845, Control_c, 2, 11, 109
7, 142860, Control_c, 2, 11, 107
7, 142875, Control_c, 2, 11, 105
7, 142890, Control_c, 2, 11, 104
7, 142905, Control_c, 2, 11, 102
7, 142919, Note_on_c, 2, 82, 0
7, 142920, Note_on_c, 2, 81, 68
7, 142920, Control_c, 2, 11, 100
7, 142935, Control_c, 2, 11, 99
7, 142950, Control_c, 2, 11, 97
7, 142965, Control_c, 2, 11, 95
7, 142980, Control_c, 2, 11, 94
7, 142995, Control_c, 2, 11, 92
7, 143010, Control_c, 2, 11, 90
7, 143025, Control_c, 2, 11, 89
7, 143031, Note_on_c, 2, 81, 0
7, 143040, Note_on_c, 2, 82, 68
7, 143279, Note_on_c, 2, 82, 0
7, 144480, Control_c, 2, 11, 127
7, 144840, Note_on_c, 2, 77, 38
7, 145439, Note_on_c, 2, 77, 0
7, 145440, Note_on_c, 2, 72, 38
7, 145679, Note_on_c, 2, 72, 0
7, 145680, Note_on_c, 2, 69, 38
7, 145799, Note_on_c, 2, 69, 0
7, 145800, Note_on_c, 2, 65, 38
7, 145889, Note_on_c, 2, 65, 0
7, 145920, Note_on_c, 2, 63, 44
7, 145971, Note_on_c, 2, 63, 0
7, 145980, Note_on_c, 2, 79, 44
7, 146039, Note_on_c, 2, 79, 0
7, 146040, Note_on_c, 2, 77, 44
7, 146129, Note_on_c, 2, 77, 0
7, 146340, Note_on_c, 2, 79, 44
7, 146399, Note_on_c, 2, 79, 0
7, 146400, Note_on_c, 2, 77, 44
7, 146489, Note_on_c, 2, 77, 0
7, 146700, Note_on_c, 2, 79, 44
7, 146759, Note_on_c, 2, 79, 0
7, 146760, Note_on_c, 2, 77, 44
7, 146879, Note_on_c, 2, 77, 0
7, 147060, Note_on_c, 2, 82, 46
7, 147119, Note_on_c, 2, 82, 0
7, 147120, Note_on_c, 2, 77, 46
7, 147239, Note_on_c, 2, 77, 0
7, 147420, Note_on_c, 2, 84, 48
7, 147479, Note_on_c, 2, 84, 0
7, 147480, Note_on_c, 2, 77, 48
7, 147599, Note_on_c, 2, 77, 0
7, 147780, Note_on_c, 2, 84, 50
7, 147839, Note_on_c, 2, 84, 0
7, 147840, Note_on_c, 2, 77, 50
7, 147959, Note_on_c, 2, 77, 0
7, 148140, Note_on_c, 2, 84, 51
7, 148199, Note_on_c, 2, 84, 0
7, 148200, Note_on_c, 2, 77, 52
7, 148319, Note_on_c, 2, 77, 0
7, 148500, Note_on_c, 2, 84, 53
7, 148559, Note_on_c, 2, 84, 0
7, 148560, Note_on_c, 2, 77, 54
7, 148679, Note_on_c, 2, 77, 0
7, 148860, Note_on_c, 2, 65, 55
7, 148919, Note_on_c, 2, 65, 0
7, 148920, Note_on_c, 2, 67, 56
7, 148979, Note_on_c, 2, 67, 0
7, 148980, Note_on_c, 2, 69, 56
7, 149039, Note_on_c, 2, 69, 0
7, 149040, Note_on_c, 2, 70, 56
7, 149099, Note_on_c, 2, 70, 0
7, 149100, Note_on_c, 2, 72, 56
7, 149151, Note_on_c, 2, 72, 0
7, 149160, Note_on_c, 2, 72, 57
7, 149399, Note_on_c, 2, 72, 0
7, 149580, Note_on_c, 2, 70, 59
7, 149639, Note_on_c, 2, 70, 0
7, 149640, Note_on_c, 2, 72, 59
7, 149699, Note_on_c, 2, 72, 0
7, 149700, Note_on_c, 2, 74, 60
7, 149759, Note_on_c, 2, 74, 0
7, 149760, Note_on_c, 2, 75, 60
7, 149819, Note_on_c, 2, 75, 0
7, 149820, Note_on_c, 2, 77, 60
7, 149871, Note_on_c, 2, 77, 0
7, 149880, Note_on_c, 2, 77, 61
7, 150119, Note_on_c, 2, 77, 0
7, 152100, Note_on_c, 2, 67, 48
7, 152159, Note_on_c, 2, 67, 0
7, 152160, Note_on_c, 2, 69, 52
7, 152219, Note_on_c, 2, 69, 0
7, 152220, Note_on_c, 2, 70, 56
7, 152279, Note_on_c, 2, 70, 0
7, 152280, Note_on_c, 2, 72, 60
7, 152339, Note_on_c, 2, 72, 0
7, 152340, Note_on_c, 2, 74, 64
7, 152399, Note_on_c, 2, 74, 0
7, 152400, Note_on_c, 2, 75, 68
7, 152444, Note_on_c, 2, 75, 0
7, 152460, Note_on_c, 2, 84, 64
7, 152519, Note_on_c, 2, 84, 0
7, 152520, Note_on_c, 2, 82, 60
7, 152579, Note_on_c, 2, 82, 0
7, 152580, Note_on_c, 2, 81, 56
7, 152639, Note_on_c, 2, 81, 0
7, 152640, Note_on_c, 2, 79, 52
7, 152699, Note_on_c, 2, 79, 0
7, 152700, Note_on_c, 2, 77, 48
7, 152759, Note_on_c, 2, 77, 0
7, 152760, Note_on_c, 2, 77, 44
7, 152999, Note_on_c, 2, 77, 0
7, 153540, Note_on_c, 2, 67, 48
7, 153599, Note_on_c, 2, 67, 0
7, 153600, Note_on_c, 2, 69, 52
7, 153659, Note_on_c, 2, 69, 0
7, 153660, Note_on_c, 2, 70, 56
7, 153719, Note_on_c, 2, 70, 0
7, 153720, Note_on_c, 2, 72, 60
7, 153779, Note_on_c, 2, 72, 0
7, 153780, Note_on_c, 2, 74, 64
7, 153839, Note_on_c, 2, 74, 0
7, 153840, Note_on_c, 2, 75, 68
7, 153884, Note_on_c, 2, 75, 0
7, 153900, Note_on_c, 2, 84, 64
7, 153959, Note_on_c, 2, 84, 0
7, 153960, Note_on_c, 2, 82, 60
7, 154019, Note_on_c, 2, 82, 0
7, 154020, Note_on_c, 2, 81, 56
7, 154079, Note_on_c, 2, 81, 0
7, 154080, Note_on_c, 2, 79, 52
7, 154139, Note_on_c, 2, 79, 0
7, 154140, Note_on_c, 2, 77, 48
7, 154191, Note_on_c, 2, 77, 0
7, 154200, Note_on_c, 2, 77, 44
7, 154439, Note_on_c, 2, 77, 0
7, 154620, Note_on_c, 2, 65, 52
7, 154679, Note_on_c, 2, 65, 0
7, 154680, Note_on_c, 2, 69, 60
7, 154739, Note_on_c, 2, 69, 0
7, 154740, Note_on_c, 2, 70, 68
7, 154799, Note_on_c, 2, 70, 0
7, 154800, Note_on_c, 2, 72, 76
7, 154859, Note_on_c, 2, 72, 0
7, 154860, Note_on_c, 2, 74, 84
7, 154911, Note_on_c, 2, 74, 0
7, 154920, Note_on_c, 2, 72, 92
7, 154920, Note_on_c, 2, 75, 92
7, 155159, Note_on_c, 2, 72, 0
7, 155159, Note_on_c, 2, 75, 0
7, 155280, Note_on_c, 2, 84, 92
7, 155280, Note_on_c, 2, 75, 92
7, 155519, Note_on_c, 2, 84, 0
7, 155519, Note_on_c, 2, 75, 0
7, 155640, Note_on_c, 2, 75, 80
7, 155640, Note_on_c, 2, 84, 80
7, 155879, Note_on_c, 2, 75, 0
7, 155879, Note_on_c, 2, 84, 0
7, 156000, Note_on_c, 2, 75, 68
7, 156000, Note_on_c, 2, 84, 68
7, 156239, Note_on_c, 2, 75, 0
7, 156239, Note_on_c, 2, 84, 0
7, 156360, Note_on_c, 2, 84, 56
7, 156360, Note_on_c, 2, 75, 56
7, 156599, Note_on_c, 2, 84, 0
7, 156599, Note_on_c, 2, 75, 0
7, 156720, Note_on_c, 2, 84, 44
7, 156720, Note_on_c, 2, 75, 44
7, 156959, Note_on_c, 2, 84, 0
7, 156959, Note_on_c, 2, 75, 0
7, 157080, Note_on_c, 2, 75, 32
7, 157080, Note_on_c, 2, 84, 32
7, 157319, Note_on_c, 2, 75, 0
7, 157319, Note_on_c, 2, 84, 0
7, 157440, Note_on_c, 2, 82, 44
7, 157440, Note_on_c, 2, 74, 44
7, 157679, Note_on_c, 2, 82, 0
7, 157679, Note_on_c, 2, 74, 0
7, 157800, Note_on_c, 2, 82, 48
7, 157800, Note_on_c, 2, 79, 48
7, 158039, Note_on_c, 2, 82, 0
7, 158039, Note_on_c, 2, 79, 0
7, 158160, Note_on_c, 2, 74, 53
7, 158160, Note_on_c, 2, 82, 53
7, 158399, Note_on_c, 2, 74, 0
7, 158399, Note_on_c, 2, 82, 0
7, 158520, Note_on_c, 2, 81, 57
7, 158520, Note_on_c, 2, 84, 57
7, 158759, Note_on_c, 2, 81, 0
7, 158759, Note_on_c, 2, 84, 0
7, 158880, Note_on_c, 2, 82, 62
7, 158880, Note_on_c, 2, 74, 62
7, 159119, Note_on_c, 2, 82, 0
7, 159119, Note_on_c, 2, 74, 0
7, 159240, Note_on_c, 2, 82, 66
7, 159240, Note_on_c, 2, 79, 66
7, 159479, Note_on_c, 2, 82, 0
7, 159479, Note_on_c, 2, 79, 0
7, 159600, Note_on_c, 2, 82, 71
7, 159600, Note_on_c, 2, 74, 71
7, 159839, Note_on_c, 2, 82, 0
7, 159839, Note_on_c, 2, 74, 0
7, 159960, Note_on_c, 2, 84, 75
7, 159960, Note_on_c, 2, 81, 75
7, 160191, Note_on_c, 2, 84, 0
7, 160191, Note_on_c, 2, 81, 0
7, 160200, Note_on_c, 2, 81, 80
7, 160200, Note_on_c, 2, 84, 80
7, 160319, Note_on_c, 2, 81, 0
7, 160319, Note_on_c, 2, 84, 0
7, 161040, Note_on_c, 2, 74, 44
7, 161040, Note_on_c, 2, 82, 44
7, 161279, Note_on_c, 2, 74, 0
7, 161279, Note_on_c, 2, 82, 0
7, 164400, Control_c, 2, 11, 49
7, 164520, Note_on_c, 2, 84, 80
7, 164639, Note_on_c, 2, 84, 0
7, 164640, Note_on_c, 2, 74, 80
7, 164640, Control_c, 2, 11, 49
7, 164658, Control_c, 2, 11, 50
7, 164677, Control_c, 2, 11, 51
7, 164695, Control_c, 2, 11, 52
7, 164714, Control_c, 2, 11, 53
7, 164732, Control_c, 2, 11, 54
7, 164751, Control_c, 2, 11, 55
7, 164769, Control_c, 2, 11, 56
7, 164788, Control_c, 2, 11, 57
7, 164806, Control_c, 2, 11, 58
7, 164825, Control_c, 2, 11, 59
7, 164843, Control_c, 2, 11, 60
7, 164862, Control_c, 2, 11, 61
7, 164880, Control_c, 2, 11, 62
7, 164898, Control_c, 2, 11, 63
7, 164917, Control_c, 2, 11, 64
7, 164935, Control_c, 2, 11, 65
7, 164954, Control_c, 2, 11, 66
7, 164972, Control_c, 2, 11, 67
7, 164991, Control_c, 2, 11, 68
7, 164999, Note_on_c, 2, 74, 0
7, 165000, Note_on_c, 2, 77, 80
7, 165009, Control_c, 2, 11, 69
7, 165028, Control_c, 2, 11, 70
7, 165046, Control_c, 2, 11, 71
7, 165065, Control_c, 2, 11, 72
7, 165083, Control_c, 2, 11, 73
7, 165102, Control_c, 2, 11, 74
7, 165120, Control_c, 2, 11, 75
7, 165138, Control_c, 2, 11, 76
7, 165157, Control_c, 2, 11, 77
7, 165175, Control_c, 2, 11, 78
7, 165194, Control_c, 2, 11, 79
7, 165212, Control_c, 2, 11, 80
7, 165231, Control_c, 2, 11, 81
7, 165249, Control_c, 2, 11, 82
7, 165268, Control_c, 2, 11, 83
7, 165286, Control_c, 2, 11, 84
7, 165305, Control_c, 2, 11, 85
7, 165323, Control_c, 2, 11, 86
7, 165342, Control_c, 2, 11, 87
7, 165359, Note_on_c, 2, 77, 0
7, 165360, Note_on_c, 2, 82, 80
7, 165360, Control_c, 2, 11, 88
7, 165378, Control_c, 2, 11, 89
7, 165397, Control_c, 2, 11, 90
7, 165415, Control_c, 2, 11, 91
7, 165434, Control_c, 2, 11, 92
7, 165452, Control_c, 2, 11, 93
7, 165471, Control_c, 2, 11, 94
7, 165489, Control_c, 2, 11, 95
7, 165508, Control_c, 2, 11, 96
7, 165526, Control_c, 2, 11, 97
7, 165545, Control_c, 2, 11, 98
7, 165563, Control_c, 2, 11, 99
7, 165582, Control_c, 2, 11, 100
7, 165600, Control_c, 2, 11, 101
7, 165618, Control_c, 2, 11, 102
7, 165637, Control_c, 2, 11, 103
7, 165655, Control_c, 2, 11, 104
7, 165674, Control_c, 2, 11, 105
7, 165692, Control_c, 2, 11, 106
7, 165711, Control_c, 2, 11, 107
7, 165719, Note_on_c, 2, 82, 0
7, 165720, Note_on_c, 2, 86, 80
7, 165729, Control_c, 2, 11, 108
7, 165748, Control_c, 2, 11, 109
7, 165766, Control_c, 2, 11, 110
7, 165785, Control_c, 2, 11, 111
7, 165803, Control_c, 2, 11, 112
7, 165822, Control_c, 2, 11, 113
7, 165840, Control_c, 2, 11, 114
7, 165858, Control_c, 2, 11, 115
7, 165877, Control_c, 2, 11, 116
7, 165895, Control_c, 2, 11, 117
7, 165914, Control_c, 2, 11, 118
7, 165932, Control_c, 2, 11, 119
7, 165951, Control_c, 2, 11, 120
7, 165969, Control_c, 2, 11, 121
7, 165988, Control_c, 2, 11, 122
7, 166006, Control_c, 2, 11, 123
7, 166025, Control_c, 2, 11, 124
7, 166043, Control_c, 2, 11, 125
7, 166062, Control_c, 2, 11, 126
7, 166071, Note_on_c, 2, 86, 0
7, 166080, Note_on_c, 2, 86, 80
7, 166791, Note_on_c, 2, 86, 0
7, 166800, Note_on_c, 2, 81, 80
7, 166800, Control_c, 2, 11, 127
7, 166815, Control_c, 2, 11, 126
7, 166830, Control_c, 2, 11, 125
7, 166845, Control_c, 2, 11, 123
7, 166860, Control_c, 2, 11, 122
7, 166875, Control_c, 2, 11, 121
7, 166890, Control_c, 2, 11, 120
7, 166905, Control_c, 2, 11, 118
7, 166920, Control_c, 2, 11, 117
7, 166935, Control_c, 2, 11, 116
7, 166950, Control_c, 2, 11, 115
7, 166965, Control_c, 2, 11, 113
7, 166980, Control_c, 2, 11, 112
7, 166995, Control_c, 2, 11, 111
7, 167010, Control_c, 2, 11, 110
7, 167025, Control_c, 2, 11, 108
7, 167040, Control_c, 2, 11, 107
7, 167055, Control_c, 2, 11, 106
7, 167070, Control_c, 2, 11, 105
7, 167085, Control_c, 2, 11, 103
7, 167100, Control_c, 2, 11, 102
7, 167115, Control_c, 2, 11, 101
7, 167130, Control_c, 2, 11, 100
7, 167145, Control_c, 2, 11, 98
7, 167160, Control_c, 2, 11, 97
7, 167175, Control_c, 2, 11, 96
7, 167190, Control_c, 2, 11, 95
7, 167205, Control_c, 2, 11, 93
7, 167220, Control_c, 2, 11, 92
7, 167235, Control_c, 2, 11, 91
7, 167250, Control_c, 2, 11, 90
7, 167265, Control_c, 2, 11, 88
7, 167280, Control_c, 2, 11, 87
7, 167295, Control_c, 2, 11, 86
7, 167310, Control_c, 2, 11, 85
7, 167325, Control_c, 2, 11, 83
7, 167340, Control_c, 2, 11, 82
7, 167355, Control_c, 2, 11, 81
7, 167370, Control_c, 2, 11, 80
7, 167385, Control_c, 2, 11, 78
7, 167399, Note_on_c, 2, 81, 0
7, 167400, Note_on_c, 2, 84, 80
7, 167400, Control_c, 2, 11, 77
7, 167415, Control_c, 2, 11, 76
7, 167430, Control_c, 2, 11, 75
7, 167445, Control_c, 2, 11, 73
7, 167460, Control_c, 2, 11, 72
7, 167475, Control_c, 2, 11, 71
7, 167490, Control_c, 2, 11, 70
7, 167511, Note_on_c, 2, 84, 0
7, 167518, Control_c, 2, 11, 87
7, 167520, Note_on_c, 2, 75, 68
7, 167879, Note_on_c, 2, 75, 0
7, 167880, Note_on_c, 2, 77, 68
7, 168239, Note_on_c, 2, 77, 0
7, 168240, Note_on_c, 2, 74, 68
7, 168659, Note_on_c, 2, 74, 0
7, 168660, Note_on_c, 2, 75, 68
7, 168719, Note_on_c, 2, 75, 0
7, 168720, Note_on_c, 2, 77, 68
7, 168779, Note_on_c, 2, 77, 0
7, 168780, Note_on_c, 2, 79, 68
7, 168839, Note_on_c, 2, 79, 0
7, 168840, Note_on_c, 2, 81, 68
7, 168899, Note_on_c, 2, 81, 0
7, 168900, Note_on_c, 2, 82, 68
7, 168951, Note_on_c, 2, 82, 0
7, 168958, Control_c, 2, 11, 107
7, 168960, Note_on_c, 2, 84, 56
7, 169311, Note_on_c, 2, 84, 0
7, 169318, Control_c, 2, 11, 127
7, 169320, Note_on_c, 2, 81, 80
7, 169320, Note_on_c, 2, 72, 80
7, 169559, Note_on_c, 2, 81, 0
7, 169559, Note_on_c, 2, 72, 0
7, 169680, Note_on_c, 2, 74, 32
7, 169680, Note_on_c, 2, 82, 32
7, 169784, Note_on_c, 2, 74, 0
7, 169784, Note_on_c, 2, 82, 0
7, 169800, Note_on_c, 2, 82, 32
7, 169800, Note_on_c, 2, 74, 32
7, 169904, Note_on_c, 2, 82, 0
7, 169904, Note_on_c, 2, 74, 0
7, 169920, Note_on_c, 2, 82, 32
7, 169920, Note_on_c, 2, 74, 32
7, 170009, Note_on_c, 2, 82, 0
7, 170009, Note_on_c, 2, 74, 0
7, 170040, Note_on_c, 2, 74, 32
7, 170040, Note_on_c, 2, 82, 32
7, 170279, Note_on_c, 2, 74, 0
7, 170279, Note_on_c, 2, 82, 0
7, 170279, End_track
8, 0, Start_track
8, 0, Title_t, "Clarinet in B-flat"
8, 0, MIDI_port, 0
8, 0, Program_c, 3, 71
8, 0, Control_c, 3, 121, 0
8, 0, Control_c, 3, 7, 96
8, 0, Control_c, 3, 10, 75
8, 0, Control_c, 3, 11, 127
8, 480, Control_c, 3, 11, 89
8, 600, Note_on_c, 3, 74, 68
8, 600, Control_c, 3, 11, 89
8, 650, Control_c, 3, 11, 92
8, 700, Control_c, 3, 11, 95
8, 719, Note_on_c, 3, 74, 0
8, 720, Note_on_c, 3, 72, 68
8, 750, Control_c, 3, 11, 99
8, 800, Control_c, 3, 11, 101
8, 840, Note_on_c, 3, 79, 68
8, 850, Control_c, 3, 11, 105
8, 900, Control_c, 3, 11, 109
8, 950, Control_c, 3, 11, 111
8, 959, Note_on_c, 3, 79, 0
8, 960, Note_on_c, 3, 77, 68
8, 1000, Control_c, 3, 11, 115
8, 1050, Control_c, 3, 11, 117
8, 1100, Control_c, 3, 11, 121
8, 1150, Control_c, 3, 11, 124
8, 1199, Note_on_c, 3, 72, 0
8, 1199, Note_on_c, 3, 77, 0
8, 1200, Note_on_c, 3, 69, 68
8, 1200, Control_c, 3, 11, 127
8, 1200, Note_on_c, 3, 75, 68
8, 1440, Control_c, 3, 11, 127
8, 1480, Control_c, 3, 11, 124
8, 1520, Control_c, 3, 11, 121
8, 1560, Control_c, 3, 11, 117
8, 1600, Control_c, 3, 11, 115
8, 1640, Control_c, 3, 11, 111
8, 1680, Control_c, 3, 11, 109
8, 1720, Control_c, 3, 11, 105
8, 1760, Control_c, 3, 11, 101
8, 1799, Note_on_c, 3, 69, 0
8, 1799, Note_on_c, 3, 75, 0
8, 1800, Note_on_c, 3, 70, 68
8, 1800, Note_on_c, 3, 74, 68
8, 1800, Control_c, 3, 11, 99
8, 1840, Control_c, 3, 11, 95
8, 1880, Control_c, 3, 11, 92
8, 1911, Note_on_c, 3, 70, 0
8, 1911, Note_on_c, 3, 74, 0
8, 1920, Note_on_c, 3, 70, 68
8, 1920, Control_c, 3, 11, 89
8, 1920, Note_on_c, 3, 74, 68
8, 2159, Note_on_c, 3, 70, 0
8, 2159, Note_on_c, 3, 74, 0
8, 5520, Control_c, 3, 11, 89
8, 5640, Note_on_c, 3, 72, 68
8, 5640, Note_on_c, 3, 65, 68
8, 5759, Note_on_c, 3, 72, 0
8, 5759, Note_on_c, 3, 65, 0
8, 5760, Control_c, 3, 11, 89
8, 5760, Note_on_c, 3, 65, 68
8, 5760, Note_on_c, 3, 74, 68
8, 5800, Control_c, 3, 11, 92
8, 5840, Control_c, 3, 11, 95
8, 5879, Note_on_c, 3, 65, 0
8, 5880, Note_on_c, 3, 70, 68
8, 5880, Control_c, 3, 11, 99
8, 5920, Control_c, 3, 11, 101
8, 5960, Control_c, 3, 11, 105
8, 5999, Note_on_c, 3, 74, 0
8, 5999, Note_on_c, 3, 70, 0
8, 6000, Note_on_c, 3, 77, 68
8, 6000, Note_on_c, 3, 74, 68
8, 6000, Control_c, 3, 11, 109
8, 6040, Control_c, 3, 11, 111
8, 6080, Control_c, 3, 11, 115
8, 6119, Note_on_c, 3, 77, 0
8, 6119, Note_on_c, 3, 74, 0
8, 6120, Note_on_c, 3, 75, 68
8, 6120, Note_on_c, 3, 72, 68
8, 6120, Control_c, 3, 11, 117
8, 6160, Control_c, 3, 11, 121
8, 6200, Control_c, 3, 11, 124
8, 6231, Note_on_c, 3, 72, 0
8, 6239, Note_on_c, 3, 75, 0
8, 6240, Control_c, 3, 11, 127
8, 6240, Note_on_c, 3, 72, 68
8, 6280, Control_c, 3, 11, 121
8, 6320, Control_c, 3, 11, 115
8, 6360, Note_on_c, 3, 57, 68
8, 6360, Control_c, 3, 11, 109
8, 6400, Control_c, 3, 11, 101
8, 6440, Control_c, 3, 11, 95
8, 6479, Note_on_c, 3, 72, 0
8, 6479, Note_on_c, 3, 57, 0
8, 6480, Note_on_c, 3, 67, 68
8, 6480, Control_c, 3, 11, 89
8, 6599, Note_on_c, 3, 67, 0
8, 6600, Note_on_c, 3, 65, 68
8, 6711, Note_on_c, 3, 65, 0
8, 6720, Note_on_c, 3, 65, 68
8, 6959, Note_on_c, 3, 65, 0
8, 10320, Note_on_c, 3, 72, 68
8, 10320, Note_on_c, 3, 65, 68
8, 10439, Note_on_c, 3, 72, 0
8, 10439, Note_on_c, 3, 65, 0
8, 10440, Note_on_c, 3, 73, 68
8, 10440, Note_on_c, 3, 63, 68
8, 10551, Note_on_c, 3, 73, 0
8, 10551, Note_on_c, 3, 63, 0
8, 10560, Control_c, 3, 11, 89
8, 10560, Note_on_c, 3, 63, 68
8, 10560, Note_on_c, 3, 73, 68
8, 10600, Control_c, 3, 11, 92
8, 10640, Control_c, 3, 11, 95
8, 10680, Control_c, 3, 11, 99
8, 10720, Control_c, 3, 11, 101
8, 10760, Control_c, 3, 11, 105
8, 10800, Control_c, 3, 11, 109
8, 10840, Control_c, 3, 11, 111
8, 10880, Control_c, 3, 11, 115
8, 10919, Note_on_c, 3, 63, 0
8, 10919, Note_on_c, 3, 73, 0
8, 10920, Note_on_c, 3, 74, 68
8, 10920, Note_on_c, 3, 62, 68
8, 10920, Control_c, 3, 11, 117
8, 10960, Control_c, 3, 11, 121
8, 11000, Control_c, 3, 11, 124
8, 11031, Note_on_c, 3, 74, 0
8, 11031, Note_on_c, 3, 62, 0
8, 11040, Note_on_c, 3, 62, 68
8, 11040, Control_c, 3, 11, 127
8, 11040, Note_on_c, 3, 74, 68
8, 11080, Control_c, 3, 11, 121
8, 11120, Control_c, 3, 11, 115
8, 11160, Control_c, 3, 11, 109
8, 11200, Control_c, 3, 11, 101
8, 11240, Control_c, 3, 11, 95
8, 11279, Note_on_c, 3, 62, 0
8, 11279, Note_on_c, 3, 74, 0
8, 11280, Control_c, 3, 11, 89
8, 13200, Note_on_c, 3, 74, 68
8, 13200, Note_on_c, 3, 70, 68
8, 13319, Note_on_c, 3, 74, 0
8, 13320, Note_on_c, 3, 77, 68
8, 13431, Note_on_c, 3, 70, 0
8, 13431, Note_on_c, 3, 77, 0
8, 13440, Note_on_c, 3, 77, 68
8, 13440, Note_on_c, 3, 70, 68
8, 13440, Control_c, 3, 11, 89
8, 13480, Control_c, 3, 11, 95
8, 13520, Control_c, 3, 11, 101
8, 13560, Control_c, 3, 11, 109
8, 13600, Control_c, 3, 11, 115
8, 13640, Control_c, 3, 11, 121
8, 13679, Note_on_c, 3, 77, 0
8, 13679, Note_on_c, 3, 70, 0
8, 13680, Control_c, 3, 11, 127
8, 13680, Note_on_c, 3, 72, 68
8, 13680, Note_on_c, 3, 75, 68
8, 13800, Control_c, 3, 11, 127
8, 13840, Control_c, 3, 11, 121
8, 13880, Control_c, 3, 11, 115
8, 13920, Control_c, 3, 11, 109
8, 13960, Control_c, 3, 11, 101
8, 14000, Control_c, 3, 11, 95
8, 14039, Note_on_c, 3, 72, 0
8, 14039, Note_on_c, 3, 75, 0
8, 14040, Note_on_c, 3, 74, 68
8, 14040, Note_on_c, 3, 70, 68
8, 14040, Control_c, 3, 11, 89
8, 14159, Note_on_c, 3, 74, 0
8, 14159, Note_on_c, 3, 70, 0
8, 16320, Control_c, 3, 11, 127
8, 17040, Note_on_c, 3, 75, 38
8, 17040, Note_on_c, 3, 72, 38
8, 17159, Note_on_c, 3, 75, 0
8, 17159, Note_on_c, 3, 72, 0
8, 17160, Note_on_c, 3, 72, 38
8, 17160, Note_on_c, 3, 69, 38
8, 17271, Note_on_c, 3, 72, 0
8, 17271, Note_on_c, 3, 69, 0
8, 17280, Note_on_c, 3, 72, 38
8, 17280, Note_on_c, 3, 63, 38
8, 17639, Note_on_c, 3, 72, 0
8, 17639, Note_on_c, 3, 63, 0
8, 17640, Note_on_c, 3, 74, 38
8, 17640, Note_on_c, 3, 65, 38
8, 17759, Note_on_c, 3, 74, 0
8, 17759, Note_on_c, 3, 65, 0
8, 17760, Note_on_c, 3, 70, 38
8, 17760, Note_on_c, 3, 62, 38
8, 17991, Note_on_c, 3, 70, 0
8, 17991, Note_on_c, 3, 62, 0
8, 18000, Note_on_c, 3, 70, 38
8, 18000, Note_on_c, 3, 74, 38
8, 18119, Note_on_c, 3, 70, 0
8, 18119, Note_on_c, 3, 74, 0
8, 18120, Note_on_c, 3, 72, 38
8, 18120, Note_on_c, 3, 75, 38
8, 18231, Note_on_c, 3, 72, 0
8, 18231, Note_on_c, 3, 75, 0
8, 18238, Control_c, 3, 11, 89
8, 18240, Note_on_c, 3, 72, 68
8, 18240, Note_on_c, 3, 75, 68
8, 18599, Note_on_c, 3, 72, 0
8, 18599, Note_on_c, 3, 75, 0
8, 18600, Control_c, 3, 11, 89
8, 18600, Note_on_c, 3, 74, 68
8, 18600, Note_on_c, 3, 77, 68
8, 18719, Note_on_c, 3, 74, 0
8, 18719, Note_on_c, 3, 77, 0
8, 18720, Note_on_c, 3, 75, 68
8, 18720, Note_on_c, 3, 72, 68
8, 18730, Control_c, 3, 11, 92
8, 18839, Note_on_c, 3, 75, 0
8, 18839, Note_on_c, 3, 72, 0
8, 18840, Note_on_c, 3, 74, 68
8, 18840, Note_on_c, 3, 70, 68
8, 18860, Control_c, 3, 11, 95
8, 18959, Note_on_c, 3, 74, 0
8, 18959, Note_on_c, 3, 70, 0
8, 18960, Note_on_c, 3, 79, 68
8, 18960, Note_on_c, 3, 67, 68
8, 18990, Control_c, 3, 11, 99
8, 19079, Note_on_c, 3, 67, 0
8, 19080, Note_on_c, 3, 75, 68
8, 19120, Control_c, 3, 11, 101
8, 19191, Note_on_c, 3, 79, 0
8, 19191, Note_on_c, 3, 75, 0
8, 19200, Note_on_c, 3, 79, 68
8, 19200, Note_on_c, 3, 75, 68
8, 19250, Control_c, 3, 11, 105
8, 19311, Note_on_c, 3, 75, 0
8, 19320, Note_on_c, 3, 70, 68
8, 19380, Control_c, 3, 11, 109
8, 19431, Note_on_c, 3, 70, 0
8, 19440, Note_on_c, 3, 70, 68
8, 19510, Control_c, 3, 11, 111
8, 19551, Note_on_c, 3, 70, 0
8, 19560, Note_on_c, 3, 70, 68
8, 19640, Control_c, 3, 11, 115
8, 19671, Note_on_c, 3, 70, 0
8, 19680, Note_on_c, 3, 70, 68
8, 19770, Control_c, 3, 11, 117
8, 19791, Note_on_c, 3, 79, 0
8, 19800, Note_on_c, 3, 79, 68
8, 19900, Control_c, 3, 11, 121
8, 19919, Note_on_c, 3, 79, 0
8, 19920, Note_on_c, 3, 81, 68
8, 20030, Control_c, 3, 11, 124
8, 20039, Note_on_c, 3, 70, 0
8, 20039, Note_on_c, 3, 81, 0
8, 20040, Note_on_c, 3, 82, 68
8, 20040, Note_on_c, 3, 69, 68
8, 20099, Note_on_c, 3, 69, 0
8, 20100, Note_on_c, 3, 67, 68
8, 20151, Note_on_c, 3, 82, 0
8, 20151, Note_on_c, 3, 67, 0
8, 20160, Note_on_c, 3, 67, 68
8, 20160, Control_c, 3, 11, 127
8, 20160, Note_on_c, 3, 82, 68
8, 20200, Control_c, 3, 11, 124
8, 20240, Control_c, 3, 11, 121
8, 20279, Note_on_c, 3, 67, 0
8, 20280, Control_c, 3, 11, 117
8, 20280, Note_on_c, 3, 65, 68
8, 20320, Control_c, 3, 11, 115
8, 20360, Control_c, 3, 11, 111
8, 20399, Note_on_c, 3, 65, 0
8, 20400, Control_c, 3, 11, 109
8, 20400, Note_on_c, 3, 70, 68
8, 20440, Control_c, 3, 11, 105
8, 20480, Control_c, 3, 11, 101
8, 20519, Note_on_c, 3, 82, 0
8, 20519, Note_on_c, 3, 70, 0
8, 20520, Note_on_c, 3, 70, 68
8, 20520, Note_on_c, 3, 74, 68
8, 20520, Control_c, 3, 11, 99
8, 20560, Control_c, 3, 11, 95
8, 20600, Control_c, 3, 11, 92
8, 20631, Note_on_c, 3, 70, 0
8, 20631, Note_on_c, 3, 74, 0
8, 20640, Note_on_c, 3, 74, 68
8, 20640, Note_on_c, 3, 77, 68
8, 20640, Control_c, 3, 11, 89
8, 20879, Note_on_c, 3, 74, 0
8, 20879, Note_on_c, 3, 77, 0
8, 20880, Note_on_c, 3, 72, 68
8, 20880, Note_on_c, 3, 75, 68
8, 20999, Note_on_c, 3, 72, 0
8, 20999, Note_on_c, 3, 75, 0
8, 21000, Note_on_c, 3, 69, 68
8, 21000, Note_on_c, 3, 72, 68
8, 21111, Note_on_c, 3, 69, 0
8, 21111, Note_on_c, 3, 72, 0
8, 21120, Note_on_c, 3, 69, 62
8, 21120, Note_on_c, 3, 75, 62
8, 21831, Note_on_c, 3, 69, 0
8, 21831, Note_on_c, 3, 75, 0
8, 21840, Note_on_c, 3, 69, 62
8, 21840, Note_on_c, 3, 74, 62
8, 22919, Note_on_c, 3, 74, 0
8, 22920, Note_on_c, 3, 66, 56
8, 23039, Note_on_c, 3, 69, 0
8, 23039, Note_on_c, 3, 66, 0
8, 23040, Note_on_c, 3, 66, 56
8, 23040, Note_on_c, 3, 69, 56
8, 23159, Note_on_c, 3, 66, 0
8, 23160, Note_on_c, 3, 64, 56
8, 23279, Note_on_c, 3, 69, 0
8, 23279, Note_on_c, 3, 64, 0
8, 24960, Control_c, 3, 11, 87
8, 25020, Control_c, 3, 11, 88
8, 25080, Control_c, 3, 11, 89
8, 25080, Note_on_c, 3, 67, 68
8, 25140, Control_c, 3, 11, 90
8, 25200, Control_c, 3, 11, 91
8, 25260, Control_c, 3, 11, 92
8, 25320, Control_c, 3, 11, 93
8, 25380, Control_c, 3, 11, 94
8, 25439, Note_on_c, 3, 67, 0
8, 25440, Note_on_c, 3, 66, 68
8, 25440, Control_c, 3, 11, 95
8, 25500, Control_c, 3, 11, 96
8, 25559, Note_on_c, 3, 66, 0
8, 25560, Control_c, 3, 11, 97
8, 25620, Control_c, 3, 11, 98
8, 25680, Control_c, 3, 11, 99
8, 28008, Control_c, 3, 11, 87
8, 28080, Control_c, 3, 11, 87
8, 28080, Note_on_c, 3, 67, 68
8, 28116, Control_c, 3, 11, 86
8, 28152, Control_c, 3, 11, 85
8, 28188, Control_c, 3, 11, 84
8, 28224, Control_c, 3, 11, 83
8, 28260, Control_c, 3, 11, 82
8, 28296, Control_c, 3, 11, 81
8, 28332, Control_c, 3, 11, 80
8, 28368, Control_c, 3, 11, 79
8, 28404, Control_c, 3, 11, 78
8, 28439, Note_on_c, 3, 67, 0
8, 28440, Note_on_c, 3, 64, 68
8, 28440, Control_c, 3, 11, 77
8, 28476, Control_c, 3, 11, 76
8, 28512, Control_c, 3, 11, 75
8, 28548, Control_c, 3, 11, 74
8, 28551, Note_on_c, 3, 64, 0
8, 28560, Note_on_c, 3, 62, 68
8, 28584, Control_c, 3, 11, 73
8, 28620, Control_c, 3, 11, 72
8, 28656, Control_c, 3, 11, 71
8, 28679, Note_on_c, 3, 62, 0
8, 28680, Note_on_c, 3, 66, 68
8, 28680, Note_on_c, 3, 69, 68
8, 28692, Control_c, 3, 11, 70
8, 28728, Control_c, 3, 11, 69
8, 28764, Control_c, 3, 11, 68
8, 28798, Control_c, 3, 11, 87
8, 28919, Note_on_c, 3, 66, 0
8, 28920, Note_on_c, 3, 64, 68
8, 29280, Control_c, 3, 11, 89
8, 29600, Control_c, 3, 11, 92
8, 29631, Note_on_c, 3, 64, 0
8, 29640, Note_on_c, 3, 66, 68
8, 29920, Control_c, 3, 11, 95
8, 30240, Control_c, 3, 11, 99
8, 30351, Note_on_c, 3, 66, 0
8, 30360, Note_on_c, 3, 67, 68
8, 30560, Control_c, 3, 11, 101
8, 30880, Control_c, 3, 11, 105
8, 31071, Note_on_c, 3, 67, 0
8, 31080, Note_on_c, 3, 66, 68
8, 31200, Control_c, 3, 11, 109
8, 31520, Control_c, 3, 11, 111
8, 31679, Note_on_c, 3, 69, 0
8, 31680, Note_on_c, 3, 69, 68
8, 31791, Note_on_c, 3, 66, 0
8, 31800, Note_on_c, 3, 64, 68
8, 31840, Control_c, 3, 11, 115
8, 32160, Control_c, 3, 11, 117
8, 32480, Control_c, 3, 11, 121
8, 32511, Note_on_c, 3, 64, 0
8, 32520, Note_on_c, 3, 66, 68
8, 32800, Control_c, 3, 11, 124
8, 33231, Note_on_c, 3, 66, 0
8, 33240, Control_c, 3, 11, 127
8, 33240, Note_on_c, 3, 67, 68
8, 33840, Control_c, 3, 11, 127
8, 33900, Control_c, 3, 11, 124
8, 33960, Control_c, 3, 11, 121
8, 34020, Control_c, 3, 11, 117
8, 34080, Control_c, 3, 11, 115
8, 34140, Control_c, 3, 11, 111
8, 34191, Note_on_c, 3, 67, 0
8, 34200, Control_c, 3, 11, 109
8, 34200, Note_on_c, 3, 64, 68
8, 34260, Control_c, 3, 11, 105
8, 34319, Note_on_c, 3, 64, 0
8, 34320, Note_on_c, 3, 62, 68
8, 34320, Control_c, 3, 11, 101
8, 34380, Control_c, 3, 11, 99
8, 34439, Note_on_c, 3, 69, 0
8, 34439, Note_on_c, 3, 62, 0
8, 34440, Note_on_c, 3, 66, 68
8, 34440, Control_c, 3, 11, 95
8, 34440, Note_on_c, 3, 74, 68
8, 34500, Control_c, 3, 11, 92
8, 34559, Note_on_c, 3, 66, 0
8, 34559, Note_on_c, 3, 74, 0
8, 34560, Note_on_c, 3, 76, 68
8, 34560, Control_c, 3, 11, 89
8, 34560, Note_on_c, 3, 67, 68
8, 34620, Control_c, 3, 11, 87
8, 34680, Control_c, 3, 11, 85
8, 34740, Control_c, 3, 11, 84
8, 34800, Control_c, 3, 11, 82
8, 34860, Control_c, 3, 11, 80
8, 34919, Note_on_c, 3, 76, 0
8, 34919, Note_on_c, 3, 67, 0
8, 34920, Note_on_c, 3, 67, 68
8, 34920, Note_on_c, 3, 64, 68
8, 34920, Control_c, 3, 11, 79
8, 34980, Control_c, 3, 11, 77
8, 35031, Note_on_c, 3, 67, 0
8, 35031, Note_on_c, 3, 64, 0
8, 35040, Note_on_c, 3, 65, 68
8, 35040, Control_c, 3, 11, 75
8, 35040, Note_on_c, 3, 62, 68
8, 35100, Control_c, 3, 11, 74
8, 35160, Control_c, 3, 11, 72
8, 35220, Control_c, 3, 11, 70
8, 35759, Note_on_c, 3, 65, 0
8, 35759, Note_on_c, 3, 62, 0
8, 35760, Note_on_c, 3, 60, 68
8, 35760, Note_on_c, 3, 63, 68
8, 35991, Note_on_c, 3, 60, 0
8, 35991, Note_on_c, 3, 63, 0
8, 36000, Note_on_c, 3, 58, 44
8, 36000, Control_c, 3, 11, 127
8, 36000, Note_on_c, 3, 62, 44
8, 36239, Note_on_c, 3, 58, 0
8, 36239, Note_on_c, 3, 62, 0
8, 36240, Note_on_c, 3, 65, 44
8, 36240, Note_on_c, 3, 62, 44
8, 36479, Note_on_c, 3, 62, 0
8, 36480, Note_on_c, 3, 60, 44
8, 36719, Note_on_c, 3, 65, 0
8, 36720, Note_on_c, 3, 69, 44
8, 36959, Note_on_c, 3, 60, 0
8, 36959, Note_on_c, 3, 69, 0
8, 36960, Note_on_c, 3, 70, 44
8, 36960, Note_on_c, 3, 58, 44
8, 37199, Note_on_c, 3, 70, 0
8, 37200, Note_on_c, 3, 65, 44
8, 37439, Note_on_c, 3, 58, 0
8, 37440, Note_on_c, 3, 60, 44
8, 37799, Note_on_c, 3, 65, 0
8, 37800, Note_on_c, 3, 63, 44
8, 37911, Note_on_c, 3, 60, 0
8, 37911, Note_on_c, 3, 63, 0
8, 37918, Control_c, 3, 11, 89
8, 37920, Note_on_c, 3, 58, 68
8, 37920, Note_on_c, 3, 62, 68
8, 38159, Note_on_c, 3, 58, 0
8, 38159, Note_on_c, 3, 62, 0
8, 38160, Note_on_c, 3, 60, 68
8, 38160, Note_on_c, 3, 65, 68
8, 38399, Note_on_c, 3, 60, 0
8, 38399, Note_on_c, 3, 65, 0
8, 38400, Note_on_c, 3, 70, 68
8, 38400, Note_on_c, 3, 58, 68
8, 38880, Control_c, 3, 11, 89
8, 38950, Control_c, 3, 11, 92
8, 39020, Control_c, 3, 11, 96
8, 39090, Control_c, 3, 11, 100
8, 39158, Control_c, 3, 11, 104
8, 39228, Control_c, 3, 11, 107
8, 39298, Control_c, 3, 11, 111
8, 39368, Control_c, 3, 11, 115
8, 39438, Control_c, 3, 11, 119
8, 39479, Note_on_c, 3, 70, 0
8, 39479, Note_on_c, 3, 58, 0
8, 39480, Note_on_c, 3, 57, 68
8, 39480, Note_on_c, 3, 69, 68
8, 39508, Control_c, 3, 11, 122
8, 39576, Control_c, 3, 11, 125
8, 39599, Note_on_c, 3, 57, 0
8, 39599, Note_on_c, 3, 69, 0
8, 39600, Control_c, 3, 11, 127
8, 39600, Note_on_c, 3, 79, 68
8, 39600, Note_on_c, 3, 67, 68
8, 39640, Control_c, 3, 11, 121
8, 39680, Control_c, 3, 11, 115
8, 39719, Note_on_c, 3, 79, 0
8, 39719, Note_on_c, 3, 67, 0
8, 39720, Note_on_c, 3, 65, 68
8, 39720, Control_c, 3, 11, 109
8, 39720, Note_on_c, 3, 77, 68
8, 39760, Control_c, 3, 11, 101
8, 39779, Note_on_c, 3, 65, 0
8, 39779, Note_on_c, 3, 77, 0
8, 39780, Note_on_c, 3, 63, 68
8, 39780, Note_on_c, 3, 75, 68
8, 39800, Control_c, 3, 11, 95
8, 39831, Note_on_c, 3, 63, 0
8, 39831, Note_on_c, 3, 75, 0
8, 39840, Note_on_c, 3, 74, 68
8, 39840, Control_c, 3, 11, 89
8, 39840, Note_on_c, 3, 62, 68
8, 39880, Control_c, 3, 11, 92
8, 39920, Control_c, 3, 11, 95
8, 39959, Note_on_c, 3, 62, 0
8, 39960, Note_on_c, 3, 70, 68
8, 39960, Control_c, 3, 11, 99
8, 40000, Control_c, 3, 11, 101
8, 40040, Control_c, 3, 11, 105
8, 40079, Note_on_c, 3, 74, 0
8, 40079, Note_on_c, 3, 70, 0
8, 40080, Control_c, 3, 11, 109
8, 40080, Note_on_c, 3, 74, 68
8, 40080, Note_on_c, 3, 77, 68
8, 40120, Control_c, 3, 11, 111
8, 40160, Control_c, 3, 11, 115
8, 40199, Note_on_c, 3, 74, 0
8, 40199, Note_on_c, 3, 77, 0
8, 40200, Note_on_c, 3, 72, 68
8, 40200, Note_on_c, 3, 75, 68
8, 40200, Control_c, 3, 11, 117
8, 40240, Control_c, 3, 11, 121
8, 40280, Control_c, 3, 11, 124
8, 40311, Note_on_c, 3, 72, 0
8, 40311, Note_on_c, 3, 75, 0
8, 40320, Control_c, 3, 11, 127
8, 40320, Note_on_c, 3, 72, 68
8, 40360, Control_c, 3, 11, 121
8, 40400, Control_c, 3, 11, 115
8, 40440, Control_c, 3, 11, 109
8, 40480, Control_c, 3, 11, 101
8, 40520, Control_c, 3, 11, 95
8, 40559, Note_on_c, 3, 72, 0
8, 40560, Control_c, 3, 11, 89
8, 40560, Note_on_c, 3, 60, 68
8, 41040, Note_on_c, 3, 65, 68
8, 41279, Note_on_c, 3, 60, 0
8, 41280, Note_on_c, 3, 58, 68
8, 41519, Note_on_c, 3, 65, 0
8, 41520, Note_on_c, 3, 70, 68
8, 41751, Note_on_c, 3, 58, 0
8, 41751, Note_on_c, 3, 70, 0
8, 41760, Note_on_c, 3, 60, 44
8, 41760, Note_on_c, 3, 72, 44
8, 41760, Control_c, 3, 11, 127
8, 41999, Note_on_c, 3, 60, 0
8, 42000, Note_on_c, 3, 65, 44
8, 42239, Note_on_c, 3, 72, 0
8, 42240, Note_on_c, 3, 70, 44
8, 42471, Note_on_c, 3, 65, 0
8, 42480, Note_on_c, 3, 67, 44
8, 43079, Note_on_c, 3, 67, 0
8, 43080, Note_on_c, 3, 63, 44
8, 43191, Note_on_c, 3, 63, 0
8, 43200, Note_on_c, 3, 65, 44
8, 43439, Note_on_c, 3, 70, 0
8, 43440, Note_on_c, 3, 69, 44
8, 43671, Note_on_c, 3, 65, 0
8, 43671, Note_on_c, 3, 69, 0
8, 43680, Note_on_c, 3, 69, 68
8, 43680, Note_on_c, 3, 65, 68
8, 43680, Control_c, 3, 11, 89
8, 43720, Control_c, 3, 11, 92
8, 43760, Control_c, 3, 11, 95
8, 43800, Control_c, 3, 11, 99
8, 43840, Control_c, 3, 11, 101
8, 43880, Control_c, 3, 11, 105
8, 43920, Control_c, 3, 11, 109
8, 43960, Control_c, 3, 11, 111
8, 44000, Control_c, 3, 11, 115
8, 44039, Note_on_c, 3, 69, 0
8, 44040, Note_on_c, 3, 70, 68
8, 44040, Control_c, 3, 11, 117
8, 44080, Control_c, 3, 11, 121
8, 44120, Control_c, 3, 11, 124
8, 44151, Note_on_c, 3, 70, 0
8, 44159, Note_on_c, 3, 65, 0
8, 44160, Note_on_c, 3, 65, 68
8, 44160, Note_on_c, 3, 70, 68
8, 44160, Control_c, 3, 11, 127
8, 44280, Control_c, 3, 11, 127
8, 44310, Control_c, 3, 11, 124
8, 44340, Control_c, 3, 11, 121
8, 44370, Control_c, 3, 11, 117
8, 44399, Note_on_c, 3, 70, 0
8, 44400, Note_on_c, 3, 72, 68
8, 44400, Control_c, 3, 11, 115
8, 44430, Control_c, 3, 11, 111
8, 44460, Control_c, 3, 11, 109
8, 44490, Control_c, 3, 11, 105
8, 44519, Note_on_c, 3, 65, 0
8, 44519, Note_on_c, 3, 72, 0
8, 44520, Control_c, 3, 11, 101
8, 44520, Note_on_c, 3, 63, 68
8, 44520, Note_on_c, 3, 73, 68
8, 44550, Control_c, 3, 11, 99
8, 44580, Control_c, 3, 11, 95
8, 44610, Control_c, 3, 11, 92
8, 44631, Note_on_c, 3, 63, 0
8, 44631, Note_on_c, 3, 73, 0
8, 44640, Control_c, 3, 11, 89
8, 44640, Note_on_c, 3, 73, 68
8, 44640, Note_on_c, 3, 63, 68
8, 44670, Control_c, 3, 11, 92
8, 44700, Control_c, 3, 11, 95
8, 44730, Control_c, 3, 11, 99
8, 44760, Control_c, 3, 11, 101
8, 44790, Control_c, 3, 11, 105
8, 44820, Control_c, 3, 11, 109
8, 44850, Control_c, 3, 11, 111
8, 44880, Control_c, 3, 11, 115
8, 44910, Control_c, 3, 11, 117
8, 44940, Control_c, 3, 11, 121
8, 44970, Control_c, 3, 11, 124
8, 44999, Note_on_c, 3, 73, 0
8, 44999, Note_on_c, 3, 63, 0
8, 45000, Note_on_c, 3, 74, 68
8, 45000, Note_on_c, 3, 62, 68
8, 45111, Note_on_c, 3, 74, 0
8, 45111, Note_on_c, 3, 62, 0
8, 45120, Note_on_c, 3, 74, 68
8, 45120, Note_on_c, 3, 62, 68
8, 45240, Control_c, 3, 11, 127
8, 45260, Control_c, 3, 11, 124
8, 45280, Control_c, 3, 11, 121
8, 45300, Control_c, 3, 11, 117
8, 45320, Control_c, 3, 11, 115
8, 45340, Control_c, 3, 11, 111
8, 45351, Note_on_c, 3, 74, 0
8, 45351, Note_on_c, 3, 62, 0
8, 45360, Note_on_c, 3, 65, 68
8, 45360, Control_c, 3, 11, 109
8, 45380, Control_c, 3, 11, 105
8, 45400, Control_c, 3, 11, 101
8, 45420, Control_c, 3, 11, 99
8, 45440, Control_c, 3, 11, 95
8, 45460, Control_c, 3, 11, 92
8, 45600, Control_c, 3, 11, 89
8, 45600, Note_on_c, 3, 67, 68
8, 45839, Note_on_c, 3, 67, 0
8, 45840, Note_on_c, 3, 69, 68
8, 46079, Note_on_c, 3, 69, 0
8, 46080, Note_on_c, 3, 70, 68
8, 46319, Note_on_c, 3, 70, 0
8, 46560, Control_c, 3, 11, 89
8, 46560, Note_on_c, 3, 67, 68
8, 46610, Control_c, 3, 11, 92
8, 46660, Control_c, 3, 11, 95
8, 46710, Control_c, 3, 11, 99
8, 46760, Control_c, 3, 11, 101
8, 46799, Note_on_c, 3, 67, 0
8, 46800, Note_on_c, 3, 69, 68
8, 46810, Control_c, 3, 11, 105
8, 46860, Control_c, 3, 11, 109
8, 46910, Control_c, 3, 11, 111
8, 46960, Control_c, 3, 11, 115
8, 47010, Control_c, 3, 11, 117
8, 47060, Control_c, 3, 11, 121
8, 47110, Control_c, 3, 11, 124
8, 47160, Control_c, 3, 11, 127
8, 47190, Control_c, 3, 11, 124
8, 47220, Control_c, 3, 11, 121
8, 47250, Control_c, 3, 11, 117
8, 47279, Note_on_c, 3, 69, 0
8, 47280, Control_c, 3, 11, 115
8, 47280, Note_on_c, 3, 70, 68
8, 47310, Control_c, 3, 11, 111
8, 47340, Control_c, 3, 11, 109
8, 47370, Control_c, 3, 11, 105
8, 47399, Note_on_c, 3, 65, 0
8, 47399, Note_on_c, 3, 70, 0
8, 47400, Note_on_c, 3, 77, 68
8, 47400, Control_c, 3, 11, 101
8, 47400, Note_on_c, 3, 70, 68
8, 47430, Control_c, 3, 11, 99
8, 47460, Control_c, 3, 11, 95
8, 47490, Control_c, 3, 11, 92
8, 47511, Note_on_c, 3, 77, 0
8, 47511, Note_on_c, 3, 70, 0
8, 47520, Control_c, 3, 11, 89
8, 47520, Note_on_c, 3, 70, 68
8, 47520, Note_on_c, 3, 77, 68
8, 47550, Control_c, 3, 11, 92
8, 47580, Control_c, 3, 11, 95
8, 47610, Control_c, 3, 11, 99
8, 47640, Control_c, 3, 11, 101
8, 47670, Control_c, 3, 11, 105
8, 47700, Control_c, 3, 11, 109
8, 47730, Control_c, 3, 11, 111
8, 47759, Note_on_c, 3, 70, 0
8, 47759, Note_on_c, 3, 77, 0
8, 47760, Note_on_c, 3, 72, 68
8, 47760, Note_on_c, 3, 75, 68
8, 47760, Control_c, 3, 11, 115
8, 47790, Control_c, 3, 11, 117
8, 47820, Control_c, 3, 11, 121
8, 47850, Control_c, 3, 11, 124
8, 47879, Note_on_c, 3, 75, 0
8, 47880, Note_on_c, 3, 79, 68
8, 47939, Note_on_c, 3, 79, 0
8, 47940, Note_on_c, 3, 75, 68
8, 47991, Note_on_c, 3, 75, 0
8, 47999, Note_on_c, 3, 72, 0
8, 48000, Note_on_c, 3, 72, 68
8, 48000, Note_on_c, 3, 75, 68
8, 48000, Control_c, 3, 11, 127
8, 48040, Control_c, 3, 11, 121
8, 48080, Control_c, 3, 11, 115
8, 48119, Note_on_c, 3, 72, 0
8, 48119, Note_on_c, 3, 75, 0
8, 48120, Control_c, 3, 11, 109
8, 48120, Note_on_c, 3, 70, 68
8, 48120, Note_on_c, 3, 74, 68
8, 48160, Control_c, 3, 11, 101
8, 48200, Control_c, 3, 11, 95
8, 48231, Note_on_c, 3, 70, 0
8, 48239, Note_on_c, 3, 74, 0
8, 48240, Control_c, 3, 11, 89
8, 48240, Note_on_c, 3, 67, 68
8, 48340, Control_c, 3, 11, 92
8, 48440, Control_c, 3, 11, 95
8, 48480, Note_on_c, 3, 70, 68
8, 48540, Control_c, 3, 11, 99
8, 48640, Control_c, 3, 11, 101
8, 48740, Control_c, 3, 11, 105
8, 48840, Control_c, 3, 11, 109
8, 48940, Control_c, 3, 11, 111
8, 48959, Note_on_c, 3, 67, 0
8, 48960, Note_on_c, 3, 58, 68
8, 49040, Control_c, 3, 11, 115
8, 49140, Control_c, 3, 11, 117
8, 49199, Note_on_c, 3, 70, 0
8, 49199, Note_on_c, 3, 58, 0
8, 49200, Note_on_c, 3, 72, 68
8, 49200, Note_on_c, 3, 60, 68
8, 49240, Control_c, 3, 11, 121
8, 49340, Control_c, 3, 11, 124
8, 49440, Control_c, 3, 11, 127
8, 49470, Control_c, 3, 11, 124
8, 49500, Control_c, 3, 11, 121
8, 49530, Control_c, 3, 11, 117
8, 49559, Note_on_c, 3, 72, 0
8, 49559, Note_on_c, 3, 60, 0
8, 49560, Note_on_c, 3, 74, 68
8, 49560, Note_on_c, 3, 62, 68
8, 49560, Control_c, 3, 11, 115
8, 49590, Control_c, 3, 11, 111
8, 49620, Control_c, 3, 11, 109
8, 49650, Control_c, 3, 11, 105
8, 49680, Control_c, 3, 11, 101
8, 49710, Control_c, 3, 11, 99
8, 49740, Control_c, 3, 11, 95
8, 49770, Control_c, 3, 11, 92
8, 50039, Note_on_c, 3, 62, 0
8, 50040, Control_c, 3, 11, 89
8, 50040, Note_on_c, 3, 65, 68
8, 50151, Note_on_c, 3, 65, 0
8, 50159, Note_on_c, 3, 74, 0
8, 50160, Note_on_c, 3, 63, 68
8, 50160, Note_on_c, 3, 72, 68
8, 50271, Note_on_c, 3, 63, 0
8, 50271, Note_on_c, 3, 72, 0
8, 50280, Note_on_c, 3, 60, 68
8, 50280, Note_on_c, 3, 63, 68
8, 50391, Note_on_c, 3, 60, 0
8, 50391, Note_on_c, 3, 63, 0
8, 50400, Note_on_c, 3, 60, 68
8, 50400, Note_on_c, 3, 63, 68
8, 50759, Note_on_c, 3, 60, 0
8, 50759, Note_on_c, 3, 63, 0
8, 50760, Note_on_c, 3, 58, 68
8, 50760, Note_on_c, 3, 62, 68
8, 50871, Note_on_c, 3, 58, 0
8, 50871, Note_on_c, 3, 62, 0
8, 50880, Note_on_c, 3, 62, 68
8, 50880, Note_on_c, 3, 58, 68
8, 51111, Note_on_c, 3, 62, 0
8, 51111, Note_on_c, 3, 58, 0
8, 51120, Note_on_c, 3, 72, 68
8, 51120, Note_on_c, 3, 75, 68
8, 51239, Note_on_c, 3, 72, 0
8, 51239, Note_on_c, 3, 75, 0
8, 51240, Note_on_c, 3, 72, 68
8, 51240, Note_on_c, 3, 69, 68
8, 51351, Note_on_c, 3, 72, 0
8, 51351, Note_on_c, 3, 69, 0
8, 51360, Note_on_c, 3, 63, 68
8, 51360, Note_on_c, 3, 72, 68
8, 51719, Note_on_c, 3, 63, 0
8, 51719, Note_on_c, 3, 72, 0
8, 51720, Note_on_c, 3, 74, 68
8, 51720, Note_on_c, 3, 65, 68
8, 51839, Note_on_c, 3, 74, 0
8, 51839, Note_on_c, 3, 65, 0
8, 51840, Note_on_c, 3, 62, 68
8, 51840, Note_on_c, 3, 70, 68
8, 52071, Note_on_c, 3, 62, 0
8, 52071, Note_on_c, 3, 70, 0
8, 52080, Note_on_c, 3, 74, 68
8, 52080, Note_on_c, 3, 70, 68
8, 52199, Note_on_c, 3, 74, 0
8, 52199, Note_on_c, 3, 70, 0
8, 52200, Note_on_c, 3, 75, 68
8, 52200, Note_on_c, 3, 72, 68
8, 52311, Note_on_c, 3, 75, 0
8, 52311, Note_on_c, 3, 72, 0
8, 52320, Note_on_c, 3, 72, 68
8, 52320, Note_on_c, 3, 75, 68
8, 52679, Note_on_c, 3, 72, 0
8, 52679, Note_on_c, 3, 75, 0
8, 52680, Note_on_c, 3, 74, 68
8, 52680, Note_on_c, 3, 77, 68
8, 52799, Note_on_c, 3, 74, 0
8, 52799, Note_on_c, 3, 77, 0
8, 52800, Note_on_c, 3, 72, 68
8, 52800, Note_on_c, 3, 75, 68
8, 52919, Note_on_c, 3, 72, 0
8, 52919, Note_on_c, 3, 75, 0
8, 52920, Note_on_c, 3, 74, 68
8, 52920, Note_on_c, 3, 70, 68
8, 53031, Note_on_c, 3, 74, 0
8, 53039, Note_on_c, 3, 70, 0
8, 53040, Control_c, 3, 11, 89
8, 53040, Note_on_c, 3, 79, 68
8, 53040, Note_on_c, 3, 67, 68
8, 53140, Control_c, 3, 11, 92
8, 53159, Note_on_c, 3, 67, 0
8, 53160, Note_on_c, 3, 75, 68
8, 53240, Control_c, 3, 11, 95
8, 53271, Note_on_c, 3, 79, 0
8, 53271, Note_on_c, 3, 75, 0
8, 53280, Note_on_c, 3, 75, 68
8, 53280, Note_on_c, 3, 79, 68
8, 53340, Control_c, 3, 11, 99
8, 53391, Note_on_c, 3, 75, 0
8, 53400, Note_on_c, 3, 70, 68
8, 53440, Control_c, 3, 11, 101
8, 53511, Note_on_c, 3, 70, 0
8, 53520, Note_on_c, 3, 70, 68
8, 53540, Control_c, 3, 11, 105
8, 53631, Note_on_c, 3, 70, 0
8, 53640, Control_c, 3, 11, 109
8, 53640, Note_on_c, 3, 70, 68
8, 53740, Control_c, 3, 11, 111
8, 53751, Note_on_c, 3, 70, 0
8, 53760, Note_on_c, 3, 70, 68
8, 53840, Control_c, 3, 11, 115
8, 53871, Note_on_c, 3, 79, 0
8, 53880, Note_on_c, 3, 79, 68
8, 53940, Control_c, 3, 11, 117
8, 53999, Note_on_c, 3, 79, 0
8, 54000, Note_on_c, 3, 81, 68
8, 54040, Control_c, 3, 11, 121
8, 54119, Note_on_c, 3, 70, 0
8, 54119, Note_on_c, 3, 81, 0
8, 54120, Note_on_c, 3, 69, 68
8, 54120, Note_on_c, 3, 82, 68
8, 54140, Control_c, 3, 11, 124
8, 54179, Note_on_c, 3, 69, 0
8, 54180, Note_on_c, 3, 67, 68
8, 54231, Note_on_c, 3, 82, 0
8, 54231, Note_on_c, 3, 67, 0
8, 54240, Control_c, 3, 11, 127
8, 54240, Note_on_c, 3, 82, 68
8, 54240, Note_on_c, 3, 67, 68
8, 54280, Control_c, 3, 11, 124
8, 54320, Control_c, 3, 11, 121
8, 54359, Note_on_c, 3, 67, 0
8, 54360, Note_on_c, 3, 65, 68
8, 54360, Control_c, 3, 11, 117
8, 54400, Control_c, 3, 11, 115
8, 54440, Control_c, 3, 11, 111
8, 54479, Note_on_c, 3, 65, 0
8, 54480, Control_c, 3, 11, 109
8, 54480, Note_on_c, 3, 70, 68
8, 54520, Control_c, 3, 11, 105
8, 54560, Control_c, 3, 11, 101
8, 54591, Note_on_c, 3, 70, 0
8, 54599, Note_on_c, 3, 82, 0
8, 54600, Note_on_c, 3, 74, 68
8, 54600, Control_c, 3, 11, 99
8, 54600, Note_on_c, 3, 70, 68
8, 54640, Control_c, 3, 11, 95
8, 54680, Control_c, 3, 11, 92
8, 54711, Note_on_c, 3, 74, 0
8, 54711, Note_on_c, 3, 70, 0
8, 54720, Note_on_c, 3, 74, 68
8, 54720, Note_on_c, 3, 77, 68
8, 54720, Control_c, 3, 11, 89
8, 54959, Note_on_c, 3, 74, 0
8, 54959, Note_on_c, 3, 77, 0
8, 54960, Note_on_c, 3, 72, 68
8, 54960, Note_on_c, 3, 75, 68
8, 55079, Note_on_c, 3, 72, 0
8, 55079, Note_on_c, 3, 75, 0
8, 55080, Note_on_c, 3, 72, 68
8, 55080, Note_on_c, 3, 69, 68
8, 55191, Note_on_c, 3, 72, 0
8, 55191, Note_on_c, 3, 69, 0
8, 55198, Control_c, 3, 11, 119
8, 55200, Note_on_c, 3, 69, 44
8, 55200, Note_on_c, 3, 75, 44
8, 55911, Note_on_c, 3, 69, 0
8, 55911, Note_on_c, 3, 75, 0
8, 55920, Note_on_c, 3, 69, 44
8, 55920, Note_on_c, 3, 74, 44
8, 56160, Control_c, 3, 11, 109
8, 56639, Note_on_c, 3, 69, 0
8, 56640, Note_on_c, 3, 66, 44
8, 56879, Note_on_c, 3, 66, 0
8, 56880, Note_on_c, 3, 67, 44
8, 56999, Note_on_c, 3, 74, 0
8, 57000, Note_on_c, 3, 71, 44
8, 57239, Note_on_c, 3, 67, 0
8, 57239, Note_on_c, 3, 71, 0
8, 57240, Note_on_c, 3, 69, 44
8, 57240, Note_on_c, 3, 66, 44
8, 57359, Note_on_c, 3, 69, 0
8, 57359, Note_on_c, 3, 66, 0
8, 68400, Control_c, 3, 11, 119
8, 68640, Note_on_c, 3, 72, 44
8, 68640, Note_on_c, 3, 81, 44
8, 68999, Note_on_c, 3, 72, 0
8, 68999, Note_on_c, 3, 81, 0
8, 69000, Note_on_c, 3, 72, 44
8, 69000, Note_on_c, 3, 69, 44
8, 69111, Note_on_c, 3, 72, 0
8, 69111, Note_on_c, 3, 69, 0
8, 69120, Note_on_c, 3, 67, 44
8, 69120, Note_on_c, 3, 70, 44
8, 69360, Control_c, 3, 11, 109
8, 69839, Note_on_c, 3, 67, 0
8, 69839, Note_on_c, 3, 70, 0
8, 69840, Note_on_c, 3, 65, 44
8, 69840, Note_on_c, 3, 68, 44
8, 69959, Note_on_c, 3, 65, 0
8, 69959, Note_on_c, 3, 68, 0
8, 69960, Note_on_c, 3, 80, 44
8, 69960, Note_on_c, 3, 70, 44
8, 70071, Note_on_c, 3, 80, 0
8, 70071, Note_on_c, 3, 70, 0
8, 70078, Control_c, 3, 11, 127
8, 70080, Note_on_c, 3, 70, 32
8, 70080, Note_on_c, 3, 79, 32
8, 70319, Note_on_c, 3, 70, 0
8, 70320, Note_on_c, 3, 67, 32
8, 70559, Note_on_c, 3, 79, 0
8, 70559, Note_on_c, 3, 67, 0
8, 70560, Note_on_c, 3, 68, 32
8, 70560, Note_on_c, 3, 74, 32
8, 71031, Note_on_c, 3, 68, 0
8, 71039, Note_on_c, 3, 74, 0
8, 71040, Note_on_c, 3, 67, 32
8, 71040, Note_on_c, 3, 75, 32
8, 71391, Note_on_c, 3, 67, 0
8, 71400, Note_on_c, 3, 67, 32
8, 71511, Note_on_c, 3, 75, 0
8, 71511, Note_on_c, 3, 67, 0
8, 71520, Note_on_c, 3, 67, 32
8, 71520, Note_on_c, 3, 70, 32
8, 71639, Note_on_c, 3, 67, 0
8, 71640, Note_on_c, 3, 65, 32
8, 71871, Note_on_c, 3, 65, 0
8, 71879, Note_on_c, 3, 70, 0
8, 71880, Note_on_c, 3, 68, 32
8, 71880, Note_on_c, 3, 65, 32
8, 71939, Note_on_c, 3, 68, 0
8, 71940, Note_on_c, 3, 65, 32
8, 71991, Note_on_c, 3, 65, 0
8, 71991, Note_on_c, 3, 65, 0
8, 72000, Note_on_c, 3, 67, 32
8, 72000, Note_on_c, 3, 63, 32
8, 72119, Note_on_c, 3, 63, 0
8, 72120, Note_on_c, 3, 75, 32
8, 72239, Note_on_c, 3, 67, 0
8, 72239, Note_on_c, 3, 75, 0
8, 72240, Note_on_c, 3, 82, 32
8, 72360, Note_on_c, 3, 70, 32
8, 72471, Note_on_c, 3, 70, 0
8, 72480, Note_on_c, 3, 77, 32
8, 72591, Note_on_c, 3, 82, 0
8, 72600, Note_on_c, 3, 82, 32
8, 72719, Note_on_c, 3, 82, 0
8, 72720, Note_on_c, 3, 80, 32
8, 72831, Note_on_c, 3, 77, 0
8, 72840, Note_on_c, 3, 77, 32
8, 72951, Note_on_c, 3, 77, 0
8, 72960, Note_on_c, 3, 70, 32
8, 73071, Note_on_c, 3, 80, 0
8, 73080, Note_on_c, 3, 80, 32
8, 73199, Note_on_c, 3, 80, 0
8, 73200, Note_on_c, 3, 79, 32
8, 73311, Note_on_c, 3, 70, 0
8, 73320, Note_on_c, 3, 75, 32
8, 73551, Note_on_c, 3, 75, 0
8, 73559, Note_on_c, 3, 79, 0
8, 73560, Note_on_c, 3, 74, 32
8, 73560, Note_on_c, 3, 77, 32
8, 73679, Note_on_c, 3, 74, 0
8, 73679, Note_on_c, 3, 77, 0
8, 73680, Note_on_c, 3, 75, 32
8, 73680, Note_on_c, 3, 79, 32
8, 73799, Note_on_c, 3, 75, 0
8, 73799, Note_on_c, 3, 79, 0
8, 73800, Note_on_c, 3, 80, 32
8, 73800, Note_on_c, 3, 77, 32
8, 73911, Note_on_c, 3, 77, 0
8, 73919, Note_on_c, 3, 80, 0
8, 73920, Note_on_c, 3, 82, 32
8, 73920, Note_on_c, 3, 75, 32
8, 74039, Note_on_c, 3, 75, 0
8, 74040, Note_on_c, 3, 63, 32
8, 74159, Note_on_c, 3, 63, 0
8, 74160, Note_on_c, 3, 67, 32
8, 74271, Note_on_c, 3, 82, 0
8, 74279, Note_on_c, 3, 67, 0
8, 74280, Note_on_c, 3, 70, 32
8, 74280, Note_on_c, 3, 79, 32
8, 74511, Note_on_c, 3, 79, 0
8, 74520, Note_on_c, 3, 79, 32
8, 74639, Note_on_c, 3, 79, 0
8, 74640, Note_on_c, 3, 77, 32
8, 74751, Note_on_c, 3, 70, 0
8, 74760, Note_on_c, 3, 68, 32
8, 74879, Note_on_c, 3, 68, 0
8, 74880, Note_on_c, 3, 67, 32
8, 74991, Note_on_c, 3, 77, 0
8, 75000, Note_on_c, 3, 77, 32
8, 75119, Note_on_c, 3, 77, 0
8, 75120, Note_on_c, 3, 75, 32
8, 75231, Note_on_c, 3, 67, 0
8, 75240, Note_on_c, 3, 67, 32
8, 75359, Note_on_c, 3, 67, 0
8, 75360, Note_on_c, 3, 66, 32
8, 75471, Note_on_c, 3, 75, 0
8, 75479, Note_on_c, 3, 66, 0
8, 75480, Note_on_c, 3, 74, 32
8, 75480, Note_on_c, 3, 65, 32
8, 75599, Note_on_c, 3, 74, 0
8, 75599, Note_on_c, 3, 65, 0
8, 75600, Note_on_c, 3, 63, 32
8, 75600, Note_on_c, 3, 75, 32
8, 75719, Note_on_c, 3, 63, 0
8, 75719, Note_on_c, 3, 75, 0
8, 75720, Note_on_c, 3, 74, 32
8, 75720, Note_on_c, 3, 77, 32
8, 75831, Note_on_c, 3, 74, 0
8, 75831, Note_on_c, 3, 77, 0
8, 75840, Note_on_c, 3, 78, 32
8, 75840, Note_on_c, 3, 75, 32
8, 75959, Note_on_c, 3, 78, 0
8, 76080, Note_on_c, 3, 82, 32
8, 76191, Note_on_c, 3, 75, 0
8, 76200, Note_on_c, 3, 75, 32
8, 76311, Note_on_c, 3, 75, 0
8, 76320, Note_on_c, 3, 75, 32
8, 76431, Note_on_c, 3, 82, 0
8, 76440, Note_on_c, 3, 82, 32
8, 76559, Note_on_c, 3, 82, 0
8, 76560, Note_on_c, 3, 80, 32
8, 76671, Note_on_c, 3, 75, 0
8, 76680, Note_on_c, 3, 74, 32
8, 76791, Note_on_c, 3, 80, 0
8, 76791, Note_on_c, 3, 74, 0
8, 76800, Note_on_c, 3, 78, 32
8, 76800, Note_on_c, 3, 75, 32
8, 77151, Note_on_c, 3, 75, 0
8, 77160, Note_on_c, 3, 58, 32
8, 77271, Note_on_c, 3, 78, 0
8, 77271, Note_on_c, 3, 58, 0
8, 77280, Note_on_c, 3, 73, 32
8, 77280, Note_on_c, 3, 70, 32
8, 77631, Note_on_c, 3, 70, 0
8, 77640, Note_on_c, 3, 61, 32
8, 77751, Note_on_c, 3, 73, 0
8, 77751, Note_on_c, 3, 61, 0
8, 77760, Note_on_c, 3, 71, 32
8, 77760, Note_on_c, 3, 66, 32
8, 78111, Note_on_c, 3, 66, 0
8, 78120, Note_on_c, 3, 59, 32
8, 78231, Note_on_c, 3, 59, 0
8, 78240, Note_on_c, 3, 66, 32
8, 78351, Note_on_c, 3, 71, 0
8, 78351, Note_on_c, 3, 66, 0
8, 78360, Note_on_c, 3, 64, 32
8, 78360, Note_on_c, 3, 70, 32
8, 78471, Note_on_c, 3, 64, 0
8, 78479, Note_on_c, 3, 70, 0
8, 78480, Note_on_c, 3, 66, 32
8, 78480, Note_on_c, 3, 71, 32
8, 78591, Note_on_c, 3, 66, 0
8, 78599, Note_on_c, 3, 71, 0
8, 78600, Note_on_c, 3, 66, 32
8, 78600, Note_on_c, 3, 73, 32
8, 78711, Note_on_c, 3, 66, 0
8, 78711, Note_on_c, 3, 73, 0
8, 78720, Note_on_c, 3, 73, 32
8, 78720, Note_on_c, 3, 66, 32
8, 78839, Note_on_c, 3, 73, 0
8, 78839, Note_on_c, 3, 66, 0
8, 78840, Note_on_c, 3, 71, 32
8, 78840, Note_on_c, 3, 66, 32
8, 78951, Note_on_c, 3, 71, 0
8, 78951, Note_on_c, 3, 66, 0
8, 78960, Note_on_c, 3, 66, 32
8, 78960, Note_on_c, 3, 71, 32
8, 79191, Note_on_c, 3, 66, 0
8, 79200, Note_on_c, 3, 63, 32
8, 79304, Note_on_c, 3, 63, 0
8, 79311, Note_on_c, 3, 71, 0
8, 79320, Note_on_c, 3, 71, 32
8, 79320, Note_on_c, 3, 73, 32
8, 79424, Note_on_c, 3, 71, 0
8, 79424, Note_on_c, 3, 73, 0
8, 79440, Note_on_c, 3, 71, 32
8, 79440, Note_on_c, 3, 75, 32
8, 79544, Note_on_c, 3, 71, 0
8, 79544, Note_on_c, 3, 75, 0
8, 79560, Note_on_c, 3, 76, 32
8, 79560, Note_on_c, 3, 71, 32
8, 79649, Note_on_c, 3, 76, 0
8, 79649, Note_on_c, 3, 71, 0
8, 79678, Control_c, 3, 11, 89
8, 79680, Note_on_c, 3, 71, 56
8, 79680, Control_c, 3, 11, 89
8, 79680, Note_on_c, 3, 76, 56
8, 79693, Control_c, 3, 11, 91
8, 79707, Control_c, 3, 11, 93
8, 79720, Control_c, 3, 11, 95
8, 79733, Control_c, 3, 11, 97
8, 79747, Control_c, 3, 11, 100
8, 79760, Control_c, 3, 11, 102
8, 79773, Control_c, 3, 11, 104
8, 79787, Control_c, 3, 11, 106
8, 79799, Note_on_c, 3, 76, 0
8, 79800, Control_c, 3, 11, 108
8, 79800, Note_on_c, 3, 75, 56
8, 79813, Control_c, 3, 11, 110
8, 79827, Control_c, 3, 11, 112
8, 79840, Control_c, 3, 11, 114
8, 79853, Control_c, 3, 11, 116
8, 79867, Control_c, 3, 11, 119
8, 79880, Control_c, 3, 11, 121
8, 79893, Control_c, 3, 11, 123
8, 79907, Control_c, 3, 11, 127
8, 79919, Note_on_c, 3, 71, 0
8, 79919, Note_on_c, 3, 75, 0
8, 79920, Control_c, 3, 11, 127
8, 79920, Note_on_c, 3, 78, 56
8, 79920, Note_on_c, 3, 75, 56
8, 79933, Control_c, 3, 11, 125
8, 79947, Control_c, 3, 11, 123
8, 79960, Control_c, 3, 11, 121
8, 79973, Control_c, 3, 11, 119
8, 79987, Control_c, 3, 11, 116
8, 80000, Control_c, 3, 11, 114
8, 80013, Control_c, 3, 11, 112
8, 80027, Control_c, 3, 11, 110
8, 80039, Note_on_c, 3, 78, 0
8, 80039, Note_on_c, 3, 75, 0
8, 80040, Control_c, 3, 11, 108
8, 80040, Note_on_c, 3, 71, 56
8, 80040, Note_on_c, 3, 66, 56
8, 80053, Control_c, 3, 11, 106
8, 80067, Control_c, 3, 11, 104
8, 80080, Control_c, 3, 11, 102
8, 80093, Control_c, 3, 11, 100
8, 80107, Control_c, 3, 11, 97
8, 80120, Control_c, 3, 11, 95
8, 80133, Control_c, 3, 11, 93
8, 80147, Control_c, 3, 11, 91
8, 80151, Note_on_c, 3, 71, 0
8, 80151, Note_on_c, 3, 66, 0
8, 80160, Note_on_c, 3, 71, 56
8, 80160, Note_on_c, 3, 75, 56
8, 80399, Note_on_c, 3, 71, 0
8, 80399, Note_on_c, 3, 75, 0
8, 80400, Note_on_c, 3, 70, 56
8, 80400, Note_on_c, 3, 73, 56
8, 80631, Note_on_c, 3, 70, 0
8, 80631, Note_on_c, 3, 73, 0
8, 80640, Control_c, 3, 11, 89
8, 80640, Note_on_c, 3, 71, 56
8, 80640, Note_on_c, 3, 80, 56
8, 80653, Control_c, 3, 11, 91
8, 80667, Control_c, 3, 11, 93
8, 80680, Control_c, 3, 11, 95
8, 80693, Control_c, 3, 11, 97
8, 80707, Control_c, 3, 11, 100
8, 80720, Control_c, 3, 11, 102
8, 80733, Control_c, 3, 11, 104
8, 80747, Control_c, 3, 11, 106
8, 80759, Note_on_c, 3, 80, 0
8, 80760, Note_on_c, 3, 78, 56
8, 80760, Control_c, 3, 11, 108
8, 80773, Control_c, 3, 11, 110
8, 80787, Control_c, 3, 11, 112
8, 80800, Control_c, 3, 11, 114
8, 80813, Control_c, 3, 11, 116
8, 80827, Control_c, 3, 11, 119
8, 80840, Control_c, 3, 11, 121
8, 80853, Control_c, 3, 11, 123
8, 80867, Control_c, 3, 11, 125
8, 80879, Note_on_c, 3, 71, 0
8, 80879, Note_on_c, 3, 78, 0
8, 80880, Note_on_c, 3, 75, 56
8, 80880, Control_c, 3, 11, 127
8, 80880, Note_on_c, 3, 83, 56
8, 80880, Control_c, 3, 11, 127
8, 80893, Control_c, 3, 11, 125
8, 80907, Control_c, 3, 11, 123
8, 80920, Control_c, 3, 11, 121
8, 80933, Control_c, 3, 11, 119
8, 80947, Control_c, 3, 11, 116
8, 80960, Control_c, 3, 11, 114
8, 80973, Control_c, 3, 11, 112
8, 80987, Control_c, 3, 11, 110
8, 80999, Note_on_c, 3, 75, 0
8, 80999, Note_on_c, 3, 83, 0
8, 81000, Note_on_c, 3, 75, 56
8, 81000, Control_c, 3, 11, 108
8, 81000, Note_on_c, 3, 71, 56
8, 81013, Control_c, 3, 11, 106
8, 81027, Control_c, 3, 11, 104
8, 81040, Control_c, 3, 11, 102
8, 81053, Control_c, 3, 11, 100
8, 81067, Control_c, 3, 11, 97
8, 81080, Control_c, 3, 11, 95
8, 81093, Control_c, 3, 11, 93
8, 81107, Control_c, 3, 11, 91
8, 81111, Note_on_c, 3, 75, 0
8, 81111, Note_on_c, 3, 71, 0
8, 81120, Note_on_c, 3, 75, 56
8, 81120, Note_on_c, 3, 78, 56
8, 81359, Note_on_c, 3, 75, 0
8, 81359, Note_on_c, 3, 78, 0
8, 81360, Note_on_c, 3, 76, 56
8, 81360, Note_on_c, 3, 73, 56
8, 81591, Note_on_c, 3, 76, 0
8, 81591, Note_on_c, 3, 73, 0
8, 81600, Note_on_c, 3, 73, 56
8, 81600, Note_on_c, 3, 76, 56
8, 82551, Note_on_c, 3, 73, 0
8, 82551, Note_on_c, 3, 76, 0
8, 82560, Note_on_c, 3, 75, 56
8, 82560, Note_on_c, 3, 66, 56
8, 82799, Note_on_c, 3, 75, 0
8, 82799, Note_on_c, 3, 66, 0
8, 83400, Control_c, 3, 11, 69
8, 83400, Note_on_c, 3, 59, 68
8, 83511, Note_on_c, 3, 59, 0
8, 83520, Note_on_c, 3, 61, 68
8, 83520, Control_c, 3, 11, 69
8, 83553, Control_c, 3, 11, 70
8, 83586, Control_c, 3, 11, 71
8, 83619, Control_c, 3, 11, 72
8, 83652, Control_c, 3, 11, 73
8, 83686, Control_c, 3, 11, 74
8, 83719, Control_c, 3, 11, 75
8, 83751, Note_on_c, 3, 61, 0
8, 83752, Control_c, 3, 11, 76
8, 83760, Note_on_c, 3, 73, 68
8, 83785, Control_c, 3, 11, 77
8, 83818, Control_c, 3, 11, 78
8, 83851, Control_c, 3, 11, 79
8, 83884, Control_c, 3, 11, 80
8, 83917, Control_c, 3, 11, 81
8, 83950, Control_c, 3, 11, 82
8, 83983, Control_c, 3, 11, 83
8, 84017, Control_c, 3, 11, 84
8, 84050, Control_c, 3, 11, 85
8, 84083, Control_c, 3, 11, 86
8, 84116, Control_c, 3, 11, 87
8, 84149, Control_c, 3, 11, 88
8, 84182, Control_c, 3, 11, 89
8, 84215, Control_c, 3, 11, 90
8, 84231, Note_on_c, 3, 73, 0
8, 84240, Note_on_c, 3, 73, 68
8, 84240, Note_on_c, 3, 82, 68
8, 84248, Control_c, 3, 11, 91
8, 84281, Control_c, 3, 11, 92
8, 84314, Control_c, 3, 11, 93
8, 84348, Control_c, 3, 11, 94
8, 84381, Control_c, 3, 11, 95
8, 84414, Control_c, 3, 11, 96
8, 84447, Control_c, 3, 11, 97
8, 84480, Control_c, 3, 11, 98
8, 84513, Control_c, 3, 11, 99
8, 84546, Control_c, 3, 11, 100
8, 84579, Control_c, 3, 11, 101
8, 84612, Control_c, 3, 11, 102
8, 84646, Control_c, 3, 11, 103
8, 84679, Control_c, 3, 11, 104
8, 84711, Note_on_c, 3, 73, 0
8, 84711, Note_on_c, 3, 82, 0
8, 84712, Control_c, 3, 11, 105
8, 84720, Note_on_c, 3, 73, 68
8, 84720, Note_on_c, 3, 82, 68
8, 84745, Control_c, 3, 11, 106
8, 84778, Control_c, 3, 11, 107
8, 84811, Control_c, 3, 11, 108
8, 84844, Control_c, 3, 11, 109
8, 84877, Control_c, 3, 11, 110
8, 84910, Control_c, 3, 11, 111
8, 84943, Control_c, 3, 11, 112
8, 84977, Control_c, 3, 11, 113
8, 85010, Control_c, 3, 11, 114
8, 85043, Control_c, 3, 11, 115
8, 85076, Control_c, 3, 11, 116
8, 85109, Control_c, 3, 11, 117
8, 85142, Control_c, 3, 11, 118
8, 85175, Control_c, 3, 11, 119
8, 85191, Note_on_c, 3, 73, 0
8, 85191, Note_on_c, 3, 82, 0
8, 85200, Note_on_c, 3, 74, 68
8, 85200, Note_on_c, 3, 82, 68
8, 85208, Control_c, 3, 11, 120
8, 85241, Control_c, 3, 11, 121
8, 85274, Control_c, 3, 11, 122
8, 85308, Control_c, 3, 11, 123
8, 85341, Control_c, 3, 11, 124
8, 85374, Control_c, 3, 11, 125
8, 85407, Control_c, 3, 11, 127
8, 85440, Control_c, 3, 11, 79
8, 86039, Note_on_c, 3, 74, 0
8, 86039, Note_on_c, 3, 82, 0
8, 86040, Note_on_c, 3, 65, 68
8, 86040, Note_on_c, 3, 77, 68
8, 86151, Note_on_c, 3, 65, 0
8, 86151, Note_on_c, 3, 77, 0
8, 86160, Note_on_c, 3, 65, 68
8, 86160, Note_on_c, 3, 77, 68
8, 86519, Note_on_c, 3, 65, 0
8, 86519, Note_on_c, 3, 77, 0
8, 86520, Note_on_c, 3, 63, 68
8, 86520, Note_on_c, 3, 75, 68
8, 86871, Note_on_c, 3, 63, 0
8, 86871, Note_on_c, 3, 75, 0
8, 86880, Note_on_c, 3, 62, 68
8, 86880, Note_on_c, 3, 74, 68
8, 87599, Note_on_c, 3, 62, 0
8, 87599, Note_on_c, 3, 74, 0
8, 87600, Note_on_c, 3, 69, 68
8, 87600, Note_on_c, 3, 57, 68
8, 87951, Note_on_c, 3, 69, 0
8, 87951, Note_on_c, 3, 57, 0
8, 87960, Note_on_c, 3, 60, 68
8, 87960, Note_on_c, 3, 72, 68
8, 88311, Note_on_c, 3, 60, 0
8, 88311, Note_on_c, 3, 72, 0
8, 88318, Control_c, 3, 11, 87
8, 88320, Note_on_c, 3, 62, 68
8, 88320, Note_on_c, 3, 74, 68
8, 88320, Control_c, 3, 11, 87
8, 88338, Control_c, 3, 11, 88
8, 88356, Control_c, 3, 11, 89
8, 88374, Control_c, 3, 11, 90
8, 88392, Control_c, 3, 11, 91
8, 88410, Control_c, 3, 11, 92
8, 88428, Control_c, 3, 11, 93
8, 88446, Control_c, 3, 11, 94
8, 88464, Control_c, 3, 11, 95
8, 88482, Control_c, 3, 11, 96
8, 88500, Control_c, 3, 11, 97
8, 88518, Control_c, 3, 11, 98
8, 88536, Control_c, 3, 11, 99
8, 88554, Control_c, 3, 11, 100
8, 88572, Control_c, 3, 11, 101
8, 88590, Control_c, 3, 11, 102
8, 88608, Control_c, 3, 11, 103
8, 88626, Control_c, 3, 11, 104
8, 88644, Control_c, 3, 11, 105
8, 88662, Control_c, 3, 11, 106
8, 88679, Note_on_c, 3, 62, 0
8, 88679, Note_on_c, 3, 74, 0
8, 88680, Note_on_c, 3, 60, 68
8, 88680, Control_c, 3, 11, 107
8, 88680, Note_on_c, 3, 72, 68
8, 88698, Control_c, 3, 11, 108
8, 88716, Control_c, 3, 11, 109
8, 88734, Control_c, 3, 11, 110
8, 88752, Control_c, 3, 11, 111
8, 88770, Control_c, 3, 11, 112
8, 88788, Control_c, 3, 11, 113
8, 88806, Control_c, 3, 11, 114
8, 88824, Control_c, 3, 11, 115
8, 88842, Control_c, 3, 11, 116
8, 88860, Control_c, 3, 11, 117
8, 88878, Control_c, 3, 11, 118
8, 88896, Control_c, 3, 11, 119
8, 88914, Control_c, 3, 11, 120
8, 88932, Control_c, 3, 11, 121
8, 88950, Control_c, 3, 11, 122
8, 88968, Control_c, 3, 11, 123
8, 88986, Control_c, 3, 11, 124
8, 89004, Control_c, 3, 11, 125
8, 89022, Control_c, 3, 11, 126
8, 89039, Note_on_c, 3, 60, 0
8, 89039, Note_on_c, 3, 72, 0
8, 89040, Note_on_c, 3, 58, 68
8, 89040, Note_on_c, 3, 70, 68
8, 89040, Control_c, 3, 11, 127
8, 89058, Control_c, 3, 11, 126
8, 89076, Control_c, 3, 11, 125
8, 89094, Control_c, 3, 11, 124
8, 89112, Control_c, 3, 11, 123
8, 89130, Control_c, 3, 11, 122
8, 89148, Control_c, 3, 11, 121
8, 89166, Control_c, 3, 11, 120
8, 89184, Control_c, 3, 11, 119
8, 89202, Control_c, 3, 11, 118
8, 89220, Control_c, 3, 11, 117
8, 89238, Control_c, 3, 11, 116
8, 89256, Control_c, 3, 11, 115
8, 89274, Control_c, 3, 11, 114
8, 89292, Control_c, 3, 11, 113
8, 89310, Control_c, 3, 11, 112
8, 89328, Control_c, 3, 11, 111
8, 89346, Control_c, 3, 11, 110
8, 89364, Control_c, 3, 11, 109
8, 89382, Control_c, 3, 11, 108
8, 89400, Control_c, 3, 11, 107
8, 89418, Control_c, 3, 11, 106
8, 89436, Control_c, 3, 11, 105
8, 89454, Control_c, 3, 11, 104
8, 89472, Control_c, 3, 11, 103
8, 89490, Control_c, 3, 11, 102
8, 89508, Control_c, 3, 11, 101
8, 89526, Control_c, 3, 11, 100
8, 89544, Control_c, 3, 11, 99
8, 89562, Control_c, 3, 11, 98
8, 89580, Control_c, 3, 11, 97
8, 89598, Control_c, 3, 11, 96
8, 89616, Control_c, 3, 11, 95
8, 89634, Control_c, 3, 11, 94
8, 89652, Control_c, 3, 11, 93
8, 89670, Control_c, 3, 11, 92
8, 89688, Control_c, 3, 11, 91
8, 89706, Control_c, 3, 11, 90
8, 89724, Control_c, 3, 11, 89
8, 89742, Control_c, 3, 11, 88
8, 89759, Note_on_c, 3, 58, 0
8, 89759, Note_on_c, 3, 70, 0
8, 89760, Note_on_c, 3, 70, 68
8, 89760, Note_on_c, 3, 58, 68
8, 89778, Control_c, 3, 11, 88
8, 89796, Control_c, 3, 11, 89
8, 89814, Control_c, 3, 11, 90
8, 89832, Control_c, 3, 11, 91
8, 89850, Control_c, 3, 11, 92
8, 89868, Control_c, 3, 11, 93
8, 89886, Control_c, 3, 11, 94
8, 89904, Control_c, 3, 11, 95
8, 89922, Control_c, 3, 11, 96
8, 89940, Control_c, 3, 11, 97
8, 89958, Control_c, 3, 11, 98
8, 89976, Control_c, 3, 11, 99
8, 89994, Control_c, 3, 11, 100
8, 90012, Control_c, 3, 11, 101
8, 90030, Control_c, 3, 11, 102
8, 90048, Control_c, 3, 11, 103
8, 90066, Control_c, 3, 11, 104
8, 90084, Control_c, 3, 11, 105
8, 90102, Control_c, 3, 11, 106
8, 90120, Control_c, 3, 11, 107
8, 90138, Control_c, 3, 11, 108
8, 90156, Control_c, 3, 11, 109
8, 90174, Control_c, 3, 11, 110
8, 90192, Control_c, 3, 11, 111
8, 90210, Control_c, 3, 11, 112
8, 90228, Control_c, 3, 11, 113
8, 90246, Control_c, 3, 11, 114
8, 90264, Control_c, 3, 11, 115
8, 90282, Control_c, 3, 11, 116
8, 90300, Control_c, 3, 11, 117
8, 90318, Control_c, 3, 11, 118
8, 90336, Control_c, 3, 11, 119
8, 90354, Control_c, 3, 11, 120
8, 90372, Control_c, 3, 11, 121
8, 90390, Control_c, 3, 11, 122
8, 90408, Control_c, 3, 11, 123
8, 90426, Control_c, 3, 11, 124
8, 90444, Control_c, 3, 11, 125
8, 90462, Control_c, 3, 11, 126
8, 90480, Control_c, 3, 11, 127
8, 90498, Control_c, 3, 11, 126
8, 90516, Control_c, 3, 11, 125
8, 90534, Control_c, 3, 11, 124
8, 90552, Control_c, 3, 11, 123
8, 90570, Control_c, 3, 11, 122
8, 90588, Control_c, 3, 11, 121
8, 90606, Control_c, 3, 11, 120
8, 90624, Control_c, 3, 11, 119
8, 90642, Control_c, 3, 11, 118
8, 90660, Control_c, 3, 11, 117
8, 90678, Control_c, 3, 11, 116
8, 90696, Control_c, 3, 11, 115
8, 90714, Control_c, 3, 11, 114
8, 90719, Note_on_c, 3, 70, 0
8, 90719, Note_on_c, 3, 58, 0
8, 90720, Note_on_c, 3, 69, 68
8, 90720, Note_on_c, 3, 57, 68
8, 90732, Control_c, 3, 11, 113
8, 90750, Control_c, 3, 11, 112
8, 90768, Control_c, 3, 11, 111
8, 90786, Control_c, 3, 11, 110
8, 90804, Control_c, 3, 11, 109
8, 90822, Control_c, 3, 11, 108
8, 90839, Note_on_c, 3, 69, 0
8, 90839, Note_on_c, 3, 57, 0
8, 90840, Note_on_c, 3, 67, 68
8, 90840, Control_c, 3, 11, 107
8, 90840, Note_on_c, 3, 79, 68
8, 90858, Control_c, 3, 11, 106
8, 90876, Control_c, 3, 11, 105
8, 90894, Control_c, 3, 11, 104
8, 90912, Control_c, 3, 11, 103
8, 90930, Control_c, 3, 11, 102
8, 90948, Control_c, 3, 11, 101
8, 90959, Note_on_c, 3, 67, 0
8, 90959, Note_on_c, 3, 79, 0
8, 90960, Note_on_c, 3, 77, 68
8, 90960, Note_on_c, 3, 65, 68
8, 90966, Control_c, 3, 11, 100
8, 90984, Control_c, 3, 11, 99
8, 91002, Control_c, 3, 11, 98
8, 91020, Control_c, 3, 11, 97
8, 91038, Control_c, 3, 11, 96
8, 91056, Control_c, 3, 11, 95
8, 91074, Control_c, 3, 11, 94
8, 91079, Note_on_c, 3, 77, 0
8, 91079, Note_on_c, 3, 65, 0
8, 91080, Note_on_c, 3, 72, 68
8, 91080, Note_on_c, 3, 69, 68
8, 91092, Control_c, 3, 11, 93
8, 91110, Control_c, 3, 11, 92
8, 91128, Control_c, 3, 11, 91
8, 91146, Control_c, 3, 11, 90
8, 91164, Control_c, 3, 11, 89
8, 91182, Control_c, 3, 11, 88
8, 91191, Note_on_c, 3, 72, 0
8, 91191, Note_on_c, 3, 69, 0
8, 91200, Note_on_c, 3, 74, 68
8, 91200, Note_on_c, 3, 70, 68
8, 91227, Control_c, 3, 11, 88
8, 91254, Control_c, 3, 11, 89
8, 91281, Control_c, 3, 11, 90
8, 91308, Control_c, 3, 11, 91
8, 91335, Control_c, 3, 11, 92
8, 91362, Control_c, 3, 11, 93
8, 91389, Control_c, 3, 11, 94
8, 91416, Control_c, 3, 11, 95
8, 91443, Control_c, 3, 11, 96
8, 91470, Control_c, 3, 11, 97
8, 91497, Control_c, 3, 11, 98
8, 91524, Control_c, 3, 11, 99
8, 91551, Control_c, 3, 11, 100
8, 91559, Note_on_c, 3, 74, 0
8, 91559, Note_on_c, 3, 70, 0
8, 91560, Note_on_c, 3, 77, 68
8, 91560, Note_on_c, 3, 74, 68
8, 91578, Control_c, 3, 11, 101
8, 91605, Control_c, 3, 11, 102
8, 91632, Control_c, 3, 11, 103
8, 91659, Control_c, 3, 11, 104
8, 91686, Control_c, 3, 11, 105
8, 91713, Control_c, 3, 11, 106
8, 91740, Control_c, 3, 11, 107
8, 91767, Control_c, 3, 11, 108
8, 91794, Control_c, 3, 11, 109
8, 91799, Note_on_c, 3, 77, 0
8, 91799, Note_on_c, 3, 74, 0
8, 91800, Note_on_c, 3, 72, 68
8, 91800, Note_on_c, 3, 75, 68
8, 91821, Control_c, 3, 11, 110
8, 91848, Control_c, 3, 11, 111
8, 91875, Control_c, 3, 11, 112
8, 91902, Control_c, 3, 11, 113
8, 91911, Note_on_c, 3, 72, 0
8, 91911, Note_on_c, 3, 75, 0
8, 91920, Note_on_c, 3, 72, 68
8, 91929, Control_c, 3, 11, 114
8, 91956, Control_c, 3, 11, 115
8, 91983, Control_c, 3, 11, 116
8, 92010, Control_c, 3, 11, 117
8, 92037, Control_c, 3, 11, 118
8, 92064, Control_c, 3, 11, 119
8, 92091, Control_c, 3, 11, 120
8, 92118, Control_c, 3, 11, 121
8, 92145, Control_c, 3, 11, 122
8, 92172, Control_c, 3, 11, 123
8, 92199, Control_c, 3, 11, 124
8, 92226, Control_c, 3, 11, 125
8, 92253, Control_c, 3, 11, 126
8, 92271, Note_on_c, 3, 72, 0
8, 92280, Control_c, 3, 11, 127
8, 92280, Note_on_c, 3, 69, 68
8, 92280, Note_on_c, 3, 72, 68
8, 92295, Control_c, 3, 11, 125
8, 92310, Control_c, 3, 11, 124
8, 92325, Control_c, 3, 11, 122
8, 92340, Control_c, 3, 11, 121
8, 92355, Control_c, 3, 11, 119
8, 92370, Control_c, 3, 11, 118
8, 92385, Control_c, 3, 11, 116
8, 92400, Control_c, 3, 11, 114
8, 92415, Control_c, 3, 11, 113
8, 92430, Control_c, 3, 11, 111
8, 92445, Control_c, 3, 11, 110
8, 92460, Control_c, 3, 11, 108
8, 92475, Control_c, 3, 11, 106
8, 92490, Control_c, 3, 11, 105
8, 92505, Control_c, 3, 11, 103
8, 92519, Note_on_c, 3, 69, 0
8, 92519, Note_on_c, 3, 72, 0
8, 92520, Control_c, 3, 11, 102
8, 92520, Note_on_c, 3, 69, 68
8, 92520, Note_on_c, 3, 65, 68
8, 92535, Control_c, 3, 11, 100
8, 92550, Control_c, 3, 11, 99
8, 92565, Control_c, 3, 11, 97
8, 92580, Control_c, 3, 11, 95
8, 92595, Control_c, 3, 11, 94
8, 92610, Control_c, 3, 11, 92
8, 92625, Control_c, 3, 11, 91
8, 92631, Note_on_c, 3, 69, 0
8, 92631, Note_on_c, 3, 65, 0
8, 92638, Control_c, 3, 11, 87
8, 92640, Note_on_c, 3, 65, 68
8, 92640, Note_on_c, 3, 53, 68
8, 92991, Note_on_c, 3, 65, 0
8, 92991, Note_on_c, 3, 53, 0
8, 93000, Note_on_c, 3, 53, 68
8, 93000, Note_on_c, 3, 65, 68
8, 93711, Note_on_c, 3, 53, 0
8, 93711, Note_on_c, 3, 65, 0
8, 93720, Note_on_c, 3, 70, 68
8, 93720, Note_on_c, 3, 58, 68
8, 94071, Note_on_c, 3, 70, 0
8, 94071, Note_on_c, 3, 58, 0
8, 94080, Note_on_c, 3, 72, 68
8, 94080, Note_on_c, 3, 60, 68
8, 94431, Note_on_c, 3, 72, 0
8, 94431, Note_on_c, 3, 60, 0
8, 94440, Note_on_c, 3, 60, 68
8, 94440, Note_on_c, 3, 72, 68
8, 95159, Note_on_c, 3, 60, 0
8, 95159, Note_on_c, 3, 72, 0
8, 95160, Note_on_c, 3, 70, 68
8, 95160, Note_on_c, 3, 58, 68
8, 95871, Note_on_c, 3, 70, 0
8, 95871, Note_on_c, 3, 58, 0
8, 95880, Note_on_c, 3, 70, 68
8, 95880, Note_on_c, 3, 58, 68
8, 96591, Note_on_c, 3, 70, 0
8, 96591, Note_on_c, 3, 58, 0
8, 96600, Note_on_c, 3, 57, 68
8, 96600, Note_on_c, 3, 69, 68
8, 96960, Control_c, 3, 11, 87
8, 96978, Control_c, 3, 11, 88
8, 96996, Control_c, 3, 11, 89
8, 97014, Control_c, 3, 11, 90
8, 97032, Control_c, 3, 11, 91
8, 97050, Control_c, 3, 11, 92
8, 97068, Control_c, 3, 11, 93
8, 97086, Control_c, 3, 11, 94
8, 97104, Control_c, 3, 11, 95
8, 97122, Control_c, 3, 11, 96
8, 97140, Control_c, 3, 11, 97
8, 97158, Control_c, 3, 11, 98
8, 97176, Control_c, 3, 11, 99
8, 97194, Control_c, 3, 11, 100
8, 97212, Control_c, 3, 11, 101
8, 97230, Control_c, 3, 11, 102
8, 97248, Control_c, 3, 11, 103
8, 97266, Control_c, 3, 11, 104
8, 97284, Control_c, 3, 11, 105
8, 97302, Control_c, 3, 11, 106
8, 97320, Control_c, 3, 11, 107
8, 97338, Control_c, 3, 11, 108
8, 97356, Control_c, 3, 11, 109
8, 97374, Control_c, 3, 11, 110
8, 97392, Control_c, 3, 11, 111
8, 97410, Control_c, 3, 11, 112
8, 97428, Control_c, 3, 11, 113
8, 97446, Control_c, 3, 11, 114
8, 97464, Control_c, 3, 11, 115
8, 97482, Control_c, 3, 11, 116
8, 97500, Control_c, 3, 11, 117
8, 97518, Control_c, 3, 11, 118
8, 97536, Control_c, 3, 11, 119
8, 97554, Control_c, 3, 11, 120
8, 97559, Note_on_c, 3, 57, 0
8, 97559, Note_on_c, 3, 69, 0
8, 97560, Note_on_c, 3, 70, 68
8, 97560, Note_on_c, 3, 58, 68
8, 97572, Control_c, 3, 11, 121
8, 97590, Control_c, 3, 11, 122
8, 97608, Control_c, 3, 11, 123
8, 97626, Control_c, 3, 11, 124
8, 97644, Control_c, 3, 11, 125
8, 97662, Control_c, 3, 11, 126
8, 97671, Note_on_c, 3, 70, 0
8, 97671, Note_on_c, 3, 58, 0
8, 97680, Note_on_c, 3, 58, 68
8, 97680, Control_c, 3, 11, 127
8, 97680, Note_on_c, 3, 70, 68
8, 97698, Control_c, 3, 11, 126
8, 97716, Control_c, 3, 11, 125
8, 97734, Control_c, 3, 11, 124
8, 97752, Control_c, 3, 11, 123
8, 97770, Control_c, 3, 11, 122
8, 97788, Control_c, 3, 11, 121
8, 97799, Note_on_c, 3, 58, 0
8, 97799, Note_on_c, 3, 70, 0
8, 97800, Note_on_c, 3, 77, 68
8, 97800, Note_on_c, 3, 65, 68
8, 97806, Control_c, 3, 11, 120
8, 97824, Control_c, 3, 11, 119
8, 97842, Control_c, 3, 11, 118
8, 97860, Control_c, 3, 11, 117
8, 97878, Control_c, 3, 11, 116
8, 97896, Control_c, 3, 11, 115
8, 97911, Note_on_c, 3, 77, 0
8, 97911, Note_on_c, 3, 65, 0
8, 97914, Control_c, 3, 11, 114
8, 97920, Note_on_c, 3, 74, 68
8, 97920, Note_on_c, 3, 65, 68
8, 97932, Control_c, 3, 11, 113
8, 97950, Control_c, 3, 11, 112
8, 97968, Control_c, 3, 11, 111
8, 97986, Control_c, 3, 11, 110
8, 98004, Control_c, 3, 11, 109
8, 98022, Control_c, 3, 11, 108
8, 98031, Note_on_c, 3, 74, 0
8, 98031, Note_on_c, 3, 65, 0
8, 98040, Note_on_c, 3, 72, 68
8, 98040, Note_on_c, 3, 65, 68
8, 98040, Control_c, 3, 11, 107
8, 98058, Control_c, 3, 11, 106
8, 98076, Control_c, 3, 11, 105
8, 98094, Control_c, 3, 11, 104
8, 98112, Control_c, 3, 11, 103
8, 98130, Control_c, 3, 11, 102
8, 98148, Control_c, 3, 11, 101
8, 98166, Control_c, 3, 11, 100
8, 98184, Control_c, 3, 11, 99
8, 98202, Control_c, 3, 11, 98
8, 98220, Control_c, 3, 11, 97
8, 98238, Control_c, 3, 11, 96
8, 98256, Control_c, 3, 11, 95
8, 98274, Control_c, 3, 11, 94
8, 98279, Note_on_c, 3, 72, 0
8, 98279, Note_on_c, 3, 65, 0
8, 98280, Note_on_c, 3, 73, 68
8, 98280, Note_on_c, 3, 63, 68
8, 98292, Control_c, 3, 11, 93
8, 98310, Control_c, 3, 11, 92
8, 98328, Control_c, 3, 11, 91
8, 98346, Control_c, 3, 11, 90
8, 98364, Control_c, 3, 11, 89
8, 98382, Control_c, 3, 11, 87
8, 98391, Note_on_c, 3, 73, 0
8, 98391, Note_on_c, 3, 63, 0
8, 98400, Note_on_c, 3, 73, 68
8, 98400, Note_on_c, 3, 63, 68
8, 98400, Control_c, 3, 11, 87
8, 98418, Control_c, 3, 11, 88
8, 98436, Control_c, 3, 11, 89
8, 98454, Control_c, 3, 11, 90
8, 98472, Control_c, 3, 11, 91
8, 98490, Control_c, 3, 11, 92
8, 98508, Control_c, 3, 11, 93
8, 98526, Control_c, 3, 11, 94
8, 98544, Control_c, 3, 11, 95
8, 98562, Control_c, 3, 11, 96
8, 98580, Control_c, 3, 11, 97
8, 98598, Control_c, 3, 11, 98
8, 98616, Control_c, 3, 11, 99
8, 98634, Control_c, 3, 11, 100
8, 98652, Control_c, 3, 11, 101
8, 98670, Control_c, 3, 11, 102
8, 98688, Control_c, 3, 11, 103
8, 98706, Control_c, 3, 11, 104
8, 98724, Control_c, 3, 11, 105
8, 98742, Control_c, 3, 11, 106
8, 98760, Control_c, 3, 11, 107
8, 98778, Control_c, 3, 11, 108
8, 98796, Control_c, 3, 11, 109
8, 98814, Control_c, 3, 11, 110
8, 98832, Control_c, 3, 11, 111
8, 98850, Control_c, 3, 11, 112
8, 98868, Control_c, 3, 11, 113
8, 98886, Control_c, 3, 11, 114
8, 98904, Control_c, 3, 11, 115
8, 98922, Control_c, 3, 11, 116
8, 98940, Control_c, 3, 11, 117
8, 98958, Control_c, 3, 11, 118
8, 98976, Control_c, 3, 11, 119
8, 98994, Control_c, 3, 11, 120
8, 98999, Note_on_c, 3, 73, 0
8, 98999, Note_on_c, 3, 63, 0
8, 99000, Note_on_c, 3, 74, 68
8, 99000, Note_on_c, 3, 62, 68
8, 99012, Control_c, 3, 11, 121
8, 99030, Control_c, 3, 11, 122
8, 99048, Control_c, 3, 11, 123
8, 99066, Control_c, 3, 11, 124
8, 99084, Control_c, 3, 11, 125
8, 99102, Control_c, 3, 11, 126
8, 99111, Note_on_c, 3, 74, 0
8, 99111, Note_on_c, 3, 62, 0
8, 99120, Note_on_c, 3, 74, 68
8, 99120, Control_c, 3, 11, 127
8, 99120, Note_on_c, 3, 62, 68
8, 99135, Control_c, 3, 11, 125
8, 99150, Control_c, 3, 11, 124
8, 99165, Control_c, 3, 11, 122
8, 99180, Control_c, 3, 11, 120
8, 99195, Control_c, 3, 11, 119
8, 99210, Control_c, 3, 11, 117
8, 99225, Control_c, 3, 11, 115
8, 99240, Control_c, 3, 11, 114
8, 99255, Control_c, 3, 11, 112
8, 99270, Control_c, 3, 11, 110
8, 99285, Control_c, 3, 11, 109
8, 99300, Control_c, 3, 11, 107
8, 99315, Control_c, 3, 11, 105
8, 99330, Control_c, 3, 11, 104
8, 99345, Control_c, 3, 11, 102
8, 99360, Control_c, 3, 11, 100
8, 99375, Control_c, 3, 11, 99
8, 99390, Control_c, 3, 11, 97
8, 99405, Control_c, 3, 11, 95
8, 99420, Control_c, 3, 11, 94
8, 99435, Control_c, 3, 11, 92
8, 99450, Control_c, 3, 11, 90
8, 99465, Control_c, 3, 11, 89
8, 99471, Note_on_c, 3, 74, 0
8, 99471, Note_on_c, 3, 62, 0
8, 99480, Note_on_c, 3, 58, 68
8, 99480, Note_on_c, 3, 70, 68
8, 99839, Note_on_c, 3, 58, 0
8, 99839, Note_on_c, 3, 70, 0
8, 99840, Note_on_c, 3, 55, 68
8, 99840, Note_on_c, 3, 67, 68
8, 100199, Note_on_c, 3, 55, 0
8, 100199, Note_on_c, 3, 67, 0
8, 100200, Note_on_c, 3, 57, 68
8, 100200, Note_on_c, 3, 69, 68
8, 100559, Note_on_c, 3, 57, 0
8, 100559, Note_on_c, 3, 69, 0
8, 100560, Note_on_c, 3, 53, 68
8, 100560, Note_on_c, 3, 65, 68
8, 100919, Note_on_c, 3, 53, 0
8, 100919, Note_on_c, 3, 65, 0
8, 100920, Note_on_c, 3, 58, 68
8, 100920, Note_on_c, 3, 70, 68
8, 101271, Note_on_c, 3, 58, 0
8, 101271, Note_on_c, 3, 70, 0
8, 101280, Control_c, 3, 11, 87
8, 101280, Note_on_c, 3, 67, 68
8, 101280, Note_on_c, 3, 55, 68
8, 101298, Control_c, 3, 11, 88
8, 101316, Control_c, 3, 11, 89
8, 101334, Control_c, 3, 11, 90
8, 101352, Control_c, 3, 11, 91
8, 101370, Control_c, 3, 11, 92
8, 101388, Control_c, 3, 11, 93
8, 101406, Control_c, 3, 11, 94
8, 101424, Control_c, 3, 11, 95
8, 101442, Control_c, 3, 11, 96
8, 101460, Control_c, 3, 11, 97
8, 101478, Control_c, 3, 11, 98
8, 101496, Control_c, 3, 11, 99
8, 101514, Control_c, 3, 11, 100
8, 101532, Control_c, 3, 11, 101
8, 101550, Control_c, 3, 11, 102
8, 101568, Control_c, 3, 11, 103
8, 101586, Control_c, 3, 11, 104
8, 101604, Control_c, 3, 11, 105
8, 101622, Control_c, 3, 11, 106
8, 101639, Note_on_c, 3, 67, 0
8, 101639, Note_on_c, 3, 55, 0
8, 101640, Control_c, 3, 11, 107
8, 101640, Note_on_c, 3, 57, 68
8, 101640, Note_on_c, 3, 69, 68
8, 101658, Control_c, 3, 11, 108
8, 101676, Control_c, 3, 11, 109
8, 101694, Control_c, 3, 11, 110
8, 101712, Control_c, 3, 11, 111
8, 101730, Control_c, 3, 11, 112
8, 101748, Control_c, 3, 11, 113
8, 101766, Control_c, 3, 11, 114
8, 101784, Control_c, 3, 11, 115
8, 101802, Control_c, 3, 11, 116
8, 101820, Control_c, 3, 11, 117
8, 101838, Control_c, 3, 11, 118
8, 101856, Control_c, 3, 11, 119
8, 101874, Control_c, 3, 11, 120
8, 101892, Control_c, 3, 11, 121
8, 101910, Control_c, 3, 11, 122
8, 101928, Control_c, 3, 11, 123
8, 101946, Control_c, 3, 11, 124
8, 101964, Control_c, 3, 11, 125
8, 101982, Control_c, 3, 11, 126
8, 102000, Control_c, 3, 11, 127
8, 102015, Control_c, 3, 11, 125
8, 102030, Control_c, 3, 11, 124
8, 102045, Control_c, 3, 11, 122
8, 102060, Control_c, 3, 11, 120
8, 102075, Control_c, 3, 11, 119
8, 102090, Control_c, 3, 11, 117
8, 102105, Control_c, 3, 11, 115
8, 102120, Control_c, 3, 11, 114
8, 102135, Control_c, 3, 11, 112
8, 102150, Control_c, 3, 11, 110
8, 102165, Control_c, 3, 11, 109
8, 102180, Control_c, 3, 11, 107
8, 102195, Control_c, 3, 11, 105
8, 102210, Control_c, 3, 11, 104
8, 102225, Control_c, 3, 11, 102
8, 102240, Control_c, 3, 11, 100
8, 102255, Control_c, 3, 11, 99
8, 102270, Control_c, 3, 11, 97
8, 102285, Control_c, 3, 11, 95
8, 102300, Control_c, 3, 11, 94
8, 102315, Control_c, 3, 11, 92
8, 102330, Control_c, 3, 11, 90
8, 102345, Control_c, 3, 11, 89
8, 102359, Note_on_c, 3, 57, 0
8, 102359, Note_on_c, 3, 69, 0
8, 102360, Note_on_c, 3, 70, 68
8, 102360, Note_on_c, 3, 58, 68
8, 102591, Note_on_c, 3, 70, 0
8, 102591, Note_on_c, 3, 58, 0
8, 102600, Note_on_c, 3, 70, 68
8, 102600, Note_on_c, 3, 77, 68
8, 102711, Note_on_c, 3, 70, 0
8, 102711, Note_on_c, 3, 77, 0
8, 102720, Control_c, 3, 11, 87
8, 102720, Note_on_c, 3, 77, 68
8, 102720, Note_on_c, 3, 70, 68
8, 102738, Control_c, 3, 11, 88
8, 102756, Control_c, 3, 11, 89
8, 102774, Control_c, 3, 11, 90
8, 102792, Control_c, 3, 11, 91
8, 102810, Control_c, 3, 11, 92
8, 102828, Control_c, 3, 11, 93
8, 102846, Control_c, 3, 11, 94
8, 102864, Control_c, 3, 11, 95
8, 102882, Control_c, 3, 11, 96
8, 102900, Control_c, 3, 11, 97
8, 102918, Control_c, 3, 11, 98
8, 102936, Control_c, 3, 11, 99
8, 102954, Control_c, 3, 11, 100
8, 102972, Control_c, 3, 11, 101
8, 102990, Control_c, 3, 11, 102
8, 103008, Control_c, 3, 11, 103
8, 103026, Control_c, 3, 11, 104
8, 103044, Control_c, 3, 11, 105
8, 103062, Control_c, 3, 11, 106
8, 103079, Note_on_c, 3, 70, 0
8, 103080, Control_c, 3, 11, 107
8, 103080, Note_on_c, 3, 72, 68
8, 103098, Control_c, 3, 11, 108
8, 103116, Control_c, 3, 11, 109
8, 103134, Control_c, 3, 11, 110
8, 103139, Note_on_c, 3, 77, 0
8, 103140, Note_on_c, 3, 75, 68
8, 103152, Control_c, 3, 11, 111
8, 103170, Control_c, 3, 11, 112
8, 103188, Control_c, 3, 11, 113
8, 103199, Note_on_c, 3, 75, 0
8, 103200, Note_on_c, 3, 74, 68
8, 103206, Control_c, 3, 11, 114
8, 103224, Control_c, 3, 11, 115
8, 103242, Control_c, 3, 11, 116
8, 103259, Note_on_c, 3, 74, 0
8, 103260, Note_on_c, 3, 75, 68
8, 103260, Control_c, 3, 11, 117
8, 103278, Control_c, 3, 11, 118
8, 103296, Control_c, 3, 11, 119
8, 103314, Control_c, 3, 11, 120
8, 103319, Note_on_c, 3, 75, 0
8, 103320, Note_on_c, 3, 79, 68
8, 103332, Control_c, 3, 11, 121
8, 103350, Control_c, 3, 11, 122
8, 103368, Control_c, 3, 11, 123
8, 103379, Note_on_c, 3, 79, 0
8, 103380, Note_on_c, 3, 75, 68
8, 103386, Control_c, 3, 11, 124
8, 103404, Control_c, 3, 11, 125
8, 103422, Control_c, 3, 11, 126
8, 103431, Note_on_c, 3, 75, 0
8, 103440, Note_on_c, 3, 75, 68
8, 103440, Control_c, 3, 11, 127
8, 103455, Control_c, 3, 11, 125
8, 103470, Control_c, 3, 11, 124
8, 103485, Control_c, 3, 11, 122
8, 103500, Control_c, 3, 11, 120
8, 103515, Control_c, 3, 11, 119
8, 103530, Control_c, 3, 11, 117
8, 103545, Control_c, 3, 11, 115
8, 103560, Control_c, 3, 11, 114
8, 103575, Control_c, 3, 11, 112
8, 103590, Control_c, 3, 11, 110
8, 103605, Control_c, 3, 11, 109
8, 103620, Control_c, 3, 11, 107
8, 103635, Control_c, 3, 11, 105
8, 103650, Control_c, 3, 11, 104
8, 103665, Control_c, 3, 11, 102
8, 103679, Note_on_c, 3, 72, 0
8, 103679, Note_on_c, 3, 75, 0
8, 103680, Note_on_c, 3, 70, 68
8, 103680, Note_on_c, 3, 74, 68
8, 103680, Control_c, 3, 11, 100
8, 103695, Control_c, 3, 11, 99
8, 103710, Control_c, 3, 11, 97
8, 103725, Control_c, 3, 11, 95
8, 103740, Control_c, 3, 11, 94
8, 103755, Control_c, 3, 11, 92
8, 103770, Control_c, 3, 11, 90
8, 103785, Control_c, 3, 11, 89
8, 103799, Note_on_c, 3, 70, 0
8, 103799, Note_on_c, 3, 74, 0
8, 104511, Control_c, 3, 11, 104
8, 104520, Note_on_c, 3, 70, 68
8, 104558, Control_c, 3, 11, 105
8, 104605, Control_c, 3, 11, 106
8, 104653, Control_c, 3, 11, 107
8, 104700, Control_c, 3, 11, 108
8, 104747, Control_c, 3, 11, 109
8, 104795, Control_c, 3, 11, 110
8, 104842, Control_c, 3, 11, 111
8, 104880, Note_on_c, 3, 72, 68
8, 104889, Control_c, 3, 11, 112
8, 104937, Control_c, 3, 11, 113
8, 104984, Control_c, 3, 11, 114
8, 105032, Control_c, 3, 11, 115
8, 105079, Control_c, 3, 11, 116
8, 105126, Control_c, 3, 11, 117
8, 105174, Control_c, 3, 11, 118
8, 105221, Control_c, 3, 11, 119
8, 105268, Control_c, 3, 11, 120
8, 105316, Control_c, 3, 11, 121
8, 105363, Control_c, 3, 11, 122
8, 105411, Control_c, 3, 11, 123
8, 105458, Control_c, 3, 11, 124
8, 105505, Control_c, 3, 11, 125
8, 105553, Control_c, 3, 11, 127
8, 105591, Note_on_c, 3, 70, 0
8, 105591, Note_on_c, 3, 72, 0
8, 105600, Note_on_c, 3, 70, 68
8, 105600, Note_on_c, 3, 74, 68
8, 105618, Control_c, 3, 11, 126
8, 105636, Control_c, 3, 11, 125
8, 105654, Control_c, 3, 11, 124
8, 105672, Control_c, 3, 11, 123
8, 105690, Control_c, 3, 11, 122
8, 105708, Control_c, 3, 11, 121
8, 105726, Control_c, 3, 11, 120
8, 105744, Control_c, 3, 11, 119
8, 105762, Control_c, 3, 11, 118
8, 105780, Control_c, 3, 11, 117
8, 105798, Control_c, 3, 11, 116
8, 105816, Control_c, 3, 11, 115
8, 105834, Control_c, 3, 11, 114
8, 105852, Control_c, 3, 11, 113
8, 105870, Control_c, 3, 11, 112
8, 105888, Control_c, 3, 11, 111
8, 105906, Control_c, 3, 11, 110
8, 105924, Control_c, 3, 11, 109
8, 105942, Control_c, 3, 11, 108
8, 105960, Control_c, 3, 11, 107
8, 105978, Control_c, 3, 11, 106
8, 105996, Control_c, 3, 11, 105
8, 106014, Control_c, 3, 11, 104
8, 106032, Control_c, 3, 11, 103
8, 106050, Control_c, 3, 11, 102
8, 106068, Control_c, 3, 11, 101
8, 106086, Control_c, 3, 11, 100
8, 106104, Control_c, 3, 11, 99
8, 106122, Control_c, 3, 11, 98
8, 106140, Control_c, 3, 11, 97
8, 106158, Control_c, 3, 11, 96
8, 106176, Control_c, 3, 11, 95
8, 106191, Note_on_c, 3, 70, 0
8, 106191, Note_on_c, 3, 74, 0
8, 106194, Control_c, 3, 11, 94
8, 106200, Note_on_c, 3, 62, 68
8, 106200, Note_on_c, 3, 74, 68
8, 106212, Control_c, 3, 11, 93
8, 106230, Control_c, 3, 11, 92
8, 106248, Control_c, 3, 11, 91
8, 106266, Control_c, 3, 11, 90
8, 106284, Control_c, 3, 11, 89
8, 106319, Note_on_c, 3, 62, 0
8, 106319, Note_on_c, 3, 74, 0
8, 106320, Note_on_c, 3, 77, 68
8, 106320, Note_on_c, 3, 65, 68
8, 106679, Note_on_c, 3, 77, 0
8, 106679, Note_on_c, 3, 65, 0
8, 106680, Note_on_c, 3, 75, 68
8, 106680, Note_on_c, 3, 63, 68
8, 106919, Note_on_c, 3, 75, 0
8, 106919, Note_on_c, 3, 63, 0
8, 106920, Note_on_c, 3, 60, 68
8, 106920, Note_on_c, 3, 72, 68
8, 107031, Note_on_c, 3, 60, 0
8, 107031, Note_on_c, 3, 72, 0
8, 107040, Note_on_c, 3, 72, 68
8, 107040, Note_on_c, 3, 60, 68
8, 107639, Note_on_c, 3, 72, 0
8, 107639, Note_on_c, 3, 60, 0
8, 107640, Note_on_c, 3, 74, 68
8, 107640, Note_on_c, 3, 62, 68
8, 107759, Note_on_c, 3, 74, 0
8, 107759, Note_on_c, 3, 62, 0
8, 107880, Note_on_c, 3, 70, 68
8, 107880, Note_on_c, 3, 58, 68
8, 107999, Note_on_c, 3, 70, 0
8, 107999, Note_on_c, 3, 58, 0
8, 108000, Note_on_c, 3, 72, 68
8, 108000, Note_on_c, 3, 69, 68
8, 108059, Note_on_c, 3, 72, 0
8, 108059, Note_on_c, 3, 69, 0
8, 108060, Note_on_c, 3, 70, 68
8, 108060, Note_on_c, 3, 74, 68
8, 108119, Note_on_c, 3, 70, 0
8, 108119, Note_on_c, 3, 74, 0
8, 108120, Note_on_c, 3, 72, 68
8, 108120, Note_on_c, 3, 75, 68
8, 108359, Note_on_c, 3, 72, 0
8, 108359, Note_on_c, 3, 75, 0
8, 108360, Note_on_c, 3, 63, 68
8, 108360, Note_on_c, 3, 72, 68
8, 108471, Note_on_c, 3, 63, 0
8, 108471, Note_on_c, 3, 72, 0
8, 108480, Note_on_c, 3, 72, 68
8, 108480, Note_on_c, 3, 63, 68
8, 109079, Note_on_c, 3, 72, 0
8, 109079, Note_on_c, 3, 63, 0
8, 109080, Note_on_c, 3, 74, 68
8, 109080, Note_on_c, 3, 65, 68
8, 109191, Note_on_c, 3, 74, 0
8, 109191, Note_on_c, 3, 65, 0
8, 109200, Note_on_c, 3, 63, 68
8, 109200, Note_on_c, 3, 72, 68
8, 109439, Note_on_c, 3, 63, 0
8, 109439, Note_on_c, 3, 72, 0
8, 109440, Note_on_c, 3, 70, 68
8, 109440, Note_on_c, 3, 62, 68
8, 109559, Note_on_c, 3, 70, 0
8, 109559, Note_on_c, 3, 62, 0
8, 109560, Note_on_c, 3, 74, 68
8, 109560, Note_on_c, 3, 70, 68
8, 109799, Note_on_c, 3, 74, 0
8, 109799, Note_on_c, 3, 70, 0
8, 109800, Note_on_c, 3, 72, 68
8, 109800, Note_on_c, 3, 75, 68
8, 109911, Note_on_c, 3, 72, 0
8, 109911, Note_on_c, 3, 75, 0
8, 109920, Note_on_c, 3, 72, 68
8, 109920, Note_on_c, 3, 75, 68
8, 110519, Note_on_c, 3, 72, 0
8, 110519, Note_on_c, 3, 75, 0
8, 110520, Note_on_c, 3, 77, 68
8, 110520, Note_on_c, 3, 74, 68
8, 110639, Note_on_c, 3, 77, 0
8, 110639, Note_on_c, 3, 74, 0
8, 110640, Note_on_c, 3, 75, 68
8, 110640, Note_on_c, 3, 72, 68
8, 110879, Note_on_c, 3, 75, 0
8, 110879, Note_on_c, 3, 72, 0
8, 110880, Note_on_c, 3, 70, 68
8, 110880, Note_on_c, 3, 74, 68
8, 110991, Note_on_c, 3, 70, 0
8, 110991, Note_on_c, 3, 74, 0
8, 111000, Control_c, 3, 11, 89
8, 111000, Note_on_c, 3, 79, 68
8, 111000, Note_on_c, 3, 70, 68
8, 111047, Control_c, 3, 11, 90
8, 111095, Control_c, 3, 11, 91
8, 111142, Control_c, 3, 11, 92
8, 111189, Control_c, 3, 11, 93
8, 111237, Control_c, 3, 11, 94
8, 111284, Control_c, 3, 11, 95
8, 111332, Control_c, 3, 11, 96
8, 111351, Note_on_c, 3, 79, 0
8, 111351, Note_on_c, 3, 70, 0
8, 111360, Note_on_c, 3, 79, 68
8, 111360, Note_on_c, 3, 70, 68
8, 111379, Control_c, 3, 11, 97
8, 111426, Control_c, 3, 11, 98
8, 111474, Control_c, 3, 11, 99
8, 111521, Control_c, 3, 11, 100
8, 111568, Control_c, 3, 11, 101
8, 111616, Control_c, 3, 11, 102
8, 111663, Control_c, 3, 11, 103
8, 111711, Note_on_c, 3, 70, 0
8, 111711, Control_c, 3, 11, 104
8, 111720, Note_on_c, 3, 67, 68
8, 111758, Control_c, 3, 11, 105
8, 111805, Control_c, 3, 11, 106
8, 111853, Control_c, 3, 11, 107
8, 111900, Control_c, 3, 11, 108
8, 111947, Control_c, 3, 11, 109
8, 111995, Control_c, 3, 11, 110
8, 112042, Control_c, 3, 11, 111
8, 112089, Control_c, 3, 11, 112
8, 112137, Control_c, 3, 11, 113
8, 112184, Control_c, 3, 11, 114
8, 112232, Control_c, 3, 11, 115
8, 112279, Control_c, 3, 11, 116
8, 112311, Note_on_c, 3, 79, 0
8, 112311, Note_on_c, 3, 67, 0
8, 112320, Note_on_c, 3, 67, 68
8, 112320, Note_on_c, 3, 79, 68
8, 112326, Control_c, 3, 11, 117
8, 112374, Control_c, 3, 11, 118
8, 112421, Control_c, 3, 11, 119
8, 112431, Note_on_c, 3, 67, 0
8, 112431, Note_on_c, 3, 79, 0
8, 112440, Note_on_c, 3, 79, 68
8, 112440, Note_on_c, 3, 67, 68
8, 112468, Control_c, 3, 11, 120
8, 112516, Control_c, 3, 11, 121
8, 112559, Note_on_c, 3, 79, 0
8, 112559, Note_on_c, 3, 67, 0
8, 112560, Note_on_c, 3, 69, 68
8, 112560, Note_on_c, 3, 81, 68
8, 112563, Control_c, 3, 11, 122
8, 112611, Control_c, 3, 11, 123
8, 112658, Control_c, 3, 11, 124
8, 112679, Note_on_c, 3, 69, 0
8, 112679, Note_on_c, 3, 81, 0
8, 112680, Note_on_c, 3, 82, 68
8, 112680, Note_on_c, 3, 70, 68
8, 112705, Control_c, 3, 11, 125
8, 112753, Control_c, 3, 11, 126
8, 112791, Note_on_c, 3, 82, 0
8, 112791, Note_on_c, 3, 70, 0
8, 112800, Control_c, 3, 11, 127
8, 112800, Note_on_c, 3, 70, 68
8, 112800, Note_on_c, 3, 82, 68
8, 112818, Control_c, 3, 11, 126
8, 112836, Control_c, 3, 11, 125
8, 112854, Control_c, 3, 11, 124
8, 112872, Control_c, 3, 11, 123
8, 112890, Control_c, 3, 11, 122
8, 112908, Control_c, 3, 11, 121
8, 112926, Control_c, 3, 11, 120
8, 112944, Control_c, 3, 11, 119
8, 112962, Control_c, 3, 11, 118
8, 112980, Control_c, 3, 11, 117
8, 112998, Control_c, 3, 11, 116
8, 113016, Control_c, 3, 11, 115
8, 113034, Control_c, 3, 11, 114
8, 113052, Control_c, 3, 11, 113
8, 113070, Control_c, 3, 11, 112
8, 113088, Control_c, 3, 11, 111
8, 113106, Control_c, 3, 11, 110
8, 113124, Control_c, 3, 11, 109
8, 113142, Control_c, 3, 11, 108
8, 113160, Control_c, 3, 11, 107
8, 113178, Control_c, 3, 11, 106
8, 113196, Control_c, 3, 11, 105
8, 113214, Control_c, 3, 11, 104
8, 113232, Control_c, 3, 11, 103
8, 113250, Control_c, 3, 11, 102
8, 113268, Control_c, 3, 11, 101
8, 113286, Control_c, 3, 11, 100
8, 113304, Control_c, 3, 11, 99
8, 113322, Control_c, 3, 11, 98
8, 113340, Control_c, 3, 11, 97
8, 113358, Control_c, 3, 11, 96
8, 113376, Control_c, 3, 11, 95
8, 113394, Control_c, 3, 11, 94
8, 113399, Note_on_c, 3, 70, 0
8, 113399, Note_on_c, 3, 82, 0
8, 113400, Note_on_c, 3, 62, 68
8, 113400, Note_on_c, 3, 74, 68
8, 113412, Control_c, 3, 11, 93
8, 113430, Control_c, 3, 11, 92
8, 113448, Control_c, 3, 11, 91
8, 113466, Control_c, 3, 11, 90
8, 113484, Control_c, 3, 11, 89
8, 113502, Control_c, 3, 11, 87
8, 113519, Note_on_c, 3, 62, 0
8, 113519, Note_on_c, 3, 74, 0
8, 113520, Note_on_c, 3, 65, 68
8, 113520, Note_on_c, 3, 77, 68
8, 113879, Note_on_c, 3, 65, 0
8, 113879, Note_on_c, 3, 77, 0
8, 113880, Note_on_c, 3, 63, 68
8, 113880, Note_on_c, 3, 75, 68
8, 114119, Note_on_c, 3, 63, 0
8, 114119, Note_on_c, 3, 75, 0
8, 114120, Note_on_c, 3, 72, 68
8, 114120, Note_on_c, 3, 60, 68
8, 114231, Note_on_c, 3, 72, 0
8, 114231, Note_on_c, 3, 60, 0
8, 114240, Control_c, 3, 11, 79
8, 114240, Note_on_c, 3, 75, 68
8, 114240, Note_on_c, 3, 69, 68
8, 114599, Note_on_c, 3, 69, 0
8, 114600, Note_on_c, 3, 72, 68
8, 114959, Note_on_c, 3, 72, 0
8, 114960, Note_on_c, 3, 69, 68
8, 115319, Note_on_c, 3, 75, 0
8, 115319, Note_on_c, 3, 69, 0
8, 115320, Note_on_c, 3, 74, 68
8, 115320, Note_on_c, 3, 70, 68
8, 115671, Note_on_c, 3, 74, 0
8, 115671, Note_on_c, 3, 70, 0
8, 115678, Control_c, 3, 11, 47
8, 115680, Note_on_c, 3, 69, 68
8, 115680, Note_on_c, 3, 75, 68
8, 116039, Note_on_c, 3, 69, 0
8, 116040, Note_on_c, 3, 72, 68
8, 116399, Note_on_c, 3, 72, 0
8, 116400, Control_c, 3, 11, 47
8, 116400, Note_on_c, 3, 69, 68
8, 116417, Control_c, 3, 11, 49
8, 116433, Control_c, 3, 11, 51
8, 116450, Control_c, 3, 11, 54
8, 116467, Control_c, 3, 11, 56
8, 116483, Control_c, 3, 11, 58
8, 116500, Control_c, 3, 11, 60
8, 116517, Control_c, 3, 11, 63
8, 116533, Control_c, 3, 11, 65
8, 116550, Control_c, 3, 11, 67
8, 116567, Control_c, 3, 11, 69
8, 116583, Control_c, 3, 11, 71
8, 116600, Control_c, 3, 11, 74
8, 116617, Control_c, 3, 11, 76
8, 116633, Control_c, 3, 11, 78
8, 116650, Control_c, 3, 11, 80
8, 116667, Control_c, 3, 11, 83
8, 116683, Control_c, 3, 11, 85
8, 116700, Control_c, 3, 11, 87
8, 116717, Control_c, 3, 11, 89
8, 116733, Control_c, 3, 11, 91
8, 116750, Control_c, 3, 11, 94
8, 116759, Note_on_c, 3, 75, 0
8, 116759, Note_on_c, 3, 69, 0
8, 116760, Note_on_c, 3, 74, 68
8, 116760, Note_on_c, 3, 68, 68
8, 116767, Control_c, 3, 11, 96
8, 116783, Control_c, 3, 11, 98
8, 116800, Control_c, 3, 11, 100
8, 116817, Control_c, 3, 11, 103
8, 116833, Control_c, 3, 11, 105
8, 116850, Control_c, 3, 11, 107
8, 116867, Control_c, 3, 11, 109
8, 116883, Control_c, 3, 11, 111
8, 116900, Control_c, 3, 11, 114
8, 116917, Control_c, 3, 11, 116
8, 116933, Control_c, 3, 11, 118
8, 116950, Control_c, 3, 11, 120
8, 116967, Control_c, 3, 11, 123
8, 116983, Control_c, 3, 11, 127
8, 116991, Note_on_c, 3, 74, 0
8, 116991, Note_on_c, 3, 68, 0
8, 117000, Note_on_c, 3, 58, 80
8, 117000, Note_on_c, 3, 70, 80
8, 117051, Note_on_c, 3, 58, 0
8, 117051, Note_on_c, 3, 70, 0
8, 117060, Note_on_c, 3, 70, 80
8, 117060, Note_on_c, 3, 58, 80
8, 117111, Note_on_c, 3, 70, 0
8, 117111, Note_on_c, 3, 58, 0
8, 117120, Note_on_c, 3, 75, 80
8, 117120, Note_on_c, 3, 63, 80
8, 117239, Note_on_c, 3, 75, 0
8, 117239, Note_on_c, 3, 63, 0
8, 117720, Note_on_c, 3, 63, 80
8, 117720, Note_on_c, 3, 75, 80
8, 117771, Note_on_c, 3, 63, 0
8, 117771, Note_on_c, 3, 75, 0
8, 117780, Note_on_c, 3, 63, 80
8, 117780, Note_on_c, 3, 75, 80
8, 117831, Note_on_c, 3, 63, 0
8, 117831, Note_on_c, 3, 75, 0
8, 117840, Note_on_c, 3, 70, 80
8, 117840, Note_on_c, 3, 82, 80
8, 117959, Note_on_c, 3, 70, 0
8, 117959, Note_on_c, 3, 82, 0
8, 118440, Note_on_c, 3, 82, 80
8, 118440, Note_on_c, 3, 70, 80
8, 118491, Note_on_c, 3, 82, 0
8, 118491, Note_on_c, 3, 70, 0
8, 118500, Note_on_c, 3, 70, 80
8, 118500, Note_on_c, 3, 82, 80
8, 118551, Note_on_c, 3, 70, 0
8, 118551, Note_on_c, 3, 82, 0
8, 118560, Note_on_c, 3, 79, 92
8, 118560, Note_on_c, 3, 75, 92
8, 118619, Note_on_c, 3, 79, 0
8, 118619, Note_on_c, 3, 75, 0
8, 118800, Note_on_c, 3, 75, 80
8, 118800, Note_on_c, 3, 79, 80
8, 118851, Note_on_c, 3, 75, 0
8, 118851, Note_on_c, 3, 79, 0
8, 118860, Note_on_c, 3, 79, 80
8, 118860, Note_on_c, 3, 75, 80
8, 118911, Note_on_c, 3, 79, 0
8, 118911, Note_on_c, 3, 75, 0
8, 118920, Note_on_c, 3, 74, 92
8, 118920, Note_on_c, 3, 77, 92
8, 118979, Note_on_c, 3, 74, 0
8, 118979, Note_on_c, 3, 77, 0
8, 119160, Note_on_c, 3, 77, 80
8, 119160, Note_on_c, 3, 74, 80
8, 119211, Note_on_c, 3, 77, 0
8, 119211, Note_on_c, 3, 74, 0
8, 119220, Note_on_c, 3, 77, 80
8, 119220, Note_on_c, 3, 74, 80
8, 119271, Note_on_c, 3, 77, 0
8, 119271, Note_on_c, 3, 74, 0
8, 119280, Note_on_c, 3, 72, 80
8, 119280, Note_on_c, 3, 77, 80
8, 119519, Note_on_c, 3, 72, 0
8, 119519, Note_on_c, 3, 77, 0
8, 122160, Note_on_c, 3, 78, 56
8, 122160, Control_c, 3, 11, 127
8, 122220, Control_c, 3, 11, 126
8, 122280, Control_c, 3, 11, 125
8, 122340, Control_c, 3, 11, 122
8, 122400, Control_c, 3, 11, 121
8, 122460, Control_c, 3, 11, 120
8, 122520, Control_c, 3, 11, 119
8, 122580, Control_c, 3, 11, 116
8, 122640, Control_c, 3, 11, 115
8, 122700, Control_c, 3, 11, 114
8, 122760, Control_c, 3, 11, 112
8, 122820, Control_c, 3, 11, 110
8, 122879, Note_on_c, 3, 78, 0
8, 122880, Note_on_c, 3, 74, 56
8, 122880, Control_c, 3, 11, 99
8, 123239, Note_on_c, 3, 74, 0
8, 123240, Note_on_c, 3, 70, 56
8, 123591, Note_on_c, 3, 70, 0
8, 123600, Note_on_c, 3, 69, 56
8, 124311, Note_on_c, 3, 69, 0
8, 124320, Note_on_c, 3, 70, 56
8, 125031, Note_on_c, 3, 70, 0
8, 125040, Note_on_c, 3, 69, 56
8, 125519, Note_on_c, 3, 69, 0
8, 125520, Note_on_c, 3, 70, 56
8, 125639, Note_on_c, 3, 70, 0
8, 125640, Note_on_c, 3, 72, 56
8, 125729, Note_on_c, 3, 72, 0
8, 125758, Control_c, 3, 11, 69
8, 125760, Control_c, 3, 11, 69
8, 125760, Note_on_c, 3, 62, 80
8, 125760, Note_on_c, 3, 74, 80
8, 125857, Control_c, 3, 11, 70
8, 125954, Control_c, 3, 11, 71
8, 126052, Control_c, 3, 11, 72
8, 126149, Control_c, 3, 11, 73
8, 126246, Control_c, 3, 11, 74
8, 126343, Control_c, 3, 11, 75
8, 126441, Control_c, 3, 11, 76
8, 126471, Note_on_c, 3, 62, 0
8, 126471, Note_on_c, 3, 74, 0
8, 126480, Note_on_c, 3, 57, 80
8, 126480, Note_on_c, 3, 69, 80
8, 126538, Control_c, 3, 11, 77
8, 126635, Control_c, 3, 11, 78
8, 126732, Control_c, 3, 11, 79
8, 126830, Control_c, 3, 11, 80
8, 126927, Control_c, 3, 11, 81
8, 127024, Control_c, 3, 11, 82
8, 127121, Control_c, 3, 11, 83
8, 127191, Note_on_c, 3, 57, 0
8, 127191, Note_on_c, 3, 69, 0
8, 127200, Note_on_c, 3, 70, 80
8, 127200, Note_on_c, 3, 58, 80
8, 127219, Control_c, 3, 11, 84
8, 127316, Control_c, 3, 11, 85
8, 127413, Control_c, 3, 11, 86
8, 127510, Control_c, 3, 11, 87
8, 127559, Note_on_c, 3, 70, 0
8, 127559, Note_on_c, 3, 58, 0
8, 127560, Note_on_c, 3, 72, 80
8, 127560, Note_on_c, 3, 60, 80
8, 127608, Control_c, 3, 11, 88
8, 127705, Control_c, 3, 11, 89
8, 127802, Control_c, 3, 11, 90
8, 127899, Control_c, 3, 11, 91
8, 127919, Note_on_c, 3, 72, 0
8, 127919, Note_on_c, 3, 60, 0
8, 127920, Note_on_c, 3, 74, 80
8, 127920, Note_on_c, 3, 62, 80
8, 127997, Control_c, 3, 11, 92
8, 128094, Control_c, 3, 11, 93
8, 128191, Control_c, 3, 11, 94
8, 128279, Note_on_c, 3, 74, 0
8, 128279, Note_on_c, 3, 62, 0
8, 128280, Note_on_c, 3, 75, 80
8, 128280, Note_on_c, 3, 63, 80
8, 128288, Control_c, 3, 11, 95
8, 128386, Control_c, 3, 11, 96
8, 128483, Control_c, 3, 11, 97
8, 128580, Control_c, 3, 11, 98
8, 128631, Note_on_c, 3, 75, 0
8, 128631, Note_on_c, 3, 63, 0
8, 128640, Note_on_c, 3, 77, 80
8, 128640, Note_on_c, 3, 65, 80
8, 128677, Control_c, 3, 11, 99
8, 128774, Control_c, 3, 11, 100
8, 128872, Control_c, 3, 11, 101
8, 128969, Control_c, 3, 11, 102
8, 129066, Control_c, 3, 11, 103
8, 129163, Control_c, 3, 11, 104
8, 129261, Control_c, 3, 11, 105
8, 129358, Control_c, 3, 11, 106
8, 129455, Control_c, 3, 11, 107
8, 129552, Control_c, 3, 11, 108
8, 129599, Note_on_c, 3, 77, 0
8, 129599, Note_on_c, 3, 65, 0
8, 129600, Note_on_c, 3, 63, 80
8, 129600, Note_on_c, 3, 75, 80
8, 129650, Control_c, 3, 11, 109
8, 129747, Control_c, 3, 11, 110
8, 129839, Note_on_c, 3, 63, 0
8, 129839, Note_on_c, 3, 75, 0
8, 129840, Note_on_c, 3, 74, 80
8, 129840, Note_on_c, 3, 62, 80
8, 129844, Control_c, 3, 11, 111
8, 129941, Control_c, 3, 11, 112
8, 129959, Note_on_c, 3, 74, 0
8, 129959, Note_on_c, 3, 62, 0
8, 129960, Note_on_c, 3, 60, 80
8, 129960, Note_on_c, 3, 72, 80
8, 130039, Control_c, 3, 11, 113
8, 130049, Note_on_c, 3, 60, 0
8, 130049, Note_on_c, 3, 72, 0
8, 130080, Note_on_c, 3, 62, 80
8, 130080, Note_on_c, 3, 74, 80
8, 130136, Control_c, 3, 11, 114
8, 130233, Control_c, 3, 11, 115
8, 130330, Control_c, 3, 11, 116
8, 130428, Control_c, 3, 11, 117
8, 130439, Note_on_c, 3, 62, 0
8, 130439, Note_on_c, 3, 74, 0
8, 130440, Note_on_c, 3, 77, 80
8, 130440, Note_on_c, 3, 65, 80
8, 130525, Control_c, 3, 11, 118
8, 130622, Control_c, 3, 11, 119
8, 130679, Note_on_c, 3, 77, 0
8, 130679, Note_on_c, 3, 65, 0
8, 130680, Note_on_c, 3, 75, 80
8, 130680, Note_on_c, 3, 63, 80
8, 130719, Control_c, 3, 11, 120
8, 130791, Note_on_c, 3, 75, 0
8, 130791, Note_on_c, 3, 63, 0
8, 130800, Note_on_c, 3, 72, 80
8, 130800, Note_on_c, 3, 60, 80
8, 130817, Control_c, 3, 11, 121
8, 130914, Control_c, 3, 11, 122
8, 130919, Note_on_c, 3, 60, 0
8, 130920, Note_on_c, 3, 69, 80
8, 131011, Control_c, 3, 11, 123
8, 131108, Control_c, 3, 11, 124
8, 131159, Note_on_c, 3, 72, 0
8, 131159, Note_on_c, 3, 69, 0
8, 131160, Note_on_c, 3, 68, 80
8, 131160, Note_on_c, 3, 70, 80
8, 131206, Control_c, 3, 11, 125
8, 131303, Control_c, 3, 11, 126
8, 131391, Note_on_c, 3, 68, 0
8, 131391, Note_on_c, 3, 70, 0
8, 131400, Note_on_c, 3, 58, 80
8, 131400, Note_on_c, 3, 70, 80
8, 131451, Note_on_c, 3, 58, 0
8, 131451, Note_on_c, 3, 70, 0
8, 131460, Note_on_c, 3, 58, 80
8, 131460, Note_on_c, 3, 70, 80
8, 131511, Note_on_c, 3, 58, 0
8, 131511, Note_on_c, 3, 70, 0
8, 131520, Note_on_c, 3, 63, 80
8, 131520, Note_on_c, 3, 75, 80
8, 131639, Note_on_c, 3, 63, 0
8, 131639, Note_on_c, 3, 75, 0
8, 132120, Note_on_c, 3, 75, 80
8, 132120, Note_on_c, 3, 63, 80
8, 132171, Note_on_c, 3, 75, 0
8, 132171, Note_on_c, 3, 63, 0
8, 132180, Note_on_c, 3, 63, 80
8, 132180, Note_on_c, 3, 75, 80
8, 132231, Note_on_c, 3, 63, 0
8, 132231, Note_on_c, 3, 75, 0
8, 132240, Note_on_c, 3, 70, 80
8, 132240, Note_on_c, 3, 82, 80
8, 132359, Note_on_c, 3, 70, 0
8, 132359, Note_on_c, 3, 82, 0
8, 132840, Note_on_c, 3, 70, 80
8, 132840, Note_on_c, 3, 82, 80
8, 132891, Note_on_c, 3, 70, 0
8, 132891, Note_on_c, 3, 82, 0
8, 132900, Note_on_c, 3, 70, 80
8, 132900, Note_on_c, 3, 82, 80
8, 132951, Note_on_c, 3, 70, 0
8, 132951, Note_on_c, 3, 82, 0
8, 132960, Note_on_c, 3, 79, 92
8, 132960, Note_on_c, 3, 75, 92
8, 133019, Note_on_c, 3, 79, 0
8, 133019, Note_on_c, 3, 75, 0
8, 133200, Note_on_c, 3, 79, 80
8, 133200, Note_on_c, 3, 75, 80
8, 133251, Note_on_c, 3, 79, 0
8, 133251, Note_on_c, 3, 75, 0
8, 133260, Note_on_c, 3, 75, 80
8, 133260, Note_on_c, 3, 79, 80
8, 133311, Note_on_c, 3, 75, 0
8, 133311, Note_on_c, 3, 79, 0
8, 133320, Note_on_c, 3, 74, 92
8, 133320, Note_on_c, 3, 77, 92
8, 133379, Note_on_c, 3, 74, 0
8, 133379, Note_on_c, 3, 77, 0
8, 133560, Note_on_c, 3, 77, 80
8, 133560, Note_on_c, 3, 74, 80
8, 133611, Note_on_c, 3, 77, 0
8, 133611, Note_on_c, 3, 74, 0
8, 133620, Note_on_c, 3, 74, 80
8, 133620, Note_on_c, 3, 77, 80
8, 133671, Note_on_c, 3, 74, 0
8, 133671, Note_on_c, 3, 77, 0
8, 133680, Note_on_c, 3, 77, 80
8, 133680, Note_on_c, 3, 72, 80
8, 133919, Note_on_c, 3, 77, 0
8, 133919, Note_on_c, 3, 72, 0
8, 134400, Control_c, 3, 11, 127
8, 134400, Note_on_c, 3, 80, 80
8, 134400, Note_on_c, 3, 77, 80
8, 134490, Control_c, 3, 11, 124
8, 134580, Control_c, 3, 11, 121
8, 134670, Control_c, 3, 11, 117
8, 134760, Control_c, 3, 11, 115
8, 134850, Control_c, 3, 11, 111
8, 134940, Control_c, 3, 11, 109
8, 135030, Control_c, 3, 11, 105
8, 135120, Control_c, 3, 11, 101
8, 135210, Control_c, 3, 11, 99
8, 135300, Control_c, 3, 11, 95
8, 135390, Control_c, 3, 11, 92
8, 135824, Note_on_c, 3, 80, 0
8, 135824, Note_on_c, 3, 77, 0
8, 135838, Control_c, 3, 11, 127
8, 135840, Note_on_c, 3, 77, 56
8, 135840, Note_on_c, 3, 73, 56
8, 135960, Control_c, 3, 11, 126
8, 136080, Control_c, 3, 11, 125
8, 136199, Note_on_c, 3, 77, 0
8, 136199, Note_on_c, 3, 73, 0
8, 136200, Note_on_c, 3, 75, 56
8, 136200, Control_c, 3, 11, 122
8, 136200, Note_on_c, 3, 72, 56
8, 136320, Control_c, 3, 11, 121
8, 136439, Note_on_c, 3, 72, 0
8, 136440, Note_on_c, 3, 75, 56
8, 136440, Control_c, 3, 11, 120
8, 136559, Note_on_c, 3, 75, 0
8, 136560, Note_on_c, 3, 77, 56
8, 136560, Control_c, 3, 11, 119
8, 136680, Control_c, 3, 11, 116
8, 136800, Control_c, 3, 11, 115
8, 136919, Note_on_c, 3, 75, 0
8, 136920, Note_on_c, 3, 74, 56
8, 136920, Control_c, 3, 11, 114
8, 137040, Control_c, 3, 11, 112
8, 137160, Control_c, 3, 11, 110
8, 137271, Note_on_c, 3, 77, 0
8, 137271, Note_on_c, 3, 74, 0
8, 137278, Control_c, 3, 11, 89
8, 137280, Note_on_c, 3, 78, 68
8, 137280, Note_on_c, 3, 82, 68
8, 137416, Control_c, 3, 11, 87
8, 137550, Control_c, 3, 11, 86
8, 137686, Control_c, 3, 11, 85
8, 137820, Control_c, 3, 11, 84
8, 137956, Control_c, 3, 11, 82
8, 138090, Control_c, 3, 11, 81
8, 138226, Control_c, 3, 11, 80
8, 138351, Note_on_c, 3, 78, 0
8, 138360, Note_on_c, 3, 75, 68
8, 138711, Note_on_c, 3, 82, 0
8, 138720, Control_c, 3, 11, 79
8, 138720, Note_on_c, 3, 78, 68
8, 138796, Control_c, 3, 11, 77
8, 138870, Control_c, 3, 11, 76
8, 138946, Control_c, 3, 11, 75
8, 139020, Control_c, 3, 11, 74
8, 139079, Note_on_c, 3, 78, 0
8, 139080, Note_on_c, 3, 77, 68
8, 139096, Control_c, 3, 11, 72
8, 139170, Control_c, 3, 11, 71
8, 139246, Control_c, 3, 11, 70
8, 139431, Note_on_c, 3, 75, 0
8, 139440, Control_c, 3, 11, 69
8, 139440, Note_on_c, 3, 73, 68
8, 139500, Control_c, 3, 11, 70
8, 139560, Control_c, 3, 11, 72
8, 139620, Control_c, 3, 11, 74
8, 139680, Control_c, 3, 11, 75
8, 139740, Control_c, 3, 11, 77
8, 139800, Control_c, 3, 11, 79
8, 139860, Control_c, 3, 11, 80
8, 139920, Control_c, 3, 11, 82
8, 139980, Control_c, 3, 11, 84
8, 140040, Control_c, 3, 11, 85
8, 140100, Control_c, 3, 11, 87
8, 140151, Note_on_c, 3, 73, 0
8, 140160, Note_on_c, 3, 74, 68
8, 140160, Control_c, 3, 11, 89
8, 140271, Note_on_c, 3, 74, 0
8, 140279, Note_on_c, 3, 77, 0
8, 140280, Note_on_c, 3, 62, 68
8, 140399, Note_on_c, 3, 62, 0
8, 140400, Note_on_c, 3, 65, 68
8, 140519, Note_on_c, 3, 65, 0
8, 140520, Note_on_c, 3, 70, 68
8, 140639, Note_on_c, 3, 70, 0
8, 140640, Note_on_c, 3, 72, 68
8, 140759, Note_on_c, 3, 72, 0
8, 140760, Note_on_c, 3, 74, 68
8, 140871, Note_on_c, 3, 74, 0
8, 140880, Note_on_c, 3, 75, 68
8, 141359, Note_on_c, 3, 75, 0
8, 141360, Note_on_c, 3, 74, 68
8, 141479, Note_on_c, 3, 74, 0
8, 141480, Note_on_c, 3, 72, 68
8, 141569, Note_on_c, 3, 72, 0
8, 141600, Control_c, 3, 11, 89
8, 141600, Note_on_c, 3, 72, 68
8, 141619, Control_c, 3, 11, 90
8, 141638, Control_c, 3, 11, 91
8, 141657, Control_c, 3, 11, 92
8, 141676, Control_c, 3, 11, 93
8, 141695, Control_c, 3, 11, 94
8, 141714, Control_c, 3, 11, 95
8, 141719, Note_on_c, 3, 72, 0
8, 141720, Note_on_c, 3, 70, 68
8, 141733, Control_c, 3, 11, 96
8, 141752, Control_c, 3, 11, 97
8, 141771, Control_c, 3, 11, 98
8, 141789, Control_c, 3, 11, 99
8, 141808, Control_c, 3, 11, 100
8, 141827, Control_c, 3, 11, 101
8, 141839, Note_on_c, 3, 70, 0
8, 141840, Note_on_c, 3, 74, 68
8, 141846, Control_c, 3, 11, 102
8, 141865, Control_c, 3, 11, 103
8, 141884, Control_c, 3, 11, 104
8, 141903, Control_c, 3, 11, 105
8, 141922, Control_c, 3, 11, 106
8, 141941, Control_c, 3, 11, 107
8, 141951, Note_on_c, 3, 74, 0
8, 141960, Control_c, 3, 11, 108
8, 141960, Note_on_c, 3, 65, 68
8, 141979, Control_c, 3, 11, 109
8, 141998, Control_c, 3, 11, 110
8, 142017, Control_c, 3, 11, 111
8, 142036, Control_c, 3, 11, 112
8, 142055, Control_c, 3, 11, 113
8, 142074, Control_c, 3, 11, 114
8, 142079, Note_on_c, 3, 65, 0
8, 142080, Note_on_c, 3, 70, 68
8, 142093, Control_c, 3, 11, 115
8, 142112, Control_c, 3, 11, 116
8, 142131, Control_c, 3, 11, 117
8, 142149, Control_c, 3, 11, 118
8, 142168, Control_c, 3, 11, 119
8, 142187, Control_c, 3, 11, 120
8, 142199, Note_on_c, 3, 70, 0
8, 142200, Note_on_c, 3, 72, 68
8, 142206, Control_c, 3, 11, 121
8, 142225, Control_c, 3, 11, 122
8, 142244, Control_c, 3, 11, 123
8, 142259, Note_on_c, 3, 72, 0
8, 142260, Note_on_c, 3, 74, 68
8, 142263, Control_c, 3, 11, 124
8, 142282, Control_c, 3, 11, 125
8, 142301, Control_c, 3, 11, 126
8, 142311, Note_on_c, 3, 74, 0
8, 142320, Note_on_c, 3, 75, 68
8, 142559, Note_on_c, 3, 75, 0
8, 142560, Note_on_c, 3, 74, 68
8, 142739, Note_on_c, 3, 74, 0
8, 142740, Note_on_c, 3, 72, 68
8, 142799, Note_on_c, 3, 72, 0
8, 142800, Note_on_c, 3, 79, 68
8, 142800, Control_c, 3, 11, 127
8, 142820, Control_c, 3, 11, 124
8, 142840, Control_c, 3, 11, 121
8, 142860, Control_c, 3, 11, 117
8, 142880, Control_c, 3, 11, 115
8, 142900, Control_c, 3, 11, 111
8, 142919, Note_on_c, 3, 79, 0
8, 142920, Note_on_c, 3, 77, 68
8, 142920, Control_c, 3, 11, 109
8, 142940, Control_c, 3, 11, 105
8, 142960, Control_c, 3, 11, 101
8, 142979, Note_on_c, 3, 77, 0
8, 142980, Control_c, 3, 11, 99
8, 142980, Note_on_c, 3, 69, 68
8, 143000, Control_c, 3, 11, 95
8, 143020, Control_c, 3, 11, 92
8, 143031, Note_on_c, 3, 69, 0
8, 143040, Control_c, 3, 11, 89
8, 143040, Note_on_c, 3, 70, 68
8, 143279, Note_on_c, 3, 70, 0
8, 144360, Control_c, 3, 11, 127
8, 144480, Note_on_c, 3, 70, 38
8, 144959, Note_on_c, 3, 70, 0
8, 144960, Note_on_c, 3, 72, 38
8, 145079, Note_on_c, 3, 72, 0
8, 145080, Note_on_c, 3, 74, 38
8, 145191, Note_on_c, 3, 74, 0
8, 145200, Note_on_c, 3, 74, 38
8, 145319, Note_on_c, 3, 74, 0
8, 145320, Note_on_c, 3, 72, 38
8, 145679, Note_on_c, 3, 72, 0
8, 145680, Note_on_c, 3, 69, 38
8, 145799, Note_on_c, 3, 69, 0
8, 145800, Note_on_c, 3, 65, 38
8, 145889, Note_on_c, 3, 65, 0
8, 145918, Control_c, 3, 11, 87
8, 145920, Control_c, 3, 11, 89
8, 145920, Note_on_c, 3, 63, 68
8, 145971, Note_on_c, 3, 63, 0
8, 145980, Note_on_c, 3, 67, 68
8, 146039, Note_on_c, 3, 67, 0
8, 146040, Note_on_c, 3, 65, 68
8, 146059, Control_c, 3, 11, 90
8, 146129, Note_on_c, 3, 65, 0
8, 146198, Control_c, 3, 11, 91
8, 146337, Control_c, 3, 11, 92
8, 146340, Note_on_c, 3, 67, 68
8, 146399, Note_on_c, 3, 67, 0
8, 146400, Note_on_c, 3, 65, 68
8, 146476, Control_c, 3, 11, 93
8, 146489, Note_on_c, 3, 65, 0
8, 146615, Control_c, 3, 11, 94
8, 146700, Note_on_c, 3, 67, 68
8, 146754, Control_c, 3, 11, 95
8, 146759, Note_on_c, 3, 67, 0
8, 146760, Note_on_c, 3, 65, 68
8, 146879, Note_on_c, 3, 65, 0
8, 146893, Control_c, 3, 11, 96
8, 147032, Control_c, 3, 11, 97
8, 147060, Note_on_c, 3, 70, 68
8, 147119, Note_on_c, 3, 70, 0
8, 147120, Note_on_c, 3, 65, 68
8, 147171, Control_c, 3, 11, 98
8, 147239, Note_on_c, 3, 65, 0
8, 147309, Control_c, 3, 11, 99
8, 147420, Note_on_c, 3, 72, 68
8, 147448, Control_c, 3, 11, 100
8, 147479, Note_on_c, 3, 72, 0
8, 147480, Note_on_c, 3, 65, 68
8, 147587, Control_c, 3, 11, 101
8, 147599, Note_on_c, 3, 65, 0
8, 147726, Control_c, 3, 11, 102
8, 147780, Note_on_c, 3, 72, 68
8, 147839, Note_on_c, 3, 72, 0
8, 147840, Note_on_c, 3, 65, 68
8, 147865, Control_c, 3, 11, 103
8, 147959, Note_on_c, 3, 65, 0
8, 148004, Control_c, 3, 11, 104
8, 148140, Note_on_c, 3, 72, 68
8, 148143, Control_c, 3, 11, 105
8, 148199, Note_on_c, 3, 72, 0
8, 148200, Note_on_c, 3, 65, 68
8, 148282, Control_c, 3, 11, 106
8, 148319, Note_on_c, 3, 65, 0
8, 148421, Control_c, 3, 11, 107
8, 148500, Note_on_c, 3, 70, 68
8, 148559, Note_on_c, 3, 70, 0
8, 148560, Note_on_c, 3, 65, 68
8, 148560, Control_c, 3, 11, 108
8, 148679, Note_on_c, 3, 65, 0
8, 148699, Control_c, 3, 11, 109
8, 148800, Note_on_c, 3, 77, 68
8, 148800, Note_on_c, 3, 65, 68
8, 148838, Control_c, 3, 11, 110
8, 148977, Control_c, 3, 11, 111
8, 149116, Control_c, 3, 11, 112
8, 149255, Control_c, 3, 11, 113
8, 149394, Control_c, 3, 11, 114
8, 149533, Control_c, 3, 11, 115
8, 149672, Control_c, 3, 11, 116
8, 149811, Control_c, 3, 11, 117
8, 149949, Control_c, 3, 11, 118
8, 150088, Control_c, 3, 11, 119
8, 150227, Control_c, 3, 11, 120
8, 150366, Control_c, 3, 11, 121
8, 150505, Control_c, 3, 11, 122
8, 150591, Note_on_c, 3, 77, 0
8, 150591, Note_on_c, 3, 65, 0
8, 150600, Note_on_c, 3, 84, 68
8, 150600, Note_on_c, 3, 72, 68
8, 150644, Control_c, 3, 11, 123
8, 150783, Control_c, 3, 11, 124
8, 150922, Control_c, 3, 11, 125
8, 151061, Control_c, 3, 11, 126
8, 151311, Note_on_c, 3, 84, 0
8, 151311, Note_on_c, 3, 72, 0
8, 151320, Control_c, 3, 11, 127
8, 151320, Note_on_c, 3, 82, 68
8, 151320, Note_on_c, 3, 70, 68
8, 151335, Control_c, 3, 11, 125
8, 151350, Control_c, 3, 11, 124
8, 151365, Control_c, 3, 11, 122
8, 151380, Control_c, 3, 11, 120
8, 151395, Control_c, 3, 11, 119
8, 151410, Control_c, 3, 11, 117
8, 151425, Control_c, 3, 11, 115
8, 151440, Control_c, 3, 11, 114
8, 151455, Control_c, 3, 11, 112
8, 151470, Control_c, 3, 11, 110
8, 151485, Control_c, 3, 11, 109
8, 151500, Control_c, 3, 11, 107
8, 151515, Control_c, 3, 11, 105
8, 151530, Control_c, 3, 11, 104
8, 151545, Control_c, 3, 11, 102
8, 151559, Note_on_c, 3, 82, 0
8, 151559, Note_on_c, 3, 70, 0
8, 151560, Note_on_c, 3, 74, 68
8, 151560, Note_on_c, 3, 70, 68
8, 151560, Control_c, 3, 11, 100
8, 151575, Control_c, 3, 11, 99
8, 151590, Control_c, 3, 11, 97
8, 151605, Control_c, 3, 11, 95
8, 151620, Control_c, 3, 11, 94
8, 151635, Control_c, 3, 11, 92
8, 151650, Control_c, 3, 11, 90
8, 151665, Control_c, 3, 11, 89
8, 151671, Note_on_c, 3, 74, 0
8, 151671, Note_on_c, 3, 70, 0
8, 151680, Note_on_c, 3, 77, 68
8, 151680, Control_c, 3, 11, 89
8, 151680, Note_on_c, 3, 69, 68
8, 151699, Control_c, 3, 11, 90
8, 151718, Control_c, 3, 11, 91
8, 151737, Control_c, 3, 11, 92
8, 151756, Control_c, 3, 11, 93
8, 151775, Control_c, 3, 11, 94
8, 151794, Control_c, 3, 11, 95
8, 151813, Control_c, 3, 11, 96
8, 151832, Control_c, 3, 11, 97
8, 151851, Control_c, 3, 11, 98
8, 151869, Control_c, 3, 11, 99
8, 151888, Control_c, 3, 11, 100
8, 151907, Control_c, 3, 11, 101
8, 151926, Control_c, 3, 11, 102
8, 151945, Control_c, 3, 11, 103
8, 151964, Control_c, 3, 11, 104
8, 151983, Control_c, 3, 11, 105
8, 152002, Control_c, 3, 11, 106
8, 152021, Control_c, 3, 11, 107
8, 152031, Note_on_c, 3, 69, 0
8, 152039, Note_on_c, 3, 77, 0
8, 152040, Control_c, 3, 11, 108
8, 152040, Note_on_c, 3, 75, 68
8, 152040, Note_on_c, 3, 69, 68
8, 152059, Control_c, 3, 11, 109
8, 152078, Control_c, 3, 11, 110
8, 152097, Control_c, 3, 11, 111
8, 152116, Control_c, 3, 11, 112
8, 152135, Control_c, 3, 11, 113
8, 152154, Control_c, 3, 11, 114
8, 152173, Control_c, 3, 11, 115
8, 152192, Control_c, 3, 11, 116
8, 152211, Control_c, 3, 11, 117
8, 152229, Control_c, 3, 11, 118
8, 152248, Control_c, 3, 11, 119
8, 152267, Control_c, 3, 11, 120
8, 152286, Control_c, 3, 11, 121
8, 152305, Control_c, 3, 11, 122
8, 152324, Control_c, 3, 11, 123
8, 152343, Control_c, 3, 11, 124
8, 152362, Control_c, 3, 11, 125
8, 152381, Control_c, 3, 11, 126
8, 152400, Control_c, 3, 11, 127
8, 152418, Control_c, 3, 11, 126
8, 152436, Control_c, 3, 11, 125
8, 152454, Control_c, 3, 11, 124
8, 152472, Control_c, 3, 11, 123
8, 152490, Control_c, 3, 11, 122
8, 152508, Control_c, 3, 11, 121
8, 152526, Control_c, 3, 11, 120
8, 152544, Control_c, 3, 11, 119
8, 152562, Control_c, 3, 11, 118
8, 152580, Control_c, 3, 11, 117
8, 152598, Control_c, 3, 11, 116
8, 152616, Control_c, 3, 11, 115
8, 152634, Control_c, 3, 11, 114
8, 152652, Control_c, 3, 11, 113
8, 152670, Control_c, 3, 11, 112
8, 152688, Control_c, 3, 11, 111
8, 152706, Control_c, 3, 11, 110
8, 152724, Control_c, 3, 11, 109
8, 152742, Control_c, 3, 11, 108
8, 152751, Note_on_c, 3, 69, 0
8, 152759, Note_on_c, 3, 75, 0
8, 152760, Control_c, 3, 11, 107
8, 152760, Note_on_c, 3, 74, 68
8, 152760, Note_on_c, 3, 70, 68
8, 152778, Control_c, 3, 11, 106
8, 152796, Control_c, 3, 11, 105
8, 152814, Control_c, 3, 11, 104
8, 152832, Control_c, 3, 11, 103
8, 152850, Control_c, 3, 11, 102
8, 152868, Control_c, 3, 11, 101
8, 152886, Control_c, 3, 11, 100
8, 152904, Control_c, 3, 11, 99
8, 152922, Control_c, 3, 11, 98
8, 152940, Control_c, 3, 11, 97
8, 152958, Control_c, 3, 11, 96
8, 152976, Control_c, 3, 11, 95
8, 152994, Control_c, 3, 11, 94
8, 152999, Note_on_c, 3, 74, 0
8, 153000, Note_on_c, 3, 77, 68
8, 153012, Control_c, 3, 11, 93
8, 153030, Control_c, 3, 11, 92
8, 153048, Control_c, 3, 11, 91
8, 153066, Control_c, 3, 11, 90
8, 153084, Control_c, 3, 11, 89
8, 153111, Note_on_c, 3, 70, 0
8, 153111, Note_on_c, 3, 77, 0
8, 153120, Control_c, 3, 11, 89
8, 153120, Note_on_c, 3, 69, 68
8, 153120, Note_on_c, 3, 77, 68
8, 153139, Control_c, 3, 11, 90
8, 153158, Control_c, 3, 11, 91
8, 153177, Control_c, 3, 11, 92
8, 153196, Control_c, 3, 11, 93
8, 153215, Control_c, 3, 11, 94
8, 153234, Control_c, 3, 11, 95
8, 153253, Control_c, 3, 11, 96
8, 153272, Control_c, 3, 11, 97
8, 153291, Control_c, 3, 11, 98
8, 153309, Control_c, 3, 11, 99
8, 153328, Control_c, 3, 11, 100
8, 153347, Control_c, 3, 11, 101
8, 153366, Control_c, 3, 11, 102
8, 153385, Control_c, 3, 11, 103
8, 153404, Control_c, 3, 11, 104
8, 153423, Control_c, 3, 11, 105
8, 153442, Control_c, 3, 11, 106
8, 153461, Control_c, 3, 11, 107
8, 153471, Note_on_c, 3, 69, 0
8, 153479, Note_on_c, 3, 77, 0
8, 153480, Note_on_c, 3, 69, 68
8, 153480, Note_on_c, 3, 75, 68
8, 153480, Control_c, 3, 11, 108
8, 153499, Control_c, 3, 11, 109
8, 153518, Control_c, 3, 11, 110
8, 153537, Control_c, 3, 11, 111
8, 153556, Control_c, 3, 11, 112
8, 153575, Control_c, 3, 11, 113
8, 153594, Control_c, 3, 11, 114
8, 153613, Control_c, 3, 11, 115
8, 153632, Control_c, 3, 11, 116
8, 153651, Control_c, 3, 11, 117
8, 153669, Control_c, 3, 11, 118
8, 153688, Control_c, 3, 11, 119
8, 153707, Control_c, 3, 11, 120
8, 153726, Control_c, 3, 11, 121
8, 153745, Control_c, 3, 11, 122
8, 153764, Control_c, 3, 11, 123
8, 153783, Control_c, 3, 11, 124
8, 153802, Control_c, 3, 11, 125
8, 153821, Control_c, 3, 11, 126
8, 153840, Control_c, 3, 11, 127
8, 153858, Control_c, 3, 11, 126
8, 153876, Control_c, 3, 11, 125
8, 153894, Control_c, 3, 11, 124
8, 153912, Control_c, 3, 11, 123
8, 153930, Control_c, 3, 11, 122
8, 153948, Control_c, 3, 11, 121
8, 153966, Control_c, 3, 11, 120
8, 153984, Control_c, 3, 11, 119
8, 154002, Control_c, 3, 11, 118
8, 154020, Control_c, 3, 11, 117
8, 154038, Control_c, 3, 11, 116
8, 154056, Control_c, 3, 11, 115
8, 154074, Control_c, 3, 11, 114
8, 154092, Control_c, 3, 11, 113
8, 154110, Control_c, 3, 11, 112
8, 154128, Control_c, 3, 11, 111
8, 154146, Control_c, 3, 11, 110
8, 154164, Control_c, 3, 11, 109
8, 154182, Control_c, 3, 11, 108
8, 154191, Note_on_c, 3, 69, 0
8, 154199, Note_on_c, 3, 75, 0
8, 154200, Note_on_c, 3, 70, 68
8, 154200, Control_c, 3, 11, 107
8, 154200, Note_on_c, 3, 74, 68
8, 154218, Control_c, 3, 11, 106
8, 154236, Control_c, 3, 11, 105
8, 154254, Control_c, 3, 11, 104
8, 154272, Control_c, 3, 11, 103
8, 154290, Control_c, 3, 11, 102
8, 154308, Control_c, 3, 11, 101
8, 154326, Control_c, 3, 11, 100
8, 154344, Control_c, 3, 11, 99
8, 154362, Control_c, 3, 11, 98
8, 154380, Control_c, 3, 11, 97
8, 154398, Control_c, 3, 11, 96
8, 154416, Control_c, 3, 11, 95
8, 154434, Control_c, 3, 11, 94
8, 154439, Note_on_c, 3, 74, 0
8, 154440, Note_on_c, 3, 77, 68
8, 154452, Control_c, 3, 11, 93
8, 154470, Control_c, 3, 11, 92
8, 154488, Control_c, 3, 11, 91
8, 154506, Control_c, 3, 11, 90
8, 154524, Control_c, 3, 11, 89
8, 154551, Note_on_c, 3, 70, 0
8, 154551, Note_on_c, 3, 77, 0
8, 154558, Control_c, 3, 11, 49
8, 154560, Note_on_c, 3, 69, 92
8, 154560, Note_on_c, 3, 77, 92
8, 154560, Control_c, 3, 11, 49
8, 154575, Control_c, 3, 11, 52
8, 154590, Control_c, 3, 11, 56
8, 154605, Control_c, 3, 11, 59
8, 154620, Control_c, 3, 11, 62
8, 154635, Control_c, 3, 11, 65
8, 154650, Control_c, 3, 11, 69
8, 154665, Control_c, 3, 11, 72
8, 154680, Control_c, 3, 11, 75
8, 154695, Control_c, 3, 11, 78
8, 154710, Control_c, 3, 11, 82
8, 154725, Control_c, 3, 11, 85
8, 154740, Control_c, 3, 11, 88
8, 154755, Control_c, 3, 11, 91
8, 154770, Control_c, 3, 11, 95
8, 154785, Control_c, 3, 11, 98
8, 154800, Control_c, 3, 11, 101
8, 154815, Control_c, 3, 11, 104
8, 154830, Control_c, 3, 11, 108
8, 154845, Control_c, 3, 11, 111
8, 154859, Note_on_c, 3, 69, 0
8, 154859, Note_on_c, 3, 77, 0
8, 154860, Note_on_c, 3, 75, 92
8, 154860, Note_on_c, 3, 72, 92
8, 154860, Control_c, 3, 11, 114
8, 154875, Control_c, 3, 11, 117
8, 154890, Control_c, 3, 11, 121
8, 154905, Control_c, 3, 11, 124
8, 154919, Note_on_c, 3, 75, 0
8, 154919, Note_on_c, 3, 72, 0
8, 154920, Note_on_c, 3, 72, 92
8, 154920, Note_on_c, 3, 75, 92
8, 155159, Note_on_c, 3, 72, 0
8, 155159, Note_on_c, 3, 75, 0
8, 155278, Control_c, 3, 11, 127
8, 155280, Note_on_c, 3, 75, 92
8, 155280, Note_on_c, 3, 72, 92
8, 155519, Note_on_c, 3, 75, 0
8, 155519, Note_on_c, 3, 72, 0
8, 155640, Note_on_c, 3, 75, 80
8, 155640, Note_on_c, 3, 72, 80
8, 155879, Note_on_c, 3, 75, 0
8, 155879, Note_on_c, 3, 72, 0
8, 156000, Note_on_c, 3, 72, 68
8, 156000, Note_on_c, 3, 75, 68
8, 156239, Note_on_c, 3, 72, 0
8, 156239, Note_on_c, 3, 75, 0
8, 156360, Note_on_c, 3, 75, 56
8, 156360, Note_on_c, 3, 72, 56
8, 156599, Note_on_c, 3, 75, 0
8, 156599, Note_on_c, 3, 72, 0
8, 156720, Note_on_c, 3, 75, 44
8, 156720, Note_on_c, 3, 72, 44
8, 156959, Note_on_c, 3, 75, 0
8, 156959, Note_on_c, 3, 72, 0
8, 157080, Note_on_c, 3, 72, 32
8, 157080, Note_on_c, 3, 75, 32
8, 157319, Note_on_c, 3, 72, 0
8, 157319, Note_on_c, 3, 75, 0
8, 157440, Note_on_c, 3, 70, 32
8, 157440, Note_on_c, 3, 74, 32
8, 157679, Note_on_c, 3, 70, 0
8, 157679, Note_on_c, 3, 74, 0
8, 157800, Note_on_c, 3, 70, 38
8, 157800, Note_on_c, 3, 79, 38
8, 158039, Note_on_c, 3, 70, 0
8, 158039, Note_on_c, 3, 79, 0
8, 158160, Note_on_c, 3, 74, 44
8, 158160, Note_on_c, 3, 77, 44
8, 158399, Note_on_c, 3, 74, 0
8, 158399, Note_on_c, 3, 77, 0
8, 158520, Note_on_c, 3, 75, 50
8, 158520, Note_on_c, 3, 72, 50
8, 158759, Note_on_c, 3, 75, 0
8, 158759, Note_on_c, 3, 72, 0
8, 158880, Note_on_c, 3, 74, 56
8, 158880, Note_on_c, 3, 70, 56
8, 159119, Note_on_c, 3, 74, 0
8, 159119, Note_on_c, 3, 70, 0
8, 159240, Note_on_c, 3, 79, 62
8, 159240, Note_on_c, 3, 70, 62
8, 159479, Note_on_c, 3, 79, 0
8, 159479, Note_on_c, 3, 70, 0
8, 159600, Note_on_c, 3, 74, 68
8, 159600, Note_on_c, 3, 77, 68
8, 159839, Note_on_c, 3, 74, 0
8, 159839, Note_on_c, 3, 77, 0
8, 159960, Note_on_c, 3, 72, 74
8, 159960, Note_on_c, 3, 75, 74
8, 160191, Note_on_c, 3, 72, 0
8, 160191, Note_on_c, 3, 75, 0
8, 160200, Note_on_c, 3, 81, 80
8, 160200, Note_on_c, 3, 72, 80
8, 160319, Note_on_c, 3, 81, 0
8, 160319, Note_on_c, 3, 72, 0
8, 161040, Note_on_c, 3, 82, 44
8, 161040, Note_on_c, 3, 74, 44
8, 161279, Note_on_c, 3, 82, 0
8, 161279, Note_on_c, 3, 74, 0
8, 161640, Note_on_c, 3, 69, 44
8, 161640, Note_on_c, 3, 78, 44
8, 161760, Control_c, 3, 11, 127
8, 161832, Control_c, 3, 11, 126
8, 161879, Note_on_c, 3, 69, 0
8, 161879, Note_on_c, 3, 78, 0
8, 161880, Note_on_c, 3, 77, 44
8, 161880, Note_on_c, 3, 70, 44
8, 161904, Control_c, 3, 11, 125
8, 161976, Control_c, 3, 11, 124
8, 161999, Note_on_c, 3, 77, 0
8, 161999, Note_on_c, 3, 70, 0
8, 162048, Control_c, 3, 11, 123
8, 162120, Control_c, 3, 11, 122
8, 162192, Control_c, 3, 11, 121
8, 162264, Control_c, 3, 11, 120
8, 162336, Control_c, 3, 11, 119
8, 162360, Note_on_c, 3, 75, 44
8, 162360, Note_on_c, 3, 69, 44
8, 162408, Control_c, 3, 11, 118
8, 162480, Control_c, 3, 11, 117
8, 162552, Control_c, 3, 11, 116
8, 162599, Note_on_c, 3, 75, 0
8, 162599, Note_on_c, 3, 69, 0
8, 162600, Note_on_c, 3, 70, 44
8, 162600, Note_on_c, 3, 74, 44
8, 162624, Control_c, 3, 11, 115
8, 162696, Control_c, 3, 11, 114
8, 162719, Note_on_c, 3, 70, 0
8, 162719, Note_on_c, 3, 74, 0
8, 162768, Control_c, 3, 11, 113
8, 162840, Control_c, 3, 11, 112
8, 162912, Control_c, 3, 11, 111
8, 162984, Control_c, 3, 11, 110
8, 163056, Control_c, 3, 11, 109
8, 163080, Note_on_c, 3, 75, 44
8, 163080, Note_on_c, 3, 69, 44
8, 163128, Control_c, 3, 11, 108
8, 163200, Control_c, 3, 11, 107
8, 163319, Note_on_c, 3, 75, 0
8, 163319, Note_on_c, 3, 69, 0
8, 163320, Note_on_c, 3, 70, 44
8, 163320, Note_on_c, 3, 74, 44
8, 163439, Note_on_c, 3, 70, 0
8, 163439, Note_on_c, 3, 74, 0
8, 163798, Control_c, 3, 11, 49
8, 163800, Note_on_c, 3, 69, 80
8, 163800, Note_on_c, 3, 75, 80
8, 164039, Note_on_c, 3, 69, 0
8, 164039, Note_on_c, 3, 75, 0
8, 164040, Note_on_c, 3, 70, 80
8, 164040, Note_on_c, 3, 74, 80
8, 164151, Note_on_c, 3, 70, 0
8, 164151, Note_on_c, 3, 74, 0
8, 164160, Note_on_c, 3, 75, 80
8, 164160, Note_on_c, 3, 69, 80
8, 164399, Note_on_c, 3, 75, 0
8, 164399, Note_on_c, 3, 69, 0
8, 164400, Note_on_c, 3, 74, 80
8, 164400, Note_on_c, 3, 70, 80
8, 164511, Note_on_c, 3, 74, 0
8, 164511, Note_on_c, 3, 70, 0
8, 164520, Note_on_c, 3, 72, 80
8, 164520, Note_on_c, 3, 75, 80
8, 164631, Note_on_c, 3, 72, 0
8, 164631, Note_on_c, 3, 75, 0
8, 164640, Note_on_c, 3, 74, 80
8, 164640, Note_on_c, 3, 77, 80
8, 164640, Control_c, 3, 11, 49
8, 164658, Control_c, 3, 11, 50
8, 164677, Control_c, 3, 11, 51
8, 164695, Control_c, 3, 11, 52
8, 164714, Control_c, 3, 11, 53
8, 164732, Control_c, 3, 11, 54
8, 164751, Control_c, 3, 11, 55
8, 164769, Control_c, 3, 11, 56
8, 164788, Control_c, 3, 11, 57
8, 164806, Control_c, 3, 11, 58
8, 164825, Control_c, 3, 11, 59
8, 164843, Control_c, 3, 11, 60
8, 164862, Control_c, 3, 11, 61
8, 164880, Control_c, 3, 11, 62
8, 164898, Control_c, 3, 11, 63
8, 164917, Control_c, 3, 11, 64
8, 164935, Control_c, 3, 11, 65
8, 164954, Control_c, 3, 11, 66
8, 164972, Control_c, 3, 11, 67
8, 164991, Control_c, 3, 11, 68
8, 164999, Note_on_c, 3, 74, 0
8, 164999, Note_on_c, 3, 77, 0
8, 165000, Note_on_c, 3, 62, 80
8, 165000, Note_on_c, 3, 65, 80
8, 165009, Control_c, 3, 11, 69
8, 165028, Control_c, 3, 11, 70
8, 165046, Control_c, 3, 11, 71
8, 165065, Control_c, 3, 11, 72
8, 165083, Control_c, 3, 11, 73
8, 165102, Control_c, 3, 11, 74
8, 165120, Control_c, 3, 11, 75
8, 165138, Control_c, 3, 11, 76
8, 165157, Control_c, 3, 11, 77
8, 165175, Control_c, 3, 11, 78
8, 165194, Control_c, 3, 11, 79
8, 165212, Control_c, 3, 11, 80
8, 165231, Control_c, 3, 11, 81
8, 165249, Control_c, 3, 11, 82
8, 165268, Control_c, 3, 11, 83
8, 165286, Control_c, 3, 11, 84
8, 165305, Control_c, 3, 11, 85
8, 165323, Control_c, 3, 11, 86
8, 165342, Control_c, 3, 11, 87
8, 165359, Note_on_c, 3, 62, 0
8, 165359, Note_on_c, 3, 65, 0
8, 165360, Control_c, 3, 11, 88
8, 165360, Note_on_c, 3, 70, 80
8, 165360, Note_on_c, 3, 65, 80
8, 165378, Control_c, 3, 11, 89
8, 165397, Control_c, 3, 11, 90
8, 165415, Control_c, 3, 11, 91
8, 165434, Control_c, 3, 11, 92
8, 165452, Control_c, 3, 11, 93
8, 165471, Control_c, 3, 11, 94
8, 165489, Control_c, 3, 11, 95
8, 165508, Control_c, 3, 11, 96
8, 165526, Control_c, 3, 11, 97
8, 165545, Control_c, 3, 11, 98
8, 165563, Control_c, 3, 11, 99
8, 165582, Control_c, 3, 11, 100
8, 165600, Control_c, 3, 11, 101
8, 165618, Control_c, 3, 11, 102
8, 165637, Control_c, 3, 11, 103
8, 165655, Control_c, 3, 11, 104
8, 165674, Control_c, 3, 11, 105
8, 165692, Control_c, 3, 11, 106
8, 165711, Control_c, 3, 11, 107
8, 165719, Note_on_c, 3, 70, 0
8, 165719, Note_on_c, 3, 65, 0
8, 165720, Note_on_c, 3, 70, 80
8, 165720, Note_on_c, 3, 74, 80
8, 165729, Control_c, 3, 11, 108
8, 165748, Control_c, 3, 11, 109
8, 165766, Control_c, 3, 11, 110
8, 165785, Control_c, 3, 11, 111
8, 165803, Control_c, 3, 11, 112
8, 165822, Control_c, 3, 11, 113
8, 165840, Control_c, 3, 11, 114
8, 165858, Control_c, 3, 11, 115
8, 165877, Control_c, 3, 11, 116
8, 165895, Control_c, 3, 11, 117
8, 165914, Control_c, 3, 11, 118
8, 165932, Control_c, 3, 11, 119
8, 165951, Control_c, 3, 11, 120
8, 165969, Control_c, 3, 11, 121
8, 165988, Control_c, 3, 11, 122
8, 166006, Control_c, 3, 11, 123
8, 166025, Control_c, 3, 11, 124
8, 166043, Control_c, 3, 11, 125
8, 166062, Control_c, 3, 11, 126
8, 166071, Note_on_c, 3, 70, 0
8, 166071, Note_on_c, 3, 74, 0
8, 166080, Note_on_c, 3, 74, 80
8, 166080, Note_on_c, 3, 70, 80
8, 166791, Note_on_c, 3, 74, 0
8, 166791, Note_on_c, 3, 70, 0
8, 166800, Note_on_c, 3, 69, 80
8, 166800, Note_on_c, 3, 65, 80
8, 166800, Control_c, 3, 11, 127
8, 166815, Control_c, 3, 11, 126
8, 166830, Control_c, 3, 11, 125
8, 166845, Control_c, 3, 11, 123
8, 166860, Control_c, 3, 11, 122
8, 166875, Control_c, 3, 11, 121
8, 166890, Control_c, 3, 11, 120
8, 166905, Control_c, 3, 11, 119
8, 166920, Control_c, 3, 11, 117
8, 166935, Control_c, 3, 11, 116
8, 166950, Control_c, 3, 11, 115
8, 166965, Control_c, 3, 11, 114
8, 166980, Control_c, 3, 11, 113
8, 166995, Control_c, 3, 11, 111
8, 167010, Control_c, 3, 11, 110
8, 167025, Control_c, 3, 11, 109
8, 167040, Control_c, 3, 11, 108
8, 167055, Control_c, 3, 11, 106
8, 167070, Control_c, 3, 11, 105
8, 167085, Control_c, 3, 11, 104
8, 167100, Control_c, 3, 11, 103
8, 167115, Control_c, 3, 11, 102
8, 167130, Control_c, 3, 11, 100
8, 167145, Control_c, 3, 11, 99
8, 167160, Control_c, 3, 11, 98
8, 167175, Control_c, 3, 11, 97
8, 167190, Control_c, 3, 11, 96
8, 167205, Control_c, 3, 11, 94
8, 167220, Control_c, 3, 11, 93
8, 167235, Control_c, 3, 11, 92
8, 167250, Control_c, 3, 11, 91
8, 167265, Control_c, 3, 11, 90
8, 167280, Control_c, 3, 11, 88
8, 167295, Control_c, 3, 11, 87
8, 167310, Control_c, 3, 11, 86
8, 167325, Control_c, 3, 11, 85
8, 167340, Control_c, 3, 11, 84
8, 167355, Control_c, 3, 11, 82
8, 167370, Control_c, 3, 11, 81
8, 167385, Control_c, 3, 11, 80
8, 167400, Control_c, 3, 11, 79
8, 167415, Control_c, 3, 11, 77
8, 167430, Control_c, 3, 11, 76
8, 167445, Control_c, 3, 11, 75
8, 167460, Control_c, 3, 11, 74
8, 167475, Control_c, 3, 11, 73
8, 167490, Control_c, 3, 11, 71
8, 167505, Control_c, 3, 11, 70
8, 168239, Note_on_c, 3, 69, 0
8, 168240, Note_on_c, 3, 70, 80
8, 168240, Control_c, 3, 11, 69
8, 168591, Note_on_c, 3, 65, 0
8, 168591, Note_on_c, 3, 70, 0
8, 168598, Control_c, 3, 11, 87
8, 168600, Note_on_c, 3, 62, 68
8, 168600, Note_on_c, 3, 65, 68
8, 168659, Note_on_c, 3, 62, 0
8, 168659, Note_on_c, 3, 65, 0
8, 168660, Note_on_c, 3, 67, 68
8, 168660, Note_on_c, 3, 63, 68
8, 168719, Note_on_c, 3, 67, 0
8, 168719, Note_on_c, 3, 63, 0
8, 168720, Note_on_c, 3, 65, 68
8, 168720, Note_on_c, 3, 69, 68
8, 168779, Note_on_c, 3, 65, 0
8, 168779, Note_on_c, 3, 69, 0
8, 168780, Note_on_c, 3, 70, 68
8, 168780, Note_on_c, 3, 67, 68
8, 168839, Note_on_c, 3, 70, 0
8, 168839, Note_on_c, 3, 67, 0
8, 168840, Note_on_c, 3, 69, 68
8, 168840, Note_on_c, 3, 72, 68
8, 168899, Note_on_c, 3, 69, 0
8, 168899, Note_on_c, 3, 72, 0
8, 168900, Note_on_c, 3, 74, 68
8, 168900, Note_on_c, 3, 70, 68
8, 168951, Note_on_c, 3, 74, 0
8, 168951, Note_on_c, 3, 70, 0
8, 168958, Control_c, 3, 11, 107
8, 168960, Note_on_c, 3, 75, 56
8, 168960, Note_on_c, 3, 72, 56
8, 169311, Note_on_c, 3, 75, 0
8, 169311, Note_on_c, 3, 72, 0
8, 169318, Control_c, 3, 11, 127
8, 169320, Note_on_c, 3, 69, 80
8, 169320, Note_on_c, 3, 77, 80
8, 169559, Note_on_c, 3, 69, 0
8, 169559, Note_on_c, 3, 77, 0
8, 169680, Note_on_c, 3, 74, 32
8, 169680, Note_on_c, 3, 70, 32
8, 169784, Note_on_c, 3, 74, 0
8, 169784, Note_on_c, 3, 70, 0
8, 169800, Note_on_c, 3, 74, 32
8, 169800, Note_on_c, 3, 70, 32
8, 169904, Note_on_c, 3, 74, 0
8, 169904, Note_on_c, 3, 70, 0
8, 169920, Note_on_c, 3, 74, 32
8, 169920, Note_on_c, 3, 70, 32
8, 170009, Note_on_c, 3, 74, 0
8, 170009, Note_on_c, 3, 70, 0
8, 170040, Note_on_c, 3, 74, 32
8, 170040, Note_on_c, 3, 70, 32
8, 170279, Note_on_c, 3, 74, 0
8, 170279, Note_on_c, 3, 70, 0
8, 170279, End_track
9, 0, Start_track
9, 0, Title_t, "Bassoon"
9, 0, MIDI_port, 0
9, 0, Program_c, 4, 70
9, 0, Control_c, 4, 121, 0
9, 0, Control_c, 4, 7, 96
9, 0, Control_c, 4, 10, 65
9, 0, Control_c, 4, 11, 89
9, 120, Note_on_c, 4, 58, 68
9, 239, Note_on_c, 4, 58, 0
9, 240, Note_on_c, 4, 57, 68
9, 360, Note_on_c, 4, 67, 68
9, 479, Note_on_c, 4, 67, 0
9, 480, Control_c, 4, 11, 89
9, 480, Note_on_c, 4, 65, 68
9, 560, Control_c, 4, 11, 92
9, 640, Control_c, 4, 11, 95
9, 720, Control_c, 4, 11, 99
9, 800, Control_c, 4, 11, 101
9, 880, Control_c, 4, 11, 105
9, 960, Control_c, 4, 11, 109
9, 1040, Control_c, 4, 11, 111
9, 1120, Control_c, 4, 11, 115
9, 1199, Note_on_c, 4, 57, 0
9, 1199, Note_on_c, 4, 65, 0
9, 1200, Control_c, 4, 11, 117
9, 1200, Note_on_c, 4, 63, 68
9, 1200, Note_on_c, 4, 60, 68
9, 1280, Control_c, 4, 11, 121
9, 1360, Control_c, 4, 11, 124
9, 1440, Control_c, 4, 11, 127
9, 1520, Control_c, 4, 11, 121
9, 1600, Control_c, 4, 11, 115
9, 1680, Control_c, 4, 11, 109
9, 1760, Control_c, 4, 11, 101
9, 1799, Note_on_c, 4, 63, 0
9, 1799, Note_on_c, 4, 60, 0
9, 1800, Note_on_c, 4, 58, 68
9, 1800, Note_on_c, 4, 62, 68
9, 1840, Control_c, 4, 11, 95
9, 1911, Note_on_c, 4, 58, 0
9, 1911, Note_on_c, 4, 62, 0
9, 1920, Note_on_c, 4, 58, 68
9, 1920, Note_on_c, 4, 62, 68
9, 2159, Note_on_c, 4, 58, 0
9, 2159, Note_on_c, 4, 62, 0
9, 4800, Control_c, 4, 11, 89
9, 5640, Note_on_c, 4, 41, 68
9, 5640, Note_on_c, 4, 57, 68
9, 5751, Note_on_c, 4, 41, 0
9, 5751, Note_on_c, 4, 57, 0
9, 5760, Control_c, 4, 11, 89
9, 5760, Note_on_c, 4, 41, 68
9, 5760, Note_on_c, 4, 58, 68
9, 5800, Control_c, 4, 11, 92
9, 5840, Control_c, 4, 11, 95
9, 5880, Control_c, 4, 11, 99
9, 5920, Control_c, 4, 11, 101
9, 5960, Control_c, 4, 11, 105
9, 5991, Note_on_c, 4, 41, 0
9, 5999, Note_on_c, 4, 58, 0
9, 6000, Note_on_c, 4, 62, 68
9, 6000, Control_c, 4, 11, 109
9, 6000, Note_on_c, 4, 53, 68
9, 6040, Control_c, 4, 11, 111
9, 6080, Control_c, 4, 11, 115
9, 6119, Note_on_c, 4, 62, 0
9, 6120, Control_c, 4, 11, 117
9, 6120, Note_on_c, 4, 60, 68
9, 6160, Control_c, 4, 11, 121
9, 6200, Control_c, 4, 11, 124
9, 6231, Note_on_c, 4, 53, 0
9, 6239, Note_on_c, 4, 60, 0
9, 6240, Control_c, 4, 11, 127
9, 6240, Note_on_c, 4, 58, 68
9, 6240, Note_on_c, 4, 53, 68
9, 6300, Control_c, 4, 11, 121
9, 6359, Note_on_c, 4, 58, 0
9, 6360, Control_c, 4, 11, 115
9, 6360, Note_on_c, 4, 57, 68
9, 6420, Control_c, 4, 11, 109
9, 6479, Note_on_c, 4, 53, 0
9, 6479, Note_on_c, 4, 57, 0
9, 6480, Note_on_c, 4, 67, 68
9, 6480, Control_c, 4, 11, 101
9, 6540, Control_c, 4, 11, 95
9, 6599, Note_on_c, 4, 67, 0
9, 6600, Note_on_c, 4, 65, 68
9, 6711, Note_on_c, 4, 65, 0
9, 6720, Control_c, 4, 11, 89
9, 6720, Note_on_c, 4, 65, 68
9, 6959, Note_on_c, 4, 65, 0
9, 10320, Note_on_c, 4, 57, 68
9, 10320, Note_on_c, 4, 53, 68
9, 10551, Note_on_c, 4, 57, 0
9, 10551, Note_on_c, 4, 53, 0
9, 10560, Control_c, 4, 11, 89
9, 10560, Note_on_c, 4, 53, 68
9, 10560, Note_on_c, 4, 57, 68
9, 10590, Control_c, 4, 11, 92
9, 10620, Control_c, 4, 11, 95
9, 10650, Control_c, 4, 11, 99
9, 10680, Control_c, 4, 11, 101
9, 10710, Control_c, 4, 11, 105
9, 10740, Control_c, 4, 11, 109
9, 10770, Control_c, 4, 11, 111
9, 10800, Control_c, 4, 11, 115
9, 10830, Control_c, 4, 11, 117
9, 10860, Control_c, 4, 11, 121
9, 10890, Control_c, 4, 11, 124
9, 10911, Note_on_c, 4, 53, 0
9, 10919, Note_on_c, 4, 57, 0
9, 10920, Control_c, 4, 11, 127
9, 10920, Note_on_c, 4, 58, 68
9, 10920, Note_on_c, 4, 53, 68
9, 10960, Control_c, 4, 11, 121
9, 11000, Control_c, 4, 11, 115
9, 11031, Note_on_c, 4, 58, 0
9, 11031, Note_on_c, 4, 53, 0
9, 11040, Control_c, 4, 11, 109
9, 11040, Note_on_c, 4, 53, 68
9, 11040, Note_on_c, 4, 58, 68
9, 11080, Control_c, 4, 11, 101
9, 11120, Control_c, 4, 11, 95
9, 11279, Note_on_c, 4, 53, 0
9, 11279, Note_on_c, 4, 58, 0
9, 12960, Control_c, 4, 11, 89
9, 13200, Note_on_c, 4, 46, 68
9, 13200, Note_on_c, 4, 58, 68
9, 13431, Note_on_c, 4, 46, 0
9, 13431, Note_on_c, 4, 58, 0
9, 13440, Note_on_c, 4, 55, 68
9, 13440, Note_on_c, 4, 48, 68
9, 13440, Control_c, 4, 11, 89
9, 13480, Control_c, 4, 11, 95
9, 13520, Control_c, 4, 11, 101
9, 13560, Control_c, 4, 11, 109
9, 13600, Control_c, 4, 11, 115
9, 13640, Control_c, 4, 11, 121
9, 13679, Note_on_c, 4, 55, 0
9, 13680, Note_on_c, 4, 57, 68
9, 13911, Note_on_c, 4, 48, 0
9, 13920, Note_on_c, 4, 53, 68
9, 13960, Control_c, 4, 11, 121
9, 14000, Control_c, 4, 11, 115
9, 14039, Note_on_c, 4, 57, 0
9, 14039, Note_on_c, 4, 53, 0
9, 14040, Control_c, 4, 11, 109
9, 14040, Note_on_c, 4, 58, 68
9, 14040, Note_on_c, 4, 55, 68
9, 14080, Control_c, 4, 11, 101
9, 14120, Control_c, 4, 11, 95
9, 14159, Note_on_c, 4, 58, 0
9, 14159, Note_on_c, 4, 55, 0
9, 16800, Control_c, 4, 11, 127
9, 17040, Note_on_c, 4, 63, 38
9, 17040, Note_on_c, 4, 60, 38
9, 17159, Note_on_c, 4, 63, 0
9, 17159, Note_on_c, 4, 60, 0
9, 17160, Note_on_c, 4, 57, 38
9, 17160, Note_on_c, 4, 60, 38
9, 17279, Note_on_c, 4, 57, 0
9, 17279, Note_on_c, 4, 60, 0
9, 17280, Note_on_c, 4, 60, 38
9, 17280, Note_on_c, 4, 57, 38
9, 17639, Note_on_c, 4, 60, 0
9, 17639, Note_on_c, 4, 57, 0
9, 17640, Note_on_c, 4, 53, 38
9, 17640, Note_on_c, 4, 62, 38
9, 17759, Note_on_c, 4, 53, 0
9, 17759, Note_on_c, 4, 62, 0
9, 17760, Note_on_c, 4, 58, 38
9, 17760, Note_on_c, 4, 50, 38
9, 17999, Note_on_c, 4, 58, 0
9, 17999, Note_on_c, 4, 50, 0
9, 18000, Note_on_c, 4, 58, 38
9, 18000, Note_on_c, 4, 62, 38
9, 18119, Note_on_c, 4, 58, 0
9, 18119, Note_on_c, 4, 62, 0
9, 18120, Note_on_c, 4, 60, 38
9, 18120, Note_on_c, 4, 63, 38
9, 18239, Note_on_c, 4, 60, 0
9, 18239, Note_on_c, 4, 63, 0
9, 18240, Note_on_c, 4, 60, 44
9, 18240, Note_on_c, 4, 63, 44
9, 18599, Note_on_c, 4, 60, 0
9, 18599, Note_on_c, 4, 63, 0
9, 18600, Note_on_c, 4, 62, 44
9, 18600, Note_on_c, 4, 65, 44
9, 18719, Note_on_c, 4, 62, 0
9, 18719, Note_on_c, 4, 65, 0
9, 18720, Note_on_c, 4, 60, 45
9, 18720, Note_on_c, 4, 63, 45
9, 18831, Note_on_c, 4, 60, 0
9, 18831, Note_on_c, 4, 63, 0
9, 18840, Note_on_c, 4, 55, 47
9, 18951, Note_on_c, 4, 55, 0
9, 18960, Note_on_c, 4, 63, 49
9, 18960, Note_on_c, 4, 51, 49
9, 19071, Note_on_c, 4, 63, 0
9, 19071, Note_on_c, 4, 51, 0
9, 19080, Note_on_c, 4, 51, 51
9, 19080, Note_on_c, 4, 55, 51
9, 19191, Note_on_c, 4, 51, 0
9, 19191, Note_on_c, 4, 55, 0
9, 19200, Note_on_c, 4, 51, 53
9, 19200, Note_on_c, 4, 55, 53
9, 19311, Note_on_c, 4, 51, 0
9, 19311, Note_on_c, 4, 55, 0
9, 19320, Note_on_c, 4, 55, 55
9, 19320, Note_on_c, 4, 51, 55
9, 19431, Note_on_c, 4, 55, 0
9, 19431, Note_on_c, 4, 51, 0
9, 19440, Note_on_c, 4, 51, 56
9, 19440, Note_on_c, 4, 55, 56
9, 19551, Note_on_c, 4, 51, 0
9, 19551, Note_on_c, 4, 55, 0
9, 19560, Note_on_c, 4, 55, 58
9, 19560, Note_on_c, 4, 51, 58
9, 19671, Note_on_c, 4, 55, 0
9, 19671, Note_on_c, 4, 51, 0
9, 19680, Note_on_c, 4, 55, 60
9, 19680, Note_on_c, 4, 52, 60
9, 19791, Note_on_c, 4, 55, 0
9, 19791, Note_on_c, 4, 52, 0
9, 19800, Note_on_c, 4, 52, 62
9, 19800, Note_on_c, 4, 55, 62
9, 19911, Note_on_c, 4, 52, 0
9, 19911, Note_on_c, 4, 55, 0
9, 19920, Note_on_c, 4, 52, 64
9, 19920, Note_on_c, 4, 55, 64
9, 20031, Note_on_c, 4, 52, 0
9, 20031, Note_on_c, 4, 55, 0
9, 20040, Note_on_c, 4, 55, 66
9, 20040, Note_on_c, 4, 52, 66
9, 20151, Note_on_c, 4, 55, 0
9, 20151, Note_on_c, 4, 52, 0
9, 20160, Note_on_c, 4, 52, 68
9, 20160, Note_on_c, 4, 55, 68
9, 20279, Note_on_c, 4, 52, 0
9, 20279, Note_on_c, 4, 55, 0
9, 20280, Note_on_c, 4, 53, 62
9, 20391, Note_on_c, 4, 53, 0
9, 20400, Note_on_c, 4, 53, 56
9, 20511, Note_on_c, 4, 53, 0
9, 20520, Note_on_c, 4, 53, 50
9, 20631, Note_on_c, 4, 53, 0
9, 20640, Note_on_c, 4, 41, 44
9, 20751, Note_on_c, 4, 41, 0
9, 20760, Note_on_c, 4, 41, 44
9, 20760, Note_on_c, 4, 53, 44
9, 20991, Note_on_c, 4, 41, 0
9, 20991, Note_on_c, 4, 53, 0
9, 21000, Note_on_c, 4, 53, 44
9, 21000, Note_on_c, 4, 57, 44
9, 21111, Note_on_c, 4, 53, 0
9, 21111, Note_on_c, 4, 57, 0
9, 21120, Note_on_c, 4, 53, 38
9, 21120, Note_on_c, 4, 57, 38
9, 21831, Note_on_c, 4, 53, 0
9, 21831, Note_on_c, 4, 57, 0
9, 21838, Control_c, 4, 11, 77
9, 21840, Note_on_c, 4, 57, 68
9, 21840, Note_on_c, 4, 54, 68
9, 22080, Control_c, 4, 11, 67
9, 23159, Note_on_c, 4, 54, 0
9, 23160, Note_on_c, 4, 52, 68
9, 23271, Note_on_c, 4, 52, 0
9, 23279, Note_on_c, 4, 57, 0
9, 23280, Control_c, 4, 11, 69
9, 23280, Note_on_c, 4, 49, 68
9, 23470, Control_c, 4, 11, 74
9, 23519, Note_on_c, 4, 49, 0
9, 23520, Note_on_c, 4, 45, 68
9, 23660, Control_c, 4, 11, 79
9, 23850, Control_c, 4, 11, 84
9, 23999, Note_on_c, 4, 45, 0
9, 24000, Note_on_c, 4, 50, 68
9, 24040, Control_c, 4, 11, 89
9, 24230, Control_c, 4, 11, 94
9, 24239, Note_on_c, 4, 50, 0
9, 24240, Note_on_c, 4, 45, 68
9, 24360, Note_on_c, 4, 62, 68
9, 24420, Control_c, 4, 11, 99
9, 24610, Control_c, 4, 11, 102
9, 24719, Note_on_c, 4, 45, 0
9, 24719, Note_on_c, 4, 62, 0
9, 24720, Note_on_c, 4, 61, 68
9, 24720, Note_on_c, 4, 52, 68
9, 24800, Control_c, 4, 11, 107
9, 24839, Note_on_c, 4, 61, 0
9, 24959, Note_on_c, 4, 52, 0
9, 24960, Note_on_c, 4, 45, 68
9, 24990, Control_c, 4, 11, 112
9, 25180, Control_c, 4, 11, 117
9, 25370, Control_c, 4, 11, 122
9, 25439, Note_on_c, 4, 45, 0
9, 25440, Control_c, 4, 11, 127
9, 25440, Note_on_c, 4, 54, 68
9, 25580, Control_c, 4, 11, 124
9, 25600, Control_c, 4, 11, 121
9, 25620, Control_c, 4, 11, 117
9, 25640, Control_c, 4, 11, 115
9, 25660, Control_c, 4, 11, 111
9, 25679, Note_on_c, 4, 54, 0
9, 25680, Note_on_c, 4, 45, 68
9, 25680, Control_c, 4, 11, 109
9, 25700, Control_c, 4, 11, 105
9, 25720, Control_c, 4, 11, 101
9, 25740, Control_c, 4, 11, 99
9, 25760, Control_c, 4, 11, 95
9, 25780, Control_c, 4, 11, 92
9, 25800, Control_c, 4, 11, 89
9, 25800, Note_on_c, 4, 66, 68
9, 26039, Note_on_c, 4, 66, 0
9, 26040, Note_on_c, 4, 64, 68
9, 26159, Note_on_c, 4, 45, 0
9, 26160, Note_on_c, 4, 49, 68
9, 26279, Note_on_c, 4, 64, 0
9, 26399, Note_on_c, 4, 49, 0
9, 26400, Note_on_c, 4, 45, 68
9, 26400, Control_c, 4, 11, 89
9, 26480, Control_c, 4, 11, 92
9, 26520, Note_on_c, 4, 67, 68
9, 26560, Control_c, 4, 11, 95
9, 26640, Control_c, 4, 11, 99
9, 26720, Control_c, 4, 11, 101
9, 26759, Note_on_c, 4, 67, 0
9, 26760, Note_on_c, 4, 66, 68
9, 26800, Control_c, 4, 11, 105
9, 26879, Note_on_c, 4, 45, 0
9, 26880, Control_c, 4, 11, 109
9, 26880, Note_on_c, 4, 50, 68
9, 26960, Control_c, 4, 11, 111
9, 26991, Note_on_c, 4, 66, 0
9, 27000, Note_on_c, 4, 54, 68
9, 27040, Control_c, 4, 11, 115
9, 27119, Note_on_c, 4, 50, 0
9, 27120, Note_on_c, 4, 45, 68
9, 27120, Control_c, 4, 11, 117
9, 27179, Note_on_c, 4, 54, 0
9, 27180, Note_on_c, 4, 55, 68
9, 27200, Control_c, 4, 11, 121
9, 27239, Note_on_c, 4, 55, 0
9, 27240, Note_on_c, 4, 57, 68
9, 27280, Control_c, 4, 11, 124
9, 27299, Note_on_c, 4, 57, 0
9, 27300, Note_on_c, 4, 54, 68
9, 27351, Note_on_c, 4, 54, 0
9, 27360, Control_c, 4, 11, 127
9, 27360, Note_on_c, 4, 57, 68
9, 27479, Note_on_c, 4, 57, 0
9, 27480, Note_on_c, 4, 55, 68
9, 27599, Note_on_c, 4, 45, 0
9, 27600, Note_on_c, 4, 52, 68
9, 27600, Control_c, 4, 11, 127
9, 27640, Control_c, 4, 11, 124
9, 27680, Control_c, 4, 11, 121
9, 27711, Note_on_c, 4, 55, 0
9, 27719, Note_on_c, 4, 52, 0
9, 27720, Control_c, 4, 11, 117
9, 27720, Note_on_c, 4, 59, 68
9, 27720, Note_on_c, 4, 55, 68
9, 27760, Control_c, 4, 11, 115
9, 27779, Note_on_c, 4, 59, 0
9, 27779, Note_on_c, 4, 55, 0
9, 27780, Note_on_c, 4, 67, 68
9, 27780, Note_on_c, 4, 59, 68
9, 27800, Control_c, 4, 11, 111
9, 27839, Note_on_c, 4, 67, 0
9, 27839, Note_on_c, 4, 59, 0
9, 27840, Note_on_c, 4, 57, 68
9, 27840, Control_c, 4, 11, 109
9, 27840, Note_on_c, 4, 66, 68
9, 27880, Control_c, 4, 11, 105
9, 27899, Note_on_c, 4, 57, 0
9, 27899, Note_on_c, 4, 66, 0
9, 27900, Note_on_c, 4, 64, 68
9, 27900, Note_on_c, 4, 55, 68
9, 27920, Control_c, 4, 11, 101
9, 27959, Note_on_c, 4, 64, 0
9, 27959, Note_on_c, 4, 55, 0
9, 27960, Note_on_c, 4, 54, 68
9, 27960, Note_on_c, 4, 62, 68
9, 27960, Control_c, 4, 11, 99
9, 28000, Control_c, 4, 11, 95
9, 28019, Note_on_c, 4, 54, 0
9, 28019, Note_on_c, 4, 62, 0
9, 28020, Note_on_c, 4, 52, 68
9, 28020, Note_on_c, 4, 61, 68
9, 28040, Control_c, 4, 11, 92
9, 28071, Note_on_c, 4, 52, 0
9, 28071, Note_on_c, 4, 61, 0
9, 28080, Control_c, 4, 11, 89
9, 28080, Note_on_c, 4, 55, 68
9, 28080, Note_on_c, 4, 64, 68
9, 28140, Control_c, 4, 11, 87
9, 28200, Control_c, 4, 11, 85
9, 28260, Control_c, 4, 11, 84
9, 28320, Control_c, 4, 11, 82
9, 28380, Control_c, 4, 11, 80
9, 28439, Note_on_c, 4, 55, 0
9, 28439, Note_on_c, 4, 64, 0
9, 28440, Note_on_c, 4, 55, 68
9, 28440, Note_on_c, 4, 52, 68
9, 28440, Control_c, 4, 11, 79
9, 28500, Control_c, 4, 11, 77
9, 28551, Note_on_c, 4, 55, 0
9, 28551, Note_on_c, 4, 52, 0
9, 28560, Control_c, 4, 11, 75
9, 28560, Note_on_c, 4, 54, 68
9, 28560, Note_on_c, 4, 50, 68
9, 28620, Control_c, 4, 11, 74
9, 28679, Note_on_c, 4, 54, 0
9, 28680, Control_c, 4, 11, 72
9, 28680, Note_on_c, 4, 62, 68
9, 28740, Control_c, 4, 11, 70
9, 29039, Note_on_c, 4, 50, 0
9, 29039, Note_on_c, 4, 62, 0
9, 29040, Note_on_c, 4, 61, 68
9, 29040, Control_c, 4, 11, 89
9, 29040, Note_on_c, 4, 49, 68
9, 29279, Note_on_c, 4, 61, 0
9, 29279, Note_on_c, 4, 49, 0
9, 29280, Note_on_c, 4, 57, 68
9, 29280, Note_on_c, 4, 45, 68
9, 29280, Control_c, 4, 11, 89
9, 29420, Control_c, 4, 11, 92
9, 29560, Control_c, 4, 11, 95
9, 29700, Control_c, 4, 11, 99
9, 29759, Note_on_c, 4, 57, 0
9, 29759, Note_on_c, 4, 45, 0
9, 29760, Note_on_c, 4, 50, 68
9, 29760, Note_on_c, 4, 62, 68
9, 29840, Control_c, 4, 11, 101
9, 29980, Control_c, 4, 11, 105
9, 29999, Note_on_c, 4, 50, 0
9, 29999, Note_on_c, 4, 62, 0
9, 30000, Note_on_c, 4, 57, 68
9, 30000, Note_on_c, 4, 45, 68
9, 30120, Control_c, 4, 11, 109
9, 30260, Control_c, 4, 11, 111
9, 30400, Control_c, 4, 11, 115
9, 30479, Note_on_c, 4, 57, 0
9, 30479, Note_on_c, 4, 45, 0
9, 30480, Note_on_c, 4, 64, 68
9, 30480, Note_on_c, 4, 52, 68
9, 30540, Control_c, 4, 11, 117
9, 30680, Control_c, 4, 11, 121
9, 30719, Note_on_c, 4, 64, 0
9, 30719, Note_on_c, 4, 52, 0
9, 30720, Note_on_c, 4, 57, 68
9, 30720, Note_on_c, 4, 45, 68
9, 30840, Control_c, 4, 11, 127
9, 31199, Note_on_c, 4, 57, 0
9, 31199, Note_on_c, 4, 45, 0
9, 31200, Note_on_c, 4, 54, 68
9, 31200, Control_c, 4, 11, 127
9, 31200, Note_on_c, 4, 66, 68
9, 31220, Control_c, 4, 11, 124
9, 31240, Control_c, 4, 11, 121
9, 31260, Control_c, 4, 11, 117
9, 31280, Control_c, 4, 11, 115
9, 31300, Control_c, 4, 11, 111
9, 31320, Control_c, 4, 11, 109
9, 31340, Control_c, 4, 11, 105
9, 31360, Control_c, 4, 11, 101
9, 31380, Control_c, 4, 11, 99
9, 31400, Control_c, 4, 11, 95
9, 31420, Control_c, 4, 11, 89
9, 31439, Note_on_c, 4, 54, 0
9, 31439, Note_on_c, 4, 66, 0
9, 31440, Note_on_c, 4, 45, 68
9, 31440, Note_on_c, 4, 57, 68
9, 31919, Note_on_c, 4, 45, 0
9, 31919, Note_on_c, 4, 57, 0
9, 31920, Note_on_c, 4, 61, 68
9, 31920, Control_c, 4, 11, 89
9, 31920, Note_on_c, 4, 49, 68
9, 32020, Control_c, 4, 11, 92
9, 32120, Control_c, 4, 11, 95
9, 32159, Note_on_c, 4, 61, 0
9, 32159, Note_on_c, 4, 49, 0
9, 32160, Note_on_c, 4, 45, 68
9, 32160, Note_on_c, 4, 57, 68
9, 32220, Control_c, 4, 11, 99
9, 32320, Control_c, 4, 11, 101
9, 32420, Control_c, 4, 11, 105
9, 32520, Control_c, 4, 11, 109
9, 32620, Control_c, 4, 11, 111
9, 32639, Note_on_c, 4, 45, 0
9, 32639, Note_on_c, 4, 57, 0
9, 32640, Note_on_c, 4, 50, 68
9, 32640, Note_on_c, 4, 62, 68
9, 32720, Control_c, 4, 11, 115
9, 32820, Control_c, 4, 11, 117
9, 32879, Note_on_c, 4, 50, 0
9, 32879, Note_on_c, 4, 62, 0
9, 32880, Note_on_c, 4, 57, 68
9, 32880, Note_on_c, 4, 45, 68
9, 32920, Control_c, 4, 11, 121
9, 33020, Control_c, 4, 11, 124
9, 33120, Control_c, 4, 11, 127
9, 33359, Note_on_c, 4, 57, 0
9, 33359, Note_on_c, 4, 45, 0
9, 33360, Note_on_c, 4, 52, 68
9, 33360, Control_c, 4, 11, 127
9, 33360, Note_on_c, 4, 64, 68
9, 33380, Control_c, 4, 11, 124
9, 33400, Control_c, 4, 11, 121
9, 33420, Control_c, 4, 11, 117
9, 33440, Control_c, 4, 11, 115
9, 33460, Control_c, 4, 11, 111
9, 33480, Control_c, 4, 11, 109
9, 33500, Control_c, 4, 11, 105
9, 33520, Control_c, 4, 11, 101
9, 33540, Control_c, 4, 11, 99
9, 33560, Control_c, 4, 11, 95
9, 33580, Control_c, 4, 11, 92
9, 33599, Note_on_c, 4, 52, 0
9, 33599, Note_on_c, 4, 64, 0
9, 33600, Note_on_c, 4, 57, 68
9, 33600, Note_on_c, 4, 45, 68
9, 33840, Control_c, 4, 11, 89
9, 33960, Control_c, 4, 11, 87
9, 34071, Note_on_c, 4, 57, 0
9, 34071, Note_on_c, 4, 45, 0
9, 34080, Note_on_c, 4, 45, 68
9, 34080, Control_c, 4, 11, 85
9, 34080, Note_on_c, 4, 57, 68
9, 34200, Control_c, 4, 11, 84
9, 34319, Note_on_c, 4, 45, 0
9, 34319, Note_on_c, 4, 57, 0
9, 34320, Note_on_c, 4, 62, 68
9, 34320, Control_c, 4, 11, 82
9, 34320, Note_on_c, 4, 50, 68
9, 34440, Control_c, 4, 11, 80
9, 34559, Note_on_c, 4, 62, 0
9, 34559, Note_on_c, 4, 50, 0
9, 34560, Control_c, 4, 11, 79
9, 34680, Control_c, 4, 11, 77
9, 34800, Control_c, 4, 11, 75
9, 34800, Note_on_c, 4, 57, 68
9, 34800, Note_on_c, 4, 45, 68
9, 34920, Control_c, 4, 11, 74
9, 35039, Note_on_c, 4, 57, 0
9, 35039, Note_on_c, 4, 45, 0
9, 35040, Note_on_c, 4, 58, 68
9, 35040, Note_on_c, 4, 46, 68
9, 35040, Control_c, 4, 11, 72
9, 35160, Control_c, 4, 11, 70
9, 35519, Note_on_c, 4, 58, 0
9, 35519, Note_on_c, 4, 46, 0
9, 35520, Note_on_c, 4, 53, 68
9, 35520, Control_c, 4, 11, 69
9, 35520, Note_on_c, 4, 41, 68
9, 35991, Note_on_c, 4, 53, 0
9, 35991, Note_on_c, 4, 41, 0
9, 36000, Note_on_c, 4, 46, 32
9, 36000, Control_c, 4, 11, 127
9, 36239, Note_on_c, 4, 46, 0
9, 39360, Control_c, 4, 11, 89
9, 39600, Note_on_c, 4, 63, 68
9, 39719, Note_on_c, 4, 63, 0
9, 39720, Note_on_c, 4, 62, 68
9, 39720, Note_on_c, 4, 41, 68
9, 39779, Note_on_c, 4, 62, 0
9, 39780, Note_on_c, 4, 60, 68
9, 39831, Note_on_c, 4, 41, 0
9, 39831, Note_on_c, 4, 60, 0
9, 39840, Note_on_c, 4, 58, 68
9, 39840, Note_on_c, 4, 41, 68
9, 39840, Control_c, 4, 11, 89
9, 39890, Control_c, 4, 11, 92
9, 39940, Control_c, 4, 11, 95
9, 39990, Control_c, 4, 11, 99
9, 40040, Control_c, 4, 11, 101
9, 40079, Note_on_c, 4, 41, 0
9, 40090, Control_c, 4, 11, 105
9, 40140, Control_c, 4, 11, 109
9, 40190, Control_c, 4, 11, 111
9, 40200, Note_on_c, 4, 53, 68
9, 40240, Control_c, 4, 11, 115
9, 40290, Control_c, 4, 11, 117
9, 40311, Note_on_c, 4, 53, 0
9, 40320, Note_on_c, 4, 53, 68
9, 40340, Control_c, 4, 11, 121
9, 40390, Control_c, 4, 11, 124
9, 40439, Note_on_c, 4, 58, 0
9, 40440, Note_on_c, 4, 57, 68
9, 40440, Control_c, 4, 11, 127
9, 40470, Control_c, 4, 11, 124
9, 40500, Control_c, 4, 11, 121
9, 40530, Control_c, 4, 11, 117
9, 40559, Note_on_c, 4, 53, 0
9, 40559, Note_on_c, 4, 57, 0
9, 40560, Control_c, 4, 11, 115
9, 40560, Note_on_c, 4, 67, 68
9, 40590, Control_c, 4, 11, 111
9, 40620, Control_c, 4, 11, 109
9, 40650, Control_c, 4, 11, 105
9, 40679, Note_on_c, 4, 67, 0
9, 40680, Control_c, 4, 11, 101
9, 40680, Note_on_c, 4, 65, 68
9, 40710, Control_c, 4, 11, 99
9, 40740, Control_c, 4, 11, 95
9, 40770, Control_c, 4, 11, 92
9, 40791, Note_on_c, 4, 65, 0
9, 40800, Note_on_c, 4, 65, 68
9, 41039, Note_on_c, 4, 65, 0
9, 44160, Control_c, 4, 11, 89
9, 44400, Note_on_c, 4, 53, 68
9, 44400, Note_on_c, 4, 57, 68
9, 44511, Note_on_c, 4, 53, 0
9, 44511, Note_on_c, 4, 57, 0
9, 44520, Note_on_c, 4, 53, 68
9, 44520, Note_on_c, 4, 57, 68
9, 44631, Note_on_c, 4, 53, 0
9, 44631, Note_on_c, 4, 57, 0
9, 44640, Control_c, 4, 11, 89
9, 44640, Note_on_c, 4, 57, 68
9, 44640, Note_on_c, 4, 53, 68
9, 44680, Control_c, 4, 11, 92
9, 44720, Control_c, 4, 11, 95
9, 44760, Control_c, 4, 11, 99
9, 44800, Control_c, 4, 11, 101
9, 44840, Control_c, 4, 11, 105
9, 44880, Control_c, 4, 11, 109
9, 44920, Control_c, 4, 11, 111
9, 44960, Control_c, 4, 11, 115
9, 44999, Note_on_c, 4, 57, 0
9, 44999, Note_on_c, 4, 53, 0
9, 45000, Control_c, 4, 11, 117
9, 45000, Note_on_c, 4, 53, 68
9, 45000, Note_on_c, 4, 58, 68
9, 45040, Control_c, 4, 11, 121
9, 45080, Control_c, 4, 11, 124
9, 45111, Note_on_c, 4, 53, 0
9, 45111, Note_on_c, 4, 58, 0
9, 45120, Control_c, 4, 11, 127
9, 45120, Note_on_c, 4, 53, 68
9, 45120, Note_on_c, 4, 58, 68
9, 45140, Control_c, 4, 11, 124
9, 45160, Control_c, 4, 11, 121
9, 45180, Control_c, 4, 11, 117
9, 45200, Control_c, 4, 11, 115
9, 45220, Control_c, 4, 11, 111
9, 45240, Control_c, 4, 11, 109
9, 45260, Control_c, 4, 11, 105
9, 45280, Control_c, 4, 11, 101
9, 45300, Control_c, 4, 11, 99
9, 45320, Control_c, 4, 11, 95
9, 45340, Control_c, 4, 11, 92
9, 45359, Note_on_c, 4, 53, 0
9, 45359, Note_on_c, 4, 58, 0
9, 47280, Control_c, 4, 11, 89
9, 47400, Note_on_c, 4, 53, 68
9, 47400, Note_on_c, 4, 50, 68
9, 47511, Note_on_c, 4, 50, 0
9, 47519, Note_on_c, 4, 53, 0
9, 47520, Note_on_c, 4, 48, 68
9, 47520, Note_on_c, 4, 55, 68
9, 47520, Control_c, 4, 11, 89
9, 47556, Control_c, 4, 11, 92
9, 47590, Control_c, 4, 11, 95
9, 47626, Control_c, 4, 11, 99
9, 47660, Control_c, 4, 11, 101
9, 47696, Control_c, 4, 11, 105
9, 47730, Control_c, 4, 11, 109
9, 47759, Note_on_c, 4, 55, 0
9, 47760, Note_on_c, 4, 57, 68
9, 47766, Control_c, 4, 11, 111
9, 47800, Control_c, 4, 11, 115
9, 47836, Control_c, 4, 11, 117
9, 47870, Control_c, 4, 11, 121
9, 47906, Control_c, 4, 11, 124
9, 47991, Note_on_c, 4, 48, 0
9, 48000, Note_on_c, 4, 53, 68
9, 48000, Control_c, 4, 11, 127
9, 48020, Control_c, 4, 11, 124
9, 48040, Control_c, 4, 11, 121
9, 48060, Control_c, 4, 11, 117
9, 48080, Control_c, 4, 11, 115
9, 48100, Control_c, 4, 11, 111
9, 48119, Note_on_c, 4, 57, 0
9, 48119, Note_on_c, 4, 53, 0
9, 48120, Note_on_c, 4, 58, 68
9, 48120, Control_c, 4, 11, 109
9, 48120, Note_on_c, 4, 55, 68
9, 48140, Control_c, 4, 11, 105
9, 48160, Control_c, 4, 11, 101
9, 48180, Control_c, 4, 11, 99
9, 48200, Control_c, 4, 11, 95
9, 48220, Control_c, 4, 11, 92
9, 48239, Note_on_c, 4, 58, 0
9, 48239, Note_on_c, 4, 55, 0
9, 50880, Control_c, 4, 11, 89
9, 51120, Note_on_c, 4, 60, 68
9, 51120, Note_on_c, 4, 63, 68
9, 51239, Note_on_c, 4, 60, 0
9, 51239, Note_on_c, 4, 63, 0
9, 51240, Note_on_c, 4, 57, 68
9, 51240, Note_on_c, 4, 60, 68
9, 51351, Note_on_c, 4, 57, 0
9, 51351, Note_on_c, 4, 60, 0
9, 51360, Note_on_c, 4, 57, 68
9, 51360, Note_on_c, 4, 60, 68
9, 51719, Note_on_c, 4, 57, 0
9, 51719, Note_on_c, 4, 60, 0
9, 51720, Note_on_c, 4, 62, 68
9, 51720, Note_on_c, 4, 53, 68
9, 51839, Note_on_c, 4, 62, 0
9, 51839, Note_on_c, 4, 53, 0
9, 51840, Note_on_c, 4, 50, 68
9, 51840, Note_on_c, 4, 58, 68
9, 52071, Note_on_c, 4, 50, 0
9, 52071, Note_on_c, 4, 58, 0
9, 52080, Note_on_c, 4, 62, 68
9, 52080, Note_on_c, 4, 58, 68
9, 52199, Note_on_c, 4, 62, 0
9, 52199, Note_on_c, 4, 58, 0
9, 52200, Note_on_c, 4, 63, 68
9, 52200, Note_on_c, 4, 60, 68
9, 52311, Note_on_c, 4, 63, 0
9, 52311, Note_on_c, 4, 60, 0
9, 52320, Note_on_c, 4, 60, 68
9, 52320, Note_on_c, 4, 63, 68
9, 52679, Note_on_c, 4, 60, 0
9, 52679, Note_on_c, 4, 63, 0
9, 52680, Note_on_c, 4, 62, 68
9, 52680, Note_on_c, 4, 65, 68
9, 52799, Note_on_c, 4, 62, 0
9, 52799, Note_on_c, 4, 65, 0
9, 52800, Note_on_c, 4, 60, 68
9, 52800, Note_on_c, 4, 63, 68
9, 52919, Note_on_c, 4, 60, 0
9, 52919, Note_on_c, 4, 63, 0
9, 52920, Note_on_c, 4, 58, 68
9, 52920, Note_on_c, 4, 62, 68
9, 53039, Note_on_c, 4, 58, 0
9, 53039, Note_on_c, 4, 62, 0
9, 53040, Note_on_c, 4, 63, 68
9, 53040, Control_c, 4, 11, 89
9, 53040, Note_on_c, 4, 51, 68
9, 53072, Control_c, 4, 11, 90
9, 53103, Control_c, 4, 11, 91
9, 53135, Control_c, 4, 11, 92
9, 53151, Note_on_c, 4, 63, 0
9, 53151, Note_on_c, 4, 51, 0
9, 53160, Note_on_c, 4, 51, 68
9, 53160, Note_on_c, 4, 55, 68
9, 53166, Control_c, 4, 11, 93
9, 53198, Control_c, 4, 11, 94
9, 53229, Control_c, 4, 11, 95
9, 53261, Control_c, 4, 11, 96
9, 53271, Note_on_c, 4, 51, 0
9, 53271, Note_on_c, 4, 55, 0
9, 53280, Note_on_c, 4, 55, 68
9, 53280, Note_on_c, 4, 51, 68
9, 53293, Control_c, 4, 11, 97
9, 53324, Control_c, 4, 11, 98
9, 53356, Control_c, 4, 11, 99
9, 53387, Control_c, 4, 11, 100
9, 53391, Note_on_c, 4, 55, 0
9, 53391, Note_on_c, 4, 51, 0
9, 53400, Note_on_c, 4, 51, 68
9, 53400, Note_on_c, 4, 55, 68
9, 53419, Control_c, 4, 11, 101
9, 53451, Control_c, 4, 11, 102
9, 53482, Control_c, 4, 11, 103
9, 53511, Note_on_c, 4, 51, 0
9, 53511, Note_on_c, 4, 55, 0
9, 53514, Control_c, 4, 11, 104
9, 53520, Note_on_c, 4, 51, 68
9, 53520, Note_on_c, 4, 55, 68
9, 53545, Control_c, 4, 11, 105
9, 53577, Control_c, 4, 11, 106
9, 53608, Control_c, 4, 11, 107
9, 53631, Note_on_c, 4, 51, 0
9, 53631, Note_on_c, 4, 55, 0
9, 53640, Note_on_c, 4, 51, 68
9, 53640, Control_c, 4, 11, 108
9, 53640, Note_on_c, 4, 55, 68
9, 53672, Control_c, 4, 11, 109
9, 53703, Control_c, 4, 11, 110
9, 53735, Control_c, 4, 11, 111
9, 53751, Note_on_c, 4, 51, 0
9, 53751, Note_on_c, 4, 55, 0
9, 53760, Note_on_c, 4, 55, 68
9, 53760, Note_on_c, 4, 52, 68
9, 53766, Control_c, 4, 11, 112
9, 53798, Control_c, 4, 11, 113
9, 53829, Control_c, 4, 11, 114
9, 53861, Control_c, 4, 11, 115
9, 53871, Note_on_c, 4, 55, 0
9, 53871, Note_on_c, 4, 52, 0
9, 53880, Note_on_c, 4, 52, 68
9, 53880, Note_on_c, 4, 55, 68
9, 53893, Control_c, 4, 11, 116
9, 53924, Control_c, 4, 11, 117
9, 53956, Control_c, 4, 11, 118
9, 53987, Control_c, 4, 11, 119
9, 53991, Note_on_c, 4, 52, 0
9, 53991, Note_on_c, 4, 55, 0
9, 54000, Note_on_c, 4, 55, 68
9, 54000, Note_on_c, 4, 52, 68
9, 54019, Control_c, 4, 11, 120
9, 54051, Control_c, 4, 11, 121
9, 54082, Control_c, 4, 11, 122
9, 54111, Note_on_c, 4, 55, 0
9, 54111, Note_on_c, 4, 52, 0
9, 54114, Control_c, 4, 11, 123
9, 54120, Note_on_c, 4, 55, 68
9, 54120, Note_on_c, 4, 52, 68
9, 54145, Control_c, 4, 11, 124
9, 54177, Control_c, 4, 11, 125
9, 54208, Control_c, 4, 11, 127
9, 54231, Note_on_c, 4, 55, 0
9, 54231, Note_on_c, 4, 52, 0
9, 54240, Note_on_c, 4, 52, 68
9, 54240, Control_c, 4, 11, 127
9, 54240, Note_on_c, 4, 55, 68
9, 54260, Control_c, 4, 11, 125
9, 54280, Control_c, 4, 11, 124
9, 54300, Control_c, 4, 11, 122
9, 54320, Control_c, 4, 11, 120
9, 54340, Control_c, 4, 11, 119
9, 54359, Note_on_c, 4, 52, 0
9, 54359, Note_on_c, 4, 55, 0
9, 54360, Control_c, 4, 11, 117
9, 54360, Note_on_c, 4, 53, 68
9, 54380, Control_c, 4, 11, 115
9, 54400, Control_c, 4, 11, 114
9, 54420, Control_c, 4, 11, 112
9, 54440, Control_c, 4, 11, 110
9, 54460, Control_c, 4, 11, 109
9, 54471, Note_on_c, 4, 53, 0
9, 54480, Note_on_c, 4, 53, 68
9, 54480, Control_c, 4, 11, 107
9, 54500, Control_c, 4, 11, 105
9, 54520, Control_c, 4, 11, 104
9, 54540, Control_c, 4, 11, 102
9, 54560, Control_c, 4, 11, 100
9, 54580, Control_c, 4, 11, 99
9, 54591, Note_on_c, 4, 53, 0
9, 54600, Note_on_c, 4, 53, 68
9, 54600, Control_c, 4, 11, 97
9, 54620, Control_c, 4, 11, 95
9, 54640, Control_c, 4, 11, 94
9, 54660, Control_c, 4, 11, 92
9, 54680, Control_c, 4, 11, 90
9, 54700, Control_c, 4, 11, 89
9, 54711, Note_on_c, 4, 53, 0
9, 54720, Note_on_c, 4, 41, 68
9, 54831, Note_on_c, 4, 41, 0
9, 54840, Note_on_c, 4, 41, 68
9, 54840, Note_on_c, 4, 53, 68
9, 55071, Note_on_c, 4, 41, 0
9, 55071, Note_on_c, 4, 53, 0
9, 55080, Note_on_c, 4, 53, 68
9, 55080, Note_on_c, 4, 57, 68
9, 55191, Note_on_c, 4, 53, 0
9, 55191, Note_on_c, 4, 57, 0
9, 55200, Note_on_c, 4, 53, 62
9, 55200, Note_on_c, 4, 57, 62
9, 55911, Note_on_c, 4, 53, 0
9, 55911, Note_on_c, 4, 57, 0
9, 55920, Note_on_c, 4, 57, 62
9, 55920, Note_on_c, 4, 54, 62
9, 56160, Control_c, 4, 11, 79
9, 56871, Note_on_c, 4, 57, 0
9, 56871, Note_on_c, 4, 54, 0
9, 56878, Control_c, 4, 11, 87
9, 56880, Note_on_c, 4, 59, 56
9, 56880, Note_on_c, 4, 55, 56
9, 57231, Note_on_c, 4, 55, 0
9, 57239, Note_on_c, 4, 59, 0
9, 57240, Note_on_c, 4, 57, 56
9, 57240, Control_c, 4, 11, 89
9, 57240, Note_on_c, 4, 54, 56
9, 57359, Note_on_c, 4, 54, 0
9, 57410, Control_c, 4, 11, 92
9, 57471, Note_on_c, 4, 57, 0
9, 57480, Note_on_c, 4, 57, 56
9, 57580, Control_c, 4, 11, 95
9, 57659, Note_on_c, 4, 57, 0
9, 57660, Note_on_c, 4, 59, 56
9, 57719, Note_on_c, 4, 59, 0
9, 57720, Note_on_c, 4, 60, 56
9, 57750, Control_c, 4, 11, 99
9, 57779, Note_on_c, 4, 60, 0
9, 57780, Note_on_c, 4, 57, 56
9, 57831, Note_on_c, 4, 57, 0
9, 57840, Note_on_c, 4, 60, 56
9, 57920, Control_c, 4, 11, 101
9, 57959, Note_on_c, 4, 60, 0
9, 57960, Note_on_c, 4, 59, 56
9, 58090, Control_c, 4, 11, 105
9, 58191, Note_on_c, 4, 59, 0
9, 58200, Note_on_c, 4, 59, 56
9, 58260, Control_c, 4, 11, 109
9, 58379, Note_on_c, 4, 59, 0
9, 58380, Note_on_c, 4, 60, 56
9, 58430, Control_c, 4, 11, 111
9, 58439, Note_on_c, 4, 60, 0
9, 58440, Note_on_c, 4, 62, 56
9, 58499, Note_on_c, 4, 62, 0
9, 58500, Note_on_c, 4, 59, 56
9, 58551, Note_on_c, 4, 59, 0
9, 58560, Note_on_c, 4, 62, 56
9, 58600, Control_c, 4, 11, 115
9, 58679, Note_on_c, 4, 62, 0
9, 58680, Note_on_c, 4, 60, 56
9, 58770, Control_c, 4, 11, 117
9, 58911, Note_on_c, 4, 60, 0
9, 58920, Note_on_c, 4, 62, 56
9, 58940, Control_c, 4, 11, 121
9, 59024, Note_on_c, 4, 62, 0
9, 59040, Note_on_c, 4, 64, 56
9, 59110, Control_c, 4, 11, 124
9, 59144, Note_on_c, 4, 64, 0
9, 59160, Note_on_c, 4, 66, 56
9, 59249, Note_on_c, 4, 66, 0
9, 59280, Note_on_c, 4, 69, 56
9, 59280, Control_c, 4, 11, 127
9, 59399, Note_on_c, 4, 69, 0
9, 59400, Note_on_c, 4, 67, 56
9, 59631, Note_on_c, 4, 67, 0
9, 59640, Control_c, 4, 11, 127
9, 59640, Note_on_c, 4, 67, 56
9, 59660, Control_c, 4, 11, 125
9, 59680, Control_c, 4, 11, 123
9, 59699, Note_on_c, 4, 67, 0
9, 59700, Control_c, 4, 11, 120
9, 59700, Note_on_c, 4, 66, 56
9, 59720, Control_c, 4, 11, 118
9, 59740, Control_c, 4, 11, 116
9, 59759, Note_on_c, 4, 66, 0
9, 59760, Control_c, 4, 11, 114
9, 59760, Note_on_c, 4, 64, 56
9, 59780, Control_c, 4, 11, 111
9, 59800, Control_c, 4, 11, 109
9, 59819, Note_on_c, 4, 64, 0
9, 59820, Note_on_c, 4, 62, 56
9, 59820, Control_c, 4, 11, 107
9, 59840, Control_c, 4, 11, 105
9, 59860, Control_c, 4, 11, 103
9, 59879, Note_on_c, 4, 62, 0
9, 59880, Note_on_c, 4, 60, 56
9, 59880, Control_c, 4, 11, 100
9, 59900, Control_c, 4, 11, 98
9, 59920, Control_c, 4, 11, 96
9, 59939, Note_on_c, 4, 60, 0
9, 59940, Control_c, 4, 11, 94
9, 59940, Note_on_c, 4, 59, 56
9, 59960, Control_c, 4, 11, 91
9, 59980, Control_c, 4, 11, 89
9, 59991, Note_on_c, 4, 59, 0
9, 60000, Note_on_c, 4, 59, 56
9, 60119, Note_on_c, 4, 59, 0
9, 60120, Control_c, 4, 11, 87
9, 60120, Note_on_c, 4, 57, 56
9, 60162, Control_c, 4, 11, 88
9, 60204, Control_c, 4, 11, 89
9, 60246, Control_c, 4, 11, 90
9, 60288, Control_c, 4, 11, 91
9, 60330, Control_c, 4, 11, 92
9, 60351, Note_on_c, 4, 57, 0
9, 60360, Note_on_c, 4, 57, 56
9, 60372, Control_c, 4, 11, 93
9, 60414, Control_c, 4, 11, 94
9, 60456, Control_c, 4, 11, 95
9, 60498, Control_c, 4, 11, 96
9, 60539, Note_on_c, 4, 57, 0
9, 60540, Note_on_c, 4, 59, 56
9, 60540, Control_c, 4, 11, 97
9, 60582, Control_c, 4, 11, 98
9, 60599, Note_on_c, 4, 59, 0
9, 60600, Note_on_c, 4, 60, 56
9, 60624, Control_c, 4, 11, 99
9, 60659, Note_on_c, 4, 60, 0
9, 60660, Note_on_c, 4, 57, 56
9, 60666, Control_c, 4, 11, 100
9, 60708, Control_c, 4, 11, 101
9, 60711, Note_on_c, 4, 57, 0
9, 60720, Note_on_c, 4, 60, 56
9, 60750, Control_c, 4, 11, 102
9, 60792, Control_c, 4, 11, 103
9, 60834, Control_c, 4, 11, 104
9, 60839, Note_on_c, 4, 60, 0
9, 60840, Note_on_c, 4, 59, 56
9, 60876, Control_c, 4, 11, 105
9, 60918, Control_c, 4, 11, 106
9, 60960, Control_c, 4, 11, 107
9, 61002, Control_c, 4, 11, 108
9, 61044, Control_c, 4, 11, 109
9, 61071, Note_on_c, 4, 59, 0
9, 61080, Note_on_c, 4, 59, 56
9, 61086, Control_c, 4, 11, 110
9, 61128, Control_c, 4, 11, 111
9, 61170, Control_c, 4, 11, 112
9, 61212, Control_c, 4, 11, 113
9, 61254, Control_c, 4, 11, 114
9, 61259, Note_on_c, 4, 59, 0
9, 61260, Note_on_c, 4, 60, 56
9, 61296, Control_c, 4, 11, 115
9, 61319, Note_on_c, 4, 60, 0
9, 61320, Note_on_c, 4, 62, 56
9, 61338, Control_c, 4, 11, 116
9, 61379, Note_on_c, 4, 62, 0
9, 61380, Control_c, 4, 11, 117
9, 61380, Note_on_c, 4, 59, 56
9, 61422, Control_c, 4, 11, 118
9, 61431, Note_on_c, 4, 59, 0
9, 61440, Note_on_c, 4, 62, 56
9, 61464, Control_c, 4, 11, 119
9, 61506, Control_c, 4, 11, 120
9, 61548, Control_c, 4, 11, 121
9, 61559, Note_on_c, 4, 62, 0
9, 61560, Note_on_c, 4, 60, 56
9, 61590, Control_c, 4, 11, 122
9, 61632, Control_c, 4, 11, 123
9, 61674, Control_c, 4, 11, 124
9, 61716, Control_c, 4, 11, 125
9, 61758, Control_c, 4, 11, 127
9, 61791, Note_on_c, 4, 60, 0
9, 61800, Note_on_c, 4, 64, 56
9, 61830, Control_c, 4, 11, 124
9, 61859, Note_on_c, 4, 64, 0
9, 61860, Control_c, 4, 11, 121
9, 61860, Note_on_c, 4, 60, 56
9, 61890, Control_c, 4, 11, 117
9, 61919, Note_on_c, 4, 60, 0
9, 61920, Control_c, 4, 11, 115
9, 61920, Note_on_c, 4, 59, 56
9, 61950, Control_c, 4, 11, 111
9, 61979, Note_on_c, 4, 59, 0
9, 61980, Note_on_c, 4, 57, 56
9, 61980, Control_c, 4, 11, 109
9, 62010, Control_c, 4, 11, 105
9, 62039, Note_on_c, 4, 57, 0
9, 62040, Control_c, 4, 11, 101
9, 62040, Note_on_c, 4, 55, 56
9, 62070, Control_c, 4, 11, 99
9, 62099, Note_on_c, 4, 55, 0
9, 62100, Control_c, 4, 11, 95
9, 62100, Note_on_c, 4, 54, 56
9, 62130, Control_c, 4, 11, 92
9, 62151, Note_on_c, 4, 54, 0
9, 62160, Control_c, 4, 11, 89
9, 62160, Note_on_c, 4, 60, 56
9, 62250, Control_c, 4, 11, 87
9, 62340, Control_c, 4, 11, 86
9, 62430, Control_c, 4, 11, 85
9, 62519, Note_on_c, 4, 60, 0
9, 62520, Note_on_c, 4, 57, 56
9, 62520, Control_c, 4, 11, 84
9, 62610, Control_c, 4, 11, 82
9, 62631, Note_on_c, 4, 57, 0
9, 62640, Note_on_c, 4, 55, 56
9, 62700, Control_c, 4, 11, 81
9, 62759, Note_on_c, 4, 55, 0
9, 62760, Note_on_c, 4, 55, 56
9, 62760, Note_on_c, 4, 59, 56
9, 62790, Control_c, 4, 11, 80
9, 62999, Note_on_c, 4, 55, 0
9, 62999, Note_on_c, 4, 59, 0
9, 63000, Note_on_c, 4, 57, 56
9, 63000, Note_on_c, 4, 54, 56
9, 63000, Control_c, 4, 11, 87
9, 63051, Control_c, 4, 11, 88
9, 63102, Control_c, 4, 11, 89
9, 63153, Control_c, 4, 11, 90
9, 63204, Control_c, 4, 11, 91
9, 63231, Note_on_c, 4, 57, 0
9, 63231, Note_on_c, 4, 54, 0
9, 63240, Note_on_c, 4, 57, 56
9, 63240, Note_on_c, 4, 54, 56
9, 63255, Control_c, 4, 11, 92
9, 63306, Control_c, 4, 11, 93
9, 63357, Control_c, 4, 11, 94
9, 63408, Control_c, 4, 11, 95
9, 63419, Note_on_c, 4, 57, 0
9, 63419, Note_on_c, 4, 54, 0
9, 63420, Note_on_c, 4, 55, 56
9, 63420, Note_on_c, 4, 59, 56
9, 63459, Control_c, 4, 11, 96
9, 63479, Note_on_c, 4, 55, 0
9, 63479, Note_on_c, 4, 59, 0
9, 63480, Note_on_c, 4, 57, 56
9, 63480, Note_on_c, 4, 60, 56
9, 63510, Control_c, 4, 11, 97
9, 63539, Note_on_c, 4, 57, 0
9, 63539, Note_on_c, 4, 60, 0
9, 63540, Note_on_c, 4, 57, 56
9, 63540, Note_on_c, 4, 54, 56
9, 63561, Control_c, 4, 11, 98
9, 63591, Note_on_c, 4, 57, 0
9, 63591, Note_on_c, 4, 54, 0
9, 63600, Note_on_c, 4, 57, 56
9, 63600, Note_on_c, 4, 60, 56
9, 63612, Control_c, 4, 11, 99
9, 63663, Control_c, 4, 11, 100
9, 63714, Control_c, 4, 11, 101
9, 63719, Note_on_c, 4, 57, 0
9, 63719, Note_on_c, 4, 60, 0
9, 63720, Note_on_c, 4, 55, 56
9, 63720, Note_on_c, 4, 59, 56
9, 63765, Control_c, 4, 11, 102
9, 63816, Control_c, 4, 11, 103
9, 63867, Control_c, 4, 11, 104
9, 63918, Control_c, 4, 11, 105
9, 63951, Note_on_c, 4, 55, 0
9, 63951, Note_on_c, 4, 59, 0
9, 63960, Note_on_c, 4, 59, 56
9, 63960, Note_on_c, 4, 55, 56
9, 63969, Control_c, 4, 11, 106
9, 64020, Control_c, 4, 11, 107
9, 64071, Control_c, 4, 11, 108
9, 64122, Control_c, 4, 11, 109
9, 64139, Note_on_c, 4, 59, 0
9, 64139, Note_on_c, 4, 55, 0
9, 64140, Note_on_c, 4, 60, 56
9, 64140, Note_on_c, 4, 57, 56
9, 64173, Control_c, 4, 11, 110
9, 64199, Note_on_c, 4, 60, 0
9, 64199, Note_on_c, 4, 57, 0
9, 64200, Note_on_c, 4, 62, 56
9, 64200, Note_on_c, 4, 59, 56
9, 64224, Control_c, 4, 11, 111
9, 64259, Note_on_c, 4, 62, 0
9, 64259, Note_on_c, 4, 59, 0
9, 64260, Note_on_c, 4, 59, 56
9, 64260, Note_on_c, 4, 55, 56
9, 64275, Control_c, 4, 11, 112
9, 64311, Note_on_c, 4, 59, 0
9, 64311, Note_on_c, 4, 55, 0
9, 64320, Note_on_c, 4, 59, 56
9, 64320, Note_on_c, 4, 62, 56
9, 64326, Control_c, 4, 11, 113
9, 64377, Control_c, 4, 11, 114
9, 64428, Control_c, 4, 11, 115
9, 64439, Note_on_c, 4, 59, 0
9, 64439, Note_on_c, 4, 62, 0
9, 64440, Note_on_c, 4, 57, 56
9, 64440, Note_on_c, 4, 60, 56
9, 64479, Control_c, 4, 11, 116
9, 64530, Control_c, 4, 11, 117
9, 64581, Control_c, 4, 11, 118
9, 64632, Control_c, 4, 11, 119
9, 64671, Note_on_c, 4, 57, 0
9, 64671, Note_on_c, 4, 60, 0
9, 64680, Note_on_c, 4, 60, 56
9, 64680, Note_on_c, 4, 57, 56
9, 64683, Control_c, 4, 11, 120
9, 64734, Control_c, 4, 11, 121
9, 64784, Note_on_c, 4, 60, 0
9, 64784, Note_on_c, 4, 57, 0
9, 64785, Control_c, 4, 11, 122
9, 64800, Note_on_c, 4, 60, 56
9, 64800, Note_on_c, 4, 57, 56
9, 64836, Control_c, 4, 11, 123
9, 64887, Control_c, 4, 11, 124
9, 64904, Note_on_c, 4, 60, 0
9, 64904, Note_on_c, 4, 57, 0
9, 64920, Note_on_c, 4, 60, 56
9, 64920, Note_on_c, 4, 57, 56
9, 64938, Control_c, 4, 11, 125
9, 64989, Control_c, 4, 11, 127
9, 65009, Note_on_c, 4, 60, 0
9, 65009, Note_on_c, 4, 57, 0
9, 65040, Note_on_c, 4, 57, 56
9, 65040, Note_on_c, 4, 60, 56
9, 65159, Note_on_c, 4, 57, 0
9, 65159, Note_on_c, 4, 60, 0
9, 65160, Note_on_c, 4, 59, 56
9, 65160, Note_on_c, 4, 55, 56
9, 65391, Note_on_c, 4, 59, 0
9, 65391, Note_on_c, 4, 55, 0
9, 65400, Note_on_c, 4, 67, 56
9, 65400, Control_c, 4, 11, 127
9, 65400, Note_on_c, 4, 59, 56
9, 65430, Control_c, 4, 11, 124
9, 65459, Note_on_c, 4, 67, 0
9, 65459, Note_on_c, 4, 59, 0
9, 65460, Note_on_c, 4, 66, 56
9, 65460, Control_c, 4, 11, 121
9, 65460, Note_on_c, 4, 62, 56
9, 65490, Control_c, 4, 11, 117
9, 65519, Note_on_c, 4, 66, 0
9, 65519, Note_on_c, 4, 62, 0
9, 65520, Note_on_c, 4, 60, 56
9, 65520, Control_c, 4, 11, 115
9, 65520, Note_on_c, 4, 64, 56
9, 65550, Control_c, 4, 11, 111
9, 65579, Note_on_c, 4, 60, 0
9, 65579, Note_on_c, 4, 64, 0
9, 65580, Control_c, 4, 11, 109
9, 65580, Note_on_c, 4, 59, 56
9, 65580, Note_on_c, 4, 62, 56
9, 65610, Control_c, 4, 11, 105
9, 65639, Note_on_c, 4, 59, 0
9, 65639, Note_on_c, 4, 62, 0
9, 65640, Note_on_c, 4, 60, 56
9, 65640, Note_on_c, 4, 57, 56
9, 65640, Control_c, 4, 11, 101
9, 65670, Control_c, 4, 11, 99
9, 65699, Note_on_c, 4, 60, 0
9, 65699, Note_on_c, 4, 57, 0
9, 65700, Note_on_c, 4, 55, 56
9, 65700, Control_c, 4, 11, 95
9, 65700, Note_on_c, 4, 59, 56
9, 65730, Control_c, 4, 11, 92
9, 65751, Note_on_c, 4, 55, 0
9, 65751, Note_on_c, 4, 59, 0
9, 65758, Control_c, 4, 11, 67
9, 65760, Note_on_c, 4, 55, 68
9, 65760, Note_on_c, 4, 59, 68
9, 65879, Note_on_c, 4, 55, 0
9, 65879, Note_on_c, 4, 59, 0
9, 65880, Note_on_c, 4, 54, 68
9, 65880, Note_on_c, 4, 57, 68
9, 65880, Control_c, 4, 11, 67
9, 65908, Control_c, 4, 11, 68
9, 65935, Control_c, 4, 11, 70
9, 65963, Control_c, 4, 11, 71
9, 65990, Control_c, 4, 11, 72
9, 66018, Control_c, 4, 11, 73
9, 66045, Control_c, 4, 11, 75
9, 66073, Control_c, 4, 11, 76
9, 66100, Control_c, 4, 11, 77
9, 66111, Note_on_c, 4, 54, 0
9, 66111, Note_on_c, 4, 57, 0
9, 66120, Note_on_c, 4, 54, 68
9, 66120, Note_on_c, 4, 57, 68
9, 66128, Control_c, 4, 11, 78
9, 66155, Control_c, 4, 11, 80
9, 66183, Control_c, 4, 11, 81
9, 66210, Control_c, 4, 11, 82
9, 66238, Control_c, 4, 11, 83
9, 66265, Control_c, 4, 11, 85
9, 66293, Control_c, 4, 11, 86
9, 66299, Note_on_c, 4, 54, 0
9, 66299, Note_on_c, 4, 57, 0
9, 66300, Note_on_c, 4, 55, 68
9, 66300, Note_on_c, 4, 59, 68
9, 66320, Control_c, 4, 11, 87
9, 66348, Control_c, 4, 11, 88
9, 66359, Note_on_c, 4, 55, 0
9, 66359, Note_on_c, 4, 59, 0
9, 66360, Note_on_c, 4, 57, 68
9, 66360, Note_on_c, 4, 60, 68
9, 66375, Control_c, 4, 11, 90
9, 66403, Control_c, 4, 11, 91
9, 66419, Note_on_c, 4, 57, 0
9, 66419, Note_on_c, 4, 60, 0
9, 66420, Note_on_c, 4, 57, 68
9, 66420, Note_on_c, 4, 54, 68
9, 66430, Control_c, 4, 11, 92
9, 66458, Control_c, 4, 11, 93
9, 66471, Note_on_c, 4, 57, 0
9, 66471, Note_on_c, 4, 54, 0
9, 66480, Note_on_c, 4, 60, 68
9, 66480, Note_on_c, 4, 57, 68
9, 66485, Control_c, 4, 11, 95
9, 66513, Control_c, 4, 11, 96
9, 66540, Control_c, 4, 11, 97
9, 66568, Control_c, 4, 11, 98
9, 66595, Control_c, 4, 11, 100
9, 66599, Note_on_c, 4, 60, 0
9, 66599, Note_on_c, 4, 57, 0
9, 66600, Note_on_c, 4, 59, 68
9, 66600, Note_on_c, 4, 55, 68
9, 66623, Control_c, 4, 11, 101
9, 66650, Control_c, 4, 11, 102
9, 66678, Control_c, 4, 11, 103
9, 66705, Control_c, 4, 11, 105
9, 66733, Control_c, 4, 11, 106
9, 66760, Control_c, 4, 11, 107
9, 66788, Control_c, 4, 11, 108
9, 66815, Control_c, 4, 11, 110
9, 66831, Note_on_c, 4, 59, 0
9, 66831, Note_on_c, 4, 55, 0
9, 66840, Note_on_c, 4, 55, 68
9, 66840, Note_on_c, 4, 59, 68
9, 66843, Control_c, 4, 11, 111
9, 66870, Control_c, 4, 11, 112
9, 66898, Control_c, 4, 11, 113
9, 66925, Control_c, 4, 11, 115
9, 66953, Control_c, 4, 11, 116
9, 66980, Control_c, 4, 11, 117
9, 67008, Control_c, 4, 11, 118
9, 67019, Note_on_c, 4, 55, 0
9, 67019, Note_on_c, 4, 59, 0
9, 67020, Note_on_c, 4, 60, 68
9, 67020, Note_on_c, 4, 57, 68
9, 67035, Control_c, 4, 11, 120
9, 67063, Control_c, 4, 11, 121
9, 67079, Note_on_c, 4, 60, 0
9, 67079, Note_on_c, 4, 57, 0
9, 67080, Note_on_c, 4, 59, 68
9, 67080, Note_on_c, 4, 62, 68
9, 67090, Control_c, 4, 11, 122
9, 67118, Control_c, 4, 11, 123
9, 67139, Note_on_c, 4, 59, 0
9, 67139, Note_on_c, 4, 62, 0
9, 67140, Note_on_c, 4, 59, 68
9, 67140, Note_on_c, 4, 55, 68
9, 67145, Control_c, 4, 11, 125
9, 67173, Control_c, 4, 11, 127
9, 67191, Note_on_c, 4, 59, 0
9, 67191, Note_on_c, 4, 55, 0
9, 67200, Note_on_c, 4, 62, 68
9, 67200, Note_on_c, 4, 59, 68
9, 67319, Note_on_c, 4, 62, 0
9, 67319, Note_on_c, 4, 59, 0
9, 67320, Note_on_c, 4, 57, 68
9, 67320, Note_on_c, 4, 60, 68
9, 67551, Note_on_c, 4, 57, 0
9, 67551, Note_on_c, 4, 60, 0
9, 67560, Note_on_c, 4, 60, 68
9, 67560, Note_on_c, 4, 64, 68
9, 67560, Control_c, 4, 11, 127
9, 67590, Control_c, 4, 11, 124
9, 67619, Note_on_c, 4, 60, 0
9, 67619, Note_on_c, 4, 64, 0
9, 67620, Note_on_c, 4, 64, 68
9, 67620, Control_c, 4, 11, 121
9, 67620, Note_on_c, 4, 60, 68
9, 67650, Control_c, 4, 11, 117
9, 67679, Note_on_c, 4, 64, 0
9, 67679, Note_on_c, 4, 60, 0
9, 67680, Note_on_c, 4, 62, 68
9, 67680, Note_on_c, 4, 59, 68
9, 67680, Control_c, 4, 11, 115
9, 67710, Control_c, 4, 11, 111
9, 67739, Note_on_c, 4, 62, 0
9, 67739, Note_on_c, 4, 59, 0
9, 67740, Control_c, 4, 11, 109
9, 67740, Note_on_c, 4, 57, 68
9, 67740, Note_on_c, 4, 60, 68
9, 67770, Control_c, 4, 11, 105
9, 67799, Note_on_c, 4, 57, 0
9, 67799, Note_on_c, 4, 60, 0
9, 67800, Note_on_c, 4, 55, 68
9, 67800, Note_on_c, 4, 59, 68
9, 67800, Control_c, 4, 11, 101
9, 67830, Control_c, 4, 11, 99
9, 67859, Note_on_c, 4, 55, 0
9, 67859, Note_on_c, 4, 59, 0
9, 67860, Control_c, 4, 11, 95
9, 67860, Note_on_c, 4, 54, 68
9, 67860, Note_on_c, 4, 57, 68
9, 67890, Control_c, 4, 11, 92
9, 67911, Note_on_c, 4, 54, 0
9, 67911, Note_on_c, 4, 57, 0
9, 67920, Note_on_c, 4, 57, 68
9, 67920, Control_c, 4, 11, 89
9, 67920, Note_on_c, 4, 60, 68
9, 68040, Control_c, 4, 11, 87
9, 68160, Control_c, 4, 11, 85
9, 68279, Note_on_c, 4, 57, 0
9, 68279, Note_on_c, 4, 60, 0
9, 68280, Control_c, 4, 11, 84
9, 68280, Note_on_c, 4, 60, 68
9, 68280, Note_on_c, 4, 57, 68
9, 68391, Note_on_c, 4, 60, 0
9, 68391, Note_on_c, 4, 57, 0
9, 68400, Note_on_c, 4, 59, 68
9, 68400, Control_c, 4, 11, 82
9, 68400, Note_on_c, 4, 55, 68
9, 68519, Note_on_c, 4, 59, 0
9, 68519, Note_on_c, 4, 55, 0
9, 68520, Control_c, 4, 11, 80
9, 68520, Note_on_c, 4, 67, 68
9, 68520, Note_on_c, 4, 59, 68
9, 68631, Note_on_c, 4, 67, 0
9, 68631, Note_on_c, 4, 59, 0
9, 68640, Control_c, 4, 11, 79
9, 68640, Note_on_c, 4, 60, 68
9, 68640, Note_on_c, 4, 66, 68
9, 68760, Control_c, 4, 11, 77
9, 68880, Control_c, 4, 11, 75
9, 68999, Note_on_c, 4, 60, 0
9, 68999, Note_on_c, 4, 66, 0
9, 69000, Note_on_c, 4, 60, 68
9, 69000, Note_on_c, 4, 57, 68
9, 69000, Control_c, 4, 11, 74
9, 69111, Note_on_c, 4, 60, 0
9, 69111, Note_on_c, 4, 57, 0
9, 69120, Note_on_c, 4, 58, 68
9, 69120, Note_on_c, 4, 55, 68
9, 69120, Control_c, 4, 11, 72
9, 69240, Control_c, 4, 11, 70
9, 69360, Control_c, 4, 11, 69
9, 69839, Note_on_c, 4, 58, 0
9, 69839, Note_on_c, 4, 55, 0
9, 69840, Note_on_c, 4, 53, 68
9, 69840, Note_on_c, 4, 56, 68
9, 69959, Note_on_c, 4, 53, 0
9, 69959, Note_on_c, 4, 56, 0
9, 69960, Note_on_c, 4, 65, 68
9, 69960, Note_on_c, 4, 62, 68
9, 70071, Note_on_c, 4, 65, 0
9, 70071, Note_on_c, 4, 62, 0
9, 70078, Control_c, 4, 11, 87
9, 70080, Note_on_c, 4, 63, 56
9, 70080, Note_on_c, 4, 67, 56
9, 70311, Note_on_c, 4, 63, 0
9, 70319, Note_on_c, 4, 67, 0
9, 70320, Note_on_c, 4, 63, 56
9, 70559, Note_on_c, 4, 63, 0
9, 70560, Note_on_c, 4, 65, 56
9, 71031, Note_on_c, 4, 65, 0
9, 71040, Note_on_c, 4, 63, 56
9, 71391, Note_on_c, 4, 63, 0
9, 71400, Note_on_c, 4, 63, 56
9, 71511, Note_on_c, 4, 63, 0
9, 71520, Note_on_c, 4, 63, 56
9, 71759, Note_on_c, 4, 63, 0
9, 71760, Note_on_c, 4, 62, 56
9, 71991, Note_on_c, 4, 62, 0
9, 72000, Note_on_c, 4, 63, 56
9, 72239, Note_on_c, 4, 63, 0
9, 72360, Note_on_c, 4, 67, 56
9, 72471, Note_on_c, 4, 67, 0
9, 72480, Note_on_c, 4, 65, 56
9, 72831, Note_on_c, 4, 65, 0
9, 72840, Note_on_c, 4, 65, 56
9, 73071, Note_on_c, 4, 65, 0
9, 73080, Note_on_c, 4, 65, 56
9, 73199, Note_on_c, 4, 65, 0
9, 73200, Note_on_c, 4, 63, 56
9, 73551, Note_on_c, 4, 63, 0
9, 73560, Note_on_c, 4, 68, 56
9, 73679, Note_on_c, 4, 68, 0
9, 73680, Note_on_c, 4, 67, 56
9, 73799, Note_on_c, 4, 67, 0
9, 73800, Note_on_c, 4, 65, 56
9, 73919, Note_on_c, 4, 65, 0
9, 73920, Note_on_c, 4, 63, 56
9, 74039, Note_on_c, 4, 63, 0
9, 74040, Note_on_c, 4, 58, 56
9, 74151, Note_on_c, 4, 58, 0
9, 74160, Note_on_c, 4, 58, 56
9, 74511, Note_on_c, 4, 58, 0
9, 74520, Note_on_c, 4, 58, 56
9, 74631, Note_on_c, 4, 58, 0
9, 74640, Note_on_c, 4, 58, 56
9, 74991, Note_on_c, 4, 58, 0
9, 75000, Note_on_c, 4, 58, 56
9, 75111, Note_on_c, 4, 58, 0
9, 75120, Note_on_c, 4, 58, 56
9, 75479, Note_on_c, 4, 58, 0
9, 75480, Note_on_c, 4, 68, 56
9, 75599, Note_on_c, 4, 68, 0
9, 75600, Note_on_c, 4, 66, 56
9, 75719, Note_on_c, 4, 66, 0
9, 75720, Note_on_c, 4, 65, 56
9, 75831, Note_on_c, 4, 65, 0
9, 75840, Note_on_c, 4, 63, 56
9, 75959, Note_on_c, 4, 63, 0
9, 75960, Note_on_c, 4, 66, 56
9, 76071, Note_on_c, 4, 66, 0
9, 76080, Note_on_c, 4, 66, 56
9, 76319, Note_on_c, 4, 66, 0
9, 76320, Note_on_c, 4, 65, 56
9, 76671, Note_on_c, 4, 65, 0
9, 76680, Note_on_c, 4, 65, 56
9, 76791, Note_on_c, 4, 65, 0
9, 76800, Note_on_c, 4, 63, 56
9, 77039, Note_on_c, 4, 63, 0
9, 78480, Control_c, 4, 11, 89
9, 78720, Note_on_c, 4, 59, 56
9, 79191, Note_on_c, 4, 59, 0
9, 79200, Note_on_c, 4, 56, 56
9, 79304, Note_on_c, 4, 56, 0
9, 79320, Note_on_c, 4, 56, 56
9, 79424, Note_on_c, 4, 56, 0
9, 79440, Note_on_c, 4, 54, 56
9, 79544, Note_on_c, 4, 54, 0
9, 79560, Note_on_c, 4, 52, 56
9, 79649, Note_on_c, 4, 52, 0
9, 79680, Note_on_c, 4, 52, 56
9, 79680, Control_c, 4, 11, 89
9, 79693, Control_c, 4, 11, 91
9, 79707, Control_c, 4, 11, 93
9, 79720, Control_c, 4, 11, 95
9, 79733, Control_c, 4, 11, 97
9, 79747, Control_c, 4, 11, 100
9, 79760, Control_c, 4, 11, 102
9, 79773, Control_c, 4, 11, 104
9, 79787, Control_c, 4, 11, 106
9, 79799, Note_on_c, 4, 52, 0
9, 79800, Note_on_c, 4, 54, 56
9, 79800, Control_c, 4, 11, 108
9, 79813, Control_c, 4, 11, 110
9, 79827, Control_c, 4, 11, 112
9, 79840, Control_c, 4, 11, 114
9, 79853, Control_c, 4, 11, 116
9, 79867, Control_c, 4, 11, 119
9, 79880, Control_c, 4, 11, 121
9, 79893, Control_c, 4, 11, 123
9, 79907, Control_c, 4, 11, 127
9, 79911, Note_on_c, 4, 54, 0
9, 79920, Note_on_c, 4, 54, 56
9, 79920, Control_c, 4, 11, 127
9, 79933, Control_c, 4, 11, 125
9, 79947, Control_c, 4, 11, 123
9, 79960, Control_c, 4, 11, 121
9, 79973, Control_c, 4, 11, 119
9, 79987, Control_c, 4, 11, 116
9, 80000, Control_c, 4, 11, 114
9, 80013, Control_c, 4, 11, 112
9, 80027, Control_c, 4, 11, 110
9, 80031, Note_on_c, 4, 54, 0
9, 80040, Note_on_c, 4, 54, 56
9, 80040, Control_c, 4, 11, 108
9, 80053, Control_c, 4, 11, 106
9, 80067, Control_c, 4, 11, 104
9, 80080, Control_c, 4, 11, 102
9, 80093, Control_c, 4, 11, 100
9, 80107, Control_c, 4, 11, 97
9, 80120, Control_c, 4, 11, 95
9, 80133, Control_c, 4, 11, 93
9, 80147, Control_c, 4, 11, 91
9, 80151, Note_on_c, 4, 54, 0
9, 80160, Note_on_c, 4, 54, 56
9, 80391, Note_on_c, 4, 54, 0
9, 80400, Note_on_c, 4, 54, 56
9, 80631, Note_on_c, 4, 54, 0
9, 80640, Note_on_c, 4, 47, 56
9, 80640, Control_c, 4, 11, 89
9, 80653, Control_c, 4, 11, 91
9, 80667, Control_c, 4, 11, 93
9, 80680, Control_c, 4, 11, 95
9, 80693, Control_c, 4, 11, 97
9, 80707, Control_c, 4, 11, 100
9, 80720, Control_c, 4, 11, 102
9, 80733, Control_c, 4, 11, 104
9, 80747, Control_c, 4, 11, 106
9, 80760, Control_c, 4, 11, 108
9, 80773, Control_c, 4, 11, 110
9, 80787, Control_c, 4, 11, 112
9, 80800, Control_c, 4, 11, 114
9, 80813, Control_c, 4, 11, 116
9, 80827, Control_c, 4, 11, 119
9, 80840, Control_c, 4, 11, 121
9, 80853, Control_c, 4, 11, 123
9, 80867, Control_c, 4, 11, 125
9, 80880, Control_c, 4, 11, 127
9, 80880, Control_c, 4, 11, 127
9, 80893, Control_c, 4, 11, 125
9, 80907, Control_c, 4, 11, 123
9, 80920, Control_c, 4, 11, 121
9, 80933, Control_c, 4, 11, 119
9, 80947, Control_c, 4, 11, 116
9, 80960, Control_c, 4, 11, 114
9, 80973, Control_c, 4, 11, 112
9, 80987, Control_c, 4, 11, 110
9, 81000, Control_c, 4, 11, 108
9, 81013, Control_c, 4, 11, 106
9, 81027, Control_c, 4, 11, 104
9, 81040, Control_c, 4, 11, 102
9, 81053, Control_c, 4, 11, 100
9, 81067, Control_c, 4, 11, 97
9, 81080, Control_c, 4, 11, 95
9, 81093, Control_c, 4, 11, 93
9, 81107, Control_c, 4, 11, 91
9, 81111, Note_on_c, 4, 47, 0
9, 81120, Note_on_c, 4, 42, 56
9, 81359, Note_on_c, 4, 42, 0
9, 81360, Note_on_c, 4, 54, 56
9, 81591, Note_on_c, 4, 54, 0
9, 81600, Note_on_c, 4, 54, 56
9, 82551, Note_on_c, 4, 54, 0
9, 82560, Note_on_c, 4, 47, 56
9, 82799, Note_on_c, 4, 47, 0
9, 83280, Control_c, 4, 11, 69
9, 83400, Note_on_c, 4, 59, 68
9, 83511, Note_on_c, 4, 59, 0
9, 83520, Control_c, 4, 11, 69
9, 83520, Note_on_c, 4, 54, 68
9, 83553, Control_c, 4, 11, 70
9, 83586, Control_c, 4, 11, 71
9, 83619, Control_c, 4, 11, 72
9, 83652, Control_c, 4, 11, 73
9, 83686, Control_c, 4, 11, 74
9, 83719, Control_c, 4, 11, 75
9, 83751, Note_on_c, 4, 54, 0
9, 83752, Control_c, 4, 11, 76
9, 83760, Note_on_c, 4, 54, 68
9, 83785, Control_c, 4, 11, 77
9, 83818, Control_c, 4, 11, 78
9, 83851, Control_c, 4, 11, 79
9, 83884, Control_c, 4, 11, 80
9, 83917, Control_c, 4, 11, 81
9, 83950, Control_c, 4, 11, 82
9, 83983, Control_c, 4, 11, 83
9, 84017, Control_c, 4, 11, 84
9, 84050, Control_c, 4, 11, 85
9, 84083, Control_c, 4, 11, 86
9, 84116, Control_c, 4, 11, 87
9, 84149, Control_c, 4, 11, 88
9, 84182, Control_c, 4, 11, 89
9, 84215, Control_c, 4, 11, 90
9, 84231, Note_on_c, 4, 54, 0
9, 84240, Note_on_c, 4, 54, 68
9, 84248, Control_c, 4, 11, 91
9, 84281, Control_c, 4, 11, 92
9, 84314, Control_c, 4, 11, 93
9, 84348, Control_c, 4, 11, 94
9, 84381, Control_c, 4, 11, 95
9, 84414, Control_c, 4, 11, 96
9, 84447, Control_c, 4, 11, 97
9, 84480, Control_c, 4, 11, 98
9, 84513, Control_c, 4, 11, 99
9, 84546, Control_c, 4, 11, 100
9, 84579, Control_c, 4, 11, 101
9, 84612, Control_c, 4, 11, 102
9, 84646, Control_c, 4, 11, 103
9, 84679, Control_c, 4, 11, 104
9, 84711, Note_on_c, 4, 54, 0
9, 84712, Control_c, 4, 11, 105
9, 84720, Note_on_c, 4, 54, 68
9, 84720, Note_on_c, 4, 42, 68
9, 84745, Control_c, 4, 11, 106
9, 84778, Control_c, 4, 11, 107
9, 84811, Control_c, 4, 11, 108
9, 84844, Control_c, 4, 11, 109
9, 84877, Control_c, 4, 11, 110
9, 84910, Control_c, 4, 11, 111
9, 84943, Control_c, 4, 11, 112
9, 84977, Control_c, 4, 11, 113
9, 85010, Control_c, 4, 11, 114
9, 85043, Control_c, 4, 11, 115
9, 85076, Control_c, 4, 11, 116
9, 85109, Control_c, 4, 11, 117
9, 85142, Control_c, 4, 11, 118
9, 85175, Control_c, 4, 11, 119
9, 85191, Note_on_c, 4, 54, 0
9, 85191, Note_on_c, 4, 42, 0
9, 85200, Note_on_c, 4, 41, 68
9, 85200, Note_on_c, 4, 53, 68
9, 85208, Control_c, 4, 11, 120
9, 85241, Control_c, 4, 11, 121
9, 85274, Control_c, 4, 11, 122
9, 85308, Control_c, 4, 11, 123
9, 85341, Control_c, 4, 11, 124
9, 85374, Control_c, 4, 11, 125
9, 85407, Control_c, 4, 11, 126
9, 85440, Control_c, 4, 11, 79
9, 85791, Note_on_c, 4, 53, 0
9, 85800, Note_on_c, 4, 62, 68
9, 86159, Note_on_c, 4, 62, 0
9, 86160, Note_on_c, 4, 57, 68
9, 86879, Note_on_c, 4, 41, 0
9, 86879, Note_on_c, 4, 57, 0
9, 86880, Note_on_c, 4, 41, 68
9, 86880, Note_on_c, 4, 58, 68
9, 87599, Note_on_c, 4, 58, 0
9, 87600, Note_on_c, 4, 53, 68
9, 87951, Note_on_c, 4, 41, 0
9, 87960, Note_on_c, 4, 45, 68
9, 88199, Note_on_c, 4, 53, 0
9, 88200, Note_on_c, 4, 51, 68
9, 88311, Note_on_c, 4, 45, 0
9, 88311, Note_on_c, 4, 51, 0
9, 88320, Note_on_c, 4, 46, 68
9, 88320, Control_c, 4, 11, 87
9, 88320, Note_on_c, 4, 50, 68
9, 88338, Control_c, 4, 11, 88
9, 88356, Control_c, 4, 11, 89
9, 88374, Control_c, 4, 11, 90
9, 88392, Control_c, 4, 11, 91
9, 88410, Control_c, 4, 11, 92
9, 88428, Control_c, 4, 11, 93
9, 88446, Control_c, 4, 11, 94
9, 88464, Control_c, 4, 11, 95
9, 88482, Control_c, 4, 11, 96
9, 88500, Control_c, 4, 11, 97
9, 88518, Control_c, 4, 11, 98
9, 88536, Control_c, 4, 11, 99
9, 88554, Control_c, 4, 11, 100
9, 88572, Control_c, 4, 11, 101
9, 88590, Control_c, 4, 11, 102
9, 88608, Control_c, 4, 11, 103
9, 88626, Control_c, 4, 11, 104
9, 88644, Control_c, 4, 11, 105
9, 88662, Control_c, 4, 11, 106
9, 88679, Note_on_c, 4, 46, 0
9, 88679, Note_on_c, 4, 50, 0
9, 88680, Control_c, 4, 11, 107
9, 88680, Note_on_c, 4, 53, 68
9, 88680, Note_on_c, 4, 45, 68
9, 88698, Control_c, 4, 11, 108
9, 88716, Control_c, 4, 11, 109
9, 88734, Control_c, 4, 11, 110
9, 88752, Control_c, 4, 11, 111
9, 88770, Control_c, 4, 11, 112
9, 88788, Control_c, 4, 11, 113
9, 88806, Control_c, 4, 11, 114
9, 88824, Control_c, 4, 11, 115
9, 88842, Control_c, 4, 11, 116
9, 88860, Control_c, 4, 11, 117
9, 88878, Control_c, 4, 11, 118
9, 88896, Control_c, 4, 11, 119
9, 88914, Control_c, 4, 11, 120
9, 88932, Control_c, 4, 11, 121
9, 88950, Control_c, 4, 11, 122
9, 88968, Control_c, 4, 11, 123
9, 88986, Control_c, 4, 11, 124
9, 89004, Control_c, 4, 11, 125
9, 89022, Control_c, 4, 11, 126
9, 89039, Note_on_c, 4, 53, 0
9, 89039, Note_on_c, 4, 45, 0
9, 89040, Note_on_c, 4, 58, 68
9, 89040, Control_c, 4, 11, 127
9, 89040, Note_on_c, 4, 43, 68
9, 89058, Control_c, 4, 11, 126
9, 89076, Control_c, 4, 11, 125
9, 89094, Control_c, 4, 11, 124
9, 89112, Control_c, 4, 11, 123
9, 89130, Control_c, 4, 11, 122
9, 89148, Control_c, 4, 11, 121
9, 89166, Control_c, 4, 11, 120
9, 89184, Control_c, 4, 11, 119
9, 89202, Control_c, 4, 11, 118
9, 89220, Control_c, 4, 11, 117
9, 89238, Control_c, 4, 11, 116
9, 89256, Control_c, 4, 11, 115
9, 89274, Control_c, 4, 11, 114
9, 89292, Control_c, 4, 11, 113
9, 89310, Control_c, 4, 11, 112
9, 89328, Control_c, 4, 11, 111
9, 89346, Control_c, 4, 11, 110
9, 89364, Control_c, 4, 11, 109
9, 89382, Control_c, 4, 11, 108
9, 89400, Control_c, 4, 11, 107
9, 89418, Control_c, 4, 11, 106
9, 89436, Control_c, 4, 11, 105
9, 89454, Control_c, 4, 11, 104
9, 89472, Control_c, 4, 11, 103
9, 89490, Control_c, 4, 11, 102
9, 89508, Control_c, 4, 11, 101
9, 89526, Control_c, 4, 11, 100
9, 89544, Control_c, 4, 11, 99
9, 89562, Control_c, 4, 11, 98
9, 89580, Control_c, 4, 11, 97
9, 89598, Control_c, 4, 11, 96
9, 89616, Control_c, 4, 11, 95
9, 89634, Control_c, 4, 11, 94
9, 89639, Note_on_c, 4, 58, 0
9, 89640, Note_on_c, 4, 60, 68
9, 89652, Control_c, 4, 11, 93
9, 89670, Control_c, 4, 11, 92
9, 89688, Control_c, 4, 11, 91
9, 89706, Control_c, 4, 11, 90
9, 89724, Control_c, 4, 11, 89
9, 89742, Control_c, 4, 11, 88
9, 89751, Note_on_c, 4, 43, 0
9, 89751, Note_on_c, 4, 60, 0
9, 89760, Note_on_c, 4, 62, 68
9, 89760, Note_on_c, 4, 41, 68
9, 89778, Control_c, 4, 11, 88
9, 89796, Control_c, 4, 11, 89
9, 89814, Control_c, 4, 11, 90
9, 89832, Control_c, 4, 11, 91
9, 89850, Control_c, 4, 11, 92
9, 89868, Control_c, 4, 11, 93
9, 89886, Control_c, 4, 11, 94
9, 89904, Control_c, 4, 11, 95
9, 89922, Control_c, 4, 11, 96
9, 89940, Control_c, 4, 11, 97
9, 89958, Control_c, 4, 11, 98
9, 89976, Control_c, 4, 11, 99
9, 89994, Control_c, 4, 11, 100
9, 90012, Control_c, 4, 11, 101
9, 90030, Control_c, 4, 11, 102
9, 90048, Control_c, 4, 11, 103
9, 90066, Control_c, 4, 11, 104
9, 90084, Control_c, 4, 11, 105
9, 90102, Control_c, 4, 11, 106
9, 90111, Note_on_c, 4, 41, 0
9, 90119, Note_on_c, 4, 62, 0
9, 90120, Note_on_c, 4, 53, 68
9, 90120, Note_on_c, 4, 65, 68
9, 90120, Control_c, 4, 11, 107
9, 90138, Control_c, 4, 11, 108
9, 90156, Control_c, 4, 11, 109
9, 90174, Control_c, 4, 11, 110
9, 90192, Control_c, 4, 11, 111
9, 90210, Control_c, 4, 11, 112
9, 90228, Control_c, 4, 11, 113
9, 90246, Control_c, 4, 11, 114
9, 90264, Control_c, 4, 11, 115
9, 90282, Control_c, 4, 11, 116
9, 90300, Control_c, 4, 11, 117
9, 90318, Control_c, 4, 11, 118
9, 90336, Control_c, 4, 11, 119
9, 90354, Control_c, 4, 11, 120
9, 90359, Note_on_c, 4, 65, 0
9, 90360, Note_on_c, 4, 63, 68
9, 90372, Control_c, 4, 11, 121
9, 90390, Control_c, 4, 11, 122
9, 90408, Control_c, 4, 11, 123
9, 90426, Control_c, 4, 11, 124
9, 90444, Control_c, 4, 11, 125
9, 90462, Control_c, 4, 11, 126
9, 90471, Note_on_c, 4, 53, 0
9, 90471, Note_on_c, 4, 63, 0
9, 90480, Control_c, 4, 11, 127
9, 90480, Note_on_c, 4, 53, 68
9, 90480, Note_on_c, 4, 60, 68
9, 90498, Control_c, 4, 11, 126
9, 90516, Control_c, 4, 11, 125
9, 90534, Control_c, 4, 11, 124
9, 90552, Control_c, 4, 11, 123
9, 90570, Control_c, 4, 11, 122
9, 90588, Control_c, 4, 11, 121
9, 90606, Control_c, 4, 11, 120
9, 90624, Control_c, 4, 11, 119
9, 90642, Control_c, 4, 11, 118
9, 90660, Control_c, 4, 11, 117
9, 90678, Control_c, 4, 11, 116
9, 90696, Control_c, 4, 11, 115
9, 90714, Control_c, 4, 11, 114
9, 90732, Control_c, 4, 11, 113
9, 90750, Control_c, 4, 11, 112
9, 90768, Control_c, 4, 11, 111
9, 90786, Control_c, 4, 11, 110
9, 90804, Control_c, 4, 11, 109
9, 90822, Control_c, 4, 11, 108
9, 90831, Note_on_c, 4, 53, 0
9, 90831, Note_on_c, 4, 60, 0
9, 90840, Note_on_c, 4, 57, 68
9, 90840, Note_on_c, 4, 60, 68
9, 90840, Control_c, 4, 11, 107
9, 90858, Control_c, 4, 11, 106
9, 90876, Control_c, 4, 11, 105
9, 90894, Control_c, 4, 11, 104
9, 90912, Control_c, 4, 11, 103
9, 90930, Control_c, 4, 11, 102
9, 90948, Control_c, 4, 11, 101
9, 90966, Control_c, 4, 11, 100
9, 90984, Control_c, 4, 11, 99
9, 91002, Control_c, 4, 11, 98
9, 91020, Control_c, 4, 11, 97
9, 91038, Control_c, 4, 11, 96
9, 91056, Control_c, 4, 11, 95
9, 91074, Control_c, 4, 11, 94
9, 91092, Control_c, 4, 11, 93
9, 91110, Control_c, 4, 11, 92
9, 91128, Control_c, 4, 11, 91
9, 91146, Control_c, 4, 11, 90
9, 91164, Control_c, 4, 11, 89
9, 91182, Control_c, 4, 11, 88
9, 91199, Note_on_c, 4, 57, 0
9, 91199, Note_on_c, 4, 60, 0
9, 91200, Note_on_c, 4, 62, 68
9, 91200, Note_on_c, 4, 58, 68
9, 91227, Control_c, 4, 11, 88
9, 91254, Control_c, 4, 11, 89
9, 91281, Control_c, 4, 11, 90
9, 91308, Control_c, 4, 11, 91
9, 91335, Control_c, 4, 11, 92
9, 91362, Control_c, 4, 11, 93
9, 91389, Control_c, 4, 11, 94
9, 91416, Control_c, 4, 11, 95
9, 91443, Control_c, 4, 11, 96
9, 91470, Control_c, 4, 11, 97
9, 91497, Control_c, 4, 11, 98
9, 91524, Control_c, 4, 11, 99
9, 91551, Control_c, 4, 11, 100
9, 91559, Note_on_c, 4, 62, 0
9, 91559, Note_on_c, 4, 58, 0
9, 91560, Note_on_c, 4, 62, 68
9, 91560, Note_on_c, 4, 65, 68
9, 91578, Control_c, 4, 11, 101
9, 91605, Control_c, 4, 11, 102
9, 91632, Control_c, 4, 11, 103
9, 91659, Control_c, 4, 11, 104
9, 91686, Control_c, 4, 11, 105
9, 91713, Control_c, 4, 11, 106
9, 91740, Control_c, 4, 11, 107
9, 91767, Control_c, 4, 11, 108
9, 91794, Control_c, 4, 11, 109
9, 91799, Note_on_c, 4, 62, 0
9, 91799, Note_on_c, 4, 65, 0
9, 91800, Note_on_c, 4, 63, 68
9, 91800, Note_on_c, 4, 60, 68
9, 91821, Control_c, 4, 11, 110
9, 91848, Control_c, 4, 11, 111
9, 91875, Control_c, 4, 11, 112
9, 91902, Control_c, 4, 11, 113
9, 91911, Note_on_c, 4, 63, 0
9, 91911, Note_on_c, 4, 60, 0
9, 91920, Note_on_c, 4, 60, 68
9, 91929, Control_c, 4, 11, 114
9, 91956, Control_c, 4, 11, 115
9, 91983, Control_c, 4, 11, 116
9, 92010, Control_c, 4, 11, 117
9, 92037, Control_c, 4, 11, 118
9, 92064, Control_c, 4, 11, 119
9, 92091, Control_c, 4, 11, 120
9, 92118, Control_c, 4, 11, 121
9, 92145, Control_c, 4, 11, 122
9, 92172, Control_c, 4, 11, 123
9, 92199, Control_c, 4, 11, 124
9, 92226, Control_c, 4, 11, 125
9, 92253, Control_c, 4, 11, 126
9, 92271, Note_on_c, 4, 60, 0
9, 92280, Note_on_c, 4, 51, 68
9, 92280, Control_c, 4, 11, 127
9, 92280, Note_on_c, 4, 60, 68
9, 92295, Control_c, 4, 11, 125
9, 92310, Control_c, 4, 11, 124
9, 92325, Control_c, 4, 11, 122
9, 92340, Control_c, 4, 11, 121
9, 92355, Control_c, 4, 11, 119
9, 92370, Control_c, 4, 11, 118
9, 92385, Control_c, 4, 11, 116
9, 92400, Control_c, 4, 11, 114
9, 92415, Control_c, 4, 11, 113
9, 92430, Control_c, 4, 11, 111
9, 92445, Control_c, 4, 11, 110
9, 92460, Control_c, 4, 11, 108
9, 92475, Control_c, 4, 11, 106
9, 92490, Control_c, 4, 11, 105
9, 92505, Control_c, 4, 11, 103
9, 92520, Control_c, 4, 11, 102
9, 92535, Control_c, 4, 11, 100
9, 92550, Control_c, 4, 11, 99
9, 92565, Control_c, 4, 11, 97
9, 92580, Control_c, 4, 11, 95
9, 92595, Control_c, 4, 11, 94
9, 92610, Control_c, 4, 11, 92
9, 92625, Control_c, 4, 11, 91
9, 92631, Note_on_c, 4, 51, 0
9, 92631, Note_on_c, 4, 60, 0
9, 92638, Control_c, 4, 11, 87
9, 92640, Note_on_c, 4, 51, 68
9, 92640, Note_on_c, 4, 60, 68
9, 93351, Note_on_c, 4, 51, 0
9, 93359, Note_on_c, 4, 60, 0
9, 93360, Note_on_c, 4, 50, 68
9, 93360, Note_on_c, 4, 58, 68
9, 93951, Note_on_c, 4, 58, 0
9, 93960, Note_on_c, 4, 65, 68
9, 94071, Note_on_c, 4, 50, 0
9, 94071, Note_on_c, 4, 65, 0
9, 94080, Note_on_c, 4, 45, 68
9, 94080, Note_on_c, 4, 65, 68
9, 94439, Note_on_c, 4, 65, 0
9, 94440, Note_on_c, 4, 63, 68
9, 94799, Note_on_c, 4, 45, 0
9, 94800, Note_on_c, 4, 46, 68
9, 95151, Note_on_c, 4, 46, 0
9, 95159, Note_on_c, 4, 63, 0
9, 95160, Note_on_c, 4, 55, 68
9, 95160, Note_on_c, 4, 62, 68
9, 95391, Note_on_c, 4, 55, 0
9, 95400, Note_on_c, 4, 43, 68
9, 95511, Note_on_c, 4, 62, 0
9, 95511, Note_on_c, 4, 43, 0
9, 95520, Note_on_c, 4, 39, 68
9, 95520, Note_on_c, 4, 60, 68
9, 95871, Note_on_c, 4, 39, 0
9, 95880, Note_on_c, 4, 43, 68
9, 96119, Note_on_c, 4, 60, 0
9, 96120, Note_on_c, 4, 62, 68
9, 96179, Note_on_c, 4, 62, 0
9, 96180, Note_on_c, 4, 63, 68
9, 96231, Note_on_c, 4, 43, 0
9, 96231, Note_on_c, 4, 63, 0
9, 96240, Note_on_c, 4, 41, 68
9, 96240, Note_on_c, 4, 62, 68
9, 96591, Note_on_c, 4, 41, 0
9, 96599, Note_on_c, 4, 62, 0
9, 96600, Note_on_c, 4, 60, 68
9, 96600, Note_on_c, 4, 41, 68
9, 96839, Note_on_c, 4, 60, 0
9, 96840, Note_on_c, 4, 61, 68
9, 96951, Note_on_c, 4, 61, 0
9, 96960, Note_on_c, 4, 61, 68
9, 96960, Control_c, 4, 11, 87
9, 96978, Control_c, 4, 11, 88
9, 96996, Control_c, 4, 11, 89
9, 97014, Control_c, 4, 11, 90
9, 97032, Control_c, 4, 11, 91
9, 97050, Control_c, 4, 11, 92
9, 97068, Control_c, 4, 11, 93
9, 97086, Control_c, 4, 11, 94
9, 97104, Control_c, 4, 11, 95
9, 97122, Control_c, 4, 11, 96
9, 97140, Control_c, 4, 11, 97
9, 97158, Control_c, 4, 11, 98
9, 97176, Control_c, 4, 11, 99
9, 97194, Control_c, 4, 11, 100
9, 97212, Control_c, 4, 11, 101
9, 97230, Control_c, 4, 11, 102
9, 97248, Control_c, 4, 11, 103
9, 97266, Control_c, 4, 11, 104
9, 97284, Control_c, 4, 11, 105
9, 97302, Control_c, 4, 11, 106
9, 97320, Control_c, 4, 11, 107
9, 97338, Control_c, 4, 11, 108
9, 97356, Control_c, 4, 11, 109
9, 97374, Control_c, 4, 11, 110
9, 97392, Control_c, 4, 11, 111
9, 97410, Control_c, 4, 11, 112
9, 97428, Control_c, 4, 11, 113
9, 97446, Control_c, 4, 11, 114
9, 97464, Control_c, 4, 11, 115
9, 97482, Control_c, 4, 11, 116
9, 97500, Control_c, 4, 11, 117
9, 97518, Control_c, 4, 11, 118
9, 97536, Control_c, 4, 11, 119
9, 97554, Control_c, 4, 11, 120
9, 97559, Note_on_c, 4, 61, 0
9, 97560, Note_on_c, 4, 62, 68
9, 97572, Control_c, 4, 11, 121
9, 97590, Control_c, 4, 11, 122
9, 97608, Control_c, 4, 11, 123
9, 97626, Control_c, 4, 11, 124
9, 97644, Control_c, 4, 11, 125
9, 97662, Control_c, 4, 11, 126
9, 97671, Note_on_c, 4, 41, 0
9, 97671, Note_on_c, 4, 62, 0
9, 97680, Note_on_c, 4, 62, 68
9, 97680, Note_on_c, 4, 46, 68
9, 97680, Control_c, 4, 11, 127
9, 97698, Control_c, 4, 11, 126
9, 97716, Control_c, 4, 11, 125
9, 97734, Control_c, 4, 11, 124
9, 97752, Control_c, 4, 11, 123
9, 97770, Control_c, 4, 11, 122
9, 97788, Control_c, 4, 11, 121
9, 97791, Note_on_c, 4, 62, 0
9, 97799, Note_on_c, 4, 46, 0
9, 97800, Note_on_c, 4, 62, 68
9, 97800, Note_on_c, 4, 58, 68
9, 97806, Control_c, 4, 11, 120
9, 97824, Control_c, 4, 11, 119
9, 97842, Control_c, 4, 11, 118
9, 97860, Control_c, 4, 11, 117
9, 97878, Control_c, 4, 11, 116
9, 97896, Control_c, 4, 11, 115
9, 97911, Note_on_c, 4, 62, 0
9, 97911, Note_on_c, 4, 58, 0
9, 97914, Control_c, 4, 11, 114
9, 97920, Note_on_c, 4, 58, 68
9, 97920, Note_on_c, 4, 62, 68
9, 97932, Control_c, 4, 11, 113
9, 97950, Control_c, 4, 11, 112
9, 97968, Control_c, 4, 11, 111
9, 97986, Control_c, 4, 11, 110
9, 98004, Control_c, 4, 11, 109
9, 98022, Control_c, 4, 11, 108
9, 98031, Note_on_c, 4, 58, 0
9, 98031, Note_on_c, 4, 62, 0
9, 98040, Note_on_c, 4, 57, 68
9, 98040, Note_on_c, 4, 60, 68
9, 98040, Control_c, 4, 11, 107
9, 98058, Control_c, 4, 11, 106
9, 98076, Control_c, 4, 11, 105
9, 98094, Control_c, 4, 11, 104
9, 98112, Control_c, 4, 11, 103
9, 98130, Control_c, 4, 11, 102
9, 98148, Control_c, 4, 11, 101
9, 98166, Control_c, 4, 11, 100
9, 98184, Control_c, 4, 11, 99
9, 98202, Control_c, 4, 11, 98
9, 98220, Control_c, 4, 11, 97
9, 98238, Control_c, 4, 11, 96
9, 98256, Control_c, 4, 11, 95
9, 98274, Control_c, 4, 11, 94
9, 98279, Note_on_c, 4, 57, 0
9, 98279, Note_on_c, 4, 60, 0
9, 98280, Note_on_c, 4, 57, 68
9, 98280, Note_on_c, 4, 53, 68
9, 98292, Control_c, 4, 11, 93
9, 98310, Control_c, 4, 11, 92
9, 98328, Control_c, 4, 11, 91
9, 98346, Control_c, 4, 11, 90
9, 98364, Control_c, 4, 11, 89
9, 98382, Control_c, 4, 11, 87
9, 98391, Note_on_c, 4, 57, 0
9, 98391, Note_on_c, 4, 53, 0
9, 98400, Control_c, 4, 11, 87
9, 98400, Note_on_c, 4, 53, 68
9, 98400, Note_on_c, 4, 57, 68
9, 98418, Control_c, 4, 11, 88
9, 98436, Control_c, 4, 11, 89
9, 98454, Control_c, 4, 11, 90
9, 98472, Control_c, 4, 11, 91
9, 98490, Control_c, 4, 11, 92
9, 98508, Control_c, 4, 11, 93
9, 98526, Control_c, 4, 11, 94
9, 98544, Control_c, 4, 11, 95
9, 98562, Control_c, 4, 11, 96
9, 98580, Control_c, 4, 11, 97
9, 98598, Control_c, 4, 11, 98
9, 98616, Control_c, 4, 11, 99
9, 98634, Control_c, 4, 11, 100
9, 98652, Control_c, 4, 11, 101
9, 98670, Control_c, 4, 11, 102
9, 98688, Control_c, 4, 11, 103
9, 98706, Control_c, 4, 11, 104
9, 98724, Control_c, 4, 11, 105
9, 98742, Control_c, 4, 11, 106
9, 98760, Control_c, 4, 11, 107
9, 98778, Control_c, 4, 11, 108
9, 98796, Control_c, 4, 11, 109
9, 98814, Control_c, 4, 11, 110
9, 98832, Control_c, 4, 11, 111
9, 98850, Control_c, 4, 11, 112
9, 98868, Control_c, 4, 11, 113
9, 98886, Control_c, 4, 11, 114
9, 98904, Control_c, 4, 11, 115
9, 98922, Control_c, 4, 11, 116
9, 98940, Control_c, 4, 11, 117
9, 98958, Control_c, 4, 11, 118
9, 98976, Control_c, 4, 11, 119
9, 98994, Control_c, 4, 11, 120
9, 98999, Note_on_c, 4, 53, 0
9, 98999, Note_on_c, 4, 57, 0
9, 99000, Note_on_c, 4, 53, 68
9, 99000, Note_on_c, 4, 58, 68
9, 99012, Control_c, 4, 11, 121
9, 99030, Control_c, 4, 11, 122
9, 99048, Control_c, 4, 11, 123
9, 99066, Control_c, 4, 11, 124
9, 99084, Control_c, 4, 11, 125
9, 99102, Control_c, 4, 11, 126
9, 99111, Note_on_c, 4, 53, 0
9, 99111, Note_on_c, 4, 58, 0
9, 99120, Note_on_c, 4, 46, 68
9, 99120, Control_c, 4, 11, 127
9, 99120, Note_on_c, 4, 58, 68
9, 99135, Control_c, 4, 11, 125
9, 99150, Control_c, 4, 11, 124
9, 99165, Control_c, 4, 11, 122
9, 99180, Control_c, 4, 11, 120
9, 99195, Control_c, 4, 11, 119
9, 99210, Control_c, 4, 11, 117
9, 99225, Control_c, 4, 11, 115
9, 99240, Control_c, 4, 11, 114
9, 99255, Control_c, 4, 11, 112
9, 99270, Control_c, 4, 11, 110
9, 99285, Control_c, 4, 11, 109
9, 99300, Control_c, 4, 11, 107
9, 99315, Control_c, 4, 11, 105
9, 99330, Control_c, 4, 11, 104
9, 99345, Control_c, 4, 11, 102
9, 99360, Control_c, 4, 11, 100
9, 99375, Control_c, 4, 11, 99
9, 99390, Control_c, 4, 11, 97
9, 99405, Control_c, 4, 11, 95
9, 99420, Control_c, 4, 11, 94
9, 99435, Control_c, 4, 11, 92
9, 99450, Control_c, 4, 11, 90
9, 99465, Control_c, 4, 11, 89
9, 99471, Note_on_c, 4, 46, 0
9, 99471, Note_on_c, 4, 58, 0
9, 99480, Note_on_c, 4, 46, 68
9, 99480, Note_on_c, 4, 62, 68
9, 99831, Note_on_c, 4, 46, 0
9, 99839, Note_on_c, 4, 62, 0
9, 99840, Note_on_c, 4, 51, 68
9, 99840, Note_on_c, 4, 60, 68
9, 100551, Note_on_c, 4, 51, 0
9, 100559, Note_on_c, 4, 60, 0
9, 100560, Note_on_c, 4, 50, 68
9, 100560, Note_on_c, 4, 58, 68
9, 101159, Note_on_c, 4, 58, 0
9, 101160, Note_on_c, 4, 65, 68
9, 101271, Note_on_c, 4, 50, 0
9, 101271, Note_on_c, 4, 65, 0
9, 101280, Note_on_c, 4, 65, 68
9, 101280, Note_on_c, 4, 48, 68
9, 101280, Control_c, 4, 11, 87
9, 101298, Control_c, 4, 11, 88
9, 101316, Control_c, 4, 11, 89
9, 101334, Control_c, 4, 11, 90
9, 101352, Control_c, 4, 11, 91
9, 101370, Control_c, 4, 11, 92
9, 101388, Control_c, 4, 11, 93
9, 101406, Control_c, 4, 11, 94
9, 101424, Control_c, 4, 11, 95
9, 101442, Control_c, 4, 11, 96
9, 101460, Control_c, 4, 11, 97
9, 101478, Control_c, 4, 11, 98
9, 101496, Control_c, 4, 11, 99
9, 101514, Control_c, 4, 11, 100
9, 101532, Control_c, 4, 11, 101
9, 101550, Control_c, 4, 11, 102
9, 101568, Control_c, 4, 11, 103
9, 101586, Control_c, 4, 11, 104
9, 101604, Control_c, 4, 11, 105
9, 101622, Control_c, 4, 11, 106
9, 101639, Note_on_c, 4, 65, 0
9, 101640, Note_on_c, 4, 63, 68
9, 101640, Control_c, 4, 11, 107
9, 101658, Control_c, 4, 11, 108
9, 101676, Control_c, 4, 11, 109
9, 101694, Control_c, 4, 11, 110
9, 101712, Control_c, 4, 11, 111
9, 101730, Control_c, 4, 11, 112
9, 101748, Control_c, 4, 11, 113
9, 101766, Control_c, 4, 11, 114
9, 101784, Control_c, 4, 11, 115
9, 101802, Control_c, 4, 11, 116
9, 101820, Control_c, 4, 11, 117
9, 101838, Control_c, 4, 11, 118
9, 101856, Control_c, 4, 11, 119
9, 101874, Control_c, 4, 11, 120
9, 101892, Control_c, 4, 11, 121
9, 101910, Control_c, 4, 11, 122
9, 101928, Control_c, 4, 11, 123
9, 101946, Control_c, 4, 11, 124
9, 101964, Control_c, 4, 11, 125
9, 101982, Control_c, 4, 11, 126
9, 102000, Control_c, 4, 11, 127
9, 102015, Control_c, 4, 11, 125
9, 102030, Control_c, 4, 11, 124
9, 102045, Control_c, 4, 11, 122
9, 102060, Control_c, 4, 11, 120
9, 102075, Control_c, 4, 11, 119
9, 102090, Control_c, 4, 11, 117
9, 102105, Control_c, 4, 11, 115
9, 102120, Control_c, 4, 11, 114
9, 102135, Control_c, 4, 11, 112
9, 102150, Control_c, 4, 11, 110
9, 102165, Control_c, 4, 11, 109
9, 102180, Control_c, 4, 11, 107
9, 102195, Control_c, 4, 11, 105
9, 102210, Control_c, 4, 11, 104
9, 102225, Control_c, 4, 11, 102
9, 102240, Control_c, 4, 11, 100
9, 102255, Control_c, 4, 11, 99
9, 102270, Control_c, 4, 11, 97
9, 102285, Control_c, 4, 11, 95
9, 102300, Control_c, 4, 11, 94
9, 102315, Control_c, 4, 11, 92
9, 102330, Control_c, 4, 11, 90
9, 102345, Control_c, 4, 11, 89
9, 102359, Note_on_c, 4, 48, 0
9, 102359, Note_on_c, 4, 63, 0
9, 102360, Note_on_c, 4, 46, 68
9, 102360, Note_on_c, 4, 62, 68
9, 102591, Note_on_c, 4, 46, 0
9, 102591, Note_on_c, 4, 62, 0
9, 102600, Note_on_c, 4, 50, 68
9, 102600, Note_on_c, 4, 53, 68
9, 102711, Note_on_c, 4, 50, 0
9, 102711, Note_on_c, 4, 53, 0
9, 102720, Note_on_c, 4, 48, 68
9, 102720, Note_on_c, 4, 55, 68
9, 102720, Control_c, 4, 11, 87
9, 102738, Control_c, 4, 11, 88
9, 102756, Control_c, 4, 11, 89
9, 102774, Control_c, 4, 11, 90
9, 102792, Control_c, 4, 11, 91
9, 102810, Control_c, 4, 11, 92
9, 102828, Control_c, 4, 11, 93
9, 102846, Control_c, 4, 11, 94
9, 102864, Control_c, 4, 11, 95
9, 102882, Control_c, 4, 11, 96
9, 102900, Control_c, 4, 11, 97
9, 102918, Control_c, 4, 11, 98
9, 102936, Control_c, 4, 11, 99
9, 102954, Control_c, 4, 11, 100
9, 102972, Control_c, 4, 11, 101
9, 102990, Control_c, 4, 11, 102
9, 103008, Control_c, 4, 11, 103
9, 103026, Control_c, 4, 11, 104
9, 103044, Control_c, 4, 11, 105
9, 103062, Control_c, 4, 11, 106
9, 103071, Note_on_c, 4, 55, 0
9, 103080, Note_on_c, 4, 57, 68
9, 103080, Control_c, 4, 11, 107
9, 103098, Control_c, 4, 11, 108
9, 103116, Control_c, 4, 11, 109
9, 103134, Control_c, 4, 11, 110
9, 103152, Control_c, 4, 11, 111
9, 103170, Control_c, 4, 11, 112
9, 103188, Control_c, 4, 11, 113
9, 103206, Control_c, 4, 11, 114
9, 103224, Control_c, 4, 11, 115
9, 103242, Control_c, 4, 11, 116
9, 103260, Control_c, 4, 11, 117
9, 103278, Control_c, 4, 11, 118
9, 103296, Control_c, 4, 11, 119
9, 103314, Control_c, 4, 11, 120
9, 103332, Control_c, 4, 11, 121
9, 103350, Control_c, 4, 11, 122
9, 103368, Control_c, 4, 11, 123
9, 103386, Control_c, 4, 11, 124
9, 103404, Control_c, 4, 11, 125
9, 103422, Control_c, 4, 11, 126
9, 103431, Note_on_c, 4, 48, 0
9, 103440, Control_c, 4, 11, 127
9, 103440, Note_on_c, 4, 53, 68
9, 103455, Control_c, 4, 11, 125
9, 103470, Control_c, 4, 11, 124
9, 103485, Control_c, 4, 11, 122
9, 103500, Control_c, 4, 11, 120
9, 103515, Control_c, 4, 11, 119
9, 103530, Control_c, 4, 11, 117
9, 103545, Control_c, 4, 11, 115
9, 103560, Control_c, 4, 11, 114
9, 103575, Control_c, 4, 11, 112
9, 103590, Control_c, 4, 11, 110
9, 103605, Control_c, 4, 11, 109
9, 103620, Control_c, 4, 11, 107
9, 103635, Control_c, 4, 11, 105
9, 103650, Control_c, 4, 11, 104
9, 103665, Control_c, 4, 11, 102
9, 103679, Note_on_c, 4, 57, 0
9, 103679, Note_on_c, 4, 53, 0
9, 103680, Note_on_c, 4, 58, 68
9, 103680, Control_c, 4, 11, 100
9, 103680, Note_on_c, 4, 55, 68
9, 103695, Control_c, 4, 11, 99
9, 103710, Control_c, 4, 11, 97
9, 103725, Control_c, 4, 11, 95
9, 103740, Control_c, 4, 11, 94
9, 103755, Control_c, 4, 11, 92
9, 103770, Control_c, 4, 11, 90
9, 103785, Control_c, 4, 11, 89
9, 103791, Note_on_c, 4, 58, 0
9, 103791, Note_on_c, 4, 55, 0
9, 103800, Note_on_c, 4, 55, 68
9, 103800, Control_c, 4, 11, 89
9, 103800, Note_on_c, 4, 51, 68
9, 103847, Control_c, 4, 11, 90
9, 103895, Control_c, 4, 11, 91
9, 103942, Control_c, 4, 11, 92
9, 103989, Control_c, 4, 11, 93
9, 104031, Note_on_c, 4, 51, 0
9, 104037, Control_c, 4, 11, 94
9, 104040, Note_on_c, 4, 39, 68
9, 104084, Control_c, 4, 11, 95
9, 104132, Control_c, 4, 11, 96
9, 104151, Note_on_c, 4, 55, 0
9, 104151, Note_on_c, 4, 39, 0
9, 104160, Note_on_c, 4, 55, 68
9, 104160, Note_on_c, 4, 39, 68
9, 104179, Control_c, 4, 11, 97
9, 104226, Control_c, 4, 11, 98
9, 104274, Control_c, 4, 11, 99
9, 104321, Control_c, 4, 11, 100
9, 104368, Control_c, 4, 11, 101
9, 104416, Control_c, 4, 11, 102
9, 104463, Control_c, 4, 11, 103
9, 104511, Control_c, 4, 11, 104
9, 104558, Control_c, 4, 11, 105
9, 104605, Control_c, 4, 11, 106
9, 104653, Control_c, 4, 11, 107
9, 104700, Control_c, 4, 11, 108
9, 104747, Control_c, 4, 11, 109
9, 104795, Control_c, 4, 11, 110
9, 104842, Control_c, 4, 11, 111
9, 104871, Note_on_c, 4, 39, 0
9, 104880, Note_on_c, 4, 40, 68
9, 104889, Control_c, 4, 11, 112
9, 104937, Control_c, 4, 11, 113
9, 104984, Control_c, 4, 11, 114
9, 105032, Control_c, 4, 11, 115
9, 105079, Control_c, 4, 11, 116
9, 105111, Note_on_c, 4, 55, 0
9, 105120, Note_on_c, 4, 55, 68
9, 105126, Control_c, 4, 11, 117
9, 105174, Control_c, 4, 11, 118
9, 105221, Control_c, 4, 11, 119
9, 105231, Note_on_c, 4, 55, 0
9, 105240, Note_on_c, 4, 55, 68
9, 105268, Control_c, 4, 11, 120
9, 105316, Control_c, 4, 11, 121
9, 105359, Note_on_c, 4, 55, 0
9, 105360, Note_on_c, 4, 57, 68
9, 105363, Control_c, 4, 11, 122
9, 105411, Control_c, 4, 11, 123
9, 105458, Control_c, 4, 11, 124
9, 105479, Note_on_c, 4, 57, 0
9, 105480, Note_on_c, 4, 58, 68
9, 105505, Control_c, 4, 11, 125
9, 105553, Control_c, 4, 11, 127
9, 105591, Note_on_c, 4, 40, 0
9, 105591, Note_on_c, 4, 58, 0
9, 105600, Note_on_c, 4, 58, 68
9, 105600, Note_on_c, 4, 41, 68
9, 105600, Control_c, 4, 11, 127
9, 105618, Control_c, 4, 11, 126
9, 105636, Control_c, 4, 11, 125
9, 105654, Control_c, 4, 11, 124
9, 105672, Control_c, 4, 11, 123
9, 105690, Control_c, 4, 11, 122
9, 105708, Control_c, 4, 11, 121
9, 105726, Control_c, 4, 11, 120
9, 105744, Control_c, 4, 11, 119
9, 105762, Control_c, 4, 11, 118
9, 105780, Control_c, 4, 11, 117
9, 105798, Control_c, 4, 11, 116
9, 105816, Control_c, 4, 11, 115
9, 105834, Control_c, 4, 11, 114
9, 105852, Control_c, 4, 11, 113
9, 105870, Control_c, 4, 11, 112
9, 105888, Control_c, 4, 11, 111
9, 105906, Control_c, 4, 11, 110
9, 105924, Control_c, 4, 11, 109
9, 105942, Control_c, 4, 11, 108
9, 105960, Control_c, 4, 11, 107
9, 105978, Control_c, 4, 11, 106
9, 105996, Control_c, 4, 11, 105
9, 106014, Control_c, 4, 11, 104
9, 106032, Control_c, 4, 11, 103
9, 106050, Control_c, 4, 11, 102
9, 106068, Control_c, 4, 11, 101
9, 106086, Control_c, 4, 11, 100
9, 106104, Control_c, 4, 11, 99
9, 106122, Control_c, 4, 11, 98
9, 106140, Control_c, 4, 11, 97
9, 106158, Control_c, 4, 11, 96
9, 106176, Control_c, 4, 11, 95
9, 106191, Note_on_c, 4, 58, 0
9, 106194, Control_c, 4, 11, 94
9, 106200, Note_on_c, 4, 62, 68
9, 106212, Control_c, 4, 11, 93
9, 106230, Control_c, 4, 11, 92
9, 106248, Control_c, 4, 11, 91
9, 106266, Control_c, 4, 11, 90
9, 106284, Control_c, 4, 11, 89
9, 106311, Note_on_c, 4, 41, 0
9, 106319, Note_on_c, 4, 62, 0
9, 106320, Note_on_c, 4, 65, 68
9, 106320, Note_on_c, 4, 41, 68
9, 106679, Note_on_c, 4, 65, 0
9, 106680, Note_on_c, 4, 63, 68
9, 106919, Note_on_c, 4, 63, 0
9, 106920, Note_on_c, 4, 60, 68
9, 107031, Note_on_c, 4, 60, 0
9, 107040, Note_on_c, 4, 60, 68
9, 107391, Note_on_c, 4, 41, 0
9, 107400, Note_on_c, 4, 53, 68
9, 107639, Note_on_c, 4, 60, 0
9, 107639, Note_on_c, 4, 53, 0
9, 107640, Note_on_c, 4, 62, 68
9, 107640, Note_on_c, 4, 46, 68
9, 107759, Note_on_c, 4, 62, 0
9, 107759, Note_on_c, 4, 46, 0
9, 107880, Note_on_c, 4, 46, 68
9, 107880, Note_on_c, 4, 58, 68
9, 107999, Note_on_c, 4, 46, 0
9, 107999, Note_on_c, 4, 58, 0
9, 108000, Note_on_c, 4, 60, 68
9, 108000, Note_on_c, 4, 57, 68
9, 108059, Note_on_c, 4, 60, 0
9, 108059, Note_on_c, 4, 57, 0
9, 108060, Note_on_c, 4, 62, 68
9, 108060, Note_on_c, 4, 58, 68
9, 108119, Note_on_c, 4, 62, 0
9, 108119, Note_on_c, 4, 58, 0
9, 108120, Note_on_c, 4, 63, 68
9, 108120, Note_on_c, 4, 60, 68
9, 108359, Note_on_c, 4, 63, 0
9, 108359, Note_on_c, 4, 60, 0
9, 108360, Note_on_c, 4, 51, 68
9, 108360, Note_on_c, 4, 60, 68
9, 108471, Note_on_c, 4, 51, 0
9, 108471, Note_on_c, 4, 60, 0
9, 108480, Note_on_c, 4, 60, 68
9, 108480, Note_on_c, 4, 51, 68
9, 109079, Note_on_c, 4, 60, 0
9, 109079, Note_on_c, 4, 51, 0
9, 109080, Note_on_c, 4, 53, 68
9, 109080, Note_on_c, 4, 62, 68
9, 109191, Note_on_c, 4, 53, 0
9, 109191, Note_on_c, 4, 62, 0
9, 109200, Note_on_c, 4, 51, 68
9, 109200, Note_on_c, 4, 60, 68
9, 109439, Note_on_c, 4, 51, 0
9, 109439, Note_on_c, 4, 60, 0
9, 109440, Note_on_c, 4, 50, 68
9, 109440, Note_on_c, 4, 58, 68
9, 109559, Note_on_c, 4, 50, 0
9, 109559, Note_on_c, 4, 58, 0
9, 109560, Note_on_c, 4, 58, 68
9, 109560, Note_on_c, 4, 62, 68
9, 109799, Note_on_c, 4, 58, 0
9, 109799, Note_on_c, 4, 62, 0
9, 109800, Note_on_c, 4, 60, 68
9, 109800, Note_on_c, 4, 63, 68
9, 109911, Note_on_c, 4, 60, 0
9, 109911, Note_on_c, 4, 63, 0
9, 109920, Note_on_c, 4, 63, 68
9, 109920, Note_on_c, 4, 60, 68
9, 110519, Note_on_c, 4, 63, 0
9, 110519, Note_on_c, 4, 60, 0
9, 110520, Note_on_c, 4, 65, 68
9, 110520, Note_on_c, 4, 62, 68
9, 110639, Note_on_c, 4, 65, 0
9, 110639, Note_on_c, 4, 62, 0
9, 110640, Note_on_c, 4, 63, 68
9, 110640, Note_on_c, 4, 60, 68
9, 110879, Note_on_c, 4, 63, 0
9, 110879, Note_on_c, 4, 60, 0
9, 110880, Note_on_c, 4, 58, 68
9, 110880, Note_on_c, 4, 62, 68
9, 110991, Note_on_c, 4, 58, 0
9, 110991, Note_on_c, 4, 62, 0
9, 111000, Note_on_c, 4, 51, 68
9, 111000, Control_c, 4, 11, 89
9, 111000, Note_on_c, 4, 55, 68
9, 111047, Control_c, 4, 11, 90
9, 111095, Control_c, 4, 11, 91
9, 111142, Control_c, 4, 11, 92
9, 111189, Control_c, 4, 11, 93
9, 111237, Control_c, 4, 11, 94
9, 111284, Control_c, 4, 11, 95
9, 111332, Control_c, 4, 11, 96
9, 111351, Note_on_c, 4, 51, 0
9, 111351, Note_on_c, 4, 55, 0
9, 111360, Note_on_c, 4, 51, 68
9, 111360, Note_on_c, 4, 55, 68
9, 111379, Control_c, 4, 11, 97
9, 111426, Control_c, 4, 11, 98
9, 111474, Control_c, 4, 11, 99
9, 111521, Control_c, 4, 11, 100
9, 111568, Control_c, 4, 11, 101
9, 111616, Control_c, 4, 11, 102
9, 111663, Control_c, 4, 11, 103
9, 111711, Note_on_c, 4, 51, 0
9, 111711, Control_c, 4, 11, 104
9, 111720, Note_on_c, 4, 39, 68
9, 111758, Control_c, 4, 11, 105
9, 111805, Control_c, 4, 11, 106
9, 111853, Control_c, 4, 11, 107
9, 111900, Control_c, 4, 11, 108
9, 111947, Control_c, 4, 11, 109
9, 111995, Control_c, 4, 11, 110
9, 112042, Control_c, 4, 11, 111
9, 112071, Note_on_c, 4, 39, 0
9, 112080, Note_on_c, 4, 40, 68
9, 112089, Control_c, 4, 11, 112
9, 112137, Control_c, 4, 11, 113
9, 112184, Control_c, 4, 11, 114
9, 112232, Control_c, 4, 11, 115
9, 112279, Control_c, 4, 11, 116
9, 112311, Note_on_c, 4, 55, 0
9, 112320, Note_on_c, 4, 55, 68
9, 112326, Control_c, 4, 11, 117
9, 112374, Control_c, 4, 11, 118
9, 112421, Control_c, 4, 11, 119
9, 112431, Note_on_c, 4, 40, 0
9, 112431, Note_on_c, 4, 55, 0
9, 112440, Note_on_c, 4, 52, 68
9, 112440, Note_on_c, 4, 55, 68
9, 112468, Control_c, 4, 11, 120
9, 112516, Control_c, 4, 11, 121
9, 112559, Note_on_c, 4, 55, 0
9, 112560, Note_on_c, 4, 57, 68
9, 112563, Control_c, 4, 11, 122
9, 112611, Control_c, 4, 11, 123
9, 112658, Control_c, 4, 11, 124
9, 112679, Note_on_c, 4, 57, 0
9, 112680, Note_on_c, 4, 58, 68
9, 112705, Control_c, 4, 11, 125
9, 112753, Control_c, 4, 11, 126
9, 112791, Note_on_c, 4, 58, 0
9, 112800, Note_on_c, 4, 58, 68
9, 112800, Control_c, 4, 11, 127
9, 112818, Control_c, 4, 11, 126
9, 112836, Control_c, 4, 11, 125
9, 112854, Control_c, 4, 11, 124
9, 112872, Control_c, 4, 11, 123
9, 112890, Control_c, 4, 11, 122
9, 112908, Control_c, 4, 11, 121
9, 112911, Note_on_c, 4, 52, 0
9, 112920, Note_on_c, 4, 53, 68
9, 112926, Control_c, 4, 11, 120
9, 112944, Control_c, 4, 11, 119
9, 112962, Control_c, 4, 11, 118
9, 112980, Control_c, 4, 11, 117
9, 112998, Control_c, 4, 11, 116
9, 113016, Control_c, 4, 11, 115
9, 113034, Control_c, 4, 11, 114
9, 113052, Control_c, 4, 11, 113
9, 113070, Control_c, 4, 11, 112
9, 113088, Control_c, 4, 11, 111
9, 113106, Control_c, 4, 11, 110
9, 113124, Control_c, 4, 11, 109
9, 113142, Control_c, 4, 11, 108
9, 113160, Control_c, 4, 11, 107
9, 113178, Control_c, 4, 11, 106
9, 113196, Control_c, 4, 11, 105
9, 113214, Control_c, 4, 11, 104
9, 113232, Control_c, 4, 11, 103
9, 113250, Control_c, 4, 11, 102
9, 113268, Control_c, 4, 11, 101
9, 113271, Note_on_c, 4, 53, 0
9, 113280, Note_on_c, 4, 41, 68
9, 113286, Control_c, 4, 11, 100
9, 113304, Control_c, 4, 11, 99
9, 113322, Control_c, 4, 11, 98
9, 113340, Control_c, 4, 11, 97
9, 113358, Control_c, 4, 11, 96
9, 113376, Control_c, 4, 11, 95
9, 113394, Control_c, 4, 11, 94
9, 113399, Note_on_c, 4, 58, 0
9, 113400, Note_on_c, 4, 62, 68
9, 113412, Control_c, 4, 11, 93
9, 113430, Control_c, 4, 11, 92
9, 113448, Control_c, 4, 11, 91
9, 113466, Control_c, 4, 11, 90
9, 113484, Control_c, 4, 11, 89
9, 113502, Control_c, 4, 11, 87
9, 113511, Note_on_c, 4, 41, 0
9, 113519, Note_on_c, 4, 62, 0
9, 113520, Note_on_c, 4, 41, 68
9, 113520, Note_on_c, 4, 65, 68
9, 113871, Note_on_c, 4, 41, 0
9, 113879, Note_on_c, 4, 65, 0
9, 113880, Note_on_c, 4, 41, 68
9, 113880, Note_on_c, 4, 63, 68
9, 114119, Note_on_c, 4, 63, 0
9, 114120, Note_on_c, 4, 60, 68
9, 114231, Note_on_c, 4, 41, 0
9, 114231, Note_on_c, 4, 60, 0
9, 114238, Control_c, 4, 11, 79
9, 114240, Note_on_c, 4, 63, 68
9, 114240, Note_on_c, 4, 57, 68
9, 114599, Note_on_c, 4, 57, 0
9, 114600, Note_on_c, 4, 60, 68
9, 114959, Note_on_c, 4, 60, 0
9, 114960, Note_on_c, 4, 57, 68
9, 115319, Note_on_c, 4, 63, 0
9, 115319, Note_on_c, 4, 57, 0
9, 115320, Note_on_c, 4, 58, 68
9, 115320, Note_on_c, 4, 62, 68
9, 115671, Note_on_c, 4, 58, 0
9, 115671, Note_on_c, 4, 62, 0
9, 115678, Control_c, 4, 11, 47
9, 115680, Note_on_c, 4, 63, 68
9, 115680, Note_on_c, 4, 57, 68
9, 116039, Note_on_c, 4, 57, 0
9, 116040, Note_on_c, 4, 60, 68
9, 116399, Note_on_c, 4, 60, 0
9, 116400, Control_c, 4, 11, 47
9, 116400, Note_on_c, 4, 57, 68
9, 116417, Control_c, 4, 11, 49
9, 116433, Control_c, 4, 11, 51
9, 116450, Control_c, 4, 11, 54
9, 116467, Control_c, 4, 11, 56
9, 116483, Control_c, 4, 11, 58
9, 116500, Control_c, 4, 11, 60
9, 116517, Control_c, 4, 11, 63
9, 116533, Control_c, 4, 11, 65
9, 116550, Control_c, 4, 11, 67
9, 116567, Control_c, 4, 11, 69
9, 116583, Control_c, 4, 11, 71
9, 116600, Control_c, 4, 11, 74
9, 116617, Control_c, 4, 11, 76
9, 116633, Control_c, 4, 11, 78
9, 116650, Control_c, 4, 11, 80
9, 116667, Control_c, 4, 11, 83
9, 116683, Control_c, 4, 11, 85
9, 116700, Control_c, 4, 11, 87
9, 116717, Control_c, 4, 11, 89
9, 116733, Control_c, 4, 11, 91
9, 116750, Control_c, 4, 11, 94
9, 116759, Note_on_c, 4, 63, 0
9, 116759, Note_on_c, 4, 57, 0
9, 116760, Note_on_c, 4, 56, 68
9, 116760, Note_on_c, 4, 62, 68
9, 116767, Control_c, 4, 11, 96
9, 116783, Control_c, 4, 11, 98
9, 116800, Control_c, 4, 11, 100
9, 116817, Control_c, 4, 11, 103
9, 116833, Control_c, 4, 11, 105
9, 116850, Control_c, 4, 11, 107
9, 116867, Control_c, 4, 11, 109
9, 116883, Control_c, 4, 11, 111
9, 116900, Control_c, 4, 11, 114
9, 116917, Control_c, 4, 11, 116
9, 116933, Control_c, 4, 11, 118
9, 116950, Control_c, 4, 11, 120
9, 116967, Control_c, 4, 11, 123
9, 116983, Control_c, 4, 11, 127
9, 116991, Note_on_c, 4, 56, 0
9, 116991, Note_on_c, 4, 62, 0
9, 117000, Note_on_c, 4, 46, 80
9, 117051, Note_on_c, 4, 46, 0
9, 117060, Note_on_c, 4, 46, 80
9, 117111, Note_on_c, 4, 46, 0
9, 117120, Note_on_c, 4, 51, 80
9, 117239, Note_on_c, 4, 51, 0
9, 117720, Note_on_c, 4, 63, 80
9, 117771, Note_on_c, 4, 63, 0
9, 117780, Note_on_c, 4, 63, 80
9, 117831, Note_on_c, 4, 63, 0
9, 117840, Note_on_c, 4, 58, 80
9, 117959, Note_on_c, 4, 58, 0
9, 118440, Note_on_c, 4, 58, 80
9, 118491, Note_on_c, 4, 58, 0
9, 118500, Note_on_c, 4, 58, 80
9, 118551, Note_on_c, 4, 58, 0
9, 118560, Note_on_c, 4, 51, 92
9, 118619, Note_on_c, 4, 51, 0
9, 118800, Note_on_c, 4, 51, 80
9, 118851, Note_on_c, 4, 51, 0
9, 118860, Note_on_c, 4, 51, 80
9, 118911, Note_on_c, 4, 51, 0
9, 118920, Note_on_c, 4, 58, 92
9, 118979, Note_on_c, 4, 58, 0
9, 119160, Note_on_c, 4, 46, 80
9, 119211, Note_on_c, 4, 46, 0
9, 119220, Note_on_c, 4, 46, 80
9, 119271, Note_on_c, 4, 46, 0
9, 119280, Note_on_c, 4, 53, 80
9, 119519, Note_on_c, 4, 53, 0
9, 120000, Control_c, 4, 11, 127
9, 120720, Note_on_c, 4, 65, 80
9, 120720, Control_c, 4, 11, 127
9, 120756, Control_c, 4, 11, 126
9, 120792, Control_c, 4, 11, 125
9, 120828, Control_c, 4, 11, 124
9, 120864, Control_c, 4, 11, 123
9, 120900, Control_c, 4, 11, 122
9, 120936, Control_c, 4, 11, 121
9, 120972, Control_c, 4, 11, 120
9, 121008, Control_c, 4, 11, 119
9, 121044, Control_c, 4, 11, 118
9, 121080, Control_c, 4, 11, 117
9, 121116, Control_c, 4, 11, 116
9, 121152, Control_c, 4, 11, 115
9, 121188, Control_c, 4, 11, 114
9, 121224, Control_c, 4, 11, 113
9, 121260, Control_c, 4, 11, 112
9, 121296, Control_c, 4, 11, 111
9, 121332, Control_c, 4, 11, 110
9, 121368, Control_c, 4, 11, 109
9, 121404, Control_c, 4, 11, 108
9, 121439, Note_on_c, 4, 65, 0
9, 121440, Note_on_c, 4, 60, 80
9, 121440, Control_c, 4, 11, 107
9, 121476, Control_c, 4, 11, 106
9, 121512, Control_c, 4, 11, 105
9, 121548, Control_c, 4, 11, 104
9, 121584, Control_c, 4, 11, 103
9, 121620, Control_c, 4, 11, 102
9, 121656, Control_c, 4, 11, 101
9, 121692, Control_c, 4, 11, 100
9, 121728, Control_c, 4, 11, 99
9, 121764, Control_c, 4, 11, 98
9, 121800, Control_c, 4, 11, 97
9, 121836, Control_c, 4, 11, 96
9, 121872, Control_c, 4, 11, 95
9, 121908, Control_c, 4, 11, 94
9, 121944, Control_c, 4, 11, 93
9, 121980, Control_c, 4, 11, 92
9, 122016, Control_c, 4, 11, 91
9, 122052, Control_c, 4, 11, 90
9, 122088, Control_c, 4, 11, 89
9, 122124, Control_c, 4, 11, 88
9, 122151, Note_on_c, 4, 60, 0
9, 122160, Note_on_c, 4, 63, 80
9, 122160, Control_c, 4, 11, 87
9, 122196, Control_c, 4, 11, 86
9, 122232, Control_c, 4, 11, 85
9, 122268, Control_c, 4, 11, 84
9, 122304, Control_c, 4, 11, 83
9, 122340, Control_c, 4, 11, 82
9, 122376, Control_c, 4, 11, 81
9, 122412, Control_c, 4, 11, 80
9, 122448, Control_c, 4, 11, 79
9, 122484, Control_c, 4, 11, 78
9, 122520, Control_c, 4, 11, 77
9, 122556, Control_c, 4, 11, 76
9, 122592, Control_c, 4, 11, 75
9, 122628, Control_c, 4, 11, 74
9, 122664, Control_c, 4, 11, 73
9, 122700, Control_c, 4, 11, 72
9, 122736, Control_c, 4, 11, 71
9, 122772, Control_c, 4, 11, 70
9, 122808, Control_c, 4, 11, 69
9, 122879, Note_on_c, 4, 63, 0
9, 122880, Note_on_c, 4, 62, 72
9, 123591, Note_on_c, 4, 62, 0
9, 123600, Note_on_c, 4, 60, 72
9, 124311, Note_on_c, 4, 60, 0
9, 124320, Note_on_c, 4, 58, 72
9, 125031, Note_on_c, 4, 58, 0
9, 125040, Note_on_c, 4, 60, 72
9, 125519, Note_on_c, 4, 60, 0
9, 125520, Note_on_c, 4, 62, 72
9, 125639, Note_on_c, 4, 62, 0
9, 125640, Note_on_c, 4, 63, 72
9, 125699, Note_on_c, 4, 63, 0
9, 125758, Control_c, 4, 11, 69
9, 125760, Note_on_c, 4, 46, 80
9, 125760, Control_c, 4, 11, 69
9, 125857, Control_c, 4, 11, 70
9, 125954, Control_c, 4, 11, 71
9, 126052, Control_c, 4, 11, 72
9, 126149, Control_c, 4, 11, 73
9, 126246, Control_c, 4, 11, 74
9, 126343, Control_c, 4, 11, 75
9, 126441, Control_c, 4, 11, 76
9, 126471, Note_on_c, 4, 46, 0
9, 126480, Note_on_c, 4, 41, 80
9, 126538, Control_c, 4, 11, 77
9, 126635, Control_c, 4, 11, 78
9, 126732, Control_c, 4, 11, 79
9, 126830, Control_c, 4, 11, 80
9, 126927, Control_c, 4, 11, 81
9, 127024, Control_c, 4, 11, 82
9, 127121, Control_c, 4, 11, 83
9, 127191, Note_on_c, 4, 41, 0
9, 127200, Note_on_c, 4, 38, 80
9, 127219, Control_c, 4, 11, 84
9, 127316, Control_c, 4, 11, 85
9, 127413, Control_c, 4, 11, 86
9, 127510, Control_c, 4, 11, 87
9, 127559, Note_on_c, 4, 38, 0
9, 127560, Note_on_c, 4, 41, 80
9, 127608, Control_c, 4, 11, 88
9, 127705, Control_c, 4, 11, 89
9, 127802, Control_c, 4, 11, 90
9, 127899, Control_c, 4, 11, 91
9, 127919, Note_on_c, 4, 41, 0
9, 127920, Note_on_c, 4, 46, 80
9, 127997, Control_c, 4, 11, 92
9, 128094, Control_c, 4, 11, 93
9, 128191, Control_c, 4, 11, 94
9, 128279, Note_on_c, 4, 46, 0
9, 128280, Note_on_c, 4, 48, 80
9, 128288, Control_c, 4, 11, 95
9, 128386, Control_c, 4, 11, 96
9, 128483, Control_c, 4, 11, 97
9, 128580, Control_c, 4, 11, 98
9, 128631, Note_on_c, 4, 48, 0
9, 128640, Note_on_c, 4, 50, 80
9, 128677, Control_c, 4, 11, 99
9, 128774, Control_c, 4, 11, 100
9, 128872, Control_c, 4, 11, 101
9, 128969, Control_c, 4, 11, 102
9, 128999, Note_on_c, 4, 50, 0
9, 129000, Note_on_c, 4, 53, 80
9, 129066, Control_c, 4, 11, 103
9, 129163, Control_c, 4, 11, 104
9, 129239, Note_on_c, 4, 53, 0
9, 129240, Note_on_c, 4, 51, 80
9, 129261, Control_c, 4, 11, 105
9, 129358, Control_c, 4, 11, 106
9, 129359, Note_on_c, 4, 51, 0
9, 129360, Note_on_c, 4, 48, 80
9, 129455, Control_c, 4, 11, 107
9, 129552, Control_c, 4, 11, 108
9, 129591, Note_on_c, 4, 48, 0
9, 129600, Note_on_c, 4, 48, 80
9, 129600, Note_on_c, 4, 60, 80
9, 129650, Control_c, 4, 11, 109
9, 129747, Control_c, 4, 11, 110
9, 129839, Note_on_c, 4, 48, 0
9, 129839, Note_on_c, 4, 60, 0
9, 129840, Note_on_c, 4, 58, 80
9, 129840, Note_on_c, 4, 46, 80
9, 129844, Control_c, 4, 11, 111
9, 129941, Control_c, 4, 11, 112
9, 129959, Note_on_c, 4, 58, 0
9, 129959, Note_on_c, 4, 46, 0
9, 129960, Note_on_c, 4, 45, 80
9, 129960, Note_on_c, 4, 57, 80
9, 130039, Control_c, 4, 11, 113
9, 130071, Note_on_c, 4, 45, 0
9, 130071, Note_on_c, 4, 57, 0
9, 130080, Note_on_c, 4, 46, 80
9, 130080, Note_on_c, 4, 58, 80
9, 130136, Control_c, 4, 11, 114
9, 130233, Control_c, 4, 11, 115
9, 130330, Control_c, 4, 11, 116
9, 130428, Control_c, 4, 11, 117
9, 130439, Note_on_c, 4, 46, 0
9, 130439, Note_on_c, 4, 58, 0
9, 130440, Note_on_c, 4, 50, 80
9, 130440, Note_on_c, 4, 62, 80
9, 130525, Control_c, 4, 11, 118
9, 130622, Control_c, 4, 11, 119
9, 130679, Note_on_c, 4, 50, 0
9, 130679, Note_on_c, 4, 62, 0
9, 130680, Note_on_c, 4, 60, 80
9, 130680, Note_on_c, 4, 48, 80
9, 130719, Control_c, 4, 11, 120
9, 130791, Note_on_c, 4, 60, 0
9, 130791, Note_on_c, 4, 48, 0
9, 130800, Note_on_c, 4, 57, 80
9, 130800, Note_on_c, 4, 60, 80
9, 130817, Control_c, 4, 11, 121
9, 130914, Control_c, 4, 11, 122
9, 131011, Control_c, 4, 11, 123
9, 131108, Control_c, 4, 11, 124
9, 131159, Note_on_c, 4, 57, 0
9, 131159, Note_on_c, 4, 60, 0
9, 131160, Note_on_c, 4, 58, 80
9, 131160, Note_on_c, 4, 56, 80
9, 131206, Control_c, 4, 11, 125
9, 131303, Control_c, 4, 11, 127
9, 131391, Note_on_c, 4, 58, 0
9, 131391, Note_on_c, 4, 56, 0
9, 131400, Note_on_c, 4, 46, 80
9, 131451, Note_on_c, 4, 46, 0
9, 131460, Note_on_c, 4, 46, 80
9, 131511, Note_on_c, 4, 46, 0
9, 131520, Note_on_c, 4, 51, 80
9, 131639, Note_on_c, 4, 51, 0
9, 132120, Note_on_c, 4, 51, 80
9, 132171, Note_on_c, 4, 51, 0
9, 132180, Note_on_c, 4, 51, 80
9, 132231, Note_on_c, 4, 51, 0
9, 132240, Note_on_c, 4, 58, 80
9, 132359, Note_on_c, 4, 58, 0
9, 132840, Note_on_c, 4, 58, 80
9, 132891, Note_on_c, 4, 58, 0
9, 132900, Note_on_c, 4, 58, 80
9, 132951, Note_on_c, 4, 58, 0
9, 132960, Note_on_c, 4, 63, 92
9, 133019, Note_on_c, 4, 63, 0
9, 133200, Note_on_c, 4, 51, 80
9, 133251, Note_on_c, 4, 51, 0
9, 133260, Note_on_c, 4, 51, 80
9, 133311, Note_on_c, 4, 51, 0
9, 133320, Note_on_c, 4, 58, 92
9, 133379, Note_on_c, 4, 58, 0
9, 133560, Note_on_c, 4, 46, 80
9, 133611, Note_on_c, 4, 46, 0
9, 133620, Note_on_c, 4, 46, 80
9, 133671, Note_on_c, 4, 46, 0
9, 133680, Note_on_c, 4, 53, 80
9, 133919, Note_on_c, 4, 53, 0
9, 135000, Control_c, 4, 11, 127
9, 135120, Note_on_c, 4, 61, 44
9, 135120, Note_on_c, 4, 65, 44
9, 135480, Control_c, 4, 11, 126
9, 135840, Control_c, 4, 11, 125
9, 136199, Note_on_c, 4, 61, 0
9, 136199, Note_on_c, 4, 65, 0
9, 136200, Control_c, 4, 11, 122
9, 136200, Note_on_c, 4, 63, 44
9, 136200, Note_on_c, 4, 60, 44
9, 136559, Note_on_c, 4, 60, 0
9, 136560, Control_c, 4, 11, 121
9, 136560, Note_on_c, 4, 59, 44
9, 136919, Note_on_c, 4, 63, 0
9, 136919, Note_on_c, 4, 59, 0
9, 136920, Note_on_c, 4, 62, 44
9, 136920, Control_c, 4, 11, 120
9, 136920, Note_on_c, 4, 58, 44
9, 137271, Note_on_c, 4, 62, 0
9, 137280, Control_c, 4, 11, 119
9, 137280, Note_on_c, 4, 66, 44
9, 137631, Note_on_c, 4, 58, 0
9, 137640, Note_on_c, 4, 63, 44
9, 137640, Control_c, 4, 11, 116
9, 138000, Control_c, 4, 11, 115
9, 138360, Control_c, 4, 11, 114
9, 138720, Control_c, 4, 11, 112
9, 139079, Note_on_c, 4, 66, 0
9, 139080, Control_c, 4, 11, 110
9, 139080, Note_on_c, 4, 65, 44
9, 139431, Note_on_c, 4, 63, 0
9, 139440, Note_on_c, 4, 61, 44
9, 139440, Control_c, 4, 11, 109
9, 139800, Control_c, 4, 11, 109
9, 139860, Control_c, 4, 11, 112
9, 139920, Control_c, 4, 11, 115
9, 139980, Control_c, 4, 11, 119
9, 140040, Control_c, 4, 11, 121
9, 140100, Control_c, 4, 11, 125
9, 140151, Note_on_c, 4, 61, 0
9, 140160, Control_c, 4, 11, 127
9, 140160, Note_on_c, 4, 62, 44
9, 140279, Note_on_c, 4, 65, 0
9, 140280, Note_on_c, 4, 50, 44
9, 140391, Note_on_c, 4, 62, 0
9, 140399, Note_on_c, 4, 50, 0
9, 140400, Note_on_c, 4, 53, 44
9, 140519, Note_on_c, 4, 53, 0
9, 140520, Note_on_c, 4, 58, 44
9, 140639, Note_on_c, 4, 58, 0
9, 140640, Note_on_c, 4, 60, 44
9, 140759, Note_on_c, 4, 60, 0
9, 140760, Note_on_c, 4, 62, 44
9, 140871, Note_on_c, 4, 62, 0
9, 140880, Note_on_c, 4, 63, 44
9, 141359, Note_on_c, 4, 63, 0
9, 141360, Note_on_c, 4, 62, 44
9, 141479, Note_on_c, 4, 62, 0
9, 141480, Note_on_c, 4, 60, 44
9, 141569, Note_on_c, 4, 60, 0
9, 141598, Control_c, 4, 11, 89
9, 141600, Note_on_c, 4, 60, 68
9, 141600, Control_c, 4, 11, 89
9, 141619, Control_c, 4, 11, 90
9, 141638, Control_c, 4, 11, 91
9, 141657, Control_c, 4, 11, 92
9, 141676, Control_c, 4, 11, 93
9, 141695, Control_c, 4, 11, 94
9, 141714, Control_c, 4, 11, 95
9, 141719, Note_on_c, 4, 60, 0
9, 141720, Note_on_c, 4, 58, 68
9, 141733, Control_c, 4, 11, 96
9, 141752, Control_c, 4, 11, 97
9, 141771, Control_c, 4, 11, 98
9, 141789, Control_c, 4, 11, 99
9, 141808, Control_c, 4, 11, 100
9, 141827, Control_c, 4, 11, 101
9, 141839, Note_on_c, 4, 58, 0
9, 141840, Note_on_c, 4, 62, 68
9, 141846, Control_c, 4, 11, 102
9, 141865, Control_c, 4, 11, 103
9, 141884, Control_c, 4, 11, 104
9, 141903, Control_c, 4, 11, 105
9, 141922, Control_c, 4, 11, 106
9, 141941, Control_c, 4, 11, 107
9, 141951, Note_on_c, 4, 62, 0
9, 141960, Control_c, 4, 11, 108
9, 141960, Note_on_c, 4, 53, 68
9, 141979, Control_c, 4, 11, 109
9, 141998, Control_c, 4, 11, 110
9, 142017, Control_c, 4, 11, 111
9, 142036, Control_c, 4, 11, 112
9, 142055, Control_c, 4, 11, 113
9, 142074, Control_c, 4, 11, 114
9, 142079, Note_on_c, 4, 53, 0
9, 142080, Note_on_c, 4, 58, 68
9, 142093, Control_c, 4, 11, 115
9, 142112, Control_c, 4, 11, 116
9, 142131, Control_c, 4, 11, 117
9, 142149, Control_c, 4, 11, 118
9, 142168, Control_c, 4, 11, 119
9, 142187, Control_c, 4, 11, 120
9, 142199, Note_on_c, 4, 58, 0
9, 142200, Note_on_c, 4, 60, 68
9, 142206, Control_c, 4, 11, 121
9, 142225, Control_c, 4, 11, 122
9, 142244, Control_c, 4, 11, 123
9, 142259, Note_on_c, 4, 60, 0
9, 142260, Note_on_c, 4, 62, 68
9, 142263, Control_c, 4, 11, 124
9, 142282, Control_c, 4, 11, 125
9, 142301, Control_c, 4, 11, 127
9, 142311, Note_on_c, 4, 62, 0
9, 142320, Note_on_c, 4, 63, 68
9, 142559, Note_on_c, 4, 63, 0
9, 142560, Note_on_c, 4, 62, 68
9, 142680, Control_c, 4, 11, 127
9, 142695, Control_c, 4, 11, 125
9, 142710, Control_c, 4, 11, 124
9, 142725, Control_c, 4, 11, 122
9, 142739, Note_on_c, 4, 62, 0
9, 142740, Control_c, 4, 11, 120
9, 142740, Note_on_c, 4, 60, 68
9, 142755, Control_c, 4, 11, 119
9, 142770, Control_c, 4, 11, 117
9, 142785, Control_c, 4, 11, 115
9, 142799, Note_on_c, 4, 60, 0
9, 142800, Control_c, 4, 11, 114
9, 142800, Note_on_c, 4, 67, 68
9, 142815, Control_c, 4, 11, 112
9, 142830, Control_c, 4, 11, 110
9, 142845, Control_c, 4, 11, 109
9, 142860, Control_c, 4, 11, 107
9, 142875, Control_c, 4, 11, 105
9, 142890, Control_c, 4, 11, 104
9, 142905, Control_c, 4, 11, 102
9, 142919, Note_on_c, 4, 67, 0
9, 142920, Note_on_c, 4, 65, 68
9, 142920, Control_c, 4, 11, 100
9, 142935, Control_c, 4, 11, 99
9, 142950, Control_c, 4, 11, 97
9, 142965, Control_c, 4, 11, 95
9, 142979, Note_on_c, 4, 65, 0
9, 142980, Control_c, 4, 11, 94
9, 142980, Note_on_c, 4, 57, 68
9, 142995, Control_c, 4, 11, 92
9, 143010, Control_c, 4, 11, 90
9, 143025, Control_c, 4, 11, 89
9, 143031, Note_on_c, 4, 57, 0
9, 143040, Note_on_c, 4, 58, 68
9, 143279, Note_on_c, 4, 58, 0
9, 144360, Control_c, 4, 11, 127
9, 144480, Note_on_c, 4, 58, 38
9, 144959, Note_on_c, 4, 58, 0
9, 144960, Note_on_c, 4, 60, 38
9, 145079, Note_on_c, 4, 60, 0
9, 145080, Note_on_c, 4, 62, 38
9, 145191, Note_on_c, 4, 62, 0
9, 145200, Note_on_c, 4, 62, 38
9, 145319, Note_on_c, 4, 62, 0
9, 145320, Note_on_c, 4, 60, 38
9, 145679, Note_on_c, 4, 60, 0
9, 145680, Note_on_c, 4, 57, 38
9, 145799, Note_on_c, 4, 57, 0
9, 145800, Note_on_c, 4, 53, 38
9, 145889, Note_on_c, 4, 53, 0
9, 145918, Control_c, 4, 11, 87
9, 145920, Note_on_c, 4, 60, 68
9, 146639, Note_on_c, 4, 60, 0
9, 146640, Note_on_c, 4, 58, 68
9, 146640, Control_c, 4, 11, 87
9, 146754, Control_c, 4, 11, 88
9, 146868, Control_c, 4, 11, 89
9, 146982, Control_c, 4, 11, 90
9, 147096, Control_c, 4, 11, 91
9, 147210, Control_c, 4, 11, 92
9, 147239, Note_on_c, 4, 58, 0
9, 147240, Note_on_c, 4, 65, 68
9, 147324, Control_c, 4, 11, 93
9, 147351, Note_on_c, 4, 65, 0
9, 147360, Note_on_c, 4, 65, 68
9, 147438, Control_c, 4, 11, 94
9, 147552, Control_c, 4, 11, 95
9, 147666, Control_c, 4, 11, 96
9, 147719, Note_on_c, 4, 65, 0
9, 147720, Note_on_c, 4, 63, 68
9, 147780, Control_c, 4, 11, 97
9, 147894, Control_c, 4, 11, 98
9, 148008, Control_c, 4, 11, 99
9, 148122, Control_c, 4, 11, 100
9, 148236, Control_c, 4, 11, 101
9, 148350, Control_c, 4, 11, 102
9, 148431, Note_on_c, 4, 63, 0
9, 148440, Note_on_c, 4, 62, 68
9, 148464, Control_c, 4, 11, 103
9, 148499, Note_on_c, 4, 62, 0
9, 148500, Note_on_c, 4, 53, 68
9, 148559, Note_on_c, 4, 53, 0
9, 148560, Note_on_c, 4, 57, 68
9, 148578, Control_c, 4, 11, 104
9, 148619, Note_on_c, 4, 57, 0
9, 148620, Note_on_c, 4, 58, 68
9, 148679, Note_on_c, 4, 58, 0
9, 148680, Note_on_c, 4, 60, 68
9, 148692, Control_c, 4, 11, 105
9, 148739, Note_on_c, 4, 60, 0
9, 148740, Note_on_c, 4, 62, 68
9, 148791, Note_on_c, 4, 62, 0
9, 148800, Note_on_c, 4, 62, 68
9, 148806, Control_c, 4, 11, 106
9, 148920, Control_c, 4, 11, 107
9, 149034, Control_c, 4, 11, 108
9, 149039, Note_on_c, 4, 62, 0
9, 149040, Note_on_c, 4, 60, 68
9, 149148, Control_c, 4, 11, 109
9, 149151, Note_on_c, 4, 60, 0
9, 149160, Note_on_c, 4, 60, 68
9, 149219, Note_on_c, 4, 60, 0
9, 149220, Note_on_c, 4, 53, 68
9, 149262, Control_c, 4, 11, 110
9, 149279, Note_on_c, 4, 53, 0
9, 149280, Note_on_c, 4, 55, 68
9, 149339, Note_on_c, 4, 55, 0
9, 149340, Note_on_c, 4, 57, 68
9, 149376, Control_c, 4, 11, 111
9, 149399, Note_on_c, 4, 57, 0
9, 149400, Note_on_c, 4, 58, 68
9, 149459, Note_on_c, 4, 58, 0
9, 149460, Note_on_c, 4, 60, 68
9, 149490, Control_c, 4, 11, 112
9, 149511, Note_on_c, 4, 60, 0
9, 149520, Note_on_c, 4, 60, 68
9, 149604, Control_c, 4, 11, 113
9, 149718, Control_c, 4, 11, 114
9, 149759, Note_on_c, 4, 60, 0
9, 149760, Note_on_c, 4, 58, 68
9, 149832, Control_c, 4, 11, 115
9, 149931, Note_on_c, 4, 58, 0
9, 149940, Note_on_c, 4, 58, 68
9, 149946, Control_c, 4, 11, 116
9, 149999, Note_on_c, 4, 58, 0
9, 150000, Note_on_c, 4, 60, 68
9, 150059, Note_on_c, 4, 60, 0
9, 150060, Control_c, 4, 11, 117
9, 150060, Note_on_c, 4, 62, 68
9, 150119, Note_on_c, 4, 62, 0
9, 150120, Note_on_c, 4, 63, 68
9, 150174, Control_c, 4, 11, 118
9, 150179, Note_on_c, 4, 63, 0
9, 150180, Note_on_c, 4, 65, 68
9, 150231, Note_on_c, 4, 65, 0
9, 150240, Note_on_c, 4, 65, 68
9, 150288, Control_c, 4, 11, 119
9, 150402, Control_c, 4, 11, 120
9, 150516, Control_c, 4, 11, 121
9, 150599, Note_on_c, 4, 65, 0
9, 150600, Note_on_c, 4, 63, 68
9, 150630, Control_c, 4, 11, 122
9, 150744, Control_c, 4, 11, 123
9, 150858, Control_c, 4, 11, 124
9, 150972, Control_c, 4, 11, 125
9, 151086, Control_c, 4, 11, 126
9, 151311, Note_on_c, 4, 63, 0
9, 151320, Note_on_c, 4, 62, 68
9, 151320, Control_c, 4, 11, 127
9, 151335, Control_c, 4, 11, 125
9, 151350, Control_c, 4, 11, 124
9, 151365, Control_c, 4, 11, 122
9, 151380, Control_c, 4, 11, 120
9, 151395, Control_c, 4, 11, 119
9, 151410, Control_c, 4, 11, 117
9, 151425, Control_c, 4, 11, 115
9, 151440, Control_c, 4, 11, 114
9, 151455, Control_c, 4, 11, 112
9, 151470, Control_c, 4, 11, 110
9, 151485, Control_c, 4, 11, 109
9, 151500, Control_c, 4, 11, 107
9, 151515, Control_c, 4, 11, 105
9, 151530, Control_c, 4, 11, 104
9, 151545, Control_c, 4, 11, 102
9, 151559, Note_on_c, 4, 62, 0
9, 151560, Note_on_c, 4, 65, 68
9, 151560, Control_c, 4, 11, 100
9, 151575, Control_c, 4, 11, 99
9, 151590, Control_c, 4, 11, 97
9, 151605, Control_c, 4, 11, 95
9, 151620, Control_c, 4, 11, 94
9, 151635, Control_c, 4, 11, 92
9, 151650, Control_c, 4, 11, 90
9, 151665, Control_c, 4, 11, 89
9, 151671, Note_on_c, 4, 65, 0
9, 151680, Note_on_c, 4, 65, 68
9, 151680, Control_c, 4, 11, 89
9, 151710, Control_c, 4, 11, 91
9, 151739, Note_on_c, 4, 65, 0
9, 151740, Note_on_c, 4, 52, 68
9, 151740, Control_c, 4, 11, 92
9, 151770, Control_c, 4, 11, 94
9, 151799, Note_on_c, 4, 52, 0
9, 151800, Control_c, 4, 11, 95
9, 151800, Note_on_c, 4, 53, 68
9, 151830, Control_c, 4, 11, 97
9, 151859, Note_on_c, 4, 53, 0
9, 151860, Note_on_c, 4, 55, 68
9, 151860, Control_c, 4, 11, 99
9, 151890, Control_c, 4, 11, 100
9, 151919, Note_on_c, 4, 55, 0
9, 151920, Control_c, 4, 11, 102
9, 151920, Note_on_c, 4, 57, 68
9, 151950, Control_c, 4, 11, 103
9, 151979, Note_on_c, 4, 57, 0
9, 151980, Control_c, 4, 11, 105
9, 151980, Note_on_c, 4, 58, 68
9, 152010, Control_c, 4, 11, 106
9, 152031, Note_on_c, 4, 58, 0
9, 152040, Note_on_c, 4, 60, 68
9, 152040, Control_c, 4, 11, 108
9, 152070, Control_c, 4, 11, 110
9, 152084, Note_on_c, 4, 60, 0
9, 152100, Note_on_c, 4, 55, 68
9, 152100, Control_c, 4, 11, 111
9, 152130, Control_c, 4, 11, 113
9, 152159, Note_on_c, 4, 55, 0
9, 152160, Note_on_c, 4, 57, 68
9, 152160, Control_c, 4, 11, 114
9, 152190, Control_c, 4, 11, 116
9, 152219, Note_on_c, 4, 57, 0
9, 152220, Control_c, 4, 11, 118
9, 152220, Note_on_c, 4, 58, 68
9, 152250, Control_c, 4, 11, 119
9, 152279, Note_on_c, 4, 58, 0
9, 152280, Control_c, 4, 11, 121
9, 152280, Note_on_c, 4, 60, 68
9, 152310, Control_c, 4, 11, 122
9, 152339, Note_on_c, 4, 60, 0
9, 152340, Note_on_c, 4, 62, 68
9, 152340, Control_c, 4, 11, 124
9, 152370, Control_c, 4, 11, 127
9, 152391, Note_on_c, 4, 62, 0
9, 152400, Note_on_c, 4, 63, 68
9, 152639, Note_on_c, 4, 63, 0
9, 153180, Note_on_c, 4, 52, 46
9, 153239, Note_on_c, 4, 52, 0
9, 153240, Note_on_c, 4, 53, 48
9, 153299, Note_on_c, 4, 53, 0
9, 153300, Note_on_c, 4, 55, 50
9, 153359, Note_on_c, 4, 55, 0
9, 153360, Note_on_c, 4, 57, 52
9, 153419, Note_on_c, 4, 57, 0
9, 153420, Note_on_c, 4, 58, 54
9, 153471, Note_on_c, 4, 58, 0
9, 153480, Note_on_c, 4, 60, 56
9, 153524, Note_on_c, 4, 60, 0
9, 153540, Note_on_c, 4, 55, 58
9, 153599, Note_on_c, 4, 55, 0
9, 153600, Note_on_c, 4, 57, 60
9, 153659, Note_on_c, 4, 57, 0
9, 153660, Note_on_c, 4, 58, 62
9, 153719, Note_on_c, 4, 58, 0
9, 153720, Note_on_c, 4, 60, 64
9, 153779, Note_on_c, 4, 60, 0
9, 153780, Note_on_c, 4, 62, 66
9, 153831, Note_on_c, 4, 62, 0
9, 153840, Note_on_c, 4, 63, 68
9, 154079, Note_on_c, 4, 63, 0
9, 154620, Note_on_c, 4, 53, 52
9, 154679, Note_on_c, 4, 53, 0
9, 154680, Note_on_c, 4, 57, 60
9, 154739, Note_on_c, 4, 57, 0
9, 154740, Note_on_c, 4, 58, 68
9, 154799, Note_on_c, 4, 58, 0
9, 154800, Note_on_c, 4, 60, 76
9, 154859, Note_on_c, 4, 60, 0
9, 154860, Note_on_c, 4, 62, 84
9, 154911, Note_on_c, 4, 62, 0
9, 154920, Note_on_c, 4, 60, 92
9, 154920, Note_on_c, 4, 63, 92
9, 155159, Note_on_c, 4, 60, 0
9, 155159, Note_on_c, 4, 63, 0
9, 155280, Note_on_c, 4, 63, 92
9, 155280, Note_on_c, 4, 60, 92
9, 155519, Note_on_c, 4, 63, 0
9, 155519, Note_on_c, 4, 60, 0
9, 155640, Note_on_c, 4, 63, 80
9, 155640, Note_on_c, 4, 60, 80
9, 155879, Note_on_c, 4, 63, 0
9, 155879, Note_on_c, 4, 60, 0
9, 156000, Note_on_c, 4, 63, 68
9, 156000, Note_on_c, 4, 60, 68
9, 156239, Note_on_c, 4, 63, 0
9, 156239, Note_on_c, 4, 60, 0
9, 156360, Note_on_c, 4, 41, 56
9, 156360, Note_on_c, 4, 53, 56
9, 156599, Note_on_c, 4, 41, 0
9, 156599, Note_on_c, 4, 53, 0
9, 156720, Note_on_c, 4, 53, 44
9, 156720, Note_on_c, 4, 41, 44
9, 156959, Note_on_c, 4, 53, 0
9, 156959, Note_on_c, 4, 41, 0
9, 157080, Note_on_c, 4, 53, 32
9, 157080, Note_on_c, 4, 41, 32
9, 157319, Note_on_c, 4, 53, 0
9, 157319, Note_on_c, 4, 41, 0
9, 157440, Note_on_c, 4, 43, 32
9, 157440, Note_on_c, 4, 55, 32
9, 157679, Note_on_c, 4, 43, 0
9, 157679, Note_on_c, 4, 55, 0
9, 157800, Note_on_c, 4, 39, 38
9, 157800, Note_on_c, 4, 51, 38
9, 158039, Note_on_c, 4, 39, 0
9, 158039, Note_on_c, 4, 51, 0
9, 158160, Note_on_c, 4, 41, 44
9, 158160, Note_on_c, 4, 53, 44
9, 158399, Note_on_c, 4, 41, 0
9, 158399, Note_on_c, 4, 53, 0
9, 158520, Note_on_c, 4, 41, 50
9, 158520, Note_on_c, 4, 53, 50
9, 158759, Note_on_c, 4, 41, 0
9, 158759, Note_on_c, 4, 53, 0
9, 158880, Note_on_c, 4, 43, 56
9, 158880, Note_on_c, 4, 55, 56
9, 159119, Note_on_c, 4, 43, 0
9, 159119, Note_on_c, 4, 55, 0
9, 159240, Note_on_c, 4, 39, 62
9, 159240, Note_on_c, 4, 51, 62
9, 159479, Note_on_c, 4, 39, 0
9, 159479, Note_on_c, 4, 51, 0
9, 159600, Note_on_c, 4, 53, 68
9, 159600, Note_on_c, 4, 41, 68
9, 159839, Note_on_c, 4, 53, 0
9, 159839, Note_on_c, 4, 41, 0
9, 159960, Note_on_c, 4, 53, 74
9, 159960, Note_on_c, 4, 41, 74
9, 160191, Note_on_c, 4, 53, 0
9, 160191, Note_on_c, 4, 41, 0
9, 160200, Note_on_c, 4, 60, 80
9, 160200, Note_on_c, 4, 63, 80
9, 160319, Note_on_c, 4, 60, 0
9, 160319, Note_on_c, 4, 63, 0
9, 161040, Note_on_c, 4, 58, 44
9, 161040, Note_on_c, 4, 62, 44
9, 161279, Note_on_c, 4, 58, 0
9, 161279, Note_on_c, 4, 62, 0
9, 161520, Control_c, 4, 11, 127
9, 161640, Note_on_c, 4, 63, 44
9, 161879, Note_on_c, 4, 63, 0
9, 161880, Note_on_c, 4, 62, 44
9, 161880, Control_c, 4, 11, 126
9, 161999, Note_on_c, 4, 62, 0
9, 162000, Control_c, 4, 11, 125
9, 162120, Control_c, 4, 11, 122
9, 162240, Control_c, 4, 11, 121
9, 162360, Control_c, 4, 11, 120
9, 162360, Note_on_c, 4, 66, 44
9, 162480, Control_c, 4, 11, 119
9, 162599, Note_on_c, 4, 66, 0
9, 162600, Control_c, 4, 11, 116
9, 162600, Note_on_c, 4, 65, 44
9, 162719, Note_on_c, 4, 65, 0
9, 162720, Control_c, 4, 11, 115
9, 162840, Control_c, 4, 11, 114
9, 162960, Control_c, 4, 11, 112
9, 163080, Control_c, 4, 11, 110
9, 163080, Note_on_c, 4, 63, 44
9, 163080, Note_on_c, 4, 57, 44
9, 163319, Note_on_c, 4, 63, 0
9, 163319, Note_on_c, 4, 57, 0
9, 163320, Note_on_c, 4, 58, 44
9, 163320, Note_on_c, 4, 62, 44
9, 163439, Note_on_c, 4, 58, 0
9, 163439, Note_on_c, 4, 62, 0
9, 163680, Control_c, 4, 11, 127
9, 163800, Note_on_c, 4, 54, 32
9, 163800, Note_on_c, 4, 57, 32
9, 164039, Note_on_c, 4, 54, 0
9, 164039, Note_on_c, 4, 57, 0
9, 164040, Note_on_c, 4, 53, 32
9, 164040, Note_on_c, 4, 58, 32
9, 164151, Note_on_c, 4, 53, 0
9, 164151, Note_on_c, 4, 58, 0
9, 164160, Note_on_c, 4, 54, 32
9, 164160, Note_on_c, 4, 57, 32
9, 164399, Note_on_c, 4, 54, 0
9, 164399, Note_on_c, 4, 57, 0
9, 164400, Note_on_c, 4, 58, 32
9, 164400, Note_on_c, 4, 53, 32
9, 164511, Note_on_c, 4, 58, 0
9, 164511, Note_on_c, 4, 53, 0
9, 164520, Note_on_c, 4, 48, 32
9, 164520, Note_on_c, 4, 51, 32
9, 164631, Note_on_c, 4, 48, 0
9, 164631, Note_on_c, 4, 51, 0
9, 164638, Control_c, 4, 11, 49
9, 164640, Note_on_c, 4, 53, 80
9, 164640, Note_on_c, 4, 50, 80
9, 164640, Control_c, 4, 11, 49
9, 164658, Control_c, 4, 11, 50
9, 164677, Control_c, 4, 11, 51
9, 164695, Control_c, 4, 11, 52
9, 164714, Control_c, 4, 11, 53
9, 164732, Control_c, 4, 11, 54
9, 164751, Control_c, 4, 11, 55
9, 164769, Control_c, 4, 11, 56
9, 164788, Control_c, 4, 11, 57
9, 164806, Control_c, 4, 11, 58
9, 164825, Control_c, 4, 11, 59
9, 164843, Control_c, 4, 11, 60
9, 164862, Control_c, 4, 11, 61
9, 164880, Control_c, 4, 11, 62
9, 164898, Control_c, 4, 11, 63
9, 164917, Control_c, 4, 11, 64
9, 164935, Control_c, 4, 11, 65
9, 164954, Control_c, 4, 11, 66
9, 164972, Control_c, 4, 11, 67
9, 164991, Control_c, 4, 11, 68
9, 164999, Note_on_c, 4, 53, 0
9, 164999, Note_on_c, 4, 50, 0
9, 165000, Note_on_c, 4, 53, 80
9, 165000, Note_on_c, 4, 58, 80
9, 165009, Control_c, 4, 11, 69
9, 165028, Control_c, 4, 11, 70
9, 165046, Control_c, 4, 11, 71
9, 165065, Control_c, 4, 11, 72
9, 165083, Control_c, 4, 11, 73
9, 165102, Control_c, 4, 11, 74
9, 165120, Control_c, 4, 11, 75
9, 165138, Control_c, 4, 11, 76
9, 165157, Control_c, 4, 11, 77
9, 165175, Control_c, 4, 11, 78
9, 165194, Control_c, 4, 11, 79
9, 165212, Control_c, 4, 11, 80
9, 165231, Control_c, 4, 11, 81
9, 165249, Control_c, 4, 11, 82
9, 165268, Control_c, 4, 11, 83
9, 165286, Control_c, 4, 11, 84
9, 165305, Control_c, 4, 11, 85
9, 165323, Control_c, 4, 11, 86
9, 165342, Control_c, 4, 11, 87
9, 165359, Note_on_c, 4, 53, 0
9, 165359, Note_on_c, 4, 58, 0
9, 165360, Control_c, 4, 11, 88
9, 165360, Note_on_c, 4, 58, 80
9, 165360, Note_on_c, 4, 62, 80
9, 165378, Control_c, 4, 11, 89
9, 165397, Control_c, 4, 11, 90
9, 165415, Control_c, 4, 11, 91
9, 165434, Control_c, 4, 11, 92
9, 165452, Control_c, 4, 11, 93
9, 165471, Control_c, 4, 11, 94
9, 165489, Control_c, 4, 11, 95
9, 165508, Control_c, 4, 11, 96
9, 165526, Control_c, 4, 11, 97
9, 165545, Control_c, 4, 11, 98
9, 165563, Control_c, 4, 11, 99
9, 165582, Control_c, 4, 11, 100
9, 165600, Control_c, 4, 11, 101
9, 165618, Control_c, 4, 11, 102
9, 165637, Control_c, 4, 11, 103
9, 165655, Control_c, 4, 11, 104
9, 165674, Control_c, 4, 11, 105
9, 165692, Control_c, 4, 11, 106
9, 165711, Control_c, 4, 11, 107
9, 165719, Note_on_c, 4, 58, 0
9, 165719, Note_on_c, 4, 62, 0
9, 165720, Note_on_c, 4, 62, 80
9, 165720, Note_on_c, 4, 65, 80
9, 165729, Control_c, 4, 11, 108
9, 165748, Control_c, 4, 11, 109
9, 165766, Control_c, 4, 11, 110
9, 165785, Control_c, 4, 11, 111
9, 165803, Control_c, 4, 11, 112
9, 165822, Control_c, 4, 11, 113
9, 165840, Control_c, 4, 11, 114
9, 165858, Control_c, 4, 11, 115
9, 165877, Control_c, 4, 11, 116
9, 165895, Control_c, 4, 11, 117
9, 165914, Control_c, 4, 11, 118
9, 165932, Control_c, 4, 11, 119
9, 165951, Control_c, 4, 11, 120
9, 165969, Control_c, 4, 11, 121
9, 165988, Control_c, 4, 11, 122
9, 166006, Control_c, 4, 11, 123
9, 166025, Control_c, 4, 11, 124
9, 166043, Control_c, 4, 11, 125
9, 166062, Control_c, 4, 11, 127
9, 166071, Note_on_c, 4, 62, 0
9, 166071, Note_on_c, 4, 65, 0
9, 166080, Note_on_c, 4, 65, 80
9, 166080, Note_on_c, 4, 62, 80
9, 166791, Note_on_c, 4, 65, 0
9, 166791, Note_on_c, 4, 62, 0
9, 166800, Note_on_c, 4, 63, 80
9, 166800, Note_on_c, 4, 60, 80
9, 166800, Control_c, 4, 11, 127
9, 166812, Control_c, 4, 11, 126
9, 166825, Control_c, 4, 11, 125
9, 166837, Control_c, 4, 11, 124
9, 166850, Control_c, 4, 11, 123
9, 166862, Control_c, 4, 11, 122
9, 166874, Control_c, 4, 11, 121
9, 166887, Control_c, 4, 11, 120
9, 166899, Control_c, 4, 11, 119
9, 166912, Control_c, 4, 11, 118
9, 166924, Control_c, 4, 11, 117
9, 166937, Control_c, 4, 11, 116
9, 166949, Control_c, 4, 11, 115
9, 166961, Control_c, 4, 11, 114
9, 166974, Control_c, 4, 11, 113
9, 166986, Control_c, 4, 11, 112
9, 166999, Control_c, 4, 11, 111
9, 167011, Control_c, 4, 11, 110
9, 167023, Control_c, 4, 11, 109
9, 167036, Control_c, 4, 11, 108
9, 167048, Control_c, 4, 11, 107
9, 167061, Control_c, 4, 11, 106
9, 167073, Control_c, 4, 11, 105
9, 167086, Control_c, 4, 11, 104
9, 167098, Control_c, 4, 11, 103
9, 167110, Control_c, 4, 11, 102
9, 167123, Control_c, 4, 11, 101
9, 167135, Control_c, 4, 11, 100
9, 167148, Control_c, 4, 11, 99
9, 167160, Control_c, 4, 11, 98
9, 167172, Control_c, 4, 11, 97
9, 167185, Control_c, 4, 11, 96
9, 167197, Control_c, 4, 11, 95
9, 167210, Control_c, 4, 11, 94
9, 167222, Control_c, 4, 11, 93
9, 167234, Control_c, 4, 11, 92
9, 167247, Control_c, 4, 11, 91
9, 167259, Control_c, 4, 11, 90
9, 167272, Control_c, 4, 11, 89
9, 167284, Control_c, 4, 11, 88
9, 167297, Control_c, 4, 11, 87
9, 167309, Control_c, 4, 11, 86
9, 167321, Control_c, 4, 11, 85
9, 167334, Control_c, 4, 11, 84
9, 167346, Control_c, 4, 11, 83
9, 167359, Control_c, 4, 11, 82
9, 167371, Control_c, 4, 11, 81
9, 167383, Control_c, 4, 11, 80
9, 167396, Control_c, 4, 11, 79
9, 167408, Control_c, 4, 11, 78
9, 167421, Control_c, 4, 11, 77
9, 167433, Control_c, 4, 11, 76
9, 167446, Control_c, 4, 11, 75
9, 167458, Control_c, 4, 11, 74
9, 167470, Control_c, 4, 11, 73
9, 167483, Control_c, 4, 11, 72
9, 167495, Control_c, 4, 11, 71
9, 167508, Control_c, 4, 11, 70
9, 168239, Note_on_c, 4, 63, 0
9, 168239, Note_on_c, 4, 60, 0
9, 168240, Note_on_c, 4, 58, 80
9, 168240, Note_on_c, 4, 62, 80
9, 168591, Note_on_c, 4, 58, 0
9, 168591, Note_on_c, 4, 62, 0
9, 168598, Control_c, 4, 11, 89
9, 168600, Note_on_c, 4, 53, 68
9, 168600, Note_on_c, 4, 50, 68
9, 168659, Note_on_c, 4, 53, 0
9, 168659, Note_on_c, 4, 50, 0
9, 168660, Note_on_c, 4, 55, 68
9, 168660, Note_on_c, 4, 51, 68
9, 168719, Note_on_c, 4, 55, 0
9, 168719, Note_on_c, 4, 51, 0
9, 168720, Note_on_c, 4, 53, 68
9, 168720, Note_on_c, 4, 57, 68
9, 168779, Note_on_c, 4, 53, 0
9, 168779, Note_on_c, 4, 57, 0
9, 168780, Note_on_c, 4, 55, 68
9, 168780, Note_on_c, 4, 58, 68
9, 168839, Note_on_c, 4, 55, 0
9, 168839, Note_on_c, 4, 58, 0
9, 168840, Note_on_c, 4, 60, 68
9, 168840, Note_on_c, 4, 57, 68
9, 168899, Note_on_c, 4, 60, 0
9, 168899, Note_on_c, 4, 57, 0
9, 168900, Note_on_c, 4, 62, 68
9, 168900, Note_on_c, 4, 58, 68
9, 168951, Note_on_c, 4, 62, 0
9, 168951, Note_on_c, 4, 58, 0
9, 168958, Control_c, 4, 11, 107
9, 168960, Note_on_c, 4, 63, 56
9, 168960, Note_on_c, 4, 60, 56
9, 169311, Note_on_c, 4, 63, 0
9, 169311, Note_on_c, 4, 60, 0
9, 169318, Control_c, 4, 11, 127
9, 169320, Note_on_c, 4, 65, 80
9, 169320, Note_on_c, 4, 57, 80
9, 169559, Note_on_c, 4, 65, 0
9, 169559, Note_on_c, 4, 57, 0
9, 169680, Note_on_c, 4, 58, 32
9, 169680, Note_on_c, 4, 62, 32
9, 169784, Note_on_c, 4, 58, 0
9, 169784, Note_on_c, 4, 62, 0
9, 169800, Note_on_c, 4, 62, 32
9, 169800, Note_on_c, 4, 58, 32
9, 169904, Note_on_c, 4, 62, 0
9, 169904, Note_on_c, 4, 58, 0
9, 169920, Note_on_c, 4, 58, 32
9, 169920, Note_on_c, 4, 62, 32
9, 170009, Note_on_c, 4, 58, 0
9, 170009, Note_on_c, 4, 62, 0
9, 170040, Note_on_c, 4, 58, 32
9, 170040, Note_on_c, 4, 62, 32
9, 170279, Note_on_c, 4, 58, 0
9, 170279, Note_on_c, 4, 62, 0
9, 170279, End_track
10, 0, Start_track
10, 0, Title_t, "French Horn in B-flat "
10, 0, MIDI_port, 0
10, 0, Program_c, 5, 60
10, 0, Control_c, 5, 121, 0
10, 0, Control_c, 5, 7, 96
10, 0, Control_c, 5, 10, 40
10, 0, Control_c, 5, 11, 127
10, 5280, Control_c, 5, 11, 89
10, 5640, Note_on_c, 5, 65, 68
10, 5640, Note_on_c, 5, 72, 68
10, 5751, Note_on_c, 5, 65, 0
10, 5751, Note_on_c, 5, 72, 0
10, 5760, Note_on_c, 5, 74, 68
10, 5760, Control_c, 5, 11, 89
10, 5760, Note_on_c, 5, 70, 68
10, 5800, Control_c, 5, 11, 92
10, 5840, Control_c, 5, 11, 95
10, 5879, Note_on_c, 5, 74, 0
10, 5879, Note_on_c, 5, 70, 0
10, 5880, Control_c, 5, 11, 99
10, 5880, Note_on_c, 5, 65, 68
10, 5920, Control_c, 5, 11, 101
10, 5960, Control_c, 5, 11, 105
10, 5999, Note_on_c, 5, 65, 0
10, 6000, Note_on_c, 5, 77, 68
10, 6000, Control_c, 5, 11, 109
10, 6000, Note_on_c, 5, 74, 68
10, 6040, Control_c, 5, 11, 111
10, 6080, Control_c, 5, 11, 115
10, 6119, Note_on_c, 5, 77, 0
10, 6119, Note_on_c, 5, 74, 0
10, 6120, Note_on_c, 5, 72, 68
10, 6120, Note_on_c, 5, 75, 68
10, 6120, Control_c, 5, 11, 117
10, 6160, Control_c, 5, 11, 121
10, 6200, Control_c, 5, 11, 124
10, 6231, Note_on_c, 5, 72, 0
10, 6239, Note_on_c, 5, 75, 0
10, 6240, Control_c, 5, 11, 127
10, 6240, Note_on_c, 5, 65, 68
10, 6240, Note_on_c, 5, 72, 68
10, 6280, Control_c, 5, 11, 121
10, 6320, Control_c, 5, 11, 115
10, 6360, Control_c, 5, 11, 109
10, 6400, Control_c, 5, 11, 101
10, 6440, Control_c, 5, 11, 95
10, 6479, Note_on_c, 5, 65, 0
10, 6479, Note_on_c, 5, 72, 0
10, 10080, Control_c, 5, 11, 89
10, 10320, Note_on_c, 5, 65, 68
10, 10320, Note_on_c, 5, 53, 68
10, 10551, Note_on_c, 5, 65, 0
10, 10551, Note_on_c, 5, 53, 0
10, 10560, Note_on_c, 5, 53, 68
10, 10560, Note_on_c, 5, 65, 68
10, 10560, Control_c, 5, 11, 89
10, 10600, Control_c, 5, 11, 92
10, 10640, Control_c, 5, 11, 95
10, 10680, Control_c, 5, 11, 99
10, 10720, Control_c, 5, 11, 101
10, 10760, Control_c, 5, 11, 105
10, 10800, Control_c, 5, 11, 109
10, 10840, Control_c, 5, 11, 111
10, 10880, Control_c, 5, 11, 115
10, 10920, Control_c, 5, 11, 117
10, 10960, Control_c, 5, 11, 121
10, 11000, Control_c, 5, 11, 124
10, 11031, Note_on_c, 5, 53, 0
10, 11031, Note_on_c, 5, 65, 0
10, 11040, Note_on_c, 5, 58, 68
10, 11040, Control_c, 5, 11, 127
10, 11040, Note_on_c, 5, 65, 68
10, 11080, Control_c, 5, 11, 121
10, 11120, Control_c, 5, 11, 115
10, 11160, Control_c, 5, 11, 109
10, 11200, Control_c, 5, 11, 101
10, 11240, Control_c, 5, 11, 95
10, 11279, Note_on_c, 5, 58, 0
10, 11279, Note_on_c, 5, 65, 0
10, 12960, Control_c, 5, 11, 89
10, 13200, Note_on_c, 5, 74, 68
10, 13200, Note_on_c, 5, 70, 68
10, 13319, Note_on_c, 5, 74, 0
10, 13319, Note_on_c, 5, 70, 0
10, 13320, Note_on_c, 5, 77, 68
10, 13320, Note_on_c, 5, 74, 68
10, 13431, Note_on_c, 5, 77, 0
10, 13431, Note_on_c, 5, 74, 0
10, 13440, Note_on_c, 5, 77, 68
10, 13440, Note_on_c, 5, 74, 68
10, 13440, Control_c, 5, 11, 89
10, 13480, Control_c, 5, 11, 95
10, 13520, Control_c, 5, 11, 101
10, 13559, Note_on_c, 5, 74, 0
10, 13560, Control_c, 5, 11, 109
10, 13560, Note_on_c, 5, 70, 68
10, 13600, Control_c, 5, 11, 115
10, 13640, Control_c, 5, 11, 121
10, 13671, Note_on_c, 5, 77, 0
10, 13671, Note_on_c, 5, 70, 0
10, 13680, Note_on_c, 5, 75, 68
10, 13680, Control_c, 5, 11, 127
10, 13680, Note_on_c, 5, 72, 68
10, 13800, Control_c, 5, 11, 127
10, 13840, Control_c, 5, 11, 121
10, 13880, Control_c, 5, 11, 115
10, 13920, Control_c, 5, 11, 109
10, 13960, Control_c, 5, 11, 101
10, 14000, Control_c, 5, 11, 95
10, 14038, Control_c, 5, 11, 89
10, 14039, Note_on_c, 5, 75, 0
10, 14039, Note_on_c, 5, 72, 0
10, 14040, Note_on_c, 5, 70, 68
10, 14040, Note_on_c, 5, 74, 68
10, 14151, Note_on_c, 5, 70, 0
10, 14151, Note_on_c, 5, 74, 0
10, 14160, Note_on_c, 5, 70, 68
10, 14160, Note_on_c, 5, 75, 68
10, 14279, Note_on_c, 5, 70, 0
10, 14279, Note_on_c, 5, 75, 0
10, 16800, Control_c, 5, 11, 127
10, 17040, Note_on_c, 5, 65, 38
10, 17040, Note_on_c, 5, 53, 38
10, 17159, Note_on_c, 5, 65, 0
10, 17159, Note_on_c, 5, 53, 0
10, 17160, Note_on_c, 5, 65, 38
10, 17160, Note_on_c, 5, 77, 38
10, 17271, Note_on_c, 5, 65, 0
10, 17271, Note_on_c, 5, 77, 0
10, 17280, Note_on_c, 5, 77, 38
10, 17280, Note_on_c, 5, 65, 38
10, 17639, Note_on_c, 5, 77, 0
10, 17639, Note_on_c, 5, 65, 0
10, 17640, Note_on_c, 5, 70, 38
10, 17640, Note_on_c, 5, 58, 38
10, 17751, Note_on_c, 5, 70, 0
10, 17751, Note_on_c, 5, 58, 0
10, 17760, Note_on_c, 5, 70, 38
10, 17760, Note_on_c, 5, 58, 38
10, 17991, Note_on_c, 5, 70, 0
10, 17991, Note_on_c, 5, 58, 0
10, 18000, Note_on_c, 5, 65, 38
10, 18000, Note_on_c, 5, 53, 38
10, 18119, Note_on_c, 5, 65, 0
10, 18119, Note_on_c, 5, 53, 0
10, 18120, Note_on_c, 5, 65, 38
10, 18120, Note_on_c, 5, 77, 38
10, 18231, Note_on_c, 5, 65, 0
10, 18231, Note_on_c, 5, 77, 0
10, 18240, Note_on_c, 5, 65, 44
10, 18240, Note_on_c, 5, 77, 44
10, 18599, Note_on_c, 5, 65, 0
10, 18599, Note_on_c, 5, 77, 0
10, 18600, Note_on_c, 5, 70, 44
10, 18600, Note_on_c, 5, 58, 44
10, 18711, Note_on_c, 5, 70, 0
10, 18711, Note_on_c, 5, 58, 0
10, 18720, Note_on_c, 5, 58, 44
10, 18720, Note_on_c, 5, 70, 44
10, 18831, Note_on_c, 5, 58, 0
10, 18831, Note_on_c, 5, 70, 0
10, 18840, Note_on_c, 5, 70, 46
10, 18840, Note_on_c, 5, 74, 46
10, 18951, Note_on_c, 5, 70, 0
10, 18951, Note_on_c, 5, 74, 0
10, 18960, Note_on_c, 5, 75, 48
10, 18960, Note_on_c, 5, 70, 48
10, 19071, Note_on_c, 5, 75, 0
10, 19071, Note_on_c, 5, 70, 0
10, 19080, Note_on_c, 5, 75, 50
10, 19080, Note_on_c, 5, 70, 50
10, 19191, Note_on_c, 5, 75, 0
10, 19191, Note_on_c, 5, 70, 0
10, 19200, Note_on_c, 5, 75, 52
10, 19200, Note_on_c, 5, 70, 52
10, 19311, Note_on_c, 5, 75, 0
10, 19311, Note_on_c, 5, 70, 0
10, 19320, Note_on_c, 5, 70, 54
10, 19320, Note_on_c, 5, 75, 54
10, 19431, Note_on_c, 5, 70, 0
10, 19431, Note_on_c, 5, 75, 0
10, 19440, Note_on_c, 5, 75, 56
10, 19440, Note_on_c, 5, 70, 56
10, 19551, Note_on_c, 5, 75, 0
10, 19551, Note_on_c, 5, 70, 0
10, 19560, Note_on_c, 5, 75, 58
10, 19560, Note_on_c, 5, 70, 58
10, 19671, Note_on_c, 5, 75, 0
10, 19671, Note_on_c, 5, 70, 0
10, 19680, Note_on_c, 5, 72, 60
10, 19680, Note_on_c, 5, 70, 60
10, 19791, Note_on_c, 5, 72, 0
10, 19791, Note_on_c, 5, 70, 0
10, 19800, Note_on_c, 5, 72, 62
10, 19800, Note_on_c, 5, 70, 62
10, 19911, Note_on_c, 5, 72, 0
10, 19911, Note_on_c, 5, 70, 0
10, 19920, Note_on_c, 5, 70, 64
10, 19920, Note_on_c, 5, 72, 64
10, 20031, Note_on_c, 5, 70, 0
10, 20031, Note_on_c, 5, 72, 0
10, 20040, Note_on_c, 5, 70, 66
10, 20040, Note_on_c, 5, 72, 66
10, 20151, Note_on_c, 5, 70, 0
10, 20151, Note_on_c, 5, 72, 0
10, 20160, Note_on_c, 5, 70, 68
10, 20160, Note_on_c, 5, 72, 68
10, 20279, Note_on_c, 5, 70, 0
10, 20279, Note_on_c, 5, 72, 0
10, 20280, Note_on_c, 5, 70, 62
10, 20280, Note_on_c, 5, 74, 62
10, 20391, Note_on_c, 5, 70, 0
10, 20391, Note_on_c, 5, 74, 0
10, 20400, Note_on_c, 5, 74, 56
10, 20400, Note_on_c, 5, 70, 56
10, 20511, Note_on_c, 5, 74, 0
10, 20511, Note_on_c, 5, 70, 0
10, 20520, Note_on_c, 5, 74, 50
10, 20520, Note_on_c, 5, 70, 50
10, 20631, Note_on_c, 5, 74, 0
10, 20631, Note_on_c, 5, 70, 0
10, 20640, Note_on_c, 5, 74, 44
10, 20640, Note_on_c, 5, 70, 44
10, 20759, Note_on_c, 5, 74, 0
10, 20759, Note_on_c, 5, 70, 0
10, 20760, Note_on_c, 5, 74, 44
10, 20760, Note_on_c, 5, 77, 44
10, 20879, Note_on_c, 5, 74, 0
10, 20879, Note_on_c, 5, 77, 0
10, 20880, Note_on_c, 5, 75, 44
10, 20880, Note_on_c, 5, 72, 44
10, 20999, Note_on_c, 5, 75, 0
10, 20999, Note_on_c, 5, 72, 0
10, 21000, Note_on_c, 5, 72, 44
10, 21000, Note_on_c, 5, 65, 44
10, 21111, Note_on_c, 5, 72, 0
10, 21111, Note_on_c, 5, 65, 0
10, 21118, Control_c, 5, 11, 117
10, 21120, Note_on_c, 5, 75, 44
10, 21831, Note_on_c, 5, 75, 0
10, 21840, Note_on_c, 5, 74, 44
10, 21840, Note_on_c, 5, 62, 44
10, 22080, Control_c, 5, 11, 107
10, 22311, Note_on_c, 5, 74, 0
10, 22311, Note_on_c, 5, 62, 0
10, 22320, Note_on_c, 5, 74, 44
10, 22320, Note_on_c, 5, 62, 44
10, 23159, Note_on_c, 5, 74, 0
10, 23159, Note_on_c, 5, 62, 0
10, 34560, Control_c, 5, 11, 127
10, 35040, Note_on_c, 5, 74, 44
10, 35040, Note_on_c, 5, 70, 44
10, 35280, Control_c, 5, 11, 107
10, 35759, Note_on_c, 5, 74, 0
10, 35759, Note_on_c, 5, 70, 0
10, 35760, Note_on_c, 5, 72, 44
10, 35760, Note_on_c, 5, 65, 44
10, 35991, Note_on_c, 5, 72, 0
10, 35991, Note_on_c, 5, 65, 0
10, 36000, Note_on_c, 5, 70, 44
10, 36000, Note_on_c, 5, 74, 44
10, 36179, Note_on_c, 5, 70, 0
10, 36179, Note_on_c, 5, 74, 0
10, 36360, Note_on_c, 5, 74, 44
10, 36360, Note_on_c, 5, 70, 44
10, 36449, Note_on_c, 5, 74, 0
10, 36449, Note_on_c, 5, 70, 0
10, 36480, Note_on_c, 5, 65, 44
10, 36480, Note_on_c, 5, 72, 44
10, 36659, Note_on_c, 5, 65, 0
10, 36659, Note_on_c, 5, 72, 0
10, 36840, Note_on_c, 5, 72, 44
10, 36840, Note_on_c, 5, 65, 44
10, 36929, Note_on_c, 5, 72, 0
10, 36929, Note_on_c, 5, 65, 0
10, 36960, Note_on_c, 5, 70, 44
10, 36960, Note_on_c, 5, 65, 44
10, 37139, Note_on_c, 5, 70, 0
10, 37139, Note_on_c, 5, 65, 0
10, 37320, Note_on_c, 5, 70, 44
10, 37320, Note_on_c, 5, 65, 44
10, 37409, Note_on_c, 5, 70, 0
10, 37409, Note_on_c, 5, 65, 0
10, 37440, Note_on_c, 5, 72, 44
10, 37440, Note_on_c, 5, 65, 44
10, 37619, Note_on_c, 5, 72, 0
10, 37619, Note_on_c, 5, 65, 0
10, 37800, Note_on_c, 5, 72, 44
10, 37800, Note_on_c, 5, 65, 44
10, 37889, Note_on_c, 5, 72, 0
10, 37889, Note_on_c, 5, 65, 0
10, 37920, Note_on_c, 5, 65, 44
10, 37920, Note_on_c, 5, 74, 44
10, 38099, Note_on_c, 5, 65, 0
10, 38099, Note_on_c, 5, 74, 0
10, 38280, Note_on_c, 5, 65, 44
10, 38280, Note_on_c, 5, 72, 44
10, 38369, Note_on_c, 5, 65, 0
10, 38369, Note_on_c, 5, 72, 0
10, 38400, Note_on_c, 5, 70, 44
10, 38400, Note_on_c, 5, 58, 44
10, 38579, Note_on_c, 5, 70, 0
10, 38579, Note_on_c, 5, 58, 0
10, 38760, Note_on_c, 5, 58, 44
10, 38760, Note_on_c, 5, 70, 44
10, 38849, Note_on_c, 5, 58, 0
10, 38849, Note_on_c, 5, 70, 0
10, 38880, Note_on_c, 5, 70, 44
10, 38880, Note_on_c, 5, 74, 44
10, 39059, Note_on_c, 5, 70, 0
10, 39059, Note_on_c, 5, 74, 0
10, 39240, Note_on_c, 5, 70, 44
10, 39240, Note_on_c, 5, 74, 44
10, 39329, Note_on_c, 5, 70, 0
10, 39329, Note_on_c, 5, 74, 0
10, 39360, Note_on_c, 5, 65, 44
10, 39360, Note_on_c, 5, 72, 44
10, 39449, Note_on_c, 5, 65, 0
10, 39449, Note_on_c, 5, 72, 0
10, 39720, Note_on_c, 5, 65, 44
10, 39720, Note_on_c, 5, 72, 44
10, 39809, Note_on_c, 5, 65, 0
10, 39809, Note_on_c, 5, 72, 0
10, 39840, Note_on_c, 5, 74, 44
10, 39840, Note_on_c, 5, 70, 44
10, 39959, Note_on_c, 5, 70, 0
10, 39960, Note_on_c, 5, 65, 44
10, 40079, Note_on_c, 5, 74, 0
10, 40079, Note_on_c, 5, 65, 0
10, 40080, Note_on_c, 5, 74, 44
10, 40080, Note_on_c, 5, 77, 44
10, 40199, Note_on_c, 5, 74, 0
10, 40199, Note_on_c, 5, 77, 0
10, 40200, Note_on_c, 5, 72, 44
10, 40200, Note_on_c, 5, 75, 44
10, 40311, Note_on_c, 5, 72, 0
10, 40311, Note_on_c, 5, 75, 0
10, 40320, Note_on_c, 5, 72, 44
10, 40320, Note_on_c, 5, 65, 44
10, 40559, Note_on_c, 5, 72, 0
10, 40559, Note_on_c, 5, 65, 0
10, 40680, Note_on_c, 5, 72, 44
10, 40680, Note_on_c, 5, 65, 44
10, 40769, Note_on_c, 5, 72, 0
10, 40769, Note_on_c, 5, 65, 0
10, 40800, Note_on_c, 5, 65, 44
10, 40800, Note_on_c, 5, 72, 44
10, 40979, Note_on_c, 5, 65, 0
10, 40979, Note_on_c, 5, 72, 0
10, 41160, Note_on_c, 5, 72, 44
10, 41160, Note_on_c, 5, 65, 44
10, 41249, Note_on_c, 5, 72, 0
10, 41249, Note_on_c, 5, 65, 0
10, 41280, Note_on_c, 5, 65, 44
10, 41280, Note_on_c, 5, 70, 44
10, 41459, Note_on_c, 5, 65, 0
10, 41459, Note_on_c, 5, 70, 0
10, 41640, Note_on_c, 5, 70, 44
10, 41640, Note_on_c, 5, 65, 44
10, 41729, Note_on_c, 5, 70, 0
10, 41729, Note_on_c, 5, 65, 0
10, 41760, Note_on_c, 5, 75, 44
10, 41760, Note_on_c, 5, 72, 44
10, 41939, Note_on_c, 5, 75, 0
10, 41939, Note_on_c, 5, 72, 0
10, 42120, Note_on_c, 5, 72, 44
10, 42120, Note_on_c, 5, 65, 44
10, 42209, Note_on_c, 5, 72, 0
10, 42209, Note_on_c, 5, 65, 0
10, 42240, Note_on_c, 5, 58, 44
10, 42240, Note_on_c, 5, 70, 44
10, 42419, Note_on_c, 5, 58, 0
10, 42419, Note_on_c, 5, 70, 0
10, 42600, Note_on_c, 5, 70, 44
10, 42689, Note_on_c, 5, 70, 0
10, 42720, Note_on_c, 5, 72, 44
10, 42720, Note_on_c, 5, 70, 44
10, 42899, Note_on_c, 5, 72, 0
10, 42899, Note_on_c, 5, 70, 0
10, 43080, Note_on_c, 5, 70, 44
10, 43080, Note_on_c, 5, 72, 44
10, 43169, Note_on_c, 5, 70, 0
10, 43169, Note_on_c, 5, 72, 0
10, 43200, Note_on_c, 5, 74, 44
10, 43200, Note_on_c, 5, 70, 44
10, 43379, Note_on_c, 5, 74, 0
10, 43379, Note_on_c, 5, 70, 0
10, 43560, Note_on_c, 5, 77, 44
10, 43560, Note_on_c, 5, 65, 44
10, 43649, Note_on_c, 5, 77, 0
10, 43649, Note_on_c, 5, 65, 0
10, 43678, Control_c, 5, 11, 89
10, 43680, Note_on_c, 5, 77, 68
10, 43680, Note_on_c, 5, 65, 68
10, 43730, Control_c, 5, 11, 92
10, 43780, Control_c, 5, 11, 95
10, 43830, Control_c, 5, 11, 99
10, 43859, Note_on_c, 5, 77, 0
10, 43859, Note_on_c, 5, 65, 0
10, 43880, Control_c, 5, 11, 101
10, 43930, Control_c, 5, 11, 105
10, 43980, Control_c, 5, 11, 109
10, 44030, Control_c, 5, 11, 111
10, 44040, Note_on_c, 5, 74, 68
10, 44040, Note_on_c, 5, 70, 68
10, 44080, Control_c, 5, 11, 115
10, 44130, Control_c, 5, 11, 117
10, 44151, Note_on_c, 5, 74, 0
10, 44151, Note_on_c, 5, 70, 0
10, 44160, Note_on_c, 5, 74, 68
10, 44160, Note_on_c, 5, 70, 68
10, 44180, Control_c, 5, 11, 121
10, 44230, Control_c, 5, 11, 124
10, 44271, Note_on_c, 5, 74, 0
10, 44271, Note_on_c, 5, 70, 0
10, 44280, Note_on_c, 5, 70, 68
10, 44280, Note_on_c, 5, 74, 68
10, 44366, Control_c, 5, 11, 124
10, 44390, Control_c, 5, 11, 121
10, 44391, Note_on_c, 5, 70, 0
10, 44391, Note_on_c, 5, 74, 0
10, 44400, Note_on_c, 5, 65, 68
10, 44400, Note_on_c, 5, 72, 68
10, 44416, Control_c, 5, 11, 117
10, 44440, Control_c, 5, 11, 115
10, 44466, Control_c, 5, 11, 111
10, 44490, Control_c, 5, 11, 109
10, 44511, Note_on_c, 5, 65, 0
10, 44511, Note_on_c, 5, 72, 0
10, 44516, Control_c, 5, 11, 105
10, 44520, Note_on_c, 5, 65, 68
10, 44520, Note_on_c, 5, 53, 68
10, 44540, Control_c, 5, 11, 101
10, 44566, Control_c, 5, 11, 99
10, 44590, Control_c, 5, 11, 95
10, 44616, Control_c, 5, 11, 89
10, 44631, Note_on_c, 5, 65, 0
10, 44631, Note_on_c, 5, 53, 0
10, 44640, Control_c, 5, 11, 89
10, 44640, Note_on_c, 5, 65, 68
10, 44640, Note_on_c, 5, 53, 68
10, 44670, Control_c, 5, 11, 92
10, 44700, Control_c, 5, 11, 95
10, 44730, Control_c, 5, 11, 99
10, 44760, Control_c, 5, 11, 101
10, 44790, Control_c, 5, 11, 105
10, 44820, Control_c, 5, 11, 109
10, 44850, Control_c, 5, 11, 111
10, 44880, Control_c, 5, 11, 115
10, 44910, Control_c, 5, 11, 117
10, 44940, Control_c, 5, 11, 121
10, 44970, Control_c, 5, 11, 124
10, 45111, Note_on_c, 5, 65, 0
10, 45111, Note_on_c, 5, 53, 0
10, 45120, Control_c, 5, 11, 127
10, 45120, Note_on_c, 5, 58, 68
10, 45120, Note_on_c, 5, 65, 68
10, 45160, Control_c, 5, 11, 121
10, 45200, Control_c, 5, 11, 115
10, 45240, Control_c, 5, 11, 109
10, 45280, Control_c, 5, 11, 101
10, 45320, Control_c, 5, 11, 95
10, 45359, Note_on_c, 5, 58, 0
10, 45359, Note_on_c, 5, 65, 0
10, 45478, Control_c, 5, 11, 127
10, 45480, Note_on_c, 5, 74, 44
10, 45480, Note_on_c, 5, 70, 44
10, 45569, Note_on_c, 5, 74, 0
10, 45569, Note_on_c, 5, 70, 0
10, 45600, Note_on_c, 5, 72, 44
10, 45600, Note_on_c, 5, 65, 44
10, 45779, Note_on_c, 5, 72, 0
10, 45779, Note_on_c, 5, 65, 0
10, 45960, Note_on_c, 5, 72, 44
10, 45960, Note_on_c, 5, 65, 44
10, 46049, Note_on_c, 5, 72, 0
10, 46049, Note_on_c, 5, 65, 0
10, 46080, Note_on_c, 5, 70, 44
10, 46080, Note_on_c, 5, 65, 44
10, 46259, Note_on_c, 5, 70, 0
10, 46259, Note_on_c, 5, 65, 0
10, 46440, Note_on_c, 5, 77, 44
10, 46440, Note_on_c, 5, 65, 44
10, 46529, Note_on_c, 5, 77, 0
10, 46529, Note_on_c, 5, 65, 0
10, 46560, Note_on_c, 5, 65, 44
10, 46560, Note_on_c, 5, 75, 44
10, 46739, Note_on_c, 5, 65, 0
10, 46739, Note_on_c, 5, 75, 0
10, 46920, Note_on_c, 5, 75, 44
10, 46920, Note_on_c, 5, 65, 44
10, 47009, Note_on_c, 5, 75, 0
10, 47009, Note_on_c, 5, 65, 0
10, 47040, Note_on_c, 5, 75, 44
10, 47040, Note_on_c, 5, 65, 44
10, 47129, Note_on_c, 5, 75, 0
10, 47129, Note_on_c, 5, 65, 0
10, 47278, Control_c, 5, 11, 89
10, 47280, Note_on_c, 5, 65, 68
10, 47280, Note_on_c, 5, 74, 68
10, 47369, Note_on_c, 5, 65, 0
10, 47369, Note_on_c, 5, 74, 0
10, 47400, Note_on_c, 5, 77, 68
10, 47400, Note_on_c, 5, 65, 68
10, 47489, Note_on_c, 5, 77, 0
10, 47489, Note_on_c, 5, 65, 0
10, 47520, Note_on_c, 5, 77, 68
10, 47520, Note_on_c, 5, 70, 68
10, 47550, Control_c, 5, 11, 92
10, 47580, Control_c, 5, 11, 95
10, 47610, Control_c, 5, 11, 99
10, 47640, Control_c, 5, 11, 101
10, 47670, Control_c, 5, 11, 105
10, 47700, Control_c, 5, 11, 109
10, 47730, Control_c, 5, 11, 111
10, 47751, Note_on_c, 5, 77, 0
10, 47751, Note_on_c, 5, 70, 0
10, 47760, Note_on_c, 5, 72, 68
10, 47760, Control_c, 5, 11, 115
10, 47760, Note_on_c, 5, 75, 68
10, 47790, Control_c, 5, 11, 117
10, 47820, Control_c, 5, 11, 121
10, 47850, Control_c, 5, 11, 124
10, 48000, Control_c, 5, 11, 127
10, 48020, Control_c, 5, 11, 124
10, 48040, Control_c, 5, 11, 121
10, 48060, Control_c, 5, 11, 117
10, 48080, Control_c, 5, 11, 115
10, 48100, Control_c, 5, 11, 111
10, 48119, Note_on_c, 5, 72, 0
10, 48119, Note_on_c, 5, 75, 0
10, 48120, Note_on_c, 5, 74, 68
10, 48120, Control_c, 5, 11, 109
10, 48120, Note_on_c, 5, 70, 68
10, 48140, Control_c, 5, 11, 105
10, 48160, Control_c, 5, 11, 101
10, 48180, Control_c, 5, 11, 99
10, 48200, Control_c, 5, 11, 95
10, 48220, Control_c, 5, 11, 92
10, 48231, Note_on_c, 5, 74, 0
10, 48231, Note_on_c, 5, 70, 0
10, 48240, Note_on_c, 5, 70, 68
10, 48240, Note_on_c, 5, 75, 68
10, 48240, Control_c, 5, 11, 89
10, 48340, Control_c, 5, 11, 92
10, 48351, Note_on_c, 5, 70, 0
10, 48351, Note_on_c, 5, 75, 0
10, 48360, Note_on_c, 5, 75, 68
10, 48360, Note_on_c, 5, 70, 68
10, 48440, Control_c, 5, 11, 95
10, 48471, Note_on_c, 5, 75, 0
10, 48471, Note_on_c, 5, 70, 0
10, 48480, Note_on_c, 5, 70, 68
10, 48480, Note_on_c, 5, 75, 68
10, 48540, Control_c, 5, 11, 99
10, 48640, Control_c, 5, 11, 101
10, 48659, Note_on_c, 5, 70, 0
10, 48659, Note_on_c, 5, 75, 0
10, 48740, Control_c, 5, 11, 105
10, 48840, Note_on_c, 5, 75, 68
10, 48840, Control_c, 5, 11, 109
10, 48840, Note_on_c, 5, 70, 68
10, 48929, Note_on_c, 5, 75, 0
10, 48929, Note_on_c, 5, 70, 0
10, 48940, Control_c, 5, 11, 111
10, 48960, Note_on_c, 5, 70, 68
10, 48960, Note_on_c, 5, 72, 68
10, 49040, Control_c, 5, 11, 115
10, 49140, Control_c, 5, 11, 117
10, 49199, Note_on_c, 5, 70, 0
10, 49199, Note_on_c, 5, 72, 0
10, 49240, Control_c, 5, 11, 121
10, 49320, Note_on_c, 5, 72, 68
10, 49320, Note_on_c, 5, 70, 68
10, 49340, Control_c, 5, 11, 124
10, 49409, Note_on_c, 5, 72, 0
10, 49409, Note_on_c, 5, 70, 0
10, 49440, Control_c, 5, 11, 127
10, 49440, Note_on_c, 5, 70, 68
10, 49440, Note_on_c, 5, 72, 68
10, 49480, Control_c, 5, 11, 124
10, 49520, Control_c, 5, 11, 121
10, 49529, Note_on_c, 5, 70, 0
10, 49529, Note_on_c, 5, 72, 0
10, 49560, Note_on_c, 5, 74, 68
10, 49560, Note_on_c, 5, 70, 68
10, 49560, Control_c, 5, 11, 117
10, 49600, Control_c, 5, 11, 115
10, 49640, Control_c, 5, 11, 111
10, 49649, Note_on_c, 5, 74, 0
10, 49649, Note_on_c, 5, 70, 0
10, 49680, Control_c, 5, 11, 109
10, 49720, Control_c, 5, 11, 105
10, 49760, Control_c, 5, 11, 101
10, 49800, Note_on_c, 5, 70, 68
10, 49800, Control_c, 5, 11, 99
10, 49800, Note_on_c, 5, 74, 68
10, 49840, Control_c, 5, 11, 95
10, 49880, Control_c, 5, 11, 89
10, 49889, Note_on_c, 5, 70, 0
10, 49889, Note_on_c, 5, 74, 0
10, 49920, Note_on_c, 5, 70, 68
10, 49920, Note_on_c, 5, 74, 68
10, 50099, Note_on_c, 5, 70, 0
10, 50099, Note_on_c, 5, 74, 0
10, 50280, Note_on_c, 5, 65, 68
10, 50280, Note_on_c, 5, 72, 68
10, 50369, Note_on_c, 5, 65, 0
10, 50369, Note_on_c, 5, 72, 0
10, 50400, Note_on_c, 5, 65, 68
10, 50400, Note_on_c, 5, 72, 68
10, 50579, Note_on_c, 5, 65, 0
10, 50579, Note_on_c, 5, 72, 0
10, 50760, Note_on_c, 5, 62, 68
10, 50760, Note_on_c, 5, 70, 68
10, 50849, Note_on_c, 5, 62, 0
10, 50849, Note_on_c, 5, 70, 0
10, 50880, Note_on_c, 5, 62, 68
10, 50880, Note_on_c, 5, 70, 68
10, 50984, Note_on_c, 5, 62, 0
10, 50984, Note_on_c, 5, 70, 0
10, 51000, Note_on_c, 5, 53, 68
10, 51000, Note_on_c, 5, 65, 68
10, 51089, Note_on_c, 5, 53, 0
10, 51089, Note_on_c, 5, 65, 0
10, 51120, Note_on_c, 5, 53, 68
10, 51120, Note_on_c, 5, 65, 68
10, 51239, Note_on_c, 5, 53, 0
10, 51239, Note_on_c, 5, 65, 0
10, 51240, Note_on_c, 5, 77, 68
10, 51240, Note_on_c, 5, 65, 68
10, 51351, Note_on_c, 5, 77, 0
10, 51351, Note_on_c, 5, 65, 0
10, 51360, Note_on_c, 5, 77, 68
10, 51360, Note_on_c, 5, 65, 68
10, 51719, Note_on_c, 5, 77, 0
10, 51719, Note_on_c, 5, 65, 0
10, 51720, Note_on_c, 5, 70, 68
10, 51720, Note_on_c, 5, 58, 68
10, 51831, Note_on_c, 5, 70, 0
10, 51831, Note_on_c, 5, 58, 0
10, 51840, Note_on_c, 5, 58, 68
10, 51840, Note_on_c, 5, 70, 68
10, 52071, Note_on_c, 5, 58, 0
10, 52071, Note_on_c, 5, 70, 0
10, 52080, Note_on_c, 5, 53, 68
10, 52080, Note_on_c, 5, 65, 68
10, 52199, Note_on_c, 5, 53, 0
10, 52199, Note_on_c, 5, 65, 0
10, 52200, Note_on_c, 5, 77, 68
10, 52200, Note_on_c, 5, 65, 68
10, 52311, Note_on_c, 5, 77, 0
10, 52311, Note_on_c, 5, 65, 0
10, 52320, Note_on_c, 5, 77, 68
10, 52320, Note_on_c, 5, 65, 68
10, 52679, Note_on_c, 5, 77, 0
10, 52679, Note_on_c, 5, 65, 0
10, 52680, Note_on_c, 5, 58, 68
10, 52680, Note_on_c, 5, 70, 68
10, 52791, Note_on_c, 5, 58, 0
10, 52791, Note_on_c, 5, 70, 0
10, 52800, Note_on_c, 5, 58, 68
10, 52800, Note_on_c, 5, 70, 68
10, 52911, Note_on_c, 5, 58, 0
10, 52911, Note_on_c, 5, 70, 0
10, 52920, Note_on_c, 5, 70, 68
10, 52920, Note_on_c, 5, 74, 68
10, 53031, Note_on_c, 5, 70, 0
10, 53031, Note_on_c, 5, 74, 0
10, 53040, Note_on_c, 5, 75, 68
10, 53040, Note_on_c, 5, 70, 68
10, 53040, Control_c, 5, 11, 89
10, 53140, Control_c, 5, 11, 92
10, 53151, Note_on_c, 5, 75, 0
10, 53151, Note_on_c, 5, 70, 0
10, 53160, Note_on_c, 5, 70, 68
10, 53160, Note_on_c, 5, 75, 68
10, 53240, Control_c, 5, 11, 95
10, 53271, Note_on_c, 5, 70, 0
10, 53271, Note_on_c, 5, 75, 0
10, 53280, Note_on_c, 5, 70, 68
10, 53280, Note_on_c, 5, 75, 68
10, 53340, Control_c, 5, 11, 99
10, 53391, Note_on_c, 5, 70, 0
10, 53391, Note_on_c, 5, 75, 0
10, 53400, Note_on_c, 5, 75, 68
10, 53400, Note_on_c, 5, 70, 68
10, 53440, Control_c, 5, 11, 101
10, 53511, Note_on_c, 5, 75, 0
10, 53511, Note_on_c, 5, 70, 0
10, 53520, Note_on_c, 5, 70, 68
10, 53520, Note_on_c, 5, 75, 68
10, 53540, Control_c, 5, 11, 105
10, 53631, Note_on_c, 5, 70, 0
10, 53631, Note_on_c, 5, 75, 0
10, 53640, Control_c, 5, 11, 109
10, 53640, Note_on_c, 5, 70, 68
10, 53640, Note_on_c, 5, 75, 68
10, 53740, Control_c, 5, 11, 111
10, 53751, Note_on_c, 5, 70, 0
10, 53751, Note_on_c, 5, 75, 0
10, 53760, Note_on_c, 5, 72, 68
10, 53760, Note_on_c, 5, 70, 68
10, 53840, Control_c, 5, 11, 115
10, 53871, Note_on_c, 5, 72, 0
10, 53871, Note_on_c, 5, 70, 0
10, 53880, Note_on_c, 5, 70, 68
10, 53880, Note_on_c, 5, 72, 68
10, 53940, Control_c, 5, 11, 117
10, 53991, Note_on_c, 5, 70, 0
10, 53991, Note_on_c, 5, 72, 0
10, 54000, Note_on_c, 5, 72, 68
10, 54000, Note_on_c, 5, 70, 68
10, 54040, Control_c, 5, 11, 121
10, 54111, Note_on_c, 5, 72, 0
10, 54111, Note_on_c, 5, 70, 0
10, 54120, Note_on_c, 5, 72, 68
10, 54120, Note_on_c, 5, 70, 68
10, 54140, Control_c, 5, 11, 124
10, 54231, Note_on_c, 5, 72, 0
10, 54231, Note_on_c, 5, 70, 0
10, 54240, Note_on_c, 5, 70, 68
10, 54240, Control_c, 5, 11, 127
10, 54240, Note_on_c, 5, 72, 68
10, 54280, Control_c, 5, 11, 124
10, 54320, Control_c, 5, 11, 121
10, 54359, Note_on_c, 5, 70, 0
10, 54359, Note_on_c, 5, 72, 0
10, 54360, Note_on_c, 5, 74, 68
10, 54360, Control_c, 5, 11, 117
10, 54360, Note_on_c, 5, 70, 68
10, 54400, Control_c, 5, 11, 115
10, 54440, Control_c, 5, 11, 111
10, 54471, Note_on_c, 5, 74, 0
10, 54471, Note_on_c, 5, 70, 0
10, 54480, Control_c, 5, 11, 109
10, 54480, Note_on_c, 5, 70, 68
10, 54480, Note_on_c, 5, 74, 68
10, 54520, Control_c, 5, 11, 105
10, 54560, Control_c, 5, 11, 101
10, 54591, Note_on_c, 5, 70, 0
10, 54591, Note_on_c, 5, 74, 0
10, 54600, Note_on_c, 5, 70, 68
10, 54600, Note_on_c, 5, 74, 68
10, 54600, Control_c, 5, 11, 99
10, 54640, Control_c, 5, 11, 95
10, 54680, Control_c, 5, 11, 92
10, 54711, Note_on_c, 5, 70, 0
10, 54711, Note_on_c, 5, 74, 0
10, 54720, Note_on_c, 5, 74, 68
10, 54720, Note_on_c, 5, 70, 68
10, 54720, Control_c, 5, 11, 89
10, 54839, Note_on_c, 5, 74, 0
10, 54839, Note_on_c, 5, 70, 0
10, 54840, Note_on_c, 5, 74, 68
10, 54840, Note_on_c, 5, 77, 68
10, 54959, Note_on_c, 5, 74, 0
10, 54959, Note_on_c, 5, 77, 0
10, 54960, Note_on_c, 5, 72, 68
10, 54960, Note_on_c, 5, 75, 68
10, 55079, Note_on_c, 5, 72, 0
10, 55079, Note_on_c, 5, 75, 0
10, 55080, Note_on_c, 5, 65, 68
10, 55080, Note_on_c, 5, 72, 68
10, 55191, Note_on_c, 5, 65, 0
10, 55191, Note_on_c, 5, 72, 0
10, 55200, Control_c, 5, 11, 119
10, 55200, Note_on_c, 5, 75, 44
10, 55911, Note_on_c, 5, 75, 0
10, 55920, Note_on_c, 5, 62, 44
10, 55920, Note_on_c, 5, 74, 44
10, 56160, Control_c, 5, 11, 109
10, 56391, Note_on_c, 5, 62, 0
10, 56391, Note_on_c, 5, 74, 0
10, 56398, Control_c, 5, 11, 87
10, 56400, Note_on_c, 5, 74, 56
10, 56400, Note_on_c, 5, 62, 56
10, 57119, Note_on_c, 5, 74, 0
10, 57119, Note_on_c, 5, 62, 0
10, 57120, Note_on_c, 5, 74, 56
10, 57120, Note_on_c, 5, 62, 56
10, 57120, Control_c, 5, 11, 87
10, 57174, Control_c, 5, 11, 88
10, 57228, Control_c, 5, 11, 89
10, 57282, Control_c, 5, 11, 90
10, 57336, Control_c, 5, 11, 91
10, 57390, Control_c, 5, 11, 92
10, 57444, Control_c, 5, 11, 93
10, 57498, Control_c, 5, 11, 94
10, 57552, Control_c, 5, 11, 95
10, 57606, Control_c, 5, 11, 96
10, 57660, Control_c, 5, 11, 97
10, 57714, Control_c, 5, 11, 98
10, 57768, Control_c, 5, 11, 99
10, 57822, Control_c, 5, 11, 100
10, 57876, Control_c, 5, 11, 101
10, 57930, Control_c, 5, 11, 102
10, 57984, Control_c, 5, 11, 103
10, 58038, Control_c, 5, 11, 104
10, 58092, Control_c, 5, 11, 105
10, 58146, Control_c, 5, 11, 106
10, 58200, Control_c, 5, 11, 107
10, 58254, Control_c, 5, 11, 108
10, 58308, Control_c, 5, 11, 109
10, 58362, Control_c, 5, 11, 110
10, 58416, Control_c, 5, 11, 111
10, 58470, Control_c, 5, 11, 112
10, 58524, Control_c, 5, 11, 113
10, 58559, Note_on_c, 5, 74, 0
10, 58559, Note_on_c, 5, 62, 0
10, 58560, Note_on_c, 5, 62, 56
10, 58560, Note_on_c, 5, 74, 56
10, 58578, Control_c, 5, 11, 114
10, 58632, Control_c, 5, 11, 115
10, 58686, Control_c, 5, 11, 116
10, 58740, Control_c, 5, 11, 117
10, 58794, Control_c, 5, 11, 118
10, 58848, Control_c, 5, 11, 119
10, 58902, Control_c, 5, 11, 120
10, 58956, Control_c, 5, 11, 121
10, 59010, Control_c, 5, 11, 122
10, 59064, Control_c, 5, 11, 123
10, 59118, Control_c, 5, 11, 124
10, 59172, Control_c, 5, 11, 125
10, 59226, Control_c, 5, 11, 127
10, 59310, Control_c, 5, 11, 124
10, 59340, Control_c, 5, 11, 121
10, 59370, Control_c, 5, 11, 117
10, 59400, Control_c, 5, 11, 115
10, 59430, Control_c, 5, 11, 111
10, 59460, Control_c, 5, 11, 109
10, 59490, Control_c, 5, 11, 105
10, 59520, Control_c, 5, 11, 101
10, 59550, Control_c, 5, 11, 99
10, 59580, Control_c, 5, 11, 95
10, 59610, Control_c, 5, 11, 92
10, 59999, Note_on_c, 5, 62, 0
10, 59999, Note_on_c, 5, 74, 0
10, 60000, Note_on_c, 5, 62, 56
10, 60000, Control_c, 5, 11, 87
10, 60000, Note_on_c, 5, 74, 56
10, 60036, Control_c, 5, 11, 88
10, 60072, Control_c, 5, 11, 89
10, 60108, Control_c, 5, 11, 90
10, 60144, Control_c, 5, 11, 91
10, 60180, Control_c, 5, 11, 92
10, 60216, Control_c, 5, 11, 93
10, 60252, Control_c, 5, 11, 94
10, 60288, Control_c, 5, 11, 95
10, 60324, Control_c, 5, 11, 96
10, 60360, Control_c, 5, 11, 97
10, 60396, Control_c, 5, 11, 98
10, 60432, Control_c, 5, 11, 99
10, 60468, Control_c, 5, 11, 100
10, 60504, Control_c, 5, 11, 101
10, 60540, Control_c, 5, 11, 102
10, 60576, Control_c, 5, 11, 103
10, 60612, Control_c, 5, 11, 104
10, 60648, Control_c, 5, 11, 105
10, 60684, Control_c, 5, 11, 106
10, 60720, Control_c, 5, 11, 107
10, 60756, Control_c, 5, 11, 108
10, 60792, Control_c, 5, 11, 109
10, 60828, Control_c, 5, 11, 110
10, 60864, Control_c, 5, 11, 111
10, 60900, Control_c, 5, 11, 112
10, 60936, Control_c, 5, 11, 113
10, 60972, Control_c, 5, 11, 114
10, 61008, Control_c, 5, 11, 115
10, 61044, Control_c, 5, 11, 116
10, 61080, Control_c, 5, 11, 117
10, 61116, Control_c, 5, 11, 118
10, 61152, Control_c, 5, 11, 119
10, 61188, Control_c, 5, 11, 120
10, 61224, Control_c, 5, 11, 121
10, 61260, Control_c, 5, 11, 122
10, 61296, Control_c, 5, 11, 123
10, 61332, Control_c, 5, 11, 124
10, 61368, Control_c, 5, 11, 125
10, 61404, Control_c, 5, 11, 126
10, 61439, Note_on_c, 5, 62, 0
10, 61439, Note_on_c, 5, 74, 0
10, 61440, Note_on_c, 5, 74, 56
10, 61440, Note_on_c, 5, 62, 56
10, 61560, Control_c, 5, 11, 127
10, 61590, Control_c, 5, 11, 124
10, 61620, Control_c, 5, 11, 121
10, 61650, Control_c, 5, 11, 117
10, 61680, Control_c, 5, 11, 115
10, 61710, Control_c, 5, 11, 111
10, 61740, Control_c, 5, 11, 109
10, 61770, Control_c, 5, 11, 105
10, 61800, Control_c, 5, 11, 101
10, 61830, Control_c, 5, 11, 99
10, 61860, Control_c, 5, 11, 95
10, 61890, Control_c, 5, 11, 92
10, 62160, Control_c, 5, 11, 89
10, 62250, Control_c, 5, 11, 87
10, 62340, Control_c, 5, 11, 86
10, 62430, Control_c, 5, 11, 85
10, 62520, Control_c, 5, 11, 84
10, 62610, Control_c, 5, 11, 82
10, 62700, Control_c, 5, 11, 81
10, 62751, Note_on_c, 5, 74, 0
10, 62751, Note_on_c, 5, 62, 0
10, 62760, Note_on_c, 5, 62, 56
10, 62760, Note_on_c, 5, 74, 56
10, 62790, Control_c, 5, 11, 79
10, 62991, Note_on_c, 5, 62, 0
10, 62991, Note_on_c, 5, 74, 0
10, 62998, Control_c, 5, 11, 87
10, 63000, Control_c, 5, 11, 87
10, 63000, Note_on_c, 5, 62, 56
10, 63000, Note_on_c, 5, 74, 56
10, 63085, Control_c, 5, 11, 89
10, 63111, Note_on_c, 5, 62, 0
10, 63111, Note_on_c, 5, 74, 0
10, 63120, Note_on_c, 5, 62, 56
10, 63170, Control_c, 5, 11, 90
10, 63231, Note_on_c, 5, 62, 0
10, 63240, Note_on_c, 5, 74, 56
10, 63255, Control_c, 5, 11, 92
10, 63340, Control_c, 5, 11, 94
10, 63351, Note_on_c, 5, 74, 0
10, 63360, Note_on_c, 5, 62, 56
10, 63425, Control_c, 5, 11, 95
10, 63471, Note_on_c, 5, 62, 0
10, 63480, Note_on_c, 5, 74, 56
10, 63510, Control_c, 5, 11, 97
10, 63591, Note_on_c, 5, 74, 0
10, 63595, Control_c, 5, 11, 99
10, 63600, Note_on_c, 5, 62, 56
10, 63680, Control_c, 5, 11, 100
10, 63711, Note_on_c, 5, 62, 0
10, 63720, Note_on_c, 5, 74, 56
10, 63765, Control_c, 5, 11, 102
10, 63831, Note_on_c, 5, 74, 0
10, 63840, Note_on_c, 5, 62, 56
10, 63850, Control_c, 5, 11, 104
10, 63935, Control_c, 5, 11, 105
10, 63951, Note_on_c, 5, 62, 0
10, 63960, Note_on_c, 5, 74, 56
10, 64020, Control_c, 5, 11, 107
10, 64071, Note_on_c, 5, 74, 0
10, 64080, Note_on_c, 5, 62, 56
10, 64105, Control_c, 5, 11, 109
10, 64190, Control_c, 5, 11, 110
10, 64191, Note_on_c, 5, 62, 0
10, 64200, Note_on_c, 5, 74, 56
10, 64275, Control_c, 5, 11, 112
10, 64311, Note_on_c, 5, 74, 0
10, 64320, Note_on_c, 5, 62, 56
10, 64360, Control_c, 5, 11, 114
10, 64431, Note_on_c, 5, 62, 0
10, 64440, Note_on_c, 5, 74, 56
10, 64445, Control_c, 5, 11, 115
10, 64530, Control_c, 5, 11, 117
10, 64551, Note_on_c, 5, 74, 0
10, 64560, Note_on_c, 5, 62, 56
10, 64615, Control_c, 5, 11, 119
10, 64671, Note_on_c, 5, 62, 0
10, 64680, Note_on_c, 5, 74, 56
10, 64700, Control_c, 5, 11, 120
10, 64785, Control_c, 5, 11, 122
10, 64791, Note_on_c, 5, 74, 0
10, 64800, Note_on_c, 5, 62, 56
10, 64870, Control_c, 5, 11, 124
10, 64911, Note_on_c, 5, 62, 0
10, 64920, Note_on_c, 5, 74, 56
10, 64955, Control_c, 5, 11, 125
10, 65031, Note_on_c, 5, 74, 0
10, 65038, Control_c, 5, 11, 127
10, 65040, Note_on_c, 5, 62, 56
10, 65151, Note_on_c, 5, 62, 0
10, 65160, Note_on_c, 5, 74, 56
10, 65271, Note_on_c, 5, 74, 0
10, 65280, Note_on_c, 5, 62, 56
10, 65391, Note_on_c, 5, 62, 0
10, 65400, Control_c, 5, 11, 127
10, 65400, Note_on_c, 5, 74, 56
10, 65420, Control_c, 5, 11, 124
10, 65440, Control_c, 5, 11, 121
10, 65460, Control_c, 5, 11, 117
10, 65480, Control_c, 5, 11, 115
10, 65500, Control_c, 5, 11, 111
10, 65511, Note_on_c, 5, 74, 0
10, 65520, Note_on_c, 5, 62, 56
10, 65520, Control_c, 5, 11, 109
10, 65540, Control_c, 5, 11, 105
10, 65560, Control_c, 5, 11, 101
10, 65580, Control_c, 5, 11, 99
10, 65600, Control_c, 5, 11, 95
10, 65620, Control_c, 5, 11, 92
10, 65631, Note_on_c, 5, 62, 0
10, 65640, Note_on_c, 5, 74, 56
10, 65751, Note_on_c, 5, 74, 0
10, 65758, Control_c, 5, 11, 69
10, 65760, Note_on_c, 5, 62, 68
10, 65871, Note_on_c, 5, 62, 0
10, 65880, Note_on_c, 5, 74, 68
10, 65880, Control_c, 5, 11, 69
10, 65990, Control_c, 5, 11, 74
10, 65991, Note_on_c, 5, 74, 0
10, 66000, Note_on_c, 5, 62, 68
10, 66100, Control_c, 5, 11, 79
10, 66111, Note_on_c, 5, 62, 0
10, 66120, Note_on_c, 5, 74, 68
10, 66210, Control_c, 5, 11, 84
10, 66231, Note_on_c, 5, 74, 0
10, 66240, Note_on_c, 5, 62, 68
10, 66320, Control_c, 5, 11, 89
10, 66351, Note_on_c, 5, 62, 0
10, 66360, Note_on_c, 5, 74, 68
10, 66430, Control_c, 5, 11, 94
10, 66471, Note_on_c, 5, 74, 0
10, 66480, Note_on_c, 5, 62, 68
10, 66540, Control_c, 5, 11, 99
10, 66591, Note_on_c, 5, 62, 0
10, 66600, Note_on_c, 5, 74, 68
10, 66650, Control_c, 5, 11, 102
10, 66711, Note_on_c, 5, 74, 0
10, 66720, Note_on_c, 5, 62, 68
10, 66760, Control_c, 5, 11, 107
10, 66831, Note_on_c, 5, 62, 0
10, 66840, Note_on_c, 5, 74, 68
10, 66870, Control_c, 5, 11, 112
10, 66951, Note_on_c, 5, 74, 0
10, 66960, Note_on_c, 5, 62, 68
10, 66980, Control_c, 5, 11, 117
10, 67071, Note_on_c, 5, 62, 0
10, 67080, Note_on_c, 5, 74, 68
10, 67090, Control_c, 5, 11, 122
10, 67191, Note_on_c, 5, 74, 0
10, 67200, Control_c, 5, 11, 127
10, 67200, Note_on_c, 5, 62, 68
10, 67311, Note_on_c, 5, 62, 0
10, 67320, Note_on_c, 5, 74, 68
10, 67431, Note_on_c, 5, 74, 0
10, 67440, Note_on_c, 5, 62, 68
10, 67551, Note_on_c, 5, 62, 0
10, 67560, Control_c, 5, 11, 127
10, 67560, Note_on_c, 5, 74, 68
10, 67580, Control_c, 5, 11, 124
10, 67600, Control_c, 5, 11, 121
10, 67620, Control_c, 5, 11, 117
10, 67640, Control_c, 5, 11, 115
10, 67660, Control_c, 5, 11, 111
10, 67671, Note_on_c, 5, 74, 0
10, 67680, Control_c, 5, 11, 109
10, 67680, Note_on_c, 5, 62, 68
10, 67700, Control_c, 5, 11, 105
10, 67720, Control_c, 5, 11, 101
10, 67740, Control_c, 5, 11, 99
10, 67760, Control_c, 5, 11, 95
10, 67780, Control_c, 5, 11, 92
10, 67791, Note_on_c, 5, 62, 0
10, 67800, Note_on_c, 5, 74, 68
10, 67911, Note_on_c, 5, 74, 0
10, 67920, Note_on_c, 5, 62, 68
10, 67920, Control_c, 5, 11, 89
10, 68031, Note_on_c, 5, 62, 0
10, 68040, Note_on_c, 5, 74, 68
10, 68040, Control_c, 5, 11, 87
10, 68151, Note_on_c, 5, 74, 0
10, 68160, Note_on_c, 5, 62, 68
10, 68160, Control_c, 5, 11, 85
10, 68271, Note_on_c, 5, 62, 0
10, 68280, Note_on_c, 5, 74, 68
10, 68280, Control_c, 5, 11, 84
10, 68391, Note_on_c, 5, 74, 0
10, 68400, Note_on_c, 5, 62, 68
10, 68400, Control_c, 5, 11, 82
10, 68511, Note_on_c, 5, 62, 0
10, 68520, Control_c, 5, 11, 80
10, 68520, Note_on_c, 5, 74, 68
10, 68631, Note_on_c, 5, 74, 0
10, 68640, Note_on_c, 5, 62, 68
10, 68640, Control_c, 5, 11, 79
10, 68759, Note_on_c, 5, 62, 0
10, 68760, Note_on_c, 5, 74, 68
10, 68760, Control_c, 5, 11, 77
10, 68879, Note_on_c, 5, 74, 0
10, 68880, Note_on_c, 5, 62, 68
10, 68880, Control_c, 5, 11, 75
10, 68999, Note_on_c, 5, 62, 0
10, 69000, Control_c, 5, 11, 74
10, 69000, Note_on_c, 5, 74, 68
10, 69119, Note_on_c, 5, 74, 0
10, 69120, Control_c, 5, 11, 72
10, 69120, Note_on_c, 5, 75, 68
10, 69240, Control_c, 5, 11, 70
10, 69360, Control_c, 5, 11, 69
10, 69600, Note_on_c, 5, 70, 68
10, 69839, Note_on_c, 5, 75, 0
10, 69839, Note_on_c, 5, 70, 0
10, 69840, Note_on_c, 5, 70, 68
10, 69840, Note_on_c, 5, 77, 68
10, 70071, Note_on_c, 5, 70, 0
10, 70071, Note_on_c, 5, 77, 0
10, 70080, Note_on_c, 5, 75, 68
10, 70080, Note_on_c, 5, 70, 68
10, 70319, Note_on_c, 5, 75, 0
10, 70319, Note_on_c, 5, 70, 0
10, 84682, Control_c, 5, 11, 112
10, 84720, Note_on_c, 5, 58, 68
10, 84720, Note_on_c, 5, 70, 68
10, 84733, Control_c, 5, 11, 113
10, 84783, Control_c, 5, 11, 114
10, 84834, Control_c, 5, 11, 115
10, 84884, Control_c, 5, 11, 116
10, 84935, Control_c, 5, 11, 117
10, 84985, Control_c, 5, 11, 118
10, 85036, Control_c, 5, 11, 119
10, 85086, Control_c, 5, 11, 120
10, 85137, Control_c, 5, 11, 121
10, 85187, Control_c, 5, 11, 122
10, 85191, Note_on_c, 5, 58, 0
10, 85191, Note_on_c, 5, 70, 0
10, 85200, Note_on_c, 5, 70, 68
10, 85200, Note_on_c, 5, 74, 68
10, 85238, Control_c, 5, 11, 123
10, 85288, Control_c, 5, 11, 124
10, 85339, Control_c, 5, 11, 125
10, 85389, Control_c, 5, 11, 126
10, 85440, Control_c, 5, 11, 89
10, 86151, Note_on_c, 5, 70, 0
10, 86151, Note_on_c, 5, 74, 0
10, 86160, Note_on_c, 5, 72, 68
10, 86160, Note_on_c, 5, 65, 68
10, 86871, Note_on_c, 5, 72, 0
10, 86871, Note_on_c, 5, 65, 0
10, 86880, Note_on_c, 5, 70, 68
10, 86880, Note_on_c, 5, 62, 68
10, 87591, Note_on_c, 5, 70, 0
10, 87591, Note_on_c, 5, 62, 0
10, 87600, Note_on_c, 5, 65, 68
10, 87600, Note_on_c, 5, 72, 68
10, 88311, Note_on_c, 5, 65, 0
10, 88311, Note_on_c, 5, 72, 0
10, 88320, Note_on_c, 5, 65, 68
10, 88320, Note_on_c, 5, 74, 68
10, 88320, Control_c, 5, 11, 89
10, 88339, Control_c, 5, 11, 90
10, 88358, Control_c, 5, 11, 91
10, 88377, Control_c, 5, 11, 92
10, 88396, Control_c, 5, 11, 93
10, 88415, Control_c, 5, 11, 94
10, 88434, Control_c, 5, 11, 95
10, 88453, Control_c, 5, 11, 96
10, 88472, Control_c, 5, 11, 97
10, 88491, Control_c, 5, 11, 98
10, 88509, Control_c, 5, 11, 99
10, 88528, Control_c, 5, 11, 100
10, 88547, Control_c, 5, 11, 101
10, 88566, Control_c, 5, 11, 102
10, 88585, Control_c, 5, 11, 103
10, 88604, Control_c, 5, 11, 104
10, 88623, Control_c, 5, 11, 105
10, 88642, Control_c, 5, 11, 106
10, 88661, Control_c, 5, 11, 107
10, 88671, Note_on_c, 5, 65, 0
10, 88671, Note_on_c, 5, 74, 0
10, 88680, Control_c, 5, 11, 108
10, 88680, Note_on_c, 5, 65, 68
10, 88680, Note_on_c, 5, 72, 68
10, 88699, Control_c, 5, 11, 109
10, 88718, Control_c, 5, 11, 110
10, 88737, Control_c, 5, 11, 111
10, 88756, Control_c, 5, 11, 112
10, 88775, Control_c, 5, 11, 113
10, 88794, Control_c, 5, 11, 114
10, 88813, Control_c, 5, 11, 115
10, 88832, Control_c, 5, 11, 116
10, 88851, Control_c, 5, 11, 117
10, 88869, Control_c, 5, 11, 118
10, 88888, Control_c, 5, 11, 119
10, 88907, Control_c, 5, 11, 120
10, 88926, Control_c, 5, 11, 121
10, 88945, Control_c, 5, 11, 122
10, 88964, Control_c, 5, 11, 123
10, 88983, Control_c, 5, 11, 124
10, 89002, Control_c, 5, 11, 125
10, 89021, Control_c, 5, 11, 126
10, 89031, Note_on_c, 5, 65, 0
10, 89031, Note_on_c, 5, 72, 0
10, 89040, Note_on_c, 5, 70, 68
10, 89040, Control_c, 5, 11, 127
10, 89040, Note_on_c, 5, 58, 68
10, 89059, Control_c, 5, 11, 126
10, 89078, Control_c, 5, 11, 125
10, 89097, Control_c, 5, 11, 124
10, 89116, Control_c, 5, 11, 123
10, 89135, Control_c, 5, 11, 122
10, 89154, Control_c, 5, 11, 121
10, 89173, Control_c, 5, 11, 120
10, 89192, Control_c, 5, 11, 119
10, 89211, Control_c, 5, 11, 118
10, 89229, Control_c, 5, 11, 117
10, 89248, Control_c, 5, 11, 116
10, 89267, Control_c, 5, 11, 115
10, 89286, Control_c, 5, 11, 114
10, 89305, Control_c, 5, 11, 113
10, 89324, Control_c, 5, 11, 112
10, 89343, Control_c, 5, 11, 111
10, 89362, Control_c, 5, 11, 110
10, 89381, Control_c, 5, 11, 109
10, 89400, Control_c, 5, 11, 108
10, 89419, Control_c, 5, 11, 107
10, 89438, Control_c, 5, 11, 106
10, 89457, Control_c, 5, 11, 105
10, 89476, Control_c, 5, 11, 104
10, 89495, Control_c, 5, 11, 103
10, 89514, Control_c, 5, 11, 102
10, 89533, Control_c, 5, 11, 101
10, 89552, Control_c, 5, 11, 100
10, 89571, Control_c, 5, 11, 99
10, 89589, Control_c, 5, 11, 98
10, 89608, Control_c, 5, 11, 97
10, 89627, Control_c, 5, 11, 96
10, 89631, Note_on_c, 5, 70, 0
10, 89631, Note_on_c, 5, 58, 0
10, 89640, Note_on_c, 5, 70, 68
10, 89640, Note_on_c, 5, 72, 68
10, 89646, Control_c, 5, 11, 95
10, 89665, Control_c, 5, 11, 94
10, 89684, Control_c, 5, 11, 93
10, 89703, Control_c, 5, 11, 92
10, 89722, Control_c, 5, 11, 91
10, 89741, Control_c, 5, 11, 89
10, 89751, Note_on_c, 5, 70, 0
10, 89751, Note_on_c, 5, 72, 0
10, 89760, Control_c, 5, 11, 89
10, 89760, Note_on_c, 5, 70, 68
10, 89760, Note_on_c, 5, 74, 68
10, 89779, Control_c, 5, 11, 90
10, 89798, Control_c, 5, 11, 91
10, 89817, Control_c, 5, 11, 92
10, 89836, Control_c, 5, 11, 93
10, 89855, Control_c, 5, 11, 94
10, 89874, Control_c, 5, 11, 95
10, 89893, Control_c, 5, 11, 96
10, 89912, Control_c, 5, 11, 97
10, 89931, Control_c, 5, 11, 98
10, 89949, Control_c, 5, 11, 99
10, 89968, Control_c, 5, 11, 100
10, 89987, Control_c, 5, 11, 101
10, 90006, Control_c, 5, 11, 102
10, 90025, Control_c, 5, 11, 103
10, 90044, Control_c, 5, 11, 104
10, 90063, Control_c, 5, 11, 105
10, 90082, Control_c, 5, 11, 106
10, 90101, Control_c, 5, 11, 107
10, 90119, Note_on_c, 5, 70, 0
10, 90119, Note_on_c, 5, 74, 0
10, 90120, Control_c, 5, 11, 108
10, 90120, Note_on_c, 5, 77, 68
10, 90120, Note_on_c, 5, 74, 68
10, 90139, Control_c, 5, 11, 109
10, 90158, Control_c, 5, 11, 110
10, 90177, Control_c, 5, 11, 111
10, 90196, Control_c, 5, 11, 112
10, 90215, Control_c, 5, 11, 113
10, 90234, Control_c, 5, 11, 114
10, 90253, Control_c, 5, 11, 115
10, 90272, Control_c, 5, 11, 116
10, 90291, Control_c, 5, 11, 117
10, 90309, Control_c, 5, 11, 118
10, 90328, Control_c, 5, 11, 119
10, 90347, Control_c, 5, 11, 120
10, 90359, Note_on_c, 5, 77, 0
10, 90359, Note_on_c, 5, 74, 0
10, 90360, Note_on_c, 5, 72, 68
10, 90360, Note_on_c, 5, 75, 68
10, 90366, Control_c, 5, 11, 121
10, 90385, Control_c, 5, 11, 122
10, 90404, Control_c, 5, 11, 123
10, 90423, Control_c, 5, 11, 124
10, 90442, Control_c, 5, 11, 125
10, 90461, Control_c, 5, 11, 126
10, 90471, Note_on_c, 5, 72, 0
10, 90471, Note_on_c, 5, 75, 0
10, 90480, Note_on_c, 5, 72, 68
10, 90480, Note_on_c, 5, 65, 68
10, 90480, Control_c, 5, 11, 127
10, 90499, Control_c, 5, 11, 126
10, 90518, Control_c, 5, 11, 125
10, 90537, Control_c, 5, 11, 124
10, 90556, Control_c, 5, 11, 123
10, 90575, Control_c, 5, 11, 122
10, 90594, Control_c, 5, 11, 121
10, 90613, Control_c, 5, 11, 120
10, 90632, Control_c, 5, 11, 119
10, 90651, Control_c, 5, 11, 118
10, 90669, Control_c, 5, 11, 117
10, 90688, Control_c, 5, 11, 116
10, 90707, Control_c, 5, 11, 115
10, 90726, Control_c, 5, 11, 114
10, 90745, Control_c, 5, 11, 113
10, 90764, Control_c, 5, 11, 112
10, 90783, Control_c, 5, 11, 111
10, 90802, Control_c, 5, 11, 110
10, 90821, Control_c, 5, 11, 109
10, 90840, Control_c, 5, 11, 108
10, 90859, Control_c, 5, 11, 107
10, 90878, Control_c, 5, 11, 106
10, 90897, Control_c, 5, 11, 105
10, 90916, Control_c, 5, 11, 104
10, 90935, Control_c, 5, 11, 103
10, 90951, Note_on_c, 5, 72, 0
10, 90951, Note_on_c, 5, 65, 0
10, 90954, Control_c, 5, 11, 102
10, 90960, Note_on_c, 5, 65, 68
10, 90960, Note_on_c, 5, 77, 68
10, 90973, Control_c, 5, 11, 101
10, 90992, Control_c, 5, 11, 100
10, 91011, Control_c, 5, 11, 99
10, 91029, Control_c, 5, 11, 98
10, 91048, Control_c, 5, 11, 97
10, 91067, Control_c, 5, 11, 96
10, 91071, Note_on_c, 5, 65, 0
10, 91071, Note_on_c, 5, 77, 0
10, 91080, Note_on_c, 5, 77, 68
10, 91080, Note_on_c, 5, 65, 68
10, 91086, Control_c, 5, 11, 95
10, 91105, Control_c, 5, 11, 94
10, 91124, Control_c, 5, 11, 93
10, 91143, Control_c, 5, 11, 92
10, 91162, Control_c, 5, 11, 91
10, 91181, Control_c, 5, 11, 89
10, 91191, Note_on_c, 5, 77, 0
10, 91191, Note_on_c, 5, 65, 0
10, 91200, Control_c, 5, 11, 89
10, 91200, Note_on_c, 5, 65, 68
10, 91200, Note_on_c, 5, 77, 68
10, 91228, Control_c, 5, 11, 90
10, 91257, Control_c, 5, 11, 91
10, 91285, Control_c, 5, 11, 92
10, 91314, Control_c, 5, 11, 93
10, 91342, Control_c, 5, 11, 94
10, 91371, Control_c, 5, 11, 95
10, 91399, Control_c, 5, 11, 96
10, 91427, Control_c, 5, 11, 97
10, 91456, Control_c, 5, 11, 98
10, 91484, Control_c, 5, 11, 99
10, 91513, Control_c, 5, 11, 100
10, 91541, Control_c, 5, 11, 101
10, 91569, Control_c, 5, 11, 102
10, 91598, Control_c, 5, 11, 103
10, 91626, Control_c, 5, 11, 104
10, 91655, Control_c, 5, 11, 105
10, 91683, Control_c, 5, 11, 106
10, 91712, Control_c, 5, 11, 107
10, 91740, Control_c, 5, 11, 108
10, 91768, Control_c, 5, 11, 109
10, 91797, Control_c, 5, 11, 110
10, 91825, Control_c, 5, 11, 111
10, 91854, Control_c, 5, 11, 112
10, 91882, Control_c, 5, 11, 113
10, 91911, Control_c, 5, 11, 114
10, 91939, Control_c, 5, 11, 115
10, 91967, Control_c, 5, 11, 116
10, 91996, Control_c, 5, 11, 117
10, 92024, Control_c, 5, 11, 118
10, 92053, Control_c, 5, 11, 119
10, 92081, Control_c, 5, 11, 120
10, 92109, Control_c, 5, 11, 121
10, 92138, Control_c, 5, 11, 122
10, 92166, Control_c, 5, 11, 123
10, 92195, Control_c, 5, 11, 124
10, 92223, Control_c, 5, 11, 125
10, 92252, Control_c, 5, 11, 127
10, 92280, Control_c, 5, 11, 127
10, 92295, Control_c, 5, 11, 125
10, 92310, Control_c, 5, 11, 124
10, 92325, Control_c, 5, 11, 122
10, 92340, Control_c, 5, 11, 121
10, 92355, Control_c, 5, 11, 119
10, 92370, Control_c, 5, 11, 118
10, 92385, Control_c, 5, 11, 116
10, 92391, Note_on_c, 5, 65, 0
10, 92391, Note_on_c, 5, 77, 0
10, 92400, Note_on_c, 5, 53, 68
10, 92400, Control_c, 5, 11, 114
10, 92400, Note_on_c, 5, 65, 68
10, 92415, Control_c, 5, 11, 113
10, 92430, Control_c, 5, 11, 111
10, 92445, Control_c, 5, 11, 110
10, 92460, Control_c, 5, 11, 108
10, 92475, Control_c, 5, 11, 106
10, 92490, Control_c, 5, 11, 105
10, 92505, Control_c, 5, 11, 103
10, 92511, Note_on_c, 5, 53, 0
10, 92511, Note_on_c, 5, 65, 0
10, 92520, Control_c, 5, 11, 102
10, 92520, Note_on_c, 5, 53, 68
10, 92520, Note_on_c, 5, 65, 68
10, 92535, Control_c, 5, 11, 100
10, 92550, Control_c, 5, 11, 99
10, 92565, Control_c, 5, 11, 97
10, 92580, Control_c, 5, 11, 95
10, 92595, Control_c, 5, 11, 94
10, 92610, Control_c, 5, 11, 92
10, 92625, Control_c, 5, 11, 89
10, 92631, Note_on_c, 5, 53, 0
10, 92631, Note_on_c, 5, 65, 0
10, 92640, Note_on_c, 5, 53, 68
10, 92640, Note_on_c, 5, 65, 68
10, 94079, Note_on_c, 5, 53, 0
10, 94079, Note_on_c, 5, 65, 0
10, 94080, Note_on_c, 5, 65, 68
10, 94080, Note_on_c, 5, 53, 68
10, 95031, Note_on_c, 5, 65, 0
10, 95031, Note_on_c, 5, 53, 0
10, 95040, Note_on_c, 5, 70, 68
10, 95040, Note_on_c, 5, 58, 68
10, 95151, Note_on_c, 5, 70, 0
10, 95151, Note_on_c, 5, 58, 0
10, 95160, Note_on_c, 5, 70, 68
10, 95160, Note_on_c, 5, 58, 68
10, 96591, Note_on_c, 5, 70, 0
10, 96591, Note_on_c, 5, 58, 0
10, 96600, Note_on_c, 5, 53, 68
10, 96600, Note_on_c, 5, 65, 68
10, 96951, Note_on_c, 5, 53, 0
10, 96951, Note_on_c, 5, 65, 0
10, 96960, Note_on_c, 5, 53, 68
10, 96960, Note_on_c, 5, 65, 68
10, 97679, Note_on_c, 5, 53, 0
10, 97680, Note_on_c, 5, 58, 68
10, 97919, Note_on_c, 5, 65, 0
10, 97919, Note_on_c, 5, 58, 0
10, 98040, Note_on_c, 5, 53, 68
10, 98040, Note_on_c, 5, 65, 68
10, 98271, Note_on_c, 5, 53, 0
10, 98271, Note_on_c, 5, 65, 0
10, 98280, Note_on_c, 5, 53, 68
10, 98280, Note_on_c, 5, 65, 68
10, 98391, Note_on_c, 5, 53, 0
10, 98391, Note_on_c, 5, 65, 0
10, 98400, Note_on_c, 5, 53, 68
10, 98400, Note_on_c, 5, 65, 68
10, 98400, Control_c, 5, 11, 89
10, 98419, Control_c, 5, 11, 90
10, 98438, Control_c, 5, 11, 91
10, 98457, Control_c, 5, 11, 92
10, 98476, Control_c, 5, 11, 93
10, 98495, Control_c, 5, 11, 94
10, 98514, Control_c, 5, 11, 95
10, 98533, Control_c, 5, 11, 96
10, 98552, Control_c, 5, 11, 97
10, 98571, Control_c, 5, 11, 98
10, 98589, Control_c, 5, 11, 99
10, 98608, Control_c, 5, 11, 100
10, 98627, Control_c, 5, 11, 101
10, 98646, Control_c, 5, 11, 102
10, 98665, Control_c, 5, 11, 103
10, 98684, Control_c, 5, 11, 104
10, 98703, Control_c, 5, 11, 105
10, 98722, Control_c, 5, 11, 106
10, 98741, Control_c, 5, 11, 107
10, 98760, Control_c, 5, 11, 108
10, 98779, Control_c, 5, 11, 109
10, 98798, Control_c, 5, 11, 110
10, 98817, Control_c, 5, 11, 111
10, 98836, Control_c, 5, 11, 112
10, 98855, Control_c, 5, 11, 113
10, 98874, Control_c, 5, 11, 114
10, 98893, Control_c, 5, 11, 115
10, 98912, Control_c, 5, 11, 116
10, 98931, Control_c, 5, 11, 117
10, 98949, Control_c, 5, 11, 118
10, 98968, Control_c, 5, 11, 119
10, 98987, Control_c, 5, 11, 120
10, 99006, Control_c, 5, 11, 121
10, 99025, Control_c, 5, 11, 122
10, 99044, Control_c, 5, 11, 123
10, 99063, Control_c, 5, 11, 124
10, 99082, Control_c, 5, 11, 125
10, 99101, Control_c, 5, 11, 126
10, 99111, Note_on_c, 5, 53, 0
10, 99111, Note_on_c, 5, 65, 0
10, 99120, Note_on_c, 5, 65, 68
10, 99120, Control_c, 5, 11, 127
10, 99120, Note_on_c, 5, 58, 68
10, 99135, Control_c, 5, 11, 125
10, 99150, Control_c, 5, 11, 124
10, 99165, Control_c, 5, 11, 122
10, 99180, Control_c, 5, 11, 120
10, 99195, Control_c, 5, 11, 119
10, 99210, Control_c, 5, 11, 117
10, 99225, Control_c, 5, 11, 115
10, 99240, Control_c, 5, 11, 114
10, 99255, Control_c, 5, 11, 112
10, 99270, Control_c, 5, 11, 110
10, 99285, Control_c, 5, 11, 109
10, 99300, Control_c, 5, 11, 107
10, 99315, Control_c, 5, 11, 105
10, 99330, Control_c, 5, 11, 104
10, 99345, Control_c, 5, 11, 102
10, 99360, Control_c, 5, 11, 100
10, 99375, Control_c, 5, 11, 99
10, 99390, Control_c, 5, 11, 97
10, 99405, Control_c, 5, 11, 95
10, 99420, Control_c, 5, 11, 94
10, 99435, Control_c, 5, 11, 92
10, 99450, Control_c, 5, 11, 90
10, 99465, Control_c, 5, 11, 89
10, 99471, Note_on_c, 5, 65, 0
10, 99471, Note_on_c, 5, 58, 0
10, 99480, Note_on_c, 5, 53, 68
10, 99480, Note_on_c, 5, 65, 68
10, 101279, Note_on_c, 5, 53, 0
10, 101279, Note_on_c, 5, 65, 0
10, 101280, Control_c, 5, 11, 87
10, 101280, Note_on_c, 5, 53, 68
10, 101280, Note_on_c, 5, 65, 68
10, 101307, Control_c, 5, 11, 88
10, 101334, Control_c, 5, 11, 89
10, 101361, Control_c, 5, 11, 90
10, 101388, Control_c, 5, 11, 91
10, 101415, Control_c, 5, 11, 92
10, 101442, Control_c, 5, 11, 93
10, 101469, Control_c, 5, 11, 94
10, 101496, Control_c, 5, 11, 95
10, 101523, Control_c, 5, 11, 96
10, 101550, Control_c, 5, 11, 97
10, 101577, Control_c, 5, 11, 98
10, 101604, Control_c, 5, 11, 99
10, 101631, Control_c, 5, 11, 100
10, 101658, Control_c, 5, 11, 101
10, 101685, Control_c, 5, 11, 102
10, 101712, Control_c, 5, 11, 103
10, 101739, Control_c, 5, 11, 104
10, 101766, Control_c, 5, 11, 105
10, 101793, Control_c, 5, 11, 106
10, 101820, Control_c, 5, 11, 107
10, 101847, Control_c, 5, 11, 108
10, 101874, Control_c, 5, 11, 109
10, 101901, Control_c, 5, 11, 110
10, 101928, Control_c, 5, 11, 111
10, 101955, Control_c, 5, 11, 112
10, 101982, Control_c, 5, 11, 113
10, 102009, Control_c, 5, 11, 114
10, 102036, Control_c, 5, 11, 115
10, 102063, Control_c, 5, 11, 116
10, 102090, Control_c, 5, 11, 117
10, 102117, Control_c, 5, 11, 118
10, 102144, Control_c, 5, 11, 119
10, 102171, Control_c, 5, 11, 120
10, 102198, Control_c, 5, 11, 121
10, 102225, Control_c, 5, 11, 122
10, 102252, Control_c, 5, 11, 123
10, 102279, Control_c, 5, 11, 124
10, 102306, Control_c, 5, 11, 125
10, 102333, Control_c, 5, 11, 126
10, 102351, Note_on_c, 5, 53, 0
10, 102351, Note_on_c, 5, 65, 0
10, 102360, Note_on_c, 5, 53, 68
10, 102360, Note_on_c, 5, 65, 68
10, 102360, Control_c, 5, 11, 127
10, 102369, Control_c, 5, 11, 126
10, 102378, Control_c, 5, 11, 125
10, 102387, Control_c, 5, 11, 124
10, 102396, Control_c, 5, 11, 123
10, 102405, Control_c, 5, 11, 122
10, 102414, Control_c, 5, 11, 121
10, 102423, Control_c, 5, 11, 120
10, 102432, Control_c, 5, 11, 119
10, 102441, Control_c, 5, 11, 118
10, 102450, Control_c, 5, 11, 117
10, 102459, Control_c, 5, 11, 116
10, 102468, Control_c, 5, 11, 115
10, 102477, Control_c, 5, 11, 114
10, 102486, Control_c, 5, 11, 113
10, 102495, Control_c, 5, 11, 112
10, 102504, Control_c, 5, 11, 111
10, 102513, Control_c, 5, 11, 110
10, 102522, Control_c, 5, 11, 109
10, 102531, Control_c, 5, 11, 108
10, 102540, Control_c, 5, 11, 107
10, 102549, Control_c, 5, 11, 106
10, 102558, Control_c, 5, 11, 105
10, 102567, Control_c, 5, 11, 104
10, 102576, Control_c, 5, 11, 103
10, 102585, Control_c, 5, 11, 102
10, 102594, Control_c, 5, 11, 101
10, 102603, Control_c, 5, 11, 100
10, 102612, Control_c, 5, 11, 99
10, 102621, Control_c, 5, 11, 98
10, 102630, Control_c, 5, 11, 97
10, 102639, Control_c, 5, 11, 96
10, 102648, Control_c, 5, 11, 95
10, 102657, Control_c, 5, 11, 94
10, 102666, Control_c, 5, 11, 93
10, 102675, Control_c, 5, 11, 92
10, 102684, Control_c, 5, 11, 91
10, 102693, Control_c, 5, 11, 90
10, 102702, Control_c, 5, 11, 89
10, 102720, Control_c, 5, 11, 89
10, 102739, Control_c, 5, 11, 90
10, 102758, Control_c, 5, 11, 91
10, 102777, Control_c, 5, 11, 92
10, 102796, Control_c, 5, 11, 93
10, 102815, Control_c, 5, 11, 94
10, 102834, Control_c, 5, 11, 95
10, 102853, Control_c, 5, 11, 96
10, 102872, Control_c, 5, 11, 97
10, 102891, Control_c, 5, 11, 98
10, 102909, Control_c, 5, 11, 99
10, 102928, Control_c, 5, 11, 100
10, 102947, Control_c, 5, 11, 101
10, 102966, Control_c, 5, 11, 102
10, 102985, Control_c, 5, 11, 103
10, 103004, Control_c, 5, 11, 104
10, 103023, Control_c, 5, 11, 105
10, 103042, Control_c, 5, 11, 106
10, 103061, Control_c, 5, 11, 107
10, 103080, Control_c, 5, 11, 108
10, 103099, Control_c, 5, 11, 109
10, 103118, Control_c, 5, 11, 110
10, 103137, Control_c, 5, 11, 111
10, 103156, Control_c, 5, 11, 112
10, 103175, Control_c, 5, 11, 113
10, 103194, Control_c, 5, 11, 114
10, 103213, Control_c, 5, 11, 115
10, 103232, Control_c, 5, 11, 116
10, 103251, Control_c, 5, 11, 117
10, 103269, Control_c, 5, 11, 118
10, 103288, Control_c, 5, 11, 119
10, 103307, Control_c, 5, 11, 120
10, 103326, Control_c, 5, 11, 121
10, 103345, Control_c, 5, 11, 122
10, 103364, Control_c, 5, 11, 123
10, 103383, Control_c, 5, 11, 124
10, 103402, Control_c, 5, 11, 125
10, 103421, Control_c, 5, 11, 126
10, 103440, Control_c, 5, 11, 127
10, 103455, Control_c, 5, 11, 125
10, 103470, Control_c, 5, 11, 124
10, 103485, Control_c, 5, 11, 122
10, 103500, Control_c, 5, 11, 120
10, 103515, Control_c, 5, 11, 119
10, 103530, Control_c, 5, 11, 117
10, 103545, Control_c, 5, 11, 115
10, 103560, Control_c, 5, 11, 114
10, 103575, Control_c, 5, 11, 112
10, 103590, Control_c, 5, 11, 110
10, 103605, Control_c, 5, 11, 109
10, 103620, Control_c, 5, 11, 107
10, 103635, Control_c, 5, 11, 105
10, 103650, Control_c, 5, 11, 104
10, 103665, Control_c, 5, 11, 102
10, 103671, Note_on_c, 5, 53, 0
10, 103671, Note_on_c, 5, 65, 0
10, 103680, Note_on_c, 5, 58, 68
10, 103680, Note_on_c, 5, 70, 68
10, 103680, Control_c, 5, 11, 100
10, 103695, Control_c, 5, 11, 99
10, 103710, Control_c, 5, 11, 97
10, 103725, Control_c, 5, 11, 95
10, 103740, Control_c, 5, 11, 94
10, 103755, Control_c, 5, 11, 92
10, 103770, Control_c, 5, 11, 90
10, 103785, Control_c, 5, 11, 89
10, 103791, Note_on_c, 5, 58, 0
10, 103791, Note_on_c, 5, 70, 0
10, 103800, Note_on_c, 5, 70, 68
10, 103800, Control_c, 5, 11, 87
10, 103800, Note_on_c, 5, 58, 68
10, 103845, Control_c, 5, 11, 88
10, 103890, Control_c, 5, 11, 89
10, 103935, Control_c, 5, 11, 90
10, 103980, Control_c, 5, 11, 91
10, 104025, Control_c, 5, 11, 92
10, 104070, Control_c, 5, 11, 93
10, 104115, Control_c, 5, 11, 94
10, 104160, Control_c, 5, 11, 95
10, 104205, Control_c, 5, 11, 96
10, 104250, Control_c, 5, 11, 97
10, 104295, Control_c, 5, 11, 98
10, 104340, Control_c, 5, 11, 99
10, 104385, Control_c, 5, 11, 100
10, 104430, Control_c, 5, 11, 101
10, 104475, Control_c, 5, 11, 102
10, 104520, Control_c, 5, 11, 103
10, 104565, Control_c, 5, 11, 104
10, 104610, Control_c, 5, 11, 105
10, 104655, Control_c, 5, 11, 106
10, 104700, Control_c, 5, 11, 107
10, 104745, Control_c, 5, 11, 108
10, 104790, Control_c, 5, 11, 109
10, 104835, Control_c, 5, 11, 110
10, 104880, Control_c, 5, 11, 111
10, 104925, Control_c, 5, 11, 112
10, 104970, Control_c, 5, 11, 113
10, 104999, Note_on_c, 5, 70, 0
10, 105000, Note_on_c, 5, 72, 68
10, 105015, Control_c, 5, 11, 114
10, 105060, Control_c, 5, 11, 115
10, 105105, Control_c, 5, 11, 116
10, 105150, Control_c, 5, 11, 117
10, 105195, Control_c, 5, 11, 118
10, 105240, Control_c, 5, 11, 119
10, 105285, Control_c, 5, 11, 120
10, 105330, Control_c, 5, 11, 121
10, 105375, Control_c, 5, 11, 122
10, 105420, Control_c, 5, 11, 123
10, 105465, Control_c, 5, 11, 124
10, 105510, Control_c, 5, 11, 125
10, 105555, Control_c, 5, 11, 126
10, 105591, Note_on_c, 5, 58, 0
10, 105591, Note_on_c, 5, 72, 0
10, 105600, Note_on_c, 5, 74, 68
10, 105600, Note_on_c, 5, 58, 68
10, 105600, Control_c, 5, 11, 127
10, 105618, Control_c, 5, 11, 126
10, 105636, Control_c, 5, 11, 125
10, 105654, Control_c, 5, 11, 124
10, 105672, Control_c, 5, 11, 123
10, 105690, Control_c, 5, 11, 122
10, 105708, Control_c, 5, 11, 121
10, 105726, Control_c, 5, 11, 120
10, 105744, Control_c, 5, 11, 119
10, 105762, Control_c, 5, 11, 118
10, 105780, Control_c, 5, 11, 117
10, 105798, Control_c, 5, 11, 116
10, 105816, Control_c, 5, 11, 115
10, 105834, Control_c, 5, 11, 114
10, 105852, Control_c, 5, 11, 113
10, 105870, Control_c, 5, 11, 112
10, 105888, Control_c, 5, 11, 111
10, 105906, Control_c, 5, 11, 110
10, 105924, Control_c, 5, 11, 109
10, 105942, Control_c, 5, 11, 108
10, 105951, Note_on_c, 5, 58, 0
10, 105960, Control_c, 5, 11, 107
10, 105960, Note_on_c, 5, 70, 68
10, 105978, Control_c, 5, 11, 106
10, 105996, Control_c, 5, 11, 105
10, 106014, Control_c, 5, 11, 104
10, 106032, Control_c, 5, 11, 103
10, 106050, Control_c, 5, 11, 102
10, 106068, Control_c, 5, 11, 101
10, 106086, Control_c, 5, 11, 100
10, 106104, Control_c, 5, 11, 99
10, 106122, Control_c, 5, 11, 98
10, 106140, Control_c, 5, 11, 97
10, 106158, Control_c, 5, 11, 96
10, 106176, Control_c, 5, 11, 95
10, 106194, Control_c, 5, 11, 94
10, 106212, Control_c, 5, 11, 93
10, 106230, Control_c, 5, 11, 92
10, 106248, Control_c, 5, 11, 91
10, 106266, Control_c, 5, 11, 90
10, 106284, Control_c, 5, 11, 89
10, 106551, Note_on_c, 5, 70, 0
10, 106559, Note_on_c, 5, 74, 0
10, 106560, Note_on_c, 5, 77, 68
10, 106560, Note_on_c, 5, 74, 68
10, 106679, Note_on_c, 5, 77, 0
10, 106679, Note_on_c, 5, 74, 0
10, 106680, Note_on_c, 5, 75, 68
10, 106680, Note_on_c, 5, 72, 68
10, 106919, Note_on_c, 5, 75, 0
10, 106919, Note_on_c, 5, 72, 0
10, 106920, Note_on_c, 5, 65, 68
10, 106920, Note_on_c, 5, 72, 68
10, 107031, Note_on_c, 5, 65, 0
10, 107031, Note_on_c, 5, 72, 0
10, 107040, Note_on_c, 5, 65, 68
10, 107040, Note_on_c, 5, 72, 68
10, 107631, Note_on_c, 5, 65, 0
10, 107631, Note_on_c, 5, 72, 0
10, 107640, Note_on_c, 5, 70, 68
10, 107640, Note_on_c, 5, 58, 68
10, 107751, Note_on_c, 5, 70, 0
10, 107751, Note_on_c, 5, 58, 0
10, 107760, Note_on_c, 5, 70, 68
10, 107760, Note_on_c, 5, 58, 68
10, 107871, Note_on_c, 5, 70, 0
10, 107871, Note_on_c, 5, 58, 0
10, 107880, Note_on_c, 5, 77, 68
10, 107880, Note_on_c, 5, 65, 68
10, 107991, Note_on_c, 5, 77, 0
10, 107991, Note_on_c, 5, 65, 0
10, 108000, Note_on_c, 5, 65, 68
10, 108000, Note_on_c, 5, 77, 68
10, 108111, Note_on_c, 5, 65, 0
10, 108111, Note_on_c, 5, 77, 0
10, 108120, Note_on_c, 5, 65, 68
10, 108120, Note_on_c, 5, 77, 68
10, 108231, Note_on_c, 5, 77, 0
10, 108239, Note_on_c, 5, 65, 0
10, 108240, Note_on_c, 5, 77, 68
10, 108351, Note_on_c, 5, 77, 0
10, 108360, Note_on_c, 5, 65, 68
10, 108471, Note_on_c, 5, 65, 0
10, 108480, Note_on_c, 5, 77, 68
10, 108600, Note_on_c, 5, 65, 68
10, 108711, Note_on_c, 5, 65, 0
10, 108719, Note_on_c, 5, 77, 0
10, 108720, Note_on_c, 5, 53, 68
10, 108831, Note_on_c, 5, 53, 0
10, 108840, Note_on_c, 5, 65, 68
10, 108960, Note_on_c, 5, 77, 68
10, 109071, Note_on_c, 5, 65, 0
10, 109071, Note_on_c, 5, 77, 0
10, 109080, Note_on_c, 5, 70, 68
10, 109191, Note_on_c, 5, 70, 0
10, 109200, Note_on_c, 5, 70, 68
10, 109431, Note_on_c, 5, 70, 0
10, 109440, Note_on_c, 5, 58, 68
10, 109551, Note_on_c, 5, 58, 0
10, 109560, Note_on_c, 5, 70, 68
10, 109680, Note_on_c, 5, 77, 68
10, 109791, Note_on_c, 5, 70, 0
10, 109791, Note_on_c, 5, 77, 0
10, 109800, Note_on_c, 5, 65, 68
10, 109911, Note_on_c, 5, 65, 0
10, 109920, Note_on_c, 5, 77, 68
10, 110040, Note_on_c, 5, 65, 68
10, 110151, Note_on_c, 5, 65, 0
10, 110159, Note_on_c, 5, 77, 0
10, 110160, Note_on_c, 5, 53, 68
10, 110271, Note_on_c, 5, 53, 0
10, 110280, Note_on_c, 5, 65, 68
10, 110391, Note_on_c, 5, 65, 0
10, 110400, Note_on_c, 5, 65, 68
10, 110400, Note_on_c, 5, 77, 68
10, 110511, Note_on_c, 5, 65, 0
10, 110511, Note_on_c, 5, 77, 0
10, 110520, Note_on_c, 5, 58, 68
10, 110520, Note_on_c, 5, 70, 68
10, 110631, Note_on_c, 5, 58, 0
10, 110631, Note_on_c, 5, 70, 0
10, 110640, Note_on_c, 5, 70, 68
10, 110640, Note_on_c, 5, 58, 68
10, 110751, Note_on_c, 5, 70, 0
10, 110751, Note_on_c, 5, 58, 0
10, 110760, Note_on_c, 5, 58, 68
10, 110760, Note_on_c, 5, 70, 68
10, 110871, Note_on_c, 5, 58, 0
10, 110871, Note_on_c, 5, 70, 0
10, 110880, Note_on_c, 5, 58, 68
10, 110880, Note_on_c, 5, 70, 68
10, 110991, Note_on_c, 5, 58, 0
10, 110991, Note_on_c, 5, 70, 0
10, 111000, Control_c, 5, 11, 89
10, 111000, Note_on_c, 5, 70, 68
10, 111000, Note_on_c, 5, 58, 68
10, 111047, Control_c, 5, 11, 90
10, 111095, Control_c, 5, 11, 91
10, 111111, Note_on_c, 5, 70, 0
10, 111111, Note_on_c, 5, 58, 0
10, 111120, Note_on_c, 5, 70, 68
10, 111120, Note_on_c, 5, 58, 68
10, 111142, Control_c, 5, 11, 92
10, 111189, Control_c, 5, 11, 93
10, 111231, Note_on_c, 5, 70, 0
10, 111231, Note_on_c, 5, 58, 0
10, 111237, Control_c, 5, 11, 94
10, 111240, Note_on_c, 5, 70, 68
10, 111240, Note_on_c, 5, 58, 68
10, 111284, Control_c, 5, 11, 95
10, 111332, Control_c, 5, 11, 96
10, 111351, Note_on_c, 5, 70, 0
10, 111351, Note_on_c, 5, 58, 0
10, 111360, Note_on_c, 5, 70, 68
10, 111360, Note_on_c, 5, 58, 68
10, 111379, Control_c, 5, 11, 97
10, 111426, Control_c, 5, 11, 98
10, 111471, Note_on_c, 5, 70, 0
10, 111471, Note_on_c, 5, 58, 0
10, 111474, Control_c, 5, 11, 99
10, 111480, Note_on_c, 5, 58, 68
10, 111480, Note_on_c, 5, 70, 68
10, 111521, Control_c, 5, 11, 100
10, 111568, Control_c, 5, 11, 101
10, 111591, Note_on_c, 5, 58, 0
10, 111591, Note_on_c, 5, 70, 0
10, 111600, Note_on_c, 5, 58, 68
10, 111600, Note_on_c, 5, 70, 68
10, 111616, Control_c, 5, 11, 102
10, 111663, Control_c, 5, 11, 103
10, 111711, Note_on_c, 5, 58, 0
10, 111711, Note_on_c, 5, 70, 0
10, 111711, Control_c, 5, 11, 104
10, 111720, Note_on_c, 5, 58, 68
10, 111720, Note_on_c, 5, 70, 68
10, 111758, Control_c, 5, 11, 105
10, 111805, Control_c, 5, 11, 106
10, 111831, Note_on_c, 5, 58, 0
10, 111831, Note_on_c, 5, 70, 0
10, 111840, Note_on_c, 5, 58, 68
10, 111840, Note_on_c, 5, 70, 68
10, 111853, Control_c, 5, 11, 107
10, 111900, Control_c, 5, 11, 108
10, 111947, Control_c, 5, 11, 109
10, 111951, Note_on_c, 5, 58, 0
10, 111951, Note_on_c, 5, 70, 0
10, 111960, Note_on_c, 5, 70, 68
10, 111960, Note_on_c, 5, 58, 68
10, 111995, Control_c, 5, 11, 110
10, 112042, Control_c, 5, 11, 111
10, 112071, Note_on_c, 5, 70, 0
10, 112071, Note_on_c, 5, 58, 0
10, 112080, Note_on_c, 5, 58, 68
10, 112080, Note_on_c, 5, 70, 68
10, 112089, Control_c, 5, 11, 112
10, 112137, Control_c, 5, 11, 113
10, 112184, Control_c, 5, 11, 114
10, 112191, Note_on_c, 5, 58, 0
10, 112191, Note_on_c, 5, 70, 0
10, 112200, Note_on_c, 5, 70, 68
10, 112200, Note_on_c, 5, 58, 68
10, 112232, Control_c, 5, 11, 115
10, 112279, Control_c, 5, 11, 116
10, 112311, Note_on_c, 5, 70, 0
10, 112311, Note_on_c, 5, 58, 0
10, 112320, Note_on_c, 5, 70, 68
10, 112320, Note_on_c, 5, 58, 68
10, 112326, Control_c, 5, 11, 117
10, 112374, Control_c, 5, 11, 118
10, 112421, Control_c, 5, 11, 119
10, 112431, Note_on_c, 5, 70, 0
10, 112431, Note_on_c, 5, 58, 0
10, 112440, Note_on_c, 5, 70, 68
10, 112440, Note_on_c, 5, 58, 68
10, 112468, Control_c, 5, 11, 120
10, 112516, Control_c, 5, 11, 121
10, 112551, Note_on_c, 5, 70, 0
10, 112551, Note_on_c, 5, 58, 0
10, 112560, Note_on_c, 5, 70, 68
10, 112560, Note_on_c, 5, 58, 68
10, 112563, Control_c, 5, 11, 122
10, 112611, Control_c, 5, 11, 123
10, 112658, Control_c, 5, 11, 124
10, 112671, Note_on_c, 5, 70, 0
10, 112671, Note_on_c, 5, 58, 0
10, 112680, Note_on_c, 5, 58, 68
10, 112680, Note_on_c, 5, 70, 68
10, 112705, Control_c, 5, 11, 125
10, 112753, Control_c, 5, 11, 126
10, 112791, Note_on_c, 5, 58, 0
10, 112791, Note_on_c, 5, 70, 0
10, 112800, Note_on_c, 5, 58, 68
10, 112800, Note_on_c, 5, 70, 68
10, 112830, Control_c, 5, 11, 124
10, 112860, Control_c, 5, 11, 121
10, 112890, Control_c, 5, 11, 117
10, 112911, Note_on_c, 5, 58, 0
10, 112911, Note_on_c, 5, 70, 0
10, 112920, Note_on_c, 5, 65, 68
10, 112920, Control_c, 5, 11, 115
10, 112920, Note_on_c, 5, 53, 68
10, 112950, Control_c, 5, 11, 111
10, 112980, Control_c, 5, 11, 109
10, 113010, Control_c, 5, 11, 105
10, 113031, Note_on_c, 5, 65, 0
10, 113031, Note_on_c, 5, 53, 0
10, 113040, Control_c, 5, 11, 101
10, 113040, Note_on_c, 5, 65, 68
10, 113040, Note_on_c, 5, 53, 68
10, 113070, Control_c, 5, 11, 99
10, 113100, Control_c, 5, 11, 95
10, 113151, Note_on_c, 5, 65, 0
10, 113151, Note_on_c, 5, 53, 0
10, 113160, Note_on_c, 5, 65, 68
10, 113160, Note_on_c, 5, 53, 68
10, 113160, Control_c, 5, 11, 89
10, 113271, Note_on_c, 5, 65, 0
10, 113271, Note_on_c, 5, 53, 0
10, 113280, Note_on_c, 5, 65, 68
10, 113280, Note_on_c, 5, 53, 68
10, 113391, Note_on_c, 5, 65, 0
10, 113391, Note_on_c, 5, 53, 0
10, 113400, Note_on_c, 5, 65, 68
10, 113400, Note_on_c, 5, 53, 68
10, 113511, Note_on_c, 5, 65, 0
10, 113511, Note_on_c, 5, 53, 0
10, 113520, Note_on_c, 5, 53, 68
10, 113520, Note_on_c, 5, 65, 68
10, 113631, Note_on_c, 5, 53, 0
10, 113631, Note_on_c, 5, 65, 0
10, 113640, Note_on_c, 5, 65, 68
10, 113640, Note_on_c, 5, 53, 68
10, 113751, Note_on_c, 5, 65, 0
10, 113751, Note_on_c, 5, 53, 0
10, 113760, Note_on_c, 5, 53, 68
10, 113760, Note_on_c, 5, 65, 68
10, 113871, Note_on_c, 5, 53, 0
10, 113871, Note_on_c, 5, 65, 0
10, 113880, Note_on_c, 5, 53, 68
10, 113880, Note_on_c, 5, 65, 68
10, 113991, Note_on_c, 5, 53, 0
10, 113991, Note_on_c, 5, 65, 0
10, 114000, Note_on_c, 5, 53, 68
10, 114000, Note_on_c, 5, 65, 68
10, 114111, Note_on_c, 5, 53, 0
10, 114111, Note_on_c, 5, 65, 0
10, 114120, Note_on_c, 5, 65, 68
10, 114120, Note_on_c, 5, 53, 68
10, 114231, Note_on_c, 5, 65, 0
10, 114231, Note_on_c, 5, 53, 0
10, 114238, Control_c, 5, 11, 79
10, 114240, Note_on_c, 5, 53, 68
10, 114240, Note_on_c, 5, 65, 68
10, 114351, Note_on_c, 5, 53, 0
10, 114351, Note_on_c, 5, 65, 0
10, 114360, Note_on_c, 5, 53, 68
10, 114360, Note_on_c, 5, 65, 68
10, 114471, Note_on_c, 5, 53, 0
10, 114471, Note_on_c, 5, 65, 0
10, 114480, Note_on_c, 5, 65, 68
10, 114480, Note_on_c, 5, 53, 68
10, 114591, Note_on_c, 5, 65, 0
10, 114591, Note_on_c, 5, 53, 0
10, 114600, Note_on_c, 5, 65, 68
10, 114600, Note_on_c, 5, 53, 68
10, 114711, Note_on_c, 5, 65, 0
10, 114711, Note_on_c, 5, 53, 0
10, 114720, Note_on_c, 5, 53, 68
10, 114720, Note_on_c, 5, 65, 68
10, 114831, Note_on_c, 5, 53, 0
10, 114831, Note_on_c, 5, 65, 0
10, 114840, Note_on_c, 5, 65, 68
10, 114840, Note_on_c, 5, 53, 68
10, 114951, Note_on_c, 5, 65, 0
10, 114951, Note_on_c, 5, 53, 0
10, 114960, Note_on_c, 5, 65, 68
10, 114960, Note_on_c, 5, 53, 68
10, 115071, Note_on_c, 5, 65, 0
10, 115071, Note_on_c, 5, 53, 0
10, 115080, Note_on_c, 5, 65, 68
10, 115080, Note_on_c, 5, 53, 68
10, 115191, Note_on_c, 5, 65, 0
10, 115191, Note_on_c, 5, 53, 0
10, 115200, Note_on_c, 5, 65, 68
10, 115200, Note_on_c, 5, 53, 68
10, 115311, Note_on_c, 5, 65, 0
10, 115311, Note_on_c, 5, 53, 0
10, 115320, Note_on_c, 5, 58, 68
10, 115320, Note_on_c, 5, 70, 68
10, 115431, Note_on_c, 5, 58, 0
10, 115431, Note_on_c, 5, 70, 0
10, 115440, Note_on_c, 5, 58, 68
10, 115440, Note_on_c, 5, 70, 68
10, 115551, Note_on_c, 5, 58, 0
10, 115551, Note_on_c, 5, 70, 0
10, 115560, Note_on_c, 5, 58, 68
10, 115560, Note_on_c, 5, 70, 68
10, 115671, Note_on_c, 5, 58, 0
10, 115671, Note_on_c, 5, 70, 0
10, 115678, Control_c, 5, 11, 49
10, 115680, Note_on_c, 5, 65, 80
10, 115680, Note_on_c, 5, 53, 80
10, 115791, Note_on_c, 5, 65, 0
10, 115791, Note_on_c, 5, 53, 0
10, 115800, Note_on_c, 5, 65, 80
10, 115800, Note_on_c, 5, 53, 80
10, 115911, Note_on_c, 5, 65, 0
10, 115911, Note_on_c, 5, 53, 0
10, 115920, Note_on_c, 5, 65, 80
10, 115920, Note_on_c, 5, 53, 80
10, 116031, Note_on_c, 5, 65, 0
10, 116031, Note_on_c, 5, 53, 0
10, 116040, Note_on_c, 5, 53, 80
10, 116040, Note_on_c, 5, 65, 80
10, 116151, Note_on_c, 5, 53, 0
10, 116151, Note_on_c, 5, 65, 0
10, 116160, Note_on_c, 5, 65, 80
10, 116160, Note_on_c, 5, 53, 80
10, 116271, Note_on_c, 5, 65, 0
10, 116271, Note_on_c, 5, 53, 0
10, 116280, Note_on_c, 5, 53, 80
10, 116280, Note_on_c, 5, 65, 80
10, 116391, Note_on_c, 5, 53, 0
10, 116391, Note_on_c, 5, 65, 0
10, 116400, Note_on_c, 5, 65, 80
10, 116400, Note_on_c, 5, 53, 80
10, 116400, Control_c, 5, 11, 49
10, 116417, Control_c, 5, 11, 51
10, 116433, Control_c, 5, 11, 53
10, 116450, Control_c, 5, 11, 56
10, 116467, Control_c, 5, 11, 58
10, 116483, Control_c, 5, 11, 60
10, 116500, Control_c, 5, 11, 62
10, 116511, Note_on_c, 5, 65, 0
10, 116511, Note_on_c, 5, 53, 0
10, 116517, Control_c, 5, 11, 64
10, 116520, Note_on_c, 5, 65, 80
10, 116520, Note_on_c, 5, 53, 80
10, 116533, Control_c, 5, 11, 66
10, 116550, Control_c, 5, 11, 69
10, 116567, Control_c, 5, 11, 71
10, 116583, Control_c, 5, 11, 73
10, 116600, Control_c, 5, 11, 75
10, 116617, Control_c, 5, 11, 77
10, 116631, Note_on_c, 5, 65, 0
10, 116631, Note_on_c, 5, 53, 0
10, 116633, Control_c, 5, 11, 79
10, 116640, Note_on_c, 5, 53, 80
10, 116640, Note_on_c, 5, 65, 80
10, 116650, Control_c, 5, 11, 82
10, 116667, Control_c, 5, 11, 84
10, 116683, Control_c, 5, 11, 86
10, 116700, Control_c, 5, 11, 88
10, 116717, Control_c, 5, 11, 90
10, 116733, Control_c, 5, 11, 92
10, 116750, Control_c, 5, 11, 95
10, 116751, Note_on_c, 5, 53, 0
10, 116751, Note_on_c, 5, 65, 0
10, 116760, Note_on_c, 5, 53, 80
10, 116760, Note_on_c, 5, 65, 80
10, 116767, Control_c, 5, 11, 97
10, 116783, Control_c, 5, 11, 99
10, 116800, Control_c, 5, 11, 101
10, 116817, Control_c, 5, 11, 103
10, 116833, Control_c, 5, 11, 105
10, 116850, Control_c, 5, 11, 108
10, 116867, Control_c, 5, 11, 110
10, 116871, Note_on_c, 5, 53, 0
10, 116871, Note_on_c, 5, 65, 0
10, 116880, Note_on_c, 5, 65, 80
10, 116880, Note_on_c, 5, 53, 80
10, 116883, Control_c, 5, 11, 112
10, 116900, Control_c, 5, 11, 114
10, 116917, Control_c, 5, 11, 116
10, 116933, Control_c, 5, 11, 118
10, 116950, Control_c, 5, 11, 121
10, 116967, Control_c, 5, 11, 123
10, 116983, Control_c, 5, 11, 127
10, 116991, Note_on_c, 5, 65, 0
10, 116991, Note_on_c, 5, 53, 0
10, 117000, Note_on_c, 5, 70, 80
10, 117000, Note_on_c, 5, 58, 80
10, 117051, Note_on_c, 5, 70, 0
10, 117051, Note_on_c, 5, 58, 0
10, 117060, Note_on_c, 5, 70, 80
10, 117060, Note_on_c, 5, 58, 80
10, 117111, Note_on_c, 5, 70, 0
10, 117111, Note_on_c, 5, 58, 0
10, 117120, Note_on_c, 5, 75, 80
10, 117239, Note_on_c, 5, 75, 0
10, 117720, Note_on_c, 5, 75, 80
10, 117771, Note_on_c, 5, 75, 0
10, 117780, Note_on_c, 5, 75, 80
10, 117831, Note_on_c, 5, 75, 0
10, 117840, Note_on_c, 5, 58, 80
10, 117840, Note_on_c, 5, 70, 80
10, 117959, Note_on_c, 5, 58, 0
10, 117959, Note_on_c, 5, 70, 0
10, 118440, Note_on_c, 5, 70, 80
10, 118440, Note_on_c, 5, 58, 80
10, 118491, Note_on_c, 5, 70, 0
10, 118491, Note_on_c, 5, 58, 0
10, 118500, Note_on_c, 5, 70, 80
10, 118500, Note_on_c, 5, 58, 80
10, 118551, Note_on_c, 5, 70, 0
10, 118551, Note_on_c, 5, 58, 0
10, 118560, Note_on_c, 5, 75, 92
10, 118619, Note_on_c, 5, 75, 0
10, 118800, Note_on_c, 5, 75, 80
10, 118851, Note_on_c, 5, 75, 0
10, 118860, Note_on_c, 5, 75, 80
10, 118911, Note_on_c, 5, 75, 0
10, 118920, Note_on_c, 5, 74, 92
10, 118920, Note_on_c, 5, 70, 92
10, 118979, Note_on_c, 5, 74, 0
10, 118979, Note_on_c, 5, 70, 0
10, 119160, Note_on_c, 5, 70, 80
10, 119160, Note_on_c, 5, 74, 80
10, 119211, Note_on_c, 5, 70, 0
10, 119211, Note_on_c, 5, 74, 0
10, 119220, Note_on_c, 5, 70, 80
10, 119220, Note_on_c, 5, 74, 80
10, 119271, Note_on_c, 5, 70, 0
10, 119271, Note_on_c, 5, 74, 0
10, 119280, Note_on_c, 5, 72, 92
10, 119280, Note_on_c, 5, 65, 92
10, 119399, Note_on_c, 5, 72, 0
10, 119399, Note_on_c, 5, 65, 0
10, 119520, Note_on_c, 5, 65, 92
10, 119520, Note_on_c, 5, 77, 92
10, 119571, Note_on_c, 5, 65, 0
10, 119571, Note_on_c, 5, 77, 0
10, 119580, Note_on_c, 5, 77, 92
10, 119580, Note_on_c, 5, 65, 92
10, 119631, Note_on_c, 5, 77, 0
10, 119631, Note_on_c, 5, 65, 0
10, 119640, Note_on_c, 5, 65, 92
10, 119640, Note_on_c, 5, 77, 92
10, 119759, Note_on_c, 5, 65, 0
10, 119759, Note_on_c, 5, 77, 0
10, 119880, Note_on_c, 5, 65, 92
10, 119880, Note_on_c, 5, 77, 92
10, 119931, Note_on_c, 5, 65, 0
10, 119931, Note_on_c, 5, 77, 0
10, 119940, Note_on_c, 5, 77, 92
10, 119940, Note_on_c, 5, 65, 92
10, 119991, Note_on_c, 5, 77, 0
10, 119991, Note_on_c, 5, 65, 0
10, 120000, Note_on_c, 5, 77, 92
10, 120000, Note_on_c, 5, 65, 92
10, 120239, Note_on_c, 5, 77, 0
10, 120239, Note_on_c, 5, 65, 0
10, 122880, Note_on_c, 5, 65, 38
10, 122880, Note_on_c, 5, 77, 38
10, 124319, Note_on_c, 5, 65, 0
10, 124319, Note_on_c, 5, 77, 0
10, 124320, Note_on_c, 5, 77, 38
10, 124320, Note_on_c, 5, 65, 38
10, 125511, Note_on_c, 5, 77, 0
10, 125511, Note_on_c, 5, 65, 0
10, 125520, Note_on_c, 5, 65, 38
10, 125520, Note_on_c, 5, 77, 38
10, 125631, Note_on_c, 5, 65, 0
10, 125631, Note_on_c, 5, 77, 0
10, 125640, Note_on_c, 5, 77, 38
10, 125640, Note_on_c, 5, 65, 38
10, 125751, Note_on_c, 5, 77, 0
10, 125751, Note_on_c, 5, 65, 0
10, 125758, Control_c, 5, 11, 69
10, 125760, Note_on_c, 5, 70, 80
10, 125760, Note_on_c, 5, 58, 80
10, 125760, Control_c, 5, 11, 69
10, 125857, Control_c, 5, 11, 70
10, 125954, Control_c, 5, 11, 71
10, 126052, Control_c, 5, 11, 72
10, 126149, Control_c, 5, 11, 73
10, 126246, Control_c, 5, 11, 74
10, 126343, Control_c, 5, 11, 75
10, 126441, Control_c, 5, 11, 76
10, 126471, Note_on_c, 5, 70, 0
10, 126471, Note_on_c, 5, 58, 0
10, 126480, Note_on_c, 5, 53, 80
10, 126480, Note_on_c, 5, 65, 80
10, 126538, Control_c, 5, 11, 77
10, 126635, Control_c, 5, 11, 78
10, 126732, Control_c, 5, 11, 79
10, 126830, Control_c, 5, 11, 80
10, 126927, Control_c, 5, 11, 81
10, 127024, Control_c, 5, 11, 82
10, 127121, Control_c, 5, 11, 83
10, 127191, Note_on_c, 5, 53, 0
10, 127191, Note_on_c, 5, 65, 0
10, 127200, Note_on_c, 5, 62, 80
10, 127219, Control_c, 5, 11, 84
10, 127316, Control_c, 5, 11, 85
10, 127413, Control_c, 5, 11, 86
10, 127510, Control_c, 5, 11, 87
10, 127559, Note_on_c, 5, 62, 0
10, 127560, Note_on_c, 5, 65, 80
10, 127608, Control_c, 5, 11, 88
10, 127705, Control_c, 5, 11, 89
10, 127802, Control_c, 5, 11, 90
10, 127899, Control_c, 5, 11, 91
10, 127919, Note_on_c, 5, 65, 0
10, 127920, Note_on_c, 5, 70, 80
10, 127997, Control_c, 5, 11, 92
10, 128094, Control_c, 5, 11, 93
10, 128191, Control_c, 5, 11, 94
10, 128279, Note_on_c, 5, 70, 0
10, 128280, Note_on_c, 5, 72, 80
10, 128288, Control_c, 5, 11, 95
10, 128386, Control_c, 5, 11, 96
10, 128483, Control_c, 5, 11, 97
10, 128580, Control_c, 5, 11, 98
10, 128631, Note_on_c, 5, 72, 0
10, 128640, Note_on_c, 5, 74, 80
10, 128677, Control_c, 5, 11, 99
10, 128774, Control_c, 5, 11, 100
10, 128872, Control_c, 5, 11, 101
10, 128969, Control_c, 5, 11, 102
10, 128999, Note_on_c, 5, 74, 0
10, 129000, Note_on_c, 5, 77, 80
10, 129066, Control_c, 5, 11, 103
10, 129163, Control_c, 5, 11, 104
10, 129239, Note_on_c, 5, 77, 0
10, 129240, Note_on_c, 5, 75, 80
10, 129261, Control_c, 5, 11, 105
10, 129358, Control_c, 5, 11, 106
10, 129359, Note_on_c, 5, 75, 0
10, 129360, Note_on_c, 5, 72, 80
10, 129455, Control_c, 5, 11, 107
10, 129552, Control_c, 5, 11, 108
10, 129591, Note_on_c, 5, 72, 0
10, 129600, Note_on_c, 5, 53, 80
10, 129600, Note_on_c, 5, 65, 80
10, 129650, Control_c, 5, 11, 109
10, 129747, Control_c, 5, 11, 110
10, 129831, Note_on_c, 5, 53, 0
10, 129831, Note_on_c, 5, 65, 0
10, 129840, Note_on_c, 5, 65, 80
10, 129840, Note_on_c, 5, 53, 80
10, 129844, Control_c, 5, 11, 111
10, 129941, Control_c, 5, 11, 112
10, 129951, Note_on_c, 5, 65, 0
10, 129951, Note_on_c, 5, 53, 0
10, 129960, Note_on_c, 5, 65, 80
10, 129960, Note_on_c, 5, 53, 80
10, 130039, Control_c, 5, 11, 113
10, 130071, Note_on_c, 5, 65, 0
10, 130071, Note_on_c, 5, 53, 0
10, 130080, Note_on_c, 5, 53, 80
10, 130080, Note_on_c, 5, 65, 80
10, 130136, Control_c, 5, 11, 114
10, 130233, Control_c, 5, 11, 115
10, 130330, Control_c, 5, 11, 116
10, 130428, Control_c, 5, 11, 117
10, 130431, Note_on_c, 5, 53, 0
10, 130431, Note_on_c, 5, 65, 0
10, 130440, Note_on_c, 5, 65, 80
10, 130440, Note_on_c, 5, 53, 80
10, 130525, Control_c, 5, 11, 118
10, 130622, Control_c, 5, 11, 119
10, 130671, Note_on_c, 5, 65, 0
10, 130671, Note_on_c, 5, 53, 0
10, 130680, Note_on_c, 5, 65, 80
10, 130680, Note_on_c, 5, 53, 80
10, 130719, Control_c, 5, 11, 120
10, 130791, Note_on_c, 5, 65, 0
10, 130791, Note_on_c, 5, 53, 0
10, 130800, Note_on_c, 5, 53, 80
10, 130800, Note_on_c, 5, 65, 80
10, 130817, Control_c, 5, 11, 121
10, 130914, Control_c, 5, 11, 122
10, 131011, Control_c, 5, 11, 123
10, 131108, Control_c, 5, 11, 124
10, 131206, Control_c, 5, 11, 125
10, 131303, Control_c, 5, 11, 127
10, 131391, Note_on_c, 5, 53, 0
10, 131391, Note_on_c, 5, 65, 0
10, 131400, Note_on_c, 5, 70, 80
10, 131400, Note_on_c, 5, 58, 80
10, 131451, Note_on_c, 5, 70, 0
10, 131451, Note_on_c, 5, 58, 0
10, 131460, Note_on_c, 5, 70, 80
10, 131460, Note_on_c, 5, 58, 80
10, 131511, Note_on_c, 5, 70, 0
10, 131511, Note_on_c, 5, 58, 0
10, 131520, Note_on_c, 5, 75, 80
10, 131639, Note_on_c, 5, 75, 0
10, 132120, Note_on_c, 5, 75, 80
10, 132171, Note_on_c, 5, 75, 0
10, 132180, Note_on_c, 5, 75, 80
10, 132231, Note_on_c, 5, 75, 0
10, 132240, Note_on_c, 5, 58, 80
10, 132240, Note_on_c, 5, 70, 80
10, 132359, Note_on_c, 5, 58, 0
10, 132359, Note_on_c, 5, 70, 0
10, 132840, Note_on_c, 5, 58, 80
10, 132840, Note_on_c, 5, 70, 80
10, 132891, Note_on_c, 5, 58, 0
10, 132891, Note_on_c, 5, 70, 0
10, 132900, Note_on_c, 5, 70, 80
10, 132900, Note_on_c, 5, 58, 80
10, 132951, Note_on_c, 5, 70, 0
10, 132951, Note_on_c, 5, 58, 0
10, 132960, Note_on_c, 5, 75, 92
10, 133019, Note_on_c, 5, 75, 0
10, 133200, Note_on_c, 5, 75, 80
10, 133251, Note_on_c, 5, 75, 0
10, 133260, Note_on_c, 5, 75, 80
10, 133311, Note_on_c, 5, 75, 0
10, 133320, Note_on_c, 5, 70, 80
10, 133320, Note_on_c, 5, 74, 92
10, 133379, Note_on_c, 5, 70, 0
10, 133379, Note_on_c, 5, 74, 0
10, 133560, Note_on_c, 5, 74, 80
10, 133560, Note_on_c, 5, 70, 80
10, 133611, Note_on_c, 5, 74, 0
10, 133611, Note_on_c, 5, 70, 0
10, 133620, Note_on_c, 5, 70, 80
10, 133620, Note_on_c, 5, 74, 80
10, 133671, Note_on_c, 5, 70, 0
10, 133671, Note_on_c, 5, 74, 0
10, 133680, Note_on_c, 5, 72, 92
10, 133680, Note_on_c, 5, 65, 92
10, 133799, Note_on_c, 5, 72, 0
10, 133799, Note_on_c, 5, 65, 0
10, 133920, Note_on_c, 5, 77, 92
10, 133920, Note_on_c, 5, 65, 92
10, 133971, Note_on_c, 5, 77, 0
10, 133971, Note_on_c, 5, 65, 0
10, 133980, Note_on_c, 5, 65, 92
10, 133980, Note_on_c, 5, 77, 92
10, 134031, Note_on_c, 5, 65, 0
10, 134031, Note_on_c, 5, 77, 0
10, 134040, Note_on_c, 5, 65, 92
10, 134040, Note_on_c, 5, 77, 92
10, 134159, Note_on_c, 5, 65, 0
10, 134159, Note_on_c, 5, 77, 0
10, 134280, Note_on_c, 5, 65, 92
10, 134280, Note_on_c, 5, 77, 92
10, 134331, Note_on_c, 5, 65, 0
10, 134331, Note_on_c, 5, 77, 0
10, 134340, Note_on_c, 5, 65, 92
10, 134340, Note_on_c, 5, 77, 92
10, 134391, Note_on_c, 5, 65, 0
10, 134391, Note_on_c, 5, 77, 0
10, 134400, Note_on_c, 5, 65, 92
10, 134400, Note_on_c, 5, 77, 92
10, 134639, Note_on_c, 5, 65, 0
10, 134639, Note_on_c, 5, 77, 0
10, 137280, Note_on_c, 5, 70, 44
10, 137280, Note_on_c, 5, 58, 44
10, 137280, Control_c, 5, 11, 127
10, 137460, Control_c, 5, 11, 126
10, 137640, Control_c, 5, 11, 125
10, 137820, Control_c, 5, 11, 122
10, 138000, Control_c, 5, 11, 121
10, 138180, Control_c, 5, 11, 120
10, 138360, Control_c, 5, 11, 119
10, 138540, Control_c, 5, 11, 116
10, 138711, Note_on_c, 5, 70, 0
10, 138711, Note_on_c, 5, 58, 0
10, 138720, Note_on_c, 5, 58, 44
10, 138720, Control_c, 5, 11, 115
10, 138720, Note_on_c, 5, 70, 44
10, 138900, Control_c, 5, 11, 114
10, 139080, Control_c, 5, 11, 112
10, 139260, Control_c, 5, 11, 110
10, 139440, Control_c, 5, 11, 109
10, 139500, Control_c, 5, 11, 110
10, 139560, Control_c, 5, 11, 112
10, 139620, Control_c, 5, 11, 114
10, 139680, Control_c, 5, 11, 115
10, 139740, Control_c, 5, 11, 116
10, 139800, Control_c, 5, 11, 119
10, 139860, Control_c, 5, 11, 120
10, 139920, Control_c, 5, 11, 121
10, 139980, Control_c, 5, 11, 122
10, 140040, Control_c, 5, 11, 125
10, 140100, Control_c, 5, 11, 126
10, 140151, Note_on_c, 5, 58, 0
10, 140151, Note_on_c, 5, 70, 0
10, 140160, Control_c, 5, 11, 89
10, 140160, Note_on_c, 5, 65, 68
10, 140160, Note_on_c, 5, 53, 68
10, 141591, Note_on_c, 5, 65, 0
10, 141591, Note_on_c, 5, 53, 0
10, 141598, Control_c, 5, 11, 89
10, 141600, Note_on_c, 5, 53, 68
10, 141600, Note_on_c, 5, 65, 68
10, 141600, Control_c, 5, 11, 89
10, 141628, Control_c, 5, 11, 90
10, 141657, Control_c, 5, 11, 91
10, 141685, Control_c, 5, 11, 92
10, 141714, Control_c, 5, 11, 93
10, 141742, Control_c, 5, 11, 94
10, 141771, Control_c, 5, 11, 95
10, 141799, Control_c, 5, 11, 96
10, 141827, Control_c, 5, 11, 97
10, 141856, Control_c, 5, 11, 98
10, 141884, Control_c, 5, 11, 99
10, 141913, Control_c, 5, 11, 100
10, 141941, Control_c, 5, 11, 101
10, 141969, Control_c, 5, 11, 102
10, 141998, Control_c, 5, 11, 103
10, 142026, Control_c, 5, 11, 104
10, 142055, Control_c, 5, 11, 105
10, 142083, Control_c, 5, 11, 106
10, 142112, Control_c, 5, 11, 107
10, 142140, Control_c, 5, 11, 108
10, 142168, Control_c, 5, 11, 109
10, 142197, Control_c, 5, 11, 110
10, 142225, Control_c, 5, 11, 111
10, 142254, Control_c, 5, 11, 112
10, 142282, Control_c, 5, 11, 113
10, 142311, Control_c, 5, 11, 114
10, 142339, Control_c, 5, 11, 115
10, 142367, Control_c, 5, 11, 116
10, 142396, Control_c, 5, 11, 117
10, 142424, Control_c, 5, 11, 118
10, 142453, Control_c, 5, 11, 119
10, 142481, Control_c, 5, 11, 120
10, 142509, Control_c, 5, 11, 121
10, 142538, Control_c, 5, 11, 122
10, 142551, Note_on_c, 5, 53, 0
10, 142551, Note_on_c, 5, 65, 0
10, 142560, Note_on_c, 5, 70, 68
10, 142560, Note_on_c, 5, 58, 68
10, 142566, Control_c, 5, 11, 123
10, 142595, Control_c, 5, 11, 124
10, 142623, Control_c, 5, 11, 125
10, 142652, Control_c, 5, 11, 126
10, 142791, Note_on_c, 5, 70, 0
10, 142791, Note_on_c, 5, 58, 0
10, 142800, Control_c, 5, 11, 127
10, 142800, Note_on_c, 5, 72, 68
10, 142800, Note_on_c, 5, 70, 68
10, 142820, Control_c, 5, 11, 124
10, 142840, Control_c, 5, 11, 121
10, 142860, Control_c, 5, 11, 117
10, 142880, Control_c, 5, 11, 115
10, 142900, Control_c, 5, 11, 111
10, 142911, Note_on_c, 5, 72, 0
10, 142911, Note_on_c, 5, 70, 0
10, 142920, Control_c, 5, 11, 109
10, 142920, Note_on_c, 5, 72, 68
10, 142920, Note_on_c, 5, 65, 68
10, 142940, Control_c, 5, 11, 105
10, 142960, Control_c, 5, 11, 101
10, 142980, Control_c, 5, 11, 99
10, 143000, Control_c, 5, 11, 95
10, 143020, Control_c, 5, 11, 92
10, 143031, Note_on_c, 5, 72, 0
10, 143031, Note_on_c, 5, 65, 0
10, 143038, Control_c, 5, 11, 127
10, 143040, Note_on_c, 5, 70, 44
10, 143040, Note_on_c, 5, 62, 44
10, 143519, Note_on_c, 5, 70, 0
10, 143519, Note_on_c, 5, 62, 0
10, 143520, Note_on_c, 5, 65, 44
10, 143520, Note_on_c, 5, 72, 44
10, 143639, Note_on_c, 5, 65, 0
10, 143639, Note_on_c, 5, 72, 0
10, 143640, Note_on_c, 5, 70, 44
10, 143640, Note_on_c, 5, 74, 44
10, 143751, Note_on_c, 5, 70, 0
10, 143751, Note_on_c, 5, 74, 0
10, 143760, Note_on_c, 5, 65, 44
10, 143760, Note_on_c, 5, 74, 44
10, 143879, Note_on_c, 5, 74, 0
10, 143880, Note_on_c, 5, 72, 44
10, 144231, Note_on_c, 5, 65, 0
10, 144231, Note_on_c, 5, 72, 0
10, 144240, Note_on_c, 5, 72, 44
10, 144240, Note_on_c, 5, 65, 44
10, 144351, Note_on_c, 5, 72, 0
10, 144351, Note_on_c, 5, 65, 0
10, 144360, Note_on_c, 5, 72, 44
10, 144360, Note_on_c, 5, 65, 44
10, 144471, Note_on_c, 5, 72, 0
10, 144471, Note_on_c, 5, 65, 0
10, 144480, Note_on_c, 5, 70, 44
10, 144480, Note_on_c, 5, 58, 44
10, 144599, Note_on_c, 5, 70, 0
10, 144599, Note_on_c, 5, 58, 0
10, 144600, Note_on_c, 5, 62, 44
10, 144600, Note_on_c, 5, 74, 44
10, 144719, Note_on_c, 5, 62, 0
10, 144719, Note_on_c, 5, 74, 0
10, 144720, Note_on_c, 5, 65, 44
10, 144720, Note_on_c, 5, 77, 44
10, 144951, Note_on_c, 5, 65, 0
10, 144951, Note_on_c, 5, 77, 0
10, 144960, Note_on_c, 5, 77, 44
10, 144960, Note_on_c, 5, 65, 44
10, 145191, Note_on_c, 5, 77, 0
10, 145191, Note_on_c, 5, 65, 0
10, 145200, Note_on_c, 5, 77, 44
10, 145200, Note_on_c, 5, 65, 44
10, 145671, Note_on_c, 5, 77, 0
10, 145671, Note_on_c, 5, 65, 0
10, 145680, Note_on_c, 5, 65, 44
10, 145680, Note_on_c, 5, 77, 44
10, 145791, Note_on_c, 5, 65, 0
10, 145791, Note_on_c, 5, 77, 0
10, 145800, Note_on_c, 5, 65, 44
10, 145800, Note_on_c, 5, 77, 44
10, 145911, Note_on_c, 5, 65, 0
10, 145911, Note_on_c, 5, 77, 0
10, 145918, Control_c, 5, 11, 89
10, 145920, Note_on_c, 5, 65, 68
10, 145920, Note_on_c, 5, 77, 68
10, 146640, Control_c, 5, 11, 89
10, 146760, Control_c, 5, 11, 90
10, 146880, Control_c, 5, 11, 91
10, 147000, Control_c, 5, 11, 92
10, 147120, Control_c, 5, 11, 93
10, 147240, Control_c, 5, 11, 94
10, 147360, Control_c, 5, 11, 95
10, 147480, Control_c, 5, 11, 96
10, 147600, Control_c, 5, 11, 97
10, 147711, Note_on_c, 5, 65, 0
10, 147711, Note_on_c, 5, 77, 0
10, 147720, Note_on_c, 5, 65, 68
10, 147720, Control_c, 5, 11, 98
10, 147720, Note_on_c, 5, 72, 68
10, 147840, Control_c, 5, 11, 99
10, 147960, Control_c, 5, 11, 100
10, 148080, Control_c, 5, 11, 101
10, 148200, Control_c, 5, 11, 102
10, 148320, Control_c, 5, 11, 103
10, 148431, Note_on_c, 5, 65, 0
10, 148431, Note_on_c, 5, 72, 0
10, 148440, Control_c, 5, 11, 104
10, 148440, Note_on_c, 5, 65, 68
10, 148440, Note_on_c, 5, 70, 68
10, 148559, Note_on_c, 5, 65, 0
10, 148559, Note_on_c, 5, 70, 0
10, 148560, Note_on_c, 5, 53, 68
10, 148560, Note_on_c, 5, 65, 68
10, 148560, Control_c, 5, 11, 105
10, 148671, Note_on_c, 5, 53, 0
10, 148671, Note_on_c, 5, 65, 0
10, 148680, Note_on_c, 5, 53, 68
10, 148680, Control_c, 5, 11, 106
10, 148680, Note_on_c, 5, 65, 68
10, 148791, Note_on_c, 5, 53, 0
10, 148791, Note_on_c, 5, 65, 0
10, 148800, Note_on_c, 5, 65, 68
10, 148800, Control_c, 5, 11, 107
10, 148800, Note_on_c, 5, 53, 68
10, 148920, Control_c, 5, 11, 108
10, 149040, Control_c, 5, 11, 109
10, 149160, Control_c, 5, 11, 110
10, 149280, Control_c, 5, 11, 111
10, 149400, Control_c, 5, 11, 112
10, 149520, Control_c, 5, 11, 113
10, 149640, Control_c, 5, 11, 114
10, 149760, Control_c, 5, 11, 115
10, 149880, Control_c, 5, 11, 116
10, 150000, Control_c, 5, 11, 117
10, 150120, Control_c, 5, 11, 118
10, 150231, Note_on_c, 5, 65, 0
10, 150231, Note_on_c, 5, 53, 0
10, 150240, Note_on_c, 5, 65, 68
10, 150240, Note_on_c, 5, 72, 68
10, 150240, Control_c, 5, 11, 119
10, 150360, Control_c, 5, 11, 120
10, 150480, Control_c, 5, 11, 121
10, 150600, Control_c, 5, 11, 122
10, 150720, Control_c, 5, 11, 123
10, 150840, Control_c, 5, 11, 124
10, 150960, Control_c, 5, 11, 125
10, 151080, Control_c, 5, 11, 126
10, 151311, Note_on_c, 5, 65, 0
10, 151311, Note_on_c, 5, 72, 0
10, 151320, Note_on_c, 5, 58, 68
10, 151320, Note_on_c, 5, 70, 68
10, 151320, Control_c, 5, 11, 127
10, 151335, Control_c, 5, 11, 125
10, 151350, Control_c, 5, 11, 124
10, 151365, Control_c, 5, 11, 122
10, 151380, Control_c, 5, 11, 120
10, 151395, Control_c, 5, 11, 119
10, 151410, Control_c, 5, 11, 117
10, 151425, Control_c, 5, 11, 115
10, 151440, Control_c, 5, 11, 114
10, 151455, Control_c, 5, 11, 112
10, 151470, Control_c, 5, 11, 110
10, 151485, Control_c, 5, 11, 109
10, 151500, Control_c, 5, 11, 107
10, 151515, Control_c, 5, 11, 105
10, 151530, Control_c, 5, 11, 104
10, 151545, Control_c, 5, 11, 102
10, 151560, Control_c, 5, 11, 100
10, 151575, Control_c, 5, 11, 99
10, 151590, Control_c, 5, 11, 97
10, 151605, Control_c, 5, 11, 95
10, 151620, Control_c, 5, 11, 94
10, 151635, Control_c, 5, 11, 92
10, 151650, Control_c, 5, 11, 90
10, 151665, Control_c, 5, 11, 89
10, 151671, Note_on_c, 5, 58, 0
10, 151671, Note_on_c, 5, 70, 0
10, 151680, Note_on_c, 5, 65, 68
10, 151680, Note_on_c, 5, 72, 68
10, 151680, Control_c, 5, 11, 87
10, 151698, Control_c, 5, 11, 88
10, 151716, Control_c, 5, 11, 89
10, 151734, Control_c, 5, 11, 90
10, 151752, Control_c, 5, 11, 91
10, 151770, Control_c, 5, 11, 92
10, 151788, Control_c, 5, 11, 93
10, 151806, Control_c, 5, 11, 94
10, 151824, Control_c, 5, 11, 95
10, 151842, Control_c, 5, 11, 96
10, 151860, Control_c, 5, 11, 97
10, 151878, Control_c, 5, 11, 98
10, 151896, Control_c, 5, 11, 99
10, 151914, Control_c, 5, 11, 100
10, 151932, Control_c, 5, 11, 101
10, 151950, Control_c, 5, 11, 102
10, 151968, Control_c, 5, 11, 103
10, 151986, Control_c, 5, 11, 104
10, 152004, Control_c, 5, 11, 105
10, 152022, Control_c, 5, 11, 106
10, 152031, Note_on_c, 5, 65, 0
10, 152031, Note_on_c, 5, 72, 0
10, 152040, Note_on_c, 5, 72, 68
10, 152040, Note_on_c, 5, 65, 68
10, 152040, Control_c, 5, 11, 107
10, 152058, Control_c, 5, 11, 108
10, 152076, Control_c, 5, 11, 109
10, 152094, Control_c, 5, 11, 110
10, 152112, Control_c, 5, 11, 111
10, 152130, Control_c, 5, 11, 112
10, 152148, Control_c, 5, 11, 113
10, 152166, Control_c, 5, 11, 114
10, 152184, Control_c, 5, 11, 115
10, 152202, Control_c, 5, 11, 116
10, 152220, Control_c, 5, 11, 117
10, 152238, Control_c, 5, 11, 118
10, 152256, Control_c, 5, 11, 119
10, 152274, Control_c, 5, 11, 120
10, 152292, Control_c, 5, 11, 121
10, 152310, Control_c, 5, 11, 122
10, 152328, Control_c, 5, 11, 123
10, 152346, Control_c, 5, 11, 124
10, 152364, Control_c, 5, 11, 125
10, 152382, Control_c, 5, 11, 126
10, 152400, Control_c, 5, 11, 127
10, 152418, Control_c, 5, 11, 126
10, 152436, Control_c, 5, 11, 125
10, 152454, Control_c, 5, 11, 124
10, 152472, Control_c, 5, 11, 123
10, 152490, Control_c, 5, 11, 122
10, 152508, Control_c, 5, 11, 121
10, 152526, Control_c, 5, 11, 120
10, 152544, Control_c, 5, 11, 119
10, 152562, Control_c, 5, 11, 118
10, 152580, Control_c, 5, 11, 117
10, 152598, Control_c, 5, 11, 116
10, 152616, Control_c, 5, 11, 115
10, 152634, Control_c, 5, 11, 114
10, 152652, Control_c, 5, 11, 113
10, 152670, Control_c, 5, 11, 112
10, 152688, Control_c, 5, 11, 111
10, 152706, Control_c, 5, 11, 110
10, 152724, Control_c, 5, 11, 109
10, 152742, Control_c, 5, 11, 108
10, 152751, Note_on_c, 5, 72, 0
10, 152751, Note_on_c, 5, 65, 0
10, 152760, Note_on_c, 5, 70, 68
10, 152760, Control_c, 5, 11, 107
10, 152760, Note_on_c, 5, 58, 68
10, 152778, Control_c, 5, 11, 106
10, 152796, Control_c, 5, 11, 105
10, 152814, Control_c, 5, 11, 104
10, 152832, Control_c, 5, 11, 103
10, 152850, Control_c, 5, 11, 102
10, 152868, Control_c, 5, 11, 101
10, 152886, Control_c, 5, 11, 100
10, 152904, Control_c, 5, 11, 99
10, 152922, Control_c, 5, 11, 98
10, 152940, Control_c, 5, 11, 97
10, 152958, Control_c, 5, 11, 96
10, 152976, Control_c, 5, 11, 95
10, 152994, Control_c, 5, 11, 94
10, 153012, Control_c, 5, 11, 93
10, 153030, Control_c, 5, 11, 92
10, 153048, Control_c, 5, 11, 91
10, 153066, Control_c, 5, 11, 90
10, 153084, Control_c, 5, 11, 89
10, 153111, Note_on_c, 5, 70, 0
10, 153111, Note_on_c, 5, 58, 0
10, 153120, Note_on_c, 5, 72, 68
10, 153120, Note_on_c, 5, 65, 68
10, 153120, Control_c, 5, 11, 89
10, 153139, Control_c, 5, 11, 90
10, 153158, Control_c, 5, 11, 91
10, 153177, Control_c, 5, 11, 92
10, 153196, Control_c, 5, 11, 93
10, 153215, Control_c, 5, 11, 94
10, 153234, Control_c, 5, 11, 95
10, 153253, Control_c, 5, 11, 96
10, 153272, Control_c, 5, 11, 97
10, 153291, Control_c, 5, 11, 98
10, 153309, Control_c, 5, 11, 99
10, 153328, Control_c, 5, 11, 100
10, 153347, Control_c, 5, 11, 101
10, 153366, Control_c, 5, 11, 102
10, 153385, Control_c, 5, 11, 103
10, 153404, Control_c, 5, 11, 104
10, 153423, Control_c, 5, 11, 105
10, 153442, Control_c, 5, 11, 106
10, 153461, Control_c, 5, 11, 107
10, 153471, Note_on_c, 5, 72, 0
10, 153471, Note_on_c, 5, 65, 0
10, 153480, Note_on_c, 5, 72, 68
10, 153480, Note_on_c, 5, 65, 68
10, 153480, Control_c, 5, 11, 108
10, 153499, Control_c, 5, 11, 109
10, 153518, Control_c, 5, 11, 110
10, 153537, Control_c, 5, 11, 111
10, 153556, Control_c, 5, 11, 112
10, 153575, Control_c, 5, 11, 113
10, 153594, Control_c, 5, 11, 114
10, 153613, Control_c, 5, 11, 115
10, 153632, Control_c, 5, 11, 116
10, 153651, Control_c, 5, 11, 117
10, 153669, Control_c, 5, 11, 118
10, 153688, Control_c, 5, 11, 119
10, 153707, Control_c, 5, 11, 120
10, 153726, Control_c, 5, 11, 121
10, 153745, Control_c, 5, 11, 122
10, 153764, Control_c, 5, 11, 123
10, 153783, Control_c, 5, 11, 124
10, 153802, Control_c, 5, 11, 125
10, 153821, Control_c, 5, 11, 126
10, 153840, Control_c, 5, 11, 127
10, 153859, Control_c, 5, 11, 126
10, 153878, Control_c, 5, 11, 125
10, 153897, Control_c, 5, 11, 124
10, 153916, Control_c, 5, 11, 123
10, 153935, Control_c, 5, 11, 122
10, 153954, Control_c, 5, 11, 121
10, 153973, Control_c, 5, 11, 120
10, 153992, Control_c, 5, 11, 119
10, 154011, Control_c, 5, 11, 118
10, 154029, Control_c, 5, 11, 117
10, 154048, Control_c, 5, 11, 116
10, 154067, Control_c, 5, 11, 115
10, 154086, Control_c, 5, 11, 114
10, 154105, Control_c, 5, 11, 113
10, 154124, Control_c, 5, 11, 112
10, 154143, Control_c, 5, 11, 111
10, 154162, Control_c, 5, 11, 110
10, 154181, Control_c, 5, 11, 109
10, 154191, Note_on_c, 5, 72, 0
10, 154191, Note_on_c, 5, 65, 0
10, 154200, Note_on_c, 5, 70, 68
10, 154200, Note_on_c, 5, 58, 68
10, 154200, Control_c, 5, 11, 108
10, 154219, Control_c, 5, 11, 107
10, 154238, Control_c, 5, 11, 106
10, 154257, Control_c, 5, 11, 105
10, 154276, Control_c, 5, 11, 104
10, 154295, Control_c, 5, 11, 103
10, 154314, Control_c, 5, 11, 102
10, 154333, Control_c, 5, 11, 101
10, 154352, Control_c, 5, 11, 100
10, 154371, Control_c, 5, 11, 99
10, 154389, Control_c, 5, 11, 98
10, 154408, Control_c, 5, 11, 97
10, 154427, Control_c, 5, 11, 96
10, 154431, Note_on_c, 5, 70, 0
10, 154431, Note_on_c, 5, 58, 0
10, 154440, Note_on_c, 5, 70, 68
10, 154440, Note_on_c, 5, 74, 68
10, 154446, Control_c, 5, 11, 95
10, 154465, Control_c, 5, 11, 94
10, 154484, Control_c, 5, 11, 93
10, 154503, Control_c, 5, 11, 92
10, 154522, Control_c, 5, 11, 91
10, 154541, Control_c, 5, 11, 89
10, 154551, Note_on_c, 5, 70, 0
10, 154551, Note_on_c, 5, 74, 0
10, 154558, Control_c, 5, 11, 47
10, 154560, Note_on_c, 5, 72, 92
10, 154560, Note_on_c, 5, 65, 92
10, 154560, Control_c, 5, 11, 47
10, 154575, Control_c, 5, 11, 50
10, 154590, Control_c, 5, 11, 54
10, 154605, Control_c, 5, 11, 57
10, 154620, Control_c, 5, 11, 60
10, 154635, Control_c, 5, 11, 64
10, 154650, Control_c, 5, 11, 67
10, 154665, Control_c, 5, 11, 70
10, 154680, Control_c, 5, 11, 74
10, 154695, Control_c, 5, 11, 77
10, 154710, Control_c, 5, 11, 80
10, 154725, Control_c, 5, 11, 84
10, 154740, Control_c, 5, 11, 87
10, 154755, Control_c, 5, 11, 90
10, 154770, Control_c, 5, 11, 94
10, 154785, Control_c, 5, 11, 97
10, 154800, Control_c, 5, 11, 100
10, 154815, Control_c, 5, 11, 104
10, 154830, Control_c, 5, 11, 107
10, 154845, Control_c, 5, 11, 110
10, 154860, Control_c, 5, 11, 114
10, 154875, Control_c, 5, 11, 117
10, 154890, Control_c, 5, 11, 120
10, 154905, Control_c, 5, 11, 127
10, 154911, Note_on_c, 5, 72, 0
10, 154911, Note_on_c, 5, 65, 0
10, 154920, Note_on_c, 5, 65, 92
10, 154920, Note_on_c, 5, 72, 92
10, 155159, Note_on_c, 5, 65, 0
10, 155159, Note_on_c, 5, 72, 0
10, 155280, Note_on_c, 5, 72, 92
10, 155280, Note_on_c, 5, 65, 92
10, 155519, Note_on_c, 5, 72, 0
10, 155519, Note_on_c, 5, 65, 0
10, 155640, Note_on_c, 5, 72, 80
10, 155640, Note_on_c, 5, 65, 80
10, 155879, Note_on_c, 5, 72, 0
10, 155879, Note_on_c, 5, 65, 0
10, 156000, Note_on_c, 5, 65, 68
10, 156000, Note_on_c, 5, 72, 68
10, 156239, Note_on_c, 5, 65, 0
10, 156239, Note_on_c, 5, 72, 0
10, 156360, Note_on_c, 5, 72, 56
10, 156360, Note_on_c, 5, 75, 56
10, 156599, Note_on_c, 5, 72, 0
10, 156599, Note_on_c, 5, 75, 0
10, 156720, Note_on_c, 5, 72, 44
10, 156720, Note_on_c, 5, 75, 44
10, 156959, Note_on_c, 5, 72, 0
10, 156959, Note_on_c, 5, 75, 0
10, 157080, Note_on_c, 5, 75, 32
10, 157080, Note_on_c, 5, 72, 32
10, 157319, Note_on_c, 5, 75, 0
10, 157319, Note_on_c, 5, 72, 0
10, 157440, Note_on_c, 5, 74, 32
10, 157440, Note_on_c, 5, 70, 32
10, 157679, Note_on_c, 5, 74, 0
10, 157679, Note_on_c, 5, 70, 0
10, 157800, Note_on_c, 5, 75, 38
10, 157800, Note_on_c, 5, 58, 38
10, 158039, Note_on_c, 5, 75, 0
10, 158039, Note_on_c, 5, 58, 0
10, 158160, Note_on_c, 5, 70, 44
10, 158160, Note_on_c, 5, 74, 44
10, 158399, Note_on_c, 5, 70, 0
10, 158399, Note_on_c, 5, 74, 0
10, 158520, Note_on_c, 5, 65, 50
10, 158520, Note_on_c, 5, 72, 50
10, 158759, Note_on_c, 5, 65, 0
10, 158759, Note_on_c, 5, 72, 0
10, 158880, Note_on_c, 5, 58, 56
10, 158880, Note_on_c, 5, 70, 56
10, 159119, Note_on_c, 5, 58, 0
10, 159119, Note_on_c, 5, 70, 0
10, 159240, Note_on_c, 5, 58, 62
10, 159240, Note_on_c, 5, 75, 62
10, 159479, Note_on_c, 5, 58, 0
10, 159479, Note_on_c, 5, 75, 0
10, 159600, Note_on_c, 5, 70, 68
10, 159600, Note_on_c, 5, 74, 68
10, 159839, Note_on_c, 5, 70, 0
10, 159839, Note_on_c, 5, 74, 0
10, 159960, Note_on_c, 5, 72, 74
10, 159960, Note_on_c, 5, 65, 74
10, 160191, Note_on_c, 5, 72, 0
10, 160191, Note_on_c, 5, 65, 0
10, 160200, Note_on_c, 5, 72, 80
10, 160200, Note_on_c, 5, 65, 80
10, 160319, Note_on_c, 5, 72, 0
10, 160319, Note_on_c, 5, 65, 0
10, 161040, Note_on_c, 5, 70, 44
10, 161040, Note_on_c, 5, 58, 44
10, 161151, Note_on_c, 5, 70, 0
10, 161151, Note_on_c, 5, 58, 0
10, 161160, Note_on_c, 5, 65, 44
10, 161160, Note_on_c, 5, 58, 44
10, 161264, Note_on_c, 5, 65, 0
10, 161264, Note_on_c, 5, 58, 0
10, 161280, Note_on_c, 5, 65, 43
10, 161280, Note_on_c, 5, 58, 43
10, 161369, Note_on_c, 5, 65, 0
10, 161369, Note_on_c, 5, 58, 0
10, 161400, Note_on_c, 5, 58, 42
10, 161400, Note_on_c, 5, 65, 42
10, 161504, Note_on_c, 5, 58, 0
10, 161504, Note_on_c, 5, 65, 0
10, 161520, Note_on_c, 5, 58, 42
10, 161520, Note_on_c, 5, 65, 42
10, 161624, Note_on_c, 5, 58, 0
10, 161624, Note_on_c, 5, 65, 0
10, 161640, Note_on_c, 5, 58, 41
10, 161640, Note_on_c, 5, 65, 41
10, 161729, Note_on_c, 5, 58, 0
10, 161729, Note_on_c, 5, 65, 0
10, 161760, Note_on_c, 5, 58, 40
10, 161760, Note_on_c, 5, 65, 40
10, 161864, Note_on_c, 5, 58, 0
10, 161864, Note_on_c, 5, 65, 0
10, 161880, Note_on_c, 5, 65, 40
10, 161880, Note_on_c, 5, 58, 40
10, 161984, Note_on_c, 5, 65, 0
10, 161984, Note_on_c, 5, 58, 0
10, 162000, Note_on_c, 5, 58, 39
10, 162000, Note_on_c, 5, 65, 39
10, 162104, Note_on_c, 5, 58, 0
10, 162104, Note_on_c, 5, 65, 0
10, 162120, Note_on_c, 5, 65, 38
10, 162120, Note_on_c, 5, 58, 38
10, 162224, Note_on_c, 5, 65, 0
10, 162224, Note_on_c, 5, 58, 0
10, 162240, Note_on_c, 5, 65, 38
10, 162240, Note_on_c, 5, 58, 38
10, 162344, Note_on_c, 5, 65, 0
10, 162344, Note_on_c, 5, 58, 0
10, 162360, Note_on_c, 5, 65, 37
10, 162360, Note_on_c, 5, 58, 37
10, 162449, Note_on_c, 5, 65, 0
10, 162449, Note_on_c, 5, 58, 0
10, 162480, Note_on_c, 5, 65, 36
10, 162480, Note_on_c, 5, 58, 36
10, 162584, Note_on_c, 5, 65, 0
10, 162584, Note_on_c, 5, 58, 0
10, 162600, Note_on_c, 5, 65, 36
10, 162600, Note_on_c, 5, 58, 36
10, 162704, Note_on_c, 5, 65, 0
10, 162704, Note_on_c, 5, 58, 0
10, 162720, Note_on_c, 5, 58, 35
10, 162720, Note_on_c, 5, 65, 35
10, 162824, Note_on_c, 5, 58, 0
10, 162824, Note_on_c, 5, 65, 0
10, 162840, Note_on_c, 5, 58, 34
10, 162840, Note_on_c, 5, 65, 34
10, 162944, Note_on_c, 5, 58, 0
10, 162944, Note_on_c, 5, 65, 0
10, 162960, Note_on_c, 5, 58, 34
10, 162960, Note_on_c, 5, 65, 34
10, 163064, Note_on_c, 5, 58, 0
10, 163064, Note_on_c, 5, 65, 0
10, 163080, Note_on_c, 5, 65, 33
10, 163080, Note_on_c, 5, 58, 33
10, 163169, Note_on_c, 5, 65, 0
10, 163169, Note_on_c, 5, 58, 0
10, 163200, Note_on_c, 5, 65, 32
10, 163200, Note_on_c, 5, 58, 32
10, 163304, Note_on_c, 5, 65, 0
10, 163304, Note_on_c, 5, 58, 0
10, 163320, Note_on_c, 5, 65, 32
10, 163320, Note_on_c, 5, 58, 32
10, 163424, Note_on_c, 5, 65, 0
10, 163424, Note_on_c, 5, 58, 0
10, 163440, Note_on_c, 5, 65, 32
10, 163440, Note_on_c, 5, 58, 32
10, 163529, Note_on_c, 5, 65, 0
10, 163529, Note_on_c, 5, 58, 0
10, 163560, Note_on_c, 5, 65, 32
10, 163560, Note_on_c, 5, 58, 32
10, 163799, Note_on_c, 5, 65, 0
10, 163799, Note_on_c, 5, 58, 0
10, 164040, Note_on_c, 5, 58, 32
10, 164040, Note_on_c, 5, 65, 32
10, 164144, Note_on_c, 5, 58, 0
10, 164144, Note_on_c, 5, 65, 0
10, 164160, Note_on_c, 5, 65, 32
10, 164160, Note_on_c, 5, 58, 32
10, 164249, Note_on_c, 5, 65, 0
10, 164249, Note_on_c, 5, 58, 0
10, 164280, Note_on_c, 5, 65, 32
10, 164280, Note_on_c, 5, 58, 32
10, 164519, Note_on_c, 5, 65, 0
10, 164519, Note_on_c, 5, 58, 0
10, 164760, Note_on_c, 5, 65, 36
10, 164760, Note_on_c, 5, 58, 36
10, 164864, Note_on_c, 5, 65, 0
10, 164864, Note_on_c, 5, 58, 0
10, 164880, Note_on_c, 5, 65, 40
10, 164880, Note_on_c, 5, 58, 40
10, 164969, Note_on_c, 5, 65, 0
10, 164969, Note_on_c, 5, 58, 0
10, 165000, Note_on_c, 5, 65, 44
10, 165000, Note_on_c, 5, 58, 44
10, 165239, Note_on_c, 5, 65, 0
10, 165239, Note_on_c, 5, 58, 0
10, 165480, Note_on_c, 5, 65, 60
10, 165480, Note_on_c, 5, 58, 60
10, 165584, Note_on_c, 5, 65, 0
10, 165584, Note_on_c, 5, 58, 0
10, 165600, Note_on_c, 5, 65, 64
10, 165600, Note_on_c, 5, 58, 64
10, 165689, Note_on_c, 5, 65, 0
10, 165689, Note_on_c, 5, 58, 0
10, 165720, Note_on_c, 5, 58, 68
10, 165720, Note_on_c, 5, 65, 68
10, 165824, Note_on_c, 5, 58, 0
10, 165824, Note_on_c, 5, 65, 0
10, 165840, Note_on_c, 5, 58, 72
10, 165840, Note_on_c, 5, 65, 72
10, 165944, Note_on_c, 5, 58, 0
10, 165944, Note_on_c, 5, 65, 0
10, 165960, Note_on_c, 5, 58, 76
10, 165960, Note_on_c, 5, 65, 76
10, 166049, Note_on_c, 5, 58, 0
10, 166049, Note_on_c, 5, 65, 0
10, 166080, Note_on_c, 5, 70, 80
10, 166080, Note_on_c, 5, 74, 80
10, 166791, Note_on_c, 5, 70, 0
10, 166791, Note_on_c, 5, 74, 0
10, 166800, Note_on_c, 5, 65, 80
10, 166800, Note_on_c, 5, 72, 80
10, 166800, Control_c, 5, 11, 127
10, 166815, Control_c, 5, 11, 126
10, 166830, Control_c, 5, 11, 125
10, 166845, Control_c, 5, 11, 123
10, 166860, Control_c, 5, 11, 122
10, 166875, Control_c, 5, 11, 121
10, 166890, Control_c, 5, 11, 120
10, 166905, Control_c, 5, 11, 119
10, 166920, Control_c, 5, 11, 117
10, 166935, Control_c, 5, 11, 116
10, 166950, Control_c, 5, 11, 115
10, 166965, Control_c, 5, 11, 114
10, 166980, Control_c, 5, 11, 113
10, 166995, Control_c, 5, 11, 111
10, 167010, Control_c, 5, 11, 110
10, 167025, Control_c, 5, 11, 109
10, 167040, Control_c, 5, 11, 108
10, 167055, Control_c, 5, 11, 106
10, 167070, Control_c, 5, 11, 105
10, 167085, Control_c, 5, 11, 104
10, 167100, Control_c, 5, 11, 103
10, 167115, Control_c, 5, 11, 102
10, 167130, Control_c, 5, 11, 100
10, 167145, Control_c, 5, 11, 99
10, 167160, Control_c, 5, 11, 98
10, 167175, Control_c, 5, 11, 97
10, 167190, Control_c, 5, 11, 96
10, 167205, Control_c, 5, 11, 94
10, 167220, Control_c, 5, 11, 93
10, 167235, Control_c, 5, 11, 92
10, 167250, Control_c, 5, 11, 91
10, 167265, Control_c, 5, 11, 90
10, 167280, Control_c, 5, 11, 88
10, 167295, Control_c, 5, 11, 87
10, 167310, Control_c, 5, 11, 86
10, 167325, Control_c, 5, 11, 85
10, 167340, Control_c, 5, 11, 84
10, 167355, Control_c, 5, 11, 82
10, 167370, Control_c, 5, 11, 81
10, 167385, Control_c, 5, 11, 80
10, 167400, Control_c, 5, 11, 79
10, 167415, Control_c, 5, 11, 77
10, 167430, Control_c, 5, 11, 76
10, 167445, Control_c, 5, 11, 75
10, 167460, Control_c, 5, 11, 74
10, 167475, Control_c, 5, 11, 73
10, 167490, Control_c, 5, 11, 71
10, 167505, Control_c, 5, 11, 69
10, 168231, Note_on_c, 5, 72, 0
10, 168240, Note_on_c, 5, 74, 80
10, 168471, Note_on_c, 5, 65, 0
10, 168471, Note_on_c, 5, 74, 0
10, 168478, Control_c, 5, 11, 87
10, 168480, Note_on_c, 5, 53, 68
10, 168480, Note_on_c, 5, 65, 68
10, 168591, Note_on_c, 5, 53, 0
10, 168591, Note_on_c, 5, 65, 0
10, 168600, Note_on_c, 5, 65, 68
10, 168600, Note_on_c, 5, 53, 68
10, 168711, Note_on_c, 5, 65, 0
10, 168711, Note_on_c, 5, 53, 0
10, 168720, Note_on_c, 5, 65, 68
10, 168720, Note_on_c, 5, 53, 68
10, 168831, Note_on_c, 5, 65, 0
10, 168831, Note_on_c, 5, 53, 0
10, 168840, Note_on_c, 5, 65, 68
10, 168840, Note_on_c, 5, 53, 68
10, 168951, Note_on_c, 5, 65, 0
10, 168951, Note_on_c, 5, 53, 0
10, 168958, Control_c, 5, 11, 107
10, 168960, Note_on_c, 5, 75, 56
10, 168960, Note_on_c, 5, 72, 56
10, 169311, Note_on_c, 5, 75, 0
10, 169311, Note_on_c, 5, 72, 0
10, 169318, Control_c, 5, 11, 127
10, 169320, Note_on_c, 5, 72, 80
10, 169320, Note_on_c, 5, 65, 80
10, 169559, Note_on_c, 5, 72, 0
10, 169559, Note_on_c, 5, 65, 0
10, 169680, Note_on_c, 5, 70, 32
10, 169680, Note_on_c, 5, 62, 32
10, 169784, Note_on_c, 5, 70, 0
10, 169784, Note_on_c, 5, 62, 0
10, 169800, Note_on_c, 5, 70, 32
10, 169800, Note_on_c, 5, 62, 32
10, 169904, Note_on_c, 5, 70, 0
10, 169904, Note_on_c, 5, 62, 0
10, 169920, Note_on_c, 5, 62, 32
10, 169920, Note_on_c, 5, 70, 32
10, 170009, Note_on_c, 5, 62, 0
10, 170009, Note_on_c, 5, 70, 0
10, 170040, Note_on_c, 5, 70, 32
10, 170040, Note_on_c, 5, 62, 32
10, 170279, Note_on_c, 5, 70, 0
10, 170279, Note_on_c, 5, 62, 0
10, 170279, End_track
11, 0, Start_track
11, 0, Title_t, "French Horn in E-flat"
11, 0, MIDI_port, 0
11, 0, Program_c, 6, 60
11, 0, Control_c, 6, 121, 0
11, 0, Control_c, 6, 7, 96
11, 0, Control_c, 6, 10, 50
11, 0, Control_c, 6, 11, 127
11, 5280, Control_c, 6, 11, 89
11, 5640, Note_on_c, 6, 65, 68
11, 5751, Note_on_c, 6, 65, 0
11, 5760, Control_c, 6, 11, 89
11, 5760, Note_on_c, 6, 65, 68
11, 5800, Control_c, 6, 11, 92
11, 5840, Control_c, 6, 11, 95
11, 5880, Control_c, 6, 11, 99
11, 5920, Control_c, 6, 11, 101
11, 5960, Control_c, 6, 11, 105
11, 5991, Note_on_c, 6, 65, 0
11, 6000, Control_c, 6, 11, 109
11, 6000, Note_on_c, 6, 65, 68
11, 6040, Control_c, 6, 11, 111
11, 6080, Control_c, 6, 11, 115
11, 6111, Note_on_c, 6, 65, 0
11, 6120, Note_on_c, 6, 65, 68
11, 6120, Control_c, 6, 11, 117
11, 6160, Control_c, 6, 11, 121
11, 6200, Control_c, 6, 11, 124
11, 6231, Note_on_c, 6, 65, 0
11, 6240, Control_c, 6, 11, 127
11, 6240, Note_on_c, 6, 65, 68
11, 6280, Control_c, 6, 11, 121
11, 6320, Control_c, 6, 11, 115
11, 6360, Control_c, 6, 11, 109
11, 6400, Control_c, 6, 11, 101
11, 6440, Control_c, 6, 11, 95
11, 6479, Note_on_c, 6, 65, 0
11, 6480, Control_c, 6, 11, 89
11, 10320, Note_on_c, 6, 65, 68
11, 10551, Note_on_c, 6, 65, 0
11, 10560, Note_on_c, 6, 65, 68
11, 10560, Control_c, 6, 11, 89
11, 10590, Control_c, 6, 11, 92
11, 10620, Control_c, 6, 11, 95
11, 10650, Control_c, 6, 11, 99
11, 10680, Control_c, 6, 11, 101
11, 10710, Control_c, 6, 11, 105
11, 10740, Control_c, 6, 11, 109
11, 10770, Control_c, 6, 11, 111
11, 10800, Control_c, 6, 11, 115
11, 10830, Control_c, 6, 11, 117
11, 10860, Control_c, 6, 11, 121
11, 10890, Control_c, 6, 11, 124
11, 10920, Control_c, 6, 11, 127
11, 10960, Control_c, 6, 11, 121
11, 11000, Control_c, 6, 11, 115
11, 11031, Note_on_c, 6, 65, 0
11, 11040, Control_c, 6, 11, 109
11, 11040, Note_on_c, 6, 65, 68
11, 11080, Control_c, 6, 11, 101
11, 11120, Control_c, 6, 11, 95
11, 11160, Control_c, 6, 11, 89
11, 11279, Note_on_c, 6, 65, 0
11, 13920, Control_c, 6, 11, 127
11, 14040, Note_on_c, 6, 58, 44
11, 14151, Note_on_c, 6, 58, 0
11, 14160, Note_on_c, 6, 63, 46
11, 14271, Note_on_c, 6, 63, 0
11, 14280, Note_on_c, 6, 58, 48
11, 14335, Note_on_c, 6, 58, 0
11, 14340, Note_on_c, 6, 55, 49
11, 14395, Note_on_c, 6, 55, 0
11, 14400, Note_on_c, 6, 51, 50
11, 14511, Note_on_c, 6, 51, 0
11, 14520, Note_on_c, 6, 58, 52
11, 14631, Note_on_c, 6, 58, 0
11, 14640, Note_on_c, 6, 58, 54
11, 14751, Note_on_c, 6, 58, 0
11, 14760, Note_on_c, 6, 58, 57
11, 14871, Note_on_c, 6, 58, 0
11, 14880, Note_on_c, 6, 58, 59
11, 14991, Note_on_c, 6, 58, 0
11, 15000, Note_on_c, 6, 58, 61
11, 15111, Note_on_c, 6, 58, 0
11, 15120, Note_on_c, 6, 58, 63
11, 15231, Note_on_c, 6, 58, 0
11, 15240, Note_on_c, 6, 58, 65
11, 15351, Note_on_c, 6, 58, 0
11, 15360, Note_on_c, 6, 58, 68
11, 15479, Note_on_c, 6, 58, 0
11, 17040, Note_on_c, 6, 65, 38
11, 17271, Note_on_c, 6, 65, 0
11, 17280, Note_on_c, 6, 65, 38
11, 17631, Note_on_c, 6, 65, 0
11, 17640, Note_on_c, 6, 65, 38
11, 17751, Note_on_c, 6, 65, 0
11, 17760, Note_on_c, 6, 65, 38
11, 17991, Note_on_c, 6, 65, 0
11, 18000, Note_on_c, 6, 65, 38
11, 18111, Note_on_c, 6, 65, 0
11, 18120, Note_on_c, 6, 65, 38
11, 18231, Note_on_c, 6, 65, 0
11, 18240, Note_on_c, 6, 65, 38
11, 18591, Note_on_c, 6, 65, 0
11, 18600, Note_on_c, 6, 65, 38
11, 18711, Note_on_c, 6, 65, 0
11, 18720, Note_on_c, 6, 58, 38
11, 18831, Note_on_c, 6, 58, 0
11, 18840, Note_on_c, 6, 58, 38
11, 18951, Note_on_c, 6, 58, 0
11, 18960, Note_on_c, 6, 51, 38
11, 19079, Note_on_c, 6, 51, 0
11, 20280, Note_on_c, 6, 65, 62
11, 20391, Note_on_c, 6, 65, 0
11, 20400, Note_on_c, 6, 65, 56
11, 20511, Note_on_c, 6, 65, 0
11, 20520, Note_on_c, 6, 65, 50
11, 20631, Note_on_c, 6, 65, 0
11, 20640, Note_on_c, 6, 65, 44
11, 20751, Note_on_c, 6, 65, 0
11, 20760, Note_on_c, 6, 65, 44
11, 20871, Note_on_c, 6, 65, 0
11, 20880, Note_on_c, 6, 65, 44
11, 20999, Note_on_c, 6, 65, 0
11, 21000, Note_on_c, 6, 63, 44
11, 21119, Note_on_c, 6, 63, 0
11, 36360, Note_on_c, 6, 65, 44
11, 36449, Note_on_c, 6, 65, 0
11, 36480, Note_on_c, 6, 65, 44
11, 36659, Note_on_c, 6, 65, 0
11, 36840, Note_on_c, 6, 65, 44
11, 36929, Note_on_c, 6, 65, 0
11, 36960, Note_on_c, 6, 65, 44
11, 37139, Note_on_c, 6, 65, 0
11, 37320, Note_on_c, 6, 65, 44
11, 37409, Note_on_c, 6, 65, 0
11, 37440, Note_on_c, 6, 65, 44
11, 37619, Note_on_c, 6, 65, 0
11, 37800, Note_on_c, 6, 65, 44
11, 37889, Note_on_c, 6, 65, 0
11, 37920, Note_on_c, 6, 65, 44
11, 38099, Note_on_c, 6, 65, 0
11, 38280, Note_on_c, 6, 65, 44
11, 38369, Note_on_c, 6, 65, 0
11, 38400, Note_on_c, 6, 65, 44
11, 38579, Note_on_c, 6, 65, 0
11, 38760, Note_on_c, 6, 58, 44
11, 38849, Note_on_c, 6, 58, 0
11, 38880, Note_on_c, 6, 65, 44
11, 39059, Note_on_c, 6, 65, 0
11, 39240, Note_on_c, 6, 65, 44
11, 39329, Note_on_c, 6, 65, 0
11, 39360, Note_on_c, 6, 65, 44
11, 39449, Note_on_c, 6, 65, 0
11, 39720, Note_on_c, 6, 65, 44
11, 39809, Note_on_c, 6, 65, 0
11, 39838, Control_c, 6, 11, 89
11, 39840, Note_on_c, 6, 65, 68
11, 39870, Control_c, 6, 11, 92
11, 39900, Control_c, 6, 11, 95
11, 39930, Control_c, 6, 11, 99
11, 39960, Control_c, 6, 11, 101
11, 39990, Control_c, 6, 11, 105
11, 40020, Control_c, 6, 11, 109
11, 40050, Control_c, 6, 11, 111
11, 40079, Note_on_c, 6, 65, 0
11, 40080, Control_c, 6, 11, 115
11, 40110, Control_c, 6, 11, 117
11, 40140, Control_c, 6, 11, 121
11, 40170, Control_c, 6, 11, 124
11, 40200, Note_on_c, 6, 65, 68
11, 40311, Note_on_c, 6, 65, 0
11, 40320, Control_c, 6, 11, 127
11, 40320, Note_on_c, 6, 65, 68
11, 40340, Control_c, 6, 11, 124
11, 40360, Control_c, 6, 11, 121
11, 40380, Control_c, 6, 11, 117
11, 40400, Control_c, 6, 11, 115
11, 40420, Control_c, 6, 11, 111
11, 40440, Control_c, 6, 11, 109
11, 40460, Control_c, 6, 11, 105
11, 40480, Control_c, 6, 11, 101
11, 40500, Control_c, 6, 11, 99
11, 40520, Control_c, 6, 11, 95
11, 40540, Control_c, 6, 11, 92
11, 40559, Note_on_c, 6, 65, 0
11, 40560, Control_c, 6, 11, 127
11, 40680, Note_on_c, 6, 65, 44
11, 40769, Note_on_c, 6, 65, 0
11, 40800, Note_on_c, 6, 65, 44
11, 40979, Note_on_c, 6, 65, 0
11, 41160, Note_on_c, 6, 65, 44
11, 41249, Note_on_c, 6, 65, 0
11, 41280, Note_on_c, 6, 65, 44
11, 41459, Note_on_c, 6, 65, 0
11, 41640, Note_on_c, 6, 65, 44
11, 41729, Note_on_c, 6, 65, 0
11, 41760, Note_on_c, 6, 65, 44
11, 41939, Note_on_c, 6, 65, 0
11, 42120, Note_on_c, 6, 65, 44
11, 42209, Note_on_c, 6, 65, 0
11, 42240, Note_on_c, 6, 65, 44
11, 42419, Note_on_c, 6, 65, 0
11, 42600, Note_on_c, 6, 67, 44
11, 42689, Note_on_c, 6, 67, 0
11, 42720, Note_on_c, 6, 67, 44
11, 42899, Note_on_c, 6, 67, 0
11, 43080, Note_on_c, 6, 63, 44
11, 43169, Note_on_c, 6, 63, 0
11, 43200, Note_on_c, 6, 65, 44
11, 43379, Note_on_c, 6, 65, 0
11, 43920, Control_c, 6, 11, 87
11, 44040, Control_c, 6, 11, 89
11, 44040, Note_on_c, 6, 65, 68
11, 44060, Control_c, 6, 11, 92
11, 44080, Control_c, 6, 11, 95
11, 44100, Control_c, 6, 11, 99
11, 44120, Control_c, 6, 11, 101
11, 44140, Control_c, 6, 11, 105
11, 44159, Note_on_c, 6, 65, 0
11, 44160, Control_c, 6, 11, 109
11, 44160, Note_on_c, 6, 65, 68
11, 44180, Control_c, 6, 11, 111
11, 44200, Control_c, 6, 11, 115
11, 44220, Control_c, 6, 11, 117
11, 44240, Control_c, 6, 11, 121
11, 44260, Control_c, 6, 11, 124
11, 44279, Note_on_c, 6, 65, 0
11, 44280, Note_on_c, 6, 65, 68
11, 44366, Control_c, 6, 11, 124
11, 44390, Control_c, 6, 11, 121
11, 44399, Note_on_c, 6, 65, 0
11, 44400, Note_on_c, 6, 65, 68
11, 44416, Control_c, 6, 11, 117
11, 44440, Control_c, 6, 11, 115
11, 44466, Control_c, 6, 11, 111
11, 44490, Control_c, 6, 11, 109
11, 44516, Control_c, 6, 11, 105
11, 44519, Note_on_c, 6, 65, 0
11, 44520, Note_on_c, 6, 65, 68
11, 44540, Control_c, 6, 11, 101
11, 44566, Control_c, 6, 11, 99
11, 44590, Control_c, 6, 11, 95
11, 44616, Control_c, 6, 11, 92
11, 44639, Note_on_c, 6, 65, 0
11, 44640, Note_on_c, 6, 65, 68
11, 44640, Control_c, 6, 11, 89
11, 44670, Control_c, 6, 11, 92
11, 44700, Control_c, 6, 11, 95
11, 44730, Control_c, 6, 11, 99
11, 44760, Control_c, 6, 11, 101
11, 44790, Control_c, 6, 11, 105
11, 44820, Control_c, 6, 11, 109
11, 44850, Control_c, 6, 11, 111
11, 44880, Control_c, 6, 11, 115
11, 44910, Control_c, 6, 11, 117
11, 44940, Control_c, 6, 11, 121
11, 44970, Control_c, 6, 11, 124
11, 45119, Note_on_c, 6, 65, 0
11, 45120, Control_c, 6, 11, 127
11, 45120, Note_on_c, 6, 65, 68
11, 45160, Control_c, 6, 11, 121
11, 45200, Control_c, 6, 11, 115
11, 45240, Control_c, 6, 11, 109
11, 45280, Control_c, 6, 11, 101
11, 45320, Control_c, 6, 11, 89
11, 45359, Note_on_c, 6, 65, 0
11, 45480, Note_on_c, 6, 65, 68
11, 45569, Note_on_c, 6, 65, 0
11, 45600, Note_on_c, 6, 65, 68
11, 45779, Note_on_c, 6, 65, 0
11, 45960, Note_on_c, 6, 65, 68
11, 46049, Note_on_c, 6, 65, 0
11, 46080, Note_on_c, 6, 65, 68
11, 46259, Note_on_c, 6, 65, 0
11, 46440, Note_on_c, 6, 65, 68
11, 46529, Note_on_c, 6, 65, 0
11, 46560, Note_on_c, 6, 65, 68
11, 46739, Note_on_c, 6, 65, 0
11, 46920, Note_on_c, 6, 65, 68
11, 47009, Note_on_c, 6, 65, 0
11, 47040, Note_on_c, 6, 65, 68
11, 47129, Note_on_c, 6, 65, 0
11, 47280, Note_on_c, 6, 65, 68
11, 47369, Note_on_c, 6, 65, 0
11, 47400, Note_on_c, 6, 65, 68
11, 47489, Note_on_c, 6, 65, 0
11, 47520, Note_on_c, 6, 65, 68
11, 47520, Control_c, 6, 11, 89
11, 47560, Control_c, 6, 11, 92
11, 47600, Control_c, 6, 11, 95
11, 47631, Note_on_c, 6, 65, 0
11, 47640, Note_on_c, 6, 58, 68
11, 47640, Control_c, 6, 11, 99
11, 47680, Control_c, 6, 11, 101
11, 47720, Control_c, 6, 11, 105
11, 47759, Note_on_c, 6, 58, 0
11, 47760, Control_c, 6, 11, 109
11, 47800, Control_c, 6, 11, 111
11, 47840, Control_c, 6, 11, 115
11, 47880, Control_c, 6, 11, 117
11, 47880, Note_on_c, 6, 63, 68
11, 47920, Control_c, 6, 11, 121
11, 47960, Control_c, 6, 11, 124
11, 47999, Note_on_c, 6, 63, 0
11, 48000, Control_c, 6, 11, 127
11, 48040, Control_c, 6, 11, 121
11, 48080, Control_c, 6, 11, 115
11, 48120, Control_c, 6, 11, 109
11, 48120, Note_on_c, 6, 62, 68
11, 48160, Control_c, 6, 11, 101
11, 48200, Control_c, 6, 11, 95
11, 48239, Note_on_c, 6, 62, 0
11, 48240, Control_c, 6, 11, 89
11, 48240, Note_on_c, 6, 67, 68
11, 48299, Note_on_c, 6, 67, 0
11, 48300, Note_on_c, 6, 63, 68
11, 48340, Control_c, 6, 11, 92
11, 48359, Note_on_c, 6, 63, 0
11, 48360, Note_on_c, 6, 58, 68
11, 48419, Note_on_c, 6, 58, 0
11, 48420, Note_on_c, 6, 55, 68
11, 48440, Control_c, 6, 11, 95
11, 48471, Note_on_c, 6, 55, 0
11, 48480, Note_on_c, 6, 51, 68
11, 48540, Control_c, 6, 11, 99
11, 48569, Note_on_c, 6, 51, 0
11, 48600, Note_on_c, 6, 67, 68
11, 48640, Control_c, 6, 11, 101
11, 48689, Note_on_c, 6, 67, 0
11, 48740, Control_c, 6, 11, 105
11, 48840, Control_c, 6, 11, 109
11, 48840, Note_on_c, 6, 67, 68
11, 48929, Note_on_c, 6, 67, 0
11, 48940, Control_c, 6, 11, 111
11, 48960, Note_on_c, 6, 67, 68
11, 49040, Control_c, 6, 11, 115
11, 49139, Note_on_c, 6, 67, 0
11, 49140, Control_c, 6, 11, 117
11, 49240, Control_c, 6, 11, 121
11, 49320, Note_on_c, 6, 67, 68
11, 49340, Control_c, 6, 11, 124
11, 49409, Note_on_c, 6, 67, 0
11, 49440, Control_c, 6, 11, 127
11, 49440, Note_on_c, 6, 67, 68
11, 49480, Control_c, 6, 11, 124
11, 49520, Control_c, 6, 11, 121
11, 49529, Note_on_c, 6, 67, 0
11, 49560, Note_on_c, 6, 65, 68
11, 49560, Control_c, 6, 11, 117
11, 49600, Control_c, 6, 11, 115
11, 49640, Control_c, 6, 11, 111
11, 49649, Note_on_c, 6, 65, 0
11, 49680, Control_c, 6, 11, 109
11, 49720, Control_c, 6, 11, 105
11, 49760, Control_c, 6, 11, 101
11, 49800, Note_on_c, 6, 58, 68
11, 49800, Control_c, 6, 11, 99
11, 49840, Control_c, 6, 11, 95
11, 49880, Control_c, 6, 11, 92
11, 49889, Note_on_c, 6, 58, 0
11, 49920, Note_on_c, 6, 65, 68
11, 49920, Control_c, 6, 11, 89
11, 50099, Note_on_c, 6, 65, 0
11, 50280, Note_on_c, 6, 65, 68
11, 50369, Note_on_c, 6, 65, 0
11, 50398, Control_c, 6, 11, 127
11, 50400, Note_on_c, 6, 65, 44
11, 50579, Note_on_c, 6, 65, 0
11, 50760, Note_on_c, 6, 65, 44
11, 50849, Note_on_c, 6, 65, 0
11, 50880, Note_on_c, 6, 65, 44
11, 51059, Note_on_c, 6, 65, 0
11, 51120, Note_on_c, 6, 65, 44
11, 51299, Note_on_c, 6, 65, 0
11, 51360, Note_on_c, 6, 65, 44
11, 51711, Note_on_c, 6, 65, 0
11, 51720, Note_on_c, 6, 65, 44
11, 51831, Note_on_c, 6, 65, 0
11, 51840, Note_on_c, 6, 65, 44
11, 52071, Note_on_c, 6, 65, 0
11, 52080, Note_on_c, 6, 65, 44
11, 52191, Note_on_c, 6, 65, 0
11, 52200, Note_on_c, 6, 65, 44
11, 52311, Note_on_c, 6, 65, 0
11, 52320, Note_on_c, 6, 65, 44
11, 52671, Note_on_c, 6, 65, 0
11, 52680, Note_on_c, 6, 65, 44
11, 52791, Note_on_c, 6, 65, 0
11, 52800, Note_on_c, 6, 58, 44
11, 52911, Note_on_c, 6, 58, 0
11, 52920, Note_on_c, 6, 58, 44
11, 53031, Note_on_c, 6, 58, 0
11, 53040, Note_on_c, 6, 51, 44
11, 53159, Note_on_c, 6, 51, 0
11, 54360, Note_on_c, 6, 65, 62
11, 54471, Note_on_c, 6, 65, 0
11, 54480, Note_on_c, 6, 65, 56
11, 54591, Note_on_c, 6, 65, 0
11, 54600, Note_on_c, 6, 65, 50
11, 54711, Note_on_c, 6, 65, 0
11, 54720, Note_on_c, 6, 65, 44
11, 54831, Note_on_c, 6, 65, 0
11, 54840, Note_on_c, 6, 65, 44
11, 54951, Note_on_c, 6, 65, 0
11, 54960, Note_on_c, 6, 65, 44
11, 55079, Note_on_c, 6, 65, 0
11, 55080, Note_on_c, 6, 63, 44
11, 55199, Note_on_c, 6, 63, 0
11, 69840, Note_on_c, 6, 46, 32
11, 70071, Note_on_c, 6, 46, 0
11, 70080, Note_on_c, 6, 51, 32
11, 70311, Note_on_c, 6, 51, 0
11, 70320, Note_on_c, 6, 58, 32
11, 70791, Note_on_c, 6, 58, 0
11, 70800, Note_on_c, 6, 58, 32
11, 71271, Note_on_c, 6, 58, 0
11, 71280, Note_on_c, 6, 46, 32
11, 71631, Note_on_c, 6, 46, 0
11, 71640, Note_on_c, 6, 58, 32
11, 71759, Note_on_c, 6, 58, 0
11, 71880, Note_on_c, 6, 58, 32
11, 71991, Note_on_c, 6, 58, 0
11, 72000, Note_on_c, 6, 67, 32
11, 72471, Note_on_c, 6, 67, 0
11, 72480, Note_on_c, 6, 62, 32
11, 72951, Note_on_c, 6, 62, 0
11, 72960, Note_on_c, 6, 63, 32
11, 73431, Note_on_c, 6, 63, 0
11, 73440, Note_on_c, 6, 58, 32
11, 73911, Note_on_c, 6, 58, 0
11, 73920, Note_on_c, 6, 55, 32
11, 74151, Note_on_c, 6, 55, 0
11, 74160, Note_on_c, 6, 51, 32
11, 74391, Note_on_c, 6, 51, 0
11, 74400, Note_on_c, 6, 50, 32
11, 74871, Note_on_c, 6, 50, 0
11, 74880, Note_on_c, 6, 51, 32
11, 75351, Note_on_c, 6, 51, 0
11, 75360, Note_on_c, 6, 46, 32
11, 75831, Note_on_c, 6, 46, 0
11, 75840, Note_on_c, 6, 39, 32
11, 76311, Note_on_c, 6, 39, 0
11, 76320, Note_on_c, 6, 34, 32
11, 76791, Note_on_c, 6, 34, 0
11, 76800, Note_on_c, 6, 34, 32
11, 76911, Note_on_c, 6, 34, 0
11, 76920, Note_on_c, 6, 58, 32
11, 77031, Note_on_c, 6, 58, 0
11, 77040, Note_on_c, 6, 66, 32
11, 77391, Note_on_c, 6, 66, 0
11, 77400, Note_on_c, 6, 66, 32
11, 77511, Note_on_c, 6, 66, 0
11, 77520, Note_on_c, 6, 64, 32
11, 77871, Note_on_c, 6, 64, 0
11, 77880, Note_on_c, 6, 64, 32
11, 77991, Note_on_c, 6, 64, 0
11, 78000, Note_on_c, 6, 63, 32
11, 78351, Note_on_c, 6, 63, 0
11, 78360, Note_on_c, 6, 61, 32
11, 78479, Note_on_c, 6, 61, 0
11, 78480, Note_on_c, 6, 63, 32
11, 78599, Note_on_c, 6, 63, 0
11, 78600, Note_on_c, 6, 64, 32
11, 78711, Note_on_c, 6, 64, 0
11, 78718, Control_c, 6, 11, 89
11, 78720, Note_on_c, 6, 64, 56
11, 78839, Note_on_c, 6, 64, 0
11, 78840, Note_on_c, 6, 63, 56
11, 78951, Note_on_c, 6, 63, 0
11, 78960, Note_on_c, 6, 63, 56
11, 79311, Note_on_c, 6, 63, 0
11, 79320, Note_on_c, 6, 64, 56
11, 79424, Note_on_c, 6, 64, 0
11, 79440, Note_on_c, 6, 66, 56
11, 79544, Note_on_c, 6, 66, 0
11, 79560, Note_on_c, 6, 68, 56
11, 79649, Note_on_c, 6, 68, 0
11, 79680, Control_c, 6, 11, 89
11, 79680, Note_on_c, 6, 68, 56
11, 79693, Control_c, 6, 11, 91
11, 79707, Control_c, 6, 11, 93
11, 79720, Control_c, 6, 11, 95
11, 79733, Control_c, 6, 11, 97
11, 79747, Control_c, 6, 11, 100
11, 79760, Control_c, 6, 11, 102
11, 79773, Control_c, 6, 11, 104
11, 79787, Control_c, 6, 11, 106
11, 79799, Note_on_c, 6, 68, 0
11, 79800, Control_c, 6, 11, 108
11, 79800, Note_on_c, 6, 66, 56
11, 79813, Control_c, 6, 11, 110
11, 79827, Control_c, 6, 11, 112
11, 79840, Control_c, 6, 11, 114
11, 79853, Control_c, 6, 11, 116
11, 79867, Control_c, 6, 11, 119
11, 79880, Control_c, 6, 11, 121
11, 79893, Control_c, 6, 11, 123
11, 79907, Control_c, 6, 11, 127
11, 79919, Note_on_c, 6, 66, 0
11, 79920, Control_c, 6, 11, 127
11, 79920, Note_on_c, 6, 71, 56
11, 79933, Control_c, 6, 11, 125
11, 79947, Control_c, 6, 11, 123
11, 79960, Control_c, 6, 11, 121
11, 79973, Control_c, 6, 11, 119
11, 79987, Control_c, 6, 11, 116
11, 80000, Control_c, 6, 11, 114
11, 80013, Control_c, 6, 11, 112
11, 80027, Control_c, 6, 11, 110
11, 80039, Note_on_c, 6, 71, 0
11, 80040, Note_on_c, 6, 63, 56
11, 80040, Control_c, 6, 11, 108
11, 80053, Control_c, 6, 11, 106
11, 80067, Control_c, 6, 11, 104
11, 80080, Control_c, 6, 11, 102
11, 80093, Control_c, 6, 11, 100
11, 80107, Control_c, 6, 11, 97
11, 80120, Control_c, 6, 11, 95
11, 80133, Control_c, 6, 11, 93
11, 80147, Control_c, 6, 11, 91
11, 80151, Note_on_c, 6, 63, 0
11, 80160, Note_on_c, 6, 66, 56
11, 80399, Note_on_c, 6, 66, 0
11, 80400, Note_on_c, 6, 64, 56
11, 80631, Note_on_c, 6, 64, 0
11, 80640, Note_on_c, 6, 64, 56
11, 80640, Control_c, 6, 11, 89
11, 80653, Control_c, 6, 11, 91
11, 80667, Control_c, 6, 11, 93
11, 80680, Control_c, 6, 11, 95
11, 80693, Control_c, 6, 11, 97
11, 80707, Control_c, 6, 11, 100
11, 80720, Control_c, 6, 11, 102
11, 80733, Control_c, 6, 11, 104
11, 80747, Control_c, 6, 11, 106
11, 80759, Note_on_c, 6, 64, 0
11, 80760, Note_on_c, 6, 63, 56
11, 80760, Control_c, 6, 11, 108
11, 80773, Control_c, 6, 11, 110
11, 80787, Control_c, 6, 11, 112
11, 80800, Control_c, 6, 11, 114
11, 80813, Control_c, 6, 11, 116
11, 80827, Control_c, 6, 11, 119
11, 80840, Control_c, 6, 11, 121
11, 80853, Control_c, 6, 11, 123
11, 80867, Control_c, 6, 11, 125
11, 80879, Note_on_c, 6, 63, 0
11, 80880, Control_c, 6, 11, 127
11, 80880, Control_c, 6, 11, 127
11, 80893, Control_c, 6, 11, 125
11, 80907, Control_c, 6, 11, 123
11, 80920, Control_c, 6, 11, 121
11, 80933, Control_c, 6, 11, 119
11, 80947, Control_c, 6, 11, 116
11, 80960, Control_c, 6, 11, 114
11, 80973, Control_c, 6, 11, 112
11, 80987, Control_c, 6, 11, 110
11, 81000, Note_on_c, 6, 59, 56
11, 81000, Control_c, 6, 11, 108
11, 81013, Control_c, 6, 11, 106
11, 81027, Control_c, 6, 11, 104
11, 81040, Control_c, 6, 11, 102
11, 81053, Control_c, 6, 11, 100
11, 81067, Control_c, 6, 11, 97
11, 81080, Control_c, 6, 11, 95
11, 81093, Control_c, 6, 11, 93
11, 81107, Control_c, 6, 11, 91
11, 81119, Note_on_c, 6, 59, 0
11, 81240, Note_on_c, 6, 59, 56
11, 81359, Note_on_c, 6, 59, 0
11, 81360, Note_on_c, 6, 58, 56
11, 81591, Note_on_c, 6, 58, 0
11, 81600, Note_on_c, 6, 58, 56
11, 82551, Note_on_c, 6, 58, 0
11, 82560, Note_on_c, 6, 59, 68
11, 82560, Control_c, 6, 11, 69
11, 82671, Note_on_c, 6, 59, 0
11, 82680, Note_on_c, 6, 61, 68
11, 82739, Note_on_c, 6, 61, 0
11, 82740, Note_on_c, 6, 63, 68
11, 82799, Note_on_c, 6, 63, 0
11, 82800, Note_on_c, 6, 64, 68
11, 82859, Note_on_c, 6, 64, 0
11, 82860, Note_on_c, 6, 66, 68
11, 82919, Note_on_c, 6, 66, 0
11, 82920, Note_on_c, 6, 68, 68
11, 82979, Note_on_c, 6, 68, 0
11, 82980, Note_on_c, 6, 70, 68
11, 83039, Note_on_c, 6, 70, 0
11, 83040, Note_on_c, 6, 71, 68
11, 83099, Note_on_c, 6, 71, 0
11, 83100, Note_on_c, 6, 66, 68
11, 83159, Note_on_c, 6, 66, 0
11, 83160, Note_on_c, 6, 71, 68
11, 83219, Note_on_c, 6, 71, 0
11, 83220, Note_on_c, 6, 70, 68
11, 83279, Note_on_c, 6, 70, 0
11, 83280, Note_on_c, 6, 68, 68
11, 83339, Note_on_c, 6, 68, 0
11, 83340, Note_on_c, 6, 66, 68
11, 83399, Note_on_c, 6, 66, 0
11, 83400, Note_on_c, 6, 64, 68
11, 83459, Note_on_c, 6, 64, 0
11, 83460, Note_on_c, 6, 63, 68
11, 83511, Note_on_c, 6, 63, 0
11, 83520, Control_c, 6, 11, 69
11, 83520, Note_on_c, 6, 64, 68
11, 83553, Control_c, 6, 11, 70
11, 83586, Control_c, 6, 11, 71
11, 83619, Control_c, 6, 11, 72
11, 83652, Control_c, 6, 11, 73
11, 83686, Control_c, 6, 11, 74
11, 83719, Control_c, 6, 11, 75
11, 83751, Note_on_c, 6, 64, 0
11, 83752, Control_c, 6, 11, 76
11, 83760, Note_on_c, 6, 64, 68
11, 83785, Control_c, 6, 11, 77
11, 83818, Control_c, 6, 11, 78
11, 83851, Control_c, 6, 11, 79
11, 83884, Control_c, 6, 11, 80
11, 83917, Control_c, 6, 11, 81
11, 83950, Control_c, 6, 11, 82
11, 83983, Control_c, 6, 11, 83
11, 84017, Control_c, 6, 11, 84
11, 84050, Control_c, 6, 11, 85
11, 84083, Control_c, 6, 11, 86
11, 84116, Control_c, 6, 11, 87
11, 84149, Control_c, 6, 11, 88
11, 84182, Control_c, 6, 11, 89
11, 84215, Control_c, 6, 11, 90
11, 84231, Note_on_c, 6, 64, 0
11, 84240, Note_on_c, 6, 64, 68
11, 84248, Control_c, 6, 11, 91
11, 84281, Control_c, 6, 11, 92
11, 84314, Control_c, 6, 11, 93
11, 84348, Control_c, 6, 11, 94
11, 84381, Control_c, 6, 11, 95
11, 84414, Control_c, 6, 11, 96
11, 84447, Control_c, 6, 11, 97
11, 84480, Control_c, 6, 11, 98
11, 84513, Control_c, 6, 11, 99
11, 84546, Control_c, 6, 11, 100
11, 84579, Control_c, 6, 11, 101
11, 84612, Control_c, 6, 11, 102
11, 84646, Control_c, 6, 11, 103
11, 84679, Control_c, 6, 11, 104
11, 84711, Note_on_c, 6, 64, 0
11, 84712, Control_c, 6, 11, 105
11, 84720, Note_on_c, 6, 64, 68
11, 84745, Control_c, 6, 11, 106
11, 84778, Control_c, 6, 11, 107
11, 84811, Control_c, 6, 11, 108
11, 84844, Control_c, 6, 11, 109
11, 84877, Control_c, 6, 11, 110
11, 84910, Control_c, 6, 11, 111
11, 84943, Control_c, 6, 11, 112
11, 84977, Control_c, 6, 11, 113
11, 85010, Control_c, 6, 11, 114
11, 85043, Control_c, 6, 11, 115
11, 85076, Control_c, 6, 11, 116
11, 85109, Control_c, 6, 11, 117
11, 85142, Control_c, 6, 11, 118
11, 85175, Control_c, 6, 11, 119
11, 85191, Note_on_c, 6, 64, 0
11, 85200, Note_on_c, 6, 65, 68
11, 85208, Control_c, 6, 11, 120
11, 85241, Control_c, 6, 11, 121
11, 85274, Control_c, 6, 11, 122
11, 85308, Control_c, 6, 11, 123
11, 85341, Control_c, 6, 11, 124
11, 85374, Control_c, 6, 11, 125
11, 85407, Control_c, 6, 11, 127
11, 85440, Control_c, 6, 11, 89
11, 85911, Note_on_c, 6, 65, 0
11, 85920, Note_on_c, 6, 65, 68
11, 86031, Note_on_c, 6, 65, 0
11, 86040, Note_on_c, 6, 65, 68
11, 86151, Note_on_c, 6, 65, 0
11, 86160, Note_on_c, 6, 65, 68
11, 86399, Note_on_c, 6, 65, 0
11, 86640, Note_on_c, 6, 65, 68
11, 86751, Note_on_c, 6, 65, 0
11, 86760, Note_on_c, 6, 65, 68
11, 86871, Note_on_c, 6, 65, 0
11, 86880, Note_on_c, 6, 65, 68
11, 87119, Note_on_c, 6, 65, 0
11, 87360, Note_on_c, 6, 65, 68
11, 87471, Note_on_c, 6, 65, 0
11, 87480, Note_on_c, 6, 65, 68
11, 87591, Note_on_c, 6, 65, 0
11, 87600, Note_on_c, 6, 65, 68
11, 87839, Note_on_c, 6, 65, 0
11, 88080, Note_on_c, 6, 65, 68
11, 88191, Note_on_c, 6, 65, 0
11, 88200, Note_on_c, 6, 65, 68
11, 88311, Note_on_c, 6, 65, 0
11, 88320, Note_on_c, 6, 65, 68
11, 88559, Note_on_c, 6, 65, 0
11, 88800, Note_on_c, 6, 65, 68
11, 88911, Note_on_c, 6, 65, 0
11, 88920, Note_on_c, 6, 65, 68
11, 89031, Note_on_c, 6, 65, 0
11, 89040, Note_on_c, 6, 58, 68
11, 89279, Note_on_c, 6, 58, 0
11, 89520, Note_on_c, 6, 67, 68
11, 89631, Note_on_c, 6, 67, 0
11, 89640, Note_on_c, 6, 67, 68
11, 89751, Note_on_c, 6, 67, 0
11, 89760, Note_on_c, 6, 65, 68
11, 89760, Control_c, 6, 11, 89
11, 89779, Control_c, 6, 11, 90
11, 89798, Control_c, 6, 11, 91
11, 89817, Control_c, 6, 11, 92
11, 89836, Control_c, 6, 11, 93
11, 89855, Control_c, 6, 11, 94
11, 89874, Control_c, 6, 11, 95
11, 89893, Control_c, 6, 11, 96
11, 89912, Control_c, 6, 11, 97
11, 89931, Control_c, 6, 11, 98
11, 89949, Control_c, 6, 11, 99
11, 89968, Control_c, 6, 11, 100
11, 89987, Control_c, 6, 11, 101
11, 90006, Control_c, 6, 11, 102
11, 90025, Control_c, 6, 11, 103
11, 90044, Control_c, 6, 11, 104
11, 90063, Control_c, 6, 11, 105
11, 90082, Control_c, 6, 11, 106
11, 90101, Control_c, 6, 11, 107
11, 90119, Note_on_c, 6, 65, 0
11, 90120, Control_c, 6, 11, 108
11, 90139, Control_c, 6, 11, 109
11, 90158, Control_c, 6, 11, 110
11, 90177, Control_c, 6, 11, 111
11, 90196, Control_c, 6, 11, 112
11, 90215, Control_c, 6, 11, 113
11, 90234, Control_c, 6, 11, 114
11, 90240, Note_on_c, 6, 65, 68
11, 90253, Control_c, 6, 11, 115
11, 90272, Control_c, 6, 11, 116
11, 90291, Control_c, 6, 11, 117
11, 90309, Control_c, 6, 11, 118
11, 90328, Control_c, 6, 11, 119
11, 90347, Control_c, 6, 11, 120
11, 90351, Note_on_c, 6, 65, 0
11, 90360, Note_on_c, 6, 65, 68
11, 90366, Control_c, 6, 11, 121
11, 90385, Control_c, 6, 11, 122
11, 90404, Control_c, 6, 11, 123
11, 90423, Control_c, 6, 11, 124
11, 90442, Control_c, 6, 11, 125
11, 90461, Control_c, 6, 11, 126
11, 90471, Note_on_c, 6, 65, 0
11, 90480, Note_on_c, 6, 65, 68
11, 90480, Control_c, 6, 11, 127
11, 90489, Control_c, 6, 11, 126
11, 90499, Control_c, 6, 11, 125
11, 90508, Control_c, 6, 11, 124
11, 90518, Control_c, 6, 11, 123
11, 90527, Control_c, 6, 11, 122
11, 90537, Control_c, 6, 11, 121
11, 90546, Control_c, 6, 11, 120
11, 90556, Control_c, 6, 11, 119
11, 90565, Control_c, 6, 11, 118
11, 90575, Control_c, 6, 11, 117
11, 90584, Control_c, 6, 11, 116
11, 90594, Control_c, 6, 11, 115
11, 90603, Control_c, 6, 11, 114
11, 90613, Control_c, 6, 11, 113
11, 90622, Control_c, 6, 11, 112
11, 90632, Control_c, 6, 11, 111
11, 90641, Control_c, 6, 11, 110
11, 90651, Control_c, 6, 11, 109
11, 90660, Control_c, 6, 11, 108
11, 90669, Control_c, 6, 11, 107
11, 90679, Control_c, 6, 11, 106
11, 90688, Control_c, 6, 11, 105
11, 90698, Control_c, 6, 11, 104
11, 90707, Control_c, 6, 11, 103
11, 90717, Control_c, 6, 11, 102
11, 90719, Note_on_c, 6, 65, 0
11, 90726, Control_c, 6, 11, 101
11, 90736, Control_c, 6, 11, 100
11, 90745, Control_c, 6, 11, 99
11, 90755, Control_c, 6, 11, 98
11, 90764, Control_c, 6, 11, 97
11, 90774, Control_c, 6, 11, 96
11, 90783, Control_c, 6, 11, 95
11, 90793, Control_c, 6, 11, 94
11, 90802, Control_c, 6, 11, 93
11, 90812, Control_c, 6, 11, 92
11, 90821, Control_c, 6, 11, 91
11, 90831, Control_c, 6, 11, 90
11, 91551, Control_c, 6, 11, 100
11, 91560, Note_on_c, 6, 58, 68
11, 91578, Control_c, 6, 11, 101
11, 91605, Control_c, 6, 11, 102
11, 91632, Control_c, 6, 11, 103
11, 91659, Control_c, 6, 11, 104
11, 91686, Control_c, 6, 11, 105
11, 91713, Control_c, 6, 11, 106
11, 91740, Control_c, 6, 11, 107
11, 91767, Control_c, 6, 11, 108
11, 91794, Control_c, 6, 11, 109
11, 91821, Control_c, 6, 11, 110
11, 91848, Control_c, 6, 11, 111
11, 91875, Control_c, 6, 11, 112
11, 91902, Control_c, 6, 11, 113
11, 91929, Control_c, 6, 11, 114
11, 91956, Control_c, 6, 11, 115
11, 91983, Control_c, 6, 11, 116
11, 92010, Control_c, 6, 11, 117
11, 92037, Control_c, 6, 11, 118
11, 92064, Control_c, 6, 11, 119
11, 92091, Control_c, 6, 11, 120
11, 92118, Control_c, 6, 11, 121
11, 92145, Control_c, 6, 11, 122
11, 92159, Note_on_c, 6, 58, 0
11, 92160, Note_on_c, 6, 57, 68
11, 92172, Control_c, 6, 11, 123
11, 92199, Control_c, 6, 11, 124
11, 92226, Control_c, 6, 11, 125
11, 92253, Control_c, 6, 11, 126
11, 92279, Note_on_c, 6, 57, 0
11, 92280, Note_on_c, 6, 67, 68
11, 92280, Control_c, 6, 11, 127
11, 92289, Control_c, 6, 11, 126
11, 92298, Control_c, 6, 11, 125
11, 92307, Control_c, 6, 11, 124
11, 92316, Control_c, 6, 11, 123
11, 92325, Control_c, 6, 11, 122
11, 92334, Control_c, 6, 11, 121
11, 92343, Control_c, 6, 11, 120
11, 92352, Control_c, 6, 11, 119
11, 92361, Control_c, 6, 11, 118
11, 92370, Control_c, 6, 11, 117
11, 92379, Control_c, 6, 11, 116
11, 92388, Control_c, 6, 11, 115
11, 92397, Control_c, 6, 11, 114
11, 92399, Note_on_c, 6, 67, 0
11, 92400, Note_on_c, 6, 65, 68
11, 92406, Control_c, 6, 11, 113
11, 92415, Control_c, 6, 11, 112
11, 92424, Control_c, 6, 11, 111
11, 92433, Control_c, 6, 11, 110
11, 92442, Control_c, 6, 11, 109
11, 92451, Control_c, 6, 11, 108
11, 92460, Control_c, 6, 11, 107
11, 92469, Control_c, 6, 11, 106
11, 92478, Control_c, 6, 11, 105
11, 92487, Control_c, 6, 11, 104
11, 92496, Control_c, 6, 11, 103
11, 92505, Control_c, 6, 11, 102
11, 92511, Note_on_c, 6, 65, 0
11, 92514, Control_c, 6, 11, 101
11, 92520, Note_on_c, 6, 65, 68
11, 92523, Control_c, 6, 11, 100
11, 92532, Control_c, 6, 11, 99
11, 92541, Control_c, 6, 11, 98
11, 92550, Control_c, 6, 11, 97
11, 92559, Control_c, 6, 11, 96
11, 92568, Control_c, 6, 11, 95
11, 92577, Control_c, 6, 11, 94
11, 92586, Control_c, 6, 11, 93
11, 92595, Control_c, 6, 11, 92
11, 92604, Control_c, 6, 11, 91
11, 92613, Control_c, 6, 11, 90
11, 92622, Control_c, 6, 11, 89
11, 92631, Note_on_c, 6, 65, 0
11, 92640, Note_on_c, 6, 65, 68
11, 94079, Note_on_c, 6, 65, 0
11, 94080, Note_on_c, 6, 65, 68
11, 95151, Note_on_c, 6, 65, 0
11, 95160, Note_on_c, 6, 67, 68
11, 96239, Note_on_c, 6, 67, 0
11, 96240, Note_on_c, 6, 65, 68
11, 96951, Note_on_c, 6, 65, 0
11, 96960, Note_on_c, 6, 65, 68
11, 97919, Note_on_c, 6, 65, 0
11, 98040, Note_on_c, 6, 65, 68
11, 98271, Note_on_c, 6, 65, 0
11, 98280, Note_on_c, 6, 65, 68
11, 98391, Note_on_c, 6, 65, 0
11, 98400, Control_c, 6, 11, 89
11, 98400, Note_on_c, 6, 65, 68
11, 98419, Control_c, 6, 11, 90
11, 98438, Control_c, 6, 11, 91
11, 98457, Control_c, 6, 11, 92
11, 98476, Control_c, 6, 11, 93
11, 98495, Control_c, 6, 11, 94
11, 98514, Control_c, 6, 11, 95
11, 98533, Control_c, 6, 11, 96
11, 98552, Control_c, 6, 11, 97
11, 98571, Control_c, 6, 11, 98
11, 98589, Control_c, 6, 11, 99
11, 98608, Control_c, 6, 11, 100
11, 98627, Control_c, 6, 11, 101
11, 98646, Control_c, 6, 11, 102
11, 98665, Control_c, 6, 11, 103
11, 98684, Control_c, 6, 11, 104
11, 98703, Control_c, 6, 11, 105
11, 98722, Control_c, 6, 11, 106
11, 98741, Control_c, 6, 11, 107
11, 98760, Control_c, 6, 11, 108
11, 98779, Control_c, 6, 11, 109
11, 98798, Control_c, 6, 11, 110
11, 98817, Control_c, 6, 11, 111
11, 98836, Control_c, 6, 11, 112
11, 98855, Control_c, 6, 11, 113
11, 98874, Control_c, 6, 11, 114
11, 98893, Control_c, 6, 11, 115
11, 98912, Control_c, 6, 11, 116
11, 98931, Control_c, 6, 11, 117
11, 98949, Control_c, 6, 11, 118
11, 98968, Control_c, 6, 11, 119
11, 98987, Control_c, 6, 11, 120
11, 99006, Control_c, 6, 11, 121
11, 99025, Control_c, 6, 11, 122
11, 99044, Control_c, 6, 11, 123
11, 99063, Control_c, 6, 11, 124
11, 99082, Control_c, 6, 11, 125
11, 99101, Control_c, 6, 11, 127
11, 99111, Note_on_c, 6, 65, 0
11, 99120, Control_c, 6, 11, 127
11, 99120, Note_on_c, 6, 65, 68
11, 99135, Control_c, 6, 11, 125
11, 99150, Control_c, 6, 11, 124
11, 99165, Control_c, 6, 11, 122
11, 99180, Control_c, 6, 11, 120
11, 99195, Control_c, 6, 11, 119
11, 99210, Control_c, 6, 11, 117
11, 99225, Control_c, 6, 11, 115
11, 99240, Control_c, 6, 11, 114
11, 99255, Control_c, 6, 11, 112
11, 99270, Control_c, 6, 11, 110
11, 99285, Control_c, 6, 11, 109
11, 99300, Control_c, 6, 11, 107
11, 99315, Control_c, 6, 11, 105
11, 99330, Control_c, 6, 11, 104
11, 99345, Control_c, 6, 11, 102
11, 99360, Control_c, 6, 11, 100
11, 99375, Control_c, 6, 11, 99
11, 99390, Control_c, 6, 11, 97
11, 99405, Control_c, 6, 11, 95
11, 99420, Control_c, 6, 11, 94
11, 99435, Control_c, 6, 11, 92
11, 99450, Control_c, 6, 11, 90
11, 99465, Control_c, 6, 11, 89
11, 99471, Note_on_c, 6, 65, 0
11, 99480, Note_on_c, 6, 65, 68
11, 99831, Note_on_c, 6, 65, 0
11, 99840, Note_on_c, 6, 67, 68
11, 100191, Note_on_c, 6, 67, 0
11, 100200, Note_on_c, 6, 69, 68
11, 100551, Note_on_c, 6, 69, 0
11, 100560, Note_on_c, 6, 65, 68
11, 100911, Note_on_c, 6, 65, 0
11, 100920, Note_on_c, 6, 70, 68
11, 101271, Note_on_c, 6, 70, 0
11, 101280, Note_on_c, 6, 67, 68
11, 101280, Control_c, 6, 11, 87
11, 101298, Control_c, 6, 11, 88
11, 101316, Control_c, 6, 11, 89
11, 101334, Control_c, 6, 11, 90
11, 101352, Control_c, 6, 11, 91
11, 101370, Control_c, 6, 11, 92
11, 101388, Control_c, 6, 11, 93
11, 101406, Control_c, 6, 11, 94
11, 101424, Control_c, 6, 11, 95
11, 101442, Control_c, 6, 11, 96
11, 101460, Control_c, 6, 11, 97
11, 101478, Control_c, 6, 11, 98
11, 101496, Control_c, 6, 11, 99
11, 101514, Control_c, 6, 11, 100
11, 101532, Control_c, 6, 11, 101
11, 101550, Control_c, 6, 11, 102
11, 101568, Control_c, 6, 11, 103
11, 101586, Control_c, 6, 11, 104
11, 101604, Control_c, 6, 11, 105
11, 101622, Control_c, 6, 11, 106
11, 101631, Note_on_c, 6, 67, 0
11, 101640, Note_on_c, 6, 69, 68
11, 101640, Control_c, 6, 11, 107
11, 101658, Control_c, 6, 11, 108
11, 101676, Control_c, 6, 11, 109
11, 101694, Control_c, 6, 11, 110
11, 101712, Control_c, 6, 11, 111
11, 101730, Control_c, 6, 11, 112
11, 101748, Control_c, 6, 11, 113
11, 101766, Control_c, 6, 11, 114
11, 101784, Control_c, 6, 11, 115
11, 101802, Control_c, 6, 11, 116
11, 101820, Control_c, 6, 11, 117
11, 101838, Control_c, 6, 11, 118
11, 101856, Control_c, 6, 11, 119
11, 101874, Control_c, 6, 11, 120
11, 101892, Control_c, 6, 11, 121
11, 101910, Control_c, 6, 11, 122
11, 101928, Control_c, 6, 11, 123
11, 101946, Control_c, 6, 11, 124
11, 101964, Control_c, 6, 11, 125
11, 101982, Control_c, 6, 11, 126
11, 102000, Control_c, 6, 11, 127
11, 102019, Control_c, 6, 11, 126
11, 102038, Control_c, 6, 11, 125
11, 102057, Control_c, 6, 11, 124
11, 102076, Control_c, 6, 11, 123
11, 102095, Control_c, 6, 11, 122
11, 102114, Control_c, 6, 11, 121
11, 102133, Control_c, 6, 11, 120
11, 102152, Control_c, 6, 11, 119
11, 102171, Control_c, 6, 11, 118
11, 102189, Control_c, 6, 11, 117
11, 102208, Control_c, 6, 11, 116
11, 102227, Control_c, 6, 11, 115
11, 102246, Control_c, 6, 11, 114
11, 102265, Control_c, 6, 11, 113
11, 102284, Control_c, 6, 11, 112
11, 102303, Control_c, 6, 11, 111
11, 102322, Control_c, 6, 11, 110
11, 102341, Control_c, 6, 11, 109
11, 102359, Note_on_c, 6, 69, 0
11, 102360, Control_c, 6, 11, 108
11, 102360, Note_on_c, 6, 70, 68
11, 102379, Control_c, 6, 11, 107
11, 102398, Control_c, 6, 11, 106
11, 102417, Control_c, 6, 11, 105
11, 102436, Control_c, 6, 11, 104
11, 102455, Control_c, 6, 11, 103
11, 102474, Control_c, 6, 11, 102
11, 102493, Control_c, 6, 11, 101
11, 102512, Control_c, 6, 11, 100
11, 102531, Control_c, 6, 11, 99
11, 102549, Control_c, 6, 11, 98
11, 102568, Control_c, 6, 11, 97
11, 102587, Control_c, 6, 11, 96
11, 102591, Note_on_c, 6, 70, 0
11, 102600, Note_on_c, 6, 65, 68
11, 102606, Control_c, 6, 11, 95
11, 102625, Control_c, 6, 11, 94
11, 102644, Control_c, 6, 11, 93
11, 102663, Control_c, 6, 11, 92
11, 102682, Control_c, 6, 11, 91
11, 102701, Control_c, 6, 11, 90
11, 102711, Note_on_c, 6, 65, 0
11, 102720, Control_c, 6, 11, 89
11, 102720, Note_on_c, 6, 65, 68
11, 102739, Control_c, 6, 11, 90
11, 102758, Control_c, 6, 11, 91
11, 102777, Control_c, 6, 11, 92
11, 102796, Control_c, 6, 11, 93
11, 102815, Control_c, 6, 11, 94
11, 102834, Control_c, 6, 11, 95
11, 102839, Note_on_c, 6, 65, 0
11, 102840, Note_on_c, 6, 67, 68
11, 102853, Control_c, 6, 11, 96
11, 102872, Control_c, 6, 11, 97
11, 102891, Control_c, 6, 11, 98
11, 102909, Control_c, 6, 11, 99
11, 102928, Control_c, 6, 11, 100
11, 102947, Control_c, 6, 11, 101
11, 102951, Note_on_c, 6, 67, 0
11, 102960, Note_on_c, 6, 67, 68
11, 102966, Control_c, 6, 11, 102
11, 102985, Control_c, 6, 11, 103
11, 103004, Control_c, 6, 11, 104
11, 103023, Control_c, 6, 11, 105
11, 103042, Control_c, 6, 11, 106
11, 103061, Control_c, 6, 11, 107
11, 103071, Note_on_c, 6, 67, 0
11, 103080, Note_on_c, 6, 67, 68
11, 103080, Control_c, 6, 11, 108
11, 103099, Control_c, 6, 11, 109
11, 103118, Control_c, 6, 11, 110
11, 103137, Control_c, 6, 11, 111
11, 103156, Control_c, 6, 11, 112
11, 103175, Control_c, 6, 11, 113
11, 103194, Control_c, 6, 11, 114
11, 103199, Note_on_c, 6, 67, 0
11, 103200, Note_on_c, 6, 69, 68
11, 103213, Control_c, 6, 11, 115
11, 103232, Control_c, 6, 11, 116
11, 103251, Control_c, 6, 11, 117
11, 103269, Control_c, 6, 11, 118
11, 103288, Control_c, 6, 11, 119
11, 103307, Control_c, 6, 11, 120
11, 103311, Note_on_c, 6, 69, 0
11, 103320, Note_on_c, 6, 69, 68
11, 103326, Control_c, 6, 11, 121
11, 103345, Control_c, 6, 11, 122
11, 103364, Control_c, 6, 11, 123
11, 103383, Control_c, 6, 11, 124
11, 103402, Control_c, 6, 11, 125
11, 103421, Control_c, 6, 11, 126
11, 103491, Note_on_c, 6, 69, 0
11, 103500, Note_on_c, 6, 65, 68
11, 103500, Control_c, 6, 11, 127
11, 103551, Note_on_c, 6, 65, 0
11, 103560, Note_on_c, 6, 67, 68
11, 103560, Control_c, 6, 11, 127
11, 103590, Control_c, 6, 11, 117
11, 103611, Note_on_c, 6, 67, 0
11, 103620, Control_c, 6, 11, 109
11, 103620, Note_on_c, 6, 69, 68
11, 103650, Control_c, 6, 11, 99
11, 103671, Note_on_c, 6, 69, 0
11, 103680, Note_on_c, 6, 70, 68
11, 103680, Control_c, 6, 11, 127
11, 103690, Control_c, 6, 11, 124
11, 103700, Control_c, 6, 11, 120
11, 103710, Control_c, 6, 11, 117
11, 103720, Control_c, 6, 11, 114
11, 103730, Control_c, 6, 11, 110
11, 103740, Control_c, 6, 11, 107
11, 103750, Control_c, 6, 11, 104
11, 103760, Control_c, 6, 11, 100
11, 103770, Control_c, 6, 11, 97
11, 103780, Control_c, 6, 11, 94
11, 103790, Control_c, 6, 11, 90
11, 103800, Control_c, 6, 11, 89
11, 103847, Control_c, 6, 11, 90
11, 103851, Note_on_c, 6, 70, 0
11, 103860, Note_on_c, 6, 67, 68
11, 103895, Control_c, 6, 11, 91
11, 103911, Note_on_c, 6, 67, 0
11, 103920, Note_on_c, 6, 63, 68
11, 103942, Control_c, 6, 11, 92
11, 103971, Note_on_c, 6, 63, 0
11, 103980, Note_on_c, 6, 58, 68
11, 103989, Control_c, 6, 11, 93
11, 104031, Note_on_c, 6, 58, 0
11, 104037, Control_c, 6, 11, 94
11, 104040, Note_on_c, 6, 51, 68
11, 104084, Control_c, 6, 11, 95
11, 104091, Note_on_c, 6, 51, 0
11, 104100, Note_on_c, 6, 46, 68
11, 104132, Control_c, 6, 11, 96
11, 104151, Note_on_c, 6, 46, 0
11, 104160, Note_on_c, 6, 39, 68
11, 104179, Control_c, 6, 11, 97
11, 104226, Control_c, 6, 11, 98
11, 104271, Note_on_c, 6, 39, 0
11, 104274, Control_c, 6, 11, 99
11, 104280, Note_on_c, 6, 67, 68
11, 104321, Control_c, 6, 11, 100
11, 104368, Control_c, 6, 11, 101
11, 104416, Control_c, 6, 11, 102
11, 104463, Control_c, 6, 11, 103
11, 104511, Control_c, 6, 11, 104
11, 104558, Control_c, 6, 11, 105
11, 104605, Control_c, 6, 11, 106
11, 104653, Control_c, 6, 11, 107
11, 104700, Control_c, 6, 11, 108
11, 104747, Control_c, 6, 11, 109
11, 104795, Control_c, 6, 11, 110
11, 104842, Control_c, 6, 11, 111
11, 104889, Control_c, 6, 11, 112
11, 104937, Control_c, 6, 11, 113
11, 104984, Control_c, 6, 11, 114
11, 105032, Control_c, 6, 11, 115
11, 105079, Control_c, 6, 11, 116
11, 105126, Control_c, 6, 11, 117
11, 105174, Control_c, 6, 11, 118
11, 105221, Control_c, 6, 11, 119
11, 105268, Control_c, 6, 11, 120
11, 105316, Control_c, 6, 11, 121
11, 105363, Control_c, 6, 11, 122
11, 105411, Control_c, 6, 11, 123
11, 105458, Control_c, 6, 11, 124
11, 105505, Control_c, 6, 11, 125
11, 105553, Control_c, 6, 11, 127
11, 105591, Note_on_c, 6, 67, 0
11, 105600, Note_on_c, 6, 58, 68
11, 105600, Control_c, 6, 11, 127
11, 105618, Control_c, 6, 11, 126
11, 105636, Control_c, 6, 11, 125
11, 105654, Control_c, 6, 11, 124
11, 105672, Control_c, 6, 11, 123
11, 105690, Control_c, 6, 11, 122
11, 105708, Control_c, 6, 11, 121
11, 105726, Control_c, 6, 11, 120
11, 105744, Control_c, 6, 11, 119
11, 105762, Control_c, 6, 11, 118
11, 105780, Control_c, 6, 11, 117
11, 105798, Control_c, 6, 11, 116
11, 105816, Control_c, 6, 11, 115
11, 105834, Control_c, 6, 11, 114
11, 105852, Control_c, 6, 11, 113
11, 105870, Control_c, 6, 11, 112
11, 105888, Control_c, 6, 11, 111
11, 105906, Control_c, 6, 11, 110
11, 105924, Control_c, 6, 11, 109
11, 105942, Control_c, 6, 11, 108
11, 105960, Control_c, 6, 11, 107
11, 105978, Control_c, 6, 11, 106
11, 105996, Control_c, 6, 11, 105
11, 106014, Control_c, 6, 11, 104
11, 106032, Control_c, 6, 11, 103
11, 106050, Control_c, 6, 11, 102
11, 106068, Control_c, 6, 11, 101
11, 106086, Control_c, 6, 11, 100
11, 106104, Control_c, 6, 11, 99
11, 106122, Control_c, 6, 11, 98
11, 106140, Control_c, 6, 11, 97
11, 106158, Control_c, 6, 11, 96
11, 106176, Control_c, 6, 11, 95
11, 106191, Note_on_c, 6, 58, 0
11, 106194, Control_c, 6, 11, 94
11, 106200, Note_on_c, 6, 62, 68
11, 106212, Control_c, 6, 11, 93
11, 106230, Control_c, 6, 11, 92
11, 106248, Control_c, 6, 11, 91
11, 106266, Control_c, 6, 11, 90
11, 106284, Control_c, 6, 11, 89
11, 106311, Note_on_c, 6, 62, 0
11, 106320, Note_on_c, 6, 65, 68
11, 107039, Note_on_c, 6, 65, 0
11, 107040, Note_on_c, 6, 65, 68
11, 107999, Note_on_c, 6, 65, 0
11, 108840, Note_on_c, 6, 65, 68
11, 109079, Note_on_c, 6, 65, 0
11, 109080, Note_on_c, 6, 58, 68
11, 109199, Note_on_c, 6, 58, 0
11, 109200, Note_on_c, 6, 58, 68
11, 109559, Note_on_c, 6, 58, 0
11, 110280, Note_on_c, 6, 65, 68
11, 110511, Note_on_c, 6, 65, 0
11, 110520, Note_on_c, 6, 58, 68
11, 110631, Note_on_c, 6, 58, 0
11, 110640, Note_on_c, 6, 58, 68
11, 110991, Note_on_c, 6, 58, 0
11, 111000, Note_on_c, 6, 67, 68
11, 111000, Control_c, 6, 11, 87
11, 111045, Control_c, 6, 11, 88
11, 111090, Control_c, 6, 11, 89
11, 111135, Control_c, 6, 11, 90
11, 111180, Control_c, 6, 11, 91
11, 111225, Control_c, 6, 11, 92
11, 111270, Control_c, 6, 11, 93
11, 111315, Control_c, 6, 11, 94
11, 111360, Control_c, 6, 11, 95
11, 111405, Control_c, 6, 11, 96
11, 111411, Note_on_c, 6, 67, 0
11, 111420, Note_on_c, 6, 63, 68
11, 111450, Control_c, 6, 11, 97
11, 111471, Note_on_c, 6, 63, 0
11, 111480, Note_on_c, 6, 58, 68
11, 111495, Control_c, 6, 11, 98
11, 111531, Note_on_c, 6, 58, 0
11, 111540, Control_c, 6, 11, 99
11, 111540, Note_on_c, 6, 55, 68
11, 111585, Control_c, 6, 11, 100
11, 111591, Note_on_c, 6, 55, 0
11, 111600, Note_on_c, 6, 63, 68
11, 111630, Control_c, 6, 11, 101
11, 111639, Note_on_c, 6, 63, 0
11, 111640, Note_on_c, 6, 58, 68
11, 111675, Control_c, 6, 11, 102
11, 111679, Note_on_c, 6, 58, 0
11, 111680, Note_on_c, 6, 55, 68
11, 111719, Note_on_c, 6, 55, 0
11, 111720, Control_c, 6, 11, 103
11, 111720, Note_on_c, 6, 51, 68
11, 111765, Control_c, 6, 11, 104
11, 111810, Control_c, 6, 11, 105
11, 111831, Note_on_c, 6, 51, 0
11, 111840, Note_on_c, 6, 67, 68
11, 111855, Control_c, 6, 11, 106
11, 111900, Control_c, 6, 11, 107
11, 111945, Control_c, 6, 11, 108
11, 111951, Note_on_c, 6, 67, 0
11, 111960, Note_on_c, 6, 67, 68
11, 111990, Control_c, 6, 11, 109
11, 112035, Control_c, 6, 11, 110
11, 112071, Note_on_c, 6, 67, 0
11, 112080, Note_on_c, 6, 67, 68
11, 112080, Control_c, 6, 11, 111
11, 112125, Control_c, 6, 11, 112
11, 112170, Control_c, 6, 11, 113
11, 112215, Control_c, 6, 11, 114
11, 112260, Control_c, 6, 11, 115
11, 112305, Control_c, 6, 11, 116
11, 112350, Control_c, 6, 11, 117
11, 112395, Control_c, 6, 11, 118
11, 112440, Control_c, 6, 11, 119
11, 112485, Control_c, 6, 11, 120
11, 112530, Control_c, 6, 11, 121
11, 112559, Note_on_c, 6, 67, 0
11, 112560, Note_on_c, 6, 69, 68
11, 112575, Control_c, 6, 11, 122
11, 112620, Control_c, 6, 11, 123
11, 112665, Control_c, 6, 11, 124
11, 112679, Note_on_c, 6, 69, 0
11, 112680, Note_on_c, 6, 70, 68
11, 112710, Control_c, 6, 11, 125
11, 112755, Control_c, 6, 11, 127
11, 112791, Note_on_c, 6, 70, 0
11, 112800, Note_on_c, 6, 70, 68
11, 112800, Control_c, 6, 11, 127
11, 112818, Control_c, 6, 11, 126
11, 112836, Control_c, 6, 11, 125
11, 112854, Control_c, 6, 11, 124
11, 112872, Control_c, 6, 11, 123
11, 112890, Control_c, 6, 11, 122
11, 112908, Control_c, 6, 11, 121
11, 112926, Control_c, 6, 11, 120
11, 112944, Control_c, 6, 11, 119
11, 112962, Control_c, 6, 11, 118
11, 112980, Control_c, 6, 11, 117
11, 112998, Control_c, 6, 11, 116
11, 113016, Control_c, 6, 11, 115
11, 113034, Control_c, 6, 11, 114
11, 113052, Control_c, 6, 11, 113
11, 113070, Control_c, 6, 11, 112
11, 113088, Control_c, 6, 11, 111
11, 113106, Control_c, 6, 11, 110
11, 113124, Control_c, 6, 11, 109
11, 113142, Control_c, 6, 11, 108
11, 113160, Control_c, 6, 11, 107
11, 113178, Control_c, 6, 11, 106
11, 113196, Control_c, 6, 11, 105
11, 113214, Control_c, 6, 11, 104
11, 113232, Control_c, 6, 11, 103
11, 113250, Control_c, 6, 11, 102
11, 113268, Control_c, 6, 11, 101
11, 113286, Control_c, 6, 11, 100
11, 113304, Control_c, 6, 11, 99
11, 113322, Control_c, 6, 11, 98
11, 113340, Control_c, 6, 11, 97
11, 113358, Control_c, 6, 11, 96
11, 113376, Control_c, 6, 11, 95
11, 113391, Note_on_c, 6, 70, 0
11, 113394, Control_c, 6, 11, 94
11, 113400, Note_on_c, 6, 65, 68
11, 113412, Control_c, 6, 11, 93
11, 113430, Control_c, 6, 11, 92
11, 113448, Control_c, 6, 11, 91
11, 113466, Control_c, 6, 11, 90
11, 113484, Control_c, 6, 11, 89
11, 113511, Note_on_c, 6, 65, 0
11, 113520, Note_on_c, 6, 65, 68
11, 113999, Note_on_c, 6, 65, 0
11, 114000, Note_on_c, 6, 67, 68
11, 114119, Note_on_c, 6, 67, 0
11, 114120, Note_on_c, 6, 65, 68
11, 114231, Note_on_c, 6, 65, 0
11, 114238, Control_c, 6, 11, 79
11, 114240, Note_on_c, 6, 65, 68
11, 114359, Note_on_c, 6, 65, 0
11, 114360, Note_on_c, 6, 67, 68
11, 114479, Note_on_c, 6, 67, 0
11, 114480, Note_on_c, 6, 65, 68
11, 114591, Note_on_c, 6, 65, 0
11, 114600, Note_on_c, 6, 65, 68
11, 114719, Note_on_c, 6, 65, 0
11, 114720, Note_on_c, 6, 67, 68
11, 114839, Note_on_c, 6, 67, 0
11, 114840, Note_on_c, 6, 65, 68
11, 114951, Note_on_c, 6, 65, 0
11, 114960, Note_on_c, 6, 65, 68
11, 115079, Note_on_c, 6, 65, 0
11, 115080, Note_on_c, 6, 67, 68
11, 115199, Note_on_c, 6, 67, 0
11, 115200, Note_on_c, 6, 65, 68
11, 115311, Note_on_c, 6, 65, 0
11, 115320, Note_on_c, 6, 65, 68
11, 115439, Note_on_c, 6, 65, 0
11, 115440, Note_on_c, 6, 67, 68
11, 115559, Note_on_c, 6, 67, 0
11, 115560, Note_on_c, 6, 65, 68
11, 115671, Note_on_c, 6, 65, 0
11, 115678, Control_c, 6, 11, 49
11, 115680, Note_on_c, 6, 65, 80
11, 115799, Note_on_c, 6, 65, 0
11, 115800, Note_on_c, 6, 67, 80
11, 115919, Note_on_c, 6, 67, 0
11, 115920, Note_on_c, 6, 65, 80
11, 116031, Note_on_c, 6, 65, 0
11, 116040, Note_on_c, 6, 65, 80
11, 116159, Note_on_c, 6, 65, 0
11, 116160, Note_on_c, 6, 67, 80
11, 116279, Note_on_c, 6, 67, 0
11, 116280, Note_on_c, 6, 65, 80
11, 116391, Note_on_c, 6, 65, 0
11, 116400, Note_on_c, 6, 65, 80
11, 116400, Control_c, 6, 11, 49
11, 116413, Control_c, 6, 11, 51
11, 116425, Control_c, 6, 11, 52
11, 116438, Control_c, 6, 11, 54
11, 116450, Control_c, 6, 11, 56
11, 116463, Control_c, 6, 11, 57
11, 116475, Control_c, 6, 11, 59
11, 116488, Control_c, 6, 11, 60
11, 116500, Control_c, 6, 11, 62
11, 116513, Control_c, 6, 11, 64
11, 116519, Note_on_c, 6, 65, 0
11, 116520, Note_on_c, 6, 67, 80
11, 116525, Control_c, 6, 11, 65
11, 116538, Control_c, 6, 11, 67
11, 116550, Control_c, 6, 11, 69
11, 116563, Control_c, 6, 11, 70
11, 116575, Control_c, 6, 11, 72
11, 116588, Control_c, 6, 11, 73
11, 116600, Control_c, 6, 11, 75
11, 116613, Control_c, 6, 11, 77
11, 116625, Control_c, 6, 11, 78
11, 116638, Control_c, 6, 11, 80
11, 116639, Note_on_c, 6, 67, 0
11, 116640, Note_on_c, 6, 65, 80
11, 116650, Control_c, 6, 11, 82
11, 116663, Control_c, 6, 11, 83
11, 116675, Control_c, 6, 11, 85
11, 116688, Control_c, 6, 11, 86
11, 116700, Control_c, 6, 11, 88
11, 116713, Control_c, 6, 11, 90
11, 116725, Control_c, 6, 11, 91
11, 116738, Control_c, 6, 11, 93
11, 116750, Control_c, 6, 11, 95
11, 116751, Note_on_c, 6, 65, 0
11, 116760, Note_on_c, 6, 65, 80
11, 116763, Control_c, 6, 11, 96
11, 116775, Control_c, 6, 11, 98
11, 116788, Control_c, 6, 11, 99
11, 116800, Control_c, 6, 11, 101
11, 116811, Note_on_c, 6, 65, 0
11, 116813, Control_c, 6, 11, 103
11, 116820, Note_on_c, 6, 67, 80
11, 116825, Control_c, 6, 11, 104
11, 116838, Control_c, 6, 11, 106
11, 116850, Control_c, 6, 11, 108
11, 116863, Control_c, 6, 11, 109
11, 116871, Note_on_c, 6, 67, 0
11, 116875, Control_c, 6, 11, 111
11, 116880, Note_on_c, 6, 68, 80
11, 116888, Control_c, 6, 11, 112
11, 116900, Control_c, 6, 11, 114
11, 116913, Control_c, 6, 11, 116
11, 116925, Control_c, 6, 11, 117
11, 116938, Control_c, 6, 11, 119
11, 116950, Control_c, 6, 11, 121
11, 116963, Control_c, 6, 11, 122
11, 116975, Control_c, 6, 11, 124
11, 116988, Control_c, 6, 11, 127
11, 116991, Note_on_c, 6, 68, 0
11, 117000, Note_on_c, 6, 58, 80
11, 117000, Note_on_c, 6, 46, 80
11, 117051, Note_on_c, 6, 58, 0
11, 117051, Note_on_c, 6, 46, 0
11, 117060, Note_on_c, 6, 58, 80
11, 117060, Note_on_c, 6, 46, 80
11, 117111, Note_on_c, 6, 58, 0
11, 117111, Note_on_c, 6, 46, 0
11, 117120, Note_on_c, 6, 63, 80
11, 117120, Note_on_c, 6, 51, 80
11, 117239, Note_on_c, 6, 63, 0
11, 117239, Note_on_c, 6, 51, 0
11, 117720, Note_on_c, 6, 51, 80
11, 117720, Note_on_c, 6, 63, 80
11, 117771, Note_on_c, 6, 51, 0
11, 117771, Note_on_c, 6, 63, 0
11, 117780, Note_on_c, 6, 51, 80
11, 117780, Note_on_c, 6, 63, 80
11, 117831, Note_on_c, 6, 51, 0
11, 117831, Note_on_c, 6, 63, 0
11, 117840, Note_on_c, 6, 70, 80
11, 117840, Note_on_c, 6, 58, 80
11, 117959, Note_on_c, 6, 70, 0
11, 117959, Note_on_c, 6, 58, 0
11, 118440, Note_on_c, 6, 70, 80
11, 118440, Note_on_c, 6, 58, 80
11, 118491, Note_on_c, 6, 70, 0
11, 118491, Note_on_c, 6, 58, 0
11, 118500, Note_on_c, 6, 70, 80
11, 118500, Note_on_c, 6, 58, 80
11, 118551, Note_on_c, 6, 70, 0
11, 118551, Note_on_c, 6, 58, 0
11, 118560, Note_on_c, 6, 63, 92
11, 118560, Note_on_c, 6, 67, 92
11, 118619, Note_on_c, 6, 63, 0
11, 118619, Note_on_c, 6, 67, 0
11, 118800, Note_on_c, 6, 67, 80
11, 118800, Note_on_c, 6, 63, 80
11, 118851, Note_on_c, 6, 67, 0
11, 118851, Note_on_c, 6, 63, 0
11, 118860, Note_on_c, 6, 63, 80
11, 118860, Note_on_c, 6, 67, 80
11, 118911, Note_on_c, 6, 63, 0
11, 118911, Note_on_c, 6, 67, 0
11, 118920, Note_on_c, 6, 65, 92
11, 118920, Note_on_c, 6, 58, 92
11, 118979, Note_on_c, 6, 65, 0
11, 118979, Note_on_c, 6, 58, 0
11, 119160, Note_on_c, 6, 58, 80
11, 119160, Note_on_c, 6, 65, 80
11, 119211, Note_on_c, 6, 58, 0
11, 119211, Note_on_c, 6, 65, 0
11, 119220, Note_on_c, 6, 65, 80
11, 119220, Note_on_c, 6, 58, 80
11, 119271, Note_on_c, 6, 65, 0
11, 119271, Note_on_c, 6, 58, 0
11, 119280, Note_on_c, 6, 65, 92
11, 119399, Note_on_c, 6, 65, 0
11, 119520, Note_on_c, 6, 65, 92
11, 119571, Note_on_c, 6, 65, 0
11, 119580, Note_on_c, 6, 65, 92
11, 119631, Note_on_c, 6, 65, 0
11, 119640, Note_on_c, 6, 65, 92
11, 119759, Note_on_c, 6, 65, 0
11, 119880, Note_on_c, 6, 65, 92
11, 119931, Note_on_c, 6, 65, 0
11, 119940, Note_on_c, 6, 65, 92
11, 119991, Note_on_c, 6, 65, 0
11, 120000, Note_on_c, 6, 65, 92
11, 120239, Note_on_c, 6, 65, 0
11, 120600, Control_c, 6, 11, 127
11, 120720, Note_on_c, 6, 68, 80
11, 120720, Control_c, 6, 11, 127
11, 120756, Control_c, 6, 11, 126
11, 120792, Control_c, 6, 11, 125
11, 120828, Control_c, 6, 11, 124
11, 120864, Control_c, 6, 11, 123
11, 120900, Control_c, 6, 11, 122
11, 120936, Control_c, 6, 11, 121
11, 120972, Control_c, 6, 11, 120
11, 121008, Control_c, 6, 11, 119
11, 121044, Control_c, 6, 11, 118
11, 121080, Control_c, 6, 11, 117
11, 121116, Control_c, 6, 11, 116
11, 121152, Control_c, 6, 11, 115
11, 121188, Control_c, 6, 11, 114
11, 121224, Control_c, 6, 11, 113
11, 121260, Control_c, 6, 11, 112
11, 121296, Control_c, 6, 11, 111
11, 121332, Control_c, 6, 11, 110
11, 121368, Control_c, 6, 11, 109
11, 121404, Control_c, 6, 11, 108
11, 121431, Note_on_c, 6, 68, 0
11, 121440, Note_on_c, 6, 67, 80
11, 121440, Control_c, 6, 11, 107
11, 121476, Control_c, 6, 11, 106
11, 121512, Control_c, 6, 11, 105
11, 121548, Control_c, 6, 11, 104
11, 121584, Control_c, 6, 11, 103
11, 121620, Control_c, 6, 11, 102
11, 121656, Control_c, 6, 11, 101
11, 121692, Control_c, 6, 11, 100
11, 121728, Control_c, 6, 11, 99
11, 121764, Control_c, 6, 11, 98
11, 121800, Control_c, 6, 11, 97
11, 121836, Control_c, 6, 11, 96
11, 121872, Control_c, 6, 11, 95
11, 121908, Control_c, 6, 11, 94
11, 121944, Control_c, 6, 11, 93
11, 121980, Control_c, 6, 11, 92
11, 122016, Control_c, 6, 11, 91
11, 122052, Control_c, 6, 11, 90
11, 122088, Control_c, 6, 11, 89
11, 122124, Control_c, 6, 11, 88
11, 122159, Note_on_c, 6, 67, 0
11, 122160, Note_on_c, 6, 66, 80
11, 122160, Control_c, 6, 11, 87
11, 122196, Control_c, 6, 11, 86
11, 122232, Control_c, 6, 11, 85
11, 122268, Control_c, 6, 11, 84
11, 122304, Control_c, 6, 11, 83
11, 122340, Control_c, 6, 11, 82
11, 122376, Control_c, 6, 11, 81
11, 122412, Control_c, 6, 11, 80
11, 122448, Control_c, 6, 11, 79
11, 122484, Control_c, 6, 11, 78
11, 122520, Control_c, 6, 11, 77
11, 122556, Control_c, 6, 11, 76
11, 122592, Control_c, 6, 11, 75
11, 122628, Control_c, 6, 11, 74
11, 122664, Control_c, 6, 11, 73
11, 122700, Control_c, 6, 11, 72
11, 122736, Control_c, 6, 11, 71
11, 122772, Control_c, 6, 11, 70
11, 122808, Control_c, 6, 11, 69
11, 122844, Control_c, 6, 11, 67
11, 122879, Note_on_c, 6, 66, 0
11, 122880, Note_on_c, 6, 70, 72
11, 123239, Note_on_c, 6, 70, 0
11, 123240, Note_on_c, 6, 65, 72
11, 123591, Note_on_c, 6, 65, 0
11, 123600, Note_on_c, 6, 63, 72
11, 124311, Note_on_c, 6, 63, 0
11, 124320, Note_on_c, 6, 62, 72
11, 125031, Note_on_c, 6, 62, 0
11, 125040, Note_on_c, 6, 63, 72
11, 125519, Note_on_c, 6, 63, 0
11, 125520, Note_on_c, 6, 65, 72
11, 125639, Note_on_c, 6, 65, 0
11, 125640, Note_on_c, 6, 65, 72
11, 125729, Note_on_c, 6, 65, 0
11, 125760, Note_on_c, 6, 58, 80
11, 125999, Note_on_c, 6, 58, 0
11, 131400, Note_on_c, 6, 46, 80
11, 131400, Note_on_c, 6, 58, 80
11, 131451, Note_on_c, 6, 46, 0
11, 131451, Note_on_c, 6, 58, 0
11, 131460, Note_on_c, 6, 46, 80
11, 131460, Note_on_c, 6, 58, 80
11, 131511, Note_on_c, 6, 46, 0
11, 131511, Note_on_c, 6, 58, 0
11, 131520, Note_on_c, 6, 51, 80
11, 131520, Note_on_c, 6, 63, 80
11, 131639, Note_on_c, 6, 51, 0
11, 131639, Note_on_c, 6, 63, 0
11, 132120, Note_on_c, 6, 51, 80
11, 132120, Note_on_c, 6, 63, 80
11, 132171, Note_on_c, 6, 51, 0
11, 132171, Note_on_c, 6, 63, 0
11, 132180, Note_on_c, 6, 63, 80
11, 132180, Note_on_c, 6, 51, 80
11, 132231, Note_on_c, 6, 63, 0
11, 132231, Note_on_c, 6, 51, 0
11, 132240, Note_on_c, 6, 58, 80
11, 132240, Note_on_c, 6, 70, 80
11, 132359, Note_on_c, 6, 58, 0
11, 132359, Note_on_c, 6, 70, 0
11, 132840, Note_on_c, 6, 58, 80
11, 132840, Note_on_c, 6, 70, 80
11, 132891, Note_on_c, 6, 58, 0
11, 132891, Note_on_c, 6, 70, 0
11, 132900, Note_on_c, 6, 70, 80
11, 132900, Note_on_c, 6, 58, 80
11, 132951, Note_on_c, 6, 70, 0
11, 132951, Note_on_c, 6, 58, 0
11, 132960, Note_on_c, 6, 63, 92
11, 132960, Note_on_c, 6, 67, 92
11, 133019, Note_on_c, 6, 63, 0
11, 133019, Note_on_c, 6, 67, 0
11, 133200, Note_on_c, 6, 67, 80
11, 133200, Note_on_c, 6, 63, 80
11, 133251, Note_on_c, 6, 67, 0
11, 133251, Note_on_c, 6, 63, 0
11, 133260, Note_on_c, 6, 67, 80
11, 133260, Note_on_c, 6, 63, 80
11, 133311, Note_on_c, 6, 67, 0
11, 133311, Note_on_c, 6, 63, 0
11, 133320, Note_on_c, 6, 65, 92
11, 133320, Note_on_c, 6, 58, 92
11, 133379, Note_on_c, 6, 65, 0
11, 133379, Note_on_c, 6, 58, 0
11, 133560, Note_on_c, 6, 58, 80
11, 133560, Note_on_c, 6, 65, 80
11, 133611, Note_on_c, 6, 58, 0
11, 133611, Note_on_c, 6, 65, 0
11, 133620, Note_on_c, 6, 65, 80
11, 133620, Note_on_c, 6, 58, 80
11, 133671, Note_on_c, 6, 65, 0
11, 133671, Note_on_c, 6, 58, 0
11, 133680, Note_on_c, 6, 65, 92
11, 133799, Note_on_c, 6, 65, 0
11, 133920, Note_on_c, 6, 65, 92
11, 133971, Note_on_c, 6, 65, 0
11, 133980, Note_on_c, 6, 65, 92
11, 134031, Note_on_c, 6, 65, 0
11, 134040, Note_on_c, 6, 65, 92
11, 134159, Note_on_c, 6, 65, 0
11, 134280, Note_on_c, 6, 65, 92
11, 134331, Note_on_c, 6, 65, 0
11, 134340, Note_on_c, 6, 65, 92
11, 134391, Note_on_c, 6, 65, 0
11, 134400, Note_on_c, 6, 65, 92
11, 134400, Note_on_c, 6, 61, 92
11, 134400, Control_c, 6, 11, 127
11, 134424, Control_c, 6, 11, 126
11, 134448, Control_c, 6, 11, 125
11, 134472, Control_c, 6, 11, 124
11, 134496, Control_c, 6, 11, 123
11, 134520, Control_c, 6, 11, 122
11, 134544, Control_c, 6, 11, 121
11, 134568, Control_c, 6, 11, 120
11, 134592, Control_c, 6, 11, 119
11, 134616, Control_c, 6, 11, 118
11, 134639, Note_on_c, 6, 65, 0
11, 134640, Control_c, 6, 11, 117
11, 134664, Control_c, 6, 11, 116
11, 134688, Control_c, 6, 11, 115
11, 134712, Control_c, 6, 11, 114
11, 134736, Control_c, 6, 11, 113
11, 134760, Control_c, 6, 11, 112
11, 134784, Control_c, 6, 11, 111
11, 134808, Control_c, 6, 11, 110
11, 134832, Control_c, 6, 11, 109
11, 134856, Control_c, 6, 11, 108
11, 134880, Control_c, 6, 11, 107
11, 134904, Control_c, 6, 11, 106
11, 134928, Control_c, 6, 11, 105
11, 134952, Control_c, 6, 11, 104
11, 134976, Control_c, 6, 11, 103
11, 135000, Control_c, 6, 11, 102
11, 135024, Control_c, 6, 11, 101
11, 135048, Control_c, 6, 11, 100
11, 135072, Control_c, 6, 11, 99
11, 135096, Control_c, 6, 11, 98
11, 135120, Control_c, 6, 11, 97
11, 135144, Control_c, 6, 11, 96
11, 135168, Control_c, 6, 11, 95
11, 135192, Control_c, 6, 11, 94
11, 135216, Control_c, 6, 11, 93
11, 135240, Control_c, 6, 11, 92
11, 135264, Control_c, 6, 11, 91
11, 135288, Control_c, 6, 11, 90
11, 135312, Control_c, 6, 11, 89
11, 135336, Control_c, 6, 11, 88
11, 135360, Control_c, 6, 11, 87
11, 135384, Control_c, 6, 11, 86
11, 135408, Control_c, 6, 11, 85
11, 135432, Control_c, 6, 11, 84
11, 135456, Control_c, 6, 11, 83
11, 135479, Note_on_c, 6, 61, 0
11, 135480, Note_on_c, 6, 65, 56
11, 135480, Control_c, 6, 11, 82
11, 135504, Control_c, 6, 11, 81
11, 135528, Control_c, 6, 11, 80
11, 135552, Control_c, 6, 11, 79
11, 135576, Control_c, 6, 11, 78
11, 135600, Control_c, 6, 11, 77
11, 135624, Control_c, 6, 11, 76
11, 135648, Control_c, 6, 11, 75
11, 135672, Control_c, 6, 11, 74
11, 135696, Control_c, 6, 11, 73
11, 135720, Control_c, 6, 11, 72
11, 135744, Control_c, 6, 11, 71
11, 135768, Control_c, 6, 11, 70
11, 135792, Control_c, 6, 11, 69
11, 135816, Control_c, 6, 11, 68
11, 135831, Note_on_c, 6, 65, 0
11, 135840, Note_on_c, 6, 68, 92
11, 135840, Control_c, 6, 11, 67
11, 135930, Control_c, 6, 11, 66
11, 136020, Control_c, 6, 11, 65
11, 136110, Control_c, 6, 11, 64
11, 136200, Control_c, 6, 11, 63
11, 136290, Control_c, 6, 11, 62
11, 136380, Control_c, 6, 11, 61
11, 136470, Control_c, 6, 11, 60
11, 136560, Control_c, 6, 11, 59
11, 136650, Control_c, 6, 11, 58
11, 136740, Control_c, 6, 11, 57
11, 136830, Control_c, 6, 11, 56
11, 136920, Control_c, 6, 11, 55
11, 137010, Control_c, 6, 11, 54
11, 137100, Control_c, 6, 11, 53
11, 137190, Control_c, 6, 11, 52
11, 137271, Note_on_c, 6, 68, 0
11, 137280, Note_on_c, 6, 63, 92
11, 137280, Control_c, 6, 11, 51
11, 137370, Control_c, 6, 11, 50
11, 137460, Control_c, 6, 11, 49
11, 137550, Control_c, 6, 11, 48
11, 137640, Control_c, 6, 11, 47
11, 137730, Control_c, 6, 11, 46
11, 137820, Control_c, 6, 11, 45
11, 137910, Control_c, 6, 11, 44
11, 138000, Control_c, 6, 11, 43
11, 138090, Control_c, 6, 11, 42
11, 138180, Control_c, 6, 11, 41
11, 138270, Control_c, 6, 11, 40
11, 138359, Note_on_c, 6, 63, 0
11, 138360, Control_c, 6, 11, 39
11, 138360, Note_on_c, 6, 66, 92
11, 138450, Control_c, 6, 11, 38
11, 138540, Control_c, 6, 11, 37
11, 138630, Control_c, 6, 11, 36
11, 138711, Note_on_c, 6, 66, 0
11, 138720, Control_c, 6, 11, 35
11, 138720, Note_on_c, 6, 70, 92
11, 138810, Control_c, 6, 11, 34
11, 138900, Control_c, 6, 11, 33
11, 138990, Control_c, 6, 11, 32
11, 139080, Control_c, 6, 11, 31
11, 139170, Control_c, 6, 11, 30
11, 139260, Control_c, 6, 11, 29
11, 139350, Control_c, 6, 11, 28
11, 139440, Control_c, 6, 11, 27
11, 139476, Control_c, 6, 11, 28
11, 139512, Control_c, 6, 11, 29
11, 139548, Control_c, 6, 11, 30
11, 139584, Control_c, 6, 11, 31
11, 139620, Control_c, 6, 11, 32
11, 139656, Control_c, 6, 11, 33
11, 139692, Control_c, 6, 11, 34
11, 139728, Control_c, 6, 11, 35
11, 139764, Control_c, 6, 11, 36
11, 139800, Control_c, 6, 11, 37
11, 139836, Control_c, 6, 11, 38
11, 139872, Control_c, 6, 11, 39
11, 139908, Control_c, 6, 11, 40
11, 139944, Control_c, 6, 11, 41
11, 139980, Control_c, 6, 11, 42
11, 140016, Control_c, 6, 11, 43
11, 140052, Control_c, 6, 11, 44
11, 140088, Control_c, 6, 11, 45
11, 140124, Control_c, 6, 11, 47
11, 140151, Note_on_c, 6, 70, 0
11, 140160, Note_on_c, 6, 65, 92
11, 140639, Note_on_c, 6, 65, 0
11, 140640, Note_on_c, 6, 63, 92
11, 140759, Note_on_c, 6, 63, 0
11, 140760, Note_on_c, 6, 62, 92
11, 140849, Note_on_c, 6, 62, 0
11, 140878, Control_c, 6, 11, 67
11, 140880, Note_on_c, 6, 60, 80
11, 141359, Note_on_c, 6, 60, 0
11, 141360, Note_on_c, 6, 65, 80
11, 141479, Note_on_c, 6, 65, 0
11, 141480, Note_on_c, 6, 65, 80
11, 141569, Note_on_c, 6, 65, 0
11, 141598, Control_c, 6, 11, 89
11, 141600, Note_on_c, 6, 65, 68
11, 141600, Control_c, 6, 11, 89
11, 141619, Control_c, 6, 11, 90
11, 141638, Control_c, 6, 11, 91
11, 141657, Control_c, 6, 11, 92
11, 141676, Control_c, 6, 11, 93
11, 141695, Control_c, 6, 11, 94
11, 141714, Control_c, 6, 11, 95
11, 141733, Control_c, 6, 11, 96
11, 141752, Control_c, 6, 11, 97
11, 141771, Control_c, 6, 11, 98
11, 141789, Control_c, 6, 11, 99
11, 141808, Control_c, 6, 11, 100
11, 141827, Control_c, 6, 11, 101
11, 141846, Control_c, 6, 11, 102
11, 141865, Control_c, 6, 11, 103
11, 141884, Control_c, 6, 11, 104
11, 141903, Control_c, 6, 11, 105
11, 141922, Control_c, 6, 11, 106
11, 141941, Control_c, 6, 11, 107
11, 141960, Control_c, 6, 11, 108
11, 141979, Control_c, 6, 11, 109
11, 141998, Control_c, 6, 11, 110
11, 142017, Control_c, 6, 11, 111
11, 142036, Control_c, 6, 11, 112
11, 142055, Control_c, 6, 11, 113
11, 142071, Note_on_c, 6, 65, 0
11, 142074, Control_c, 6, 11, 114
11, 142080, Note_on_c, 6, 58, 68
11, 142093, Control_c, 6, 11, 115
11, 142112, Control_c, 6, 11, 116
11, 142131, Control_c, 6, 11, 117
11, 142149, Control_c, 6, 11, 118
11, 142168, Control_c, 6, 11, 119
11, 142187, Control_c, 6, 11, 120
11, 142191, Note_on_c, 6, 58, 0
11, 142200, Note_on_c, 6, 58, 68
11, 142206, Control_c, 6, 11, 121
11, 142225, Control_c, 6, 11, 122
11, 142244, Control_c, 6, 11, 123
11, 142263, Control_c, 6, 11, 124
11, 142282, Control_c, 6, 11, 125
11, 142301, Control_c, 6, 11, 127
11, 142311, Note_on_c, 6, 58, 0
11, 142320, Note_on_c, 6, 60, 68
11, 142551, Note_on_c, 6, 60, 0
11, 142560, Note_on_c, 6, 58, 68
11, 142679, Note_on_c, 6, 58, 0
11, 142800, Control_c, 6, 11, 127
11, 142800, Note_on_c, 6, 67, 68
11, 142840, Control_c, 6, 11, 121
11, 142880, Control_c, 6, 11, 115
11, 142911, Note_on_c, 6, 67, 0
11, 142920, Note_on_c, 6, 65, 68
11, 142920, Control_c, 6, 11, 109
11, 142960, Control_c, 6, 11, 101
11, 143000, Control_c, 6, 11, 95
11, 143031, Note_on_c, 6, 65, 0
11, 143038, Control_c, 6, 11, 89
11, 143040, Note_on_c, 6, 58, 68
11, 143159, Note_on_c, 6, 58, 0
11, 143400, Control_c, 6, 11, 127
11, 143520, Note_on_c, 6, 65, 44
11, 143631, Note_on_c, 6, 65, 0
11, 143640, Note_on_c, 6, 58, 44
11, 143751, Note_on_c, 6, 58, 0
11, 143760, Note_on_c, 6, 65, 44
11, 143999, Note_on_c, 6, 65, 0
11, 144240, Note_on_c, 6, 65, 44
11, 144351, Note_on_c, 6, 65, 0
11, 144360, Note_on_c, 6, 65, 44
11, 144471, Note_on_c, 6, 65, 0
11, 144480, Note_on_c, 6, 65, 44
11, 144719, Note_on_c, 6, 65, 0
11, 144960, Note_on_c, 6, 65, 44
11, 145071, Note_on_c, 6, 65, 0
11, 145080, Note_on_c, 6, 58, 44
11, 145191, Note_on_c, 6, 58, 0
11, 145200, Note_on_c, 6, 65, 44
11, 145439, Note_on_c, 6, 65, 0
11, 145680, Note_on_c, 6, 65, 44
11, 145791, Note_on_c, 6, 65, 0
11, 145800, Note_on_c, 6, 65, 44
11, 145911, Note_on_c, 6, 65, 0
11, 145920, Note_on_c, 6, 65, 44
11, 146159, Note_on_c, 6, 65, 0
11, 157680, Note_on_c, 6, 46, 36
11, 157680, Note_on_c, 6, 58, 36
11, 157799, Note_on_c, 6, 46, 0
11, 157799, Note_on_c, 6, 58, 0
11, 158040, Note_on_c, 6, 58, 42
11, 158040, Note_on_c, 6, 46, 42
11, 158159, Note_on_c, 6, 58, 0
11, 158159, Note_on_c, 6, 46, 0
11, 158400, Note_on_c, 6, 46, 48
11, 158400, Note_on_c, 6, 58, 48
11, 158519, Note_on_c, 6, 46, 0
11, 158519, Note_on_c, 6, 58, 0
11, 158760, Note_on_c, 6, 65, 54
11, 158879, Note_on_c, 6, 65, 0
11, 159120, Note_on_c, 6, 46, 60
11, 159120, Note_on_c, 6, 58, 60
11, 159239, Note_on_c, 6, 46, 0
11, 159239, Note_on_c, 6, 58, 0
11, 159480, Note_on_c, 6, 58, 66
11, 159480, Note_on_c, 6, 46, 66
11, 159599, Note_on_c, 6, 58, 0
11, 159599, Note_on_c, 6, 46, 0
11, 159840, Note_on_c, 6, 58, 72
11, 159840, Note_on_c, 6, 46, 72
11, 159959, Note_on_c, 6, 58, 0
11, 159959, Note_on_c, 6, 46, 0
11, 160200, Note_on_c, 6, 65, 80
11, 160319, Note_on_c, 6, 65, 0
11, 161040, Note_on_c, 6, 46, 44
11, 161040, Note_on_c, 6, 58, 44
11, 161279, Note_on_c, 6, 46, 0
11, 161279, Note_on_c, 6, 58, 0
11, 166080, Note_on_c, 6, 65, 80
11, 166319, Note_on_c, 6, 65, 0
11, 166800, Note_on_c, 6, 65, 80
11, 166830, Control_c, 6, 11, 69
11, 167039, Note_on_c, 6, 65, 0
11, 168120, Control_c, 6, 11, 127
11, 168240, Note_on_c, 6, 46, 44
11, 168240, Note_on_c, 6, 58, 44
11, 168479, Note_on_c, 6, 46, 0
11, 168479, Note_on_c, 6, 58, 0
11, 169320, Note_on_c, 6, 65, 80
11, 169559, Note_on_c, 6, 65, 0
11, 170040, Note_on_c, 6, 58, 32
11, 170040, Note_on_c, 6, 46, 32
11, 170279, Note_on_c, 6, 58, 0
11, 170279, Note_on_c, 6, 46, 0
11, 170279, End_track
12, 0, Start_track
12, 0, Title_t, "Trumpet in B-flat"
12, 0, MIDI_port, 0
12, 0, Program_c, 7, 56
12, 0, Control_c, 7, 121, 0
12, 0, Control_c, 7, 7, 96
12, 0, Control_c, 7, 10, 60
12, 0, Control_c, 7, 11, 127
12, 117000, Note_on_c, 7, 70, 80
12, 117051, Note_on_c, 7, 70, 0
12, 117060, Note_on_c, 7, 70, 80
12, 117111, Note_on_c, 7, 70, 0
12, 117120, Note_on_c, 7, 75, 80
12, 117239, Note_on_c, 7, 75, 0
12, 117720, Note_on_c, 7, 75, 80
12, 117771, Note_on_c, 7, 75, 0
12, 117780, Note_on_c, 7, 75, 80
12, 117831, Note_on_c, 7, 75, 0
12, 117840, Note_on_c, 7, 70, 80
12, 117959, Note_on_c, 7, 70, 0
12, 118440, Note_on_c, 7, 70, 80
12, 118491, Note_on_c, 7, 70, 0
12, 118500, Note_on_c, 7, 70, 80
12, 118551, Note_on_c, 7, 70, 0
12, 118560, Note_on_c, 7, 75, 92
12, 118619, Note_on_c, 7, 75, 0
12, 118800, Note_on_c, 7, 75, 80
12, 118851, Note_on_c, 7, 75, 0
12, 118860, Note_on_c, 7, 75, 80
12, 118911, Note_on_c, 7, 75, 0
12, 118920, Note_on_c, 7, 70, 92
12, 118920, Note_on_c, 7, 58, 92
12, 119009, Note_on_c, 7, 70, 0
12, 119009, Note_on_c, 7, 58, 0
12, 119160, Note_on_c, 7, 70, 80
12, 119160, Note_on_c, 7, 58, 80
12, 119211, Note_on_c, 7, 70, 0
12, 119211, Note_on_c, 7, 58, 0
12, 119220, Note_on_c, 7, 70, 80
12, 119220, Note_on_c, 7, 58, 80
12, 119271, Note_on_c, 7, 70, 0
12, 119271, Note_on_c, 7, 58, 0
12, 119280, Note_on_c, 7, 77, 92
12, 119280, Note_on_c, 7, 65, 92
12, 119399, Note_on_c, 7, 77, 0
12, 119399, Note_on_c, 7, 65, 0
12, 119520, Note_on_c, 7, 77, 92
12, 119520, Note_on_c, 7, 65, 92
12, 119571, Note_on_c, 7, 77, 0
12, 119571, Note_on_c, 7, 65, 0
12, 119580, Note_on_c, 7, 77, 92
12, 119580, Note_on_c, 7, 65, 92
12, 119631, Note_on_c, 7, 77, 0
12, 119631, Note_on_c, 7, 65, 0
12, 119640, Note_on_c, 7, 77, 92
12, 119640, Note_on_c, 7, 65, 92
12, 119759, Note_on_c, 7, 77, 0
12, 119759, Note_on_c, 7, 65, 0
12, 119880, Note_on_c, 7, 77, 92
12, 119880, Note_on_c, 7, 65, 92
12, 119931, Note_on_c, 7, 77, 0
12, 119931, Note_on_c, 7, 65, 0
12, 119940, Note_on_c, 7, 77, 92
12, 119940, Note_on_c, 7, 65, 92
12, 119991, Note_on_c, 7, 77, 0
12, 119991, Note_on_c, 7, 65, 0
12, 120000, Note_on_c, 7, 77, 92
12, 120000, Note_on_c, 7, 65, 92
12, 120239, Note_on_c, 7, 77, 0
12, 120239, Note_on_c, 7, 65, 0
12, 131400, Note_on_c, 7, 70, 80
12, 131451, Note_on_c, 7, 70, 0
12, 131460, Note_on_c, 7, 70, 80
12, 131511, Note_on_c, 7, 70, 0
12, 131520, Note_on_c, 7, 75, 80
12, 131639, Note_on_c, 7, 75, 0
12, 132120, Note_on_c, 7, 75, 80
12, 132171, Note_on_c, 7, 75, 0
12, 132180, Note_on_c, 7, 75, 80
12, 132231, Note_on_c, 7, 75, 0
12, 132240, Note_on_c, 7, 70, 80
12, 132359, Note_on_c, 7, 70, 0
12, 132840, Note_on_c, 7, 70, 80
12, 132891, Note_on_c, 7, 70, 0
12, 132900, Note_on_c, 7, 70, 80
12, 132951, Note_on_c, 7, 70, 0
12, 132960, Note_on_c, 7, 75, 92
12, 133019, Note_on_c, 7, 75, 0
12, 133200, Note_on_c, 7, 75, 80
12, 133251, Note_on_c, 7, 75, 0
12, 133260, Note_on_c, 7, 75, 80
12, 133311, Note_on_c, 7, 75, 0
12, 133320, Note_on_c, 7, 70, 92
12, 133320, Note_on_c, 7, 58, 92
12, 133379, Note_on_c, 7, 70, 0
12, 133379, Note_on_c, 7, 58, 0
12, 133560, Note_on_c, 7, 70, 80
12, 133560, Note_on_c, 7, 58, 80
12, 133611, Note_on_c, 7, 70, 0
12, 133611, Note_on_c, 7, 58, 0
12, 133620, Note_on_c, 7, 70, 80
12, 133620, Note_on_c, 7, 58, 80
12, 133671, Note_on_c, 7, 70, 0
12, 133671, Note_on_c, 7, 58, 0
12, 133680, Note_on_c, 7, 77, 92
12, 133680, Note_on_c, 7, 65, 92
12, 133799, Note_on_c, 7, 77, 0
12, 133799, Note_on_c, 7, 65, 0
12, 133920, Note_on_c, 7, 77, 92
12, 133920, Note_on_c, 7, 65, 92
12, 133971, Note_on_c, 7, 77, 0
12, 133971, Note_on_c, 7, 65, 0
12, 133980, Note_on_c, 7, 77, 92
12, 133980, Note_on_c, 7, 65, 92
12, 134031, Note_on_c, 7, 77, 0
12, 134031, Note_on_c, 7, 65, 0
12, 134040, Note_on_c, 7, 77, 92
12, 134040, Note_on_c, 7, 65, 92
12, 134159, Note_on_c, 7, 77, 0
12, 134159, Note_on_c, 7, 65, 0
12, 134280, Note_on_c, 7, 77, 92
12, 134280, Note_on_c, 7, 65, 92
12, 134331, Note_on_c, 7, 77, 0
12, 134331, Note_on_c, 7, 65, 0
12, 134340, Note_on_c, 7, 77, 92
12, 134340, Note_on_c, 7, 65, 92
12, 134391, Note_on_c, 7, 77, 0
12, 134391, Note_on_c, 7, 65, 0
12, 134400, Note_on_c, 7, 77, 92
12, 134400, Note_on_c, 7, 65, 92
12, 134639, Note_on_c, 7, 77, 0
12, 134639, Note_on_c, 7, 65, 0
12, 154920, Note_on_c, 7, 72, 92
12, 154920, Note_on_c, 7, 65, 92
12, 155159, Note_on_c, 7, 72, 0
12, 155159, Note_on_c, 7, 65, 0
12, 157800, Note_on_c, 7, 70, 44
12, 157800, Note_on_c, 7, 58, 44
12, 158039, Note_on_c, 7, 70, 0
12, 158039, Note_on_c, 7, 58, 0
12, 158160, Note_on_c, 7, 70, 44
12, 158160, Note_on_c, 7, 58, 44
12, 158399, Note_on_c, 7, 70, 0
12, 158399, Note_on_c, 7, 58, 0
12, 158520, Note_on_c, 7, 65, 44
12, 158520, Note_on_c, 7, 53, 44
12, 158759, Note_on_c, 7, 65, 0
12, 158759, Note_on_c, 7, 53, 0
12, 159240, Note_on_c, 7, 70, 53
12, 159240, Note_on_c, 7, 58, 53
12, 159479, Note_on_c, 7, 70, 0
12, 159479, Note_on_c, 7, 58, 0
12, 159600, Note_on_c, 7, 70, 62
12, 159600, Note_on_c, 7, 58, 62
12, 159839, Note_on_c, 7, 70, 0
12, 159839, Note_on_c, 7, 58, 0
12, 159960, Note_on_c, 7, 65, 71
12, 159960, Note_on_c, 7, 53, 71
12, 160191, Note_on_c, 7, 65, 0
12, 160191, Note_on_c, 7, 53, 0
12, 160200, Note_on_c, 7, 72, 80
12, 160200, Note_on_c, 7, 65, 80
12, 160319, Note_on_c, 7, 72, 0
12, 160319, Note_on_c, 7, 65, 0
12, 161040, Note_on_c, 7, 70, 44
12, 161040, Note_on_c, 7, 62, 44
12, 161279, Note_on_c, 7, 70, 0
12, 161279, Note_on_c, 7, 62, 0
12, 166080, Note_on_c, 7, 70, 80
12, 166080, Note_on_c, 7, 74, 80
12, 166319, Note_on_c, 7, 70, 0
12, 166319, Note_on_c, 7, 74, 0
12, 166800, Note_on_c, 7, 65, 80
12, 166800, Note_on_c, 7, 72, 80
12, 166830, Control_c, 7, 11, 69
12, 167039, Note_on_c, 7, 65, 0
12, 167039, Note_on_c, 7, 72, 0
12, 167520, Control_c, 7, 11, 127
12, 167880, Note_on_c, 7, 65, 44
12, 167880, Note_on_c, 7, 72, 44
12, 168119, Note_on_c, 7, 65, 0
12, 168119, Note_on_c, 7, 72, 0
12, 168240, Note_on_c, 7, 70, 44
12, 168240, Note_on_c, 7, 62, 44
12, 168479, Note_on_c, 7, 70, 0
12, 168479, Note_on_c, 7, 62, 0
12, 169320, Note_on_c, 7, 65, 80
12, 169320, Note_on_c, 7, 72, 80
12, 169559, Note_on_c, 7, 65, 0
12, 169559, Note_on_c, 7, 72, 0
12, 169680, Note_on_c, 7, 62, 32
12, 169680, Note_on_c, 7, 58, 32
12, 169784, Note_on_c, 7, 62, 0
12, 169784, Note_on_c, 7, 58, 0
12, 169800, Note_on_c, 7, 62, 32
12, 169800, Note_on_c, 7, 58, 32
12, 169904, Note_on_c, 7, 62, 0
12, 169904, Note_on_c, 7, 58, 0
12, 169920, Note_on_c, 7, 58, 32
12, 169920, Note_on_c, 7, 62, 32
12, 170009, Note_on_c, 7, 58, 0
12, 170009, Note_on_c, 7, 62, 0
12, 170040, Note_on_c, 7, 58, 32
12, 170040, Note_on_c, 7, 62, 32
12, 170279, Note_on_c, 7, 58, 0
12, 170279, Note_on_c, 7, 62, 0
12, 170279, End_track
13, 0, Start_track
13, 0, Title_t, "Timpani"
13, 0, MIDI_port, 0
13, 0, Program_c, 8, 47
13, 0, Control_c, 8, 121, 0
13, 0, Control_c, 8, 7, 104
13, 0, Control_c, 8, 10, 25
13, 0, Control_c, 8, 11, 127
13, 17520, Note_on_c, 8, 53, 44
13, 17639, Note_on_c, 8, 53, 0
13, 17640, Note_on_c, 8, 46, 44
13, 17759, Note_on_c, 8, 46, 0
13, 17760, Note_on_c, 8, 46, 44
13, 17999, Note_on_c, 8, 46, 0
13, 18480, Note_on_c, 8, 53, 44
13, 18599, Note_on_c, 8, 53, 0
13, 18600, Note_on_c, 8, 46, 44
13, 18719, Note_on_c, 8, 46, 0
13, 18720, Note_on_c, 8, 46, 44
13, 18959, Note_on_c, 8, 46, 0
13, 51600, Note_on_c, 8, 53, 44
13, 51719, Note_on_c, 8, 53, 0
13, 51720, Note_on_c, 8, 46, 44
13, 51839, Note_on_c, 8, 46, 0
13, 51840, Note_on_c, 8, 46, 44
13, 52079, Note_on_c, 8, 46, 0
13, 52560, Note_on_c, 8, 53, 44
13, 52679, Note_on_c, 8, 53, 0
13, 52680, Note_on_c, 8, 46, 44
13, 52799, Note_on_c, 8, 46, 0
13, 52800, Note_on_c, 8, 46, 44
13, 53039, Note_on_c, 8, 46, 0
13, 85800, Note_on_c, 8, 53, 44
13, 86039, Note_on_c, 8, 53, 0
13, 86520, Note_on_c, 8, 53, 44
13, 86759, Note_on_c, 8, 53, 0
13, 87240, Note_on_c, 8, 53, 44
13, 87479, Note_on_c, 8, 53, 0
13, 87960, Note_on_c, 8, 53, 44
13, 88199, Note_on_c, 8, 53, 0
13, 88320, Note_on_c, 8, 46, 44
13, 88559, Note_on_c, 8, 46, 0
13, 88680, Note_on_c, 8, 53, 44
13, 88919, Note_on_c, 8, 53, 0
13, 89040, Note_on_c, 8, 46, 44
13, 89279, Note_on_c, 8, 46, 0
13, 89400, Note_on_c, 8, 46, 44
13, 89639, Note_on_c, 8, 46, 0
13, 90120, Note_on_c, 8, 53, 44
13, 90359, Note_on_c, 8, 53, 0
13, 90840, Note_on_c, 8, 53, 44
13, 91079, Note_on_c, 8, 53, 0
13, 91560, Note_on_c, 8, 53, 44
13, 91799, Note_on_c, 8, 53, 0
13, 92280, Note_on_c, 8, 53, 44
13, 92519, Note_on_c, 8, 53, 0
13, 93000, Note_on_c, 8, 53, 44
13, 93239, Note_on_c, 8, 53, 0
13, 93720, Note_on_c, 8, 53, 44
13, 93959, Note_on_c, 8, 53, 0
13, 94440, Note_on_c, 8, 53, 44
13, 94679, Note_on_c, 8, 53, 0
13, 94800, Note_on_c, 8, 46, 44
13, 95039, Note_on_c, 8, 46, 0
13, 95160, Note_on_c, 8, 46, 44
13, 95399, Note_on_c, 8, 46, 0
13, 95520, Note_on_c, 8, 46, 44
13, 95759, Note_on_c, 8, 46, 0
13, 95880, Note_on_c, 8, 46, 44
13, 96119, Note_on_c, 8, 46, 0
13, 96240, Note_on_c, 8, 53, 44
13, 96479, Note_on_c, 8, 53, 0
13, 96600, Note_on_c, 8, 53, 44
13, 96839, Note_on_c, 8, 53, 0
13, 97320, Note_on_c, 8, 53, 44
13, 97559, Note_on_c, 8, 53, 0
13, 97680, Note_on_c, 8, 46, 44
13, 97919, Note_on_c, 8, 46, 0
13, 97920, Note_on_c, 8, 53, 44
13, 98039, Note_on_c, 8, 53, 0
13, 98040, Note_on_c, 8, 53, 44
13, 98279, Note_on_c, 8, 53, 0
13, 98760, Note_on_c, 8, 53, 44
13, 98999, Note_on_c, 8, 53, 0
13, 99120, Note_on_c, 8, 46, 44
13, 99359, Note_on_c, 8, 46, 0
13, 99360, Note_on_c, 8, 46, 44
13, 99479, Note_on_c, 8, 46, 0
13, 99480, Note_on_c, 8, 46, 44
13, 99719, Note_on_c, 8, 46, 0
13, 100200, Note_on_c, 8, 53, 44
13, 100439, Note_on_c, 8, 53, 0
13, 100920, Note_on_c, 8, 53, 44
13, 101159, Note_on_c, 8, 53, 0
13, 101640, Note_on_c, 8, 53, 44
13, 101879, Note_on_c, 8, 53, 0
13, 102360, Note_on_c, 8, 46, 44
13, 102599, Note_on_c, 8, 46, 0
13, 103080, Note_on_c, 8, 53, 44
13, 103319, Note_on_c, 8, 53, 0
13, 103440, Note_on_c, 8, 53, 44
13, 103679, Note_on_c, 8, 53, 0
13, 103680, Note_on_c, 8, 46, 44
13, 103799, Note_on_c, 8, 46, 0
13, 103800, Note_on_c, 8, 46, 44
13, 103919, Note_on_c, 8, 46, 0
13, 103920, Note_on_c, 8, 46, 46
13, 104039, Note_on_c, 8, 46, 0
13, 104040, Note_on_c, 8, 46, 47
13, 104159, Note_on_c, 8, 46, 0
13, 104160, Note_on_c, 8, 46, 50
13, 104399, Note_on_c, 8, 46, 0
13, 104520, Note_on_c, 8, 46, 56
13, 104759, Note_on_c, 8, 46, 0
13, 105240, Note_on_c, 8, 46, 68
13, 105479, Note_on_c, 8, 46, 0
13, 105960, Note_on_c, 8, 53, 56
13, 106199, Note_on_c, 8, 53, 0
13, 106680, Note_on_c, 8, 53, 44
13, 106919, Note_on_c, 8, 53, 0
13, 107400, Note_on_c, 8, 53, 44
13, 107519, Note_on_c, 8, 53, 0
13, 107640, Note_on_c, 8, 46, 44
13, 107759, Note_on_c, 8, 46, 0
13, 107760, Note_on_c, 8, 46, 44
13, 107999, Note_on_c, 8, 46, 0
13, 108840, Note_on_c, 8, 53, 44
13, 109079, Note_on_c, 8, 53, 0
13, 109080, Note_on_c, 8, 46, 44
13, 109199, Note_on_c, 8, 46, 0
13, 109200, Note_on_c, 8, 46, 44
13, 109439, Note_on_c, 8, 46, 0
13, 110280, Note_on_c, 8, 53, 44
13, 110519, Note_on_c, 8, 53, 0
13, 110520, Note_on_c, 8, 46, 44
13, 110639, Note_on_c, 8, 46, 0
13, 110640, Note_on_c, 8, 46, 44
13, 110879, Note_on_c, 8, 46, 0
13, 111000, Note_on_c, 8, 46, 44
13, 111239, Note_on_c, 8, 46, 0
13, 111240, Note_on_c, 8, 46, 47
13, 111359, Note_on_c, 8, 46, 0
13, 111360, Note_on_c, 8, 46, 49
13, 111599, Note_on_c, 8, 46, 0
13, 111720, Note_on_c, 8, 46, 53
13, 111959, Note_on_c, 8, 46, 0
13, 111960, Note_on_c, 8, 46, 56
13, 112079, Note_on_c, 8, 46, 0
13, 112080, Note_on_c, 8, 46, 58
13, 112319, Note_on_c, 8, 46, 0
13, 112440, Note_on_c, 8, 46, 62
13, 112679, Note_on_c, 8, 46, 0
13, 112680, Note_on_c, 8, 46, 65
13, 112799, Note_on_c, 8, 46, 0
13, 112800, Note_on_c, 8, 46, 68
13, 113039, Note_on_c, 8, 46, 0
13, 113160, Note_on_c, 8, 53, 56
13, 113399, Note_on_c, 8, 53, 0
13, 113400, Note_on_c, 8, 53, 49
13, 113519, Note_on_c, 8, 53, 0
13, 113520, Note_on_c, 8, 53, 44
13, 113759, Note_on_c, 8, 53, 0
13, 113880, Note_on_c, 8, 53, 44
13, 114119, Note_on_c, 8, 53, 0
13, 114120, Note_on_c, 8, 53, 44
13, 114239, Note_on_c, 8, 53, 0
13, 114240, Note_on_c, 8, 53, 38
13, 114479, Note_on_c, 8, 53, 0
13, 114600, Note_on_c, 8, 53, 38
13, 114839, Note_on_c, 8, 53, 0
13, 114840, Note_on_c, 8, 53, 38
13, 114959, Note_on_c, 8, 53, 0
13, 114960, Note_on_c, 8, 53, 38
13, 115199, Note_on_c, 8, 53, 0
13, 115320, Note_on_c, 8, 53, 38
13, 115559, Note_on_c, 8, 53, 0
13, 115560, Note_on_c, 8, 46, 38
13, 115679, Note_on_c, 8, 46, 0
13, 115680, Note_on_c, 8, 53, 32
13, 115919, Note_on_c, 8, 53, 0
13, 116040, Note_on_c, 8, 53, 32
13, 116279, Note_on_c, 8, 53, 0
13, 116280, Note_on_c, 8, 53, 32
13, 116399, Note_on_c, 8, 53, 0
13, 116400, Note_on_c, 8, 53, 44
13, 116639, Note_on_c, 8, 53, 0
13, 116760, Note_on_c, 8, 53, 68
13, 116879, Note_on_c, 8, 53, 0
13, 118920, Note_on_c, 8, 46, 80
13, 119039, Note_on_c, 8, 46, 0
13, 119160, Note_on_c, 8, 46, 80
13, 119219, Note_on_c, 8, 46, 0
13, 119220, Note_on_c, 8, 46, 80
13, 119279, Note_on_c, 8, 46, 0
13, 119280, Note_on_c, 8, 53, 80
13, 119519, Note_on_c, 8, 53, 0
13, 133320, Note_on_c, 8, 46, 92
13, 133439, Note_on_c, 8, 46, 0
13, 133560, Note_on_c, 8, 46, 80
13, 133619, Note_on_c, 8, 46, 0
13, 133620, Note_on_c, 8, 46, 80
13, 133679, Note_on_c, 8, 46, 0
13, 133680, Note_on_c, 8, 53, 80
13, 133919, Note_on_c, 8, 53, 0
13, 143160, Note_on_c, 8, 53, 44
13, 143279, Note_on_c, 8, 53, 0
13, 143280, Note_on_c, 8, 46, 44
13, 143399, Note_on_c, 8, 46, 0
13, 143400, Note_on_c, 8, 53, 44
13, 143519, Note_on_c, 8, 53, 0
13, 143880, Note_on_c, 8, 53, 44
13, 143999, Note_on_c, 8, 53, 0
13, 144000, Note_on_c, 8, 46, 44
13, 144119, Note_on_c, 8, 46, 0
13, 144120, Note_on_c, 8, 53, 44
13, 144359, Note_on_c, 8, 53, 0
13, 144600, Note_on_c, 8, 53, 44
13, 144719, Note_on_c, 8, 53, 0
13, 144720, Note_on_c, 8, 46, 44
13, 144839, Note_on_c, 8, 46, 0
13, 144840, Note_on_c, 8, 53, 44
13, 145079, Note_on_c, 8, 53, 0
13, 145320, Note_on_c, 8, 53, 44
13, 145439, Note_on_c, 8, 53, 0
13, 145440, Note_on_c, 8, 53, 44
13, 145559, Note_on_c, 8, 53, 0
13, 145560, Note_on_c, 8, 53, 44
13, 145679, Note_on_c, 8, 53, 0
13, 145680, Note_on_c, 8, 53, 44
13, 145799, Note_on_c, 8, 53, 0
13, 145800, Note_on_c, 8, 53, 44
13, 145919, Note_on_c, 8, 53, 0
13, 145920, Note_on_c, 8, 53, 44
13, 146159, Note_on_c, 8, 53, 0
13, 154920, Note_on_c, 8, 53, 92
13, 155159, Note_on_c, 8, 53, 0
13, 157800, Note_on_c, 8, 46, 44
13, 158039, Note_on_c, 8, 46, 0
13, 158160, Note_on_c, 8, 53, 44
13, 158399, Note_on_c, 8, 53, 0
13, 158520, Note_on_c, 8, 53, 44
13, 158759, Note_on_c, 8, 53, 0
13, 159240, Note_on_c, 8, 46, 53
13, 159479, Note_on_c, 8, 46, 0
13, 159600, Note_on_c, 8, 46, 62
13, 159839, Note_on_c, 8, 46, 0
13, 159960, Note_on_c, 8, 53, 71
13, 160199, Note_on_c, 8, 53, 0
13, 160200, Note_on_c, 8, 53, 80
13, 160319, Note_on_c, 8, 53, 0
13, 161160, Note_on_c, 8, 53, 44
13, 161279, Note_on_c, 8, 53, 0
13, 161280, Note_on_c, 8, 46, 44
13, 161399, Note_on_c, 8, 46, 0
13, 161400, Note_on_c, 8, 53, 44
13, 161639, Note_on_c, 8, 53, 0
13, 161880, Note_on_c, 8, 53, 44
13, 161999, Note_on_c, 8, 53, 0
13, 162000, Note_on_c, 8, 46, 44
13, 162119, Note_on_c, 8, 46, 0
13, 162120, Note_on_c, 8, 53, 43
13, 162359, Note_on_c, 8, 53, 0
13, 162600, Note_on_c, 8, 53, 38
13, 162719, Note_on_c, 8, 53, 0
13, 162720, Note_on_c, 8, 46, 38
13, 162839, Note_on_c, 8, 46, 0
13, 162840, Note_on_c, 8, 53, 37
13, 163079, Note_on_c, 8, 53, 0
13, 163320, Note_on_c, 8, 53, 32
13, 163439, Note_on_c, 8, 53, 0
13, 163440, Note_on_c, 8, 46, 32
13, 163559, Note_on_c, 8, 46, 0
13, 163560, Note_on_c, 8, 53, 32
13, 163679, Note_on_c, 8, 53, 0
13, 163680, Note_on_c, 8, 53, 32
13, 163680, Note_on_c, 8, 46, 32
13, 163769, Note_on_c, 8, 53, 0
13, 163769, Note_on_c, 8, 46, 0
13, 163800, Note_on_c, 8, 53, 32
13, 163800, Note_on_c, 8, 46, 32
13, 163889, Note_on_c, 8, 53, 0
13, 163889, Note_on_c, 8, 46, 0
13, 163920, Note_on_c, 8, 53, 32
13, 163920, Note_on_c, 8, 46, 32
13, 164159, Note_on_c, 8, 53, 0
13, 164159, Note_on_c, 8, 46, 0
13, 164400, Note_on_c, 8, 53, 32
13, 164400, Note_on_c, 8, 46, 32
13, 164489, Note_on_c, 8, 53, 0
13, 164489, Note_on_c, 8, 46, 0
13, 164520, Note_on_c, 8, 53, 32
13, 164520, Note_on_c, 8, 46, 32
13, 164609, Note_on_c, 8, 53, 0
13, 164609, Note_on_c, 8, 46, 0
13, 164640, Note_on_c, 8, 53, 32
13, 164640, Note_on_c, 8, 46, 32
13, 164879, Note_on_c, 8, 53, 0
13, 164879, Note_on_c, 8, 46, 0
13, 165120, Note_on_c, 8, 53, 47
13, 165120, Note_on_c, 8, 46, 47
13, 165209, Note_on_c, 8, 53, 0
13, 165209, Note_on_c, 8, 46, 0
13, 165240, Note_on_c, 8, 53, 52
13, 165240, Note_on_c, 8, 46, 52
13, 165329, Note_on_c, 8, 53, 0
13, 165329, Note_on_c, 8, 46, 0
13, 165360, Note_on_c, 8, 53, 56
13, 165360, Note_on_c, 8, 46, 56
13, 165599, Note_on_c, 8, 53, 0
13, 165599, Note_on_c, 8, 46, 0
13, 165840, Note_on_c, 8, 53, 71
13, 165840, Note_on_c, 8, 46, 71
13, 165929, Note_on_c, 8, 53, 0
13, 165929, Note_on_c, 8, 46, 0
13, 165960, Note_on_c, 8, 53, 75
13, 165960, Note_on_c, 8, 46, 75
13, 166049, Note_on_c, 8, 53, 0
13, 166049, Note_on_c, 8, 46, 0
13, 166080, Note_on_c, 8, 53, 80
13, 166319, Note_on_c, 8, 53, 0
13, 166800, Note_on_c, 8, 53, 80
13, 166860, Control_c, 8, 11, 69
13, 167039, Note_on_c, 8, 53, 0
13, 167760, Control_c, 8, 11, 127
13, 167880, Note_on_c, 8, 53, 44
13, 168119, Note_on_c, 8, 53, 0
13, 168240, Note_on_c, 8, 46, 44
13, 168479, Note_on_c, 8, 46, 0
13, 169320, Note_on_c, 8, 53, 80
13, 169559, Note_on_c, 8, 53, 0
13, 169680, Note_on_c, 8, 53, 32
13, 169680, Note_on_c, 8, 46, 32
13, 169769, Note_on_c, 8, 53, 0
13, 169769, Note_on_c, 8, 46, 0
13, 169800, Note_on_c, 8, 53, 32
13, 169800, Note_on_c, 8, 46, 32
13, 169889, Note_on_c, 8, 53, 0
13, 169889, Note_on_c, 8, 46, 0
13, 169920, Note_on_c, 8, 53, 32
13, 169920, Note_on_c, 8, 46, 32
13, 170009, Note_on_c, 8, 53, 0
13, 170009, Note_on_c, 8, 46, 0
13, 170040, Note_on_c, 8, 53, 32
13, 170040, Note_on_c, 8, 46, 32
13, 170279, Note_on_c, 8, 53, 0
13, 170279, Note_on_c, 8, 46, 0
13, 170279, End_track
14, 0, Start_track
14, 0, Title_t, "Violin I"
14, 0, MIDI_port, 0
14, 0, Program_c, 11, 48
14, 0, Control_c, 11, 121, 0
14, 0, Control_c, 11, 7, 96
14, 0, Control_c, 11, 10, 48
14, 0, Control_c, 11, 11, 127
14, 1920, Note_on_c, 11, 74, 44
14, 2399, Note_on_c, 11, 74, 0
14, 2400, Note_on_c, 11, 69, 44
14, 2879, Note_on_c, 11, 69, 0
14, 2880, Note_on_c, 11, 70, 44
14, 3359, Note_on_c, 11, 70, 0
14, 3360, Note_on_c, 11, 65, 44
14, 3719, Note_on_c, 11, 65, 0
14, 3720, Note_on_c, 11, 63, 44
14, 3831, Note_on_c, 11, 63, 0
14, 3840, Note_on_c, 11, 62, 44
14, 4079, Note_on_c, 11, 62, 0
14, 4080, Note_on_c, 11, 65, 44
14, 4319, Note_on_c, 11, 65, 0
14, 4320, Note_on_c, 11, 70, 44
14, 4679, Note_on_c, 11, 70, 0
14, 4680, Note_on_c, 11, 72, 44
14, 4791, Note_on_c, 11, 72, 0
14, 4798, Control_c, 11, 11, 89
14, 4800, Note_on_c, 11, 74, 68
14, 4840, Control_c, 11, 11, 92
14, 4880, Control_c, 11, 11, 95
14, 4920, Control_c, 11, 11, 99
14, 4960, Control_c, 11, 11, 101
14, 5000, Control_c, 11, 11, 105
14, 5039, Note_on_c, 11, 74, 0
14, 5040, Control_c, 11, 11, 109
14, 5040, Note_on_c, 11, 77, 68
14, 5080, Control_c, 11, 11, 111
14, 5120, Control_c, 11, 11, 115
14, 5159, Note_on_c, 11, 77, 0
14, 5160, Note_on_c, 11, 75, 68
14, 5160, Control_c, 11, 11, 117
14, 5200, Control_c, 11, 11, 121
14, 5240, Control_c, 11, 11, 124
14, 5271, Note_on_c, 11, 75, 0
14, 5280, Note_on_c, 11, 72, 68
14, 5280, Control_c, 11, 11, 127
14, 5320, Control_c, 11, 11, 121
14, 5360, Control_c, 11, 11, 115
14, 5400, Control_c, 11, 11, 109
14, 5440, Control_c, 11, 11, 101
14, 5480, Control_c, 11, 11, 95
14, 5519, Note_on_c, 11, 72, 0
14, 6240, Control_c, 11, 11, 127
14, 6480, Note_on_c, 11, 72, 44
14, 6711, Note_on_c, 11, 72, 0
14, 6720, Note_on_c, 11, 72, 44
14, 7199, Note_on_c, 11, 72, 0
14, 7200, Note_on_c, 11, 70, 44
14, 7559, Note_on_c, 11, 70, 0
14, 7560, Note_on_c, 11, 77, 44
14, 7671, Note_on_c, 11, 77, 0
14, 7680, Note_on_c, 11, 77, 44
14, 7919, Note_on_c, 11, 77, 0
14, 7920, Note_on_c, 11, 75, 44
14, 8159, Note_on_c, 11, 75, 0
14, 8160, Note_on_c, 11, 75, 44
14, 8399, Note_on_c, 11, 75, 0
14, 8400, Note_on_c, 11, 74, 44
14, 8631, Note_on_c, 11, 74, 0
14, 8640, Note_on_c, 11, 72, 44
14, 8879, Note_on_c, 11, 72, 0
14, 8880, Note_on_c, 11, 72, 44
14, 8999, Note_on_c, 11, 72, 0
14, 9000, Note_on_c, 11, 74, 44
14, 9059, Note_on_c, 11, 74, 0
14, 9060, Note_on_c, 11, 75, 44
14, 9119, Note_on_c, 11, 75, 0
14, 9120, Note_on_c, 11, 74, 44
14, 9359, Note_on_c, 11, 74, 0
14, 9360, Note_on_c, 11, 72, 44
14, 9479, Note_on_c, 11, 72, 0
14, 9480, Note_on_c, 11, 73, 44
14, 9591, Note_on_c, 11, 73, 0
14, 9598, Control_c, 11, 11, 89
14, 9600, Note_on_c, 11, 73, 68
14, 9640, Control_c, 11, 11, 92
14, 9680, Control_c, 11, 11, 95
14, 9720, Control_c, 11, 11, 99
14, 9760, Control_c, 11, 11, 101
14, 9800, Control_c, 11, 11, 105
14, 9840, Control_c, 11, 11, 109
14, 9880, Control_c, 11, 11, 111
14, 9920, Control_c, 11, 11, 115
14, 9959, Note_on_c, 11, 73, 0
14, 9960, Control_c, 11, 11, 117
14, 9960, Note_on_c, 11, 74, 68
14, 10000, Control_c, 11, 11, 121
14, 10040, Control_c, 11, 11, 124
14, 10071, Note_on_c, 11, 74, 0
14, 10080, Note_on_c, 11, 74, 68
14, 10080, Control_c, 11, 11, 127
14, 10120, Control_c, 11, 11, 121
14, 10160, Control_c, 11, 11, 115
14, 10200, Control_c, 11, 11, 109
14, 10240, Control_c, 11, 11, 101
14, 10280, Control_c, 11, 11, 95
14, 10319, Note_on_c, 11, 74, 0
14, 11040, Control_c, 11, 11, 89
14, 11280, Note_on_c, 11, 74, 68
14, 11519, Note_on_c, 11, 74, 0
14, 11520, Note_on_c, 11, 72, 68
14, 11999, Note_on_c, 11, 72, 0
14, 12000, Note_on_c, 11, 70, 68
14, 12359, Note_on_c, 11, 70, 0
14, 12360, Note_on_c, 11, 77, 68
14, 12471, Note_on_c, 11, 77, 0
14, 12480, Control_c, 11, 11, 89
14, 12480, Note_on_c, 11, 77, 68
14, 12520, Control_c, 11, 11, 95
14, 12560, Control_c, 11, 11, 101
14, 12600, Control_c, 11, 11, 109
14, 12640, Control_c, 11, 11, 115
14, 12680, Control_c, 11, 11, 121
14, 12719, Note_on_c, 11, 77, 0
14, 12720, Note_on_c, 11, 75, 68
14, 12959, Note_on_c, 11, 75, 0
14, 12960, Note_on_c, 11, 75, 68
14, 13000, Control_c, 11, 11, 121
14, 13040, Control_c, 11, 11, 115
14, 13080, Control_c, 11, 11, 109
14, 13120, Control_c, 11, 11, 101
14, 13160, Control_c, 11, 11, 95
14, 13199, Note_on_c, 11, 75, 0
14, 13200, Note_on_c, 11, 74, 68
14, 13439, Note_on_c, 11, 74, 0
14, 14040, Control_c, 11, 11, 89
14, 14040, Note_on_c, 11, 74, 68
14, 14150, Control_c, 11, 11, 92
14, 14151, Note_on_c, 11, 74, 0
14, 14160, Note_on_c, 11, 79, 68
14, 14260, Control_c, 11, 11, 95
14, 14370, Control_c, 11, 11, 99
14, 14391, Note_on_c, 11, 79, 0
14, 14400, Note_on_c, 11, 79, 68
14, 14480, Control_c, 11, 11, 101
14, 14590, Control_c, 11, 11, 105
14, 14700, Control_c, 11, 11, 109
14, 14810, Control_c, 11, 11, 111
14, 14920, Control_c, 11, 11, 115
14, 14991, Note_on_c, 11, 79, 0
14, 15000, Note_on_c, 11, 79, 68
14, 15030, Control_c, 11, 11, 117
14, 15119, Note_on_c, 11, 79, 0
14, 15120, Note_on_c, 11, 81, 68
14, 15140, Control_c, 11, 11, 121
14, 15239, Note_on_c, 11, 81, 0
14, 15240, Note_on_c, 11, 82, 68
14, 15250, Control_c, 11, 11, 124
14, 15351, Note_on_c, 11, 82, 0
14, 15360, Note_on_c, 11, 82, 68
14, 15360, Control_c, 11, 11, 127
14, 15400, Control_c, 11, 11, 124
14, 15440, Control_c, 11, 11, 121
14, 15480, Control_c, 11, 11, 117
14, 15520, Control_c, 11, 11, 115
14, 15560, Control_c, 11, 11, 111
14, 15600, Control_c, 11, 11, 109
14, 15640, Control_c, 11, 11, 105
14, 15680, Control_c, 11, 11, 101
14, 15711, Note_on_c, 11, 82, 0
14, 15720, Note_on_c, 11, 74, 68
14, 15760, Control_c, 11, 11, 95
14, 15800, Control_c, 11, 11, 92
14, 15831, Note_on_c, 11, 74, 0
14, 15838, Control_c, 11, 11, 89
14, 15840, Note_on_c, 11, 77, 68
14, 16079, Note_on_c, 11, 77, 0
14, 16080, Note_on_c, 11, 75, 68
14, 16199, Note_on_c, 11, 75, 0
14, 16200, Note_on_c, 11, 72, 68
14, 16311, Note_on_c, 11, 72, 0
14, 16320, Note_on_c, 11, 72, 68
14, 16679, Note_on_c, 11, 72, 0
14, 16680, Note_on_c, 11, 74, 68
14, 16799, Note_on_c, 11, 74, 0
14, 16800, Note_on_c, 11, 70, 68
14, 17039, Note_on_c, 11, 70, 0
14, 17760, Note_on_c, 11, 58, 68
14, 17879, Note_on_c, 11, 58, 0
14, 18240, Control_c, 11, 11, 127
14, 18720, Note_on_c, 11, 58, 44
14, 18831, Note_on_c, 11, 58, 0
14, 18840, Note_on_c, 11, 62, 44
14, 18840, Note_on_c, 11, 58, 44
14, 18951, Note_on_c, 11, 62, 0
14, 18951, Note_on_c, 11, 58, 0
14, 18960, Note_on_c, 11, 67, 46
14, 18960, Note_on_c, 11, 58, 46
14, 19079, Note_on_c, 11, 67, 0
14, 19079, Note_on_c, 11, 58, 0
14, 19140, Note_on_c, 11, 58, 49
14, 19169, Note_on_c, 11, 58, 0
14, 19170, Note_on_c, 11, 63, 50
14, 19199, Note_on_c, 11, 63, 0
14, 19200, Note_on_c, 11, 67, 50
14, 19319, Note_on_c, 11, 67, 0
14, 19380, Note_on_c, 11, 58, 53
14, 19409, Note_on_c, 11, 58, 0
14, 19410, Note_on_c, 11, 63, 54
14, 19439, Note_on_c, 11, 63, 0
14, 19440, Note_on_c, 11, 67, 54
14, 19559, Note_on_c, 11, 67, 0
14, 19620, Note_on_c, 11, 58, 58
14, 19649, Note_on_c, 11, 58, 0
14, 19650, Note_on_c, 11, 60, 58
14, 19679, Note_on_c, 11, 60, 0
14, 19680, Note_on_c, 11, 67, 59
14, 19799, Note_on_c, 11, 67, 0
14, 19860, Note_on_c, 11, 58, 62
14, 19889, Note_on_c, 11, 58, 0
14, 19890, Note_on_c, 11, 60, 63
14, 19919, Note_on_c, 11, 60, 0
14, 19920, Note_on_c, 11, 67, 63
14, 20039, Note_on_c, 11, 67, 0
14, 20100, Note_on_c, 11, 58, 66
14, 20129, Note_on_c, 11, 58, 0
14, 20130, Note_on_c, 11, 60, 67
14, 20159, Note_on_c, 11, 60, 0
14, 20160, Note_on_c, 11, 67, 68
14, 20279, Note_on_c, 11, 67, 0
14, 20340, Note_on_c, 11, 58, 59
14, 20369, Note_on_c, 11, 58, 0
14, 20370, Note_on_c, 11, 62, 58
14, 20399, Note_on_c, 11, 62, 0
14, 20400, Note_on_c, 11, 65, 56
14, 20459, Note_on_c, 11, 65, 0
14, 20460, Note_on_c, 11, 58, 53
14, 20489, Note_on_c, 11, 58, 0
14, 20490, Note_on_c, 11, 62, 52
14, 20519, Note_on_c, 11, 62, 0
14, 20520, Note_on_c, 11, 65, 50
14, 20579, Note_on_c, 11, 65, 0
14, 20580, Note_on_c, 11, 58, 47
14, 20609, Note_on_c, 11, 58, 0
14, 20610, Note_on_c, 11, 62, 46
14, 20639, Note_on_c, 11, 62, 0
14, 20640, Note_on_c, 11, 65, 44
14, 20759, Note_on_c, 11, 65, 0
14, 20820, Note_on_c, 11, 57, 44
14, 20849, Note_on_c, 11, 57, 0
14, 20850, Note_on_c, 11, 60, 44
14, 20879, Note_on_c, 11, 60, 0
14, 20880, Note_on_c, 11, 63, 44
14, 20999, Note_on_c, 11, 63, 0
14, 21090, Note_on_c, 11, 63, 44
14, 21119, Note_on_c, 11, 63, 0
14, 21120, Note_on_c, 11, 69, 38
14, 21239, Note_on_c, 11, 69, 0
14, 21330, Note_on_c, 11, 63, 38
14, 21359, Note_on_c, 11, 63, 0
14, 21360, Note_on_c, 11, 69, 38
14, 21479, Note_on_c, 11, 69, 0
14, 21570, Note_on_c, 11, 63, 38
14, 21599, Note_on_c, 11, 63, 0
14, 21600, Note_on_c, 11, 69, 38
14, 21719, Note_on_c, 11, 69, 0
14, 21810, Note_on_c, 11, 62, 38
14, 21839, Note_on_c, 11, 62, 0
14, 21840, Note_on_c, 11, 69, 38
14, 21959, Note_on_c, 11, 69, 0
14, 22050, Note_on_c, 11, 62, 38
14, 22079, Note_on_c, 11, 62, 0
14, 22080, Note_on_c, 11, 69, 32
14, 22199, Note_on_c, 11, 69, 0
14, 22290, Note_on_c, 11, 62, 32
14, 22319, Note_on_c, 11, 62, 0
14, 22320, Note_on_c, 11, 69, 32
14, 22439, Note_on_c, 11, 69, 0
14, 22530, Note_on_c, 11, 62, 32
14, 22559, Note_on_c, 11, 62, 0
14, 22560, Note_on_c, 11, 69, 32
14, 22679, Note_on_c, 11, 69, 0
14, 28800, Control_c, 11, 11, 89
14, 29040, Note_on_c, 11, 79, 68
14, 29280, Control_c, 11, 11, 89
14, 29399, Note_on_c, 11, 79, 0
14, 29400, Note_on_c, 11, 73, 68
14, 29420, Control_c, 11, 11, 92
14, 29519, Note_on_c, 11, 73, 0
14, 29520, Note_on_c, 11, 76, 68
14, 29560, Control_c, 11, 11, 95
14, 29639, Note_on_c, 11, 76, 0
14, 29640, Note_on_c, 11, 74, 68
14, 29700, Control_c, 11, 11, 99
14, 29751, Note_on_c, 11, 74, 0
14, 29760, Note_on_c, 11, 74, 68
14, 29840, Control_c, 11, 11, 101
14, 29980, Control_c, 11, 11, 105
14, 29999, Note_on_c, 11, 74, 0
14, 30120, Note_on_c, 11, 81, 68
14, 30120, Control_c, 11, 11, 109
14, 30260, Control_c, 11, 11, 111
14, 30400, Control_c, 11, 11, 115
14, 30479, Note_on_c, 11, 81, 0
14, 30480, Note_on_c, 11, 69, 68
14, 30540, Control_c, 11, 11, 117
14, 30599, Note_on_c, 11, 69, 0
14, 30680, Control_c, 11, 11, 121
14, 30820, Control_c, 11, 11, 124
14, 30840, Note_on_c, 11, 81, 68
14, 30960, Control_c, 11, 11, 127
14, 31199, Note_on_c, 11, 81, 0
14, 31200, Note_on_c, 11, 69, 68
14, 31311, Note_on_c, 11, 69, 0
14, 31320, Control_c, 11, 11, 127
14, 31320, Note_on_c, 11, 74, 68
14, 31350, Control_c, 11, 11, 124
14, 31380, Control_c, 11, 11, 121
14, 31410, Control_c, 11, 11, 117
14, 31439, Note_on_c, 11, 74, 0
14, 31440, Note_on_c, 11, 76, 68
14, 31440, Control_c, 11, 11, 115
14, 31470, Control_c, 11, 11, 111
14, 31500, Control_c, 11, 11, 109
14, 31530, Control_c, 11, 11, 105
14, 31559, Note_on_c, 11, 76, 0
14, 31560, Control_c, 11, 11, 101
14, 31560, Note_on_c, 11, 78, 68
14, 31590, Control_c, 11, 11, 99
14, 31620, Control_c, 11, 11, 95
14, 31650, Control_c, 11, 11, 92
14, 31671, Note_on_c, 11, 78, 0
14, 31680, Control_c, 11, 11, 89
14, 31680, Note_on_c, 11, 78, 68
14, 31799, Note_on_c, 11, 78, 0
14, 31800, Note_on_c, 11, 79, 68
14, 31800, Control_c, 11, 11, 92
14, 31911, Note_on_c, 11, 79, 0
14, 31920, Note_on_c, 11, 79, 68
14, 31920, Control_c, 11, 11, 95
14, 32040, Control_c, 11, 11, 99
14, 32160, Control_c, 11, 11, 101
14, 32271, Note_on_c, 11, 79, 0
14, 32280, Note_on_c, 11, 73, 68
14, 32280, Control_c, 11, 11, 105
14, 32399, Note_on_c, 11, 73, 0
14, 32400, Note_on_c, 11, 76, 68
14, 32400, Control_c, 11, 11, 109
14, 32519, Note_on_c, 11, 76, 0
14, 32520, Control_c, 11, 11, 111
14, 32520, Note_on_c, 11, 74, 68
14, 32631, Note_on_c, 11, 74, 0
14, 32640, Note_on_c, 11, 74, 68
14, 32640, Control_c, 11, 11, 115
14, 32760, Control_c, 11, 11, 117
14, 32879, Note_on_c, 11, 74, 0
14, 32880, Control_c, 11, 11, 121
14, 33000, Note_on_c, 11, 81, 68
14, 33000, Control_c, 11, 11, 124
14, 33120, Control_c, 11, 11, 127
14, 33359, Note_on_c, 11, 81, 0
14, 33360, Note_on_c, 11, 69, 68
14, 33479, Note_on_c, 11, 69, 0
14, 33720, Note_on_c, 11, 81, 44
14, 33831, Note_on_c, 11, 81, 0
14, 33840, Note_on_c, 11, 81, 44
14, 33840, Control_c, 11, 11, 127
14, 33960, Control_c, 11, 11, 126
14, 34079, Note_on_c, 11, 81, 0
14, 34080, Note_on_c, 11, 69, 44
14, 34080, Control_c, 11, 11, 125
14, 34199, Note_on_c, 11, 69, 0
14, 34200, Control_c, 11, 11, 122
14, 34320, Control_c, 11, 11, 121
14, 34440, Note_on_c, 11, 81, 44
14, 34440, Control_c, 11, 11, 120
14, 34560, Control_c, 11, 11, 119
14, 34680, Control_c, 11, 11, 116
14, 34799, Note_on_c, 11, 81, 0
14, 34800, Note_on_c, 11, 69, 44
14, 34800, Control_c, 11, 11, 115
14, 34919, Note_on_c, 11, 69, 0
14, 34920, Control_c, 11, 11, 114
14, 34920, Note_on_c, 11, 57, 44
14, 35039, Note_on_c, 11, 57, 0
14, 35040, Control_c, 11, 11, 112
14, 35158, Control_c, 11, 11, 127
14, 35160, Note_on_c, 11, 62, 32
14, 35279, Note_on_c, 11, 62, 0
14, 35640, Note_on_c, 11, 62, 32
14, 35759, Note_on_c, 11, 62, 0
14, 35760, Note_on_c, 11, 63, 32
14, 35819, Note_on_c, 11, 63, 0
14, 35820, Note_on_c, 11, 69, 32
14, 35879, Note_on_c, 11, 69, 0
14, 35880, Note_on_c, 11, 72, 32
14, 35939, Note_on_c, 11, 72, 0
14, 35940, Note_on_c, 11, 75, 32
14, 35979, Note_on_c, 11, 75, 0
14, 35986, Note_on_c, 11, 65, 32
14, 35999, Note_on_c, 11, 65, 0
14, 36000, Note_on_c, 11, 74, 32
14, 36359, Note_on_c, 11, 74, 0
14, 36360, Note_on_c, 11, 72, 32
14, 36419, Note_on_c, 11, 72, 0
14, 36420, Note_on_c, 11, 70, 32
14, 36471, Note_on_c, 11, 70, 0
14, 36480, Note_on_c, 11, 70, 32
14, 36599, Note_on_c, 11, 70, 0
14, 36600, Note_on_c, 11, 69, 32
14, 36779, Note_on_c, 11, 69, 0
14, 36780, Note_on_c, 11, 72, 32
14, 36839, Note_on_c, 11, 72, 0
14, 36840, Note_on_c, 11, 70, 32
14, 36899, Note_on_c, 11, 70, 0
14, 36900, Note_on_c, 11, 69, 32
14, 36951, Note_on_c, 11, 69, 0
14, 36960, Note_on_c, 11, 72, 32
14, 37079, Note_on_c, 11, 72, 0
14, 37080, Note_on_c, 11, 70, 32
14, 37259, Note_on_c, 11, 70, 0
14, 37260, Note_on_c, 11, 74, 32
14, 37319, Note_on_c, 11, 74, 0
14, 37320, Note_on_c, 11, 70, 32
14, 37379, Note_on_c, 11, 70, 0
14, 37380, Note_on_c, 11, 67, 32
14, 37431, Note_on_c, 11, 67, 0
14, 37440, Note_on_c, 11, 67, 32
14, 37499, Note_on_c, 11, 67, 0
14, 37500, Note_on_c, 11, 65, 32
14, 37559, Note_on_c, 11, 65, 0
14, 37560, Note_on_c, 11, 64, 32
14, 37619, Note_on_c, 11, 64, 0
14, 37620, Note_on_c, 11, 65, 32
14, 37679, Note_on_c, 11, 65, 0
14, 37680, Note_on_c, 11, 64, 32
14, 37739, Note_on_c, 11, 64, 0
14, 37740, Note_on_c, 11, 65, 32
14, 37799, Note_on_c, 11, 65, 0
14, 37800, Note_on_c, 11, 67, 32
14, 37859, Note_on_c, 11, 67, 0
14, 37860, Note_on_c, 11, 63, 32
14, 37911, Note_on_c, 11, 63, 0
14, 37920, Note_on_c, 11, 63, 32
14, 37979, Note_on_c, 11, 63, 0
14, 37980, Note_on_c, 11, 62, 32
14, 38039, Note_on_c, 11, 62, 0
14, 38040, Note_on_c, 11, 61, 32
14, 38099, Note_on_c, 11, 61, 0
14, 38100, Note_on_c, 11, 62, 32
14, 38159, Note_on_c, 11, 62, 0
14, 38160, Note_on_c, 11, 67, 32
14, 38219, Note_on_c, 11, 67, 0
14, 38220, Note_on_c, 11, 65, 32
14, 38279, Note_on_c, 11, 65, 0
14, 38280, Note_on_c, 11, 64, 32
14, 38339, Note_on_c, 11, 64, 0
14, 38340, Note_on_c, 11, 65, 32
14, 38391, Note_on_c, 11, 65, 0
14, 38400, Note_on_c, 11, 72, 32
14, 38459, Note_on_c, 11, 72, 0
14, 38460, Note_on_c, 11, 70, 32
14, 38519, Note_on_c, 11, 70, 0
14, 38520, Note_on_c, 11, 69, 32
14, 38579, Note_on_c, 11, 69, 0
14, 38580, Note_on_c, 11, 70, 32
14, 38639, Note_on_c, 11, 70, 0
14, 38640, Note_on_c, 11, 69, 32
14, 38699, Note_on_c, 11, 69, 0
14, 38700, Note_on_c, 11, 70, 32
14, 38751, Note_on_c, 11, 70, 0
14, 38760, Note_on_c, 11, 70, 32
14, 38819, Note_on_c, 11, 70, 0
14, 38820, Note_on_c, 11, 72, 32
14, 38871, Note_on_c, 11, 72, 0
14, 38878, Control_c, 11, 11, 87
14, 38880, Note_on_c, 11, 73, 56
14, 38880, Control_c, 11, 11, 89
14, 38920, Control_c, 11, 11, 92
14, 38939, Note_on_c, 11, 73, 0
14, 38940, Note_on_c, 11, 74, 56
14, 38960, Control_c, 11, 11, 95
14, 38999, Note_on_c, 11, 74, 0
14, 39000, Control_c, 11, 11, 99
14, 39000, Note_on_c, 11, 75, 56
14, 39040, Control_c, 11, 11, 101
14, 39059, Note_on_c, 11, 75, 0
14, 39060, Note_on_c, 11, 74, 56
14, 39080, Control_c, 11, 11, 105
14, 39119, Note_on_c, 11, 74, 0
14, 39120, Note_on_c, 11, 77, 56
14, 39120, Control_c, 11, 11, 109
14, 39160, Control_c, 11, 11, 111
14, 39179, Note_on_c, 11, 77, 0
14, 39180, Note_on_c, 11, 74, 56
14, 39200, Control_c, 11, 11, 115
14, 39239, Note_on_c, 11, 74, 0
14, 39240, Control_c, 11, 11, 117
14, 39240, Note_on_c, 11, 77, 56
14, 39280, Control_c, 11, 11, 121
14, 39299, Note_on_c, 11, 77, 0
14, 39300, Note_on_c, 11, 75, 56
14, 39320, Control_c, 11, 11, 124
14, 39351, Note_on_c, 11, 75, 0
14, 39360, Control_c, 11, 11, 127
14, 39360, Note_on_c, 11, 72, 56
14, 39400, Control_c, 11, 11, 121
14, 39440, Control_c, 11, 11, 115
14, 39480, Control_c, 11, 11, 109
14, 39520, Control_c, 11, 11, 101
14, 39560, Control_c, 11, 11, 95
14, 39599, Note_on_c, 11, 72, 0
14, 40440, Note_on_c, 11, 65, 56
14, 40440, Control_c, 11, 11, 89
14, 40499, Note_on_c, 11, 65, 0
14, 40500, Note_on_c, 11, 72, 56
14, 40559, Note_on_c, 11, 72, 0
14, 40560, Note_on_c, 11, 71, 56
14, 40560, Control_c, 11, 11, 89
14, 40590, Control_c, 11, 11, 99
14, 40619, Note_on_c, 11, 71, 0
14, 40620, Note_on_c, 11, 72, 56
14, 40620, Control_c, 11, 11, 109
14, 40650, Control_c, 11, 11, 117
14, 40679, Note_on_c, 11, 72, 0
14, 40680, Note_on_c, 11, 74, 56
14, 40680, Control_c, 11, 11, 127
14, 40710, Control_c, 11, 11, 117
14, 40739, Note_on_c, 11, 74, 0
14, 40740, Control_c, 11, 11, 109
14, 40740, Note_on_c, 11, 72, 56
14, 40770, Control_c, 11, 11, 99
14, 40791, Note_on_c, 11, 72, 0
14, 40800, Control_c, 11, 11, 127
14, 40800, Note_on_c, 11, 72, 32
14, 41099, Note_on_c, 11, 72, 0
14, 41100, Note_on_c, 11, 65, 32
14, 41159, Note_on_c, 11, 65, 0
14, 41160, Note_on_c, 11, 74, 32
14, 41219, Note_on_c, 11, 74, 0
14, 41220, Note_on_c, 11, 72, 32
14, 41271, Note_on_c, 11, 72, 0
14, 41280, Note_on_c, 11, 72, 32
14, 41399, Note_on_c, 11, 72, 0
14, 41400, Note_on_c, 11, 70, 32
14, 41579, Note_on_c, 11, 70, 0
14, 41580, Note_on_c, 11, 76, 32
14, 41639, Note_on_c, 11, 76, 0
14, 41640, Note_on_c, 11, 79, 32
14, 41699, Note_on_c, 11, 79, 0
14, 41700, Note_on_c, 11, 77, 32
14, 41751, Note_on_c, 11, 77, 0
14, 41760, Note_on_c, 11, 77, 32
14, 41819, Note_on_c, 11, 77, 0
14, 41820, Note_on_c, 11, 76, 32
14, 41879, Note_on_c, 11, 76, 0
14, 41880, Note_on_c, 11, 79, 32
14, 41939, Note_on_c, 11, 79, 0
14, 41940, Note_on_c, 11, 77, 32
14, 41991, Note_on_c, 11, 77, 0
14, 42000, Note_on_c, 11, 84, 32
14, 42059, Note_on_c, 11, 84, 0
14, 42060, Note_on_c, 11, 77, 32
14, 42119, Note_on_c, 11, 77, 0
14, 42120, Note_on_c, 11, 84, 32
14, 42179, Note_on_c, 11, 84, 0
14, 42180, Note_on_c, 11, 75, 32
14, 42231, Note_on_c, 11, 75, 0
14, 42240, Note_on_c, 11, 84, 32
14, 42299, Note_on_c, 11, 84, 0
14, 42300, Note_on_c, 11, 75, 32
14, 42359, Note_on_c, 11, 75, 0
14, 42360, Note_on_c, 11, 77, 32
14, 42419, Note_on_c, 11, 77, 0
14, 42420, Note_on_c, 11, 75, 32
14, 42471, Note_on_c, 11, 75, 0
14, 42480, Note_on_c, 11, 75, 32
14, 42539, Note_on_c, 11, 75, 0
14, 42540, Note_on_c, 11, 74, 32
14, 42599, Note_on_c, 11, 74, 0
14, 42600, Note_on_c, 11, 82, 32
14, 42659, Note_on_c, 11, 82, 0
14, 42660, Note_on_c, 11, 74, 32
14, 42711, Note_on_c, 11, 74, 0
14, 42720, Note_on_c, 11, 74, 32
14, 42779, Note_on_c, 11, 74, 0
14, 42780, Note_on_c, 11, 72, 32
14, 42839, Note_on_c, 11, 72, 0
14, 42840, Note_on_c, 11, 71, 32
14, 42899, Note_on_c, 11, 71, 0
14, 42900, Note_on_c, 11, 72, 32
14, 42959, Note_on_c, 11, 72, 0
14, 42960, Note_on_c, 11, 71, 32
14, 43019, Note_on_c, 11, 71, 0
14, 43020, Note_on_c, 11, 72, 32
14, 43079, Note_on_c, 11, 72, 0
14, 43080, Note_on_c, 11, 74, 32
14, 43139, Note_on_c, 11, 74, 0
14, 43140, Note_on_c, 11, 75, 32
14, 43191, Note_on_c, 11, 75, 0
14, 43200, Note_on_c, 11, 75, 32
14, 43259, Note_on_c, 11, 75, 0
14, 43260, Note_on_c, 11, 74, 32
14, 43311, Note_on_c, 11, 74, 0
14, 43320, Note_on_c, 11, 77, 32
14, 43379, Note_on_c, 11, 77, 0
14, 43380, Note_on_c, 11, 74, 32
14, 43431, Note_on_c, 11, 74, 0
14, 43440, Note_on_c, 11, 74, 32
14, 43499, Note_on_c, 11, 74, 0
14, 43500, Note_on_c, 11, 72, 32
14, 43551, Note_on_c, 11, 72, 0
14, 43560, Note_on_c, 11, 77, 32
14, 43619, Note_on_c, 11, 77, 0
14, 43620, Note_on_c, 11, 73, 32
14, 43671, Note_on_c, 11, 73, 0
14, 43680, Note_on_c, 11, 77, 32
14, 43739, Note_on_c, 11, 77, 0
14, 43740, Note_on_c, 11, 73, 35
14, 43791, Note_on_c, 11, 73, 0
14, 43800, Note_on_c, 11, 77, 38
14, 43859, Note_on_c, 11, 77, 0
14, 43860, Note_on_c, 11, 73, 41
14, 43911, Note_on_c, 11, 73, 0
14, 43920, Note_on_c, 11, 77, 44
14, 43979, Note_on_c, 11, 77, 0
14, 43980, Note_on_c, 11, 73, 47
14, 44031, Note_on_c, 11, 73, 0
14, 44040, Note_on_c, 11, 75, 50
14, 44099, Note_on_c, 11, 75, 0
14, 44100, Note_on_c, 11, 74, 53
14, 44151, Note_on_c, 11, 74, 0
14, 44160, Note_on_c, 11, 74, 56
14, 44219, Note_on_c, 11, 74, 0
14, 44220, Note_on_c, 11, 70, 52
14, 44279, Note_on_c, 11, 70, 0
14, 44280, Note_on_c, 11, 77, 48
14, 44339, Note_on_c, 11, 77, 0
14, 44340, Note_on_c, 11, 74, 44
14, 44399, Note_on_c, 11, 74, 0
14, 44400, Note_on_c, 11, 72, 40
14, 44519, Note_on_c, 11, 72, 0
14, 45120, Note_on_c, 11, 62, 32
14, 45179, Note_on_c, 11, 62, 0
14, 45180, Note_on_c, 11, 65, 32
14, 45239, Note_on_c, 11, 65, 0
14, 45240, Note_on_c, 11, 69, 32
14, 45299, Note_on_c, 11, 69, 0
14, 45300, Note_on_c, 11, 70, 32
14, 45359, Note_on_c, 11, 70, 0
14, 45360, Note_on_c, 11, 72, 32
14, 45419, Note_on_c, 11, 72, 0
14, 45420, Note_on_c, 11, 70, 32
14, 45479, Note_on_c, 11, 70, 0
14, 45480, Note_on_c, 11, 75, 32
14, 45539, Note_on_c, 11, 75, 0
14, 45540, Note_on_c, 11, 74, 32
14, 45591, Note_on_c, 11, 74, 0
14, 45600, Note_on_c, 11, 72, 32
14, 45659, Note_on_c, 11, 72, 0
14, 45660, Note_on_c, 11, 71, 32
14, 45719, Note_on_c, 11, 71, 0
14, 45720, Note_on_c, 11, 74, 32
14, 45779, Note_on_c, 11, 74, 0
14, 45780, Note_on_c, 11, 72, 32
14, 45831, Note_on_c, 11, 72, 0
14, 45840, Note_on_c, 11, 71, 32
14, 45899, Note_on_c, 11, 71, 0
14, 45900, Note_on_c, 11, 72, 32
14, 45951, Note_on_c, 11, 72, 0
14, 45960, Note_on_c, 11, 65, 32
14, 46019, Note_on_c, 11, 65, 0
14, 46020, Note_on_c, 11, 72, 32
14, 46071, Note_on_c, 11, 72, 0
14, 46080, Note_on_c, 11, 72, 32
14, 46139, Note_on_c, 11, 72, 0
14, 46140, Note_on_c, 11, 65, 32
14, 46191, Note_on_c, 11, 65, 0
14, 46200, Note_on_c, 11, 65, 32
14, 46259, Note_on_c, 11, 65, 0
14, 46260, Note_on_c, 11, 70, 32
14, 46311, Note_on_c, 11, 70, 0
14, 46320, Note_on_c, 11, 70, 32
14, 46379, Note_on_c, 11, 70, 0
14, 46380, Note_on_c, 11, 77, 32
14, 46431, Note_on_c, 11, 77, 0
14, 46440, Note_on_c, 11, 79, 32
14, 46499, Note_on_c, 11, 79, 0
14, 46500, Note_on_c, 11, 77, 32
14, 46551, Note_on_c, 11, 77, 0
14, 46560, Note_on_c, 11, 77, 32
14, 46619, Note_on_c, 11, 77, 0
14, 46620, Note_on_c, 11, 75, 35
14, 46679, Note_on_c, 11, 75, 0
14, 46680, Note_on_c, 11, 74, 38
14, 46739, Note_on_c, 11, 74, 0
14, 46740, Note_on_c, 11, 75, 41
14, 46791, Note_on_c, 11, 75, 0
14, 46800, Note_on_c, 11, 74, 44
14, 46859, Note_on_c, 11, 74, 0
14, 46860, Note_on_c, 11, 75, 47
14, 46911, Note_on_c, 11, 75, 0
14, 46920, Note_on_c, 11, 75, 50
14, 46979, Note_on_c, 11, 75, 0
14, 46980, Note_on_c, 11, 77, 53
14, 47031, Note_on_c, 11, 77, 0
14, 47040, Note_on_c, 11, 77, 56
14, 47099, Note_on_c, 11, 77, 0
14, 47100, Note_on_c, 11, 75, 52
14, 47151, Note_on_c, 11, 75, 0
14, 47160, Note_on_c, 11, 79, 48
14, 47219, Note_on_c, 11, 79, 0
14, 47220, Note_on_c, 11, 75, 44
14, 47271, Note_on_c, 11, 75, 0
14, 47280, Note_on_c, 11, 74, 40
14, 47399, Note_on_c, 11, 74, 0
14, 48000, Control_c, 11, 11, 69
14, 48060, Note_on_c, 11, 75, 68
14, 48119, Note_on_c, 11, 75, 0
14, 48120, Note_on_c, 11, 74, 68
14, 48179, Note_on_c, 11, 74, 0
14, 48180, Note_on_c, 11, 70, 68
14, 48239, Note_on_c, 11, 70, 0
14, 48240, Control_c, 11, 11, 69
14, 48240, Note_on_c, 11, 79, 68
14, 48340, Control_c, 11, 11, 74
14, 48440, Control_c, 11, 11, 79
14, 48540, Control_c, 11, 11, 84
14, 48591, Note_on_c, 11, 79, 0
14, 48600, Note_on_c, 11, 55, 68
14, 48640, Control_c, 11, 11, 89
14, 48740, Control_c, 11, 11, 94
14, 48771, Note_on_c, 11, 55, 0
14, 48780, Note_on_c, 11, 67, 68
14, 48839, Note_on_c, 11, 67, 0
14, 48840, Note_on_c, 11, 79, 68
14, 48840, Control_c, 11, 11, 99
14, 48891, Note_on_c, 11, 79, 0
14, 48900, Note_on_c, 11, 79, 68
14, 48940, Control_c, 11, 11, 102
14, 48951, Note_on_c, 11, 79, 0
14, 48960, Note_on_c, 11, 79, 68
14, 49011, Note_on_c, 11, 79, 0
14, 49020, Note_on_c, 11, 67, 68
14, 49040, Control_c, 11, 11, 107
14, 49079, Note_on_c, 11, 67, 0
14, 49080, Note_on_c, 11, 79, 68
14, 49131, Note_on_c, 11, 79, 0
14, 49140, Note_on_c, 11, 79, 68
14, 49140, Control_c, 11, 11, 112
14, 49191, Note_on_c, 11, 79, 0
14, 49200, Note_on_c, 11, 79, 68
14, 49240, Control_c, 11, 11, 117
14, 49251, Note_on_c, 11, 79, 0
14, 49260, Note_on_c, 11, 79, 68
14, 49319, Note_on_c, 11, 79, 0
14, 49320, Note_on_c, 11, 81, 68
14, 49340, Control_c, 11, 11, 122
14, 49379, Note_on_c, 11, 81, 0
14, 49380, Note_on_c, 11, 82, 68
14, 49431, Note_on_c, 11, 82, 0
14, 49440, Note_on_c, 11, 82, 68
14, 49484, Note_on_c, 11, 82, 0
14, 49500, Control_c, 11, 11, 127
14, 49500, Note_on_c, 11, 82, 66
14, 49559, Note_on_c, 11, 82, 0
14, 49560, Note_on_c, 11, 81, 64
14, 49619, Note_on_c, 11, 81, 0
14, 49620, Note_on_c, 11, 82, 61
14, 49679, Note_on_c, 11, 82, 0
14, 49680, Note_on_c, 11, 84, 59
14, 49739, Note_on_c, 11, 84, 0
14, 49740, Note_on_c, 11, 82, 56
14, 49799, Note_on_c, 11, 82, 0
14, 49800, Note_on_c, 11, 86, 54
14, 49851, Note_on_c, 11, 86, 0
14, 49860, Note_on_c, 11, 77, 52
14, 49919, Note_on_c, 11, 77, 0
14, 49920, Note_on_c, 11, 76, 49
14, 49979, Note_on_c, 11, 76, 0
14, 49980, Note_on_c, 11, 77, 47
14, 50039, Note_on_c, 11, 77, 0
14, 50040, Note_on_c, 11, 82, 44
14, 50091, Note_on_c, 11, 82, 0
14, 50100, Note_on_c, 11, 74, 44
14, 50159, Note_on_c, 11, 74, 0
14, 50160, Note_on_c, 11, 79, 44
14, 50219, Note_on_c, 11, 79, 0
14, 50220, Note_on_c, 11, 77, 44
14, 50279, Note_on_c, 11, 77, 0
14, 50280, Note_on_c, 11, 75, 44
14, 50339, Note_on_c, 11, 75, 0
14, 50340, Note_on_c, 11, 72, 44
14, 50399, Note_on_c, 11, 72, 0
14, 50400, Note_on_c, 11, 71, 44
14, 50459, Note_on_c, 11, 71, 0
14, 50460, Note_on_c, 11, 72, 44
14, 50519, Note_on_c, 11, 72, 0
14, 50520, Note_on_c, 11, 65, 44
14, 50571, Note_on_c, 11, 65, 0
14, 50580, Note_on_c, 11, 79, 44
14, 50639, Note_on_c, 11, 79, 0
14, 50640, Note_on_c, 11, 77, 44
14, 50699, Note_on_c, 11, 77, 0
14, 50700, Note_on_c, 11, 72, 44
14, 50759, Note_on_c, 11, 72, 0
14, 50760, Note_on_c, 11, 75, 44
14, 50819, Note_on_c, 11, 75, 0
14, 50820, Note_on_c, 11, 74, 44
14, 50871, Note_on_c, 11, 74, 0
14, 50880, Note_on_c, 11, 72, 44
14, 50939, Note_on_c, 11, 72, 0
14, 50940, Note_on_c, 11, 70, 44
14, 51119, Note_on_c, 11, 70, 0
14, 51840, Note_on_c, 11, 58, 44
14, 51959, Note_on_c, 11, 58, 0
14, 52800, Note_on_c, 11, 58, 44
14, 52911, Note_on_c, 11, 58, 0
14, 52920, Note_on_c, 11, 58, 44
14, 52920, Note_on_c, 11, 62, 44
14, 53031, Note_on_c, 11, 58, 0
14, 53031, Note_on_c, 11, 62, 0
14, 53040, Note_on_c, 11, 67, 44
14, 53040, Note_on_c, 11, 58, 44
14, 53159, Note_on_c, 11, 67, 0
14, 53159, Note_on_c, 11, 58, 0
14, 53220, Note_on_c, 11, 58, 45
14, 53249, Note_on_c, 11, 58, 0
14, 53250, Note_on_c, 11, 63, 46
14, 53279, Note_on_c, 11, 63, 0
14, 53280, Note_on_c, 11, 67, 46
14, 53399, Note_on_c, 11, 67, 0
14, 53460, Note_on_c, 11, 58, 50
14, 53489, Note_on_c, 11, 58, 0
14, 53490, Note_on_c, 11, 63, 51
14, 53519, Note_on_c, 11, 63, 0
14, 53520, Note_on_c, 11, 67, 52
14, 53639, Note_on_c, 11, 67, 0
14, 53700, Note_on_c, 11, 58, 56
14, 53729, Note_on_c, 11, 58, 0
14, 53730, Note_on_c, 11, 60, 56
14, 53759, Note_on_c, 11, 60, 0
14, 53760, Note_on_c, 11, 67, 57
14, 53879, Note_on_c, 11, 67, 0
14, 53940, Note_on_c, 11, 58, 61
14, 53969, Note_on_c, 11, 58, 0
14, 53970, Note_on_c, 11, 60, 62
14, 53999, Note_on_c, 11, 60, 0
14, 54000, Note_on_c, 11, 67, 62
14, 54119, Note_on_c, 11, 67, 0
14, 54180, Note_on_c, 11, 58, 66
14, 54209, Note_on_c, 11, 58, 0
14, 54210, Note_on_c, 11, 60, 67
14, 54239, Note_on_c, 11, 60, 0
14, 54240, Note_on_c, 11, 67, 68
14, 54299, Note_on_c, 11, 67, 0
14, 54300, Note_on_c, 11, 58, 65
14, 54329, Note_on_c, 11, 58, 0
14, 54330, Note_on_c, 11, 62, 64
14, 54359, Note_on_c, 11, 62, 0
14, 54360, Note_on_c, 11, 65, 62
14, 54419, Note_on_c, 11, 65, 0
14, 54420, Note_on_c, 11, 58, 59
14, 54449, Note_on_c, 11, 58, 0
14, 54450, Note_on_c, 11, 62, 58
14, 54479, Note_on_c, 11, 62, 0
14, 54510, Note_on_c, 11, 65, 55
14, 54629, Note_on_c, 11, 65, 0
14, 54660, Note_on_c, 11, 58, 47
14, 54689, Note_on_c, 11, 58, 0
14, 54690, Note_on_c, 11, 62, 46
14, 54719, Note_on_c, 11, 62, 0
14, 54720, Note_on_c, 11, 65, 44
14, 54839, Note_on_c, 11, 65, 0
14, 54900, Note_on_c, 11, 57, 44
14, 54929, Note_on_c, 11, 57, 0
14, 54930, Note_on_c, 11, 60, 44
14, 54959, Note_on_c, 11, 60, 0
14, 54960, Note_on_c, 11, 63, 44
14, 55079, Note_on_c, 11, 63, 0
14, 55170, Note_on_c, 11, 63, 44
14, 55199, Note_on_c, 11, 63, 0
14, 55200, Note_on_c, 11, 69, 38
14, 55319, Note_on_c, 11, 69, 0
14, 55410, Note_on_c, 11, 63, 38
14, 55439, Note_on_c, 11, 63, 0
14, 55440, Note_on_c, 11, 69, 38
14, 55559, Note_on_c, 11, 69, 0
14, 55650, Note_on_c, 11, 63, 38
14, 55679, Note_on_c, 11, 63, 0
14, 55680, Note_on_c, 11, 69, 38
14, 55799, Note_on_c, 11, 69, 0
14, 55890, Note_on_c, 11, 62, 38
14, 55919, Note_on_c, 11, 62, 0
14, 55920, Note_on_c, 11, 69, 38
14, 56039, Note_on_c, 11, 69, 0
14, 56130, Note_on_c, 11, 62, 38
14, 56159, Note_on_c, 11, 62, 0
14, 56160, Note_on_c, 11, 69, 32
14, 56279, Note_on_c, 11, 69, 0
14, 56340, Note_on_c, 11, 62, 32
14, 56369, Note_on_c, 11, 62, 0
14, 56370, Note_on_c, 11, 66, 32
14, 56399, Note_on_c, 11, 66, 0
14, 56400, Note_on_c, 11, 69, 32
14, 56519, Note_on_c, 11, 69, 0
14, 56580, Note_on_c, 11, 62, 32
14, 56609, Note_on_c, 11, 62, 0
14, 56610, Note_on_c, 11, 66, 32
14, 56639, Note_on_c, 11, 66, 0
14, 56640, Note_on_c, 11, 69, 32
14, 56759, Note_on_c, 11, 69, 0
14, 56820, Note_on_c, 11, 62, 32
14, 56849, Note_on_c, 11, 62, 0
14, 56850, Note_on_c, 11, 67, 32
14, 56879, Note_on_c, 11, 67, 0
14, 56880, Note_on_c, 11, 71, 32
14, 56999, Note_on_c, 11, 71, 0
14, 59100, Control_c, 11, 11, 120
14, 59160, Control_c, 11, 11, 121
14, 59160, Note_on_c, 11, 74, 56
14, 59220, Control_c, 11, 11, 122
14, 59280, Control_c, 11, 11, 123
14, 59340, Control_c, 11, 11, 124
14, 59400, Control_c, 11, 11, 125
14, 59460, Control_c, 11, 11, 126
14, 59519, Note_on_c, 11, 74, 0
14, 59520, Note_on_c, 11, 62, 56
14, 59520, Control_c, 11, 11, 127
14, 59639, Note_on_c, 11, 62, 0
14, 61305, Control_c, 11, 11, 116
14, 61320, Note_on_c, 11, 83, 56
14, 61350, Control_c, 11, 11, 117
14, 61395, Control_c, 11, 11, 118
14, 61440, Control_c, 11, 11, 119
14, 61485, Control_c, 11, 11, 120
14, 61530, Control_c, 11, 11, 121
14, 61575, Control_c, 11, 11, 122
14, 61620, Control_c, 11, 11, 123
14, 61665, Control_c, 11, 11, 124
14, 61679, Note_on_c, 11, 83, 0
14, 61680, Note_on_c, 11, 81, 56
14, 61710, Control_c, 11, 11, 125
14, 61755, Control_c, 11, 11, 126
14, 61791, Note_on_c, 11, 81, 0
14, 61800, Note_on_c, 11, 81, 56
14, 61800, Control_c, 11, 11, 127
14, 61919, Note_on_c, 11, 81, 0
14, 62160, Control_c, 11, 11, 89
14, 62610, Control_c, 11, 11, 82
14, 62640, Note_on_c, 11, 79, 56
14, 62700, Control_c, 11, 11, 81
14, 62759, Note_on_c, 11, 79, 0
14, 62760, Note_on_c, 11, 71, 56
14, 62790, Control_c, 11, 11, 80
14, 62879, Note_on_c, 11, 71, 0
14, 62880, Note_on_c, 11, 74, 56
14, 62991, Note_on_c, 11, 74, 0
14, 62998, Control_c, 11, 11, 79
14, 63000, Note_on_c, 11, 86, 56
14, 63000, Control_c, 11, 11, 79
14, 63043, Control_c, 11, 11, 80
14, 63085, Control_c, 11, 11, 81
14, 63128, Control_c, 11, 11, 82
14, 63170, Control_c, 11, 11, 83
14, 63213, Control_c, 11, 11, 84
14, 63239, Note_on_c, 11, 86, 0
14, 63240, Note_on_c, 11, 84, 56
14, 63255, Control_c, 11, 11, 85
14, 63298, Control_c, 11, 11, 86
14, 63340, Control_c, 11, 11, 87
14, 63351, Note_on_c, 11, 84, 0
14, 63360, Note_on_c, 11, 83, 56
14, 63383, Control_c, 11, 11, 88
14, 63425, Control_c, 11, 11, 89
14, 63464, Note_on_c, 11, 83, 0
14, 63468, Control_c, 11, 11, 90
14, 63480, Note_on_c, 11, 81, 56
14, 63510, Control_c, 11, 11, 91
14, 63553, Control_c, 11, 11, 92
14, 63569, Note_on_c, 11, 81, 0
14, 63595, Control_c, 11, 11, 93
14, 63638, Control_c, 11, 11, 94
14, 63680, Control_c, 11, 11, 95
14, 63720, Note_on_c, 11, 86, 56
14, 63723, Control_c, 11, 11, 96
14, 63765, Control_c, 11, 11, 97
14, 63808, Control_c, 11, 11, 98
14, 63850, Control_c, 11, 11, 99
14, 63893, Control_c, 11, 11, 100
14, 63935, Control_c, 11, 11, 101
14, 63959, Note_on_c, 11, 86, 0
14, 63960, Note_on_c, 11, 83, 56
14, 63978, Control_c, 11, 11, 102
14, 64020, Control_c, 11, 11, 103
14, 64063, Control_c, 11, 11, 104
14, 64071, Note_on_c, 11, 83, 0
14, 64080, Note_on_c, 11, 81, 56
14, 64105, Control_c, 11, 11, 105
14, 64148, Control_c, 11, 11, 106
14, 64184, Note_on_c, 11, 81, 0
14, 64190, Control_c, 11, 11, 107
14, 64200, Note_on_c, 11, 79, 56
14, 64233, Control_c, 11, 11, 108
14, 64275, Control_c, 11, 11, 109
14, 64289, Note_on_c, 11, 79, 0
14, 64318, Control_c, 11, 11, 110
14, 64360, Control_c, 11, 11, 111
14, 64403, Control_c, 11, 11, 112
14, 64440, Note_on_c, 11, 74, 56
14, 64445, Control_c, 11, 11, 113
14, 64488, Control_c, 11, 11, 114
14, 64530, Control_c, 11, 11, 115
14, 64573, Control_c, 11, 11, 116
14, 64615, Control_c, 11, 11, 117
14, 64658, Control_c, 11, 11, 118
14, 64679, Note_on_c, 11, 74, 0
14, 64680, Note_on_c, 11, 72, 56
14, 64700, Control_c, 11, 11, 119
14, 64743, Control_c, 11, 11, 120
14, 64785, Control_c, 11, 11, 121
14, 64791, Note_on_c, 11, 72, 0
14, 64800, Note_on_c, 11, 84, 56
14, 64828, Control_c, 11, 11, 122
14, 64870, Control_c, 11, 11, 123
14, 64904, Note_on_c, 11, 84, 0
14, 64913, Control_c, 11, 11, 124
14, 64920, Note_on_c, 11, 84, 56
14, 64955, Control_c, 11, 11, 125
14, 64998, Control_c, 11, 11, 126
14, 65009, Note_on_c, 11, 84, 0
14, 65040, Control_c, 11, 11, 127
14, 65160, Note_on_c, 11, 74, 56
14, 65399, Note_on_c, 11, 74, 0
14, 65400, Note_on_c, 11, 71, 56
14, 65400, Control_c, 11, 11, 127
14, 65430, Control_c, 11, 11, 124
14, 65460, Control_c, 11, 11, 121
14, 65490, Control_c, 11, 11, 117
14, 65511, Note_on_c, 11, 71, 0
14, 65520, Note_on_c, 11, 79, 56
14, 65520, Control_c, 11, 11, 115
14, 65550, Control_c, 11, 11, 111
14, 65580, Control_c, 11, 11, 109
14, 65610, Control_c, 11, 11, 105
14, 65624, Note_on_c, 11, 79, 0
14, 65640, Note_on_c, 11, 79, 56
14, 65640, Control_c, 11, 11, 101
14, 65670, Control_c, 11, 11, 99
14, 65700, Control_c, 11, 11, 95
14, 65729, Note_on_c, 11, 79, 0
14, 65730, Control_c, 11, 11, 92
14, 65878, Control_c, 11, 11, 67
14, 65880, Note_on_c, 11, 86, 68
14, 66119, Note_on_c, 11, 86, 0
14, 66120, Note_on_c, 11, 84, 68
14, 66120, Control_c, 11, 11, 67
14, 66143, Control_c, 11, 11, 68
14, 66165, Control_c, 11, 11, 70
14, 66188, Control_c, 11, 11, 71
14, 66210, Control_c, 11, 11, 72
14, 66231, Note_on_c, 11, 84, 0
14, 66233, Control_c, 11, 11, 73
14, 66240, Note_on_c, 11, 83, 68
14, 66255, Control_c, 11, 11, 75
14, 66278, Control_c, 11, 11, 76
14, 66300, Control_c, 11, 11, 77
14, 66323, Control_c, 11, 11, 78
14, 66344, Note_on_c, 11, 83, 0
14, 66345, Control_c, 11, 11, 80
14, 66360, Note_on_c, 11, 81, 68
14, 66368, Control_c, 11, 11, 81
14, 66390, Control_c, 11, 11, 82
14, 66413, Control_c, 11, 11, 83
14, 66435, Control_c, 11, 11, 85
14, 66449, Note_on_c, 11, 81, 0
14, 66458, Control_c, 11, 11, 86
14, 66480, Control_c, 11, 11, 87
14, 66503, Control_c, 11, 11, 88
14, 66525, Control_c, 11, 11, 90
14, 66548, Control_c, 11, 11, 91
14, 66570, Control_c, 11, 11, 92
14, 66593, Control_c, 11, 11, 93
14, 66600, Note_on_c, 11, 86, 68
14, 66615, Control_c, 11, 11, 95
14, 66638, Control_c, 11, 11, 96
14, 66660, Control_c, 11, 11, 97
14, 66683, Control_c, 11, 11, 98
14, 66705, Control_c, 11, 11, 100
14, 66728, Control_c, 11, 11, 101
14, 66750, Control_c, 11, 11, 102
14, 66773, Control_c, 11, 11, 103
14, 66795, Control_c, 11, 11, 105
14, 66818, Control_c, 11, 11, 106
14, 66839, Note_on_c, 11, 86, 0
14, 66840, Note_on_c, 11, 83, 68
14, 66840, Control_c, 11, 11, 107
14, 66863, Control_c, 11, 11, 108
14, 66885, Control_c, 11, 11, 110
14, 66908, Control_c, 11, 11, 111
14, 66930, Control_c, 11, 11, 112
14, 66951, Note_on_c, 11, 83, 0
14, 66953, Control_c, 11, 11, 113
14, 66960, Note_on_c, 11, 81, 68
14, 66975, Control_c, 11, 11, 115
14, 66998, Control_c, 11, 11, 116
14, 67020, Control_c, 11, 11, 117
14, 67043, Control_c, 11, 11, 118
14, 67064, Note_on_c, 11, 81, 0
14, 67065, Control_c, 11, 11, 120
14, 67080, Note_on_c, 11, 79, 68
14, 67088, Control_c, 11, 11, 121
14, 67110, Control_c, 11, 11, 122
14, 67133, Control_c, 11, 11, 123
14, 67155, Control_c, 11, 11, 125
14, 67169, Note_on_c, 11, 79, 0
14, 67178, Control_c, 11, 11, 126
14, 67320, Control_c, 11, 11, 127
14, 67320, Note_on_c, 11, 74, 68
14, 67370, Control_c, 11, 11, 124
14, 67420, Control_c, 11, 11, 121
14, 67470, Control_c, 11, 11, 117
14, 67520, Control_c, 11, 11, 115
14, 67559, Note_on_c, 11, 74, 0
14, 67560, Note_on_c, 11, 72, 68
14, 67570, Control_c, 11, 11, 111
14, 67620, Control_c, 11, 11, 109
14, 67670, Control_c, 11, 11, 105
14, 67671, Note_on_c, 11, 72, 0
14, 67680, Note_on_c, 11, 60, 68
14, 67720, Control_c, 11, 11, 101
14, 67770, Control_c, 11, 11, 99
14, 67799, Note_on_c, 11, 60, 0
14, 67800, Note_on_c, 11, 72, 68
14, 67820, Control_c, 11, 11, 95
14, 67870, Control_c, 11, 11, 92
14, 67919, Note_on_c, 11, 72, 0
14, 67920, Control_c, 11, 11, 89
14, 68040, Control_c, 11, 11, 87
14, 68040, Note_on_c, 11, 72, 68
14, 68160, Control_c, 11, 11, 85
14, 68279, Note_on_c, 11, 72, 0
14, 68280, Control_c, 11, 11, 84
14, 68280, Note_on_c, 11, 66, 68
14, 68391, Note_on_c, 11, 66, 0
14, 68400, Note_on_c, 11, 67, 68
14, 68400, Control_c, 11, 11, 82
14, 68504, Note_on_c, 11, 67, 0
14, 68520, Note_on_c, 11, 71, 68
14, 68520, Control_c, 11, 11, 80
14, 68609, Note_on_c, 11, 71, 0
14, 68640, Control_c, 11, 11, 79
14, 68760, Control_c, 11, 11, 77
14, 68760, Note_on_c, 11, 72, 68
14, 68880, Control_c, 11, 11, 75
14, 68999, Note_on_c, 11, 72, 0
14, 69000, Note_on_c, 11, 66, 68
14, 69000, Control_c, 11, 11, 74
14, 69111, Note_on_c, 11, 66, 0
14, 69120, Note_on_c, 11, 67, 68
14, 69120, Control_c, 11, 11, 72
14, 69224, Note_on_c, 11, 67, 0
14, 69240, Control_c, 11, 11, 70
14, 69240, Note_on_c, 11, 55, 68
14, 69329, Note_on_c, 11, 55, 0
14, 69478, Control_c, 11, 11, 127
14, 69480, Note_on_c, 11, 58, 32
14, 69599, Note_on_c, 11, 58, 0
14, 69600, Note_on_c, 11, 67, 32
14, 69719, Note_on_c, 11, 67, 0
14, 69720, Note_on_c, 11, 63, 32
14, 69839, Note_on_c, 11, 63, 0
14, 69840, Note_on_c, 11, 62, 32
14, 69959, Note_on_c, 11, 62, 0
14, 69960, Note_on_c, 11, 74, 32
14, 70071, Note_on_c, 11, 74, 0
14, 70080, Note_on_c, 11, 75, 32
14, 70319, Note_on_c, 11, 75, 0
14, 72000, Program_c, 11, 45
14, 72360, Note_on_c, 11, 82, 28
14, 72479, Note_on_c, 11, 82, 0
14, 72480, Note_on_c, 11, 82, 28
14, 72599, Note_on_c, 11, 82, 0
14, 74240, Note_on_c, 11, 82, 28
14, 74319, Note_on_c, 11, 82, 0
14, 74320, Note_on_c, 11, 82, 28
14, 74399, Note_on_c, 11, 82, 0
14, 74400, Note_on_c, 11, 82, 28
14, 74639, Note_on_c, 11, 82, 0
14, 77600, Note_on_c, 11, 78, 28
14, 77679, Note_on_c, 11, 78, 0
14, 77680, Note_on_c, 11, 78, 28
14, 77759, Note_on_c, 11, 78, 0
14, 77760, Note_on_c, 11, 78, 28
14, 77999, Note_on_c, 11, 78, 0
14, 78560, Note_on_c, 11, 78, 28
14, 78639, Note_on_c, 11, 78, 0
14, 78640, Note_on_c, 11, 78, 28
14, 78719, Note_on_c, 11, 78, 0
14, 78720, Note_on_c, 11, 78, 28
14, 78959, Note_on_c, 11, 78, 0
14, 79760, Note_on_c, 11, 78, 28
14, 79839, Note_on_c, 11, 78, 0
14, 79840, Note_on_c, 11, 78, 28
14, 79919, Note_on_c, 11, 78, 0
14, 79920, Note_on_c, 11, 78, 28
14, 80159, Note_on_c, 11, 78, 0
14, 80240, Note_on_c, 11, 78, 28
14, 80319, Note_on_c, 11, 78, 0
14, 80320, Note_on_c, 11, 78, 28
14, 80399, Note_on_c, 11, 78, 0
14, 80400, Note_on_c, 11, 78, 28
14, 80639, Note_on_c, 11, 78, 0
14, 80720, Note_on_c, 11, 78, 28
14, 80799, Note_on_c, 11, 78, 0
14, 80800, Note_on_c, 11, 78, 28
14, 80879, Note_on_c, 11, 78, 0
14, 80880, Note_on_c, 11, 78, 28
14, 81119, Note_on_c, 11, 78, 0
14, 81200, Note_on_c, 11, 78, 28
14, 81279, Note_on_c, 11, 78, 0
14, 81280, Note_on_c, 11, 78, 28
14, 81359, Note_on_c, 11, 78, 0
14, 81360, Note_on_c, 11, 78, 28
14, 81599, Note_on_c, 11, 78, 0
14, 82080, Note_on_c, 11, 76, 28
14, 82159, Note_on_c, 11, 76, 0
14, 82160, Note_on_c, 11, 82, 28
14, 82239, Note_on_c, 11, 82, 0
14, 82240, Note_on_c, 11, 85, 28
14, 82319, Note_on_c, 11, 85, 0
14, 84000, Note_on_c, 11, 76, 37
14, 84079, Note_on_c, 11, 76, 0
14, 84080, Note_on_c, 11, 82, 38
14, 84159, Note_on_c, 11, 82, 0
14, 84160, Note_on_c, 11, 85, 40
14, 84239, Note_on_c, 11, 85, 0
14, 84960, Note_on_c, 11, 76, 55
14, 85039, Note_on_c, 11, 76, 0
14, 85040, Note_on_c, 11, 82, 56
14, 85119, Note_on_c, 11, 82, 0
14, 85120, Note_on_c, 11, 85, 58
14, 85199, Note_on_c, 11, 85, 0
14, 85200, Note_on_c, 11, 86, 59
14, 85371, Note_on_c, 11, 86, 0
14, 85378, Program_c, 11, 48
14, 85380, Note_on_c, 11, 62, 38
14, 85409, Note_on_c, 11, 62, 0
14, 85410, Note_on_c, 11, 74, 38
14, 85439, Note_on_c, 11, 74, 0
14, 85440, Note_on_c, 11, 86, 38
14, 85859, Note_on_c, 11, 86, 0
14, 85860, Note_on_c, 11, 84, 38
14, 85919, Note_on_c, 11, 84, 0
14, 85920, Note_on_c, 11, 82, 38
14, 85979, Note_on_c, 11, 82, 0
14, 85980, Note_on_c, 11, 86, 38
14, 86039, Note_on_c, 11, 86, 0
14, 86040, Note_on_c, 11, 84, 38
14, 86099, Note_on_c, 11, 84, 0
14, 86100, Note_on_c, 11, 82, 38
14, 86159, Note_on_c, 11, 82, 0
14, 86160, Note_on_c, 11, 81, 38
14, 86219, Note_on_c, 11, 81, 0
14, 86220, Note_on_c, 11, 84, 38
14, 86279, Note_on_c, 11, 84, 0
14, 86280, Note_on_c, 11, 82, 38
14, 86339, Note_on_c, 11, 82, 0
14, 86340, Note_on_c, 11, 81, 38
14, 86399, Note_on_c, 11, 81, 0
14, 86400, Note_on_c, 11, 82, 38
14, 86459, Note_on_c, 11, 82, 0
14, 86460, Note_on_c, 11, 84, 38
14, 86519, Note_on_c, 11, 84, 0
14, 86520, Note_on_c, 11, 77, 38
14, 86579, Note_on_c, 11, 77, 0
14, 86580, Note_on_c, 11, 81, 38
14, 86639, Note_on_c, 11, 81, 0
14, 86640, Note_on_c, 11, 79, 38
14, 86699, Note_on_c, 11, 79, 0
14, 86700, Note_on_c, 11, 77, 38
14, 86759, Note_on_c, 11, 77, 0
14, 86760, Note_on_c, 11, 79, 38
14, 86819, Note_on_c, 11, 79, 0
14, 86820, Note_on_c, 11, 81, 38
14, 86871, Note_on_c, 11, 81, 0
14, 86880, Note_on_c, 11, 82, 38
14, 86939, Note_on_c, 11, 82, 0
14, 86940, Note_on_c, 11, 84, 38
14, 86999, Note_on_c, 11, 84, 0
14, 87000, Note_on_c, 11, 82, 38
14, 87059, Note_on_c, 11, 82, 0
14, 87060, Note_on_c, 11, 81, 38
14, 87119, Note_on_c, 11, 81, 0
14, 87120, Note_on_c, 11, 82, 38
14, 87179, Note_on_c, 11, 82, 0
14, 87180, Note_on_c, 11, 84, 38
14, 87239, Note_on_c, 11, 84, 0
14, 87240, Note_on_c, 11, 85, 38
14, 87299, Note_on_c, 11, 85, 0
14, 87300, Note_on_c, 11, 86, 38
14, 87359, Note_on_c, 11, 86, 0
14, 87360, Note_on_c, 11, 84, 38
14, 87419, Note_on_c, 11, 84, 0
14, 87420, Note_on_c, 11, 82, 38
14, 87479, Note_on_c, 11, 82, 0
14, 87480, Note_on_c, 11, 81, 38
14, 87539, Note_on_c, 11, 81, 0
14, 87540, Note_on_c, 11, 79, 38
14, 87599, Note_on_c, 11, 79, 0
14, 87600, Note_on_c, 11, 77, 38
14, 87651, Note_on_c, 11, 77, 0
14, 87660, Note_on_c, 11, 64, 38
14, 87719, Note_on_c, 11, 64, 0
14, 87720, Note_on_c, 11, 65, 38
14, 87779, Note_on_c, 11, 65, 0
14, 87780, Note_on_c, 11, 67, 38
14, 87839, Note_on_c, 11, 67, 0
14, 87840, Note_on_c, 11, 69, 38
14, 87899, Note_on_c, 11, 69, 0
14, 87900, Note_on_c, 11, 70, 38
14, 87959, Note_on_c, 11, 70, 0
14, 87960, Note_on_c, 11, 72, 38
14, 88019, Note_on_c, 11, 72, 0
14, 88020, Note_on_c, 11, 74, 38
14, 88079, Note_on_c, 11, 74, 0
14, 88080, Note_on_c, 11, 77, 38
14, 88139, Note_on_c, 11, 77, 0
14, 88140, Note_on_c, 11, 75, 38
14, 88199, Note_on_c, 11, 75, 0
14, 88200, Note_on_c, 11, 74, 38
14, 88259, Note_on_c, 11, 74, 0
14, 88260, Note_on_c, 11, 75, 38
14, 88311, Note_on_c, 11, 75, 0
14, 88320, Note_on_c, 11, 73, 40
14, 88379, Note_on_c, 11, 73, 0
14, 88380, Note_on_c, 11, 74, 40
14, 88439, Note_on_c, 11, 74, 0
14, 88440, Note_on_c, 11, 62, 40
14, 88499, Note_on_c, 11, 62, 0
14, 88500, Note_on_c, 11, 74, 40
14, 88559, Note_on_c, 11, 74, 0
14, 88560, Note_on_c, 11, 75, 44
14, 88619, Note_on_c, 11, 75, 0
14, 88620, Note_on_c, 11, 74, 46
14, 88671, Note_on_c, 11, 74, 0
14, 88680, Note_on_c, 11, 76, 47
14, 88739, Note_on_c, 11, 76, 0
14, 88740, Note_on_c, 11, 77, 49
14, 88799, Note_on_c, 11, 77, 0
14, 88800, Note_on_c, 11, 65, 50
14, 88859, Note_on_c, 11, 65, 0
14, 88860, Note_on_c, 11, 77, 53
14, 88919, Note_on_c, 11, 77, 0
14, 88920, Note_on_c, 11, 79, 55
14, 88979, Note_on_c, 11, 79, 0
14, 88980, Note_on_c, 11, 77, 56
14, 89031, Note_on_c, 11, 77, 0
14, 89040, Note_on_c, 11, 81, 58
14, 89099, Note_on_c, 11, 81, 0
14, 89100, Note_on_c, 11, 82, 61
14, 89151, Note_on_c, 11, 82, 0
14, 89160, Note_on_c, 11, 70, 62
14, 89219, Note_on_c, 11, 70, 0
14, 89220, Note_on_c, 11, 82, 64
14, 89271, Note_on_c, 11, 82, 0
14, 89280, Note_on_c, 11, 70, 65
14, 89339, Note_on_c, 11, 70, 0
14, 89340, Note_on_c, 11, 82, 68
14, 89391, Note_on_c, 11, 82, 0
14, 89400, Note_on_c, 11, 70, 68
14, 89459, Note_on_c, 11, 70, 0
14, 89460, Note_on_c, 11, 82, 65
14, 89511, Note_on_c, 11, 82, 0
14, 89520, Note_on_c, 11, 70, 61
14, 89579, Note_on_c, 11, 70, 0
14, 89580, Note_on_c, 11, 82, 56
14, 89631, Note_on_c, 11, 82, 0
14, 89640, Note_on_c, 11, 72, 53
14, 89699, Note_on_c, 11, 72, 0
14, 89700, Note_on_c, 11, 84, 49
14, 89751, Note_on_c, 11, 84, 0
14, 89760, Note_on_c, 11, 86, 44
14, 89804, Note_on_c, 11, 86, 0
14, 89820, Note_on_c, 11, 69, 46
14, 89879, Note_on_c, 11, 69, 0
14, 89880, Note_on_c, 11, 70, 47
14, 89939, Note_on_c, 11, 70, 0
14, 89940, Note_on_c, 11, 72, 50
14, 89999, Note_on_c, 11, 72, 0
14, 90000, Note_on_c, 11, 74, 52
14, 90059, Note_on_c, 11, 74, 0
14, 90060, Note_on_c, 11, 75, 55
14, 90119, Note_on_c, 11, 75, 0
14, 90120, Note_on_c, 11, 79, 56
14, 90179, Note_on_c, 11, 79, 0
14, 90180, Note_on_c, 11, 77, 59
14, 90239, Note_on_c, 11, 77, 0
14, 90240, Note_on_c, 11, 76, 61
14, 90299, Note_on_c, 11, 76, 0
14, 90300, Note_on_c, 11, 77, 64
14, 90359, Note_on_c, 11, 77, 0
14, 90360, Note_on_c, 11, 75, 65
14, 90419, Note_on_c, 11, 75, 0
14, 90420, Note_on_c, 11, 77, 68
14, 90479, Note_on_c, 11, 77, 0
14, 90480, Note_on_c, 11, 72, 68
14, 90531, Note_on_c, 11, 72, 0
14, 90540, Note_on_c, 11, 77, 67
14, 90599, Note_on_c, 11, 77, 0
14, 90600, Note_on_c, 11, 75, 65
14, 90659, Note_on_c, 11, 75, 0
14, 90660, Note_on_c, 11, 74, 62
14, 90719, Note_on_c, 11, 74, 0
14, 90720, Note_on_c, 11, 72, 61
14, 90779, Note_on_c, 11, 72, 0
14, 90780, Note_on_c, 11, 70, 59
14, 90839, Note_on_c, 11, 70, 0
14, 90840, Note_on_c, 11, 69, 56
14, 90899, Note_on_c, 11, 69, 0
14, 90900, Note_on_c, 11, 67, 55
14, 90959, Note_on_c, 11, 67, 0
14, 90960, Note_on_c, 11, 65, 53
14, 91019, Note_on_c, 11, 65, 0
14, 91020, Note_on_c, 11, 63, 50
14, 91079, Note_on_c, 11, 63, 0
14, 91080, Note_on_c, 11, 62, 49
14, 91139, Note_on_c, 11, 62, 0
14, 91140, Note_on_c, 11, 60, 47
14, 91191, Note_on_c, 11, 60, 0
14, 91200, Note_on_c, 11, 58, 44
14, 91439, Note_on_c, 11, 58, 0
14, 91920, Note_on_c, 11, 65, 44
14, 91979, Note_on_c, 11, 65, 0
14, 91980, Note_on_c, 11, 67, 47
14, 92039, Note_on_c, 11, 67, 0
14, 92040, Note_on_c, 11, 69, 52
14, 92099, Note_on_c, 11, 69, 0
14, 92100, Note_on_c, 11, 70, 56
14, 92159, Note_on_c, 11, 70, 0
14, 92160, Note_on_c, 11, 71, 59
14, 92219, Note_on_c, 11, 71, 0
14, 92220, Note_on_c, 11, 72, 64
14, 92279, Note_on_c, 11, 72, 0
14, 92280, Note_on_c, 11, 71, 68
14, 92339, Note_on_c, 11, 71, 0
14, 92340, Note_on_c, 11, 72, 65
14, 92399, Note_on_c, 11, 72, 0
14, 92400, Note_on_c, 11, 74, 61
14, 92459, Note_on_c, 11, 74, 0
14, 92460, Note_on_c, 11, 72, 56
14, 92519, Note_on_c, 11, 72, 0
14, 92520, Note_on_c, 11, 71, 53
14, 92579, Note_on_c, 11, 71, 0
14, 92580, Note_on_c, 11, 72, 49
14, 92631, Note_on_c, 11, 72, 0
14, 92640, Note_on_c, 11, 72, 44
14, 92879, Note_on_c, 11, 72, 0
14, 92880, Note_on_c, 11, 70, 44
14, 92939, Note_on_c, 11, 70, 0
14, 92940, Note_on_c, 11, 69, 44
14, 92999, Note_on_c, 11, 69, 0
14, 93000, Note_on_c, 11, 72, 44
14, 93059, Note_on_c, 11, 72, 0
14, 93060, Note_on_c, 11, 65, 44
14, 93119, Note_on_c, 11, 65, 0
14, 93120, Note_on_c, 11, 67, 44
14, 93179, Note_on_c, 11, 67, 0
14, 93180, Note_on_c, 11, 65, 44
14, 93239, Note_on_c, 11, 65, 0
14, 93240, Note_on_c, 11, 69, 44
14, 93299, Note_on_c, 11, 69, 0
14, 93300, Note_on_c, 11, 72, 44
14, 93351, Note_on_c, 11, 72, 0
14, 93360, Note_on_c, 11, 72, 44
14, 93599, Note_on_c, 11, 72, 0
14, 93600, Note_on_c, 11, 70, 44
14, 93771, Note_on_c, 11, 70, 0
14, 93780, Note_on_c, 11, 70, 44
14, 93839, Note_on_c, 11, 70, 0
14, 93840, Note_on_c, 11, 69, 44
14, 93899, Note_on_c, 11, 69, 0
14, 93900, Note_on_c, 11, 70, 44
14, 93959, Note_on_c, 11, 70, 0
14, 93960, Note_on_c, 11, 79, 44
14, 94019, Note_on_c, 11, 79, 0
14, 94020, Note_on_c, 11, 77, 44
14, 94139, Note_on_c, 11, 77, 0
14, 94140, Note_on_c, 11, 72, 44
14, 94199, Note_on_c, 11, 72, 0
14, 94200, Note_on_c, 11, 71, 44
14, 94259, Note_on_c, 11, 71, 0
14, 94260, Note_on_c, 11, 72, 44
14, 94319, Note_on_c, 11, 72, 0
14, 94320, Note_on_c, 11, 79, 44
14, 94379, Note_on_c, 11, 79, 0
14, 94380, Note_on_c, 11, 77, 44
14, 94431, Note_on_c, 11, 77, 0
14, 94440, Note_on_c, 11, 77, 44
14, 94499, Note_on_c, 11, 77, 0
14, 94500, Note_on_c, 11, 75, 44
14, 94559, Note_on_c, 11, 75, 0
14, 94560, Note_on_c, 11, 71, 44
14, 94619, Note_on_c, 11, 71, 0
14, 94620, Note_on_c, 11, 72, 44
14, 94679, Note_on_c, 11, 72, 0
14, 94680, Note_on_c, 11, 77, 44
14, 94739, Note_on_c, 11, 77, 0
14, 94740, Note_on_c, 11, 75, 44
14, 94791, Note_on_c, 11, 75, 0
14, 94800, Note_on_c, 11, 77, 44
14, 94859, Note_on_c, 11, 77, 0
14, 94860, Note_on_c, 11, 75, 44
14, 94919, Note_on_c, 11, 75, 0
14, 94920, Note_on_c, 11, 74, 44
14, 94979, Note_on_c, 11, 74, 0
14, 94980, Note_on_c, 11, 75, 44
14, 95039, Note_on_c, 11, 75, 0
14, 95040, Note_on_c, 11, 84, 44
14, 95099, Note_on_c, 11, 84, 0
14, 95100, Note_on_c, 11, 75, 44
14, 95151, Note_on_c, 11, 75, 0
14, 95160, Note_on_c, 11, 75, 44
14, 95219, Note_on_c, 11, 75, 0
14, 95220, Note_on_c, 11, 74, 44
14, 95279, Note_on_c, 11, 74, 0
14, 95280, Note_on_c, 11, 73, 44
14, 95339, Note_on_c, 11, 73, 0
14, 95340, Note_on_c, 11, 74, 44
14, 95399, Note_on_c, 11, 74, 0
14, 95400, Note_on_c, 11, 82, 44
14, 95459, Note_on_c, 11, 82, 0
14, 95460, Note_on_c, 11, 74, 44
14, 95511, Note_on_c, 11, 74, 0
14, 95520, Note_on_c, 11, 74, 44
14, 95579, Note_on_c, 11, 74, 0
14, 95580, Note_on_c, 11, 71, 44
14, 95639, Note_on_c, 11, 71, 0
14, 95640, Note_on_c, 11, 74, 44
14, 95691, Note_on_c, 11, 74, 0
14, 95700, Note_on_c, 11, 72, 44
14, 95759, Note_on_c, 11, 72, 0
14, 95760, Note_on_c, 11, 67, 44
14, 95819, Note_on_c, 11, 67, 0
14, 95820, Note_on_c, 11, 72, 44
14, 95871, Note_on_c, 11, 72, 0
14, 95880, Note_on_c, 11, 71, 44
14, 95939, Note_on_c, 11, 71, 0
14, 95940, Note_on_c, 11, 72, 44
14, 95999, Note_on_c, 11, 72, 0
14, 96000, Note_on_c, 11, 74, 44
14, 96051, Note_on_c, 11, 74, 0
14, 96060, Note_on_c, 11, 72, 44
14, 96119, Note_on_c, 11, 72, 0
14, 96120, Note_on_c, 11, 74, 44
14, 96179, Note_on_c, 11, 74, 0
14, 96180, Note_on_c, 11, 75, 44
14, 96231, Note_on_c, 11, 75, 0
14, 96240, Note_on_c, 11, 73, 44
14, 96299, Note_on_c, 11, 73, 0
14, 96300, Note_on_c, 11, 74, 44
14, 96359, Note_on_c, 11, 74, 0
14, 96360, Note_on_c, 11, 65, 44
14, 96411, Note_on_c, 11, 65, 0
14, 96420, Note_on_c, 11, 74, 44
14, 96479, Note_on_c, 11, 74, 0
14, 96480, Note_on_c, 11, 75, 44
14, 96539, Note_on_c, 11, 75, 0
14, 96540, Note_on_c, 11, 74, 44
14, 96591, Note_on_c, 11, 74, 0
14, 96600, Note_on_c, 11, 71, 44
14, 96659, Note_on_c, 11, 71, 0
14, 96660, Note_on_c, 11, 72, 44
14, 96719, Note_on_c, 11, 72, 0
14, 96720, Note_on_c, 11, 65, 44
14, 96771, Note_on_c, 11, 65, 0
14, 96780, Note_on_c, 11, 72, 44
14, 96839, Note_on_c, 11, 72, 0
14, 96840, Note_on_c, 11, 77, 44
14, 96891, Note_on_c, 11, 77, 0
14, 96900, Note_on_c, 11, 73, 44
14, 96959, Note_on_c, 11, 73, 0
14, 96960, Note_on_c, 11, 77, 44
14, 97011, Note_on_c, 11, 77, 0
14, 97020, Note_on_c, 11, 73, 46
14, 97079, Note_on_c, 11, 73, 0
14, 97080, Note_on_c, 11, 77, 47
14, 97131, Note_on_c, 11, 77, 0
14, 97140, Note_on_c, 11, 73, 50
14, 97199, Note_on_c, 11, 73, 0
14, 97200, Note_on_c, 11, 77, 52
14, 97251, Note_on_c, 11, 77, 0
14, 97260, Note_on_c, 11, 73, 53
14, 97319, Note_on_c, 11, 73, 0
14, 97320, Note_on_c, 11, 77, 56
14, 97371, Note_on_c, 11, 77, 0
14, 97380, Note_on_c, 11, 73, 58
14, 97439, Note_on_c, 11, 73, 0
14, 97440, Note_on_c, 11, 77, 59
14, 97491, Note_on_c, 11, 77, 0
14, 97500, Note_on_c, 11, 73, 62
14, 97559, Note_on_c, 11, 73, 0
14, 97560, Note_on_c, 11, 75, 64
14, 97619, Note_on_c, 11, 75, 0
14, 97620, Note_on_c, 11, 74, 65
14, 97671, Note_on_c, 11, 74, 0
14, 97680, Note_on_c, 11, 74, 68
14, 97739, Note_on_c, 11, 74, 0
14, 97740, Note_on_c, 11, 72, 65
14, 97799, Note_on_c, 11, 72, 0
14, 97800, Note_on_c, 11, 70, 61
14, 97859, Note_on_c, 11, 70, 0
14, 97860, Note_on_c, 11, 69, 56
14, 97919, Note_on_c, 11, 69, 0
14, 97920, Note_on_c, 11, 70, 53
14, 97979, Note_on_c, 11, 70, 0
14, 97980, Note_on_c, 11, 71, 49
14, 98031, Note_on_c, 11, 71, 0
14, 98040, Note_on_c, 11, 72, 44
14, 98279, Note_on_c, 11, 72, 0
14, 99120, Note_on_c, 11, 58, 44
14, 99159, Note_on_c, 11, 58, 0
14, 99160, Note_on_c, 11, 60, 44
14, 99199, Note_on_c, 11, 60, 0
14, 99200, Note_on_c, 11, 62, 44
14, 99239, Note_on_c, 11, 62, 0
14, 99240, Note_on_c, 11, 63, 44
14, 99279, Note_on_c, 11, 63, 0
14, 99280, Note_on_c, 11, 65, 44
14, 99319, Note_on_c, 11, 65, 0
14, 99320, Note_on_c, 11, 67, 44
14, 99359, Note_on_c, 11, 67, 0
14, 99360, Note_on_c, 11, 69, 44
14, 99399, Note_on_c, 11, 69, 0
14, 99400, Note_on_c, 11, 70, 44
14, 99439, Note_on_c, 11, 70, 0
14, 99440, Note_on_c, 11, 72, 44
14, 99479, Note_on_c, 11, 72, 0
14, 99480, Note_on_c, 11, 74, 44
14, 99519, Note_on_c, 11, 74, 0
14, 99520, Note_on_c, 11, 75, 44
14, 99559, Note_on_c, 11, 75, 0
14, 99560, Note_on_c, 11, 76, 44
14, 99599, Note_on_c, 11, 76, 0
14, 99600, Note_on_c, 11, 77, 44
14, 99639, Note_on_c, 11, 77, 0
14, 99640, Note_on_c, 11, 79, 44
14, 99679, Note_on_c, 11, 79, 0
14, 99680, Note_on_c, 11, 81, 44
14, 99719, Note_on_c, 11, 81, 0
14, 99720, Note_on_c, 11, 82, 44
14, 99759, Note_on_c, 11, 82, 0
14, 99760, Note_on_c, 11, 77, 44
14, 99799, Note_on_c, 11, 77, 0
14, 99800, Note_on_c, 11, 74, 44
14, 99835, Note_on_c, 11, 74, 0
14, 99840, Note_on_c, 11, 74, 44
14, 99929, Note_on_c, 11, 74, 0
14, 99930, Note_on_c, 11, 71, 40
14, 99955, Note_on_c, 11, 71, 0
14, 99960, Note_on_c, 11, 74, 44
14, 100049, Note_on_c, 11, 74, 0
14, 100050, Note_on_c, 11, 72, 40
14, 100075, Note_on_c, 11, 72, 0
14, 100080, Note_on_c, 11, 67, 44
14, 100169, Note_on_c, 11, 67, 0
14, 100170, Note_on_c, 11, 72, 40
14, 100195, Note_on_c, 11, 72, 0
14, 100200, Note_on_c, 11, 74, 44
14, 100289, Note_on_c, 11, 74, 0
14, 100290, Note_on_c, 11, 72, 40
14, 100315, Note_on_c, 11, 72, 0
14, 100320, Note_on_c, 11, 65, 44
14, 100409, Note_on_c, 11, 65, 0
14, 100410, Note_on_c, 11, 72, 40
14, 100435, Note_on_c, 11, 72, 0
14, 100440, Note_on_c, 11, 74, 44
14, 100529, Note_on_c, 11, 74, 0
14, 100530, Note_on_c, 11, 72, 40
14, 100555, Note_on_c, 11, 72, 0
14, 100560, Note_on_c, 11, 77, 44
14, 100649, Note_on_c, 11, 77, 0
14, 100650, Note_on_c, 11, 70, 44
14, 100675, Note_on_c, 11, 70, 0
14, 100680, Note_on_c, 11, 71, 44
14, 100739, Note_on_c, 11, 71, 0
14, 100740, Note_on_c, 11, 72, 44
14, 100799, Note_on_c, 11, 72, 0
14, 100800, Note_on_c, 11, 73, 44
14, 100859, Note_on_c, 11, 73, 0
14, 100860, Note_on_c, 11, 74, 44
14, 100919, Note_on_c, 11, 74, 0
14, 100920, Note_on_c, 11, 75, 44
14, 100979, Note_on_c, 11, 75, 0
14, 100980, Note_on_c, 11, 76, 44
14, 101039, Note_on_c, 11, 76, 0
14, 101040, Note_on_c, 11, 77, 44
14, 101099, Note_on_c, 11, 77, 0
14, 101100, Note_on_c, 11, 78, 44
14, 101159, Note_on_c, 11, 78, 0
14, 101160, Note_on_c, 11, 79, 44
14, 101219, Note_on_c, 11, 79, 0
14, 101220, Note_on_c, 11, 77, 44
14, 101271, Note_on_c, 11, 77, 0
14, 101280, Note_on_c, 11, 77, 44
14, 101339, Note_on_c, 11, 77, 0
14, 101340, Note_on_c, 11, 75, 46
14, 101399, Note_on_c, 11, 75, 0
14, 101400, Note_on_c, 11, 87, 47
14, 101459, Note_on_c, 11, 87, 0
14, 101460, Note_on_c, 11, 86, 50
14, 101519, Note_on_c, 11, 86, 0
14, 101520, Note_on_c, 11, 84, 52
14, 101579, Note_on_c, 11, 84, 0
14, 101580, Note_on_c, 11, 82, 53
14, 101631, Note_on_c, 11, 82, 0
14, 101640, Note_on_c, 11, 82, 56
14, 101699, Note_on_c, 11, 82, 0
14, 101700, Note_on_c, 11, 81, 58
14, 101759, Note_on_c, 11, 81, 0
14, 101760, Note_on_c, 11, 79, 59
14, 101819, Note_on_c, 11, 79, 0
14, 101820, Note_on_c, 11, 77, 62
14, 101879, Note_on_c, 11, 77, 0
14, 101880, Note_on_c, 11, 79, 64
14, 101939, Note_on_c, 11, 79, 0
14, 101940, Note_on_c, 11, 75, 65
14, 102051, Note_on_c, 11, 75, 0
14, 102060, Note_on_c, 11, 75, 67
14, 102119, Note_on_c, 11, 75, 0
14, 102120, Note_on_c, 11, 74, 62
14, 102179, Note_on_c, 11, 74, 0
14, 102180, Note_on_c, 11, 75, 58
14, 102239, Note_on_c, 11, 75, 0
14, 102240, Note_on_c, 11, 87, 53
14, 102321, Note_on_c, 11, 87, 0
14, 102330, Note_on_c, 11, 75, 47
14, 102399, Note_on_c, 11, 75, 0
14, 102400, Note_on_c, 11, 74, 44
14, 102439, Note_on_c, 11, 74, 0
14, 102440, Note_on_c, 11, 73, 44
14, 102479, Note_on_c, 11, 73, 0
14, 102480, Note_on_c, 11, 74, 44
14, 102519, Note_on_c, 11, 74, 0
14, 102520, Note_on_c, 11, 70, 44
14, 102559, Note_on_c, 11, 70, 0
14, 102560, Note_on_c, 11, 65, 44
14, 102599, Note_on_c, 11, 65, 0
14, 102600, Note_on_c, 11, 62, 44
14, 102719, Note_on_c, 11, 62, 0
14, 103440, Note_on_c, 11, 57, 44
14, 103559, Note_on_c, 11, 57, 0
14, 103560, Note_on_c, 11, 69, 44
14, 103574, Note_on_c, 11, 69, 0
14, 103575, Note_on_c, 11, 70, 44
14, 103589, Note_on_c, 11, 70, 0
14, 103590, Note_on_c, 11, 69, 44
14, 103604, Note_on_c, 11, 69, 0
14, 103605, Note_on_c, 11, 70, 44
14, 103619, Note_on_c, 11, 70, 0
14, 103620, Note_on_c, 11, 69, 44
14, 103634, Note_on_c, 11, 69, 0
14, 103635, Note_on_c, 11, 70, 44
14, 103649, Note_on_c, 11, 70, 0
14, 103650, Note_on_c, 11, 69, 44
14, 103659, Note_on_c, 11, 69, 0
14, 103660, Note_on_c, 11, 67, 44
14, 103669, Note_on_c, 11, 67, 0
14, 103670, Note_on_c, 11, 69, 44
14, 103679, Note_on_c, 11, 69, 0
14, 103680, Note_on_c, 11, 70, 44
14, 103919, Note_on_c, 11, 70, 0
14, 103920, Note_on_c, 11, 79, 46
14, 104151, Note_on_c, 11, 79, 0
14, 104160, Note_on_c, 11, 55, 49
14, 104199, Note_on_c, 11, 55, 0
14, 104200, Note_on_c, 11, 56, 49
14, 104239, Note_on_c, 11, 56, 0
14, 104240, Note_on_c, 11, 58, 49
14, 104279, Note_on_c, 11, 58, 0
14, 104280, Note_on_c, 11, 60, 50
14, 104319, Note_on_c, 11, 60, 0
14, 104320, Note_on_c, 11, 62, 50
14, 104359, Note_on_c, 11, 62, 0
14, 104360, Note_on_c, 11, 63, 50
14, 104399, Note_on_c, 11, 63, 0
14, 104400, Note_on_c, 11, 65, 52
14, 104439, Note_on_c, 11, 65, 0
14, 104440, Note_on_c, 11, 67, 52
14, 104479, Note_on_c, 11, 67, 0
14, 104480, Note_on_c, 11, 68, 53
14, 104519, Note_on_c, 11, 68, 0
14, 104520, Note_on_c, 11, 69, 53
14, 104559, Note_on_c, 11, 69, 0
14, 104560, Note_on_c, 11, 70, 53
14, 104599, Note_on_c, 11, 70, 0
14, 104600, Note_on_c, 11, 71, 55
14, 104639, Note_on_c, 11, 71, 0
14, 104640, Note_on_c, 11, 72, 55
14, 104679, Note_on_c, 11, 72, 0
14, 104680, Note_on_c, 11, 73, 55
14, 104719, Note_on_c, 11, 73, 0
14, 104720, Note_on_c, 11, 74, 56
14, 104759, Note_on_c, 11, 74, 0
14, 104760, Note_on_c, 11, 75, 56
14, 104799, Note_on_c, 11, 75, 0
14, 104800, Note_on_c, 11, 77, 56
14, 104839, Note_on_c, 11, 77, 0
14, 104840, Note_on_c, 11, 78, 58
14, 104879, Note_on_c, 11, 78, 0
14, 104880, Note_on_c, 11, 79, 58
14, 104919, Note_on_c, 11, 79, 0
14, 104920, Note_on_c, 11, 78, 58
14, 104959, Note_on_c, 11, 78, 0
14, 104960, Note_on_c, 11, 79, 59
14, 104995, Note_on_c, 11, 79, 0
14, 105000, Note_on_c, 11, 70, 59
14, 105039, Note_on_c, 11, 70, 0
14, 105040, Note_on_c, 11, 79, 61
14, 105079, Note_on_c, 11, 79, 0
14, 105080, Note_on_c, 11, 70, 61
14, 105119, Note_on_c, 11, 70, 0
14, 105120, Note_on_c, 11, 79, 61
14, 105159, Note_on_c, 11, 79, 0
14, 105160, Note_on_c, 11, 70, 62
14, 105199, Note_on_c, 11, 70, 0
14, 105200, Note_on_c, 11, 79, 62
14, 105239, Note_on_c, 11, 79, 0
14, 105240, Note_on_c, 11, 70, 62
14, 105279, Note_on_c, 11, 70, 0
14, 105280, Note_on_c, 11, 79, 64
14, 105319, Note_on_c, 11, 79, 0
14, 105320, Note_on_c, 11, 70, 64
14, 105359, Note_on_c, 11, 70, 0
14, 105360, Note_on_c, 11, 81, 64
14, 105399, Note_on_c, 11, 81, 0
14, 105400, Note_on_c, 11, 70, 65
14, 105439, Note_on_c, 11, 70, 0
14, 105440, Note_on_c, 11, 81, 65
14, 105479, Note_on_c, 11, 81, 0
14, 105480, Note_on_c, 11, 70, 65
14, 105519, Note_on_c, 11, 70, 0
14, 105520, Note_on_c, 11, 82, 67
14, 105559, Note_on_c, 11, 82, 0
14, 105560, Note_on_c, 11, 70, 67
14, 105595, Note_on_c, 11, 70, 0
14, 105600, Note_on_c, 11, 81, 68
14, 105639, Note_on_c, 11, 81, 0
14, 105640, Note_on_c, 11, 82, 67
14, 105679, Note_on_c, 11, 82, 0
14, 105680, Note_on_c, 11, 86, 65
14, 105719, Note_on_c, 11, 86, 0
14, 105720, Note_on_c, 11, 84, 64
14, 105759, Note_on_c, 11, 84, 0
14, 105760, Note_on_c, 11, 81, 62
14, 105799, Note_on_c, 11, 81, 0
14, 105800, Note_on_c, 11, 82, 61
14, 105839, Note_on_c, 11, 82, 0
14, 105840, Note_on_c, 11, 86, 59
14, 105879, Note_on_c, 11, 86, 0
14, 105880, Note_on_c, 11, 84, 58
14, 105919, Note_on_c, 11, 84, 0
14, 105920, Note_on_c, 11, 82, 56
14, 105955, Note_on_c, 11, 82, 0
14, 105960, Note_on_c, 11, 81, 55
14, 105999, Note_on_c, 11, 81, 0
14, 106000, Note_on_c, 11, 79, 53
14, 106039, Note_on_c, 11, 79, 0
14, 106040, Note_on_c, 11, 77, 52
14, 106079, Note_on_c, 11, 77, 0
14, 106080, Note_on_c, 11, 82, 50
14, 106119, Note_on_c, 11, 82, 0
14, 106120, Note_on_c, 11, 81, 49
14, 106159, Note_on_c, 11, 81, 0
14, 106160, Note_on_c, 11, 79, 47
14, 106199, Note_on_c, 11, 79, 0
14, 106200, Note_on_c, 11, 77, 44
14, 106239, Note_on_c, 11, 77, 0
14, 106240, Note_on_c, 11, 75, 44
14, 106279, Note_on_c, 11, 75, 0
14, 106280, Note_on_c, 11, 74, 44
14, 106315, Note_on_c, 11, 74, 0
14, 106320, Note_on_c, 11, 77, 44
14, 106359, Note_on_c, 11, 77, 0
14, 106360, Note_on_c, 11, 76, 44
14, 106399, Note_on_c, 11, 76, 0
14, 106400, Note_on_c, 11, 79, 44
14, 106439, Note_on_c, 11, 79, 0
14, 106440, Note_on_c, 11, 77, 44
14, 106479, Note_on_c, 11, 77, 0
14, 106480, Note_on_c, 11, 67, 44
14, 106519, Note_on_c, 11, 67, 0
14, 106520, Note_on_c, 11, 65, 44
14, 106559, Note_on_c, 11, 65, 0
14, 106560, Note_on_c, 11, 74, 44
14, 106599, Note_on_c, 11, 74, 0
14, 106600, Note_on_c, 11, 65, 44
14, 106639, Note_on_c, 11, 65, 0
14, 106640, Note_on_c, 11, 77, 44
14, 106675, Note_on_c, 11, 77, 0
14, 106680, Note_on_c, 11, 65, 44
14, 106719, Note_on_c, 11, 65, 0
14, 106720, Note_on_c, 11, 77, 44
14, 106759, Note_on_c, 11, 77, 0
14, 106760, Note_on_c, 11, 75, 44
14, 106799, Note_on_c, 11, 75, 0
14, 106800, Note_on_c, 11, 74, 44
14, 106839, Note_on_c, 11, 74, 0
14, 106840, Note_on_c, 11, 77, 44
14, 106879, Note_on_c, 11, 77, 0
14, 106880, Note_on_c, 11, 75, 44
14, 106919, Note_on_c, 11, 75, 0
14, 106920, Note_on_c, 11, 74, 44
14, 106959, Note_on_c, 11, 74, 0
14, 106960, Note_on_c, 11, 75, 44
14, 106999, Note_on_c, 11, 75, 0
14, 107000, Note_on_c, 11, 72, 44
14, 107035, Note_on_c, 11, 72, 0
14, 107040, Note_on_c, 11, 71, 44
14, 107079, Note_on_c, 11, 71, 0
14, 107080, Note_on_c, 11, 72, 44
14, 107119, Note_on_c, 11, 72, 0
14, 107120, Note_on_c, 11, 71, 44
14, 107159, Note_on_c, 11, 71, 0
14, 107160, Note_on_c, 11, 72, 44
14, 107199, Note_on_c, 11, 72, 0
14, 107200, Note_on_c, 11, 71, 44
14, 107239, Note_on_c, 11, 71, 0
14, 107240, Note_on_c, 11, 72, 44
14, 107279, Note_on_c, 11, 72, 0
14, 107280, Note_on_c, 11, 71, 44
14, 107319, Note_on_c, 11, 71, 0
14, 107320, Note_on_c, 11, 72, 44
14, 107359, Note_on_c, 11, 72, 0
14, 107360, Note_on_c, 11, 71, 44
14, 107395, Note_on_c, 11, 71, 0
14, 107400, Note_on_c, 11, 72, 44
14, 107429, Note_on_c, 11, 72, 0
14, 107430, Note_on_c, 11, 71, 44
14, 107459, Note_on_c, 11, 71, 0
14, 107460, Note_on_c, 11, 72, 44
14, 107489, Note_on_c, 11, 72, 0
14, 107490, Note_on_c, 11, 71, 44
14, 107519, Note_on_c, 11, 71, 0
14, 107520, Note_on_c, 11, 72, 44
14, 107549, Note_on_c, 11, 72, 0
14, 107550, Note_on_c, 11, 71, 44
14, 107579, Note_on_c, 11, 71, 0
14, 107580, Note_on_c, 11, 72, 44
14, 107609, Note_on_c, 11, 72, 0
14, 107610, Note_on_c, 11, 71, 44
14, 107639, Note_on_c, 11, 71, 0
14, 107640, Note_on_c, 11, 72, 44
14, 107669, Note_on_c, 11, 72, 0
14, 107670, Note_on_c, 11, 73, 44
14, 107699, Note_on_c, 11, 73, 0
14, 107700, Note_on_c, 11, 75, 44
14, 107729, Note_on_c, 11, 75, 0
14, 107730, Note_on_c, 11, 74, 44
14, 107755, Note_on_c, 11, 74, 0
14, 107760, Note_on_c, 11, 72, 44
14, 107879, Note_on_c, 11, 72, 0
14, 107880, Note_on_c, 11, 70, 44
14, 108119, Note_on_c, 11, 70, 0
14, 109380, Note_on_c, 11, 62, 44
14, 109409, Note_on_c, 11, 62, 0
14, 109410, Note_on_c, 11, 65, 44
14, 109439, Note_on_c, 11, 65, 0
14, 109440, Note_on_c, 11, 70, 44
14, 109559, Note_on_c, 11, 70, 0
14, 110820, Note_on_c, 11, 58, 44
14, 110849, Note_on_c, 11, 58, 0
14, 110850, Note_on_c, 11, 62, 44
14, 110879, Note_on_c, 11, 62, 0
14, 110880, Note_on_c, 11, 70, 44
14, 110999, Note_on_c, 11, 70, 0
14, 111300, Note_on_c, 11, 58, 44
14, 111329, Note_on_c, 11, 58, 0
14, 111330, Note_on_c, 11, 67, 44
14, 111359, Note_on_c, 11, 67, 0
14, 111360, Note_on_c, 11, 70, 44
14, 111599, Note_on_c, 11, 70, 0
14, 111660, Note_on_c, 11, 58, 49
14, 111689, Note_on_c, 11, 58, 0
14, 111690, Note_on_c, 11, 67, 49
14, 111719, Note_on_c, 11, 67, 0
14, 111720, Note_on_c, 11, 70, 50
14, 111959, Note_on_c, 11, 70, 0
14, 112020, Note_on_c, 11, 60, 55
14, 112049, Note_on_c, 11, 60, 0
14, 112050, Note_on_c, 11, 67, 55
14, 112079, Note_on_c, 11, 67, 0
14, 112080, Note_on_c, 11, 70, 56
14, 112319, Note_on_c, 11, 70, 0
14, 112380, Note_on_c, 11, 60, 61
14, 112409, Note_on_c, 11, 60, 0
14, 112410, Note_on_c, 11, 67, 61
14, 112439, Note_on_c, 11, 67, 0
14, 112440, Note_on_c, 11, 70, 62
14, 112679, Note_on_c, 11, 70, 0
14, 112740, Note_on_c, 11, 62, 67
14, 112769, Note_on_c, 11, 62, 0
14, 112770, Note_on_c, 11, 65, 67
14, 112799, Note_on_c, 11, 65, 0
14, 112800, Note_on_c, 11, 70, 68
14, 113039, Note_on_c, 11, 70, 0
14, 113100, Note_on_c, 11, 65, 56
14, 113129, Note_on_c, 11, 65, 0
14, 113130, Note_on_c, 11, 70, 56
14, 113159, Note_on_c, 11, 70, 0
14, 113160, Note_on_c, 11, 74, 55
14, 113399, Note_on_c, 11, 74, 0
14, 113460, Note_on_c, 11, 69, 47
14, 113489, Note_on_c, 11, 69, 0
14, 113490, Note_on_c, 11, 72, 46
14, 113519, Note_on_c, 11, 72, 0
14, 113520, Note_on_c, 11, 77, 44
14, 113759, Note_on_c, 11, 77, 0
14, 113820, Note_on_c, 11, 69, 44
14, 113849, Note_on_c, 11, 69, 0
14, 113850, Note_on_c, 11, 72, 44
14, 113879, Note_on_c, 11, 72, 0
14, 113880, Note_on_c, 11, 75, 44
14, 114119, Note_on_c, 11, 75, 0
14, 114180, Note_on_c, 11, 69, 38
14, 114209, Note_on_c, 11, 69, 0
14, 114210, Note_on_c, 11, 72, 38
14, 114239, Note_on_c, 11, 72, 0
14, 114240, Note_on_c, 11, 75, 38
14, 114479, Note_on_c, 11, 75, 0
14, 114540, Note_on_c, 11, 63, 38
14, 114569, Note_on_c, 11, 63, 0
14, 114570, Note_on_c, 11, 69, 38
14, 114599, Note_on_c, 11, 69, 0
14, 114600, Note_on_c, 11, 72, 38
14, 114839, Note_on_c, 11, 72, 0
14, 114900, Note_on_c, 11, 69, 38
14, 114929, Note_on_c, 11, 69, 0
14, 114930, Note_on_c, 11, 72, 38
14, 114959, Note_on_c, 11, 72, 0
14, 114960, Note_on_c, 11, 75, 38
14, 115199, Note_on_c, 11, 75, 0
14, 115260, Note_on_c, 11, 65, 38
14, 115289, Note_on_c, 11, 65, 0
14, 115290, Note_on_c, 11, 70, 38
14, 115319, Note_on_c, 11, 70, 0
14, 115320, Note_on_c, 11, 74, 38
14, 115559, Note_on_c, 11, 74, 0
14, 115620, Note_on_c, 11, 69, 32
14, 115649, Note_on_c, 11, 69, 0
14, 115650, Note_on_c, 11, 72, 32
14, 115679, Note_on_c, 11, 72, 0
14, 115680, Note_on_c, 11, 75, 32
14, 115919, Note_on_c, 11, 75, 0
14, 115980, Note_on_c, 11, 63, 32
14, 116009, Note_on_c, 11, 63, 0
14, 116010, Note_on_c, 11, 69, 32
14, 116039, Note_on_c, 11, 69, 0
14, 116040, Note_on_c, 11, 72, 32
14, 116279, Note_on_c, 11, 72, 0
14, 116340, Note_on_c, 11, 69, 32
14, 116369, Note_on_c, 11, 69, 0
14, 116370, Note_on_c, 11, 72, 32
14, 116399, Note_on_c, 11, 72, 0
14, 116400, Note_on_c, 11, 75, 32
14, 116639, Note_on_c, 11, 75, 0
14, 116700, Note_on_c, 11, 65, 56
14, 116729, Note_on_c, 11, 65, 0
14, 116730, Note_on_c, 11, 69, 58
14, 116759, Note_on_c, 11, 69, 0
14, 116760, Note_on_c, 11, 74, 61
14, 116999, Note_on_c, 11, 74, 0
14, 117480, Note_on_c, 11, 63, 80
14, 117480, Note_on_c, 11, 75, 80
14, 117480, Note_on_c, 11, 55, 80
14, 117719, Note_on_c, 11, 63, 0
14, 117719, Note_on_c, 11, 55, 0
14, 117839, Note_on_c, 11, 75, 0
14, 118200, Note_on_c, 11, 82, 80
14, 118200, Note_on_c, 11, 70, 80
14, 118559, Note_on_c, 11, 82, 0
14, 118559, Note_on_c, 11, 70, 0
14, 119880, Control_c, 11, 11, 127
14, 120000, Note_on_c, 11, 77, 80
14, 120120, Control_c, 11, 11, 126
14, 120240, Control_c, 11, 11, 125
14, 120360, Control_c, 11, 11, 122
14, 120480, Control_c, 11, 11, 121
14, 120600, Control_c, 11, 11, 120
14, 120719, Note_on_c, 11, 77, 0
14, 120720, Note_on_c, 11, 72, 80
14, 120720, Control_c, 11, 11, 119
14, 120840, Control_c, 11, 11, 116
14, 120960, Control_c, 11, 11, 115
14, 121080, Control_c, 11, 11, 114
14, 121200, Control_c, 11, 11, 112
14, 121431, Note_on_c, 11, 72, 0
14, 121438, Control_c, 11, 11, 127
14, 121440, Control_c, 11, 11, 127
14, 121440, Note_on_c, 11, 75, 68
14, 121500, Control_c, 11, 11, 124
14, 121560, Control_c, 11, 11, 121
14, 121620, Control_c, 11, 11, 117
14, 121680, Control_c, 11, 11, 115
14, 121740, Control_c, 11, 11, 111
14, 121800, Control_c, 11, 11, 109
14, 121860, Control_c, 11, 11, 105
14, 121920, Control_c, 11, 11, 101
14, 121980, Control_c, 11, 11, 99
14, 122040, Control_c, 11, 11, 95
14, 122100, Control_c, 11, 11, 92
14, 122159, Note_on_c, 11, 75, 0
14, 122160, Note_on_c, 11, 70, 68
14, 122160, Control_c, 11, 11, 89
14, 122841, Note_on_c, 11, 70, 0
14, 122850, Note_on_c, 11, 74, 68
14, 122879, Note_on_c, 11, 74, 0
14, 122880, Note_on_c, 11, 86, 64
14, 123359, Note_on_c, 11, 86, 0
14, 123360, Note_on_c, 11, 84, 64
14, 123479, Note_on_c, 11, 84, 0
14, 123480, Note_on_c, 11, 82, 64
14, 123569, Note_on_c, 11, 82, 0
14, 123600, Note_on_c, 11, 82, 64
14, 123719, Note_on_c, 11, 82, 0
14, 123720, Note_on_c, 11, 81, 64
14, 123839, Note_on_c, 11, 81, 0
14, 123840, Note_on_c, 11, 84, 64
14, 123951, Note_on_c, 11, 84, 0
14, 123960, Note_on_c, 11, 77, 64
14, 124281, Note_on_c, 11, 77, 0
14, 124290, Note_on_c, 11, 77, 64
14, 124319, Note_on_c, 11, 77, 0
14, 124320, Note_on_c, 11, 86, 64
14, 124739, Note_on_c, 11, 86, 0
14, 124740, Note_on_c, 11, 81, 64
14, 124799, Note_on_c, 11, 81, 0
14, 124800, Note_on_c, 11, 82, 64
14, 124859, Note_on_c, 11, 82, 0
14, 124860, Note_on_c, 11, 81, 64
14, 124919, Note_on_c, 11, 81, 0
14, 124920, Note_on_c, 11, 84, 64
14, 124979, Note_on_c, 11, 84, 0
14, 124980, Note_on_c, 11, 82, 64
14, 125031, Note_on_c, 11, 82, 0
14, 125040, Note_on_c, 11, 82, 64
14, 125099, Note_on_c, 11, 82, 0
14, 125100, Note_on_c, 11, 81, 64
14, 125159, Note_on_c, 11, 81, 0
14, 125160, Note_on_c, 11, 82, 64
14, 125219, Note_on_c, 11, 82, 0
14, 125220, Note_on_c, 11, 83, 64
14, 125279, Note_on_c, 11, 83, 0
14, 125280, Note_on_c, 11, 84, 64
14, 125339, Note_on_c, 11, 84, 0
14, 125340, Note_on_c, 11, 81, 64
14, 125399, Note_on_c, 11, 81, 0
14, 125400, Note_on_c, 11, 79, 64
14, 125459, Note_on_c, 11, 79, 0
14, 125460, Note_on_c, 11, 77, 64
14, 125519, Note_on_c, 11, 77, 0
14, 125520, Note_on_c, 11, 76, 64
14, 125579, Note_on_c, 11, 76, 0
14, 125580, Note_on_c, 11, 77, 64
14, 125639, Note_on_c, 11, 77, 0
14, 125640, Note_on_c, 11, 79, 64
14, 125699, Note_on_c, 11, 79, 0
14, 125700, Note_on_c, 11, 75, 64
14, 125751, Note_on_c, 11, 75, 0
14, 125758, Control_c, 11, 11, 69
14, 125760, Note_on_c, 11, 74, 80
14, 125760, Control_c, 11, 11, 69
14, 125819, Note_on_c, 11, 74, 0
14, 125820, Note_on_c, 11, 77, 80
14, 125853, Control_c, 11, 11, 70
14, 125879, Note_on_c, 11, 77, 0
14, 125880, Note_on_c, 11, 79, 80
14, 125939, Note_on_c, 11, 79, 0
14, 125940, Note_on_c, 11, 77, 80
14, 125946, Control_c, 11, 11, 71
14, 125999, Note_on_c, 11, 77, 0
14, 126000, Note_on_c, 11, 75, 80
14, 126039, Control_c, 11, 11, 72
14, 126059, Note_on_c, 11, 75, 0
14, 126060, Note_on_c, 11, 74, 80
14, 126119, Note_on_c, 11, 74, 0
14, 126120, Note_on_c, 11, 72, 80
14, 126132, Control_c, 11, 11, 73
14, 126179, Note_on_c, 11, 72, 0
14, 126180, Note_on_c, 11, 70, 80
14, 126226, Control_c, 11, 11, 74
14, 126239, Note_on_c, 11, 70, 0
14, 126240, Note_on_c, 11, 69, 80
14, 126299, Note_on_c, 11, 69, 0
14, 126300, Note_on_c, 11, 70, 80
14, 126319, Control_c, 11, 11, 75
14, 126359, Note_on_c, 11, 70, 0
14, 126360, Note_on_c, 11, 72, 80
14, 126412, Control_c, 11, 11, 76
14, 126419, Note_on_c, 11, 72, 0
14, 126420, Note_on_c, 11, 74, 80
14, 126479, Note_on_c, 11, 74, 0
14, 126480, Note_on_c, 11, 75, 80
14, 126505, Control_c, 11, 11, 77
14, 126539, Note_on_c, 11, 75, 0
14, 126540, Note_on_c, 11, 74, 80
14, 126598, Control_c, 11, 11, 78
14, 126599, Note_on_c, 11, 74, 0
14, 126600, Note_on_c, 11, 72, 80
14, 126659, Note_on_c, 11, 72, 0
14, 126660, Note_on_c, 11, 74, 80
14, 126691, Control_c, 11, 11, 79
14, 126719, Note_on_c, 11, 74, 0
14, 126720, Note_on_c, 11, 75, 80
14, 126779, Note_on_c, 11, 75, 0
14, 126780, Note_on_c, 11, 77, 80
14, 126784, Control_c, 11, 11, 80
14, 126839, Note_on_c, 11, 77, 0
14, 126840, Note_on_c, 11, 79, 80
14, 126877, Control_c, 11, 11, 81
14, 126899, Note_on_c, 11, 79, 0
14, 126900, Note_on_c, 11, 77, 80
14, 126959, Note_on_c, 11, 77, 0
14, 126960, Note_on_c, 11, 75, 80
14, 126970, Control_c, 11, 11, 82
14, 127019, Note_on_c, 11, 75, 0
14, 127020, Note_on_c, 11, 77, 80
14, 127063, Control_c, 11, 11, 83
14, 127079, Note_on_c, 11, 77, 0
14, 127080, Note_on_c, 11, 79, 80
14, 127139, Note_on_c, 11, 79, 0
14, 127140, Note_on_c, 11, 81, 80
14, 127157, Control_c, 11, 11, 84
14, 127191, Note_on_c, 11, 81, 0
14, 127200, Note_on_c, 11, 82, 80
14, 127250, Control_c, 11, 11, 85
14, 127259, Note_on_c, 11, 82, 0
14, 127260, Note_on_c, 11, 86, 80
14, 127319, Note_on_c, 11, 86, 0
14, 127320, Note_on_c, 11, 84, 80
14, 127343, Control_c, 11, 11, 86
14, 127379, Note_on_c, 11, 84, 0
14, 127380, Note_on_c, 11, 82, 80
14, 127436, Control_c, 11, 11, 87
14, 127439, Note_on_c, 11, 82, 0
14, 127440, Note_on_c, 11, 81, 80
14, 127499, Note_on_c, 11, 81, 0
14, 127500, Note_on_c, 11, 82, 80
14, 127529, Control_c, 11, 11, 88
14, 127619, Note_on_c, 11, 82, 0
14, 127620, Note_on_c, 11, 81, 80
14, 127622, Control_c, 11, 11, 89
14, 127679, Note_on_c, 11, 81, 0
14, 127680, Note_on_c, 11, 87, 80
14, 127715, Control_c, 11, 11, 90
14, 127739, Note_on_c, 11, 87, 0
14, 127740, Note_on_c, 11, 84, 80
14, 127799, Note_on_c, 11, 84, 0
14, 127800, Note_on_c, 11, 82, 80
14, 127808, Control_c, 11, 11, 91
14, 127859, Note_on_c, 11, 82, 0
14, 127860, Note_on_c, 11, 81, 80
14, 127901, Control_c, 11, 11, 92
14, 127911, Note_on_c, 11, 81, 0
14, 127920, Note_on_c, 11, 84, 80
14, 127979, Note_on_c, 11, 84, 0
14, 127980, Note_on_c, 11, 82, 80
14, 127994, Control_c, 11, 11, 93
14, 128039, Note_on_c, 11, 82, 0
14, 128040, Note_on_c, 11, 86, 80
14, 128088, Control_c, 11, 11, 94
14, 128099, Note_on_c, 11, 86, 0
14, 128100, Note_on_c, 11, 82, 80
14, 128159, Note_on_c, 11, 82, 0
14, 128160, Note_on_c, 11, 81, 80
14, 128181, Control_c, 11, 11, 95
14, 128219, Note_on_c, 11, 81, 0
14, 128220, Note_on_c, 11, 79, 80
14, 128274, Control_c, 11, 11, 96
14, 128339, Note_on_c, 11, 79, 0
14, 128340, Note_on_c, 11, 77, 80
14, 128367, Control_c, 11, 11, 97
14, 128399, Note_on_c, 11, 77, 0
14, 128400, Note_on_c, 11, 79, 80
14, 128459, Note_on_c, 11, 79, 0
14, 128460, Note_on_c, 11, 77, 80
14, 128460, Control_c, 11, 11, 98
14, 128519, Note_on_c, 11, 77, 0
14, 128520, Note_on_c, 11, 79, 80
14, 128553, Control_c, 11, 11, 99
14, 128579, Note_on_c, 11, 79, 0
14, 128580, Note_on_c, 11, 77, 80
14, 128631, Note_on_c, 11, 77, 0
14, 128640, Note_on_c, 11, 79, 80
14, 128646, Control_c, 11, 11, 100
14, 128699, Note_on_c, 11, 79, 0
14, 128700, Note_on_c, 11, 77, 80
14, 128739, Control_c, 11, 11, 101
14, 128759, Note_on_c, 11, 77, 0
14, 128760, Note_on_c, 11, 79, 80
14, 128819, Note_on_c, 11, 79, 0
14, 128820, Note_on_c, 11, 77, 80
14, 128832, Control_c, 11, 11, 102
14, 128879, Note_on_c, 11, 77, 0
14, 128880, Note_on_c, 11, 79, 80
14, 128926, Control_c, 11, 11, 103
14, 128939, Note_on_c, 11, 79, 0
14, 128940, Note_on_c, 11, 77, 80
14, 128999, Note_on_c, 11, 77, 0
14, 129000, Note_on_c, 11, 79, 80
14, 129019, Control_c, 11, 11, 104
14, 129059, Note_on_c, 11, 79, 0
14, 129060, Note_on_c, 11, 77, 80
14, 129112, Control_c, 11, 11, 105
14, 129119, Note_on_c, 11, 77, 0
14, 129120, Note_on_c, 11, 79, 80
14, 129179, Note_on_c, 11, 79, 0
14, 129180, Note_on_c, 11, 77, 80
14, 129205, Control_c, 11, 11, 106
14, 129239, Note_on_c, 11, 77, 0
14, 129240, Note_on_c, 11, 79, 80
14, 129298, Control_c, 11, 11, 107
14, 129299, Note_on_c, 11, 79, 0
14, 129300, Note_on_c, 11, 77, 80
14, 129359, Note_on_c, 11, 77, 0
14, 129360, Note_on_c, 11, 79, 80
14, 129391, Control_c, 11, 11, 108
14, 129419, Note_on_c, 11, 79, 0
14, 129420, Note_on_c, 11, 77, 80
14, 129479, Note_on_c, 11, 77, 0
14, 129480, Note_on_c, 11, 79, 80
14, 129484, Control_c, 11, 11, 109
14, 129539, Note_on_c, 11, 79, 0
14, 129540, Note_on_c, 11, 77, 80
14, 129577, Control_c, 11, 11, 110
14, 129599, Note_on_c, 11, 77, 0
14, 129600, Note_on_c, 11, 79, 80
14, 129659, Note_on_c, 11, 79, 0
14, 129660, Note_on_c, 11, 77, 80
14, 129670, Control_c, 11, 11, 111
14, 129719, Note_on_c, 11, 77, 0
14, 129720, Note_on_c, 11, 79, 80
14, 129763, Control_c, 11, 11, 112
14, 129779, Note_on_c, 11, 79, 0
14, 129780, Note_on_c, 11, 77, 80
14, 129839, Note_on_c, 11, 77, 0
14, 129840, Note_on_c, 11, 79, 80
14, 129857, Control_c, 11, 11, 113
14, 129899, Note_on_c, 11, 79, 0
14, 129900, Note_on_c, 11, 77, 80
14, 129950, Control_c, 11, 11, 114
14, 129959, Note_on_c, 11, 77, 0
14, 129960, Note_on_c, 11, 79, 80
14, 130019, Note_on_c, 11, 79, 0
14, 130020, Note_on_c, 11, 77, 80
14, 130043, Control_c, 11, 11, 115
14, 130071, Note_on_c, 11, 77, 0
14, 130080, Note_on_c, 11, 79, 80
14, 130119, Note_on_c, 11, 79, 0
14, 130120, Note_on_c, 11, 77, 80
14, 130136, Control_c, 11, 11, 116
14, 130159, Note_on_c, 11, 77, 0
14, 130160, Note_on_c, 11, 79, 80
14, 130199, Note_on_c, 11, 79, 0
14, 130200, Note_on_c, 11, 77, 80
14, 130229, Control_c, 11, 11, 117
14, 130239, Note_on_c, 11, 77, 0
14, 130240, Note_on_c, 11, 79, 80
14, 130279, Note_on_c, 11, 79, 0
14, 130280, Note_on_c, 11, 77, 80
14, 130319, Note_on_c, 11, 77, 0
14, 130320, Note_on_c, 11, 79, 80
14, 130322, Control_c, 11, 11, 118
14, 130359, Note_on_c, 11, 79, 0
14, 130360, Note_on_c, 11, 77, 80
14, 130399, Note_on_c, 11, 77, 0
14, 130400, Note_on_c, 11, 79, 80
14, 130415, Control_c, 11, 11, 119
14, 130439, Note_on_c, 11, 79, 0
14, 130440, Note_on_c, 11, 77, 80
14, 130479, Note_on_c, 11, 77, 0
14, 130480, Note_on_c, 11, 79, 80
14, 130508, Control_c, 11, 11, 120
14, 130519, Note_on_c, 11, 79, 0
14, 130520, Note_on_c, 11, 77, 80
14, 130559, Note_on_c, 11, 77, 0
14, 130560, Note_on_c, 11, 79, 80
14, 130599, Note_on_c, 11, 79, 0
14, 130600, Note_on_c, 11, 77, 80
14, 130601, Control_c, 11, 11, 121
14, 130639, Note_on_c, 11, 77, 0
14, 130640, Note_on_c, 11, 79, 80
14, 130679, Note_on_c, 11, 79, 0
14, 130680, Note_on_c, 11, 77, 80
14, 130694, Control_c, 11, 11, 122
14, 130719, Note_on_c, 11, 77, 0
14, 130720, Note_on_c, 11, 79, 80
14, 130759, Note_on_c, 11, 79, 0
14, 130760, Note_on_c, 11, 77, 80
14, 130788, Control_c, 11, 11, 123
14, 130799, Note_on_c, 11, 77, 0
14, 130800, Note_on_c, 11, 79, 80
14, 130839, Note_on_c, 11, 79, 0
14, 130840, Note_on_c, 11, 77, 80
14, 130879, Note_on_c, 11, 77, 0
14, 130880, Note_on_c, 11, 79, 80
14, 130881, Control_c, 11, 11, 124
14, 130919, Note_on_c, 11, 79, 0
14, 130920, Note_on_c, 11, 77, 80
14, 130959, Note_on_c, 11, 77, 0
14, 130960, Note_on_c, 11, 79, 80
14, 130974, Control_c, 11, 11, 125
14, 130999, Note_on_c, 11, 79, 0
14, 131000, Note_on_c, 11, 77, 80
14, 131039, Note_on_c, 11, 77, 0
14, 131040, Note_on_c, 11, 79, 80
14, 131067, Control_c, 11, 11, 127
14, 131069, Note_on_c, 11, 79, 0
14, 131070, Note_on_c, 11, 77, 80
14, 131099, Note_on_c, 11, 77, 0
14, 131100, Note_on_c, 11, 79, 80
14, 131129, Note_on_c, 11, 79, 0
14, 131130, Note_on_c, 11, 77, 80
14, 131155, Note_on_c, 11, 77, 0
14, 131160, Note_on_c, 11, 82, 80
14, 131174, Note_on_c, 11, 82, 0
14, 131175, Note_on_c, 11, 84, 80
14, 131189, Note_on_c, 11, 84, 0
14, 131190, Note_on_c, 11, 82, 80
14, 131204, Note_on_c, 11, 82, 0
14, 131205, Note_on_c, 11, 84, 80
14, 131219, Note_on_c, 11, 84, 0
14, 131220, Note_on_c, 11, 82, 80
14, 131234, Note_on_c, 11, 82, 0
14, 131235, Note_on_c, 11, 84, 80
14, 131249, Note_on_c, 11, 84, 0
14, 131250, Note_on_c, 11, 82, 80
14, 131264, Note_on_c, 11, 82, 0
14, 131265, Note_on_c, 11, 84, 80
14, 131279, Note_on_c, 11, 84, 0
14, 131280, Note_on_c, 11, 82, 80
14, 131294, Note_on_c, 11, 82, 0
14, 131295, Note_on_c, 11, 84, 80
14, 131309, Note_on_c, 11, 84, 0
14, 131310, Note_on_c, 11, 82, 80
14, 131324, Note_on_c, 11, 82, 0
14, 131325, Note_on_c, 11, 84, 80
14, 131339, Note_on_c, 11, 84, 0
14, 131340, Note_on_c, 11, 82, 80
14, 131354, Note_on_c, 11, 82, 0
14, 131355, Note_on_c, 11, 84, 80
14, 131369, Note_on_c, 11, 84, 0
14, 131370, Note_on_c, 11, 82, 80
14, 131384, Note_on_c, 11, 82, 0
14, 131385, Note_on_c, 11, 84, 80
14, 131399, Note_on_c, 11, 84, 0
14, 131400, Note_on_c, 11, 82, 80
14, 131414, Note_on_c, 11, 82, 0
14, 131415, Note_on_c, 11, 84, 80
14, 131429, Note_on_c, 11, 84, 0
14, 131430, Note_on_c, 11, 82, 80
14, 131444, Note_on_c, 11, 82, 0
14, 131445, Note_on_c, 11, 84, 80
14, 131459, Note_on_c, 11, 84, 0
14, 131460, Note_on_c, 11, 82, 80
14, 131474, Note_on_c, 11, 82, 0
14, 131475, Note_on_c, 11, 84, 80
14, 131484, Note_on_c, 11, 84, 0
14, 131485, Note_on_c, 11, 82, 60
14, 131494, Note_on_c, 11, 82, 0
14, 131495, Note_on_c, 11, 81, 80
14, 131504, Note_on_c, 11, 81, 0
14, 131505, Note_on_c, 11, 82, 80
14, 131519, Note_on_c, 11, 82, 0
14, 131520, Note_on_c, 11, 79, 80
14, 131639, Note_on_c, 11, 79, 0
14, 131880, Note_on_c, 11, 55, 80
14, 131880, Note_on_c, 11, 75, 80
14, 131880, Note_on_c, 11, 63, 80
14, 132119, Note_on_c, 11, 55, 0
14, 132119, Note_on_c, 11, 63, 0
14, 132239, Note_on_c, 11, 75, 0
14, 132600, Note_on_c, 11, 82, 80
14, 132600, Note_on_c, 11, 70, 80
14, 132959, Note_on_c, 11, 82, 0
14, 132959, Note_on_c, 11, 70, 0
14, 134400, Note_on_c, 11, 77, 80
14, 134400, Control_c, 11, 11, 127
14, 134435, Control_c, 11, 11, 126
14, 134469, Control_c, 11, 11, 125
14, 134504, Control_c, 11, 11, 124
14, 134539, Control_c, 11, 11, 123
14, 134574, Control_c, 11, 11, 122
14, 134608, Control_c, 11, 11, 121
14, 134643, Control_c, 11, 11, 120
14, 134678, Control_c, 11, 11, 119
14, 134713, Control_c, 11, 11, 118
14, 134747, Control_c, 11, 11, 117
14, 134782, Control_c, 11, 11, 116
14, 134817, Control_c, 11, 11, 115
14, 134852, Control_c, 11, 11, 114
14, 134886, Control_c, 11, 11, 113
14, 134921, Control_c, 11, 11, 112
14, 134956, Control_c, 11, 11, 111
14, 134991, Control_c, 11, 11, 110
14, 135025, Control_c, 11, 11, 109
14, 135060, Control_c, 11, 11, 108
14, 135095, Control_c, 11, 11, 107
14, 135129, Control_c, 11, 11, 106
14, 135164, Control_c, 11, 11, 105
14, 135199, Control_c, 11, 11, 104
14, 135234, Control_c, 11, 11, 103
14, 135268, Control_c, 11, 11, 102
14, 135303, Control_c, 11, 11, 101
14, 135338, Control_c, 11, 11, 100
14, 135373, Control_c, 11, 11, 99
14, 135407, Control_c, 11, 11, 98
14, 135442, Control_c, 11, 11, 97
14, 135477, Control_c, 11, 11, 96
14, 135512, Control_c, 11, 11, 95
14, 135546, Control_c, 11, 11, 94
14, 135581, Control_c, 11, 11, 93
14, 135616, Control_c, 11, 11, 92
14, 135651, Control_c, 11, 11, 91
14, 135685, Control_c, 11, 11, 89
14, 135824, Note_on_c, 11, 77, 0
14, 135838, Control_c, 11, 11, 127
14, 135840, Note_on_c, 11, 73, 56
14, 135920, Control_c, 11, 11, 126
14, 136000, Control_c, 11, 11, 125
14, 136080, Control_c, 11, 11, 122
14, 136160, Control_c, 11, 11, 121
14, 136199, Note_on_c, 11, 73, 0
14, 136200, Note_on_c, 11, 72, 56
14, 136240, Control_c, 11, 11, 120
14, 136320, Control_c, 11, 11, 119
14, 136400, Control_c, 11, 11, 116
14, 136480, Control_c, 11, 11, 115
14, 136559, Note_on_c, 11, 72, 0
14, 136560, Control_c, 11, 11, 114
14, 136560, Note_on_c, 11, 71, 56
14, 136640, Control_c, 11, 11, 112
14, 136720, Control_c, 11, 11, 110
14, 136800, Control_c, 11, 11, 109
14, 136919, Note_on_c, 11, 71, 0
14, 136920, Note_on_c, 11, 70, 56
14, 137264, Note_on_c, 11, 70, 0
14, 137278, Control_c, 11, 11, 127
14, 137280, Note_on_c, 11, 78, 44
14, 137434, Control_c, 11, 11, 126
14, 137588, Control_c, 11, 11, 125
14, 137742, Control_c, 11, 11, 124
14, 137898, Control_c, 11, 11, 122
14, 138052, Control_c, 11, 11, 121
14, 138206, Control_c, 11, 11, 120
14, 138711, Note_on_c, 11, 78, 0
14, 138720, Control_c, 11, 11, 119
14, 138720, Note_on_c, 11, 75, 44
14, 138796, Control_c, 11, 11, 117
14, 138870, Control_c, 11, 11, 116
14, 138946, Control_c, 11, 11, 115
14, 139020, Control_c, 11, 11, 114
14, 139096, Control_c, 11, 11, 112
14, 139170, Control_c, 11, 11, 111
14, 139246, Control_c, 11, 11, 110
14, 139431, Note_on_c, 11, 75, 0
14, 139440, Control_c, 11, 11, 109
14, 139440, Note_on_c, 11, 73, 44
14, 139671, Note_on_c, 11, 73, 0
14, 139680, Note_on_c, 11, 70, 44
14, 139800, Control_c, 11, 11, 109
14, 139860, Control_c, 11, 11, 112
14, 139911, Note_on_c, 11, 70, 0
14, 139920, Note_on_c, 11, 72, 44
14, 139920, Control_c, 11, 11, 115
14, 139980, Control_c, 11, 11, 119
14, 140039, Note_on_c, 11, 72, 0
14, 140040, Note_on_c, 11, 73, 44
14, 140040, Control_c, 11, 11, 121
14, 140100, Control_c, 11, 11, 127
14, 140151, Note_on_c, 11, 73, 0
14, 140160, Note_on_c, 11, 74, 38
14, 140639, Note_on_c, 11, 74, 0
14, 140640, Note_on_c, 11, 72, 38
14, 140759, Note_on_c, 11, 72, 0
14, 140760, Note_on_c, 11, 70, 38
14, 140849, Note_on_c, 11, 70, 0
14, 140880, Note_on_c, 11, 70, 38
14, 140999, Note_on_c, 11, 70, 0
14, 141000, Note_on_c, 11, 69, 38
14, 141119, Note_on_c, 11, 69, 0
14, 141120, Note_on_c, 11, 72, 38
14, 141231, Note_on_c, 11, 72, 0
14, 141238, Control_c, 11, 11, 87
14, 141240, Note_on_c, 11, 65, 68
14, 141561, Note_on_c, 11, 65, 0
14, 141570, Note_on_c, 11, 74, 68
14, 141599, Note_on_c, 11, 74, 0
14, 141600, Note_on_c, 11, 86, 68
14, 141600, Control_c, 11, 11, 87
14, 141627, Control_c, 11, 11, 88
14, 141654, Control_c, 11, 11, 89
14, 141681, Control_c, 11, 11, 90
14, 141708, Control_c, 11, 11, 91
14, 141735, Control_c, 11, 11, 92
14, 141762, Control_c, 11, 11, 93
14, 141789, Control_c, 11, 11, 94
14, 141816, Control_c, 11, 11, 95
14, 141843, Control_c, 11, 11, 96
14, 141870, Control_c, 11, 11, 97
14, 141897, Control_c, 11, 11, 98
14, 141924, Control_c, 11, 11, 99
14, 141951, Control_c, 11, 11, 100
14, 141978, Control_c, 11, 11, 101
14, 142005, Control_c, 11, 11, 102
14, 142011, Note_on_c, 11, 86, 0
14, 142020, Note_on_c, 11, 81, 68
14, 142032, Control_c, 11, 11, 103
14, 142059, Control_c, 11, 11, 104
14, 142071, Note_on_c, 11, 81, 0
14, 142080, Note_on_c, 11, 82, 68
14, 142086, Control_c, 11, 11, 105
14, 142113, Control_c, 11, 11, 106
14, 142139, Note_on_c, 11, 82, 0
14, 142140, Note_on_c, 11, 81, 68
14, 142140, Control_c, 11, 11, 107
14, 142167, Control_c, 11, 11, 108
14, 142194, Control_c, 11, 11, 109
14, 142199, Note_on_c, 11, 81, 0
14, 142200, Note_on_c, 11, 84, 68
14, 142221, Control_c, 11, 11, 110
14, 142248, Control_c, 11, 11, 111
14, 142259, Note_on_c, 11, 84, 0
14, 142260, Note_on_c, 11, 82, 68
14, 142275, Control_c, 11, 11, 112
14, 142302, Control_c, 11, 11, 113
14, 142311, Note_on_c, 11, 82, 0
14, 142320, Note_on_c, 11, 82, 68
14, 142329, Control_c, 11, 11, 114
14, 142356, Control_c, 11, 11, 115
14, 142379, Note_on_c, 11, 82, 0
14, 142380, Note_on_c, 11, 81, 68
14, 142383, Control_c, 11, 11, 116
14, 142410, Control_c, 11, 11, 117
14, 142437, Control_c, 11, 11, 118
14, 142439, Note_on_c, 11, 81, 0
14, 142440, Note_on_c, 11, 84, 68
14, 142464, Control_c, 11, 11, 119
14, 142491, Control_c, 11, 11, 120
14, 142499, Note_on_c, 11, 84, 0
14, 142500, Note_on_c, 11, 81, 68
14, 142518, Control_c, 11, 11, 121
14, 142545, Control_c, 11, 11, 122
14, 142559, Note_on_c, 11, 81, 0
14, 142560, Note_on_c, 11, 82, 68
14, 142572, Control_c, 11, 11, 123
14, 142599, Control_c, 11, 11, 124
14, 142619, Note_on_c, 11, 82, 0
14, 142620, Note_on_c, 11, 74, 68
14, 142626, Control_c, 11, 11, 125
14, 142653, Control_c, 11, 11, 127
14, 142671, Note_on_c, 11, 74, 0
14, 142680, Note_on_c, 11, 74, 68
14, 142739, Note_on_c, 11, 74, 0
14, 142740, Note_on_c, 11, 72, 64
14, 142791, Note_on_c, 11, 72, 0
14, 142800, Note_on_c, 11, 72, 60
14, 142859, Note_on_c, 11, 72, 0
14, 142860, Note_on_c, 11, 79, 56
14, 142919, Note_on_c, 11, 79, 0
14, 142920, Note_on_c, 11, 77, 52
14, 142979, Note_on_c, 11, 77, 0
14, 142980, Note_on_c, 11, 69, 48
14, 143031, Note_on_c, 11, 69, 0
14, 143040, Note_on_c, 11, 70, 38
14, 143519, Note_on_c, 11, 70, 0
14, 143520, Note_on_c, 11, 72, 38
14, 143639, Note_on_c, 11, 72, 0
14, 143640, Note_on_c, 11, 74, 38
14, 143751, Note_on_c, 11, 74, 0
14, 143760, Note_on_c, 11, 74, 38
14, 143879, Note_on_c, 11, 74, 0
14, 143880, Note_on_c, 11, 72, 38
14, 144239, Note_on_c, 11, 72, 0
14, 144240, Note_on_c, 11, 69, 38
14, 144351, Note_on_c, 11, 69, 0
14, 144360, Note_on_c, 11, 65, 38
14, 144449, Note_on_c, 11, 65, 0
14, 144540, Note_on_c, 11, 77, 38
14, 144599, Note_on_c, 11, 77, 0
14, 144600, Note_on_c, 11, 79, 38
14, 144659, Note_on_c, 11, 79, 0
14, 144660, Note_on_c, 11, 76, 38
14, 144719, Note_on_c, 11, 76, 0
14, 144720, Note_on_c, 11, 77, 38
14, 144779, Note_on_c, 11, 77, 0
14, 144780, Note_on_c, 11, 74, 38
14, 144831, Note_on_c, 11, 74, 0
14, 144840, Note_on_c, 11, 70, 38
14, 145199, Note_on_c, 11, 70, 0
14, 145260, Note_on_c, 11, 77, 38
14, 145319, Note_on_c, 11, 77, 0
14, 145320, Note_on_c, 11, 79, 38
14, 145379, Note_on_c, 11, 79, 0
14, 145380, Note_on_c, 11, 76, 38
14, 145439, Note_on_c, 11, 76, 0
14, 145440, Note_on_c, 11, 77, 38
14, 145499, Note_on_c, 11, 77, 0
14, 145500, Note_on_c, 11, 75, 38
14, 145551, Note_on_c, 11, 75, 0
14, 145560, Note_on_c, 11, 72, 38
14, 145604, Note_on_c, 11, 72, 0
14, 145620, Note_on_c, 11, 64, 38
14, 145679, Note_on_c, 11, 64, 0
14, 145680, Note_on_c, 11, 65, 38
14, 145739, Note_on_c, 11, 65, 0
14, 145740, Note_on_c, 11, 67, 38
14, 145799, Note_on_c, 11, 67, 0
14, 145800, Note_on_c, 11, 69, 38
14, 145859, Note_on_c, 11, 69, 0
14, 145860, Note_on_c, 11, 70, 38
14, 145911, Note_on_c, 11, 70, 0
14, 145918, Control_c, 11, 11, 89
14, 145920, Note_on_c, 11, 72, 68
14, 145920, Control_c, 11, 11, 89
14, 146639, Note_on_c, 11, 72, 0
14, 146640, Note_on_c, 11, 70, 68
14, 146640, Control_c, 11, 11, 89
14, 146760, Control_c, 11, 11, 90
14, 146880, Control_c, 11, 11, 91
14, 147000, Control_c, 11, 11, 92
14, 147120, Control_c, 11, 11, 93
14, 147239, Note_on_c, 11, 70, 0
14, 147240, Control_c, 11, 11, 94
14, 147240, Note_on_c, 11, 77, 68
14, 147351, Note_on_c, 11, 77, 0
14, 147360, Note_on_c, 11, 77, 68
14, 147360, Control_c, 11, 11, 95
14, 147480, Control_c, 11, 11, 96
14, 147600, Control_c, 11, 11, 97
14, 147719, Note_on_c, 11, 77, 0
14, 147720, Note_on_c, 11, 75, 68
14, 147720, Control_c, 11, 11, 98
14, 147840, Control_c, 11, 11, 99
14, 147960, Control_c, 11, 11, 100
14, 148080, Control_c, 11, 11, 101
14, 148200, Control_c, 11, 11, 102
14, 148320, Control_c, 11, 11, 103
14, 148431, Note_on_c, 11, 75, 0
14, 148440, Control_c, 11, 11, 104
14, 148440, Note_on_c, 11, 74, 68
14, 148499, Note_on_c, 11, 74, 0
14, 148500, Note_on_c, 11, 65, 68
14, 148559, Note_on_c, 11, 65, 0
14, 148560, Control_c, 11, 11, 105
14, 148560, Note_on_c, 11, 69, 68
14, 148619, Note_on_c, 11, 69, 0
14, 148620, Note_on_c, 11, 70, 68
14, 148679, Note_on_c, 11, 70, 0
14, 148680, Control_c, 11, 11, 106
14, 148680, Note_on_c, 11, 72, 68
14, 148739, Note_on_c, 11, 72, 0
14, 148740, Note_on_c, 11, 74, 68
14, 148791, Note_on_c, 11, 74, 0
14, 148800, Control_c, 11, 11, 107
14, 148800, Note_on_c, 11, 74, 68
14, 148920, Control_c, 11, 11, 108
14, 149039, Note_on_c, 11, 74, 0
14, 149040, Control_c, 11, 11, 109
14, 149040, Note_on_c, 11, 72, 68
14, 149151, Note_on_c, 11, 72, 0
14, 149160, Note_on_c, 11, 72, 68
14, 149160, Control_c, 11, 11, 110
14, 149219, Note_on_c, 11, 72, 0
14, 149220, Note_on_c, 11, 65, 68
14, 149279, Note_on_c, 11, 65, 0
14, 149280, Control_c, 11, 11, 111
14, 149280, Note_on_c, 11, 67, 68
14, 149339, Note_on_c, 11, 67, 0
14, 149340, Note_on_c, 11, 69, 68
14, 149399, Note_on_c, 11, 69, 0
14, 149400, Control_c, 11, 11, 112
14, 149400, Note_on_c, 11, 70, 68
14, 149459, Note_on_c, 11, 70, 0
14, 149460, Note_on_c, 11, 72, 68
14, 149511, Note_on_c, 11, 72, 0
14, 149520, Note_on_c, 11, 72, 68
14, 149520, Control_c, 11, 11, 113
14, 149640, Control_c, 11, 11, 114
14, 149759, Note_on_c, 11, 72, 0
14, 149760, Control_c, 11, 11, 115
14, 149760, Note_on_c, 11, 70, 68
14, 149880, Control_c, 11, 11, 116
14, 149939, Note_on_c, 11, 70, 0
14, 149940, Note_on_c, 11, 70, 68
14, 149999, Note_on_c, 11, 70, 0
14, 150000, Control_c, 11, 11, 117
14, 150000, Note_on_c, 11, 72, 68
14, 150059, Note_on_c, 11, 72, 0
14, 150060, Note_on_c, 11, 74, 68
14, 150119, Note_on_c, 11, 74, 0
14, 150120, Note_on_c, 11, 75, 68
14, 150120, Control_c, 11, 11, 118
14, 150179, Note_on_c, 11, 75, 0
14, 150180, Note_on_c, 11, 77, 68
14, 150231, Note_on_c, 11, 77, 0
14, 150240, Control_c, 11, 11, 119
14, 150240, Note_on_c, 11, 77, 68
14, 150284, Note_on_c, 11, 77, 0
14, 150300, Note_on_c, 11, 72, 68
14, 150359, Note_on_c, 11, 72, 0
14, 150360, Note_on_c, 11, 79, 68
14, 150360, Control_c, 11, 11, 120
14, 150419, Note_on_c, 11, 79, 0
14, 150420, Note_on_c, 11, 76, 68
14, 150479, Note_on_c, 11, 76, 0
14, 150480, Note_on_c, 11, 79, 68
14, 150480, Control_c, 11, 11, 121
14, 150539, Note_on_c, 11, 79, 0
14, 150540, Note_on_c, 11, 77, 68
14, 150591, Note_on_c, 11, 77, 0
14, 150600, Note_on_c, 11, 71, 68
14, 150600, Control_c, 11, 11, 122
14, 150659, Note_on_c, 11, 71, 0
14, 150660, Note_on_c, 11, 72, 68
14, 150719, Note_on_c, 11, 72, 0
14, 150720, Control_c, 11, 11, 123
14, 150720, Note_on_c, 11, 77, 68
14, 150779, Note_on_c, 11, 77, 0
14, 150780, Note_on_c, 11, 72, 68
14, 150839, Note_on_c, 11, 72, 0
14, 150840, Note_on_c, 11, 77, 68
14, 150840, Control_c, 11, 11, 124
14, 150899, Note_on_c, 11, 77, 0
14, 150900, Note_on_c, 11, 75, 68
14, 150951, Note_on_c, 11, 75, 0
14, 150960, Note_on_c, 11, 84, 68
14, 150960, Control_c, 11, 11, 125
14, 150999, Note_on_c, 11, 84, 0
14, 151000, Note_on_c, 11, 75, 68
14, 151039, Note_on_c, 11, 75, 0
14, 151040, Note_on_c, 11, 84, 68
14, 151079, Note_on_c, 11, 84, 0
14, 151080, Control_c, 11, 11, 126
14, 151080, Note_on_c, 11, 75, 68
14, 151119, Note_on_c, 11, 75, 0
14, 151120, Note_on_c, 11, 84, 68
14, 151159, Note_on_c, 11, 84, 0
14, 151160, Note_on_c, 11, 75, 68
14, 151199, Note_on_c, 11, 75, 0
14, 151200, Note_on_c, 11, 84, 68
14, 151239, Note_on_c, 11, 84, 0
14, 151240, Note_on_c, 11, 75, 68
14, 151279, Note_on_c, 11, 75, 0
14, 151280, Note_on_c, 11, 84, 68
14, 151319, Note_on_c, 11, 84, 0
14, 151320, Note_on_c, 11, 74, 68
14, 151320, Control_c, 11, 11, 127
14, 151359, Note_on_c, 11, 74, 0
14, 151360, Note_on_c, 11, 82, 66
14, 151399, Note_on_c, 11, 82, 0
14, 151400, Note_on_c, 11, 74, 63
14, 151439, Note_on_c, 11, 74, 0
14, 151440, Note_on_c, 11, 82, 60
14, 151479, Note_on_c, 11, 82, 0
14, 151480, Note_on_c, 11, 74, 58
14, 151519, Note_on_c, 11, 74, 0
14, 151520, Note_on_c, 11, 82, 55
14, 151559, Note_on_c, 11, 82, 0
14, 151560, Note_on_c, 11, 74, 52
14, 151599, Note_on_c, 11, 74, 0
14, 151600, Note_on_c, 11, 82, 50
14, 151639, Note_on_c, 11, 82, 0
14, 151640, Note_on_c, 11, 74, 47
14, 151675, Note_on_c, 11, 74, 0
14, 151680, Note_on_c, 11, 72, 44
14, 151919, Note_on_c, 11, 72, 0
14, 152460, Note_on_c, 11, 65, 48
14, 152519, Note_on_c, 11, 65, 0
14, 152520, Note_on_c, 11, 67, 52
14, 152579, Note_on_c, 11, 67, 0
14, 152580, Note_on_c, 11, 69, 56
14, 152639, Note_on_c, 11, 69, 0
14, 152640, Note_on_c, 11, 70, 60
14, 152699, Note_on_c, 11, 70, 0
14, 152700, Note_on_c, 11, 72, 64
14, 152751, Note_on_c, 11, 72, 0
14, 152760, Note_on_c, 11, 74, 68
14, 152819, Note_on_c, 11, 74, 0
14, 152820, Note_on_c, 11, 77, 64
14, 152879, Note_on_c, 11, 77, 0
14, 152880, Note_on_c, 11, 82, 60
14, 152939, Note_on_c, 11, 82, 0
14, 152940, Note_on_c, 11, 77, 56
14, 152991, Note_on_c, 11, 77, 0
14, 153000, Note_on_c, 11, 75, 52
14, 153044, Note_on_c, 11, 75, 0
14, 153060, Note_on_c, 11, 74, 48
14, 153104, Note_on_c, 11, 74, 0
14, 153120, Note_on_c, 11, 72, 44
14, 153359, Note_on_c, 11, 72, 0
14, 153900, Note_on_c, 11, 65, 47
14, 153959, Note_on_c, 11, 65, 0
14, 153960, Note_on_c, 11, 67, 50
14, 154019, Note_on_c, 11, 67, 0
14, 154020, Note_on_c, 11, 69, 53
14, 154079, Note_on_c, 11, 69, 0
14, 154080, Note_on_c, 11, 70, 56
14, 154139, Note_on_c, 11, 70, 0
14, 154140, Note_on_c, 11, 72, 59
14, 154199, Note_on_c, 11, 72, 0
14, 154200, Note_on_c, 11, 74, 62
14, 154239, Note_on_c, 11, 74, 0
14, 154240, Note_on_c, 11, 77, 64
14, 154279, Note_on_c, 11, 77, 0
14, 154280, Note_on_c, 11, 76, 66
14, 154319, Note_on_c, 11, 76, 0
14, 154320, Note_on_c, 11, 77, 68
14, 154359, Note_on_c, 11, 77, 0
14, 154360, Note_on_c, 11, 82, 64
14, 154399, Note_on_c, 11, 82, 0
14, 154400, Note_on_c, 11, 81, 60
14, 154439, Note_on_c, 11, 81, 0
14, 154440, Note_on_c, 11, 82, 56
14, 154479, Note_on_c, 11, 82, 0
14, 154480, Note_on_c, 11, 86, 52
14, 154519, Note_on_c, 11, 86, 0
14, 154520, Note_on_c, 11, 74, 48
14, 154558, Control_c, 11, 11, 49
14, 154559, Note_on_c, 11, 74, 0
14, 154560, Note_on_c, 11, 72, 92
14, 154560, Control_c, 11, 11, 49
14, 154575, Control_c, 11, 11, 52
14, 154590, Control_c, 11, 11, 56
14, 154605, Control_c, 11, 11, 59
14, 154620, Control_c, 11, 11, 62
14, 154635, Control_c, 11, 11, 65
14, 154650, Control_c, 11, 11, 69
14, 154665, Control_c, 11, 11, 72
14, 154680, Control_c, 11, 11, 75
14, 154695, Control_c, 11, 11, 78
14, 154710, Control_c, 11, 11, 82
14, 154725, Control_c, 11, 11, 85
14, 154740, Control_c, 11, 11, 88
14, 154755, Control_c, 11, 11, 91
14, 154770, Control_c, 11, 11, 95
14, 154785, Control_c, 11, 11, 98
14, 154799, Note_on_c, 11, 72, 0
14, 154800, Control_c, 11, 11, 101
14, 154815, Control_c, 11, 11, 104
14, 154830, Control_c, 11, 11, 108
14, 154845, Control_c, 11, 11, 111
14, 154860, Note_on_c, 11, 69, 92
14, 154860, Control_c, 11, 11, 114
14, 154875, Control_c, 11, 11, 117
14, 154889, Note_on_c, 11, 69, 0
14, 154890, Note_on_c, 11, 72, 92
14, 154890, Control_c, 11, 11, 121
14, 154905, Control_c, 11, 11, 124
14, 154919, Note_on_c, 11, 72, 0
14, 154920, Note_on_c, 11, 75, 92
14, 154920, Control_c, 11, 11, 127
14, 155280, Control_c, 11, 11, 127
14, 155298, Control_c, 11, 11, 126
14, 155317, Control_c, 11, 11, 125
14, 155335, Control_c, 11, 11, 124
14, 155354, Control_c, 11, 11, 123
14, 155372, Control_c, 11, 11, 122
14, 155391, Control_c, 11, 11, 121
14, 155399, Note_on_c, 11, 75, 0
14, 155400, Note_on_c, 11, 72, 92
14, 155409, Control_c, 11, 11, 120
14, 155428, Control_c, 11, 11, 119
14, 155446, Control_c, 11, 11, 118
14, 155465, Control_c, 11, 11, 117
14, 155483, Control_c, 11, 11, 116
14, 155502, Control_c, 11, 11, 115
14, 155519, Note_on_c, 11, 72, 0
14, 155520, Note_on_c, 11, 69, 92
14, 155520, Control_c, 11, 11, 114
14, 155538, Control_c, 11, 11, 113
14, 155557, Control_c, 11, 11, 112
14, 155575, Control_c, 11, 11, 111
14, 155594, Control_c, 11, 11, 110
14, 155612, Control_c, 11, 11, 109
14, 155631, Note_on_c, 11, 69, 0
14, 155631, Control_c, 11, 11, 108
14, 155640, Note_on_c, 11, 81, 92
14, 155649, Control_c, 11, 11, 107
14, 155668, Control_c, 11, 11, 106
14, 155686, Control_c, 11, 11, 105
14, 155705, Control_c, 11, 11, 104
14, 155723, Control_c, 11, 11, 103
14, 155742, Control_c, 11, 11, 102
14, 155759, Note_on_c, 11, 81, 0
14, 155760, Note_on_c, 11, 75, 92
14, 155760, Control_c, 11, 11, 101
14, 155778, Control_c, 11, 11, 100
14, 155797, Control_c, 11, 11, 99
14, 155815, Control_c, 11, 11, 98
14, 155834, Control_c, 11, 11, 97
14, 155852, Control_c, 11, 11, 96
14, 155871, Control_c, 11, 11, 95
14, 155879, Note_on_c, 11, 75, 0
14, 155880, Note_on_c, 11, 72, 92
14, 155889, Control_c, 11, 11, 94
14, 155908, Control_c, 11, 11, 93
14, 155926, Control_c, 11, 11, 92
14, 155945, Control_c, 11, 11, 91
14, 155963, Control_c, 11, 11, 90
14, 155982, Control_c, 11, 11, 89
14, 155991, Note_on_c, 11, 72, 0
14, 156000, Control_c, 11, 11, 88
14, 156000, Note_on_c, 11, 84, 92
14, 156018, Control_c, 11, 11, 87
14, 156037, Control_c, 11, 11, 86
14, 156055, Control_c, 11, 11, 85
14, 156074, Control_c, 11, 11, 84
14, 156092, Control_c, 11, 11, 83
14, 156111, Control_c, 11, 11, 82
14, 156119, Note_on_c, 11, 84, 0
14, 156120, Note_on_c, 11, 81, 92
14, 156129, Control_c, 11, 11, 81
14, 156148, Control_c, 11, 11, 80
14, 156166, Control_c, 11, 11, 79
14, 156185, Control_c, 11, 11, 78
14, 156203, Control_c, 11, 11, 77
14, 156222, Control_c, 11, 11, 76
14, 156239, Note_on_c, 11, 81, 0
14, 156240, Control_c, 11, 11, 75
14, 156240, Note_on_c, 11, 75, 92
14, 156258, Control_c, 11, 11, 74
14, 156277, Control_c, 11, 11, 73
14, 156295, Control_c, 11, 11, 72
14, 156314, Control_c, 11, 11, 71
14, 156332, Control_c, 11, 11, 70
14, 156351, Control_c, 11, 11, 69
14, 156359, Note_on_c, 11, 75, 0
14, 156360, Note_on_c, 11, 87, 92
14, 156369, Control_c, 11, 11, 68
14, 156388, Control_c, 11, 11, 67
14, 156406, Control_c, 11, 11, 66
14, 156425, Control_c, 11, 11, 65
14, 156443, Control_c, 11, 11, 64
14, 156462, Control_c, 11, 11, 63
14, 156479, Note_on_c, 11, 87, 0
14, 156480, Note_on_c, 11, 84, 92
14, 156480, Control_c, 11, 11, 62
14, 156498, Control_c, 11, 11, 61
14, 156517, Control_c, 11, 11, 60
14, 156535, Control_c, 11, 11, 59
14, 156554, Control_c, 11, 11, 58
14, 156572, Control_c, 11, 11, 57
14, 156591, Control_c, 11, 11, 56
14, 156599, Note_on_c, 11, 84, 0
14, 156600, Note_on_c, 11, 81, 92
14, 156609, Control_c, 11, 11, 55
14, 156628, Control_c, 11, 11, 54
14, 156646, Control_c, 11, 11, 53
14, 156665, Control_c, 11, 11, 52
14, 156683, Control_c, 11, 11, 51
14, 156702, Control_c, 11, 11, 49
14, 156719, Note_on_c, 11, 81, 0
14, 156720, Note_on_c, 11, 75, 92
14, 156839, Note_on_c, 11, 75, 0
14, 156840, Note_on_c, 11, 72, 92
14, 156959, Note_on_c, 11, 72, 0
14, 156960, Note_on_c, 11, 69, 92
14, 157079, Note_on_c, 11, 69, 0
14, 157080, Note_on_c, 11, 65, 92
14, 157199, Note_on_c, 11, 65, 0
14, 157200, Note_on_c, 11, 67, 92
14, 157319, Note_on_c, 11, 67, 0
14, 157320, Note_on_c, 11, 63, 92
14, 157431, Note_on_c, 11, 63, 0
14, 157438, Control_c, 11, 11, 69
14, 157440, Note_on_c, 11, 62, 80
14, 157440, Control_c, 11, 11, 69
14, 157488, Control_c, 11, 11, 70
14, 157535, Control_c, 11, 11, 71
14, 157583, Control_c, 11, 11, 72
14, 157630, Control_c, 11, 11, 73
14, 157678, Control_c, 11, 11, 74
14, 157726, Control_c, 11, 11, 75
14, 157773, Control_c, 11, 11, 76
14, 157791, Note_on_c, 11, 62, 0
14, 157800, Note_on_c, 11, 67, 80
14, 157821, Control_c, 11, 11, 77
14, 157868, Control_c, 11, 11, 78
14, 157916, Control_c, 11, 11, 79
14, 157963, Control_c, 11, 11, 80
14, 158011, Control_c, 11, 11, 81
14, 158059, Control_c, 11, 11, 82
14, 158099, Note_on_c, 11, 67, 0
14, 158100, Note_on_c, 11, 65, 80
14, 158106, Control_c, 11, 11, 83
14, 158154, Control_c, 11, 11, 84
14, 158159, Note_on_c, 11, 65, 0
14, 158160, Note_on_c, 11, 65, 80
14, 158201, Control_c, 11, 11, 85
14, 158249, Control_c, 11, 11, 86
14, 158297, Control_c, 11, 11, 87
14, 158344, Control_c, 11, 11, 88
14, 158392, Control_c, 11, 11, 89
14, 158439, Control_c, 11, 11, 90
14, 158487, Control_c, 11, 11, 91
14, 158534, Control_c, 11, 11, 92
14, 158579, Note_on_c, 11, 65, 0
14, 158580, Note_on_c, 11, 63, 80
14, 158582, Control_c, 11, 11, 93
14, 158630, Control_c, 11, 11, 94
14, 158639, Note_on_c, 11, 63, 0
14, 158640, Note_on_c, 11, 62, 80
14, 158677, Control_c, 11, 11, 95
14, 158699, Note_on_c, 11, 62, 0
14, 158700, Note_on_c, 11, 63, 80
14, 158725, Control_c, 11, 11, 96
14, 158759, Note_on_c, 11, 63, 0
14, 158760, Note_on_c, 11, 65, 80
14, 158772, Control_c, 11, 11, 97
14, 158819, Note_on_c, 11, 65, 0
14, 158820, Control_c, 11, 11, 98
14, 158820, Note_on_c, 11, 63, 80
14, 158868, Control_c, 11, 11, 99
14, 158871, Note_on_c, 11, 63, 0
14, 158880, Note_on_c, 11, 62, 80
14, 158915, Control_c, 11, 11, 100
14, 158963, Control_c, 11, 11, 101
14, 159010, Control_c, 11, 11, 102
14, 159058, Control_c, 11, 11, 103
14, 159106, Control_c, 11, 11, 104
14, 159153, Control_c, 11, 11, 105
14, 159201, Control_c, 11, 11, 106
14, 159231, Note_on_c, 11, 62, 0
14, 159240, Note_on_c, 11, 79, 80
14, 159248, Control_c, 11, 11, 107
14, 159296, Control_c, 11, 11, 108
14, 159343, Control_c, 11, 11, 109
14, 159391, Control_c, 11, 11, 110
14, 159439, Control_c, 11, 11, 111
14, 159486, Control_c, 11, 11, 112
14, 159534, Control_c, 11, 11, 113
14, 159539, Note_on_c, 11, 79, 0
14, 159540, Note_on_c, 11, 77, 80
14, 159581, Control_c, 11, 11, 114
14, 159591, Note_on_c, 11, 77, 0
14, 159600, Note_on_c, 11, 77, 80
14, 159629, Control_c, 11, 11, 115
14, 159677, Control_c, 11, 11, 116
14, 159724, Control_c, 11, 11, 117
14, 159772, Control_c, 11, 11, 118
14, 159819, Control_c, 11, 11, 119
14, 159839, Note_on_c, 11, 77, 0
14, 159840, Note_on_c, 11, 82, 80
14, 159867, Control_c, 11, 11, 120
14, 159914, Control_c, 11, 11, 121
14, 159962, Control_c, 11, 11, 122
14, 160010, Control_c, 11, 11, 123
14, 160057, Control_c, 11, 11, 124
14, 160071, Note_on_c, 11, 82, 0
14, 160080, Note_on_c, 11, 81, 80
14, 160105, Control_c, 11, 11, 125
14, 160139, Note_on_c, 11, 81, 0
14, 160140, Note_on_c, 11, 82, 80
14, 160152, Control_c, 11, 11, 127
14, 160199, Note_on_c, 11, 82, 0
14, 160200, Note_on_c, 11, 84, 80
14, 160259, Note_on_c, 11, 84, 0
14, 160260, Note_on_c, 11, 86, 80
14, 160311, Note_on_c, 11, 86, 0
14, 160320, Note_on_c, 11, 87, 80
14, 160359, Note_on_c, 11, 87, 0
14, 160360, Note_on_c, 11, 81, 78
14, 160399, Note_on_c, 11, 81, 0
14, 160400, Note_on_c, 11, 82, 76
14, 160439, Note_on_c, 11, 82, 0
14, 160440, Note_on_c, 11, 84, 74
14, 160479, Note_on_c, 11, 84, 0
14, 160480, Note_on_c, 11, 75, 72
14, 160519, Note_on_c, 11, 75, 0
14, 160520, Note_on_c, 11, 77, 70
14, 160559, Note_on_c, 11, 77, 0
14, 160560, Note_on_c, 11, 79, 68
14, 160599, Note_on_c, 11, 79, 0
14, 160600, Note_on_c, 11, 72, 66
14, 160639, Note_on_c, 11, 72, 0
14, 160640, Note_on_c, 11, 74, 64
14, 160679, Note_on_c, 11, 74, 0
14, 160680, Note_on_c, 11, 75, 62
14, 160719, Note_on_c, 11, 75, 0
14, 160720, Note_on_c, 11, 72, 60
14, 160759, Note_on_c, 11, 72, 0
14, 160760, Note_on_c, 11, 70, 58
14, 160799, Note_on_c, 11, 70, 0
14, 160800, Note_on_c, 11, 69, 56
14, 160839, Note_on_c, 11, 69, 0
14, 160840, Note_on_c, 11, 67, 54
14, 160879, Note_on_c, 11, 67, 0
14, 160880, Note_on_c, 11, 65, 52
14, 160919, Note_on_c, 11, 65, 0
14, 160920, Note_on_c, 11, 63, 50
14, 160959, Note_on_c, 11, 63, 0
14, 160960, Note_on_c, 11, 62, 48
14, 160999, Note_on_c, 11, 62, 0
14, 161000, Note_on_c, 11, 60, 46
14, 161035, Note_on_c, 11, 60, 0
14, 161040, Note_on_c, 11, 58, 44
14, 161279, Note_on_c, 11, 58, 0
14, 163080, Note_on_c, 11, 63, 32
14, 163319, Note_on_c, 11, 63, 0
14, 163320, Note_on_c, 11, 62, 32
14, 163439, Note_on_c, 11, 62, 0
14, 163800, Note_on_c, 11, 63, 32
14, 164039, Note_on_c, 11, 63, 0
14, 164040, Note_on_c, 11, 62, 32
14, 164151, Note_on_c, 11, 62, 0
14, 164160, Note_on_c, 11, 63, 32
14, 164399, Note_on_c, 11, 63, 0
14, 164400, Note_on_c, 11, 62, 32
14, 164511, Note_on_c, 11, 62, 0
14, 164520, Note_on_c, 11, 63, 32
14, 164631, Note_on_c, 11, 63, 0
14, 164638, Control_c, 11, 11, 49
14, 164640, Control_c, 11, 11, 49
14, 164640, Note_on_c, 11, 65, 80
14, 164658, Control_c, 11, 11, 50
14, 164677, Control_c, 11, 11, 51
14, 164695, Control_c, 11, 11, 52
14, 164714, Control_c, 11, 11, 53
14, 164732, Control_c, 11, 11, 54
14, 164751, Control_c, 11, 11, 55
14, 164769, Control_c, 11, 11, 56
14, 164788, Control_c, 11, 11, 57
14, 164806, Control_c, 11, 11, 58
14, 164825, Control_c, 11, 11, 59
14, 164843, Control_c, 11, 11, 60
14, 164862, Control_c, 11, 11, 61
14, 164880, Control_c, 11, 11, 62
14, 164898, Control_c, 11, 11, 63
14, 164917, Control_c, 11, 11, 64
14, 164935, Control_c, 11, 11, 65
14, 164954, Control_c, 11, 11, 66
14, 164972, Control_c, 11, 11, 67
14, 164991, Control_c, 11, 11, 68
14, 164999, Note_on_c, 11, 65, 0
14, 165000, Note_on_c, 11, 70, 80
14, 165009, Control_c, 11, 11, 69
14, 165028, Control_c, 11, 11, 70
14, 165046, Control_c, 11, 11, 71
14, 165065, Control_c, 11, 11, 72
14, 165083, Control_c, 11, 11, 73
14, 165102, Control_c, 11, 11, 74
14, 165120, Control_c, 11, 11, 75
14, 165138, Control_c, 11, 11, 76
14, 165157, Control_c, 11, 11, 77
14, 165175, Control_c, 11, 11, 78
14, 165194, Control_c, 11, 11, 79
14, 165212, Control_c, 11, 11, 80
14, 165231, Control_c, 11, 11, 81
14, 165249, Control_c, 11, 11, 82
14, 165268, Control_c, 11, 11, 83
14, 165286, Control_c, 11, 11, 84
14, 165305, Control_c, 11, 11, 85
14, 165323, Control_c, 11, 11, 86
14, 165342, Control_c, 11, 11, 87
14, 165359, Note_on_c, 11, 70, 0
14, 165360, Note_on_c, 11, 74, 80
14, 165360, Control_c, 11, 11, 88
14, 165378, Control_c, 11, 11, 89
14, 165397, Control_c, 11, 11, 90
14, 165415, Control_c, 11, 11, 91
14, 165434, Control_c, 11, 11, 92
14, 165452, Control_c, 11, 11, 93
14, 165471, Control_c, 11, 11, 94
14, 165489, Control_c, 11, 11, 95
14, 165508, Control_c, 11, 11, 96
14, 165526, Control_c, 11, 11, 97
14, 165545, Control_c, 11, 11, 98
14, 165563, Control_c, 11, 11, 99
14, 165582, Control_c, 11, 11, 100
14, 165600, Control_c, 11, 11, 101
14, 165618, Control_c, 11, 11, 102
14, 165637, Control_c, 11, 11, 103
14, 165655, Control_c, 11, 11, 104
14, 165674, Control_c, 11, 11, 105
14, 165692, Control_c, 11, 11, 106
14, 165711, Control_c, 11, 11, 107
14, 165719, Note_on_c, 11, 74, 0
14, 165720, Note_on_c, 11, 77, 80
14, 165729, Control_c, 11, 11, 108
14, 165748, Control_c, 11, 11, 109
14, 165766, Control_c, 11, 11, 110
14, 165785, Control_c, 11, 11, 111
14, 165803, Control_c, 11, 11, 112
14, 165822, Control_c, 11, 11, 113
14, 165840, Control_c, 11, 11, 114
14, 165858, Control_c, 11, 11, 115
14, 165877, Control_c, 11, 11, 116
14, 165895, Control_c, 11, 11, 117
14, 165914, Control_c, 11, 11, 118
14, 165932, Control_c, 11, 11, 119
14, 165951, Control_c, 11, 11, 120
14, 165969, Control_c, 11, 11, 121
14, 165988, Control_c, 11, 11, 122
14, 166006, Control_c, 11, 11, 123
14, 166025, Control_c, 11, 11, 124
14, 166043, Control_c, 11, 11, 125
14, 166062, Control_c, 11, 11, 127
14, 166071, Note_on_c, 11, 77, 0
14, 166080, Note_on_c, 11, 82, 80
14, 166080, Note_on_c, 11, 62, 80
14, 166080, Note_on_c, 11, 70, 80
14, 166319, Note_on_c, 11, 82, 0
14, 166319, Note_on_c, 11, 62, 0
14, 166319, Note_on_c, 11, 70, 0
14, 166800, Note_on_c, 11, 77, 80
14, 166830, Control_c, 11, 11, 69
14, 167039, Note_on_c, 11, 77, 0
14, 167400, Control_c, 11, 11, 127
14, 167520, Note_on_c, 11, 75, 44
14, 167759, Note_on_c, 11, 75, 0
14, 167880, Note_on_c, 11, 77, 44
14, 168119, Note_on_c, 11, 77, 0
14, 168240, Note_on_c, 11, 74, 44
14, 168479, Note_on_c, 11, 74, 0
14, 168480, Note_on_c, 11, 86, 44
14, 168659, Note_on_c, 11, 86, 0
14, 168660, Note_on_c, 11, 84, 44
14, 168719, Note_on_c, 11, 84, 0
14, 168720, Note_on_c, 11, 82, 44
14, 168779, Note_on_c, 11, 82, 0
14, 168780, Note_on_c, 11, 81, 44
14, 168839, Note_on_c, 11, 81, 0
14, 168840, Note_on_c, 11, 79, 44
14, 168899, Note_on_c, 11, 79, 0
14, 168900, Note_on_c, 11, 77, 44
14, 168951, Note_on_c, 11, 77, 0
14, 168960, Note_on_c, 11, 75, 44
14, 169199, Note_on_c, 11, 75, 0
14, 169320, Note_on_c, 11, 72, 80
14, 169320, Note_on_c, 11, 65, 80
14, 169320, Note_on_c, 11, 77, 80
14, 169559, Note_on_c, 11, 72, 0
14, 169559, Note_on_c, 11, 65, 0
14, 169559, Note_on_c, 11, 77, 0
14, 169678, Program_c, 11, 45
14, 169680, Note_on_c, 11, 62, 44
14, 169680, Note_on_c, 11, 58, 44
14, 169919, Note_on_c, 11, 62, 0
14, 169919, Note_on_c, 11, 58, 0
14, 170040, Program_c, 11, 48
14, 170040, End_track
15, 0, Start_track
15, 0, Title_t, "Violin II"
15, 0, MIDI_port, 0
15, 0, Program_c, 12, 48
15, 0, Control_c, 12, 121, 0
15, 0, Control_c, 12, 7, 96
15, 0, Control_c, 12, 10, 24
15, 0, Control_c, 12, 11, 89
15, 720, Note_on_c, 12, 57, 68
15, 720, Control_c, 12, 11, 89
15, 780, Control_c, 12, 11, 92
15, 840, Control_c, 12, 11, 95
15, 900, Control_c, 12, 11, 99
15, 960, Control_c, 12, 11, 101
15, 1020, Control_c, 12, 11, 105
15, 1080, Control_c, 12, 11, 109
15, 1140, Control_c, 12, 11, 111
15, 1200, Control_c, 12, 11, 115
15, 1260, Control_c, 12, 11, 117
15, 1320, Control_c, 12, 11, 121
15, 1380, Control_c, 12, 11, 124
15, 1439, Note_on_c, 12, 57, 0
15, 1440, Note_on_c, 12, 57, 68
15, 1440, Control_c, 12, 11, 127
15, 1480, Control_c, 12, 11, 124
15, 1520, Control_c, 12, 11, 121
15, 1560, Control_c, 12, 11, 117
15, 1600, Control_c, 12, 11, 115
15, 1640, Control_c, 12, 11, 111
15, 1680, Control_c, 12, 11, 109
15, 1720, Control_c, 12, 11, 105
15, 1760, Control_c, 12, 11, 101
15, 1799, Note_on_c, 12, 57, 0
15, 1800, Control_c, 12, 11, 99
15, 1800, Note_on_c, 12, 58, 68
15, 1840, Control_c, 12, 11, 95
15, 1880, Control_c, 12, 11, 92
15, 1911, Note_on_c, 12, 58, 0
15, 1918, Control_c, 12, 11, 89
15, 1920, Note_on_c, 12, 62, 68
15, 2399, Note_on_c, 12, 62, 0
15, 2400, Note_on_c, 12, 60, 68
15, 2879, Note_on_c, 12, 60, 0
15, 2880, Note_on_c, 12, 58, 68
15, 3359, Note_on_c, 12, 58, 0
15, 3360, Note_on_c, 12, 60, 68
15, 3831, Note_on_c, 12, 60, 0
15, 3840, Note_on_c, 12, 62, 68
15, 4079, Note_on_c, 12, 62, 0
15, 4080, Note_on_c, 12, 60, 68
15, 4319, Note_on_c, 12, 60, 0
15, 4320, Note_on_c, 12, 58, 68
15, 4559, Note_on_c, 12, 58, 0
15, 4560, Control_c, 12, 11, 89
15, 4560, Note_on_c, 12, 70, 68
15, 4920, Control_c, 12, 11, 89
15, 4960, Control_c, 12, 11, 92
15, 5000, Control_c, 12, 11, 95
15, 5031, Note_on_c, 12, 70, 0
15, 5040, Note_on_c, 12, 62, 68
15, 5040, Note_on_c, 12, 58, 68
15, 5040, Control_c, 12, 11, 99
15, 5080, Control_c, 12, 11, 101
15, 5120, Control_c, 12, 11, 105
15, 5159, Note_on_c, 12, 62, 0
15, 5159, Note_on_c, 12, 58, 0
15, 5160, Note_on_c, 12, 60, 68
15, 5160, Control_c, 12, 11, 109
15, 5200, Control_c, 12, 11, 111
15, 5240, Control_c, 12, 11, 115
15, 5279, Note_on_c, 12, 60, 0
15, 5280, Control_c, 12, 11, 117
15, 5280, Note_on_c, 12, 58, 68
15, 5320, Control_c, 12, 11, 121
15, 5360, Control_c, 12, 11, 124
15, 5399, Note_on_c, 12, 58, 0
15, 5400, Note_on_c, 12, 57, 68
15, 5519, Note_on_c, 12, 57, 0
15, 5520, Note_on_c, 12, 67, 68
15, 5520, Control_c, 12, 11, 127
15, 5560, Control_c, 12, 11, 121
15, 5600, Control_c, 12, 11, 115
15, 5639, Note_on_c, 12, 67, 0
15, 5640, Control_c, 12, 11, 109
15, 5640, Note_on_c, 12, 65, 68
15, 5680, Control_c, 12, 11, 101
15, 5720, Control_c, 12, 11, 89
15, 5751, Note_on_c, 12, 65, 0
15, 5760, Note_on_c, 12, 65, 68
15, 5999, Note_on_c, 12, 65, 0
15, 6240, Control_c, 12, 11, 127
15, 6480, Note_on_c, 12, 57, 44
15, 6719, Note_on_c, 12, 57, 0
15, 6720, Note_on_c, 12, 65, 44
15, 6959, Note_on_c, 12, 65, 0
15, 6960, Note_on_c, 12, 57, 44
15, 7199, Note_on_c, 12, 57, 0
15, 7200, Note_on_c, 12, 65, 44
15, 7439, Note_on_c, 12, 65, 0
15, 7440, Note_on_c, 12, 58, 44
15, 7671, Note_on_c, 12, 58, 0
15, 7680, Note_on_c, 12, 60, 44
15, 7919, Note_on_c, 12, 60, 0
15, 7920, Note_on_c, 12, 72, 44
15, 8159, Note_on_c, 12, 72, 0
15, 8160, Note_on_c, 12, 72, 44
15, 8399, Note_on_c, 12, 72, 0
15, 8400, Note_on_c, 12, 70, 44
15, 8639, Note_on_c, 12, 70, 0
15, 8640, Note_on_c, 12, 70, 44
15, 8879, Note_on_c, 12, 70, 0
15, 8880, Note_on_c, 12, 63, 44
15, 9119, Note_on_c, 12, 63, 0
15, 9120, Note_on_c, 12, 65, 44
15, 9359, Note_on_c, 12, 65, 0
15, 9360, Note_on_c, 12, 69, 44
15, 9591, Note_on_c, 12, 69, 0
15, 9598, Control_c, 12, 11, 89
15, 9600, Note_on_c, 12, 69, 68
15, 9630, Control_c, 12, 11, 92
15, 9660, Control_c, 12, 11, 95
15, 9690, Control_c, 12, 11, 99
15, 9720, Control_c, 12, 11, 101
15, 9750, Control_c, 12, 11, 105
15, 9780, Control_c, 12, 11, 109
15, 9810, Control_c, 12, 11, 111
15, 9840, Control_c, 12, 11, 115
15, 9870, Control_c, 12, 11, 117
15, 9900, Control_c, 12, 11, 121
15, 9930, Control_c, 12, 11, 124
15, 9959, Note_on_c, 12, 69, 0
15, 9960, Note_on_c, 12, 70, 68
15, 9960, Control_c, 12, 11, 127
15, 10020, Control_c, 12, 11, 121
15, 10071, Note_on_c, 12, 70, 0
15, 10080, Note_on_c, 12, 70, 68
15, 10080, Control_c, 12, 11, 115
15, 10140, Control_c, 12, 11, 109
15, 10200, Control_c, 12, 11, 101
15, 10260, Control_c, 12, 11, 95
15, 10318, Control_c, 12, 11, 89
15, 10319, Note_on_c, 12, 70, 0
15, 11280, Note_on_c, 12, 65, 68
15, 11519, Note_on_c, 12, 65, 0
15, 11520, Note_on_c, 12, 67, 68
15, 11759, Note_on_c, 12, 67, 0
15, 11760, Note_on_c, 12, 69, 68
15, 11999, Note_on_c, 12, 69, 0
15, 12000, Note_on_c, 12, 70, 68
15, 12480, Control_c, 12, 11, 89
15, 12510, Control_c, 12, 11, 92
15, 12540, Control_c, 12, 11, 95
15, 12570, Control_c, 12, 11, 99
15, 12600, Control_c, 12, 11, 101
15, 12630, Control_c, 12, 11, 105
15, 12660, Control_c, 12, 11, 109
15, 12690, Control_c, 12, 11, 111
15, 12719, Note_on_c, 12, 70, 0
15, 12720, Note_on_c, 12, 72, 68
15, 12720, Control_c, 12, 11, 115
15, 12750, Control_c, 12, 11, 117
15, 12780, Control_c, 12, 11, 121
15, 12810, Control_c, 12, 11, 124
15, 12840, Control_c, 12, 11, 127
15, 12900, Control_c, 12, 11, 121
15, 12959, Note_on_c, 12, 72, 0
15, 12960, Note_on_c, 12, 69, 68
15, 12960, Control_c, 12, 11, 115
15, 13020, Control_c, 12, 11, 109
15, 13080, Control_c, 12, 11, 101
15, 13140, Control_c, 12, 11, 95
15, 13199, Note_on_c, 12, 69, 0
15, 13200, Control_c, 12, 11, 89
15, 13200, Note_on_c, 12, 70, 68
15, 13439, Note_on_c, 12, 70, 0
15, 13920, Control_c, 12, 11, 127
15, 14040, Note_on_c, 12, 70, 46
15, 14151, Note_on_c, 12, 70, 0
15, 14160, Note_on_c, 12, 67, 48
15, 14160, Note_on_c, 12, 70, 48
15, 14271, Note_on_c, 12, 67, 0
15, 14271, Note_on_c, 12, 70, 0
15, 14280, Note_on_c, 12, 70, 50
15, 14280, Note_on_c, 12, 67, 50
15, 14391, Note_on_c, 12, 70, 0
15, 14391, Note_on_c, 12, 67, 0
15, 14400, Note_on_c, 12, 70, 52
15, 14400, Note_on_c, 12, 67, 52
15, 14511, Note_on_c, 12, 70, 0
15, 14511, Note_on_c, 12, 67, 0
15, 14520, Note_on_c, 12, 70, 54
15, 14520, Note_on_c, 12, 67, 54
15, 14631, Note_on_c, 12, 70, 0
15, 14631, Note_on_c, 12, 67, 0
15, 14640, Note_on_c, 12, 67, 56
15, 14640, Note_on_c, 12, 70, 56
15, 14751, Note_on_c, 12, 67, 0
15, 14751, Note_on_c, 12, 70, 0
15, 14760, Note_on_c, 12, 70, 58
15, 14760, Note_on_c, 12, 67, 58
15, 14871, Note_on_c, 12, 70, 0
15, 14871, Note_on_c, 12, 67, 0
15, 14880, Note_on_c, 12, 70, 60
15, 14880, Note_on_c, 12, 67, 60
15, 14991, Note_on_c, 12, 70, 0
15, 14991, Note_on_c, 12, 67, 0
15, 15000, Note_on_c, 12, 67, 62
15, 15000, Note_on_c, 12, 60, 62
15, 15111, Note_on_c, 12, 67, 0
15, 15111, Note_on_c, 12, 60, 0
15, 15120, Note_on_c, 12, 67, 64
15, 15120, Note_on_c, 12, 60, 64
15, 15231, Note_on_c, 12, 67, 0
15, 15231, Note_on_c, 12, 60, 0
15, 15240, Note_on_c, 12, 60, 66
15, 15240, Note_on_c, 12, 67, 66
15, 15351, Note_on_c, 12, 60, 0
15, 15351, Note_on_c, 12, 67, 0
15, 15360, Note_on_c, 12, 60, 68
15, 15360, Note_on_c, 12, 67, 68
15, 15471, Note_on_c, 12, 60, 0
15, 15471, Note_on_c, 12, 67, 0
15, 15480, Note_on_c, 12, 62, 62
15, 15480, Note_on_c, 12, 65, 62
15, 15591, Note_on_c, 12, 62, 0
15, 15591, Note_on_c, 12, 65, 0
15, 15600, Note_on_c, 12, 65, 56
15, 15600, Note_on_c, 12, 62, 56
15, 15711, Note_on_c, 12, 65, 0
15, 15711, Note_on_c, 12, 62, 0
15, 15720, Note_on_c, 12, 62, 50
15, 15720, Note_on_c, 12, 65, 50
15, 15831, Note_on_c, 12, 62, 0
15, 15831, Note_on_c, 12, 65, 0
15, 15840, Note_on_c, 12, 65, 44
15, 15840, Note_on_c, 12, 62, 44
15, 15951, Note_on_c, 12, 65, 0
15, 15951, Note_on_c, 12, 62, 0
15, 15960, Note_on_c, 12, 70, 44
15, 16079, Note_on_c, 12, 70, 0
15, 16080, Note_on_c, 12, 69, 44
15, 16199, Note_on_c, 12, 69, 0
15, 16200, Note_on_c, 12, 72, 44
15, 16311, Note_on_c, 12, 72, 0
15, 16320, Note_on_c, 12, 63, 44
15, 16679, Note_on_c, 12, 63, 0
15, 16680, Note_on_c, 12, 65, 44
15, 16791, Note_on_c, 12, 65, 0
15, 16800, Note_on_c, 12, 65, 44
15, 16800, Note_on_c, 12, 62, 44
15, 17039, Note_on_c, 12, 65, 0
15, 17039, Note_on_c, 12, 62, 0
15, 17760, Note_on_c, 12, 58, 44
15, 17879, Note_on_c, 12, 58, 0
15, 18720, Note_on_c, 12, 58, 44
15, 18839, Note_on_c, 12, 58, 0
15, 18840, Note_on_c, 12, 58, 44
15, 18840, Note_on_c, 12, 62, 44
15, 18959, Note_on_c, 12, 58, 0
15, 18959, Note_on_c, 12, 62, 0
15, 18960, Note_on_c, 12, 67, 46
15, 18960, Note_on_c, 12, 58, 46
15, 19079, Note_on_c, 12, 67, 0
15, 19079, Note_on_c, 12, 58, 0
15, 19140, Note_on_c, 12, 55, 49
15, 19169, Note_on_c, 12, 55, 0
15, 19170, Note_on_c, 12, 58, 50
15, 19199, Note_on_c, 12, 58, 0
15, 19200, Note_on_c, 12, 63, 50
15, 19319, Note_on_c, 12, 63, 0
15, 19380, Note_on_c, 12, 55, 53
15, 19409, Note_on_c, 12, 55, 0
15, 19410, Note_on_c, 12, 58, 54
15, 19439, Note_on_c, 12, 58, 0
15, 19440, Note_on_c, 12, 63, 54
15, 19559, Note_on_c, 12, 63, 0
15, 19620, Note_on_c, 12, 55, 58
15, 19649, Note_on_c, 12, 55, 0
15, 19650, Note_on_c, 12, 58, 58
15, 19679, Note_on_c, 12, 58, 0
15, 19680, Note_on_c, 12, 60, 59
15, 19799, Note_on_c, 12, 60, 0
15, 19860, Note_on_c, 12, 55, 62
15, 19889, Note_on_c, 12, 55, 0
15, 19890, Note_on_c, 12, 58, 63
15, 19919, Note_on_c, 12, 58, 0
15, 19920, Note_on_c, 12, 60, 63
15, 20039, Note_on_c, 12, 60, 0
15, 20100, Note_on_c, 12, 55, 66
15, 20129, Note_on_c, 12, 55, 0
15, 20130, Note_on_c, 12, 58, 67
15, 20159, Note_on_c, 12, 58, 0
15, 20160, Note_on_c, 12, 60, 68
15, 20219, Note_on_c, 12, 60, 0
15, 20220, Note_on_c, 12, 58, 65
15, 20249, Note_on_c, 12, 58, 0
15, 20250, Note_on_c, 12, 62, 64
15, 20279, Note_on_c, 12, 62, 0
15, 20280, Note_on_c, 12, 58, 62
15, 20339, Note_on_c, 12, 58, 0
15, 20340, Note_on_c, 12, 58, 59
15, 20369, Note_on_c, 12, 58, 0
15, 20370, Note_on_c, 12, 62, 58
15, 20399, Note_on_c, 12, 62, 0
15, 20400, Note_on_c, 12, 58, 56
15, 20519, Note_on_c, 12, 58, 0
15, 20580, Note_on_c, 12, 58, 47
15, 20609, Note_on_c, 12, 58, 0
15, 20610, Note_on_c, 12, 62, 46
15, 20639, Note_on_c, 12, 62, 0
15, 20640, Note_on_c, 12, 58, 44
15, 20759, Note_on_c, 12, 58, 0
15, 20820, Note_on_c, 12, 57, 44
15, 20849, Note_on_c, 12, 57, 0
15, 20850, Note_on_c, 12, 60, 44
15, 20879, Note_on_c, 12, 60, 0
15, 20880, Note_on_c, 12, 57, 44
15, 20999, Note_on_c, 12, 57, 0
15, 21090, Note_on_c, 12, 57, 44
15, 21119, Note_on_c, 12, 57, 0
15, 21120, Note_on_c, 12, 63, 38
15, 21239, Note_on_c, 12, 63, 0
15, 21330, Note_on_c, 12, 57, 38
15, 21359, Note_on_c, 12, 57, 0
15, 21360, Note_on_c, 12, 63, 38
15, 21479, Note_on_c, 12, 63, 0
15, 21570, Note_on_c, 12, 57, 38
15, 21599, Note_on_c, 12, 57, 0
15, 21600, Note_on_c, 12, 63, 38
15, 21719, Note_on_c, 12, 63, 0
15, 21810, Note_on_c, 12, 57, 38
15, 21839, Note_on_c, 12, 57, 0
15, 21840, Note_on_c, 12, 62, 38
15, 21959, Note_on_c, 12, 62, 0
15, 22050, Note_on_c, 12, 57, 38
15, 22079, Note_on_c, 12, 57, 0
15, 22080, Note_on_c, 12, 62, 32
15, 22199, Note_on_c, 12, 62, 0
15, 22290, Note_on_c, 12, 57, 32
15, 22319, Note_on_c, 12, 57, 0
15, 22320, Note_on_c, 12, 62, 32
15, 22439, Note_on_c, 12, 62, 0
15, 22530, Note_on_c, 12, 57, 32
15, 22559, Note_on_c, 12, 57, 0
15, 22560, Note_on_c, 12, 62, 32
15, 22679, Note_on_c, 12, 62, 0
15, 22918, Control_c, 12, 11, 69
15, 22920, Note_on_c, 12, 66, 68
15, 23159, Note_on_c, 12, 66, 0
15, 23160, Note_on_c, 12, 64, 68
15, 23330, Control_c, 12, 11, 74
15, 23391, Note_on_c, 12, 64, 0
15, 23400, Note_on_c, 12, 64, 68
15, 23500, Control_c, 12, 11, 79
15, 23579, Note_on_c, 12, 64, 0
15, 23580, Note_on_c, 12, 66, 68
15, 23639, Note_on_c, 12, 66, 0
15, 23640, Note_on_c, 12, 67, 68
15, 23670, Control_c, 12, 11, 84
15, 23699, Note_on_c, 12, 67, 0
15, 23700, Note_on_c, 12, 64, 68
15, 23751, Note_on_c, 12, 64, 0
15, 23760, Note_on_c, 12, 67, 68
15, 23840, Control_c, 12, 11, 89
15, 23879, Note_on_c, 12, 67, 0
15, 23880, Note_on_c, 12, 66, 68
15, 24010, Control_c, 12, 11, 94
15, 24111, Note_on_c, 12, 66, 0
15, 24120, Note_on_c, 12, 66, 68
15, 24180, Control_c, 12, 11, 99
15, 24299, Note_on_c, 12, 66, 0
15, 24300, Note_on_c, 12, 67, 68
15, 24350, Control_c, 12, 11, 102
15, 24359, Note_on_c, 12, 67, 0
15, 24360, Note_on_c, 12, 69, 68
15, 24419, Note_on_c, 12, 69, 0
15, 24420, Note_on_c, 12, 66, 68
15, 24471, Note_on_c, 12, 66, 0
15, 24480, Note_on_c, 12, 69, 68
15, 24520, Control_c, 12, 11, 107
15, 24599, Note_on_c, 12, 69, 0
15, 24600, Note_on_c, 12, 67, 68
15, 24690, Control_c, 12, 11, 112
15, 24831, Note_on_c, 12, 67, 0
15, 24840, Note_on_c, 12, 69, 68
15, 24860, Control_c, 12, 11, 117
15, 24944, Note_on_c, 12, 69, 0
15, 24960, Note_on_c, 12, 71, 68
15, 25030, Control_c, 12, 11, 122
15, 25064, Note_on_c, 12, 71, 0
15, 25080, Note_on_c, 12, 73, 68
15, 25169, Note_on_c, 12, 73, 0
15, 25200, Note_on_c, 12, 76, 68
15, 25200, Control_c, 12, 11, 127
15, 25319, Note_on_c, 12, 76, 0
15, 25320, Note_on_c, 12, 74, 68
15, 25551, Note_on_c, 12, 74, 0
15, 25560, Control_c, 12, 11, 127
15, 25560, Note_on_c, 12, 74, 68
15, 25590, Control_c, 12, 11, 124
15, 25619, Note_on_c, 12, 74, 0
15, 25620, Note_on_c, 12, 73, 68
15, 25620, Control_c, 12, 11, 121
15, 25650, Control_c, 12, 11, 117
15, 25679, Note_on_c, 12, 73, 0
15, 25680, Control_c, 12, 11, 115
15, 25680, Note_on_c, 12, 71, 68
15, 25710, Control_c, 12, 11, 111
15, 25739, Note_on_c, 12, 71, 0
15, 25740, Note_on_c, 12, 69, 68
15, 25740, Control_c, 12, 11, 109
15, 25770, Control_c, 12, 11, 105
15, 25799, Note_on_c, 12, 69, 0
15, 25800, Control_c, 12, 11, 101
15, 25800, Note_on_c, 12, 67, 68
15, 25830, Control_c, 12, 11, 99
15, 25859, Note_on_c, 12, 67, 0
15, 25860, Control_c, 12, 11, 95
15, 25860, Note_on_c, 12, 66, 68
15, 25890, Control_c, 12, 11, 89
15, 25911, Note_on_c, 12, 66, 0
15, 25920, Note_on_c, 12, 66, 68
15, 26039, Note_on_c, 12, 66, 0
15, 26040, Note_on_c, 12, 64, 68
15, 26040, Control_c, 12, 11, 89
15, 26150, Control_c, 12, 11, 92
15, 26260, Control_c, 12, 11, 95
15, 26271, Note_on_c, 12, 64, 0
15, 26280, Note_on_c, 12, 64, 68
15, 26370, Control_c, 12, 11, 99
15, 26459, Note_on_c, 12, 64, 0
15, 26460, Note_on_c, 12, 66, 68
15, 26480, Control_c, 12, 11, 101
15, 26519, Note_on_c, 12, 66, 0
15, 26520, Note_on_c, 12, 67, 68
15, 26579, Note_on_c, 12, 67, 0
15, 26580, Note_on_c, 12, 64, 68
15, 26590, Control_c, 12, 11, 105
15, 26631, Note_on_c, 12, 64, 0
15, 26640, Note_on_c, 12, 67, 68
15, 26700, Control_c, 12, 11, 109
15, 26759, Note_on_c, 12, 67, 0
15, 26760, Note_on_c, 12, 66, 68
15, 26810, Control_c, 12, 11, 111
15, 26920, Control_c, 12, 11, 115
15, 26991, Note_on_c, 12, 66, 0
15, 27000, Note_on_c, 12, 66, 68
15, 27030, Control_c, 12, 11, 117
15, 27140, Control_c, 12, 11, 121
15, 27179, Note_on_c, 12, 66, 0
15, 27180, Note_on_c, 12, 67, 68
15, 27239, Note_on_c, 12, 67, 0
15, 27240, Note_on_c, 12, 69, 68
15, 27250, Control_c, 12, 11, 124
15, 27299, Note_on_c, 12, 69, 0
15, 27300, Note_on_c, 12, 66, 68
15, 27351, Note_on_c, 12, 66, 0
15, 27360, Control_c, 12, 11, 127
15, 27360, Note_on_c, 12, 69, 68
15, 27479, Note_on_c, 12, 69, 0
15, 27480, Note_on_c, 12, 67, 68
15, 27711, Note_on_c, 12, 67, 0
15, 27720, Control_c, 12, 11, 127
15, 27720, Note_on_c, 12, 71, 68
15, 27750, Control_c, 12, 11, 124
15, 27779, Note_on_c, 12, 71, 0
15, 27780, Note_on_c, 12, 67, 68
15, 27780, Control_c, 12, 11, 121
15, 27810, Control_c, 12, 11, 117
15, 27839, Note_on_c, 12, 67, 0
15, 27840, Note_on_c, 12, 66, 68
15, 27840, Control_c, 12, 11, 115
15, 27870, Control_c, 12, 11, 111
15, 27899, Note_on_c, 12, 66, 0
15, 27900, Note_on_c, 12, 64, 68
15, 27900, Control_c, 12, 11, 109
15, 27930, Control_c, 12, 11, 105
15, 27959, Note_on_c, 12, 64, 0
15, 27960, Control_c, 12, 11, 101
15, 27960, Note_on_c, 12, 62, 68
15, 27990, Control_c, 12, 11, 99
15, 28019, Note_on_c, 12, 62, 0
15, 28020, Note_on_c, 12, 61, 68
15, 28020, Control_c, 12, 11, 95
15, 28050, Control_c, 12, 11, 92
15, 28071, Note_on_c, 12, 61, 0
15, 28080, Note_on_c, 12, 64, 68
15, 28080, Control_c, 12, 11, 89
15, 28140, Control_c, 12, 11, 87
15, 28200, Control_c, 12, 11, 85
15, 28260, Control_c, 12, 11, 84
15, 28320, Control_c, 12, 11, 82
15, 28380, Control_c, 12, 11, 80
15, 28439, Note_on_c, 12, 64, 0
15, 28440, Control_c, 12, 11, 79
15, 28440, Note_on_c, 12, 55, 68
15, 28500, Control_c, 12, 11, 77
15, 28551, Note_on_c, 12, 55, 0
15, 28560, Note_on_c, 12, 66, 68
15, 28560, Control_c, 12, 11, 75
15, 28620, Control_c, 12, 11, 74
15, 28680, Control_c, 12, 11, 72
15, 28740, Control_c, 12, 11, 70
15, 28919, Note_on_c, 12, 66, 0
15, 28920, Control_c, 12, 11, 89
15, 28920, Note_on_c, 12, 64, 68
15, 29090, Control_c, 12, 11, 92
15, 29151, Note_on_c, 12, 64, 0
15, 29160, Note_on_c, 12, 64, 68
15, 29260, Control_c, 12, 11, 95
15, 29339, Note_on_c, 12, 64, 0
15, 29340, Note_on_c, 12, 66, 68
15, 29399, Note_on_c, 12, 66, 0
15, 29400, Note_on_c, 12, 67, 68
15, 29430, Control_c, 12, 11, 99
15, 29459, Note_on_c, 12, 67, 0
15, 29460, Note_on_c, 12, 64, 68
15, 29511, Note_on_c, 12, 64, 0
15, 29520, Note_on_c, 12, 67, 68
15, 29600, Control_c, 12, 11, 101
15, 29639, Note_on_c, 12, 67, 0
15, 29640, Note_on_c, 12, 66, 68
15, 29770, Control_c, 12, 11, 105
15, 29871, Note_on_c, 12, 66, 0
15, 29880, Note_on_c, 12, 66, 68
15, 29940, Control_c, 12, 11, 109
15, 30059, Note_on_c, 12, 66, 0
15, 30060, Note_on_c, 12, 67, 68
15, 30110, Control_c, 12, 11, 111
15, 30119, Note_on_c, 12, 67, 0
15, 30120, Note_on_c, 12, 69, 68
15, 30179, Note_on_c, 12, 69, 0
15, 30180, Note_on_c, 12, 66, 68
15, 30231, Note_on_c, 12, 66, 0
15, 30240, Note_on_c, 12, 69, 68
15, 30280, Control_c, 12, 11, 115
15, 30359, Note_on_c, 12, 69, 0
15, 30360, Note_on_c, 12, 67, 68
15, 30450, Control_c, 12, 11, 117
15, 30591, Note_on_c, 12, 67, 0
15, 30600, Note_on_c, 12, 69, 68
15, 30620, Control_c, 12, 11, 121
15, 30704, Note_on_c, 12, 69, 0
15, 30720, Note_on_c, 12, 71, 68
15, 30790, Control_c, 12, 11, 124
15, 30824, Note_on_c, 12, 71, 0
15, 30840, Note_on_c, 12, 73, 68
15, 30929, Note_on_c, 12, 73, 0
15, 30960, Note_on_c, 12, 76, 68
15, 30960, Control_c, 12, 11, 127
15, 31079, Note_on_c, 12, 76, 0
15, 31080, Note_on_c, 12, 74, 68
15, 31311, Note_on_c, 12, 74, 0
15, 31320, Note_on_c, 12, 74, 68
15, 31320, Control_c, 12, 11, 127
15, 31350, Control_c, 12, 11, 124
15, 31379, Note_on_c, 12, 74, 0
15, 31380, Note_on_c, 12, 73, 68
15, 31380, Control_c, 12, 11, 121
15, 31410, Control_c, 12, 11, 117
15, 31439, Note_on_c, 12, 73, 0
15, 31440, Note_on_c, 12, 71, 68
15, 31440, Control_c, 12, 11, 115
15, 31470, Control_c, 12, 11, 111
15, 31499, Note_on_c, 12, 71, 0
15, 31500, Note_on_c, 12, 69, 68
15, 31500, Control_c, 12, 11, 109
15, 31530, Control_c, 12, 11, 105
15, 31559, Note_on_c, 12, 69, 0
15, 31560, Note_on_c, 12, 67, 68
15, 31560, Control_c, 12, 11, 101
15, 31590, Control_c, 12, 11, 99
15, 31619, Note_on_c, 12, 67, 0
15, 31620, Control_c, 12, 11, 95
15, 31620, Note_on_c, 12, 66, 68
15, 31650, Control_c, 12, 11, 92
15, 31671, Note_on_c, 12, 66, 0
15, 31680, Control_c, 12, 11, 89
15, 31680, Note_on_c, 12, 66, 68
15, 31799, Note_on_c, 12, 66, 0
15, 31800, Control_c, 12, 11, 92
15, 31800, Note_on_c, 12, 64, 68
15, 31920, Control_c, 12, 11, 95
15, 32031, Note_on_c, 12, 64, 0
15, 32040, Control_c, 12, 11, 99
15, 32040, Note_on_c, 12, 64, 68
15, 32160, Control_c, 12, 11, 101
15, 32219, Note_on_c, 12, 64, 0
15, 32220, Note_on_c, 12, 66, 68
15, 32279, Note_on_c, 12, 66, 0
15, 32280, Control_c, 12, 11, 105
15, 32280, Note_on_c, 12, 67, 68
15, 32339, Note_on_c, 12, 67, 0
15, 32340, Note_on_c, 12, 64, 68
15, 32391, Note_on_c, 12, 64, 0
15, 32400, Control_c, 12, 11, 109
15, 32400, Note_on_c, 12, 67, 68
15, 32519, Note_on_c, 12, 67, 0
15, 32520, Note_on_c, 12, 66, 68
15, 32520, Control_c, 12, 11, 111
15, 32640, Control_c, 12, 11, 115
15, 32751, Note_on_c, 12, 66, 0
15, 32760, Note_on_c, 12, 66, 68
15, 32760, Control_c, 12, 11, 117
15, 32880, Control_c, 12, 11, 121
15, 32939, Note_on_c, 12, 66, 0
15, 32940, Note_on_c, 12, 67, 68
15, 32999, Note_on_c, 12, 67, 0
15, 33000, Control_c, 12, 11, 124
15, 33000, Note_on_c, 12, 69, 68
15, 33059, Note_on_c, 12, 69, 0
15, 33060, Note_on_c, 12, 66, 68
15, 33111, Note_on_c, 12, 66, 0
15, 33120, Note_on_c, 12, 69, 68
15, 33120, Control_c, 12, 11, 127
15, 33239, Note_on_c, 12, 69, 0
15, 33240, Note_on_c, 12, 67, 68
15, 33471, Note_on_c, 12, 67, 0
15, 33480, Note_on_c, 12, 71, 68
15, 33480, Control_c, 12, 11, 127
15, 33510, Control_c, 12, 11, 124
15, 33539, Note_on_c, 12, 71, 0
15, 33540, Control_c, 12, 11, 121
15, 33540, Note_on_c, 12, 67, 68
15, 33570, Control_c, 12, 11, 117
15, 33599, Note_on_c, 12, 67, 0
15, 33600, Control_c, 12, 11, 115
15, 33600, Note_on_c, 12, 66, 68
15, 33630, Control_c, 12, 11, 111
15, 33659, Note_on_c, 12, 66, 0
15, 33660, Note_on_c, 12, 64, 68
15, 33660, Control_c, 12, 11, 109
15, 33690, Control_c, 12, 11, 105
15, 33719, Note_on_c, 12, 64, 0
15, 33720, Note_on_c, 12, 62, 68
15, 33720, Control_c, 12, 11, 101
15, 33750, Control_c, 12, 11, 99
15, 33779, Note_on_c, 12, 62, 0
15, 33780, Note_on_c, 12, 61, 68
15, 33780, Control_c, 12, 11, 95
15, 33810, Control_c, 12, 11, 92
15, 33831, Note_on_c, 12, 61, 0
15, 33840, Note_on_c, 12, 64, 68
15, 33840, Control_c, 12, 11, 89
15, 33960, Control_c, 12, 11, 87
15, 34080, Control_c, 12, 11, 85
15, 34199, Note_on_c, 12, 64, 0
15, 34200, Note_on_c, 12, 55, 68
15, 34200, Control_c, 12, 11, 84
15, 34311, Note_on_c, 12, 55, 0
15, 34320, Note_on_c, 12, 66, 68
15, 34320, Control_c, 12, 11, 82
15, 34440, Control_c, 12, 11, 80
15, 34559, Note_on_c, 12, 66, 0
15, 34560, Control_c, 12, 11, 79
15, 34680, Control_c, 12, 11, 77
15, 34800, Control_c, 12, 11, 75
15, 34920, Note_on_c, 12, 67, 68
15, 34920, Control_c, 12, 11, 74
15, 35039, Note_on_c, 12, 67, 0
15, 35040, Control_c, 12, 11, 72
15, 35040, Note_on_c, 12, 65, 68
15, 35160, Control_c, 12, 11, 70
15, 35279, Note_on_c, 12, 65, 0
15, 35398, Control_c, 12, 11, 127
15, 35398, Program_c, 12, 45
15, 35520, Note_on_c, 12, 65, 28
15, 35520, Note_on_c, 12, 62, 28
15, 35759, Note_on_c, 12, 65, 0
15, 35759, Note_on_c, 12, 62, 0
15, 35760, Note_on_c, 12, 60, 28
15, 35760, Note_on_c, 12, 69, 28
15, 35879, Note_on_c, 12, 60, 0
15, 35879, Note_on_c, 12, 69, 0
15, 36120, Note_on_c, 12, 62, 28
15, 36239, Note_on_c, 12, 62, 0
15, 36240, Note_on_c, 12, 65, 28
15, 36479, Note_on_c, 12, 65, 0
15, 36600, Note_on_c, 12, 60, 28
15, 36719, Note_on_c, 12, 60, 0
15, 36720, Note_on_c, 12, 65, 28
15, 36959, Note_on_c, 12, 65, 0
15, 37080, Note_on_c, 12, 58, 28
15, 37199, Note_on_c, 12, 58, 0
15, 37200, Note_on_c, 12, 65, 28
15, 37439, Note_on_c, 12, 65, 0
15, 37560, Note_on_c, 12, 60, 28
15, 37679, Note_on_c, 12, 60, 0
15, 37680, Note_on_c, 12, 72, 28
15, 37919, Note_on_c, 12, 72, 0
15, 38040, Note_on_c, 12, 58, 28
15, 38159, Note_on_c, 12, 58, 0
15, 38160, Note_on_c, 12, 62, 28
15, 38279, Note_on_c, 12, 62, 0
15, 38280, Note_on_c, 12, 60, 28
15, 38399, Note_on_c, 12, 60, 0
15, 38520, Note_on_c, 12, 58, 28
15, 38639, Note_on_c, 12, 58, 0
15, 38640, Note_on_c, 12, 64, 28
15, 38879, Note_on_c, 12, 64, 0
15, 39000, Note_on_c, 12, 58, 28
15, 39119, Note_on_c, 12, 58, 0
15, 39120, Note_on_c, 12, 62, 28
15, 39120, Note_on_c, 12, 65, 28
15, 39239, Note_on_c, 12, 62, 0
15, 39239, Note_on_c, 12, 65, 0
15, 39240, Note_on_c, 12, 70, 28
15, 39240, Note_on_c, 12, 62, 28
15, 39359, Note_on_c, 12, 70, 0
15, 39359, Note_on_c, 12, 62, 0
15, 39360, Note_on_c, 12, 63, 28
15, 39360, Note_on_c, 12, 72, 28
15, 39599, Note_on_c, 12, 63, 0
15, 39599, Note_on_c, 12, 72, 0
15, 39838, Program_c, 12, 48
15, 39838, Control_c, 12, 11, 87
15, 39840, Note_on_c, 12, 58, 56
15, 39840, Control_c, 12, 11, 87
15, 39852, Control_c, 12, 11, 88
15, 39864, Control_c, 12, 11, 89
15, 39876, Control_c, 12, 11, 90
15, 39888, Control_c, 12, 11, 91
15, 39900, Control_c, 12, 11, 92
15, 39912, Control_c, 12, 11, 93
15, 39924, Control_c, 12, 11, 94
15, 39936, Control_c, 12, 11, 95
15, 39948, Control_c, 12, 11, 96
15, 39960, Control_c, 12, 11, 97
15, 39972, Control_c, 12, 11, 98
15, 39984, Control_c, 12, 11, 99
15, 39996, Control_c, 12, 11, 100
15, 40008, Control_c, 12, 11, 101
15, 40020, Control_c, 12, 11, 102
15, 40032, Control_c, 12, 11, 103
15, 40044, Control_c, 12, 11, 104
15, 40056, Control_c, 12, 11, 105
15, 40068, Control_c, 12, 11, 106
15, 40080, Control_c, 12, 11, 107
15, 40092, Control_c, 12, 11, 108
15, 40104, Control_c, 12, 11, 109
15, 40116, Control_c, 12, 11, 110
15, 40128, Control_c, 12, 11, 111
15, 40140, Control_c, 12, 11, 112
15, 40152, Control_c, 12, 11, 113
15, 40164, Control_c, 12, 11, 114
15, 40176, Control_c, 12, 11, 115
15, 40188, Control_c, 12, 11, 116
15, 40200, Control_c, 12, 11, 117
15, 40212, Control_c, 12, 11, 118
15, 40224, Control_c, 12, 11, 119
15, 40236, Control_c, 12, 11, 120
15, 40248, Control_c, 12, 11, 121
15, 40260, Control_c, 12, 11, 122
15, 40272, Control_c, 12, 11, 123
15, 40284, Control_c, 12, 11, 124
15, 40296, Control_c, 12, 11, 125
15, 40308, Control_c, 12, 11, 126
15, 40320, Control_c, 12, 11, 127
15, 40332, Control_c, 12, 11, 126
15, 40344, Control_c, 12, 11, 125
15, 40356, Control_c, 12, 11, 124
15, 40368, Control_c, 12, 11, 123
15, 40380, Control_c, 12, 11, 122
15, 40392, Control_c, 12, 11, 121
15, 40404, Control_c, 12, 11, 120
15, 40416, Control_c, 12, 11, 119
15, 40428, Control_c, 12, 11, 118
15, 40439, Note_on_c, 12, 58, 0
15, 40440, Control_c, 12, 11, 117
15, 40440, Note_on_c, 12, 57, 56
15, 40452, Control_c, 12, 11, 116
15, 40464, Control_c, 12, 11, 115
15, 40476, Control_c, 12, 11, 114
15, 40488, Control_c, 12, 11, 113
15, 40500, Control_c, 12, 11, 112
15, 40512, Control_c, 12, 11, 111
15, 40524, Control_c, 12, 11, 110
15, 40536, Control_c, 12, 11, 109
15, 40548, Control_c, 12, 11, 108
15, 40559, Note_on_c, 12, 57, 0
15, 40560, Control_c, 12, 11, 107
15, 40560, Note_on_c, 12, 67, 56
15, 40572, Control_c, 12, 11, 106
15, 40584, Control_c, 12, 11, 105
15, 40596, Control_c, 12, 11, 104
15, 40608, Control_c, 12, 11, 103
15, 40620, Control_c, 12, 11, 102
15, 40632, Control_c, 12, 11, 101
15, 40644, Control_c, 12, 11, 100
15, 40656, Control_c, 12, 11, 99
15, 40668, Control_c, 12, 11, 98
15, 40679, Note_on_c, 12, 67, 0
15, 40680, Control_c, 12, 11, 97
15, 40680, Note_on_c, 12, 60, 56
15, 40680, Note_on_c, 12, 65, 56
15, 40692, Control_c, 12, 11, 96
15, 40704, Control_c, 12, 11, 95
15, 40716, Control_c, 12, 11, 94
15, 40728, Control_c, 12, 11, 93
15, 40740, Control_c, 12, 11, 92
15, 40752, Control_c, 12, 11, 91
15, 40764, Control_c, 12, 11, 90
15, 40776, Control_c, 12, 11, 89
15, 40788, Control_c, 12, 11, 87
15, 40799, Note_on_c, 12, 60, 0
15, 40799, Note_on_c, 12, 65, 0
15, 40918, Program_c, 12, 45
15, 40918, Control_c, 12, 11, 127
15, 40920, Note_on_c, 12, 60, 28
15, 41039, Note_on_c, 12, 60, 0
15, 41040, Note_on_c, 12, 65, 28
15, 41279, Note_on_c, 12, 65, 0
15, 41400, Note_on_c, 12, 58, 28
15, 41519, Note_on_c, 12, 58, 0
15, 41520, Note_on_c, 12, 70, 28
15, 41759, Note_on_c, 12, 70, 0
15, 41880, Note_on_c, 12, 60, 28
15, 41999, Note_on_c, 12, 60, 0
15, 42000, Note_on_c, 12, 72, 28
15, 42239, Note_on_c, 12, 72, 0
15, 42360, Note_on_c, 12, 72, 28
15, 42479, Note_on_c, 12, 72, 0
15, 42480, Note_on_c, 12, 70, 28
15, 42599, Note_on_c, 12, 70, 0
15, 42840, Note_on_c, 12, 55, 28
15, 42959, Note_on_c, 12, 55, 0
15, 42960, Note_on_c, 12, 67, 28
15, 43199, Note_on_c, 12, 67, 0
15, 43320, Note_on_c, 12, 62, 28
15, 43439, Note_on_c, 12, 62, 0
15, 43440, Note_on_c, 12, 65, 28
15, 43679, Note_on_c, 12, 65, 0
15, 43800, Note_on_c, 12, 57, 28
15, 43919, Note_on_c, 12, 57, 0
15, 43920, Note_on_c, 12, 65, 28
15, 44159, Note_on_c, 12, 65, 0
15, 44280, Note_on_c, 12, 65, 28
15, 44399, Note_on_c, 12, 65, 0
15, 44400, Note_on_c, 12, 65, 28
15, 44519, Note_on_c, 12, 65, 0
15, 45240, Note_on_c, 12, 62, 28
15, 45240, Note_on_c, 12, 58, 28
15, 45359, Note_on_c, 12, 62, 0
15, 45359, Note_on_c, 12, 58, 0
15, 45360, Note_on_c, 12, 62, 28
15, 45360, Note_on_c, 12, 70, 28
15, 45599, Note_on_c, 12, 62, 0
15, 45599, Note_on_c, 12, 70, 0
15, 45720, Note_on_c, 12, 67, 28
15, 45839, Note_on_c, 12, 67, 0
15, 45840, Note_on_c, 12, 69, 28
15, 45840, Note_on_c, 12, 65, 28
15, 46079, Note_on_c, 12, 69, 0
15, 46079, Note_on_c, 12, 65, 0
15, 46200, Note_on_c, 12, 65, 28
15, 46319, Note_on_c, 12, 65, 0
15, 46320, Note_on_c, 12, 70, 28
15, 46559, Note_on_c, 12, 70, 0
15, 46680, Note_on_c, 12, 63, 28
15, 46799, Note_on_c, 12, 63, 0
15, 46800, Note_on_c, 12, 75, 28
15, 47039, Note_on_c, 12, 75, 0
15, 47160, Note_on_c, 12, 65, 28
15, 47279, Note_on_c, 12, 65, 0
15, 47280, Note_on_c, 12, 74, 28
15, 47280, Note_on_c, 12, 65, 28
15, 47399, Note_on_c, 12, 74, 0
15, 47399, Note_on_c, 12, 65, 0
15, 48120, Note_on_c, 12, 58, 28
15, 48239, Note_on_c, 12, 58, 0
15, 48240, Note_on_c, 12, 70, 28
15, 48240, Note_on_c, 12, 67, 28
15, 48359, Note_on_c, 12, 70, 0
15, 48359, Note_on_c, 12, 67, 0
15, 48360, Note_on_c, 12, 67, 30
15, 48360, Note_on_c, 12, 70, 30
15, 48479, Note_on_c, 12, 67, 0
15, 48479, Note_on_c, 12, 70, 0
15, 48480, Note_on_c, 12, 67, 32
15, 48480, Note_on_c, 12, 70, 32
15, 48599, Note_on_c, 12, 67, 0
15, 48599, Note_on_c, 12, 70, 0
15, 48600, Note_on_c, 12, 58, 35
15, 48719, Note_on_c, 12, 58, 0
15, 48720, Note_on_c, 12, 70, 37
15, 48720, Note_on_c, 12, 67, 37
15, 48959, Note_on_c, 12, 70, 0
15, 48959, Note_on_c, 12, 67, 0
15, 49080, Note_on_c, 12, 58, 44
15, 49199, Note_on_c, 12, 58, 0
15, 49200, Note_on_c, 12, 64, 47
15, 49200, Note_on_c, 12, 72, 47
15, 49439, Note_on_c, 12, 64, 0
15, 49439, Note_on_c, 12, 72, 0
15, 49560, Note_on_c, 12, 62, 49
15, 49560, Note_on_c, 12, 65, 49
15, 49679, Note_on_c, 12, 62, 0
15, 49679, Note_on_c, 12, 65, 0
15, 49680, Note_on_c, 12, 74, 46
15, 49680, Note_on_c, 12, 65, 46
15, 49919, Note_on_c, 12, 74, 0
15, 49919, Note_on_c, 12, 65, 0
15, 50040, Note_on_c, 12, 65, 40
15, 50040, Note_on_c, 12, 62, 40
15, 50159, Note_on_c, 12, 65, 0
15, 50159, Note_on_c, 12, 62, 0
15, 50160, Note_on_c, 12, 72, 40
15, 50160, Note_on_c, 12, 63, 40
15, 50399, Note_on_c, 12, 72, 0
15, 50399, Note_on_c, 12, 63, 0
15, 50520, Note_on_c, 12, 60, 40
15, 50520, Note_on_c, 12, 63, 40
15, 50639, Note_on_c, 12, 60, 0
15, 50639, Note_on_c, 12, 63, 0
15, 50640, Note_on_c, 12, 72, 40
15, 50640, Note_on_c, 12, 63, 40
15, 50759, Note_on_c, 12, 72, 0
15, 50759, Note_on_c, 12, 63, 0
15, 50760, Note_on_c, 12, 62, 40
15, 50760, Note_on_c, 12, 74, 40
15, 50879, Note_on_c, 12, 62, 0
15, 50879, Note_on_c, 12, 74, 0
15, 50880, Note_on_c, 12, 70, 40
15, 50880, Note_on_c, 12, 62, 40
15, 51119, Note_on_c, 12, 70, 0
15, 51119, Note_on_c, 12, 62, 0
15, 51360, Program_c, 12, 48
15, 51840, Note_on_c, 12, 58, 44
15, 51959, Note_on_c, 12, 58, 0
15, 52800, Note_on_c, 12, 58, 44
15, 52911, Note_on_c, 12, 58, 0
15, 52920, Note_on_c, 12, 58, 44
15, 52920, Note_on_c, 12, 62, 44
15, 53031, Note_on_c, 12, 58, 0
15, 53031, Note_on_c, 12, 62, 0
15, 53040, Note_on_c, 12, 67, 44
15, 53040, Note_on_c, 12, 58, 44
15, 53159, Note_on_c, 12, 67, 0
15, 53159, Note_on_c, 12, 58, 0
15, 53220, Note_on_c, 12, 55, 47
15, 53249, Note_on_c, 12, 55, 0
15, 53250, Note_on_c, 12, 58, 48
15, 53279, Note_on_c, 12, 58, 0
15, 53280, Note_on_c, 12, 63, 48
15, 53399, Note_on_c, 12, 63, 0
15, 53460, Note_on_c, 12, 55, 52
15, 53489, Note_on_c, 12, 55, 0
15, 53490, Note_on_c, 12, 58, 53
15, 53519, Note_on_c, 12, 58, 0
15, 53520, Note_on_c, 12, 63, 53
15, 53639, Note_on_c, 12, 63, 0
15, 53700, Note_on_c, 12, 55, 57
15, 53729, Note_on_c, 12, 55, 0
15, 53730, Note_on_c, 12, 58, 57
15, 53759, Note_on_c, 12, 58, 0
15, 53760, Note_on_c, 12, 60, 58
15, 53879, Note_on_c, 12, 60, 0
15, 53940, Note_on_c, 12, 55, 62
15, 53969, Note_on_c, 12, 55, 0
15, 53970, Note_on_c, 12, 58, 62
15, 53999, Note_on_c, 12, 58, 0
15, 54000, Note_on_c, 12, 60, 63
15, 54119, Note_on_c, 12, 60, 0
15, 54180, Note_on_c, 12, 55, 66
15, 54209, Note_on_c, 12, 55, 0
15, 54210, Note_on_c, 12, 58, 67
15, 54239, Note_on_c, 12, 58, 0
15, 54240, Note_on_c, 12, 60, 68
15, 54299, Note_on_c, 12, 60, 0
15, 54300, Note_on_c, 12, 58, 65
15, 54329, Note_on_c, 12, 58, 0
15, 54330, Note_on_c, 12, 62, 64
15, 54359, Note_on_c, 12, 62, 0
15, 54360, Note_on_c, 12, 58, 62
15, 54419, Note_on_c, 12, 58, 0
15, 54420, Note_on_c, 12, 58, 59
15, 54449, Note_on_c, 12, 58, 0
15, 54450, Note_on_c, 12, 62, 58
15, 54479, Note_on_c, 12, 62, 0
15, 54480, Note_on_c, 12, 58, 56
15, 54599, Note_on_c, 12, 58, 0
15, 54660, Note_on_c, 12, 58, 47
15, 54689, Note_on_c, 12, 58, 0
15, 54690, Note_on_c, 12, 62, 46
15, 54719, Note_on_c, 12, 62, 0
15, 54720, Note_on_c, 12, 58, 44
15, 54839, Note_on_c, 12, 58, 0
15, 54900, Note_on_c, 12, 57, 44
15, 54929, Note_on_c, 12, 57, 0
15, 54930, Note_on_c, 12, 60, 44
15, 54959, Note_on_c, 12, 60, 0
15, 54960, Note_on_c, 12, 57, 44
15, 55079, Note_on_c, 12, 57, 0
15, 55170, Note_on_c, 12, 57, 44
15, 55199, Note_on_c, 12, 57, 0
15, 55200, Note_on_c, 12, 63, 38
15, 55319, Note_on_c, 12, 63, 0
15, 55410, Note_on_c, 12, 57, 38
15, 55439, Note_on_c, 12, 57, 0
15, 55440, Note_on_c, 12, 63, 38
15, 55559, Note_on_c, 12, 63, 0
15, 55650, Note_on_c, 12, 57, 38
15, 55679, Note_on_c, 12, 57, 0
15, 55680, Note_on_c, 12, 63, 38
15, 55799, Note_on_c, 12, 63, 0
15, 55890, Note_on_c, 12, 57, 38
15, 55919, Note_on_c, 12, 57, 0
15, 55920, Note_on_c, 12, 62, 38
15, 56039, Note_on_c, 12, 62, 0
15, 56130, Note_on_c, 12, 57, 38
15, 56159, Note_on_c, 12, 57, 0
15, 56160, Note_on_c, 12, 62, 32
15, 56279, Note_on_c, 12, 62, 0
15, 56340, Note_on_c, 12, 57, 32
15, 56369, Note_on_c, 12, 57, 0
15, 56370, Note_on_c, 12, 62, 32
15, 56399, Note_on_c, 12, 62, 0
15, 56400, Note_on_c, 12, 66, 32
15, 56519, Note_on_c, 12, 66, 0
15, 56580, Note_on_c, 12, 57, 32
15, 56609, Note_on_c, 12, 57, 0
15, 56610, Note_on_c, 12, 62, 32
15, 56639, Note_on_c, 12, 62, 0
15, 56640, Note_on_c, 12, 66, 32
15, 56759, Note_on_c, 12, 66, 0
15, 56820, Note_on_c, 12, 59, 32
15, 56849, Note_on_c, 12, 59, 0
15, 56850, Note_on_c, 12, 62, 32
15, 56879, Note_on_c, 12, 62, 0
15, 56880, Note_on_c, 12, 67, 32
15, 56999, Note_on_c, 12, 67, 0
15, 58374, Control_c, 12, 11, 106
15, 58440, Note_on_c, 12, 67, 56
15, 58440, Control_c, 12, 11, 107
15, 58506, Control_c, 12, 11, 108
15, 58572, Control_c, 12, 11, 109
15, 58638, Control_c, 12, 11, 110
15, 58704, Control_c, 12, 11, 111
15, 58770, Control_c, 12, 11, 112
15, 58799, Note_on_c, 12, 67, 0
15, 58800, Note_on_c, 12, 66, 56
15, 58836, Control_c, 12, 11, 113
15, 58902, Control_c, 12, 11, 114
15, 58919, Note_on_c, 12, 66, 0
15, 58968, Control_c, 12, 11, 115
15, 60576, Control_c, 12, 11, 99
15, 60600, Note_on_c, 12, 69, 56
15, 60624, Control_c, 12, 11, 100
15, 60672, Control_c, 12, 11, 101
15, 60720, Control_c, 12, 11, 102
15, 60768, Control_c, 12, 11, 103
15, 60816, Control_c, 12, 11, 104
15, 60839, Note_on_c, 12, 69, 0
15, 60840, Note_on_c, 12, 67, 56
15, 60864, Control_c, 12, 11, 105
15, 60912, Control_c, 12, 11, 106
15, 60951, Note_on_c, 12, 67, 0
15, 60960, Control_c, 12, 11, 107
15, 60960, Note_on_c, 12, 67, 56
15, 61008, Control_c, 12, 11, 108
15, 61056, Control_c, 12, 11, 109
15, 61079, Note_on_c, 12, 67, 0
15, 61104, Control_c, 12, 11, 110
15, 61152, Control_c, 12, 11, 111
15, 61200, Control_c, 12, 11, 112
15, 61248, Control_c, 12, 11, 113
15, 61296, Control_c, 12, 11, 114
15, 61320, Note_on_c, 12, 71, 56
15, 61344, Control_c, 12, 11, 115
15, 61392, Control_c, 12, 11, 116
15, 61440, Control_c, 12, 11, 117
15, 61488, Control_c, 12, 11, 118
15, 61536, Control_c, 12, 11, 119
15, 61559, Note_on_c, 12, 71, 0
15, 61560, Note_on_c, 12, 69, 56
15, 61584, Control_c, 12, 11, 120
15, 61632, Control_c, 12, 11, 121
15, 61671, Note_on_c, 12, 69, 0
15, 61680, Note_on_c, 12, 69, 56
15, 61680, Control_c, 12, 11, 122
15, 61728, Control_c, 12, 11, 123
15, 61776, Control_c, 12, 11, 124
15, 61799, Note_on_c, 12, 69, 0
15, 61824, Control_c, 12, 11, 125
15, 61872, Control_c, 12, 11, 126
15, 61920, Control_c, 12, 11, 127
15, 62640, Note_on_c, 12, 71, 35
15, 62759, Note_on_c, 12, 71, 0
15, 62760, Note_on_c, 12, 67, 34
15, 62879, Note_on_c, 12, 67, 0
15, 62880, Note_on_c, 12, 62, 32
15, 62998, Program_c, 12, 45
15, 62998, Control_c, 12, 11, 127
15, 62999, Note_on_c, 12, 62, 0
15, 63000, Note_on_c, 12, 66, 28
15, 63119, Note_on_c, 12, 66, 0
15, 63120, Note_on_c, 12, 72, 29
15, 63239, Note_on_c, 12, 72, 0
15, 63240, Note_on_c, 12, 69, 30
15, 63359, Note_on_c, 12, 69, 0
15, 63360, Note_on_c, 12, 74, 32
15, 63479, Note_on_c, 12, 74, 0
15, 63480, Note_on_c, 12, 72, 33
15, 63599, Note_on_c, 12, 72, 0
15, 63720, Note_on_c, 12, 62, 36
15, 63839, Note_on_c, 12, 62, 0
15, 63840, Note_on_c, 12, 71, 37
15, 63959, Note_on_c, 12, 71, 0
15, 63960, Note_on_c, 12, 67, 39
15, 64079, Note_on_c, 12, 67, 0
15, 64080, Note_on_c, 12, 74, 40
15, 64199, Note_on_c, 12, 74, 0
15, 64200, Note_on_c, 12, 62, 42
15, 64319, Note_on_c, 12, 62, 0
15, 64440, Note_on_c, 12, 60, 44
15, 64559, Note_on_c, 12, 60, 0
15, 64560, Note_on_c, 12, 69, 46
15, 64679, Note_on_c, 12, 69, 0
15, 64680, Note_on_c, 12, 66, 47
15, 64799, Note_on_c, 12, 66, 0
15, 64800, Note_on_c, 12, 60, 49
15, 64919, Note_on_c, 12, 60, 0
15, 64920, Note_on_c, 12, 69, 50
15, 65039, Note_on_c, 12, 69, 0
15, 65160, Note_on_c, 12, 59, 52
15, 65279, Note_on_c, 12, 59, 0
15, 65280, Note_on_c, 12, 71, 52
15, 65399, Note_on_c, 12, 71, 0
15, 65400, Note_on_c, 12, 67, 46
15, 65519, Note_on_c, 12, 67, 0
15, 65520, Note_on_c, 12, 59, 40
15, 65520, Note_on_c, 12, 67, 40
15, 65639, Note_on_c, 12, 59, 0
15, 65639, Note_on_c, 12, 67, 0
15, 65640, Note_on_c, 12, 71, 34
15, 65759, Note_on_c, 12, 71, 0
15, 65880, Note_on_c, 12, 66, 31
15, 65999, Note_on_c, 12, 66, 0
15, 66000, Note_on_c, 12, 72, 34
15, 66119, Note_on_c, 12, 72, 0
15, 66120, Note_on_c, 12, 69, 37
15, 66239, Note_on_c, 12, 69, 0
15, 66240, Note_on_c, 12, 74, 40
15, 66359, Note_on_c, 12, 74, 0
15, 66360, Note_on_c, 12, 72, 43
15, 66479, Note_on_c, 12, 72, 0
15, 66600, Note_on_c, 12, 62, 49
15, 66719, Note_on_c, 12, 62, 0
15, 66720, Note_on_c, 12, 71, 52
15, 66839, Note_on_c, 12, 71, 0
15, 66840, Note_on_c, 12, 67, 55
15, 66959, Note_on_c, 12, 67, 0
15, 66960, Note_on_c, 12, 59, 58
15, 66960, Note_on_c, 12, 67, 58
15, 67079, Note_on_c, 12, 59, 0
15, 67079, Note_on_c, 12, 67, 0
15, 67080, Note_on_c, 12, 71, 61
15, 67199, Note_on_c, 12, 71, 0
15, 67320, Note_on_c, 12, 60, 64
15, 67439, Note_on_c, 12, 60, 0
15, 67440, Note_on_c, 12, 69, 64
15, 67559, Note_on_c, 12, 69, 0
15, 67560, Note_on_c, 12, 66, 58
15, 67560, Note_on_c, 12, 69, 58
15, 67679, Note_on_c, 12, 66, 0
15, 67679, Note_on_c, 12, 69, 0
15, 67680, Note_on_c, 12, 60, 52
15, 67799, Note_on_c, 12, 60, 0
15, 67800, Note_on_c, 12, 60, 46
15, 67800, Note_on_c, 12, 69, 46
15, 67919, Note_on_c, 12, 60, 0
15, 67919, Note_on_c, 12, 69, 0
15, 68040, Note_on_c, 12, 60, 39
15, 68159, Note_on_c, 12, 60, 0
15, 68160, Note_on_c, 12, 69, 38
15, 68279, Note_on_c, 12, 69, 0
15, 68280, Note_on_c, 12, 66, 37
15, 68399, Note_on_c, 12, 66, 0
15, 68400, Note_on_c, 12, 71, 36
15, 68519, Note_on_c, 12, 71, 0
15, 68520, Note_on_c, 12, 67, 35
15, 68639, Note_on_c, 12, 67, 0
15, 68760, Note_on_c, 12, 60, 33
15, 68879, Note_on_c, 12, 60, 0
15, 68880, Note_on_c, 12, 72, 32
15, 68999, Note_on_c, 12, 72, 0
15, 69000, Note_on_c, 12, 60, 31
15, 69000, Note_on_c, 12, 69, 31
15, 69119, Note_on_c, 12, 60, 0
15, 69119, Note_on_c, 12, 69, 0
15, 69120, Note_on_c, 12, 58, 30
15, 69120, Note_on_c, 12, 67, 30
15, 69239, Note_on_c, 12, 58, 0
15, 69239, Note_on_c, 12, 67, 0
15, 69240, Note_on_c, 12, 58, 29
15, 69359, Note_on_c, 12, 58, 0
15, 69480, Note_on_c, 12, 58, 28
15, 69599, Note_on_c, 12, 58, 0
15, 69600, Note_on_c, 12, 58, 28
15, 69719, Note_on_c, 12, 58, 0
15, 69720, Note_on_c, 12, 55, 28
15, 69839, Note_on_c, 12, 55, 0
15, 69840, Note_on_c, 12, 56, 28
15, 69959, Note_on_c, 12, 56, 0
15, 69960, Note_on_c, 12, 68, 28
15, 70079, Note_on_c, 12, 68, 0
15, 70080, Note_on_c, 12, 58, 28
15, 70080, Note_on_c, 12, 67, 28
15, 70319, Note_on_c, 12, 58, 0
15, 70319, Note_on_c, 12, 67, 0
15, 72840, Note_on_c, 12, 70, 28
15, 72959, Note_on_c, 12, 70, 0
15, 72960, Note_on_c, 12, 70, 28
15, 73079, Note_on_c, 12, 70, 0
15, 74720, Note_on_c, 12, 70, 28
15, 74799, Note_on_c, 12, 70, 0
15, 74800, Note_on_c, 12, 70, 28
15, 74879, Note_on_c, 12, 70, 0
15, 74880, Note_on_c, 12, 70, 28
15, 75119, Note_on_c, 12, 70, 0
15, 77120, Note_on_c, 12, 66, 28
15, 77199, Note_on_c, 12, 66, 0
15, 77200, Note_on_c, 12, 66, 28
15, 77279, Note_on_c, 12, 66, 0
15, 77280, Note_on_c, 12, 66, 28
15, 77519, Note_on_c, 12, 66, 0
15, 78080, Note_on_c, 12, 66, 28
15, 78159, Note_on_c, 12, 66, 0
15, 78160, Note_on_c, 12, 66, 28
15, 78239, Note_on_c, 12, 66, 0
15, 78240, Note_on_c, 12, 66, 28
15, 78479, Note_on_c, 12, 66, 0
15, 78560, Note_on_c, 12, 66, 28
15, 78639, Note_on_c, 12, 66, 0
15, 78640, Note_on_c, 12, 66, 28
15, 78719, Note_on_c, 12, 66, 0
15, 78720, Note_on_c, 12, 66, 28
15, 78959, Note_on_c, 12, 66, 0
15, 79760, Note_on_c, 12, 66, 28
15, 79839, Note_on_c, 12, 66, 0
15, 79840, Note_on_c, 12, 66, 28
15, 79919, Note_on_c, 12, 66, 0
15, 79920, Note_on_c, 12, 66, 28
15, 80159, Note_on_c, 12, 66, 0
15, 80240, Note_on_c, 12, 66, 28
15, 80319, Note_on_c, 12, 66, 0
15, 80320, Note_on_c, 12, 66, 28
15, 80399, Note_on_c, 12, 66, 0
15, 80400, Note_on_c, 12, 66, 28
15, 80639, Note_on_c, 12, 66, 0
15, 80720, Note_on_c, 12, 66, 28
15, 80799, Note_on_c, 12, 66, 0
15, 80800, Note_on_c, 12, 66, 28
15, 80879, Note_on_c, 12, 66, 0
15, 80880, Note_on_c, 12, 66, 28
15, 81119, Note_on_c, 12, 66, 0
15, 81200, Note_on_c, 12, 66, 28
15, 81279, Note_on_c, 12, 66, 0
15, 81280, Note_on_c, 12, 66, 28
15, 81359, Note_on_c, 12, 66, 0
15, 81360, Note_on_c, 12, 66, 28
15, 81599, Note_on_c, 12, 66, 0
15, 82320, Note_on_c, 12, 85, 28
15, 82399, Note_on_c, 12, 85, 0
15, 82400, Note_on_c, 12, 82, 28
15, 82479, Note_on_c, 12, 82, 0
15, 82480, Note_on_c, 12, 76, 28
15, 82559, Note_on_c, 12, 76, 0
15, 82560, Note_on_c, 12, 75, 28
15, 82799, Note_on_c, 12, 75, 0
15, 84240, Note_on_c, 12, 85, 41
15, 84319, Note_on_c, 12, 85, 0
15, 84320, Note_on_c, 12, 82, 43
15, 84399, Note_on_c, 12, 82, 0
15, 84400, Note_on_c, 12, 76, 44
15, 84479, Note_on_c, 12, 76, 0
15, 85200, Note_on_c, 12, 86, 59
15, 85279, Note_on_c, 12, 86, 0
15, 85280, Note_on_c, 12, 82, 61
15, 85359, Note_on_c, 12, 82, 0
15, 85360, Note_on_c, 12, 77, 62
15, 85439, Note_on_c, 12, 77, 0
15, 85440, Note_on_c, 12, 74, 40
15, 85440, Note_on_c, 12, 62, 40
15, 85679, Note_on_c, 12, 74, 0
15, 85679, Note_on_c, 12, 62, 0
15, 85920, Note_on_c, 12, 74, 40
15, 86039, Note_on_c, 12, 74, 0
15, 86040, Note_on_c, 12, 65, 40
15, 86159, Note_on_c, 12, 65, 0
15, 86160, Note_on_c, 12, 63, 40
15, 86399, Note_on_c, 12, 63, 0
15, 86640, Note_on_c, 12, 72, 40
15, 86759, Note_on_c, 12, 72, 0
15, 86760, Note_on_c, 12, 63, 40
15, 86879, Note_on_c, 12, 63, 0
15, 86880, Note_on_c, 12, 62, 40
15, 87119, Note_on_c, 12, 62, 0
15, 87360, Note_on_c, 12, 65, 40
15, 87479, Note_on_c, 12, 65, 0
15, 87480, Note_on_c, 12, 62, 40
15, 87599, Note_on_c, 12, 62, 0
15, 87600, Note_on_c, 12, 60, 40
15, 87839, Note_on_c, 12, 60, 0
15, 88080, Note_on_c, 12, 60, 40
15, 88199, Note_on_c, 12, 60, 0
15, 88200, Note_on_c, 12, 57, 40
15, 88319, Note_on_c, 12, 57, 0
15, 88320, Note_on_c, 12, 62, 40
15, 88559, Note_on_c, 12, 62, 0
15, 88800, Note_on_c, 12, 72, 50
15, 88919, Note_on_c, 12, 72, 0
15, 88920, Note_on_c, 12, 65, 53
15, 89039, Note_on_c, 12, 65, 0
15, 89040, Note_on_c, 12, 70, 56
15, 89279, Note_on_c, 12, 70, 0
15, 89520, Note_on_c, 12, 70, 56
15, 89639, Note_on_c, 12, 70, 0
15, 89640, Note_on_c, 12, 64, 48
15, 89759, Note_on_c, 12, 64, 0
15, 89760, Note_on_c, 12, 65, 40
15, 89999, Note_on_c, 12, 65, 0
15, 90240, Note_on_c, 12, 62, 40
15, 90359, Note_on_c, 12, 62, 0
15, 90360, Note_on_c, 12, 63, 40
15, 90479, Note_on_c, 12, 63, 0
15, 90480, Note_on_c, 12, 63, 40
15, 90719, Note_on_c, 12, 63, 0
15, 90960, Note_on_c, 12, 58, 40
15, 91079, Note_on_c, 12, 58, 0
15, 91080, Note_on_c, 12, 60, 40
15, 91199, Note_on_c, 12, 60, 0
15, 91200, Note_on_c, 12, 62, 40
15, 91439, Note_on_c, 12, 62, 0
15, 91680, Note_on_c, 12, 62, 40
15, 91799, Note_on_c, 12, 62, 0
15, 91800, Note_on_c, 12, 63, 40
15, 91919, Note_on_c, 12, 63, 0
15, 91920, Note_on_c, 12, 63, 40
15, 92159, Note_on_c, 12, 63, 0
15, 92400, Note_on_c, 12, 60, 40
15, 92519, Note_on_c, 12, 60, 0
15, 92520, Note_on_c, 12, 57, 40
15, 92639, Note_on_c, 12, 57, 0
15, 92640, Note_on_c, 12, 57, 40
15, 92640, Note_on_c, 12, 65, 40
15, 92879, Note_on_c, 12, 57, 0
15, 92879, Note_on_c, 12, 65, 0
15, 93120, Note_on_c, 12, 65, 40
15, 93239, Note_on_c, 12, 65, 0
15, 93240, Note_on_c, 12, 60, 40
15, 93240, Note_on_c, 12, 65, 40
15, 93359, Note_on_c, 12, 60, 0
15, 93359, Note_on_c, 12, 65, 0
15, 93360, Note_on_c, 12, 65, 40
15, 93360, Note_on_c, 12, 62, 40
15, 93599, Note_on_c, 12, 65, 0
15, 93599, Note_on_c, 12, 62, 0
15, 93840, Note_on_c, 12, 70, 40
15, 93959, Note_on_c, 12, 70, 0
15, 93960, Note_on_c, 12, 65, 40
15, 94079, Note_on_c, 12, 65, 0
15, 94080, Note_on_c, 12, 65, 40
15, 94080, Note_on_c, 12, 72, 40
15, 94319, Note_on_c, 12, 65, 0
15, 94319, Note_on_c, 12, 72, 0
15, 94560, Note_on_c, 12, 72, 40
15, 94679, Note_on_c, 12, 72, 0
15, 94680, Note_on_c, 12, 65, 40
15, 94799, Note_on_c, 12, 65, 0
15, 94800, Note_on_c, 12, 65, 40
15, 95039, Note_on_c, 12, 65, 0
15, 95280, Note_on_c, 12, 74, 40
15, 95399, Note_on_c, 12, 74, 0
15, 95400, Note_on_c, 12, 62, 40
15, 95519, Note_on_c, 12, 62, 0
15, 95520, Note_on_c, 12, 67, 40
15, 95520, Note_on_c, 12, 55, 40
15, 95759, Note_on_c, 12, 67, 0
15, 95759, Note_on_c, 12, 55, 0
15, 96000, Note_on_c, 12, 63, 40
15, 96119, Note_on_c, 12, 63, 0
15, 96120, Note_on_c, 12, 58, 40
15, 96239, Note_on_c, 12, 58, 0
15, 96240, Note_on_c, 12, 62, 40
15, 96240, Note_on_c, 12, 58, 40
15, 96479, Note_on_c, 12, 62, 0
15, 96479, Note_on_c, 12, 58, 0
15, 96720, Note_on_c, 12, 65, 40
15, 96839, Note_on_c, 12, 65, 0
15, 96840, Note_on_c, 12, 65, 40
15, 96959, Note_on_c, 12, 65, 0
15, 96960, Note_on_c, 12, 65, 40
15, 97199, Note_on_c, 12, 65, 0
15, 97440, Note_on_c, 12, 65, 40
15, 97559, Note_on_c, 12, 65, 0
15, 97560, Note_on_c, 12, 65, 40
15, 97679, Note_on_c, 12, 65, 0
15, 97680, Note_on_c, 12, 65, 40
15, 97919, Note_on_c, 12, 65, 0
15, 98160, Note_on_c, 12, 65, 40
15, 98279, Note_on_c, 12, 65, 0
15, 98280, Note_on_c, 12, 65, 40
15, 98399, Note_on_c, 12, 65, 0
15, 98400, Note_on_c, 12, 65, 40
15, 98639, Note_on_c, 12, 65, 0
15, 98880, Note_on_c, 12, 65, 40
15, 98999, Note_on_c, 12, 65, 0
15, 99000, Note_on_c, 12, 65, 40
15, 99119, Note_on_c, 12, 65, 0
15, 99120, Note_on_c, 12, 65, 40
15, 99359, Note_on_c, 12, 65, 0
15, 99600, Note_on_c, 12, 65, 40
15, 99719, Note_on_c, 12, 65, 0
15, 99720, Note_on_c, 12, 62, 40
15, 99839, Note_on_c, 12, 62, 0
15, 99840, Note_on_c, 12, 60, 40
15, 100079, Note_on_c, 12, 60, 0
15, 100320, Note_on_c, 12, 60, 40
15, 100439, Note_on_c, 12, 60, 0
15, 100440, Note_on_c, 12, 57, 40
15, 100559, Note_on_c, 12, 57, 0
15, 100560, Note_on_c, 12, 65, 40
15, 100560, Note_on_c, 12, 58, 40
15, 100799, Note_on_c, 12, 65, 0
15, 100799, Note_on_c, 12, 58, 0
15, 101040, Note_on_c, 12, 65, 40
15, 101159, Note_on_c, 12, 65, 0
15, 101160, Note_on_c, 12, 58, 40
15, 101279, Note_on_c, 12, 58, 0
15, 101280, Note_on_c, 12, 63, 40
15, 101519, Note_on_c, 12, 63, 0
15, 101760, Note_on_c, 12, 75, 56
15, 101879, Note_on_c, 12, 75, 0
15, 101880, Note_on_c, 12, 69, 60
15, 101999, Note_on_c, 12, 69, 0
15, 102000, Note_on_c, 12, 75, 64
15, 102239, Note_on_c, 12, 75, 0
15, 102480, Note_on_c, 12, 62, 48
15, 102599, Note_on_c, 12, 62, 0
15, 102600, Note_on_c, 12, 58, 44
15, 102719, Note_on_c, 12, 58, 0
15, 102720, Note_on_c, 12, 55, 40
15, 102959, Note_on_c, 12, 55, 0
15, 103200, Note_on_c, 12, 63, 40
15, 103319, Note_on_c, 12, 63, 0
15, 103320, Note_on_c, 12, 69, 40
15, 103439, Note_on_c, 12, 69, 0
15, 103440, Note_on_c, 12, 72, 40
15, 103559, Note_on_c, 12, 72, 0
15, 103560, Note_on_c, 12, 60, 40
15, 103679, Note_on_c, 12, 60, 0
15, 103680, Note_on_c, 12, 58, 40
15, 103799, Note_on_c, 12, 58, 0
15, 103800, Note_on_c, 12, 58, 40
15, 103919, Note_on_c, 12, 58, 0
15, 103920, Note_on_c, 12, 58, 41
15, 104039, Note_on_c, 12, 58, 0
15, 104040, Note_on_c, 12, 67, 43
15, 104159, Note_on_c, 12, 67, 0
15, 104160, Note_on_c, 12, 70, 44
15, 104160, Note_on_c, 12, 67, 44
15, 104399, Note_on_c, 12, 70, 0
15, 104399, Note_on_c, 12, 67, 0
15, 104640, Note_on_c, 12, 58, 51
15, 104759, Note_on_c, 12, 58, 0
15, 104760, Note_on_c, 12, 67, 52
15, 104879, Note_on_c, 12, 67, 0
15, 104880, Note_on_c, 12, 60, 54
15, 104880, Note_on_c, 12, 67, 54
15, 105119, Note_on_c, 12, 60, 0
15, 105119, Note_on_c, 12, 67, 0
15, 105360, Note_on_c, 12, 70, 60
15, 105479, Note_on_c, 12, 70, 0
15, 105480, Note_on_c, 12, 64, 62
15, 105599, Note_on_c, 12, 64, 0
15, 105600, Note_on_c, 12, 70, 64
15, 105839, Note_on_c, 12, 70, 0
15, 106080, Note_on_c, 12, 70, 48
15, 106199, Note_on_c, 12, 70, 0
15, 106200, Note_on_c, 12, 62, 44
15, 106319, Note_on_c, 12, 62, 0
15, 106320, Note_on_c, 12, 62, 40
15, 106559, Note_on_c, 12, 62, 0
15, 106800, Note_on_c, 12, 63, 40
15, 106919, Note_on_c, 12, 63, 0
15, 106920, Note_on_c, 12, 60, 40
15, 107039, Note_on_c, 12, 60, 0
15, 107040, Note_on_c, 12, 63, 40
15, 107279, Note_on_c, 12, 63, 0
15, 107520, Note_on_c, 12, 63, 40
15, 107639, Note_on_c, 12, 63, 0
15, 107640, Note_on_c, 12, 62, 40
15, 107759, Note_on_c, 12, 62, 0
15, 107760, Note_on_c, 12, 62, 40
15, 107999, Note_on_c, 12, 62, 0
15, 109680, Note_on_c, 12, 74, 40
15, 109799, Note_on_c, 12, 74, 0
15, 109800, Note_on_c, 12, 75, 40
15, 109919, Note_on_c, 12, 75, 0
15, 109920, Note_on_c, 12, 75, 40
15, 110159, Note_on_c, 12, 75, 0
15, 110400, Note_on_c, 12, 65, 40
15, 110519, Note_on_c, 12, 65, 0
15, 110520, Note_on_c, 12, 65, 40
15, 110639, Note_on_c, 12, 65, 0
15, 110640, Note_on_c, 12, 65, 40
15, 110759, Note_on_c, 12, 65, 0
15, 110760, Note_on_c, 12, 65, 40
15, 110879, Note_on_c, 12, 65, 0
15, 110880, Note_on_c, 12, 65, 40
15, 110880, Note_on_c, 12, 70, 40
15, 110999, Note_on_c, 12, 65, 0
15, 110999, Note_on_c, 12, 70, 0
15, 111000, Note_on_c, 12, 67, 40
15, 111000, Note_on_c, 12, 70, 40
15, 111119, Note_on_c, 12, 67, 0
15, 111119, Note_on_c, 12, 70, 0
15, 111120, Note_on_c, 12, 70, 41
15, 111120, Note_on_c, 12, 67, 41
15, 111239, Note_on_c, 12, 70, 0
15, 111239, Note_on_c, 12, 67, 0
15, 111240, Note_on_c, 12, 58, 43
15, 111359, Note_on_c, 12, 58, 0
15, 111360, Note_on_c, 12, 70, 44
15, 111360, Note_on_c, 12, 67, 44
15, 111599, Note_on_c, 12, 70, 0
15, 111599, Note_on_c, 12, 67, 0
15, 111840, Note_on_c, 12, 70, 51
15, 111959, Note_on_c, 12, 70, 0
15, 111960, Note_on_c, 12, 58, 52
15, 112079, Note_on_c, 12, 58, 0
15, 112080, Note_on_c, 12, 60, 54
15, 112319, Note_on_c, 12, 60, 0
15, 112560, Note_on_c, 12, 60, 60
15, 112679, Note_on_c, 12, 60, 0
15, 112680, Note_on_c, 12, 60, 62
15, 112799, Note_on_c, 12, 60, 0
15, 112800, Note_on_c, 12, 62, 64
15, 113039, Note_on_c, 12, 62, 0
15, 113280, Note_on_c, 12, 62, 48
15, 113399, Note_on_c, 12, 62, 0
15, 113400, Note_on_c, 12, 58, 44
15, 113519, Note_on_c, 12, 58, 0
15, 113520, Note_on_c, 12, 60, 40
15, 113759, Note_on_c, 12, 60, 0
15, 114000, Note_on_c, 12, 60, 40
15, 114119, Note_on_c, 12, 60, 0
15, 114120, Note_on_c, 12, 57, 40
15, 114239, Note_on_c, 12, 57, 0
15, 114240, Note_on_c, 12, 60, 34
15, 114479, Note_on_c, 12, 60, 0
15, 114720, Note_on_c, 12, 60, 34
15, 114839, Note_on_c, 12, 60, 0
15, 114840, Note_on_c, 12, 57, 34
15, 114959, Note_on_c, 12, 57, 0
15, 114960, Note_on_c, 12, 60, 34
15, 115199, Note_on_c, 12, 60, 0
15, 115440, Note_on_c, 12, 62, 34
15, 115559, Note_on_c, 12, 62, 0
15, 115560, Note_on_c, 12, 58, 34
15, 115679, Note_on_c, 12, 58, 0
15, 115680, Note_on_c, 12, 60, 28
15, 115919, Note_on_c, 12, 60, 0
15, 116160, Note_on_c, 12, 60, 28
15, 116279, Note_on_c, 12, 60, 0
15, 116280, Note_on_c, 12, 57, 28
15, 116399, Note_on_c, 12, 57, 0
15, 116400, Note_on_c, 12, 60, 28
15, 116639, Note_on_c, 12, 60, 0
15, 116880, Note_on_c, 12, 56, 66
15, 116991, Note_on_c, 12, 56, 0
15, 116998, Program_c, 12, 48
15, 116998, Control_c, 12, 11, 127
15, 117000, Note_on_c, 12, 70, 80
15, 117051, Note_on_c, 12, 70, 0
15, 117060, Note_on_c, 12, 70, 80
15, 117111, Note_on_c, 12, 70, 0
15, 117120, Note_on_c, 12, 75, 80
15, 117239, Note_on_c, 12, 75, 0
15, 117720, Note_on_c, 12, 75, 80
15, 117771, Note_on_c, 12, 75, 0
15, 117780, Note_on_c, 12, 75, 80
15, 117831, Note_on_c, 12, 75, 0
15, 117840, Note_on_c, 12, 82, 80
15, 117959, Note_on_c, 12, 82, 0
15, 118440, Note_on_c, 12, 82, 80
15, 118491, Note_on_c, 12, 82, 0
15, 118500, Note_on_c, 12, 82, 80
15, 118551, Note_on_c, 12, 82, 0
15, 118560, Note_on_c, 12, 87, 92
15, 118560, Note_on_c, 12, 75, 92
15, 118619, Note_on_c, 12, 87, 0
15, 118619, Note_on_c, 12, 75, 0
15, 118800, Note_on_c, 12, 87, 80
15, 118800, Note_on_c, 12, 75, 80
15, 118851, Note_on_c, 12, 87, 0
15, 118851, Note_on_c, 12, 75, 0
15, 118860, Note_on_c, 12, 75, 80
15, 118860, Note_on_c, 12, 87, 80
15, 118911, Note_on_c, 12, 75, 0
15, 118911, Note_on_c, 12, 87, 0
15, 118920, Note_on_c, 12, 86, 92
15, 118920, Note_on_c, 12, 74, 92
15, 119009, Note_on_c, 12, 86, 0
15, 119009, Note_on_c, 12, 74, 0
15, 119160, Note_on_c, 12, 74, 80
15, 119160, Note_on_c, 12, 86, 80
15, 119211, Note_on_c, 12, 74, 0
15, 119211, Note_on_c, 12, 86, 0
15, 119220, Note_on_c, 12, 86, 80
15, 119220, Note_on_c, 12, 74, 80
15, 119271, Note_on_c, 12, 86, 0
15, 119271, Note_on_c, 12, 74, 0
15, 119280, Note_on_c, 12, 84, 80
15, 119280, Note_on_c, 12, 72, 80
15, 119519, Note_on_c, 12, 84, 0
15, 119519, Note_on_c, 12, 72, 0
15, 122880, Program_c, 12, 45
15, 123000, Note_on_c, 12, 70, 40
15, 123119, Note_on_c, 12, 70, 0
15, 123120, Note_on_c, 12, 65, 40
15, 123239, Note_on_c, 12, 65, 0
15, 123240, Note_on_c, 12, 70, 40
15, 123240, Note_on_c, 12, 62, 40
15, 123479, Note_on_c, 12, 70, 0
15, 123479, Note_on_c, 12, 62, 0
15, 123720, Note_on_c, 12, 63, 40
15, 123839, Note_on_c, 12, 63, 0
15, 123840, Note_on_c, 12, 60, 40
15, 123959, Note_on_c, 12, 60, 0
15, 123960, Note_on_c, 12, 63, 40
15, 124199, Note_on_c, 12, 63, 0
15, 124440, Note_on_c, 12, 74, 40
15, 124559, Note_on_c, 12, 74, 0
15, 124560, Note_on_c, 12, 65, 40
15, 124679, Note_on_c, 12, 65, 0
15, 124680, Note_on_c, 12, 65, 40
15, 124680, Note_on_c, 12, 74, 40
15, 124919, Note_on_c, 12, 65, 0
15, 124919, Note_on_c, 12, 74, 0
15, 125160, Note_on_c, 12, 72, 40
15, 125279, Note_on_c, 12, 72, 0
15, 125280, Note_on_c, 12, 63, 40
15, 125280, Note_on_c, 12, 60, 40
15, 125399, Note_on_c, 12, 63, 0
15, 125399, Note_on_c, 12, 60, 0
15, 125400, Note_on_c, 12, 63, 40
15, 125400, Note_on_c, 12, 72, 40
15, 125519, Note_on_c, 12, 63, 0
15, 125519, Note_on_c, 12, 72, 0
15, 125520, Note_on_c, 12, 60, 40
15, 125639, Note_on_c, 12, 60, 0
15, 125640, Note_on_c, 12, 65, 40
15, 125640, Note_on_c, 12, 60, 40
15, 125759, Note_on_c, 12, 65, 0
15, 125759, Note_on_c, 12, 60, 0
15, 125760, Program_c, 12, 48
15, 126360, Note_on_c, 12, 62, 47
15, 126360, Note_on_c, 12, 65, 47
15, 126479, Note_on_c, 12, 62, 0
15, 126479, Note_on_c, 12, 65, 0
15, 127080, Note_on_c, 12, 63, 52
15, 127080, Note_on_c, 12, 69, 52
15, 127199, Note_on_c, 12, 63, 0
15, 127199, Note_on_c, 12, 69, 0
15, 127440, Note_on_c, 12, 65, 54
15, 127559, Note_on_c, 12, 65, 0
15, 127800, Note_on_c, 12, 65, 57
15, 127919, Note_on_c, 12, 65, 0
15, 128160, Note_on_c, 12, 65, 59
15, 128279, Note_on_c, 12, 65, 0
15, 128520, Note_on_c, 12, 65, 61
15, 128639, Note_on_c, 12, 65, 0
15, 128880, Note_on_c, 12, 70, 63
15, 128999, Note_on_c, 12, 70, 0
15, 129120, Note_on_c, 12, 74, 65
15, 129231, Note_on_c, 12, 74, 0
15, 129240, Note_on_c, 12, 72, 66
15, 129359, Note_on_c, 12, 72, 0
15, 129600, Note_on_c, 12, 69, 68
15, 129719, Note_on_c, 12, 69, 0
15, 129840, Note_on_c, 12, 70, 70
15, 129951, Note_on_c, 12, 70, 0
15, 129960, Note_on_c, 12, 72, 70
15, 130079, Note_on_c, 12, 72, 0
15, 130320, Note_on_c, 12, 74, 73
15, 130439, Note_on_c, 12, 74, 0
15, 130560, Note_on_c, 12, 77, 74
15, 130671, Note_on_c, 12, 77, 0
15, 130680, Note_on_c, 12, 75, 75
15, 130799, Note_on_c, 12, 75, 0
15, 131040, Note_on_c, 12, 72, 77
15, 131159, Note_on_c, 12, 72, 0
15, 131280, Note_on_c, 12, 74, 79
15, 131391, Note_on_c, 12, 74, 0
15, 131400, Note_on_c, 12, 70, 80
15, 131451, Note_on_c, 12, 70, 0
15, 131460, Note_on_c, 12, 70, 80
15, 131511, Note_on_c, 12, 70, 0
15, 131520, Note_on_c, 12, 75, 80
15, 131639, Note_on_c, 12, 75, 0
15, 132120, Note_on_c, 12, 75, 80
15, 132171, Note_on_c, 12, 75, 0
15, 132180, Note_on_c, 12, 75, 80
15, 132231, Note_on_c, 12, 75, 0
15, 132240, Note_on_c, 12, 82, 80
15, 132359, Note_on_c, 12, 82, 0
15, 132840, Note_on_c, 12, 82, 80
15, 132891, Note_on_c, 12, 82, 0
15, 132900, Note_on_c, 12, 82, 80
15, 132951, Note_on_c, 12, 82, 0
15, 132960, Note_on_c, 12, 75, 92
15, 132960, Note_on_c, 12, 87, 92
15, 133019, Note_on_c, 12, 75, 0
15, 133019, Note_on_c, 12, 87, 0
15, 133200, Note_on_c, 12, 75, 80
15, 133200, Note_on_c, 12, 87, 80
15, 133251, Note_on_c, 12, 75, 0
15, 133251, Note_on_c, 12, 87, 0
15, 133260, Note_on_c, 12, 75, 80
15, 133260, Note_on_c, 12, 87, 80
15, 133311, Note_on_c, 12, 75, 0
15, 133311, Note_on_c, 12, 87, 0
15, 133320, Note_on_c, 12, 86, 92
15, 133320, Note_on_c, 12, 74, 92
15, 133379, Note_on_c, 12, 86, 0
15, 133379, Note_on_c, 12, 74, 0
15, 133560, Note_on_c, 12, 86, 80
15, 133560, Note_on_c, 12, 74, 80
15, 133611, Note_on_c, 12, 86, 0
15, 133611, Note_on_c, 12, 74, 0
15, 133620, Note_on_c, 12, 86, 80
15, 133620, Note_on_c, 12, 74, 80
15, 133671, Note_on_c, 12, 86, 0
15, 133671, Note_on_c, 12, 74, 0
15, 133680, Note_on_c, 12, 84, 80
15, 133680, Note_on_c, 12, 72, 80
15, 133919, Note_on_c, 12, 84, 0
15, 133919, Note_on_c, 12, 72, 0
15, 135000, Note_on_c, 12, 68, 32
15, 135044, Note_on_c, 12, 68, 0
15, 135060, Note_on_c, 12, 68, 32
15, 135104, Note_on_c, 12, 68, 0
15, 135120, Note_on_c, 12, 68, 32
15, 135359, Note_on_c, 12, 68, 0
15, 135720, Note_on_c, 12, 68, 32
15, 135764, Note_on_c, 12, 68, 0
15, 135780, Note_on_c, 12, 68, 32
15, 135824, Note_on_c, 12, 68, 0
15, 135840, Note_on_c, 12, 68, 32
15, 136079, Note_on_c, 12, 68, 0
15, 136440, Note_on_c, 12, 65, 32
15, 136484, Note_on_c, 12, 65, 0
15, 136500, Note_on_c, 12, 65, 32
15, 136544, Note_on_c, 12, 65, 0
15, 136560, Note_on_c, 12, 65, 32
15, 136799, Note_on_c, 12, 65, 0
15, 137160, Note_on_c, 12, 62, 32
15, 137204, Note_on_c, 12, 62, 0
15, 137220, Note_on_c, 12, 62, 32
15, 137264, Note_on_c, 12, 62, 0
15, 137280, Note_on_c, 12, 63, 32
15, 137519, Note_on_c, 12, 63, 0
15, 137880, Note_on_c, 12, 70, 32
15, 137924, Note_on_c, 12, 70, 0
15, 137940, Note_on_c, 12, 70, 32
15, 137984, Note_on_c, 12, 70, 0
15, 138000, Note_on_c, 12, 70, 32
15, 138239, Note_on_c, 12, 70, 0
15, 138600, Note_on_c, 12, 63, 32
15, 138644, Note_on_c, 12, 63, 0
15, 138660, Note_on_c, 12, 63, 32
15, 138704, Note_on_c, 12, 63, 0
15, 138720, Note_on_c, 12, 63, 44
15, 138959, Note_on_c, 12, 63, 0
15, 139320, Note_on_c, 12, 65, 44
15, 139364, Note_on_c, 12, 65, 0
15, 139380, Note_on_c, 12, 65, 44
15, 139424, Note_on_c, 12, 65, 0
15, 139440, Note_on_c, 12, 65, 44
15, 139679, Note_on_c, 12, 65, 0
15, 139680, Note_on_c, 12, 58, 32
15, 139919, Note_on_c, 12, 58, 0
15, 139920, Note_on_c, 12, 60, 38
15, 140039, Note_on_c, 12, 60, 0
15, 140040, Note_on_c, 12, 61, 41
15, 140151, Note_on_c, 12, 61, 0
15, 140160, Note_on_c, 12, 62, 44
15, 140160, Note_on_c, 12, 70, 44
15, 140271, Note_on_c, 12, 62, 0
15, 140271, Note_on_c, 12, 70, 0
15, 140278, Program_c, 12, 45
15, 140280, Note_on_c, 12, 74, 40
15, 140399, Note_on_c, 12, 74, 0
15, 140400, Note_on_c, 12, 70, 40
15, 140519, Note_on_c, 12, 70, 0
15, 140520, Note_on_c, 12, 74, 40
15, 140520, Note_on_c, 12, 65, 40
15, 140759, Note_on_c, 12, 74, 0
15, 140759, Note_on_c, 12, 65, 0
15, 141000, Note_on_c, 12, 72, 40
15, 141119, Note_on_c, 12, 72, 0
15, 141120, Note_on_c, 12, 69, 40
15, 141239, Note_on_c, 12, 69, 0
15, 141240, Note_on_c, 12, 72, 40
15, 141240, Note_on_c, 12, 63, 40
15, 141479, Note_on_c, 12, 72, 0
15, 141479, Note_on_c, 12, 63, 0
15, 141720, Note_on_c, 12, 74, 42
15, 141839, Note_on_c, 12, 74, 0
15, 141840, Note_on_c, 12, 62, 45
15, 141840, Note_on_c, 12, 70, 45
15, 141959, Note_on_c, 12, 62, 0
15, 141959, Note_on_c, 12, 70, 0
15, 141960, Note_on_c, 12, 62, 48
15, 141960, Note_on_c, 12, 74, 48
15, 142199, Note_on_c, 12, 62, 0
15, 142199, Note_on_c, 12, 74, 0
15, 142200, Note_on_c, 12, 74, 53
15, 142319, Note_on_c, 12, 74, 0
15, 142320, Note_on_c, 12, 75, 56
15, 142439, Note_on_c, 12, 75, 0
15, 142440, Note_on_c, 12, 75, 58
15, 142559, Note_on_c, 12, 75, 0
15, 142560, Note_on_c, 12, 74, 61
15, 142679, Note_on_c, 12, 74, 0
15, 142680, Note_on_c, 12, 67, 64
15, 142680, Note_on_c, 12, 58, 64
15, 142799, Note_on_c, 12, 67, 0
15, 142799, Note_on_c, 12, 58, 0
15, 142800, Note_on_c, 12, 58, 56
15, 142800, Note_on_c, 12, 67, 56
15, 142919, Note_on_c, 12, 58, 0
15, 142919, Note_on_c, 12, 67, 0
15, 142920, Note_on_c, 12, 57, 48
15, 142920, Note_on_c, 12, 65, 48
15, 143039, Note_on_c, 12, 57, 0
15, 143039, Note_on_c, 12, 65, 0
15, 143040, Note_on_c, 12, 62, 40
15, 143040, Note_on_c, 12, 65, 40
15, 143159, Note_on_c, 12, 62, 0
15, 143159, Note_on_c, 12, 65, 0
15, 143280, Program_c, 12, 48
15, 143400, Note_on_c, 12, 62, 44
15, 143751, Note_on_c, 12, 62, 0
15, 143760, Note_on_c, 12, 60, 44
15, 143879, Note_on_c, 12, 60, 0
15, 143880, Note_on_c, 12, 62, 44
15, 143999, Note_on_c, 12, 62, 0
15, 144000, Note_on_c, 12, 63, 44
15, 144239, Note_on_c, 12, 63, 0
15, 144240, Note_on_c, 12, 60, 44
15, 144359, Note_on_c, 12, 60, 0
15, 144360, Note_on_c, 12, 63, 44
15, 144471, Note_on_c, 12, 63, 0
15, 144480, Note_on_c, 12, 62, 44
15, 144599, Note_on_c, 12, 62, 0
15, 144600, Note_on_c, 12, 65, 44
15, 144719, Note_on_c, 12, 65, 0
15, 144720, Note_on_c, 12, 70, 44
15, 144839, Note_on_c, 12, 70, 0
15, 144840, Note_on_c, 12, 62, 44
15, 144959, Note_on_c, 12, 62, 0
15, 144960, Note_on_c, 12, 60, 44
15, 145079, Note_on_c, 12, 60, 0
15, 145080, Note_on_c, 12, 58, 44
15, 145199, Note_on_c, 12, 58, 0
15, 145200, Note_on_c, 12, 63, 44
15, 145311, Note_on_c, 12, 63, 0
15, 145320, Note_on_c, 12, 72, 44
15, 145409, Note_on_c, 12, 72, 0
15, 145440, Note_on_c, 12, 72, 44
15, 145529, Note_on_c, 12, 72, 0
15, 145560, Note_on_c, 12, 72, 44
15, 145679, Note_on_c, 12, 72, 0
15, 145680, Note_on_c, 12, 69, 44
15, 145799, Note_on_c, 12, 69, 0
15, 145800, Note_on_c, 12, 65, 44
15, 145889, Note_on_c, 12, 65, 0
15, 145920, Note_on_c, 12, 63, 44
15, 146039, Note_on_c, 12, 63, 0
15, 146040, Program_c, 12, 45
15, 146160, Note_on_c, 12, 69, 40
15, 146279, Note_on_c, 12, 69, 0
15, 146280, Note_on_c, 12, 72, 40
15, 146519, Note_on_c, 12, 72, 0
15, 146760, Note_on_c, 12, 65, 40
15, 146879, Note_on_c, 12, 65, 0
15, 146880, Note_on_c, 12, 58, 41
15, 146999, Note_on_c, 12, 58, 0
15, 147000, Note_on_c, 12, 70, 41
15, 147239, Note_on_c, 12, 70, 0
15, 147480, Note_on_c, 12, 65, 44
15, 147599, Note_on_c, 12, 65, 0
15, 147600, Note_on_c, 12, 60, 45
15, 147719, Note_on_c, 12, 60, 0
15, 147720, Note_on_c, 12, 72, 45
15, 147959, Note_on_c, 12, 72, 0
15, 148200, Note_on_c, 12, 72, 48
15, 148319, Note_on_c, 12, 72, 0
15, 148320, Note_on_c, 12, 60, 48
15, 148439, Note_on_c, 12, 60, 0
15, 148440, Note_on_c, 12, 58, 49
15, 148559, Note_on_c, 12, 58, 0
15, 148560, Note_on_c, 12, 74, 50
15, 148679, Note_on_c, 12, 74, 0
15, 148680, Note_on_c, 12, 62, 50
15, 148799, Note_on_c, 12, 62, 0
15, 148800, Note_on_c, 12, 60, 51
15, 148919, Note_on_c, 12, 60, 0
15, 148920, Note_on_c, 12, 60, 52
15, 149039, Note_on_c, 12, 60, 0
15, 149040, Note_on_c, 12, 57, 52
15, 149159, Note_on_c, 12, 57, 0
15, 149160, Note_on_c, 12, 65, 53
15, 149279, Note_on_c, 12, 65, 0
15, 149280, Note_on_c, 12, 60, 53
15, 149399, Note_on_c, 12, 60, 0
15, 149400, Note_on_c, 12, 65, 54
15, 149519, Note_on_c, 12, 65, 0
15, 149640, Note_on_c, 12, 65, 55
15, 149759, Note_on_c, 12, 65, 0
15, 149760, Note_on_c, 12, 58, 56
15, 149879, Note_on_c, 12, 58, 0
15, 149880, Note_on_c, 12, 65, 57
15, 149999, Note_on_c, 12, 65, 0
15, 150000, Note_on_c, 12, 58, 57
15, 150119, Note_on_c, 12, 58, 0
15, 150120, Note_on_c, 12, 65, 58
15, 150239, Note_on_c, 12, 65, 0
15, 150360, Note_on_c, 12, 65, 59
15, 150479, Note_on_c, 12, 65, 0
15, 150480, Note_on_c, 12, 60, 60
15, 150599, Note_on_c, 12, 60, 0
15, 150600, Note_on_c, 12, 65, 60
15, 150719, Note_on_c, 12, 65, 0
15, 150720, Note_on_c, 12, 60, 61
15, 150839, Note_on_c, 12, 60, 0
15, 150840, Note_on_c, 12, 65, 62
15, 150959, Note_on_c, 12, 65, 0
15, 151080, Note_on_c, 12, 65, 63
15, 151199, Note_on_c, 12, 65, 0
15, 151200, Note_on_c, 12, 60, 64
15, 151319, Note_on_c, 12, 60, 0
15, 151320, Note_on_c, 12, 58, 64
15, 151439, Note_on_c, 12, 58, 0
15, 151440, Note_on_c, 12, 65, 56
15, 151559, Note_on_c, 12, 65, 0
15, 151560, Note_on_c, 12, 70, 48
15, 151679, Note_on_c, 12, 70, 0
15, 151680, Note_on_c, 12, 60, 40
15, 151680, Note_on_c, 12, 65, 40
15, 151919, Note_on_c, 12, 60, 0
15, 151919, Note_on_c, 12, 65, 0
15, 152520, Note_on_c, 12, 65, 48
15, 152639, Note_on_c, 12, 65, 0
15, 152640, Note_on_c, 12, 60, 56
15, 152759, Note_on_c, 12, 60, 0
15, 152760, Note_on_c, 12, 58, 64
15, 152879, Note_on_c, 12, 58, 0
15, 152880, Note_on_c, 12, 70, 56
15, 152999, Note_on_c, 12, 70, 0
15, 153000, Note_on_c, 12, 62, 48
15, 153119, Note_on_c, 12, 62, 0
15, 153120, Note_on_c, 12, 60, 40
15, 153120, Note_on_c, 12, 63, 40
15, 153359, Note_on_c, 12, 60, 0
15, 153359, Note_on_c, 12, 63, 0
15, 153960, Note_on_c, 12, 72, 48
15, 154079, Note_on_c, 12, 72, 0
15, 154080, Note_on_c, 12, 63, 56
15, 154199, Note_on_c, 12, 63, 0
15, 154200, Note_on_c, 12, 62, 64
15, 154319, Note_on_c, 12, 62, 0
15, 154320, Note_on_c, 12, 70, 56
15, 154439, Note_on_c, 12, 70, 0
15, 154440, Note_on_c, 12, 74, 48
15, 154559, Note_on_c, 12, 74, 0
15, 154560, Note_on_c, 12, 75, 40
15, 154799, Note_on_c, 12, 75, 0
15, 154800, Program_c, 12, 48
15, 154920, Note_on_c, 12, 69, 92
15, 154920, Note_on_c, 12, 84, 92
15, 155159, Note_on_c, 12, 69, 0
15, 155159, Note_on_c, 12, 84, 0
15, 155520, Note_on_c, 12, 63, 84
15, 155639, Note_on_c, 12, 63, 0
15, 155880, Note_on_c, 12, 63, 72
15, 155999, Note_on_c, 12, 63, 0
15, 156240, Note_on_c, 12, 63, 60
15, 156359, Note_on_c, 12, 63, 0
15, 156600, Note_on_c, 12, 63, 48
15, 156719, Note_on_c, 12, 63, 0
15, 156960, Note_on_c, 12, 63, 44
15, 157079, Note_on_c, 12, 63, 0
15, 157320, Note_on_c, 12, 60, 32
15, 157320, Note_on_c, 12, 63, 32
15, 157439, Note_on_c, 12, 60, 0
15, 157439, Note_on_c, 12, 63, 0
15, 157680, Note_on_c, 12, 70, 36
15, 157799, Note_on_c, 12, 70, 0
15, 158040, Note_on_c, 12, 58, 42
15, 158159, Note_on_c, 12, 58, 0
15, 158400, Note_on_c, 12, 62, 48
15, 158400, Note_on_c, 12, 58, 48
15, 158519, Note_on_c, 12, 62, 0
15, 158519, Note_on_c, 12, 58, 0
15, 158760, Note_on_c, 12, 72, 54
15, 158760, Note_on_c, 12, 69, 54
15, 158879, Note_on_c, 12, 72, 0
15, 158879, Note_on_c, 12, 69, 0
15, 159120, Note_on_c, 12, 70, 60
15, 159239, Note_on_c, 12, 70, 0
15, 159480, Note_on_c, 12, 67, 66
15, 159480, Note_on_c, 12, 58, 66
15, 159599, Note_on_c, 12, 67, 0
15, 159599, Note_on_c, 12, 58, 0
15, 159840, Note_on_c, 12, 58, 72
15, 159840, Note_on_c, 12, 65, 72
15, 159959, Note_on_c, 12, 58, 0
15, 159959, Note_on_c, 12, 65, 0
15, 160200, Note_on_c, 12, 81, 80
15, 160200, Note_on_c, 12, 65, 80
15, 160200, Note_on_c, 12, 72, 80
15, 160319, Note_on_c, 12, 81, 0
15, 160319, Note_on_c, 12, 65, 0
15, 160319, Note_on_c, 12, 72, 0
15, 161040, Note_on_c, 12, 62, 44
15, 161079, Note_on_c, 12, 62, 0
15, 161080, Note_on_c, 12, 62, 44
15, 161119, Note_on_c, 12, 62, 0
15, 161120, Note_on_c, 12, 62, 44
15, 161155, Note_on_c, 12, 62, 0
15, 161160, Note_on_c, 12, 62, 44
15, 161199, Note_on_c, 12, 62, 0
15, 161200, Note_on_c, 12, 62, 44
15, 161239, Note_on_c, 12, 62, 0
15, 161240, Note_on_c, 12, 62, 43
15, 161275, Note_on_c, 12, 62, 0
15, 161280, Note_on_c, 12, 62, 43
15, 161319, Note_on_c, 12, 62, 0
15, 161320, Note_on_c, 12, 62, 43
15, 161359, Note_on_c, 12, 62, 0
15, 161360, Note_on_c, 12, 62, 43
15, 161395, Note_on_c, 12, 62, 0
15, 161400, Note_on_c, 12, 62, 42
15, 161439, Note_on_c, 12, 62, 0
15, 161440, Note_on_c, 12, 62, 42
15, 161479, Note_on_c, 12, 62, 0
15, 161480, Note_on_c, 12, 62, 42
15, 161515, Note_on_c, 12, 62, 0
15, 161520, Note_on_c, 12, 62, 42
15, 161559, Note_on_c, 12, 62, 0
15, 161560, Note_on_c, 12, 62, 42
15, 161599, Note_on_c, 12, 62, 0
15, 161600, Note_on_c, 12, 62, 41
15, 161635, Note_on_c, 12, 62, 0
15, 161640, Note_on_c, 12, 63, 41
15, 161679, Note_on_c, 12, 63, 0
15, 161680, Note_on_c, 12, 63, 41
15, 161719, Note_on_c, 12, 63, 0
15, 161720, Note_on_c, 12, 63, 41
15, 161755, Note_on_c, 12, 63, 0
15, 161760, Note_on_c, 12, 63, 40
15, 161799, Note_on_c, 12, 63, 0
15, 161800, Note_on_c, 12, 63, 40
15, 161839, Note_on_c, 12, 63, 0
15, 161840, Note_on_c, 12, 63, 40
15, 161875, Note_on_c, 12, 63, 0
15, 161880, Note_on_c, 12, 62, 40
15, 161919, Note_on_c, 12, 62, 0
15, 161920, Note_on_c, 12, 62, 40
15, 161959, Note_on_c, 12, 62, 0
15, 161960, Note_on_c, 12, 62, 39
15, 161995, Note_on_c, 12, 62, 0
15, 162000, Note_on_c, 12, 62, 39
15, 162039, Note_on_c, 12, 62, 0
15, 162040, Note_on_c, 12, 62, 39
15, 162079, Note_on_c, 12, 62, 0
15, 162080, Note_on_c, 12, 62, 39
15, 162115, Note_on_c, 12, 62, 0
15, 162120, Note_on_c, 12, 62, 38
15, 162159, Note_on_c, 12, 62, 0
15, 162160, Note_on_c, 12, 62, 38
15, 162199, Note_on_c, 12, 62, 0
15, 162200, Note_on_c, 12, 62, 38
15, 162235, Note_on_c, 12, 62, 0
15, 162240, Note_on_c, 12, 62, 38
15, 162279, Note_on_c, 12, 62, 0
15, 162280, Note_on_c, 12, 62, 38
15, 162319, Note_on_c, 12, 62, 0
15, 162320, Note_on_c, 12, 62, 37
15, 162355, Note_on_c, 12, 62, 0
15, 162360, Note_on_c, 12, 63, 37
15, 162399, Note_on_c, 12, 63, 0
15, 162400, Note_on_c, 12, 63, 37
15, 162439, Note_on_c, 12, 63, 0
15, 162440, Note_on_c, 12, 63, 37
15, 162475, Note_on_c, 12, 63, 0
15, 162480, Note_on_c, 12, 63, 36
15, 162519, Note_on_c, 12, 63, 0
15, 162520, Note_on_c, 12, 63, 36
15, 162559, Note_on_c, 12, 63, 0
15, 162560, Note_on_c, 12, 63, 36
15, 162595, Note_on_c, 12, 63, 0
15, 162600, Note_on_c, 12, 62, 36
15, 162639, Note_on_c, 12, 62, 0
15, 162640, Note_on_c, 12, 62, 36
15, 162679, Note_on_c, 12, 62, 0
15, 162680, Note_on_c, 12, 62, 35
15, 162715, Note_on_c, 12, 62, 0
15, 162720, Note_on_c, 12, 62, 35
15, 162759, Note_on_c, 12, 62, 0
15, 162760, Note_on_c, 12, 62, 35
15, 162799, Note_on_c, 12, 62, 0
15, 162800, Note_on_c, 12, 62, 35
15, 162835, Note_on_c, 12, 62, 0
15, 162840, Note_on_c, 12, 62, 34
15, 162879, Note_on_c, 12, 62, 0
15, 162880, Note_on_c, 12, 62, 34
15, 162919, Note_on_c, 12, 62, 0
15, 162920, Note_on_c, 12, 62, 34
15, 162955, Note_on_c, 12, 62, 0
15, 162960, Note_on_c, 12, 57, 34
15, 162960, Note_on_c, 12, 63, 34
15, 162999, Note_on_c, 12, 57, 0
15, 162999, Note_on_c, 12, 63, 0
15, 163000, Note_on_c, 12, 63, 34
15, 163000, Note_on_c, 12, 57, 34
15, 163039, Note_on_c, 12, 63, 0
15, 163039, Note_on_c, 12, 57, 0
15, 163040, Note_on_c, 12, 63, 33
15, 163040, Note_on_c, 12, 57, 33
15, 163075, Note_on_c, 12, 63, 0
15, 163075, Note_on_c, 12, 57, 0
15, 163080, Note_on_c, 12, 57, 33
15, 163119, Note_on_c, 12, 57, 0
15, 163120, Note_on_c, 12, 57, 33
15, 163159, Note_on_c, 12, 57, 0
15, 163160, Note_on_c, 12, 57, 33
15, 163195, Note_on_c, 12, 57, 0
15, 163200, Note_on_c, 12, 57, 32
15, 163239, Note_on_c, 12, 57, 0
15, 163240, Note_on_c, 12, 57, 32
15, 163279, Note_on_c, 12, 57, 0
15, 163280, Note_on_c, 12, 57, 32
15, 163315, Note_on_c, 12, 57, 0
15, 163320, Note_on_c, 12, 62, 32
15, 163320, Note_on_c, 12, 58, 32
15, 163359, Note_on_c, 12, 62, 0
15, 163359, Note_on_c, 12, 58, 0
15, 163360, Note_on_c, 12, 62, 32
15, 163360, Note_on_c, 12, 58, 32
15, 163399, Note_on_c, 12, 62, 0
15, 163399, Note_on_c, 12, 58, 0
15, 163400, Note_on_c, 12, 58, 32
15, 163400, Note_on_c, 12, 62, 32
15, 163435, Note_on_c, 12, 58, 0
15, 163435, Note_on_c, 12, 62, 0
15, 163440, Note_on_c, 12, 62, 32
15, 163440, Note_on_c, 12, 58, 32
15, 163479, Note_on_c, 12, 62, 0
15, 163479, Note_on_c, 12, 58, 0
15, 163480, Note_on_c, 12, 62, 32
15, 163480, Note_on_c, 12, 58, 32
15, 163519, Note_on_c, 12, 62, 0
15, 163519, Note_on_c, 12, 58, 0
15, 163520, Note_on_c, 12, 58, 32
15, 163520, Note_on_c, 12, 62, 32
15, 163555, Note_on_c, 12, 58, 0
15, 163555, Note_on_c, 12, 62, 0
15, 163560, Note_on_c, 12, 62, 32
15, 163560, Note_on_c, 12, 58, 32
15, 163599, Note_on_c, 12, 62, 0
15, 163599, Note_on_c, 12, 58, 0
15, 163600, Note_on_c, 12, 62, 32
15, 163600, Note_on_c, 12, 58, 32
15, 163639, Note_on_c, 12, 62, 0
15, 163639, Note_on_c, 12, 58, 0
15, 163640, Note_on_c, 12, 58, 32
15, 163640, Note_on_c, 12, 62, 32
15, 163675, Note_on_c, 12, 58, 0
15, 163675, Note_on_c, 12, 62, 0
15, 163680, Note_on_c, 12, 58, 32
15, 163680, Note_on_c, 12, 62, 32
15, 163719, Note_on_c, 12, 58, 0
15, 163719, Note_on_c, 12, 62, 0
15, 163720, Note_on_c, 12, 62, 32
15, 163720, Note_on_c, 12, 58, 32
15, 163759, Note_on_c, 12, 62, 0
15, 163759, Note_on_c, 12, 58, 0
15, 163760, Note_on_c, 12, 62, 32
15, 163760, Note_on_c, 12, 58, 32
15, 163795, Note_on_c, 12, 62, 0
15, 163795, Note_on_c, 12, 58, 0
15, 163800, Note_on_c, 12, 57, 32
15, 163839, Note_on_c, 12, 57, 0
15, 163840, Note_on_c, 12, 57, 32
15, 163879, Note_on_c, 12, 57, 0
15, 163880, Note_on_c, 12, 57, 32
15, 163915, Note_on_c, 12, 57, 0
15, 163920, Note_on_c, 12, 57, 32
15, 163959, Note_on_c, 12, 57, 0
15, 163960, Note_on_c, 12, 57, 32
15, 163999, Note_on_c, 12, 57, 0
15, 164000, Note_on_c, 12, 57, 32
15, 164035, Note_on_c, 12, 57, 0
15, 164040, Note_on_c, 12, 58, 32
15, 164079, Note_on_c, 12, 58, 0
15, 164080, Note_on_c, 12, 58, 32
15, 164119, Note_on_c, 12, 58, 0
15, 164120, Note_on_c, 12, 58, 32
15, 164155, Note_on_c, 12, 58, 0
15, 164160, Note_on_c, 12, 57, 32
15, 164199, Note_on_c, 12, 57, 0
15, 164200, Note_on_c, 12, 57, 32
15, 164239, Note_on_c, 12, 57, 0
15, 164240, Note_on_c, 12, 57, 32
15, 164275, Note_on_c, 12, 57, 0
15, 164280, Note_on_c, 12, 57, 32
15, 164319, Note_on_c, 12, 57, 0
15, 164320, Note_on_c, 12, 57, 32
15, 164359, Note_on_c, 12, 57, 0
15, 164360, Note_on_c, 12, 57, 32
15, 164395, Note_on_c, 12, 57, 0
15, 164400, Note_on_c, 12, 58, 32
15, 164439, Note_on_c, 12, 58, 0
15, 164440, Note_on_c, 12, 58, 32
15, 164479, Note_on_c, 12, 58, 0
15, 164480, Note_on_c, 12, 58, 32
15, 164515, Note_on_c, 12, 58, 0
15, 164520, Note_on_c, 12, 57, 32
15, 164559, Note_on_c, 12, 57, 0
15, 164560, Note_on_c, 12, 57, 32
15, 164599, Note_on_c, 12, 57, 0
15, 164600, Note_on_c, 12, 57, 32
15, 164635, Note_on_c, 12, 57, 0
15, 164640, Note_on_c, 12, 62, 32
15, 164679, Note_on_c, 12, 62, 0
15, 164680, Note_on_c, 12, 62, 33
15, 164719, Note_on_c, 12, 62, 0
15, 164720, Note_on_c, 12, 62, 34
15, 164755, Note_on_c, 12, 62, 0
15, 164760, Note_on_c, 12, 62, 36
15, 164799, Note_on_c, 12, 62, 0
15, 164800, Note_on_c, 12, 62, 37
15, 164839, Note_on_c, 12, 62, 0
15, 164840, Note_on_c, 12, 62, 38
15, 164875, Note_on_c, 12, 62, 0
15, 164880, Note_on_c, 12, 62, 40
15, 164919, Note_on_c, 12, 62, 0
15, 164920, Note_on_c, 12, 62, 41
15, 164959, Note_on_c, 12, 62, 0
15, 164960, Note_on_c, 12, 62, 42
15, 164995, Note_on_c, 12, 62, 0
15, 165000, Note_on_c, 12, 65, 44
15, 165039, Note_on_c, 12, 65, 0
15, 165040, Note_on_c, 12, 65, 45
15, 165079, Note_on_c, 12, 65, 0
15, 165080, Note_on_c, 12, 65, 46
15, 165115, Note_on_c, 12, 65, 0
15, 165120, Note_on_c, 12, 65, 48
15, 165159, Note_on_c, 12, 65, 0
15, 165160, Note_on_c, 12, 65, 49
15, 165199, Note_on_c, 12, 65, 0
15, 165200, Note_on_c, 12, 65, 50
15, 165235, Note_on_c, 12, 65, 0
15, 165240, Note_on_c, 12, 65, 52
15, 165279, Note_on_c, 12, 65, 0
15, 165280, Note_on_c, 12, 65, 53
15, 165319, Note_on_c, 12, 65, 0
15, 165320, Note_on_c, 12, 65, 54
15, 165355, Note_on_c, 12, 65, 0
15, 165360, Note_on_c, 12, 70, 56
15, 165399, Note_on_c, 12, 70, 0
15, 165400, Note_on_c, 12, 70, 57
15, 165439, Note_on_c, 12, 70, 0
15, 165440, Note_on_c, 12, 70, 58
15, 165475, Note_on_c, 12, 70, 0
15, 165480, Note_on_c, 12, 70, 60
15, 165519, Note_on_c, 12, 70, 0
15, 165520, Note_on_c, 12, 70, 61
15, 165559, Note_on_c, 12, 70, 0
15, 165560, Note_on_c, 12, 70, 62
15, 165595, Note_on_c, 12, 70, 0
15, 165600, Note_on_c, 12, 70, 64
15, 165639, Note_on_c, 12, 70, 0
15, 165640, Note_on_c, 12, 70, 65
15, 165679, Note_on_c, 12, 70, 0
15, 165680, Note_on_c, 12, 70, 66
15, 165715, Note_on_c, 12, 70, 0
15, 165720, Note_on_c, 12, 74, 68
15, 165759, Note_on_c, 12, 74, 0
15, 165760, Note_on_c, 12, 74, 69
15, 165799, Note_on_c, 12, 74, 0
15, 165800, Note_on_c, 12, 74, 70
15, 165835, Note_on_c, 12, 74, 0
15, 165840, Note_on_c, 12, 74, 72
15, 165879, Note_on_c, 12, 74, 0
15, 165880, Note_on_c, 12, 74, 73
15, 165919, Note_on_c, 12, 74, 0
15, 165920, Note_on_c, 12, 74, 74
15, 165955, Note_on_c, 12, 74, 0
15, 165960, Note_on_c, 12, 74, 76
15, 165999, Note_on_c, 12, 74, 0
15, 166000, Note_on_c, 12, 74, 77
15, 166039, Note_on_c, 12, 74, 0
15, 166040, Note_on_c, 12, 74, 78
15, 166075, Note_on_c, 12, 74, 0
15, 166080, Note_on_c, 12, 74, 80
15, 166080, Note_on_c, 12, 82, 80
15, 166080, Note_on_c, 12, 65, 80
15, 166319, Note_on_c, 12, 74, 0
15, 166319, Note_on_c, 12, 82, 0
15, 166319, Note_on_c, 12, 65, 0
15, 166800, Note_on_c, 12, 72, 80
15, 166830, Control_c, 12, 11, 69
15, 167039, Note_on_c, 12, 72, 0
15, 167400, Control_c, 12, 11, 127
15, 167520, Note_on_c, 12, 72, 44
15, 167759, Note_on_c, 12, 72, 0
15, 167880, Note_on_c, 12, 60, 44
15, 168119, Note_on_c, 12, 60, 0
15, 168240, Note_on_c, 12, 62, 44
15, 168240, Note_on_c, 12, 58, 44
15, 168479, Note_on_c, 12, 62, 0
15, 168479, Note_on_c, 12, 58, 0
15, 168960, Note_on_c, 12, 72, 44
15, 169199, Note_on_c, 12, 72, 0
15, 169320, Note_on_c, 12, 60, 80
15, 169320, Note_on_c, 12, 69, 80
15, 169320, Note_on_c, 12, 65, 80
15, 169559, Note_on_c, 12, 60, 0
15, 169559, Note_on_c, 12, 69, 0
15, 169559, Note_on_c, 12, 65, 0
15, 169678, Program_c, 12, 45
15, 169680, Note_on_c, 12, 70, 44
15, 169680, Note_on_c, 12, 62, 44
15, 169919, Note_on_c, 12, 70, 0
15, 169919, Note_on_c, 12, 62, 0
15, 170040, Program_c, 12, 48
15, 170040, End_track
16, 0, Start_track
16, 0, Title_t, "Viola "
16, 0, MIDI_port, 0
16, 0, Program_c, 13, 48
16, 0, Control_c, 13, 121, 0
16, 0, Control_c, 13, 11, 89
16, 0, Control_c, 13, 10, 75
16, 0, Control_c, 13, 7, 96
16, 720, Note_on_c, 13, 57, 68
16, 720, Control_c, 13, 11, 89
16, 780, Control_c, 13, 11, 92
16, 840, Control_c, 13, 11, 95
16, 900, Control_c, 13, 11, 99
16, 960, Control_c, 13, 11, 101
16, 1020, Control_c, 13, 11, 105
16, 1080, Control_c, 13, 11, 109
16, 1140, Control_c, 13, 11, 111
16, 1200, Control_c, 13, 11, 115
16, 1260, Control_c, 13, 11, 117
16, 1320, Control_c, 13, 11, 121
16, 1380, Control_c, 13, 11, 124
16, 1439, Note_on_c, 13, 57, 0
16, 1440, Note_on_c, 13, 57, 68
16, 1440, Control_c, 13, 11, 127
16, 1480, Control_c, 13, 11, 124
16, 1520, Control_c, 13, 11, 121
16, 1560, Control_c, 13, 11, 117
16, 1600, Control_c, 13, 11, 115
16, 1640, Control_c, 13, 11, 111
16, 1680, Control_c, 13, 11, 109
16, 1720, Control_c, 13, 11, 105
16, 1760, Control_c, 13, 11, 101
16, 1799, Note_on_c, 13, 57, 0
16, 1800, Note_on_c, 13, 58, 68
16, 1800, Control_c, 13, 11, 99
16, 1840, Control_c, 13, 11, 95
16, 1880, Control_c, 13, 11, 92
16, 1911, Note_on_c, 13, 58, 0
16, 1918, Control_c, 13, 11, 89
16, 1920, Note_on_c, 13, 53, 68
16, 2151, Note_on_c, 13, 53, 0
16, 2160, Note_on_c, 13, 53, 68
16, 2631, Note_on_c, 13, 53, 0
16, 2640, Note_on_c, 13, 53, 68
16, 3111, Note_on_c, 13, 53, 0
16, 3120, Note_on_c, 13, 53, 68
16, 3591, Note_on_c, 13, 53, 0
16, 3600, Note_on_c, 13, 53, 68
16, 4071, Note_on_c, 13, 53, 0
16, 4080, Note_on_c, 13, 53, 68
16, 4559, Note_on_c, 13, 53, 0
16, 4560, Note_on_c, 13, 52, 68
16, 4791, Note_on_c, 13, 52, 0
16, 4800, Control_c, 13, 11, 89
16, 4802, Note_on_c, 13, 53, 68
16, 4960, Control_c, 13, 11, 92
16, 5000, Control_c, 13, 11, 95
16, 5033, Note_on_c, 13, 53, 0
16, 5040, Control_c, 13, 11, 99
16, 5040, Note_on_c, 13, 58, 68
16, 5080, Control_c, 13, 11, 101
16, 5120, Control_c, 13, 11, 105
16, 5160, Control_c, 13, 11, 109
16, 5200, Control_c, 13, 11, 111
16, 5240, Control_c, 13, 11, 115
16, 5280, Control_c, 13, 11, 117
16, 5320, Control_c, 13, 11, 121
16, 5360, Control_c, 13, 11, 124
16, 5399, Note_on_c, 13, 58, 0
16, 5400, Note_on_c, 13, 57, 68
16, 5519, Note_on_c, 13, 57, 0
16, 5520, Note_on_c, 13, 67, 68
16, 5520, Control_c, 13, 11, 127
16, 5560, Control_c, 13, 11, 121
16, 5600, Control_c, 13, 11, 115
16, 5639, Note_on_c, 13, 67, 0
16, 5640, Note_on_c, 13, 65, 68
16, 5640, Control_c, 13, 11, 109
16, 5680, Control_c, 13, 11, 101
16, 5720, Control_c, 13, 11, 95
16, 5751, Note_on_c, 13, 65, 0
16, 5760, Note_on_c, 13, 65, 44
16, 5760, Control_c, 13, 11, 127
16, 5999, Note_on_c, 13, 65, 0
16, 6480, Note_on_c, 13, 53, 44
16, 6951, Note_on_c, 13, 53, 0
16, 6960, Note_on_c, 13, 53, 44
16, 7431, Note_on_c, 13, 53, 0
16, 7440, Note_on_c, 13, 53, 44
16, 7911, Note_on_c, 13, 53, 0
16, 7920, Note_on_c, 13, 53, 44
16, 8391, Note_on_c, 13, 53, 0
16, 8400, Note_on_c, 13, 55, 44
16, 8871, Note_on_c, 13, 55, 0
16, 8880, Note_on_c, 13, 58, 44
16, 9359, Note_on_c, 13, 58, 0
16, 9360, Note_on_c, 13, 65, 44
16, 9479, Note_on_c, 13, 65, 0
16, 9480, Note_on_c, 13, 63, 44
16, 9591, Note_on_c, 13, 63, 0
16, 9598, Control_c, 13, 11, 89
16, 9600, Note_on_c, 13, 63, 68
16, 9630, Control_c, 13, 11, 92
16, 9660, Control_c, 13, 11, 95
16, 9690, Control_c, 13, 11, 99
16, 9720, Control_c, 13, 11, 101
16, 9750, Control_c, 13, 11, 105
16, 9780, Control_c, 13, 11, 109
16, 9810, Control_c, 13, 11, 111
16, 9840, Control_c, 13, 11, 115
16, 9870, Control_c, 13, 11, 117
16, 9900, Control_c, 13, 11, 121
16, 9930, Control_c, 13, 11, 124
16, 9959, Note_on_c, 13, 63, 0
16, 9960, Note_on_c, 13, 62, 68
16, 9960, Control_c, 13, 11, 127
16, 10020, Control_c, 13, 11, 121
16, 10071, Note_on_c, 13, 62, 0
16, 10080, Control_c, 13, 11, 115
16, 10080, Note_on_c, 13, 62, 68
16, 10140, Control_c, 13, 11, 109
16, 10200, Control_c, 13, 11, 101
16, 10260, Control_c, 13, 11, 95
16, 10319, Note_on_c, 13, 62, 0
16, 11040, Control_c, 13, 11, 127
16, 11280, Note_on_c, 13, 53, 44
16, 11519, Note_on_c, 13, 53, 0
16, 11520, Note_on_c, 13, 55, 44
16, 11759, Note_on_c, 13, 55, 0
16, 11760, Note_on_c, 13, 57, 44
16, 11999, Note_on_c, 13, 57, 0
16, 12000, Note_on_c, 13, 58, 44
16, 12239, Note_on_c, 13, 58, 0
16, 12240, Note_on_c, 13, 53, 44
16, 12479, Note_on_c, 13, 53, 0
16, 12480, Note_on_c, 13, 55, 44
16, 12719, Note_on_c, 13, 55, 0
16, 12720, Note_on_c, 13, 57, 44
16, 12959, Note_on_c, 13, 57, 0
16, 12960, Note_on_c, 13, 53, 44
16, 13199, Note_on_c, 13, 53, 0
16, 13200, Note_on_c, 13, 58, 44
16, 13439, Note_on_c, 13, 58, 0
16, 14040, Note_on_c, 13, 58, 46
16, 14151, Note_on_c, 13, 58, 0
16, 14160, Note_on_c, 13, 51, 48
16, 14160, Note_on_c, 13, 55, 48
16, 14271, Note_on_c, 13, 51, 0
16, 14271, Note_on_c, 13, 55, 0
16, 14280, Note_on_c, 13, 55, 50
16, 14280, Note_on_c, 13, 51, 50
16, 14391, Note_on_c, 13, 55, 0
16, 14391, Note_on_c, 13, 51, 0
16, 14400, Note_on_c, 13, 55, 52
16, 14400, Note_on_c, 13, 51, 52
16, 14511, Note_on_c, 13, 55, 0
16, 14511, Note_on_c, 13, 51, 0
16, 14520, Note_on_c, 13, 51, 54
16, 14520, Note_on_c, 13, 55, 54
16, 14631, Note_on_c, 13, 51, 0
16, 14631, Note_on_c, 13, 55, 0
16, 14640, Note_on_c, 13, 55, 56
16, 14640, Note_on_c, 13, 51, 56
16, 14751, Note_on_c, 13, 55, 0
16, 14751, Note_on_c, 13, 51, 0
16, 14760, Note_on_c, 13, 55, 58
16, 14760, Note_on_c, 13, 51, 58
16, 14871, Note_on_c, 13, 55, 0
16, 14871, Note_on_c, 13, 51, 0
16, 14880, Note_on_c, 13, 52, 60
16, 14880, Note_on_c, 13, 55, 60
16, 14991, Note_on_c, 13, 52, 0
16, 14991, Note_on_c, 13, 55, 0
16, 15000, Note_on_c, 13, 55, 62
16, 15000, Note_on_c, 13, 58, 62
16, 15111, Note_on_c, 13, 55, 0
16, 15111, Note_on_c, 13, 58, 0
16, 15120, Note_on_c, 13, 58, 64
16, 15120, Note_on_c, 13, 55, 64
16, 15231, Note_on_c, 13, 58, 0
16, 15231, Note_on_c, 13, 55, 0
16, 15240, Note_on_c, 13, 58, 66
16, 15240, Note_on_c, 13, 55, 66
16, 15351, Note_on_c, 13, 58, 0
16, 15351, Note_on_c, 13, 55, 0
16, 15360, Note_on_c, 13, 58, 68
16, 15360, Note_on_c, 13, 55, 68
16, 15471, Note_on_c, 13, 58, 0
16, 15471, Note_on_c, 13, 55, 0
16, 15480, Note_on_c, 13, 58, 62
16, 15591, Note_on_c, 13, 58, 0
16, 15600, Note_on_c, 13, 58, 56
16, 15711, Note_on_c, 13, 58, 0
16, 15720, Note_on_c, 13, 58, 50
16, 15831, Note_on_c, 13, 58, 0
16, 15840, Note_on_c, 13, 58, 44
16, 15959, Note_on_c, 13, 58, 0
16, 15960, Note_on_c, 13, 62, 44
16, 16079, Note_on_c, 13, 62, 0
16, 16080, Note_on_c, 13, 60, 44
16, 16199, Note_on_c, 13, 60, 0
16, 16200, Note_on_c, 13, 57, 44
16, 16311, Note_on_c, 13, 57, 0
16, 16320, Note_on_c, 13, 57, 44
16, 16679, Note_on_c, 13, 57, 0
16, 16680, Note_on_c, 13, 53, 44
16, 16791, Note_on_c, 13, 53, 0
16, 16800, Note_on_c, 13, 53, 44
16, 17039, Note_on_c, 13, 53, 0
16, 17760, Note_on_c, 13, 58, 44
16, 17879, Note_on_c, 13, 58, 0
16, 18720, Note_on_c, 13, 58, 44
16, 18831, Note_on_c, 13, 58, 0
16, 18840, Note_on_c, 13, 55, 44
16, 18840, Note_on_c, 13, 58, 44
16, 18951, Note_on_c, 13, 55, 0
16, 18951, Note_on_c, 13, 58, 0
16, 18960, Note_on_c, 13, 51, 46
16, 18960, Note_on_c, 13, 55, 46
16, 19079, Note_on_c, 13, 51, 0
16, 19079, Note_on_c, 13, 55, 0
16, 19140, Note_on_c, 13, 51, 49
16, 19169, Note_on_c, 13, 51, 0
16, 19170, Note_on_c, 13, 55, 50
16, 19199, Note_on_c, 13, 55, 0
16, 19200, Note_on_c, 13, 58, 50
16, 19319, Note_on_c, 13, 58, 0
16, 19380, Note_on_c, 13, 51, 53
16, 19409, Note_on_c, 13, 51, 0
16, 19410, Note_on_c, 13, 55, 54
16, 19439, Note_on_c, 13, 55, 0
16, 19440, Note_on_c, 13, 58, 54
16, 19559, Note_on_c, 13, 58, 0
16, 19620, Note_on_c, 13, 52, 58
16, 19649, Note_on_c, 13, 52, 0
16, 19650, Note_on_c, 13, 55, 58
16, 19679, Note_on_c, 13, 55, 0
16, 19680, Note_on_c, 13, 58, 59
16, 19799, Note_on_c, 13, 58, 0
16, 19860, Note_on_c, 13, 52, 62
16, 19889, Note_on_c, 13, 52, 0
16, 19890, Note_on_c, 13, 55, 63
16, 19919, Note_on_c, 13, 55, 0
16, 19920, Note_on_c, 13, 58, 63
16, 20039, Note_on_c, 13, 58, 0
16, 20100, Note_on_c, 13, 52, 66
16, 20129, Note_on_c, 13, 52, 0
16, 20130, Note_on_c, 13, 55, 67
16, 20159, Note_on_c, 13, 55, 0
16, 20160, Note_on_c, 13, 58, 68
16, 20219, Note_on_c, 13, 58, 0
16, 20220, Note_on_c, 13, 53, 65
16, 20249, Note_on_c, 13, 53, 0
16, 20250, Note_on_c, 13, 58, 64
16, 20279, Note_on_c, 13, 58, 0
16, 20280, Note_on_c, 13, 62, 62
16, 20339, Note_on_c, 13, 62, 0
16, 20340, Note_on_c, 13, 53, 59
16, 20369, Note_on_c, 13, 53, 0
16, 20370, Note_on_c, 13, 58, 58
16, 20399, Note_on_c, 13, 58, 0
16, 20400, Note_on_c, 13, 62, 56
16, 20519, Note_on_c, 13, 62, 0
16, 20580, Note_on_c, 13, 53, 47
16, 20609, Note_on_c, 13, 53, 0
16, 20610, Note_on_c, 13, 58, 46
16, 20639, Note_on_c, 13, 58, 0
16, 20640, Note_on_c, 13, 62, 44
16, 20759, Note_on_c, 13, 62, 0
16, 20820, Note_on_c, 13, 53, 44
16, 20849, Note_on_c, 13, 53, 0
16, 20850, Note_on_c, 13, 57, 44
16, 20879, Note_on_c, 13, 57, 0
16, 20880, Note_on_c, 13, 60, 44
16, 20999, Note_on_c, 13, 60, 0
16, 21090, Note_on_c, 13, 53, 44
16, 21119, Note_on_c, 13, 53, 0
16, 21120, Note_on_c, 13, 57, 38
16, 21239, Note_on_c, 13, 57, 0
16, 21330, Note_on_c, 13, 53, 38
16, 21359, Note_on_c, 13, 53, 0
16, 21360, Note_on_c, 13, 57, 38
16, 21479, Note_on_c, 13, 57, 0
16, 21570, Note_on_c, 13, 53, 38
16, 21599, Note_on_c, 13, 53, 0
16, 21600, Note_on_c, 13, 57, 38
16, 21719, Note_on_c, 13, 57, 0
16, 21810, Note_on_c, 13, 54, 38
16, 21839, Note_on_c, 13, 54, 0
16, 21840, Note_on_c, 13, 57, 38
16, 21959, Note_on_c, 13, 57, 0
16, 22050, Note_on_c, 13, 54, 38
16, 22079, Note_on_c, 13, 54, 0
16, 22080, Note_on_c, 13, 57, 32
16, 22199, Note_on_c, 13, 57, 0
16, 22290, Note_on_c, 13, 54, 32
16, 22319, Note_on_c, 13, 54, 0
16, 22320, Note_on_c, 13, 57, 32
16, 22439, Note_on_c, 13, 57, 0
16, 22530, Note_on_c, 13, 54, 32
16, 22559, Note_on_c, 13, 54, 0
16, 22560, Note_on_c, 13, 57, 32
16, 22679, Note_on_c, 13, 57, 0
16, 22918, Control_c, 13, 11, 69
16, 22920, Note_on_c, 13, 66, 68
16, 23159, Note_on_c, 13, 66, 0
16, 23160, Note_on_c, 13, 64, 68
16, 23330, Control_c, 13, 11, 74
16, 23391, Note_on_c, 13, 64, 0
16, 23400, Note_on_c, 13, 64, 68
16, 23500, Control_c, 13, 11, 79
16, 23579, Note_on_c, 13, 64, 0
16, 23580, Note_on_c, 13, 66, 68
16, 23639, Note_on_c, 13, 66, 0
16, 23640, Note_on_c, 13, 67, 68
16, 23670, Control_c, 13, 11, 84
16, 23699, Note_on_c, 13, 67, 0
16, 23700, Note_on_c, 13, 64, 68
16, 23751, Note_on_c, 13, 64, 0
16, 23760, Note_on_c, 13, 67, 68
16, 23840, Control_c, 13, 11, 89
16, 23879, Note_on_c, 13, 67, 0
16, 23880, Note_on_c, 13, 66, 68
16, 24010, Control_c, 13, 11, 94
16, 24111, Note_on_c, 13, 66, 0
16, 24120, Note_on_c, 13, 66, 68
16, 24180, Control_c, 13, 11, 99
16, 24299, Note_on_c, 13, 66, 0
16, 24300, Note_on_c, 13, 67, 68
16, 24350, Control_c, 13, 11, 102
16, 24359, Note_on_c, 13, 67, 0
16, 24360, Note_on_c, 13, 69, 68
16, 24419, Note_on_c, 13, 69, 0
16, 24420, Note_on_c, 13, 66, 68
16, 24471, Note_on_c, 13, 66, 0
16, 24480, Note_on_c, 13, 69, 68
16, 24520, Control_c, 13, 11, 107
16, 24599, Note_on_c, 13, 69, 0
16, 24600, Note_on_c, 13, 67, 68
16, 24690, Control_c, 13, 11, 112
16, 24831, Note_on_c, 13, 67, 0
16, 24840, Note_on_c, 13, 69, 68
16, 24860, Control_c, 13, 11, 117
16, 24944, Note_on_c, 13, 69, 0
16, 24960, Note_on_c, 13, 71, 68
16, 25030, Control_c, 13, 11, 122
16, 25064, Note_on_c, 13, 71, 0
16, 25080, Note_on_c, 13, 73, 68
16, 25169, Note_on_c, 13, 73, 0
16, 25200, Note_on_c, 13, 76, 68
16, 25200, Control_c, 13, 11, 127
16, 25319, Note_on_c, 13, 76, 0
16, 25320, Note_on_c, 13, 74, 68
16, 25551, Note_on_c, 13, 74, 0
16, 25560, Note_on_c, 13, 74, 68
16, 25560, Control_c, 13, 11, 127
16, 25590, Control_c, 13, 11, 124
16, 25619, Note_on_c, 13, 74, 0
16, 25620, Control_c, 13, 11, 121
16, 25620, Note_on_c, 13, 73, 68
16, 25650, Control_c, 13, 11, 117
16, 25679, Note_on_c, 13, 73, 0
16, 25680, Note_on_c, 13, 71, 68
16, 25680, Control_c, 13, 11, 115
16, 25710, Control_c, 13, 11, 111
16, 25739, Note_on_c, 13, 71, 0
16, 25740, Note_on_c, 13, 69, 68
16, 25740, Control_c, 13, 11, 109
16, 25770, Control_c, 13, 11, 105
16, 25799, Note_on_c, 13, 69, 0
16, 25800, Note_on_c, 13, 67, 68
16, 25800, Control_c, 13, 11, 101
16, 25830, Control_c, 13, 11, 99
16, 25859, Note_on_c, 13, 67, 0
16, 25860, Control_c, 13, 11, 95
16, 25860, Note_on_c, 13, 66, 68
16, 25890, Control_c, 13, 11, 89
16, 25911, Note_on_c, 13, 66, 0
16, 25920, Note_on_c, 13, 66, 68
16, 26039, Note_on_c, 13, 66, 0
16, 26040, Control_c, 13, 11, 89
16, 26040, Note_on_c, 13, 64, 68
16, 26150, Control_c, 13, 11, 92
16, 26260, Control_c, 13, 11, 95
16, 26271, Note_on_c, 13, 64, 0
16, 26280, Note_on_c, 13, 64, 68
16, 26370, Control_c, 13, 11, 99
16, 26459, Note_on_c, 13, 64, 0
16, 26460, Note_on_c, 13, 66, 68
16, 26480, Control_c, 13, 11, 101
16, 26519, Note_on_c, 13, 66, 0
16, 26520, Note_on_c, 13, 67, 68
16, 26579, Note_on_c, 13, 67, 0
16, 26580, Note_on_c, 13, 64, 68
16, 26590, Control_c, 13, 11, 105
16, 26631, Note_on_c, 13, 64, 0
16, 26640, Note_on_c, 13, 67, 68
16, 26700, Control_c, 13, 11, 109
16, 26759, Note_on_c, 13, 67, 0
16, 26760, Note_on_c, 13, 66, 68
16, 26810, Control_c, 13, 11, 111
16, 26920, Control_c, 13, 11, 115
16, 26991, Note_on_c, 13, 66, 0
16, 27000, Note_on_c, 13, 66, 68
16, 27030, Control_c, 13, 11, 117
16, 27140, Control_c, 13, 11, 121
16, 27179, Note_on_c, 13, 66, 0
16, 27180, Note_on_c, 13, 67, 68
16, 27239, Note_on_c, 13, 67, 0
16, 27240, Note_on_c, 13, 69, 68
16, 27250, Control_c, 13, 11, 124
16, 27299, Note_on_c, 13, 69, 0
16, 27300, Note_on_c, 13, 66, 68
16, 27351, Note_on_c, 13, 66, 0
16, 27360, Control_c, 13, 11, 127
16, 27360, Note_on_c, 13, 69, 68
16, 27479, Note_on_c, 13, 69, 0
16, 27480, Note_on_c, 13, 67, 68
16, 27711, Note_on_c, 13, 67, 0
16, 27720, Control_c, 13, 11, 127
16, 27720, Note_on_c, 13, 71, 68
16, 27750, Control_c, 13, 11, 124
16, 27779, Note_on_c, 13, 71, 0
16, 27780, Note_on_c, 13, 67, 68
16, 27780, Control_c, 13, 11, 121
16, 27810, Control_c, 13, 11, 117
16, 27839, Note_on_c, 13, 67, 0
16, 27840, Note_on_c, 13, 66, 68
16, 27840, Control_c, 13, 11, 115
16, 27870, Control_c, 13, 11, 111
16, 27899, Note_on_c, 13, 66, 0
16, 27900, Note_on_c, 13, 64, 68
16, 27900, Control_c, 13, 11, 109
16, 27930, Control_c, 13, 11, 105
16, 27959, Note_on_c, 13, 64, 0
16, 27960, Control_c, 13, 11, 101
16, 27960, Note_on_c, 13, 62, 68
16, 27990, Control_c, 13, 11, 99
16, 28019, Note_on_c, 13, 62, 0
16, 28020, Control_c, 13, 11, 95
16, 28020, Note_on_c, 13, 61, 68
16, 28050, Control_c, 13, 11, 92
16, 28071, Note_on_c, 13, 61, 0
16, 28080, Note_on_c, 13, 55, 68
16, 28080, Note_on_c, 13, 64, 68
16, 28080, Control_c, 13, 11, 89
16, 28140, Control_c, 13, 11, 87
16, 28200, Control_c, 13, 11, 85
16, 28260, Control_c, 13, 11, 84
16, 28320, Control_c, 13, 11, 82
16, 28380, Control_c, 13, 11, 80
16, 28439, Note_on_c, 13, 55, 0
16, 28439, Note_on_c, 13, 64, 0
16, 28440, Control_c, 13, 11, 79
16, 28440, Note_on_c, 13, 52, 68
16, 28440, Note_on_c, 13, 55, 68
16, 28500, Control_c, 13, 11, 77
16, 28551, Note_on_c, 13, 52, 0
16, 28551, Note_on_c, 13, 55, 0
16, 28560, Note_on_c, 13, 50, 68
16, 28560, Control_c, 13, 11, 75
16, 28560, Note_on_c, 13, 54, 68
16, 28620, Control_c, 13, 11, 74
16, 28671, Note_on_c, 13, 50, 0
16, 28671, Note_on_c, 13, 54, 0
16, 28680, Note_on_c, 13, 66, 68
16, 28680, Control_c, 13, 11, 72
16, 28740, Control_c, 13, 11, 70
16, 28919, Note_on_c, 13, 66, 0
16, 28920, Control_c, 13, 11, 89
16, 28920, Note_on_c, 13, 64, 68
16, 29090, Control_c, 13, 11, 92
16, 29151, Note_on_c, 13, 64, 0
16, 29160, Note_on_c, 13, 64, 68
16, 29260, Control_c, 13, 11, 95
16, 29339, Note_on_c, 13, 64, 0
16, 29340, Note_on_c, 13, 66, 68
16, 29399, Note_on_c, 13, 66, 0
16, 29400, Note_on_c, 13, 67, 68
16, 29430, Control_c, 13, 11, 99
16, 29459, Note_on_c, 13, 67, 0
16, 29460, Note_on_c, 13, 64, 68
16, 29511, Note_on_c, 13, 64, 0
16, 29520, Note_on_c, 13, 67, 68
16, 29600, Control_c, 13, 11, 101
16, 29639, Note_on_c, 13, 67, 0
16, 29640, Note_on_c, 13, 66, 68
16, 29770, Control_c, 13, 11, 105
16, 29871, Note_on_c, 13, 66, 0
16, 29880, Note_on_c, 13, 66, 68
16, 29940, Control_c, 13, 11, 109
16, 30059, Note_on_c, 13, 66, 0
16, 30060, Note_on_c, 13, 67, 68
16, 30110, Control_c, 13, 11, 111
16, 30119, Note_on_c, 13, 67, 0
16, 30120, Note_on_c, 13, 69, 68
16, 30179, Note_on_c, 13, 69, 0
16, 30180, Note_on_c, 13, 66, 68
16, 30231, Note_on_c, 13, 66, 0
16, 30240, Note_on_c, 13, 69, 68
16, 30280, Control_c, 13, 11, 115
16, 30359, Note_on_c, 13, 69, 0
16, 30360, Note_on_c, 13, 67, 68
16, 30450, Control_c, 13, 11, 117
16, 30591, Note_on_c, 13, 67, 0
16, 30600, Note_on_c, 13, 69, 68
16, 30620, Control_c, 13, 11, 121
16, 30704, Note_on_c, 13, 69, 0
16, 30720, Note_on_c, 13, 71, 68
16, 30790, Control_c, 13, 11, 124
16, 30824, Note_on_c, 13, 71, 0
16, 30840, Note_on_c, 13, 73, 68
16, 30929, Note_on_c, 13, 73, 0
16, 30960, Control_c, 13, 11, 127
16, 30960, Note_on_c, 13, 76, 68
16, 31079, Note_on_c, 13, 76, 0
16, 31080, Note_on_c, 13, 74, 68
16, 31311, Note_on_c, 13, 74, 0
16, 31320, Control_c, 13, 11, 127
16, 31320, Note_on_c, 13, 74, 68
16, 31350, Control_c, 13, 11, 124
16, 31379, Note_on_c, 13, 74, 0
16, 31380, Control_c, 13, 11, 121
16, 31380, Note_on_c, 13, 73, 68
16, 31410, Control_c, 13, 11, 117
16, 31439, Note_on_c, 13, 73, 0
16, 31440, Note_on_c, 13, 71, 68
16, 31440, Control_c, 13, 11, 115
16, 31470, Control_c, 13, 11, 111
16, 31499, Note_on_c, 13, 71, 0
16, 31500, Control_c, 13, 11, 109
16, 31500, Note_on_c, 13, 69, 68
16, 31530, Control_c, 13, 11, 105
16, 31559, Note_on_c, 13, 69, 0
16, 31560, Control_c, 13, 11, 101
16, 31560, Note_on_c, 13, 67, 68
16, 31590, Control_c, 13, 11, 99
16, 31619, Note_on_c, 13, 67, 0
16, 31620, Control_c, 13, 11, 95
16, 31620, Note_on_c, 13, 66, 68
16, 31650, Control_c, 13, 11, 92
16, 31671, Note_on_c, 13, 66, 0
16, 31680, Control_c, 13, 11, 89
16, 31680, Note_on_c, 13, 66, 68
16, 31799, Note_on_c, 13, 66, 0
16, 31800, Control_c, 13, 11, 92
16, 31800, Note_on_c, 13, 64, 68
16, 31920, Control_c, 13, 11, 95
16, 32031, Note_on_c, 13, 64, 0
16, 32040, Note_on_c, 13, 64, 68
16, 32040, Control_c, 13, 11, 99
16, 32160, Control_c, 13, 11, 101
16, 32219, Note_on_c, 13, 64, 0
16, 32220, Note_on_c, 13, 66, 68
16, 32279, Note_on_c, 13, 66, 0
16, 32280, Note_on_c, 13, 67, 68
16, 32280, Control_c, 13, 11, 105
16, 32339, Note_on_c, 13, 67, 0
16, 32340, Note_on_c, 13, 64, 68
16, 32391, Note_on_c, 13, 64, 0
16, 32400, Note_on_c, 13, 67, 68
16, 32400, Control_c, 13, 11, 109
16, 32519, Note_on_c, 13, 67, 0
16, 32520, Control_c, 13, 11, 111
16, 32520, Note_on_c, 13, 66, 68
16, 32640, Control_c, 13, 11, 115
16, 32751, Note_on_c, 13, 66, 0
16, 32760, Note_on_c, 13, 66, 68
16, 32760, Control_c, 13, 11, 117
16, 32880, Control_c, 13, 11, 121
16, 32939, Note_on_c, 13, 66, 0
16, 32940, Note_on_c, 13, 67, 68
16, 32999, Note_on_c, 13, 67, 0
16, 33000, Note_on_c, 13, 69, 68
16, 33000, Control_c, 13, 11, 124
16, 33059, Note_on_c, 13, 69, 0
16, 33060, Note_on_c, 13, 66, 68
16, 33111, Note_on_c, 13, 66, 0
16, 33120, Control_c, 13, 11, 127
16, 33120, Note_on_c, 13, 69, 68
16, 33239, Note_on_c, 13, 69, 0
16, 33240, Note_on_c, 13, 67, 68
16, 33471, Note_on_c, 13, 67, 0
16, 33480, Note_on_c, 13, 71, 68
16, 33480, Control_c, 13, 11, 127
16, 33510, Control_c, 13, 11, 124
16, 33539, Note_on_c, 13, 71, 0
16, 33540, Note_on_c, 13, 67, 68
16, 33540, Control_c, 13, 11, 121
16, 33570, Control_c, 13, 11, 117
16, 33599, Note_on_c, 13, 67, 0
16, 33600, Note_on_c, 13, 66, 68
16, 33600, Control_c, 13, 11, 115
16, 33630, Control_c, 13, 11, 111
16, 33659, Note_on_c, 13, 66, 0
16, 33660, Note_on_c, 13, 64, 68
16, 33660, Control_c, 13, 11, 109
16, 33690, Control_c, 13, 11, 105
16, 33719, Note_on_c, 13, 64, 0
16, 33720, Note_on_c, 13, 62, 68
16, 33720, Control_c, 13, 11, 101
16, 33750, Control_c, 13, 11, 99
16, 33779, Note_on_c, 13, 62, 0
16, 33780, Note_on_c, 13, 61, 68
16, 33780, Control_c, 13, 11, 95
16, 33810, Control_c, 13, 11, 92
16, 33831, Note_on_c, 13, 61, 0
16, 33840, Control_c, 13, 11, 89
16, 33840, Note_on_c, 13, 55, 68
16, 33840, Note_on_c, 13, 64, 68
16, 33960, Control_c, 13, 11, 87
16, 34080, Control_c, 13, 11, 85
16, 34199, Note_on_c, 13, 55, 0
16, 34199, Note_on_c, 13, 64, 0
16, 34200, Note_on_c, 13, 52, 68
16, 34200, Control_c, 13, 11, 84
16, 34200, Note_on_c, 13, 55, 68
16, 34311, Note_on_c, 13, 52, 0
16, 34311, Note_on_c, 13, 55, 0
16, 34320, Note_on_c, 13, 50, 68
16, 34320, Note_on_c, 13, 54, 68
16, 34320, Control_c, 13, 11, 82
16, 34440, Control_c, 13, 11, 80
16, 34559, Note_on_c, 13, 50, 0
16, 34559, Note_on_c, 13, 54, 0
16, 34560, Control_c, 13, 11, 79
16, 34680, Control_c, 13, 11, 77
16, 34800, Control_c, 13, 11, 75
16, 34920, Control_c, 13, 11, 74
16, 34920, Note_on_c, 13, 52, 68
16, 34920, Note_on_c, 13, 55, 68
16, 35039, Note_on_c, 13, 52, 0
16, 35039, Note_on_c, 13, 55, 0
16, 35040, Control_c, 13, 11, 72
16, 35040, Note_on_c, 13, 53, 68
16, 35040, Note_on_c, 13, 50, 68
16, 35160, Control_c, 13, 11, 70
16, 35279, Note_on_c, 13, 53, 0
16, 35279, Note_on_c, 13, 50, 0
16, 35398, Control_c, 13, 11, 127
16, 35398, Program_c, 13, 45
16, 35520, Note_on_c, 13, 53, 28
16, 35520, Note_on_c, 13, 50, 28
16, 35759, Note_on_c, 13, 53, 0
16, 35759, Note_on_c, 13, 50, 0
16, 35760, Note_on_c, 13, 48, 28
16, 35760, Note_on_c, 13, 57, 28
16, 35879, Note_on_c, 13, 48, 0
16, 35879, Note_on_c, 13, 57, 0
16, 35998, Program_c, 13, 48
16, 36000, Note_on_c, 13, 53, 32
16, 36959, Note_on_c, 13, 53, 0
16, 36960, Note_on_c, 13, 53, 32
16, 37919, Note_on_c, 13, 53, 0
16, 37920, Note_on_c, 13, 53, 32
16, 38639, Note_on_c, 13, 53, 0
16, 38640, Note_on_c, 13, 52, 32
16, 38879, Note_on_c, 13, 52, 0
16, 38880, Note_on_c, 13, 53, 32
16, 39599, Note_on_c, 13, 53, 0
16, 40320, Control_c, 13, 11, 89
16, 40560, Note_on_c, 13, 57, 56
16, 40560, Note_on_c, 13, 53, 56
16, 40590, Control_c, 13, 11, 99
16, 40620, Control_c, 13, 11, 109
16, 40650, Control_c, 13, 11, 117
16, 40680, Control_c, 13, 11, 127
16, 40710, Control_c, 13, 11, 117
16, 40740, Control_c, 13, 11, 109
16, 40770, Control_c, 13, 11, 99
16, 40800, Control_c, 13, 11, 89
16, 41271, Note_on_c, 13, 57, 0
16, 41280, Note_on_c, 13, 58, 56
16, 41751, Note_on_c, 13, 53, 0
16, 41751, Note_on_c, 13, 58, 0
16, 41760, Note_on_c, 13, 53, 56
16, 41760, Note_on_c, 13, 60, 56
16, 42231, Note_on_c, 13, 60, 0
16, 42240, Note_on_c, 13, 58, 56
16, 42471, Note_on_c, 13, 53, 0
16, 42480, Note_on_c, 13, 55, 56
16, 42711, Note_on_c, 13, 58, 0
16, 42711, Note_on_c, 13, 55, 0
16, 42720, Note_on_c, 13, 55, 56
16, 42720, Note_on_c, 13, 58, 56
16, 43191, Note_on_c, 13, 55, 0
16, 43200, Note_on_c, 13, 53, 56
16, 43431, Note_on_c, 13, 58, 0
16, 43440, Note_on_c, 13, 57, 56
16, 43671, Note_on_c, 13, 53, 0
16, 43671, Note_on_c, 13, 57, 0
16, 43680, Note_on_c, 13, 57, 56
16, 43680, Note_on_c, 13, 53, 56
16, 44039, Note_on_c, 13, 57, 0
16, 44040, Note_on_c, 13, 58, 56
16, 44151, Note_on_c, 13, 58, 0
16, 44160, Note_on_c, 13, 58, 56
16, 44399, Note_on_c, 13, 58, 0
16, 44400, Note_on_c, 13, 57, 56
16, 44519, Note_on_c, 13, 53, 0
16, 44519, Note_on_c, 13, 57, 0
16, 45120, Note_on_c, 13, 53, 56
16, 45599, Note_on_c, 13, 53, 0
16, 45600, Note_on_c, 13, 55, 56
16, 45600, Note_on_c, 13, 53, 56
16, 45839, Note_on_c, 13, 55, 0
16, 45840, Note_on_c, 13, 57, 56
16, 46079, Note_on_c, 13, 57, 0
16, 46080, Note_on_c, 13, 58, 56
16, 46311, Note_on_c, 13, 53, 0
16, 46319, Note_on_c, 13, 58, 0
16, 46320, Note_on_c, 13, 53, 56
16, 46560, Control_c, 13, 11, 89
16, 46560, Note_on_c, 13, 55, 56
16, 46573, Control_c, 13, 11, 90
16, 46585, Control_c, 13, 11, 91
16, 46598, Control_c, 13, 11, 92
16, 46611, Control_c, 13, 11, 93
16, 46623, Control_c, 13, 11, 94
16, 46636, Control_c, 13, 11, 95
16, 46648, Control_c, 13, 11, 96
16, 46661, Control_c, 13, 11, 97
16, 46674, Control_c, 13, 11, 98
16, 46686, Control_c, 13, 11, 99
16, 46699, Control_c, 13, 11, 100
16, 46712, Control_c, 13, 11, 101
16, 46724, Control_c, 13, 11, 102
16, 46737, Control_c, 13, 11, 103
16, 46749, Control_c, 13, 11, 104
16, 46762, Control_c, 13, 11, 105
16, 46775, Control_c, 13, 11, 106
16, 46787, Control_c, 13, 11, 107
16, 46799, Note_on_c, 13, 55, 0
16, 46800, Control_c, 13, 11, 108
16, 46800, Note_on_c, 13, 57, 56
16, 46813, Control_c, 13, 11, 109
16, 46825, Control_c, 13, 11, 110
16, 46838, Control_c, 13, 11, 111
16, 46851, Control_c, 13, 11, 112
16, 46863, Control_c, 13, 11, 113
16, 46876, Control_c, 13, 11, 114
16, 46888, Control_c, 13, 11, 115
16, 46901, Control_c, 13, 11, 116
16, 46914, Control_c, 13, 11, 117
16, 46926, Control_c, 13, 11, 118
16, 46939, Control_c, 13, 11, 119
16, 46952, Control_c, 13, 11, 120
16, 46964, Control_c, 13, 11, 121
16, 46977, Control_c, 13, 11, 122
16, 46989, Control_c, 13, 11, 123
16, 47002, Control_c, 13, 11, 124
16, 47015, Control_c, 13, 11, 125
16, 47027, Control_c, 13, 11, 126
16, 47039, Note_on_c, 13, 53, 0
16, 47040, Note_on_c, 13, 53, 56
16, 47040, Control_c, 13, 11, 127
16, 47053, Control_c, 13, 11, 126
16, 47065, Control_c, 13, 11, 125
16, 47078, Control_c, 13, 11, 124
16, 47091, Control_c, 13, 11, 123
16, 47103, Control_c, 13, 11, 122
16, 47116, Control_c, 13, 11, 121
16, 47128, Control_c, 13, 11, 120
16, 47141, Control_c, 13, 11, 119
16, 47154, Control_c, 13, 11, 118
16, 47166, Control_c, 13, 11, 117
16, 47179, Control_c, 13, 11, 116
16, 47192, Control_c, 13, 11, 115
16, 47204, Control_c, 13, 11, 114
16, 47217, Control_c, 13, 11, 113
16, 47229, Control_c, 13, 11, 112
16, 47242, Control_c, 13, 11, 111
16, 47255, Control_c, 13, 11, 110
16, 47267, Control_c, 13, 11, 109
16, 47279, Note_on_c, 13, 57, 0
16, 47280, Note_on_c, 13, 58, 56
16, 47280, Control_c, 13, 11, 108
16, 47293, Control_c, 13, 11, 107
16, 47305, Control_c, 13, 11, 106
16, 47318, Control_c, 13, 11, 105
16, 47331, Control_c, 13, 11, 104
16, 47343, Control_c, 13, 11, 103
16, 47356, Control_c, 13, 11, 102
16, 47368, Control_c, 13, 11, 101
16, 47381, Control_c, 13, 11, 100
16, 47394, Control_c, 13, 11, 99
16, 47406, Control_c, 13, 11, 98
16, 47419, Control_c, 13, 11, 97
16, 47432, Control_c, 13, 11, 96
16, 47444, Control_c, 13, 11, 95
16, 47457, Control_c, 13, 11, 94
16, 47469, Control_c, 13, 11, 93
16, 47482, Control_c, 13, 11, 92
16, 47495, Control_c, 13, 11, 91
16, 47507, Control_c, 13, 11, 90
16, 47519, Note_on_c, 13, 53, 0
16, 47519, Note_on_c, 13, 58, 0
16, 48118, Control_c, 13, 11, 67
16, 48120, Note_on_c, 13, 58, 68
16, 48231, Note_on_c, 13, 58, 0
16, 48240, Control_c, 13, 11, 67
16, 48240, Note_on_c, 13, 51, 68
16, 48240, Note_on_c, 13, 55, 68
16, 48260, Control_c, 13, 11, 68
16, 48280, Control_c, 13, 11, 69
16, 48300, Control_c, 13, 11, 70
16, 48320, Control_c, 13, 11, 71
16, 48340, Control_c, 13, 11, 72
16, 48360, Control_c, 13, 11, 73
16, 48380, Control_c, 13, 11, 74
16, 48400, Control_c, 13, 11, 75
16, 48420, Control_c, 13, 11, 76
16, 48440, Control_c, 13, 11, 77
16, 48460, Control_c, 13, 11, 78
16, 48480, Control_c, 13, 11, 79
16, 48500, Control_c, 13, 11, 80
16, 48520, Control_c, 13, 11, 81
16, 48540, Control_c, 13, 11, 82
16, 48560, Control_c, 13, 11, 83
16, 48580, Control_c, 13, 11, 84
16, 48600, Control_c, 13, 11, 85
16, 48620, Control_c, 13, 11, 86
16, 48640, Control_c, 13, 11, 87
16, 48660, Control_c, 13, 11, 88
16, 48680, Control_c, 13, 11, 89
16, 48700, Control_c, 13, 11, 90
16, 48720, Control_c, 13, 11, 91
16, 48740, Control_c, 13, 11, 92
16, 48760, Control_c, 13, 11, 93
16, 48780, Control_c, 13, 11, 94
16, 48800, Control_c, 13, 11, 95
16, 48820, Control_c, 13, 11, 96
16, 48840, Control_c, 13, 11, 97
16, 48860, Control_c, 13, 11, 98
16, 48880, Control_c, 13, 11, 99
16, 48900, Control_c, 13, 11, 100
16, 48920, Control_c, 13, 11, 101
16, 48940, Control_c, 13, 11, 102
16, 48951, Note_on_c, 13, 51, 0
16, 48951, Note_on_c, 13, 55, 0
16, 48960, Control_c, 13, 11, 103
16, 48960, Note_on_c, 13, 52, 68
16, 48960, Note_on_c, 13, 55, 68
16, 48980, Control_c, 13, 11, 104
16, 49000, Control_c, 13, 11, 105
16, 49020, Control_c, 13, 11, 106
16, 49040, Control_c, 13, 11, 107
16, 49060, Control_c, 13, 11, 108
16, 49080, Control_c, 13, 11, 109
16, 49100, Control_c, 13, 11, 110
16, 49120, Control_c, 13, 11, 111
16, 49140, Control_c, 13, 11, 112
16, 49160, Control_c, 13, 11, 113
16, 49180, Control_c, 13, 11, 114
16, 49200, Control_c, 13, 11, 115
16, 49220, Control_c, 13, 11, 116
16, 49240, Control_c, 13, 11, 117
16, 49260, Control_c, 13, 11, 118
16, 49280, Control_c, 13, 11, 119
16, 49300, Control_c, 13, 11, 120
16, 49320, Control_c, 13, 11, 121
16, 49340, Control_c, 13, 11, 122
16, 49360, Control_c, 13, 11, 123
16, 49380, Control_c, 13, 11, 124
16, 49400, Control_c, 13, 11, 125
16, 49420, Control_c, 13, 11, 126
16, 49440, Control_c, 13, 11, 127
16, 49460, Control_c, 13, 11, 125
16, 49480, Control_c, 13, 11, 124
16, 49500, Control_c, 13, 11, 122
16, 49520, Control_c, 13, 11, 120
16, 49540, Control_c, 13, 11, 119
16, 49559, Note_on_c, 13, 52, 0
16, 49559, Note_on_c, 13, 55, 0
16, 49560, Note_on_c, 13, 53, 68
16, 49560, Note_on_c, 13, 58, 68
16, 49560, Control_c, 13, 11, 117
16, 49580, Control_c, 13, 11, 115
16, 49600, Control_c, 13, 11, 114
16, 49620, Control_c, 13, 11, 112
16, 49640, Control_c, 13, 11, 110
16, 49660, Control_c, 13, 11, 109
16, 49680, Control_c, 13, 11, 107
16, 49700, Control_c, 13, 11, 105
16, 49720, Control_c, 13, 11, 104
16, 49740, Control_c, 13, 11, 102
16, 49760, Control_c, 13, 11, 100
16, 49780, Control_c, 13, 11, 99
16, 49800, Control_c, 13, 11, 97
16, 49820, Control_c, 13, 11, 95
16, 49840, Control_c, 13, 11, 94
16, 49860, Control_c, 13, 11, 92
16, 49880, Control_c, 13, 11, 90
16, 49900, Control_c, 13, 11, 89
16, 50151, Note_on_c, 13, 58, 0
16, 50160, Note_on_c, 13, 57, 68
16, 50160, Control_c, 13, 11, 89
16, 50391, Note_on_c, 13, 53, 0
16, 50391, Note_on_c, 13, 57, 0
16, 50400, Note_on_c, 13, 57, 68
16, 50400, Note_on_c, 13, 53, 68
16, 50759, Note_on_c, 13, 57, 0
16, 50760, Note_on_c, 13, 58, 68
16, 50871, Note_on_c, 13, 53, 0
16, 50871, Note_on_c, 13, 58, 0
16, 50880, Note_on_c, 13, 53, 68
16, 50880, Note_on_c, 13, 58, 68
16, 51119, Note_on_c, 13, 53, 0
16, 51119, Note_on_c, 13, 58, 0
16, 51840, Note_on_c, 13, 58, 68
16, 51959, Note_on_c, 13, 58, 0
16, 52320, Control_c, 13, 11, 127
16, 52800, Note_on_c, 13, 58, 44
16, 52919, Note_on_c, 13, 58, 0
16, 52920, Note_on_c, 13, 55, 44
16, 52920, Note_on_c, 13, 58, 44
16, 53039, Note_on_c, 13, 55, 0
16, 53039, Note_on_c, 13, 58, 0
16, 53040, Note_on_c, 13, 51, 44
16, 53040, Note_on_c, 13, 55, 44
16, 53159, Note_on_c, 13, 51, 0
16, 53159, Note_on_c, 13, 55, 0
16, 53220, Note_on_c, 13, 51, 47
16, 53249, Note_on_c, 13, 51, 0
16, 53250, Note_on_c, 13, 55, 48
16, 53279, Note_on_c, 13, 55, 0
16, 53280, Note_on_c, 13, 58, 48
16, 53399, Note_on_c, 13, 58, 0
16, 53460, Note_on_c, 13, 51, 52
16, 53489, Note_on_c, 13, 51, 0
16, 53490, Note_on_c, 13, 55, 53
16, 53519, Note_on_c, 13, 55, 0
16, 53520, Note_on_c, 13, 58, 53
16, 53639, Note_on_c, 13, 58, 0
16, 53700, Note_on_c, 13, 52, 57
16, 53729, Note_on_c, 13, 52, 0
16, 53730, Note_on_c, 13, 55, 57
16, 53759, Note_on_c, 13, 55, 0
16, 53760, Note_on_c, 13, 58, 58
16, 53879, Note_on_c, 13, 58, 0
16, 53940, Note_on_c, 13, 52, 62
16, 53969, Note_on_c, 13, 52, 0
16, 53970, Note_on_c, 13, 55, 62
16, 53999, Note_on_c, 13, 55, 0
16, 54000, Note_on_c, 13, 58, 63
16, 54119, Note_on_c, 13, 58, 0
16, 54180, Note_on_c, 13, 52, 66
16, 54209, Note_on_c, 13, 52, 0
16, 54210, Note_on_c, 13, 55, 67
16, 54239, Note_on_c, 13, 55, 0
16, 54240, Note_on_c, 13, 58, 68
16, 54299, Note_on_c, 13, 58, 0
16, 54300, Note_on_c, 13, 53, 65
16, 54329, Note_on_c, 13, 53, 0
16, 54330, Note_on_c, 13, 58, 64
16, 54359, Note_on_c, 13, 58, 0
16, 54360, Note_on_c, 13, 62, 62
16, 54419, Note_on_c, 13, 62, 0
16, 54420, Note_on_c, 13, 53, 59
16, 54449, Note_on_c, 13, 53, 0
16, 54450, Note_on_c, 13, 58, 58
16, 54479, Note_on_c, 13, 58, 0
16, 54480, Note_on_c, 13, 62, 56
16, 54599, Note_on_c, 13, 62, 0
16, 54660, Note_on_c, 13, 53, 47
16, 54689, Note_on_c, 13, 53, 0
16, 54690, Note_on_c, 13, 58, 46
16, 54719, Note_on_c, 13, 58, 0
16, 54720, Note_on_c, 13, 62, 44
16, 54839, Note_on_c, 13, 62, 0
16, 54900, Note_on_c, 13, 53, 44
16, 54929, Note_on_c, 13, 53, 0
16, 54930, Note_on_c, 13, 57, 44
16, 54959, Note_on_c, 13, 57, 0
16, 54960, Note_on_c, 13, 60, 44
16, 55079, Note_on_c, 13, 60, 0
16, 55170, Note_on_c, 13, 53, 44
16, 55199, Note_on_c, 13, 53, 0
16, 55200, Note_on_c, 13, 57, 38
16, 55319, Note_on_c, 13, 57, 0
16, 55410, Note_on_c, 13, 53, 38
16, 55439, Note_on_c, 13, 53, 0
16, 55440, Note_on_c, 13, 57, 38
16, 55559, Note_on_c, 13, 57, 0
16, 55650, Note_on_c, 13, 53, 38
16, 55679, Note_on_c, 13, 53, 0
16, 55680, Note_on_c, 13, 57, 38
16, 55799, Note_on_c, 13, 57, 0
16, 55890, Note_on_c, 13, 54, 38
16, 55919, Note_on_c, 13, 54, 0
16, 55920, Note_on_c, 13, 57, 38
16, 56039, Note_on_c, 13, 57, 0
16, 56130, Note_on_c, 13, 54, 38
16, 56159, Note_on_c, 13, 54, 0
16, 56160, Note_on_c, 13, 57, 32
16, 56279, Note_on_c, 13, 57, 0
16, 56340, Note_on_c, 13, 54, 32
16, 56369, Note_on_c, 13, 54, 0
16, 56370, Note_on_c, 13, 57, 32
16, 56399, Note_on_c, 13, 57, 0
16, 56400, Note_on_c, 13, 62, 32
16, 56519, Note_on_c, 13, 62, 0
16, 56580, Note_on_c, 13, 54, 32
16, 56609, Note_on_c, 13, 54, 0
16, 56610, Note_on_c, 13, 57, 32
16, 56639, Note_on_c, 13, 57, 0
16, 56640, Note_on_c, 13, 62, 32
16, 56759, Note_on_c, 13, 62, 0
16, 56820, Note_on_c, 13, 55, 32
16, 56849, Note_on_c, 13, 55, 0
16, 56850, Note_on_c, 13, 59, 32
16, 56879, Note_on_c, 13, 59, 0
16, 56880, Note_on_c, 13, 62, 32
16, 56999, Note_on_c, 13, 62, 0
16, 57684, Control_c, 13, 11, 93
16, 57720, Note_on_c, 13, 57, 56
16, 57738, Control_c, 13, 11, 94
16, 57792, Control_c, 13, 11, 95
16, 57846, Control_c, 13, 11, 96
16, 57900, Control_c, 13, 11, 97
16, 57954, Control_c, 13, 11, 98
16, 58008, Control_c, 13, 11, 99
16, 58062, Control_c, 13, 11, 100
16, 58079, Note_on_c, 13, 57, 0
16, 58080, Note_on_c, 13, 55, 56
16, 58116, Control_c, 13, 11, 101
16, 58170, Control_c, 13, 11, 102
16, 58199, Note_on_c, 13, 55, 0
16, 58224, Control_c, 13, 11, 103
16, 59760, Control_c, 13, 11, 127
16, 59770, Control_c, 13, 11, 125
16, 59780, Control_c, 13, 11, 124
16, 59790, Control_c, 13, 11, 122
16, 59800, Control_c, 13, 11, 120
16, 59810, Control_c, 13, 11, 119
16, 59820, Control_c, 13, 11, 117
16, 59830, Control_c, 13, 11, 115
16, 59840, Control_c, 13, 11, 114
16, 59850, Control_c, 13, 11, 112
16, 59860, Control_c, 13, 11, 110
16, 59870, Control_c, 13, 11, 109
16, 59880, Note_on_c, 13, 50, 56
16, 59880, Control_c, 13, 11, 107
16, 59890, Control_c, 13, 11, 105
16, 59900, Control_c, 13, 11, 104
16, 59910, Control_c, 13, 11, 102
16, 59920, Control_c, 13, 11, 100
16, 59930, Control_c, 13, 11, 99
16, 59940, Control_c, 13, 11, 97
16, 59950, Control_c, 13, 11, 95
16, 59960, Control_c, 13, 11, 94
16, 59970, Control_c, 13, 11, 92
16, 59980, Control_c, 13, 11, 90
16, 59990, Control_c, 13, 11, 89
16, 60000, Control_c, 13, 11, 87
16, 60070, Control_c, 13, 11, 89
16, 60119, Note_on_c, 13, 50, 0
16, 60120, Note_on_c, 13, 48, 56
16, 60140, Control_c, 13, 11, 90
16, 60210, Control_c, 13, 11, 92
16, 60231, Note_on_c, 13, 48, 0
16, 60240, Note_on_c, 13, 48, 56
16, 60280, Control_c, 13, 11, 94
16, 60350, Control_c, 13, 11, 95
16, 60359, Note_on_c, 13, 48, 0
16, 60420, Control_c, 13, 11, 97
16, 60490, Control_c, 13, 11, 99
16, 60560, Control_c, 13, 11, 100
16, 60600, Note_on_c, 13, 57, 56
16, 60630, Control_c, 13, 11, 102
16, 60700, Control_c, 13, 11, 104
16, 60770, Control_c, 13, 11, 105
16, 60839, Note_on_c, 13, 57, 0
16, 60840, Control_c, 13, 11, 107
16, 60840, Note_on_c, 13, 55, 56
16, 60910, Control_c, 13, 11, 109
16, 60951, Note_on_c, 13, 55, 0
16, 60960, Note_on_c, 13, 55, 56
16, 60980, Control_c, 13, 11, 110
16, 61050, Control_c, 13, 11, 112
16, 61079, Note_on_c, 13, 55, 0
16, 61120, Control_c, 13, 11, 114
16, 61190, Control_c, 13, 11, 115
16, 61260, Control_c, 13, 11, 117
16, 61330, Control_c, 13, 11, 119
16, 61400, Control_c, 13, 11, 120
16, 61470, Control_c, 13, 11, 122
16, 61540, Control_c, 13, 11, 124
16, 61560, Note_on_c, 13, 57, 56
16, 61610, Control_c, 13, 11, 125
16, 61619, Note_on_c, 13, 57, 0
16, 61620, Note_on_c, 13, 56, 56
16, 61679, Note_on_c, 13, 56, 0
16, 61680, Control_c, 13, 11, 127
16, 61680, Note_on_c, 13, 57, 56
16, 61739, Note_on_c, 13, 57, 0
16, 61740, Note_on_c, 13, 59, 55
16, 61799, Note_on_c, 13, 59, 0
16, 61800, Note_on_c, 13, 60, 54
16, 61859, Note_on_c, 13, 60, 0
16, 61860, Note_on_c, 13, 52, 53
16, 61919, Note_on_c, 13, 52, 0
16, 61920, Note_on_c, 13, 50, 52
16, 61979, Note_on_c, 13, 50, 0
16, 61980, Note_on_c, 13, 48, 50
16, 62039, Note_on_c, 13, 48, 0
16, 62040, Note_on_c, 13, 59, 49
16, 62099, Note_on_c, 13, 59, 0
16, 62100, Note_on_c, 13, 57, 48
16, 62151, Note_on_c, 13, 57, 0
16, 62160, Note_on_c, 13, 57, 47
16, 62519, Note_on_c, 13, 57, 0
16, 62520, Note_on_c, 13, 48, 40
16, 62631, Note_on_c, 13, 48, 0
16, 62640, Note_on_c, 13, 59, 37
16, 62759, Note_on_c, 13, 59, 0
16, 62760, Note_on_c, 13, 55, 35
16, 62879, Note_on_c, 13, 55, 0
16, 62880, Note_on_c, 13, 50, 32
16, 62991, Note_on_c, 13, 50, 0
16, 62998, Program_c, 13, 45
16, 63000, Note_on_c, 13, 54, 28
16, 63119, Note_on_c, 13, 54, 0
16, 63120, Note_on_c, 13, 60, 29
16, 63239, Note_on_c, 13, 60, 0
16, 63240, Note_on_c, 13, 57, 30
16, 63359, Note_on_c, 13, 57, 0
16, 63360, Note_on_c, 13, 62, 32
16, 63479, Note_on_c, 13, 62, 0
16, 63480, Note_on_c, 13, 60, 33
16, 63599, Note_on_c, 13, 60, 0
16, 63720, Note_on_c, 13, 50, 36
16, 63839, Note_on_c, 13, 50, 0
16, 63840, Note_on_c, 13, 59, 37
16, 63959, Note_on_c, 13, 59, 0
16, 63960, Note_on_c, 13, 55, 39
16, 64079, Note_on_c, 13, 55, 0
16, 64080, Note_on_c, 13, 62, 40
16, 64199, Note_on_c, 13, 62, 0
16, 64200, Note_on_c, 13, 50, 42
16, 64319, Note_on_c, 13, 50, 0
16, 64440, Note_on_c, 13, 48, 44
16, 64559, Note_on_c, 13, 48, 0
16, 64560, Note_on_c, 13, 57, 46
16, 64679, Note_on_c, 13, 57, 0
16, 64680, Note_on_c, 13, 54, 47
16, 64799, Note_on_c, 13, 54, 0
16, 64800, Note_on_c, 13, 48, 49
16, 64919, Note_on_c, 13, 48, 0
16, 64920, Note_on_c, 13, 57, 50
16, 65039, Note_on_c, 13, 57, 0
16, 65160, Note_on_c, 13, 59, 52
16, 65279, Note_on_c, 13, 59, 0
16, 65280, Note_on_c, 13, 59, 52
16, 65399, Note_on_c, 13, 59, 0
16, 65400, Note_on_c, 13, 55, 46
16, 65519, Note_on_c, 13, 55, 0
16, 65520, Note_on_c, 13, 55, 40
16, 65520, Note_on_c, 13, 50, 40
16, 65639, Note_on_c, 13, 55, 0
16, 65639, Note_on_c, 13, 50, 0
16, 65640, Note_on_c, 13, 59, 34
16, 65759, Note_on_c, 13, 59, 0
16, 65880, Note_on_c, 13, 54, 28
16, 65999, Note_on_c, 13, 54, 0
16, 66000, Note_on_c, 13, 60, 28
16, 66119, Note_on_c, 13, 60, 0
16, 66120, Note_on_c, 13, 57, 31
16, 66239, Note_on_c, 13, 57, 0
16, 66240, Note_on_c, 13, 62, 35
16, 66359, Note_on_c, 13, 62, 0
16, 66360, Note_on_c, 13, 60, 38
16, 66479, Note_on_c, 13, 60, 0
16, 66600, Note_on_c, 13, 50, 46
16, 66719, Note_on_c, 13, 50, 0
16, 66720, Note_on_c, 13, 59, 49
16, 66839, Note_on_c, 13, 59, 0
16, 66840, Note_on_c, 13, 55, 53
16, 66959, Note_on_c, 13, 55, 0
16, 66960, Note_on_c, 13, 55, 56
16, 66960, Note_on_c, 13, 50, 56
16, 67079, Note_on_c, 13, 55, 0
16, 67079, Note_on_c, 13, 50, 0
16, 67080, Note_on_c, 13, 59, 60
16, 67199, Note_on_c, 13, 59, 0
16, 67320, Note_on_c, 13, 48, 64
16, 67439, Note_on_c, 13, 48, 0
16, 67440, Note_on_c, 13, 57, 64
16, 67559, Note_on_c, 13, 57, 0
16, 67560, Note_on_c, 13, 57, 62
16, 67560, Note_on_c, 13, 54, 62
16, 67679, Note_on_c, 13, 57, 0
16, 67679, Note_on_c, 13, 54, 0
16, 67680, Note_on_c, 13, 48, 59
16, 67799, Note_on_c, 13, 48, 0
16, 67800, Note_on_c, 13, 48, 56
16, 67800, Note_on_c, 13, 57, 56
16, 67919, Note_on_c, 13, 48, 0
16, 67919, Note_on_c, 13, 57, 0
16, 68040, Note_on_c, 13, 48, 50
16, 68159, Note_on_c, 13, 48, 0
16, 68160, Note_on_c, 13, 57, 48
16, 68279, Note_on_c, 13, 57, 0
16, 68280, Note_on_c, 13, 54, 45
16, 68399, Note_on_c, 13, 54, 0
16, 68400, Note_on_c, 13, 59, 42
16, 68519, Note_on_c, 13, 59, 0
16, 68520, Note_on_c, 13, 55, 39
16, 68639, Note_on_c, 13, 55, 0
16, 68760, Note_on_c, 13, 48, 32
16, 68879, Note_on_c, 13, 48, 0
16, 68880, Note_on_c, 13, 60, 32
16, 68999, Note_on_c, 13, 60, 0
16, 69000, Note_on_c, 13, 57, 32
16, 69000, Note_on_c, 13, 48, 32
16, 69119, Note_on_c, 13, 57, 0
16, 69119, Note_on_c, 13, 48, 0
16, 69120, Note_on_c, 13, 55, 32
16, 69239, Note_on_c, 13, 55, 0
16, 69240, Note_on_c, 13, 55, 32
16, 69359, Note_on_c, 13, 55, 0
16, 69480, Note_on_c, 13, 55, 28
16, 69599, Note_on_c, 13, 55, 0
16, 69600, Note_on_c, 13, 63, 28
16, 69719, Note_on_c, 13, 63, 0
16, 69720, Note_on_c, 13, 58, 28
16, 69839, Note_on_c, 13, 58, 0
16, 69840, Note_on_c, 13, 53, 28
16, 69959, Note_on_c, 13, 53, 0
16, 69960, Note_on_c, 13, 65, 28
16, 70079, Note_on_c, 13, 65, 0
16, 70080, Note_on_c, 13, 63, 28
16, 70319, Note_on_c, 13, 63, 0
16, 73320, Note_on_c, 13, 58, 28
16, 73439, Note_on_c, 13, 58, 0
16, 73440, Note_on_c, 13, 58, 28
16, 73559, Note_on_c, 13, 58, 0
16, 75200, Note_on_c, 13, 58, 28
16, 75279, Note_on_c, 13, 58, 0
16, 75280, Note_on_c, 13, 58, 28
16, 75359, Note_on_c, 13, 58, 0
16, 75360, Note_on_c, 13, 58, 28
16, 75599, Note_on_c, 13, 58, 0
16, 79760, Note_on_c, 13, 54, 28
16, 79839, Note_on_c, 13, 54, 0
16, 79840, Note_on_c, 13, 54, 28
16, 79919, Note_on_c, 13, 54, 0
16, 79920, Note_on_c, 13, 54, 28
16, 80159, Note_on_c, 13, 54, 0
16, 80240, Note_on_c, 13, 54, 28
16, 80319, Note_on_c, 13, 54, 0
16, 80320, Note_on_c, 13, 54, 28
16, 80399, Note_on_c, 13, 54, 0
16, 80400, Note_on_c, 13, 54, 28
16, 80639, Note_on_c, 13, 54, 0
16, 80720, Note_on_c, 13, 54, 28
16, 80799, Note_on_c, 13, 54, 0
16, 80800, Note_on_c, 13, 54, 28
16, 80879, Note_on_c, 13, 54, 0
16, 80880, Note_on_c, 13, 54, 28
16, 81119, Note_on_c, 13, 54, 0
16, 81200, Note_on_c, 13, 54, 28
16, 81279, Note_on_c, 13, 54, 0
16, 81280, Note_on_c, 13, 54, 28
16, 81359, Note_on_c, 13, 54, 0
16, 81360, Note_on_c, 13, 54, 28
16, 81599, Note_on_c, 13, 54, 0
16, 81840, Note_on_c, 13, 64, 28
16, 81919, Note_on_c, 13, 64, 0
16, 81920, Note_on_c, 13, 70, 28
16, 81999, Note_on_c, 13, 70, 0
16, 82000, Note_on_c, 13, 73, 28
16, 82079, Note_on_c, 13, 73, 0
16, 82560, Note_on_c, 13, 71, 28
16, 82799, Note_on_c, 13, 71, 0
16, 83760, Note_on_c, 13, 64, 32
16, 83839, Note_on_c, 13, 64, 0
16, 83840, Note_on_c, 13, 70, 34
16, 83919, Note_on_c, 13, 70, 0
16, 83920, Note_on_c, 13, 73, 35
16, 83999, Note_on_c, 13, 73, 0
16, 84720, Note_on_c, 13, 64, 50
16, 84799, Note_on_c, 13, 64, 0
16, 84800, Note_on_c, 13, 70, 52
16, 84879, Note_on_c, 13, 70, 0
16, 84880, Note_on_c, 13, 73, 53
16, 84959, Note_on_c, 13, 73, 0
16, 85200, Note_on_c, 13, 65, 59
16, 85279, Note_on_c, 13, 65, 0
16, 85280, Note_on_c, 13, 70, 61
16, 85359, Note_on_c, 13, 70, 0
16, 85360, Note_on_c, 13, 74, 62
16, 85439, Note_on_c, 13, 74, 0
16, 85440, Note_on_c, 13, 62, 40
16, 85440, Note_on_c, 13, 58, 40
16, 85679, Note_on_c, 13, 62, 0
16, 85679, Note_on_c, 13, 58, 0
16, 85920, Note_on_c, 13, 65, 40
16, 86039, Note_on_c, 13, 65, 0
16, 86040, Note_on_c, 13, 62, 40
16, 86159, Note_on_c, 13, 62, 0
16, 86160, Note_on_c, 13, 60, 40
16, 86399, Note_on_c, 13, 60, 0
16, 86640, Note_on_c, 13, 63, 40
16, 86759, Note_on_c, 13, 63, 0
16, 86760, Note_on_c, 13, 60, 40
16, 86879, Note_on_c, 13, 60, 0
16, 86880, Note_on_c, 13, 58, 40
16, 87119, Note_on_c, 13, 58, 0
16, 87360, Note_on_c, 13, 62, 40
16, 87479, Note_on_c, 13, 62, 0
16, 87480, Note_on_c, 13, 58, 40
16, 87599, Note_on_c, 13, 58, 0
16, 87600, Note_on_c, 13, 57, 40
16, 87839, Note_on_c, 13, 57, 0
16, 88080, Note_on_c, 13, 57, 40
16, 88199, Note_on_c, 13, 57, 0
16, 88200, Note_on_c, 13, 53, 40
16, 88319, Note_on_c, 13, 53, 0
16, 88320, Note_on_c, 13, 53, 40
16, 88559, Note_on_c, 13, 53, 0
16, 88800, Note_on_c, 13, 65, 50
16, 88919, Note_on_c, 13, 65, 0
16, 88920, Note_on_c, 13, 60, 53
16, 89039, Note_on_c, 13, 60, 0
16, 89040, Note_on_c, 13, 58, 56
16, 89279, Note_on_c, 13, 58, 0
16, 89520, Note_on_c, 13, 58, 56
16, 89639, Note_on_c, 13, 58, 0
16, 89640, Note_on_c, 13, 52, 48
16, 89759, Note_on_c, 13, 52, 0
16, 89760, Note_on_c, 13, 53, 40
16, 89999, Note_on_c, 13, 53, 0
16, 90240, Note_on_c, 13, 58, 40
16, 90359, Note_on_c, 13, 58, 0
16, 90360, Note_on_c, 13, 60, 40
16, 90479, Note_on_c, 13, 60, 0
16, 90480, Note_on_c, 13, 60, 40
16, 90719, Note_on_c, 13, 60, 0
16, 90960, Note_on_c, 13, 55, 40
16, 91079, Note_on_c, 13, 55, 0
16, 91080, Note_on_c, 13, 57, 40
16, 91199, Note_on_c, 13, 57, 0
16, 91200, Note_on_c, 13, 58, 40
16, 91439, Note_on_c, 13, 58, 0
16, 91680, Note_on_c, 13, 58, 40
16, 91799, Note_on_c, 13, 58, 0
16, 91800, Note_on_c, 13, 60, 40
16, 91919, Note_on_c, 13, 60, 0
16, 91920, Note_on_c, 13, 60, 40
16, 92159, Note_on_c, 13, 60, 0
16, 92400, Note_on_c, 13, 57, 40
16, 92519, Note_on_c, 13, 57, 0
16, 92520, Note_on_c, 13, 60, 40
16, 92639, Note_on_c, 13, 60, 0
16, 92640, Note_on_c, 13, 60, 40
16, 92879, Note_on_c, 13, 60, 0
16, 93120, Note_on_c, 13, 60, 40
16, 93239, Note_on_c, 13, 60, 0
16, 93240, Note_on_c, 13, 57, 40
16, 93240, Note_on_c, 13, 53, 40
16, 93359, Note_on_c, 13, 57, 0
16, 93359, Note_on_c, 13, 53, 0
16, 93360, Note_on_c, 13, 53, 40
16, 93360, Note_on_c, 13, 58, 40
16, 93599, Note_on_c, 13, 53, 0
16, 93599, Note_on_c, 13, 58, 0
16, 93840, Note_on_c, 13, 58, 40
16, 93959, Note_on_c, 13, 58, 0
16, 93960, Note_on_c, 13, 53, 40
16, 94079, Note_on_c, 13, 53, 0
16, 94080, Note_on_c, 13, 53, 40
16, 94080, Note_on_c, 13, 60, 40
16, 94319, Note_on_c, 13, 53, 0
16, 94319, Note_on_c, 13, 60, 0
16, 94560, Note_on_c, 13, 60, 40
16, 94679, Note_on_c, 13, 60, 0
16, 94680, Note_on_c, 13, 53, 40
16, 94799, Note_on_c, 13, 53, 0
16, 94800, Note_on_c, 13, 53, 40
16, 95039, Note_on_c, 13, 53, 0
16, 95280, Note_on_c, 13, 58, 40
16, 95399, Note_on_c, 13, 58, 0
16, 95400, Note_on_c, 13, 50, 40
16, 95519, Note_on_c, 13, 50, 0
16, 95520, Note_on_c, 13, 55, 40
16, 95759, Note_on_c, 13, 55, 0
16, 96000, Note_on_c, 13, 58, 40
16, 96119, Note_on_c, 13, 58, 0
16, 96120, Note_on_c, 13, 51, 40
16, 96239, Note_on_c, 13, 51, 0
16, 96240, Note_on_c, 13, 53, 40
16, 96479, Note_on_c, 13, 53, 0
16, 96720, Note_on_c, 13, 57, 40
16, 96839, Note_on_c, 13, 57, 0
16, 96840, Note_on_c, 13, 53, 40
16, 96959, Note_on_c, 13, 53, 0
16, 96960, Note_on_c, 13, 53, 40
16, 97199, Note_on_c, 13, 53, 0
16, 97440, Note_on_c, 13, 53, 40
16, 97559, Note_on_c, 13, 53, 0
16, 97560, Note_on_c, 13, 53, 40
16, 97679, Note_on_c, 13, 53, 0
16, 97680, Note_on_c, 13, 53, 40
16, 97919, Note_on_c, 13, 53, 0
16, 98160, Note_on_c, 13, 53, 40
16, 98279, Note_on_c, 13, 53, 0
16, 98280, Note_on_c, 13, 53, 40
16, 98399, Note_on_c, 13, 53, 0
16, 98400, Note_on_c, 13, 53, 40
16, 98639, Note_on_c, 13, 53, 0
16, 98880, Note_on_c, 13, 53, 40
16, 98999, Note_on_c, 13, 53, 0
16, 99000, Note_on_c, 13, 53, 40
16, 99119, Note_on_c, 13, 53, 0
16, 99120, Note_on_c, 13, 53, 40
16, 99359, Note_on_c, 13, 53, 0
16, 99600, Note_on_c, 13, 62, 40
16, 99719, Note_on_c, 13, 62, 0
16, 99720, Note_on_c, 13, 58, 40
16, 99839, Note_on_c, 13, 58, 0
16, 99840, Note_on_c, 13, 55, 40
16, 100079, Note_on_c, 13, 55, 0
16, 100320, Note_on_c, 13, 57, 40
16, 100439, Note_on_c, 13, 57, 0
16, 100440, Note_on_c, 13, 53, 40
16, 100559, Note_on_c, 13, 53, 0
16, 100560, Note_on_c, 13, 53, 40
16, 100799, Note_on_c, 13, 53, 0
16, 101040, Note_on_c, 13, 58, 40
16, 101159, Note_on_c, 13, 58, 0
16, 101160, Note_on_c, 13, 53, 40
16, 101279, Note_on_c, 13, 53, 0
16, 101280, Note_on_c, 13, 57, 40
16, 101519, Note_on_c, 13, 57, 0
16, 101760, Note_on_c, 13, 63, 56
16, 101879, Note_on_c, 13, 63, 0
16, 101880, Note_on_c, 13, 57, 60
16, 101999, Note_on_c, 13, 57, 0
16, 102000, Note_on_c, 13, 63, 64
16, 102239, Note_on_c, 13, 63, 0
16, 102480, Note_on_c, 13, 58, 48
16, 102599, Note_on_c, 13, 58, 0
16, 102600, Note_on_c, 13, 53, 44
16, 102719, Note_on_c, 13, 53, 0
16, 102720, Note_on_c, 13, 51, 40
16, 102959, Note_on_c, 13, 51, 0
16, 103200, Note_on_c, 13, 57, 40
16, 103319, Note_on_c, 13, 57, 0
16, 103320, Note_on_c, 13, 63, 40
16, 103439, Note_on_c, 13, 63, 0
16, 103440, Note_on_c, 13, 69, 40
16, 103559, Note_on_c, 13, 69, 0
16, 103560, Note_on_c, 13, 53, 40
16, 103679, Note_on_c, 13, 53, 0
16, 103680, Note_on_c, 13, 55, 40
16, 103799, Note_on_c, 13, 55, 0
16, 103800, Note_on_c, 13, 55, 40
16, 103919, Note_on_c, 13, 55, 0
16, 103920, Note_on_c, 13, 55, 41
16, 104039, Note_on_c, 13, 55, 0
16, 104040, Note_on_c, 13, 58, 43
16, 104159, Note_on_c, 13, 58, 0
16, 104160, Note_on_c, 13, 55, 44
16, 104160, Note_on_c, 13, 58, 44
16, 104399, Note_on_c, 13, 55, 0
16, 104399, Note_on_c, 13, 58, 0
16, 104640, Note_on_c, 13, 55, 51
16, 104759, Note_on_c, 13, 55, 0
16, 104760, Note_on_c, 13, 58, 52
16, 104879, Note_on_c, 13, 58, 0
16, 104880, Note_on_c, 13, 48, 54
16, 104880, Note_on_c, 13, 58, 54
16, 105119, Note_on_c, 13, 48, 0
16, 105119, Note_on_c, 13, 58, 0
16, 105360, Note_on_c, 13, 58, 60
16, 105479, Note_on_c, 13, 58, 0
16, 105480, Note_on_c, 13, 52, 62
16, 105599, Note_on_c, 13, 52, 0
16, 105600, Note_on_c, 13, 58, 64
16, 105839, Note_on_c, 13, 58, 0
16, 106080, Note_on_c, 13, 62, 48
16, 106199, Note_on_c, 13, 62, 0
16, 106200, Note_on_c, 13, 58, 44
16, 106319, Note_on_c, 13, 58, 0
16, 106320, Note_on_c, 13, 58, 40
16, 106559, Note_on_c, 13, 58, 0
16, 106800, Note_on_c, 13, 60, 40
16, 106919, Note_on_c, 13, 60, 0
16, 106920, Note_on_c, 13, 57, 40
16, 107039, Note_on_c, 13, 57, 0
16, 107040, Note_on_c, 13, 57, 40
16, 107279, Note_on_c, 13, 57, 0
16, 107520, Note_on_c, 13, 57, 40
16, 107639, Note_on_c, 13, 57, 0
16, 107640, Note_on_c, 13, 58, 40
16, 107640, Note_on_c, 13, 53, 40
16, 107759, Note_on_c, 13, 58, 0
16, 107759, Note_on_c, 13, 53, 0
16, 107760, Note_on_c, 13, 58, 40
16, 107760, Note_on_c, 13, 53, 40
16, 107999, Note_on_c, 13, 58, 0
16, 107999, Note_on_c, 13, 53, 0
16, 109680, Note_on_c, 13, 62, 40
16, 109680, Note_on_c, 13, 70, 40
16, 109680, Note_on_c, 13, 58, 40
16, 109799, Note_on_c, 13, 62, 0
16, 109799, Note_on_c, 13, 70, 0
16, 109799, Note_on_c, 13, 58, 0
16, 109800, Note_on_c, 13, 63, 40
16, 109800, Note_on_c, 13, 72, 40
16, 109800, Note_on_c, 13, 60, 40
16, 109919, Note_on_c, 13, 63, 0
16, 109919, Note_on_c, 13, 72, 0
16, 109919, Note_on_c, 13, 60, 0
16, 109920, Note_on_c, 13, 72, 40
16, 109920, Note_on_c, 13, 63, 40
16, 109920, Note_on_c, 13, 60, 40
16, 110159, Note_on_c, 13, 72, 0
16, 110159, Note_on_c, 13, 63, 0
16, 110159, Note_on_c, 13, 60, 0
16, 110400, Note_on_c, 13, 63, 40
16, 110400, Note_on_c, 13, 60, 40
16, 110519, Note_on_c, 13, 63, 0
16, 110519, Note_on_c, 13, 60, 0
16, 110520, Note_on_c, 13, 62, 40
16, 110520, Note_on_c, 13, 65, 40
16, 110639, Note_on_c, 13, 62, 0
16, 110639, Note_on_c, 13, 65, 0
16, 110640, Note_on_c, 13, 60, 40
16, 110640, Note_on_c, 13, 63, 40
16, 110759, Note_on_c, 13, 60, 0
16, 110759, Note_on_c, 13, 63, 0
16, 110760, Note_on_c, 13, 60, 40
16, 110760, Note_on_c, 13, 63, 40
16, 110879, Note_on_c, 13, 60, 0
16, 110879, Note_on_c, 13, 63, 0
16, 110880, Note_on_c, 13, 58, 40
16, 110880, Note_on_c, 13, 62, 40
16, 110999, Note_on_c, 13, 58, 0
16, 110999, Note_on_c, 13, 62, 0
16, 111000, Note_on_c, 13, 58, 40
16, 111000, Note_on_c, 13, 63, 40
16, 111119, Note_on_c, 13, 58, 0
16, 111119, Note_on_c, 13, 63, 0
16, 111120, Note_on_c, 13, 58, 41
16, 111120, Note_on_c, 13, 67, 41
16, 111239, Note_on_c, 13, 58, 0
16, 111239, Note_on_c, 13, 67, 0
16, 111240, Note_on_c, 13, 55, 43
16, 111359, Note_on_c, 13, 55, 0
16, 111360, Note_on_c, 13, 58, 44
16, 111360, Note_on_c, 13, 67, 44
16, 111599, Note_on_c, 13, 58, 0
16, 111599, Note_on_c, 13, 67, 0
16, 111840, Note_on_c, 13, 67, 51
16, 111959, Note_on_c, 13, 67, 0
16, 111960, Note_on_c, 13, 55, 52
16, 112079, Note_on_c, 13, 55, 0
16, 112080, Note_on_c, 13, 55, 54
16, 112080, Note_on_c, 13, 58, 54
16, 112319, Note_on_c, 13, 55, 0
16, 112319, Note_on_c, 13, 58, 0
16, 112560, Note_on_c, 13, 58, 60
16, 112560, Note_on_c, 13, 55, 60
16, 112679, Note_on_c, 13, 58, 0
16, 112679, Note_on_c, 13, 55, 0
16, 112680, Note_on_c, 13, 58, 62
16, 112680, Note_on_c, 13, 55, 62
16, 112799, Note_on_c, 13, 58, 0
16, 112799, Note_on_c, 13, 55, 0
16, 112800, Note_on_c, 13, 58, 64
16, 112800, Note_on_c, 13, 53, 64
16, 113039, Note_on_c, 13, 58, 0
16, 113039, Note_on_c, 13, 53, 0
16, 113280, Note_on_c, 13, 58, 48
16, 113399, Note_on_c, 13, 58, 0
16, 113400, Note_on_c, 13, 53, 44
16, 113519, Note_on_c, 13, 53, 0
16, 113520, Note_on_c, 13, 57, 40
16, 113759, Note_on_c, 13, 57, 0
16, 114000, Note_on_c, 13, 57, 40
16, 114119, Note_on_c, 13, 57, 0
16, 114120, Note_on_c, 13, 53, 40
16, 114239, Note_on_c, 13, 53, 0
16, 114240, Note_on_c, 13, 57, 34
16, 114479, Note_on_c, 13, 57, 0
16, 114720, Note_on_c, 13, 57, 34
16, 114839, Note_on_c, 13, 57, 0
16, 114840, Note_on_c, 13, 53, 34
16, 114959, Note_on_c, 13, 53, 0
16, 114960, Note_on_c, 13, 57, 34
16, 115199, Note_on_c, 13, 57, 0
16, 115440, Note_on_c, 13, 58, 34
16, 115559, Note_on_c, 13, 58, 0
16, 115560, Note_on_c, 13, 53, 34
16, 115679, Note_on_c, 13, 53, 0
16, 115680, Note_on_c, 13, 57, 28
16, 115919, Note_on_c, 13, 57, 0
16, 116160, Note_on_c, 13, 57, 28
16, 116279, Note_on_c, 13, 57, 0
16, 116280, Note_on_c, 13, 53, 28
16, 116399, Note_on_c, 13, 53, 0
16, 116400, Note_on_c, 13, 57, 28
16, 116639, Note_on_c, 13, 57, 0
16, 116880, Note_on_c, 13, 58, 66
16, 116880, Note_on_c, 13, 53, 66
16, 116991, Note_on_c, 13, 58, 0
16, 116991, Note_on_c, 13, 53, 0
16, 116998, Control_c, 13, 11, 127
16, 116998, Program_c, 13, 48
16, 117000, Note_on_c, 13, 58, 80
16, 117051, Note_on_c, 13, 58, 0
16, 117060, Note_on_c, 13, 58, 80
16, 117111, Note_on_c, 13, 58, 0
16, 117120, Note_on_c, 13, 63, 80
16, 117239, Note_on_c, 13, 63, 0
16, 117720, Note_on_c, 13, 67, 80
16, 117771, Note_on_c, 13, 67, 0
16, 117780, Note_on_c, 13, 67, 80
16, 117831, Note_on_c, 13, 67, 0
16, 117840, Note_on_c, 13, 74, 80
16, 117840, Note_on_c, 13, 65, 80
16, 117959, Note_on_c, 13, 74, 0
16, 117959, Note_on_c, 13, 65, 0
16, 118440, Note_on_c, 13, 65, 80
16, 118440, Note_on_c, 13, 74, 80
16, 118491, Note_on_c, 13, 65, 0
16, 118491, Note_on_c, 13, 74, 0
16, 118500, Note_on_c, 13, 65, 80
16, 118500, Note_on_c, 13, 74, 80
16, 118551, Note_on_c, 13, 65, 0
16, 118551, Note_on_c, 13, 74, 0
16, 118560, Note_on_c, 13, 75, 92
16, 118560, Note_on_c, 13, 67, 92
16, 118619, Note_on_c, 13, 75, 0
16, 118619, Note_on_c, 13, 67, 0
16, 118800, Note_on_c, 13, 70, 80
16, 118800, Note_on_c, 13, 67, 80
16, 118851, Note_on_c, 13, 70, 0
16, 118851, Note_on_c, 13, 67, 0
16, 118860, Note_on_c, 13, 70, 80
16, 118860, Note_on_c, 13, 67, 80
16, 118911, Note_on_c, 13, 70, 0
16, 118911, Note_on_c, 13, 67, 0
16, 118920, Note_on_c, 13, 65, 92
16, 118920, Note_on_c, 13, 70, 92
16, 119009, Note_on_c, 13, 65, 0
16, 119009, Note_on_c, 13, 70, 0
16, 119160, Note_on_c, 13, 70, 80
16, 119160, Note_on_c, 13, 65, 80
16, 119211, Note_on_c, 13, 70, 0
16, 119211, Note_on_c, 13, 65, 0
16, 119220, Note_on_c, 13, 65, 80
16, 119220, Note_on_c, 13, 70, 80
16, 119271, Note_on_c, 13, 65, 0
16, 119271, Note_on_c, 13, 70, 0
16, 119280, Note_on_c, 13, 69, 80
16, 119280, Note_on_c, 13, 65, 80
16, 119519, Note_on_c, 13, 69, 0
16, 119519, Note_on_c, 13, 65, 0
16, 122880, Program_c, 13, 45
16, 123000, Note_on_c, 13, 65, 40
16, 123119, Note_on_c, 13, 65, 0
16, 123120, Note_on_c, 13, 62, 40
16, 123120, Note_on_c, 13, 58, 40
16, 123239, Note_on_c, 13, 62, 0
16, 123239, Note_on_c, 13, 58, 0
16, 123240, Note_on_c, 13, 58, 40
16, 123240, Note_on_c, 13, 62, 40
16, 123479, Note_on_c, 13, 58, 0
16, 123479, Note_on_c, 13, 62, 0
16, 123720, Note_on_c, 13, 60, 40
16, 123839, Note_on_c, 13, 60, 0
16, 123840, Note_on_c, 13, 57, 40
16, 123959, Note_on_c, 13, 57, 0
16, 123960, Note_on_c, 13, 60, 40
16, 124199, Note_on_c, 13, 60, 0
16, 124440, Note_on_c, 13, 70, 40
16, 124559, Note_on_c, 13, 70, 0
16, 124560, Note_on_c, 13, 58, 40
16, 124560, Note_on_c, 13, 62, 40
16, 124679, Note_on_c, 13, 58, 0
16, 124679, Note_on_c, 13, 62, 0
16, 124680, Note_on_c, 13, 62, 40
16, 124680, Note_on_c, 13, 58, 40
16, 124919, Note_on_c, 13, 62, 0
16, 124919, Note_on_c, 13, 58, 0
16, 125160, Note_on_c, 13, 60, 40
16, 125160, Note_on_c, 13, 63, 40
16, 125279, Note_on_c, 13, 60, 0
16, 125279, Note_on_c, 13, 63, 0
16, 125280, Note_on_c, 13, 53, 40
16, 125399, Note_on_c, 13, 53, 0
16, 125400, Note_on_c, 13, 53, 40
16, 125400, Note_on_c, 13, 60, 40
16, 125519, Note_on_c, 13, 53, 0
16, 125519, Note_on_c, 13, 60, 0
16, 125520, Note_on_c, 13, 53, 40
16, 125639, Note_on_c, 13, 53, 0
16, 125640, Note_on_c, 13, 53, 40
16, 125759, Note_on_c, 13, 53, 0
16, 125760, Program_c, 13, 48
16, 126360, Note_on_c, 13, 53, 47
16, 126479, Note_on_c, 13, 53, 0
16, 127080, Note_on_c, 13, 60, 52
16, 127080, Note_on_c, 13, 48, 52
16, 127199, Note_on_c, 13, 60, 0
16, 127199, Note_on_c, 13, 48, 0
16, 127440, Note_on_c, 13, 58, 54
16, 127440, Note_on_c, 13, 62, 54
16, 127559, Note_on_c, 13, 58, 0
16, 127559, Note_on_c, 13, 62, 0
16, 127800, Note_on_c, 13, 60, 57
16, 127800, Note_on_c, 13, 69, 57
16, 127919, Note_on_c, 13, 60, 0
16, 127919, Note_on_c, 13, 69, 0
16, 128160, Note_on_c, 13, 70, 59
16, 128160, Note_on_c, 13, 62, 59
16, 128279, Note_on_c, 13, 70, 0
16, 128279, Note_on_c, 13, 62, 0
16, 128520, Note_on_c, 13, 69, 61
16, 128520, Note_on_c, 13, 63, 61
16, 128639, Note_on_c, 13, 69, 0
16, 128639, Note_on_c, 13, 63, 0
16, 128880, Note_on_c, 13, 65, 63
16, 128999, Note_on_c, 13, 65, 0
16, 129120, Note_on_c, 13, 65, 65
16, 129231, Note_on_c, 13, 65, 0
16, 129240, Note_on_c, 13, 65, 66
16, 129359, Note_on_c, 13, 65, 0
16, 129600, Note_on_c, 13, 65, 68
16, 129719, Note_on_c, 13, 65, 0
16, 129840, Note_on_c, 13, 65, 70
16, 129951, Note_on_c, 13, 65, 0
16, 129960, Note_on_c, 13, 65, 70
16, 130079, Note_on_c, 13, 65, 0
16, 130320, Note_on_c, 13, 53, 73
16, 130320, Note_on_c, 13, 58, 73
16, 130439, Note_on_c, 13, 53, 0
16, 130439, Note_on_c, 13, 58, 0
16, 130560, Note_on_c, 13, 53, 74
16, 130560, Note_on_c, 13, 62, 74
16, 130671, Note_on_c, 13, 53, 0
16, 130671, Note_on_c, 13, 62, 0
16, 130680, Note_on_c, 13, 60, 75
16, 130680, Note_on_c, 13, 53, 75
16, 130799, Note_on_c, 13, 60, 0
16, 130799, Note_on_c, 13, 53, 0
16, 131040, Note_on_c, 13, 53, 77
16, 131040, Note_on_c, 13, 57, 77
16, 131159, Note_on_c, 13, 53, 0
16, 131159, Note_on_c, 13, 57, 0
16, 131280, Note_on_c, 13, 56, 79
16, 131280, Note_on_c, 13, 53, 79
16, 131391, Note_on_c, 13, 56, 0
16, 131391, Note_on_c, 13, 53, 0
16, 131400, Note_on_c, 13, 58, 80
16, 131451, Note_on_c, 13, 58, 0
16, 131460, Note_on_c, 13, 58, 80
16, 131511, Note_on_c, 13, 58, 0
16, 131520, Note_on_c, 13, 63, 80
16, 131639, Note_on_c, 13, 63, 0
16, 132120, Note_on_c, 13, 63, 80
16, 132171, Note_on_c, 13, 63, 0
16, 132180, Note_on_c, 13, 63, 80
16, 132231, Note_on_c, 13, 63, 0
16, 132240, Note_on_c, 13, 70, 80
16, 132359, Note_on_c, 13, 70, 0
16, 132840, Note_on_c, 13, 70, 80
16, 132891, Note_on_c, 13, 70, 0
16, 132900, Note_on_c, 13, 70, 80
16, 132951, Note_on_c, 13, 70, 0
16, 132960, Note_on_c, 13, 70, 92
16, 132960, Note_on_c, 13, 67, 92
16, 133019, Note_on_c, 13, 70, 0
16, 133019, Note_on_c, 13, 67, 0
16, 133200, Note_on_c, 13, 70, 80
16, 133200, Note_on_c, 13, 67, 80
16, 133251, Note_on_c, 13, 70, 0
16, 133251, Note_on_c, 13, 67, 0
16, 133260, Note_on_c, 13, 70, 80
16, 133260, Note_on_c, 13, 67, 80
16, 133311, Note_on_c, 13, 70, 0
16, 133311, Note_on_c, 13, 67, 0
16, 133320, Note_on_c, 13, 70, 92
16, 133320, Note_on_c, 13, 65, 92
16, 133379, Note_on_c, 13, 70, 0
16, 133379, Note_on_c, 13, 65, 0
16, 133560, Note_on_c, 13, 65, 80
16, 133560, Note_on_c, 13, 70, 80
16, 133611, Note_on_c, 13, 65, 0
16, 133611, Note_on_c, 13, 70, 0
16, 133620, Note_on_c, 13, 65, 80
16, 133620, Note_on_c, 13, 70, 80
16, 133671, Note_on_c, 13, 65, 0
16, 133671, Note_on_c, 13, 70, 0
16, 133680, Note_on_c, 13, 65, 80
16, 133680, Note_on_c, 13, 69, 80
16, 133919, Note_on_c, 13, 65, 0
16, 133919, Note_on_c, 13, 69, 0
16, 134400, Note_on_c, 13, 49, 80
16, 134400, Control_c, 13, 11, 127
16, 134427, Control_c, 13, 11, 126
16, 134454, Control_c, 13, 11, 125
16, 134481, Control_c, 13, 11, 124
16, 134508, Control_c, 13, 11, 123
16, 134535, Control_c, 13, 11, 122
16, 134562, Control_c, 13, 11, 121
16, 134589, Control_c, 13, 11, 120
16, 134616, Control_c, 13, 11, 119
16, 134643, Control_c, 13, 11, 118
16, 134670, Control_c, 13, 11, 117
16, 134697, Control_c, 13, 11, 116
16, 134724, Control_c, 13, 11, 115
16, 134751, Control_c, 13, 11, 114
16, 134778, Control_c, 13, 11, 113
16, 134805, Control_c, 13, 11, 112
16, 134832, Control_c, 13, 11, 111
16, 134859, Control_c, 13, 11, 110
16, 134886, Control_c, 13, 11, 109
16, 134913, Control_c, 13, 11, 108
16, 134940, Control_c, 13, 11, 107
16, 134967, Control_c, 13, 11, 106
16, 134994, Control_c, 13, 11, 105
16, 135021, Control_c, 13, 11, 104
16, 135048, Control_c, 13, 11, 103
16, 135075, Control_c, 13, 11, 102
16, 135102, Control_c, 13, 11, 101
16, 135129, Control_c, 13, 11, 100
16, 135156, Control_c, 13, 11, 99
16, 135183, Control_c, 13, 11, 98
16, 135210, Control_c, 13, 11, 97
16, 135237, Control_c, 13, 11, 96
16, 135264, Control_c, 13, 11, 95
16, 135291, Control_c, 13, 11, 94
16, 135318, Control_c, 13, 11, 93
16, 135345, Control_c, 13, 11, 92
16, 135372, Control_c, 13, 11, 91
16, 135399, Control_c, 13, 11, 90
16, 135426, Control_c, 13, 11, 89
16, 135453, Control_c, 13, 11, 88
16, 135479, Note_on_c, 13, 49, 0
16, 135480, Note_on_c, 13, 53, 80
16, 135824, Note_on_c, 13, 53, 0
16, 135838, Control_c, 13, 11, 127
16, 135840, Note_on_c, 13, 56, 56
16, 135900, Control_c, 13, 11, 126
16, 135960, Control_c, 13, 11, 125
16, 136020, Control_c, 13, 11, 122
16, 136080, Control_c, 13, 11, 121
16, 136140, Control_c, 13, 11, 120
16, 136200, Control_c, 13, 11, 119
16, 136260, Control_c, 13, 11, 116
16, 136320, Control_c, 13, 11, 115
16, 136380, Control_c, 13, 11, 114
16, 136440, Control_c, 13, 11, 112
16, 136500, Control_c, 13, 11, 110
16, 136560, Control_c, 13, 11, 109
16, 136911, Note_on_c, 13, 56, 0
16, 136920, Note_on_c, 13, 58, 56
16, 137400, Control_c, 13, 11, 109
16, 137506, Control_c, 13, 11, 107
16, 137610, Control_c, 13, 11, 106
16, 137639, Note_on_c, 13, 58, 0
16, 137640, Note_on_c, 13, 51, 56
16, 137716, Control_c, 13, 11, 105
16, 137820, Control_c, 13, 11, 104
16, 137926, Control_c, 13, 11, 102
16, 138030, Control_c, 13, 11, 101
16, 138136, Control_c, 13, 11, 100
16, 138240, Control_c, 13, 11, 99
16, 138359, Note_on_c, 13, 51, 0
16, 138360, Note_on_c, 13, 54, 56
16, 138704, Note_on_c, 13, 54, 0
16, 138718, Control_c, 13, 11, 119
16, 138720, Note_on_c, 13, 58, 44
16, 138796, Control_c, 13, 11, 117
16, 138870, Control_c, 13, 11, 116
16, 138946, Control_c, 13, 11, 115
16, 139020, Control_c, 13, 11, 114
16, 139096, Control_c, 13, 11, 112
16, 139170, Control_c, 13, 11, 111
16, 139246, Control_c, 13, 11, 110
16, 139320, Control_c, 13, 11, 109
16, 139799, Note_on_c, 13, 58, 0
16, 139800, Note_on_c, 13, 58, 44
16, 139800, Note_on_c, 13, 53, 44
16, 139800, Control_c, 13, 11, 107
16, 139818, Control_c, 13, 11, 108
16, 139836, Control_c, 13, 11, 109
16, 139854, Control_c, 13, 11, 110
16, 139872, Control_c, 13, 11, 111
16, 139890, Control_c, 13, 11, 112
16, 139908, Control_c, 13, 11, 113
16, 139926, Control_c, 13, 11, 114
16, 139944, Control_c, 13, 11, 115
16, 139962, Control_c, 13, 11, 116
16, 139980, Control_c, 13, 11, 117
16, 139998, Control_c, 13, 11, 118
16, 140016, Control_c, 13, 11, 119
16, 140034, Control_c, 13, 11, 120
16, 140052, Control_c, 13, 11, 121
16, 140070, Control_c, 13, 11, 122
16, 140088, Control_c, 13, 11, 123
16, 140106, Control_c, 13, 11, 124
16, 140124, Control_c, 13, 11, 125
16, 140142, Control_c, 13, 11, 127
16, 140159, Note_on_c, 13, 58, 0
16, 140159, Note_on_c, 13, 53, 0
16, 140160, Note_on_c, 13, 53, 44
16, 140160, Note_on_c, 13, 58, 44
16, 140271, Note_on_c, 13, 53, 0
16, 140271, Note_on_c, 13, 58, 0
16, 140280, Program_c, 13, 45
16, 140280, Note_on_c, 13, 65, 40
16, 140399, Note_on_c, 13, 65, 0
16, 140400, Note_on_c, 13, 62, 40
16, 140519, Note_on_c, 13, 62, 0
16, 140520, Note_on_c, 13, 62, 40
16, 140520, Note_on_c, 13, 58, 40
16, 140759, Note_on_c, 13, 62, 0
16, 140759, Note_on_c, 13, 58, 0
16, 141000, Note_on_c, 13, 63, 40
16, 141119, Note_on_c, 13, 63, 0
16, 141120, Note_on_c, 13, 60, 40
16, 141239, Note_on_c, 13, 60, 0
16, 141240, Note_on_c, 13, 57, 40
16, 141240, Note_on_c, 13, 60, 40
16, 141479, Note_on_c, 13, 57, 0
16, 141479, Note_on_c, 13, 60, 0
16, 141720, Note_on_c, 13, 70, 43
16, 141839, Note_on_c, 13, 70, 0
16, 141840, Note_on_c, 13, 65, 46
16, 141840, Note_on_c, 13, 58, 46
16, 141959, Note_on_c, 13, 65, 0
16, 141959, Note_on_c, 13, 58, 0
16, 141960, Note_on_c, 13, 65, 49
16, 141960, Note_on_c, 13, 58, 49
16, 142199, Note_on_c, 13, 65, 0
16, 142199, Note_on_c, 13, 58, 0
16, 142200, Note_on_c, 13, 58, 55
16, 142319, Note_on_c, 13, 58, 0
16, 142320, Note_on_c, 13, 60, 58
16, 142439, Note_on_c, 13, 60, 0
16, 142440, Note_on_c, 13, 60, 61
16, 142559, Note_on_c, 13, 60, 0
16, 142560, Note_on_c, 13, 58, 64
16, 142679, Note_on_c, 13, 58, 0
16, 142680, Note_on_c, 13, 60, 64
16, 142799, Note_on_c, 13, 60, 0
16, 142800, Note_on_c, 13, 60, 56
16, 142919, Note_on_c, 13, 60, 0
16, 142920, Note_on_c, 13, 60, 48
16, 143039, Note_on_c, 13, 60, 0
16, 143040, Note_on_c, 13, 58, 40
16, 143159, Note_on_c, 13, 58, 0
16, 143280, Program_c, 13, 48
16, 143400, Note_on_c, 13, 58, 44
16, 143751, Note_on_c, 13, 58, 0
16, 143760, Note_on_c, 13, 57, 44
16, 143879, Note_on_c, 13, 57, 0
16, 143880, Note_on_c, 13, 58, 44
16, 143999, Note_on_c, 13, 58, 0
16, 144000, Note_on_c, 13, 60, 44
16, 144119, Note_on_c, 13, 60, 0
16, 144120, Note_on_c, 13, 53, 44
16, 144239, Note_on_c, 13, 53, 0
16, 144240, Note_on_c, 13, 60, 44
16, 144359, Note_on_c, 13, 60, 0
16, 144360, Note_on_c, 13, 65, 44
16, 144591, Note_on_c, 13, 65, 0
16, 144600, Note_on_c, 13, 70, 44
16, 144719, Note_on_c, 13, 70, 0
16, 144720, Note_on_c, 13, 74, 44
16, 144839, Note_on_c, 13, 74, 0
16, 144840, Note_on_c, 13, 65, 44
16, 144959, Note_on_c, 13, 65, 0
16, 144960, Note_on_c, 13, 63, 44
16, 145079, Note_on_c, 13, 63, 0
16, 145080, Note_on_c, 13, 62, 44
16, 145199, Note_on_c, 13, 62, 0
16, 145200, Note_on_c, 13, 48, 44
16, 145311, Note_on_c, 13, 48, 0
16, 145320, Note_on_c, 13, 60, 44
16, 145409, Note_on_c, 13, 60, 0
16, 145440, Note_on_c, 13, 60, 44
16, 145529, Note_on_c, 13, 60, 0
16, 145560, Note_on_c, 13, 60, 44
16, 145679, Note_on_c, 13, 60, 0
16, 145680, Note_on_c, 13, 57, 44
16, 145799, Note_on_c, 13, 57, 0
16, 145800, Note_on_c, 13, 53, 44
16, 145889, Note_on_c, 13, 53, 0
16, 145920, Note_on_c, 13, 51, 44
16, 146031, Note_on_c, 13, 51, 0
16, 146038, Program_c, 13, 45
16, 146040, Note_on_c, 13, 69, 40
16, 146159, Note_on_c, 13, 69, 0
16, 146160, Note_on_c, 13, 65, 40
16, 146279, Note_on_c, 13, 65, 0
16, 146280, Note_on_c, 13, 69, 40
16, 146519, Note_on_c, 13, 69, 0
16, 146760, Note_on_c, 13, 58, 40
16, 146879, Note_on_c, 13, 58, 0
16, 146880, Note_on_c, 13, 53, 41
16, 146999, Note_on_c, 13, 53, 0
16, 147000, Note_on_c, 13, 65, 41
16, 147239, Note_on_c, 13, 65, 0
16, 147480, Note_on_c, 13, 60, 44
16, 147599, Note_on_c, 13, 60, 0
16, 147600, Note_on_c, 13, 53, 45
16, 147719, Note_on_c, 13, 53, 0
16, 147720, Note_on_c, 13, 65, 45
16, 147959, Note_on_c, 13, 65, 0
16, 148200, Note_on_c, 13, 65, 48
16, 148319, Note_on_c, 13, 65, 0
16, 148320, Note_on_c, 13, 53, 48
16, 148439, Note_on_c, 13, 53, 0
16, 148440, Note_on_c, 13, 53, 49
16, 148559, Note_on_c, 13, 53, 0
16, 148560, Note_on_c, 13, 65, 50
16, 148679, Note_on_c, 13, 65, 0
16, 148680, Note_on_c, 13, 58, 50
16, 148680, Note_on_c, 13, 53, 50
16, 148799, Note_on_c, 13, 58, 0
16, 148799, Note_on_c, 13, 53, 0
16, 148800, Note_on_c, 13, 57, 51
16, 148919, Note_on_c, 13, 57, 0
16, 148920, Note_on_c, 13, 57, 52
16, 149039, Note_on_c, 13, 57, 0
16, 149040, Note_on_c, 13, 53, 52
16, 149159, Note_on_c, 13, 53, 0
16, 149160, Note_on_c, 13, 60, 53
16, 149279, Note_on_c, 13, 60, 0
16, 149280, Note_on_c, 13, 53, 53
16, 149399, Note_on_c, 13, 53, 0
16, 149400, Note_on_c, 13, 60, 54
16, 149519, Note_on_c, 13, 60, 0
16, 149640, Note_on_c, 13, 58, 55
16, 149759, Note_on_c, 13, 58, 0
16, 149760, Note_on_c, 13, 53, 56
16, 149879, Note_on_c, 13, 53, 0
16, 149880, Note_on_c, 13, 58, 57
16, 149999, Note_on_c, 13, 58, 0
16, 150000, Note_on_c, 13, 53, 57
16, 150119, Note_on_c, 13, 53, 0
16, 150120, Note_on_c, 13, 58, 58
16, 150239, Note_on_c, 13, 58, 0
16, 150360, Note_on_c, 13, 60, 59
16, 150479, Note_on_c, 13, 60, 0
16, 150480, Note_on_c, 13, 53, 60
16, 150599, Note_on_c, 13, 53, 0
16, 150600, Note_on_c, 13, 60, 60
16, 150719, Note_on_c, 13, 60, 0
16, 150720, Note_on_c, 13, 53, 61
16, 150839, Note_on_c, 13, 53, 0
16, 150840, Note_on_c, 13, 60, 62
16, 150959, Note_on_c, 13, 60, 0
16, 151080, Note_on_c, 13, 60, 63
16, 151199, Note_on_c, 13, 60, 0
16, 151200, Note_on_c, 13, 53, 64
16, 151319, Note_on_c, 13, 53, 0
16, 151320, Note_on_c, 13, 53, 64
16, 151439, Note_on_c, 13, 53, 0
16, 151440, Note_on_c, 13, 62, 56
16, 151559, Note_on_c, 13, 62, 0
16, 151560, Note_on_c, 13, 65, 48
16, 151679, Note_on_c, 13, 65, 0
16, 151680, Note_on_c, 13, 60, 40
16, 151680, Note_on_c, 13, 53, 40
16, 151919, Note_on_c, 13, 60, 0
16, 151919, Note_on_c, 13, 53, 0
16, 152520, Note_on_c, 13, 60, 48
16, 152639, Note_on_c, 13, 60, 0
16, 152640, Note_on_c, 13, 53, 56
16, 152759, Note_on_c, 13, 53, 0
16, 152760, Note_on_c, 13, 53, 64
16, 152879, Note_on_c, 13, 53, 0
16, 152880, Note_on_c, 13, 62, 56
16, 152999, Note_on_c, 13, 62, 0
16, 153000, Note_on_c, 13, 58, 48
16, 153119, Note_on_c, 13, 58, 0
16, 153120, Note_on_c, 13, 60, 40
16, 153120, Note_on_c, 13, 53, 40
16, 153359, Note_on_c, 13, 60, 0
16, 153359, Note_on_c, 13, 53, 0
16, 153960, Note_on_c, 13, 63, 48
16, 154079, Note_on_c, 13, 63, 0
16, 154080, Note_on_c, 13, 60, 56
16, 154199, Note_on_c, 13, 60, 0
16, 154200, Note_on_c, 13, 58, 64
16, 154319, Note_on_c, 13, 58, 0
16, 154320, Note_on_c, 13, 62, 56
16, 154439, Note_on_c, 13, 62, 0
16, 154440, Note_on_c, 13, 70, 48
16, 154559, Note_on_c, 13, 70, 0
16, 154560, Note_on_c, 13, 69, 40
16, 154799, Note_on_c, 13, 69, 0
16, 154800, Program_c, 13, 48
16, 154920, Note_on_c, 13, 65, 92
16, 154920, Note_on_c, 13, 69, 92
16, 155159, Note_on_c, 13, 65, 0
16, 155159, Note_on_c, 13, 69, 0
16, 155520, Note_on_c, 13, 60, 84
16, 155639, Note_on_c, 13, 60, 0
16, 155880, Note_on_c, 13, 60, 72
16, 155999, Note_on_c, 13, 60, 0
16, 156240, Note_on_c, 13, 60, 60
16, 156359, Note_on_c, 13, 60, 0
16, 156600, Note_on_c, 13, 60, 48
16, 156719, Note_on_c, 13, 60, 0
16, 156960, Note_on_c, 13, 60, 44
16, 157079, Note_on_c, 13, 60, 0
16, 157320, Note_on_c, 13, 57, 32
16, 157439, Note_on_c, 13, 57, 0
16, 157680, Note_on_c, 13, 58, 36
16, 157799, Note_on_c, 13, 58, 0
16, 158040, Note_on_c, 13, 63, 42
16, 158159, Note_on_c, 13, 63, 0
16, 158400, Note_on_c, 13, 53, 48
16, 158519, Note_on_c, 13, 53, 0
16, 158760, Note_on_c, 13, 57, 54
16, 158879, Note_on_c, 13, 57, 0
16, 159120, Note_on_c, 13, 58, 60
16, 159239, Note_on_c, 13, 58, 0
16, 159480, Note_on_c, 13, 63, 66
16, 159599, Note_on_c, 13, 63, 0
16, 159840, Note_on_c, 13, 62, 72
16, 159959, Note_on_c, 13, 62, 0
16, 160200, Note_on_c, 13, 75, 80
16, 160200, Note_on_c, 13, 65, 80
16, 160319, Note_on_c, 13, 75, 0
16, 160319, Note_on_c, 13, 65, 0
16, 161040, Note_on_c, 13, 58, 44
16, 161079, Note_on_c, 13, 58, 0
16, 161080, Note_on_c, 13, 58, 44
16, 161119, Note_on_c, 13, 58, 0
16, 161120, Note_on_c, 13, 58, 44
16, 161155, Note_on_c, 13, 58, 0
16, 161160, Note_on_c, 13, 58, 44
16, 161199, Note_on_c, 13, 58, 0
16, 161200, Note_on_c, 13, 58, 44
16, 161239, Note_on_c, 13, 58, 0
16, 161240, Note_on_c, 13, 58, 43
16, 161275, Note_on_c, 13, 58, 0
16, 161280, Note_on_c, 13, 58, 43
16, 161319, Note_on_c, 13, 58, 0
16, 161320, Note_on_c, 13, 58, 43
16, 161359, Note_on_c, 13, 58, 0
16, 161360, Note_on_c, 13, 58, 43
16, 161395, Note_on_c, 13, 58, 0
16, 161400, Note_on_c, 13, 58, 42
16, 161439, Note_on_c, 13, 58, 0
16, 161440, Note_on_c, 13, 58, 42
16, 161479, Note_on_c, 13, 58, 0
16, 161480, Note_on_c, 13, 58, 42
16, 161515, Note_on_c, 13, 58, 0
16, 161520, Note_on_c, 13, 58, 42
16, 161559, Note_on_c, 13, 58, 0
16, 161560, Note_on_c, 13, 58, 42
16, 161599, Note_on_c, 13, 58, 0
16, 161600, Note_on_c, 13, 58, 41
16, 161635, Note_on_c, 13, 58, 0
16, 161640, Note_on_c, 13, 57, 41
16, 161679, Note_on_c, 13, 57, 0
16, 161680, Note_on_c, 13, 57, 41
16, 161719, Note_on_c, 13, 57, 0
16, 161720, Note_on_c, 13, 57, 41
16, 161755, Note_on_c, 13, 57, 0
16, 161760, Note_on_c, 13, 57, 40
16, 161799, Note_on_c, 13, 57, 0
16, 161800, Note_on_c, 13, 57, 40
16, 161839, Note_on_c, 13, 57, 0
16, 161840, Note_on_c, 13, 57, 40
16, 161875, Note_on_c, 13, 57, 0
16, 161880, Note_on_c, 13, 58, 40
16, 161919, Note_on_c, 13, 58, 0
16, 161920, Note_on_c, 13, 58, 40
16, 161959, Note_on_c, 13, 58, 0
16, 161960, Note_on_c, 13, 58, 39
16, 161995, Note_on_c, 13, 58, 0
16, 162000, Note_on_c, 13, 58, 39
16, 162039, Note_on_c, 13, 58, 0
16, 162040, Note_on_c, 13, 58, 39
16, 162079, Note_on_c, 13, 58, 0
16, 162080, Note_on_c, 13, 58, 39
16, 162115, Note_on_c, 13, 58, 0
16, 162120, Note_on_c, 13, 58, 38
16, 162159, Note_on_c, 13, 58, 0
16, 162160, Note_on_c, 13, 58, 38
16, 162199, Note_on_c, 13, 58, 0
16, 162200, Note_on_c, 13, 58, 38
16, 162235, Note_on_c, 13, 58, 0
16, 162240, Note_on_c, 13, 58, 38
16, 162279, Note_on_c, 13, 58, 0
16, 162280, Note_on_c, 13, 58, 38
16, 162319, Note_on_c, 13, 58, 0
16, 162320, Note_on_c, 13, 58, 37
16, 162355, Note_on_c, 13, 58, 0
16, 162360, Note_on_c, 13, 57, 37
16, 162399, Note_on_c, 13, 57, 0
16, 162400, Note_on_c, 13, 57, 37
16, 162439, Note_on_c, 13, 57, 0
16, 162440, Note_on_c, 13, 57, 37
16, 162475, Note_on_c, 13, 57, 0
16, 162480, Note_on_c, 13, 57, 36
16, 162519, Note_on_c, 13, 57, 0
16, 162520, Note_on_c, 13, 57, 36
16, 162559, Note_on_c, 13, 57, 0
16, 162560, Note_on_c, 13, 57, 36
16, 162595, Note_on_c, 13, 57, 0
16, 162600, Note_on_c, 13, 58, 36
16, 162639, Note_on_c, 13, 58, 0
16, 162640, Note_on_c, 13, 58, 36
16, 162679, Note_on_c, 13, 58, 0
16, 162680, Note_on_c, 13, 58, 35
16, 162715, Note_on_c, 13, 58, 0
16, 162720, Note_on_c, 13, 58, 35
16, 162759, Note_on_c, 13, 58, 0
16, 162760, Note_on_c, 13, 58, 35
16, 162799, Note_on_c, 13, 58, 0
16, 162800, Note_on_c, 13, 58, 35
16, 162835, Note_on_c, 13, 58, 0
16, 162840, Note_on_c, 13, 58, 34
16, 162879, Note_on_c, 13, 58, 0
16, 162880, Note_on_c, 13, 58, 34
16, 162919, Note_on_c, 13, 58, 0
16, 162920, Note_on_c, 13, 58, 34
16, 162955, Note_on_c, 13, 58, 0
16, 162960, Note_on_c, 13, 54, 34
16, 162999, Note_on_c, 13, 54, 0
16, 163000, Note_on_c, 13, 54, 34
16, 163039, Note_on_c, 13, 54, 0
16, 163040, Note_on_c, 13, 54, 33
16, 163075, Note_on_c, 13, 54, 0
16, 163080, Note_on_c, 13, 54, 33
16, 163119, Note_on_c, 13, 54, 0
16, 163120, Note_on_c, 13, 54, 33
16, 163159, Note_on_c, 13, 54, 0
16, 163160, Note_on_c, 13, 54, 33
16, 163195, Note_on_c, 13, 54, 0
16, 163200, Note_on_c, 13, 54, 32
16, 163239, Note_on_c, 13, 54, 0
16, 163240, Note_on_c, 13, 54, 32
16, 163279, Note_on_c, 13, 54, 0
16, 163280, Note_on_c, 13, 54, 32
16, 163315, Note_on_c, 13, 54, 0
16, 163320, Note_on_c, 13, 53, 32
16, 163359, Note_on_c, 13, 53, 0
16, 163360, Note_on_c, 13, 53, 32
16, 163399, Note_on_c, 13, 53, 0
16, 163400, Note_on_c, 13, 53, 32
16, 163435, Note_on_c, 13, 53, 0
16, 163440, Note_on_c, 13, 53, 32
16, 163479, Note_on_c, 13, 53, 0
16, 163480, Note_on_c, 13, 53, 32
16, 163519, Note_on_c, 13, 53, 0
16, 163520, Note_on_c, 13, 53, 32
16, 163555, Note_on_c, 13, 53, 0
16, 163560, Note_on_c, 13, 53, 32
16, 163599, Note_on_c, 13, 53, 0
16, 163600, Note_on_c, 13, 53, 32
16, 163639, Note_on_c, 13, 53, 0
16, 163640, Note_on_c, 13, 53, 32
16, 163675, Note_on_c, 13, 53, 0
16, 163680, Note_on_c, 13, 53, 32
16, 163719, Note_on_c, 13, 53, 0
16, 163720, Note_on_c, 13, 53, 32
16, 163759, Note_on_c, 13, 53, 0
16, 163760, Note_on_c, 13, 53, 32
16, 163795, Note_on_c, 13, 53, 0
16, 163800, Note_on_c, 13, 54, 32
16, 163839, Note_on_c, 13, 54, 0
16, 163840, Note_on_c, 13, 54, 32
16, 163879, Note_on_c, 13, 54, 0
16, 163880, Note_on_c, 13, 54, 32
16, 163915, Note_on_c, 13, 54, 0
16, 163920, Note_on_c, 13, 54, 32
16, 163959, Note_on_c, 13, 54, 0
16, 163960, Note_on_c, 13, 54, 32
16, 163999, Note_on_c, 13, 54, 0
16, 164000, Note_on_c, 13, 54, 32
16, 164035, Note_on_c, 13, 54, 0
16, 164040, Note_on_c, 13, 53, 32
16, 164079, Note_on_c, 13, 53, 0
16, 164080, Note_on_c, 13, 53, 32
16, 164119, Note_on_c, 13, 53, 0
16, 164120, Note_on_c, 13, 53, 32
16, 164155, Note_on_c, 13, 53, 0
16, 164160, Note_on_c, 13, 54, 32
16, 164199, Note_on_c, 13, 54, 0
16, 164200, Note_on_c, 13, 54, 32
16, 164239, Note_on_c, 13, 54, 0
16, 164240, Note_on_c, 13, 54, 32
16, 164275, Note_on_c, 13, 54, 0
16, 164280, Note_on_c, 13, 54, 32
16, 164319, Note_on_c, 13, 54, 0
16, 164320, Note_on_c, 13, 54, 32
16, 164359, Note_on_c, 13, 54, 0
16, 164360, Note_on_c, 13, 54, 32
16, 164395, Note_on_c, 13, 54, 0
16, 164400, Note_on_c, 13, 53, 32
16, 164439, Note_on_c, 13, 53, 0
16, 164440, Note_on_c, 13, 53, 32
16, 164479, Note_on_c, 13, 53, 0
16, 164480, Note_on_c, 13, 53, 32
16, 164515, Note_on_c, 13, 53, 0
16, 164520, Note_on_c, 13, 54, 32
16, 164559, Note_on_c, 13, 54, 0
16, 164560, Note_on_c, 13, 54, 32
16, 164599, Note_on_c, 13, 54, 0
16, 164600, Note_on_c, 13, 54, 32
16, 164635, Note_on_c, 13, 54, 0
16, 164640, Note_on_c, 13, 53, 32
16, 164679, Note_on_c, 13, 53, 0
16, 164680, Note_on_c, 13, 53, 33
16, 164719, Note_on_c, 13, 53, 0
16, 164720, Note_on_c, 13, 53, 34
16, 164755, Note_on_c, 13, 53, 0
16, 164760, Note_on_c, 13, 53, 36
16, 164799, Note_on_c, 13, 53, 0
16, 164800, Note_on_c, 13, 53, 37
16, 164839, Note_on_c, 13, 53, 0
16, 164840, Note_on_c, 13, 53, 38
16, 164875, Note_on_c, 13, 53, 0
16, 164880, Note_on_c, 13, 53, 40
16, 164919, Note_on_c, 13, 53, 0
16, 164920, Note_on_c, 13, 53, 41
16, 164959, Note_on_c, 13, 53, 0
16, 164960, Note_on_c, 13, 53, 42
16, 164995, Note_on_c, 13, 53, 0
16, 165000, Note_on_c, 13, 62, 44
16, 165039, Note_on_c, 13, 62, 0
16, 165040, Note_on_c, 13, 62, 45
16, 165079, Note_on_c, 13, 62, 0
16, 165080, Note_on_c, 13, 62, 46
16, 165115, Note_on_c, 13, 62, 0
16, 165120, Note_on_c, 13, 62, 48
16, 165159, Note_on_c, 13, 62, 0
16, 165160, Note_on_c, 13, 62, 49
16, 165199, Note_on_c, 13, 62, 0
16, 165200, Note_on_c, 13, 62, 50
16, 165235, Note_on_c, 13, 62, 0
16, 165240, Note_on_c, 13, 62, 52
16, 165279, Note_on_c, 13, 62, 0
16, 165280, Note_on_c, 13, 62, 53
16, 165319, Note_on_c, 13, 62, 0
16, 165320, Note_on_c, 13, 62, 54
16, 165355, Note_on_c, 13, 62, 0
16, 165360, Note_on_c, 13, 65, 56
16, 165399, Note_on_c, 13, 65, 0
16, 165400, Note_on_c, 13, 65, 57
16, 165439, Note_on_c, 13, 65, 0
16, 165440, Note_on_c, 13, 65, 58
16, 165475, Note_on_c, 13, 65, 0
16, 165480, Note_on_c, 13, 65, 60
16, 165519, Note_on_c, 13, 65, 0
16, 165520, Note_on_c, 13, 65, 61
16, 165559, Note_on_c, 13, 65, 0
16, 165560, Note_on_c, 13, 65, 62
16, 165595, Note_on_c, 13, 65, 0
16, 165600, Note_on_c, 13, 65, 64
16, 165639, Note_on_c, 13, 65, 0
16, 165640, Note_on_c, 13, 65, 65
16, 165679, Note_on_c, 13, 65, 0
16, 165680, Note_on_c, 13, 65, 66
16, 165715, Note_on_c, 13, 65, 0
16, 165720, Note_on_c, 13, 70, 68
16, 165759, Note_on_c, 13, 70, 0
16, 165760, Note_on_c, 13, 70, 69
16, 165799, Note_on_c, 13, 70, 0
16, 165800, Note_on_c, 13, 70, 70
16, 165835, Note_on_c, 13, 70, 0
16, 165840, Note_on_c, 13, 70, 72
16, 165879, Note_on_c, 13, 70, 0
16, 165880, Note_on_c, 13, 70, 73
16, 165919, Note_on_c, 13, 70, 0
16, 165920, Note_on_c, 13, 70, 74
16, 165955, Note_on_c, 13, 70, 0
16, 165960, Note_on_c, 13, 70, 76
16, 165999, Note_on_c, 13, 70, 0
16, 166000, Note_on_c, 13, 70, 77
16, 166039, Note_on_c, 13, 70, 0
16, 166040, Note_on_c, 13, 70, 78
16, 166075, Note_on_c, 13, 70, 0
16, 166080, Note_on_c, 13, 65, 80
16, 166080, Note_on_c, 13, 74, 80
16, 166080, Note_on_c, 13, 58, 80
16, 166319, Note_on_c, 13, 65, 0
16, 166319, Note_on_c, 13, 74, 0
16, 166319, Note_on_c, 13, 58, 0
16, 166800, Note_on_c, 13, 69, 80
16, 166800, Note_on_c, 13, 65, 80
16, 166830, Control_c, 13, 11, 69
16, 167039, Note_on_c, 13, 69, 0
16, 167039, Note_on_c, 13, 65, 0
16, 167400, Control_c, 13, 11, 127
16, 167520, Note_on_c, 13, 57, 44
16, 167759, Note_on_c, 13, 57, 0
16, 167880, Note_on_c, 13, 69, 44
16, 168119, Note_on_c, 13, 69, 0
16, 168240, Note_on_c, 13, 70, 44
16, 168240, Note_on_c, 13, 65, 44
16, 168479, Note_on_c, 13, 70, 0
16, 168479, Note_on_c, 13, 65, 0
16, 168960, Note_on_c, 13, 69, 44
16, 169199, Note_on_c, 13, 69, 0
16, 169320, Note_on_c, 13, 60, 80
16, 169320, Note_on_c, 13, 53, 80
16, 169559, Note_on_c, 13, 60, 0
16, 169559, Note_on_c, 13, 53, 0
16, 169678, Program_c, 13, 45
16, 169680, Note_on_c, 13, 53, 44
16, 169680, Note_on_c, 13, 62, 44
16, 169919, Note_on_c, 13, 53, 0
16, 169919, Note_on_c, 13, 62, 0
16, 170040, Program_c, 13, 48
16, 170040, End_track
17, 0, Start_track
17, 0, Title_t, "Cello"
17, 0, MIDI_port, 0
17, 0, Program_c, 14, 48
17, 0, Control_c, 14, 121, 0
17, 0, Control_c, 14, 7, 96
17, 0, Control_c, 14, 10, 90
17, 0, Control_c, 14, 11, 89
17, 720, Note_on_c, 14, 41, 68
17, 720, Control_c, 14, 11, 89
17, 770, Control_c, 14, 11, 92
17, 820, Control_c, 14, 11, 95
17, 870, Control_c, 14, 11, 99
17, 920, Control_c, 14, 11, 101
17, 970, Control_c, 14, 11, 105
17, 1020, Control_c, 14, 11, 109
17, 1070, Control_c, 14, 11, 111
17, 1120, Control_c, 14, 11, 115
17, 1170, Control_c, 14, 11, 117
17, 1220, Control_c, 14, 11, 121
17, 1270, Control_c, 14, 11, 124
17, 1320, Control_c, 14, 11, 127
17, 1439, Note_on_c, 14, 41, 0
17, 1440, Note_on_c, 14, 42, 68
17, 1560, Control_c, 14, 11, 127
17, 1590, Control_c, 14, 11, 124
17, 1620, Control_c, 14, 11, 121
17, 1650, Control_c, 14, 11, 117
17, 1679, Note_on_c, 14, 42, 0
17, 1680, Note_on_c, 14, 41, 68
17, 1680, Control_c, 14, 11, 115
17, 1710, Control_c, 14, 11, 111
17, 1740, Control_c, 14, 11, 109
17, 1770, Control_c, 14, 11, 105
17, 1800, Control_c, 14, 11, 101
17, 1830, Control_c, 14, 11, 99
17, 1860, Control_c, 14, 11, 95
17, 1890, Control_c, 14, 11, 92
17, 1911, Note_on_c, 14, 41, 0
17, 1920, Note_on_c, 14, 46, 68
17, 1920, Control_c, 14, 11, 89
17, 2399, Note_on_c, 14, 46, 0
17, 2400, Note_on_c, 14, 51, 68
17, 2879, Note_on_c, 14, 51, 0
17, 2880, Note_on_c, 14, 50, 68
17, 3359, Note_on_c, 14, 50, 0
17, 3360, Note_on_c, 14, 45, 68
17, 3831, Note_on_c, 14, 45, 0
17, 3840, Note_on_c, 14, 46, 68
17, 4079, Note_on_c, 14, 46, 0
17, 4080, Note_on_c, 14, 45, 68
17, 4319, Note_on_c, 14, 45, 0
17, 4320, Note_on_c, 14, 43, 68
17, 4791, Note_on_c, 14, 43, 0
17, 4800, Note_on_c, 14, 41, 68
17, 5031, Note_on_c, 14, 41, 0
17, 5040, Note_on_c, 14, 53, 68
17, 5271, Note_on_c, 14, 53, 0
17, 5280, Note_on_c, 14, 53, 68
17, 5519, Note_on_c, 14, 53, 0
17, 6480, Note_on_c, 14, 51, 68
17, 7199, Note_on_c, 14, 51, 0
17, 7200, Note_on_c, 14, 50, 68
17, 7679, Note_on_c, 14, 50, 0
17, 7680, Note_on_c, 14, 45, 68
17, 8159, Note_on_c, 14, 45, 0
17, 8160, Note_on_c, 14, 46, 68
17, 8399, Note_on_c, 14, 46, 0
17, 8400, Note_on_c, 14, 55, 68
17, 8519, Note_on_c, 14, 55, 0
17, 8520, Note_on_c, 14, 53, 68
17, 8631, Note_on_c, 14, 53, 0
17, 8640, Note_on_c, 14, 51, 68
17, 8879, Note_on_c, 14, 51, 0
17, 8880, Note_on_c, 14, 55, 68
17, 9119, Note_on_c, 14, 55, 0
17, 9120, Note_on_c, 14, 53, 68
17, 9359, Note_on_c, 14, 53, 0
17, 9360, Note_on_c, 14, 41, 68
17, 9360, Control_c, 14, 11, 89
17, 9600, Control_c, 14, 11, 89
17, 9640, Control_c, 14, 11, 95
17, 9680, Control_c, 14, 11, 101
17, 9720, Control_c, 14, 11, 109
17, 9760, Control_c, 14, 11, 115
17, 9800, Control_c, 14, 11, 121
17, 9840, Control_c, 14, 11, 127
17, 9960, Control_c, 14, 11, 127
17, 10020, Control_c, 14, 11, 121
17, 10071, Note_on_c, 14, 41, 0
17, 10080, Control_c, 14, 11, 115
17, 10080, Note_on_c, 14, 46, 68
17, 10140, Control_c, 14, 11, 109
17, 10200, Control_c, 14, 11, 101
17, 10260, Control_c, 14, 11, 95
17, 10319, Note_on_c, 14, 46, 0
17, 10320, Control_c, 14, 11, 89
17, 11280, Note_on_c, 14, 46, 68
17, 11519, Note_on_c, 14, 46, 0
17, 11520, Note_on_c, 14, 51, 68
17, 11999, Note_on_c, 14, 51, 0
17, 12000, Note_on_c, 14, 50, 68
17, 12479, Note_on_c, 14, 50, 0
17, 12480, Control_c, 14, 11, 89
17, 12480, Note_on_c, 14, 48, 68
17, 12520, Control_c, 14, 11, 92
17, 12560, Control_c, 14, 11, 95
17, 12600, Control_c, 14, 11, 99
17, 12640, Control_c, 14, 11, 101
17, 12680, Control_c, 14, 11, 105
17, 12720, Control_c, 14, 11, 109
17, 12760, Control_c, 14, 11, 111
17, 12800, Control_c, 14, 11, 115
17, 12840, Control_c, 14, 11, 117
17, 12880, Control_c, 14, 11, 121
17, 12920, Control_c, 14, 11, 124
17, 12960, Control_c, 14, 11, 127
17, 13000, Control_c, 14, 11, 124
17, 13040, Control_c, 14, 11, 121
17, 13080, Control_c, 14, 11, 117
17, 13120, Control_c, 14, 11, 115
17, 13160, Control_c, 14, 11, 111
17, 13199, Note_on_c, 14, 48, 0
17, 13200, Control_c, 14, 11, 109
17, 13200, Note_on_c, 14, 46, 68
17, 13240, Control_c, 14, 11, 105
17, 13280, Control_c, 14, 11, 101
17, 13320, Control_c, 14, 11, 99
17, 13360, Control_c, 14, 11, 95
17, 13400, Control_c, 14, 11, 92
17, 13439, Note_on_c, 14, 46, 0
17, 13680, Control_c, 14, 11, 127
17, 14040, Note_on_c, 14, 55, 46
17, 14151, Note_on_c, 14, 55, 0
17, 14160, Note_on_c, 14, 51, 48
17, 14271, Note_on_c, 14, 51, 0
17, 14280, Note_on_c, 14, 51, 50
17, 14391, Note_on_c, 14, 51, 0
17, 14400, Note_on_c, 14, 51, 52
17, 14511, Note_on_c, 14, 51, 0
17, 14520, Note_on_c, 14, 51, 54
17, 14631, Note_on_c, 14, 51, 0
17, 14640, Note_on_c, 14, 51, 56
17, 14751, Note_on_c, 14, 51, 0
17, 14760, Note_on_c, 14, 51, 58
17, 14871, Note_on_c, 14, 51, 0
17, 14880, Note_on_c, 14, 52, 60
17, 14991, Note_on_c, 14, 52, 0
17, 15000, Note_on_c, 14, 52, 62
17, 15111, Note_on_c, 14, 52, 0
17, 15120, Note_on_c, 14, 52, 64
17, 15231, Note_on_c, 14, 52, 0
17, 15240, Note_on_c, 14, 52, 66
17, 15351, Note_on_c, 14, 52, 0
17, 15360, Note_on_c, 14, 52, 68
17, 15471, Note_on_c, 14, 52, 0
17, 15480, Note_on_c, 14, 53, 62
17, 15591, Note_on_c, 14, 53, 0
17, 15600, Note_on_c, 14, 53, 56
17, 15711, Note_on_c, 14, 53, 0
17, 15720, Note_on_c, 14, 53, 50
17, 15831, Note_on_c, 14, 53, 0
17, 15840, Note_on_c, 14, 53, 44
17, 15951, Note_on_c, 14, 53, 0
17, 15960, Note_on_c, 14, 41, 44
17, 16071, Note_on_c, 14, 41, 0
17, 16080, Note_on_c, 14, 53, 44
17, 16191, Note_on_c, 14, 53, 0
17, 16200, Note_on_c, 14, 53, 44
17, 16311, Note_on_c, 14, 53, 0
17, 16320, Note_on_c, 14, 53, 44
17, 16679, Note_on_c, 14, 53, 0
17, 16680, Note_on_c, 14, 46, 44
17, 16791, Note_on_c, 14, 46, 0
17, 16800, Note_on_c, 14, 46, 44
17, 17039, Note_on_c, 14, 46, 0
17, 17760, Note_on_c, 14, 46, 44
17, 17879, Note_on_c, 14, 46, 0
17, 18720, Note_on_c, 14, 46, 44
17, 18831, Note_on_c, 14, 46, 0
17, 18840, Note_on_c, 14, 55, 44
17, 18951, Note_on_c, 14, 55, 0
17, 18960, Note_on_c, 14, 51, 46
17, 19079, Note_on_c, 14, 51, 0
17, 19200, Note_on_c, 14, 51, 50
17, 19319, Note_on_c, 14, 51, 0
17, 19440, Note_on_c, 14, 51, 54
17, 19559, Note_on_c, 14, 51, 0
17, 19680, Note_on_c, 14, 52, 59
17, 19799, Note_on_c, 14, 52, 0
17, 19920, Note_on_c, 14, 52, 63
17, 20039, Note_on_c, 14, 52, 0
17, 20160, Note_on_c, 14, 52, 68
17, 20279, Note_on_c, 14, 52, 0
17, 20280, Note_on_c, 14, 53, 62
17, 20399, Note_on_c, 14, 53, 0
17, 20400, Note_on_c, 14, 53, 56
17, 20519, Note_on_c, 14, 53, 0
17, 20640, Note_on_c, 14, 53, 44
17, 20759, Note_on_c, 14, 53, 0
17, 20880, Note_on_c, 14, 53, 44
17, 20999, Note_on_c, 14, 53, 0
17, 21120, Note_on_c, 14, 53, 38
17, 21239, Note_on_c, 14, 53, 0
17, 21360, Note_on_c, 14, 53, 38
17, 21479, Note_on_c, 14, 53, 0
17, 21600, Note_on_c, 14, 53, 38
17, 21719, Note_on_c, 14, 53, 0
17, 21840, Note_on_c, 14, 54, 38
17, 21959, Note_on_c, 14, 54, 0
17, 22080, Note_on_c, 14, 54, 32
17, 22199, Note_on_c, 14, 54, 0
17, 22318, Control_c, 14, 11, 89
17, 22320, Note_on_c, 14, 50, 68
17, 22799, Note_on_c, 14, 50, 0
17, 22800, Note_on_c, 14, 45, 68
17, 23040, Control_c, 14, 11, 89
17, 23220, Control_c, 14, 11, 92
17, 23400, Control_c, 14, 11, 95
17, 23580, Control_c, 14, 11, 99
17, 23759, Note_on_c, 14, 45, 0
17, 23760, Control_c, 14, 11, 101
17, 23760, Note_on_c, 14, 45, 68
17, 23940, Control_c, 14, 11, 105
17, 24120, Control_c, 14, 11, 109
17, 24300, Control_c, 14, 11, 111
17, 24479, Note_on_c, 14, 45, 0
17, 24480, Note_on_c, 14, 45, 68
17, 24480, Control_c, 14, 11, 115
17, 24660, Control_c, 14, 11, 117
17, 24840, Control_c, 14, 11, 121
17, 25020, Control_c, 14, 11, 124
17, 25199, Note_on_c, 14, 45, 0
17, 25200, Note_on_c, 14, 45, 68
17, 25320, Control_c, 14, 11, 127
17, 25370, Control_c, 14, 11, 124
17, 25420, Control_c, 14, 11, 121
17, 25470, Control_c, 14, 11, 117
17, 25520, Control_c, 14, 11, 115
17, 25570, Control_c, 14, 11, 111
17, 25620, Control_c, 14, 11, 109
17, 25670, Control_c, 14, 11, 105
17, 25720, Control_c, 14, 11, 101
17, 25770, Control_c, 14, 11, 99
17, 25820, Control_c, 14, 11, 95
17, 25870, Control_c, 14, 11, 92
17, 25919, Note_on_c, 14, 45, 0
17, 25920, Note_on_c, 14, 57, 68
17, 25920, Control_c, 14, 11, 89
17, 25920, Note_on_c, 14, 45, 68
17, 26160, Control_c, 14, 11, 89
17, 26260, Control_c, 14, 11, 92
17, 26360, Control_c, 14, 11, 95
17, 26460, Control_c, 14, 11, 99
17, 26560, Control_c, 14, 11, 101
17, 26639, Note_on_c, 14, 57, 0
17, 26639, Note_on_c, 14, 45, 0
17, 26640, Note_on_c, 14, 45, 68
17, 26640, Note_on_c, 14, 57, 68
17, 26660, Control_c, 14, 11, 105
17, 26760, Control_c, 14, 11, 109
17, 26860, Control_c, 14, 11, 111
17, 26960, Control_c, 14, 11, 115
17, 27060, Control_c, 14, 11, 117
17, 27160, Control_c, 14, 11, 121
17, 27260, Control_c, 14, 11, 124
17, 27359, Note_on_c, 14, 45, 0
17, 27359, Note_on_c, 14, 57, 0
17, 27360, Control_c, 14, 11, 127
17, 27360, Note_on_c, 14, 57, 68
17, 27360, Note_on_c, 14, 45, 68
17, 27480, Control_c, 14, 11, 127
17, 27530, Control_c, 14, 11, 124
17, 27580, Control_c, 14, 11, 121
17, 27630, Control_c, 14, 11, 117
17, 27680, Control_c, 14, 11, 115
17, 27730, Control_c, 14, 11, 111
17, 27780, Control_c, 14, 11, 109
17, 27830, Control_c, 14, 11, 105
17, 27880, Control_c, 14, 11, 101
17, 27930, Control_c, 14, 11, 99
17, 27980, Control_c, 14, 11, 95
17, 28030, Control_c, 14, 11, 92
17, 28079, Note_on_c, 14, 57, 0
17, 28079, Note_on_c, 14, 45, 0
17, 28080, Control_c, 14, 11, 89
17, 28080, Note_on_c, 14, 57, 68
17, 28080, Note_on_c, 14, 45, 68
17, 28140, Control_c, 14, 11, 87
17, 28200, Control_c, 14, 11, 85
17, 28260, Control_c, 14, 11, 84
17, 28320, Control_c, 14, 11, 82
17, 28380, Control_c, 14, 11, 80
17, 28440, Control_c, 14, 11, 79
17, 28500, Control_c, 14, 11, 77
17, 28551, Note_on_c, 14, 57, 0
17, 28551, Note_on_c, 14, 45, 0
17, 28560, Control_c, 14, 11, 75
17, 28560, Note_on_c, 14, 50, 68
17, 28620, Control_c, 14, 11, 74
17, 28671, Note_on_c, 14, 50, 0
17, 28680, Note_on_c, 14, 57, 68
17, 28680, Note_on_c, 14, 45, 68
17, 28680, Control_c, 14, 11, 72
17, 28740, Control_c, 14, 11, 70
17, 28800, Control_c, 14, 11, 89
17, 28911, Note_on_c, 14, 57, 0
17, 28911, Note_on_c, 14, 45, 0
17, 28920, Control_c, 14, 11, 89
17, 28920, Note_on_c, 14, 45, 68
17, 28920, Note_on_c, 14, 57, 68
17, 29090, Control_c, 14, 11, 92
17, 29151, Note_on_c, 14, 45, 0
17, 29151, Note_on_c, 14, 57, 0
17, 29160, Note_on_c, 14, 45, 68
17, 29160, Note_on_c, 14, 57, 68
17, 29260, Control_c, 14, 11, 95
17, 29391, Note_on_c, 14, 45, 0
17, 29391, Note_on_c, 14, 57, 0
17, 29400, Note_on_c, 14, 57, 68
17, 29400, Note_on_c, 14, 45, 68
17, 29430, Control_c, 14, 11, 99
17, 29600, Control_c, 14, 11, 101
17, 29631, Note_on_c, 14, 57, 0
17, 29631, Note_on_c, 14, 45, 0
17, 29640, Note_on_c, 14, 57, 68
17, 29640, Note_on_c, 14, 45, 68
17, 29770, Control_c, 14, 11, 105
17, 29871, Note_on_c, 14, 57, 0
17, 29871, Note_on_c, 14, 45, 0
17, 29880, Note_on_c, 14, 45, 68
17, 29880, Note_on_c, 14, 57, 68
17, 29940, Control_c, 14, 11, 109
17, 30110, Control_c, 14, 11, 111
17, 30111, Note_on_c, 14, 45, 0
17, 30111, Note_on_c, 14, 57, 0
17, 30120, Note_on_c, 14, 57, 68
17, 30120, Note_on_c, 14, 45, 68
17, 30280, Control_c, 14, 11, 115
17, 30351, Note_on_c, 14, 57, 0
17, 30351, Note_on_c, 14, 45, 0
17, 30360, Note_on_c, 14, 45, 68
17, 30360, Note_on_c, 14, 57, 68
17, 30450, Control_c, 14, 11, 117
17, 30591, Note_on_c, 14, 45, 0
17, 30591, Note_on_c, 14, 57, 0
17, 30600, Note_on_c, 14, 45, 68
17, 30600, Note_on_c, 14, 57, 68
17, 30620, Control_c, 14, 11, 121
17, 30790, Control_c, 14, 11, 124
17, 30831, Note_on_c, 14, 45, 0
17, 30831, Note_on_c, 14, 57, 0
17, 30840, Note_on_c, 14, 57, 68
17, 30840, Note_on_c, 14, 45, 68
17, 30960, Control_c, 14, 11, 127
17, 31071, Note_on_c, 14, 57, 0
17, 31071, Note_on_c, 14, 45, 0
17, 31080, Note_on_c, 14, 57, 68
17, 31080, Note_on_c, 14, 45, 68
17, 31311, Note_on_c, 14, 57, 0
17, 31311, Note_on_c, 14, 45, 0
17, 31320, Note_on_c, 14, 57, 68
17, 31320, Control_c, 14, 11, 127
17, 31320, Note_on_c, 14, 45, 68
17, 31340, Control_c, 14, 11, 124
17, 31360, Control_c, 14, 11, 121
17, 31380, Control_c, 14, 11, 117
17, 31400, Control_c, 14, 11, 115
17, 31420, Control_c, 14, 11, 111
17, 31440, Control_c, 14, 11, 109
17, 31460, Control_c, 14, 11, 105
17, 31480, Control_c, 14, 11, 101
17, 31500, Control_c, 14, 11, 99
17, 31520, Control_c, 14, 11, 95
17, 31540, Control_c, 14, 11, 89
17, 31551, Note_on_c, 14, 57, 0
17, 31551, Note_on_c, 14, 45, 0
17, 31560, Note_on_c, 14, 45, 68
17, 31560, Note_on_c, 14, 57, 68
17, 31680, Control_c, 14, 11, 89
17, 31791, Note_on_c, 14, 45, 0
17, 31791, Note_on_c, 14, 57, 0
17, 31800, Control_c, 14, 11, 92
17, 31800, Note_on_c, 14, 57, 68
17, 31800, Note_on_c, 14, 45, 68
17, 31920, Control_c, 14, 11, 95
17, 32031, Note_on_c, 14, 57, 0
17, 32031, Note_on_c, 14, 45, 0
17, 32040, Note_on_c, 14, 57, 68
17, 32040, Note_on_c, 14, 45, 68
17, 32040, Control_c, 14, 11, 99
17, 32160, Control_c, 14, 11, 101
17, 32271, Note_on_c, 14, 57, 0
17, 32271, Note_on_c, 14, 45, 0
17, 32280, Note_on_c, 14, 57, 68
17, 32280, Control_c, 14, 11, 105
17, 32280, Note_on_c, 14, 45, 68
17, 32400, Control_c, 14, 11, 109
17, 32511, Note_on_c, 14, 57, 0
17, 32511, Note_on_c, 14, 45, 0
17, 32520, Note_on_c, 14, 45, 68
17, 32520, Note_on_c, 14, 57, 68
17, 32520, Control_c, 14, 11, 111
17, 32640, Control_c, 14, 11, 115
17, 32751, Note_on_c, 14, 45, 0
17, 32751, Note_on_c, 14, 57, 0
17, 32760, Control_c, 14, 11, 117
17, 32760, Note_on_c, 14, 45, 68
17, 32760, Note_on_c, 14, 57, 68
17, 32880, Control_c, 14, 11, 121
17, 32991, Note_on_c, 14, 45, 0
17, 32991, Note_on_c, 14, 57, 0
17, 33000, Note_on_c, 14, 45, 68
17, 33000, Control_c, 14, 11, 124
17, 33000, Note_on_c, 14, 57, 68
17, 33231, Note_on_c, 14, 45, 0
17, 33231, Note_on_c, 14, 57, 0
17, 33240, Note_on_c, 14, 45, 68
17, 33240, Note_on_c, 14, 57, 68
17, 33471, Note_on_c, 14, 45, 0
17, 33471, Note_on_c, 14, 57, 0
17, 33480, Note_on_c, 14, 45, 68
17, 33480, Note_on_c, 14, 57, 68
17, 33500, Control_c, 14, 11, 124
17, 33520, Control_c, 14, 11, 121
17, 33540, Control_c, 14, 11, 117
17, 33560, Control_c, 14, 11, 115
17, 33580, Control_c, 14, 11, 111
17, 33600, Control_c, 14, 11, 109
17, 33620, Control_c, 14, 11, 105
17, 33640, Control_c, 14, 11, 101
17, 33660, Control_c, 14, 11, 99
17, 33680, Control_c, 14, 11, 95
17, 33700, Control_c, 14, 11, 92
17, 33711, Note_on_c, 14, 45, 0
17, 33711, Note_on_c, 14, 57, 0
17, 33720, Note_on_c, 14, 45, 68
17, 33720, Note_on_c, 14, 57, 68
17, 33840, Control_c, 14, 11, 89
17, 33951, Note_on_c, 14, 45, 0
17, 33951, Note_on_c, 14, 57, 0
17, 33960, Note_on_c, 14, 45, 68
17, 33960, Control_c, 14, 11, 87
17, 33960, Note_on_c, 14, 57, 68
17, 34080, Control_c, 14, 11, 85
17, 34191, Note_on_c, 14, 45, 0
17, 34191, Note_on_c, 14, 57, 0
17, 34200, Control_c, 14, 11, 84
17, 34200, Note_on_c, 14, 45, 68
17, 34200, Note_on_c, 14, 57, 68
17, 34320, Control_c, 14, 11, 82
17, 34431, Note_on_c, 14, 45, 0
17, 34431, Note_on_c, 14, 57, 0
17, 34440, Note_on_c, 14, 45, 68
17, 34440, Note_on_c, 14, 57, 68
17, 34440, Control_c, 14, 11, 80
17, 34560, Control_c, 14, 11, 79
17, 34671, Note_on_c, 14, 45, 0
17, 34671, Note_on_c, 14, 57, 0
17, 34680, Note_on_c, 14, 45, 68
17, 34680, Note_on_c, 14, 57, 68
17, 34680, Control_c, 14, 11, 77
17, 34800, Control_c, 14, 11, 75
17, 34911, Note_on_c, 14, 45, 0
17, 34911, Note_on_c, 14, 57, 0
17, 34920, Control_c, 14, 11, 74
17, 34920, Note_on_c, 14, 45, 68
17, 35039, Note_on_c, 14, 45, 0
17, 35040, Note_on_c, 14, 46, 68
17, 35040, Control_c, 14, 11, 72
17, 35160, Control_c, 14, 11, 70
17, 35279, Note_on_c, 14, 46, 0
17, 35518, Control_c, 14, 11, 127
17, 35518, Program_c, 14, 45
17, 35520, Note_on_c, 14, 41, 28
17, 35759, Note_on_c, 14, 41, 0
17, 35760, Note_on_c, 14, 53, 28
17, 35879, Note_on_c, 14, 53, 0
17, 36000, Note_on_c, 14, 46, 28
17, 36239, Note_on_c, 14, 46, 0
17, 36360, Note_on_c, 14, 46, 28
17, 36479, Note_on_c, 14, 46, 0
17, 36480, Note_on_c, 14, 51, 28
17, 36719, Note_on_c, 14, 51, 0
17, 36840, Note_on_c, 14, 51, 28
17, 36959, Note_on_c, 14, 51, 0
17, 36960, Note_on_c, 14, 50, 28
17, 37199, Note_on_c, 14, 50, 0
17, 37320, Note_on_c, 14, 50, 28
17, 37439, Note_on_c, 14, 50, 0
17, 37440, Note_on_c, 14, 45, 28
17, 37679, Note_on_c, 14, 45, 0
17, 37800, Note_on_c, 14, 45, 28
17, 37919, Note_on_c, 14, 45, 0
17, 37920, Note_on_c, 14, 46, 28
17, 38159, Note_on_c, 14, 46, 0
17, 38280, Note_on_c, 14, 45, 28
17, 38399, Note_on_c, 14, 45, 0
17, 38400, Note_on_c, 14, 43, 28
17, 38639, Note_on_c, 14, 43, 0
17, 38760, Note_on_c, 14, 43, 28
17, 38879, Note_on_c, 14, 43, 0
17, 38880, Note_on_c, 14, 41, 28
17, 39119, Note_on_c, 14, 41, 0
17, 39240, Note_on_c, 14, 53, 28
17, 39359, Note_on_c, 14, 53, 0
17, 39360, Note_on_c, 14, 53, 28
17, 39599, Note_on_c, 14, 53, 0
17, 40680, Note_on_c, 14, 51, 28
17, 40799, Note_on_c, 14, 51, 0
17, 40800, Note_on_c, 14, 51, 28
17, 41039, Note_on_c, 14, 51, 0
17, 41160, Note_on_c, 14, 51, 28
17, 41279, Note_on_c, 14, 51, 0
17, 41280, Note_on_c, 14, 50, 28
17, 41519, Note_on_c, 14, 50, 0
17, 41640, Note_on_c, 14, 50, 28
17, 41759, Note_on_c, 14, 50, 0
17, 41760, Note_on_c, 14, 45, 28
17, 41999, Note_on_c, 14, 45, 0
17, 42120, Note_on_c, 14, 45, 28
17, 42239, Note_on_c, 14, 45, 0
17, 42240, Note_on_c, 14, 46, 28
17, 42479, Note_on_c, 14, 46, 0
17, 42600, Note_on_c, 14, 55, 28
17, 42719, Note_on_c, 14, 55, 0
17, 42720, Note_on_c, 14, 51, 28
17, 42959, Note_on_c, 14, 51, 0
17, 43080, Note_on_c, 14, 55, 28
17, 43199, Note_on_c, 14, 55, 0
17, 43200, Note_on_c, 14, 53, 28
17, 43439, Note_on_c, 14, 53, 0
17, 43560, Note_on_c, 14, 41, 28
17, 43679, Note_on_c, 14, 41, 0
17, 43680, Note_on_c, 14, 41, 28
17, 43919, Note_on_c, 14, 41, 0
17, 44040, Note_on_c, 14, 41, 28
17, 44159, Note_on_c, 14, 41, 0
17, 44160, Note_on_c, 14, 46, 28
17, 44279, Note_on_c, 14, 46, 0
17, 44280, Note_on_c, 14, 50, 28
17, 44399, Note_on_c, 14, 50, 0
17, 44400, Note_on_c, 14, 53, 28
17, 44519, Note_on_c, 14, 53, 0
17, 45480, Note_on_c, 14, 46, 28
17, 45599, Note_on_c, 14, 46, 0
17, 45600, Note_on_c, 14, 51, 28
17, 45839, Note_on_c, 14, 51, 0
17, 45960, Note_on_c, 14, 51, 28
17, 46079, Note_on_c, 14, 51, 0
17, 46080, Note_on_c, 14, 50, 28
17, 46319, Note_on_c, 14, 50, 0
17, 46440, Note_on_c, 14, 50, 28
17, 46559, Note_on_c, 14, 50, 0
17, 46560, Note_on_c, 14, 48, 28
17, 46799, Note_on_c, 14, 48, 0
17, 46920, Note_on_c, 14, 48, 46
17, 47039, Note_on_c, 14, 48, 0
17, 47040, Note_on_c, 14, 48, 52
17, 47159, Note_on_c, 14, 48, 0
17, 47280, Note_on_c, 14, 46, 40
17, 47399, Note_on_c, 14, 46, 0
17, 48120, Note_on_c, 14, 55, 28
17, 48239, Note_on_c, 14, 55, 0
17, 48240, Note_on_c, 14, 51, 28
17, 48359, Note_on_c, 14, 51, 0
17, 48360, Note_on_c, 14, 51, 31
17, 48479, Note_on_c, 14, 51, 0
17, 48480, Note_on_c, 14, 51, 35
17, 48719, Note_on_c, 14, 51, 0
17, 48840, Note_on_c, 14, 63, 46
17, 48959, Note_on_c, 14, 63, 0
17, 48960, Note_on_c, 14, 64, 49
17, 49199, Note_on_c, 14, 64, 0
17, 49320, Note_on_c, 14, 52, 60
17, 49439, Note_on_c, 14, 52, 0
17, 49440, Note_on_c, 14, 52, 64
17, 49559, Note_on_c, 14, 52, 0
17, 49560, Note_on_c, 14, 53, 58
17, 49679, Note_on_c, 14, 53, 0
17, 49800, Note_on_c, 14, 53, 46
17, 49919, Note_on_c, 14, 53, 0
17, 49920, Note_on_c, 14, 53, 40
17, 50159, Note_on_c, 14, 53, 0
17, 50280, Note_on_c, 14, 41, 40
17, 50399, Note_on_c, 14, 41, 0
17, 50400, Note_on_c, 14, 41, 40
17, 50639, Note_on_c, 14, 41, 0
17, 50640, Note_on_c, 14, 53, 40
17, 50759, Note_on_c, 14, 53, 0
17, 50760, Note_on_c, 14, 46, 40
17, 50879, Note_on_c, 14, 46, 0
17, 50880, Note_on_c, 14, 46, 40
17, 51119, Note_on_c, 14, 46, 0
17, 51600, Program_c, 14, 48
17, 51840, Note_on_c, 14, 46, 44
17, 51959, Note_on_c, 14, 46, 0
17, 52800, Note_on_c, 14, 46, 44
17, 52911, Note_on_c, 14, 46, 0
17, 52920, Note_on_c, 14, 55, 44
17, 53031, Note_on_c, 14, 55, 0
17, 53040, Note_on_c, 14, 51, 44
17, 53159, Note_on_c, 14, 51, 0
17, 53280, Note_on_c, 14, 51, 48
17, 53399, Note_on_c, 14, 51, 0
17, 53520, Note_on_c, 14, 51, 53
17, 53639, Note_on_c, 14, 51, 0
17, 53760, Note_on_c, 14, 52, 58
17, 53879, Note_on_c, 14, 52, 0
17, 54000, Note_on_c, 14, 52, 63
17, 54119, Note_on_c, 14, 52, 0
17, 54240, Note_on_c, 14, 52, 68
17, 54359, Note_on_c, 14, 52, 0
17, 54360, Note_on_c, 14, 53, 62
17, 54479, Note_on_c, 14, 53, 0
17, 54480, Note_on_c, 14, 53, 56
17, 54599, Note_on_c, 14, 53, 0
17, 54720, Note_on_c, 14, 53, 44
17, 54839, Note_on_c, 14, 53, 0
17, 54960, Note_on_c, 14, 53, 44
17, 55079, Note_on_c, 14, 53, 0
17, 55200, Note_on_c, 14, 53, 38
17, 55319, Note_on_c, 14, 53, 0
17, 55440, Note_on_c, 14, 53, 38
17, 55559, Note_on_c, 14, 53, 0
17, 55680, Note_on_c, 14, 53, 38
17, 55799, Note_on_c, 14, 53, 0
17, 55920, Note_on_c, 14, 54, 38
17, 56039, Note_on_c, 14, 54, 0
17, 56160, Note_on_c, 14, 54, 32
17, 56279, Note_on_c, 14, 54, 0
17, 56640, Control_c, 14, 11, 89
17, 56880, Note_on_c, 14, 55, 56
17, 57119, Note_on_c, 14, 55, 0
17, 57120, Note_on_c, 14, 50, 56
17, 57359, Note_on_c, 14, 50, 0
17, 57360, Control_c, 14, 11, 89
17, 57360, Note_on_c, 14, 54, 56
17, 57411, Control_c, 14, 11, 90
17, 57461, Control_c, 14, 11, 91
17, 57512, Control_c, 14, 11, 92
17, 57562, Control_c, 14, 11, 93
17, 57599, Note_on_c, 14, 54, 0
17, 57600, Note_on_c, 14, 50, 56
17, 57613, Control_c, 14, 11, 94
17, 57663, Control_c, 14, 11, 95
17, 57714, Control_c, 14, 11, 96
17, 57764, Control_c, 14, 11, 97
17, 57815, Control_c, 14, 11, 98
17, 57865, Control_c, 14, 11, 99
17, 57916, Control_c, 14, 11, 100
17, 57966, Control_c, 14, 11, 101
17, 58017, Control_c, 14, 11, 102
17, 58067, Control_c, 14, 11, 103
17, 58079, Note_on_c, 14, 50, 0
17, 58080, Note_on_c, 14, 55, 56
17, 58118, Control_c, 14, 11, 104
17, 58168, Control_c, 14, 11, 105
17, 58219, Control_c, 14, 11, 106
17, 58269, Control_c, 14, 11, 107
17, 58319, Note_on_c, 14, 55, 0
17, 58320, Control_c, 14, 11, 108
17, 58320, Note_on_c, 14, 50, 56
17, 58371, Control_c, 14, 11, 109
17, 58421, Control_c, 14, 11, 110
17, 58472, Control_c, 14, 11, 111
17, 58522, Control_c, 14, 11, 112
17, 58573, Control_c, 14, 11, 113
17, 58623, Control_c, 14, 11, 114
17, 58674, Control_c, 14, 11, 115
17, 58724, Control_c, 14, 11, 116
17, 58775, Control_c, 14, 11, 117
17, 58799, Note_on_c, 14, 50, 0
17, 58800, Note_on_c, 14, 57, 56
17, 58825, Control_c, 14, 11, 118
17, 58876, Control_c, 14, 11, 119
17, 58926, Control_c, 14, 11, 120
17, 58977, Control_c, 14, 11, 121
17, 59027, Control_c, 14, 11, 122
17, 59039, Note_on_c, 14, 57, 0
17, 59040, Note_on_c, 14, 50, 56
17, 59078, Control_c, 14, 11, 123
17, 59128, Control_c, 14, 11, 124
17, 59179, Control_c, 14, 11, 125
17, 59229, Control_c, 14, 11, 126
17, 59280, Control_c, 14, 11, 127
17, 59391, Note_on_c, 14, 50, 0
17, 59400, Note_on_c, 14, 62, 56
17, 59519, Note_on_c, 14, 62, 0
17, 59640, Control_c, 14, 11, 127
17, 59640, Note_on_c, 14, 59, 56
17, 59655, Control_c, 14, 11, 125
17, 59670, Control_c, 14, 11, 124
17, 59685, Control_c, 14, 11, 122
17, 59700, Control_c, 14, 11, 120
17, 59715, Control_c, 14, 11, 119
17, 59730, Control_c, 14, 11, 117
17, 59745, Control_c, 14, 11, 115
17, 59751, Note_on_c, 14, 59, 0
17, 59760, Note_on_c, 14, 59, 56
17, 59760, Control_c, 14, 11, 114
17, 59775, Control_c, 14, 11, 112
17, 59790, Control_c, 14, 11, 110
17, 59805, Control_c, 14, 11, 109
17, 59820, Control_c, 14, 11, 107
17, 59835, Control_c, 14, 11, 105
17, 59850, Control_c, 14, 11, 104
17, 59865, Control_c, 14, 11, 102
17, 59879, Note_on_c, 14, 59, 0
17, 59880, Control_c, 14, 11, 100
17, 59880, Note_on_c, 14, 55, 56
17, 59895, Control_c, 14, 11, 99
17, 59910, Control_c, 14, 11, 97
17, 59925, Control_c, 14, 11, 95
17, 59940, Control_c, 14, 11, 94
17, 59955, Control_c, 14, 11, 92
17, 59970, Control_c, 14, 11, 90
17, 59985, Control_c, 14, 11, 89
17, 60000, Control_c, 14, 11, 87
17, 60239, Note_on_c, 14, 55, 0
17, 60240, Control_c, 14, 11, 87
17, 60240, Note_on_c, 14, 54, 56
17, 60270, Control_c, 14, 11, 88
17, 60300, Control_c, 14, 11, 89
17, 60330, Control_c, 14, 11, 90
17, 60360, Control_c, 14, 11, 91
17, 60390, Control_c, 14, 11, 92
17, 60420, Control_c, 14, 11, 93
17, 60450, Control_c, 14, 11, 94
17, 60479, Note_on_c, 14, 54, 0
17, 60480, Control_c, 14, 11, 95
17, 60480, Note_on_c, 14, 50, 56
17, 60510, Control_c, 14, 11, 96
17, 60540, Control_c, 14, 11, 97
17, 60570, Control_c, 14, 11, 98
17, 60600, Control_c, 14, 11, 99
17, 60630, Control_c, 14, 11, 100
17, 60660, Control_c, 14, 11, 101
17, 60690, Control_c, 14, 11, 102
17, 60720, Control_c, 14, 11, 103
17, 60750, Control_c, 14, 11, 104
17, 60780, Control_c, 14, 11, 105
17, 60810, Control_c, 14, 11, 106
17, 60840, Control_c, 14, 11, 107
17, 60870, Control_c, 14, 11, 108
17, 60900, Control_c, 14, 11, 109
17, 60930, Control_c, 14, 11, 110
17, 60959, Note_on_c, 14, 50, 0
17, 60960, Note_on_c, 14, 55, 56
17, 60960, Control_c, 14, 11, 111
17, 60990, Control_c, 14, 11, 112
17, 61020, Control_c, 14, 11, 113
17, 61050, Control_c, 14, 11, 114
17, 61080, Control_c, 14, 11, 115
17, 61110, Control_c, 14, 11, 116
17, 61140, Control_c, 14, 11, 117
17, 61170, Control_c, 14, 11, 118
17, 61199, Note_on_c, 14, 55, 0
17, 61200, Control_c, 14, 11, 119
17, 61200, Note_on_c, 14, 50, 56
17, 61230, Control_c, 14, 11, 120
17, 61260, Control_c, 14, 11, 121
17, 61290, Control_c, 14, 11, 122
17, 61320, Control_c, 14, 11, 123
17, 61350, Control_c, 14, 11, 124
17, 61380, Control_c, 14, 11, 125
17, 61410, Control_c, 14, 11, 126
17, 61440, Control_c, 14, 11, 127
17, 61679, Note_on_c, 14, 50, 0
17, 61680, Note_on_c, 14, 62, 56
17, 61800, Control_c, 14, 11, 127
17, 61823, Control_c, 14, 11, 126
17, 61845, Control_c, 14, 11, 125
17, 61868, Control_c, 14, 11, 124
17, 61890, Control_c, 14, 11, 123
17, 61913, Control_c, 14, 11, 122
17, 61919, Note_on_c, 14, 62, 0
17, 61920, Note_on_c, 14, 50, 56
17, 61935, Control_c, 14, 11, 121
17, 61958, Control_c, 14, 11, 120
17, 61980, Control_c, 14, 11, 119
17, 62003, Control_c, 14, 11, 118
17, 62025, Control_c, 14, 11, 117
17, 62048, Control_c, 14, 11, 116
17, 62070, Control_c, 14, 11, 115
17, 62093, Control_c, 14, 11, 114
17, 62115, Control_c, 14, 11, 113
17, 62138, Control_c, 14, 11, 112
17, 62160, Control_c, 14, 11, 111
17, 62183, Control_c, 14, 11, 110
17, 62205, Control_c, 14, 11, 109
17, 62228, Control_c, 14, 11, 108
17, 62250, Control_c, 14, 11, 107
17, 62273, Control_c, 14, 11, 106
17, 62295, Control_c, 14, 11, 105
17, 62318, Control_c, 14, 11, 104
17, 62340, Control_c, 14, 11, 103
17, 62363, Control_c, 14, 11, 102
17, 62385, Control_c, 14, 11, 101
17, 62391, Note_on_c, 14, 50, 0
17, 62400, Note_on_c, 14, 50, 56
17, 62408, Control_c, 14, 11, 100
17, 62430, Control_c, 14, 11, 99
17, 62453, Control_c, 14, 11, 98
17, 62475, Control_c, 14, 11, 97
17, 62498, Control_c, 14, 11, 96
17, 62520, Control_c, 14, 11, 95
17, 62543, Control_c, 14, 11, 94
17, 62565, Control_c, 14, 11, 93
17, 62588, Control_c, 14, 11, 92
17, 62610, Control_c, 14, 11, 91
17, 62633, Control_c, 14, 11, 90
17, 62639, Note_on_c, 14, 50, 0
17, 62640, Note_on_c, 14, 43, 56
17, 62655, Control_c, 14, 11, 89
17, 62678, Control_c, 14, 11, 88
17, 62700, Control_c, 14, 11, 87
17, 62723, Control_c, 14, 11, 86
17, 62745, Control_c, 14, 11, 85
17, 62768, Control_c, 14, 11, 84
17, 62790, Control_c, 14, 11, 83
17, 62813, Control_c, 14, 11, 82
17, 62835, Control_c, 14, 11, 81
17, 62858, Control_c, 14, 11, 80
17, 62871, Note_on_c, 14, 43, 0
17, 62880, Note_on_c, 14, 38, 56
17, 63000, Control_c, 14, 11, 79
17, 63119, Note_on_c, 14, 38, 0
17, 63120, Note_on_c, 14, 50, 56
17, 63120, Control_c, 14, 11, 79
17, 63160, Control_c, 14, 11, 80
17, 63200, Control_c, 14, 11, 81
17, 63240, Control_c, 14, 11, 82
17, 63280, Control_c, 14, 11, 83
17, 63320, Control_c, 14, 11, 84
17, 63359, Note_on_c, 14, 50, 0
17, 63360, Note_on_c, 14, 38, 56
17, 63360, Control_c, 14, 11, 85
17, 63400, Control_c, 14, 11, 86
17, 63440, Control_c, 14, 11, 87
17, 63480, Control_c, 14, 11, 88
17, 63520, Control_c, 14, 11, 89
17, 63560, Control_c, 14, 11, 90
17, 63600, Control_c, 14, 11, 91
17, 63640, Control_c, 14, 11, 92
17, 63680, Control_c, 14, 11, 93
17, 63720, Control_c, 14, 11, 94
17, 63760, Control_c, 14, 11, 95
17, 63800, Control_c, 14, 11, 96
17, 63839, Note_on_c, 14, 38, 0
17, 63840, Control_c, 14, 11, 97
17, 63840, Note_on_c, 14, 43, 56
17, 63880, Control_c, 14, 11, 98
17, 63920, Control_c, 14, 11, 99
17, 63960, Control_c, 14, 11, 100
17, 64000, Control_c, 14, 11, 101
17, 64040, Control_c, 14, 11, 102
17, 64079, Note_on_c, 14, 43, 0
17, 64080, Control_c, 14, 11, 103
17, 64080, Note_on_c, 14, 38, 56
17, 64120, Control_c, 14, 11, 104
17, 64160, Control_c, 14, 11, 105
17, 64200, Control_c, 14, 11, 106
17, 64240, Control_c, 14, 11, 107
17, 64280, Control_c, 14, 11, 108
17, 64320, Control_c, 14, 11, 109
17, 64360, Control_c, 14, 11, 110
17, 64400, Control_c, 14, 11, 111
17, 64440, Control_c, 14, 11, 112
17, 64480, Control_c, 14, 11, 113
17, 64520, Control_c, 14, 11, 114
17, 64559, Note_on_c, 14, 38, 0
17, 64560, Control_c, 14, 11, 115
17, 64560, Note_on_c, 14, 50, 56
17, 64600, Control_c, 14, 11, 116
17, 64640, Control_c, 14, 11, 117
17, 64680, Control_c, 14, 11, 118
17, 64720, Control_c, 14, 11, 119
17, 64760, Control_c, 14, 11, 120
17, 64799, Note_on_c, 14, 50, 0
17, 64800, Control_c, 14, 11, 121
17, 64800, Note_on_c, 14, 38, 56
17, 64840, Control_c, 14, 11, 122
17, 64880, Control_c, 14, 11, 123
17, 64920, Control_c, 14, 11, 124
17, 64960, Control_c, 14, 11, 125
17, 65000, Control_c, 14, 11, 126
17, 65279, Note_on_c, 14, 38, 0
17, 65280, Control_c, 14, 11, 127
17, 65280, Note_on_c, 14, 43, 56
17, 65300, Control_c, 14, 11, 125
17, 65320, Control_c, 14, 11, 124
17, 65340, Control_c, 14, 11, 122
17, 65360, Control_c, 14, 11, 120
17, 65380, Control_c, 14, 11, 119
17, 65400, Control_c, 14, 11, 117
17, 65420, Control_c, 14, 11, 115
17, 65440, Control_c, 14, 11, 114
17, 65460, Control_c, 14, 11, 112
17, 65480, Control_c, 14, 11, 110
17, 65500, Control_c, 14, 11, 109
17, 65519, Note_on_c, 14, 43, 0
17, 65520, Control_c, 14, 11, 107
17, 65520, Note_on_c, 14, 38, 56
17, 65540, Control_c, 14, 11, 105
17, 65560, Control_c, 14, 11, 104
17, 65580, Control_c, 14, 11, 102
17, 65600, Control_c, 14, 11, 100
17, 65620, Control_c, 14, 11, 99
17, 65640, Control_c, 14, 11, 97
17, 65660, Control_c, 14, 11, 95
17, 65680, Control_c, 14, 11, 94
17, 65700, Control_c, 14, 11, 92
17, 65720, Control_c, 14, 11, 90
17, 65740, Control_c, 14, 11, 89
17, 65995, Note_on_c, 14, 38, 0
17, 65998, Control_c, 14, 11, 69
17, 66000, Control_c, 14, 11, 69
17, 66000, Note_on_c, 14, 50, 68
17, 66025, Control_c, 14, 11, 70
17, 66050, Control_c, 14, 11, 71
17, 66075, Control_c, 14, 11, 73
17, 66100, Control_c, 14, 11, 74
17, 66125, Control_c, 14, 11, 75
17, 66150, Control_c, 14, 11, 76
17, 66175, Control_c, 14, 11, 77
17, 66200, Control_c, 14, 11, 79
17, 66225, Control_c, 14, 11, 80
17, 66239, Note_on_c, 14, 50, 0
17, 66240, Note_on_c, 14, 38, 68
17, 66250, Control_c, 14, 11, 81
17, 66275, Control_c, 14, 11, 82
17, 66300, Control_c, 14, 11, 84
17, 66325, Control_c, 14, 11, 85
17, 66350, Control_c, 14, 11, 86
17, 66375, Control_c, 14, 11, 87
17, 66400, Control_c, 14, 11, 88
17, 66425, Control_c, 14, 11, 90
17, 66450, Control_c, 14, 11, 91
17, 66475, Control_c, 14, 11, 92
17, 66500, Control_c, 14, 11, 93
17, 66525, Control_c, 14, 11, 94
17, 66550, Control_c, 14, 11, 96
17, 66575, Control_c, 14, 11, 97
17, 66600, Control_c, 14, 11, 98
17, 66625, Control_c, 14, 11, 99
17, 66650, Control_c, 14, 11, 100
17, 66675, Control_c, 14, 11, 102
17, 66700, Control_c, 14, 11, 103
17, 66719, Note_on_c, 14, 38, 0
17, 66720, Note_on_c, 14, 43, 68
17, 66725, Control_c, 14, 11, 104
17, 66750, Control_c, 14, 11, 105
17, 66775, Control_c, 14, 11, 106
17, 66800, Control_c, 14, 11, 108
17, 66825, Control_c, 14, 11, 109
17, 66850, Control_c, 14, 11, 110
17, 66875, Control_c, 14, 11, 111
17, 66900, Control_c, 14, 11, 113
17, 66925, Control_c, 14, 11, 114
17, 66950, Control_c, 14, 11, 115
17, 66959, Note_on_c, 14, 43, 0
17, 66960, Note_on_c, 14, 38, 68
17, 66975, Control_c, 14, 11, 116
17, 67000, Control_c, 14, 11, 117
17, 67025, Control_c, 14, 11, 119
17, 67050, Control_c, 14, 11, 120
17, 67075, Control_c, 14, 11, 121
17, 67100, Control_c, 14, 11, 122
17, 67125, Control_c, 14, 11, 123
17, 67150, Control_c, 14, 11, 125
17, 67175, Control_c, 14, 11, 126
17, 67439, Note_on_c, 14, 38, 0
17, 67440, Note_on_c, 14, 50, 68
17, 67440, Control_c, 14, 11, 127
17, 67472, Control_c, 14, 11, 126
17, 67504, Control_c, 14, 11, 125
17, 67536, Control_c, 14, 11, 124
17, 67568, Control_c, 14, 11, 123
17, 67600, Control_c, 14, 11, 122
17, 67632, Control_c, 14, 11, 121
17, 67664, Control_c, 14, 11, 120
17, 67679, Note_on_c, 14, 50, 0
17, 67680, Note_on_c, 14, 38, 68
17, 67696, Control_c, 14, 11, 119
17, 67728, Control_c, 14, 11, 118
17, 67760, Control_c, 14, 11, 117
17, 67792, Control_c, 14, 11, 116
17, 67824, Control_c, 14, 11, 115
17, 67856, Control_c, 14, 11, 114
17, 67888, Control_c, 14, 11, 113
17, 67920, Control_c, 14, 11, 112
17, 67952, Control_c, 14, 11, 111
17, 67984, Control_c, 14, 11, 110
17, 68016, Control_c, 14, 11, 109
17, 68048, Control_c, 14, 11, 108
17, 68080, Control_c, 14, 11, 107
17, 68112, Control_c, 14, 11, 106
17, 68144, Control_c, 14, 11, 105
17, 68151, Note_on_c, 14, 38, 0
17, 68160, Note_on_c, 14, 38, 68
17, 68176, Control_c, 14, 11, 104
17, 68208, Control_c, 14, 11, 103
17, 68240, Control_c, 14, 11, 102
17, 68272, Control_c, 14, 11, 101
17, 68304, Control_c, 14, 11, 100
17, 68336, Control_c, 14, 11, 99
17, 68368, Control_c, 14, 11, 98
17, 68399, Note_on_c, 14, 38, 0
17, 68400, Note_on_c, 14, 43, 68
17, 68400, Control_c, 14, 11, 97
17, 68432, Control_c, 14, 11, 96
17, 68464, Control_c, 14, 11, 95
17, 68496, Control_c, 14, 11, 94
17, 68511, Note_on_c, 14, 43, 0
17, 68520, Note_on_c, 14, 38, 68
17, 68528, Control_c, 14, 11, 93
17, 68560, Control_c, 14, 11, 92
17, 68592, Control_c, 14, 11, 91
17, 68624, Control_c, 14, 11, 90
17, 68656, Control_c, 14, 11, 89
17, 68688, Control_c, 14, 11, 88
17, 68720, Control_c, 14, 11, 87
17, 68752, Control_c, 14, 11, 86
17, 68784, Control_c, 14, 11, 85
17, 68816, Control_c, 14, 11, 84
17, 68848, Control_c, 14, 11, 83
17, 68871, Note_on_c, 14, 38, 0
17, 68880, Note_on_c, 14, 38, 68
17, 68880, Control_c, 14, 11, 82
17, 68912, Control_c, 14, 11, 81
17, 68944, Control_c, 14, 11, 80
17, 68976, Control_c, 14, 11, 79
17, 69008, Control_c, 14, 11, 78
17, 69040, Control_c, 14, 11, 77
17, 69072, Control_c, 14, 11, 76
17, 69104, Control_c, 14, 11, 75
17, 69119, Note_on_c, 14, 38, 0
17, 69120, Note_on_c, 14, 39, 68
17, 69136, Control_c, 14, 11, 74
17, 69168, Control_c, 14, 11, 73
17, 69200, Control_c, 14, 11, 72
17, 69232, Control_c, 14, 11, 71
17, 69264, Control_c, 14, 11, 70
17, 69296, Control_c, 14, 11, 69
17, 69328, Control_c, 14, 11, 68
17, 69360, Control_c, 14, 11, 67
17, 69479, Note_on_c, 14, 39, 0
17, 69480, Note_on_c, 14, 51, 68
17, 69599, Note_on_c, 14, 51, 0
17, 69600, Note_on_c, 14, 46, 68
17, 70071, Note_on_c, 14, 46, 0
17, 70080, Note_on_c, 14, 51, 68
17, 70319, Note_on_c, 14, 51, 0
17, 72960, Control_c, 14, 11, 127
17, 72960, Program_c, 14, 45
17, 73800, Note_on_c, 14, 46, 28
17, 73919, Note_on_c, 14, 46, 0
17, 73920, Note_on_c, 14, 46, 28
17, 74039, Note_on_c, 14, 46, 0
17, 75680, Note_on_c, 14, 46, 28
17, 75759, Note_on_c, 14, 46, 0
17, 75760, Note_on_c, 14, 46, 28
17, 75839, Note_on_c, 14, 46, 0
17, 75840, Note_on_c, 14, 39, 28
17, 76079, Note_on_c, 14, 39, 0
17, 76160, Note_on_c, 14, 39, 28
17, 76239, Note_on_c, 14, 39, 0
17, 76240, Note_on_c, 14, 39, 28
17, 76319, Note_on_c, 14, 39, 0
17, 76320, Note_on_c, 14, 46, 28
17, 76559, Note_on_c, 14, 46, 0
17, 76640, Note_on_c, 14, 46, 28
17, 76719, Note_on_c, 14, 46, 0
17, 76720, Note_on_c, 14, 46, 28
17, 76799, Note_on_c, 14, 46, 0
17, 76800, Note_on_c, 14, 46, 28
17, 77039, Note_on_c, 14, 46, 0
17, 78560, Note_on_c, 14, 54, 28
17, 78639, Note_on_c, 14, 54, 0
17, 78640, Note_on_c, 14, 54, 28
17, 78719, Note_on_c, 14, 54, 0
17, 78720, Note_on_c, 14, 59, 28
17, 78959, Note_on_c, 14, 59, 0
17, 79040, Note_on_c, 14, 59, 28
17, 79119, Note_on_c, 14, 59, 0
17, 79120, Note_on_c, 14, 59, 28
17, 79199, Note_on_c, 14, 59, 0
17, 79200, Note_on_c, 14, 56, 28
17, 79319, Note_on_c, 14, 56, 0
17, 79320, Note_on_c, 14, 56, 28
17, 79439, Note_on_c, 14, 56, 0
17, 79440, Note_on_c, 14, 54, 28
17, 79559, Note_on_c, 14, 54, 0
17, 79560, Note_on_c, 14, 52, 28
17, 79679, Note_on_c, 14, 52, 0
17, 79680, Note_on_c, 14, 52, 28
17, 79799, Note_on_c, 14, 52, 0
17, 79800, Note_on_c, 14, 54, 28
17, 79919, Note_on_c, 14, 54, 0
17, 80000, Note_on_c, 14, 54, 28
17, 80079, Note_on_c, 14, 54, 0
17, 80080, Note_on_c, 14, 54, 28
17, 80159, Note_on_c, 14, 54, 0
17, 80160, Note_on_c, 14, 54, 28
17, 80399, Note_on_c, 14, 54, 0
17, 80480, Note_on_c, 14, 54, 28
17, 80559, Note_on_c, 14, 54, 0
17, 80560, Note_on_c, 14, 54, 28
17, 80639, Note_on_c, 14, 54, 0
17, 80640, Note_on_c, 14, 47, 28
17, 80879, Note_on_c, 14, 47, 0
17, 80960, Note_on_c, 14, 47, 28
17, 81039, Note_on_c, 14, 47, 0
17, 81040, Note_on_c, 14, 47, 28
17, 81119, Note_on_c, 14, 47, 0
17, 81120, Note_on_c, 14, 42, 28
17, 81359, Note_on_c, 14, 42, 0
17, 81440, Note_on_c, 14, 54, 28
17, 81519, Note_on_c, 14, 54, 0
17, 81520, Note_on_c, 14, 54, 28
17, 81599, Note_on_c, 14, 54, 0
17, 81600, Note_on_c, 14, 54, 28
17, 81679, Note_on_c, 14, 54, 0
17, 81680, Note_on_c, 14, 58, 28
17, 81759, Note_on_c, 14, 58, 0
17, 81760, Note_on_c, 14, 61, 28
17, 81839, Note_on_c, 14, 61, 0
17, 82560, Note_on_c, 14, 47, 28
17, 82799, Note_on_c, 14, 47, 0
17, 83520, Note_on_c, 14, 54, 28
17, 83599, Note_on_c, 14, 54, 0
17, 83600, Note_on_c, 14, 58, 29
17, 83679, Note_on_c, 14, 58, 0
17, 83680, Note_on_c, 14, 61, 31
17, 83759, Note_on_c, 14, 61, 0
17, 84480, Note_on_c, 14, 54, 46
17, 84559, Note_on_c, 14, 54, 0
17, 84560, Note_on_c, 14, 58, 47
17, 84639, Note_on_c, 14, 58, 0
17, 84640, Note_on_c, 14, 61, 49
17, 84719, Note_on_c, 14, 61, 0
17, 85200, Note_on_c, 14, 53, 59
17, 85279, Note_on_c, 14, 53, 0
17, 85280, Note_on_c, 14, 58, 61
17, 85359, Note_on_c, 14, 58, 0
17, 85360, Note_on_c, 14, 62, 62
17, 85439, Note_on_c, 14, 62, 0
17, 85440, Note_on_c, 14, 41, 40
17, 85559, Note_on_c, 14, 41, 0
17, 85560, Note_on_c, 14, 53, 40
17, 85679, Note_on_c, 14, 53, 0
17, 85680, Note_on_c, 14, 41, 40
17, 85799, Note_on_c, 14, 41, 0
17, 85800, Note_on_c, 14, 53, 40
17, 86039, Note_on_c, 14, 53, 0
17, 86280, Note_on_c, 14, 53, 40
17, 86399, Note_on_c, 14, 53, 0
17, 86400, Note_on_c, 14, 41, 40
17, 86519, Note_on_c, 14, 41, 0
17, 86520, Note_on_c, 14, 53, 40
17, 86759, Note_on_c, 14, 53, 0
17, 87000, Note_on_c, 14, 53, 40
17, 87119, Note_on_c, 14, 53, 0
17, 87120, Note_on_c, 14, 41, 40
17, 87239, Note_on_c, 14, 41, 0
17, 87240, Note_on_c, 14, 53, 40
17, 87479, Note_on_c, 14, 53, 0
17, 87720, Note_on_c, 14, 53, 40
17, 87839, Note_on_c, 14, 53, 0
17, 87840, Note_on_c, 14, 41, 40
17, 87959, Note_on_c, 14, 41, 0
17, 87960, Note_on_c, 14, 57, 40
17, 88199, Note_on_c, 14, 57, 0
17, 88440, Note_on_c, 14, 58, 42
17, 88559, Note_on_c, 14, 58, 0
17, 88560, Note_on_c, 14, 46, 45
17, 88679, Note_on_c, 14, 46, 0
17, 88680, Note_on_c, 14, 57, 48
17, 88919, Note_on_c, 14, 57, 0
17, 89160, Note_on_c, 14, 55, 58
17, 89279, Note_on_c, 14, 55, 0
17, 89280, Note_on_c, 14, 43, 61
17, 89399, Note_on_c, 14, 43, 0
17, 89400, Note_on_c, 14, 55, 64
17, 89639, Note_on_c, 14, 55, 0
17, 89880, Note_on_c, 14, 53, 40
17, 89999, Note_on_c, 14, 53, 0
17, 90000, Note_on_c, 14, 41, 40
17, 90119, Note_on_c, 14, 41, 0
17, 90120, Note_on_c, 14, 53, 40
17, 90359, Note_on_c, 14, 53, 0
17, 90600, Note_on_c, 14, 53, 40
17, 90719, Note_on_c, 14, 53, 0
17, 90720, Note_on_c, 14, 41, 40
17, 90839, Note_on_c, 14, 41, 0
17, 90840, Note_on_c, 14, 53, 40
17, 91079, Note_on_c, 14, 53, 0
17, 91320, Note_on_c, 14, 53, 40
17, 91439, Note_on_c, 14, 53, 0
17, 91440, Note_on_c, 14, 41, 40
17, 91559, Note_on_c, 14, 41, 0
17, 91560, Note_on_c, 14, 53, 40
17, 91799, Note_on_c, 14, 53, 0
17, 92040, Note_on_c, 14, 53, 40
17, 92159, Note_on_c, 14, 53, 0
17, 92160, Note_on_c, 14, 41, 40
17, 92279, Note_on_c, 14, 41, 0
17, 92280, Note_on_c, 14, 51, 40
17, 92519, Note_on_c, 14, 51, 0
17, 92760, Note_on_c, 14, 63, 40
17, 92879, Note_on_c, 14, 63, 0
17, 92880, Note_on_c, 14, 51, 40
17, 92999, Note_on_c, 14, 51, 0
17, 93000, Note_on_c, 14, 63, 40
17, 93239, Note_on_c, 14, 63, 0
17, 93480, Note_on_c, 14, 62, 40
17, 93599, Note_on_c, 14, 62, 0
17, 93600, Note_on_c, 14, 50, 40
17, 93719, Note_on_c, 14, 50, 0
17, 93720, Note_on_c, 14, 62, 40
17, 93959, Note_on_c, 14, 62, 0
17, 94200, Note_on_c, 14, 57, 40
17, 94319, Note_on_c, 14, 57, 0
17, 94320, Note_on_c, 14, 45, 40
17, 94439, Note_on_c, 14, 45, 0
17, 94440, Note_on_c, 14, 57, 40
17, 94679, Note_on_c, 14, 57, 0
17, 94920, Note_on_c, 14, 58, 40
17, 95039, Note_on_c, 14, 58, 0
17, 95040, Note_on_c, 14, 46, 40
17, 95159, Note_on_c, 14, 46, 0
17, 95160, Note_on_c, 14, 55, 40
17, 95399, Note_on_c, 14, 55, 0
17, 95640, Note_on_c, 14, 63, 40
17, 95759, Note_on_c, 14, 63, 0
17, 95760, Note_on_c, 14, 51, 40
17, 95879, Note_on_c, 14, 51, 0
17, 95880, Note_on_c, 14, 55, 40
17, 96119, Note_on_c, 14, 55, 0
17, 96360, Note_on_c, 14, 65, 40
17, 96479, Note_on_c, 14, 65, 0
17, 96480, Note_on_c, 14, 53, 40
17, 96599, Note_on_c, 14, 53, 0
17, 96600, Note_on_c, 14, 65, 40
17, 96839, Note_on_c, 14, 65, 0
17, 97080, Note_on_c, 14, 53, 42
17, 97199, Note_on_c, 14, 53, 0
17, 97200, Note_on_c, 14, 41, 45
17, 97319, Note_on_c, 14, 41, 0
17, 97320, Note_on_c, 14, 53, 48
17, 97559, Note_on_c, 14, 53, 0
17, 97800, Note_on_c, 14, 58, 58
17, 97919, Note_on_c, 14, 58, 0
17, 97920, Note_on_c, 14, 53, 61
17, 98039, Note_on_c, 14, 53, 0
17, 98040, Note_on_c, 14, 53, 58
17, 98279, Note_on_c, 14, 53, 0
17, 98520, Note_on_c, 14, 53, 40
17, 98639, Note_on_c, 14, 53, 0
17, 98640, Note_on_c, 14, 41, 40
17, 98759, Note_on_c, 14, 41, 0
17, 98760, Note_on_c, 14, 53, 40
17, 98999, Note_on_c, 14, 53, 0
17, 99240, Note_on_c, 14, 58, 40
17, 99359, Note_on_c, 14, 58, 0
17, 99360, Note_on_c, 14, 46, 40
17, 99479, Note_on_c, 14, 46, 0
17, 99480, Note_on_c, 14, 58, 40
17, 99719, Note_on_c, 14, 58, 0
17, 99960, Note_on_c, 14, 63, 40
17, 100079, Note_on_c, 14, 63, 0
17, 100080, Note_on_c, 14, 51, 40
17, 100199, Note_on_c, 14, 51, 0
17, 100200, Note_on_c, 14, 63, 40
17, 100439, Note_on_c, 14, 63, 0
17, 100680, Note_on_c, 14, 62, 40
17, 100799, Note_on_c, 14, 62, 0
17, 100800, Note_on_c, 14, 50, 40
17, 100919, Note_on_c, 14, 50, 0
17, 100920, Note_on_c, 14, 62, 40
17, 101159, Note_on_c, 14, 62, 0
17, 101400, Note_on_c, 14, 60, 44
17, 101519, Note_on_c, 14, 60, 0
17, 101520, Note_on_c, 14, 48, 48
17, 101639, Note_on_c, 14, 48, 0
17, 101640, Note_on_c, 14, 60, 52
17, 101879, Note_on_c, 14, 60, 0
17, 102120, Note_on_c, 14, 60, 60
17, 102239, Note_on_c, 14, 60, 0
17, 102240, Note_on_c, 14, 48, 56
17, 102359, Note_on_c, 14, 48, 0
17, 102360, Note_on_c, 14, 46, 52
17, 102599, Note_on_c, 14, 46, 0
17, 102840, Note_on_c, 14, 60, 40
17, 102959, Note_on_c, 14, 60, 0
17, 102960, Note_on_c, 14, 48, 40
17, 103079, Note_on_c, 14, 48, 0
17, 103080, Note_on_c, 14, 60, 40
17, 103319, Note_on_c, 14, 60, 0
17, 103560, Note_on_c, 14, 53, 40
17, 103679, Note_on_c, 14, 53, 0
17, 103680, Note_on_c, 14, 55, 40
17, 103799, Note_on_c, 14, 55, 0
17, 103800, Note_on_c, 14, 51, 40
17, 103919, Note_on_c, 14, 51, 0
17, 103920, Note_on_c, 14, 63, 41
17, 104039, Note_on_c, 14, 63, 0
17, 104040, Note_on_c, 14, 63, 43
17, 104159, Note_on_c, 14, 63, 0
17, 104280, Note_on_c, 14, 63, 46
17, 104399, Note_on_c, 14, 63, 0
17, 104400, Note_on_c, 14, 51, 48
17, 104519, Note_on_c, 14, 51, 0
17, 104520, Note_on_c, 14, 63, 49
17, 104759, Note_on_c, 14, 63, 0
17, 105000, Note_on_c, 14, 64, 56
17, 105119, Note_on_c, 14, 64, 0
17, 105120, Note_on_c, 14, 52, 57
17, 105239, Note_on_c, 14, 52, 0
17, 105240, Note_on_c, 14, 64, 59
17, 105479, Note_on_c, 14, 64, 0
17, 105720, Note_on_c, 14, 65, 60
17, 105839, Note_on_c, 14, 65, 0
17, 105840, Note_on_c, 14, 53, 56
17, 105959, Note_on_c, 14, 53, 0
17, 105960, Note_on_c, 14, 65, 52
17, 106199, Note_on_c, 14, 65, 0
17, 106440, Note_on_c, 14, 53, 40
17, 106559, Note_on_c, 14, 53, 0
17, 106560, Note_on_c, 14, 41, 40
17, 106679, Note_on_c, 14, 41, 0
17, 106680, Note_on_c, 14, 53, 40
17, 106919, Note_on_c, 14, 53, 0
17, 107160, Note_on_c, 14, 53, 40
17, 107279, Note_on_c, 14, 53, 0
17, 107280, Note_on_c, 14, 41, 40
17, 107399, Note_on_c, 14, 41, 0
17, 107400, Note_on_c, 14, 53, 40
17, 107519, Note_on_c, 14, 53, 0
17, 107640, Note_on_c, 14, 46, 40
17, 107759, Note_on_c, 14, 46, 0
17, 107760, Note_on_c, 14, 46, 40
17, 107999, Note_on_c, 14, 46, 0
17, 109320, Note_on_c, 14, 58, 40
17, 109439, Note_on_c, 14, 58, 0
17, 109440, Note_on_c, 14, 46, 40
17, 109559, Note_on_c, 14, 46, 0
17, 109560, Note_on_c, 14, 58, 40
17, 109919, Note_on_c, 14, 58, 0
17, 110040, Note_on_c, 14, 53, 40
17, 110159, Note_on_c, 14, 53, 0
17, 110160, Note_on_c, 14, 41, 40
17, 110279, Note_on_c, 14, 41, 0
17, 110280, Note_on_c, 14, 53, 40
17, 110519, Note_on_c, 14, 53, 0
17, 110760, Note_on_c, 14, 65, 40
17, 110879, Note_on_c, 14, 65, 0
17, 110880, Note_on_c, 14, 58, 40
17, 110999, Note_on_c, 14, 58, 0
17, 111000, Note_on_c, 14, 51, 40
17, 111239, Note_on_c, 14, 51, 0
17, 111480, Note_on_c, 14, 63, 42
17, 111599, Note_on_c, 14, 63, 0
17, 111600, Note_on_c, 14, 51, 44
17, 111719, Note_on_c, 14, 51, 0
17, 111720, Note_on_c, 14, 63, 46
17, 111959, Note_on_c, 14, 63, 0
17, 112200, Note_on_c, 14, 64, 54
17, 112319, Note_on_c, 14, 64, 0
17, 112320, Note_on_c, 14, 52, 56
17, 112439, Note_on_c, 14, 52, 0
17, 112440, Note_on_c, 14, 64, 58
17, 112679, Note_on_c, 14, 64, 0
17, 112920, Note_on_c, 14, 65, 60
17, 113039, Note_on_c, 14, 65, 0
17, 113040, Note_on_c, 14, 53, 56
17, 113159, Note_on_c, 14, 53, 0
17, 113160, Note_on_c, 14, 65, 52
17, 113399, Note_on_c, 14, 65, 0
17, 113640, Note_on_c, 14, 53, 40
17, 113759, Note_on_c, 14, 53, 0
17, 113760, Note_on_c, 14, 41, 40
17, 113879, Note_on_c, 14, 41, 0
17, 113880, Note_on_c, 14, 53, 40
17, 114119, Note_on_c, 14, 53, 0
17, 114360, Note_on_c, 14, 53, 34
17, 114479, Note_on_c, 14, 53, 0
17, 114480, Note_on_c, 14, 41, 34
17, 114599, Note_on_c, 14, 41, 0
17, 114600, Note_on_c, 14, 53, 34
17, 114839, Note_on_c, 14, 53, 0
17, 115080, Note_on_c, 14, 53, 34
17, 115199, Note_on_c, 14, 53, 0
17, 115200, Note_on_c, 14, 41, 34
17, 115319, Note_on_c, 14, 41, 0
17, 115320, Note_on_c, 14, 58, 34
17, 115559, Note_on_c, 14, 58, 0
17, 115800, Note_on_c, 14, 53, 28
17, 115919, Note_on_c, 14, 53, 0
17, 115920, Note_on_c, 14, 41, 28
17, 116039, Note_on_c, 14, 41, 0
17, 116040, Note_on_c, 14, 53, 28
17, 116279, Note_on_c, 14, 53, 0
17, 116520, Note_on_c, 14, 53, 37
17, 116639, Note_on_c, 14, 53, 0
17, 116640, Note_on_c, 14, 41, 47
17, 116759, Note_on_c, 14, 41, 0
17, 116760, Note_on_c, 14, 53, 56
17, 116879, Note_on_c, 14, 53, 0
17, 116998, Program_c, 14, 48
17, 116998, Control_c, 14, 11, 127
17, 117000, Note_on_c, 14, 46, 80
17, 117051, Note_on_c, 14, 46, 0
17, 117060, Note_on_c, 14, 46, 80
17, 117111, Note_on_c, 14, 46, 0
17, 117120, Note_on_c, 14, 51, 80
17, 117239, Note_on_c, 14, 51, 0
17, 117720, Note_on_c, 14, 63, 80
17, 117771, Note_on_c, 14, 63, 0
17, 117780, Note_on_c, 14, 63, 80
17, 117831, Note_on_c, 14, 63, 0
17, 117840, Note_on_c, 14, 58, 80
17, 117959, Note_on_c, 14, 58, 0
17, 118440, Note_on_c, 14, 58, 80
17, 118491, Note_on_c, 14, 58, 0
17, 118500, Note_on_c, 14, 58, 80
17, 118551, Note_on_c, 14, 58, 0
17, 118560, Note_on_c, 14, 51, 92
17, 118619, Note_on_c, 14, 51, 0
17, 118800, Note_on_c, 14, 51, 80
17, 118851, Note_on_c, 14, 51, 0
17, 118860, Note_on_c, 14, 51, 80
17, 118911, Note_on_c, 14, 51, 0
17, 118920, Note_on_c, 14, 58, 92
17, 119009, Note_on_c, 14, 58, 0
17, 119160, Note_on_c, 14, 46, 80
17, 119211, Note_on_c, 14, 46, 0
17, 119220, Note_on_c, 14, 46, 80
17, 119271, Note_on_c, 14, 46, 0
17, 119280, Note_on_c, 14, 53, 80
17, 119519, Note_on_c, 14, 53, 0
17, 121440, Program_c, 14, 45
17, 122640, Note_on_c, 14, 63, 40
17, 122759, Note_on_c, 14, 63, 0
17, 122760, Note_on_c, 14, 51, 40
17, 122879, Note_on_c, 14, 51, 0
17, 122880, Note_on_c, 14, 53, 40
17, 123119, Note_on_c, 14, 53, 0
17, 123360, Note_on_c, 14, 65, 40
17, 123479, Note_on_c, 14, 65, 0
17, 123480, Note_on_c, 14, 53, 40
17, 123599, Note_on_c, 14, 53, 0
17, 123600, Note_on_c, 14, 65, 40
17, 123839, Note_on_c, 14, 65, 0
17, 124080, Note_on_c, 14, 65, 40
17, 124199, Note_on_c, 14, 65, 0
17, 124200, Note_on_c, 14, 53, 40
17, 124319, Note_on_c, 14, 53, 0
17, 124320, Note_on_c, 14, 65, 40
17, 124559, Note_on_c, 14, 65, 0
17, 124800, Note_on_c, 14, 65, 40
17, 124919, Note_on_c, 14, 65, 0
17, 124920, Note_on_c, 14, 53, 40
17, 125039, Note_on_c, 14, 53, 0
17, 125040, Note_on_c, 14, 65, 40
17, 125279, Note_on_c, 14, 65, 0
17, 125520, Note_on_c, 14, 53, 40
17, 125639, Note_on_c, 14, 53, 0
17, 125640, Note_on_c, 14, 45, 40
17, 125759, Note_on_c, 14, 45, 0
17, 125760, Program_c, 14, 48
17, 126360, Note_on_c, 14, 46, 47
17, 126479, Note_on_c, 14, 46, 0
17, 127080, Note_on_c, 14, 41, 52
17, 127199, Note_on_c, 14, 41, 0
17, 127440, Note_on_c, 14, 38, 54
17, 127559, Note_on_c, 14, 38, 0
17, 127800, Note_on_c, 14, 41, 57
17, 127919, Note_on_c, 14, 41, 0
17, 128160, Note_on_c, 14, 46, 59
17, 128279, Note_on_c, 14, 46, 0
17, 128520, Note_on_c, 14, 48, 61
17, 128639, Note_on_c, 14, 48, 0
17, 128880, Note_on_c, 14, 62, 63
17, 128999, Note_on_c, 14, 62, 0
17, 129120, Note_on_c, 14, 65, 65
17, 129231, Note_on_c, 14, 65, 0
17, 129240, Note_on_c, 14, 63, 66
17, 129359, Note_on_c, 14, 63, 0
17, 129600, Note_on_c, 14, 60, 68
17, 129719, Note_on_c, 14, 60, 0
17, 129840, Note_on_c, 14, 58, 70
17, 129951, Note_on_c, 14, 58, 0
17, 129960, Note_on_c, 14, 57, 70
17, 130079, Note_on_c, 14, 57, 0
17, 130320, Note_on_c, 14, 58, 73
17, 130439, Note_on_c, 14, 58, 0
17, 130560, Note_on_c, 14, 62, 74
17, 130671, Note_on_c, 14, 62, 0
17, 130680, Note_on_c, 14, 60, 75
17, 130799, Note_on_c, 14, 60, 0
17, 131040, Note_on_c, 14, 53, 77
17, 131159, Note_on_c, 14, 53, 0
17, 131280, Note_on_c, 14, 53, 79
17, 131391, Note_on_c, 14, 53, 0
17, 131400, Note_on_c, 14, 46, 80
17, 131451, Note_on_c, 14, 46, 0
17, 131460, Note_on_c, 14, 46, 80
17, 131511, Note_on_c, 14, 46, 0
17, 131520, Note_on_c, 14, 51, 80
17, 131639, Note_on_c, 14, 51, 0
17, 132120, Note_on_c, 14, 51, 80
17, 132171, Note_on_c, 14, 51, 0
17, 132180, Note_on_c, 14, 51, 80
17, 132231, Note_on_c, 14, 51, 0
17, 132240, Note_on_c, 14, 58, 80
17, 132359, Note_on_c, 14, 58, 0
17, 132840, Note_on_c, 14, 58, 80
17, 132891, Note_on_c, 14, 58, 0
17, 132900, Note_on_c, 14, 58, 80
17, 132951, Note_on_c, 14, 58, 0
17, 132960, Note_on_c, 14, 63, 92
17, 133019, Note_on_c, 14, 63, 0
17, 133200, Note_on_c, 14, 51, 80
17, 133251, Note_on_c, 14, 51, 0
17, 133260, Note_on_c, 14, 51, 80
17, 133311, Note_on_c, 14, 51, 0
17, 133320, Note_on_c, 14, 58, 92
17, 133379, Note_on_c, 14, 58, 0
17, 133560, Note_on_c, 14, 46, 80
17, 133611, Note_on_c, 14, 46, 0
17, 133620, Note_on_c, 14, 46, 80
17, 133671, Note_on_c, 14, 46, 0
17, 133680, Note_on_c, 14, 53, 80
17, 133919, Note_on_c, 14, 53, 0
17, 134400, Control_c, 14, 11, 127
17, 134400, Note_on_c, 14, 37, 80
17, 134427, Control_c, 14, 11, 126
17, 134454, Control_c, 14, 11, 125
17, 134481, Control_c, 14, 11, 124
17, 134508, Control_c, 14, 11, 123
17, 134535, Control_c, 14, 11, 122
17, 134562, Control_c, 14, 11, 121
17, 134589, Control_c, 14, 11, 120
17, 134616, Control_c, 14, 11, 119
17, 134643, Control_c, 14, 11, 118
17, 134670, Control_c, 14, 11, 117
17, 134697, Control_c, 14, 11, 116
17, 134724, Control_c, 14, 11, 115
17, 134751, Control_c, 14, 11, 114
17, 134778, Control_c, 14, 11, 113
17, 134805, Control_c, 14, 11, 112
17, 134832, Control_c, 14, 11, 111
17, 134859, Control_c, 14, 11, 110
17, 134886, Control_c, 14, 11, 109
17, 134913, Control_c, 14, 11, 108
17, 134940, Control_c, 14, 11, 107
17, 134967, Control_c, 14, 11, 106
17, 134994, Control_c, 14, 11, 105
17, 135021, Control_c, 14, 11, 104
17, 135048, Control_c, 14, 11, 103
17, 135075, Control_c, 14, 11, 102
17, 135102, Control_c, 14, 11, 101
17, 135129, Control_c, 14, 11, 100
17, 135156, Control_c, 14, 11, 99
17, 135183, Control_c, 14, 11, 98
17, 135210, Control_c, 14, 11, 97
17, 135237, Control_c, 14, 11, 96
17, 135264, Control_c, 14, 11, 95
17, 135291, Control_c, 14, 11, 94
17, 135318, Control_c, 14, 11, 93
17, 135345, Control_c, 14, 11, 92
17, 135372, Control_c, 14, 11, 91
17, 135399, Control_c, 14, 11, 90
17, 135426, Control_c, 14, 11, 89
17, 135453, Control_c, 14, 11, 88
17, 135479, Note_on_c, 14, 37, 0
17, 135480, Note_on_c, 14, 41, 80
17, 135824, Note_on_c, 14, 41, 0
17, 135838, Control_c, 14, 11, 127
17, 135840, Note_on_c, 14, 44, 56
17, 135900, Control_c, 14, 11, 126
17, 135960, Control_c, 14, 11, 125
17, 136020, Control_c, 14, 11, 122
17, 136080, Control_c, 14, 11, 121
17, 136140, Control_c, 14, 11, 120
17, 136200, Control_c, 14, 11, 119
17, 136260, Control_c, 14, 11, 116
17, 136320, Control_c, 14, 11, 115
17, 136380, Control_c, 14, 11, 114
17, 136440, Control_c, 14, 11, 112
17, 136500, Control_c, 14, 11, 110
17, 136560, Control_c, 14, 11, 109
17, 136911, Note_on_c, 14, 44, 0
17, 136920, Note_on_c, 14, 46, 56
17, 137400, Control_c, 14, 11, 109
17, 137506, Control_c, 14, 11, 107
17, 137610, Control_c, 14, 11, 106
17, 137639, Note_on_c, 14, 46, 0
17, 137640, Note_on_c, 14, 39, 56
17, 137716, Control_c, 14, 11, 105
17, 137820, Control_c, 14, 11, 104
17, 137926, Control_c, 14, 11, 102
17, 138030, Control_c, 14, 11, 101
17, 138136, Control_c, 14, 11, 100
17, 138240, Control_c, 14, 11, 99
17, 138359, Note_on_c, 14, 39, 0
17, 138360, Note_on_c, 14, 42, 56
17, 138704, Note_on_c, 14, 42, 0
17, 138718, Control_c, 14, 11, 119
17, 138720, Note_on_c, 14, 46, 44
17, 138796, Control_c, 14, 11, 117
17, 138870, Control_c, 14, 11, 116
17, 138946, Control_c, 14, 11, 115
17, 139020, Control_c, 14, 11, 114
17, 139096, Control_c, 14, 11, 112
17, 139170, Control_c, 14, 11, 111
17, 139246, Control_c, 14, 11, 110
17, 139320, Control_c, 14, 11, 109
17, 139799, Note_on_c, 14, 46, 0
17, 139800, Control_c, 14, 11, 107
17, 139800, Note_on_c, 14, 41, 44
17, 139818, Control_c, 14, 11, 108
17, 139836, Control_c, 14, 11, 109
17, 139854, Control_c, 14, 11, 110
17, 139872, Control_c, 14, 11, 111
17, 139890, Control_c, 14, 11, 112
17, 139908, Control_c, 14, 11, 113
17, 139926, Control_c, 14, 11, 114
17, 139944, Control_c, 14, 11, 115
17, 139962, Control_c, 14, 11, 116
17, 139980, Control_c, 14, 11, 117
17, 139998, Control_c, 14, 11, 118
17, 140016, Control_c, 14, 11, 119
17, 140034, Control_c, 14, 11, 120
17, 140052, Control_c, 14, 11, 121
17, 140070, Control_c, 14, 11, 122
17, 140088, Control_c, 14, 11, 123
17, 140106, Control_c, 14, 11, 124
17, 140124, Control_c, 14, 11, 125
17, 140142, Control_c, 14, 11, 127
17, 140271, Note_on_c, 14, 41, 0
17, 140280, Note_on_c, 14, 53, 40
17, 140280, Program_c, 14, 45
17, 140399, Note_on_c, 14, 53, 0
17, 140400, Note_on_c, 14, 41, 40
17, 140519, Note_on_c, 14, 41, 0
17, 140520, Note_on_c, 14, 53, 40
17, 140759, Note_on_c, 14, 53, 0
17, 141000, Note_on_c, 14, 53, 40
17, 141119, Note_on_c, 14, 53, 0
17, 141120, Note_on_c, 14, 41, 40
17, 141239, Note_on_c, 14, 41, 0
17, 141240, Note_on_c, 14, 53, 40
17, 141479, Note_on_c, 14, 53, 0
17, 141600, Note_on_c, 14, 53, 40
17, 141839, Note_on_c, 14, 53, 0
17, 142080, Note_on_c, 14, 53, 52
17, 142199, Note_on_c, 14, 53, 0
17, 142200, Note_on_c, 14, 41, 55
17, 142319, Note_on_c, 14, 41, 0
17, 142320, Note_on_c, 14, 53, 58
17, 142439, Note_on_c, 14, 53, 0
17, 142440, Note_on_c, 14, 53, 61
17, 142559, Note_on_c, 14, 53, 0
17, 142560, Note_on_c, 14, 55, 64
17, 142679, Note_on_c, 14, 55, 0
17, 142680, Note_on_c, 14, 51, 64
17, 142799, Note_on_c, 14, 51, 0
17, 142800, Note_on_c, 14, 51, 56
17, 142919, Note_on_c, 14, 51, 0
17, 142920, Note_on_c, 14, 53, 48
17, 143039, Note_on_c, 14, 53, 0
17, 143040, Note_on_c, 14, 46, 40
17, 143159, Note_on_c, 14, 46, 0
17, 143280, Program_c, 14, 48
17, 143520, Note_on_c, 14, 46, 44
17, 143631, Note_on_c, 14, 46, 0
17, 143640, Note_on_c, 14, 46, 44
17, 143751, Note_on_c, 14, 46, 0
17, 143760, Note_on_c, 14, 46, 44
17, 143999, Note_on_c, 14, 46, 0
17, 144240, Note_on_c, 14, 46, 44
17, 144351, Note_on_c, 14, 46, 0
17, 144360, Note_on_c, 14, 46, 44
17, 144471, Note_on_c, 14, 46, 0
17, 144480, Note_on_c, 14, 46, 44
17, 144719, Note_on_c, 14, 46, 0
17, 144960, Note_on_c, 14, 46, 44
17, 145071, Note_on_c, 14, 46, 0
17, 145080, Note_on_c, 14, 46, 44
17, 145191, Note_on_c, 14, 46, 0
17, 145200, Note_on_c, 14, 45, 44
17, 145311, Note_on_c, 14, 45, 0
17, 145320, Note_on_c, 14, 60, 44
17, 145409, Note_on_c, 14, 60, 0
17, 145440, Note_on_c, 14, 60, 44
17, 145529, Note_on_c, 14, 60, 0
17, 145560, Note_on_c, 14, 60, 44
17, 145679, Note_on_c, 14, 60, 0
17, 145680, Note_on_c, 14, 57, 44
17, 145799, Note_on_c, 14, 57, 0
17, 145800, Note_on_c, 14, 53, 44
17, 145889, Note_on_c, 14, 53, 0
17, 145920, Note_on_c, 14, 51, 44
17, 146159, Note_on_c, 14, 51, 0
17, 146160, Program_c, 14, 45
17, 146400, Note_on_c, 14, 63, 40
17, 146519, Note_on_c, 14, 63, 0
17, 146520, Note_on_c, 14, 51, 40
17, 146639, Note_on_c, 14, 51, 0
17, 146640, Note_on_c, 14, 50, 40
17, 146879, Note_on_c, 14, 50, 0
17, 147120, Note_on_c, 14, 62, 42
17, 147239, Note_on_c, 14, 62, 0
17, 147240, Note_on_c, 14, 50, 43
17, 147359, Note_on_c, 14, 50, 0
17, 147360, Note_on_c, 14, 45, 43
17, 147599, Note_on_c, 14, 45, 0
17, 147840, Note_on_c, 14, 57, 46
17, 147959, Note_on_c, 14, 57, 0
17, 147960, Note_on_c, 14, 45, 46
17, 148079, Note_on_c, 14, 45, 0
17, 148080, Note_on_c, 14, 46, 47
17, 148319, Note_on_c, 14, 46, 0
17, 148560, Note_on_c, 14, 58, 50
17, 148679, Note_on_c, 14, 58, 0
17, 148680, Note_on_c, 14, 46, 50
17, 148799, Note_on_c, 14, 46, 0
17, 148800, Note_on_c, 14, 51, 51
17, 149039, Note_on_c, 14, 51, 0
17, 149280, Note_on_c, 14, 63, 53
17, 149399, Note_on_c, 14, 63, 0
17, 149400, Note_on_c, 14, 51, 54
17, 149519, Note_on_c, 14, 51, 0
17, 149520, Note_on_c, 14, 50, 55
17, 149759, Note_on_c, 14, 50, 0
17, 150000, Note_on_c, 14, 62, 57
17, 150119, Note_on_c, 14, 62, 0
17, 150120, Note_on_c, 14, 50, 58
17, 150239, Note_on_c, 14, 50, 0
17, 150240, Note_on_c, 14, 45, 58
17, 150479, Note_on_c, 14, 45, 0
17, 150720, Note_on_c, 14, 57, 61
17, 150839, Note_on_c, 14, 57, 0
17, 150840, Note_on_c, 14, 45, 62
17, 150959, Note_on_c, 14, 45, 0
17, 150960, Note_on_c, 14, 46, 62
17, 151199, Note_on_c, 14, 46, 0
17, 151440, Note_on_c, 14, 58, 56
17, 151559, Note_on_c, 14, 58, 0
17, 151560, Note_on_c, 14, 46, 48
17, 151679, Note_on_c, 14, 46, 0
17, 151680, Note_on_c, 14, 57, 40
17, 151919, Note_on_c, 14, 57, 0
17, 152400, Note_on_c, 14, 53, 40
17, 152639, Note_on_c, 14, 53, 0
17, 152880, Note_on_c, 14, 58, 52
17, 152999, Note_on_c, 14, 58, 0
17, 153000, Note_on_c, 14, 46, 40
17, 153119, Note_on_c, 14, 46, 0
17, 153120, Note_on_c, 14, 57, 40
17, 153359, Note_on_c, 14, 57, 0
17, 153840, Note_on_c, 14, 53, 40
17, 154079, Note_on_c, 14, 53, 0
17, 154320, Note_on_c, 14, 58, 52
17, 154439, Note_on_c, 14, 58, 0
17, 154440, Note_on_c, 14, 46, 40
17, 154559, Note_on_c, 14, 46, 0
17, 154560, Note_on_c, 14, 53, 40
17, 154799, Note_on_c, 14, 53, 0
17, 154800, Program_c, 14, 48
17, 154920, Note_on_c, 14, 53, 92
17, 155159, Note_on_c, 14, 53, 0
17, 155520, Note_on_c, 14, 53, 86
17, 155639, Note_on_c, 14, 53, 0
17, 155850, Note_on_c, 14, 53, 76
17, 155969, Note_on_c, 14, 53, 0
17, 156240, Note_on_c, 14, 53, 65
17, 156359, Note_on_c, 14, 53, 0
17, 156600, Note_on_c, 14, 53, 55
17, 156719, Note_on_c, 14, 53, 0
17, 156960, Note_on_c, 14, 53, 44
17, 157079, Note_on_c, 14, 53, 0
17, 157320, Note_on_c, 14, 53, 32
17, 157439, Note_on_c, 14, 53, 0
17, 157680, Note_on_c, 14, 55, 36
17, 157799, Note_on_c, 14, 55, 0
17, 158040, Note_on_c, 14, 51, 42
17, 158159, Note_on_c, 14, 51, 0
17, 158400, Note_on_c, 14, 53, 48
17, 158519, Note_on_c, 14, 53, 0
17, 158760, Note_on_c, 14, 53, 54
17, 158879, Note_on_c, 14, 53, 0
17, 159120, Note_on_c, 14, 55, 60
17, 159239, Note_on_c, 14, 55, 0
17, 159480, Note_on_c, 14, 51, 66
17, 159599, Note_on_c, 14, 51, 0
17, 159840, Note_on_c, 14, 53, 72
17, 159959, Note_on_c, 14, 53, 0
17, 160200, Note_on_c, 14, 53, 80
17, 160319, Note_on_c, 14, 53, 0
17, 161040, Note_on_c, 14, 46, 44
17, 161279, Note_on_c, 14, 46, 0
17, 161400, Program_c, 14, 45
17, 161520, Note_on_c, 14, 53, 40
17, 161639, Note_on_c, 14, 53, 0
17, 161640, Note_on_c, 14, 46, 40
17, 161759, Note_on_c, 14, 46, 0
17, 161760, Note_on_c, 14, 53, 40
17, 161999, Note_on_c, 14, 53, 0
17, 162240, Note_on_c, 14, 53, 36
17, 162359, Note_on_c, 14, 53, 0
17, 162360, Note_on_c, 14, 46, 35
17, 162479, Note_on_c, 14, 46, 0
17, 162480, Note_on_c, 14, 53, 34
17, 162719, Note_on_c, 14, 53, 0
17, 162960, Note_on_c, 14, 53, 30
17, 163079, Note_on_c, 14, 53, 0
17, 163080, Note_on_c, 14, 46, 29
17, 163199, Note_on_c, 14, 46, 0
17, 163200, Note_on_c, 14, 53, 28
17, 163439, Note_on_c, 14, 53, 0
17, 163680, Note_on_c, 14, 53, 28
17, 163799, Note_on_c, 14, 53, 0
17, 163800, Note_on_c, 14, 46, 28
17, 163919, Note_on_c, 14, 46, 0
17, 163920, Note_on_c, 14, 53, 28
17, 164039, Note_on_c, 14, 53, 0
17, 164160, Note_on_c, 14, 46, 28
17, 164279, Note_on_c, 14, 46, 0
17, 164280, Note_on_c, 14, 53, 28
17, 164399, Note_on_c, 14, 53, 0
17, 164520, Note_on_c, 14, 46, 28
17, 164639, Note_on_c, 14, 46, 0
17, 164640, Program_c, 14, 48
17, 164880, Note_on_c, 14, 58, 40
17, 164999, Note_on_c, 14, 58, 0
17, 165240, Note_on_c, 14, 53, 52
17, 165359, Note_on_c, 14, 53, 0
17, 165600, Note_on_c, 14, 50, 64
17, 165719, Note_on_c, 14, 50, 0
17, 165960, Note_on_c, 14, 46, 76
17, 166071, Note_on_c, 14, 46, 0
17, 166080, Note_on_c, 14, 41, 80
17, 166319, Note_on_c, 14, 41, 0
17, 166800, Note_on_c, 14, 53, 80
17, 166830, Control_c, 14, 11, 69
17, 167039, Note_on_c, 14, 53, 0
17, 167400, Control_c, 14, 11, 127
17, 167520, Note_on_c, 14, 53, 44
17, 167759, Note_on_c, 14, 53, 0
17, 167880, Note_on_c, 14, 53, 44
17, 168119, Note_on_c, 14, 53, 0
17, 168240, Note_on_c, 14, 58, 44
17, 168479, Note_on_c, 14, 58, 0
17, 168960, Note_on_c, 14, 53, 44
17, 169199, Note_on_c, 14, 53, 0
17, 169320, Note_on_c, 14, 53, 80
17, 169559, Note_on_c, 14, 53, 0
17, 169678, Program_c, 14, 45
17, 169680, Note_on_c, 14, 46, 44
17, 169919, Note_on_c, 14, 46, 0
17, 170040, Program_c, 14, 48
17, 170040, End_track
18, 0, Start_track
18, 0, Title_t, "Contrabass"
18, 0, MIDI_port, 0
18, 0, Program_c, 15, 48
18, 0, Control_c, 15, 121, 0
18, 0, Control_c, 15, 7, 96
18, 0, Control_c, 15, 10, 100
18, 0, Control_c, 15, 11, 127
18, 17760, Note_on_c, 15, 34, 44
18, 17879, Note_on_c, 15, 34, 0
18, 18720, Note_on_c, 15, 34, 44
18, 18831, Note_on_c, 15, 34, 0
18, 18840, Note_on_c, 15, 43, 44
18, 18951, Note_on_c, 15, 43, 0
18, 18960, Note_on_c, 15, 39, 46
18, 19079, Note_on_c, 15, 39, 0
18, 19200, Note_on_c, 15, 39, 50
18, 19319, Note_on_c, 15, 39, 0
18, 19440, Note_on_c, 15, 39, 54
18, 19559, Note_on_c, 15, 39, 0
18, 19680, Note_on_c, 15, 40, 59
18, 19799, Note_on_c, 15, 40, 0
18, 19920, Note_on_c, 15, 40, 63
18, 20039, Note_on_c, 15, 40, 0
18, 20160, Note_on_c, 15, 40, 68
18, 20271, Note_on_c, 15, 40, 0
18, 20280, Note_on_c, 15, 41, 62
18, 20391, Note_on_c, 15, 41, 0
18, 20400, Note_on_c, 15, 41, 56
18, 20519, Note_on_c, 15, 41, 0
18, 20640, Note_on_c, 15, 41, 44
18, 20759, Note_on_c, 15, 41, 0
18, 20880, Note_on_c, 15, 41, 44
18, 20999, Note_on_c, 15, 41, 0
18, 21120, Note_on_c, 15, 41, 38
18, 21239, Note_on_c, 15, 41, 0
18, 21360, Note_on_c, 15, 41, 38
18, 21479, Note_on_c, 15, 41, 0
18, 21600, Note_on_c, 15, 41, 38
18, 21719, Note_on_c, 15, 41, 0
18, 21840, Note_on_c, 15, 42, 38
18, 21959, Note_on_c, 15, 42, 0
18, 22080, Note_on_c, 15, 42, 32
18, 22199, Note_on_c, 15, 42, 0
18, 22320, Control_c, 15, 11, 89
18, 22320, Note_on_c, 15, 38, 68
18, 22799, Note_on_c, 15, 38, 0
18, 22800, Note_on_c, 15, 33, 68
18, 23039, Note_on_c, 15, 33, 0
18, 23040, Note_on_c, 15, 38, 68
18, 23220, Control_c, 15, 11, 92
18, 23279, Note_on_c, 15, 38, 0
18, 23280, Note_on_c, 15, 37, 68
18, 23400, Control_c, 15, 11, 95
18, 23519, Note_on_c, 15, 37, 0
18, 23520, Note_on_c, 15, 33, 68
18, 23580, Control_c, 15, 11, 99
18, 23760, Control_c, 15, 11, 101
18, 23940, Control_c, 15, 11, 105
18, 23999, Note_on_c, 15, 33, 0
18, 24000, Note_on_c, 15, 38, 68
18, 24120, Control_c, 15, 11, 109
18, 24239, Note_on_c, 15, 38, 0
18, 24240, Note_on_c, 15, 33, 68
18, 24300, Control_c, 15, 11, 111
18, 24480, Control_c, 15, 11, 115
18, 24660, Control_c, 15, 11, 117
18, 24719, Note_on_c, 15, 33, 0
18, 24720, Note_on_c, 15, 40, 68
18, 24840, Control_c, 15, 11, 121
18, 24959, Note_on_c, 15, 40, 0
18, 24960, Note_on_c, 15, 33, 68
18, 25020, Control_c, 15, 11, 124
18, 25200, Control_c, 15, 11, 127
18, 25439, Note_on_c, 15, 33, 0
18, 25440, Note_on_c, 15, 42, 68
18, 25440, Control_c, 15, 11, 127
18, 25470, Control_c, 15, 11, 124
18, 25500, Control_c, 15, 11, 121
18, 25530, Control_c, 15, 11, 117
18, 25560, Control_c, 15, 11, 115
18, 25590, Control_c, 15, 11, 111
18, 25620, Control_c, 15, 11, 109
18, 25650, Control_c, 15, 11, 105
18, 25679, Note_on_c, 15, 42, 0
18, 25680, Note_on_c, 15, 33, 68
18, 25680, Control_c, 15, 11, 101
18, 25710, Control_c, 15, 11, 99
18, 25740, Control_c, 15, 11, 95
18, 25770, Control_c, 15, 11, 92
18, 25920, Control_c, 15, 11, 89
18, 26159, Note_on_c, 15, 33, 0
18, 26160, Note_on_c, 15, 37, 68
18, 26399, Note_on_c, 15, 37, 0
18, 26400, Note_on_c, 15, 33, 68
18, 26400, Control_c, 15, 11, 89
18, 26480, Control_c, 15, 11, 92
18, 26560, Control_c, 15, 11, 95
18, 26640, Control_c, 15, 11, 99
18, 26720, Control_c, 15, 11, 101
18, 26800, Control_c, 15, 11, 105
18, 26879, Note_on_c, 15, 33, 0
18, 26880, Note_on_c, 15, 38, 68
18, 26880, Control_c, 15, 11, 109
18, 26960, Control_c, 15, 11, 111
18, 27040, Control_c, 15, 11, 115
18, 27119, Note_on_c, 15, 38, 0
18, 27120, Note_on_c, 15, 33, 68
18, 27120, Control_c, 15, 11, 117
18, 27200, Control_c, 15, 11, 121
18, 27280, Control_c, 15, 11, 124
18, 27480, Control_c, 15, 11, 127
18, 27530, Control_c, 15, 11, 124
18, 27580, Control_c, 15, 11, 121
18, 27599, Note_on_c, 15, 33, 0
18, 27600, Note_on_c, 15, 40, 68
18, 27630, Control_c, 15, 11, 117
18, 27680, Control_c, 15, 11, 115
18, 27730, Control_c, 15, 11, 111
18, 27780, Control_c, 15, 11, 109
18, 27830, Control_c, 15, 11, 105
18, 27839, Note_on_c, 15, 40, 0
18, 27840, Note_on_c, 15, 33, 68
18, 27880, Control_c, 15, 11, 101
18, 27930, Control_c, 15, 11, 99
18, 27980, Control_c, 15, 11, 95
18, 28030, Control_c, 15, 11, 92
18, 28080, Control_c, 15, 11, 89
18, 28140, Control_c, 15, 11, 87
18, 28200, Control_c, 15, 11, 85
18, 28260, Control_c, 15, 11, 84
18, 28311, Note_on_c, 15, 33, 0
18, 28320, Note_on_c, 15, 33, 68
18, 28320, Control_c, 15, 11, 82
18, 28380, Control_c, 15, 11, 80
18, 28440, Control_c, 15, 11, 79
18, 28500, Control_c, 15, 11, 77
18, 28559, Note_on_c, 15, 33, 0
18, 28560, Control_c, 15, 11, 75
18, 28560, Note_on_c, 15, 38, 68
18, 28620, Control_c, 15, 11, 74
18, 28680, Control_c, 15, 11, 72
18, 28740, Control_c, 15, 11, 70
18, 28799, Note_on_c, 15, 38, 0
18, 29038, Program_c, 15, 45
18, 29038, Control_c, 15, 11, 127
18, 29040, Note_on_c, 15, 37, 40
18, 29279, Note_on_c, 15, 37, 0
18, 29280, Note_on_c, 15, 33, 40
18, 29519, Note_on_c, 15, 33, 0
18, 29760, Note_on_c, 15, 38, 40
18, 29999, Note_on_c, 15, 38, 0
18, 30000, Note_on_c, 15, 33, 40
18, 30239, Note_on_c, 15, 33, 0
18, 30480, Note_on_c, 15, 40, 40
18, 30719, Note_on_c, 15, 40, 0
18, 30720, Note_on_c, 15, 33, 40
18, 30959, Note_on_c, 15, 33, 0
18, 31200, Note_on_c, 15, 42, 40
18, 31439, Note_on_c, 15, 42, 0
18, 31440, Note_on_c, 15, 33, 28
18, 31679, Note_on_c, 15, 33, 0
18, 31920, Note_on_c, 15, 37, 40
18, 32159, Note_on_c, 15, 37, 0
18, 32160, Note_on_c, 15, 33, 52
18, 32399, Note_on_c, 15, 33, 0
18, 32640, Note_on_c, 15, 38, 39
18, 32879, Note_on_c, 15, 38, 0
18, 32880, Note_on_c, 15, 33, 38
18, 33119, Note_on_c, 15, 33, 0
18, 33360, Note_on_c, 15, 40, 36
18, 33599, Note_on_c, 15, 40, 0
18, 33600, Note_on_c, 15, 33, 35
18, 33839, Note_on_c, 15, 33, 0
18, 34080, Note_on_c, 15, 33, 33
18, 34319, Note_on_c, 15, 33, 0
18, 34320, Note_on_c, 15, 38, 32
18, 34559, Note_on_c, 15, 38, 0
18, 34800, Note_on_c, 15, 33, 30
18, 35039, Note_on_c, 15, 33, 0
18, 35040, Note_on_c, 15, 34, 29
18, 35279, Note_on_c, 15, 34, 0
18, 35520, Note_on_c, 15, 29, 28
18, 35759, Note_on_c, 15, 29, 0
18, 35760, Note_on_c, 15, 41, 28
18, 35879, Note_on_c, 15, 41, 0
18, 51600, Program_c, 15, 48
18, 51840, Note_on_c, 15, 34, 44
18, 51959, Note_on_c, 15, 34, 0
18, 52800, Note_on_c, 15, 34, 44
18, 52911, Note_on_c, 15, 34, 0
18, 52920, Note_on_c, 15, 43, 44
18, 53031, Note_on_c, 15, 43, 0
18, 53040, Note_on_c, 15, 39, 44
18, 53159, Note_on_c, 15, 39, 0
18, 53280, Note_on_c, 15, 39, 48
18, 53399, Note_on_c, 15, 39, 0
18, 53520, Note_on_c, 15, 39, 53
18, 53639, Note_on_c, 15, 39, 0
18, 53760, Note_on_c, 15, 40, 58
18, 53879, Note_on_c, 15, 40, 0
18, 54000, Note_on_c, 15, 40, 63
18, 54119, Note_on_c, 15, 40, 0
18, 54240, Note_on_c, 15, 40, 68
18, 54359, Note_on_c, 15, 40, 0
18, 54360, Note_on_c, 15, 41, 62
18, 54479, Note_on_c, 15, 41, 0
18, 54480, Note_on_c, 15, 41, 56
18, 54599, Note_on_c, 15, 41, 0
18, 54720, Note_on_c, 15, 41, 44
18, 54839, Note_on_c, 15, 41, 0
18, 54960, Note_on_c, 15, 41, 44
18, 55079, Note_on_c, 15, 41, 0
18, 55200, Note_on_c, 15, 41, 38
18, 55319, Note_on_c, 15, 41, 0
18, 55440, Note_on_c, 15, 41, 38
18, 55559, Note_on_c, 15, 41, 0
18, 55680, Note_on_c, 15, 41, 38
18, 55799, Note_on_c, 15, 41, 0
18, 55920, Note_on_c, 15, 42, 38
18, 56039, Note_on_c, 15, 42, 0
18, 56160, Note_on_c, 15, 42, 32
18, 56279, Note_on_c, 15, 42, 0
18, 56640, Control_c, 15, 11, 89
18, 56880, Note_on_c, 15, 43, 56
18, 57119, Note_on_c, 15, 43, 0
18, 57120, Note_on_c, 15, 38, 56
18, 57359, Note_on_c, 15, 38, 0
18, 57360, Control_c, 15, 11, 89
18, 57360, Note_on_c, 15, 42, 56
18, 57411, Control_c, 15, 11, 90
18, 57461, Control_c, 15, 11, 91
18, 57512, Control_c, 15, 11, 92
18, 57562, Control_c, 15, 11, 93
18, 57599, Note_on_c, 15, 42, 0
18, 57600, Note_on_c, 15, 38, 56
18, 57613, Control_c, 15, 11, 94
18, 57663, Control_c, 15, 11, 95
18, 57714, Control_c, 15, 11, 96
18, 57764, Control_c, 15, 11, 97
18, 57815, Control_c, 15, 11, 98
18, 57865, Control_c, 15, 11, 99
18, 57916, Control_c, 15, 11, 100
18, 57966, Control_c, 15, 11, 101
18, 58017, Control_c, 15, 11, 102
18, 58067, Control_c, 15, 11, 103
18, 58079, Note_on_c, 15, 38, 0
18, 58080, Note_on_c, 15, 43, 56
18, 58118, Control_c, 15, 11, 104
18, 58168, Control_c, 15, 11, 105
18, 58219, Control_c, 15, 11, 106
18, 58269, Control_c, 15, 11, 107
18, 58319, Note_on_c, 15, 43, 0
18, 58320, Control_c, 15, 11, 108
18, 58320, Note_on_c, 15, 38, 56
18, 58371, Control_c, 15, 11, 109
18, 58421, Control_c, 15, 11, 110
18, 58472, Control_c, 15, 11, 111
18, 58522, Control_c, 15, 11, 112
18, 58573, Control_c, 15, 11, 113
18, 58623, Control_c, 15, 11, 114
18, 58674, Control_c, 15, 11, 115
18, 58724, Control_c, 15, 11, 116
18, 58775, Control_c, 15, 11, 117
18, 58799, Note_on_c, 15, 38, 0
18, 58800, Note_on_c, 15, 45, 56
18, 58825, Control_c, 15, 11, 118
18, 58876, Control_c, 15, 11, 119
18, 58926, Control_c, 15, 11, 120
18, 58977, Control_c, 15, 11, 121
18, 59027, Control_c, 15, 11, 122
18, 59039, Note_on_c, 15, 45, 0
18, 59040, Note_on_c, 15, 38, 56
18, 59078, Control_c, 15, 11, 123
18, 59128, Control_c, 15, 11, 124
18, 59179, Control_c, 15, 11, 125
18, 59229, Control_c, 15, 11, 126
18, 59280, Control_c, 15, 11, 127
18, 59391, Note_on_c, 15, 38, 0
18, 59400, Note_on_c, 15, 50, 56
18, 59519, Note_on_c, 15, 50, 0
18, 59640, Control_c, 15, 11, 127
18, 59640, Note_on_c, 15, 47, 56
18, 59655, Control_c, 15, 11, 125
18, 59670, Control_c, 15, 11, 124
18, 59685, Control_c, 15, 11, 122
18, 59700, Control_c, 15, 11, 120
18, 59715, Control_c, 15, 11, 119
18, 59730, Control_c, 15, 11, 117
18, 59745, Control_c, 15, 11, 115
18, 59751, Note_on_c, 15, 47, 0
18, 59760, Control_c, 15, 11, 114
18, 59760, Note_on_c, 15, 47, 56
18, 59775, Control_c, 15, 11, 112
18, 59790, Control_c, 15, 11, 110
18, 59805, Control_c, 15, 11, 109
18, 59820, Control_c, 15, 11, 107
18, 59835, Control_c, 15, 11, 105
18, 59850, Control_c, 15, 11, 104
18, 59865, Control_c, 15, 11, 102
18, 59879, Note_on_c, 15, 47, 0
18, 59880, Control_c, 15, 11, 100
18, 59880, Note_on_c, 15, 43, 56
18, 59895, Control_c, 15, 11, 99
18, 59910, Control_c, 15, 11, 97
18, 59925, Control_c, 15, 11, 95
18, 59940, Control_c, 15, 11, 94
18, 59955, Control_c, 15, 11, 92
18, 59970, Control_c, 15, 11, 90
18, 59985, Control_c, 15, 11, 89
18, 60000, Control_c, 15, 11, 87
18, 60239, Note_on_c, 15, 43, 0
18, 60240, Note_on_c, 15, 42, 56
18, 60240, Control_c, 15, 11, 87
18, 60270, Control_c, 15, 11, 88
18, 60300, Control_c, 15, 11, 89
18, 60330, Control_c, 15, 11, 90
18, 60360, Control_c, 15, 11, 91
18, 60390, Control_c, 15, 11, 92
18, 60420, Control_c, 15, 11, 93
18, 60450, Control_c, 15, 11, 94
18, 60479, Note_on_c, 15, 42, 0
18, 60480, Note_on_c, 15, 38, 56
18, 60480, Control_c, 15, 11, 95
18, 60510, Control_c, 15, 11, 96
18, 60540, Control_c, 15, 11, 97
18, 60570, Control_c, 15, 11, 98
18, 60600, Control_c, 15, 11, 99
18, 60630, Control_c, 15, 11, 100
18, 60660, Control_c, 15, 11, 101
18, 60690, Control_c, 15, 11, 102
18, 60720, Control_c, 15, 11, 103
18, 60750, Control_c, 15, 11, 104
18, 60780, Control_c, 15, 11, 105
18, 60810, Control_c, 15, 11, 106
18, 60840, Control_c, 15, 11, 107
18, 60870, Control_c, 15, 11, 108
18, 60900, Control_c, 15, 11, 109
18, 60930, Control_c, 15, 11, 110
18, 60959, Note_on_c, 15, 38, 0
18, 60960, Note_on_c, 15, 43, 56
18, 60960, Control_c, 15, 11, 111
18, 60990, Control_c, 15, 11, 112
18, 61020, Control_c, 15, 11, 113
18, 61050, Control_c, 15, 11, 114
18, 61080, Control_c, 15, 11, 115
18, 61110, Control_c, 15, 11, 116
18, 61140, Control_c, 15, 11, 117
18, 61170, Control_c, 15, 11, 118
18, 61199, Note_on_c, 15, 43, 0
18, 61200, Note_on_c, 15, 38, 56
18, 61200, Control_c, 15, 11, 119
18, 61230, Control_c, 15, 11, 120
18, 61260, Control_c, 15, 11, 121
18, 61290, Control_c, 15, 11, 122
18, 61320, Control_c, 15, 11, 123
18, 61350, Control_c, 15, 11, 124
18, 61380, Control_c, 15, 11, 125
18, 61410, Control_c, 15, 11, 126
18, 61440, Control_c, 15, 11, 127
18, 61679, Note_on_c, 15, 38, 0
18, 61680, Note_on_c, 15, 50, 56
18, 61800, Control_c, 15, 11, 127
18, 61823, Control_c, 15, 11, 126
18, 61845, Control_c, 15, 11, 125
18, 61868, Control_c, 15, 11, 124
18, 61890, Control_c, 15, 11, 123
18, 61913, Control_c, 15, 11, 122
18, 61919, Note_on_c, 15, 50, 0
18, 61920, Note_on_c, 15, 38, 56
18, 61935, Control_c, 15, 11, 121
18, 61958, Control_c, 15, 11, 120
18, 61980, Control_c, 15, 11, 119
18, 62003, Control_c, 15, 11, 118
18, 62025, Control_c, 15, 11, 117
18, 62048, Control_c, 15, 11, 116
18, 62070, Control_c, 15, 11, 115
18, 62093, Control_c, 15, 11, 114
18, 62115, Control_c, 15, 11, 113
18, 62138, Control_c, 15, 11, 112
18, 62160, Control_c, 15, 11, 111
18, 62183, Control_c, 15, 11, 110
18, 62205, Control_c, 15, 11, 109
18, 62228, Control_c, 15, 11, 108
18, 62250, Control_c, 15, 11, 107
18, 62273, Control_c, 15, 11, 106
18, 62295, Control_c, 15, 11, 105
18, 62318, Control_c, 15, 11, 104
18, 62340, Control_c, 15, 11, 103
18, 62363, Control_c, 15, 11, 102
18, 62385, Control_c, 15, 11, 101
18, 62391, Note_on_c, 15, 38, 0
18, 62400, Note_on_c, 15, 38, 56
18, 62408, Control_c, 15, 11, 100
18, 62430, Control_c, 15, 11, 99
18, 62453, Control_c, 15, 11, 98
18, 62475, Control_c, 15, 11, 97
18, 62498, Control_c, 15, 11, 96
18, 62520, Control_c, 15, 11, 95
18, 62543, Control_c, 15, 11, 94
18, 62565, Control_c, 15, 11, 93
18, 62588, Control_c, 15, 11, 92
18, 62610, Control_c, 15, 11, 91
18, 62633, Control_c, 15, 11, 90
18, 62639, Note_on_c, 15, 38, 0
18, 62640, Note_on_c, 15, 43, 56
18, 62655, Control_c, 15, 11, 89
18, 62678, Control_c, 15, 11, 88
18, 62700, Control_c, 15, 11, 87
18, 62723, Control_c, 15, 11, 86
18, 62745, Control_c, 15, 11, 85
18, 62768, Control_c, 15, 11, 84
18, 62790, Control_c, 15, 11, 83
18, 62813, Control_c, 15, 11, 82
18, 62835, Control_c, 15, 11, 81
18, 62858, Control_c, 15, 11, 80
18, 62871, Note_on_c, 15, 43, 0
18, 62998, Program_c, 15, 45
18, 62998, Control_c, 15, 11, 127
18, 63120, Note_on_c, 15, 38, 28
18, 63359, Note_on_c, 15, 38, 0
18, 63360, Note_on_c, 15, 26, 31
18, 63599, Note_on_c, 15, 26, 0
18, 63840, Note_on_c, 15, 31, 37
18, 64079, Note_on_c, 15, 31, 0
18, 64080, Note_on_c, 15, 26, 40
18, 64319, Note_on_c, 15, 26, 0
18, 64560, Note_on_c, 15, 38, 46
18, 64799, Note_on_c, 15, 38, 0
18, 64800, Note_on_c, 15, 26, 49
18, 65039, Note_on_c, 15, 26, 0
18, 65280, Note_on_c, 15, 31, 52
18, 65519, Note_on_c, 15, 31, 0
18, 65520, Note_on_c, 15, 26, 40
18, 65759, Note_on_c, 15, 26, 0
18, 66000, Note_on_c, 15, 38, 28
18, 66239, Note_on_c, 15, 38, 0
18, 66240, Note_on_c, 15, 26, 35
18, 66479, Note_on_c, 15, 26, 0
18, 66720, Note_on_c, 15, 31, 49
18, 66959, Note_on_c, 15, 31, 0
18, 66960, Note_on_c, 15, 26, 56
18, 67199, Note_on_c, 15, 26, 0
18, 67440, Note_on_c, 15, 38, 64
18, 67679, Note_on_c, 15, 38, 0
18, 67680, Note_on_c, 15, 26, 59
18, 67919, Note_on_c, 15, 26, 0
18, 68160, Note_on_c, 15, 26, 48
18, 68399, Note_on_c, 15, 26, 0
18, 68400, Note_on_c, 15, 31, 42
18, 68639, Note_on_c, 15, 31, 0
18, 68880, Note_on_c, 15, 38, 32
18, 69119, Note_on_c, 15, 38, 0
18, 69120, Note_on_c, 15, 39, 32
18, 69359, Note_on_c, 15, 39, 0
18, 69360, Note_on_c, 15, 39, 28
18, 69599, Note_on_c, 15, 39, 0
18, 69600, Note_on_c, 15, 34, 28
18, 70079, Note_on_c, 15, 34, 0
18, 70080, Note_on_c, 15, 39, 28
18, 70319, Note_on_c, 15, 39, 0
18, 85200, Note_on_c, 15, 41, 59
18, 85279, Note_on_c, 15, 41, 0
18, 85280, Note_on_c, 15, 46, 61
18, 85359, Note_on_c, 15, 46, 0
18, 85360, Note_on_c, 15, 50, 62
18, 85439, Note_on_c, 15, 50, 0
18, 85440, Note_on_c, 15, 29, 40
18, 85559, Note_on_c, 15, 29, 0
18, 85560, Note_on_c, 15, 41, 40
18, 85679, Note_on_c, 15, 41, 0
18, 85680, Note_on_c, 15, 29, 40
18, 85799, Note_on_c, 15, 29, 0
18, 85800, Note_on_c, 15, 41, 40
18, 86039, Note_on_c, 15, 41, 0
18, 86280, Note_on_c, 15, 41, 40
18, 86399, Note_on_c, 15, 41, 0
18, 86400, Note_on_c, 15, 29, 40
18, 86519, Note_on_c, 15, 29, 0
18, 86520, Note_on_c, 15, 41, 40
18, 86759, Note_on_c, 15, 41, 0
18, 87000, Note_on_c, 15, 41, 40
18, 87119, Note_on_c, 15, 41, 0
18, 87120, Note_on_c, 15, 29, 40
18, 87239, Note_on_c, 15, 29, 0
18, 87240, Note_on_c, 15, 41, 40
18, 87479, Note_on_c, 15, 41, 0
18, 87720, Note_on_c, 15, 41, 40
18, 87839, Note_on_c, 15, 41, 0
18, 87840, Note_on_c, 15, 29, 40
18, 87959, Note_on_c, 15, 29, 0
18, 87960, Note_on_c, 15, 45, 40
18, 88199, Note_on_c, 15, 45, 0
18, 88440, Note_on_c, 15, 46, 42
18, 88559, Note_on_c, 15, 46, 0
18, 88560, Note_on_c, 15, 34, 45
18, 88679, Note_on_c, 15, 34, 0
18, 88680, Note_on_c, 15, 45, 48
18, 88919, Note_on_c, 15, 45, 0
18, 89160, Note_on_c, 15, 43, 58
18, 89279, Note_on_c, 15, 43, 0
18, 89280, Note_on_c, 15, 31, 61
18, 89399, Note_on_c, 15, 31, 0
18, 89400, Note_on_c, 15, 43, 64
18, 89639, Note_on_c, 15, 43, 0
18, 89880, Note_on_c, 15, 41, 40
18, 89999, Note_on_c, 15, 41, 0
18, 90000, Note_on_c, 15, 29, 40
18, 90119, Note_on_c, 15, 29, 0
18, 90120, Note_on_c, 15, 41, 40
18, 90359, Note_on_c, 15, 41, 0
18, 90600, Note_on_c, 15, 41, 40
18, 90719, Note_on_c, 15, 41, 0
18, 90720, Note_on_c, 15, 29, 40
18, 90839, Note_on_c, 15, 29, 0
18, 90840, Note_on_c, 15, 41, 40
18, 91079, Note_on_c, 15, 41, 0
18, 91320, Note_on_c, 15, 41, 40
18, 91439, Note_on_c, 15, 41, 0
18, 91440, Note_on_c, 15, 29, 40
18, 91559, Note_on_c, 15, 29, 0
18, 91560, Note_on_c, 15, 41, 40
18, 91799, Note_on_c, 15, 41, 0
18, 92040, Note_on_c, 15, 41, 40
18, 92159, Note_on_c, 15, 41, 0
18, 92160, Note_on_c, 15, 29, 40
18, 92279, Note_on_c, 15, 29, 0
18, 92280, Note_on_c, 15, 39, 40
18, 92519, Note_on_c, 15, 39, 0
18, 92760, Note_on_c, 15, 51, 40
18, 92879, Note_on_c, 15, 51, 0
18, 92880, Note_on_c, 15, 39, 40
18, 92999, Note_on_c, 15, 39, 0
18, 93000, Note_on_c, 15, 51, 40
18, 93239, Note_on_c, 15, 51, 0
18, 93480, Note_on_c, 15, 50, 40
18, 93599, Note_on_c, 15, 50, 0
18, 93600, Note_on_c, 15, 38, 40
18, 93719, Note_on_c, 15, 38, 0
18, 93720, Note_on_c, 15, 50, 40
18, 93959, Note_on_c, 15, 50, 0
18, 94200, Note_on_c, 15, 45, 40
18, 94319, Note_on_c, 15, 45, 0
18, 94320, Note_on_c, 15, 33, 40
18, 94439, Note_on_c, 15, 33, 0
18, 94440, Note_on_c, 15, 45, 40
18, 94679, Note_on_c, 15, 45, 0
18, 94920, Note_on_c, 15, 46, 40
18, 95039, Note_on_c, 15, 46, 0
18, 95040, Note_on_c, 15, 34, 40
18, 95159, Note_on_c, 15, 34, 0
18, 95160, Note_on_c, 15, 43, 40
18, 95399, Note_on_c, 15, 43, 0
18, 95640, Note_on_c, 15, 51, 40
18, 95759, Note_on_c, 15, 51, 0
18, 95760, Note_on_c, 15, 39, 40
18, 95879, Note_on_c, 15, 39, 0
18, 95880, Note_on_c, 15, 43, 40
18, 96119, Note_on_c, 15, 43, 0
18, 96360, Note_on_c, 15, 53, 40
18, 96479, Note_on_c, 15, 53, 0
18, 96480, Note_on_c, 15, 41, 40
18, 96599, Note_on_c, 15, 41, 0
18, 96600, Note_on_c, 15, 53, 40
18, 96839, Note_on_c, 15, 53, 0
18, 97080, Note_on_c, 15, 41, 42
18, 97199, Note_on_c, 15, 41, 0
18, 97200, Note_on_c, 15, 29, 45
18, 97319, Note_on_c, 15, 29, 0
18, 97320, Note_on_c, 15, 41, 48
18, 97559, Note_on_c, 15, 41, 0
18, 97800, Note_on_c, 15, 46, 58
18, 97919, Note_on_c, 15, 46, 0
18, 97920, Note_on_c, 15, 41, 61
18, 98039, Note_on_c, 15, 41, 0
18, 98040, Note_on_c, 15, 41, 58
18, 98279, Note_on_c, 15, 41, 0
18, 98520, Note_on_c, 15, 41, 40
18, 98639, Note_on_c, 15, 41, 0
18, 98640, Note_on_c, 15, 29, 40
18, 98759, Note_on_c, 15, 29, 0
18, 98760, Note_on_c, 15, 41, 40
18, 98999, Note_on_c, 15, 41, 0
18, 99240, Note_on_c, 15, 46, 40
18, 99359, Note_on_c, 15, 46, 0
18, 99360, Note_on_c, 15, 34, 40
18, 99479, Note_on_c, 15, 34, 0
18, 99480, Note_on_c, 15, 46, 40
18, 99719, Note_on_c, 15, 46, 0
18, 99960, Note_on_c, 15, 51, 40
18, 100079, Note_on_c, 15, 51, 0
18, 100080, Note_on_c, 15, 39, 40
18, 100199, Note_on_c, 15, 39, 0
18, 100200, Note_on_c, 15, 51, 40
18, 100439, Note_on_c, 15, 51, 0
18, 100680, Note_on_c, 15, 50, 40
18, 100799, Note_on_c, 15, 50, 0
18, 100800, Note_on_c, 15, 38, 40
18, 100919, Note_on_c, 15, 38, 0
18, 100920, Note_on_c, 15, 50, 40
18, 101159, Note_on_c, 15, 50, 0
18, 101400, Note_on_c, 15, 48, 44
18, 101519, Note_on_c, 15, 48, 0
18, 101520, Note_on_c, 15, 36, 48
18, 101639, Note_on_c, 15, 36, 0
18, 101640, Note_on_c, 15, 48, 52
18, 101879, Note_on_c, 15, 48, 0
18, 102120, Note_on_c, 15, 48, 60
18, 102239, Note_on_c, 15, 48, 0
18, 102240, Note_on_c, 15, 36, 56
18, 102359, Note_on_c, 15, 36, 0
18, 102360, Note_on_c, 15, 34, 52
18, 102599, Note_on_c, 15, 34, 0
18, 102840, Note_on_c, 15, 48, 40
18, 102959, Note_on_c, 15, 48, 0
18, 102960, Note_on_c, 15, 36, 40
18, 103079, Note_on_c, 15, 36, 0
18, 103080, Note_on_c, 15, 48, 40
18, 103319, Note_on_c, 15, 48, 0
18, 103560, Note_on_c, 15, 41, 40
18, 103679, Note_on_c, 15, 41, 0
18, 103680, Note_on_c, 15, 43, 40
18, 103799, Note_on_c, 15, 43, 0
18, 103800, Note_on_c, 15, 39, 40
18, 103919, Note_on_c, 15, 39, 0
18, 103920, Note_on_c, 15, 51, 41
18, 104039, Note_on_c, 15, 51, 0
18, 104040, Note_on_c, 15, 51, 43
18, 104159, Note_on_c, 15, 51, 0
18, 104280, Note_on_c, 15, 51, 46
18, 104399, Note_on_c, 15, 51, 0
18, 104400, Note_on_c, 15, 39, 48
18, 104519, Note_on_c, 15, 39, 0
18, 104520, Note_on_c, 15, 51, 49
18, 104759, Note_on_c, 15, 51, 0
18, 105000, Note_on_c, 15, 52, 56
18, 105119, Note_on_c, 15, 52, 0
18, 105120, Note_on_c, 15, 40, 57
18, 105239, Note_on_c, 15, 40, 0
18, 105240, Note_on_c, 15, 52, 59
18, 105479, Note_on_c, 15, 52, 0
18, 105720, Note_on_c, 15, 53, 60
18, 105839, Note_on_c, 15, 53, 0
18, 105840, Note_on_c, 15, 41, 56
18, 105959, Note_on_c, 15, 41, 0
18, 105960, Note_on_c, 15, 53, 52
18, 106199, Note_on_c, 15, 53, 0
18, 106440, Note_on_c, 15, 41, 40
18, 106559, Note_on_c, 15, 41, 0
18, 106560, Note_on_c, 15, 29, 40
18, 106679, Note_on_c, 15, 29, 0
18, 106680, Note_on_c, 15, 41, 40
18, 106919, Note_on_c, 15, 41, 0
18, 107160, Note_on_c, 15, 41, 40
18, 107279, Note_on_c, 15, 41, 0
18, 107280, Note_on_c, 15, 29, 40
18, 107399, Note_on_c, 15, 29, 0
18, 107400, Note_on_c, 15, 41, 40
18, 107519, Note_on_c, 15, 41, 0
18, 107640, Note_on_c, 15, 34, 40
18, 107759, Note_on_c, 15, 34, 0
18, 107760, Note_on_c, 15, 34, 40
18, 107999, Note_on_c, 15, 34, 0
18, 109320, Note_on_c, 15, 46, 40
18, 109439, Note_on_c, 15, 46, 0
18, 109440, Note_on_c, 15, 34, 40
18, 109559, Note_on_c, 15, 34, 0
18, 109560, Note_on_c, 15, 46, 40
18, 109919, Note_on_c, 15, 46, 0
18, 110040, Note_on_c, 15, 41, 40
18, 110159, Note_on_c, 15, 41, 0
18, 110160, Note_on_c, 15, 29, 40
18, 110279, Note_on_c, 15, 29, 0
18, 110280, Note_on_c, 15, 41, 40
18, 110519, Note_on_c, 15, 41, 0
18, 110760, Note_on_c, 15, 53, 40
18, 110879, Note_on_c, 15, 53, 0
18, 110880, Note_on_c, 15, 46, 40
18, 110999, Note_on_c, 15, 46, 0
18, 111000, Note_on_c, 15, 39, 40
18, 111239, Note_on_c, 15, 39, 0
18, 111480, Note_on_c, 15, 51, 42
18, 111599, Note_on_c, 15, 51, 0
18, 111600, Note_on_c, 15, 39, 44
18, 111719, Note_on_c, 15, 39, 0
18, 111720, Note_on_c, 15, 51, 46
18, 111959, Note_on_c, 15, 51, 0
18, 112200, Note_on_c, 15, 52, 54
18, 112319, Note_on_c, 15, 52, 0
18, 112320, Note_on_c, 15, 40, 56
18, 112439, Note_on_c, 15, 40, 0
18, 112440, Note_on_c, 15, 52, 58
18, 112679, Note_on_c, 15, 52, 0
18, 112920, Note_on_c, 15, 53, 60
18, 113039, Note_on_c, 15, 53, 0
18, 113040, Note_on_c, 15, 41, 56
18, 113159, Note_on_c, 15, 41, 0
18, 113160, Note_on_c, 15, 53, 52
18, 113399, Note_on_c, 15, 53, 0
18, 113640, Note_on_c, 15, 41, 40
18, 113759, Note_on_c, 15, 41, 0
18, 113760, Note_on_c, 15, 29, 40
18, 113879, Note_on_c, 15, 29, 0
18, 113880, Note_on_c, 15, 41, 40
18, 114119, Note_on_c, 15, 41, 0
18, 114360, Note_on_c, 15, 41, 34
18, 114479, Note_on_c, 15, 41, 0
18, 114480, Note_on_c, 15, 29, 34
18, 114599, Note_on_c, 15, 29, 0
18, 114600, Note_on_c, 15, 41, 34
18, 114839, Note_on_c, 15, 41, 0
18, 115080, Note_on_c, 15, 41, 34
18, 115199, Note_on_c, 15, 41, 0
18, 115200, Note_on_c, 15, 29, 34
18, 115319, Note_on_c, 15, 29, 0
18, 115320, Note_on_c, 15, 46, 34
18, 115559, Note_on_c, 15, 46, 0
18, 115800, Note_on_c, 15, 41, 28
18, 115919, Note_on_c, 15, 41, 0
18, 115920, Note_on_c, 15, 29, 28
18, 116039, Note_on_c, 15, 29, 0
18, 116040, Note_on_c, 15, 41, 28
18, 116279, Note_on_c, 15, 41, 0
18, 116520, Note_on_c, 15, 41, 37
18, 116639, Note_on_c, 15, 41, 0
18, 116640, Note_on_c, 15, 29, 47
18, 116759, Note_on_c, 15, 29, 0
18, 116760, Note_on_c, 15, 41, 56
18, 116879, Note_on_c, 15, 41, 0
18, 116998, Program_c, 15, 48
18, 116998, Control_c, 15, 11, 127
18, 117000, Note_on_c, 15, 34, 80
18, 117051, Note_on_c, 15, 34, 0
18, 117060, Note_on_c, 15, 34, 80
18, 117111, Note_on_c, 15, 34, 0
18, 117120, Note_on_c, 15, 39, 80
18, 117239, Note_on_c, 15, 39, 0
18, 117720, Note_on_c, 15, 51, 80
18, 117771, Note_on_c, 15, 51, 0
18, 117780, Note_on_c, 15, 51, 80
18, 117831, Note_on_c, 15, 51, 0
18, 117840, Note_on_c, 15, 46, 80
18, 117959, Note_on_c, 15, 46, 0
18, 118440, Note_on_c, 15, 46, 80
18, 118491, Note_on_c, 15, 46, 0
18, 118500, Note_on_c, 15, 46, 80
18, 118551, Note_on_c, 15, 46, 0
18, 118560, Note_on_c, 15, 39, 92
18, 118619, Note_on_c, 15, 39, 0
18, 118800, Note_on_c, 15, 39, 80
18, 118851, Note_on_c, 15, 39, 0
18, 118860, Note_on_c, 15, 39, 80
18, 118911, Note_on_c, 15, 39, 0
18, 118920, Note_on_c, 15, 46, 92
18, 119009, Note_on_c, 15, 46, 0
18, 119160, Note_on_c, 15, 34, 80
18, 119211, Note_on_c, 15, 34, 0
18, 119220, Note_on_c, 15, 34, 80
18, 119271, Note_on_c, 15, 34, 0
18, 119280, Note_on_c, 15, 41, 80
18, 119519, Note_on_c, 15, 41, 0
18, 121440, Program_c, 15, 45
18, 122640, Note_on_c, 15, 51, 40
18, 122759, Note_on_c, 15, 51, 0
18, 122760, Note_on_c, 15, 39, 40
18, 122879, Note_on_c, 15, 39, 0
18, 122880, Note_on_c, 15, 41, 40
18, 123119, Note_on_c, 15, 41, 0
18, 123360, Note_on_c, 15, 53, 40
18, 123479, Note_on_c, 15, 53, 0
18, 123480, Note_on_c, 15, 41, 40
18, 123599, Note_on_c, 15, 41, 0
18, 123600, Note_on_c, 15, 53, 40
18, 123839, Note_on_c, 15, 53, 0
18, 124080, Note_on_c, 15, 53, 40
18, 124199, Note_on_c, 15, 53, 0
18, 124200, Note_on_c, 15, 41, 40
18, 124319, Note_on_c, 15, 41, 0
18, 124320, Note_on_c, 15, 53, 40
18, 124559, Note_on_c, 15, 53, 0
18, 124800, Note_on_c, 15, 53, 40
18, 124919, Note_on_c, 15, 53, 0
18, 124920, Note_on_c, 15, 41, 40
18, 125039, Note_on_c, 15, 41, 0
18, 125040, Note_on_c, 15, 53, 40
18, 125279, Note_on_c, 15, 53, 0
18, 125520, Note_on_c, 15, 41, 40
18, 125639, Note_on_c, 15, 41, 0
18, 125640, Note_on_c, 15, 33, 40
18, 125759, Note_on_c, 15, 33, 0
18, 125760, Program_c, 15, 48
18, 126360, Note_on_c, 15, 46, 47
18, 126479, Note_on_c, 15, 46, 0
18, 127080, Note_on_c, 15, 41, 52
18, 127199, Note_on_c, 15, 41, 0
18, 127440, Note_on_c, 15, 38, 54
18, 127559, Note_on_c, 15, 38, 0
18, 127800, Note_on_c, 15, 41, 57
18, 127919, Note_on_c, 15, 41, 0
18, 128160, Note_on_c, 15, 46, 59
18, 128279, Note_on_c, 15, 46, 0
18, 128520, Note_on_c, 15, 48, 61
18, 128639, Note_on_c, 15, 48, 0
18, 128880, Note_on_c, 15, 50, 63
18, 128999, Note_on_c, 15, 50, 0
18, 129120, Note_on_c, 15, 53, 65
18, 129231, Note_on_c, 15, 53, 0
18, 129240, Note_on_c, 15, 51, 66
18, 129359, Note_on_c, 15, 51, 0
18, 129600, Note_on_c, 15, 48, 68
18, 129719, Note_on_c, 15, 48, 0
18, 129840, Note_on_c, 15, 46, 70
18, 129951, Note_on_c, 15, 46, 0
18, 129960, Note_on_c, 15, 45, 70
18, 130079, Note_on_c, 15, 45, 0
18, 130320, Note_on_c, 15, 46, 73
18, 130439, Note_on_c, 15, 46, 0
18, 130560, Note_on_c, 15, 50, 74
18, 130671, Note_on_c, 15, 50, 0
18, 130680, Note_on_c, 15, 48, 75
18, 130799, Note_on_c, 15, 48, 0
18, 131040, Note_on_c, 15, 41, 77
18, 131159, Note_on_c, 15, 41, 0
18, 131280, Note_on_c, 15, 41, 79
18, 131391, Note_on_c, 15, 41, 0
18, 131400, Note_on_c, 15, 34, 80
18, 131451, Note_on_c, 15, 34, 0
18, 131460, Note_on_c, 15, 34, 80
18, 131511, Note_on_c, 15, 34, 0
18, 131520, Note_on_c, 15, 39, 80
18, 131639, Note_on_c, 15, 39, 0
18, 132120, Note_on_c, 15, 39, 80
18, 132171, Note_on_c, 15, 39, 0
18, 132180, Note_on_c, 15, 39, 80
18, 132231, Note_on_c, 15, 39, 0
18, 132240, Note_on_c, 15, 46, 80
18, 132359, Note_on_c, 15, 46, 0
18, 132840, Note_on_c, 15, 46, 80
18, 132891, Note_on_c, 15, 46, 0
18, 132900, Note_on_c, 15, 46, 80
18, 132951, Note_on_c, 15, 46, 0
18, 132960, Note_on_c, 15, 51, 92
18, 133019, Note_on_c, 15, 51, 0
18, 133200, Note_on_c, 15, 39, 80
18, 133251, Note_on_c, 15, 39, 0
18, 133260, Note_on_c, 15, 39, 80
18, 133311, Note_on_c, 15, 39, 0
18, 133320, Note_on_c, 15, 46, 92
18, 133379, Note_on_c, 15, 46, 0
18, 133560, Note_on_c, 15, 34, 80
18, 133611, Note_on_c, 15, 34, 0
18, 133620, Note_on_c, 15, 34, 80
18, 133671, Note_on_c, 15, 34, 0
18, 133680, Note_on_c, 15, 41, 80
18, 133919, Note_on_c, 15, 41, 0
18, 134400, Note_on_c, 15, 25, 80
18, 134400, Control_c, 15, 11, 127
18, 134427, Control_c, 15, 11, 126
18, 134454, Control_c, 15, 11, 125
18, 134481, Control_c, 15, 11, 124
18, 134508, Control_c, 15, 11, 123
18, 134535, Control_c, 15, 11, 122
18, 134562, Control_c, 15, 11, 121
18, 134589, Control_c, 15, 11, 120
18, 134616, Control_c, 15, 11, 119
18, 134643, Control_c, 15, 11, 118
18, 134670, Control_c, 15, 11, 117
18, 134697, Control_c, 15, 11, 116
18, 134724, Control_c, 15, 11, 115
18, 134751, Control_c, 15, 11, 114
18, 134778, Control_c, 15, 11, 113
18, 134805, Control_c, 15, 11, 112
18, 134832, Control_c, 15, 11, 111
18, 134859, Control_c, 15, 11, 110
18, 134886, Control_c, 15, 11, 109
18, 134913, Control_c, 15, 11, 108
18, 134940, Control_c, 15, 11, 107
18, 134967, Control_c, 15, 11, 106
18, 134994, Control_c, 15, 11, 105
18, 135021, Control_c, 15, 11, 104
18, 135048, Control_c, 15, 11, 103
18, 135075, Control_c, 15, 11, 102
18, 135102, Control_c, 15, 11, 101
18, 135129, Control_c, 15, 11, 100
18, 135156, Control_c, 15, 11, 99
18, 135183, Control_c, 15, 11, 98
18, 135210, Control_c, 15, 11, 97
18, 135237, Control_c, 15, 11, 96
18, 135264, Control_c, 15, 11, 95
18, 135291, Control_c, 15, 11, 94
18, 135318, Control_c, 15, 11, 93
18, 135345, Control_c, 15, 11, 92
18, 135372, Control_c, 15, 11, 91
18, 135399, Control_c, 15, 11, 90
18, 135426, Control_c, 15, 11, 89
18, 135453, Control_c, 15, 11, 88
18, 135479, Note_on_c, 15, 25, 0
18, 135480, Note_on_c, 15, 29, 80
18, 135824, Note_on_c, 15, 29, 0
18, 135838, Control_c, 15, 11, 127
18, 135840, Note_on_c, 15, 32, 56
18, 135900, Control_c, 15, 11, 126
18, 135960, Control_c, 15, 11, 125
18, 136020, Control_c, 15, 11, 122
18, 136080, Control_c, 15, 11, 121
18, 136140, Control_c, 15, 11, 120
18, 136200, Control_c, 15, 11, 119
18, 136260, Control_c, 15, 11, 116
18, 136320, Control_c, 15, 11, 115
18, 136380, Control_c, 15, 11, 114
18, 136440, Control_c, 15, 11, 112
18, 136500, Control_c, 15, 11, 110
18, 136560, Control_c, 15, 11, 109
18, 136911, Note_on_c, 15, 32, 0
18, 136920, Note_on_c, 15, 34, 56
18, 137400, Control_c, 15, 11, 109
18, 137506, Control_c, 15, 11, 107
18, 137610, Control_c, 15, 11, 106
18, 137639, Note_on_c, 15, 34, 0
18, 137640, Note_on_c, 15, 27, 56
18, 137716, Control_c, 15, 11, 105
18, 137820, Control_c, 15, 11, 104
18, 137926, Control_c, 15, 11, 102
18, 138030, Control_c, 15, 11, 101
18, 138136, Control_c, 15, 11, 100
18, 138240, Control_c, 15, 11, 99
18, 138359, Note_on_c, 15, 27, 0
18, 138360, Note_on_c, 15, 30, 56
18, 138704, Note_on_c, 15, 30, 0
18, 138718, Control_c, 15, 11, 119
18, 138720, Note_on_c, 15, 34, 44
18, 138796, Control_c, 15, 11, 117
18, 138870, Control_c, 15, 11, 116
18, 138946, Control_c, 15, 11, 115
18, 139020, Control_c, 15, 11, 114
18, 139096, Control_c, 15, 11, 112
18, 139170, Control_c, 15, 11, 111
18, 139246, Control_c, 15, 11, 110
18, 139320, Control_c, 15, 11, 109
18, 139799, Note_on_c, 15, 34, 0
18, 139800, Note_on_c, 15, 29, 44
18, 139800, Control_c, 15, 11, 107
18, 139818, Control_c, 15, 11, 108
18, 139836, Control_c, 15, 11, 109
18, 139854, Control_c, 15, 11, 110
18, 139872, Control_c, 15, 11, 111
18, 139890, Control_c, 15, 11, 112
18, 139908, Control_c, 15, 11, 113
18, 139926, Control_c, 15, 11, 114
18, 139944, Control_c, 15, 11, 115
18, 139962, Control_c, 15, 11, 116
18, 139980, Control_c, 15, 11, 117
18, 139998, Control_c, 15, 11, 118
18, 140016, Control_c, 15, 11, 119
18, 140034, Control_c, 15, 11, 120
18, 140052, Control_c, 15, 11, 121
18, 140070, Control_c, 15, 11, 122
18, 140088, Control_c, 15, 11, 123
18, 140106, Control_c, 15, 11, 124
18, 140124, Control_c, 15, 11, 125
18, 140142, Control_c, 15, 11, 127
18, 140271, Note_on_c, 15, 29, 0
18, 140280, Program_c, 15, 45
18, 140280, Note_on_c, 15, 41, 40
18, 140399, Note_on_c, 15, 41, 0
18, 140400, Note_on_c, 15, 29, 40
18, 140519, Note_on_c, 15, 29, 0
18, 140520, Note_on_c, 15, 41, 40
18, 140759, Note_on_c, 15, 41, 0
18, 141000, Note_on_c, 15, 41, 40
18, 141119, Note_on_c, 15, 41, 0
18, 141120, Note_on_c, 15, 29, 40
18, 141239, Note_on_c, 15, 29, 0
18, 141240, Note_on_c, 15, 41, 40
18, 141479, Note_on_c, 15, 41, 0
18, 141600, Note_on_c, 15, 41, 40
18, 141839, Note_on_c, 15, 41, 0
18, 142080, Note_on_c, 15, 41, 52
18, 142199, Note_on_c, 15, 41, 0
18, 142200, Note_on_c, 15, 29, 55
18, 142319, Note_on_c, 15, 29, 0
18, 142320, Note_on_c, 15, 41, 58
18, 142439, Note_on_c, 15, 41, 0
18, 142440, Note_on_c, 15, 41, 61
18, 142559, Note_on_c, 15, 41, 0
18, 142560, Note_on_c, 15, 43, 64
18, 142679, Note_on_c, 15, 43, 0
18, 142680, Note_on_c, 15, 39, 64
18, 142799, Note_on_c, 15, 39, 0
18, 142800, Note_on_c, 15, 39, 56
18, 142919, Note_on_c, 15, 39, 0
18, 142920, Note_on_c, 15, 41, 48
18, 143039, Note_on_c, 15, 41, 0
18, 143040, Note_on_c, 15, 34, 40
18, 143159, Note_on_c, 15, 34, 0
18, 143280, Program_c, 15, 48
18, 143520, Note_on_c, 15, 34, 44
18, 143631, Note_on_c, 15, 34, 0
18, 143640, Note_on_c, 15, 34, 44
18, 143751, Note_on_c, 15, 34, 0
18, 143760, Note_on_c, 15, 34, 44
18, 143999, Note_on_c, 15, 34, 0
18, 144240, Note_on_c, 15, 34, 44
18, 144351, Note_on_c, 15, 34, 0
18, 144360, Note_on_c, 15, 34, 44
18, 144471, Note_on_c, 15, 34, 0
18, 144480, Note_on_c, 15, 34, 44
18, 144719, Note_on_c, 15, 34, 0
18, 144960, Note_on_c, 15, 34, 44
18, 145071, Note_on_c, 15, 34, 0
18, 145080, Note_on_c, 15, 34, 44
18, 145191, Note_on_c, 15, 34, 0
18, 145200, Note_on_c, 15, 33, 44
18, 145311, Note_on_c, 15, 33, 0
18, 145320, Note_on_c, 15, 48, 44
18, 145409, Note_on_c, 15, 48, 0
18, 145440, Note_on_c, 15, 48, 44
18, 145529, Note_on_c, 15, 48, 0
18, 145560, Note_on_c, 15, 48, 44
18, 145679, Note_on_c, 15, 48, 0
18, 145680, Note_on_c, 15, 45, 44
18, 145799, Note_on_c, 15, 45, 0
18, 145800, Note_on_c, 15, 41, 44
18, 145889, Note_on_c, 15, 41, 0
18, 145920, Note_on_c, 15, 39, 44
18, 146159, Note_on_c, 15, 39, 0
18, 146160, Program_c, 15, 45
18, 146400, Note_on_c, 15, 51, 40
18, 146519, Note_on_c, 15, 51, 0
18, 146520, Note_on_c, 15, 39, 40
18, 146639, Note_on_c, 15, 39, 0
18, 146640, Note_on_c, 15, 38, 40
18, 146879, Note_on_c, 15, 38, 0
18, 147120, Note_on_c, 15, 50, 42
18, 147239, Note_on_c, 15, 50, 0
18, 147240, Note_on_c, 15, 38, 43
18, 147359, Note_on_c, 15, 38, 0
18, 147360, Note_on_c, 15, 33, 43
18, 147599, Note_on_c, 15, 33, 0
18, 147840, Note_on_c, 15, 45, 46
18, 147959, Note_on_c, 15, 45, 0
18, 147960, Note_on_c, 15, 33, 46
18, 148079, Note_on_c, 15, 33, 0
18, 148080, Note_on_c, 15, 34, 47
18, 148319, Note_on_c, 15, 34, 0
18, 148560, Note_on_c, 15, 46, 50
18, 148679, Note_on_c, 15, 46, 0
18, 148680, Note_on_c, 15, 34, 50
18, 148799, Note_on_c, 15, 34, 0
18, 148800, Note_on_c, 15, 39, 51
18, 149039, Note_on_c, 15, 39, 0
18, 149280, Note_on_c, 15, 51, 53
18, 149399, Note_on_c, 15, 51, 0
18, 149400, Note_on_c, 15, 39, 54
18, 149519, Note_on_c, 15, 39, 0
18, 149520, Note_on_c, 15, 38, 55
18, 149759, Note_on_c, 15, 38, 0
18, 150000, Note_on_c, 15, 50, 57
18, 150119, Note_on_c, 15, 50, 0
18, 150120, Note_on_c, 15, 38, 58
18, 150239, Note_on_c, 15, 38, 0
18, 150240, Note_on_c, 15, 33, 58
18, 150479, Note_on_c, 15, 33, 0
18, 150720, Note_on_c, 15, 45, 61
18, 150839, Note_on_c, 15, 45, 0
18, 150840, Note_on_c, 15, 33, 62
18, 150959, Note_on_c, 15, 33, 0
18, 150960, Note_on_c, 15, 34, 62
18, 151199, Note_on_c, 15, 34, 0
18, 151440, Note_on_c, 15, 46, 56
18, 151559, Note_on_c, 15, 46, 0
18, 151560, Note_on_c, 15, 34, 48
18, 151679, Note_on_c, 15, 34, 0
18, 151680, Note_on_c, 15, 45, 40
18, 151919, Note_on_c, 15, 45, 0
18, 152400, Note_on_c, 15, 41, 40
18, 152639, Note_on_c, 15, 41, 0
18, 152880, Note_on_c, 15, 46, 52
18, 152999, Note_on_c, 15, 46, 0
18, 153000, Note_on_c, 15, 34, 40
18, 153119, Note_on_c, 15, 34, 0
18, 153120, Note_on_c, 15, 45, 40
18, 153359, Note_on_c, 15, 45, 0
18, 153840, Note_on_c, 15, 41, 40
18, 154079, Note_on_c, 15, 41, 0
18, 154320, Note_on_c, 15, 46, 52
18, 154439, Note_on_c, 15, 46, 0
18, 154440, Note_on_c, 15, 34, 40
18, 154559, Note_on_c, 15, 34, 0
18, 154560, Note_on_c, 15, 41, 40
18, 154799, Note_on_c, 15, 41, 0
18, 154800, Program_c, 15, 48
18, 154920, Note_on_c, 15, 41, 92
18, 155159, Note_on_c, 15, 41, 0
18, 155520, Note_on_c, 15, 41, 86
18, 155639, Note_on_c, 15, 41, 0
18, 155850, Note_on_c, 15, 41, 76
18, 155969, Note_on_c, 15, 41, 0
18, 156240, Note_on_c, 15, 41, 65
18, 156359, Note_on_c, 15, 41, 0
18, 156600, Note_on_c, 15, 41, 55
18, 156719, Note_on_c, 15, 41, 0
18, 156960, Note_on_c, 15, 41, 44
18, 157079, Note_on_c, 15, 41, 0
18, 157320, Note_on_c, 15, 41, 32
18, 157439, Note_on_c, 15, 41, 0
18, 157680, Note_on_c, 15, 43, 36
18, 157799, Note_on_c, 15, 43, 0
18, 158040, Note_on_c, 15, 39, 42
18, 158159, Note_on_c, 15, 39, 0
18, 158400, Note_on_c, 15, 41, 48
18, 158519, Note_on_c, 15, 41, 0
18, 158760, Note_on_c, 15, 41, 54
18, 158879, Note_on_c, 15, 41, 0
18, 159120, Note_on_c, 15, 43, 60
18, 159239, Note_on_c, 15, 43, 0
18, 159480, Note_on_c, 15, 39, 66
18, 159599, Note_on_c, 15, 39, 0
18, 159840, Note_on_c, 15, 41, 72
18, 159959, Note_on_c, 15, 41, 0
18, 160200, Note_on_c, 15, 41, 80
18, 160319, Note_on_c, 15, 41, 0
18, 161040, Note_on_c, 15, 34, 44
18, 161279, Note_on_c, 15, 34, 0
18, 161400, Program_c, 15, 45
18, 161520, Note_on_c, 15, 41, 40
18, 161639, Note_on_c, 15, 41, 0
18, 161640, Note_on_c, 15, 34, 40
18, 161759, Note_on_c, 15, 34, 0
18, 161760, Note_on_c, 15, 41, 40
18, 161999, Note_on_c, 15, 41, 0
18, 162240, Note_on_c, 15, 41, 36
18, 162359, Note_on_c, 15, 41, 0
18, 162360, Note_on_c, 15, 34, 35
18, 162479, Note_on_c, 15, 34, 0
18, 162480, Note_on_c, 15, 41, 34
18, 162719, Note_on_c, 15, 41, 0
18, 162960, Note_on_c, 15, 41, 30
18, 163079, Note_on_c, 15, 41, 0
18, 163080, Note_on_c, 15, 34, 29
18, 163199, Note_on_c, 15, 34, 0
18, 163200, Note_on_c, 15, 41, 28
18, 163439, Note_on_c, 15, 41, 0
18, 163680, Note_on_c, 15, 41, 28
18, 163799, Note_on_c, 15, 41, 0
18, 163800, Note_on_c, 15, 34, 28
18, 163919, Note_on_c, 15, 34, 0
18, 163920, Note_on_c, 15, 41, 28
18, 164039, Note_on_c, 15, 41, 0
18, 164160, Note_on_c, 15, 34, 28
18, 164279, Note_on_c, 15, 34, 0
18, 164280, Note_on_c, 15, 41, 28
18, 164399, Note_on_c, 15, 41, 0
18, 164520, Note_on_c, 15, 34, 28
18, 164639, Note_on_c, 15, 34, 0
18, 164640, Program_c, 15, 48
18, 164880, Note_on_c, 15, 46, 40
18, 164999, Note_on_c, 15, 46, 0
18, 165240, Note_on_c, 15, 41, 52
18, 165359, Note_on_c, 15, 41, 0
18, 165600, Note_on_c, 15, 38, 64
18, 165719, Note_on_c, 15, 38, 0
18, 165960, Note_on_c, 15, 34, 76
18, 166071, Note_on_c, 15, 34, 0
18, 166080, Note_on_c, 15, 29, 80
18, 166319, Note_on_c, 15, 29, 0
18, 166800, Note_on_c, 15, 41, 80
18, 166830, Control_c, 15, 11, 69
18, 167039, Note_on_c, 15, 41, 0
18, 167400, Control_c, 15, 11, 127
18, 167520, Note_on_c, 15, 41, 44
18, 167759, Note_on_c, 15, 41, 0
18, 167880, Note_on_c, 15, 41, 44
18, 168119, Note_on_c, 15, 41, 0
18, 168240, Note_on_c, 15, 46, 44
18, 168479, Note_on_c, 15, 46, 0
18, 168960, Note_on_c, 15, 41, 44
18, 169199, Note_on_c, 15, 41, 0
18, 169320, Note_on_c, 15, 41, 80
18, 169559, Note_on_c, 15, 41, 0
18, 169678, Program_c, 15, 45
18, 169680, Note_on_c, 15, 34, 44
18, 169919, Note_on_c, 15, 34, 0
18, 170040, Program_c, 15, 48
18, 170040, End_track
19, 0, Start_track
19, 0, MIDI_port, 0
19, 0, End_track
20, 0, Start_track
20, 0, Title_t, "Ludwig van Beethoven - Symphony No. 9 in D minor, Op.125 - 3. Adagio molto e cantabile"
20, 0, MIDI_port, 0
20, 0, End_track
0, 0, End_of_file
