0, 0, Header, 1, 19, 240
1, 0, Start_track
1, 0, Sequencer_specific, 10, 0, 0, 91, 35, 1, 0, 5, 6, 42, 0
1, 0, Title_t, "Ludwig van Beethoven - Symphony No. 3 in E-flat Major, Op.55 (Eroica)"
1, 0, Instrument_name_t, "Conductor Track"
1, 0, SMPTE_offset, 96, 0, 3, 0, 0
1, 0, MIDI_port, 0
1, 0, Key_signature, -3, "major"
1, 0, Tempo, 172413
1, 0, Time_signature, 1, 2, 24, 8
1, 240, Time_signature, 3, 2, 24, 8
1, 214800, Tempo, 172413
1, 215160, Tempo, 177514
1, 215520, Tempo, 182926
1, 215880, Tempo, 188679
1, 216240, Tempo, 194805
1, 216600, Tempo, 201342
1, 216960, Tempo, 208333
1, 325680, Tempo, 208333
1, 325920, Tempo, 201342
1, 326160, Tempo, 194805
1, 326400, Tempo, 188679
1, 326640, Tempo, 182926
1, 326880, Tempo, 177514
1, 327120, Tempo, 172413
1, 416400, Tempo, 258620
1, 416400, Time_signature, 2, 2, 24, 8
1, 418320, Time_signature, 3, 2, 24, 8
1, 418320, Tempo, 172413
1, 457200, Tempo, 172413
1, 457320, Tempo, 174927
1, 457440, Tempo, 177514
1, 457560, Tempo, 180180
1, 457680, Tempo, 182926
1, 457800, Tempo, 185758
1, 457920, Tempo, 188679
1, 458040, Tempo, 191693
1, 458160, Tempo, 194805
1, 458280, Tempo, 198019
1, 458400, Tempo, 201342
1, 458520, Tempo, 204778
1, 458640, Tempo, 208333
1, 458880, Tempo, 1000000
1, 460320, Tempo, 394736
1, 460320, End_track
2, 0, Start_track
2, 0, Title_t, "3rd Movement - Allegro vivace (Scherzo)"
2, 0, MIDI_port, 0
2, 0, End_track
3, 0, Start_track
3, 0, Title_t, "Sequenced by D. L. Viens 16 Apr 2000"
3, 0, MIDI_port, 0
3, 0, End_track
4, 0, Start_track
4, 0, Title_t, "dlviens@empire.net"
4, 0, MIDI_port, 0
4, 0, End_track
5, 0, Start_track
5, 0, MIDI_port, 0
5, 0, End_track
6, 0, Start_track
6, 0, Title_t, "Flute"
6, 0, MIDI_port, 0
6, 0, Program_c, 0, 73
6, 0, Control_c, 0, 7, 72
6, 0, Control_c, 0, 10, 60
6, 0, Control_c, 0, 11, 127
6, 17520, Note_on_c, 0, 87, 52
6, 18209, Note_on_c, 0, 87, 0
6, 18240, Note_on_c, 0, 86, 52
6, 18479, Note_on_c, 0, 86, 0
6, 18480, Note_on_c, 0, 89, 52
6, 18689, Note_on_c, 0, 89, 0
6, 18720, Note_on_c, 0, 86, 52
6, 18839, Note_on_c, 0, 86, 0
6, 18960, Note_on_c, 0, 84, 52
6, 19199, Note_on_c, 0, 84, 0
6, 19200, Note_on_c, 0, 87, 52
6, 19409, Note_on_c, 0, 87, 0
6, 19440, Note_on_c, 0, 84, 52
6, 19559, Note_on_c, 0, 84, 0
6, 19680, Note_on_c, 0, 82, 52
6, 19919, Note_on_c, 0, 82, 0
6, 28800, Note_on_c, 0, 84, 52
6, 29009, Note_on_c, 0, 84, 0
6, 29040, Note_on_c, 0, 89, 52
6, 29249, Note_on_c, 0, 89, 0
6, 29280, Note_on_c, 0, 89, 52
6, 29489, Note_on_c, 0, 89, 0
6, 29520, Note_on_c, 0, 89, 52
6, 29729, Note_on_c, 0, 89, 0
6, 29760, Note_on_c, 0, 89, 52
6, 29969, Note_on_c, 0, 89, 0
6, 30000, Note_on_c, 0, 89, 52
6, 30209, Note_on_c, 0, 89, 0
6, 30240, Note_on_c, 0, 89, 52
6, 30449, Note_on_c, 0, 89, 0
6, 30480, Note_on_c, 0, 89, 52
6, 30719, Note_on_c, 0, 89, 0
6, 30720, Note_on_c, 0, 91, 52
6, 30839, Note_on_c, 0, 91, 0
6, 30840, Note_on_c, 0, 89, 52
6, 30959, Note_on_c, 0, 89, 0
6, 30960, Note_on_c, 0, 88, 52
6, 31079, Note_on_c, 0, 88, 0
6, 31080, Note_on_c, 0, 86, 52
6, 31169, Note_on_c, 0, 86, 0
6, 31200, Note_on_c, 0, 84, 52
6, 31889, Note_on_c, 0, 84, 0
6, 31920, Note_on_c, 0, 82, 52
6, 32609, Note_on_c, 0, 82, 0
6, 32640, Note_on_c, 0, 81, 52
6, 32879, Note_on_c, 0, 81, 0
6, 32880, Note_on_c, 0, 84, 52
6, 33089, Note_on_c, 0, 84, 0
6, 33120, Note_on_c, 0, 81, 52
6, 33239, Note_on_c, 0, 81, 0
6, 33360, Note_on_c, 0, 79, 52
6, 33599, Note_on_c, 0, 79, 0
6, 33600, Note_on_c, 0, 82, 52
6, 33809, Note_on_c, 0, 82, 0
6, 33840, Note_on_c, 0, 79, 52
6, 33959, Note_on_c, 0, 79, 0
6, 34080, Note_on_c, 0, 77, 52
6, 34319, Note_on_c, 0, 77, 0
6, 36960, Note_on_c, 0, 84, 60
6, 37649, Note_on_c, 0, 84, 0
6, 37680, Note_on_c, 0, 86, 52
6, 37919, Note_on_c, 0, 86, 0
6, 39840, Note_on_c, 0, 86, 60
6, 40529, Note_on_c, 0, 86, 0
6, 40560, Note_on_c, 0, 86, 44
6, 40799, Note_on_c, 0, 86, 0
6, 41040, Note_on_c, 0, 86, 44
6, 41159, Note_on_c, 0, 86, 0
6, 41280, Note_on_c, 0, 86, 44
6, 41399, Note_on_c, 0, 86, 0
6, 41520, Note_on_c, 0, 86, 44
6, 41639, Note_on_c, 0, 86, 0
6, 41760, Note_on_c, 0, 85, 44
6, 41879, Note_on_c, 0, 85, 0
6, 42000, Note_on_c, 0, 86, 44
6, 42119, Note_on_c, 0, 86, 0
6, 42480, Note_on_c, 0, 86, 44
6, 42480, Note_on_c, 0, 84, 44
6, 42599, Note_on_c, 0, 86, 0
6, 42599, Note_on_c, 0, 84, 0
6, 42720, Note_on_c, 0, 82, 44
6, 42720, Note_on_c, 0, 86, 44
6, 42839, Note_on_c, 0, 82, 0
6, 42839, Note_on_c, 0, 86, 0
6, 42960, Note_on_c, 0, 82, 44
6, 42960, Note_on_c, 0, 86, 44
6, 43079, Note_on_c, 0, 82, 0
6, 43079, Note_on_c, 0, 86, 0
6, 43200, Note_on_c, 0, 91, 44
6, 43200, Note_on_c, 0, 85, 44
6, 43319, Note_on_c, 0, 91, 0
6, 43319, Note_on_c, 0, 85, 0
6, 43440, Note_on_c, 0, 86, 44
6, 43440, Note_on_c, 0, 90, 44
6, 43559, Note_on_c, 0, 86, 0
6, 43559, Note_on_c, 0, 90, 0
6, 65760, Note_on_c, 0, 82, 52
6, 65879, Note_on_c, 0, 82, 0
6, 66000, Note_on_c, 0, 84, 62
6, 66119, Note_on_c, 0, 84, 0
6, 66240, Note_on_c, 0, 86, 73
6, 66359, Note_on_c, 0, 86, 0
6, 66480, Note_on_c, 0, 87, 84
6, 66689, Note_on_c, 0, 87, 0
6, 66720, Note_on_c, 0, 87, 84
6, 66929, Note_on_c, 0, 87, 0
6, 66960, Note_on_c, 0, 87, 84
6, 67169, Note_on_c, 0, 87, 0
6, 67200, Note_on_c, 0, 87, 84
6, 67409, Note_on_c, 0, 87, 0
6, 67440, Note_on_c, 0, 87, 84
6, 67649, Note_on_c, 0, 87, 0
6, 67680, Note_on_c, 0, 87, 84
6, 67889, Note_on_c, 0, 87, 0
6, 67920, Note_on_c, 0, 87, 84
6, 68159, Note_on_c, 0, 87, 0
6, 68160, Note_on_c, 0, 89, 84
6, 68279, Note_on_c, 0, 89, 0
6, 68280, Note_on_c, 0, 87, 84
6, 68399, Note_on_c, 0, 87, 0
6, 68400, Note_on_c, 0, 86, 84
6, 68519, Note_on_c, 0, 86, 0
6, 68520, Note_on_c, 0, 84, 84
6, 68609, Note_on_c, 0, 84, 0
6, 68640, Note_on_c, 0, 82, 84
6, 69329, Note_on_c, 0, 82, 0
6, 69360, Note_on_c, 0, 80, 92
6, 70049, Note_on_c, 0, 80, 0
6, 70080, Note_on_c, 0, 79, 84
6, 70319, Note_on_c, 0, 79, 0
6, 70320, Note_on_c, 0, 82, 84
6, 70529, Note_on_c, 0, 82, 0
6, 70560, Note_on_c, 0, 79, 84
6, 70679, Note_on_c, 0, 79, 0
6, 70800, Note_on_c, 0, 77, 84
6, 71039, Note_on_c, 0, 77, 0
6, 71040, Note_on_c, 0, 82, 84
6, 71249, Note_on_c, 0, 82, 0
6, 71280, Note_on_c, 0, 77, 84
6, 71399, Note_on_c, 0, 77, 0
6, 71520, Note_on_c, 0, 75, 84
6, 71639, Note_on_c, 0, 75, 0
6, 71760, Note_on_c, 0, 79, 84
6, 71879, Note_on_c, 0, 79, 0
6, 72000, Note_on_c, 0, 82, 84
6, 72119, Note_on_c, 0, 82, 0
6, 72240, Note_on_c, 0, 82, 84
6, 72929, Note_on_c, 0, 82, 0
6, 72960, Note_on_c, 0, 82, 84
6, 73649, Note_on_c, 0, 82, 0
6, 73680, Note_on_c, 0, 82, 84
6, 74369, Note_on_c, 0, 82, 0
6, 74400, Note_on_c, 0, 82, 84
6, 74609, Note_on_c, 0, 82, 0
6, 74640, Note_on_c, 0, 87, 84
6, 74849, Note_on_c, 0, 87, 0
6, 74880, Note_on_c, 0, 87, 84
6, 75089, Note_on_c, 0, 87, 0
6, 75120, Note_on_c, 0, 87, 84
6, 75809, Note_on_c, 0, 87, 0
6, 75840, Note_on_c, 0, 87, 84
6, 76529, Note_on_c, 0, 87, 0
6, 76560, Note_on_c, 0, 87, 84
6, 77249, Note_on_c, 0, 87, 0
6, 77280, Note_on_c, 0, 87, 84
6, 77969, Note_on_c, 0, 87, 0
6, 78000, Note_on_c, 0, 87, 84
6, 78689, Note_on_c, 0, 87, 0
6, 78720, Note_on_c, 0, 87, 84
6, 78839, Note_on_c, 0, 87, 0
6, 78960, Note_on_c, 0, 84, 84
6, 78960, Note_on_c, 0, 87, 84
6, 79079, Note_on_c, 0, 84, 0
6, 79079, Note_on_c, 0, 87, 0
6, 79200, Note_on_c, 0, 84, 84
6, 79200, Note_on_c, 0, 87, 84
6, 79319, Note_on_c, 0, 84, 0
6, 79319, Note_on_c, 0, 87, 0
6, 79440, Note_on_c, 0, 82, 84
6, 79440, Note_on_c, 0, 87, 84
6, 79559, Note_on_c, 0, 82, 0
6, 79559, Note_on_c, 0, 87, 0
6, 79680, Note_on_c, 0, 87, 84
6, 79680, Note_on_c, 0, 82, 84
6, 79799, Note_on_c, 0, 87, 0
6, 79799, Note_on_c, 0, 82, 0
6, 79920, Note_on_c, 0, 82, 84
6, 79920, Note_on_c, 0, 87, 84
6, 80039, Note_on_c, 0, 82, 0
6, 80039, Note_on_c, 0, 87, 0
6, 80160, Note_on_c, 0, 87, 84
6, 80160, Note_on_c, 0, 84, 84
6, 80279, Note_on_c, 0, 87, 0
6, 80279, Note_on_c, 0, 84, 0
6, 80400, Note_on_c, 0, 87, 84
6, 80400, Note_on_c, 0, 84, 84
6, 80519, Note_on_c, 0, 87, 0
6, 80519, Note_on_c, 0, 84, 0
6, 80640, Note_on_c, 0, 87, 84
6, 80640, Note_on_c, 0, 84, 84
6, 80759, Note_on_c, 0, 87, 0
6, 80759, Note_on_c, 0, 84, 0
6, 80880, Note_on_c, 0, 87, 84
6, 80880, Note_on_c, 0, 82, 84
6, 80999, Note_on_c, 0, 87, 0
6, 80999, Note_on_c, 0, 82, 0
6, 81120, Note_on_c, 0, 87, 84
6, 81120, Note_on_c, 0, 82, 84
6, 81239, Note_on_c, 0, 87, 0
6, 81239, Note_on_c, 0, 82, 0
6, 81360, Note_on_c, 0, 87, 84
6, 81360, Note_on_c, 0, 82, 84
6, 81479, Note_on_c, 0, 87, 0
6, 81479, Note_on_c, 0, 82, 0
6, 81600, Note_on_c, 0, 86, 84
6, 81600, Note_on_c, 0, 82, 84
6, 81719, Note_on_c, 0, 86, 0
6, 81719, Note_on_c, 0, 82, 0
6, 81840, Note_on_c, 0, 86, 84
6, 81840, Note_on_c, 0, 82, 84
6, 81959, Note_on_c, 0, 86, 0
6, 81959, Note_on_c, 0, 82, 0
6, 82080, Note_on_c, 0, 86, 84
6, 82080, Note_on_c, 0, 82, 84
6, 82199, Note_on_c, 0, 86, 0
6, 82199, Note_on_c, 0, 82, 0
6, 82320, Note_on_c, 0, 82, 84
6, 82320, Note_on_c, 0, 87, 84
6, 82559, Note_on_c, 0, 82, 0
6, 82559, Note_on_c, 0, 87, 0
6, 86160, Note_on_c, 0, 87, 52
6, 86160, Note_on_c, 0, 84, 52
6, 86369, Note_on_c, 0, 87, 0
6, 86369, Note_on_c, 0, 84, 0
6, 86400, Note_on_c, 0, 84, 52
6, 86400, Note_on_c, 0, 87, 52
6, 86609, Note_on_c, 0, 84, 0
6, 86609, Note_on_c, 0, 87, 0
6, 86640, Note_on_c, 0, 87, 52
6, 86640, Note_on_c, 0, 82, 52
6, 86849, Note_on_c, 0, 87, 0
6, 86849, Note_on_c, 0, 82, 0
6, 86880, Note_on_c, 0, 82, 52
6, 86880, Note_on_c, 0, 87, 52
6, 87089, Note_on_c, 0, 82, 0
6, 87089, Note_on_c, 0, 87, 0
6, 87120, Note_on_c, 0, 82, 52
6, 87120, Note_on_c, 0, 87, 52
6, 87329, Note_on_c, 0, 82, 0
6, 87329, Note_on_c, 0, 87, 0
6, 87360, Note_on_c, 0, 82, 52
6, 87360, Note_on_c, 0, 86, 52
6, 87569, Note_on_c, 0, 82, 0
6, 87569, Note_on_c, 0, 86, 0
6, 87600, Note_on_c, 0, 82, 52
6, 87600, Note_on_c, 0, 86, 52
6, 87809, Note_on_c, 0, 82, 0
6, 87809, Note_on_c, 0, 86, 0
6, 87840, Note_on_c, 0, 86, 52
6, 87840, Note_on_c, 0, 82, 52
6, 88049, Note_on_c, 0, 86, 0
6, 88049, Note_on_c, 0, 82, 0
6, 88080, Note_on_c, 0, 87, 76
6, 88080, Note_on_c, 0, 82, 76
6, 88199, Note_on_c, 0, 87, 0
6, 88199, Note_on_c, 0, 82, 0
6, 88320, Note_on_c, 0, 79, 84
6, 88320, Note_on_c, 0, 91, 84
6, 88769, Note_on_c, 0, 79, 0
6, 88769, Note_on_c, 0, 91, 0
6, 88800, Note_on_c, 0, 87, 76
6, 88800, Note_on_c, 0, 75, 76
6, 89009, Note_on_c, 0, 87, 0
6, 89009, Note_on_c, 0, 75, 0
6, 89040, Note_on_c, 0, 82, 84
6, 89489, Note_on_c, 0, 82, 0
6, 89520, Note_on_c, 0, 79, 76
6, 89729, Note_on_c, 0, 79, 0
6, 89760, Note_on_c, 0, 75, 84
6, 90209, Note_on_c, 0, 75, 0
6, 90240, Note_on_c, 0, 70, 76
6, 90479, Note_on_c, 0, 70, 0
6, 90720, Note_on_c, 0, 68, 76
6, 90779, Note_on_c, 0, 68, 0
6, 90780, Note_on_c, 0, 70, 76
6, 90839, Note_on_c, 0, 70, 0
6, 90840, Note_on_c, 0, 67, 76
6, 90899, Note_on_c, 0, 67, 0
6, 90900, Note_on_c, 0, 68, 76
6, 90959, Note_on_c, 0, 68, 0
6, 90960, Note_on_c, 0, 67, 76
6, 91199, Note_on_c, 0, 67, 0
6, 96960, Note_on_c, 0, 84, 52
6, 97079, Note_on_c, 0, 84, 0
6, 97200, Note_on_c, 0, 82, 52
6, 97319, Note_on_c, 0, 82, 0
6, 97440, Note_on_c, 0, 84, 52
6, 97559, Note_on_c, 0, 84, 0
6, 97680, Note_on_c, 0, 82, 52
6, 97799, Note_on_c, 0, 82, 0
6, 97920, Note_on_c, 0, 84, 52
6, 98039, Note_on_c, 0, 84, 0
6, 98160, Note_on_c, 0, 82, 52
6, 98279, Note_on_c, 0, 82, 0
6, 99840, Note_on_c, 0, 84, 52
6, 99959, Note_on_c, 0, 84, 0
6, 100080, Note_on_c, 0, 82, 52
6, 100199, Note_on_c, 0, 82, 0
6, 100320, Note_on_c, 0, 84, 52
6, 100439, Note_on_c, 0, 84, 0
6, 100560, Note_on_c, 0, 82, 52
6, 100679, Note_on_c, 0, 82, 0
6, 100800, Note_on_c, 0, 84, 52
6, 100919, Note_on_c, 0, 84, 0
6, 101040, Note_on_c, 0, 82, 52
6, 101159, Note_on_c, 0, 82, 0
6, 101280, Note_on_c, 0, 84, 52
6, 101280, Note_on_c, 0, 87, 52
6, 101399, Note_on_c, 0, 84, 0
6, 101399, Note_on_c, 0, 87, 0
6, 101520, Note_on_c, 0, 82, 52
6, 101520, Note_on_c, 0, 87, 52
6, 101639, Note_on_c, 0, 82, 0
6, 101639, Note_on_c, 0, 87, 0
6, 101760, Note_on_c, 0, 84, 52
6, 101760, Note_on_c, 0, 87, 52
6, 101879, Note_on_c, 0, 84, 0
6, 101879, Note_on_c, 0, 87, 0
6, 102000, Note_on_c, 0, 87, 52
6, 102000, Note_on_c, 0, 82, 52
6, 102119, Note_on_c, 0, 87, 0
6, 102119, Note_on_c, 0, 82, 0
6, 102240, Note_on_c, 0, 84, 52
6, 102240, Note_on_c, 0, 87, 52
6, 102359, Note_on_c, 0, 84, 0
6, 102359, Note_on_c, 0, 87, 0
6, 102480, Note_on_c, 0, 87, 52
6, 102480, Note_on_c, 0, 82, 52
6, 102599, Note_on_c, 0, 87, 0
6, 102599, Note_on_c, 0, 82, 0
6, 108240, Note_on_c, 0, 87, 52
6, 108240, Note_on_c, 0, 82, 52
6, 108479, Note_on_c, 0, 87, 0
6, 108479, Note_on_c, 0, 82, 0
6, 108960, Note_on_c, 0, 84, 52
6, 108960, Note_on_c, 0, 87, 52
6, 109199, Note_on_c, 0, 84, 0
6, 109199, Note_on_c, 0, 87, 0
6, 109680, Note_on_c, 0, 89, 52
6, 109680, Note_on_c, 0, 84, 52
6, 109919, Note_on_c, 0, 89, 0
6, 109919, Note_on_c, 0, 84, 0
6, 110400, Note_on_c, 0, 80, 52
6, 110400, Note_on_c, 0, 86, 52
6, 110639, Note_on_c, 0, 80, 0
6, 110639, Note_on_c, 0, 86, 0
6, 111120, Note_on_c, 0, 86, 52
6, 111120, Note_on_c, 0, 91, 52
6, 111359, Note_on_c, 0, 86, 0
6, 111359, Note_on_c, 0, 91, 0
6, 111840, Note_on_c, 0, 87, 60
6, 111840, Note_on_c, 0, 82, 60
6, 112079, Note_on_c, 0, 87, 0
6, 112079, Note_on_c, 0, 82, 0
6, 112560, Note_on_c, 0, 87, 68
6, 112560, Note_on_c, 0, 84, 68
6, 112799, Note_on_c, 0, 87, 0
6, 112799, Note_on_c, 0, 84, 0
6, 113520, Note_on_c, 0, 82, 78
6, 113729, Note_on_c, 0, 82, 0
6, 113760, Note_on_c, 0, 82, 81
6, 113969, Note_on_c, 0, 82, 0
6, 114000, Note_on_c, 0, 82, 84
6, 114209, Note_on_c, 0, 82, 0
6, 114240, Note_on_c, 0, 86, 84
6, 114240, Note_on_c, 0, 82, 84
6, 114449, Note_on_c, 0, 86, 0
6, 114449, Note_on_c, 0, 82, 0
6, 114480, Note_on_c, 0, 82, 84
6, 114480, Note_on_c, 0, 86, 84
6, 114689, Note_on_c, 0, 82, 0
6, 114689, Note_on_c, 0, 86, 0
6, 114720, Note_on_c, 0, 82, 84
6, 114720, Note_on_c, 0, 86, 84
6, 114929, Note_on_c, 0, 82, 0
6, 114929, Note_on_c, 0, 86, 0
6, 114960, Note_on_c, 0, 82, 84
6, 114960, Note_on_c, 0, 89, 84
6, 115169, Note_on_c, 0, 82, 0
6, 115169, Note_on_c, 0, 89, 0
6, 115200, Note_on_c, 0, 89, 84
6, 115200, Note_on_c, 0, 82, 84
6, 115409, Note_on_c, 0, 89, 0
6, 115409, Note_on_c, 0, 82, 0
6, 115440, Note_on_c, 0, 89, 84
6, 115440, Note_on_c, 0, 82, 84
6, 115649, Note_on_c, 0, 89, 0
6, 115649, Note_on_c, 0, 82, 0
6, 115680, Note_on_c, 0, 92, 84
6, 115680, Note_on_c, 0, 82, 84
6, 115889, Note_on_c, 0, 92, 0
6, 115889, Note_on_c, 0, 82, 0
6, 115920, Note_on_c, 0, 92, 84
6, 115920, Note_on_c, 0, 82, 84
6, 116129, Note_on_c, 0, 92, 0
6, 116129, Note_on_c, 0, 82, 0
6, 116160, Note_on_c, 0, 92, 84
6, 116160, Note_on_c, 0, 82, 84
6, 116369, Note_on_c, 0, 92, 0
6, 116369, Note_on_c, 0, 82, 0
6, 116400, Note_on_c, 0, 91, 84
6, 116400, Note_on_c, 0, 82, 84
6, 116609, Note_on_c, 0, 91, 0
6, 116609, Note_on_c, 0, 82, 0
6, 116640, Note_on_c, 0, 82, 84
6, 116640, Note_on_c, 0, 89, 84
6, 116849, Note_on_c, 0, 82, 0
6, 116849, Note_on_c, 0, 89, 0
6, 116880, Note_on_c, 0, 87, 76
6, 116880, Note_on_c, 0, 82, 76
6, 117119, Note_on_c, 0, 87, 0
6, 117119, Note_on_c, 0, 82, 0
6, 117600, Note_on_c, 0, 89, 76
6, 117600, Note_on_c, 0, 86, 76
6, 117839, Note_on_c, 0, 89, 0
6, 117839, Note_on_c, 0, 86, 0
6, 118320, Note_on_c, 0, 80, 76
6, 118320, Note_on_c, 0, 89, 76
6, 118559, Note_on_c, 0, 80, 0
6, 118559, Note_on_c, 0, 89, 0
6, 126720, Note_on_c, 0, 84, 52
6, 126929, Note_on_c, 0, 84, 0
6, 126960, Note_on_c, 0, 89, 52
6, 127169, Note_on_c, 0, 89, 0
6, 127200, Note_on_c, 0, 89, 52
6, 127409, Note_on_c, 0, 89, 0
6, 127440, Note_on_c, 0, 89, 52
6, 127649, Note_on_c, 0, 89, 0
6, 127680, Note_on_c, 0, 89, 52
6, 127889, Note_on_c, 0, 89, 0
6, 127920, Note_on_c, 0, 89, 52
6, 128129, Note_on_c, 0, 89, 0
6, 128160, Note_on_c, 0, 89, 52
6, 128369, Note_on_c, 0, 89, 0
6, 128400, Note_on_c, 0, 89, 52
6, 128639, Note_on_c, 0, 89, 0
6, 128640, Note_on_c, 0, 91, 52
6, 128759, Note_on_c, 0, 91, 0
6, 128760, Note_on_c, 0, 89, 52
6, 128879, Note_on_c, 0, 89, 0
6, 128880, Note_on_c, 0, 88, 52
6, 128999, Note_on_c, 0, 88, 0
6, 129000, Note_on_c, 0, 86, 52
6, 129089, Note_on_c, 0, 86, 0
6, 129120, Note_on_c, 0, 84, 52
6, 129809, Note_on_c, 0, 84, 0
6, 129840, Note_on_c, 0, 82, 52
6, 130529, Note_on_c, 0, 82, 0
6, 130560, Note_on_c, 0, 81, 52
6, 130799, Note_on_c, 0, 81, 0
6, 130800, Note_on_c, 0, 84, 52
6, 131009, Note_on_c, 0, 84, 0
6, 131040, Note_on_c, 0, 81, 52
6, 131159, Note_on_c, 0, 81, 0
6, 131280, Note_on_c, 0, 79, 52
6, 131519, Note_on_c, 0, 79, 0
6, 131520, Note_on_c, 0, 82, 52
6, 131729, Note_on_c, 0, 82, 0
6, 131760, Note_on_c, 0, 79, 52
6, 131879, Note_on_c, 0, 79, 0
6, 132000, Note_on_c, 0, 77, 52
6, 132239, Note_on_c, 0, 77, 0
6, 134880, Note_on_c, 0, 84, 60
6, 135569, Note_on_c, 0, 84, 0
6, 135600, Note_on_c, 0, 86, 52
6, 135839, Note_on_c, 0, 86, 0
6, 137760, Note_on_c, 0, 86, 60
6, 138449, Note_on_c, 0, 86, 0
6, 138480, Note_on_c, 0, 86, 44
6, 138719, Note_on_c, 0, 86, 0
6, 138960, Note_on_c, 0, 86, 44
6, 139079, Note_on_c, 0, 86, 0
6, 139200, Note_on_c, 0, 86, 44
6, 139319, Note_on_c, 0, 86, 0
6, 139440, Note_on_c, 0, 86, 44
6, 139559, Note_on_c, 0, 86, 0
6, 139680, Note_on_c, 0, 85, 44
6, 139799, Note_on_c, 0, 85, 0
6, 139920, Note_on_c, 0, 86, 44
6, 140039, Note_on_c, 0, 86, 0
6, 140400, Note_on_c, 0, 84, 44
6, 140400, Note_on_c, 0, 86, 44
6, 140519, Note_on_c, 0, 84, 0
6, 140519, Note_on_c, 0, 86, 0
6, 140640, Note_on_c, 0, 82, 44
6, 140640, Note_on_c, 0, 86, 44
6, 140759, Note_on_c, 0, 82, 0
6, 140759, Note_on_c, 0, 86, 0
6, 140880, Note_on_c, 0, 86, 44
6, 140880, Note_on_c, 0, 82, 44
6, 140999, Note_on_c, 0, 86, 0
6, 140999, Note_on_c, 0, 82, 0
6, 141120, Note_on_c, 0, 85, 44
6, 141120, Note_on_c, 0, 91, 44
6, 141239, Note_on_c, 0, 85, 0
6, 141239, Note_on_c, 0, 91, 0
6, 141360, Note_on_c, 0, 90, 44
6, 141360, Note_on_c, 0, 86, 44
6, 141479, Note_on_c, 0, 90, 0
6, 141479, Note_on_c, 0, 86, 0
6, 163680, Note_on_c, 0, 82, 52
6, 163799, Note_on_c, 0, 82, 0
6, 163920, Note_on_c, 0, 84, 62
6, 164039, Note_on_c, 0, 84, 0
6, 164160, Note_on_c, 0, 86, 73
6, 164279, Note_on_c, 0, 86, 0
6, 164400, Note_on_c, 0, 87, 84
6, 164609, Note_on_c, 0, 87, 0
6, 164640, Note_on_c, 0, 87, 84
6, 164849, Note_on_c, 0, 87, 0
6, 164880, Note_on_c, 0, 87, 84
6, 165089, Note_on_c, 0, 87, 0
6, 165120, Note_on_c, 0, 87, 84
6, 165329, Note_on_c, 0, 87, 0
6, 165360, Note_on_c, 0, 87, 84
6, 165569, Note_on_c, 0, 87, 0
6, 165600, Note_on_c, 0, 87, 84
6, 165809, Note_on_c, 0, 87, 0
6, 165840, Note_on_c, 0, 87, 84
6, 166079, Note_on_c, 0, 87, 0
6, 166080, Note_on_c, 0, 89, 84
6, 166199, Note_on_c, 0, 89, 0
6, 166200, Note_on_c, 0, 87, 84
6, 166319, Note_on_c, 0, 87, 0
6, 166320, Note_on_c, 0, 86, 84
6, 166439, Note_on_c, 0, 86, 0
6, 166440, Note_on_c, 0, 84, 84
6, 166529, Note_on_c, 0, 84, 0
6, 166560, Note_on_c, 0, 82, 84
6, 167249, Note_on_c, 0, 82, 0
6, 167280, Note_on_c, 0, 80, 92
6, 167969, Note_on_c, 0, 80, 0
6, 168000, Note_on_c, 0, 79, 84
6, 168239, Note_on_c, 0, 79, 0
6, 168240, Note_on_c, 0, 82, 84
6, 168449, Note_on_c, 0, 82, 0
6, 168480, Note_on_c, 0, 79, 84
6, 168599, Note_on_c, 0, 79, 0
6, 168720, Note_on_c, 0, 77, 84
6, 168959, Note_on_c, 0, 77, 0
6, 168960, Note_on_c, 0, 82, 84
6, 169169, Note_on_c, 0, 82, 0
6, 169200, Note_on_c, 0, 77, 84
6, 169319, Note_on_c, 0, 77, 0
6, 169440, Note_on_c, 0, 75, 84
6, 169559, Note_on_c, 0, 75, 0
6, 169680, Note_on_c, 0, 79, 84
6, 169799, Note_on_c, 0, 79, 0
6, 169920, Note_on_c, 0, 82, 84
6, 170039, Note_on_c, 0, 82, 0
6, 170160, Note_on_c, 0, 82, 84
6, 170849, Note_on_c, 0, 82, 0
6, 170880, Note_on_c, 0, 82, 84
6, 171569, Note_on_c, 0, 82, 0
6, 171600, Note_on_c, 0, 82, 84
6, 172289, Note_on_c, 0, 82, 0
6, 172320, Note_on_c, 0, 82, 84
6, 172529, Note_on_c, 0, 82, 0
6, 172560, Note_on_c, 0, 87, 84
6, 172769, Note_on_c, 0, 87, 0
6, 172800, Note_on_c, 0, 87, 84
6, 173009, Note_on_c, 0, 87, 0
6, 173040, Note_on_c, 0, 87, 84
6, 173729, Note_on_c, 0, 87, 0
6, 173760, Note_on_c, 0, 87, 84
6, 174449, Note_on_c, 0, 87, 0
6, 174480, Note_on_c, 0, 87, 84
6, 175169, Note_on_c, 0, 87, 0
6, 175200, Note_on_c, 0, 87, 84
6, 175889, Note_on_c, 0, 87, 0
6, 175920, Note_on_c, 0, 87, 84
6, 176609, Note_on_c, 0, 87, 0
6, 176640, Note_on_c, 0, 87, 84
6, 176759, Note_on_c, 0, 87, 0
6, 176880, Note_on_c, 0, 87, 84
6, 176880, Note_on_c, 0, 84, 84
6, 176999, Note_on_c, 0, 87, 0
6, 176999, Note_on_c, 0, 84, 0
6, 177120, Note_on_c, 0, 84, 84
6, 177120, Note_on_c, 0, 87, 84
6, 177239, Note_on_c, 0, 84, 0
6, 177239, Note_on_c, 0, 87, 0
6, 177360, Note_on_c, 0, 82, 84
6, 177360, Note_on_c, 0, 87, 84
6, 177479, Note_on_c, 0, 82, 0
6, 177479, Note_on_c, 0, 87, 0
6, 177600, Note_on_c, 0, 87, 84
6, 177600, Note_on_c, 0, 82, 84
6, 177719, Note_on_c, 0, 87, 0
6, 177719, Note_on_c, 0, 82, 0
6, 177840, Note_on_c, 0, 87, 84
6, 177840, Note_on_c, 0, 82, 84
6, 177959, Note_on_c, 0, 87, 0
6, 177959, Note_on_c, 0, 82, 0
6, 178080, Note_on_c, 0, 84, 84
6, 178080, Note_on_c, 0, 87, 84
6, 178199, Note_on_c, 0, 84, 0
6, 178199, Note_on_c, 0, 87, 0
6, 178320, Note_on_c, 0, 84, 84
6, 178320, Note_on_c, 0, 87, 84
6, 178439, Note_on_c, 0, 84, 0
6, 178439, Note_on_c, 0, 87, 0
6, 178560, Note_on_c, 0, 87, 84
6, 178560, Note_on_c, 0, 84, 84
6, 178679, Note_on_c, 0, 87, 0
6, 178679, Note_on_c, 0, 84, 0
6, 178800, Note_on_c, 0, 87, 84
6, 178800, Note_on_c, 0, 82, 84
6, 178919, Note_on_c, 0, 87, 0
6, 178919, Note_on_c, 0, 82, 0
6, 179040, Note_on_c, 0, 87, 84
6, 179040, Note_on_c, 0, 82, 84
6, 179159, Note_on_c, 0, 87, 0
6, 179159, Note_on_c, 0, 82, 0
6, 179280, Note_on_c, 0, 87, 84
6, 179280, Note_on_c, 0, 82, 84
6, 179399, Note_on_c, 0, 87, 0
6, 179399, Note_on_c, 0, 82, 0
6, 179520, Note_on_c, 0, 82, 84
6, 179520, Note_on_c, 0, 86, 84
6, 179639, Note_on_c, 0, 82, 0
6, 179639, Note_on_c, 0, 86, 0
6, 179760, Note_on_c, 0, 82, 84
6, 179760, Note_on_c, 0, 86, 84
6, 179879, Note_on_c, 0, 82, 0
6, 179879, Note_on_c, 0, 86, 0
6, 180000, Note_on_c, 0, 86, 84
6, 180000, Note_on_c, 0, 82, 84
6, 180119, Note_on_c, 0, 86, 0
6, 180119, Note_on_c, 0, 82, 0
6, 180240, Note_on_c, 0, 82, 84
6, 180240, Note_on_c, 0, 87, 84
6, 180479, Note_on_c, 0, 82, 0
6, 180479, Note_on_c, 0, 87, 0
6, 184080, Note_on_c, 0, 84, 52
6, 184080, Note_on_c, 0, 87, 52
6, 184289, Note_on_c, 0, 84, 0
6, 184289, Note_on_c, 0, 87, 0
6, 184320, Note_on_c, 0, 84, 52
6, 184320, Note_on_c, 0, 87, 52
6, 184529, Note_on_c, 0, 84, 0
6, 184529, Note_on_c, 0, 87, 0
6, 184560, Note_on_c, 0, 82, 52
6, 184560, Note_on_c, 0, 87, 52
6, 184769, Note_on_c, 0, 82, 0
6, 184769, Note_on_c, 0, 87, 0
6, 184800, Note_on_c, 0, 82, 52
6, 184800, Note_on_c, 0, 87, 52
6, 185009, Note_on_c, 0, 82, 0
6, 185009, Note_on_c, 0, 87, 0
6, 185040, Note_on_c, 0, 82, 52
6, 185040, Note_on_c, 0, 87, 52
6, 185249, Note_on_c, 0, 82, 0
6, 185249, Note_on_c, 0, 87, 0
6, 185280, Note_on_c, 0, 86, 52
6, 185280, Note_on_c, 0, 82, 52
6, 185489, Note_on_c, 0, 86, 0
6, 185489, Note_on_c, 0, 82, 0
6, 185520, Note_on_c, 0, 82, 52
6, 185520, Note_on_c, 0, 86, 52
6, 185729, Note_on_c, 0, 82, 0
6, 185729, Note_on_c, 0, 86, 0
6, 185760, Note_on_c, 0, 82, 52
6, 185760, Note_on_c, 0, 86, 52
6, 185969, Note_on_c, 0, 82, 0
6, 185969, Note_on_c, 0, 86, 0
6, 186000, Note_on_c, 0, 87, 76
6, 186000, Note_on_c, 0, 82, 76
6, 186119, Note_on_c, 0, 87, 0
6, 186119, Note_on_c, 0, 82, 0
6, 186240, Note_on_c, 0, 91, 84
6, 186240, Note_on_c, 0, 79, 84
6, 186689, Note_on_c, 0, 91, 0
6, 186689, Note_on_c, 0, 79, 0
6, 186720, Note_on_c, 0, 87, 76
6, 186720, Note_on_c, 0, 75, 76
6, 186929, Note_on_c, 0, 87, 0
6, 186929, Note_on_c, 0, 75, 0
6, 186960, Note_on_c, 0, 82, 84
6, 187409, Note_on_c, 0, 82, 0
6, 187440, Note_on_c, 0, 79, 76
6, 187649, Note_on_c, 0, 79, 0
6, 187680, Note_on_c, 0, 75, 84
6, 188129, Note_on_c, 0, 75, 0
6, 188160, Note_on_c, 0, 70, 76
6, 188399, Note_on_c, 0, 70, 0
6, 188640, Note_on_c, 0, 68, 76
6, 188699, Note_on_c, 0, 68, 0
6, 188700, Note_on_c, 0, 70, 76
6, 188759, Note_on_c, 0, 70, 0
6, 188760, Note_on_c, 0, 67, 76
6, 188819, Note_on_c, 0, 67, 0
6, 188820, Note_on_c, 0, 68, 76
6, 188879, Note_on_c, 0, 68, 0
6, 188880, Note_on_c, 0, 67, 76
6, 189119, Note_on_c, 0, 67, 0
6, 194880, Note_on_c, 0, 84, 52
6, 194999, Note_on_c, 0, 84, 0
6, 195120, Note_on_c, 0, 82, 52
6, 195239, Note_on_c, 0, 82, 0
6, 195360, Note_on_c, 0, 84, 52
6, 195479, Note_on_c, 0, 84, 0
6, 195600, Note_on_c, 0, 82, 52
6, 195719, Note_on_c, 0, 82, 0
6, 195840, Note_on_c, 0, 84, 52
6, 195959, Note_on_c, 0, 84, 0
6, 196080, Note_on_c, 0, 82, 52
6, 196199, Note_on_c, 0, 82, 0
6, 197760, Note_on_c, 0, 84, 52
6, 197879, Note_on_c, 0, 84, 0
6, 198000, Note_on_c, 0, 82, 52
6, 198119, Note_on_c, 0, 82, 0
6, 198240, Note_on_c, 0, 84, 52
6, 198359, Note_on_c, 0, 84, 0
6, 198480, Note_on_c, 0, 82, 52
6, 198599, Note_on_c, 0, 82, 0
6, 198720, Note_on_c, 0, 84, 52
6, 198839, Note_on_c, 0, 84, 0
6, 198960, Note_on_c, 0, 82, 52
6, 199079, Note_on_c, 0, 82, 0
6, 199200, Note_on_c, 0, 84, 52
6, 199200, Note_on_c, 0, 87, 52
6, 199319, Note_on_c, 0, 84, 0
6, 199319, Note_on_c, 0, 87, 0
6, 199440, Note_on_c, 0, 82, 52
6, 199440, Note_on_c, 0, 87, 52
6, 199559, Note_on_c, 0, 82, 0
6, 199559, Note_on_c, 0, 87, 0
6, 199680, Note_on_c, 0, 84, 52
6, 199680, Note_on_c, 0, 87, 52
6, 199799, Note_on_c, 0, 84, 0
6, 199799, Note_on_c, 0, 87, 0
6, 199920, Note_on_c, 0, 82, 52
6, 199920, Note_on_c, 0, 87, 52
6, 200039, Note_on_c, 0, 82, 0
6, 200039, Note_on_c, 0, 87, 0
6, 200160, Note_on_c, 0, 84, 52
6, 200160, Note_on_c, 0, 87, 52
6, 200279, Note_on_c, 0, 84, 0
6, 200279, Note_on_c, 0, 87, 0
6, 200400, Note_on_c, 0, 82, 52
6, 200400, Note_on_c, 0, 87, 52
6, 200519, Note_on_c, 0, 82, 0
6, 200519, Note_on_c, 0, 87, 0
6, 206160, Note_on_c, 0, 82, 52
6, 206160, Note_on_c, 0, 87, 52
6, 206399, Note_on_c, 0, 82, 0
6, 206399, Note_on_c, 0, 87, 0
6, 206880, Note_on_c, 0, 84, 52
6, 206880, Note_on_c, 0, 87, 52
6, 207119, Note_on_c, 0, 84, 0
6, 207119, Note_on_c, 0, 87, 0
6, 207600, Note_on_c, 0, 84, 52
6, 207600, Note_on_c, 0, 89, 52
6, 207839, Note_on_c, 0, 84, 0
6, 207839, Note_on_c, 0, 89, 0
6, 208320, Note_on_c, 0, 86, 52
6, 208320, Note_on_c, 0, 80, 52
6, 208559, Note_on_c, 0, 86, 0
6, 208559, Note_on_c, 0, 80, 0
6, 209040, Note_on_c, 0, 86, 52
6, 209040, Note_on_c, 0, 91, 52
6, 209279, Note_on_c, 0, 86, 0
6, 209279, Note_on_c, 0, 91, 0
6, 209760, Note_on_c, 0, 87, 60
6, 209760, Note_on_c, 0, 82, 60
6, 209999, Note_on_c, 0, 87, 0
6, 209999, Note_on_c, 0, 82, 0
6, 210480, Note_on_c, 0, 87, 68
6, 210480, Note_on_c, 0, 84, 68
6, 210719, Note_on_c, 0, 87, 0
6, 210719, Note_on_c, 0, 84, 0
6, 211440, Note_on_c, 0, 82, 78
6, 211649, Note_on_c, 0, 82, 0
6, 211680, Note_on_c, 0, 82, 81
6, 211889, Note_on_c, 0, 82, 0
6, 211920, Note_on_c, 0, 82, 84
6, 212129, Note_on_c, 0, 82, 0
6, 212160, Note_on_c, 0, 82, 84
6, 212160, Note_on_c, 0, 86, 84
6, 212369, Note_on_c, 0, 82, 0
6, 212369, Note_on_c, 0, 86, 0
6, 212400, Note_on_c, 0, 86, 84
6, 212400, Note_on_c, 0, 82, 84
6, 212609, Note_on_c, 0, 86, 0
6, 212609, Note_on_c, 0, 82, 0
6, 212640, Note_on_c, 0, 86, 84
6, 212640, Note_on_c, 0, 82, 84
6, 212849, Note_on_c, 0, 86, 0
6, 212849, Note_on_c, 0, 82, 0
6, 212880, Note_on_c, 0, 89, 84
6, 212880, Note_on_c, 0, 82, 84
6, 213089, Note_on_c, 0, 89, 0
6, 213089, Note_on_c, 0, 82, 0
6, 213120, Note_on_c, 0, 89, 84
6, 213120, Note_on_c, 0, 82, 84
6, 213329, Note_on_c, 0, 89, 0
6, 213329, Note_on_c, 0, 82, 0
6, 213360, Note_on_c, 0, 82, 84
6, 213360, Note_on_c, 0, 89, 84
6, 213569, Note_on_c, 0, 82, 0
6, 213569, Note_on_c, 0, 89, 0
6, 213600, Note_on_c, 0, 82, 84
6, 213600, Note_on_c, 0, 92, 84
6, 213809, Note_on_c, 0, 82, 0
6, 213809, Note_on_c, 0, 92, 0
6, 213840, Note_on_c, 0, 92, 84
6, 213840, Note_on_c, 0, 82, 84
6, 214049, Note_on_c, 0, 92, 0
6, 214049, Note_on_c, 0, 82, 0
6, 214080, Note_on_c, 0, 92, 84
6, 214080, Note_on_c, 0, 82, 84
6, 214289, Note_on_c, 0, 92, 0
6, 214289, Note_on_c, 0, 82, 0
6, 214320, Note_on_c, 0, 82, 84
6, 214320, Note_on_c, 0, 91, 84
6, 214529, Note_on_c, 0, 82, 0
6, 214529, Note_on_c, 0, 91, 0
6, 214560, Note_on_c, 0, 89, 84
6, 214560, Note_on_c, 0, 82, 84
6, 214769, Note_on_c, 0, 89, 0
6, 214769, Note_on_c, 0, 82, 0
6, 214800, Note_on_c, 0, 82, 76
6, 214800, Note_on_c, 0, 87, 76
6, 215039, Note_on_c, 0, 82, 0
6, 215039, Note_on_c, 0, 87, 0
6, 215520, Note_on_c, 0, 89, 76
6, 215520, Note_on_c, 0, 86, 76
6, 215759, Note_on_c, 0, 89, 0
6, 215759, Note_on_c, 0, 86, 0
6, 216240, Note_on_c, 0, 87, 76
6, 216240, Note_on_c, 0, 79, 76
6, 216479, Note_on_c, 0, 87, 0
6, 216479, Note_on_c, 0, 79, 0
6, 233760, Note_on_c, 0, 79, 52
6, 233760, Note_on_c, 0, 75, 52
6, 233969, Note_on_c, 0, 79, 0
6, 233969, Note_on_c, 0, 75, 0
6, 234000, Note_on_c, 0, 79, 52
6, 234000, Note_on_c, 0, 75, 52
6, 234209, Note_on_c, 0, 79, 0
6, 234209, Note_on_c, 0, 75, 0
6, 234240, Note_on_c, 0, 74, 52
6, 234240, Note_on_c, 0, 77, 52
6, 234479, Note_on_c, 0, 74, 0
6, 234479, Note_on_c, 0, 77, 0
6, 239760, Note_on_c, 0, 87, 76
6, 239969, Note_on_c, 0, 87, 0
6, 240000, Note_on_c, 0, 87, 76
6, 240449, Note_on_c, 0, 87, 0
6, 240480, Note_on_c, 0, 87, 76
6, 240689, Note_on_c, 0, 87, 0
6, 240720, Note_on_c, 0, 87, 76
6, 241169, Note_on_c, 0, 87, 0
6, 241200, Note_on_c, 0, 87, 76
6, 241409, Note_on_c, 0, 87, 0
6, 241440, Note_on_c, 0, 87, 76
6, 241889, Note_on_c, 0, 87, 0
6, 241920, Note_on_c, 0, 87, 76
6, 242129, Note_on_c, 0, 87, 0
6, 242160, Note_on_c, 0, 87, 76
6, 242399, Note_on_c, 0, 87, 0
6, 242400, Note_on_c, 0, 84, 76
6, 242639, Note_on_c, 0, 84, 0
6, 242640, Note_on_c, 0, 82, 76
6, 242879, Note_on_c, 0, 82, 0
6, 242880, Note_on_c, 0, 80, 76
6, 242999, Note_on_c, 0, 80, 0
6, 243360, Note_on_c, 0, 84, 76
6, 243569, Note_on_c, 0, 84, 0
6, 243600, Note_on_c, 0, 84, 76
6, 244049, Note_on_c, 0, 84, 0
6, 244080, Note_on_c, 0, 84, 76
6, 244289, Note_on_c, 0, 84, 0
6, 244320, Note_on_c, 0, 84, 76
6, 244769, Note_on_c, 0, 84, 0
6, 244800, Note_on_c, 0, 84, 76
6, 245009, Note_on_c, 0, 84, 0
6, 245040, Note_on_c, 0, 84, 76
6, 245279, Note_on_c, 0, 84, 0
6, 245280, Note_on_c, 0, 80, 76
6, 245519, Note_on_c, 0, 80, 0
6, 245520, Note_on_c, 0, 79, 76
6, 245759, Note_on_c, 0, 79, 0
6, 245760, Note_on_c, 0, 77, 76
6, 245879, Note_on_c, 0, 77, 0
6, 246240, Note_on_c, 0, 89, 48
6, 246449, Note_on_c, 0, 89, 0
6, 246480, Note_on_c, 0, 89, 48
6, 246719, Note_on_c, 0, 89, 0
6, 246720, Note_on_c, 0, 86, 48
6, 246959, Note_on_c, 0, 86, 0
6, 246960, Note_on_c, 0, 84, 48
6, 247199, Note_on_c, 0, 84, 0
6, 247200, Note_on_c, 0, 82, 48
6, 247439, Note_on_c, 0, 82, 0
6, 247440, Note_on_c, 0, 86, 48
6, 247679, Note_on_c, 0, 86, 0
6, 247680, Note_on_c, 0, 84, 48
6, 247919, Note_on_c, 0, 84, 0
6, 247920, Note_on_c, 0, 87, 48
6, 248159, Note_on_c, 0, 87, 0
6, 248160, Note_on_c, 0, 81, 48
6, 248399, Note_on_c, 0, 81, 0
6, 248400, Note_on_c, 0, 84, 48
6, 248639, Note_on_c, 0, 84, 0
6, 248640, Note_on_c, 0, 77, 48
6, 248879, Note_on_c, 0, 77, 0
6, 248880, Note_on_c, 0, 87, 48
6, 249119, Note_on_c, 0, 87, 0
6, 249120, Note_on_c, 0, 86, 48
6, 249359, Note_on_c, 0, 86, 0
6, 249360, Note_on_c, 0, 89, 48
6, 249599, Note_on_c, 0, 89, 0
6, 249600, Note_on_c, 0, 86, 48
6, 249839, Note_on_c, 0, 86, 0
6, 249840, Note_on_c, 0, 84, 48
6, 250079, Note_on_c, 0, 84, 0
6, 250080, Note_on_c, 0, 82, 48
6, 250319, Note_on_c, 0, 82, 0
6, 250320, Note_on_c, 0, 86, 48
6, 250559, Note_on_c, 0, 86, 0
6, 250560, Note_on_c, 0, 84, 48
6, 250799, Note_on_c, 0, 84, 0
6, 250800, Note_on_c, 0, 87, 48
6, 251039, Note_on_c, 0, 87, 0
6, 251040, Note_on_c, 0, 81, 48
6, 251279, Note_on_c, 0, 81, 0
6, 251280, Note_on_c, 0, 84, 48
6, 251519, Note_on_c, 0, 84, 0
6, 251520, Note_on_c, 0, 77, 48
6, 251759, Note_on_c, 0, 77, 0
6, 251760, Note_on_c, 0, 87, 48
6, 251999, Note_on_c, 0, 87, 0
6, 252000, Note_on_c, 0, 86, 48
6, 252239, Note_on_c, 0, 86, 0
6, 252240, Note_on_c, 0, 89, 48
6, 252479, Note_on_c, 0, 89, 0
6, 252480, Note_on_c, 0, 86, 48
6, 252719, Note_on_c, 0, 86, 0
6, 252720, Note_on_c, 0, 84, 48
6, 252959, Note_on_c, 0, 84, 0
6, 252960, Note_on_c, 0, 82, 48
6, 253199, Note_on_c, 0, 82, 0
6, 284400, Note_on_c, 0, 87, 76
6, 284609, Note_on_c, 0, 87, 0
6, 284640, Note_on_c, 0, 87, 76
6, 285089, Note_on_c, 0, 87, 0
6, 285120, Note_on_c, 0, 87, 76
6, 285329, Note_on_c, 0, 87, 0
6, 285360, Note_on_c, 0, 87, 76
6, 285809, Note_on_c, 0, 87, 0
6, 285840, Note_on_c, 0, 87, 76
6, 286049, Note_on_c, 0, 87, 0
6, 286080, Note_on_c, 0, 87, 76
6, 286529, Note_on_c, 0, 87, 0
6, 286560, Note_on_c, 0, 87, 76
6, 286769, Note_on_c, 0, 87, 0
6, 286800, Note_on_c, 0, 87, 76
6, 287039, Note_on_c, 0, 87, 0
6, 287040, Note_on_c, 0, 84, 76
6, 287279, Note_on_c, 0, 84, 0
6, 287280, Note_on_c, 0, 82, 76
6, 287519, Note_on_c, 0, 82, 0
6, 287520, Note_on_c, 0, 80, 76
6, 287639, Note_on_c, 0, 80, 0
6, 288000, Note_on_c, 0, 84, 76
6, 288209, Note_on_c, 0, 84, 0
6, 288240, Note_on_c, 0, 84, 76
6, 288689, Note_on_c, 0, 84, 0
6, 288720, Note_on_c, 0, 84, 76
6, 288929, Note_on_c, 0, 84, 0
6, 288960, Note_on_c, 0, 84, 76
6, 289409, Note_on_c, 0, 84, 0
6, 289440, Note_on_c, 0, 84, 76
6, 289649, Note_on_c, 0, 84, 0
6, 289680, Note_on_c, 0, 84, 76
6, 289919, Note_on_c, 0, 84, 0
6, 289920, Note_on_c, 0, 80, 76
6, 290159, Note_on_c, 0, 80, 0
6, 290160, Note_on_c, 0, 79, 76
6, 290399, Note_on_c, 0, 79, 0
6, 290400, Note_on_c, 0, 77, 76
6, 290519, Note_on_c, 0, 77, 0
6, 290880, Note_on_c, 0, 89, 48
6, 291089, Note_on_c, 0, 89, 0
6, 291120, Note_on_c, 0, 89, 48
6, 291359, Note_on_c, 0, 89, 0
6, 291360, Note_on_c, 0, 86, 48
6, 291599, Note_on_c, 0, 86, 0
6, 291600, Note_on_c, 0, 84, 48
6, 291839, Note_on_c, 0, 84, 0
6, 291840, Note_on_c, 0, 82, 48
6, 292079, Note_on_c, 0, 82, 0
6, 292080, Note_on_c, 0, 86, 48
6, 292319, Note_on_c, 0, 86, 0
6, 292320, Note_on_c, 0, 84, 48
6, 292559, Note_on_c, 0, 84, 0
6, 292560, Note_on_c, 0, 87, 48
6, 292799, Note_on_c, 0, 87, 0
6, 292800, Note_on_c, 0, 81, 48
6, 293039, Note_on_c, 0, 81, 0
6, 293040, Note_on_c, 0, 84, 48
6, 293279, Note_on_c, 0, 84, 0
6, 293280, Note_on_c, 0, 77, 48
6, 293519, Note_on_c, 0, 77, 0
6, 293520, Note_on_c, 0, 87, 48
6, 293759, Note_on_c, 0, 87, 0
6, 293760, Note_on_c, 0, 86, 48
6, 293999, Note_on_c, 0, 86, 0
6, 294000, Note_on_c, 0, 89, 48
6, 294239, Note_on_c, 0, 89, 0
6, 294240, Note_on_c, 0, 86, 48
6, 294479, Note_on_c, 0, 86, 0
6, 294480, Note_on_c, 0, 84, 48
6, 294719, Note_on_c, 0, 84, 0
6, 294720, Note_on_c, 0, 82, 48
6, 294959, Note_on_c, 0, 82, 0
6, 294960, Note_on_c, 0, 86, 48
6, 295199, Note_on_c, 0, 86, 0
6, 295200, Note_on_c, 0, 84, 48
6, 295439, Note_on_c, 0, 84, 0
6, 295440, Note_on_c, 0, 87, 48
6, 295679, Note_on_c, 0, 87, 0
6, 295680, Note_on_c, 0, 81, 48
6, 295919, Note_on_c, 0, 81, 0
6, 295920, Note_on_c, 0, 84, 48
6, 296159, Note_on_c, 0, 84, 0
6, 296160, Note_on_c, 0, 77, 48
6, 296399, Note_on_c, 0, 77, 0
6, 296400, Note_on_c, 0, 87, 48
6, 296639, Note_on_c, 0, 87, 0
6, 296640, Note_on_c, 0, 86, 48
6, 296879, Note_on_c, 0, 86, 0
6, 296880, Note_on_c, 0, 89, 48
6, 297119, Note_on_c, 0, 89, 0
6, 297120, Note_on_c, 0, 86, 48
6, 297359, Note_on_c, 0, 86, 0
6, 297360, Note_on_c, 0, 84, 48
6, 297599, Note_on_c, 0, 84, 0
6, 297600, Note_on_c, 0, 82, 48
6, 297839, Note_on_c, 0, 82, 0
6, 345840, Note_on_c, 0, 87, 52
6, 346529, Note_on_c, 0, 87, 0
6, 346560, Note_on_c, 0, 86, 52
6, 346799, Note_on_c, 0, 86, 0
6, 346800, Note_on_c, 0, 89, 52
6, 347009, Note_on_c, 0, 89, 0
6, 347040, Note_on_c, 0, 86, 52
6, 347159, Note_on_c, 0, 86, 0
6, 347280, Note_on_c, 0, 84, 52
6, 347519, Note_on_c, 0, 84, 0
6, 347520, Note_on_c, 0, 87, 52
6, 347729, Note_on_c, 0, 87, 0
6, 347760, Note_on_c, 0, 84, 52
6, 347879, Note_on_c, 0, 84, 0
6, 348000, Note_on_c, 0, 82, 52
6, 348239, Note_on_c, 0, 82, 0
6, 357120, Note_on_c, 0, 84, 52
6, 357239, Note_on_c, 0, 84, 0
6, 357360, Note_on_c, 0, 89, 52
6, 357479, Note_on_c, 0, 89, 0
6, 357600, Note_on_c, 0, 89, 52
6, 357719, Note_on_c, 0, 89, 0
6, 357840, Note_on_c, 0, 89, 52
6, 357959, Note_on_c, 0, 89, 0
6, 358080, Note_on_c, 0, 89, 52
6, 358199, Note_on_c, 0, 89, 0
6, 358320, Note_on_c, 0, 89, 52
6, 358439, Note_on_c, 0, 89, 0
6, 358560, Note_on_c, 0, 89, 52
6, 358679, Note_on_c, 0, 89, 0
6, 358800, Note_on_c, 0, 89, 52
6, 359039, Note_on_c, 0, 89, 0
6, 359040, Note_on_c, 0, 91, 52
6, 359159, Note_on_c, 0, 91, 0
6, 359160, Note_on_c, 0, 89, 52
6, 359279, Note_on_c, 0, 89, 0
6, 359280, Note_on_c, 0, 88, 52
6, 359399, Note_on_c, 0, 88, 0
6, 359400, Note_on_c, 0, 86, 52
6, 359489, Note_on_c, 0, 86, 0
6, 359520, Note_on_c, 0, 84, 52
6, 360209, Note_on_c, 0, 84, 0
6, 360240, Note_on_c, 0, 82, 52
6, 360929, Note_on_c, 0, 82, 0
6, 360960, Note_on_c, 0, 81, 52
6, 361199, Note_on_c, 0, 81, 0
6, 361200, Note_on_c, 0, 84, 52
6, 361409, Note_on_c, 0, 84, 0
6, 361440, Note_on_c, 0, 81, 52
6, 361559, Note_on_c, 0, 81, 0
6, 361680, Note_on_c, 0, 79, 52
6, 361919, Note_on_c, 0, 79, 0
6, 361920, Note_on_c, 0, 82, 52
6, 362129, Note_on_c, 0, 82, 0
6, 362160, Note_on_c, 0, 79, 52
6, 362279, Note_on_c, 0, 79, 0
6, 362400, Note_on_c, 0, 77, 52
6, 362639, Note_on_c, 0, 77, 0
6, 365280, Note_on_c, 0, 84, 60
6, 365969, Note_on_c, 0, 84, 0
6, 366000, Note_on_c, 0, 86, 52
6, 366239, Note_on_c, 0, 86, 0
6, 368160, Note_on_c, 0, 86, 60
6, 368849, Note_on_c, 0, 86, 0
6, 368880, Note_on_c, 0, 86, 44
6, 368999, Note_on_c, 0, 86, 0
6, 369360, Note_on_c, 0, 86, 44
6, 369479, Note_on_c, 0, 86, 0
6, 369600, Note_on_c, 0, 86, 44
6, 369719, Note_on_c, 0, 86, 0
6, 369840, Note_on_c, 0, 86, 44
6, 369959, Note_on_c, 0, 86, 0
6, 370080, Note_on_c, 0, 85, 44
6, 370199, Note_on_c, 0, 85, 0
6, 370320, Note_on_c, 0, 86, 44
6, 370559, Note_on_c, 0, 86, 0
6, 370800, Note_on_c, 0, 86, 44
6, 370800, Note_on_c, 0, 84, 44
6, 370919, Note_on_c, 0, 86, 0
6, 370919, Note_on_c, 0, 84, 0
6, 371040, Note_on_c, 0, 86, 44
6, 371040, Note_on_c, 0, 82, 44
6, 371159, Note_on_c, 0, 86, 0
6, 371159, Note_on_c, 0, 82, 0
6, 371280, Note_on_c, 0, 86, 44
6, 371280, Note_on_c, 0, 82, 44
6, 371399, Note_on_c, 0, 86, 0
6, 371399, Note_on_c, 0, 82, 0
6, 371520, Note_on_c, 0, 91, 44
6, 371520, Note_on_c, 0, 85, 44
6, 371639, Note_on_c, 0, 91, 0
6, 371639, Note_on_c, 0, 85, 0
6, 371760, Note_on_c, 0, 90, 44
6, 371760, Note_on_c, 0, 86, 44
6, 371879, Note_on_c, 0, 90, 0
6, 371879, Note_on_c, 0, 86, 0
6, 394080, Note_on_c, 0, 82, 52
6, 394199, Note_on_c, 0, 82, 0
6, 394320, Note_on_c, 0, 84, 62
6, 394439, Note_on_c, 0, 84, 0
6, 394560, Note_on_c, 0, 86, 73
6, 394679, Note_on_c, 0, 86, 0
6, 394800, Note_on_c, 0, 87, 84
6, 395009, Note_on_c, 0, 87, 0
6, 395040, Note_on_c, 0, 87, 84
6, 395249, Note_on_c, 0, 87, 0
6, 395280, Note_on_c, 0, 87, 84
6, 395489, Note_on_c, 0, 87, 0
6, 395520, Note_on_c, 0, 87, 84
6, 395729, Note_on_c, 0, 87, 0
6, 395760, Note_on_c, 0, 87, 84
6, 395969, Note_on_c, 0, 87, 0
6, 396000, Note_on_c, 0, 87, 84
6, 396209, Note_on_c, 0, 87, 0
6, 396240, Note_on_c, 0, 87, 84
6, 396479, Note_on_c, 0, 87, 0
6, 396480, Note_on_c, 0, 89, 84
6, 396599, Note_on_c, 0, 89, 0
6, 396600, Note_on_c, 0, 87, 84
6, 396719, Note_on_c, 0, 87, 0
6, 396720, Note_on_c, 0, 86, 84
6, 396839, Note_on_c, 0, 86, 0
6, 396840, Note_on_c, 0, 84, 84
6, 396929, Note_on_c, 0, 84, 0
6, 396960, Note_on_c, 0, 82, 84
6, 397649, Note_on_c, 0, 82, 0
6, 397680, Note_on_c, 0, 80, 92
6, 398369, Note_on_c, 0, 80, 0
6, 398400, Note_on_c, 0, 79, 84
6, 398639, Note_on_c, 0, 79, 0
6, 398640, Note_on_c, 0, 82, 84
6, 398849, Note_on_c, 0, 82, 0
6, 398880, Note_on_c, 0, 79, 84
6, 398999, Note_on_c, 0, 79, 0
6, 399120, Note_on_c, 0, 77, 84
6, 399359, Note_on_c, 0, 77, 0
6, 399360, Note_on_c, 0, 82, 84
6, 399569, Note_on_c, 0, 82, 0
6, 399600, Note_on_c, 0, 77, 84
6, 399719, Note_on_c, 0, 77, 0
6, 399840, Note_on_c, 0, 75, 84
6, 399959, Note_on_c, 0, 75, 0
6, 400080, Note_on_c, 0, 79, 84
6, 400199, Note_on_c, 0, 79, 0
6, 400320, Note_on_c, 0, 82, 84
6, 400439, Note_on_c, 0, 82, 0
6, 400560, Note_on_c, 0, 82, 84
6, 401249, Note_on_c, 0, 82, 0
6, 401280, Note_on_c, 0, 82, 84
6, 401969, Note_on_c, 0, 82, 0
6, 402000, Note_on_c, 0, 82, 84
6, 402689, Note_on_c, 0, 82, 0
6, 402720, Note_on_c, 0, 82, 84
6, 402839, Note_on_c, 0, 82, 0
6, 402960, Note_on_c, 0, 87, 84
6, 403079, Note_on_c, 0, 87, 0
6, 403200, Note_on_c, 0, 87, 84
6, 403319, Note_on_c, 0, 87, 0
6, 403440, Note_on_c, 0, 87, 84
6, 404129, Note_on_c, 0, 87, 0
6, 404160, Note_on_c, 0, 87, 84
6, 404849, Note_on_c, 0, 87, 0
6, 404880, Note_on_c, 0, 87, 84
6, 405569, Note_on_c, 0, 87, 0
6, 405600, Note_on_c, 0, 87, 84
6, 406289, Note_on_c, 0, 87, 0
6, 406320, Note_on_c, 0, 87, 84
6, 407009, Note_on_c, 0, 87, 0
6, 407040, Note_on_c, 0, 87, 84
6, 407249, Note_on_c, 0, 87, 0
6, 407280, Note_on_c, 0, 87, 84
6, 407280, Note_on_c, 0, 84, 84
6, 407489, Note_on_c, 0, 87, 0
6, 407489, Note_on_c, 0, 84, 0
6, 407520, Note_on_c, 0, 87, 84
6, 407520, Note_on_c, 0, 84, 84
6, 407729, Note_on_c, 0, 87, 0
6, 407729, Note_on_c, 0, 84, 0
6, 407760, Note_on_c, 0, 87, 84
6, 407760, Note_on_c, 0, 82, 84
6, 407969, Note_on_c, 0, 87, 0
6, 407969, Note_on_c, 0, 82, 0
6, 408000, Note_on_c, 0, 87, 84
6, 408000, Note_on_c, 0, 82, 84
6, 408209, Note_on_c, 0, 87, 0
6, 408209, Note_on_c, 0, 82, 0
6, 408240, Note_on_c, 0, 87, 84
6, 408240, Note_on_c, 0, 82, 84
6, 408449, Note_on_c, 0, 87, 0
6, 408449, Note_on_c, 0, 82, 0
6, 408480, Note_on_c, 0, 87, 84
6, 408480, Note_on_c, 0, 84, 84
6, 408689, Note_on_c, 0, 87, 0
6, 408689, Note_on_c, 0, 84, 0
6, 408720, Note_on_c, 0, 87, 84
6, 408720, Note_on_c, 0, 84, 84
6, 408929, Note_on_c, 0, 87, 0
6, 408929, Note_on_c, 0, 84, 0
6, 408960, Note_on_c, 0, 87, 84
6, 408960, Note_on_c, 0, 84, 84
6, 409169, Note_on_c, 0, 87, 0
6, 409169, Note_on_c, 0, 84, 0
6, 409200, Note_on_c, 0, 87, 84
6, 409200, Note_on_c, 0, 82, 84
6, 409409, Note_on_c, 0, 87, 0
6, 409409, Note_on_c, 0, 82, 0
6, 409440, Note_on_c, 0, 87, 84
6, 409440, Note_on_c, 0, 82, 84
6, 409649, Note_on_c, 0, 87, 0
6, 409649, Note_on_c, 0, 82, 0
6, 409680, Note_on_c, 0, 87, 84
6, 409680, Note_on_c, 0, 82, 84
6, 409889, Note_on_c, 0, 87, 0
6, 409889, Note_on_c, 0, 82, 0
6, 409920, Note_on_c, 0, 86, 84
6, 409920, Note_on_c, 0, 82, 84
6, 410129, Note_on_c, 0, 86, 0
6, 410129, Note_on_c, 0, 82, 0
6, 410160, Note_on_c, 0, 86, 84
6, 410160, Note_on_c, 0, 82, 84
6, 410369, Note_on_c, 0, 86, 0
6, 410369, Note_on_c, 0, 82, 0
6, 410400, Note_on_c, 0, 86, 84
6, 410400, Note_on_c, 0, 82, 84
6, 410609, Note_on_c, 0, 86, 0
6, 410609, Note_on_c, 0, 82, 0
6, 410640, Note_on_c, 0, 87, 84
6, 410640, Note_on_c, 0, 82, 84
6, 410879, Note_on_c, 0, 87, 0
6, 410879, Note_on_c, 0, 82, 0
6, 414480, Note_on_c, 0, 84, 52
6, 414480, Note_on_c, 0, 80, 52
6, 414599, Note_on_c, 0, 84, 0
6, 414599, Note_on_c, 0, 80, 0
6, 414720, Note_on_c, 0, 84, 52
6, 414720, Note_on_c, 0, 80, 52
6, 414839, Note_on_c, 0, 84, 0
6, 414839, Note_on_c, 0, 80, 0
6, 414960, Note_on_c, 0, 82, 52
6, 414960, Note_on_c, 0, 87, 52
6, 415079, Note_on_c, 0, 82, 0
6, 415079, Note_on_c, 0, 87, 0
6, 415200, Note_on_c, 0, 87, 52
6, 415200, Note_on_c, 0, 82, 52
6, 415319, Note_on_c, 0, 87, 0
6, 415319, Note_on_c, 0, 82, 0
6, 415440, Note_on_c, 0, 87, 52
6, 415440, Note_on_c, 0, 82, 52
6, 415559, Note_on_c, 0, 87, 0
6, 415559, Note_on_c, 0, 82, 0
6, 415680, Note_on_c, 0, 86, 52
6, 415680, Note_on_c, 0, 82, 52
6, 415799, Note_on_c, 0, 86, 0
6, 415799, Note_on_c, 0, 82, 0
6, 415920, Note_on_c, 0, 86, 52
6, 415920, Note_on_c, 0, 82, 52
6, 416039, Note_on_c, 0, 86, 0
6, 416039, Note_on_c, 0, 82, 0
6, 416160, Note_on_c, 0, 86, 52
6, 416160, Note_on_c, 0, 82, 52
6, 416279, Note_on_c, 0, 86, 0
6, 416279, Note_on_c, 0, 82, 0
6, 416400, Note_on_c, 0, 87, 76
6, 416400, Note_on_c, 0, 82, 76
6, 416459, Note_on_c, 0, 87, 0
6, 416459, Note_on_c, 0, 82, 0
6, 416640, Note_on_c, 0, 91, 84
6, 416640, Note_on_c, 0, 79, 84
6, 416819, Note_on_c, 0, 91, 0
6, 416819, Note_on_c, 0, 79, 0
6, 416880, Note_on_c, 0, 87, 84
6, 416880, Note_on_c, 0, 75, 84
6, 417059, Note_on_c, 0, 87, 0
6, 417059, Note_on_c, 0, 75, 0
6, 417120, Note_on_c, 0, 82, 84
6, 417299, Note_on_c, 0, 82, 0
6, 417360, Note_on_c, 0, 79, 84
6, 417539, Note_on_c, 0, 79, 0
6, 417600, Note_on_c, 0, 75, 84
6, 417779, Note_on_c, 0, 75, 0
6, 417840, Note_on_c, 0, 70, 84
6, 418019, Note_on_c, 0, 70, 0
6, 418080, Note_on_c, 0, 68, 84
6, 418259, Note_on_c, 0, 68, 0
6, 418320, Note_on_c, 0, 67, 84
6, 418559, Note_on_c, 0, 67, 0
6, 424320, Note_on_c, 0, 84, 52
6, 424439, Note_on_c, 0, 84, 0
6, 424560, Note_on_c, 0, 82, 52
6, 424679, Note_on_c, 0, 82, 0
6, 424800, Note_on_c, 0, 84, 52
6, 424919, Note_on_c, 0, 84, 0
6, 425040, Note_on_c, 0, 82, 52
6, 425159, Note_on_c, 0, 82, 0
6, 425280, Note_on_c, 0, 84, 52
6, 425399, Note_on_c, 0, 84, 0
6, 425520, Note_on_c, 0, 82, 52
6, 425639, Note_on_c, 0, 82, 0
6, 427200, Note_on_c, 0, 84, 52
6, 427319, Note_on_c, 0, 84, 0
6, 427440, Note_on_c, 0, 82, 52
6, 427559, Note_on_c, 0, 82, 0
6, 427680, Note_on_c, 0, 84, 52
6, 427799, Note_on_c, 0, 84, 0
6, 427920, Note_on_c, 0, 82, 52
6, 428039, Note_on_c, 0, 82, 0
6, 428160, Note_on_c, 0, 84, 52
6, 428279, Note_on_c, 0, 84, 0
6, 428400, Note_on_c, 0, 82, 52
6, 428519, Note_on_c, 0, 82, 0
6, 428640, Note_on_c, 0, 87, 52
6, 428640, Note_on_c, 0, 84, 52
6, 428759, Note_on_c, 0, 87, 0
6, 428759, Note_on_c, 0, 84, 0
6, 428880, Note_on_c, 0, 87, 52
6, 428880, Note_on_c, 0, 82, 52
6, 428999, Note_on_c, 0, 87, 0
6, 428999, Note_on_c, 0, 82, 0
6, 429120, Note_on_c, 0, 87, 52
6, 429120, Note_on_c, 0, 84, 52
6, 429239, Note_on_c, 0, 87, 0
6, 429239, Note_on_c, 0, 84, 0
6, 429360, Note_on_c, 0, 87, 52
6, 429360, Note_on_c, 0, 82, 52
6, 429479, Note_on_c, 0, 87, 0
6, 429479, Note_on_c, 0, 82, 0
6, 429600, Note_on_c, 0, 87, 52
6, 429600, Note_on_c, 0, 84, 52
6, 429719, Note_on_c, 0, 87, 0
6, 429719, Note_on_c, 0, 84, 0
6, 429840, Note_on_c, 0, 87, 52
6, 429840, Note_on_c, 0, 82, 52
6, 429959, Note_on_c, 0, 87, 0
6, 429959, Note_on_c, 0, 82, 0
6, 435600, Note_on_c, 0, 87, 52
6, 435600, Note_on_c, 0, 82, 52
6, 435839, Note_on_c, 0, 87, 0
6, 435839, Note_on_c, 0, 82, 0
6, 436320, Note_on_c, 0, 87, 52
6, 436320, Note_on_c, 0, 84, 52
6, 436559, Note_on_c, 0, 87, 0
6, 436559, Note_on_c, 0, 84, 0
6, 437040, Note_on_c, 0, 89, 52
6, 437040, Note_on_c, 0, 84, 52
6, 437279, Note_on_c, 0, 89, 0
6, 437279, Note_on_c, 0, 84, 0
6, 437760, Note_on_c, 0, 86, 52
6, 437760, Note_on_c, 0, 80, 52
6, 437999, Note_on_c, 0, 86, 0
6, 437999, Note_on_c, 0, 80, 0
6, 438480, Note_on_c, 0, 91, 52
6, 438480, Note_on_c, 0, 86, 52
6, 438599, Note_on_c, 0, 91, 0
6, 438599, Note_on_c, 0, 86, 0
6, 439200, Note_on_c, 0, 87, 60
6, 439200, Note_on_c, 0, 82, 60
6, 439439, Note_on_c, 0, 87, 0
6, 439439, Note_on_c, 0, 82, 0
6, 439920, Note_on_c, 0, 87, 68
6, 439920, Note_on_c, 0, 84, 68
6, 440159, Note_on_c, 0, 87, 0
6, 440159, Note_on_c, 0, 84, 0
6, 440880, Note_on_c, 0, 82, 78
6, 441089, Note_on_c, 0, 82, 0
6, 441120, Note_on_c, 0, 82, 81
6, 441329, Note_on_c, 0, 82, 0
6, 441360, Note_on_c, 0, 82, 84
6, 441569, Note_on_c, 0, 82, 0
6, 441600, Note_on_c, 0, 86, 84
6, 441600, Note_on_c, 0, 82, 84
6, 441809, Note_on_c, 0, 86, 0
6, 441809, Note_on_c, 0, 82, 0
6, 441840, Note_on_c, 0, 86, 84
6, 441840, Note_on_c, 0, 82, 84
6, 442049, Note_on_c, 0, 86, 0
6, 442049, Note_on_c, 0, 82, 0
6, 442080, Note_on_c, 0, 86, 84
6, 442080, Note_on_c, 0, 82, 84
6, 442289, Note_on_c, 0, 86, 0
6, 442289, Note_on_c, 0, 82, 0
6, 442320, Note_on_c, 0, 89, 84
6, 442320, Note_on_c, 0, 82, 84
6, 442529, Note_on_c, 0, 89, 0
6, 442529, Note_on_c, 0, 82, 0
6, 442560, Note_on_c, 0, 89, 84
6, 442560, Note_on_c, 0, 82, 84
6, 442769, Note_on_c, 0, 89, 0
6, 442769, Note_on_c, 0, 82, 0
6, 442800, Note_on_c, 0, 89, 84
6, 442800, Note_on_c, 0, 82, 84
6, 443009, Note_on_c, 0, 89, 0
6, 443009, Note_on_c, 0, 82, 0
6, 443040, Note_on_c, 0, 92, 84
6, 443040, Note_on_c, 0, 82, 84
6, 443249, Note_on_c, 0, 92, 0
6, 443249, Note_on_c, 0, 82, 0
6, 443280, Note_on_c, 0, 92, 84
6, 443280, Note_on_c, 0, 82, 84
6, 443489, Note_on_c, 0, 92, 0
6, 443489, Note_on_c, 0, 82, 0
6, 443520, Note_on_c, 0, 92, 84
6, 443520, Note_on_c, 0, 82, 84
6, 443729, Note_on_c, 0, 92, 0
6, 443729, Note_on_c, 0, 82, 0
6, 443760, Note_on_c, 0, 91, 84
6, 443760, Note_on_c, 0, 82, 84
6, 443969, Note_on_c, 0, 91, 0
6, 443969, Note_on_c, 0, 82, 0
6, 444000, Note_on_c, 0, 89, 84
6, 444000, Note_on_c, 0, 82, 84
6, 444209, Note_on_c, 0, 89, 0
6, 444209, Note_on_c, 0, 82, 0
6, 444240, Note_on_c, 0, 87, 76
6, 444240, Note_on_c, 0, 82, 76
6, 444479, Note_on_c, 0, 87, 0
6, 444479, Note_on_c, 0, 82, 0
6, 444960, Note_on_c, 0, 89, 76
6, 444960, Note_on_c, 0, 86, 76
6, 445199, Note_on_c, 0, 89, 0
6, 445199, Note_on_c, 0, 86, 0
6, 449760, Control_c, 0, 11, 96
6, 450000, Note_on_c, 0, 85, 60
6, 450000, Control_c, 0, 11, 96
6, 450060, Control_c, 0, 11, 99
6, 450120, Control_c, 0, 11, 101
6, 450180, Control_c, 0, 11, 104
6, 450240, Control_c, 0, 11, 106
6, 450300, Control_c, 0, 11, 109
6, 450360, Control_c, 0, 11, 112
6, 450420, Control_c, 0, 11, 114
6, 450480, Control_c, 0, 11, 117
6, 450540, Control_c, 0, 11, 119
6, 450600, Control_c, 0, 11, 122
6, 450660, Control_c, 0, 11, 124
6, 450719, Note_on_c, 0, 85, 0
6, 450720, Note_on_c, 0, 86, 60
6, 450720, Control_c, 0, 11, 127
6, 450780, Control_c, 0, 11, 124
6, 450840, Control_c, 0, 11, 122
6, 450900, Control_c, 0, 11, 119
6, 450960, Control_c, 0, 11, 117
6, 451020, Control_c, 0, 11, 114
6, 451080, Control_c, 0, 11, 112
6, 451140, Control_c, 0, 11, 109
6, 451200, Control_c, 0, 11, 106
6, 451260, Control_c, 0, 11, 104
6, 451320, Control_c, 0, 11, 101
6, 451380, Control_c, 0, 11, 96
6, 451439, Note_on_c, 0, 86, 0
6, 451440, Note_on_c, 0, 87, 60
6, 451679, Note_on_c, 0, 87, 0
6, 452880, Control_c, 0, 11, 127
6, 454560, Note_on_c, 0, 86, 66
6, 454560, Note_on_c, 0, 77, 66
6, 454769, Note_on_c, 0, 86, 0
6, 454769, Note_on_c, 0, 77, 0
6, 454800, Note_on_c, 0, 87, 68
6, 454800, Note_on_c, 0, 79, 68
6, 455009, Note_on_c, 0, 87, 0
6, 455009, Note_on_c, 0, 79, 0
6, 455040, Note_on_c, 0, 86, 70
6, 455040, Note_on_c, 0, 77, 70
6, 455249, Note_on_c, 0, 86, 0
6, 455249, Note_on_c, 0, 77, 0
6, 455280, Note_on_c, 0, 87, 72
6, 455280, Note_on_c, 0, 79, 72
6, 455489, Note_on_c, 0, 87, 0
6, 455489, Note_on_c, 0, 79, 0
6, 455520, Note_on_c, 0, 86, 74
6, 455520, Note_on_c, 0, 77, 74
6, 455729, Note_on_c, 0, 86, 0
6, 455729, Note_on_c, 0, 77, 0
6, 455760, Note_on_c, 0, 87, 76
6, 455760, Note_on_c, 0, 79, 76
6, 455969, Note_on_c, 0, 87, 0
6, 455969, Note_on_c, 0, 79, 0
6, 456000, Note_on_c, 0, 89, 76
6, 456000, Note_on_c, 0, 86, 76
6, 456209, Note_on_c, 0, 89, 0
6, 456209, Note_on_c, 0, 86, 0
6, 456240, Note_on_c, 0, 91, 76
6, 456240, Note_on_c, 0, 87, 76
6, 456449, Note_on_c, 0, 91, 0
6, 456449, Note_on_c, 0, 87, 0
6, 456480, Note_on_c, 0, 89, 76
6, 456480, Note_on_c, 0, 86, 76
6, 456689, Note_on_c, 0, 89, 0
6, 456689, Note_on_c, 0, 86, 0
6, 456720, Note_on_c, 0, 91, 76
6, 456720, Note_on_c, 0, 87, 76
6, 456929, Note_on_c, 0, 91, 0
6, 456929, Note_on_c, 0, 87, 0
6, 456960, Note_on_c, 0, 89, 76
6, 456960, Note_on_c, 0, 86, 76
6, 457169, Note_on_c, 0, 89, 0
6, 457169, Note_on_c, 0, 86, 0
6, 457200, Note_on_c, 0, 91, 84
6, 457200, Note_on_c, 0, 87, 84
6, 457439, Note_on_c, 0, 91, 0
6, 457439, Note_on_c, 0, 87, 0
6, 457920, Note_on_c, 0, 89, 84
6, 457920, Note_on_c, 0, 86, 84
6, 458159, Note_on_c, 0, 89, 0
6, 458159, Note_on_c, 0, 86, 0
6, 458640, Note_on_c, 0, 87, 84
6, 458879, Note_on_c, 0, 87, 0
6, 458879, End_track
7, 0, Start_track
7, 0, Title_t, "Oboe"
7, 0, MIDI_port, 0
7, 0, Program_c, 1, 68
7, 0, Control_c, 1, 7, 80
7, 0, Control_c, 1, 10, 70
7, 0, Control_c, 1, 11, 127
7, 4560, Note_on_c, 1, 82, 44
7, 4679, Note_on_c, 1, 82, 0
7, 4800, Note_on_c, 1, 82, 44
7, 4919, Note_on_c, 1, 82, 0
7, 5040, Note_on_c, 1, 82, 44
7, 5159, Note_on_c, 1, 82, 0
7, 5280, Note_on_c, 1, 82, 44
7, 5399, Note_on_c, 1, 82, 0
7, 5520, Note_on_c, 1, 82, 44
7, 5639, Note_on_c, 1, 82, 0
7, 5760, Note_on_c, 1, 82, 44
7, 5879, Note_on_c, 1, 82, 0
7, 6000, Note_on_c, 1, 82, 44
7, 6239, Note_on_c, 1, 82, 0
7, 6240, Note_on_c, 1, 84, 44
7, 6359, Note_on_c, 1, 84, 0
7, 6360, Note_on_c, 1, 82, 44
7, 6479, Note_on_c, 1, 82, 0
7, 6480, Note_on_c, 1, 81, 44
7, 6599, Note_on_c, 1, 81, 0
7, 6600, Note_on_c, 1, 79, 44
7, 6689, Note_on_c, 1, 79, 0
7, 6720, Note_on_c, 1, 77, 44
7, 7409, Note_on_c, 1, 77, 0
7, 7440, Note_on_c, 1, 75, 44
7, 8129, Note_on_c, 1, 75, 0
7, 8160, Note_on_c, 1, 74, 44
7, 8399, Note_on_c, 1, 74, 0
7, 8400, Note_on_c, 1, 77, 44
7, 8609, Note_on_c, 1, 77, 0
7, 8640, Note_on_c, 1, 74, 44
7, 8759, Note_on_c, 1, 74, 0
7, 8880, Note_on_c, 1, 72, 44
7, 9119, Note_on_c, 1, 72, 0
7, 9120, Note_on_c, 1, 75, 44
7, 9329, Note_on_c, 1, 75, 0
7, 9360, Note_on_c, 1, 72, 44
7, 9479, Note_on_c, 1, 72, 0
7, 9600, Note_on_c, 1, 70, 44
7, 9839, Note_on_c, 1, 70, 0
7, 12960, Note_on_c, 1, 74, 44
7, 13079, Note_on_c, 1, 74, 0
7, 13200, Note_on_c, 1, 75, 44
7, 13319, Note_on_c, 1, 75, 0
7, 13440, Note_on_c, 1, 77, 44
7, 13559, Note_on_c, 1, 77, 0
7, 13680, Note_on_c, 1, 78, 44
7, 13799, Note_on_c, 1, 78, 0
7, 13920, Note_on_c, 1, 79, 44
7, 14039, Note_on_c, 1, 79, 0
7, 14160, Note_on_c, 1, 80, 44
7, 14279, Note_on_c, 1, 80, 0
7, 14400, Note_on_c, 1, 81, 44
7, 14519, Note_on_c, 1, 81, 0
7, 14640, Note_on_c, 1, 82, 44
7, 14759, Note_on_c, 1, 82, 0
7, 14880, Note_on_c, 1, 82, 44
7, 14999, Note_on_c, 1, 82, 0
7, 15120, Note_on_c, 1, 82, 44
7, 15239, Note_on_c, 1, 82, 0
7, 15360, Note_on_c, 1, 82, 44
7, 15479, Note_on_c, 1, 82, 0
7, 15600, Note_on_c, 1, 82, 44
7, 15719, Note_on_c, 1, 82, 0
7, 15840, Note_on_c, 1, 82, 44
7, 15959, Note_on_c, 1, 82, 0
7, 16080, Note_on_c, 1, 82, 44
7, 16319, Note_on_c, 1, 82, 0
7, 16320, Note_on_c, 1, 84, 44
7, 16439, Note_on_c, 1, 84, 0
7, 16440, Note_on_c, 1, 82, 44
7, 16559, Note_on_c, 1, 82, 0
7, 16560, Note_on_c, 1, 81, 44
7, 16679, Note_on_c, 1, 81, 0
7, 16680, Note_on_c, 1, 79, 44
7, 16769, Note_on_c, 1, 79, 0
7, 16800, Note_on_c, 1, 77, 44
7, 17489, Note_on_c, 1, 77, 0
7, 17520, Note_on_c, 1, 75, 44
7, 18209, Note_on_c, 1, 75, 0
7, 18240, Note_on_c, 1, 74, 44
7, 18479, Note_on_c, 1, 74, 0
7, 18480, Note_on_c, 1, 77, 44
7, 18689, Note_on_c, 1, 77, 0
7, 18720, Note_on_c, 1, 74, 44
7, 18839, Note_on_c, 1, 74, 0
7, 18960, Note_on_c, 1, 72, 44
7, 19199, Note_on_c, 1, 72, 0
7, 19200, Note_on_c, 1, 75, 44
7, 19409, Note_on_c, 1, 75, 0
7, 19440, Note_on_c, 1, 72, 44
7, 19559, Note_on_c, 1, 72, 0
7, 19680, Note_on_c, 1, 70, 44
7, 19919, Note_on_c, 1, 70, 0
7, 36960, Note_on_c, 1, 72, 60
7, 37649, Note_on_c, 1, 72, 0
7, 37680, Note_on_c, 1, 74, 52
7, 37919, Note_on_c, 1, 74, 0
7, 39840, Note_on_c, 1, 74, 60
7, 40529, Note_on_c, 1, 74, 0
7, 40560, Note_on_c, 1, 74, 44
7, 40799, Note_on_c, 1, 74, 0
7, 41040, Note_on_c, 1, 74, 44
7, 41040, Note_on_c, 1, 78, 44
7, 41159, Note_on_c, 1, 74, 0
7, 41159, Note_on_c, 1, 78, 0
7, 41280, Note_on_c, 1, 79, 44
7, 41280, Note_on_c, 1, 74, 44
7, 41399, Note_on_c, 1, 79, 0
7, 41399, Note_on_c, 1, 74, 0
7, 41520, Note_on_c, 1, 82, 44
7, 41520, Note_on_c, 1, 74, 44
7, 41639, Note_on_c, 1, 82, 0
7, 41639, Note_on_c, 1, 74, 0
7, 41760, Note_on_c, 1, 79, 44
7, 41760, Note_on_c, 1, 67, 44
7, 41879, Note_on_c, 1, 79, 0
7, 41879, Note_on_c, 1, 67, 0
7, 42000, Note_on_c, 1, 74, 44
7, 42000, Note_on_c, 1, 78, 44
7, 42239, Note_on_c, 1, 74, 0
7, 42239, Note_on_c, 1, 78, 0
7, 42480, Note_on_c, 1, 81, 44
7, 42480, Note_on_c, 1, 72, 44
7, 42599, Note_on_c, 1, 81, 0
7, 42599, Note_on_c, 1, 72, 0
7, 42720, Note_on_c, 1, 70, 44
7, 42720, Note_on_c, 1, 79, 44
7, 42839, Note_on_c, 1, 70, 0
7, 42839, Note_on_c, 1, 79, 0
7, 42960, Note_on_c, 1, 70, 44
7, 42960, Note_on_c, 1, 79, 44
7, 43079, Note_on_c, 1, 70, 0
7, 43079, Note_on_c, 1, 79, 0
7, 43200, Note_on_c, 1, 73, 44
7, 43200, Note_on_c, 1, 79, 44
7, 43319, Note_on_c, 1, 73, 0
7, 43319, Note_on_c, 1, 79, 0
7, 43440, Note_on_c, 1, 74, 44
7, 43440, Note_on_c, 1, 78, 44
7, 43559, Note_on_c, 1, 74, 0
7, 43559, Note_on_c, 1, 78, 0
7, 57600, Note_on_c, 1, 72, 52
7, 57719, Note_on_c, 1, 72, 0
7, 57840, Note_on_c, 1, 70, 52
7, 57959, Note_on_c, 1, 70, 0
7, 58080, Note_on_c, 1, 72, 52
7, 58199, Note_on_c, 1, 72, 0
7, 58320, Note_on_c, 1, 70, 52
7, 58439, Note_on_c, 1, 70, 0
7, 58560, Note_on_c, 1, 72, 52
7, 58679, Note_on_c, 1, 72, 0
7, 58800, Note_on_c, 1, 70, 52
7, 58919, Note_on_c, 1, 70, 0
7, 59040, Note_on_c, 1, 74, 52
7, 59159, Note_on_c, 1, 74, 0
7, 59280, Note_on_c, 1, 75, 52
7, 59399, Note_on_c, 1, 75, 0
7, 59520, Note_on_c, 1, 77, 52
7, 59520, Note_on_c, 1, 70, 52
7, 59639, Note_on_c, 1, 77, 0
7, 59639, Note_on_c, 1, 70, 0
7, 59760, Note_on_c, 1, 78, 52
7, 59760, Note_on_c, 1, 70, 52
7, 59879, Note_on_c, 1, 78, 0
7, 59879, Note_on_c, 1, 70, 0
7, 60000, Note_on_c, 1, 70, 52
7, 60000, Note_on_c, 1, 79, 52
7, 60119, Note_on_c, 1, 70, 0
7, 60119, Note_on_c, 1, 79, 0
7, 60240, Note_on_c, 1, 80, 52
7, 60240, Note_on_c, 1, 77, 52
7, 60359, Note_on_c, 1, 80, 0
7, 60359, Note_on_c, 1, 77, 0
7, 60480, Note_on_c, 1, 81, 52
7, 60480, Note_on_c, 1, 75, 52
7, 60599, Note_on_c, 1, 81, 0
7, 60599, Note_on_c, 1, 75, 0
7, 60720, Note_on_c, 1, 74, 52
7, 60720, Note_on_c, 1, 82, 52
7, 60839, Note_on_c, 1, 74, 0
7, 60839, Note_on_c, 1, 82, 0
7, 60960, Note_on_c, 1, 77, 52
7, 60960, Note_on_c, 1, 82, 52
7, 61079, Note_on_c, 1, 77, 0
7, 61079, Note_on_c, 1, 82, 0
7, 61200, Note_on_c, 1, 75, 52
7, 61200, Note_on_c, 1, 82, 52
7, 61319, Note_on_c, 1, 75, 0
7, 61319, Note_on_c, 1, 82, 0
7, 61440, Note_on_c, 1, 82, 52
7, 61440, Note_on_c, 1, 74, 52
7, 61559, Note_on_c, 1, 82, 0
7, 61559, Note_on_c, 1, 74, 0
7, 61680, Note_on_c, 1, 77, 52
7, 61680, Note_on_c, 1, 82, 52
7, 61799, Note_on_c, 1, 77, 0
7, 61799, Note_on_c, 1, 82, 0
7, 61920, Note_on_c, 1, 75, 52
7, 61920, Note_on_c, 1, 82, 52
7, 62039, Note_on_c, 1, 75, 0
7, 62039, Note_on_c, 1, 82, 0
7, 62160, Note_on_c, 1, 82, 52
7, 62160, Note_on_c, 1, 74, 52
7, 62369, Note_on_c, 1, 74, 0
7, 62399, Note_on_c, 1, 82, 0
7, 62400, Note_on_c, 1, 84, 52
7, 62400, Note_on_c, 1, 74, 52
7, 62519, Note_on_c, 1, 84, 0
7, 62520, Note_on_c, 1, 82, 52
7, 62609, Note_on_c, 1, 74, 0
7, 62609, Note_on_c, 1, 82, 0
7, 62640, Note_on_c, 1, 75, 52
7, 62640, Note_on_c, 1, 81, 52
7, 62759, Note_on_c, 1, 81, 0
7, 62760, Note_on_c, 1, 79, 52
7, 62849, Note_on_c, 1, 75, 0
7, 62879, Note_on_c, 1, 79, 0
7, 62880, Note_on_c, 1, 77, 52
7, 63120, Note_on_c, 1, 72, 52
7, 63329, Note_on_c, 1, 72, 0
7, 63360, Note_on_c, 1, 74, 52
7, 63569, Note_on_c, 1, 77, 0
7, 63569, Note_on_c, 1, 74, 0
7, 63600, Note_on_c, 1, 75, 52
7, 63840, Note_on_c, 1, 70, 52
7, 64049, Note_on_c, 1, 70, 0
7, 64080, Note_on_c, 1, 72, 52
7, 64289, Note_on_c, 1, 75, 0
7, 64289, Note_on_c, 1, 72, 0
7, 64320, Note_on_c, 1, 74, 52
7, 64559, Note_on_c, 1, 74, 0
7, 64560, Note_on_c, 1, 77, 52
7, 64769, Note_on_c, 1, 77, 0
7, 64800, Note_on_c, 1, 74, 52
7, 64919, Note_on_c, 1, 74, 0
7, 65040, Note_on_c, 1, 72, 52
7, 65279, Note_on_c, 1, 72, 0
7, 65280, Note_on_c, 1, 75, 52
7, 65489, Note_on_c, 1, 75, 0
7, 65520, Note_on_c, 1, 72, 52
7, 65639, Note_on_c, 1, 72, 0
7, 65760, Note_on_c, 1, 70, 52
7, 65879, Note_on_c, 1, 70, 0
7, 66000, Note_on_c, 1, 72, 62
7, 66119, Note_on_c, 1, 72, 0
7, 66240, Note_on_c, 1, 74, 73
7, 66359, Note_on_c, 1, 74, 0
7, 66480, Note_on_c, 1, 75, 84
7, 66689, Note_on_c, 1, 75, 0
7, 66720, Note_on_c, 1, 75, 84
7, 66929, Note_on_c, 1, 75, 0
7, 66960, Note_on_c, 1, 75, 84
7, 67169, Note_on_c, 1, 75, 0
7, 67200, Note_on_c, 1, 75, 84
7, 67409, Note_on_c, 1, 75, 0
7, 67440, Note_on_c, 1, 75, 84
7, 67649, Note_on_c, 1, 75, 0
7, 67680, Note_on_c, 1, 75, 84
7, 67889, Note_on_c, 1, 75, 0
7, 67920, Note_on_c, 1, 75, 84
7, 68159, Note_on_c, 1, 75, 0
7, 68160, Note_on_c, 1, 77, 84
7, 68279, Note_on_c, 1, 77, 0
7, 68280, Note_on_c, 1, 75, 84
7, 68399, Note_on_c, 1, 75, 0
7, 68400, Note_on_c, 1, 74, 84
7, 68519, Note_on_c, 1, 74, 0
7, 68520, Note_on_c, 1, 72, 84
7, 68609, Note_on_c, 1, 72, 0
7, 68640, Note_on_c, 1, 70, 84
7, 69329, Note_on_c, 1, 70, 0
7, 69360, Note_on_c, 1, 80, 92
7, 70049, Note_on_c, 1, 80, 0
7, 70080, Note_on_c, 1, 79, 84
7, 70319, Note_on_c, 1, 79, 0
7, 70320, Note_on_c, 1, 82, 84
7, 70529, Note_on_c, 1, 82, 0
7, 70560, Note_on_c, 1, 79, 84
7, 70679, Note_on_c, 1, 79, 0
7, 70800, Note_on_c, 1, 77, 84
7, 71039, Note_on_c, 1, 77, 0
7, 71040, Note_on_c, 1, 82, 84
7, 71249, Note_on_c, 1, 82, 0
7, 71280, Note_on_c, 1, 77, 84
7, 71399, Note_on_c, 1, 77, 0
7, 71520, Note_on_c, 1, 75, 84
7, 71639, Note_on_c, 1, 75, 0
7, 71760, Note_on_c, 1, 79, 84
7, 71879, Note_on_c, 1, 79, 0
7, 72000, Note_on_c, 1, 82, 84
7, 72119, Note_on_c, 1, 82, 0
7, 72240, Note_on_c, 1, 80, 92
7, 72929, Note_on_c, 1, 80, 0
7, 72960, Note_on_c, 1, 79, 84
7, 73199, Note_on_c, 1, 79, 0
7, 73200, Note_on_c, 1, 82, 84
7, 73409, Note_on_c, 1, 82, 0
7, 73440, Note_on_c, 1, 79, 84
7, 73559, Note_on_c, 1, 79, 0
7, 73680, Note_on_c, 1, 77, 84
7, 73919, Note_on_c, 1, 77, 0
7, 73920, Note_on_c, 1, 82, 84
7, 74129, Note_on_c, 1, 82, 0
7, 74160, Note_on_c, 1, 77, 84
7, 74279, Note_on_c, 1, 77, 0
7, 74400, Note_on_c, 1, 75, 84
7, 74519, Note_on_c, 1, 75, 0
7, 74640, Note_on_c, 1, 79, 84
7, 74759, Note_on_c, 1, 79, 0
7, 74880, Note_on_c, 1, 82, 84
7, 74999, Note_on_c, 1, 82, 0
7, 75120, Note_on_c, 1, 80, 92
7, 75809, Note_on_c, 1, 80, 0
7, 75840, Note_on_c, 1, 80, 84
7, 76529, Note_on_c, 1, 80, 0
7, 76560, Note_on_c, 1, 79, 84
7, 77249, Note_on_c, 1, 79, 0
7, 77280, Note_on_c, 1, 80, 84
7, 77969, Note_on_c, 1, 80, 0
7, 78000, Note_on_c, 1, 79, 92
7, 78689, Note_on_c, 1, 79, 0
7, 78720, Note_on_c, 1, 80, 84
7, 78839, Note_on_c, 1, 80, 0
7, 78960, Note_on_c, 1, 75, 84
7, 78960, Note_on_c, 1, 84, 84
7, 79079, Note_on_c, 1, 75, 0
7, 79079, Note_on_c, 1, 84, 0
7, 79200, Note_on_c, 1, 75, 84
7, 79200, Note_on_c, 1, 84, 84
7, 79319, Note_on_c, 1, 75, 0
7, 79319, Note_on_c, 1, 84, 0
7, 79440, Note_on_c, 1, 82, 84
7, 79440, Note_on_c, 1, 75, 84
7, 79559, Note_on_c, 1, 82, 0
7, 79559, Note_on_c, 1, 75, 0
7, 79680, Note_on_c, 1, 75, 84
7, 79680, Note_on_c, 1, 82, 84
7, 79799, Note_on_c, 1, 75, 0
7, 79799, Note_on_c, 1, 82, 0
7, 79920, Note_on_c, 1, 82, 84
7, 79920, Note_on_c, 1, 75, 84
7, 80039, Note_on_c, 1, 82, 0
7, 80039, Note_on_c, 1, 75, 0
7, 80160, Note_on_c, 1, 72, 84
7, 80160, Note_on_c, 1, 80, 84
7, 80279, Note_on_c, 1, 72, 0
7, 80279, Note_on_c, 1, 80, 0
7, 80400, Note_on_c, 1, 80, 84
7, 80400, Note_on_c, 1, 72, 84
7, 80519, Note_on_c, 1, 80, 0
7, 80519, Note_on_c, 1, 72, 0
7, 80640, Note_on_c, 1, 72, 84
7, 80640, Note_on_c, 1, 80, 84
7, 80759, Note_on_c, 1, 72, 0
7, 80759, Note_on_c, 1, 80, 0
7, 80880, Note_on_c, 1, 79, 84
7, 80880, Note_on_c, 1, 70, 84
7, 80999, Note_on_c, 1, 79, 0
7, 80999, Note_on_c, 1, 70, 0
7, 81120, Note_on_c, 1, 75, 84
7, 81120, Note_on_c, 1, 79, 84
7, 81239, Note_on_c, 1, 75, 0
7, 81239, Note_on_c, 1, 79, 0
7, 81360, Note_on_c, 1, 79, 84
7, 81360, Note_on_c, 1, 75, 84
7, 81479, Note_on_c, 1, 79, 0
7, 81479, Note_on_c, 1, 75, 0
7, 81600, Note_on_c, 1, 77, 84
7, 81600, Note_on_c, 1, 80, 84
7, 81719, Note_on_c, 1, 77, 0
7, 81719, Note_on_c, 1, 80, 0
7, 81840, Note_on_c, 1, 77, 84
7, 81840, Note_on_c, 1, 80, 84
7, 81959, Note_on_c, 1, 77, 0
7, 81959, Note_on_c, 1, 80, 0
7, 82080, Note_on_c, 1, 80, 84
7, 82080, Note_on_c, 1, 77, 84
7, 82199, Note_on_c, 1, 80, 0
7, 82199, Note_on_c, 1, 77, 0
7, 82320, Note_on_c, 1, 79, 84
7, 82320, Note_on_c, 1, 75, 84
7, 82559, Note_on_c, 1, 79, 0
7, 82559, Note_on_c, 1, 75, 0
7, 85440, Note_on_c, 1, 70, 52
7, 85440, Note_on_c, 1, 75, 52
7, 85649, Note_on_c, 1, 70, 0
7, 85649, Note_on_c, 1, 75, 0
7, 85680, Note_on_c, 1, 70, 52
7, 85680, Note_on_c, 1, 75, 52
7, 85889, Note_on_c, 1, 70, 0
7, 85889, Note_on_c, 1, 75, 0
7, 85920, Note_on_c, 1, 77, 52
7, 85920, Note_on_c, 1, 75, 52
7, 86129, Note_on_c, 1, 77, 0
7, 86129, Note_on_c, 1, 75, 0
7, 86160, Note_on_c, 1, 75, 52
7, 86160, Note_on_c, 1, 77, 52
7, 86369, Note_on_c, 1, 75, 0
7, 86369, Note_on_c, 1, 77, 0
7, 86400, Note_on_c, 1, 75, 52
7, 86400, Note_on_c, 1, 78, 52
7, 86609, Note_on_c, 1, 75, 0
7, 86609, Note_on_c, 1, 78, 0
7, 86640, Note_on_c, 1, 79, 52
7, 86640, Note_on_c, 1, 75, 52
7, 86849, Note_on_c, 1, 79, 0
7, 86849, Note_on_c, 1, 75, 0
7, 86880, Note_on_c, 1, 79, 52
7, 86880, Note_on_c, 1, 75, 52
7, 87089, Note_on_c, 1, 79, 0
7, 87089, Note_on_c, 1, 75, 0
7, 87120, Note_on_c, 1, 79, 52
7, 87120, Note_on_c, 1, 75, 52
7, 87329, Note_on_c, 1, 79, 0
7, 87329, Note_on_c, 1, 75, 0
7, 87360, Note_on_c, 1, 80, 52
7, 87360, Note_on_c, 1, 74, 52
7, 87569, Note_on_c, 1, 80, 0
7, 87569, Note_on_c, 1, 74, 0
7, 87600, Note_on_c, 1, 74, 52
7, 87600, Note_on_c, 1, 80, 52
7, 87809, Note_on_c, 1, 74, 0
7, 87809, Note_on_c, 1, 80, 0
7, 87840, Note_on_c, 1, 80, 52
7, 87840, Note_on_c, 1, 74, 52
7, 88049, Note_on_c, 1, 80, 0
7, 88049, Note_on_c, 1, 74, 0
7, 88080, Note_on_c, 1, 79, 76
7, 88080, Note_on_c, 1, 75, 76
7, 88199, Note_on_c, 1, 79, 0
7, 88199, Note_on_c, 1, 75, 0
7, 88320, Note_on_c, 1, 79, 84
7, 88769, Note_on_c, 1, 79, 0
7, 88800, Note_on_c, 1, 75, 76
7, 89009, Note_on_c, 1, 75, 0
7, 89040, Note_on_c, 1, 70, 84
7, 89489, Note_on_c, 1, 70, 0
7, 89520, Note_on_c, 1, 67, 76
7, 89729, Note_on_c, 1, 67, 0
7, 89760, Note_on_c, 1, 75, 84
7, 90209, Note_on_c, 1, 75, 0
7, 90240, Note_on_c, 1, 70, 76
7, 90479, Note_on_c, 1, 70, 0
7, 91200, Note_on_c, 1, 77, 52
7, 91319, Note_on_c, 1, 77, 0
7, 91440, Note_on_c, 1, 75, 52
7, 91559, Note_on_c, 1, 75, 0
7, 91680, Note_on_c, 1, 77, 52
7, 91799, Note_on_c, 1, 77, 0
7, 91920, Note_on_c, 1, 75, 52
7, 92039, Note_on_c, 1, 75, 0
7, 92160, Note_on_c, 1, 77, 52
7, 92279, Note_on_c, 1, 77, 0
7, 92400, Note_on_c, 1, 75, 52
7, 92639, Note_on_c, 1, 75, 0
7, 94080, Note_on_c, 1, 75, 52
7, 94199, Note_on_c, 1, 75, 0
7, 94320, Note_on_c, 1, 74, 52
7, 94439, Note_on_c, 1, 74, 0
7, 94560, Note_on_c, 1, 75, 52
7, 94679, Note_on_c, 1, 75, 0
7, 94800, Note_on_c, 1, 74, 52
7, 94919, Note_on_c, 1, 74, 0
7, 95040, Note_on_c, 1, 75, 52
7, 95159, Note_on_c, 1, 75, 0
7, 95280, Note_on_c, 1, 74, 52
7, 95399, Note_on_c, 1, 74, 0
7, 96960, Note_on_c, 1, 80, 52
7, 97079, Note_on_c, 1, 80, 0
7, 97200, Note_on_c, 1, 79, 52
7, 97319, Note_on_c, 1, 79, 0
7, 97440, Note_on_c, 1, 80, 52
7, 97559, Note_on_c, 1, 80, 0
7, 97680, Note_on_c, 1, 79, 52
7, 97799, Note_on_c, 1, 79, 0
7, 97920, Note_on_c, 1, 80, 52
7, 98039, Note_on_c, 1, 80, 0
7, 98160, Note_on_c, 1, 79, 52
7, 98279, Note_on_c, 1, 79, 0
7, 99840, Note_on_c, 1, 80, 52
7, 99959, Note_on_c, 1, 80, 0
7, 100080, Note_on_c, 1, 79, 52
7, 100199, Note_on_c, 1, 79, 0
7, 100320, Note_on_c, 1, 80, 52
7, 100439, Note_on_c, 1, 80, 0
7, 100560, Note_on_c, 1, 79, 52
7, 100679, Note_on_c, 1, 79, 0
7, 100800, Note_on_c, 1, 80, 52
7, 100919, Note_on_c, 1, 80, 0
7, 101040, Note_on_c, 1, 79, 52
7, 101159, Note_on_c, 1, 79, 0
7, 101280, Note_on_c, 1, 72, 52
7, 101280, Note_on_c, 1, 80, 52
7, 101399, Note_on_c, 1, 72, 0
7, 101399, Note_on_c, 1, 80, 0
7, 101520, Note_on_c, 1, 79, 52
7, 101520, Note_on_c, 1, 70, 52
7, 101639, Note_on_c, 1, 79, 0
7, 101639, Note_on_c, 1, 70, 0
7, 101760, Note_on_c, 1, 72, 52
7, 101760, Note_on_c, 1, 80, 52
7, 101879, Note_on_c, 1, 72, 0
7, 101879, Note_on_c, 1, 80, 0
7, 102000, Note_on_c, 1, 79, 52
7, 102000, Note_on_c, 1, 70, 52
7, 102119, Note_on_c, 1, 79, 0
7, 102119, Note_on_c, 1, 70, 0
7, 102240, Note_on_c, 1, 80, 52
7, 102240, Note_on_c, 1, 72, 52
7, 102359, Note_on_c, 1, 80, 0
7, 102359, Note_on_c, 1, 72, 0
7, 102480, Note_on_c, 1, 70, 52
7, 102480, Note_on_c, 1, 79, 52
7, 102599, Note_on_c, 1, 70, 0
7, 102599, Note_on_c, 1, 79, 0
7, 108240, Note_on_c, 1, 79, 52
7, 108240, Note_on_c, 1, 75, 52
7, 108479, Note_on_c, 1, 79, 0
7, 108479, Note_on_c, 1, 75, 0
7, 108960, Note_on_c, 1, 75, 52
7, 108960, Note_on_c, 1, 79, 52
7, 109199, Note_on_c, 1, 75, 0
7, 109199, Note_on_c, 1, 79, 0
7, 109680, Note_on_c, 1, 72, 52
7, 109680, Note_on_c, 1, 77, 52
7, 109799, Note_on_c, 1, 72, 0
7, 109799, Note_on_c, 1, 77, 0
7, 109920, Note_on_c, 1, 72, 52
7, 110039, Note_on_c, 1, 72, 0
7, 110160, Note_on_c, 1, 73, 52
7, 110279, Note_on_c, 1, 73, 0
7, 110400, Note_on_c, 1, 68, 52
7, 110400, Note_on_c, 1, 74, 52
7, 110519, Note_on_c, 1, 68, 0
7, 110519, Note_on_c, 1, 74, 0
7, 110640, Note_on_c, 1, 76, 52
7, 110759, Note_on_c, 1, 76, 0
7, 110880, Note_on_c, 1, 77, 52
7, 110999, Note_on_c, 1, 77, 0
7, 111120, Note_on_c, 1, 74, 52
7, 111120, Note_on_c, 1, 79, 52
7, 111239, Note_on_c, 1, 74, 0
7, 111239, Note_on_c, 1, 79, 0
7, 113520, Note_on_c, 1, 80, 78
7, 113520, Note_on_c, 1, 70, 78
7, 113729, Note_on_c, 1, 80, 0
7, 113729, Note_on_c, 1, 70, 0
7, 113760, Note_on_c, 1, 80, 81
7, 113760, Note_on_c, 1, 70, 81
7, 113969, Note_on_c, 1, 80, 0
7, 113969, Note_on_c, 1, 70, 0
7, 114000, Note_on_c, 1, 80, 84
7, 114000, Note_on_c, 1, 70, 84
7, 114209, Note_on_c, 1, 80, 0
7, 114209, Note_on_c, 1, 70, 0
7, 114240, Note_on_c, 1, 74, 84
7, 114240, Note_on_c, 1, 70, 84
7, 114449, Note_on_c, 1, 74, 0
7, 114449, Note_on_c, 1, 70, 0
7, 114480, Note_on_c, 1, 70, 84
7, 114480, Note_on_c, 1, 74, 84
7, 114689, Note_on_c, 1, 70, 0
7, 114689, Note_on_c, 1, 74, 0
7, 114720, Note_on_c, 1, 70, 84
7, 114720, Note_on_c, 1, 74, 84
7, 114929, Note_on_c, 1, 70, 0
7, 114929, Note_on_c, 1, 74, 0
7, 114960, Note_on_c, 1, 70, 84
7, 114960, Note_on_c, 1, 77, 84
7, 115169, Note_on_c, 1, 70, 0
7, 115169, Note_on_c, 1, 77, 0
7, 115200, Note_on_c, 1, 70, 84
7, 115200, Note_on_c, 1, 77, 84
7, 115409, Note_on_c, 1, 70, 0
7, 115409, Note_on_c, 1, 77, 0
7, 115440, Note_on_c, 1, 77, 84
7, 115440, Note_on_c, 1, 70, 84
7, 115649, Note_on_c, 1, 77, 0
7, 115649, Note_on_c, 1, 70, 0
7, 115680, Note_on_c, 1, 77, 84
7, 115680, Note_on_c, 1, 80, 84
7, 115889, Note_on_c, 1, 77, 0
7, 115889, Note_on_c, 1, 80, 0
7, 115920, Note_on_c, 1, 80, 84
7, 115920, Note_on_c, 1, 77, 84
7, 116129, Note_on_c, 1, 80, 0
7, 116129, Note_on_c, 1, 77, 0
7, 116160, Note_on_c, 1, 77, 84
7, 116160, Note_on_c, 1, 80, 84
7, 116369, Note_on_c, 1, 77, 0
7, 116369, Note_on_c, 1, 80, 0
7, 116400, Note_on_c, 1, 79, 84
7, 116400, Note_on_c, 1, 75, 84
7, 116609, Note_on_c, 1, 79, 0
7, 116609, Note_on_c, 1, 75, 0
7, 116640, Note_on_c, 1, 70, 84
7, 116640, Note_on_c, 1, 77, 84
7, 116849, Note_on_c, 1, 70, 0
7, 116849, Note_on_c, 1, 77, 0
7, 116880, Note_on_c, 1, 67, 76
7, 116880, Note_on_c, 1, 75, 76
7, 117119, Note_on_c, 1, 67, 0
7, 117119, Note_on_c, 1, 75, 0
7, 117600, Note_on_c, 1, 74, 76
7, 117600, Note_on_c, 1, 77, 76
7, 117839, Note_on_c, 1, 74, 0
7, 117839, Note_on_c, 1, 77, 0
7, 118320, Note_on_c, 1, 77, 76
7, 118320, Note_on_c, 1, 80, 76
7, 118559, Note_on_c, 1, 77, 0
7, 118559, Note_on_c, 1, 80, 0
7, 134880, Note_on_c, 1, 72, 60
7, 135569, Note_on_c, 1, 72, 0
7, 135600, Note_on_c, 1, 74, 52
7, 135839, Note_on_c, 1, 74, 0
7, 137760, Note_on_c, 1, 74, 60
7, 138449, Note_on_c, 1, 74, 0
7, 138480, Note_on_c, 1, 74, 44
7, 138719, Note_on_c, 1, 74, 0
7, 138960, Note_on_c, 1, 74, 44
7, 138960, Note_on_c, 1, 78, 44
7, 139079, Note_on_c, 1, 74, 0
7, 139079, Note_on_c, 1, 78, 0
7, 139200, Note_on_c, 1, 74, 44
7, 139200, Note_on_c, 1, 79, 44
7, 139319, Note_on_c, 1, 74, 0
7, 139319, Note_on_c, 1, 79, 0
7, 139440, Note_on_c, 1, 82, 44
7, 139440, Note_on_c, 1, 74, 44
7, 139559, Note_on_c, 1, 82, 0
7, 139559, Note_on_c, 1, 74, 0
7, 139680, Note_on_c, 1, 67, 44
7, 139680, Note_on_c, 1, 79, 44
7, 139799, Note_on_c, 1, 67, 0
7, 139799, Note_on_c, 1, 79, 0
7, 139920, Note_on_c, 1, 74, 44
7, 139920, Note_on_c, 1, 78, 44
7, 140159, Note_on_c, 1, 74, 0
7, 140159, Note_on_c, 1, 78, 0
7, 140400, Note_on_c, 1, 72, 44
7, 140400, Note_on_c, 1, 81, 44
7, 140519, Note_on_c, 1, 72, 0
7, 140519, Note_on_c, 1, 81, 0
7, 140640, Note_on_c, 1, 79, 44
7, 140640, Note_on_c, 1, 70, 44
7, 140759, Note_on_c, 1, 79, 0
7, 140759, Note_on_c, 1, 70, 0
7, 140880, Note_on_c, 1, 70, 44
7, 140880, Note_on_c, 1, 79, 44
7, 140999, Note_on_c, 1, 70, 0
7, 140999, Note_on_c, 1, 79, 0
7, 141120, Note_on_c, 1, 79, 44
7, 141120, Note_on_c, 1, 73, 44
7, 141239, Note_on_c, 1, 79, 0
7, 141239, Note_on_c, 1, 73, 0
7, 141360, Note_on_c, 1, 74, 44
7, 141360, Note_on_c, 1, 78, 44
7, 141479, Note_on_c, 1, 74, 0
7, 141479, Note_on_c, 1, 78, 0
7, 155520, Note_on_c, 1, 72, 52
7, 155639, Note_on_c, 1, 72, 0
7, 155760, Note_on_c, 1, 70, 52
7, 155879, Note_on_c, 1, 70, 0
7, 156000, Note_on_c, 1, 72, 52
7, 156119, Note_on_c, 1, 72, 0
7, 156240, Note_on_c, 1, 70, 52
7, 156359, Note_on_c, 1, 70, 0
7, 156480, Note_on_c, 1, 72, 52
7, 156599, Note_on_c, 1, 72, 0
7, 156720, Note_on_c, 1, 70, 52
7, 156839, Note_on_c, 1, 70, 0
7, 156960, Note_on_c, 1, 74, 52
7, 157079, Note_on_c, 1, 74, 0
7, 157200, Note_on_c, 1, 75, 52
7, 157319, Note_on_c, 1, 75, 0
7, 157440, Note_on_c, 1, 77, 52
7, 157440, Note_on_c, 1, 70, 52
7, 157559, Note_on_c, 1, 77, 0
7, 157559, Note_on_c, 1, 70, 0
7, 157680, Note_on_c, 1, 70, 52
7, 157680, Note_on_c, 1, 78, 52
7, 157799, Note_on_c, 1, 70, 0
7, 157799, Note_on_c, 1, 78, 0
7, 157920, Note_on_c, 1, 70, 52
7, 157920, Note_on_c, 1, 79, 52
7, 158039, Note_on_c, 1, 70, 0
7, 158039, Note_on_c, 1, 79, 0
7, 158160, Note_on_c, 1, 80, 52
7, 158160, Note_on_c, 1, 77, 52
7, 158279, Note_on_c, 1, 80, 0
7, 158279, Note_on_c, 1, 77, 0
7, 158400, Note_on_c, 1, 81, 52
7, 158400, Note_on_c, 1, 75, 52
7, 158519, Note_on_c, 1, 81, 0
7, 158519, Note_on_c, 1, 75, 0
7, 158640, Note_on_c, 1, 74, 52
7, 158640, Note_on_c, 1, 82, 52
7, 158759, Note_on_c, 1, 74, 0
7, 158759, Note_on_c, 1, 82, 0
7, 158880, Note_on_c, 1, 82, 52
7, 158880, Note_on_c, 1, 77, 52
7, 158999, Note_on_c, 1, 82, 0
7, 158999, Note_on_c, 1, 77, 0
7, 159120, Note_on_c, 1, 75, 52
7, 159120, Note_on_c, 1, 82, 52
7, 159239, Note_on_c, 1, 75, 0
7, 159239, Note_on_c, 1, 82, 0
7, 159360, Note_on_c, 1, 82, 52
7, 159360, Note_on_c, 1, 74, 52
7, 159479, Note_on_c, 1, 82, 0
7, 159479, Note_on_c, 1, 74, 0
7, 159600, Note_on_c, 1, 77, 52
7, 159600, Note_on_c, 1, 82, 52
7, 159719, Note_on_c, 1, 77, 0
7, 159719, Note_on_c, 1, 82, 0
7, 159840, Note_on_c, 1, 82, 52
7, 159840, Note_on_c, 1, 75, 52
7, 159959, Note_on_c, 1, 82, 0
7, 159959, Note_on_c, 1, 75, 0
7, 160080, Note_on_c, 1, 82, 52
7, 160080, Note_on_c, 1, 74, 52
7, 160289, Note_on_c, 1, 74, 0
7, 160319, Note_on_c, 1, 82, 0
7, 160320, Note_on_c, 1, 84, 52
7, 160320, Note_on_c, 1, 74, 52
7, 160439, Note_on_c, 1, 84, 0
7, 160440, Note_on_c, 1, 82, 52
7, 160529, Note_on_c, 1, 74, 0
7, 160529, Note_on_c, 1, 82, 0
7, 160560, Note_on_c, 1, 81, 52
7, 160560, Note_on_c, 1, 75, 52
7, 160679, Note_on_c, 1, 81, 0
7, 160680, Note_on_c, 1, 79, 52
7, 160769, Note_on_c, 1, 75, 0
7, 160799, Note_on_c, 1, 79, 0
7, 160800, Note_on_c, 1, 77, 52
7, 161040, Note_on_c, 1, 72, 52
7, 161249, Note_on_c, 1, 72, 0
7, 161280, Note_on_c, 1, 74, 52
7, 161489, Note_on_c, 1, 77, 0
7, 161489, Note_on_c, 1, 74, 0
7, 161520, Note_on_c, 1, 75, 52
7, 161760, Note_on_c, 1, 70, 52
7, 161969, Note_on_c, 1, 70, 0
7, 162000, Note_on_c, 1, 72, 52
7, 162209, Note_on_c, 1, 75, 0
7, 162209, Note_on_c, 1, 72, 0
7, 162240, Note_on_c, 1, 74, 52
7, 162479, Note_on_c, 1, 74, 0
7, 162480, Note_on_c, 1, 77, 52
7, 162689, Note_on_c, 1, 77, 0
7, 162720, Note_on_c, 1, 74, 52
7, 162839, Note_on_c, 1, 74, 0
7, 162960, Note_on_c, 1, 72, 52
7, 163199, Note_on_c, 1, 72, 0
7, 163200, Note_on_c, 1, 75, 52
7, 163409, Note_on_c, 1, 75, 0
7, 163440, Note_on_c, 1, 72, 52
7, 163559, Note_on_c, 1, 72, 0
7, 163680, Note_on_c, 1, 70, 52
7, 163799, Note_on_c, 1, 70, 0
7, 163920, Note_on_c, 1, 72, 62
7, 164039, Note_on_c, 1, 72, 0
7, 164160, Note_on_c, 1, 74, 73
7, 164279, Note_on_c, 1, 74, 0
7, 164400, Note_on_c, 1, 75, 84
7, 164609, Note_on_c, 1, 75, 0
7, 164640, Note_on_c, 1, 75, 84
7, 164849, Note_on_c, 1, 75, 0
7, 164880, Note_on_c, 1, 75, 84
7, 165089, Note_on_c, 1, 75, 0
7, 165120, Note_on_c, 1, 75, 84
7, 165329, Note_on_c, 1, 75, 0
7, 165360, Note_on_c, 1, 75, 84
7, 165569, Note_on_c, 1, 75, 0
7, 165600, Note_on_c, 1, 75, 84
7, 165809, Note_on_c, 1, 75, 0
7, 165840, Note_on_c, 1, 75, 84
7, 166079, Note_on_c, 1, 75, 0
7, 166080, Note_on_c, 1, 77, 84
7, 166199, Note_on_c, 1, 77, 0
7, 166200, Note_on_c, 1, 75, 84
7, 166319, Note_on_c, 1, 75, 0
7, 166320, Note_on_c, 1, 74, 84
7, 166439, Note_on_c, 1, 74, 0
7, 166440, Note_on_c, 1, 72, 84
7, 166529, Note_on_c, 1, 72, 0
7, 166560, Note_on_c, 1, 70, 84
7, 167249, Note_on_c, 1, 70, 0
7, 167280, Note_on_c, 1, 80, 92
7, 167969, Note_on_c, 1, 80, 0
7, 168000, Note_on_c, 1, 79, 84
7, 168239, Note_on_c, 1, 79, 0
7, 168240, Note_on_c, 1, 82, 84
7, 168449, Note_on_c, 1, 82, 0
7, 168480, Note_on_c, 1, 79, 84
7, 168599, Note_on_c, 1, 79, 0
7, 168720, Note_on_c, 1, 77, 84
7, 168959, Note_on_c, 1, 77, 0
7, 168960, Note_on_c, 1, 82, 84
7, 169169, Note_on_c, 1, 82, 0
7, 169200, Note_on_c, 1, 77, 84
7, 169319, Note_on_c, 1, 77, 0
7, 169440, Note_on_c, 1, 75, 84
7, 169559, Note_on_c, 1, 75, 0
7, 169680, Note_on_c, 1, 79, 84
7, 169799, Note_on_c, 1, 79, 0
7, 169920, Note_on_c, 1, 82, 84
7, 170039, Note_on_c, 1, 82, 0
7, 170160, Note_on_c, 1, 80, 92
7, 170849, Note_on_c, 1, 80, 0
7, 170880, Note_on_c, 1, 79, 84
7, 171119, Note_on_c, 1, 79, 0
7, 171120, Note_on_c, 1, 82, 84
7, 171329, Note_on_c, 1, 82, 0
7, 171360, Note_on_c, 1, 79, 84
7, 171479, Note_on_c, 1, 79, 0
7, 171600, Note_on_c, 1, 77, 84
7, 171839, Note_on_c, 1, 77, 0
7, 171840, Note_on_c, 1, 82, 84
7, 172049, Note_on_c, 1, 82, 0
7, 172080, Note_on_c, 1, 77, 84
7, 172199, Note_on_c, 1, 77, 0
7, 172320, Note_on_c, 1, 75, 84
7, 172439, Note_on_c, 1, 75, 0
7, 172560, Note_on_c, 1, 79, 84
7, 172679, Note_on_c, 1, 79, 0
7, 172800, Note_on_c, 1, 82, 84
7, 172919, Note_on_c, 1, 82, 0
7, 173040, Note_on_c, 1, 80, 92
7, 173729, Note_on_c, 1, 80, 0
7, 173760, Note_on_c, 1, 80, 84
7, 174449, Note_on_c, 1, 80, 0
7, 174480, Note_on_c, 1, 79, 84
7, 175169, Note_on_c, 1, 79, 0
7, 175200, Note_on_c, 1, 80, 84
7, 175889, Note_on_c, 1, 80, 0
7, 175920, Note_on_c, 1, 79, 92
7, 176609, Note_on_c, 1, 79, 0
7, 176640, Note_on_c, 1, 80, 84
7, 176759, Note_on_c, 1, 80, 0
7, 176880, Note_on_c, 1, 75, 84
7, 176880, Note_on_c, 1, 84, 84
7, 176999, Note_on_c, 1, 75, 0
7, 176999, Note_on_c, 1, 84, 0
7, 177120, Note_on_c, 1, 84, 84
7, 177120, Note_on_c, 1, 75, 84
7, 177239, Note_on_c, 1, 84, 0
7, 177239, Note_on_c, 1, 75, 0
7, 177360, Note_on_c, 1, 82, 84
7, 177360, Note_on_c, 1, 75, 84
7, 177479, Note_on_c, 1, 82, 0
7, 177479, Note_on_c, 1, 75, 0
7, 177600, Note_on_c, 1, 82, 84
7, 177600, Note_on_c, 1, 75, 84
7, 177719, Note_on_c, 1, 82, 0
7, 177719, Note_on_c, 1, 75, 0
7, 177840, Note_on_c, 1, 75, 84
7, 177840, Note_on_c, 1, 82, 84
7, 177959, Note_on_c, 1, 75, 0
7, 177959, Note_on_c, 1, 82, 0
7, 178080, Note_on_c, 1, 80, 84
7, 178080, Note_on_c, 1, 72, 84
7, 178199, Note_on_c, 1, 80, 0
7, 178199, Note_on_c, 1, 72, 0
7, 178320, Note_on_c, 1, 80, 84
7, 178320, Note_on_c, 1, 72, 84
7, 178439, Note_on_c, 1, 80, 0
7, 178439, Note_on_c, 1, 72, 0
7, 178560, Note_on_c, 1, 72, 84
7, 178560, Note_on_c, 1, 80, 84
7, 178679, Note_on_c, 1, 72, 0
7, 178679, Note_on_c, 1, 80, 0
7, 178800, Note_on_c, 1, 70, 84
7, 178800, Note_on_c, 1, 79, 84
7, 178919, Note_on_c, 1, 70, 0
7, 178919, Note_on_c, 1, 79, 0
7, 179040, Note_on_c, 1, 79, 84
7, 179040, Note_on_c, 1, 75, 84
7, 179159, Note_on_c, 1, 79, 0
7, 179159, Note_on_c, 1, 75, 0
7, 179280, Note_on_c, 1, 79, 84
7, 179280, Note_on_c, 1, 75, 84
7, 179399, Note_on_c, 1, 79, 0
7, 179399, Note_on_c, 1, 75, 0
7, 179520, Note_on_c, 1, 77, 84
7, 179520, Note_on_c, 1, 80, 84
7, 179639, Note_on_c, 1, 77, 0
7, 179639, Note_on_c, 1, 80, 0
7, 179760, Note_on_c, 1, 80, 84
7, 179760, Note_on_c, 1, 77, 84
7, 179879, Note_on_c, 1, 80, 0
7, 179879, Note_on_c, 1, 77, 0
7, 180000, Note_on_c, 1, 77, 84
7, 180000, Note_on_c, 1, 80, 84
7, 180119, Note_on_c, 1, 77, 0
7, 180119, Note_on_c, 1, 80, 0
7, 180240, Note_on_c, 1, 79, 84
7, 180240, Note_on_c, 1, 75, 84
7, 180479, Note_on_c, 1, 79, 0
7, 180479, Note_on_c, 1, 75, 0
7, 183360, Note_on_c, 1, 70, 52
7, 183360, Note_on_c, 1, 75, 52
7, 183569, Note_on_c, 1, 70, 0
7, 183569, Note_on_c, 1, 75, 0
7, 183600, Note_on_c, 1, 70, 52
7, 183600, Note_on_c, 1, 75, 52
7, 183809, Note_on_c, 1, 70, 0
7, 183809, Note_on_c, 1, 75, 0
7, 183840, Note_on_c, 1, 77, 52
7, 183840, Note_on_c, 1, 75, 52
7, 184049, Note_on_c, 1, 77, 0
7, 184049, Note_on_c, 1, 75, 0
7, 184080, Note_on_c, 1, 75, 52
7, 184080, Note_on_c, 1, 77, 52
7, 184289, Note_on_c, 1, 75, 0
7, 184289, Note_on_c, 1, 77, 0
7, 184320, Note_on_c, 1, 75, 52
7, 184320, Note_on_c, 1, 78, 52
7, 184529, Note_on_c, 1, 75, 0
7, 184529, Note_on_c, 1, 78, 0
7, 184560, Note_on_c, 1, 75, 52
7, 184560, Note_on_c, 1, 79, 52
7, 184769, Note_on_c, 1, 75, 0
7, 184769, Note_on_c, 1, 79, 0
7, 184800, Note_on_c, 1, 79, 52
7, 184800, Note_on_c, 1, 75, 52
7, 185009, Note_on_c, 1, 79, 0
7, 185009, Note_on_c, 1, 75, 0
7, 185040, Note_on_c, 1, 75, 52
7, 185040, Note_on_c, 1, 79, 52
7, 185249, Note_on_c, 1, 75, 0
7, 185249, Note_on_c, 1, 79, 0
7, 185280, Note_on_c, 1, 80, 52
7, 185280, Note_on_c, 1, 74, 52
7, 185489, Note_on_c, 1, 80, 0
7, 185489, Note_on_c, 1, 74, 0
7, 185520, Note_on_c, 1, 80, 52
7, 185520, Note_on_c, 1, 74, 52
7, 185729, Note_on_c, 1, 80, 0
7, 185729, Note_on_c, 1, 74, 0
7, 185760, Note_on_c, 1, 74, 52
7, 185760, Note_on_c, 1, 80, 52
7, 185969, Note_on_c, 1, 74, 0
7, 185969, Note_on_c, 1, 80, 0
7, 186000, Note_on_c, 1, 75, 76
7, 186000, Note_on_c, 1, 79, 76
7, 186119, Note_on_c, 1, 75, 0
7, 186119, Note_on_c, 1, 79, 0
7, 186240, Note_on_c, 1, 79, 84
7, 186689, Note_on_c, 1, 79, 0
7, 186720, Note_on_c, 1, 75, 76
7, 186929, Note_on_c, 1, 75, 0
7, 186960, Note_on_c, 1, 70, 84
7, 187409, Note_on_c, 1, 70, 0
7, 187440, Note_on_c, 1, 67, 76
7, 187649, Note_on_c, 1, 67, 0
7, 187680, Note_on_c, 1, 75, 84
7, 188129, Note_on_c, 1, 75, 0
7, 188160, Note_on_c, 1, 70, 76
7, 188399, Note_on_c, 1, 70, 0
7, 189120, Note_on_c, 1, 77, 52
7, 189239, Note_on_c, 1, 77, 0
7, 189360, Note_on_c, 1, 75, 52
7, 189479, Note_on_c, 1, 75, 0
7, 189600, Note_on_c, 1, 77, 52
7, 189719, Note_on_c, 1, 77, 0
7, 189840, Note_on_c, 1, 75, 52
7, 189959, Note_on_c, 1, 75, 0
7, 190080, Note_on_c, 1, 77, 52
7, 190199, Note_on_c, 1, 77, 0
7, 190320, Note_on_c, 1, 75, 52
7, 190559, Note_on_c, 1, 75, 0
7, 192000, Note_on_c, 1, 75, 52
7, 192119, Note_on_c, 1, 75, 0
7, 192240, Note_on_c, 1, 74, 52
7, 192359, Note_on_c, 1, 74, 0
7, 192480, Note_on_c, 1, 75, 52
7, 192599, Note_on_c, 1, 75, 0
7, 192720, Note_on_c, 1, 74, 52
7, 192839, Note_on_c, 1, 74, 0
7, 192960, Note_on_c, 1, 75, 52
7, 193079, Note_on_c, 1, 75, 0
7, 193200, Note_on_c, 1, 74, 52
7, 193319, Note_on_c, 1, 74, 0
7, 194880, Note_on_c, 1, 80, 52
7, 194999, Note_on_c, 1, 80, 0
7, 195120, Note_on_c, 1, 79, 52
7, 195239, Note_on_c, 1, 79, 0
7, 195360, Note_on_c, 1, 80, 52
7, 195479, Note_on_c, 1, 80, 0
7, 195600, Note_on_c, 1, 79, 52
7, 195719, Note_on_c, 1, 79, 0
7, 195840, Note_on_c, 1, 80, 52
7, 195959, Note_on_c, 1, 80, 0
7, 196080, Note_on_c, 1, 79, 52
7, 196199, Note_on_c, 1, 79, 0
7, 197760, Note_on_c, 1, 80, 52
7, 197879, Note_on_c, 1, 80, 0
7, 198000, Note_on_c, 1, 79, 52
7, 198119, Note_on_c, 1, 79, 0
7, 198240, Note_on_c, 1, 80, 52
7, 198359, Note_on_c, 1, 80, 0
7, 198480, Note_on_c, 1, 79, 52
7, 198599, Note_on_c, 1, 79, 0
7, 198720, Note_on_c, 1, 80, 52
7, 198839, Note_on_c, 1, 80, 0
7, 198960, Note_on_c, 1, 79, 52
7, 199079, Note_on_c, 1, 79, 0
7, 199200, Note_on_c, 1, 80, 52
7, 199200, Note_on_c, 1, 72, 52
7, 199319, Note_on_c, 1, 80, 0
7, 199319, Note_on_c, 1, 72, 0
7, 199440, Note_on_c, 1, 70, 52
7, 199440, Note_on_c, 1, 79, 52
7, 199559, Note_on_c, 1, 70, 0
7, 199559, Note_on_c, 1, 79, 0
7, 199680, Note_on_c, 1, 80, 52
7, 199680, Note_on_c, 1, 72, 52
7, 199799, Note_on_c, 1, 80, 0
7, 199799, Note_on_c, 1, 72, 0
7, 199920, Note_on_c, 1, 70, 52
7, 199920, Note_on_c, 1, 79, 52
7, 200039, Note_on_c, 1, 70, 0
7, 200039, Note_on_c, 1, 79, 0
7, 200160, Note_on_c, 1, 72, 52
7, 200160, Note_on_c, 1, 80, 52
7, 200279, Note_on_c, 1, 72, 0
7, 200279, Note_on_c, 1, 80, 0
7, 200400, Note_on_c, 1, 79, 52
7, 200400, Note_on_c, 1, 70, 52
7, 200519, Note_on_c, 1, 79, 0
7, 200519, Note_on_c, 1, 70, 0
7, 206160, Note_on_c, 1, 75, 52
7, 206160, Note_on_c, 1, 79, 52
7, 206399, Note_on_c, 1, 75, 0
7, 206399, Note_on_c, 1, 79, 0
7, 206880, Note_on_c, 1, 75, 52
7, 206880, Note_on_c, 1, 79, 52
7, 207119, Note_on_c, 1, 75, 0
7, 207119, Note_on_c, 1, 79, 0
7, 207600, Note_on_c, 1, 72, 52
7, 207600, Note_on_c, 1, 77, 52
7, 207719, Note_on_c, 1, 72, 0
7, 207719, Note_on_c, 1, 77, 0
7, 207840, Note_on_c, 1, 72, 52
7, 207959, Note_on_c, 1, 72, 0
7, 208080, Note_on_c, 1, 73, 52
7, 208199, Note_on_c, 1, 73, 0
7, 208320, Note_on_c, 1, 68, 52
7, 208320, Note_on_c, 1, 74, 52
7, 208439, Note_on_c, 1, 68, 0
7, 208439, Note_on_c, 1, 74, 0
7, 208560, Note_on_c, 1, 76, 52
7, 208679, Note_on_c, 1, 76, 0
7, 208800, Note_on_c, 1, 77, 52
7, 208919, Note_on_c, 1, 77, 0
7, 209040, Note_on_c, 1, 74, 52
7, 209040, Note_on_c, 1, 79, 52
7, 209159, Note_on_c, 1, 74, 0
7, 209159, Note_on_c, 1, 79, 0
7, 211440, Note_on_c, 1, 80, 78
7, 211440, Note_on_c, 1, 70, 78
7, 211649, Note_on_c, 1, 80, 0
7, 211649, Note_on_c, 1, 70, 0
7, 211680, Note_on_c, 1, 70, 81
7, 211680, Note_on_c, 1, 80, 81
7, 211889, Note_on_c, 1, 70, 0
7, 211889, Note_on_c, 1, 80, 0
7, 211920, Note_on_c, 1, 70, 84
7, 211920, Note_on_c, 1, 80, 84
7, 212129, Note_on_c, 1, 70, 0
7, 212129, Note_on_c, 1, 80, 0
7, 212160, Note_on_c, 1, 74, 84
7, 212160, Note_on_c, 1, 70, 84
7, 212369, Note_on_c, 1, 74, 0
7, 212369, Note_on_c, 1, 70, 0
7, 212400, Note_on_c, 1, 74, 84
7, 212400, Note_on_c, 1, 70, 84
7, 212609, Note_on_c, 1, 74, 0
7, 212609, Note_on_c, 1, 70, 0
7, 212640, Note_on_c, 1, 74, 84
7, 212640, Note_on_c, 1, 70, 84
7, 212849, Note_on_c, 1, 74, 0
7, 212849, Note_on_c, 1, 70, 0
7, 212880, Note_on_c, 1, 77, 84
7, 212880, Note_on_c, 1, 70, 84
7, 213089, Note_on_c, 1, 77, 0
7, 213089, Note_on_c, 1, 70, 0
7, 213120, Note_on_c, 1, 70, 84
7, 213120, Note_on_c, 1, 77, 84
7, 213329, Note_on_c, 1, 70, 0
7, 213329, Note_on_c, 1, 77, 0
7, 213360, Note_on_c, 1, 77, 84
7, 213360, Note_on_c, 1, 70, 84
7, 213569, Note_on_c, 1, 77, 0
7, 213569, Note_on_c, 1, 70, 0
7, 213600, Note_on_c, 1, 80, 84
7, 213600, Note_on_c, 1, 77, 84
7, 213809, Note_on_c, 1, 80, 0
7, 213809, Note_on_c, 1, 77, 0
7, 213840, Note_on_c, 1, 77, 84
7, 213840, Note_on_c, 1, 80, 84
7, 214049, Note_on_c, 1, 77, 0
7, 214049, Note_on_c, 1, 80, 0
7, 214080, Note_on_c, 1, 77, 84
7, 214080, Note_on_c, 1, 80, 84
7, 214289, Note_on_c, 1, 77, 0
7, 214289, Note_on_c, 1, 80, 0
7, 214320, Note_on_c, 1, 79, 84
7, 214320, Note_on_c, 1, 75, 84
7, 214529, Note_on_c, 1, 79, 0
7, 214529, Note_on_c, 1, 75, 0
7, 214560, Note_on_c, 1, 77, 84
7, 214560, Note_on_c, 1, 70, 84
7, 214769, Note_on_c, 1, 77, 0
7, 214769, Note_on_c, 1, 70, 0
7, 214800, Note_on_c, 1, 75, 76
7, 214800, Note_on_c, 1, 67, 76
7, 215039, Note_on_c, 1, 75, 0
7, 215039, Note_on_c, 1, 67, 0
7, 215520, Note_on_c, 1, 77, 76
7, 215520, Note_on_c, 1, 74, 76
7, 215759, Note_on_c, 1, 77, 0
7, 215759, Note_on_c, 1, 74, 0
7, 216240, Note_on_c, 1, 75, 76
7, 216240, Note_on_c, 1, 67, 76
7, 216479, Note_on_c, 1, 75, 0
7, 216479, Note_on_c, 1, 67, 0
7, 222240, Note_on_c, 1, 79, 52
7, 222240, Note_on_c, 1, 75, 52
7, 222449, Note_on_c, 1, 79, 0
7, 222449, Note_on_c, 1, 75, 0
7, 222480, Note_on_c, 1, 79, 52
7, 222480, Note_on_c, 1, 75, 52
7, 222689, Note_on_c, 1, 79, 0
7, 222689, Note_on_c, 1, 75, 0
7, 222720, Note_on_c, 1, 77, 52
7, 222720, Note_on_c, 1, 74, 52
7, 222959, Note_on_c, 1, 77, 0
7, 222959, Note_on_c, 1, 74, 0
7, 228000, Note_on_c, 1, 72, 52
7, 228000, Note_on_c, 1, 80, 52
7, 228209, Note_on_c, 1, 72, 0
7, 228209, Note_on_c, 1, 80, 0
7, 228240, Note_on_c, 1, 74, 52
7, 228240, Note_on_c, 1, 77, 52
7, 228449, Note_on_c, 1, 74, 0
7, 228449, Note_on_c, 1, 77, 0
7, 228480, Note_on_c, 1, 79, 52
7, 228480, Note_on_c, 1, 75, 52
7, 228719, Note_on_c, 1, 79, 0
7, 228719, Note_on_c, 1, 75, 0
7, 242640, Note_on_c, 1, 72, 76
7, 242849, Note_on_c, 1, 72, 0
7, 242880, Note_on_c, 1, 72, 76
7, 243329, Note_on_c, 1, 72, 0
7, 243360, Note_on_c, 1, 72, 76
7, 243569, Note_on_c, 1, 72, 0
7, 243600, Note_on_c, 1, 72, 76
7, 244049, Note_on_c, 1, 72, 0
7, 244080, Note_on_c, 1, 72, 76
7, 244289, Note_on_c, 1, 72, 0
7, 244320, Note_on_c, 1, 72, 76
7, 244769, Note_on_c, 1, 72, 0
7, 244800, Note_on_c, 1, 72, 76
7, 245009, Note_on_c, 1, 72, 0
7, 245040, Note_on_c, 1, 72, 76
7, 245279, Note_on_c, 1, 72, 0
7, 246240, Note_on_c, 1, 77, 48
7, 246449, Note_on_c, 1, 77, 0
7, 246480, Note_on_c, 1, 77, 48
7, 246719, Note_on_c, 1, 77, 0
7, 246720, Note_on_c, 1, 74, 48
7, 246959, Note_on_c, 1, 74, 0
7, 246960, Note_on_c, 1, 72, 48
7, 247199, Note_on_c, 1, 72, 0
7, 247200, Note_on_c, 1, 70, 48
7, 247439, Note_on_c, 1, 70, 0
7, 247440, Note_on_c, 1, 74, 48
7, 247679, Note_on_c, 1, 74, 0
7, 247680, Note_on_c, 1, 72, 48
7, 247919, Note_on_c, 1, 72, 0
7, 247920, Note_on_c, 1, 75, 48
7, 248159, Note_on_c, 1, 75, 0
7, 248160, Note_on_c, 1, 69, 48
7, 248399, Note_on_c, 1, 69, 0
7, 248400, Note_on_c, 1, 72, 48
7, 248639, Note_on_c, 1, 72, 0
7, 248640, Note_on_c, 1, 65, 48
7, 248879, Note_on_c, 1, 65, 0
7, 248880, Note_on_c, 1, 75, 48
7, 249119, Note_on_c, 1, 75, 0
7, 249120, Note_on_c, 1, 74, 48
7, 249359, Note_on_c, 1, 74, 0
7, 249360, Note_on_c, 1, 77, 48
7, 249599, Note_on_c, 1, 77, 0
7, 249600, Note_on_c, 1, 74, 48
7, 249839, Note_on_c, 1, 74, 0
7, 249840, Note_on_c, 1, 72, 48
7, 250079, Note_on_c, 1, 72, 0
7, 250080, Note_on_c, 1, 70, 48
7, 250319, Note_on_c, 1, 70, 0
7, 250320, Note_on_c, 1, 74, 48
7, 250559, Note_on_c, 1, 74, 0
7, 250560, Note_on_c, 1, 72, 48
7, 250799, Note_on_c, 1, 72, 0
7, 250800, Note_on_c, 1, 75, 48
7, 251039, Note_on_c, 1, 75, 0
7, 251040, Note_on_c, 1, 69, 48
7, 251279, Note_on_c, 1, 69, 0
7, 251280, Note_on_c, 1, 72, 48
7, 251519, Note_on_c, 1, 72, 0
7, 251520, Note_on_c, 1, 65, 48
7, 251759, Note_on_c, 1, 65, 0
7, 251760, Note_on_c, 1, 75, 48
7, 251999, Note_on_c, 1, 75, 0
7, 252000, Note_on_c, 1, 74, 48
7, 252239, Note_on_c, 1, 74, 0
7, 252240, Note_on_c, 1, 77, 48
7, 252479, Note_on_c, 1, 77, 0
7, 252480, Note_on_c, 1, 74, 48
7, 252719, Note_on_c, 1, 74, 0
7, 252720, Note_on_c, 1, 72, 48
7, 252959, Note_on_c, 1, 72, 0
7, 252960, Note_on_c, 1, 70, 48
7, 253199, Note_on_c, 1, 70, 0
7, 264000, Note_on_c, 1, 75, 52
7, 264000, Note_on_c, 1, 79, 52
7, 264209, Note_on_c, 1, 75, 0
7, 264209, Note_on_c, 1, 79, 0
7, 264240, Note_on_c, 1, 75, 52
7, 264240, Note_on_c, 1, 79, 52
7, 264449, Note_on_c, 1, 75, 0
7, 264449, Note_on_c, 1, 79, 0
7, 264480, Note_on_c, 1, 74, 52
7, 264480, Note_on_c, 1, 77, 52
7, 264719, Note_on_c, 1, 74, 0
7, 264719, Note_on_c, 1, 77, 0
7, 276240, Note_on_c, 1, 77, 44
7, 276240, Note_on_c, 1, 74, 44
7, 276449, Note_on_c, 1, 77, 0
7, 276449, Note_on_c, 1, 74, 0
7, 276480, Note_on_c, 1, 74, 44
7, 276480, Note_on_c, 1, 77, 44
7, 276689, Note_on_c, 1, 74, 0
7, 276689, Note_on_c, 1, 77, 0
7, 276720, Note_on_c, 1, 79, 44
7, 276720, Note_on_c, 1, 75, 44
7, 276959, Note_on_c, 1, 79, 0
7, 276959, Note_on_c, 1, 75, 0
7, 277200, Note_on_c, 1, 75, 76
7, 277409, Note_on_c, 1, 75, 0
7, 277440, Note_on_c, 1, 75, 76
7, 277889, Note_on_c, 1, 75, 0
7, 277920, Note_on_c, 1, 75, 76
7, 278159, Note_on_c, 1, 75, 0
7, 287280, Note_on_c, 1, 72, 76
7, 287489, Note_on_c, 1, 72, 0
7, 287520, Note_on_c, 1, 72, 76
7, 287969, Note_on_c, 1, 72, 0
7, 288000, Note_on_c, 1, 72, 76
7, 288209, Note_on_c, 1, 72, 0
7, 288240, Note_on_c, 1, 72, 76
7, 288689, Note_on_c, 1, 72, 0
7, 288720, Note_on_c, 1, 72, 76
7, 288929, Note_on_c, 1, 72, 0
7, 288960, Note_on_c, 1, 72, 76
7, 289409, Note_on_c, 1, 72, 0
7, 289440, Note_on_c, 1, 72, 76
7, 289649, Note_on_c, 1, 72, 0
7, 289680, Note_on_c, 1, 72, 76
7, 289919, Note_on_c, 1, 72, 0
7, 290880, Note_on_c, 1, 77, 48
7, 291089, Note_on_c, 1, 77, 0
7, 291120, Note_on_c, 1, 77, 48
7, 291359, Note_on_c, 1, 77, 0
7, 291360, Note_on_c, 1, 74, 48
7, 291599, Note_on_c, 1, 74, 0
7, 291600, Note_on_c, 1, 72, 48
7, 291839, Note_on_c, 1, 72, 0
7, 291840, Note_on_c, 1, 70, 48
7, 292079, Note_on_c, 1, 70, 0
7, 292080, Note_on_c, 1, 74, 48
7, 292319, Note_on_c, 1, 74, 0
7, 292320, Note_on_c, 1, 72, 48
7, 292559, Note_on_c, 1, 72, 0
7, 292560, Note_on_c, 1, 75, 48
7, 292799, Note_on_c, 1, 75, 0
7, 292800, Note_on_c, 1, 69, 48
7, 293039, Note_on_c, 1, 69, 0
7, 293040, Note_on_c, 1, 72, 48
7, 293279, Note_on_c, 1, 72, 0
7, 293280, Note_on_c, 1, 65, 48
7, 293519, Note_on_c, 1, 65, 0
7, 293520, Note_on_c, 1, 75, 48
7, 293759, Note_on_c, 1, 75, 0
7, 293760, Note_on_c, 1, 74, 48
7, 293999, Note_on_c, 1, 74, 0
7, 294000, Note_on_c, 1, 77, 48
7, 294239, Note_on_c, 1, 77, 0
7, 294240, Note_on_c, 1, 74, 48
7, 294479, Note_on_c, 1, 74, 0
7, 294480, Note_on_c, 1, 72, 48
7, 294719, Note_on_c, 1, 72, 0
7, 294720, Note_on_c, 1, 70, 48
7, 294959, Note_on_c, 1, 70, 0
7, 294960, Note_on_c, 1, 74, 48
7, 295199, Note_on_c, 1, 74, 0
7, 295200, Note_on_c, 1, 72, 48
7, 295439, Note_on_c, 1, 72, 0
7, 295440, Note_on_c, 1, 75, 48
7, 295679, Note_on_c, 1, 75, 0
7, 295680, Note_on_c, 1, 69, 48
7, 295919, Note_on_c, 1, 69, 0
7, 295920, Note_on_c, 1, 72, 48
7, 296159, Note_on_c, 1, 72, 0
7, 296160, Note_on_c, 1, 65, 48
7, 296399, Note_on_c, 1, 65, 0
7, 296400, Note_on_c, 1, 75, 48
7, 296639, Note_on_c, 1, 75, 0
7, 296640, Note_on_c, 1, 74, 48
7, 296879, Note_on_c, 1, 74, 0
7, 296880, Note_on_c, 1, 77, 48
7, 297119, Note_on_c, 1, 77, 0
7, 297120, Note_on_c, 1, 74, 48
7, 297359, Note_on_c, 1, 74, 0
7, 297360, Note_on_c, 1, 72, 48
7, 297599, Note_on_c, 1, 72, 0
7, 297600, Note_on_c, 1, 70, 48
7, 297839, Note_on_c, 1, 70, 0
7, 308640, Note_on_c, 1, 79, 52
7, 308640, Note_on_c, 1, 75, 52
7, 308849, Note_on_c, 1, 79, 0
7, 308849, Note_on_c, 1, 75, 0
7, 308880, Note_on_c, 1, 75, 52
7, 308880, Note_on_c, 1, 79, 52
7, 309089, Note_on_c, 1, 75, 0
7, 309089, Note_on_c, 1, 79, 0
7, 309120, Note_on_c, 1, 74, 52
7, 309120, Note_on_c, 1, 77, 52
7, 309359, Note_on_c, 1, 74, 0
7, 309359, Note_on_c, 1, 77, 0
7, 320880, Note_on_c, 1, 74, 44
7, 320880, Note_on_c, 1, 77, 44
7, 321089, Note_on_c, 1, 74, 0
7, 321089, Note_on_c, 1, 77, 0
7, 321120, Note_on_c, 1, 74, 44
7, 321120, Note_on_c, 1, 77, 44
7, 321329, Note_on_c, 1, 74, 0
7, 321329, Note_on_c, 1, 77, 0
7, 321360, Note_on_c, 1, 75, 44
7, 321360, Note_on_c, 1, 79, 44
7, 321599, Note_on_c, 1, 75, 0
7, 321599, Note_on_c, 1, 79, 0
7, 321840, Note_on_c, 1, 75, 76
7, 322049, Note_on_c, 1, 75, 0
7, 322080, Note_on_c, 1, 75, 76
7, 322529, Note_on_c, 1, 75, 0
7, 322560, Note_on_c, 1, 75, 76
7, 322799, Note_on_c, 1, 75, 0
7, 332880, Note_on_c, 1, 82, 52
7, 332999, Note_on_c, 1, 82, 0
7, 333120, Note_on_c, 1, 82, 52
7, 333239, Note_on_c, 1, 82, 0
7, 333360, Note_on_c, 1, 82, 52
7, 333479, Note_on_c, 1, 82, 0
7, 333600, Note_on_c, 1, 82, 52
7, 333719, Note_on_c, 1, 82, 0
7, 333840, Note_on_c, 1, 82, 52
7, 333959, Note_on_c, 1, 82, 0
7, 334080, Note_on_c, 1, 82, 52
7, 334199, Note_on_c, 1, 82, 0
7, 334320, Note_on_c, 1, 82, 52
7, 334499, Note_on_c, 1, 82, 0
7, 334560, Note_on_c, 1, 84, 52
7, 334679, Note_on_c, 1, 84, 0
7, 334680, Note_on_c, 1, 82, 52
7, 334799, Note_on_c, 1, 82, 0
7, 334800, Note_on_c, 1, 81, 52
7, 334919, Note_on_c, 1, 81, 0
7, 334920, Note_on_c, 1, 79, 52
7, 335009, Note_on_c, 1, 79, 0
7, 335040, Note_on_c, 1, 77, 52
7, 335729, Note_on_c, 1, 77, 0
7, 335760, Note_on_c, 1, 75, 52
7, 336449, Note_on_c, 1, 75, 0
7, 336480, Note_on_c, 1, 74, 52
7, 336719, Note_on_c, 1, 74, 0
7, 336720, Note_on_c, 1, 77, 52
7, 336929, Note_on_c, 1, 77, 0
7, 336960, Note_on_c, 1, 74, 52
7, 337079, Note_on_c, 1, 74, 0
7, 337200, Note_on_c, 1, 72, 52
7, 337439, Note_on_c, 1, 72, 0
7, 337440, Note_on_c, 1, 75, 52
7, 337649, Note_on_c, 1, 75, 0
7, 337680, Note_on_c, 1, 72, 52
7, 337799, Note_on_c, 1, 72, 0
7, 337920, Note_on_c, 1, 70, 52
7, 338159, Note_on_c, 1, 70, 0
7, 341280, Note_on_c, 1, 74, 52
7, 341399, Note_on_c, 1, 74, 0
7, 341520, Note_on_c, 1, 75, 52
7, 341639, Note_on_c, 1, 75, 0
7, 341760, Note_on_c, 1, 77, 52
7, 341879, Note_on_c, 1, 77, 0
7, 342000, Note_on_c, 1, 78, 52
7, 342119, Note_on_c, 1, 78, 0
7, 342240, Note_on_c, 1, 79, 52
7, 342359, Note_on_c, 1, 79, 0
7, 342480, Note_on_c, 1, 80, 52
7, 342599, Note_on_c, 1, 80, 0
7, 342720, Note_on_c, 1, 81, 52
7, 342839, Note_on_c, 1, 81, 0
7, 342960, Note_on_c, 1, 82, 52
7, 343079, Note_on_c, 1, 82, 0
7, 343200, Note_on_c, 1, 82, 52
7, 343319, Note_on_c, 1, 82, 0
7, 343440, Note_on_c, 1, 82, 52
7, 343559, Note_on_c, 1, 82, 0
7, 343680, Note_on_c, 1, 82, 52
7, 343799, Note_on_c, 1, 82, 0
7, 343920, Note_on_c, 1, 82, 52
7, 344039, Note_on_c, 1, 82, 0
7, 344160, Note_on_c, 1, 82, 52
7, 344279, Note_on_c, 1, 82, 0
7, 344400, Note_on_c, 1, 82, 52
7, 344639, Note_on_c, 1, 82, 0
7, 344640, Note_on_c, 1, 84, 52
7, 344759, Note_on_c, 1, 84, 0
7, 344760, Note_on_c, 1, 82, 52
7, 344879, Note_on_c, 1, 82, 0
7, 344880, Note_on_c, 1, 81, 52
7, 344999, Note_on_c, 1, 81, 0
7, 345000, Note_on_c, 1, 79, 52
7, 345089, Note_on_c, 1, 79, 0
7, 345120, Note_on_c, 1, 77, 52
7, 345809, Note_on_c, 1, 77, 0
7, 345840, Note_on_c, 1, 75, 52
7, 346529, Note_on_c, 1, 75, 0
7, 346560, Note_on_c, 1, 74, 52
7, 346799, Note_on_c, 1, 74, 0
7, 346800, Note_on_c, 1, 77, 52
7, 347009, Note_on_c, 1, 77, 0
7, 347040, Note_on_c, 1, 74, 52
7, 347159, Note_on_c, 1, 74, 0
7, 347280, Note_on_c, 1, 72, 52
7, 347519, Note_on_c, 1, 72, 0
7, 347520, Note_on_c, 1, 75, 52
7, 347729, Note_on_c, 1, 75, 0
7, 347760, Note_on_c, 1, 72, 52
7, 347879, Note_on_c, 1, 72, 0
7, 348000, Note_on_c, 1, 70, 52
7, 348239, Note_on_c, 1, 70, 0
7, 365280, Note_on_c, 1, 72, 60
7, 365969, Note_on_c, 1, 72, 0
7, 366000, Note_on_c, 1, 74, 52
7, 366239, Note_on_c, 1, 74, 0
7, 368160, Note_on_c, 1, 74, 60
7, 368849, Note_on_c, 1, 74, 0
7, 368880, Note_on_c, 1, 74, 44
7, 369119, Note_on_c, 1, 74, 0
7, 369360, Note_on_c, 1, 78, 44
7, 369360, Note_on_c, 1, 74, 44
7, 369479, Note_on_c, 1, 78, 0
7, 369479, Note_on_c, 1, 74, 0
7, 369600, Note_on_c, 1, 79, 44
7, 369600, Note_on_c, 1, 74, 44
7, 369719, Note_on_c, 1, 79, 0
7, 369719, Note_on_c, 1, 74, 0
7, 369840, Note_on_c, 1, 82, 44
7, 369840, Note_on_c, 1, 74, 44
7, 369959, Note_on_c, 1, 82, 0
7, 369959, Note_on_c, 1, 74, 0
7, 370080, Note_on_c, 1, 79, 44
7, 370080, Note_on_c, 1, 67, 44
7, 370199, Note_on_c, 1, 79, 0
7, 370199, Note_on_c, 1, 67, 0
7, 370320, Note_on_c, 1, 78, 44
7, 370320, Note_on_c, 1, 74, 44
7, 370439, Note_on_c, 1, 78, 0
7, 370439, Note_on_c, 1, 74, 0
7, 370800, Note_on_c, 1, 81, 44
7, 370800, Note_on_c, 1, 72, 44
7, 370919, Note_on_c, 1, 81, 0
7, 370919, Note_on_c, 1, 72, 0
7, 371040, Note_on_c, 1, 79, 44
7, 371040, Note_on_c, 1, 70, 44
7, 371159, Note_on_c, 1, 79, 0
7, 371159, Note_on_c, 1, 70, 0
7, 371280, Note_on_c, 1, 79, 44
7, 371280, Note_on_c, 1, 70, 44
7, 371399, Note_on_c, 1, 79, 0
7, 371399, Note_on_c, 1, 70, 0
7, 371520, Note_on_c, 1, 79, 44
7, 371520, Note_on_c, 1, 73, 44
7, 371639, Note_on_c, 1, 79, 0
7, 371639, Note_on_c, 1, 73, 0
7, 371760, Note_on_c, 1, 78, 44
7, 371760, Note_on_c, 1, 74, 44
7, 371879, Note_on_c, 1, 78, 0
7, 371879, Note_on_c, 1, 74, 0
7, 385920, Note_on_c, 1, 72, 52
7, 386039, Note_on_c, 1, 72, 0
7, 386160, Note_on_c, 1, 70, 52
7, 386279, Note_on_c, 1, 70, 0
7, 386400, Note_on_c, 1, 72, 52
7, 386519, Note_on_c, 1, 72, 0
7, 386640, Note_on_c, 1, 70, 52
7, 386759, Note_on_c, 1, 70, 0
7, 386880, Note_on_c, 1, 72, 52
7, 386999, Note_on_c, 1, 72, 0
7, 387120, Note_on_c, 1, 70, 52
7, 387239, Note_on_c, 1, 70, 0
7, 387360, Note_on_c, 1, 74, 52
7, 387479, Note_on_c, 1, 74, 0
7, 387600, Note_on_c, 1, 75, 52
7, 387719, Note_on_c, 1, 75, 0
7, 387840, Note_on_c, 1, 77, 52
7, 387840, Note_on_c, 1, 70, 52
7, 388049, Note_on_c, 1, 77, 0
7, 388049, Note_on_c, 1, 70, 0
7, 388080, Note_on_c, 1, 78, 52
7, 388080, Note_on_c, 1, 70, 52
7, 388289, Note_on_c, 1, 78, 0
7, 388289, Note_on_c, 1, 70, 0
7, 388320, Note_on_c, 1, 79, 52
7, 388320, Note_on_c, 1, 70, 52
7, 388529, Note_on_c, 1, 79, 0
7, 388529, Note_on_c, 1, 70, 0
7, 388560, Note_on_c, 1, 80, 52
7, 388560, Note_on_c, 1, 77, 52
7, 388769, Note_on_c, 1, 80, 0
7, 388769, Note_on_c, 1, 77, 0
7, 388800, Note_on_c, 1, 81, 52
7, 388800, Note_on_c, 1, 75, 52
7, 389009, Note_on_c, 1, 81, 0
7, 389009, Note_on_c, 1, 75, 0
7, 389040, Note_on_c, 1, 82, 52
7, 389040, Note_on_c, 1, 74, 52
7, 389249, Note_on_c, 1, 82, 0
7, 389249, Note_on_c, 1, 74, 0
7, 389280, Note_on_c, 1, 82, 52
7, 389280, Note_on_c, 1, 77, 52
7, 389489, Note_on_c, 1, 82, 0
7, 389489, Note_on_c, 1, 77, 0
7, 389520, Note_on_c, 1, 82, 52
7, 389520, Note_on_c, 1, 75, 52
7, 389729, Note_on_c, 1, 82, 0
7, 389729, Note_on_c, 1, 75, 0
7, 389760, Note_on_c, 1, 82, 52
7, 389760, Note_on_c, 1, 74, 52
7, 389969, Note_on_c, 1, 82, 0
7, 389969, Note_on_c, 1, 74, 0
7, 390000, Note_on_c, 1, 82, 52
7, 390000, Note_on_c, 1, 77, 52
7, 390209, Note_on_c, 1, 82, 0
7, 390209, Note_on_c, 1, 77, 0
7, 390240, Note_on_c, 1, 82, 52
7, 390240, Note_on_c, 1, 75, 52
7, 390449, Note_on_c, 1, 82, 0
7, 390449, Note_on_c, 1, 75, 0
7, 390480, Note_on_c, 1, 82, 52
7, 390480, Note_on_c, 1, 74, 52
7, 390689, Note_on_c, 1, 74, 0
7, 390719, Note_on_c, 1, 82, 0
7, 390720, Note_on_c, 1, 74, 52
7, 390720, Note_on_c, 1, 84, 52
7, 390839, Note_on_c, 1, 84, 0
7, 390840, Note_on_c, 1, 82, 52
7, 390929, Note_on_c, 1, 74, 0
7, 390959, Note_on_c, 1, 82, 0
7, 390960, Note_on_c, 1, 75, 52
7, 390960, Note_on_c, 1, 81, 52
7, 391079, Note_on_c, 1, 81, 0
7, 391080, Note_on_c, 1, 79, 52
7, 391169, Note_on_c, 1, 75, 0
7, 391169, Note_on_c, 1, 79, 0
7, 391200, Note_on_c, 1, 77, 52
7, 391440, Note_on_c, 1, 72, 52
7, 391649, Note_on_c, 1, 72, 0
7, 391680, Note_on_c, 1, 74, 52
7, 391889, Note_on_c, 1, 77, 0
7, 391889, Note_on_c, 1, 74, 0
7, 391920, Note_on_c, 1, 75, 52
7, 392160, Note_on_c, 1, 70, 52
7, 392369, Note_on_c, 1, 70, 0
7, 392400, Note_on_c, 1, 72, 52
7, 392609, Note_on_c, 1, 75, 0
7, 392609, Note_on_c, 1, 72, 0
7, 392640, Note_on_c, 1, 74, 52
7, 392879, Note_on_c, 1, 74, 0
7, 392880, Note_on_c, 1, 77, 52
7, 393089, Note_on_c, 1, 77, 0
7, 393120, Note_on_c, 1, 74, 52
7, 393239, Note_on_c, 1, 74, 0
7, 393360, Note_on_c, 1, 72, 52
7, 393599, Note_on_c, 1, 72, 0
7, 393600, Note_on_c, 1, 75, 52
7, 393809, Note_on_c, 1, 75, 0
7, 393840, Note_on_c, 1, 72, 52
7, 393959, Note_on_c, 1, 72, 0
7, 394080, Note_on_c, 1, 70, 52
7, 394199, Note_on_c, 1, 70, 0
7, 394320, Note_on_c, 1, 72, 62
7, 394439, Note_on_c, 1, 72, 0
7, 394560, Note_on_c, 1, 74, 73
7, 394679, Note_on_c, 1, 74, 0
7, 394800, Note_on_c, 1, 75, 84
7, 395009, Note_on_c, 1, 75, 0
7, 395040, Note_on_c, 1, 75, 84
7, 395249, Note_on_c, 1, 75, 0
7, 395280, Note_on_c, 1, 75, 84
7, 395489, Note_on_c, 1, 75, 0
7, 395520, Note_on_c, 1, 75, 84
7, 395729, Note_on_c, 1, 75, 0
7, 395760, Note_on_c, 1, 75, 84
7, 395969, Note_on_c, 1, 75, 0
7, 396000, Note_on_c, 1, 75, 84
7, 396209, Note_on_c, 1, 75, 0
7, 396240, Note_on_c, 1, 75, 84
7, 396479, Note_on_c, 1, 75, 0
7, 396480, Note_on_c, 1, 77, 84
7, 396599, Note_on_c, 1, 77, 0
7, 396600, Note_on_c, 1, 75, 84
7, 396719, Note_on_c, 1, 75, 0
7, 396720, Note_on_c, 1, 74, 84
7, 396839, Note_on_c, 1, 74, 0
7, 396840, Note_on_c, 1, 72, 84
7, 396929, Note_on_c, 1, 72, 0
7, 396960, Note_on_c, 1, 70, 84
7, 397649, Note_on_c, 1, 70, 0
7, 397680, Note_on_c, 1, 80, 92
7, 398369, Note_on_c, 1, 80, 0
7, 398400, Note_on_c, 1, 79, 84
7, 398639, Note_on_c, 1, 79, 0
7, 398640, Note_on_c, 1, 82, 84
7, 398849, Note_on_c, 1, 82, 0
7, 398880, Note_on_c, 1, 79, 84
7, 398999, Note_on_c, 1, 79, 0
7, 399120, Note_on_c, 1, 77, 84
7, 399359, Note_on_c, 1, 77, 0
7, 399360, Note_on_c, 1, 82, 84
7, 399569, Note_on_c, 1, 82, 0
7, 399600, Note_on_c, 1, 77, 84
7, 399719, Note_on_c, 1, 77, 0
7, 399840, Note_on_c, 1, 75, 84
7, 399959, Note_on_c, 1, 75, 0
7, 400080, Note_on_c, 1, 79, 84
7, 400199, Note_on_c, 1, 79, 0
7, 400320, Note_on_c, 1, 82, 84
7, 400439, Note_on_c, 1, 82, 0
7, 400560, Note_on_c, 1, 80, 92
7, 401249, Note_on_c, 1, 80, 0
7, 401280, Note_on_c, 1, 79, 84
7, 401519, Note_on_c, 1, 79, 0
7, 401520, Note_on_c, 1, 82, 84
7, 401729, Note_on_c, 1, 82, 0
7, 401760, Note_on_c, 1, 79, 84
7, 401879, Note_on_c, 1, 79, 0
7, 402000, Note_on_c, 1, 77, 84
7, 402239, Note_on_c, 1, 77, 0
7, 402240, Note_on_c, 1, 82, 84
7, 402449, Note_on_c, 1, 82, 0
7, 402480, Note_on_c, 1, 77, 84
7, 402599, Note_on_c, 1, 77, 0
7, 402720, Note_on_c, 1, 75, 84
7, 402839, Note_on_c, 1, 75, 0
7, 402960, Note_on_c, 1, 79, 84
7, 403079, Note_on_c, 1, 79, 0
7, 403200, Note_on_c, 1, 82, 84
7, 403319, Note_on_c, 1, 82, 0
7, 403440, Note_on_c, 1, 80, 92
7, 404129, Note_on_c, 1, 80, 0
7, 404160, Note_on_c, 1, 80, 84
7, 404849, Note_on_c, 1, 80, 0
7, 404880, Note_on_c, 1, 79, 84
7, 405569, Note_on_c, 1, 79, 0
7, 405600, Note_on_c, 1, 80, 84
7, 406289, Note_on_c, 1, 80, 0
7, 406320, Note_on_c, 1, 79, 92
7, 407009, Note_on_c, 1, 79, 0
7, 407040, Note_on_c, 1, 80, 84
7, 407249, Note_on_c, 1, 80, 0
7, 407280, Note_on_c, 1, 84, 84
7, 407280, Note_on_c, 1, 75, 84
7, 407489, Note_on_c, 1, 84, 0
7, 407489, Note_on_c, 1, 75, 0
7, 407520, Note_on_c, 1, 84, 84
7, 407520, Note_on_c, 1, 75, 84
7, 407729, Note_on_c, 1, 84, 0
7, 407729, Note_on_c, 1, 75, 0
7, 407760, Note_on_c, 1, 82, 84
7, 407760, Note_on_c, 1, 75, 84
7, 407969, Note_on_c, 1, 82, 0
7, 407969, Note_on_c, 1, 75, 0
7, 408000, Note_on_c, 1, 82, 84
7, 408000, Note_on_c, 1, 75, 84
7, 408209, Note_on_c, 1, 82, 0
7, 408209, Note_on_c, 1, 75, 0
7, 408240, Note_on_c, 1, 82, 84
7, 408240, Note_on_c, 1, 75, 84
7, 408449, Note_on_c, 1, 82, 0
7, 408449, Note_on_c, 1, 75, 0
7, 408480, Note_on_c, 1, 80, 84
7, 408480, Note_on_c, 1, 72, 84
7, 408689, Note_on_c, 1, 80, 0
7, 408689, Note_on_c, 1, 72, 0
7, 408720, Note_on_c, 1, 80, 84
7, 408720, Note_on_c, 1, 72, 84
7, 408929, Note_on_c, 1, 80, 0
7, 408929, Note_on_c, 1, 72, 0
7, 408960, Note_on_c, 1, 80, 84
7, 408960, Note_on_c, 1, 72, 84
7, 409169, Note_on_c, 1, 80, 0
7, 409169, Note_on_c, 1, 72, 0
7, 409200, Note_on_c, 1, 70, 84
7, 409200, Note_on_c, 1, 79, 84
7, 409409, Note_on_c, 1, 70, 0
7, 409409, Note_on_c, 1, 79, 0
7, 409440, Note_on_c, 1, 79, 84
7, 409440, Note_on_c, 1, 75, 84
7, 409649, Note_on_c, 1, 79, 0
7, 409649, Note_on_c, 1, 75, 0
7, 409680, Note_on_c, 1, 79, 84
7, 409680, Note_on_c, 1, 75, 84
7, 409889, Note_on_c, 1, 79, 0
7, 409889, Note_on_c, 1, 75, 0
7, 409920, Note_on_c, 1, 80, 84
7, 409920, Note_on_c, 1, 77, 84
7, 410129, Note_on_c, 1, 80, 0
7, 410129, Note_on_c, 1, 77, 0
7, 410160, Note_on_c, 1, 80, 84
7, 410160, Note_on_c, 1, 77, 84
7, 410369, Note_on_c, 1, 80, 0
7, 410369, Note_on_c, 1, 77, 0
7, 410400, Note_on_c, 1, 80, 84
7, 410400, Note_on_c, 1, 77, 84
7, 410609, Note_on_c, 1, 80, 0
7, 410609, Note_on_c, 1, 77, 0
7, 410640, Note_on_c, 1, 75, 84
7, 410640, Note_on_c, 1, 79, 84
7, 410879, Note_on_c, 1, 75, 0
7, 410879, Note_on_c, 1, 79, 0
7, 413760, Note_on_c, 1, 75, 52
7, 413760, Note_on_c, 1, 70, 52
7, 413879, Note_on_c, 1, 75, 0
7, 413879, Note_on_c, 1, 70, 0
7, 414000, Note_on_c, 1, 75, 52
7, 414000, Note_on_c, 1, 70, 52
7, 414119, Note_on_c, 1, 75, 0
7, 414119, Note_on_c, 1, 70, 0
7, 414240, Note_on_c, 1, 77, 52
7, 414240, Note_on_c, 1, 75, 52
7, 414359, Note_on_c, 1, 77, 0
7, 414359, Note_on_c, 1, 75, 0
7, 414480, Note_on_c, 1, 77, 52
7, 414480, Note_on_c, 1, 75, 52
7, 414599, Note_on_c, 1, 77, 0
7, 414599, Note_on_c, 1, 75, 0
7, 414720, Note_on_c, 1, 78, 52
7, 414720, Note_on_c, 1, 75, 52
7, 414839, Note_on_c, 1, 78, 0
7, 414839, Note_on_c, 1, 75, 0
7, 414960, Note_on_c, 1, 79, 52
7, 414960, Note_on_c, 1, 75, 52
7, 415079, Note_on_c, 1, 79, 0
7, 415079, Note_on_c, 1, 75, 0
7, 415200, Note_on_c, 1, 79, 52
7, 415200, Note_on_c, 1, 75, 52
7, 415319, Note_on_c, 1, 79, 0
7, 415319, Note_on_c, 1, 75, 0
7, 415440, Note_on_c, 1, 79, 52
7, 415440, Note_on_c, 1, 75, 52
7, 415559, Note_on_c, 1, 79, 0
7, 415559, Note_on_c, 1, 75, 0
7, 415680, Note_on_c, 1, 80, 52
7, 415680, Note_on_c, 1, 74, 52
7, 415799, Note_on_c, 1, 80, 0
7, 415799, Note_on_c, 1, 74, 0
7, 415920, Note_on_c, 1, 80, 52
7, 415920, Note_on_c, 1, 74, 52
7, 416039, Note_on_c, 1, 80, 0
7, 416039, Note_on_c, 1, 74, 0
7, 416160, Note_on_c, 1, 80, 52
7, 416160, Note_on_c, 1, 74, 52
7, 416279, Note_on_c, 1, 80, 0
7, 416279, Note_on_c, 1, 74, 0
7, 416400, Note_on_c, 1, 79, 76
7, 416400, Note_on_c, 1, 75, 76
7, 416579, Note_on_c, 1, 79, 0
7, 416579, Note_on_c, 1, 75, 0
7, 416640, Note_on_c, 1, 79, 84
7, 416819, Note_on_c, 1, 79, 0
7, 416880, Note_on_c, 1, 75, 84
7, 417059, Note_on_c, 1, 75, 0
7, 417120, Note_on_c, 1, 70, 84
7, 417299, Note_on_c, 1, 70, 0
7, 417360, Note_on_c, 1, 67, 84
7, 417539, Note_on_c, 1, 67, 0
7, 417600, Note_on_c, 1, 75, 84
7, 417779, Note_on_c, 1, 75, 0
7, 417840, Note_on_c, 1, 70, 84
7, 418019, Note_on_c, 1, 70, 0
7, 418080, Note_on_c, 1, 68, 84
7, 418259, Note_on_c, 1, 68, 0
7, 418320, Note_on_c, 1, 67, 84
7, 418529, Note_on_c, 1, 67, 0
7, 418560, Note_on_c, 1, 77, 52
7, 418679, Note_on_c, 1, 77, 0
7, 418800, Note_on_c, 1, 75, 52
7, 418919, Note_on_c, 1, 75, 0
7, 419040, Note_on_c, 1, 77, 52
7, 419159, Note_on_c, 1, 77, 0
7, 419280, Note_on_c, 1, 75, 52
7, 419399, Note_on_c, 1, 75, 0
7, 419520, Note_on_c, 1, 77, 52
7, 419639, Note_on_c, 1, 77, 0
7, 419760, Note_on_c, 1, 75, 52
7, 419879, Note_on_c, 1, 75, 0
7, 421440, Note_on_c, 1, 75, 52
7, 421559, Note_on_c, 1, 75, 0
7, 421680, Note_on_c, 1, 74, 52
7, 421799, Note_on_c, 1, 74, 0
7, 421920, Note_on_c, 1, 75, 52
7, 422039, Note_on_c, 1, 75, 0
7, 422160, Note_on_c, 1, 74, 52
7, 422279, Note_on_c, 1, 74, 0
7, 422400, Note_on_c, 1, 75, 52
7, 422519, Note_on_c, 1, 75, 0
7, 422640, Note_on_c, 1, 74, 52
7, 422759, Note_on_c, 1, 74, 0
7, 424320, Note_on_c, 1, 80, 52
7, 424439, Note_on_c, 1, 80, 0
7, 424560, Note_on_c, 1, 79, 52
7, 424679, Note_on_c, 1, 79, 0
7, 424800, Note_on_c, 1, 80, 52
7, 424919, Note_on_c, 1, 80, 0
7, 425040, Note_on_c, 1, 79, 52
7, 425159, Note_on_c, 1, 79, 0
7, 425280, Note_on_c, 1, 80, 52
7, 425399, Note_on_c, 1, 80, 0
7, 425520, Note_on_c, 1, 79, 52
7, 425639, Note_on_c, 1, 79, 0
7, 427200, Note_on_c, 1, 80, 52
7, 427319, Note_on_c, 1, 80, 0
7, 427440, Note_on_c, 1, 79, 52
7, 427559, Note_on_c, 1, 79, 0
7, 427680, Note_on_c, 1, 80, 52
7, 427799, Note_on_c, 1, 80, 0
7, 427920, Note_on_c, 1, 79, 52
7, 428039, Note_on_c, 1, 79, 0
7, 428160, Note_on_c, 1, 80, 52
7, 428279, Note_on_c, 1, 80, 0
7, 428400, Note_on_c, 1, 79, 52
7, 428519, Note_on_c, 1, 79, 0
7, 428640, Note_on_c, 1, 80, 52
7, 428640, Note_on_c, 1, 72, 52
7, 428759, Note_on_c, 1, 80, 0
7, 428759, Note_on_c, 1, 72, 0
7, 428880, Note_on_c, 1, 79, 52
7, 428880, Note_on_c, 1, 70, 52
7, 428999, Note_on_c, 1, 79, 0
7, 428999, Note_on_c, 1, 70, 0
7, 429120, Note_on_c, 1, 80, 52
7, 429120, Note_on_c, 1, 72, 52
7, 429239, Note_on_c, 1, 80, 0
7, 429239, Note_on_c, 1, 72, 0
7, 429360, Note_on_c, 1, 79, 52
7, 429360, Note_on_c, 1, 70, 52
7, 429479, Note_on_c, 1, 79, 0
7, 429479, Note_on_c, 1, 70, 0
7, 429600, Note_on_c, 1, 80, 52
7, 429600, Note_on_c, 1, 72, 52
7, 429719, Note_on_c, 1, 80, 0
7, 429719, Note_on_c, 1, 72, 0
7, 429840, Note_on_c, 1, 79, 52
7, 429840, Note_on_c, 1, 70, 52
7, 429959, Note_on_c, 1, 79, 0
7, 429959, Note_on_c, 1, 70, 0
7, 435600, Note_on_c, 1, 79, 52
7, 435600, Note_on_c, 1, 75, 52
7, 435839, Note_on_c, 1, 79, 0
7, 435839, Note_on_c, 1, 75, 0
7, 436320, Note_on_c, 1, 79, 52
7, 436320, Note_on_c, 1, 75, 52
7, 436559, Note_on_c, 1, 79, 0
7, 436559, Note_on_c, 1, 75, 0
7, 437040, Note_on_c, 1, 77, 52
7, 437040, Note_on_c, 1, 72, 52
7, 437159, Note_on_c, 1, 77, 0
7, 437159, Note_on_c, 1, 72, 0
7, 437280, Note_on_c, 1, 72, 52
7, 437399, Note_on_c, 1, 72, 0
7, 437520, Note_on_c, 1, 73, 52
7, 437639, Note_on_c, 1, 73, 0
7, 437760, Note_on_c, 1, 74, 52
7, 437760, Note_on_c, 1, 68, 52
7, 437879, Note_on_c, 1, 74, 0
7, 437879, Note_on_c, 1, 68, 0
7, 438000, Note_on_c, 1, 76, 52
7, 438119, Note_on_c, 1, 76, 0
7, 438240, Note_on_c, 1, 77, 52
7, 438359, Note_on_c, 1, 77, 0
7, 438480, Note_on_c, 1, 79, 52
7, 438480, Note_on_c, 1, 74, 52
7, 438599, Note_on_c, 1, 79, 0
7, 438599, Note_on_c, 1, 74, 0
7, 440880, Note_on_c, 1, 80, 78
7, 440880, Note_on_c, 1, 70, 78
7, 441089, Note_on_c, 1, 80, 0
7, 441089, Note_on_c, 1, 70, 0
7, 441120, Note_on_c, 1, 80, 81
7, 441120, Note_on_c, 1, 70, 81
7, 441329, Note_on_c, 1, 80, 0
7, 441329, Note_on_c, 1, 70, 0
7, 441360, Note_on_c, 1, 80, 84
7, 441360, Note_on_c, 1, 70, 84
7, 441569, Note_on_c, 1, 80, 0
7, 441569, Note_on_c, 1, 70, 0
7, 441600, Note_on_c, 1, 74, 84
7, 441600, Note_on_c, 1, 70, 84
7, 441809, Note_on_c, 1, 74, 0
7, 441809, Note_on_c, 1, 70, 0
7, 441840, Note_on_c, 1, 74, 84
7, 441840, Note_on_c, 1, 70, 84
7, 442049, Note_on_c, 1, 74, 0
7, 442049, Note_on_c, 1, 70, 0
7, 442080, Note_on_c, 1, 74, 84
7, 442080, Note_on_c, 1, 70, 84
7, 442289, Note_on_c, 1, 74, 0
7, 442289, Note_on_c, 1, 70, 0
7, 442320, Note_on_c, 1, 77, 84
7, 442320, Note_on_c, 1, 70, 84
7, 442529, Note_on_c, 1, 77, 0
7, 442529, Note_on_c, 1, 70, 0
7, 442560, Note_on_c, 1, 77, 84
7, 442560, Note_on_c, 1, 70, 84
7, 442769, Note_on_c, 1, 77, 0
7, 442769, Note_on_c, 1, 70, 0
7, 442800, Note_on_c, 1, 77, 84
7, 442800, Note_on_c, 1, 70, 84
7, 443009, Note_on_c, 1, 77, 0
7, 443009, Note_on_c, 1, 70, 0
7, 443040, Note_on_c, 1, 80, 84
7, 443040, Note_on_c, 1, 77, 84
7, 443249, Note_on_c, 1, 80, 0
7, 443249, Note_on_c, 1, 77, 0
7, 443280, Note_on_c, 1, 80, 84
7, 443280, Note_on_c, 1, 77, 84
7, 443489, Note_on_c, 1, 80, 0
7, 443489, Note_on_c, 1, 77, 0
7, 443520, Note_on_c, 1, 80, 84
7, 443520, Note_on_c, 1, 77, 84
7, 443729, Note_on_c, 1, 80, 0
7, 443729, Note_on_c, 1, 77, 0
7, 443760, Note_on_c, 1, 79, 84
7, 443760, Note_on_c, 1, 75, 84
7, 443969, Note_on_c, 1, 79, 0
7, 443969, Note_on_c, 1, 75, 0
7, 444000, Note_on_c, 1, 77, 84
7, 444000, Note_on_c, 1, 70, 84
7, 444209, Note_on_c, 1, 77, 0
7, 444209, Note_on_c, 1, 70, 0
7, 444240, Note_on_c, 1, 75, 76
7, 444240, Note_on_c, 1, 67, 76
7, 444479, Note_on_c, 1, 75, 0
7, 444479, Note_on_c, 1, 67, 0
7, 444960, Note_on_c, 1, 77, 76
7, 444960, Note_on_c, 1, 74, 76
7, 445199, Note_on_c, 1, 77, 0
7, 445199, Note_on_c, 1, 74, 0
7, 453120, Note_on_c, 1, 77, 54
7, 453120, Note_on_c, 1, 74, 54
7, 453329, Note_on_c, 1, 77, 0
7, 453329, Note_on_c, 1, 74, 0
7, 453360, Note_on_c, 1, 79, 56
7, 453360, Note_on_c, 1, 75, 56
7, 453569, Note_on_c, 1, 79, 0
7, 453569, Note_on_c, 1, 75, 0
7, 453600, Note_on_c, 1, 77, 58
7, 453600, Note_on_c, 1, 74, 58
7, 453809, Note_on_c, 1, 77, 0
7, 453809, Note_on_c, 1, 74, 0
7, 453840, Note_on_c, 1, 79, 60
7, 453840, Note_on_c, 1, 75, 60
7, 454049, Note_on_c, 1, 79, 0
7, 454049, Note_on_c, 1, 75, 0
7, 454080, Note_on_c, 1, 77, 62
7, 454080, Note_on_c, 1, 74, 62
7, 454289, Note_on_c, 1, 77, 0
7, 454289, Note_on_c, 1, 74, 0
7, 454320, Note_on_c, 1, 79, 64
7, 454320, Note_on_c, 1, 75, 64
7, 454529, Note_on_c, 1, 79, 0
7, 454529, Note_on_c, 1, 75, 0
7, 454560, Note_on_c, 1, 77, 66
7, 454560, Note_on_c, 1, 74, 66
7, 454769, Note_on_c, 1, 77, 0
7, 454769, Note_on_c, 1, 74, 0
7, 454800, Note_on_c, 1, 79, 68
7, 454800, Note_on_c, 1, 75, 68
7, 455009, Note_on_c, 1, 79, 0
7, 455009, Note_on_c, 1, 75, 0
7, 455040, Note_on_c, 1, 77, 70
7, 455040, Note_on_c, 1, 74, 70
7, 455249, Note_on_c, 1, 77, 0
7, 455249, Note_on_c, 1, 74, 0
7, 455280, Note_on_c, 1, 79, 72
7, 455280, Note_on_c, 1, 75, 72
7, 455489, Note_on_c, 1, 79, 0
7, 455489, Note_on_c, 1, 75, 0
7, 455520, Note_on_c, 1, 77, 74
7, 455520, Note_on_c, 1, 74, 74
7, 455729, Note_on_c, 1, 77, 0
7, 455729, Note_on_c, 1, 74, 0
7, 455760, Note_on_c, 1, 79, 76
7, 455760, Note_on_c, 1, 75, 76
7, 455969, Note_on_c, 1, 79, 0
7, 455969, Note_on_c, 1, 75, 0
7, 456000, Note_on_c, 1, 82, 76
7, 456000, Note_on_c, 1, 77, 76
7, 456209, Note_on_c, 1, 82, 0
7, 456209, Note_on_c, 1, 77, 0
7, 456240, Note_on_c, 1, 82, 76
7, 456240, Note_on_c, 1, 79, 76
7, 456449, Note_on_c, 1, 82, 0
7, 456449, Note_on_c, 1, 79, 0
7, 456480, Note_on_c, 1, 82, 76
7, 456480, Note_on_c, 1, 77, 76
7, 456689, Note_on_c, 1, 82, 0
7, 456689, Note_on_c, 1, 77, 0
7, 456720, Note_on_c, 1, 82, 76
7, 456720, Note_on_c, 1, 79, 76
7, 456929, Note_on_c, 1, 82, 0
7, 456929, Note_on_c, 1, 79, 0
7, 456960, Note_on_c, 1, 82, 76
7, 456960, Note_on_c, 1, 77, 76
7, 457169, Note_on_c, 1, 82, 0
7, 457169, Note_on_c, 1, 77, 0
7, 457200, Note_on_c, 1, 82, 84
7, 457200, Note_on_c, 1, 79, 84
7, 457439, Note_on_c, 1, 82, 0
7, 457439, Note_on_c, 1, 79, 0
7, 457920, Note_on_c, 1, 77, 84
7, 457920, Note_on_c, 1, 74, 84
7, 458159, Note_on_c, 1, 77, 0
7, 458159, Note_on_c, 1, 74, 0
7, 458640, Note_on_c, 1, 75, 84
7, 458640, Note_on_c, 1, 67, 84
7, 458879, Note_on_c, 1, 75, 0
7, 458879, Note_on_c, 1, 67, 0
7, 458879, End_track
8, 0, Start_track
8, 0, Title_t, "Clarinet in B-flat"
8, 0, MIDI_port, 0
8, 0, Program_c, 2, 71
8, 0, Control_c, 2, 7, 88
8, 0, Control_c, 2, 10, 75
8, 0, Control_c, 2, 11, 127
8, 57600, Note_on_c, 2, 68, 52
8, 57719, Note_on_c, 2, 68, 0
8, 57840, Note_on_c, 2, 67, 52
8, 57959, Note_on_c, 2, 67, 0
8, 58080, Note_on_c, 2, 68, 52
8, 58199, Note_on_c, 2, 68, 0
8, 58320, Note_on_c, 2, 67, 52
8, 58439, Note_on_c, 2, 67, 0
8, 58560, Note_on_c, 2, 68, 52
8, 58679, Note_on_c, 2, 68, 0
8, 58800, Note_on_c, 2, 67, 52
8, 58919, Note_on_c, 2, 67, 0
8, 59040, Note_on_c, 2, 68, 52
8, 59159, Note_on_c, 2, 68, 0
8, 59280, Note_on_c, 2, 67, 52
8, 59399, Note_on_c, 2, 67, 0
8, 59520, Note_on_c, 2, 65, 52
8, 59639, Note_on_c, 2, 65, 0
8, 59760, Note_on_c, 2, 66, 52
8, 59879, Note_on_c, 2, 66, 0
8, 60000, Note_on_c, 2, 67, 52
8, 60119, Note_on_c, 2, 67, 0
8, 60240, Note_on_c, 2, 68, 52
8, 60359, Note_on_c, 2, 68, 0
8, 60480, Note_on_c, 2, 69, 52
8, 60599, Note_on_c, 2, 69, 0
8, 60720, Note_on_c, 2, 70, 52
8, 60839, Note_on_c, 2, 70, 0
8, 60960, Note_on_c, 2, 70, 52
8, 61079, Note_on_c, 2, 70, 0
8, 61200, Note_on_c, 2, 70, 52
8, 61319, Note_on_c, 2, 70, 0
8, 61440, Note_on_c, 2, 70, 52
8, 61559, Note_on_c, 2, 70, 0
8, 61680, Note_on_c, 2, 70, 52
8, 61799, Note_on_c, 2, 70, 0
8, 61920, Note_on_c, 2, 70, 52
8, 62039, Note_on_c, 2, 70, 0
8, 62160, Note_on_c, 2, 70, 52
8, 62399, Note_on_c, 2, 70, 0
8, 62400, Note_on_c, 2, 72, 52
8, 62519, Note_on_c, 2, 72, 0
8, 62520, Note_on_c, 2, 70, 52
8, 62639, Note_on_c, 2, 70, 0
8, 62640, Note_on_c, 2, 69, 52
8, 62759, Note_on_c, 2, 69, 0
8, 62760, Note_on_c, 2, 67, 52
8, 62849, Note_on_c, 2, 67, 0
8, 62880, Note_on_c, 2, 65, 52
8, 63569, Note_on_c, 2, 65, 0
8, 63600, Note_on_c, 2, 63, 52
8, 64289, Note_on_c, 2, 63, 0
8, 64320, Note_on_c, 2, 62, 52
8, 64559, Note_on_c, 2, 62, 0
8, 64560, Note_on_c, 2, 65, 52
8, 64769, Note_on_c, 2, 65, 0
8, 64800, Note_on_c, 2, 62, 52
8, 64919, Note_on_c, 2, 62, 0
8, 65040, Note_on_c, 2, 60, 52
8, 65279, Note_on_c, 2, 60, 0
8, 65280, Note_on_c, 2, 63, 52
8, 65489, Note_on_c, 2, 63, 0
8, 65520, Note_on_c, 2, 60, 52
8, 65639, Note_on_c, 2, 60, 0
8, 65760, Note_on_c, 2, 58, 52
8, 65879, Note_on_c, 2, 58, 0
8, 66000, Note_on_c, 2, 60, 62
8, 66119, Note_on_c, 2, 60, 0
8, 66240, Note_on_c, 2, 62, 73
8, 66359, Note_on_c, 2, 62, 0
8, 66480, Note_on_c, 2, 63, 84
8, 66689, Note_on_c, 2, 63, 0
8, 66720, Note_on_c, 2, 75, 84
8, 66720, Note_on_c, 2, 63, 84
8, 66929, Note_on_c, 2, 75, 0
8, 66929, Note_on_c, 2, 63, 0
8, 66960, Note_on_c, 2, 75, 84
8, 66960, Note_on_c, 2, 63, 84
8, 67169, Note_on_c, 2, 75, 0
8, 67169, Note_on_c, 2, 63, 0
8, 67200, Note_on_c, 2, 63, 84
8, 67200, Note_on_c, 2, 75, 84
8, 67409, Note_on_c, 2, 63, 0
8, 67409, Note_on_c, 2, 75, 0
8, 67440, Note_on_c, 2, 63, 84
8, 67440, Note_on_c, 2, 75, 84
8, 67649, Note_on_c, 2, 63, 0
8, 67649, Note_on_c, 2, 75, 0
8, 67680, Note_on_c, 2, 63, 84
8, 67680, Note_on_c, 2, 75, 84
8, 67889, Note_on_c, 2, 63, 0
8, 67889, Note_on_c, 2, 75, 0
8, 67920, Note_on_c, 2, 63, 84
8, 67920, Note_on_c, 2, 75, 84
8, 68159, Note_on_c, 2, 63, 0
8, 68159, Note_on_c, 2, 75, 0
8, 68160, Note_on_c, 2, 65, 84
8, 68160, Note_on_c, 2, 77, 84
8, 68279, Note_on_c, 2, 65, 0
8, 68279, Note_on_c, 2, 77, 0
8, 68280, Note_on_c, 2, 63, 84
8, 68280, Note_on_c, 2, 75, 84
8, 68399, Note_on_c, 2, 63, 0
8, 68399, Note_on_c, 2, 75, 0
8, 68400, Note_on_c, 2, 62, 84
8, 68400, Note_on_c, 2, 74, 84
8, 68519, Note_on_c, 2, 62, 0
8, 68519, Note_on_c, 2, 74, 0
8, 68520, Note_on_c, 2, 60, 84
8, 68520, Note_on_c, 2, 72, 84
8, 68609, Note_on_c, 2, 60, 0
8, 68609, Note_on_c, 2, 72, 0
8, 68640, Note_on_c, 2, 70, 84
8, 68640, Note_on_c, 2, 58, 84
8, 69329, Note_on_c, 2, 70, 0
8, 69329, Note_on_c, 2, 58, 0
8, 69360, Note_on_c, 2, 68, 92
8, 70049, Note_on_c, 2, 68, 0
8, 70080, Note_on_c, 2, 67, 84
8, 70319, Note_on_c, 2, 67, 0
8, 70320, Note_on_c, 2, 70, 84
8, 70529, Note_on_c, 2, 70, 0
8, 70560, Note_on_c, 2, 67, 84
8, 70679, Note_on_c, 2, 67, 0
8, 70800, Note_on_c, 2, 65, 84
8, 71039, Note_on_c, 2, 65, 0
8, 71040, Note_on_c, 2, 70, 84
8, 71249, Note_on_c, 2, 70, 0
8, 71280, Note_on_c, 2, 65, 84
8, 71399, Note_on_c, 2, 65, 0
8, 71520, Note_on_c, 2, 63, 84
8, 71639, Note_on_c, 2, 63, 0
8, 71760, Note_on_c, 2, 67, 84
8, 71879, Note_on_c, 2, 67, 0
8, 72000, Note_on_c, 2, 70, 84
8, 72119, Note_on_c, 2, 70, 0
8, 72240, Note_on_c, 2, 68, 92
8, 72929, Note_on_c, 2, 68, 0
8, 72960, Note_on_c, 2, 67, 84
8, 73199, Note_on_c, 2, 67, 0
8, 73200, Note_on_c, 2, 70, 84
8, 73409, Note_on_c, 2, 70, 0
8, 73440, Note_on_c, 2, 67, 84
8, 73559, Note_on_c, 2, 67, 0
8, 73680, Note_on_c, 2, 65, 84
8, 73919, Note_on_c, 2, 65, 0
8, 73920, Note_on_c, 2, 70, 84
8, 74129, Note_on_c, 2, 70, 0
8, 74160, Note_on_c, 2, 65, 84
8, 74279, Note_on_c, 2, 65, 0
8, 74400, Note_on_c, 2, 63, 84
8, 74519, Note_on_c, 2, 63, 0
8, 74640, Note_on_c, 2, 67, 84
8, 74759, Note_on_c, 2, 67, 0
8, 74880, Note_on_c, 2, 70, 84
8, 74999, Note_on_c, 2, 70, 0
8, 75120, Note_on_c, 2, 73, 92
8, 75120, Note_on_c, 2, 68, 92
8, 75809, Note_on_c, 2, 73, 0
8, 75809, Note_on_c, 2, 68, 0
8, 75840, Note_on_c, 2, 68, 84
8, 75840, Note_on_c, 2, 72, 84
8, 76079, Note_on_c, 2, 72, 0
8, 76080, Note_on_c, 2, 75, 84
8, 76289, Note_on_c, 2, 75, 0
8, 76320, Note_on_c, 2, 72, 84
8, 76439, Note_on_c, 2, 72, 0
8, 76529, Note_on_c, 2, 68, 0
8, 76560, Note_on_c, 2, 70, 84
8, 76560, Note_on_c, 2, 67, 84
8, 76799, Note_on_c, 2, 70, 0
8, 76800, Note_on_c, 2, 75, 84
8, 77009, Note_on_c, 2, 75, 0
8, 77040, Note_on_c, 2, 70, 84
8, 77159, Note_on_c, 2, 70, 0
8, 77249, Note_on_c, 2, 67, 0
8, 77280, Note_on_c, 2, 68, 84
8, 77399, Note_on_c, 2, 68, 0
8, 77520, Note_on_c, 2, 72, 84
8, 77639, Note_on_c, 2, 72, 0
8, 77760, Note_on_c, 2, 75, 84
8, 77879, Note_on_c, 2, 75, 0
8, 78000, Note_on_c, 2, 67, 92
8, 78000, Note_on_c, 2, 73, 92
8, 78689, Note_on_c, 2, 67, 0
8, 78689, Note_on_c, 2, 73, 0
8, 78720, Note_on_c, 2, 72, 84
8, 78839, Note_on_c, 2, 72, 0
8, 78960, Note_on_c, 2, 75, 84
8, 78960, Note_on_c, 2, 72, 84
8, 79079, Note_on_c, 2, 75, 0
8, 79079, Note_on_c, 2, 72, 0
8, 79200, Note_on_c, 2, 72, 84
8, 79200, Note_on_c, 2, 75, 84
8, 79319, Note_on_c, 2, 72, 0
8, 79319, Note_on_c, 2, 75, 0
8, 79440, Note_on_c, 2, 70, 84
8, 79440, Note_on_c, 2, 75, 84
8, 79559, Note_on_c, 2, 70, 0
8, 79559, Note_on_c, 2, 75, 0
8, 79680, Note_on_c, 2, 70, 84
8, 79680, Note_on_c, 2, 75, 84
8, 79799, Note_on_c, 2, 70, 0
8, 79799, Note_on_c, 2, 75, 0
8, 79920, Note_on_c, 2, 70, 84
8, 79920, Note_on_c, 2, 75, 84
8, 80039, Note_on_c, 2, 70, 0
8, 80039, Note_on_c, 2, 75, 0
8, 80160, Note_on_c, 2, 68, 84
8, 80160, Note_on_c, 2, 75, 84
8, 80279, Note_on_c, 2, 68, 0
8, 80279, Note_on_c, 2, 75, 0
8, 80400, Note_on_c, 2, 75, 84
8, 80400, Note_on_c, 2, 68, 84
8, 80519, Note_on_c, 2, 75, 0
8, 80519, Note_on_c, 2, 68, 0
8, 80640, Note_on_c, 2, 75, 84
8, 80640, Note_on_c, 2, 68, 84
8, 80759, Note_on_c, 2, 75, 0
8, 80759, Note_on_c, 2, 68, 0
8, 80880, Note_on_c, 2, 75, 84
8, 80880, Note_on_c, 2, 67, 84
8, 80999, Note_on_c, 2, 75, 0
8, 80999, Note_on_c, 2, 67, 0
8, 81120, Note_on_c, 2, 67, 84
8, 81120, Note_on_c, 2, 75, 84
8, 81239, Note_on_c, 2, 67, 0
8, 81239, Note_on_c, 2, 75, 0
8, 81360, Note_on_c, 2, 75, 84
8, 81360, Note_on_c, 2, 67, 84
8, 81479, Note_on_c, 2, 75, 0
8, 81479, Note_on_c, 2, 67, 0
8, 81600, Note_on_c, 2, 68, 84
8, 81600, Note_on_c, 2, 74, 84
8, 81719, Note_on_c, 2, 68, 0
8, 81719, Note_on_c, 2, 74, 0
8, 81840, Note_on_c, 2, 68, 84
8, 81840, Note_on_c, 2, 74, 84
8, 81959, Note_on_c, 2, 68, 0
8, 81959, Note_on_c, 2, 74, 0
8, 82080, Note_on_c, 2, 68, 84
8, 82080, Note_on_c, 2, 74, 84
8, 82199, Note_on_c, 2, 68, 0
8, 82199, Note_on_c, 2, 74, 0
8, 82320, Note_on_c, 2, 67, 84
8, 82320, Note_on_c, 2, 75, 84
8, 82559, Note_on_c, 2, 67, 0
8, 82559, Note_on_c, 2, 75, 0
8, 85440, Note_on_c, 2, 75, 52
8, 85440, Note_on_c, 2, 67, 52
8, 85649, Note_on_c, 2, 75, 0
8, 85649, Note_on_c, 2, 67, 0
8, 85680, Note_on_c, 2, 75, 52
8, 85680, Note_on_c, 2, 67, 52
8, 85889, Note_on_c, 2, 75, 0
8, 85889, Note_on_c, 2, 67, 0
8, 85920, Note_on_c, 2, 75, 52
8, 85920, Note_on_c, 2, 65, 52
8, 86129, Note_on_c, 2, 75, 0
8, 86129, Note_on_c, 2, 65, 0
8, 86160, Note_on_c, 2, 65, 52
8, 86160, Note_on_c, 2, 75, 52
8, 86369, Note_on_c, 2, 65, 0
8, 86369, Note_on_c, 2, 75, 0
8, 86400, Note_on_c, 2, 75, 52
8, 86400, Note_on_c, 2, 66, 52
8, 86609, Note_on_c, 2, 75, 0
8, 86609, Note_on_c, 2, 66, 0
8, 86640, Note_on_c, 2, 75, 52
8, 86640, Note_on_c, 2, 67, 52
8, 86849, Note_on_c, 2, 75, 0
8, 86849, Note_on_c, 2, 67, 0
8, 86880, Note_on_c, 2, 75, 52
8, 86880, Note_on_c, 2, 67, 52
8, 87089, Note_on_c, 2, 75, 0
8, 87089, Note_on_c, 2, 67, 0
8, 87120, Note_on_c, 2, 67, 52
8, 87120, Note_on_c, 2, 75, 52
8, 87329, Note_on_c, 2, 67, 0
8, 87329, Note_on_c, 2, 75, 0
8, 87360, Note_on_c, 2, 74, 52
8, 87360, Note_on_c, 2, 68, 52
8, 87569, Note_on_c, 2, 74, 0
8, 87569, Note_on_c, 2, 68, 0
8, 87600, Note_on_c, 2, 74, 52
8, 87600, Note_on_c, 2, 68, 52
8, 87809, Note_on_c, 2, 74, 0
8, 87809, Note_on_c, 2, 68, 0
8, 87840, Note_on_c, 2, 68, 52
8, 87840, Note_on_c, 2, 74, 52
8, 88049, Note_on_c, 2, 68, 0
8, 88049, Note_on_c, 2, 74, 0
8, 88080, Note_on_c, 2, 67, 76
8, 88080, Note_on_c, 2, 75, 76
8, 88199, Note_on_c, 2, 67, 0
8, 88199, Note_on_c, 2, 75, 0
8, 88320, Note_on_c, 2, 79, 84
8, 88320, Note_on_c, 2, 67, 84
8, 88769, Note_on_c, 2, 79, 0
8, 88769, Note_on_c, 2, 67, 0
8, 88800, Note_on_c, 2, 63, 76
8, 88800, Note_on_c, 2, 75, 76
8, 89009, Note_on_c, 2, 63, 0
8, 89009, Note_on_c, 2, 75, 0
8, 89040, Note_on_c, 2, 58, 84
8, 89040, Note_on_c, 2, 70, 84
8, 89489, Note_on_c, 2, 58, 0
8, 89489, Note_on_c, 2, 70, 0
8, 89520, Note_on_c, 2, 67, 76
8, 89729, Note_on_c, 2, 67, 0
8, 89760, Note_on_c, 2, 75, 84
8, 89760, Note_on_c, 2, 63, 84
8, 90209, Note_on_c, 2, 75, 0
8, 90209, Note_on_c, 2, 63, 0
8, 90240, Note_on_c, 2, 58, 76
8, 90240, Note_on_c, 2, 70, 76
8, 90479, Note_on_c, 2, 58, 0
8, 90479, Note_on_c, 2, 70, 0
8, 90720, Note_on_c, 2, 68, 76
8, 90779, Note_on_c, 2, 68, 0
8, 90780, Note_on_c, 2, 70, 76
8, 90839, Note_on_c, 2, 70, 0
8, 90840, Note_on_c, 2, 67, 76
8, 90899, Note_on_c, 2, 67, 0
8, 90900, Note_on_c, 2, 68, 76
8, 90959, Note_on_c, 2, 68, 0
8, 90960, Note_on_c, 2, 67, 76
8, 91169, Note_on_c, 2, 67, 0
8, 91200, Note_on_c, 2, 68, 52
8, 91319, Note_on_c, 2, 68, 0
8, 91440, Note_on_c, 2, 67, 52
8, 91559, Note_on_c, 2, 67, 0
8, 91680, Note_on_c, 2, 68, 52
8, 91799, Note_on_c, 2, 68, 0
8, 91920, Note_on_c, 2, 67, 52
8, 92039, Note_on_c, 2, 67, 0
8, 92160, Note_on_c, 2, 68, 52
8, 92279, Note_on_c, 2, 68, 0
8, 92400, Note_on_c, 2, 67, 52
8, 92639, Note_on_c, 2, 67, 0
8, 94080, Note_on_c, 2, 66, 52
8, 94199, Note_on_c, 2, 66, 0
8, 94320, Note_on_c, 2, 65, 52
8, 94439, Note_on_c, 2, 65, 0
8, 94560, Note_on_c, 2, 66, 52
8, 94679, Note_on_c, 2, 66, 0
8, 94800, Note_on_c, 2, 65, 52
8, 94919, Note_on_c, 2, 65, 0
8, 95040, Note_on_c, 2, 66, 52
8, 95159, Note_on_c, 2, 66, 0
8, 95280, Note_on_c, 2, 65, 52
8, 95399, Note_on_c, 2, 65, 0
8, 96960, Note_on_c, 2, 68, 52
8, 96960, Note_on_c, 2, 75, 52
8, 97079, Note_on_c, 2, 68, 0
8, 97079, Note_on_c, 2, 75, 0
8, 97200, Note_on_c, 2, 67, 52
8, 97200, Note_on_c, 2, 75, 52
8, 97319, Note_on_c, 2, 67, 0
8, 97319, Note_on_c, 2, 75, 0
8, 97440, Note_on_c, 2, 68, 52
8, 97440, Note_on_c, 2, 75, 52
8, 97559, Note_on_c, 2, 68, 0
8, 97559, Note_on_c, 2, 75, 0
8, 97680, Note_on_c, 2, 67, 52
8, 97680, Note_on_c, 2, 75, 52
8, 97799, Note_on_c, 2, 67, 0
8, 97799, Note_on_c, 2, 75, 0
8, 97920, Note_on_c, 2, 68, 52
8, 97920, Note_on_c, 2, 75, 52
8, 98039, Note_on_c, 2, 68, 0
8, 98039, Note_on_c, 2, 75, 0
8, 98160, Note_on_c, 2, 67, 52
8, 98160, Note_on_c, 2, 75, 52
8, 98279, Note_on_c, 2, 67, 0
8, 98279, Note_on_c, 2, 75, 0
8, 99840, Note_on_c, 2, 75, 52
8, 99840, Note_on_c, 2, 68, 52
8, 99959, Note_on_c, 2, 75, 0
8, 99959, Note_on_c, 2, 68, 0
8, 100080, Note_on_c, 2, 75, 52
8, 100080, Note_on_c, 2, 67, 52
8, 100199, Note_on_c, 2, 75, 0
8, 100199, Note_on_c, 2, 67, 0
8, 100320, Note_on_c, 2, 68, 52
8, 100320, Note_on_c, 2, 75, 52
8, 100439, Note_on_c, 2, 68, 0
8, 100439, Note_on_c, 2, 75, 0
8, 100560, Note_on_c, 2, 67, 52
8, 100560, Note_on_c, 2, 75, 52
8, 100679, Note_on_c, 2, 67, 0
8, 100679, Note_on_c, 2, 75, 0
8, 100800, Note_on_c, 2, 68, 52
8, 100800, Note_on_c, 2, 75, 52
8, 100919, Note_on_c, 2, 68, 0
8, 100919, Note_on_c, 2, 75, 0
8, 101040, Note_on_c, 2, 67, 52
8, 101040, Note_on_c, 2, 75, 52
8, 101159, Note_on_c, 2, 67, 0
8, 101159, Note_on_c, 2, 75, 0
8, 101280, Note_on_c, 2, 72, 52
8, 101280, Note_on_c, 2, 68, 52
8, 101399, Note_on_c, 2, 72, 0
8, 101399, Note_on_c, 2, 68, 0
8, 101520, Note_on_c, 2, 70, 52
8, 101520, Note_on_c, 2, 67, 52
8, 101639, Note_on_c, 2, 70, 0
8, 101639, Note_on_c, 2, 67, 0
8, 101760, Note_on_c, 2, 68, 52
8, 101760, Note_on_c, 2, 72, 52
8, 101879, Note_on_c, 2, 68, 0
8, 101879, Note_on_c, 2, 72, 0
8, 102000, Note_on_c, 2, 67, 52
8, 102000, Note_on_c, 2, 70, 52
8, 102119, Note_on_c, 2, 67, 0
8, 102119, Note_on_c, 2, 70, 0
8, 102240, Note_on_c, 2, 68, 52
8, 102240, Note_on_c, 2, 72, 52
8, 102359, Note_on_c, 2, 68, 0
8, 102359, Note_on_c, 2, 72, 0
8, 102480, Note_on_c, 2, 70, 52
8, 102480, Note_on_c, 2, 67, 52
8, 102599, Note_on_c, 2, 70, 0
8, 102599, Note_on_c, 2, 67, 0
8, 108240, Note_on_c, 2, 75, 52
8, 108240, Note_on_c, 2, 67, 52
8, 108479, Note_on_c, 2, 75, 0
8, 108479, Note_on_c, 2, 67, 0
8, 108960, Note_on_c, 2, 72, 52
8, 108960, Note_on_c, 2, 67, 52
8, 109199, Note_on_c, 2, 72, 0
8, 109199, Note_on_c, 2, 67, 0
8, 109680, Note_on_c, 2, 72, 52
8, 109680, Note_on_c, 2, 56, 52
8, 109919, Note_on_c, 2, 72, 0
8, 109919, Note_on_c, 2, 56, 0
8, 110400, Note_on_c, 2, 74, 52
8, 110400, Note_on_c, 2, 65, 52
8, 110639, Note_on_c, 2, 74, 0
8, 110639, Note_on_c, 2, 65, 0
8, 111120, Note_on_c, 2, 67, 52
8, 111120, Note_on_c, 2, 74, 52
8, 111239, Note_on_c, 2, 67, 0
8, 111239, Note_on_c, 2, 74, 0
8, 111360, Note_on_c, 2, 61, 54
8, 111360, Note_on_c, 2, 73, 54
8, 111479, Note_on_c, 2, 61, 0
8, 111479, Note_on_c, 2, 73, 0
8, 111600, Note_on_c, 2, 62, 57
8, 111600, Note_on_c, 2, 74, 57
8, 111719, Note_on_c, 2, 62, 0
8, 111719, Note_on_c, 2, 74, 0
8, 111840, Note_on_c, 2, 75, 60
8, 111840, Note_on_c, 2, 63, 60
8, 111959, Note_on_c, 2, 75, 0
8, 111959, Note_on_c, 2, 63, 0
8, 112080, Note_on_c, 2, 77, 62
8, 112080, Note_on_c, 2, 65, 62
8, 112199, Note_on_c, 2, 77, 0
8, 112199, Note_on_c, 2, 65, 0
8, 112320, Note_on_c, 2, 79, 65
8, 112320, Note_on_c, 2, 67, 65
8, 112439, Note_on_c, 2, 79, 0
8, 112439, Note_on_c, 2, 67, 0
8, 112560, Note_on_c, 2, 80, 68
8, 112560, Note_on_c, 2, 68, 68
8, 112679, Note_on_c, 2, 80, 0
8, 112679, Note_on_c, 2, 68, 0
8, 113520, Note_on_c, 2, 70, 78
8, 113520, Note_on_c, 2, 68, 78
8, 113729, Note_on_c, 2, 70, 0
8, 113729, Note_on_c, 2, 68, 0
8, 113760, Note_on_c, 2, 68, 81
8, 113760, Note_on_c, 2, 70, 81
8, 113969, Note_on_c, 2, 68, 0
8, 113969, Note_on_c, 2, 70, 0
8, 114000, Note_on_c, 2, 70, 84
8, 114000, Note_on_c, 2, 68, 84
8, 114209, Note_on_c, 2, 70, 0
8, 114209, Note_on_c, 2, 68, 0
8, 114240, Note_on_c, 2, 74, 84
8, 114240, Note_on_c, 2, 62, 84
8, 114449, Note_on_c, 2, 74, 0
8, 114449, Note_on_c, 2, 62, 0
8, 114480, Note_on_c, 2, 74, 84
8, 114480, Note_on_c, 2, 62, 84
8, 114689, Note_on_c, 2, 74, 0
8, 114689, Note_on_c, 2, 62, 0
8, 114720, Note_on_c, 2, 62, 84
8, 114720, Note_on_c, 2, 74, 84
8, 114929, Note_on_c, 2, 62, 0
8, 114929, Note_on_c, 2, 74, 0
8, 114960, Note_on_c, 2, 77, 84
8, 114960, Note_on_c, 2, 65, 84
8, 115169, Note_on_c, 2, 77, 0
8, 115169, Note_on_c, 2, 65, 0
8, 115200, Note_on_c, 2, 77, 84
8, 115200, Note_on_c, 2, 65, 84
8, 115409, Note_on_c, 2, 77, 0
8, 115409, Note_on_c, 2, 65, 0
8, 115440, Note_on_c, 2, 77, 84
8, 115440, Note_on_c, 2, 65, 84
8, 115649, Note_on_c, 2, 77, 0
8, 115649, Note_on_c, 2, 65, 0
8, 115680, Note_on_c, 2, 77, 84
8, 115680, Note_on_c, 2, 68, 84
8, 115889, Note_on_c, 2, 77, 0
8, 115889, Note_on_c, 2, 68, 0
8, 115920, Note_on_c, 2, 77, 84
8, 115920, Note_on_c, 2, 68, 84
8, 116129, Note_on_c, 2, 77, 0
8, 116129, Note_on_c, 2, 68, 0
8, 116160, Note_on_c, 2, 68, 84
8, 116160, Note_on_c, 2, 77, 84
8, 116369, Note_on_c, 2, 68, 0
8, 116369, Note_on_c, 2, 77, 0
8, 116400, Note_on_c, 2, 75, 84
8, 116400, Note_on_c, 2, 67, 84
8, 116609, Note_on_c, 2, 75, 0
8, 116609, Note_on_c, 2, 67, 0
8, 116640, Note_on_c, 2, 68, 84
8, 116640, Note_on_c, 2, 65, 84
8, 116849, Note_on_c, 2, 68, 0
8, 116849, Note_on_c, 2, 65, 0
8, 116880, Note_on_c, 2, 63, 76
8, 116880, Note_on_c, 2, 67, 76
8, 117119, Note_on_c, 2, 63, 0
8, 117119, Note_on_c, 2, 67, 0
8, 117600, Note_on_c, 2, 74, 76
8, 117600, Note_on_c, 2, 65, 76
8, 117839, Note_on_c, 2, 74, 0
8, 117839, Note_on_c, 2, 65, 0
8, 118320, Note_on_c, 2, 74, 76
8, 118320, Note_on_c, 2, 65, 76
8, 118559, Note_on_c, 2, 74, 0
8, 118559, Note_on_c, 2, 65, 0
8, 155520, Note_on_c, 2, 68, 52
8, 155639, Note_on_c, 2, 68, 0
8, 155760, Note_on_c, 2, 67, 52
8, 155879, Note_on_c, 2, 67, 0
8, 156000, Note_on_c, 2, 68, 52
8, 156119, Note_on_c, 2, 68, 0
8, 156240, Note_on_c, 2, 67, 52
8, 156359, Note_on_c, 2, 67, 0
8, 156480, Note_on_c, 2, 68, 52
8, 156599, Note_on_c, 2, 68, 0
8, 156720, Note_on_c, 2, 67, 52
8, 156839, Note_on_c, 2, 67, 0
8, 156960, Note_on_c, 2, 68, 52
8, 157079, Note_on_c, 2, 68, 0
8, 157200, Note_on_c, 2, 67, 52
8, 157319, Note_on_c, 2, 67, 0
8, 157440, Note_on_c, 2, 65, 52
8, 157559, Note_on_c, 2, 65, 0
8, 157680, Note_on_c, 2, 66, 52
8, 157799, Note_on_c, 2, 66, 0
8, 157920, Note_on_c, 2, 67, 52
8, 158039, Note_on_c, 2, 67, 0
8, 158160, Note_on_c, 2, 68, 52
8, 158279, Note_on_c, 2, 68, 0
8, 158400, Note_on_c, 2, 69, 52
8, 158519, Note_on_c, 2, 69, 0
8, 158640, Note_on_c, 2, 70, 52
8, 158759, Note_on_c, 2, 70, 0
8, 158880, Note_on_c, 2, 70, 52
8, 158999, Note_on_c, 2, 70, 0
8, 159120, Note_on_c, 2, 70, 52
8, 159239, Note_on_c, 2, 70, 0
8, 159360, Note_on_c, 2, 70, 52
8, 159479, Note_on_c, 2, 70, 0
8, 159600, Note_on_c, 2, 70, 52
8, 159719, Note_on_c, 2, 70, 0
8, 159840, Note_on_c, 2, 70, 52
8, 159959, Note_on_c, 2, 70, 0
8, 160080, Note_on_c, 2, 70, 52
8, 160319, Note_on_c, 2, 70, 0
8, 160320, Note_on_c, 2, 72, 52
8, 160439, Note_on_c, 2, 72, 0
8, 160440, Note_on_c, 2, 70, 52
8, 160559, Note_on_c, 2, 70, 0
8, 160560, Note_on_c, 2, 69, 52
8, 160679, Note_on_c, 2, 69, 0
8, 160680, Note_on_c, 2, 67, 52
8, 160769, Note_on_c, 2, 67, 0
8, 160800, Note_on_c, 2, 65, 52
8, 161489, Note_on_c, 2, 65, 0
8, 161520, Note_on_c, 2, 63, 52
8, 162209, Note_on_c, 2, 63, 0
8, 162240, Note_on_c, 2, 62, 52
8, 162479, Note_on_c, 2, 62, 0
8, 162480, Note_on_c, 2, 65, 52
8, 162689, Note_on_c, 2, 65, 0
8, 162720, Note_on_c, 2, 62, 52
8, 162839, Note_on_c, 2, 62, 0
8, 162960, Note_on_c, 2, 60, 52
8, 163199, Note_on_c, 2, 60, 0
8, 163200, Note_on_c, 2, 63, 52
8, 163409, Note_on_c, 2, 63, 0
8, 163440, Note_on_c, 2, 60, 52
8, 163559, Note_on_c, 2, 60, 0
8, 163680, Note_on_c, 2, 58, 52
8, 163799, Note_on_c, 2, 58, 0
8, 163920, Note_on_c, 2, 60, 62
8, 164039, Note_on_c, 2, 60, 0
8, 164160, Note_on_c, 2, 62, 73
8, 164279, Note_on_c, 2, 62, 0
8, 164400, Note_on_c, 2, 63, 84
8, 164609, Note_on_c, 2, 63, 0
8, 164640, Note_on_c, 2, 75, 84
8, 164640, Note_on_c, 2, 63, 84
8, 164849, Note_on_c, 2, 75, 0
8, 164849, Note_on_c, 2, 63, 0
8, 164880, Note_on_c, 2, 63, 84
8, 164880, Note_on_c, 2, 75, 84
8, 165089, Note_on_c, 2, 63, 0
8, 165089, Note_on_c, 2, 75, 0
8, 165120, Note_on_c, 2, 75, 84
8, 165120, Note_on_c, 2, 63, 84
8, 165329, Note_on_c, 2, 75, 0
8, 165329, Note_on_c, 2, 63, 0
8, 165360, Note_on_c, 2, 63, 84
8, 165360, Note_on_c, 2, 75, 84
8, 165569, Note_on_c, 2, 63, 0
8, 165569, Note_on_c, 2, 75, 0
8, 165600, Note_on_c, 2, 63, 84
8, 165600, Note_on_c, 2, 75, 84
8, 165809, Note_on_c, 2, 63, 0
8, 165809, Note_on_c, 2, 75, 0
8, 165840, Note_on_c, 2, 63, 84
8, 165840, Note_on_c, 2, 75, 84
8, 166079, Note_on_c, 2, 63, 0
8, 166079, Note_on_c, 2, 75, 0
8, 166080, Note_on_c, 2, 77, 84
8, 166080, Note_on_c, 2, 65, 84
8, 166199, Note_on_c, 2, 77, 0
8, 166199, Note_on_c, 2, 65, 0
8, 166200, Note_on_c, 2, 63, 84
8, 166200, Note_on_c, 2, 75, 84
8, 166319, Note_on_c, 2, 63, 0
8, 166319, Note_on_c, 2, 75, 0
8, 166320, Note_on_c, 2, 62, 84
8, 166320, Note_on_c, 2, 74, 84
8, 166439, Note_on_c, 2, 62, 0
8, 166439, Note_on_c, 2, 74, 0
8, 166440, Note_on_c, 2, 60, 84
8, 166440, Note_on_c, 2, 72, 84
8, 166529, Note_on_c, 2, 60, 0
8, 166529, Note_on_c, 2, 72, 0
8, 166560, Note_on_c, 2, 58, 84
8, 166560, Note_on_c, 2, 70, 84
8, 167249, Note_on_c, 2, 58, 0
8, 167249, Note_on_c, 2, 70, 0
8, 167280, Note_on_c, 2, 68, 92
8, 167969, Note_on_c, 2, 68, 0
8, 168000, Note_on_c, 2, 67, 84
8, 168239, Note_on_c, 2, 67, 0
8, 168240, Note_on_c, 2, 70, 84
8, 168449, Note_on_c, 2, 70, 0
8, 168480, Note_on_c, 2, 67, 84
8, 168599, Note_on_c, 2, 67, 0
8, 168720, Note_on_c, 2, 65, 84
8, 168959, Note_on_c, 2, 65, 0
8, 168960, Note_on_c, 2, 70, 84
8, 169169, Note_on_c, 2, 70, 0
8, 169200, Note_on_c, 2, 65, 84
8, 169319, Note_on_c, 2, 65, 0
8, 169440, Note_on_c, 2, 63, 84
8, 169559, Note_on_c, 2, 63, 0
8, 169680, Note_on_c, 2, 67, 84
8, 169799, Note_on_c, 2, 67, 0
8, 169920, Note_on_c, 2, 70, 84
8, 170039, Note_on_c, 2, 70, 0
8, 170160, Note_on_c, 2, 68, 92
8, 170849, Note_on_c, 2, 68, 0
8, 170880, Note_on_c, 2, 67, 84
8, 171119, Note_on_c, 2, 67, 0
8, 171120, Note_on_c, 2, 70, 84
8, 171329, Note_on_c, 2, 70, 0
8, 171360, Note_on_c, 2, 67, 84
8, 171479, Note_on_c, 2, 67, 0
8, 171600, Note_on_c, 2, 65, 84
8, 171839, Note_on_c, 2, 65, 0
8, 171840, Note_on_c, 2, 70, 84
8, 172049, Note_on_c, 2, 70, 0
8, 172080, Note_on_c, 2, 65, 84
8, 172199, Note_on_c, 2, 65, 0
8, 172320, Note_on_c, 2, 63, 84
8, 172439, Note_on_c, 2, 63, 0
8, 172560, Note_on_c, 2, 67, 84
8, 172679, Note_on_c, 2, 67, 0
8, 172800, Note_on_c, 2, 70, 84
8, 172919, Note_on_c, 2, 70, 0
8, 173040, Note_on_c, 2, 68, 92
8, 173040, Note_on_c, 2, 73, 92
8, 173729, Note_on_c, 2, 68, 0
8, 173729, Note_on_c, 2, 73, 0
8, 173760, Note_on_c, 2, 72, 84
8, 173760, Note_on_c, 2, 68, 84
8, 173999, Note_on_c, 2, 72, 0
8, 174000, Note_on_c, 2, 75, 84
8, 174209, Note_on_c, 2, 75, 0
8, 174240, Note_on_c, 2, 72, 84
8, 174359, Note_on_c, 2, 72, 0
8, 174449, Note_on_c, 2, 68, 0
8, 174480, Note_on_c, 2, 70, 84
8, 174480, Note_on_c, 2, 67, 84
8, 174719, Note_on_c, 2, 70, 0
8, 174720, Note_on_c, 2, 75, 84
8, 174929, Note_on_c, 2, 75, 0
8, 174960, Note_on_c, 2, 70, 84
8, 175079, Note_on_c, 2, 70, 0
8, 175169, Note_on_c, 2, 67, 0
8, 175200, Note_on_c, 2, 68, 84
8, 175319, Note_on_c, 2, 68, 0
8, 175440, Note_on_c, 2, 72, 84
8, 175559, Note_on_c, 2, 72, 0
8, 175680, Note_on_c, 2, 75, 84
8, 175799, Note_on_c, 2, 75, 0
8, 175920, Note_on_c, 2, 67, 92
8, 175920, Note_on_c, 2, 73, 92
8, 176609, Note_on_c, 2, 67, 0
8, 176609, Note_on_c, 2, 73, 0
8, 176640, Note_on_c, 2, 72, 84
8, 176759, Note_on_c, 2, 72, 0
8, 176880, Note_on_c, 2, 75, 84
8, 176880, Note_on_c, 2, 72, 84
8, 176999, Note_on_c, 2, 75, 0
8, 176999, Note_on_c, 2, 72, 0
8, 177120, Note_on_c, 2, 72, 84
8, 177120, Note_on_c, 2, 75, 84
8, 177239, Note_on_c, 2, 72, 0
8, 177239, Note_on_c, 2, 75, 0
8, 177360, Note_on_c, 2, 70, 84
8, 177360, Note_on_c, 2, 75, 84
8, 177479, Note_on_c, 2, 70, 0
8, 177479, Note_on_c, 2, 75, 0
8, 177600, Note_on_c, 2, 70, 84
8, 177600, Note_on_c, 2, 75, 84
8, 177719, Note_on_c, 2, 70, 0
8, 177719, Note_on_c, 2, 75, 0
8, 177840, Note_on_c, 2, 75, 84
8, 177840, Note_on_c, 2, 70, 84
8, 177959, Note_on_c, 2, 75, 0
8, 177959, Note_on_c, 2, 70, 0
8, 178080, Note_on_c, 2, 75, 84
8, 178080, Note_on_c, 2, 68, 84
8, 178199, Note_on_c, 2, 75, 0
8, 178199, Note_on_c, 2, 68, 0
8, 178320, Note_on_c, 2, 75, 84
8, 178320, Note_on_c, 2, 68, 84
8, 178439, Note_on_c, 2, 75, 0
8, 178439, Note_on_c, 2, 68, 0
8, 178560, Note_on_c, 2, 75, 84
8, 178560, Note_on_c, 2, 68, 84
8, 178679, Note_on_c, 2, 75, 0
8, 178679, Note_on_c, 2, 68, 0
8, 178800, Note_on_c, 2, 67, 84
8, 178800, Note_on_c, 2, 75, 84
8, 178919, Note_on_c, 2, 67, 0
8, 178919, Note_on_c, 2, 75, 0
8, 179040, Note_on_c, 2, 67, 84
8, 179040, Note_on_c, 2, 75, 84
8, 179159, Note_on_c, 2, 67, 0
8, 179159, Note_on_c, 2, 75, 0
8, 179280, Note_on_c, 2, 67, 84
8, 179280, Note_on_c, 2, 75, 84
8, 179399, Note_on_c, 2, 67, 0
8, 179399, Note_on_c, 2, 75, 0
8, 179520, Note_on_c, 2, 68, 84
8, 179520, Note_on_c, 2, 74, 84
8, 179639, Note_on_c, 2, 68, 0
8, 179639, Note_on_c, 2, 74, 0
8, 179760, Note_on_c, 2, 74, 84
8, 179760, Note_on_c, 2, 68, 84
8, 179879, Note_on_c, 2, 74, 0
8, 179879, Note_on_c, 2, 68, 0
8, 180000, Note_on_c, 2, 74, 84
8, 180000, Note_on_c, 2, 68, 84
8, 180119, Note_on_c, 2, 74, 0
8, 180119, Note_on_c, 2, 68, 0
8, 180240, Note_on_c, 2, 75, 84
8, 180240, Note_on_c, 2, 67, 84
8, 180479, Note_on_c, 2, 75, 0
8, 180479, Note_on_c, 2, 67, 0
8, 183360, Note_on_c, 2, 67, 52
8, 183360, Note_on_c, 2, 75, 52
8, 183569, Note_on_c, 2, 67, 0
8, 183569, Note_on_c, 2, 75, 0
8, 183600, Note_on_c, 2, 75, 52
8, 183600, Note_on_c, 2, 67, 52
8, 183809, Note_on_c, 2, 75, 0
8, 183809, Note_on_c, 2, 67, 0
8, 183840, Note_on_c, 2, 75, 52
8, 183840, Note_on_c, 2, 65, 52
8, 184049, Note_on_c, 2, 75, 0
8, 184049, Note_on_c, 2, 65, 0
8, 184080, Note_on_c, 2, 65, 52
8, 184080, Note_on_c, 2, 75, 52
8, 184289, Note_on_c, 2, 65, 0
8, 184289, Note_on_c, 2, 75, 0
8, 184320, Note_on_c, 2, 66, 52
8, 184320, Note_on_c, 2, 75, 52
8, 184529, Note_on_c, 2, 66, 0
8, 184529, Note_on_c, 2, 75, 0
8, 184560, Note_on_c, 2, 75, 52
8, 184560, Note_on_c, 2, 67, 52
8, 184769, Note_on_c, 2, 75, 0
8, 184769, Note_on_c, 2, 67, 0
8, 184800, Note_on_c, 2, 67, 52
8, 184800, Note_on_c, 2, 75, 52
8, 185009, Note_on_c, 2, 67, 0
8, 185009, Note_on_c, 2, 75, 0
8, 185040, Note_on_c, 2, 67, 52
8, 185040, Note_on_c, 2, 75, 52
8, 185249, Note_on_c, 2, 67, 0
8, 185249, Note_on_c, 2, 75, 0
8, 185280, Note_on_c, 2, 68, 52
8, 185280, Note_on_c, 2, 74, 52
8, 185489, Note_on_c, 2, 68, 0
8, 185489, Note_on_c, 2, 74, 0
8, 185520, Note_on_c, 2, 68, 52
8, 185520, Note_on_c, 2, 74, 52
8, 185729, Note_on_c, 2, 68, 0
8, 185729, Note_on_c, 2, 74, 0
8, 185760, Note_on_c, 2, 68, 52
8, 185760, Note_on_c, 2, 74, 52
8, 185969, Note_on_c, 2, 68, 0
8, 185969, Note_on_c, 2, 74, 0
8, 186000, Note_on_c, 2, 67, 76
8, 186000, Note_on_c, 2, 75, 76
8, 186119, Note_on_c, 2, 67, 0
8, 186119, Note_on_c, 2, 75, 0
8, 186240, Note_on_c, 2, 79, 84
8, 186240, Note_on_c, 2, 67, 84
8, 186689, Note_on_c, 2, 79, 0
8, 186689, Note_on_c, 2, 67, 0
8, 186720, Note_on_c, 2, 63, 76
8, 186720, Note_on_c, 2, 75, 76
8, 186929, Note_on_c, 2, 63, 0
8, 186929, Note_on_c, 2, 75, 0
8, 186960, Note_on_c, 2, 58, 84
8, 186960, Note_on_c, 2, 70, 84
8, 187409, Note_on_c, 2, 58, 0
8, 187409, Note_on_c, 2, 70, 0
8, 187440, Note_on_c, 2, 67, 76
8, 187649, Note_on_c, 2, 67, 0
8, 187680, Note_on_c, 2, 63, 84
8, 187680, Note_on_c, 2, 75, 84
8, 188129, Note_on_c, 2, 63, 0
8, 188129, Note_on_c, 2, 75, 0
8, 188160, Note_on_c, 2, 70, 76
8, 188160, Note_on_c, 2, 58, 76
8, 188399, Note_on_c, 2, 70, 0
8, 188399, Note_on_c, 2, 58, 0
8, 188640, Note_on_c, 2, 68, 76
8, 188699, Note_on_c, 2, 68, 0
8, 188700, Note_on_c, 2, 70, 76
8, 188759, Note_on_c, 2, 70, 0
8, 188760, Note_on_c, 2, 67, 76
8, 188819, Note_on_c, 2, 67, 0
8, 188820, Note_on_c, 2, 68, 76
8, 188879, Note_on_c, 2, 68, 0
8, 188880, Note_on_c, 2, 67, 76
8, 189089, Note_on_c, 2, 67, 0
8, 189120, Note_on_c, 2, 68, 52
8, 189239, Note_on_c, 2, 68, 0
8, 189360, Note_on_c, 2, 67, 52
8, 189479, Note_on_c, 2, 67, 0
8, 189600, Note_on_c, 2, 68, 52
8, 189719, Note_on_c, 2, 68, 0
8, 189840, Note_on_c, 2, 67, 52
8, 189959, Note_on_c, 2, 67, 0
8, 190080, Note_on_c, 2, 68, 52
8, 190199, Note_on_c, 2, 68, 0
8, 190320, Note_on_c, 2, 67, 52
8, 190559, Note_on_c, 2, 67, 0
8, 192000, Note_on_c, 2, 66, 52
8, 192119, Note_on_c, 2, 66, 0
8, 192240, Note_on_c, 2, 65, 52
8, 192359, Note_on_c, 2, 65, 0
8, 192480, Note_on_c, 2, 66, 52
8, 192599, Note_on_c, 2, 66, 0
8, 192720, Note_on_c, 2, 65, 52
8, 192839, Note_on_c, 2, 65, 0
8, 192960, Note_on_c, 2, 66, 52
8, 193079, Note_on_c, 2, 66, 0
8, 193200, Note_on_c, 2, 65, 52
8, 193319, Note_on_c, 2, 65, 0
8, 194880, Note_on_c, 2, 68, 52
8, 194880, Note_on_c, 2, 75, 52
8, 194999, Note_on_c, 2, 68, 0
8, 194999, Note_on_c, 2, 75, 0
8, 195120, Note_on_c, 2, 75, 52
8, 195120, Note_on_c, 2, 67, 52
8, 195239, Note_on_c, 2, 75, 0
8, 195239, Note_on_c, 2, 67, 0
8, 195360, Note_on_c, 2, 75, 52
8, 195360, Note_on_c, 2, 68, 52
8, 195479, Note_on_c, 2, 75, 0
8, 195479, Note_on_c, 2, 68, 0
8, 195600, Note_on_c, 2, 75, 52
8, 195600, Note_on_c, 2, 67, 52
8, 195719, Note_on_c, 2, 75, 0
8, 195719, Note_on_c, 2, 67, 0
8, 195840, Note_on_c, 2, 75, 52
8, 195840, Note_on_c, 2, 68, 52
8, 195959, Note_on_c, 2, 75, 0
8, 195959, Note_on_c, 2, 68, 0
8, 196080, Note_on_c, 2, 75, 52
8, 196080, Note_on_c, 2, 67, 52
8, 196199, Note_on_c, 2, 75, 0
8, 196199, Note_on_c, 2, 67, 0
8, 197760, Note_on_c, 2, 75, 52
8, 197760, Note_on_c, 2, 68, 52
8, 197879, Note_on_c, 2, 75, 0
8, 197879, Note_on_c, 2, 68, 0
8, 198000, Note_on_c, 2, 75, 52
8, 198000, Note_on_c, 2, 67, 52
8, 198119, Note_on_c, 2, 75, 0
8, 198119, Note_on_c, 2, 67, 0
8, 198240, Note_on_c, 2, 68, 52
8, 198240, Note_on_c, 2, 75, 52
8, 198359, Note_on_c, 2, 68, 0
8, 198359, Note_on_c, 2, 75, 0
8, 198480, Note_on_c, 2, 75, 52
8, 198480, Note_on_c, 2, 67, 52
8, 198599, Note_on_c, 2, 75, 0
8, 198599, Note_on_c, 2, 67, 0
8, 198720, Note_on_c, 2, 75, 52
8, 198720, Note_on_c, 2, 68, 52
8, 198839, Note_on_c, 2, 75, 0
8, 198839, Note_on_c, 2, 68, 0
8, 198960, Note_on_c, 2, 75, 52
8, 198960, Note_on_c, 2, 67, 52
8, 199079, Note_on_c, 2, 75, 0
8, 199079, Note_on_c, 2, 67, 0
8, 199200, Note_on_c, 2, 68, 52
8, 199200, Note_on_c, 2, 72, 52
8, 199319, Note_on_c, 2, 68, 0
8, 199319, Note_on_c, 2, 72, 0
8, 199440, Note_on_c, 2, 67, 52
8, 199440, Note_on_c, 2, 70, 52
8, 199559, Note_on_c, 2, 67, 0
8, 199559, Note_on_c, 2, 70, 0
8, 199680, Note_on_c, 2, 72, 52
8, 199680, Note_on_c, 2, 68, 52
8, 199799, Note_on_c, 2, 72, 0
8, 199799, Note_on_c, 2, 68, 0
8, 199920, Note_on_c, 2, 67, 52
8, 199920, Note_on_c, 2, 70, 52
8, 200039, Note_on_c, 2, 67, 0
8, 200039, Note_on_c, 2, 70, 0
8, 200160, Note_on_c, 2, 72, 52
8, 200160, Note_on_c, 2, 68, 52
8, 200279, Note_on_c, 2, 72, 0
8, 200279, Note_on_c, 2, 68, 0
8, 200400, Note_on_c, 2, 70, 52
8, 200400, Note_on_c, 2, 67, 52
8, 200519, Note_on_c, 2, 70, 0
8, 200519, Note_on_c, 2, 67, 0
8, 206160, Note_on_c, 2, 75, 52
8, 206160, Note_on_c, 2, 67, 52
8, 206399, Note_on_c, 2, 75, 0
8, 206399, Note_on_c, 2, 67, 0
8, 206880, Note_on_c, 2, 72, 52
8, 206880, Note_on_c, 2, 67, 52
8, 207119, Note_on_c, 2, 72, 0
8, 207119, Note_on_c, 2, 67, 0
8, 207600, Note_on_c, 2, 72, 52
8, 207600, Note_on_c, 2, 56, 52
8, 207839, Note_on_c, 2, 72, 0
8, 207839, Note_on_c, 2, 56, 0
8, 208320, Note_on_c, 2, 74, 52
8, 208320, Note_on_c, 2, 65, 52
8, 208559, Note_on_c, 2, 74, 0
8, 208559, Note_on_c, 2, 65, 0
8, 209040, Note_on_c, 2, 67, 52
8, 209040, Note_on_c, 2, 74, 52
8, 209159, Note_on_c, 2, 67, 0
8, 209159, Note_on_c, 2, 74, 0
8, 209280, Note_on_c, 2, 61, 54
8, 209280, Note_on_c, 2, 73, 54
8, 209399, Note_on_c, 2, 61, 0
8, 209399, Note_on_c, 2, 73, 0
8, 209520, Note_on_c, 2, 74, 57
8, 209520, Note_on_c, 2, 62, 57
8, 209639, Note_on_c, 2, 74, 0
8, 209639, Note_on_c, 2, 62, 0
8, 209760, Note_on_c, 2, 63, 60
8, 209760, Note_on_c, 2, 75, 60
8, 209879, Note_on_c, 2, 63, 0
8, 209879, Note_on_c, 2, 75, 0
8, 210000, Note_on_c, 2, 77, 62
8, 210000, Note_on_c, 2, 65, 62
8, 210119, Note_on_c, 2, 77, 0
8, 210119, Note_on_c, 2, 65, 0
8, 210240, Note_on_c, 2, 67, 65
8, 210240, Note_on_c, 2, 79, 65
8, 210359, Note_on_c, 2, 67, 0
8, 210359, Note_on_c, 2, 79, 0
8, 210480, Note_on_c, 2, 68, 68
8, 210480, Note_on_c, 2, 80, 68
8, 210599, Note_on_c, 2, 68, 0
8, 210599, Note_on_c, 2, 80, 0
8, 211440, Note_on_c, 2, 70, 78
8, 211440, Note_on_c, 2, 68, 78
8, 211649, Note_on_c, 2, 70, 0
8, 211649, Note_on_c, 2, 68, 0
8, 211680, Note_on_c, 2, 70, 81
8, 211680, Note_on_c, 2, 68, 81
8, 211889, Note_on_c, 2, 70, 0
8, 211889, Note_on_c, 2, 68, 0
8, 211920, Note_on_c, 2, 70, 84
8, 211920, Note_on_c, 2, 68, 84
8, 212129, Note_on_c, 2, 70, 0
8, 212129, Note_on_c, 2, 68, 0
8, 212160, Note_on_c, 2, 74, 84
8, 212160, Note_on_c, 2, 62, 84
8, 212369, Note_on_c, 2, 74, 0
8, 212369, Note_on_c, 2, 62, 0
8, 212400, Note_on_c, 2, 62, 84
8, 212400, Note_on_c, 2, 74, 84
8, 212609, Note_on_c, 2, 62, 0
8, 212609, Note_on_c, 2, 74, 0
8, 212640, Note_on_c, 2, 62, 84
8, 212640, Note_on_c, 2, 74, 84
8, 212849, Note_on_c, 2, 62, 0
8, 212849, Note_on_c, 2, 74, 0
8, 212880, Note_on_c, 2, 65, 84
8, 212880, Note_on_c, 2, 77, 84
8, 213089, Note_on_c, 2, 65, 0
8, 213089, Note_on_c, 2, 77, 0
8, 213120, Note_on_c, 2, 65, 84
8, 213120, Note_on_c, 2, 77, 84
8, 213329, Note_on_c, 2, 65, 0
8, 213329, Note_on_c, 2, 77, 0
8, 213360, Note_on_c, 2, 77, 84
8, 213360, Note_on_c, 2, 65, 84
8, 213569, Note_on_c, 2, 77, 0
8, 213569, Note_on_c, 2, 65, 0
8, 213600, Note_on_c, 2, 77, 84
8, 213600, Note_on_c, 2, 68, 84
8, 213809, Note_on_c, 2, 77, 0
8, 213809, Note_on_c, 2, 68, 0
8, 213840, Note_on_c, 2, 77, 84
8, 213840, Note_on_c, 2, 68, 84
8, 214049, Note_on_c, 2, 77, 0
8, 214049, Note_on_c, 2, 68, 0
8, 214080, Note_on_c, 2, 77, 84
8, 214080, Note_on_c, 2, 68, 84
8, 214289, Note_on_c, 2, 77, 0
8, 214289, Note_on_c, 2, 68, 0
8, 214320, Note_on_c, 2, 67, 84
8, 214320, Note_on_c, 2, 75, 84
8, 214529, Note_on_c, 2, 67, 0
8, 214529, Note_on_c, 2, 75, 0
8, 214560, Note_on_c, 2, 68, 84
8, 214560, Note_on_c, 2, 65, 84
8, 214769, Note_on_c, 2, 68, 0
8, 214769, Note_on_c, 2, 65, 0
8, 214800, Note_on_c, 2, 63, 76
8, 214800, Note_on_c, 2, 67, 76
8, 215039, Note_on_c, 2, 63, 0
8, 215039, Note_on_c, 2, 67, 0
8, 215520, Note_on_c, 2, 65, 76
8, 215520, Note_on_c, 2, 74, 76
8, 215759, Note_on_c, 2, 65, 0
8, 215759, Note_on_c, 2, 74, 0
8, 216240, Note_on_c, 2, 67, 76
8, 216240, Note_on_c, 2, 75, 76
8, 216479, Note_on_c, 2, 67, 0
8, 216479, Note_on_c, 2, 75, 0
8, 239760, Note_on_c, 2, 63, 76
8, 239760, Note_on_c, 2, 75, 76
8, 239969, Note_on_c, 2, 63, 0
8, 239969, Note_on_c, 2, 75, 0
8, 240000, Note_on_c, 2, 63, 76
8, 240000, Note_on_c, 2, 75, 76
8, 240449, Note_on_c, 2, 63, 0
8, 240449, Note_on_c, 2, 75, 0
8, 240480, Note_on_c, 2, 63, 76
8, 240480, Note_on_c, 2, 75, 76
8, 240689, Note_on_c, 2, 63, 0
8, 240689, Note_on_c, 2, 75, 0
8, 240720, Note_on_c, 2, 63, 76
8, 240720, Note_on_c, 2, 75, 76
8, 241169, Note_on_c, 2, 63, 0
8, 241169, Note_on_c, 2, 75, 0
8, 241200, Note_on_c, 2, 75, 76
8, 241200, Note_on_c, 2, 63, 76
8, 241409, Note_on_c, 2, 75, 0
8, 241409, Note_on_c, 2, 63, 0
8, 241440, Note_on_c, 2, 75, 76
8, 241440, Note_on_c, 2, 63, 76
8, 241889, Note_on_c, 2, 75, 0
8, 241889, Note_on_c, 2, 63, 0
8, 241920, Note_on_c, 2, 75, 76
8, 241920, Note_on_c, 2, 63, 76
8, 242129, Note_on_c, 2, 75, 0
8, 242129, Note_on_c, 2, 63, 0
8, 242160, Note_on_c, 2, 75, 76
8, 242399, Note_on_c, 2, 75, 0
8, 242400, Note_on_c, 2, 72, 76
8, 242639, Note_on_c, 2, 72, 0
8, 242640, Note_on_c, 2, 70, 76
8, 242879, Note_on_c, 2, 70, 0
8, 242880, Note_on_c, 2, 68, 76
8, 242999, Note_on_c, 2, 68, 0
8, 243360, Note_on_c, 2, 60, 76
8, 243360, Note_on_c, 2, 72, 76
8, 243569, Note_on_c, 2, 60, 0
8, 243569, Note_on_c, 2, 72, 0
8, 243600, Note_on_c, 2, 60, 76
8, 243600, Note_on_c, 2, 72, 76
8, 244049, Note_on_c, 2, 60, 0
8, 244049, Note_on_c, 2, 72, 0
8, 244080, Note_on_c, 2, 60, 76
8, 244080, Note_on_c, 2, 72, 76
8, 244289, Note_on_c, 2, 60, 0
8, 244289, Note_on_c, 2, 72, 0
8, 244320, Note_on_c, 2, 60, 76
8, 244320, Note_on_c, 2, 72, 76
8, 244769, Note_on_c, 2, 60, 0
8, 244769, Note_on_c, 2, 72, 0
8, 244800, Note_on_c, 2, 60, 76
8, 244800, Note_on_c, 2, 72, 76
8, 245009, Note_on_c, 2, 60, 0
8, 245009, Note_on_c, 2, 72, 0
8, 245040, Note_on_c, 2, 72, 76
8, 245279, Note_on_c, 2, 72, 0
8, 245280, Note_on_c, 2, 68, 76
8, 245519, Note_on_c, 2, 68, 0
8, 245520, Note_on_c, 2, 67, 76
8, 245759, Note_on_c, 2, 67, 0
8, 245760, Note_on_c, 2, 65, 76
8, 245879, Note_on_c, 2, 65, 0
8, 270000, Note_on_c, 2, 75, 52
8, 270000, Note_on_c, 2, 63, 52
8, 270239, Note_on_c, 2, 75, 0
8, 270239, Note_on_c, 2, 63, 0
8, 270240, Note_on_c, 2, 75, 76
8, 270240, Note_on_c, 2, 63, 76
8, 270360, Control_c, 2, 11, 112
8, 270470, Control_c, 2, 11, 109
8, 270580, Control_c, 2, 11, 107
8, 270690, Control_c, 2, 11, 104
8, 270800, Control_c, 2, 11, 101
8, 270910, Control_c, 2, 11, 99
8, 271020, Control_c, 2, 11, 96
8, 271130, Control_c, 2, 11, 93
8, 271240, Control_c, 2, 11, 91
8, 271350, Control_c, 2, 11, 88
8, 271460, Control_c, 2, 11, 85
8, 271570, Control_c, 2, 11, 80
8, 272159, Note_on_c, 2, 75, 0
8, 272159, Note_on_c, 2, 63, 0
8, 272160, Note_on_c, 2, 62, 76
8, 272160, Note_on_c, 2, 74, 76
8, 272399, Note_on_c, 2, 62, 0
8, 272399, Note_on_c, 2, 74, 0
8, 272400, Note_on_c, 2, 63, 76
8, 272400, Note_on_c, 2, 75, 76
8, 272639, Note_on_c, 2, 63, 0
8, 272639, Note_on_c, 2, 75, 0
8, 275280, Control_c, 2, 11, 127
8, 275760, Note_on_c, 2, 63, 44
8, 275760, Note_on_c, 2, 75, 44
8, 277169, Note_on_c, 2, 63, 0
8, 277169, Note_on_c, 2, 75, 0
8, 277200, Note_on_c, 2, 75, 44
8, 277200, Note_on_c, 2, 63, 44
8, 278399, Note_on_c, 2, 75, 0
8, 278399, Note_on_c, 2, 63, 0
8, 284400, Note_on_c, 2, 75, 76
8, 284400, Note_on_c, 2, 63, 76
8, 284609, Note_on_c, 2, 75, 0
8, 284609, Note_on_c, 2, 63, 0
8, 284640, Note_on_c, 2, 75, 76
8, 284640, Note_on_c, 2, 63, 76
8, 285089, Note_on_c, 2, 75, 0
8, 285089, Note_on_c, 2, 63, 0
8, 285120, Note_on_c, 2, 75, 76
8, 285120, Note_on_c, 2, 63, 76
8, 285329, Note_on_c, 2, 75, 0
8, 285329, Note_on_c, 2, 63, 0
8, 285360, Note_on_c, 2, 75, 76
8, 285360, Note_on_c, 2, 63, 76
8, 285809, Note_on_c, 2, 75, 0
8, 285809, Note_on_c, 2, 63, 0
8, 285840, Note_on_c, 2, 63, 76
8, 285840, Note_on_c, 2, 75, 76
8, 286049, Note_on_c, 2, 63, 0
8, 286049, Note_on_c, 2, 75, 0
8, 286080, Note_on_c, 2, 75, 76
8, 286080, Note_on_c, 2, 63, 76
8, 286529, Note_on_c, 2, 75, 0
8, 286529, Note_on_c, 2, 63, 0
8, 286560, Note_on_c, 2, 63, 76
8, 286560, Note_on_c, 2, 75, 76
8, 286769, Note_on_c, 2, 63, 0
8, 286769, Note_on_c, 2, 75, 0
8, 286800, Note_on_c, 2, 75, 76
8, 287039, Note_on_c, 2, 75, 0
8, 287040, Note_on_c, 2, 72, 76
8, 287279, Note_on_c, 2, 72, 0
8, 287280, Note_on_c, 2, 70, 76
8, 287519, Note_on_c, 2, 70, 0
8, 287520, Note_on_c, 2, 68, 76
8, 287639, Note_on_c, 2, 68, 0
8, 288000, Note_on_c, 2, 72, 76
8, 288000, Note_on_c, 2, 60, 76
8, 288209, Note_on_c, 2, 72, 0
8, 288209, Note_on_c, 2, 60, 0
8, 288240, Note_on_c, 2, 60, 76
8, 288240, Note_on_c, 2, 72, 76
8, 288689, Note_on_c, 2, 60, 0
8, 288689, Note_on_c, 2, 72, 0
8, 288720, Note_on_c, 2, 72, 76
8, 288720, Note_on_c, 2, 60, 76
8, 288929, Note_on_c, 2, 72, 0
8, 288929, Note_on_c, 2, 60, 0
8, 288960, Note_on_c, 2, 72, 76
8, 288960, Note_on_c, 2, 60, 76
8, 289409, Note_on_c, 2, 72, 0
8, 289409, Note_on_c, 2, 60, 0
8, 289440, Note_on_c, 2, 72, 76
8, 289440, Note_on_c, 2, 60, 76
8, 289649, Note_on_c, 2, 72, 0
8, 289649, Note_on_c, 2, 60, 0
8, 289680, Note_on_c, 2, 72, 76
8, 289919, Note_on_c, 2, 72, 0
8, 289920, Note_on_c, 2, 68, 76
8, 290159, Note_on_c, 2, 68, 0
8, 290160, Note_on_c, 2, 67, 76
8, 290399, Note_on_c, 2, 67, 0
8, 290400, Note_on_c, 2, 65, 76
8, 290519, Note_on_c, 2, 65, 0
8, 314640, Note_on_c, 2, 63, 52
8, 314640, Note_on_c, 2, 75, 52
8, 314879, Note_on_c, 2, 63, 0
8, 314879, Note_on_c, 2, 75, 0
8, 314880, Note_on_c, 2, 75, 76
8, 314880, Note_on_c, 2, 63, 76
8, 315000, Control_c, 2, 11, 112
8, 315110, Control_c, 2, 11, 109
8, 315220, Control_c, 2, 11, 107
8, 315330, Control_c, 2, 11, 104
8, 315440, Control_c, 2, 11, 101
8, 315550, Control_c, 2, 11, 99
8, 315660, Control_c, 2, 11, 96
8, 315770, Control_c, 2, 11, 93
8, 315880, Control_c, 2, 11, 91
8, 315990, Control_c, 2, 11, 88
8, 316100, Control_c, 2, 11, 85
8, 316210, Control_c, 2, 11, 80
8, 316799, Note_on_c, 2, 75, 0
8, 316799, Note_on_c, 2, 63, 0
8, 316800, Note_on_c, 2, 62, 76
8, 316800, Note_on_c, 2, 74, 76
8, 317039, Note_on_c, 2, 62, 0
8, 317039, Note_on_c, 2, 74, 0
8, 317040, Note_on_c, 2, 75, 76
8, 317040, Note_on_c, 2, 63, 76
8, 317279, Note_on_c, 2, 75, 0
8, 317279, Note_on_c, 2, 63, 0
8, 319920, Control_c, 2, 11, 127
8, 320400, Note_on_c, 2, 63, 44
8, 320400, Note_on_c, 2, 75, 44
8, 321809, Note_on_c, 2, 63, 0
8, 321809, Note_on_c, 2, 75, 0
8, 321840, Note_on_c, 2, 63, 44
8, 321840, Note_on_c, 2, 75, 44
8, 323039, Note_on_c, 2, 63, 0
8, 323039, Note_on_c, 2, 75, 0
8, 385920, Note_on_c, 2, 68, 52
8, 386039, Note_on_c, 2, 68, 0
8, 386160, Note_on_c, 2, 67, 52
8, 386279, Note_on_c, 2, 67, 0
8, 386400, Note_on_c, 2, 68, 52
8, 386519, Note_on_c, 2, 68, 0
8, 386640, Note_on_c, 2, 67, 52
8, 386759, Note_on_c, 2, 67, 0
8, 386880, Note_on_c, 2, 68, 52
8, 386999, Note_on_c, 2, 68, 0
8, 387120, Note_on_c, 2, 67, 52
8, 387239, Note_on_c, 2, 67, 0
8, 387360, Note_on_c, 2, 68, 52
8, 387479, Note_on_c, 2, 68, 0
8, 387600, Note_on_c, 2, 67, 52
8, 387719, Note_on_c, 2, 67, 0
8, 387840, Note_on_c, 2, 65, 52
8, 388049, Note_on_c, 2, 65, 0
8, 388080, Note_on_c, 2, 66, 52
8, 388289, Note_on_c, 2, 66, 0
8, 388320, Note_on_c, 2, 67, 52
8, 388529, Note_on_c, 2, 67, 0
8, 388560, Note_on_c, 2, 68, 52
8, 388769, Note_on_c, 2, 68, 0
8, 388800, Note_on_c, 2, 69, 52
8, 389009, Note_on_c, 2, 69, 0
8, 389040, Note_on_c, 2, 70, 52
8, 389249, Note_on_c, 2, 70, 0
8, 389280, Note_on_c, 2, 70, 52
8, 389489, Note_on_c, 2, 70, 0
8, 389520, Note_on_c, 2, 70, 52
8, 389729, Note_on_c, 2, 70, 0
8, 389760, Note_on_c, 2, 70, 52
8, 389969, Note_on_c, 2, 70, 0
8, 390000, Note_on_c, 2, 70, 52
8, 390209, Note_on_c, 2, 70, 0
8, 390240, Note_on_c, 2, 70, 52
8, 390449, Note_on_c, 2, 70, 0
8, 390480, Note_on_c, 2, 70, 52
8, 390719, Note_on_c, 2, 70, 0
8, 390720, Note_on_c, 2, 72, 52
8, 390839, Note_on_c, 2, 72, 0
8, 390840, Note_on_c, 2, 70, 52
8, 390959, Note_on_c, 2, 70, 0
8, 390960, Note_on_c, 2, 69, 52
8, 391079, Note_on_c, 2, 69, 0
8, 391080, Note_on_c, 2, 67, 52
8, 391169, Note_on_c, 2, 67, 0
8, 391200, Note_on_c, 2, 65, 52
8, 391889, Note_on_c, 2, 65, 0
8, 391920, Note_on_c, 2, 63, 52
8, 392609, Note_on_c, 2, 63, 0
8, 392640, Note_on_c, 2, 62, 52
8, 392879, Note_on_c, 2, 62, 0
8, 392880, Note_on_c, 2, 65, 52
8, 393089, Note_on_c, 2, 65, 0
8, 393120, Note_on_c, 2, 62, 52
8, 393239, Note_on_c, 2, 62, 0
8, 393360, Note_on_c, 2, 60, 52
8, 393599, Note_on_c, 2, 60, 0
8, 393600, Note_on_c, 2, 63, 52
8, 393809, Note_on_c, 2, 63, 0
8, 393840, Note_on_c, 2, 60, 52
8, 393959, Note_on_c, 2, 60, 0
8, 394080, Note_on_c, 2, 58, 52
8, 394199, Note_on_c, 2, 58, 0
8, 394320, Note_on_c, 2, 60, 62
8, 394439, Note_on_c, 2, 60, 0
8, 394560, Note_on_c, 2, 62, 73
8, 394679, Note_on_c, 2, 62, 0
8, 394800, Note_on_c, 2, 63, 84
8, 395009, Note_on_c, 2, 63, 0
8, 395040, Note_on_c, 2, 75, 84
8, 395040, Note_on_c, 2, 63, 84
8, 395249, Note_on_c, 2, 75, 0
8, 395249, Note_on_c, 2, 63, 0
8, 395280, Note_on_c, 2, 63, 84
8, 395280, Note_on_c, 2, 75, 84
8, 395489, Note_on_c, 2, 63, 0
8, 395489, Note_on_c, 2, 75, 0
8, 395520, Note_on_c, 2, 63, 84
8, 395520, Note_on_c, 2, 75, 84
8, 395729, Note_on_c, 2, 63, 0
8, 395729, Note_on_c, 2, 75, 0
8, 395760, Note_on_c, 2, 63, 84
8, 395760, Note_on_c, 2, 75, 84
8, 395969, Note_on_c, 2, 63, 0
8, 395969, Note_on_c, 2, 75, 0
8, 396000, Note_on_c, 2, 63, 84
8, 396000, Note_on_c, 2, 75, 84
8, 396209, Note_on_c, 2, 63, 0
8, 396209, Note_on_c, 2, 75, 0
8, 396240, Note_on_c, 2, 63, 84
8, 396240, Note_on_c, 2, 75, 84
8, 396479, Note_on_c, 2, 63, 0
8, 396479, Note_on_c, 2, 75, 0
8, 396480, Note_on_c, 2, 77, 84
8, 396480, Note_on_c, 2, 65, 84
8, 396599, Note_on_c, 2, 77, 0
8, 396599, Note_on_c, 2, 65, 0
8, 396600, Note_on_c, 2, 75, 84
8, 396600, Note_on_c, 2, 63, 84
8, 396719, Note_on_c, 2, 75, 0
8, 396719, Note_on_c, 2, 63, 0
8, 396720, Note_on_c, 2, 74, 84
8, 396720, Note_on_c, 2, 62, 84
8, 396839, Note_on_c, 2, 74, 0
8, 396839, Note_on_c, 2, 62, 0
8, 396840, Note_on_c, 2, 72, 84
8, 396840, Note_on_c, 2, 60, 84
8, 396929, Note_on_c, 2, 72, 0
8, 396929, Note_on_c, 2, 60, 0
8, 396960, Note_on_c, 2, 70, 84
8, 396960, Note_on_c, 2, 58, 84
8, 397649, Note_on_c, 2, 70, 0
8, 397649, Note_on_c, 2, 58, 0
8, 397680, Note_on_c, 2, 68, 92
8, 398369, Note_on_c, 2, 68, 0
8, 398400, Note_on_c, 2, 67, 84
8, 398639, Note_on_c, 2, 67, 0
8, 398640, Note_on_c, 2, 70, 84
8, 398849, Note_on_c, 2, 70, 0
8, 398880, Note_on_c, 2, 68, 84
8, 398999, Note_on_c, 2, 68, 0
8, 399120, Note_on_c, 2, 65, 84
8, 399359, Note_on_c, 2, 65, 0
8, 399360, Note_on_c, 2, 70, 84
8, 399569, Note_on_c, 2, 70, 0
8, 399600, Note_on_c, 2, 65, 84
8, 399719, Note_on_c, 2, 65, 0
8, 399840, Note_on_c, 2, 63, 84
8, 399959, Note_on_c, 2, 63, 0
8, 400080, Note_on_c, 2, 67, 84
8, 400199, Note_on_c, 2, 67, 0
8, 400320, Note_on_c, 2, 70, 84
8, 400439, Note_on_c, 2, 70, 0
8, 400560, Note_on_c, 2, 68, 92
8, 401249, Note_on_c, 2, 68, 0
8, 401280, Note_on_c, 2, 67, 84
8, 401519, Note_on_c, 2, 67, 0
8, 401520, Note_on_c, 2, 70, 84
8, 401729, Note_on_c, 2, 70, 0
8, 401760, Note_on_c, 2, 67, 84
8, 401879, Note_on_c, 2, 67, 0
8, 402000, Note_on_c, 2, 65, 84
8, 402239, Note_on_c, 2, 65, 0
8, 402240, Note_on_c, 2, 70, 84
8, 402449, Note_on_c, 2, 70, 0
8, 402480, Note_on_c, 2, 65, 84
8, 402599, Note_on_c, 2, 65, 0
8, 402720, Note_on_c, 2, 63, 84
8, 402839, Note_on_c, 2, 63, 0
8, 402960, Note_on_c, 2, 67, 84
8, 403079, Note_on_c, 2, 67, 0
8, 403200, Note_on_c, 2, 70, 84
8, 403319, Note_on_c, 2, 70, 0
8, 403440, Note_on_c, 2, 73, 84
8, 403440, Note_on_c, 2, 68, 84
8, 404129, Note_on_c, 2, 73, 0
8, 404129, Note_on_c, 2, 68, 0
8, 404160, Note_on_c, 2, 72, 84
8, 404160, Note_on_c, 2, 68, 84
8, 404399, Note_on_c, 2, 72, 0
8, 404400, Note_on_c, 2, 75, 84
8, 404609, Note_on_c, 2, 75, 0
8, 404640, Note_on_c, 2, 72, 84
8, 404759, Note_on_c, 2, 72, 0
8, 404849, Note_on_c, 2, 68, 0
8, 404880, Note_on_c, 2, 70, 84
8, 404880, Note_on_c, 2, 67, 84
8, 405119, Note_on_c, 2, 70, 0
8, 405120, Note_on_c, 2, 75, 84
8, 405329, Note_on_c, 2, 75, 0
8, 405360, Note_on_c, 2, 70, 84
8, 405479, Note_on_c, 2, 70, 0
8, 405569, Note_on_c, 2, 67, 0
8, 405600, Note_on_c, 2, 68, 84
8, 405719, Note_on_c, 2, 68, 0
8, 405840, Note_on_c, 2, 72, 84
8, 405959, Note_on_c, 2, 72, 0
8, 406080, Note_on_c, 2, 75, 84
8, 406199, Note_on_c, 2, 75, 0
8, 406320, Note_on_c, 2, 67, 84
8, 406320, Note_on_c, 2, 73, 84
8, 407009, Note_on_c, 2, 67, 0
8, 407009, Note_on_c, 2, 73, 0
8, 407040, Note_on_c, 2, 72, 84
8, 407249, Note_on_c, 2, 72, 0
8, 407280, Note_on_c, 2, 75, 84
8, 407280, Note_on_c, 2, 72, 84
8, 407489, Note_on_c, 2, 75, 0
8, 407489, Note_on_c, 2, 72, 0
8, 407520, Note_on_c, 2, 75, 84
8, 407520, Note_on_c, 2, 72, 84
8, 407729, Note_on_c, 2, 75, 0
8, 407729, Note_on_c, 2, 72, 0
8, 407760, Note_on_c, 2, 75, 84
8, 407760, Note_on_c, 2, 70, 84
8, 407969, Note_on_c, 2, 75, 0
8, 407969, Note_on_c, 2, 70, 0
8, 408000, Note_on_c, 2, 75, 84
8, 408000, Note_on_c, 2, 70, 84
8, 408209, Note_on_c, 2, 75, 0
8, 408209, Note_on_c, 2, 70, 0
8, 408240, Note_on_c, 2, 70, 84
8, 408240, Note_on_c, 2, 75, 84
8, 408449, Note_on_c, 2, 70, 0
8, 408449, Note_on_c, 2, 75, 0
8, 408480, Note_on_c, 2, 68, 84
8, 408480, Note_on_c, 2, 75, 84
8, 408689, Note_on_c, 2, 68, 0
8, 408689, Note_on_c, 2, 75, 0
8, 408720, Note_on_c, 2, 68, 84
8, 408720, Note_on_c, 2, 75, 84
8, 408929, Note_on_c, 2, 68, 0
8, 408929, Note_on_c, 2, 75, 0
8, 408960, Note_on_c, 2, 68, 84
8, 408960, Note_on_c, 2, 75, 84
8, 409169, Note_on_c, 2, 68, 0
8, 409169, Note_on_c, 2, 75, 0
8, 409200, Note_on_c, 2, 67, 84
8, 409200, Note_on_c, 2, 75, 84
8, 409409, Note_on_c, 2, 67, 0
8, 409409, Note_on_c, 2, 75, 0
8, 409440, Note_on_c, 2, 75, 84
8, 409440, Note_on_c, 2, 67, 84
8, 409649, Note_on_c, 2, 75, 0
8, 409649, Note_on_c, 2, 67, 0
8, 409680, Note_on_c, 2, 67, 84
8, 409680, Note_on_c, 2, 75, 84
8, 409889, Note_on_c, 2, 67, 0
8, 409889, Note_on_c, 2, 75, 0
8, 409920, Note_on_c, 2, 74, 84
8, 409920, Note_on_c, 2, 68, 84
8, 410129, Note_on_c, 2, 74, 0
8, 410129, Note_on_c, 2, 68, 0
8, 410160, Note_on_c, 2, 68, 84
8, 410160, Note_on_c, 2, 74, 84
8, 410369, Note_on_c, 2, 68, 0
8, 410369, Note_on_c, 2, 74, 0
8, 410400, Note_on_c, 2, 74, 84
8, 410400, Note_on_c, 2, 68, 84
8, 410609, Note_on_c, 2, 74, 0
8, 410609, Note_on_c, 2, 68, 0
8, 410640, Note_on_c, 2, 67, 84
8, 410640, Note_on_c, 2, 75, 84
8, 410879, Note_on_c, 2, 67, 0
8, 410879, Note_on_c, 2, 75, 0
8, 413760, Note_on_c, 2, 67, 52
8, 413760, Note_on_c, 2, 75, 52
8, 413879, Note_on_c, 2, 67, 0
8, 413879, Note_on_c, 2, 75, 0
8, 414000, Note_on_c, 2, 67, 52
8, 414000, Note_on_c, 2, 75, 52
8, 414119, Note_on_c, 2, 67, 0
8, 414119, Note_on_c, 2, 75, 0
8, 414240, Note_on_c, 2, 65, 52
8, 414240, Note_on_c, 2, 75, 52
8, 414359, Note_on_c, 2, 65, 0
8, 414359, Note_on_c, 2, 75, 0
8, 414480, Note_on_c, 2, 65, 52
8, 414480, Note_on_c, 2, 75, 52
8, 414599, Note_on_c, 2, 65, 0
8, 414599, Note_on_c, 2, 75, 0
8, 414720, Note_on_c, 2, 66, 52
8, 414720, Note_on_c, 2, 75, 52
8, 414839, Note_on_c, 2, 66, 0
8, 414839, Note_on_c, 2, 75, 0
8, 414960, Note_on_c, 2, 67, 52
8, 414960, Note_on_c, 2, 75, 52
8, 415079, Note_on_c, 2, 67, 0
8, 415079, Note_on_c, 2, 75, 0
8, 415200, Note_on_c, 2, 67, 52
8, 415200, Note_on_c, 2, 75, 52
8, 415319, Note_on_c, 2, 67, 0
8, 415319, Note_on_c, 2, 75, 0
8, 415440, Note_on_c, 2, 75, 52
8, 415440, Note_on_c, 2, 67, 52
8, 415559, Note_on_c, 2, 75, 0
8, 415559, Note_on_c, 2, 67, 0
8, 415680, Note_on_c, 2, 74, 52
8, 415680, Note_on_c, 2, 68, 52
8, 415799, Note_on_c, 2, 74, 0
8, 415799, Note_on_c, 2, 68, 0
8, 415920, Note_on_c, 2, 74, 52
8, 415920, Note_on_c, 2, 68, 52
8, 416039, Note_on_c, 2, 74, 0
8, 416039, Note_on_c, 2, 68, 0
8, 416160, Note_on_c, 2, 74, 52
8, 416160, Note_on_c, 2, 68, 52
8, 416279, Note_on_c, 2, 74, 0
8, 416279, Note_on_c, 2, 68, 0
8, 416400, Note_on_c, 2, 75, 76
8, 416400, Note_on_c, 2, 67, 76
8, 416489, Note_on_c, 2, 75, 0
8, 416489, Note_on_c, 2, 67, 0
8, 416640, Note_on_c, 2, 67, 84
8, 416640, Note_on_c, 2, 79, 84
8, 416819, Note_on_c, 2, 67, 0
8, 416819, Note_on_c, 2, 79, 0
8, 416880, Note_on_c, 2, 63, 84
8, 416880, Note_on_c, 2, 75, 84
8, 417059, Note_on_c, 2, 63, 0
8, 417059, Note_on_c, 2, 75, 0
8, 417120, Note_on_c, 2, 58, 84
8, 417120, Note_on_c, 2, 70, 84
8, 417299, Note_on_c, 2, 58, 0
8, 417299, Note_on_c, 2, 70, 0
8, 417360, Note_on_c, 2, 67, 84
8, 417539, Note_on_c, 2, 67, 0
8, 417600, Note_on_c, 2, 75, 84
8, 417600, Note_on_c, 2, 63, 84
8, 417779, Note_on_c, 2, 75, 0
8, 417779, Note_on_c, 2, 63, 0
8, 417840, Note_on_c, 2, 70, 84
8, 417840, Note_on_c, 2, 58, 84
8, 418019, Note_on_c, 2, 70, 0
8, 418019, Note_on_c, 2, 58, 0
8, 418080, Note_on_c, 2, 68, 84
8, 418259, Note_on_c, 2, 68, 0
8, 418320, Note_on_c, 2, 67, 84
8, 418529, Note_on_c, 2, 67, 0
8, 418560, Note_on_c, 2, 68, 52
8, 418679, Note_on_c, 2, 68, 0
8, 418800, Note_on_c, 2, 67, 52
8, 418919, Note_on_c, 2, 67, 0
8, 419040, Note_on_c, 2, 68, 52
8, 419159, Note_on_c, 2, 68, 0
8, 419280, Note_on_c, 2, 67, 52
8, 419399, Note_on_c, 2, 67, 0
8, 419520, Note_on_c, 2, 68, 52
8, 419639, Note_on_c, 2, 68, 0
8, 419760, Note_on_c, 2, 67, 52
8, 419879, Note_on_c, 2, 67, 0
8, 421440, Note_on_c, 2, 66, 52
8, 421559, Note_on_c, 2, 66, 0
8, 421680, Note_on_c, 2, 65, 52
8, 421799, Note_on_c, 2, 65, 0
8, 421920, Note_on_c, 2, 66, 52
8, 422039, Note_on_c, 2, 66, 0
8, 422160, Note_on_c, 2, 65, 52
8, 422279, Note_on_c, 2, 65, 0
8, 422400, Note_on_c, 2, 66, 52
8, 422519, Note_on_c, 2, 66, 0
8, 422640, Note_on_c, 2, 65, 52
8, 422759, Note_on_c, 2, 65, 0
8, 424320, Note_on_c, 2, 75, 52
8, 424320, Note_on_c, 2, 68, 52
8, 424439, Note_on_c, 2, 75, 0
8, 424439, Note_on_c, 2, 68, 0
8, 424560, Note_on_c, 2, 67, 52
8, 424560, Note_on_c, 2, 75, 52
8, 424679, Note_on_c, 2, 67, 0
8, 424679, Note_on_c, 2, 75, 0
8, 424800, Note_on_c, 2, 75, 52
8, 424800, Note_on_c, 2, 68, 52
8, 424919, Note_on_c, 2, 75, 0
8, 424919, Note_on_c, 2, 68, 0
8, 425040, Note_on_c, 2, 67, 52
8, 425040, Note_on_c, 2, 75, 52
8, 425159, Note_on_c, 2, 67, 0
8, 425159, Note_on_c, 2, 75, 0
8, 425280, Note_on_c, 2, 75, 52
8, 425280, Note_on_c, 2, 68, 52
8, 425399, Note_on_c, 2, 75, 0
8, 425399, Note_on_c, 2, 68, 0
8, 425520, Note_on_c, 2, 67, 52
8, 425520, Note_on_c, 2, 75, 52
8, 425639, Note_on_c, 2, 67, 0
8, 425639, Note_on_c, 2, 75, 0
8, 427200, Note_on_c, 2, 68, 52
8, 427200, Note_on_c, 2, 75, 52
8, 427319, Note_on_c, 2, 68, 0
8, 427319, Note_on_c, 2, 75, 0
8, 427440, Note_on_c, 2, 67, 52
8, 427440, Note_on_c, 2, 75, 52
8, 427559, Note_on_c, 2, 67, 0
8, 427559, Note_on_c, 2, 75, 0
8, 427680, Note_on_c, 2, 68, 52
8, 427680, Note_on_c, 2, 75, 52
8, 427799, Note_on_c, 2, 68, 0
8, 427799, Note_on_c, 2, 75, 0
8, 427920, Note_on_c, 2, 67, 52
8, 427920, Note_on_c, 2, 75, 52
8, 428039, Note_on_c, 2, 67, 0
8, 428039, Note_on_c, 2, 75, 0
8, 428160, Note_on_c, 2, 68, 52
8, 428160, Note_on_c, 2, 75, 52
8, 428279, Note_on_c, 2, 68, 0
8, 428279, Note_on_c, 2, 75, 0
8, 428400, Note_on_c, 2, 67, 52
8, 428400, Note_on_c, 2, 75, 52
8, 428519, Note_on_c, 2, 67, 0
8, 428519, Note_on_c, 2, 75, 0
8, 428640, Note_on_c, 2, 68, 52
8, 428640, Note_on_c, 2, 72, 52
8, 428759, Note_on_c, 2, 68, 0
8, 428759, Note_on_c, 2, 72, 0
8, 428880, Note_on_c, 2, 70, 52
8, 428880, Note_on_c, 2, 67, 52
8, 428999, Note_on_c, 2, 70, 0
8, 428999, Note_on_c, 2, 67, 0
8, 429120, Note_on_c, 2, 72, 52
8, 429120, Note_on_c, 2, 68, 52
8, 429239, Note_on_c, 2, 72, 0
8, 429239, Note_on_c, 2, 68, 0
8, 429360, Note_on_c, 2, 70, 52
8, 429360, Note_on_c, 2, 67, 52
8, 429479, Note_on_c, 2, 70, 0
8, 429479, Note_on_c, 2, 67, 0
8, 429600, Note_on_c, 2, 72, 52
8, 429600, Note_on_c, 2, 68, 52
8, 429719, Note_on_c, 2, 72, 0
8, 429719, Note_on_c, 2, 68, 0
8, 429840, Note_on_c, 2, 70, 52
8, 429840, Note_on_c, 2, 67, 52
8, 429959, Note_on_c, 2, 70, 0
8, 429959, Note_on_c, 2, 67, 0
8, 435600, Note_on_c, 2, 67, 52
8, 435600, Note_on_c, 2, 75, 52
8, 435839, Note_on_c, 2, 67, 0
8, 435839, Note_on_c, 2, 75, 0
8, 436320, Note_on_c, 2, 67, 52
8, 436320, Note_on_c, 2, 72, 52
8, 436559, Note_on_c, 2, 67, 0
8, 436559, Note_on_c, 2, 72, 0
8, 437040, Note_on_c, 2, 56, 52
8, 437040, Note_on_c, 2, 72, 52
8, 437279, Note_on_c, 2, 56, 0
8, 437279, Note_on_c, 2, 72, 0
8, 437760, Note_on_c, 2, 65, 52
8, 437760, Note_on_c, 2, 74, 52
8, 437999, Note_on_c, 2, 65, 0
8, 437999, Note_on_c, 2, 74, 0
8, 438480, Note_on_c, 2, 67, 52
8, 438480, Note_on_c, 2, 74, 52
8, 438599, Note_on_c, 2, 67, 0
8, 438599, Note_on_c, 2, 74, 0
8, 438720, Note_on_c, 2, 73, 54
8, 438720, Note_on_c, 2, 61, 54
8, 438839, Note_on_c, 2, 73, 0
8, 438839, Note_on_c, 2, 61, 0
8, 438960, Note_on_c, 2, 62, 57
8, 438960, Note_on_c, 2, 74, 57
8, 439079, Note_on_c, 2, 62, 0
8, 439079, Note_on_c, 2, 74, 0
8, 439200, Note_on_c, 2, 63, 60
8, 439200, Note_on_c, 2, 75, 60
8, 439319, Note_on_c, 2, 63, 0
8, 439319, Note_on_c, 2, 75, 0
8, 439440, Note_on_c, 2, 65, 62
8, 439440, Note_on_c, 2, 77, 62
8, 439559, Note_on_c, 2, 65, 0
8, 439559, Note_on_c, 2, 77, 0
8, 439680, Note_on_c, 2, 67, 65
8, 439680, Note_on_c, 2, 79, 65
8, 439799, Note_on_c, 2, 67, 0
8, 439799, Note_on_c, 2, 79, 0
8, 439920, Note_on_c, 2, 68, 68
8, 439920, Note_on_c, 2, 80, 68
8, 440159, Note_on_c, 2, 68, 0
8, 440159, Note_on_c, 2, 80, 0
8, 440880, Note_on_c, 2, 70, 78
8, 440880, Note_on_c, 2, 68, 78
8, 441089, Note_on_c, 2, 70, 0
8, 441089, Note_on_c, 2, 68, 0
8, 441120, Note_on_c, 2, 70, 81
8, 441120, Note_on_c, 2, 68, 81
8, 441329, Note_on_c, 2, 70, 0
8, 441329, Note_on_c, 2, 68, 0
8, 441360, Note_on_c, 2, 70, 84
8, 441360, Note_on_c, 2, 68, 84
8, 441569, Note_on_c, 2, 70, 0
8, 441569, Note_on_c, 2, 68, 0
8, 441600, Note_on_c, 2, 74, 84
8, 441600, Note_on_c, 2, 62, 84
8, 441809, Note_on_c, 2, 74, 0
8, 441809, Note_on_c, 2, 62, 0
8, 441840, Note_on_c, 2, 74, 84
8, 441840, Note_on_c, 2, 62, 84
8, 442049, Note_on_c, 2, 74, 0
8, 442049, Note_on_c, 2, 62, 0
8, 442080, Note_on_c, 2, 62, 84
8, 442080, Note_on_c, 2, 74, 84
8, 442289, Note_on_c, 2, 62, 0
8, 442289, Note_on_c, 2, 74, 0
8, 442320, Note_on_c, 2, 65, 84
8, 442320, Note_on_c, 2, 77, 84
8, 442529, Note_on_c, 2, 65, 0
8, 442529, Note_on_c, 2, 77, 0
8, 442560, Note_on_c, 2, 65, 84
8, 442560, Note_on_c, 2, 77, 84
8, 442769, Note_on_c, 2, 65, 0
8, 442769, Note_on_c, 2, 77, 0
8, 442800, Note_on_c, 2, 65, 84
8, 442800, Note_on_c, 2, 77, 84
8, 443009, Note_on_c, 2, 65, 0
8, 443009, Note_on_c, 2, 77, 0
8, 443040, Note_on_c, 2, 68, 84
8, 443040, Note_on_c, 2, 77, 84
8, 443249, Note_on_c, 2, 68, 0
8, 443249, Note_on_c, 2, 77, 0
8, 443280, Note_on_c, 2, 68, 84
8, 443280, Note_on_c, 2, 77, 84
8, 443489, Note_on_c, 2, 68, 0
8, 443489, Note_on_c, 2, 77, 0
8, 443520, Note_on_c, 2, 68, 84
8, 443520, Note_on_c, 2, 77, 84
8, 443729, Note_on_c, 2, 68, 0
8, 443729, Note_on_c, 2, 77, 0
8, 443760, Note_on_c, 2, 67, 84
8, 443760, Note_on_c, 2, 75, 84
8, 443969, Note_on_c, 2, 67, 0
8, 443969, Note_on_c, 2, 75, 0
8, 444000, Note_on_c, 2, 68, 84
8, 444000, Note_on_c, 2, 65, 84
8, 444209, Note_on_c, 2, 68, 0
8, 444209, Note_on_c, 2, 65, 0
8, 444240, Note_on_c, 2, 63, 76
8, 444240, Note_on_c, 2, 67, 76
8, 444479, Note_on_c, 2, 63, 0
8, 444479, Note_on_c, 2, 67, 0
8, 444960, Note_on_c, 2, 74, 76
8, 444960, Note_on_c, 2, 65, 76
8, 445199, Note_on_c, 2, 74, 0
8, 445199, Note_on_c, 2, 65, 0
8, 445680, Control_c, 2, 11, 96
8, 447120, Note_on_c, 2, 73, 60
8, 447120, Control_c, 2, 11, 96
8, 447180, Control_c, 2, 11, 99
8, 447240, Control_c, 2, 11, 101
8, 447300, Control_c, 2, 11, 104
8, 447360, Control_c, 2, 11, 106
8, 447420, Control_c, 2, 11, 109
8, 447480, Control_c, 2, 11, 112
8, 447540, Control_c, 2, 11, 114
8, 447600, Control_c, 2, 11, 117
8, 447660, Control_c, 2, 11, 119
8, 447720, Control_c, 2, 11, 122
8, 447780, Control_c, 2, 11, 124
8, 447839, Note_on_c, 2, 73, 0
8, 447840, Note_on_c, 2, 74, 60
8, 447840, Control_c, 2, 11, 127
8, 447900, Control_c, 2, 11, 124
8, 447960, Control_c, 2, 11, 122
8, 448020, Control_c, 2, 11, 119
8, 448080, Control_c, 2, 11, 117
8, 448140, Control_c, 2, 11, 114
8, 448200, Control_c, 2, 11, 112
8, 448260, Control_c, 2, 11, 109
8, 448320, Control_c, 2, 11, 106
8, 448380, Control_c, 2, 11, 104
8, 448440, Control_c, 2, 11, 101
8, 448500, Control_c, 2, 11, 96
8, 448559, Note_on_c, 2, 74, 0
8, 448560, Note_on_c, 2, 75, 60
8, 448799, Note_on_c, 2, 75, 0
8, 450000, Control_c, 2, 11, 96
8, 450000, Note_on_c, 2, 73, 60
8, 450000, Note_on_c, 2, 61, 60
8, 450060, Control_c, 2, 11, 99
8, 450120, Control_c, 2, 11, 101
8, 450180, Control_c, 2, 11, 104
8, 450240, Control_c, 2, 11, 106
8, 450300, Control_c, 2, 11, 109
8, 450360, Control_c, 2, 11, 112
8, 450420, Control_c, 2, 11, 114
8, 450480, Control_c, 2, 11, 117
8, 450540, Control_c, 2, 11, 119
8, 450600, Control_c, 2, 11, 122
8, 450660, Control_c, 2, 11, 124
8, 450719, Note_on_c, 2, 73, 0
8, 450719, Note_on_c, 2, 61, 0
8, 450720, Note_on_c, 2, 62, 60
8, 450720, Note_on_c, 2, 74, 60
8, 450720, Control_c, 2, 11, 127
8, 450780, Control_c, 2, 11, 124
8, 450840, Control_c, 2, 11, 122
8, 450900, Control_c, 2, 11, 119
8, 450960, Control_c, 2, 11, 117
8, 451020, Control_c, 2, 11, 114
8, 451080, Control_c, 2, 11, 112
8, 451140, Control_c, 2, 11, 109
8, 451200, Control_c, 2, 11, 106
8, 451260, Control_c, 2, 11, 104
8, 451320, Control_c, 2, 11, 101
8, 451380, Control_c, 2, 11, 96
8, 451439, Note_on_c, 2, 62, 0
8, 451439, Note_on_c, 2, 74, 0
8, 451440, Note_on_c, 2, 75, 60
8, 451440, Note_on_c, 2, 63, 60
8, 451679, Note_on_c, 2, 75, 0
8, 451679, Note_on_c, 2, 63, 0
8, 452880, Control_c, 2, 11, 127
8, 454560, Note_on_c, 2, 65, 66
8, 454560, Note_on_c, 2, 62, 66
8, 454769, Note_on_c, 2, 65, 0
8, 454769, Note_on_c, 2, 62, 0
8, 454800, Note_on_c, 2, 67, 68
8, 454800, Note_on_c, 2, 63, 68
8, 455009, Note_on_c, 2, 67, 0
8, 455009, Note_on_c, 2, 63, 0
8, 455040, Note_on_c, 2, 65, 70
8, 455040, Note_on_c, 2, 62, 70
8, 455249, Note_on_c, 2, 65, 0
8, 455249, Note_on_c, 2, 62, 0
8, 455280, Note_on_c, 2, 63, 72
8, 455280, Note_on_c, 2, 60, 72
8, 455489, Note_on_c, 2, 63, 0
8, 455489, Note_on_c, 2, 60, 0
8, 455520, Note_on_c, 2, 65, 74
8, 455520, Note_on_c, 2, 62, 74
8, 455729, Note_on_c, 2, 65, 0
8, 455729, Note_on_c, 2, 62, 0
8, 455760, Note_on_c, 2, 67, 76
8, 455760, Note_on_c, 2, 63, 76
8, 455969, Note_on_c, 2, 67, 0
8, 455969, Note_on_c, 2, 63, 0
8, 456000, Note_on_c, 2, 74, 76
8, 456000, Note_on_c, 2, 65, 76
8, 456209, Note_on_c, 2, 74, 0
8, 456209, Note_on_c, 2, 65, 0
8, 456240, Note_on_c, 2, 75, 76
8, 456240, Note_on_c, 2, 67, 76
8, 456449, Note_on_c, 2, 75, 0
8, 456449, Note_on_c, 2, 67, 0
8, 456480, Note_on_c, 2, 74, 76
8, 456480, Note_on_c, 2, 65, 76
8, 456689, Note_on_c, 2, 74, 0
8, 456689, Note_on_c, 2, 65, 0
8, 456720, Note_on_c, 2, 75, 76
8, 456720, Note_on_c, 2, 67, 76
8, 456929, Note_on_c, 2, 75, 0
8, 456929, Note_on_c, 2, 67, 0
8, 456960, Note_on_c, 2, 74, 76
8, 456960, Note_on_c, 2, 65, 76
8, 457169, Note_on_c, 2, 74, 0
8, 457169, Note_on_c, 2, 65, 0
8, 457200, Note_on_c, 2, 75, 84
8, 457200, Note_on_c, 2, 67, 84
8, 457439, Note_on_c, 2, 75, 0
8, 457439, Note_on_c, 2, 67, 0
8, 457920, Note_on_c, 2, 77, 84
8, 457920, Note_on_c, 2, 68, 84
8, 458159, Note_on_c, 2, 77, 0
8, 458159, Note_on_c, 2, 68, 0
8, 458640, Note_on_c, 2, 75, 84
8, 458640, Note_on_c, 2, 67, 84
8, 458879, Note_on_c, 2, 75, 0
8, 458879, Note_on_c, 2, 67, 0
8, 458879, End_track
9, 0, Start_track
9, 0, Title_t, "Bassoon"
9, 0, MIDI_port, 0
9, 0, Program_c, 3, 70
9, 0, Control_c, 3, 7, 96
9, 0, Control_c, 3, 10, 65
9, 0, Control_c, 3, 11, 127
9, 17520, Note_on_c, 3, 63, 52
9, 18209, Note_on_c, 3, 63, 0
9, 18240, Note_on_c, 3, 62, 52
9, 18479, Note_on_c, 3, 62, 0
9, 18480, Note_on_c, 3, 65, 52
9, 18689, Note_on_c, 3, 65, 0
9, 18720, Note_on_c, 3, 62, 52
9, 18839, Note_on_c, 3, 62, 0
9, 18960, Note_on_c, 3, 60, 52
9, 19199, Note_on_c, 3, 60, 0
9, 19200, Note_on_c, 3, 63, 52
9, 19409, Note_on_c, 3, 63, 0
9, 19440, Note_on_c, 3, 60, 52
9, 19559, Note_on_c, 3, 60, 0
9, 19680, Note_on_c, 3, 58, 52
9, 19919, Note_on_c, 3, 58, 0
9, 36960, Note_on_c, 3, 60, 60
9, 37649, Note_on_c, 3, 60, 0
9, 37680, Note_on_c, 3, 62, 52
9, 37919, Note_on_c, 3, 62, 0
9, 39840, Note_on_c, 3, 62, 60
9, 40529, Note_on_c, 3, 62, 0
9, 40560, Note_on_c, 3, 62, 44
9, 40679, Note_on_c, 3, 62, 0
9, 40800, Note_on_c, 3, 50, 44
9, 40919, Note_on_c, 3, 50, 0
9, 41040, Note_on_c, 3, 60, 44
9, 41159, Note_on_c, 3, 60, 0
9, 41280, Note_on_c, 3, 58, 44
9, 41399, Note_on_c, 3, 58, 0
9, 41520, Note_on_c, 3, 55, 44
9, 41639, Note_on_c, 3, 55, 0
9, 41760, Note_on_c, 3, 51, 44
9, 41879, Note_on_c, 3, 51, 0
9, 42000, Note_on_c, 3, 50, 44
9, 42119, Note_on_c, 3, 50, 0
9, 42240, Note_on_c, 3, 60, 44
9, 42240, Note_on_c, 3, 57, 44
9, 42359, Note_on_c, 3, 60, 0
9, 42359, Note_on_c, 3, 57, 0
9, 42480, Note_on_c, 3, 57, 44
9, 42480, Note_on_c, 3, 54, 44
9, 42599, Note_on_c, 3, 57, 0
9, 42599, Note_on_c, 3, 54, 0
9, 42720, Note_on_c, 3, 62, 44
9, 42720, Note_on_c, 3, 58, 44
9, 42839, Note_on_c, 3, 62, 0
9, 42839, Note_on_c, 3, 58, 0
9, 42960, Note_on_c, 3, 55, 44
9, 42960, Note_on_c, 3, 58, 44
9, 43079, Note_on_c, 3, 55, 0
9, 43079, Note_on_c, 3, 58, 0
9, 43200, Note_on_c, 3, 51, 44
9, 43200, Note_on_c, 3, 63, 44
9, 43319, Note_on_c, 3, 51, 0
9, 43319, Note_on_c, 3, 63, 0
9, 43440, Note_on_c, 3, 50, 44
9, 43440, Note_on_c, 3, 62, 44
9, 43559, Note_on_c, 3, 50, 0
9, 43559, Note_on_c, 3, 62, 0
9, 57600, Note_on_c, 3, 56, 52
9, 57600, Note_on_c, 3, 60, 52
9, 57719, Note_on_c, 3, 56, 0
9, 57719, Note_on_c, 3, 60, 0
9, 57840, Note_on_c, 3, 55, 52
9, 57840, Note_on_c, 3, 58, 52
9, 57959, Note_on_c, 3, 55, 0
9, 57959, Note_on_c, 3, 58, 0
9, 58080, Note_on_c, 3, 60, 52
9, 58080, Note_on_c, 3, 56, 52
9, 58199, Note_on_c, 3, 60, 0
9, 58199, Note_on_c, 3, 56, 0
9, 58320, Note_on_c, 3, 55, 52
9, 58320, Note_on_c, 3, 58, 52
9, 58439, Note_on_c, 3, 55, 0
9, 58439, Note_on_c, 3, 58, 0
9, 58560, Note_on_c, 3, 60, 52
9, 58560, Note_on_c, 3, 56, 52
9, 58679, Note_on_c, 3, 60, 0
9, 58679, Note_on_c, 3, 56, 0
9, 58800, Note_on_c, 3, 55, 52
9, 58800, Note_on_c, 3, 58, 52
9, 58919, Note_on_c, 3, 55, 0
9, 58919, Note_on_c, 3, 58, 0
9, 59040, Note_on_c, 3, 62, 52
9, 59040, Note_on_c, 3, 58, 52
9, 59159, Note_on_c, 3, 62, 0
9, 59159, Note_on_c, 3, 58, 0
9, 59280, Note_on_c, 3, 58, 52
9, 59280, Note_on_c, 3, 63, 52
9, 59399, Note_on_c, 3, 58, 0
9, 59399, Note_on_c, 3, 63, 0
9, 65760, Note_on_c, 3, 58, 52
9, 65760, Note_on_c, 3, 46, 52
9, 65879, Note_on_c, 3, 58, 0
9, 65879, Note_on_c, 3, 46, 0
9, 66000, Note_on_c, 3, 48, 62
9, 66000, Note_on_c, 3, 60, 62
9, 66119, Note_on_c, 3, 48, 0
9, 66119, Note_on_c, 3, 60, 0
9, 66240, Note_on_c, 3, 62, 73
9, 66240, Note_on_c, 3, 50, 73
9, 66359, Note_on_c, 3, 62, 0
9, 66359, Note_on_c, 3, 50, 0
9, 66480, Note_on_c, 3, 51, 84
9, 66480, Note_on_c, 3, 63, 84
9, 66689, Note_on_c, 3, 51, 0
9, 66689, Note_on_c, 3, 63, 0
9, 66720, Note_on_c, 3, 63, 84
9, 66720, Note_on_c, 3, 55, 84
9, 66929, Note_on_c, 3, 63, 0
9, 66929, Note_on_c, 3, 55, 0
9, 66960, Note_on_c, 3, 63, 84
9, 66960, Note_on_c, 3, 58, 84
9, 67169, Note_on_c, 3, 63, 0
9, 67169, Note_on_c, 3, 58, 0
9, 67200, Note_on_c, 3, 51, 84
9, 67200, Note_on_c, 3, 63, 84
9, 67409, Note_on_c, 3, 51, 0
9, 67409, Note_on_c, 3, 63, 0
9, 67440, Note_on_c, 3, 63, 84
9, 67440, Note_on_c, 3, 55, 84
9, 67649, Note_on_c, 3, 63, 0
9, 67649, Note_on_c, 3, 55, 0
9, 67680, Note_on_c, 3, 58, 84
9, 67680, Note_on_c, 3, 63, 84
9, 67889, Note_on_c, 3, 58, 0
9, 67889, Note_on_c, 3, 63, 0
9, 67920, Note_on_c, 3, 51, 84
9, 67920, Note_on_c, 3, 63, 84
9, 68129, Note_on_c, 3, 51, 0
9, 68159, Note_on_c, 3, 63, 0
9, 68160, Note_on_c, 3, 51, 84
9, 68160, Note_on_c, 3, 65, 84
9, 68279, Note_on_c, 3, 65, 0
9, 68280, Note_on_c, 3, 63, 84
9, 68369, Note_on_c, 3, 51, 0
9, 68399, Note_on_c, 3, 63, 0
9, 68400, Note_on_c, 3, 51, 84
9, 68400, Note_on_c, 3, 62, 84
9, 68519, Note_on_c, 3, 62, 0
9, 68520, Note_on_c, 3, 60, 84
9, 68609, Note_on_c, 3, 51, 0
9, 68609, Note_on_c, 3, 60, 0
9, 68640, Note_on_c, 3, 58, 84
9, 68640, Note_on_c, 3, 51, 84
9, 68849, Note_on_c, 3, 51, 0
9, 68880, Note_on_c, 3, 51, 84
9, 69089, Note_on_c, 3, 51, 0
9, 69120, Note_on_c, 3, 51, 84
9, 69329, Note_on_c, 3, 58, 0
9, 69329, Note_on_c, 3, 51, 0
9, 69360, Note_on_c, 3, 51, 84
9, 69599, Note_on_c, 3, 51, 0
9, 69600, Note_on_c, 3, 53, 84
9, 69719, Note_on_c, 3, 53, 0
9, 69720, Note_on_c, 3, 51, 84
9, 69839, Note_on_c, 3, 51, 0
9, 69840, Note_on_c, 3, 50, 84
9, 69959, Note_on_c, 3, 50, 0
9, 69960, Note_on_c, 3, 48, 84
9, 70049, Note_on_c, 3, 48, 0
9, 70080, Note_on_c, 3, 46, 84
9, 70080, Note_on_c, 3, 58, 84
9, 70769, Note_on_c, 3, 46, 0
9, 70769, Note_on_c, 3, 58, 0
9, 70800, Note_on_c, 3, 56, 92
9, 71489, Note_on_c, 3, 56, 0
9, 71520, Note_on_c, 3, 55, 84
9, 71759, Note_on_c, 3, 55, 0
9, 71760, Note_on_c, 3, 58, 84
9, 71969, Note_on_c, 3, 58, 0
9, 72000, Note_on_c, 3, 55, 84
9, 72119, Note_on_c, 3, 55, 0
9, 72240, Note_on_c, 3, 53, 84
9, 72479, Note_on_c, 3, 53, 0
9, 72480, Note_on_c, 3, 58, 84
9, 72689, Note_on_c, 3, 58, 0
9, 72720, Note_on_c, 3, 53, 84
9, 72839, Note_on_c, 3, 53, 0
9, 72960, Note_on_c, 3, 51, 84
9, 73079, Note_on_c, 3, 51, 0
9, 73200, Note_on_c, 3, 55, 84
9, 73319, Note_on_c, 3, 55, 0
9, 73440, Note_on_c, 3, 58, 84
9, 73559, Note_on_c, 3, 58, 0
9, 73680, Note_on_c, 3, 56, 92
9, 74369, Note_on_c, 3, 56, 0
9, 74400, Note_on_c, 3, 55, 84
9, 74639, Note_on_c, 3, 55, 0
9, 74640, Note_on_c, 3, 58, 84
9, 74849, Note_on_c, 3, 58, 0
9, 74880, Note_on_c, 3, 55, 84
9, 74999, Note_on_c, 3, 55, 0
9, 75120, Note_on_c, 3, 53, 84
9, 75359, Note_on_c, 3, 53, 0
9, 75360, Note_on_c, 3, 56, 84
9, 75569, Note_on_c, 3, 56, 0
9, 75600, Note_on_c, 3, 53, 84
9, 75719, Note_on_c, 3, 53, 0
9, 75840, Note_on_c, 3, 51, 84
9, 75959, Note_on_c, 3, 51, 0
9, 76080, Note_on_c, 3, 56, 84
9, 76199, Note_on_c, 3, 56, 0
9, 76320, Note_on_c, 3, 51, 84
9, 76439, Note_on_c, 3, 51, 0
9, 76560, Note_on_c, 3, 49, 92
9, 77249, Note_on_c, 3, 49, 0
9, 77280, Note_on_c, 3, 48, 84
9, 77519, Note_on_c, 3, 48, 0
9, 77520, Note_on_c, 3, 51, 84
9, 77729, Note_on_c, 3, 51, 0
9, 77760, Note_on_c, 3, 48, 84
9, 77879, Note_on_c, 3, 48, 0
9, 78000, Note_on_c, 3, 51, 84
9, 78119, Note_on_c, 3, 51, 0
9, 78240, Note_on_c, 3, 46, 84
9, 78359, Note_on_c, 3, 46, 0
9, 78480, Note_on_c, 3, 51, 84
9, 78599, Note_on_c, 3, 51, 0
9, 78720, Note_on_c, 3, 44, 84
9, 78839, Note_on_c, 3, 44, 0
9, 78960, Note_on_c, 3, 56, 84
9, 79079, Note_on_c, 3, 56, 0
9, 79200, Note_on_c, 3, 44, 84
9, 79319, Note_on_c, 3, 44, 0
9, 79440, Note_on_c, 3, 55, 84
9, 79559, Note_on_c, 3, 55, 0
9, 79680, Note_on_c, 3, 43, 84
9, 79799, Note_on_c, 3, 43, 0
9, 79920, Note_on_c, 3, 55, 84
9, 80039, Note_on_c, 3, 55, 0
9, 80160, Note_on_c, 3, 44, 84
9, 80279, Note_on_c, 3, 44, 0
9, 80400, Note_on_c, 3, 53, 84
9, 80519, Note_on_c, 3, 53, 0
9, 80640, Note_on_c, 3, 44, 84
9, 80759, Note_on_c, 3, 44, 0
9, 80880, Note_on_c, 3, 46, 84
9, 80999, Note_on_c, 3, 46, 0
9, 81120, Note_on_c, 3, 55, 84
9, 81239, Note_on_c, 3, 55, 0
9, 81360, Note_on_c, 3, 46, 84
9, 81479, Note_on_c, 3, 46, 0
9, 81600, Note_on_c, 3, 58, 84
9, 81719, Note_on_c, 3, 58, 0
9, 81840, Note_on_c, 3, 46, 84
9, 81959, Note_on_c, 3, 46, 0
9, 82080, Note_on_c, 3, 58, 84
9, 82199, Note_on_c, 3, 58, 0
9, 82320, Note_on_c, 3, 51, 84
9, 82559, Note_on_c, 3, 51, 0
9, 85440, Note_on_c, 3, 58, 52
9, 85440, Note_on_c, 3, 55, 52
9, 85649, Note_on_c, 3, 58, 0
9, 85649, Note_on_c, 3, 55, 0
9, 85680, Note_on_c, 3, 55, 52
9, 85680, Note_on_c, 3, 58, 52
9, 85889, Note_on_c, 3, 55, 0
9, 85889, Note_on_c, 3, 58, 0
9, 85920, Note_on_c, 3, 60, 52
9, 85920, Note_on_c, 3, 56, 52
9, 86129, Note_on_c, 3, 60, 0
9, 86129, Note_on_c, 3, 56, 0
9, 86160, Note_on_c, 3, 56, 52
9, 86160, Note_on_c, 3, 60, 52
9, 86369, Note_on_c, 3, 56, 0
9, 86369, Note_on_c, 3, 60, 0
9, 86400, Note_on_c, 3, 57, 52
9, 86400, Note_on_c, 3, 60, 52
9, 86609, Note_on_c, 3, 57, 0
9, 86609, Note_on_c, 3, 60, 0
9, 86640, Note_on_c, 3, 58, 52
9, 86849, Note_on_c, 3, 58, 0
9, 86880, Note_on_c, 3, 58, 52
9, 87089, Note_on_c, 3, 58, 0
9, 87120, Note_on_c, 3, 58, 52
9, 87329, Note_on_c, 3, 58, 0
9, 87360, Note_on_c, 3, 58, 52
9, 87569, Note_on_c, 3, 58, 0
9, 87600, Note_on_c, 3, 58, 52
9, 87809, Note_on_c, 3, 58, 0
9, 87840, Note_on_c, 3, 58, 52
9, 88049, Note_on_c, 3, 58, 0
9, 88080, Note_on_c, 3, 63, 76
9, 88199, Note_on_c, 3, 63, 0
9, 88320, Note_on_c, 3, 67, 84
9, 88769, Note_on_c, 3, 67, 0
9, 88800, Note_on_c, 3, 63, 76
9, 89009, Note_on_c, 3, 63, 0
9, 89040, Note_on_c, 3, 58, 84
9, 89489, Note_on_c, 3, 58, 0
9, 89520, Note_on_c, 3, 55, 76
9, 89729, Note_on_c, 3, 55, 0
9, 89760, Note_on_c, 3, 51, 84
9, 90209, Note_on_c, 3, 51, 0
9, 90240, Note_on_c, 3, 46, 76
9, 90479, Note_on_c, 3, 46, 0
9, 90720, Note_on_c, 3, 44, 76
9, 90779, Note_on_c, 3, 44, 0
9, 90780, Note_on_c, 3, 46, 76
9, 90839, Note_on_c, 3, 46, 0
9, 90840, Note_on_c, 3, 43, 76
9, 90899, Note_on_c, 3, 43, 0
9, 90900, Note_on_c, 3, 44, 76
9, 90959, Note_on_c, 3, 44, 0
9, 90960, Note_on_c, 3, 43, 76
9, 91169, Note_on_c, 3, 43, 0
9, 91200, Note_on_c, 3, 62, 52
9, 91200, Note_on_c, 3, 59, 52
9, 91319, Note_on_c, 3, 62, 0
9, 91319, Note_on_c, 3, 59, 0
9, 91440, Note_on_c, 3, 63, 52
9, 91440, Note_on_c, 3, 60, 52
9, 91559, Note_on_c, 3, 63, 0
9, 91559, Note_on_c, 3, 60, 0
9, 91680, Note_on_c, 3, 59, 52
9, 91680, Note_on_c, 3, 62, 52
9, 91799, Note_on_c, 3, 59, 0
9, 91799, Note_on_c, 3, 62, 0
9, 91920, Note_on_c, 3, 63, 52
9, 91920, Note_on_c, 3, 60, 52
9, 92039, Note_on_c, 3, 63, 0
9, 92039, Note_on_c, 3, 60, 0
9, 92160, Note_on_c, 3, 59, 52
9, 92160, Note_on_c, 3, 62, 52
9, 92279, Note_on_c, 3, 59, 0
9, 92279, Note_on_c, 3, 62, 0
9, 92400, Note_on_c, 3, 63, 52
9, 92400, Note_on_c, 3, 60, 52
9, 92639, Note_on_c, 3, 63, 0
9, 92639, Note_on_c, 3, 60, 0
9, 94080, Note_on_c, 3, 60, 52
9, 94080, Note_on_c, 3, 57, 52
9, 94199, Note_on_c, 3, 60, 0
9, 94199, Note_on_c, 3, 57, 0
9, 94320, Note_on_c, 3, 62, 52
9, 94320, Note_on_c, 3, 58, 52
9, 94439, Note_on_c, 3, 62, 0
9, 94439, Note_on_c, 3, 58, 0
9, 94560, Note_on_c, 3, 60, 52
9, 94560, Note_on_c, 3, 57, 52
9, 94679, Note_on_c, 3, 60, 0
9, 94679, Note_on_c, 3, 57, 0
9, 94800, Note_on_c, 3, 62, 52
9, 94800, Note_on_c, 3, 58, 52
9, 94919, Note_on_c, 3, 62, 0
9, 94919, Note_on_c, 3, 58, 0
9, 95040, Note_on_c, 3, 57, 52
9, 95040, Note_on_c, 3, 60, 52
9, 95159, Note_on_c, 3, 57, 0
9, 95159, Note_on_c, 3, 60, 0
9, 95280, Note_on_c, 3, 62, 52
9, 95280, Note_on_c, 3, 58, 52
9, 95519, Note_on_c, 3, 62, 0
9, 95519, Note_on_c, 3, 58, 0
9, 96960, Note_on_c, 3, 56, 52
9, 97079, Note_on_c, 3, 56, 0
9, 97200, Note_on_c, 3, 63, 52
9, 97319, Note_on_c, 3, 63, 0
9, 97440, Note_on_c, 3, 56, 52
9, 97559, Note_on_c, 3, 56, 0
9, 97680, Note_on_c, 3, 63, 52
9, 97799, Note_on_c, 3, 63, 0
9, 97920, Note_on_c, 3, 56, 52
9, 98039, Note_on_c, 3, 56, 0
9, 98160, Note_on_c, 3, 63, 52
9, 98279, Note_on_c, 3, 63, 0
9, 99840, Note_on_c, 3, 56, 52
9, 99959, Note_on_c, 3, 56, 0
9, 100080, Note_on_c, 3, 63, 52
9, 100199, Note_on_c, 3, 63, 0
9, 100320, Note_on_c, 3, 56, 52
9, 100439, Note_on_c, 3, 56, 0
9, 100560, Note_on_c, 3, 63, 52
9, 100679, Note_on_c, 3, 63, 0
9, 100800, Note_on_c, 3, 56, 52
9, 100919, Note_on_c, 3, 56, 0
9, 101040, Note_on_c, 3, 63, 52
9, 101159, Note_on_c, 3, 63, 0
9, 101280, Note_on_c, 3, 56, 52
9, 101399, Note_on_c, 3, 56, 0
9, 101520, Note_on_c, 3, 51, 52
9, 101639, Note_on_c, 3, 51, 0
9, 101760, Note_on_c, 3, 56, 52
9, 101879, Note_on_c, 3, 56, 0
9, 102000, Note_on_c, 3, 55, 52
9, 102000, Note_on_c, 3, 58, 52
9, 102119, Note_on_c, 3, 55, 0
9, 102119, Note_on_c, 3, 58, 0
9, 102240, Note_on_c, 3, 60, 52
9, 102240, Note_on_c, 3, 56, 52
9, 102359, Note_on_c, 3, 60, 0
9, 102359, Note_on_c, 3, 56, 0
9, 102480, Note_on_c, 3, 58, 52
9, 102480, Note_on_c, 3, 55, 52
9, 102599, Note_on_c, 3, 58, 0
9, 102599, Note_on_c, 3, 55, 0
9, 103200, Note_on_c, 3, 56, 52
9, 103439, Note_on_c, 3, 56, 0
9, 103920, Note_on_c, 3, 53, 52
9, 104159, Note_on_c, 3, 53, 0
9, 104640, Note_on_c, 3, 58, 52
9, 104879, Note_on_c, 3, 58, 0
9, 105360, Note_on_c, 3, 55, 52
9, 105599, Note_on_c, 3, 55, 0
9, 106080, Note_on_c, 3, 60, 52
9, 106319, Note_on_c, 3, 60, 0
9, 106800, Note_on_c, 3, 56, 52
9, 107039, Note_on_c, 3, 56, 0
9, 107520, Note_on_c, 3, 58, 52
9, 107759, Note_on_c, 3, 58, 0
9, 108240, Note_on_c, 3, 51, 52
9, 108449, Note_on_c, 3, 51, 0
9, 108480, Note_on_c, 3, 58, 52
9, 108599, Note_on_c, 3, 58, 0
9, 108720, Note_on_c, 3, 59, 52
9, 108839, Note_on_c, 3, 59, 0
9, 108960, Note_on_c, 3, 51, 52
9, 108960, Note_on_c, 3, 60, 52
9, 109079, Note_on_c, 3, 60, 0
9, 109199, Note_on_c, 3, 51, 0
9, 109200, Note_on_c, 3, 62, 52
9, 109319, Note_on_c, 3, 62, 0
9, 109440, Note_on_c, 3, 63, 52
9, 109559, Note_on_c, 3, 63, 0
9, 109680, Note_on_c, 3, 65, 52
9, 109680, Note_on_c, 3, 44, 52
9, 109889, Note_on_c, 3, 65, 0
9, 109919, Note_on_c, 3, 44, 0
9, 109920, Note_on_c, 3, 60, 52
9, 110039, Note_on_c, 3, 60, 0
9, 110160, Note_on_c, 3, 61, 52
9, 110279, Note_on_c, 3, 61, 0
9, 110400, Note_on_c, 3, 62, 52
9, 110400, Note_on_c, 3, 53, 52
9, 110519, Note_on_c, 3, 62, 0
9, 110639, Note_on_c, 3, 53, 0
9, 110640, Note_on_c, 3, 64, 52
9, 110759, Note_on_c, 3, 64, 0
9, 110880, Note_on_c, 3, 65, 52
9, 110999, Note_on_c, 3, 65, 0
9, 111120, Note_on_c, 3, 46, 52
9, 111120, Note_on_c, 3, 67, 52
9, 111359, Note_on_c, 3, 46, 0
9, 111359, Note_on_c, 3, 67, 0
9, 111840, Note_on_c, 3, 55, 60
9, 112079, Note_on_c, 3, 55, 0
9, 112560, Note_on_c, 3, 48, 68
9, 112769, Note_on_c, 3, 48, 0
9, 112800, Note_on_c, 3, 43, 70
9, 113009, Note_on_c, 3, 43, 0
9, 113040, Note_on_c, 3, 44, 73
9, 113249, Note_on_c, 3, 44, 0
9, 113280, Note_on_c, 3, 41, 76
9, 113489, Note_on_c, 3, 41, 0
9, 113520, Note_on_c, 3, 49, 78
9, 113729, Note_on_c, 3, 49, 0
9, 113760, Note_on_c, 3, 50, 81
9, 113969, Note_on_c, 3, 50, 0
9, 114000, Note_on_c, 3, 46, 84
9, 114209, Note_on_c, 3, 46, 0
9, 114240, Note_on_c, 3, 53, 84
9, 114449, Note_on_c, 3, 53, 0
9, 114480, Note_on_c, 3, 50, 84
9, 114689, Note_on_c, 3, 50, 0
9, 114720, Note_on_c, 3, 46, 84
9, 114929, Note_on_c, 3, 46, 0
9, 114960, Note_on_c, 3, 62, 84
9, 115169, Note_on_c, 3, 62, 0
9, 115200, Note_on_c, 3, 58, 84
9, 115409, Note_on_c, 3, 58, 0
9, 115440, Note_on_c, 3, 46, 84
9, 115649, Note_on_c, 3, 46, 0
9, 115680, Note_on_c, 3, 65, 84
9, 115889, Note_on_c, 3, 65, 0
9, 115920, Note_on_c, 3, 62, 84
9, 116129, Note_on_c, 3, 62, 0
9, 116160, Note_on_c, 3, 58, 84
9, 116369, Note_on_c, 3, 58, 0
9, 116400, Note_on_c, 3, 60, 84
9, 116609, Note_on_c, 3, 60, 0
9, 116640, Note_on_c, 3, 62, 84
9, 116849, Note_on_c, 3, 62, 0
9, 116880, Note_on_c, 3, 63, 76
9, 117119, Note_on_c, 3, 63, 0
9, 117600, Note_on_c, 3, 46, 76
9, 117839, Note_on_c, 3, 46, 0
9, 118320, Note_on_c, 3, 46, 76
9, 118559, Note_on_c, 3, 46, 0
9, 134880, Note_on_c, 3, 60, 60
9, 135569, Note_on_c, 3, 60, 0
9, 135600, Note_on_c, 3, 62, 52
9, 135839, Note_on_c, 3, 62, 0
9, 137760, Note_on_c, 3, 62, 60
9, 138449, Note_on_c, 3, 62, 0
9, 138480, Note_on_c, 3, 62, 44
9, 138599, Note_on_c, 3, 62, 0
9, 138720, Note_on_c, 3, 50, 44
9, 138839, Note_on_c, 3, 50, 0
9, 138960, Note_on_c, 3, 60, 44
9, 139079, Note_on_c, 3, 60, 0
9, 139200, Note_on_c, 3, 58, 44
9, 139319, Note_on_c, 3, 58, 0
9, 139440, Note_on_c, 3, 55, 44
9, 139559, Note_on_c, 3, 55, 0
9, 139680, Note_on_c, 3, 51, 44
9, 139799, Note_on_c, 3, 51, 0
9, 139920, Note_on_c, 3, 50, 44
9, 140039, Note_on_c, 3, 50, 0
9, 140160, Note_on_c, 3, 60, 44
9, 140160, Note_on_c, 3, 57, 44
9, 140279, Note_on_c, 3, 60, 0
9, 140279, Note_on_c, 3, 57, 0
9, 140400, Note_on_c, 3, 57, 44
9, 140400, Note_on_c, 3, 54, 44
9, 140519, Note_on_c, 3, 57, 0
9, 140519, Note_on_c, 3, 54, 0
9, 140640, Note_on_c, 3, 62, 44
9, 140640, Note_on_c, 3, 58, 44
9, 140759, Note_on_c, 3, 62, 0
9, 140759, Note_on_c, 3, 58, 0
9, 140880, Note_on_c, 3, 55, 44
9, 140880, Note_on_c, 3, 58, 44
9, 140999, Note_on_c, 3, 55, 0
9, 140999, Note_on_c, 3, 58, 0
9, 141120, Note_on_c, 3, 63, 44
9, 141120, Note_on_c, 3, 51, 44
9, 141239, Note_on_c, 3, 63, 0
9, 141239, Note_on_c, 3, 51, 0
9, 141360, Note_on_c, 3, 62, 44
9, 141360, Note_on_c, 3, 50, 44
9, 141479, Note_on_c, 3, 62, 0
9, 141479, Note_on_c, 3, 50, 0
9, 155520, Note_on_c, 3, 56, 52
9, 155520, Note_on_c, 3, 60, 52
9, 155639, Note_on_c, 3, 56, 0
9, 155639, Note_on_c, 3, 60, 0
9, 155760, Note_on_c, 3, 55, 52
9, 155760, Note_on_c, 3, 58, 52
9, 155879, Note_on_c, 3, 55, 0
9, 155879, Note_on_c, 3, 58, 0
9, 156000, Note_on_c, 3, 60, 52
9, 156000, Note_on_c, 3, 56, 52
9, 156119, Note_on_c, 3, 60, 0
9, 156119, Note_on_c, 3, 56, 0
9, 156240, Note_on_c, 3, 55, 52
9, 156240, Note_on_c, 3, 58, 52
9, 156359, Note_on_c, 3, 55, 0
9, 156359, Note_on_c, 3, 58, 0
9, 156480, Note_on_c, 3, 60, 52
9, 156480, Note_on_c, 3, 56, 52
9, 156599, Note_on_c, 3, 60, 0
9, 156599, Note_on_c, 3, 56, 0
9, 156720, Note_on_c, 3, 58, 52
9, 156720, Note_on_c, 3, 55, 52
9, 156839, Note_on_c, 3, 58, 0
9, 156839, Note_on_c, 3, 55, 0
9, 156960, Note_on_c, 3, 58, 52
9, 156960, Note_on_c, 3, 62, 52
9, 157079, Note_on_c, 3, 58, 0
9, 157079, Note_on_c, 3, 62, 0
9, 157200, Note_on_c, 3, 63, 52
9, 157200, Note_on_c, 3, 58, 52
9, 157319, Note_on_c, 3, 63, 0
9, 157319, Note_on_c, 3, 58, 0
9, 163680, Note_on_c, 3, 46, 52
9, 163680, Note_on_c, 3, 58, 52
9, 163799, Note_on_c, 3, 46, 0
9, 163799, Note_on_c, 3, 58, 0
9, 163920, Note_on_c, 3, 60, 62
9, 163920, Note_on_c, 3, 48, 62
9, 164039, Note_on_c, 3, 60, 0
9, 164039, Note_on_c, 3, 48, 0
9, 164160, Note_on_c, 3, 62, 73
9, 164160, Note_on_c, 3, 50, 73
9, 164279, Note_on_c, 3, 62, 0
9, 164279, Note_on_c, 3, 50, 0
9, 164400, Note_on_c, 3, 51, 84
9, 164400, Note_on_c, 3, 63, 84
9, 164609, Note_on_c, 3, 51, 0
9, 164609, Note_on_c, 3, 63, 0
9, 164640, Note_on_c, 3, 55, 84
9, 164640, Note_on_c, 3, 63, 84
9, 164849, Note_on_c, 3, 55, 0
9, 164849, Note_on_c, 3, 63, 0
9, 164880, Note_on_c, 3, 58, 84
9, 164880, Note_on_c, 3, 63, 84
9, 165089, Note_on_c, 3, 58, 0
9, 165089, Note_on_c, 3, 63, 0
9, 165120, Note_on_c, 3, 51, 84
9, 165120, Note_on_c, 3, 63, 84
9, 165329, Note_on_c, 3, 51, 0
9, 165329, Note_on_c, 3, 63, 0
9, 165360, Note_on_c, 3, 63, 84
9, 165360, Note_on_c, 3, 55, 84
9, 165569, Note_on_c, 3, 63, 0
9, 165569, Note_on_c, 3, 55, 0
9, 165600, Note_on_c, 3, 58, 84
9, 165600, Note_on_c, 3, 63, 84
9, 165809, Note_on_c, 3, 58, 0
9, 165809, Note_on_c, 3, 63, 0
9, 165840, Note_on_c, 3, 51, 84
9, 165840, Note_on_c, 3, 63, 84
9, 166049, Note_on_c, 3, 51, 0
9, 166079, Note_on_c, 3, 63, 0
9, 166080, Note_on_c, 3, 51, 84
9, 166080, Note_on_c, 3, 65, 84
9, 166199, Note_on_c, 3, 65, 0
9, 166200, Note_on_c, 3, 63, 84
9, 166289, Note_on_c, 3, 51, 0
9, 166319, Note_on_c, 3, 63, 0
9, 166320, Note_on_c, 3, 51, 84
9, 166320, Note_on_c, 3, 62, 84
9, 166439, Note_on_c, 3, 62, 0
9, 166440, Note_on_c, 3, 60, 84
9, 166529, Note_on_c, 3, 51, 0
9, 166529, Note_on_c, 3, 60, 0
9, 166560, Note_on_c, 3, 58, 84
9, 166560, Note_on_c, 3, 51, 84
9, 166769, Note_on_c, 3, 51, 0
9, 166800, Note_on_c, 3, 51, 84
9, 167009, Note_on_c, 3, 51, 0
9, 167040, Note_on_c, 3, 51, 84
9, 167249, Note_on_c, 3, 58, 0
9, 167249, Note_on_c, 3, 51, 0
9, 167280, Note_on_c, 3, 51, 84
9, 167519, Note_on_c, 3, 51, 0
9, 167520, Note_on_c, 3, 53, 84
9, 167639, Note_on_c, 3, 53, 0
9, 167640, Note_on_c, 3, 51, 84
9, 167759, Note_on_c, 3, 51, 0
9, 167760, Note_on_c, 3, 50, 84
9, 167879, Note_on_c, 3, 50, 0
9, 167880, Note_on_c, 3, 48, 84
9, 167969, Note_on_c, 3, 48, 0
9, 168000, Note_on_c, 3, 58, 84
9, 168000, Note_on_c, 3, 46, 84
9, 168689, Note_on_c, 3, 58, 0
9, 168689, Note_on_c, 3, 46, 0
9, 168720, Note_on_c, 3, 56, 92
9, 169409, Note_on_c, 3, 56, 0
9, 169440, Note_on_c, 3, 55, 84
9, 169679, Note_on_c, 3, 55, 0
9, 169680, Note_on_c, 3, 58, 84
9, 169889, Note_on_c, 3, 58, 0
9, 169920, Note_on_c, 3, 55, 84
9, 170039, Note_on_c, 3, 55, 0
9, 170160, Note_on_c, 3, 53, 84
9, 170399, Note_on_c, 3, 53, 0
9, 170400, Note_on_c, 3, 58, 84
9, 170609, Note_on_c, 3, 58, 0
9, 170640, Note_on_c, 3, 53, 84
9, 170759, Note_on_c, 3, 53, 0
9, 170880, Note_on_c, 3, 51, 84
9, 170999, Note_on_c, 3, 51, 0
9, 171120, Note_on_c, 3, 55, 84
9, 171239, Note_on_c, 3, 55, 0
9, 171360, Note_on_c, 3, 58, 84
9, 171479, Note_on_c, 3, 58, 0
9, 171600, Note_on_c, 3, 56, 92
9, 172289, Note_on_c, 3, 56, 0
9, 172320, Note_on_c, 3, 55, 84
9, 172559, Note_on_c, 3, 55, 0
9, 172560, Note_on_c, 3, 58, 84
9, 172769, Note_on_c, 3, 58, 0
9, 172800, Note_on_c, 3, 55, 84
9, 172919, Note_on_c, 3, 55, 0
9, 173040, Note_on_c, 3, 53, 84
9, 173279, Note_on_c, 3, 53, 0
9, 173280, Note_on_c, 3, 56, 84
9, 173489, Note_on_c, 3, 56, 0
9, 173520, Note_on_c, 3, 53, 84
9, 173639, Note_on_c, 3, 53, 0
9, 173760, Note_on_c, 3, 51, 84
9, 173879, Note_on_c, 3, 51, 0
9, 174000, Note_on_c, 3, 56, 84
9, 174119, Note_on_c, 3, 56, 0
9, 174240, Note_on_c, 3, 51, 84
9, 174359, Note_on_c, 3, 51, 0
9, 174480, Note_on_c, 3, 49, 92
9, 175169, Note_on_c, 3, 49, 0
9, 175200, Note_on_c, 3, 48, 84
9, 175439, Note_on_c, 3, 48, 0
9, 175440, Note_on_c, 3, 51, 84
9, 175649, Note_on_c, 3, 51, 0
9, 175680, Note_on_c, 3, 48, 84
9, 175799, Note_on_c, 3, 48, 0
9, 175920, Note_on_c, 3, 51, 84
9, 176039, Note_on_c, 3, 51, 0
9, 176160, Note_on_c, 3, 46, 84
9, 176279, Note_on_c, 3, 46, 0
9, 176400, Note_on_c, 3, 51, 84
9, 176519, Note_on_c, 3, 51, 0
9, 176640, Note_on_c, 3, 44, 84
9, 176759, Note_on_c, 3, 44, 0
9, 176880, Note_on_c, 3, 56, 84
9, 176999, Note_on_c, 3, 56, 0
9, 177120, Note_on_c, 3, 44, 84
9, 177239, Note_on_c, 3, 44, 0
9, 177360, Note_on_c, 3, 55, 84
9, 177479, Note_on_c, 3, 55, 0
9, 177600, Note_on_c, 3, 43, 84
9, 177719, Note_on_c, 3, 43, 0
9, 177840, Note_on_c, 3, 55, 84
9, 177959, Note_on_c, 3, 55, 0
9, 178080, Note_on_c, 3, 44, 84
9, 178199, Note_on_c, 3, 44, 0
9, 178320, Note_on_c, 3, 53, 84
9, 178439, Note_on_c, 3, 53, 0
9, 178560, Note_on_c, 3, 44, 84
9, 178679, Note_on_c, 3, 44, 0
9, 178800, Note_on_c, 3, 46, 84
9, 178919, Note_on_c, 3, 46, 0
9, 179040, Note_on_c, 3, 55, 84
9, 179159, Note_on_c, 3, 55, 0
9, 179280, Note_on_c, 3, 46, 84
9, 179399, Note_on_c, 3, 46, 0
9, 179520, Note_on_c, 3, 58, 84
9, 179639, Note_on_c, 3, 58, 0
9, 179760, Note_on_c, 3, 46, 84
9, 179879, Note_on_c, 3, 46, 0
9, 180000, Note_on_c, 3, 58, 84
9, 180119, Note_on_c, 3, 58, 0
9, 180240, Note_on_c, 3, 51, 84
9, 180479, Note_on_c, 3, 51, 0
9, 183360, Note_on_c, 3, 55, 52
9, 183360, Note_on_c, 3, 58, 52
9, 183569, Note_on_c, 3, 55, 0
9, 183569, Note_on_c, 3, 58, 0
9, 183600, Note_on_c, 3, 55, 52
9, 183600, Note_on_c, 3, 58, 52
9, 183809, Note_on_c, 3, 55, 0
9, 183809, Note_on_c, 3, 58, 0
9, 183840, Note_on_c, 3, 56, 52
9, 183840, Note_on_c, 3, 60, 52
9, 184049, Note_on_c, 3, 56, 0
9, 184049, Note_on_c, 3, 60, 0
9, 184080, Note_on_c, 3, 56, 52
9, 184080, Note_on_c, 3, 60, 52
9, 184289, Note_on_c, 3, 56, 0
9, 184289, Note_on_c, 3, 60, 0
9, 184320, Note_on_c, 3, 57, 52
9, 184320, Note_on_c, 3, 60, 52
9, 184529, Note_on_c, 3, 57, 0
9, 184529, Note_on_c, 3, 60, 0
9, 184560, Note_on_c, 3, 58, 52
9, 184769, Note_on_c, 3, 58, 0
9, 184800, Note_on_c, 3, 58, 52
9, 185009, Note_on_c, 3, 58, 0
9, 185040, Note_on_c, 3, 58, 52
9, 185249, Note_on_c, 3, 58, 0
9, 185280, Note_on_c, 3, 58, 52
9, 185489, Note_on_c, 3, 58, 0
9, 185520, Note_on_c, 3, 58, 52
9, 185729, Note_on_c, 3, 58, 0
9, 185760, Note_on_c, 3, 58, 52
9, 185969, Note_on_c, 3, 58, 0
9, 186000, Note_on_c, 3, 63, 76
9, 186119, Note_on_c, 3, 63, 0
9, 186240, Note_on_c, 3, 67, 84
9, 186689, Note_on_c, 3, 67, 0
9, 186720, Note_on_c, 3, 63, 76
9, 186929, Note_on_c, 3, 63, 0
9, 186960, Note_on_c, 3, 58, 84
9, 187409, Note_on_c, 3, 58, 0
9, 187440, Note_on_c, 3, 55, 76
9, 187649, Note_on_c, 3, 55, 0
9, 187680, Note_on_c, 3, 51, 84
9, 188129, Note_on_c, 3, 51, 0
9, 188160, Note_on_c, 3, 46, 76
9, 188399, Note_on_c, 3, 46, 0
9, 188640, Note_on_c, 3, 44, 76
9, 188699, Note_on_c, 3, 44, 0
9, 188700, Note_on_c, 3, 46, 76
9, 188759, Note_on_c, 3, 46, 0
9, 188760, Note_on_c, 3, 43, 76
9, 188819, Note_on_c, 3, 43, 0
9, 188820, Note_on_c, 3, 44, 76
9, 188879, Note_on_c, 3, 44, 0
9, 188880, Note_on_c, 3, 43, 76
9, 189089, Note_on_c, 3, 43, 0
9, 189120, Note_on_c, 3, 59, 52
9, 189120, Note_on_c, 3, 62, 52
9, 189239, Note_on_c, 3, 59, 0
9, 189239, Note_on_c, 3, 62, 0
9, 189360, Note_on_c, 3, 63, 52
9, 189360, Note_on_c, 3, 60, 52
9, 189479, Note_on_c, 3, 63, 0
9, 189479, Note_on_c, 3, 60, 0
9, 189600, Note_on_c, 3, 59, 52
9, 189600, Note_on_c, 3, 62, 52
9, 189719, Note_on_c, 3, 59, 0
9, 189719, Note_on_c, 3, 62, 0
9, 189840, Note_on_c, 3, 60, 52
9, 189840, Note_on_c, 3, 63, 52
9, 189959, Note_on_c, 3, 60, 0
9, 189959, Note_on_c, 3, 63, 0
9, 190080, Note_on_c, 3, 62, 52
9, 190080, Note_on_c, 3, 59, 52
9, 190199, Note_on_c, 3, 62, 0
9, 190199, Note_on_c, 3, 59, 0
9, 190320, Note_on_c, 3, 60, 52
9, 190320, Note_on_c, 3, 63, 52
9, 190559, Note_on_c, 3, 60, 0
9, 190559, Note_on_c, 3, 63, 0
9, 192000, Note_on_c, 3, 57, 52
9, 192000, Note_on_c, 3, 60, 52
9, 192119, Note_on_c, 3, 57, 0
9, 192119, Note_on_c, 3, 60, 0
9, 192240, Note_on_c, 3, 62, 52
9, 192240, Note_on_c, 3, 58, 52
9, 192359, Note_on_c, 3, 62, 0
9, 192359, Note_on_c, 3, 58, 0
9, 192480, Note_on_c, 3, 57, 52
9, 192480, Note_on_c, 3, 60, 52
9, 192599, Note_on_c, 3, 57, 0
9, 192599, Note_on_c, 3, 60, 0
9, 192720, Note_on_c, 3, 58, 52
9, 192720, Note_on_c, 3, 62, 52
9, 192839, Note_on_c, 3, 58, 0
9, 192839, Note_on_c, 3, 62, 0
9, 192960, Note_on_c, 3, 57, 52
9, 192960, Note_on_c, 3, 60, 52
9, 193079, Note_on_c, 3, 57, 0
9, 193079, Note_on_c, 3, 60, 0
9, 193200, Note_on_c, 3, 62, 52
9, 193200, Note_on_c, 3, 58, 52
9, 193439, Note_on_c, 3, 62, 0
9, 193439, Note_on_c, 3, 58, 0
9, 194880, Note_on_c, 3, 56, 52
9, 194999, Note_on_c, 3, 56, 0
9, 195120, Note_on_c, 3, 63, 52
9, 195239, Note_on_c, 3, 63, 0
9, 195360, Note_on_c, 3, 56, 52
9, 195479, Note_on_c, 3, 56, 0
9, 195600, Note_on_c, 3, 63, 52
9, 195719, Note_on_c, 3, 63, 0
9, 195840, Note_on_c, 3, 56, 52
9, 195959, Note_on_c, 3, 56, 0
9, 196080, Note_on_c, 3, 63, 52
9, 196199, Note_on_c, 3, 63, 0
9, 197760, Note_on_c, 3, 56, 52
9, 197879, Note_on_c, 3, 56, 0
9, 198000, Note_on_c, 3, 63, 52
9, 198119, Note_on_c, 3, 63, 0
9, 198240, Note_on_c, 3, 56, 52
9, 198359, Note_on_c, 3, 56, 0
9, 198480, Note_on_c, 3, 63, 52
9, 198599, Note_on_c, 3, 63, 0
9, 198720, Note_on_c, 3, 56, 52
9, 198839, Note_on_c, 3, 56, 0
9, 198960, Note_on_c, 3, 63, 52
9, 199079, Note_on_c, 3, 63, 0
9, 199200, Note_on_c, 3, 56, 52
9, 199319, Note_on_c, 3, 56, 0
9, 199440, Note_on_c, 3, 51, 52
9, 199559, Note_on_c, 3, 51, 0
9, 199680, Note_on_c, 3, 56, 52
9, 199799, Note_on_c, 3, 56, 0
9, 199920, Note_on_c, 3, 58, 52
9, 199920, Note_on_c, 3, 55, 52
9, 200039, Note_on_c, 3, 58, 0
9, 200039, Note_on_c, 3, 55, 0
9, 200160, Note_on_c, 3, 60, 52
9, 200160, Note_on_c, 3, 56, 52
9, 200279, Note_on_c, 3, 60, 0
9, 200279, Note_on_c, 3, 56, 0
9, 200400, Note_on_c, 3, 58, 52
9, 200400, Note_on_c, 3, 55, 52
9, 200519, Note_on_c, 3, 58, 0
9, 200519, Note_on_c, 3, 55, 0
9, 201120, Note_on_c, 3, 56, 52
9, 201359, Note_on_c, 3, 56, 0
9, 201840, Note_on_c, 3, 53, 52
9, 202079, Note_on_c, 3, 53, 0
9, 202560, Note_on_c, 3, 58, 52
9, 202799, Note_on_c, 3, 58, 0
9, 203280, Note_on_c, 3, 55, 52
9, 203519, Note_on_c, 3, 55, 0
9, 204000, Note_on_c, 3, 60, 52
9, 204239, Note_on_c, 3, 60, 0
9, 204720, Note_on_c, 3, 56, 52
9, 204959, Note_on_c, 3, 56, 0
9, 205440, Note_on_c, 3, 58, 52
9, 205679, Note_on_c, 3, 58, 0
9, 206160, Note_on_c, 3, 51, 52
9, 206369, Note_on_c, 3, 51, 0
9, 206400, Note_on_c, 3, 58, 52
9, 206519, Note_on_c, 3, 58, 0
9, 206640, Note_on_c, 3, 59, 52
9, 206759, Note_on_c, 3, 59, 0
9, 206880, Note_on_c, 3, 51, 52
9, 206880, Note_on_c, 3, 60, 52
9, 206999, Note_on_c, 3, 60, 0
9, 207119, Note_on_c, 3, 51, 0
9, 207120, Note_on_c, 3, 62, 52
9, 207239, Note_on_c, 3, 62, 0
9, 207360, Note_on_c, 3, 63, 52
9, 207479, Note_on_c, 3, 63, 0
9, 207600, Note_on_c, 3, 44, 52
9, 207600, Note_on_c, 3, 65, 52
9, 207809, Note_on_c, 3, 65, 0
9, 207839, Note_on_c, 3, 44, 0
9, 207840, Note_on_c, 3, 60, 52
9, 207959, Note_on_c, 3, 60, 0
9, 208080, Note_on_c, 3, 61, 52
9, 208199, Note_on_c, 3, 61, 0
9, 208320, Note_on_c, 3, 62, 52
9, 208320, Note_on_c, 3, 53, 52
9, 208439, Note_on_c, 3, 62, 0
9, 208559, Note_on_c, 3, 53, 0
9, 208560, Note_on_c, 3, 64, 52
9, 208679, Note_on_c, 3, 64, 0
9, 208800, Note_on_c, 3, 65, 52
9, 208919, Note_on_c, 3, 65, 0
9, 209040, Note_on_c, 3, 46, 52
9, 209040, Note_on_c, 3, 67, 52
9, 209279, Note_on_c, 3, 46, 0
9, 209279, Note_on_c, 3, 67, 0
9, 209760, Note_on_c, 3, 55, 60
9, 209999, Note_on_c, 3, 55, 0
9, 210480, Note_on_c, 3, 48, 68
9, 210689, Note_on_c, 3, 48, 0
9, 210720, Note_on_c, 3, 43, 70
9, 210929, Note_on_c, 3, 43, 0
9, 210960, Note_on_c, 3, 44, 73
9, 211169, Note_on_c, 3, 44, 0
9, 211200, Note_on_c, 3, 41, 76
9, 211409, Note_on_c, 3, 41, 0
9, 211440, Note_on_c, 3, 49, 78
9, 211649, Note_on_c, 3, 49, 0
9, 211680, Note_on_c, 3, 50, 81
9, 211889, Note_on_c, 3, 50, 0
9, 211920, Note_on_c, 3, 46, 84
9, 212129, Note_on_c, 3, 46, 0
9, 212160, Note_on_c, 3, 53, 84
9, 212369, Note_on_c, 3, 53, 0
9, 212400, Note_on_c, 3, 50, 84
9, 212609, Note_on_c, 3, 50, 0
9, 212640, Note_on_c, 3, 46, 84
9, 212849, Note_on_c, 3, 46, 0
9, 212880, Note_on_c, 3, 62, 84
9, 213089, Note_on_c, 3, 62, 0
9, 213120, Note_on_c, 3, 58, 84
9, 213329, Note_on_c, 3, 58, 0
9, 213360, Note_on_c, 3, 46, 84
9, 213569, Note_on_c, 3, 46, 0
9, 213600, Note_on_c, 3, 65, 84
9, 213809, Note_on_c, 3, 65, 0
9, 213840, Note_on_c, 3, 62, 84
9, 214049, Note_on_c, 3, 62, 0
9, 214080, Note_on_c, 3, 58, 84
9, 214289, Note_on_c, 3, 58, 0
9, 214320, Note_on_c, 3, 60, 84
9, 214529, Note_on_c, 3, 60, 0
9, 214560, Note_on_c, 3, 62, 84
9, 214769, Note_on_c, 3, 62, 0
9, 214800, Note_on_c, 3, 63, 76
9, 215039, Note_on_c, 3, 63, 0
9, 215520, Note_on_c, 3, 46, 76
9, 215759, Note_on_c, 3, 46, 0
9, 216240, Note_on_c, 3, 51, 76
9, 216449, Note_on_c, 3, 51, 0
9, 216480, Note_on_c, 3, 58, 76
9, 216689, Note_on_c, 3, 58, 0
9, 216720, Note_on_c, 3, 55, 76
9, 216929, Note_on_c, 3, 55, 0
9, 216960, Note_on_c, 3, 51, 76
9, 217199, Note_on_c, 3, 51, 0
9, 228000, Note_on_c, 3, 60, 52
9, 228209, Note_on_c, 3, 60, 0
9, 228240, Note_on_c, 3, 58, 52
9, 228240, Note_on_c, 3, 62, 52
9, 228449, Note_on_c, 3, 58, 0
9, 228449, Note_on_c, 3, 62, 0
9, 228480, Note_on_c, 3, 51, 52
9, 228480, Note_on_c, 3, 63, 52
9, 228719, Note_on_c, 3, 51, 0
9, 228719, Note_on_c, 3, 63, 0
9, 241920, Note_on_c, 3, 55, 76
9, 241920, Note_on_c, 3, 63, 76
9, 242129, Note_on_c, 3, 55, 0
9, 242129, Note_on_c, 3, 63, 0
9, 242160, Note_on_c, 3, 63, 76
9, 242399, Note_on_c, 3, 63, 0
9, 242400, Note_on_c, 3, 60, 76
9, 242639, Note_on_c, 3, 60, 0
9, 242640, Note_on_c, 3, 58, 76
9, 242879, Note_on_c, 3, 58, 0
9, 242880, Note_on_c, 3, 56, 76
9, 242999, Note_on_c, 3, 56, 0
9, 243360, Note_on_c, 3, 60, 76
9, 243569, Note_on_c, 3, 60, 0
9, 243600, Note_on_c, 3, 60, 76
9, 244049, Note_on_c, 3, 60, 0
9, 244080, Note_on_c, 3, 60, 76
9, 244289, Note_on_c, 3, 60, 0
9, 244320, Note_on_c, 3, 60, 76
9, 244769, Note_on_c, 3, 60, 0
9, 244800, Note_on_c, 3, 52, 76
9, 244800, Note_on_c, 3, 60, 76
9, 245009, Note_on_c, 3, 52, 0
9, 245009, Note_on_c, 3, 60, 0
9, 245040, Note_on_c, 3, 60, 76
9, 245279, Note_on_c, 3, 60, 0
9, 245280, Note_on_c, 3, 56, 76
9, 245519, Note_on_c, 3, 56, 0
9, 245520, Note_on_c, 3, 55, 76
9, 245759, Note_on_c, 3, 55, 0
9, 245760, Note_on_c, 3, 53, 76
9, 245879, Note_on_c, 3, 53, 0
9, 246240, Note_on_c, 3, 65, 48
9, 246449, Note_on_c, 3, 65, 0
9, 246480, Note_on_c, 3, 65, 48
9, 246719, Note_on_c, 3, 65, 0
9, 246720, Note_on_c, 3, 62, 48
9, 246959, Note_on_c, 3, 62, 0
9, 246960, Note_on_c, 3, 60, 48
9, 247199, Note_on_c, 3, 60, 0
9, 247200, Note_on_c, 3, 58, 48
9, 247439, Note_on_c, 3, 58, 0
9, 247440, Note_on_c, 3, 62, 48
9, 247679, Note_on_c, 3, 62, 0
9, 247680, Note_on_c, 3, 60, 48
9, 247919, Note_on_c, 3, 60, 0
9, 247920, Note_on_c, 3, 63, 48
9, 248159, Note_on_c, 3, 63, 0
9, 248160, Note_on_c, 3, 57, 48
9, 248399, Note_on_c, 3, 57, 0
9, 248400, Note_on_c, 3, 60, 48
9, 248639, Note_on_c, 3, 60, 0
9, 248640, Note_on_c, 3, 53, 48
9, 248879, Note_on_c, 3, 53, 0
9, 248880, Note_on_c, 3, 63, 48
9, 249119, Note_on_c, 3, 63, 0
9, 249120, Note_on_c, 3, 62, 48
9, 249359, Note_on_c, 3, 62, 0
9, 249360, Note_on_c, 3, 65, 48
9, 249599, Note_on_c, 3, 65, 0
9, 249600, Note_on_c, 3, 62, 48
9, 249839, Note_on_c, 3, 62, 0
9, 249840, Note_on_c, 3, 60, 48
9, 250079, Note_on_c, 3, 60, 0
9, 250080, Note_on_c, 3, 58, 48
9, 250319, Note_on_c, 3, 58, 0
9, 250320, Note_on_c, 3, 62, 48
9, 250559, Note_on_c, 3, 62, 0
9, 250560, Note_on_c, 3, 60, 48
9, 250799, Note_on_c, 3, 60, 0
9, 250800, Note_on_c, 3, 63, 48
9, 251039, Note_on_c, 3, 63, 0
9, 251040, Note_on_c, 3, 57, 48
9, 251279, Note_on_c, 3, 57, 0
9, 251280, Note_on_c, 3, 60, 48
9, 251519, Note_on_c, 3, 60, 0
9, 251520, Note_on_c, 3, 53, 48
9, 251759, Note_on_c, 3, 53, 0
9, 251760, Note_on_c, 3, 63, 48
9, 251999, Note_on_c, 3, 63, 0
9, 252000, Note_on_c, 3, 62, 48
9, 252239, Note_on_c, 3, 62, 0
9, 252240, Note_on_c, 3, 65, 48
9, 252479, Note_on_c, 3, 65, 0
9, 252480, Note_on_c, 3, 62, 48
9, 252719, Note_on_c, 3, 62, 0
9, 252720, Note_on_c, 3, 60, 48
9, 252959, Note_on_c, 3, 60, 0
9, 252960, Note_on_c, 3, 58, 48
9, 253199, Note_on_c, 3, 58, 0
9, 286560, Note_on_c, 3, 63, 76
9, 286560, Note_on_c, 3, 55, 76
9, 286769, Note_on_c, 3, 63, 0
9, 286769, Note_on_c, 3, 55, 0
9, 286800, Note_on_c, 3, 63, 76
9, 287039, Note_on_c, 3, 63, 0
9, 287040, Note_on_c, 3, 60, 76
9, 287279, Note_on_c, 3, 60, 0
9, 287280, Note_on_c, 3, 58, 76
9, 287519, Note_on_c, 3, 58, 0
9, 287520, Note_on_c, 3, 56, 76
9, 287639, Note_on_c, 3, 56, 0
9, 288000, Note_on_c, 3, 60, 76
9, 288209, Note_on_c, 3, 60, 0
9, 288240, Note_on_c, 3, 60, 76
9, 288689, Note_on_c, 3, 60, 0
9, 288720, Note_on_c, 3, 60, 76
9, 288929, Note_on_c, 3, 60, 0
9, 288960, Note_on_c, 3, 60, 76
9, 289409, Note_on_c, 3, 60, 0
9, 289440, Note_on_c, 3, 52, 76
9, 289440, Note_on_c, 3, 60, 76
9, 289649, Note_on_c, 3, 52, 0
9, 289649, Note_on_c, 3, 60, 0
9, 289680, Note_on_c, 3, 60, 76
9, 289919, Note_on_c, 3, 60, 0
9, 289920, Note_on_c, 3, 56, 76
9, 290159, Note_on_c, 3, 56, 0
9, 290160, Note_on_c, 3, 55, 76
9, 290399, Note_on_c, 3, 55, 0
9, 290400, Note_on_c, 3, 53, 76
9, 290519, Note_on_c, 3, 53, 0
9, 290880, Note_on_c, 3, 65, 48
9, 291089, Note_on_c, 3, 65, 0
9, 291120, Note_on_c, 3, 65, 48
9, 291359, Note_on_c, 3, 65, 0
9, 291360, Note_on_c, 3, 62, 48
9, 291599, Note_on_c, 3, 62, 0
9, 291600, Note_on_c, 3, 60, 48
9, 291839, Note_on_c, 3, 60, 0
9, 291840, Note_on_c, 3, 58, 48
9, 292079, Note_on_c, 3, 58, 0
9, 292080, Note_on_c, 3, 62, 48
9, 292319, Note_on_c, 3, 62, 0
9, 292320, Note_on_c, 3, 60, 48
9, 292559, Note_on_c, 3, 60, 0
9, 292560, Note_on_c, 3, 63, 48
9, 292799, Note_on_c, 3, 63, 0
9, 292800, Note_on_c, 3, 57, 48
9, 293039, Note_on_c, 3, 57, 0
9, 293040, Note_on_c, 3, 60, 48
9, 293279, Note_on_c, 3, 60, 0
9, 293280, Note_on_c, 3, 53, 48
9, 293519, Note_on_c, 3, 53, 0
9, 293520, Note_on_c, 3, 63, 48
9, 293759, Note_on_c, 3, 63, 0
9, 293760, Note_on_c, 3, 62, 48
9, 293999, Note_on_c, 3, 62, 0
9, 294000, Note_on_c, 3, 65, 48
9, 294239, Note_on_c, 3, 65, 0
9, 294240, Note_on_c, 3, 62, 48
9, 294479, Note_on_c, 3, 62, 0
9, 294480, Note_on_c, 3, 60, 48
9, 294719, Note_on_c, 3, 60, 0
9, 294720, Note_on_c, 3, 58, 48
9, 294959, Note_on_c, 3, 58, 0
9, 294960, Note_on_c, 3, 62, 48
9, 295199, Note_on_c, 3, 62, 0
9, 295200, Note_on_c, 3, 60, 48
9, 295439, Note_on_c, 3, 60, 0
9, 295440, Note_on_c, 3, 63, 48
9, 295679, Note_on_c, 3, 63, 0
9, 295680, Note_on_c, 3, 57, 48
9, 295919, Note_on_c, 3, 57, 0
9, 295920, Note_on_c, 3, 60, 48
9, 296159, Note_on_c, 3, 60, 0
9, 296160, Note_on_c, 3, 53, 48
9, 296399, Note_on_c, 3, 53, 0
9, 296400, Note_on_c, 3, 63, 48
9, 296639, Note_on_c, 3, 63, 0
9, 296640, Note_on_c, 3, 62, 48
9, 296879, Note_on_c, 3, 62, 0
9, 296880, Note_on_c, 3, 65, 48
9, 297119, Note_on_c, 3, 65, 0
9, 297120, Note_on_c, 3, 62, 48
9, 297359, Note_on_c, 3, 62, 0
9, 297360, Note_on_c, 3, 60, 48
9, 297599, Note_on_c, 3, 60, 0
9, 297600, Note_on_c, 3, 58, 48
9, 297839, Note_on_c, 3, 58, 0
9, 345840, Note_on_c, 3, 63, 52
9, 346529, Note_on_c, 3, 63, 0
9, 346560, Note_on_c, 3, 62, 52
9, 346799, Note_on_c, 3, 62, 0
9, 346800, Note_on_c, 3, 65, 52
9, 347009, Note_on_c, 3, 65, 0
9, 347040, Note_on_c, 3, 62, 52
9, 347159, Note_on_c, 3, 62, 0
9, 347280, Note_on_c, 3, 60, 52
9, 347519, Note_on_c, 3, 60, 0
9, 347520, Note_on_c, 3, 63, 52
9, 347729, Note_on_c, 3, 63, 0
9, 347760, Note_on_c, 3, 60, 52
9, 347879, Note_on_c, 3, 60, 0
9, 348000, Note_on_c, 3, 58, 52
9, 348239, Note_on_c, 3, 58, 0
9, 365280, Note_on_c, 3, 60, 60
9, 365969, Note_on_c, 3, 60, 0
9, 366000, Note_on_c, 3, 62, 52
9, 366239, Note_on_c, 3, 62, 0
9, 368160, Note_on_c, 3, 62, 60
9, 368849, Note_on_c, 3, 62, 0
9, 368880, Note_on_c, 3, 62, 44
9, 368999, Note_on_c, 3, 62, 0
9, 369120, Note_on_c, 3, 50, 44
9, 369239, Note_on_c, 3, 50, 0
9, 369360, Note_on_c, 3, 60, 44
9, 369479, Note_on_c, 3, 60, 0
9, 369600, Note_on_c, 3, 58, 44
9, 369719, Note_on_c, 3, 58, 0
9, 369840, Note_on_c, 3, 55, 44
9, 369959, Note_on_c, 3, 55, 0
9, 370080, Note_on_c, 3, 51, 44
9, 370199, Note_on_c, 3, 51, 0
9, 370320, Note_on_c, 3, 46, 44
9, 370439, Note_on_c, 3, 46, 0
9, 370560, Note_on_c, 3, 57, 44
9, 370560, Note_on_c, 3, 60, 44
9, 370679, Note_on_c, 3, 57, 0
9, 370679, Note_on_c, 3, 60, 0
9, 370800, Note_on_c, 3, 54, 44
9, 370800, Note_on_c, 3, 57, 44
9, 370919, Note_on_c, 3, 54, 0
9, 370919, Note_on_c, 3, 57, 0
9, 371040, Note_on_c, 3, 62, 44
9, 371040, Note_on_c, 3, 58, 44
9, 371159, Note_on_c, 3, 62, 0
9, 371159, Note_on_c, 3, 58, 0
9, 371280, Note_on_c, 3, 55, 44
9, 371280, Note_on_c, 3, 58, 44
9, 371399, Note_on_c, 3, 55, 0
9, 371399, Note_on_c, 3, 58, 0
9, 371520, Note_on_c, 3, 63, 44
9, 371520, Note_on_c, 3, 51, 44
9, 371639, Note_on_c, 3, 63, 0
9, 371639, Note_on_c, 3, 51, 0
9, 371760, Note_on_c, 3, 50, 44
9, 371760, Note_on_c, 3, 62, 44
9, 371879, Note_on_c, 3, 50, 0
9, 371879, Note_on_c, 3, 62, 0
9, 385920, Note_on_c, 3, 56, 52
9, 385920, Note_on_c, 3, 60, 52
9, 386039, Note_on_c, 3, 56, 0
9, 386039, Note_on_c, 3, 60, 0
9, 386160, Note_on_c, 3, 58, 52
9, 386160, Note_on_c, 3, 55, 52
9, 386279, Note_on_c, 3, 58, 0
9, 386279, Note_on_c, 3, 55, 0
9, 386400, Note_on_c, 3, 56, 52
9, 386400, Note_on_c, 3, 60, 52
9, 386519, Note_on_c, 3, 56, 0
9, 386519, Note_on_c, 3, 60, 0
9, 386640, Note_on_c, 3, 55, 52
9, 386640, Note_on_c, 3, 58, 52
9, 386759, Note_on_c, 3, 55, 0
9, 386759, Note_on_c, 3, 58, 0
9, 386880, Note_on_c, 3, 60, 52
9, 386880, Note_on_c, 3, 56, 52
9, 386999, Note_on_c, 3, 60, 0
9, 386999, Note_on_c, 3, 56, 0
9, 387120, Note_on_c, 3, 55, 52
9, 387120, Note_on_c, 3, 58, 52
9, 387239, Note_on_c, 3, 55, 0
9, 387239, Note_on_c, 3, 58, 0
9, 387360, Note_on_c, 3, 58, 52
9, 387360, Note_on_c, 3, 62, 52
9, 387479, Note_on_c, 3, 58, 0
9, 387479, Note_on_c, 3, 62, 0
9, 387600, Note_on_c, 3, 63, 52
9, 387600, Note_on_c, 3, 58, 52
9, 387719, Note_on_c, 3, 63, 0
9, 387719, Note_on_c, 3, 58, 0
9, 394080, Note_on_c, 3, 46, 52
9, 394080, Note_on_c, 3, 58, 52
9, 394199, Note_on_c, 3, 46, 0
9, 394199, Note_on_c, 3, 58, 0
9, 394320, Note_on_c, 3, 60, 62
9, 394320, Note_on_c, 3, 48, 62
9, 394439, Note_on_c, 3, 60, 0
9, 394439, Note_on_c, 3, 48, 0
9, 394560, Note_on_c, 3, 50, 73
9, 394560, Note_on_c, 3, 62, 73
9, 394679, Note_on_c, 3, 50, 0
9, 394679, Note_on_c, 3, 62, 0
9, 394800, Note_on_c, 3, 51, 84
9, 394800, Note_on_c, 3, 63, 84
9, 395009, Note_on_c, 3, 51, 0
9, 395009, Note_on_c, 3, 63, 0
9, 395040, Note_on_c, 3, 55, 84
9, 395040, Note_on_c, 3, 63, 84
9, 395249, Note_on_c, 3, 55, 0
9, 395249, Note_on_c, 3, 63, 0
9, 395280, Note_on_c, 3, 58, 84
9, 395280, Note_on_c, 3, 63, 84
9, 395489, Note_on_c, 3, 58, 0
9, 395489, Note_on_c, 3, 63, 0
9, 395520, Note_on_c, 3, 51, 84
9, 395520, Note_on_c, 3, 63, 84
9, 395729, Note_on_c, 3, 51, 0
9, 395729, Note_on_c, 3, 63, 0
9, 395760, Note_on_c, 3, 63, 84
9, 395760, Note_on_c, 3, 55, 84
9, 395969, Note_on_c, 3, 63, 0
9, 395969, Note_on_c, 3, 55, 0
9, 396000, Note_on_c, 3, 63, 84
9, 396000, Note_on_c, 3, 58, 84
9, 396209, Note_on_c, 3, 63, 0
9, 396209, Note_on_c, 3, 58, 0
9, 396240, Note_on_c, 3, 51, 84
9, 396240, Note_on_c, 3, 63, 84
9, 396449, Note_on_c, 3, 51, 0
9, 396479, Note_on_c, 3, 63, 0
9, 396480, Note_on_c, 3, 65, 84
9, 396480, Note_on_c, 3, 51, 84
9, 396599, Note_on_c, 3, 65, 0
9, 396600, Note_on_c, 3, 63, 84
9, 396689, Note_on_c, 3, 51, 0
9, 396719, Note_on_c, 3, 63, 0
9, 396720, Note_on_c, 3, 62, 84
9, 396720, Note_on_c, 3, 51, 84
9, 396839, Note_on_c, 3, 62, 0
9, 396840, Note_on_c, 3, 60, 84
9, 396929, Note_on_c, 3, 51, 0
9, 396929, Note_on_c, 3, 60, 0
9, 396960, Note_on_c, 3, 58, 84
9, 396960, Note_on_c, 3, 51, 84
9, 397169, Note_on_c, 3, 51, 0
9, 397200, Note_on_c, 3, 51, 84
9, 397409, Note_on_c, 3, 51, 0
9, 397440, Note_on_c, 3, 51, 84
9, 397649, Note_on_c, 3, 58, 0
9, 397649, Note_on_c, 3, 51, 0
9, 397680, Note_on_c, 3, 51, 84
9, 397919, Note_on_c, 3, 51, 0
9, 397920, Note_on_c, 3, 53, 84
9, 398039, Note_on_c, 3, 53, 0
9, 398040, Note_on_c, 3, 51, 84
9, 398159, Note_on_c, 3, 51, 0
9, 398160, Note_on_c, 3, 50, 84
9, 398279, Note_on_c, 3, 50, 0
9, 398280, Note_on_c, 3, 48, 84
9, 398369, Note_on_c, 3, 48, 0
9, 398400, Note_on_c, 3, 46, 84
9, 398400, Note_on_c, 3, 58, 84
9, 399089, Note_on_c, 3, 46, 0
9, 399089, Note_on_c, 3, 58, 0
9, 399120, Note_on_c, 3, 56, 92
9, 399809, Note_on_c, 3, 56, 0
9, 399840, Note_on_c, 3, 55, 84
9, 400079, Note_on_c, 3, 55, 0
9, 400080, Note_on_c, 3, 58, 84
9, 400289, Note_on_c, 3, 58, 0
9, 400320, Note_on_c, 3, 55, 84
9, 400439, Note_on_c, 3, 55, 0
9, 400560, Note_on_c, 3, 53, 84
9, 400799, Note_on_c, 3, 53, 0
9, 400800, Note_on_c, 3, 58, 84
9, 401009, Note_on_c, 3, 58, 0
9, 401040, Note_on_c, 3, 53, 84
9, 401159, Note_on_c, 3, 53, 0
9, 401280, Note_on_c, 3, 51, 84
9, 401399, Note_on_c, 3, 51, 0
9, 401520, Note_on_c, 3, 55, 84
9, 401639, Note_on_c, 3, 55, 0
9, 401760, Note_on_c, 3, 58, 84
9, 401879, Note_on_c, 3, 58, 0
9, 402000, Note_on_c, 3, 56, 92
9, 402689, Note_on_c, 3, 56, 0
9, 402720, Note_on_c, 3, 55, 84
9, 402959, Note_on_c, 3, 55, 0
9, 402960, Note_on_c, 3, 58, 84
9, 403169, Note_on_c, 3, 58, 0
9, 403200, Note_on_c, 3, 55, 84
9, 403319, Note_on_c, 3, 55, 0
9, 403440, Note_on_c, 3, 53, 84
9, 403679, Note_on_c, 3, 53, 0
9, 403680, Note_on_c, 3, 56, 84
9, 403889, Note_on_c, 3, 56, 0
9, 403920, Note_on_c, 3, 53, 84
9, 404039, Note_on_c, 3, 53, 0
9, 404160, Note_on_c, 3, 51, 84
9, 404279, Note_on_c, 3, 51, 0
9, 404400, Note_on_c, 3, 56, 84
9, 404519, Note_on_c, 3, 56, 0
9, 404640, Note_on_c, 3, 51, 84
9, 404759, Note_on_c, 3, 51, 0
9, 404880, Note_on_c, 3, 49, 92
9, 405569, Note_on_c, 3, 49, 0
9, 405600, Note_on_c, 3, 48, 84
9, 405839, Note_on_c, 3, 48, 0
9, 405840, Note_on_c, 3, 51, 84
9, 406049, Note_on_c, 3, 51, 0
9, 406080, Note_on_c, 3, 48, 84
9, 406199, Note_on_c, 3, 48, 0
9, 406320, Note_on_c, 3, 51, 84
9, 406439, Note_on_c, 3, 51, 0
9, 406560, Note_on_c, 3, 46, 84
9, 406679, Note_on_c, 3, 46, 0
9, 406800, Note_on_c, 3, 51, 84
9, 406919, Note_on_c, 3, 51, 0
9, 407040, Note_on_c, 3, 44, 84
9, 407159, Note_on_c, 3, 44, 0
9, 407280, Note_on_c, 3, 56, 84
9, 407399, Note_on_c, 3, 56, 0
9, 407520, Note_on_c, 3, 44, 84
9, 407639, Note_on_c, 3, 44, 0
9, 407760, Note_on_c, 3, 55, 84
9, 407969, Note_on_c, 3, 55, 0
9, 408000, Note_on_c, 3, 43, 84
9, 408209, Note_on_c, 3, 43, 0
9, 408240, Note_on_c, 3, 55, 84
9, 408449, Note_on_c, 3, 55, 0
9, 408480, Note_on_c, 3, 44, 84
9, 408689, Note_on_c, 3, 44, 0
9, 408720, Note_on_c, 3, 53, 84
9, 408929, Note_on_c, 3, 53, 0
9, 408960, Note_on_c, 3, 44, 84
9, 409169, Note_on_c, 3, 44, 0
9, 409200, Note_on_c, 3, 46, 84
9, 409409, Note_on_c, 3, 46, 0
9, 409440, Note_on_c, 3, 55, 84
9, 409649, Note_on_c, 3, 55, 0
9, 409680, Note_on_c, 3, 46, 84
9, 409889, Note_on_c, 3, 46, 0
9, 409920, Note_on_c, 3, 58, 84
9, 410129, Note_on_c, 3, 58, 0
9, 410160, Note_on_c, 3, 46, 84
9, 410369, Note_on_c, 3, 46, 0
9, 410400, Note_on_c, 3, 58, 84
9, 410609, Note_on_c, 3, 58, 0
9, 410640, Note_on_c, 3, 51, 84
9, 410879, Note_on_c, 3, 51, 0
9, 413760, Note_on_c, 3, 55, 52
9, 413760, Note_on_c, 3, 58, 52
9, 413879, Note_on_c, 3, 55, 0
9, 413879, Note_on_c, 3, 58, 0
9, 414000, Note_on_c, 3, 55, 52
9, 414000, Note_on_c, 3, 58, 52
9, 414119, Note_on_c, 3, 55, 0
9, 414119, Note_on_c, 3, 58, 0
9, 414240, Note_on_c, 3, 56, 52
9, 414240, Note_on_c, 3, 60, 52
9, 414359, Note_on_c, 3, 56, 0
9, 414359, Note_on_c, 3, 60, 0
9, 414480, Note_on_c, 3, 60, 52
9, 414480, Note_on_c, 3, 56, 52
9, 414599, Note_on_c, 3, 60, 0
9, 414599, Note_on_c, 3, 56, 0
9, 414720, Note_on_c, 3, 60, 52
9, 414720, Note_on_c, 3, 57, 52
9, 414839, Note_on_c, 3, 60, 0
9, 414839, Note_on_c, 3, 57, 0
9, 414960, Note_on_c, 3, 58, 52
9, 415079, Note_on_c, 3, 58, 0
9, 415200, Note_on_c, 3, 58, 52
9, 415319, Note_on_c, 3, 58, 0
9, 415440, Note_on_c, 3, 58, 52
9, 415559, Note_on_c, 3, 58, 0
9, 415680, Note_on_c, 3, 58, 52
9, 415799, Note_on_c, 3, 58, 0
9, 415920, Note_on_c, 3, 58, 52
9, 416039, Note_on_c, 3, 58, 0
9, 416160, Note_on_c, 3, 58, 52
9, 416279, Note_on_c, 3, 58, 0
9, 416400, Note_on_c, 3, 63, 76
9, 416489, Note_on_c, 3, 63, 0
9, 416640, Note_on_c, 3, 67, 84
9, 416819, Note_on_c, 3, 67, 0
9, 416880, Note_on_c, 3, 63, 84
9, 417059, Note_on_c, 3, 63, 0
9, 417120, Note_on_c, 3, 58, 84
9, 417299, Note_on_c, 3, 58, 0
9, 417360, Note_on_c, 3, 55, 84
9, 417539, Note_on_c, 3, 55, 0
9, 417600, Note_on_c, 3, 51, 84
9, 417779, Note_on_c, 3, 51, 0
9, 417840, Note_on_c, 3, 46, 84
9, 418019, Note_on_c, 3, 46, 0
9, 418080, Note_on_c, 3, 44, 84
9, 418259, Note_on_c, 3, 44, 0
9, 418320, Note_on_c, 3, 43, 84
9, 418529, Note_on_c, 3, 43, 0
9, 418560, Note_on_c, 3, 62, 52
9, 418560, Note_on_c, 3, 59, 52
9, 418679, Note_on_c, 3, 62, 0
9, 418679, Note_on_c, 3, 59, 0
9, 418800, Note_on_c, 3, 63, 52
9, 418800, Note_on_c, 3, 60, 52
9, 418919, Note_on_c, 3, 63, 0
9, 418919, Note_on_c, 3, 60, 0
9, 419040, Note_on_c, 3, 62, 52
9, 419040, Note_on_c, 3, 59, 52
9, 419159, Note_on_c, 3, 62, 0
9, 419159, Note_on_c, 3, 59, 0
9, 419280, Note_on_c, 3, 60, 52
9, 419280, Note_on_c, 3, 63, 52
9, 419399, Note_on_c, 3, 60, 0
9, 419399, Note_on_c, 3, 63, 0
9, 419520, Note_on_c, 3, 59, 52
9, 419520, Note_on_c, 3, 62, 52
9, 419639, Note_on_c, 3, 59, 0
9, 419639, Note_on_c, 3, 62, 0
9, 419760, Note_on_c, 3, 63, 52
9, 419760, Note_on_c, 3, 60, 52
9, 419879, Note_on_c, 3, 63, 0
9, 419879, Note_on_c, 3, 60, 0
9, 421440, Note_on_c, 3, 60, 52
9, 421440, Note_on_c, 3, 57, 52
9, 421559, Note_on_c, 3, 60, 0
9, 421559, Note_on_c, 3, 57, 0
9, 421680, Note_on_c, 3, 62, 52
9, 421680, Note_on_c, 3, 58, 52
9, 421799, Note_on_c, 3, 62, 0
9, 421799, Note_on_c, 3, 58, 0
9, 421920, Note_on_c, 3, 60, 52
9, 421920, Note_on_c, 3, 57, 52
9, 422039, Note_on_c, 3, 60, 0
9, 422039, Note_on_c, 3, 57, 0
9, 422160, Note_on_c, 3, 58, 52
9, 422160, Note_on_c, 3, 62, 52
9, 422279, Note_on_c, 3, 58, 0
9, 422279, Note_on_c, 3, 62, 0
9, 422400, Note_on_c, 3, 60, 52
9, 422400, Note_on_c, 3, 57, 52
9, 422519, Note_on_c, 3, 60, 0
9, 422519, Note_on_c, 3, 57, 0
9, 422640, Note_on_c, 3, 62, 52
9, 422640, Note_on_c, 3, 58, 52
9, 422759, Note_on_c, 3, 62, 0
9, 422759, Note_on_c, 3, 58, 0
9, 424320, Note_on_c, 3, 56, 52
9, 424439, Note_on_c, 3, 56, 0
9, 424560, Note_on_c, 3, 63, 52
9, 424679, Note_on_c, 3, 63, 0
9, 424800, Note_on_c, 3, 56, 52
9, 424919, Note_on_c, 3, 56, 0
9, 425040, Note_on_c, 3, 63, 52
9, 425159, Note_on_c, 3, 63, 0
9, 425280, Note_on_c, 3, 56, 52
9, 425399, Note_on_c, 3, 56, 0
9, 425520, Note_on_c, 3, 63, 52
9, 425639, Note_on_c, 3, 63, 0
9, 427200, Note_on_c, 3, 56, 52
9, 427319, Note_on_c, 3, 56, 0
9, 427440, Note_on_c, 3, 63, 52
9, 427559, Note_on_c, 3, 63, 0
9, 427680, Note_on_c, 3, 56, 52
9, 427799, Note_on_c, 3, 56, 0
9, 427920, Note_on_c, 3, 63, 52
9, 428039, Note_on_c, 3, 63, 0
9, 428160, Note_on_c, 3, 56, 52
9, 428279, Note_on_c, 3, 56, 0
9, 428400, Note_on_c, 3, 63, 52
9, 428519, Note_on_c, 3, 63, 0
9, 428640, Note_on_c, 3, 56, 52
9, 428759, Note_on_c, 3, 56, 0
9, 428880, Note_on_c, 3, 51, 52
9, 428999, Note_on_c, 3, 51, 0
9, 429120, Note_on_c, 3, 56, 52
9, 429239, Note_on_c, 3, 56, 0
9, 429360, Note_on_c, 3, 55, 52
9, 429360, Note_on_c, 3, 58, 52
9, 429479, Note_on_c, 3, 55, 0
9, 429479, Note_on_c, 3, 58, 0
9, 429600, Note_on_c, 3, 56, 52
9, 429600, Note_on_c, 3, 60, 52
9, 429719, Note_on_c, 3, 56, 0
9, 429719, Note_on_c, 3, 60, 0
9, 429840, Note_on_c, 3, 58, 52
9, 429840, Note_on_c, 3, 55, 52
9, 429959, Note_on_c, 3, 58, 0
9, 430079, Note_on_c, 3, 55, 0
9, 430560, Note_on_c, 3, 56, 52
9, 430799, Note_on_c, 3, 56, 0
9, 431280, Note_on_c, 3, 53, 52
9, 431519, Note_on_c, 3, 53, 0
9, 432000, Note_on_c, 3, 58, 52
9, 432239, Note_on_c, 3, 58, 0
9, 432720, Note_on_c, 3, 55, 52
9, 432959, Note_on_c, 3, 55, 0
9, 433440, Note_on_c, 3, 60, 52
9, 433679, Note_on_c, 3, 60, 0
9, 434160, Note_on_c, 3, 56, 52
9, 434399, Note_on_c, 3, 56, 0
9, 434880, Note_on_c, 3, 58, 52
9, 435119, Note_on_c, 3, 58, 0
9, 435600, Note_on_c, 3, 51, 52
9, 435839, Note_on_c, 3, 51, 0
9, 435840, Note_on_c, 3, 58, 52
9, 435959, Note_on_c, 3, 58, 0
9, 436080, Note_on_c, 3, 59, 52
9, 436199, Note_on_c, 3, 59, 0
9, 436320, Note_on_c, 3, 51, 52
9, 436320, Note_on_c, 3, 60, 52
9, 436439, Note_on_c, 3, 60, 0
9, 436559, Note_on_c, 3, 51, 0
9, 436560, Note_on_c, 3, 62, 52
9, 436679, Note_on_c, 3, 62, 0
9, 436800, Note_on_c, 3, 63, 52
9, 436919, Note_on_c, 3, 63, 0
9, 437040, Note_on_c, 3, 44, 52
9, 437040, Note_on_c, 3, 65, 52
9, 437159, Note_on_c, 3, 65, 0
9, 437279, Note_on_c, 3, 44, 0
9, 437280, Note_on_c, 3, 60, 52
9, 437399, Note_on_c, 3, 60, 0
9, 437520, Note_on_c, 3, 61, 52
9, 437639, Note_on_c, 3, 61, 0
9, 437760, Note_on_c, 3, 62, 52
9, 437760, Note_on_c, 3, 53, 52
9, 437879, Note_on_c, 3, 62, 0
9, 437999, Note_on_c, 3, 53, 0
9, 438000, Note_on_c, 3, 64, 52
9, 438119, Note_on_c, 3, 64, 0
9, 438240, Note_on_c, 3, 65, 52
9, 438359, Note_on_c, 3, 65, 0
9, 438480, Note_on_c, 3, 67, 52
9, 438480, Note_on_c, 3, 46, 52
9, 438599, Note_on_c, 3, 67, 0
9, 438719, Note_on_c, 3, 46, 0
9, 439200, Note_on_c, 3, 55, 60
9, 439439, Note_on_c, 3, 55, 0
9, 439920, Note_on_c, 3, 48, 68
9, 440039, Note_on_c, 3, 48, 0
9, 440160, Note_on_c, 3, 43, 70
9, 440279, Note_on_c, 3, 43, 0
9, 440400, Note_on_c, 3, 44, 73
9, 440519, Note_on_c, 3, 44, 0
9, 440640, Note_on_c, 3, 41, 76
9, 440759, Note_on_c, 3, 41, 0
9, 440880, Note_on_c, 3, 49, 78
9, 440999, Note_on_c, 3, 49, 0
9, 441120, Note_on_c, 3, 50, 81
9, 441239, Note_on_c, 3, 50, 0
9, 441360, Note_on_c, 3, 46, 84
9, 441569, Note_on_c, 3, 46, 0
9, 441600, Note_on_c, 3, 53, 84
9, 441809, Note_on_c, 3, 53, 0
9, 441840, Note_on_c, 3, 50, 84
9, 442049, Note_on_c, 3, 50, 0
9, 442080, Note_on_c, 3, 46, 84
9, 442289, Note_on_c, 3, 46, 0
9, 442320, Note_on_c, 3, 62, 84
9, 442529, Note_on_c, 3, 62, 0
9, 442560, Note_on_c, 3, 58, 84
9, 442769, Note_on_c, 3, 58, 0
9, 442800, Note_on_c, 3, 46, 84
9, 443009, Note_on_c, 3, 46, 0
9, 443040, Note_on_c, 3, 65, 84
9, 443249, Note_on_c, 3, 65, 0
9, 443280, Note_on_c, 3, 62, 84
9, 443489, Note_on_c, 3, 62, 0
9, 443520, Note_on_c, 3, 58, 84
9, 443729, Note_on_c, 3, 58, 0
9, 443760, Note_on_c, 3, 60, 84
9, 443969, Note_on_c, 3, 60, 0
9, 444000, Note_on_c, 3, 62, 84
9, 444209, Note_on_c, 3, 62, 0
9, 444240, Note_on_c, 3, 63, 76
9, 444479, Note_on_c, 3, 63, 0
9, 444960, Note_on_c, 3, 46, 76
9, 445199, Note_on_c, 3, 46, 0
9, 445680, Control_c, 3, 11, 96
9, 447120, Control_c, 3, 11, 96
9, 447120, Note_on_c, 3, 61, 60
9, 447180, Control_c, 3, 11, 99
9, 447240, Control_c, 3, 11, 101
9, 447300, Control_c, 3, 11, 104
9, 447360, Control_c, 3, 11, 106
9, 447420, Control_c, 3, 11, 109
9, 447480, Control_c, 3, 11, 112
9, 447540, Control_c, 3, 11, 114
9, 447600, Control_c, 3, 11, 117
9, 447660, Control_c, 3, 11, 119
9, 447720, Control_c, 3, 11, 122
9, 447780, Control_c, 3, 11, 124
9, 447839, Note_on_c, 3, 61, 0
9, 447840, Control_c, 3, 11, 127
9, 447840, Note_on_c, 3, 62, 60
9, 447900, Control_c, 3, 11, 124
9, 447960, Control_c, 3, 11, 122
9, 448020, Control_c, 3, 11, 119
9, 448080, Control_c, 3, 11, 117
9, 448140, Control_c, 3, 11, 114
9, 448200, Control_c, 3, 11, 112
9, 448260, Control_c, 3, 11, 109
9, 448320, Control_c, 3, 11, 106
9, 448380, Control_c, 3, 11, 104
9, 448440, Control_c, 3, 11, 101
9, 448500, Control_c, 3, 11, 96
9, 448559, Note_on_c, 3, 62, 0
9, 448560, Note_on_c, 3, 63, 60
9, 448799, Note_on_c, 3, 63, 0
9, 449520, Note_on_c, 3, 56, 60
9, 449520, Note_on_c, 3, 53, 60
9, 449729, Note_on_c, 3, 56, 0
9, 449729, Note_on_c, 3, 53, 0
9, 449760, Note_on_c, 3, 56, 60
9, 449760, Note_on_c, 3, 53, 60
9, 449969, Note_on_c, 3, 56, 0
9, 449969, Note_on_c, 3, 53, 0
9, 450000, Control_c, 3, 11, 96
9, 450000, Note_on_c, 3, 56, 60
9, 450000, Note_on_c, 3, 53, 60
9, 450060, Control_c, 3, 11, 99
9, 450120, Control_c, 3, 11, 101
9, 450180, Control_c, 3, 11, 104
9, 450240, Control_c, 3, 11, 106
9, 450300, Control_c, 3, 11, 109
9, 450360, Control_c, 3, 11, 112
9, 450420, Control_c, 3, 11, 114
9, 450480, Control_c, 3, 11, 117
9, 450540, Control_c, 3, 11, 119
9, 450600, Control_c, 3, 11, 122
9, 450660, Control_c, 3, 11, 124
9, 450720, Control_c, 3, 11, 127
9, 450780, Control_c, 3, 11, 124
9, 450840, Control_c, 3, 11, 122
9, 450900, Control_c, 3, 11, 119
9, 450960, Control_c, 3, 11, 117
9, 451020, Control_c, 3, 11, 114
9, 451080, Control_c, 3, 11, 112
9, 451140, Control_c, 3, 11, 109
9, 451200, Control_c, 3, 11, 106
9, 451260, Control_c, 3, 11, 104
9, 451320, Control_c, 3, 11, 101
9, 451380, Control_c, 3, 11, 96
9, 451439, Note_on_c, 3, 56, 0
9, 451439, Note_on_c, 3, 53, 0
9, 451440, Note_on_c, 3, 55, 60
9, 451440, Note_on_c, 3, 51, 60
9, 451679, Note_on_c, 3, 55, 0
9, 451679, Note_on_c, 3, 51, 0
9, 452880, Control_c, 3, 11, 127
9, 454560, Note_on_c, 3, 58, 66
9, 454560, Note_on_c, 3, 46, 66
9, 454769, Note_on_c, 3, 58, 0
9, 454769, Note_on_c, 3, 46, 0
9, 454800, Note_on_c, 3, 63, 68
9, 454800, Note_on_c, 3, 51, 68
9, 455009, Note_on_c, 3, 63, 0
9, 455009, Note_on_c, 3, 51, 0
9, 455040, Note_on_c, 3, 58, 70
9, 455040, Note_on_c, 3, 46, 70
9, 455249, Note_on_c, 3, 58, 0
9, 455249, Note_on_c, 3, 46, 0
9, 455280, Note_on_c, 3, 63, 72
9, 455280, Note_on_c, 3, 51, 72
9, 455489, Note_on_c, 3, 63, 0
9, 455489, Note_on_c, 3, 51, 0
9, 455520, Note_on_c, 3, 58, 74
9, 455520, Note_on_c, 3, 46, 74
9, 455729, Note_on_c, 3, 58, 0
9, 455729, Note_on_c, 3, 46, 0
9, 455760, Note_on_c, 3, 63, 76
9, 455760, Note_on_c, 3, 51, 76
9, 455969, Note_on_c, 3, 63, 0
9, 455969, Note_on_c, 3, 51, 0
9, 456000, Note_on_c, 3, 58, 76
9, 456000, Note_on_c, 3, 46, 76
9, 456209, Note_on_c, 3, 58, 0
9, 456209, Note_on_c, 3, 46, 0
9, 456240, Note_on_c, 3, 63, 76
9, 456240, Note_on_c, 3, 51, 76
9, 456449, Note_on_c, 3, 63, 0
9, 456449, Note_on_c, 3, 51, 0
9, 456480, Note_on_c, 3, 58, 76
9, 456480, Note_on_c, 3, 46, 76
9, 456689, Note_on_c, 3, 58, 0
9, 456689, Note_on_c, 3, 46, 0
9, 456720, Note_on_c, 3, 63, 76
9, 456720, Note_on_c, 3, 51, 76
9, 456929, Note_on_c, 3, 63, 0
9, 456929, Note_on_c, 3, 51, 0
9, 456960, Note_on_c, 3, 58, 76
9, 456960, Note_on_c, 3, 46, 76
9, 457169, Note_on_c, 3, 58, 0
9, 457169, Note_on_c, 3, 46, 0
9, 457200, Note_on_c, 3, 63, 84
9, 457200, Note_on_c, 3, 51, 84
9, 457439, Note_on_c, 3, 63, 0
9, 457439, Note_on_c, 3, 51, 0
9, 457920, Note_on_c, 3, 58, 84
9, 457920, Note_on_c, 3, 46, 84
9, 458159, Note_on_c, 3, 58, 0
9, 458159, Note_on_c, 3, 46, 0
9, 458640, Note_on_c, 3, 51, 84
9, 458879, Note_on_c, 3, 51, 0
9, 458879, End_track
10, 0, Start_track
10, 0, Title_t, "French Horn I and II in E-flat"
10, 0, MIDI_port, 0
10, 0, Program_c, 4, 60
10, 0, Control_c, 4, 7, 96
10, 0, Control_c, 4, 10, 45
10, 0, Control_c, 4, 11, 127
10, 59520, Note_on_c, 4, 58, 52
10, 59520, Note_on_c, 4, 46, 52
10, 59639, Note_on_c, 4, 58, 0
10, 59639, Note_on_c, 4, 46, 0
10, 59760, Note_on_c, 4, 58, 52
10, 59760, Note_on_c, 4, 46, 52
10, 59879, Note_on_c, 4, 58, 0
10, 59879, Note_on_c, 4, 46, 0
10, 60000, Note_on_c, 4, 46, 52
10, 60000, Note_on_c, 4, 58, 52
10, 60119, Note_on_c, 4, 46, 0
10, 60119, Note_on_c, 4, 58, 0
10, 60240, Note_on_c, 4, 46, 52
10, 60240, Note_on_c, 4, 58, 52
10, 60359, Note_on_c, 4, 46, 0
10, 60359, Note_on_c, 4, 58, 0
10, 60480, Note_on_c, 4, 58, 52
10, 60480, Note_on_c, 4, 46, 52
10, 60599, Note_on_c, 4, 58, 0
10, 60599, Note_on_c, 4, 46, 0
10, 60720, Note_on_c, 4, 58, 52
10, 60720, Note_on_c, 4, 46, 52
10, 60839, Note_on_c, 4, 58, 0
10, 60839, Note_on_c, 4, 46, 0
10, 66480, Note_on_c, 4, 63, 84
10, 66480, Note_on_c, 4, 51, 84
10, 66689, Note_on_c, 4, 63, 0
10, 66689, Note_on_c, 4, 51, 0
10, 66720, Note_on_c, 4, 67, 84
10, 66720, Note_on_c, 4, 51, 84
10, 66929, Note_on_c, 4, 67, 0
10, 66929, Note_on_c, 4, 51, 0
10, 66960, Note_on_c, 4, 70, 84
10, 66960, Note_on_c, 4, 51, 84
10, 67169, Note_on_c, 4, 70, 0
10, 67169, Note_on_c, 4, 51, 0
10, 67200, Note_on_c, 4, 63, 84
10, 67200, Note_on_c, 4, 51, 84
10, 67409, Note_on_c, 4, 63, 0
10, 67409, Note_on_c, 4, 51, 0
10, 67440, Note_on_c, 4, 67, 84
10, 67440, Note_on_c, 4, 51, 84
10, 67649, Note_on_c, 4, 67, 0
10, 67649, Note_on_c, 4, 51, 0
10, 67680, Note_on_c, 4, 51, 84
10, 67680, Note_on_c, 4, 70, 84
10, 67889, Note_on_c, 4, 51, 0
10, 67889, Note_on_c, 4, 70, 0
10, 67920, Note_on_c, 4, 51, 84
10, 67920, Note_on_c, 4, 63, 84
10, 68129, Note_on_c, 4, 63, 0
10, 68160, Note_on_c, 4, 67, 84
10, 68369, Note_on_c, 4, 67, 0
10, 68400, Note_on_c, 4, 70, 84
10, 68609, Note_on_c, 4, 70, 0
10, 68640, Note_on_c, 4, 63, 84
10, 68849, Note_on_c, 4, 51, 0
10, 68849, Note_on_c, 4, 63, 0
10, 68880, Note_on_c, 4, 63, 84
10, 68880, Note_on_c, 4, 51, 84
10, 69089, Note_on_c, 4, 63, 0
10, 69089, Note_on_c, 4, 51, 0
10, 69120, Note_on_c, 4, 51, 84
10, 69120, Note_on_c, 4, 63, 84
10, 69329, Note_on_c, 4, 51, 0
10, 69329, Note_on_c, 4, 63, 0
10, 69360, Note_on_c, 4, 46, 84
10, 69360, Note_on_c, 4, 70, 84
10, 70049, Note_on_c, 4, 46, 0
10, 70049, Note_on_c, 4, 70, 0
10, 70080, Note_on_c, 4, 46, 84
10, 70080, Note_on_c, 4, 70, 84
10, 70769, Note_on_c, 4, 46, 0
10, 70769, Note_on_c, 4, 70, 0
10, 70800, Note_on_c, 4, 70, 84
10, 70800, Note_on_c, 4, 46, 84
10, 71489, Note_on_c, 4, 70, 0
10, 71489, Note_on_c, 4, 46, 0
10, 71520, Note_on_c, 4, 46, 84
10, 71520, Note_on_c, 4, 70, 84
10, 72209, Note_on_c, 4, 46, 0
10, 72209, Note_on_c, 4, 70, 0
10, 72240, Note_on_c, 4, 46, 84
10, 72240, Note_on_c, 4, 70, 84
10, 72929, Note_on_c, 4, 46, 0
10, 72929, Note_on_c, 4, 70, 0
10, 72960, Note_on_c, 4, 70, 84
10, 72960, Note_on_c, 4, 46, 84
10, 73649, Note_on_c, 4, 70, 0
10, 73649, Note_on_c, 4, 46, 0
10, 73680, Note_on_c, 4, 70, 84
10, 73680, Note_on_c, 4, 46, 84
10, 74369, Note_on_c, 4, 70, 0
10, 74369, Note_on_c, 4, 46, 0
10, 74400, Note_on_c, 4, 70, 84
10, 74400, Note_on_c, 4, 46, 84
10, 74609, Note_on_c, 4, 70, 0
10, 74609, Note_on_c, 4, 46, 0
10, 74640, Note_on_c, 4, 63, 84
10, 74640, Note_on_c, 4, 51, 84
10, 74849, Note_on_c, 4, 63, 0
10, 74849, Note_on_c, 4, 51, 0
10, 74880, Note_on_c, 4, 63, 84
10, 74880, Note_on_c, 4, 51, 84
10, 75089, Note_on_c, 4, 63, 0
10, 75089, Note_on_c, 4, 51, 0
10, 75120, Note_on_c, 4, 63, 84
10, 75120, Note_on_c, 4, 51, 84
10, 75809, Note_on_c, 4, 63, 0
10, 75809, Note_on_c, 4, 51, 0
10, 75840, Note_on_c, 4, 51, 84
10, 75840, Note_on_c, 4, 68, 84
10, 76529, Note_on_c, 4, 51, 0
10, 76529, Note_on_c, 4, 68, 0
10, 76560, Note_on_c, 4, 51, 84
10, 76560, Note_on_c, 4, 67, 84
10, 77249, Note_on_c, 4, 51, 0
10, 77249, Note_on_c, 4, 67, 0
10, 77280, Note_on_c, 4, 68, 84
10, 77280, Note_on_c, 4, 51, 84
10, 77969, Note_on_c, 4, 68, 0
10, 77969, Note_on_c, 4, 51, 0
10, 78000, Note_on_c, 4, 51, 84
10, 78000, Note_on_c, 4, 67, 84
10, 78689, Note_on_c, 4, 51, 0
10, 78689, Note_on_c, 4, 67, 0
10, 78720, Note_on_c, 4, 51, 84
10, 78720, Note_on_c, 4, 68, 84
10, 78929, Note_on_c, 4, 51, 0
10, 78929, Note_on_c, 4, 68, 0
10, 78960, Note_on_c, 4, 63, 84
10, 78960, Note_on_c, 4, 51, 84
10, 79169, Note_on_c, 4, 63, 0
10, 79169, Note_on_c, 4, 51, 0
10, 79200, Note_on_c, 4, 51, 84
10, 79200, Note_on_c, 4, 63, 84
10, 79409, Note_on_c, 4, 51, 0
10, 79409, Note_on_c, 4, 63, 0
10, 79440, Note_on_c, 4, 51, 84
10, 79440, Note_on_c, 4, 63, 84
10, 79649, Note_on_c, 4, 51, 0
10, 79649, Note_on_c, 4, 63, 0
10, 79680, Note_on_c, 4, 63, 84
10, 79680, Note_on_c, 4, 51, 84
10, 79889, Note_on_c, 4, 63, 0
10, 79889, Note_on_c, 4, 51, 0
10, 79920, Note_on_c, 4, 51, 84
10, 79920, Note_on_c, 4, 63, 84
10, 80129, Note_on_c, 4, 51, 0
10, 80129, Note_on_c, 4, 63, 0
10, 80160, Note_on_c, 4, 63, 84
10, 80160, Note_on_c, 4, 51, 84
10, 80369, Note_on_c, 4, 63, 0
10, 80369, Note_on_c, 4, 51, 0
10, 80400, Note_on_c, 4, 51, 84
10, 80400, Note_on_c, 4, 63, 84
10, 80609, Note_on_c, 4, 51, 0
10, 80609, Note_on_c, 4, 63, 0
10, 80640, Note_on_c, 4, 51, 84
10, 80640, Note_on_c, 4, 63, 84
10, 80849, Note_on_c, 4, 51, 0
10, 80849, Note_on_c, 4, 63, 0
10, 80880, Note_on_c, 4, 51, 84
10, 80880, Note_on_c, 4, 63, 84
10, 81089, Note_on_c, 4, 51, 0
10, 81089, Note_on_c, 4, 63, 0
10, 81120, Note_on_c, 4, 51, 84
10, 81120, Note_on_c, 4, 63, 84
10, 81329, Note_on_c, 4, 51, 0
10, 81329, Note_on_c, 4, 63, 0
10, 81360, Note_on_c, 4, 51, 84
10, 81360, Note_on_c, 4, 63, 84
10, 81569, Note_on_c, 4, 51, 0
10, 81569, Note_on_c, 4, 63, 0
10, 81600, Note_on_c, 4, 58, 84
10, 81600, Note_on_c, 4, 65, 84
10, 81809, Note_on_c, 4, 58, 0
10, 81809, Note_on_c, 4, 65, 0
10, 81840, Note_on_c, 4, 65, 84
10, 81840, Note_on_c, 4, 58, 84
10, 82049, Note_on_c, 4, 65, 0
10, 82049, Note_on_c, 4, 58, 0
10, 82080, Note_on_c, 4, 58, 84
10, 82080, Note_on_c, 4, 65, 84
10, 82289, Note_on_c, 4, 58, 0
10, 82289, Note_on_c, 4, 65, 0
10, 82320, Note_on_c, 4, 63, 84
10, 82320, Note_on_c, 4, 58, 84
10, 82559, Note_on_c, 4, 63, 0
10, 82559, Note_on_c, 4, 58, 0
10, 85440, Note_on_c, 4, 63, 52
10, 85649, Note_on_c, 4, 63, 0
10, 85680, Note_on_c, 4, 63, 52
10, 85889, Note_on_c, 4, 63, 0
10, 85920, Note_on_c, 4, 63, 52
10, 86129, Note_on_c, 4, 63, 0
10, 86160, Note_on_c, 4, 63, 52
10, 86369, Note_on_c, 4, 63, 0
10, 86400, Note_on_c, 4, 63, 52
10, 86609, Note_on_c, 4, 63, 0
10, 86640, Note_on_c, 4, 63, 52
10, 86849, Note_on_c, 4, 63, 0
10, 86880, Note_on_c, 4, 63, 52
10, 86880, Note_on_c, 4, 67, 52
10, 87089, Note_on_c, 4, 63, 0
10, 87089, Note_on_c, 4, 67, 0
10, 87120, Note_on_c, 4, 67, 52
10, 87120, Note_on_c, 4, 63, 52
10, 87329, Note_on_c, 4, 67, 0
10, 87329, Note_on_c, 4, 63, 0
10, 87360, Note_on_c, 4, 65, 52
10, 87360, Note_on_c, 4, 58, 52
10, 87569, Note_on_c, 4, 65, 0
10, 87569, Note_on_c, 4, 58, 0
10, 87600, Note_on_c, 4, 65, 52
10, 87600, Note_on_c, 4, 58, 52
10, 87809, Note_on_c, 4, 65, 0
10, 87809, Note_on_c, 4, 58, 0
10, 87840, Note_on_c, 4, 58, 52
10, 87840, Note_on_c, 4, 65, 52
10, 88049, Note_on_c, 4, 58, 0
10, 88049, Note_on_c, 4, 65, 0
10, 88080, Note_on_c, 4, 63, 76
10, 88080, Note_on_c, 4, 55, 76
10, 88289, Note_on_c, 4, 63, 0
10, 88289, Note_on_c, 4, 55, 0
10, 88320, Note_on_c, 4, 55, 84
10, 88320, Note_on_c, 4, 67, 84
10, 88769, Note_on_c, 4, 55, 0
10, 88769, Note_on_c, 4, 67, 0
10, 88800, Note_on_c, 4, 51, 76
10, 88800, Note_on_c, 4, 63, 76
10, 89009, Note_on_c, 4, 51, 0
10, 89009, Note_on_c, 4, 63, 0
10, 89040, Note_on_c, 4, 58, 84
10, 89040, Note_on_c, 4, 46, 84
10, 89489, Note_on_c, 4, 58, 0
10, 89489, Note_on_c, 4, 46, 0
10, 89520, Note_on_c, 4, 55, 76
10, 89729, Note_on_c, 4, 55, 0
10, 89760, Note_on_c, 4, 63, 84
10, 89760, Note_on_c, 4, 51, 84
10, 90209, Note_on_c, 4, 63, 0
10, 90209, Note_on_c, 4, 51, 0
10, 90240, Note_on_c, 4, 58, 76
10, 90240, Note_on_c, 4, 46, 76
10, 90479, Note_on_c, 4, 58, 0
10, 90479, Note_on_c, 4, 46, 0
10, 90720, Note_on_c, 4, 46, 76
10, 90720, Note_on_c, 4, 58, 76
10, 90929, Note_on_c, 4, 46, 0
10, 90929, Note_on_c, 4, 58, 0
10, 90960, Note_on_c, 4, 67, 76
10, 90960, Note_on_c, 4, 55, 76
10, 91199, Note_on_c, 4, 67, 0
10, 91199, Note_on_c, 4, 55, 0
10, 96960, Note_on_c, 4, 63, 52
10, 97079, Note_on_c, 4, 63, 0
10, 97200, Note_on_c, 4, 63, 52
10, 97319, Note_on_c, 4, 63, 0
10, 97440, Note_on_c, 4, 63, 52
10, 97559, Note_on_c, 4, 63, 0
10, 97680, Note_on_c, 4, 63, 52
10, 97799, Note_on_c, 4, 63, 0
10, 97920, Note_on_c, 4, 63, 52
10, 98039, Note_on_c, 4, 63, 0
10, 98160, Note_on_c, 4, 63, 52
10, 98279, Note_on_c, 4, 63, 0
10, 99840, Note_on_c, 4, 63, 52
10, 99959, Note_on_c, 4, 63, 0
10, 100080, Note_on_c, 4, 63, 52
10, 100199, Note_on_c, 4, 63, 0
10, 100320, Note_on_c, 4, 63, 52
10, 100439, Note_on_c, 4, 63, 0
10, 100560, Note_on_c, 4, 63, 52
10, 100679, Note_on_c, 4, 63, 0
10, 100800, Note_on_c, 4, 63, 52
10, 100919, Note_on_c, 4, 63, 0
10, 101040, Note_on_c, 4, 63, 52
10, 101159, Note_on_c, 4, 63, 0
10, 101280, Note_on_c, 4, 63, 52
10, 101280, Note_on_c, 4, 51, 52
10, 101399, Note_on_c, 4, 63, 0
10, 101399, Note_on_c, 4, 51, 0
10, 101520, Note_on_c, 4, 63, 52
10, 101520, Note_on_c, 4, 51, 52
10, 101639, Note_on_c, 4, 63, 0
10, 101639, Note_on_c, 4, 51, 0
10, 101760, Note_on_c, 4, 63, 52
10, 101760, Note_on_c, 4, 51, 52
10, 101879, Note_on_c, 4, 63, 0
10, 101879, Note_on_c, 4, 51, 0
10, 102000, Note_on_c, 4, 63, 52
10, 102000, Note_on_c, 4, 51, 52
10, 102119, Note_on_c, 4, 63, 0
10, 102119, Note_on_c, 4, 51, 0
10, 102240, Note_on_c, 4, 63, 52
10, 102240, Note_on_c, 4, 51, 52
10, 102359, Note_on_c, 4, 63, 0
10, 102359, Note_on_c, 4, 51, 0
10, 102480, Note_on_c, 4, 51, 52
10, 102480, Note_on_c, 4, 63, 52
10, 102719, Note_on_c, 4, 51, 0
10, 102719, Note_on_c, 4, 63, 0
10, 108240, Note_on_c, 4, 51, 52
10, 108240, Note_on_c, 4, 63, 52
10, 108479, Note_on_c, 4, 51, 0
10, 108479, Note_on_c, 4, 63, 0
10, 108960, Note_on_c, 4, 63, 52
10, 108960, Note_on_c, 4, 51, 52
10, 109199, Note_on_c, 4, 63, 0
10, 109199, Note_on_c, 4, 51, 0
10, 109680, Note_on_c, 4, 65, 52
10, 109919, Note_on_c, 4, 65, 0
10, 110400, Note_on_c, 4, 65, 52
10, 110639, Note_on_c, 4, 65, 0
10, 111120, Note_on_c, 4, 67, 52
10, 111359, Note_on_c, 4, 67, 0
10, 111840, Note_on_c, 4, 67, 60
10, 112079, Note_on_c, 4, 67, 0
10, 112560, Note_on_c, 4, 51, 68
10, 112560, Note_on_c, 4, 63, 68
10, 112799, Note_on_c, 4, 51, 0
10, 112799, Note_on_c, 4, 63, 0
10, 113280, Note_on_c, 4, 58, 76
10, 113280, Note_on_c, 4, 46, 76
10, 113489, Note_on_c, 4, 58, 0
10, 113489, Note_on_c, 4, 46, 0
10, 113520, Note_on_c, 4, 46, 78
10, 113520, Note_on_c, 4, 58, 78
10, 113729, Note_on_c, 4, 46, 0
10, 113729, Note_on_c, 4, 58, 0
10, 113760, Note_on_c, 4, 46, 81
10, 113760, Note_on_c, 4, 58, 81
10, 113969, Note_on_c, 4, 46, 0
10, 113969, Note_on_c, 4, 58, 0
10, 114000, Note_on_c, 4, 58, 84
10, 114000, Note_on_c, 4, 46, 84
10, 114209, Note_on_c, 4, 58, 0
10, 114209, Note_on_c, 4, 46, 0
10, 114240, Note_on_c, 4, 46, 84
10, 114240, Note_on_c, 4, 58, 84
10, 114449, Note_on_c, 4, 46, 0
10, 114449, Note_on_c, 4, 58, 0
10, 114480, Note_on_c, 4, 58, 84
10, 114480, Note_on_c, 4, 46, 84
10, 114689, Note_on_c, 4, 58, 0
10, 114689, Note_on_c, 4, 46, 0
10, 114720, Note_on_c, 4, 58, 84
10, 114720, Note_on_c, 4, 46, 84
10, 114929, Note_on_c, 4, 58, 0
10, 114929, Note_on_c, 4, 46, 0
10, 114960, Note_on_c, 4, 58, 84
10, 114960, Note_on_c, 4, 65, 84
10, 115169, Note_on_c, 4, 58, 0
10, 115169, Note_on_c, 4, 65, 0
10, 115200, Note_on_c, 4, 65, 84
10, 115200, Note_on_c, 4, 58, 84
10, 115409, Note_on_c, 4, 65, 0
10, 115409, Note_on_c, 4, 58, 0
10, 115440, Note_on_c, 4, 65, 84
10, 115440, Note_on_c, 4, 58, 84
10, 115649, Note_on_c, 4, 65, 0
10, 115649, Note_on_c, 4, 58, 0
10, 115680, Note_on_c, 4, 65, 84
10, 115680, Note_on_c, 4, 68, 84
10, 115889, Note_on_c, 4, 65, 0
10, 115889, Note_on_c, 4, 68, 0
10, 115920, Note_on_c, 4, 68, 84
10, 115920, Note_on_c, 4, 65, 84
10, 116129, Note_on_c, 4, 68, 0
10, 116129, Note_on_c, 4, 65, 0
10, 116160, Note_on_c, 4, 68, 84
10, 116160, Note_on_c, 4, 65, 84
10, 116369, Note_on_c, 4, 68, 0
10, 116369, Note_on_c, 4, 65, 0
10, 116400, Note_on_c, 4, 67, 84
10, 116400, Note_on_c, 4, 63, 84
10, 116609, Note_on_c, 4, 67, 0
10, 116609, Note_on_c, 4, 63, 0
10, 116640, Note_on_c, 4, 65, 84
10, 116640, Note_on_c, 4, 58, 84
10, 116849, Note_on_c, 4, 65, 0
10, 116849, Note_on_c, 4, 58, 0
10, 116880, Note_on_c, 4, 63, 76
10, 116880, Note_on_c, 4, 55, 76
10, 117119, Note_on_c, 4, 63, 0
10, 117119, Note_on_c, 4, 55, 0
10, 117600, Note_on_c, 4, 65, 76
10, 117600, Note_on_c, 4, 58, 76
10, 117839, Note_on_c, 4, 65, 0
10, 117839, Note_on_c, 4, 58, 0
10, 118320, Note_on_c, 4, 65, 76
10, 118320, Note_on_c, 4, 58, 76
10, 118559, Note_on_c, 4, 65, 0
10, 118559, Note_on_c, 4, 58, 0
10, 157440, Note_on_c, 4, 58, 52
10, 157440, Note_on_c, 4, 46, 52
10, 157559, Note_on_c, 4, 58, 0
10, 157559, Note_on_c, 4, 46, 0
10, 157680, Note_on_c, 4, 58, 52
10, 157680, Note_on_c, 4, 46, 52
10, 157799, Note_on_c, 4, 58, 0
10, 157799, Note_on_c, 4, 46, 0
10, 157920, Note_on_c, 4, 46, 52
10, 157920, Note_on_c, 4, 58, 52
10, 158039, Note_on_c, 4, 46, 0
10, 158039, Note_on_c, 4, 58, 0
10, 158160, Note_on_c, 4, 46, 52
10, 158160, Note_on_c, 4, 58, 52
10, 158279, Note_on_c, 4, 46, 0
10, 158279, Note_on_c, 4, 58, 0
10, 158400, Note_on_c, 4, 58, 52
10, 158400, Note_on_c, 4, 46, 52
10, 158519, Note_on_c, 4, 58, 0
10, 158519, Note_on_c, 4, 46, 0
10, 158640, Note_on_c, 4, 58, 52
10, 158640, Note_on_c, 4, 46, 52
10, 158759, Note_on_c, 4, 58, 0
10, 158759, Note_on_c, 4, 46, 0
10, 164400, Note_on_c, 4, 63, 84
10, 164400, Note_on_c, 4, 51, 84
10, 164609, Note_on_c, 4, 63, 0
10, 164609, Note_on_c, 4, 51, 0
10, 164640, Note_on_c, 4, 67, 84
10, 164640, Note_on_c, 4, 51, 84
10, 164849, Note_on_c, 4, 67, 0
10, 164849, Note_on_c, 4, 51, 0
10, 164880, Note_on_c, 4, 70, 84
10, 164880, Note_on_c, 4, 51, 84
10, 165089, Note_on_c, 4, 70, 0
10, 165089, Note_on_c, 4, 51, 0
10, 165120, Note_on_c, 4, 63, 84
10, 165120, Note_on_c, 4, 51, 84
10, 165329, Note_on_c, 4, 63, 0
10, 165329, Note_on_c, 4, 51, 0
10, 165360, Note_on_c, 4, 67, 84
10, 165360, Note_on_c, 4, 51, 84
10, 165569, Note_on_c, 4, 67, 0
10, 165569, Note_on_c, 4, 51, 0
10, 165600, Note_on_c, 4, 70, 84
10, 165600, Note_on_c, 4, 51, 84
10, 165809, Note_on_c, 4, 70, 0
10, 165809, Note_on_c, 4, 51, 0
10, 165840, Note_on_c, 4, 63, 84
10, 165840, Note_on_c, 4, 51, 84
10, 166049, Note_on_c, 4, 63, 0
10, 166080, Note_on_c, 4, 67, 84
10, 166289, Note_on_c, 4, 67, 0
10, 166320, Note_on_c, 4, 70, 84
10, 166529, Note_on_c, 4, 70, 0
10, 166560, Note_on_c, 4, 63, 84
10, 166769, Note_on_c, 4, 51, 0
10, 166769, Note_on_c, 4, 63, 0
10, 166800, Note_on_c, 4, 63, 84
10, 166800, Note_on_c, 4, 51, 84
10, 167009, Note_on_c, 4, 63, 0
10, 167009, Note_on_c, 4, 51, 0
10, 167040, Note_on_c, 4, 51, 84
10, 167040, Note_on_c, 4, 63, 84
10, 167249, Note_on_c, 4, 51, 0
10, 167249, Note_on_c, 4, 63, 0
10, 167280, Note_on_c, 4, 46, 84
10, 167280, Note_on_c, 4, 70, 84
10, 167969, Note_on_c, 4, 46, 0
10, 167969, Note_on_c, 4, 70, 0
10, 168000, Note_on_c, 4, 46, 84
10, 168000, Note_on_c, 4, 70, 84
10, 168689, Note_on_c, 4, 46, 0
10, 168689, Note_on_c, 4, 70, 0
10, 168720, Note_on_c, 4, 70, 84
10, 168720, Note_on_c, 4, 46, 84
10, 169409, Note_on_c, 4, 70, 0
10, 169409, Note_on_c, 4, 46, 0
10, 169440, Note_on_c, 4, 46, 84
10, 169440, Note_on_c, 4, 70, 84
10, 170129, Note_on_c, 4, 46, 0
10, 170129, Note_on_c, 4, 70, 0
10, 170160, Note_on_c, 4, 46, 84
10, 170160, Note_on_c, 4, 70, 84
10, 170849, Note_on_c, 4, 46, 0
10, 170849, Note_on_c, 4, 70, 0
10, 170880, Note_on_c, 4, 70, 84
10, 170880, Note_on_c, 4, 46, 84
10, 171569, Note_on_c, 4, 70, 0
10, 171569, Note_on_c, 4, 46, 0
10, 171600, Note_on_c, 4, 46, 84
10, 171600, Note_on_c, 4, 70, 84
10, 172289, Note_on_c, 4, 46, 0
10, 172289, Note_on_c, 4, 70, 0
10, 172320, Note_on_c, 4, 70, 84
10, 172320, Note_on_c, 4, 46, 84
10, 172529, Note_on_c, 4, 70, 0
10, 172529, Note_on_c, 4, 46, 0
10, 172560, Note_on_c, 4, 63, 84
10, 172560, Note_on_c, 4, 51, 84
10, 172769, Note_on_c, 4, 63, 0
10, 172769, Note_on_c, 4, 51, 0
10, 172800, Note_on_c, 4, 63, 84
10, 172800, Note_on_c, 4, 51, 84
10, 173009, Note_on_c, 4, 63, 0
10, 173009, Note_on_c, 4, 51, 0
10, 173040, Note_on_c, 4, 51, 84
10, 173040, Note_on_c, 4, 63, 84
10, 173729, Note_on_c, 4, 51, 0
10, 173729, Note_on_c, 4, 63, 0
10, 173760, Note_on_c, 4, 51, 84
10, 173760, Note_on_c, 4, 68, 84
10, 174449, Note_on_c, 4, 51, 0
10, 174449, Note_on_c, 4, 68, 0
10, 174480, Note_on_c, 4, 67, 84
10, 174480, Note_on_c, 4, 51, 84
10, 175169, Note_on_c, 4, 67, 0
10, 175169, Note_on_c, 4, 51, 0
10, 175200, Note_on_c, 4, 51, 84
10, 175200, Note_on_c, 4, 68, 84
10, 175889, Note_on_c, 4, 51, 0
10, 175889, Note_on_c, 4, 68, 0
10, 175920, Note_on_c, 4, 51, 84
10, 175920, Note_on_c, 4, 67, 84
10, 176609, Note_on_c, 4, 51, 0
10, 176609, Note_on_c, 4, 67, 0
10, 176640, Note_on_c, 4, 51, 84
10, 176640, Note_on_c, 4, 68, 84
10, 176849, Note_on_c, 4, 51, 0
10, 176849, Note_on_c, 4, 68, 0
10, 176880, Note_on_c, 4, 63, 84
10, 176880, Note_on_c, 4, 51, 84
10, 177089, Note_on_c, 4, 63, 0
10, 177089, Note_on_c, 4, 51, 0
10, 177120, Note_on_c, 4, 51, 84
10, 177120, Note_on_c, 4, 63, 84
10, 177329, Note_on_c, 4, 51, 0
10, 177329, Note_on_c, 4, 63, 0
10, 177360, Note_on_c, 4, 51, 84
10, 177360, Note_on_c, 4, 63, 84
10, 177569, Note_on_c, 4, 51, 0
10, 177569, Note_on_c, 4, 63, 0
10, 177600, Note_on_c, 4, 63, 84
10, 177600, Note_on_c, 4, 51, 84
10, 177809, Note_on_c, 4, 63, 0
10, 177809, Note_on_c, 4, 51, 0
10, 177840, Note_on_c, 4, 51, 84
10, 177840, Note_on_c, 4, 63, 84
10, 178049, Note_on_c, 4, 51, 0
10, 178049, Note_on_c, 4, 63, 0
10, 178080, Note_on_c, 4, 63, 84
10, 178080, Note_on_c, 4, 51, 84
10, 178289, Note_on_c, 4, 63, 0
10, 178289, Note_on_c, 4, 51, 0
10, 178320, Note_on_c, 4, 51, 84
10, 178320, Note_on_c, 4, 63, 84
10, 178529, Note_on_c, 4, 51, 0
10, 178529, Note_on_c, 4, 63, 0
10, 178560, Note_on_c, 4, 51, 84
10, 178560, Note_on_c, 4, 63, 84
10, 178769, Note_on_c, 4, 51, 0
10, 178769, Note_on_c, 4, 63, 0
10, 178800, Note_on_c, 4, 63, 84
10, 178800, Note_on_c, 4, 51, 84
10, 179009, Note_on_c, 4, 63, 0
10, 179009, Note_on_c, 4, 51, 0
10, 179040, Note_on_c, 4, 63, 84
10, 179040, Note_on_c, 4, 51, 84
10, 179249, Note_on_c, 4, 63, 0
10, 179249, Note_on_c, 4, 51, 0
10, 179280, Note_on_c, 4, 51, 84
10, 179280, Note_on_c, 4, 63, 84
10, 179489, Note_on_c, 4, 51, 0
10, 179489, Note_on_c, 4, 63, 0
10, 179520, Note_on_c, 4, 58, 84
10, 179520, Note_on_c, 4, 65, 84
10, 179729, Note_on_c, 4, 58, 0
10, 179729, Note_on_c, 4, 65, 0
10, 179760, Note_on_c, 4, 65, 84
10, 179760, Note_on_c, 4, 58, 84
10, 179969, Note_on_c, 4, 65, 0
10, 179969, Note_on_c, 4, 58, 0
10, 180000, Note_on_c, 4, 58, 84
10, 180000, Note_on_c, 4, 65, 84
10, 180209, Note_on_c, 4, 58, 0
10, 180209, Note_on_c, 4, 65, 0
10, 180240, Note_on_c, 4, 58, 84
10, 180240, Note_on_c, 4, 63, 84
10, 180479, Note_on_c, 4, 58, 0
10, 180479, Note_on_c, 4, 63, 0
10, 183360, Note_on_c, 4, 63, 52
10, 183569, Note_on_c, 4, 63, 0
10, 183600, Note_on_c, 4, 63, 52
10, 183809, Note_on_c, 4, 63, 0
10, 183840, Note_on_c, 4, 63, 52
10, 184049, Note_on_c, 4, 63, 0
10, 184080, Note_on_c, 4, 63, 52
10, 184289, Note_on_c, 4, 63, 0
10, 184320, Note_on_c, 4, 63, 52
10, 184529, Note_on_c, 4, 63, 0
10, 184560, Note_on_c, 4, 63, 52
10, 184769, Note_on_c, 4, 63, 0
10, 184800, Note_on_c, 4, 63, 52
10, 184800, Note_on_c, 4, 67, 52
10, 185009, Note_on_c, 4, 63, 0
10, 185009, Note_on_c, 4, 67, 0
10, 185040, Note_on_c, 4, 63, 52
10, 185040, Note_on_c, 4, 67, 52
10, 185249, Note_on_c, 4, 63, 0
10, 185249, Note_on_c, 4, 67, 0
10, 185280, Note_on_c, 4, 58, 52
10, 185280, Note_on_c, 4, 65, 52
10, 185489, Note_on_c, 4, 58, 0
10, 185489, Note_on_c, 4, 65, 0
10, 185520, Note_on_c, 4, 65, 52
10, 185520, Note_on_c, 4, 58, 52
10, 185729, Note_on_c, 4, 65, 0
10, 185729, Note_on_c, 4, 58, 0
10, 185760, Note_on_c, 4, 65, 52
10, 185760, Note_on_c, 4, 58, 52
10, 185969, Note_on_c, 4, 65, 0
10, 185969, Note_on_c, 4, 58, 0
10, 186000, Note_on_c, 4, 55, 76
10, 186000, Note_on_c, 4, 63, 76
10, 186209, Note_on_c, 4, 55, 0
10, 186209, Note_on_c, 4, 63, 0
10, 186240, Note_on_c, 4, 55, 84
10, 186240, Note_on_c, 4, 67, 84
10, 186689, Note_on_c, 4, 55, 0
10, 186689, Note_on_c, 4, 67, 0
10, 186720, Note_on_c, 4, 51, 76
10, 186720, Note_on_c, 4, 63, 76
10, 186929, Note_on_c, 4, 51, 0
10, 186929, Note_on_c, 4, 63, 0
10, 186960, Note_on_c, 4, 58, 84
10, 186960, Note_on_c, 4, 46, 84
10, 187409, Note_on_c, 4, 58, 0
10, 187409, Note_on_c, 4, 46, 0
10, 187440, Note_on_c, 4, 55, 76
10, 187649, Note_on_c, 4, 55, 0
10, 187680, Note_on_c, 4, 63, 84
10, 187680, Note_on_c, 4, 51, 84
10, 188129, Note_on_c, 4, 63, 0
10, 188129, Note_on_c, 4, 51, 0
10, 188160, Note_on_c, 4, 46, 76
10, 188160, Note_on_c, 4, 58, 76
10, 188399, Note_on_c, 4, 46, 0
10, 188399, Note_on_c, 4, 58, 0
10, 188640, Note_on_c, 4, 58, 76
10, 188640, Note_on_c, 4, 46, 76
10, 188849, Note_on_c, 4, 58, 0
10, 188849, Note_on_c, 4, 46, 0
10, 188880, Note_on_c, 4, 55, 76
10, 188880, Note_on_c, 4, 67, 76
10, 189119, Note_on_c, 4, 55, 0
10, 189119, Note_on_c, 4, 67, 0
10, 194880, Note_on_c, 4, 63, 52
10, 194999, Note_on_c, 4, 63, 0
10, 195120, Note_on_c, 4, 63, 52
10, 195239, Note_on_c, 4, 63, 0
10, 195360, Note_on_c, 4, 63, 52
10, 195479, Note_on_c, 4, 63, 0
10, 195600, Note_on_c, 4, 63, 52
10, 195719, Note_on_c, 4, 63, 0
10, 195840, Note_on_c, 4, 63, 52
10, 195959, Note_on_c, 4, 63, 0
10, 196080, Note_on_c, 4, 63, 52
10, 196199, Note_on_c, 4, 63, 0
10, 197760, Note_on_c, 4, 63, 52
10, 197879, Note_on_c, 4, 63, 0
10, 198000, Note_on_c, 4, 63, 52
10, 198119, Note_on_c, 4, 63, 0
10, 198240, Note_on_c, 4, 63, 52
10, 198359, Note_on_c, 4, 63, 0
10, 198480, Note_on_c, 4, 63, 52
10, 198599, Note_on_c, 4, 63, 0
10, 198720, Note_on_c, 4, 63, 52
10, 198839, Note_on_c, 4, 63, 0
10, 198960, Note_on_c, 4, 63, 52
10, 199079, Note_on_c, 4, 63, 0
10, 199200, Note_on_c, 4, 63, 52
10, 199200, Note_on_c, 4, 51, 52
10, 199319, Note_on_c, 4, 63, 0
10, 199319, Note_on_c, 4, 51, 0
10, 199440, Note_on_c, 4, 51, 52
10, 199440, Note_on_c, 4, 63, 52
10, 199559, Note_on_c, 4, 51, 0
10, 199559, Note_on_c, 4, 63, 0
10, 199680, Note_on_c, 4, 63, 52
10, 199680, Note_on_c, 4, 51, 52
10, 199799, Note_on_c, 4, 63, 0
10, 199799, Note_on_c, 4, 51, 0
10, 199920, Note_on_c, 4, 51, 52
10, 199920, Note_on_c, 4, 63, 52
10, 200039, Note_on_c, 4, 51, 0
10, 200039, Note_on_c, 4, 63, 0
10, 200160, Note_on_c, 4, 63, 52
10, 200160, Note_on_c, 4, 51, 52
10, 200279, Note_on_c, 4, 63, 0
10, 200279, Note_on_c, 4, 51, 0
10, 200400, Note_on_c, 4, 63, 52
10, 200400, Note_on_c, 4, 51, 52
10, 200639, Note_on_c, 4, 63, 0
10, 200639, Note_on_c, 4, 51, 0
10, 206160, Note_on_c, 4, 51, 52
10, 206160, Note_on_c, 4, 63, 52
10, 206399, Note_on_c, 4, 51, 0
10, 206399, Note_on_c, 4, 63, 0
10, 206880, Note_on_c, 4, 63, 52
10, 206880, Note_on_c, 4, 51, 52
10, 207119, Note_on_c, 4, 63, 0
10, 207119, Note_on_c, 4, 51, 0
10, 207600, Note_on_c, 4, 65, 52
10, 207839, Note_on_c, 4, 65, 0
10, 208320, Note_on_c, 4, 65, 52
10, 208559, Note_on_c, 4, 65, 0
10, 209040, Note_on_c, 4, 67, 52
10, 209279, Note_on_c, 4, 67, 0
10, 209760, Note_on_c, 4, 67, 60
10, 209999, Note_on_c, 4, 67, 0
10, 210480, Note_on_c, 4, 63, 68
10, 210480, Note_on_c, 4, 51, 68
10, 210719, Note_on_c, 4, 63, 0
10, 210719, Note_on_c, 4, 51, 0
10, 211200, Note_on_c, 4, 58, 76
10, 211200, Note_on_c, 4, 46, 76
10, 211409, Note_on_c, 4, 58, 0
10, 211409, Note_on_c, 4, 46, 0
10, 211440, Note_on_c, 4, 46, 78
10, 211440, Note_on_c, 4, 58, 78
10, 211649, Note_on_c, 4, 46, 0
10, 211649, Note_on_c, 4, 58, 0
10, 211680, Note_on_c, 4, 46, 81
10, 211680, Note_on_c, 4, 58, 81
10, 211889, Note_on_c, 4, 46, 0
10, 211889, Note_on_c, 4, 58, 0
10, 211920, Note_on_c, 4, 58, 84
10, 211920, Note_on_c, 4, 46, 84
10, 212129, Note_on_c, 4, 58, 0
10, 212129, Note_on_c, 4, 46, 0
10, 212160, Note_on_c, 4, 46, 84
10, 212160, Note_on_c, 4, 58, 84
10, 212369, Note_on_c, 4, 46, 0
10, 212369, Note_on_c, 4, 58, 0
10, 212400, Note_on_c, 4, 46, 84
10, 212400, Note_on_c, 4, 58, 84
10, 212609, Note_on_c, 4, 46, 0
10, 212609, Note_on_c, 4, 58, 0
10, 212640, Note_on_c, 4, 46, 84
10, 212640, Note_on_c, 4, 58, 84
10, 212849, Note_on_c, 4, 46, 0
10, 212849, Note_on_c, 4, 58, 0
10, 212880, Note_on_c, 4, 65, 84
10, 212880, Note_on_c, 4, 58, 84
10, 213089, Note_on_c, 4, 65, 0
10, 213089, Note_on_c, 4, 58, 0
10, 213120, Note_on_c, 4, 65, 84
10, 213120, Note_on_c, 4, 58, 84
10, 213329, Note_on_c, 4, 65, 0
10, 213329, Note_on_c, 4, 58, 0
10, 213360, Note_on_c, 4, 58, 84
10, 213360, Note_on_c, 4, 65, 84
10, 213569, Note_on_c, 4, 58, 0
10, 213569, Note_on_c, 4, 65, 0
10, 213600, Note_on_c, 4, 65, 84
10, 213600, Note_on_c, 4, 68, 84
10, 213809, Note_on_c, 4, 65, 0
10, 213809, Note_on_c, 4, 68, 0
10, 213840, Note_on_c, 4, 65, 84
10, 213840, Note_on_c, 4, 68, 84
10, 214049, Note_on_c, 4, 65, 0
10, 214049, Note_on_c, 4, 68, 0
10, 214080, Note_on_c, 4, 65, 84
10, 214080, Note_on_c, 4, 68, 84
10, 214289, Note_on_c, 4, 65, 0
10, 214289, Note_on_c, 4, 68, 0
10, 214320, Note_on_c, 4, 67, 84
10, 214320, Note_on_c, 4, 63, 84
10, 214529, Note_on_c, 4, 67, 0
10, 214529, Note_on_c, 4, 63, 0
10, 214560, Note_on_c, 4, 65, 84
10, 214560, Note_on_c, 4, 58, 84
10, 214769, Note_on_c, 4, 65, 0
10, 214769, Note_on_c, 4, 58, 0
10, 214800, Note_on_c, 4, 55, 76
10, 214800, Note_on_c, 4, 63, 76
10, 215039, Note_on_c, 4, 55, 0
10, 215039, Note_on_c, 4, 63, 0
10, 215520, Note_on_c, 4, 65, 76
10, 215520, Note_on_c, 4, 58, 76
10, 215759, Note_on_c, 4, 65, 0
10, 215759, Note_on_c, 4, 58, 0
10, 216240, Note_on_c, 4, 55, 76
10, 216240, Note_on_c, 4, 63, 76
10, 216479, Note_on_c, 4, 55, 0
10, 216479, Note_on_c, 4, 63, 0
10, 217440, Note_on_c, 4, 51, 60
10, 217440, Note_on_c, 4, 58, 60
10, 217649, Note_on_c, 4, 51, 0
10, 217649, Note_on_c, 4, 58, 0
10, 217680, Note_on_c, 4, 58, 76
10, 217680, Note_on_c, 4, 51, 76
10, 218849, Note_on_c, 4, 58, 0
10, 218849, Note_on_c, 4, 51, 0
10, 218880, Note_on_c, 4, 55, 60
10, 218880, Note_on_c, 4, 63, 60
10, 219089, Note_on_c, 4, 55, 0
10, 219089, Note_on_c, 4, 63, 0
10, 219120, Note_on_c, 4, 63, 60
10, 219120, Note_on_c, 4, 55, 60
10, 219569, Note_on_c, 4, 63, 0
10, 219569, Note_on_c, 4, 55, 0
10, 219600, Note_on_c, 4, 67, 60
10, 219600, Note_on_c, 4, 58, 60
10, 219809, Note_on_c, 4, 67, 0
10, 219809, Note_on_c, 4, 58, 0
10, 219840, Note_on_c, 4, 67, 60
10, 219840, Note_on_c, 4, 58, 60
10, 220289, Note_on_c, 4, 67, 0
10, 220289, Note_on_c, 4, 58, 0
10, 220320, Note_on_c, 4, 70, 60
10, 220320, Note_on_c, 4, 63, 60
10, 220529, Note_on_c, 4, 70, 0
10, 220529, Note_on_c, 4, 63, 0
10, 220560, Note_on_c, 4, 70, 60
10, 220560, Note_on_c, 4, 63, 60
10, 221009, Note_on_c, 4, 70, 0
10, 221009, Note_on_c, 4, 63, 0
10, 221040, Note_on_c, 4, 58, 60
10, 221040, Note_on_c, 4, 67, 60
10, 221249, Note_on_c, 4, 58, 0
10, 221249, Note_on_c, 4, 67, 0
10, 221280, Note_on_c, 4, 55, 60
10, 221280, Note_on_c, 4, 63, 60
10, 221489, Note_on_c, 4, 55, 0
10, 221520, Note_on_c, 4, 58, 60
10, 221609, Note_on_c, 4, 58, 0
10, 221640, Note_on_c, 4, 55, 60
10, 221729, Note_on_c, 4, 63, 0
10, 221729, Note_on_c, 4, 55, 0
10, 221760, Note_on_c, 4, 51, 60
10, 221760, Note_on_c, 4, 67, 60
10, 221969, Note_on_c, 4, 51, 0
10, 221969, Note_on_c, 4, 67, 0
10, 222000, Note_on_c, 4, 46, 60
10, 222000, Note_on_c, 4, 65, 60
10, 222239, Note_on_c, 4, 46, 0
10, 222239, Note_on_c, 4, 65, 0
10, 222960, Control_c, 4, 11, 96
10, 223120, Control_c, 4, 11, 97
10, 223200, Note_on_c, 4, 51, 76
10, 223280, Control_c, 4, 11, 99
10, 223319, Note_on_c, 4, 51, 0
10, 223440, Control_c, 4, 11, 100
10, 223440, Note_on_c, 4, 51, 76
10, 223600, Control_c, 4, 11, 101
10, 223679, Note_on_c, 4, 51, 0
10, 223680, Note_on_c, 4, 46, 76
10, 223760, Control_c, 4, 11, 102
10, 223889, Note_on_c, 4, 46, 0
10, 223920, Control_c, 4, 11, 104
10, 223920, Note_on_c, 4, 55, 76
10, 224039, Note_on_c, 4, 55, 0
10, 224080, Control_c, 4, 11, 105
10, 224160, Note_on_c, 4, 55, 76
10, 224240, Control_c, 4, 11, 106
10, 224399, Note_on_c, 4, 55, 0
10, 224400, Control_c, 4, 11, 108
10, 224400, Note_on_c, 4, 51, 76
10, 224560, Control_c, 4, 11, 109
10, 224609, Note_on_c, 4, 51, 0
10, 224640, Note_on_c, 4, 58, 76
10, 224640, Note_on_c, 4, 67, 76
10, 224720, Control_c, 4, 11, 110
10, 224759, Note_on_c, 4, 58, 0
10, 224759, Note_on_c, 4, 67, 0
10, 224880, Note_on_c, 4, 58, 76
10, 224880, Control_c, 4, 11, 112
10, 224880, Note_on_c, 4, 67, 76
10, 225040, Control_c, 4, 11, 113
10, 225119, Note_on_c, 4, 58, 0
10, 225119, Note_on_c, 4, 67, 0
10, 225120, Note_on_c, 4, 55, 76
10, 225120, Note_on_c, 4, 63, 76
10, 225200, Control_c, 4, 11, 114
10, 225329, Note_on_c, 4, 55, 0
10, 225329, Note_on_c, 4, 63, 0
10, 225360, Note_on_c, 4, 70, 76
10, 225360, Control_c, 4, 11, 115
10, 225360, Note_on_c, 4, 63, 76
10, 225479, Note_on_c, 4, 70, 0
10, 225479, Note_on_c, 4, 63, 0
10, 225520, Control_c, 4, 11, 117
10, 225600, Note_on_c, 4, 63, 76
10, 225600, Note_on_c, 4, 70, 84
10, 225680, Control_c, 4, 11, 118
10, 225839, Note_on_c, 4, 63, 0
10, 225840, Control_c, 4, 11, 119
10, 225840, Note_on_c, 4, 58, 76
10, 226000, Control_c, 4, 11, 121
10, 226049, Note_on_c, 4, 58, 0
10, 226080, Note_on_c, 4, 67, 76
10, 226160, Control_c, 4, 11, 122
10, 226199, Note_on_c, 4, 67, 0
10, 226320, Note_on_c, 4, 63, 76
10, 226320, Control_c, 4, 11, 123
10, 226439, Note_on_c, 4, 63, 0
10, 226480, Control_c, 4, 11, 124
10, 226559, Note_on_c, 4, 70, 0
10, 226560, Note_on_c, 4, 58, 76
10, 226640, Control_c, 4, 11, 127
10, 226649, Note_on_c, 4, 58, 0
10, 226680, Note_on_c, 4, 55, 76
10, 226769, Note_on_c, 4, 55, 0
10, 226800, Note_on_c, 4, 70, 76
10, 226800, Note_on_c, 4, 51, 76
10, 227009, Note_on_c, 4, 70, 0
10, 227009, Note_on_c, 4, 51, 0
10, 227040, Note_on_c, 4, 72, 76
10, 227040, Note_on_c, 4, 46, 76
10, 227279, Note_on_c, 4, 72, 0
10, 227279, Note_on_c, 4, 46, 0
10, 227520, Note_on_c, 4, 46, 76
10, 227520, Note_on_c, 4, 74, 76
10, 227639, Note_on_c, 4, 46, 0
10, 227639, Note_on_c, 4, 74, 0
10, 227760, Note_on_c, 4, 39, 76
10, 227760, Note_on_c, 4, 75, 76
10, 227999, Note_on_c, 4, 39, 0
10, 227999, Note_on_c, 4, 75, 0
10, 228960, Note_on_c, 4, 58, 60
10, 228960, Note_on_c, 4, 51, 60
10, 229169, Note_on_c, 4, 58, 0
10, 229169, Note_on_c, 4, 51, 0
10, 229200, Note_on_c, 4, 58, 76
10, 229200, Note_on_c, 4, 51, 76
10, 230369, Note_on_c, 4, 58, 0
10, 230369, Note_on_c, 4, 51, 0
10, 230400, Note_on_c, 4, 63, 60
10, 230400, Note_on_c, 4, 55, 60
10, 230609, Note_on_c, 4, 63, 0
10, 230609, Note_on_c, 4, 55, 0
10, 230640, Note_on_c, 4, 63, 60
10, 230640, Note_on_c, 4, 55, 60
10, 231089, Note_on_c, 4, 63, 0
10, 231089, Note_on_c, 4, 55, 0
10, 231120, Note_on_c, 4, 58, 60
10, 231120, Note_on_c, 4, 67, 60
10, 231329, Note_on_c, 4, 58, 0
10, 231329, Note_on_c, 4, 67, 0
10, 231360, Note_on_c, 4, 67, 60
10, 231360, Note_on_c, 4, 58, 60
10, 231809, Note_on_c, 4, 67, 0
10, 231809, Note_on_c, 4, 58, 0
10, 231840, Note_on_c, 4, 70, 60
10, 231840, Note_on_c, 4, 63, 60
10, 232049, Note_on_c, 4, 70, 0
10, 232049, Note_on_c, 4, 63, 0
10, 232080, Note_on_c, 4, 63, 60
10, 232080, Note_on_c, 4, 70, 60
10, 232529, Note_on_c, 4, 63, 0
10, 232529, Note_on_c, 4, 70, 0
10, 232560, Note_on_c, 4, 58, 60
10, 232560, Note_on_c, 4, 67, 60
10, 232769, Note_on_c, 4, 58, 0
10, 232769, Note_on_c, 4, 67, 0
10, 232800, Note_on_c, 4, 63, 60
10, 232800, Note_on_c, 4, 55, 60
10, 233009, Note_on_c, 4, 55, 0
10, 233040, Note_on_c, 4, 58, 60
10, 233129, Note_on_c, 4, 58, 0
10, 233160, Note_on_c, 4, 55, 60
10, 233249, Note_on_c, 4, 63, 0
10, 233249, Note_on_c, 4, 55, 0
10, 233280, Note_on_c, 4, 51, 60
10, 233280, Note_on_c, 4, 67, 60
10, 233489, Note_on_c, 4, 51, 0
10, 233489, Note_on_c, 4, 67, 0
10, 233520, Note_on_c, 4, 46, 60
10, 233520, Note_on_c, 4, 65, 60
10, 233759, Note_on_c, 4, 46, 0
10, 233759, Note_on_c, 4, 65, 0
10, 234480, Control_c, 4, 11, 96
10, 234640, Control_c, 4, 11, 97
10, 234720, Note_on_c, 4, 51, 76
10, 234800, Control_c, 4, 11, 99
10, 234839, Note_on_c, 4, 51, 0
10, 234960, Note_on_c, 4, 51, 76
10, 234960, Control_c, 4, 11, 100
10, 235120, Control_c, 4, 11, 101
10, 235199, Note_on_c, 4, 51, 0
10, 235200, Note_on_c, 4, 46, 76
10, 235280, Control_c, 4, 11, 102
10, 235409, Note_on_c, 4, 46, 0
10, 235440, Control_c, 4, 11, 104
10, 235440, Note_on_c, 4, 55, 76
10, 235559, Note_on_c, 4, 55, 0
10, 235600, Control_c, 4, 11, 105
10, 235680, Note_on_c, 4, 55, 76
10, 235760, Control_c, 4, 11, 106
10, 235919, Note_on_c, 4, 55, 0
10, 235920, Control_c, 4, 11, 108
10, 235920, Note_on_c, 4, 51, 76
10, 236080, Control_c, 4, 11, 109
10, 236129, Note_on_c, 4, 51, 0
10, 236160, Note_on_c, 4, 58, 76
10, 236160, Note_on_c, 4, 67, 76
10, 236240, Control_c, 4, 11, 110
10, 236279, Note_on_c, 4, 58, 0
10, 236279, Note_on_c, 4, 67, 0
10, 236400, Control_c, 4, 11, 112
10, 236400, Note_on_c, 4, 67, 76
10, 236400, Note_on_c, 4, 58, 76
10, 236560, Control_c, 4, 11, 113
10, 236639, Note_on_c, 4, 67, 0
10, 236639, Note_on_c, 4, 58, 0
10, 236640, Note_on_c, 4, 63, 76
10, 236640, Note_on_c, 4, 55, 76
10, 236720, Control_c, 4, 11, 114
10, 236849, Note_on_c, 4, 63, 0
10, 236849, Note_on_c, 4, 55, 0
10, 236880, Control_c, 4, 11, 115
10, 236880, Note_on_c, 4, 70, 76
10, 236880, Note_on_c, 4, 63, 76
10, 236999, Note_on_c, 4, 70, 0
10, 236999, Note_on_c, 4, 63, 0
10, 237040, Control_c, 4, 11, 117
10, 237120, Note_on_c, 4, 63, 76
10, 237120, Note_on_c, 4, 70, 84
10, 237200, Control_c, 4, 11, 118
10, 237359, Note_on_c, 4, 63, 0
10, 237360, Control_c, 4, 11, 119
10, 237360, Note_on_c, 4, 58, 76
10, 237520, Control_c, 4, 11, 121
10, 237569, Note_on_c, 4, 58, 0
10, 237600, Note_on_c, 4, 67, 76
10, 237680, Control_c, 4, 11, 122
10, 237719, Note_on_c, 4, 67, 0
10, 237840, Control_c, 4, 11, 123
10, 237840, Note_on_c, 4, 63, 76
10, 237959, Note_on_c, 4, 63, 0
10, 238000, Control_c, 4, 11, 124
10, 238079, Note_on_c, 4, 70, 0
10, 238080, Note_on_c, 4, 58, 76
10, 238160, Control_c, 4, 11, 127
10, 238169, Note_on_c, 4, 58, 0
10, 238200, Note_on_c, 4, 55, 76
10, 238289, Note_on_c, 4, 55, 0
10, 238320, Note_on_c, 4, 70, 76
10, 238320, Note_on_c, 4, 51, 76
10, 238529, Note_on_c, 4, 70, 0
10, 238529, Note_on_c, 4, 51, 0
10, 238560, Note_on_c, 4, 72, 76
10, 238560, Note_on_c, 4, 46, 76
10, 238799, Note_on_c, 4, 72, 0
10, 238799, Note_on_c, 4, 46, 0
10, 239040, Note_on_c, 4, 74, 76
10, 239040, Note_on_c, 4, 46, 76
10, 239249, Note_on_c, 4, 74, 0
10, 239249, Note_on_c, 4, 46, 0
10, 239280, Note_on_c, 4, 39, 76
10, 239280, Note_on_c, 4, 75, 76
10, 239519, Note_on_c, 4, 39, 0
10, 239519, Note_on_c, 4, 75, 0
10, 239760, Note_on_c, 4, 51, 76
10, 239969, Note_on_c, 4, 51, 0
10, 240000, Note_on_c, 4, 51, 76
10, 240449, Note_on_c, 4, 51, 0
10, 240480, Note_on_c, 4, 51, 76
10, 240689, Note_on_c, 4, 51, 0
10, 240720, Note_on_c, 4, 51, 76
10, 241169, Note_on_c, 4, 51, 0
10, 241200, Note_on_c, 4, 51, 76
10, 241409, Note_on_c, 4, 51, 0
10, 241440, Note_on_c, 4, 51, 76
10, 241889, Note_on_c, 4, 51, 0
10, 241920, Note_on_c, 4, 51, 76
10, 242129, Note_on_c, 4, 51, 0
10, 242160, Note_on_c, 4, 51, 76
10, 242399, Note_on_c, 4, 51, 0
10, 258960, Note_on_c, 4, 58, 60
10, 259169, Note_on_c, 4, 58, 0
10, 259200, Note_on_c, 4, 55, 60
10, 259200, Note_on_c, 4, 58, 60
10, 259409, Note_on_c, 4, 55, 0
10, 259409, Note_on_c, 4, 58, 0
10, 259440, Note_on_c, 4, 58, 76
10, 259440, Note_on_c, 4, 51, 76
10, 260609, Note_on_c, 4, 58, 0
10, 260609, Note_on_c, 4, 51, 0
10, 260640, Note_on_c, 4, 55, 60
10, 260640, Note_on_c, 4, 63, 60
10, 260849, Note_on_c, 4, 55, 0
10, 260849, Note_on_c, 4, 63, 0
10, 260880, Note_on_c, 4, 55, 60
10, 260880, Note_on_c, 4, 63, 60
10, 261329, Note_on_c, 4, 55, 0
10, 261329, Note_on_c, 4, 63, 0
10, 261360, Note_on_c, 4, 67, 60
10, 261360, Note_on_c, 4, 58, 60
10, 261569, Note_on_c, 4, 67, 0
10, 261569, Note_on_c, 4, 58, 0
10, 261600, Note_on_c, 4, 67, 60
10, 261600, Note_on_c, 4, 58, 60
10, 262049, Note_on_c, 4, 67, 0
10, 262049, Note_on_c, 4, 58, 0
10, 262080, Note_on_c, 4, 70, 60
10, 262080, Note_on_c, 4, 63, 60
10, 262289, Note_on_c, 4, 70, 0
10, 262289, Note_on_c, 4, 63, 0
10, 262320, Note_on_c, 4, 63, 60
10, 262320, Note_on_c, 4, 70, 60
10, 262769, Note_on_c, 4, 63, 0
10, 262769, Note_on_c, 4, 70, 0
10, 262800, Note_on_c, 4, 67, 60
10, 262800, Note_on_c, 4, 58, 60
10, 263009, Note_on_c, 4, 67, 0
10, 263009, Note_on_c, 4, 58, 0
10, 263040, Note_on_c, 4, 55, 60
10, 263040, Note_on_c, 4, 63, 60
10, 263249, Note_on_c, 4, 55, 0
10, 263280, Note_on_c, 4, 58, 60
10, 263369, Note_on_c, 4, 58, 0
10, 263400, Note_on_c, 4, 55, 60
10, 263489, Note_on_c, 4, 63, 0
10, 263489, Note_on_c, 4, 55, 0
10, 263520, Note_on_c, 4, 67, 60
10, 263520, Note_on_c, 4, 51, 60
10, 263729, Note_on_c, 4, 67, 0
10, 263729, Note_on_c, 4, 51, 0
10, 263760, Note_on_c, 4, 65, 60
10, 263760, Note_on_c, 4, 46, 60
10, 263999, Note_on_c, 4, 65, 0
10, 263999, Note_on_c, 4, 46, 0
10, 264720, Control_c, 4, 11, 96
10, 264940, Control_c, 4, 11, 99
10, 264960, Note_on_c, 4, 51, 76
10, 265079, Note_on_c, 4, 51, 0
10, 265160, Control_c, 4, 11, 101
10, 265200, Note_on_c, 4, 51, 76
10, 265380, Control_c, 4, 11, 104
10, 265439, Note_on_c, 4, 51, 0
10, 265440, Note_on_c, 4, 46, 76
10, 265600, Control_c, 4, 11, 106
10, 265649, Note_on_c, 4, 46, 0
10, 265680, Note_on_c, 4, 55, 76
10, 265799, Note_on_c, 4, 55, 0
10, 265820, Control_c, 4, 11, 109
10, 265920, Note_on_c, 4, 55, 76
10, 266040, Control_c, 4, 11, 112
10, 266159, Note_on_c, 4, 55, 0
10, 266160, Note_on_c, 4, 51, 76
10, 266260, Control_c, 4, 11, 114
10, 266369, Note_on_c, 4, 51, 0
10, 266400, Note_on_c, 4, 67, 76
10, 266400, Note_on_c, 4, 58, 76
10, 266480, Control_c, 4, 11, 117
10, 266519, Note_on_c, 4, 67, 0
10, 266519, Note_on_c, 4, 58, 0
10, 266640, Note_on_c, 4, 67, 76
10, 266640, Note_on_c, 4, 58, 76
10, 266700, Control_c, 4, 11, 119
10, 266879, Note_on_c, 4, 67, 0
10, 266879, Note_on_c, 4, 58, 0
10, 266880, Note_on_c, 4, 63, 76
10, 266880, Note_on_c, 4, 55, 76
10, 266920, Control_c, 4, 11, 122
10, 267089, Note_on_c, 4, 63, 0
10, 267089, Note_on_c, 4, 55, 0
10, 267120, Note_on_c, 4, 70, 76
10, 267120, Note_on_c, 4, 61, 76
10, 267140, Control_c, 4, 11, 127
10, 267239, Note_on_c, 4, 70, 0
10, 267239, Note_on_c, 4, 61, 0
10, 267360, Note_on_c, 4, 70, 84
10, 267360, Note_on_c, 4, 61, 84
10, 267480, Control_c, 4, 11, 112
10, 267590, Control_c, 4, 11, 109
10, 267700, Control_c, 4, 11, 107
10, 267810, Control_c, 4, 11, 104
10, 267920, Control_c, 4, 11, 101
10, 268030, Control_c, 4, 11, 99
10, 268140, Control_c, 4, 11, 96
10, 268250, Control_c, 4, 11, 93
10, 268360, Control_c, 4, 11, 91
10, 268470, Control_c, 4, 11, 88
10, 268580, Control_c, 4, 11, 85
10, 268690, Control_c, 4, 11, 80
10, 268769, Note_on_c, 4, 70, 0
10, 268769, Note_on_c, 4, 61, 0
10, 268800, Note_on_c, 4, 68, 84
10, 268800, Note_on_c, 4, 60, 84
10, 269249, Note_on_c, 4, 68, 0
10, 269249, Note_on_c, 4, 60, 0
10, 269280, Note_on_c, 4, 67, 84
10, 269280, Note_on_c, 4, 58, 84
10, 269489, Note_on_c, 4, 67, 0
10, 269489, Note_on_c, 4, 58, 0
10, 269520, Note_on_c, 4, 65, 84
10, 269520, Note_on_c, 4, 56, 84
10, 269759, Note_on_c, 4, 65, 0
10, 269759, Note_on_c, 4, 56, 0
10, 272400, Control_c, 4, 11, 127
10, 272880, Note_on_c, 4, 70, 60
10, 272880, Note_on_c, 4, 61, 60
10, 273089, Note_on_c, 4, 70, 0
10, 273089, Note_on_c, 4, 61, 0
10, 273120, Note_on_c, 4, 61, 76
10, 273120, Note_on_c, 4, 70, 76
10, 273240, Control_c, 4, 11, 112
10, 273350, Control_c, 4, 11, 109
10, 273460, Control_c, 4, 11, 107
10, 273570, Control_c, 4, 11, 104
10, 273680, Control_c, 4, 11, 101
10, 273790, Control_c, 4, 11, 99
10, 273900, Control_c, 4, 11, 96
10, 274010, Control_c, 4, 11, 93
10, 274120, Control_c, 4, 11, 91
10, 274230, Control_c, 4, 11, 88
10, 274340, Control_c, 4, 11, 85
10, 274450, Control_c, 4, 11, 80
10, 274529, Note_on_c, 4, 61, 0
10, 274529, Note_on_c, 4, 70, 0
10, 274560, Note_on_c, 4, 68, 76
10, 274560, Note_on_c, 4, 60, 76
10, 275009, Note_on_c, 4, 68, 0
10, 275009, Note_on_c, 4, 60, 0
10, 275040, Note_on_c, 4, 58, 76
10, 275040, Note_on_c, 4, 67, 76
10, 275249, Note_on_c, 4, 58, 0
10, 275249, Note_on_c, 4, 67, 0
10, 275280, Note_on_c, 4, 65, 76
10, 275280, Note_on_c, 4, 56, 76
10, 275519, Note_on_c, 4, 65, 0
10, 275519, Note_on_c, 4, 56, 0
10, 278160, Control_c, 4, 11, 127
10, 278640, Note_on_c, 4, 67, 60
10, 278640, Note_on_c, 4, 46, 60
10, 278879, Note_on_c, 4, 67, 0
10, 278879, Note_on_c, 4, 46, 0
10, 278880, Note_on_c, 4, 68, 76
10, 278880, Note_on_c, 4, 47, 76
10, 279600, Control_c, 4, 11, 112
10, 279720, Control_c, 4, 11, 108
10, 279840, Control_c, 4, 11, 104
10, 279960, Control_c, 4, 11, 100
10, 280080, Control_c, 4, 11, 96
10, 280200, Control_c, 4, 11, 92
10, 280320, Control_c, 4, 11, 88
10, 280440, Control_c, 4, 11, 84
10, 280560, Control_c, 4, 11, 80
10, 280680, Control_c, 4, 11, 76
10, 280800, Control_c, 4, 11, 72
10, 280920, Control_c, 4, 11, 64
10, 281639, Note_on_c, 4, 68, 0
10, 281639, Note_on_c, 4, 47, 0
10, 281760, Note_on_c, 4, 68, 76
10, 281760, Note_on_c, 4, 46, 76
10, 283889, Note_on_c, 4, 68, 0
10, 283889, Note_on_c, 4, 46, 0
10, 283920, Note_on_c, 4, 67, 76
10, 283920, Note_on_c, 4, 51, 76
10, 284159, Note_on_c, 4, 67, 0
10, 284159, Note_on_c, 4, 51, 0
10, 284340, Control_c, 4, 11, 127
10, 284400, Note_on_c, 4, 51, 76
10, 284609, Note_on_c, 4, 51, 0
10, 284640, Note_on_c, 4, 51, 76
10, 285089, Note_on_c, 4, 51, 0
10, 285120, Note_on_c, 4, 51, 76
10, 285329, Note_on_c, 4, 51, 0
10, 285360, Note_on_c, 4, 51, 76
10, 285809, Note_on_c, 4, 51, 0
10, 285840, Note_on_c, 4, 51, 76
10, 286049, Note_on_c, 4, 51, 0
10, 286080, Note_on_c, 4, 51, 76
10, 286529, Note_on_c, 4, 51, 0
10, 286560, Note_on_c, 4, 51, 76
10, 286769, Note_on_c, 4, 51, 0
10, 286800, Note_on_c, 4, 51, 76
10, 287039, Note_on_c, 4, 51, 0
10, 303600, Note_on_c, 4, 58, 60
10, 303809, Note_on_c, 4, 58, 0
10, 303840, Note_on_c, 4, 55, 60
10, 303840, Note_on_c, 4, 58, 60
10, 304049, Note_on_c, 4, 55, 0
10, 304049, Note_on_c, 4, 58, 0
10, 304080, Note_on_c, 4, 58, 76
10, 304080, Note_on_c, 4, 51, 76
10, 305249, Note_on_c, 4, 58, 0
10, 305249, Note_on_c, 4, 51, 0
10, 305280, Note_on_c, 4, 55, 60
10, 305280, Note_on_c, 4, 63, 60
10, 305489, Note_on_c, 4, 55, 0
10, 305489, Note_on_c, 4, 63, 0
10, 305520, Note_on_c, 4, 55, 60
10, 305520, Note_on_c, 4, 63, 60
10, 305969, Note_on_c, 4, 55, 0
10, 305969, Note_on_c, 4, 63, 0
10, 306000, Note_on_c, 4, 67, 60
10, 306000, Note_on_c, 4, 58, 60
10, 306209, Note_on_c, 4, 67, 0
10, 306209, Note_on_c, 4, 58, 0
10, 306240, Note_on_c, 4, 58, 60
10, 306240, Note_on_c, 4, 67, 60
10, 306689, Note_on_c, 4, 58, 0
10, 306689, Note_on_c, 4, 67, 0
10, 306720, Note_on_c, 4, 70, 60
10, 306720, Note_on_c, 4, 63, 60
10, 306929, Note_on_c, 4, 70, 0
10, 306929, Note_on_c, 4, 63, 0
10, 306960, Note_on_c, 4, 63, 60
10, 306960, Note_on_c, 4, 70, 60
10, 307409, Note_on_c, 4, 63, 0
10, 307409, Note_on_c, 4, 70, 0
10, 307440, Note_on_c, 4, 58, 60
10, 307440, Note_on_c, 4, 67, 60
10, 307649, Note_on_c, 4, 58, 0
10, 307649, Note_on_c, 4, 67, 0
10, 307680, Note_on_c, 4, 63, 60
10, 307680, Note_on_c, 4, 55, 60
10, 307889, Note_on_c, 4, 55, 0
10, 307920, Note_on_c, 4, 58, 60
10, 308009, Note_on_c, 4, 58, 0
10, 308040, Note_on_c, 4, 55, 60
10, 308129, Note_on_c, 4, 63, 0
10, 308129, Note_on_c, 4, 55, 0
10, 308160, Note_on_c, 4, 51, 60
10, 308160, Note_on_c, 4, 67, 60
10, 308369, Note_on_c, 4, 51, 0
10, 308369, Note_on_c, 4, 67, 0
10, 308400, Note_on_c, 4, 65, 60
10, 308400, Note_on_c, 4, 46, 60
10, 308639, Note_on_c, 4, 65, 0
10, 308639, Note_on_c, 4, 46, 0
10, 309360, Control_c, 4, 11, 96
10, 309580, Control_c, 4, 11, 99
10, 309600, Note_on_c, 4, 51, 76
10, 309719, Note_on_c, 4, 51, 0
10, 309800, Control_c, 4, 11, 101
10, 309840, Note_on_c, 4, 51, 76
10, 310020, Control_c, 4, 11, 104
10, 310079, Note_on_c, 4, 51, 0
10, 310080, Note_on_c, 4, 46, 76
10, 310240, Control_c, 4, 11, 106
10, 310289, Note_on_c, 4, 46, 0
10, 310320, Note_on_c, 4, 55, 76
10, 310439, Note_on_c, 4, 55, 0
10, 310460, Control_c, 4, 11, 109
10, 310560, Note_on_c, 4, 55, 76
10, 310680, Control_c, 4, 11, 112
10, 310799, Note_on_c, 4, 55, 0
10, 310800, Note_on_c, 4, 51, 76
10, 310900, Control_c, 4, 11, 114
10, 311009, Note_on_c, 4, 51, 0
10, 311040, Note_on_c, 4, 58, 76
10, 311040, Note_on_c, 4, 67, 76
10, 311120, Control_c, 4, 11, 117
10, 311159, Note_on_c, 4, 58, 0
10, 311159, Note_on_c, 4, 67, 0
10, 311280, Note_on_c, 4, 67, 76
10, 311280, Note_on_c, 4, 58, 76
10, 311340, Control_c, 4, 11, 119
10, 311519, Note_on_c, 4, 67, 0
10, 311519, Note_on_c, 4, 58, 0
10, 311520, Note_on_c, 4, 63, 76
10, 311520, Note_on_c, 4, 55, 76
10, 311560, Control_c, 4, 11, 122
10, 311729, Note_on_c, 4, 63, 0
10, 311729, Note_on_c, 4, 55, 0
10, 311760, Note_on_c, 4, 61, 76
10, 311760, Note_on_c, 4, 70, 76
10, 311780, Control_c, 4, 11, 127
10, 311879, Note_on_c, 4, 61, 0
10, 311879, Note_on_c, 4, 70, 0
10, 312000, Note_on_c, 4, 61, 84
10, 312000, Note_on_c, 4, 70, 84
10, 312120, Control_c, 4, 11, 112
10, 312230, Control_c, 4, 11, 109
10, 312340, Control_c, 4, 11, 107
10, 312450, Control_c, 4, 11, 104
10, 312560, Control_c, 4, 11, 101
10, 312670, Control_c, 4, 11, 99
10, 312780, Control_c, 4, 11, 96
10, 312890, Control_c, 4, 11, 93
10, 313000, Control_c, 4, 11, 91
10, 313110, Control_c, 4, 11, 88
10, 313220, Control_c, 4, 11, 85
10, 313330, Control_c, 4, 11, 80
10, 313409, Note_on_c, 4, 61, 0
10, 313409, Note_on_c, 4, 70, 0
10, 313440, Note_on_c, 4, 60, 84
10, 313440, Note_on_c, 4, 68, 84
10, 313889, Note_on_c, 4, 60, 0
10, 313889, Note_on_c, 4, 68, 0
10, 313920, Note_on_c, 4, 67, 84
10, 313920, Note_on_c, 4, 58, 84
10, 314129, Note_on_c, 4, 67, 0
10, 314129, Note_on_c, 4, 58, 0
10, 314160, Note_on_c, 4, 56, 84
10, 314160, Note_on_c, 4, 65, 84
10, 314399, Note_on_c, 4, 56, 0
10, 314399, Note_on_c, 4, 65, 0
10, 317040, Control_c, 4, 11, 127
10, 317520, Note_on_c, 4, 61, 60
10, 317520, Note_on_c, 4, 70, 60
10, 317729, Note_on_c, 4, 61, 0
10, 317729, Note_on_c, 4, 70, 0
10, 317760, Note_on_c, 4, 61, 76
10, 317760, Note_on_c, 4, 70, 76
10, 317880, Control_c, 4, 11, 112
10, 317990, Control_c, 4, 11, 109
10, 318100, Control_c, 4, 11, 107
10, 318210, Control_c, 4, 11, 104
10, 318320, Control_c, 4, 11, 101
10, 318430, Control_c, 4, 11, 99
10, 318540, Control_c, 4, 11, 96
10, 318650, Control_c, 4, 11, 93
10, 318760, Control_c, 4, 11, 91
10, 318870, Control_c, 4, 11, 88
10, 318980, Control_c, 4, 11, 85
10, 319090, Control_c, 4, 11, 80
10, 319169, Note_on_c, 4, 61, 0
10, 319169, Note_on_c, 4, 70, 0
10, 319200, Note_on_c, 4, 60, 76
10, 319200, Note_on_c, 4, 68, 76
10, 319649, Note_on_c, 4, 60, 0
10, 319649, Note_on_c, 4, 68, 0
10, 319680, Note_on_c, 4, 67, 76
10, 319680, Note_on_c, 4, 58, 76
10, 319889, Note_on_c, 4, 67, 0
10, 319889, Note_on_c, 4, 58, 0
10, 319920, Note_on_c, 4, 65, 76
10, 319920, Note_on_c, 4, 56, 76
10, 320159, Note_on_c, 4, 65, 0
10, 320159, Note_on_c, 4, 56, 0
10, 322800, Control_c, 4, 11, 127
10, 323280, Note_on_c, 4, 67, 60
10, 323280, Note_on_c, 4, 46, 60
10, 323519, Note_on_c, 4, 67, 0
10, 323519, Note_on_c, 4, 46, 0
10, 323520, Note_on_c, 4, 47, 76
10, 323520, Note_on_c, 4, 68, 76
10, 324240, Control_c, 4, 11, 112
10, 324360, Control_c, 4, 11, 108
10, 324480, Control_c, 4, 11, 104
10, 324600, Control_c, 4, 11, 100
10, 324720, Control_c, 4, 11, 96
10, 324840, Control_c, 4, 11, 92
10, 324960, Control_c, 4, 11, 88
10, 325080, Control_c, 4, 11, 84
10, 325200, Control_c, 4, 11, 80
10, 325320, Control_c, 4, 11, 76
10, 325440, Control_c, 4, 11, 72
10, 325560, Control_c, 4, 11, 64
10, 325919, Note_on_c, 4, 47, 0
10, 325919, Note_on_c, 4, 68, 0
10, 386880, Control_c, 4, 11, 127
10, 387360, Note_on_c, 4, 58, 52
10, 387360, Note_on_c, 4, 46, 52
10, 387569, Note_on_c, 4, 58, 0
10, 387569, Note_on_c, 4, 46, 0
10, 387600, Note_on_c, 4, 58, 52
10, 387600, Note_on_c, 4, 46, 52
10, 387809, Note_on_c, 4, 58, 0
10, 387809, Note_on_c, 4, 46, 0
10, 387840, Note_on_c, 4, 58, 52
10, 387840, Note_on_c, 4, 46, 52
10, 388049, Note_on_c, 4, 58, 0
10, 388049, Note_on_c, 4, 46, 0
10, 388080, Note_on_c, 4, 58, 52
10, 388080, Note_on_c, 4, 46, 52
10, 388289, Note_on_c, 4, 58, 0
10, 388289, Note_on_c, 4, 46, 0
10, 388320, Note_on_c, 4, 58, 52
10, 388320, Note_on_c, 4, 46, 52
10, 388529, Note_on_c, 4, 58, 0
10, 388529, Note_on_c, 4, 46, 0
10, 388560, Note_on_c, 4, 58, 52
10, 388560, Note_on_c, 4, 46, 52
10, 388769, Note_on_c, 4, 58, 0
10, 388769, Note_on_c, 4, 46, 0
10, 388800, Note_on_c, 4, 58, 52
10, 388800, Note_on_c, 4, 46, 52
10, 389009, Note_on_c, 4, 58, 0
10, 389009, Note_on_c, 4, 46, 0
10, 389040, Note_on_c, 4, 58, 52
10, 389040, Note_on_c, 4, 46, 52
10, 389279, Note_on_c, 4, 58, 0
10, 389279, Note_on_c, 4, 46, 0
10, 394800, Note_on_c, 4, 63, 84
10, 394800, Note_on_c, 4, 51, 84
10, 395009, Note_on_c, 4, 63, 0
10, 395009, Note_on_c, 4, 51, 0
10, 395040, Note_on_c, 4, 67, 84
10, 395040, Note_on_c, 4, 51, 84
10, 395249, Note_on_c, 4, 67, 0
10, 395249, Note_on_c, 4, 51, 0
10, 395280, Note_on_c, 4, 70, 84
10, 395280, Note_on_c, 4, 51, 84
10, 395489, Note_on_c, 4, 70, 0
10, 395489, Note_on_c, 4, 51, 0
10, 395520, Note_on_c, 4, 63, 84
10, 395520, Note_on_c, 4, 51, 84
10, 395729, Note_on_c, 4, 63, 0
10, 395729, Note_on_c, 4, 51, 0
10, 395760, Note_on_c, 4, 67, 84
10, 395760, Note_on_c, 4, 51, 84
10, 395969, Note_on_c, 4, 67, 0
10, 395969, Note_on_c, 4, 51, 0
10, 396000, Note_on_c, 4, 70, 84
10, 396000, Note_on_c, 4, 51, 84
10, 396209, Note_on_c, 4, 70, 0
10, 396209, Note_on_c, 4, 51, 0
10, 396240, Note_on_c, 4, 63, 84
10, 396240, Note_on_c, 4, 51, 84
10, 396449, Note_on_c, 4, 63, 0
10, 396480, Note_on_c, 4, 67, 84
10, 396689, Note_on_c, 4, 67, 0
10, 396720, Note_on_c, 4, 70, 84
10, 396929, Note_on_c, 4, 70, 0
10, 396960, Note_on_c, 4, 63, 84
10, 397169, Note_on_c, 4, 51, 0
10, 397169, Note_on_c, 4, 63, 0
10, 397200, Note_on_c, 4, 63, 84
10, 397200, Note_on_c, 4, 51, 84
10, 397409, Note_on_c, 4, 63, 0
10, 397409, Note_on_c, 4, 51, 0
10, 397440, Note_on_c, 4, 63, 84
10, 397440, Note_on_c, 4, 51, 84
10, 397649, Note_on_c, 4, 63, 0
10, 397649, Note_on_c, 4, 51, 0
10, 397680, Note_on_c, 4, 70, 84
10, 397680, Note_on_c, 4, 46, 84
10, 398369, Note_on_c, 4, 70, 0
10, 398369, Note_on_c, 4, 46, 0
10, 398400, Note_on_c, 4, 70, 84
10, 398400, Note_on_c, 4, 46, 84
10, 399089, Note_on_c, 4, 70, 0
10, 399089, Note_on_c, 4, 46, 0
10, 399120, Note_on_c, 4, 70, 84
10, 399120, Note_on_c, 4, 46, 84
10, 399809, Note_on_c, 4, 70, 0
10, 399809, Note_on_c, 4, 46, 0
10, 399840, Note_on_c, 4, 70, 84
10, 399840, Note_on_c, 4, 46, 84
10, 400529, Note_on_c, 4, 70, 0
10, 400529, Note_on_c, 4, 46, 0
10, 400560, Note_on_c, 4, 70, 84
10, 400560, Note_on_c, 4, 46, 84
10, 401249, Note_on_c, 4, 70, 0
10, 401249, Note_on_c, 4, 46, 0
10, 401280, Note_on_c, 4, 70, 84
10, 401280, Note_on_c, 4, 46, 84
10, 401969, Note_on_c, 4, 70, 0
10, 401969, Note_on_c, 4, 46, 0
10, 402000, Note_on_c, 4, 70, 84
10, 402000, Note_on_c, 4, 46, 84
10, 402689, Note_on_c, 4, 70, 0
10, 402689, Note_on_c, 4, 46, 0
10, 402720, Note_on_c, 4, 70, 84
10, 402720, Note_on_c, 4, 46, 84
10, 402929, Note_on_c, 4, 70, 0
10, 402929, Note_on_c, 4, 46, 0
10, 402960, Note_on_c, 4, 63, 84
10, 402960, Note_on_c, 4, 51, 84
10, 403169, Note_on_c, 4, 63, 0
10, 403169, Note_on_c, 4, 51, 0
10, 403200, Note_on_c, 4, 63, 84
10, 403200, Note_on_c, 4, 51, 84
10, 403409, Note_on_c, 4, 63, 0
10, 403409, Note_on_c, 4, 51, 0
10, 403440, Note_on_c, 4, 63, 84
10, 403440, Note_on_c, 4, 51, 84
10, 404129, Note_on_c, 4, 63, 0
10, 404129, Note_on_c, 4, 51, 0
10, 404160, Note_on_c, 4, 63, 84
10, 404160, Note_on_c, 4, 51, 84
10, 404849, Note_on_c, 4, 63, 0
10, 404849, Note_on_c, 4, 51, 0
10, 404880, Note_on_c, 4, 63, 84
10, 404880, Note_on_c, 4, 51, 84
10, 405569, Note_on_c, 4, 63, 0
10, 405569, Note_on_c, 4, 51, 0
10, 405600, Note_on_c, 4, 63, 84
10, 405600, Note_on_c, 4, 51, 84
10, 406289, Note_on_c, 4, 63, 0
10, 406289, Note_on_c, 4, 51, 0
10, 406320, Note_on_c, 4, 63, 84
10, 406320, Note_on_c, 4, 51, 84
10, 407009, Note_on_c, 4, 63, 0
10, 407009, Note_on_c, 4, 51, 0
10, 407040, Note_on_c, 4, 63, 84
10, 407040, Note_on_c, 4, 51, 84
10, 407249, Note_on_c, 4, 63, 0
10, 407249, Note_on_c, 4, 51, 0
10, 407280, Note_on_c, 4, 63, 84
10, 407280, Note_on_c, 4, 51, 84
10, 407489, Note_on_c, 4, 63, 0
10, 407489, Note_on_c, 4, 51, 0
10, 407520, Note_on_c, 4, 63, 84
10, 407520, Note_on_c, 4, 51, 84
10, 407729, Note_on_c, 4, 63, 0
10, 407729, Note_on_c, 4, 51, 0
10, 407760, Note_on_c, 4, 63, 84
10, 407760, Note_on_c, 4, 51, 84
10, 407969, Note_on_c, 4, 63, 0
10, 407969, Note_on_c, 4, 51, 0
10, 408000, Note_on_c, 4, 63, 84
10, 408000, Note_on_c, 4, 51, 84
10, 408209, Note_on_c, 4, 63, 0
10, 408209, Note_on_c, 4, 51, 0
10, 408240, Note_on_c, 4, 63, 84
10, 408240, Note_on_c, 4, 51, 84
10, 408449, Note_on_c, 4, 63, 0
10, 408449, Note_on_c, 4, 51, 0
10, 408480, Note_on_c, 4, 63, 84
10, 408480, Note_on_c, 4, 51, 84
10, 408689, Note_on_c, 4, 63, 0
10, 408689, Note_on_c, 4, 51, 0
10, 408720, Note_on_c, 4, 63, 84
10, 408720, Note_on_c, 4, 51, 84
10, 408929, Note_on_c, 4, 63, 0
10, 408929, Note_on_c, 4, 51, 0
10, 408960, Note_on_c, 4, 63, 84
10, 408960, Note_on_c, 4, 51, 84
10, 409169, Note_on_c, 4, 63, 0
10, 409169, Note_on_c, 4, 51, 0
10, 409200, Note_on_c, 4, 63, 84
10, 409200, Note_on_c, 4, 51, 84
10, 409409, Note_on_c, 4, 63, 0
10, 409409, Note_on_c, 4, 51, 0
10, 409440, Note_on_c, 4, 63, 84
10, 409440, Note_on_c, 4, 51, 84
10, 409649, Note_on_c, 4, 63, 0
10, 409649, Note_on_c, 4, 51, 0
10, 409680, Note_on_c, 4, 63, 84
10, 409680, Note_on_c, 4, 51, 84
10, 409889, Note_on_c, 4, 63, 0
10, 409889, Note_on_c, 4, 51, 0
10, 409920, Note_on_c, 4, 65, 84
10, 409920, Note_on_c, 4, 58, 84
10, 410129, Note_on_c, 4, 65, 0
10, 410129, Note_on_c, 4, 58, 0
10, 410160, Note_on_c, 4, 65, 84
10, 410160, Note_on_c, 4, 58, 84
10, 410369, Note_on_c, 4, 65, 0
10, 410369, Note_on_c, 4, 58, 0
10, 410400, Note_on_c, 4, 65, 84
10, 410400, Note_on_c, 4, 58, 84
10, 410609, Note_on_c, 4, 65, 0
10, 410609, Note_on_c, 4, 58, 0
10, 410640, Note_on_c, 4, 63, 84
10, 410640, Note_on_c, 4, 58, 84
10, 410879, Note_on_c, 4, 63, 0
10, 410879, Note_on_c, 4, 58, 0
10, 413760, Note_on_c, 4, 63, 52
10, 413969, Note_on_c, 4, 63, 0
10, 414000, Note_on_c, 4, 63, 52
10, 414209, Note_on_c, 4, 63, 0
10, 414240, Note_on_c, 4, 63, 52
10, 414449, Note_on_c, 4, 63, 0
10, 414480, Note_on_c, 4, 63, 52
10, 414689, Note_on_c, 4, 63, 0
10, 414720, Note_on_c, 4, 63, 52
10, 414929, Note_on_c, 4, 63, 0
10, 414960, Note_on_c, 4, 63, 52
10, 415169, Note_on_c, 4, 63, 0
10, 415200, Note_on_c, 4, 67, 52
10, 415200, Note_on_c, 4, 63, 52
10, 415409, Note_on_c, 4, 67, 0
10, 415409, Note_on_c, 4, 63, 0
10, 415440, Note_on_c, 4, 67, 52
10, 415440, Note_on_c, 4, 63, 52
10, 415649, Note_on_c, 4, 67, 0
10, 415649, Note_on_c, 4, 63, 0
10, 415680, Note_on_c, 4, 65, 52
10, 415680, Note_on_c, 4, 58, 52
10, 415889, Note_on_c, 4, 65, 0
10, 415889, Note_on_c, 4, 58, 0
10, 415920, Note_on_c, 4, 65, 52
10, 415920, Note_on_c, 4, 58, 52
10, 416129, Note_on_c, 4, 65, 0
10, 416129, Note_on_c, 4, 58, 0
10, 416160, Note_on_c, 4, 65, 52
10, 416160, Note_on_c, 4, 58, 52
10, 416369, Note_on_c, 4, 65, 0
10, 416369, Note_on_c, 4, 58, 0
10, 416400, Note_on_c, 4, 63, 76
10, 416400, Note_on_c, 4, 55, 76
10, 416579, Note_on_c, 4, 63, 0
10, 416579, Note_on_c, 4, 55, 0
10, 416640, Note_on_c, 4, 67, 84
10, 416640, Note_on_c, 4, 55, 84
10, 416819, Note_on_c, 4, 67, 0
10, 416819, Note_on_c, 4, 55, 0
10, 416880, Note_on_c, 4, 63, 84
10, 416880, Note_on_c, 4, 51, 84
10, 417059, Note_on_c, 4, 63, 0
10, 417059, Note_on_c, 4, 51, 0
10, 417120, Note_on_c, 4, 58, 84
10, 417120, Note_on_c, 4, 46, 84
10, 417299, Note_on_c, 4, 58, 0
10, 417299, Note_on_c, 4, 46, 0
10, 417360, Note_on_c, 4, 55, 84
10, 417539, Note_on_c, 4, 55, 0
10, 417600, Note_on_c, 4, 63, 84
10, 417600, Note_on_c, 4, 51, 84
10, 417779, Note_on_c, 4, 63, 0
10, 417779, Note_on_c, 4, 51, 0
10, 417840, Note_on_c, 4, 58, 84
10, 417840, Note_on_c, 4, 46, 84
10, 418019, Note_on_c, 4, 58, 0
10, 418019, Note_on_c, 4, 46, 0
10, 418080, Note_on_c, 4, 58, 84
10, 418080, Note_on_c, 4, 46, 84
10, 418259, Note_on_c, 4, 58, 0
10, 418259, Note_on_c, 4, 46, 0
10, 418320, Note_on_c, 4, 67, 84
10, 418320, Note_on_c, 4, 55, 84
10, 418559, Note_on_c, 4, 67, 0
10, 418559, Note_on_c, 4, 55, 0
10, 424320, Note_on_c, 4, 63, 52
10, 424529, Note_on_c, 4, 63, 0
10, 424560, Note_on_c, 4, 63, 52
10, 424769, Note_on_c, 4, 63, 0
10, 424800, Note_on_c, 4, 63, 52
10, 425009, Note_on_c, 4, 63, 0
10, 425040, Note_on_c, 4, 63, 52
10, 425249, Note_on_c, 4, 63, 0
10, 425280, Note_on_c, 4, 63, 52
10, 425489, Note_on_c, 4, 63, 0
10, 425520, Note_on_c, 4, 63, 52
10, 425759, Note_on_c, 4, 63, 0
10, 427200, Note_on_c, 4, 63, 52
10, 427409, Note_on_c, 4, 63, 0
10, 427440, Note_on_c, 4, 63, 52
10, 427649, Note_on_c, 4, 63, 0
10, 427680, Note_on_c, 4, 63, 52
10, 427889, Note_on_c, 4, 63, 0
10, 427920, Note_on_c, 4, 63, 52
10, 428129, Note_on_c, 4, 63, 0
10, 428160, Note_on_c, 4, 63, 52
10, 428369, Note_on_c, 4, 63, 0
10, 428400, Note_on_c, 4, 63, 52
10, 428609, Note_on_c, 4, 63, 0
10, 428640, Note_on_c, 4, 63, 52
10, 428640, Note_on_c, 4, 51, 52
10, 428849, Note_on_c, 4, 63, 0
10, 428849, Note_on_c, 4, 51, 0
10, 428880, Note_on_c, 4, 63, 52
10, 428880, Note_on_c, 4, 51, 52
10, 429089, Note_on_c, 4, 63, 0
10, 429089, Note_on_c, 4, 51, 0
10, 429120, Note_on_c, 4, 63, 52
10, 429120, Note_on_c, 4, 51, 52
10, 429329, Note_on_c, 4, 63, 0
10, 429329, Note_on_c, 4, 51, 0
10, 429360, Note_on_c, 4, 63, 52
10, 429360, Note_on_c, 4, 51, 52
10, 429569, Note_on_c, 4, 63, 0
10, 429569, Note_on_c, 4, 51, 0
10, 429600, Note_on_c, 4, 63, 52
10, 429600, Note_on_c, 4, 51, 52
10, 429809, Note_on_c, 4, 63, 0
10, 429809, Note_on_c, 4, 51, 0
10, 429840, Note_on_c, 4, 63, 52
10, 429840, Note_on_c, 4, 51, 52
10, 430079, Note_on_c, 4, 63, 0
10, 430079, Note_on_c, 4, 51, 0
10, 435600, Note_on_c, 4, 63, 52
10, 435600, Note_on_c, 4, 51, 52
10, 435839, Note_on_c, 4, 63, 0
10, 435839, Note_on_c, 4, 51, 0
10, 436320, Note_on_c, 4, 63, 52
10, 436320, Note_on_c, 4, 51, 52
10, 436559, Note_on_c, 4, 63, 0
10, 436559, Note_on_c, 4, 51, 0
10, 437040, Note_on_c, 4, 65, 52
10, 437279, Note_on_c, 4, 65, 0
10, 437760, Note_on_c, 4, 65, 52
10, 437999, Note_on_c, 4, 65, 0
10, 438480, Note_on_c, 4, 67, 52
10, 438719, Note_on_c, 4, 67, 0
10, 439200, Note_on_c, 4, 67, 60
10, 439439, Note_on_c, 4, 67, 0
10, 439920, Note_on_c, 4, 63, 68
10, 439920, Note_on_c, 4, 51, 68
10, 440159, Note_on_c, 4, 63, 0
10, 440159, Note_on_c, 4, 51, 0
10, 440640, Note_on_c, 4, 58, 76
10, 440640, Note_on_c, 4, 46, 76
10, 440849, Note_on_c, 4, 58, 0
10, 440849, Note_on_c, 4, 46, 0
10, 440880, Note_on_c, 4, 58, 78
10, 440880, Note_on_c, 4, 46, 78
10, 441089, Note_on_c, 4, 58, 0
10, 441089, Note_on_c, 4, 46, 0
10, 441120, Note_on_c, 4, 58, 81
10, 441120, Note_on_c, 4, 46, 81
10, 441329, Note_on_c, 4, 58, 0
10, 441329, Note_on_c, 4, 46, 0
10, 441360, Note_on_c, 4, 58, 84
10, 441360, Note_on_c, 4, 46, 84
10, 441569, Note_on_c, 4, 58, 0
10, 441569, Note_on_c, 4, 46, 0
10, 441600, Note_on_c, 4, 58, 84
10, 441600, Note_on_c, 4, 46, 84
10, 441809, Note_on_c, 4, 58, 0
10, 441809, Note_on_c, 4, 46, 0
10, 441840, Note_on_c, 4, 58, 84
10, 441840, Note_on_c, 4, 46, 84
10, 442049, Note_on_c, 4, 58, 0
10, 442049, Note_on_c, 4, 46, 0
10, 442080, Note_on_c, 4, 58, 84
10, 442080, Note_on_c, 4, 46, 84
10, 442289, Note_on_c, 4, 58, 0
10, 442289, Note_on_c, 4, 46, 0
10, 442320, Note_on_c, 4, 65, 84
10, 442320, Note_on_c, 4, 58, 84
10, 442529, Note_on_c, 4, 65, 0
10, 442529, Note_on_c, 4, 58, 0
10, 442560, Note_on_c, 4, 65, 84
10, 442560, Note_on_c, 4, 58, 84
10, 442769, Note_on_c, 4, 65, 0
10, 442769, Note_on_c, 4, 58, 0
10, 442800, Note_on_c, 4, 65, 84
10, 442800, Note_on_c, 4, 58, 84
10, 443009, Note_on_c, 4, 65, 0
10, 443009, Note_on_c, 4, 58, 0
10, 443040, Note_on_c, 4, 68, 84
10, 443040, Note_on_c, 4, 65, 84
10, 443249, Note_on_c, 4, 68, 0
10, 443249, Note_on_c, 4, 65, 0
10, 443280, Note_on_c, 4, 68, 84
10, 443280, Note_on_c, 4, 65, 84
10, 443489, Note_on_c, 4, 68, 0
10, 443489, Note_on_c, 4, 65, 0
10, 443520, Note_on_c, 4, 68, 84
10, 443520, Note_on_c, 4, 65, 84
10, 443729, Note_on_c, 4, 68, 0
10, 443729, Note_on_c, 4, 65, 0
10, 443760, Note_on_c, 4, 67, 84
10, 443760, Note_on_c, 4, 63, 84
10, 443969, Note_on_c, 4, 67, 0
10, 443969, Note_on_c, 4, 63, 0
10, 444000, Note_on_c, 4, 65, 84
10, 444000, Note_on_c, 4, 58, 84
10, 444209, Note_on_c, 4, 65, 0
10, 444209, Note_on_c, 4, 58, 0
10, 444240, Note_on_c, 4, 63, 76
10, 444240, Note_on_c, 4, 55, 76
10, 444479, Note_on_c, 4, 63, 0
10, 444479, Note_on_c, 4, 55, 0
10, 444960, Note_on_c, 4, 65, 76
10, 444960, Note_on_c, 4, 58, 76
10, 445199, Note_on_c, 4, 65, 0
10, 445199, Note_on_c, 4, 58, 0
10, 451680, Note_on_c, 4, 65, 53
10, 451680, Note_on_c, 4, 58, 53
10, 451889, Note_on_c, 4, 65, 0
10, 451889, Note_on_c, 4, 58, 0
10, 451920, Note_on_c, 4, 67, 54
10, 451920, Note_on_c, 4, 63, 54
10, 452129, Note_on_c, 4, 67, 0
10, 452129, Note_on_c, 4, 63, 0
10, 452160, Note_on_c, 4, 65, 56
10, 452160, Note_on_c, 4, 58, 56
10, 452369, Note_on_c, 4, 65, 0
10, 452369, Note_on_c, 4, 58, 0
10, 452400, Note_on_c, 4, 67, 57
10, 452400, Note_on_c, 4, 63, 57
10, 452609, Note_on_c, 4, 67, 0
10, 452609, Note_on_c, 4, 63, 0
10, 452640, Note_on_c, 4, 65, 58
10, 452640, Note_on_c, 4, 58, 58
10, 452849, Note_on_c, 4, 65, 0
10, 452849, Note_on_c, 4, 58, 0
10, 452880, Note_on_c, 4, 67, 60
10, 452880, Note_on_c, 4, 63, 60
10, 453089, Note_on_c, 4, 67, 0
10, 453089, Note_on_c, 4, 63, 0
10, 453120, Note_on_c, 4, 65, 61
10, 453120, Note_on_c, 4, 58, 61
10, 453329, Note_on_c, 4, 65, 0
10, 453329, Note_on_c, 4, 58, 0
10, 453360, Note_on_c, 4, 67, 62
10, 453360, Note_on_c, 4, 63, 62
10, 453569, Note_on_c, 4, 67, 0
10, 453569, Note_on_c, 4, 63, 0
10, 453600, Note_on_c, 4, 65, 64
10, 453600, Note_on_c, 4, 58, 64
10, 453809, Note_on_c, 4, 65, 0
10, 453809, Note_on_c, 4, 58, 0
10, 453840, Note_on_c, 4, 67, 65
10, 453840, Note_on_c, 4, 63, 65
10, 454049, Note_on_c, 4, 67, 0
10, 454049, Note_on_c, 4, 63, 0
10, 454080, Note_on_c, 4, 65, 66
10, 454080, Note_on_c, 4, 58, 66
10, 454289, Note_on_c, 4, 65, 0
10, 454289, Note_on_c, 4, 58, 0
10, 454320, Note_on_c, 4, 67, 68
10, 454320, Note_on_c, 4, 63, 68
10, 454529, Note_on_c, 4, 67, 0
10, 454529, Note_on_c, 4, 63, 0
10, 454560, Note_on_c, 4, 65, 69
10, 454560, Note_on_c, 4, 58, 69
10, 454769, Note_on_c, 4, 65, 0
10, 454769, Note_on_c, 4, 58, 0
10, 454800, Note_on_c, 4, 67, 70
10, 454800, Note_on_c, 4, 63, 70
10, 455009, Note_on_c, 4, 67, 0
10, 455009, Note_on_c, 4, 63, 0
10, 455040, Note_on_c, 4, 65, 72
10, 455040, Note_on_c, 4, 58, 72
10, 455249, Note_on_c, 4, 65, 0
10, 455249, Note_on_c, 4, 58, 0
10, 455280, Note_on_c, 4, 67, 73
10, 455280, Note_on_c, 4, 63, 73
10, 455489, Note_on_c, 4, 67, 0
10, 455489, Note_on_c, 4, 63, 0
10, 455520, Note_on_c, 4, 65, 74
10, 455520, Note_on_c, 4, 58, 74
10, 455729, Note_on_c, 4, 65, 0
10, 455729, Note_on_c, 4, 58, 0
10, 455760, Note_on_c, 4, 67, 76
10, 455760, Note_on_c, 4, 63, 76
10, 455969, Note_on_c, 4, 67, 0
10, 455969, Note_on_c, 4, 63, 0
10, 456000, Note_on_c, 4, 65, 76
10, 456000, Note_on_c, 4, 58, 76
10, 456209, Note_on_c, 4, 65, 0
10, 456209, Note_on_c, 4, 58, 0
10, 456240, Note_on_c, 4, 67, 76
10, 456240, Note_on_c, 4, 63, 76
10, 456449, Note_on_c, 4, 67, 0
10, 456449, Note_on_c, 4, 63, 0
10, 456480, Note_on_c, 4, 65, 76
10, 456480, Note_on_c, 4, 58, 76
10, 456689, Note_on_c, 4, 65, 0
10, 456689, Note_on_c, 4, 58, 0
10, 456720, Note_on_c, 4, 67, 76
10, 456720, Note_on_c, 4, 63, 76
10, 456929, Note_on_c, 4, 67, 0
10, 456929, Note_on_c, 4, 63, 0
10, 456960, Note_on_c, 4, 65, 76
10, 456960, Note_on_c, 4, 58, 76
10, 457169, Note_on_c, 4, 65, 0
10, 457169, Note_on_c, 4, 58, 0
10, 457200, Note_on_c, 4, 67, 84
10, 457200, Note_on_c, 4, 63, 84
10, 457439, Note_on_c, 4, 67, 0
10, 457439, Note_on_c, 4, 63, 0
10, 457920, Note_on_c, 4, 65, 84
10, 457920, Note_on_c, 4, 58, 84
10, 458159, Note_on_c, 4, 65, 0
10, 458159, Note_on_c, 4, 58, 0
10, 458640, Note_on_c, 4, 63, 84
10, 458640, Note_on_c, 4, 51, 84
10, 458879, Note_on_c, 4, 63, 0
10, 458879, Note_on_c, 4, 51, 0
10, 458879, End_track
11, 0, Start_track
11, 0, Title_t, "French Horn III in E-flat"
11, 0, MIDI_port, 0
11, 0, Program_c, 5, 60
11, 0, Control_c, 5, 7, 96
11, 0, Control_c, 5, 10, 50
11, 0, Control_c, 5, 11, 127
11, 66480, Note_on_c, 5, 63, 84
11, 66689, Note_on_c, 5, 63, 0
11, 66720, Note_on_c, 5, 63, 84
11, 66929, Note_on_c, 5, 63, 0
11, 66960, Note_on_c, 5, 63, 84
11, 67169, Note_on_c, 5, 63, 0
11, 67200, Note_on_c, 5, 63, 84
11, 67409, Note_on_c, 5, 63, 0
11, 67440, Note_on_c, 5, 63, 84
11, 67649, Note_on_c, 5, 63, 0
11, 67680, Note_on_c, 5, 63, 84
11, 67889, Note_on_c, 5, 63, 0
11, 67920, Note_on_c, 5, 63, 84
11, 68849, Note_on_c, 5, 63, 0
11, 68880, Note_on_c, 5, 63, 84
11, 69089, Note_on_c, 5, 63, 0
11, 69120, Note_on_c, 5, 63, 84
11, 69329, Note_on_c, 5, 63, 0
11, 69360, Note_on_c, 5, 58, 84
11, 70049, Note_on_c, 5, 58, 0
11, 70080, Note_on_c, 5, 58, 84
11, 70769, Note_on_c, 5, 58, 0
11, 70800, Note_on_c, 5, 58, 84
11, 71489, Note_on_c, 5, 58, 0
11, 71520, Note_on_c, 5, 58, 84
11, 72209, Note_on_c, 5, 58, 0
11, 72240, Note_on_c, 5, 58, 84
11, 72929, Note_on_c, 5, 58, 0
11, 72960, Note_on_c, 5, 58, 84
11, 73649, Note_on_c, 5, 58, 0
11, 73680, Note_on_c, 5, 58, 84
11, 74369, Note_on_c, 5, 58, 0
11, 74400, Note_on_c, 5, 58, 84
11, 74609, Note_on_c, 5, 58, 0
11, 74640, Note_on_c, 5, 63, 84
11, 74849, Note_on_c, 5, 63, 0
11, 74880, Note_on_c, 5, 63, 84
11, 75089, Note_on_c, 5, 63, 0
11, 75120, Note_on_c, 5, 63, 84
11, 75809, Note_on_c, 5, 63, 0
11, 75840, Note_on_c, 5, 63, 84
11, 76529, Note_on_c, 5, 63, 0
11, 76560, Note_on_c, 5, 63, 84
11, 77249, Note_on_c, 5, 63, 0
11, 77280, Note_on_c, 5, 63, 84
11, 77969, Note_on_c, 5, 63, 0
11, 78000, Note_on_c, 5, 63, 84
11, 78689, Note_on_c, 5, 63, 0
11, 78720, Note_on_c, 5, 63, 84
11, 78929, Note_on_c, 5, 63, 0
11, 78960, Note_on_c, 5, 63, 84
11, 79169, Note_on_c, 5, 63, 0
11, 79200, Note_on_c, 5, 63, 84
11, 79409, Note_on_c, 5, 63, 0
11, 79440, Note_on_c, 5, 63, 84
11, 79649, Note_on_c, 5, 63, 0
11, 79680, Note_on_c, 5, 63, 84
11, 79889, Note_on_c, 5, 63, 0
11, 79920, Note_on_c, 5, 63, 84
11, 80129, Note_on_c, 5, 63, 0
11, 80160, Note_on_c, 5, 65, 84
11, 80369, Note_on_c, 5, 65, 0
11, 80400, Note_on_c, 5, 65, 84
11, 80609, Note_on_c, 5, 65, 0
11, 80640, Note_on_c, 5, 65, 84
11, 80849, Note_on_c, 5, 65, 0
11, 80880, Note_on_c, 5, 67, 84
11, 81089, Note_on_c, 5, 67, 0
11, 81120, Note_on_c, 5, 67, 84
11, 81329, Note_on_c, 5, 67, 0
11, 81360, Note_on_c, 5, 67, 84
11, 81569, Note_on_c, 5, 67, 0
11, 81600, Note_on_c, 5, 68, 84
11, 81809, Note_on_c, 5, 68, 0
11, 81840, Note_on_c, 5, 68, 84
11, 82049, Note_on_c, 5, 68, 0
11, 82080, Note_on_c, 5, 68, 84
11, 82289, Note_on_c, 5, 68, 0
11, 82320, Note_on_c, 5, 67, 84
11, 82559, Note_on_c, 5, 67, 0
11, 114000, Note_on_c, 5, 58, 84
11, 114209, Note_on_c, 5, 58, 0
11, 114240, Note_on_c, 5, 58, 84
11, 114449, Note_on_c, 5, 58, 0
11, 114480, Note_on_c, 5, 58, 84
11, 114689, Note_on_c, 5, 58, 0
11, 114720, Note_on_c, 5, 58, 84
11, 114929, Note_on_c, 5, 58, 0
11, 114960, Note_on_c, 5, 58, 84
11, 115169, Note_on_c, 5, 58, 0
11, 115200, Note_on_c, 5, 58, 84
11, 115409, Note_on_c, 5, 58, 0
11, 115440, Note_on_c, 5, 58, 84
11, 115649, Note_on_c, 5, 58, 0
11, 115680, Note_on_c, 5, 58, 84
11, 115889, Note_on_c, 5, 58, 0
11, 115920, Note_on_c, 5, 58, 84
11, 116129, Note_on_c, 5, 58, 0
11, 116160, Note_on_c, 5, 58, 84
11, 116369, Note_on_c, 5, 58, 0
11, 116400, Note_on_c, 5, 58, 84
11, 116609, Note_on_c, 5, 58, 0
11, 116640, Note_on_c, 5, 58, 84
11, 116849, Note_on_c, 5, 58, 0
11, 116880, Note_on_c, 5, 63, 76
11, 117119, Note_on_c, 5, 63, 0
11, 117600, Note_on_c, 5, 58, 76
11, 117839, Note_on_c, 5, 58, 0
11, 118320, Note_on_c, 5, 68, 76
11, 118559, Note_on_c, 5, 68, 0
11, 164400, Note_on_c, 5, 63, 84
11, 164609, Note_on_c, 5, 63, 0
11, 164640, Note_on_c, 5, 63, 84
11, 164849, Note_on_c, 5, 63, 0
11, 164880, Note_on_c, 5, 63, 84
11, 165089, Note_on_c, 5, 63, 0
11, 165120, Note_on_c, 5, 63, 84
11, 165329, Note_on_c, 5, 63, 0
11, 165360, Note_on_c, 5, 63, 84
11, 165569, Note_on_c, 5, 63, 0
11, 165600, Note_on_c, 5, 63, 84
11, 165809, Note_on_c, 5, 63, 0
11, 165840, Note_on_c, 5, 63, 84
11, 166769, Note_on_c, 5, 63, 0
11, 166800, Note_on_c, 5, 63, 84
11, 167009, Note_on_c, 5, 63, 0
11, 167040, Note_on_c, 5, 63, 84
11, 167249, Note_on_c, 5, 63, 0
11, 167280, Note_on_c, 5, 58, 84
11, 167969, Note_on_c, 5, 58, 0
11, 168000, Note_on_c, 5, 58, 84
11, 168689, Note_on_c, 5, 58, 0
11, 168720, Note_on_c, 5, 58, 84
11, 169409, Note_on_c, 5, 58, 0
11, 169440, Note_on_c, 5, 58, 84
11, 170129, Note_on_c, 5, 58, 0
11, 170160, Note_on_c, 5, 58, 84
11, 170849, Note_on_c, 5, 58, 0
11, 170880, Note_on_c, 5, 58, 84
11, 171569, Note_on_c, 5, 58, 0
11, 171600, Note_on_c, 5, 58, 84
11, 172289, Note_on_c, 5, 58, 0
11, 172320, Note_on_c, 5, 58, 84
11, 172529, Note_on_c, 5, 58, 0
11, 172560, Note_on_c, 5, 63, 84
11, 172769, Note_on_c, 5, 63, 0
11, 172800, Note_on_c, 5, 63, 84
11, 173009, Note_on_c, 5, 63, 0
11, 173040, Note_on_c, 5, 63, 84
11, 173729, Note_on_c, 5, 63, 0
11, 173760, Note_on_c, 5, 63, 84
11, 174449, Note_on_c, 5, 63, 0
11, 174480, Note_on_c, 5, 63, 84
11, 175169, Note_on_c, 5, 63, 0
11, 175200, Note_on_c, 5, 63, 84
11, 175889, Note_on_c, 5, 63, 0
11, 175920, Note_on_c, 5, 63, 84
11, 176609, Note_on_c, 5, 63, 0
11, 176640, Note_on_c, 5, 63, 84
11, 176849, Note_on_c, 5, 63, 0
11, 176880, Note_on_c, 5, 63, 84
11, 177089, Note_on_c, 5, 63, 0
11, 177120, Note_on_c, 5, 63, 84
11, 177329, Note_on_c, 5, 63, 0
11, 177360, Note_on_c, 5, 63, 84
11, 177569, Note_on_c, 5, 63, 0
11, 177600, Note_on_c, 5, 63, 84
11, 177809, Note_on_c, 5, 63, 0
11, 177840, Note_on_c, 5, 63, 84
11, 178049, Note_on_c, 5, 63, 0
11, 178080, Note_on_c, 5, 65, 84
11, 178289, Note_on_c, 5, 65, 0
11, 178320, Note_on_c, 5, 65, 84
11, 178529, Note_on_c, 5, 65, 0
11, 178560, Note_on_c, 5, 65, 84
11, 178769, Note_on_c, 5, 65, 0
11, 178800, Note_on_c, 5, 67, 84
11, 179009, Note_on_c, 5, 67, 0
11, 179040, Note_on_c, 5, 67, 84
11, 179249, Note_on_c, 5, 67, 0
11, 179280, Note_on_c, 5, 67, 84
11, 179489, Note_on_c, 5, 67, 0
11, 179520, Note_on_c, 5, 68, 84
11, 179729, Note_on_c, 5, 68, 0
11, 179760, Note_on_c, 5, 68, 84
11, 179969, Note_on_c, 5, 68, 0
11, 180000, Note_on_c, 5, 68, 84
11, 180209, Note_on_c, 5, 68, 0
11, 180240, Note_on_c, 5, 67, 84
11, 180479, Note_on_c, 5, 67, 0
11, 211920, Note_on_c, 5, 58, 84
11, 212129, Note_on_c, 5, 58, 0
11, 212160, Note_on_c, 5, 58, 84
11, 212369, Note_on_c, 5, 58, 0
11, 212400, Note_on_c, 5, 58, 84
11, 212609, Note_on_c, 5, 58, 0
11, 212640, Note_on_c, 5, 58, 84
11, 212849, Note_on_c, 5, 58, 0
11, 212880, Note_on_c, 5, 58, 84
11, 213089, Note_on_c, 5, 58, 0
11, 213120, Note_on_c, 5, 58, 84
11, 213329, Note_on_c, 5, 58, 0
11, 213360, Note_on_c, 5, 58, 84
11, 213569, Note_on_c, 5, 58, 0
11, 213600, Note_on_c, 5, 58, 84
11, 213809, Note_on_c, 5, 58, 0
11, 213840, Note_on_c, 5, 58, 84
11, 214049, Note_on_c, 5, 58, 0
11, 214080, Note_on_c, 5, 58, 84
11, 214289, Note_on_c, 5, 58, 0
11, 214320, Note_on_c, 5, 58, 84
11, 214529, Note_on_c, 5, 58, 0
11, 214560, Note_on_c, 5, 58, 84
11, 214769, Note_on_c, 5, 58, 0
11, 214800, Note_on_c, 5, 63, 76
11, 215039, Note_on_c, 5, 63, 0
11, 215520, Note_on_c, 5, 58, 76
11, 215759, Note_on_c, 5, 58, 0
11, 216240, Note_on_c, 5, 63, 76
11, 216479, Note_on_c, 5, 63, 0
11, 217440, Note_on_c, 5, 55, 60
11, 217649, Note_on_c, 5, 55, 0
11, 217680, Note_on_c, 5, 55, 76
11, 218849, Note_on_c, 5, 55, 0
11, 218880, Note_on_c, 5, 58, 60
11, 219089, Note_on_c, 5, 58, 0
11, 219120, Note_on_c, 5, 58, 60
11, 219569, Note_on_c, 5, 58, 0
11, 219600, Note_on_c, 5, 63, 60
11, 219809, Note_on_c, 5, 63, 0
11, 219840, Note_on_c, 5, 63, 60
11, 220289, Note_on_c, 5, 63, 0
11, 220320, Note_on_c, 5, 67, 60
11, 220529, Note_on_c, 5, 67, 0
11, 220560, Note_on_c, 5, 67, 60
11, 221009, Note_on_c, 5, 67, 0
11, 221040, Note_on_c, 5, 63, 60
11, 221249, Note_on_c, 5, 63, 0
11, 221280, Note_on_c, 5, 58, 60
11, 221729, Note_on_c, 5, 58, 0
11, 221760, Note_on_c, 5, 63, 60
11, 221969, Note_on_c, 5, 63, 0
11, 222000, Note_on_c, 5, 62, 60
11, 222239, Note_on_c, 5, 62, 0
11, 223760, Control_c, 5, 11, 102
11, 223920, Note_on_c, 5, 58, 76
11, 223920, Control_c, 5, 11, 104
11, 224039, Note_on_c, 5, 58, 0
11, 224080, Control_c, 5, 11, 105
11, 224160, Note_on_c, 5, 58, 76
11, 224240, Control_c, 5, 11, 106
11, 224399, Note_on_c, 5, 58, 0
11, 224400, Control_c, 5, 11, 108
11, 224400, Note_on_c, 5, 55, 76
11, 224560, Control_c, 5, 11, 109
11, 224609, Note_on_c, 5, 55, 0
11, 224640, Note_on_c, 5, 63, 76
11, 224720, Control_c, 5, 11, 110
11, 224759, Note_on_c, 5, 63, 0
11, 224880, Control_c, 5, 11, 112
11, 224880, Note_on_c, 5, 63, 76
11, 225040, Control_c, 5, 11, 113
11, 225119, Note_on_c, 5, 63, 0
11, 225120, Note_on_c, 5, 58, 76
11, 225200, Control_c, 5, 11, 114
11, 225329, Note_on_c, 5, 58, 0
11, 225360, Note_on_c, 5, 67, 76
11, 225360, Control_c, 5, 11, 115
11, 225479, Note_on_c, 5, 67, 0
11, 225520, Control_c, 5, 11, 117
11, 225600, Note_on_c, 5, 67, 76
11, 225680, Control_c, 5, 11, 118
11, 225839, Note_on_c, 5, 67, 0
11, 225840, Control_c, 5, 11, 119
11, 225840, Note_on_c, 5, 63, 76
11, 226000, Control_c, 5, 11, 121
11, 226049, Note_on_c, 5, 63, 0
11, 226080, Note_on_c, 5, 70, 76
11, 226160, Control_c, 5, 11, 122
11, 226199, Note_on_c, 5, 70, 0
11, 226320, Control_c, 5, 11, 123
11, 226320, Note_on_c, 5, 67, 76
11, 226439, Note_on_c, 5, 67, 0
11, 226480, Control_c, 5, 11, 124
11, 226640, Control_c, 5, 11, 127
11, 226800, Note_on_c, 5, 67, 76
11, 227009, Note_on_c, 5, 67, 0
11, 227040, Note_on_c, 5, 68, 76
11, 227279, Note_on_c, 5, 68, 0
11, 227520, Note_on_c, 5, 65, 76
11, 227729, Note_on_c, 5, 65, 0
11, 227760, Note_on_c, 5, 63, 76
11, 227999, Note_on_c, 5, 63, 0
11, 228960, Note_on_c, 5, 55, 60
11, 229169, Note_on_c, 5, 55, 0
11, 229200, Note_on_c, 5, 55, 76
11, 230369, Note_on_c, 5, 55, 0
11, 230400, Note_on_c, 5, 58, 60
11, 230609, Note_on_c, 5, 58, 0
11, 230640, Note_on_c, 5, 58, 60
11, 231089, Note_on_c, 5, 58, 0
11, 231120, Note_on_c, 5, 63, 60
11, 231329, Note_on_c, 5, 63, 0
11, 231360, Note_on_c, 5, 63, 60
11, 231809, Note_on_c, 5, 63, 0
11, 231840, Note_on_c, 5, 67, 60
11, 232049, Note_on_c, 5, 67, 0
11, 232080, Note_on_c, 5, 67, 60
11, 232529, Note_on_c, 5, 67, 0
11, 232560, Note_on_c, 5, 63, 60
11, 232769, Note_on_c, 5, 63, 0
11, 232800, Note_on_c, 5, 58, 60
11, 233249, Note_on_c, 5, 58, 0
11, 233280, Note_on_c, 5, 63, 60
11, 233489, Note_on_c, 5, 63, 0
11, 233520, Note_on_c, 5, 62, 60
11, 233759, Note_on_c, 5, 62, 0
11, 235280, Control_c, 5, 11, 102
11, 235440, Control_c, 5, 11, 104
11, 235440, Note_on_c, 5, 58, 76
11, 235559, Note_on_c, 5, 58, 0
11, 235600, Control_c, 5, 11, 105
11, 235680, Note_on_c, 5, 58, 76
11, 235760, Control_c, 5, 11, 106
11, 235919, Note_on_c, 5, 58, 0
11, 235920, Note_on_c, 5, 55, 76
11, 235920, Control_c, 5, 11, 108
11, 236080, Control_c, 5, 11, 109
11, 236129, Note_on_c, 5, 55, 0
11, 236160, Note_on_c, 5, 63, 76
11, 236240, Control_c, 5, 11, 110
11, 236279, Note_on_c, 5, 63, 0
11, 236400, Control_c, 5, 11, 112
11, 236400, Note_on_c, 5, 63, 76
11, 236560, Control_c, 5, 11, 113
11, 236639, Note_on_c, 5, 63, 0
11, 236640, Note_on_c, 5, 58, 76
11, 236720, Control_c, 5, 11, 114
11, 236849, Note_on_c, 5, 58, 0
11, 236880, Control_c, 5, 11, 115
11, 236880, Note_on_c, 5, 67, 76
11, 236999, Note_on_c, 5, 67, 0
11, 237040, Control_c, 5, 11, 117
11, 237120, Note_on_c, 5, 67, 76
11, 237200, Control_c, 5, 11, 118
11, 237359, Note_on_c, 5, 67, 0
11, 237360, Control_c, 5, 11, 119
11, 237360, Note_on_c, 5, 63, 76
11, 237520, Control_c, 5, 11, 121
11, 237569, Note_on_c, 5, 63, 0
11, 237600, Note_on_c, 5, 70, 76
11, 237680, Control_c, 5, 11, 122
11, 237719, Note_on_c, 5, 70, 0
11, 237840, Control_c, 5, 11, 123
11, 237840, Note_on_c, 5, 67, 76
11, 237959, Note_on_c, 5, 67, 0
11, 238000, Control_c, 5, 11, 124
11, 238160, Control_c, 5, 11, 127
11, 238320, Note_on_c, 5, 67, 76
11, 238529, Note_on_c, 5, 67, 0
11, 238560, Note_on_c, 5, 68, 76
11, 238799, Note_on_c, 5, 68, 0
11, 239040, Note_on_c, 5, 65, 76
11, 239249, Note_on_c, 5, 65, 0
11, 239280, Note_on_c, 5, 63, 76
11, 239519, Note_on_c, 5, 63, 0
11, 239760, Note_on_c, 5, 63, 76
11, 239969, Note_on_c, 5, 63, 0
11, 240000, Note_on_c, 5, 63, 76
11, 240449, Note_on_c, 5, 63, 0
11, 240480, Note_on_c, 5, 63, 76
11, 240689, Note_on_c, 5, 63, 0
11, 240720, Note_on_c, 5, 63, 76
11, 241169, Note_on_c, 5, 63, 0
11, 241200, Note_on_c, 5, 63, 76
11, 241409, Note_on_c, 5, 63, 0
11, 241440, Note_on_c, 5, 63, 76
11, 241889, Note_on_c, 5, 63, 0
11, 241920, Note_on_c, 5, 63, 76
11, 242129, Note_on_c, 5, 63, 0
11, 242160, Note_on_c, 5, 63, 76
11, 242399, Note_on_c, 5, 63, 0
11, 259200, Note_on_c, 5, 55, 60
11, 259409, Note_on_c, 5, 55, 0
11, 259440, Note_on_c, 5, 55, 76
11, 260609, Note_on_c, 5, 55, 0
11, 260640, Note_on_c, 5, 58, 60
11, 260849, Note_on_c, 5, 58, 0
11, 260880, Note_on_c, 5, 58, 60
11, 261329, Note_on_c, 5, 58, 0
11, 261360, Note_on_c, 5, 63, 60
11, 261569, Note_on_c, 5, 63, 0
11, 261600, Note_on_c, 5, 63, 60
11, 262049, Note_on_c, 5, 63, 0
11, 262080, Note_on_c, 5, 67, 60
11, 262289, Note_on_c, 5, 67, 0
11, 262320, Note_on_c, 5, 67, 60
11, 262769, Note_on_c, 5, 67, 0
11, 262800, Note_on_c, 5, 63, 60
11, 263009, Note_on_c, 5, 63, 0
11, 263040, Note_on_c, 5, 58, 60
11, 263489, Note_on_c, 5, 58, 0
11, 263520, Note_on_c, 5, 63, 60
11, 263729, Note_on_c, 5, 63, 0
11, 263760, Note_on_c, 5, 62, 60
11, 263999, Note_on_c, 5, 62, 0
11, 265600, Control_c, 5, 11, 106
11, 265680, Note_on_c, 5, 58, 76
11, 265799, Note_on_c, 5, 58, 0
11, 265820, Control_c, 5, 11, 109
11, 265920, Note_on_c, 5, 58, 76
11, 266040, Control_c, 5, 11, 112
11, 266159, Note_on_c, 5, 58, 0
11, 266160, Note_on_c, 5, 55, 76
11, 266260, Control_c, 5, 11, 114
11, 266369, Note_on_c, 5, 55, 0
11, 266400, Note_on_c, 5, 63, 76
11, 266480, Control_c, 5, 11, 117
11, 266519, Note_on_c, 5, 63, 0
11, 266640, Note_on_c, 5, 63, 76
11, 266700, Control_c, 5, 11, 119
11, 266879, Note_on_c, 5, 63, 0
11, 266880, Note_on_c, 5, 58, 76
11, 266920, Control_c, 5, 11, 122
11, 267089, Note_on_c, 5, 58, 0
11, 267120, Note_on_c, 5, 63, 76
11, 267140, Control_c, 5, 11, 127
11, 267239, Note_on_c, 5, 63, 0
11, 267360, Note_on_c, 5, 63, 84
11, 267480, Control_c, 5, 11, 112
11, 267590, Control_c, 5, 11, 109
11, 267700, Control_c, 5, 11, 107
11, 267810, Control_c, 5, 11, 104
11, 267920, Control_c, 5, 11, 101
11, 268030, Control_c, 5, 11, 99
11, 268140, Control_c, 5, 11, 96
11, 268250, Control_c, 5, 11, 93
11, 268360, Control_c, 5, 11, 91
11, 268470, Control_c, 5, 11, 88
11, 268580, Control_c, 5, 11, 85
11, 268690, Control_c, 5, 11, 80
11, 268769, Note_on_c, 5, 63, 0
11, 268800, Note_on_c, 5, 63, 84
11, 269249, Note_on_c, 5, 63, 0
11, 269280, Note_on_c, 5, 63, 84
11, 269489, Note_on_c, 5, 63, 0
11, 269520, Note_on_c, 5, 63, 84
11, 269759, Note_on_c, 5, 63, 0
11, 272160, Note_on_c, 5, 63, 60
11, 272369, Note_on_c, 5, 63, 0
11, 272400, Note_on_c, 5, 63, 76
11, 272400, Control_c, 5, 11, 127
11, 273240, Control_c, 5, 11, 112
11, 273350, Control_c, 5, 11, 109
11, 273460, Control_c, 5, 11, 107
11, 273570, Control_c, 5, 11, 104
11, 273680, Control_c, 5, 11, 101
11, 273790, Control_c, 5, 11, 99
11, 273809, Note_on_c, 5, 63, 0
11, 273840, Note_on_c, 5, 63, 76
11, 273900, Control_c, 5, 11, 96
11, 274010, Control_c, 5, 11, 93
11, 274120, Control_c, 5, 11, 91
11, 274230, Control_c, 5, 11, 88
11, 274289, Note_on_c, 5, 63, 0
11, 274320, Note_on_c, 5, 63, 76
11, 274340, Control_c, 5, 11, 85
11, 274450, Control_c, 5, 11, 80
11, 274529, Note_on_c, 5, 63, 0
11, 274560, Note_on_c, 5, 63, 76
11, 274799, Note_on_c, 5, 63, 0
11, 278160, Control_c, 5, 11, 127
11, 278640, Note_on_c, 5, 63, 60
11, 278879, Note_on_c, 5, 63, 0
11, 278880, Note_on_c, 5, 63, 76
11, 279600, Control_c, 5, 11, 112
11, 279720, Control_c, 5, 11, 108
11, 279840, Control_c, 5, 11, 104
11, 279960, Control_c, 5, 11, 100
11, 280080, Control_c, 5, 11, 96
11, 280200, Control_c, 5, 11, 92
11, 280320, Control_c, 5, 11, 88
11, 280440, Control_c, 5, 11, 84
11, 280560, Control_c, 5, 11, 80
11, 280680, Control_c, 5, 11, 76
11, 280800, Control_c, 5, 11, 72
11, 280920, Control_c, 5, 11, 64
11, 281639, Note_on_c, 5, 63, 0
11, 281760, Note_on_c, 5, 62, 76
11, 283889, Note_on_c, 5, 62, 0
11, 283920, Note_on_c, 5, 63, 76
11, 284159, Note_on_c, 5, 63, 0
11, 284340, Control_c, 5, 11, 127
11, 284400, Note_on_c, 5, 63, 76
11, 284609, Note_on_c, 5, 63, 0
11, 284640, Note_on_c, 5, 63, 76
11, 285089, Note_on_c, 5, 63, 0
11, 285120, Note_on_c, 5, 63, 76
11, 285329, Note_on_c, 5, 63, 0
11, 285360, Note_on_c, 5, 63, 76
11, 285809, Note_on_c, 5, 63, 0
11, 285840, Note_on_c, 5, 63, 76
11, 286049, Note_on_c, 5, 63, 0
11, 286080, Note_on_c, 5, 63, 76
11, 286529, Note_on_c, 5, 63, 0
11, 286560, Note_on_c, 5, 63, 76
11, 286769, Note_on_c, 5, 63, 0
11, 286800, Note_on_c, 5, 63, 76
11, 287039, Note_on_c, 5, 63, 0
11, 303840, Note_on_c, 5, 55, 60
11, 304049, Note_on_c, 5, 55, 0
11, 304080, Note_on_c, 5, 55, 76
11, 305249, Note_on_c, 5, 55, 0
11, 305280, Note_on_c, 5, 58, 60
11, 305489, Note_on_c, 5, 58, 0
11, 305520, Note_on_c, 5, 58, 60
11, 305969, Note_on_c, 5, 58, 0
11, 306000, Note_on_c, 5, 63, 60
11, 306209, Note_on_c, 5, 63, 0
11, 306240, Note_on_c, 5, 63, 60
11, 306689, Note_on_c, 5, 63, 0
11, 306720, Note_on_c, 5, 67, 60
11, 306929, Note_on_c, 5, 67, 0
11, 306960, Note_on_c, 5, 67, 60
11, 307409, Note_on_c, 5, 67, 0
11, 307440, Note_on_c, 5, 63, 60
11, 307649, Note_on_c, 5, 63, 0
11, 307680, Note_on_c, 5, 58, 60
11, 308129, Note_on_c, 5, 58, 0
11, 308160, Note_on_c, 5, 63, 60
11, 308369, Note_on_c, 5, 63, 0
11, 308400, Note_on_c, 5, 62, 60
11, 308639, Note_on_c, 5, 62, 0
11, 310240, Control_c, 5, 11, 106
11, 310320, Note_on_c, 5, 58, 76
11, 310439, Note_on_c, 5, 58, 0
11, 310460, Control_c, 5, 11, 109
11, 310560, Note_on_c, 5, 58, 76
11, 310680, Control_c, 5, 11, 112
11, 310799, Note_on_c, 5, 58, 0
11, 310800, Note_on_c, 5, 55, 76
11, 310900, Control_c, 5, 11, 114
11, 311009, Note_on_c, 5, 55, 0
11, 311040, Note_on_c, 5, 63, 76
11, 311120, Control_c, 5, 11, 117
11, 311159, Note_on_c, 5, 63, 0
11, 311280, Note_on_c, 5, 63, 76
11, 311340, Control_c, 5, 11, 119
11, 311519, Note_on_c, 5, 63, 0
11, 311520, Note_on_c, 5, 58, 76
11, 311560, Control_c, 5, 11, 122
11, 311729, Note_on_c, 5, 58, 0
11, 311760, Note_on_c, 5, 63, 76
11, 311780, Control_c, 5, 11, 127
11, 311879, Note_on_c, 5, 63, 0
11, 312000, Note_on_c, 5, 63, 84
11, 312120, Control_c, 5, 11, 112
11, 312230, Control_c, 5, 11, 109
11, 312340, Control_c, 5, 11, 107
11, 312450, Control_c, 5, 11, 104
11, 312560, Control_c, 5, 11, 101
11, 312670, Control_c, 5, 11, 99
11, 312780, Control_c, 5, 11, 96
11, 312890, Control_c, 5, 11, 93
11, 313000, Control_c, 5, 11, 91
11, 313110, Control_c, 5, 11, 88
11, 313220, Control_c, 5, 11, 85
11, 313330, Control_c, 5, 11, 80
11, 313409, Note_on_c, 5, 63, 0
11, 313440, Note_on_c, 5, 63, 84
11, 313889, Note_on_c, 5, 63, 0
11, 313920, Note_on_c, 5, 63, 84
11, 314129, Note_on_c, 5, 63, 0
11, 314160, Note_on_c, 5, 63, 84
11, 314399, Note_on_c, 5, 63, 0
11, 316800, Note_on_c, 5, 63, 60
11, 317009, Note_on_c, 5, 63, 0
11, 317040, Control_c, 5, 11, 127
11, 317040, Note_on_c, 5, 63, 76
11, 317880, Control_c, 5, 11, 112
11, 317990, Control_c, 5, 11, 109
11, 318100, Control_c, 5, 11, 107
11, 318210, Control_c, 5, 11, 104
11, 318320, Control_c, 5, 11, 101
11, 318430, Control_c, 5, 11, 99
11, 318449, Note_on_c, 5, 63, 0
11, 318480, Note_on_c, 5, 63, 76
11, 318540, Control_c, 5, 11, 96
11, 318650, Control_c, 5, 11, 93
11, 318760, Control_c, 5, 11, 91
11, 318870, Control_c, 5, 11, 88
11, 318929, Note_on_c, 5, 63, 0
11, 318960, Note_on_c, 5, 63, 76
11, 318980, Control_c, 5, 11, 85
11, 319090, Control_c, 5, 11, 80
11, 319169, Note_on_c, 5, 63, 0
11, 319200, Note_on_c, 5, 63, 76
11, 319439, Note_on_c, 5, 63, 0
11, 322800, Control_c, 5, 11, 127
11, 323280, Note_on_c, 5, 63, 60
11, 323519, Note_on_c, 5, 63, 0
11, 323520, Note_on_c, 5, 63, 76
11, 324240, Control_c, 5, 11, 112
11, 324360, Control_c, 5, 11, 108
11, 324480, Control_c, 5, 11, 104
11, 324600, Control_c, 5, 11, 100
11, 324720, Control_c, 5, 11, 96
11, 324840, Control_c, 5, 11, 92
11, 324960, Control_c, 5, 11, 88
11, 325080, Control_c, 5, 11, 84
11, 325200, Control_c, 5, 11, 80
11, 325320, Control_c, 5, 11, 76
11, 325440, Control_c, 5, 11, 72
11, 325560, Control_c, 5, 11, 64
11, 325919, Note_on_c, 5, 63, 0
11, 394080, Control_c, 5, 11, 127
11, 394800, Note_on_c, 5, 63, 84
11, 395009, Note_on_c, 5, 63, 0
11, 395040, Note_on_c, 5, 63, 84
11, 395249, Note_on_c, 5, 63, 0
11, 395280, Note_on_c, 5, 63, 84
11, 395489, Note_on_c, 5, 63, 0
11, 395520, Note_on_c, 5, 63, 84
11, 395729, Note_on_c, 5, 63, 0
11, 395760, Note_on_c, 5, 63, 84
11, 395969, Note_on_c, 5, 63, 0
11, 396000, Note_on_c, 5, 63, 84
11, 396209, Note_on_c, 5, 63, 0
11, 396240, Note_on_c, 5, 63, 84
11, 397169, Note_on_c, 5, 63, 0
11, 397200, Note_on_c, 5, 63, 84
11, 397409, Note_on_c, 5, 63, 0
11, 397440, Note_on_c, 5, 63, 84
11, 397649, Note_on_c, 5, 63, 0
11, 397680, Note_on_c, 5, 58, 84
11, 398369, Note_on_c, 5, 58, 0
11, 398400, Note_on_c, 5, 58, 84
11, 399089, Note_on_c, 5, 58, 0
11, 399120, Note_on_c, 5, 58, 84
11, 399809, Note_on_c, 5, 58, 0
11, 399840, Note_on_c, 5, 58, 84
11, 400529, Note_on_c, 5, 58, 0
11, 400560, Note_on_c, 5, 58, 84
11, 401249, Note_on_c, 5, 58, 0
11, 401280, Note_on_c, 5, 58, 84
11, 401969, Note_on_c, 5, 58, 0
11, 402000, Note_on_c, 5, 58, 84
11, 402689, Note_on_c, 5, 58, 0
11, 402720, Note_on_c, 5, 58, 84
11, 402929, Note_on_c, 5, 58, 0
11, 402960, Note_on_c, 5, 63, 84
11, 403169, Note_on_c, 5, 63, 0
11, 403200, Note_on_c, 5, 63, 84
11, 403409, Note_on_c, 5, 63, 0
11, 403440, Note_on_c, 5, 63, 84
11, 404129, Note_on_c, 5, 63, 0
11, 404160, Note_on_c, 5, 63, 84
11, 404849, Note_on_c, 5, 63, 0
11, 404880, Note_on_c, 5, 63, 84
11, 405569, Note_on_c, 5, 63, 0
11, 405600, Note_on_c, 5, 63, 84
11, 406289, Note_on_c, 5, 63, 0
11, 406320, Note_on_c, 5, 63, 84
11, 407009, Note_on_c, 5, 63, 0
11, 407040, Note_on_c, 5, 63, 84
11, 407249, Note_on_c, 5, 63, 0
11, 407280, Note_on_c, 5, 63, 84
11, 407489, Note_on_c, 5, 63, 0
11, 407520, Note_on_c, 5, 63, 84
11, 407729, Note_on_c, 5, 63, 0
11, 407760, Note_on_c, 5, 63, 84
11, 407969, Note_on_c, 5, 63, 0
11, 408000, Note_on_c, 5, 63, 84
11, 408209, Note_on_c, 5, 63, 0
11, 408240, Note_on_c, 5, 63, 84
11, 408449, Note_on_c, 5, 63, 0
11, 408480, Note_on_c, 5, 65, 84
11, 408689, Note_on_c, 5, 65, 0
11, 408720, Note_on_c, 5, 65, 84
11, 408929, Note_on_c, 5, 65, 0
11, 408960, Note_on_c, 5, 65, 84
11, 409169, Note_on_c, 5, 65, 0
11, 409200, Note_on_c, 5, 67, 84
11, 409409, Note_on_c, 5, 67, 0
11, 409440, Note_on_c, 5, 67, 84
11, 409649, Note_on_c, 5, 67, 0
11, 409680, Note_on_c, 5, 67, 84
11, 409889, Note_on_c, 5, 67, 0
11, 409920, Note_on_c, 5, 68, 84
11, 410129, Note_on_c, 5, 68, 0
11, 410160, Note_on_c, 5, 68, 84
11, 410369, Note_on_c, 5, 68, 0
11, 410400, Note_on_c, 5, 68, 84
11, 410609, Note_on_c, 5, 68, 0
11, 410640, Note_on_c, 5, 67, 84
11, 410879, Note_on_c, 5, 67, 0
11, 441360, Note_on_c, 5, 58, 84
11, 441569, Note_on_c, 5, 58, 0
11, 441600, Note_on_c, 5, 58, 84
11, 441809, Note_on_c, 5, 58, 0
11, 441840, Note_on_c, 5, 58, 84
11, 442049, Note_on_c, 5, 58, 0
11, 442080, Note_on_c, 5, 58, 84
11, 442289, Note_on_c, 5, 58, 0
11, 442320, Note_on_c, 5, 58, 84
11, 442529, Note_on_c, 5, 58, 0
11, 442560, Note_on_c, 5, 58, 84
11, 442769, Note_on_c, 5, 58, 0
11, 442800, Note_on_c, 5, 58, 84
11, 443009, Note_on_c, 5, 58, 0
11, 443040, Note_on_c, 5, 58, 84
11, 443249, Note_on_c, 5, 58, 0
11, 443280, Note_on_c, 5, 58, 84
11, 443489, Note_on_c, 5, 58, 0
11, 443520, Note_on_c, 5, 58, 84
11, 443729, Note_on_c, 5, 58, 0
11, 443760, Note_on_c, 5, 58, 84
11, 443969, Note_on_c, 5, 58, 0
11, 444000, Note_on_c, 5, 58, 84
11, 444209, Note_on_c, 5, 58, 0
11, 444240, Note_on_c, 5, 63, 76
11, 444479, Note_on_c, 5, 63, 0
11, 444960, Note_on_c, 5, 58, 76
11, 445199, Note_on_c, 5, 58, 0
11, 454560, Note_on_c, 5, 58, 69
11, 454769, Note_on_c, 5, 58, 0
11, 454800, Note_on_c, 5, 58, 70
11, 455009, Note_on_c, 5, 58, 0
11, 455040, Note_on_c, 5, 58, 72
11, 455249, Note_on_c, 5, 58, 0
11, 455280, Note_on_c, 5, 58, 73
11, 455489, Note_on_c, 5, 58, 0
11, 455520, Note_on_c, 5, 58, 74
11, 455729, Note_on_c, 5, 58, 0
11, 455760, Note_on_c, 5, 58, 76
11, 455969, Note_on_c, 5, 58, 0
11, 456000, Note_on_c, 5, 58, 76
11, 456209, Note_on_c, 5, 58, 0
11, 456240, Note_on_c, 5, 58, 76
11, 456449, Note_on_c, 5, 58, 0
11, 456480, Note_on_c, 5, 58, 76
11, 456689, Note_on_c, 5, 58, 0
11, 456720, Note_on_c, 5, 58, 76
11, 456929, Note_on_c, 5, 58, 0
11, 456960, Note_on_c, 5, 58, 76
11, 457169, Note_on_c, 5, 58, 0
11, 457200, Note_on_c, 5, 58, 84
11, 457439, Note_on_c, 5, 58, 0
11, 457920, Note_on_c, 5, 58, 84
11, 458159, Note_on_c, 5, 58, 0
11, 458640, Note_on_c, 5, 63, 84
11, 458879, Note_on_c, 5, 63, 0
11, 458879, End_track
12, 0, Start_track
12, 0, Title_t, "Trumpet in E-flat"
12, 0, MIDI_port, 0
12, 0, Program_c, 6, 56
12, 0, Control_c, 6, 7, 96
12, 0, Control_c, 6, 10, 60
12, 0, Control_c, 6, 11, 127
12, 66480, Note_on_c, 6, 63, 84
12, 66480, Note_on_c, 6, 75, 84
12, 66689, Note_on_c, 6, 63, 0
12, 66689, Note_on_c, 6, 75, 0
12, 66720, Note_on_c, 6, 63, 84
12, 66720, Note_on_c, 6, 75, 84
12, 66929, Note_on_c, 6, 63, 0
12, 66929, Note_on_c, 6, 75, 0
12, 66960, Note_on_c, 6, 63, 84
12, 66960, Note_on_c, 6, 75, 84
12, 67169, Note_on_c, 6, 63, 0
12, 67169, Note_on_c, 6, 75, 0
12, 67200, Note_on_c, 6, 63, 84
12, 67200, Note_on_c, 6, 75, 84
12, 67409, Note_on_c, 6, 63, 0
12, 67409, Note_on_c, 6, 75, 0
12, 67440, Note_on_c, 6, 63, 84
12, 67440, Note_on_c, 6, 75, 84
12, 67649, Note_on_c, 6, 63, 0
12, 67649, Note_on_c, 6, 75, 0
12, 67680, Note_on_c, 6, 63, 84
12, 67680, Note_on_c, 6, 75, 84
12, 67889, Note_on_c, 6, 63, 0
12, 67889, Note_on_c, 6, 75, 0
12, 67920, Note_on_c, 6, 75, 84
12, 67920, Note_on_c, 6, 63, 84
12, 68849, Note_on_c, 6, 75, 0
12, 68849, Note_on_c, 6, 63, 0
12, 68880, Note_on_c, 6, 63, 84
12, 68880, Note_on_c, 6, 75, 84
12, 69089, Note_on_c, 6, 63, 0
12, 69089, Note_on_c, 6, 75, 0
12, 69120, Note_on_c, 6, 63, 84
12, 69120, Note_on_c, 6, 75, 84
12, 69329, Note_on_c, 6, 63, 0
12, 69329, Note_on_c, 6, 75, 0
12, 69360, Note_on_c, 6, 58, 84
12, 69360, Note_on_c, 6, 70, 84
12, 70049, Note_on_c, 6, 58, 0
12, 70049, Note_on_c, 6, 70, 0
12, 70080, Note_on_c, 6, 58, 84
12, 70080, Note_on_c, 6, 70, 84
12, 70769, Note_on_c, 6, 58, 0
12, 70769, Note_on_c, 6, 70, 0
12, 70800, Note_on_c, 6, 70, 84
12, 70800, Note_on_c, 6, 58, 84
12, 71489, Note_on_c, 6, 70, 0
12, 71489, Note_on_c, 6, 58, 0
12, 71520, Note_on_c, 6, 58, 84
12, 71520, Note_on_c, 6, 70, 84
12, 72209, Note_on_c, 6, 58, 0
12, 72209, Note_on_c, 6, 70, 0
12, 72240, Note_on_c, 6, 58, 84
12, 72240, Note_on_c, 6, 70, 84
12, 72929, Note_on_c, 6, 58, 0
12, 72929, Note_on_c, 6, 70, 0
12, 72960, Note_on_c, 6, 58, 84
12, 72960, Note_on_c, 6, 70, 84
12, 73649, Note_on_c, 6, 58, 0
12, 73649, Note_on_c, 6, 70, 0
12, 73680, Note_on_c, 6, 70, 84
12, 73680, Note_on_c, 6, 58, 84
12, 74369, Note_on_c, 6, 70, 0
12, 74369, Note_on_c, 6, 58, 0
12, 74400, Note_on_c, 6, 70, 84
12, 74400, Note_on_c, 6, 58, 84
12, 74609, Note_on_c, 6, 70, 0
12, 74609, Note_on_c, 6, 58, 0
12, 74640, Note_on_c, 6, 75, 84
12, 74640, Note_on_c, 6, 63, 84
12, 74849, Note_on_c, 6, 75, 0
12, 74849, Note_on_c, 6, 63, 0
12, 74880, Note_on_c, 6, 75, 84
12, 74880, Note_on_c, 6, 63, 84
12, 75089, Note_on_c, 6, 75, 0
12, 75089, Note_on_c, 6, 63, 0
12, 75120, Note_on_c, 6, 75, 84
12, 75120, Note_on_c, 6, 63, 84
12, 75809, Note_on_c, 6, 75, 0
12, 75809, Note_on_c, 6, 63, 0
12, 75840, Note_on_c, 6, 63, 84
12, 75840, Note_on_c, 6, 75, 84
12, 76529, Note_on_c, 6, 63, 0
12, 76529, Note_on_c, 6, 75, 0
12, 76560, Note_on_c, 6, 63, 84
12, 76560, Note_on_c, 6, 75, 84
12, 77249, Note_on_c, 6, 63, 0
12, 77249, Note_on_c, 6, 75, 0
12, 77280, Note_on_c, 6, 63, 84
12, 77280, Note_on_c, 6, 75, 84
12, 77969, Note_on_c, 6, 63, 0
12, 77969, Note_on_c, 6, 75, 0
12, 78000, Note_on_c, 6, 75, 84
12, 78000, Note_on_c, 6, 63, 84
12, 78689, Note_on_c, 6, 75, 0
12, 78689, Note_on_c, 6, 63, 0
12, 78720, Note_on_c, 6, 63, 84
12, 78720, Note_on_c, 6, 75, 84
12, 78929, Note_on_c, 6, 63, 0
12, 78929, Note_on_c, 6, 75, 0
12, 78960, Note_on_c, 6, 63, 84
12, 78960, Note_on_c, 6, 75, 84
12, 79169, Note_on_c, 6, 63, 0
12, 79169, Note_on_c, 6, 75, 0
12, 79200, Note_on_c, 6, 63, 84
12, 79200, Note_on_c, 6, 75, 84
12, 79409, Note_on_c, 6, 63, 0
12, 79409, Note_on_c, 6, 75, 0
12, 79440, Note_on_c, 6, 63, 84
12, 79440, Note_on_c, 6, 75, 84
12, 79649, Note_on_c, 6, 63, 0
12, 79649, Note_on_c, 6, 75, 0
12, 79680, Note_on_c, 6, 75, 84
12, 79680, Note_on_c, 6, 63, 84
12, 79889, Note_on_c, 6, 75, 0
12, 79889, Note_on_c, 6, 63, 0
12, 79920, Note_on_c, 6, 63, 84
12, 79920, Note_on_c, 6, 75, 84
12, 80129, Note_on_c, 6, 63, 0
12, 80129, Note_on_c, 6, 75, 0
12, 80160, Note_on_c, 6, 63, 84
12, 80160, Note_on_c, 6, 75, 84
12, 80369, Note_on_c, 6, 63, 0
12, 80369, Note_on_c, 6, 75, 0
12, 80400, Note_on_c, 6, 63, 84
12, 80400, Note_on_c, 6, 75, 84
12, 80609, Note_on_c, 6, 63, 0
12, 80609, Note_on_c, 6, 75, 0
12, 80640, Note_on_c, 6, 75, 84
12, 80640, Note_on_c, 6, 63, 84
12, 80849, Note_on_c, 6, 75, 0
12, 80849, Note_on_c, 6, 63, 0
12, 80880, Note_on_c, 6, 75, 84
12, 80880, Note_on_c, 6, 63, 84
12, 81089, Note_on_c, 6, 75, 0
12, 81089, Note_on_c, 6, 63, 0
12, 81120, Note_on_c, 6, 75, 84
12, 81120, Note_on_c, 6, 63, 84
12, 81329, Note_on_c, 6, 75, 0
12, 81329, Note_on_c, 6, 63, 0
12, 81360, Note_on_c, 6, 75, 84
12, 81360, Note_on_c, 6, 63, 84
12, 81569, Note_on_c, 6, 75, 0
12, 81569, Note_on_c, 6, 63, 0
12, 81600, Note_on_c, 6, 70, 84
12, 81600, Note_on_c, 6, 58, 84
12, 81809, Note_on_c, 6, 70, 0
12, 81809, Note_on_c, 6, 58, 0
12, 81840, Note_on_c, 6, 58, 84
12, 81840, Note_on_c, 6, 70, 84
12, 82049, Note_on_c, 6, 58, 0
12, 82049, Note_on_c, 6, 70, 0
12, 82080, Note_on_c, 6, 58, 84
12, 82080, Note_on_c, 6, 70, 84
12, 82289, Note_on_c, 6, 58, 0
12, 82289, Note_on_c, 6, 70, 0
12, 82320, Note_on_c, 6, 63, 84
12, 82320, Note_on_c, 6, 75, 84
12, 82559, Note_on_c, 6, 63, 0
12, 82559, Note_on_c, 6, 75, 0
12, 88320, Note_on_c, 6, 79, 84
12, 88320, Note_on_c, 6, 67, 84
12, 88769, Note_on_c, 6, 79, 0
12, 88769, Note_on_c, 6, 67, 0
12, 88800, Note_on_c, 6, 63, 76
12, 88800, Note_on_c, 6, 75, 76
12, 89009, Note_on_c, 6, 63, 0
12, 89009, Note_on_c, 6, 75, 0
12, 89040, Note_on_c, 6, 58, 84
12, 89040, Note_on_c, 6, 70, 84
12, 89489, Note_on_c, 6, 58, 0
12, 89489, Note_on_c, 6, 70, 0
12, 89520, Note_on_c, 6, 67, 76
12, 89729, Note_on_c, 6, 67, 0
12, 89760, Note_on_c, 6, 63, 84
12, 90209, Note_on_c, 6, 63, 0
12, 90240, Note_on_c, 6, 58, 76
12, 90479, Note_on_c, 6, 58, 0
12, 90720, Note_on_c, 6, 70, 76
12, 90720, Note_on_c, 6, 58, 76
12, 90929, Note_on_c, 6, 70, 0
12, 90929, Note_on_c, 6, 58, 0
12, 90960, Note_on_c, 6, 67, 76
12, 91199, Note_on_c, 6, 67, 0
12, 108240, Note_on_c, 6, 63, 52
12, 108240, Note_on_c, 6, 75, 52
12, 108479, Note_on_c, 6, 63, 0
12, 108479, Note_on_c, 6, 75, 0
12, 108960, Note_on_c, 6, 63, 52
12, 108960, Note_on_c, 6, 75, 52
12, 109199, Note_on_c, 6, 63, 0
12, 109199, Note_on_c, 6, 75, 0
12, 111120, Note_on_c, 6, 58, 52
12, 111120, Note_on_c, 6, 70, 52
12, 111359, Note_on_c, 6, 58, 0
12, 111359, Note_on_c, 6, 70, 0
12, 111840, Note_on_c, 6, 70, 60
12, 111840, Note_on_c, 6, 58, 60
12, 112079, Note_on_c, 6, 70, 0
12, 112079, Note_on_c, 6, 58, 0
12, 112560, Note_on_c, 6, 75, 68
12, 112560, Note_on_c, 6, 63, 68
12, 112799, Note_on_c, 6, 75, 0
12, 112799, Note_on_c, 6, 63, 0
12, 113280, Note_on_c, 6, 70, 76
12, 113280, Note_on_c, 6, 58, 76
12, 113489, Note_on_c, 6, 70, 0
12, 113489, Note_on_c, 6, 58, 0
12, 113520, Note_on_c, 6, 70, 78
12, 113520, Note_on_c, 6, 58, 78
12, 113729, Note_on_c, 6, 70, 0
12, 113729, Note_on_c, 6, 58, 0
12, 113760, Note_on_c, 6, 70, 81
12, 113760, Note_on_c, 6, 58, 81
12, 113969, Note_on_c, 6, 70, 0
12, 113969, Note_on_c, 6, 58, 0
12, 114000, Note_on_c, 6, 58, 84
12, 114000, Note_on_c, 6, 70, 84
12, 114209, Note_on_c, 6, 58, 0
12, 114209, Note_on_c, 6, 70, 0
12, 114240, Note_on_c, 6, 58, 84
12, 114240, Note_on_c, 6, 70, 84
12, 114449, Note_on_c, 6, 58, 0
12, 114449, Note_on_c, 6, 70, 0
12, 114480, Note_on_c, 6, 58, 84
12, 114480, Note_on_c, 6, 70, 84
12, 114689, Note_on_c, 6, 58, 0
12, 114689, Note_on_c, 6, 70, 0
12, 114720, Note_on_c, 6, 70, 84
12, 114720, Note_on_c, 6, 58, 84
12, 114929, Note_on_c, 6, 70, 0
12, 114929, Note_on_c, 6, 58, 0
12, 114960, Note_on_c, 6, 58, 84
12, 114960, Note_on_c, 6, 70, 84
12, 115169, Note_on_c, 6, 58, 0
12, 115169, Note_on_c, 6, 70, 0
12, 115200, Note_on_c, 6, 58, 84
12, 115200, Note_on_c, 6, 70, 84
12, 115409, Note_on_c, 6, 58, 0
12, 115409, Note_on_c, 6, 70, 0
12, 115440, Note_on_c, 6, 58, 84
12, 115440, Note_on_c, 6, 70, 84
12, 115649, Note_on_c, 6, 58, 0
12, 115649, Note_on_c, 6, 70, 0
12, 115680, Note_on_c, 6, 58, 84
12, 115680, Note_on_c, 6, 70, 84
12, 115889, Note_on_c, 6, 58, 0
12, 115889, Note_on_c, 6, 70, 0
12, 115920, Note_on_c, 6, 70, 84
12, 115920, Note_on_c, 6, 58, 84
12, 116129, Note_on_c, 6, 70, 0
12, 116129, Note_on_c, 6, 58, 0
12, 116160, Note_on_c, 6, 58, 84
12, 116160, Note_on_c, 6, 70, 84
12, 116369, Note_on_c, 6, 58, 0
12, 116369, Note_on_c, 6, 70, 0
12, 116400, Note_on_c, 6, 58, 84
12, 116400, Note_on_c, 6, 70, 84
12, 116609, Note_on_c, 6, 58, 0
12, 116609, Note_on_c, 6, 70, 0
12, 116640, Note_on_c, 6, 58, 84
12, 116640, Note_on_c, 6, 70, 84
12, 116849, Note_on_c, 6, 58, 0
12, 116849, Note_on_c, 6, 70, 0
12, 116880, Note_on_c, 6, 63, 76
12, 116880, Note_on_c, 6, 75, 76
12, 117119, Note_on_c, 6, 63, 0
12, 117119, Note_on_c, 6, 75, 0
12, 117600, Note_on_c, 6, 58, 76
12, 117600, Note_on_c, 6, 70, 76
12, 117839, Note_on_c, 6, 58, 0
12, 117839, Note_on_c, 6, 70, 0
12, 118320, Note_on_c, 6, 58, 76
12, 118320, Note_on_c, 6, 70, 76
12, 118559, Note_on_c, 6, 58, 0
12, 118559, Note_on_c, 6, 70, 0
12, 164400, Note_on_c, 6, 63, 84
12, 164400, Note_on_c, 6, 75, 84
12, 164609, Note_on_c, 6, 63, 0
12, 164609, Note_on_c, 6, 75, 0
12, 164640, Note_on_c, 6, 63, 84
12, 164640, Note_on_c, 6, 75, 84
12, 164849, Note_on_c, 6, 63, 0
12, 164849, Note_on_c, 6, 75, 0
12, 164880, Note_on_c, 6, 63, 84
12, 164880, Note_on_c, 6, 75, 84
12, 165089, Note_on_c, 6, 63, 0
12, 165089, Note_on_c, 6, 75, 0
12, 165120, Note_on_c, 6, 63, 84
12, 165120, Note_on_c, 6, 75, 84
12, 165329, Note_on_c, 6, 63, 0
12, 165329, Note_on_c, 6, 75, 0
12, 165360, Note_on_c, 6, 63, 84
12, 165360, Note_on_c, 6, 75, 84
12, 165569, Note_on_c, 6, 63, 0
12, 165569, Note_on_c, 6, 75, 0
12, 165600, Note_on_c, 6, 63, 84
12, 165600, Note_on_c, 6, 75, 84
12, 165809, Note_on_c, 6, 63, 0
12, 165809, Note_on_c, 6, 75, 0
12, 165840, Note_on_c, 6, 63, 84
12, 165840, Note_on_c, 6, 75, 84
12, 166769, Note_on_c, 6, 63, 0
12, 166769, Note_on_c, 6, 75, 0
12, 166800, Note_on_c, 6, 75, 84
12, 166800, Note_on_c, 6, 63, 84
12, 167009, Note_on_c, 6, 75, 0
12, 167009, Note_on_c, 6, 63, 0
12, 167040, Note_on_c, 6, 63, 84
12, 167040, Note_on_c, 6, 75, 84
12, 167249, Note_on_c, 6, 63, 0
12, 167249, Note_on_c, 6, 75, 0
12, 167280, Note_on_c, 6, 58, 84
12, 167280, Note_on_c, 6, 70, 84
12, 167969, Note_on_c, 6, 58, 0
12, 167969, Note_on_c, 6, 70, 0
12, 168000, Note_on_c, 6, 58, 84
12, 168000, Note_on_c, 6, 70, 84
12, 168689, Note_on_c, 6, 58, 0
12, 168689, Note_on_c, 6, 70, 0
12, 168720, Note_on_c, 6, 58, 84
12, 168720, Note_on_c, 6, 70, 84
12, 169409, Note_on_c, 6, 58, 0
12, 169409, Note_on_c, 6, 70, 0
12, 169440, Note_on_c, 6, 58, 84
12, 169440, Note_on_c, 6, 70, 84
12, 170129, Note_on_c, 6, 58, 0
12, 170129, Note_on_c, 6, 70, 0
12, 170160, Note_on_c, 6, 58, 84
12, 170160, Note_on_c, 6, 70, 84
12, 170849, Note_on_c, 6, 58, 0
12, 170849, Note_on_c, 6, 70, 0
12, 170880, Note_on_c, 6, 58, 84
12, 170880, Note_on_c, 6, 70, 84
12, 171569, Note_on_c, 6, 58, 0
12, 171569, Note_on_c, 6, 70, 0
12, 171600, Note_on_c, 6, 58, 84
12, 171600, Note_on_c, 6, 70, 84
12, 172289, Note_on_c, 6, 58, 0
12, 172289, Note_on_c, 6, 70, 0
12, 172320, Note_on_c, 6, 58, 84
12, 172320, Note_on_c, 6, 70, 84
12, 172529, Note_on_c, 6, 58, 0
12, 172529, Note_on_c, 6, 70, 0
12, 172560, Note_on_c, 6, 63, 84
12, 172560, Note_on_c, 6, 75, 84
12, 172769, Note_on_c, 6, 63, 0
12, 172769, Note_on_c, 6, 75, 0
12, 172800, Note_on_c, 6, 63, 84
12, 172800, Note_on_c, 6, 75, 84
12, 173009, Note_on_c, 6, 63, 0
12, 173009, Note_on_c, 6, 75, 0
12, 173040, Note_on_c, 6, 63, 84
12, 173040, Note_on_c, 6, 75, 84
12, 173729, Note_on_c, 6, 63, 0
12, 173729, Note_on_c, 6, 75, 0
12, 173760, Note_on_c, 6, 63, 84
12, 173760, Note_on_c, 6, 75, 84
12, 174449, Note_on_c, 6, 63, 0
12, 174449, Note_on_c, 6, 75, 0
12, 174480, Note_on_c, 6, 63, 84
12, 174480, Note_on_c, 6, 75, 84
12, 175169, Note_on_c, 6, 63, 0
12, 175169, Note_on_c, 6, 75, 0
12, 175200, Note_on_c, 6, 63, 84
12, 175200, Note_on_c, 6, 75, 84
12, 175889, Note_on_c, 6, 63, 0
12, 175889, Note_on_c, 6, 75, 0
12, 175920, Note_on_c, 6, 63, 84
12, 175920, Note_on_c, 6, 75, 84
12, 176609, Note_on_c, 6, 63, 0
12, 176609, Note_on_c, 6, 75, 0
12, 176640, Note_on_c, 6, 75, 84
12, 176640, Note_on_c, 6, 63, 84
12, 176849, Note_on_c, 6, 75, 0
12, 176849, Note_on_c, 6, 63, 0
12, 176880, Note_on_c, 6, 63, 84
12, 176880, Note_on_c, 6, 75, 84
12, 177089, Note_on_c, 6, 63, 0
12, 177089, Note_on_c, 6, 75, 0
12, 177120, Note_on_c, 6, 63, 84
12, 177120, Note_on_c, 6, 75, 84
12, 177329, Note_on_c, 6, 63, 0
12, 177329, Note_on_c, 6, 75, 0
12, 177360, Note_on_c, 6, 63, 84
12, 177360, Note_on_c, 6, 75, 84
12, 177569, Note_on_c, 6, 63, 0
12, 177569, Note_on_c, 6, 75, 0
12, 177600, Note_on_c, 6, 63, 84
12, 177600, Note_on_c, 6, 75, 84
12, 177809, Note_on_c, 6, 63, 0
12, 177809, Note_on_c, 6, 75, 0
12, 177840, Note_on_c, 6, 63, 84
12, 177840, Note_on_c, 6, 75, 84
12, 178049, Note_on_c, 6, 63, 0
12, 178049, Note_on_c, 6, 75, 0
12, 178080, Note_on_c, 6, 63, 84
12, 178080, Note_on_c, 6, 75, 84
12, 178289, Note_on_c, 6, 63, 0
12, 178289, Note_on_c, 6, 75, 0
12, 178320, Note_on_c, 6, 63, 84
12, 178320, Note_on_c, 6, 75, 84
12, 178529, Note_on_c, 6, 63, 0
12, 178529, Note_on_c, 6, 75, 0
12, 178560, Note_on_c, 6, 63, 84
12, 178560, Note_on_c, 6, 75, 84
12, 178769, Note_on_c, 6, 63, 0
12, 178769, Note_on_c, 6, 75, 0
12, 178800, Note_on_c, 6, 63, 84
12, 178800, Note_on_c, 6, 75, 84
12, 179009, Note_on_c, 6, 63, 0
12, 179009, Note_on_c, 6, 75, 0
12, 179040, Note_on_c, 6, 63, 84
12, 179040, Note_on_c, 6, 75, 84
12, 179249, Note_on_c, 6, 63, 0
12, 179249, Note_on_c, 6, 75, 0
12, 179280, Note_on_c, 6, 63, 84
12, 179280, Note_on_c, 6, 75, 84
12, 179489, Note_on_c, 6, 63, 0
12, 179489, Note_on_c, 6, 75, 0
12, 179520, Note_on_c, 6, 58, 84
12, 179520, Note_on_c, 6, 70, 84
12, 179729, Note_on_c, 6, 58, 0
12, 179729, Note_on_c, 6, 70, 0
12, 179760, Note_on_c, 6, 58, 84
12, 179760, Note_on_c, 6, 70, 84
12, 179969, Note_on_c, 6, 58, 0
12, 179969, Note_on_c, 6, 70, 0
12, 180000, Note_on_c, 6, 58, 84
12, 180000, Note_on_c, 6, 70, 84
12, 180209, Note_on_c, 6, 58, 0
12, 180209, Note_on_c, 6, 70, 0
12, 180240, Note_on_c, 6, 63, 84
12, 180240, Note_on_c, 6, 75, 84
12, 180479, Note_on_c, 6, 63, 0
12, 180479, Note_on_c, 6, 75, 0
12, 186240, Note_on_c, 6, 67, 84
12, 186240, Note_on_c, 6, 79, 84
12, 186689, Note_on_c, 6, 67, 0
12, 186689, Note_on_c, 6, 79, 0
12, 186720, Note_on_c, 6, 75, 76
12, 186720, Note_on_c, 6, 63, 76
12, 186929, Note_on_c, 6, 75, 0
12, 186929, Note_on_c, 6, 63, 0
12, 186960, Note_on_c, 6, 58, 84
12, 186960, Note_on_c, 6, 70, 84
12, 187409, Note_on_c, 6, 58, 0
12, 187409, Note_on_c, 6, 70, 0
12, 187440, Note_on_c, 6, 67, 76
12, 187649, Note_on_c, 6, 67, 0
12, 187680, Note_on_c, 6, 63, 84
12, 188129, Note_on_c, 6, 63, 0
12, 188160, Note_on_c, 6, 58, 76
12, 188399, Note_on_c, 6, 58, 0
12, 188640, Note_on_c, 6, 58, 76
12, 188640, Note_on_c, 6, 70, 76
12, 188849, Note_on_c, 6, 58, 0
12, 188849, Note_on_c, 6, 70, 0
12, 188880, Note_on_c, 6, 67, 76
12, 189119, Note_on_c, 6, 67, 0
12, 206160, Note_on_c, 6, 63, 52
12, 206160, Note_on_c, 6, 75, 52
12, 206399, Note_on_c, 6, 63, 0
12, 206399, Note_on_c, 6, 75, 0
12, 206880, Note_on_c, 6, 63, 52
12, 206880, Note_on_c, 6, 75, 52
12, 207119, Note_on_c, 6, 63, 0
12, 207119, Note_on_c, 6, 75, 0
12, 209040, Note_on_c, 6, 58, 52
12, 209040, Note_on_c, 6, 70, 52
12, 209279, Note_on_c, 6, 58, 0
12, 209279, Note_on_c, 6, 70, 0
12, 209760, Note_on_c, 6, 58, 60
12, 209760, Note_on_c, 6, 70, 60
12, 209999, Note_on_c, 6, 58, 0
12, 209999, Note_on_c, 6, 70, 0
12, 210480, Note_on_c, 6, 63, 68
12, 210480, Note_on_c, 6, 75, 68
12, 210719, Note_on_c, 6, 63, 0
12, 210719, Note_on_c, 6, 75, 0
12, 211200, Note_on_c, 6, 58, 76
12, 211200, Note_on_c, 6, 70, 76
12, 211409, Note_on_c, 6, 58, 0
12, 211409, Note_on_c, 6, 70, 0
12, 211440, Note_on_c, 6, 58, 78
12, 211440, Note_on_c, 6, 70, 78
12, 211649, Note_on_c, 6, 58, 0
12, 211649, Note_on_c, 6, 70, 0
12, 211680, Note_on_c, 6, 58, 81
12, 211680, Note_on_c, 6, 70, 81
12, 211889, Note_on_c, 6, 58, 0
12, 211889, Note_on_c, 6, 70, 0
12, 211920, Note_on_c, 6, 58, 84
12, 211920, Note_on_c, 6, 70, 84
12, 212129, Note_on_c, 6, 58, 0
12, 212129, Note_on_c, 6, 70, 0
12, 212160, Note_on_c, 6, 58, 84
12, 212160, Note_on_c, 6, 70, 84
12, 212369, Note_on_c, 6, 58, 0
12, 212369, Note_on_c, 6, 70, 0
12, 212400, Note_on_c, 6, 58, 84
12, 212400, Note_on_c, 6, 70, 84
12, 212609, Note_on_c, 6, 58, 0
12, 212609, Note_on_c, 6, 70, 0
12, 212640, Note_on_c, 6, 58, 84
12, 212640, Note_on_c, 6, 70, 84
12, 212849, Note_on_c, 6, 58, 0
12, 212849, Note_on_c, 6, 70, 0
12, 212880, Note_on_c, 6, 70, 84
12, 212880, Note_on_c, 6, 58, 84
12, 213089, Note_on_c, 6, 70, 0
12, 213089, Note_on_c, 6, 58, 0
12, 213120, Note_on_c, 6, 58, 84
12, 213120, Note_on_c, 6, 70, 84
12, 213329, Note_on_c, 6, 58, 0
12, 213329, Note_on_c, 6, 70, 0
12, 213360, Note_on_c, 6, 58, 84
12, 213360, Note_on_c, 6, 70, 84
12, 213569, Note_on_c, 6, 58, 0
12, 213569, Note_on_c, 6, 70, 0
12, 213600, Note_on_c, 6, 58, 84
12, 213600, Note_on_c, 6, 70, 84
12, 213809, Note_on_c, 6, 58, 0
12, 213809, Note_on_c, 6, 70, 0
12, 213840, Note_on_c, 6, 58, 84
12, 213840, Note_on_c, 6, 70, 84
12, 214049, Note_on_c, 6, 58, 0
12, 214049, Note_on_c, 6, 70, 0
12, 214080, Note_on_c, 6, 58, 84
12, 214080, Note_on_c, 6, 70, 84
12, 214289, Note_on_c, 6, 58, 0
12, 214289, Note_on_c, 6, 70, 0
12, 214320, Note_on_c, 6, 58, 84
12, 214320, Note_on_c, 6, 70, 84
12, 214529, Note_on_c, 6, 58, 0
12, 214529, Note_on_c, 6, 70, 0
12, 214560, Note_on_c, 6, 58, 84
12, 214560, Note_on_c, 6, 70, 84
12, 214769, Note_on_c, 6, 58, 0
12, 214769, Note_on_c, 6, 70, 0
12, 214800, Note_on_c, 6, 75, 76
12, 214800, Note_on_c, 6, 63, 76
12, 215039, Note_on_c, 6, 75, 0
12, 215039, Note_on_c, 6, 63, 0
12, 215520, Note_on_c, 6, 70, 76
12, 215520, Note_on_c, 6, 58, 76
12, 215759, Note_on_c, 6, 70, 0
12, 215759, Note_on_c, 6, 58, 0
12, 216240, Note_on_c, 6, 63, 76
12, 216479, Note_on_c, 6, 63, 0
12, 394800, Note_on_c, 6, 75, 84
12, 394800, Note_on_c, 6, 63, 84
12, 395009, Note_on_c, 6, 75, 0
12, 395009, Note_on_c, 6, 63, 0
12, 395040, Note_on_c, 6, 75, 84
12, 395040, Note_on_c, 6, 63, 84
12, 395249, Note_on_c, 6, 75, 0
12, 395249, Note_on_c, 6, 63, 0
12, 395280, Note_on_c, 6, 75, 84
12, 395280, Note_on_c, 6, 63, 84
12, 395489, Note_on_c, 6, 75, 0
12, 395489, Note_on_c, 6, 63, 0
12, 395520, Note_on_c, 6, 75, 84
12, 395520, Note_on_c, 6, 63, 84
12, 395729, Note_on_c, 6, 75, 0
12, 395729, Note_on_c, 6, 63, 0
12, 395760, Note_on_c, 6, 75, 84
12, 395760, Note_on_c, 6, 63, 84
12, 395969, Note_on_c, 6, 75, 0
12, 395969, Note_on_c, 6, 63, 0
12, 396000, Note_on_c, 6, 75, 84
12, 396000, Note_on_c, 6, 63, 84
12, 396209, Note_on_c, 6, 75, 0
12, 396209, Note_on_c, 6, 63, 0
12, 396240, Note_on_c, 6, 75, 84
12, 396240, Note_on_c, 6, 63, 84
12, 397169, Note_on_c, 6, 75, 0
12, 397169, Note_on_c, 6, 63, 0
12, 397200, Note_on_c, 6, 75, 84
12, 397200, Note_on_c, 6, 63, 84
12, 397409, Note_on_c, 6, 75, 0
12, 397409, Note_on_c, 6, 63, 0
12, 397440, Note_on_c, 6, 75, 84
12, 397440, Note_on_c, 6, 63, 84
12, 397649, Note_on_c, 6, 75, 0
12, 397649, Note_on_c, 6, 63, 0
12, 397680, Note_on_c, 6, 70, 84
12, 397680, Note_on_c, 6, 58, 84
12, 398369, Note_on_c, 6, 70, 0
12, 398369, Note_on_c, 6, 58, 0
12, 398400, Note_on_c, 6, 70, 84
12, 398400, Note_on_c, 6, 58, 84
12, 399089, Note_on_c, 6, 70, 0
12, 399089, Note_on_c, 6, 58, 0
12, 399120, Note_on_c, 6, 70, 84
12, 399120, Note_on_c, 6, 58, 84
12, 399809, Note_on_c, 6, 70, 0
12, 399809, Note_on_c, 6, 58, 0
12, 399840, Note_on_c, 6, 70, 84
12, 399840, Note_on_c, 6, 58, 84
12, 400529, Note_on_c, 6, 70, 0
12, 400529, Note_on_c, 6, 58, 0
12, 400560, Note_on_c, 6, 70, 84
12, 400560, Note_on_c, 6, 58, 84
12, 401249, Note_on_c, 6, 70, 0
12, 401249, Note_on_c, 6, 58, 0
12, 401280, Note_on_c, 6, 70, 84
12, 401280, Note_on_c, 6, 58, 84
12, 401969, Note_on_c, 6, 70, 0
12, 401969, Note_on_c, 6, 58, 0
12, 402000, Note_on_c, 6, 70, 84
12, 402000, Note_on_c, 6, 58, 84
12, 402689, Note_on_c, 6, 70, 0
12, 402689, Note_on_c, 6, 58, 0
12, 402720, Note_on_c, 6, 70, 84
12, 402720, Note_on_c, 6, 58, 84
12, 402929, Note_on_c, 6, 70, 0
12, 402929, Note_on_c, 6, 58, 0
12, 402960, Note_on_c, 6, 75, 84
12, 402960, Note_on_c, 6, 63, 84
12, 403169, Note_on_c, 6, 75, 0
12, 403169, Note_on_c, 6, 63, 0
12, 403200, Note_on_c, 6, 75, 84
12, 403200, Note_on_c, 6, 63, 84
12, 403409, Note_on_c, 6, 75, 0
12, 403409, Note_on_c, 6, 63, 0
12, 403440, Note_on_c, 6, 75, 84
12, 403440, Note_on_c, 6, 63, 84
12, 404129, Note_on_c, 6, 75, 0
12, 404129, Note_on_c, 6, 63, 0
12, 404160, Note_on_c, 6, 75, 84
12, 404160, Note_on_c, 6, 63, 84
12, 404849, Note_on_c, 6, 75, 0
12, 404849, Note_on_c, 6, 63, 0
12, 404880, Note_on_c, 6, 75, 84
12, 404880, Note_on_c, 6, 63, 84
12, 405569, Note_on_c, 6, 75, 0
12, 405569, Note_on_c, 6, 63, 0
12, 405600, Note_on_c, 6, 75, 84
12, 405600, Note_on_c, 6, 63, 84
12, 406289, Note_on_c, 6, 75, 0
12, 406289, Note_on_c, 6, 63, 0
12, 406320, Note_on_c, 6, 75, 84
12, 406320, Note_on_c, 6, 63, 84
12, 407009, Note_on_c, 6, 75, 0
12, 407009, Note_on_c, 6, 63, 0
12, 407040, Note_on_c, 6, 75, 84
12, 407040, Note_on_c, 6, 63, 84
12, 407249, Note_on_c, 6, 75, 0
12, 407249, Note_on_c, 6, 63, 0
12, 407280, Note_on_c, 6, 75, 84
12, 407280, Note_on_c, 6, 63, 84
12, 407489, Note_on_c, 6, 75, 0
12, 407489, Note_on_c, 6, 63, 0
12, 407520, Note_on_c, 6, 75, 84
12, 407520, Note_on_c, 6, 63, 84
12, 407729, Note_on_c, 6, 75, 0
12, 407729, Note_on_c, 6, 63, 0
12, 407760, Note_on_c, 6, 75, 84
12, 407760, Note_on_c, 6, 63, 84
12, 407969, Note_on_c, 6, 75, 0
12, 407969, Note_on_c, 6, 63, 0
12, 408000, Note_on_c, 6, 75, 84
12, 408000, Note_on_c, 6, 63, 84
12, 408209, Note_on_c, 6, 75, 0
12, 408209, Note_on_c, 6, 63, 0
12, 408240, Note_on_c, 6, 75, 84
12, 408240, Note_on_c, 6, 63, 84
12, 408449, Note_on_c, 6, 75, 0
12, 408449, Note_on_c, 6, 63, 0
12, 408480, Note_on_c, 6, 75, 84
12, 408480, Note_on_c, 6, 63, 84
12, 408689, Note_on_c, 6, 75, 0
12, 408689, Note_on_c, 6, 63, 0
12, 408720, Note_on_c, 6, 75, 84
12, 408720, Note_on_c, 6, 63, 84
12, 408929, Note_on_c, 6, 75, 0
12, 408929, Note_on_c, 6, 63, 0
12, 408960, Note_on_c, 6, 75, 84
12, 408960, Note_on_c, 6, 63, 84
12, 409169, Note_on_c, 6, 75, 0
12, 409169, Note_on_c, 6, 63, 0
12, 409200, Note_on_c, 6, 75, 84
12, 409200, Note_on_c, 6, 63, 84
12, 409409, Note_on_c, 6, 75, 0
12, 409409, Note_on_c, 6, 63, 0
12, 409440, Note_on_c, 6, 75, 84
12, 409440, Note_on_c, 6, 63, 84
12, 409649, Note_on_c, 6, 75, 0
12, 409649, Note_on_c, 6, 63, 0
12, 409680, Note_on_c, 6, 75, 84
12, 409680, Note_on_c, 6, 63, 84
12, 409889, Note_on_c, 6, 75, 0
12, 409889, Note_on_c, 6, 63, 0
12, 409920, Note_on_c, 6, 70, 84
12, 409920, Note_on_c, 6, 58, 84
12, 410129, Note_on_c, 6, 70, 0
12, 410129, Note_on_c, 6, 58, 0
12, 410160, Note_on_c, 6, 70, 84
12, 410160, Note_on_c, 6, 58, 84
12, 410369, Note_on_c, 6, 70, 0
12, 410369, Note_on_c, 6, 58, 0
12, 410400, Note_on_c, 6, 70, 84
12, 410400, Note_on_c, 6, 58, 84
12, 410609, Note_on_c, 6, 70, 0
12, 410609, Note_on_c, 6, 58, 0
12, 410640, Note_on_c, 6, 75, 84
12, 410640, Note_on_c, 6, 63, 84
12, 410879, Note_on_c, 6, 75, 0
12, 410879, Note_on_c, 6, 63, 0
12, 416640, Note_on_c, 6, 79, 84
12, 416640, Note_on_c, 6, 67, 84
12, 416819, Note_on_c, 6, 79, 0
12, 416819, Note_on_c, 6, 67, 0
12, 416880, Note_on_c, 6, 75, 84
12, 416880, Note_on_c, 6, 63, 84
12, 417059, Note_on_c, 6, 75, 0
12, 417059, Note_on_c, 6, 63, 0
12, 417120, Note_on_c, 6, 70, 84
12, 417120, Note_on_c, 6, 58, 84
12, 417299, Note_on_c, 6, 70, 0
12, 417299, Note_on_c, 6, 58, 0
12, 417360, Note_on_c, 6, 67, 84
12, 417539, Note_on_c, 6, 67, 0
12, 417600, Note_on_c, 6, 63, 84
12, 417779, Note_on_c, 6, 63, 0
12, 417840, Note_on_c, 6, 58, 84
12, 418019, Note_on_c, 6, 58, 0
12, 418080, Note_on_c, 6, 58, 84
12, 418080, Note_on_c, 6, 70, 84
12, 418259, Note_on_c, 6, 58, 0
12, 418259, Note_on_c, 6, 70, 0
12, 418320, Note_on_c, 6, 67, 84
12, 418559, Note_on_c, 6, 67, 0
12, 435600, Note_on_c, 6, 75, 52
12, 435600, Note_on_c, 6, 63, 52
12, 435839, Note_on_c, 6, 75, 0
12, 435839, Note_on_c, 6, 63, 0
12, 436320, Note_on_c, 6, 75, 52
12, 436320, Note_on_c, 6, 63, 52
12, 436559, Note_on_c, 6, 75, 0
12, 436559, Note_on_c, 6, 63, 0
12, 438480, Note_on_c, 6, 70, 52
12, 438480, Note_on_c, 6, 58, 52
12, 438719, Note_on_c, 6, 70, 0
12, 438719, Note_on_c, 6, 58, 0
12, 439200, Note_on_c, 6, 70, 60
12, 439200, Note_on_c, 6, 58, 60
12, 439439, Note_on_c, 6, 70, 0
12, 439439, Note_on_c, 6, 58, 0
12, 439920, Note_on_c, 6, 75, 68
12, 439920, Note_on_c, 6, 63, 68
12, 440159, Note_on_c, 6, 75, 0
12, 440159, Note_on_c, 6, 63, 0
12, 440640, Note_on_c, 6, 70, 76
12, 440640, Note_on_c, 6, 58, 76
12, 440849, Note_on_c, 6, 70, 0
12, 440849, Note_on_c, 6, 58, 0
12, 440880, Note_on_c, 6, 70, 78
12, 440880, Note_on_c, 6, 58, 78
12, 441089, Note_on_c, 6, 70, 0
12, 441089, Note_on_c, 6, 58, 0
12, 441120, Note_on_c, 6, 70, 81
12, 441120, Note_on_c, 6, 58, 81
12, 441329, Note_on_c, 6, 70, 0
12, 441329, Note_on_c, 6, 58, 0
12, 441360, Note_on_c, 6, 70, 84
12, 441360, Note_on_c, 6, 58, 84
12, 441569, Note_on_c, 6, 70, 0
12, 441569, Note_on_c, 6, 58, 0
12, 441600, Note_on_c, 6, 70, 84
12, 441600, Note_on_c, 6, 58, 84
12, 441809, Note_on_c, 6, 70, 0
12, 441809, Note_on_c, 6, 58, 0
12, 441840, Note_on_c, 6, 70, 84
12, 441840, Note_on_c, 6, 58, 84
12, 442049, Note_on_c, 6, 70, 0
12, 442049, Note_on_c, 6, 58, 0
12, 442080, Note_on_c, 6, 70, 84
12, 442080, Note_on_c, 6, 58, 84
12, 442289, Note_on_c, 6, 70, 0
12, 442289, Note_on_c, 6, 58, 0
12, 442320, Note_on_c, 6, 70, 84
12, 442320, Note_on_c, 6, 58, 84
12, 442529, Note_on_c, 6, 70, 0
12, 442529, Note_on_c, 6, 58, 0
12, 442560, Note_on_c, 6, 70, 84
12, 442560, Note_on_c, 6, 58, 84
12, 442769, Note_on_c, 6, 70, 0
12, 442769, Note_on_c, 6, 58, 0
12, 442800, Note_on_c, 6, 70, 84
12, 442800, Note_on_c, 6, 58, 84
12, 443009, Note_on_c, 6, 70, 0
12, 443009, Note_on_c, 6, 58, 0
12, 443040, Note_on_c, 6, 70, 84
12, 443040, Note_on_c, 6, 58, 84
12, 443249, Note_on_c, 6, 70, 0
12, 443249, Note_on_c, 6, 58, 0
12, 443280, Note_on_c, 6, 70, 84
12, 443280, Note_on_c, 6, 58, 84
12, 443489, Note_on_c, 6, 70, 0
12, 443489, Note_on_c, 6, 58, 0
12, 443520, Note_on_c, 6, 70, 84
12, 443520, Note_on_c, 6, 58, 84
12, 443729, Note_on_c, 6, 70, 0
12, 443729, Note_on_c, 6, 58, 0
12, 443760, Note_on_c, 6, 70, 84
12, 443760, Note_on_c, 6, 58, 84
12, 443969, Note_on_c, 6, 70, 0
12, 443969, Note_on_c, 6, 58, 0
12, 444000, Note_on_c, 6, 70, 84
12, 444000, Note_on_c, 6, 58, 84
12, 444209, Note_on_c, 6, 70, 0
12, 444209, Note_on_c, 6, 58, 0
12, 444240, Note_on_c, 6, 75, 76
12, 444240, Note_on_c, 6, 63, 76
12, 444479, Note_on_c, 6, 75, 0
12, 444479, Note_on_c, 6, 63, 0
12, 444960, Note_on_c, 6, 70, 76
12, 444960, Note_on_c, 6, 58, 76
12, 445199, Note_on_c, 6, 70, 0
12, 445199, Note_on_c, 6, 58, 0
12, 454560, Note_on_c, 6, 70, 69
12, 454560, Note_on_c, 6, 58, 69
12, 454769, Note_on_c, 6, 70, 0
12, 454769, Note_on_c, 6, 58, 0
12, 454800, Note_on_c, 6, 75, 70
12, 454800, Note_on_c, 6, 63, 70
12, 455009, Note_on_c, 6, 75, 0
12, 455009, Note_on_c, 6, 63, 0
12, 455040, Note_on_c, 6, 70, 72
12, 455040, Note_on_c, 6, 58, 72
12, 455249, Note_on_c, 6, 70, 0
12, 455249, Note_on_c, 6, 58, 0
12, 455280, Note_on_c, 6, 75, 73
12, 455280, Note_on_c, 6, 63, 73
12, 455489, Note_on_c, 6, 75, 0
12, 455489, Note_on_c, 6, 63, 0
12, 455520, Note_on_c, 6, 70, 74
12, 455520, Note_on_c, 6, 58, 74
12, 455729, Note_on_c, 6, 70, 0
12, 455729, Note_on_c, 6, 58, 0
12, 455760, Note_on_c, 6, 75, 76
12, 455760, Note_on_c, 6, 63, 76
12, 455969, Note_on_c, 6, 75, 0
12, 455969, Note_on_c, 6, 63, 0
12, 456000, Note_on_c, 6, 70, 76
12, 456000, Note_on_c, 6, 58, 76
12, 456209, Note_on_c, 6, 70, 0
12, 456209, Note_on_c, 6, 58, 0
12, 456240, Note_on_c, 6, 75, 76
12, 456240, Note_on_c, 6, 63, 76
12, 456449, Note_on_c, 6, 75, 0
12, 456449, Note_on_c, 6, 63, 0
12, 456480, Note_on_c, 6, 70, 76
12, 456480, Note_on_c, 6, 58, 76
12, 456689, Note_on_c, 6, 70, 0
12, 456689, Note_on_c, 6, 58, 0
12, 456720, Note_on_c, 6, 75, 76
12, 456720, Note_on_c, 6, 63, 76
12, 456929, Note_on_c, 6, 75, 0
12, 456929, Note_on_c, 6, 63, 0
12, 456960, Note_on_c, 6, 70, 76
12, 456960, Note_on_c, 6, 58, 76
12, 457169, Note_on_c, 6, 70, 0
12, 457169, Note_on_c, 6, 58, 0
12, 457200, Note_on_c, 6, 75, 84
12, 457200, Note_on_c, 6, 63, 84
12, 457439, Note_on_c, 6, 75, 0
12, 457439, Note_on_c, 6, 63, 0
12, 457920, Note_on_c, 6, 70, 84
12, 457920, Note_on_c, 6, 58, 84
12, 458159, Note_on_c, 6, 70, 0
12, 458159, Note_on_c, 6, 58, 0
12, 458640, Note_on_c, 6, 67, 84
12, 458640, Note_on_c, 6, 63, 84
12, 458879, Note_on_c, 6, 67, 0
12, 458879, Note_on_c, 6, 63, 0
12, 458879, End_track
13, 0, Start_track
13, 0, Title_t, "Timpani"
13, 0, MIDI_port, 0
13, 0, Program_c, 7, 47
13, 0, Control_c, 7, 7, 96
13, 0, Control_c, 7, 10, 25
13, 0, Control_c, 7, 11, 127
13, 66480, Note_on_c, 7, 51, 84
13, 66719, Note_on_c, 7, 51, 0
13, 66720, Note_on_c, 7, 51, 84
13, 66959, Note_on_c, 7, 51, 0
13, 66960, Note_on_c, 7, 51, 84
13, 67199, Note_on_c, 7, 51, 0
13, 67200, Note_on_c, 7, 51, 84
13, 67439, Note_on_c, 7, 51, 0
13, 67440, Note_on_c, 7, 51, 84
13, 67679, Note_on_c, 7, 51, 0
13, 67680, Note_on_c, 7, 51, 84
13, 67919, Note_on_c, 7, 51, 0
13, 67920, Note_on_c, 7, 51, 84
13, 68039, Note_on_c, 7, 51, 0
13, 68040, Note_on_c, 7, 51, 84
13, 68159, Note_on_c, 7, 51, 0
13, 68160, Note_on_c, 7, 51, 84
13, 68279, Note_on_c, 7, 51, 0
13, 68280, Note_on_c, 7, 51, 84
13, 68399, Note_on_c, 7, 51, 0
13, 68400, Note_on_c, 7, 51, 84
13, 68519, Note_on_c, 7, 51, 0
13, 68520, Note_on_c, 7, 51, 84
13, 68639, Note_on_c, 7, 51, 0
13, 68640, Note_on_c, 7, 51, 84
13, 68759, Note_on_c, 7, 51, 0
13, 68760, Note_on_c, 7, 51, 84
13, 68879, Note_on_c, 7, 51, 0
13, 68880, Note_on_c, 7, 51, 84
13, 68999, Note_on_c, 7, 51, 0
13, 69000, Note_on_c, 7, 51, 84
13, 69119, Note_on_c, 7, 51, 0
13, 69120, Note_on_c, 7, 51, 84
13, 69239, Note_on_c, 7, 51, 0
13, 69240, Note_on_c, 7, 51, 84
13, 69359, Note_on_c, 7, 51, 0
13, 69360, Note_on_c, 7, 46, 84
13, 69599, Note_on_c, 7, 46, 0
13, 70080, Note_on_c, 7, 46, 84
13, 70319, Note_on_c, 7, 46, 0
13, 70800, Note_on_c, 7, 46, 84
13, 71039, Note_on_c, 7, 46, 0
13, 71520, Note_on_c, 7, 46, 84
13, 71759, Note_on_c, 7, 46, 0
13, 72240, Note_on_c, 7, 46, 84
13, 72479, Note_on_c, 7, 46, 0
13, 72960, Note_on_c, 7, 46, 84
13, 73199, Note_on_c, 7, 46, 0
13, 73680, Note_on_c, 7, 46, 84
13, 73919, Note_on_c, 7, 46, 0
13, 74400, Note_on_c, 7, 46, 84
13, 74639, Note_on_c, 7, 46, 0
13, 74640, Note_on_c, 7, 51, 84
13, 74879, Note_on_c, 7, 51, 0
13, 74880, Note_on_c, 7, 51, 84
13, 75119, Note_on_c, 7, 51, 0
13, 75120, Note_on_c, 7, 51, 84
13, 75359, Note_on_c, 7, 51, 0
13, 75840, Note_on_c, 7, 51, 84
13, 76079, Note_on_c, 7, 51, 0
13, 76560, Note_on_c, 7, 51, 84
13, 76799, Note_on_c, 7, 51, 0
13, 77280, Note_on_c, 7, 51, 84
13, 77519, Note_on_c, 7, 51, 0
13, 78000, Note_on_c, 7, 51, 84
13, 78239, Note_on_c, 7, 51, 0
13, 78720, Note_on_c, 7, 51, 84
13, 78959, Note_on_c, 7, 51, 0
13, 78960, Note_on_c, 7, 51, 84
13, 79199, Note_on_c, 7, 51, 0
13, 79200, Note_on_c, 7, 51, 84
13, 79439, Note_on_c, 7, 51, 0
13, 79440, Note_on_c, 7, 51, 84
13, 79679, Note_on_c, 7, 51, 0
13, 79680, Note_on_c, 7, 51, 84
13, 79919, Note_on_c, 7, 51, 0
13, 79920, Note_on_c, 7, 51, 84
13, 80159, Note_on_c, 7, 51, 0
13, 80160, Note_on_c, 7, 51, 84
13, 80399, Note_on_c, 7, 51, 0
13, 80400, Note_on_c, 7, 51, 84
13, 80639, Note_on_c, 7, 51, 0
13, 80640, Note_on_c, 7, 51, 84
13, 80879, Note_on_c, 7, 51, 0
13, 80880, Note_on_c, 7, 46, 84
13, 80939, Note_on_c, 7, 46, 0
13, 80940, Note_on_c, 7, 46, 84
13, 80999, Note_on_c, 7, 46, 0
13, 81000, Note_on_c, 7, 46, 84
13, 81059, Note_on_c, 7, 46, 0
13, 81060, Note_on_c, 7, 46, 84
13, 81119, Note_on_c, 7, 46, 0
13, 81120, Note_on_c, 7, 46, 84
13, 81179, Note_on_c, 7, 46, 0
13, 81180, Note_on_c, 7, 46, 84
13, 81239, Note_on_c, 7, 46, 0
13, 81240, Note_on_c, 7, 46, 84
13, 81299, Note_on_c, 7, 46, 0
13, 81300, Note_on_c, 7, 46, 84
13, 81359, Note_on_c, 7, 46, 0
13, 81360, Note_on_c, 7, 46, 84
13, 81419, Note_on_c, 7, 46, 0
13, 81420, Note_on_c, 7, 46, 84
13, 81479, Note_on_c, 7, 46, 0
13, 81480, Note_on_c, 7, 46, 84
13, 81539, Note_on_c, 7, 46, 0
13, 81540, Note_on_c, 7, 46, 84
13, 81599, Note_on_c, 7, 46, 0
13, 81600, Note_on_c, 7, 46, 84
13, 81659, Note_on_c, 7, 46, 0
13, 81660, Note_on_c, 7, 46, 84
13, 81719, Note_on_c, 7, 46, 0
13, 81720, Note_on_c, 7, 46, 84
13, 81779, Note_on_c, 7, 46, 0
13, 81780, Note_on_c, 7, 46, 84
13, 81839, Note_on_c, 7, 46, 0
13, 81840, Note_on_c, 7, 46, 84
13, 81899, Note_on_c, 7, 46, 0
13, 81900, Note_on_c, 7, 46, 84
13, 81959, Note_on_c, 7, 46, 0
13, 81960, Note_on_c, 7, 46, 84
13, 82019, Note_on_c, 7, 46, 0
13, 82020, Note_on_c, 7, 46, 84
13, 82079, Note_on_c, 7, 46, 0
13, 82080, Note_on_c, 7, 46, 84
13, 82139, Note_on_c, 7, 46, 0
13, 82140, Note_on_c, 7, 46, 84
13, 82199, Note_on_c, 7, 46, 0
13, 82200, Note_on_c, 7, 46, 84
13, 82259, Note_on_c, 7, 46, 0
13, 82260, Note_on_c, 7, 46, 84
13, 82319, Note_on_c, 7, 46, 0
13, 82320, Note_on_c, 7, 51, 84
13, 82559, Note_on_c, 7, 51, 0
13, 88080, Note_on_c, 7, 51, 76
13, 88319, Note_on_c, 7, 51, 0
13, 88800, Note_on_c, 7, 51, 76
13, 89039, Note_on_c, 7, 51, 0
13, 89520, Note_on_c, 7, 51, 76
13, 89759, Note_on_c, 7, 51, 0
13, 90240, Note_on_c, 7, 46, 76
13, 90479, Note_on_c, 7, 46, 0
13, 90720, Note_on_c, 7, 46, 76
13, 90959, Note_on_c, 7, 46, 0
13, 108240, Note_on_c, 7, 51, 52
13, 108479, Note_on_c, 7, 51, 0
13, 108960, Note_on_c, 7, 51, 52
13, 109199, Note_on_c, 7, 51, 0
13, 111120, Note_on_c, 7, 46, 52
13, 111359, Note_on_c, 7, 46, 0
13, 111840, Note_on_c, 7, 46, 60
13, 112079, Note_on_c, 7, 46, 0
13, 112560, Note_on_c, 7, 51, 68
13, 112799, Note_on_c, 7, 51, 0
13, 113280, Note_on_c, 7, 46, 76
13, 113519, Note_on_c, 7, 46, 0
13, 113520, Note_on_c, 7, 46, 78
13, 113759, Note_on_c, 7, 46, 0
13, 113760, Note_on_c, 7, 46, 81
13, 113999, Note_on_c, 7, 46, 0
13, 114000, Note_on_c, 7, 46, 84
13, 114059, Note_on_c, 7, 46, 0
13, 114060, Note_on_c, 7, 46, 84
13, 114119, Note_on_c, 7, 46, 0
13, 114120, Note_on_c, 7, 46, 84
13, 114179, Note_on_c, 7, 46, 0
13, 114180, Note_on_c, 7, 46, 84
13, 114239, Note_on_c, 7, 46, 0
13, 114240, Note_on_c, 7, 46, 84
13, 114299, Note_on_c, 7, 46, 0
13, 114300, Note_on_c, 7, 46, 84
13, 114359, Note_on_c, 7, 46, 0
13, 114360, Note_on_c, 7, 46, 84
13, 114419, Note_on_c, 7, 46, 0
13, 114420, Note_on_c, 7, 46, 84
13, 114479, Note_on_c, 7, 46, 0
13, 114480, Note_on_c, 7, 46, 84
13, 114539, Note_on_c, 7, 46, 0
13, 114540, Note_on_c, 7, 46, 84
13, 114599, Note_on_c, 7, 46, 0
13, 114600, Note_on_c, 7, 46, 84
13, 114659, Note_on_c, 7, 46, 0
13, 114660, Note_on_c, 7, 46, 84
13, 114719, Note_on_c, 7, 46, 0
13, 114720, Note_on_c, 7, 46, 84
13, 114779, Note_on_c, 7, 46, 0
13, 114780, Note_on_c, 7, 46, 84
13, 114839, Note_on_c, 7, 46, 0
13, 114840, Note_on_c, 7, 46, 84
13, 114899, Note_on_c, 7, 46, 0
13, 114900, Note_on_c, 7, 46, 84
13, 114959, Note_on_c, 7, 46, 0
13, 114960, Note_on_c, 7, 46, 84
13, 115019, Note_on_c, 7, 46, 0
13, 115020, Note_on_c, 7, 46, 84
13, 115079, Note_on_c, 7, 46, 0
13, 115080, Note_on_c, 7, 46, 84
13, 115139, Note_on_c, 7, 46, 0
13, 115140, Note_on_c, 7, 46, 84
13, 115199, Note_on_c, 7, 46, 0
13, 115200, Note_on_c, 7, 46, 84
13, 115259, Note_on_c, 7, 46, 0
13, 115260, Note_on_c, 7, 46, 84
13, 115319, Note_on_c, 7, 46, 0
13, 115320, Note_on_c, 7, 46, 84
13, 115379, Note_on_c, 7, 46, 0
13, 115380, Note_on_c, 7, 46, 84
13, 115439, Note_on_c, 7, 46, 0
13, 115440, Note_on_c, 7, 46, 84
13, 115499, Note_on_c, 7, 46, 0
13, 115500, Note_on_c, 7, 46, 84
13, 115559, Note_on_c, 7, 46, 0
13, 115560, Note_on_c, 7, 46, 84
13, 115619, Note_on_c, 7, 46, 0
13, 115620, Note_on_c, 7, 46, 84
13, 115679, Note_on_c, 7, 46, 0
13, 115680, Note_on_c, 7, 46, 84
13, 115739, Note_on_c, 7, 46, 0
13, 115740, Note_on_c, 7, 46, 84
13, 115799, Note_on_c, 7, 46, 0
13, 115800, Note_on_c, 7, 46, 84
13, 115859, Note_on_c, 7, 46, 0
13, 115860, Note_on_c, 7, 46, 84
13, 115919, Note_on_c, 7, 46, 0
13, 115920, Note_on_c, 7, 46, 84
13, 115979, Note_on_c, 7, 46, 0
13, 115980, Note_on_c, 7, 46, 84
13, 116039, Note_on_c, 7, 46, 0
13, 116040, Note_on_c, 7, 46, 84
13, 116099, Note_on_c, 7, 46, 0
13, 116100, Note_on_c, 7, 46, 84
13, 116159, Note_on_c, 7, 46, 0
13, 116160, Note_on_c, 7, 46, 84
13, 116219, Note_on_c, 7, 46, 0
13, 116220, Note_on_c, 7, 46, 84
13, 116279, Note_on_c, 7, 46, 0
13, 116280, Note_on_c, 7, 46, 84
13, 116339, Note_on_c, 7, 46, 0
13, 116340, Note_on_c, 7, 46, 84
13, 116399, Note_on_c, 7, 46, 0
13, 116400, Note_on_c, 7, 46, 84
13, 116459, Note_on_c, 7, 46, 0
13, 116460, Note_on_c, 7, 46, 84
13, 116519, Note_on_c, 7, 46, 0
13, 116520, Note_on_c, 7, 46, 84
13, 116579, Note_on_c, 7, 46, 0
13, 116580, Note_on_c, 7, 46, 84
13, 116639, Note_on_c, 7, 46, 0
13, 116640, Note_on_c, 7, 46, 84
13, 116699, Note_on_c, 7, 46, 0
13, 116700, Note_on_c, 7, 46, 84
13, 116759, Note_on_c, 7, 46, 0
13, 116760, Note_on_c, 7, 46, 84
13, 116819, Note_on_c, 7, 46, 0
13, 116820, Note_on_c, 7, 46, 84
13, 116879, Note_on_c, 7, 46, 0
13, 116880, Note_on_c, 7, 51, 76
13, 117119, Note_on_c, 7, 51, 0
13, 117600, Note_on_c, 7, 46, 76
13, 117839, Note_on_c, 7, 46, 0
13, 118320, Note_on_c, 7, 46, 76
13, 118559, Note_on_c, 7, 46, 0
13, 164400, Note_on_c, 7, 51, 84
13, 164639, Note_on_c, 7, 51, 0
13, 164640, Note_on_c, 7, 51, 84
13, 164879, Note_on_c, 7, 51, 0
13, 164880, Note_on_c, 7, 51, 84
13, 165119, Note_on_c, 7, 51, 0
13, 165120, Note_on_c, 7, 51, 84
13, 165359, Note_on_c, 7, 51, 0
13, 165360, Note_on_c, 7, 51, 84
13, 165599, Note_on_c, 7, 51, 0
13, 165600, Note_on_c, 7, 51, 84
13, 165839, Note_on_c, 7, 51, 0
13, 165840, Note_on_c, 7, 51, 84
13, 165959, Note_on_c, 7, 51, 0
13, 165960, Note_on_c, 7, 51, 84
13, 166079, Note_on_c, 7, 51, 0
13, 166080, Note_on_c, 7, 51, 84
13, 166199, Note_on_c, 7, 51, 0
13, 166200, Note_on_c, 7, 51, 84
13, 166319, Note_on_c, 7, 51, 0
13, 166320, Note_on_c, 7, 51, 84
13, 166439, Note_on_c, 7, 51, 0
13, 166440, Note_on_c, 7, 51, 84
13, 166559, Note_on_c, 7, 51, 0
13, 166560, Note_on_c, 7, 51, 84
13, 166679, Note_on_c, 7, 51, 0
13, 166680, Note_on_c, 7, 51, 84
13, 166799, Note_on_c, 7, 51, 0
13, 166800, Note_on_c, 7, 51, 84
13, 166919, Note_on_c, 7, 51, 0
13, 166920, Note_on_c, 7, 51, 84
13, 167039, Note_on_c, 7, 51, 0
13, 167040, Note_on_c, 7, 51, 84
13, 167159, Note_on_c, 7, 51, 0
13, 167160, Note_on_c, 7, 51, 84
13, 167279, Note_on_c, 7, 51, 0
13, 167280, Note_on_c, 7, 46, 84
13, 167519, Note_on_c, 7, 46, 0
13, 168000, Note_on_c, 7, 46, 84
13, 168239, Note_on_c, 7, 46, 0
13, 168720, Note_on_c, 7, 46, 84
13, 168959, Note_on_c, 7, 46, 0
13, 169440, Note_on_c, 7, 46, 84
13, 169679, Note_on_c, 7, 46, 0
13, 170160, Note_on_c, 7, 46, 84
13, 170399, Note_on_c, 7, 46, 0
13, 170880, Note_on_c, 7, 46, 84
13, 171119, Note_on_c, 7, 46, 0
13, 171600, Note_on_c, 7, 46, 84
13, 171839, Note_on_c, 7, 46, 0
13, 172320, Note_on_c, 7, 46, 84
13, 172559, Note_on_c, 7, 46, 0
13, 172560, Note_on_c, 7, 51, 84
13, 172799, Note_on_c, 7, 51, 0
13, 172800, Note_on_c, 7, 51, 84
13, 173039, Note_on_c, 7, 51, 0
13, 173040, Note_on_c, 7, 51, 84
13, 173279, Note_on_c, 7, 51, 0
13, 173760, Note_on_c, 7, 51, 84
13, 173999, Note_on_c, 7, 51, 0
13, 174480, Note_on_c, 7, 51, 84
13, 174719, Note_on_c, 7, 51, 0
13, 175200, Note_on_c, 7, 51, 84
13, 175439, Note_on_c, 7, 51, 0
13, 175920, Note_on_c, 7, 51, 84
13, 176159, Note_on_c, 7, 51, 0
13, 176640, Note_on_c, 7, 51, 84
13, 176879, Note_on_c, 7, 51, 0
13, 176880, Note_on_c, 7, 51, 84
13, 177119, Note_on_c, 7, 51, 0
13, 177120, Note_on_c, 7, 51, 84
13, 177359, Note_on_c, 7, 51, 0
13, 177360, Note_on_c, 7, 51, 84
13, 177599, Note_on_c, 7, 51, 0
13, 177600, Note_on_c, 7, 51, 84
13, 177839, Note_on_c, 7, 51, 0
13, 177840, Note_on_c, 7, 51, 84
13, 178079, Note_on_c, 7, 51, 0
13, 178080, Note_on_c, 7, 51, 84
13, 178319, Note_on_c, 7, 51, 0
13, 178320, Note_on_c, 7, 51, 84
13, 178559, Note_on_c, 7, 51, 0
13, 178560, Note_on_c, 7, 51, 84
13, 178799, Note_on_c, 7, 51, 0
13, 178800, Note_on_c, 7, 46, 84
13, 178859, Note_on_c, 7, 46, 0
13, 178860, Note_on_c, 7, 46, 84
13, 178919, Note_on_c, 7, 46, 0
13, 178920, Note_on_c, 7, 46, 84
13, 178979, Note_on_c, 7, 46, 0
13, 178980, Note_on_c, 7, 46, 84
13, 179039, Note_on_c, 7, 46, 0
13, 179040, Note_on_c, 7, 46, 84
13, 179099, Note_on_c, 7, 46, 0
13, 179100, Note_on_c, 7, 46, 84
13, 179159, Note_on_c, 7, 46, 0
13, 179160, Note_on_c, 7, 46, 84
13, 179219, Note_on_c, 7, 46, 0
13, 179220, Note_on_c, 7, 46, 84
13, 179279, Note_on_c, 7, 46, 0
13, 179280, Note_on_c, 7, 46, 84
13, 179339, Note_on_c, 7, 46, 0
13, 179340, Note_on_c, 7, 46, 84
13, 179399, Note_on_c, 7, 46, 0
13, 179400, Note_on_c, 7, 46, 84
13, 179459, Note_on_c, 7, 46, 0
13, 179460, Note_on_c, 7, 46, 84
13, 179519, Note_on_c, 7, 46, 0
13, 179520, Note_on_c, 7, 46, 84
13, 179579, Note_on_c, 7, 46, 0
13, 179580, Note_on_c, 7, 46, 84
13, 179639, Note_on_c, 7, 46, 0
13, 179640, Note_on_c, 7, 46, 84
13, 179699, Note_on_c, 7, 46, 0
13, 179700, Note_on_c, 7, 46, 84
13, 179759, Note_on_c, 7, 46, 0
13, 179760, Note_on_c, 7, 46, 84
13, 179819, Note_on_c, 7, 46, 0
13, 179820, Note_on_c, 7, 46, 84
13, 179879, Note_on_c, 7, 46, 0
13, 179880, Note_on_c, 7, 46, 84
13, 179939, Note_on_c, 7, 46, 0
13, 179940, Note_on_c, 7, 46, 84
13, 179999, Note_on_c, 7, 46, 0
13, 180000, Note_on_c, 7, 46, 84
13, 180059, Note_on_c, 7, 46, 0
13, 180060, Note_on_c, 7, 46, 84
13, 180119, Note_on_c, 7, 46, 0
13, 180120, Note_on_c, 7, 46, 84
13, 180179, Note_on_c, 7, 46, 0
13, 180180, Note_on_c, 7, 46, 84
13, 180239, Note_on_c, 7, 46, 0
13, 180240, Note_on_c, 7, 51, 84
13, 180479, Note_on_c, 7, 51, 0
13, 186000, Note_on_c, 7, 51, 76
13, 186239, Note_on_c, 7, 51, 0
13, 186720, Note_on_c, 7, 51, 76
13, 186959, Note_on_c, 7, 51, 0
13, 187440, Note_on_c, 7, 51, 76
13, 187679, Note_on_c, 7, 51, 0
13, 188160, Note_on_c, 7, 46, 76
13, 188399, Note_on_c, 7, 46, 0
13, 188640, Note_on_c, 7, 46, 76
13, 188879, Note_on_c, 7, 46, 0
13, 206160, Note_on_c, 7, 51, 52
13, 206399, Note_on_c, 7, 51, 0
13, 206880, Note_on_c, 7, 51, 52
13, 207119, Note_on_c, 7, 51, 0
13, 209040, Note_on_c, 7, 46, 52
13, 209279, Note_on_c, 7, 46, 0
13, 209760, Note_on_c, 7, 46, 60
13, 209999, Note_on_c, 7, 46, 0
13, 210480, Note_on_c, 7, 51, 68
13, 210719, Note_on_c, 7, 51, 0
13, 211200, Note_on_c, 7, 46, 76
13, 211439, Note_on_c, 7, 46, 0
13, 211440, Note_on_c, 7, 46, 78
13, 211679, Note_on_c, 7, 46, 0
13, 211680, Note_on_c, 7, 46, 81
13, 211919, Note_on_c, 7, 46, 0
13, 211920, Note_on_c, 7, 46, 84
13, 211979, Note_on_c, 7, 46, 0
13, 211980, Note_on_c, 7, 46, 84
13, 212039, Note_on_c, 7, 46, 0
13, 212040, Note_on_c, 7, 46, 84
13, 212099, Note_on_c, 7, 46, 0
13, 212100, Note_on_c, 7, 46, 84
13, 212159, Note_on_c, 7, 46, 0
13, 212160, Note_on_c, 7, 46, 84
13, 212219, Note_on_c, 7, 46, 0
13, 212220, Note_on_c, 7, 46, 84
13, 212279, Note_on_c, 7, 46, 0
13, 212280, Note_on_c, 7, 46, 84
13, 212339, Note_on_c, 7, 46, 0
13, 212340, Note_on_c, 7, 46, 84
13, 212399, Note_on_c, 7, 46, 0
13, 212400, Note_on_c, 7, 46, 84
13, 212459, Note_on_c, 7, 46, 0
13, 212460, Note_on_c, 7, 46, 84
13, 212519, Note_on_c, 7, 46, 0
13, 212520, Note_on_c, 7, 46, 84
13, 212579, Note_on_c, 7, 46, 0
13, 212580, Note_on_c, 7, 46, 84
13, 212639, Note_on_c, 7, 46, 0
13, 212640, Note_on_c, 7, 46, 84
13, 212699, Note_on_c, 7, 46, 0
13, 212700, Note_on_c, 7, 46, 84
13, 212759, Note_on_c, 7, 46, 0
13, 212760, Note_on_c, 7, 46, 84
13, 212819, Note_on_c, 7, 46, 0
13, 212820, Note_on_c, 7, 46, 84
13, 212879, Note_on_c, 7, 46, 0
13, 212880, Note_on_c, 7, 46, 84
13, 212939, Note_on_c, 7, 46, 0
13, 212940, Note_on_c, 7, 46, 84
13, 212999, Note_on_c, 7, 46, 0
13, 213000, Note_on_c, 7, 46, 84
13, 213059, Note_on_c, 7, 46, 0
13, 213060, Note_on_c, 7, 46, 84
13, 213119, Note_on_c, 7, 46, 0
13, 213120, Note_on_c, 7, 46, 84
13, 213179, Note_on_c, 7, 46, 0
13, 213180, Note_on_c, 7, 46, 84
13, 213239, Note_on_c, 7, 46, 0
13, 213240, Note_on_c, 7, 46, 84
13, 213299, Note_on_c, 7, 46, 0
13, 213300, Note_on_c, 7, 46, 84
13, 213359, Note_on_c, 7, 46, 0
13, 213360, Note_on_c, 7, 46, 84
13, 213419, Note_on_c, 7, 46, 0
13, 213420, Note_on_c, 7, 46, 84
13, 213479, Note_on_c, 7, 46, 0
13, 213480, Note_on_c, 7, 46, 84
13, 213539, Note_on_c, 7, 46, 0
13, 213540, Note_on_c, 7, 46, 84
13, 213599, Note_on_c, 7, 46, 0
13, 213600, Note_on_c, 7, 46, 84
13, 213659, Note_on_c, 7, 46, 0
13, 213660, Note_on_c, 7, 46, 84
13, 213719, Note_on_c, 7, 46, 0
13, 213720, Note_on_c, 7, 46, 84
13, 213779, Note_on_c, 7, 46, 0
13, 213780, Note_on_c, 7, 46, 84
13, 213839, Note_on_c, 7, 46, 0
13, 213840, Note_on_c, 7, 46, 84
13, 213899, Note_on_c, 7, 46, 0
13, 213900, Note_on_c, 7, 46, 84
13, 213959, Note_on_c, 7, 46, 0
13, 213960, Note_on_c, 7, 46, 84
13, 214019, Note_on_c, 7, 46, 0
13, 214020, Note_on_c, 7, 46, 84
13, 214079, Note_on_c, 7, 46, 0
13, 214080, Note_on_c, 7, 46, 84
13, 214139, Note_on_c, 7, 46, 0
13, 214140, Note_on_c, 7, 46, 84
13, 214199, Note_on_c, 7, 46, 0
13, 214200, Note_on_c, 7, 46, 84
13, 214259, Note_on_c, 7, 46, 0
13, 214260, Note_on_c, 7, 46, 84
13, 214319, Note_on_c, 7, 46, 0
13, 214320, Note_on_c, 7, 46, 84
13, 214379, Note_on_c, 7, 46, 0
13, 214380, Note_on_c, 7, 46, 84
13, 214439, Note_on_c, 7, 46, 0
13, 214440, Note_on_c, 7, 46, 84
13, 214499, Note_on_c, 7, 46, 0
13, 214500, Note_on_c, 7, 46, 84
13, 214559, Note_on_c, 7, 46, 0
13, 214560, Note_on_c, 7, 46, 84
13, 214619, Note_on_c, 7, 46, 0
13, 214620, Note_on_c, 7, 46, 84
13, 214679, Note_on_c, 7, 46, 0
13, 214680, Note_on_c, 7, 46, 84
13, 214739, Note_on_c, 7, 46, 0
13, 214740, Note_on_c, 7, 46, 84
13, 214799, Note_on_c, 7, 46, 0
13, 214800, Note_on_c, 7, 51, 76
13, 215039, Note_on_c, 7, 51, 0
13, 215520, Note_on_c, 7, 46, 76
13, 215759, Note_on_c, 7, 46, 0
13, 216240, Note_on_c, 7, 51, 76
13, 216479, Note_on_c, 7, 51, 0
13, 394800, Note_on_c, 7, 51, 84
13, 395039, Note_on_c, 7, 51, 0
13, 395040, Note_on_c, 7, 51, 84
13, 395279, Note_on_c, 7, 51, 0
13, 395280, Note_on_c, 7, 51, 84
13, 395519, Note_on_c, 7, 51, 0
13, 395520, Note_on_c, 7, 51, 84
13, 395759, Note_on_c, 7, 51, 0
13, 395760, Note_on_c, 7, 51, 84
13, 395999, Note_on_c, 7, 51, 0
13, 396000, Note_on_c, 7, 51, 84
13, 396239, Note_on_c, 7, 51, 0
13, 396240, Note_on_c, 7, 51, 84
13, 396359, Note_on_c, 7, 51, 0
13, 396360, Note_on_c, 7, 51, 84
13, 396479, Note_on_c, 7, 51, 0
13, 396480, Note_on_c, 7, 51, 84
13, 396599, Note_on_c, 7, 51, 0
13, 396600, Note_on_c, 7, 51, 84
13, 396719, Note_on_c, 7, 51, 0
13, 396720, Note_on_c, 7, 51, 84
13, 396839, Note_on_c, 7, 51, 0
13, 396840, Note_on_c, 7, 51, 84
13, 396959, Note_on_c, 7, 51, 0
13, 396960, Note_on_c, 7, 51, 84
13, 397079, Note_on_c, 7, 51, 0
13, 397080, Note_on_c, 7, 51, 84
13, 397199, Note_on_c, 7, 51, 0
13, 397200, Note_on_c, 7, 51, 84
13, 397319, Note_on_c, 7, 51, 0
13, 397320, Note_on_c, 7, 51, 84
13, 397439, Note_on_c, 7, 51, 0
13, 397440, Note_on_c, 7, 51, 84
13, 397559, Note_on_c, 7, 51, 0
13, 397560, Note_on_c, 7, 51, 84
13, 397679, Note_on_c, 7, 51, 0
13, 397680, Note_on_c, 7, 46, 84
13, 397919, Note_on_c, 7, 46, 0
13, 398400, Note_on_c, 7, 46, 84
13, 398639, Note_on_c, 7, 46, 0
13, 399120, Note_on_c, 7, 46, 84
13, 399359, Note_on_c, 7, 46, 0
13, 399840, Note_on_c, 7, 46, 84
13, 400079, Note_on_c, 7, 46, 0
13, 400560, Note_on_c, 7, 46, 84
13, 400799, Note_on_c, 7, 46, 0
13, 401280, Note_on_c, 7, 46, 84
13, 401519, Note_on_c, 7, 46, 0
13, 402000, Note_on_c, 7, 46, 84
13, 402239, Note_on_c, 7, 46, 0
13, 402720, Note_on_c, 7, 46, 84
13, 402959, Note_on_c, 7, 46, 0
13, 402960, Note_on_c, 7, 51, 84
13, 403199, Note_on_c, 7, 51, 0
13, 403200, Note_on_c, 7, 51, 84
13, 403439, Note_on_c, 7, 51, 0
13, 403440, Note_on_c, 7, 51, 84
13, 403679, Note_on_c, 7, 51, 0
13, 404160, Note_on_c, 7, 51, 84
13, 404399, Note_on_c, 7, 51, 0
13, 404880, Note_on_c, 7, 51, 84
13, 405119, Note_on_c, 7, 51, 0
13, 405600, Note_on_c, 7, 51, 84
13, 405839, Note_on_c, 7, 51, 0
13, 406320, Note_on_c, 7, 51, 84
13, 406559, Note_on_c, 7, 51, 0
13, 407040, Note_on_c, 7, 51, 84
13, 407279, Note_on_c, 7, 51, 0
13, 407280, Note_on_c, 7, 51, 84
13, 407519, Note_on_c, 7, 51, 0
13, 407520, Note_on_c, 7, 51, 84
13, 407759, Note_on_c, 7, 51, 0
13, 407760, Note_on_c, 7, 51, 84
13, 407999, Note_on_c, 7, 51, 0
13, 408000, Note_on_c, 7, 51, 84
13, 408239, Note_on_c, 7, 51, 0
13, 408240, Note_on_c, 7, 51, 84
13, 408479, Note_on_c, 7, 51, 0
13, 408480, Note_on_c, 7, 51, 84
13, 408719, Note_on_c, 7, 51, 0
13, 408720, Note_on_c, 7, 51, 84
13, 408959, Note_on_c, 7, 51, 0
13, 408960, Note_on_c, 7, 51, 84
13, 409199, Note_on_c, 7, 51, 0
13, 409200, Note_on_c, 7, 46, 84
13, 409259, Note_on_c, 7, 46, 0
13, 409260, Note_on_c, 7, 46, 84
13, 409319, Note_on_c, 7, 46, 0
13, 409320, Note_on_c, 7, 46, 84
13, 409379, Note_on_c, 7, 46, 0
13, 409380, Note_on_c, 7, 46, 84
13, 409439, Note_on_c, 7, 46, 0
13, 409440, Note_on_c, 7, 46, 84
13, 409499, Note_on_c, 7, 46, 0
13, 409500, Note_on_c, 7, 46, 84
13, 409559, Note_on_c, 7, 46, 0
13, 409560, Note_on_c, 7, 46, 84
13, 409619, Note_on_c, 7, 46, 0
13, 409620, Note_on_c, 7, 46, 84
13, 409679, Note_on_c, 7, 46, 0
13, 409680, Note_on_c, 7, 46, 84
13, 409739, Note_on_c, 7, 46, 0
13, 409740, Note_on_c, 7, 46, 84
13, 409799, Note_on_c, 7, 46, 0
13, 409800, Note_on_c, 7, 46, 84
13, 409859, Note_on_c, 7, 46, 0
13, 409860, Note_on_c, 7, 46, 84
13, 409919, Note_on_c, 7, 46, 0
13, 409920, Note_on_c, 7, 46, 84
13, 409979, Note_on_c, 7, 46, 0
13, 409980, Note_on_c, 7, 46, 84
13, 410039, Note_on_c, 7, 46, 0
13, 410040, Note_on_c, 7, 46, 84
13, 410099, Note_on_c, 7, 46, 0
13, 410100, Note_on_c, 7, 46, 84
13, 410159, Note_on_c, 7, 46, 0
13, 410160, Note_on_c, 7, 46, 84
13, 410219, Note_on_c, 7, 46, 0
13, 410220, Note_on_c, 7, 46, 84
13, 410279, Note_on_c, 7, 46, 0
13, 410280, Note_on_c, 7, 46, 84
13, 410339, Note_on_c, 7, 46, 0
13, 410340, Note_on_c, 7, 46, 84
13, 410399, Note_on_c, 7, 46, 0
13, 410400, Note_on_c, 7, 46, 84
13, 410459, Note_on_c, 7, 46, 0
13, 410460, Note_on_c, 7, 46, 84
13, 410519, Note_on_c, 7, 46, 0
13, 410520, Note_on_c, 7, 46, 84
13, 410579, Note_on_c, 7, 46, 0
13, 410580, Note_on_c, 7, 46, 84
13, 410639, Note_on_c, 7, 46, 0
13, 410640, Note_on_c, 7, 51, 84
13, 410879, Note_on_c, 7, 51, 0
13, 416400, Note_on_c, 7, 51, 76
13, 416519, Note_on_c, 7, 51, 0
13, 416880, Note_on_c, 7, 51, 76
13, 416999, Note_on_c, 7, 51, 0
13, 417360, Note_on_c, 7, 51, 76
13, 417479, Note_on_c, 7, 51, 0
13, 417840, Note_on_c, 7, 46, 76
13, 417879, Note_on_c, 7, 46, 0
13, 417880, Note_on_c, 7, 46, 76
13, 417919, Note_on_c, 7, 46, 0
13, 417920, Note_on_c, 7, 46, 76
13, 417959, Note_on_c, 7, 46, 0
13, 417960, Note_on_c, 7, 46, 76
13, 417999, Note_on_c, 7, 46, 0
13, 418000, Note_on_c, 7, 46, 76
13, 418039, Note_on_c, 7, 46, 0
13, 418040, Note_on_c, 7, 46, 76
13, 418079, Note_on_c, 7, 46, 0
13, 418080, Note_on_c, 7, 46, 76
13, 418119, Note_on_c, 7, 46, 0
13, 418120, Note_on_c, 7, 46, 76
13, 418159, Note_on_c, 7, 46, 0
13, 418160, Note_on_c, 7, 46, 76
13, 418199, Note_on_c, 7, 46, 0
13, 418200, Note_on_c, 7, 46, 76
13, 418239, Note_on_c, 7, 46, 0
13, 418240, Note_on_c, 7, 46, 76
13, 418279, Note_on_c, 7, 46, 0
13, 418280, Note_on_c, 7, 46, 76
13, 418319, Note_on_c, 7, 46, 0
13, 435600, Note_on_c, 7, 51, 52
13, 435839, Note_on_c, 7, 51, 0
13, 436320, Note_on_c, 7, 51, 52
13, 436559, Note_on_c, 7, 51, 0
13, 438480, Note_on_c, 7, 46, 52
13, 438719, Note_on_c, 7, 46, 0
13, 439200, Note_on_c, 7, 46, 60
13, 439439, Note_on_c, 7, 46, 0
13, 439920, Note_on_c, 7, 51, 68
13, 440159, Note_on_c, 7, 51, 0
13, 440640, Note_on_c, 7, 46, 76
13, 440879, Note_on_c, 7, 46, 0
13, 440880, Note_on_c, 7, 46, 78
13, 441119, Note_on_c, 7, 46, 0
13, 441120, Note_on_c, 7, 46, 81
13, 441359, Note_on_c, 7, 46, 0
13, 441360, Note_on_c, 7, 46, 84
13, 441419, Note_on_c, 7, 46, 0
13, 441420, Note_on_c, 7, 46, 84
13, 441479, Note_on_c, 7, 46, 0
13, 441480, Note_on_c, 7, 46, 84
13, 441539, Note_on_c, 7, 46, 0
13, 441540, Note_on_c, 7, 46, 84
13, 441599, Note_on_c, 7, 46, 0
13, 441600, Note_on_c, 7, 46, 84
13, 441659, Note_on_c, 7, 46, 0
13, 441660, Note_on_c, 7, 46, 84
13, 441719, Note_on_c, 7, 46, 0
13, 441720, Note_on_c, 7, 46, 84
13, 441779, Note_on_c, 7, 46, 0
13, 441780, Note_on_c, 7, 46, 84
13, 441839, Note_on_c, 7, 46, 0
13, 441840, Note_on_c, 7, 46, 84
13, 441899, Note_on_c, 7, 46, 0
13, 441900, Note_on_c, 7, 46, 84
13, 441959, Note_on_c, 7, 46, 0
13, 441960, Note_on_c, 7, 46, 84
13, 442019, Note_on_c, 7, 46, 0
13, 442020, Note_on_c, 7, 46, 84
13, 442079, Note_on_c, 7, 46, 0
13, 442080, Note_on_c, 7, 46, 84
13, 442139, Note_on_c, 7, 46, 0
13, 442140, Note_on_c, 7, 46, 84
13, 442199, Note_on_c, 7, 46, 0
13, 442200, Note_on_c, 7, 46, 84
13, 442259, Note_on_c, 7, 46, 0
13, 442260, Note_on_c, 7, 46, 84
13, 442319, Note_on_c, 7, 46, 0
13, 442320, Note_on_c, 7, 46, 84
13, 442379, Note_on_c, 7, 46, 0
13, 442380, Note_on_c, 7, 46, 84
13, 442439, Note_on_c, 7, 46, 0
13, 442440, Note_on_c, 7, 46, 84
13, 442499, Note_on_c, 7, 46, 0
13, 442500, Note_on_c, 7, 46, 84
13, 442559, Note_on_c, 7, 46, 0
13, 442560, Note_on_c, 7, 46, 84
13, 442619, Note_on_c, 7, 46, 0
13, 442620, Note_on_c, 7, 46, 84
13, 442679, Note_on_c, 7, 46, 0
13, 442680, Note_on_c, 7, 46, 84
13, 442739, Note_on_c, 7, 46, 0
13, 442740, Note_on_c, 7, 46, 84
13, 442799, Note_on_c, 7, 46, 0
13, 442800, Note_on_c, 7, 46, 84
13, 442859, Note_on_c, 7, 46, 0
13, 442860, Note_on_c, 7, 46, 84
13, 442919, Note_on_c, 7, 46, 0
13, 442920, Note_on_c, 7, 46, 84
13, 442979, Note_on_c, 7, 46, 0
13, 442980, Note_on_c, 7, 46, 84
13, 443039, Note_on_c, 7, 46, 0
13, 443040, Note_on_c, 7, 46, 84
13, 443099, Note_on_c, 7, 46, 0
13, 443100, Note_on_c, 7, 46, 84
13, 443159, Note_on_c, 7, 46, 0
13, 443160, Note_on_c, 7, 46, 84
13, 443219, Note_on_c, 7, 46, 0
13, 443220, Note_on_c, 7, 46, 84
13, 443279, Note_on_c, 7, 46, 0
13, 443280, Note_on_c, 7, 46, 84
13, 443339, Note_on_c, 7, 46, 0
13, 443340, Note_on_c, 7, 46, 84
13, 443399, Note_on_c, 7, 46, 0
13, 443400, Note_on_c, 7, 46, 84
13, 443459, Note_on_c, 7, 46, 0
13, 443460, Note_on_c, 7, 46, 84
13, 443519, Note_on_c, 7, 46, 0
13, 443520, Note_on_c, 7, 46, 84
13, 443579, Note_on_c, 7, 46, 0
13, 443580, Note_on_c, 7, 46, 84
13, 443639, Note_on_c, 7, 46, 0
13, 443640, Note_on_c, 7, 46, 84
13, 443699, Note_on_c, 7, 46, 0
13, 443700, Note_on_c, 7, 46, 84
13, 443759, Note_on_c, 7, 46, 0
13, 443760, Note_on_c, 7, 46, 84
13, 443819, Note_on_c, 7, 46, 0
13, 443820, Note_on_c, 7, 46, 84
13, 443879, Note_on_c, 7, 46, 0
13, 443880, Note_on_c, 7, 46, 84
13, 443939, Note_on_c, 7, 46, 0
13, 443940, Note_on_c, 7, 46, 84
13, 443999, Note_on_c, 7, 46, 0
13, 444000, Note_on_c, 7, 46, 84
13, 444059, Note_on_c, 7, 46, 0
13, 444060, Note_on_c, 7, 46, 84
13, 444119, Note_on_c, 7, 46, 0
13, 444120, Note_on_c, 7, 46, 84
13, 444179, Note_on_c, 7, 46, 0
13, 444180, Note_on_c, 7, 46, 84
13, 444239, Note_on_c, 7, 46, 0
13, 444240, Note_on_c, 7, 51, 76
13, 444479, Note_on_c, 7, 51, 0
13, 444960, Note_on_c, 7, 46, 76
13, 445199, Note_on_c, 7, 46, 0
13, 445680, Note_on_c, 7, 51, 44
13, 445919, Note_on_c, 7, 51, 0
13, 445920, Note_on_c, 7, 46, 44
13, 446159, Note_on_c, 7, 46, 0
13, 446160, Note_on_c, 7, 51, 44
13, 446399, Note_on_c, 7, 51, 0
13, 446400, Note_on_c, 7, 46, 44
13, 446639, Note_on_c, 7, 46, 0
13, 446640, Note_on_c, 7, 51, 44
13, 446879, Note_on_c, 7, 51, 0
13, 446880, Note_on_c, 7, 46, 44
13, 447119, Note_on_c, 7, 46, 0
13, 447120, Note_on_c, 7, 51, 44
13, 447359, Note_on_c, 7, 51, 0
13, 447360, Note_on_c, 7, 46, 44
13, 447599, Note_on_c, 7, 46, 0
13, 447600, Note_on_c, 7, 51, 44
13, 447839, Note_on_c, 7, 51, 0
13, 447840, Note_on_c, 7, 46, 44
13, 448079, Note_on_c, 7, 46, 0
13, 448080, Note_on_c, 7, 51, 44
13, 448319, Note_on_c, 7, 51, 0
13, 448320, Note_on_c, 7, 46, 44
13, 448559, Note_on_c, 7, 46, 0
13, 448560, Note_on_c, 7, 51, 44
13, 448799, Note_on_c, 7, 51, 0
13, 448800, Note_on_c, 7, 46, 44
13, 449039, Note_on_c, 7, 46, 0
13, 449040, Note_on_c, 7, 51, 44
13, 449279, Note_on_c, 7, 51, 0
13, 449280, Note_on_c, 7, 46, 44
13, 449519, Note_on_c, 7, 46, 0
13, 449520, Note_on_c, 7, 51, 44
13, 449759, Note_on_c, 7, 51, 0
13, 449760, Note_on_c, 7, 46, 44
13, 449999, Note_on_c, 7, 46, 0
13, 450000, Note_on_c, 7, 51, 44
13, 450239, Note_on_c, 7, 51, 0
13, 450240, Note_on_c, 7, 46, 44
13, 450479, Note_on_c, 7, 46, 0
13, 450480, Note_on_c, 7, 51, 44
13, 450719, Note_on_c, 7, 51, 0
13, 450720, Note_on_c, 7, 46, 44
13, 450959, Note_on_c, 7, 46, 0
13, 450960, Note_on_c, 7, 51, 44
13, 451199, Note_on_c, 7, 51, 0
13, 451200, Note_on_c, 7, 46, 44
13, 451439, Note_on_c, 7, 46, 0
13, 451440, Note_on_c, 7, 51, 44
13, 451679, Note_on_c, 7, 51, 0
13, 451680, Note_on_c, 7, 46, 45
13, 451919, Note_on_c, 7, 46, 0
13, 451920, Note_on_c, 7, 51, 47
13, 452159, Note_on_c, 7, 51, 0
13, 452160, Note_on_c, 7, 46, 49
13, 452399, Note_on_c, 7, 46, 0
13, 452400, Note_on_c, 7, 51, 51
13, 452639, Note_on_c, 7, 51, 0
13, 452640, Note_on_c, 7, 46, 52
13, 452879, Note_on_c, 7, 46, 0
13, 452880, Note_on_c, 7, 51, 54
13, 453119, Note_on_c, 7, 51, 0
13, 453120, Note_on_c, 7, 46, 56
13, 453359, Note_on_c, 7, 46, 0
13, 453360, Note_on_c, 7, 51, 58
13, 453599, Note_on_c, 7, 51, 0
13, 453600, Note_on_c, 7, 46, 60
13, 453839, Note_on_c, 7, 46, 0
13, 453840, Note_on_c, 7, 51, 61
13, 454079, Note_on_c, 7, 51, 0
13, 454080, Note_on_c, 7, 46, 63
13, 454319, Note_on_c, 7, 46, 0
13, 454320, Note_on_c, 7, 51, 65
13, 454439, Note_on_c, 7, 51, 0
13, 454440, Note_on_c, 7, 46, 66
13, 454559, Note_on_c, 7, 46, 0
13, 454560, Note_on_c, 7, 51, 67
13, 454679, Note_on_c, 7, 51, 0
13, 454680, Note_on_c, 7, 46, 68
13, 454799, Note_on_c, 7, 46, 0
13, 454800, Note_on_c, 7, 51, 68
13, 454919, Note_on_c, 7, 51, 0
13, 454920, Note_on_c, 7, 46, 69
13, 455039, Note_on_c, 7, 46, 0
13, 455040, Note_on_c, 7, 51, 70
13, 455159, Note_on_c, 7, 51, 0
13, 455160, Note_on_c, 7, 46, 71
13, 455279, Note_on_c, 7, 46, 0
13, 455280, Note_on_c, 7, 51, 72
13, 455399, Note_on_c, 7, 51, 0
13, 455400, Note_on_c, 7, 46, 73
13, 455519, Note_on_c, 7, 46, 0
13, 455520, Note_on_c, 7, 51, 74
13, 455639, Note_on_c, 7, 51, 0
13, 455640, Note_on_c, 7, 46, 75
13, 455759, Note_on_c, 7, 46, 0
13, 455760, Note_on_c, 7, 51, 76
13, 455879, Note_on_c, 7, 51, 0
13, 455880, Note_on_c, 7, 46, 76
13, 455999, Note_on_c, 7, 46, 0
13, 456000, Note_on_c, 7, 51, 76
13, 456119, Note_on_c, 7, 51, 0
13, 456120, Note_on_c, 7, 46, 76
13, 456239, Note_on_c, 7, 46, 0
13, 456240, Note_on_c, 7, 51, 76
13, 456359, Note_on_c, 7, 51, 0
13, 456360, Note_on_c, 7, 46, 76
13, 456479, Note_on_c, 7, 46, 0
13, 456480, Note_on_c, 7, 51, 76
13, 456599, Note_on_c, 7, 51, 0
13, 456600, Note_on_c, 7, 46, 76
13, 456719, Note_on_c, 7, 46, 0
13, 456720, Note_on_c, 7, 51, 76
13, 456839, Note_on_c, 7, 51, 0
13, 456840, Note_on_c, 7, 46, 76
13, 456959, Note_on_c, 7, 46, 0
13, 456960, Note_on_c, 7, 51, 76
13, 457079, Note_on_c, 7, 51, 0
13, 457080, Note_on_c, 7, 46, 76
13, 457199, Note_on_c, 7, 46, 0
13, 457200, Note_on_c, 7, 51, 84
13, 457439, Note_on_c, 7, 51, 0
13, 457920, Note_on_c, 7, 46, 84
13, 458159, Note_on_c, 7, 46, 0
13, 458640, Note_on_c, 7, 51, 84
13, 458879, Note_on_c, 7, 51, 0
13, 458879, End_track
14, 0, Start_track
14, 0, Title_t, "Violin I"
14, 0, MIDI_port, 0
14, 0, Program_c, 11, 48
14, 0, Control_c, 11, 7, 96
14, 0, Control_c, 11, 10, 48
14, 0, Control_c, 11, 11, 127
14, 0, Note_on_c, 11, 58, 44
14, 119, Note_on_c, 11, 58, 0
14, 240, Note_on_c, 11, 58, 44
14, 359, Note_on_c, 11, 58, 0
14, 480, Note_on_c, 11, 60, 44
14, 599, Note_on_c, 11, 60, 0
14, 720, Note_on_c, 11, 58, 44
14, 839, Note_on_c, 11, 58, 0
14, 960, Note_on_c, 11, 60, 44
14, 1079, Note_on_c, 11, 60, 0
14, 1200, Note_on_c, 11, 58, 44
14, 1319, Note_on_c, 11, 58, 0
14, 1440, Note_on_c, 11, 60, 44
14, 1559, Note_on_c, 11, 60, 0
14, 1680, Note_on_c, 11, 58, 44
14, 1799, Note_on_c, 11, 58, 0
14, 1920, Note_on_c, 11, 60, 44
14, 2039, Note_on_c, 11, 60, 0
14, 2160, Note_on_c, 11, 58, 44
14, 2279, Note_on_c, 11, 58, 0
14, 2400, Note_on_c, 11, 60, 44
14, 2519, Note_on_c, 11, 60, 0
14, 2640, Note_on_c, 11, 58, 44
14, 2759, Note_on_c, 11, 58, 0
14, 2880, Note_on_c, 11, 62, 44
14, 2999, Note_on_c, 11, 62, 0
14, 3120, Note_on_c, 11, 63, 44
14, 3239, Note_on_c, 11, 63, 0
14, 3360, Note_on_c, 11, 65, 44
14, 3479, Note_on_c, 11, 65, 0
14, 3600, Note_on_c, 11, 66, 44
14, 3719, Note_on_c, 11, 66, 0
14, 3840, Note_on_c, 11, 67, 44
14, 3959, Note_on_c, 11, 67, 0
14, 4080, Note_on_c, 11, 68, 44
14, 4199, Note_on_c, 11, 68, 0
14, 4320, Note_on_c, 11, 69, 44
14, 4439, Note_on_c, 11, 69, 0
14, 4560, Note_on_c, 11, 70, 44
14, 4679, Note_on_c, 11, 70, 0
14, 4800, Note_on_c, 11, 70, 44
14, 4919, Note_on_c, 11, 70, 0
14, 5040, Note_on_c, 11, 70, 44
14, 5159, Note_on_c, 11, 70, 0
14, 5280, Note_on_c, 11, 70, 44
14, 5399, Note_on_c, 11, 70, 0
14, 5520, Note_on_c, 11, 70, 44
14, 5639, Note_on_c, 11, 70, 0
14, 5760, Note_on_c, 11, 70, 44
14, 5879, Note_on_c, 11, 70, 0
14, 6000, Note_on_c, 11, 70, 44
14, 6239, Note_on_c, 11, 70, 0
14, 6240, Note_on_c, 11, 72, 44
14, 6359, Note_on_c, 11, 72, 0
14, 6360, Note_on_c, 11, 70, 44
14, 6479, Note_on_c, 11, 70, 0
14, 6480, Note_on_c, 11, 69, 44
14, 6599, Note_on_c, 11, 69, 0
14, 6600, Note_on_c, 11, 67, 44
14, 6689, Note_on_c, 11, 67, 0
14, 6720, Note_on_c, 11, 65, 44
14, 7409, Note_on_c, 11, 65, 0
14, 7440, Note_on_c, 11, 63, 44
14, 8129, Note_on_c, 11, 63, 0
14, 8160, Note_on_c, 11, 62, 44
14, 8399, Note_on_c, 11, 62, 0
14, 8400, Note_on_c, 11, 65, 44
14, 8609, Note_on_c, 11, 65, 0
14, 8640, Note_on_c, 11, 62, 44
14, 8759, Note_on_c, 11, 62, 0
14, 8880, Note_on_c, 11, 60, 44
14, 9119, Note_on_c, 11, 60, 0
14, 9120, Note_on_c, 11, 63, 44
14, 9329, Note_on_c, 11, 63, 0
14, 9360, Note_on_c, 11, 60, 44
14, 9479, Note_on_c, 11, 60, 0
14, 9600, Note_on_c, 11, 58, 44
14, 9839, Note_on_c, 11, 58, 0
14, 10080, Note_on_c, 11, 58, 44
14, 10199, Note_on_c, 11, 58, 0
14, 10320, Note_on_c, 11, 58, 44
14, 10439, Note_on_c, 11, 58, 0
14, 10560, Note_on_c, 11, 60, 44
14, 10679, Note_on_c, 11, 60, 0
14, 10800, Note_on_c, 11, 58, 44
14, 10919, Note_on_c, 11, 58, 0
14, 11040, Note_on_c, 11, 60, 44
14, 11159, Note_on_c, 11, 60, 0
14, 11280, Note_on_c, 11, 58, 44
14, 11399, Note_on_c, 11, 58, 0
14, 11520, Note_on_c, 11, 60, 44
14, 11639, Note_on_c, 11, 60, 0
14, 11760, Note_on_c, 11, 58, 44
14, 11879, Note_on_c, 11, 58, 0
14, 12000, Note_on_c, 11, 60, 44
14, 12119, Note_on_c, 11, 60, 0
14, 12240, Note_on_c, 11, 58, 44
14, 12359, Note_on_c, 11, 58, 0
14, 12480, Note_on_c, 11, 60, 44
14, 12599, Note_on_c, 11, 60, 0
14, 12720, Note_on_c, 11, 58, 44
14, 12839, Note_on_c, 11, 58, 0
14, 12960, Note_on_c, 11, 62, 44
14, 13079, Note_on_c, 11, 62, 0
14, 13200, Note_on_c, 11, 63, 44
14, 13319, Note_on_c, 11, 63, 0
14, 13440, Note_on_c, 11, 65, 44
14, 13559, Note_on_c, 11, 65, 0
14, 13680, Note_on_c, 11, 66, 44
14, 13799, Note_on_c, 11, 66, 0
14, 13920, Note_on_c, 11, 67, 44
14, 14039, Note_on_c, 11, 67, 0
14, 14160, Note_on_c, 11, 68, 44
14, 14279, Note_on_c, 11, 68, 0
14, 14400, Note_on_c, 11, 69, 44
14, 14519, Note_on_c, 11, 69, 0
14, 14640, Note_on_c, 11, 70, 44
14, 14759, Note_on_c, 11, 70, 0
14, 14880, Note_on_c, 11, 70, 44
14, 14999, Note_on_c, 11, 70, 0
14, 15120, Note_on_c, 11, 70, 44
14, 15239, Note_on_c, 11, 70, 0
14, 15360, Note_on_c, 11, 70, 44
14, 15479, Note_on_c, 11, 70, 0
14, 15600, Note_on_c, 11, 70, 44
14, 15719, Note_on_c, 11, 70, 0
14, 15840, Note_on_c, 11, 70, 44
14, 15959, Note_on_c, 11, 70, 0
14, 16080, Note_on_c, 11, 70, 44
14, 16319, Note_on_c, 11, 70, 0
14, 16320, Note_on_c, 11, 72, 44
14, 16439, Note_on_c, 11, 72, 0
14, 16440, Note_on_c, 11, 70, 44
14, 16559, Note_on_c, 11, 70, 0
14, 16560, Note_on_c, 11, 69, 44
14, 16679, Note_on_c, 11, 69, 0
14, 16680, Note_on_c, 11, 67, 44
14, 16769, Note_on_c, 11, 67, 0
14, 16800, Note_on_c, 11, 65, 44
14, 17489, Note_on_c, 11, 65, 0
14, 17520, Note_on_c, 11, 63, 44
14, 18209, Note_on_c, 11, 63, 0
14, 18240, Note_on_c, 11, 62, 44
14, 18479, Note_on_c, 11, 62, 0
14, 18480, Note_on_c, 11, 65, 44
14, 18689, Note_on_c, 11, 65, 0
14, 18720, Note_on_c, 11, 62, 44
14, 18839, Note_on_c, 11, 62, 0
14, 18960, Note_on_c, 11, 60, 44
14, 19199, Note_on_c, 11, 60, 0
14, 19200, Note_on_c, 11, 63, 44
14, 19409, Note_on_c, 11, 63, 0
14, 19440, Note_on_c, 11, 60, 44
14, 19559, Note_on_c, 11, 60, 0
14, 19680, Note_on_c, 11, 58, 44
14, 19799, Note_on_c, 11, 58, 0
14, 20160, Note_on_c, 11, 58, 44
14, 20279, Note_on_c, 11, 58, 0
14, 20400, Note_on_c, 11, 58, 44
14, 20519, Note_on_c, 11, 58, 0
14, 20640, Note_on_c, 11, 59, 44
14, 20759, Note_on_c, 11, 59, 0
14, 20880, Note_on_c, 11, 58, 44
14, 20999, Note_on_c, 11, 58, 0
14, 21120, Note_on_c, 11, 59, 44
14, 21239, Note_on_c, 11, 59, 0
14, 21360, Note_on_c, 11, 58, 44
14, 21479, Note_on_c, 11, 58, 0
14, 21600, Note_on_c, 11, 59, 44
14, 21719, Note_on_c, 11, 59, 0
14, 21840, Note_on_c, 11, 58, 44
14, 21959, Note_on_c, 11, 58, 0
14, 22080, Note_on_c, 11, 59, 44
14, 22199, Note_on_c, 11, 59, 0
14, 22320, Note_on_c, 11, 58, 44
14, 22439, Note_on_c, 11, 58, 0
14, 22560, Note_on_c, 11, 59, 44
14, 22679, Note_on_c, 11, 59, 0
14, 22800, Note_on_c, 11, 59, 44
14, 22919, Note_on_c, 11, 59, 0
14, 23040, Note_on_c, 11, 60, 44
14, 23159, Note_on_c, 11, 60, 0
14, 23280, Note_on_c, 11, 60, 44
14, 23399, Note_on_c, 11, 60, 0
14, 23520, Note_on_c, 11, 61, 44
14, 23639, Note_on_c, 11, 61, 0
14, 23760, Note_on_c, 11, 60, 44
14, 23879, Note_on_c, 11, 60, 0
14, 24000, Note_on_c, 11, 61, 44
14, 24119, Note_on_c, 11, 61, 0
14, 24240, Note_on_c, 11, 60, 44
14, 24359, Note_on_c, 11, 60, 0
14, 24480, Note_on_c, 11, 61, 44
14, 24599, Note_on_c, 11, 61, 0
14, 24720, Note_on_c, 11, 60, 44
14, 24839, Note_on_c, 11, 60, 0
14, 24960, Note_on_c, 11, 61, 44
14, 25079, Note_on_c, 11, 61, 0
14, 25200, Note_on_c, 11, 60, 44
14, 25319, Note_on_c, 11, 60, 0
14, 25440, Note_on_c, 11, 61, 44
14, 25559, Note_on_c, 11, 61, 0
14, 25680, Note_on_c, 11, 61, 44
14, 25799, Note_on_c, 11, 61, 0
14, 25920, Note_on_c, 11, 60, 44
14, 26039, Note_on_c, 11, 60, 0
14, 26160, Note_on_c, 11, 60, 44
14, 26279, Note_on_c, 11, 60, 0
14, 26400, Note_on_c, 11, 61, 44
14, 26519, Note_on_c, 11, 61, 0
14, 26640, Note_on_c, 11, 61, 44
14, 26759, Note_on_c, 11, 61, 0
14, 26880, Note_on_c, 11, 61, 44
14, 26999, Note_on_c, 11, 61, 0
14, 27120, Note_on_c, 11, 62, 44
14, 27239, Note_on_c, 11, 62, 0
14, 27360, Note_on_c, 11, 62, 44
14, 27479, Note_on_c, 11, 62, 0
14, 27600, Note_on_c, 11, 62, 44
14, 27719, Note_on_c, 11, 62, 0
14, 27840, Note_on_c, 11, 63, 44
14, 27959, Note_on_c, 11, 63, 0
14, 28080, Note_on_c, 11, 63, 44
14, 28199, Note_on_c, 11, 63, 0
14, 28320, Note_on_c, 11, 63, 44
14, 28439, Note_on_c, 11, 63, 0
14, 28560, Note_on_c, 11, 64, 44
14, 28679, Note_on_c, 11, 64, 0
14, 28800, Note_on_c, 11, 64, 44
14, 28919, Note_on_c, 11, 64, 0
14, 29040, Note_on_c, 11, 65, 44
14, 29159, Note_on_c, 11, 65, 0
14, 29280, Note_on_c, 11, 77, 44
14, 29399, Note_on_c, 11, 77, 0
14, 29520, Note_on_c, 11, 77, 44
14, 29639, Note_on_c, 11, 77, 0
14, 29760, Note_on_c, 11, 77, 44
14, 29879, Note_on_c, 11, 77, 0
14, 30000, Note_on_c, 11, 77, 44
14, 30119, Note_on_c, 11, 77, 0
14, 30240, Note_on_c, 11, 77, 44
14, 30359, Note_on_c, 11, 77, 0
14, 30480, Note_on_c, 11, 77, 44
14, 30719, Note_on_c, 11, 77, 0
14, 30720, Note_on_c, 11, 79, 44
14, 30839, Note_on_c, 11, 79, 0
14, 30840, Note_on_c, 11, 77, 44
14, 30959, Note_on_c, 11, 77, 0
14, 30960, Note_on_c, 11, 76, 44
14, 31079, Note_on_c, 11, 76, 0
14, 31080, Note_on_c, 11, 74, 44
14, 31169, Note_on_c, 11, 74, 0
14, 31200, Note_on_c, 11, 72, 44
14, 31919, Note_on_c, 11, 72, 0
14, 31920, Note_on_c, 11, 70, 44
14, 32639, Note_on_c, 11, 70, 0
14, 32640, Note_on_c, 11, 69, 44
14, 32879, Note_on_c, 11, 69, 0
14, 32880, Note_on_c, 11, 72, 44
14, 33119, Note_on_c, 11, 72, 0
14, 33120, Note_on_c, 11, 69, 44
14, 33239, Note_on_c, 11, 69, 0
14, 33360, Note_on_c, 11, 67, 44
14, 33599, Note_on_c, 11, 67, 0
14, 33600, Note_on_c, 11, 70, 44
14, 33839, Note_on_c, 11, 70, 0
14, 33840, Note_on_c, 11, 67, 44
14, 33959, Note_on_c, 11, 67, 0
14, 34080, Note_on_c, 11, 65, 44
14, 34199, Note_on_c, 11, 65, 0
14, 34320, Note_on_c, 11, 69, 44
14, 34439, Note_on_c, 11, 69, 0
14, 34560, Note_on_c, 11, 72, 44
14, 34679, Note_on_c, 11, 72, 0
14, 36240, Note_on_c, 11, 84, 52
14, 36929, Note_on_c, 11, 84, 0
14, 36960, Note_on_c, 11, 84, 52
14, 37649, Note_on_c, 11, 84, 0
14, 39120, Note_on_c, 11, 86, 52
14, 39809, Note_on_c, 11, 86, 0
14, 39840, Note_on_c, 11, 86, 52
14, 40529, Note_on_c, 11, 86, 0
14, 40560, Note_on_c, 11, 86, 44
14, 40679, Note_on_c, 11, 86, 0
14, 40800, Note_on_c, 11, 81, 44
14, 40919, Note_on_c, 11, 81, 0
14, 41040, Note_on_c, 11, 78, 44
14, 41159, Note_on_c, 11, 78, 0
14, 41280, Note_on_c, 11, 79, 44
14, 41399, Note_on_c, 11, 79, 0
14, 41520, Note_on_c, 11, 82, 44
14, 41639, Note_on_c, 11, 82, 0
14, 41760, Note_on_c, 11, 73, 44
14, 41879, Note_on_c, 11, 73, 0
14, 42000, Note_on_c, 11, 74, 44
14, 42119, Note_on_c, 11, 74, 0
14, 42240, Note_on_c, 11, 78, 44
14, 42359, Note_on_c, 11, 78, 0
14, 42480, Note_on_c, 11, 81, 44
14, 42599, Note_on_c, 11, 81, 0
14, 42720, Note_on_c, 11, 82, 44
14, 42839, Note_on_c, 11, 82, 0
14, 42960, Note_on_c, 11, 79, 44
14, 43079, Note_on_c, 11, 79, 0
14, 43200, Note_on_c, 11, 85, 44
14, 43319, Note_on_c, 11, 85, 0
14, 43440, Note_on_c, 11, 86, 44
14, 43559, Note_on_c, 11, 86, 0
14, 43680, Note_on_c, 11, 85, 44
14, 43799, Note_on_c, 11, 85, 0
14, 43920, Note_on_c, 11, 86, 44
14, 44039, Note_on_c, 11, 86, 0
14, 44160, Note_on_c, 11, 81, 44
14, 44279, Note_on_c, 11, 81, 0
14, 44400, Note_on_c, 11, 82, 44
14, 44519, Note_on_c, 11, 82, 0
14, 44640, Note_on_c, 11, 78, 44
14, 44759, Note_on_c, 11, 78, 0
14, 44880, Note_on_c, 11, 79, 44
14, 44999, Note_on_c, 11, 79, 0
14, 45120, Note_on_c, 11, 74, 44
14, 45239, Note_on_c, 11, 74, 0
14, 45360, Note_on_c, 11, 75, 44
14, 45479, Note_on_c, 11, 75, 0
14, 45600, Note_on_c, 11, 74, 44
14, 45719, Note_on_c, 11, 74, 0
14, 45840, Note_on_c, 11, 75, 44
14, 45959, Note_on_c, 11, 75, 0
14, 46080, Note_on_c, 11, 73, 44
14, 46199, Note_on_c, 11, 73, 0
14, 46320, Note_on_c, 11, 74, 44
14, 46439, Note_on_c, 11, 74, 0
14, 46560, Note_on_c, 11, 73, 44
14, 46679, Note_on_c, 11, 73, 0
14, 46800, Note_on_c, 11, 74, 44
14, 46919, Note_on_c, 11, 74, 0
14, 47040, Note_on_c, 11, 73, 44
14, 47159, Note_on_c, 11, 73, 0
14, 47280, Note_on_c, 11, 74, 44
14, 47399, Note_on_c, 11, 74, 0
14, 47520, Note_on_c, 11, 73, 44
14, 47639, Note_on_c, 11, 73, 0
14, 47760, Note_on_c, 11, 74, 44
14, 47879, Note_on_c, 11, 74, 0
14, 48000, Note_on_c, 11, 73, 44
14, 48119, Note_on_c, 11, 73, 0
14, 48240, Note_on_c, 11, 74, 44
14, 48359, Note_on_c, 11, 74, 0
14, 48480, Note_on_c, 11, 73, 44
14, 48599, Note_on_c, 11, 73, 0
14, 48720, Note_on_c, 11, 74, 44
14, 48839, Note_on_c, 11, 74, 0
14, 48960, Note_on_c, 11, 73, 44
14, 49079, Note_on_c, 11, 73, 0
14, 49200, Note_on_c, 11, 74, 44
14, 49319, Note_on_c, 11, 74, 0
14, 54720, Note_on_c, 11, 58, 44
14, 54839, Note_on_c, 11, 58, 0
14, 54960, Note_on_c, 11, 58, 44
14, 55079, Note_on_c, 11, 58, 0
14, 55200, Note_on_c, 11, 60, 44
14, 55319, Note_on_c, 11, 60, 0
14, 55440, Note_on_c, 11, 58, 44
14, 55559, Note_on_c, 11, 58, 0
14, 55680, Note_on_c, 11, 60, 44
14, 55799, Note_on_c, 11, 60, 0
14, 55920, Note_on_c, 11, 58, 44
14, 56039, Note_on_c, 11, 58, 0
14, 56160, Note_on_c, 11, 60, 44
14, 56279, Note_on_c, 11, 60, 0
14, 56400, Note_on_c, 11, 58, 44
14, 56519, Note_on_c, 11, 58, 0
14, 56640, Note_on_c, 11, 60, 44
14, 56759, Note_on_c, 11, 60, 0
14, 56880, Note_on_c, 11, 58, 44
14, 56999, Note_on_c, 11, 58, 0
14, 57120, Note_on_c, 11, 60, 44
14, 57239, Note_on_c, 11, 60, 0
14, 57360, Note_on_c, 11, 58, 44
14, 57479, Note_on_c, 11, 58, 0
14, 57600, Note_on_c, 11, 60, 44
14, 57719, Note_on_c, 11, 60, 0
14, 57840, Note_on_c, 11, 58, 44
14, 57959, Note_on_c, 11, 58, 0
14, 58080, Note_on_c, 11, 60, 44
14, 58199, Note_on_c, 11, 60, 0
14, 58320, Note_on_c, 11, 58, 44
14, 58439, Note_on_c, 11, 58, 0
14, 58560, Note_on_c, 11, 60, 44
14, 58679, Note_on_c, 11, 60, 0
14, 58800, Note_on_c, 11, 58, 44
14, 58919, Note_on_c, 11, 58, 0
14, 59040, Note_on_c, 11, 62, 44
14, 59159, Note_on_c, 11, 62, 0
14, 59280, Note_on_c, 11, 63, 44
14, 59489, Note_on_c, 11, 63, 0
14, 59520, Note_on_c, 11, 65, 44
14, 59729, Note_on_c, 11, 65, 0
14, 59760, Note_on_c, 11, 66, 44
14, 59969, Note_on_c, 11, 66, 0
14, 60000, Note_on_c, 11, 67, 44
14, 60209, Note_on_c, 11, 67, 0
14, 60240, Note_on_c, 11, 68, 44
14, 60449, Note_on_c, 11, 68, 0
14, 60480, Note_on_c, 11, 69, 44
14, 60689, Note_on_c, 11, 69, 0
14, 60720, Note_on_c, 11, 70, 44
14, 60929, Note_on_c, 11, 70, 0
14, 60960, Note_on_c, 11, 70, 44
14, 61169, Note_on_c, 11, 70, 0
14, 61200, Note_on_c, 11, 70, 44
14, 61409, Note_on_c, 11, 70, 0
14, 61440, Note_on_c, 11, 70, 44
14, 61649, Note_on_c, 11, 70, 0
14, 61680, Note_on_c, 11, 70, 44
14, 61889, Note_on_c, 11, 70, 0
14, 61920, Note_on_c, 11, 70, 44
14, 62129, Note_on_c, 11, 70, 0
14, 62160, Note_on_c, 11, 70, 44
14, 62399, Note_on_c, 11, 70, 0
14, 62400, Note_on_c, 11, 72, 44
14, 62519, Note_on_c, 11, 72, 0
14, 62520, Note_on_c, 11, 70, 44
14, 62639, Note_on_c, 11, 70, 0
14, 62640, Note_on_c, 11, 69, 44
14, 62759, Note_on_c, 11, 69, 0
14, 62760, Note_on_c, 11, 67, 44
14, 62849, Note_on_c, 11, 67, 0
14, 62880, Note_on_c, 11, 65, 44
14, 63569, Note_on_c, 11, 65, 0
14, 63600, Note_on_c, 11, 63, 44
14, 64289, Note_on_c, 11, 63, 0
14, 64320, Note_on_c, 11, 62, 44
14, 64559, Note_on_c, 11, 62, 0
14, 64560, Note_on_c, 11, 65, 44
14, 64769, Note_on_c, 11, 65, 0
14, 64800, Note_on_c, 11, 62, 44
14, 64919, Note_on_c, 11, 62, 0
14, 65040, Note_on_c, 11, 60, 44
14, 65279, Note_on_c, 11, 60, 0
14, 65280, Note_on_c, 11, 63, 44
14, 65489, Note_on_c, 11, 63, 0
14, 65520, Note_on_c, 11, 60, 44
14, 65639, Note_on_c, 11, 60, 0
14, 65760, Note_on_c, 11, 58, 44
14, 65879, Note_on_c, 11, 58, 0
14, 66000, Note_on_c, 11, 60, 57
14, 66119, Note_on_c, 11, 60, 0
14, 66240, Note_on_c, 11, 62, 70
14, 66359, Note_on_c, 11, 62, 0
14, 66480, Note_on_c, 11, 63, 84
14, 66689, Note_on_c, 11, 63, 0
14, 66720, Note_on_c, 11, 67, 84
14, 66720, Note_on_c, 11, 75, 84
14, 66929, Note_on_c, 11, 67, 0
14, 66929, Note_on_c, 11, 75, 0
14, 66960, Note_on_c, 11, 67, 84
14, 66960, Note_on_c, 11, 75, 84
14, 67169, Note_on_c, 11, 67, 0
14, 67169, Note_on_c, 11, 75, 0
14, 67200, Note_on_c, 11, 67, 84
14, 67200, Note_on_c, 11, 75, 84
14, 67409, Note_on_c, 11, 67, 0
14, 67409, Note_on_c, 11, 75, 0
14, 67440, Note_on_c, 11, 75, 84
14, 67440, Note_on_c, 11, 67, 84
14, 67649, Note_on_c, 11, 75, 0
14, 67649, Note_on_c, 11, 67, 0
14, 67680, Note_on_c, 11, 67, 84
14, 67680, Note_on_c, 11, 75, 84
14, 67889, Note_on_c, 11, 67, 0
14, 67889, Note_on_c, 11, 75, 0
14, 67920, Note_on_c, 11, 67, 84
14, 67920, Note_on_c, 11, 75, 84
14, 68159, Note_on_c, 11, 67, 0
14, 68159, Note_on_c, 11, 75, 0
14, 68160, Note_on_c, 11, 77, 84
14, 68279, Note_on_c, 11, 77, 0
14, 68280, Note_on_c, 11, 75, 84
14, 68399, Note_on_c, 11, 75, 0
14, 68400, Note_on_c, 11, 74, 84
14, 68519, Note_on_c, 11, 74, 0
14, 68520, Note_on_c, 11, 72, 84
14, 68609, Note_on_c, 11, 72, 0
14, 68640, Note_on_c, 11, 70, 84
14, 69329, Note_on_c, 11, 70, 0
14, 69360, Note_on_c, 11, 80, 92
14, 70049, Note_on_c, 11, 80, 0
14, 70080, Note_on_c, 11, 79, 84
14, 70319, Note_on_c, 11, 79, 0
14, 70320, Note_on_c, 11, 82, 84
14, 70529, Note_on_c, 11, 82, 0
14, 70560, Note_on_c, 11, 79, 84
14, 70679, Note_on_c, 11, 79, 0
14, 70800, Note_on_c, 11, 77, 84
14, 71039, Note_on_c, 11, 77, 0
14, 71040, Note_on_c, 11, 82, 84
14, 71249, Note_on_c, 11, 82, 0
14, 71280, Note_on_c, 11, 77, 84
14, 71399, Note_on_c, 11, 77, 0
14, 71520, Note_on_c, 11, 75, 84
14, 71639, Note_on_c, 11, 75, 0
14, 71760, Note_on_c, 11, 79, 84
14, 71879, Note_on_c, 11, 79, 0
14, 72000, Note_on_c, 11, 82, 84
14, 72119, Note_on_c, 11, 82, 0
14, 72240, Note_on_c, 11, 80, 92
14, 72929, Note_on_c, 11, 80, 0
14, 72960, Note_on_c, 11, 79, 84
14, 73199, Note_on_c, 11, 79, 0
14, 73200, Note_on_c, 11, 82, 84
14, 73409, Note_on_c, 11, 82, 0
14, 73440, Note_on_c, 11, 79, 84
14, 73559, Note_on_c, 11, 79, 0
14, 73680, Note_on_c, 11, 77, 84
14, 73919, Note_on_c, 11, 77, 0
14, 73920, Note_on_c, 11, 82, 84
14, 74129, Note_on_c, 11, 82, 0
14, 74160, Note_on_c, 11, 77, 84
14, 74279, Note_on_c, 11, 77, 0
14, 74400, Note_on_c, 11, 75, 84
14, 74519, Note_on_c, 11, 75, 0
14, 74640, Note_on_c, 11, 79, 84
14, 74759, Note_on_c, 11, 79, 0
14, 74880, Note_on_c, 11, 82, 84
14, 74999, Note_on_c, 11, 82, 0
14, 75120, Note_on_c, 11, 85, 92
14, 75809, Note_on_c, 11, 85, 0
14, 75840, Note_on_c, 11, 84, 84
14, 76079, Note_on_c, 11, 84, 0
14, 76080, Note_on_c, 11, 87, 84
14, 76289, Note_on_c, 11, 87, 0
14, 76320, Note_on_c, 11, 84, 84
14, 76439, Note_on_c, 11, 84, 0
14, 76560, Note_on_c, 11, 82, 84
14, 76799, Note_on_c, 11, 82, 0
14, 76800, Note_on_c, 11, 87, 84
14, 77009, Note_on_c, 11, 87, 0
14, 77040, Note_on_c, 11, 82, 84
14, 77159, Note_on_c, 11, 82, 0
14, 77280, Note_on_c, 11, 80, 84
14, 77399, Note_on_c, 11, 80, 0
14, 77520, Note_on_c, 11, 84, 84
14, 77639, Note_on_c, 11, 84, 0
14, 77760, Note_on_c, 11, 87, 84
14, 77879, Note_on_c, 11, 87, 0
14, 78000, Note_on_c, 11, 85, 92
14, 78689, Note_on_c, 11, 85, 0
14, 78720, Note_on_c, 11, 84, 84
14, 78959, Note_on_c, 11, 84, 0
14, 78960, Note_on_c, 11, 87, 84
14, 79169, Note_on_c, 11, 87, 0
14, 79200, Note_on_c, 11, 84, 84
14, 79319, Note_on_c, 11, 84, 0
14, 79440, Note_on_c, 11, 87, 84
14, 79559, Note_on_c, 11, 87, 0
14, 79680, Note_on_c, 11, 82, 84
14, 79799, Note_on_c, 11, 82, 0
14, 79920, Note_on_c, 11, 87, 84
14, 80039, Note_on_c, 11, 87, 0
14, 80160, Note_on_c, 11, 80, 84
14, 80279, Note_on_c, 11, 80, 0
14, 80400, Note_on_c, 11, 87, 84
14, 80519, Note_on_c, 11, 87, 0
14, 80640, Note_on_c, 11, 80, 84
14, 80759, Note_on_c, 11, 80, 0
14, 80880, Note_on_c, 11, 87, 84
14, 80999, Note_on_c, 11, 87, 0
14, 81120, Note_on_c, 11, 79, 84
14, 81239, Note_on_c, 11, 79, 0
14, 81360, Note_on_c, 11, 87, 84
14, 81479, Note_on_c, 11, 87, 0
14, 81600, Note_on_c, 11, 77, 84
14, 81719, Note_on_c, 11, 77, 0
14, 81840, Note_on_c, 11, 86, 84
14, 81959, Note_on_c, 11, 86, 0
14, 82080, Note_on_c, 11, 77, 84
14, 82199, Note_on_c, 11, 77, 0
14, 82320, Note_on_c, 11, 79, 84
14, 82320, Note_on_c, 11, 87, 84
14, 82439, Note_on_c, 11, 79, 0
14, 82439, Note_on_c, 11, 87, 0
14, 82560, Note_on_c, 11, 79, 92
14, 82919, Note_on_c, 11, 79, 0
14, 83040, Note_on_c, 11, 75, 84
14, 83159, Note_on_c, 11, 75, 0
14, 83280, Note_on_c, 11, 70, 92
14, 83639, Note_on_c, 11, 70, 0
14, 83760, Note_on_c, 11, 67, 84
14, 83879, Note_on_c, 11, 67, 0
14, 84000, Note_on_c, 11, 63, 92
14, 84359, Note_on_c, 11, 63, 0
14, 84480, Note_on_c, 11, 58, 84
14, 84719, Note_on_c, 11, 58, 0
14, 84960, Note_on_c, 11, 56, 84
14, 85019, Note_on_c, 11, 56, 0
14, 85020, Note_on_c, 11, 58, 84
14, 85079, Note_on_c, 11, 58, 0
14, 85080, Note_on_c, 11, 55, 84
14, 85139, Note_on_c, 11, 55, 0
14, 85140, Note_on_c, 11, 56, 84
14, 85199, Note_on_c, 11, 56, 0
14, 85200, Note_on_c, 11, 55, 84
14, 85439, Note_on_c, 11, 55, 0
14, 86880, Note_on_c, 11, 67, 52
14, 87089, Note_on_c, 11, 67, 0
14, 87120, Note_on_c, 11, 67, 52
14, 87329, Note_on_c, 11, 67, 0
14, 87360, Note_on_c, 11, 68, 52
14, 87569, Note_on_c, 11, 68, 0
14, 87600, Note_on_c, 11, 68, 52
14, 87809, Note_on_c, 11, 68, 0
14, 87840, Note_on_c, 11, 68, 52
14, 88049, Note_on_c, 11, 68, 0
14, 88080, Note_on_c, 11, 67, 76
14, 88199, Note_on_c, 11, 67, 0
14, 88320, Note_on_c, 11, 79, 84
14, 88769, Note_on_c, 11, 79, 0
14, 88800, Note_on_c, 11, 75, 76
14, 89009, Note_on_c, 11, 75, 0
14, 89040, Note_on_c, 11, 70, 84
14, 89489, Note_on_c, 11, 70, 0
14, 89520, Note_on_c, 11, 67, 76
14, 89729, Note_on_c, 11, 67, 0
14, 89760, Note_on_c, 11, 63, 84
14, 90209, Note_on_c, 11, 63, 0
14, 90240, Note_on_c, 11, 58, 76
14, 90479, Note_on_c, 11, 58, 0
14, 90720, Note_on_c, 11, 56, 76
14, 90779, Note_on_c, 11, 56, 0
14, 90780, Note_on_c, 11, 58, 76
14, 90839, Note_on_c, 11, 58, 0
14, 90840, Note_on_c, 11, 55, 76
14, 90899, Note_on_c, 11, 55, 0
14, 90900, Note_on_c, 11, 56, 76
14, 90959, Note_on_c, 11, 56, 0
14, 90960, Note_on_c, 11, 55, 76
14, 91199, Note_on_c, 11, 55, 0
14, 92640, Note_on_c, 11, 82, 52
14, 92759, Note_on_c, 11, 82, 0
14, 92880, Note_on_c, 11, 80, 52
14, 92999, Note_on_c, 11, 80, 0
14, 93120, Note_on_c, 11, 82, 52
14, 93239, Note_on_c, 11, 82, 0
14, 93360, Note_on_c, 11, 80, 52
14, 93479, Note_on_c, 11, 80, 0
14, 93600, Note_on_c, 11, 82, 52
14, 93719, Note_on_c, 11, 82, 0
14, 93840, Note_on_c, 11, 80, 52
14, 93959, Note_on_c, 11, 80, 0
14, 95520, Note_on_c, 11, 80, 52
14, 95639, Note_on_c, 11, 80, 0
14, 95760, Note_on_c, 11, 79, 52
14, 95879, Note_on_c, 11, 79, 0
14, 96000, Note_on_c, 11, 80, 52
14, 96119, Note_on_c, 11, 80, 0
14, 96240, Note_on_c, 11, 79, 52
14, 96359, Note_on_c, 11, 79, 0
14, 96480, Note_on_c, 11, 80, 52
14, 96599, Note_on_c, 11, 80, 0
14, 96720, Note_on_c, 11, 79, 52
14, 96839, Note_on_c, 11, 79, 0
14, 98400, Note_on_c, 11, 80, 52
14, 98519, Note_on_c, 11, 80, 0
14, 98640, Note_on_c, 11, 79, 52
14, 98759, Note_on_c, 11, 79, 0
14, 98880, Note_on_c, 11, 80, 52
14, 98999, Note_on_c, 11, 80, 0
14, 99120, Note_on_c, 11, 79, 52
14, 99239, Note_on_c, 11, 79, 0
14, 99360, Note_on_c, 11, 80, 52
14, 99479, Note_on_c, 11, 80, 0
14, 99600, Note_on_c, 11, 79, 52
14, 99719, Note_on_c, 11, 79, 0
14, 101280, Note_on_c, 11, 75, 52
14, 101399, Note_on_c, 11, 75, 0
14, 101520, Note_on_c, 11, 75, 52
14, 101639, Note_on_c, 11, 75, 0
14, 101760, Note_on_c, 11, 75, 52
14, 101879, Note_on_c, 11, 75, 0
14, 102000, Note_on_c, 11, 75, 52
14, 102119, Note_on_c, 11, 75, 0
14, 102240, Note_on_c, 11, 75, 52
14, 102359, Note_on_c, 11, 75, 0
14, 102480, Note_on_c, 11, 75, 52
14, 102599, Note_on_c, 11, 75, 0
14, 102720, Note_on_c, 11, 79, 52
14, 102839, Note_on_c, 11, 79, 0
14, 102960, Note_on_c, 11, 74, 52
14, 103079, Note_on_c, 11, 74, 0
14, 103200, Note_on_c, 11, 75, 52
14, 103319, Note_on_c, 11, 75, 0
14, 103440, Note_on_c, 11, 71, 52
14, 103559, Note_on_c, 11, 71, 0
14, 103680, Note_on_c, 11, 72, 52
14, 103799, Note_on_c, 11, 72, 0
14, 103920, Note_on_c, 11, 68, 52
14, 104039, Note_on_c, 11, 68, 0
14, 104160, Note_on_c, 11, 80, 52
14, 104279, Note_on_c, 11, 80, 0
14, 104400, Note_on_c, 11, 76, 52
14, 104519, Note_on_c, 11, 76, 0
14, 104640, Note_on_c, 11, 77, 52
14, 104759, Note_on_c, 11, 77, 0
14, 104880, Note_on_c, 11, 73, 52
14, 104999, Note_on_c, 11, 73, 0
14, 105120, Note_on_c, 11, 74, 52
14, 105239, Note_on_c, 11, 74, 0
14, 105360, Note_on_c, 11, 70, 52
14, 105479, Note_on_c, 11, 70, 0
14, 105600, Note_on_c, 11, 82, 52
14, 105719, Note_on_c, 11, 82, 0
14, 105840, Note_on_c, 11, 78, 52
14, 105959, Note_on_c, 11, 78, 0
14, 106080, Note_on_c, 11, 79, 52
14, 106199, Note_on_c, 11, 79, 0
14, 106320, Note_on_c, 11, 74, 52
14, 106439, Note_on_c, 11, 74, 0
14, 106560, Note_on_c, 11, 75, 52
14, 106679, Note_on_c, 11, 75, 0
14, 106800, Note_on_c, 11, 72, 52
14, 106919, Note_on_c, 11, 72, 0
14, 107040, Note_on_c, 11, 67, 52
14, 107159, Note_on_c, 11, 67, 0
14, 107280, Note_on_c, 11, 68, 52
14, 107399, Note_on_c, 11, 68, 0
14, 107520, Note_on_c, 11, 65, 52
14, 107639, Note_on_c, 11, 65, 0
14, 107760, Note_on_c, 11, 62, 52
14, 107879, Note_on_c, 11, 62, 0
14, 108000, Note_on_c, 11, 70, 52
14, 108119, Note_on_c, 11, 70, 0
14, 108240, Note_on_c, 11, 67, 52
14, 108329, Note_on_c, 11, 67, 0
14, 108360, Note_on_c, 11, 67, 52
14, 108449, Note_on_c, 11, 67, 0
14, 108480, Note_on_c, 11, 70, 52
14, 108569, Note_on_c, 11, 70, 0
14, 108600, Note_on_c, 11, 70, 52
14, 108689, Note_on_c, 11, 70, 0
14, 108720, Note_on_c, 11, 71, 52
14, 108809, Note_on_c, 11, 71, 0
14, 108840, Note_on_c, 11, 71, 52
14, 108929, Note_on_c, 11, 71, 0
14, 108960, Note_on_c, 11, 72, 52
14, 109049, Note_on_c, 11, 72, 0
14, 109080, Note_on_c, 11, 72, 52
14, 109169, Note_on_c, 11, 72, 0
14, 109200, Note_on_c, 11, 74, 52
14, 109289, Note_on_c, 11, 74, 0
14, 109320, Note_on_c, 11, 74, 52
14, 109409, Note_on_c, 11, 74, 0
14, 109440, Note_on_c, 11, 75, 52
14, 109529, Note_on_c, 11, 75, 0
14, 109560, Note_on_c, 11, 75, 52
14, 109649, Note_on_c, 11, 75, 0
14, 109680, Note_on_c, 11, 77, 52
14, 109769, Note_on_c, 11, 77, 0
14, 109800, Note_on_c, 11, 77, 52
14, 109889, Note_on_c, 11, 77, 0
14, 109920, Note_on_c, 11, 72, 52
14, 110009, Note_on_c, 11, 72, 0
14, 110040, Note_on_c, 11, 72, 52
14, 110129, Note_on_c, 11, 72, 0
14, 110160, Note_on_c, 11, 73, 52
14, 110249, Note_on_c, 11, 73, 0
14, 110280, Note_on_c, 11, 73, 52
14, 110369, Note_on_c, 11, 73, 0
14, 110400, Note_on_c, 11, 74, 52
14, 110489, Note_on_c, 11, 74, 0
14, 110520, Note_on_c, 11, 74, 52
14, 110609, Note_on_c, 11, 74, 0
14, 110640, Note_on_c, 11, 76, 52
14, 110729, Note_on_c, 11, 76, 0
14, 110760, Note_on_c, 11, 76, 52
14, 110849, Note_on_c, 11, 76, 0
14, 110880, Note_on_c, 11, 77, 52
14, 110969, Note_on_c, 11, 77, 0
14, 111000, Note_on_c, 11, 77, 52
14, 111089, Note_on_c, 11, 77, 0
14, 111120, Note_on_c, 11, 79, 52
14, 111209, Note_on_c, 11, 79, 0
14, 111240, Note_on_c, 11, 79, 53
14, 111329, Note_on_c, 11, 79, 0
14, 111360, Note_on_c, 11, 73, 54
14, 111449, Note_on_c, 11, 73, 0
14, 111480, Note_on_c, 11, 73, 56
14, 111569, Note_on_c, 11, 73, 0
14, 111600, Note_on_c, 11, 74, 57
14, 111689, Note_on_c, 11, 74, 0
14, 111720, Note_on_c, 11, 74, 58
14, 111809, Note_on_c, 11, 74, 0
14, 111840, Note_on_c, 11, 75, 60
14, 111929, Note_on_c, 11, 75, 0
14, 111960, Note_on_c, 11, 75, 61
14, 112049, Note_on_c, 11, 75, 0
14, 112080, Note_on_c, 11, 77, 62
14, 112169, Note_on_c, 11, 77, 0
14, 112200, Note_on_c, 11, 77, 64
14, 112289, Note_on_c, 11, 77, 0
14, 112320, Note_on_c, 11, 79, 65
14, 112409, Note_on_c, 11, 79, 0
14, 112440, Note_on_c, 11, 79, 66
14, 112529, Note_on_c, 11, 79, 0
14, 112560, Note_on_c, 11, 80, 68
14, 112649, Note_on_c, 11, 80, 0
14, 112680, Note_on_c, 11, 80, 69
14, 112769, Note_on_c, 11, 80, 0
14, 112800, Note_on_c, 11, 80, 70
14, 112889, Note_on_c, 11, 80, 0
14, 112920, Note_on_c, 11, 80, 72
14, 113009, Note_on_c, 11, 80, 0
14, 113040, Note_on_c, 11, 80, 73
14, 113129, Note_on_c, 11, 80, 0
14, 113160, Note_on_c, 11, 80, 74
14, 113249, Note_on_c, 11, 80, 0
14, 113280, Note_on_c, 11, 80, 76
14, 113369, Note_on_c, 11, 80, 0
14, 113400, Note_on_c, 11, 80, 77
14, 113489, Note_on_c, 11, 80, 0
14, 113520, Note_on_c, 11, 80, 78
14, 113609, Note_on_c, 11, 80, 0
14, 113640, Note_on_c, 11, 80, 80
14, 113729, Note_on_c, 11, 80, 0
14, 113760, Note_on_c, 11, 80, 81
14, 113849, Note_on_c, 11, 80, 0
14, 113880, Note_on_c, 11, 80, 82
14, 113969, Note_on_c, 11, 80, 0
14, 114000, Note_on_c, 11, 80, 84
14, 114089, Note_on_c, 11, 80, 0
14, 114120, Note_on_c, 11, 80, 84
14, 114209, Note_on_c, 11, 80, 0
14, 114240, Note_on_c, 11, 80, 84
14, 114329, Note_on_c, 11, 80, 0
14, 114360, Note_on_c, 11, 80, 84
14, 114449, Note_on_c, 11, 80, 0
14, 114480, Note_on_c, 11, 80, 84
14, 114569, Note_on_c, 11, 80, 0
14, 114600, Note_on_c, 11, 80, 84
14, 114689, Note_on_c, 11, 80, 0
14, 114720, Note_on_c, 11, 80, 84
14, 114809, Note_on_c, 11, 80, 0
14, 114840, Note_on_c, 11, 80, 84
14, 114929, Note_on_c, 11, 80, 0
14, 114960, Note_on_c, 11, 80, 84
14, 115049, Note_on_c, 11, 80, 0
14, 115080, Note_on_c, 11, 80, 84
14, 115169, Note_on_c, 11, 80, 0
14, 115200, Note_on_c, 11, 80, 84
14, 115289, Note_on_c, 11, 80, 0
14, 115320, Note_on_c, 11, 80, 84
14, 115409, Note_on_c, 11, 80, 0
14, 115440, Note_on_c, 11, 80, 84
14, 115529, Note_on_c, 11, 80, 0
14, 115560, Note_on_c, 11, 80, 84
14, 115649, Note_on_c, 11, 80, 0
14, 115680, Note_on_c, 11, 80, 84
14, 115769, Note_on_c, 11, 80, 0
14, 115800, Note_on_c, 11, 80, 84
14, 115889, Note_on_c, 11, 80, 0
14, 115920, Note_on_c, 11, 80, 84
14, 116009, Note_on_c, 11, 80, 0
14, 116040, Note_on_c, 11, 80, 84
14, 116129, Note_on_c, 11, 80, 0
14, 116160, Note_on_c, 11, 80, 84
14, 116249, Note_on_c, 11, 80, 0
14, 116280, Note_on_c, 11, 80, 84
14, 116369, Note_on_c, 11, 80, 0
14, 116400, Note_on_c, 11, 79, 84
14, 116489, Note_on_c, 11, 79, 0
14, 116520, Note_on_c, 11, 79, 84
14, 116609, Note_on_c, 11, 79, 0
14, 116640, Note_on_c, 11, 77, 84
14, 116729, Note_on_c, 11, 77, 0
14, 116760, Note_on_c, 11, 77, 84
14, 116849, Note_on_c, 11, 77, 0
14, 116880, Note_on_c, 11, 75, 76
14, 117119, Note_on_c, 11, 75, 0
14, 117600, Note_on_c, 11, 70, 76
14, 117600, Note_on_c, 11, 62, 76
14, 117600, Note_on_c, 11, 77, 76
14, 117839, Note_on_c, 11, 70, 0
14, 117839, Note_on_c, 11, 62, 0
14, 117839, Note_on_c, 11, 77, 0
14, 118320, Note_on_c, 11, 62, 76
14, 118320, Note_on_c, 11, 80, 76
14, 118320, Note_on_c, 11, 70, 76
14, 118529, Note_on_c, 11, 62, 0
14, 118529, Note_on_c, 11, 80, 0
14, 118529, Note_on_c, 11, 70, 0
14, 118560, Note_on_c, 11, 59, 52
14, 118679, Note_on_c, 11, 59, 0
14, 118800, Note_on_c, 11, 58, 52
14, 118919, Note_on_c, 11, 58, 0
14, 119040, Note_on_c, 11, 59, 52
14, 119159, Note_on_c, 11, 59, 0
14, 119280, Note_on_c, 11, 58, 52
14, 119399, Note_on_c, 11, 58, 0
14, 119520, Note_on_c, 11, 59, 52
14, 119639, Note_on_c, 11, 59, 0
14, 119760, Note_on_c, 11, 58, 44
14, 119879, Note_on_c, 11, 58, 0
14, 120000, Note_on_c, 11, 59, 44
14, 120119, Note_on_c, 11, 59, 0
14, 120240, Note_on_c, 11, 58, 44
14, 120359, Note_on_c, 11, 58, 0
14, 120480, Note_on_c, 11, 59, 44
14, 120599, Note_on_c, 11, 59, 0
14, 120720, Note_on_c, 11, 59, 44
14, 120839, Note_on_c, 11, 59, 0
14, 120960, Note_on_c, 11, 60, 44
14, 121079, Note_on_c, 11, 60, 0
14, 121200, Note_on_c, 11, 60, 44
14, 121319, Note_on_c, 11, 60, 0
14, 121440, Note_on_c, 11, 61, 44
14, 121559, Note_on_c, 11, 61, 0
14, 121680, Note_on_c, 11, 60, 44
14, 121799, Note_on_c, 11, 60, 0
14, 121920, Note_on_c, 11, 61, 44
14, 122039, Note_on_c, 11, 61, 0
14, 122160, Note_on_c, 11, 60, 44
14, 122279, Note_on_c, 11, 60, 0
14, 122400, Note_on_c, 11, 61, 44
14, 122519, Note_on_c, 11, 61, 0
14, 122640, Note_on_c, 11, 60, 44
14, 122759, Note_on_c, 11, 60, 0
14, 122880, Note_on_c, 11, 61, 44
14, 122999, Note_on_c, 11, 61, 0
14, 123120, Note_on_c, 11, 60, 44
14, 123239, Note_on_c, 11, 60, 0
14, 123360, Note_on_c, 11, 61, 44
14, 123479, Note_on_c, 11, 61, 0
14, 123600, Note_on_c, 11, 61, 44
14, 123719, Note_on_c, 11, 61, 0
14, 123840, Note_on_c, 11, 60, 44
14, 123959, Note_on_c, 11, 60, 0
14, 124080, Note_on_c, 11, 60, 44
14, 124199, Note_on_c, 11, 60, 0
14, 124320, Note_on_c, 11, 61, 44
14, 124439, Note_on_c, 11, 61, 0
14, 124560, Note_on_c, 11, 61, 44
14, 124679, Note_on_c, 11, 61, 0
14, 124800, Note_on_c, 11, 61, 44
14, 124919, Note_on_c, 11, 61, 0
14, 125040, Note_on_c, 11, 62, 44
14, 125159, Note_on_c, 11, 62, 0
14, 125280, Note_on_c, 11, 62, 44
14, 125399, Note_on_c, 11, 62, 0
14, 125520, Note_on_c, 11, 62, 44
14, 125639, Note_on_c, 11, 62, 0
14, 125760, Note_on_c, 11, 63, 44
14, 125879, Note_on_c, 11, 63, 0
14, 126000, Note_on_c, 11, 63, 44
14, 126119, Note_on_c, 11, 63, 0
14, 126240, Note_on_c, 11, 63, 44
14, 126359, Note_on_c, 11, 63, 0
14, 126480, Note_on_c, 11, 64, 44
14, 126599, Note_on_c, 11, 64, 0
14, 126720, Note_on_c, 11, 64, 44
14, 126839, Note_on_c, 11, 64, 0
14, 126960, Note_on_c, 11, 65, 44
14, 127079, Note_on_c, 11, 65, 0
14, 127200, Note_on_c, 11, 77, 44
14, 127319, Note_on_c, 11, 77, 0
14, 127440, Note_on_c, 11, 77, 44
14, 127559, Note_on_c, 11, 77, 0
14, 127680, Note_on_c, 11, 77, 44
14, 127799, Note_on_c, 11, 77, 0
14, 127920, Note_on_c, 11, 77, 44
14, 128039, Note_on_c, 11, 77, 0
14, 128160, Note_on_c, 11, 77, 44
14, 128279, Note_on_c, 11, 77, 0
14, 128400, Note_on_c, 11, 77, 44
14, 128639, Note_on_c, 11, 77, 0
14, 128640, Note_on_c, 11, 79, 44
14, 128759, Note_on_c, 11, 79, 0
14, 128760, Note_on_c, 11, 77, 44
14, 128879, Note_on_c, 11, 77, 0
14, 128880, Note_on_c, 11, 76, 44
14, 128999, Note_on_c, 11, 76, 0
14, 129000, Note_on_c, 11, 74, 44
14, 129089, Note_on_c, 11, 74, 0
14, 129120, Note_on_c, 11, 72, 44
14, 129839, Note_on_c, 11, 72, 0
14, 129840, Note_on_c, 11, 70, 44
14, 130559, Note_on_c, 11, 70, 0
14, 130560, Note_on_c, 11, 69, 44
14, 130799, Note_on_c, 11, 69, 0
14, 130800, Note_on_c, 11, 72, 44
14, 131039, Note_on_c, 11, 72, 0
14, 131040, Note_on_c, 11, 69, 44
14, 131159, Note_on_c, 11, 69, 0
14, 131280, Note_on_c, 11, 67, 44
14, 131519, Note_on_c, 11, 67, 0
14, 131520, Note_on_c, 11, 70, 44
14, 131759, Note_on_c, 11, 70, 0
14, 131760, Note_on_c, 11, 67, 44
14, 131879, Note_on_c, 11, 67, 0
14, 132000, Note_on_c, 11, 65, 44
14, 132119, Note_on_c, 11, 65, 0
14, 132240, Note_on_c, 11, 69, 44
14, 132359, Note_on_c, 11, 69, 0
14, 132480, Note_on_c, 11, 72, 44
14, 132599, Note_on_c, 11, 72, 0
14, 134160, Note_on_c, 11, 84, 52
14, 134849, Note_on_c, 11, 84, 0
14, 134880, Note_on_c, 11, 84, 52
14, 135569, Note_on_c, 11, 84, 0
14, 137040, Note_on_c, 11, 86, 52
14, 137729, Note_on_c, 11, 86, 0
14, 137760, Note_on_c, 11, 86, 52
14, 138449, Note_on_c, 11, 86, 0
14, 138480, Note_on_c, 11, 86, 44
14, 138599, Note_on_c, 11, 86, 0
14, 138720, Note_on_c, 11, 81, 44
14, 138839, Note_on_c, 11, 81, 0
14, 138960, Note_on_c, 11, 78, 44
14, 139079, Note_on_c, 11, 78, 0
14, 139200, Note_on_c, 11, 79, 44
14, 139319, Note_on_c, 11, 79, 0
14, 139440, Note_on_c, 11, 82, 44
14, 139559, Note_on_c, 11, 82, 0
14, 139680, Note_on_c, 11, 73, 44
14, 139799, Note_on_c, 11, 73, 0
14, 139920, Note_on_c, 11, 74, 44
14, 140039, Note_on_c, 11, 74, 0
14, 140160, Note_on_c, 11, 78, 44
14, 140279, Note_on_c, 11, 78, 0
14, 140400, Note_on_c, 11, 81, 44
14, 140519, Note_on_c, 11, 81, 0
14, 140640, Note_on_c, 11, 82, 44
14, 140759, Note_on_c, 11, 82, 0
14, 140880, Note_on_c, 11, 79, 44
14, 140999, Note_on_c, 11, 79, 0
14, 141120, Note_on_c, 11, 85, 44
14, 141239, Note_on_c, 11, 85, 0
14, 141360, Note_on_c, 11, 86, 44
14, 141479, Note_on_c, 11, 86, 0
14, 141600, Note_on_c, 11, 85, 44
14, 141719, Note_on_c, 11, 85, 0
14, 141840, Note_on_c, 11, 86, 44
14, 141959, Note_on_c, 11, 86, 0
14, 142080, Note_on_c, 11, 81, 44
14, 142199, Note_on_c, 11, 81, 0
14, 142320, Note_on_c, 11, 82, 44
14, 142439, Note_on_c, 11, 82, 0
14, 142560, Note_on_c, 11, 78, 44
14, 142679, Note_on_c, 11, 78, 0
14, 142800, Note_on_c, 11, 79, 44
14, 142919, Note_on_c, 11, 79, 0
14, 143040, Note_on_c, 11, 74, 44
14, 143159, Note_on_c, 11, 74, 0
14, 143280, Note_on_c, 11, 75, 44
14, 143399, Note_on_c, 11, 75, 0
14, 143520, Note_on_c, 11, 74, 44
14, 143639, Note_on_c, 11, 74, 0
14, 143760, Note_on_c, 11, 75, 44
14, 143879, Note_on_c, 11, 75, 0
14, 144000, Note_on_c, 11, 73, 44
14, 144119, Note_on_c, 11, 73, 0
14, 144240, Note_on_c, 11, 74, 44
14, 144359, Note_on_c, 11, 74, 0
14, 144480, Note_on_c, 11, 73, 44
14, 144599, Note_on_c, 11, 73, 0
14, 144720, Note_on_c, 11, 74, 44
14, 144839, Note_on_c, 11, 74, 0
14, 144960, Note_on_c, 11, 73, 44
14, 145079, Note_on_c, 11, 73, 0
14, 145200, Note_on_c, 11, 74, 44
14, 145319, Note_on_c, 11, 74, 0
14, 145440, Note_on_c, 11, 73, 44
14, 145559, Note_on_c, 11, 73, 0
14, 145680, Note_on_c, 11, 74, 44
14, 145799, Note_on_c, 11, 74, 0
14, 145920, Note_on_c, 11, 73, 44
14, 146039, Note_on_c, 11, 73, 0
14, 146160, Note_on_c, 11, 74, 44
14, 146279, Note_on_c, 11, 74, 0
14, 146400, Note_on_c, 11, 73, 44
14, 146519, Note_on_c, 11, 73, 0
14, 146640, Note_on_c, 11, 74, 44
14, 146759, Note_on_c, 11, 74, 0
14, 146880, Note_on_c, 11, 73, 44
14, 146999, Note_on_c, 11, 73, 0
14, 147120, Note_on_c, 11, 74, 44
14, 147239, Note_on_c, 11, 74, 0
14, 152640, Note_on_c, 11, 58, 44
14, 152759, Note_on_c, 11, 58, 0
14, 152880, Note_on_c, 11, 58, 44
14, 152999, Note_on_c, 11, 58, 0
14, 153120, Note_on_c, 11, 60, 44
14, 153239, Note_on_c, 11, 60, 0
14, 153360, Note_on_c, 11, 58, 44
14, 153479, Note_on_c, 11, 58, 0
14, 153600, Note_on_c, 11, 60, 44
14, 153719, Note_on_c, 11, 60, 0
14, 153840, Note_on_c, 11, 58, 44
14, 153959, Note_on_c, 11, 58, 0
14, 154080, Note_on_c, 11, 60, 44
14, 154199, Note_on_c, 11, 60, 0
14, 154320, Note_on_c, 11, 58, 44
14, 154439, Note_on_c, 11, 58, 0
14, 154560, Note_on_c, 11, 60, 44
14, 154679, Note_on_c, 11, 60, 0
14, 154800, Note_on_c, 11, 58, 44
14, 154919, Note_on_c, 11, 58, 0
14, 155040, Note_on_c, 11, 60, 44
14, 155159, Note_on_c, 11, 60, 0
14, 155280, Note_on_c, 11, 58, 44
14, 155399, Note_on_c, 11, 58, 0
14, 155520, Note_on_c, 11, 60, 44
14, 155639, Note_on_c, 11, 60, 0
14, 155760, Note_on_c, 11, 58, 44
14, 155879, Note_on_c, 11, 58, 0
14, 156000, Note_on_c, 11, 60, 44
14, 156119, Note_on_c, 11, 60, 0
14, 156240, Note_on_c, 11, 58, 44
14, 156359, Note_on_c, 11, 58, 0
14, 156480, Note_on_c, 11, 60, 44
14, 156599, Note_on_c, 11, 60, 0
14, 156720, Note_on_c, 11, 58, 44
14, 156839, Note_on_c, 11, 58, 0
14, 156960, Note_on_c, 11, 62, 44
14, 157079, Note_on_c, 11, 62, 0
14, 157200, Note_on_c, 11, 63, 44
14, 157409, Note_on_c, 11, 63, 0
14, 157440, Note_on_c, 11, 65, 44
14, 157649, Note_on_c, 11, 65, 0
14, 157680, Note_on_c, 11, 66, 44
14, 157889, Note_on_c, 11, 66, 0
14, 157920, Note_on_c, 11, 67, 44
14, 158129, Note_on_c, 11, 67, 0
14, 158160, Note_on_c, 11, 68, 44
14, 158369, Note_on_c, 11, 68, 0
14, 158400, Note_on_c, 11, 69, 44
14, 158609, Note_on_c, 11, 69, 0
14, 158640, Note_on_c, 11, 70, 44
14, 158849, Note_on_c, 11, 70, 0
14, 158880, Note_on_c, 11, 70, 44
14, 159089, Note_on_c, 11, 70, 0
14, 159120, Note_on_c, 11, 70, 44
14, 159329, Note_on_c, 11, 70, 0
14, 159360, Note_on_c, 11, 70, 44
14, 159569, Note_on_c, 11, 70, 0
14, 159600, Note_on_c, 11, 70, 44
14, 159809, Note_on_c, 11, 70, 0
14, 159840, Note_on_c, 11, 70, 44
14, 160049, Note_on_c, 11, 70, 0
14, 160080, Note_on_c, 11, 70, 44
14, 160319, Note_on_c, 11, 70, 0
14, 160320, Note_on_c, 11, 72, 44
14, 160439, Note_on_c, 11, 72, 0
14, 160440, Note_on_c, 11, 70, 44
14, 160559, Note_on_c, 11, 70, 0
14, 160560, Note_on_c, 11, 69, 44
14, 160679, Note_on_c, 11, 69, 0
14, 160680, Note_on_c, 11, 67, 44
14, 160769, Note_on_c, 11, 67, 0
14, 160800, Note_on_c, 11, 65, 44
14, 161489, Note_on_c, 11, 65, 0
14, 161520, Note_on_c, 11, 63, 44
14, 162209, Note_on_c, 11, 63, 0
14, 162240, Note_on_c, 11, 62, 44
14, 162479, Note_on_c, 11, 62, 0
14, 162480, Note_on_c, 11, 65, 44
14, 162689, Note_on_c, 11, 65, 0
14, 162720, Note_on_c, 11, 62, 44
14, 162839, Note_on_c, 11, 62, 0
14, 162960, Note_on_c, 11, 60, 44
14, 163199, Note_on_c, 11, 60, 0
14, 163200, Note_on_c, 11, 63, 44
14, 163409, Note_on_c, 11, 63, 0
14, 163440, Note_on_c, 11, 60, 44
14, 163559, Note_on_c, 11, 60, 0
14, 163680, Note_on_c, 11, 58, 44
14, 163799, Note_on_c, 11, 58, 0
14, 163920, Note_on_c, 11, 60, 57
14, 164039, Note_on_c, 11, 60, 0
14, 164160, Note_on_c, 11, 62, 70
14, 164279, Note_on_c, 11, 62, 0
14, 164400, Note_on_c, 11, 63, 84
14, 164609, Note_on_c, 11, 63, 0
14, 164640, Note_on_c, 11, 75, 84
14, 164640, Note_on_c, 11, 67, 84
14, 164849, Note_on_c, 11, 75, 0
14, 164849, Note_on_c, 11, 67, 0
14, 164880, Note_on_c, 11, 67, 84
14, 164880, Note_on_c, 11, 75, 84
14, 165089, Note_on_c, 11, 67, 0
14, 165089, Note_on_c, 11, 75, 0
14, 165120, Note_on_c, 11, 67, 84
14, 165120, Note_on_c, 11, 75, 84
14, 165329, Note_on_c, 11, 67, 0
14, 165329, Note_on_c, 11, 75, 0
14, 165360, Note_on_c, 11, 75, 84
14, 165360, Note_on_c, 11, 67, 84
14, 165569, Note_on_c, 11, 75, 0
14, 165569, Note_on_c, 11, 67, 0
14, 165600, Note_on_c, 11, 67, 84
14, 165600, Note_on_c, 11, 75, 84
14, 165809, Note_on_c, 11, 67, 0
14, 165809, Note_on_c, 11, 75, 0
14, 165840, Note_on_c, 11, 67, 84
14, 165840, Note_on_c, 11, 75, 84
14, 166079, Note_on_c, 11, 67, 0
14, 166079, Note_on_c, 11, 75, 0
14, 166080, Note_on_c, 11, 77, 84
14, 166199, Note_on_c, 11, 77, 0
14, 166200, Note_on_c, 11, 75, 84
14, 166319, Note_on_c, 11, 75, 0
14, 166320, Note_on_c, 11, 74, 84
14, 166439, Note_on_c, 11, 74, 0
14, 166440, Note_on_c, 11, 72, 84
14, 166529, Note_on_c, 11, 72, 0
14, 166560, Note_on_c, 11, 70, 84
14, 167249, Note_on_c, 11, 70, 0
14, 167280, Note_on_c, 11, 80, 92
14, 167969, Note_on_c, 11, 80, 0
14, 168000, Note_on_c, 11, 79, 84
14, 168239, Note_on_c, 11, 79, 0
14, 168240, Note_on_c, 11, 82, 84
14, 168449, Note_on_c, 11, 82, 0
14, 168480, Note_on_c, 11, 79, 84
14, 168599, Note_on_c, 11, 79, 0
14, 168720, Note_on_c, 11, 77, 84
14, 168959, Note_on_c, 11, 77, 0
14, 168960, Note_on_c, 11, 82, 84
14, 169169, Note_on_c, 11, 82, 0
14, 169200, Note_on_c, 11, 77, 84
14, 169319, Note_on_c, 11, 77, 0
14, 169440, Note_on_c, 11, 75, 84
14, 169559, Note_on_c, 11, 75, 0
14, 169680, Note_on_c, 11, 79, 84
14, 169799, Note_on_c, 11, 79, 0
14, 169920, Note_on_c, 11, 82, 84
14, 170039, Note_on_c, 11, 82, 0
14, 170160, Note_on_c, 11, 80, 92
14, 170849, Note_on_c, 11, 80, 0
14, 170880, Note_on_c, 11, 79, 84
14, 171119, Note_on_c, 11, 79, 0
14, 171120, Note_on_c, 11, 82, 84
14, 171329, Note_on_c, 11, 82, 0
14, 171360, Note_on_c, 11, 79, 84
14, 171479, Note_on_c, 11, 79, 0
14, 171600, Note_on_c, 11, 77, 84
14, 171839, Note_on_c, 11, 77, 0
14, 171840, Note_on_c, 11, 82, 84
14, 172049, Note_on_c, 11, 82, 0
14, 172080, Note_on_c, 11, 77, 84
14, 172199, Note_on_c, 11, 77, 0
14, 172320, Note_on_c, 11, 75, 84
14, 172439, Note_on_c, 11, 75, 0
14, 172560, Note_on_c, 11, 79, 84
14, 172679, Note_on_c, 11, 79, 0
14, 172800, Note_on_c, 11, 82, 84
14, 172919, Note_on_c, 11, 82, 0
14, 173040, Note_on_c, 11, 85, 92
14, 173729, Note_on_c, 11, 85, 0
14, 173760, Note_on_c, 11, 84, 84
14, 173999, Note_on_c, 11, 84, 0
14, 174000, Note_on_c, 11, 87, 84
14, 174209, Note_on_c, 11, 87, 0
14, 174240, Note_on_c, 11, 84, 84
14, 174359, Note_on_c, 11, 84, 0
14, 174480, Note_on_c, 11, 82, 84
14, 174719, Note_on_c, 11, 82, 0
14, 174720, Note_on_c, 11, 87, 84
14, 174929, Note_on_c, 11, 87, 0
14, 174960, Note_on_c, 11, 82, 84
14, 175079, Note_on_c, 11, 82, 0
14, 175200, Note_on_c, 11, 80, 84
14, 175319, Note_on_c, 11, 80, 0
14, 175440, Note_on_c, 11, 84, 84
14, 175559, Note_on_c, 11, 84, 0
14, 175680, Note_on_c, 11, 87, 84
14, 175799, Note_on_c, 11, 87, 0
14, 175920, Note_on_c, 11, 85, 92
14, 176609, Note_on_c, 11, 85, 0
14, 176640, Note_on_c, 11, 84, 84
14, 176879, Note_on_c, 11, 84, 0
14, 176880, Note_on_c, 11, 87, 84
14, 177089, Note_on_c, 11, 87, 0
14, 177120, Note_on_c, 11, 84, 84
14, 177239, Note_on_c, 11, 84, 0
14, 177360, Note_on_c, 11, 87, 84
14, 177479, Note_on_c, 11, 87, 0
14, 177600, Note_on_c, 11, 82, 84
14, 177719, Note_on_c, 11, 82, 0
14, 177840, Note_on_c, 11, 87, 84
14, 177959, Note_on_c, 11, 87, 0
14, 178080, Note_on_c, 11, 80, 84
14, 178199, Note_on_c, 11, 80, 0
14, 178320, Note_on_c, 11, 87, 84
14, 178439, Note_on_c, 11, 87, 0
14, 178560, Note_on_c, 11, 80, 84
14, 178679, Note_on_c, 11, 80, 0
14, 178800, Note_on_c, 11, 87, 84
14, 178919, Note_on_c, 11, 87, 0
14, 179040, Note_on_c, 11, 79, 84
14, 179159, Note_on_c, 11, 79, 0
14, 179280, Note_on_c, 11, 87, 84
14, 179399, Note_on_c, 11, 87, 0
14, 179520, Note_on_c, 11, 77, 84
14, 179639, Note_on_c, 11, 77, 0
14, 179760, Note_on_c, 11, 86, 84
14, 179879, Note_on_c, 11, 86, 0
14, 180000, Note_on_c, 11, 77, 84
14, 180119, Note_on_c, 11, 77, 0
14, 180240, Note_on_c, 11, 87, 84
14, 180240, Note_on_c, 11, 79, 84
14, 180359, Note_on_c, 11, 87, 0
14, 180359, Note_on_c, 11, 79, 0
14, 180480, Note_on_c, 11, 79, 92
14, 180839, Note_on_c, 11, 79, 0
14, 180960, Note_on_c, 11, 75, 84
14, 181079, Note_on_c, 11, 75, 0
14, 181200, Note_on_c, 11, 70, 92
14, 181559, Note_on_c, 11, 70, 0
14, 181680, Note_on_c, 11, 67, 84
14, 181799, Note_on_c, 11, 67, 0
14, 181920, Note_on_c, 11, 63, 92
14, 182279, Note_on_c, 11, 63, 0
14, 182400, Note_on_c, 11, 58, 84
14, 182639, Note_on_c, 11, 58, 0
14, 182880, Note_on_c, 11, 56, 84
14, 182939, Note_on_c, 11, 56, 0
14, 182940, Note_on_c, 11, 58, 84
14, 182999, Note_on_c, 11, 58, 0
14, 183000, Note_on_c, 11, 55, 84
14, 183059, Note_on_c, 11, 55, 0
14, 183060, Note_on_c, 11, 56, 84
14, 183119, Note_on_c, 11, 56, 0
14, 183120, Note_on_c, 11, 55, 84
14, 183359, Note_on_c, 11, 55, 0
14, 184800, Note_on_c, 11, 67, 52
14, 185009, Note_on_c, 11, 67, 0
14, 185040, Note_on_c, 11, 67, 52
14, 185249, Note_on_c, 11, 67, 0
14, 185280, Note_on_c, 11, 68, 52
14, 185489, Note_on_c, 11, 68, 0
14, 185520, Note_on_c, 11, 68, 52
14, 185729, Note_on_c, 11, 68, 0
14, 185760, Note_on_c, 11, 68, 52
14, 185969, Note_on_c, 11, 68, 0
14, 186000, Note_on_c, 11, 67, 76
14, 186119, Note_on_c, 11, 67, 0
14, 186240, Note_on_c, 11, 79, 84
14, 186689, Note_on_c, 11, 79, 0
14, 186720, Note_on_c, 11, 75, 76
14, 186929, Note_on_c, 11, 75, 0
14, 186960, Note_on_c, 11, 70, 84
14, 187409, Note_on_c, 11, 70, 0
14, 187440, Note_on_c, 11, 67, 76
14, 187649, Note_on_c, 11, 67, 0
14, 187680, Note_on_c, 11, 63, 84
14, 188129, Note_on_c, 11, 63, 0
14, 188160, Note_on_c, 11, 58, 76
14, 188399, Note_on_c, 11, 58, 0
14, 188640, Note_on_c, 11, 56, 76
14, 188699, Note_on_c, 11, 56, 0
14, 188700, Note_on_c, 11, 58, 76
14, 188759, Note_on_c, 11, 58, 0
14, 188760, Note_on_c, 11, 55, 76
14, 188819, Note_on_c, 11, 55, 0
14, 188820, Note_on_c, 11, 56, 76
14, 188879, Note_on_c, 11, 56, 0
14, 188880, Note_on_c, 11, 55, 76
14, 189119, Note_on_c, 11, 55, 0
14, 190560, Note_on_c, 11, 82, 52
14, 190679, Note_on_c, 11, 82, 0
14, 190800, Note_on_c, 11, 80, 52
14, 190919, Note_on_c, 11, 80, 0
14, 191040, Note_on_c, 11, 82, 52
14, 191159, Note_on_c, 11, 82, 0
14, 191280, Note_on_c, 11, 80, 52
14, 191399, Note_on_c, 11, 80, 0
14, 191520, Note_on_c, 11, 82, 52
14, 191639, Note_on_c, 11, 82, 0
14, 191760, Note_on_c, 11, 80, 52
14, 191879, Note_on_c, 11, 80, 0
14, 193440, Note_on_c, 11, 80, 52
14, 193559, Note_on_c, 11, 80, 0
14, 193680, Note_on_c, 11, 79, 52
14, 193799, Note_on_c, 11, 79, 0
14, 193920, Note_on_c, 11, 80, 52
14, 194039, Note_on_c, 11, 80, 0
14, 194160, Note_on_c, 11, 79, 52
14, 194279, Note_on_c, 11, 79, 0
14, 194400, Note_on_c, 11, 80, 52
14, 194519, Note_on_c, 11, 80, 0
14, 194640, Note_on_c, 11, 79, 52
14, 194759, Note_on_c, 11, 79, 0
14, 196320, Note_on_c, 11, 80, 52
14, 196439, Note_on_c, 11, 80, 0
14, 196560, Note_on_c, 11, 79, 52
14, 196679, Note_on_c, 11, 79, 0
14, 196800, Note_on_c, 11, 80, 52
14, 196919, Note_on_c, 11, 80, 0
14, 197040, Note_on_c, 11, 79, 52
14, 197159, Note_on_c, 11, 79, 0
14, 197280, Note_on_c, 11, 80, 52
14, 197399, Note_on_c, 11, 80, 0
14, 197520, Note_on_c, 11, 79, 52
14, 197639, Note_on_c, 11, 79, 0
14, 199200, Note_on_c, 11, 75, 52
14, 199319, Note_on_c, 11, 75, 0
14, 199440, Note_on_c, 11, 75, 52
14, 199559, Note_on_c, 11, 75, 0
14, 199680, Note_on_c, 11, 75, 52
14, 199799, Note_on_c, 11, 75, 0
14, 199920, Note_on_c, 11, 75, 52
14, 200039, Note_on_c, 11, 75, 0
14, 200160, Note_on_c, 11, 75, 52
14, 200279, Note_on_c, 11, 75, 0
14, 200400, Note_on_c, 11, 75, 52
14, 200519, Note_on_c, 11, 75, 0
14, 200640, Note_on_c, 11, 79, 52
14, 200759, Note_on_c, 11, 79, 0
14, 200880, Note_on_c, 11, 74, 52
14, 200999, Note_on_c, 11, 74, 0
14, 201120, Note_on_c, 11, 75, 52
14, 201239, Note_on_c, 11, 75, 0
14, 201360, Note_on_c, 11, 71, 52
14, 201479, Note_on_c, 11, 71, 0
14, 201600, Note_on_c, 11, 72, 52
14, 201719, Note_on_c, 11, 72, 0
14, 201840, Note_on_c, 11, 68, 52
14, 201959, Note_on_c, 11, 68, 0
14, 202080, Note_on_c, 11, 80, 52
14, 202199, Note_on_c, 11, 80, 0
14, 202320, Note_on_c, 11, 76, 52
14, 202439, Note_on_c, 11, 76, 0
14, 202560, Note_on_c, 11, 77, 52
14, 202679, Note_on_c, 11, 77, 0
14, 202800, Note_on_c, 11, 73, 52
14, 202919, Note_on_c, 11, 73, 0
14, 203040, Note_on_c, 11, 74, 52
14, 203159, Note_on_c, 11, 74, 0
14, 203280, Note_on_c, 11, 70, 52
14, 203399, Note_on_c, 11, 70, 0
14, 203520, Note_on_c, 11, 82, 52
14, 203639, Note_on_c, 11, 82, 0
14, 203760, Note_on_c, 11, 78, 52
14, 203879, Note_on_c, 11, 78, 0
14, 204000, Note_on_c, 11, 79, 52
14, 204119, Note_on_c, 11, 79, 0
14, 204240, Note_on_c, 11, 74, 52
14, 204359, Note_on_c, 11, 74, 0
14, 204480, Note_on_c, 11, 75, 52
14, 204599, Note_on_c, 11, 75, 0
14, 204720, Note_on_c, 11, 72, 52
14, 204839, Note_on_c, 11, 72, 0
14, 204960, Note_on_c, 11, 67, 52
14, 205079, Note_on_c, 11, 67, 0
14, 205200, Note_on_c, 11, 68, 52
14, 205319, Note_on_c, 11, 68, 0
14, 205440, Note_on_c, 11, 65, 52
14, 205559, Note_on_c, 11, 65, 0
14, 205680, Note_on_c, 11, 62, 52
14, 205799, Note_on_c, 11, 62, 0
14, 205920, Note_on_c, 11, 70, 52
14, 206039, Note_on_c, 11, 70, 0
14, 206160, Note_on_c, 11, 67, 52
14, 206249, Note_on_c, 11, 67, 0
14, 206280, Note_on_c, 11, 67, 52
14, 206369, Note_on_c, 11, 67, 0
14, 206400, Note_on_c, 11, 70, 52
14, 206489, Note_on_c, 11, 70, 0
14, 206520, Note_on_c, 11, 70, 52
14, 206609, Note_on_c, 11, 70, 0
14, 206640, Note_on_c, 11, 71, 52
14, 206729, Note_on_c, 11, 71, 0
14, 206760, Note_on_c, 11, 71, 52
14, 206849, Note_on_c, 11, 71, 0
14, 206880, Note_on_c, 11, 72, 52
14, 206969, Note_on_c, 11, 72, 0
14, 207000, Note_on_c, 11, 72, 52
14, 207089, Note_on_c, 11, 72, 0
14, 207120, Note_on_c, 11, 74, 52
14, 207209, Note_on_c, 11, 74, 0
14, 207240, Note_on_c, 11, 74, 52
14, 207329, Note_on_c, 11, 74, 0
14, 207360, Note_on_c, 11, 75, 52
14, 207449, Note_on_c, 11, 75, 0
14, 207480, Note_on_c, 11, 75, 52
14, 207569, Note_on_c, 11, 75, 0
14, 207600, Note_on_c, 11, 77, 52
14, 207689, Note_on_c, 11, 77, 0
14, 207720, Note_on_c, 11, 77, 52
14, 207809, Note_on_c, 11, 77, 0
14, 207840, Note_on_c, 11, 72, 52
14, 207929, Note_on_c, 11, 72, 0
14, 207960, Note_on_c, 11, 72, 52
14, 208049, Note_on_c, 11, 72, 0
14, 208080, Note_on_c, 11, 73, 52
14, 208169, Note_on_c, 11, 73, 0
14, 208200, Note_on_c, 11, 73, 52
14, 208289, Note_on_c, 11, 73, 0
14, 208320, Note_on_c, 11, 74, 52
14, 208409, Note_on_c, 11, 74, 0
14, 208440, Note_on_c, 11, 74, 52
14, 208529, Note_on_c, 11, 74, 0
14, 208560, Note_on_c, 11, 76, 52
14, 208649, Note_on_c, 11, 76, 0
14, 208680, Note_on_c, 11, 76, 52
14, 208769, Note_on_c, 11, 76, 0
14, 208800, Note_on_c, 11, 77, 52
14, 208889, Note_on_c, 11, 77, 0
14, 208920, Note_on_c, 11, 77, 52
14, 209009, Note_on_c, 11, 77, 0
14, 209040, Note_on_c, 11, 79, 52
14, 209129, Note_on_c, 11, 79, 0
14, 209160, Note_on_c, 11, 79, 53
14, 209249, Note_on_c, 11, 79, 0
14, 209280, Note_on_c, 11, 73, 54
14, 209369, Note_on_c, 11, 73, 0
14, 209400, Note_on_c, 11, 73, 56
14, 209489, Note_on_c, 11, 73, 0
14, 209520, Note_on_c, 11, 74, 57
14, 209609, Note_on_c, 11, 74, 0
14, 209640, Note_on_c, 11, 74, 58
14, 209729, Note_on_c, 11, 74, 0
14, 209760, Note_on_c, 11, 75, 60
14, 209849, Note_on_c, 11, 75, 0
14, 209880, Note_on_c, 11, 75, 61
14, 209969, Note_on_c, 11, 75, 0
14, 210000, Note_on_c, 11, 77, 62
14, 210089, Note_on_c, 11, 77, 0
14, 210120, Note_on_c, 11, 77, 64
14, 210209, Note_on_c, 11, 77, 0
14, 210240, Note_on_c, 11, 79, 65
14, 210329, Note_on_c, 11, 79, 0
14, 210360, Note_on_c, 11, 79, 66
14, 210449, Note_on_c, 11, 79, 0
14, 210480, Note_on_c, 11, 80, 68
14, 210569, Note_on_c, 11, 80, 0
14, 210600, Note_on_c, 11, 80, 69
14, 210689, Note_on_c, 11, 80, 0
14, 210720, Note_on_c, 11, 80, 70
14, 210809, Note_on_c, 11, 80, 0
14, 210840, Note_on_c, 11, 80, 72
14, 210929, Note_on_c, 11, 80, 0
14, 210960, Note_on_c, 11, 80, 73
14, 211049, Note_on_c, 11, 80, 0
14, 211080, Note_on_c, 11, 80, 74
14, 211169, Note_on_c, 11, 80, 0
14, 211200, Note_on_c, 11, 80, 76
14, 211289, Note_on_c, 11, 80, 0
14, 211320, Note_on_c, 11, 80, 77
14, 211409, Note_on_c, 11, 80, 0
14, 211440, Note_on_c, 11, 80, 78
14, 211529, Note_on_c, 11, 80, 0
14, 211560, Note_on_c, 11, 80, 80
14, 211649, Note_on_c, 11, 80, 0
14, 211680, Note_on_c, 11, 80, 81
14, 211769, Note_on_c, 11, 80, 0
14, 211800, Note_on_c, 11, 80, 82
14, 211889, Note_on_c, 11, 80, 0
14, 211920, Note_on_c, 11, 80, 84
14, 212009, Note_on_c, 11, 80, 0
14, 212040, Note_on_c, 11, 80, 84
14, 212129, Note_on_c, 11, 80, 0
14, 212160, Note_on_c, 11, 80, 84
14, 212249, Note_on_c, 11, 80, 0
14, 212280, Note_on_c, 11, 80, 84
14, 212369, Note_on_c, 11, 80, 0
14, 212400, Note_on_c, 11, 80, 84
14, 212489, Note_on_c, 11, 80, 0
14, 212520, Note_on_c, 11, 80, 84
14, 212609, Note_on_c, 11, 80, 0
14, 212640, Note_on_c, 11, 80, 84
14, 212729, Note_on_c, 11, 80, 0
14, 212760, Note_on_c, 11, 80, 84
14, 212849, Note_on_c, 11, 80, 0
14, 212880, Note_on_c, 11, 80, 84
14, 212969, Note_on_c, 11, 80, 0
14, 213000, Note_on_c, 11, 80, 84
14, 213089, Note_on_c, 11, 80, 0
14, 213120, Note_on_c, 11, 80, 84
14, 213209, Note_on_c, 11, 80, 0
14, 213240, Note_on_c, 11, 80, 84
14, 213329, Note_on_c, 11, 80, 0
14, 213360, Note_on_c, 11, 80, 84
14, 213449, Note_on_c, 11, 80, 0
14, 213480, Note_on_c, 11, 80, 84
14, 213569, Note_on_c, 11, 80, 0
14, 213600, Note_on_c, 11, 80, 84
14, 213689, Note_on_c, 11, 80, 0
14, 213720, Note_on_c, 11, 80, 84
14, 213809, Note_on_c, 11, 80, 0
14, 213840, Note_on_c, 11, 80, 84
14, 213929, Note_on_c, 11, 80, 0
14, 213960, Note_on_c, 11, 80, 84
14, 214049, Note_on_c, 11, 80, 0
14, 214080, Note_on_c, 11, 80, 84
14, 214169, Note_on_c, 11, 80, 0
14, 214200, Note_on_c, 11, 80, 84
14, 214289, Note_on_c, 11, 80, 0
14, 214320, Note_on_c, 11, 79, 84
14, 214409, Note_on_c, 11, 79, 0
14, 214440, Note_on_c, 11, 79, 84
14, 214529, Note_on_c, 11, 79, 0
14, 214560, Note_on_c, 11, 77, 84
14, 214649, Note_on_c, 11, 77, 0
14, 214680, Note_on_c, 11, 77, 84
14, 214769, Note_on_c, 11, 77, 0
14, 214800, Note_on_c, 11, 75, 76
14, 215039, Note_on_c, 11, 75, 0
14, 215520, Note_on_c, 11, 62, 76
14, 215520, Note_on_c, 11, 70, 76
14, 215520, Note_on_c, 11, 77, 76
14, 215759, Note_on_c, 11, 62, 0
14, 215759, Note_on_c, 11, 70, 0
14, 215759, Note_on_c, 11, 77, 0
14, 216240, Note_on_c, 11, 55, 76
14, 216240, Note_on_c, 11, 63, 76
14, 216240, Note_on_c, 11, 75, 76
14, 216479, Note_on_c, 11, 55, 0
14, 216479, Note_on_c, 11, 63, 0
14, 216479, Note_on_c, 11, 75, 0
14, 222240, Note_on_c, 11, 67, 52
14, 222449, Note_on_c, 11, 67, 0
14, 222480, Note_on_c, 11, 67, 52
14, 222689, Note_on_c, 11, 67, 0
14, 222720, Note_on_c, 11, 65, 52
14, 222959, Note_on_c, 11, 65, 0
14, 228000, Note_on_c, 11, 72, 52
14, 228209, Note_on_c, 11, 72, 0
14, 228240, Note_on_c, 11, 74, 52
14, 228449, Note_on_c, 11, 74, 0
14, 228480, Note_on_c, 11, 75, 52
14, 228719, Note_on_c, 11, 75, 0
14, 233760, Note_on_c, 11, 67, 52
14, 233969, Note_on_c, 11, 67, 0
14, 234000, Note_on_c, 11, 67, 52
14, 234209, Note_on_c, 11, 67, 0
14, 234240, Note_on_c, 11, 65, 52
14, 234479, Note_on_c, 11, 65, 0
14, 238800, Note_on_c, 11, 68, 52
14, 239009, Note_on_c, 11, 68, 0
14, 239040, Note_on_c, 11, 68, 52
14, 239249, Note_on_c, 11, 68, 0
14, 239280, Note_on_c, 11, 67, 76
14, 239519, Note_on_c, 11, 67, 0
14, 239760, Note_on_c, 11, 63, 76
14, 239879, Note_on_c, 11, 63, 0
14, 240000, Note_on_c, 11, 68, 76
14, 240239, Note_on_c, 11, 68, 0
14, 240240, Note_on_c, 11, 63, 76
14, 240449, Note_on_c, 11, 63, 0
14, 240480, Note_on_c, 11, 72, 76
14, 240599, Note_on_c, 11, 72, 0
14, 240720, Note_on_c, 11, 70, 76
14, 240959, Note_on_c, 11, 70, 0
14, 240960, Note_on_c, 11, 63, 76
14, 241169, Note_on_c, 11, 63, 0
14, 241200, Note_on_c, 11, 73, 76
14, 241319, Note_on_c, 11, 73, 0
14, 241440, Note_on_c, 11, 67, 76
14, 241679, Note_on_c, 11, 67, 0
14, 241680, Note_on_c, 11, 63, 76
14, 241889, Note_on_c, 11, 63, 0
14, 241920, Note_on_c, 11, 70, 76
14, 242039, Note_on_c, 11, 70, 0
14, 242160, Note_on_c, 11, 68, 76
14, 242399, Note_on_c, 11, 68, 0
14, 242640, Note_on_c, 11, 72, 76
14, 242759, Note_on_c, 11, 72, 0
14, 242880, Note_on_c, 11, 77, 76
14, 243119, Note_on_c, 11, 77, 0
14, 243120, Note_on_c, 11, 72, 76
14, 243329, Note_on_c, 11, 72, 0
14, 243360, Note_on_c, 11, 80, 76
14, 243479, Note_on_c, 11, 80, 0
14, 243600, Note_on_c, 11, 79, 76
14, 243839, Note_on_c, 11, 79, 0
14, 243840, Note_on_c, 11, 72, 76
14, 244049, Note_on_c, 11, 72, 0
14, 244080, Note_on_c, 11, 82, 76
14, 244199, Note_on_c, 11, 82, 0
14, 244320, Note_on_c, 11, 76, 76
14, 244559, Note_on_c, 11, 76, 0
14, 244560, Note_on_c, 11, 72, 76
14, 244769, Note_on_c, 11, 72, 0
14, 244800, Note_on_c, 11, 79, 76
14, 244919, Note_on_c, 11, 79, 0
14, 245040, Note_on_c, 11, 77, 76
14, 245279, Note_on_c, 11, 77, 0
14, 253200, Note_on_c, 11, 70, 52
14, 253439, Note_on_c, 11, 70, 0
14, 253440, Note_on_c, 11, 68, 52
14, 253679, Note_on_c, 11, 68, 0
14, 253680, Note_on_c, 11, 72, 52
14, 253919, Note_on_c, 11, 72, 0
14, 253920, Note_on_c, 11, 68, 52
14, 254159, Note_on_c, 11, 68, 0
14, 254160, Note_on_c, 11, 67, 52
14, 254399, Note_on_c, 11, 67, 0
14, 254400, Note_on_c, 11, 65, 52
14, 254639, Note_on_c, 11, 65, 0
14, 256080, Note_on_c, 11, 77, 52
14, 256319, Note_on_c, 11, 77, 0
14, 256320, Note_on_c, 11, 74, 52
14, 256559, Note_on_c, 11, 74, 0
14, 256560, Note_on_c, 11, 70, 52
14, 256799, Note_on_c, 11, 70, 0
14, 257520, Note_on_c, 11, 77, 60
14, 257759, Note_on_c, 11, 77, 0
14, 257760, Note_on_c, 11, 74, 62
14, 257999, Note_on_c, 11, 74, 0
14, 258000, Note_on_c, 11, 70, 65
14, 258239, Note_on_c, 11, 70, 0
14, 258960, Note_on_c, 11, 70, 76
14, 259199, Note_on_c, 11, 70, 0
14, 259200, Note_on_c, 11, 67, 76
14, 259439, Note_on_c, 11, 67, 0
14, 259440, Note_on_c, 11, 63, 76
14, 259679, Note_on_c, 11, 63, 0
14, 264000, Note_on_c, 11, 67, 52
14, 264209, Note_on_c, 11, 67, 0
14, 264240, Note_on_c, 11, 67, 52
14, 264449, Note_on_c, 11, 67, 0
14, 264480, Note_on_c, 11, 65, 52
14, 264719, Note_on_c, 11, 65, 0
14, 270000, Note_on_c, 11, 65, 52
14, 270239, Note_on_c, 11, 65, 0
14, 270240, Note_on_c, 11, 66, 76
14, 270480, Control_c, 11, 11, 112
14, 270580, Control_c, 11, 11, 109
14, 270680, Control_c, 11, 11, 107
14, 270780, Control_c, 11, 11, 104
14, 270880, Control_c, 11, 11, 101
14, 270980, Control_c, 11, 11, 99
14, 271080, Control_c, 11, 11, 96
14, 271180, Control_c, 11, 11, 93
14, 271280, Control_c, 11, 11, 91
14, 271380, Control_c, 11, 11, 88
14, 271480, Control_c, 11, 11, 85
14, 271580, Control_c, 11, 11, 80
14, 271679, Note_on_c, 11, 66, 0
14, 271680, Note_on_c, 11, 67, 76
14, 272159, Note_on_c, 11, 67, 0
14, 272160, Note_on_c, 11, 68, 76
14, 272399, Note_on_c, 11, 68, 0
14, 272400, Note_on_c, 11, 67, 76
14, 272639, Note_on_c, 11, 67, 0
14, 275280, Control_c, 11, 11, 127
14, 275760, Note_on_c, 11, 65, 44
14, 275999, Note_on_c, 11, 65, 0
14, 276000, Note_on_c, 11, 66, 44
14, 277169, Note_on_c, 11, 66, 0
14, 277200, Note_on_c, 11, 66, 44
14, 277439, Note_on_c, 11, 66, 0
14, 277440, Note_on_c, 11, 67, 44
14, 278399, Note_on_c, 11, 67, 0
14, 283440, Note_on_c, 11, 65, 44
14, 283649, Note_on_c, 11, 65, 0
14, 283680, Note_on_c, 11, 65, 44
14, 283889, Note_on_c, 11, 65, 0
14, 283920, Note_on_c, 11, 67, 44
14, 284159, Note_on_c, 11, 67, 0
14, 284400, Note_on_c, 11, 63, 76
14, 284519, Note_on_c, 11, 63, 0
14, 284640, Note_on_c, 11, 68, 76
14, 284879, Note_on_c, 11, 68, 0
14, 284880, Note_on_c, 11, 63, 76
14, 285089, Note_on_c, 11, 63, 0
14, 285120, Note_on_c, 11, 72, 76
14, 285239, Note_on_c, 11, 72, 0
14, 285360, Note_on_c, 11, 70, 76
14, 285599, Note_on_c, 11, 70, 0
14, 285600, Note_on_c, 11, 63, 76
14, 285809, Note_on_c, 11, 63, 0
14, 285840, Note_on_c, 11, 73, 76
14, 285959, Note_on_c, 11, 73, 0
14, 286080, Note_on_c, 11, 67, 76
14, 286319, Note_on_c, 11, 67, 0
14, 286320, Note_on_c, 11, 63, 76
14, 286529, Note_on_c, 11, 63, 0
14, 286560, Note_on_c, 11, 70, 76
14, 286679, Note_on_c, 11, 70, 0
14, 286800, Note_on_c, 11, 68, 76
14, 287039, Note_on_c, 11, 68, 0
14, 287280, Note_on_c, 11, 72, 76
14, 287399, Note_on_c, 11, 72, 0
14, 287520, Note_on_c, 11, 77, 76
14, 287759, Note_on_c, 11, 77, 0
14, 287760, Note_on_c, 11, 72, 76
14, 287969, Note_on_c, 11, 72, 0
14, 288000, Note_on_c, 11, 80, 76
14, 288119, Note_on_c, 11, 80, 0
14, 288240, Note_on_c, 11, 79, 76
14, 288479, Note_on_c, 11, 79, 0
14, 288480, Note_on_c, 11, 72, 76
14, 288689, Note_on_c, 11, 72, 0
14, 288720, Note_on_c, 11, 82, 76
14, 288839, Note_on_c, 11, 82, 0
14, 288960, Note_on_c, 11, 76, 76
14, 289199, Note_on_c, 11, 76, 0
14, 289200, Note_on_c, 11, 72, 76
14, 289409, Note_on_c, 11, 72, 0
14, 289440, Note_on_c, 11, 79, 76
14, 289559, Note_on_c, 11, 79, 0
14, 289680, Note_on_c, 11, 77, 76
14, 289919, Note_on_c, 11, 77, 0
14, 297840, Note_on_c, 11, 70, 52
14, 298079, Note_on_c, 11, 70, 0
14, 298080, Note_on_c, 11, 68, 52
14, 298319, Note_on_c, 11, 68, 0
14, 298320, Note_on_c, 11, 72, 52
14, 298559, Note_on_c, 11, 72, 0
14, 298560, Note_on_c, 11, 68, 52
14, 298799, Note_on_c, 11, 68, 0
14, 298800, Note_on_c, 11, 67, 52
14, 299039, Note_on_c, 11, 67, 0
14, 299040, Note_on_c, 11, 65, 52
14, 299279, Note_on_c, 11, 65, 0
14, 300720, Note_on_c, 11, 77, 52
14, 300959, Note_on_c, 11, 77, 0
14, 300960, Note_on_c, 11, 74, 52
14, 301199, Note_on_c, 11, 74, 0
14, 301200, Note_on_c, 11, 70, 52
14, 301439, Note_on_c, 11, 70, 0
14, 302160, Note_on_c, 11, 77, 60
14, 302399, Note_on_c, 11, 77, 0
14, 302400, Note_on_c, 11, 74, 62
14, 302639, Note_on_c, 11, 74, 0
14, 302640, Note_on_c, 11, 70, 65
14, 302879, Note_on_c, 11, 70, 0
14, 303600, Note_on_c, 11, 70, 76
14, 303839, Note_on_c, 11, 70, 0
14, 303840, Note_on_c, 11, 67, 76
14, 304079, Note_on_c, 11, 67, 0
14, 304080, Note_on_c, 11, 63, 76
14, 304319, Note_on_c, 11, 63, 0
14, 308640, Note_on_c, 11, 67, 52
14, 308849, Note_on_c, 11, 67, 0
14, 308880, Note_on_c, 11, 67, 52
14, 309089, Note_on_c, 11, 67, 0
14, 309120, Note_on_c, 11, 65, 52
14, 309359, Note_on_c, 11, 65, 0
14, 314640, Note_on_c, 11, 65, 52
14, 314879, Note_on_c, 11, 65, 0
14, 314880, Note_on_c, 11, 66, 76
14, 315120, Control_c, 11, 11, 112
14, 315220, Control_c, 11, 11, 109
14, 315320, Control_c, 11, 11, 107
14, 315420, Control_c, 11, 11, 104
14, 315520, Control_c, 11, 11, 101
14, 315620, Control_c, 11, 11, 99
14, 315720, Control_c, 11, 11, 96
14, 315820, Control_c, 11, 11, 93
14, 315920, Control_c, 11, 11, 91
14, 316020, Control_c, 11, 11, 88
14, 316120, Control_c, 11, 11, 85
14, 316220, Control_c, 11, 11, 80
14, 316319, Note_on_c, 11, 66, 0
14, 316320, Note_on_c, 11, 67, 76
14, 316799, Note_on_c, 11, 67, 0
14, 316800, Note_on_c, 11, 68, 76
14, 317039, Note_on_c, 11, 68, 0
14, 317040, Note_on_c, 11, 67, 76
14, 317279, Note_on_c, 11, 67, 0
14, 319920, Control_c, 11, 11, 127
14, 320400, Note_on_c, 11, 65, 44
14, 320639, Note_on_c, 11, 65, 0
14, 320640, Note_on_c, 11, 66, 44
14, 321809, Note_on_c, 11, 66, 0
14, 321840, Note_on_c, 11, 66, 44
14, 322079, Note_on_c, 11, 66, 0
14, 322080, Note_on_c, 11, 67, 44
14, 323039, Note_on_c, 11, 67, 0
14, 325920, Note_on_c, 11, 59, 44
14, 326039, Note_on_c, 11, 59, 0
14, 326160, Note_on_c, 11, 60, 44
14, 326279, Note_on_c, 11, 60, 0
14, 326400, Note_on_c, 11, 59, 44
14, 326519, Note_on_c, 11, 59, 0
14, 326640, Note_on_c, 11, 60, 44
14, 326759, Note_on_c, 11, 60, 0
14, 326880, Note_on_c, 11, 59, 44
14, 326999, Note_on_c, 11, 59, 0
14, 327120, Note_on_c, 11, 60, 44
14, 327239, Note_on_c, 11, 60, 0
14, 327360, Note_on_c, 11, 59, 44
14, 327479, Note_on_c, 11, 59, 0
14, 327600, Note_on_c, 11, 60, 44
14, 327719, Note_on_c, 11, 60, 0
14, 327840, Note_on_c, 11, 59, 44
14, 327959, Note_on_c, 11, 59, 0
14, 328080, Note_on_c, 11, 60, 44
14, 328199, Note_on_c, 11, 60, 0
14, 328320, Note_on_c, 11, 62, 44
14, 328439, Note_on_c, 11, 62, 0
14, 328560, Note_on_c, 11, 63, 44
14, 328679, Note_on_c, 11, 63, 0
14, 328800, Note_on_c, 11, 63, 44
14, 328919, Note_on_c, 11, 63, 0
14, 329040, Note_on_c, 11, 63, 44
14, 329159, Note_on_c, 11, 63, 0
14, 329280, Note_on_c, 11, 63, 44
14, 329399, Note_on_c, 11, 63, 0
14, 329520, Note_on_c, 11, 63, 44
14, 329639, Note_on_c, 11, 63, 0
14, 329760, Note_on_c, 11, 63, 44
14, 329879, Note_on_c, 11, 63, 0
14, 330000, Note_on_c, 11, 63, 44
14, 330119, Note_on_c, 11, 63, 0
14, 330240, Note_on_c, 11, 63, 44
14, 330359, Note_on_c, 11, 63, 0
14, 330480, Note_on_c, 11, 63, 44
14, 330599, Note_on_c, 11, 63, 0
14, 330720, Note_on_c, 11, 63, 44
14, 330839, Note_on_c, 11, 63, 0
14, 330960, Note_on_c, 11, 63, 44
14, 331079, Note_on_c, 11, 63, 0
14, 331200, Note_on_c, 11, 62, 44
14, 331319, Note_on_c, 11, 62, 0
14, 331440, Note_on_c, 11, 63, 44
14, 331559, Note_on_c, 11, 63, 0
14, 331680, Note_on_c, 11, 65, 44
14, 331799, Note_on_c, 11, 65, 0
14, 331920, Note_on_c, 11, 66, 44
14, 332039, Note_on_c, 11, 66, 0
14, 332160, Note_on_c, 11, 67, 44
14, 332279, Note_on_c, 11, 67, 0
14, 332400, Note_on_c, 11, 68, 44
14, 332519, Note_on_c, 11, 68, 0
14, 332640, Note_on_c, 11, 69, 44
14, 332759, Note_on_c, 11, 69, 0
14, 332880, Note_on_c, 11, 70, 44
14, 332999, Note_on_c, 11, 70, 0
14, 333120, Note_on_c, 11, 70, 44
14, 333239, Note_on_c, 11, 70, 0
14, 333360, Note_on_c, 11, 70, 44
14, 333479, Note_on_c, 11, 70, 0
14, 333600, Note_on_c, 11, 70, 44
14, 333719, Note_on_c, 11, 70, 0
14, 333840, Note_on_c, 11, 70, 44
14, 333959, Note_on_c, 11, 70, 0
14, 334080, Note_on_c, 11, 70, 44
14, 334199, Note_on_c, 11, 70, 0
14, 334320, Note_on_c, 11, 70, 44
14, 334559, Note_on_c, 11, 70, 0
14, 334560, Note_on_c, 11, 72, 44
14, 334679, Note_on_c, 11, 72, 0
14, 334680, Note_on_c, 11, 70, 44
14, 334799, Note_on_c, 11, 70, 0
14, 334800, Note_on_c, 11, 69, 44
14, 334919, Note_on_c, 11, 69, 0
14, 334920, Note_on_c, 11, 67, 44
14, 335009, Note_on_c, 11, 67, 0
14, 335040, Note_on_c, 11, 65, 44
14, 335729, Note_on_c, 11, 65, 0
14, 335760, Note_on_c, 11, 63, 44
14, 336449, Note_on_c, 11, 63, 0
14, 336480, Note_on_c, 11, 62, 44
14, 336719, Note_on_c, 11, 62, 0
14, 336720, Note_on_c, 11, 65, 44
14, 336929, Note_on_c, 11, 65, 0
14, 336960, Note_on_c, 11, 62, 44
14, 337079, Note_on_c, 11, 62, 0
14, 337200, Note_on_c, 11, 60, 44
14, 337439, Note_on_c, 11, 60, 0
14, 337440, Note_on_c, 11, 63, 44
14, 337649, Note_on_c, 11, 63, 0
14, 337680, Note_on_c, 11, 60, 44
14, 337799, Note_on_c, 11, 60, 0
14, 337920, Note_on_c, 11, 58, 44
14, 338039, Note_on_c, 11, 58, 0
14, 338400, Note_on_c, 11, 58, 44
14, 338519, Note_on_c, 11, 58, 0
14, 338640, Note_on_c, 11, 58, 44
14, 338759, Note_on_c, 11, 58, 0
14, 338880, Note_on_c, 11, 60, 44
14, 338999, Note_on_c, 11, 60, 0
14, 339120, Note_on_c, 11, 58, 44
14, 339239, Note_on_c, 11, 58, 0
14, 339360, Note_on_c, 11, 60, 44
14, 339479, Note_on_c, 11, 60, 0
14, 339600, Note_on_c, 11, 58, 44
14, 339719, Note_on_c, 11, 58, 0
14, 339840, Note_on_c, 11, 60, 44
14, 339959, Note_on_c, 11, 60, 0
14, 340080, Note_on_c, 11, 58, 44
14, 340199, Note_on_c, 11, 58, 0
14, 340320, Note_on_c, 11, 60, 44
14, 340439, Note_on_c, 11, 60, 0
14, 340560, Note_on_c, 11, 58, 44
14, 340679, Note_on_c, 11, 58, 0
14, 340800, Note_on_c, 11, 60, 44
14, 340919, Note_on_c, 11, 60, 0
14, 341040, Note_on_c, 11, 58, 44
14, 341159, Note_on_c, 11, 58, 0
14, 341280, Note_on_c, 11, 62, 44
14, 341399, Note_on_c, 11, 62, 0
14, 341520, Note_on_c, 11, 63, 44
14, 341639, Note_on_c, 11, 63, 0
14, 341760, Note_on_c, 11, 65, 44
14, 341879, Note_on_c, 11, 65, 0
14, 342000, Note_on_c, 11, 66, 44
14, 342119, Note_on_c, 11, 66, 0
14, 342240, Note_on_c, 11, 67, 44
14, 342359, Note_on_c, 11, 67, 0
14, 342480, Note_on_c, 11, 68, 44
14, 342599, Note_on_c, 11, 68, 0
14, 342720, Note_on_c, 11, 69, 44
14, 342839, Note_on_c, 11, 69, 0
14, 342960, Note_on_c, 11, 70, 44
14, 343079, Note_on_c, 11, 70, 0
14, 343200, Note_on_c, 11, 70, 44
14, 343319, Note_on_c, 11, 70, 0
14, 343440, Note_on_c, 11, 70, 44
14, 343559, Note_on_c, 11, 70, 0
14, 343680, Note_on_c, 11, 70, 44
14, 343799, Note_on_c, 11, 70, 0
14, 343920, Note_on_c, 11, 70, 44
14, 344039, Note_on_c, 11, 70, 0
14, 344160, Note_on_c, 11, 70, 44
14, 344279, Note_on_c, 11, 70, 0
14, 344400, Note_on_c, 11, 70, 44
14, 344639, Note_on_c, 11, 70, 0
14, 344640, Note_on_c, 11, 72, 44
14, 344759, Note_on_c, 11, 72, 0
14, 344760, Note_on_c, 11, 70, 44
14, 344879, Note_on_c, 11, 70, 0
14, 344880, Note_on_c, 11, 69, 44
14, 344999, Note_on_c, 11, 69, 0
14, 345000, Note_on_c, 11, 67, 44
14, 345089, Note_on_c, 11, 67, 0
14, 345120, Note_on_c, 11, 65, 44
14, 345809, Note_on_c, 11, 65, 0
14, 345840, Note_on_c, 11, 63, 44
14, 346529, Note_on_c, 11, 63, 0
14, 346560, Note_on_c, 11, 62, 44
14, 346799, Note_on_c, 11, 62, 0
14, 346800, Note_on_c, 11, 65, 44
14, 347009, Note_on_c, 11, 65, 0
14, 347040, Note_on_c, 11, 62, 44
14, 347159, Note_on_c, 11, 62, 0
14, 347280, Note_on_c, 11, 60, 44
14, 347519, Note_on_c, 11, 60, 0
14, 347520, Note_on_c, 11, 63, 44
14, 347729, Note_on_c, 11, 63, 0
14, 347760, Note_on_c, 11, 60, 44
14, 347879, Note_on_c, 11, 60, 0
14, 348000, Note_on_c, 11, 58, 44
14, 348119, Note_on_c, 11, 58, 0
14, 348480, Note_on_c, 11, 58, 44
14, 348599, Note_on_c, 11, 58, 0
14, 348720, Note_on_c, 11, 58, 44
14, 348839, Note_on_c, 11, 58, 0
14, 348960, Note_on_c, 11, 59, 44
14, 349079, Note_on_c, 11, 59, 0
14, 349200, Note_on_c, 11, 58, 44
14, 349319, Note_on_c, 11, 58, 0
14, 349440, Note_on_c, 11, 59, 44
14, 349559, Note_on_c, 11, 59, 0
14, 349680, Note_on_c, 11, 58, 44
14, 349799, Note_on_c, 11, 58, 0
14, 349920, Note_on_c, 11, 59, 44
14, 350039, Note_on_c, 11, 59, 0
14, 350160, Note_on_c, 11, 58, 44
14, 350279, Note_on_c, 11, 58, 0
14, 350400, Note_on_c, 11, 59, 44
14, 350519, Note_on_c, 11, 59, 0
14, 350640, Note_on_c, 11, 58, 44
14, 350759, Note_on_c, 11, 58, 0
14, 350880, Note_on_c, 11, 59, 44
14, 350999, Note_on_c, 11, 59, 0
14, 351120, Note_on_c, 11, 59, 44
14, 351239, Note_on_c, 11, 59, 0
14, 351360, Note_on_c, 11, 60, 44
14, 351479, Note_on_c, 11, 60, 0
14, 351600, Note_on_c, 11, 60, 44
14, 351719, Note_on_c, 11, 60, 0
14, 351840, Note_on_c, 11, 61, 44
14, 351959, Note_on_c, 11, 61, 0
14, 352080, Note_on_c, 11, 60, 44
14, 352199, Note_on_c, 11, 60, 0
14, 352320, Note_on_c, 11, 61, 44
14, 352439, Note_on_c, 11, 61, 0
14, 352560, Note_on_c, 11, 60, 44
14, 352679, Note_on_c, 11, 60, 0
14, 352800, Note_on_c, 11, 61, 44
14, 352919, Note_on_c, 11, 61, 0
14, 353040, Note_on_c, 11, 60, 44
14, 353159, Note_on_c, 11, 60, 0
14, 353280, Note_on_c, 11, 61, 44
14, 353399, Note_on_c, 11, 61, 0
14, 353520, Note_on_c, 11, 60, 44
14, 353639, Note_on_c, 11, 60, 0
14, 353760, Note_on_c, 11, 61, 44
14, 353879, Note_on_c, 11, 61, 0
14, 354000, Note_on_c, 11, 61, 44
14, 354119, Note_on_c, 11, 61, 0
14, 354240, Note_on_c, 11, 60, 44
14, 354359, Note_on_c, 11, 60, 0
14, 354480, Note_on_c, 11, 60, 44
14, 354599, Note_on_c, 11, 60, 0
14, 354720, Note_on_c, 11, 61, 44
14, 354839, Note_on_c, 11, 61, 0
14, 354960, Note_on_c, 11, 61, 44
14, 355079, Note_on_c, 11, 61, 0
14, 355200, Note_on_c, 11, 61, 44
14, 355319, Note_on_c, 11, 61, 0
14, 355440, Note_on_c, 11, 62, 44
14, 355559, Note_on_c, 11, 62, 0
14, 355680, Note_on_c, 11, 62, 44
14, 355799, Note_on_c, 11, 62, 0
14, 355920, Note_on_c, 11, 62, 44
14, 356039, Note_on_c, 11, 62, 0
14, 356160, Note_on_c, 11, 63, 44
14, 356279, Note_on_c, 11, 63, 0
14, 356400, Note_on_c, 11, 63, 44
14, 356519, Note_on_c, 11, 63, 0
14, 356640, Note_on_c, 11, 62, 44
14, 356759, Note_on_c, 11, 62, 0
14, 356880, Note_on_c, 11, 64, 44
14, 356999, Note_on_c, 11, 64, 0
14, 357120, Note_on_c, 11, 64, 44
14, 357239, Note_on_c, 11, 64, 0
14, 357360, Note_on_c, 11, 65, 44
14, 357479, Note_on_c, 11, 65, 0
14, 357600, Note_on_c, 11, 77, 44
14, 357719, Note_on_c, 11, 77, 0
14, 357840, Note_on_c, 11, 77, 44
14, 357959, Note_on_c, 11, 77, 0
14, 358080, Note_on_c, 11, 77, 44
14, 358199, Note_on_c, 11, 77, 0
14, 358320, Note_on_c, 11, 77, 44
14, 358439, Note_on_c, 11, 77, 0
14, 358560, Note_on_c, 11, 77, 44
14, 358679, Note_on_c, 11, 77, 0
14, 358800, Note_on_c, 11, 77, 44
14, 359039, Note_on_c, 11, 77, 0
14, 359040, Note_on_c, 11, 79, 44
14, 359159, Note_on_c, 11, 79, 0
14, 359160, Note_on_c, 11, 77, 44
14, 359279, Note_on_c, 11, 77, 0
14, 359280, Note_on_c, 11, 76, 44
14, 359399, Note_on_c, 11, 76, 0
14, 359400, Note_on_c, 11, 74, 44
14, 359489, Note_on_c, 11, 74, 0
14, 359520, Note_on_c, 11, 72, 44
14, 360209, Note_on_c, 11, 72, 0
14, 360240, Note_on_c, 11, 70, 44
14, 360929, Note_on_c, 11, 70, 0
14, 360960, Note_on_c, 11, 69, 44
14, 361199, Note_on_c, 11, 69, 0
14, 361200, Note_on_c, 11, 72, 44
14, 361409, Note_on_c, 11, 72, 0
14, 361440, Note_on_c, 11, 69, 44
14, 361559, Note_on_c, 11, 69, 0
14, 361680, Note_on_c, 11, 67, 44
14, 361919, Note_on_c, 11, 67, 0
14, 361920, Note_on_c, 11, 70, 44
14, 362129, Note_on_c, 11, 70, 0
14, 362160, Note_on_c, 11, 67, 44
14, 362279, Note_on_c, 11, 67, 0
14, 362400, Note_on_c, 11, 65, 44
14, 362519, Note_on_c, 11, 65, 0
14, 362640, Note_on_c, 11, 69, 44
14, 362759, Note_on_c, 11, 69, 0
14, 362880, Note_on_c, 11, 72, 44
14, 362999, Note_on_c, 11, 72, 0
14, 364560, Note_on_c, 11, 84, 52
14, 365249, Note_on_c, 11, 84, 0
14, 365280, Note_on_c, 11, 84, 52
14, 365999, Note_on_c, 11, 84, 0
14, 367440, Note_on_c, 11, 86, 52
14, 368129, Note_on_c, 11, 86, 0
14, 368160, Note_on_c, 11, 86, 52
14, 368849, Note_on_c, 11, 86, 0
14, 368880, Note_on_c, 11, 86, 44
14, 368999, Note_on_c, 11, 86, 0
14, 369120, Note_on_c, 11, 81, 44
14, 369239, Note_on_c, 11, 81, 0
14, 369360, Note_on_c, 11, 78, 44
14, 369479, Note_on_c, 11, 78, 0
14, 369600, Note_on_c, 11, 79, 44
14, 369719, Note_on_c, 11, 79, 0
14, 369840, Note_on_c, 11, 82, 44
14, 369959, Note_on_c, 11, 82, 0
14, 370080, Note_on_c, 11, 73, 44
14, 370199, Note_on_c, 11, 73, 0
14, 370320, Note_on_c, 11, 74, 44
14, 370439, Note_on_c, 11, 74, 0
14, 370560, Note_on_c, 11, 78, 44
14, 370679, Note_on_c, 11, 78, 0
14, 370800, Note_on_c, 11, 81, 44
14, 370919, Note_on_c, 11, 81, 0
14, 371040, Note_on_c, 11, 82, 44
14, 371159, Note_on_c, 11, 82, 0
14, 371280, Note_on_c, 11, 79, 44
14, 371399, Note_on_c, 11, 79, 0
14, 371520, Note_on_c, 11, 85, 44
14, 371639, Note_on_c, 11, 85, 0
14, 371760, Note_on_c, 11, 86, 44
14, 371879, Note_on_c, 11, 86, 0
14, 372000, Note_on_c, 11, 85, 44
14, 372119, Note_on_c, 11, 85, 0
14, 372240, Note_on_c, 11, 86, 44
14, 372359, Note_on_c, 11, 86, 0
14, 372480, Note_on_c, 11, 81, 44
14, 372599, Note_on_c, 11, 81, 0
14, 372720, Note_on_c, 11, 82, 44
14, 372839, Note_on_c, 11, 82, 0
14, 372960, Note_on_c, 11, 78, 44
14, 373079, Note_on_c, 11, 78, 0
14, 373200, Note_on_c, 11, 79, 44
14, 373319, Note_on_c, 11, 79, 0
14, 373440, Note_on_c, 11, 74, 44
14, 373559, Note_on_c, 11, 74, 0
14, 373680, Note_on_c, 11, 75, 44
14, 373799, Note_on_c, 11, 75, 0
14, 373920, Note_on_c, 11, 74, 44
14, 374039, Note_on_c, 11, 74, 0
14, 374160, Note_on_c, 11, 75, 44
14, 374279, Note_on_c, 11, 75, 0
14, 374400, Note_on_c, 11, 73, 44
14, 374519, Note_on_c, 11, 73, 0
14, 374640, Note_on_c, 11, 74, 44
14, 374759, Note_on_c, 11, 74, 0
14, 374880, Note_on_c, 11, 73, 44
14, 374999, Note_on_c, 11, 73, 0
14, 375120, Note_on_c, 11, 74, 44
14, 375239, Note_on_c, 11, 74, 0
14, 375360, Note_on_c, 11, 73, 44
14, 375479, Note_on_c, 11, 73, 0
14, 375600, Note_on_c, 11, 74, 44
14, 375719, Note_on_c, 11, 74, 0
14, 375840, Note_on_c, 11, 73, 44
14, 375959, Note_on_c, 11, 73, 0
14, 376080, Note_on_c, 11, 74, 44
14, 376199, Note_on_c, 11, 74, 0
14, 376320, Note_on_c, 11, 73, 44
14, 376439, Note_on_c, 11, 73, 0
14, 376560, Note_on_c, 11, 74, 44
14, 376679, Note_on_c, 11, 74, 0
14, 376800, Note_on_c, 11, 73, 44
14, 376919, Note_on_c, 11, 73, 0
14, 377040, Note_on_c, 11, 74, 44
14, 377159, Note_on_c, 11, 74, 0
14, 377280, Note_on_c, 11, 73, 44
14, 377399, Note_on_c, 11, 73, 0
14, 377520, Note_on_c, 11, 74, 44
14, 377639, Note_on_c, 11, 74, 0
14, 383040, Note_on_c, 11, 58, 44
14, 383159, Note_on_c, 11, 58, 0
14, 383280, Note_on_c, 11, 58, 44
14, 383399, Note_on_c, 11, 58, 0
14, 383520, Note_on_c, 11, 60, 44
14, 383639, Note_on_c, 11, 60, 0
14, 383760, Note_on_c, 11, 58, 44
14, 383879, Note_on_c, 11, 58, 0
14, 384000, Note_on_c, 11, 60, 44
14, 384119, Note_on_c, 11, 60, 0
14, 384240, Note_on_c, 11, 58, 44
14, 384359, Note_on_c, 11, 58, 0
14, 384480, Note_on_c, 11, 60, 44
14, 384599, Note_on_c, 11, 60, 0
14, 384720, Note_on_c, 11, 58, 44
14, 384839, Note_on_c, 11, 58, 0
14, 384960, Note_on_c, 11, 60, 44
14, 385079, Note_on_c, 11, 60, 0
14, 385200, Note_on_c, 11, 58, 44
14, 385319, Note_on_c, 11, 58, 0
14, 385440, Note_on_c, 11, 60, 44
14, 385649, Note_on_c, 11, 60, 0
14, 385680, Note_on_c, 11, 58, 44
14, 385889, Note_on_c, 11, 58, 0
14, 385920, Note_on_c, 11, 60, 44
14, 386129, Note_on_c, 11, 60, 0
14, 386160, Note_on_c, 11, 58, 44
14, 386369, Note_on_c, 11, 58, 0
14, 386400, Note_on_c, 11, 60, 44
14, 386609, Note_on_c, 11, 60, 0
14, 386640, Note_on_c, 11, 58, 44
14, 386849, Note_on_c, 11, 58, 0
14, 386880, Note_on_c, 11, 60, 44
14, 387089, Note_on_c, 11, 60, 0
14, 387120, Note_on_c, 11, 58, 44
14, 387329, Note_on_c, 11, 58, 0
14, 387360, Note_on_c, 11, 62, 44
14, 387569, Note_on_c, 11, 62, 0
14, 387600, Note_on_c, 11, 63, 44
14, 387809, Note_on_c, 11, 63, 0
14, 387840, Note_on_c, 11, 65, 44
14, 388049, Note_on_c, 11, 65, 0
14, 388080, Note_on_c, 11, 66, 44
14, 388289, Note_on_c, 11, 66, 0
14, 388320, Note_on_c, 11, 67, 44
14, 388529, Note_on_c, 11, 67, 0
14, 388560, Note_on_c, 11, 68, 44
14, 388769, Note_on_c, 11, 68, 0
14, 388800, Note_on_c, 11, 69, 44
14, 389009, Note_on_c, 11, 69, 0
14, 389040, Note_on_c, 11, 70, 44
14, 389249, Note_on_c, 11, 70, 0
14, 389280, Note_on_c, 11, 70, 44
14, 389489, Note_on_c, 11, 70, 0
14, 389520, Note_on_c, 11, 70, 44
14, 389729, Note_on_c, 11, 70, 0
14, 389760, Note_on_c, 11, 70, 44
14, 389969, Note_on_c, 11, 70, 0
14, 390000, Note_on_c, 11, 70, 44
14, 390209, Note_on_c, 11, 70, 0
14, 390240, Note_on_c, 11, 70, 44
14, 390449, Note_on_c, 11, 70, 0
14, 390480, Note_on_c, 11, 70, 44
14, 390719, Note_on_c, 11, 70, 0
14, 390720, Note_on_c, 11, 72, 44
14, 390839, Note_on_c, 11, 72, 0
14, 390840, Note_on_c, 11, 70, 44
14, 390959, Note_on_c, 11, 70, 0
14, 390960, Note_on_c, 11, 69, 44
14, 391079, Note_on_c, 11, 69, 0
14, 391080, Note_on_c, 11, 67, 44
14, 391169, Note_on_c, 11, 67, 0
14, 391200, Note_on_c, 11, 65, 44
14, 391889, Note_on_c, 11, 65, 0
14, 391920, Note_on_c, 11, 63, 44
14, 392609, Note_on_c, 11, 63, 0
14, 392640, Note_on_c, 11, 62, 44
14, 392879, Note_on_c, 11, 62, 0
14, 392880, Note_on_c, 11, 65, 44
14, 393089, Note_on_c, 11, 65, 0
14, 393120, Note_on_c, 11, 62, 44
14, 393239, Note_on_c, 11, 62, 0
14, 393360, Note_on_c, 11, 60, 44
14, 393599, Note_on_c, 11, 60, 0
14, 393600, Note_on_c, 11, 63, 44
14, 393809, Note_on_c, 11, 63, 0
14, 393840, Note_on_c, 11, 60, 44
14, 393959, Note_on_c, 11, 60, 0
14, 394080, Note_on_c, 11, 58, 44
14, 394289, Note_on_c, 11, 58, 0
14, 394320, Note_on_c, 11, 60, 57
14, 394529, Note_on_c, 11, 60, 0
14, 394560, Note_on_c, 11, 62, 70
14, 394769, Note_on_c, 11, 62, 0
14, 394800, Note_on_c, 11, 63, 84
14, 395009, Note_on_c, 11, 63, 0
14, 395040, Note_on_c, 11, 75, 84
14, 395040, Note_on_c, 11, 67, 84
14, 395249, Note_on_c, 11, 75, 0
14, 395249, Note_on_c, 11, 67, 0
14, 395280, Note_on_c, 11, 75, 84
14, 395280, Note_on_c, 11, 67, 84
14, 395489, Note_on_c, 11, 75, 0
14, 395489, Note_on_c, 11, 67, 0
14, 395520, Note_on_c, 11, 75, 84
14, 395520, Note_on_c, 11, 67, 84
14, 395729, Note_on_c, 11, 75, 0
14, 395729, Note_on_c, 11, 67, 0
14, 395760, Note_on_c, 11, 75, 84
14, 395760, Note_on_c, 11, 67, 84
14, 395969, Note_on_c, 11, 75, 0
14, 395969, Note_on_c, 11, 67, 0
14, 396000, Note_on_c, 11, 75, 84
14, 396000, Note_on_c, 11, 67, 84
14, 396209, Note_on_c, 11, 75, 0
14, 396209, Note_on_c, 11, 67, 0
14, 396240, Note_on_c, 11, 75, 84
14, 396240, Note_on_c, 11, 67, 84
14, 396479, Note_on_c, 11, 75, 0
14, 396479, Note_on_c, 11, 67, 0
14, 396480, Note_on_c, 11, 77, 84
14, 396599, Note_on_c, 11, 77, 0
14, 396600, Note_on_c, 11, 75, 84
14, 396719, Note_on_c, 11, 75, 0
14, 396720, Note_on_c, 11, 74, 84
14, 396839, Note_on_c, 11, 74, 0
14, 396840, Note_on_c, 11, 72, 84
14, 396929, Note_on_c, 11, 72, 0
14, 396960, Note_on_c, 11, 70, 84
14, 397649, Note_on_c, 11, 70, 0
14, 397680, Note_on_c, 11, 80, 92
14, 398369, Note_on_c, 11, 80, 0
14, 398400, Note_on_c, 11, 79, 84
14, 398639, Note_on_c, 11, 79, 0
14, 398640, Note_on_c, 11, 82, 84
14, 398849, Note_on_c, 11, 82, 0
14, 398880, Note_on_c, 11, 79, 84
14, 398999, Note_on_c, 11, 79, 0
14, 399120, Note_on_c, 11, 77, 84
14, 399359, Note_on_c, 11, 77, 0
14, 399360, Note_on_c, 11, 82, 84
14, 399569, Note_on_c, 11, 82, 0
14, 399600, Note_on_c, 11, 77, 84
14, 399719, Note_on_c, 11, 77, 0
14, 399840, Note_on_c, 11, 75, 84
14, 399959, Note_on_c, 11, 75, 0
14, 400080, Note_on_c, 11, 79, 84
14, 400199, Note_on_c, 11, 79, 0
14, 400320, Note_on_c, 11, 82, 84
14, 400439, Note_on_c, 11, 82, 0
14, 400560, Note_on_c, 11, 80, 92
14, 401249, Note_on_c, 11, 80, 0
14, 401280, Note_on_c, 11, 79, 84
14, 401519, Note_on_c, 11, 79, 0
14, 401520, Note_on_c, 11, 82, 84
14, 401729, Note_on_c, 11, 82, 0
14, 401760, Note_on_c, 11, 79, 84
14, 401879, Note_on_c, 11, 79, 0
14, 402000, Note_on_c, 11, 77, 84
14, 402239, Note_on_c, 11, 77, 0
14, 402240, Note_on_c, 11, 82, 84
14, 402449, Note_on_c, 11, 82, 0
14, 402480, Note_on_c, 11, 77, 84
14, 402599, Note_on_c, 11, 77, 0
14, 402720, Note_on_c, 11, 75, 84
14, 402839, Note_on_c, 11, 75, 0
14, 402960, Note_on_c, 11, 79, 84
14, 403079, Note_on_c, 11, 79, 0
14, 403200, Note_on_c, 11, 82, 84
14, 403319, Note_on_c, 11, 82, 0
14, 403440, Note_on_c, 11, 85, 92
14, 404129, Note_on_c, 11, 85, 0
14, 404160, Note_on_c, 11, 84, 84
14, 404399, Note_on_c, 11, 84, 0
14, 404400, Note_on_c, 11, 87, 84
14, 404609, Note_on_c, 11, 87, 0
14, 404640, Note_on_c, 11, 84, 84
14, 404759, Note_on_c, 11, 84, 0
14, 404880, Note_on_c, 11, 82, 84
14, 405119, Note_on_c, 11, 82, 0
14, 405120, Note_on_c, 11, 87, 84
14, 405329, Note_on_c, 11, 87, 0
14, 405360, Note_on_c, 11, 82, 84
14, 405479, Note_on_c, 11, 82, 0
14, 405600, Note_on_c, 11, 80, 84
14, 405719, Note_on_c, 11, 80, 0
14, 405840, Note_on_c, 11, 84, 84
14, 405959, Note_on_c, 11, 84, 0
14, 406080, Note_on_c, 11, 87, 84
14, 406199, Note_on_c, 11, 87, 0
14, 406320, Note_on_c, 11, 85, 92
14, 407009, Note_on_c, 11, 85, 0
14, 407040, Note_on_c, 11, 84, 84
14, 407279, Note_on_c, 11, 84, 0
14, 407280, Note_on_c, 11, 87, 84
14, 407489, Note_on_c, 11, 87, 0
14, 407520, Note_on_c, 11, 84, 84
14, 407639, Note_on_c, 11, 84, 0
14, 407760, Note_on_c, 11, 87, 84
14, 407879, Note_on_c, 11, 87, 0
14, 408000, Note_on_c, 11, 82, 84
14, 408119, Note_on_c, 11, 82, 0
14, 408240, Note_on_c, 11, 87, 84
14, 408359, Note_on_c, 11, 87, 0
14, 408480, Note_on_c, 11, 80, 84
14, 408599, Note_on_c, 11, 80, 0
14, 408720, Note_on_c, 11, 87, 84
14, 408839, Note_on_c, 11, 87, 0
14, 408960, Note_on_c, 11, 80, 84
14, 409079, Note_on_c, 11, 80, 0
14, 409200, Note_on_c, 11, 87, 84
14, 409319, Note_on_c, 11, 87, 0
14, 409440, Note_on_c, 11, 79, 84
14, 409559, Note_on_c, 11, 79, 0
14, 409680, Note_on_c, 11, 87, 84
14, 409799, Note_on_c, 11, 87, 0
14, 409920, Note_on_c, 11, 77, 84
14, 410039, Note_on_c, 11, 77, 0
14, 410160, Note_on_c, 11, 86, 84
14, 410279, Note_on_c, 11, 86, 0
14, 410400, Note_on_c, 11, 77, 84
14, 410519, Note_on_c, 11, 77, 0
14, 410640, Note_on_c, 11, 87, 84
14, 410640, Note_on_c, 11, 79, 84
14, 410759, Note_on_c, 11, 87, 0
14, 410759, Note_on_c, 11, 79, 0
14, 410880, Note_on_c, 11, 79, 92
14, 411329, Note_on_c, 11, 79, 0
14, 411360, Note_on_c, 11, 75, 84
14, 411479, Note_on_c, 11, 75, 0
14, 411600, Note_on_c, 11, 70, 92
14, 412049, Note_on_c, 11, 70, 0
14, 412080, Note_on_c, 11, 67, 84
14, 412199, Note_on_c, 11, 67, 0
14, 412320, Note_on_c, 11, 63, 92
14, 412769, Note_on_c, 11, 63, 0
14, 412800, Note_on_c, 11, 58, 84
14, 413039, Note_on_c, 11, 58, 0
14, 413280, Note_on_c, 11, 56, 84
14, 413339, Note_on_c, 11, 56, 0
14, 413340, Note_on_c, 11, 58, 84
14, 413399, Note_on_c, 11, 58, 0
14, 413400, Note_on_c, 11, 55, 84
14, 413459, Note_on_c, 11, 55, 0
14, 413460, Note_on_c, 11, 56, 84
14, 413519, Note_on_c, 11, 56, 0
14, 413520, Note_on_c, 11, 55, 84
14, 413759, Note_on_c, 11, 55, 0
14, 415200, Note_on_c, 11, 67, 52
14, 415409, Note_on_c, 11, 67, 0
14, 415440, Note_on_c, 11, 67, 52
14, 415649, Note_on_c, 11, 67, 0
14, 415680, Note_on_c, 11, 68, 52
14, 415889, Note_on_c, 11, 68, 0
14, 415920, Note_on_c, 11, 68, 52
14, 416129, Note_on_c, 11, 68, 0
14, 416160, Note_on_c, 11, 68, 52
14, 416369, Note_on_c, 11, 68, 0
14, 416400, Note_on_c, 11, 67, 76
14, 416519, Note_on_c, 11, 67, 0
14, 416640, Note_on_c, 11, 79, 84
14, 416819, Note_on_c, 11, 79, 0
14, 416880, Note_on_c, 11, 75, 84
14, 417059, Note_on_c, 11, 75, 0
14, 417120, Note_on_c, 11, 70, 84
14, 417299, Note_on_c, 11, 70, 0
14, 417360, Note_on_c, 11, 67, 84
14, 417539, Note_on_c, 11, 67, 0
14, 417600, Note_on_c, 11, 63, 84
14, 417779, Note_on_c, 11, 63, 0
14, 417840, Note_on_c, 11, 58, 84
14, 418019, Note_on_c, 11, 58, 0
14, 418080, Note_on_c, 11, 56, 84
14, 418259, Note_on_c, 11, 56, 0
14, 418320, Note_on_c, 11, 55, 84
14, 418439, Note_on_c, 11, 55, 0
14, 420000, Note_on_c, 11, 82, 52
14, 420119, Note_on_c, 11, 82, 0
14, 420240, Note_on_c, 11, 80, 52
14, 420359, Note_on_c, 11, 80, 0
14, 420480, Note_on_c, 11, 82, 52
14, 420599, Note_on_c, 11, 82, 0
14, 420720, Note_on_c, 11, 80, 52
14, 420839, Note_on_c, 11, 80, 0
14, 420960, Note_on_c, 11, 82, 52
14, 421079, Note_on_c, 11, 82, 0
14, 421200, Note_on_c, 11, 80, 52
14, 421319, Note_on_c, 11, 80, 0
14, 422880, Note_on_c, 11, 80, 52
14, 422999, Note_on_c, 11, 80, 0
14, 423120, Note_on_c, 11, 79, 52
14, 423239, Note_on_c, 11, 79, 0
14, 423360, Note_on_c, 11, 80, 52
14, 423479, Note_on_c, 11, 80, 0
14, 423600, Note_on_c, 11, 79, 52
14, 423719, Note_on_c, 11, 79, 0
14, 423840, Note_on_c, 11, 80, 52
14, 423959, Note_on_c, 11, 80, 0
14, 424080, Note_on_c, 11, 79, 52
14, 424199, Note_on_c, 11, 79, 0
14, 425760, Note_on_c, 11, 80, 52
14, 425879, Note_on_c, 11, 80, 0
14, 426000, Note_on_c, 11, 79, 52
14, 426119, Note_on_c, 11, 79, 0
14, 426240, Note_on_c, 11, 80, 52
14, 426359, Note_on_c, 11, 80, 0
14, 426480, Note_on_c, 11, 79, 52
14, 426599, Note_on_c, 11, 79, 0
14, 426720, Note_on_c, 11, 80, 52
14, 426839, Note_on_c, 11, 80, 0
14, 426960, Note_on_c, 11, 79, 52
14, 427079, Note_on_c, 11, 79, 0
14, 428640, Note_on_c, 11, 75, 52
14, 428759, Note_on_c, 11, 75, 0
14, 428880, Note_on_c, 11, 75, 52
14, 428999, Note_on_c, 11, 75, 0
14, 429120, Note_on_c, 11, 75, 52
14, 429239, Note_on_c, 11, 75, 0
14, 429360, Note_on_c, 11, 75, 52
14, 429479, Note_on_c, 11, 75, 0
14, 429600, Note_on_c, 11, 75, 52
14, 429719, Note_on_c, 11, 75, 0
14, 429840, Note_on_c, 11, 75, 52
14, 429959, Note_on_c, 11, 75, 0
14, 430080, Note_on_c, 11, 79, 52
14, 430199, Note_on_c, 11, 79, 0
14, 430320, Note_on_c, 11, 74, 52
14, 430439, Note_on_c, 11, 74, 0
14, 430560, Note_on_c, 11, 75, 52
14, 430679, Note_on_c, 11, 75, 0
14, 430800, Note_on_c, 11, 71, 52
14, 430919, Note_on_c, 11, 71, 0
14, 431040, Note_on_c, 11, 72, 52
14, 431159, Note_on_c, 11, 72, 0
14, 431280, Note_on_c, 11, 68, 52
14, 431399, Note_on_c, 11, 68, 0
14, 431520, Note_on_c, 11, 80, 52
14, 431639, Note_on_c, 11, 80, 0
14, 431760, Note_on_c, 11, 76, 52
14, 431879, Note_on_c, 11, 76, 0
14, 432000, Note_on_c, 11, 77, 52
14, 432119, Note_on_c, 11, 77, 0
14, 432240, Note_on_c, 11, 73, 52
14, 432359, Note_on_c, 11, 73, 0
14, 432480, Note_on_c, 11, 74, 52
14, 432599, Note_on_c, 11, 74, 0
14, 432720, Note_on_c, 11, 70, 52
14, 432839, Note_on_c, 11, 70, 0
14, 432960, Note_on_c, 11, 82, 52
14, 433079, Note_on_c, 11, 82, 0
14, 433200, Note_on_c, 11, 78, 52
14, 433319, Note_on_c, 11, 78, 0
14, 433440, Note_on_c, 11, 79, 52
14, 433559, Note_on_c, 11, 79, 0
14, 433680, Note_on_c, 11, 74, 52
14, 433799, Note_on_c, 11, 74, 0
14, 433920, Note_on_c, 11, 75, 52
14, 434039, Note_on_c, 11, 75, 0
14, 434160, Note_on_c, 11, 72, 52
14, 434279, Note_on_c, 11, 72, 0
14, 434400, Note_on_c, 11, 67, 52
14, 434519, Note_on_c, 11, 67, 0
14, 434640, Note_on_c, 11, 68, 52
14, 434759, Note_on_c, 11, 68, 0
14, 434880, Note_on_c, 11, 65, 52
14, 434999, Note_on_c, 11, 65, 0
14, 435120, Note_on_c, 11, 62, 52
14, 435239, Note_on_c, 11, 62, 0
14, 435360, Note_on_c, 11, 70, 52
14, 435479, Note_on_c, 11, 70, 0
14, 435600, Note_on_c, 11, 67, 52
14, 435689, Note_on_c, 11, 67, 0
14, 435720, Note_on_c, 11, 67, 52
14, 435809, Note_on_c, 11, 67, 0
14, 435840, Note_on_c, 11, 70, 52
14, 435929, Note_on_c, 11, 70, 0
14, 435960, Note_on_c, 11, 70, 52
14, 436049, Note_on_c, 11, 70, 0
14, 436080, Note_on_c, 11, 71, 52
14, 436169, Note_on_c, 11, 71, 0
14, 436200, Note_on_c, 11, 71, 52
14, 436289, Note_on_c, 11, 71, 0
14, 436320, Note_on_c, 11, 72, 52
14, 436409, Note_on_c, 11, 72, 0
14, 436440, Note_on_c, 11, 72, 52
14, 436529, Note_on_c, 11, 72, 0
14, 436560, Note_on_c, 11, 74, 52
14, 436649, Note_on_c, 11, 74, 0
14, 436680, Note_on_c, 11, 74, 52
14, 436769, Note_on_c, 11, 74, 0
14, 436800, Note_on_c, 11, 75, 52
14, 436889, Note_on_c, 11, 75, 0
14, 436920, Note_on_c, 11, 75, 52
14, 437009, Note_on_c, 11, 75, 0
14, 437040, Note_on_c, 11, 77, 52
14, 437129, Note_on_c, 11, 77, 0
14, 437160, Note_on_c, 11, 77, 52
14, 437249, Note_on_c, 11, 77, 0
14, 437280, Note_on_c, 11, 72, 52
14, 437369, Note_on_c, 11, 72, 0
14, 437400, Note_on_c, 11, 72, 52
14, 437489, Note_on_c, 11, 72, 0
14, 437520, Note_on_c, 11, 73, 52
14, 437609, Note_on_c, 11, 73, 0
14, 437640, Note_on_c, 11, 73, 52
14, 437729, Note_on_c, 11, 73, 0
14, 437760, Note_on_c, 11, 74, 52
14, 437849, Note_on_c, 11, 74, 0
14, 437880, Note_on_c, 11, 74, 52
14, 437969, Note_on_c, 11, 74, 0
14, 438000, Note_on_c, 11, 76, 52
14, 438089, Note_on_c, 11, 76, 0
14, 438120, Note_on_c, 11, 76, 52
14, 438209, Note_on_c, 11, 76, 0
14, 438240, Note_on_c, 11, 77, 52
14, 438329, Note_on_c, 11, 77, 0
14, 438360, Note_on_c, 11, 77, 52
14, 438449, Note_on_c, 11, 77, 0
14, 438480, Note_on_c, 11, 79, 52
14, 438569, Note_on_c, 11, 79, 0
14, 438600, Note_on_c, 11, 79, 52
14, 438689, Note_on_c, 11, 79, 0
14, 438720, Note_on_c, 11, 73, 52
14, 438809, Note_on_c, 11, 73, 0
14, 438840, Note_on_c, 11, 73, 53
14, 438929, Note_on_c, 11, 73, 0
14, 438960, Note_on_c, 11, 74, 54
14, 439049, Note_on_c, 11, 74, 0
14, 439080, Note_on_c, 11, 74, 56
14, 439169, Note_on_c, 11, 74, 0
14, 439200, Note_on_c, 11, 75, 57
14, 439289, Note_on_c, 11, 75, 0
14, 439320, Note_on_c, 11, 75, 59
14, 439409, Note_on_c, 11, 75, 0
14, 439440, Note_on_c, 11, 77, 60
14, 439529, Note_on_c, 11, 77, 0
14, 439560, Note_on_c, 11, 77, 62
14, 439649, Note_on_c, 11, 77, 0
14, 439680, Note_on_c, 11, 79, 63
14, 439769, Note_on_c, 11, 79, 0
14, 439800, Note_on_c, 11, 79, 65
14, 439889, Note_on_c, 11, 79, 0
14, 439920, Note_on_c, 11, 80, 66
14, 440009, Note_on_c, 11, 80, 0
14, 440040, Note_on_c, 11, 80, 68
14, 440129, Note_on_c, 11, 80, 0
14, 440160, Note_on_c, 11, 80, 69
14, 440249, Note_on_c, 11, 80, 0
14, 440280, Note_on_c, 11, 80, 70
14, 440369, Note_on_c, 11, 80, 0
14, 440400, Note_on_c, 11, 80, 72
14, 440489, Note_on_c, 11, 80, 0
14, 440520, Note_on_c, 11, 80, 73
14, 440609, Note_on_c, 11, 80, 0
14, 440640, Note_on_c, 11, 80, 75
14, 440729, Note_on_c, 11, 80, 0
14, 440760, Note_on_c, 11, 80, 76
14, 440849, Note_on_c, 11, 80, 0
14, 440880, Note_on_c, 11, 80, 78
14, 440969, Note_on_c, 11, 80, 0
14, 441000, Note_on_c, 11, 80, 79
14, 441089, Note_on_c, 11, 80, 0
14, 441120, Note_on_c, 11, 80, 81
14, 441209, Note_on_c, 11, 80, 0
14, 441240, Note_on_c, 11, 80, 82
14, 441329, Note_on_c, 11, 80, 0
14, 441360, Note_on_c, 11, 80, 84
14, 441449, Note_on_c, 11, 80, 0
14, 441480, Note_on_c, 11, 80, 84
14, 441569, Note_on_c, 11, 80, 0
14, 441600, Note_on_c, 11, 80, 84
14, 441689, Note_on_c, 11, 80, 0
14, 441720, Note_on_c, 11, 80, 84
14, 441809, Note_on_c, 11, 80, 0
14, 441840, Note_on_c, 11, 80, 84
14, 441929, Note_on_c, 11, 80, 0
14, 441960, Note_on_c, 11, 80, 84
14, 442049, Note_on_c, 11, 80, 0
14, 442080, Note_on_c, 11, 80, 84
14, 442169, Note_on_c, 11, 80, 0
14, 442200, Note_on_c, 11, 80, 84
14, 442289, Note_on_c, 11, 80, 0
14, 442320, Note_on_c, 11, 80, 84
14, 442409, Note_on_c, 11, 80, 0
14, 442440, Note_on_c, 11, 80, 84
14, 442529, Note_on_c, 11, 80, 0
14, 442560, Note_on_c, 11, 80, 84
14, 442649, Note_on_c, 11, 80, 0
14, 442680, Note_on_c, 11, 80, 84
14, 442769, Note_on_c, 11, 80, 0
14, 442800, Note_on_c, 11, 80, 84
14, 442889, Note_on_c, 11, 80, 0
14, 442920, Note_on_c, 11, 80, 84
14, 443009, Note_on_c, 11, 80, 0
14, 443040, Note_on_c, 11, 80, 84
14, 443129, Note_on_c, 11, 80, 0
14, 443160, Note_on_c, 11, 80, 84
14, 443249, Note_on_c, 11, 80, 0
14, 443280, Note_on_c, 11, 80, 84
14, 443369, Note_on_c, 11, 80, 0
14, 443400, Note_on_c, 11, 80, 84
14, 443489, Note_on_c, 11, 80, 0
14, 443520, Note_on_c, 11, 80, 84
14, 443609, Note_on_c, 11, 80, 0
14, 443640, Note_on_c, 11, 80, 84
14, 443729, Note_on_c, 11, 80, 0
14, 443760, Note_on_c, 11, 79, 84
14, 443849, Note_on_c, 11, 79, 0
14, 443880, Note_on_c, 11, 79, 84
14, 443969, Note_on_c, 11, 79, 0
14, 444000, Note_on_c, 11, 77, 84
14, 444089, Note_on_c, 11, 77, 0
14, 444120, Note_on_c, 11, 77, 84
14, 444209, Note_on_c, 11, 77, 0
14, 444240, Note_on_c, 11, 75, 76
14, 444479, Note_on_c, 11, 75, 0
14, 444960, Note_on_c, 11, 77, 76
14, 444960, Note_on_c, 11, 70, 76
14, 444960, Note_on_c, 11, 62, 76
14, 445199, Note_on_c, 11, 77, 0
14, 445199, Note_on_c, 11, 70, 0
14, 445199, Note_on_c, 11, 62, 0
14, 447120, Control_c, 11, 11, 96
14, 447360, Note_on_c, 11, 61, 60
14, 447360, Control_c, 11, 11, 96
14, 447420, Control_c, 11, 11, 99
14, 447480, Control_c, 11, 11, 101
14, 447540, Control_c, 11, 11, 104
14, 447569, Note_on_c, 11, 61, 0
14, 447600, Control_c, 11, 11, 106
14, 447600, Note_on_c, 11, 61, 60
14, 447660, Control_c, 11, 11, 109
14, 447720, Control_c, 11, 11, 112
14, 447780, Control_c, 11, 11, 114
14, 447809, Note_on_c, 11, 61, 0
14, 447840, Control_c, 11, 11, 117
14, 447840, Note_on_c, 11, 62, 60
14, 447900, Control_c, 11, 11, 119
14, 447960, Control_c, 11, 11, 122
14, 448020, Control_c, 11, 11, 124
14, 448049, Note_on_c, 11, 62, 0
14, 448080, Note_on_c, 11, 62, 60
14, 448080, Control_c, 11, 11, 127
14, 448160, Control_c, 11, 11, 122
14, 448240, Control_c, 11, 11, 117
14, 448289, Note_on_c, 11, 62, 0
14, 448320, Control_c, 11, 11, 112
14, 448320, Note_on_c, 11, 62, 60
14, 448400, Control_c, 11, 11, 106
14, 448480, Control_c, 11, 11, 96
14, 448529, Note_on_c, 11, 62, 0
14, 448560, Note_on_c, 11, 63, 60
14, 448799, Note_on_c, 11, 63, 0
14, 450240, Note_on_c, 11, 73, 60
14, 450240, Control_c, 11, 11, 96
14, 450320, Control_c, 11, 11, 101
14, 450400, Control_c, 11, 11, 106
14, 450449, Note_on_c, 11, 73, 0
14, 450480, Control_c, 11, 11, 112
14, 450480, Note_on_c, 11, 73, 60
14, 450560, Control_c, 11, 11, 117
14, 450640, Control_c, 11, 11, 122
14, 450689, Note_on_c, 11, 73, 0
14, 450720, Note_on_c, 11, 74, 60
14, 450720, Control_c, 11, 11, 127
14, 450780, Control_c, 11, 11, 124
14, 450840, Control_c, 11, 11, 122
14, 450900, Control_c, 11, 11, 119
14, 450929, Note_on_c, 11, 74, 0
14, 450960, Control_c, 11, 11, 117
14, 450960, Note_on_c, 11, 74, 60
14, 451020, Control_c, 11, 11, 114
14, 451080, Control_c, 11, 11, 112
14, 451140, Control_c, 11, 11, 109
14, 451169, Note_on_c, 11, 74, 0
14, 451200, Control_c, 11, 11, 106
14, 451200, Note_on_c, 11, 74, 60
14, 451260, Control_c, 11, 11, 104
14, 451320, Control_c, 11, 11, 101
14, 451380, Control_c, 11, 11, 96
14, 451409, Note_on_c, 11, 74, 0
14, 451440, Note_on_c, 11, 75, 60
14, 451679, Note_on_c, 11, 75, 0
14, 452880, Control_c, 11, 11, 127
14, 454560, Note_on_c, 11, 86, 66
14, 454649, Note_on_c, 11, 86, 0
14, 454680, Note_on_c, 11, 86, 67
14, 454769, Note_on_c, 11, 86, 0
14, 454800, Note_on_c, 11, 87, 68
14, 454889, Note_on_c, 11, 87, 0
14, 454920, Note_on_c, 11, 87, 69
14, 455009, Note_on_c, 11, 87, 0
14, 455040, Note_on_c, 11, 86, 70
14, 455129, Note_on_c, 11, 86, 0
14, 455160, Note_on_c, 11, 86, 71
14, 455249, Note_on_c, 11, 86, 0
14, 455280, Note_on_c, 11, 87, 72
14, 455369, Note_on_c, 11, 87, 0
14, 455400, Note_on_c, 11, 87, 73
14, 455489, Note_on_c, 11, 87, 0
14, 455520, Note_on_c, 11, 86, 74
14, 455609, Note_on_c, 11, 86, 0
14, 455640, Note_on_c, 11, 86, 75
14, 455729, Note_on_c, 11, 86, 0
14, 455760, Note_on_c, 11, 87, 76
14, 455849, Note_on_c, 11, 87, 0
14, 455880, Note_on_c, 11, 87, 76
14, 455969, Note_on_c, 11, 87, 0
14, 456000, Note_on_c, 11, 86, 76
14, 456089, Note_on_c, 11, 86, 0
14, 456120, Note_on_c, 11, 86, 76
14, 456209, Note_on_c, 11, 86, 0
14, 456240, Note_on_c, 11, 87, 76
14, 456329, Note_on_c, 11, 87, 0
14, 456360, Note_on_c, 11, 87, 76
14, 456449, Note_on_c, 11, 87, 0
14, 456480, Note_on_c, 11, 86, 76
14, 456569, Note_on_c, 11, 86, 0
14, 456600, Note_on_c, 11, 86, 76
14, 456689, Note_on_c, 11, 86, 0
14, 456720, Note_on_c, 11, 87, 76
14, 456809, Note_on_c, 11, 87, 0
14, 456840, Note_on_c, 11, 87, 76
14, 456929, Note_on_c, 11, 87, 0
14, 456960, Note_on_c, 11, 86, 76
14, 457049, Note_on_c, 11, 86, 0
14, 457080, Note_on_c, 11, 86, 76
14, 457169, Note_on_c, 11, 86, 0
14, 457200, Note_on_c, 11, 87, 84
14, 457439, Note_on_c, 11, 87, 0
14, 457920, Note_on_c, 11, 82, 84
14, 457920, Note_on_c, 11, 70, 84
14, 457920, Note_on_c, 11, 62, 84
14, 458159, Note_on_c, 11, 82, 0
14, 458159, Note_on_c, 11, 70, 0
14, 458159, Note_on_c, 11, 62, 0
14, 458640, Note_on_c, 11, 79, 84
14, 458640, Note_on_c, 11, 70, 84
14, 458640, Note_on_c, 11, 63, 84
14, 458640, Note_on_c, 11, 55, 84
14, 458879, Note_on_c, 11, 79, 0
14, 458879, Note_on_c, 11, 70, 0
14, 458879, Note_on_c, 11, 63, 0
14, 458879, Note_on_c, 11, 55, 0
14, 458879, End_track
15, 0, Start_track
15, 0, Title_t, "Violin II"
15, 0, MIDI_port, 0
15, 0, Program_c, 12, 48
15, 0, Control_c, 12, 7, 96
15, 0, Control_c, 12, 10, 24
15, 0, Control_c, 12, 11, 127
15, 0, Note_on_c, 12, 55, 44
15, 119, Note_on_c, 12, 55, 0
15, 240, Note_on_c, 12, 55, 44
15, 359, Note_on_c, 12, 55, 0
15, 480, Note_on_c, 12, 56, 44
15, 599, Note_on_c, 12, 56, 0
15, 720, Note_on_c, 12, 55, 44
15, 839, Note_on_c, 12, 55, 0
15, 960, Note_on_c, 12, 56, 44
15, 1079, Note_on_c, 12, 56, 0
15, 1200, Note_on_c, 12, 55, 44
15, 1319, Note_on_c, 12, 55, 0
15, 1440, Note_on_c, 12, 56, 44
15, 1559, Note_on_c, 12, 56, 0
15, 1680, Note_on_c, 12, 55, 44
15, 1799, Note_on_c, 12, 55, 0
15, 1920, Note_on_c, 12, 56, 44
15, 2039, Note_on_c, 12, 56, 0
15, 2160, Note_on_c, 12, 55, 44
15, 2279, Note_on_c, 12, 55, 0
15, 2400, Note_on_c, 12, 56, 44
15, 2519, Note_on_c, 12, 56, 0
15, 2640, Note_on_c, 12, 55, 44
15, 2759, Note_on_c, 12, 55, 0
15, 2880, Note_on_c, 12, 56, 44
15, 2999, Note_on_c, 12, 56, 0
15, 3120, Note_on_c, 12, 58, 44
15, 3239, Note_on_c, 12, 58, 0
15, 3360, Note_on_c, 12, 58, 44
15, 3479, Note_on_c, 12, 58, 0
15, 3600, Note_on_c, 12, 58, 44
15, 3719, Note_on_c, 12, 58, 0
15, 3840, Note_on_c, 12, 58, 44
15, 3959, Note_on_c, 12, 58, 0
15, 4080, Note_on_c, 12, 65, 44
15, 4199, Note_on_c, 12, 65, 0
15, 4320, Note_on_c, 12, 63, 44
15, 4439, Note_on_c, 12, 63, 0
15, 4560, Note_on_c, 12, 62, 44
15, 4679, Note_on_c, 12, 62, 0
15, 4800, Note_on_c, 12, 65, 44
15, 4919, Note_on_c, 12, 65, 0
15, 5040, Note_on_c, 12, 63, 44
15, 5159, Note_on_c, 12, 63, 0
15, 5280, Note_on_c, 12, 62, 44
15, 5399, Note_on_c, 12, 62, 0
15, 5520, Note_on_c, 12, 65, 44
15, 5639, Note_on_c, 12, 65, 0
15, 5760, Note_on_c, 12, 63, 44
15, 5879, Note_on_c, 12, 63, 0
15, 6000, Note_on_c, 12, 62, 44
15, 6119, Note_on_c, 12, 62, 0
15, 6240, Note_on_c, 12, 62, 44
15, 6359, Note_on_c, 12, 62, 0
15, 6480, Note_on_c, 12, 63, 44
15, 6599, Note_on_c, 12, 63, 0
15, 6720, Note_on_c, 12, 65, 44
15, 6839, Note_on_c, 12, 65, 0
15, 6960, Note_on_c, 12, 60, 44
15, 7079, Note_on_c, 12, 60, 0
15, 7200, Note_on_c, 12, 62, 44
15, 7319, Note_on_c, 12, 62, 0
15, 7440, Note_on_c, 12, 63, 44
15, 7559, Note_on_c, 12, 63, 0
15, 7680, Note_on_c, 12, 70, 44
15, 7799, Note_on_c, 12, 70, 0
15, 7920, Note_on_c, 12, 72, 44
15, 8039, Note_on_c, 12, 72, 0
15, 8160, Note_on_c, 12, 74, 44
15, 8279, Note_on_c, 12, 74, 0
15, 8400, Note_on_c, 12, 69, 44
15, 8519, Note_on_c, 12, 69, 0
15, 8640, Note_on_c, 12, 70, 44
15, 8759, Note_on_c, 12, 70, 0
15, 8880, Note_on_c, 12, 67, 44
15, 8999, Note_on_c, 12, 67, 0
15, 9120, Note_on_c, 12, 67, 44
15, 9239, Note_on_c, 12, 67, 0
15, 9360, Note_on_c, 12, 63, 44
15, 9479, Note_on_c, 12, 63, 0
15, 9600, Note_on_c, 12, 62, 44
15, 9839, Note_on_c, 12, 62, 0
15, 10080, Note_on_c, 12, 55, 44
15, 10199, Note_on_c, 12, 55, 0
15, 10320, Note_on_c, 12, 55, 44
15, 10439, Note_on_c, 12, 55, 0
15, 10560, Note_on_c, 12, 56, 44
15, 10679, Note_on_c, 12, 56, 0
15, 10800, Note_on_c, 12, 55, 44
15, 10919, Note_on_c, 12, 55, 0
15, 11040, Note_on_c, 12, 56, 44
15, 11159, Note_on_c, 12, 56, 0
15, 11280, Note_on_c, 12, 55, 44
15, 11399, Note_on_c, 12, 55, 0
15, 11520, Note_on_c, 12, 56, 44
15, 11639, Note_on_c, 12, 56, 0
15, 11760, Note_on_c, 12, 55, 44
15, 11879, Note_on_c, 12, 55, 0
15, 12000, Note_on_c, 12, 56, 44
15, 12119, Note_on_c, 12, 56, 0
15, 12240, Note_on_c, 12, 55, 44
15, 12359, Note_on_c, 12, 55, 0
15, 12480, Note_on_c, 12, 56, 44
15, 12599, Note_on_c, 12, 56, 0
15, 12720, Note_on_c, 12, 55, 44
15, 12839, Note_on_c, 12, 55, 0
15, 12960, Note_on_c, 12, 58, 44
15, 13079, Note_on_c, 12, 58, 0
15, 13200, Note_on_c, 12, 58, 44
15, 13319, Note_on_c, 12, 58, 0
15, 13440, Note_on_c, 12, 58, 44
15, 13559, Note_on_c, 12, 58, 0
15, 13680, Note_on_c, 12, 58, 44
15, 13799, Note_on_c, 12, 58, 0
15, 13920, Note_on_c, 12, 58, 44
15, 14039, Note_on_c, 12, 58, 0
15, 14160, Note_on_c, 12, 65, 44
15, 14279, Note_on_c, 12, 65, 0
15, 14400, Note_on_c, 12, 63, 44
15, 14519, Note_on_c, 12, 63, 0
15, 14640, Note_on_c, 12, 62, 44
15, 14759, Note_on_c, 12, 62, 0
15, 14880, Note_on_c, 12, 77, 44
15, 14999, Note_on_c, 12, 77, 0
15, 15120, Note_on_c, 12, 75, 44
15, 15239, Note_on_c, 12, 75, 0
15, 15360, Note_on_c, 12, 74, 44
15, 15479, Note_on_c, 12, 74, 0
15, 15600, Note_on_c, 12, 77, 44
15, 15719, Note_on_c, 12, 77, 0
15, 15840, Note_on_c, 12, 75, 44
15, 15959, Note_on_c, 12, 75, 0
15, 16080, Note_on_c, 12, 74, 44
15, 16199, Note_on_c, 12, 74, 0
15, 16320, Note_on_c, 12, 74, 44
15, 16439, Note_on_c, 12, 74, 0
15, 16560, Note_on_c, 12, 75, 44
15, 16679, Note_on_c, 12, 75, 0
15, 16800, Note_on_c, 12, 77, 44
15, 16919, Note_on_c, 12, 77, 0
15, 17040, Note_on_c, 12, 72, 44
15, 17159, Note_on_c, 12, 72, 0
15, 17280, Note_on_c, 12, 74, 44
15, 17399, Note_on_c, 12, 74, 0
15, 17520, Note_on_c, 12, 75, 44
15, 17639, Note_on_c, 12, 75, 0
15, 17760, Note_on_c, 12, 70, 44
15, 17879, Note_on_c, 12, 70, 0
15, 18000, Note_on_c, 12, 72, 44
15, 18119, Note_on_c, 12, 72, 0
15, 18240, Note_on_c, 12, 74, 44
15, 18359, Note_on_c, 12, 74, 0
15, 18480, Note_on_c, 12, 69, 44
15, 18599, Note_on_c, 12, 69, 0
15, 18720, Note_on_c, 12, 70, 44
15, 18839, Note_on_c, 12, 70, 0
15, 18960, Note_on_c, 12, 67, 44
15, 19079, Note_on_c, 12, 67, 0
15, 19200, Note_on_c, 12, 67, 44
15, 19319, Note_on_c, 12, 67, 0
15, 19440, Note_on_c, 12, 63, 44
15, 19559, Note_on_c, 12, 63, 0
15, 19680, Note_on_c, 12, 62, 44
15, 19799, Note_on_c, 12, 62, 0
15, 20640, Note_on_c, 12, 68, 44
15, 20759, Note_on_c, 12, 68, 0
15, 20880, Note_on_c, 12, 63, 44
15, 20999, Note_on_c, 12, 63, 0
15, 21120, Note_on_c, 12, 68, 44
15, 21239, Note_on_c, 12, 68, 0
15, 21360, Note_on_c, 12, 63, 44
15, 21479, Note_on_c, 12, 63, 0
15, 21600, Note_on_c, 12, 68, 44
15, 21719, Note_on_c, 12, 68, 0
15, 21840, Note_on_c, 12, 63, 44
15, 21959, Note_on_c, 12, 63, 0
15, 22080, Note_on_c, 12, 68, 44
15, 22199, Note_on_c, 12, 68, 0
15, 22320, Note_on_c, 12, 63, 44
15, 22439, Note_on_c, 12, 63, 0
15, 22560, Note_on_c, 12, 68, 44
15, 22679, Note_on_c, 12, 68, 0
15, 22800, Note_on_c, 12, 68, 44
15, 22919, Note_on_c, 12, 68, 0
15, 23040, Note_on_c, 12, 68, 44
15, 23159, Note_on_c, 12, 68, 0
15, 23280, Note_on_c, 12, 68, 44
15, 23399, Note_on_c, 12, 68, 0
15, 23520, Note_on_c, 12, 65, 44
15, 23639, Note_on_c, 12, 65, 0
15, 23760, Note_on_c, 12, 68, 44
15, 23879, Note_on_c, 12, 68, 0
15, 24000, Note_on_c, 12, 65, 44
15, 24119, Note_on_c, 12, 65, 0
15, 24240, Note_on_c, 12, 68, 44
15, 24359, Note_on_c, 12, 68, 0
15, 24480, Note_on_c, 12, 65, 44
15, 24599, Note_on_c, 12, 65, 0
15, 24720, Note_on_c, 12, 68, 44
15, 24839, Note_on_c, 12, 68, 0
15, 24960, Note_on_c, 12, 65, 44
15, 25079, Note_on_c, 12, 65, 0
15, 25200, Note_on_c, 12, 68, 44
15, 25319, Note_on_c, 12, 68, 0
15, 25440, Note_on_c, 12, 65, 44
15, 25559, Note_on_c, 12, 65, 0
15, 25680, Note_on_c, 12, 68, 44
15, 25799, Note_on_c, 12, 68, 0
15, 25920, Note_on_c, 12, 68, 44
15, 26039, Note_on_c, 12, 68, 0
15, 26160, Note_on_c, 12, 68, 44
15, 26279, Note_on_c, 12, 68, 0
15, 26400, Note_on_c, 12, 68, 44
15, 26519, Note_on_c, 12, 68, 0
15, 26640, Note_on_c, 12, 70, 44
15, 26759, Note_on_c, 12, 70, 0
15, 26880, Note_on_c, 12, 70, 44
15, 26999, Note_on_c, 12, 70, 0
15, 27120, Note_on_c, 12, 70, 44
15, 27239, Note_on_c, 12, 70, 0
15, 27360, Note_on_c, 12, 70, 44
15, 27479, Note_on_c, 12, 70, 0
15, 27600, Note_on_c, 12, 70, 44
15, 27719, Note_on_c, 12, 70, 0
15, 27840, Note_on_c, 12, 70, 44
15, 27959, Note_on_c, 12, 70, 0
15, 28080, Note_on_c, 12, 72, 44
15, 28199, Note_on_c, 12, 72, 0
15, 28320, Note_on_c, 12, 72, 44
15, 28439, Note_on_c, 12, 72, 0
15, 28560, Note_on_c, 12, 72, 44
15, 28679, Note_on_c, 12, 72, 0
15, 28800, Note_on_c, 12, 72, 44
15, 28919, Note_on_c, 12, 72, 0
15, 29040, Note_on_c, 12, 72, 44
15, 29159, Note_on_c, 12, 72, 0
15, 29280, Note_on_c, 12, 72, 44
15, 29399, Note_on_c, 12, 72, 0
15, 29520, Note_on_c, 12, 70, 44
15, 29639, Note_on_c, 12, 70, 0
15, 29760, Note_on_c, 12, 69, 44
15, 29879, Note_on_c, 12, 69, 0
15, 30000, Note_on_c, 12, 72, 44
15, 30119, Note_on_c, 12, 72, 0
15, 30240, Note_on_c, 12, 70, 44
15, 30359, Note_on_c, 12, 70, 0
15, 30480, Note_on_c, 12, 69, 44
15, 30599, Note_on_c, 12, 69, 0
15, 30720, Note_on_c, 12, 69, 44
15, 30839, Note_on_c, 12, 69, 0
15, 30960, Note_on_c, 12, 70, 44
15, 31079, Note_on_c, 12, 70, 0
15, 31200, Note_on_c, 12, 72, 44
15, 31319, Note_on_c, 12, 72, 0
15, 31440, Note_on_c, 12, 67, 44
15, 31559, Note_on_c, 12, 67, 0
15, 31680, Note_on_c, 12, 69, 44
15, 31799, Note_on_c, 12, 69, 0
15, 31920, Note_on_c, 12, 70, 44
15, 32039, Note_on_c, 12, 70, 0
15, 32160, Note_on_c, 12, 65, 44
15, 32279, Note_on_c, 12, 65, 0
15, 32400, Note_on_c, 12, 67, 44
15, 32519, Note_on_c, 12, 67, 0
15, 32640, Note_on_c, 12, 69, 44
15, 32879, Note_on_c, 12, 69, 0
15, 32880, Note_on_c, 12, 60, 44
15, 33089, Note_on_c, 12, 60, 0
15, 33120, Note_on_c, 12, 65, 44
15, 33239, Note_on_c, 12, 65, 0
15, 33360, Note_on_c, 12, 64, 44
15, 33599, Note_on_c, 12, 64, 0
15, 33600, Note_on_c, 12, 60, 44
15, 33809, Note_on_c, 12, 60, 0
15, 33840, Note_on_c, 12, 64, 44
15, 33959, Note_on_c, 12, 64, 0
15, 34080, Note_on_c, 12, 57, 44
15, 34319, Note_on_c, 12, 57, 0
15, 35520, Note_on_c, 12, 72, 52
15, 36209, Note_on_c, 12, 72, 0
15, 36240, Note_on_c, 12, 70, 44
15, 36479, Note_on_c, 12, 70, 0
15, 36480, Note_on_c, 12, 72, 44
15, 36689, Note_on_c, 12, 72, 0
15, 36720, Note_on_c, 12, 70, 44
15, 36839, Note_on_c, 12, 70, 0
15, 36960, Note_on_c, 12, 69, 44
15, 37199, Note_on_c, 12, 69, 0
15, 37200, Note_on_c, 12, 72, 44
15, 37409, Note_on_c, 12, 72, 0
15, 37440, Note_on_c, 12, 69, 44
15, 37559, Note_on_c, 12, 69, 0
15, 38400, Note_on_c, 12, 74, 52
15, 39089, Note_on_c, 12, 74, 0
15, 39120, Note_on_c, 12, 72, 44
15, 39359, Note_on_c, 12, 72, 0
15, 39360, Note_on_c, 12, 74, 44
15, 39569, Note_on_c, 12, 74, 0
15, 39600, Note_on_c, 12, 72, 44
15, 39719, Note_on_c, 12, 72, 0
15, 39840, Note_on_c, 12, 70, 44
15, 40079, Note_on_c, 12, 70, 0
15, 40080, Note_on_c, 12, 74, 44
15, 40289, Note_on_c, 12, 74, 0
15, 40320, Note_on_c, 12, 70, 44
15, 40439, Note_on_c, 12, 70, 0
15, 40560, Note_on_c, 12, 69, 44
15, 40679, Note_on_c, 12, 69, 0
15, 40800, Note_on_c, 12, 69, 44
15, 40919, Note_on_c, 12, 69, 0
15, 41040, Note_on_c, 12, 66, 44
15, 41159, Note_on_c, 12, 66, 0
15, 41280, Note_on_c, 12, 67, 44
15, 41399, Note_on_c, 12, 67, 0
15, 41520, Note_on_c, 12, 70, 44
15, 41639, Note_on_c, 12, 70, 0
15, 41760, Note_on_c, 12, 61, 44
15, 41879, Note_on_c, 12, 61, 0
15, 42000, Note_on_c, 12, 62, 44
15, 42119, Note_on_c, 12, 62, 0
15, 42240, Note_on_c, 12, 66, 44
15, 42359, Note_on_c, 12, 66, 0
15, 42480, Note_on_c, 12, 69, 44
15, 42599, Note_on_c, 12, 69, 0
15, 42720, Note_on_c, 12, 70, 44
15, 42839, Note_on_c, 12, 70, 0
15, 42960, Note_on_c, 12, 67, 44
15, 43079, Note_on_c, 12, 67, 0
15, 43200, Note_on_c, 12, 73, 44
15, 43319, Note_on_c, 12, 73, 0
15, 43440, Note_on_c, 12, 74, 44
15, 43559, Note_on_c, 12, 74, 0
15, 43680, Note_on_c, 12, 73, 44
15, 43799, Note_on_c, 12, 73, 0
15, 43920, Note_on_c, 12, 74, 44
15, 44039, Note_on_c, 12, 74, 0
15, 44160, Note_on_c, 12, 69, 44
15, 44279, Note_on_c, 12, 69, 0
15, 44400, Note_on_c, 12, 70, 44
15, 44519, Note_on_c, 12, 70, 0
15, 44640, Note_on_c, 12, 66, 44
15, 44759, Note_on_c, 12, 66, 0
15, 44880, Note_on_c, 12, 67, 44
15, 44999, Note_on_c, 12, 67, 0
15, 45120, Note_on_c, 12, 62, 44
15, 45239, Note_on_c, 12, 62, 0
15, 45360, Note_on_c, 12, 63, 44
15, 45479, Note_on_c, 12, 63, 0
15, 45600, Note_on_c, 12, 62, 44
15, 45719, Note_on_c, 12, 62, 0
15, 45840, Note_on_c, 12, 63, 44
15, 45959, Note_on_c, 12, 63, 0
15, 46080, Note_on_c, 12, 61, 44
15, 46199, Note_on_c, 12, 61, 0
15, 46320, Note_on_c, 12, 62, 44
15, 46439, Note_on_c, 12, 62, 0
15, 46560, Note_on_c, 12, 61, 44
15, 46679, Note_on_c, 12, 61, 0
15, 46800, Note_on_c, 12, 62, 44
15, 46919, Note_on_c, 12, 62, 0
15, 47040, Note_on_c, 12, 61, 44
15, 47159, Note_on_c, 12, 61, 0
15, 47280, Note_on_c, 12, 62, 44
15, 47399, Note_on_c, 12, 62, 0
15, 47520, Note_on_c, 12, 61, 44
15, 47639, Note_on_c, 12, 61, 0
15, 47760, Note_on_c, 12, 62, 44
15, 47879, Note_on_c, 12, 62, 0
15, 48000, Note_on_c, 12, 61, 44
15, 48119, Note_on_c, 12, 61, 0
15, 48240, Note_on_c, 12, 62, 44
15, 48359, Note_on_c, 12, 62, 0
15, 48480, Note_on_c, 12, 61, 44
15, 48599, Note_on_c, 12, 61, 0
15, 48720, Note_on_c, 12, 62, 44
15, 48839, Note_on_c, 12, 62, 0
15, 48960, Note_on_c, 12, 61, 44
15, 49079, Note_on_c, 12, 61, 0
15, 49200, Note_on_c, 12, 62, 44
15, 49439, Note_on_c, 12, 62, 0
15, 54720, Note_on_c, 12, 55, 44
15, 54839, Note_on_c, 12, 55, 0
15, 54960, Note_on_c, 12, 55, 44
15, 55079, Note_on_c, 12, 55, 0
15, 55200, Note_on_c, 12, 56, 44
15, 55319, Note_on_c, 12, 56, 0
15, 55440, Note_on_c, 12, 55, 44
15, 55559, Note_on_c, 12, 55, 0
15, 55680, Note_on_c, 12, 56, 44
15, 55799, Note_on_c, 12, 56, 0
15, 55920, Note_on_c, 12, 55, 44
15, 56039, Note_on_c, 12, 55, 0
15, 56160, Note_on_c, 12, 56, 44
15, 56279, Note_on_c, 12, 56, 0
15, 56400, Note_on_c, 12, 55, 44
15, 56519, Note_on_c, 12, 55, 0
15, 56640, Note_on_c, 12, 56, 44
15, 56759, Note_on_c, 12, 56, 0
15, 56880, Note_on_c, 12, 55, 44
15, 56999, Note_on_c, 12, 55, 0
15, 57120, Note_on_c, 12, 56, 44
15, 57239, Note_on_c, 12, 56, 0
15, 57360, Note_on_c, 12, 55, 44
15, 57479, Note_on_c, 12, 55, 0
15, 57600, Note_on_c, 12, 56, 44
15, 57719, Note_on_c, 12, 56, 0
15, 57840, Note_on_c, 12, 55, 44
15, 57959, Note_on_c, 12, 55, 0
15, 58080, Note_on_c, 12, 56, 44
15, 58199, Note_on_c, 12, 56, 0
15, 58320, Note_on_c, 12, 55, 44
15, 58439, Note_on_c, 12, 55, 0
15, 58560, Note_on_c, 12, 56, 44
15, 58679, Note_on_c, 12, 56, 0
15, 58800, Note_on_c, 12, 55, 44
15, 58919, Note_on_c, 12, 55, 0
15, 59040, Note_on_c, 12, 58, 44
15, 59159, Note_on_c, 12, 58, 0
15, 59280, Note_on_c, 12, 58, 44
15, 59489, Note_on_c, 12, 58, 0
15, 59520, Note_on_c, 12, 58, 44
15, 59729, Note_on_c, 12, 58, 0
15, 59760, Note_on_c, 12, 58, 44
15, 59969, Note_on_c, 12, 58, 0
15, 60000, Note_on_c, 12, 58, 44
15, 60209, Note_on_c, 12, 58, 0
15, 60240, Note_on_c, 12, 65, 44
15, 60240, Note_on_c, 12, 58, 44
15, 60449, Note_on_c, 12, 65, 0
15, 60449, Note_on_c, 12, 58, 0
15, 60480, Note_on_c, 12, 58, 44
15, 60480, Note_on_c, 12, 63, 44
15, 60689, Note_on_c, 12, 58, 0
15, 60689, Note_on_c, 12, 63, 0
15, 60720, Note_on_c, 12, 62, 44
15, 60720, Note_on_c, 12, 58, 44
15, 60929, Note_on_c, 12, 62, 0
15, 60929, Note_on_c, 12, 58, 0
15, 60960, Note_on_c, 12, 65, 44
15, 61169, Note_on_c, 12, 65, 0
15, 61200, Note_on_c, 12, 63, 44
15, 61409, Note_on_c, 12, 63, 0
15, 61440, Note_on_c, 12, 62, 44
15, 61649, Note_on_c, 12, 62, 0
15, 61680, Note_on_c, 12, 65, 44
15, 61889, Note_on_c, 12, 65, 0
15, 61920, Note_on_c, 12, 63, 44
15, 62129, Note_on_c, 12, 63, 0
15, 62160, Note_on_c, 12, 62, 44
15, 62369, Note_on_c, 12, 62, 0
15, 62400, Note_on_c, 12, 74, 44
15, 62609, Note_on_c, 12, 74, 0
15, 62640, Note_on_c, 12, 75, 44
15, 62849, Note_on_c, 12, 75, 0
15, 62880, Note_on_c, 12, 77, 44
15, 63089, Note_on_c, 12, 77, 0
15, 63120, Note_on_c, 12, 72, 44
15, 63329, Note_on_c, 12, 72, 0
15, 63360, Note_on_c, 12, 74, 44
15, 63569, Note_on_c, 12, 74, 0
15, 63600, Note_on_c, 12, 75, 44
15, 63809, Note_on_c, 12, 75, 0
15, 63840, Note_on_c, 12, 70, 44
15, 64049, Note_on_c, 12, 70, 0
15, 64080, Note_on_c, 12, 72, 44
15, 64289, Note_on_c, 12, 72, 0
15, 64320, Note_on_c, 12, 65, 44
15, 64529, Note_on_c, 12, 65, 0
15, 64560, Note_on_c, 12, 69, 44
15, 64769, Note_on_c, 12, 69, 0
15, 64800, Note_on_c, 12, 70, 44
15, 65009, Note_on_c, 12, 70, 0
15, 65040, Note_on_c, 12, 67, 44
15, 65249, Note_on_c, 12, 67, 0
15, 65280, Note_on_c, 12, 67, 44
15, 65489, Note_on_c, 12, 67, 0
15, 65520, Note_on_c, 12, 69, 44
15, 65729, Note_on_c, 12, 69, 0
15, 65760, Note_on_c, 12, 70, 44
15, 65879, Note_on_c, 12, 70, 0
15, 66000, Note_on_c, 12, 72, 57
15, 66119, Note_on_c, 12, 72, 0
15, 66240, Note_on_c, 12, 74, 70
15, 66359, Note_on_c, 12, 74, 0
15, 66480, Note_on_c, 12, 75, 84
15, 66689, Note_on_c, 12, 75, 0
15, 66720, Note_on_c, 12, 75, 84
15, 66720, Note_on_c, 12, 67, 84
15, 66929, Note_on_c, 12, 75, 0
15, 66929, Note_on_c, 12, 67, 0
15, 66960, Note_on_c, 12, 67, 84
15, 66960, Note_on_c, 12, 75, 84
15, 67169, Note_on_c, 12, 67, 0
15, 67169, Note_on_c, 12, 75, 0
15, 67200, Note_on_c, 12, 75, 84
15, 67200, Note_on_c, 12, 67, 84
15, 67409, Note_on_c, 12, 75, 0
15, 67409, Note_on_c, 12, 67, 0
15, 67440, Note_on_c, 12, 75, 84
15, 67440, Note_on_c, 12, 67, 84
15, 67649, Note_on_c, 12, 75, 0
15, 67649, Note_on_c, 12, 67, 0
15, 67680, Note_on_c, 12, 75, 84
15, 67680, Note_on_c, 12, 67, 84
15, 67889, Note_on_c, 12, 75, 0
15, 67889, Note_on_c, 12, 67, 0
15, 67920, Note_on_c, 12, 67, 84
15, 67920, Note_on_c, 12, 75, 84
15, 68159, Note_on_c, 12, 67, 0
15, 68159, Note_on_c, 12, 75, 0
15, 68160, Note_on_c, 12, 77, 84
15, 68279, Note_on_c, 12, 77, 0
15, 68280, Note_on_c, 12, 75, 84
15, 68399, Note_on_c, 12, 75, 0
15, 68400, Note_on_c, 12, 74, 84
15, 68519, Note_on_c, 12, 74, 0
15, 68520, Note_on_c, 12, 72, 84
15, 68609, Note_on_c, 12, 72, 0
15, 68640, Note_on_c, 12, 70, 84
15, 69329, Note_on_c, 12, 70, 0
15, 69360, Note_on_c, 12, 68, 92
15, 70049, Note_on_c, 12, 68, 0
15, 70080, Note_on_c, 12, 67, 84
15, 70319, Note_on_c, 12, 67, 0
15, 70320, Note_on_c, 12, 70, 84
15, 70529, Note_on_c, 12, 70, 0
15, 70560, Note_on_c, 12, 67, 84
15, 70679, Note_on_c, 12, 67, 0
15, 70800, Note_on_c, 12, 65, 84
15, 71039, Note_on_c, 12, 65, 0
15, 71040, Note_on_c, 12, 70, 84
15, 71249, Note_on_c, 12, 70, 0
15, 71280, Note_on_c, 12, 65, 84
15, 71399, Note_on_c, 12, 65, 0
15, 71520, Note_on_c, 12, 63, 84
15, 71639, Note_on_c, 12, 63, 0
15, 71760, Note_on_c, 12, 67, 84
15, 71879, Note_on_c, 12, 67, 0
15, 72000, Note_on_c, 12, 70, 84
15, 72119, Note_on_c, 12, 70, 0
15, 72240, Note_on_c, 12, 68, 92
15, 72929, Note_on_c, 12, 68, 0
15, 72960, Note_on_c, 12, 67, 84
15, 73199, Note_on_c, 12, 67, 0
15, 73200, Note_on_c, 12, 70, 84
15, 73409, Note_on_c, 12, 70, 0
15, 73440, Note_on_c, 12, 67, 84
15, 73559, Note_on_c, 12, 67, 0
15, 73680, Note_on_c, 12, 65, 84
15, 73919, Note_on_c, 12, 65, 0
15, 73920, Note_on_c, 12, 70, 84
15, 74129, Note_on_c, 12, 70, 0
15, 74160, Note_on_c, 12, 65, 84
15, 74279, Note_on_c, 12, 65, 0
15, 74400, Note_on_c, 12, 63, 84
15, 74519, Note_on_c, 12, 63, 0
15, 74640, Note_on_c, 12, 67, 84
15, 74759, Note_on_c, 12, 67, 0
15, 74880, Note_on_c, 12, 70, 84
15, 74999, Note_on_c, 12, 70, 0
15, 75120, Note_on_c, 12, 73, 92
15, 75809, Note_on_c, 12, 73, 0
15, 75840, Note_on_c, 12, 72, 84
15, 76079, Note_on_c, 12, 72, 0
15, 76080, Note_on_c, 12, 75, 84
15, 76289, Note_on_c, 12, 75, 0
15, 76320, Note_on_c, 12, 72, 84
15, 76439, Note_on_c, 12, 72, 0
15, 76560, Note_on_c, 12, 70, 84
15, 76799, Note_on_c, 12, 70, 0
15, 76800, Note_on_c, 12, 75, 84
15, 77009, Note_on_c, 12, 75, 0
15, 77040, Note_on_c, 12, 70, 84
15, 77159, Note_on_c, 12, 70, 0
15, 77280, Note_on_c, 12, 68, 84
15, 77399, Note_on_c, 12, 68, 0
15, 77520, Note_on_c, 12, 72, 84
15, 77639, Note_on_c, 12, 72, 0
15, 77760, Note_on_c, 12, 75, 84
15, 77879, Note_on_c, 12, 75, 0
15, 78000, Note_on_c, 12, 73, 92
15, 78689, Note_on_c, 12, 73, 0
15, 78720, Note_on_c, 12, 72, 84
15, 78959, Note_on_c, 12, 72, 0
15, 78960, Note_on_c, 12, 75, 84
15, 79169, Note_on_c, 12, 75, 0
15, 79200, Note_on_c, 12, 72, 84
15, 79319, Note_on_c, 12, 72, 0
15, 79440, Note_on_c, 12, 75, 84
15, 79559, Note_on_c, 12, 75, 0
15, 79680, Note_on_c, 12, 70, 84
15, 79799, Note_on_c, 12, 70, 0
15, 79920, Note_on_c, 12, 75, 84
15, 80039, Note_on_c, 12, 75, 0
15, 80160, Note_on_c, 12, 68, 84
15, 80279, Note_on_c, 12, 68, 0
15, 80400, Note_on_c, 12, 75, 84
15, 80519, Note_on_c, 12, 75, 0
15, 80640, Note_on_c, 12, 68, 84
15, 80759, Note_on_c, 12, 68, 0
15, 80880, Note_on_c, 12, 75, 84
15, 80999, Note_on_c, 12, 75, 0
15, 81120, Note_on_c, 12, 67, 84
15, 81239, Note_on_c, 12, 67, 0
15, 81360, Note_on_c, 12, 75, 84
15, 81479, Note_on_c, 12, 75, 0
15, 81600, Note_on_c, 12, 65, 84
15, 81719, Note_on_c, 12, 65, 0
15, 81840, Note_on_c, 12, 74, 84
15, 81959, Note_on_c, 12, 74, 0
15, 82080, Note_on_c, 12, 65, 84
15, 82199, Note_on_c, 12, 65, 0
15, 82320, Note_on_c, 12, 75, 84
15, 82320, Note_on_c, 12, 67, 84
15, 82439, Note_on_c, 12, 75, 0
15, 82439, Note_on_c, 12, 67, 0
15, 82560, Note_on_c, 12, 79, 92
15, 82919, Note_on_c, 12, 79, 0
15, 83040, Note_on_c, 12, 75, 84
15, 83159, Note_on_c, 12, 75, 0
15, 83280, Note_on_c, 12, 70, 92
15, 83639, Note_on_c, 12, 70, 0
15, 83760, Note_on_c, 12, 67, 84
15, 83879, Note_on_c, 12, 67, 0
15, 84000, Note_on_c, 12, 63, 92
15, 84359, Note_on_c, 12, 63, 0
15, 84480, Note_on_c, 12, 58, 84
15, 84719, Note_on_c, 12, 58, 0
15, 84960, Note_on_c, 12, 56, 84
15, 85019, Note_on_c, 12, 56, 0
15, 85020, Note_on_c, 12, 58, 84
15, 85079, Note_on_c, 12, 58, 0
15, 85080, Note_on_c, 12, 55, 84
15, 85139, Note_on_c, 12, 55, 0
15, 85140, Note_on_c, 12, 56, 84
15, 85199, Note_on_c, 12, 56, 0
15, 85200, Note_on_c, 12, 55, 84
15, 85439, Note_on_c, 12, 55, 0
15, 86880, Note_on_c, 12, 63, 52
15, 87119, Note_on_c, 12, 63, 0
15, 87120, Note_on_c, 12, 63, 52
15, 87329, Note_on_c, 12, 63, 0
15, 87360, Note_on_c, 12, 65, 52
15, 87569, Note_on_c, 12, 65, 0
15, 87600, Note_on_c, 12, 65, 52
15, 87809, Note_on_c, 12, 65, 0
15, 87840, Note_on_c, 12, 65, 52
15, 88049, Note_on_c, 12, 65, 0
15, 88080, Note_on_c, 12, 58, 76
15, 88199, Note_on_c, 12, 58, 0
15, 88320, Note_on_c, 12, 79, 84
15, 88769, Note_on_c, 12, 79, 0
15, 88800, Note_on_c, 12, 75, 76
15, 89009, Note_on_c, 12, 75, 0
15, 89040, Note_on_c, 12, 70, 84
15, 89489, Note_on_c, 12, 70, 0
15, 89520, Note_on_c, 12, 67, 76
15, 89729, Note_on_c, 12, 67, 0
15, 89760, Note_on_c, 12, 63, 84
15, 90209, Note_on_c, 12, 63, 0
15, 90240, Note_on_c, 12, 58, 76
15, 90479, Note_on_c, 12, 58, 0
15, 90720, Note_on_c, 12, 56, 76
15, 90779, Note_on_c, 12, 56, 0
15, 90780, Note_on_c, 12, 58, 76
15, 90839, Note_on_c, 12, 58, 0
15, 90840, Note_on_c, 12, 55, 76
15, 90899, Note_on_c, 12, 55, 0
15, 90900, Note_on_c, 12, 56, 76
15, 90959, Note_on_c, 12, 56, 0
15, 90960, Note_on_c, 12, 55, 76
15, 91199, Note_on_c, 12, 55, 0
15, 92640, Note_on_c, 12, 73, 52
15, 92759, Note_on_c, 12, 73, 0
15, 92880, Note_on_c, 12, 72, 52
15, 92999, Note_on_c, 12, 72, 0
15, 93120, Note_on_c, 12, 73, 52
15, 93239, Note_on_c, 12, 73, 0
15, 93360, Note_on_c, 12, 72, 52
15, 93479, Note_on_c, 12, 72, 0
15, 93600, Note_on_c, 12, 73, 52
15, 93719, Note_on_c, 12, 73, 0
15, 93840, Note_on_c, 12, 72, 52
15, 94079, Note_on_c, 12, 72, 0
15, 95520, Note_on_c, 12, 71, 52
15, 95639, Note_on_c, 12, 71, 0
15, 95760, Note_on_c, 12, 70, 52
15, 95879, Note_on_c, 12, 70, 0
15, 96000, Note_on_c, 12, 71, 52
15, 96119, Note_on_c, 12, 71, 0
15, 96240, Note_on_c, 12, 70, 52
15, 96359, Note_on_c, 12, 70, 0
15, 96480, Note_on_c, 12, 71, 52
15, 96599, Note_on_c, 12, 71, 0
15, 96720, Note_on_c, 12, 70, 52
15, 96839, Note_on_c, 12, 70, 0
15, 98400, Note_on_c, 12, 71, 52
15, 98519, Note_on_c, 12, 71, 0
15, 98640, Note_on_c, 12, 70, 52
15, 98759, Note_on_c, 12, 70, 0
15, 98880, Note_on_c, 12, 71, 52
15, 98999, Note_on_c, 12, 71, 0
15, 99120, Note_on_c, 12, 70, 52
15, 99239, Note_on_c, 12, 70, 0
15, 99360, Note_on_c, 12, 71, 52
15, 99479, Note_on_c, 12, 71, 0
15, 99600, Note_on_c, 12, 70, 52
15, 99719, Note_on_c, 12, 70, 0
15, 101280, Note_on_c, 12, 60, 52
15, 101399, Note_on_c, 12, 60, 0
15, 101520, Note_on_c, 12, 58, 52
15, 101639, Note_on_c, 12, 58, 0
15, 101760, Note_on_c, 12, 60, 52
15, 101879, Note_on_c, 12, 60, 0
15, 102000, Note_on_c, 12, 58, 52
15, 102119, Note_on_c, 12, 58, 0
15, 102240, Note_on_c, 12, 60, 52
15, 102359, Note_on_c, 12, 60, 0
15, 102480, Note_on_c, 12, 58, 52
15, 102569, Note_on_c, 12, 58, 0
15, 102600, Note_on_c, 12, 58, 52
15, 102689, Note_on_c, 12, 58, 0
15, 102720, Note_on_c, 12, 58, 52
15, 102809, Note_on_c, 12, 58, 0
15, 102840, Note_on_c, 12, 58, 52
15, 102929, Note_on_c, 12, 58, 0
15, 102960, Note_on_c, 12, 59, 52
15, 103049, Note_on_c, 12, 59, 0
15, 103080, Note_on_c, 12, 59, 52
15, 103169, Note_on_c, 12, 59, 0
15, 103200, Note_on_c, 12, 60, 52
15, 103289, Note_on_c, 12, 60, 0
15, 103320, Note_on_c, 12, 60, 52
15, 103409, Note_on_c, 12, 60, 0
15, 103440, Note_on_c, 12, 62, 52
15, 103529, Note_on_c, 12, 62, 0
15, 103560, Note_on_c, 12, 62, 52
15, 103649, Note_on_c, 12, 62, 0
15, 103680, Note_on_c, 12, 63, 52
15, 103769, Note_on_c, 12, 63, 0
15, 103800, Note_on_c, 12, 63, 52
15, 103889, Note_on_c, 12, 63, 0
15, 103920, Note_on_c, 12, 65, 52
15, 104009, Note_on_c, 12, 65, 0
15, 104040, Note_on_c, 12, 65, 52
15, 104129, Note_on_c, 12, 65, 0
15, 104160, Note_on_c, 12, 60, 52
15, 104249, Note_on_c, 12, 60, 0
15, 104280, Note_on_c, 12, 60, 52
15, 104369, Note_on_c, 12, 60, 0
15, 104400, Note_on_c, 12, 61, 52
15, 104489, Note_on_c, 12, 61, 0
15, 104520, Note_on_c, 12, 61, 52
15, 104609, Note_on_c, 12, 61, 0
15, 104640, Note_on_c, 12, 62, 52
15, 104729, Note_on_c, 12, 62, 0
15, 104760, Note_on_c, 12, 62, 52
15, 104849, Note_on_c, 12, 62, 0
15, 104880, Note_on_c, 12, 64, 52
15, 104969, Note_on_c, 12, 64, 0
15, 105000, Note_on_c, 12, 64, 52
15, 105089, Note_on_c, 12, 64, 0
15, 105120, Note_on_c, 12, 65, 52
15, 105209, Note_on_c, 12, 65, 0
15, 105240, Note_on_c, 12, 65, 52
15, 105329, Note_on_c, 12, 65, 0
15, 105360, Note_on_c, 12, 67, 52
15, 105449, Note_on_c, 12, 67, 0
15, 105480, Note_on_c, 12, 67, 52
15, 105569, Note_on_c, 12, 67, 0
15, 105600, Note_on_c, 12, 61, 52
15, 105689, Note_on_c, 12, 61, 0
15, 105720, Note_on_c, 12, 61, 52
15, 105809, Note_on_c, 12, 61, 0
15, 105840, Note_on_c, 12, 62, 52
15, 105929, Note_on_c, 12, 62, 0
15, 105960, Note_on_c, 12, 62, 52
15, 106049, Note_on_c, 12, 62, 0
15, 106080, Note_on_c, 12, 63, 52
15, 106169, Note_on_c, 12, 63, 0
15, 106200, Note_on_c, 12, 63, 52
15, 106289, Note_on_c, 12, 63, 0
15, 106320, Note_on_c, 12, 65, 52
15, 106409, Note_on_c, 12, 65, 0
15, 106440, Note_on_c, 12, 65, 52
15, 106529, Note_on_c, 12, 65, 0
15, 106560, Note_on_c, 12, 67, 52
15, 106649, Note_on_c, 12, 67, 0
15, 106680, Note_on_c, 12, 67, 52
15, 106769, Note_on_c, 12, 67, 0
15, 106800, Note_on_c, 12, 68, 52
15, 106889, Note_on_c, 12, 68, 0
15, 106920, Note_on_c, 12, 68, 52
15, 107009, Note_on_c, 12, 68, 0
15, 107040, Note_on_c, 12, 64, 52
15, 107129, Note_on_c, 12, 64, 0
15, 107160, Note_on_c, 12, 64, 52
15, 107249, Note_on_c, 12, 64, 0
15, 107280, Note_on_c, 12, 65, 52
15, 107369, Note_on_c, 12, 65, 0
15, 107400, Note_on_c, 12, 65, 52
15, 107489, Note_on_c, 12, 65, 0
15, 107520, Note_on_c, 12, 62, 52
15, 107609, Note_on_c, 12, 62, 0
15, 107640, Note_on_c, 12, 62, 52
15, 107729, Note_on_c, 12, 62, 0
15, 107760, Note_on_c, 12, 80, 52
15, 107849, Note_on_c, 12, 80, 0
15, 107880, Note_on_c, 12, 80, 52
15, 107969, Note_on_c, 12, 80, 0
15, 108000, Note_on_c, 12, 74, 52
15, 108089, Note_on_c, 12, 74, 0
15, 108120, Note_on_c, 12, 74, 52
15, 108209, Note_on_c, 12, 74, 0
15, 108240, Note_on_c, 12, 75, 52
15, 108359, Note_on_c, 12, 75, 0
15, 108480, Note_on_c, 12, 70, 52
15, 108599, Note_on_c, 12, 70, 0
15, 108720, Note_on_c, 12, 65, 52
15, 108839, Note_on_c, 12, 65, 0
15, 108960, Note_on_c, 12, 67, 52
15, 109079, Note_on_c, 12, 67, 0
15, 109200, Note_on_c, 12, 67, 52
15, 109319, Note_on_c, 12, 67, 0
15, 109440, Note_on_c, 12, 67, 52
15, 109559, Note_on_c, 12, 67, 0
15, 109680, Note_on_c, 12, 60, 52
15, 109799, Note_on_c, 12, 60, 0
15, 109920, Note_on_c, 12, 72, 52
15, 110039, Note_on_c, 12, 72, 0
15, 110160, Note_on_c, 12, 67, 52
15, 110279, Note_on_c, 12, 67, 0
15, 110400, Note_on_c, 12, 68, 52
15, 110519, Note_on_c, 12, 68, 0
15, 110640, Note_on_c, 12, 56, 52
15, 110759, Note_on_c, 12, 56, 0
15, 110880, Note_on_c, 12, 68, 52
15, 110999, Note_on_c, 12, 68, 0
15, 111120, Note_on_c, 12, 62, 52
15, 111239, Note_on_c, 12, 62, 0
15, 111360, Note_on_c, 12, 67, 54
15, 111479, Note_on_c, 12, 67, 0
15, 111600, Note_on_c, 12, 58, 57
15, 111719, Note_on_c, 12, 58, 0
15, 111840, Note_on_c, 12, 70, 60
15, 111959, Note_on_c, 12, 70, 0
15, 112080, Note_on_c, 12, 58, 62
15, 112199, Note_on_c, 12, 58, 0
15, 112320, Note_on_c, 12, 70, 65
15, 112439, Note_on_c, 12, 70, 0
15, 112560, Note_on_c, 12, 63, 68
15, 112679, Note_on_c, 12, 63, 0
15, 112800, Note_on_c, 12, 72, 70
15, 112919, Note_on_c, 12, 72, 0
15, 113040, Note_on_c, 12, 72, 73
15, 113159, Note_on_c, 12, 72, 0
15, 113280, Note_on_c, 12, 74, 76
15, 113399, Note_on_c, 12, 74, 0
15, 113520, Note_on_c, 12, 65, 78
15, 113639, Note_on_c, 12, 65, 0
15, 113760, Note_on_c, 12, 65, 81
15, 113879, Note_on_c, 12, 65, 0
15, 114000, Note_on_c, 12, 62, 84
15, 114089, Note_on_c, 12, 62, 0
15, 114120, Note_on_c, 12, 62, 84
15, 114209, Note_on_c, 12, 62, 0
15, 114240, Note_on_c, 12, 68, 84
15, 114329, Note_on_c, 12, 68, 0
15, 114360, Note_on_c, 12, 68, 84
15, 114449, Note_on_c, 12, 68, 0
15, 114480, Note_on_c, 12, 65, 84
15, 114569, Note_on_c, 12, 65, 0
15, 114600, Note_on_c, 12, 65, 84
15, 114689, Note_on_c, 12, 65, 0
15, 114720, Note_on_c, 12, 62, 84
15, 114809, Note_on_c, 12, 62, 0
15, 114840, Note_on_c, 12, 62, 84
15, 114929, Note_on_c, 12, 62, 0
15, 114960, Note_on_c, 12, 77, 84
15, 115049, Note_on_c, 12, 77, 0
15, 115080, Note_on_c, 12, 77, 84
15, 115169, Note_on_c, 12, 77, 0
15, 115200, Note_on_c, 12, 74, 84
15, 115289, Note_on_c, 12, 74, 0
15, 115320, Note_on_c, 12, 74, 84
15, 115409, Note_on_c, 12, 74, 0
15, 115440, Note_on_c, 12, 65, 84
15, 115529, Note_on_c, 12, 65, 0
15, 115560, Note_on_c, 12, 65, 84
15, 115649, Note_on_c, 12, 65, 0
15, 115680, Note_on_c, 12, 80, 84
15, 115769, Note_on_c, 12, 80, 0
15, 115800, Note_on_c, 12, 80, 84
15, 115889, Note_on_c, 12, 80, 0
15, 115920, Note_on_c, 12, 77, 84
15, 116009, Note_on_c, 12, 77, 0
15, 116040, Note_on_c, 12, 77, 84
15, 116129, Note_on_c, 12, 77, 0
15, 116160, Note_on_c, 12, 74, 84
15, 116249, Note_on_c, 12, 74, 0
15, 116280, Note_on_c, 12, 74, 84
15, 116369, Note_on_c, 12, 74, 0
15, 116400, Note_on_c, 12, 75, 84
15, 116489, Note_on_c, 12, 75, 0
15, 116520, Note_on_c, 12, 75, 84
15, 116609, Note_on_c, 12, 75, 0
15, 116640, Note_on_c, 12, 77, 84
15, 116729, Note_on_c, 12, 77, 0
15, 116760, Note_on_c, 12, 77, 84
15, 116849, Note_on_c, 12, 77, 0
15, 116880, Note_on_c, 12, 67, 76
15, 117119, Note_on_c, 12, 67, 0
15, 117600, Note_on_c, 12, 58, 76
15, 117600, Note_on_c, 12, 74, 76
15, 117600, Note_on_c, 12, 65, 76
15, 117839, Note_on_c, 12, 58, 0
15, 117839, Note_on_c, 12, 74, 0
15, 117839, Note_on_c, 12, 65, 0
15, 118320, Note_on_c, 12, 62, 76
15, 118320, Note_on_c, 12, 70, 76
15, 118320, Note_on_c, 12, 77, 76
15, 118559, Note_on_c, 12, 62, 0
15, 118559, Note_on_c, 12, 70, 0
15, 118559, Note_on_c, 12, 77, 0
15, 119760, Note_on_c, 12, 63, 44
15, 119879, Note_on_c, 12, 63, 0
15, 120000, Note_on_c, 12, 68, 44
15, 120119, Note_on_c, 12, 68, 0
15, 120240, Note_on_c, 12, 63, 44
15, 120359, Note_on_c, 12, 63, 0
15, 120480, Note_on_c, 12, 68, 44
15, 120599, Note_on_c, 12, 68, 0
15, 120720, Note_on_c, 12, 68, 44
15, 120839, Note_on_c, 12, 68, 0
15, 120960, Note_on_c, 12, 68, 44
15, 121079, Note_on_c, 12, 68, 0
15, 121200, Note_on_c, 12, 68, 44
15, 121319, Note_on_c, 12, 68, 0
15, 121440, Note_on_c, 12, 65, 44
15, 121559, Note_on_c, 12, 65, 0
15, 121680, Note_on_c, 12, 68, 44
15, 121799, Note_on_c, 12, 68, 0
15, 121920, Note_on_c, 12, 65, 44
15, 122039, Note_on_c, 12, 65, 0
15, 122160, Note_on_c, 12, 68, 44
15, 122279, Note_on_c, 12, 68, 0
15, 122400, Note_on_c, 12, 65, 44
15, 122519, Note_on_c, 12, 65, 0
15, 122640, Note_on_c, 12, 68, 44
15, 122759, Note_on_c, 12, 68, 0
15, 122880, Note_on_c, 12, 65, 44
15, 122999, Note_on_c, 12, 65, 0
15, 123120, Note_on_c, 12, 68, 44
15, 123239, Note_on_c, 12, 68, 0
15, 123360, Note_on_c, 12, 65, 44
15, 123479, Note_on_c, 12, 65, 0
15, 123600, Note_on_c, 12, 68, 44
15, 123719, Note_on_c, 12, 68, 0
15, 123840, Note_on_c, 12, 68, 44
15, 123959, Note_on_c, 12, 68, 0
15, 124080, Note_on_c, 12, 68, 44
15, 124199, Note_on_c, 12, 68, 0
15, 124320, Note_on_c, 12, 68, 44
15, 124439, Note_on_c, 12, 68, 0
15, 124560, Note_on_c, 12, 70, 44
15, 124679, Note_on_c, 12, 70, 0
15, 124800, Note_on_c, 12, 70, 44
15, 124919, Note_on_c, 12, 70, 0
15, 125040, Note_on_c, 12, 70, 44
15, 125159, Note_on_c, 12, 70, 0
15, 125280, Note_on_c, 12, 70, 44
15, 125399, Note_on_c, 12, 70, 0
15, 125520, Note_on_c, 12, 70, 44
15, 125639, Note_on_c, 12, 70, 0
15, 125760, Note_on_c, 12, 70, 44
15, 125879, Note_on_c, 12, 70, 0
15, 126000, Note_on_c, 12, 72, 44
15, 126119, Note_on_c, 12, 72, 0
15, 126240, Note_on_c, 12, 72, 44
15, 126359, Note_on_c, 12, 72, 0
15, 126480, Note_on_c, 12, 72, 44
15, 126599, Note_on_c, 12, 72, 0
15, 126720, Note_on_c, 12, 72, 44
15, 126839, Note_on_c, 12, 72, 0
15, 126960, Note_on_c, 12, 72, 44
15, 127079, Note_on_c, 12, 72, 0
15, 127200, Note_on_c, 12, 72, 44
15, 127319, Note_on_c, 12, 72, 0
15, 127440, Note_on_c, 12, 70, 44
15, 127559, Note_on_c, 12, 70, 0
15, 127680, Note_on_c, 12, 69, 44
15, 127799, Note_on_c, 12, 69, 0
15, 127920, Note_on_c, 12, 72, 44
15, 128039, Note_on_c, 12, 72, 0
15, 128160, Note_on_c, 12, 70, 44
15, 128279, Note_on_c, 12, 70, 0
15, 128400, Note_on_c, 12, 69, 44
15, 128519, Note_on_c, 12, 69, 0
15, 128640, Note_on_c, 12, 69, 44
15, 128759, Note_on_c, 12, 69, 0
15, 128880, Note_on_c, 12, 70, 44
15, 128999, Note_on_c, 12, 70, 0
15, 129120, Note_on_c, 12, 72, 44
15, 129239, Note_on_c, 12, 72, 0
15, 129360, Note_on_c, 12, 67, 44
15, 129479, Note_on_c, 12, 67, 0
15, 129600, Note_on_c, 12, 69, 44
15, 129719, Note_on_c, 12, 69, 0
15, 129840, Note_on_c, 12, 70, 44
15, 129959, Note_on_c, 12, 70, 0
15, 130080, Note_on_c, 12, 65, 44
15, 130199, Note_on_c, 12, 65, 0
15, 130320, Note_on_c, 12, 67, 44
15, 130439, Note_on_c, 12, 67, 0
15, 130560, Note_on_c, 12, 69, 44
15, 130799, Note_on_c, 12, 69, 0
15, 130800, Note_on_c, 12, 60, 44
15, 131009, Note_on_c, 12, 60, 0
15, 131040, Note_on_c, 12, 65, 44
15, 131159, Note_on_c, 12, 65, 0
15, 131280, Note_on_c, 12, 64, 44
15, 131519, Note_on_c, 12, 64, 0
15, 131520, Note_on_c, 12, 60, 44
15, 131729, Note_on_c, 12, 60, 0
15, 131760, Note_on_c, 12, 64, 44
15, 131879, Note_on_c, 12, 64, 0
15, 132000, Note_on_c, 12, 57, 44
15, 132239, Note_on_c, 12, 57, 0
15, 133440, Note_on_c, 12, 72, 52
15, 134129, Note_on_c, 12, 72, 0
15, 134160, Note_on_c, 12, 70, 44
15, 134399, Note_on_c, 12, 70, 0
15, 134400, Note_on_c, 12, 72, 44
15, 134609, Note_on_c, 12, 72, 0
15, 134640, Note_on_c, 12, 70, 44
15, 134759, Note_on_c, 12, 70, 0
15, 134880, Note_on_c, 12, 69, 44
15, 135119, Note_on_c, 12, 69, 0
15, 135120, Note_on_c, 12, 72, 44
15, 135329, Note_on_c, 12, 72, 0
15, 135360, Note_on_c, 12, 69, 44
15, 135479, Note_on_c, 12, 69, 0
15, 136320, Note_on_c, 12, 74, 52
15, 137009, Note_on_c, 12, 74, 0
15, 137040, Note_on_c, 12, 72, 44
15, 137279, Note_on_c, 12, 72, 0
15, 137280, Note_on_c, 12, 74, 44
15, 137489, Note_on_c, 12, 74, 0
15, 137520, Note_on_c, 12, 72, 44
15, 137639, Note_on_c, 12, 72, 0
15, 137760, Note_on_c, 12, 70, 44
15, 137999, Note_on_c, 12, 70, 0
15, 138000, Note_on_c, 12, 74, 44
15, 138209, Note_on_c, 12, 74, 0
15, 138240, Note_on_c, 12, 70, 44
15, 138359, Note_on_c, 12, 70, 0
15, 138480, Note_on_c, 12, 69, 44
15, 138599, Note_on_c, 12, 69, 0
15, 138720, Note_on_c, 12, 69, 44
15, 138839, Note_on_c, 12, 69, 0
15, 138960, Note_on_c, 12, 66, 44
15, 139079, Note_on_c, 12, 66, 0
15, 139200, Note_on_c, 12, 67, 44
15, 139319, Note_on_c, 12, 67, 0
15, 139440, Note_on_c, 12, 70, 44
15, 139559, Note_on_c, 12, 70, 0
15, 139680, Note_on_c, 12, 61, 44
15, 139799, Note_on_c, 12, 61, 0
15, 139920, Note_on_c, 12, 62, 44
15, 140039, Note_on_c, 12, 62, 0
15, 140160, Note_on_c, 12, 66, 44
15, 140279, Note_on_c, 12, 66, 0
15, 140400, Note_on_c, 12, 69, 44
15, 140519, Note_on_c, 12, 69, 0
15, 140640, Note_on_c, 12, 70, 44
15, 140759, Note_on_c, 12, 70, 0
15, 140880, Note_on_c, 12, 67, 44
15, 140999, Note_on_c, 12, 67, 0
15, 141120, Note_on_c, 12, 73, 44
15, 141239, Note_on_c, 12, 73, 0
15, 141360, Note_on_c, 12, 74, 44
15, 141479, Note_on_c, 12, 74, 0
15, 141600, Note_on_c, 12, 73, 44
15, 141719, Note_on_c, 12, 73, 0
15, 141840, Note_on_c, 12, 74, 44
15, 141959, Note_on_c, 12, 74, 0
15, 142080, Note_on_c, 12, 69, 44
15, 142199, Note_on_c, 12, 69, 0
15, 142320, Note_on_c, 12, 70, 44
15, 142439, Note_on_c, 12, 70, 0
15, 142560, Note_on_c, 12, 66, 44
15, 142679, Note_on_c, 12, 66, 0
15, 142800, Note_on_c, 12, 67, 44
15, 142919, Note_on_c, 12, 67, 0
15, 143040, Note_on_c, 12, 62, 44
15, 143159, Note_on_c, 12, 62, 0
15, 143280, Note_on_c, 12, 63, 44
15, 143399, Note_on_c, 12, 63, 0
15, 143520, Note_on_c, 12, 62, 44
15, 143639, Note_on_c, 12, 62, 0
15, 143760, Note_on_c, 12, 63, 44
15, 143879, Note_on_c, 12, 63, 0
15, 144000, Note_on_c, 12, 61, 44
15, 144119, Note_on_c, 12, 61, 0
15, 144240, Note_on_c, 12, 62, 44
15, 144359, Note_on_c, 12, 62, 0
15, 144480, Note_on_c, 12, 61, 44
15, 144599, Note_on_c, 12, 61, 0
15, 144720, Note_on_c, 12, 62, 44
15, 144839, Note_on_c, 12, 62, 0
15, 144960, Note_on_c, 12, 61, 44
15, 145079, Note_on_c, 12, 61, 0
15, 145200, Note_on_c, 12, 62, 44
15, 145319, Note_on_c, 12, 62, 0
15, 145440, Note_on_c, 12, 61, 44
15, 145559, Note_on_c, 12, 61, 0
15, 145680, Note_on_c, 12, 62, 44
15, 145799, Note_on_c, 12, 62, 0
15, 145920, Note_on_c, 12, 61, 44
15, 146039, Note_on_c, 12, 61, 0
15, 146160, Note_on_c, 12, 62, 44
15, 146279, Note_on_c, 12, 62, 0
15, 146400, Note_on_c, 12, 61, 44
15, 146519, Note_on_c, 12, 61, 0
15, 146640, Note_on_c, 12, 62, 44
15, 146759, Note_on_c, 12, 62, 0
15, 146880, Note_on_c, 12, 61, 44
15, 146999, Note_on_c, 12, 61, 0
15, 147120, Note_on_c, 12, 62, 44
15, 147359, Note_on_c, 12, 62, 0
15, 152640, Note_on_c, 12, 55, 44
15, 152759, Note_on_c, 12, 55, 0
15, 152880, Note_on_c, 12, 55, 44
15, 152999, Note_on_c, 12, 55, 0
15, 153120, Note_on_c, 12, 56, 44
15, 153239, Note_on_c, 12, 56, 0
15, 153360, Note_on_c, 12, 55, 44
15, 153479, Note_on_c, 12, 55, 0
15, 153600, Note_on_c, 12, 56, 44
15, 153719, Note_on_c, 12, 56, 0
15, 153840, Note_on_c, 12, 55, 44
15, 153959, Note_on_c, 12, 55, 0
15, 154080, Note_on_c, 12, 56, 44
15, 154199, Note_on_c, 12, 56, 0
15, 154320, Note_on_c, 12, 55, 44
15, 154439, Note_on_c, 12, 55, 0
15, 154560, Note_on_c, 12, 56, 44
15, 154679, Note_on_c, 12, 56, 0
15, 154800, Note_on_c, 12, 55, 44
15, 154919, Note_on_c, 12, 55, 0
15, 155040, Note_on_c, 12, 56, 44
15, 155159, Note_on_c, 12, 56, 0
15, 155280, Note_on_c, 12, 55, 44
15, 155399, Note_on_c, 12, 55, 0
15, 155520, Note_on_c, 12, 56, 44
15, 155639, Note_on_c, 12, 56, 0
15, 155760, Note_on_c, 12, 55, 44
15, 155879, Note_on_c, 12, 55, 0
15, 156000, Note_on_c, 12, 56, 44
15, 156119, Note_on_c, 12, 56, 0
15, 156240, Note_on_c, 12, 55, 44
15, 156359, Note_on_c, 12, 55, 0
15, 156480, Note_on_c, 12, 56, 44
15, 156599, Note_on_c, 12, 56, 0
15, 156720, Note_on_c, 12, 55, 44
15, 156839, Note_on_c, 12, 55, 0
15, 156960, Note_on_c, 12, 58, 44
15, 157079, Note_on_c, 12, 58, 0
15, 157200, Note_on_c, 12, 58, 44
15, 157409, Note_on_c, 12, 58, 0
15, 157440, Note_on_c, 12, 58, 44
15, 157649, Note_on_c, 12, 58, 0
15, 157680, Note_on_c, 12, 58, 44
15, 157889, Note_on_c, 12, 58, 0
15, 157920, Note_on_c, 12, 58, 44
15, 158129, Note_on_c, 12, 58, 0
15, 158160, Note_on_c, 12, 58, 44
15, 158160, Note_on_c, 12, 65, 44
15, 158369, Note_on_c, 12, 58, 0
15, 158369, Note_on_c, 12, 65, 0
15, 158400, Note_on_c, 12, 58, 44
15, 158400, Note_on_c, 12, 63, 44
15, 158609, Note_on_c, 12, 58, 0
15, 158609, Note_on_c, 12, 63, 0
15, 158640, Note_on_c, 12, 58, 44
15, 158640, Note_on_c, 12, 62, 44
15, 158849, Note_on_c, 12, 58, 0
15, 158849, Note_on_c, 12, 62, 0
15, 158880, Note_on_c, 12, 65, 44
15, 159089, Note_on_c, 12, 65, 0
15, 159120, Note_on_c, 12, 63, 44
15, 159329, Note_on_c, 12, 63, 0
15, 159360, Note_on_c, 12, 62, 44
15, 159569, Note_on_c, 12, 62, 0
15, 159600, Note_on_c, 12, 65, 44
15, 159809, Note_on_c, 12, 65, 0
15, 159840, Note_on_c, 12, 63, 44
15, 160049, Note_on_c, 12, 63, 0
15, 160080, Note_on_c, 12, 62, 44
15, 160289, Note_on_c, 12, 62, 0
15, 160320, Note_on_c, 12, 74, 44
15, 160529, Note_on_c, 12, 74, 0
15, 160560, Note_on_c, 12, 75, 44
15, 160769, Note_on_c, 12, 75, 0
15, 160800, Note_on_c, 12, 77, 44
15, 161009, Note_on_c, 12, 77, 0
15, 161040, Note_on_c, 12, 72, 44
15, 161249, Note_on_c, 12, 72, 0
15, 161280, Note_on_c, 12, 74, 44
15, 161489, Note_on_c, 12, 74, 0
15, 161520, Note_on_c, 12, 75, 44
15, 161729, Note_on_c, 12, 75, 0
15, 161760, Note_on_c, 12, 70, 44
15, 161969, Note_on_c, 12, 70, 0
15, 162000, Note_on_c, 12, 72, 44
15, 162209, Note_on_c, 12, 72, 0
15, 162240, Note_on_c, 12, 65, 44
15, 162449, Note_on_c, 12, 65, 0
15, 162480, Note_on_c, 12, 69, 44
15, 162689, Note_on_c, 12, 69, 0
15, 162720, Note_on_c, 12, 70, 44
15, 162929, Note_on_c, 12, 70, 0
15, 162960, Note_on_c, 12, 67, 44
15, 163169, Note_on_c, 12, 67, 0
15, 163200, Note_on_c, 12, 67, 44
15, 163409, Note_on_c, 12, 67, 0
15, 163440, Note_on_c, 12, 69, 44
15, 163649, Note_on_c, 12, 69, 0
15, 163680, Note_on_c, 12, 70, 44
15, 163799, Note_on_c, 12, 70, 0
15, 163920, Note_on_c, 12, 72, 57
15, 164039, Note_on_c, 12, 72, 0
15, 164160, Note_on_c, 12, 74, 70
15, 164279, Note_on_c, 12, 74, 0
15, 164400, Note_on_c, 12, 75, 84
15, 164609, Note_on_c, 12, 75, 0
15, 164640, Note_on_c, 12, 67, 84
15, 164640, Note_on_c, 12, 75, 84
15, 164849, Note_on_c, 12, 67, 0
15, 164849, Note_on_c, 12, 75, 0
15, 164880, Note_on_c, 12, 75, 84
15, 164880, Note_on_c, 12, 67, 84
15, 165089, Note_on_c, 12, 75, 0
15, 165089, Note_on_c, 12, 67, 0
15, 165120, Note_on_c, 12, 67, 84
15, 165120, Note_on_c, 12, 75, 84
15, 165329, Note_on_c, 12, 67, 0
15, 165329, Note_on_c, 12, 75, 0
15, 165360, Note_on_c, 12, 67, 84
15, 165360, Note_on_c, 12, 75, 84
15, 165569, Note_on_c, 12, 67, 0
15, 165569, Note_on_c, 12, 75, 0
15, 165600, Note_on_c, 12, 75, 84
15, 165600, Note_on_c, 12, 67, 84
15, 165809, Note_on_c, 12, 75, 0
15, 165809, Note_on_c, 12, 67, 0
15, 165840, Note_on_c, 12, 67, 84
15, 165840, Note_on_c, 12, 75, 84
15, 166079, Note_on_c, 12, 67, 0
15, 166079, Note_on_c, 12, 75, 0
15, 166080, Note_on_c, 12, 77, 84
15, 166199, Note_on_c, 12, 77, 0
15, 166200, Note_on_c, 12, 75, 84
15, 166319, Note_on_c, 12, 75, 0
15, 166320, Note_on_c, 12, 74, 84
15, 166439, Note_on_c, 12, 74, 0
15, 166440, Note_on_c, 12, 72, 84
15, 166529, Note_on_c, 12, 72, 0
15, 166560, Note_on_c, 12, 70, 84
15, 167249, Note_on_c, 12, 70, 0
15, 167280, Note_on_c, 12, 68, 92
15, 167969, Note_on_c, 12, 68, 0
15, 168000, Note_on_c, 12, 67, 84
15, 168239, Note_on_c, 12, 67, 0
15, 168240, Note_on_c, 12, 70, 84
15, 168449, Note_on_c, 12, 70, 0
15, 168480, Note_on_c, 12, 67, 84
15, 168599, Note_on_c, 12, 67, 0
15, 168720, Note_on_c, 12, 65, 84
15, 168959, Note_on_c, 12, 65, 0
15, 168960, Note_on_c, 12, 70, 84
15, 169169, Note_on_c, 12, 70, 0
15, 169200, Note_on_c, 12, 65, 84
15, 169319, Note_on_c, 12, 65, 0
15, 169440, Note_on_c, 12, 63, 84
15, 169559, Note_on_c, 12, 63, 0
15, 169680, Note_on_c, 12, 67, 84
15, 169799, Note_on_c, 12, 67, 0
15, 169920, Note_on_c, 12, 70, 84
15, 170039, Note_on_c, 12, 70, 0
15, 170160, Note_on_c, 12, 68, 92
15, 170849, Note_on_c, 12, 68, 0
15, 170880, Note_on_c, 12, 67, 84
15, 171119, Note_on_c, 12, 67, 0
15, 171120, Note_on_c, 12, 70, 84
15, 171329, Note_on_c, 12, 70, 0
15, 171360, Note_on_c, 12, 67, 84
15, 171479, Note_on_c, 12, 67, 0
15, 171600, Note_on_c, 12, 65, 84
15, 171839, Note_on_c, 12, 65, 0
15, 171840, Note_on_c, 12, 70, 84
15, 172049, Note_on_c, 12, 70, 0
15, 172080, Note_on_c, 12, 65, 84
15, 172199, Note_on_c, 12, 65, 0
15, 172320, Note_on_c, 12, 63, 84
15, 172439, Note_on_c, 12, 63, 0
15, 172560, Note_on_c, 12, 67, 84
15, 172679, Note_on_c, 12, 67, 0
15, 172800, Note_on_c, 12, 70, 84
15, 172919, Note_on_c, 12, 70, 0
15, 173040, Note_on_c, 12, 73, 92
15, 173729, Note_on_c, 12, 73, 0
15, 173760, Note_on_c, 12, 72, 84
15, 173999, Note_on_c, 12, 72, 0
15, 174000, Note_on_c, 12, 75, 84
15, 174209, Note_on_c, 12, 75, 0
15, 174240, Note_on_c, 12, 72, 84
15, 174359, Note_on_c, 12, 72, 0
15, 174480, Note_on_c, 12, 70, 84
15, 174719, Note_on_c, 12, 70, 0
15, 174720, Note_on_c, 12, 75, 84
15, 174929, Note_on_c, 12, 75, 0
15, 174960, Note_on_c, 12, 70, 84
15, 175079, Note_on_c, 12, 70, 0
15, 175200, Note_on_c, 12, 68, 84
15, 175319, Note_on_c, 12, 68, 0
15, 175440, Note_on_c, 12, 72, 84
15, 175559, Note_on_c, 12, 72, 0
15, 175680, Note_on_c, 12, 75, 84
15, 175799, Note_on_c, 12, 75, 0
15, 175920, Note_on_c, 12, 73, 92
15, 176609, Note_on_c, 12, 73, 0
15, 176640, Note_on_c, 12, 72, 84
15, 176879, Note_on_c, 12, 72, 0
15, 176880, Note_on_c, 12, 75, 84
15, 177089, Note_on_c, 12, 75, 0
15, 177120, Note_on_c, 12, 72, 84
15, 177239, Note_on_c, 12, 72, 0
15, 177360, Note_on_c, 12, 75, 84
15, 177479, Note_on_c, 12, 75, 0
15, 177600, Note_on_c, 12, 70, 84
15, 177719, Note_on_c, 12, 70, 0
15, 177840, Note_on_c, 12, 75, 84
15, 177959, Note_on_c, 12, 75, 0
15, 178080, Note_on_c, 12, 68, 84
15, 178199, Note_on_c, 12, 68, 0
15, 178320, Note_on_c, 12, 75, 84
15, 178439, Note_on_c, 12, 75, 0
15, 178560, Note_on_c, 12, 68, 84
15, 178679, Note_on_c, 12, 68, 0
15, 178800, Note_on_c, 12, 75, 84
15, 178919, Note_on_c, 12, 75, 0
15, 179040, Note_on_c, 12, 67, 84
15, 179159, Note_on_c, 12, 67, 0
15, 179280, Note_on_c, 12, 75, 84
15, 179399, Note_on_c, 12, 75, 0
15, 179520, Note_on_c, 12, 65, 84
15, 179639, Note_on_c, 12, 65, 0
15, 179760, Note_on_c, 12, 74, 84
15, 179879, Note_on_c, 12, 74, 0
15, 180000, Note_on_c, 12, 65, 84
15, 180119, Note_on_c, 12, 65, 0
15, 180240, Note_on_c, 12, 75, 84
15, 180240, Note_on_c, 12, 67, 84
15, 180359, Note_on_c, 12, 75, 0
15, 180359, Note_on_c, 12, 67, 0
15, 180480, Note_on_c, 12, 79, 92
15, 180839, Note_on_c, 12, 79, 0
15, 180960, Note_on_c, 12, 75, 84
15, 181079, Note_on_c, 12, 75, 0
15, 181200, Note_on_c, 12, 70, 92
15, 181559, Note_on_c, 12, 70, 0
15, 181680, Note_on_c, 12, 67, 84
15, 181799, Note_on_c, 12, 67, 0
15, 181920, Note_on_c, 12, 63, 92
15, 182279, Note_on_c, 12, 63, 0
15, 182400, Note_on_c, 12, 58, 84
15, 182639, Note_on_c, 12, 58, 0
15, 182880, Note_on_c, 12, 56, 84
15, 182939, Note_on_c, 12, 56, 0
15, 182940, Note_on_c, 12, 58, 84
15, 182999, Note_on_c, 12, 58, 0
15, 183000, Note_on_c, 12, 55, 84
15, 183059, Note_on_c, 12, 55, 0
15, 183060, Note_on_c, 12, 56, 84
15, 183119, Note_on_c, 12, 56, 0
15, 183120, Note_on_c, 12, 55, 84
15, 183359, Note_on_c, 12, 55, 0
15, 184800, Note_on_c, 12, 63, 52
15, 185039, Note_on_c, 12, 63, 0
15, 185040, Note_on_c, 12, 63, 52
15, 185249, Note_on_c, 12, 63, 0
15, 185280, Note_on_c, 12, 65, 52
15, 185489, Note_on_c, 12, 65, 0
15, 185520, Note_on_c, 12, 65, 52
15, 185729, Note_on_c, 12, 65, 0
15, 185760, Note_on_c, 12, 65, 52
15, 185969, Note_on_c, 12, 65, 0
15, 186000, Note_on_c, 12, 58, 76
15, 186119, Note_on_c, 12, 58, 0
15, 186240, Note_on_c, 12, 79, 84
15, 186689, Note_on_c, 12, 79, 0
15, 186720, Note_on_c, 12, 75, 76
15, 186929, Note_on_c, 12, 75, 0
15, 186960, Note_on_c, 12, 70, 84
15, 187409, Note_on_c, 12, 70, 0
15, 187440, Note_on_c, 12, 67, 76
15, 187649, Note_on_c, 12, 67, 0
15, 187680, Note_on_c, 12, 63, 84
15, 188129, Note_on_c, 12, 63, 0
15, 188160, Note_on_c, 12, 58, 76
15, 188399, Note_on_c, 12, 58, 0
15, 188640, Note_on_c, 12, 56, 76
15, 188699, Note_on_c, 12, 56, 0
15, 188700, Note_on_c, 12, 58, 76
15, 188759, Note_on_c, 12, 58, 0
15, 188760, Note_on_c, 12, 55, 76
15, 188819, Note_on_c, 12, 55, 0
15, 188820, Note_on_c, 12, 56, 76
15, 188879, Note_on_c, 12, 56, 0
15, 188880, Note_on_c, 12, 55, 76
15, 189119, Note_on_c, 12, 55, 0
15, 190560, Note_on_c, 12, 73, 52
15, 190679, Note_on_c, 12, 73, 0
15, 190800, Note_on_c, 12, 72, 52
15, 190919, Note_on_c, 12, 72, 0
15, 191040, Note_on_c, 12, 73, 52
15, 191159, Note_on_c, 12, 73, 0
15, 191280, Note_on_c, 12, 72, 52
15, 191399, Note_on_c, 12, 72, 0
15, 191520, Note_on_c, 12, 73, 52
15, 191639, Note_on_c, 12, 73, 0
15, 191760, Note_on_c, 12, 72, 52
15, 191999, Note_on_c, 12, 72, 0
15, 193440, Note_on_c, 12, 71, 52
15, 193559, Note_on_c, 12, 71, 0
15, 193680, Note_on_c, 12, 70, 52
15, 193799, Note_on_c, 12, 70, 0
15, 193920, Note_on_c, 12, 71, 52
15, 194039, Note_on_c, 12, 71, 0
15, 194160, Note_on_c, 12, 70, 52
15, 194279, Note_on_c, 12, 70, 0
15, 194400, Note_on_c, 12, 71, 52
15, 194519, Note_on_c, 12, 71, 0
15, 194640, Note_on_c, 12, 70, 52
15, 194759, Note_on_c, 12, 70, 0
15, 196320, Note_on_c, 12, 71, 52
15, 196439, Note_on_c, 12, 71, 0
15, 196560, Note_on_c, 12, 70, 52
15, 196679, Note_on_c, 12, 70, 0
15, 196800, Note_on_c, 12, 71, 52
15, 196919, Note_on_c, 12, 71, 0
15, 197040, Note_on_c, 12, 70, 52
15, 197159, Note_on_c, 12, 70, 0
15, 197280, Note_on_c, 12, 71, 52
15, 197399, Note_on_c, 12, 71, 0
15, 197520, Note_on_c, 12, 70, 52
15, 197639, Note_on_c, 12, 70, 0
15, 199200, Note_on_c, 12, 60, 52
15, 199319, Note_on_c, 12, 60, 0
15, 199440, Note_on_c, 12, 58, 52
15, 199559, Note_on_c, 12, 58, 0
15, 199680, Note_on_c, 12, 60, 52
15, 199799, Note_on_c, 12, 60, 0
15, 199920, Note_on_c, 12, 58, 52
15, 200039, Note_on_c, 12, 58, 0
15, 200160, Note_on_c, 12, 60, 52
15, 200279, Note_on_c, 12, 60, 0
15, 200400, Note_on_c, 12, 58, 52
15, 200489, Note_on_c, 12, 58, 0
15, 200520, Note_on_c, 12, 58, 52
15, 200609, Note_on_c, 12, 58, 0
15, 200640, Note_on_c, 12, 58, 52
15, 200729, Note_on_c, 12, 58, 0
15, 200760, Note_on_c, 12, 58, 52
15, 200849, Note_on_c, 12, 58, 0
15, 200880, Note_on_c, 12, 59, 52
15, 200969, Note_on_c, 12, 59, 0
15, 201000, Note_on_c, 12, 59, 52
15, 201089, Note_on_c, 12, 59, 0
15, 201120, Note_on_c, 12, 60, 52
15, 201209, Note_on_c, 12, 60, 0
15, 201240, Note_on_c, 12, 60, 52
15, 201329, Note_on_c, 12, 60, 0
15, 201360, Note_on_c, 12, 62, 52
15, 201449, Note_on_c, 12, 62, 0
15, 201480, Note_on_c, 12, 62, 52
15, 201569, Note_on_c, 12, 62, 0
15, 201600, Note_on_c, 12, 63, 52
15, 201689, Note_on_c, 12, 63, 0
15, 201720, Note_on_c, 12, 63, 52
15, 201809, Note_on_c, 12, 63, 0
15, 201840, Note_on_c, 12, 65, 52
15, 201929, Note_on_c, 12, 65, 0
15, 201960, Note_on_c, 12, 65, 52
15, 202049, Note_on_c, 12, 65, 0
15, 202080, Note_on_c, 12, 60, 52
15, 202169, Note_on_c, 12, 60, 0
15, 202200, Note_on_c, 12, 60, 52
15, 202289, Note_on_c, 12, 60, 0
15, 202320, Note_on_c, 12, 61, 52
15, 202409, Note_on_c, 12, 61, 0
15, 202440, Note_on_c, 12, 61, 52
15, 202529, Note_on_c, 12, 61, 0
15, 202560, Note_on_c, 12, 62, 52
15, 202649, Note_on_c, 12, 62, 0
15, 202680, Note_on_c, 12, 62, 52
15, 202769, Note_on_c, 12, 62, 0
15, 202800, Note_on_c, 12, 64, 52
15, 202889, Note_on_c, 12, 64, 0
15, 202920, Note_on_c, 12, 64, 52
15, 203009, Note_on_c, 12, 64, 0
15, 203040, Note_on_c, 12, 65, 52
15, 203129, Note_on_c, 12, 65, 0
15, 203160, Note_on_c, 12, 65, 52
15, 203249, Note_on_c, 12, 65, 0
15, 203280, Note_on_c, 12, 67, 52
15, 203369, Note_on_c, 12, 67, 0
15, 203400, Note_on_c, 12, 67, 52
15, 203489, Note_on_c, 12, 67, 0
15, 203520, Note_on_c, 12, 61, 52
15, 203609, Note_on_c, 12, 61, 0
15, 203640, Note_on_c, 12, 61, 52
15, 203729, Note_on_c, 12, 61, 0
15, 203760, Note_on_c, 12, 62, 52
15, 203849, Note_on_c, 12, 62, 0
15, 203880, Note_on_c, 12, 62, 52
15, 203969, Note_on_c, 12, 62, 0
15, 204000, Note_on_c, 12, 63, 52
15, 204089, Note_on_c, 12, 63, 0
15, 204120, Note_on_c, 12, 63, 52
15, 204209, Note_on_c, 12, 63, 0
15, 204240, Note_on_c, 12, 65, 52
15, 204329, Note_on_c, 12, 65, 0
15, 204360, Note_on_c, 12, 65, 52
15, 204449, Note_on_c, 12, 65, 0
15, 204480, Note_on_c, 12, 67, 52
15, 204569, Note_on_c, 12, 67, 0
15, 204600, Note_on_c, 12, 67, 52
15, 204689, Note_on_c, 12, 67, 0
15, 204720, Note_on_c, 12, 68, 52
15, 204809, Note_on_c, 12, 68, 0
15, 204840, Note_on_c, 12, 68, 52
15, 204929, Note_on_c, 12, 68, 0
15, 204960, Note_on_c, 12, 64, 52
15, 205049, Note_on_c, 12, 64, 0
15, 205080, Note_on_c, 12, 64, 52
15, 205169, Note_on_c, 12, 64, 0
15, 205200, Note_on_c, 12, 65, 52
15, 205289, Note_on_c, 12, 65, 0
15, 205320, Note_on_c, 12, 65, 52
15, 205409, Note_on_c, 12, 65, 0
15, 205440, Note_on_c, 12, 62, 52
15, 205529, Note_on_c, 12, 62, 0
15, 205560, Note_on_c, 12, 62, 52
15, 205649, Note_on_c, 12, 62, 0
15, 205680, Note_on_c, 12, 80, 52
15, 205769, Note_on_c, 12, 80, 0
15, 205800, Note_on_c, 12, 80, 52
15, 205889, Note_on_c, 12, 80, 0
15, 205920, Note_on_c, 12, 74, 52
15, 206009, Note_on_c, 12, 74, 0
15, 206040, Note_on_c, 12, 74, 52
15, 206129, Note_on_c, 12, 74, 0
15, 206160, Note_on_c, 12, 75, 52
15, 206279, Note_on_c, 12, 75, 0
15, 206400, Note_on_c, 12, 70, 52
15, 206519, Note_on_c, 12, 70, 0
15, 206640, Note_on_c, 12, 65, 52
15, 206759, Note_on_c, 12, 65, 0
15, 206880, Note_on_c, 12, 67, 52
15, 206999, Note_on_c, 12, 67, 0
15, 207120, Note_on_c, 12, 67, 52
15, 207239, Note_on_c, 12, 67, 0
15, 207360, Note_on_c, 12, 67, 52
15, 207479, Note_on_c, 12, 67, 0
15, 207600, Note_on_c, 12, 60, 52
15, 207719, Note_on_c, 12, 60, 0
15, 207840, Note_on_c, 12, 72, 52
15, 207959, Note_on_c, 12, 72, 0
15, 208080, Note_on_c, 12, 67, 52
15, 208199, Note_on_c, 12, 67, 0
15, 208320, Note_on_c, 12, 68, 52
15, 208439, Note_on_c, 12, 68, 0
15, 208560, Note_on_c, 12, 56, 52
15, 208679, Note_on_c, 12, 56, 0
15, 208800, Note_on_c, 12, 68, 52
15, 208919, Note_on_c, 12, 68, 0
15, 209040, Note_on_c, 12, 62, 52
15, 209159, Note_on_c, 12, 62, 0
15, 209280, Note_on_c, 12, 67, 54
15, 209399, Note_on_c, 12, 67, 0
15, 209520, Note_on_c, 12, 58, 57
15, 209639, Note_on_c, 12, 58, 0
15, 209760, Note_on_c, 12, 70, 60
15, 209879, Note_on_c, 12, 70, 0
15, 210000, Note_on_c, 12, 58, 62
15, 210119, Note_on_c, 12, 58, 0
15, 210240, Note_on_c, 12, 70, 65
15, 210359, Note_on_c, 12, 70, 0
15, 210480, Note_on_c, 12, 63, 68
15, 210599, Note_on_c, 12, 63, 0
15, 210720, Note_on_c, 12, 72, 70
15, 210839, Note_on_c, 12, 72, 0
15, 210960, Note_on_c, 12, 72, 73
15, 211079, Note_on_c, 12, 72, 0
15, 211200, Note_on_c, 12, 74, 76
15, 211319, Note_on_c, 12, 74, 0
15, 211440, Note_on_c, 12, 65, 78
15, 211559, Note_on_c, 12, 65, 0
15, 211680, Note_on_c, 12, 65, 81
15, 211799, Note_on_c, 12, 65, 0
15, 211920, Note_on_c, 12, 62, 84
15, 212009, Note_on_c, 12, 62, 0
15, 212040, Note_on_c, 12, 62, 84
15, 212129, Note_on_c, 12, 62, 0
15, 212160, Note_on_c, 12, 68, 84
15, 212249, Note_on_c, 12, 68, 0
15, 212280, Note_on_c, 12, 68, 84
15, 212369, Note_on_c, 12, 68, 0
15, 212400, Note_on_c, 12, 65, 84
15, 212489, Note_on_c, 12, 65, 0
15, 212520, Note_on_c, 12, 65, 84
15, 212609, Note_on_c, 12, 65, 0
15, 212640, Note_on_c, 12, 62, 84
15, 212729, Note_on_c, 12, 62, 0
15, 212760, Note_on_c, 12, 62, 84
15, 212849, Note_on_c, 12, 62, 0
15, 212880, Note_on_c, 12, 77, 84
15, 212969, Note_on_c, 12, 77, 0
15, 213000, Note_on_c, 12, 77, 84
15, 213089, Note_on_c, 12, 77, 0
15, 213120, Note_on_c, 12, 74, 84
15, 213209, Note_on_c, 12, 74, 0
15, 213240, Note_on_c, 12, 74, 84
15, 213329, Note_on_c, 12, 74, 0
15, 213360, Note_on_c, 12, 65, 84
15, 213449, Note_on_c, 12, 65, 0
15, 213480, Note_on_c, 12, 65, 84
15, 213569, Note_on_c, 12, 65, 0
15, 213600, Note_on_c, 12, 80, 84
15, 213689, Note_on_c, 12, 80, 0
15, 213720, Note_on_c, 12, 80, 84
15, 213809, Note_on_c, 12, 80, 0
15, 213840, Note_on_c, 12, 77, 84
15, 213929, Note_on_c, 12, 77, 0
15, 213960, Note_on_c, 12, 77, 84
15, 214049, Note_on_c, 12, 77, 0
15, 214080, Note_on_c, 12, 74, 84
15, 214169, Note_on_c, 12, 74, 0
15, 214200, Note_on_c, 12, 74, 84
15, 214289, Note_on_c, 12, 74, 0
15, 214320, Note_on_c, 12, 75, 84
15, 214409, Note_on_c, 12, 75, 0
15, 214440, Note_on_c, 12, 75, 84
15, 214529, Note_on_c, 12, 75, 0
15, 214560, Note_on_c, 12, 77, 84
15, 214649, Note_on_c, 12, 77, 0
15, 214680, Note_on_c, 12, 77, 84
15, 214769, Note_on_c, 12, 77, 0
15, 214800, Note_on_c, 12, 67, 76
15, 215039, Note_on_c, 12, 67, 0
15, 215520, Note_on_c, 12, 58, 76
15, 215520, Note_on_c, 12, 74, 76
15, 215520, Note_on_c, 12, 65, 76
15, 215759, Note_on_c, 12, 58, 0
15, 215759, Note_on_c, 12, 74, 0
15, 215759, Note_on_c, 12, 65, 0
15, 216240, Note_on_c, 12, 63, 76
15, 216240, Note_on_c, 12, 55, 76
15, 216240, Note_on_c, 12, 75, 76
15, 216479, Note_on_c, 12, 63, 0
15, 216479, Note_on_c, 12, 55, 0
15, 216479, Note_on_c, 12, 75, 0
15, 222240, Note_on_c, 12, 63, 52
15, 222449, Note_on_c, 12, 63, 0
15, 222480, Note_on_c, 12, 63, 52
15, 222689, Note_on_c, 12, 63, 0
15, 222720, Note_on_c, 12, 62, 52
15, 222959, Note_on_c, 12, 62, 0
15, 228000, Note_on_c, 12, 68, 52
15, 228209, Note_on_c, 12, 68, 0
15, 228240, Note_on_c, 12, 65, 52
15, 228449, Note_on_c, 12, 65, 0
15, 228480, Note_on_c, 12, 67, 52
15, 228719, Note_on_c, 12, 67, 0
15, 233760, Note_on_c, 12, 63, 52
15, 233969, Note_on_c, 12, 63, 0
15, 234000, Note_on_c, 12, 63, 52
15, 234209, Note_on_c, 12, 63, 0
15, 234240, Note_on_c, 12, 62, 52
15, 234479, Note_on_c, 12, 62, 0
15, 238800, Note_on_c, 12, 65, 52
15, 239009, Note_on_c, 12, 65, 0
15, 239040, Note_on_c, 12, 65, 52
15, 239249, Note_on_c, 12, 65, 0
15, 239280, Note_on_c, 12, 63, 52
15, 239519, Note_on_c, 12, 63, 0
15, 239760, Note_on_c, 12, 63, 76
15, 239879, Note_on_c, 12, 63, 0
15, 240000, Note_on_c, 12, 68, 76
15, 240239, Note_on_c, 12, 68, 0
15, 240240, Note_on_c, 12, 63, 76
15, 240449, Note_on_c, 12, 63, 0
15, 240480, Note_on_c, 12, 72, 76
15, 240599, Note_on_c, 12, 72, 0
15, 240720, Note_on_c, 12, 70, 76
15, 240959, Note_on_c, 12, 70, 0
15, 240960, Note_on_c, 12, 63, 76
15, 241169, Note_on_c, 12, 63, 0
15, 241200, Note_on_c, 12, 73, 76
15, 241319, Note_on_c, 12, 73, 0
15, 241440, Note_on_c, 12, 67, 76
15, 241679, Note_on_c, 12, 67, 0
15, 241680, Note_on_c, 12, 63, 76
15, 241889, Note_on_c, 12, 63, 0
15, 241920, Note_on_c, 12, 70, 76
15, 242039, Note_on_c, 12, 70, 0
15, 242160, Note_on_c, 12, 68, 76
15, 242399, Note_on_c, 12, 68, 0
15, 242640, Note_on_c, 12, 60, 76
15, 242759, Note_on_c, 12, 60, 0
15, 242880, Note_on_c, 12, 65, 76
15, 243119, Note_on_c, 12, 65, 0
15, 243120, Note_on_c, 12, 60, 76
15, 243329, Note_on_c, 12, 60, 0
15, 243360, Note_on_c, 12, 68, 76
15, 243479, Note_on_c, 12, 68, 0
15, 243600, Note_on_c, 12, 67, 76
15, 243839, Note_on_c, 12, 67, 0
15, 243840, Note_on_c, 12, 60, 76
15, 244049, Note_on_c, 12, 60, 0
15, 244080, Note_on_c, 12, 70, 76
15, 244199, Note_on_c, 12, 70, 0
15, 244320, Note_on_c, 12, 64, 76
15, 244559, Note_on_c, 12, 64, 0
15, 244560, Note_on_c, 12, 60, 76
15, 244769, Note_on_c, 12, 60, 0
15, 244800, Note_on_c, 12, 67, 76
15, 244919, Note_on_c, 12, 67, 0
15, 245040, Note_on_c, 12, 65, 76
15, 245279, Note_on_c, 12, 65, 0
15, 254640, Note_on_c, 12, 67, 52
15, 254879, Note_on_c, 12, 67, 0
15, 254880, Note_on_c, 12, 65, 52
15, 255119, Note_on_c, 12, 65, 0
15, 255120, Note_on_c, 12, 68, 52
15, 255359, Note_on_c, 12, 68, 0
15, 255360, Note_on_c, 12, 65, 52
15, 255599, Note_on_c, 12, 65, 0
15, 255600, Note_on_c, 12, 63, 52
15, 255839, Note_on_c, 12, 63, 0
15, 255840, Note_on_c, 12, 62, 52
15, 256079, Note_on_c, 12, 62, 0
15, 256800, Note_on_c, 12, 68, 52
15, 257039, Note_on_c, 12, 68, 0
15, 257040, Note_on_c, 12, 65, 54
15, 257279, Note_on_c, 12, 65, 0
15, 257280, Note_on_c, 12, 62, 57
15, 257519, Note_on_c, 12, 62, 0
15, 258240, Note_on_c, 12, 68, 68
15, 258479, Note_on_c, 12, 68, 0
15, 258480, Note_on_c, 12, 65, 70
15, 258719, Note_on_c, 12, 65, 0
15, 258720, Note_on_c, 12, 62, 73
15, 258929, Note_on_c, 12, 62, 0
15, 258960, Note_on_c, 12, 70, 76
15, 259199, Note_on_c, 12, 70, 0
15, 259200, Note_on_c, 12, 67, 76
15, 259439, Note_on_c, 12, 67, 0
15, 259440, Note_on_c, 12, 63, 76
15, 259679, Note_on_c, 12, 63, 0
15, 264000, Note_on_c, 12, 63, 52
15, 264209, Note_on_c, 12, 63, 0
15, 264240, Note_on_c, 12, 63, 52
15, 264449, Note_on_c, 12, 63, 0
15, 264480, Note_on_c, 12, 62, 52
15, 264719, Note_on_c, 12, 62, 0
15, 270000, Note_on_c, 12, 60, 52
15, 270239, Note_on_c, 12, 60, 0
15, 270240, Note_on_c, 12, 60, 76
15, 270480, Control_c, 12, 11, 112
15, 270580, Control_c, 12, 11, 109
15, 270680, Control_c, 12, 11, 107
15, 270780, Control_c, 12, 11, 104
15, 270880, Control_c, 12, 11, 101
15, 270980, Control_c, 12, 11, 99
15, 271080, Control_c, 12, 11, 96
15, 271180, Control_c, 12, 11, 93
15, 271280, Control_c, 12, 11, 91
15, 271380, Control_c, 12, 11, 88
15, 271480, Control_c, 12, 11, 85
15, 271580, Control_c, 12, 11, 80
15, 271679, Note_on_c, 12, 60, 0
15, 271680, Note_on_c, 12, 58, 76
15, 272159, Note_on_c, 12, 58, 0
15, 272160, Note_on_c, 12, 62, 76
15, 272399, Note_on_c, 12, 62, 0
15, 272400, Note_on_c, 12, 63, 76
15, 272639, Note_on_c, 12, 63, 0
15, 275280, Control_c, 12, 11, 127
15, 275760, Note_on_c, 12, 60, 44
15, 275999, Note_on_c, 12, 60, 0
15, 276000, Note_on_c, 12, 60, 44
15, 277169, Note_on_c, 12, 60, 0
15, 277200, Note_on_c, 12, 60, 44
15, 277439, Note_on_c, 12, 60, 0
15, 277440, Note_on_c, 12, 61, 44
15, 278399, Note_on_c, 12, 61, 0
15, 283440, Note_on_c, 12, 62, 44
15, 283649, Note_on_c, 12, 62, 0
15, 283680, Note_on_c, 12, 62, 44
15, 283889, Note_on_c, 12, 62, 0
15, 283920, Note_on_c, 12, 63, 44
15, 284159, Note_on_c, 12, 63, 0
15, 284400, Note_on_c, 12, 63, 76
15, 284519, Note_on_c, 12, 63, 0
15, 284640, Note_on_c, 12, 68, 76
15, 284879, Note_on_c, 12, 68, 0
15, 284880, Note_on_c, 12, 63, 76
15, 285089, Note_on_c, 12, 63, 0
15, 285120, Note_on_c, 12, 72, 76
15, 285239, Note_on_c, 12, 72, 0
15, 285360, Note_on_c, 12, 70, 76
15, 285599, Note_on_c, 12, 70, 0
15, 285600, Note_on_c, 12, 63, 76
15, 285809, Note_on_c, 12, 63, 0
15, 285840, Note_on_c, 12, 73, 76
15, 285959, Note_on_c, 12, 73, 0
15, 286080, Note_on_c, 12, 67, 76
15, 286319, Note_on_c, 12, 67, 0
15, 286320, Note_on_c, 12, 63, 76
15, 286529, Note_on_c, 12, 63, 0
15, 286560, Note_on_c, 12, 70, 76
15, 286679, Note_on_c, 12, 70, 0
15, 286800, Note_on_c, 12, 68, 76
15, 287039, Note_on_c, 12, 68, 0
15, 287280, Note_on_c, 12, 60, 76
15, 287399, Note_on_c, 12, 60, 0
15, 287520, Note_on_c, 12, 65, 76
15, 287759, Note_on_c, 12, 65, 0
15, 287760, Note_on_c, 12, 60, 76
15, 287969, Note_on_c, 12, 60, 0
15, 288000, Note_on_c, 12, 68, 76
15, 288119, Note_on_c, 12, 68, 0
15, 288240, Note_on_c, 12, 67, 76
15, 288479, Note_on_c, 12, 67, 0
15, 288480, Note_on_c, 12, 60, 76
15, 288689, Note_on_c, 12, 60, 0
15, 288720, Note_on_c, 12, 70, 76
15, 288839, Note_on_c, 12, 70, 0
15, 288960, Note_on_c, 12, 64, 76
15, 289199, Note_on_c, 12, 64, 0
15, 289200, Note_on_c, 12, 60, 76
15, 289409, Note_on_c, 12, 60, 0
15, 289440, Note_on_c, 12, 67, 76
15, 289559, Note_on_c, 12, 67, 0
15, 289680, Note_on_c, 12, 65, 76
15, 289919, Note_on_c, 12, 65, 0
15, 299280, Note_on_c, 12, 67, 52
15, 299519, Note_on_c, 12, 67, 0
15, 299520, Note_on_c, 12, 65, 52
15, 299759, Note_on_c, 12, 65, 0
15, 299760, Note_on_c, 12, 68, 52
15, 299999, Note_on_c, 12, 68, 0
15, 300000, Note_on_c, 12, 65, 52
15, 300239, Note_on_c, 12, 65, 0
15, 300240, Note_on_c, 12, 63, 52
15, 300479, Note_on_c, 12, 63, 0
15, 300480, Note_on_c, 12, 62, 52
15, 300719, Note_on_c, 12, 62, 0
15, 301440, Note_on_c, 12, 68, 52
15, 301679, Note_on_c, 12, 68, 0
15, 301680, Note_on_c, 12, 65, 54
15, 301919, Note_on_c, 12, 65, 0
15, 301920, Note_on_c, 12, 62, 57
15, 302159, Note_on_c, 12, 62, 0
15, 302880, Note_on_c, 12, 68, 68
15, 303119, Note_on_c, 12, 68, 0
15, 303120, Note_on_c, 12, 65, 70
15, 303359, Note_on_c, 12, 65, 0
15, 303360, Note_on_c, 12, 62, 73
15, 303569, Note_on_c, 12, 62, 0
15, 303600, Note_on_c, 12, 70, 76
15, 303839, Note_on_c, 12, 70, 0
15, 303840, Note_on_c, 12, 67, 76
15, 304079, Note_on_c, 12, 67, 0
15, 304080, Note_on_c, 12, 63, 76
15, 304319, Note_on_c, 12, 63, 0
15, 308640, Note_on_c, 12, 63, 52
15, 308849, Note_on_c, 12, 63, 0
15, 308880, Note_on_c, 12, 63, 52
15, 309089, Note_on_c, 12, 63, 0
15, 309120, Note_on_c, 12, 62, 52
15, 309359, Note_on_c, 12, 62, 0
15, 314640, Note_on_c, 12, 60, 52
15, 314879, Note_on_c, 12, 60, 0
15, 314880, Note_on_c, 12, 60, 76
15, 315120, Control_c, 12, 11, 112
15, 315220, Control_c, 12, 11, 109
15, 315320, Control_c, 12, 11, 107
15, 315420, Control_c, 12, 11, 104
15, 315520, Control_c, 12, 11, 101
15, 315620, Control_c, 12, 11, 99
15, 315720, Control_c, 12, 11, 96
15, 315820, Control_c, 12, 11, 93
15, 315920, Control_c, 12, 11, 91
15, 316020, Control_c, 12, 11, 88
15, 316120, Control_c, 12, 11, 85
15, 316220, Control_c, 12, 11, 80
15, 316319, Note_on_c, 12, 60, 0
15, 316320, Note_on_c, 12, 58, 76
15, 316799, Note_on_c, 12, 58, 0
15, 316800, Note_on_c, 12, 62, 76
15, 317039, Note_on_c, 12, 62, 0
15, 317040, Note_on_c, 12, 63, 76
15, 317279, Note_on_c, 12, 63, 0
15, 319920, Control_c, 12, 11, 127
15, 320400, Note_on_c, 12, 60, 44
15, 320639, Note_on_c, 12, 60, 0
15, 320640, Note_on_c, 12, 60, 44
15, 321809, Note_on_c, 12, 60, 0
15, 321840, Note_on_c, 12, 60, 44
15, 322079, Note_on_c, 12, 60, 0
15, 322080, Note_on_c, 12, 61, 44
15, 323039, Note_on_c, 12, 61, 0
15, 328320, Note_on_c, 12, 58, 44
15, 328439, Note_on_c, 12, 58, 0
15, 328560, Note_on_c, 12, 58, 44
15, 328679, Note_on_c, 12, 58, 0
15, 328800, Note_on_c, 12, 60, 44
15, 328919, Note_on_c, 12, 60, 0
15, 329040, Note_on_c, 12, 58, 44
15, 329159, Note_on_c, 12, 58, 0
15, 329280, Note_on_c, 12, 60, 44
15, 329399, Note_on_c, 12, 60, 0
15, 329520, Note_on_c, 12, 58, 44
15, 329639, Note_on_c, 12, 58, 0
15, 329760, Note_on_c, 12, 60, 44
15, 329879, Note_on_c, 12, 60, 0
15, 330000, Note_on_c, 12, 58, 44
15, 330119, Note_on_c, 12, 58, 0
15, 330240, Note_on_c, 12, 60, 44
15, 330359, Note_on_c, 12, 60, 0
15, 330480, Note_on_c, 12, 58, 44
15, 330599, Note_on_c, 12, 58, 0
15, 330720, Note_on_c, 12, 60, 44
15, 330839, Note_on_c, 12, 60, 0
15, 330960, Note_on_c, 12, 58, 44
15, 331079, Note_on_c, 12, 58, 0
15, 331200, Note_on_c, 12, 56, 44
15, 331319, Note_on_c, 12, 56, 0
15, 331440, Note_on_c, 12, 58, 44
15, 331559, Note_on_c, 12, 58, 0
15, 331680, Note_on_c, 12, 58, 44
15, 331799, Note_on_c, 12, 58, 0
15, 331920, Note_on_c, 12, 58, 44
15, 332039, Note_on_c, 12, 58, 0
15, 332160, Note_on_c, 12, 58, 44
15, 332279, Note_on_c, 12, 58, 0
15, 332400, Note_on_c, 12, 65, 44
15, 332519, Note_on_c, 12, 65, 0
15, 332640, Note_on_c, 12, 63, 44
15, 332759, Note_on_c, 12, 63, 0
15, 332880, Note_on_c, 12, 62, 44
15, 332999, Note_on_c, 12, 62, 0
15, 333120, Note_on_c, 12, 65, 44
15, 333239, Note_on_c, 12, 65, 0
15, 333360, Note_on_c, 12, 63, 44
15, 333479, Note_on_c, 12, 63, 0
15, 333600, Note_on_c, 12, 62, 44
15, 333719, Note_on_c, 12, 62, 0
15, 333840, Note_on_c, 12, 65, 44
15, 333959, Note_on_c, 12, 65, 0
15, 334080, Note_on_c, 12, 63, 44
15, 334199, Note_on_c, 12, 63, 0
15, 334320, Note_on_c, 12, 62, 44
15, 334439, Note_on_c, 12, 62, 0
15, 334560, Note_on_c, 12, 62, 44
15, 334679, Note_on_c, 12, 62, 0
15, 334800, Note_on_c, 12, 63, 44
15, 334919, Note_on_c, 12, 63, 0
15, 335040, Note_on_c, 12, 65, 44
15, 335159, Note_on_c, 12, 65, 0
15, 335280, Note_on_c, 12, 60, 44
15, 335399, Note_on_c, 12, 60, 0
15, 335520, Note_on_c, 12, 62, 44
15, 335639, Note_on_c, 12, 62, 0
15, 335760, Note_on_c, 12, 63, 44
15, 335879, Note_on_c, 12, 63, 0
15, 336000, Note_on_c, 12, 70, 44
15, 336119, Note_on_c, 12, 70, 0
15, 336240, Note_on_c, 12, 72, 44
15, 336359, Note_on_c, 12, 72, 0
15, 336480, Note_on_c, 12, 74, 44
15, 336599, Note_on_c, 12, 74, 0
15, 336720, Note_on_c, 12, 69, 44
15, 336839, Note_on_c, 12, 69, 0
15, 336960, Note_on_c, 12, 70, 44
15, 337079, Note_on_c, 12, 70, 0
15, 337200, Note_on_c, 12, 67, 44
15, 337319, Note_on_c, 12, 67, 0
15, 337440, Note_on_c, 12, 67, 44
15, 337559, Note_on_c, 12, 67, 0
15, 337680, Note_on_c, 12, 63, 44
15, 337799, Note_on_c, 12, 63, 0
15, 337920, Note_on_c, 12, 62, 44
15, 338039, Note_on_c, 12, 62, 0
15, 338400, Note_on_c, 12, 55, 44
15, 338519, Note_on_c, 12, 55, 0
15, 338640, Note_on_c, 12, 55, 44
15, 338759, Note_on_c, 12, 55, 0
15, 338880, Note_on_c, 12, 56, 44
15, 338999, Note_on_c, 12, 56, 0
15, 339120, Note_on_c, 12, 55, 44
15, 339239, Note_on_c, 12, 55, 0
15, 339360, Note_on_c, 12, 56, 44
15, 339479, Note_on_c, 12, 56, 0
15, 339600, Note_on_c, 12, 55, 44
15, 339719, Note_on_c, 12, 55, 0
15, 339840, Note_on_c, 12, 56, 44
15, 339959, Note_on_c, 12, 56, 0
15, 340080, Note_on_c, 12, 55, 44
15, 340199, Note_on_c, 12, 55, 0
15, 340320, Note_on_c, 12, 56, 44
15, 340439, Note_on_c, 12, 56, 0
15, 340560, Note_on_c, 12, 55, 44
15, 340679, Note_on_c, 12, 55, 0
15, 340800, Note_on_c, 12, 56, 44
15, 340919, Note_on_c, 12, 56, 0
15, 341040, Note_on_c, 12, 55, 44
15, 341159, Note_on_c, 12, 55, 0
15, 341280, Note_on_c, 12, 58, 44
15, 341399, Note_on_c, 12, 58, 0
15, 341520, Note_on_c, 12, 58, 44
15, 341639, Note_on_c, 12, 58, 0
15, 341760, Note_on_c, 12, 58, 44
15, 341879, Note_on_c, 12, 58, 0
15, 342000, Note_on_c, 12, 58, 44
15, 342119, Note_on_c, 12, 58, 0
15, 342240, Note_on_c, 12, 58, 44
15, 342359, Note_on_c, 12, 58, 0
15, 342480, Note_on_c, 12, 65, 44
15, 342599, Note_on_c, 12, 65, 0
15, 342720, Note_on_c, 12, 63, 44
15, 342839, Note_on_c, 12, 63, 0
15, 342960, Note_on_c, 12, 62, 44
15, 343079, Note_on_c, 12, 62, 0
15, 343200, Note_on_c, 12, 77, 44
15, 343319, Note_on_c, 12, 77, 0
15, 343440, Note_on_c, 12, 75, 44
15, 343559, Note_on_c, 12, 75, 0
15, 343680, Note_on_c, 12, 74, 44
15, 343799, Note_on_c, 12, 74, 0
15, 343920, Note_on_c, 12, 77, 44
15, 344039, Note_on_c, 12, 77, 0
15, 344160, Note_on_c, 12, 75, 44
15, 344279, Note_on_c, 12, 75, 0
15, 344400, Note_on_c, 12, 74, 44
15, 344519, Note_on_c, 12, 74, 0
15, 344640, Note_on_c, 12, 74, 44
15, 344759, Note_on_c, 12, 74, 0
15, 344880, Note_on_c, 12, 75, 44
15, 344999, Note_on_c, 12, 75, 0
15, 345120, Note_on_c, 12, 77, 44
15, 345239, Note_on_c, 12, 77, 0
15, 345360, Note_on_c, 12, 72, 44
15, 345479, Note_on_c, 12, 72, 0
15, 345600, Note_on_c, 12, 74, 44
15, 345719, Note_on_c, 12, 74, 0
15, 345840, Note_on_c, 12, 75, 44
15, 345959, Note_on_c, 12, 75, 0
15, 346080, Note_on_c, 12, 70, 44
15, 346199, Note_on_c, 12, 70, 0
15, 346320, Note_on_c, 12, 72, 44
15, 346439, Note_on_c, 12, 72, 0
15, 346560, Note_on_c, 12, 74, 44
15, 346679, Note_on_c, 12, 74, 0
15, 346800, Note_on_c, 12, 69, 44
15, 346919, Note_on_c, 12, 69, 0
15, 347040, Note_on_c, 12, 70, 44
15, 347159, Note_on_c, 12, 70, 0
15, 347280, Note_on_c, 12, 67, 44
15, 347399, Note_on_c, 12, 67, 0
15, 347520, Note_on_c, 12, 67, 44
15, 347639, Note_on_c, 12, 67, 0
15, 347760, Note_on_c, 12, 63, 44
15, 347879, Note_on_c, 12, 63, 0
15, 348000, Note_on_c, 12, 62, 44
15, 348119, Note_on_c, 12, 62, 0
15, 348960, Note_on_c, 12, 68, 44
15, 349079, Note_on_c, 12, 68, 0
15, 349200, Note_on_c, 12, 63, 44
15, 349319, Note_on_c, 12, 63, 0
15, 349440, Note_on_c, 12, 68, 44
15, 349559, Note_on_c, 12, 68, 0
15, 349680, Note_on_c, 12, 63, 44
15, 349799, Note_on_c, 12, 63, 0
15, 349920, Note_on_c, 12, 68, 44
15, 350039, Note_on_c, 12, 68, 0
15, 350160, Note_on_c, 12, 63, 44
15, 350279, Note_on_c, 12, 63, 0
15, 350400, Note_on_c, 12, 68, 44
15, 350519, Note_on_c, 12, 68, 0
15, 350640, Note_on_c, 12, 63, 44
15, 350759, Note_on_c, 12, 63, 0
15, 350880, Note_on_c, 12, 68, 44
15, 350999, Note_on_c, 12, 68, 0
15, 351120, Note_on_c, 12, 68, 44
15, 351239, Note_on_c, 12, 68, 0
15, 351360, Note_on_c, 12, 68, 44
15, 351479, Note_on_c, 12, 68, 0
15, 351600, Note_on_c, 12, 68, 44
15, 351719, Note_on_c, 12, 68, 0
15, 351840, Note_on_c, 12, 65, 44
15, 351959, Note_on_c, 12, 65, 0
15, 352080, Note_on_c, 12, 68, 44
15, 352199, Note_on_c, 12, 68, 0
15, 352320, Note_on_c, 12, 65, 44
15, 352439, Note_on_c, 12, 65, 0
15, 352560, Note_on_c, 12, 68, 44
15, 352679, Note_on_c, 12, 68, 0
15, 352800, Note_on_c, 12, 65, 44
15, 352919, Note_on_c, 12, 65, 0
15, 353040, Note_on_c, 12, 68, 44
15, 353159, Note_on_c, 12, 68, 0
15, 353280, Note_on_c, 12, 65, 44
15, 353399, Note_on_c, 12, 65, 0
15, 353520, Note_on_c, 12, 68, 44
15, 353639, Note_on_c, 12, 68, 0
15, 353760, Note_on_c, 12, 65, 44
15, 353879, Note_on_c, 12, 65, 0
15, 354000, Note_on_c, 12, 68, 44
15, 354119, Note_on_c, 12, 68, 0
15, 354240, Note_on_c, 12, 68, 44
15, 354359, Note_on_c, 12, 68, 0
15, 354480, Note_on_c, 12, 68, 44
15, 354599, Note_on_c, 12, 68, 0
15, 354720, Note_on_c, 12, 68, 44
15, 354839, Note_on_c, 12, 68, 0
15, 354960, Note_on_c, 12, 70, 44
15, 355079, Note_on_c, 12, 70, 0
15, 355200, Note_on_c, 12, 70, 44
15, 355319, Note_on_c, 12, 70, 0
15, 355440, Note_on_c, 12, 70, 44
15, 355559, Note_on_c, 12, 70, 0
15, 355680, Note_on_c, 12, 70, 44
15, 355799, Note_on_c, 12, 70, 0
15, 355920, Note_on_c, 12, 70, 44
15, 356039, Note_on_c, 12, 70, 0
15, 356160, Note_on_c, 12, 70, 44
15, 356279, Note_on_c, 12, 70, 0
15, 356400, Note_on_c, 12, 72, 44
15, 356519, Note_on_c, 12, 72, 0
15, 356640, Note_on_c, 12, 72, 44
15, 356759, Note_on_c, 12, 72, 0
15, 356880, Note_on_c, 12, 72, 44
15, 356999, Note_on_c, 12, 72, 0
15, 357120, Note_on_c, 12, 72, 44
15, 357239, Note_on_c, 12, 72, 0
15, 357360, Note_on_c, 12, 72, 44
15, 357479, Note_on_c, 12, 72, 0
15, 357600, Note_on_c, 12, 72, 44
15, 357719, Note_on_c, 12, 72, 0
15, 357840, Note_on_c, 12, 70, 44
15, 357959, Note_on_c, 12, 70, 0
15, 358080, Note_on_c, 12, 69, 44
15, 358199, Note_on_c, 12, 69, 0
15, 358320, Note_on_c, 12, 72, 44
15, 358439, Note_on_c, 12, 72, 0
15, 358560, Note_on_c, 12, 70, 44
15, 358679, Note_on_c, 12, 70, 0
15, 358800, Note_on_c, 12, 69, 44
15, 358919, Note_on_c, 12, 69, 0
15, 359040, Note_on_c, 12, 69, 44
15, 359159, Note_on_c, 12, 69, 0
15, 359280, Note_on_c, 12, 70, 44
15, 359399, Note_on_c, 12, 70, 0
15, 359520, Note_on_c, 12, 72, 44
15, 359639, Note_on_c, 12, 72, 0
15, 359760, Note_on_c, 12, 67, 44
15, 359879, Note_on_c, 12, 67, 0
15, 360000, Note_on_c, 12, 69, 44
15, 360119, Note_on_c, 12, 69, 0
15, 360240, Note_on_c, 12, 70, 44
15, 360359, Note_on_c, 12, 70, 0
15, 360480, Note_on_c, 12, 65, 44
15, 360599, Note_on_c, 12, 65, 0
15, 360720, Note_on_c, 12, 67, 44
15, 360839, Note_on_c, 12, 67, 0
15, 360960, Note_on_c, 12, 69, 44
15, 361199, Note_on_c, 12, 69, 0
15, 361200, Note_on_c, 12, 60, 44
15, 361409, Note_on_c, 12, 60, 0
15, 361440, Note_on_c, 12, 65, 44
15, 361559, Note_on_c, 12, 65, 0
15, 361680, Note_on_c, 12, 64, 44
15, 361919, Note_on_c, 12, 64, 0
15, 361920, Note_on_c, 12, 60, 44
15, 362129, Note_on_c, 12, 60, 0
15, 362160, Note_on_c, 12, 64, 44
15, 362279, Note_on_c, 12, 64, 0
15, 362400, Note_on_c, 12, 57, 44
15, 362639, Note_on_c, 12, 57, 0
15, 363840, Note_on_c, 12, 72, 52
15, 364529, Note_on_c, 12, 72, 0
15, 364560, Note_on_c, 12, 70, 44
15, 364799, Note_on_c, 12, 70, 0
15, 364800, Note_on_c, 12, 72, 44
15, 365009, Note_on_c, 12, 72, 0
15, 365040, Note_on_c, 12, 70, 44
15, 365159, Note_on_c, 12, 70, 0
15, 365280, Note_on_c, 12, 69, 44
15, 365519, Note_on_c, 12, 69, 0
15, 365520, Note_on_c, 12, 72, 44
15, 365729, Note_on_c, 12, 72, 0
15, 365760, Note_on_c, 12, 69, 44
15, 365879, Note_on_c, 12, 69, 0
15, 366720, Note_on_c, 12, 74, 52
15, 367409, Note_on_c, 12, 74, 0
15, 367440, Note_on_c, 12, 72, 44
15, 367679, Note_on_c, 12, 72, 0
15, 367680, Note_on_c, 12, 74, 44
15, 367889, Note_on_c, 12, 74, 0
15, 367920, Note_on_c, 12, 72, 44
15, 368039, Note_on_c, 12, 72, 0
15, 368160, Note_on_c, 12, 70, 44
15, 368399, Note_on_c, 12, 70, 0
15, 368400, Note_on_c, 12, 74, 44
15, 368609, Note_on_c, 12, 74, 0
15, 368640, Note_on_c, 12, 70, 44
15, 368759, Note_on_c, 12, 70, 0
15, 368880, Note_on_c, 12, 69, 44
15, 368999, Note_on_c, 12, 69, 0
15, 369120, Note_on_c, 12, 69, 44
15, 369239, Note_on_c, 12, 69, 0
15, 369360, Note_on_c, 12, 66, 44
15, 369479, Note_on_c, 12, 66, 0
15, 369600, Note_on_c, 12, 67, 44
15, 369719, Note_on_c, 12, 67, 0
15, 369840, Note_on_c, 12, 70, 44
15, 369959, Note_on_c, 12, 70, 0
15, 370080, Note_on_c, 12, 61, 44
15, 370199, Note_on_c, 12, 61, 0
15, 370320, Note_on_c, 12, 62, 44
15, 370439, Note_on_c, 12, 62, 0
15, 370560, Note_on_c, 12, 66, 44
15, 370679, Note_on_c, 12, 66, 0
15, 370800, Note_on_c, 12, 69, 44
15, 370919, Note_on_c, 12, 69, 0
15, 371040, Note_on_c, 12, 70, 44
15, 371159, Note_on_c, 12, 70, 0
15, 371280, Note_on_c, 12, 67, 44
15, 371399, Note_on_c, 12, 67, 0
15, 371520, Note_on_c, 12, 73, 44
15, 371639, Note_on_c, 12, 73, 0
15, 371760, Note_on_c, 12, 74, 44
15, 371879, Note_on_c, 12, 74, 0
15, 372000, Note_on_c, 12, 73, 44
15, 372119, Note_on_c, 12, 73, 0
15, 372240, Note_on_c, 12, 74, 44
15, 372359, Note_on_c, 12, 74, 0
15, 372480, Note_on_c, 12, 69, 44
15, 372599, Note_on_c, 12, 69, 0
15, 372720, Note_on_c, 12, 70, 44
15, 372839, Note_on_c, 12, 70, 0
15, 372960, Note_on_c, 12, 66, 44
15, 373079, Note_on_c, 12, 66, 0
15, 373200, Note_on_c, 12, 67, 44
15, 373319, Note_on_c, 12, 67, 0
15, 373440, Note_on_c, 12, 62, 44
15, 373559, Note_on_c, 12, 62, 0
15, 373680, Note_on_c, 12, 63, 44
15, 373799, Note_on_c, 12, 63, 0
15, 373920, Note_on_c, 12, 62, 44
15, 374039, Note_on_c, 12, 62, 0
15, 374160, Note_on_c, 12, 63, 44
15, 374279, Note_on_c, 12, 63, 0
15, 374400, Note_on_c, 12, 61, 44
15, 374519, Note_on_c, 12, 61, 0
15, 374640, Note_on_c, 12, 62, 44
15, 374759, Note_on_c, 12, 62, 0
15, 374880, Note_on_c, 12, 61, 44
15, 374999, Note_on_c, 12, 61, 0
15, 375120, Note_on_c, 12, 62, 44
15, 375239, Note_on_c, 12, 62, 0
15, 375360, Note_on_c, 12, 61, 44
15, 375479, Note_on_c, 12, 61, 0
15, 375600, Note_on_c, 12, 62, 44
15, 375719, Note_on_c, 12, 62, 0
15, 375840, Note_on_c, 12, 61, 44
15, 375959, Note_on_c, 12, 61, 0
15, 376080, Note_on_c, 12, 62, 44
15, 376199, Note_on_c, 12, 62, 0
15, 376320, Note_on_c, 12, 61, 44
15, 376439, Note_on_c, 12, 61, 0
15, 376560, Note_on_c, 12, 62, 44
15, 376679, Note_on_c, 12, 62, 0
15, 376800, Note_on_c, 12, 61, 44
15, 376919, Note_on_c, 12, 61, 0
15, 377040, Note_on_c, 12, 62, 44
15, 377159, Note_on_c, 12, 62, 0
15, 377280, Note_on_c, 12, 61, 44
15, 377399, Note_on_c, 12, 61, 0
15, 377520, Note_on_c, 12, 62, 44
15, 377639, Note_on_c, 12, 62, 0
15, 383040, Note_on_c, 12, 55, 44
15, 383159, Note_on_c, 12, 55, 0
15, 383280, Note_on_c, 12, 55, 44
15, 383399, Note_on_c, 12, 55, 0
15, 383520, Note_on_c, 12, 56, 44
15, 383639, Note_on_c, 12, 56, 0
15, 383760, Note_on_c, 12, 55, 44
15, 383879, Note_on_c, 12, 55, 0
15, 384000, Note_on_c, 12, 56, 44
15, 384119, Note_on_c, 12, 56, 0
15, 384240, Note_on_c, 12, 55, 44
15, 384359, Note_on_c, 12, 55, 0
15, 384480, Note_on_c, 12, 56, 44
15, 384599, Note_on_c, 12, 56, 0
15, 384720, Note_on_c, 12, 55, 44
15, 384839, Note_on_c, 12, 55, 0
15, 384960, Note_on_c, 12, 56, 44
15, 385079, Note_on_c, 12, 56, 0
15, 385200, Note_on_c, 12, 55, 44
15, 385319, Note_on_c, 12, 55, 0
15, 385440, Note_on_c, 12, 56, 44
15, 385649, Note_on_c, 12, 56, 0
15, 385680, Note_on_c, 12, 55, 44
15, 385889, Note_on_c, 12, 55, 0
15, 385920, Note_on_c, 12, 56, 44
15, 386129, Note_on_c, 12, 56, 0
15, 386160, Note_on_c, 12, 55, 44
15, 386369, Note_on_c, 12, 55, 0
15, 386400, Note_on_c, 12, 56, 44
15, 386609, Note_on_c, 12, 56, 0
15, 386640, Note_on_c, 12, 55, 44
15, 386849, Note_on_c, 12, 55, 0
15, 386880, Note_on_c, 12, 56, 44
15, 387089, Note_on_c, 12, 56, 0
15, 387120, Note_on_c, 12, 55, 44
15, 387329, Note_on_c, 12, 55, 0
15, 387360, Note_on_c, 12, 58, 44
15, 387569, Note_on_c, 12, 58, 0
15, 387600, Note_on_c, 12, 58, 44
15, 387809, Note_on_c, 12, 58, 0
15, 387840, Note_on_c, 12, 58, 44
15, 388049, Note_on_c, 12, 58, 0
15, 388080, Note_on_c, 12, 58, 44
15, 388289, Note_on_c, 12, 58, 0
15, 388320, Note_on_c, 12, 58, 44
15, 388529, Note_on_c, 12, 58, 0
15, 388560, Note_on_c, 12, 65, 44
15, 388560, Note_on_c, 12, 58, 44
15, 388769, Note_on_c, 12, 65, 0
15, 388769, Note_on_c, 12, 58, 0
15, 388800, Note_on_c, 12, 63, 44
15, 388800, Note_on_c, 12, 58, 44
15, 389009, Note_on_c, 12, 63, 0
15, 389009, Note_on_c, 12, 58, 0
15, 389040, Note_on_c, 12, 62, 44
15, 389040, Note_on_c, 12, 58, 44
15, 389249, Note_on_c, 12, 62, 0
15, 389249, Note_on_c, 12, 58, 0
15, 389280, Note_on_c, 12, 65, 44
15, 389489, Note_on_c, 12, 65, 0
15, 389520, Note_on_c, 12, 63, 44
15, 389729, Note_on_c, 12, 63, 0
15, 389760, Note_on_c, 12, 62, 44
15, 389969, Note_on_c, 12, 62, 0
15, 390000, Note_on_c, 12, 65, 44
15, 390209, Note_on_c, 12, 65, 0
15, 390240, Note_on_c, 12, 63, 44
15, 390449, Note_on_c, 12, 63, 0
15, 390480, Note_on_c, 12, 62, 44
15, 390689, Note_on_c, 12, 62, 0
15, 390720, Note_on_c, 12, 74, 44
15, 390929, Note_on_c, 12, 74, 0
15, 390960, Note_on_c, 12, 75, 44
15, 391169, Note_on_c, 12, 75, 0
15, 391200, Note_on_c, 12, 77, 44
15, 391409, Note_on_c, 12, 77, 0
15, 391440, Note_on_c, 12, 72, 44
15, 391649, Note_on_c, 12, 72, 0
15, 391680, Note_on_c, 12, 74, 44
15, 391889, Note_on_c, 12, 74, 0
15, 391920, Note_on_c, 12, 75, 44
15, 392129, Note_on_c, 12, 75, 0
15, 392160, Note_on_c, 12, 70, 44
15, 392369, Note_on_c, 12, 70, 0
15, 392400, Note_on_c, 12, 72, 44
15, 392609, Note_on_c, 12, 72, 0
15, 392640, Note_on_c, 12, 65, 44
15, 392849, Note_on_c, 12, 65, 0
15, 392880, Note_on_c, 12, 69, 44
15, 393089, Note_on_c, 12, 69, 0
15, 393120, Note_on_c, 12, 70, 44
15, 393239, Note_on_c, 12, 70, 0
15, 393360, Note_on_c, 12, 67, 44
15, 393569, Note_on_c, 12, 67, 0
15, 393600, Note_on_c, 12, 67, 44
15, 393809, Note_on_c, 12, 67, 0
15, 393840, Note_on_c, 12, 69, 44
15, 394049, Note_on_c, 12, 69, 0
15, 394080, Note_on_c, 12, 70, 44
15, 394289, Note_on_c, 12, 70, 0
15, 394320, Note_on_c, 12, 72, 57
15, 394529, Note_on_c, 12, 72, 0
15, 394560, Note_on_c, 12, 74, 70
15, 394769, Note_on_c, 12, 74, 0
15, 394800, Note_on_c, 12, 75, 84
15, 395009, Note_on_c, 12, 75, 0
15, 395040, Note_on_c, 12, 75, 84
15, 395040, Note_on_c, 12, 67, 84
15, 395249, Note_on_c, 12, 75, 0
15, 395249, Note_on_c, 12, 67, 0
15, 395280, Note_on_c, 12, 75, 84
15, 395280, Note_on_c, 12, 67, 84
15, 395489, Note_on_c, 12, 75, 0
15, 395489, Note_on_c, 12, 67, 0
15, 395520, Note_on_c, 12, 75, 84
15, 395520, Note_on_c, 12, 67, 84
15, 395729, Note_on_c, 12, 75, 0
15, 395729, Note_on_c, 12, 67, 0
15, 395760, Note_on_c, 12, 75, 84
15, 395760, Note_on_c, 12, 67, 84
15, 395969, Note_on_c, 12, 75, 0
15, 395969, Note_on_c, 12, 67, 0
15, 396000, Note_on_c, 12, 75, 84
15, 396000, Note_on_c, 12, 67, 84
15, 396209, Note_on_c, 12, 75, 0
15, 396209, Note_on_c, 12, 67, 0
15, 396240, Note_on_c, 12, 75, 84
15, 396240, Note_on_c, 12, 67, 84
15, 396479, Note_on_c, 12, 75, 0
15, 396479, Note_on_c, 12, 67, 0
15, 396480, Note_on_c, 12, 77, 84
15, 396599, Note_on_c, 12, 77, 0
15, 396600, Note_on_c, 12, 75, 84
15, 396719, Note_on_c, 12, 75, 0
15, 396720, Note_on_c, 12, 74, 84
15, 396839, Note_on_c, 12, 74, 0
15, 396840, Note_on_c, 12, 72, 84
15, 396959, Note_on_c, 12, 72, 0
15, 396960, Note_on_c, 12, 70, 84
15, 397649, Note_on_c, 12, 70, 0
15, 397680, Note_on_c, 12, 68, 92
15, 398369, Note_on_c, 12, 68, 0
15, 398400, Note_on_c, 12, 67, 84
15, 398639, Note_on_c, 12, 67, 0
15, 398640, Note_on_c, 12, 70, 84
15, 398849, Note_on_c, 12, 70, 0
15, 398880, Note_on_c, 12, 67, 84
15, 398999, Note_on_c, 12, 67, 0
15, 399120, Note_on_c, 12, 65, 84
15, 399359, Note_on_c, 12, 65, 0
15, 399360, Note_on_c, 12, 70, 84
15, 399569, Note_on_c, 12, 70, 0
15, 399600, Note_on_c, 12, 65, 84
15, 399719, Note_on_c, 12, 65, 0
15, 399840, Note_on_c, 12, 63, 84
15, 399959, Note_on_c, 12, 63, 0
15, 400080, Note_on_c, 12, 67, 84
15, 400199, Note_on_c, 12, 67, 0
15, 400320, Note_on_c, 12, 70, 84
15, 400439, Note_on_c, 12, 70, 0
15, 400560, Note_on_c, 12, 68, 92
15, 401249, Note_on_c, 12, 68, 0
15, 401280, Note_on_c, 12, 67, 84
15, 401519, Note_on_c, 12, 67, 0
15, 401520, Note_on_c, 12, 70, 84
15, 401729, Note_on_c, 12, 70, 0
15, 401760, Note_on_c, 12, 67, 84
15, 401879, Note_on_c, 12, 67, 0
15, 402000, Note_on_c, 12, 65, 84
15, 402239, Note_on_c, 12, 65, 0
15, 402240, Note_on_c, 12, 70, 84
15, 402449, Note_on_c, 12, 70, 0
15, 402480, Note_on_c, 12, 65, 84
15, 402599, Note_on_c, 12, 65, 0
15, 402720, Note_on_c, 12, 63, 84
15, 402839, Note_on_c, 12, 63, 0
15, 402960, Note_on_c, 12, 67, 84
15, 403079, Note_on_c, 12, 67, 0
15, 403200, Note_on_c, 12, 70, 84
15, 403319, Note_on_c, 12, 70, 0
15, 403440, Note_on_c, 12, 73, 92
15, 404129, Note_on_c, 12, 73, 0
15, 404160, Note_on_c, 12, 72, 84
15, 404399, Note_on_c, 12, 72, 0
15, 404400, Note_on_c, 12, 75, 84
15, 404609, Note_on_c, 12, 75, 0
15, 404640, Note_on_c, 12, 72, 84
15, 404759, Note_on_c, 12, 72, 0
15, 404880, Note_on_c, 12, 70, 84
15, 405119, Note_on_c, 12, 70, 0
15, 405120, Note_on_c, 12, 75, 84
15, 405329, Note_on_c, 12, 75, 0
15, 405360, Note_on_c, 12, 70, 84
15, 405479, Note_on_c, 12, 70, 0
15, 405600, Note_on_c, 12, 68, 84
15, 405719, Note_on_c, 12, 68, 0
15, 405840, Note_on_c, 12, 72, 84
15, 405959, Note_on_c, 12, 72, 0
15, 406080, Note_on_c, 12, 75, 84
15, 406199, Note_on_c, 12, 75, 0
15, 406320, Note_on_c, 12, 73, 92
15, 407009, Note_on_c, 12, 73, 0
15, 407040, Note_on_c, 12, 72, 84
15, 407279, Note_on_c, 12, 72, 0
15, 407280, Note_on_c, 12, 75, 84
15, 407489, Note_on_c, 12, 75, 0
15, 407520, Note_on_c, 12, 72, 84
15, 407639, Note_on_c, 12, 72, 0
15, 407760, Note_on_c, 12, 75, 84
15, 407879, Note_on_c, 12, 75, 0
15, 408000, Note_on_c, 12, 70, 84
15, 408119, Note_on_c, 12, 70, 0
15, 408240, Note_on_c, 12, 75, 84
15, 408359, Note_on_c, 12, 75, 0
15, 408480, Note_on_c, 12, 68, 84
15, 408599, Note_on_c, 12, 68, 0
15, 408720, Note_on_c, 12, 75, 84
15, 408839, Note_on_c, 12, 75, 0
15, 408960, Note_on_c, 12, 68, 84
15, 409079, Note_on_c, 12, 68, 0
15, 409200, Note_on_c, 12, 75, 84
15, 409319, Note_on_c, 12, 75, 0
15, 409440, Note_on_c, 12, 67, 84
15, 409559, Note_on_c, 12, 67, 0
15, 409680, Note_on_c, 12, 75, 84
15, 409799, Note_on_c, 12, 75, 0
15, 409920, Note_on_c, 12, 65, 84
15, 410039, Note_on_c, 12, 65, 0
15, 410160, Note_on_c, 12, 74, 84
15, 410279, Note_on_c, 12, 74, 0
15, 410400, Note_on_c, 12, 65, 84
15, 410519, Note_on_c, 12, 65, 0
15, 410640, Note_on_c, 12, 75, 84
15, 410640, Note_on_c, 12, 67, 84
15, 410759, Note_on_c, 12, 75, 0
15, 410759, Note_on_c, 12, 67, 0
15, 410880, Note_on_c, 12, 79, 92
15, 411329, Note_on_c, 12, 79, 0
15, 411360, Note_on_c, 12, 75, 84
15, 411479, Note_on_c, 12, 75, 0
15, 411600, Note_on_c, 12, 70, 92
15, 412049, Note_on_c, 12, 70, 0
15, 412080, Note_on_c, 12, 67, 84
15, 412199, Note_on_c, 12, 67, 0
15, 412320, Note_on_c, 12, 63, 92
15, 412769, Note_on_c, 12, 63, 0
15, 412800, Note_on_c, 12, 58, 84
15, 413039, Note_on_c, 12, 58, 0
15, 413280, Note_on_c, 12, 56, 84
15, 413339, Note_on_c, 12, 56, 0
15, 413340, Note_on_c, 12, 58, 84
15, 413399, Note_on_c, 12, 58, 0
15, 413400, Note_on_c, 12, 55, 84
15, 413459, Note_on_c, 12, 55, 0
15, 413460, Note_on_c, 12, 56, 84
15, 413519, Note_on_c, 12, 56, 0
15, 413520, Note_on_c, 12, 55, 84
15, 413759, Note_on_c, 12, 55, 0
15, 415200, Note_on_c, 12, 63, 52
15, 415409, Note_on_c, 12, 63, 0
15, 415440, Note_on_c, 12, 63, 52
15, 415649, Note_on_c, 12, 63, 0
15, 415680, Note_on_c, 12, 65, 52
15, 415889, Note_on_c, 12, 65, 0
15, 415920, Note_on_c, 12, 65, 52
15, 416129, Note_on_c, 12, 65, 0
15, 416160, Note_on_c, 12, 65, 52
15, 416369, Note_on_c, 12, 65, 0
15, 416400, Note_on_c, 12, 58, 76
15, 416519, Note_on_c, 12, 58, 0
15, 416640, Note_on_c, 12, 79, 84
15, 416819, Note_on_c, 12, 79, 0
15, 416880, Note_on_c, 12, 75, 84
15, 417059, Note_on_c, 12, 75, 0
15, 417120, Note_on_c, 12, 70, 84
15, 417299, Note_on_c, 12, 70, 0
15, 417360, Note_on_c, 12, 67, 84
15, 417539, Note_on_c, 12, 67, 0
15, 417600, Note_on_c, 12, 63, 84
15, 417779, Note_on_c, 12, 63, 0
15, 417840, Note_on_c, 12, 58, 84
15, 418019, Note_on_c, 12, 58, 0
15, 418080, Note_on_c, 12, 56, 84
15, 418259, Note_on_c, 12, 56, 0
15, 418320, Note_on_c, 12, 55, 84
15, 418499, Note_on_c, 12, 55, 0
15, 420000, Note_on_c, 12, 73, 52
15, 420119, Note_on_c, 12, 73, 0
15, 420240, Note_on_c, 12, 72, 52
15, 420359, Note_on_c, 12, 72, 0
15, 420480, Note_on_c, 12, 73, 52
15, 420599, Note_on_c, 12, 73, 0
15, 420720, Note_on_c, 12, 72, 52
15, 420839, Note_on_c, 12, 72, 0
15, 420960, Note_on_c, 12, 73, 52
15, 421079, Note_on_c, 12, 73, 0
15, 421200, Note_on_c, 12, 72, 52
15, 421319, Note_on_c, 12, 72, 0
15, 422880, Note_on_c, 12, 71, 52
15, 422999, Note_on_c, 12, 71, 0
15, 423120, Note_on_c, 12, 70, 52
15, 423239, Note_on_c, 12, 70, 0
15, 423360, Note_on_c, 12, 71, 52
15, 423479, Note_on_c, 12, 71, 0
15, 423600, Note_on_c, 12, 70, 52
15, 423719, Note_on_c, 12, 70, 0
15, 423840, Note_on_c, 12, 71, 52
15, 423959, Note_on_c, 12, 71, 0
15, 424080, Note_on_c, 12, 70, 52
15, 424199, Note_on_c, 12, 70, 0
15, 425760, Note_on_c, 12, 71, 52
15, 425879, Note_on_c, 12, 71, 0
15, 426000, Note_on_c, 12, 70, 52
15, 426119, Note_on_c, 12, 70, 0
15, 426240, Note_on_c, 12, 71, 52
15, 426359, Note_on_c, 12, 71, 0
15, 426480, Note_on_c, 12, 70, 52
15, 426599, Note_on_c, 12, 70, 0
15, 426720, Note_on_c, 12, 71, 52
15, 426839, Note_on_c, 12, 71, 0
15, 426960, Note_on_c, 12, 70, 52
15, 427079, Note_on_c, 12, 70, 0
15, 428640, Note_on_c, 12, 60, 52
15, 428759, Note_on_c, 12, 60, 0
15, 428880, Note_on_c, 12, 58, 52
15, 428999, Note_on_c, 12, 58, 0
15, 429120, Note_on_c, 12, 60, 52
15, 429239, Note_on_c, 12, 60, 0
15, 429360, Note_on_c, 12, 58, 52
15, 429479, Note_on_c, 12, 58, 0
15, 429600, Note_on_c, 12, 60, 52
15, 429719, Note_on_c, 12, 60, 0
15, 429840, Note_on_c, 12, 58, 52
15, 429929, Note_on_c, 12, 58, 0
15, 429960, Note_on_c, 12, 58, 52
15, 430049, Note_on_c, 12, 58, 0
15, 430080, Note_on_c, 12, 58, 52
15, 430169, Note_on_c, 12, 58, 0
15, 430200, Note_on_c, 12, 58, 52
15, 430289, Note_on_c, 12, 58, 0
15, 430320, Note_on_c, 12, 59, 52
15, 430409, Note_on_c, 12, 59, 0
15, 430440, Note_on_c, 12, 59, 52
15, 430529, Note_on_c, 12, 59, 0
15, 430560, Note_on_c, 12, 60, 52
15, 430649, Note_on_c, 12, 60, 0
15, 430680, Note_on_c, 12, 60, 52
15, 430769, Note_on_c, 12, 60, 0
15, 430800, Note_on_c, 12, 62, 52
15, 430889, Note_on_c, 12, 62, 0
15, 430920, Note_on_c, 12, 62, 52
15, 431009, Note_on_c, 12, 62, 0
15, 431040, Note_on_c, 12, 63, 52
15, 431129, Note_on_c, 12, 63, 0
15, 431160, Note_on_c, 12, 63, 52
15, 431249, Note_on_c, 12, 63, 0
15, 431280, Note_on_c, 12, 65, 52
15, 431369, Note_on_c, 12, 65, 0
15, 431400, Note_on_c, 12, 65, 52
15, 431489, Note_on_c, 12, 65, 0
15, 431520, Note_on_c, 12, 60, 52
15, 431609, Note_on_c, 12, 60, 0
15, 431640, Note_on_c, 12, 60, 52
15, 431729, Note_on_c, 12, 60, 0
15, 431760, Note_on_c, 12, 61, 52
15, 431849, Note_on_c, 12, 61, 0
15, 431880, Note_on_c, 12, 61, 52
15, 431969, Note_on_c, 12, 61, 0
15, 432000, Note_on_c, 12, 62, 52
15, 432089, Note_on_c, 12, 62, 0
15, 432120, Note_on_c, 12, 62, 52
15, 432209, Note_on_c, 12, 62, 0
15, 432240, Note_on_c, 12, 64, 52
15, 432329, Note_on_c, 12, 64, 0
15, 432360, Note_on_c, 12, 64, 52
15, 432449, Note_on_c, 12, 64, 0
15, 432480, Note_on_c, 12, 65, 52
15, 432569, Note_on_c, 12, 65, 0
15, 432600, Note_on_c, 12, 65, 52
15, 432689, Note_on_c, 12, 65, 0
15, 432720, Note_on_c, 12, 67, 52
15, 432809, Note_on_c, 12, 67, 0
15, 432840, Note_on_c, 12, 67, 52
15, 432929, Note_on_c, 12, 67, 0
15, 432960, Note_on_c, 12, 61, 52
15, 433049, Note_on_c, 12, 61, 0
15, 433080, Note_on_c, 12, 61, 52
15, 433169, Note_on_c, 12, 61, 0
15, 433200, Note_on_c, 12, 62, 52
15, 433289, Note_on_c, 12, 62, 0
15, 433320, Note_on_c, 12, 62, 52
15, 433409, Note_on_c, 12, 62, 0
15, 433440, Note_on_c, 12, 63, 52
15, 433529, Note_on_c, 12, 63, 0
15, 433560, Note_on_c, 12, 63, 52
15, 433649, Note_on_c, 12, 63, 0
15, 433680, Note_on_c, 12, 65, 52
15, 433769, Note_on_c, 12, 65, 0
15, 433800, Note_on_c, 12, 65, 52
15, 433889, Note_on_c, 12, 65, 0
15, 433920, Note_on_c, 12, 67, 52
15, 434009, Note_on_c, 12, 67, 0
15, 434040, Note_on_c, 12, 67, 52
15, 434129, Note_on_c, 12, 67, 0
15, 434160, Note_on_c, 12, 68, 52
15, 434249, Note_on_c, 12, 68, 0
15, 434280, Note_on_c, 12, 68, 52
15, 434369, Note_on_c, 12, 68, 0
15, 434400, Note_on_c, 12, 64, 52
15, 434489, Note_on_c, 12, 64, 0
15, 434520, Note_on_c, 12, 64, 52
15, 434609, Note_on_c, 12, 64, 0
15, 434640, Note_on_c, 12, 65, 52
15, 434729, Note_on_c, 12, 65, 0
15, 434760, Note_on_c, 12, 65, 52
15, 434849, Note_on_c, 12, 65, 0
15, 434880, Note_on_c, 12, 62, 52
15, 434969, Note_on_c, 12, 62, 0
15, 435000, Note_on_c, 12, 62, 52
15, 435089, Note_on_c, 12, 62, 0
15, 435120, Note_on_c, 12, 80, 52
15, 435209, Note_on_c, 12, 80, 0
15, 435240, Note_on_c, 12, 80, 52
15, 435329, Note_on_c, 12, 80, 0
15, 435360, Note_on_c, 12, 74, 52
15, 435449, Note_on_c, 12, 74, 0
15, 435480, Note_on_c, 12, 74, 52
15, 435569, Note_on_c, 12, 74, 0
15, 435600, Note_on_c, 12, 75, 52
15, 435719, Note_on_c, 12, 75, 0
15, 435840, Note_on_c, 12, 70, 52
15, 435959, Note_on_c, 12, 70, 0
15, 436080, Note_on_c, 12, 65, 52
15, 436199, Note_on_c, 12, 65, 0
15, 436320, Note_on_c, 12, 67, 52
15, 436439, Note_on_c, 12, 67, 0
15, 436560, Note_on_c, 12, 67, 52
15, 436679, Note_on_c, 12, 67, 0
15, 436800, Note_on_c, 12, 67, 52
15, 436919, Note_on_c, 12, 67, 0
15, 437040, Note_on_c, 12, 60, 52
15, 437159, Note_on_c, 12, 60, 0
15, 437280, Note_on_c, 12, 72, 52
15, 437399, Note_on_c, 12, 72, 0
15, 437520, Note_on_c, 12, 67, 52
15, 437639, Note_on_c, 12, 67, 0
15, 437760, Note_on_c, 12, 68, 52
15, 437879, Note_on_c, 12, 68, 0
15, 438000, Note_on_c, 12, 56, 52
15, 438119, Note_on_c, 12, 56, 0
15, 438240, Note_on_c, 12, 68, 52
15, 438359, Note_on_c, 12, 68, 0
15, 438480, Note_on_c, 12, 62, 52
15, 438599, Note_on_c, 12, 62, 0
15, 438720, Note_on_c, 12, 67, 52
15, 438839, Note_on_c, 12, 67, 0
15, 438960, Note_on_c, 12, 58, 54
15, 439079, Note_on_c, 12, 58, 0
15, 439200, Note_on_c, 12, 70, 57
15, 439319, Note_on_c, 12, 70, 0
15, 439440, Note_on_c, 12, 58, 60
15, 439559, Note_on_c, 12, 58, 0
15, 439680, Note_on_c, 12, 70, 63
15, 439799, Note_on_c, 12, 70, 0
15, 439920, Note_on_c, 12, 63, 66
15, 440039, Note_on_c, 12, 63, 0
15, 440160, Note_on_c, 12, 72, 69
15, 440279, Note_on_c, 12, 72, 0
15, 440400, Note_on_c, 12, 72, 72
15, 440519, Note_on_c, 12, 72, 0
15, 440640, Note_on_c, 12, 74, 75
15, 440759, Note_on_c, 12, 74, 0
15, 440880, Note_on_c, 12, 65, 78
15, 440999, Note_on_c, 12, 65, 0
15, 441120, Note_on_c, 12, 65, 81
15, 441239, Note_on_c, 12, 65, 0
15, 441360, Note_on_c, 12, 65, 84
15, 441449, Note_on_c, 12, 65, 0
15, 441480, Note_on_c, 12, 65, 84
15, 441569, Note_on_c, 12, 65, 0
15, 441600, Note_on_c, 12, 68, 84
15, 441689, Note_on_c, 12, 68, 0
15, 441720, Note_on_c, 12, 68, 84
15, 441809, Note_on_c, 12, 68, 0
15, 441840, Note_on_c, 12, 65, 84
15, 441929, Note_on_c, 12, 65, 0
15, 441960, Note_on_c, 12, 65, 84
15, 442049, Note_on_c, 12, 65, 0
15, 442080, Note_on_c, 12, 62, 84
15, 442169, Note_on_c, 12, 62, 0
15, 442200, Note_on_c, 12, 62, 84
15, 442289, Note_on_c, 12, 62, 0
15, 442320, Note_on_c, 12, 77, 84
15, 442409, Note_on_c, 12, 77, 0
15, 442440, Note_on_c, 12, 77, 84
15, 442529, Note_on_c, 12, 77, 0
15, 442560, Note_on_c, 12, 74, 84
15, 442649, Note_on_c, 12, 74, 0
15, 442680, Note_on_c, 12, 74, 84
15, 442769, Note_on_c, 12, 74, 0
15, 442800, Note_on_c, 12, 65, 84
15, 442889, Note_on_c, 12, 65, 0
15, 442920, Note_on_c, 12, 65, 84
15, 443009, Note_on_c, 12, 65, 0
15, 443040, Note_on_c, 12, 80, 84
15, 443129, Note_on_c, 12, 80, 0
15, 443160, Note_on_c, 12, 80, 84
15, 443249, Note_on_c, 12, 80, 0
15, 443280, Note_on_c, 12, 77, 84
15, 443369, Note_on_c, 12, 77, 0
15, 443400, Note_on_c, 12, 77, 84
15, 443489, Note_on_c, 12, 77, 0
15, 443520, Note_on_c, 12, 74, 84
15, 443609, Note_on_c, 12, 74, 0
15, 443640, Note_on_c, 12, 74, 84
15, 443729, Note_on_c, 12, 74, 0
15, 443760, Note_on_c, 12, 75, 84
15, 443849, Note_on_c, 12, 75, 0
15, 443880, Note_on_c, 12, 75, 84
15, 443969, Note_on_c, 12, 75, 0
15, 444000, Note_on_c, 12, 77, 84
15, 444089, Note_on_c, 12, 77, 0
15, 444120, Note_on_c, 12, 77, 84
15, 444209, Note_on_c, 12, 77, 0
15, 444240, Note_on_c, 12, 67, 76
15, 444479, Note_on_c, 12, 67, 0
15, 444960, Note_on_c, 12, 74, 76
15, 444960, Note_on_c, 12, 65, 76
15, 444960, Note_on_c, 12, 58, 76
15, 445199, Note_on_c, 12, 74, 0
15, 445199, Note_on_c, 12, 65, 0
15, 445199, Note_on_c, 12, 58, 0
15, 446400, Control_c, 12, 11, 96
15, 446640, Note_on_c, 12, 56, 60
15, 446640, Control_c, 12, 11, 96
15, 446720, Control_c, 12, 11, 99
15, 446800, Control_c, 12, 11, 101
15, 446849, Note_on_c, 12, 56, 0
15, 446880, Note_on_c, 12, 56, 60
15, 446880, Control_c, 12, 11, 104
15, 446960, Control_c, 12, 11, 106
15, 447040, Control_c, 12, 11, 109
15, 447089, Note_on_c, 12, 56, 0
15, 447120, Control_c, 12, 11, 112
15, 447120, Note_on_c, 12, 56, 60
15, 447200, Control_c, 12, 11, 114
15, 447280, Control_c, 12, 11, 117
15, 447329, Note_on_c, 12, 56, 0
15, 447360, Control_c, 12, 11, 119
15, 447360, Note_on_c, 12, 56, 60
15, 447440, Control_c, 12, 11, 122
15, 447520, Control_c, 12, 11, 124
15, 447569, Note_on_c, 12, 56, 0
15, 447600, Note_on_c, 12, 56, 60
15, 447600, Control_c, 12, 11, 127
15, 447680, Control_c, 12, 11, 124
15, 447760, Control_c, 12, 11, 122
15, 447809, Note_on_c, 12, 56, 0
15, 447840, Control_c, 12, 11, 119
15, 447840, Note_on_c, 12, 56, 60
15, 447920, Control_c, 12, 11, 117
15, 448000, Control_c, 12, 11, 114
15, 448049, Note_on_c, 12, 56, 0
15, 448080, Note_on_c, 12, 56, 60
15, 448080, Control_c, 12, 11, 112
15, 448160, Control_c, 12, 11, 109
15, 448240, Control_c, 12, 11, 106
15, 448289, Note_on_c, 12, 56, 0
15, 448320, Control_c, 12, 11, 104
15, 448320, Note_on_c, 12, 56, 60
15, 448400, Control_c, 12, 11, 101
15, 448480, Control_c, 12, 11, 96
15, 448529, Note_on_c, 12, 56, 0
15, 448560, Note_on_c, 12, 55, 60
15, 448799, Note_on_c, 12, 55, 0
15, 449520, Note_on_c, 12, 68, 60
15, 449520, Control_c, 12, 11, 96
15, 449620, Control_c, 12, 11, 99
15, 449720, Control_c, 12, 11, 101
15, 449729, Note_on_c, 12, 68, 0
15, 449760, Note_on_c, 12, 68, 60
15, 449820, Control_c, 12, 11, 104
15, 449920, Control_c, 12, 11, 106
15, 449969, Note_on_c, 12, 68, 0
15, 450000, Note_on_c, 12, 68, 60
15, 450020, Control_c, 12, 11, 109
15, 450120, Control_c, 12, 11, 112
15, 450209, Note_on_c, 12, 68, 0
15, 450220, Control_c, 12, 11, 114
15, 450240, Note_on_c, 12, 68, 60
15, 450320, Control_c, 12, 11, 117
15, 450420, Control_c, 12, 11, 119
15, 450449, Note_on_c, 12, 68, 0
15, 450480, Note_on_c, 12, 68, 60
15, 450520, Control_c, 12, 11, 122
15, 450620, Control_c, 12, 11, 124
15, 450689, Note_on_c, 12, 68, 0
15, 450720, Note_on_c, 12, 68, 60
15, 450720, Control_c, 12, 11, 127
15, 450780, Control_c, 12, 11, 124
15, 450840, Control_c, 12, 11, 122
15, 450900, Control_c, 12, 11, 119
15, 450929, Note_on_c, 12, 68, 0
15, 450960, Control_c, 12, 11, 117
15, 450960, Note_on_c, 12, 68, 60
15, 451020, Control_c, 12, 11, 114
15, 451080, Control_c, 12, 11, 112
15, 451140, Control_c, 12, 11, 109
15, 451169, Note_on_c, 12, 68, 0
15, 451200, Control_c, 12, 11, 106
15, 451200, Note_on_c, 12, 68, 60
15, 451260, Control_c, 12, 11, 104
15, 451320, Control_c, 12, 11, 101
15, 451380, Control_c, 12, 11, 96
15, 451409, Note_on_c, 12, 68, 0
15, 451440, Note_on_c, 12, 67, 60
15, 451679, Note_on_c, 12, 67, 0
15, 452880, Control_c, 12, 11, 127
15, 454560, Note_on_c, 12, 77, 66
15, 454649, Note_on_c, 12, 77, 0
15, 454680, Note_on_c, 12, 77, 67
15, 454769, Note_on_c, 12, 77, 0
15, 454800, Note_on_c, 12, 79, 68
15, 454889, Note_on_c, 12, 79, 0
15, 454920, Note_on_c, 12, 79, 69
15, 455009, Note_on_c, 12, 79, 0
15, 455040, Note_on_c, 12, 77, 70
15, 455129, Note_on_c, 12, 77, 0
15, 455160, Note_on_c, 12, 77, 71
15, 455249, Note_on_c, 12, 77, 0
15, 455280, Note_on_c, 12, 79, 72
15, 455369, Note_on_c, 12, 79, 0
15, 455400, Note_on_c, 12, 79, 73
15, 455489, Note_on_c, 12, 79, 0
15, 455520, Note_on_c, 12, 77, 74
15, 455609, Note_on_c, 12, 77, 0
15, 455640, Note_on_c, 12, 77, 75
15, 455729, Note_on_c, 12, 77, 0
15, 455760, Note_on_c, 12, 79, 76
15, 455849, Note_on_c, 12, 79, 0
15, 455880, Note_on_c, 12, 79, 76
15, 455969, Note_on_c, 12, 79, 0
15, 456000, Note_on_c, 12, 77, 76
15, 456089, Note_on_c, 12, 77, 0
15, 456120, Note_on_c, 12, 77, 76
15, 456209, Note_on_c, 12, 77, 0
15, 456240, Note_on_c, 12, 79, 76
15, 456329, Note_on_c, 12, 79, 0
15, 456360, Note_on_c, 12, 79, 76
15, 456449, Note_on_c, 12, 79, 0
15, 456480, Note_on_c, 12, 77, 76
15, 456569, Note_on_c, 12, 77, 0
15, 456600, Note_on_c, 12, 77, 76
15, 456689, Note_on_c, 12, 77, 0
15, 456720, Note_on_c, 12, 79, 76
15, 456809, Note_on_c, 12, 79, 0
15, 456840, Note_on_c, 12, 79, 76
15, 456929, Note_on_c, 12, 79, 0
15, 456960, Note_on_c, 12, 77, 76
15, 457049, Note_on_c, 12, 77, 0
15, 457080, Note_on_c, 12, 77, 76
15, 457169, Note_on_c, 12, 77, 0
15, 457200, Note_on_c, 12, 79, 84
15, 457439, Note_on_c, 12, 79, 0
15, 457920, Note_on_c, 12, 77, 84
15, 457920, Note_on_c, 12, 70, 84
15, 457920, Note_on_c, 12, 62, 84
15, 458159, Note_on_c, 12, 77, 0
15, 458159, Note_on_c, 12, 70, 0
15, 458159, Note_on_c, 12, 62, 0
15, 458640, Note_on_c, 12, 75, 84
15, 458640, Note_on_c, 12, 63, 84
15, 458640, Note_on_c, 12, 55, 84
15, 458879, Note_on_c, 12, 75, 0
15, 458879, Note_on_c, 12, 63, 0
15, 458879, Note_on_c, 12, 55, 0
15, 458879, End_track
16, 0, Start_track
16, 0, Title_t, "Viola "
16, 0, MIDI_port, 0
16, 0, Program_c, 13, 48
16, 0, Control_c, 13, 11, 127
16, 0, Control_c, 13, 10, 70
16, 0, Control_c, 13, 7, 96
16, 0, Note_on_c, 13, 51, 44
16, 119, Note_on_c, 13, 51, 0
16, 240, Note_on_c, 13, 51, 44
16, 359, Note_on_c, 13, 51, 0
16, 480, Note_on_c, 13, 51, 44
16, 599, Note_on_c, 13, 51, 0
16, 720, Note_on_c, 13, 51, 44
16, 839, Note_on_c, 13, 51, 0
16, 960, Note_on_c, 13, 51, 44
16, 1079, Note_on_c, 13, 51, 0
16, 1200, Note_on_c, 13, 51, 44
16, 1319, Note_on_c, 13, 51, 0
16, 1440, Note_on_c, 13, 51, 44
16, 1559, Note_on_c, 13, 51, 0
16, 1680, Note_on_c, 13, 51, 44
16, 1799, Note_on_c, 13, 51, 0
16, 1920, Note_on_c, 13, 51, 44
16, 2039, Note_on_c, 13, 51, 0
16, 2160, Note_on_c, 13, 51, 44
16, 2279, Note_on_c, 13, 51, 0
16, 2400, Note_on_c, 13, 51, 44
16, 2519, Note_on_c, 13, 51, 0
16, 2640, Note_on_c, 13, 51, 44
16, 2759, Note_on_c, 13, 51, 0
16, 2880, Note_on_c, 13, 53, 44
16, 2999, Note_on_c, 13, 53, 0
16, 3120, Note_on_c, 13, 55, 44
16, 3239, Note_on_c, 13, 55, 0
16, 3360, Note_on_c, 13, 63, 44
16, 3479, Note_on_c, 13, 63, 0
16, 3600, Note_on_c, 13, 62, 44
16, 3719, Note_on_c, 13, 62, 0
16, 3840, Note_on_c, 13, 63, 44
16, 3959, Note_on_c, 13, 63, 0
16, 4080, Note_on_c, 13, 62, 44
16, 4199, Note_on_c, 13, 62, 0
16, 4320, Note_on_c, 13, 60, 44
16, 4439, Note_on_c, 13, 60, 0
16, 4560, Note_on_c, 13, 58, 44
16, 4679, Note_on_c, 13, 58, 0
16, 4800, Note_on_c, 13, 62, 44
16, 4919, Note_on_c, 13, 62, 0
16, 5040, Note_on_c, 13, 60, 44
16, 5159, Note_on_c, 13, 60, 0
16, 5280, Note_on_c, 13, 58, 44
16, 5399, Note_on_c, 13, 58, 0
16, 5520, Note_on_c, 13, 62, 44
16, 5639, Note_on_c, 13, 62, 0
16, 5760, Note_on_c, 13, 60, 44
16, 5879, Note_on_c, 13, 60, 0
16, 6000, Note_on_c, 13, 58, 44
16, 6119, Note_on_c, 13, 58, 0
16, 6240, Note_on_c, 13, 58, 44
16, 6359, Note_on_c, 13, 58, 0
16, 6480, Note_on_c, 13, 60, 44
16, 6599, Note_on_c, 13, 60, 0
16, 6720, Note_on_c, 13, 62, 44
16, 6839, Note_on_c, 13, 62, 0
16, 6960, Note_on_c, 13, 57, 44
16, 7079, Note_on_c, 13, 57, 0
16, 7200, Note_on_c, 13, 59, 44
16, 7319, Note_on_c, 13, 59, 0
16, 7440, Note_on_c, 13, 60, 44
16, 7559, Note_on_c, 13, 60, 0
16, 7680, Note_on_c, 13, 55, 44
16, 7799, Note_on_c, 13, 55, 0
16, 7920, Note_on_c, 13, 57, 44
16, 8039, Note_on_c, 13, 57, 0
16, 8160, Note_on_c, 13, 58, 44
16, 8279, Note_on_c, 13, 58, 0
16, 8400, Note_on_c, 13, 53, 44
16, 8519, Note_on_c, 13, 53, 0
16, 8640, Note_on_c, 13, 55, 44
16, 8759, Note_on_c, 13, 55, 0
16, 8880, Note_on_c, 13, 51, 44
16, 8999, Note_on_c, 13, 51, 0
16, 9120, Note_on_c, 13, 48, 44
16, 9239, Note_on_c, 13, 48, 0
16, 9360, Note_on_c, 13, 57, 44
16, 9479, Note_on_c, 13, 57, 0
16, 9600, Note_on_c, 13, 58, 44
16, 9839, Note_on_c, 13, 58, 0
16, 10080, Note_on_c, 13, 51, 44
16, 10199, Note_on_c, 13, 51, 0
16, 10320, Note_on_c, 13, 51, 44
16, 10439, Note_on_c, 13, 51, 0
16, 10560, Note_on_c, 13, 51, 44
16, 10679, Note_on_c, 13, 51, 0
16, 10800, Note_on_c, 13, 51, 44
16, 10919, Note_on_c, 13, 51, 0
16, 11040, Note_on_c, 13, 51, 44
16, 11159, Note_on_c, 13, 51, 0
16, 11280, Note_on_c, 13, 51, 44
16, 11399, Note_on_c, 13, 51, 0
16, 11520, Note_on_c, 13, 51, 44
16, 11639, Note_on_c, 13, 51, 0
16, 11760, Note_on_c, 13, 51, 44
16, 11879, Note_on_c, 13, 51, 0
16, 12000, Note_on_c, 13, 51, 44
16, 12119, Note_on_c, 13, 51, 0
16, 12240, Note_on_c, 13, 51, 44
16, 12359, Note_on_c, 13, 51, 0
16, 12480, Note_on_c, 13, 51, 44
16, 12599, Note_on_c, 13, 51, 0
16, 12720, Note_on_c, 13, 51, 44
16, 12839, Note_on_c, 13, 51, 0
16, 12960, Note_on_c, 13, 53, 44
16, 13079, Note_on_c, 13, 53, 0
16, 13200, Note_on_c, 13, 55, 44
16, 13319, Note_on_c, 13, 55, 0
16, 13440, Note_on_c, 13, 56, 44
16, 13559, Note_on_c, 13, 56, 0
16, 13680, Note_on_c, 13, 50, 44
16, 13799, Note_on_c, 13, 50, 0
16, 13920, Note_on_c, 13, 51, 44
16, 14039, Note_on_c, 13, 51, 0
16, 14160, Note_on_c, 13, 58, 44
16, 14279, Note_on_c, 13, 58, 0
16, 14400, Note_on_c, 13, 60, 44
16, 14519, Note_on_c, 13, 60, 0
16, 14640, Note_on_c, 13, 62, 44
16, 14759, Note_on_c, 13, 62, 0
16, 14880, Note_on_c, 13, 65, 44
16, 14999, Note_on_c, 13, 65, 0
16, 15120, Note_on_c, 13, 63, 44
16, 15239, Note_on_c, 13, 63, 0
16, 15360, Note_on_c, 13, 62, 44
16, 15479, Note_on_c, 13, 62, 0
16, 15600, Note_on_c, 13, 65, 44
16, 15719, Note_on_c, 13, 65, 0
16, 15840, Note_on_c, 13, 63, 44
16, 15959, Note_on_c, 13, 63, 0
16, 16080, Note_on_c, 13, 62, 44
16, 16199, Note_on_c, 13, 62, 0
16, 16320, Note_on_c, 13, 62, 44
16, 16439, Note_on_c, 13, 62, 0
16, 16560, Note_on_c, 13, 63, 44
16, 16679, Note_on_c, 13, 63, 0
16, 16800, Note_on_c, 13, 65, 44
16, 16919, Note_on_c, 13, 65, 0
16, 17040, Note_on_c, 13, 60, 44
16, 17159, Note_on_c, 13, 60, 0
16, 17280, Note_on_c, 13, 62, 44
16, 17399, Note_on_c, 13, 62, 0
16, 17520, Note_on_c, 13, 63, 44
16, 17639, Note_on_c, 13, 63, 0
16, 17760, Note_on_c, 13, 58, 44
16, 17879, Note_on_c, 13, 58, 0
16, 18000, Note_on_c, 13, 60, 44
16, 18119, Note_on_c, 13, 60, 0
16, 18240, Note_on_c, 13, 62, 44
16, 18359, Note_on_c, 13, 62, 0
16, 18480, Note_on_c, 13, 57, 44
16, 18599, Note_on_c, 13, 57, 0
16, 18720, Note_on_c, 13, 58, 44
16, 18839, Note_on_c, 13, 58, 0
16, 18960, Note_on_c, 13, 55, 44
16, 19079, Note_on_c, 13, 55, 0
16, 19200, Note_on_c, 13, 55, 44
16, 19319, Note_on_c, 13, 55, 0
16, 19440, Note_on_c, 13, 57, 44
16, 19559, Note_on_c, 13, 57, 0
16, 19680, Note_on_c, 13, 58, 44
16, 19919, Note_on_c, 13, 58, 0
16, 23040, Note_on_c, 13, 63, 44
16, 23159, Note_on_c, 13, 63, 0
16, 23280, Note_on_c, 13, 63, 44
16, 23399, Note_on_c, 13, 63, 0
16, 23520, Note_on_c, 13, 68, 44
16, 23639, Note_on_c, 13, 68, 0
16, 23760, Note_on_c, 13, 63, 44
16, 23879, Note_on_c, 13, 63, 0
16, 24000, Note_on_c, 13, 68, 44
16, 24119, Note_on_c, 13, 68, 0
16, 24240, Note_on_c, 13, 63, 44
16, 24359, Note_on_c, 13, 63, 0
16, 24480, Note_on_c, 13, 68, 44
16, 24599, Note_on_c, 13, 68, 0
16, 24720, Note_on_c, 13, 63, 44
16, 24839, Note_on_c, 13, 63, 0
16, 24960, Note_on_c, 13, 68, 44
16, 25079, Note_on_c, 13, 68, 0
16, 25200, Note_on_c, 13, 63, 44
16, 25319, Note_on_c, 13, 63, 0
16, 25440, Note_on_c, 13, 68, 44
16, 25559, Note_on_c, 13, 68, 0
16, 25680, Note_on_c, 13, 65, 44
16, 25799, Note_on_c, 13, 65, 0
16, 25920, Note_on_c, 13, 66, 44
16, 26039, Note_on_c, 13, 66, 0
16, 26160, Note_on_c, 13, 66, 44
16, 26279, Note_on_c, 13, 66, 0
16, 26400, Note_on_c, 13, 65, 44
16, 26519, Note_on_c, 13, 65, 0
16, 26640, Note_on_c, 13, 68, 44
16, 26759, Note_on_c, 13, 68, 0
16, 26880, Note_on_c, 13, 68, 44
16, 26999, Note_on_c, 13, 68, 0
16, 27120, Note_on_c, 13, 65, 44
16, 27239, Note_on_c, 13, 65, 0
16, 27360, Note_on_c, 13, 68, 44
16, 27479, Note_on_c, 13, 68, 0
16, 27600, Note_on_c, 13, 68, 44
16, 27719, Note_on_c, 13, 68, 0
16, 27840, Note_on_c, 13, 67, 44
16, 27959, Note_on_c, 13, 67, 0
16, 28080, Note_on_c, 13, 70, 44
16, 28199, Note_on_c, 13, 70, 0
16, 28320, Note_on_c, 13, 70, 44
16, 28439, Note_on_c, 13, 70, 0
16, 28560, Note_on_c, 13, 67, 44
16, 28679, Note_on_c, 13, 67, 0
16, 28800, Note_on_c, 13, 70, 44
16, 28919, Note_on_c, 13, 70, 0
16, 29040, Note_on_c, 13, 69, 44
16, 29159, Note_on_c, 13, 69, 0
16, 29280, Note_on_c, 13, 57, 44
16, 29399, Note_on_c, 13, 57, 0
16, 29520, Note_on_c, 13, 55, 44
16, 29639, Note_on_c, 13, 55, 0
16, 29760, Note_on_c, 13, 53, 44
16, 29879, Note_on_c, 13, 53, 0
16, 30000, Note_on_c, 13, 57, 44
16, 30119, Note_on_c, 13, 57, 0
16, 30240, Note_on_c, 13, 55, 44
16, 30359, Note_on_c, 13, 55, 0
16, 30480, Note_on_c, 13, 53, 44
16, 30599, Note_on_c, 13, 53, 0
16, 30720, Note_on_c, 13, 53, 44
16, 30839, Note_on_c, 13, 53, 0
16, 30960, Note_on_c, 13, 55, 44
16, 31079, Note_on_c, 13, 55, 0
16, 31200, Note_on_c, 13, 57, 44
16, 31319, Note_on_c, 13, 57, 0
16, 31440, Note_on_c, 13, 52, 44
16, 31559, Note_on_c, 13, 52, 0
16, 31680, Note_on_c, 13, 53, 44
16, 31799, Note_on_c, 13, 53, 0
16, 31920, Note_on_c, 13, 55, 44
16, 32039, Note_on_c, 13, 55, 0
16, 32160, Note_on_c, 13, 50, 44
16, 32279, Note_on_c, 13, 50, 0
16, 32400, Note_on_c, 13, 52, 44
16, 32519, Note_on_c, 13, 52, 0
16, 32640, Note_on_c, 13, 53, 44
16, 32879, Note_on_c, 13, 53, 0
16, 32880, Note_on_c, 13, 57, 44
16, 33089, Note_on_c, 13, 57, 0
16, 33120, Note_on_c, 13, 60, 44
16, 33239, Note_on_c, 13, 60, 0
16, 33360, Note_on_c, 13, 58, 44
16, 33599, Note_on_c, 13, 58, 0
16, 33600, Note_on_c, 13, 55, 44
16, 33809, Note_on_c, 13, 55, 0
16, 33840, Note_on_c, 13, 58, 44
16, 33959, Note_on_c, 13, 58, 0
16, 34080, Note_on_c, 13, 53, 44
16, 34199, Note_on_c, 13, 53, 0
16, 34320, Note_on_c, 13, 57, 44
16, 34439, Note_on_c, 13, 57, 0
16, 34560, Note_on_c, 13, 60, 44
16, 34679, Note_on_c, 13, 60, 0
16, 34800, Note_on_c, 13, 58, 52
16, 35489, Note_on_c, 13, 58, 0
16, 35520, Note_on_c, 13, 57, 44
16, 35759, Note_on_c, 13, 57, 0
16, 35760, Note_on_c, 13, 60, 44
16, 35969, Note_on_c, 13, 60, 0
16, 36000, Note_on_c, 13, 57, 44
16, 36119, Note_on_c, 13, 57, 0
16, 36240, Note_on_c, 13, 55, 44
16, 36479, Note_on_c, 13, 55, 0
16, 36480, Note_on_c, 13, 58, 44
16, 36689, Note_on_c, 13, 58, 0
16, 36720, Note_on_c, 13, 55, 44
16, 36839, Note_on_c, 13, 55, 0
16, 36960, Note_on_c, 13, 53, 44
16, 37199, Note_on_c, 13, 53, 0
16, 37200, Note_on_c, 13, 57, 44
16, 37409, Note_on_c, 13, 57, 0
16, 37440, Note_on_c, 13, 53, 44
16, 37559, Note_on_c, 13, 53, 0
16, 37680, Note_on_c, 13, 60, 52
16, 38369, Note_on_c, 13, 60, 0
16, 38400, Note_on_c, 13, 58, 44
16, 38639, Note_on_c, 13, 58, 0
16, 38640, Note_on_c, 13, 62, 44
16, 38849, Note_on_c, 13, 62, 0
16, 38880, Note_on_c, 13, 58, 44
16, 38999, Note_on_c, 13, 58, 0
16, 39120, Note_on_c, 13, 57, 44
16, 39359, Note_on_c, 13, 57, 0
16, 39360, Note_on_c, 13, 60, 44
16, 39569, Note_on_c, 13, 60, 0
16, 39600, Note_on_c, 13, 57, 44
16, 39719, Note_on_c, 13, 57, 0
16, 39840, Note_on_c, 13, 55, 44
16, 40079, Note_on_c, 13, 55, 0
16, 40080, Note_on_c, 13, 58, 44
16, 40289, Note_on_c, 13, 58, 0
16, 40320, Note_on_c, 13, 58, 44
16, 40439, Note_on_c, 13, 58, 0
16, 40560, Note_on_c, 13, 57, 44
16, 40679, Note_on_c, 13, 57, 0
16, 40800, Note_on_c, 13, 54, 44
16, 40919, Note_on_c, 13, 54, 0
16, 41040, Note_on_c, 13, 62, 44
16, 41159, Note_on_c, 13, 62, 0
16, 41280, Note_on_c, 13, 62, 44
16, 41399, Note_on_c, 13, 62, 0
16, 41520, Note_on_c, 13, 58, 44
16, 41639, Note_on_c, 13, 58, 0
16, 41760, Note_on_c, 13, 55, 44
16, 41879, Note_on_c, 13, 55, 0
16, 42000, Note_on_c, 13, 54, 44
16, 42119, Note_on_c, 13, 54, 0
16, 42240, Note_on_c, 13, 62, 44
16, 42359, Note_on_c, 13, 62, 0
16, 42480, Note_on_c, 13, 62, 44
16, 42599, Note_on_c, 13, 62, 0
16, 42720, Note_on_c, 13, 62, 44
16, 42839, Note_on_c, 13, 62, 0
16, 42960, Note_on_c, 13, 62, 44
16, 43079, Note_on_c, 13, 62, 0
16, 43200, Note_on_c, 13, 67, 44
16, 43319, Note_on_c, 13, 67, 0
16, 43440, Note_on_c, 13, 66, 44
16, 43559, Note_on_c, 13, 66, 0
16, 43680, Note_on_c, 13, 73, 44
16, 43799, Note_on_c, 13, 73, 0
16, 43920, Note_on_c, 13, 74, 44
16, 44039, Note_on_c, 13, 74, 0
16, 44160, Note_on_c, 13, 69, 44
16, 44279, Note_on_c, 13, 69, 0
16, 44400, Note_on_c, 13, 70, 44
16, 44519, Note_on_c, 13, 70, 0
16, 44640, Note_on_c, 13, 66, 44
16, 44759, Note_on_c, 13, 66, 0
16, 44880, Note_on_c, 13, 67, 44
16, 44999, Note_on_c, 13, 67, 0
16, 45120, Note_on_c, 13, 62, 44
16, 45239, Note_on_c, 13, 62, 0
16, 45360, Note_on_c, 13, 63, 44
16, 45479, Note_on_c, 13, 63, 0
16, 45600, Note_on_c, 13, 62, 44
16, 45719, Note_on_c, 13, 62, 0
16, 45840, Note_on_c, 13, 63, 44
16, 45959, Note_on_c, 13, 63, 0
16, 46080, Note_on_c, 13, 61, 44
16, 46199, Note_on_c, 13, 61, 0
16, 46320, Note_on_c, 13, 62, 44
16, 46439, Note_on_c, 13, 62, 0
16, 46560, Note_on_c, 13, 61, 44
16, 46679, Note_on_c, 13, 61, 0
16, 46800, Note_on_c, 13, 62, 44
16, 46919, Note_on_c, 13, 62, 0
16, 47040, Note_on_c, 13, 61, 44
16, 47159, Note_on_c, 13, 61, 0
16, 47280, Note_on_c, 13, 62, 44
16, 47399, Note_on_c, 13, 62, 0
16, 47520, Note_on_c, 13, 61, 44
16, 47639, Note_on_c, 13, 61, 0
16, 47760, Note_on_c, 13, 62, 44
16, 47879, Note_on_c, 13, 62, 0
16, 48000, Note_on_c, 13, 61, 44
16, 48119, Note_on_c, 13, 61, 0
16, 48240, Note_on_c, 13, 62, 44
16, 48359, Note_on_c, 13, 62, 0
16, 48480, Note_on_c, 13, 61, 44
16, 48599, Note_on_c, 13, 61, 0
16, 48720, Note_on_c, 13, 62, 44
16, 48839, Note_on_c, 13, 62, 0
16, 48960, Note_on_c, 13, 61, 44
16, 49079, Note_on_c, 13, 61, 0
16, 49200, Note_on_c, 13, 62, 44
16, 49319, Note_on_c, 13, 62, 0
16, 49440, Note_on_c, 13, 50, 44
16, 49559, Note_on_c, 13, 50, 0
16, 49680, Note_on_c, 13, 50, 44
16, 49799, Note_on_c, 13, 50, 0
16, 49920, Note_on_c, 13, 50, 44
16, 50039, Note_on_c, 13, 50, 0
16, 50160, Note_on_c, 13, 50, 44
16, 50279, Note_on_c, 13, 50, 0
16, 50400, Note_on_c, 13, 50, 44
16, 50519, Note_on_c, 13, 50, 0
16, 50640, Note_on_c, 13, 50, 44
16, 50759, Note_on_c, 13, 50, 0
16, 50880, Note_on_c, 13, 50, 44
16, 50999, Note_on_c, 13, 50, 0
16, 51120, Note_on_c, 13, 50, 44
16, 51239, Note_on_c, 13, 50, 0
16, 51360, Note_on_c, 13, 50, 44
16, 51479, Note_on_c, 13, 50, 0
16, 51600, Note_on_c, 13, 50, 44
16, 51719, Note_on_c, 13, 50, 0
16, 51840, Note_on_c, 13, 50, 44
16, 51959, Note_on_c, 13, 50, 0
16, 54720, Note_on_c, 13, 51, 44
16, 54839, Note_on_c, 13, 51, 0
16, 54960, Note_on_c, 13, 51, 44
16, 55079, Note_on_c, 13, 51, 0
16, 55200, Note_on_c, 13, 51, 44
16, 55319, Note_on_c, 13, 51, 0
16, 55440, Note_on_c, 13, 51, 44
16, 55559, Note_on_c, 13, 51, 0
16, 55680, Note_on_c, 13, 51, 44
16, 55799, Note_on_c, 13, 51, 0
16, 55920, Note_on_c, 13, 51, 44
16, 56039, Note_on_c, 13, 51, 0
16, 56160, Note_on_c, 13, 51, 44
16, 56279, Note_on_c, 13, 51, 0
16, 56400, Note_on_c, 13, 51, 44
16, 56519, Note_on_c, 13, 51, 0
16, 56640, Note_on_c, 13, 51, 44
16, 56759, Note_on_c, 13, 51, 0
16, 56880, Note_on_c, 13, 51, 44
16, 56999, Note_on_c, 13, 51, 0
16, 57120, Note_on_c, 13, 51, 44
16, 57239, Note_on_c, 13, 51, 0
16, 57360, Note_on_c, 13, 51, 44
16, 57479, Note_on_c, 13, 51, 0
16, 57600, Note_on_c, 13, 51, 44
16, 57719, Note_on_c, 13, 51, 0
16, 57840, Note_on_c, 13, 51, 44
16, 57959, Note_on_c, 13, 51, 0
16, 58080, Note_on_c, 13, 51, 44
16, 58199, Note_on_c, 13, 51, 0
16, 58320, Note_on_c, 13, 51, 44
16, 58439, Note_on_c, 13, 51, 0
16, 58560, Note_on_c, 13, 51, 44
16, 58679, Note_on_c, 13, 51, 0
16, 58800, Note_on_c, 13, 51, 44
16, 58919, Note_on_c, 13, 51, 0
16, 59040, Note_on_c, 13, 53, 44
16, 59159, Note_on_c, 13, 53, 0
16, 59280, Note_on_c, 13, 55, 44
16, 59489, Note_on_c, 13, 55, 0
16, 59520, Note_on_c, 13, 62, 44
16, 59729, Note_on_c, 13, 62, 0
16, 59760, Note_on_c, 13, 62, 44
16, 59969, Note_on_c, 13, 62, 0
16, 60000, Note_on_c, 13, 63, 44
16, 60209, Note_on_c, 13, 63, 0
16, 60240, Note_on_c, 13, 62, 44
16, 60449, Note_on_c, 13, 62, 0
16, 60480, Note_on_c, 13, 60, 44
16, 60689, Note_on_c, 13, 60, 0
16, 60720, Note_on_c, 13, 58, 44
16, 60929, Note_on_c, 13, 58, 0
16, 60960, Note_on_c, 13, 62, 44
16, 61169, Note_on_c, 13, 62, 0
16, 61200, Note_on_c, 13, 60, 44
16, 61409, Note_on_c, 13, 60, 0
16, 61440, Note_on_c, 13, 58, 44
16, 61649, Note_on_c, 13, 58, 0
16, 61680, Note_on_c, 13, 62, 44
16, 61889, Note_on_c, 13, 62, 0
16, 61920, Note_on_c, 13, 60, 44
16, 62129, Note_on_c, 13, 60, 0
16, 62160, Note_on_c, 13, 58, 44
16, 62369, Note_on_c, 13, 58, 0
16, 62400, Note_on_c, 13, 62, 44
16, 62609, Note_on_c, 13, 62, 0
16, 62640, Note_on_c, 13, 63, 44
16, 62849, Note_on_c, 13, 63, 0
16, 62880, Note_on_c, 13, 65, 44
16, 63089, Note_on_c, 13, 65, 0
16, 63120, Note_on_c, 13, 60, 44
16, 63329, Note_on_c, 13, 60, 0
16, 63360, Note_on_c, 13, 62, 44
16, 63569, Note_on_c, 13, 62, 0
16, 63600, Note_on_c, 13, 63, 44
16, 63809, Note_on_c, 13, 63, 0
16, 63840, Note_on_c, 13, 58, 44
16, 64049, Note_on_c, 13, 58, 0
16, 64080, Note_on_c, 13, 60, 44
16, 64289, Note_on_c, 13, 60, 0
16, 64320, Note_on_c, 13, 53, 44
16, 64529, Note_on_c, 13, 53, 0
16, 64560, Note_on_c, 13, 57, 44
16, 64769, Note_on_c, 13, 57, 0
16, 64800, Note_on_c, 13, 58, 44
16, 65009, Note_on_c, 13, 58, 0
16, 65040, Note_on_c, 13, 55, 44
16, 65249, Note_on_c, 13, 55, 0
16, 65280, Note_on_c, 13, 55, 44
16, 65489, Note_on_c, 13, 55, 0
16, 65520, Note_on_c, 13, 57, 44
16, 65729, Note_on_c, 13, 57, 0
16, 65760, Note_on_c, 13, 58, 44
16, 65879, Note_on_c, 13, 58, 0
16, 66000, Note_on_c, 13, 60, 57
16, 66119, Note_on_c, 13, 60, 0
16, 66240, Note_on_c, 13, 62, 70
16, 66359, Note_on_c, 13, 62, 0
16, 66480, Note_on_c, 13, 63, 84
16, 66689, Note_on_c, 13, 63, 0
16, 66720, Note_on_c, 13, 67, 84
16, 66929, Note_on_c, 13, 67, 0
16, 66960, Note_on_c, 13, 70, 84
16, 67169, Note_on_c, 13, 70, 0
16, 67200, Note_on_c, 13, 63, 84
16, 67409, Note_on_c, 13, 63, 0
16, 67440, Note_on_c, 13, 67, 84
16, 67649, Note_on_c, 13, 67, 0
16, 67680, Note_on_c, 13, 70, 84
16, 67889, Note_on_c, 13, 70, 0
16, 67920, Note_on_c, 13, 75, 84
16, 68129, Note_on_c, 13, 75, 0
16, 68160, Note_on_c, 13, 75, 84
16, 68369, Note_on_c, 13, 75, 0
16, 68400, Note_on_c, 13, 75, 84
16, 68609, Note_on_c, 13, 75, 0
16, 68640, Note_on_c, 13, 75, 84
16, 68849, Note_on_c, 13, 75, 0
16, 68880, Note_on_c, 13, 75, 84
16, 69089, Note_on_c, 13, 75, 0
16, 69120, Note_on_c, 13, 75, 84
16, 69329, Note_on_c, 13, 75, 0
16, 69360, Note_on_c, 13, 75, 84
16, 69599, Note_on_c, 13, 75, 0
16, 69600, Note_on_c, 13, 77, 84
16, 69719, Note_on_c, 13, 77, 0
16, 69720, Note_on_c, 13, 75, 84
16, 69839, Note_on_c, 13, 75, 0
16, 69840, Note_on_c, 13, 74, 84
16, 69959, Note_on_c, 13, 74, 0
16, 69960, Note_on_c, 13, 72, 84
16, 70049, Note_on_c, 13, 72, 0
16, 70080, Note_on_c, 13, 70, 84
16, 70769, Note_on_c, 13, 70, 0
16, 70800, Note_on_c, 13, 68, 92
16, 71489, Note_on_c, 13, 68, 0
16, 71520, Note_on_c, 13, 67, 84
16, 71759, Note_on_c, 13, 67, 0
16, 71760, Note_on_c, 13, 70, 84
16, 71969, Note_on_c, 13, 70, 0
16, 72000, Note_on_c, 13, 67, 84
16, 72119, Note_on_c, 13, 67, 0
16, 72240, Note_on_c, 13, 65, 84
16, 72479, Note_on_c, 13, 65, 0
16, 72480, Note_on_c, 13, 70, 84
16, 72689, Note_on_c, 13, 70, 0
16, 72720, Note_on_c, 13, 65, 84
16, 72839, Note_on_c, 13, 65, 0
16, 72960, Note_on_c, 13, 63, 84
16, 73079, Note_on_c, 13, 63, 0
16, 73200, Note_on_c, 13, 67, 84
16, 73319, Note_on_c, 13, 67, 0
16, 73440, Note_on_c, 13, 70, 84
16, 73559, Note_on_c, 13, 70, 0
16, 73680, Note_on_c, 13, 68, 92
16, 74369, Note_on_c, 13, 68, 0
16, 74400, Note_on_c, 13, 67, 84
16, 74639, Note_on_c, 13, 67, 0
16, 74640, Note_on_c, 13, 70, 84
16, 74849, Note_on_c, 13, 70, 0
16, 74880, Note_on_c, 13, 67, 84
16, 74999, Note_on_c, 13, 67, 0
16, 75120, Note_on_c, 13, 65, 84
16, 75359, Note_on_c, 13, 65, 0
16, 75360, Note_on_c, 13, 68, 84
16, 75569, Note_on_c, 13, 68, 0
16, 75600, Note_on_c, 13, 65, 84
16, 75719, Note_on_c, 13, 65, 0
16, 75840, Note_on_c, 13, 63, 84
16, 75959, Note_on_c, 13, 63, 0
16, 76080, Note_on_c, 13, 68, 84
16, 76199, Note_on_c, 13, 68, 0
16, 76320, Note_on_c, 13, 63, 84
16, 76439, Note_on_c, 13, 63, 0
16, 76560, Note_on_c, 13, 61, 92
16, 77249, Note_on_c, 13, 61, 0
16, 77280, Note_on_c, 13, 60, 84
16, 77519, Note_on_c, 13, 60, 0
16, 77520, Note_on_c, 13, 63, 84
16, 77729, Note_on_c, 13, 63, 0
16, 77760, Note_on_c, 13, 60, 84
16, 77879, Note_on_c, 13, 60, 0
16, 78000, Note_on_c, 13, 63, 84
16, 78119, Note_on_c, 13, 63, 0
16, 78240, Note_on_c, 13, 58, 84
16, 78359, Note_on_c, 13, 58, 0
16, 78480, Note_on_c, 13, 63, 84
16, 78599, Note_on_c, 13, 63, 0
16, 78720, Note_on_c, 13, 56, 84
16, 78839, Note_on_c, 13, 56, 0
16, 78960, Note_on_c, 13, 68, 84
16, 79079, Note_on_c, 13, 68, 0
16, 79200, Note_on_c, 13, 56, 84
16, 79319, Note_on_c, 13, 56, 0
16, 79440, Note_on_c, 13, 67, 84
16, 79559, Note_on_c, 13, 67, 0
16, 79680, Note_on_c, 13, 55, 84
16, 79799, Note_on_c, 13, 55, 0
16, 79920, Note_on_c, 13, 67, 84
16, 80039, Note_on_c, 13, 67, 0
16, 80160, Note_on_c, 13, 56, 84
16, 80279, Note_on_c, 13, 56, 0
16, 80400, Note_on_c, 13, 65, 84
16, 80519, Note_on_c, 13, 65, 0
16, 80640, Note_on_c, 13, 56, 84
16, 80759, Note_on_c, 13, 56, 0
16, 80880, Note_on_c, 13, 67, 84
16, 80999, Note_on_c, 13, 67, 0
16, 81120, Note_on_c, 13, 58, 84
16, 81239, Note_on_c, 13, 58, 0
16, 81360, Note_on_c, 13, 67, 84
16, 81479, Note_on_c, 13, 67, 0
16, 81600, Note_on_c, 13, 58, 84
16, 81719, Note_on_c, 13, 58, 0
16, 81840, Note_on_c, 13, 70, 84
16, 81959, Note_on_c, 13, 70, 0
16, 82080, Note_on_c, 13, 58, 84
16, 82199, Note_on_c, 13, 58, 0
16, 82320, Note_on_c, 13, 63, 84
16, 82439, Note_on_c, 13, 63, 0
16, 82560, Note_on_c, 13, 67, 92
16, 82919, Note_on_c, 13, 67, 0
16, 83040, Note_on_c, 13, 63, 84
16, 83159, Note_on_c, 13, 63, 0
16, 83280, Note_on_c, 13, 58, 92
16, 83639, Note_on_c, 13, 58, 0
16, 83760, Note_on_c, 13, 55, 84
16, 83879, Note_on_c, 13, 55, 0
16, 84000, Note_on_c, 13, 51, 92
16, 84359, Note_on_c, 13, 51, 0
16, 84480, Note_on_c, 13, 58, 84
16, 84719, Note_on_c, 13, 58, 0
16, 84960, Note_on_c, 13, 56, 84
16, 85019, Note_on_c, 13, 56, 0
16, 85020, Note_on_c, 13, 58, 84
16, 85079, Note_on_c, 13, 58, 0
16, 85080, Note_on_c, 13, 55, 84
16, 85139, Note_on_c, 13, 55, 0
16, 85140, Note_on_c, 13, 56, 84
16, 85199, Note_on_c, 13, 56, 0
16, 85200, Note_on_c, 13, 55, 84
16, 85439, Note_on_c, 13, 55, 0
16, 86880, Note_on_c, 13, 58, 52
16, 87089, Note_on_c, 13, 58, 0
16, 87120, Note_on_c, 13, 58, 52
16, 87329, Note_on_c, 13, 58, 0
16, 87360, Note_on_c, 13, 58, 52
16, 87569, Note_on_c, 13, 58, 0
16, 87600, Note_on_c, 13, 58, 52
16, 87809, Note_on_c, 13, 58, 0
16, 87840, Note_on_c, 13, 58, 52
16, 88049, Note_on_c, 13, 58, 0
16, 88080, Note_on_c, 13, 63, 76
16, 88199, Note_on_c, 13, 63, 0
16, 88320, Note_on_c, 13, 67, 84
16, 88769, Note_on_c, 13, 67, 0
16, 88800, Note_on_c, 13, 63, 76
16, 89009, Note_on_c, 13, 63, 0
16, 89040, Note_on_c, 13, 58, 84
16, 89489, Note_on_c, 13, 58, 0
16, 89520, Note_on_c, 13, 55, 76
16, 89729, Note_on_c, 13, 55, 0
16, 89760, Note_on_c, 13, 63, 84
16, 90209, Note_on_c, 13, 63, 0
16, 90240, Note_on_c, 13, 58, 76
16, 90479, Note_on_c, 13, 58, 0
16, 90720, Note_on_c, 13, 56, 76
16, 90779, Note_on_c, 13, 56, 0
16, 90780, Note_on_c, 13, 58, 76
16, 90839, Note_on_c, 13, 58, 0
16, 90840, Note_on_c, 13, 55, 76
16, 90899, Note_on_c, 13, 55, 0
16, 90900, Note_on_c, 13, 56, 76
16, 90959, Note_on_c, 13, 56, 0
16, 90960, Note_on_c, 13, 55, 76
16, 91199, Note_on_c, 13, 55, 0
16, 92640, Note_on_c, 13, 67, 52
16, 92759, Note_on_c, 13, 67, 0
16, 92880, Note_on_c, 13, 68, 52
16, 92999, Note_on_c, 13, 68, 0
16, 93120, Note_on_c, 13, 67, 52
16, 93239, Note_on_c, 13, 67, 0
16, 93360, Note_on_c, 13, 68, 52
16, 93479, Note_on_c, 13, 68, 0
16, 93600, Note_on_c, 13, 67, 52
16, 93719, Note_on_c, 13, 67, 0
16, 93840, Note_on_c, 13, 68, 52
16, 93959, Note_on_c, 13, 68, 0
16, 95520, Note_on_c, 13, 65, 52
16, 95639, Note_on_c, 13, 65, 0
16, 95760, Note_on_c, 13, 67, 52
16, 95879, Note_on_c, 13, 67, 0
16, 96000, Note_on_c, 13, 65, 52
16, 96119, Note_on_c, 13, 65, 0
16, 96240, Note_on_c, 13, 67, 52
16, 96359, Note_on_c, 13, 67, 0
16, 96480, Note_on_c, 13, 65, 52
16, 96599, Note_on_c, 13, 65, 0
16, 96720, Note_on_c, 13, 67, 52
16, 96839, Note_on_c, 13, 67, 0
16, 98400, Note_on_c, 13, 65, 52
16, 98519, Note_on_c, 13, 65, 0
16, 98640, Note_on_c, 13, 67, 52
16, 98759, Note_on_c, 13, 67, 0
16, 98880, Note_on_c, 13, 65, 52
16, 98999, Note_on_c, 13, 65, 0
16, 99120, Note_on_c, 13, 67, 52
16, 99239, Note_on_c, 13, 67, 0
16, 99360, Note_on_c, 13, 65, 52
16, 99479, Note_on_c, 13, 65, 0
16, 99600, Note_on_c, 13, 67, 52
16, 99719, Note_on_c, 13, 67, 0
16, 101280, Note_on_c, 13, 56, 52
16, 101399, Note_on_c, 13, 56, 0
16, 101520, Note_on_c, 13, 55, 52
16, 101639, Note_on_c, 13, 55, 0
16, 101760, Note_on_c, 13, 56, 52
16, 101879, Note_on_c, 13, 56, 0
16, 102000, Note_on_c, 13, 55, 52
16, 102119, Note_on_c, 13, 55, 0
16, 102240, Note_on_c, 13, 56, 52
16, 102359, Note_on_c, 13, 56, 0
16, 102480, Note_on_c, 13, 55, 52
16, 102599, Note_on_c, 13, 55, 0
16, 103200, Note_on_c, 13, 56, 52
16, 103439, Note_on_c, 13, 56, 0
16, 103920, Note_on_c, 13, 53, 52
16, 104159, Note_on_c, 13, 53, 0
16, 104640, Note_on_c, 13, 58, 52
16, 104879, Note_on_c, 13, 58, 0
16, 105360, Note_on_c, 13, 55, 52
16, 105599, Note_on_c, 13, 55, 0
16, 106080, Note_on_c, 13, 60, 52
16, 106319, Note_on_c, 13, 60, 0
16, 106800, Note_on_c, 13, 56, 52
16, 107039, Note_on_c, 13, 56, 0
16, 107520, Note_on_c, 13, 58, 52
16, 107759, Note_on_c, 13, 58, 0
16, 108240, Note_on_c, 13, 63, 52
16, 108359, Note_on_c, 13, 63, 0
16, 108480, Note_on_c, 13, 67, 52
16, 108599, Note_on_c, 13, 67, 0
16, 108720, Note_on_c, 13, 62, 52
16, 108839, Note_on_c, 13, 62, 0
16, 108960, Note_on_c, 13, 63, 52
16, 109079, Note_on_c, 13, 63, 0
16, 109200, Note_on_c, 13, 59, 52
16, 109319, Note_on_c, 13, 59, 0
16, 109440, Note_on_c, 13, 60, 52
16, 109559, Note_on_c, 13, 60, 0
16, 109680, Note_on_c, 13, 56, 52
16, 109799, Note_on_c, 13, 56, 0
16, 109920, Note_on_c, 13, 68, 52
16, 110039, Note_on_c, 13, 68, 0
16, 110160, Note_on_c, 13, 64, 52
16, 110279, Note_on_c, 13, 64, 0
16, 110400, Note_on_c, 13, 65, 52
16, 110519, Note_on_c, 13, 65, 0
16, 110640, Note_on_c, 13, 61, 52
16, 110759, Note_on_c, 13, 61, 0
16, 110880, Note_on_c, 13, 62, 52
16, 110999, Note_on_c, 13, 62, 0
16, 111120, Note_on_c, 13, 58, 52
16, 111239, Note_on_c, 13, 58, 0
16, 111360, Note_on_c, 13, 70, 54
16, 111479, Note_on_c, 13, 70, 0
16, 111600, Note_on_c, 13, 66, 57
16, 111719, Note_on_c, 13, 66, 0
16, 111840, Note_on_c, 13, 67, 60
16, 111959, Note_on_c, 13, 67, 0
16, 112080, Note_on_c, 13, 62, 62
16, 112199, Note_on_c, 13, 62, 0
16, 112320, Note_on_c, 13, 63, 65
16, 112439, Note_on_c, 13, 63, 0
16, 112560, Note_on_c, 13, 60, 68
16, 112679, Note_on_c, 13, 60, 0
16, 112800, Note_on_c, 13, 55, 70
16, 112919, Note_on_c, 13, 55, 0
16, 113040, Note_on_c, 13, 56, 73
16, 113159, Note_on_c, 13, 56, 0
16, 113280, Note_on_c, 13, 53, 76
16, 113489, Note_on_c, 13, 53, 0
16, 113520, Note_on_c, 13, 61, 78
16, 113729, Note_on_c, 13, 61, 0
16, 113760, Note_on_c, 13, 62, 81
16, 113969, Note_on_c, 13, 62, 0
16, 114000, Note_on_c, 13, 58, 84
16, 114209, Note_on_c, 13, 58, 0
16, 114240, Note_on_c, 13, 65, 84
16, 114449, Note_on_c, 13, 65, 0
16, 114480, Note_on_c, 13, 62, 84
16, 114689, Note_on_c, 13, 62, 0
16, 114720, Note_on_c, 13, 58, 84
16, 114929, Note_on_c, 13, 58, 0
16, 114960, Note_on_c, 13, 74, 84
16, 115169, Note_on_c, 13, 74, 0
16, 115200, Note_on_c, 13, 70, 84
16, 115409, Note_on_c, 13, 70, 0
16, 115440, Note_on_c, 13, 58, 84
16, 115649, Note_on_c, 13, 58, 0
16, 115680, Note_on_c, 13, 65, 84
16, 115889, Note_on_c, 13, 65, 0
16, 115920, Note_on_c, 13, 62, 84
16, 116129, Note_on_c, 13, 62, 0
16, 116160, Note_on_c, 13, 58, 84
16, 116369, Note_on_c, 13, 58, 0
16, 116400, Note_on_c, 13, 60, 84
16, 116609, Note_on_c, 13, 60, 0
16, 116640, Note_on_c, 13, 62, 84
16, 116849, Note_on_c, 13, 62, 0
16, 116880, Note_on_c, 13, 63, 76
16, 117119, Note_on_c, 13, 63, 0
16, 117600, Note_on_c, 13, 58, 76
16, 117839, Note_on_c, 13, 58, 0
16, 118080, Note_on_c, 13, 58, 76
16, 118289, Note_on_c, 13, 58, 0
16, 118320, Note_on_c, 13, 58, 76
16, 118559, Note_on_c, 13, 58, 0
16, 120960, Note_on_c, 13, 63, 44
16, 121079, Note_on_c, 13, 63, 0
16, 121200, Note_on_c, 13, 63, 44
16, 121319, Note_on_c, 13, 63, 0
16, 121440, Note_on_c, 13, 68, 44
16, 121559, Note_on_c, 13, 68, 0
16, 121680, Note_on_c, 13, 63, 44
16, 121799, Note_on_c, 13, 63, 0
16, 121920, Note_on_c, 13, 68, 44
16, 122039, Note_on_c, 13, 68, 0
16, 122160, Note_on_c, 13, 63, 44
16, 122279, Note_on_c, 13, 63, 0
16, 122400, Note_on_c, 13, 68, 44
16, 122519, Note_on_c, 13, 68, 0
16, 122640, Note_on_c, 13, 63, 44
16, 122759, Note_on_c, 13, 63, 0
16, 122880, Note_on_c, 13, 68, 44
16, 122999, Note_on_c, 13, 68, 0
16, 123120, Note_on_c, 13, 63, 44
16, 123239, Note_on_c, 13, 63, 0
16, 123360, Note_on_c, 13, 68, 44
16, 123479, Note_on_c, 13, 68, 0
16, 123600, Note_on_c, 13, 65, 44
16, 123719, Note_on_c, 13, 65, 0
16, 123840, Note_on_c, 13, 66, 44
16, 123959, Note_on_c, 13, 66, 0
16, 124080, Note_on_c, 13, 66, 44
16, 124199, Note_on_c, 13, 66, 0
16, 124320, Note_on_c, 13, 65, 44
16, 124439, Note_on_c, 13, 65, 0
16, 124560, Note_on_c, 13, 68, 44
16, 124679, Note_on_c, 13, 68, 0
16, 124800, Note_on_c, 13, 68, 44
16, 124919, Note_on_c, 13, 68, 0
16, 125040, Note_on_c, 13, 65, 44
16, 125159, Note_on_c, 13, 65, 0
16, 125280, Note_on_c, 13, 68, 44
16, 125399, Note_on_c, 13, 68, 0
16, 125520, Note_on_c, 13, 68, 44
16, 125639, Note_on_c, 13, 68, 0
16, 125760, Note_on_c, 13, 67, 44
16, 125879, Note_on_c, 13, 67, 0
16, 126000, Note_on_c, 13, 70, 44
16, 126119, Note_on_c, 13, 70, 0
16, 126240, Note_on_c, 13, 70, 44
16, 126359, Note_on_c, 13, 70, 0
16, 126480, Note_on_c, 13, 67, 44
16, 126599, Note_on_c, 13, 67, 0
16, 126720, Note_on_c, 13, 70, 44
16, 126839, Note_on_c, 13, 70, 0
16, 126960, Note_on_c, 13, 69, 44
16, 127079, Note_on_c, 13, 69, 0
16, 127200, Note_on_c, 13, 57, 44
16, 127319, Note_on_c, 13, 57, 0
16, 127440, Note_on_c, 13, 55, 44
16, 127559, Note_on_c, 13, 55, 0
16, 127680, Note_on_c, 13, 53, 44
16, 127799, Note_on_c, 13, 53, 0
16, 127920, Note_on_c, 13, 57, 44
16, 128039, Note_on_c, 13, 57, 0
16, 128160, Note_on_c, 13, 55, 44
16, 128279, Note_on_c, 13, 55, 0
16, 128400, Note_on_c, 13, 53, 44
16, 128519, Note_on_c, 13, 53, 0
16, 128640, Note_on_c, 13, 53, 44
16, 128759, Note_on_c, 13, 53, 0
16, 128880, Note_on_c, 13, 55, 44
16, 128999, Note_on_c, 13, 55, 0
16, 129120, Note_on_c, 13, 57, 44
16, 129239, Note_on_c, 13, 57, 0
16, 129360, Note_on_c, 13, 52, 44
16, 129479, Note_on_c, 13, 52, 0
16, 129600, Note_on_c, 13, 53, 44
16, 129719, Note_on_c, 13, 53, 0
16, 129840, Note_on_c, 13, 55, 44
16, 129959, Note_on_c, 13, 55, 0
16, 130080, Note_on_c, 13, 50, 44
16, 130199, Note_on_c, 13, 50, 0
16, 130320, Note_on_c, 13, 52, 44
16, 130439, Note_on_c, 13, 52, 0
16, 130560, Note_on_c, 13, 53, 44
16, 130799, Note_on_c, 13, 53, 0
16, 130800, Note_on_c, 13, 57, 44
16, 131009, Note_on_c, 13, 57, 0
16, 131040, Note_on_c, 13, 60, 44
16, 131159, Note_on_c, 13, 60, 0
16, 131280, Note_on_c, 13, 58, 44
16, 131519, Note_on_c, 13, 58, 0
16, 131520, Note_on_c, 13, 55, 44
16, 131729, Note_on_c, 13, 55, 0
16, 131760, Note_on_c, 13, 58, 44
16, 131879, Note_on_c, 13, 58, 0
16, 132000, Note_on_c, 13, 53, 44
16, 132119, Note_on_c, 13, 53, 0
16, 132240, Note_on_c, 13, 57, 44
16, 132359, Note_on_c, 13, 57, 0
16, 132480, Note_on_c, 13, 60, 44
16, 132599, Note_on_c, 13, 60, 0
16, 132720, Note_on_c, 13, 58, 52
16, 133409, Note_on_c, 13, 58, 0
16, 133440, Note_on_c, 13, 57, 44
16, 133679, Note_on_c, 13, 57, 0
16, 133680, Note_on_c, 13, 60, 44
16, 133889, Note_on_c, 13, 60, 0
16, 133920, Note_on_c, 13, 57, 44
16, 134039, Note_on_c, 13, 57, 0
16, 134160, Note_on_c, 13, 55, 44
16, 134399, Note_on_c, 13, 55, 0
16, 134400, Note_on_c, 13, 58, 44
16, 134609, Note_on_c, 13, 58, 0
16, 134640, Note_on_c, 13, 55, 44
16, 134759, Note_on_c, 13, 55, 0
16, 134880, Note_on_c, 13, 53, 44
16, 135119, Note_on_c, 13, 53, 0
16, 135120, Note_on_c, 13, 57, 44
16, 135329, Note_on_c, 13, 57, 0
16, 135360, Note_on_c, 13, 53, 44
16, 135479, Note_on_c, 13, 53, 0
16, 135600, Note_on_c, 13, 60, 52
16, 136289, Note_on_c, 13, 60, 0
16, 136320, Note_on_c, 13, 58, 44
16, 136559, Note_on_c, 13, 58, 0
16, 136560, Note_on_c, 13, 62, 44
16, 136769, Note_on_c, 13, 62, 0
16, 136800, Note_on_c, 13, 58, 44
16, 136919, Note_on_c, 13, 58, 0
16, 137040, Note_on_c, 13, 57, 44
16, 137279, Note_on_c, 13, 57, 0
16, 137280, Note_on_c, 13, 60, 44
16, 137489, Note_on_c, 13, 60, 0
16, 137520, Note_on_c, 13, 57, 44
16, 137639, Note_on_c, 13, 57, 0
16, 137760, Note_on_c, 13, 55, 44
16, 137999, Note_on_c, 13, 55, 0
16, 138000, Note_on_c, 13, 58, 44
16, 138209, Note_on_c, 13, 58, 0
16, 138240, Note_on_c, 13, 58, 44
16, 138359, Note_on_c, 13, 58, 0
16, 138480, Note_on_c, 13, 57, 44
16, 138599, Note_on_c, 13, 57, 0
16, 138720, Note_on_c, 13, 54, 44
16, 138839, Note_on_c, 13, 54, 0
16, 138960, Note_on_c, 13, 62, 44
16, 139079, Note_on_c, 13, 62, 0
16, 139200, Note_on_c, 13, 62, 44
16, 139319, Note_on_c, 13, 62, 0
16, 139440, Note_on_c, 13, 58, 44
16, 139559, Note_on_c, 13, 58, 0
16, 139680, Note_on_c, 13, 55, 44
16, 139799, Note_on_c, 13, 55, 0
16, 139920, Note_on_c, 13, 54, 44
16, 140039, Note_on_c, 13, 54, 0
16, 140160, Note_on_c, 13, 62, 44
16, 140279, Note_on_c, 13, 62, 0
16, 140400, Note_on_c, 13, 62, 44
16, 140519, Note_on_c, 13, 62, 0
16, 140640, Note_on_c, 13, 62, 44
16, 140759, Note_on_c, 13, 62, 0
16, 140880, Note_on_c, 13, 62, 44
16, 140999, Note_on_c, 13, 62, 0
16, 141120, Note_on_c, 13, 67, 44
16, 141239, Note_on_c, 13, 67, 0
16, 141360, Note_on_c, 13, 66, 44
16, 141479, Note_on_c, 13, 66, 0
16, 141600, Note_on_c, 13, 73, 44
16, 141719, Note_on_c, 13, 73, 0
16, 141840, Note_on_c, 13, 74, 44
16, 141959, Note_on_c, 13, 74, 0
16, 142080, Note_on_c, 13, 69, 44
16, 142199, Note_on_c, 13, 69, 0
16, 142320, Note_on_c, 13, 70, 44
16, 142439, Note_on_c, 13, 70, 0
16, 142560, Note_on_c, 13, 66, 44
16, 142679, Note_on_c, 13, 66, 0
16, 142800, Note_on_c, 13, 67, 44
16, 142919, Note_on_c, 13, 67, 0
16, 143040, Note_on_c, 13, 62, 44
16, 143159, Note_on_c, 13, 62, 0
16, 143280, Note_on_c, 13, 63, 44
16, 143399, Note_on_c, 13, 63, 0
16, 143520, Note_on_c, 13, 62, 44
16, 143639, Note_on_c, 13, 62, 0
16, 143760, Note_on_c, 13, 63, 44
16, 143879, Note_on_c, 13, 63, 0
16, 144000, Note_on_c, 13, 61, 44
16, 144119, Note_on_c, 13, 61, 0
16, 144240, Note_on_c, 13, 62, 44
16, 144359, Note_on_c, 13, 62, 0
16, 144480, Note_on_c, 13, 61, 44
16, 144599, Note_on_c, 13, 61, 0
16, 144720, Note_on_c, 13, 62, 44
16, 144839, Note_on_c, 13, 62, 0
16, 144960, Note_on_c, 13, 61, 44
16, 145079, Note_on_c, 13, 61, 0
16, 145200, Note_on_c, 13, 62, 44
16, 145319, Note_on_c, 13, 62, 0
16, 145440, Note_on_c, 13, 61, 44
16, 145559, Note_on_c, 13, 61, 0
16, 145680, Note_on_c, 13, 62, 44
16, 145799, Note_on_c, 13, 62, 0
16, 145920, Note_on_c, 13, 61, 44
16, 146039, Note_on_c, 13, 61, 0
16, 146160, Note_on_c, 13, 62, 44
16, 146279, Note_on_c, 13, 62, 0
16, 146400, Note_on_c, 13, 61, 44
16, 146519, Note_on_c, 13, 61, 0
16, 146640, Note_on_c, 13, 62, 44
16, 146759, Note_on_c, 13, 62, 0
16, 146880, Note_on_c, 13, 61, 44
16, 146999, Note_on_c, 13, 61, 0
16, 147120, Note_on_c, 13, 62, 44
16, 147239, Note_on_c, 13, 62, 0
16, 147360, Note_on_c, 13, 50, 44
16, 147479, Note_on_c, 13, 50, 0
16, 147600, Note_on_c, 13, 50, 44
16, 147719, Note_on_c, 13, 50, 0
16, 147840, Note_on_c, 13, 50, 44
16, 147959, Note_on_c, 13, 50, 0
16, 148080, Note_on_c, 13, 50, 44
16, 148199, Note_on_c, 13, 50, 0
16, 148320, Note_on_c, 13, 50, 44
16, 148439, Note_on_c, 13, 50, 0
16, 148560, Note_on_c, 13, 50, 44
16, 148679, Note_on_c, 13, 50, 0
16, 148800, Note_on_c, 13, 50, 44
16, 148919, Note_on_c, 13, 50, 0
16, 149040, Note_on_c, 13, 50, 44
16, 149159, Note_on_c, 13, 50, 0
16, 149280, Note_on_c, 13, 50, 44
16, 149399, Note_on_c, 13, 50, 0
16, 149520, Note_on_c, 13, 50, 44
16, 149639, Note_on_c, 13, 50, 0
16, 149760, Note_on_c, 13, 50, 44
16, 149879, Note_on_c, 13, 50, 0
16, 152640, Note_on_c, 13, 51, 44
16, 152759, Note_on_c, 13, 51, 0
16, 152880, Note_on_c, 13, 51, 44
16, 152999, Note_on_c, 13, 51, 0
16, 153120, Note_on_c, 13, 51, 44
16, 153239, Note_on_c, 13, 51, 0
16, 153360, Note_on_c, 13, 51, 44
16, 153479, Note_on_c, 13, 51, 0
16, 153600, Note_on_c, 13, 51, 44
16, 153719, Note_on_c, 13, 51, 0
16, 153840, Note_on_c, 13, 51, 44
16, 153959, Note_on_c, 13, 51, 0
16, 154080, Note_on_c, 13, 51, 44
16, 154199, Note_on_c, 13, 51, 0
16, 154320, Note_on_c, 13, 51, 44
16, 154439, Note_on_c, 13, 51, 0
16, 154560, Note_on_c, 13, 51, 44
16, 154679, Note_on_c, 13, 51, 0
16, 154800, Note_on_c, 13, 51, 44
16, 154919, Note_on_c, 13, 51, 0
16, 155040, Note_on_c, 13, 51, 44
16, 155159, Note_on_c, 13, 51, 0
16, 155280, Note_on_c, 13, 51, 44
16, 155399, Note_on_c, 13, 51, 0
16, 155520, Note_on_c, 13, 51, 44
16, 155639, Note_on_c, 13, 51, 0
16, 155760, Note_on_c, 13, 51, 44
16, 155879, Note_on_c, 13, 51, 0
16, 156000, Note_on_c, 13, 51, 44
16, 156119, Note_on_c, 13, 51, 0
16, 156240, Note_on_c, 13, 51, 44
16, 156359, Note_on_c, 13, 51, 0
16, 156480, Note_on_c, 13, 51, 44
16, 156599, Note_on_c, 13, 51, 0
16, 156720, Note_on_c, 13, 51, 44
16, 156839, Note_on_c, 13, 51, 0
16, 156960, Note_on_c, 13, 53, 44
16, 157079, Note_on_c, 13, 53, 0
16, 157200, Note_on_c, 13, 55, 44
16, 157409, Note_on_c, 13, 55, 0
16, 157440, Note_on_c, 13, 62, 44
16, 157649, Note_on_c, 13, 62, 0
16, 157680, Note_on_c, 13, 62, 44
16, 157889, Note_on_c, 13, 62, 0
16, 157920, Note_on_c, 13, 63, 44
16, 158129, Note_on_c, 13, 63, 0
16, 158160, Note_on_c, 13, 62, 44
16, 158369, Note_on_c, 13, 62, 0
16, 158400, Note_on_c, 13, 60, 44
16, 158609, Note_on_c, 13, 60, 0
16, 158640, Note_on_c, 13, 58, 44
16, 158849, Note_on_c, 13, 58, 0
16, 158880, Note_on_c, 13, 62, 44
16, 159089, Note_on_c, 13, 62, 0
16, 159120, Note_on_c, 13, 60, 44
16, 159329, Note_on_c, 13, 60, 0
16, 159360, Note_on_c, 13, 58, 44
16, 159569, Note_on_c, 13, 58, 0
16, 159600, Note_on_c, 13, 62, 44
16, 159809, Note_on_c, 13, 62, 0
16, 159840, Note_on_c, 13, 60, 44
16, 160049, Note_on_c, 13, 60, 0
16, 160080, Note_on_c, 13, 58, 44
16, 160289, Note_on_c, 13, 58, 0
16, 160320, Note_on_c, 13, 62, 44
16, 160529, Note_on_c, 13, 62, 0
16, 160560, Note_on_c, 13, 63, 44
16, 160769, Note_on_c, 13, 63, 0
16, 160800, Note_on_c, 13, 65, 44
16, 161009, Note_on_c, 13, 65, 0
16, 161040, Note_on_c, 13, 60, 44
16, 161249, Note_on_c, 13, 60, 0
16, 161280, Note_on_c, 13, 62, 44
16, 161489, Note_on_c, 13, 62, 0
16, 161520, Note_on_c, 13, 63, 44
16, 161729, Note_on_c, 13, 63, 0
16, 161760, Note_on_c, 13, 58, 44
16, 161969, Note_on_c, 13, 58, 0
16, 162000, Note_on_c, 13, 60, 44
16, 162209, Note_on_c, 13, 60, 0
16, 162240, Note_on_c, 13, 53, 44
16, 162449, Note_on_c, 13, 53, 0
16, 162480, Note_on_c, 13, 57, 44
16, 162689, Note_on_c, 13, 57, 0
16, 162720, Note_on_c, 13, 58, 44
16, 162929, Note_on_c, 13, 58, 0
16, 162960, Note_on_c, 13, 55, 44
16, 163169, Note_on_c, 13, 55, 0
16, 163200, Note_on_c, 13, 55, 44
16, 163409, Note_on_c, 13, 55, 0
16, 163440, Note_on_c, 13, 57, 44
16, 163649, Note_on_c, 13, 57, 0
16, 163680, Note_on_c, 13, 58, 44
16, 163799, Note_on_c, 13, 58, 0
16, 163920, Note_on_c, 13, 60, 57
16, 164039, Note_on_c, 13, 60, 0
16, 164160, Note_on_c, 13, 62, 70
16, 164279, Note_on_c, 13, 62, 0
16, 164400, Note_on_c, 13, 63, 84
16, 164609, Note_on_c, 13, 63, 0
16, 164640, Note_on_c, 13, 67, 84
16, 164849, Note_on_c, 13, 67, 0
16, 164880, Note_on_c, 13, 70, 84
16, 165089, Note_on_c, 13, 70, 0
16, 165120, Note_on_c, 13, 63, 84
16, 165329, Note_on_c, 13, 63, 0
16, 165360, Note_on_c, 13, 67, 84
16, 165569, Note_on_c, 13, 67, 0
16, 165600, Note_on_c, 13, 70, 84
16, 165809, Note_on_c, 13, 70, 0
16, 165840, Note_on_c, 13, 75, 84
16, 166049, Note_on_c, 13, 75, 0
16, 166080, Note_on_c, 13, 75, 84
16, 166289, Note_on_c, 13, 75, 0
16, 166320, Note_on_c, 13, 75, 84
16, 166529, Note_on_c, 13, 75, 0
16, 166560, Note_on_c, 13, 75, 84
16, 166769, Note_on_c, 13, 75, 0
16, 166800, Note_on_c, 13, 75, 84
16, 167009, Note_on_c, 13, 75, 0
16, 167040, Note_on_c, 13, 75, 84
16, 167249, Note_on_c, 13, 75, 0
16, 167280, Note_on_c, 13, 75, 84
16, 167519, Note_on_c, 13, 75, 0
16, 167520, Note_on_c, 13, 77, 84
16, 167639, Note_on_c, 13, 77, 0
16, 167640, Note_on_c, 13, 75, 84
16, 167759, Note_on_c, 13, 75, 0
16, 167760, Note_on_c, 13, 74, 84
16, 167879, Note_on_c, 13, 74, 0
16, 167880, Note_on_c, 13, 72, 84
16, 167969, Note_on_c, 13, 72, 0
16, 168000, Note_on_c, 13, 70, 84
16, 168689, Note_on_c, 13, 70, 0
16, 168720, Note_on_c, 13, 68, 92
16, 169409, Note_on_c, 13, 68, 0
16, 169440, Note_on_c, 13, 67, 84
16, 169679, Note_on_c, 13, 67, 0
16, 169680, Note_on_c, 13, 70, 84
16, 169889, Note_on_c, 13, 70, 0
16, 169920, Note_on_c, 13, 67, 84
16, 170039, Note_on_c, 13, 67, 0
16, 170160, Note_on_c, 13, 65, 84
16, 170399, Note_on_c, 13, 65, 0
16, 170400, Note_on_c, 13, 70, 84
16, 170609, Note_on_c, 13, 70, 0
16, 170640, Note_on_c, 13, 65, 84
16, 170759, Note_on_c, 13, 65, 0
16, 170880, Note_on_c, 13, 63, 84
16, 170999, Note_on_c, 13, 63, 0
16, 171120, Note_on_c, 13, 67, 84
16, 171239, Note_on_c, 13, 67, 0
16, 171360, Note_on_c, 13, 70, 84
16, 171479, Note_on_c, 13, 70, 0
16, 171600, Note_on_c, 13, 68, 92
16, 172289, Note_on_c, 13, 68, 0
16, 172320, Note_on_c, 13, 67, 84
16, 172559, Note_on_c, 13, 67, 0
16, 172560, Note_on_c, 13, 70, 84
16, 172769, Note_on_c, 13, 70, 0
16, 172800, Note_on_c, 13, 67, 84
16, 172919, Note_on_c, 13, 67, 0
16, 173040, Note_on_c, 13, 65, 84
16, 173279, Note_on_c, 13, 65, 0
16, 173280, Note_on_c, 13, 68, 84
16, 173489, Note_on_c, 13, 68, 0
16, 173520, Note_on_c, 13, 65, 84
16, 173639, Note_on_c, 13, 65, 0
16, 173760, Note_on_c, 13, 63, 84
16, 173879, Note_on_c, 13, 63, 0
16, 174000, Note_on_c, 13, 68, 84
16, 174119, Note_on_c, 13, 68, 0
16, 174240, Note_on_c, 13, 63, 84
16, 174359, Note_on_c, 13, 63, 0
16, 174480, Note_on_c, 13, 61, 92
16, 175169, Note_on_c, 13, 61, 0
16, 175200, Note_on_c, 13, 60, 84
16, 175439, Note_on_c, 13, 60, 0
16, 175440, Note_on_c, 13, 63, 84
16, 175649, Note_on_c, 13, 63, 0
16, 175680, Note_on_c, 13, 60, 84
16, 175799, Note_on_c, 13, 60, 0
16, 175920, Note_on_c, 13, 63, 84
16, 176039, Note_on_c, 13, 63, 0
16, 176160, Note_on_c, 13, 58, 84
16, 176279, Note_on_c, 13, 58, 0
16, 176400, Note_on_c, 13, 63, 84
16, 176519, Note_on_c, 13, 63, 0
16, 176640, Note_on_c, 13, 56, 84
16, 176759, Note_on_c, 13, 56, 0
16, 176880, Note_on_c, 13, 68, 84
16, 176999, Note_on_c, 13, 68, 0
16, 177120, Note_on_c, 13, 56, 84
16, 177239, Note_on_c, 13, 56, 0
16, 177360, Note_on_c, 13, 67, 84
16, 177479, Note_on_c, 13, 67, 0
16, 177600, Note_on_c, 13, 55, 84
16, 177719, Note_on_c, 13, 55, 0
16, 177840, Note_on_c, 13, 67, 84
16, 177959, Note_on_c, 13, 67, 0
16, 178080, Note_on_c, 13, 56, 84
16, 178199, Note_on_c, 13, 56, 0
16, 178320, Note_on_c, 13, 65, 84
16, 178439, Note_on_c, 13, 65, 0
16, 178560, Note_on_c, 13, 56, 84
16, 178679, Note_on_c, 13, 56, 0
16, 178800, Note_on_c, 13, 67, 84
16, 178919, Note_on_c, 13, 67, 0
16, 179040, Note_on_c, 13, 58, 84
16, 179159, Note_on_c, 13, 58, 0
16, 179280, Note_on_c, 13, 67, 84
16, 179399, Note_on_c, 13, 67, 0
16, 179520, Note_on_c, 13, 58, 84
16, 179639, Note_on_c, 13, 58, 0
16, 179760, Note_on_c, 13, 70, 84
16, 179879, Note_on_c, 13, 70, 0
16, 180000, Note_on_c, 13, 58, 84
16, 180119, Note_on_c, 13, 58, 0
16, 180240, Note_on_c, 13, 63, 84
16, 180359, Note_on_c, 13, 63, 0
16, 180480, Note_on_c, 13, 67, 92
16, 180839, Note_on_c, 13, 67, 0
16, 180960, Note_on_c, 13, 63, 84
16, 181079, Note_on_c, 13, 63, 0
16, 181200, Note_on_c, 13, 58, 92
16, 181559, Note_on_c, 13, 58, 0
16, 181680, Note_on_c, 13, 55, 84
16, 181799, Note_on_c, 13, 55, 0
16, 181920, Note_on_c, 13, 51, 92
16, 182279, Note_on_c, 13, 51, 0
16, 182400, Note_on_c, 13, 58, 84
16, 182639, Note_on_c, 13, 58, 0
16, 182880, Note_on_c, 13, 56, 84
16, 182939, Note_on_c, 13, 56, 0
16, 182940, Note_on_c, 13, 58, 84
16, 182999, Note_on_c, 13, 58, 0
16, 183000, Note_on_c, 13, 55, 84
16, 183059, Note_on_c, 13, 55, 0
16, 183060, Note_on_c, 13, 56, 84
16, 183119, Note_on_c, 13, 56, 0
16, 183120, Note_on_c, 13, 55, 84
16, 183359, Note_on_c, 13, 55, 0
16, 184800, Note_on_c, 13, 58, 52
16, 185009, Note_on_c, 13, 58, 0
16, 185040, Note_on_c, 13, 58, 52
16, 185249, Note_on_c, 13, 58, 0
16, 185280, Note_on_c, 13, 58, 52
16, 185489, Note_on_c, 13, 58, 0
16, 185520, Note_on_c, 13, 58, 52
16, 185729, Note_on_c, 13, 58, 0
16, 185760, Note_on_c, 13, 58, 52
16, 185969, Note_on_c, 13, 58, 0
16, 186000, Note_on_c, 13, 63, 76
16, 186119, Note_on_c, 13, 63, 0
16, 186240, Note_on_c, 13, 67, 84
16, 186689, Note_on_c, 13, 67, 0
16, 186720, Note_on_c, 13, 63, 76
16, 186929, Note_on_c, 13, 63, 0
16, 186960, Note_on_c, 13, 58, 84
16, 187409, Note_on_c, 13, 58, 0
16, 187440, Note_on_c, 13, 55, 76
16, 187649, Note_on_c, 13, 55, 0
16, 187680, Note_on_c, 13, 63, 84
16, 188129, Note_on_c, 13, 63, 0
16, 188160, Note_on_c, 13, 58, 76
16, 188399, Note_on_c, 13, 58, 0
16, 188640, Note_on_c, 13, 56, 76
16, 188699, Note_on_c, 13, 56, 0
16, 188700, Note_on_c, 13, 58, 76
16, 188759, Note_on_c, 13, 58, 0
16, 188760, Note_on_c, 13, 55, 76
16, 188819, Note_on_c, 13, 55, 0
16, 188820, Note_on_c, 13, 56, 76
16, 188879, Note_on_c, 13, 56, 0
16, 188880, Note_on_c, 13, 55, 76
16, 189119, Note_on_c, 13, 55, 0
16, 190560, Note_on_c, 13, 67, 52
16, 190679, Note_on_c, 13, 67, 0
16, 190800, Note_on_c, 13, 68, 52
16, 190919, Note_on_c, 13, 68, 0
16, 191040, Note_on_c, 13, 67, 52
16, 191159, Note_on_c, 13, 67, 0
16, 191280, Note_on_c, 13, 68, 52
16, 191399, Note_on_c, 13, 68, 0
16, 191520, Note_on_c, 13, 67, 52
16, 191639, Note_on_c, 13, 67, 0
16, 191760, Note_on_c, 13, 68, 52
16, 191879, Note_on_c, 13, 68, 0
16, 193440, Note_on_c, 13, 65, 52
16, 193559, Note_on_c, 13, 65, 0
16, 193680, Note_on_c, 13, 67, 52
16, 193799, Note_on_c, 13, 67, 0
16, 193920, Note_on_c, 13, 65, 52
16, 194039, Note_on_c, 13, 65, 0
16, 194160, Note_on_c, 13, 67, 52
16, 194279, Note_on_c, 13, 67, 0
16, 194400, Note_on_c, 13, 65, 52
16, 194519, Note_on_c, 13, 65, 0
16, 194640, Note_on_c, 13, 67, 52
16, 194759, Note_on_c, 13, 67, 0
16, 196320, Note_on_c, 13, 65, 52
16, 196439, Note_on_c, 13, 65, 0
16, 196560, Note_on_c, 13, 67, 52
16, 196679, Note_on_c, 13, 67, 0
16, 196800, Note_on_c, 13, 65, 52
16, 196919, Note_on_c, 13, 65, 0
16, 197040, Note_on_c, 13, 67, 52
16, 197159, Note_on_c, 13, 67, 0
16, 197280, Note_on_c, 13, 65, 52
16, 197399, Note_on_c, 13, 65, 0
16, 197520, Note_on_c, 13, 67, 52
16, 197639, Note_on_c, 13, 67, 0
16, 199200, Note_on_c, 13, 56, 52
16, 199319, Note_on_c, 13, 56, 0
16, 199440, Note_on_c, 13, 55, 52
16, 199559, Note_on_c, 13, 55, 0
16, 199680, Note_on_c, 13, 56, 52
16, 199799, Note_on_c, 13, 56, 0
16, 199920, Note_on_c, 13, 55, 52
16, 200039, Note_on_c, 13, 55, 0
16, 200160, Note_on_c, 13, 56, 52
16, 200279, Note_on_c, 13, 56, 0
16, 200400, Note_on_c, 13, 55, 52
16, 200519, Note_on_c, 13, 55, 0
16, 201120, Note_on_c, 13, 56, 52
16, 201359, Note_on_c, 13, 56, 0
16, 201840, Note_on_c, 13, 53, 52
16, 202079, Note_on_c, 13, 53, 0
16, 202560, Note_on_c, 13, 58, 52
16, 202799, Note_on_c, 13, 58, 0
16, 203280, Note_on_c, 13, 55, 52
16, 203519, Note_on_c, 13, 55, 0
16, 204000, Note_on_c, 13, 60, 52
16, 204239, Note_on_c, 13, 60, 0
16, 204720, Note_on_c, 13, 56, 52
16, 204959, Note_on_c, 13, 56, 0
16, 205440, Note_on_c, 13, 58, 52
16, 205679, Note_on_c, 13, 58, 0
16, 206160, Note_on_c, 13, 63, 52
16, 206279, Note_on_c, 13, 63, 0
16, 206400, Note_on_c, 13, 67, 52
16, 206519, Note_on_c, 13, 67, 0
16, 206640, Note_on_c, 13, 62, 52
16, 206759, Note_on_c, 13, 62, 0
16, 206880, Note_on_c, 13, 63, 52
16, 206999, Note_on_c, 13, 63, 0
16, 207120, Note_on_c, 13, 59, 52
16, 207239, Note_on_c, 13, 59, 0
16, 207360, Note_on_c, 13, 60, 52
16, 207479, Note_on_c, 13, 60, 0
16, 207600, Note_on_c, 13, 56, 52
16, 207719, Note_on_c, 13, 56, 0
16, 207840, Note_on_c, 13, 68, 52
16, 207959, Note_on_c, 13, 68, 0
16, 208080, Note_on_c, 13, 64, 52
16, 208199, Note_on_c, 13, 64, 0
16, 208320, Note_on_c, 13, 65, 52
16, 208439, Note_on_c, 13, 65, 0
16, 208560, Note_on_c, 13, 61, 52
16, 208679, Note_on_c, 13, 61, 0
16, 208800, Note_on_c, 13, 62, 52
16, 208919, Note_on_c, 13, 62, 0
16, 209040, Note_on_c, 13, 58, 52
16, 209159, Note_on_c, 13, 58, 0
16, 209280, Note_on_c, 13, 70, 54
16, 209399, Note_on_c, 13, 70, 0
16, 209520, Note_on_c, 13, 66, 57
16, 209639, Note_on_c, 13, 66, 0
16, 209760, Note_on_c, 13, 67, 60
16, 209879, Note_on_c, 13, 67, 0
16, 210000, Note_on_c, 13, 62, 62
16, 210119, Note_on_c, 13, 62, 0
16, 210240, Note_on_c, 13, 63, 65
16, 210359, Note_on_c, 13, 63, 0
16, 210480, Note_on_c, 13, 60, 68
16, 210599, Note_on_c, 13, 60, 0
16, 210720, Note_on_c, 13, 55, 70
16, 210839, Note_on_c, 13, 55, 0
16, 210960, Note_on_c, 13, 56, 73
16, 211079, Note_on_c, 13, 56, 0
16, 211200, Note_on_c, 13, 53, 76
16, 211409, Note_on_c, 13, 53, 0
16, 211440, Note_on_c, 13, 61, 78
16, 211649, Note_on_c, 13, 61, 0
16, 211680, Note_on_c, 13, 62, 81
16, 211889, Note_on_c, 13, 62, 0
16, 211920, Note_on_c, 13, 58, 84
16, 212129, Note_on_c, 13, 58, 0
16, 212160, Note_on_c, 13, 65, 84
16, 212369, Note_on_c, 13, 65, 0
16, 212400, Note_on_c, 13, 62, 84
16, 212609, Note_on_c, 13, 62, 0
16, 212640, Note_on_c, 13, 58, 84
16, 212849, Note_on_c, 13, 58, 0
16, 212880, Note_on_c, 13, 74, 84
16, 213089, Note_on_c, 13, 74, 0
16, 213120, Note_on_c, 13, 70, 84
16, 213329, Note_on_c, 13, 70, 0
16, 213360, Note_on_c, 13, 58, 84
16, 213569, Note_on_c, 13, 58, 0
16, 213600, Note_on_c, 13, 65, 84
16, 213809, Note_on_c, 13, 65, 0
16, 213840, Note_on_c, 13, 62, 84
16, 214049, Note_on_c, 13, 62, 0
16, 214080, Note_on_c, 13, 58, 84
16, 214289, Note_on_c, 13, 58, 0
16, 214320, Note_on_c, 13, 60, 84
16, 214529, Note_on_c, 13, 60, 0
16, 214560, Note_on_c, 13, 62, 84
16, 214769, Note_on_c, 13, 62, 0
16, 214800, Note_on_c, 13, 63, 76
16, 215039, Note_on_c, 13, 63, 0
16, 215520, Note_on_c, 13, 58, 76
16, 215759, Note_on_c, 13, 58, 0
16, 216240, Note_on_c, 13, 63, 76
16, 216449, Note_on_c, 13, 63, 0
16, 216480, Note_on_c, 13, 70, 76
16, 216689, Note_on_c, 13, 70, 0
16, 216720, Note_on_c, 13, 67, 76
16, 216929, Note_on_c, 13, 67, 0
16, 216960, Note_on_c, 13, 63, 76
16, 217199, Note_on_c, 13, 63, 0
16, 222240, Note_on_c, 13, 58, 52
16, 222449, Note_on_c, 13, 58, 0
16, 222480, Note_on_c, 13, 58, 52
16, 222689, Note_on_c, 13, 58, 0
16, 222720, Note_on_c, 13, 58, 52
16, 222959, Note_on_c, 13, 58, 0
16, 228000, Note_on_c, 13, 58, 52
16, 228209, Note_on_c, 13, 58, 0
16, 228240, Note_on_c, 13, 58, 52
16, 228449, Note_on_c, 13, 58, 0
16, 228480, Note_on_c, 13, 58, 52
16, 228719, Note_on_c, 13, 58, 0
16, 233760, Note_on_c, 13, 58, 52
16, 233969, Note_on_c, 13, 58, 0
16, 234000, Note_on_c, 13, 58, 52
16, 234209, Note_on_c, 13, 58, 0
16, 234240, Note_on_c, 13, 58, 52
16, 234479, Note_on_c, 13, 58, 0
16, 238800, Note_on_c, 13, 58, 52
16, 239009, Note_on_c, 13, 58, 0
16, 239040, Note_on_c, 13, 58, 52
16, 239249, Note_on_c, 13, 58, 0
16, 239280, Note_on_c, 13, 58, 52
16, 239519, Note_on_c, 13, 58, 0
16, 239760, Note_on_c, 13, 51, 76
16, 239879, Note_on_c, 13, 51, 0
16, 240000, Note_on_c, 13, 56, 76
16, 240239, Note_on_c, 13, 56, 0
16, 240240, Note_on_c, 13, 51, 76
16, 240449, Note_on_c, 13, 51, 0
16, 240480, Note_on_c, 13, 60, 76
16, 240599, Note_on_c, 13, 60, 0
16, 240720, Note_on_c, 13, 58, 76
16, 240959, Note_on_c, 13, 58, 0
16, 240960, Note_on_c, 13, 51, 76
16, 241169, Note_on_c, 13, 51, 0
16, 241200, Note_on_c, 13, 61, 76
16, 241319, Note_on_c, 13, 61, 0
16, 241440, Note_on_c, 13, 55, 76
16, 241679, Note_on_c, 13, 55, 0
16, 241680, Note_on_c, 13, 51, 76
16, 241889, Note_on_c, 13, 51, 0
16, 241920, Note_on_c, 13, 58, 76
16, 242039, Note_on_c, 13, 58, 0
16, 242160, Note_on_c, 13, 56, 76
16, 242399, Note_on_c, 13, 56, 0
16, 242640, Note_on_c, 13, 48, 76
16, 242759, Note_on_c, 13, 48, 0
16, 242880, Note_on_c, 13, 53, 76
16, 243119, Note_on_c, 13, 53, 0
16, 243120, Note_on_c, 13, 48, 76
16, 243329, Note_on_c, 13, 48, 0
16, 243360, Note_on_c, 13, 56, 76
16, 243479, Note_on_c, 13, 56, 0
16, 243600, Note_on_c, 13, 55, 76
16, 243839, Note_on_c, 13, 55, 0
16, 243840, Note_on_c, 13, 48, 76
16, 244049, Note_on_c, 13, 48, 0
16, 244080, Note_on_c, 13, 58, 76
16, 244199, Note_on_c, 13, 58, 0
16, 244320, Note_on_c, 13, 52, 76
16, 244559, Note_on_c, 13, 52, 0
16, 244560, Note_on_c, 13, 48, 76
16, 244769, Note_on_c, 13, 48, 0
16, 244800, Note_on_c, 13, 55, 76
16, 244919, Note_on_c, 13, 55, 0
16, 245040, Note_on_c, 13, 53, 76
16, 245279, Note_on_c, 13, 53, 0
16, 253200, Note_on_c, 13, 58, 52
16, 253439, Note_on_c, 13, 58, 0
16, 253440, Note_on_c, 13, 56, 52
16, 253679, Note_on_c, 13, 56, 0
16, 253680, Note_on_c, 13, 60, 52
16, 253919, Note_on_c, 13, 60, 0
16, 253920, Note_on_c, 13, 56, 52
16, 254159, Note_on_c, 13, 56, 0
16, 254160, Note_on_c, 13, 55, 52
16, 254399, Note_on_c, 13, 55, 0
16, 254400, Note_on_c, 13, 53, 52
16, 254639, Note_on_c, 13, 53, 0
16, 256080, Note_on_c, 13, 65, 52
16, 256319, Note_on_c, 13, 65, 0
16, 256320, Note_on_c, 13, 62, 52
16, 256559, Note_on_c, 13, 62, 0
16, 256560, Note_on_c, 13, 58, 52
16, 256799, Note_on_c, 13, 58, 0
16, 257520, Note_on_c, 13, 65, 60
16, 257759, Note_on_c, 13, 65, 0
16, 257760, Note_on_c, 13, 62, 62
16, 257999, Note_on_c, 13, 62, 0
16, 258000, Note_on_c, 13, 58, 65
16, 258239, Note_on_c, 13, 58, 0
16, 258960, Note_on_c, 13, 58, 76
16, 259199, Note_on_c, 13, 58, 0
16, 259200, Note_on_c, 13, 55, 76
16, 259439, Note_on_c, 13, 55, 0
16, 259440, Note_on_c, 13, 51, 76
16, 259679, Note_on_c, 13, 51, 0
16, 264000, Note_on_c, 13, 58, 52
16, 264209, Note_on_c, 13, 58, 0
16, 264240, Note_on_c, 13, 58, 52
16, 264449, Note_on_c, 13, 58, 0
16, 264480, Note_on_c, 13, 58, 52
16, 264719, Note_on_c, 13, 58, 0
16, 270000, Note_on_c, 13, 51, 52
16, 270239, Note_on_c, 13, 51, 0
16, 270240, Note_on_c, 13, 51, 76
16, 270480, Control_c, 13, 11, 112
16, 270580, Control_c, 13, 11, 109
16, 270680, Control_c, 13, 11, 107
16, 270780, Control_c, 13, 11, 104
16, 270880, Control_c, 13, 11, 101
16, 270980, Control_c, 13, 11, 99
16, 271080, Control_c, 13, 11, 96
16, 271180, Control_c, 13, 11, 93
16, 271280, Control_c, 13, 11, 91
16, 271380, Control_c, 13, 11, 88
16, 271480, Control_c, 13, 11, 85
16, 271580, Control_c, 13, 11, 80
16, 271679, Note_on_c, 13, 51, 0
16, 271680, Note_on_c, 13, 51, 76
16, 272159, Note_on_c, 13, 51, 0
16, 272160, Note_on_c, 13, 53, 76
16, 272399, Note_on_c, 13, 53, 0
16, 272400, Note_on_c, 13, 51, 76
16, 272639, Note_on_c, 13, 51, 0
16, 275280, Control_c, 13, 11, 127
16, 275760, Note_on_c, 13, 51, 44
16, 275999, Note_on_c, 13, 51, 0
16, 276000, Note_on_c, 13, 51, 44
16, 277169, Note_on_c, 13, 51, 0
16, 277200, Note_on_c, 13, 51, 44
16, 277439, Note_on_c, 13, 51, 0
16, 277440, Note_on_c, 13, 51, 44
16, 278399, Note_on_c, 13, 51, 0
16, 283440, Note_on_c, 13, 58, 44
16, 283649, Note_on_c, 13, 58, 0
16, 283680, Note_on_c, 13, 58, 44
16, 283889, Note_on_c, 13, 58, 0
16, 283920, Note_on_c, 13, 58, 44
16, 284159, Note_on_c, 13, 58, 0
16, 284400, Note_on_c, 13, 51, 76
16, 284519, Note_on_c, 13, 51, 0
16, 284640, Note_on_c, 13, 56, 76
16, 284879, Note_on_c, 13, 56, 0
16, 284880, Note_on_c, 13, 51, 76
16, 285089, Note_on_c, 13, 51, 0
16, 285120, Note_on_c, 13, 60, 76
16, 285239, Note_on_c, 13, 60, 0
16, 285360, Note_on_c, 13, 58, 76
16, 285599, Note_on_c, 13, 58, 0
16, 285600, Note_on_c, 13, 51, 76
16, 285809, Note_on_c, 13, 51, 0
16, 285840, Note_on_c, 13, 61, 76
16, 285959, Note_on_c, 13, 61, 0
16, 286080, Note_on_c, 13, 55, 76
16, 286319, Note_on_c, 13, 55, 0
16, 286320, Note_on_c, 13, 51, 76
16, 286529, Note_on_c, 13, 51, 0
16, 286560, Note_on_c, 13, 58, 76
16, 286679, Note_on_c, 13, 58, 0
16, 286800, Note_on_c, 13, 56, 76
16, 287039, Note_on_c, 13, 56, 0
16, 287280, Note_on_c, 13, 48, 76
16, 287399, Note_on_c, 13, 48, 0
16, 287520, Note_on_c, 13, 53, 76
16, 287759, Note_on_c, 13, 53, 0
16, 287760, Note_on_c, 13, 48, 76
16, 287969, Note_on_c, 13, 48, 0
16, 288000, Note_on_c, 13, 56, 76
16, 288119, Note_on_c, 13, 56, 0
16, 288240, Note_on_c, 13, 55, 76
16, 288479, Note_on_c, 13, 55, 0
16, 288480, Note_on_c, 13, 48, 76
16, 288689, Note_on_c, 13, 48, 0
16, 288720, Note_on_c, 13, 58, 76
16, 288839, Note_on_c, 13, 58, 0
16, 288960, Note_on_c, 13, 52, 76
16, 289199, Note_on_c, 13, 52, 0
16, 289200, Note_on_c, 13, 48, 76
16, 289409, Note_on_c, 13, 48, 0
16, 289440, Note_on_c, 13, 55, 76
16, 289559, Note_on_c, 13, 55, 0
16, 289680, Note_on_c, 13, 53, 76
16, 289919, Note_on_c, 13, 53, 0
16, 297840, Note_on_c, 13, 58, 52
16, 298079, Note_on_c, 13, 58, 0
16, 298080, Note_on_c, 13, 56, 52
16, 298319, Note_on_c, 13, 56, 0
16, 298320, Note_on_c, 13, 60, 52
16, 298559, Note_on_c, 13, 60, 0
16, 298560, Note_on_c, 13, 56, 52
16, 298799, Note_on_c, 13, 56, 0
16, 298800, Note_on_c, 13, 55, 52
16, 299039, Note_on_c, 13, 55, 0
16, 299040, Note_on_c, 13, 53, 52
16, 299279, Note_on_c, 13, 53, 0
16, 300720, Note_on_c, 13, 65, 52
16, 300959, Note_on_c, 13, 65, 0
16, 300960, Note_on_c, 13, 62, 52
16, 301199, Note_on_c, 13, 62, 0
16, 301200, Note_on_c, 13, 58, 52
16, 301439, Note_on_c, 13, 58, 0
16, 302160, Note_on_c, 13, 65, 60
16, 302399, Note_on_c, 13, 65, 0
16, 302400, Note_on_c, 13, 62, 62
16, 302639, Note_on_c, 13, 62, 0
16, 302640, Note_on_c, 13, 58, 65
16, 302879, Note_on_c, 13, 58, 0
16, 303600, Note_on_c, 13, 58, 76
16, 303839, Note_on_c, 13, 58, 0
16, 303840, Note_on_c, 13, 55, 76
16, 304079, Note_on_c, 13, 55, 0
16, 304080, Note_on_c, 13, 51, 76
16, 304319, Note_on_c, 13, 51, 0
16, 308640, Note_on_c, 13, 58, 52
16, 308849, Note_on_c, 13, 58, 0
16, 308880, Note_on_c, 13, 58, 52
16, 309089, Note_on_c, 13, 58, 0
16, 309120, Note_on_c, 13, 58, 52
16, 309359, Note_on_c, 13, 58, 0
16, 314640, Note_on_c, 13, 51, 52
16, 314879, Note_on_c, 13, 51, 0
16, 314880, Note_on_c, 13, 51, 76
16, 315120, Control_c, 13, 11, 112
16, 315220, Control_c, 13, 11, 109
16, 315320, Control_c, 13, 11, 107
16, 315420, Control_c, 13, 11, 104
16, 315520, Control_c, 13, 11, 101
16, 315620, Control_c, 13, 11, 99
16, 315720, Control_c, 13, 11, 96
16, 315820, Control_c, 13, 11, 93
16, 315920, Control_c, 13, 11, 91
16, 316020, Control_c, 13, 11, 88
16, 316120, Control_c, 13, 11, 85
16, 316220, Control_c, 13, 11, 80
16, 316319, Note_on_c, 13, 51, 0
16, 316320, Note_on_c, 13, 51, 76
16, 316799, Note_on_c, 13, 51, 0
16, 316800, Note_on_c, 13, 53, 76
16, 317039, Note_on_c, 13, 53, 0
16, 317040, Note_on_c, 13, 51, 76
16, 317279, Note_on_c, 13, 51, 0
16, 319920, Control_c, 13, 11, 127
16, 320400, Note_on_c, 13, 51, 44
16, 320639, Note_on_c, 13, 51, 0
16, 320640, Note_on_c, 13, 51, 44
16, 321809, Note_on_c, 13, 51, 0
16, 321840, Note_on_c, 13, 51, 44
16, 322079, Note_on_c, 13, 51, 0
16, 322080, Note_on_c, 13, 51, 44
16, 323039, Note_on_c, 13, 51, 0
16, 328320, Note_on_c, 13, 55, 44
16, 328439, Note_on_c, 13, 55, 0
16, 328560, Note_on_c, 13, 55, 44
16, 328679, Note_on_c, 13, 55, 0
16, 328800, Note_on_c, 13, 56, 44
16, 328919, Note_on_c, 13, 56, 0
16, 329040, Note_on_c, 13, 55, 44
16, 329159, Note_on_c, 13, 55, 0
16, 329280, Note_on_c, 13, 56, 44
16, 329399, Note_on_c, 13, 56, 0
16, 329520, Note_on_c, 13, 55, 44
16, 329639, Note_on_c, 13, 55, 0
16, 329760, Note_on_c, 13, 56, 44
16, 329879, Note_on_c, 13, 56, 0
16, 330000, Note_on_c, 13, 55, 44
16, 330119, Note_on_c, 13, 55, 0
16, 330240, Note_on_c, 13, 56, 44
16, 330359, Note_on_c, 13, 56, 0
16, 330480, Note_on_c, 13, 55, 44
16, 330599, Note_on_c, 13, 55, 0
16, 330720, Note_on_c, 13, 56, 44
16, 330839, Note_on_c, 13, 56, 0
16, 330960, Note_on_c, 13, 55, 44
16, 331079, Note_on_c, 13, 55, 0
16, 331200, Note_on_c, 13, 53, 44
16, 331319, Note_on_c, 13, 53, 0
16, 331440, Note_on_c, 13, 55, 44
16, 331559, Note_on_c, 13, 55, 0
16, 331680, Note_on_c, 13, 63, 44
16, 331799, Note_on_c, 13, 63, 0
16, 331920, Note_on_c, 13, 62, 44
16, 332039, Note_on_c, 13, 62, 0
16, 332160, Note_on_c, 13, 63, 44
16, 332279, Note_on_c, 13, 63, 0
16, 332400, Note_on_c, 13, 62, 44
16, 332519, Note_on_c, 13, 62, 0
16, 332640, Note_on_c, 13, 60, 44
16, 332759, Note_on_c, 13, 60, 0
16, 332880, Note_on_c, 13, 58, 44
16, 332999, Note_on_c, 13, 58, 0
16, 333120, Note_on_c, 13, 62, 44
16, 333239, Note_on_c, 13, 62, 0
16, 333360, Note_on_c, 13, 60, 44
16, 333479, Note_on_c, 13, 60, 0
16, 333600, Note_on_c, 13, 58, 44
16, 333719, Note_on_c, 13, 58, 0
16, 333840, Note_on_c, 13, 62, 44
16, 333959, Note_on_c, 13, 62, 0
16, 334080, Note_on_c, 13, 60, 44
16, 334199, Note_on_c, 13, 60, 0
16, 334320, Note_on_c, 13, 58, 44
16, 334439, Note_on_c, 13, 58, 0
16, 334560, Note_on_c, 13, 58, 44
16, 334679, Note_on_c, 13, 58, 0
16, 334800, Note_on_c, 13, 60, 44
16, 334919, Note_on_c, 13, 60, 0
16, 335040, Note_on_c, 13, 62, 44
16, 335159, Note_on_c, 13, 62, 0
16, 335280, Note_on_c, 13, 57, 44
16, 335399, Note_on_c, 13, 57, 0
16, 335520, Note_on_c, 13, 59, 44
16, 335639, Note_on_c, 13, 59, 0
16, 335760, Note_on_c, 13, 60, 44
16, 335879, Note_on_c, 13, 60, 0
16, 336000, Note_on_c, 13, 55, 44
16, 336119, Note_on_c, 13, 55, 0
16, 336240, Note_on_c, 13, 57, 44
16, 336359, Note_on_c, 13, 57, 0
16, 336480, Note_on_c, 13, 58, 44
16, 336599, Note_on_c, 13, 58, 0
16, 336720, Note_on_c, 13, 53, 44
16, 336839, Note_on_c, 13, 53, 0
16, 336960, Note_on_c, 13, 55, 44
16, 337079, Note_on_c, 13, 55, 0
16, 337200, Note_on_c, 13, 51, 44
16, 337319, Note_on_c, 13, 51, 0
16, 337440, Note_on_c, 13, 48, 44
16, 337559, Note_on_c, 13, 48, 0
16, 337680, Note_on_c, 13, 57, 44
16, 337799, Note_on_c, 13, 57, 0
16, 337920, Note_on_c, 13, 58, 44
16, 338039, Note_on_c, 13, 58, 0
16, 338400, Note_on_c, 13, 51, 44
16, 338519, Note_on_c, 13, 51, 0
16, 338640, Note_on_c, 13, 51, 44
16, 338759, Note_on_c, 13, 51, 0
16, 338880, Note_on_c, 13, 51, 44
16, 338999, Note_on_c, 13, 51, 0
16, 339120, Note_on_c, 13, 51, 44
16, 339239, Note_on_c, 13, 51, 0
16, 339360, Note_on_c, 13, 51, 44
16, 339479, Note_on_c, 13, 51, 0
16, 339600, Note_on_c, 13, 51, 44
16, 339719, Note_on_c, 13, 51, 0
16, 339840, Note_on_c, 13, 51, 44
16, 339959, Note_on_c, 13, 51, 0
16, 340080, Note_on_c, 13, 51, 44
16, 340199, Note_on_c, 13, 51, 0
16, 340320, Note_on_c, 13, 51, 44
16, 340439, Note_on_c, 13, 51, 0
16, 340560, Note_on_c, 13, 51, 44
16, 340679, Note_on_c, 13, 51, 0
16, 340800, Note_on_c, 13, 51, 44
16, 340919, Note_on_c, 13, 51, 0
16, 341040, Note_on_c, 13, 51, 44
16, 341159, Note_on_c, 13, 51, 0
16, 341280, Note_on_c, 13, 53, 44
16, 341399, Note_on_c, 13, 53, 0
16, 341520, Note_on_c, 13, 55, 44
16, 341639, Note_on_c, 13, 55, 0
16, 341760, Note_on_c, 13, 56, 44
16, 341879, Note_on_c, 13, 56, 0
16, 342000, Note_on_c, 13, 50, 44
16, 342119, Note_on_c, 13, 50, 0
16, 342240, Note_on_c, 13, 51, 44
16, 342359, Note_on_c, 13, 51, 0
16, 342480, Note_on_c, 13, 58, 44
16, 342599, Note_on_c, 13, 58, 0
16, 342720, Note_on_c, 13, 60, 44
16, 342839, Note_on_c, 13, 60, 0
16, 342960, Note_on_c, 13, 62, 44
16, 343079, Note_on_c, 13, 62, 0
16, 343200, Note_on_c, 13, 65, 44
16, 343319, Note_on_c, 13, 65, 0
16, 343440, Note_on_c, 13, 63, 44
16, 343559, Note_on_c, 13, 63, 0
16, 343680, Note_on_c, 13, 62, 44
16, 343799, Note_on_c, 13, 62, 0
16, 343920, Note_on_c, 13, 65, 44
16, 344039, Note_on_c, 13, 65, 0
16, 344160, Note_on_c, 13, 63, 44
16, 344279, Note_on_c, 13, 63, 0
16, 344400, Note_on_c, 13, 62, 44
16, 344519, Note_on_c, 13, 62, 0
16, 344640, Note_on_c, 13, 62, 44
16, 344759, Note_on_c, 13, 62, 0
16, 344880, Note_on_c, 13, 63, 44
16, 344999, Note_on_c, 13, 63, 0
16, 345120, Note_on_c, 13, 65, 44
16, 345239, Note_on_c, 13, 65, 0
16, 345360, Note_on_c, 13, 60, 44
16, 345479, Note_on_c, 13, 60, 0
16, 345600, Note_on_c, 13, 62, 44
16, 345719, Note_on_c, 13, 62, 0
16, 345840, Note_on_c, 13, 63, 44
16, 345959, Note_on_c, 13, 63, 0
16, 346080, Note_on_c, 13, 58, 44
16, 346199, Note_on_c, 13, 58, 0
16, 346320, Note_on_c, 13, 60, 44
16, 346439, Note_on_c, 13, 60, 0
16, 346560, Note_on_c, 13, 62, 44
16, 346679, Note_on_c, 13, 62, 0
16, 346800, Note_on_c, 13, 57, 44
16, 346919, Note_on_c, 13, 57, 0
16, 347040, Note_on_c, 13, 58, 44
16, 347159, Note_on_c, 13, 58, 0
16, 347280, Note_on_c, 13, 55, 44
16, 347399, Note_on_c, 13, 55, 0
16, 347520, Note_on_c, 13, 55, 44
16, 347639, Note_on_c, 13, 55, 0
16, 347760, Note_on_c, 13, 57, 44
16, 347879, Note_on_c, 13, 57, 0
16, 348000, Note_on_c, 13, 58, 44
16, 348119, Note_on_c, 13, 58, 0
16, 351360, Note_on_c, 13, 63, 44
16, 351479, Note_on_c, 13, 63, 0
16, 351600, Note_on_c, 13, 63, 44
16, 351719, Note_on_c, 13, 63, 0
16, 351840, Note_on_c, 13, 68, 44
16, 351959, Note_on_c, 13, 68, 0
16, 352080, Note_on_c, 13, 63, 44
16, 352199, Note_on_c, 13, 63, 0
16, 352320, Note_on_c, 13, 68, 44
16, 352439, Note_on_c, 13, 68, 0
16, 352560, Note_on_c, 13, 63, 44
16, 352679, Note_on_c, 13, 63, 0
16, 352800, Note_on_c, 13, 68, 44
16, 352919, Note_on_c, 13, 68, 0
16, 353040, Note_on_c, 13, 63, 44
16, 353159, Note_on_c, 13, 63, 0
16, 353280, Note_on_c, 13, 68, 44
16, 353399, Note_on_c, 13, 68, 0
16, 353520, Note_on_c, 13, 63, 44
16, 353639, Note_on_c, 13, 63, 0
16, 353760, Note_on_c, 13, 68, 44
16, 353879, Note_on_c, 13, 68, 0
16, 354000, Note_on_c, 13, 65, 44
16, 354119, Note_on_c, 13, 65, 0
16, 354240, Note_on_c, 13, 66, 44
16, 354359, Note_on_c, 13, 66, 0
16, 354480, Note_on_c, 13, 66, 44
16, 354599, Note_on_c, 13, 66, 0
16, 354720, Note_on_c, 13, 65, 44
16, 354839, Note_on_c, 13, 65, 0
16, 354960, Note_on_c, 13, 68, 44
16, 355079, Note_on_c, 13, 68, 0
16, 355200, Note_on_c, 13, 68, 44
16, 355319, Note_on_c, 13, 68, 0
16, 355440, Note_on_c, 13, 65, 44
16, 355559, Note_on_c, 13, 65, 0
16, 355680, Note_on_c, 13, 68, 44
16, 355799, Note_on_c, 13, 68, 0
16, 355920, Note_on_c, 13, 68, 44
16, 356039, Note_on_c, 13, 68, 0
16, 356160, Note_on_c, 13, 67, 44
16, 356279, Note_on_c, 13, 67, 0
16, 356400, Note_on_c, 13, 70, 44
16, 356519, Note_on_c, 13, 70, 0
16, 356640, Note_on_c, 13, 70, 44
16, 356759, Note_on_c, 13, 70, 0
16, 356880, Note_on_c, 13, 67, 44
16, 356999, Note_on_c, 13, 67, 0
16, 357120, Note_on_c, 13, 70, 44
16, 357239, Note_on_c, 13, 70, 0
16, 357360, Note_on_c, 13, 69, 44
16, 357479, Note_on_c, 13, 69, 0
16, 357600, Note_on_c, 13, 57, 44
16, 357719, Note_on_c, 13, 57, 0
16, 357840, Note_on_c, 13, 55, 44
16, 357959, Note_on_c, 13, 55, 0
16, 358080, Note_on_c, 13, 53, 44
16, 358199, Note_on_c, 13, 53, 0
16, 358320, Note_on_c, 13, 57, 44
16, 358439, Note_on_c, 13, 57, 0
16, 358560, Note_on_c, 13, 55, 44
16, 358679, Note_on_c, 13, 55, 0
16, 358800, Note_on_c, 13, 53, 44
16, 358919, Note_on_c, 13, 53, 0
16, 359040, Note_on_c, 13, 53, 44
16, 359159, Note_on_c, 13, 53, 0
16, 359280, Note_on_c, 13, 55, 44
16, 359399, Note_on_c, 13, 55, 0
16, 359520, Note_on_c, 13, 57, 44
16, 359639, Note_on_c, 13, 57, 0
16, 359760, Note_on_c, 13, 52, 44
16, 359879, Note_on_c, 13, 52, 0
16, 360000, Note_on_c, 13, 53, 44
16, 360119, Note_on_c, 13, 53, 0
16, 360240, Note_on_c, 13, 55, 44
16, 360359, Note_on_c, 13, 55, 0
16, 360480, Note_on_c, 13, 50, 44
16, 360599, Note_on_c, 13, 50, 0
16, 360720, Note_on_c, 13, 52, 44
16, 360839, Note_on_c, 13, 52, 0
16, 360960, Note_on_c, 13, 53, 44
16, 361199, Note_on_c, 13, 53, 0
16, 361200, Note_on_c, 13, 57, 44
16, 361409, Note_on_c, 13, 57, 0
16, 361440, Note_on_c, 13, 60, 44
16, 361559, Note_on_c, 13, 60, 0
16, 361680, Note_on_c, 13, 58, 44
16, 361919, Note_on_c, 13, 58, 0
16, 361920, Note_on_c, 13, 55, 44
16, 362129, Note_on_c, 13, 55, 0
16, 362160, Note_on_c, 13, 58, 44
16, 362279, Note_on_c, 13, 58, 0
16, 362400, Note_on_c, 13, 53, 44
16, 362519, Note_on_c, 13, 53, 0
16, 362640, Note_on_c, 13, 57, 44
16, 362759, Note_on_c, 13, 57, 0
16, 362880, Note_on_c, 13, 60, 44
16, 362999, Note_on_c, 13, 60, 0
16, 363120, Note_on_c, 13, 58, 52
16, 363809, Note_on_c, 13, 58, 0
16, 363840, Note_on_c, 13, 57, 44
16, 364079, Note_on_c, 13, 57, 0
16, 364080, Note_on_c, 13, 60, 44
16, 364289, Note_on_c, 13, 60, 0
16, 364320, Note_on_c, 13, 57, 44
16, 364439, Note_on_c, 13, 57, 0
16, 364560, Note_on_c, 13, 55, 44
16, 364799, Note_on_c, 13, 55, 0
16, 364800, Note_on_c, 13, 58, 44
16, 365009, Note_on_c, 13, 58, 0
16, 365040, Note_on_c, 13, 55, 44
16, 365159, Note_on_c, 13, 55, 0
16, 365280, Note_on_c, 13, 53, 44
16, 365519, Note_on_c, 13, 53, 0
16, 365520, Note_on_c, 13, 57, 44
16, 365729, Note_on_c, 13, 57, 0
16, 365760, Note_on_c, 13, 53, 44
16, 365879, Note_on_c, 13, 53, 0
16, 366000, Note_on_c, 13, 60, 52
16, 366689, Note_on_c, 13, 60, 0
16, 366720, Note_on_c, 13, 58, 44
16, 366959, Note_on_c, 13, 58, 0
16, 366960, Note_on_c, 13, 62, 44
16, 367169, Note_on_c, 13, 62, 0
16, 367200, Note_on_c, 13, 58, 44
16, 367319, Note_on_c, 13, 58, 0
16, 367440, Note_on_c, 13, 57, 44
16, 367679, Note_on_c, 13, 57, 0
16, 367680, Note_on_c, 13, 60, 44
16, 367889, Note_on_c, 13, 60, 0
16, 367920, Note_on_c, 13, 57, 44
16, 368039, Note_on_c, 13, 57, 0
16, 368160, Note_on_c, 13, 55, 44
16, 368399, Note_on_c, 13, 55, 0
16, 368400, Note_on_c, 13, 58, 44
16, 368609, Note_on_c, 13, 58, 0
16, 368640, Note_on_c, 13, 58, 44
16, 368759, Note_on_c, 13, 58, 0
16, 368880, Note_on_c, 13, 57, 44
16, 368999, Note_on_c, 13, 57, 0
16, 369120, Note_on_c, 13, 54, 44
16, 369239, Note_on_c, 13, 54, 0
16, 369360, Note_on_c, 13, 62, 44
16, 369479, Note_on_c, 13, 62, 0
16, 369600, Note_on_c, 13, 62, 44
16, 369719, Note_on_c, 13, 62, 0
16, 369840, Note_on_c, 13, 58, 44
16, 369959, Note_on_c, 13, 58, 0
16, 370080, Note_on_c, 13, 55, 44
16, 370199, Note_on_c, 13, 55, 0
16, 370320, Note_on_c, 13, 54, 44
16, 370439, Note_on_c, 13, 54, 0
16, 370560, Note_on_c, 13, 62, 44
16, 370679, Note_on_c, 13, 62, 0
16, 370800, Note_on_c, 13, 62, 44
16, 370919, Note_on_c, 13, 62, 0
16, 371040, Note_on_c, 13, 62, 44
16, 371159, Note_on_c, 13, 62, 0
16, 371280, Note_on_c, 13, 62, 44
16, 371399, Note_on_c, 13, 62, 0
16, 371520, Note_on_c, 13, 67, 44
16, 371639, Note_on_c, 13, 67, 0
16, 371760, Note_on_c, 13, 66, 44
16, 371879, Note_on_c, 13, 66, 0
16, 372000, Note_on_c, 13, 73, 44
16, 372119, Note_on_c, 13, 73, 0
16, 372240, Note_on_c, 13, 74, 44
16, 372359, Note_on_c, 13, 74, 0
16, 372480, Note_on_c, 13, 69, 44
16, 372599, Note_on_c, 13, 69, 0
16, 372720, Note_on_c, 13, 70, 44
16, 372839, Note_on_c, 13, 70, 0
16, 372960, Note_on_c, 13, 66, 44
16, 373079, Note_on_c, 13, 66, 0
16, 373200, Note_on_c, 13, 67, 44
16, 373319, Note_on_c, 13, 67, 0
16, 373440, Note_on_c, 13, 62, 44
16, 373559, Note_on_c, 13, 62, 0
16, 373680, Note_on_c, 13, 63, 44
16, 373799, Note_on_c, 13, 63, 0
16, 373920, Note_on_c, 13, 62, 44
16, 374039, Note_on_c, 13, 62, 0
16, 374160, Note_on_c, 13, 63, 44
16, 374279, Note_on_c, 13, 63, 0
16, 374400, Note_on_c, 13, 61, 44
16, 374519, Note_on_c, 13, 61, 0
16, 374640, Note_on_c, 13, 62, 44
16, 374759, Note_on_c, 13, 62, 0
16, 374880, Note_on_c, 13, 61, 44
16, 374999, Note_on_c, 13, 61, 0
16, 375120, Note_on_c, 13, 62, 44
16, 375239, Note_on_c, 13, 62, 0
16, 375360, Note_on_c, 13, 61, 44
16, 375479, Note_on_c, 13, 61, 0
16, 375600, Note_on_c, 13, 62, 44
16, 375719, Note_on_c, 13, 62, 0
16, 375840, Note_on_c, 13, 61, 44
16, 375959, Note_on_c, 13, 61, 0
16, 376080, Note_on_c, 13, 62, 44
16, 376199, Note_on_c, 13, 62, 0
16, 376320, Note_on_c, 13, 61, 44
16, 376439, Note_on_c, 13, 61, 0
16, 376560, Note_on_c, 13, 62, 44
16, 376679, Note_on_c, 13, 62, 0
16, 376800, Note_on_c, 13, 61, 44
16, 376919, Note_on_c, 13, 61, 0
16, 377040, Note_on_c, 13, 62, 44
16, 377159, Note_on_c, 13, 62, 0
16, 377280, Note_on_c, 13, 61, 44
16, 377399, Note_on_c, 13, 61, 0
16, 377520, Note_on_c, 13, 62, 44
16, 377639, Note_on_c, 13, 62, 0
16, 377760, Note_on_c, 13, 50, 44
16, 377969, Note_on_c, 13, 50, 0
16, 378000, Note_on_c, 13, 50, 44
16, 378209, Note_on_c, 13, 50, 0
16, 378240, Note_on_c, 13, 50, 44
16, 378449, Note_on_c, 13, 50, 0
16, 378480, Note_on_c, 13, 50, 44
16, 378689, Note_on_c, 13, 50, 0
16, 378720, Note_on_c, 13, 50, 44
16, 378929, Note_on_c, 13, 50, 0
16, 378960, Note_on_c, 13, 50, 44
16, 379169, Note_on_c, 13, 50, 0
16, 379200, Note_on_c, 13, 50, 44
16, 379409, Note_on_c, 13, 50, 0
16, 379440, Note_on_c, 13, 50, 44
16, 379649, Note_on_c, 13, 50, 0
16, 379680, Note_on_c, 13, 50, 44
16, 379889, Note_on_c, 13, 50, 0
16, 379920, Note_on_c, 13, 50, 44
16, 380129, Note_on_c, 13, 50, 0
16, 380160, Note_on_c, 13, 50, 44
16, 380369, Note_on_c, 13, 50, 0
16, 383040, Note_on_c, 13, 51, 44
16, 383159, Note_on_c, 13, 51, 0
16, 383280, Note_on_c, 13, 51, 44
16, 383399, Note_on_c, 13, 51, 0
16, 383520, Note_on_c, 13, 51, 44
16, 383639, Note_on_c, 13, 51, 0
16, 383760, Note_on_c, 13, 51, 44
16, 383879, Note_on_c, 13, 51, 0
16, 384000, Note_on_c, 13, 51, 44
16, 384119, Note_on_c, 13, 51, 0
16, 384240, Note_on_c, 13, 51, 44
16, 384359, Note_on_c, 13, 51, 0
16, 384480, Note_on_c, 13, 51, 44
16, 384599, Note_on_c, 13, 51, 0
16, 384720, Note_on_c, 13, 51, 44
16, 384839, Note_on_c, 13, 51, 0
16, 384960, Note_on_c, 13, 51, 44
16, 385079, Note_on_c, 13, 51, 0
16, 385200, Note_on_c, 13, 51, 44
16, 385319, Note_on_c, 13, 51, 0
16, 385440, Note_on_c, 13, 51, 44
16, 385649, Note_on_c, 13, 51, 0
16, 385680, Note_on_c, 13, 51, 44
16, 385889, Note_on_c, 13, 51, 0
16, 385920, Note_on_c, 13, 51, 44
16, 386129, Note_on_c, 13, 51, 0
16, 386160, Note_on_c, 13, 51, 44
16, 386369, Note_on_c, 13, 51, 0
16, 386400, Note_on_c, 13, 51, 44
16, 386609, Note_on_c, 13, 51, 0
16, 386640, Note_on_c, 13, 51, 44
16, 386849, Note_on_c, 13, 51, 0
16, 386880, Note_on_c, 13, 51, 44
16, 387089, Note_on_c, 13, 51, 0
16, 387120, Note_on_c, 13, 51, 44
16, 387329, Note_on_c, 13, 51, 0
16, 387360, Note_on_c, 13, 53, 44
16, 387569, Note_on_c, 13, 53, 0
16, 387600, Note_on_c, 13, 55, 44
16, 387809, Note_on_c, 13, 55, 0
16, 387840, Note_on_c, 13, 62, 44
16, 388049, Note_on_c, 13, 62, 0
16, 388080, Note_on_c, 13, 62, 44
16, 388289, Note_on_c, 13, 62, 0
16, 388320, Note_on_c, 13, 63, 44
16, 388529, Note_on_c, 13, 63, 0
16, 388560, Note_on_c, 13, 62, 44
16, 388769, Note_on_c, 13, 62, 0
16, 388800, Note_on_c, 13, 60, 44
16, 389009, Note_on_c, 13, 60, 0
16, 389040, Note_on_c, 13, 58, 44
16, 389249, Note_on_c, 13, 58, 0
16, 389280, Note_on_c, 13, 62, 44
16, 389489, Note_on_c, 13, 62, 0
16, 389520, Note_on_c, 13, 60, 44
16, 389729, Note_on_c, 13, 60, 0
16, 389760, Note_on_c, 13, 58, 44
16, 389969, Note_on_c, 13, 58, 0
16, 390000, Note_on_c, 13, 62, 44
16, 390209, Note_on_c, 13, 62, 0
16, 390240, Note_on_c, 13, 60, 44
16, 390449, Note_on_c, 13, 60, 0
16, 390480, Note_on_c, 13, 58, 44
16, 390689, Note_on_c, 13, 58, 0
16, 390720, Note_on_c, 13, 62, 44
16, 390929, Note_on_c, 13, 62, 0
16, 390960, Note_on_c, 13, 63, 44
16, 391169, Note_on_c, 13, 63, 0
16, 391200, Note_on_c, 13, 65, 44
16, 391409, Note_on_c, 13, 65, 0
16, 391440, Note_on_c, 13, 60, 44
16, 391649, Note_on_c, 13, 60, 0
16, 391680, Note_on_c, 13, 62, 44
16, 391889, Note_on_c, 13, 62, 0
16, 391920, Note_on_c, 13, 63, 44
16, 392129, Note_on_c, 13, 63, 0
16, 392160, Note_on_c, 13, 58, 44
16, 392369, Note_on_c, 13, 58, 0
16, 392400, Note_on_c, 13, 60, 44
16, 392609, Note_on_c, 13, 60, 0
16, 392640, Note_on_c, 13, 53, 44
16, 392849, Note_on_c, 13, 53, 0
16, 392880, Note_on_c, 13, 57, 44
16, 393089, Note_on_c, 13, 57, 0
16, 393120, Note_on_c, 13, 58, 44
16, 393329, Note_on_c, 13, 58, 0
16, 393360, Note_on_c, 13, 55, 44
16, 393569, Note_on_c, 13, 55, 0
16, 393600, Note_on_c, 13, 55, 44
16, 393809, Note_on_c, 13, 55, 0
16, 393840, Note_on_c, 13, 57, 44
16, 394049, Note_on_c, 13, 57, 0
16, 394080, Note_on_c, 13, 58, 44
16, 394289, Note_on_c, 13, 58, 0
16, 394320, Note_on_c, 13, 60, 57
16, 394529, Note_on_c, 13, 60, 0
16, 394560, Note_on_c, 13, 62, 70
16, 394769, Note_on_c, 13, 62, 0
16, 394800, Note_on_c, 13, 63, 84
16, 395009, Note_on_c, 13, 63, 0
16, 395040, Note_on_c, 13, 67, 84
16, 395249, Note_on_c, 13, 67, 0
16, 395280, Note_on_c, 13, 70, 84
16, 395489, Note_on_c, 13, 70, 0
16, 395520, Note_on_c, 13, 63, 84
16, 395729, Note_on_c, 13, 63, 0
16, 395760, Note_on_c, 13, 67, 84
16, 395969, Note_on_c, 13, 67, 0
16, 396000, Note_on_c, 13, 70, 84
16, 396209, Note_on_c, 13, 70, 0
16, 396240, Note_on_c, 13, 75, 84
16, 396449, Note_on_c, 13, 75, 0
16, 396480, Note_on_c, 13, 75, 84
16, 396689, Note_on_c, 13, 75, 0
16, 396720, Note_on_c, 13, 75, 84
16, 396929, Note_on_c, 13, 75, 0
16, 396960, Note_on_c, 13, 75, 84
16, 397169, Note_on_c, 13, 75, 0
16, 397200, Note_on_c, 13, 75, 84
16, 397409, Note_on_c, 13, 75, 0
16, 397440, Note_on_c, 13, 75, 84
16, 397649, Note_on_c, 13, 75, 0
16, 397680, Note_on_c, 13, 75, 84
16, 397919, Note_on_c, 13, 75, 0
16, 397920, Note_on_c, 13, 77, 84
16, 398039, Note_on_c, 13, 77, 0
16, 398040, Note_on_c, 13, 75, 84
16, 398159, Note_on_c, 13, 75, 0
16, 398160, Note_on_c, 13, 74, 84
16, 398279, Note_on_c, 13, 74, 0
16, 398280, Note_on_c, 13, 72, 84
16, 398369, Note_on_c, 13, 72, 0
16, 398400, Note_on_c, 13, 70, 84
16, 399089, Note_on_c, 13, 70, 0
16, 399120, Note_on_c, 13, 68, 92
16, 399809, Note_on_c, 13, 68, 0
16, 399840, Note_on_c, 13, 67, 84
16, 400079, Note_on_c, 13, 67, 0
16, 400080, Note_on_c, 13, 70, 84
16, 400289, Note_on_c, 13, 70, 0
16, 400320, Note_on_c, 13, 67, 84
16, 400439, Note_on_c, 13, 67, 0
16, 400560, Note_on_c, 13, 65, 84
16, 400799, Note_on_c, 13, 65, 0
16, 400800, Note_on_c, 13, 70, 84
16, 401009, Note_on_c, 13, 70, 0
16, 401040, Note_on_c, 13, 65, 84
16, 401159, Note_on_c, 13, 65, 0
16, 401280, Note_on_c, 13, 63, 84
16, 401399, Note_on_c, 13, 63, 0
16, 401520, Note_on_c, 13, 67, 84
16, 401639, Note_on_c, 13, 67, 0
16, 401760, Note_on_c, 13, 70, 84
16, 401879, Note_on_c, 13, 70, 0
16, 402000, Note_on_c, 13, 68, 92
16, 402689, Note_on_c, 13, 68, 0
16, 402720, Note_on_c, 13, 67, 84
16, 402959, Note_on_c, 13, 67, 0
16, 402960, Note_on_c, 13, 70, 84
16, 403169, Note_on_c, 13, 70, 0
16, 403200, Note_on_c, 13, 67, 84
16, 403319, Note_on_c, 13, 67, 0
16, 403440, Note_on_c, 13, 65, 84
16, 403679, Note_on_c, 13, 65, 0
16, 403680, Note_on_c, 13, 68, 84
16, 403889, Note_on_c, 13, 68, 0
16, 403920, Note_on_c, 13, 65, 84
16, 404039, Note_on_c, 13, 65, 0
16, 404160, Note_on_c, 13, 63, 84
16, 404279, Note_on_c, 13, 63, 0
16, 404400, Note_on_c, 13, 68, 84
16, 404519, Note_on_c, 13, 68, 0
16, 404640, Note_on_c, 13, 63, 84
16, 404759, Note_on_c, 13, 63, 0
16, 404880, Note_on_c, 13, 61, 92
16, 405599, Note_on_c, 13, 61, 0
16, 405600, Note_on_c, 13, 60, 84
16, 405839, Note_on_c, 13, 60, 0
16, 405840, Note_on_c, 13, 63, 84
16, 406049, Note_on_c, 13, 63, 0
16, 406080, Note_on_c, 13, 60, 84
16, 406199, Note_on_c, 13, 60, 0
16, 406320, Note_on_c, 13, 63, 84
16, 406439, Note_on_c, 13, 63, 0
16, 406560, Note_on_c, 13, 58, 84
16, 406679, Note_on_c, 13, 58, 0
16, 406800, Note_on_c, 13, 63, 84
16, 406919, Note_on_c, 13, 63, 0
16, 407040, Note_on_c, 13, 56, 84
16, 407159, Note_on_c, 13, 56, 0
16, 407280, Note_on_c, 13, 68, 84
16, 407399, Note_on_c, 13, 68, 0
16, 407520, Note_on_c, 13, 56, 84
16, 407639, Note_on_c, 13, 56, 0
16, 407760, Note_on_c, 13, 67, 84
16, 407969, Note_on_c, 13, 67, 0
16, 408000, Note_on_c, 13, 55, 84
16, 408209, Note_on_c, 13, 55, 0
16, 408240, Note_on_c, 13, 67, 84
16, 408449, Note_on_c, 13, 67, 0
16, 408480, Note_on_c, 13, 56, 84
16, 408689, Note_on_c, 13, 56, 0
16, 408720, Note_on_c, 13, 65, 84
16, 408929, Note_on_c, 13, 65, 0
16, 408960, Note_on_c, 13, 56, 84
16, 409169, Note_on_c, 13, 56, 0
16, 409200, Note_on_c, 13, 67, 84
16, 409409, Note_on_c, 13, 67, 0
16, 409440, Note_on_c, 13, 58, 84
16, 409649, Note_on_c, 13, 58, 0
16, 409680, Note_on_c, 13, 67, 84
16, 409889, Note_on_c, 13, 67, 0
16, 409920, Note_on_c, 13, 58, 84
16, 410129, Note_on_c, 13, 58, 0
16, 410160, Note_on_c, 13, 70, 84
16, 410369, Note_on_c, 13, 70, 0
16, 410400, Note_on_c, 13, 58, 84
16, 410609, Note_on_c, 13, 58, 0
16, 410640, Note_on_c, 13, 63, 84
16, 410759, Note_on_c, 13, 63, 0
16, 410880, Note_on_c, 13, 67, 92
16, 411329, Note_on_c, 13, 67, 0
16, 411360, Note_on_c, 13, 63, 84
16, 411479, Note_on_c, 13, 63, 0
16, 411600, Note_on_c, 13, 58, 92
16, 412049, Note_on_c, 13, 58, 0
16, 412080, Note_on_c, 13, 55, 84
16, 412199, Note_on_c, 13, 55, 0
16, 412320, Note_on_c, 13, 51, 92
16, 412769, Note_on_c, 13, 51, 0
16, 412800, Note_on_c, 13, 58, 84
16, 413039, Note_on_c, 13, 58, 0
16, 413280, Note_on_c, 13, 56, 84
16, 413339, Note_on_c, 13, 56, 0
16, 413340, Note_on_c, 13, 58, 84
16, 413399, Note_on_c, 13, 58, 0
16, 413400, Note_on_c, 13, 55, 84
16, 413459, Note_on_c, 13, 55, 0
16, 413460, Note_on_c, 13, 56, 84
16, 413519, Note_on_c, 13, 56, 0
16, 413520, Note_on_c, 13, 55, 84
16, 413759, Note_on_c, 13, 55, 0
16, 415200, Note_on_c, 13, 58, 52
16, 415409, Note_on_c, 13, 58, 0
16, 415440, Note_on_c, 13, 58, 52
16, 415649, Note_on_c, 13, 58, 0
16, 415680, Note_on_c, 13, 58, 52
16, 415889, Note_on_c, 13, 58, 0
16, 415920, Note_on_c, 13, 58, 52
16, 416129, Note_on_c, 13, 58, 0
16, 416160, Note_on_c, 13, 58, 52
16, 416369, Note_on_c, 13, 58, 0
16, 416400, Note_on_c, 13, 63, 76
16, 416519, Note_on_c, 13, 63, 0
16, 416640, Note_on_c, 13, 67, 84
16, 416819, Note_on_c, 13, 67, 0
16, 416880, Note_on_c, 13, 63, 84
16, 417059, Note_on_c, 13, 63, 0
16, 417120, Note_on_c, 13, 58, 84
16, 417299, Note_on_c, 13, 58, 0
16, 417360, Note_on_c, 13, 55, 84
16, 417539, Note_on_c, 13, 55, 0
16, 417600, Note_on_c, 13, 63, 84
16, 417779, Note_on_c, 13, 63, 0
16, 417840, Note_on_c, 13, 58, 84
16, 418019, Note_on_c, 13, 58, 0
16, 418080, Note_on_c, 13, 56, 84
16, 418259, Note_on_c, 13, 56, 0
16, 418320, Note_on_c, 13, 55, 84
16, 418499, Note_on_c, 13, 55, 0
16, 420000, Note_on_c, 13, 67, 52
16, 420119, Note_on_c, 13, 67, 0
16, 420240, Note_on_c, 13, 68, 52
16, 420359, Note_on_c, 13, 68, 0
16, 420480, Note_on_c, 13, 67, 52
16, 420599, Note_on_c, 13, 67, 0
16, 420720, Note_on_c, 13, 68, 52
16, 420839, Note_on_c, 13, 68, 0
16, 420960, Note_on_c, 13, 67, 52
16, 421079, Note_on_c, 13, 67, 0
16, 421200, Note_on_c, 13, 68, 52
16, 421319, Note_on_c, 13, 68, 0
16, 422880, Note_on_c, 13, 65, 52
16, 422999, Note_on_c, 13, 65, 0
16, 423120, Note_on_c, 13, 67, 52
16, 423239, Note_on_c, 13, 67, 0
16, 423360, Note_on_c, 13, 65, 52
16, 423479, Note_on_c, 13, 65, 0
16, 423600, Note_on_c, 13, 67, 52
16, 423719, Note_on_c, 13, 67, 0
16, 423840, Note_on_c, 13, 65, 52
16, 423959, Note_on_c, 13, 65, 0
16, 424080, Note_on_c, 13, 67, 52
16, 424199, Note_on_c, 13, 67, 0
16, 425760, Note_on_c, 13, 65, 52
16, 425879, Note_on_c, 13, 65, 0
16, 426000, Note_on_c, 13, 67, 52
16, 426119, Note_on_c, 13, 67, 0
16, 426240, Note_on_c, 13, 65, 52
16, 426359, Note_on_c, 13, 65, 0
16, 426480, Note_on_c, 13, 67, 52
16, 426599, Note_on_c, 13, 67, 0
16, 426720, Note_on_c, 13, 65, 52
16, 426839, Note_on_c, 13, 65, 0
16, 426960, Note_on_c, 13, 67, 52
16, 427079, Note_on_c, 13, 67, 0
16, 428640, Note_on_c, 13, 56, 52
16, 428759, Note_on_c, 13, 56, 0
16, 428880, Note_on_c, 13, 55, 52
16, 428999, Note_on_c, 13, 55, 0
16, 429120, Note_on_c, 13, 56, 52
16, 429239, Note_on_c, 13, 56, 0
16, 429360, Note_on_c, 13, 55, 52
16, 429479, Note_on_c, 13, 55, 0
16, 429600, Note_on_c, 13, 56, 52
16, 429719, Note_on_c, 13, 56, 0
16, 429840, Note_on_c, 13, 55, 52
16, 429959, Note_on_c, 13, 55, 0
16, 430560, Note_on_c, 13, 56, 52
16, 430799, Note_on_c, 13, 56, 0
16, 431280, Note_on_c, 13, 53, 52
16, 431519, Note_on_c, 13, 53, 0
16, 432000, Note_on_c, 13, 58, 52
16, 432239, Note_on_c, 13, 58, 0
16, 432720, Note_on_c, 13, 55, 52
16, 432959, Note_on_c, 13, 55, 0
16, 433440, Note_on_c, 13, 60, 52
16, 433679, Note_on_c, 13, 60, 0
16, 434160, Note_on_c, 13, 56, 52
16, 434399, Note_on_c, 13, 56, 0
16, 434880, Note_on_c, 13, 58, 52
16, 435119, Note_on_c, 13, 58, 0
16, 435600, Note_on_c, 13, 63, 52
16, 435719, Note_on_c, 13, 63, 0
16, 435840, Note_on_c, 13, 67, 52
16, 435959, Note_on_c, 13, 67, 0
16, 436080, Note_on_c, 13, 62, 52
16, 436199, Note_on_c, 13, 62, 0
16, 436320, Note_on_c, 13, 63, 52
16, 436439, Note_on_c, 13, 63, 0
16, 436560, Note_on_c, 13, 59, 52
16, 436679, Note_on_c, 13, 59, 0
16, 436800, Note_on_c, 13, 60, 52
16, 436919, Note_on_c, 13, 60, 0
16, 437040, Note_on_c, 13, 56, 52
16, 437159, Note_on_c, 13, 56, 0
16, 437280, Note_on_c, 13, 68, 52
16, 437399, Note_on_c, 13, 68, 0
16, 437520, Note_on_c, 13, 64, 52
16, 437639, Note_on_c, 13, 64, 0
16, 437760, Note_on_c, 13, 65, 52
16, 437879, Note_on_c, 13, 65, 0
16, 438000, Note_on_c, 13, 61, 52
16, 438119, Note_on_c, 13, 61, 0
16, 438240, Note_on_c, 13, 62, 52
16, 438359, Note_on_c, 13, 62, 0
16, 438480, Note_on_c, 13, 58, 52
16, 438599, Note_on_c, 13, 58, 0
16, 438720, Note_on_c, 13, 70, 52
16, 438839, Note_on_c, 13, 70, 0
16, 438960, Note_on_c, 13, 66, 54
16, 439079, Note_on_c, 13, 66, 0
16, 439200, Note_on_c, 13, 67, 57
16, 439319, Note_on_c, 13, 67, 0
16, 439440, Note_on_c, 13, 62, 60
16, 439559, Note_on_c, 13, 62, 0
16, 439680, Note_on_c, 13, 63, 63
16, 439799, Note_on_c, 13, 63, 0
16, 439920, Note_on_c, 13, 60, 66
16, 440039, Note_on_c, 13, 60, 0
16, 440160, Note_on_c, 13, 55, 69
16, 440279, Note_on_c, 13, 55, 0
16, 440400, Note_on_c, 13, 56, 72
16, 440519, Note_on_c, 13, 56, 0
16, 440640, Note_on_c, 13, 53, 75
16, 440759, Note_on_c, 13, 53, 0
16, 440880, Note_on_c, 13, 61, 78
16, 440999, Note_on_c, 13, 61, 0
16, 441120, Note_on_c, 13, 62, 81
16, 441239, Note_on_c, 13, 62, 0
16, 441360, Note_on_c, 13, 58, 84
16, 441569, Note_on_c, 13, 58, 0
16, 441600, Note_on_c, 13, 65, 84
16, 441809, Note_on_c, 13, 65, 0
16, 441840, Note_on_c, 13, 62, 84
16, 442049, Note_on_c, 13, 62, 0
16, 442080, Note_on_c, 13, 58, 84
16, 442289, Note_on_c, 13, 58, 0
16, 442320, Note_on_c, 13, 74, 84
16, 442529, Note_on_c, 13, 74, 0
16, 442560, Note_on_c, 13, 70, 84
16, 442769, Note_on_c, 13, 70, 0
16, 442800, Note_on_c, 13, 58, 84
16, 443009, Note_on_c, 13, 58, 0
16, 443040, Note_on_c, 13, 65, 84
16, 443249, Note_on_c, 13, 65, 0
16, 443280, Note_on_c, 13, 62, 84
16, 443489, Note_on_c, 13, 62, 0
16, 443520, Note_on_c, 13, 58, 84
16, 443729, Note_on_c, 13, 58, 0
16, 443760, Note_on_c, 13, 60, 84
16, 443969, Note_on_c, 13, 60, 0
16, 444000, Note_on_c, 13, 62, 84
16, 444209, Note_on_c, 13, 62, 0
16, 444240, Note_on_c, 13, 63, 76
16, 444479, Note_on_c, 13, 63, 0
16, 444960, Note_on_c, 13, 58, 76
16, 445199, Note_on_c, 13, 58, 0
16, 446400, Control_c, 13, 11, 96
16, 446640, Note_on_c, 13, 53, 60
16, 446640, Control_c, 13, 11, 96
16, 446720, Control_c, 13, 11, 99
16, 446800, Control_c, 13, 11, 101
16, 446849, Note_on_c, 13, 53, 0
16, 446880, Control_c, 13, 11, 104
16, 446880, Note_on_c, 13, 53, 60
16, 446960, Control_c, 13, 11, 106
16, 447040, Control_c, 13, 11, 109
16, 447089, Note_on_c, 13, 53, 0
16, 447120, Note_on_c, 13, 53, 60
16, 447120, Control_c, 13, 11, 112
16, 447200, Control_c, 13, 11, 114
16, 447280, Control_c, 13, 11, 117
16, 447329, Note_on_c, 13, 53, 0
16, 447360, Control_c, 13, 11, 119
16, 447360, Note_on_c, 13, 53, 60
16, 447440, Control_c, 13, 11, 122
16, 447520, Control_c, 13, 11, 124
16, 447569, Note_on_c, 13, 53, 0
16, 447600, Note_on_c, 13, 53, 60
16, 447600, Control_c, 13, 11, 127
16, 447680, Control_c, 13, 11, 124
16, 447760, Control_c, 13, 11, 122
16, 447809, Note_on_c, 13, 53, 0
16, 447840, Note_on_c, 13, 53, 60
16, 447840, Control_c, 13, 11, 119
16, 447920, Control_c, 13, 11, 117
16, 448000, Control_c, 13, 11, 114
16, 448049, Note_on_c, 13, 53, 0
16, 448080, Note_on_c, 13, 53, 60
16, 448080, Control_c, 13, 11, 112
16, 448160, Control_c, 13, 11, 109
16, 448240, Control_c, 13, 11, 106
16, 448289, Note_on_c, 13, 53, 0
16, 448320, Note_on_c, 13, 53, 60
16, 448320, Control_c, 13, 11, 104
16, 448400, Control_c, 13, 11, 101
16, 448480, Control_c, 13, 11, 96
16, 448529, Note_on_c, 13, 53, 0
16, 448560, Note_on_c, 13, 51, 60
16, 448799, Note_on_c, 13, 51, 0
16, 449520, Control_c, 13, 11, 96
16, 449520, Note_on_c, 13, 65, 60
16, 449620, Control_c, 13, 11, 99
16, 449720, Control_c, 13, 11, 101
16, 449729, Note_on_c, 13, 65, 0
16, 449760, Note_on_c, 13, 65, 60
16, 449820, Control_c, 13, 11, 104
16, 449920, Control_c, 13, 11, 106
16, 449969, Note_on_c, 13, 65, 0
16, 450000, Note_on_c, 13, 65, 60
16, 450020, Control_c, 13, 11, 109
16, 450120, Control_c, 13, 11, 112
16, 450209, Note_on_c, 13, 65, 0
16, 450220, Control_c, 13, 11, 114
16, 450240, Note_on_c, 13, 65, 60
16, 450320, Control_c, 13, 11, 117
16, 450420, Control_c, 13, 11, 119
16, 450449, Note_on_c, 13, 65, 0
16, 450480, Note_on_c, 13, 65, 60
16, 450520, Control_c, 13, 11, 122
16, 450620, Control_c, 13, 11, 124
16, 450689, Note_on_c, 13, 65, 0
16, 450720, Note_on_c, 13, 65, 60
16, 450720, Control_c, 13, 11, 127
16, 450780, Control_c, 13, 11, 124
16, 450840, Control_c, 13, 11, 122
16, 450900, Control_c, 13, 11, 119
16, 450929, Note_on_c, 13, 65, 0
16, 450960, Control_c, 13, 11, 117
16, 450960, Note_on_c, 13, 65, 60
16, 451020, Control_c, 13, 11, 114
16, 451080, Control_c, 13, 11, 112
16, 451140, Control_c, 13, 11, 109
16, 451169, Note_on_c, 13, 65, 0
16, 451200, Control_c, 13, 11, 106
16, 451200, Note_on_c, 13, 65, 60
16, 451260, Control_c, 13, 11, 104
16, 451320, Control_c, 13, 11, 101
16, 451380, Control_c, 13, 11, 96
16, 451409, Note_on_c, 13, 65, 0
16, 451440, Note_on_c, 13, 63, 60
16, 451679, Note_on_c, 13, 63, 0
16, 452880, Control_c, 13, 11, 127
16, 454560, Note_on_c, 13, 58, 66
16, 454649, Note_on_c, 13, 58, 0
16, 454680, Note_on_c, 13, 58, 67
16, 454769, Note_on_c, 13, 58, 0
16, 454800, Note_on_c, 13, 63, 68
16, 454889, Note_on_c, 13, 63, 0
16, 454920, Note_on_c, 13, 63, 69
16, 455009, Note_on_c, 13, 63, 0
16, 455040, Note_on_c, 13, 58, 70
16, 455129, Note_on_c, 13, 58, 0
16, 455160, Note_on_c, 13, 58, 71
16, 455249, Note_on_c, 13, 58, 0
16, 455280, Note_on_c, 13, 63, 72
16, 455369, Note_on_c, 13, 63, 0
16, 455400, Note_on_c, 13, 63, 73
16, 455489, Note_on_c, 13, 63, 0
16, 455520, Note_on_c, 13, 58, 74
16, 455609, Note_on_c, 13, 58, 0
16, 455640, Note_on_c, 13, 58, 75
16, 455729, Note_on_c, 13, 58, 0
16, 455760, Note_on_c, 13, 63, 76
16, 455849, Note_on_c, 13, 63, 0
16, 455880, Note_on_c, 13, 63, 76
16, 455969, Note_on_c, 13, 63, 0
16, 456000, Note_on_c, 13, 58, 76
16, 456089, Note_on_c, 13, 58, 0
16, 456120, Note_on_c, 13, 58, 76
16, 456209, Note_on_c, 13, 58, 0
16, 456240, Note_on_c, 13, 63, 76
16, 456329, Note_on_c, 13, 63, 0
16, 456360, Note_on_c, 13, 63, 76
16, 456449, Note_on_c, 13, 63, 0
16, 456480, Note_on_c, 13, 58, 76
16, 456569, Note_on_c, 13, 58, 0
16, 456600, Note_on_c, 13, 58, 76
16, 456689, Note_on_c, 13, 58, 0
16, 456720, Note_on_c, 13, 63, 76
16, 456809, Note_on_c, 13, 63, 0
16, 456840, Note_on_c, 13, 63, 76
16, 456929, Note_on_c, 13, 63, 0
16, 456960, Note_on_c, 13, 58, 76
16, 457049, Note_on_c, 13, 58, 0
16, 457080, Note_on_c, 13, 58, 76
16, 457169, Note_on_c, 13, 58, 0
16, 457200, Note_on_c, 13, 63, 84
16, 457439, Note_on_c, 13, 63, 0
16, 457920, Note_on_c, 13, 58, 84
16, 458159, Note_on_c, 13, 58, 0
16, 458640, Note_on_c, 13, 63, 84
16, 458640, Note_on_c, 13, 58, 84
16, 458640, Note_on_c, 13, 51, 84
16, 458879, Note_on_c, 13, 63, 0
16, 458879, Note_on_c, 13, 58, 0
16, 458879, Note_on_c, 13, 51, 0
16, 458879, End_track
17, 0, Start_track
17, 0, Title_t, "Cello"
17, 0, MIDI_port, 0
17, 0, Program_c, 14, 48
17, 0, Control_c, 14, 7, 96
17, 0, Control_c, 14, 10, 90
17, 0, Control_c, 14, 11, 127
17, 0, Note_on_c, 14, 51, 44
17, 119, Note_on_c, 14, 51, 0
17, 240, Note_on_c, 14, 51, 44
17, 359, Note_on_c, 14, 51, 0
17, 480, Note_on_c, 14, 51, 44
17, 599, Note_on_c, 14, 51, 0
17, 720, Note_on_c, 14, 51, 44
17, 839, Note_on_c, 14, 51, 0
17, 960, Note_on_c, 14, 51, 44
17, 1079, Note_on_c, 14, 51, 0
17, 1200, Note_on_c, 14, 51, 44
17, 1319, Note_on_c, 14, 51, 0
17, 1440, Note_on_c, 14, 51, 44
17, 1559, Note_on_c, 14, 51, 0
17, 1680, Note_on_c, 14, 51, 44
17, 1799, Note_on_c, 14, 51, 0
17, 1920, Note_on_c, 14, 51, 44
17, 2039, Note_on_c, 14, 51, 0
17, 2160, Note_on_c, 14, 51, 44
17, 2279, Note_on_c, 14, 51, 0
17, 2400, Note_on_c, 14, 51, 44
17, 2519, Note_on_c, 14, 51, 0
17, 2640, Note_on_c, 14, 51, 44
17, 2759, Note_on_c, 14, 51, 0
17, 2880, Note_on_c, 14, 51, 44
17, 2999, Note_on_c, 14, 51, 0
17, 3120, Note_on_c, 14, 51, 44
17, 3239, Note_on_c, 14, 51, 0
17, 3360, Note_on_c, 14, 51, 44
17, 3479, Note_on_c, 14, 51, 0
17, 3600, Note_on_c, 14, 50, 44
17, 3719, Note_on_c, 14, 50, 0
17, 3840, Note_on_c, 14, 51, 44
17, 3959, Note_on_c, 14, 51, 0
17, 4080, Note_on_c, 14, 50, 44
17, 4199, Note_on_c, 14, 50, 0
17, 4320, Note_on_c, 14, 48, 44
17, 4439, Note_on_c, 14, 48, 0
17, 4560, Note_on_c, 14, 46, 44
17, 4679, Note_on_c, 14, 46, 0
17, 4800, Note_on_c, 14, 62, 44
17, 4919, Note_on_c, 14, 62, 0
17, 5040, Note_on_c, 14, 60, 44
17, 5159, Note_on_c, 14, 60, 0
17, 5280, Note_on_c, 14, 58, 44
17, 5399, Note_on_c, 14, 58, 0
17, 5520, Note_on_c, 14, 62, 44
17, 5639, Note_on_c, 14, 62, 0
17, 5760, Note_on_c, 14, 60, 44
17, 5879, Note_on_c, 14, 60, 0
17, 6000, Note_on_c, 14, 58, 44
17, 6119, Note_on_c, 14, 58, 0
17, 6240, Note_on_c, 14, 58, 44
17, 6359, Note_on_c, 14, 58, 0
17, 6480, Note_on_c, 14, 60, 44
17, 6599, Note_on_c, 14, 60, 0
17, 6720, Note_on_c, 14, 62, 44
17, 6839, Note_on_c, 14, 62, 0
17, 6960, Note_on_c, 14, 57, 44
17, 7079, Note_on_c, 14, 57, 0
17, 7200, Note_on_c, 14, 59, 44
17, 7319, Note_on_c, 14, 59, 0
17, 7440, Note_on_c, 14, 60, 44
17, 7559, Note_on_c, 14, 60, 0
17, 7680, Note_on_c, 14, 55, 44
17, 7799, Note_on_c, 14, 55, 0
17, 7920, Note_on_c, 14, 57, 44
17, 8039, Note_on_c, 14, 57, 0
17, 8160, Note_on_c, 14, 58, 44
17, 8279, Note_on_c, 14, 58, 0
17, 8400, Note_on_c, 14, 53, 44
17, 8519, Note_on_c, 14, 53, 0
17, 8640, Note_on_c, 14, 55, 44
17, 8759, Note_on_c, 14, 55, 0
17, 8880, Note_on_c, 14, 51, 44
17, 8999, Note_on_c, 14, 51, 0
17, 9120, Note_on_c, 14, 48, 44
17, 9239, Note_on_c, 14, 48, 0
17, 9360, Note_on_c, 14, 53, 44
17, 9479, Note_on_c, 14, 53, 0
17, 9600, Note_on_c, 14, 46, 52
17, 9809, Note_on_c, 14, 46, 0
17, 9840, Note_on_c, 14, 46, 52
17, 9959, Note_on_c, 14, 46, 0
17, 10080, Note_on_c, 14, 46, 52
17, 10199, Note_on_c, 14, 46, 0
17, 10320, Note_on_c, 14, 46, 52
17, 10439, Note_on_c, 14, 46, 0
17, 10560, Note_on_c, 14, 46, 52
17, 10679, Note_on_c, 14, 46, 0
17, 10800, Note_on_c, 14, 46, 52
17, 10919, Note_on_c, 14, 46, 0
17, 11040, Note_on_c, 14, 46, 52
17, 11159, Note_on_c, 14, 46, 0
17, 11280, Note_on_c, 14, 46, 52
17, 11399, Note_on_c, 14, 46, 0
17, 11520, Note_on_c, 14, 46, 52
17, 11639, Note_on_c, 14, 46, 0
17, 11760, Note_on_c, 14, 46, 52
17, 11879, Note_on_c, 14, 46, 0
17, 12000, Note_on_c, 14, 46, 52
17, 12119, Note_on_c, 14, 46, 0
17, 12240, Note_on_c, 14, 46, 52
17, 12359, Note_on_c, 14, 46, 0
17, 12480, Note_on_c, 14, 46, 52
17, 12599, Note_on_c, 14, 46, 0
17, 12720, Note_on_c, 14, 46, 52
17, 12839, Note_on_c, 14, 46, 0
17, 12960, Note_on_c, 14, 56, 52
17, 13079, Note_on_c, 14, 56, 0
17, 13200, Note_on_c, 14, 55, 52
17, 13319, Note_on_c, 14, 55, 0
17, 13440, Note_on_c, 14, 50, 52
17, 13559, Note_on_c, 14, 50, 0
17, 13680, Note_on_c, 14, 50, 52
17, 13799, Note_on_c, 14, 50, 0
17, 13920, Note_on_c, 14, 51, 52
17, 14039, Note_on_c, 14, 51, 0
17, 14160, Note_on_c, 14, 50, 52
17, 14279, Note_on_c, 14, 50, 0
17, 14400, Note_on_c, 14, 48, 52
17, 14519, Note_on_c, 14, 48, 0
17, 14640, Note_on_c, 14, 46, 52
17, 14759, Note_on_c, 14, 46, 0
17, 14880, Note_on_c, 14, 62, 52
17, 14999, Note_on_c, 14, 62, 0
17, 15120, Note_on_c, 14, 60, 52
17, 15239, Note_on_c, 14, 60, 0
17, 15360, Note_on_c, 14, 58, 52
17, 15479, Note_on_c, 14, 58, 0
17, 15600, Note_on_c, 14, 62, 52
17, 15719, Note_on_c, 14, 62, 0
17, 15840, Note_on_c, 14, 60, 52
17, 15959, Note_on_c, 14, 60, 0
17, 16080, Note_on_c, 14, 58, 52
17, 16199, Note_on_c, 14, 58, 0
17, 16320, Note_on_c, 14, 58, 52
17, 16439, Note_on_c, 14, 58, 0
17, 16560, Note_on_c, 14, 60, 52
17, 16679, Note_on_c, 14, 60, 0
17, 16800, Note_on_c, 14, 62, 52
17, 16919, Note_on_c, 14, 62, 0
17, 17040, Note_on_c, 14, 57, 52
17, 17159, Note_on_c, 14, 57, 0
17, 17280, Note_on_c, 14, 59, 52
17, 17399, Note_on_c, 14, 59, 0
17, 17520, Note_on_c, 14, 60, 52
17, 17639, Note_on_c, 14, 60, 0
17, 17760, Note_on_c, 14, 55, 52
17, 17879, Note_on_c, 14, 55, 0
17, 18000, Note_on_c, 14, 57, 52
17, 18119, Note_on_c, 14, 57, 0
17, 18240, Note_on_c, 14, 58, 52
17, 18359, Note_on_c, 14, 58, 0
17, 18480, Note_on_c, 14, 53, 52
17, 18599, Note_on_c, 14, 53, 0
17, 18720, Note_on_c, 14, 55, 52
17, 18839, Note_on_c, 14, 55, 0
17, 18960, Note_on_c, 14, 51, 52
17, 19079, Note_on_c, 14, 51, 0
17, 19200, Note_on_c, 14, 48, 52
17, 19319, Note_on_c, 14, 48, 0
17, 19440, Note_on_c, 14, 53, 52
17, 19559, Note_on_c, 14, 53, 0
17, 19680, Note_on_c, 14, 46, 52
17, 19799, Note_on_c, 14, 46, 0
17, 19920, Note_on_c, 14, 46, 52
17, 20039, Note_on_c, 14, 46, 0
17, 20160, Note_on_c, 14, 46, 52
17, 20279, Note_on_c, 14, 46, 0
17, 20400, Note_on_c, 14, 46, 52
17, 20519, Note_on_c, 14, 46, 0
17, 20640, Note_on_c, 14, 47, 52
17, 20759, Note_on_c, 14, 47, 0
17, 20880, Note_on_c, 14, 46, 52
17, 20999, Note_on_c, 14, 46, 0
17, 21120, Note_on_c, 14, 47, 52
17, 21239, Note_on_c, 14, 47, 0
17, 21360, Note_on_c, 14, 46, 52
17, 21479, Note_on_c, 14, 46, 0
17, 21600, Note_on_c, 14, 47, 52
17, 21719, Note_on_c, 14, 47, 0
17, 21840, Note_on_c, 14, 46, 44
17, 21959, Note_on_c, 14, 46, 0
17, 22080, Note_on_c, 14, 47, 44
17, 22199, Note_on_c, 14, 47, 0
17, 22320, Note_on_c, 14, 46, 44
17, 22439, Note_on_c, 14, 46, 0
17, 22560, Note_on_c, 14, 47, 44
17, 22679, Note_on_c, 14, 47, 0
17, 22800, Note_on_c, 14, 47, 44
17, 22919, Note_on_c, 14, 47, 0
17, 23040, Note_on_c, 14, 48, 44
17, 23159, Note_on_c, 14, 48, 0
17, 23280, Note_on_c, 14, 48, 44
17, 23399, Note_on_c, 14, 48, 0
17, 23520, Note_on_c, 14, 49, 44
17, 23639, Note_on_c, 14, 49, 0
17, 23760, Note_on_c, 14, 48, 44
17, 23879, Note_on_c, 14, 48, 0
17, 24000, Note_on_c, 14, 49, 44
17, 24119, Note_on_c, 14, 49, 0
17, 24240, Note_on_c, 14, 48, 44
17, 24359, Note_on_c, 14, 48, 0
17, 24480, Note_on_c, 14, 49, 44
17, 24599, Note_on_c, 14, 49, 0
17, 24720, Note_on_c, 14, 48, 44
17, 24839, Note_on_c, 14, 48, 0
17, 24960, Note_on_c, 14, 49, 44
17, 25079, Note_on_c, 14, 49, 0
17, 25200, Note_on_c, 14, 48, 44
17, 25319, Note_on_c, 14, 48, 0
17, 25440, Note_on_c, 14, 49, 44
17, 25559, Note_on_c, 14, 49, 0
17, 25680, Note_on_c, 14, 49, 44
17, 25799, Note_on_c, 14, 49, 0
17, 25920, Note_on_c, 14, 48, 44
17, 26039, Note_on_c, 14, 48, 0
17, 26160, Note_on_c, 14, 48, 44
17, 26279, Note_on_c, 14, 48, 0
17, 26400, Note_on_c, 14, 49, 44
17, 26519, Note_on_c, 14, 49, 0
17, 26640, Note_on_c, 14, 49, 44
17, 26759, Note_on_c, 14, 49, 0
17, 26880, Note_on_c, 14, 49, 44
17, 26999, Note_on_c, 14, 49, 0
17, 27120, Note_on_c, 14, 50, 44
17, 27239, Note_on_c, 14, 50, 0
17, 27360, Note_on_c, 14, 50, 44
17, 27479, Note_on_c, 14, 50, 0
17, 27600, Note_on_c, 14, 50, 44
17, 27719, Note_on_c, 14, 50, 0
17, 27840, Note_on_c, 14, 51, 44
17, 27959, Note_on_c, 14, 51, 0
17, 28080, Note_on_c, 14, 51, 44
17, 28199, Note_on_c, 14, 51, 0
17, 28320, Note_on_c, 14, 51, 44
17, 28439, Note_on_c, 14, 51, 0
17, 28560, Note_on_c, 14, 52, 44
17, 28679, Note_on_c, 14, 52, 0
17, 28800, Note_on_c, 14, 52, 44
17, 28919, Note_on_c, 14, 52, 0
17, 29040, Note_on_c, 14, 53, 44
17, 29279, Note_on_c, 14, 53, 0
17, 29760, Note_on_c, 14, 53, 44
17, 29999, Note_on_c, 14, 53, 0
17, 30480, Note_on_c, 14, 53, 44
17, 30719, Note_on_c, 14, 53, 0
17, 31200, Note_on_c, 14, 53, 44
17, 31439, Note_on_c, 14, 53, 0
17, 31920, Note_on_c, 14, 48, 44
17, 32159, Note_on_c, 14, 48, 0
17, 32640, Note_on_c, 14, 53, 44
17, 32879, Note_on_c, 14, 53, 0
17, 33360, Note_on_c, 14, 48, 44
17, 33599, Note_on_c, 14, 48, 0
17, 34080, Note_on_c, 14, 53, 44
17, 34319, Note_on_c, 14, 53, 0
17, 36240, Note_on_c, 14, 48, 52
17, 36929, Note_on_c, 14, 48, 0
17, 36960, Note_on_c, 14, 53, 44
17, 37079, Note_on_c, 14, 53, 0
17, 37200, Note_on_c, 14, 57, 44
17, 37319, Note_on_c, 14, 57, 0
17, 37440, Note_on_c, 14, 60, 44
17, 37559, Note_on_c, 14, 60, 0
17, 39120, Note_on_c, 14, 50, 52
17, 39809, Note_on_c, 14, 50, 0
17, 39840, Note_on_c, 14, 55, 44
17, 40079, Note_on_c, 14, 55, 0
17, 40080, Note_on_c, 14, 58, 44
17, 40289, Note_on_c, 14, 58, 0
17, 40320, Note_on_c, 14, 55, 44
17, 40439, Note_on_c, 14, 55, 0
17, 40560, Note_on_c, 14, 54, 44
17, 40679, Note_on_c, 14, 54, 0
17, 40800, Note_on_c, 14, 50, 44
17, 40919, Note_on_c, 14, 50, 0
17, 41040, Note_on_c, 14, 60, 44
17, 41159, Note_on_c, 14, 60, 0
17, 41280, Note_on_c, 14, 58, 44
17, 41399, Note_on_c, 14, 58, 0
17, 41520, Note_on_c, 14, 55, 44
17, 41639, Note_on_c, 14, 55, 0
17, 41760, Note_on_c, 14, 51, 44
17, 41879, Note_on_c, 14, 51, 0
17, 42000, Note_on_c, 14, 50, 44
17, 42119, Note_on_c, 14, 50, 0
17, 42240, Note_on_c, 14, 57, 44
17, 42359, Note_on_c, 14, 57, 0
17, 42480, Note_on_c, 14, 54, 44
17, 42599, Note_on_c, 14, 54, 0
17, 42720, Note_on_c, 14, 55, 44
17, 42839, Note_on_c, 14, 55, 0
17, 42960, Note_on_c, 14, 58, 44
17, 43079, Note_on_c, 14, 58, 0
17, 43200, Note_on_c, 14, 63, 44
17, 43319, Note_on_c, 14, 63, 0
17, 43440, Note_on_c, 14, 62, 44
17, 43559, Note_on_c, 14, 62, 0
17, 43680, Note_on_c, 14, 61, 44
17, 43799, Note_on_c, 14, 61, 0
17, 43920, Note_on_c, 14, 62, 44
17, 44039, Note_on_c, 14, 62, 0
17, 44160, Note_on_c, 14, 57, 44
17, 44279, Note_on_c, 14, 57, 0
17, 44400, Note_on_c, 14, 58, 44
17, 44519, Note_on_c, 14, 58, 0
17, 44640, Note_on_c, 14, 54, 44
17, 44759, Note_on_c, 14, 54, 0
17, 44880, Note_on_c, 14, 55, 44
17, 44999, Note_on_c, 14, 55, 0
17, 45120, Note_on_c, 14, 50, 44
17, 45239, Note_on_c, 14, 50, 0
17, 45360, Note_on_c, 14, 51, 44
17, 45479, Note_on_c, 14, 51, 0
17, 45600, Note_on_c, 14, 50, 44
17, 45719, Note_on_c, 14, 50, 0
17, 45840, Note_on_c, 14, 51, 44
17, 45959, Note_on_c, 14, 51, 0
17, 46080, Note_on_c, 14, 49, 44
17, 46199, Note_on_c, 14, 49, 0
17, 46320, Note_on_c, 14, 50, 44
17, 46439, Note_on_c, 14, 50, 0
17, 46560, Note_on_c, 14, 49, 44
17, 46679, Note_on_c, 14, 49, 0
17, 46800, Note_on_c, 14, 50, 44
17, 46919, Note_on_c, 14, 50, 0
17, 47040, Note_on_c, 14, 49, 44
17, 47159, Note_on_c, 14, 49, 0
17, 47280, Note_on_c, 14, 50, 44
17, 47399, Note_on_c, 14, 50, 0
17, 47520, Note_on_c, 14, 49, 44
17, 47639, Note_on_c, 14, 49, 0
17, 47760, Note_on_c, 14, 50, 44
17, 47879, Note_on_c, 14, 50, 0
17, 48000, Note_on_c, 14, 49, 44
17, 48119, Note_on_c, 14, 49, 0
17, 48240, Note_on_c, 14, 50, 44
17, 48359, Note_on_c, 14, 50, 0
17, 48480, Note_on_c, 14, 49, 44
17, 48599, Note_on_c, 14, 49, 0
17, 48720, Note_on_c, 14, 50, 44
17, 48839, Note_on_c, 14, 50, 0
17, 48960, Note_on_c, 14, 49, 44
17, 49079, Note_on_c, 14, 49, 0
17, 49200, Note_on_c, 14, 50, 44
17, 49439, Note_on_c, 14, 50, 0
17, 52080, Note_on_c, 14, 46, 44
17, 52199, Note_on_c, 14, 46, 0
17, 52320, Note_on_c, 14, 46, 44
17, 52439, Note_on_c, 14, 46, 0
17, 52560, Note_on_c, 14, 46, 44
17, 52679, Note_on_c, 14, 46, 0
17, 52800, Note_on_c, 14, 46, 44
17, 52919, Note_on_c, 14, 46, 0
17, 53040, Note_on_c, 14, 46, 44
17, 53159, Note_on_c, 14, 46, 0
17, 53280, Note_on_c, 14, 46, 44
17, 53399, Note_on_c, 14, 46, 0
17, 53520, Note_on_c, 14, 46, 44
17, 53639, Note_on_c, 14, 46, 0
17, 53760, Note_on_c, 14, 46, 44
17, 53879, Note_on_c, 14, 46, 0
17, 54000, Note_on_c, 14, 46, 44
17, 54119, Note_on_c, 14, 46, 0
17, 54240, Note_on_c, 14, 46, 44
17, 54359, Note_on_c, 14, 46, 0
17, 54480, Note_on_c, 14, 46, 44
17, 54599, Note_on_c, 14, 46, 0
17, 54720, Note_on_c, 14, 46, 44
17, 54839, Note_on_c, 14, 46, 0
17, 54960, Note_on_c, 14, 46, 44
17, 55079, Note_on_c, 14, 46, 0
17, 55200, Note_on_c, 14, 46, 44
17, 55319, Note_on_c, 14, 46, 0
17, 55440, Note_on_c, 14, 46, 44
17, 55559, Note_on_c, 14, 46, 0
17, 55680, Note_on_c, 14, 46, 44
17, 55799, Note_on_c, 14, 46, 0
17, 55920, Note_on_c, 14, 46, 44
17, 56039, Note_on_c, 14, 46, 0
17, 56160, Note_on_c, 14, 46, 44
17, 56279, Note_on_c, 14, 46, 0
17, 56400, Note_on_c, 14, 46, 44
17, 56519, Note_on_c, 14, 46, 0
17, 56640, Note_on_c, 14, 46, 44
17, 56759, Note_on_c, 14, 46, 0
17, 56880, Note_on_c, 14, 46, 44
17, 56999, Note_on_c, 14, 46, 0
17, 57120, Note_on_c, 14, 46, 44
17, 57239, Note_on_c, 14, 46, 0
17, 57360, Note_on_c, 14, 46, 44
17, 57479, Note_on_c, 14, 46, 0
17, 57600, Note_on_c, 14, 46, 44
17, 57719, Note_on_c, 14, 46, 0
17, 57840, Note_on_c, 14, 46, 44
17, 57959, Note_on_c, 14, 46, 0
17, 58080, Note_on_c, 14, 46, 44
17, 58199, Note_on_c, 14, 46, 0
17, 58320, Note_on_c, 14, 46, 44
17, 58439, Note_on_c, 14, 46, 0
17, 58560, Note_on_c, 14, 46, 44
17, 58679, Note_on_c, 14, 46, 0
17, 58800, Note_on_c, 14, 46, 44
17, 58919, Note_on_c, 14, 46, 0
17, 59040, Note_on_c, 14, 46, 44
17, 59159, Note_on_c, 14, 46, 0
17, 59280, Note_on_c, 14, 46, 44
17, 59489, Note_on_c, 14, 46, 0
17, 59520, Note_on_c, 14, 46, 44
17, 59729, Note_on_c, 14, 46, 0
17, 59760, Note_on_c, 14, 46, 44
17, 59969, Note_on_c, 14, 46, 0
17, 60000, Note_on_c, 14, 46, 44
17, 60209, Note_on_c, 14, 46, 0
17, 60240, Note_on_c, 14, 46, 44
17, 60449, Note_on_c, 14, 46, 0
17, 60480, Note_on_c, 14, 46, 44
17, 60689, Note_on_c, 14, 46, 0
17, 60720, Note_on_c, 14, 46, 44
17, 60929, Note_on_c, 14, 46, 0
17, 60960, Note_on_c, 14, 62, 44
17, 61169, Note_on_c, 14, 62, 0
17, 61200, Note_on_c, 14, 60, 44
17, 61409, Note_on_c, 14, 60, 0
17, 61440, Note_on_c, 14, 58, 44
17, 61649, Note_on_c, 14, 58, 0
17, 61680, Note_on_c, 14, 62, 44
17, 61889, Note_on_c, 14, 62, 0
17, 61920, Note_on_c, 14, 60, 44
17, 62129, Note_on_c, 14, 60, 0
17, 62160, Note_on_c, 14, 58, 44
17, 62369, Note_on_c, 14, 58, 0
17, 62400, Note_on_c, 14, 58, 44
17, 62609, Note_on_c, 14, 58, 0
17, 62640, Note_on_c, 14, 60, 44
17, 62849, Note_on_c, 14, 60, 0
17, 62880, Note_on_c, 14, 62, 44
17, 63089, Note_on_c, 14, 62, 0
17, 63120, Note_on_c, 14, 57, 44
17, 63329, Note_on_c, 14, 57, 0
17, 63360, Note_on_c, 14, 59, 44
17, 63569, Note_on_c, 14, 59, 0
17, 63600, Note_on_c, 14, 60, 44
17, 63809, Note_on_c, 14, 60, 0
17, 63840, Note_on_c, 14, 55, 44
17, 64049, Note_on_c, 14, 55, 0
17, 64080, Note_on_c, 14, 57, 44
17, 64289, Note_on_c, 14, 57, 0
17, 64320, Note_on_c, 14, 58, 44
17, 64529, Note_on_c, 14, 58, 0
17, 64560, Note_on_c, 14, 53, 44
17, 64769, Note_on_c, 14, 53, 0
17, 64800, Note_on_c, 14, 55, 44
17, 65009, Note_on_c, 14, 55, 0
17, 65040, Note_on_c, 14, 51, 44
17, 65249, Note_on_c, 14, 51, 0
17, 65280, Note_on_c, 14, 48, 44
17, 65489, Note_on_c, 14, 48, 0
17, 65520, Note_on_c, 14, 53, 44
17, 65729, Note_on_c, 14, 53, 0
17, 65760, Note_on_c, 14, 46, 44
17, 65879, Note_on_c, 14, 46, 0
17, 66000, Note_on_c, 14, 48, 57
17, 66119, Note_on_c, 14, 48, 0
17, 66240, Note_on_c, 14, 50, 70
17, 66359, Note_on_c, 14, 50, 0
17, 66480, Note_on_c, 14, 51, 84
17, 66689, Note_on_c, 14, 51, 0
17, 66720, Note_on_c, 14, 55, 84
17, 66929, Note_on_c, 14, 55, 0
17, 66960, Note_on_c, 14, 58, 84
17, 67169, Note_on_c, 14, 58, 0
17, 67200, Note_on_c, 14, 51, 84
17, 67409, Note_on_c, 14, 51, 0
17, 67440, Note_on_c, 14, 55, 84
17, 67649, Note_on_c, 14, 55, 0
17, 67680, Note_on_c, 14, 58, 84
17, 67889, Note_on_c, 14, 58, 0
17, 67920, Note_on_c, 14, 63, 84
17, 68129, Note_on_c, 14, 63, 0
17, 68160, Note_on_c, 14, 63, 84
17, 68369, Note_on_c, 14, 63, 0
17, 68400, Note_on_c, 14, 63, 84
17, 68609, Note_on_c, 14, 63, 0
17, 68640, Note_on_c, 14, 63, 84
17, 68849, Note_on_c, 14, 63, 0
17, 68880, Note_on_c, 14, 63, 84
17, 69089, Note_on_c, 14, 63, 0
17, 69120, Note_on_c, 14, 63, 84
17, 69329, Note_on_c, 14, 63, 0
17, 69360, Note_on_c, 14, 63, 84
17, 69599, Note_on_c, 14, 63, 0
17, 69600, Note_on_c, 14, 65, 84
17, 69719, Note_on_c, 14, 65, 0
17, 69720, Note_on_c, 14, 63, 84
17, 69839, Note_on_c, 14, 63, 0
17, 69840, Note_on_c, 14, 62, 84
17, 69959, Note_on_c, 14, 62, 0
17, 69960, Note_on_c, 14, 60, 84
17, 70049, Note_on_c, 14, 60, 0
17, 70080, Note_on_c, 14, 58, 84
17, 70769, Note_on_c, 14, 58, 0
17, 70800, Note_on_c, 14, 56, 92
17, 71489, Note_on_c, 14, 56, 0
17, 71520, Note_on_c, 14, 55, 84
17, 71759, Note_on_c, 14, 55, 0
17, 71760, Note_on_c, 14, 58, 84
17, 71969, Note_on_c, 14, 58, 0
17, 72000, Note_on_c, 14, 55, 84
17, 72119, Note_on_c, 14, 55, 0
17, 72240, Note_on_c, 14, 53, 84
17, 72479, Note_on_c, 14, 53, 0
17, 72480, Note_on_c, 14, 58, 84
17, 72689, Note_on_c, 14, 58, 0
17, 72720, Note_on_c, 14, 53, 84
17, 72839, Note_on_c, 14, 53, 0
17, 72960, Note_on_c, 14, 51, 84
17, 73079, Note_on_c, 14, 51, 0
17, 73200, Note_on_c, 14, 55, 84
17, 73319, Note_on_c, 14, 55, 0
17, 73440, Note_on_c, 14, 58, 84
17, 73559, Note_on_c, 14, 58, 0
17, 73680, Note_on_c, 14, 56, 92
17, 74369, Note_on_c, 14, 56, 0
17, 74400, Note_on_c, 14, 55, 84
17, 74639, Note_on_c, 14, 55, 0
17, 74640, Note_on_c, 14, 58, 84
17, 74849, Note_on_c, 14, 58, 0
17, 74880, Note_on_c, 14, 55, 84
17, 74999, Note_on_c, 14, 55, 0
17, 75120, Note_on_c, 14, 53, 84
17, 75359, Note_on_c, 14, 53, 0
17, 75360, Note_on_c, 14, 56, 84
17, 75569, Note_on_c, 14, 56, 0
17, 75600, Note_on_c, 14, 53, 84
17, 75719, Note_on_c, 14, 53, 0
17, 75840, Note_on_c, 14, 51, 84
17, 75959, Note_on_c, 14, 51, 0
17, 76080, Note_on_c, 14, 56, 84
17, 76199, Note_on_c, 14, 56, 0
17, 76320, Note_on_c, 14, 51, 84
17, 76439, Note_on_c, 14, 51, 0
17, 76560, Note_on_c, 14, 49, 92
17, 77249, Note_on_c, 14, 49, 0
17, 77280, Note_on_c, 14, 48, 84
17, 77519, Note_on_c, 14, 48, 0
17, 77520, Note_on_c, 14, 51, 84
17, 77729, Note_on_c, 14, 51, 0
17, 77760, Note_on_c, 14, 48, 84
17, 77879, Note_on_c, 14, 48, 0
17, 78000, Note_on_c, 14, 51, 84
17, 78119, Note_on_c, 14, 51, 0
17, 78240, Note_on_c, 14, 46, 84
17, 78359, Note_on_c, 14, 46, 0
17, 78480, Note_on_c, 14, 51, 84
17, 78599, Note_on_c, 14, 51, 0
17, 78720, Note_on_c, 14, 44, 84
17, 78839, Note_on_c, 14, 44, 0
17, 78960, Note_on_c, 14, 56, 84
17, 79079, Note_on_c, 14, 56, 0
17, 79200, Note_on_c, 14, 44, 84
17, 79319, Note_on_c, 14, 44, 0
17, 79440, Note_on_c, 14, 55, 84
17, 79559, Note_on_c, 14, 55, 0
17, 79680, Note_on_c, 14, 43, 84
17, 79799, Note_on_c, 14, 43, 0
17, 79920, Note_on_c, 14, 55, 84
17, 80039, Note_on_c, 14, 55, 0
17, 80160, Note_on_c, 14, 44, 84
17, 80279, Note_on_c, 14, 44, 0
17, 80400, Note_on_c, 14, 53, 84
17, 80519, Note_on_c, 14, 53, 0
17, 80640, Note_on_c, 14, 44, 84
17, 80759, Note_on_c, 14, 44, 0
17, 80880, Note_on_c, 14, 46, 84
17, 80999, Note_on_c, 14, 46, 0
17, 81120, Note_on_c, 14, 55, 84
17, 81239, Note_on_c, 14, 55, 0
17, 81360, Note_on_c, 14, 46, 84
17, 81479, Note_on_c, 14, 46, 0
17, 81600, Note_on_c, 14, 58, 84
17, 81719, Note_on_c, 14, 58, 0
17, 81840, Note_on_c, 14, 46, 84
17, 81959, Note_on_c, 14, 46, 0
17, 82080, Note_on_c, 14, 58, 84
17, 82199, Note_on_c, 14, 58, 0
17, 82320, Note_on_c, 14, 51, 84
17, 82439, Note_on_c, 14, 51, 0
17, 82560, Note_on_c, 14, 67, 84
17, 82919, Note_on_c, 14, 67, 0
17, 83040, Note_on_c, 14, 63, 84
17, 83159, Note_on_c, 14, 63, 0
17, 83280, Note_on_c, 14, 58, 84
17, 83639, Note_on_c, 14, 58, 0
17, 83760, Note_on_c, 14, 55, 84
17, 83879, Note_on_c, 14, 55, 0
17, 84000, Note_on_c, 14, 51, 84
17, 84359, Note_on_c, 14, 51, 0
17, 84480, Note_on_c, 14, 46, 84
17, 84719, Note_on_c, 14, 46, 0
17, 84960, Note_on_c, 14, 44, 84
17, 85019, Note_on_c, 14, 44, 0
17, 85020, Note_on_c, 14, 46, 84
17, 85079, Note_on_c, 14, 46, 0
17, 85080, Note_on_c, 14, 43, 84
17, 85139, Note_on_c, 14, 43, 0
17, 85140, Note_on_c, 14, 44, 84
17, 85199, Note_on_c, 14, 44, 0
17, 85200, Note_on_c, 14, 43, 84
17, 85439, Note_on_c, 14, 43, 0
17, 86880, Note_on_c, 14, 46, 52
17, 87089, Note_on_c, 14, 46, 0
17, 87120, Note_on_c, 14, 46, 52
17, 87329, Note_on_c, 14, 46, 0
17, 87360, Note_on_c, 14, 46, 52
17, 87569, Note_on_c, 14, 46, 0
17, 87600, Note_on_c, 14, 46, 52
17, 87809, Note_on_c, 14, 46, 0
17, 87840, Note_on_c, 14, 46, 52
17, 88049, Note_on_c, 14, 46, 0
17, 88080, Note_on_c, 14, 51, 76
17, 88199, Note_on_c, 14, 51, 0
17, 88320, Note_on_c, 14, 67, 84
17, 88769, Note_on_c, 14, 67, 0
17, 88800, Note_on_c, 14, 63, 76
17, 89009, Note_on_c, 14, 63, 0
17, 89040, Note_on_c, 14, 58, 84
17, 89489, Note_on_c, 14, 58, 0
17, 89520, Note_on_c, 14, 55, 76
17, 89729, Note_on_c, 14, 55, 0
17, 89760, Note_on_c, 14, 51, 84
17, 90209, Note_on_c, 14, 51, 0
17, 90240, Note_on_c, 14, 46, 76
17, 90479, Note_on_c, 14, 46, 0
17, 90720, Note_on_c, 14, 44, 76
17, 90779, Note_on_c, 14, 44, 0
17, 90780, Note_on_c, 14, 46, 76
17, 90839, Note_on_c, 14, 46, 0
17, 90840, Note_on_c, 14, 43, 76
17, 90899, Note_on_c, 14, 43, 0
17, 90900, Note_on_c, 14, 44, 76
17, 90959, Note_on_c, 14, 44, 0
17, 90960, Note_on_c, 14, 43, 76
17, 91199, Note_on_c, 14, 43, 0
17, 92640, Note_on_c, 14, 64, 52
17, 92759, Note_on_c, 14, 64, 0
17, 92880, Note_on_c, 14, 65, 52
17, 92999, Note_on_c, 14, 65, 0
17, 93120, Note_on_c, 14, 64, 52
17, 93239, Note_on_c, 14, 64, 0
17, 93360, Note_on_c, 14, 65, 52
17, 93479, Note_on_c, 14, 65, 0
17, 93600, Note_on_c, 14, 64, 52
17, 93719, Note_on_c, 14, 64, 0
17, 93840, Note_on_c, 14, 65, 52
17, 93959, Note_on_c, 14, 65, 0
17, 95520, Note_on_c, 14, 62, 52
17, 95639, Note_on_c, 14, 62, 0
17, 95760, Note_on_c, 14, 63, 52
17, 95879, Note_on_c, 14, 63, 0
17, 96000, Note_on_c, 14, 62, 52
17, 96119, Note_on_c, 14, 62, 0
17, 96240, Note_on_c, 14, 63, 52
17, 96359, Note_on_c, 14, 63, 0
17, 96480, Note_on_c, 14, 62, 52
17, 96599, Note_on_c, 14, 62, 0
17, 96720, Note_on_c, 14, 63, 52
17, 96839, Note_on_c, 14, 63, 0
17, 98400, Note_on_c, 14, 62, 52
17, 98519, Note_on_c, 14, 62, 0
17, 98640, Note_on_c, 14, 63, 52
17, 98759, Note_on_c, 14, 63, 0
17, 98880, Note_on_c, 14, 62, 52
17, 98999, Note_on_c, 14, 62, 0
17, 99120, Note_on_c, 14, 63, 52
17, 99239, Note_on_c, 14, 63, 0
17, 99360, Note_on_c, 14, 62, 52
17, 99479, Note_on_c, 14, 62, 0
17, 99600, Note_on_c, 14, 63, 52
17, 99719, Note_on_c, 14, 63, 0
17, 101280, Note_on_c, 14, 56, 52
17, 101399, Note_on_c, 14, 56, 0
17, 101520, Note_on_c, 14, 51, 52
17, 101639, Note_on_c, 14, 51, 0
17, 101760, Note_on_c, 14, 56, 52
17, 101879, Note_on_c, 14, 56, 0
17, 102000, Note_on_c, 14, 51, 52
17, 102119, Note_on_c, 14, 51, 0
17, 102240, Note_on_c, 14, 56, 52
17, 102359, Note_on_c, 14, 56, 0
17, 102480, Note_on_c, 14, 51, 52
17, 102599, Note_on_c, 14, 51, 0
17, 108240, Note_on_c, 14, 51, 52
17, 108359, Note_on_c, 14, 51, 0
17, 108480, Note_on_c, 14, 55, 52
17, 108599, Note_on_c, 14, 55, 0
17, 108720, Note_on_c, 14, 50, 52
17, 108839, Note_on_c, 14, 50, 0
17, 108960, Note_on_c, 14, 51, 52
17, 109079, Note_on_c, 14, 51, 0
17, 109200, Note_on_c, 14, 47, 52
17, 109319, Note_on_c, 14, 47, 0
17, 109440, Note_on_c, 14, 48, 52
17, 109559, Note_on_c, 14, 48, 0
17, 109680, Note_on_c, 14, 44, 52
17, 109799, Note_on_c, 14, 44, 0
17, 109920, Note_on_c, 14, 56, 52
17, 110039, Note_on_c, 14, 56, 0
17, 110160, Note_on_c, 14, 52, 52
17, 110279, Note_on_c, 14, 52, 0
17, 110400, Note_on_c, 14, 53, 52
17, 110519, Note_on_c, 14, 53, 0
17, 110640, Note_on_c, 14, 49, 52
17, 110759, Note_on_c, 14, 49, 0
17, 110880, Note_on_c, 14, 50, 52
17, 110999, Note_on_c, 14, 50, 0
17, 111120, Note_on_c, 14, 46, 52
17, 111239, Note_on_c, 14, 46, 0
17, 111360, Note_on_c, 14, 58, 54
17, 111479, Note_on_c, 14, 58, 0
17, 111600, Note_on_c, 14, 54, 57
17, 111719, Note_on_c, 14, 54, 0
17, 111840, Note_on_c, 14, 55, 60
17, 111959, Note_on_c, 14, 55, 0
17, 112080, Note_on_c, 14, 50, 62
17, 112199, Note_on_c, 14, 50, 0
17, 112320, Note_on_c, 14, 51, 65
17, 112439, Note_on_c, 14, 51, 0
17, 112560, Note_on_c, 14, 48, 68
17, 112679, Note_on_c, 14, 48, 0
17, 112800, Note_on_c, 14, 43, 70
17, 112919, Note_on_c, 14, 43, 0
17, 113040, Note_on_c, 14, 44, 73
17, 113159, Note_on_c, 14, 44, 0
17, 113280, Note_on_c, 14, 41, 76
17, 113399, Note_on_c, 14, 41, 0
17, 113520, Note_on_c, 14, 49, 78
17, 113639, Note_on_c, 14, 49, 0
17, 113760, Note_on_c, 14, 50, 81
17, 113879, Note_on_c, 14, 50, 0
17, 114000, Note_on_c, 14, 46, 84
17, 114209, Note_on_c, 14, 46, 0
17, 114240, Note_on_c, 14, 53, 84
17, 114449, Note_on_c, 14, 53, 0
17, 114480, Note_on_c, 14, 50, 84
17, 114689, Note_on_c, 14, 50, 0
17, 114720, Note_on_c, 14, 46, 84
17, 114929, Note_on_c, 14, 46, 0
17, 114960, Note_on_c, 14, 62, 84
17, 115169, Note_on_c, 14, 62, 0
17, 115200, Note_on_c, 14, 58, 84
17, 115409, Note_on_c, 14, 58, 0
17, 115440, Note_on_c, 14, 46, 84
17, 115649, Note_on_c, 14, 46, 0
17, 115680, Note_on_c, 14, 65, 84
17, 115889, Note_on_c, 14, 65, 0
17, 115920, Note_on_c, 14, 62, 84
17, 116129, Note_on_c, 14, 62, 0
17, 116160, Note_on_c, 14, 58, 84
17, 116369, Note_on_c, 14, 58, 0
17, 116400, Note_on_c, 14, 60, 84
17, 116609, Note_on_c, 14, 60, 0
17, 116640, Note_on_c, 14, 62, 84
17, 116849, Note_on_c, 14, 62, 0
17, 116880, Note_on_c, 14, 63, 76
17, 117119, Note_on_c, 14, 63, 0
17, 117600, Note_on_c, 14, 46, 76
17, 117839, Note_on_c, 14, 46, 0
17, 118080, Note_on_c, 14, 46, 76
17, 118319, Note_on_c, 14, 46, 0
17, 118320, Note_on_c, 14, 46, 76
17, 118439, Note_on_c, 14, 46, 0
17, 118560, Note_on_c, 14, 47, 52
17, 118679, Note_on_c, 14, 47, 0
17, 118800, Note_on_c, 14, 46, 52
17, 118919, Note_on_c, 14, 46, 0
17, 119040, Note_on_c, 14, 47, 52
17, 119159, Note_on_c, 14, 47, 0
17, 119280, Note_on_c, 14, 46, 52
17, 119399, Note_on_c, 14, 46, 0
17, 119520, Note_on_c, 14, 47, 52
17, 119639, Note_on_c, 14, 47, 0
17, 119760, Note_on_c, 14, 46, 44
17, 119879, Note_on_c, 14, 46, 0
17, 120000, Note_on_c, 14, 47, 44
17, 120119, Note_on_c, 14, 47, 0
17, 120240, Note_on_c, 14, 46, 44
17, 120359, Note_on_c, 14, 46, 0
17, 120480, Note_on_c, 14, 47, 44
17, 120599, Note_on_c, 14, 47, 0
17, 120720, Note_on_c, 14, 47, 44
17, 120839, Note_on_c, 14, 47, 0
17, 120960, Note_on_c, 14, 48, 44
17, 121079, Note_on_c, 14, 48, 0
17, 121200, Note_on_c, 14, 48, 44
17, 121319, Note_on_c, 14, 48, 0
17, 121440, Note_on_c, 14, 49, 44
17, 121559, Note_on_c, 14, 49, 0
17, 121680, Note_on_c, 14, 48, 44
17, 121799, Note_on_c, 14, 48, 0
17, 121920, Note_on_c, 14, 49, 44
17, 122039, Note_on_c, 14, 49, 0
17, 122160, Note_on_c, 14, 48, 44
17, 122279, Note_on_c, 14, 48, 0
17, 122400, Note_on_c, 14, 49, 44
17, 122519, Note_on_c, 14, 49, 0
17, 122640, Note_on_c, 14, 48, 44
17, 122759, Note_on_c, 14, 48, 0
17, 122880, Note_on_c, 14, 49, 44
17, 122999, Note_on_c, 14, 49, 0
17, 123120, Note_on_c, 14, 48, 44
17, 123239, Note_on_c, 14, 48, 0
17, 123360, Note_on_c, 14, 49, 44
17, 123479, Note_on_c, 14, 49, 0
17, 123600, Note_on_c, 14, 49, 44
17, 123719, Note_on_c, 14, 49, 0
17, 123840, Note_on_c, 14, 48, 44
17, 123959, Note_on_c, 14, 48, 0
17, 124080, Note_on_c, 14, 48, 44
17, 124199, Note_on_c, 14, 48, 0
17, 124320, Note_on_c, 14, 49, 44
17, 124439, Note_on_c, 14, 49, 0
17, 124560, Note_on_c, 14, 49, 44
17, 124679, Note_on_c, 14, 49, 0
17, 124800, Note_on_c, 14, 49, 44
17, 124919, Note_on_c, 14, 49, 0
17, 125040, Note_on_c, 14, 50, 44
17, 125159, Note_on_c, 14, 50, 0
17, 125280, Note_on_c, 14, 50, 44
17, 125399, Note_on_c, 14, 50, 0
17, 125520, Note_on_c, 14, 50, 44
17, 125639, Note_on_c, 14, 50, 0
17, 125760, Note_on_c, 14, 51, 44
17, 125879, Note_on_c, 14, 51, 0
17, 126000, Note_on_c, 14, 51, 44
17, 126119, Note_on_c, 14, 51, 0
17, 126240, Note_on_c, 14, 51, 44
17, 126359, Note_on_c, 14, 51, 0
17, 126480, Note_on_c, 14, 52, 44
17, 126599, Note_on_c, 14, 52, 0
17, 126720, Note_on_c, 14, 52, 44
17, 126839, Note_on_c, 14, 52, 0
17, 126960, Note_on_c, 14, 53, 44
17, 127199, Note_on_c, 14, 53, 0
17, 127680, Note_on_c, 14, 53, 44
17, 127919, Note_on_c, 14, 53, 0
17, 128400, Note_on_c, 14, 53, 44
17, 128639, Note_on_c, 14, 53, 0
17, 129120, Note_on_c, 14, 53, 44
17, 129359, Note_on_c, 14, 53, 0
17, 129840, Note_on_c, 14, 48, 44
17, 130079, Note_on_c, 14, 48, 0
17, 130560, Note_on_c, 14, 53, 44
17, 130799, Note_on_c, 14, 53, 0
17, 131280, Note_on_c, 14, 48, 44
17, 131519, Note_on_c, 14, 48, 0
17, 132000, Note_on_c, 14, 53, 44
17, 132239, Note_on_c, 14, 53, 0
17, 134160, Note_on_c, 14, 48, 52
17, 134849, Note_on_c, 14, 48, 0
17, 134880, Note_on_c, 14, 53, 44
17, 134999, Note_on_c, 14, 53, 0
17, 135120, Note_on_c, 14, 57, 44
17, 135239, Note_on_c, 14, 57, 0
17, 135360, Note_on_c, 14, 60, 44
17, 135479, Note_on_c, 14, 60, 0
17, 137040, Note_on_c, 14, 50, 52
17, 137729, Note_on_c, 14, 50, 0
17, 137760, Note_on_c, 14, 55, 44
17, 137999, Note_on_c, 14, 55, 0
17, 138000, Note_on_c, 14, 58, 44
17, 138209, Note_on_c, 14, 58, 0
17, 138240, Note_on_c, 14, 55, 44
17, 138359, Note_on_c, 14, 55, 0
17, 138480, Note_on_c, 14, 54, 44
17, 138599, Note_on_c, 14, 54, 0
17, 138720, Note_on_c, 14, 50, 44
17, 138839, Note_on_c, 14, 50, 0
17, 138960, Note_on_c, 14, 60, 44
17, 139079, Note_on_c, 14, 60, 0
17, 139200, Note_on_c, 14, 58, 44
17, 139319, Note_on_c, 14, 58, 0
17, 139440, Note_on_c, 14, 55, 44
17, 139559, Note_on_c, 14, 55, 0
17, 139680, Note_on_c, 14, 51, 44
17, 139799, Note_on_c, 14, 51, 0
17, 139920, Note_on_c, 14, 50, 44
17, 140039, Note_on_c, 14, 50, 0
17, 140160, Note_on_c, 14, 57, 44
17, 140279, Note_on_c, 14, 57, 0
17, 140400, Note_on_c, 14, 54, 44
17, 140519, Note_on_c, 14, 54, 0
17, 140640, Note_on_c, 14, 55, 44
17, 140759, Note_on_c, 14, 55, 0
17, 140880, Note_on_c, 14, 58, 44
17, 140999, Note_on_c, 14, 58, 0
17, 141120, Note_on_c, 14, 63, 44
17, 141239, Note_on_c, 14, 63, 0
17, 141360, Note_on_c, 14, 62, 44
17, 141479, Note_on_c, 14, 62, 0
17, 141600, Note_on_c, 14, 61, 44
17, 141719, Note_on_c, 14, 61, 0
17, 141840, Note_on_c, 14, 62, 44
17, 141959, Note_on_c, 14, 62, 0
17, 142080, Note_on_c, 14, 57, 44
17, 142199, Note_on_c, 14, 57, 0
17, 142320, Note_on_c, 14, 58, 44
17, 142439, Note_on_c, 14, 58, 0
17, 142560, Note_on_c, 14, 54, 44
17, 142679, Note_on_c, 14, 54, 0
17, 142800, Note_on_c, 14, 55, 44
17, 142919, Note_on_c, 14, 55, 0
17, 143040, Note_on_c, 14, 50, 44
17, 143159, Note_on_c, 14, 50, 0
17, 143280, Note_on_c, 14, 51, 44
17, 143399, Note_on_c, 14, 51, 0
17, 143520, Note_on_c, 14, 50, 44
17, 143639, Note_on_c, 14, 50, 0
17, 143760, Note_on_c, 14, 51, 44
17, 143879, Note_on_c, 14, 51, 0
17, 144000, Note_on_c, 14, 49, 44
17, 144119, Note_on_c, 14, 49, 0
17, 144240, Note_on_c, 14, 50, 44
17, 144359, Note_on_c, 14, 50, 0
17, 144480, Note_on_c, 14, 49, 44
17, 144599, Note_on_c, 14, 49, 0
17, 144720, Note_on_c, 14, 50, 44
17, 144839, Note_on_c, 14, 50, 0
17, 144960, Note_on_c, 14, 49, 44
17, 145079, Note_on_c, 14, 49, 0
17, 145200, Note_on_c, 14, 50, 44
17, 145319, Note_on_c, 14, 50, 0
17, 145440, Note_on_c, 14, 49, 44
17, 145559, Note_on_c, 14, 49, 0
17, 145680, Note_on_c, 14, 50, 44
17, 145799, Note_on_c, 14, 50, 0
17, 145920, Note_on_c, 14, 49, 44
17, 146039, Note_on_c, 14, 49, 0
17, 146160, Note_on_c, 14, 50, 44
17, 146279, Note_on_c, 14, 50, 0
17, 146400, Note_on_c, 14, 49, 44
17, 146519, Note_on_c, 14, 49, 0
17, 146640, Note_on_c, 14, 50, 44
17, 146759, Note_on_c, 14, 50, 0
17, 146880, Note_on_c, 14, 49, 44
17, 146999, Note_on_c, 14, 49, 0
17, 147120, Note_on_c, 14, 50, 44
17, 147359, Note_on_c, 14, 50, 0
17, 150000, Note_on_c, 14, 46, 44
17, 150119, Note_on_c, 14, 46, 0
17, 150240, Note_on_c, 14, 46, 44
17, 150359, Note_on_c, 14, 46, 0
17, 150480, Note_on_c, 14, 46, 44
17, 150599, Note_on_c, 14, 46, 0
17, 150720, Note_on_c, 14, 46, 44
17, 150839, Note_on_c, 14, 46, 0
17, 150960, Note_on_c, 14, 46, 44
17, 151079, Note_on_c, 14, 46, 0
17, 151200, Note_on_c, 14, 46, 44
17, 151319, Note_on_c, 14, 46, 0
17, 151440, Note_on_c, 14, 46, 44
17, 151559, Note_on_c, 14, 46, 0
17, 151680, Note_on_c, 14, 46, 44
17, 151799, Note_on_c, 14, 46, 0
17, 151920, Note_on_c, 14, 46, 44
17, 152039, Note_on_c, 14, 46, 0
17, 152160, Note_on_c, 14, 46, 44
17, 152279, Note_on_c, 14, 46, 0
17, 152400, Note_on_c, 14, 46, 44
17, 152519, Note_on_c, 14, 46, 0
17, 152640, Note_on_c, 14, 46, 44
17, 152759, Note_on_c, 14, 46, 0
17, 152880, Note_on_c, 14, 46, 44
17, 152999, Note_on_c, 14, 46, 0
17, 153120, Note_on_c, 14, 46, 44
17, 153239, Note_on_c, 14, 46, 0
17, 153360, Note_on_c, 14, 46, 44
17, 153479, Note_on_c, 14, 46, 0
17, 153600, Note_on_c, 14, 46, 44
17, 153719, Note_on_c, 14, 46, 0
17, 153840, Note_on_c, 14, 46, 44
17, 153959, Note_on_c, 14, 46, 0
17, 154080, Note_on_c, 14, 46, 44
17, 154199, Note_on_c, 14, 46, 0
17, 154320, Note_on_c, 14, 46, 44
17, 154439, Note_on_c, 14, 46, 0
17, 154560, Note_on_c, 14, 46, 44
17, 154679, Note_on_c, 14, 46, 0
17, 154800, Note_on_c, 14, 46, 44
17, 154919, Note_on_c, 14, 46, 0
17, 155040, Note_on_c, 14, 46, 44
17, 155159, Note_on_c, 14, 46, 0
17, 155280, Note_on_c, 14, 46, 44
17, 155399, Note_on_c, 14, 46, 0
17, 155520, Note_on_c, 14, 46, 44
17, 155639, Note_on_c, 14, 46, 0
17, 155760, Note_on_c, 14, 46, 44
17, 155879, Note_on_c, 14, 46, 0
17, 156000, Note_on_c, 14, 46, 44
17, 156119, Note_on_c, 14, 46, 0
17, 156240, Note_on_c, 14, 46, 44
17, 156359, Note_on_c, 14, 46, 0
17, 156480, Note_on_c, 14, 46, 44
17, 156599, Note_on_c, 14, 46, 0
17, 156720, Note_on_c, 14, 46, 44
17, 156839, Note_on_c, 14, 46, 0
17, 156960, Note_on_c, 14, 46, 44
17, 157079, Note_on_c, 14, 46, 0
17, 157200, Note_on_c, 14, 46, 44
17, 157409, Note_on_c, 14, 46, 0
17, 157440, Note_on_c, 14, 46, 44
17, 157649, Note_on_c, 14, 46, 0
17, 157680, Note_on_c, 14, 46, 44
17, 157889, Note_on_c, 14, 46, 0
17, 157920, Note_on_c, 14, 46, 44
17, 158129, Note_on_c, 14, 46, 0
17, 158160, Note_on_c, 14, 46, 44
17, 158369, Note_on_c, 14, 46, 0
17, 158400, Note_on_c, 14, 46, 44
17, 158609, Note_on_c, 14, 46, 0
17, 158640, Note_on_c, 14, 46, 44
17, 158849, Note_on_c, 14, 46, 0
17, 158880, Note_on_c, 14, 62, 44
17, 159089, Note_on_c, 14, 62, 0
17, 159120, Note_on_c, 14, 60, 44
17, 159329, Note_on_c, 14, 60, 0
17, 159360, Note_on_c, 14, 58, 44
17, 159569, Note_on_c, 14, 58, 0
17, 159600, Note_on_c, 14, 62, 44
17, 159809, Note_on_c, 14, 62, 0
17, 159840, Note_on_c, 14, 60, 44
17, 160049, Note_on_c, 14, 60, 0
17, 160080, Note_on_c, 14, 58, 44
17, 160289, Note_on_c, 14, 58, 0
17, 160320, Note_on_c, 14, 58, 44
17, 160529, Note_on_c, 14, 58, 0
17, 160560, Note_on_c, 14, 60, 44
17, 160769, Note_on_c, 14, 60, 0
17, 160800, Note_on_c, 14, 62, 44
17, 161009, Note_on_c, 14, 62, 0
17, 161040, Note_on_c, 14, 57, 44
17, 161249, Note_on_c, 14, 57, 0
17, 161280, Note_on_c, 14, 59, 44
17, 161489, Note_on_c, 14, 59, 0
17, 161520, Note_on_c, 14, 60, 44
17, 161729, Note_on_c, 14, 60, 0
17, 161760, Note_on_c, 14, 55, 44
17, 161969, Note_on_c, 14, 55, 0
17, 162000, Note_on_c, 14, 57, 44
17, 162209, Note_on_c, 14, 57, 0
17, 162240, Note_on_c, 14, 58, 44
17, 162449, Note_on_c, 14, 58, 0
17, 162480, Note_on_c, 14, 53, 44
17, 162689, Note_on_c, 14, 53, 0
17, 162720, Note_on_c, 14, 55, 44
17, 162929, Note_on_c, 14, 55, 0
17, 162960, Note_on_c, 14, 51, 44
17, 163169, Note_on_c, 14, 51, 0
17, 163200, Note_on_c, 14, 48, 44
17, 163409, Note_on_c, 14, 48, 0
17, 163440, Note_on_c, 14, 53, 44
17, 163649, Note_on_c, 14, 53, 0
17, 163680, Note_on_c, 14, 46, 44
17, 163799, Note_on_c, 14, 46, 0
17, 163920, Note_on_c, 14, 48, 57
17, 164039, Note_on_c, 14, 48, 0
17, 164160, Note_on_c, 14, 50, 70
17, 164279, Note_on_c, 14, 50, 0
17, 164400, Note_on_c, 14, 51, 84
17, 164609, Note_on_c, 14, 51, 0
17, 164640, Note_on_c, 14, 55, 84
17, 164849, Note_on_c, 14, 55, 0
17, 164880, Note_on_c, 14, 58, 84
17, 165089, Note_on_c, 14, 58, 0
17, 165120, Note_on_c, 14, 51, 84
17, 165329, Note_on_c, 14, 51, 0
17, 165360, Note_on_c, 14, 55, 84
17, 165569, Note_on_c, 14, 55, 0
17, 165600, Note_on_c, 14, 58, 84
17, 165809, Note_on_c, 14, 58, 0
17, 165840, Note_on_c, 14, 63, 84
17, 166049, Note_on_c, 14, 63, 0
17, 166080, Note_on_c, 14, 63, 84
17, 166289, Note_on_c, 14, 63, 0
17, 166320, Note_on_c, 14, 63, 84
17, 166529, Note_on_c, 14, 63, 0
17, 166560, Note_on_c, 14, 63, 84
17, 166769, Note_on_c, 14, 63, 0
17, 166800, Note_on_c, 14, 63, 84
17, 167009, Note_on_c, 14, 63, 0
17, 167040, Note_on_c, 14, 63, 84
17, 167249, Note_on_c, 14, 63, 0
17, 167280, Note_on_c, 14, 63, 84
17, 167519, Note_on_c, 14, 63, 0
17, 167520, Note_on_c, 14, 65, 84
17, 167639, Note_on_c, 14, 65, 0
17, 167640, Note_on_c, 14, 63, 84
17, 167759, Note_on_c, 14, 63, 0
17, 167760, Note_on_c, 14, 62, 84
17, 167879, Note_on_c, 14, 62, 0
17, 167880, Note_on_c, 14, 60, 84
17, 167969, Note_on_c, 14, 60, 0
17, 168000, Note_on_c, 14, 58, 84
17, 168689, Note_on_c, 14, 58, 0
17, 168720, Note_on_c, 14, 56, 92
17, 169409, Note_on_c, 14, 56, 0
17, 169440, Note_on_c, 14, 55, 84
17, 169679, Note_on_c, 14, 55, 0
17, 169680, Note_on_c, 14, 58, 84
17, 169889, Note_on_c, 14, 58, 0
17, 169920, Note_on_c, 14, 55, 84
17, 170039, Note_on_c, 14, 55, 0
17, 170160, Note_on_c, 14, 53, 84
17, 170399, Note_on_c, 14, 53, 0
17, 170400, Note_on_c, 14, 58, 84
17, 170609, Note_on_c, 14, 58, 0
17, 170640, Note_on_c, 14, 53, 84
17, 170759, Note_on_c, 14, 53, 0
17, 170880, Note_on_c, 14, 51, 84
17, 170999, Note_on_c, 14, 51, 0
17, 171120, Note_on_c, 14, 55, 84
17, 171239, Note_on_c, 14, 55, 0
17, 171360, Note_on_c, 14, 58, 84
17, 171479, Note_on_c, 14, 58, 0
17, 171600, Note_on_c, 14, 56, 92
17, 172289, Note_on_c, 14, 56, 0
17, 172320, Note_on_c, 14, 55, 84
17, 172559, Note_on_c, 14, 55, 0
17, 172560, Note_on_c, 14, 58, 84
17, 172769, Note_on_c, 14, 58, 0
17, 172800, Note_on_c, 14, 55, 84
17, 172919, Note_on_c, 14, 55, 0
17, 173040, Note_on_c, 14, 53, 84
17, 173279, Note_on_c, 14, 53, 0
17, 173280, Note_on_c, 14, 56, 84
17, 173489, Note_on_c, 14, 56, 0
17, 173520, Note_on_c, 14, 53, 84
17, 173639, Note_on_c, 14, 53, 0
17, 173760, Note_on_c, 14, 51, 84
17, 173879, Note_on_c, 14, 51, 0
17, 174000, Note_on_c, 14, 56, 84
17, 174119, Note_on_c, 14, 56, 0
17, 174240, Note_on_c, 14, 51, 84
17, 174359, Note_on_c, 14, 51, 0
17, 174480, Note_on_c, 14, 49, 92
17, 175169, Note_on_c, 14, 49, 0
17, 175200, Note_on_c, 14, 48, 84
17, 175439, Note_on_c, 14, 48, 0
17, 175440, Note_on_c, 14, 51, 84
17, 175649, Note_on_c, 14, 51, 0
17, 175680, Note_on_c, 14, 48, 84
17, 175799, Note_on_c, 14, 48, 0
17, 175920, Note_on_c, 14, 51, 84
17, 176039, Note_on_c, 14, 51, 0
17, 176160, Note_on_c, 14, 46, 84
17, 176279, Note_on_c, 14, 46, 0
17, 176400, Note_on_c, 14, 51, 84
17, 176519, Note_on_c, 14, 51, 0
17, 176640, Note_on_c, 14, 44, 84
17, 176759, Note_on_c, 14, 44, 0
17, 176880, Note_on_c, 14, 56, 84
17, 176999, Note_on_c, 14, 56, 0
17, 177120, Note_on_c, 14, 44, 84
17, 177239, Note_on_c, 14, 44, 0
17, 177360, Note_on_c, 14, 55, 84
17, 177479, Note_on_c, 14, 55, 0
17, 177600, Note_on_c, 14, 43, 84
17, 177719, Note_on_c, 14, 43, 0
17, 177840, Note_on_c, 14, 55, 84
17, 177959, Note_on_c, 14, 55, 0
17, 178080, Note_on_c, 14, 44, 84
17, 178199, Note_on_c, 14, 44, 0
17, 178320, Note_on_c, 14, 53, 84
17, 178439, Note_on_c, 14, 53, 0
17, 178560, Note_on_c, 14, 44, 84
17, 178679, Note_on_c, 14, 44, 0
17, 178800, Note_on_c, 14, 46, 84
17, 178919, Note_on_c, 14, 46, 0
17, 179040, Note_on_c, 14, 55, 84
17, 179159, Note_on_c, 14, 55, 0
17, 179280, Note_on_c, 14, 46, 84
17, 179399, Note_on_c, 14, 46, 0
17, 179520, Note_on_c, 14, 58, 84
17, 179639, Note_on_c, 14, 58, 0
17, 179760, Note_on_c, 14, 46, 84
17, 179879, Note_on_c, 14, 46, 0
17, 180000, Note_on_c, 14, 58, 84
17, 180119, Note_on_c, 14, 58, 0
17, 180240, Note_on_c, 14, 51, 84
17, 180359, Note_on_c, 14, 51, 0
17, 180480, Note_on_c, 14, 67, 84
17, 180839, Note_on_c, 14, 67, 0
17, 180960, Note_on_c, 14, 63, 84
17, 181079, Note_on_c, 14, 63, 0
17, 181200, Note_on_c, 14, 58, 84
17, 181559, Note_on_c, 14, 58, 0
17, 181680, Note_on_c, 14, 55, 84
17, 181799, Note_on_c, 14, 55, 0
17, 181920, Note_on_c, 14, 51, 84
17, 182279, Note_on_c, 14, 51, 0
17, 182400, Note_on_c, 14, 46, 84
17, 182639, Note_on_c, 14, 46, 0
17, 182880, Note_on_c, 14, 44, 84
17, 182939, Note_on_c, 14, 44, 0
17, 182940, Note_on_c, 14, 46, 84
17, 182999, Note_on_c, 14, 46, 0
17, 183000, Note_on_c, 14, 43, 84
17, 183059, Note_on_c, 14, 43, 0
17, 183060, Note_on_c, 14, 44, 84
17, 183119, Note_on_c, 14, 44, 0
17, 183120, Note_on_c, 14, 43, 84
17, 183359, Note_on_c, 14, 43, 0
17, 184800, Note_on_c, 14, 46, 52
17, 185009, Note_on_c, 14, 46, 0
17, 185040, Note_on_c, 14, 46, 52
17, 185249, Note_on_c, 14, 46, 0
17, 185280, Note_on_c, 14, 46, 52
17, 185489, Note_on_c, 14, 46, 0
17, 185520, Note_on_c, 14, 46, 52
17, 185729, Note_on_c, 14, 46, 0
17, 185760, Note_on_c, 14, 46, 52
17, 185969, Note_on_c, 14, 46, 0
17, 186000, Note_on_c, 14, 51, 76
17, 186119, Note_on_c, 14, 51, 0
17, 186240, Note_on_c, 14, 67, 84
17, 186689, Note_on_c, 14, 67, 0
17, 186720, Note_on_c, 14, 63, 76
17, 186929, Note_on_c, 14, 63, 0
17, 186960, Note_on_c, 14, 58, 84
17, 187409, Note_on_c, 14, 58, 0
17, 187440, Note_on_c, 14, 55, 76
17, 187649, Note_on_c, 14, 55, 0
17, 187680, Note_on_c, 14, 51, 84
17, 188129, Note_on_c, 14, 51, 0
17, 188160, Note_on_c, 14, 46, 76
17, 188399, Note_on_c, 14, 46, 0
17, 188640, Note_on_c, 14, 44, 76
17, 188699, Note_on_c, 14, 44, 0
17, 188700, Note_on_c, 14, 46, 76
17, 188759, Note_on_c, 14, 46, 0
17, 188760, Note_on_c, 14, 43, 76
17, 188819, Note_on_c, 14, 43, 0
17, 188820, Note_on_c, 14, 44, 76
17, 188879, Note_on_c, 14, 44, 0
17, 188880, Note_on_c, 14, 43, 76
17, 189119, Note_on_c, 14, 43, 0
17, 190560, Note_on_c, 14, 64, 52
17, 190679, Note_on_c, 14, 64, 0
17, 190800, Note_on_c, 14, 65, 52
17, 190919, Note_on_c, 14, 65, 0
17, 191040, Note_on_c, 14, 64, 52
17, 191159, Note_on_c, 14, 64, 0
17, 191280, Note_on_c, 14, 65, 52
17, 191399, Note_on_c, 14, 65, 0
17, 191520, Note_on_c, 14, 64, 52
17, 191639, Note_on_c, 14, 64, 0
17, 191760, Note_on_c, 14, 65, 52
17, 191879, Note_on_c, 14, 65, 0
17, 193440, Note_on_c, 14, 62, 52
17, 193559, Note_on_c, 14, 62, 0
17, 193680, Note_on_c, 14, 63, 52
17, 193799, Note_on_c, 14, 63, 0
17, 193920, Note_on_c, 14, 62, 52
17, 194039, Note_on_c, 14, 62, 0
17, 194160, Note_on_c, 14, 63, 52
17, 194279, Note_on_c, 14, 63, 0
17, 194400, Note_on_c, 14, 62, 52
17, 194519, Note_on_c, 14, 62, 0
17, 194640, Note_on_c, 14, 63, 52
17, 194759, Note_on_c, 14, 63, 0
17, 196320, Note_on_c, 14, 62, 52
17, 196439, Note_on_c, 14, 62, 0
17, 196560, Note_on_c, 14, 63, 52
17, 196679, Note_on_c, 14, 63, 0
17, 196800, Note_on_c, 14, 62, 52
17, 196919, Note_on_c, 14, 62, 0
17, 197040, Note_on_c, 14, 63, 52
17, 197159, Note_on_c, 14, 63, 0
17, 197280, Note_on_c, 14, 62, 52
17, 197399, Note_on_c, 14, 62, 0
17, 197520, Note_on_c, 14, 63, 52
17, 197639, Note_on_c, 14, 63, 0
17, 199200, Note_on_c, 14, 56, 52
17, 199319, Note_on_c, 14, 56, 0
17, 199440, Note_on_c, 14, 51, 52
17, 199559, Note_on_c, 14, 51, 0
17, 199680, Note_on_c, 14, 56, 52
17, 199799, Note_on_c, 14, 56, 0
17, 199920, Note_on_c, 14, 51, 52
17, 200039, Note_on_c, 14, 51, 0
17, 200160, Note_on_c, 14, 56, 52
17, 200279, Note_on_c, 14, 56, 0
17, 200400, Note_on_c, 14, 51, 52
17, 200519, Note_on_c, 14, 51, 0
17, 206160, Note_on_c, 14, 51, 52
17, 206279, Note_on_c, 14, 51, 0
17, 206400, Note_on_c, 14, 55, 52
17, 206519, Note_on_c, 14, 55, 0
17, 206640, Note_on_c, 14, 50, 52
17, 206759, Note_on_c, 14, 50, 0
17, 206880, Note_on_c, 14, 51, 52
17, 206999, Note_on_c, 14, 51, 0
17, 207120, Note_on_c, 14, 47, 52
17, 207239, Note_on_c, 14, 47, 0
17, 207360, Note_on_c, 14, 48, 52
17, 207479, Note_on_c, 14, 48, 0
17, 207600, Note_on_c, 14, 44, 52
17, 207719, Note_on_c, 14, 44, 0
17, 207840, Note_on_c, 14, 56, 52
17, 207959, Note_on_c, 14, 56, 0
17, 208080, Note_on_c, 14, 52, 52
17, 208199, Note_on_c, 14, 52, 0
17, 208320, Note_on_c, 14, 53, 52
17, 208439, Note_on_c, 14, 53, 0
17, 208560, Note_on_c, 14, 49, 52
17, 208679, Note_on_c, 14, 49, 0
17, 208800, Note_on_c, 14, 50, 52
17, 208919, Note_on_c, 14, 50, 0
17, 209040, Note_on_c, 14, 46, 52
17, 209159, Note_on_c, 14, 46, 0
17, 209280, Note_on_c, 14, 58, 54
17, 209399, Note_on_c, 14, 58, 0
17, 209520, Note_on_c, 14, 54, 57
17, 209639, Note_on_c, 14, 54, 0
17, 209760, Note_on_c, 14, 55, 60
17, 209879, Note_on_c, 14, 55, 0
17, 210000, Note_on_c, 14, 50, 62
17, 210119, Note_on_c, 14, 50, 0
17, 210240, Note_on_c, 14, 51, 65
17, 210359, Note_on_c, 14, 51, 0
17, 210480, Note_on_c, 14, 48, 68
17, 210599, Note_on_c, 14, 48, 0
17, 210720, Note_on_c, 14, 43, 70
17, 210839, Note_on_c, 14, 43, 0
17, 210960, Note_on_c, 14, 44, 73
17, 211079, Note_on_c, 14, 44, 0
17, 211200, Note_on_c, 14, 41, 76
17, 211319, Note_on_c, 14, 41, 0
17, 211440, Note_on_c, 14, 49, 78
17, 211559, Note_on_c, 14, 49, 0
17, 211680, Note_on_c, 14, 50, 81
17, 211799, Note_on_c, 14, 50, 0
17, 211920, Note_on_c, 14, 46, 84
17, 212129, Note_on_c, 14, 46, 0
17, 212160, Note_on_c, 14, 53, 84
17, 212369, Note_on_c, 14, 53, 0
17, 212400, Note_on_c, 14, 50, 84
17, 212609, Note_on_c, 14, 50, 0
17, 212640, Note_on_c, 14, 46, 84
17, 212849, Note_on_c, 14, 46, 0
17, 212880, Note_on_c, 14, 62, 84
17, 213089, Note_on_c, 14, 62, 0
17, 213120, Note_on_c, 14, 58, 84
17, 213329, Note_on_c, 14, 58, 0
17, 213360, Note_on_c, 14, 46, 84
17, 213569, Note_on_c, 14, 46, 0
17, 213600, Note_on_c, 14, 65, 84
17, 213809, Note_on_c, 14, 65, 0
17, 213840, Note_on_c, 14, 62, 84
17, 214049, Note_on_c, 14, 62, 0
17, 214080, Note_on_c, 14, 58, 84
17, 214289, Note_on_c, 14, 58, 0
17, 214320, Note_on_c, 14, 60, 84
17, 214529, Note_on_c, 14, 60, 0
17, 214560, Note_on_c, 14, 62, 84
17, 214769, Note_on_c, 14, 62, 0
17, 214800, Note_on_c, 14, 63, 76
17, 215039, Note_on_c, 14, 63, 0
17, 215520, Note_on_c, 14, 46, 76
17, 215759, Note_on_c, 14, 46, 0
17, 216240, Note_on_c, 14, 51, 76
17, 216449, Note_on_c, 14, 51, 0
17, 216480, Note_on_c, 14, 58, 76
17, 216689, Note_on_c, 14, 58, 0
17, 216720, Note_on_c, 14, 55, 76
17, 216929, Note_on_c, 14, 55, 0
17, 216960, Note_on_c, 14, 51, 76
17, 217199, Note_on_c, 14, 51, 0
17, 222240, Note_on_c, 14, 51, 52
17, 222449, Note_on_c, 14, 51, 0
17, 222480, Note_on_c, 14, 51, 52
17, 222689, Note_on_c, 14, 51, 0
17, 222720, Note_on_c, 14, 46, 52
17, 222959, Note_on_c, 14, 46, 0
17, 228000, Note_on_c, 14, 46, 52
17, 228209, Note_on_c, 14, 46, 0
17, 228240, Note_on_c, 14, 46, 52
17, 228449, Note_on_c, 14, 46, 0
17, 228480, Note_on_c, 14, 51, 52
17, 228719, Note_on_c, 14, 51, 0
17, 233760, Note_on_c, 14, 51, 52
17, 233969, Note_on_c, 14, 51, 0
17, 234000, Note_on_c, 14, 51, 52
17, 234209, Note_on_c, 14, 51, 0
17, 234240, Note_on_c, 14, 46, 52
17, 234479, Note_on_c, 14, 46, 0
17, 238800, Note_on_c, 14, 46, 52
17, 239039, Note_on_c, 14, 46, 0
17, 239040, Note_on_c, 14, 46, 52
17, 239279, Note_on_c, 14, 46, 0
17, 239280, Note_on_c, 14, 51, 52
17, 239519, Note_on_c, 14, 51, 0
17, 240480, Note_on_c, 14, 56, 76
17, 240689, Note_on_c, 14, 56, 0
17, 241200, Note_on_c, 14, 55, 76
17, 241439, Note_on_c, 14, 55, 0
17, 241920, Note_on_c, 14, 61, 76
17, 242129, Note_on_c, 14, 61, 0
17, 242160, Note_on_c, 14, 60, 76
17, 242369, Note_on_c, 14, 60, 0
17, 242400, Note_on_c, 14, 56, 76
17, 242639, Note_on_c, 14, 56, 0
17, 243360, Note_on_c, 14, 53, 76
17, 243599, Note_on_c, 14, 53, 0
17, 244080, Note_on_c, 14, 52, 76
17, 244319, Note_on_c, 14, 52, 0
17, 244800, Note_on_c, 14, 58, 76
17, 244919, Note_on_c, 14, 58, 0
17, 245040, Note_on_c, 14, 56, 76
17, 245249, Note_on_c, 14, 56, 0
17, 245280, Note_on_c, 14, 53, 76
17, 245519, Note_on_c, 14, 53, 0
17, 254640, Note_on_c, 14, 55, 52
17, 254879, Note_on_c, 14, 55, 0
17, 254880, Note_on_c, 14, 53, 52
17, 255119, Note_on_c, 14, 53, 0
17, 255120, Note_on_c, 14, 56, 52
17, 255359, Note_on_c, 14, 56, 0
17, 255360, Note_on_c, 14, 53, 52
17, 255599, Note_on_c, 14, 53, 0
17, 255600, Note_on_c, 14, 51, 52
17, 255839, Note_on_c, 14, 51, 0
17, 255840, Note_on_c, 14, 50, 52
17, 256079, Note_on_c, 14, 50, 0
17, 256800, Note_on_c, 14, 56, 52
17, 257039, Note_on_c, 14, 56, 0
17, 257040, Note_on_c, 14, 53, 54
17, 257279, Note_on_c, 14, 53, 0
17, 257280, Note_on_c, 14, 50, 57
17, 257519, Note_on_c, 14, 50, 0
17, 258240, Note_on_c, 14, 56, 68
17, 258479, Note_on_c, 14, 56, 0
17, 258480, Note_on_c, 14, 53, 70
17, 258719, Note_on_c, 14, 53, 0
17, 258720, Note_on_c, 14, 50, 73
17, 258929, Note_on_c, 14, 50, 0
17, 258960, Note_on_c, 14, 58, 76
17, 259199, Note_on_c, 14, 58, 0
17, 259200, Note_on_c, 14, 55, 76
17, 259439, Note_on_c, 14, 55, 0
17, 259440, Note_on_c, 14, 51, 76
17, 259679, Note_on_c, 14, 51, 0
17, 264000, Note_on_c, 14, 51, 52
17, 264209, Note_on_c, 14, 51, 0
17, 264240, Note_on_c, 14, 51, 52
17, 264449, Note_on_c, 14, 51, 0
17, 264480, Note_on_c, 14, 46, 52
17, 264719, Note_on_c, 14, 46, 0
17, 270000, Note_on_c, 14, 44, 52
17, 270239, Note_on_c, 14, 44, 0
17, 270240, Note_on_c, 14, 45, 76
17, 270480, Control_c, 14, 11, 112
17, 270580, Control_c, 14, 11, 109
17, 270680, Control_c, 14, 11, 107
17, 270780, Control_c, 14, 11, 104
17, 270880, Control_c, 14, 11, 101
17, 270980, Control_c, 14, 11, 99
17, 271080, Control_c, 14, 11, 96
17, 271180, Control_c, 14, 11, 93
17, 271280, Control_c, 14, 11, 91
17, 271380, Control_c, 14, 11, 88
17, 271480, Control_c, 14, 11, 85
17, 271580, Control_c, 14, 11, 80
17, 271679, Note_on_c, 14, 45, 0
17, 271680, Note_on_c, 14, 46, 76
17, 272159, Note_on_c, 14, 46, 0
17, 272160, Note_on_c, 14, 47, 76
17, 272399, Note_on_c, 14, 47, 0
17, 272400, Note_on_c, 14, 48, 76
17, 272639, Note_on_c, 14, 48, 0
17, 275280, Control_c, 14, 11, 127
17, 275760, Note_on_c, 14, 44, 44
17, 275999, Note_on_c, 14, 44, 0
17, 276000, Note_on_c, 14, 45, 44
17, 277169, Note_on_c, 14, 45, 0
17, 277200, Note_on_c, 14, 45, 44
17, 277439, Note_on_c, 14, 45, 0
17, 277440, Note_on_c, 14, 46, 44
17, 278399, Note_on_c, 14, 46, 0
17, 283440, Note_on_c, 14, 46, 44
17, 283649, Note_on_c, 14, 46, 0
17, 283680, Note_on_c, 14, 46, 44
17, 283889, Note_on_c, 14, 46, 0
17, 283920, Note_on_c, 14, 51, 44
17, 284159, Note_on_c, 14, 51, 0
17, 285120, Note_on_c, 14, 56, 76
17, 285359, Note_on_c, 14, 56, 0
17, 285840, Note_on_c, 14, 55, 76
17, 286079, Note_on_c, 14, 55, 0
17, 286560, Note_on_c, 14, 61, 76
17, 286769, Note_on_c, 14, 61, 0
17, 286800, Note_on_c, 14, 60, 76
17, 287009, Note_on_c, 14, 60, 0
17, 287040, Note_on_c, 14, 56, 76
17, 287279, Note_on_c, 14, 56, 0
17, 288000, Note_on_c, 14, 53, 76
17, 288239, Note_on_c, 14, 53, 0
17, 288720, Note_on_c, 14, 52, 76
17, 288959, Note_on_c, 14, 52, 0
17, 289440, Note_on_c, 14, 58, 76
17, 289559, Note_on_c, 14, 58, 0
17, 289680, Note_on_c, 14, 56, 76
17, 289889, Note_on_c, 14, 56, 0
17, 289920, Note_on_c, 14, 53, 76
17, 290159, Note_on_c, 14, 53, 0
17, 299280, Note_on_c, 14, 55, 52
17, 299519, Note_on_c, 14, 55, 0
17, 299520, Note_on_c, 14, 53, 52
17, 299759, Note_on_c, 14, 53, 0
17, 299760, Note_on_c, 14, 56, 52
17, 299999, Note_on_c, 14, 56, 0
17, 300000, Note_on_c, 14, 53, 52
17, 300239, Note_on_c, 14, 53, 0
17, 300240, Note_on_c, 14, 51, 52
17, 300479, Note_on_c, 14, 51, 0
17, 300480, Note_on_c, 14, 50, 52
17, 300719, Note_on_c, 14, 50, 0
17, 301440, Note_on_c, 14, 56, 52
17, 301679, Note_on_c, 14, 56, 0
17, 301680, Note_on_c, 14, 53, 54
17, 301919, Note_on_c, 14, 53, 0
17, 301920, Note_on_c, 14, 50, 57
17, 302159, Note_on_c, 14, 50, 0
17, 302880, Note_on_c, 14, 56, 68
17, 303119, Note_on_c, 14, 56, 0
17, 303120, Note_on_c, 14, 53, 70
17, 303359, Note_on_c, 14, 53, 0
17, 303360, Note_on_c, 14, 50, 73
17, 303569, Note_on_c, 14, 50, 0
17, 303600, Note_on_c, 14, 58, 76
17, 303839, Note_on_c, 14, 58, 0
17, 303840, Note_on_c, 14, 55, 76
17, 304079, Note_on_c, 14, 55, 0
17, 304080, Note_on_c, 14, 51, 76
17, 304319, Note_on_c, 14, 51, 0
17, 308640, Note_on_c, 14, 51, 52
17, 308849, Note_on_c, 14, 51, 0
17, 308880, Note_on_c, 14, 51, 52
17, 309089, Note_on_c, 14, 51, 0
17, 309120, Note_on_c, 14, 46, 52
17, 309359, Note_on_c, 14, 46, 0
17, 314640, Note_on_c, 14, 44, 52
17, 314879, Note_on_c, 14, 44, 0
17, 314880, Note_on_c, 14, 45, 76
17, 315120, Control_c, 14, 11, 112
17, 315220, Control_c, 14, 11, 109
17, 315320, Control_c, 14, 11, 107
17, 315420, Control_c, 14, 11, 104
17, 315520, Control_c, 14, 11, 101
17, 315620, Control_c, 14, 11, 99
17, 315720, Control_c, 14, 11, 96
17, 315820, Control_c, 14, 11, 93
17, 315920, Control_c, 14, 11, 91
17, 316020, Control_c, 14, 11, 88
17, 316120, Control_c, 14, 11, 85
17, 316220, Control_c, 14, 11, 80
17, 316319, Note_on_c, 14, 45, 0
17, 316320, Note_on_c, 14, 46, 76
17, 316799, Note_on_c, 14, 46, 0
17, 316800, Note_on_c, 14, 47, 76
17, 317039, Note_on_c, 14, 47, 0
17, 317040, Note_on_c, 14, 48, 76
17, 317279, Note_on_c, 14, 48, 0
17, 319920, Control_c, 14, 11, 127
17, 320400, Note_on_c, 14, 44, 44
17, 320639, Note_on_c, 14, 44, 0
17, 320640, Note_on_c, 14, 45, 44
17, 321809, Note_on_c, 14, 45, 0
17, 321840, Note_on_c, 14, 45, 44
17, 322079, Note_on_c, 14, 45, 0
17, 322080, Note_on_c, 14, 46, 44
17, 323039, Note_on_c, 14, 46, 0
17, 325920, Note_on_c, 14, 47, 44
17, 326039, Note_on_c, 14, 47, 0
17, 326160, Note_on_c, 14, 48, 44
17, 326279, Note_on_c, 14, 48, 0
17, 326400, Note_on_c, 14, 47, 44
17, 326519, Note_on_c, 14, 47, 0
17, 326640, Note_on_c, 14, 48, 44
17, 326759, Note_on_c, 14, 48, 0
17, 326880, Note_on_c, 14, 47, 44
17, 326999, Note_on_c, 14, 47, 0
17, 327120, Note_on_c, 14, 48, 44
17, 327239, Note_on_c, 14, 48, 0
17, 327360, Note_on_c, 14, 47, 44
17, 327479, Note_on_c, 14, 47, 0
17, 327600, Note_on_c, 14, 48, 44
17, 327719, Note_on_c, 14, 48, 0
17, 327840, Note_on_c, 14, 47, 44
17, 327959, Note_on_c, 14, 47, 0
17, 328080, Note_on_c, 14, 48, 44
17, 328199, Note_on_c, 14, 48, 0
17, 328320, Note_on_c, 14, 50, 44
17, 328439, Note_on_c, 14, 50, 0
17, 328560, Note_on_c, 14, 51, 44
17, 328679, Note_on_c, 14, 51, 0
17, 328800, Note_on_c, 14, 51, 44
17, 328919, Note_on_c, 14, 51, 0
17, 329040, Note_on_c, 14, 51, 44
17, 329159, Note_on_c, 14, 51, 0
17, 329280, Note_on_c, 14, 51, 44
17, 329399, Note_on_c, 14, 51, 0
17, 329520, Note_on_c, 14, 51, 44
17, 329639, Note_on_c, 14, 51, 0
17, 329760, Note_on_c, 14, 51, 44
17, 329879, Note_on_c, 14, 51, 0
17, 330000, Note_on_c, 14, 51, 44
17, 330119, Note_on_c, 14, 51, 0
17, 330240, Note_on_c, 14, 51, 44
17, 330359, Note_on_c, 14, 51, 0
17, 330480, Note_on_c, 14, 51, 44
17, 330599, Note_on_c, 14, 51, 0
17, 330720, Note_on_c, 14, 51, 44
17, 330839, Note_on_c, 14, 51, 0
17, 330960, Note_on_c, 14, 51, 44
17, 331079, Note_on_c, 14, 51, 0
17, 331200, Note_on_c, 14, 51, 44
17, 331319, Note_on_c, 14, 51, 0
17, 331440, Note_on_c, 14, 51, 44
17, 331559, Note_on_c, 14, 51, 0
17, 331680, Note_on_c, 14, 51, 44
17, 331799, Note_on_c, 14, 51, 0
17, 331920, Note_on_c, 14, 50, 44
17, 332039, Note_on_c, 14, 50, 0
17, 332160, Note_on_c, 14, 51, 44
17, 332279, Note_on_c, 14, 51, 0
17, 332400, Note_on_c, 14, 50, 44
17, 332519, Note_on_c, 14, 50, 0
17, 332640, Note_on_c, 14, 48, 44
17, 332759, Note_on_c, 14, 48, 0
17, 332880, Note_on_c, 14, 46, 44
17, 332999, Note_on_c, 14, 46, 0
17, 333120, Note_on_c, 14, 62, 44
17, 333239, Note_on_c, 14, 62, 0
17, 333360, Note_on_c, 14, 60, 44
17, 333479, Note_on_c, 14, 60, 0
17, 333600, Note_on_c, 14, 58, 44
17, 333719, Note_on_c, 14, 58, 0
17, 333840, Note_on_c, 14, 62, 44
17, 333959, Note_on_c, 14, 62, 0
17, 334080, Note_on_c, 14, 60, 44
17, 334199, Note_on_c, 14, 60, 0
17, 334320, Note_on_c, 14, 58, 44
17, 334439, Note_on_c, 14, 58, 0
17, 334560, Note_on_c, 14, 58, 44
17, 334679, Note_on_c, 14, 58, 0
17, 334800, Note_on_c, 14, 60, 44
17, 334919, Note_on_c, 14, 60, 0
17, 335040, Note_on_c, 14, 62, 44
17, 335159, Note_on_c, 14, 62, 0
17, 335280, Note_on_c, 14, 57, 44
17, 335399, Note_on_c, 14, 57, 0
17, 335520, Note_on_c, 14, 59, 44
17, 335639, Note_on_c, 14, 59, 0
17, 335760, Note_on_c, 14, 60, 44
17, 335879, Note_on_c, 14, 60, 0
17, 336000, Note_on_c, 14, 55, 44
17, 336119, Note_on_c, 14, 55, 0
17, 336240, Note_on_c, 14, 57, 44
17, 336359, Note_on_c, 14, 57, 0
17, 336480, Note_on_c, 14, 58, 44
17, 336599, Note_on_c, 14, 58, 0
17, 336720, Note_on_c, 14, 53, 44
17, 336839, Note_on_c, 14, 53, 0
17, 336960, Note_on_c, 14, 55, 44
17, 337079, Note_on_c, 14, 55, 0
17, 337200, Note_on_c, 14, 51, 44
17, 337319, Note_on_c, 14, 51, 0
17, 337440, Note_on_c, 14, 48, 44
17, 337559, Note_on_c, 14, 48, 0
17, 337680, Note_on_c, 14, 53, 44
17, 337799, Note_on_c, 14, 53, 0
17, 337920, Note_on_c, 14, 46, 44
17, 338039, Note_on_c, 14, 46, 0
17, 338160, Note_on_c, 14, 46, 44
17, 338279, Note_on_c, 14, 46, 0
17, 338400, Note_on_c, 14, 46, 44
17, 338519, Note_on_c, 14, 46, 0
17, 338640, Note_on_c, 14, 46, 44
17, 338759, Note_on_c, 14, 46, 0
17, 338880, Note_on_c, 14, 46, 52
17, 338999, Note_on_c, 14, 46, 0
17, 339120, Note_on_c, 14, 46, 52
17, 339239, Note_on_c, 14, 46, 0
17, 339360, Note_on_c, 14, 46, 52
17, 339479, Note_on_c, 14, 46, 0
17, 339600, Note_on_c, 14, 46, 52
17, 339719, Note_on_c, 14, 46, 0
17, 339840, Note_on_c, 14, 46, 52
17, 339959, Note_on_c, 14, 46, 0
17, 340080, Note_on_c, 14, 46, 52
17, 340199, Note_on_c, 14, 46, 0
17, 340320, Note_on_c, 14, 46, 52
17, 340439, Note_on_c, 14, 46, 0
17, 340560, Note_on_c, 14, 46, 52
17, 340679, Note_on_c, 14, 46, 0
17, 340800, Note_on_c, 14, 46, 52
17, 340919, Note_on_c, 14, 46, 0
17, 341040, Note_on_c, 14, 46, 52
17, 341159, Note_on_c, 14, 46, 0
17, 341280, Note_on_c, 14, 56, 52
17, 341399, Note_on_c, 14, 56, 0
17, 341520, Note_on_c, 14, 55, 52
17, 341639, Note_on_c, 14, 55, 0
17, 341760, Note_on_c, 14, 50, 52
17, 341879, Note_on_c, 14, 50, 0
17, 342000, Note_on_c, 14, 50, 52
17, 342119, Note_on_c, 14, 50, 0
17, 342240, Note_on_c, 14, 51, 52
17, 342359, Note_on_c, 14, 51, 0
17, 342480, Note_on_c, 14, 50, 52
17, 342599, Note_on_c, 14, 50, 0
17, 342720, Note_on_c, 14, 48, 52
17, 342839, Note_on_c, 14, 48, 0
17, 342960, Note_on_c, 14, 46, 52
17, 343079, Note_on_c, 14, 46, 0
17, 343200, Note_on_c, 14, 62, 52
17, 343319, Note_on_c, 14, 62, 0
17, 343440, Note_on_c, 14, 60, 52
17, 343559, Note_on_c, 14, 60, 0
17, 343680, Note_on_c, 14, 58, 52
17, 343799, Note_on_c, 14, 58, 0
17, 343920, Note_on_c, 14, 62, 52
17, 344039, Note_on_c, 14, 62, 0
17, 344160, Note_on_c, 14, 60, 52
17, 344279, Note_on_c, 14, 60, 0
17, 344400, Note_on_c, 14, 58, 52
17, 344519, Note_on_c, 14, 58, 0
17, 344640, Note_on_c, 14, 58, 52
17, 344759, Note_on_c, 14, 58, 0
17, 344880, Note_on_c, 14, 60, 52
17, 344999, Note_on_c, 14, 60, 0
17, 345120, Note_on_c, 14, 62, 52
17, 345239, Note_on_c, 14, 62, 0
17, 345360, Note_on_c, 14, 57, 52
17, 345479, Note_on_c, 14, 57, 0
17, 345600, Note_on_c, 14, 59, 52
17, 345719, Note_on_c, 14, 59, 0
17, 345840, Note_on_c, 14, 60, 52
17, 345959, Note_on_c, 14, 60, 0
17, 346080, Note_on_c, 14, 55, 52
17, 346199, Note_on_c, 14, 55, 0
17, 346320, Note_on_c, 14, 57, 52
17, 346439, Note_on_c, 14, 57, 0
17, 346560, Note_on_c, 14, 58, 52
17, 346679, Note_on_c, 14, 58, 0
17, 346800, Note_on_c, 14, 53, 52
17, 346919, Note_on_c, 14, 53, 0
17, 347040, Note_on_c, 14, 55, 52
17, 347159, Note_on_c, 14, 55, 0
17, 347280, Note_on_c, 14, 51, 52
17, 347399, Note_on_c, 14, 51, 0
17, 347520, Note_on_c, 14, 48, 52
17, 347639, Note_on_c, 14, 48, 0
17, 347760, Note_on_c, 14, 53, 52
17, 347879, Note_on_c, 14, 53, 0
17, 348000, Note_on_c, 14, 46, 52
17, 348119, Note_on_c, 14, 46, 0
17, 348240, Note_on_c, 14, 46, 52
17, 348359, Note_on_c, 14, 46, 0
17, 348480, Note_on_c, 14, 46, 52
17, 348599, Note_on_c, 14, 46, 0
17, 348720, Note_on_c, 14, 46, 52
17, 348839, Note_on_c, 14, 46, 0
17, 348960, Note_on_c, 14, 47, 52
17, 349079, Note_on_c, 14, 47, 0
17, 349200, Note_on_c, 14, 46, 52
17, 349319, Note_on_c, 14, 46, 0
17, 349440, Note_on_c, 14, 47, 52
17, 349559, Note_on_c, 14, 47, 0
17, 349680, Note_on_c, 14, 46, 52
17, 349799, Note_on_c, 14, 46, 0
17, 349920, Note_on_c, 14, 47, 52
17, 350039, Note_on_c, 14, 47, 0
17, 350160, Note_on_c, 14, 46, 52
17, 350279, Note_on_c, 14, 46, 0
17, 350400, Note_on_c, 14, 47, 52
17, 350519, Note_on_c, 14, 47, 0
17, 350640, Note_on_c, 14, 46, 52
17, 350759, Note_on_c, 14, 46, 0
17, 350880, Note_on_c, 14, 47, 52
17, 350999, Note_on_c, 14, 47, 0
17, 351120, Note_on_c, 14, 47, 52
17, 351239, Note_on_c, 14, 47, 0
17, 351360, Note_on_c, 14, 48, 52
17, 351479, Note_on_c, 14, 48, 0
17, 351600, Note_on_c, 14, 48, 52
17, 351719, Note_on_c, 14, 48, 0
17, 351840, Note_on_c, 14, 49, 52
17, 351959, Note_on_c, 14, 49, 0
17, 352080, Note_on_c, 14, 48, 52
17, 352199, Note_on_c, 14, 48, 0
17, 352320, Note_on_c, 14, 49, 52
17, 352439, Note_on_c, 14, 49, 0
17, 352560, Note_on_c, 14, 48, 52
17, 352679, Note_on_c, 14, 48, 0
17, 352800, Note_on_c, 14, 49, 52
17, 352919, Note_on_c, 14, 49, 0
17, 353040, Note_on_c, 14, 48, 52
17, 353159, Note_on_c, 14, 48, 0
17, 353280, Note_on_c, 14, 49, 52
17, 353399, Note_on_c, 14, 49, 0
17, 353520, Note_on_c, 14, 48, 52
17, 353639, Note_on_c, 14, 48, 0
17, 353760, Note_on_c, 14, 49, 52
17, 353879, Note_on_c, 14, 49, 0
17, 354000, Note_on_c, 14, 49, 52
17, 354119, Note_on_c, 14, 49, 0
17, 354240, Note_on_c, 14, 48, 52
17, 354359, Note_on_c, 14, 48, 0
17, 354480, Note_on_c, 14, 48, 52
17, 354599, Note_on_c, 14, 48, 0
17, 354720, Note_on_c, 14, 49, 52
17, 354839, Note_on_c, 14, 49, 0
17, 354960, Note_on_c, 14, 49, 52
17, 355079, Note_on_c, 14, 49, 0
17, 355200, Note_on_c, 14, 49, 52
17, 355319, Note_on_c, 14, 49, 0
17, 355440, Note_on_c, 14, 50, 52
17, 355559, Note_on_c, 14, 50, 0
17, 355680, Note_on_c, 14, 50, 52
17, 355799, Note_on_c, 14, 50, 0
17, 355920, Note_on_c, 14, 50, 52
17, 356039, Note_on_c, 14, 50, 0
17, 356160, Note_on_c, 14, 51, 52
17, 356279, Note_on_c, 14, 51, 0
17, 356400, Note_on_c, 14, 51, 52
17, 356519, Note_on_c, 14, 51, 0
17, 356640, Note_on_c, 14, 51, 52
17, 356759, Note_on_c, 14, 51, 0
17, 356880, Note_on_c, 14, 52, 52
17, 356999, Note_on_c, 14, 52, 0
17, 357120, Note_on_c, 14, 52, 52
17, 357239, Note_on_c, 14, 52, 0
17, 357360, Note_on_c, 14, 53, 52
17, 357599, Note_on_c, 14, 53, 0
17, 358080, Note_on_c, 14, 53, 52
17, 358319, Note_on_c, 14, 53, 0
17, 358800, Note_on_c, 14, 53, 52
17, 359039, Note_on_c, 14, 53, 0
17, 359520, Note_on_c, 14, 53, 52
17, 359759, Note_on_c, 14, 53, 0
17, 360240, Note_on_c, 14, 48, 52
17, 360479, Note_on_c, 14, 48, 0
17, 360960, Note_on_c, 14, 53, 52
17, 361199, Note_on_c, 14, 53, 0
17, 361680, Note_on_c, 14, 48, 52
17, 361919, Note_on_c, 14, 48, 0
17, 362400, Note_on_c, 14, 53, 52
17, 362639, Note_on_c, 14, 53, 0
17, 364560, Note_on_c, 14, 48, 60
17, 365249, Note_on_c, 14, 48, 0
17, 365280, Note_on_c, 14, 53, 52
17, 365399, Note_on_c, 14, 53, 0
17, 365520, Note_on_c, 14, 57, 52
17, 365639, Note_on_c, 14, 57, 0
17, 365760, Note_on_c, 14, 60, 52
17, 365879, Note_on_c, 14, 60, 0
17, 367440, Note_on_c, 14, 50, 60
17, 368129, Note_on_c, 14, 50, 0
17, 368160, Note_on_c, 14, 55, 52
17, 368399, Note_on_c, 14, 55, 0
17, 368400, Note_on_c, 14, 58, 52
17, 368609, Note_on_c, 14, 58, 0
17, 368640, Note_on_c, 14, 55, 52
17, 368759, Note_on_c, 14, 55, 0
17, 368880, Note_on_c, 14, 54, 44
17, 368999, Note_on_c, 14, 54, 0
17, 369120, Note_on_c, 14, 50, 44
17, 369239, Note_on_c, 14, 50, 0
17, 369360, Note_on_c, 14, 60, 44
17, 369479, Note_on_c, 14, 60, 0
17, 369600, Note_on_c, 14, 58, 44
17, 369719, Note_on_c, 14, 58, 0
17, 369840, Note_on_c, 14, 55, 44
17, 369959, Note_on_c, 14, 55, 0
17, 370080, Note_on_c, 14, 51, 44
17, 370199, Note_on_c, 14, 51, 0
17, 370320, Note_on_c, 14, 50, 44
17, 370439, Note_on_c, 14, 50, 0
17, 370560, Note_on_c, 14, 57, 44
17, 370679, Note_on_c, 14, 57, 0
17, 370800, Note_on_c, 14, 54, 44
17, 370919, Note_on_c, 14, 54, 0
17, 371040, Note_on_c, 14, 55, 44
17, 371159, Note_on_c, 14, 55, 0
17, 371280, Note_on_c, 14, 58, 44
17, 371399, Note_on_c, 14, 58, 0
17, 371520, Note_on_c, 14, 63, 44
17, 371639, Note_on_c, 14, 63, 0
17, 371760, Note_on_c, 14, 62, 44
17, 371879, Note_on_c, 14, 62, 0
17, 372000, Note_on_c, 14, 61, 44
17, 372119, Note_on_c, 14, 61, 0
17, 372240, Note_on_c, 14, 62, 44
17, 372359, Note_on_c, 14, 62, 0
17, 372480, Note_on_c, 14, 57, 44
17, 372599, Note_on_c, 14, 57, 0
17, 372720, Note_on_c, 14, 58, 44
17, 372839, Note_on_c, 14, 58, 0
17, 372960, Note_on_c, 14, 54, 44
17, 373079, Note_on_c, 14, 54, 0
17, 373200, Note_on_c, 14, 55, 44
17, 373319, Note_on_c, 14, 55, 0
17, 373440, Note_on_c, 14, 50, 44
17, 373559, Note_on_c, 14, 50, 0
17, 373680, Note_on_c, 14, 51, 44
17, 373799, Note_on_c, 14, 51, 0
17, 373920, Note_on_c, 14, 50, 44
17, 374039, Note_on_c, 14, 50, 0
17, 374160, Note_on_c, 14, 51, 44
17, 374279, Note_on_c, 14, 51, 0
17, 374400, Note_on_c, 14, 49, 44
17, 374519, Note_on_c, 14, 49, 0
17, 374640, Note_on_c, 14, 50, 44
17, 374759, Note_on_c, 14, 50, 0
17, 374880, Note_on_c, 14, 49, 44
17, 374999, Note_on_c, 14, 49, 0
17, 375120, Note_on_c, 14, 50, 44
17, 375239, Note_on_c, 14, 50, 0
17, 375360, Note_on_c, 14, 49, 44
17, 375479, Note_on_c, 14, 49, 0
17, 375600, Note_on_c, 14, 50, 44
17, 375719, Note_on_c, 14, 50, 0
17, 375840, Note_on_c, 14, 49, 44
17, 375959, Note_on_c, 14, 49, 0
17, 376080, Note_on_c, 14, 50, 44
17, 376199, Note_on_c, 14, 50, 0
17, 376320, Note_on_c, 14, 49, 44
17, 376439, Note_on_c, 14, 49, 0
17, 376560, Note_on_c, 14, 50, 44
17, 376679, Note_on_c, 14, 50, 0
17, 376800, Note_on_c, 14, 49, 44
17, 376919, Note_on_c, 14, 49, 0
17, 377040, Note_on_c, 14, 50, 44
17, 377159, Note_on_c, 14, 50, 0
17, 377280, Note_on_c, 14, 49, 44
17, 377399, Note_on_c, 14, 49, 0
17, 377520, Note_on_c, 14, 50, 44
17, 377639, Note_on_c, 14, 50, 0
17, 380400, Note_on_c, 14, 46, 44
17, 380609, Note_on_c, 14, 46, 0
17, 380640, Note_on_c, 14, 46, 44
17, 380849, Note_on_c, 14, 46, 0
17, 380880, Note_on_c, 14, 46, 44
17, 381089, Note_on_c, 14, 46, 0
17, 381120, Note_on_c, 14, 46, 44
17, 381329, Note_on_c, 14, 46, 0
17, 381360, Note_on_c, 14, 46, 44
17, 381569, Note_on_c, 14, 46, 0
17, 381600, Note_on_c, 14, 46, 44
17, 381809, Note_on_c, 14, 46, 0
17, 381840, Note_on_c, 14, 46, 44
17, 382049, Note_on_c, 14, 46, 0
17, 382080, Note_on_c, 14, 46, 44
17, 382289, Note_on_c, 14, 46, 0
17, 382320, Note_on_c, 14, 46, 44
17, 382529, Note_on_c, 14, 46, 0
17, 382560, Note_on_c, 14, 46, 44
17, 382769, Note_on_c, 14, 46, 0
17, 382800, Note_on_c, 14, 46, 44
17, 383009, Note_on_c, 14, 46, 0
17, 383040, Note_on_c, 14, 46, 44
17, 383249, Note_on_c, 14, 46, 0
17, 383280, Note_on_c, 14, 46, 44
17, 383489, Note_on_c, 14, 46, 0
17, 383520, Note_on_c, 14, 46, 44
17, 383729, Note_on_c, 14, 46, 0
17, 383760, Note_on_c, 14, 46, 44
17, 383969, Note_on_c, 14, 46, 0
17, 384000, Note_on_c, 14, 46, 44
17, 384209, Note_on_c, 14, 46, 0
17, 384240, Note_on_c, 14, 46, 44
17, 384449, Note_on_c, 14, 46, 0
17, 384480, Note_on_c, 14, 46, 44
17, 384689, Note_on_c, 14, 46, 0
17, 384720, Note_on_c, 14, 46, 44
17, 384929, Note_on_c, 14, 46, 0
17, 384960, Note_on_c, 14, 46, 44
17, 385169, Note_on_c, 14, 46, 0
17, 385200, Note_on_c, 14, 46, 44
17, 385409, Note_on_c, 14, 46, 0
17, 385440, Note_on_c, 14, 46, 44
17, 385649, Note_on_c, 14, 46, 0
17, 385680, Note_on_c, 14, 46, 44
17, 385889, Note_on_c, 14, 46, 0
17, 385920, Note_on_c, 14, 46, 44
17, 386129, Note_on_c, 14, 46, 0
17, 386160, Note_on_c, 14, 46, 44
17, 386369, Note_on_c, 14, 46, 0
17, 386400, Note_on_c, 14, 46, 44
17, 386609, Note_on_c, 14, 46, 0
17, 386640, Note_on_c, 14, 46, 44
17, 386849, Note_on_c, 14, 46, 0
17, 386880, Note_on_c, 14, 46, 44
17, 387089, Note_on_c, 14, 46, 0
17, 387120, Note_on_c, 14, 46, 44
17, 387329, Note_on_c, 14, 46, 0
17, 387360, Note_on_c, 14, 46, 44
17, 387569, Note_on_c, 14, 46, 0
17, 387600, Note_on_c, 14, 46, 44
17, 387809, Note_on_c, 14, 46, 0
17, 387840, Note_on_c, 14, 46, 44
17, 388049, Note_on_c, 14, 46, 0
17, 388080, Note_on_c, 14, 46, 44
17, 388289, Note_on_c, 14, 46, 0
17, 388320, Note_on_c, 14, 46, 44
17, 388529, Note_on_c, 14, 46, 0
17, 388560, Note_on_c, 14, 46, 44
17, 388769, Note_on_c, 14, 46, 0
17, 388800, Note_on_c, 14, 46, 44
17, 389009, Note_on_c, 14, 46, 0
17, 389040, Note_on_c, 14, 46, 44
17, 389249, Note_on_c, 14, 46, 0
17, 389280, Note_on_c, 14, 62, 44
17, 389489, Note_on_c, 14, 62, 0
17, 389520, Note_on_c, 14, 60, 44
17, 389729, Note_on_c, 14, 60, 0
17, 389760, Note_on_c, 14, 58, 44
17, 389969, Note_on_c, 14, 58, 0
17, 390000, Note_on_c, 14, 62, 44
17, 390209, Note_on_c, 14, 62, 0
17, 390240, Note_on_c, 14, 60, 44
17, 390449, Note_on_c, 14, 60, 0
17, 390480, Note_on_c, 14, 58, 44
17, 390689, Note_on_c, 14, 58, 0
17, 390720, Note_on_c, 14, 58, 44
17, 390929, Note_on_c, 14, 58, 0
17, 390960, Note_on_c, 14, 60, 44
17, 391169, Note_on_c, 14, 60, 0
17, 391200, Note_on_c, 14, 62, 44
17, 391409, Note_on_c, 14, 62, 0
17, 391440, Note_on_c, 14, 57, 44
17, 391649, Note_on_c, 14, 57, 0
17, 391680, Note_on_c, 14, 59, 44
17, 391889, Note_on_c, 14, 59, 0
17, 391920, Note_on_c, 14, 60, 44
17, 392129, Note_on_c, 14, 60, 0
17, 392160, Note_on_c, 14, 55, 44
17, 392369, Note_on_c, 14, 55, 0
17, 392400, Note_on_c, 14, 57, 44
17, 392609, Note_on_c, 14, 57, 0
17, 392640, Note_on_c, 14, 58, 44
17, 392849, Note_on_c, 14, 58, 0
17, 392880, Note_on_c, 14, 53, 44
17, 393089, Note_on_c, 14, 53, 0
17, 393120, Note_on_c, 14, 55, 44
17, 393329, Note_on_c, 14, 55, 0
17, 393360, Note_on_c, 14, 51, 44
17, 393569, Note_on_c, 14, 51, 0
17, 393600, Note_on_c, 14, 48, 44
17, 393809, Note_on_c, 14, 48, 0
17, 393840, Note_on_c, 14, 53, 44
17, 394049, Note_on_c, 14, 53, 0
17, 394080, Note_on_c, 14, 46, 44
17, 394289, Note_on_c, 14, 46, 0
17, 394320, Note_on_c, 14, 48, 57
17, 394529, Note_on_c, 14, 48, 0
17, 394560, Note_on_c, 14, 50, 70
17, 394769, Note_on_c, 14, 50, 0
17, 394800, Note_on_c, 14, 51, 84
17, 395009, Note_on_c, 14, 51, 0
17, 395040, Note_on_c, 14, 55, 84
17, 395249, Note_on_c, 14, 55, 0
17, 395280, Note_on_c, 14, 58, 84
17, 395489, Note_on_c, 14, 58, 0
17, 395520, Note_on_c, 14, 51, 84
17, 395729, Note_on_c, 14, 51, 0
17, 395760, Note_on_c, 14, 55, 84
17, 395969, Note_on_c, 14, 55, 0
17, 396000, Note_on_c, 14, 58, 84
17, 396209, Note_on_c, 14, 58, 0
17, 396240, Note_on_c, 14, 63, 84
17, 396449, Note_on_c, 14, 63, 0
17, 396480, Note_on_c, 14, 63, 84
17, 396689, Note_on_c, 14, 63, 0
17, 396720, Note_on_c, 14, 63, 84
17, 396929, Note_on_c, 14, 63, 0
17, 396960, Note_on_c, 14, 63, 84
17, 397169, Note_on_c, 14, 63, 0
17, 397200, Note_on_c, 14, 63, 84
17, 397409, Note_on_c, 14, 63, 0
17, 397440, Note_on_c, 14, 63, 84
17, 397649, Note_on_c, 14, 63, 0
17, 397680, Note_on_c, 14, 63, 84
17, 397919, Note_on_c, 14, 63, 0
17, 397920, Note_on_c, 14, 65, 84
17, 398039, Note_on_c, 14, 65, 0
17, 398040, Note_on_c, 14, 63, 84
17, 398159, Note_on_c, 14, 63, 0
17, 398160, Note_on_c, 14, 62, 84
17, 398279, Note_on_c, 14, 62, 0
17, 398280, Note_on_c, 14, 60, 84
17, 398369, Note_on_c, 14, 60, 0
17, 398400, Note_on_c, 14, 58, 84
17, 399089, Note_on_c, 14, 58, 0
17, 399120, Note_on_c, 14, 56, 92
17, 399809, Note_on_c, 14, 56, 0
17, 399840, Note_on_c, 14, 55, 84
17, 400079, Note_on_c, 14, 55, 0
17, 400080, Note_on_c, 14, 58, 84
17, 400289, Note_on_c, 14, 58, 0
17, 400320, Note_on_c, 14, 55, 84
17, 400439, Note_on_c, 14, 55, 0
17, 400560, Note_on_c, 14, 53, 84
17, 400799, Note_on_c, 14, 53, 0
17, 400800, Note_on_c, 14, 58, 84
17, 401009, Note_on_c, 14, 58, 0
17, 401040, Note_on_c, 14, 53, 84
17, 401159, Note_on_c, 14, 53, 0
17, 401280, Note_on_c, 14, 51, 84
17, 401399, Note_on_c, 14, 51, 0
17, 401520, Note_on_c, 14, 55, 84
17, 401639, Note_on_c, 14, 55, 0
17, 401760, Note_on_c, 14, 58, 84
17, 401879, Note_on_c, 14, 58, 0
17, 402000, Note_on_c, 14, 56, 92
17, 402689, Note_on_c, 14, 56, 0
17, 402720, Note_on_c, 14, 55, 84
17, 402959, Note_on_c, 14, 55, 0
17, 402960, Note_on_c, 14, 58, 84
17, 403169, Note_on_c, 14, 58, 0
17, 403200, Note_on_c, 14, 55, 84
17, 403319, Note_on_c, 14, 55, 0
17, 403440, Note_on_c, 14, 53, 84
17, 403679, Note_on_c, 14, 53, 0
17, 403680, Note_on_c, 14, 56, 84
17, 403889, Note_on_c, 14, 56, 0
17, 403920, Note_on_c, 14, 53, 84
17, 404039, Note_on_c, 14, 53, 0
17, 404160, Note_on_c, 14, 51, 84
17, 404279, Note_on_c, 14, 51, 0
17, 404400, Note_on_c, 14, 56, 84
17, 404519, Note_on_c, 14, 56, 0
17, 404640, Note_on_c, 14, 51, 84
17, 404759, Note_on_c, 14, 51, 0
17, 404880, Note_on_c, 14, 49, 92
17, 405569, Note_on_c, 14, 49, 0
17, 405600, Note_on_c, 14, 48, 84
17, 405839, Note_on_c, 14, 48, 0
17, 405840, Note_on_c, 14, 51, 84
17, 406049, Note_on_c, 14, 51, 0
17, 406080, Note_on_c, 14, 48, 84
17, 406199, Note_on_c, 14, 48, 0
17, 406320, Note_on_c, 14, 51, 84
17, 406439, Note_on_c, 14, 51, 0
17, 406560, Note_on_c, 14, 46, 84
17, 406679, Note_on_c, 14, 46, 0
17, 406800, Note_on_c, 14, 51, 84
17, 406919, Note_on_c, 14, 51, 0
17, 407040, Note_on_c, 14, 44, 84
17, 407159, Note_on_c, 14, 44, 0
17, 407280, Note_on_c, 14, 56, 84
17, 407399, Note_on_c, 14, 56, 0
17, 407520, Note_on_c, 14, 44, 84
17, 407639, Note_on_c, 14, 44, 0
17, 407760, Note_on_c, 14, 55, 84
17, 407969, Note_on_c, 14, 55, 0
17, 408000, Note_on_c, 14, 43, 84
17, 408209, Note_on_c, 14, 43, 0
17, 408240, Note_on_c, 14, 55, 84
17, 408449, Note_on_c, 14, 55, 0
17, 408480, Note_on_c, 14, 44, 84
17, 408689, Note_on_c, 14, 44, 0
17, 408720, Note_on_c, 14, 53, 84
17, 408929, Note_on_c, 14, 53, 0
17, 408960, Note_on_c, 14, 44, 84
17, 409169, Note_on_c, 14, 44, 0
17, 409200, Note_on_c, 14, 46, 84
17, 409409, Note_on_c, 14, 46, 0
17, 409440, Note_on_c, 14, 55, 84
17, 409649, Note_on_c, 14, 55, 0
17, 409680, Note_on_c, 14, 46, 84
17, 409889, Note_on_c, 14, 46, 0
17, 409920, Note_on_c, 14, 58, 84
17, 410129, Note_on_c, 14, 58, 0
17, 410160, Note_on_c, 14, 46, 84
17, 410369, Note_on_c, 14, 46, 0
17, 410400, Note_on_c, 14, 58, 84
17, 410609, Note_on_c, 14, 58, 0
17, 410640, Note_on_c, 14, 51, 84
17, 410759, Note_on_c, 14, 51, 0
17, 410880, Note_on_c, 14, 67, 92
17, 411329, Note_on_c, 14, 67, 0
17, 411360, Note_on_c, 14, 63, 84
17, 411479, Note_on_c, 14, 63, 0
17, 411600, Note_on_c, 14, 58, 92
17, 412049, Note_on_c, 14, 58, 0
17, 412080, Note_on_c, 14, 55, 84
17, 412199, Note_on_c, 14, 55, 0
17, 412320, Note_on_c, 14, 51, 92
17, 412769, Note_on_c, 14, 51, 0
17, 412800, Note_on_c, 14, 46, 84
17, 413039, Note_on_c, 14, 46, 0
17, 413280, Note_on_c, 14, 44, 84
17, 413339, Note_on_c, 14, 44, 0
17, 413340, Note_on_c, 14, 46, 84
17, 413399, Note_on_c, 14, 46, 0
17, 413400, Note_on_c, 14, 43, 84
17, 413459, Note_on_c, 14, 43, 0
17, 413460, Note_on_c, 14, 44, 84
17, 413519, Note_on_c, 14, 44, 0
17, 413520, Note_on_c, 14, 43, 84
17, 413759, Note_on_c, 14, 43, 0
17, 415200, Note_on_c, 14, 46, 52
17, 415409, Note_on_c, 14, 46, 0
17, 415440, Note_on_c, 14, 46, 52
17, 415649, Note_on_c, 14, 46, 0
17, 415680, Note_on_c, 14, 46, 52
17, 415889, Note_on_c, 14, 46, 0
17, 415920, Note_on_c, 14, 46, 52
17, 416129, Note_on_c, 14, 46, 0
17, 416160, Note_on_c, 14, 46, 52
17, 416369, Note_on_c, 14, 46, 0
17, 416400, Note_on_c, 14, 51, 76
17, 416519, Note_on_c, 14, 51, 0
17, 416640, Note_on_c, 14, 67, 84
17, 416819, Note_on_c, 14, 67, 0
17, 416880, Note_on_c, 14, 63, 84
17, 417059, Note_on_c, 14, 63, 0
17, 417120, Note_on_c, 14, 58, 84
17, 417299, Note_on_c, 14, 58, 0
17, 417360, Note_on_c, 14, 55, 84
17, 417539, Note_on_c, 14, 55, 0
17, 417600, Note_on_c, 14, 51, 84
17, 417779, Note_on_c, 14, 51, 0
17, 417840, Note_on_c, 14, 46, 84
17, 418019, Note_on_c, 14, 46, 0
17, 418080, Note_on_c, 14, 44, 84
17, 418259, Note_on_c, 14, 44, 0
17, 418320, Note_on_c, 14, 43, 84
17, 418499, Note_on_c, 14, 43, 0
17, 420000, Note_on_c, 14, 64, 52
17, 420119, Note_on_c, 14, 64, 0
17, 420240, Note_on_c, 14, 65, 52
17, 420359, Note_on_c, 14, 65, 0
17, 420480, Note_on_c, 14, 64, 52
17, 420599, Note_on_c, 14, 64, 0
17, 420720, Note_on_c, 14, 65, 52
17, 420839, Note_on_c, 14, 65, 0
17, 420960, Note_on_c, 14, 64, 52
17, 421079, Note_on_c, 14, 64, 0
17, 421200, Note_on_c, 14, 65, 52
17, 421319, Note_on_c, 14, 65, 0
17, 422880, Note_on_c, 14, 62, 52
17, 422999, Note_on_c, 14, 62, 0
17, 423120, Note_on_c, 14, 63, 52
17, 423239, Note_on_c, 14, 63, 0
17, 423360, Note_on_c, 14, 62, 52
17, 423479, Note_on_c, 14, 62, 0
17, 423600, Note_on_c, 14, 63, 52
17, 423719, Note_on_c, 14, 63, 0
17, 423840, Note_on_c, 14, 62, 52
17, 423959, Note_on_c, 14, 62, 0
17, 424080, Note_on_c, 14, 63, 52
17, 424199, Note_on_c, 14, 63, 0
17, 425760, Note_on_c, 14, 62, 52
17, 425879, Note_on_c, 14, 62, 0
17, 426000, Note_on_c, 14, 63, 52
17, 426119, Note_on_c, 14, 63, 0
17, 426240, Note_on_c, 14, 62, 52
17, 426359, Note_on_c, 14, 62, 0
17, 426480, Note_on_c, 14, 63, 52
17, 426599, Note_on_c, 14, 63, 0
17, 426720, Note_on_c, 14, 62, 52
17, 426839, Note_on_c, 14, 62, 0
17, 426960, Note_on_c, 14, 63, 52
17, 427079, Note_on_c, 14, 63, 0
17, 428640, Note_on_c, 14, 56, 52
17, 428759, Note_on_c, 14, 56, 0
17, 428880, Note_on_c, 14, 51, 52
17, 428999, Note_on_c, 14, 51, 0
17, 429120, Note_on_c, 14, 56, 52
17, 429239, Note_on_c, 14, 56, 0
17, 429360, Note_on_c, 14, 51, 52
17, 429479, Note_on_c, 14, 51, 0
17, 429600, Note_on_c, 14, 56, 52
17, 429719, Note_on_c, 14, 56, 0
17, 429840, Note_on_c, 14, 51, 52
17, 429959, Note_on_c, 14, 51, 0
17, 435600, Note_on_c, 14, 51, 52
17, 435719, Note_on_c, 14, 51, 0
17, 435840, Note_on_c, 14, 55, 52
17, 435959, Note_on_c, 14, 55, 0
17, 436080, Note_on_c, 14, 50, 52
17, 436199, Note_on_c, 14, 50, 0
17, 436320, Note_on_c, 14, 51, 52
17, 436439, Note_on_c, 14, 51, 0
17, 436560, Note_on_c, 14, 47, 52
17, 436679, Note_on_c, 14, 47, 0
17, 436800, Note_on_c, 14, 48, 52
17, 436919, Note_on_c, 14, 48, 0
17, 437040, Note_on_c, 14, 44, 52
17, 437159, Note_on_c, 14, 44, 0
17, 437280, Note_on_c, 14, 56, 52
17, 437399, Note_on_c, 14, 56, 0
17, 437520, Note_on_c, 14, 52, 52
17, 437639, Note_on_c, 14, 52, 0
17, 437760, Note_on_c, 14, 53, 52
17, 437879, Note_on_c, 14, 53, 0
17, 438000, Note_on_c, 14, 49, 52
17, 438119, Note_on_c, 14, 49, 0
17, 438240, Note_on_c, 14, 50, 52
17, 438359, Note_on_c, 14, 50, 0
17, 438480, Note_on_c, 14, 46, 52
17, 438599, Note_on_c, 14, 46, 0
17, 438720, Note_on_c, 14, 58, 52
17, 438839, Note_on_c, 14, 58, 0
17, 438960, Note_on_c, 14, 54, 54
17, 439079, Note_on_c, 14, 54, 0
17, 439200, Note_on_c, 14, 55, 57
17, 439319, Note_on_c, 14, 55, 0
17, 439440, Note_on_c, 14, 50, 60
17, 439559, Note_on_c, 14, 50, 0
17, 439680, Note_on_c, 14, 51, 63
17, 439799, Note_on_c, 14, 51, 0
17, 439920, Note_on_c, 14, 48, 66
17, 440039, Note_on_c, 14, 48, 0
17, 440160, Note_on_c, 14, 43, 69
17, 440279, Note_on_c, 14, 43, 0
17, 440400, Note_on_c, 14, 44, 72
17, 440519, Note_on_c, 14, 44, 0
17, 440640, Note_on_c, 14, 41, 75
17, 440759, Note_on_c, 14, 41, 0
17, 440880, Note_on_c, 14, 49, 78
17, 440999, Note_on_c, 14, 49, 0
17, 441120, Note_on_c, 14, 50, 81
17, 441239, Note_on_c, 14, 50, 0
17, 441360, Note_on_c, 14, 46, 84
17, 441569, Note_on_c, 14, 46, 0
17, 441600, Note_on_c, 14, 53, 84
17, 441809, Note_on_c, 14, 53, 0
17, 441840, Note_on_c, 14, 50, 84
17, 442049, Note_on_c, 14, 50, 0
17, 442080, Note_on_c, 14, 46, 84
17, 442289, Note_on_c, 14, 46, 0
17, 442320, Note_on_c, 14, 62, 84
17, 442529, Note_on_c, 14, 62, 0
17, 442560, Note_on_c, 14, 58, 84
17, 442769, Note_on_c, 14, 58, 0
17, 442800, Note_on_c, 14, 46, 84
17, 443009, Note_on_c, 14, 46, 0
17, 443040, Note_on_c, 14, 65, 84
17, 443249, Note_on_c, 14, 65, 0
17, 443280, Note_on_c, 14, 62, 84
17, 443489, Note_on_c, 14, 62, 0
17, 443520, Note_on_c, 14, 58, 84
17, 443729, Note_on_c, 14, 58, 0
17, 443760, Note_on_c, 14, 60, 84
17, 443969, Note_on_c, 14, 60, 0
17, 444000, Note_on_c, 14, 62, 84
17, 444209, Note_on_c, 14, 62, 0
17, 444240, Note_on_c, 14, 63, 76
17, 444479, Note_on_c, 14, 63, 0
17, 444960, Note_on_c, 14, 46, 76
17, 445199, Note_on_c, 14, 46, 0
17, 454560, Note_on_c, 14, 46, 66
17, 454769, Note_on_c, 14, 46, 0
17, 454800, Note_on_c, 14, 51, 68
17, 455009, Note_on_c, 14, 51, 0
17, 455040, Note_on_c, 14, 46, 70
17, 455249, Note_on_c, 14, 46, 0
17, 455280, Note_on_c, 14, 51, 72
17, 455489, Note_on_c, 14, 51, 0
17, 455520, Note_on_c, 14, 46, 74
17, 455729, Note_on_c, 14, 46, 0
17, 455760, Note_on_c, 14, 51, 76
17, 455969, Note_on_c, 14, 51, 0
17, 456000, Note_on_c, 14, 46, 76
17, 456209, Note_on_c, 14, 46, 0
17, 456240, Note_on_c, 14, 51, 76
17, 456449, Note_on_c, 14, 51, 0
17, 456480, Note_on_c, 14, 46, 76
17, 456689, Note_on_c, 14, 46, 0
17, 456720, Note_on_c, 14, 51, 76
17, 456929, Note_on_c, 14, 51, 0
17, 456960, Note_on_c, 14, 46, 76
17, 457169, Note_on_c, 14, 46, 0
17, 457200, Note_on_c, 14, 51, 84
17, 457439, Note_on_c, 14, 51, 0
17, 457920, Note_on_c, 14, 46, 84
17, 458159, Note_on_c, 14, 46, 0
17, 458640, Note_on_c, 14, 51, 84
17, 458879, Note_on_c, 14, 51, 0
17, 458879, End_track
18, 0, Start_track
18, 0, Title_t, "Contrabass"
18, 0, MIDI_port, 0
18, 0, Program_c, 15, 48
18, 0, Control_c, 15, 7, 88
18, 0, Control_c, 15, 10, 100
18, 0, Control_c, 15, 11, 127
18, 9840, Note_on_c, 15, 34, 52
18, 9959, Note_on_c, 15, 34, 0
18, 10080, Note_on_c, 15, 34, 52
18, 10199, Note_on_c, 15, 34, 0
18, 10320, Note_on_c, 15, 34, 52
18, 10439, Note_on_c, 15, 34, 0
18, 10560, Note_on_c, 15, 34, 52
18, 10679, Note_on_c, 15, 34, 0
18, 10800, Note_on_c, 15, 34, 52
18, 10919, Note_on_c, 15, 34, 0
18, 11040, Note_on_c, 15, 34, 52
18, 11159, Note_on_c, 15, 34, 0
18, 11280, Note_on_c, 15, 34, 52
18, 11399, Note_on_c, 15, 34, 0
18, 11520, Note_on_c, 15, 34, 52
18, 11639, Note_on_c, 15, 34, 0
18, 11760, Note_on_c, 15, 34, 52
18, 11879, Note_on_c, 15, 34, 0
18, 12000, Note_on_c, 15, 34, 52
18, 12119, Note_on_c, 15, 34, 0
18, 12240, Note_on_c, 15, 34, 52
18, 12359, Note_on_c, 15, 34, 0
18, 12480, Note_on_c, 15, 34, 52
18, 12599, Note_on_c, 15, 34, 0
18, 12720, Note_on_c, 15, 34, 52
18, 12839, Note_on_c, 15, 34, 0
18, 12960, Note_on_c, 15, 44, 52
18, 13079, Note_on_c, 15, 44, 0
18, 13200, Note_on_c, 15, 43, 52
18, 13319, Note_on_c, 15, 43, 0
18, 13440, Note_on_c, 15, 38, 52
18, 13559, Note_on_c, 15, 38, 0
18, 13680, Note_on_c, 15, 38, 52
18, 13799, Note_on_c, 15, 38, 0
18, 13920, Note_on_c, 15, 39, 52
18, 14039, Note_on_c, 15, 39, 0
18, 14160, Note_on_c, 15, 38, 52
18, 14279, Note_on_c, 15, 38, 0
18, 14400, Note_on_c, 15, 36, 52
18, 14519, Note_on_c, 15, 36, 0
18, 14640, Note_on_c, 15, 34, 52
18, 14759, Note_on_c, 15, 34, 0
18, 14880, Note_on_c, 15, 50, 52
18, 14999, Note_on_c, 15, 50, 0
18, 15120, Note_on_c, 15, 48, 52
18, 15239, Note_on_c, 15, 48, 0
18, 15360, Note_on_c, 15, 46, 52
18, 15479, Note_on_c, 15, 46, 0
18, 15600, Note_on_c, 15, 50, 52
18, 15719, Note_on_c, 15, 50, 0
18, 15840, Note_on_c, 15, 48, 52
18, 15959, Note_on_c, 15, 48, 0
18, 16080, Note_on_c, 15, 46, 52
18, 16199, Note_on_c, 15, 46, 0
18, 16320, Note_on_c, 15, 46, 52
18, 16439, Note_on_c, 15, 46, 0
18, 16560, Note_on_c, 15, 48, 52
18, 16679, Note_on_c, 15, 48, 0
18, 16800, Note_on_c, 15, 50, 52
18, 16919, Note_on_c, 15, 50, 0
18, 17040, Note_on_c, 15, 45, 52
18, 17159, Note_on_c, 15, 45, 0
18, 17280, Note_on_c, 15, 47, 52
18, 17399, Note_on_c, 15, 47, 0
18, 17520, Note_on_c, 15, 48, 52
18, 17639, Note_on_c, 15, 48, 0
18, 17760, Note_on_c, 15, 43, 52
18, 17879, Note_on_c, 15, 43, 0
18, 18000, Note_on_c, 15, 45, 52
18, 18119, Note_on_c, 15, 45, 0
18, 18240, Note_on_c, 15, 46, 52
18, 18359, Note_on_c, 15, 46, 0
18, 18480, Note_on_c, 15, 41, 52
18, 18599, Note_on_c, 15, 41, 0
18, 18720, Note_on_c, 15, 43, 52
18, 18839, Note_on_c, 15, 43, 0
18, 18960, Note_on_c, 15, 39, 52
18, 19079, Note_on_c, 15, 39, 0
18, 19200, Note_on_c, 15, 36, 52
18, 19319, Note_on_c, 15, 36, 0
18, 19440, Note_on_c, 15, 41, 52
18, 19559, Note_on_c, 15, 41, 0
18, 19680, Note_on_c, 15, 34, 52
18, 19799, Note_on_c, 15, 34, 0
18, 19920, Note_on_c, 15, 34, 52
18, 20039, Note_on_c, 15, 34, 0
18, 20160, Note_on_c, 15, 34, 52
18, 20279, Note_on_c, 15, 34, 0
18, 20400, Note_on_c, 15, 34, 52
18, 20519, Note_on_c, 15, 34, 0
18, 20640, Note_on_c, 15, 35, 52
18, 20759, Note_on_c, 15, 35, 0
18, 20880, Note_on_c, 15, 34, 52
18, 20999, Note_on_c, 15, 34, 0
18, 21120, Note_on_c, 15, 35, 52
18, 21239, Note_on_c, 15, 35, 0
18, 21360, Note_on_c, 15, 34, 52
18, 21479, Note_on_c, 15, 34, 0
18, 21600, Note_on_c, 15, 35, 52
18, 21719, Note_on_c, 15, 35, 0
18, 21840, Note_on_c, 15, 34, 44
18, 21959, Note_on_c, 15, 34, 0
18, 22080, Note_on_c, 15, 35, 44
18, 22199, Note_on_c, 15, 35, 0
18, 22320, Note_on_c, 15, 34, 44
18, 22439, Note_on_c, 15, 34, 0
18, 22560, Note_on_c, 15, 35, 44
18, 22679, Note_on_c, 15, 35, 0
18, 22800, Note_on_c, 15, 35, 44
18, 22919, Note_on_c, 15, 35, 0
18, 23040, Note_on_c, 15, 36, 44
18, 23159, Note_on_c, 15, 36, 0
18, 23280, Note_on_c, 15, 36, 44
18, 23399, Note_on_c, 15, 36, 0
18, 23520, Note_on_c, 15, 37, 44
18, 23639, Note_on_c, 15, 37, 0
18, 23760, Note_on_c, 15, 36, 44
18, 23879, Note_on_c, 15, 36, 0
18, 24000, Note_on_c, 15, 37, 44
18, 24119, Note_on_c, 15, 37, 0
18, 24240, Note_on_c, 15, 36, 44
18, 24359, Note_on_c, 15, 36, 0
18, 24480, Note_on_c, 15, 37, 44
18, 24599, Note_on_c, 15, 37, 0
18, 24720, Note_on_c, 15, 36, 44
18, 24839, Note_on_c, 15, 36, 0
18, 24960, Note_on_c, 15, 37, 44
18, 25079, Note_on_c, 15, 37, 0
18, 25200, Note_on_c, 15, 36, 44
18, 25319, Note_on_c, 15, 36, 0
18, 25440, Note_on_c, 15, 37, 44
18, 25559, Note_on_c, 15, 37, 0
18, 25680, Note_on_c, 15, 37, 44
18, 25799, Note_on_c, 15, 37, 0
18, 25920, Note_on_c, 15, 36, 44
18, 26039, Note_on_c, 15, 36, 0
18, 26160, Note_on_c, 15, 36, 44
18, 26279, Note_on_c, 15, 36, 0
18, 26400, Note_on_c, 15, 37, 44
18, 26519, Note_on_c, 15, 37, 0
18, 26640, Note_on_c, 15, 37, 44
18, 26759, Note_on_c, 15, 37, 0
18, 26880, Note_on_c, 15, 37, 44
18, 26999, Note_on_c, 15, 37, 0
18, 27120, Note_on_c, 15, 38, 44
18, 27239, Note_on_c, 15, 38, 0
18, 27360, Note_on_c, 15, 38, 44
18, 27479, Note_on_c, 15, 38, 0
18, 27600, Note_on_c, 15, 38, 44
18, 27719, Note_on_c, 15, 38, 0
18, 27840, Note_on_c, 15, 39, 44
18, 27959, Note_on_c, 15, 39, 0
18, 28080, Note_on_c, 15, 39, 44
18, 28199, Note_on_c, 15, 39, 0
18, 28320, Note_on_c, 15, 39, 44
18, 28439, Note_on_c, 15, 39, 0
18, 28560, Note_on_c, 15, 40, 44
18, 28679, Note_on_c, 15, 40, 0
18, 28800, Note_on_c, 15, 40, 44
18, 28919, Note_on_c, 15, 40, 0
18, 29040, Note_on_c, 15, 41, 44
18, 29279, Note_on_c, 15, 41, 0
18, 29760, Note_on_c, 15, 41, 44
18, 29999, Note_on_c, 15, 41, 0
18, 30480, Note_on_c, 15, 41, 44
18, 30719, Note_on_c, 15, 41, 0
18, 31200, Note_on_c, 15, 41, 44
18, 31439, Note_on_c, 15, 41, 0
18, 31920, Note_on_c, 15, 36, 44
18, 32159, Note_on_c, 15, 36, 0
18, 32640, Note_on_c, 15, 41, 44
18, 32879, Note_on_c, 15, 41, 0
18, 33360, Note_on_c, 15, 36, 44
18, 33599, Note_on_c, 15, 36, 0
18, 34080, Note_on_c, 15, 41, 44
18, 34319, Note_on_c, 15, 41, 0
18, 36240, Note_on_c, 15, 36, 52
18, 36929, Note_on_c, 15, 36, 0
18, 36960, Note_on_c, 15, 41, 44
18, 37079, Note_on_c, 15, 41, 0
18, 37200, Note_on_c, 15, 45, 44
18, 37319, Note_on_c, 15, 45, 0
18, 37440, Note_on_c, 15, 48, 44
18, 37559, Note_on_c, 15, 48, 0
18, 39120, Note_on_c, 15, 38, 52
18, 39809, Note_on_c, 15, 38, 0
18, 39840, Note_on_c, 15, 43, 44
18, 40079, Note_on_c, 15, 43, 0
18, 40080, Note_on_c, 15, 46, 44
18, 40289, Note_on_c, 15, 46, 0
18, 40320, Note_on_c, 15, 43, 44
18, 40439, Note_on_c, 15, 43, 0
18, 40560, Note_on_c, 15, 42, 44
18, 40679, Note_on_c, 15, 42, 0
18, 40800, Note_on_c, 15, 38, 44
18, 40919, Note_on_c, 15, 38, 0
18, 41040, Note_on_c, 15, 48, 44
18, 41159, Note_on_c, 15, 48, 0
18, 41280, Note_on_c, 15, 46, 44
18, 41399, Note_on_c, 15, 46, 0
18, 41520, Note_on_c, 15, 43, 44
18, 41639, Note_on_c, 15, 43, 0
18, 41760, Note_on_c, 15, 39, 44
18, 41879, Note_on_c, 15, 39, 0
18, 42000, Note_on_c, 15, 38, 44
18, 42119, Note_on_c, 15, 38, 0
18, 42240, Note_on_c, 15, 45, 44
18, 42359, Note_on_c, 15, 45, 0
18, 42480, Note_on_c, 15, 42, 44
18, 42599, Note_on_c, 15, 42, 0
18, 42720, Note_on_c, 15, 43, 44
18, 42839, Note_on_c, 15, 43, 0
18, 42960, Note_on_c, 15, 46, 44
18, 43079, Note_on_c, 15, 46, 0
18, 43200, Note_on_c, 15, 51, 44
18, 43319, Note_on_c, 15, 51, 0
18, 43440, Note_on_c, 15, 50, 44
18, 43559, Note_on_c, 15, 50, 0
18, 43680, Note_on_c, 15, 49, 44
18, 43799, Note_on_c, 15, 49, 0
18, 43920, Note_on_c, 15, 50, 44
18, 44039, Note_on_c, 15, 50, 0
18, 44160, Note_on_c, 15, 45, 44
18, 44279, Note_on_c, 15, 45, 0
18, 44400, Note_on_c, 15, 46, 44
18, 44519, Note_on_c, 15, 46, 0
18, 44640, Note_on_c, 15, 42, 44
18, 44759, Note_on_c, 15, 42, 0
18, 44880, Note_on_c, 15, 43, 44
18, 44999, Note_on_c, 15, 43, 0
18, 45120, Note_on_c, 15, 38, 44
18, 45239, Note_on_c, 15, 38, 0
18, 45360, Note_on_c, 15, 39, 44
18, 45479, Note_on_c, 15, 39, 0
18, 45600, Note_on_c, 15, 38, 44
18, 45719, Note_on_c, 15, 38, 0
18, 45840, Note_on_c, 15, 39, 44
18, 45959, Note_on_c, 15, 39, 0
18, 46080, Note_on_c, 15, 37, 44
18, 46199, Note_on_c, 15, 37, 0
18, 46320, Note_on_c, 15, 38, 44
18, 46439, Note_on_c, 15, 38, 0
18, 46560, Note_on_c, 15, 37, 44
18, 46679, Note_on_c, 15, 37, 0
18, 46800, Note_on_c, 15, 38, 44
18, 46919, Note_on_c, 15, 38, 0
18, 47040, Note_on_c, 15, 37, 44
18, 47159, Note_on_c, 15, 37, 0
18, 47280, Note_on_c, 15, 38, 44
18, 47399, Note_on_c, 15, 38, 0
18, 47520, Note_on_c, 15, 37, 44
18, 47639, Note_on_c, 15, 37, 0
18, 47760, Note_on_c, 15, 38, 44
18, 47879, Note_on_c, 15, 38, 0
18, 48000, Note_on_c, 15, 37, 44
18, 48119, Note_on_c, 15, 37, 0
18, 48240, Note_on_c, 15, 38, 44
18, 48359, Note_on_c, 15, 38, 0
18, 48480, Note_on_c, 15, 37, 44
18, 48599, Note_on_c, 15, 37, 0
18, 48720, Note_on_c, 15, 38, 44
18, 48839, Note_on_c, 15, 38, 0
18, 48960, Note_on_c, 15, 37, 44
18, 49079, Note_on_c, 15, 37, 0
18, 49200, Note_on_c, 15, 38, 44
18, 49439, Note_on_c, 15, 38, 0
18, 52080, Note_on_c, 15, 34, 44
18, 52199, Note_on_c, 15, 34, 0
18, 52320, Note_on_c, 15, 34, 44
18, 52439, Note_on_c, 15, 34, 0
18, 52560, Note_on_c, 15, 34, 44
18, 52679, Note_on_c, 15, 34, 0
18, 52800, Note_on_c, 15, 34, 44
18, 52919, Note_on_c, 15, 34, 0
18, 53040, Note_on_c, 15, 34, 44
18, 53159, Note_on_c, 15, 34, 0
18, 53280, Note_on_c, 15, 34, 44
18, 53399, Note_on_c, 15, 34, 0
18, 53520, Note_on_c, 15, 34, 44
18, 53639, Note_on_c, 15, 34, 0
18, 53760, Note_on_c, 15, 34, 44
18, 53879, Note_on_c, 15, 34, 0
18, 54000, Note_on_c, 15, 34, 44
18, 54119, Note_on_c, 15, 34, 0
18, 54240, Note_on_c, 15, 34, 44
18, 54359, Note_on_c, 15, 34, 0
18, 54480, Note_on_c, 15, 34, 44
18, 54599, Note_on_c, 15, 34, 0
18, 54720, Note_on_c, 15, 34, 44
18, 54839, Note_on_c, 15, 34, 0
18, 54960, Note_on_c, 15, 34, 44
18, 55079, Note_on_c, 15, 34, 0
18, 55200, Note_on_c, 15, 34, 44
18, 55319, Note_on_c, 15, 34, 0
18, 55440, Note_on_c, 15, 34, 44
18, 55559, Note_on_c, 15, 34, 0
18, 55680, Note_on_c, 15, 34, 44
18, 55799, Note_on_c, 15, 34, 0
18, 55920, Note_on_c, 15, 34, 44
18, 56039, Note_on_c, 15, 34, 0
18, 56160, Note_on_c, 15, 34, 44
18, 56279, Note_on_c, 15, 34, 0
18, 56400, Note_on_c, 15, 34, 44
18, 56519, Note_on_c, 15, 34, 0
18, 56640, Note_on_c, 15, 34, 44
18, 56759, Note_on_c, 15, 34, 0
18, 56880, Note_on_c, 15, 34, 44
18, 56999, Note_on_c, 15, 34, 0
18, 57120, Note_on_c, 15, 34, 44
18, 57239, Note_on_c, 15, 34, 0
18, 57360, Note_on_c, 15, 34, 44
18, 57479, Note_on_c, 15, 34, 0
18, 57600, Note_on_c, 15, 34, 44
18, 57719, Note_on_c, 15, 34, 0
18, 57840, Note_on_c, 15, 34, 44
18, 57959, Note_on_c, 15, 34, 0
18, 58080, Note_on_c, 15, 34, 44
18, 58199, Note_on_c, 15, 34, 0
18, 58320, Note_on_c, 15, 34, 44
18, 58439, Note_on_c, 15, 34, 0
18, 58560, Note_on_c, 15, 34, 44
18, 58679, Note_on_c, 15, 34, 0
18, 58800, Note_on_c, 15, 34, 44
18, 58919, Note_on_c, 15, 34, 0
18, 59040, Note_on_c, 15, 34, 44
18, 59159, Note_on_c, 15, 34, 0
18, 59280, Note_on_c, 15, 34, 44
18, 59489, Note_on_c, 15, 34, 0
18, 59520, Note_on_c, 15, 34, 44
18, 59729, Note_on_c, 15, 34, 0
18, 59760, Note_on_c, 15, 34, 44
18, 59969, Note_on_c, 15, 34, 0
18, 60000, Note_on_c, 15, 34, 44
18, 60209, Note_on_c, 15, 34, 0
18, 60240, Note_on_c, 15, 34, 44
18, 60449, Note_on_c, 15, 34, 0
18, 60480, Note_on_c, 15, 34, 44
18, 60689, Note_on_c, 15, 34, 0
18, 60720, Note_on_c, 15, 34, 44
18, 60929, Note_on_c, 15, 34, 0
18, 60960, Note_on_c, 15, 50, 44
18, 61169, Note_on_c, 15, 50, 0
18, 61200, Note_on_c, 15, 48, 44
18, 61409, Note_on_c, 15, 48, 0
18, 61440, Note_on_c, 15, 46, 44
18, 61649, Note_on_c, 15, 46, 0
18, 61680, Note_on_c, 15, 50, 44
18, 61889, Note_on_c, 15, 50, 0
18, 61920, Note_on_c, 15, 48, 44
18, 62129, Note_on_c, 15, 48, 0
18, 62160, Note_on_c, 15, 46, 44
18, 62369, Note_on_c, 15, 46, 0
18, 62400, Note_on_c, 15, 46, 44
18, 62609, Note_on_c, 15, 46, 0
18, 62640, Note_on_c, 15, 48, 44
18, 62849, Note_on_c, 15, 48, 0
18, 62880, Note_on_c, 15, 50, 44
18, 63089, Note_on_c, 15, 50, 0
18, 63120, Note_on_c, 15, 45, 44
18, 63329, Note_on_c, 15, 45, 0
18, 63360, Note_on_c, 15, 47, 44
18, 63569, Note_on_c, 15, 47, 0
18, 63600, Note_on_c, 15, 48, 44
18, 63809, Note_on_c, 15, 48, 0
18, 63840, Note_on_c, 15, 43, 44
18, 64049, Note_on_c, 15, 43, 0
18, 64080, Note_on_c, 15, 45, 44
18, 64289, Note_on_c, 15, 45, 0
18, 64320, Note_on_c, 15, 46, 44
18, 64529, Note_on_c, 15, 46, 0
18, 64560, Note_on_c, 15, 41, 44
18, 64769, Note_on_c, 15, 41, 0
18, 64800, Note_on_c, 15, 43, 44
18, 65009, Note_on_c, 15, 43, 0
18, 65040, Note_on_c, 15, 39, 44
18, 65249, Note_on_c, 15, 39, 0
18, 65280, Note_on_c, 15, 36, 44
18, 65489, Note_on_c, 15, 36, 0
18, 65520, Note_on_c, 15, 41, 44
18, 65729, Note_on_c, 15, 41, 0
18, 65760, Note_on_c, 15, 34, 44
18, 65879, Note_on_c, 15, 34, 0
18, 66000, Note_on_c, 15, 36, 57
18, 66119, Note_on_c, 15, 36, 0
18, 66240, Note_on_c, 15, 38, 70
18, 66359, Note_on_c, 15, 38, 0
18, 66480, Note_on_c, 15, 39, 84
18, 66689, Note_on_c, 15, 39, 0
18, 66720, Note_on_c, 15, 43, 84
18, 66929, Note_on_c, 15, 43, 0
18, 66960, Note_on_c, 15, 46, 84
18, 67169, Note_on_c, 15, 46, 0
18, 67200, Note_on_c, 15, 39, 84
18, 67409, Note_on_c, 15, 39, 0
18, 67440, Note_on_c, 15, 43, 84
18, 67649, Note_on_c, 15, 43, 0
18, 67680, Note_on_c, 15, 46, 84
18, 67889, Note_on_c, 15, 46, 0
18, 67920, Note_on_c, 15, 51, 84
18, 68129, Note_on_c, 15, 51, 0
18, 68160, Note_on_c, 15, 51, 84
18, 68369, Note_on_c, 15, 51, 0
18, 68400, Note_on_c, 15, 51, 84
18, 68609, Note_on_c, 15, 51, 0
18, 68640, Note_on_c, 15, 51, 84
18, 68849, Note_on_c, 15, 51, 0
18, 68880, Note_on_c, 15, 51, 84
18, 69089, Note_on_c, 15, 51, 0
18, 69120, Note_on_c, 15, 51, 84
18, 69329, Note_on_c, 15, 51, 0
18, 69360, Note_on_c, 15, 51, 84
18, 69599, Note_on_c, 15, 51, 0
18, 69600, Note_on_c, 15, 53, 84
18, 69719, Note_on_c, 15, 53, 0
18, 69720, Note_on_c, 15, 51, 84
18, 69839, Note_on_c, 15, 51, 0
18, 69840, Note_on_c, 15, 50, 84
18, 69959, Note_on_c, 15, 50, 0
18, 69960, Note_on_c, 15, 48, 84
18, 70049, Note_on_c, 15, 48, 0
18, 70080, Note_on_c, 15, 46, 84
18, 70769, Note_on_c, 15, 46, 0
18, 70800, Note_on_c, 15, 44, 92
18, 71489, Note_on_c, 15, 44, 0
18, 71520, Note_on_c, 15, 43, 84
18, 71759, Note_on_c, 15, 43, 0
18, 71760, Note_on_c, 15, 46, 84
18, 71969, Note_on_c, 15, 46, 0
18, 72000, Note_on_c, 15, 43, 84
18, 72119, Note_on_c, 15, 43, 0
18, 72240, Note_on_c, 15, 41, 84
18, 72479, Note_on_c, 15, 41, 0
18, 72480, Note_on_c, 15, 46, 84
18, 72689, Note_on_c, 15, 46, 0
18, 72720, Note_on_c, 15, 41, 84
18, 72839, Note_on_c, 15, 41, 0
18, 72960, Note_on_c, 15, 39, 84
18, 73079, Note_on_c, 15, 39, 0
18, 73200, Note_on_c, 15, 43, 84
18, 73319, Note_on_c, 15, 43, 0
18, 73440, Note_on_c, 15, 46, 84
18, 73559, Note_on_c, 15, 46, 0
18, 73680, Note_on_c, 15, 44, 92
18, 74369, Note_on_c, 15, 44, 0
18, 74400, Note_on_c, 15, 43, 84
18, 74639, Note_on_c, 15, 43, 0
18, 74640, Note_on_c, 15, 46, 84
18, 74849, Note_on_c, 15, 46, 0
18, 74880, Note_on_c, 15, 43, 84
18, 74999, Note_on_c, 15, 43, 0
18, 75120, Note_on_c, 15, 41, 84
18, 75359, Note_on_c, 15, 41, 0
18, 75360, Note_on_c, 15, 44, 84
18, 75569, Note_on_c, 15, 44, 0
18, 75600, Note_on_c, 15, 41, 84
18, 75719, Note_on_c, 15, 41, 0
18, 75840, Note_on_c, 15, 39, 84
18, 75959, Note_on_c, 15, 39, 0
18, 76080, Note_on_c, 15, 44, 84
18, 76199, Note_on_c, 15, 44, 0
18, 76320, Note_on_c, 15, 39, 84
18, 76439, Note_on_c, 15, 39, 0
18, 76560, Note_on_c, 15, 37, 92
18, 77249, Note_on_c, 15, 37, 0
18, 77280, Note_on_c, 15, 36, 84
18, 77519, Note_on_c, 15, 36, 0
18, 77520, Note_on_c, 15, 39, 84
18, 77729, Note_on_c, 15, 39, 0
18, 77760, Note_on_c, 15, 36, 84
18, 77879, Note_on_c, 15, 36, 0
18, 78000, Note_on_c, 15, 39, 84
18, 78119, Note_on_c, 15, 39, 0
18, 78240, Note_on_c, 15, 34, 84
18, 78359, Note_on_c, 15, 34, 0
18, 78480, Note_on_c, 15, 39, 84
18, 78599, Note_on_c, 15, 39, 0
18, 78720, Note_on_c, 15, 32, 84
18, 78839, Note_on_c, 15, 32, 0
18, 78960, Note_on_c, 15, 44, 84
18, 79079, Note_on_c, 15, 44, 0
18, 79200, Note_on_c, 15, 32, 84
18, 79319, Note_on_c, 15, 32, 0
18, 79440, Note_on_c, 15, 43, 84
18, 79559, Note_on_c, 15, 43, 0
18, 79680, Note_on_c, 15, 31, 84
18, 79799, Note_on_c, 15, 31, 0
18, 79920, Note_on_c, 15, 43, 84
18, 80039, Note_on_c, 15, 43, 0
18, 80160, Note_on_c, 15, 32, 84
18, 80279, Note_on_c, 15, 32, 0
18, 80400, Note_on_c, 15, 41, 84
18, 80519, Note_on_c, 15, 41, 0
18, 80640, Note_on_c, 15, 32, 84
18, 80759, Note_on_c, 15, 32, 0
18, 80880, Note_on_c, 15, 34, 84
18, 80999, Note_on_c, 15, 34, 0
18, 81120, Note_on_c, 15, 43, 84
18, 81239, Note_on_c, 15, 43, 0
18, 81360, Note_on_c, 15, 34, 84
18, 81479, Note_on_c, 15, 34, 0
18, 81600, Note_on_c, 15, 46, 84
18, 81719, Note_on_c, 15, 46, 0
18, 81840, Note_on_c, 15, 34, 84
18, 81959, Note_on_c, 15, 34, 0
18, 82080, Note_on_c, 15, 46, 84
18, 82199, Note_on_c, 15, 46, 0
18, 82320, Note_on_c, 15, 39, 84
18, 82439, Note_on_c, 15, 39, 0
18, 82560, Note_on_c, 15, 55, 84
18, 82919, Note_on_c, 15, 55, 0
18, 83040, Note_on_c, 15, 51, 84
18, 83159, Note_on_c, 15, 51, 0
18, 83280, Note_on_c, 15, 46, 84
18, 83639, Note_on_c, 15, 46, 0
18, 83760, Note_on_c, 15, 43, 84
18, 83879, Note_on_c, 15, 43, 0
18, 84000, Note_on_c, 15, 39, 84
18, 84359, Note_on_c, 15, 39, 0
18, 84480, Note_on_c, 15, 34, 84
18, 84719, Note_on_c, 15, 34, 0
18, 84960, Note_on_c, 15, 32, 84
18, 85019, Note_on_c, 15, 32, 0
18, 85020, Note_on_c, 15, 34, 84
18, 85079, Note_on_c, 15, 34, 0
18, 85080, Note_on_c, 15, 31, 84
18, 85139, Note_on_c, 15, 31, 0
18, 85140, Note_on_c, 15, 32, 84
18, 85199, Note_on_c, 15, 32, 0
18, 85200, Note_on_c, 15, 31, 84
18, 85439, Note_on_c, 15, 31, 0
18, 86880, Note_on_c, 15, 34, 52
18, 87089, Note_on_c, 15, 34, 0
18, 87120, Note_on_c, 15, 34, 52
18, 87329, Note_on_c, 15, 34, 0
18, 87360, Note_on_c, 15, 34, 52
18, 87569, Note_on_c, 15, 34, 0
18, 87600, Note_on_c, 15, 34, 52
18, 87809, Note_on_c, 15, 34, 0
18, 87840, Note_on_c, 15, 34, 52
18, 88049, Note_on_c, 15, 34, 0
18, 88080, Note_on_c, 15, 39, 76
18, 88199, Note_on_c, 15, 39, 0
18, 88320, Note_on_c, 15, 55, 84
18, 88769, Note_on_c, 15, 55, 0
18, 88800, Note_on_c, 15, 51, 76
18, 89009, Note_on_c, 15, 51, 0
18, 89040, Note_on_c, 15, 46, 84
18, 89489, Note_on_c, 15, 46, 0
18, 89520, Note_on_c, 15, 43, 76
18, 89729, Note_on_c, 15, 43, 0
18, 89760, Note_on_c, 15, 39, 84
18, 90209, Note_on_c, 15, 39, 0
18, 90240, Note_on_c, 15, 34, 76
18, 90479, Note_on_c, 15, 34, 0
18, 90720, Note_on_c, 15, 32, 76
18, 90779, Note_on_c, 15, 32, 0
18, 90780, Note_on_c, 15, 34, 76
18, 90839, Note_on_c, 15, 34, 0
18, 90840, Note_on_c, 15, 31, 76
18, 90899, Note_on_c, 15, 31, 0
18, 90900, Note_on_c, 15, 32, 76
18, 90959, Note_on_c, 15, 32, 0
18, 90960, Note_on_c, 15, 31, 76
18, 91199, Note_on_c, 15, 31, 0
18, 101280, Note_on_c, 15, 44, 52
18, 101399, Note_on_c, 15, 44, 0
18, 101520, Note_on_c, 15, 39, 52
18, 101639, Note_on_c, 15, 39, 0
18, 101760, Note_on_c, 15, 44, 52
18, 101879, Note_on_c, 15, 44, 0
18, 102000, Note_on_c, 15, 39, 52
18, 102119, Note_on_c, 15, 39, 0
18, 102240, Note_on_c, 15, 44, 52
18, 102359, Note_on_c, 15, 44, 0
18, 102480, Note_on_c, 15, 39, 52
18, 102599, Note_on_c, 15, 39, 0
18, 108240, Note_on_c, 15, 39, 52
18, 108359, Note_on_c, 15, 39, 0
18, 108480, Note_on_c, 15, 43, 52
18, 108599, Note_on_c, 15, 43, 0
18, 108720, Note_on_c, 15, 38, 52
18, 108839, Note_on_c, 15, 38, 0
18, 108960, Note_on_c, 15, 39, 52
18, 109079, Note_on_c, 15, 39, 0
18, 109200, Note_on_c, 15, 35, 52
18, 109319, Note_on_c, 15, 35, 0
18, 109440, Note_on_c, 15, 36, 52
18, 109559, Note_on_c, 15, 36, 0
18, 109680, Note_on_c, 15, 32, 52
18, 109799, Note_on_c, 15, 32, 0
18, 109920, Note_on_c, 15, 44, 52
18, 110039, Note_on_c, 15, 44, 0
18, 110160, Note_on_c, 15, 40, 52
18, 110279, Note_on_c, 15, 40, 0
18, 110400, Note_on_c, 15, 41, 52
18, 110519, Note_on_c, 15, 41, 0
18, 110640, Note_on_c, 15, 37, 52
18, 110759, Note_on_c, 15, 37, 0
18, 110880, Note_on_c, 15, 38, 52
18, 110999, Note_on_c, 15, 38, 0
18, 111120, Note_on_c, 15, 34, 52
18, 111239, Note_on_c, 15, 34, 0
18, 111360, Note_on_c, 15, 46, 54
18, 111479, Note_on_c, 15, 46, 0
18, 111600, Note_on_c, 15, 42, 57
18, 111719, Note_on_c, 15, 42, 0
18, 111840, Note_on_c, 15, 43, 60
18, 111959, Note_on_c, 15, 43, 0
18, 112080, Note_on_c, 15, 38, 62
18, 112199, Note_on_c, 15, 38, 0
18, 112320, Note_on_c, 15, 39, 65
18, 112439, Note_on_c, 15, 39, 0
18, 112560, Note_on_c, 15, 36, 68
18, 112679, Note_on_c, 15, 36, 0
18, 112800, Note_on_c, 15, 31, 70
18, 112919, Note_on_c, 15, 31, 0
18, 113040, Note_on_c, 15, 32, 73
18, 113159, Note_on_c, 15, 32, 0
18, 113280, Note_on_c, 15, 29, 76
18, 113399, Note_on_c, 15, 29, 0
18, 113520, Note_on_c, 15, 37, 78
18, 113639, Note_on_c, 15, 37, 0
18, 113760, Note_on_c, 15, 38, 81
18, 113879, Note_on_c, 15, 38, 0
18, 114000, Note_on_c, 15, 34, 84
18, 114209, Note_on_c, 15, 34, 0
18, 114240, Note_on_c, 15, 41, 84
18, 114449, Note_on_c, 15, 41, 0
18, 114480, Note_on_c, 15, 38, 84
18, 114689, Note_on_c, 15, 38, 0
18, 114720, Note_on_c, 15, 34, 84
18, 114929, Note_on_c, 15, 34, 0
18, 114960, Note_on_c, 15, 50, 84
18, 115169, Note_on_c, 15, 50, 0
18, 115200, Note_on_c, 15, 46, 84
18, 115409, Note_on_c, 15, 46, 0
18, 115440, Note_on_c, 15, 34, 84
18, 115649, Note_on_c, 15, 34, 0
18, 115680, Note_on_c, 15, 53, 84
18, 115889, Note_on_c, 15, 53, 0
18, 115920, Note_on_c, 15, 50, 84
18, 116129, Note_on_c, 15, 50, 0
18, 116160, Note_on_c, 15, 46, 84
18, 116369, Note_on_c, 15, 46, 0
18, 116400, Note_on_c, 15, 48, 84
18, 116609, Note_on_c, 15, 48, 0
18, 116640, Note_on_c, 15, 50, 84
18, 116849, Note_on_c, 15, 50, 0
18, 116880, Note_on_c, 15, 51, 76
18, 117119, Note_on_c, 15, 51, 0
18, 117600, Note_on_c, 15, 34, 76
18, 117839, Note_on_c, 15, 34, 0
18, 118080, Note_on_c, 15, 34, 76
18, 118319, Note_on_c, 15, 34, 0
18, 118320, Note_on_c, 15, 34, 76
18, 118439, Note_on_c, 15, 34, 0
18, 118560, Note_on_c, 15, 35, 52
18, 118679, Note_on_c, 15, 35, 0
18, 118800, Note_on_c, 15, 34, 52
18, 118919, Note_on_c, 15, 34, 0
18, 119040, Note_on_c, 15, 35, 52
18, 119159, Note_on_c, 15, 35, 0
18, 119280, Note_on_c, 15, 34, 52
18, 119399, Note_on_c, 15, 34, 0
18, 119520, Note_on_c, 15, 35, 52
18, 119639, Note_on_c, 15, 35, 0
18, 119760, Note_on_c, 15, 34, 44
18, 119879, Note_on_c, 15, 34, 0
18, 120000, Note_on_c, 15, 35, 44
18, 120119, Note_on_c, 15, 35, 0
18, 120240, Note_on_c, 15, 34, 44
18, 120359, Note_on_c, 15, 34, 0
18, 120480, Note_on_c, 15, 35, 44
18, 120599, Note_on_c, 15, 35, 0
18, 120720, Note_on_c, 15, 35, 44
18, 120839, Note_on_c, 15, 35, 0
18, 120960, Note_on_c, 15, 36, 44
18, 121079, Note_on_c, 15, 36, 0
18, 121200, Note_on_c, 15, 36, 44
18, 121319, Note_on_c, 15, 36, 0
18, 121440, Note_on_c, 15, 37, 44
18, 121559, Note_on_c, 15, 37, 0
18, 121680, Note_on_c, 15, 36, 44
18, 121799, Note_on_c, 15, 36, 0
18, 121920, Note_on_c, 15, 37, 44
18, 122039, Note_on_c, 15, 37, 0
18, 122160, Note_on_c, 15, 36, 44
18, 122279, Note_on_c, 15, 36, 0
18, 122400, Note_on_c, 15, 37, 44
18, 122519, Note_on_c, 15, 37, 0
18, 122640, Note_on_c, 15, 36, 44
18, 122759, Note_on_c, 15, 36, 0
18, 122880, Note_on_c, 15, 37, 44
18, 122999, Note_on_c, 15, 37, 0
18, 123120, Note_on_c, 15, 36, 44
18, 123239, Note_on_c, 15, 36, 0
18, 123360, Note_on_c, 15, 37, 44
18, 123479, Note_on_c, 15, 37, 0
18, 123600, Note_on_c, 15, 37, 44
18, 123719, Note_on_c, 15, 37, 0
18, 123840, Note_on_c, 15, 36, 44
18, 123959, Note_on_c, 15, 36, 0
18, 124080, Note_on_c, 15, 36, 44
18, 124199, Note_on_c, 15, 36, 0
18, 124320, Note_on_c, 15, 37, 44
18, 124439, Note_on_c, 15, 37, 0
18, 124560, Note_on_c, 15, 37, 44
18, 124679, Note_on_c, 15, 37, 0
18, 124800, Note_on_c, 15, 37, 44
18, 124919, Note_on_c, 15, 37, 0
18, 125040, Note_on_c, 15, 38, 44
18, 125159, Note_on_c, 15, 38, 0
18, 125280, Note_on_c, 15, 38, 44
18, 125399, Note_on_c, 15, 38, 0
18, 125520, Note_on_c, 15, 38, 44
18, 125639, Note_on_c, 15, 38, 0
18, 125760, Note_on_c, 15, 39, 44
18, 125879, Note_on_c, 15, 39, 0
18, 126000, Note_on_c, 15, 39, 44
18, 126119, Note_on_c, 15, 39, 0
18, 126240, Note_on_c, 15, 39, 44
18, 126359, Note_on_c, 15, 39, 0
18, 126480, Note_on_c, 15, 40, 44
18, 126599, Note_on_c, 15, 40, 0
18, 126720, Note_on_c, 15, 40, 44
18, 126839, Note_on_c, 15, 40, 0
18, 126960, Note_on_c, 15, 41, 44
18, 127199, Note_on_c, 15, 41, 0
18, 127680, Note_on_c, 15, 41, 44
18, 127919, Note_on_c, 15, 41, 0
18, 128400, Note_on_c, 15, 41, 44
18, 128639, Note_on_c, 15, 41, 0
18, 129120, Note_on_c, 15, 41, 44
18, 129359, Note_on_c, 15, 41, 0
18, 129840, Note_on_c, 15, 36, 44
18, 130079, Note_on_c, 15, 36, 0
18, 130560, Note_on_c, 15, 41, 44
18, 130799, Note_on_c, 15, 41, 0
18, 131280, Note_on_c, 15, 36, 44
18, 131519, Note_on_c, 15, 36, 0
18, 132000, Note_on_c, 15, 41, 44
18, 132239, Note_on_c, 15, 41, 0
18, 134160, Note_on_c, 15, 36, 52
18, 134849, Note_on_c, 15, 36, 0
18, 134880, Note_on_c, 15, 41, 44
18, 134999, Note_on_c, 15, 41, 0
18, 135120, Note_on_c, 15, 45, 44
18, 135239, Note_on_c, 15, 45, 0
18, 135360, Note_on_c, 15, 48, 44
18, 135479, Note_on_c, 15, 48, 0
18, 137040, Note_on_c, 15, 38, 52
18, 137729, Note_on_c, 15, 38, 0
18, 137760, Note_on_c, 15, 43, 44
18, 137999, Note_on_c, 15, 43, 0
18, 138000, Note_on_c, 15, 46, 44
18, 138209, Note_on_c, 15, 46, 0
18, 138240, Note_on_c, 15, 43, 44
18, 138359, Note_on_c, 15, 43, 0
18, 138480, Note_on_c, 15, 42, 44
18, 138599, Note_on_c, 15, 42, 0
18, 138720, Note_on_c, 15, 38, 44
18, 138839, Note_on_c, 15, 38, 0
18, 138960, Note_on_c, 15, 48, 44
18, 139079, Note_on_c, 15, 48, 0
18, 139200, Note_on_c, 15, 46, 44
18, 139319, Note_on_c, 15, 46, 0
18, 139440, Note_on_c, 15, 43, 44
18, 139559, Note_on_c, 15, 43, 0
18, 139680, Note_on_c, 15, 39, 44
18, 139799, Note_on_c, 15, 39, 0
18, 139920, Note_on_c, 15, 38, 44
18, 140039, Note_on_c, 15, 38, 0
18, 140160, Note_on_c, 15, 45, 44
18, 140279, Note_on_c, 15, 45, 0
18, 140400, Note_on_c, 15, 42, 44
18, 140519, Note_on_c, 15, 42, 0
18, 140640, Note_on_c, 15, 43, 44
18, 140759, Note_on_c, 15, 43, 0
18, 140880, Note_on_c, 15, 46, 44
18, 140999, Note_on_c, 15, 46, 0
18, 141120, Note_on_c, 15, 51, 44
18, 141239, Note_on_c, 15, 51, 0
18, 141360, Note_on_c, 15, 50, 44
18, 141479, Note_on_c, 15, 50, 0
18, 141600, Note_on_c, 15, 49, 44
18, 141719, Note_on_c, 15, 49, 0
18, 141840, Note_on_c, 15, 50, 44
18, 141959, Note_on_c, 15, 50, 0
18, 142080, Note_on_c, 15, 45, 44
18, 142199, Note_on_c, 15, 45, 0
18, 142320, Note_on_c, 15, 46, 44
18, 142439, Note_on_c, 15, 46, 0
18, 142560, Note_on_c, 15, 42, 44
18, 142679, Note_on_c, 15, 42, 0
18, 142800, Note_on_c, 15, 43, 44
18, 142919, Note_on_c, 15, 43, 0
18, 143040, Note_on_c, 15, 38, 44
18, 143159, Note_on_c, 15, 38, 0
18, 143280, Note_on_c, 15, 39, 44
18, 143399, Note_on_c, 15, 39, 0
18, 143520, Note_on_c, 15, 38, 44
18, 143639, Note_on_c, 15, 38, 0
18, 143760, Note_on_c, 15, 39, 44
18, 143879, Note_on_c, 15, 39, 0
18, 144000, Note_on_c, 15, 37, 44
18, 144119, Note_on_c, 15, 37, 0
18, 144240, Note_on_c, 15, 38, 44
18, 144359, Note_on_c, 15, 38, 0
18, 144480, Note_on_c, 15, 37, 44
18, 144599, Note_on_c, 15, 37, 0
18, 144720, Note_on_c, 15, 38, 44
18, 144839, Note_on_c, 15, 38, 0
18, 144960, Note_on_c, 15, 37, 44
18, 145079, Note_on_c, 15, 37, 0
18, 145200, Note_on_c, 15, 38, 44
18, 145319, Note_on_c, 15, 38, 0
18, 145440, Note_on_c, 15, 37, 44
18, 145559, Note_on_c, 15, 37, 0
18, 145680, Note_on_c, 15, 38, 44
18, 145799, Note_on_c, 15, 38, 0
18, 145920, Note_on_c, 15, 37, 44
18, 146039, Note_on_c, 15, 37, 0
18, 146160, Note_on_c, 15, 38, 44
18, 146279, Note_on_c, 15, 38, 0
18, 146400, Note_on_c, 15, 37, 44
18, 146519, Note_on_c, 15, 37, 0
18, 146640, Note_on_c, 15, 38, 44
18, 146759, Note_on_c, 15, 38, 0
18, 146880, Note_on_c, 15, 37, 44
18, 146999, Note_on_c, 15, 37, 0
18, 147120, Note_on_c, 15, 38, 44
18, 147359, Note_on_c, 15, 38, 0
18, 150000, Note_on_c, 15, 34, 44
18, 150119, Note_on_c, 15, 34, 0
18, 150240, Note_on_c, 15, 34, 44
18, 150359, Note_on_c, 15, 34, 0
18, 150480, Note_on_c, 15, 34, 44
18, 150599, Note_on_c, 15, 34, 0
18, 150720, Note_on_c, 15, 34, 44
18, 150839, Note_on_c, 15, 34, 0
18, 150960, Note_on_c, 15, 34, 44
18, 151079, Note_on_c, 15, 34, 0
18, 151200, Note_on_c, 15, 34, 44
18, 151319, Note_on_c, 15, 34, 0
18, 151440, Note_on_c, 15, 34, 44
18, 151559, Note_on_c, 15, 34, 0
18, 151680, Note_on_c, 15, 34, 44
18, 151799, Note_on_c, 15, 34, 0
18, 151920, Note_on_c, 15, 34, 44
18, 152039, Note_on_c, 15, 34, 0
18, 152160, Note_on_c, 15, 34, 44
18, 152279, Note_on_c, 15, 34, 0
18, 152400, Note_on_c, 15, 34, 44
18, 152519, Note_on_c, 15, 34, 0
18, 152640, Note_on_c, 15, 34, 44
18, 152759, Note_on_c, 15, 34, 0
18, 152880, Note_on_c, 15, 34, 44
18, 152999, Note_on_c, 15, 34, 0
18, 153120, Note_on_c, 15, 34, 44
18, 153239, Note_on_c, 15, 34, 0
18, 153360, Note_on_c, 15, 34, 44
18, 153479, Note_on_c, 15, 34, 0
18, 153600, Note_on_c, 15, 34, 44
18, 153719, Note_on_c, 15, 34, 0
18, 153840, Note_on_c, 15, 34, 44
18, 153959, Note_on_c, 15, 34, 0
18, 154080, Note_on_c, 15, 34, 44
18, 154199, Note_on_c, 15, 34, 0
18, 154320, Note_on_c, 15, 34, 44
18, 154439, Note_on_c, 15, 34, 0
18, 154560, Note_on_c, 15, 34, 44
18, 154679, Note_on_c, 15, 34, 0
18, 154800, Note_on_c, 15, 34, 44
18, 154919, Note_on_c, 15, 34, 0
18, 155040, Note_on_c, 15, 34, 44
18, 155159, Note_on_c, 15, 34, 0
18, 155280, Note_on_c, 15, 34, 44
18, 155399, Note_on_c, 15, 34, 0
18, 155520, Note_on_c, 15, 34, 44
18, 155639, Note_on_c, 15, 34, 0
18, 155760, Note_on_c, 15, 34, 44
18, 155879, Note_on_c, 15, 34, 0
18, 156000, Note_on_c, 15, 34, 44
18, 156119, Note_on_c, 15, 34, 0
18, 156240, Note_on_c, 15, 34, 44
18, 156359, Note_on_c, 15, 34, 0
18, 156480, Note_on_c, 15, 34, 44
18, 156599, Note_on_c, 15, 34, 0
18, 156720, Note_on_c, 15, 34, 44
18, 156839, Note_on_c, 15, 34, 0
18, 156960, Note_on_c, 15, 34, 44
18, 157079, Note_on_c, 15, 34, 0
18, 157200, Note_on_c, 15, 34, 44
18, 157409, Note_on_c, 15, 34, 0
18, 157440, Note_on_c, 15, 34, 44
18, 157649, Note_on_c, 15, 34, 0
18, 157680, Note_on_c, 15, 34, 44
18, 157889, Note_on_c, 15, 34, 0
18, 157920, Note_on_c, 15, 34, 44
18, 158129, Note_on_c, 15, 34, 0
18, 158160, Note_on_c, 15, 34, 44
18, 158369, Note_on_c, 15, 34, 0
18, 158400, Note_on_c, 15, 34, 44
18, 158609, Note_on_c, 15, 34, 0
18, 158640, Note_on_c, 15, 34, 44
18, 158849, Note_on_c, 15, 34, 0
18, 158880, Note_on_c, 15, 50, 44
18, 159089, Note_on_c, 15, 50, 0
18, 159120, Note_on_c, 15, 48, 44
18, 159329, Note_on_c, 15, 48, 0
18, 159360, Note_on_c, 15, 46, 44
18, 159569, Note_on_c, 15, 46, 0
18, 159600, Note_on_c, 15, 50, 44
18, 159809, Note_on_c, 15, 50, 0
18, 159840, Note_on_c, 15, 48, 44
18, 160049, Note_on_c, 15, 48, 0
18, 160080, Note_on_c, 15, 46, 44
18, 160289, Note_on_c, 15, 46, 0
18, 160320, Note_on_c, 15, 46, 44
18, 160529, Note_on_c, 15, 46, 0
18, 160560, Note_on_c, 15, 48, 44
18, 160769, Note_on_c, 15, 48, 0
18, 160800, Note_on_c, 15, 50, 44
18, 161009, Note_on_c, 15, 50, 0
18, 161040, Note_on_c, 15, 45, 44
18, 161249, Note_on_c, 15, 45, 0
18, 161280, Note_on_c, 15, 47, 44
18, 161489, Note_on_c, 15, 47, 0
18, 161520, Note_on_c, 15, 48, 44
18, 161729, Note_on_c, 15, 48, 0
18, 161760, Note_on_c, 15, 43, 44
18, 161969, Note_on_c, 15, 43, 0
18, 162000, Note_on_c, 15, 45, 44
18, 162209, Note_on_c, 15, 45, 0
18, 162240, Note_on_c, 15, 46, 44
18, 162449, Note_on_c, 15, 46, 0
18, 162480, Note_on_c, 15, 41, 44
18, 162689, Note_on_c, 15, 41, 0
18, 162720, Note_on_c, 15, 43, 44
18, 162929, Note_on_c, 15, 43, 0
18, 162960, Note_on_c, 15, 39, 44
18, 163169, Note_on_c, 15, 39, 0
18, 163200, Note_on_c, 15, 36, 44
18, 163409, Note_on_c, 15, 36, 0
18, 163440, Note_on_c, 15, 41, 44
18, 163649, Note_on_c, 15, 41, 0
18, 163680, Note_on_c, 15, 34, 44
18, 163799, Note_on_c, 15, 34, 0
18, 163920, Note_on_c, 15, 36, 57
18, 164039, Note_on_c, 15, 36, 0
18, 164160, Note_on_c, 15, 38, 70
18, 164279, Note_on_c, 15, 38, 0
18, 164400, Note_on_c, 15, 39, 84
18, 164609, Note_on_c, 15, 39, 0
18, 164640, Note_on_c, 15, 43, 84
18, 164849, Note_on_c, 15, 43, 0
18, 164880, Note_on_c, 15, 46, 84
18, 165089, Note_on_c, 15, 46, 0
18, 165120, Note_on_c, 15, 39, 84
18, 165329, Note_on_c, 15, 39, 0
18, 165360, Note_on_c, 15, 43, 84
18, 165569, Note_on_c, 15, 43, 0
18, 165600, Note_on_c, 15, 46, 84
18, 165809, Note_on_c, 15, 46, 0
18, 165840, Note_on_c, 15, 51, 84
18, 166049, Note_on_c, 15, 51, 0
18, 166080, Note_on_c, 15, 51, 84
18, 166289, Note_on_c, 15, 51, 0
18, 166320, Note_on_c, 15, 51, 84
18, 166529, Note_on_c, 15, 51, 0
18, 166560, Note_on_c, 15, 51, 84
18, 166769, Note_on_c, 15, 51, 0
18, 166800, Note_on_c, 15, 51, 84
18, 167009, Note_on_c, 15, 51, 0
18, 167040, Note_on_c, 15, 51, 84
18, 167249, Note_on_c, 15, 51, 0
18, 167280, Note_on_c, 15, 51, 84
18, 167519, Note_on_c, 15, 51, 0
18, 167520, Note_on_c, 15, 53, 84
18, 167639, Note_on_c, 15, 53, 0
18, 167640, Note_on_c, 15, 51, 84
18, 167759, Note_on_c, 15, 51, 0
18, 167760, Note_on_c, 15, 50, 84
18, 167879, Note_on_c, 15, 50, 0
18, 167880, Note_on_c, 15, 48, 84
18, 167969, Note_on_c, 15, 48, 0
18, 168000, Note_on_c, 15, 46, 84
18, 168689, Note_on_c, 15, 46, 0
18, 168720, Note_on_c, 15, 44, 92
18, 169409, Note_on_c, 15, 44, 0
18, 169440, Note_on_c, 15, 43, 84
18, 169679, Note_on_c, 15, 43, 0
18, 169680, Note_on_c, 15, 46, 84
18, 169889, Note_on_c, 15, 46, 0
18, 169920, Note_on_c, 15, 43, 84
18, 170039, Note_on_c, 15, 43, 0
18, 170160, Note_on_c, 15, 41, 84
18, 170399, Note_on_c, 15, 41, 0
18, 170400, Note_on_c, 15, 46, 84
18, 170609, Note_on_c, 15, 46, 0
18, 170640, Note_on_c, 15, 41, 84
18, 170759, Note_on_c, 15, 41, 0
18, 170880, Note_on_c, 15, 39, 84
18, 170999, Note_on_c, 15, 39, 0
18, 171120, Note_on_c, 15, 43, 84
18, 171239, Note_on_c, 15, 43, 0
18, 171360, Note_on_c, 15, 46, 84
18, 171479, Note_on_c, 15, 46, 0
18, 171600, Note_on_c, 15, 44, 92
18, 172289, Note_on_c, 15, 44, 0
18, 172320, Note_on_c, 15, 43, 84
18, 172559, Note_on_c, 15, 43, 0
18, 172560, Note_on_c, 15, 46, 84
18, 172769, Note_on_c, 15, 46, 0
18, 172800, Note_on_c, 15, 43, 84
18, 172919, Note_on_c, 15, 43, 0
18, 173040, Note_on_c, 15, 41, 84
18, 173279, Note_on_c, 15, 41, 0
18, 173280, Note_on_c, 15, 44, 84
18, 173489, Note_on_c, 15, 44, 0
18, 173520, Note_on_c, 15, 41, 84
18, 173639, Note_on_c, 15, 41, 0
18, 173760, Note_on_c, 15, 39, 84
18, 173879, Note_on_c, 15, 39, 0
18, 174000, Note_on_c, 15, 44, 84
18, 174119, Note_on_c, 15, 44, 0
18, 174240, Note_on_c, 15, 39, 84
18, 174359, Note_on_c, 15, 39, 0
18, 174480, Note_on_c, 15, 37, 92
18, 175169, Note_on_c, 15, 37, 0
18, 175200, Note_on_c, 15, 36, 84
18, 175439, Note_on_c, 15, 36, 0
18, 175440, Note_on_c, 15, 39, 84
18, 175649, Note_on_c, 15, 39, 0
18, 175680, Note_on_c, 15, 36, 84
18, 175799, Note_on_c, 15, 36, 0
18, 175920, Note_on_c, 15, 39, 84
18, 176039, Note_on_c, 15, 39, 0
18, 176160, Note_on_c, 15, 34, 84
18, 176279, Note_on_c, 15, 34, 0
18, 176400, Note_on_c, 15, 39, 84
18, 176519, Note_on_c, 15, 39, 0
18, 176640, Note_on_c, 15, 32, 84
18, 176759, Note_on_c, 15, 32, 0
18, 176880, Note_on_c, 15, 44, 84
18, 176999, Note_on_c, 15, 44, 0
18, 177120, Note_on_c, 15, 32, 84
18, 177239, Note_on_c, 15, 32, 0
18, 177360, Note_on_c, 15, 43, 84
18, 177479, Note_on_c, 15, 43, 0
18, 177600, Note_on_c, 15, 31, 84
18, 177719, Note_on_c, 15, 31, 0
18, 177840, Note_on_c, 15, 43, 84
18, 177959, Note_on_c, 15, 43, 0
18, 178080, Note_on_c, 15, 32, 84
18, 178199, Note_on_c, 15, 32, 0
18, 178320, Note_on_c, 15, 41, 84
18, 178439, Note_on_c, 15, 41, 0
18, 178560, Note_on_c, 15, 32, 84
18, 178679, Note_on_c, 15, 32, 0
18, 178800, Note_on_c, 15, 34, 84
18, 178919, Note_on_c, 15, 34, 0
18, 179040, Note_on_c, 15, 43, 84
18, 179159, Note_on_c, 15, 43, 0
18, 179280, Note_on_c, 15, 34, 84
18, 179399, Note_on_c, 15, 34, 0
18, 179520, Note_on_c, 15, 46, 84
18, 179639, Note_on_c, 15, 46, 0
18, 179760, Note_on_c, 15, 34, 84
18, 179879, Note_on_c, 15, 34, 0
18, 180000, Note_on_c, 15, 46, 84
18, 180119, Note_on_c, 15, 46, 0
18, 180240, Note_on_c, 15, 39, 84
18, 180359, Note_on_c, 15, 39, 0
18, 180480, Note_on_c, 15, 55, 84
18, 180839, Note_on_c, 15, 55, 0
18, 180960, Note_on_c, 15, 51, 84
18, 181079, Note_on_c, 15, 51, 0
18, 181200, Note_on_c, 15, 46, 84
18, 181559, Note_on_c, 15, 46, 0
18, 181680, Note_on_c, 15, 43, 84
18, 181799, Note_on_c, 15, 43, 0
18, 181920, Note_on_c, 15, 39, 84
18, 182279, Note_on_c, 15, 39, 0
18, 182400, Note_on_c, 15, 34, 84
18, 182639, Note_on_c, 15, 34, 0
18, 182880, Note_on_c, 15, 32, 84
18, 182939, Note_on_c, 15, 32, 0
18, 182940, Note_on_c, 15, 34, 84
18, 182999, Note_on_c, 15, 34, 0
18, 183000, Note_on_c, 15, 31, 84
18, 183059, Note_on_c, 15, 31, 0
18, 183060, Note_on_c, 15, 32, 84
18, 183119, Note_on_c, 15, 32, 0
18, 183120, Note_on_c, 15, 31, 84
18, 183359, Note_on_c, 15, 31, 0
18, 184800, Note_on_c, 15, 34, 52
18, 185009, Note_on_c, 15, 34, 0
18, 185040, Note_on_c, 15, 34, 52
18, 185249, Note_on_c, 15, 34, 0
18, 185280, Note_on_c, 15, 34, 52
18, 185489, Note_on_c, 15, 34, 0
18, 185520, Note_on_c, 15, 34, 52
18, 185729, Note_on_c, 15, 34, 0
18, 185760, Note_on_c, 15, 34, 52
18, 185969, Note_on_c, 15, 34, 0
18, 186000, Note_on_c, 15, 39, 76
18, 186119, Note_on_c, 15, 39, 0
18, 186240, Note_on_c, 15, 55, 84
18, 186689, Note_on_c, 15, 55, 0
18, 186720, Note_on_c, 15, 51, 76
18, 186929, Note_on_c, 15, 51, 0
18, 186960, Note_on_c, 15, 46, 84
18, 187409, Note_on_c, 15, 46, 0
18, 187440, Note_on_c, 15, 43, 76
18, 187649, Note_on_c, 15, 43, 0
18, 187680, Note_on_c, 15, 39, 84
18, 188129, Note_on_c, 15, 39, 0
18, 188160, Note_on_c, 15, 34, 76
18, 188399, Note_on_c, 15, 34, 0
18, 188640, Note_on_c, 15, 32, 76
18, 188699, Note_on_c, 15, 32, 0
18, 188700, Note_on_c, 15, 34, 76
18, 188759, Note_on_c, 15, 34, 0
18, 188760, Note_on_c, 15, 31, 76
18, 188819, Note_on_c, 15, 31, 0
18, 188820, Note_on_c, 15, 32, 76
18, 188879, Note_on_c, 15, 32, 0
18, 188880, Note_on_c, 15, 31, 76
18, 189119, Note_on_c, 15, 31, 0
18, 199200, Note_on_c, 15, 44, 52
18, 199319, Note_on_c, 15, 44, 0
18, 199440, Note_on_c, 15, 39, 52
18, 199559, Note_on_c, 15, 39, 0
18, 199680, Note_on_c, 15, 44, 52
18, 199799, Note_on_c, 15, 44, 0
18, 199920, Note_on_c, 15, 39, 52
18, 200039, Note_on_c, 15, 39, 0
18, 200160, Note_on_c, 15, 44, 52
18, 200279, Note_on_c, 15, 44, 0
18, 200400, Note_on_c, 15, 39, 52
18, 200519, Note_on_c, 15, 39, 0
18, 206160, Note_on_c, 15, 39, 52
18, 206279, Note_on_c, 15, 39, 0
18, 206400, Note_on_c, 15, 43, 52
18, 206519, Note_on_c, 15, 43, 0
18, 206640, Note_on_c, 15, 38, 52
18, 206759, Note_on_c, 15, 38, 0
18, 206880, Note_on_c, 15, 39, 52
18, 206999, Note_on_c, 15, 39, 0
18, 207120, Note_on_c, 15, 35, 52
18, 207239, Note_on_c, 15, 35, 0
18, 207360, Note_on_c, 15, 36, 52
18, 207479, Note_on_c, 15, 36, 0
18, 207600, Note_on_c, 15, 32, 52
18, 207719, Note_on_c, 15, 32, 0
18, 207840, Note_on_c, 15, 44, 52
18, 207959, Note_on_c, 15, 44, 0
18, 208080, Note_on_c, 15, 40, 52
18, 208199, Note_on_c, 15, 40, 0
18, 208320, Note_on_c, 15, 41, 52
18, 208439, Note_on_c, 15, 41, 0
18, 208560, Note_on_c, 15, 37, 52
18, 208679, Note_on_c, 15, 37, 0
18, 208800, Note_on_c, 15, 38, 52
18, 208919, Note_on_c, 15, 38, 0
18, 209040, Note_on_c, 15, 34, 52
18, 209159, Note_on_c, 15, 34, 0
18, 209280, Note_on_c, 15, 46, 54
18, 209399, Note_on_c, 15, 46, 0
18, 209520, Note_on_c, 15, 42, 57
18, 209639, Note_on_c, 15, 42, 0
18, 209760, Note_on_c, 15, 43, 60
18, 209879, Note_on_c, 15, 43, 0
18, 210000, Note_on_c, 15, 38, 62
18, 210119, Note_on_c, 15, 38, 0
18, 210240, Note_on_c, 15, 39, 65
18, 210359, Note_on_c, 15, 39, 0
18, 210480, Note_on_c, 15, 36, 68
18, 210599, Note_on_c, 15, 36, 0
18, 210720, Note_on_c, 15, 31, 70
18, 210839, Note_on_c, 15, 31, 0
18, 210960, Note_on_c, 15, 32, 73
18, 211079, Note_on_c, 15, 32, 0
18, 211200, Note_on_c, 15, 29, 76
18, 211319, Note_on_c, 15, 29, 0
18, 211440, Note_on_c, 15, 37, 78
18, 211559, Note_on_c, 15, 37, 0
18, 211680, Note_on_c, 15, 38, 81
18, 211799, Note_on_c, 15, 38, 0
18, 211920, Note_on_c, 15, 34, 84
18, 212129, Note_on_c, 15, 34, 0
18, 212160, Note_on_c, 15, 41, 84
18, 212369, Note_on_c, 15, 41, 0
18, 212400, Note_on_c, 15, 38, 84
18, 212609, Note_on_c, 15, 38, 0
18, 212640, Note_on_c, 15, 34, 84
18, 212849, Note_on_c, 15, 34, 0
18, 212880, Note_on_c, 15, 50, 84
18, 213089, Note_on_c, 15, 50, 0
18, 213120, Note_on_c, 15, 46, 84
18, 213329, Note_on_c, 15, 46, 0
18, 213360, Note_on_c, 15, 34, 84
18, 213569, Note_on_c, 15, 34, 0
18, 213600, Note_on_c, 15, 53, 84
18, 213809, Note_on_c, 15, 53, 0
18, 213840, Note_on_c, 15, 50, 84
18, 214049, Note_on_c, 15, 50, 0
18, 214080, Note_on_c, 15, 46, 84
18, 214289, Note_on_c, 15, 46, 0
18, 214320, Note_on_c, 15, 48, 84
18, 214529, Note_on_c, 15, 48, 0
18, 214560, Note_on_c, 15, 50, 84
18, 214769, Note_on_c, 15, 50, 0
18, 214800, Note_on_c, 15, 51, 76
18, 215039, Note_on_c, 15, 51, 0
18, 215520, Note_on_c, 15, 34, 76
18, 215759, Note_on_c, 15, 34, 0
18, 216240, Note_on_c, 15, 39, 76
18, 216449, Note_on_c, 15, 39, 0
18, 216480, Note_on_c, 15, 46, 76
18, 216689, Note_on_c, 15, 46, 0
18, 216720, Note_on_c, 15, 43, 76
18, 216929, Note_on_c, 15, 43, 0
18, 216960, Note_on_c, 15, 39, 76
18, 217199, Note_on_c, 15, 39, 0
18, 222240, Note_on_c, 15, 39, 52
18, 222449, Note_on_c, 15, 39, 0
18, 222480, Note_on_c, 15, 39, 52
18, 222689, Note_on_c, 15, 39, 0
18, 222720, Note_on_c, 15, 34, 52
18, 222959, Note_on_c, 15, 34, 0
18, 228000, Note_on_c, 15, 34, 52
18, 228209, Note_on_c, 15, 34, 0
18, 228240, Note_on_c, 15, 34, 52
18, 228449, Note_on_c, 15, 34, 0
18, 228480, Note_on_c, 15, 39, 52
18, 228719, Note_on_c, 15, 39, 0
18, 233760, Note_on_c, 15, 39, 52
18, 233969, Note_on_c, 15, 39, 0
18, 234000, Note_on_c, 15, 39, 52
18, 234209, Note_on_c, 15, 39, 0
18, 234240, Note_on_c, 15, 34, 52
18, 234479, Note_on_c, 15, 34, 0
18, 238800, Note_on_c, 15, 34, 52
18, 239039, Note_on_c, 15, 34, 0
18, 239040, Note_on_c, 15, 34, 52
18, 239279, Note_on_c, 15, 34, 0
18, 239280, Note_on_c, 15, 39, 52
18, 239519, Note_on_c, 15, 39, 0
18, 240480, Note_on_c, 15, 44, 76
18, 240689, Note_on_c, 15, 44, 0
18, 241200, Note_on_c, 15, 43, 76
18, 241439, Note_on_c, 15, 43, 0
18, 241920, Note_on_c, 15, 49, 76
18, 242129, Note_on_c, 15, 49, 0
18, 242160, Note_on_c, 15, 48, 76
18, 242369, Note_on_c, 15, 48, 0
18, 242400, Note_on_c, 15, 44, 76
18, 242639, Note_on_c, 15, 44, 0
18, 243360, Note_on_c, 15, 41, 76
18, 243599, Note_on_c, 15, 41, 0
18, 244080, Note_on_c, 15, 40, 76
18, 244319, Note_on_c, 15, 40, 0
18, 244800, Note_on_c, 15, 46, 76
18, 244919, Note_on_c, 15, 46, 0
18, 245040, Note_on_c, 15, 44, 76
18, 245249, Note_on_c, 15, 44, 0
18, 245280, Note_on_c, 15, 41, 76
18, 245519, Note_on_c, 15, 41, 0
18, 254640, Note_on_c, 15, 43, 52
18, 254879, Note_on_c, 15, 43, 0
18, 254880, Note_on_c, 15, 41, 52
18, 255119, Note_on_c, 15, 41, 0
18, 255120, Note_on_c, 15, 44, 52
18, 255359, Note_on_c, 15, 44, 0
18, 255360, Note_on_c, 15, 41, 52
18, 255599, Note_on_c, 15, 41, 0
18, 255600, Note_on_c, 15, 39, 52
18, 255839, Note_on_c, 15, 39, 0
18, 255840, Note_on_c, 15, 38, 52
18, 256079, Note_on_c, 15, 38, 0
18, 256800, Note_on_c, 15, 44, 52
18, 257039, Note_on_c, 15, 44, 0
18, 257040, Note_on_c, 15, 41, 54
18, 257279, Note_on_c, 15, 41, 0
18, 257280, Note_on_c, 15, 38, 57
18, 257519, Note_on_c, 15, 38, 0
18, 258240, Note_on_c, 15, 44, 68
18, 258479, Note_on_c, 15, 44, 0
18, 258480, Note_on_c, 15, 41, 70
18, 258719, Note_on_c, 15, 41, 0
18, 258720, Note_on_c, 15, 38, 73
18, 258929, Note_on_c, 15, 38, 0
18, 258960, Note_on_c, 15, 46, 76
18, 259199, Note_on_c, 15, 46, 0
18, 259200, Note_on_c, 15, 43, 76
18, 259439, Note_on_c, 15, 43, 0
18, 259440, Note_on_c, 15, 39, 76
18, 259679, Note_on_c, 15, 39, 0
18, 264000, Note_on_c, 15, 39, 52
18, 264209, Note_on_c, 15, 39, 0
18, 264240, Note_on_c, 15, 39, 52
18, 264449, Note_on_c, 15, 39, 0
18, 264480, Note_on_c, 15, 34, 52
18, 264719, Note_on_c, 15, 34, 0
18, 270000, Note_on_c, 15, 32, 52
18, 270239, Note_on_c, 15, 32, 0
18, 270240, Note_on_c, 15, 33, 76
18, 270480, Control_c, 15, 11, 112
18, 270580, Control_c, 15, 11, 109
18, 270680, Control_c, 15, 11, 107
18, 270780, Control_c, 15, 11, 104
18, 270880, Control_c, 15, 11, 101
18, 270980, Control_c, 15, 11, 99
18, 271080, Control_c, 15, 11, 96
18, 271180, Control_c, 15, 11, 93
18, 271280, Control_c, 15, 11, 91
18, 271380, Control_c, 15, 11, 88
18, 271480, Control_c, 15, 11, 85
18, 271580, Control_c, 15, 11, 80
18, 271679, Note_on_c, 15, 33, 0
18, 271680, Note_on_c, 15, 34, 76
18, 272159, Note_on_c, 15, 34, 0
18, 272160, Note_on_c, 15, 35, 76
18, 272399, Note_on_c, 15, 35, 0
18, 272400, Note_on_c, 15, 36, 76
18, 272639, Note_on_c, 15, 36, 0
18, 275280, Control_c, 15, 11, 127
18, 275760, Note_on_c, 15, 32, 44
18, 275999, Note_on_c, 15, 32, 0
18, 276000, Note_on_c, 15, 33, 44
18, 277169, Note_on_c, 15, 33, 0
18, 277200, Note_on_c, 15, 33, 44
18, 277439, Note_on_c, 15, 33, 0
18, 277440, Note_on_c, 15, 34, 44
18, 278399, Note_on_c, 15, 34, 0
18, 283440, Note_on_c, 15, 34, 44
18, 283649, Note_on_c, 15, 34, 0
18, 283680, Note_on_c, 15, 34, 44
18, 283889, Note_on_c, 15, 34, 0
18, 283920, Note_on_c, 15, 39, 44
18, 284159, Note_on_c, 15, 39, 0
18, 285120, Note_on_c, 15, 44, 76
18, 285359, Note_on_c, 15, 44, 0
18, 285840, Note_on_c, 15, 43, 76
18, 286079, Note_on_c, 15, 43, 0
18, 286560, Note_on_c, 15, 49, 76
18, 286769, Note_on_c, 15, 49, 0
18, 286800, Note_on_c, 15, 48, 76
18, 287009, Note_on_c, 15, 48, 0
18, 287040, Note_on_c, 15, 44, 76
18, 287279, Note_on_c, 15, 44, 0
18, 288000, Note_on_c, 15, 41, 76
18, 288239, Note_on_c, 15, 41, 0
18, 288720, Note_on_c, 15, 40, 76
18, 288959, Note_on_c, 15, 40, 0
18, 289440, Note_on_c, 15, 46, 76
18, 289559, Note_on_c, 15, 46, 0
18, 289680, Note_on_c, 15, 44, 76
18, 289889, Note_on_c, 15, 44, 0
18, 289920, Note_on_c, 15, 41, 76
18, 290159, Note_on_c, 15, 41, 0
18, 299280, Note_on_c, 15, 43, 52
18, 299519, Note_on_c, 15, 43, 0
18, 299520, Note_on_c, 15, 41, 52
18, 299759, Note_on_c, 15, 41, 0
18, 299760, Note_on_c, 15, 44, 52
18, 299999, Note_on_c, 15, 44, 0
18, 300000, Note_on_c, 15, 41, 52
18, 300239, Note_on_c, 15, 41, 0
18, 300240, Note_on_c, 15, 39, 52
18, 300479, Note_on_c, 15, 39, 0
18, 300480, Note_on_c, 15, 38, 52
18, 300719, Note_on_c, 15, 38, 0
18, 301440, Note_on_c, 15, 44, 52
18, 301679, Note_on_c, 15, 44, 0
18, 301680, Note_on_c, 15, 41, 54
18, 301919, Note_on_c, 15, 41, 0
18, 301920, Note_on_c, 15, 38, 57
18, 302159, Note_on_c, 15, 38, 0
18, 302880, Note_on_c, 15, 44, 68
18, 303119, Note_on_c, 15, 44, 0
18, 303120, Note_on_c, 15, 41, 70
18, 303359, Note_on_c, 15, 41, 0
18, 303360, Note_on_c, 15, 38, 73
18, 303569, Note_on_c, 15, 38, 0
18, 303600, Note_on_c, 15, 46, 76
18, 303839, Note_on_c, 15, 46, 0
18, 303840, Note_on_c, 15, 43, 76
18, 304079, Note_on_c, 15, 43, 0
18, 304080, Note_on_c, 15, 39, 76
18, 304319, Note_on_c, 15, 39, 0
18, 308640, Note_on_c, 15, 39, 52
18, 308849, Note_on_c, 15, 39, 0
18, 308880, Note_on_c, 15, 39, 52
18, 309089, Note_on_c, 15, 39, 0
18, 309120, Note_on_c, 15, 34, 52
18, 309359, Note_on_c, 15, 34, 0
18, 314640, Note_on_c, 15, 32, 52
18, 314879, Note_on_c, 15, 32, 0
18, 314880, Note_on_c, 15, 33, 76
18, 315120, Control_c, 15, 11, 112
18, 315220, Control_c, 15, 11, 109
18, 315320, Control_c, 15, 11, 107
18, 315420, Control_c, 15, 11, 104
18, 315520, Control_c, 15, 11, 101
18, 315620, Control_c, 15, 11, 99
18, 315720, Control_c, 15, 11, 96
18, 315820, Control_c, 15, 11, 93
18, 315920, Control_c, 15, 11, 91
18, 316020, Control_c, 15, 11, 88
18, 316120, Control_c, 15, 11, 85
18, 316220, Control_c, 15, 11, 80
18, 316319, Note_on_c, 15, 33, 0
18, 316320, Note_on_c, 15, 34, 76
18, 316799, Note_on_c, 15, 34, 0
18, 316800, Note_on_c, 15, 35, 76
18, 317039, Note_on_c, 15, 35, 0
18, 317040, Note_on_c, 15, 36, 76
18, 317279, Note_on_c, 15, 36, 0
18, 319920, Control_c, 15, 11, 127
18, 320400, Note_on_c, 15, 32, 44
18, 320639, Note_on_c, 15, 32, 0
18, 320640, Note_on_c, 15, 33, 44
18, 321809, Note_on_c, 15, 33, 0
18, 321840, Note_on_c, 15, 33, 44
18, 322079, Note_on_c, 15, 33, 0
18, 322080, Note_on_c, 15, 34, 44
18, 323039, Note_on_c, 15, 34, 0
18, 325920, Note_on_c, 15, 35, 44
18, 326039, Note_on_c, 15, 35, 0
18, 326160, Note_on_c, 15, 36, 44
18, 326279, Note_on_c, 15, 36, 0
18, 326400, Note_on_c, 15, 35, 44
18, 326519, Note_on_c, 15, 35, 0
18, 326640, Note_on_c, 15, 36, 44
18, 326759, Note_on_c, 15, 36, 0
18, 326880, Note_on_c, 15, 35, 44
18, 326999, Note_on_c, 15, 35, 0
18, 327120, Note_on_c, 15, 36, 44
18, 327239, Note_on_c, 15, 36, 0
18, 327360, Note_on_c, 15, 35, 44
18, 327479, Note_on_c, 15, 35, 0
18, 327600, Note_on_c, 15, 36, 44
18, 327719, Note_on_c, 15, 36, 0
18, 327840, Note_on_c, 15, 35, 44
18, 327959, Note_on_c, 15, 35, 0
18, 328080, Note_on_c, 15, 36, 44
18, 328199, Note_on_c, 15, 36, 0
18, 328320, Note_on_c, 15, 38, 44
18, 328439, Note_on_c, 15, 38, 0
18, 328560, Note_on_c, 15, 39, 44
18, 328679, Note_on_c, 15, 39, 0
18, 338880, Note_on_c, 15, 34, 52
18, 338999, Note_on_c, 15, 34, 0
18, 339120, Note_on_c, 15, 34, 52
18, 339239, Note_on_c, 15, 34, 0
18, 339360, Note_on_c, 15, 34, 52
18, 339479, Note_on_c, 15, 34, 0
18, 339600, Note_on_c, 15, 34, 52
18, 339719, Note_on_c, 15, 34, 0
18, 339840, Note_on_c, 15, 34, 52
18, 339959, Note_on_c, 15, 34, 0
18, 340080, Note_on_c, 15, 34, 52
18, 340199, Note_on_c, 15, 34, 0
18, 340320, Note_on_c, 15, 34, 52
18, 340439, Note_on_c, 15, 34, 0
18, 340560, Note_on_c, 15, 34, 52
18, 340679, Note_on_c, 15, 34, 0
18, 340800, Note_on_c, 15, 34, 52
18, 340919, Note_on_c, 15, 34, 0
18, 341040, Note_on_c, 15, 34, 52
18, 341159, Note_on_c, 15, 34, 0
18, 341280, Note_on_c, 15, 44, 52
18, 341399, Note_on_c, 15, 44, 0
18, 341520, Note_on_c, 15, 43, 52
18, 341639, Note_on_c, 15, 43, 0
18, 341760, Note_on_c, 15, 38, 52
18, 341879, Note_on_c, 15, 38, 0
18, 342000, Note_on_c, 15, 38, 52
18, 342119, Note_on_c, 15, 38, 0
18, 342240, Note_on_c, 15, 39, 52
18, 342359, Note_on_c, 15, 39, 0
18, 342480, Note_on_c, 15, 38, 52
18, 342599, Note_on_c, 15, 38, 0
18, 342720, Note_on_c, 15, 36, 52
18, 342839, Note_on_c, 15, 36, 0
18, 342960, Note_on_c, 15, 34, 52
18, 343079, Note_on_c, 15, 34, 0
18, 343200, Note_on_c, 15, 50, 52
18, 343319, Note_on_c, 15, 50, 0
18, 343440, Note_on_c, 15, 48, 52
18, 343559, Note_on_c, 15, 48, 0
18, 343680, Note_on_c, 15, 46, 52
18, 343799, Note_on_c, 15, 46, 0
18, 343920, Note_on_c, 15, 50, 52
18, 344039, Note_on_c, 15, 50, 0
18, 344160, Note_on_c, 15, 48, 52
18, 344279, Note_on_c, 15, 48, 0
18, 344400, Note_on_c, 15, 46, 52
18, 344519, Note_on_c, 15, 46, 0
18, 344640, Note_on_c, 15, 46, 52
18, 344759, Note_on_c, 15, 46, 0
18, 344880, Note_on_c, 15, 48, 52
18, 344999, Note_on_c, 15, 48, 0
18, 345120, Note_on_c, 15, 50, 52
18, 345239, Note_on_c, 15, 50, 0
18, 345360, Note_on_c, 15, 45, 52
18, 345479, Note_on_c, 15, 45, 0
18, 345600, Note_on_c, 15, 47, 52
18, 345719, Note_on_c, 15, 47, 0
18, 345840, Note_on_c, 15, 48, 52
18, 345959, Note_on_c, 15, 48, 0
18, 346080, Note_on_c, 15, 43, 52
18, 346199, Note_on_c, 15, 43, 0
18, 346320, Note_on_c, 15, 45, 52
18, 346439, Note_on_c, 15, 45, 0
18, 346560, Note_on_c, 15, 46, 52
18, 346679, Note_on_c, 15, 46, 0
18, 346800, Note_on_c, 15, 41, 52
18, 346919, Note_on_c, 15, 41, 0
18, 347040, Note_on_c, 15, 43, 52
18, 347159, Note_on_c, 15, 43, 0
18, 347280, Note_on_c, 15, 39, 52
18, 347399, Note_on_c, 15, 39, 0
18, 347520, Note_on_c, 15, 36, 52
18, 347639, Note_on_c, 15, 36, 0
18, 347760, Note_on_c, 15, 41, 52
18, 347879, Note_on_c, 15, 41, 0
18, 348000, Note_on_c, 15, 34, 52
18, 348119, Note_on_c, 15, 34, 0
18, 348240, Note_on_c, 15, 34, 52
18, 348359, Note_on_c, 15, 34, 0
18, 348480, Note_on_c, 15, 34, 52
18, 348599, Note_on_c, 15, 34, 0
18, 348720, Note_on_c, 15, 34, 52
18, 348839, Note_on_c, 15, 34, 0
18, 348960, Note_on_c, 15, 35, 52
18, 349079, Note_on_c, 15, 35, 0
18, 349200, Note_on_c, 15, 34, 52
18, 349319, Note_on_c, 15, 34, 0
18, 349440, Note_on_c, 15, 35, 52
18, 349559, Note_on_c, 15, 35, 0
18, 349680, Note_on_c, 15, 34, 52
18, 349799, Note_on_c, 15, 34, 0
18, 349920, Note_on_c, 15, 35, 52
18, 350039, Note_on_c, 15, 35, 0
18, 350160, Note_on_c, 15, 34, 52
18, 350279, Note_on_c, 15, 34, 0
18, 350400, Note_on_c, 15, 35, 52
18, 350519, Note_on_c, 15, 35, 0
18, 350640, Note_on_c, 15, 34, 52
18, 350759, Note_on_c, 15, 34, 0
18, 350880, Note_on_c, 15, 35, 52
18, 350999, Note_on_c, 15, 35, 0
18, 351120, Note_on_c, 15, 35, 52
18, 351239, Note_on_c, 15, 35, 0
18, 351360, Note_on_c, 15, 36, 52
18, 351479, Note_on_c, 15, 36, 0
18, 351600, Note_on_c, 15, 36, 52
18, 351719, Note_on_c, 15, 36, 0
18, 351840, Note_on_c, 15, 37, 52
18, 351959, Note_on_c, 15, 37, 0
18, 352080, Note_on_c, 15, 36, 52
18, 352199, Note_on_c, 15, 36, 0
18, 352320, Note_on_c, 15, 37, 52
18, 352439, Note_on_c, 15, 37, 0
18, 352560, Note_on_c, 15, 36, 52
18, 352679, Note_on_c, 15, 36, 0
18, 352800, Note_on_c, 15, 37, 52
18, 352919, Note_on_c, 15, 37, 0
18, 353040, Note_on_c, 15, 36, 52
18, 353159, Note_on_c, 15, 36, 0
18, 353280, Note_on_c, 15, 37, 52
18, 353399, Note_on_c, 15, 37, 0
18, 353520, Note_on_c, 15, 36, 52
18, 353639, Note_on_c, 15, 36, 0
18, 353760, Note_on_c, 15, 37, 52
18, 353879, Note_on_c, 15, 37, 0
18, 354000, Note_on_c, 15, 37, 52
18, 354119, Note_on_c, 15, 37, 0
18, 354240, Note_on_c, 15, 36, 52
18, 354359, Note_on_c, 15, 36, 0
18, 354480, Note_on_c, 15, 36, 52
18, 354599, Note_on_c, 15, 36, 0
18, 354720, Note_on_c, 15, 37, 52
18, 354839, Note_on_c, 15, 37, 0
18, 354960, Note_on_c, 15, 37, 52
18, 355079, Note_on_c, 15, 37, 0
18, 355200, Note_on_c, 15, 37, 52
18, 355319, Note_on_c, 15, 37, 0
18, 355440, Note_on_c, 15, 38, 52
18, 355559, Note_on_c, 15, 38, 0
18, 355680, Note_on_c, 15, 38, 52
18, 355799, Note_on_c, 15, 38, 0
18, 355920, Note_on_c, 15, 38, 52
18, 356039, Note_on_c, 15, 38, 0
18, 356160, Note_on_c, 15, 39, 52
18, 356279, Note_on_c, 15, 39, 0
18, 356400, Note_on_c, 15, 39, 52
18, 356519, Note_on_c, 15, 39, 0
18, 356640, Note_on_c, 15, 39, 52
18, 356759, Note_on_c, 15, 39, 0
18, 356880, Note_on_c, 15, 40, 52
18, 356999, Note_on_c, 15, 40, 0
18, 357120, Note_on_c, 15, 40, 52
18, 357239, Note_on_c, 15, 40, 0
18, 357360, Note_on_c, 15, 41, 52
18, 357599, Note_on_c, 15, 41, 0
18, 358080, Note_on_c, 15, 41, 52
18, 358319, Note_on_c, 15, 41, 0
18, 358800, Note_on_c, 15, 41, 52
18, 359039, Note_on_c, 15, 41, 0
18, 359520, Note_on_c, 15, 41, 52
18, 359759, Note_on_c, 15, 41, 0
18, 360240, Note_on_c, 15, 36, 52
18, 360479, Note_on_c, 15, 36, 0
18, 360960, Note_on_c, 15, 41, 52
18, 361199, Note_on_c, 15, 41, 0
18, 361680, Note_on_c, 15, 36, 52
18, 361919, Note_on_c, 15, 36, 0
18, 362400, Note_on_c, 15, 41, 52
18, 362639, Note_on_c, 15, 41, 0
18, 364560, Note_on_c, 15, 36, 60
18, 365249, Note_on_c, 15, 36, 0
18, 365280, Note_on_c, 15, 41, 52
18, 365399, Note_on_c, 15, 41, 0
18, 365520, Note_on_c, 15, 45, 52
18, 365639, Note_on_c, 15, 45, 0
18, 365760, Note_on_c, 15, 48, 52
18, 365879, Note_on_c, 15, 48, 0
18, 367440, Note_on_c, 15, 38, 60
18, 368129, Note_on_c, 15, 38, 0
18, 368160, Note_on_c, 15, 43, 52
18, 368399, Note_on_c, 15, 43, 0
18, 368400, Note_on_c, 15, 46, 52
18, 368609, Note_on_c, 15, 46, 0
18, 368640, Note_on_c, 15, 43, 52
18, 368759, Note_on_c, 15, 43, 0
18, 368880, Note_on_c, 15, 42, 44
18, 368999, Note_on_c, 15, 42, 0
18, 369120, Note_on_c, 15, 38, 44
18, 369239, Note_on_c, 15, 38, 0
18, 369360, Note_on_c, 15, 48, 44
18, 369479, Note_on_c, 15, 48, 0
18, 369600, Note_on_c, 15, 46, 44
18, 369719, Note_on_c, 15, 46, 0
18, 369840, Note_on_c, 15, 43, 44
18, 369959, Note_on_c, 15, 43, 0
18, 370080, Note_on_c, 15, 39, 44
18, 370199, Note_on_c, 15, 39, 0
18, 370320, Note_on_c, 15, 38, 44
18, 370439, Note_on_c, 15, 38, 0
18, 370560, Note_on_c, 15, 45, 44
18, 370679, Note_on_c, 15, 45, 0
18, 370800, Note_on_c, 15, 42, 44
18, 370919, Note_on_c, 15, 42, 0
18, 371040, Note_on_c, 15, 43, 44
18, 371159, Note_on_c, 15, 43, 0
18, 371280, Note_on_c, 15, 46, 44
18, 371399, Note_on_c, 15, 46, 0
18, 371520, Note_on_c, 15, 51, 44
18, 371639, Note_on_c, 15, 51, 0
18, 371760, Note_on_c, 15, 50, 44
18, 371879, Note_on_c, 15, 50, 0
18, 372000, Note_on_c, 15, 49, 44
18, 372119, Note_on_c, 15, 49, 0
18, 372240, Note_on_c, 15, 50, 44
18, 372359, Note_on_c, 15, 50, 0
18, 372480, Note_on_c, 15, 45, 44
18, 372599, Note_on_c, 15, 45, 0
18, 372720, Note_on_c, 15, 46, 44
18, 372839, Note_on_c, 15, 46, 0
18, 372960, Note_on_c, 15, 42, 44
18, 373079, Note_on_c, 15, 42, 0
18, 373200, Note_on_c, 15, 43, 44
18, 373319, Note_on_c, 15, 43, 0
18, 373440, Note_on_c, 15, 38, 44
18, 373559, Note_on_c, 15, 38, 0
18, 373680, Note_on_c, 15, 39, 44
18, 373799, Note_on_c, 15, 39, 0
18, 373920, Note_on_c, 15, 38, 44
18, 374039, Note_on_c, 15, 38, 0
18, 374160, Note_on_c, 15, 39, 44
18, 374279, Note_on_c, 15, 39, 0
18, 374400, Note_on_c, 15, 37, 44
18, 374519, Note_on_c, 15, 37, 0
18, 374640, Note_on_c, 15, 38, 44
18, 374759, Note_on_c, 15, 38, 0
18, 374880, Note_on_c, 15, 37, 44
18, 374999, Note_on_c, 15, 37, 0
18, 375120, Note_on_c, 15, 38, 44
18, 375239, Note_on_c, 15, 38, 0
18, 375360, Note_on_c, 15, 37, 44
18, 375479, Note_on_c, 15, 37, 0
18, 375600, Note_on_c, 15, 38, 44
18, 375719, Note_on_c, 15, 38, 0
18, 375840, Note_on_c, 15, 37, 44
18, 375959, Note_on_c, 15, 37, 0
18, 376080, Note_on_c, 15, 38, 44
18, 376199, Note_on_c, 15, 38, 0
18, 376320, Note_on_c, 15, 37, 44
18, 376439, Note_on_c, 15, 37, 0
18, 376560, Note_on_c, 15, 38, 44
18, 376679, Note_on_c, 15, 38, 0
18, 376800, Note_on_c, 15, 37, 44
18, 376919, Note_on_c, 15, 37, 0
18, 377040, Note_on_c, 15, 38, 44
18, 377159, Note_on_c, 15, 38, 0
18, 377280, Note_on_c, 15, 37, 44
18, 377399, Note_on_c, 15, 37, 0
18, 377520, Note_on_c, 15, 38, 44
18, 377639, Note_on_c, 15, 38, 0
18, 380400, Note_on_c, 15, 34, 44
18, 380609, Note_on_c, 15, 34, 0
18, 380640, Note_on_c, 15, 34, 44
18, 380849, Note_on_c, 15, 34, 0
18, 380880, Note_on_c, 15, 34, 44
18, 381089, Note_on_c, 15, 34, 0
18, 381120, Note_on_c, 15, 34, 44
18, 381329, Note_on_c, 15, 34, 0
18, 381360, Note_on_c, 15, 34, 44
18, 381569, Note_on_c, 15, 34, 0
18, 381600, Note_on_c, 15, 34, 44
18, 381809, Note_on_c, 15, 34, 0
18, 381840, Note_on_c, 15, 34, 44
18, 382049, Note_on_c, 15, 34, 0
18, 382080, Note_on_c, 15, 34, 44
18, 382289, Note_on_c, 15, 34, 0
18, 382320, Note_on_c, 15, 34, 44
18, 382529, Note_on_c, 15, 34, 0
18, 382560, Note_on_c, 15, 34, 44
18, 382769, Note_on_c, 15, 34, 0
18, 382800, Note_on_c, 15, 34, 44
18, 383009, Note_on_c, 15, 34, 0
18, 383040, Note_on_c, 15, 34, 44
18, 383249, Note_on_c, 15, 34, 0
18, 383280, Note_on_c, 15, 34, 44
18, 383489, Note_on_c, 15, 34, 0
18, 383520, Note_on_c, 15, 34, 44
18, 383729, Note_on_c, 15, 34, 0
18, 383760, Note_on_c, 15, 34, 44
18, 383969, Note_on_c, 15, 34, 0
18, 384000, Note_on_c, 15, 34, 44
18, 384209, Note_on_c, 15, 34, 0
18, 384240, Note_on_c, 15, 34, 44
18, 384449, Note_on_c, 15, 34, 0
18, 384480, Note_on_c, 15, 34, 44
18, 384689, Note_on_c, 15, 34, 0
18, 384720, Note_on_c, 15, 34, 44
18, 384929, Note_on_c, 15, 34, 0
18, 384960, Note_on_c, 15, 34, 44
18, 385169, Note_on_c, 15, 34, 0
18, 385200, Note_on_c, 15, 34, 44
18, 385409, Note_on_c, 15, 34, 0
18, 385440, Note_on_c, 15, 34, 44
18, 385649, Note_on_c, 15, 34, 0
18, 385680, Note_on_c, 15, 34, 44
18, 385889, Note_on_c, 15, 34, 0
18, 385920, Note_on_c, 15, 34, 44
18, 386129, Note_on_c, 15, 34, 0
18, 386160, Note_on_c, 15, 34, 44
18, 386369, Note_on_c, 15, 34, 0
18, 386400, Note_on_c, 15, 34, 44
18, 386609, Note_on_c, 15, 34, 0
18, 386640, Note_on_c, 15, 34, 44
18, 386849, Note_on_c, 15, 34, 0
18, 386880, Note_on_c, 15, 34, 44
18, 387089, Note_on_c, 15, 34, 0
18, 387120, Note_on_c, 15, 34, 44
18, 387329, Note_on_c, 15, 34, 0
18, 387360, Note_on_c, 15, 34, 44
18, 387569, Note_on_c, 15, 34, 0
18, 387600, Note_on_c, 15, 34, 44
18, 387809, Note_on_c, 15, 34, 0
18, 387840, Note_on_c, 15, 34, 44
18, 388049, Note_on_c, 15, 34, 0
18, 388080, Note_on_c, 15, 34, 44
18, 388289, Note_on_c, 15, 34, 0
18, 388320, Note_on_c, 15, 34, 44
18, 388529, Note_on_c, 15, 34, 0
18, 388560, Note_on_c, 15, 34, 44
18, 388769, Note_on_c, 15, 34, 0
18, 388800, Note_on_c, 15, 34, 44
18, 389009, Note_on_c, 15, 34, 0
18, 389040, Note_on_c, 15, 34, 44
18, 389249, Note_on_c, 15, 34, 0
18, 389280, Note_on_c, 15, 50, 44
18, 389489, Note_on_c, 15, 50, 0
18, 389520, Note_on_c, 15, 48, 44
18, 389729, Note_on_c, 15, 48, 0
18, 389760, Note_on_c, 15, 46, 44
18, 389969, Note_on_c, 15, 46, 0
18, 390000, Note_on_c, 15, 50, 44
18, 390209, Note_on_c, 15, 50, 0
18, 390240, Note_on_c, 15, 48, 44
18, 390449, Note_on_c, 15, 48, 0
18, 390480, Note_on_c, 15, 46, 44
18, 390689, Note_on_c, 15, 46, 0
18, 390720, Note_on_c, 15, 46, 44
18, 390929, Note_on_c, 15, 46, 0
18, 390960, Note_on_c, 15, 48, 44
18, 391169, Note_on_c, 15, 48, 0
18, 391200, Note_on_c, 15, 50, 44
18, 391409, Note_on_c, 15, 50, 0
18, 391440, Note_on_c, 15, 45, 44
18, 391649, Note_on_c, 15, 45, 0
18, 391680, Note_on_c, 15, 47, 44
18, 391889, Note_on_c, 15, 47, 0
18, 391920, Note_on_c, 15, 48, 44
18, 392129, Note_on_c, 15, 48, 0
18, 392160, Note_on_c, 15, 43, 44
18, 392369, Note_on_c, 15, 43, 0
18, 392400, Note_on_c, 15, 45, 44
18, 392609, Note_on_c, 15, 45, 0
18, 392640, Note_on_c, 15, 46, 44
18, 392849, Note_on_c, 15, 46, 0
18, 392880, Note_on_c, 15, 41, 44
18, 393089, Note_on_c, 15, 41, 0
18, 393120, Note_on_c, 15, 43, 44
18, 393329, Note_on_c, 15, 43, 0
18, 393360, Note_on_c, 15, 39, 44
18, 393569, Note_on_c, 15, 39, 0
18, 393600, Note_on_c, 15, 36, 44
18, 393809, Note_on_c, 15, 36, 0
18, 393840, Note_on_c, 15, 41, 44
18, 394049, Note_on_c, 15, 41, 0
18, 394080, Note_on_c, 15, 34, 44
18, 394289, Note_on_c, 15, 34, 0
18, 394320, Note_on_c, 15, 36, 57
18, 394529, Note_on_c, 15, 36, 0
18, 394560, Note_on_c, 15, 38, 70
18, 394769, Note_on_c, 15, 38, 0
18, 394800, Note_on_c, 15, 39, 84
18, 395009, Note_on_c, 15, 39, 0
18, 395040, Note_on_c, 15, 43, 84
18, 395249, Note_on_c, 15, 43, 0
18, 395280, Note_on_c, 15, 46, 84
18, 395489, Note_on_c, 15, 46, 0
18, 395520, Note_on_c, 15, 39, 84
18, 395729, Note_on_c, 15, 39, 0
18, 395760, Note_on_c, 15, 43, 84
18, 395969, Note_on_c, 15, 43, 0
18, 396000, Note_on_c, 15, 46, 84
18, 396209, Note_on_c, 15, 46, 0
18, 396240, Note_on_c, 15, 51, 84
18, 396449, Note_on_c, 15, 51, 0
18, 396480, Note_on_c, 15, 51, 84
18, 396689, Note_on_c, 15, 51, 0
18, 396720, Note_on_c, 15, 51, 84
18, 396929, Note_on_c, 15, 51, 0
18, 396960, Note_on_c, 15, 51, 84
18, 397169, Note_on_c, 15, 51, 0
18, 397200, Note_on_c, 15, 51, 84
18, 397409, Note_on_c, 15, 51, 0
18, 397440, Note_on_c, 15, 51, 84
18, 397649, Note_on_c, 15, 51, 0
18, 397680, Note_on_c, 15, 51, 84
18, 397919, Note_on_c, 15, 51, 0
18, 397920, Note_on_c, 15, 53, 84
18, 398039, Note_on_c, 15, 53, 0
18, 398040, Note_on_c, 15, 51, 84
18, 398159, Note_on_c, 15, 51, 0
18, 398160, Note_on_c, 15, 50, 84
18, 398279, Note_on_c, 15, 50, 0
18, 398280, Note_on_c, 15, 48, 84
18, 398369, Note_on_c, 15, 48, 0
18, 398400, Note_on_c, 15, 46, 84
18, 399089, Note_on_c, 15, 46, 0
18, 399120, Note_on_c, 15, 44, 92
18, 399809, Note_on_c, 15, 44, 0
18, 399840, Note_on_c, 15, 43, 84
18, 400079, Note_on_c, 15, 43, 0
18, 400080, Note_on_c, 15, 46, 84
18, 400289, Note_on_c, 15, 46, 0
18, 400320, Note_on_c, 15, 43, 84
18, 400439, Note_on_c, 15, 43, 0
18, 400560, Note_on_c, 15, 41, 84
18, 400799, Note_on_c, 15, 41, 0
18, 400800, Note_on_c, 15, 46, 84
18, 401009, Note_on_c, 15, 46, 0
18, 401040, Note_on_c, 15, 41, 84
18, 401159, Note_on_c, 15, 41, 0
18, 401280, Note_on_c, 15, 39, 84
18, 401399, Note_on_c, 15, 39, 0
18, 401520, Note_on_c, 15, 43, 84
18, 401639, Note_on_c, 15, 43, 0
18, 401760, Note_on_c, 15, 46, 84
18, 401879, Note_on_c, 15, 46, 0
18, 402000, Note_on_c, 15, 44, 92
18, 402689, Note_on_c, 15, 44, 0
18, 402720, Note_on_c, 15, 43, 84
18, 402959, Note_on_c, 15, 43, 0
18, 402960, Note_on_c, 15, 46, 84
18, 403169, Note_on_c, 15, 46, 0
18, 403200, Note_on_c, 15, 43, 84
18, 403319, Note_on_c, 15, 43, 0
18, 403440, Note_on_c, 15, 41, 84
18, 403679, Note_on_c, 15, 41, 0
18, 403680, Note_on_c, 15, 44, 84
18, 403889, Note_on_c, 15, 44, 0
18, 403920, Note_on_c, 15, 41, 84
18, 404039, Note_on_c, 15, 41, 0
18, 404160, Note_on_c, 15, 39, 84
18, 404279, Note_on_c, 15, 39, 0
18, 404400, Note_on_c, 15, 44, 84
18, 404519, Note_on_c, 15, 44, 0
18, 404640, Note_on_c, 15, 39, 84
18, 404759, Note_on_c, 15, 39, 0
18, 404880, Note_on_c, 15, 37, 92
18, 405569, Note_on_c, 15, 37, 0
18, 405600, Note_on_c, 15, 36, 84
18, 405839, Note_on_c, 15, 36, 0
18, 405840, Note_on_c, 15, 39, 84
18, 406049, Note_on_c, 15, 39, 0
18, 406080, Note_on_c, 15, 36, 84
18, 406199, Note_on_c, 15, 36, 0
18, 406320, Note_on_c, 15, 39, 84
18, 406439, Note_on_c, 15, 39, 0
18, 406560, Note_on_c, 15, 34, 84
18, 406679, Note_on_c, 15, 34, 0
18, 406800, Note_on_c, 15, 39, 84
18, 406919, Note_on_c, 15, 39, 0
18, 407040, Note_on_c, 15, 32, 84
18, 407159, Note_on_c, 15, 32, 0
18, 407280, Note_on_c, 15, 44, 84
18, 407399, Note_on_c, 15, 44, 0
18, 407520, Note_on_c, 15, 32, 84
18, 407639, Note_on_c, 15, 32, 0
18, 407760, Note_on_c, 15, 43, 84
18, 407969, Note_on_c, 15, 43, 0
18, 408000, Note_on_c, 15, 31, 84
18, 408209, Note_on_c, 15, 31, 0
18, 408240, Note_on_c, 15, 43, 84
18, 408449, Note_on_c, 15, 43, 0
18, 408480, Note_on_c, 15, 32, 84
18, 408689, Note_on_c, 15, 32, 0
18, 408720, Note_on_c, 15, 41, 84
18, 408929, Note_on_c, 15, 41, 0
18, 408960, Note_on_c, 15, 32, 84
18, 409169, Note_on_c, 15, 32, 0
18, 409200, Note_on_c, 15, 34, 84
18, 409409, Note_on_c, 15, 34, 0
18, 409440, Note_on_c, 15, 43, 84
18, 409649, Note_on_c, 15, 43, 0
18, 409680, Note_on_c, 15, 34, 84
18, 409889, Note_on_c, 15, 34, 0
18, 409920, Note_on_c, 15, 46, 84
18, 410129, Note_on_c, 15, 46, 0
18, 410160, Note_on_c, 15, 34, 84
18, 410369, Note_on_c, 15, 34, 0
18, 410400, Note_on_c, 15, 46, 84
18, 410609, Note_on_c, 15, 46, 0
18, 410640, Note_on_c, 15, 39, 84
18, 410759, Note_on_c, 15, 39, 0
18, 410880, Note_on_c, 15, 55, 92
18, 411329, Note_on_c, 15, 55, 0
18, 411360, Note_on_c, 15, 51, 84
18, 411479, Note_on_c, 15, 51, 0
18, 411600, Note_on_c, 15, 46, 92
18, 412049, Note_on_c, 15, 46, 0
18, 412080, Note_on_c, 15, 43, 84
18, 412199, Note_on_c, 15, 43, 0
18, 412320, Note_on_c, 15, 39, 92
18, 412769, Note_on_c, 15, 39, 0
18, 412800, Note_on_c, 15, 34, 84
18, 413039, Note_on_c, 15, 34, 0
18, 413280, Note_on_c, 15, 32, 84
18, 413339, Note_on_c, 15, 32, 0
18, 413340, Note_on_c, 15, 34, 84
18, 413399, Note_on_c, 15, 34, 0
18, 413400, Note_on_c, 15, 31, 84
18, 413459, Note_on_c, 15, 31, 0
18, 413460, Note_on_c, 15, 32, 84
18, 413519, Note_on_c, 15, 32, 0
18, 413520, Note_on_c, 15, 31, 84
18, 413759, Note_on_c, 15, 31, 0
18, 415200, Note_on_c, 15, 34, 52
18, 415409, Note_on_c, 15, 34, 0
18, 415440, Note_on_c, 15, 34, 52
18, 415649, Note_on_c, 15, 34, 0
18, 415680, Note_on_c, 15, 34, 52
18, 415889, Note_on_c, 15, 34, 0
18, 415920, Note_on_c, 15, 34, 52
18, 416129, Note_on_c, 15, 34, 0
18, 416160, Note_on_c, 15, 34, 52
18, 416369, Note_on_c, 15, 34, 0
18, 416400, Note_on_c, 15, 39, 76
18, 416519, Note_on_c, 15, 39, 0
18, 416640, Note_on_c, 15, 55, 84
18, 416819, Note_on_c, 15, 55, 0
18, 416880, Note_on_c, 15, 51, 84
18, 417059, Note_on_c, 15, 51, 0
18, 417120, Note_on_c, 15, 46, 84
18, 417299, Note_on_c, 15, 46, 0
18, 417360, Note_on_c, 15, 43, 84
18, 417539, Note_on_c, 15, 43, 0
18, 417600, Note_on_c, 15, 39, 84
18, 417779, Note_on_c, 15, 39, 0
18, 417840, Note_on_c, 15, 34, 84
18, 418019, Note_on_c, 15, 34, 0
18, 418080, Note_on_c, 15, 32, 84
18, 418259, Note_on_c, 15, 32, 0
18, 418320, Note_on_c, 15, 31, 84
18, 418499, Note_on_c, 15, 31, 0
18, 428640, Note_on_c, 15, 44, 52
18, 428759, Note_on_c, 15, 44, 0
18, 428880, Note_on_c, 15, 39, 52
18, 428999, Note_on_c, 15, 39, 0
18, 429120, Note_on_c, 15, 44, 52
18, 429239, Note_on_c, 15, 44, 0
18, 429360, Note_on_c, 15, 39, 52
18, 429479, Note_on_c, 15, 39, 0
18, 429600, Note_on_c, 15, 44, 52
18, 429719, Note_on_c, 15, 44, 0
18, 429840, Note_on_c, 15, 39, 52
18, 429959, Note_on_c, 15, 39, 0
18, 435600, Note_on_c, 15, 39, 52
18, 435719, Note_on_c, 15, 39, 0
18, 435840, Note_on_c, 15, 43, 52
18, 435959, Note_on_c, 15, 43, 0
18, 436080, Note_on_c, 15, 38, 52
18, 436199, Note_on_c, 15, 38, 0
18, 436320, Note_on_c, 15, 39, 52
18, 436439, Note_on_c, 15, 39, 0
18, 436560, Note_on_c, 15, 35, 52
18, 436679, Note_on_c, 15, 35, 0
18, 436800, Note_on_c, 15, 36, 52
18, 436919, Note_on_c, 15, 36, 0
18, 437040, Note_on_c, 15, 32, 52
18, 437159, Note_on_c, 15, 32, 0
18, 437280, Note_on_c, 15, 44, 52
18, 437399, Note_on_c, 15, 44, 0
18, 437520, Note_on_c, 15, 40, 52
18, 437639, Note_on_c, 15, 40, 0
18, 437760, Note_on_c, 15, 41, 52
18, 437879, Note_on_c, 15, 41, 0
18, 438000, Note_on_c, 15, 37, 52
18, 438119, Note_on_c, 15, 37, 0
18, 438240, Note_on_c, 15, 38, 52
18, 438359, Note_on_c, 15, 38, 0
18, 438480, Note_on_c, 15, 34, 52
18, 438599, Note_on_c, 15, 34, 0
18, 438720, Note_on_c, 15, 46, 52
18, 438839, Note_on_c, 15, 46, 0
18, 438960, Note_on_c, 15, 42, 54
18, 439079, Note_on_c, 15, 42, 0
18, 439200, Note_on_c, 15, 43, 57
18, 439319, Note_on_c, 15, 43, 0
18, 439440, Note_on_c, 15, 38, 60
18, 439559, Note_on_c, 15, 38, 0
18, 439680, Note_on_c, 15, 39, 63
18, 439799, Note_on_c, 15, 39, 0
18, 439920, Note_on_c, 15, 36, 66
18, 440039, Note_on_c, 15, 36, 0
18, 440160, Note_on_c, 15, 31, 69
18, 440279, Note_on_c, 15, 31, 0
18, 440400, Note_on_c, 15, 32, 72
18, 440519, Note_on_c, 15, 32, 0
18, 440640, Note_on_c, 15, 29, 75
18, 440759, Note_on_c, 15, 29, 0
18, 440880, Note_on_c, 15, 37, 78
18, 440999, Note_on_c, 15, 37, 0
18, 441120, Note_on_c, 15, 38, 81
18, 441239, Note_on_c, 15, 38, 0
18, 441360, Note_on_c, 15, 34, 84
18, 441569, Note_on_c, 15, 34, 0
18, 441600, Note_on_c, 15, 41, 84
18, 441809, Note_on_c, 15, 41, 0
18, 441840, Note_on_c, 15, 38, 84
18, 442049, Note_on_c, 15, 38, 0
18, 442080, Note_on_c, 15, 34, 84
18, 442289, Note_on_c, 15, 34, 0
18, 442320, Note_on_c, 15, 50, 84
18, 442529, Note_on_c, 15, 50, 0
18, 442560, Note_on_c, 15, 46, 84
18, 442769, Note_on_c, 15, 46, 0
18, 442800, Note_on_c, 15, 34, 84
18, 443009, Note_on_c, 15, 34, 0
18, 443040, Note_on_c, 15, 53, 84
18, 443249, Note_on_c, 15, 53, 0
18, 443280, Note_on_c, 15, 50, 84
18, 443489, Note_on_c, 15, 50, 0
18, 443520, Note_on_c, 15, 46, 84
18, 443729, Note_on_c, 15, 46, 0
18, 443760, Note_on_c, 15, 48, 84
18, 443969, Note_on_c, 15, 48, 0
18, 444000, Note_on_c, 15, 50, 84
18, 444209, Note_on_c, 15, 50, 0
18, 444240, Note_on_c, 15, 51, 76
18, 444479, Note_on_c, 15, 51, 0
18, 444960, Note_on_c, 15, 34, 76
18, 445199, Note_on_c, 15, 34, 0
18, 454560, Note_on_c, 15, 34, 66
18, 454769, Note_on_c, 15, 34, 0
18, 454800, Note_on_c, 15, 39, 68
18, 455009, Note_on_c, 15, 39, 0
18, 455040, Note_on_c, 15, 34, 70
18, 455249, Note_on_c, 15, 34, 0
18, 455280, Note_on_c, 15, 39, 72
18, 455489, Note_on_c, 15, 39, 0
18, 455520, Note_on_c, 15, 34, 74
18, 455729, Note_on_c, 15, 34, 0
18, 455760, Note_on_c, 15, 39, 76
18, 455969, Note_on_c, 15, 39, 0
18, 456000, Note_on_c, 15, 34, 76
18, 456209, Note_on_c, 15, 34, 0
18, 456240, Note_on_c, 15, 39, 76
18, 456449, Note_on_c, 15, 39, 0
18, 456480, Note_on_c, 15, 34, 76
18, 456689, Note_on_c, 15, 34, 0
18, 456720, Note_on_c, 15, 39, 76
18, 456929, Note_on_c, 15, 39, 0
18, 456960, Note_on_c, 15, 34, 76
18, 457169, Note_on_c, 15, 34, 0
18, 457200, Note_on_c, 15, 39, 84
18, 457439, Note_on_c, 15, 39, 0
18, 457920, Note_on_c, 15, 34, 84
18, 458159, Note_on_c, 15, 34, 0
18, 458640, Note_on_c, 15, 39, 84
18, 458879, Note_on_c, 15, 39, 0
18, 458879, End_track
19, 0, Start_track
19, 0, Title_t, "Ludwig van Beethoven - Symphony No. 3, Op.55 (Eroica) - No. 3 Scherzo"
19, 0, MIDI_port, 0
19, 0, End_track
0, 0, End_of_file
