0, 0, Header, 1, 18, 240
1, 0, Start_track
1, 0, Sequencer_specific, 10, 0, 0, 91, 35, 1, 0, 5, 6, 42, 0
1, 0, Title_t, "Ludwig van Beethoven - Symphony No. 4 in B-flat Major, Op.60"
1, 0, Instrument_name_t, "Conductor Track"
1, 0, SMPTE_offset, 96, 0, 3, 0, 0
1, 0, MIDI_port, 0
1, 0, Key_signature, -2, "major"
1, 0, Tempo, 200000
1, 0, Time_signature, 1, 2, 24, 8
1, 240, Time_signature, 3, 2, 24, 8
1, 129600, Tempo, 227272
1, 190320, Tempo, 200000
1, 257280, Tempo, 227272
1, 318480, Tempo, 200000
1, 348000, Tempo, 200000
1, 348060, Tempo, 201342
1, 348120, Tempo, 202020
1, 348180, Tempo, 203389
1, 348240, Tempo, 204778
1, 348300, Tempo, 206185
1, 348360, Tempo, 206896
1, 348420, Tempo, 208333
1, 348480, Tempo, 209790
1, 348540, Tempo, 210526
1, 348600, Tempo, 212014
1, 348660, Tempo, 213523
1, 348720, Tempo, 215053
1, 348780, Tempo, 215827
1, 348840, Tempo, 217391
1, 348900, Tempo, 218978
1, 348960, Tempo, 220588
1, 349020, Tempo, 221402
1, 349080, Tempo, 223048
1, 349140, Tempo, 224719
1, 349200, Tempo, 225563
1, 349260, Tempo, 227272
1, 349320, Tempo, 229007
1, 349380, Tempo, 230769
1, 349440, Tempo, 231660
1, 349500, Tempo, 233463
1, 349560, Tempo, 235294
1, 349620, Tempo, 236220
1, 349680, Tempo, 238095
1, 349740, Tempo, 240000
1, 349800, Tempo, 241935
1, 349860, Tempo, 242914
1, 349920, Tempo, 244897
1, 349980, Tempo, 246913
1, 350040, Tempo, 248962
1, 350100, Tempo, 250000
1, 350160, Tempo, 252100
1, 350400, Tempo, 2000000
1, 351120, Tempo, 375000
1, 351120, End_track
2, 0, Start_track
2, 0, Title_t, "3rd Movement - Allegro vivace"
2, 0, MIDI_port, 0
2, 0, End_track
3, 0, Start_track
3, 0, Title_t, "Sequenced by D. L. Viens 2 Jun 2000"
3, 0, MIDI_port, 0
3, 0, End_track
4, 0, Start_track
4, 0, Title_t, "dlviens@empire.net"
4, 0, MIDI_port, 0
4, 0, End_track
5, 0, Start_track
5, 0, MIDI_port, 0
5, 0, End_track
6, 0, Start_track
6, 0, Title_t, "Flute"
6, 0, MIDI_port, 0
6, 0, Program_c, 0, 73
6, 0, Control_c, 0, 7, 72
6, 0, Control_c, 0, 10, 60
6, 0, Control_c, 0, 11, 96
6, 0, Note_on_c, 0, 77, 84
6, 239, Note_on_c, 0, 77, 0
6, 240, Note_on_c, 0, 82, 84
6, 359, Note_on_c, 0, 82, 0
6, 480, Note_on_c, 0, 82, 84
6, 929, Note_on_c, 0, 82, 0
6, 960, Note_on_c, 0, 82, 84
6, 1409, Note_on_c, 0, 82, 0
6, 1440, Note_on_c, 0, 82, 84
6, 1649, Note_on_c, 0, 82, 0
6, 1680, Note_on_c, 0, 81, 84
6, 2129, Note_on_c, 0, 81, 0
6, 2160, Note_on_c, 0, 81, 84
6, 2369, Note_on_c, 0, 81, 0
6, 2400, Note_on_c, 0, 81, 84
6, 2639, Note_on_c, 0, 81, 0
6, 10520, Control_c, 0, 11, 101
6, 10560, Note_on_c, 0, 84, 76
6, 10587, Control_c, 0, 11, 103
6, 10653, Control_c, 0, 11, 105
6, 10720, Control_c, 0, 11, 106
6, 10787, Control_c, 0, 11, 108
6, 10799, Note_on_c, 0, 84, 0
6, 10800, Note_on_c, 0, 77, 76
6, 10853, Control_c, 0, 11, 110
6, 10919, Note_on_c, 0, 77, 0
6, 10920, Control_c, 0, 11, 112
6, 10987, Control_c, 0, 11, 113
6, 11040, Note_on_c, 0, 86, 76
6, 11053, Control_c, 0, 11, 115
6, 11120, Control_c, 0, 11, 117
6, 11187, Control_c, 0, 11, 118
6, 11253, Control_c, 0, 11, 120
6, 11279, Note_on_c, 0, 86, 0
6, 11280, Note_on_c, 0, 82, 76
6, 11320, Control_c, 0, 11, 122
6, 11387, Control_c, 0, 11, 124
6, 11399, Note_on_c, 0, 82, 0
6, 11453, Control_c, 0, 11, 125
6, 11520, Control_c, 0, 11, 127
6, 11520, Note_on_c, 0, 88, 76
6, 11699, Note_on_c, 0, 88, 0
6, 11760, Note_on_c, 0, 89, 84
6, 12449, Note_on_c, 0, 89, 0
6, 12480, Note_on_c, 0, 89, 84
6, 13169, Note_on_c, 0, 89, 0
6, 13200, Note_on_c, 0, 89, 84
6, 13409, Note_on_c, 0, 89, 0
6, 13440, Note_on_c, 0, 89, 84
6, 13649, Note_on_c, 0, 89, 0
6, 13680, Note_on_c, 0, 89, 84
6, 13889, Note_on_c, 0, 89, 0
6, 13920, Note_on_c, 0, 89, 84
6, 14159, Note_on_c, 0, 89, 0
6, 14400, Note_on_c, 0, 77, 84
6, 14639, Note_on_c, 0, 77, 0
6, 14640, Note_on_c, 0, 82, 84
6, 14759, Note_on_c, 0, 82, 0
6, 14880, Note_on_c, 0, 82, 84
6, 15329, Note_on_c, 0, 82, 0
6, 15360, Note_on_c, 0, 82, 84
6, 15809, Note_on_c, 0, 82, 0
6, 15840, Note_on_c, 0, 82, 84
6, 16049, Note_on_c, 0, 82, 0
6, 16080, Note_on_c, 0, 81, 84
6, 16529, Note_on_c, 0, 81, 0
6, 16560, Note_on_c, 0, 81, 84
6, 16769, Note_on_c, 0, 81, 0
6, 16800, Note_on_c, 0, 81, 84
6, 17039, Note_on_c, 0, 81, 0
6, 24920, Control_c, 0, 11, 101
6, 24960, Note_on_c, 0, 84, 76
6, 24987, Control_c, 0, 11, 103
6, 25053, Control_c, 0, 11, 105
6, 25120, Control_c, 0, 11, 106
6, 25187, Control_c, 0, 11, 108
6, 25199, Note_on_c, 0, 84, 0
6, 25200, Note_on_c, 0, 77, 76
6, 25253, Control_c, 0, 11, 110
6, 25319, Note_on_c, 0, 77, 0
6, 25320, Control_c, 0, 11, 112
6, 25387, Control_c, 0, 11, 113
6, 25440, Note_on_c, 0, 86, 76
6, 25453, Control_c, 0, 11, 115
6, 25520, Control_c, 0, 11, 117
6, 25587, Control_c, 0, 11, 118
6, 25653, Control_c, 0, 11, 120
6, 25679, Note_on_c, 0, 86, 0
6, 25680, Note_on_c, 0, 82, 76
6, 25720, Control_c, 0, 11, 122
6, 25787, Control_c, 0, 11, 124
6, 25799, Note_on_c, 0, 82, 0
6, 25853, Control_c, 0, 11, 125
6, 25920, Note_on_c, 0, 88, 76
6, 25920, Control_c, 0, 11, 127
6, 26099, Note_on_c, 0, 88, 0
6, 26160, Note_on_c, 0, 89, 84
6, 26849, Note_on_c, 0, 89, 0
6, 26880, Note_on_c, 0, 89, 84
6, 27569, Note_on_c, 0, 89, 0
6, 27600, Note_on_c, 0, 89, 84
6, 27809, Note_on_c, 0, 89, 0
6, 27840, Note_on_c, 0, 89, 84
6, 28049, Note_on_c, 0, 89, 0
6, 28080, Note_on_c, 0, 89, 84
6, 28289, Note_on_c, 0, 89, 0
6, 28320, Note_on_c, 0, 89, 84
6, 28559, Note_on_c, 0, 89, 0
6, 28800, Note_on_c, 0, 68, 52
6, 29039, Note_on_c, 0, 68, 0
6, 29040, Note_on_c, 0, 73, 52
6, 29159, Note_on_c, 0, 73, 0
6, 29280, Note_on_c, 0, 68, 52
6, 29519, Note_on_c, 0, 68, 0
6, 29520, Note_on_c, 0, 77, 52
6, 29639, Note_on_c, 0, 77, 0
6, 29760, Note_on_c, 0, 73, 52
6, 29999, Note_on_c, 0, 73, 0
6, 30000, Note_on_c, 0, 80, 52
6, 30119, Note_on_c, 0, 80, 0
6, 30240, Note_on_c, 0, 77, 52
6, 30479, Note_on_c, 0, 77, 0
6, 30480, Note_on_c, 0, 80, 52
6, 30719, Note_on_c, 0, 80, 0
6, 30720, Note_on_c, 0, 78, 52
6, 30839, Note_on_c, 0, 78, 0
6, 30960, Note_on_c, 0, 75, 52
6, 31199, Note_on_c, 0, 75, 0
6, 31200, Note_on_c, 0, 72, 52
6, 31319, Note_on_c, 0, 72, 0
6, 32880, Note_on_c, 0, 78, 52
6, 33119, Note_on_c, 0, 78, 0
6, 33120, Note_on_c, 0, 75, 52
6, 33359, Note_on_c, 0, 75, 0
6, 33360, Note_on_c, 0, 82, 52
6, 33599, Note_on_c, 0, 82, 0
6, 33600, Note_on_c, 0, 80, 52
6, 33719, Note_on_c, 0, 80, 0
6, 33840, Note_on_c, 0, 77, 52
6, 34079, Note_on_c, 0, 77, 0
6, 34080, Note_on_c, 0, 73, 52
6, 34199, Note_on_c, 0, 73, 0
6, 35760, Note_on_c, 0, 80, 52
6, 35999, Note_on_c, 0, 80, 0
6, 36000, Note_on_c, 0, 77, 52
6, 36239, Note_on_c, 0, 77, 0
6, 36240, Note_on_c, 0, 82, 52
6, 36479, Note_on_c, 0, 82, 0
6, 36480, Note_on_c, 0, 80, 52
6, 36599, Note_on_c, 0, 80, 0
6, 36720, Note_on_c, 0, 77, 52
6, 36959, Note_on_c, 0, 77, 0
6, 36960, Note_on_c, 0, 74, 52
6, 37079, Note_on_c, 0, 74, 0
6, 38640, Note_on_c, 0, 80, 52
6, 38879, Note_on_c, 0, 80, 0
6, 38880, Note_on_c, 0, 77, 52
6, 39119, Note_on_c, 0, 77, 0
6, 39120, Note_on_c, 0, 78, 52
6, 39239, Note_on_c, 0, 78, 0
6, 40800, Note_on_c, 0, 84, 52
6, 41039, Note_on_c, 0, 84, 0
6, 41040, Note_on_c, 0, 89, 52
6, 41159, Note_on_c, 0, 89, 0
6, 41280, Note_on_c, 0, 84, 52
6, 41519, Note_on_c, 0, 84, 0
6, 41520, Note_on_c, 0, 89, 52
6, 41639, Note_on_c, 0, 89, 0
6, 41760, Note_on_c, 0, 84, 52
6, 41999, Note_on_c, 0, 84, 0
6, 42000, Note_on_c, 0, 85, 52
6, 42239, Note_on_c, 0, 85, 0
6, 43680, Note_on_c, 0, 79, 52
6, 43919, Note_on_c, 0, 79, 0
6, 43920, Note_on_c, 0, 84, 52
6, 44039, Note_on_c, 0, 84, 0
6, 44160, Note_on_c, 0, 79, 52
6, 44399, Note_on_c, 0, 79, 0
6, 44400, Note_on_c, 0, 84, 52
6, 44519, Note_on_c, 0, 84, 0
6, 44640, Note_on_c, 0, 79, 52
6, 44879, Note_on_c, 0, 79, 0
6, 44880, Note_on_c, 0, 80, 52
6, 45119, Note_on_c, 0, 80, 0
6, 47280, Note_on_c, 0, 81, 52
6, 47519, Note_on_c, 0, 81, 0
6, 47520, Note_on_c, 0, 86, 52
6, 47639, Note_on_c, 0, 86, 0
6, 47760, Note_on_c, 0, 82, 52
6, 47999, Note_on_c, 0, 82, 0
6, 51840, Note_on_c, 0, 81, 76
6, 52079, Note_on_c, 0, 81, 0
6, 52080, Note_on_c, 0, 82, 84
6, 52199, Note_on_c, 0, 82, 0
6, 52320, Note_on_c, 0, 77, 84
6, 52559, Note_on_c, 0, 77, 0
6, 52560, Note_on_c, 0, 86, 84
6, 52679, Note_on_c, 0, 86, 0
6, 52800, Note_on_c, 0, 82, 84
6, 53039, Note_on_c, 0, 82, 0
6, 53040, Note_on_c, 0, 89, 84
6, 53159, Note_on_c, 0, 89, 0
6, 53280, Note_on_c, 0, 86, 84
6, 53489, Note_on_c, 0, 86, 0
6, 53520, Note_on_c, 0, 89, 84
6, 53759, Note_on_c, 0, 89, 0
6, 53760, Note_on_c, 0, 87, 84
6, 53969, Note_on_c, 0, 87, 0
6, 54000, Note_on_c, 0, 84, 84
6, 54179, Note_on_c, 0, 84, 0
6, 54240, Note_on_c, 0, 81, 84
6, 54479, Note_on_c, 0, 81, 0
6, 60480, Note_on_c, 0, 85, 52
6, 60719, Note_on_c, 0, 85, 0
6, 60720, Note_on_c, 0, 82, 52
6, 60959, Note_on_c, 0, 82, 0
6, 60960, Note_on_c, 0, 79, 52
6, 61199, Note_on_c, 0, 79, 0
6, 61200, Note_on_c, 0, 76, 52
6, 61439, Note_on_c, 0, 76, 0
6, 61440, Note_on_c, 0, 73, 52
6, 61679, Note_on_c, 0, 73, 0
6, 61680, Note_on_c, 0, 72, 52
6, 61919, Note_on_c, 0, 72, 0
6, 61920, Note_on_c, 0, 76, 52
6, 62129, Note_on_c, 0, 76, 0
6, 62160, Note_on_c, 0, 77, 52
6, 62399, Note_on_c, 0, 77, 0
6, 62400, Note_on_c, 0, 81, 52
6, 62639, Note_on_c, 0, 81, 0
6, 62640, Note_on_c, 0, 84, 52
6, 62879, Note_on_c, 0, 84, 0
6, 62880, Note_on_c, 0, 87, 52
6, 63119, Note_on_c, 0, 87, 0
6, 63120, Note_on_c, 0, 89, 52
6, 63359, Note_on_c, 0, 89, 0
6, 63360, Note_on_c, 0, 90, 52
6, 63599, Note_on_c, 0, 90, 0
6, 63600, Note_on_c, 0, 89, 52
6, 63839, Note_on_c, 0, 89, 0
6, 63840, Note_on_c, 0, 87, 55
6, 64079, Note_on_c, 0, 87, 0
6, 64080, Note_on_c, 0, 84, 58
6, 64319, Note_on_c, 0, 84, 0
6, 64320, Note_on_c, 0, 81, 61
6, 64559, Note_on_c, 0, 81, 0
6, 64560, Note_on_c, 0, 77, 64
6, 64769, Note_on_c, 0, 77, 0
6, 64800, Note_on_c, 0, 78, 76
6, 65039, Note_on_c, 0, 78, 0
6, 65040, Note_on_c, 0, 77, 52
6, 65279, Note_on_c, 0, 77, 0
6, 65280, Note_on_c, 0, 81, 52
6, 65519, Note_on_c, 0, 81, 0
6, 65520, Note_on_c, 0, 84, 52
6, 65759, Note_on_c, 0, 84, 0
6, 65760, Note_on_c, 0, 87, 52
6, 65999, Note_on_c, 0, 87, 0
6, 66000, Note_on_c, 0, 89, 52
6, 66239, Note_on_c, 0, 89, 0
6, 66240, Note_on_c, 0, 90, 52
6, 66479, Note_on_c, 0, 90, 0
6, 66480, Note_on_c, 0, 89, 52
6, 66719, Note_on_c, 0, 89, 0
6, 66720, Note_on_c, 0, 87, 55
6, 66959, Note_on_c, 0, 87, 0
6, 66960, Note_on_c, 0, 84, 58
6, 67199, Note_on_c, 0, 84, 0
6, 67200, Note_on_c, 0, 81, 61
6, 67439, Note_on_c, 0, 81, 0
6, 67440, Note_on_c, 0, 77, 64
6, 67649, Note_on_c, 0, 77, 0
6, 67680, Note_on_c, 0, 78, 76
6, 67919, Note_on_c, 0, 78, 0
6, 67920, Note_on_c, 0, 77, 68
6, 68129, Note_on_c, 0, 77, 0
6, 68160, Note_on_c, 0, 87, 76
6, 68609, Note_on_c, 0, 87, 0
6, 68640, Note_on_c, 0, 86, 76
6, 69089, Note_on_c, 0, 86, 0
6, 69120, Note_on_c, 0, 91, 76
6, 69329, Note_on_c, 0, 91, 0
6, 69360, Note_on_c, 0, 89, 84
6, 70049, Note_on_c, 0, 89, 0
6, 70080, Note_on_c, 0, 81, 84
6, 70769, Note_on_c, 0, 81, 0
6, 70800, Note_on_c, 0, 82, 84
6, 72209, Note_on_c, 0, 82, 0
6, 72240, Note_on_c, 0, 81, 84
6, 72479, Note_on_c, 0, 81, 0
6, 72480, Note_on_c, 0, 77, 84
6, 72599, Note_on_c, 0, 77, 0
6, 72720, Note_on_c, 0, 84, 84
6, 72959, Note_on_c, 0, 84, 0
6, 72960, Note_on_c, 0, 81, 84
6, 73079, Note_on_c, 0, 81, 0
6, 73200, Note_on_c, 0, 87, 84
6, 73439, Note_on_c, 0, 87, 0
6, 73440, Note_on_c, 0, 84, 84
6, 73559, Note_on_c, 0, 84, 0
6, 73680, Note_on_c, 0, 82, 84
6, 75089, Note_on_c, 0, 82, 0
6, 75120, Note_on_c, 0, 81, 84
6, 75359, Note_on_c, 0, 81, 0
6, 75360, Note_on_c, 0, 77, 84
6, 75479, Note_on_c, 0, 77, 0
6, 75600, Note_on_c, 0, 84, 84
6, 75839, Note_on_c, 0, 84, 0
6, 75840, Note_on_c, 0, 81, 84
6, 75959, Note_on_c, 0, 81, 0
6, 76080, Note_on_c, 0, 87, 84
6, 76319, Note_on_c, 0, 87, 0
6, 76320, Note_on_c, 0, 84, 84
6, 76439, Note_on_c, 0, 84, 0
6, 76560, Note_on_c, 0, 82, 76
6, 77249, Note_on_c, 0, 82, 0
6, 77280, Note_on_c, 0, 86, 76
6, 77969, Note_on_c, 0, 86, 0
6, 78000, Note_on_c, 0, 89, 76
6, 78209, Note_on_c, 0, 89, 0
6, 78240, Note_on_c, 0, 89, 76
6, 78449, Note_on_c, 0, 89, 0
6, 78480, Note_on_c, 0, 89, 76
6, 78689, Note_on_c, 0, 89, 0
6, 78720, Note_on_c, 0, 82, 76
6, 78959, Note_on_c, 0, 82, 0
6, 79200, Note_on_c, 0, 68, 52
6, 79439, Note_on_c, 0, 68, 0
6, 79440, Note_on_c, 0, 73, 52
6, 79559, Note_on_c, 0, 73, 0
6, 79680, Note_on_c, 0, 68, 52
6, 79919, Note_on_c, 0, 68, 0
6, 79920, Note_on_c, 0, 77, 52
6, 80039, Note_on_c, 0, 77, 0
6, 80160, Note_on_c, 0, 73, 52
6, 80399, Note_on_c, 0, 73, 0
6, 80400, Note_on_c, 0, 80, 52
6, 80519, Note_on_c, 0, 80, 0
6, 80640, Note_on_c, 0, 77, 52
6, 80879, Note_on_c, 0, 77, 0
6, 80880, Note_on_c, 0, 80, 52
6, 81119, Note_on_c, 0, 80, 0
6, 81120, Note_on_c, 0, 78, 52
6, 81239, Note_on_c, 0, 78, 0
6, 81360, Note_on_c, 0, 75, 52
6, 81599, Note_on_c, 0, 75, 0
6, 81600, Note_on_c, 0, 72, 52
6, 81719, Note_on_c, 0, 72, 0
6, 83280, Note_on_c, 0, 78, 52
6, 83519, Note_on_c, 0, 78, 0
6, 83520, Note_on_c, 0, 75, 52
6, 83759, Note_on_c, 0, 75, 0
6, 83760, Note_on_c, 0, 82, 52
6, 83999, Note_on_c, 0, 82, 0
6, 84000, Note_on_c, 0, 80, 52
6, 84119, Note_on_c, 0, 80, 0
6, 84240, Note_on_c, 0, 77, 52
6, 84479, Note_on_c, 0, 77, 0
6, 84480, Note_on_c, 0, 73, 52
6, 84599, Note_on_c, 0, 73, 0
6, 86160, Note_on_c, 0, 80, 52
6, 86399, Note_on_c, 0, 80, 0
6, 86400, Note_on_c, 0, 77, 52
6, 86639, Note_on_c, 0, 77, 0
6, 86640, Note_on_c, 0, 82, 52
6, 86879, Note_on_c, 0, 82, 0
6, 86880, Note_on_c, 0, 80, 52
6, 86999, Note_on_c, 0, 80, 0
6, 87120, Note_on_c, 0, 77, 52
6, 87359, Note_on_c, 0, 77, 0
6, 87360, Note_on_c, 0, 74, 52
6, 87479, Note_on_c, 0, 74, 0
6, 89040, Note_on_c, 0, 80, 52
6, 89279, Note_on_c, 0, 80, 0
6, 89280, Note_on_c, 0, 77, 52
6, 89519, Note_on_c, 0, 77, 0
6, 89520, Note_on_c, 0, 78, 52
6, 89639, Note_on_c, 0, 78, 0
6, 91200, Note_on_c, 0, 84, 52
6, 91439, Note_on_c, 0, 84, 0
6, 91440, Note_on_c, 0, 89, 52
6, 91559, Note_on_c, 0, 89, 0
6, 91680, Note_on_c, 0, 84, 52
6, 91919, Note_on_c, 0, 84, 0
6, 91920, Note_on_c, 0, 89, 52
6, 92039, Note_on_c, 0, 89, 0
6, 92160, Note_on_c, 0, 84, 52
6, 92399, Note_on_c, 0, 84, 0
6, 92400, Note_on_c, 0, 85, 52
6, 92639, Note_on_c, 0, 85, 0
6, 94080, Note_on_c, 0, 79, 52
6, 94319, Note_on_c, 0, 79, 0
6, 94320, Note_on_c, 0, 84, 52
6, 94439, Note_on_c, 0, 84, 0
6, 94560, Note_on_c, 0, 79, 52
6, 94799, Note_on_c, 0, 79, 0
6, 94800, Note_on_c, 0, 84, 52
6, 94919, Note_on_c, 0, 84, 0
6, 95040, Note_on_c, 0, 79, 52
6, 95279, Note_on_c, 0, 79, 0
6, 95280, Note_on_c, 0, 80, 52
6, 95519, Note_on_c, 0, 80, 0
6, 97680, Note_on_c, 0, 81, 52
6, 97919, Note_on_c, 0, 81, 0
6, 97920, Note_on_c, 0, 86, 52
6, 98039, Note_on_c, 0, 86, 0
6, 98160, Note_on_c, 0, 82, 52
6, 98399, Note_on_c, 0, 82, 0
6, 102240, Note_on_c, 0, 81, 76
6, 102479, Note_on_c, 0, 81, 0
6, 102480, Note_on_c, 0, 82, 84
6, 102599, Note_on_c, 0, 82, 0
6, 102720, Note_on_c, 0, 77, 84
6, 102959, Note_on_c, 0, 77, 0
6, 102960, Note_on_c, 0, 86, 84
6, 103079, Note_on_c, 0, 86, 0
6, 103200, Note_on_c, 0, 82, 84
6, 103439, Note_on_c, 0, 82, 0
6, 103440, Note_on_c, 0, 89, 84
6, 103559, Note_on_c, 0, 89, 0
6, 103680, Note_on_c, 0, 86, 84
6, 103889, Note_on_c, 0, 86, 0
6, 103920, Note_on_c, 0, 89, 84
6, 104159, Note_on_c, 0, 89, 0
6, 104160, Note_on_c, 0, 87, 84
6, 104369, Note_on_c, 0, 87, 0
6, 104400, Note_on_c, 0, 84, 84
6, 104579, Note_on_c, 0, 84, 0
6, 104640, Note_on_c, 0, 81, 84
6, 104879, Note_on_c, 0, 81, 0
6, 110880, Note_on_c, 0, 85, 52
6, 111119, Note_on_c, 0, 85, 0
6, 111120, Note_on_c, 0, 82, 52
6, 111359, Note_on_c, 0, 82, 0
6, 111360, Note_on_c, 0, 79, 52
6, 111599, Note_on_c, 0, 79, 0
6, 111600, Note_on_c, 0, 76, 52
6, 111839, Note_on_c, 0, 76, 0
6, 111840, Note_on_c, 0, 73, 52
6, 112079, Note_on_c, 0, 73, 0
6, 112080, Note_on_c, 0, 72, 52
6, 112319, Note_on_c, 0, 72, 0
6, 112320, Note_on_c, 0, 76, 52
6, 112529, Note_on_c, 0, 76, 0
6, 112560, Note_on_c, 0, 77, 52
6, 112799, Note_on_c, 0, 77, 0
6, 112800, Note_on_c, 0, 81, 52
6, 113039, Note_on_c, 0, 81, 0
6, 113040, Note_on_c, 0, 84, 52
6, 113279, Note_on_c, 0, 84, 0
6, 113280, Note_on_c, 0, 87, 52
6, 113519, Note_on_c, 0, 87, 0
6, 113520, Note_on_c, 0, 89, 52
6, 113759, Note_on_c, 0, 89, 0
6, 113760, Note_on_c, 0, 90, 52
6, 113999, Note_on_c, 0, 90, 0
6, 114000, Note_on_c, 0, 89, 52
6, 114239, Note_on_c, 0, 89, 0
6, 114240, Note_on_c, 0, 87, 55
6, 114479, Note_on_c, 0, 87, 0
6, 114480, Note_on_c, 0, 84, 58
6, 114719, Note_on_c, 0, 84, 0
6, 114720, Note_on_c, 0, 81, 61
6, 114959, Note_on_c, 0, 81, 0
6, 114960, Note_on_c, 0, 77, 64
6, 115169, Note_on_c, 0, 77, 0
6, 115200, Note_on_c, 0, 78, 76
6, 115439, Note_on_c, 0, 78, 0
6, 115440, Note_on_c, 0, 77, 52
6, 115679, Note_on_c, 0, 77, 0
6, 115680, Note_on_c, 0, 81, 52
6, 115919, Note_on_c, 0, 81, 0
6, 115920, Note_on_c, 0, 84, 52
6, 116159, Note_on_c, 0, 84, 0
6, 116160, Note_on_c, 0, 87, 52
6, 116399, Note_on_c, 0, 87, 0
6, 116400, Note_on_c, 0, 89, 52
6, 116639, Note_on_c, 0, 89, 0
6, 116640, Note_on_c, 0, 90, 52
6, 116879, Note_on_c, 0, 90, 0
6, 116880, Note_on_c, 0, 89, 52
6, 117119, Note_on_c, 0, 89, 0
6, 117120, Note_on_c, 0, 87, 55
6, 117359, Note_on_c, 0, 87, 0
6, 117360, Note_on_c, 0, 84, 58
6, 117599, Note_on_c, 0, 84, 0
6, 117600, Note_on_c, 0, 81, 61
6, 117839, Note_on_c, 0, 81, 0
6, 117840, Note_on_c, 0, 77, 64
6, 118049, Note_on_c, 0, 77, 0
6, 118080, Note_on_c, 0, 78, 76
6, 118319, Note_on_c, 0, 78, 0
6, 118320, Note_on_c, 0, 77, 68
6, 118529, Note_on_c, 0, 77, 0
6, 118560, Note_on_c, 0, 87, 76
6, 119009, Note_on_c, 0, 87, 0
6, 119040, Note_on_c, 0, 86, 76
6, 119489, Note_on_c, 0, 86, 0
6, 119520, Note_on_c, 0, 91, 76
6, 119729, Note_on_c, 0, 91, 0
6, 119760, Note_on_c, 0, 89, 84
6, 120449, Note_on_c, 0, 89, 0
6, 120480, Note_on_c, 0, 81, 84
6, 121169, Note_on_c, 0, 81, 0
6, 121200, Note_on_c, 0, 82, 84
6, 122609, Note_on_c, 0, 82, 0
6, 122640, Note_on_c, 0, 81, 84
6, 122879, Note_on_c, 0, 81, 0
6, 122880, Note_on_c, 0, 77, 84
6, 122999, Note_on_c, 0, 77, 0
6, 123120, Note_on_c, 0, 84, 84
6, 123359, Note_on_c, 0, 84, 0
6, 123360, Note_on_c, 0, 81, 84
6, 123479, Note_on_c, 0, 81, 0
6, 123600, Note_on_c, 0, 87, 84
6, 123839, Note_on_c, 0, 87, 0
6, 123840, Note_on_c, 0, 84, 84
6, 123959, Note_on_c, 0, 84, 0
6, 124080, Note_on_c, 0, 82, 84
6, 125489, Note_on_c, 0, 82, 0
6, 125520, Note_on_c, 0, 81, 84
6, 125759, Note_on_c, 0, 81, 0
6, 125760, Note_on_c, 0, 77, 84
6, 125879, Note_on_c, 0, 77, 0
6, 126000, Note_on_c, 0, 84, 84
6, 126239, Note_on_c, 0, 84, 0
6, 126240, Note_on_c, 0, 81, 84
6, 126359, Note_on_c, 0, 81, 0
6, 126480, Note_on_c, 0, 87, 84
6, 126719, Note_on_c, 0, 87, 0
6, 126720, Note_on_c, 0, 84, 84
6, 126839, Note_on_c, 0, 84, 0
6, 126960, Note_on_c, 0, 82, 76
6, 127649, Note_on_c, 0, 82, 0
6, 127680, Note_on_c, 0, 86, 76
6, 128369, Note_on_c, 0, 86, 0
6, 128400, Note_on_c, 0, 89, 76
6, 128609, Note_on_c, 0, 89, 0
6, 128640, Note_on_c, 0, 89, 76
6, 128849, Note_on_c, 0, 89, 0
6, 128880, Note_on_c, 0, 89, 76
6, 129089, Note_on_c, 0, 89, 0
6, 129120, Note_on_c, 0, 82, 76
6, 129359, Note_on_c, 0, 82, 0
6, 154080, Note_on_c, 0, 89, 68
6, 154080, Control_c, 0, 11, 127
6, 154140, Control_c, 0, 11, 124
6, 154200, Control_c, 0, 11, 122
6, 154260, Control_c, 0, 11, 119
6, 154320, Control_c, 0, 11, 117
6, 154380, Control_c, 0, 11, 114
6, 154440, Control_c, 0, 11, 112
6, 154500, Control_c, 0, 11, 109
6, 154560, Control_c, 0, 11, 106
6, 154620, Control_c, 0, 11, 104
6, 154680, Control_c, 0, 11, 101
6, 154740, Control_c, 0, 11, 96
6, 154799, Note_on_c, 0, 89, 0
6, 154800, Note_on_c, 0, 87, 68
6, 155039, Note_on_c, 0, 87, 0
6, 155040, Note_on_c, 0, 84, 68
6, 155279, Note_on_c, 0, 84, 0
6, 156480, Control_c, 0, 11, 127
6, 156960, Note_on_c, 0, 89, 68
6, 157020, Control_c, 0, 11, 124
6, 157080, Control_c, 0, 11, 122
6, 157140, Control_c, 0, 11, 119
6, 157200, Control_c, 0, 11, 117
6, 157260, Control_c, 0, 11, 114
6, 157320, Control_c, 0, 11, 112
6, 157380, Control_c, 0, 11, 109
6, 157440, Control_c, 0, 11, 106
6, 157500, Control_c, 0, 11, 104
6, 157560, Control_c, 0, 11, 101
6, 157620, Control_c, 0, 11, 96
6, 157679, Note_on_c, 0, 89, 0
6, 157680, Note_on_c, 0, 87, 68
6, 157919, Note_on_c, 0, 87, 0
6, 157920, Note_on_c, 0, 84, 68
6, 158159, Note_on_c, 0, 84, 0
6, 165120, Control_c, 0, 11, 48
6, 165600, Note_on_c, 0, 82, 84
6, 165839, Note_on_c, 0, 82, 0
6, 165840, Control_c, 0, 11, 48
6, 165840, Note_on_c, 0, 86, 84
6, 165977, Control_c, 0, 11, 49
6, 166113, Control_c, 0, 11, 50
6, 166250, Control_c, 0, 11, 51
6, 166319, Note_on_c, 0, 86, 0
6, 166320, Note_on_c, 0, 82, 84
6, 166387, Control_c, 0, 11, 52
6, 166524, Control_c, 0, 11, 53
6, 166559, Note_on_c, 0, 82, 0
6, 166560, Note_on_c, 0, 84, 84
6, 166660, Control_c, 0, 11, 54
6, 166797, Control_c, 0, 11, 55
6, 166934, Control_c, 0, 11, 56
6, 167039, Note_on_c, 0, 84, 0
6, 167040, Note_on_c, 0, 87, 84
6, 167070, Control_c, 0, 11, 57
6, 167207, Control_c, 0, 11, 58
6, 167279, Note_on_c, 0, 87, 0
6, 167280, Note_on_c, 0, 84, 84
6, 167344, Control_c, 0, 11, 59
6, 167481, Control_c, 0, 11, 60
6, 167519, Note_on_c, 0, 84, 0
6, 167617, Control_c, 0, 11, 61
6, 168437, Control_c, 0, 11, 67
6, 168480, Note_on_c, 0, 84, 84
6, 168574, Control_c, 0, 11, 68
6, 168711, Control_c, 0, 11, 69
6, 168719, Note_on_c, 0, 84, 0
6, 168720, Note_on_c, 0, 87, 84
6, 168848, Control_c, 0, 11, 70
6, 168984, Control_c, 0, 11, 71
6, 169121, Control_c, 0, 11, 72
6, 169199, Note_on_c, 0, 87, 0
6, 169200, Note_on_c, 0, 84, 84
6, 169258, Control_c, 0, 11, 73
6, 169394, Control_c, 0, 11, 74
6, 169439, Note_on_c, 0, 84, 0
6, 169440, Note_on_c, 0, 86, 84
6, 169531, Control_c, 0, 11, 75
6, 169668, Control_c, 0, 11, 76
6, 169805, Control_c, 0, 11, 77
6, 169919, Note_on_c, 0, 86, 0
6, 169920, Note_on_c, 0, 89, 84
6, 169941, Control_c, 0, 11, 78
6, 170078, Control_c, 0, 11, 79
6, 170159, Note_on_c, 0, 89, 0
6, 170160, Note_on_c, 0, 86, 84
6, 170215, Control_c, 0, 11, 80
6, 170351, Control_c, 0, 11, 81
6, 170399, Note_on_c, 0, 86, 0
6, 170488, Control_c, 0, 11, 82
6, 171308, Control_c, 0, 11, 88
6, 171360, Note_on_c, 0, 86, 84
6, 171445, Control_c, 0, 11, 89
6, 171582, Control_c, 0, 11, 90
6, 171599, Note_on_c, 0, 86, 0
6, 171600, Note_on_c, 0, 89, 84
6, 171718, Control_c, 0, 11, 91
6, 171855, Control_c, 0, 11, 92
6, 171992, Control_c, 0, 11, 93
6, 172079, Note_on_c, 0, 89, 0
6, 172080, Note_on_c, 0, 86, 84
6, 172129, Control_c, 0, 11, 94
6, 172265, Control_c, 0, 11, 95
6, 172319, Note_on_c, 0, 86, 0
6, 172320, Note_on_c, 0, 87, 84
6, 172402, Control_c, 0, 11, 96
6, 172539, Control_c, 0, 11, 97
6, 172675, Control_c, 0, 11, 98
6, 172799, Note_on_c, 0, 87, 0
6, 172800, Note_on_c, 0, 89, 84
6, 172812, Control_c, 0, 11, 99
6, 172949, Control_c, 0, 11, 100
6, 173009, Note_on_c, 0, 89, 0
6, 173040, Note_on_c, 0, 91, 84
6, 173086, Control_c, 0, 11, 101
6, 173222, Control_c, 0, 11, 102
6, 173359, Control_c, 0, 11, 103
6, 173496, Control_c, 0, 11, 104
6, 173632, Control_c, 0, 11, 105
6, 173769, Control_c, 0, 11, 106
6, 173906, Control_c, 0, 11, 107
6, 174043, Control_c, 0, 11, 108
6, 174179, Control_c, 0, 11, 109
6, 174209, Note_on_c, 0, 91, 0
6, 174240, Note_on_c, 0, 89, 84
6, 174316, Control_c, 0, 11, 110
6, 174449, Note_on_c, 0, 89, 0
6, 174453, Control_c, 0, 11, 111
6, 174480, Note_on_c, 0, 87, 84
6, 174589, Control_c, 0, 11, 112
6, 174726, Control_c, 0, 11, 113
6, 174863, Control_c, 0, 11, 114
6, 174929, Note_on_c, 0, 87, 0
6, 174960, Note_on_c, 0, 87, 84
6, 174999, Control_c, 0, 11, 115
6, 175136, Control_c, 0, 11, 116
6, 175169, Note_on_c, 0, 87, 0
6, 175200, Note_on_c, 0, 87, 84
6, 175259, Note_on_c, 0, 87, 0
6, 175260, Note_on_c, 0, 89, 84
6, 175273, Control_c, 0, 11, 117
6, 175319, Note_on_c, 0, 89, 0
6, 175320, Note_on_c, 0, 87, 84
6, 175379, Note_on_c, 0, 87, 0
6, 175380, Note_on_c, 0, 89, 84
6, 175410, Control_c, 0, 11, 118
6, 175439, Note_on_c, 0, 89, 0
6, 175440, Note_on_c, 0, 87, 84
6, 175499, Note_on_c, 0, 87, 0
6, 175500, Note_on_c, 0, 89, 84
6, 175546, Control_c, 0, 11, 119
6, 175559, Note_on_c, 0, 89, 0
6, 175560, Note_on_c, 0, 86, 84
6, 175664, Note_on_c, 0, 86, 0
6, 175680, Note_on_c, 0, 87, 84
6, 175683, Control_c, 0, 11, 120
6, 175820, Control_c, 0, 11, 121
6, 175889, Note_on_c, 0, 87, 0
6, 175920, Note_on_c, 0, 86, 84
6, 175956, Control_c, 0, 11, 122
6, 176093, Control_c, 0, 11, 123
6, 176159, Note_on_c, 0, 86, 0
6, 176230, Control_c, 0, 11, 124
6, 176367, Control_c, 0, 11, 125
6, 176503, Control_c, 0, 11, 127
6, 177120, Note_on_c, 0, 86, 84
6, 177239, Note_on_c, 0, 86, 0
6, 177240, Note_on_c, 0, 87, 84
6, 177359, Note_on_c, 0, 87, 0
6, 177360, Note_on_c, 0, 89, 84
6, 177839, Note_on_c, 0, 89, 0
6, 177840, Note_on_c, 0, 86, 84
6, 178079, Note_on_c, 0, 86, 0
6, 178080, Note_on_c, 0, 87, 84
6, 178559, Note_on_c, 0, 87, 0
6, 178560, Note_on_c, 0, 89, 84
6, 178769, Note_on_c, 0, 89, 0
6, 178800, Note_on_c, 0, 91, 92
6, 179969, Note_on_c, 0, 91, 0
6, 180000, Note_on_c, 0, 89, 84
6, 180239, Note_on_c, 0, 89, 0
6, 180240, Note_on_c, 0, 87, 84
6, 180479, Note_on_c, 0, 87, 0
6, 180720, Note_on_c, 0, 87, 84
6, 180929, Note_on_c, 0, 87, 0
6, 180960, Note_on_c, 0, 87, 84
6, 181019, Note_on_c, 0, 87, 0
6, 181020, Note_on_c, 0, 89, 84
6, 181079, Note_on_c, 0, 89, 0
6, 181080, Note_on_c, 0, 87, 84
6, 181139, Note_on_c, 0, 87, 0
6, 181140, Note_on_c, 0, 89, 84
6, 181199, Note_on_c, 0, 89, 0
6, 181200, Note_on_c, 0, 87, 84
6, 181259, Note_on_c, 0, 87, 0
6, 181260, Note_on_c, 0, 89, 84
6, 181319, Note_on_c, 0, 89, 0
6, 181320, Note_on_c, 0, 86, 84
6, 181424, Note_on_c, 0, 86, 0
6, 181440, Note_on_c, 0, 87, 84
6, 181649, Note_on_c, 0, 87, 0
6, 181680, Note_on_c, 0, 86, 84
6, 181919, Note_on_c, 0, 86, 0
6, 182880, Note_on_c, 0, 89, 84
6, 183119, Note_on_c, 0, 89, 0
6, 183120, Note_on_c, 0, 87, 84
6, 183359, Note_on_c, 0, 87, 0
6, 184320, Note_on_c, 0, 89, 84
6, 184559, Note_on_c, 0, 89, 0
6, 184560, Note_on_c, 0, 86, 84
6, 184799, Note_on_c, 0, 86, 0
6, 185760, Note_on_c, 0, 89, 72
6, 185999, Note_on_c, 0, 89, 0
6, 186000, Note_on_c, 0, 87, 68
6, 186239, Note_on_c, 0, 87, 0
6, 187200, Note_on_c, 0, 89, 48
6, 187439, Note_on_c, 0, 89, 0
6, 187440, Note_on_c, 0, 86, 44
6, 187679, Note_on_c, 0, 86, 0
6, 188160, Note_on_c, 0, 86, 44
6, 188399, Note_on_c, 0, 86, 0
6, 188880, Note_on_c, 0, 86, 44
6, 189119, Note_on_c, 0, 86, 0
6, 189600, Note_on_c, 0, 86, 44
6, 189839, Note_on_c, 0, 86, 0
6, 190320, Note_on_c, 0, 86, 44
6, 190559, Note_on_c, 0, 86, 0
6, 192960, Note_on_c, 0, 81, 76
6, 193199, Note_on_c, 0, 81, 0
6, 193200, Note_on_c, 0, 82, 84
6, 193319, Note_on_c, 0, 82, 0
6, 193440, Note_on_c, 0, 82, 84
6, 193889, Note_on_c, 0, 82, 0
6, 193920, Note_on_c, 0, 82, 84
6, 194369, Note_on_c, 0, 82, 0
6, 194400, Note_on_c, 0, 82, 84
6, 194609, Note_on_c, 0, 82, 0
6, 194640, Note_on_c, 0, 81, 84
6, 195089, Note_on_c, 0, 81, 0
6, 195120, Note_on_c, 0, 81, 84
6, 195329, Note_on_c, 0, 81, 0
6, 195360, Note_on_c, 0, 81, 84
6, 195599, Note_on_c, 0, 81, 0
6, 203480, Control_c, 0, 11, 101
6, 203520, Note_on_c, 0, 84, 76
6, 203547, Control_c, 0, 11, 103
6, 203613, Control_c, 0, 11, 105
6, 203680, Control_c, 0, 11, 106
6, 203747, Control_c, 0, 11, 108
6, 203759, Note_on_c, 0, 84, 0
6, 203760, Note_on_c, 0, 77, 76
6, 203813, Control_c, 0, 11, 110
6, 203879, Note_on_c, 0, 77, 0
6, 203880, Control_c, 0, 11, 112
6, 203947, Control_c, 0, 11, 113
6, 204000, Note_on_c, 0, 86, 76
6, 204013, Control_c, 0, 11, 115
6, 204080, Control_c, 0, 11, 117
6, 204147, Control_c, 0, 11, 118
6, 204213, Control_c, 0, 11, 120
6, 204239, Note_on_c, 0, 86, 0
6, 204240, Note_on_c, 0, 82, 76
6, 204280, Control_c, 0, 11, 122
6, 204347, Control_c, 0, 11, 124
6, 204359, Note_on_c, 0, 82, 0
6, 204413, Control_c, 0, 11, 125
6, 204480, Control_c, 0, 11, 127
6, 204480, Note_on_c, 0, 88, 76
6, 204659, Note_on_c, 0, 88, 0
6, 204720, Note_on_c, 0, 89, 84
6, 205409, Note_on_c, 0, 89, 0
6, 205440, Note_on_c, 0, 89, 84
6, 206129, Note_on_c, 0, 89, 0
6, 206160, Note_on_c, 0, 89, 84
6, 206369, Note_on_c, 0, 89, 0
6, 206400, Note_on_c, 0, 89, 84
6, 206609, Note_on_c, 0, 89, 0
6, 206640, Note_on_c, 0, 89, 84
6, 206849, Note_on_c, 0, 89, 0
6, 206880, Note_on_c, 0, 89, 84
6, 207119, Note_on_c, 0, 89, 0
6, 207360, Note_on_c, 0, 68, 52
6, 207599, Note_on_c, 0, 68, 0
6, 207600, Note_on_c, 0, 73, 52
6, 207719, Note_on_c, 0, 73, 0
6, 207840, Note_on_c, 0, 68, 52
6, 208079, Note_on_c, 0, 68, 0
6, 208080, Note_on_c, 0, 77, 52
6, 208199, Note_on_c, 0, 77, 0
6, 208320, Note_on_c, 0, 73, 52
6, 208559, Note_on_c, 0, 73, 0
6, 208560, Note_on_c, 0, 80, 52
6, 208679, Note_on_c, 0, 80, 0
6, 208800, Note_on_c, 0, 77, 52
6, 209039, Note_on_c, 0, 77, 0
6, 209040, Note_on_c, 0, 80, 52
6, 209279, Note_on_c, 0, 80, 0
6, 209280, Note_on_c, 0, 78, 52
6, 209399, Note_on_c, 0, 78, 0
6, 209520, Note_on_c, 0, 75, 52
6, 209759, Note_on_c, 0, 75, 0
6, 209760, Note_on_c, 0, 72, 52
6, 209879, Note_on_c, 0, 72, 0
6, 211440, Note_on_c, 0, 78, 52
6, 211679, Note_on_c, 0, 78, 0
6, 211680, Note_on_c, 0, 75, 52
6, 211919, Note_on_c, 0, 75, 0
6, 211920, Note_on_c, 0, 82, 52
6, 212159, Note_on_c, 0, 82, 0
6, 212160, Note_on_c, 0, 80, 52
6, 212279, Note_on_c, 0, 80, 0
6, 212400, Note_on_c, 0, 77, 52
6, 212639, Note_on_c, 0, 77, 0
6, 212640, Note_on_c, 0, 73, 52
6, 212759, Note_on_c, 0, 73, 0
6, 214320, Note_on_c, 0, 80, 52
6, 214559, Note_on_c, 0, 80, 0
6, 214560, Note_on_c, 0, 77, 52
6, 214799, Note_on_c, 0, 77, 0
6, 214800, Note_on_c, 0, 82, 52
6, 215039, Note_on_c, 0, 82, 0
6, 215040, Note_on_c, 0, 80, 52
6, 215159, Note_on_c, 0, 80, 0
6, 215280, Note_on_c, 0, 77, 52
6, 215519, Note_on_c, 0, 77, 0
6, 215520, Note_on_c, 0, 74, 52
6, 215639, Note_on_c, 0, 74, 0
6, 217200, Note_on_c, 0, 80, 52
6, 217439, Note_on_c, 0, 80, 0
6, 217440, Note_on_c, 0, 77, 52
6, 217679, Note_on_c, 0, 77, 0
6, 217680, Note_on_c, 0, 78, 52
6, 217799, Note_on_c, 0, 78, 0
6, 219360, Note_on_c, 0, 84, 52
6, 219599, Note_on_c, 0, 84, 0
6, 219600, Note_on_c, 0, 89, 52
6, 219719, Note_on_c, 0, 89, 0
6, 219840, Note_on_c, 0, 84, 52
6, 220079, Note_on_c, 0, 84, 0
6, 220080, Note_on_c, 0, 89, 52
6, 220199, Note_on_c, 0, 89, 0
6, 220320, Note_on_c, 0, 84, 52
6, 220559, Note_on_c, 0, 84, 0
6, 220560, Note_on_c, 0, 85, 52
6, 220799, Note_on_c, 0, 85, 0
6, 222240, Note_on_c, 0, 79, 52
6, 222479, Note_on_c, 0, 79, 0
6, 222480, Note_on_c, 0, 84, 52
6, 222599, Note_on_c, 0, 84, 0
6, 222720, Note_on_c, 0, 79, 52
6, 222959, Note_on_c, 0, 79, 0
6, 222960, Note_on_c, 0, 84, 52
6, 223079, Note_on_c, 0, 84, 0
6, 223200, Note_on_c, 0, 79, 52
6, 223439, Note_on_c, 0, 79, 0
6, 223440, Note_on_c, 0, 80, 52
6, 223679, Note_on_c, 0, 80, 0
6, 225840, Note_on_c, 0, 81, 52
6, 226079, Note_on_c, 0, 81, 0
6, 226080, Note_on_c, 0, 86, 52
6, 226199, Note_on_c, 0, 86, 0
6, 226320, Note_on_c, 0, 82, 52
6, 226559, Note_on_c, 0, 82, 0
6, 230400, Note_on_c, 0, 81, 76
6, 230639, Note_on_c, 0, 81, 0
6, 230640, Note_on_c, 0, 82, 84
6, 230759, Note_on_c, 0, 82, 0
6, 230880, Note_on_c, 0, 77, 84
6, 231119, Note_on_c, 0, 77, 0
6, 231120, Note_on_c, 0, 86, 84
6, 231239, Note_on_c, 0, 86, 0
6, 231360, Note_on_c, 0, 82, 84
6, 231599, Note_on_c, 0, 82, 0
6, 231600, Note_on_c, 0, 89, 84
6, 231719, Note_on_c, 0, 89, 0
6, 231840, Note_on_c, 0, 86, 84
6, 232049, Note_on_c, 0, 86, 0
6, 232080, Note_on_c, 0, 89, 84
6, 232319, Note_on_c, 0, 89, 0
6, 232320, Note_on_c, 0, 87, 84
6, 232529, Note_on_c, 0, 87, 0
6, 232560, Note_on_c, 0, 84, 84
6, 232739, Note_on_c, 0, 84, 0
6, 232800, Note_on_c, 0, 81, 84
6, 233039, Note_on_c, 0, 81, 0
6, 239040, Note_on_c, 0, 85, 52
6, 239279, Note_on_c, 0, 85, 0
6, 239280, Note_on_c, 0, 82, 52
6, 239519, Note_on_c, 0, 82, 0
6, 239520, Note_on_c, 0, 79, 52
6, 239759, Note_on_c, 0, 79, 0
6, 239760, Note_on_c, 0, 76, 52
6, 239999, Note_on_c, 0, 76, 0
6, 240000, Note_on_c, 0, 73, 52
6, 240239, Note_on_c, 0, 73, 0
6, 240240, Note_on_c, 0, 72, 52
6, 240479, Note_on_c, 0, 72, 0
6, 240480, Note_on_c, 0, 76, 52
6, 240689, Note_on_c, 0, 76, 0
6, 240720, Note_on_c, 0, 77, 52
6, 240959, Note_on_c, 0, 77, 0
6, 240960, Note_on_c, 0, 81, 52
6, 241199, Note_on_c, 0, 81, 0
6, 241200, Note_on_c, 0, 84, 52
6, 241439, Note_on_c, 0, 84, 0
6, 241440, Note_on_c, 0, 87, 52
6, 241679, Note_on_c, 0, 87, 0
6, 241680, Note_on_c, 0, 89, 52
6, 241919, Note_on_c, 0, 89, 0
6, 241920, Note_on_c, 0, 90, 52
6, 242159, Note_on_c, 0, 90, 0
6, 242160, Note_on_c, 0, 89, 52
6, 242399, Note_on_c, 0, 89, 0
6, 242400, Note_on_c, 0, 87, 55
6, 242639, Note_on_c, 0, 87, 0
6, 242640, Note_on_c, 0, 84, 58
6, 242879, Note_on_c, 0, 84, 0
6, 242880, Note_on_c, 0, 81, 61
6, 243119, Note_on_c, 0, 81, 0
6, 243120, Note_on_c, 0, 77, 64
6, 243329, Note_on_c, 0, 77, 0
6, 243360, Note_on_c, 0, 78, 76
6, 243599, Note_on_c, 0, 78, 0
6, 243600, Note_on_c, 0, 77, 52
6, 243839, Note_on_c, 0, 77, 0
6, 243840, Note_on_c, 0, 81, 52
6, 244079, Note_on_c, 0, 81, 0
6, 244080, Note_on_c, 0, 84, 52
6, 244319, Note_on_c, 0, 84, 0
6, 244320, Note_on_c, 0, 87, 52
6, 244559, Note_on_c, 0, 87, 0
6, 244560, Note_on_c, 0, 89, 52
6, 244799, Note_on_c, 0, 89, 0
6, 244800, Note_on_c, 0, 90, 52
6, 245039, Note_on_c, 0, 90, 0
6, 245040, Note_on_c, 0, 89, 52
6, 245279, Note_on_c, 0, 89, 0
6, 245280, Note_on_c, 0, 87, 55
6, 245519, Note_on_c, 0, 87, 0
6, 245520, Note_on_c, 0, 84, 58
6, 245759, Note_on_c, 0, 84, 0
6, 245760, Note_on_c, 0, 81, 61
6, 245999, Note_on_c, 0, 81, 0
6, 246000, Note_on_c, 0, 77, 64
6, 246209, Note_on_c, 0, 77, 0
6, 246240, Note_on_c, 0, 78, 76
6, 246479, Note_on_c, 0, 78, 0
6, 246480, Note_on_c, 0, 77, 68
6, 246689, Note_on_c, 0, 77, 0
6, 246720, Note_on_c, 0, 87, 76
6, 247169, Note_on_c, 0, 87, 0
6, 247200, Note_on_c, 0, 86, 76
6, 247649, Note_on_c, 0, 86, 0
6, 247680, Note_on_c, 0, 91, 76
6, 247859, Note_on_c, 0, 91, 0
6, 247920, Note_on_c, 0, 89, 84
6, 248609, Note_on_c, 0, 89, 0
6, 248640, Note_on_c, 0, 81, 84
6, 249329, Note_on_c, 0, 81, 0
6, 249360, Note_on_c, 0, 82, 84
6, 250769, Note_on_c, 0, 82, 0
6, 250800, Note_on_c, 0, 81, 84
6, 251039, Note_on_c, 0, 81, 0
6, 251040, Note_on_c, 0, 77, 84
6, 251159, Note_on_c, 0, 77, 0
6, 251280, Note_on_c, 0, 84, 84
6, 251519, Note_on_c, 0, 84, 0
6, 251520, Note_on_c, 0, 81, 84
6, 251639, Note_on_c, 0, 81, 0
6, 251760, Note_on_c, 0, 87, 84
6, 251999, Note_on_c, 0, 87, 0
6, 252000, Note_on_c, 0, 84, 84
6, 252119, Note_on_c, 0, 84, 0
6, 252240, Note_on_c, 0, 82, 84
6, 253649, Note_on_c, 0, 82, 0
6, 253680, Note_on_c, 0, 81, 84
6, 253919, Note_on_c, 0, 81, 0
6, 253920, Note_on_c, 0, 77, 84
6, 254039, Note_on_c, 0, 77, 0
6, 254160, Note_on_c, 0, 84, 84
6, 254399, Note_on_c, 0, 84, 0
6, 254400, Note_on_c, 0, 81, 84
6, 254519, Note_on_c, 0, 81, 0
6, 254640, Note_on_c, 0, 87, 84
6, 254879, Note_on_c, 0, 87, 0
6, 254880, Note_on_c, 0, 84, 84
6, 254999, Note_on_c, 0, 84, 0
6, 255120, Note_on_c, 0, 82, 76
6, 255809, Note_on_c, 0, 82, 0
6, 255840, Note_on_c, 0, 86, 76
6, 256529, Note_on_c, 0, 86, 0
6, 256560, Note_on_c, 0, 89, 76
6, 256769, Note_on_c, 0, 89, 0
6, 256800, Note_on_c, 0, 89, 76
6, 257009, Note_on_c, 0, 89, 0
6, 257040, Note_on_c, 0, 89, 76
6, 257249, Note_on_c, 0, 89, 0
6, 257280, Note_on_c, 0, 82, 76
6, 257519, Note_on_c, 0, 82, 0
6, 282240, Control_c, 0, 11, 127
6, 282240, Note_on_c, 0, 89, 68
6, 282300, Control_c, 0, 11, 124
6, 282360, Control_c, 0, 11, 122
6, 282420, Control_c, 0, 11, 119
6, 282480, Control_c, 0, 11, 117
6, 282540, Control_c, 0, 11, 114
6, 282600, Control_c, 0, 11, 112
6, 282660, Control_c, 0, 11, 109
6, 282720, Control_c, 0, 11, 106
6, 282780, Control_c, 0, 11, 104
6, 282840, Control_c, 0, 11, 101
6, 282900, Control_c, 0, 11, 96
6, 282959, Note_on_c, 0, 89, 0
6, 282960, Note_on_c, 0, 87, 68
6, 283199, Note_on_c, 0, 87, 0
6, 283200, Note_on_c, 0, 84, 68
6, 283439, Note_on_c, 0, 84, 0
6, 284640, Control_c, 0, 11, 127
6, 285120, Note_on_c, 0, 89, 68
6, 285180, Control_c, 0, 11, 124
6, 285240, Control_c, 0, 11, 122
6, 285300, Control_c, 0, 11, 119
6, 285360, Control_c, 0, 11, 117
6, 285420, Control_c, 0, 11, 114
6, 285480, Control_c, 0, 11, 112
6, 285540, Control_c, 0, 11, 109
6, 285600, Control_c, 0, 11, 106
6, 285660, Control_c, 0, 11, 104
6, 285720, Control_c, 0, 11, 101
6, 285780, Control_c, 0, 11, 96
6, 285839, Note_on_c, 0, 89, 0
6, 285840, Note_on_c, 0, 87, 68
6, 286079, Note_on_c, 0, 87, 0
6, 286080, Note_on_c, 0, 84, 68
6, 286319, Note_on_c, 0, 84, 0
6, 293280, Control_c, 0, 11, 48
6, 293760, Note_on_c, 0, 82, 84
6, 293999, Note_on_c, 0, 82, 0
6, 294000, Note_on_c, 0, 86, 84
6, 294000, Control_c, 0, 11, 48
6, 294137, Control_c, 0, 11, 49
6, 294273, Control_c, 0, 11, 50
6, 294410, Control_c, 0, 11, 51
6, 294479, Note_on_c, 0, 86, 0
6, 294480, Note_on_c, 0, 82, 84
6, 294547, Control_c, 0, 11, 52
6, 294684, Control_c, 0, 11, 53
6, 294719, Note_on_c, 0, 82, 0
6, 294720, Note_on_c, 0, 84, 84
6, 294820, Control_c, 0, 11, 54
6, 294957, Control_c, 0, 11, 55
6, 295094, Control_c, 0, 11, 56
6, 295199, Note_on_c, 0, 84, 0
6, 295200, Note_on_c, 0, 87, 84
6, 295230, Control_c, 0, 11, 57
6, 295367, Control_c, 0, 11, 58
6, 295439, Note_on_c, 0, 87, 0
6, 295440, Note_on_c, 0, 84, 84
6, 295504, Control_c, 0, 11, 59
6, 295641, Control_c, 0, 11, 60
6, 295679, Note_on_c, 0, 84, 0
6, 295777, Control_c, 0, 11, 61
6, 296597, Control_c, 0, 11, 67
6, 296640, Note_on_c, 0, 84, 84
6, 296734, Control_c, 0, 11, 68
6, 296871, Control_c, 0, 11, 69
6, 296879, Note_on_c, 0, 84, 0
6, 296880, Note_on_c, 0, 87, 84
6, 297008, Control_c, 0, 11, 70
6, 297144, Control_c, 0, 11, 71
6, 297281, Control_c, 0, 11, 72
6, 297359, Note_on_c, 0, 87, 0
6, 297360, Note_on_c, 0, 84, 84
6, 297418, Control_c, 0, 11, 73
6, 297554, Control_c, 0, 11, 74
6, 297599, Note_on_c, 0, 84, 0
6, 297600, Note_on_c, 0, 86, 84
6, 297691, Control_c, 0, 11, 75
6, 297828, Control_c, 0, 11, 76
6, 297965, Control_c, 0, 11, 77
6, 298079, Note_on_c, 0, 86, 0
6, 298080, Note_on_c, 0, 89, 84
6, 298101, Control_c, 0, 11, 78
6, 298238, Control_c, 0, 11, 79
6, 298319, Note_on_c, 0, 89, 0
6, 298320, Note_on_c, 0, 86, 84
6, 298375, Control_c, 0, 11, 80
6, 298511, Control_c, 0, 11, 81
6, 298559, Note_on_c, 0, 86, 0
6, 298648, Control_c, 0, 11, 82
6, 299468, Control_c, 0, 11, 88
6, 299520, Note_on_c, 0, 86, 84
6, 299605, Control_c, 0, 11, 89
6, 299742, Control_c, 0, 11, 90
6, 299759, Note_on_c, 0, 86, 0
6, 299760, Note_on_c, 0, 89, 84
6, 299878, Control_c, 0, 11, 91
6, 300015, Control_c, 0, 11, 92
6, 300152, Control_c, 0, 11, 93
6, 300239, Note_on_c, 0, 89, 0
6, 300240, Note_on_c, 0, 86, 84
6, 300289, Control_c, 0, 11, 94
6, 300425, Control_c, 0, 11, 95
6, 300479, Note_on_c, 0, 86, 0
6, 300480, Note_on_c, 0, 87, 84
6, 300562, Control_c, 0, 11, 96
6, 300699, Control_c, 0, 11, 97
6, 300835, Control_c, 0, 11, 98
6, 300959, Note_on_c, 0, 87, 0
6, 300960, Note_on_c, 0, 89, 84
6, 300972, Control_c, 0, 11, 99
6, 301109, Control_c, 0, 11, 100
6, 301169, Note_on_c, 0, 89, 0
6, 301200, Note_on_c, 0, 91, 84
6, 301246, Control_c, 0, 11, 101
6, 301382, Control_c, 0, 11, 102
6, 301519, Control_c, 0, 11, 103
6, 301656, Control_c, 0, 11, 104
6, 301792, Control_c, 0, 11, 105
6, 301929, Control_c, 0, 11, 106
6, 302066, Control_c, 0, 11, 107
6, 302203, Control_c, 0, 11, 108
6, 302339, Control_c, 0, 11, 109
6, 302369, Note_on_c, 0, 91, 0
6, 302400, Note_on_c, 0, 89, 84
6, 302476, Control_c, 0, 11, 110
6, 302579, Note_on_c, 0, 89, 0
6, 302613, Control_c, 0, 11, 111
6, 302640, Note_on_c, 0, 87, 84
6, 302749, Control_c, 0, 11, 112
6, 302886, Control_c, 0, 11, 113
6, 303023, Control_c, 0, 11, 114
6, 303089, Note_on_c, 0, 87, 0
6, 303120, Note_on_c, 0, 87, 84
6, 303159, Control_c, 0, 11, 115
6, 303296, Control_c, 0, 11, 116
6, 303329, Note_on_c, 0, 87, 0
6, 303360, Note_on_c, 0, 87, 84
6, 303419, Note_on_c, 0, 87, 0
6, 303420, Note_on_c, 0, 89, 84
6, 303433, Control_c, 0, 11, 117
6, 303479, Note_on_c, 0, 89, 0
6, 303480, Note_on_c, 0, 87, 84
6, 303539, Note_on_c, 0, 87, 0
6, 303540, Note_on_c, 0, 89, 84
6, 303570, Control_c, 0, 11, 118
6, 303599, Note_on_c, 0, 89, 0
6, 303600, Note_on_c, 0, 87, 84
6, 303659, Note_on_c, 0, 87, 0
6, 303660, Note_on_c, 0, 89, 84
6, 303706, Control_c, 0, 11, 119
6, 303719, Note_on_c, 0, 89, 0
6, 303720, Note_on_c, 0, 86, 84
6, 303824, Note_on_c, 0, 86, 0
6, 303840, Note_on_c, 0, 87, 84
6, 303843, Control_c, 0, 11, 120
6, 303980, Control_c, 0, 11, 121
6, 304049, Note_on_c, 0, 87, 0
6, 304080, Note_on_c, 0, 86, 84
6, 304116, Control_c, 0, 11, 122
6, 304253, Control_c, 0, 11, 123
6, 304319, Note_on_c, 0, 86, 0
6, 304390, Control_c, 0, 11, 124
6, 304527, Control_c, 0, 11, 125
6, 304663, Control_c, 0, 11, 127
6, 305280, Note_on_c, 0, 86, 84
6, 305399, Note_on_c, 0, 86, 0
6, 305400, Note_on_c, 0, 87, 84
6, 305519, Note_on_c, 0, 87, 0
6, 305520, Note_on_c, 0, 89, 84
6, 305999, Note_on_c, 0, 89, 0
6, 306000, Note_on_c, 0, 86, 84
6, 306239, Note_on_c, 0, 86, 0
6, 306240, Note_on_c, 0, 87, 84
6, 306719, Note_on_c, 0, 87, 0
6, 306720, Note_on_c, 0, 89, 84
6, 306929, Note_on_c, 0, 89, 0
6, 306960, Note_on_c, 0, 91, 92
6, 308129, Note_on_c, 0, 91, 0
6, 308160, Note_on_c, 0, 89, 84
6, 308399, Note_on_c, 0, 89, 0
6, 308400, Note_on_c, 0, 87, 84
6, 308639, Note_on_c, 0, 87, 0
6, 308880, Note_on_c, 0, 87, 84
6, 309089, Note_on_c, 0, 87, 0
6, 309120, Note_on_c, 0, 87, 84
6, 309179, Note_on_c, 0, 87, 0
6, 309180, Note_on_c, 0, 89, 84
6, 309239, Note_on_c, 0, 89, 0
6, 309240, Note_on_c, 0, 87, 84
6, 309299, Note_on_c, 0, 87, 0
6, 309300, Note_on_c, 0, 89, 84
6, 309359, Note_on_c, 0, 89, 0
6, 309360, Note_on_c, 0, 87, 84
6, 309419, Note_on_c, 0, 87, 0
6, 309420, Note_on_c, 0, 89, 84
6, 309479, Note_on_c, 0, 89, 0
6, 309480, Note_on_c, 0, 86, 84
6, 309584, Note_on_c, 0, 86, 0
6, 309600, Note_on_c, 0, 87, 84
6, 309809, Note_on_c, 0, 87, 0
6, 309840, Note_on_c, 0, 86, 84
6, 310079, Note_on_c, 0, 86, 0
6, 311040, Note_on_c, 0, 89, 84
6, 311279, Note_on_c, 0, 89, 0
6, 311280, Note_on_c, 0, 87, 84
6, 311519, Note_on_c, 0, 87, 0
6, 312480, Note_on_c, 0, 89, 84
6, 312719, Note_on_c, 0, 89, 0
6, 312720, Note_on_c, 0, 86, 84
6, 312959, Note_on_c, 0, 86, 0
6, 313920, Note_on_c, 0, 89, 72
6, 314159, Note_on_c, 0, 89, 0
6, 314160, Note_on_c, 0, 87, 68
6, 314399, Note_on_c, 0, 87, 0
6, 315360, Note_on_c, 0, 89, 48
6, 315599, Note_on_c, 0, 89, 0
6, 315600, Note_on_c, 0, 86, 44
6, 315839, Note_on_c, 0, 86, 0
6, 316320, Note_on_c, 0, 86, 44
6, 316559, Note_on_c, 0, 86, 0
6, 317040, Note_on_c, 0, 86, 44
6, 317279, Note_on_c, 0, 86, 0
6, 317760, Note_on_c, 0, 86, 44
6, 317999, Note_on_c, 0, 86, 0
6, 318480, Note_on_c, 0, 86, 44
6, 318719, Note_on_c, 0, 86, 0
6, 321120, Note_on_c, 0, 81, 76
6, 321359, Note_on_c, 0, 81, 0
6, 321360, Note_on_c, 0, 82, 84
6, 321479, Note_on_c, 0, 82, 0
6, 321600, Note_on_c, 0, 77, 84
6, 321839, Note_on_c, 0, 77, 0
6, 321840, Note_on_c, 0, 86, 84
6, 321959, Note_on_c, 0, 86, 0
6, 322080, Note_on_c, 0, 82, 84
6, 322319, Note_on_c, 0, 82, 0
6, 322320, Note_on_c, 0, 89, 84
6, 322439, Note_on_c, 0, 89, 0
6, 322560, Note_on_c, 0, 86, 84
6, 322769, Note_on_c, 0, 86, 0
6, 322800, Note_on_c, 0, 89, 84
6, 323039, Note_on_c, 0, 89, 0
6, 323040, Note_on_c, 0, 87, 84
6, 323249, Note_on_c, 0, 87, 0
6, 323280, Note_on_c, 0, 84, 84
6, 323459, Note_on_c, 0, 84, 0
6, 323520, Note_on_c, 0, 81, 84
6, 323759, Note_on_c, 0, 81, 0
6, 329760, Note_on_c, 0, 85, 52
6, 329999, Note_on_c, 0, 85, 0
6, 330000, Note_on_c, 0, 82, 52
6, 330239, Note_on_c, 0, 82, 0
6, 330240, Note_on_c, 0, 79, 52
6, 330479, Note_on_c, 0, 79, 0
6, 330480, Note_on_c, 0, 76, 52
6, 330719, Note_on_c, 0, 76, 0
6, 330720, Note_on_c, 0, 73, 52
6, 330959, Note_on_c, 0, 73, 0
6, 330960, Note_on_c, 0, 72, 52
6, 331169, Note_on_c, 0, 72, 0
6, 331200, Note_on_c, 0, 76, 52
6, 331439, Note_on_c, 0, 76, 0
6, 331440, Note_on_c, 0, 77, 52
6, 331679, Note_on_c, 0, 77, 0
6, 331680, Note_on_c, 0, 81, 52
6, 331919, Note_on_c, 0, 81, 0
6, 331920, Note_on_c, 0, 84, 52
6, 332159, Note_on_c, 0, 84, 0
6, 332160, Note_on_c, 0, 87, 52
6, 332399, Note_on_c, 0, 87, 0
6, 332400, Note_on_c, 0, 89, 52
6, 332639, Note_on_c, 0, 89, 0
6, 332640, Note_on_c, 0, 90, 52
6, 332879, Note_on_c, 0, 90, 0
6, 332880, Note_on_c, 0, 89, 52
6, 333119, Note_on_c, 0, 89, 0
6, 333120, Note_on_c, 0, 87, 56
6, 333359, Note_on_c, 0, 87, 0
6, 333360, Note_on_c, 0, 84, 60
6, 333599, Note_on_c, 0, 84, 0
6, 333600, Note_on_c, 0, 81, 64
6, 333839, Note_on_c, 0, 81, 0
6, 333840, Note_on_c, 0, 77, 68
6, 334049, Note_on_c, 0, 77, 0
6, 334080, Note_on_c, 0, 78, 76
6, 334319, Note_on_c, 0, 78, 0
6, 334320, Note_on_c, 0, 77, 52
6, 334559, Note_on_c, 0, 77, 0
6, 334560, Note_on_c, 0, 81, 52
6, 334799, Note_on_c, 0, 81, 0
6, 334800, Note_on_c, 0, 84, 52
6, 335039, Note_on_c, 0, 84, 0
6, 335040, Note_on_c, 0, 87, 52
6, 335279, Note_on_c, 0, 87, 0
6, 335280, Note_on_c, 0, 89, 52
6, 335519, Note_on_c, 0, 89, 0
6, 335520, Note_on_c, 0, 90, 52
6, 335759, Note_on_c, 0, 90, 0
6, 335760, Note_on_c, 0, 89, 52
6, 335999, Note_on_c, 0, 89, 0
6, 336000, Note_on_c, 0, 87, 56
6, 336239, Note_on_c, 0, 87, 0
6, 336240, Note_on_c, 0, 84, 60
6, 336479, Note_on_c, 0, 84, 0
6, 336480, Note_on_c, 0, 81, 64
6, 336719, Note_on_c, 0, 81, 0
6, 336720, Note_on_c, 0, 77, 68
6, 336929, Note_on_c, 0, 77, 0
6, 336960, Note_on_c, 0, 78, 68
6, 337199, Note_on_c, 0, 78, 0
6, 337200, Note_on_c, 0, 77, 68
6, 337409, Note_on_c, 0, 77, 0
6, 337440, Note_on_c, 0, 87, 76
6, 337889, Note_on_c, 0, 87, 0
6, 337920, Note_on_c, 0, 86, 76
6, 338369, Note_on_c, 0, 86, 0
6, 338400, Note_on_c, 0, 91, 76
6, 338579, Note_on_c, 0, 91, 0
6, 338640, Note_on_c, 0, 89, 84
6, 339329, Note_on_c, 0, 89, 0
6, 339360, Note_on_c, 0, 81, 84
6, 340049, Note_on_c, 0, 81, 0
6, 340080, Note_on_c, 0, 82, 84
6, 341489, Note_on_c, 0, 82, 0
6, 341520, Note_on_c, 0, 81, 84
6, 341759, Note_on_c, 0, 81, 0
6, 341760, Note_on_c, 0, 77, 84
6, 341879, Note_on_c, 0, 77, 0
6, 342000, Note_on_c, 0, 84, 84
6, 342239, Note_on_c, 0, 84, 0
6, 342240, Note_on_c, 0, 81, 84
6, 342359, Note_on_c, 0, 81, 0
6, 342480, Note_on_c, 0, 87, 84
6, 342719, Note_on_c, 0, 87, 0
6, 342720, Note_on_c, 0, 84, 84
6, 342839, Note_on_c, 0, 84, 0
6, 342960, Note_on_c, 0, 82, 84
6, 344369, Note_on_c, 0, 82, 0
6, 344400, Note_on_c, 0, 81, 84
6, 344639, Note_on_c, 0, 81, 0
6, 344640, Note_on_c, 0, 77, 84
6, 344759, Note_on_c, 0, 77, 0
6, 344880, Note_on_c, 0, 84, 84
6, 345119, Note_on_c, 0, 84, 0
6, 345120, Note_on_c, 0, 81, 84
6, 345239, Note_on_c, 0, 81, 0
6, 345360, Note_on_c, 0, 87, 84
6, 345599, Note_on_c, 0, 87, 0
6, 345600, Note_on_c, 0, 84, 84
6, 345719, Note_on_c, 0, 84, 0
6, 345840, Note_on_c, 0, 82, 76
6, 346529, Note_on_c, 0, 82, 0
6, 346560, Note_on_c, 0, 86, 76
6, 347249, Note_on_c, 0, 86, 0
6, 347280, Note_on_c, 0, 89, 76
6, 347489, Note_on_c, 0, 89, 0
6, 347520, Note_on_c, 0, 89, 76
6, 347729, Note_on_c, 0, 89, 0
6, 347760, Note_on_c, 0, 89, 76
6, 347969, Note_on_c, 0, 89, 0
6, 348000, Note_on_c, 0, 82, 76
6, 348239, Note_on_c, 0, 82, 0
6, 350160, Note_on_c, 0, 82, 84
6, 350399, Note_on_c, 0, 82, 0
6, 350399, End_track
7, 0, Start_track
7, 0, Title_t, "Oboe"
7, 0, MIDI_port, 0
7, 0, Program_c, 1, 68
7, 0, Control_c, 1, 7, 80
7, 0, Control_c, 1, 10, 70
7, 0, Control_c, 1, 11, 127
7, 0, Note_on_c, 1, 65, 84
7, 239, Note_on_c, 1, 65, 0
7, 240, Note_on_c, 1, 70, 84
7, 359, Note_on_c, 1, 70, 0
7, 480, Note_on_c, 1, 70, 84
7, 480, Note_on_c, 1, 74, 84
7, 929, Note_on_c, 1, 70, 0
7, 929, Note_on_c, 1, 74, 0
7, 960, Note_on_c, 1, 70, 84
7, 960, Note_on_c, 1, 74, 84
7, 1409, Note_on_c, 1, 70, 0
7, 1409, Note_on_c, 1, 74, 0
7, 1440, Note_on_c, 1, 70, 84
7, 1440, Note_on_c, 1, 74, 84
7, 1649, Note_on_c, 1, 70, 0
7, 1649, Note_on_c, 1, 74, 0
7, 1680, Note_on_c, 1, 72, 84
7, 1680, Note_on_c, 1, 75, 84
7, 2129, Note_on_c, 1, 72, 0
7, 2129, Note_on_c, 1, 75, 0
7, 2160, Note_on_c, 1, 72, 84
7, 2160, Note_on_c, 1, 75, 84
7, 2369, Note_on_c, 1, 72, 0
7, 2369, Note_on_c, 1, 75, 0
7, 2400, Note_on_c, 1, 72, 84
7, 2400, Note_on_c, 1, 75, 84
7, 2639, Note_on_c, 1, 72, 0
7, 2639, Note_on_c, 1, 75, 0
7, 11520, Note_on_c, 1, 76, 76
7, 11520, Note_on_c, 1, 67, 76
7, 11699, Note_on_c, 1, 76, 0
7, 11699, Note_on_c, 1, 67, 0
7, 11760, Note_on_c, 1, 69, 84
7, 11760, Note_on_c, 1, 77, 84
7, 12449, Note_on_c, 1, 69, 0
7, 12449, Note_on_c, 1, 77, 0
7, 12480, Note_on_c, 1, 81, 84
7, 12480, Note_on_c, 1, 77, 84
7, 13169, Note_on_c, 1, 81, 0
7, 13169, Note_on_c, 1, 77, 0
7, 13200, Note_on_c, 1, 81, 84
7, 13200, Note_on_c, 1, 84, 84
7, 13409, Note_on_c, 1, 81, 0
7, 13409, Note_on_c, 1, 84, 0
7, 13440, Note_on_c, 1, 81, 84
7, 13440, Note_on_c, 1, 84, 84
7, 13649, Note_on_c, 1, 81, 0
7, 13649, Note_on_c, 1, 84, 0
7, 13680, Note_on_c, 1, 84, 84
7, 13680, Note_on_c, 1, 81, 84
7, 13889, Note_on_c, 1, 84, 0
7, 13889, Note_on_c, 1, 81, 0
7, 13920, Note_on_c, 1, 69, 84
7, 13920, Note_on_c, 1, 77, 84
7, 14159, Note_on_c, 1, 69, 0
7, 14159, Note_on_c, 1, 77, 0
7, 14400, Note_on_c, 1, 65, 84
7, 14639, Note_on_c, 1, 65, 0
7, 14640, Note_on_c, 1, 70, 84
7, 14759, Note_on_c, 1, 70, 0
7, 14880, Note_on_c, 1, 74, 84
7, 14880, Note_on_c, 1, 70, 84
7, 15329, Note_on_c, 1, 74, 0
7, 15329, Note_on_c, 1, 70, 0
7, 15360, Note_on_c, 1, 74, 84
7, 15360, Note_on_c, 1, 70, 84
7, 15809, Note_on_c, 1, 74, 0
7, 15809, Note_on_c, 1, 70, 0
7, 15840, Note_on_c, 1, 70, 84
7, 15840, Note_on_c, 1, 74, 84
7, 16049, Note_on_c, 1, 70, 0
7, 16049, Note_on_c, 1, 74, 0
7, 16080, Note_on_c, 1, 75, 84
7, 16080, Note_on_c, 1, 72, 84
7, 16529, Note_on_c, 1, 75, 0
7, 16529, Note_on_c, 1, 72, 0
7, 16560, Note_on_c, 1, 75, 84
7, 16560, Note_on_c, 1, 72, 84
7, 16769, Note_on_c, 1, 75, 0
7, 16769, Note_on_c, 1, 72, 0
7, 16800, Note_on_c, 1, 72, 84
7, 16800, Note_on_c, 1, 75, 84
7, 17039, Note_on_c, 1, 72, 0
7, 17039, Note_on_c, 1, 75, 0
7, 25920, Note_on_c, 1, 67, 76
7, 25920, Note_on_c, 1, 76, 76
7, 26099, Note_on_c, 1, 67, 0
7, 26099, Note_on_c, 1, 76, 0
7, 26160, Note_on_c, 1, 77, 84
7, 26160, Note_on_c, 1, 69, 84
7, 26849, Note_on_c, 1, 77, 0
7, 26849, Note_on_c, 1, 69, 0
7, 26880, Note_on_c, 1, 81, 84
7, 26880, Note_on_c, 1, 77, 84
7, 27569, Note_on_c, 1, 81, 0
7, 27569, Note_on_c, 1, 77, 0
7, 27600, Note_on_c, 1, 81, 84
7, 27600, Note_on_c, 1, 84, 84
7, 27809, Note_on_c, 1, 81, 0
7, 27809, Note_on_c, 1, 84, 0
7, 27840, Note_on_c, 1, 81, 84
7, 27840, Note_on_c, 1, 84, 84
7, 28049, Note_on_c, 1, 81, 0
7, 28049, Note_on_c, 1, 84, 0
7, 28080, Note_on_c, 1, 84, 84
7, 28080, Note_on_c, 1, 81, 84
7, 28289, Note_on_c, 1, 84, 0
7, 28289, Note_on_c, 1, 81, 0
7, 28320, Note_on_c, 1, 69, 84
7, 28320, Note_on_c, 1, 77, 84
7, 28559, Note_on_c, 1, 69, 0
7, 28559, Note_on_c, 1, 77, 0
7, 29040, Note_on_c, 1, 77, 52
7, 29040, Note_on_c, 1, 73, 52
7, 29249, Note_on_c, 1, 77, 0
7, 29249, Note_on_c, 1, 73, 0
7, 29280, Note_on_c, 1, 77, 52
7, 29280, Note_on_c, 1, 73, 52
7, 29729, Note_on_c, 1, 77, 0
7, 29729, Note_on_c, 1, 73, 0
7, 29760, Note_on_c, 1, 73, 52
7, 29760, Note_on_c, 1, 77, 52
7, 30209, Note_on_c, 1, 73, 0
7, 30209, Note_on_c, 1, 77, 0
7, 30240, Note_on_c, 1, 73, 52
7, 30240, Note_on_c, 1, 77, 52
7, 30449, Note_on_c, 1, 73, 0
7, 30449, Note_on_c, 1, 77, 0
7, 30480, Note_on_c, 1, 75, 52
7, 30480, Note_on_c, 1, 78, 52
7, 30929, Note_on_c, 1, 75, 0
7, 30929, Note_on_c, 1, 78, 0
7, 30960, Note_on_c, 1, 75, 52
7, 30960, Note_on_c, 1, 78, 52
7, 31169, Note_on_c, 1, 75, 0
7, 31169, Note_on_c, 1, 78, 0
7, 31200, Note_on_c, 1, 75, 52
7, 31200, Note_on_c, 1, 78, 52
7, 31439, Note_on_c, 1, 75, 0
7, 31439, Note_on_c, 1, 78, 0
7, 32880, Note_on_c, 1, 78, 52
7, 32880, Note_on_c, 1, 75, 52
7, 33089, Note_on_c, 1, 78, 0
7, 33089, Note_on_c, 1, 75, 0
7, 33120, Note_on_c, 1, 78, 52
7, 33120, Note_on_c, 1, 80, 52
7, 33329, Note_on_c, 1, 78, 0
7, 33329, Note_on_c, 1, 80, 0
7, 33360, Note_on_c, 1, 77, 52
7, 33360, Note_on_c, 1, 80, 52
7, 33809, Note_on_c, 1, 77, 0
7, 33809, Note_on_c, 1, 80, 0
7, 33840, Note_on_c, 1, 80, 52
7, 33840, Note_on_c, 1, 77, 52
7, 34049, Note_on_c, 1, 80, 0
7, 34049, Note_on_c, 1, 77, 0
7, 34080, Note_on_c, 1, 77, 52
7, 34080, Note_on_c, 1, 80, 52
7, 34289, Note_on_c, 1, 77, 0
7, 34289, Note_on_c, 1, 80, 0
7, 35760, Note_on_c, 1, 80, 52
7, 35760, Note_on_c, 1, 77, 52
7, 35969, Note_on_c, 1, 80, 0
7, 35969, Note_on_c, 1, 77, 0
7, 36000, Note_on_c, 1, 77, 52
7, 36000, Note_on_c, 1, 80, 52
7, 36209, Note_on_c, 1, 77, 0
7, 36209, Note_on_c, 1, 80, 0
7, 36240, Note_on_c, 1, 77, 52
7, 36240, Note_on_c, 1, 80, 52
7, 36689, Note_on_c, 1, 77, 0
7, 36689, Note_on_c, 1, 80, 0
7, 36720, Note_on_c, 1, 80, 52
7, 36720, Note_on_c, 1, 77, 52
7, 36929, Note_on_c, 1, 80, 0
7, 36929, Note_on_c, 1, 77, 0
7, 36960, Note_on_c, 1, 80, 52
7, 36960, Note_on_c, 1, 77, 52
7, 37199, Note_on_c, 1, 80, 0
7, 37199, Note_on_c, 1, 77, 0
7, 38640, Note_on_c, 1, 77, 52
7, 38640, Note_on_c, 1, 80, 52
7, 38849, Note_on_c, 1, 77, 0
7, 38849, Note_on_c, 1, 80, 0
7, 38880, Note_on_c, 1, 77, 52
7, 38880, Note_on_c, 1, 80, 52
7, 39089, Note_on_c, 1, 77, 0
7, 39089, Note_on_c, 1, 80, 0
7, 39120, Note_on_c, 1, 75, 52
7, 39120, Note_on_c, 1, 78, 52
7, 39239, Note_on_c, 1, 75, 0
7, 39239, Note_on_c, 1, 78, 0
7, 45840, Note_on_c, 1, 74, 52
7, 46079, Note_on_c, 1, 74, 0
7, 46080, Note_on_c, 1, 79, 52
7, 46199, Note_on_c, 1, 79, 0
7, 46320, Note_on_c, 1, 75, 52
7, 46320, Note_on_c, 1, 72, 52
7, 46559, Note_on_c, 1, 75, 0
7, 46559, Note_on_c, 1, 72, 0
7, 48720, Note_on_c, 1, 76, 52
7, 48959, Note_on_c, 1, 76, 0
7, 48960, Note_on_c, 1, 81, 52
7, 49079, Note_on_c, 1, 81, 0
7, 49200, Note_on_c, 1, 74, 52
7, 49200, Note_on_c, 1, 77, 52
7, 49439, Note_on_c, 1, 74, 0
7, 49439, Note_on_c, 1, 77, 0
7, 51840, Note_on_c, 1, 72, 76
7, 51840, Note_on_c, 1, 75, 76
7, 52079, Note_on_c, 1, 72, 0
7, 52079, Note_on_c, 1, 75, 0
7, 52080, Note_on_c, 1, 74, 84
7, 52080, Note_on_c, 1, 70, 84
7, 52199, Note_on_c, 1, 74, 0
7, 52199, Note_on_c, 1, 70, 0
7, 52320, Note_on_c, 1, 65, 84
7, 52559, Note_on_c, 1, 65, 0
7, 52560, Note_on_c, 1, 74, 84
7, 52679, Note_on_c, 1, 74, 0
7, 52800, Note_on_c, 1, 70, 84
7, 53039, Note_on_c, 1, 70, 0
7, 53040, Note_on_c, 1, 77, 84
7, 53159, Note_on_c, 1, 77, 0
7, 53280, Note_on_c, 1, 74, 84
7, 53489, Note_on_c, 1, 74, 0
7, 53520, Note_on_c, 1, 77, 84
7, 53759, Note_on_c, 1, 77, 0
7, 53760, Note_on_c, 1, 75, 84
7, 53969, Note_on_c, 1, 75, 0
7, 54000, Note_on_c, 1, 72, 84
7, 54179, Note_on_c, 1, 72, 0
7, 54240, Note_on_c, 1, 69, 84
7, 54479, Note_on_c, 1, 69, 0
7, 64800, Note_on_c, 1, 75, 76
7, 64800, Note_on_c, 1, 72, 76
7, 65040, Control_c, 1, 11, 80
7, 65279, Note_on_c, 1, 75, 0
7, 65279, Note_on_c, 1, 72, 0
7, 67200, Control_c, 1, 11, 127
7, 67680, Note_on_c, 1, 72, 76
7, 67680, Note_on_c, 1, 75, 76
7, 68129, Note_on_c, 1, 72, 0
7, 68129, Note_on_c, 1, 75, 0
7, 68160, Note_on_c, 1, 81, 76
7, 68160, Note_on_c, 1, 75, 76
7, 68609, Note_on_c, 1, 81, 0
7, 68609, Note_on_c, 1, 75, 0
7, 68640, Note_on_c, 1, 74, 76
7, 68640, Note_on_c, 1, 82, 76
7, 69089, Note_on_c, 1, 74, 0
7, 69089, Note_on_c, 1, 82, 0
7, 69120, Note_on_c, 1, 75, 76
7, 69120, Note_on_c, 1, 79, 76
7, 69329, Note_on_c, 1, 75, 0
7, 69329, Note_on_c, 1, 79, 0
7, 69360, Note_on_c, 1, 74, 84
7, 69360, Note_on_c, 1, 77, 84
7, 70049, Note_on_c, 1, 74, 0
7, 70049, Note_on_c, 1, 77, 0
7, 70080, Note_on_c, 1, 72, 84
7, 70080, Note_on_c, 1, 81, 84
7, 70769, Note_on_c, 1, 72, 0
7, 70769, Note_on_c, 1, 81, 0
7, 70800, Note_on_c, 1, 74, 84
7, 70800, Note_on_c, 1, 82, 84
7, 72209, Note_on_c, 1, 74, 0
7, 72209, Note_on_c, 1, 82, 0
7, 72240, Note_on_c, 1, 72, 84
7, 72240, Note_on_c, 1, 81, 84
7, 73649, Note_on_c, 1, 72, 0
7, 73649, Note_on_c, 1, 81, 0
7, 73680, Note_on_c, 1, 82, 84
7, 73680, Note_on_c, 1, 74, 84
7, 75089, Note_on_c, 1, 82, 0
7, 75089, Note_on_c, 1, 74, 0
7, 75120, Note_on_c, 1, 81, 84
7, 75120, Note_on_c, 1, 72, 84
7, 76529, Note_on_c, 1, 81, 0
7, 76529, Note_on_c, 1, 72, 0
7, 76560, Note_on_c, 1, 74, 76
7, 76560, Note_on_c, 1, 82, 76
7, 77249, Note_on_c, 1, 74, 0
7, 77249, Note_on_c, 1, 82, 0
7, 77280, Note_on_c, 1, 74, 76
7, 77280, Note_on_c, 1, 82, 76
7, 77969, Note_on_c, 1, 74, 0
7, 77969, Note_on_c, 1, 82, 0
7, 78000, Note_on_c, 1, 77, 76
7, 78000, Note_on_c, 1, 74, 76
7, 78209, Note_on_c, 1, 77, 0
7, 78209, Note_on_c, 1, 74, 0
7, 78240, Note_on_c, 1, 77, 76
7, 78240, Note_on_c, 1, 74, 76
7, 78449, Note_on_c, 1, 77, 0
7, 78449, Note_on_c, 1, 74, 0
7, 78480, Note_on_c, 1, 77, 76
7, 78480, Note_on_c, 1, 74, 76
7, 78689, Note_on_c, 1, 77, 0
7, 78689, Note_on_c, 1, 74, 0
7, 78720, Note_on_c, 1, 70, 76
7, 78959, Note_on_c, 1, 70, 0
7, 79440, Note_on_c, 1, 77, 52
7, 79440, Note_on_c, 1, 73, 52
7, 79649, Note_on_c, 1, 77, 0
7, 79649, Note_on_c, 1, 73, 0
7, 79680, Note_on_c, 1, 77, 52
7, 79680, Note_on_c, 1, 73, 52
7, 80129, Note_on_c, 1, 77, 0
7, 80129, Note_on_c, 1, 73, 0
7, 80160, Note_on_c, 1, 77, 52
7, 80160, Note_on_c, 1, 73, 52
7, 80609, Note_on_c, 1, 77, 0
7, 80609, Note_on_c, 1, 73, 0
7, 80640, Note_on_c, 1, 73, 52
7, 80640, Note_on_c, 1, 77, 52
7, 80849, Note_on_c, 1, 73, 0
7, 80849, Note_on_c, 1, 77, 0
7, 80880, Note_on_c, 1, 78, 52
7, 80880, Note_on_c, 1, 75, 52
7, 81329, Note_on_c, 1, 78, 0
7, 81329, Note_on_c, 1, 75, 0
7, 81360, Note_on_c, 1, 78, 52
7, 81360, Note_on_c, 1, 75, 52
7, 81569, Note_on_c, 1, 78, 0
7, 81569, Note_on_c, 1, 75, 0
7, 81600, Note_on_c, 1, 75, 52
7, 81600, Note_on_c, 1, 78, 52
7, 81839, Note_on_c, 1, 75, 0
7, 81839, Note_on_c, 1, 78, 0
7, 83280, Note_on_c, 1, 75, 52
7, 83280, Note_on_c, 1, 78, 52
7, 83489, Note_on_c, 1, 75, 0
7, 83489, Note_on_c, 1, 78, 0
7, 83520, Note_on_c, 1, 80, 52
7, 83520, Note_on_c, 1, 78, 52
7, 83729, Note_on_c, 1, 80, 0
7, 83729, Note_on_c, 1, 78, 0
7, 83760, Note_on_c, 1, 77, 52
7, 83760, Note_on_c, 1, 80, 52
7, 84209, Note_on_c, 1, 77, 0
7, 84209, Note_on_c, 1, 80, 0
7, 84240, Note_on_c, 1, 77, 52
7, 84240, Note_on_c, 1, 80, 52
7, 84449, Note_on_c, 1, 77, 0
7, 84449, Note_on_c, 1, 80, 0
7, 84480, Note_on_c, 1, 77, 52
7, 84480, Note_on_c, 1, 80, 52
7, 84689, Note_on_c, 1, 77, 0
7, 84689, Note_on_c, 1, 80, 0
7, 86160, Note_on_c, 1, 80, 52
7, 86160, Note_on_c, 1, 77, 52
7, 86369, Note_on_c, 1, 80, 0
7, 86369, Note_on_c, 1, 77, 0
7, 86400, Note_on_c, 1, 80, 52
7, 86400, Note_on_c, 1, 77, 52
7, 86609, Note_on_c, 1, 80, 0
7, 86609, Note_on_c, 1, 77, 0
7, 86640, Note_on_c, 1, 80, 52
7, 86640, Note_on_c, 1, 77, 52
7, 87089, Note_on_c, 1, 80, 0
7, 87089, Note_on_c, 1, 77, 0
7, 87120, Note_on_c, 1, 80, 52
7, 87120, Note_on_c, 1, 77, 52
7, 87329, Note_on_c, 1, 80, 0
7, 87329, Note_on_c, 1, 77, 0
7, 87360, Note_on_c, 1, 77, 52
7, 87360, Note_on_c, 1, 80, 52
7, 87599, Note_on_c, 1, 77, 0
7, 87599, Note_on_c, 1, 80, 0
7, 89040, Note_on_c, 1, 77, 52
7, 89040, Note_on_c, 1, 80, 52
7, 89249, Note_on_c, 1, 77, 0
7, 89249, Note_on_c, 1, 80, 0
7, 89280, Note_on_c, 1, 80, 52
7, 89280, Note_on_c, 1, 77, 52
7, 89489, Note_on_c, 1, 80, 0
7, 89489, Note_on_c, 1, 77, 0
7, 89520, Note_on_c, 1, 78, 52
7, 89520, Note_on_c, 1, 75, 52
7, 89639, Note_on_c, 1, 78, 0
7, 89639, Note_on_c, 1, 75, 0
7, 96240, Note_on_c, 1, 74, 52
7, 96479, Note_on_c, 1, 74, 0
7, 96480, Note_on_c, 1, 79, 52
7, 96599, Note_on_c, 1, 79, 0
7, 96720, Note_on_c, 1, 72, 52
7, 96720, Note_on_c, 1, 75, 52
7, 96959, Note_on_c, 1, 72, 0
7, 96959, Note_on_c, 1, 75, 0
7, 99120, Note_on_c, 1, 76, 52
7, 99359, Note_on_c, 1, 76, 0
7, 99360, Note_on_c, 1, 81, 52
7, 99479, Note_on_c, 1, 81, 0
7, 99600, Note_on_c, 1, 77, 52
7, 99600, Note_on_c, 1, 74, 52
7, 99839, Note_on_c, 1, 77, 0
7, 99839, Note_on_c, 1, 74, 0
7, 102240, Note_on_c, 1, 72, 76
7, 102240, Note_on_c, 1, 75, 76
7, 102479, Note_on_c, 1, 72, 0
7, 102479, Note_on_c, 1, 75, 0
7, 102480, Note_on_c, 1, 74, 84
7, 102480, Note_on_c, 1, 70, 84
7, 102599, Note_on_c, 1, 74, 0
7, 102599, Note_on_c, 1, 70, 0
7, 102720, Note_on_c, 1, 65, 84
7, 102959, Note_on_c, 1, 65, 0
7, 102960, Note_on_c, 1, 74, 84
7, 103079, Note_on_c, 1, 74, 0
7, 103200, Note_on_c, 1, 70, 84
7, 103439, Note_on_c, 1, 70, 0
7, 103440, Note_on_c, 1, 77, 84
7, 103559, Note_on_c, 1, 77, 0
7, 103680, Note_on_c, 1, 74, 84
7, 103889, Note_on_c, 1, 74, 0
7, 103920, Note_on_c, 1, 77, 84
7, 104159, Note_on_c, 1, 77, 0
7, 104160, Note_on_c, 1, 75, 84
7, 104369, Note_on_c, 1, 75, 0
7, 104400, Note_on_c, 1, 72, 84
7, 104579, Note_on_c, 1, 72, 0
7, 104640, Note_on_c, 1, 69, 84
7, 104879, Note_on_c, 1, 69, 0
7, 115200, Note_on_c, 1, 75, 76
7, 115200, Note_on_c, 1, 72, 76
7, 115440, Control_c, 1, 11, 80
7, 115679, Note_on_c, 1, 75, 0
7, 115679, Note_on_c, 1, 72, 0
7, 117600, Control_c, 1, 11, 127
7, 118080, Note_on_c, 1, 72, 76
7, 118080, Note_on_c, 1, 75, 76
7, 118529, Note_on_c, 1, 72, 0
7, 118529, Note_on_c, 1, 75, 0
7, 118560, Note_on_c, 1, 81, 76
7, 118560, Note_on_c, 1, 75, 76
7, 119009, Note_on_c, 1, 81, 0
7, 119009, Note_on_c, 1, 75, 0
7, 119040, Note_on_c, 1, 82, 76
7, 119040, Note_on_c, 1, 74, 76
7, 119489, Note_on_c, 1, 82, 0
7, 119489, Note_on_c, 1, 74, 0
7, 119520, Note_on_c, 1, 79, 76
7, 119520, Note_on_c, 1, 75, 76
7, 119729, Note_on_c, 1, 79, 0
7, 119729, Note_on_c, 1, 75, 0
7, 119760, Note_on_c, 1, 77, 84
7, 119760, Note_on_c, 1, 74, 84
7, 120449, Note_on_c, 1, 77, 0
7, 120449, Note_on_c, 1, 74, 0
7, 120480, Note_on_c, 1, 81, 84
7, 120480, Note_on_c, 1, 72, 84
7, 121169, Note_on_c, 1, 81, 0
7, 121169, Note_on_c, 1, 72, 0
7, 121200, Note_on_c, 1, 82, 84
7, 121200, Note_on_c, 1, 74, 84
7, 122609, Note_on_c, 1, 82, 0
7, 122609, Note_on_c, 1, 74, 0
7, 122640, Note_on_c, 1, 72, 84
7, 122640, Note_on_c, 1, 81, 84
7, 124049, Note_on_c, 1, 72, 0
7, 124049, Note_on_c, 1, 81, 0
7, 124080, Note_on_c, 1, 82, 84
7, 124080, Note_on_c, 1, 74, 84
7, 125489, Note_on_c, 1, 82, 0
7, 125489, Note_on_c, 1, 74, 0
7, 125520, Note_on_c, 1, 72, 84
7, 125520, Note_on_c, 1, 81, 84
7, 126929, Note_on_c, 1, 72, 0
7, 126929, Note_on_c, 1, 81, 0
7, 126960, Note_on_c, 1, 82, 76
7, 126960, Note_on_c, 1, 74, 76
7, 127649, Note_on_c, 1, 82, 0
7, 127649, Note_on_c, 1, 74, 0
7, 127680, Note_on_c, 1, 74, 76
7, 127680, Note_on_c, 1, 82, 76
7, 128369, Note_on_c, 1, 74, 0
7, 128369, Note_on_c, 1, 82, 0
7, 128400, Note_on_c, 1, 77, 76
7, 128400, Note_on_c, 1, 74, 76
7, 128609, Note_on_c, 1, 77, 0
7, 128609, Note_on_c, 1, 74, 0
7, 128640, Note_on_c, 1, 77, 76
7, 128640, Note_on_c, 1, 74, 76
7, 128849, Note_on_c, 1, 77, 0
7, 128849, Note_on_c, 1, 74, 0
7, 128880, Note_on_c, 1, 74, 76
7, 128880, Note_on_c, 1, 77, 76
7, 129089, Note_on_c, 1, 74, 0
7, 129089, Note_on_c, 1, 77, 0
7, 129120, Note_on_c, 1, 70, 76
7, 129359, Note_on_c, 1, 70, 0
7, 129600, Note_on_c, 1, 70, 48
7, 129839, Note_on_c, 1, 70, 0
7, 129840, Note_on_c, 1, 74, 48
7, 130319, Note_on_c, 1, 74, 0
7, 130320, Note_on_c, 1, 70, 48
7, 130559, Note_on_c, 1, 70, 0
7, 130560, Note_on_c, 1, 72, 48
7, 131039, Note_on_c, 1, 72, 0
7, 131040, Note_on_c, 1, 75, 48
7, 131279, Note_on_c, 1, 75, 0
7, 131280, Note_on_c, 1, 72, 48
7, 131519, Note_on_c, 1, 72, 0
7, 132480, Note_on_c, 1, 72, 48
7, 132719, Note_on_c, 1, 72, 0
7, 132720, Note_on_c, 1, 75, 48
7, 133199, Note_on_c, 1, 75, 0
7, 133200, Note_on_c, 1, 72, 48
7, 133439, Note_on_c, 1, 72, 0
7, 133440, Note_on_c, 1, 74, 48
7, 133919, Note_on_c, 1, 74, 0
7, 133920, Note_on_c, 1, 77, 48
7, 134159, Note_on_c, 1, 77, 0
7, 134160, Note_on_c, 1, 74, 48
7, 134399, Note_on_c, 1, 74, 0
7, 135120, Control_c, 1, 11, 96
7, 135360, Note_on_c, 1, 74, 68
7, 135599, Note_on_c, 1, 74, 0
7, 135600, Control_c, 1, 11, 96
7, 135600, Note_on_c, 1, 77, 68
7, 135680, Control_c, 1, 11, 98
7, 135760, Control_c, 1, 11, 99
7, 135840, Control_c, 1, 11, 101
7, 135920, Control_c, 1, 11, 103
7, 136000, Control_c, 1, 11, 105
7, 136079, Note_on_c, 1, 77, 0
7, 136080, Control_c, 1, 11, 106
7, 136080, Note_on_c, 1, 74, 68
7, 136160, Control_c, 1, 11, 108
7, 136240, Control_c, 1, 11, 110
7, 136319, Note_on_c, 1, 74, 0
7, 136320, Note_on_c, 1, 75, 68
7, 136320, Control_c, 1, 11, 112
7, 136400, Control_c, 1, 11, 113
7, 136480, Control_c, 1, 11, 115
7, 136560, Control_c, 1, 11, 117
7, 136640, Control_c, 1, 11, 118
7, 136720, Control_c, 1, 11, 120
7, 136799, Note_on_c, 1, 75, 0
7, 136800, Control_c, 1, 11, 122
7, 136800, Note_on_c, 1, 77, 68
7, 136880, Control_c, 1, 11, 124
7, 136960, Control_c, 1, 11, 127
7, 137039, Note_on_c, 1, 77, 0
7, 137040, Note_on_c, 1, 79, 76
7, 137160, Control_c, 1, 11, 112
7, 137233, Control_c, 1, 11, 110
7, 137307, Control_c, 1, 11, 108
7, 137380, Control_c, 1, 11, 107
7, 137453, Control_c, 1, 11, 105
7, 137527, Control_c, 1, 11, 103
7, 137600, Control_c, 1, 11, 101
7, 137673, Control_c, 1, 11, 100
7, 137747, Control_c, 1, 11, 98
7, 137820, Control_c, 1, 11, 96
7, 137893, Control_c, 1, 11, 94
7, 137967, Control_c, 1, 11, 92
7, 138040, Control_c, 1, 11, 91
7, 138113, Control_c, 1, 11, 89
7, 138187, Control_c, 1, 11, 87
7, 138209, Note_on_c, 1, 79, 0
7, 138240, Note_on_c, 1, 79, 76
7, 138260, Control_c, 1, 11, 85
7, 138333, Control_c, 1, 11, 84
7, 138407, Control_c, 1, 11, 80
7, 138479, Note_on_c, 1, 79, 0
7, 138480, Note_on_c, 1, 77, 76
7, 138719, Note_on_c, 1, 77, 0
7, 138960, Note_on_c, 1, 77, 76
7, 139169, Note_on_c, 1, 77, 0
7, 139200, Note_on_c, 1, 75, 76
7, 139259, Note_on_c, 1, 75, 0
7, 139260, Note_on_c, 1, 77, 76
7, 139319, Note_on_c, 1, 77, 0
7, 139320, Note_on_c, 1, 75, 76
7, 139379, Note_on_c, 1, 75, 0
7, 139380, Note_on_c, 1, 77, 76
7, 139439, Note_on_c, 1, 77, 0
7, 139440, Note_on_c, 1, 75, 76
7, 139499, Note_on_c, 1, 75, 0
7, 139500, Note_on_c, 1, 77, 76
7, 139559, Note_on_c, 1, 77, 0
7, 139560, Note_on_c, 1, 74, 76
7, 139664, Note_on_c, 1, 74, 0
7, 139680, Note_on_c, 1, 75, 76
7, 139889, Note_on_c, 1, 75, 0
7, 139920, Note_on_c, 1, 74, 76
7, 140159, Note_on_c, 1, 74, 0
7, 140880, Control_c, 1, 11, 127
7, 141120, Note_on_c, 1, 70, 52
7, 141239, Note_on_c, 1, 70, 0
7, 141240, Note_on_c, 1, 72, 52
7, 141359, Note_on_c, 1, 72, 0
7, 141360, Note_on_c, 1, 74, 52
7, 141839, Note_on_c, 1, 74, 0
7, 141840, Note_on_c, 1, 70, 52
7, 142079, Note_on_c, 1, 70, 0
7, 142080, Note_on_c, 1, 72, 52
7, 142559, Note_on_c, 1, 72, 0
7, 142560, Note_on_c, 1, 75, 52
7, 142799, Note_on_c, 1, 75, 0
7, 142800, Note_on_c, 1, 72, 52
7, 143039, Note_on_c, 1, 72, 0
7, 144000, Note_on_c, 1, 72, 52
7, 144119, Note_on_c, 1, 72, 0
7, 144120, Note_on_c, 1, 74, 52
7, 144239, Note_on_c, 1, 74, 0
7, 144240, Note_on_c, 1, 75, 52
7, 144719, Note_on_c, 1, 75, 0
7, 144720, Note_on_c, 1, 72, 52
7, 144959, Note_on_c, 1, 72, 0
7, 144960, Note_on_c, 1, 74, 52
7, 145439, Note_on_c, 1, 74, 0
7, 145440, Note_on_c, 1, 77, 52
7, 145679, Note_on_c, 1, 77, 0
7, 145680, Note_on_c, 1, 74, 52
7, 145919, Note_on_c, 1, 74, 0
7, 146400, Control_c, 1, 11, 96
7, 146880, Note_on_c, 1, 74, 68
7, 146999, Note_on_c, 1, 74, 0
7, 147000, Note_on_c, 1, 75, 68
7, 147119, Note_on_c, 1, 75, 0
7, 147120, Note_on_c, 1, 77, 68
7, 147120, Control_c, 1, 11, 96
7, 147200, Control_c, 1, 11, 98
7, 147280, Control_c, 1, 11, 99
7, 147360, Control_c, 1, 11, 101
7, 147440, Control_c, 1, 11, 103
7, 147520, Control_c, 1, 11, 105
7, 147599, Note_on_c, 1, 77, 0
7, 147600, Control_c, 1, 11, 106
7, 147600, Note_on_c, 1, 74, 68
7, 147680, Control_c, 1, 11, 108
7, 147760, Control_c, 1, 11, 110
7, 147839, Note_on_c, 1, 74, 0
7, 147840, Control_c, 1, 11, 112
7, 147840, Note_on_c, 1, 75, 68
7, 147920, Control_c, 1, 11, 113
7, 148000, Control_c, 1, 11, 115
7, 148080, Control_c, 1, 11, 117
7, 148160, Control_c, 1, 11, 118
7, 148240, Control_c, 1, 11, 120
7, 148319, Note_on_c, 1, 75, 0
7, 148320, Control_c, 1, 11, 122
7, 148320, Note_on_c, 1, 77, 68
7, 148400, Control_c, 1, 11, 124
7, 148480, Control_c, 1, 11, 127
7, 148529, Note_on_c, 1, 77, 0
7, 148560, Note_on_c, 1, 79, 76
7, 148680, Control_c, 1, 11, 112
7, 148753, Control_c, 1, 11, 110
7, 148827, Control_c, 1, 11, 108
7, 148900, Control_c, 1, 11, 107
7, 148973, Control_c, 1, 11, 105
7, 149047, Control_c, 1, 11, 103
7, 149120, Control_c, 1, 11, 101
7, 149193, Control_c, 1, 11, 100
7, 149267, Control_c, 1, 11, 98
7, 149340, Control_c, 1, 11, 96
7, 149413, Control_c, 1, 11, 94
7, 149487, Control_c, 1, 11, 92
7, 149560, Control_c, 1, 11, 91
7, 149633, Control_c, 1, 11, 89
7, 149707, Control_c, 1, 11, 87
7, 149729, Note_on_c, 1, 79, 0
7, 149760, Note_on_c, 1, 77, 76
7, 149780, Control_c, 1, 11, 85
7, 149853, Control_c, 1, 11, 84
7, 149927, Control_c, 1, 11, 80
7, 149969, Note_on_c, 1, 77, 0
7, 150000, Note_on_c, 1, 75, 76
7, 150239, Note_on_c, 1, 75, 0
7, 150480, Note_on_c, 1, 75, 76
7, 150689, Note_on_c, 1, 75, 0
7, 150720, Note_on_c, 1, 75, 76
7, 150779, Note_on_c, 1, 75, 0
7, 150780, Note_on_c, 1, 77, 76
7, 150839, Note_on_c, 1, 77, 0
7, 150840, Note_on_c, 1, 75, 76
7, 150899, Note_on_c, 1, 75, 0
7, 150900, Note_on_c, 1, 77, 76
7, 150959, Note_on_c, 1, 77, 0
7, 150960, Note_on_c, 1, 75, 76
7, 151019, Note_on_c, 1, 75, 0
7, 151020, Note_on_c, 1, 77, 76
7, 151079, Note_on_c, 1, 77, 0
7, 151080, Note_on_c, 1, 74, 76
7, 151184, Note_on_c, 1, 74, 0
7, 151200, Note_on_c, 1, 75, 76
7, 151409, Note_on_c, 1, 75, 0
7, 151440, Note_on_c, 1, 75, 76
7, 151679, Note_on_c, 1, 75, 0
7, 154080, Note_on_c, 1, 77, 68
7, 154080, Control_c, 1, 11, 127
7, 154140, Control_c, 1, 11, 124
7, 154200, Control_c, 1, 11, 122
7, 154260, Control_c, 1, 11, 119
7, 154320, Control_c, 1, 11, 117
7, 154380, Control_c, 1, 11, 114
7, 154440, Control_c, 1, 11, 112
7, 154500, Control_c, 1, 11, 109
7, 154560, Control_c, 1, 11, 106
7, 154620, Control_c, 1, 11, 104
7, 154680, Control_c, 1, 11, 101
7, 154740, Control_c, 1, 11, 96
7, 154799, Note_on_c, 1, 77, 0
7, 154800, Note_on_c, 1, 75, 68
7, 155039, Note_on_c, 1, 75, 0
7, 155040, Note_on_c, 1, 72, 68
7, 155279, Note_on_c, 1, 72, 0
7, 156480, Control_c, 1, 11, 127
7, 156960, Note_on_c, 1, 77, 68
7, 156960, Control_c, 1, 11, 127
7, 157020, Control_c, 1, 11, 124
7, 157080, Control_c, 1, 11, 122
7, 157140, Control_c, 1, 11, 119
7, 157200, Control_c, 1, 11, 117
7, 157260, Control_c, 1, 11, 114
7, 157320, Control_c, 1, 11, 112
7, 157380, Control_c, 1, 11, 109
7, 157440, Control_c, 1, 11, 106
7, 157500, Control_c, 1, 11, 104
7, 157560, Control_c, 1, 11, 101
7, 157620, Control_c, 1, 11, 96
7, 157679, Note_on_c, 1, 77, 0
7, 157680, Note_on_c, 1, 75, 68
7, 157919, Note_on_c, 1, 75, 0
7, 157920, Note_on_c, 1, 72, 68
7, 158159, Note_on_c, 1, 72, 0
7, 165120, Control_c, 1, 11, 48
7, 165600, Note_on_c, 1, 74, 84
7, 165600, Note_on_c, 1, 82, 84
7, 165839, Note_on_c, 1, 74, 0
7, 165840, Control_c, 1, 11, 48
7, 165840, Note_on_c, 1, 77, 84
7, 165977, Control_c, 1, 11, 49
7, 166113, Control_c, 1, 11, 50
7, 166250, Control_c, 1, 11, 51
7, 166319, Note_on_c, 1, 77, 0
7, 166320, Note_on_c, 1, 74, 84
7, 166387, Control_c, 1, 11, 52
7, 166524, Control_c, 1, 11, 53
7, 166559, Note_on_c, 1, 82, 0
7, 166559, Note_on_c, 1, 74, 0
7, 166560, Note_on_c, 1, 75, 84
7, 166560, Note_on_c, 1, 82, 84
7, 166660, Control_c, 1, 11, 54
7, 166797, Control_c, 1, 11, 55
7, 166934, Control_c, 1, 11, 56
7, 167039, Note_on_c, 1, 75, 0
7, 167040, Note_on_c, 1, 79, 84
7, 167070, Control_c, 1, 11, 57
7, 167207, Control_c, 1, 11, 58
7, 167279, Note_on_c, 1, 79, 0
7, 167280, Note_on_c, 1, 75, 84
7, 167344, Control_c, 1, 11, 59
7, 167481, Control_c, 1, 11, 60
7, 167519, Note_on_c, 1, 82, 0
7, 167519, Note_on_c, 1, 75, 0
7, 167617, Control_c, 1, 11, 61
7, 168437, Control_c, 1, 11, 67
7, 168480, Note_on_c, 1, 82, 84
7, 168480, Note_on_c, 1, 75, 84
7, 168574, Control_c, 1, 11, 68
7, 168711, Control_c, 1, 11, 69
7, 168719, Note_on_c, 1, 75, 0
7, 168720, Note_on_c, 1, 79, 84
7, 168848, Control_c, 1, 11, 70
7, 168984, Control_c, 1, 11, 71
7, 169121, Control_c, 1, 11, 72
7, 169199, Note_on_c, 1, 79, 0
7, 169200, Note_on_c, 1, 75, 84
7, 169258, Control_c, 1, 11, 73
7, 169394, Control_c, 1, 11, 74
7, 169439, Note_on_c, 1, 82, 0
7, 169439, Note_on_c, 1, 75, 0
7, 169440, Note_on_c, 1, 77, 84
7, 169440, Note_on_c, 1, 82, 84
7, 169531, Control_c, 1, 11, 75
7, 169668, Control_c, 1, 11, 76
7, 169805, Control_c, 1, 11, 77
7, 169919, Note_on_c, 1, 77, 0
7, 169920, Note_on_c, 1, 80, 84
7, 169941, Control_c, 1, 11, 78
7, 170078, Control_c, 1, 11, 79
7, 170159, Note_on_c, 1, 80, 0
7, 170160, Note_on_c, 1, 77, 84
7, 170215, Control_c, 1, 11, 80
7, 170351, Control_c, 1, 11, 81
7, 170399, Note_on_c, 1, 82, 0
7, 170399, Note_on_c, 1, 77, 0
7, 170488, Control_c, 1, 11, 82
7, 176640, Control_c, 1, 11, 127
7, 177120, Note_on_c, 1, 74, 84
7, 177120, Note_on_c, 1, 70, 84
7, 177239, Note_on_c, 1, 74, 0
7, 177239, Note_on_c, 1, 70, 0
7, 177240, Note_on_c, 1, 75, 84
7, 177240, Note_on_c, 1, 72, 84
7, 177359, Note_on_c, 1, 75, 0
7, 177359, Note_on_c, 1, 72, 0
7, 177360, Note_on_c, 1, 74, 84
7, 177360, Note_on_c, 1, 77, 84
7, 177839, Note_on_c, 1, 74, 0
7, 177839, Note_on_c, 1, 77, 0
7, 177840, Note_on_c, 1, 74, 84
7, 177840, Note_on_c, 1, 70, 84
7, 178079, Note_on_c, 1, 74, 0
7, 178079, Note_on_c, 1, 70, 0
7, 178080, Note_on_c, 1, 75, 84
7, 178080, Note_on_c, 1, 72, 84
7, 178559, Note_on_c, 1, 75, 0
7, 178559, Note_on_c, 1, 72, 0
7, 178560, Note_on_c, 1, 77, 84
7, 178560, Note_on_c, 1, 74, 84
7, 178769, Note_on_c, 1, 77, 0
7, 178769, Note_on_c, 1, 74, 0
7, 178800, Note_on_c, 1, 75, 92
7, 178800, Note_on_c, 1, 79, 92
7, 179969, Note_on_c, 1, 75, 0
7, 179969, Note_on_c, 1, 79, 0
7, 180000, Note_on_c, 1, 74, 84
7, 180000, Note_on_c, 1, 77, 84
7, 180239, Note_on_c, 1, 74, 0
7, 180239, Note_on_c, 1, 77, 0
7, 180240, Note_on_c, 1, 75, 84
7, 180240, Note_on_c, 1, 72, 84
7, 180479, Note_on_c, 1, 75, 0
7, 180479, Note_on_c, 1, 72, 0
7, 180720, Note_on_c, 1, 75, 84
7, 180720, Note_on_c, 1, 72, 84
7, 180929, Note_on_c, 1, 75, 0
7, 180929, Note_on_c, 1, 72, 0
7, 180960, Note_on_c, 1, 75, 84
7, 180960, Note_on_c, 1, 72, 84
7, 181019, Note_on_c, 1, 75, 0
7, 181019, Note_on_c, 1, 72, 0
7, 181020, Note_on_c, 1, 74, 84
7, 181020, Note_on_c, 1, 77, 84
7, 181079, Note_on_c, 1, 74, 0
7, 181079, Note_on_c, 1, 77, 0
7, 181080, Note_on_c, 1, 75, 84
7, 181080, Note_on_c, 1, 72, 84
7, 181139, Note_on_c, 1, 75, 0
7, 181139, Note_on_c, 1, 72, 0
7, 181140, Note_on_c, 1, 77, 84
7, 181140, Note_on_c, 1, 74, 84
7, 181199, Note_on_c, 1, 77, 0
7, 181199, Note_on_c, 1, 74, 0
7, 181200, Note_on_c, 1, 75, 84
7, 181200, Note_on_c, 1, 72, 84
7, 181259, Note_on_c, 1, 75, 0
7, 181259, Note_on_c, 1, 72, 0
7, 181260, Note_on_c, 1, 77, 84
7, 181260, Note_on_c, 1, 74, 84
7, 181319, Note_on_c, 1, 77, 0
7, 181319, Note_on_c, 1, 74, 0
7, 181320, Note_on_c, 1, 71, 84
7, 181320, Note_on_c, 1, 74, 84
7, 181424, Note_on_c, 1, 71, 0
7, 181424, Note_on_c, 1, 74, 0
7, 181440, Note_on_c, 1, 72, 84
7, 181440, Note_on_c, 1, 75, 84
7, 181649, Note_on_c, 1, 72, 0
7, 181649, Note_on_c, 1, 75, 0
7, 181680, Note_on_c, 1, 74, 84
7, 181680, Note_on_c, 1, 70, 84
7, 181919, Note_on_c, 1, 74, 0
7, 181919, Note_on_c, 1, 70, 0
7, 182880, Note_on_c, 1, 74, 84
7, 182880, Note_on_c, 1, 77, 84
7, 183119, Note_on_c, 1, 74, 0
7, 183119, Note_on_c, 1, 77, 0
7, 183120, Note_on_c, 1, 75, 84
7, 183120, Note_on_c, 1, 72, 84
7, 183359, Note_on_c, 1, 75, 0
7, 183359, Note_on_c, 1, 72, 0
7, 184320, Note_on_c, 1, 69, 84
7, 184320, Note_on_c, 1, 77, 84
7, 184559, Note_on_c, 1, 69, 0
7, 184559, Note_on_c, 1, 77, 0
7, 184560, Note_on_c, 1, 70, 84
7, 184560, Note_on_c, 1, 74, 84
7, 184799, Note_on_c, 1, 70, 0
7, 184799, Note_on_c, 1, 74, 0
7, 185760, Note_on_c, 1, 77, 72
7, 185760, Note_on_c, 1, 74, 72
7, 185999, Note_on_c, 1, 77, 0
7, 185999, Note_on_c, 1, 74, 0
7, 186000, Note_on_c, 1, 75, 68
7, 186000, Note_on_c, 1, 72, 68
7, 186239, Note_on_c, 1, 75, 0
7, 186239, Note_on_c, 1, 72, 0
7, 187200, Note_on_c, 1, 69, 48
7, 187200, Note_on_c, 1, 77, 48
7, 187439, Note_on_c, 1, 69, 0
7, 187439, Note_on_c, 1, 77, 0
7, 187440, Note_on_c, 1, 70, 44
7, 187440, Note_on_c, 1, 74, 44
7, 187679, Note_on_c, 1, 70, 0
7, 187679, Note_on_c, 1, 74, 0
7, 188160, Note_on_c, 1, 74, 44
7, 188160, Note_on_c, 1, 70, 44
7, 188399, Note_on_c, 1, 74, 0
7, 188399, Note_on_c, 1, 70, 0
7, 188880, Note_on_c, 1, 70, 44
7, 188880, Note_on_c, 1, 74, 44
7, 189119, Note_on_c, 1, 70, 0
7, 189119, Note_on_c, 1, 74, 0
7, 189600, Note_on_c, 1, 70, 44
7, 189600, Note_on_c, 1, 74, 44
7, 189839, Note_on_c, 1, 70, 0
7, 189839, Note_on_c, 1, 74, 0
7, 190320, Note_on_c, 1, 70, 44
7, 190320, Note_on_c, 1, 74, 44
7, 190559, Note_on_c, 1, 70, 0
7, 190559, Note_on_c, 1, 74, 0
7, 192960, Note_on_c, 1, 72, 76
7, 192960, Note_on_c, 1, 75, 76
7, 193199, Note_on_c, 1, 72, 0
7, 193199, Note_on_c, 1, 75, 0
7, 193200, Note_on_c, 1, 70, 84
7, 193200, Note_on_c, 1, 74, 84
7, 193319, Note_on_c, 1, 70, 0
7, 193319, Note_on_c, 1, 74, 0
7, 193440, Note_on_c, 1, 70, 84
7, 193440, Note_on_c, 1, 74, 84
7, 193889, Note_on_c, 1, 70, 0
7, 193889, Note_on_c, 1, 74, 0
7, 193920, Note_on_c, 1, 74, 84
7, 193920, Note_on_c, 1, 70, 84
7, 194369, Note_on_c, 1, 74, 0
7, 194369, Note_on_c, 1, 70, 0
7, 194400, Note_on_c, 1, 74, 84
7, 194400, Note_on_c, 1, 70, 84
7, 194609, Note_on_c, 1, 74, 0
7, 194609, Note_on_c, 1, 70, 0
7, 194640, Note_on_c, 1, 75, 84
7, 194640, Note_on_c, 1, 72, 84
7, 195089, Note_on_c, 1, 75, 0
7, 195089, Note_on_c, 1, 72, 0
7, 195120, Note_on_c, 1, 72, 84
7, 195120, Note_on_c, 1, 75, 84
7, 195329, Note_on_c, 1, 72, 0
7, 195329, Note_on_c, 1, 75, 0
7, 195360, Note_on_c, 1, 72, 84
7, 195360, Note_on_c, 1, 75, 84
7, 195599, Note_on_c, 1, 72, 0
7, 195599, Note_on_c, 1, 75, 0
7, 204480, Note_on_c, 1, 67, 76
7, 204480, Note_on_c, 1, 76, 76
7, 204659, Note_on_c, 1, 67, 0
7, 204659, Note_on_c, 1, 76, 0
7, 204720, Note_on_c, 1, 69, 84
7, 204720, Note_on_c, 1, 77, 84
7, 205409, Note_on_c, 1, 69, 0
7, 205409, Note_on_c, 1, 77, 0
7, 205440, Note_on_c, 1, 81, 84
7, 205440, Note_on_c, 1, 77, 84
7, 206129, Note_on_c, 1, 81, 0
7, 206129, Note_on_c, 1, 77, 0
7, 206160, Note_on_c, 1, 84, 84
7, 206160, Note_on_c, 1, 81, 84
7, 206369, Note_on_c, 1, 84, 0
7, 206369, Note_on_c, 1, 81, 0
7, 206400, Note_on_c, 1, 81, 84
7, 206400, Note_on_c, 1, 84, 84
7, 206609, Note_on_c, 1, 81, 0
7, 206609, Note_on_c, 1, 84, 0
7, 206640, Note_on_c, 1, 84, 84
7, 206640, Note_on_c, 1, 81, 84
7, 206849, Note_on_c, 1, 84, 0
7, 206849, Note_on_c, 1, 81, 0
7, 206880, Note_on_c, 1, 77, 84
7, 206880, Note_on_c, 1, 69, 84
7, 207119, Note_on_c, 1, 77, 0
7, 207119, Note_on_c, 1, 69, 0
7, 207600, Note_on_c, 1, 77, 52
7, 207600, Note_on_c, 1, 73, 52
7, 207809, Note_on_c, 1, 77, 0
7, 207809, Note_on_c, 1, 73, 0
7, 207840, Note_on_c, 1, 77, 52
7, 207840, Note_on_c, 1, 73, 52
7, 208289, Note_on_c, 1, 77, 0
7, 208289, Note_on_c, 1, 73, 0
7, 208320, Note_on_c, 1, 77, 52
7, 208320, Note_on_c, 1, 73, 52
7, 208769, Note_on_c, 1, 77, 0
7, 208769, Note_on_c, 1, 73, 0
7, 208800, Note_on_c, 1, 77, 52
7, 208800, Note_on_c, 1, 73, 52
7, 209009, Note_on_c, 1, 77, 0
7, 209009, Note_on_c, 1, 73, 0
7, 209040, Note_on_c, 1, 78, 52
7, 209040, Note_on_c, 1, 75, 52
7, 209489, Note_on_c, 1, 78, 0
7, 209489, Note_on_c, 1, 75, 0
7, 209520, Note_on_c, 1, 78, 52
7, 209520, Note_on_c, 1, 75, 52
7, 209729, Note_on_c, 1, 78, 0
7, 209729, Note_on_c, 1, 75, 0
7, 209760, Note_on_c, 1, 78, 52
7, 209760, Note_on_c, 1, 75, 52
7, 209999, Note_on_c, 1, 78, 0
7, 209999, Note_on_c, 1, 75, 0
7, 211440, Note_on_c, 1, 75, 52
7, 211440, Note_on_c, 1, 78, 52
7, 211649, Note_on_c, 1, 75, 0
7, 211649, Note_on_c, 1, 78, 0
7, 211680, Note_on_c, 1, 78, 52
7, 211680, Note_on_c, 1, 80, 52
7, 211889, Note_on_c, 1, 78, 0
7, 211889, Note_on_c, 1, 80, 0
7, 211920, Note_on_c, 1, 77, 52
7, 211920, Note_on_c, 1, 80, 52
7, 212369, Note_on_c, 1, 77, 0
7, 212369, Note_on_c, 1, 80, 0
7, 212400, Note_on_c, 1, 77, 52
7, 212400, Note_on_c, 1, 80, 52
7, 212609, Note_on_c, 1, 77, 0
7, 212609, Note_on_c, 1, 80, 0
7, 212640, Note_on_c, 1, 80, 52
7, 212640, Note_on_c, 1, 77, 52
7, 212849, Note_on_c, 1, 80, 0
7, 212849, Note_on_c, 1, 77, 0
7, 214320, Note_on_c, 1, 80, 52
7, 214320, Note_on_c, 1, 77, 52
7, 214529, Note_on_c, 1, 80, 0
7, 214529, Note_on_c, 1, 77, 0
7, 214560, Note_on_c, 1, 77, 52
7, 214560, Note_on_c, 1, 80, 52
7, 214769, Note_on_c, 1, 77, 0
7, 214769, Note_on_c, 1, 80, 0
7, 214800, Note_on_c, 1, 77, 52
7, 214800, Note_on_c, 1, 80, 52
7, 215249, Note_on_c, 1, 77, 0
7, 215249, Note_on_c, 1, 80, 0
7, 215280, Note_on_c, 1, 80, 52
7, 215280, Note_on_c, 1, 77, 52
7, 215489, Note_on_c, 1, 80, 0
7, 215489, Note_on_c, 1, 77, 0
7, 215520, Note_on_c, 1, 77, 52
7, 215520, Note_on_c, 1, 80, 52
7, 215759, Note_on_c, 1, 77, 0
7, 215759, Note_on_c, 1, 80, 0
7, 217200, Note_on_c, 1, 80, 52
7, 217200, Note_on_c, 1, 77, 52
7, 217409, Note_on_c, 1, 80, 0
7, 217409, Note_on_c, 1, 77, 0
7, 217440, Note_on_c, 1, 77, 52
7, 217440, Note_on_c, 1, 80, 52
7, 217649, Note_on_c, 1, 77, 0
7, 217649, Note_on_c, 1, 80, 0
7, 217680, Note_on_c, 1, 78, 52
7, 217680, Note_on_c, 1, 75, 52
7, 217799, Note_on_c, 1, 78, 0
7, 217799, Note_on_c, 1, 75, 0
7, 224400, Note_on_c, 1, 74, 52
7, 224639, Note_on_c, 1, 74, 0
7, 224640, Note_on_c, 1, 79, 52
7, 224759, Note_on_c, 1, 79, 0
7, 224880, Note_on_c, 1, 75, 52
7, 224880, Note_on_c, 1, 72, 52
7, 225119, Note_on_c, 1, 75, 0
7, 225119, Note_on_c, 1, 72, 0
7, 227280, Note_on_c, 1, 76, 52
7, 227519, Note_on_c, 1, 76, 0
7, 227520, Note_on_c, 1, 81, 52
7, 227639, Note_on_c, 1, 81, 0
7, 227760, Note_on_c, 1, 74, 52
7, 227760, Note_on_c, 1, 77, 52
7, 227999, Note_on_c, 1, 74, 0
7, 227999, Note_on_c, 1, 77, 0
7, 230400, Note_on_c, 1, 75, 76
7, 230400, Note_on_c, 1, 72, 76
7, 230639, Note_on_c, 1, 75, 0
7, 230639, Note_on_c, 1, 72, 0
7, 230640, Note_on_c, 1, 70, 84
7, 230640, Note_on_c, 1, 74, 84
7, 230759, Note_on_c, 1, 70, 0
7, 230759, Note_on_c, 1, 74, 0
7, 230880, Note_on_c, 1, 65, 84
7, 231119, Note_on_c, 1, 65, 0
7, 231120, Note_on_c, 1, 74, 84
7, 231239, Note_on_c, 1, 74, 0
7, 231360, Note_on_c, 1, 70, 84
7, 231599, Note_on_c, 1, 70, 0
7, 231600, Note_on_c, 1, 77, 84
7, 231719, Note_on_c, 1, 77, 0
7, 231840, Note_on_c, 1, 74, 84
7, 232049, Note_on_c, 1, 74, 0
7, 232080, Note_on_c, 1, 77, 84
7, 232319, Note_on_c, 1, 77, 0
7, 232320, Note_on_c, 1, 75, 84
7, 232529, Note_on_c, 1, 75, 0
7, 232560, Note_on_c, 1, 72, 84
7, 232739, Note_on_c, 1, 72, 0
7, 232800, Note_on_c, 1, 69, 84
7, 233039, Note_on_c, 1, 69, 0
7, 243360, Note_on_c, 1, 75, 76
7, 243360, Note_on_c, 1, 72, 76
7, 243600, Control_c, 1, 11, 80
7, 243839, Note_on_c, 1, 75, 0
7, 243839, Note_on_c, 1, 72, 0
7, 245760, Control_c, 1, 11, 127
7, 246240, Note_on_c, 1, 72, 76
7, 246240, Note_on_c, 1, 75, 76
7, 246689, Note_on_c, 1, 72, 0
7, 246689, Note_on_c, 1, 75, 0
7, 246720, Note_on_c, 1, 75, 76
7, 246720, Note_on_c, 1, 81, 76
7, 247169, Note_on_c, 1, 75, 0
7, 247169, Note_on_c, 1, 81, 0
7, 247200, Note_on_c, 1, 74, 76
7, 247200, Note_on_c, 1, 82, 76
7, 247649, Note_on_c, 1, 74, 0
7, 247649, Note_on_c, 1, 82, 0
7, 247680, Note_on_c, 1, 75, 76
7, 247680, Note_on_c, 1, 79, 76
7, 247889, Note_on_c, 1, 75, 0
7, 247889, Note_on_c, 1, 79, 0
7, 247920, Note_on_c, 1, 74, 84
7, 247920, Note_on_c, 1, 77, 84
7, 248609, Note_on_c, 1, 74, 0
7, 248609, Note_on_c, 1, 77, 0
7, 248640, Note_on_c, 1, 81, 84
7, 248640, Note_on_c, 1, 72, 84
7, 249329, Note_on_c, 1, 81, 0
7, 249329, Note_on_c, 1, 72, 0
7, 249360, Note_on_c, 1, 74, 84
7, 249360, Note_on_c, 1, 82, 84
7, 250769, Note_on_c, 1, 74, 0
7, 250769, Note_on_c, 1, 82, 0
7, 250800, Note_on_c, 1, 72, 84
7, 250800, Note_on_c, 1, 81, 84
7, 252209, Note_on_c, 1, 72, 0
7, 252209, Note_on_c, 1, 81, 0
7, 252240, Note_on_c, 1, 82, 84
7, 252240, Note_on_c, 1, 74, 84
7, 253649, Note_on_c, 1, 82, 0
7, 253649, Note_on_c, 1, 74, 0
7, 253680, Note_on_c, 1, 81, 84
7, 253680, Note_on_c, 1, 72, 84
7, 255089, Note_on_c, 1, 81, 0
7, 255089, Note_on_c, 1, 72, 0
7, 255120, Note_on_c, 1, 82, 76
7, 255120, Note_on_c, 1, 74, 76
7, 255809, Note_on_c, 1, 82, 0
7, 255809, Note_on_c, 1, 74, 0
7, 255840, Note_on_c, 1, 74, 76
7, 255840, Note_on_c, 1, 82, 76
7, 256529, Note_on_c, 1, 74, 0
7, 256529, Note_on_c, 1, 82, 0
7, 256560, Note_on_c, 1, 74, 76
7, 256560, Note_on_c, 1, 77, 76
7, 256769, Note_on_c, 1, 74, 0
7, 256769, Note_on_c, 1, 77, 0
7, 256800, Note_on_c, 1, 74, 76
7, 256800, Note_on_c, 1, 77, 76
7, 257009, Note_on_c, 1, 74, 0
7, 257009, Note_on_c, 1, 77, 0
7, 257040, Note_on_c, 1, 74, 76
7, 257040, Note_on_c, 1, 77, 76
7, 257249, Note_on_c, 1, 74, 0
7, 257249, Note_on_c, 1, 77, 0
7, 257280, Note_on_c, 1, 70, 76
7, 257280, Note_on_c, 1, 74, 76
7, 257519, Note_on_c, 1, 70, 0
7, 257519, Note_on_c, 1, 74, 0
7, 257760, Note_on_c, 1, 70, 48
7, 257999, Note_on_c, 1, 70, 0
7, 258000, Note_on_c, 1, 74, 48
7, 258479, Note_on_c, 1, 74, 0
7, 258480, Note_on_c, 1, 70, 48
7, 258719, Note_on_c, 1, 70, 0
7, 258720, Note_on_c, 1, 72, 48
7, 259199, Note_on_c, 1, 72, 0
7, 259200, Note_on_c, 1, 75, 48
7, 259439, Note_on_c, 1, 75, 0
7, 259440, Note_on_c, 1, 72, 48
7, 259679, Note_on_c, 1, 72, 0
7, 260640, Note_on_c, 1, 72, 48
7, 260879, Note_on_c, 1, 72, 0
7, 260880, Note_on_c, 1, 75, 48
7, 261359, Note_on_c, 1, 75, 0
7, 261360, Note_on_c, 1, 72, 48
7, 261599, Note_on_c, 1, 72, 0
7, 261600, Note_on_c, 1, 74, 48
7, 262079, Note_on_c, 1, 74, 0
7, 262080, Note_on_c, 1, 77, 48
7, 262319, Note_on_c, 1, 77, 0
7, 262320, Note_on_c, 1, 74, 48
7, 262559, Note_on_c, 1, 74, 0
7, 263280, Control_c, 1, 11, 96
7, 263520, Note_on_c, 1, 74, 68
7, 263759, Note_on_c, 1, 74, 0
7, 263760, Note_on_c, 1, 77, 68
7, 263760, Control_c, 1, 11, 96
7, 263840, Control_c, 1, 11, 98
7, 263920, Control_c, 1, 11, 99
7, 264000, Control_c, 1, 11, 101
7, 264080, Control_c, 1, 11, 103
7, 264160, Control_c, 1, 11, 105
7, 264239, Note_on_c, 1, 77, 0
7, 264240, Control_c, 1, 11, 106
7, 264240, Note_on_c, 1, 74, 68
7, 264320, Control_c, 1, 11, 108
7, 264400, Control_c, 1, 11, 110
7, 264479, Note_on_c, 1, 74, 0
7, 264480, Note_on_c, 1, 75, 68
7, 264480, Control_c, 1, 11, 112
7, 264560, Control_c, 1, 11, 113
7, 264640, Control_c, 1, 11, 115
7, 264720, Control_c, 1, 11, 117
7, 264800, Control_c, 1, 11, 118
7, 264880, Control_c, 1, 11, 120
7, 264959, Note_on_c, 1, 75, 0
7, 264960, Note_on_c, 1, 77, 68
7, 264960, Control_c, 1, 11, 122
7, 265040, Control_c, 1, 11, 124
7, 265120, Control_c, 1, 11, 127
7, 265199, Note_on_c, 1, 77, 0
7, 265200, Note_on_c, 1, 79, 76
7, 265320, Control_c, 1, 11, 112
7, 265393, Control_c, 1, 11, 110
7, 265467, Control_c, 1, 11, 108
7, 265540, Control_c, 1, 11, 107
7, 265613, Control_c, 1, 11, 105
7, 265687, Control_c, 1, 11, 103
7, 265760, Control_c, 1, 11, 101
7, 265833, Control_c, 1, 11, 100
7, 265907, Control_c, 1, 11, 98
7, 265980, Control_c, 1, 11, 96
7, 266053, Control_c, 1, 11, 94
7, 266127, Control_c, 1, 11, 92
7, 266200, Control_c, 1, 11, 91
7, 266273, Control_c, 1, 11, 89
7, 266347, Control_c, 1, 11, 87
7, 266369, Note_on_c, 1, 79, 0
7, 266400, Note_on_c, 1, 79, 76
7, 266420, Control_c, 1, 11, 85
7, 266493, Control_c, 1, 11, 84
7, 266567, Control_c, 1, 11, 80
7, 266639, Note_on_c, 1, 79, 0
7, 266640, Note_on_c, 1, 77, 76
7, 266879, Note_on_c, 1, 77, 0
7, 267120, Note_on_c, 1, 77, 76
7, 267329, Note_on_c, 1, 77, 0
7, 267360, Note_on_c, 1, 75, 76
7, 267419, Note_on_c, 1, 75, 0
7, 267420, Note_on_c, 1, 77, 76
7, 267479, Note_on_c, 1, 77, 0
7, 267480, Note_on_c, 1, 75, 76
7, 267539, Note_on_c, 1, 75, 0
7, 267540, Note_on_c, 1, 77, 76
7, 267599, Note_on_c, 1, 77, 0
7, 267600, Note_on_c, 1, 75, 76
7, 267659, Note_on_c, 1, 75, 0
7, 267660, Note_on_c, 1, 77, 76
7, 267719, Note_on_c, 1, 77, 0
7, 267720, Note_on_c, 1, 74, 76
7, 267824, Note_on_c, 1, 74, 0
7, 267840, Note_on_c, 1, 75, 76
7, 268049, Note_on_c, 1, 75, 0
7, 268080, Note_on_c, 1, 74, 76
7, 268319, Note_on_c, 1, 74, 0
7, 269040, Control_c, 1, 11, 127
7, 269280, Note_on_c, 1, 70, 52
7, 269399, Note_on_c, 1, 70, 0
7, 269400, Note_on_c, 1, 72, 52
7, 269519, Note_on_c, 1, 72, 0
7, 269520, Note_on_c, 1, 74, 52
7, 269999, Note_on_c, 1, 74, 0
7, 270000, Note_on_c, 1, 70, 52
7, 270239, Note_on_c, 1, 70, 0
7, 270240, Note_on_c, 1, 72, 52
7, 270719, Note_on_c, 1, 72, 0
7, 270720, Note_on_c, 1, 75, 52
7, 270959, Note_on_c, 1, 75, 0
7, 270960, Note_on_c, 1, 72, 52
7, 271199, Note_on_c, 1, 72, 0
7, 272160, Note_on_c, 1, 72, 52
7, 272279, Note_on_c, 1, 72, 0
7, 272280, Note_on_c, 1, 74, 52
7, 272399, Note_on_c, 1, 74, 0
7, 272400, Note_on_c, 1, 75, 52
7, 272879, Note_on_c, 1, 75, 0
7, 272880, Note_on_c, 1, 72, 52
7, 273119, Note_on_c, 1, 72, 0
7, 273120, Note_on_c, 1, 74, 52
7, 273599, Note_on_c, 1, 74, 0
7, 273600, Note_on_c, 1, 77, 52
7, 273839, Note_on_c, 1, 77, 0
7, 273840, Note_on_c, 1, 74, 52
7, 274079, Note_on_c, 1, 74, 0
7, 274560, Control_c, 1, 11, 96
7, 275040, Note_on_c, 1, 74, 68
7, 275159, Note_on_c, 1, 74, 0
7, 275160, Note_on_c, 1, 75, 68
7, 275279, Note_on_c, 1, 75, 0
7, 275280, Note_on_c, 1, 77, 68
7, 275280, Control_c, 1, 11, 96
7, 275360, Control_c, 1, 11, 98
7, 275440, Control_c, 1, 11, 99
7, 275520, Control_c, 1, 11, 101
7, 275600, Control_c, 1, 11, 103
7, 275680, Control_c, 1, 11, 105
7, 275759, Note_on_c, 1, 77, 0
7, 275760, Note_on_c, 1, 74, 68
7, 275760, Control_c, 1, 11, 106
7, 275840, Control_c, 1, 11, 108
7, 275920, Control_c, 1, 11, 110
7, 275999, Note_on_c, 1, 74, 0
7, 276000, Note_on_c, 1, 75, 68
7, 276000, Control_c, 1, 11, 112
7, 276080, Control_c, 1, 11, 113
7, 276160, Control_c, 1, 11, 115
7, 276240, Control_c, 1, 11, 117
7, 276320, Control_c, 1, 11, 118
7, 276400, Control_c, 1, 11, 120
7, 276479, Note_on_c, 1, 75, 0
7, 276480, Control_c, 1, 11, 122
7, 276480, Note_on_c, 1, 77, 68
7, 276560, Control_c, 1, 11, 124
7, 276640, Control_c, 1, 11, 127
7, 276689, Note_on_c, 1, 77, 0
7, 276720, Note_on_c, 1, 79, 76
7, 276840, Control_c, 1, 11, 112
7, 276913, Control_c, 1, 11, 110
7, 276987, Control_c, 1, 11, 108
7, 277060, Control_c, 1, 11, 107
7, 277133, Control_c, 1, 11, 105
7, 277207, Control_c, 1, 11, 103
7, 277280, Control_c, 1, 11, 101
7, 277353, Control_c, 1, 11, 100
7, 277427, Control_c, 1, 11, 98
7, 277500, Control_c, 1, 11, 96
7, 277573, Control_c, 1, 11, 94
7, 277647, Control_c, 1, 11, 92
7, 277720, Control_c, 1, 11, 91
7, 277793, Control_c, 1, 11, 89
7, 277867, Control_c, 1, 11, 87
7, 277889, Note_on_c, 1, 79, 0
7, 277920, Note_on_c, 1, 77, 76
7, 277940, Control_c, 1, 11, 85
7, 278013, Control_c, 1, 11, 84
7, 278087, Control_c, 1, 11, 80
7, 278129, Note_on_c, 1, 77, 0
7, 278160, Note_on_c, 1, 75, 76
7, 278399, Note_on_c, 1, 75, 0
7, 278640, Note_on_c, 1, 75, 76
7, 278849, Note_on_c, 1, 75, 0
7, 278880, Note_on_c, 1, 75, 76
7, 278939, Note_on_c, 1, 75, 0
7, 278940, Note_on_c, 1, 77, 76
7, 278999, Note_on_c, 1, 77, 0
7, 279000, Note_on_c, 1, 75, 76
7, 279059, Note_on_c, 1, 75, 0
7, 279060, Note_on_c, 1, 77, 76
7, 279119, Note_on_c, 1, 77, 0
7, 279120, Note_on_c, 1, 75, 76
7, 279179, Note_on_c, 1, 75, 0
7, 279180, Note_on_c, 1, 77, 76
7, 279239, Note_on_c, 1, 77, 0
7, 279240, Note_on_c, 1, 74, 76
7, 279344, Note_on_c, 1, 74, 0
7, 279360, Note_on_c, 1, 75, 76
7, 279569, Note_on_c, 1, 75, 0
7, 279600, Note_on_c, 1, 75, 76
7, 279839, Note_on_c, 1, 75, 0
7, 282240, Control_c, 1, 11, 127
7, 282240, Note_on_c, 1, 77, 68
7, 282300, Control_c, 1, 11, 124
7, 282360, Control_c, 1, 11, 122
7, 282420, Control_c, 1, 11, 119
7, 282480, Control_c, 1, 11, 117
7, 282540, Control_c, 1, 11, 114
7, 282600, Control_c, 1, 11, 112
7, 282660, Control_c, 1, 11, 109
7, 282720, Control_c, 1, 11, 106
7, 282780, Control_c, 1, 11, 104
7, 282840, Control_c, 1, 11, 101
7, 282900, Control_c, 1, 11, 96
7, 282959, Note_on_c, 1, 77, 0
7, 282960, Note_on_c, 1, 75, 68
7, 283199, Note_on_c, 1, 75, 0
7, 283200, Note_on_c, 1, 72, 68
7, 283439, Note_on_c, 1, 72, 0
7, 284640, Control_c, 1, 11, 127
7, 285120, Control_c, 1, 11, 127
7, 285120, Note_on_c, 1, 77, 68
7, 285180, Control_c, 1, 11, 124
7, 285240, Control_c, 1, 11, 122
7, 285300, Control_c, 1, 11, 119
7, 285360, Control_c, 1, 11, 117
7, 285420, Control_c, 1, 11, 114
7, 285480, Control_c, 1, 11, 112
7, 285540, Control_c, 1, 11, 109
7, 285600, Control_c, 1, 11, 106
7, 285660, Control_c, 1, 11, 104
7, 285720, Control_c, 1, 11, 101
7, 285780, Control_c, 1, 11, 96
7, 285839, Note_on_c, 1, 77, 0
7, 285840, Note_on_c, 1, 75, 68
7, 286079, Note_on_c, 1, 75, 0
7, 286080, Note_on_c, 1, 72, 68
7, 286319, Note_on_c, 1, 72, 0
7, 293280, Control_c, 1, 11, 48
7, 293760, Note_on_c, 1, 74, 84
7, 293760, Note_on_c, 1, 82, 84
7, 293999, Note_on_c, 1, 74, 0
7, 294000, Note_on_c, 1, 77, 84
7, 294000, Control_c, 1, 11, 48
7, 294137, Control_c, 1, 11, 49
7, 294273, Control_c, 1, 11, 50
7, 294410, Control_c, 1, 11, 51
7, 294479, Note_on_c, 1, 77, 0
7, 294480, Note_on_c, 1, 74, 84
7, 294547, Control_c, 1, 11, 52
7, 294684, Control_c, 1, 11, 53
7, 294719, Note_on_c, 1, 82, 0
7, 294719, Note_on_c, 1, 74, 0
7, 294720, Note_on_c, 1, 82, 84
7, 294720, Note_on_c, 1, 75, 84
7, 294820, Control_c, 1, 11, 54
7, 294957, Control_c, 1, 11, 55
7, 295094, Control_c, 1, 11, 56
7, 295199, Note_on_c, 1, 75, 0
7, 295200, Note_on_c, 1, 79, 84
7, 295230, Control_c, 1, 11, 57
7, 295367, Control_c, 1, 11, 58
7, 295439, Note_on_c, 1, 79, 0
7, 295440, Note_on_c, 1, 75, 84
7, 295504, Control_c, 1, 11, 59
7, 295641, Control_c, 1, 11, 60
7, 295679, Note_on_c, 1, 82, 0
7, 295679, Note_on_c, 1, 75, 0
7, 295777, Control_c, 1, 11, 61
7, 296597, Control_c, 1, 11, 67
7, 296640, Note_on_c, 1, 75, 84
7, 296640, Note_on_c, 1, 82, 84
7, 296734, Control_c, 1, 11, 68
7, 296871, Control_c, 1, 11, 69
7, 296879, Note_on_c, 1, 75, 0
7, 296880, Note_on_c, 1, 79, 84
7, 297008, Control_c, 1, 11, 70
7, 297144, Control_c, 1, 11, 71
7, 297281, Control_c, 1, 11, 72
7, 297359, Note_on_c, 1, 79, 0
7, 297360, Note_on_c, 1, 75, 84
7, 297418, Control_c, 1, 11, 73
7, 297554, Control_c, 1, 11, 74
7, 297599, Note_on_c, 1, 82, 0
7, 297599, Note_on_c, 1, 75, 0
7, 297600, Note_on_c, 1, 82, 84
7, 297600, Note_on_c, 1, 77, 84
7, 297691, Control_c, 1, 11, 75
7, 297828, Control_c, 1, 11, 76
7, 297965, Control_c, 1, 11, 77
7, 298079, Note_on_c, 1, 77, 0
7, 298080, Note_on_c, 1, 80, 84
7, 298101, Control_c, 1, 11, 78
7, 298238, Control_c, 1, 11, 79
7, 298319, Note_on_c, 1, 80, 0
7, 298320, Note_on_c, 1, 77, 84
7, 298375, Control_c, 1, 11, 80
7, 298511, Control_c, 1, 11, 81
7, 298559, Note_on_c, 1, 82, 0
7, 298559, Note_on_c, 1, 77, 0
7, 298648, Control_c, 1, 11, 82
7, 304800, Control_c, 1, 11, 127
7, 305280, Note_on_c, 1, 70, 84
7, 305280, Note_on_c, 1, 74, 84
7, 305399, Note_on_c, 1, 70, 0
7, 305399, Note_on_c, 1, 74, 0
7, 305400, Note_on_c, 1, 72, 84
7, 305400, Note_on_c, 1, 75, 84
7, 305519, Note_on_c, 1, 72, 0
7, 305519, Note_on_c, 1, 75, 0
7, 305520, Note_on_c, 1, 74, 84
7, 305520, Note_on_c, 1, 77, 84
7, 305999, Note_on_c, 1, 74, 0
7, 305999, Note_on_c, 1, 77, 0
7, 306000, Note_on_c, 1, 74, 84
7, 306000, Note_on_c, 1, 70, 84
7, 306239, Note_on_c, 1, 74, 0
7, 306239, Note_on_c, 1, 70, 0
7, 306240, Note_on_c, 1, 75, 84
7, 306240, Note_on_c, 1, 72, 84
7, 306719, Note_on_c, 1, 75, 0
7, 306719, Note_on_c, 1, 72, 0
7, 306720, Note_on_c, 1, 74, 84
7, 306720, Note_on_c, 1, 77, 84
7, 306929, Note_on_c, 1, 74, 0
7, 306929, Note_on_c, 1, 77, 0
7, 306960, Note_on_c, 1, 79, 92
7, 306960, Note_on_c, 1, 75, 92
7, 308129, Note_on_c, 1, 79, 0
7, 308129, Note_on_c, 1, 75, 0
7, 308160, Note_on_c, 1, 77, 84
7, 308160, Note_on_c, 1, 74, 84
7, 308399, Note_on_c, 1, 77, 0
7, 308399, Note_on_c, 1, 74, 0
7, 308400, Note_on_c, 1, 72, 84
7, 308400, Note_on_c, 1, 75, 84
7, 308639, Note_on_c, 1, 72, 0
7, 308639, Note_on_c, 1, 75, 0
7, 308880, Note_on_c, 1, 75, 84
7, 308880, Note_on_c, 1, 72, 84
7, 309089, Note_on_c, 1, 75, 0
7, 309089, Note_on_c, 1, 72, 0
7, 309120, Note_on_c, 1, 72, 84
7, 309120, Note_on_c, 1, 75, 84
7, 309179, Note_on_c, 1, 72, 0
7, 309179, Note_on_c, 1, 75, 0
7, 309180, Note_on_c, 1, 77, 84
7, 309180, Note_on_c, 1, 74, 84
7, 309239, Note_on_c, 1, 77, 0
7, 309239, Note_on_c, 1, 74, 0
7, 309240, Note_on_c, 1, 75, 84
7, 309240, Note_on_c, 1, 72, 84
7, 309299, Note_on_c, 1, 75, 0
7, 309299, Note_on_c, 1, 72, 0
7, 309300, Note_on_c, 1, 77, 84
7, 309300, Note_on_c, 1, 74, 84
7, 309359, Note_on_c, 1, 77, 0
7, 309359, Note_on_c, 1, 74, 0
7, 309360, Note_on_c, 1, 72, 84
7, 309360, Note_on_c, 1, 75, 84
7, 309419, Note_on_c, 1, 72, 0
7, 309419, Note_on_c, 1, 75, 0
7, 309420, Note_on_c, 1, 74, 84
7, 309420, Note_on_c, 1, 77, 84
7, 309479, Note_on_c, 1, 74, 0
7, 309479, Note_on_c, 1, 77, 0
7, 309480, Note_on_c, 1, 71, 84
7, 309480, Note_on_c, 1, 74, 84
7, 309584, Note_on_c, 1, 71, 0
7, 309584, Note_on_c, 1, 74, 0
7, 309600, Note_on_c, 1, 72, 84
7, 309600, Note_on_c, 1, 75, 84
7, 309809, Note_on_c, 1, 72, 0
7, 309809, Note_on_c, 1, 75, 0
7, 309840, Note_on_c, 1, 70, 84
7, 309840, Note_on_c, 1, 74, 84
7, 310079, Note_on_c, 1, 70, 0
7, 310079, Note_on_c, 1, 74, 0
7, 311040, Note_on_c, 1, 74, 84
7, 311040, Note_on_c, 1, 77, 84
7, 311279, Note_on_c, 1, 74, 0
7, 311279, Note_on_c, 1, 77, 0
7, 311280, Note_on_c, 1, 75, 84
7, 311280, Note_on_c, 1, 72, 84
7, 311519, Note_on_c, 1, 75, 0
7, 311519, Note_on_c, 1, 72, 0
7, 312480, Note_on_c, 1, 77, 84
7, 312480, Note_on_c, 1, 69, 84
7, 312719, Note_on_c, 1, 77, 0
7, 312719, Note_on_c, 1, 69, 0
7, 312720, Note_on_c, 1, 70, 84
7, 312720, Note_on_c, 1, 74, 84
7, 312959, Note_on_c, 1, 70, 0
7, 312959, Note_on_c, 1, 74, 0
7, 313920, Note_on_c, 1, 77, 72
7, 313920, Note_on_c, 1, 74, 72
7, 314159, Note_on_c, 1, 77, 0
7, 314159, Note_on_c, 1, 74, 0
7, 314160, Note_on_c, 1, 72, 68
7, 314160, Note_on_c, 1, 75, 68
7, 314399, Note_on_c, 1, 72, 0
7, 314399, Note_on_c, 1, 75, 0
7, 315360, Note_on_c, 1, 77, 48
7, 315360, Note_on_c, 1, 69, 48
7, 315599, Note_on_c, 1, 77, 0
7, 315599, Note_on_c, 1, 69, 0
7, 315600, Note_on_c, 1, 70, 44
7, 315600, Note_on_c, 1, 74, 44
7, 315839, Note_on_c, 1, 70, 0
7, 315839, Note_on_c, 1, 74, 0
7, 316320, Note_on_c, 1, 74, 44
7, 316320, Note_on_c, 1, 70, 44
7, 316559, Note_on_c, 1, 74, 0
7, 316559, Note_on_c, 1, 70, 0
7, 317040, Note_on_c, 1, 74, 44
7, 317040, Note_on_c, 1, 70, 44
7, 317279, Note_on_c, 1, 74, 0
7, 317279, Note_on_c, 1, 70, 0
7, 317760, Note_on_c, 1, 70, 44
7, 317760, Note_on_c, 1, 74, 44
7, 317999, Note_on_c, 1, 70, 0
7, 317999, Note_on_c, 1, 74, 0
7, 318480, Note_on_c, 1, 74, 44
7, 318480, Note_on_c, 1, 70, 44
7, 318719, Note_on_c, 1, 74, 0
7, 318719, Note_on_c, 1, 70, 0
7, 321120, Note_on_c, 1, 75, 76
7, 321120, Note_on_c, 1, 72, 76
7, 321359, Note_on_c, 1, 75, 0
7, 321359, Note_on_c, 1, 72, 0
7, 321360, Note_on_c, 1, 74, 84
7, 321360, Note_on_c, 1, 70, 84
7, 321479, Note_on_c, 1, 74, 0
7, 321479, Note_on_c, 1, 70, 0
7, 321600, Note_on_c, 1, 65, 84
7, 321839, Note_on_c, 1, 65, 0
7, 321840, Note_on_c, 1, 74, 84
7, 321959, Note_on_c, 1, 74, 0
7, 322080, Note_on_c, 1, 70, 84
7, 322319, Note_on_c, 1, 70, 0
7, 322320, Note_on_c, 1, 77, 84
7, 322439, Note_on_c, 1, 77, 0
7, 322560, Note_on_c, 1, 74, 84
7, 322769, Note_on_c, 1, 74, 0
7, 322800, Note_on_c, 1, 77, 84
7, 323039, Note_on_c, 1, 77, 0
7, 323040, Note_on_c, 1, 75, 84
7, 323249, Note_on_c, 1, 75, 0
7, 323280, Note_on_c, 1, 72, 84
7, 323459, Note_on_c, 1, 72, 0
7, 323520, Note_on_c, 1, 69, 84
7, 323759, Note_on_c, 1, 69, 0
7, 334080, Note_on_c, 1, 75, 76
7, 334080, Note_on_c, 1, 72, 76
7, 334320, Control_c, 1, 11, 80
7, 334559, Note_on_c, 1, 75, 0
7, 334559, Note_on_c, 1, 72, 0
7, 336480, Control_c, 1, 11, 127
7, 336960, Note_on_c, 1, 75, 76
7, 336960, Note_on_c, 1, 72, 76
7, 337200, Control_c, 1, 11, 112
7, 337409, Note_on_c, 1, 75, 0
7, 337409, Note_on_c, 1, 72, 0
7, 337438, Control_c, 1, 11, 127
7, 337440, Note_on_c, 1, 81, 76
7, 337440, Note_on_c, 1, 75, 76
7, 337919, Note_on_c, 1, 81, 0
7, 337919, Note_on_c, 1, 75, 0
7, 337920, Note_on_c, 1, 82, 76
7, 337920, Note_on_c, 1, 74, 76
7, 338399, Note_on_c, 1, 82, 0
7, 338399, Note_on_c, 1, 74, 0
7, 338400, Note_on_c, 1, 79, 76
7, 338400, Note_on_c, 1, 75, 76
7, 338579, Note_on_c, 1, 79, 0
7, 338579, Note_on_c, 1, 75, 0
7, 338640, Note_on_c, 1, 77, 84
7, 338640, Note_on_c, 1, 74, 84
7, 339329, Note_on_c, 1, 77, 0
7, 339329, Note_on_c, 1, 74, 0
7, 339360, Note_on_c, 1, 81, 84
7, 339360, Note_on_c, 1, 72, 84
7, 340049, Note_on_c, 1, 81, 0
7, 340049, Note_on_c, 1, 72, 0
7, 340080, Note_on_c, 1, 82, 84
7, 340080, Note_on_c, 1, 74, 84
7, 341489, Note_on_c, 1, 82, 0
7, 341489, Note_on_c, 1, 74, 0
7, 341520, Note_on_c, 1, 81, 84
7, 341520, Note_on_c, 1, 72, 84
7, 342929, Note_on_c, 1, 81, 0
7, 342929, Note_on_c, 1, 72, 0
7, 342960, Note_on_c, 1, 82, 84
7, 342960, Note_on_c, 1, 74, 84
7, 344369, Note_on_c, 1, 82, 0
7, 344369, Note_on_c, 1, 74, 0
7, 344400, Note_on_c, 1, 81, 84
7, 344400, Note_on_c, 1, 72, 84
7, 345809, Note_on_c, 1, 81, 0
7, 345809, Note_on_c, 1, 72, 0
7, 345840, Note_on_c, 1, 82, 76
7, 345840, Note_on_c, 1, 74, 76
7, 346529, Note_on_c, 1, 82, 0
7, 346529, Note_on_c, 1, 74, 0
7, 346560, Note_on_c, 1, 82, 76
7, 346560, Note_on_c, 1, 74, 76
7, 347249, Note_on_c, 1, 82, 0
7, 347249, Note_on_c, 1, 74, 0
7, 347280, Note_on_c, 1, 77, 76
7, 347280, Note_on_c, 1, 74, 76
7, 347489, Note_on_c, 1, 77, 0
7, 347489, Note_on_c, 1, 74, 0
7, 347520, Note_on_c, 1, 77, 76
7, 347520, Note_on_c, 1, 74, 76
7, 347729, Note_on_c, 1, 77, 0
7, 347729, Note_on_c, 1, 74, 0
7, 347760, Note_on_c, 1, 77, 76
7, 347760, Note_on_c, 1, 74, 76
7, 347969, Note_on_c, 1, 77, 0
7, 347969, Note_on_c, 1, 74, 0
7, 348000, Note_on_c, 1, 70, 76
7, 348239, Note_on_c, 1, 70, 0
7, 350160, Note_on_c, 1, 82, 84
7, 350160, Note_on_c, 1, 74, 84
7, 350399, Note_on_c, 1, 82, 0
7, 350399, Note_on_c, 1, 74, 0
7, 350399, End_track
8, 0, Start_track
8, 0, Title_t, "Clarinet in B-flat"
8, 0, MIDI_port, 0
8, 0, Program_c, 2, 71
8, 0, Control_c, 2, 7, 88
8, 0, Control_c, 2, 10, 75
8, 0, Control_c, 2, 11, 96
8, 0, Note_on_c, 2, 65, 84
8, 239, Note_on_c, 2, 65, 0
8, 240, Note_on_c, 2, 62, 84
8, 240, Note_on_c, 2, 70, 84
8, 359, Note_on_c, 2, 62, 0
8, 359, Note_on_c, 2, 70, 0
8, 480, Note_on_c, 2, 58, 84
8, 480, Note_on_c, 2, 62, 84
8, 929, Note_on_c, 2, 58, 0
8, 929, Note_on_c, 2, 62, 0
8, 960, Note_on_c, 2, 58, 84
8, 960, Note_on_c, 2, 62, 84
8, 1409, Note_on_c, 2, 58, 0
8, 1409, Note_on_c, 2, 62, 0
8, 1440, Note_on_c, 2, 58, 84
8, 1440, Note_on_c, 2, 62, 84
8, 1649, Note_on_c, 2, 58, 0
8, 1649, Note_on_c, 2, 62, 0
8, 1680, Note_on_c, 2, 63, 84
8, 1680, Note_on_c, 2, 60, 84
8, 2129, Note_on_c, 2, 63, 0
8, 2129, Note_on_c, 2, 60, 0
8, 2160, Note_on_c, 2, 60, 84
8, 2160, Note_on_c, 2, 63, 84
8, 2369, Note_on_c, 2, 60, 0
8, 2369, Note_on_c, 2, 63, 0
8, 2400, Note_on_c, 2, 60, 84
8, 2400, Note_on_c, 2, 63, 84
8, 2639, Note_on_c, 2, 60, 0
8, 2639, Note_on_c, 2, 63, 0
8, 2880, Note_on_c, 2, 65, 52
8, 3119, Note_on_c, 2, 65, 0
8, 3120, Note_on_c, 2, 66, 52
8, 3359, Note_on_c, 2, 66, 0
8, 3360, Note_on_c, 2, 69, 52
8, 3599, Note_on_c, 2, 69, 0
8, 3600, Note_on_c, 2, 72, 52
8, 3839, Note_on_c, 2, 72, 0
8, 3840, Note_on_c, 2, 75, 52
8, 4079, Note_on_c, 2, 75, 0
8, 4080, Note_on_c, 2, 77, 52
8, 4319, Note_on_c, 2, 77, 0
8, 5760, Note_on_c, 2, 63, 52
8, 5999, Note_on_c, 2, 63, 0
8, 6000, Note_on_c, 2, 61, 52
8, 6239, Note_on_c, 2, 61, 0
8, 6240, Note_on_c, 2, 64, 52
8, 6479, Note_on_c, 2, 64, 0
8, 6480, Note_on_c, 2, 67, 52
8, 6719, Note_on_c, 2, 67, 0
8, 6720, Note_on_c, 2, 70, 52
8, 6959, Note_on_c, 2, 70, 0
8, 6960, Note_on_c, 2, 72, 52
8, 7199, Note_on_c, 2, 72, 0
8, 11520, Note_on_c, 2, 67, 76
8, 11520, Note_on_c, 2, 70, 76
8, 11699, Note_on_c, 2, 67, 0
8, 11699, Note_on_c, 2, 70, 0
8, 11760, Note_on_c, 2, 69, 84
8, 11760, Note_on_c, 2, 65, 84
8, 12449, Note_on_c, 2, 69, 0
8, 12449, Note_on_c, 2, 65, 0
8, 12480, Note_on_c, 2, 72, 84
8, 12480, Note_on_c, 2, 69, 84
8, 13169, Note_on_c, 2, 72, 0
8, 13169, Note_on_c, 2, 69, 0
8, 13200, Note_on_c, 2, 72, 84
8, 13200, Note_on_c, 2, 69, 84
8, 13409, Note_on_c, 2, 72, 0
8, 13409, Note_on_c, 2, 69, 0
8, 13440, Note_on_c, 2, 72, 84
8, 13440, Note_on_c, 2, 69, 84
8, 13649, Note_on_c, 2, 72, 0
8, 13649, Note_on_c, 2, 69, 0
8, 13680, Note_on_c, 2, 69, 84
8, 13680, Note_on_c, 2, 72, 84
8, 13889, Note_on_c, 2, 69, 0
8, 13889, Note_on_c, 2, 72, 0
8, 13920, Note_on_c, 2, 65, 84
8, 13920, Note_on_c, 2, 69, 84
8, 14159, Note_on_c, 2, 65, 0
8, 14159, Note_on_c, 2, 69, 0
8, 14400, Note_on_c, 2, 65, 84
8, 14639, Note_on_c, 2, 65, 0
8, 14640, Note_on_c, 2, 70, 84
8, 14640, Note_on_c, 2, 62, 84
8, 14759, Note_on_c, 2, 70, 0
8, 14759, Note_on_c, 2, 62, 0
8, 14880, Note_on_c, 2, 62, 84
8, 14880, Note_on_c, 2, 58, 84
8, 15329, Note_on_c, 2, 62, 0
8, 15329, Note_on_c, 2, 58, 0
8, 15360, Note_on_c, 2, 62, 84
8, 15360, Note_on_c, 2, 58, 84
8, 15809, Note_on_c, 2, 62, 0
8, 15809, Note_on_c, 2, 58, 0
8, 15840, Note_on_c, 2, 62, 84
8, 15840, Note_on_c, 2, 58, 84
8, 16049, Note_on_c, 2, 62, 0
8, 16049, Note_on_c, 2, 58, 0
8, 16080, Note_on_c, 2, 60, 84
8, 16080, Note_on_c, 2, 63, 84
8, 16529, Note_on_c, 2, 60, 0
8, 16529, Note_on_c, 2, 63, 0
8, 16560, Note_on_c, 2, 60, 84
8, 16560, Note_on_c, 2, 63, 84
8, 16769, Note_on_c, 2, 60, 0
8, 16769, Note_on_c, 2, 63, 0
8, 16800, Note_on_c, 2, 60, 84
8, 16800, Note_on_c, 2, 63, 84
8, 17039, Note_on_c, 2, 60, 0
8, 17039, Note_on_c, 2, 63, 0
8, 17280, Note_on_c, 2, 65, 52
8, 17519, Note_on_c, 2, 65, 0
8, 17520, Note_on_c, 2, 66, 52
8, 17759, Note_on_c, 2, 66, 0
8, 17760, Note_on_c, 2, 69, 52
8, 17999, Note_on_c, 2, 69, 0
8, 18000, Note_on_c, 2, 72, 52
8, 18239, Note_on_c, 2, 72, 0
8, 18240, Note_on_c, 2, 75, 52
8, 18479, Note_on_c, 2, 75, 0
8, 18480, Note_on_c, 2, 77, 52
8, 18719, Note_on_c, 2, 77, 0
8, 20160, Note_on_c, 2, 63, 52
8, 20399, Note_on_c, 2, 63, 0
8, 20400, Note_on_c, 2, 61, 52
8, 20639, Note_on_c, 2, 61, 0
8, 20640, Note_on_c, 2, 64, 52
8, 20879, Note_on_c, 2, 64, 0
8, 20880, Note_on_c, 2, 67, 52
8, 21119, Note_on_c, 2, 67, 0
8, 21120, Note_on_c, 2, 70, 52
8, 21359, Note_on_c, 2, 70, 0
8, 21360, Note_on_c, 2, 72, 52
8, 21599, Note_on_c, 2, 72, 0
8, 25920, Note_on_c, 2, 67, 76
8, 25920, Note_on_c, 2, 70, 76
8, 26099, Note_on_c, 2, 67, 0
8, 26099, Note_on_c, 2, 70, 0
8, 26160, Note_on_c, 2, 65, 84
8, 26160, Note_on_c, 2, 69, 84
8, 26849, Note_on_c, 2, 65, 0
8, 26849, Note_on_c, 2, 69, 0
8, 26880, Note_on_c, 2, 72, 84
8, 26880, Note_on_c, 2, 69, 84
8, 27569, Note_on_c, 2, 72, 0
8, 27569, Note_on_c, 2, 69, 0
8, 27600, Note_on_c, 2, 72, 84
8, 27600, Note_on_c, 2, 69, 84
8, 27809, Note_on_c, 2, 72, 0
8, 27809, Note_on_c, 2, 69, 0
8, 27840, Note_on_c, 2, 72, 84
8, 27840, Note_on_c, 2, 69, 84
8, 28049, Note_on_c, 2, 72, 0
8, 28049, Note_on_c, 2, 69, 0
8, 28080, Note_on_c, 2, 72, 84
8, 28080, Note_on_c, 2, 69, 84
8, 28289, Note_on_c, 2, 72, 0
8, 28289, Note_on_c, 2, 69, 0
8, 28320, Note_on_c, 2, 69, 84
8, 28320, Note_on_c, 2, 65, 84
8, 28559, Note_on_c, 2, 69, 0
8, 28559, Note_on_c, 2, 65, 0
8, 46320, Note_on_c, 2, 75, 52
8, 46320, Note_on_c, 2, 72, 52
8, 46559, Note_on_c, 2, 75, 0
8, 46559, Note_on_c, 2, 72, 0
8, 51840, Note_on_c, 2, 69, 76
8, 52079, Note_on_c, 2, 69, 0
8, 52080, Note_on_c, 2, 70, 84
8, 52199, Note_on_c, 2, 70, 0
8, 52320, Note_on_c, 2, 65, 84
8, 52559, Note_on_c, 2, 65, 0
8, 52560, Note_on_c, 2, 74, 84
8, 52679, Note_on_c, 2, 74, 0
8, 52800, Note_on_c, 2, 70, 84
8, 53039, Note_on_c, 2, 70, 0
8, 53040, Note_on_c, 2, 77, 84
8, 53159, Note_on_c, 2, 77, 0
8, 53280, Note_on_c, 2, 74, 84
8, 53489, Note_on_c, 2, 74, 0
8, 53520, Note_on_c, 2, 77, 84
8, 53759, Note_on_c, 2, 77, 0
8, 53760, Note_on_c, 2, 75, 84
8, 53969, Note_on_c, 2, 75, 0
8, 54000, Note_on_c, 2, 72, 84
8, 54179, Note_on_c, 2, 72, 0
8, 54240, Note_on_c, 2, 69, 84
8, 54479, Note_on_c, 2, 69, 0
8, 54720, Note_on_c, 2, 65, 52
8, 54959, Note_on_c, 2, 65, 0
8, 54960, Note_on_c, 2, 66, 52
8, 55199, Note_on_c, 2, 66, 0
8, 55200, Note_on_c, 2, 69, 52
8, 55439, Note_on_c, 2, 69, 0
8, 55440, Note_on_c, 2, 72, 52
8, 55679, Note_on_c, 2, 72, 0
8, 55680, Note_on_c, 2, 75, 52
8, 55919, Note_on_c, 2, 75, 0
8, 55920, Note_on_c, 2, 77, 52
8, 56159, Note_on_c, 2, 77, 0
8, 57600, Note_on_c, 2, 67, 52
8, 57839, Note_on_c, 2, 67, 0
8, 57840, Note_on_c, 2, 68, 52
8, 58079, Note_on_c, 2, 68, 0
8, 58080, Note_on_c, 2, 71, 52
8, 58319, Note_on_c, 2, 71, 0
8, 58320, Note_on_c, 2, 74, 52
8, 58559, Note_on_c, 2, 74, 0
8, 58560, Note_on_c, 2, 77, 52
8, 58799, Note_on_c, 2, 77, 0
8, 58800, Note_on_c, 2, 79, 52
8, 59039, Note_on_c, 2, 79, 0
8, 60480, Note_on_c, 2, 73, 52
8, 60719, Note_on_c, 2, 73, 0
8, 60720, Note_on_c, 2, 70, 52
8, 60959, Note_on_c, 2, 70, 0
8, 60960, Note_on_c, 2, 67, 52
8, 61199, Note_on_c, 2, 67, 0
8, 61200, Note_on_c, 2, 64, 52
8, 61439, Note_on_c, 2, 64, 0
8, 61440, Note_on_c, 2, 61, 52
8, 61679, Note_on_c, 2, 61, 0
8, 61680, Note_on_c, 2, 60, 52
8, 61919, Note_on_c, 2, 60, 0
8, 61920, Note_on_c, 2, 64, 52
8, 62129, Note_on_c, 2, 64, 0
8, 62160, Note_on_c, 2, 65, 52
8, 62399, Note_on_c, 2, 65, 0
8, 62400, Note_on_c, 2, 69, 52
8, 62639, Note_on_c, 2, 69, 0
8, 62640, Note_on_c, 2, 72, 52
8, 62879, Note_on_c, 2, 72, 0
8, 62880, Note_on_c, 2, 75, 52
8, 63119, Note_on_c, 2, 75, 0
8, 63120, Note_on_c, 2, 77, 52
8, 63359, Note_on_c, 2, 77, 0
8, 63360, Note_on_c, 2, 78, 52
8, 63599, Note_on_c, 2, 78, 0
8, 63600, Note_on_c, 2, 77, 52
8, 63839, Note_on_c, 2, 77, 0
8, 63840, Note_on_c, 2, 75, 55
8, 64079, Note_on_c, 2, 75, 0
8, 64080, Note_on_c, 2, 72, 58
8, 64319, Note_on_c, 2, 72, 0
8, 64320, Note_on_c, 2, 69, 61
8, 64559, Note_on_c, 2, 69, 0
8, 64560, Note_on_c, 2, 65, 64
8, 64769, Note_on_c, 2, 65, 0
8, 64800, Note_on_c, 2, 66, 76
8, 65039, Note_on_c, 2, 66, 0
8, 65040, Note_on_c, 2, 65, 52
8, 65279, Note_on_c, 2, 65, 0
8, 65280, Note_on_c, 2, 69, 52
8, 65519, Note_on_c, 2, 69, 0
8, 65520, Note_on_c, 2, 72, 52
8, 65759, Note_on_c, 2, 72, 0
8, 65760, Note_on_c, 2, 75, 52
8, 65999, Note_on_c, 2, 75, 0
8, 66000, Note_on_c, 2, 77, 52
8, 66239, Note_on_c, 2, 77, 0
8, 66240, Note_on_c, 2, 78, 52
8, 66479, Note_on_c, 2, 78, 0
8, 66480, Note_on_c, 2, 77, 52
8, 66719, Note_on_c, 2, 77, 0
8, 66720, Note_on_c, 2, 75, 55
8, 66959, Note_on_c, 2, 75, 0
8, 66960, Note_on_c, 2, 72, 58
8, 67199, Note_on_c, 2, 72, 0
8, 67200, Note_on_c, 2, 69, 61
8, 67439, Note_on_c, 2, 69, 0
8, 67440, Note_on_c, 2, 65, 64
8, 67649, Note_on_c, 2, 65, 0
8, 67680, Note_on_c, 2, 66, 76
8, 67919, Note_on_c, 2, 66, 0
8, 67920, Note_on_c, 2, 65, 68
8, 68129, Note_on_c, 2, 65, 0
8, 68160, Note_on_c, 2, 75, 76
8, 68160, Note_on_c, 2, 72, 76
8, 68609, Note_on_c, 2, 75, 0
8, 68609, Note_on_c, 2, 72, 0
8, 68640, Note_on_c, 2, 74, 76
8, 68640, Note_on_c, 2, 70, 76
8, 69089, Note_on_c, 2, 74, 0
8, 69089, Note_on_c, 2, 70, 0
8, 69120, Note_on_c, 2, 67, 76
8, 69120, Note_on_c, 2, 70, 76
8, 69329, Note_on_c, 2, 67, 0
8, 69329, Note_on_c, 2, 70, 0
8, 69360, Note_on_c, 2, 62, 84
8, 69360, Note_on_c, 2, 70, 84
8, 70049, Note_on_c, 2, 62, 0
8, 70049, Note_on_c, 2, 70, 0
8, 70080, Note_on_c, 2, 63, 84
8, 70080, Note_on_c, 2, 69, 84
8, 70769, Note_on_c, 2, 63, 0
8, 70769, Note_on_c, 2, 69, 0
8, 70800, Note_on_c, 2, 70, 84
8, 70800, Note_on_c, 2, 62, 84
8, 71039, Note_on_c, 2, 70, 0
8, 71039, Note_on_c, 2, 62, 0
8, 72240, Note_on_c, 2, 69, 84
8, 72479, Note_on_c, 2, 69, 0
8, 72480, Note_on_c, 2, 65, 84
8, 72599, Note_on_c, 2, 65, 0
8, 72720, Note_on_c, 2, 72, 84
8, 72959, Note_on_c, 2, 72, 0
8, 72960, Note_on_c, 2, 69, 84
8, 73079, Note_on_c, 2, 69, 0
8, 73200, Note_on_c, 2, 75, 84
8, 73439, Note_on_c, 2, 75, 0
8, 73440, Note_on_c, 2, 72, 84
8, 73559, Note_on_c, 2, 72, 0
8, 73680, Note_on_c, 2, 70, 84
8, 73919, Note_on_c, 2, 70, 0
8, 75120, Note_on_c, 2, 69, 84
8, 75359, Note_on_c, 2, 69, 0
8, 75360, Note_on_c, 2, 65, 84
8, 75479, Note_on_c, 2, 65, 0
8, 75600, Note_on_c, 2, 72, 84
8, 75839, Note_on_c, 2, 72, 0
8, 75840, Note_on_c, 2, 69, 84
8, 75959, Note_on_c, 2, 69, 0
8, 76080, Note_on_c, 2, 75, 84
8, 76319, Note_on_c, 2, 75, 0
8, 76320, Note_on_c, 2, 72, 84
8, 76439, Note_on_c, 2, 72, 0
8, 76560, Note_on_c, 2, 62, 76
8, 76560, Note_on_c, 2, 70, 76
8, 77249, Note_on_c, 2, 62, 0
8, 77249, Note_on_c, 2, 70, 0
8, 77280, Note_on_c, 2, 74, 76
8, 77280, Note_on_c, 2, 70, 76
8, 77969, Note_on_c, 2, 74, 0
8, 77969, Note_on_c, 2, 70, 0
8, 78000, Note_on_c, 2, 77, 76
8, 78000, Note_on_c, 2, 74, 76
8, 78209, Note_on_c, 2, 77, 0
8, 78209, Note_on_c, 2, 74, 0
8, 78240, Note_on_c, 2, 77, 76
8, 78240, Note_on_c, 2, 74, 76
8, 78449, Note_on_c, 2, 77, 0
8, 78449, Note_on_c, 2, 74, 0
8, 78480, Note_on_c, 2, 77, 76
8, 78480, Note_on_c, 2, 74, 76
8, 78689, Note_on_c, 2, 77, 0
8, 78689, Note_on_c, 2, 74, 0
8, 78720, Note_on_c, 2, 62, 76
8, 78720, Note_on_c, 2, 70, 76
8, 78959, Note_on_c, 2, 62, 0
8, 78959, Note_on_c, 2, 70, 0
8, 96720, Note_on_c, 2, 75, 52
8, 96720, Note_on_c, 2, 72, 52
8, 96959, Note_on_c, 2, 75, 0
8, 96959, Note_on_c, 2, 72, 0
8, 102240, Note_on_c, 2, 69, 76
8, 102479, Note_on_c, 2, 69, 0
8, 102480, Note_on_c, 2, 70, 84
8, 102599, Note_on_c, 2, 70, 0
8, 102720, Note_on_c, 2, 65, 84
8, 102959, Note_on_c, 2, 65, 0
8, 102960, Note_on_c, 2, 74, 84
8, 103079, Note_on_c, 2, 74, 0
8, 103200, Note_on_c, 2, 70, 84
8, 103439, Note_on_c, 2, 70, 0
8, 103440, Note_on_c, 2, 77, 84
8, 103559, Note_on_c, 2, 77, 0
8, 103680, Note_on_c, 2, 74, 84
8, 103889, Note_on_c, 2, 74, 0
8, 103920, Note_on_c, 2, 77, 84
8, 104159, Note_on_c, 2, 77, 0
8, 104160, Note_on_c, 2, 75, 84
8, 104369, Note_on_c, 2, 75, 0
8, 104400, Note_on_c, 2, 72, 84
8, 104579, Note_on_c, 2, 72, 0
8, 104640, Note_on_c, 2, 69, 84
8, 104879, Note_on_c, 2, 69, 0
8, 105120, Note_on_c, 2, 65, 52
8, 105359, Note_on_c, 2, 65, 0
8, 105360, Note_on_c, 2, 66, 52
8, 105599, Note_on_c, 2, 66, 0
8, 105600, Note_on_c, 2, 69, 52
8, 105839, Note_on_c, 2, 69, 0
8, 105840, Note_on_c, 2, 72, 52
8, 106079, Note_on_c, 2, 72, 0
8, 106080, Note_on_c, 2, 75, 52
8, 106319, Note_on_c, 2, 75, 0
8, 106320, Note_on_c, 2, 77, 52
8, 106559, Note_on_c, 2, 77, 0
8, 108000, Note_on_c, 2, 67, 52
8, 108239, Note_on_c, 2, 67, 0
8, 108240, Note_on_c, 2, 68, 52
8, 108479, Note_on_c, 2, 68, 0
8, 108480, Note_on_c, 2, 71, 52
8, 108719, Note_on_c, 2, 71, 0
8, 108720, Note_on_c, 2, 74, 52
8, 108959, Note_on_c, 2, 74, 0
8, 108960, Note_on_c, 2, 77, 52
8, 109199, Note_on_c, 2, 77, 0
8, 109200, Note_on_c, 2, 79, 52
8, 109439, Note_on_c, 2, 79, 0
8, 110880, Note_on_c, 2, 73, 52
8, 111119, Note_on_c, 2, 73, 0
8, 111120, Note_on_c, 2, 70, 52
8, 111359, Note_on_c, 2, 70, 0
8, 111360, Note_on_c, 2, 67, 52
8, 111599, Note_on_c, 2, 67, 0
8, 111600, Note_on_c, 2, 64, 52
8, 111839, Note_on_c, 2, 64, 0
8, 111840, Note_on_c, 2, 61, 52
8, 112079, Note_on_c, 2, 61, 0
8, 112080, Note_on_c, 2, 60, 52
8, 112319, Note_on_c, 2, 60, 0
8, 112320, Note_on_c, 2, 64, 52
8, 112529, Note_on_c, 2, 64, 0
8, 112560, Note_on_c, 2, 65, 52
8, 112799, Note_on_c, 2, 65, 0
8, 112800, Note_on_c, 2, 69, 52
8, 113039, Note_on_c, 2, 69, 0
8, 113040, Note_on_c, 2, 72, 52
8, 113279, Note_on_c, 2, 72, 0
8, 113280, Note_on_c, 2, 75, 52
8, 113519, Note_on_c, 2, 75, 0
8, 113520, Note_on_c, 2, 77, 52
8, 113759, Note_on_c, 2, 77, 0
8, 113760, Note_on_c, 2, 78, 52
8, 113999, Note_on_c, 2, 78, 0
8, 114000, Note_on_c, 2, 77, 52
8, 114239, Note_on_c, 2, 77, 0
8, 114240, Note_on_c, 2, 75, 55
8, 114479, Note_on_c, 2, 75, 0
8, 114480, Note_on_c, 2, 72, 58
8, 114719, Note_on_c, 2, 72, 0
8, 114720, Note_on_c, 2, 69, 61
8, 114959, Note_on_c, 2, 69, 0
8, 114960, Note_on_c, 2, 65, 64
8, 115169, Note_on_c, 2, 65, 0
8, 115200, Note_on_c, 2, 66, 76
8, 115439, Note_on_c, 2, 66, 0
8, 115440, Note_on_c, 2, 65, 52
8, 115679, Note_on_c, 2, 65, 0
8, 115680, Note_on_c, 2, 69, 52
8, 115919, Note_on_c, 2, 69, 0
8, 115920, Note_on_c, 2, 72, 52
8, 116159, Note_on_c, 2, 72, 0
8, 116160, Note_on_c, 2, 75, 52
8, 116399, Note_on_c, 2, 75, 0
8, 116400, Note_on_c, 2, 77, 52
8, 116639, Note_on_c, 2, 77, 0
8, 116640, Note_on_c, 2, 78, 52
8, 116879, Note_on_c, 2, 78, 0
8, 116880, Note_on_c, 2, 77, 52
8, 117119, Note_on_c, 2, 77, 0
8, 117120, Note_on_c, 2, 75, 55
8, 117359, Note_on_c, 2, 75, 0
8, 117360, Note_on_c, 2, 72, 58
8, 117599, Note_on_c, 2, 72, 0
8, 117600, Note_on_c, 2, 69, 61
8, 117839, Note_on_c, 2, 69, 0
8, 117840, Note_on_c, 2, 65, 64
8, 118049, Note_on_c, 2, 65, 0
8, 118080, Note_on_c, 2, 66, 76
8, 118319, Note_on_c, 2, 66, 0
8, 118320, Note_on_c, 2, 65, 68
8, 118529, Note_on_c, 2, 65, 0
8, 118560, Note_on_c, 2, 72, 76
8, 118560, Note_on_c, 2, 75, 76
8, 119009, Note_on_c, 2, 72, 0
8, 119009, Note_on_c, 2, 75, 0
8, 119040, Note_on_c, 2, 70, 76
8, 119040, Note_on_c, 2, 74, 76
8, 119489, Note_on_c, 2, 70, 0
8, 119489, Note_on_c, 2, 74, 0
8, 119520, Note_on_c, 2, 70, 76
8, 119520, Note_on_c, 2, 67, 76
8, 119729, Note_on_c, 2, 70, 0
8, 119729, Note_on_c, 2, 67, 0
8, 119760, Note_on_c, 2, 70, 84
8, 119760, Note_on_c, 2, 62, 84
8, 120449, Note_on_c, 2, 70, 0
8, 120449, Note_on_c, 2, 62, 0
8, 120480, Note_on_c, 2, 63, 84
8, 120480, Note_on_c, 2, 69, 84
8, 121169, Note_on_c, 2, 63, 0
8, 121169, Note_on_c, 2, 69, 0
8, 121200, Note_on_c, 2, 62, 84
8, 121200, Note_on_c, 2, 70, 84
8, 121439, Note_on_c, 2, 62, 0
8, 121439, Note_on_c, 2, 70, 0
8, 122640, Note_on_c, 2, 69, 84
8, 122879, Note_on_c, 2, 69, 0
8, 122880, Note_on_c, 2, 65, 84
8, 122999, Note_on_c, 2, 65, 0
8, 123120, Note_on_c, 2, 72, 84
8, 123359, Note_on_c, 2, 72, 0
8, 123360, Note_on_c, 2, 69, 84
8, 123479, Note_on_c, 2, 69, 0
8, 123600, Note_on_c, 2, 75, 84
8, 123839, Note_on_c, 2, 75, 0
8, 123840, Note_on_c, 2, 72, 84
8, 123959, Note_on_c, 2, 72, 0
8, 124080, Note_on_c, 2, 70, 84
8, 124319, Note_on_c, 2, 70, 0
8, 125520, Note_on_c, 2, 69, 84
8, 125759, Note_on_c, 2, 69, 0
8, 125760, Note_on_c, 2, 65, 84
8, 125879, Note_on_c, 2, 65, 0
8, 126000, Note_on_c, 2, 72, 84
8, 126239, Note_on_c, 2, 72, 0
8, 126240, Note_on_c, 2, 69, 84
8, 126359, Note_on_c, 2, 69, 0
8, 126480, Note_on_c, 2, 75, 84
8, 126719, Note_on_c, 2, 75, 0
8, 126720, Note_on_c, 2, 72, 84
8, 126839, Note_on_c, 2, 72, 0
8, 126960, Note_on_c, 2, 70, 76
8, 126960, Note_on_c, 2, 62, 76
8, 127649, Note_on_c, 2, 70, 0
8, 127649, Note_on_c, 2, 62, 0
8, 127680, Note_on_c, 2, 74, 76
8, 127680, Note_on_c, 2, 70, 76
8, 128369, Note_on_c, 2, 74, 0
8, 128369, Note_on_c, 2, 70, 0
8, 128400, Note_on_c, 2, 74, 76
8, 128400, Note_on_c, 2, 77, 76
8, 128609, Note_on_c, 2, 74, 0
8, 128609, Note_on_c, 2, 77, 0
8, 128640, Note_on_c, 2, 77, 76
8, 128640, Note_on_c, 2, 74, 76
8, 128849, Note_on_c, 2, 77, 0
8, 128849, Note_on_c, 2, 74, 0
8, 128880, Note_on_c, 2, 77, 76
8, 128880, Note_on_c, 2, 74, 76
8, 129089, Note_on_c, 2, 77, 0
8, 129089, Note_on_c, 2, 74, 0
8, 129120, Note_on_c, 2, 62, 76
8, 129120, Note_on_c, 2, 70, 76
8, 129359, Note_on_c, 2, 62, 0
8, 129359, Note_on_c, 2, 70, 0
8, 129600, Note_on_c, 2, 70, 48
8, 129600, Note_on_c, 2, 62, 48
8, 129839, Note_on_c, 2, 62, 0
8, 129840, Note_on_c, 2, 65, 48
8, 130319, Note_on_c, 2, 65, 0
8, 130320, Note_on_c, 2, 62, 48
8, 130559, Note_on_c, 2, 70, 0
8, 130559, Note_on_c, 2, 62, 0
8, 130560, Note_on_c, 2, 63, 48
8, 130560, Note_on_c, 2, 70, 48
8, 131039, Note_on_c, 2, 63, 0
8, 131040, Note_on_c, 2, 67, 48
8, 131279, Note_on_c, 2, 67, 0
8, 131280, Note_on_c, 2, 63, 48
8, 131519, Note_on_c, 2, 70, 0
8, 131519, Note_on_c, 2, 63, 0
8, 132480, Note_on_c, 2, 70, 48
8, 132480, Note_on_c, 2, 63, 48
8, 132719, Note_on_c, 2, 63, 0
8, 132720, Note_on_c, 2, 67, 48
8, 133199, Note_on_c, 2, 67, 0
8, 133200, Note_on_c, 2, 63, 48
8, 133439, Note_on_c, 2, 70, 0
8, 133439, Note_on_c, 2, 63, 0
8, 133440, Note_on_c, 2, 65, 48
8, 133440, Note_on_c, 2, 70, 48
8, 133919, Note_on_c, 2, 65, 0
8, 133920, Note_on_c, 2, 68, 48
8, 134159, Note_on_c, 2, 68, 0
8, 134160, Note_on_c, 2, 65, 48
8, 134399, Note_on_c, 2, 70, 0
8, 134399, Note_on_c, 2, 65, 0
8, 134880, Control_c, 2, 11, 96
8, 135360, Note_on_c, 2, 65, 68
8, 135599, Note_on_c, 2, 65, 0
8, 135600, Note_on_c, 2, 68, 68
8, 135600, Control_c, 2, 11, 96
8, 135680, Control_c, 2, 11, 98
8, 135760, Control_c, 2, 11, 99
8, 135840, Control_c, 2, 11, 101
8, 135920, Control_c, 2, 11, 103
8, 136000, Control_c, 2, 11, 105
8, 136079, Note_on_c, 2, 68, 0
8, 136080, Control_c, 2, 11, 106
8, 136080, Note_on_c, 2, 65, 68
8, 136160, Control_c, 2, 11, 108
8, 136240, Control_c, 2, 11, 110
8, 136319, Note_on_c, 2, 65, 0
8, 136320, Note_on_c, 2, 67, 68
8, 136320, Control_c, 2, 11, 112
8, 136400, Control_c, 2, 11, 113
8, 136480, Control_c, 2, 11, 115
8, 136560, Control_c, 2, 11, 117
8, 136640, Control_c, 2, 11, 118
8, 136720, Control_c, 2, 11, 120
8, 136799, Note_on_c, 2, 67, 0
8, 136800, Note_on_c, 2, 68, 68
8, 136800, Control_c, 2, 11, 122
8, 136880, Control_c, 2, 11, 124
8, 136960, Control_c, 2, 11, 127
8, 137039, Note_on_c, 2, 68, 0
8, 137040, Note_on_c, 2, 70, 76
8, 137160, Control_c, 2, 11, 112
8, 137233, Control_c, 2, 11, 110
8, 137307, Control_c, 2, 11, 108
8, 137380, Control_c, 2, 11, 107
8, 137453, Control_c, 2, 11, 105
8, 137527, Control_c, 2, 11, 103
8, 137600, Control_c, 2, 11, 101
8, 137673, Control_c, 2, 11, 100
8, 137747, Control_c, 2, 11, 98
8, 137820, Control_c, 2, 11, 96
8, 137893, Control_c, 2, 11, 94
8, 137967, Control_c, 2, 11, 92
8, 138040, Control_c, 2, 11, 91
8, 138113, Control_c, 2, 11, 89
8, 138187, Control_c, 2, 11, 87
8, 138209, Note_on_c, 2, 70, 0
8, 138240, Note_on_c, 2, 70, 76
8, 138260, Control_c, 2, 11, 85
8, 138333, Control_c, 2, 11, 84
8, 138407, Control_c, 2, 11, 80
8, 138479, Note_on_c, 2, 70, 0
8, 138480, Note_on_c, 2, 68, 76
8, 138719, Note_on_c, 2, 68, 0
8, 138960, Note_on_c, 2, 68, 76
8, 139169, Note_on_c, 2, 68, 0
8, 139200, Note_on_c, 2, 67, 76
8, 139649, Note_on_c, 2, 67, 0
8, 139680, Note_on_c, 2, 67, 76
8, 139889, Note_on_c, 2, 67, 0
8, 139920, Note_on_c, 2, 65, 76
8, 140159, Note_on_c, 2, 65, 0
8, 140880, Control_c, 2, 11, 127
8, 141120, Note_on_c, 2, 70, 52
8, 141120, Note_on_c, 2, 62, 52
8, 141239, Note_on_c, 2, 62, 0
8, 141240, Note_on_c, 2, 63, 52
8, 141359, Note_on_c, 2, 63, 0
8, 141360, Note_on_c, 2, 65, 52
8, 141839, Note_on_c, 2, 65, 0
8, 141840, Note_on_c, 2, 62, 52
8, 142079, Note_on_c, 2, 70, 0
8, 142079, Note_on_c, 2, 62, 0
8, 142080, Note_on_c, 2, 70, 52
8, 142080, Note_on_c, 2, 63, 52
8, 142559, Note_on_c, 2, 63, 0
8, 142560, Note_on_c, 2, 67, 52
8, 142799, Note_on_c, 2, 67, 0
8, 142800, Note_on_c, 2, 63, 52
8, 143039, Note_on_c, 2, 70, 0
8, 143039, Note_on_c, 2, 63, 0
8, 144000, Note_on_c, 2, 63, 52
8, 144000, Note_on_c, 2, 70, 52
8, 144119, Note_on_c, 2, 63, 0
8, 144120, Note_on_c, 2, 65, 52
8, 144239, Note_on_c, 2, 65, 0
8, 144240, Note_on_c, 2, 67, 52
8, 144719, Note_on_c, 2, 67, 0
8, 144720, Note_on_c, 2, 63, 52
8, 144959, Note_on_c, 2, 70, 0
8, 144959, Note_on_c, 2, 63, 0
8, 144960, Note_on_c, 2, 70, 52
8, 144960, Note_on_c, 2, 65, 52
8, 145439, Note_on_c, 2, 65, 0
8, 145440, Note_on_c, 2, 68, 52
8, 145679, Note_on_c, 2, 68, 0
8, 145680, Note_on_c, 2, 65, 52
8, 145919, Note_on_c, 2, 70, 0
8, 145919, Note_on_c, 2, 65, 0
8, 146400, Control_c, 2, 11, 96
8, 146880, Note_on_c, 2, 62, 68
8, 146880, Note_on_c, 2, 70, 68
8, 146999, Note_on_c, 2, 62, 0
8, 146999, Note_on_c, 2, 70, 0
8, 147000, Note_on_c, 2, 63, 68
8, 147000, Note_on_c, 2, 72, 68
8, 147119, Note_on_c, 2, 63, 0
8, 147119, Note_on_c, 2, 72, 0
8, 147120, Control_c, 2, 11, 96
8, 147120, Note_on_c, 2, 65, 68
8, 147120, Note_on_c, 2, 74, 68
8, 147200, Control_c, 2, 11, 98
8, 147280, Control_c, 2, 11, 99
8, 147360, Control_c, 2, 11, 101
8, 147440, Control_c, 2, 11, 103
8, 147520, Control_c, 2, 11, 105
8, 147599, Note_on_c, 2, 65, 0
8, 147599, Note_on_c, 2, 74, 0
8, 147600, Note_on_c, 2, 62, 68
8, 147600, Note_on_c, 2, 70, 68
8, 147600, Control_c, 2, 11, 106
8, 147680, Control_c, 2, 11, 108
8, 147760, Control_c, 2, 11, 110
8, 147839, Note_on_c, 2, 62, 0
8, 147839, Note_on_c, 2, 70, 0
8, 147840, Note_on_c, 2, 72, 68
8, 147840, Control_c, 2, 11, 112
8, 147840, Note_on_c, 2, 63, 68
8, 147920, Control_c, 2, 11, 113
8, 148000, Control_c, 2, 11, 115
8, 148080, Control_c, 2, 11, 117
8, 148160, Control_c, 2, 11, 118
8, 148240, Control_c, 2, 11, 120
8, 148319, Note_on_c, 2, 72, 0
8, 148319, Note_on_c, 2, 63, 0
8, 148320, Note_on_c, 2, 74, 68
8, 148320, Note_on_c, 2, 65, 68
8, 148320, Control_c, 2, 11, 122
8, 148400, Control_c, 2, 11, 124
8, 148480, Control_c, 2, 11, 127
8, 148529, Note_on_c, 2, 74, 0
8, 148529, Note_on_c, 2, 65, 0
8, 148560, Note_on_c, 2, 67, 76
8, 148560, Note_on_c, 2, 75, 76
8, 148680, Control_c, 2, 11, 112
8, 148753, Control_c, 2, 11, 110
8, 148827, Control_c, 2, 11, 108
8, 148900, Control_c, 2, 11, 107
8, 148973, Control_c, 2, 11, 105
8, 149047, Control_c, 2, 11, 103
8, 149120, Control_c, 2, 11, 101
8, 149193, Control_c, 2, 11, 100
8, 149267, Control_c, 2, 11, 98
8, 149340, Control_c, 2, 11, 96
8, 149413, Control_c, 2, 11, 94
8, 149487, Control_c, 2, 11, 92
8, 149560, Control_c, 2, 11, 91
8, 149633, Control_c, 2, 11, 89
8, 149707, Control_c, 2, 11, 87
8, 149729, Note_on_c, 2, 67, 0
8, 149729, Note_on_c, 2, 75, 0
8, 149760, Note_on_c, 2, 65, 76
8, 149760, Note_on_c, 2, 74, 76
8, 149780, Control_c, 2, 11, 85
8, 149853, Control_c, 2, 11, 84
8, 149927, Control_c, 2, 11, 80
8, 149969, Note_on_c, 2, 65, 0
8, 149969, Note_on_c, 2, 74, 0
8, 150000, Note_on_c, 2, 69, 76
8, 150000, Note_on_c, 2, 63, 76
8, 150239, Note_on_c, 2, 69, 0
8, 150239, Note_on_c, 2, 63, 0
8, 150480, Note_on_c, 2, 63, 76
8, 150480, Note_on_c, 2, 72, 76
8, 150689, Note_on_c, 2, 63, 0
8, 150689, Note_on_c, 2, 72, 0
8, 150720, Note_on_c, 2, 72, 76
8, 150720, Note_on_c, 2, 63, 76
8, 150779, Note_on_c, 2, 72, 0
8, 150779, Note_on_c, 2, 63, 0
8, 150780, Note_on_c, 2, 74, 76
8, 150780, Note_on_c, 2, 65, 76
8, 150839, Note_on_c, 2, 74, 0
8, 150839, Note_on_c, 2, 65, 0
8, 150840, Note_on_c, 2, 72, 76
8, 150840, Note_on_c, 2, 63, 76
8, 150899, Note_on_c, 2, 72, 0
8, 150899, Note_on_c, 2, 63, 0
8, 150900, Note_on_c, 2, 65, 76
8, 150900, Note_on_c, 2, 74, 76
8, 150959, Note_on_c, 2, 65, 0
8, 150959, Note_on_c, 2, 74, 0
8, 150960, Note_on_c, 2, 63, 76
8, 150960, Note_on_c, 2, 72, 76
8, 151019, Note_on_c, 2, 63, 0
8, 151019, Note_on_c, 2, 72, 0
8, 151020, Note_on_c, 2, 74, 76
8, 151020, Note_on_c, 2, 65, 76
8, 151079, Note_on_c, 2, 74, 0
8, 151079, Note_on_c, 2, 65, 0
8, 151080, Note_on_c, 2, 62, 76
8, 151080, Note_on_c, 2, 71, 76
8, 151184, Note_on_c, 2, 62, 0
8, 151184, Note_on_c, 2, 71, 0
8, 151200, Note_on_c, 2, 63, 76
8, 151200, Note_on_c, 2, 72, 76
8, 151409, Note_on_c, 2, 63, 0
8, 151409, Note_on_c, 2, 72, 0
8, 151440, Note_on_c, 2, 72, 76
8, 151440, Note_on_c, 2, 63, 76
8, 151679, Note_on_c, 2, 72, 0
8, 151679, Note_on_c, 2, 63, 0
8, 165120, Control_c, 2, 11, 48
8, 165600, Note_on_c, 2, 62, 84
8, 165600, Note_on_c, 2, 70, 84
8, 165839, Note_on_c, 2, 62, 0
8, 165839, Note_on_c, 2, 70, 0
8, 165840, Note_on_c, 2, 65, 84
8, 165840, Control_c, 2, 11, 48
8, 165840, Note_on_c, 2, 74, 84
8, 165977, Control_c, 2, 11, 49
8, 166113, Control_c, 2, 11, 50
8, 166250, Control_c, 2, 11, 51
8, 166319, Note_on_c, 2, 65, 0
8, 166319, Note_on_c, 2, 74, 0
8, 166320, Note_on_c, 2, 70, 84
8, 166320, Note_on_c, 2, 62, 84
8, 166387, Control_c, 2, 11, 52
8, 166524, Control_c, 2, 11, 53
8, 166559, Note_on_c, 2, 70, 0
8, 166559, Note_on_c, 2, 62, 0
8, 166560, Note_on_c, 2, 72, 84
8, 166560, Note_on_c, 2, 63, 84
8, 166660, Control_c, 2, 11, 54
8, 166797, Control_c, 2, 11, 55
8, 166934, Control_c, 2, 11, 56
8, 167039, Note_on_c, 2, 72, 0
8, 167039, Note_on_c, 2, 63, 0
8, 167040, Note_on_c, 2, 67, 84
8, 167040, Note_on_c, 2, 75, 84
8, 167070, Control_c, 2, 11, 57
8, 167207, Control_c, 2, 11, 58
8, 167279, Note_on_c, 2, 67, 0
8, 167279, Note_on_c, 2, 75, 0
8, 167280, Note_on_c, 2, 63, 84
8, 167280, Note_on_c, 2, 72, 84
8, 167344, Control_c, 2, 11, 59
8, 167481, Control_c, 2, 11, 60
8, 167519, Note_on_c, 2, 63, 0
8, 167519, Note_on_c, 2, 72, 0
8, 167617, Control_c, 2, 11, 61
8, 168437, Control_c, 2, 11, 67
8, 168480, Note_on_c, 2, 63, 84
8, 168480, Note_on_c, 2, 72, 84
8, 168574, Control_c, 2, 11, 68
8, 168711, Control_c, 2, 11, 69
8, 168719, Note_on_c, 2, 63, 0
8, 168719, Note_on_c, 2, 72, 0
8, 168720, Note_on_c, 2, 75, 84
8, 168720, Note_on_c, 2, 67, 84
8, 168848, Control_c, 2, 11, 70
8, 168984, Control_c, 2, 11, 71
8, 169121, Control_c, 2, 11, 72
8, 169199, Note_on_c, 2, 75, 0
8, 169199, Note_on_c, 2, 67, 0
8, 169200, Note_on_c, 2, 72, 84
8, 169200, Note_on_c, 2, 63, 84
8, 169258, Control_c, 2, 11, 73
8, 169394, Control_c, 2, 11, 74
8, 169439, Note_on_c, 2, 72, 0
8, 169439, Note_on_c, 2, 63, 0
8, 169440, Note_on_c, 2, 65, 84
8, 169440, Note_on_c, 2, 74, 84
8, 169531, Control_c, 2, 11, 75
8, 169668, Control_c, 2, 11, 76
8, 169805, Control_c, 2, 11, 77
8, 169919, Note_on_c, 2, 65, 0
8, 169919, Note_on_c, 2, 74, 0
8, 169920, Note_on_c, 2, 77, 84
8, 169920, Note_on_c, 2, 68, 84
8, 169941, Control_c, 2, 11, 78
8, 170078, Control_c, 2, 11, 79
8, 170159, Note_on_c, 2, 77, 0
8, 170159, Note_on_c, 2, 68, 0
8, 170160, Note_on_c, 2, 65, 84
8, 170160, Note_on_c, 2, 74, 84
8, 170215, Control_c, 2, 11, 80
8, 170351, Control_c, 2, 11, 81
8, 170399, Note_on_c, 2, 65, 0
8, 170399, Note_on_c, 2, 74, 0
8, 170488, Control_c, 2, 11, 82
8, 171308, Control_c, 2, 11, 88
8, 171360, Note_on_c, 2, 70, 84
8, 171360, Note_on_c, 2, 74, 84
8, 171445, Control_c, 2, 11, 89
8, 171582, Control_c, 2, 11, 90
8, 171599, Note_on_c, 2, 70, 0
8, 171599, Note_on_c, 2, 74, 0
8, 171600, Note_on_c, 2, 74, 84
8, 171600, Note_on_c, 2, 77, 84
8, 171718, Control_c, 2, 11, 91
8, 171855, Control_c, 2, 11, 92
8, 171992, Control_c, 2, 11, 93
8, 172079, Note_on_c, 2, 74, 0
8, 172079, Note_on_c, 2, 77, 0
8, 172080, Note_on_c, 2, 70, 84
8, 172080, Note_on_c, 2, 74, 84
8, 172129, Control_c, 2, 11, 94
8, 172265, Control_c, 2, 11, 95
8, 172319, Note_on_c, 2, 70, 0
8, 172319, Note_on_c, 2, 74, 0
8, 172320, Note_on_c, 2, 75, 84
8, 172320, Note_on_c, 2, 72, 84
8, 172402, Control_c, 2, 11, 96
8, 172539, Control_c, 2, 11, 97
8, 172675, Control_c, 2, 11, 98
8, 172799, Note_on_c, 2, 75, 0
8, 172799, Note_on_c, 2, 72, 0
8, 172800, Note_on_c, 2, 74, 84
8, 172800, Note_on_c, 2, 77, 84
8, 172812, Control_c, 2, 11, 99
8, 172949, Control_c, 2, 11, 100
8, 173009, Note_on_c, 2, 74, 0
8, 173009, Note_on_c, 2, 77, 0
8, 173040, Note_on_c, 2, 75, 84
8, 173040, Note_on_c, 2, 79, 84
8, 173086, Control_c, 2, 11, 101
8, 173222, Control_c, 2, 11, 102
8, 173359, Control_c, 2, 11, 103
8, 173496, Control_c, 2, 11, 104
8, 173632, Control_c, 2, 11, 105
8, 173769, Control_c, 2, 11, 106
8, 173906, Control_c, 2, 11, 107
8, 174043, Control_c, 2, 11, 108
8, 174179, Control_c, 2, 11, 109
8, 174209, Note_on_c, 2, 75, 0
8, 174209, Note_on_c, 2, 79, 0
8, 174240, Note_on_c, 2, 77, 84
8, 174240, Note_on_c, 2, 74, 84
8, 174316, Control_c, 2, 11, 110
8, 174449, Note_on_c, 2, 77, 0
8, 174449, Note_on_c, 2, 74, 0
8, 174453, Control_c, 2, 11, 111
8, 174480, Note_on_c, 2, 72, 84
8, 174480, Note_on_c, 2, 75, 84
8, 174589, Control_c, 2, 11, 112
8, 174726, Control_c, 2, 11, 113
8, 174863, Control_c, 2, 11, 114
8, 174929, Note_on_c, 2, 72, 0
8, 174929, Note_on_c, 2, 75, 0
8, 174960, Note_on_c, 2, 75, 84
8, 174960, Note_on_c, 2, 72, 84
8, 174999, Control_c, 2, 11, 115
8, 175136, Control_c, 2, 11, 116
8, 175169, Note_on_c, 2, 75, 0
8, 175169, Note_on_c, 2, 72, 0
8, 175200, Note_on_c, 2, 72, 84
8, 175200, Note_on_c, 2, 75, 84
8, 175259, Note_on_c, 2, 72, 0
8, 175259, Note_on_c, 2, 75, 0
8, 175260, Note_on_c, 2, 77, 84
8, 175260, Note_on_c, 2, 74, 84
8, 175273, Control_c, 2, 11, 117
8, 175319, Note_on_c, 2, 77, 0
8, 175319, Note_on_c, 2, 74, 0
8, 175320, Note_on_c, 2, 72, 84
8, 175320, Note_on_c, 2, 75, 84
8, 175379, Note_on_c, 2, 72, 0
8, 175379, Note_on_c, 2, 75, 0
8, 175380, Note_on_c, 2, 74, 84
8, 175380, Note_on_c, 2, 77, 84
8, 175410, Control_c, 2, 11, 118
8, 175439, Note_on_c, 2, 74, 0
8, 175439, Note_on_c, 2, 77, 0
8, 175440, Note_on_c, 2, 72, 84
8, 175440, Note_on_c, 2, 75, 84
8, 175499, Note_on_c, 2, 72, 0
8, 175499, Note_on_c, 2, 75, 0
8, 175500, Note_on_c, 2, 74, 84
8, 175500, Note_on_c, 2, 77, 84
8, 175546, Control_c, 2, 11, 119
8, 175559, Note_on_c, 2, 74, 0
8, 175559, Note_on_c, 2, 77, 0
8, 175560, Note_on_c, 2, 71, 84
8, 175560, Note_on_c, 2, 74, 84
8, 175664, Note_on_c, 2, 71, 0
8, 175664, Note_on_c, 2, 74, 0
8, 175680, Note_on_c, 2, 75, 84
8, 175680, Note_on_c, 2, 72, 84
8, 175683, Control_c, 2, 11, 120
8, 175820, Control_c, 2, 11, 121
8, 175889, Note_on_c, 2, 75, 0
8, 175889, Note_on_c, 2, 72, 0
8, 175920, Note_on_c, 2, 74, 84
8, 175920, Note_on_c, 2, 70, 84
8, 175956, Control_c, 2, 11, 122
8, 176093, Control_c, 2, 11, 123
8, 176159, Note_on_c, 2, 74, 0
8, 176159, Note_on_c, 2, 70, 0
8, 176230, Control_c, 2, 11, 124
8, 176367, Control_c, 2, 11, 125
8, 176503, Control_c, 2, 11, 127
8, 177120, Note_on_c, 2, 74, 84
8, 177120, Note_on_c, 2, 70, 84
8, 177239, Note_on_c, 2, 74, 0
8, 177239, Note_on_c, 2, 70, 0
8, 177240, Note_on_c, 2, 75, 84
8, 177240, Note_on_c, 2, 72, 84
8, 177359, Note_on_c, 2, 75, 0
8, 177359, Note_on_c, 2, 72, 0
8, 177360, Note_on_c, 2, 77, 84
8, 177360, Note_on_c, 2, 74, 84
8, 177839, Note_on_c, 2, 77, 0
8, 177839, Note_on_c, 2, 74, 0
8, 177840, Note_on_c, 2, 70, 84
8, 177840, Note_on_c, 2, 74, 84
8, 178079, Note_on_c, 2, 70, 0
8, 178079, Note_on_c, 2, 74, 0
8, 178080, Note_on_c, 2, 72, 84
8, 178080, Note_on_c, 2, 75, 84
8, 178559, Note_on_c, 2, 72, 0
8, 178559, Note_on_c, 2, 75, 0
8, 178560, Note_on_c, 2, 77, 84
8, 178560, Note_on_c, 2, 74, 84
8, 178769, Note_on_c, 2, 77, 0
8, 178769, Note_on_c, 2, 74, 0
8, 178800, Note_on_c, 2, 79, 92
8, 178800, Note_on_c, 2, 75, 92
8, 179969, Note_on_c, 2, 79, 0
8, 179969, Note_on_c, 2, 75, 0
8, 180000, Note_on_c, 2, 77, 84
8, 180000, Note_on_c, 2, 74, 84
8, 180239, Note_on_c, 2, 77, 0
8, 180239, Note_on_c, 2, 74, 0
8, 180240, Note_on_c, 2, 75, 84
8, 180240, Note_on_c, 2, 72, 84
8, 180479, Note_on_c, 2, 75, 0
8, 180479, Note_on_c, 2, 72, 0
8, 180720, Note_on_c, 2, 72, 84
8, 180720, Note_on_c, 2, 75, 84
8, 180929, Note_on_c, 2, 72, 0
8, 180929, Note_on_c, 2, 75, 0
8, 180960, Note_on_c, 2, 72, 84
8, 180960, Note_on_c, 2, 75, 84
8, 181019, Note_on_c, 2, 72, 0
8, 181019, Note_on_c, 2, 75, 0
8, 181020, Note_on_c, 2, 74, 84
8, 181020, Note_on_c, 2, 77, 84
8, 181079, Note_on_c, 2, 74, 0
8, 181079, Note_on_c, 2, 77, 0
8, 181080, Note_on_c, 2, 75, 84
8, 181080, Note_on_c, 2, 72, 84
8, 181139, Note_on_c, 2, 75, 0
8, 181139, Note_on_c, 2, 72, 0
8, 181140, Note_on_c, 2, 74, 84
8, 181140, Note_on_c, 2, 77, 84
8, 181199, Note_on_c, 2, 74, 0
8, 181199, Note_on_c, 2, 77, 0
8, 181200, Note_on_c, 2, 72, 84
8, 181200, Note_on_c, 2, 75, 84
8, 181259, Note_on_c, 2, 72, 0
8, 181259, Note_on_c, 2, 75, 0
8, 181260, Note_on_c, 2, 77, 84
8, 181260, Note_on_c, 2, 74, 84
8, 181319, Note_on_c, 2, 77, 0
8, 181319, Note_on_c, 2, 74, 0
8, 181320, Note_on_c, 2, 71, 84
8, 181320, Note_on_c, 2, 74, 84
8, 181424, Note_on_c, 2, 71, 0
8, 181424, Note_on_c, 2, 74, 0
8, 181440, Note_on_c, 2, 75, 84
8, 181440, Note_on_c, 2, 72, 84
8, 181649, Note_on_c, 2, 75, 0
8, 181649, Note_on_c, 2, 72, 0
8, 181680, Note_on_c, 2, 70, 84
8, 181680, Note_on_c, 2, 74, 84
8, 181919, Note_on_c, 2, 70, 0
8, 181919, Note_on_c, 2, 74, 0
8, 182880, Note_on_c, 2, 77, 84
8, 182880, Note_on_c, 2, 74, 84
8, 183119, Note_on_c, 2, 77, 0
8, 183119, Note_on_c, 2, 74, 0
8, 183120, Note_on_c, 2, 72, 84
8, 183120, Note_on_c, 2, 75, 84
8, 183359, Note_on_c, 2, 72, 0
8, 183359, Note_on_c, 2, 75, 0
8, 184320, Note_on_c, 2, 69, 84
8, 184320, Note_on_c, 2, 77, 84
8, 184559, Note_on_c, 2, 69, 0
8, 184559, Note_on_c, 2, 77, 0
8, 184560, Note_on_c, 2, 74, 84
8, 184560, Note_on_c, 2, 70, 84
8, 184799, Note_on_c, 2, 74, 0
8, 184799, Note_on_c, 2, 70, 0
8, 185760, Note_on_c, 2, 77, 72
8, 185760, Note_on_c, 2, 74, 72
8, 185999, Note_on_c, 2, 77, 0
8, 185999, Note_on_c, 2, 74, 0
8, 186000, Note_on_c, 2, 75, 68
8, 186000, Note_on_c, 2, 72, 68
8, 186239, Note_on_c, 2, 75, 0
8, 186239, Note_on_c, 2, 72, 0
8, 187200, Note_on_c, 2, 69, 48
8, 187200, Note_on_c, 2, 77, 48
8, 187439, Note_on_c, 2, 69, 0
8, 187439, Note_on_c, 2, 77, 0
8, 187440, Note_on_c, 2, 74, 44
8, 187440, Note_on_c, 2, 70, 44
8, 187679, Note_on_c, 2, 74, 0
8, 187679, Note_on_c, 2, 70, 0
8, 188160, Note_on_c, 2, 74, 44
8, 188160, Note_on_c, 2, 70, 44
8, 188399, Note_on_c, 2, 74, 0
8, 188399, Note_on_c, 2, 70, 0
8, 188880, Note_on_c, 2, 70, 44
8, 188880, Note_on_c, 2, 74, 44
8, 189119, Note_on_c, 2, 70, 0
8, 189119, Note_on_c, 2, 74, 0
8, 189600, Note_on_c, 2, 70, 44
8, 189600, Note_on_c, 2, 74, 44
8, 189839, Note_on_c, 2, 70, 0
8, 189839, Note_on_c, 2, 74, 0
8, 190320, Note_on_c, 2, 70, 44
8, 190320, Note_on_c, 2, 74, 44
8, 190559, Note_on_c, 2, 70, 0
8, 190559, Note_on_c, 2, 74, 0
8, 192960, Note_on_c, 2, 63, 76
8, 192960, Note_on_c, 2, 69, 76
8, 193199, Note_on_c, 2, 63, 0
8, 193199, Note_on_c, 2, 69, 0
8, 193200, Note_on_c, 2, 62, 84
8, 193200, Note_on_c, 2, 70, 84
8, 193319, Note_on_c, 2, 62, 0
8, 193319, Note_on_c, 2, 70, 0
8, 193440, Note_on_c, 2, 62, 84
8, 193440, Note_on_c, 2, 58, 84
8, 193889, Note_on_c, 2, 62, 0
8, 193889, Note_on_c, 2, 58, 0
8, 193920, Note_on_c, 2, 62, 84
8, 193920, Note_on_c, 2, 58, 84
8, 194369, Note_on_c, 2, 62, 0
8, 194369, Note_on_c, 2, 58, 0
8, 194400, Note_on_c, 2, 58, 84
8, 194400, Note_on_c, 2, 62, 84
8, 194609, Note_on_c, 2, 58, 0
8, 194609, Note_on_c, 2, 62, 0
8, 194640, Note_on_c, 2, 63, 84
8, 194640, Note_on_c, 2, 60, 84
8, 195089, Note_on_c, 2, 63, 0
8, 195089, Note_on_c, 2, 60, 0
8, 195120, Note_on_c, 2, 60, 84
8, 195120, Note_on_c, 2, 63, 84
8, 195329, Note_on_c, 2, 60, 0
8, 195329, Note_on_c, 2, 63, 0
8, 195360, Note_on_c, 2, 60, 84
8, 195360, Note_on_c, 2, 63, 84
8, 195599, Note_on_c, 2, 60, 0
8, 195599, Note_on_c, 2, 63, 0
8, 195840, Note_on_c, 2, 65, 52
8, 196079, Note_on_c, 2, 65, 0
8, 196080, Note_on_c, 2, 66, 52
8, 196319, Note_on_c, 2, 66, 0
8, 196320, Note_on_c, 2, 69, 52
8, 196559, Note_on_c, 2, 69, 0
8, 196560, Note_on_c, 2, 72, 52
8, 196799, Note_on_c, 2, 72, 0
8, 196800, Note_on_c, 2, 75, 52
8, 197039, Note_on_c, 2, 75, 0
8, 197040, Note_on_c, 2, 77, 52
8, 197279, Note_on_c, 2, 77, 0
8, 198720, Note_on_c, 2, 63, 52
8, 198959, Note_on_c, 2, 63, 0
8, 198960, Note_on_c, 2, 61, 52
8, 199199, Note_on_c, 2, 61, 0
8, 199200, Note_on_c, 2, 64, 52
8, 199439, Note_on_c, 2, 64, 0
8, 199440, Note_on_c, 2, 67, 52
8, 199679, Note_on_c, 2, 67, 0
8, 199680, Note_on_c, 2, 70, 52
8, 199919, Note_on_c, 2, 70, 0
8, 199920, Note_on_c, 2, 72, 52
8, 200159, Note_on_c, 2, 72, 0
8, 204480, Note_on_c, 2, 67, 76
8, 204480, Note_on_c, 2, 70, 76
8, 204659, Note_on_c, 2, 67, 0
8, 204659, Note_on_c, 2, 70, 0
8, 204720, Note_on_c, 2, 69, 84
8, 204720, Note_on_c, 2, 65, 84
8, 205409, Note_on_c, 2, 69, 0
8, 205409, Note_on_c, 2, 65, 0
8, 205440, Note_on_c, 2, 72, 84
8, 205440, Note_on_c, 2, 69, 84
8, 206129, Note_on_c, 2, 72, 0
8, 206129, Note_on_c, 2, 69, 0
8, 206160, Note_on_c, 2, 72, 84
8, 206160, Note_on_c, 2, 69, 84
8, 206369, Note_on_c, 2, 72, 0
8, 206369, Note_on_c, 2, 69, 0
8, 206400, Note_on_c, 2, 72, 84
8, 206400, Note_on_c, 2, 69, 84
8, 206609, Note_on_c, 2, 72, 0
8, 206609, Note_on_c, 2, 69, 0
8, 206640, Note_on_c, 2, 72, 84
8, 206640, Note_on_c, 2, 69, 84
8, 206849, Note_on_c, 2, 72, 0
8, 206849, Note_on_c, 2, 69, 0
8, 206880, Note_on_c, 2, 65, 84
8, 206880, Note_on_c, 2, 69, 84
8, 207119, Note_on_c, 2, 65, 0
8, 207119, Note_on_c, 2, 69, 0
8, 224880, Note_on_c, 2, 72, 52
8, 224880, Note_on_c, 2, 75, 52
8, 225119, Note_on_c, 2, 72, 0
8, 225119, Note_on_c, 2, 75, 0
8, 230400, Note_on_c, 2, 69, 76
8, 230639, Note_on_c, 2, 69, 0
8, 230640, Note_on_c, 2, 70, 84
8, 230759, Note_on_c, 2, 70, 0
8, 230880, Note_on_c, 2, 65, 84
8, 231119, Note_on_c, 2, 65, 0
8, 231120, Note_on_c, 2, 74, 84
8, 231239, Note_on_c, 2, 74, 0
8, 231360, Note_on_c, 2, 70, 84
8, 231599, Note_on_c, 2, 70, 0
8, 231600, Note_on_c, 2, 77, 84
8, 231719, Note_on_c, 2, 77, 0
8, 231840, Note_on_c, 2, 74, 84
8, 232049, Note_on_c, 2, 74, 0
8, 232080, Note_on_c, 2, 77, 84
8, 232319, Note_on_c, 2, 77, 0
8, 232320, Note_on_c, 2, 75, 84
8, 232529, Note_on_c, 2, 75, 0
8, 232560, Note_on_c, 2, 72, 84
8, 232739, Note_on_c, 2, 72, 0
8, 232800, Note_on_c, 2, 69, 84
8, 233039, Note_on_c, 2, 69, 0
8, 233280, Note_on_c, 2, 65, 52
8, 233519, Note_on_c, 2, 65, 0
8, 233520, Note_on_c, 2, 66, 52
8, 233759, Note_on_c, 2, 66, 0
8, 233760, Note_on_c, 2, 69, 52
8, 233999, Note_on_c, 2, 69, 0
8, 234000, Note_on_c, 2, 72, 52
8, 234239, Note_on_c, 2, 72, 0
8, 234240, Note_on_c, 2, 75, 52
8, 234479, Note_on_c, 2, 75, 0
8, 234480, Note_on_c, 2, 77, 52
8, 234719, Note_on_c, 2, 77, 0
8, 236160, Note_on_c, 2, 67, 52
8, 236399, Note_on_c, 2, 67, 0
8, 236400, Note_on_c, 2, 68, 52
8, 236639, Note_on_c, 2, 68, 0
8, 236640, Note_on_c, 2, 71, 52
8, 236879, Note_on_c, 2, 71, 0
8, 236880, Note_on_c, 2, 74, 52
8, 237119, Note_on_c, 2, 74, 0
8, 237120, Note_on_c, 2, 77, 52
8, 237359, Note_on_c, 2, 77, 0
8, 237360, Note_on_c, 2, 79, 52
8, 237599, Note_on_c, 2, 79, 0
8, 239040, Note_on_c, 2, 73, 52
8, 239279, Note_on_c, 2, 73, 0
8, 239280, Note_on_c, 2, 70, 52
8, 239519, Note_on_c, 2, 70, 0
8, 239520, Note_on_c, 2, 67, 52
8, 239759, Note_on_c, 2, 67, 0
8, 239760, Note_on_c, 2, 64, 52
8, 239999, Note_on_c, 2, 64, 0
8, 240000, Note_on_c, 2, 61, 52
8, 240239, Note_on_c, 2, 61, 0
8, 240240, Note_on_c, 2, 60, 52
8, 240479, Note_on_c, 2, 60, 0
8, 240480, Note_on_c, 2, 64, 52
8, 240689, Note_on_c, 2, 64, 0
8, 240720, Note_on_c, 2, 65, 52
8, 240959, Note_on_c, 2, 65, 0
8, 240960, Note_on_c, 2, 69, 52
8, 241199, Note_on_c, 2, 69, 0
8, 241200, Note_on_c, 2, 72, 52
8, 241439, Note_on_c, 2, 72, 0
8, 241440, Note_on_c, 2, 75, 52
8, 241679, Note_on_c, 2, 75, 0
8, 241680, Note_on_c, 2, 77, 52
8, 241919, Note_on_c, 2, 77, 0
8, 241920, Note_on_c, 2, 78, 52
8, 242159, Note_on_c, 2, 78, 0
8, 242160, Note_on_c, 2, 77, 52
8, 242399, Note_on_c, 2, 77, 0
8, 242400, Note_on_c, 2, 75, 55
8, 242639, Note_on_c, 2, 75, 0
8, 242640, Note_on_c, 2, 72, 58
8, 242879, Note_on_c, 2, 72, 0
8, 242880, Note_on_c, 2, 69, 61
8, 243119, Note_on_c, 2, 69, 0
8, 243120, Note_on_c, 2, 65, 64
8, 243329, Note_on_c, 2, 65, 0
8, 243360, Note_on_c, 2, 66, 76
8, 243599, Note_on_c, 2, 66, 0
8, 243600, Note_on_c, 2, 65, 52
8, 243839, Note_on_c, 2, 65, 0
8, 243840, Note_on_c, 2, 69, 52
8, 244079, Note_on_c, 2, 69, 0
8, 244080, Note_on_c, 2, 72, 52
8, 244319, Note_on_c, 2, 72, 0
8, 244320, Note_on_c, 2, 75, 52
8, 244559, Note_on_c, 2, 75, 0
8, 244560, Note_on_c, 2, 77, 52
8, 244799, Note_on_c, 2, 77, 0
8, 244800, Note_on_c, 2, 78, 52
8, 245039, Note_on_c, 2, 78, 0
8, 245040, Note_on_c, 2, 77, 52
8, 245279, Note_on_c, 2, 77, 0
8, 245280, Note_on_c, 2, 75, 55
8, 245519, Note_on_c, 2, 75, 0
8, 245520, Note_on_c, 2, 72, 58
8, 245759, Note_on_c, 2, 72, 0
8, 245760, Note_on_c, 2, 69, 61
8, 245999, Note_on_c, 2, 69, 0
8, 246000, Note_on_c, 2, 65, 64
8, 246209, Note_on_c, 2, 65, 0
8, 246240, Note_on_c, 2, 66, 76
8, 246479, Note_on_c, 2, 66, 0
8, 246480, Note_on_c, 2, 65, 68
8, 246689, Note_on_c, 2, 65, 0
8, 246720, Note_on_c, 2, 72, 76
8, 246720, Note_on_c, 2, 75, 76
8, 247169, Note_on_c, 2, 72, 0
8, 247169, Note_on_c, 2, 75, 0
8, 247200, Note_on_c, 2, 70, 76
8, 247200, Note_on_c, 2, 74, 76
8, 247649, Note_on_c, 2, 70, 0
8, 247649, Note_on_c, 2, 74, 0
8, 247680, Note_on_c, 2, 67, 76
8, 247680, Note_on_c, 2, 70, 76
8, 247889, Note_on_c, 2, 67, 0
8, 247889, Note_on_c, 2, 70, 0
8, 247920, Note_on_c, 2, 62, 84
8, 247920, Note_on_c, 2, 70, 84
8, 248609, Note_on_c, 2, 62, 0
8, 248609, Note_on_c, 2, 70, 0
8, 248640, Note_on_c, 2, 69, 84
8, 248640, Note_on_c, 2, 63, 84
8, 249329, Note_on_c, 2, 69, 0
8, 249329, Note_on_c, 2, 63, 0
8, 249360, Note_on_c, 2, 62, 84
8, 249360, Note_on_c, 2, 70, 84
8, 249599, Note_on_c, 2, 62, 0
8, 249599, Note_on_c, 2, 70, 0
8, 250800, Note_on_c, 2, 69, 84
8, 251039, Note_on_c, 2, 69, 0
8, 251040, Note_on_c, 2, 65, 84
8, 251159, Note_on_c, 2, 65, 0
8, 251280, Note_on_c, 2, 72, 84
8, 251519, Note_on_c, 2, 72, 0
8, 251520, Note_on_c, 2, 69, 84
8, 251639, Note_on_c, 2, 69, 0
8, 251760, Note_on_c, 2, 75, 84
8, 251999, Note_on_c, 2, 75, 0
8, 252000, Note_on_c, 2, 72, 84
8, 252119, Note_on_c, 2, 72, 0
8, 252240, Note_on_c, 2, 70, 84
8, 252479, Note_on_c, 2, 70, 0
8, 253680, Note_on_c, 2, 69, 84
8, 253919, Note_on_c, 2, 69, 0
8, 253920, Note_on_c, 2, 65, 84
8, 254039, Note_on_c, 2, 65, 0
8, 254160, Note_on_c, 2, 72, 84
8, 254399, Note_on_c, 2, 72, 0
8, 254400, Note_on_c, 2, 69, 84
8, 254519, Note_on_c, 2, 69, 0
8, 254640, Note_on_c, 2, 75, 84
8, 254879, Note_on_c, 2, 75, 0
8, 254880, Note_on_c, 2, 72, 84
8, 254999, Note_on_c, 2, 72, 0
8, 255120, Note_on_c, 2, 70, 76
8, 255120, Note_on_c, 2, 62, 76
8, 255809, Note_on_c, 2, 70, 0
8, 255809, Note_on_c, 2, 62, 0
8, 255840, Note_on_c, 2, 74, 76
8, 255840, Note_on_c, 2, 70, 76
8, 256529, Note_on_c, 2, 74, 0
8, 256529, Note_on_c, 2, 70, 0
8, 256560, Note_on_c, 2, 77, 76
8, 256560, Note_on_c, 2, 74, 76
8, 256769, Note_on_c, 2, 77, 0
8, 256769, Note_on_c, 2, 74, 0
8, 256800, Note_on_c, 2, 74, 76
8, 256800, Note_on_c, 2, 77, 76
8, 257009, Note_on_c, 2, 74, 0
8, 257009, Note_on_c, 2, 77, 0
8, 257040, Note_on_c, 2, 77, 76
8, 257040, Note_on_c, 2, 74, 76
8, 257249, Note_on_c, 2, 77, 0
8, 257249, Note_on_c, 2, 74, 0
8, 257280, Note_on_c, 2, 70, 76
8, 257280, Note_on_c, 2, 62, 76
8, 257519, Note_on_c, 2, 70, 0
8, 257519, Note_on_c, 2, 62, 0
8, 257760, Note_on_c, 2, 70, 48
8, 257760, Note_on_c, 2, 62, 48
8, 257999, Note_on_c, 2, 62, 0
8, 258000, Note_on_c, 2, 65, 48
8, 258479, Note_on_c, 2, 65, 0
8, 258480, Note_on_c, 2, 62, 48
8, 258719, Note_on_c, 2, 70, 0
8, 258719, Note_on_c, 2, 62, 0
8, 258720, Note_on_c, 2, 63, 48
8, 258720, Note_on_c, 2, 70, 48
8, 259199, Note_on_c, 2, 63, 0
8, 259200, Note_on_c, 2, 67, 48
8, 259439, Note_on_c, 2, 67, 0
8, 259440, Note_on_c, 2, 63, 48
8, 259679, Note_on_c, 2, 70, 0
8, 259679, Note_on_c, 2, 63, 0
8, 260640, Note_on_c, 2, 63, 48
8, 260640, Note_on_c, 2, 70, 48
8, 260879, Note_on_c, 2, 63, 0
8, 260880, Note_on_c, 2, 67, 48
8, 261359, Note_on_c, 2, 67, 0
8, 261360, Note_on_c, 2, 63, 48
8, 261599, Note_on_c, 2, 70, 0
8, 261599, Note_on_c, 2, 63, 0
8, 261600, Note_on_c, 2, 65, 48
8, 261600, Note_on_c, 2, 70, 48
8, 262079, Note_on_c, 2, 65, 0
8, 262080, Note_on_c, 2, 68, 48
8, 262319, Note_on_c, 2, 68, 0
8, 262320, Note_on_c, 2, 65, 48
8, 262559, Note_on_c, 2, 70, 0
8, 262559, Note_on_c, 2, 65, 0
8, 263040, Control_c, 2, 11, 96
8, 263520, Note_on_c, 2, 65, 68
8, 263759, Note_on_c, 2, 65, 0
8, 263760, Note_on_c, 2, 68, 68
8, 263760, Control_c, 2, 11, 96
8, 263840, Control_c, 2, 11, 98
8, 263920, Control_c, 2, 11, 99
8, 264000, Control_c, 2, 11, 101
8, 264080, Control_c, 2, 11, 103
8, 264160, Control_c, 2, 11, 105
8, 264239, Note_on_c, 2, 68, 0
8, 264240, Note_on_c, 2, 65, 68
8, 264240, Control_c, 2, 11, 106
8, 264320, Control_c, 2, 11, 108
8, 264400, Control_c, 2, 11, 110
8, 264479, Note_on_c, 2, 65, 0
8, 264480, Control_c, 2, 11, 112
8, 264480, Note_on_c, 2, 67, 68
8, 264560, Control_c, 2, 11, 113
8, 264640, Control_c, 2, 11, 115
8, 264720, Control_c, 2, 11, 117
8, 264800, Control_c, 2, 11, 118
8, 264880, Control_c, 2, 11, 120
8, 264959, Note_on_c, 2, 67, 0
8, 264960, Control_c, 2, 11, 122
8, 264960, Note_on_c, 2, 68, 68
8, 265040, Control_c, 2, 11, 124
8, 265120, Control_c, 2, 11, 127
8, 265199, Note_on_c, 2, 68, 0
8, 265200, Note_on_c, 2, 70, 76
8, 265320, Control_c, 2, 11, 112
8, 265393, Control_c, 2, 11, 110
8, 265467, Control_c, 2, 11, 108
8, 265540, Control_c, 2, 11, 107
8, 265613, Control_c, 2, 11, 105
8, 265687, Control_c, 2, 11, 103
8, 265760, Control_c, 2, 11, 101
8, 265833, Control_c, 2, 11, 100
8, 265907, Control_c, 2, 11, 98
8, 265980, Control_c, 2, 11, 96
8, 266053, Control_c, 2, 11, 94
8, 266127, Control_c, 2, 11, 92
8, 266200, Control_c, 2, 11, 91
8, 266273, Control_c, 2, 11, 89
8, 266347, Control_c, 2, 11, 87
8, 266369, Note_on_c, 2, 70, 0
8, 266400, Note_on_c, 2, 70, 76
8, 266420, Control_c, 2, 11, 85
8, 266493, Control_c, 2, 11, 84
8, 266567, Control_c, 2, 11, 80
8, 266639, Note_on_c, 2, 70, 0
8, 266640, Note_on_c, 2, 68, 76
8, 266879, Note_on_c, 2, 68, 0
8, 267120, Note_on_c, 2, 68, 76
8, 267329, Note_on_c, 2, 68, 0
8, 267360, Note_on_c, 2, 67, 76
8, 267809, Note_on_c, 2, 67, 0
8, 267840, Note_on_c, 2, 67, 76
8, 268049, Note_on_c, 2, 67, 0
8, 268080, Note_on_c, 2, 65, 76
8, 268319, Note_on_c, 2, 65, 0
8, 269040, Control_c, 2, 11, 127
8, 269280, Note_on_c, 2, 62, 52
8, 269280, Note_on_c, 2, 70, 52
8, 269399, Note_on_c, 2, 62, 0
8, 269400, Note_on_c, 2, 63, 52
8, 269519, Note_on_c, 2, 63, 0
8, 269520, Note_on_c, 2, 65, 52
8, 269999, Note_on_c, 2, 65, 0
8, 270000, Note_on_c, 2, 62, 52
8, 270239, Note_on_c, 2, 70, 0
8, 270239, Note_on_c, 2, 62, 0
8, 270240, Note_on_c, 2, 63, 52
8, 270240, Note_on_c, 2, 70, 52
8, 270719, Note_on_c, 2, 63, 0
8, 270720, Note_on_c, 2, 67, 52
8, 270959, Note_on_c, 2, 67, 0
8, 270960, Note_on_c, 2, 63, 52
8, 271199, Note_on_c, 2, 70, 0
8, 271199, Note_on_c, 2, 63, 0
8, 272160, Note_on_c, 2, 70, 52
8, 272160, Note_on_c, 2, 63, 52
8, 272279, Note_on_c, 2, 63, 0
8, 272280, Note_on_c, 2, 65, 52
8, 272399, Note_on_c, 2, 65, 0
8, 272400, Note_on_c, 2, 67, 52
8, 272879, Note_on_c, 2, 67, 0
8, 272880, Note_on_c, 2, 63, 52
8, 273119, Note_on_c, 2, 70, 0
8, 273119, Note_on_c, 2, 63, 0
8, 273120, Note_on_c, 2, 65, 52
8, 273120, Note_on_c, 2, 70, 52
8, 273599, Note_on_c, 2, 65, 0
8, 273600, Note_on_c, 2, 68, 52
8, 273839, Note_on_c, 2, 68, 0
8, 273840, Note_on_c, 2, 65, 52
8, 274079, Note_on_c, 2, 70, 0
8, 274079, Note_on_c, 2, 65, 0
8, 274560, Control_c, 2, 11, 96
8, 275040, Note_on_c, 2, 62, 68
8, 275040, Note_on_c, 2, 70, 68
8, 275159, Note_on_c, 2, 62, 0
8, 275159, Note_on_c, 2, 70, 0
8, 275160, Note_on_c, 2, 63, 68
8, 275160, Note_on_c, 2, 72, 68
8, 275279, Note_on_c, 2, 63, 0
8, 275279, Note_on_c, 2, 72, 0
8, 275280, Control_c, 2, 11, 96
8, 275280, Note_on_c, 2, 65, 68
8, 275280, Note_on_c, 2, 74, 68
8, 275360, Control_c, 2, 11, 98
8, 275440, Control_c, 2, 11, 99
8, 275520, Control_c, 2, 11, 101
8, 275600, Control_c, 2, 11, 103
8, 275680, Control_c, 2, 11, 105
8, 275759, Note_on_c, 2, 65, 0
8, 275759, Note_on_c, 2, 74, 0
8, 275760, Note_on_c, 2, 70, 68
8, 275760, Note_on_c, 2, 62, 68
8, 275760, Control_c, 2, 11, 106
8, 275840, Control_c, 2, 11, 108
8, 275920, Control_c, 2, 11, 110
8, 275999, Note_on_c, 2, 70, 0
8, 275999, Note_on_c, 2, 62, 0
8, 276000, Note_on_c, 2, 72, 68
8, 276000, Control_c, 2, 11, 112
8, 276000, Note_on_c, 2, 63, 68
8, 276080, Control_c, 2, 11, 113
8, 276160, Control_c, 2, 11, 115
8, 276240, Control_c, 2, 11, 117
8, 276320, Control_c, 2, 11, 118
8, 276400, Control_c, 2, 11, 120
8, 276479, Note_on_c, 2, 72, 0
8, 276479, Note_on_c, 2, 63, 0
8, 276480, Note_on_c, 2, 65, 68
8, 276480, Control_c, 2, 11, 122
8, 276480, Note_on_c, 2, 74, 68
8, 276560, Control_c, 2, 11, 124
8, 276640, Control_c, 2, 11, 127
8, 276689, Note_on_c, 2, 65, 0
8, 276689, Note_on_c, 2, 74, 0
8, 276720, Note_on_c, 2, 67, 76
8, 276720, Note_on_c, 2, 75, 76
8, 276840, Control_c, 2, 11, 112
8, 276913, Control_c, 2, 11, 110
8, 276987, Control_c, 2, 11, 108
8, 277060, Control_c, 2, 11, 107
8, 277133, Control_c, 2, 11, 105
8, 277207, Control_c, 2, 11, 103
8, 277280, Control_c, 2, 11, 101
8, 277353, Control_c, 2, 11, 100
8, 277427, Control_c, 2, 11, 98
8, 277500, Control_c, 2, 11, 96
8, 277573, Control_c, 2, 11, 94
8, 277647, Control_c, 2, 11, 92
8, 277720, Control_c, 2, 11, 91
8, 277793, Control_c, 2, 11, 89
8, 277867, Control_c, 2, 11, 87
8, 277889, Note_on_c, 2, 67, 0
8, 277889, Note_on_c, 2, 75, 0
8, 277920, Note_on_c, 2, 74, 76
8, 277920, Note_on_c, 2, 65, 76
8, 277940, Control_c, 2, 11, 85
8, 278013, Control_c, 2, 11, 84
8, 278087, Control_c, 2, 11, 80
8, 278129, Note_on_c, 2, 74, 0
8, 278129, Note_on_c, 2, 65, 0
8, 278160, Note_on_c, 2, 63, 76
8, 278160, Note_on_c, 2, 69, 76
8, 278399, Note_on_c, 2, 63, 0
8, 278399, Note_on_c, 2, 69, 0
8, 278640, Note_on_c, 2, 63, 76
8, 278640, Note_on_c, 2, 72, 76
8, 278849, Note_on_c, 2, 63, 0
8, 278849, Note_on_c, 2, 72, 0
8, 278880, Note_on_c, 2, 72, 76
8, 278880, Note_on_c, 2, 63, 76
8, 278939, Note_on_c, 2, 72, 0
8, 278939, Note_on_c, 2, 63, 0
8, 278940, Note_on_c, 2, 74, 76
8, 278940, Note_on_c, 2, 65, 76
8, 278999, Note_on_c, 2, 74, 0
8, 278999, Note_on_c, 2, 65, 0
8, 279000, Note_on_c, 2, 72, 76
8, 279000, Note_on_c, 2, 63, 76
8, 279059, Note_on_c, 2, 72, 0
8, 279059, Note_on_c, 2, 63, 0
8, 279060, Note_on_c, 2, 65, 76
8, 279060, Note_on_c, 2, 74, 76
8, 279119, Note_on_c, 2, 65, 0
8, 279119, Note_on_c, 2, 74, 0
8, 279120, Note_on_c, 2, 72, 76
8, 279120, Note_on_c, 2, 63, 76
8, 279179, Note_on_c, 2, 72, 0
8, 279179, Note_on_c, 2, 63, 0
8, 279180, Note_on_c, 2, 65, 76
8, 279180, Note_on_c, 2, 74, 76
8, 279239, Note_on_c, 2, 65, 0
8, 279239, Note_on_c, 2, 74, 0
8, 279240, Note_on_c, 2, 71, 76
8, 279240, Note_on_c, 2, 62, 76
8, 279344, Note_on_c, 2, 71, 0
8, 279344, Note_on_c, 2, 62, 0
8, 279360, Note_on_c, 2, 72, 76
8, 279360, Note_on_c, 2, 63, 76
8, 279569, Note_on_c, 2, 72, 0
8, 279569, Note_on_c, 2, 63, 0
8, 279600, Note_on_c, 2, 63, 76
8, 279600, Note_on_c, 2, 72, 76
8, 279839, Note_on_c, 2, 63, 0
8, 279839, Note_on_c, 2, 72, 0
8, 293280, Control_c, 2, 11, 48
8, 293760, Note_on_c, 2, 62, 84
8, 293760, Note_on_c, 2, 70, 84
8, 293999, Note_on_c, 2, 62, 0
8, 293999, Note_on_c, 2, 70, 0
8, 294000, Note_on_c, 2, 74, 84
8, 294000, Control_c, 2, 11, 48
8, 294000, Note_on_c, 2, 65, 84
8, 294137, Control_c, 2, 11, 49
8, 294273, Control_c, 2, 11, 50
8, 294410, Control_c, 2, 11, 51
8, 294479, Note_on_c, 2, 74, 0
8, 294479, Note_on_c, 2, 65, 0
8, 294480, Note_on_c, 2, 62, 84
8, 294480, Note_on_c, 2, 70, 84
8, 294547, Control_c, 2, 11, 52
8, 294684, Control_c, 2, 11, 53
8, 294719, Note_on_c, 2, 62, 0
8, 294719, Note_on_c, 2, 70, 0
8, 294720, Note_on_c, 2, 72, 84
8, 294720, Note_on_c, 2, 63, 84
8, 294820, Control_c, 2, 11, 54
8, 294957, Control_c, 2, 11, 55
8, 295094, Control_c, 2, 11, 56
8, 295199, Note_on_c, 2, 72, 0
8, 295199, Note_on_c, 2, 63, 0
8, 295200, Note_on_c, 2, 75, 84
8, 295200, Note_on_c, 2, 67, 84
8, 295230, Control_c, 2, 11, 57
8, 295367, Control_c, 2, 11, 58
8, 295439, Note_on_c, 2, 75, 0
8, 295439, Note_on_c, 2, 67, 0
8, 295440, Note_on_c, 2, 63, 84
8, 295440, Note_on_c, 2, 72, 84
8, 295504, Control_c, 2, 11, 59
8, 295641, Control_c, 2, 11, 60
8, 295679, Note_on_c, 2, 63, 0
8, 295679, Note_on_c, 2, 72, 0
8, 295777, Control_c, 2, 11, 61
8, 296597, Control_c, 2, 11, 67
8, 296640, Note_on_c, 2, 63, 84
8, 296640, Note_on_c, 2, 72, 84
8, 296734, Control_c, 2, 11, 68
8, 296871, Control_c, 2, 11, 69
8, 296879, Note_on_c, 2, 63, 0
8, 296879, Note_on_c, 2, 72, 0
8, 296880, Note_on_c, 2, 67, 84
8, 296880, Note_on_c, 2, 75, 84
8, 297008, Control_c, 2, 11, 70
8, 297144, Control_c, 2, 11, 71
8, 297281, Control_c, 2, 11, 72
8, 297359, Note_on_c, 2, 67, 0
8, 297359, Note_on_c, 2, 75, 0
8, 297360, Note_on_c, 2, 72, 84
8, 297360, Note_on_c, 2, 63, 84
8, 297418, Control_c, 2, 11, 73
8, 297554, Control_c, 2, 11, 74
8, 297599, Note_on_c, 2, 72, 0
8, 297599, Note_on_c, 2, 63, 0
8, 297600, Note_on_c, 2, 65, 84
8, 297600, Note_on_c, 2, 74, 84
8, 297691, Control_c, 2, 11, 75
8, 297828, Control_c, 2, 11, 76
8, 297965, Control_c, 2, 11, 77
8, 298079, Note_on_c, 2, 65, 0
8, 298079, Note_on_c, 2, 74, 0
8, 298080, Note_on_c, 2, 68, 84
8, 298080, Note_on_c, 2, 77, 84
8, 298101, Control_c, 2, 11, 78
8, 298238, Control_c, 2, 11, 79
8, 298319, Note_on_c, 2, 68, 0
8, 298319, Note_on_c, 2, 77, 0
8, 298320, Note_on_c, 2, 74, 84
8, 298320, Note_on_c, 2, 65, 84
8, 298375, Control_c, 2, 11, 80
8, 298511, Control_c, 2, 11, 81
8, 298559, Note_on_c, 2, 74, 0
8, 298559, Note_on_c, 2, 65, 0
8, 298648, Control_c, 2, 11, 82
8, 299468, Control_c, 2, 11, 88
8, 299520, Note_on_c, 2, 74, 84
8, 299520, Note_on_c, 2, 70, 84
8, 299605, Control_c, 2, 11, 89
8, 299742, Control_c, 2, 11, 90
8, 299759, Note_on_c, 2, 74, 0
8, 299759, Note_on_c, 2, 70, 0
8, 299760, Note_on_c, 2, 77, 84
8, 299760, Note_on_c, 2, 74, 84
8, 299878, Control_c, 2, 11, 91
8, 300015, Control_c, 2, 11, 92
8, 300152, Control_c, 2, 11, 93
8, 300239, Note_on_c, 2, 77, 0
8, 300239, Note_on_c, 2, 74, 0
8, 300240, Note_on_c, 2, 74, 84
8, 300240, Note_on_c, 2, 70, 84
8, 300289, Control_c, 2, 11, 94
8, 300425, Control_c, 2, 11, 95
8, 300479, Note_on_c, 2, 74, 0
8, 300479, Note_on_c, 2, 70, 0
8, 300480, Note_on_c, 2, 75, 84
8, 300480, Note_on_c, 2, 72, 84
8, 300562, Control_c, 2, 11, 96
8, 300699, Control_c, 2, 11, 97
8, 300835, Control_c, 2, 11, 98
8, 300959, Note_on_c, 2, 75, 0
8, 300959, Note_on_c, 2, 72, 0
8, 300960, Note_on_c, 2, 74, 84
8, 300960, Note_on_c, 2, 77, 84
8, 300972, Control_c, 2, 11, 99
8, 301109, Control_c, 2, 11, 100
8, 301169, Note_on_c, 2, 74, 0
8, 301169, Note_on_c, 2, 77, 0
8, 301200, Note_on_c, 2, 79, 84
8, 301200, Note_on_c, 2, 75, 84
8, 301246, Control_c, 2, 11, 101
8, 301382, Control_c, 2, 11, 102
8, 301519, Control_c, 2, 11, 103
8, 301656, Control_c, 2, 11, 104
8, 301792, Control_c, 2, 11, 105
8, 301929, Control_c, 2, 11, 106
8, 302066, Control_c, 2, 11, 107
8, 302203, Control_c, 2, 11, 108
8, 302339, Control_c, 2, 11, 109
8, 302369, Note_on_c, 2, 79, 0
8, 302369, Note_on_c, 2, 75, 0
8, 302400, Note_on_c, 2, 74, 84
8, 302400, Note_on_c, 2, 77, 84
8, 302476, Control_c, 2, 11, 110
8, 302579, Note_on_c, 2, 74, 0
8, 302579, Note_on_c, 2, 77, 0
8, 302613, Control_c, 2, 11, 111
8, 302640, Note_on_c, 2, 75, 84
8, 302640, Note_on_c, 2, 72, 84
8, 302749, Control_c, 2, 11, 112
8, 302886, Control_c, 2, 11, 113
8, 303023, Control_c, 2, 11, 114
8, 303089, Note_on_c, 2, 75, 0
8, 303089, Note_on_c, 2, 72, 0
8, 303120, Note_on_c, 2, 72, 84
8, 303120, Note_on_c, 2, 75, 84
8, 303159, Control_c, 2, 11, 115
8, 303296, Control_c, 2, 11, 116
8, 303329, Note_on_c, 2, 72, 0
8, 303329, Note_on_c, 2, 75, 0
8, 303360, Note_on_c, 2, 72, 84
8, 303360, Note_on_c, 2, 75, 84
8, 303419, Note_on_c, 2, 72, 0
8, 303419, Note_on_c, 2, 75, 0
8, 303420, Note_on_c, 2, 77, 84
8, 303420, Note_on_c, 2, 74, 84
8, 303433, Control_c, 2, 11, 117
8, 303479, Note_on_c, 2, 77, 0
8, 303479, Note_on_c, 2, 74, 0
8, 303480, Note_on_c, 2, 75, 84
8, 303480, Note_on_c, 2, 72, 84
8, 303539, Note_on_c, 2, 75, 0
8, 303539, Note_on_c, 2, 72, 0
8, 303540, Note_on_c, 2, 77, 84
8, 303540, Note_on_c, 2, 74, 84
8, 303570, Control_c, 2, 11, 118
8, 303599, Note_on_c, 2, 77, 0
8, 303599, Note_on_c, 2, 74, 0
8, 303600, Note_on_c, 2, 75, 84
8, 303600, Note_on_c, 2, 72, 84
8, 303659, Note_on_c, 2, 75, 0
8, 303659, Note_on_c, 2, 72, 0
8, 303660, Note_on_c, 2, 74, 84
8, 303660, Note_on_c, 2, 77, 84
8, 303706, Control_c, 2, 11, 119
8, 303719, Note_on_c, 2, 74, 0
8, 303719, Note_on_c, 2, 77, 0
8, 303720, Note_on_c, 2, 71, 84
8, 303720, Note_on_c, 2, 74, 84
8, 303824, Note_on_c, 2, 71, 0
8, 303824, Note_on_c, 2, 74, 0
8, 303840, Note_on_c, 2, 72, 84
8, 303840, Note_on_c, 2, 75, 84
8, 303843, Control_c, 2, 11, 120
8, 303980, Control_c, 2, 11, 121
8, 304049, Note_on_c, 2, 72, 0
8, 304049, Note_on_c, 2, 75, 0
8, 304080, Note_on_c, 2, 74, 84
8, 304080, Note_on_c, 2, 70, 84
8, 304116, Control_c, 2, 11, 122
8, 304253, Control_c, 2, 11, 123
8, 304319, Note_on_c, 2, 74, 0
8, 304319, Note_on_c, 2, 70, 0
8, 304390, Control_c, 2, 11, 124
8, 304527, Control_c, 2, 11, 125
8, 304663, Control_c, 2, 11, 127
8, 305280, Note_on_c, 2, 70, 84
8, 305280, Note_on_c, 2, 74, 84
8, 305399, Note_on_c, 2, 70, 0
8, 305399, Note_on_c, 2, 74, 0
8, 305400, Note_on_c, 2, 75, 84
8, 305400, Note_on_c, 2, 72, 84
8, 305519, Note_on_c, 2, 75, 0
8, 305519, Note_on_c, 2, 72, 0
8, 305520, Note_on_c, 2, 77, 84
8, 305520, Note_on_c, 2, 74, 84
8, 305999, Note_on_c, 2, 77, 0
8, 305999, Note_on_c, 2, 74, 0
8, 306000, Note_on_c, 2, 70, 84
8, 306000, Note_on_c, 2, 74, 84
8, 306239, Note_on_c, 2, 70, 0
8, 306239, Note_on_c, 2, 74, 0
8, 306240, Note_on_c, 2, 75, 84
8, 306240, Note_on_c, 2, 72, 84
8, 306719, Note_on_c, 2, 75, 0
8, 306719, Note_on_c, 2, 72, 0
8, 306720, Note_on_c, 2, 74, 84
8, 306720, Note_on_c, 2, 77, 84
8, 306929, Note_on_c, 2, 74, 0
8, 306929, Note_on_c, 2, 77, 0
8, 306960, Note_on_c, 2, 79, 92
8, 306960, Note_on_c, 2, 75, 92
8, 308129, Note_on_c, 2, 79, 0
8, 308129, Note_on_c, 2, 75, 0
8, 308160, Note_on_c, 2, 77, 84
8, 308160, Note_on_c, 2, 74, 84
8, 308399, Note_on_c, 2, 77, 0
8, 308399, Note_on_c, 2, 74, 0
8, 308400, Note_on_c, 2, 75, 84
8, 308400, Note_on_c, 2, 72, 84
8, 308639, Note_on_c, 2, 75, 0
8, 308639, Note_on_c, 2, 72, 0
8, 308880, Note_on_c, 2, 75, 84
8, 308880, Note_on_c, 2, 72, 84
8, 309089, Note_on_c, 2, 75, 0
8, 309089, Note_on_c, 2, 72, 0
8, 309120, Note_on_c, 2, 72, 84
8, 309120, Note_on_c, 2, 75, 84
8, 309179, Note_on_c, 2, 72, 0
8, 309179, Note_on_c, 2, 75, 0
8, 309180, Note_on_c, 2, 77, 84
8, 309180, Note_on_c, 2, 74, 84
8, 309239, Note_on_c, 2, 77, 0
8, 309239, Note_on_c, 2, 74, 0
8, 309240, Note_on_c, 2, 72, 84
8, 309240, Note_on_c, 2, 75, 84
8, 309299, Note_on_c, 2, 72, 0
8, 309299, Note_on_c, 2, 75, 0
8, 309300, Note_on_c, 2, 77, 84
8, 309300, Note_on_c, 2, 74, 84
8, 309359, Note_on_c, 2, 77, 0
8, 309359, Note_on_c, 2, 74, 0
8, 309360, Note_on_c, 2, 72, 84
8, 309360, Note_on_c, 2, 75, 84
8, 309419, Note_on_c, 2, 72, 0
8, 309419, Note_on_c, 2, 75, 0
8, 309420, Note_on_c, 2, 74, 84
8, 309420, Note_on_c, 2, 77, 84
8, 309479, Note_on_c, 2, 74, 0
8, 309479, Note_on_c, 2, 77, 0
8, 309480, Note_on_c, 2, 71, 84
8, 309480, Note_on_c, 2, 74, 84
8, 309584, Note_on_c, 2, 71, 0
8, 309584, Note_on_c, 2, 74, 0
8, 309600, Note_on_c, 2, 75, 84
8, 309600, Note_on_c, 2, 72, 84
8, 309809, Note_on_c, 2, 75, 0
8, 309809, Note_on_c, 2, 72, 0
8, 309840, Note_on_c, 2, 74, 84
8, 309840, Note_on_c, 2, 70, 84
8, 310079, Note_on_c, 2, 74, 0
8, 310079, Note_on_c, 2, 70, 0
8, 311040, Note_on_c, 2, 74, 84
8, 311040, Note_on_c, 2, 77, 84
8, 311279, Note_on_c, 2, 74, 0
8, 311279, Note_on_c, 2, 77, 0
8, 311280, Note_on_c, 2, 72, 84
8, 311280, Note_on_c, 2, 75, 84
8, 311519, Note_on_c, 2, 72, 0
8, 311519, Note_on_c, 2, 75, 0
8, 312480, Note_on_c, 2, 69, 84
8, 312480, Note_on_c, 2, 77, 84
8, 312719, Note_on_c, 2, 69, 0
8, 312719, Note_on_c, 2, 77, 0
8, 312720, Note_on_c, 2, 74, 84
8, 312720, Note_on_c, 2, 70, 84
8, 312959, Note_on_c, 2, 74, 0
8, 312959, Note_on_c, 2, 70, 0
8, 313920, Note_on_c, 2, 74, 72
8, 313920, Note_on_c, 2, 77, 72
8, 314159, Note_on_c, 2, 74, 0
8, 314159, Note_on_c, 2, 77, 0
8, 314160, Note_on_c, 2, 72, 68
8, 314160, Note_on_c, 2, 75, 68
8, 314399, Note_on_c, 2, 72, 0
8, 314399, Note_on_c, 2, 75, 0
8, 315360, Note_on_c, 2, 69, 48
8, 315360, Note_on_c, 2, 77, 48
8, 315599, Note_on_c, 2, 69, 0
8, 315599, Note_on_c, 2, 77, 0
8, 315600, Note_on_c, 2, 70, 44
8, 315600, Note_on_c, 2, 74, 44
8, 315839, Note_on_c, 2, 70, 0
8, 315839, Note_on_c, 2, 74, 0
8, 316320, Note_on_c, 2, 70, 44
8, 316320, Note_on_c, 2, 74, 44
8, 316559, Note_on_c, 2, 70, 0
8, 316559, Note_on_c, 2, 74, 0
8, 317040, Note_on_c, 2, 74, 44
8, 317040, Note_on_c, 2, 70, 44
8, 317279, Note_on_c, 2, 74, 0
8, 317279, Note_on_c, 2, 70, 0
8, 317760, Note_on_c, 2, 70, 44
8, 317760, Note_on_c, 2, 74, 44
8, 317999, Note_on_c, 2, 70, 0
8, 317999, Note_on_c, 2, 74, 0
8, 318480, Note_on_c, 2, 74, 44
8, 318480, Note_on_c, 2, 70, 44
8, 318719, Note_on_c, 2, 74, 0
8, 318719, Note_on_c, 2, 70, 0
8, 321120, Note_on_c, 2, 69, 76
8, 321359, Note_on_c, 2, 69, 0
8, 321360, Note_on_c, 2, 70, 84
8, 321479, Note_on_c, 2, 70, 0
8, 321600, Note_on_c, 2, 65, 84
8, 321839, Note_on_c, 2, 65, 0
8, 321840, Note_on_c, 2, 74, 84
8, 321959, Note_on_c, 2, 74, 0
8, 322080, Note_on_c, 2, 70, 84
8, 322319, Note_on_c, 2, 70, 0
8, 322320, Note_on_c, 2, 77, 84
8, 322439, Note_on_c, 2, 77, 0
8, 322560, Note_on_c, 2, 74, 84
8, 322769, Note_on_c, 2, 74, 0
8, 322800, Note_on_c, 2, 77, 84
8, 323039, Note_on_c, 2, 77, 0
8, 323040, Note_on_c, 2, 75, 84
8, 323249, Note_on_c, 2, 75, 0
8, 323280, Note_on_c, 2, 72, 84
8, 323459, Note_on_c, 2, 72, 0
8, 323520, Note_on_c, 2, 69, 84
8, 323759, Note_on_c, 2, 69, 0
8, 324000, Note_on_c, 2, 65, 52
8, 324239, Note_on_c, 2, 65, 0
8, 324240, Note_on_c, 2, 66, 52
8, 324479, Note_on_c, 2, 66, 0
8, 324480, Note_on_c, 2, 69, 52
8, 324719, Note_on_c, 2, 69, 0
8, 324720, Note_on_c, 2, 72, 52
8, 324959, Note_on_c, 2, 72, 0
8, 324960, Note_on_c, 2, 75, 52
8, 325199, Note_on_c, 2, 75, 0
8, 325200, Note_on_c, 2, 77, 52
8, 325439, Note_on_c, 2, 77, 0
8, 326880, Note_on_c, 2, 67, 52
8, 327119, Note_on_c, 2, 67, 0
8, 327120, Note_on_c, 2, 68, 52
8, 327359, Note_on_c, 2, 68, 0
8, 327360, Note_on_c, 2, 71, 52
8, 327599, Note_on_c, 2, 71, 0
8, 327600, Note_on_c, 2, 74, 52
8, 327839, Note_on_c, 2, 74, 0
8, 327840, Note_on_c, 2, 77, 52
8, 328079, Note_on_c, 2, 77, 0
8, 328080, Note_on_c, 2, 79, 52
8, 328319, Note_on_c, 2, 79, 0
8, 329760, Note_on_c, 2, 73, 52
8, 329999, Note_on_c, 2, 73, 0
8, 330000, Note_on_c, 2, 70, 52
8, 330239, Note_on_c, 2, 70, 0
8, 330240, Note_on_c, 2, 67, 52
8, 330479, Note_on_c, 2, 67, 0
8, 330480, Note_on_c, 2, 64, 52
8, 330719, Note_on_c, 2, 64, 0
8, 330720, Note_on_c, 2, 61, 52
8, 330959, Note_on_c, 2, 61, 0
8, 330960, Note_on_c, 2, 60, 52
8, 331169, Note_on_c, 2, 60, 0
8, 331200, Note_on_c, 2, 64, 52
8, 331439, Note_on_c, 2, 64, 0
8, 331440, Note_on_c, 2, 65, 52
8, 331679, Note_on_c, 2, 65, 0
8, 331680, Note_on_c, 2, 69, 52
8, 331919, Note_on_c, 2, 69, 0
8, 331920, Note_on_c, 2, 72, 52
8, 332159, Note_on_c, 2, 72, 0
8, 332160, Note_on_c, 2, 75, 52
8, 332399, Note_on_c, 2, 75, 0
8, 332400, Note_on_c, 2, 77, 52
8, 332639, Note_on_c, 2, 77, 0
8, 332640, Note_on_c, 2, 78, 52
8, 332879, Note_on_c, 2, 78, 0
8, 332880, Note_on_c, 2, 77, 52
8, 333119, Note_on_c, 2, 77, 0
8, 333120, Note_on_c, 2, 75, 56
8, 333359, Note_on_c, 2, 75, 0
8, 333360, Note_on_c, 2, 72, 60
8, 333599, Note_on_c, 2, 72, 0
8, 333600, Note_on_c, 2, 69, 64
8, 333839, Note_on_c, 2, 69, 0
8, 333840, Note_on_c, 2, 65, 68
8, 334049, Note_on_c, 2, 65, 0
8, 334080, Note_on_c, 2, 66, 76
8, 334319, Note_on_c, 2, 66, 0
8, 334320, Note_on_c, 2, 65, 52
8, 334559, Note_on_c, 2, 65, 0
8, 334560, Note_on_c, 2, 69, 52
8, 334799, Note_on_c, 2, 69, 0
8, 334800, Note_on_c, 2, 72, 52
8, 335039, Note_on_c, 2, 72, 0
8, 335040, Note_on_c, 2, 75, 52
8, 335279, Note_on_c, 2, 75, 0
8, 335280, Note_on_c, 2, 77, 52
8, 335519, Note_on_c, 2, 77, 0
8, 335520, Note_on_c, 2, 78, 52
8, 335759, Note_on_c, 2, 78, 0
8, 335760, Note_on_c, 2, 77, 52
8, 335999, Note_on_c, 2, 77, 0
8, 336000, Note_on_c, 2, 75, 56
8, 336239, Note_on_c, 2, 75, 0
8, 336240, Note_on_c, 2, 72, 60
8, 336479, Note_on_c, 2, 72, 0
8, 336480, Note_on_c, 2, 69, 64
8, 336719, Note_on_c, 2, 69, 0
8, 336720, Note_on_c, 2, 65, 68
8, 336929, Note_on_c, 2, 65, 0
8, 336960, Note_on_c, 2, 66, 76
8, 337199, Note_on_c, 2, 66, 0
8, 337200, Note_on_c, 2, 65, 68
8, 337409, Note_on_c, 2, 65, 0
8, 337440, Note_on_c, 2, 75, 76
8, 337440, Note_on_c, 2, 72, 76
8, 337889, Note_on_c, 2, 75, 0
8, 337889, Note_on_c, 2, 72, 0
8, 337920, Note_on_c, 2, 74, 76
8, 337920, Note_on_c, 2, 70, 76
8, 338369, Note_on_c, 2, 74, 0
8, 338369, Note_on_c, 2, 70, 0
8, 338400, Note_on_c, 2, 70, 76
8, 338400, Note_on_c, 2, 67, 76
8, 338579, Note_on_c, 2, 70, 0
8, 338579, Note_on_c, 2, 67, 0
8, 338640, Note_on_c, 2, 70, 84
8, 338640, Note_on_c, 2, 62, 84
8, 339329, Note_on_c, 2, 70, 0
8, 339329, Note_on_c, 2, 62, 0
8, 339360, Note_on_c, 2, 69, 84
8, 339360, Note_on_c, 2, 63, 84
8, 340049, Note_on_c, 2, 69, 0
8, 340049, Note_on_c, 2, 63, 0
8, 340080, Note_on_c, 2, 70, 84
8, 340080, Note_on_c, 2, 62, 84
8, 340319, Note_on_c, 2, 70, 0
8, 340319, Note_on_c, 2, 62, 0
8, 341520, Note_on_c, 2, 69, 84
8, 341759, Note_on_c, 2, 69, 0
8, 341760, Note_on_c, 2, 65, 84
8, 341879, Note_on_c, 2, 65, 0
8, 342000, Note_on_c, 2, 72, 84
8, 342239, Note_on_c, 2, 72, 0
8, 342240, Note_on_c, 2, 69, 84
8, 342359, Note_on_c, 2, 69, 0
8, 342480, Note_on_c, 2, 75, 84
8, 342719, Note_on_c, 2, 75, 0
8, 342720, Note_on_c, 2, 72, 84
8, 342839, Note_on_c, 2, 72, 0
8, 342960, Note_on_c, 2, 70, 84
8, 343199, Note_on_c, 2, 70, 0
8, 344400, Note_on_c, 2, 69, 84
8, 344639, Note_on_c, 2, 69, 0
8, 344640, Note_on_c, 2, 65, 84
8, 344759, Note_on_c, 2, 65, 0
8, 344880, Note_on_c, 2, 72, 84
8, 345119, Note_on_c, 2, 72, 0
8, 345120, Note_on_c, 2, 69, 84
8, 345239, Note_on_c, 2, 69, 0
8, 345360, Note_on_c, 2, 75, 84
8, 345599, Note_on_c, 2, 75, 0
8, 345600, Note_on_c, 2, 72, 84
8, 345719, Note_on_c, 2, 72, 0
8, 345840, Note_on_c, 2, 70, 76
8, 345840, Note_on_c, 2, 62, 76
8, 346529, Note_on_c, 2, 70, 0
8, 346529, Note_on_c, 2, 62, 0
8, 346560, Note_on_c, 2, 74, 76
8, 346560, Note_on_c, 2, 70, 76
8, 347249, Note_on_c, 2, 74, 0
8, 347249, Note_on_c, 2, 70, 0
8, 347280, Note_on_c, 2, 77, 76
8, 347280, Note_on_c, 2, 74, 76
8, 347489, Note_on_c, 2, 77, 0
8, 347489, Note_on_c, 2, 74, 0
8, 347520, Note_on_c, 2, 77, 76
8, 347520, Note_on_c, 2, 74, 76
8, 347729, Note_on_c, 2, 77, 0
8, 347729, Note_on_c, 2, 74, 0
8, 347760, Note_on_c, 2, 77, 76
8, 347760, Note_on_c, 2, 74, 76
8, 347969, Note_on_c, 2, 77, 0
8, 347969, Note_on_c, 2, 74, 0
8, 348000, Note_on_c, 2, 70, 76
8, 348000, Note_on_c, 2, 62, 76
8, 348239, Note_on_c, 2, 70, 0
8, 348239, Note_on_c, 2, 62, 0
8, 350160, Note_on_c, 2, 74, 84
8, 350160, Note_on_c, 2, 70, 84
8, 350399, Note_on_c, 2, 74, 0
8, 350399, Note_on_c, 2, 70, 0
8, 350399, End_track
9, 0, Start_track
9, 0, Title_t, "Bassoon"
9, 0, MIDI_port, 0
9, 0, Program_c, 3, 70
9, 0, Control_c, 3, 7, 96
9, 0, Control_c, 3, 10, 65
9, 0, Control_c, 3, 11, 96
9, 0, Note_on_c, 3, 53, 84
9, 0, Note_on_c, 3, 41, 84
9, 239, Note_on_c, 3, 53, 0
9, 239, Note_on_c, 3, 41, 0
9, 240, Note_on_c, 3, 58, 84
9, 240, Note_on_c, 3, 46, 84
9, 359, Note_on_c, 3, 58, 0
9, 359, Note_on_c, 3, 46, 0
9, 480, Note_on_c, 3, 46, 84
9, 929, Note_on_c, 3, 46, 0
9, 960, Note_on_c, 3, 46, 84
9, 1409, Note_on_c, 3, 46, 0
9, 1440, Note_on_c, 3, 46, 84
9, 1649, Note_on_c, 3, 46, 0
9, 1680, Note_on_c, 3, 41, 84
9, 1919, Note_on_c, 3, 41, 0
9, 1920, Note_on_c, 3, 45, 84
9, 2159, Note_on_c, 3, 45, 0
9, 2160, Note_on_c, 3, 48, 84
9, 2339, Note_on_c, 3, 48, 0
9, 2400, Note_on_c, 3, 53, 84
9, 2639, Note_on_c, 3, 53, 0
9, 2880, Note_on_c, 3, 53, 52
9, 3119, Note_on_c, 3, 53, 0
9, 3120, Note_on_c, 3, 54, 52
9, 3359, Note_on_c, 3, 54, 0
9, 3360, Note_on_c, 3, 57, 52
9, 3599, Note_on_c, 3, 57, 0
9, 3600, Note_on_c, 3, 60, 52
9, 3839, Note_on_c, 3, 60, 0
9, 3840, Note_on_c, 3, 63, 52
9, 4079, Note_on_c, 3, 63, 0
9, 4080, Note_on_c, 3, 65, 52
9, 4319, Note_on_c, 3, 65, 0
9, 5760, Note_on_c, 3, 51, 52
9, 5999, Note_on_c, 3, 51, 0
9, 6000, Note_on_c, 3, 49, 52
9, 6239, Note_on_c, 3, 49, 0
9, 6240, Note_on_c, 3, 52, 52
9, 6479, Note_on_c, 3, 52, 0
9, 6480, Note_on_c, 3, 55, 52
9, 6719, Note_on_c, 3, 55, 0
9, 6720, Note_on_c, 3, 58, 52
9, 6959, Note_on_c, 3, 58, 0
9, 6960, Note_on_c, 3, 60, 52
9, 7199, Note_on_c, 3, 60, 0
9, 8160, Control_c, 3, 11, 80
9, 8640, Note_on_c, 3, 52, 76
9, 8879, Note_on_c, 3, 52, 0
9, 8880, Note_on_c, 3, 53, 76
9, 8880, Control_c, 3, 11, 80
9, 8990, Control_c, 3, 11, 82
9, 8999, Note_on_c, 3, 53, 0
9, 9100, Control_c, 3, 11, 84
9, 9120, Note_on_c, 3, 55, 76
9, 9210, Control_c, 3, 11, 86
9, 9320, Control_c, 3, 11, 88
9, 9359, Note_on_c, 3, 55, 0
9, 9360, Note_on_c, 3, 48, 76
9, 9430, Control_c, 3, 11, 90
9, 9479, Note_on_c, 3, 48, 0
9, 9540, Control_c, 3, 11, 92
9, 9600, Note_on_c, 3, 57, 76
9, 9650, Control_c, 3, 11, 94
9, 9760, Control_c, 3, 11, 96
9, 9839, Note_on_c, 3, 57, 0
9, 9840, Note_on_c, 3, 53, 76
9, 9870, Control_c, 3, 11, 98
9, 9959, Note_on_c, 3, 53, 0
9, 9980, Control_c, 3, 11, 100
9, 10080, Note_on_c, 3, 58, 84
9, 10090, Control_c, 3, 11, 102
9, 10200, Control_c, 3, 11, 104
9, 10310, Control_c, 3, 11, 105
9, 10420, Control_c, 3, 11, 107
9, 10530, Control_c, 3, 11, 109
9, 10559, Note_on_c, 3, 58, 0
9, 10640, Control_c, 3, 11, 111
9, 10750, Control_c, 3, 11, 113
9, 10860, Control_c, 3, 11, 115
9, 10970, Control_c, 3, 11, 117
9, 11080, Control_c, 3, 11, 119
9, 11190, Control_c, 3, 11, 121
9, 11300, Control_c, 3, 11, 123
9, 11410, Control_c, 3, 11, 125
9, 11520, Control_c, 3, 11, 127
9, 11520, Note_on_c, 3, 48, 76
9, 11520, Note_on_c, 3, 60, 76
9, 11699, Note_on_c, 3, 48, 0
9, 11699, Note_on_c, 3, 60, 0
9, 11760, Note_on_c, 3, 57, 84
9, 11760, Note_on_c, 3, 53, 84
9, 12449, Note_on_c, 3, 57, 0
9, 12449, Note_on_c, 3, 53, 0
9, 12480, Note_on_c, 3, 57, 84
9, 12480, Note_on_c, 3, 53, 84
9, 13169, Note_on_c, 3, 57, 0
9, 13169, Note_on_c, 3, 53, 0
9, 13200, Note_on_c, 3, 53, 84
9, 13200, Note_on_c, 3, 57, 84
9, 13409, Note_on_c, 3, 53, 0
9, 13409, Note_on_c, 3, 57, 0
9, 13440, Note_on_c, 3, 57, 84
9, 13440, Note_on_c, 3, 53, 84
9, 13649, Note_on_c, 3, 57, 0
9, 13649, Note_on_c, 3, 53, 0
9, 13680, Note_on_c, 3, 57, 84
9, 13680, Note_on_c, 3, 53, 84
9, 13889, Note_on_c, 3, 57, 0
9, 13889, Note_on_c, 3, 53, 0
9, 13920, Note_on_c, 3, 53, 84
9, 13920, Note_on_c, 3, 57, 84
9, 14159, Note_on_c, 3, 53, 0
9, 14159, Note_on_c, 3, 57, 0
9, 14400, Note_on_c, 3, 53, 84
9, 14400, Note_on_c, 3, 41, 84
9, 14639, Note_on_c, 3, 53, 0
9, 14639, Note_on_c, 3, 41, 0
9, 14640, Note_on_c, 3, 46, 84
9, 14640, Note_on_c, 3, 58, 84
9, 14759, Note_on_c, 3, 46, 0
9, 14759, Note_on_c, 3, 58, 0
9, 14880, Note_on_c, 3, 46, 84
9, 15329, Note_on_c, 3, 46, 0
9, 15360, Note_on_c, 3, 46, 84
9, 15809, Note_on_c, 3, 46, 0
9, 15840, Note_on_c, 3, 46, 84
9, 16049, Note_on_c, 3, 46, 0
9, 16080, Note_on_c, 3, 41, 84
9, 16319, Note_on_c, 3, 41, 0
9, 16320, Note_on_c, 3, 45, 84
9, 16559, Note_on_c, 3, 45, 0
9, 16560, Note_on_c, 3, 48, 84
9, 16739, Note_on_c, 3, 48, 0
9, 16800, Note_on_c, 3, 53, 84
9, 17039, Note_on_c, 3, 53, 0
9, 17280, Note_on_c, 3, 53, 52
9, 17519, Note_on_c, 3, 53, 0
9, 17520, Note_on_c, 3, 54, 52
9, 17759, Note_on_c, 3, 54, 0
9, 17760, Note_on_c, 3, 57, 52
9, 17999, Note_on_c, 3, 57, 0
9, 18000, Note_on_c, 3, 60, 52
9, 18239, Note_on_c, 3, 60, 0
9, 18240, Note_on_c, 3, 63, 52
9, 18479, Note_on_c, 3, 63, 0
9, 18480, Note_on_c, 3, 65, 52
9, 18719, Note_on_c, 3, 65, 0
9, 20160, Note_on_c, 3, 51, 52
9, 20399, Note_on_c, 3, 51, 0
9, 20400, Note_on_c, 3, 49, 52
9, 20639, Note_on_c, 3, 49, 0
9, 20640, Note_on_c, 3, 52, 52
9, 20879, Note_on_c, 3, 52, 0
9, 20880, Note_on_c, 3, 55, 52
9, 21119, Note_on_c, 3, 55, 0
9, 21120, Note_on_c, 3, 58, 52
9, 21359, Note_on_c, 3, 58, 0
9, 21360, Note_on_c, 3, 60, 52
9, 21599, Note_on_c, 3, 60, 0
9, 22560, Control_c, 3, 11, 80
9, 23040, Note_on_c, 3, 52, 76
9, 23279, Note_on_c, 3, 52, 0
9, 23280, Control_c, 3, 11, 80
9, 23280, Note_on_c, 3, 53, 76
9, 23390, Control_c, 3, 11, 82
9, 23399, Note_on_c, 3, 53, 0
9, 23500, Control_c, 3, 11, 84
9, 23520, Note_on_c, 3, 55, 76
9, 23610, Control_c, 3, 11, 86
9, 23720, Control_c, 3, 11, 88
9, 23759, Note_on_c, 3, 55, 0
9, 23760, Note_on_c, 3, 48, 76
9, 23830, Control_c, 3, 11, 90
9, 23879, Note_on_c, 3, 48, 0
9, 23940, Control_c, 3, 11, 92
9, 24000, Note_on_c, 3, 57, 76
9, 24050, Control_c, 3, 11, 94
9, 24160, Control_c, 3, 11, 96
9, 24239, Note_on_c, 3, 57, 0
9, 24240, Note_on_c, 3, 53, 76
9, 24270, Control_c, 3, 11, 98
9, 24359, Note_on_c, 3, 53, 0
9, 24380, Control_c, 3, 11, 100
9, 24480, Note_on_c, 3, 58, 84
9, 24490, Control_c, 3, 11, 102
9, 24600, Control_c, 3, 11, 104
9, 24710, Control_c, 3, 11, 105
9, 24820, Control_c, 3, 11, 107
9, 24930, Control_c, 3, 11, 109
9, 24959, Note_on_c, 3, 58, 0
9, 25040, Control_c, 3, 11, 111
9, 25150, Control_c, 3, 11, 113
9, 25260, Control_c, 3, 11, 115
9, 25370, Control_c, 3, 11, 117
9, 25480, Control_c, 3, 11, 119
9, 25590, Control_c, 3, 11, 121
9, 25700, Control_c, 3, 11, 123
9, 25810, Control_c, 3, 11, 125
9, 25920, Note_on_c, 3, 48, 76
9, 25920, Note_on_c, 3, 60, 76
9, 25920, Control_c, 3, 11, 127
9, 26099, Note_on_c, 3, 48, 0
9, 26099, Note_on_c, 3, 60, 0
9, 26160, Note_on_c, 3, 57, 84
9, 26160, Note_on_c, 3, 53, 84
9, 26849, Note_on_c, 3, 57, 0
9, 26849, Note_on_c, 3, 53, 0
9, 26880, Note_on_c, 3, 57, 84
9, 26880, Note_on_c, 3, 53, 84
9, 27569, Note_on_c, 3, 57, 0
9, 27569, Note_on_c, 3, 53, 0
9, 27600, Note_on_c, 3, 57, 84
9, 27600, Note_on_c, 3, 53, 84
9, 27809, Note_on_c, 3, 57, 0
9, 27809, Note_on_c, 3, 53, 0
9, 27840, Note_on_c, 3, 53, 84
9, 27840, Note_on_c, 3, 57, 84
9, 28049, Note_on_c, 3, 53, 0
9, 28049, Note_on_c, 3, 57, 0
9, 28080, Note_on_c, 3, 53, 84
9, 28080, Note_on_c, 3, 57, 84
9, 28289, Note_on_c, 3, 53, 0
9, 28289, Note_on_c, 3, 57, 0
9, 28320, Note_on_c, 3, 57, 84
9, 28320, Note_on_c, 3, 53, 84
9, 28559, Note_on_c, 3, 57, 0
9, 28559, Note_on_c, 3, 53, 0
9, 38640, Note_on_c, 3, 58, 52
9, 38849, Note_on_c, 3, 58, 0
9, 38880, Note_on_c, 3, 58, 52
9, 39089, Note_on_c, 3, 58, 0
9, 39120, Note_on_c, 3, 63, 52
9, 40529, Note_on_c, 3, 63, 0
9, 40560, Note_on_c, 3, 65, 52
9, 41969, Note_on_c, 3, 65, 0
9, 42000, Note_on_c, 3, 58, 52
9, 43409, Note_on_c, 3, 58, 0
9, 43440, Note_on_c, 3, 60, 52
9, 44849, Note_on_c, 3, 60, 0
9, 44880, Note_on_c, 3, 53, 52
9, 45569, Note_on_c, 3, 53, 0
9, 45600, Note_on_c, 3, 55, 52
9, 46289, Note_on_c, 3, 55, 0
9, 46320, Note_on_c, 3, 48, 52
9, 47009, Note_on_c, 3, 48, 0
9, 47040, Note_on_c, 3, 50, 52
9, 47729, Note_on_c, 3, 50, 0
9, 47760, Note_on_c, 3, 43, 52
9, 48449, Note_on_c, 3, 43, 0
9, 48480, Note_on_c, 3, 45, 52
9, 48960, Control_c, 3, 11, 80
9, 49169, Note_on_c, 3, 45, 0
9, 49200, Note_on_c, 3, 38, 76
9, 49200, Control_c, 3, 11, 80
9, 49310, Control_c, 3, 11, 82
9, 49420, Control_c, 3, 11, 84
9, 49530, Control_c, 3, 11, 86
9, 49640, Control_c, 3, 11, 88
9, 49750, Control_c, 3, 11, 90
9, 49860, Control_c, 3, 11, 92
9, 49889, Note_on_c, 3, 38, 0
9, 49920, Note_on_c, 3, 41, 76
9, 49970, Control_c, 3, 11, 94
9, 50080, Control_c, 3, 11, 96
9, 50190, Control_c, 3, 11, 98
9, 50300, Control_c, 3, 11, 100
9, 50410, Control_c, 3, 11, 102
9, 50520, Control_c, 3, 11, 104
9, 50630, Control_c, 3, 11, 105
9, 50740, Control_c, 3, 11, 107
9, 50850, Control_c, 3, 11, 109
9, 50960, Control_c, 3, 11, 111
9, 51070, Control_c, 3, 11, 113
9, 51180, Control_c, 3, 11, 115
9, 51290, Control_c, 3, 11, 117
9, 51400, Control_c, 3, 11, 119
9, 51510, Control_c, 3, 11, 121
9, 51620, Control_c, 3, 11, 123
9, 51730, Control_c, 3, 11, 127
9, 51809, Note_on_c, 3, 41, 0
9, 51840, Note_on_c, 3, 41, 76
9, 51840, Note_on_c, 3, 53, 76
9, 52079, Note_on_c, 3, 41, 0
9, 52079, Note_on_c, 3, 53, 0
9, 52080, Note_on_c, 3, 46, 84
9, 52080, Note_on_c, 3, 58, 84
9, 52199, Note_on_c, 3, 46, 0
9, 52199, Note_on_c, 3, 58, 0
9, 52320, Note_on_c, 3, 53, 84
9, 52320, Note_on_c, 3, 46, 84
9, 52559, Note_on_c, 3, 53, 0
9, 52560, Note_on_c, 3, 62, 84
9, 52679, Note_on_c, 3, 62, 0
9, 52769, Note_on_c, 3, 46, 0
9, 52800, Note_on_c, 3, 46, 84
9, 52800, Note_on_c, 3, 58, 84
9, 53039, Note_on_c, 3, 58, 0
9, 53040, Note_on_c, 3, 65, 84
9, 53159, Note_on_c, 3, 65, 0
9, 53249, Note_on_c, 3, 46, 0
9, 53280, Note_on_c, 3, 62, 84
9, 53280, Note_on_c, 3, 46, 84
9, 53489, Note_on_c, 3, 62, 0
9, 53489, Note_on_c, 3, 46, 0
9, 53520, Note_on_c, 3, 65, 84
9, 53520, Note_on_c, 3, 41, 84
9, 53759, Note_on_c, 3, 65, 0
9, 53759, Note_on_c, 3, 41, 0
9, 53760, Note_on_c, 3, 63, 84
9, 53760, Note_on_c, 3, 45, 84
9, 53969, Note_on_c, 3, 63, 0
9, 53969, Note_on_c, 3, 45, 0
9, 54000, Note_on_c, 3, 48, 84
9, 54000, Note_on_c, 3, 60, 84
9, 54179, Note_on_c, 3, 48, 0
9, 54179, Note_on_c, 3, 60, 0
9, 54240, Note_on_c, 3, 57, 84
9, 54240, Note_on_c, 3, 53, 84
9, 54479, Note_on_c, 3, 57, 0
9, 54479, Note_on_c, 3, 53, 0
9, 54720, Note_on_c, 3, 53, 52
9, 54959, Note_on_c, 3, 53, 0
9, 54960, Note_on_c, 3, 54, 52
9, 55199, Note_on_c, 3, 54, 0
9, 55200, Note_on_c, 3, 57, 52
9, 55439, Note_on_c, 3, 57, 0
9, 55440, Note_on_c, 3, 60, 52
9, 55679, Note_on_c, 3, 60, 0
9, 55680, Note_on_c, 3, 63, 52
9, 55919, Note_on_c, 3, 63, 0
9, 55920, Note_on_c, 3, 65, 52
9, 56159, Note_on_c, 3, 65, 0
9, 57600, Note_on_c, 3, 55, 52
9, 57839, Note_on_c, 3, 55, 0
9, 57840, Note_on_c, 3, 56, 52
9, 58079, Note_on_c, 3, 56, 0
9, 58080, Note_on_c, 3, 59, 52
9, 58319, Note_on_c, 3, 59, 0
9, 58320, Note_on_c, 3, 62, 52
9, 58559, Note_on_c, 3, 62, 0
9, 58560, Note_on_c, 3, 65, 52
9, 58799, Note_on_c, 3, 65, 0
9, 58800, Note_on_c, 3, 67, 52
9, 59039, Note_on_c, 3, 67, 0
9, 60480, Note_on_c, 3, 61, 52
9, 60719, Note_on_c, 3, 61, 0
9, 60720, Note_on_c, 3, 58, 52
9, 60959, Note_on_c, 3, 58, 0
9, 60960, Note_on_c, 3, 55, 52
9, 61199, Note_on_c, 3, 55, 0
9, 61200, Note_on_c, 3, 52, 52
9, 61439, Note_on_c, 3, 52, 0
9, 61440, Note_on_c, 3, 49, 52
9, 61679, Note_on_c, 3, 49, 0
9, 61680, Note_on_c, 3, 48, 52
9, 61919, Note_on_c, 3, 48, 0
9, 61920, Note_on_c, 3, 52, 52
9, 62129, Note_on_c, 3, 52, 0
9, 62160, Note_on_c, 3, 53, 52
9, 62399, Note_on_c, 3, 53, 0
9, 62400, Note_on_c, 3, 57, 52
9, 62639, Note_on_c, 3, 57, 0
9, 62640, Note_on_c, 3, 60, 52
9, 62879, Note_on_c, 3, 60, 0
9, 62880, Note_on_c, 3, 63, 52
9, 63119, Note_on_c, 3, 63, 0
9, 63120, Note_on_c, 3, 65, 52
9, 63359, Note_on_c, 3, 65, 0
9, 63360, Note_on_c, 3, 66, 52
9, 63599, Note_on_c, 3, 66, 0
9, 63600, Note_on_c, 3, 65, 52
9, 63839, Note_on_c, 3, 65, 0
9, 63840, Note_on_c, 3, 63, 55
9, 64079, Note_on_c, 3, 63, 0
9, 64080, Note_on_c, 3, 60, 58
9, 64319, Note_on_c, 3, 60, 0
9, 64320, Note_on_c, 3, 57, 61
9, 64559, Note_on_c, 3, 57, 0
9, 64560, Note_on_c, 3, 53, 64
9, 64769, Note_on_c, 3, 53, 0
9, 64800, Note_on_c, 3, 54, 76
9, 65039, Note_on_c, 3, 54, 0
9, 65040, Note_on_c, 3, 53, 52
9, 65279, Note_on_c, 3, 53, 0
9, 65280, Note_on_c, 3, 57, 52
9, 65519, Note_on_c, 3, 57, 0
9, 65520, Note_on_c, 3, 60, 52
9, 65759, Note_on_c, 3, 60, 0
9, 65760, Note_on_c, 3, 63, 52
9, 65999, Note_on_c, 3, 63, 0
9, 66000, Note_on_c, 3, 65, 52
9, 66239, Note_on_c, 3, 65, 0
9, 66240, Note_on_c, 3, 66, 52
9, 66479, Note_on_c, 3, 66, 0
9, 66480, Note_on_c, 3, 65, 52
9, 66719, Note_on_c, 3, 65, 0
9, 66720, Note_on_c, 3, 63, 55
9, 66959, Note_on_c, 3, 63, 0
9, 66960, Note_on_c, 3, 60, 58
9, 67199, Note_on_c, 3, 60, 0
9, 67200, Note_on_c, 3, 57, 61
9, 67439, Note_on_c, 3, 57, 0
9, 67440, Note_on_c, 3, 53, 64
9, 67649, Note_on_c, 3, 53, 0
9, 67680, Note_on_c, 3, 54, 76
9, 67919, Note_on_c, 3, 54, 0
9, 67920, Note_on_c, 3, 53, 68
9, 68129, Note_on_c, 3, 53, 0
9, 68160, Note_on_c, 3, 60, 76
9, 68160, Note_on_c, 3, 53, 76
9, 68609, Note_on_c, 3, 60, 0
9, 68609, Note_on_c, 3, 53, 0
9, 68640, Note_on_c, 3, 55, 76
9, 68640, Note_on_c, 3, 58, 76
9, 69089, Note_on_c, 3, 55, 0
9, 69089, Note_on_c, 3, 58, 0
9, 69120, Note_on_c, 3, 51, 76
9, 69120, Note_on_c, 3, 63, 76
9, 69329, Note_on_c, 3, 51, 0
9, 69329, Note_on_c, 3, 63, 0
9, 69360, Note_on_c, 3, 53, 84
9, 69360, Note_on_c, 3, 65, 84
9, 70049, Note_on_c, 3, 53, 0
9, 70049, Note_on_c, 3, 65, 0
9, 70080, Note_on_c, 3, 53, 84
9, 70080, Note_on_c, 3, 41, 84
9, 70769, Note_on_c, 3, 53, 0
9, 70769, Note_on_c, 3, 41, 0
9, 70800, Note_on_c, 3, 58, 84
9, 70800, Note_on_c, 3, 46, 84
9, 71039, Note_on_c, 3, 58, 0
9, 71039, Note_on_c, 3, 46, 0
9, 72240, Note_on_c, 3, 57, 84
9, 72479, Note_on_c, 3, 57, 0
9, 72480, Note_on_c, 3, 53, 84
9, 72599, Note_on_c, 3, 53, 0
9, 72720, Note_on_c, 3, 60, 84
9, 72959, Note_on_c, 3, 60, 0
9, 72960, Note_on_c, 3, 57, 84
9, 73079, Note_on_c, 3, 57, 0
9, 73200, Note_on_c, 3, 63, 84
9, 73439, Note_on_c, 3, 63, 0
9, 73440, Note_on_c, 3, 60, 84
9, 73559, Note_on_c, 3, 60, 0
9, 73680, Note_on_c, 3, 58, 84
9, 73919, Note_on_c, 3, 58, 0
9, 75120, Note_on_c, 3, 57, 84
9, 75359, Note_on_c, 3, 57, 0
9, 75360, Note_on_c, 3, 53, 84
9, 75479, Note_on_c, 3, 53, 0
9, 75600, Note_on_c, 3, 60, 84
9, 75839, Note_on_c, 3, 60, 0
9, 75840, Note_on_c, 3, 57, 84
9, 75959, Note_on_c, 3, 57, 0
9, 76080, Note_on_c, 3, 63, 84
9, 76319, Note_on_c, 3, 63, 0
9, 76320, Note_on_c, 3, 60, 84
9, 76439, Note_on_c, 3, 60, 0
9, 76560, Note_on_c, 3, 46, 76
9, 76560, Note_on_c, 3, 58, 76
9, 77249, Note_on_c, 3, 46, 0
9, 77249, Note_on_c, 3, 58, 0
9, 77280, Note_on_c, 3, 62, 76
9, 77280, Note_on_c, 3, 58, 76
9, 77969, Note_on_c, 3, 62, 0
9, 77969, Note_on_c, 3, 58, 0
9, 78000, Note_on_c, 3, 62, 76
9, 78000, Note_on_c, 3, 58, 76
9, 78209, Note_on_c, 3, 62, 0
9, 78209, Note_on_c, 3, 58, 0
9, 78240, Note_on_c, 3, 58, 76
9, 78240, Note_on_c, 3, 62, 76
9, 78449, Note_on_c, 3, 58, 0
9, 78449, Note_on_c, 3, 62, 0
9, 78480, Note_on_c, 3, 62, 76
9, 78480, Note_on_c, 3, 58, 76
9, 78689, Note_on_c, 3, 62, 0
9, 78689, Note_on_c, 3, 58, 0
9, 78720, Note_on_c, 3, 62, 76
9, 78720, Note_on_c, 3, 58, 76
9, 78959, Note_on_c, 3, 62, 0
9, 78959, Note_on_c, 3, 58, 0
9, 89040, Note_on_c, 3, 58, 52
9, 89249, Note_on_c, 3, 58, 0
9, 89280, Note_on_c, 3, 58, 52
9, 89489, Note_on_c, 3, 58, 0
9, 89520, Note_on_c, 3, 63, 52
9, 90929, Note_on_c, 3, 63, 0
9, 90960, Note_on_c, 3, 65, 52
9, 92369, Note_on_c, 3, 65, 0
9, 92400, Note_on_c, 3, 58, 52
9, 93809, Note_on_c, 3, 58, 0
9, 93840, Note_on_c, 3, 60, 52
9, 95249, Note_on_c, 3, 60, 0
9, 95280, Note_on_c, 3, 53, 52
9, 95969, Note_on_c, 3, 53, 0
9, 96000, Note_on_c, 3, 55, 52
9, 96689, Note_on_c, 3, 55, 0
9, 96720, Note_on_c, 3, 48, 52
9, 97409, Note_on_c, 3, 48, 0
9, 97440, Note_on_c, 3, 50, 52
9, 98129, Note_on_c, 3, 50, 0
9, 98160, Note_on_c, 3, 43, 52
9, 98849, Note_on_c, 3, 43, 0
9, 98880, Note_on_c, 3, 45, 52
9, 99360, Control_c, 3, 11, 80
9, 99569, Note_on_c, 3, 45, 0
9, 99600, Note_on_c, 3, 38, 76
9, 99600, Control_c, 3, 11, 80
9, 99710, Control_c, 3, 11, 82
9, 99820, Control_c, 3, 11, 84
9, 99930, Control_c, 3, 11, 86
9, 100040, Control_c, 3, 11, 88
9, 100150, Control_c, 3, 11, 90
9, 100260, Control_c, 3, 11, 92
9, 100289, Note_on_c, 3, 38, 0
9, 100320, Note_on_c, 3, 41, 76
9, 100370, Control_c, 3, 11, 94
9, 100480, Control_c, 3, 11, 96
9, 100590, Control_c, 3, 11, 98
9, 100700, Control_c, 3, 11, 100
9, 100810, Control_c, 3, 11, 102
9, 100920, Control_c, 3, 11, 104
9, 101030, Control_c, 3, 11, 105
9, 101140, Control_c, 3, 11, 107
9, 101250, Control_c, 3, 11, 109
9, 101360, Control_c, 3, 11, 111
9, 101470, Control_c, 3, 11, 113
9, 101580, Control_c, 3, 11, 115
9, 101690, Control_c, 3, 11, 117
9, 101800, Control_c, 3, 11, 119
9, 101910, Control_c, 3, 11, 121
9, 102020, Control_c, 3, 11, 123
9, 102130, Control_c, 3, 11, 127
9, 102209, Note_on_c, 3, 41, 0
9, 102240, Note_on_c, 3, 41, 76
9, 102240, Note_on_c, 3, 53, 76
9, 102479, Note_on_c, 3, 41, 0
9, 102479, Note_on_c, 3, 53, 0
9, 102480, Note_on_c, 3, 58, 84
9, 102480, Note_on_c, 3, 46, 84
9, 102599, Note_on_c, 3, 58, 0
9, 102599, Note_on_c, 3, 46, 0
9, 102720, Note_on_c, 3, 46, 84
9, 102720, Note_on_c, 3, 53, 84
9, 102959, Note_on_c, 3, 53, 0
9, 102960, Note_on_c, 3, 62, 84
9, 103079, Note_on_c, 3, 62, 0
9, 103169, Note_on_c, 3, 46, 0
9, 103200, Note_on_c, 3, 58, 84
9, 103200, Note_on_c, 3, 46, 84
9, 103439, Note_on_c, 3, 58, 0
9, 103440, Note_on_c, 3, 65, 84
9, 103559, Note_on_c, 3, 65, 0
9, 103649, Note_on_c, 3, 46, 0
9, 103680, Note_on_c, 3, 46, 84
9, 103680, Note_on_c, 3, 62, 84
9, 103889, Note_on_c, 3, 46, 0
9, 103889, Note_on_c, 3, 62, 0
9, 103920, Note_on_c, 3, 41, 84
9, 103920, Note_on_c, 3, 65, 84
9, 104159, Note_on_c, 3, 41, 0
9, 104159, Note_on_c, 3, 65, 0
9, 104160, Note_on_c, 3, 63, 84
9, 104160, Note_on_c, 3, 45, 84
9, 104369, Note_on_c, 3, 63, 0
9, 104369, Note_on_c, 3, 45, 0
9, 104400, Note_on_c, 3, 60, 84
9, 104400, Note_on_c, 3, 48, 84
9, 104579, Note_on_c, 3, 60, 0
9, 104579, Note_on_c, 3, 48, 0
9, 104640, Note_on_c, 3, 57, 84
9, 104640, Note_on_c, 3, 53, 84
9, 104879, Note_on_c, 3, 57, 0
9, 104879, Note_on_c, 3, 53, 0
9, 105120, Note_on_c, 3, 53, 52
9, 105359, Note_on_c, 3, 53, 0
9, 105360, Note_on_c, 3, 54, 52
9, 105599, Note_on_c, 3, 54, 0
9, 105600, Note_on_c, 3, 57, 52
9, 105839, Note_on_c, 3, 57, 0
9, 105840, Note_on_c, 3, 60, 52
9, 106079, Note_on_c, 3, 60, 0
9, 106080, Note_on_c, 3, 63, 52
9, 106319, Note_on_c, 3, 63, 0
9, 106320, Note_on_c, 3, 65, 52
9, 106559, Note_on_c, 3, 65, 0
9, 108000, Note_on_c, 3, 55, 52
9, 108239, Note_on_c, 3, 55, 0
9, 108240, Note_on_c, 3, 56, 52
9, 108479, Note_on_c, 3, 56, 0
9, 108480, Note_on_c, 3, 59, 52
9, 108719, Note_on_c, 3, 59, 0
9, 108720, Note_on_c, 3, 62, 52
9, 108959, Note_on_c, 3, 62, 0
9, 108960, Note_on_c, 3, 65, 52
9, 109199, Note_on_c, 3, 65, 0
9, 109200, Note_on_c, 3, 67, 52
9, 109439, Note_on_c, 3, 67, 0
9, 110880, Note_on_c, 3, 61, 52
9, 111119, Note_on_c, 3, 61, 0
9, 111120, Note_on_c, 3, 58, 52
9, 111359, Note_on_c, 3, 58, 0
9, 111360, Note_on_c, 3, 55, 52
9, 111599, Note_on_c, 3, 55, 0
9, 111600, Note_on_c, 3, 52, 52
9, 111839, Note_on_c, 3, 52, 0
9, 111840, Note_on_c, 3, 49, 52
9, 112079, Note_on_c, 3, 49, 0
9, 112080, Note_on_c, 3, 48, 52
9, 112319, Note_on_c, 3, 48, 0
9, 112320, Note_on_c, 3, 52, 52
9, 112529, Note_on_c, 3, 52, 0
9, 112560, Note_on_c, 3, 53, 52
9, 112799, Note_on_c, 3, 53, 0
9, 112800, Note_on_c, 3, 57, 52
9, 113039, Note_on_c, 3, 57, 0
9, 113040, Note_on_c, 3, 60, 52
9, 113279, Note_on_c, 3, 60, 0
9, 113280, Note_on_c, 3, 63, 52
9, 113519, Note_on_c, 3, 63, 0
9, 113520, Note_on_c, 3, 65, 52
9, 113759, Note_on_c, 3, 65, 0
9, 113760, Note_on_c, 3, 66, 52
9, 113999, Note_on_c, 3, 66, 0
9, 114000, Note_on_c, 3, 65, 52
9, 114239, Note_on_c, 3, 65, 0
9, 114240, Note_on_c, 3, 63, 55
9, 114479, Note_on_c, 3, 63, 0
9, 114480, Note_on_c, 3, 60, 58
9, 114719, Note_on_c, 3, 60, 0
9, 114720, Note_on_c, 3, 57, 61
9, 114959, Note_on_c, 3, 57, 0
9, 114960, Note_on_c, 3, 53, 64
9, 115169, Note_on_c, 3, 53, 0
9, 115200, Note_on_c, 3, 54, 76
9, 115439, Note_on_c, 3, 54, 0
9, 115440, Note_on_c, 3, 53, 52
9, 115679, Note_on_c, 3, 53, 0
9, 115680, Note_on_c, 3, 57, 52
9, 115919, Note_on_c, 3, 57, 0
9, 115920, Note_on_c, 3, 60, 52
9, 116159, Note_on_c, 3, 60, 0
9, 116160, Note_on_c, 3, 63, 52
9, 116399, Note_on_c, 3, 63, 0
9, 116400, Note_on_c, 3, 65, 52
9, 116639, Note_on_c, 3, 65, 0
9, 116640, Note_on_c, 3, 66, 52
9, 116879, Note_on_c, 3, 66, 0
9, 116880, Note_on_c, 3, 65, 52
9, 117119, Note_on_c, 3, 65, 0
9, 117120, Note_on_c, 3, 63, 55
9, 117359, Note_on_c, 3, 63, 0
9, 117360, Note_on_c, 3, 60, 58
9, 117599, Note_on_c, 3, 60, 0
9, 117600, Note_on_c, 3, 57, 61
9, 117839, Note_on_c, 3, 57, 0
9, 117840, Note_on_c, 3, 53, 64
9, 118049, Note_on_c, 3, 53, 0
9, 118080, Note_on_c, 3, 54, 76
9, 118319, Note_on_c, 3, 54, 0
9, 118320, Note_on_c, 3, 53, 68
9, 118529, Note_on_c, 3, 53, 0
9, 118560, Note_on_c, 3, 60, 76
9, 118560, Note_on_c, 3, 53, 76
9, 119009, Note_on_c, 3, 60, 0
9, 119009, Note_on_c, 3, 53, 0
9, 119040, Note_on_c, 3, 58, 76
9, 119040, Note_on_c, 3, 55, 76
9, 119489, Note_on_c, 3, 58, 0
9, 119489, Note_on_c, 3, 55, 0
9, 119520, Note_on_c, 3, 51, 76
9, 119520, Note_on_c, 3, 63, 76
9, 119729, Note_on_c, 3, 51, 0
9, 119729, Note_on_c, 3, 63, 0
9, 119760, Note_on_c, 3, 65, 84
9, 119760, Note_on_c, 3, 53, 84
9, 120449, Note_on_c, 3, 65, 0
9, 120449, Note_on_c, 3, 53, 0
9, 120480, Note_on_c, 3, 53, 84
9, 120480, Note_on_c, 3, 41, 84
9, 121169, Note_on_c, 3, 53, 0
9, 121169, Note_on_c, 3, 41, 0
9, 121200, Note_on_c, 3, 58, 84
9, 121200, Note_on_c, 3, 46, 84
9, 121439, Note_on_c, 3, 58, 0
9, 121439, Note_on_c, 3, 46, 0
9, 122640, Note_on_c, 3, 57, 84
9, 122879, Note_on_c, 3, 57, 0
9, 122880, Note_on_c, 3, 53, 84
9, 122999, Note_on_c, 3, 53, 0
9, 123120, Note_on_c, 3, 60, 84
9, 123359, Note_on_c, 3, 60, 0
9, 123360, Note_on_c, 3, 57, 84
9, 123479, Note_on_c, 3, 57, 0
9, 123600, Note_on_c, 3, 63, 84
9, 123839, Note_on_c, 3, 63, 0
9, 123840, Note_on_c, 3, 60, 84
9, 123959, Note_on_c, 3, 60, 0
9, 124080, Note_on_c, 3, 58, 84
9, 124319, Note_on_c, 3, 58, 0
9, 125520, Note_on_c, 3, 57, 84
9, 125759, Note_on_c, 3, 57, 0
9, 125760, Note_on_c, 3, 53, 84
9, 125879, Note_on_c, 3, 53, 0
9, 126000, Note_on_c, 3, 60, 84
9, 126239, Note_on_c, 3, 60, 0
9, 126240, Note_on_c, 3, 57, 84
9, 126359, Note_on_c, 3, 57, 0
9, 126480, Note_on_c, 3, 63, 84
9, 126719, Note_on_c, 3, 63, 0
9, 126720, Note_on_c, 3, 60, 84
9, 126839, Note_on_c, 3, 60, 0
9, 126960, Note_on_c, 3, 58, 76
9, 126960, Note_on_c, 3, 46, 76
9, 127649, Note_on_c, 3, 58, 0
9, 127649, Note_on_c, 3, 46, 0
9, 127680, Note_on_c, 3, 58, 76
9, 127680, Note_on_c, 3, 62, 76
9, 128369, Note_on_c, 3, 58, 0
9, 128369, Note_on_c, 3, 62, 0
9, 128400, Note_on_c, 3, 62, 76
9, 128400, Note_on_c, 3, 58, 76
9, 128609, Note_on_c, 3, 62, 0
9, 128609, Note_on_c, 3, 58, 0
9, 128640, Note_on_c, 3, 58, 76
9, 128640, Note_on_c, 3, 62, 76
9, 128849, Note_on_c, 3, 58, 0
9, 128849, Note_on_c, 3, 62, 0
9, 128880, Note_on_c, 3, 58, 76
9, 128880, Note_on_c, 3, 62, 76
9, 129089, Note_on_c, 3, 58, 0
9, 129089, Note_on_c, 3, 62, 0
9, 129120, Note_on_c, 3, 62, 76
9, 129120, Note_on_c, 3, 58, 76
9, 129359, Note_on_c, 3, 62, 0
9, 129359, Note_on_c, 3, 58, 0
9, 129600, Note_on_c, 3, 58, 48
9, 129600, Note_on_c, 3, 50, 48
9, 129839, Note_on_c, 3, 58, 0
9, 129839, Note_on_c, 3, 50, 0
9, 129840, Note_on_c, 3, 53, 48
9, 129840, Note_on_c, 3, 62, 48
9, 130319, Note_on_c, 3, 53, 0
9, 130319, Note_on_c, 3, 62, 0
9, 130320, Note_on_c, 3, 50, 48
9, 130320, Note_on_c, 3, 58, 48
9, 130559, Note_on_c, 3, 50, 0
9, 130559, Note_on_c, 3, 58, 0
9, 130560, Note_on_c, 3, 60, 48
9, 130560, Note_on_c, 3, 51, 48
9, 131039, Note_on_c, 3, 60, 0
9, 131039, Note_on_c, 3, 51, 0
9, 131040, Note_on_c, 3, 63, 48
9, 131040, Note_on_c, 3, 55, 48
9, 131279, Note_on_c, 3, 63, 0
9, 131279, Note_on_c, 3, 55, 0
9, 131280, Note_on_c, 3, 51, 48
9, 131280, Note_on_c, 3, 60, 48
9, 131519, Note_on_c, 3, 51, 0
9, 131519, Note_on_c, 3, 60, 0
9, 132480, Note_on_c, 3, 60, 48
9, 132480, Note_on_c, 3, 51, 48
9, 132719, Note_on_c, 3, 60, 0
9, 132719, Note_on_c, 3, 51, 0
9, 132720, Note_on_c, 3, 63, 48
9, 132720, Note_on_c, 3, 55, 48
9, 133199, Note_on_c, 3, 63, 0
9, 133199, Note_on_c, 3, 55, 0
9, 133200, Note_on_c, 3, 51, 48
9, 133200, Note_on_c, 3, 60, 48
9, 133439, Note_on_c, 3, 51, 0
9, 133439, Note_on_c, 3, 60, 0
9, 133440, Note_on_c, 3, 53, 48
9, 133440, Note_on_c, 3, 62, 48
9, 133919, Note_on_c, 3, 53, 0
9, 133919, Note_on_c, 3, 62, 0
9, 133920, Note_on_c, 3, 56, 48
9, 133920, Note_on_c, 3, 65, 48
9, 134159, Note_on_c, 3, 56, 0
9, 134159, Note_on_c, 3, 65, 0
9, 134160, Note_on_c, 3, 62, 48
9, 134160, Note_on_c, 3, 53, 48
9, 134399, Note_on_c, 3, 62, 0
9, 134399, Note_on_c, 3, 53, 0
9, 134880, Control_c, 3, 11, 96
9, 135360, Note_on_c, 3, 58, 68
9, 135569, Note_on_c, 3, 58, 0
9, 135600, Control_c, 3, 11, 96
9, 135600, Note_on_c, 3, 58, 68
9, 135680, Control_c, 3, 11, 98
9, 135760, Control_c, 3, 11, 99
9, 135840, Control_c, 3, 11, 101
9, 135920, Control_c, 3, 11, 103
9, 136000, Control_c, 3, 11, 105
9, 136049, Note_on_c, 3, 58, 0
9, 136080, Note_on_c, 3, 56, 68
9, 136080, Note_on_c, 3, 58, 68
9, 136080, Control_c, 3, 11, 106
9, 136160, Control_c, 3, 11, 108
9, 136240, Control_c, 3, 11, 110
9, 136289, Note_on_c, 3, 56, 0
9, 136289, Note_on_c, 3, 58, 0
9, 136320, Note_on_c, 3, 58, 68
9, 136320, Note_on_c, 3, 55, 68
9, 136320, Control_c, 3, 11, 112
9, 136400, Control_c, 3, 11, 113
9, 136480, Control_c, 3, 11, 115
9, 136560, Control_c, 3, 11, 117
9, 136640, Control_c, 3, 11, 118
9, 136720, Control_c, 3, 11, 120
9, 136769, Note_on_c, 3, 58, 0
9, 136769, Note_on_c, 3, 55, 0
9, 136800, Note_on_c, 3, 58, 68
9, 136800, Control_c, 3, 11, 122
9, 136800, Note_on_c, 3, 53, 68
9, 136880, Control_c, 3, 11, 124
9, 136960, Control_c, 3, 11, 127
9, 137009, Note_on_c, 3, 58, 0
9, 137009, Note_on_c, 3, 53, 0
9, 137040, Note_on_c, 3, 63, 76
9, 137040, Note_on_c, 3, 51, 76
9, 137160, Control_c, 3, 11, 112
9, 137233, Control_c, 3, 11, 110
9, 137307, Control_c, 3, 11, 108
9, 137380, Control_c, 3, 11, 107
9, 137453, Control_c, 3, 11, 105
9, 137527, Control_c, 3, 11, 103
9, 137600, Control_c, 3, 11, 101
9, 137673, Control_c, 3, 11, 100
9, 137747, Control_c, 3, 11, 98
9, 137820, Control_c, 3, 11, 96
9, 137893, Control_c, 3, 11, 94
9, 137967, Control_c, 3, 11, 92
9, 138040, Control_c, 3, 11, 91
9, 138113, Control_c, 3, 11, 89
9, 138187, Control_c, 3, 11, 87
9, 138209, Note_on_c, 3, 63, 0
9, 138209, Note_on_c, 3, 51, 0
9, 138240, Note_on_c, 3, 51, 76
9, 138240, Note_on_c, 3, 63, 76
9, 138260, Control_c, 3, 11, 85
9, 138333, Control_c, 3, 11, 84
9, 138407, Control_c, 3, 11, 80
9, 138479, Note_on_c, 3, 51, 0
9, 138479, Note_on_c, 3, 63, 0
9, 138480, Note_on_c, 3, 62, 76
9, 138480, Note_on_c, 3, 50, 76
9, 138719, Note_on_c, 3, 62, 0
9, 138719, Note_on_c, 3, 50, 0
9, 138960, Note_on_c, 3, 50, 76
9, 138960, Note_on_c, 3, 62, 76
9, 139169, Note_on_c, 3, 50, 0
9, 139169, Note_on_c, 3, 62, 0
9, 139200, Note_on_c, 3, 51, 76
9, 139200, Note_on_c, 3, 63, 76
9, 139649, Note_on_c, 3, 51, 0
9, 139649, Note_on_c, 3, 63, 0
9, 139680, Note_on_c, 3, 63, 76
9, 139680, Note_on_c, 3, 51, 76
9, 139889, Note_on_c, 3, 63, 0
9, 139889, Note_on_c, 3, 51, 0
9, 139920, Note_on_c, 3, 58, 76
9, 139920, Note_on_c, 3, 46, 76
9, 140159, Note_on_c, 3, 58, 0
9, 140159, Note_on_c, 3, 46, 0
9, 140640, Control_c, 3, 11, 127
9, 141120, Note_on_c, 3, 50, 52
9, 141120, Note_on_c, 3, 58, 52
9, 141239, Note_on_c, 3, 50, 0
9, 141239, Note_on_c, 3, 58, 0
9, 141240, Note_on_c, 3, 51, 52
9, 141240, Note_on_c, 3, 60, 52
9, 141359, Note_on_c, 3, 51, 0
9, 141359, Note_on_c, 3, 60, 0
9, 141360, Note_on_c, 3, 62, 52
9, 141360, Note_on_c, 3, 53, 52
9, 141839, Note_on_c, 3, 62, 0
9, 141839, Note_on_c, 3, 53, 0
9, 141840, Note_on_c, 3, 58, 52
9, 141840, Note_on_c, 3, 50, 52
9, 142079, Note_on_c, 3, 58, 0
9, 142079, Note_on_c, 3, 50, 0
9, 142080, Note_on_c, 3, 60, 52
9, 142080, Note_on_c, 3, 51, 52
9, 142559, Note_on_c, 3, 60, 0
9, 142559, Note_on_c, 3, 51, 0
9, 142560, Note_on_c, 3, 55, 52
9, 142560, Note_on_c, 3, 63, 52
9, 142799, Note_on_c, 3, 55, 0
9, 142799, Note_on_c, 3, 63, 0
9, 142800, Note_on_c, 3, 60, 52
9, 142800, Note_on_c, 3, 51, 52
9, 143039, Note_on_c, 3, 60, 0
9, 143039, Note_on_c, 3, 51, 0
9, 144000, Note_on_c, 3, 51, 52
9, 144000, Note_on_c, 3, 60, 52
9, 144119, Note_on_c, 3, 51, 0
9, 144119, Note_on_c, 3, 60, 0
9, 144120, Note_on_c, 3, 62, 52
9, 144120, Note_on_c, 3, 53, 52
9, 144239, Note_on_c, 3, 62, 0
9, 144239, Note_on_c, 3, 53, 0
9, 144240, Note_on_c, 3, 63, 52
9, 144240, Note_on_c, 3, 55, 52
9, 144719, Note_on_c, 3, 63, 0
9, 144719, Note_on_c, 3, 55, 0
9, 144720, Note_on_c, 3, 51, 52
9, 144720, Note_on_c, 3, 60, 52
9, 144959, Note_on_c, 3, 51, 0
9, 144959, Note_on_c, 3, 60, 0
9, 144960, Note_on_c, 3, 62, 52
9, 144960, Note_on_c, 3, 53, 52
9, 145439, Note_on_c, 3, 62, 0
9, 145439, Note_on_c, 3, 53, 0
9, 145440, Note_on_c, 3, 65, 52
9, 145440, Note_on_c, 3, 56, 52
9, 145679, Note_on_c, 3, 65, 0
9, 145679, Note_on_c, 3, 56, 0
9, 145680, Note_on_c, 3, 62, 52
9, 145680, Note_on_c, 3, 53, 52
9, 145919, Note_on_c, 3, 62, 0
9, 145919, Note_on_c, 3, 53, 0
9, 146400, Control_c, 3, 11, 96
9, 146880, Note_on_c, 3, 53, 68
9, 146880, Note_on_c, 3, 62, 68
9, 146999, Note_on_c, 3, 53, 0
9, 146999, Note_on_c, 3, 62, 0
9, 147000, Note_on_c, 3, 55, 68
9, 147000, Note_on_c, 3, 63, 68
9, 147119, Note_on_c, 3, 55, 0
9, 147119, Note_on_c, 3, 63, 0
9, 147120, Note_on_c, 3, 65, 68
9, 147120, Note_on_c, 3, 56, 68
9, 147120, Control_c, 3, 11, 96
9, 147200, Control_c, 3, 11, 98
9, 147280, Control_c, 3, 11, 99
9, 147360, Control_c, 3, 11, 101
9, 147440, Control_c, 3, 11, 103
9, 147520, Control_c, 3, 11, 105
9, 147599, Note_on_c, 3, 65, 0
9, 147599, Note_on_c, 3, 56, 0
9, 147600, Note_on_c, 3, 56, 68
9, 147600, Control_c, 3, 11, 106
9, 147600, Note_on_c, 3, 58, 68
9, 147680, Control_c, 3, 11, 108
9, 147760, Control_c, 3, 11, 110
9, 147839, Note_on_c, 3, 56, 0
9, 147839, Note_on_c, 3, 58, 0
9, 147840, Note_on_c, 3, 55, 68
9, 147840, Control_c, 3, 11, 112
9, 147840, Note_on_c, 3, 60, 68
9, 147920, Control_c, 3, 11, 113
9, 148000, Control_c, 3, 11, 115
9, 148080, Control_c, 3, 11, 117
9, 148160, Control_c, 3, 11, 118
9, 148240, Control_c, 3, 11, 120
9, 148319, Note_on_c, 3, 55, 0
9, 148319, Note_on_c, 3, 60, 0
9, 148320, Note_on_c, 3, 62, 68
9, 148320, Control_c, 3, 11, 122
9, 148320, Note_on_c, 3, 53, 68
9, 148400, Control_c, 3, 11, 124
9, 148480, Control_c, 3, 11, 127
9, 148529, Note_on_c, 3, 62, 0
9, 148529, Note_on_c, 3, 53, 0
9, 148560, Note_on_c, 3, 63, 76
9, 148560, Note_on_c, 3, 51, 76
9, 148680, Control_c, 3, 11, 112
9, 148753, Control_c, 3, 11, 110
9, 148827, Control_c, 3, 11, 108
9, 148900, Control_c, 3, 11, 107
9, 148973, Control_c, 3, 11, 105
9, 149047, Control_c, 3, 11, 103
9, 149120, Control_c, 3, 11, 101
9, 149193, Control_c, 3, 11, 100
9, 149267, Control_c, 3, 11, 98
9, 149340, Control_c, 3, 11, 96
9, 149413, Control_c, 3, 11, 94
9, 149487, Control_c, 3, 11, 92
9, 149560, Control_c, 3, 11, 91
9, 149633, Control_c, 3, 11, 89
9, 149707, Control_c, 3, 11, 87
9, 149729, Note_on_c, 3, 63, 0
9, 149729, Note_on_c, 3, 51, 0
9, 149760, Note_on_c, 3, 62, 76
9, 149760, Note_on_c, 3, 46, 76
9, 149780, Control_c, 3, 11, 85
9, 149853, Control_c, 3, 11, 84
9, 149927, Control_c, 3, 11, 80
9, 149969, Note_on_c, 3, 62, 0
9, 149969, Note_on_c, 3, 46, 0
9, 150000, Note_on_c, 3, 53, 76
9, 150000, Note_on_c, 3, 60, 76
9, 150239, Note_on_c, 3, 53, 0
9, 150239, Note_on_c, 3, 60, 0
9, 150480, Note_on_c, 3, 60, 76
9, 150480, Note_on_c, 3, 53, 76
9, 150689, Note_on_c, 3, 60, 0
9, 150689, Note_on_c, 3, 53, 0
9, 150720, Note_on_c, 3, 60, 76
9, 150720, Note_on_c, 3, 53, 76
9, 150779, Note_on_c, 3, 60, 0
9, 150780, Note_on_c, 3, 62, 76
9, 150839, Note_on_c, 3, 62, 0
9, 150840, Note_on_c, 3, 60, 76
9, 150899, Note_on_c, 3, 60, 0
9, 150900, Note_on_c, 3, 62, 76
9, 150959, Note_on_c, 3, 62, 0
9, 150960, Note_on_c, 3, 60, 76
9, 151019, Note_on_c, 3, 60, 0
9, 151020, Note_on_c, 3, 62, 76
9, 151079, Note_on_c, 3, 62, 0
9, 151080, Note_on_c, 3, 59, 76
9, 151169, Note_on_c, 3, 53, 0
9, 151184, Note_on_c, 3, 59, 0
9, 151200, Note_on_c, 3, 60, 76
9, 151200, Note_on_c, 3, 53, 76
9, 151409, Note_on_c, 3, 60, 0
9, 151409, Note_on_c, 3, 53, 0
9, 151440, Note_on_c, 3, 53, 76
9, 151440, Note_on_c, 3, 60, 76
9, 151679, Note_on_c, 3, 53, 0
9, 151679, Note_on_c, 3, 60, 0
9, 152160, Control_c, 3, 11, 96
9, 152640, Note_on_c, 3, 60, 68
9, 152640, Note_on_c, 3, 57, 68
9, 152879, Note_on_c, 3, 60, 0
9, 152879, Note_on_c, 3, 57, 0
9, 152880, Note_on_c, 3, 63, 68
9, 152880, Control_c, 3, 11, 96
9, 152880, Note_on_c, 3, 60, 68
9, 152940, Control_c, 3, 11, 99
9, 153000, Control_c, 3, 11, 101
9, 153060, Control_c, 3, 11, 104
9, 153120, Control_c, 3, 11, 106
9, 153180, Control_c, 3, 11, 109
9, 153240, Control_c, 3, 11, 112
9, 153300, Control_c, 3, 11, 114
9, 153359, Note_on_c, 3, 63, 0
9, 153359, Note_on_c, 3, 60, 0
9, 153360, Control_c, 3, 11, 117
9, 153360, Note_on_c, 3, 60, 68
9, 153360, Note_on_c, 3, 57, 68
9, 153420, Control_c, 3, 11, 119
9, 153480, Control_c, 3, 11, 122
9, 153540, Control_c, 3, 11, 127
9, 153599, Note_on_c, 3, 60, 0
9, 153599, Note_on_c, 3, 57, 0
9, 153600, Control_c, 3, 11, 127
9, 153600, Note_on_c, 3, 59, 68
9, 153600, Note_on_c, 3, 62, 68
9, 153660, Control_c, 3, 11, 124
9, 153720, Control_c, 3, 11, 122
9, 153780, Control_c, 3, 11, 119
9, 153840, Control_c, 3, 11, 117
9, 153900, Control_c, 3, 11, 114
9, 153960, Control_c, 3, 11, 112
9, 154020, Control_c, 3, 11, 109
9, 154079, Note_on_c, 3, 59, 0
9, 154079, Note_on_c, 3, 62, 0
9, 154080, Note_on_c, 3, 65, 68
9, 154080, Note_on_c, 3, 62, 68
9, 154080, Control_c, 3, 11, 106
9, 154140, Control_c, 3, 11, 104
9, 154200, Control_c, 3, 11, 101
9, 154260, Control_c, 3, 11, 96
9, 154319, Note_on_c, 3, 65, 0
9, 154319, Note_on_c, 3, 62, 0
9, 154320, Note_on_c, 3, 63, 68
9, 154320, Note_on_c, 3, 60, 68
9, 154559, Note_on_c, 3, 63, 0
9, 154559, Note_on_c, 3, 60, 0
9, 155520, Note_on_c, 3, 57, 68
9, 155520, Note_on_c, 3, 60, 68
9, 155639, Note_on_c, 3, 57, 0
9, 155639, Note_on_c, 3, 60, 0
9, 155640, Note_on_c, 3, 58, 68
9, 155640, Note_on_c, 3, 62, 68
9, 155759, Note_on_c, 3, 58, 0
9, 155759, Note_on_c, 3, 62, 0
9, 155760, Note_on_c, 3, 63, 68
9, 155760, Control_c, 3, 11, 96
9, 155760, Note_on_c, 3, 60, 68
9, 155820, Control_c, 3, 11, 99
9, 155880, Control_c, 3, 11, 101
9, 155940, Control_c, 3, 11, 104
9, 156000, Control_c, 3, 11, 106
9, 156060, Control_c, 3, 11, 109
9, 156120, Control_c, 3, 11, 112
9, 156180, Control_c, 3, 11, 114
9, 156239, Note_on_c, 3, 63, 0
9, 156239, Note_on_c, 3, 60, 0
9, 156240, Note_on_c, 3, 57, 68
9, 156240, Control_c, 3, 11, 117
9, 156240, Note_on_c, 3, 60, 68
9, 156300, Control_c, 3, 11, 119
9, 156360, Control_c, 3, 11, 122
9, 156420, Control_c, 3, 11, 127
9, 156479, Note_on_c, 3, 57, 0
9, 156479, Note_on_c, 3, 60, 0
9, 156480, Note_on_c, 3, 62, 68
9, 156480, Control_c, 3, 11, 127
9, 156480, Note_on_c, 3, 59, 68
9, 156540, Control_c, 3, 11, 124
9, 156600, Control_c, 3, 11, 122
9, 156660, Control_c, 3, 11, 119
9, 156720, Control_c, 3, 11, 117
9, 156780, Control_c, 3, 11, 114
9, 156840, Control_c, 3, 11, 112
9, 156900, Control_c, 3, 11, 109
9, 156959, Note_on_c, 3, 62, 0
9, 156959, Note_on_c, 3, 59, 0
9, 156960, Note_on_c, 3, 62, 68
9, 156960, Note_on_c, 3, 65, 68
9, 156960, Control_c, 3, 11, 106
9, 157020, Control_c, 3, 11, 104
9, 157080, Control_c, 3, 11, 101
9, 157140, Control_c, 3, 11, 96
9, 157199, Note_on_c, 3, 62, 0
9, 157199, Note_on_c, 3, 65, 0
9, 157200, Note_on_c, 3, 60, 68
9, 157200, Note_on_c, 3, 63, 68
9, 157439, Note_on_c, 3, 60, 0
9, 157439, Note_on_c, 3, 63, 0
9, 157920, Control_c, 3, 11, 127
9, 158280, Note_on_c, 3, 62, 44
9, 158280, Note_on_c, 3, 59, 44
9, 158399, Note_on_c, 3, 62, 0
9, 158399, Note_on_c, 3, 59, 0
9, 158400, Note_on_c, 3, 60, 44
9, 158400, Note_on_c, 3, 63, 44
9, 158519, Note_on_c, 3, 60, 0
9, 158519, Note_on_c, 3, 63, 0
9, 158520, Note_on_c, 3, 62, 44
9, 158520, Note_on_c, 3, 59, 44
9, 158624, Note_on_c, 3, 62, 0
9, 158624, Note_on_c, 3, 59, 0
9, 158640, Note_on_c, 3, 63, 44
9, 158640, Note_on_c, 3, 60, 44
9, 158819, Note_on_c, 3, 63, 0
9, 158819, Note_on_c, 3, 60, 0
9, 159000, Note_on_c, 3, 59, 44
9, 159000, Note_on_c, 3, 62, 44
9, 159119, Note_on_c, 3, 59, 0
9, 159119, Note_on_c, 3, 62, 0
9, 159120, Note_on_c, 3, 60, 44
9, 159120, Note_on_c, 3, 63, 44
9, 159239, Note_on_c, 3, 60, 0
9, 159239, Note_on_c, 3, 63, 0
9, 159240, Note_on_c, 3, 62, 44
9, 159240, Note_on_c, 3, 59, 44
9, 159344, Note_on_c, 3, 62, 0
9, 159344, Note_on_c, 3, 59, 0
9, 159360, Note_on_c, 3, 63, 44
9, 159360, Note_on_c, 3, 60, 44
9, 159539, Note_on_c, 3, 63, 0
9, 159539, Note_on_c, 3, 60, 0
9, 159720, Note_on_c, 3, 62, 44
9, 159720, Note_on_c, 3, 59, 44
9, 159839, Note_on_c, 3, 62, 0
9, 159839, Note_on_c, 3, 59, 0
9, 159840, Note_on_c, 3, 60, 44
9, 159840, Note_on_c, 3, 63, 44
9, 159959, Note_on_c, 3, 60, 0
9, 159959, Note_on_c, 3, 63, 0
9, 159960, Note_on_c, 3, 62, 44
9, 159960, Note_on_c, 3, 59, 44
9, 160064, Note_on_c, 3, 62, 0
9, 160064, Note_on_c, 3, 59, 0
9, 160080, Note_on_c, 3, 60, 44
9, 160080, Note_on_c, 3, 63, 44
9, 160259, Note_on_c, 3, 60, 0
9, 160259, Note_on_c, 3, 63, 0
9, 165120, Control_c, 3, 11, 48
9, 165600, Note_on_c, 3, 58, 84
9, 165600, Note_on_c, 3, 50, 84
9, 165839, Note_on_c, 3, 58, 0
9, 165839, Note_on_c, 3, 50, 0
9, 165840, Control_c, 3, 11, 48
9, 165840, Note_on_c, 3, 53, 84
9, 165840, Note_on_c, 3, 62, 84
9, 165977, Control_c, 3, 11, 49
9, 166113, Control_c, 3, 11, 50
9, 166250, Control_c, 3, 11, 51
9, 166319, Note_on_c, 3, 53, 0
9, 166319, Note_on_c, 3, 62, 0
9, 166320, Note_on_c, 3, 58, 84
9, 166320, Note_on_c, 3, 50, 84
9, 166387, Control_c, 3, 11, 52
9, 166524, Control_c, 3, 11, 53
9, 166559, Note_on_c, 3, 58, 0
9, 166559, Note_on_c, 3, 50, 0
9, 166560, Note_on_c, 3, 60, 84
9, 166560, Note_on_c, 3, 51, 84
9, 166660, Control_c, 3, 11, 54
9, 166797, Control_c, 3, 11, 55
9, 166934, Control_c, 3, 11, 56
9, 167039, Note_on_c, 3, 60, 0
9, 167039, Note_on_c, 3, 51, 0
9, 167040, Note_on_c, 3, 55, 84
9, 167040, Note_on_c, 3, 63, 84
9, 167070, Control_c, 3, 11, 57
9, 167207, Control_c, 3, 11, 58
9, 167279, Note_on_c, 3, 55, 0
9, 167279, Note_on_c, 3, 63, 0
9, 167280, Note_on_c, 3, 60, 84
9, 167280, Note_on_c, 3, 51, 84
9, 167344, Control_c, 3, 11, 59
9, 167481, Control_c, 3, 11, 60
9, 167519, Note_on_c, 3, 60, 0
9, 167519, Note_on_c, 3, 51, 0
9, 167617, Control_c, 3, 11, 61
9, 168437, Control_c, 3, 11, 67
9, 168480, Note_on_c, 3, 60, 84
9, 168480, Note_on_c, 3, 51, 84
9, 168574, Control_c, 3, 11, 68
9, 168711, Control_c, 3, 11, 69
9, 168719, Note_on_c, 3, 60, 0
9, 168719, Note_on_c, 3, 51, 0
9, 168720, Note_on_c, 3, 63, 84
9, 168720, Note_on_c, 3, 55, 84
9, 168848, Control_c, 3, 11, 70
9, 168984, Control_c, 3, 11, 71
9, 169121, Control_c, 3, 11, 72
9, 169199, Note_on_c, 3, 63, 0
9, 169199, Note_on_c, 3, 55, 0
9, 169200, Note_on_c, 3, 60, 84
9, 169200, Note_on_c, 3, 51, 84
9, 169258, Control_c, 3, 11, 73
9, 169394, Control_c, 3, 11, 74
9, 169439, Note_on_c, 3, 60, 0
9, 169439, Note_on_c, 3, 51, 0
9, 169440, Note_on_c, 3, 53, 84
9, 169440, Note_on_c, 3, 62, 84
9, 169531, Control_c, 3, 11, 75
9, 169668, Control_c, 3, 11, 76
9, 169805, Control_c, 3, 11, 77
9, 169919, Note_on_c, 3, 53, 0
9, 169919, Note_on_c, 3, 62, 0
9, 169920, Note_on_c, 3, 56, 84
9, 169920, Note_on_c, 3, 65, 84
9, 169941, Control_c, 3, 11, 78
9, 170078, Control_c, 3, 11, 79
9, 170159, Note_on_c, 3, 56, 0
9, 170159, Note_on_c, 3, 65, 0
9, 170160, Note_on_c, 3, 62, 84
9, 170160, Note_on_c, 3, 53, 84
9, 170215, Control_c, 3, 11, 80
9, 170351, Control_c, 3, 11, 81
9, 170399, Note_on_c, 3, 62, 0
9, 170399, Note_on_c, 3, 53, 0
9, 170488, Control_c, 3, 11, 82
9, 171308, Control_c, 3, 11, 88
9, 171360, Note_on_c, 3, 58, 84
9, 171360, Note_on_c, 3, 62, 84
9, 171445, Control_c, 3, 11, 89
9, 171582, Control_c, 3, 11, 90
9, 171599, Note_on_c, 3, 58, 0
9, 171599, Note_on_c, 3, 62, 0
9, 171600, Note_on_c, 3, 62, 84
9, 171600, Note_on_c, 3, 65, 84
9, 171718, Control_c, 3, 11, 91
9, 171855, Control_c, 3, 11, 92
9, 171992, Control_c, 3, 11, 93
9, 172079, Note_on_c, 3, 62, 0
9, 172079, Note_on_c, 3, 65, 0
9, 172080, Note_on_c, 3, 58, 84
9, 172080, Note_on_c, 3, 62, 84
9, 172129, Control_c, 3, 11, 94
9, 172265, Control_c, 3, 11, 95
9, 172319, Note_on_c, 3, 58, 0
9, 172319, Note_on_c, 3, 62, 0
9, 172320, Note_on_c, 3, 63, 84
9, 172320, Note_on_c, 3, 60, 84
9, 172402, Control_c, 3, 11, 96
9, 172539, Control_c, 3, 11, 97
9, 172675, Control_c, 3, 11, 98
9, 172799, Note_on_c, 3, 63, 0
9, 172799, Note_on_c, 3, 60, 0
9, 172800, Note_on_c, 3, 65, 84
9, 172800, Note_on_c, 3, 62, 84
9, 172812, Control_c, 3, 11, 99
9, 172949, Control_c, 3, 11, 100
9, 173009, Note_on_c, 3, 65, 0
9, 173009, Note_on_c, 3, 62, 0
9, 173040, Note_on_c, 3, 63, 84
9, 173040, Note_on_c, 3, 67, 84
9, 173086, Control_c, 3, 11, 101
9, 173222, Control_c, 3, 11, 102
9, 173359, Control_c, 3, 11, 103
9, 173496, Control_c, 3, 11, 104
9, 173632, Control_c, 3, 11, 105
9, 173769, Control_c, 3, 11, 106
9, 173906, Control_c, 3, 11, 107
9, 174043, Control_c, 3, 11, 108
9, 174179, Control_c, 3, 11, 109
9, 174209, Note_on_c, 3, 63, 0
9, 174209, Note_on_c, 3, 67, 0
9, 174240, Note_on_c, 3, 65, 84
9, 174240, Note_on_c, 3, 62, 84
9, 174316, Control_c, 3, 11, 110
9, 174449, Note_on_c, 3, 65, 0
9, 174449, Note_on_c, 3, 62, 0
9, 174453, Control_c, 3, 11, 111
9, 174480, Note_on_c, 3, 63, 84
9, 174480, Note_on_c, 3, 60, 84
9, 174589, Control_c, 3, 11, 112
9, 174726, Control_c, 3, 11, 113
9, 174863, Control_c, 3, 11, 114
9, 174929, Note_on_c, 3, 63, 0
9, 174929, Note_on_c, 3, 60, 0
9, 174960, Note_on_c, 3, 60, 84
9, 174960, Note_on_c, 3, 63, 84
9, 174999, Control_c, 3, 11, 115
9, 175136, Control_c, 3, 11, 116
9, 175169, Note_on_c, 3, 60, 0
9, 175169, Note_on_c, 3, 63, 0
9, 175200, Note_on_c, 3, 63, 84
9, 175200, Note_on_c, 3, 60, 84
9, 175259, Note_on_c, 3, 63, 0
9, 175259, Note_on_c, 3, 60, 0
9, 175260, Note_on_c, 3, 62, 84
9, 175260, Note_on_c, 3, 65, 84
9, 175273, Control_c, 3, 11, 117
9, 175319, Note_on_c, 3, 62, 0
9, 175319, Note_on_c, 3, 65, 0
9, 175320, Note_on_c, 3, 60, 84
9, 175320, Note_on_c, 3, 63, 84
9, 175379, Note_on_c, 3, 60, 0
9, 175379, Note_on_c, 3, 63, 0
9, 175380, Note_on_c, 3, 62, 84
9, 175380, Note_on_c, 3, 65, 84
9, 175410, Control_c, 3, 11, 118
9, 175439, Note_on_c, 3, 62, 0
9, 175439, Note_on_c, 3, 65, 0
9, 175440, Note_on_c, 3, 63, 84
9, 175440, Note_on_c, 3, 60, 84
9, 175499, Note_on_c, 3, 63, 0
9, 175499, Note_on_c, 3, 60, 0
9, 175500, Note_on_c, 3, 62, 84
9, 175500, Note_on_c, 3, 65, 84
9, 175546, Control_c, 3, 11, 119
9, 175559, Note_on_c, 3, 62, 0
9, 175559, Note_on_c, 3, 65, 0
9, 175560, Note_on_c, 3, 62, 84
9, 175560, Note_on_c, 3, 59, 84
9, 175664, Note_on_c, 3, 62, 0
9, 175664, Note_on_c, 3, 59, 0
9, 175680, Note_on_c, 3, 60, 84
9, 175680, Note_on_c, 3, 63, 84
9, 175683, Control_c, 3, 11, 120
9, 175820, Control_c, 3, 11, 121
9, 175889, Note_on_c, 3, 60, 0
9, 175889, Note_on_c, 3, 63, 0
9, 175920, Note_on_c, 3, 58, 84
9, 175920, Note_on_c, 3, 62, 84
9, 175956, Control_c, 3, 11, 122
9, 176093, Control_c, 3, 11, 123
9, 176159, Note_on_c, 3, 58, 0
9, 176159, Note_on_c, 3, 62, 0
9, 176230, Control_c, 3, 11, 124
9, 176367, Control_c, 3, 11, 125
9, 176503, Control_c, 3, 11, 126
9, 177120, Note_on_c, 3, 58, 84
9, 177120, Note_on_c, 3, 62, 84
9, 177239, Note_on_c, 3, 58, 0
9, 177239, Note_on_c, 3, 62, 0
9, 177240, Note_on_c, 3, 60, 84
9, 177240, Note_on_c, 3, 63, 84
9, 177359, Note_on_c, 3, 60, 0
9, 177359, Note_on_c, 3, 63, 0
9, 177360, Note_on_c, 3, 62, 84
9, 177360, Note_on_c, 3, 65, 84
9, 177839, Note_on_c, 3, 62, 0
9, 177839, Note_on_c, 3, 65, 0
9, 177840, Note_on_c, 3, 62, 84
9, 177840, Note_on_c, 3, 58, 84
9, 178079, Note_on_c, 3, 62, 0
9, 178079, Note_on_c, 3, 58, 0
9, 178080, Note_on_c, 3, 60, 84
9, 178080, Note_on_c, 3, 63, 84
9, 178559, Note_on_c, 3, 60, 0
9, 178559, Note_on_c, 3, 63, 0
9, 178560, Note_on_c, 3, 62, 84
9, 178560, Note_on_c, 3, 65, 84
9, 178769, Note_on_c, 3, 62, 0
9, 178769, Note_on_c, 3, 65, 0
9, 178800, Note_on_c, 3, 67, 92
9, 178800, Note_on_c, 3, 63, 92
9, 179969, Note_on_c, 3, 67, 0
9, 179969, Note_on_c, 3, 63, 0
9, 180000, Note_on_c, 3, 62, 84
9, 180000, Note_on_c, 3, 65, 84
9, 180239, Note_on_c, 3, 62, 0
9, 180239, Note_on_c, 3, 65, 0
9, 180240, Note_on_c, 3, 60, 84
9, 180240, Note_on_c, 3, 63, 84
9, 180479, Note_on_c, 3, 60, 0
9, 180479, Note_on_c, 3, 63, 0
9, 180720, Note_on_c, 3, 60, 84
9, 180720, Note_on_c, 3, 63, 84
9, 180929, Note_on_c, 3, 60, 0
9, 180929, Note_on_c, 3, 63, 0
9, 180960, Note_on_c, 3, 60, 84
9, 180960, Note_on_c, 3, 63, 84
9, 181019, Note_on_c, 3, 60, 0
9, 181019, Note_on_c, 3, 63, 0
9, 181020, Note_on_c, 3, 62, 84
9, 181020, Note_on_c, 3, 65, 84
9, 181079, Note_on_c, 3, 62, 0
9, 181079, Note_on_c, 3, 65, 0
9, 181080, Note_on_c, 3, 63, 84
9, 181080, Note_on_c, 3, 60, 84
9, 181139, Note_on_c, 3, 63, 0
9, 181139, Note_on_c, 3, 60, 0
9, 181140, Note_on_c, 3, 62, 84
9, 181140, Note_on_c, 3, 65, 84
9, 181199, Note_on_c, 3, 62, 0
9, 181199, Note_on_c, 3, 65, 0
9, 181200, Note_on_c, 3, 60, 84
9, 181200, Note_on_c, 3, 63, 84
9, 181259, Note_on_c, 3, 60, 0
9, 181259, Note_on_c, 3, 63, 0
9, 181260, Note_on_c, 3, 65, 84
9, 181260, Note_on_c, 3, 62, 84
9, 181319, Note_on_c, 3, 65, 0
9, 181319, Note_on_c, 3, 62, 0
9, 181320, Note_on_c, 3, 59, 84
9, 181320, Note_on_c, 3, 62, 84
9, 181424, Note_on_c, 3, 59, 0
9, 181424, Note_on_c, 3, 62, 0
9, 181440, Note_on_c, 3, 63, 84
9, 181440, Note_on_c, 3, 60, 84
9, 181649, Note_on_c, 3, 63, 0
9, 181649, Note_on_c, 3, 60, 0
9, 181680, Note_on_c, 3, 58, 84
9, 181680, Note_on_c, 3, 62, 84
9, 181919, Note_on_c, 3, 58, 0
9, 181919, Note_on_c, 3, 62, 0
9, 182880, Note_on_c, 3, 65, 84
9, 182880, Note_on_c, 3, 62, 84
9, 183119, Note_on_c, 3, 65, 0
9, 183119, Note_on_c, 3, 62, 0
9, 183120, Note_on_c, 3, 63, 84
9, 183120, Note_on_c, 3, 60, 84
9, 183359, Note_on_c, 3, 63, 0
9, 183359, Note_on_c, 3, 60, 0
9, 184320, Note_on_c, 3, 65, 84
9, 184320, Note_on_c, 3, 57, 84
9, 184559, Note_on_c, 3, 65, 0
9, 184559, Note_on_c, 3, 57, 0
9, 184560, Note_on_c, 3, 62, 84
9, 184560, Note_on_c, 3, 58, 84
9, 184799, Note_on_c, 3, 62, 0
9, 184799, Note_on_c, 3, 58, 0
9, 185760, Note_on_c, 3, 65, 72
9, 185760, Note_on_c, 3, 62, 72
9, 185999, Note_on_c, 3, 65, 0
9, 185999, Note_on_c, 3, 62, 0
9, 186000, Note_on_c, 3, 63, 68
9, 186000, Note_on_c, 3, 60, 68
9, 186239, Note_on_c, 3, 63, 0
9, 186239, Note_on_c, 3, 60, 0
9, 187200, Note_on_c, 3, 65, 48
9, 187200, Note_on_c, 3, 57, 48
9, 187439, Note_on_c, 3, 65, 0
9, 187439, Note_on_c, 3, 57, 0
9, 187440, Note_on_c, 3, 58, 44
9, 187440, Note_on_c, 3, 62, 44
9, 187679, Note_on_c, 3, 58, 0
9, 187679, Note_on_c, 3, 62, 0
9, 188160, Note_on_c, 3, 62, 44
9, 188160, Note_on_c, 3, 58, 44
9, 188399, Note_on_c, 3, 62, 0
9, 188399, Note_on_c, 3, 58, 0
9, 188880, Note_on_c, 3, 62, 44
9, 188880, Note_on_c, 3, 58, 44
9, 189119, Note_on_c, 3, 62, 0
9, 189119, Note_on_c, 3, 58, 0
9, 189600, Note_on_c, 3, 58, 44
9, 189600, Note_on_c, 3, 62, 44
9, 189839, Note_on_c, 3, 58, 0
9, 189839, Note_on_c, 3, 62, 0
9, 190320, Note_on_c, 3, 58, 44
9, 190320, Note_on_c, 3, 62, 44
9, 190559, Note_on_c, 3, 58, 0
9, 190559, Note_on_c, 3, 62, 0
9, 192960, Note_on_c, 3, 53, 76
9, 192960, Note_on_c, 3, 41, 76
9, 193199, Note_on_c, 3, 53, 0
9, 193199, Note_on_c, 3, 41, 0
9, 193200, Note_on_c, 3, 46, 84
9, 193200, Note_on_c, 3, 58, 84
9, 193319, Note_on_c, 3, 46, 0
9, 193319, Note_on_c, 3, 58, 0
9, 193440, Note_on_c, 3, 46, 84
9, 193889, Note_on_c, 3, 46, 0
9, 193920, Note_on_c, 3, 46, 84
9, 194369, Note_on_c, 3, 46, 0
9, 194400, Note_on_c, 3, 46, 84
9, 194609, Note_on_c, 3, 46, 0
9, 194640, Note_on_c, 3, 41, 84
9, 194879, Note_on_c, 3, 41, 0
9, 194880, Note_on_c, 3, 45, 84
9, 195119, Note_on_c, 3, 45, 0
9, 195120, Note_on_c, 3, 48, 84
9, 195299, Note_on_c, 3, 48, 0
9, 195360, Note_on_c, 3, 53, 84
9, 195599, Note_on_c, 3, 53, 0
9, 195840, Note_on_c, 3, 53, 52
9, 196079, Note_on_c, 3, 53, 0
9, 196080, Note_on_c, 3, 54, 52
9, 196319, Note_on_c, 3, 54, 0
9, 196320, Note_on_c, 3, 57, 52
9, 196559, Note_on_c, 3, 57, 0
9, 196560, Note_on_c, 3, 60, 52
9, 196799, Note_on_c, 3, 60, 0
9, 196800, Note_on_c, 3, 63, 52
9, 197039, Note_on_c, 3, 63, 0
9, 197040, Note_on_c, 3, 65, 52
9, 197279, Note_on_c, 3, 65, 0
9, 198720, Note_on_c, 3, 51, 52
9, 198959, Note_on_c, 3, 51, 0
9, 198960, Note_on_c, 3, 49, 52
9, 199199, Note_on_c, 3, 49, 0
9, 199200, Note_on_c, 3, 52, 52
9, 199439, Note_on_c, 3, 52, 0
9, 199440, Note_on_c, 3, 55, 52
9, 199679, Note_on_c, 3, 55, 0
9, 199680, Note_on_c, 3, 58, 52
9, 199919, Note_on_c, 3, 58, 0
9, 199920, Note_on_c, 3, 60, 52
9, 200159, Note_on_c, 3, 60, 0
9, 201120, Control_c, 3, 11, 80
9, 201600, Note_on_c, 3, 52, 76
9, 201839, Note_on_c, 3, 52, 0
9, 201840, Note_on_c, 3, 53, 76
9, 201840, Control_c, 3, 11, 80
9, 201950, Control_c, 3, 11, 82
9, 201959, Note_on_c, 3, 53, 0
9, 202060, Control_c, 3, 11, 84
9, 202080, Note_on_c, 3, 55, 76
9, 202170, Control_c, 3, 11, 86
9, 202280, Control_c, 3, 11, 88
9, 202319, Note_on_c, 3, 55, 0
9, 202320, Note_on_c, 3, 48, 76
9, 202390, Control_c, 3, 11, 90
9, 202439, Note_on_c, 3, 48, 0
9, 202500, Control_c, 3, 11, 92
9, 202560, Note_on_c, 3, 57, 76
9, 202610, Control_c, 3, 11, 94
9, 202720, Control_c, 3, 11, 96
9, 202799, Note_on_c, 3, 57, 0
9, 202800, Note_on_c, 3, 53, 76
9, 202830, Control_c, 3, 11, 98
9, 202919, Note_on_c, 3, 53, 0
9, 202940, Control_c, 3, 11, 100
9, 203040, Note_on_c, 3, 58, 84
9, 203050, Control_c, 3, 11, 102
9, 203160, Control_c, 3, 11, 104
9, 203270, Control_c, 3, 11, 105
9, 203380, Control_c, 3, 11, 107
9, 203490, Control_c, 3, 11, 109
9, 203519, Note_on_c, 3, 58, 0
9, 203600, Control_c, 3, 11, 111
9, 203710, Control_c, 3, 11, 113
9, 203820, Control_c, 3, 11, 115
9, 203930, Control_c, 3, 11, 117
9, 204040, Control_c, 3, 11, 119
9, 204150, Control_c, 3, 11, 121
9, 204260, Control_c, 3, 11, 123
9, 204370, Control_c, 3, 11, 125
9, 204480, Note_on_c, 3, 60, 76
9, 204480, Control_c, 3, 11, 127
9, 204480, Note_on_c, 3, 48, 76
9, 204659, Note_on_c, 3, 60, 0
9, 204659, Note_on_c, 3, 48, 0
9, 204720, Note_on_c, 3, 53, 84
9, 204720, Note_on_c, 3, 57, 84
9, 205409, Note_on_c, 3, 53, 0
9, 205409, Note_on_c, 3, 57, 0
9, 205440, Note_on_c, 3, 53, 84
9, 205440, Note_on_c, 3, 57, 84
9, 206129, Note_on_c, 3, 53, 0
9, 206129, Note_on_c, 3, 57, 0
9, 206160, Note_on_c, 3, 57, 84
9, 206160, Note_on_c, 3, 53, 84
9, 206369, Note_on_c, 3, 57, 0
9, 206369, Note_on_c, 3, 53, 0
9, 206400, Note_on_c, 3, 53, 84
9, 206400, Note_on_c, 3, 57, 84
9, 206609, Note_on_c, 3, 53, 0
9, 206609, Note_on_c, 3, 57, 0
9, 206640, Note_on_c, 3, 57, 84
9, 206640, Note_on_c, 3, 53, 84
9, 206849, Note_on_c, 3, 57, 0
9, 206849, Note_on_c, 3, 53, 0
9, 206880, Note_on_c, 3, 53, 84
9, 206880, Note_on_c, 3, 57, 84
9, 207119, Note_on_c, 3, 53, 0
9, 207119, Note_on_c, 3, 57, 0
9, 217200, Note_on_c, 3, 58, 52
9, 217409, Note_on_c, 3, 58, 0
9, 217440, Note_on_c, 3, 58, 52
9, 217649, Note_on_c, 3, 58, 0
9, 217680, Note_on_c, 3, 63, 52
9, 219089, Note_on_c, 3, 63, 0
9, 219120, Note_on_c, 3, 65, 52
9, 220529, Note_on_c, 3, 65, 0
9, 220560, Note_on_c, 3, 58, 52
9, 221969, Note_on_c, 3, 58, 0
9, 222000, Note_on_c, 3, 60, 52
9, 223409, Note_on_c, 3, 60, 0
9, 223440, Note_on_c, 3, 53, 52
9, 224129, Note_on_c, 3, 53, 0
9, 224160, Note_on_c, 3, 55, 52
9, 224849, Note_on_c, 3, 55, 0
9, 224880, Note_on_c, 3, 48, 52
9, 225569, Note_on_c, 3, 48, 0
9, 225600, Note_on_c, 3, 50, 52
9, 226289, Note_on_c, 3, 50, 0
9, 226320, Note_on_c, 3, 43, 52
9, 227009, Note_on_c, 3, 43, 0
9, 227040, Note_on_c, 3, 45, 52
9, 227520, Control_c, 3, 11, 80
9, 227729, Note_on_c, 3, 45, 0
9, 227760, Control_c, 3, 11, 80
9, 227760, Note_on_c, 3, 38, 76
9, 227870, Control_c, 3, 11, 82
9, 227980, Control_c, 3, 11, 84
9, 228090, Control_c, 3, 11, 86
9, 228200, Control_c, 3, 11, 88
9, 228310, Control_c, 3, 11, 90
9, 228420, Control_c, 3, 11, 92
9, 228449, Note_on_c, 3, 38, 0
9, 228480, Note_on_c, 3, 41, 76
9, 228530, Control_c, 3, 11, 94
9, 228640, Control_c, 3, 11, 96
9, 228750, Control_c, 3, 11, 98
9, 228860, Control_c, 3, 11, 100
9, 228970, Control_c, 3, 11, 102
9, 229080, Control_c, 3, 11, 104
9, 229190, Control_c, 3, 11, 105
9, 229300, Control_c, 3, 11, 107
9, 229410, Control_c, 3, 11, 109
9, 229520, Control_c, 3, 11, 111
9, 229630, Control_c, 3, 11, 113
9, 229740, Control_c, 3, 11, 115
9, 229850, Control_c, 3, 11, 117
9, 229960, Control_c, 3, 11, 119
9, 230070, Control_c, 3, 11, 121
9, 230180, Control_c, 3, 11, 123
9, 230290, Control_c, 3, 11, 127
9, 230369, Note_on_c, 3, 41, 0
9, 230400, Note_on_c, 3, 53, 76
9, 230400, Note_on_c, 3, 41, 76
9, 230639, Note_on_c, 3, 53, 0
9, 230639, Note_on_c, 3, 41, 0
9, 230640, Note_on_c, 3, 46, 84
9, 230640, Note_on_c, 3, 58, 84
9, 230759, Note_on_c, 3, 46, 0
9, 230759, Note_on_c, 3, 58, 0
9, 230880, Note_on_c, 3, 46, 84
9, 230880, Note_on_c, 3, 53, 84
9, 231119, Note_on_c, 3, 53, 0
9, 231120, Note_on_c, 3, 62, 84
9, 231239, Note_on_c, 3, 62, 0
9, 231329, Note_on_c, 3, 46, 0
9, 231360, Note_on_c, 3, 58, 84
9, 231360, Note_on_c, 3, 46, 84
9, 231599, Note_on_c, 3, 58, 0
9, 231600, Note_on_c, 3, 65, 84
9, 231719, Note_on_c, 3, 65, 0
9, 231809, Note_on_c, 3, 46, 0
9, 231840, Note_on_c, 3, 62, 84
9, 231840, Note_on_c, 3, 46, 84
9, 232049, Note_on_c, 3, 62, 0
9, 232049, Note_on_c, 3, 46, 0
9, 232080, Note_on_c, 3, 41, 84
9, 232080, Note_on_c, 3, 65, 84
9, 232319, Note_on_c, 3, 41, 0
9, 232319, Note_on_c, 3, 65, 0
9, 232320, Note_on_c, 3, 45, 84
9, 232320, Note_on_c, 3, 63, 84
9, 232529, Note_on_c, 3, 45, 0
9, 232529, Note_on_c, 3, 63, 0
9, 232560, Note_on_c, 3, 60, 84
9, 232560, Note_on_c, 3, 48, 84
9, 232739, Note_on_c, 3, 60, 0
9, 232739, Note_on_c, 3, 48, 0
9, 232800, Note_on_c, 3, 57, 84
9, 232800, Note_on_c, 3, 53, 84
9, 233039, Note_on_c, 3, 57, 0
9, 233039, Note_on_c, 3, 53, 0
9, 233280, Note_on_c, 3, 53, 52
9, 233519, Note_on_c, 3, 53, 0
9, 233520, Note_on_c, 3, 54, 52
9, 233759, Note_on_c, 3, 54, 0
9, 233760, Note_on_c, 3, 57, 52
9, 233999, Note_on_c, 3, 57, 0
9, 234000, Note_on_c, 3, 60, 52
9, 234239, Note_on_c, 3, 60, 0
9, 234240, Note_on_c, 3, 63, 52
9, 234479, Note_on_c, 3, 63, 0
9, 234480, Note_on_c, 3, 65, 52
9, 234719, Note_on_c, 3, 65, 0
9, 236160, Note_on_c, 3, 55, 52
9, 236399, Note_on_c, 3, 55, 0
9, 236400, Note_on_c, 3, 56, 52
9, 236639, Note_on_c, 3, 56, 0
9, 236640, Note_on_c, 3, 59, 52
9, 236879, Note_on_c, 3, 59, 0
9, 236880, Note_on_c, 3, 62, 52
9, 237119, Note_on_c, 3, 62, 0
9, 237120, Note_on_c, 3, 65, 52
9, 237359, Note_on_c, 3, 65, 0
9, 237360, Note_on_c, 3, 67, 52
9, 237599, Note_on_c, 3, 67, 0
9, 239040, Note_on_c, 3, 61, 52
9, 239279, Note_on_c, 3, 61, 0
9, 239280, Note_on_c, 3, 58, 52
9, 239519, Note_on_c, 3, 58, 0
9, 239520, Note_on_c, 3, 55, 52
9, 239759, Note_on_c, 3, 55, 0
9, 239760, Note_on_c, 3, 52, 52
9, 239999, Note_on_c, 3, 52, 0
9, 240000, Note_on_c, 3, 49, 52
9, 240239, Note_on_c, 3, 49, 0
9, 240240, Note_on_c, 3, 48, 52
9, 240479, Note_on_c, 3, 48, 0
9, 240480, Note_on_c, 3, 52, 52
9, 240689, Note_on_c, 3, 52, 0
9, 240720, Note_on_c, 3, 53, 52
9, 240959, Note_on_c, 3, 53, 0
9, 240960, Note_on_c, 3, 57, 52
9, 241199, Note_on_c, 3, 57, 0
9, 241200, Note_on_c, 3, 60, 52
9, 241439, Note_on_c, 3, 60, 0
9, 241440, Note_on_c, 3, 63, 52
9, 241679, Note_on_c, 3, 63, 0
9, 241680, Note_on_c, 3, 65, 52
9, 241919, Note_on_c, 3, 65, 0
9, 241920, Note_on_c, 3, 66, 52
9, 242159, Note_on_c, 3, 66, 0
9, 242160, Note_on_c, 3, 65, 52
9, 242399, Note_on_c, 3, 65, 0
9, 242400, Note_on_c, 3, 63, 55
9, 242639, Note_on_c, 3, 63, 0
9, 242640, Note_on_c, 3, 60, 58
9, 242879, Note_on_c, 3, 60, 0
9, 242880, Note_on_c, 3, 57, 61
9, 243119, Note_on_c, 3, 57, 0
9, 243120, Note_on_c, 3, 53, 64
9, 243329, Note_on_c, 3, 53, 0
9, 243360, Note_on_c, 3, 54, 76
9, 243599, Note_on_c, 3, 54, 0
9, 243600, Note_on_c, 3, 53, 52
9, 243839, Note_on_c, 3, 53, 0
9, 243840, Note_on_c, 3, 57, 52
9, 244079, Note_on_c, 3, 57, 0
9, 244080, Note_on_c, 3, 60, 52
9, 244319, Note_on_c, 3, 60, 0
9, 244320, Note_on_c, 3, 63, 52
9, 244559, Note_on_c, 3, 63, 0
9, 244560, Note_on_c, 3, 65, 52
9, 244799, Note_on_c, 3, 65, 0
9, 244800, Note_on_c, 3, 66, 52
9, 245039, Note_on_c, 3, 66, 0
9, 245040, Note_on_c, 3, 65, 52
9, 245279, Note_on_c, 3, 65, 0
9, 245280, Note_on_c, 3, 63, 55
9, 245519, Note_on_c, 3, 63, 0
9, 245520, Note_on_c, 3, 60, 58
9, 245759, Note_on_c, 3, 60, 0
9, 245760, Note_on_c, 3, 57, 61
9, 245999, Note_on_c, 3, 57, 0
9, 246000, Note_on_c, 3, 53, 64
9, 246209, Note_on_c, 3, 53, 0
9, 246240, Note_on_c, 3, 54, 76
9, 246479, Note_on_c, 3, 54, 0
9, 246480, Note_on_c, 3, 53, 68
9, 246689, Note_on_c, 3, 53, 0
9, 246720, Note_on_c, 3, 53, 76
9, 246720, Note_on_c, 3, 60, 76
9, 247169, Note_on_c, 3, 53, 0
9, 247169, Note_on_c, 3, 60, 0
9, 247200, Note_on_c, 3, 55, 76
9, 247200, Note_on_c, 3, 58, 76
9, 247649, Note_on_c, 3, 55, 0
9, 247649, Note_on_c, 3, 58, 0
9, 247680, Note_on_c, 3, 51, 76
9, 247680, Note_on_c, 3, 63, 76
9, 247859, Note_on_c, 3, 51, 0
9, 247859, Note_on_c, 3, 63, 0
9, 247920, Note_on_c, 3, 53, 84
9, 247920, Note_on_c, 3, 65, 84
9, 248609, Note_on_c, 3, 53, 0
9, 248609, Note_on_c, 3, 65, 0
9, 248640, Note_on_c, 3, 41, 84
9, 248640, Note_on_c, 3, 53, 84
9, 249329, Note_on_c, 3, 41, 0
9, 249329, Note_on_c, 3, 53, 0
9, 249360, Note_on_c, 3, 46, 84
9, 249360, Note_on_c, 3, 58, 84
9, 249599, Note_on_c, 3, 46, 0
9, 249599, Note_on_c, 3, 58, 0
9, 250800, Note_on_c, 3, 57, 84
9, 251039, Note_on_c, 3, 57, 0
9, 251040, Note_on_c, 3, 53, 84
9, 251159, Note_on_c, 3, 53, 0
9, 251280, Note_on_c, 3, 60, 84
9, 251519, Note_on_c, 3, 60, 0
9, 251520, Note_on_c, 3, 57, 84
9, 251639, Note_on_c, 3, 57, 0
9, 251760, Note_on_c, 3, 63, 84
9, 251999, Note_on_c, 3, 63, 0
9, 252000, Note_on_c, 3, 60, 84
9, 252119, Note_on_c, 3, 60, 0
9, 252240, Note_on_c, 3, 58, 84
9, 252479, Note_on_c, 3, 58, 0
9, 253680, Note_on_c, 3, 57, 84
9, 253919, Note_on_c, 3, 57, 0
9, 253920, Note_on_c, 3, 53, 84
9, 254039, Note_on_c, 3, 53, 0
9, 254160, Note_on_c, 3, 60, 84
9, 254399, Note_on_c, 3, 60, 0
9, 254400, Note_on_c, 3, 57, 84
9, 254519, Note_on_c, 3, 57, 0
9, 254640, Note_on_c, 3, 63, 84
9, 254879, Note_on_c, 3, 63, 0
9, 254880, Note_on_c, 3, 60, 84
9, 254999, Note_on_c, 3, 60, 0
9, 255120, Note_on_c, 3, 46, 76
9, 255120, Note_on_c, 3, 58, 76
9, 255809, Note_on_c, 3, 46, 0
9, 255809, Note_on_c, 3, 58, 0
9, 255840, Note_on_c, 3, 62, 76
9, 255840, Note_on_c, 3, 58, 76
9, 256529, Note_on_c, 3, 62, 0
9, 256529, Note_on_c, 3, 58, 0
9, 256560, Note_on_c, 3, 62, 76
9, 256560, Note_on_c, 3, 58, 76
9, 256769, Note_on_c, 3, 62, 0
9, 256769, Note_on_c, 3, 58, 0
9, 256800, Note_on_c, 3, 62, 76
9, 256800, Note_on_c, 3, 58, 76
9, 257009, Note_on_c, 3, 62, 0
9, 257009, Note_on_c, 3, 58, 0
9, 257040, Note_on_c, 3, 58, 76
9, 257040, Note_on_c, 3, 62, 76
9, 257249, Note_on_c, 3, 58, 0
9, 257249, Note_on_c, 3, 62, 0
9, 257280, Note_on_c, 3, 58, 76
9, 257280, Note_on_c, 3, 62, 76
9, 257519, Note_on_c, 3, 58, 0
9, 257519, Note_on_c, 3, 62, 0
9, 257760, Note_on_c, 3, 58, 48
9, 257760, Note_on_c, 3, 50, 48
9, 257999, Note_on_c, 3, 58, 0
9, 257999, Note_on_c, 3, 50, 0
9, 258000, Note_on_c, 3, 53, 48
9, 258000, Note_on_c, 3, 62, 48
9, 258479, Note_on_c, 3, 53, 0
9, 258479, Note_on_c, 3, 62, 0
9, 258480, Note_on_c, 3, 50, 48
9, 258480, Note_on_c, 3, 58, 48
9, 258719, Note_on_c, 3, 50, 0
9, 258719, Note_on_c, 3, 58, 0
9, 258720, Note_on_c, 3, 60, 48
9, 258720, Note_on_c, 3, 51, 48
9, 259199, Note_on_c, 3, 60, 0
9, 259199, Note_on_c, 3, 51, 0
9, 259200, Note_on_c, 3, 55, 48
9, 259200, Note_on_c, 3, 63, 48
9, 259439, Note_on_c, 3, 55, 0
9, 259439, Note_on_c, 3, 63, 0
9, 259440, Note_on_c, 3, 51, 48
9, 259440, Note_on_c, 3, 60, 48
9, 259679, Note_on_c, 3, 51, 0
9, 259679, Note_on_c, 3, 60, 0
9, 260640, Note_on_c, 3, 51, 48
9, 260640, Note_on_c, 3, 60, 48
9, 260879, Note_on_c, 3, 51, 0
9, 260879, Note_on_c, 3, 60, 0
9, 260880, Note_on_c, 3, 63, 48
9, 260880, Note_on_c, 3, 55, 48
9, 261359, Note_on_c, 3, 63, 0
9, 261359, Note_on_c, 3, 55, 0
9, 261360, Note_on_c, 3, 60, 48
9, 261360, Note_on_c, 3, 51, 48
9, 261599, Note_on_c, 3, 60, 0
9, 261599, Note_on_c, 3, 51, 0
9, 261600, Note_on_c, 3, 53, 48
9, 261600, Note_on_c, 3, 62, 48
9, 262079, Note_on_c, 3, 53, 0
9, 262079, Note_on_c, 3, 62, 0
9, 262080, Note_on_c, 3, 65, 48
9, 262080, Note_on_c, 3, 56, 48
9, 262319, Note_on_c, 3, 65, 0
9, 262319, Note_on_c, 3, 56, 0
9, 262320, Note_on_c, 3, 53, 48
9, 262320, Note_on_c, 3, 62, 48
9, 262559, Note_on_c, 3, 53, 0
9, 262559, Note_on_c, 3, 62, 0
9, 263040, Control_c, 3, 11, 96
9, 263520, Note_on_c, 3, 58, 68
9, 263729, Note_on_c, 3, 58, 0
9, 263760, Control_c, 3, 11, 96
9, 263760, Note_on_c, 3, 58, 68
9, 263840, Control_c, 3, 11, 98
9, 263920, Control_c, 3, 11, 99
9, 264000, Control_c, 3, 11, 101
9, 264080, Control_c, 3, 11, 103
9, 264160, Control_c, 3, 11, 105
9, 264209, Note_on_c, 3, 58, 0
9, 264240, Note_on_c, 3, 58, 68
9, 264240, Note_on_c, 3, 56, 68
9, 264240, Control_c, 3, 11, 106
9, 264320, Control_c, 3, 11, 108
9, 264400, Control_c, 3, 11, 110
9, 264449, Note_on_c, 3, 58, 0
9, 264449, Note_on_c, 3, 56, 0
9, 264480, Note_on_c, 3, 55, 68
9, 264480, Note_on_c, 3, 58, 68
9, 264480, Control_c, 3, 11, 112
9, 264560, Control_c, 3, 11, 113
9, 264640, Control_c, 3, 11, 115
9, 264720, Control_c, 3, 11, 117
9, 264800, Control_c, 3, 11, 118
9, 264880, Control_c, 3, 11, 120
9, 264929, Note_on_c, 3, 55, 0
9, 264929, Note_on_c, 3, 58, 0
9, 264960, Note_on_c, 3, 53, 68
9, 264960, Note_on_c, 3, 58, 68
9, 264960, Control_c, 3, 11, 122
9, 265040, Control_c, 3, 11, 124
9, 265120, Control_c, 3, 11, 127
9, 265169, Note_on_c, 3, 53, 0
9, 265169, Note_on_c, 3, 58, 0
9, 265200, Note_on_c, 3, 63, 76
9, 265200, Note_on_c, 3, 51, 76
9, 265320, Control_c, 3, 11, 112
9, 265393, Control_c, 3, 11, 110
9, 265467, Control_c, 3, 11, 108
9, 265540, Control_c, 3, 11, 107
9, 265613, Control_c, 3, 11, 105
9, 265687, Control_c, 3, 11, 103
9, 265760, Control_c, 3, 11, 101
9, 265833, Control_c, 3, 11, 100
9, 265907, Control_c, 3, 11, 98
9, 265980, Control_c, 3, 11, 96
9, 266053, Control_c, 3, 11, 94
9, 266127, Control_c, 3, 11, 92
9, 266200, Control_c, 3, 11, 91
9, 266273, Control_c, 3, 11, 89
9, 266347, Control_c, 3, 11, 87
9, 266369, Note_on_c, 3, 63, 0
9, 266369, Note_on_c, 3, 51, 0
9, 266400, Note_on_c, 3, 51, 76
9, 266400, Note_on_c, 3, 63, 76
9, 266420, Control_c, 3, 11, 85
9, 266493, Control_c, 3, 11, 84
9, 266567, Control_c, 3, 11, 80
9, 266639, Note_on_c, 3, 51, 0
9, 266639, Note_on_c, 3, 63, 0
9, 266640, Note_on_c, 3, 62, 76
9, 266640, Note_on_c, 3, 50, 76
9, 266879, Note_on_c, 3, 62, 0
9, 266879, Note_on_c, 3, 50, 0
9, 267120, Note_on_c, 3, 50, 76
9, 267120, Note_on_c, 3, 62, 76
9, 267329, Note_on_c, 3, 50, 0
9, 267329, Note_on_c, 3, 62, 0
9, 267360, Note_on_c, 3, 51, 76
9, 267360, Note_on_c, 3, 63, 76
9, 267809, Note_on_c, 3, 51, 0
9, 267809, Note_on_c, 3, 63, 0
9, 267840, Note_on_c, 3, 63, 76
9, 267840, Note_on_c, 3, 51, 76
9, 268049, Note_on_c, 3, 63, 0
9, 268049, Note_on_c, 3, 51, 0
9, 268080, Note_on_c, 3, 58, 76
9, 268080, Note_on_c, 3, 46, 76
9, 268319, Note_on_c, 3, 58, 0
9, 268319, Note_on_c, 3, 46, 0
9, 268800, Control_c, 3, 11, 127
9, 269280, Note_on_c, 3, 58, 52
9, 269280, Note_on_c, 3, 50, 52
9, 269399, Note_on_c, 3, 58, 0
9, 269399, Note_on_c, 3, 50, 0
9, 269400, Note_on_c, 3, 60, 52
9, 269400, Note_on_c, 3, 51, 52
9, 269519, Note_on_c, 3, 60, 0
9, 269519, Note_on_c, 3, 51, 0
9, 269520, Note_on_c, 3, 53, 52
9, 269520, Note_on_c, 3, 62, 52
9, 269999, Note_on_c, 3, 53, 0
9, 269999, Note_on_c, 3, 62, 0
9, 270000, Note_on_c, 3, 50, 52
9, 270000, Note_on_c, 3, 58, 52
9, 270239, Note_on_c, 3, 50, 0
9, 270239, Note_on_c, 3, 58, 0
9, 270240, Note_on_c, 3, 51, 52
9, 270240, Note_on_c, 3, 60, 52
9, 270719, Note_on_c, 3, 51, 0
9, 270719, Note_on_c, 3, 60, 0
9, 270720, Note_on_c, 3, 63, 52
9, 270720, Note_on_c, 3, 55, 52
9, 270959, Note_on_c, 3, 63, 0
9, 270959, Note_on_c, 3, 55, 0
9, 270960, Note_on_c, 3, 51, 52
9, 270960, Note_on_c, 3, 60, 52
9, 271199, Note_on_c, 3, 51, 0
9, 271199, Note_on_c, 3, 60, 0
9, 272160, Note_on_c, 3, 60, 52
9, 272160, Note_on_c, 3, 51, 52
9, 272279, Note_on_c, 3, 60, 0
9, 272279, Note_on_c, 3, 51, 0
9, 272280, Note_on_c, 3, 53, 52
9, 272280, Note_on_c, 3, 62, 52
9, 272399, Note_on_c, 3, 53, 0
9, 272399, Note_on_c, 3, 62, 0
9, 272400, Note_on_c, 3, 63, 52
9, 272400, Note_on_c, 3, 55, 52
9, 272879, Note_on_c, 3, 63, 0
9, 272879, Note_on_c, 3, 55, 0
9, 272880, Note_on_c, 3, 51, 52
9, 272880, Note_on_c, 3, 60, 52
9, 273119, Note_on_c, 3, 51, 0
9, 273119, Note_on_c, 3, 60, 0
9, 273120, Note_on_c, 3, 62, 52
9, 273120, Note_on_c, 3, 53, 52
9, 273599, Note_on_c, 3, 62, 0
9, 273599, Note_on_c, 3, 53, 0
9, 273600, Note_on_c, 3, 56, 52
9, 273600, Note_on_c, 3, 65, 52
9, 273839, Note_on_c, 3, 56, 0
9, 273839, Note_on_c, 3, 65, 0
9, 273840, Note_on_c, 3, 62, 52
9, 273840, Note_on_c, 3, 53, 52
9, 274079, Note_on_c, 3, 62, 0
9, 274079, Note_on_c, 3, 53, 0
9, 274560, Control_c, 3, 11, 96
9, 275040, Note_on_c, 3, 53, 68
9, 275040, Note_on_c, 3, 62, 68
9, 275159, Note_on_c, 3, 53, 0
9, 275159, Note_on_c, 3, 62, 0
9, 275160, Note_on_c, 3, 63, 68
9, 275160, Note_on_c, 3, 55, 68
9, 275279, Note_on_c, 3, 63, 0
9, 275279, Note_on_c, 3, 55, 0
9, 275280, Note_on_c, 3, 65, 68
9, 275280, Note_on_c, 3, 56, 68
9, 275280, Control_c, 3, 11, 96
9, 275360, Control_c, 3, 11, 98
9, 275440, Control_c, 3, 11, 99
9, 275520, Control_c, 3, 11, 101
9, 275600, Control_c, 3, 11, 103
9, 275680, Control_c, 3, 11, 105
9, 275759, Note_on_c, 3, 65, 0
9, 275759, Note_on_c, 3, 56, 0
9, 275760, Note_on_c, 3, 56, 68
9, 275760, Control_c, 3, 11, 106
9, 275760, Note_on_c, 3, 58, 68
9, 275840, Control_c, 3, 11, 108
9, 275920, Control_c, 3, 11, 110
9, 275999, Note_on_c, 3, 56, 0
9, 275999, Note_on_c, 3, 58, 0
9, 276000, Note_on_c, 3, 60, 68
9, 276000, Control_c, 3, 11, 112
9, 276000, Note_on_c, 3, 55, 68
9, 276080, Control_c, 3, 11, 113
9, 276160, Control_c, 3, 11, 115
9, 276240, Control_c, 3, 11, 117
9, 276320, Control_c, 3, 11, 118
9, 276400, Control_c, 3, 11, 120
9, 276479, Note_on_c, 3, 60, 0
9, 276479, Note_on_c, 3, 55, 0
9, 276480, Note_on_c, 3, 53, 68
9, 276480, Control_c, 3, 11, 122
9, 276480, Note_on_c, 3, 62, 68
9, 276560, Control_c, 3, 11, 124
9, 276640, Control_c, 3, 11, 127
9, 276689, Note_on_c, 3, 53, 0
9, 276689, Note_on_c, 3, 62, 0
9, 276720, Note_on_c, 3, 51, 76
9, 276720, Note_on_c, 3, 63, 76
9, 276840, Control_c, 3, 11, 112
9, 276913, Control_c, 3, 11, 110
9, 276987, Control_c, 3, 11, 108
9, 277060, Control_c, 3, 11, 107
9, 277133, Control_c, 3, 11, 105
9, 277207, Control_c, 3, 11, 103
9, 277280, Control_c, 3, 11, 101
9, 277353, Control_c, 3, 11, 100
9, 277427, Control_c, 3, 11, 98
9, 277500, Control_c, 3, 11, 96
9, 277573, Control_c, 3, 11, 94
9, 277647, Control_c, 3, 11, 92
9, 277720, Control_c, 3, 11, 91
9, 277793, Control_c, 3, 11, 89
9, 277867, Control_c, 3, 11, 87
9, 277889, Note_on_c, 3, 51, 0
9, 277889, Note_on_c, 3, 63, 0
9, 277920, Note_on_c, 3, 46, 76
9, 277920, Note_on_c, 3, 62, 76
9, 277940, Control_c, 3, 11, 85
9, 278013, Control_c, 3, 11, 84
9, 278087, Control_c, 3, 11, 80
9, 278129, Note_on_c, 3, 46, 0
9, 278129, Note_on_c, 3, 62, 0
9, 278160, Note_on_c, 3, 60, 76
9, 278160, Note_on_c, 3, 53, 76
9, 278399, Note_on_c, 3, 60, 0
9, 278399, Note_on_c, 3, 53, 0
9, 278640, Note_on_c, 3, 53, 76
9, 278640, Note_on_c, 3, 60, 76
9, 278849, Note_on_c, 3, 53, 0
9, 278849, Note_on_c, 3, 60, 0
9, 278880, Note_on_c, 3, 60, 76
9, 278880, Note_on_c, 3, 53, 76
9, 278939, Note_on_c, 3, 60, 0
9, 278940, Note_on_c, 3, 62, 76
9, 278999, Note_on_c, 3, 62, 0
9, 279000, Note_on_c, 3, 60, 76
9, 279059, Note_on_c, 3, 60, 0
9, 279060, Note_on_c, 3, 62, 76
9, 279119, Note_on_c, 3, 62, 0
9, 279120, Note_on_c, 3, 60, 76
9, 279179, Note_on_c, 3, 60, 0
9, 279180, Note_on_c, 3, 62, 76
9, 279239, Note_on_c, 3, 62, 0
9, 279240, Note_on_c, 3, 59, 76
9, 279329, Note_on_c, 3, 53, 0
9, 279344, Note_on_c, 3, 59, 0
9, 279360, Note_on_c, 3, 53, 76
9, 279360, Note_on_c, 3, 60, 76
9, 279569, Note_on_c, 3, 53, 0
9, 279569, Note_on_c, 3, 60, 0
9, 279600, Note_on_c, 3, 60, 76
9, 279600, Note_on_c, 3, 53, 76
9, 279839, Note_on_c, 3, 60, 0
9, 279839, Note_on_c, 3, 53, 0
9, 280320, Control_c, 3, 11, 96
9, 280800, Note_on_c, 3, 60, 68
9, 280800, Note_on_c, 3, 57, 68
9, 281039, Note_on_c, 3, 60, 0
9, 281039, Note_on_c, 3, 57, 0
9, 281040, Control_c, 3, 11, 96
9, 281040, Note_on_c, 3, 60, 68
9, 281040, Note_on_c, 3, 63, 68
9, 281100, Control_c, 3, 11, 99
9, 281160, Control_c, 3, 11, 101
9, 281220, Control_c, 3, 11, 104
9, 281280, Control_c, 3, 11, 106
9, 281340, Control_c, 3, 11, 109
9, 281400, Control_c, 3, 11, 112
9, 281460, Control_c, 3, 11, 114
9, 281519, Note_on_c, 3, 60, 0
9, 281519, Note_on_c, 3, 63, 0
9, 281520, Note_on_c, 3, 57, 68
9, 281520, Control_c, 3, 11, 117
9, 281520, Note_on_c, 3, 60, 68
9, 281580, Control_c, 3, 11, 119
9, 281640, Control_c, 3, 11, 122
9, 281700, Control_c, 3, 11, 127
9, 281759, Note_on_c, 3, 57, 0
9, 281759, Note_on_c, 3, 60, 0
9, 281760, Note_on_c, 3, 59, 68
9, 281760, Note_on_c, 3, 62, 68
9, 281760, Control_c, 3, 11, 127
9, 281820, Control_c, 3, 11, 124
9, 281880, Control_c, 3, 11, 122
9, 281940, Control_c, 3, 11, 119
9, 282000, Control_c, 3, 11, 117
9, 282060, Control_c, 3, 11, 114
9, 282120, Control_c, 3, 11, 112
9, 282180, Control_c, 3, 11, 109
9, 282239, Note_on_c, 3, 59, 0
9, 282239, Note_on_c, 3, 62, 0
9, 282240, Note_on_c, 3, 62, 68
9, 282240, Control_c, 3, 11, 106
9, 282240, Note_on_c, 3, 65, 68
9, 282300, Control_c, 3, 11, 104
9, 282360, Control_c, 3, 11, 101
9, 282420, Control_c, 3, 11, 96
9, 282479, Note_on_c, 3, 62, 0
9, 282479, Note_on_c, 3, 65, 0
9, 282480, Note_on_c, 3, 60, 68
9, 282480, Note_on_c, 3, 63, 68
9, 282719, Note_on_c, 3, 60, 0
9, 282719, Note_on_c, 3, 63, 0
9, 283680, Note_on_c, 3, 60, 68
9, 283680, Note_on_c, 3, 57, 68
9, 283799, Note_on_c, 3, 60, 0
9, 283799, Note_on_c, 3, 57, 0
9, 283800, Note_on_c, 3, 58, 68
9, 283800, Note_on_c, 3, 62, 68
9, 283919, Note_on_c, 3, 58, 0
9, 283919, Note_on_c, 3, 62, 0
9, 283920, Note_on_c, 3, 60, 68
9, 283920, Note_on_c, 3, 63, 68
9, 283920, Control_c, 3, 11, 96
9, 283980, Control_c, 3, 11, 99
9, 284040, Control_c, 3, 11, 101
9, 284100, Control_c, 3, 11, 104
9, 284160, Control_c, 3, 11, 106
9, 284220, Control_c, 3, 11, 109
9, 284280, Control_c, 3, 11, 112
9, 284340, Control_c, 3, 11, 114
9, 284399, Note_on_c, 3, 60, 0
9, 284399, Note_on_c, 3, 63, 0
9, 284400, Note_on_c, 3, 57, 68
9, 284400, Control_c, 3, 11, 117
9, 284400, Note_on_c, 3, 60, 68
9, 284460, Control_c, 3, 11, 119
9, 284520, Control_c, 3, 11, 122
9, 284580, Control_c, 3, 11, 127
9, 284639, Note_on_c, 3, 57, 0
9, 284639, Note_on_c, 3, 60, 0
9, 284640, Note_on_c, 3, 62, 68
9, 284640, Control_c, 3, 11, 127
9, 284640, Note_on_c, 3, 59, 68
9, 284700, Control_c, 3, 11, 124
9, 284760, Control_c, 3, 11, 122
9, 284820, Control_c, 3, 11, 119
9, 284880, Control_c, 3, 11, 117
9, 284940, Control_c, 3, 11, 114
9, 285000, Control_c, 3, 11, 112
9, 285060, Control_c, 3, 11, 109
9, 285119, Note_on_c, 3, 62, 0
9, 285119, Note_on_c, 3, 59, 0
9, 285120, Note_on_c, 3, 65, 68
9, 285120, Control_c, 3, 11, 106
9, 285120, Note_on_c, 3, 62, 68
9, 285180, Control_c, 3, 11, 104
9, 285240, Control_c, 3, 11, 101
9, 285300, Control_c, 3, 11, 96
9, 285359, Note_on_c, 3, 65, 0
9, 285359, Note_on_c, 3, 62, 0
9, 285360, Note_on_c, 3, 63, 68
9, 285360, Note_on_c, 3, 60, 68
9, 285599, Note_on_c, 3, 63, 0
9, 285599, Note_on_c, 3, 60, 0
9, 286080, Control_c, 3, 11, 127
9, 286440, Note_on_c, 3, 62, 44
9, 286440, Note_on_c, 3, 59, 44
9, 286559, Note_on_c, 3, 62, 0
9, 286559, Note_on_c, 3, 59, 0
9, 286560, Note_on_c, 3, 63, 44
9, 286560, Note_on_c, 3, 60, 44
9, 286679, Note_on_c, 3, 63, 0
9, 286679, Note_on_c, 3, 60, 0
9, 286680, Note_on_c, 3, 59, 44
9, 286680, Note_on_c, 3, 62, 44
9, 286784, Note_on_c, 3, 59, 0
9, 286784, Note_on_c, 3, 62, 0
9, 286800, Note_on_c, 3, 60, 44
9, 286800, Note_on_c, 3, 63, 44
9, 286979, Note_on_c, 3, 60, 0
9, 286979, Note_on_c, 3, 63, 0
9, 287160, Note_on_c, 3, 59, 44
9, 287160, Note_on_c, 3, 62, 44
9, 287279, Note_on_c, 3, 59, 0
9, 287279, Note_on_c, 3, 62, 0
9, 287280, Note_on_c, 3, 63, 44
9, 287280, Note_on_c, 3, 60, 44
9, 287399, Note_on_c, 3, 63, 0
9, 287399, Note_on_c, 3, 60, 0
9, 287400, Note_on_c, 3, 62, 44
9, 287400, Note_on_c, 3, 59, 44
9, 287504, Note_on_c, 3, 62, 0
9, 287504, Note_on_c, 3, 59, 0
9, 287520, Note_on_c, 3, 60, 44
9, 287520, Note_on_c, 3, 63, 44
9, 287699, Note_on_c, 3, 60, 0
9, 287699, Note_on_c, 3, 63, 0
9, 287880, Note_on_c, 3, 59, 44
9, 287880, Note_on_c, 3, 62, 44
9, 287999, Note_on_c, 3, 59, 0
9, 287999, Note_on_c, 3, 62, 0
9, 288000, Note_on_c, 3, 60, 44
9, 288000, Note_on_c, 3, 63, 44
9, 288119, Note_on_c, 3, 60, 0
9, 288119, Note_on_c, 3, 63, 0
9, 288120, Note_on_c, 3, 62, 44
9, 288120, Note_on_c, 3, 59, 44
9, 288224, Note_on_c, 3, 62, 0
9, 288224, Note_on_c, 3, 59, 0
9, 288240, Note_on_c, 3, 60, 44
9, 288240, Note_on_c, 3, 63, 44
9, 288419, Note_on_c, 3, 60, 0
9, 288419, Note_on_c, 3, 63, 0
9, 293280, Control_c, 3, 11, 48
9, 293760, Note_on_c, 3, 58, 84
9, 293760, Note_on_c, 3, 50, 84
9, 293999, Note_on_c, 3, 58, 0
9, 293999, Note_on_c, 3, 50, 0
9, 294000, Control_c, 3, 11, 48
9, 294000, Note_on_c, 3, 62, 84
9, 294000, Note_on_c, 3, 53, 84
9, 294137, Control_c, 3, 11, 49
9, 294273, Control_c, 3, 11, 50
9, 294410, Control_c, 3, 11, 51
9, 294479, Note_on_c, 3, 62, 0
9, 294479, Note_on_c, 3, 53, 0
9, 294480, Note_on_c, 3, 50, 84
9, 294480, Note_on_c, 3, 58, 84
9, 294547, Control_c, 3, 11, 52
9, 294684, Control_c, 3, 11, 53
9, 294719, Note_on_c, 3, 50, 0
9, 294719, Note_on_c, 3, 58, 0
9, 294720, Note_on_c, 3, 51, 84
9, 294720, Note_on_c, 3, 60, 84
9, 294820, Control_c, 3, 11, 54
9, 294957, Control_c, 3, 11, 55
9, 295094, Control_c, 3, 11, 56
9, 295199, Note_on_c, 3, 51, 0
9, 295199, Note_on_c, 3, 60, 0
9, 295200, Note_on_c, 3, 55, 84
9, 295200, Note_on_c, 3, 63, 84
9, 295230, Control_c, 3, 11, 57
9, 295367, Control_c, 3, 11, 58
9, 295439, Note_on_c, 3, 55, 0
9, 295439, Note_on_c, 3, 63, 0
9, 295440, Note_on_c, 3, 60, 84
9, 295440, Note_on_c, 3, 51, 84
9, 295504, Control_c, 3, 11, 59
9, 295641, Control_c, 3, 11, 60
9, 295679, Note_on_c, 3, 60, 0
9, 295679, Note_on_c, 3, 51, 0
9, 295777, Control_c, 3, 11, 61
9, 296597, Control_c, 3, 11, 67
9, 296640, Note_on_c, 3, 51, 84
9, 296640, Note_on_c, 3, 60, 84
9, 296734, Control_c, 3, 11, 68
9, 296871, Control_c, 3, 11, 69
9, 296879, Note_on_c, 3, 51, 0
9, 296879, Note_on_c, 3, 60, 0
9, 296880, Note_on_c, 3, 63, 84
9, 296880, Note_on_c, 3, 55, 84
9, 297008, Control_c, 3, 11, 70
9, 297144, Control_c, 3, 11, 71
9, 297281, Control_c, 3, 11, 72
9, 297359, Note_on_c, 3, 63, 0
9, 297359, Note_on_c, 3, 55, 0
9, 297360, Note_on_c, 3, 51, 84
9, 297360, Note_on_c, 3, 60, 84
9, 297418, Control_c, 3, 11, 73
9, 297554, Control_c, 3, 11, 74
9, 297599, Note_on_c, 3, 51, 0
9, 297599, Note_on_c, 3, 60, 0
9, 297600, Note_on_c, 3, 53, 84
9, 297600, Note_on_c, 3, 62, 84
9, 297691, Control_c, 3, 11, 75
9, 297828, Control_c, 3, 11, 76
9, 297965, Control_c, 3, 11, 77
9, 298079, Note_on_c, 3, 53, 0
9, 298079, Note_on_c, 3, 62, 0
9, 298080, Note_on_c, 3, 56, 84
9, 298080, Note_on_c, 3, 65, 84
9, 298101, Control_c, 3, 11, 78
9, 298238, Control_c, 3, 11, 79
9, 298319, Note_on_c, 3, 56, 0
9, 298319, Note_on_c, 3, 65, 0
9, 298320, Note_on_c, 3, 62, 84
9, 298320, Note_on_c, 3, 53, 84
9, 298375, Control_c, 3, 11, 80
9, 298511, Control_c, 3, 11, 81
9, 298559, Note_on_c, 3, 62, 0
9, 298559, Note_on_c, 3, 53, 0
9, 298648, Control_c, 3, 11, 82
9, 299468, Control_c, 3, 11, 88
9, 299520, Note_on_c, 3, 62, 84
9, 299520, Note_on_c, 3, 58, 84
9, 299605, Control_c, 3, 11, 89
9, 299742, Control_c, 3, 11, 90
9, 299759, Note_on_c, 3, 62, 0
9, 299759, Note_on_c, 3, 58, 0
9, 299760, Note_on_c, 3, 65, 84
9, 299760, Note_on_c, 3, 62, 84
9, 299878, Control_c, 3, 11, 91
9, 300015, Control_c, 3, 11, 92
9, 300152, Control_c, 3, 11, 93
9, 300239, Note_on_c, 3, 65, 0
9, 300239, Note_on_c, 3, 62, 0
9, 300240, Note_on_c, 3, 58, 84
9, 300240, Note_on_c, 3, 62, 84
9, 300289, Control_c, 3, 11, 94
9, 300425, Control_c, 3, 11, 95
9, 300479, Note_on_c, 3, 58, 0
9, 300479, Note_on_c, 3, 62, 0
9, 300480, Note_on_c, 3, 60, 84
9, 300480, Note_on_c, 3, 63, 84
9, 300562, Control_c, 3, 11, 96
9, 300699, Control_c, 3, 11, 97
9, 300835, Control_c, 3, 11, 98
9, 300959, Note_on_c, 3, 60, 0
9, 300959, Note_on_c, 3, 63, 0
9, 300960, Note_on_c, 3, 65, 84
9, 300960, Note_on_c, 3, 62, 84
9, 300972, Control_c, 3, 11, 99
9, 301109, Control_c, 3, 11, 100
9, 301169, Note_on_c, 3, 65, 0
9, 301169, Note_on_c, 3, 62, 0
9, 301200, Note_on_c, 3, 63, 84
9, 301200, Note_on_c, 3, 67, 84
9, 301246, Control_c, 3, 11, 101
9, 301382, Control_c, 3, 11, 102
9, 301519, Control_c, 3, 11, 103
9, 301656, Control_c, 3, 11, 104
9, 301792, Control_c, 3, 11, 105
9, 301929, Control_c, 3, 11, 106
9, 302066, Control_c, 3, 11, 107
9, 302203, Control_c, 3, 11, 108
9, 302339, Control_c, 3, 11, 109
9, 302369, Note_on_c, 3, 63, 0
9, 302369, Note_on_c, 3, 67, 0
9, 302400, Note_on_c, 3, 65, 84
9, 302400, Note_on_c, 3, 62, 84
9, 302476, Control_c, 3, 11, 110
9, 302579, Note_on_c, 3, 65, 0
9, 302579, Note_on_c, 3, 62, 0
9, 302613, Control_c, 3, 11, 111
9, 302640, Note_on_c, 3, 60, 84
9, 302640, Note_on_c, 3, 63, 84
9, 302749, Control_c, 3, 11, 112
9, 302886, Control_c, 3, 11, 113
9, 303023, Control_c, 3, 11, 114
9, 303089, Note_on_c, 3, 60, 0
9, 303089, Note_on_c, 3, 63, 0
9, 303120, Note_on_c, 3, 60, 84
9, 303120, Note_on_c, 3, 63, 84
9, 303159, Control_c, 3, 11, 115
9, 303296, Control_c, 3, 11, 116
9, 303329, Note_on_c, 3, 60, 0
9, 303329, Note_on_c, 3, 63, 0
9, 303360, Note_on_c, 3, 63, 84
9, 303360, Note_on_c, 3, 60, 84
9, 303419, Note_on_c, 3, 63, 0
9, 303419, Note_on_c, 3, 60, 0
9, 303420, Note_on_c, 3, 65, 84
9, 303420, Note_on_c, 3, 62, 84
9, 303433, Control_c, 3, 11, 117
9, 303479, Note_on_c, 3, 65, 0
9, 303479, Note_on_c, 3, 62, 0
9, 303480, Note_on_c, 3, 60, 84
9, 303480, Note_on_c, 3, 63, 84
9, 303539, Note_on_c, 3, 60, 0
9, 303539, Note_on_c, 3, 63, 0
9, 303540, Note_on_c, 3, 65, 84
9, 303540, Note_on_c, 3, 62, 84
9, 303570, Control_c, 3, 11, 118
9, 303599, Note_on_c, 3, 65, 0
9, 303599, Note_on_c, 3, 62, 0
9, 303600, Note_on_c, 3, 60, 84
9, 303600, Note_on_c, 3, 63, 84
9, 303659, Note_on_c, 3, 60, 0
9, 303659, Note_on_c, 3, 63, 0
9, 303660, Note_on_c, 3, 62, 84
9, 303660, Note_on_c, 3, 65, 84
9, 303706, Control_c, 3, 11, 119
9, 303719, Note_on_c, 3, 62, 0
9, 303719, Note_on_c, 3, 65, 0
9, 303720, Note_on_c, 3, 62, 84
9, 303720, Note_on_c, 3, 59, 84
9, 303824, Note_on_c, 3, 62, 0
9, 303824, Note_on_c, 3, 59, 0
9, 303840, Note_on_c, 3, 60, 84
9, 303840, Note_on_c, 3, 63, 84
9, 303843, Control_c, 3, 11, 120
9, 303980, Control_c, 3, 11, 121
9, 304049, Note_on_c, 3, 60, 0
9, 304049, Note_on_c, 3, 63, 0
9, 304080, Note_on_c, 3, 62, 84
9, 304080, Note_on_c, 3, 58, 84
9, 304116, Control_c, 3, 11, 122
9, 304253, Control_c, 3, 11, 123
9, 304319, Note_on_c, 3, 62, 0
9, 304319, Note_on_c, 3, 58, 0
9, 304390, Control_c, 3, 11, 124
9, 304527, Control_c, 3, 11, 125
9, 304663, Control_c, 3, 11, 126
9, 305280, Note_on_c, 3, 58, 84
9, 305280, Note_on_c, 3, 62, 84
9, 305399, Note_on_c, 3, 58, 0
9, 305399, Note_on_c, 3, 62, 0
9, 305400, Note_on_c, 3, 60, 84
9, 305400, Note_on_c, 3, 63, 84
9, 305519, Note_on_c, 3, 60, 0
9, 305519, Note_on_c, 3, 63, 0
9, 305520, Note_on_c, 3, 65, 84
9, 305520, Note_on_c, 3, 62, 84
9, 305999, Note_on_c, 3, 65, 0
9, 305999, Note_on_c, 3, 62, 0
9, 306000, Note_on_c, 3, 62, 84
9, 306000, Note_on_c, 3, 58, 84
9, 306239, Note_on_c, 3, 62, 0
9, 306239, Note_on_c, 3, 58, 0
9, 306240, Note_on_c, 3, 63, 84
9, 306240, Note_on_c, 3, 60, 84
9, 306719, Note_on_c, 3, 63, 0
9, 306719, Note_on_c, 3, 60, 0
9, 306720, Note_on_c, 3, 62, 84
9, 306720, Note_on_c, 3, 65, 84
9, 306929, Note_on_c, 3, 62, 0
9, 306929, Note_on_c, 3, 65, 0
9, 306960, Note_on_c, 3, 67, 92
9, 306960, Note_on_c, 3, 63, 92
9, 308129, Note_on_c, 3, 67, 0
9, 308129, Note_on_c, 3, 63, 0
9, 308160, Note_on_c, 3, 62, 84
9, 308160, Note_on_c, 3, 65, 84
9, 308399, Note_on_c, 3, 62, 0
9, 308399, Note_on_c, 3, 65, 0
9, 308400, Note_on_c, 3, 63, 84
9, 308400, Note_on_c, 3, 60, 84
9, 308639, Note_on_c, 3, 63, 0
9, 308639, Note_on_c, 3, 60, 0
9, 308880, Note_on_c, 3, 63, 84
9, 308880, Note_on_c, 3, 60, 84
9, 309089, Note_on_c, 3, 63, 0
9, 309089, Note_on_c, 3, 60, 0
9, 309120, Note_on_c, 3, 60, 84
9, 309120, Note_on_c, 3, 63, 84
9, 309179, Note_on_c, 3, 60, 0
9, 309179, Note_on_c, 3, 63, 0
9, 309180, Note_on_c, 3, 62, 84
9, 309180, Note_on_c, 3, 65, 84
9, 309239, Note_on_c, 3, 62, 0
9, 309239, Note_on_c, 3, 65, 0
9, 309240, Note_on_c, 3, 63, 84
9, 309240, Note_on_c, 3, 60, 84
9, 309299, Note_on_c, 3, 63, 0
9, 309299, Note_on_c, 3, 60, 0
9, 309300, Note_on_c, 3, 65, 84
9, 309300, Note_on_c, 3, 62, 84
9, 309359, Note_on_c, 3, 65, 0
9, 309359, Note_on_c, 3, 62, 0
9, 309360, Note_on_c, 3, 60, 84
9, 309360, Note_on_c, 3, 63, 84
9, 309419, Note_on_c, 3, 60, 0
9, 309419, Note_on_c, 3, 63, 0
9, 309420, Note_on_c, 3, 65, 84
9, 309420, Note_on_c, 3, 62, 84
9, 309479, Note_on_c, 3, 65, 0
9, 309479, Note_on_c, 3, 62, 0
9, 309480, Note_on_c, 3, 59, 84
9, 309480, Note_on_c, 3, 62, 84
9, 309584, Note_on_c, 3, 59, 0
9, 309584, Note_on_c, 3, 62, 0
9, 309600, Note_on_c, 3, 60, 84
9, 309600, Note_on_c, 3, 63, 84
9, 309809, Note_on_c, 3, 60, 0
9, 309809, Note_on_c, 3, 63, 0
9, 309840, Note_on_c, 3, 62, 84
9, 309840, Note_on_c, 3, 58, 84
9, 310079, Note_on_c, 3, 62, 0
9, 310079, Note_on_c, 3, 58, 0
9, 311040, Note_on_c, 3, 62, 84
9, 311040, Note_on_c, 3, 65, 84
9, 311279, Note_on_c, 3, 62, 0
9, 311279, Note_on_c, 3, 65, 0
9, 311280, Note_on_c, 3, 60, 84
9, 311280, Note_on_c, 3, 63, 84
9, 311519, Note_on_c, 3, 60, 0
9, 311519, Note_on_c, 3, 63, 0
9, 312480, Note_on_c, 3, 57, 84
9, 312480, Note_on_c, 3, 65, 84
9, 312719, Note_on_c, 3, 57, 0
9, 312719, Note_on_c, 3, 65, 0
9, 312720, Note_on_c, 3, 58, 84
9, 312720, Note_on_c, 3, 62, 84
9, 312959, Note_on_c, 3, 58, 0
9, 312959, Note_on_c, 3, 62, 0
9, 313920, Note_on_c, 3, 62, 72
9, 313920, Note_on_c, 3, 65, 72
9, 314159, Note_on_c, 3, 62, 0
9, 314159, Note_on_c, 3, 65, 0
9, 314160, Note_on_c, 3, 60, 68
9, 314160, Note_on_c, 3, 63, 68
9, 314399, Note_on_c, 3, 60, 0
9, 314399, Note_on_c, 3, 63, 0
9, 315360, Note_on_c, 3, 57, 48
9, 315360, Note_on_c, 3, 65, 48
9, 315599, Note_on_c, 3, 57, 0
9, 315599, Note_on_c, 3, 65, 0
9, 315600, Note_on_c, 3, 58, 44
9, 315600, Note_on_c, 3, 62, 44
9, 315839, Note_on_c, 3, 58, 0
9, 315839, Note_on_c, 3, 62, 0
9, 316320, Note_on_c, 3, 62, 44
9, 316320, Note_on_c, 3, 58, 44
9, 316559, Note_on_c, 3, 62, 0
9, 316559, Note_on_c, 3, 58, 0
9, 317040, Note_on_c, 3, 58, 44
9, 317040, Note_on_c, 3, 62, 44
9, 317279, Note_on_c, 3, 58, 0
9, 317279, Note_on_c, 3, 62, 0
9, 317760, Note_on_c, 3, 58, 44
9, 317760, Note_on_c, 3, 62, 44
9, 317999, Note_on_c, 3, 58, 0
9, 317999, Note_on_c, 3, 62, 0
9, 318480, Note_on_c, 3, 62, 44
9, 318480, Note_on_c, 3, 58, 44
9, 318719, Note_on_c, 3, 62, 0
9, 318719, Note_on_c, 3, 58, 0
9, 321120, Note_on_c, 3, 53, 76
9, 321120, Note_on_c, 3, 41, 76
9, 321359, Note_on_c, 3, 53, 0
9, 321359, Note_on_c, 3, 41, 0
9, 321360, Note_on_c, 3, 58, 84
9, 321360, Note_on_c, 3, 46, 84
9, 321479, Note_on_c, 3, 58, 0
9, 321479, Note_on_c, 3, 46, 0
9, 321600, Note_on_c, 3, 53, 84
9, 321600, Note_on_c, 3, 46, 84
9, 321839, Note_on_c, 3, 53, 0
9, 321840, Note_on_c, 3, 62, 84
9, 321959, Note_on_c, 3, 62, 0
9, 322049, Note_on_c, 3, 46, 0
9, 322080, Note_on_c, 3, 58, 84
9, 322080, Note_on_c, 3, 46, 84
9, 322319, Note_on_c, 3, 58, 0
9, 322320, Note_on_c, 3, 65, 84
9, 322439, Note_on_c, 3, 65, 0
9, 322529, Note_on_c, 3, 46, 0
9, 322560, Note_on_c, 3, 62, 84
9, 322560, Note_on_c, 3, 46, 84
9, 322769, Note_on_c, 3, 62, 0
9, 322769, Note_on_c, 3, 46, 0
9, 322800, Note_on_c, 3, 65, 84
9, 322800, Note_on_c, 3, 41, 84
9, 323039, Note_on_c, 3, 65, 0
9, 323039, Note_on_c, 3, 41, 0
9, 323040, Note_on_c, 3, 63, 84
9, 323040, Note_on_c, 3, 45, 84
9, 323249, Note_on_c, 3, 63, 0
9, 323249, Note_on_c, 3, 45, 0
9, 323280, Note_on_c, 3, 60, 84
9, 323280, Note_on_c, 3, 48, 84
9, 323459, Note_on_c, 3, 60, 0
9, 323459, Note_on_c, 3, 48, 0
9, 323520, Note_on_c, 3, 57, 84
9, 323520, Note_on_c, 3, 53, 84
9, 323759, Note_on_c, 3, 57, 0
9, 323759, Note_on_c, 3, 53, 0
9, 324000, Note_on_c, 3, 53, 52
9, 324239, Note_on_c, 3, 53, 0
9, 324240, Note_on_c, 3, 54, 52
9, 324479, Note_on_c, 3, 54, 0
9, 324480, Note_on_c, 3, 57, 52
9, 324719, Note_on_c, 3, 57, 0
9, 324720, Note_on_c, 3, 60, 52
9, 324959, Note_on_c, 3, 60, 0
9, 324960, Note_on_c, 3, 63, 52
9, 325199, Note_on_c, 3, 63, 0
9, 325200, Note_on_c, 3, 65, 52
9, 325439, Note_on_c, 3, 65, 0
9, 326880, Note_on_c, 3, 55, 52
9, 327119, Note_on_c, 3, 55, 0
9, 327120, Note_on_c, 3, 56, 52
9, 327359, Note_on_c, 3, 56, 0
9, 327360, Note_on_c, 3, 59, 52
9, 327599, Note_on_c, 3, 59, 0
9, 327600, Note_on_c, 3, 62, 52
9, 327839, Note_on_c, 3, 62, 0
9, 327840, Note_on_c, 3, 65, 52
9, 328079, Note_on_c, 3, 65, 0
9, 328080, Note_on_c, 3, 67, 52
9, 328319, Note_on_c, 3, 67, 0
9, 329760, Note_on_c, 3, 61, 52
9, 329999, Note_on_c, 3, 61, 0
9, 330000, Note_on_c, 3, 58, 52
9, 330239, Note_on_c, 3, 58, 0
9, 330240, Note_on_c, 3, 55, 52
9, 330479, Note_on_c, 3, 55, 0
9, 330480, Note_on_c, 3, 52, 52
9, 330719, Note_on_c, 3, 52, 0
9, 330720, Note_on_c, 3, 49, 52
9, 330959, Note_on_c, 3, 49, 0
9, 330960, Note_on_c, 3, 48, 52
9, 331169, Note_on_c, 3, 48, 0
9, 331200, Note_on_c, 3, 52, 52
9, 331439, Note_on_c, 3, 52, 0
9, 331440, Note_on_c, 3, 53, 52
9, 331679, Note_on_c, 3, 53, 0
9, 331680, Note_on_c, 3, 57, 52
9, 331919, Note_on_c, 3, 57, 0
9, 331920, Note_on_c, 3, 60, 52
9, 332159, Note_on_c, 3, 60, 0
9, 332160, Note_on_c, 3, 63, 52
9, 332399, Note_on_c, 3, 63, 0
9, 332400, Note_on_c, 3, 65, 52
9, 332639, Note_on_c, 3, 65, 0
9, 332640, Note_on_c, 3, 66, 52
9, 332879, Note_on_c, 3, 66, 0
9, 332880, Note_on_c, 3, 65, 52
9, 333119, Note_on_c, 3, 65, 0
9, 333120, Note_on_c, 3, 63, 56
9, 333359, Note_on_c, 3, 63, 0
9, 333360, Note_on_c, 3, 60, 60
9, 333599, Note_on_c, 3, 60, 0
9, 333600, Note_on_c, 3, 57, 64
9, 333839, Note_on_c, 3, 57, 0
9, 333840, Note_on_c, 3, 53, 68
9, 334049, Note_on_c, 3, 53, 0
9, 334080, Note_on_c, 3, 54, 76
9, 334319, Note_on_c, 3, 54, 0
9, 334320, Note_on_c, 3, 53, 52
9, 334559, Note_on_c, 3, 53, 0
9, 334560, Note_on_c, 3, 57, 52
9, 334799, Note_on_c, 3, 57, 0
9, 334800, Note_on_c, 3, 60, 52
9, 335039, Note_on_c, 3, 60, 0
9, 335040, Note_on_c, 3, 63, 52
9, 335279, Note_on_c, 3, 63, 0
9, 335280, Note_on_c, 3, 65, 52
9, 335519, Note_on_c, 3, 65, 0
9, 335520, Note_on_c, 3, 66, 52
9, 335759, Note_on_c, 3, 66, 0
9, 335760, Note_on_c, 3, 65, 52
9, 335999, Note_on_c, 3, 65, 0
9, 336000, Note_on_c, 3, 63, 56
9, 336239, Note_on_c, 3, 63, 0
9, 336240, Note_on_c, 3, 60, 60
9, 336479, Note_on_c, 3, 60, 0
9, 336480, Note_on_c, 3, 57, 64
9, 336719, Note_on_c, 3, 57, 0
9, 336720, Note_on_c, 3, 53, 68
9, 336929, Note_on_c, 3, 53, 0
9, 336960, Note_on_c, 3, 54, 76
9, 337199, Note_on_c, 3, 54, 0
9, 337200, Note_on_c, 3, 53, 68
9, 337409, Note_on_c, 3, 53, 0
9, 337440, Note_on_c, 3, 60, 76
9, 337440, Note_on_c, 3, 53, 76
9, 337889, Note_on_c, 3, 60, 0
9, 337889, Note_on_c, 3, 53, 0
9, 337920, Note_on_c, 3, 58, 76
9, 337920, Note_on_c, 3, 55, 76
9, 338369, Note_on_c, 3, 58, 0
9, 338369, Note_on_c, 3, 55, 0
9, 338400, Note_on_c, 3, 63, 76
9, 338400, Note_on_c, 3, 51, 76
9, 338579, Note_on_c, 3, 63, 0
9, 338579, Note_on_c, 3, 51, 0
9, 338640, Note_on_c, 3, 65, 84
9, 338640, Note_on_c, 3, 53, 84
9, 339329, Note_on_c, 3, 65, 0
9, 339329, Note_on_c, 3, 53, 0
9, 339360, Note_on_c, 3, 53, 84
9, 339360, Note_on_c, 3, 41, 84
9, 340049, Note_on_c, 3, 53, 0
9, 340049, Note_on_c, 3, 41, 0
9, 340080, Note_on_c, 3, 58, 84
9, 340080, Note_on_c, 3, 46, 84
9, 340319, Note_on_c, 3, 58, 0
9, 340319, Note_on_c, 3, 46, 0
9, 341520, Note_on_c, 3, 57, 84
9, 341759, Note_on_c, 3, 57, 0
9, 341760, Note_on_c, 3, 53, 84
9, 341879, Note_on_c, 3, 53, 0
9, 342000, Note_on_c, 3, 60, 84
9, 342239, Note_on_c, 3, 60, 0
9, 342240, Note_on_c, 3, 57, 84
9, 342359, Note_on_c, 3, 57, 0
9, 342480, Note_on_c, 3, 63, 84
9, 342719, Note_on_c, 3, 63, 0
9, 342720, Note_on_c, 3, 60, 84
9, 342839, Note_on_c, 3, 60, 0
9, 342960, Note_on_c, 3, 58, 84
9, 343199, Note_on_c, 3, 58, 0
9, 344400, Note_on_c, 3, 57, 84
9, 344639, Note_on_c, 3, 57, 0
9, 344640, Note_on_c, 3, 53, 84
9, 344759, Note_on_c, 3, 53, 0
9, 344880, Note_on_c, 3, 60, 84
9, 345119, Note_on_c, 3, 60, 0
9, 345120, Note_on_c, 3, 57, 84
9, 345239, Note_on_c, 3, 57, 0
9, 345360, Note_on_c, 3, 63, 84
9, 345599, Note_on_c, 3, 63, 0
9, 345600, Note_on_c, 3, 60, 84
9, 345719, Note_on_c, 3, 60, 0
9, 345840, Note_on_c, 3, 58, 76
9, 345840, Note_on_c, 3, 46, 76
9, 346529, Note_on_c, 3, 58, 0
9, 346529, Note_on_c, 3, 46, 0
9, 346560, Note_on_c, 3, 62, 76
9, 346560, Note_on_c, 3, 58, 76
9, 347249, Note_on_c, 3, 62, 0
9, 347249, Note_on_c, 3, 58, 0
9, 347280, Note_on_c, 3, 62, 76
9, 347280, Note_on_c, 3, 58, 76
9, 347489, Note_on_c, 3, 62, 0
9, 347489, Note_on_c, 3, 58, 0
9, 347520, Note_on_c, 3, 62, 76
9, 347520, Note_on_c, 3, 58, 76
9, 347729, Note_on_c, 3, 62, 0
9, 347729, Note_on_c, 3, 58, 0
9, 347760, Note_on_c, 3, 62, 76
9, 347760, Note_on_c, 3, 58, 76
9, 347969, Note_on_c, 3, 62, 0
9, 347969, Note_on_c, 3, 58, 0
9, 348000, Note_on_c, 3, 62, 76
9, 348000, Note_on_c, 3, 58, 76
9, 348239, Note_on_c, 3, 62, 0
9, 348239, Note_on_c, 3, 58, 0
9, 350160, Note_on_c, 3, 58, 84
9, 350160, Note_on_c, 3, 46, 84
9, 350399, Note_on_c, 3, 58, 0
9, 350399, Note_on_c, 3, 46, 0
9, 350399, End_track
10, 0, Start_track
10, 0, Title_t, "French Horn I and II in B-flat"
10, 0, MIDI_port, 0
10, 0, Program_c, 4, 60
10, 0, Control_c, 4, 7, 96
10, 0, Control_c, 4, 10, 45
10, 0, Control_c, 4, 11, 96
10, 0, Note_on_c, 4, 53, 84
10, 239, Note_on_c, 4, 53, 0
10, 240, Note_on_c, 4, 50, 84
10, 240, Note_on_c, 4, 58, 84
10, 359, Note_on_c, 4, 50, 0
10, 359, Note_on_c, 4, 58, 0
10, 480, Note_on_c, 4, 50, 84
10, 480, Note_on_c, 4, 58, 84
10, 929, Note_on_c, 4, 50, 0
10, 929, Note_on_c, 4, 58, 0
10, 960, Note_on_c, 4, 58, 84
10, 960, Note_on_c, 4, 50, 84
10, 1409, Note_on_c, 4, 58, 0
10, 1409, Note_on_c, 4, 50, 0
10, 1440, Note_on_c, 4, 58, 84
10, 1440, Note_on_c, 4, 50, 84
10, 1649, Note_on_c, 4, 58, 0
10, 1649, Note_on_c, 4, 50, 0
10, 1680, Note_on_c, 4, 60, 84
10, 1680, Note_on_c, 4, 53, 84
10, 2129, Note_on_c, 4, 60, 0
10, 2129, Note_on_c, 4, 53, 0
10, 2160, Note_on_c, 4, 60, 84
10, 2160, Note_on_c, 4, 53, 84
10, 2369, Note_on_c, 4, 60, 0
10, 2369, Note_on_c, 4, 53, 0
10, 2400, Note_on_c, 4, 53, 84
10, 2400, Note_on_c, 4, 60, 84
10, 2639, Note_on_c, 4, 53, 0
10, 2639, Note_on_c, 4, 60, 0
10, 11520, Note_on_c, 4, 60, 76
10, 11729, Note_on_c, 4, 60, 0
10, 11760, Note_on_c, 4, 60, 84
10, 11760, Note_on_c, 4, 53, 84
10, 12449, Note_on_c, 4, 60, 0
10, 12449, Note_on_c, 4, 53, 0
10, 12480, Note_on_c, 4, 60, 84
10, 12480, Note_on_c, 4, 53, 84
10, 13169, Note_on_c, 4, 60, 0
10, 13169, Note_on_c, 4, 53, 0
10, 13200, Note_on_c, 4, 60, 84
10, 13200, Note_on_c, 4, 53, 84
10, 13409, Note_on_c, 4, 60, 0
10, 13409, Note_on_c, 4, 53, 0
10, 13440, Note_on_c, 4, 53, 84
10, 13440, Note_on_c, 4, 60, 84
10, 13649, Note_on_c, 4, 53, 0
10, 13649, Note_on_c, 4, 60, 0
10, 13680, Note_on_c, 4, 53, 84
10, 13680, Note_on_c, 4, 60, 84
10, 13889, Note_on_c, 4, 53, 0
10, 13889, Note_on_c, 4, 60, 0
10, 13920, Note_on_c, 4, 60, 84
10, 13920, Note_on_c, 4, 53, 84
10, 14159, Note_on_c, 4, 60, 0
10, 14159, Note_on_c, 4, 53, 0
10, 14400, Note_on_c, 4, 53, 84
10, 14639, Note_on_c, 4, 53, 0
10, 14640, Note_on_c, 4, 50, 84
10, 14640, Note_on_c, 4, 58, 84
10, 14759, Note_on_c, 4, 50, 0
10, 14759, Note_on_c, 4, 58, 0
10, 14880, Note_on_c, 4, 58, 84
10, 14880, Note_on_c, 4, 50, 84
10, 15329, Note_on_c, 4, 58, 0
10, 15329, Note_on_c, 4, 50, 0
10, 15360, Note_on_c, 4, 50, 84
10, 15360, Note_on_c, 4, 58, 84
10, 15809, Note_on_c, 4, 50, 0
10, 15809, Note_on_c, 4, 58, 0
10, 15840, Note_on_c, 4, 58, 84
10, 15840, Note_on_c, 4, 50, 84
10, 16049, Note_on_c, 4, 58, 0
10, 16049, Note_on_c, 4, 50, 0
10, 16080, Note_on_c, 4, 60, 84
10, 16080, Note_on_c, 4, 53, 84
10, 16529, Note_on_c, 4, 60, 0
10, 16529, Note_on_c, 4, 53, 0
10, 16560, Note_on_c, 4, 53, 84
10, 16560, Note_on_c, 4, 60, 84
10, 16769, Note_on_c, 4, 53, 0
10, 16769, Note_on_c, 4, 60, 0
10, 16800, Note_on_c, 4, 60, 84
10, 16800, Note_on_c, 4, 53, 84
10, 17039, Note_on_c, 4, 60, 0
10, 17039, Note_on_c, 4, 53, 0
10, 25920, Note_on_c, 4, 60, 76
10, 26129, Note_on_c, 4, 60, 0
10, 26160, Note_on_c, 4, 53, 84
10, 26160, Note_on_c, 4, 60, 84
10, 26849, Note_on_c, 4, 53, 0
10, 26849, Note_on_c, 4, 60, 0
10, 26880, Note_on_c, 4, 53, 84
10, 26880, Note_on_c, 4, 60, 84
10, 27569, Note_on_c, 4, 53, 0
10, 27569, Note_on_c, 4, 60, 0
10, 27600, Note_on_c, 4, 53, 84
10, 27600, Note_on_c, 4, 60, 84
10, 27809, Note_on_c, 4, 53, 0
10, 27809, Note_on_c, 4, 60, 0
10, 27840, Note_on_c, 4, 60, 84
10, 27840, Note_on_c, 4, 53, 84
10, 28049, Note_on_c, 4, 60, 0
10, 28049, Note_on_c, 4, 53, 0
10, 28080, Note_on_c, 4, 53, 84
10, 28080, Note_on_c, 4, 60, 84
10, 28289, Note_on_c, 4, 53, 0
10, 28289, Note_on_c, 4, 60, 0
10, 28320, Note_on_c, 4, 53, 84
10, 28320, Note_on_c, 4, 60, 84
10, 28559, Note_on_c, 4, 53, 0
10, 28559, Note_on_c, 4, 60, 0
10, 51840, Note_on_c, 4, 53, 76
10, 51840, Note_on_c, 4, 60, 76
10, 52079, Note_on_c, 4, 53, 0
10, 52079, Note_on_c, 4, 60, 0
10, 52080, Note_on_c, 4, 50, 84
10, 52080, Note_on_c, 4, 58, 84
10, 52199, Note_on_c, 4, 50, 0
10, 52199, Note_on_c, 4, 58, 0
10, 52320, Note_on_c, 4, 58, 84
10, 52320, Note_on_c, 4, 50, 84
10, 52769, Note_on_c, 4, 58, 0
10, 52769, Note_on_c, 4, 50, 0
10, 52800, Note_on_c, 4, 58, 84
10, 52800, Note_on_c, 4, 50, 84
10, 53249, Note_on_c, 4, 58, 0
10, 53249, Note_on_c, 4, 50, 0
10, 53280, Note_on_c, 4, 50, 84
10, 53280, Note_on_c, 4, 58, 84
10, 53489, Note_on_c, 4, 50, 0
10, 53489, Note_on_c, 4, 58, 0
10, 53520, Note_on_c, 4, 53, 84
10, 53520, Note_on_c, 4, 60, 84
10, 53969, Note_on_c, 4, 53, 0
10, 53969, Note_on_c, 4, 60, 0
10, 54000, Note_on_c, 4, 53, 84
10, 54000, Note_on_c, 4, 60, 84
10, 54179, Note_on_c, 4, 53, 0
10, 54179, Note_on_c, 4, 60, 0
10, 54240, Note_on_c, 4, 53, 84
10, 54240, Note_on_c, 4, 60, 84
10, 54479, Note_on_c, 4, 53, 0
10, 54479, Note_on_c, 4, 60, 0
10, 61920, Control_c, 4, 11, 96
10, 62160, Note_on_c, 4, 41, 68
10, 63600, Control_c, 4, 11, 96
10, 63700, Control_c, 4, 11, 99
10, 63800, Control_c, 4, 11, 101
10, 63900, Control_c, 4, 11, 104
10, 64000, Control_c, 4, 11, 106
10, 64100, Control_c, 4, 11, 109
10, 64200, Control_c, 4, 11, 112
10, 64300, Control_c, 4, 11, 114
10, 64400, Control_c, 4, 11, 117
10, 64500, Control_c, 4, 11, 119
10, 64600, Control_c, 4, 11, 122
10, 64700, Control_c, 4, 11, 127
10, 64769, Note_on_c, 4, 41, 0
10, 64800, Note_on_c, 4, 41, 76
10, 65009, Note_on_c, 4, 41, 0
10, 65038, Control_c, 4, 11, 96
10, 65040, Note_on_c, 4, 41, 68
10, 66480, Control_c, 4, 11, 96
10, 66580, Control_c, 4, 11, 99
10, 66680, Control_c, 4, 11, 101
10, 66780, Control_c, 4, 11, 104
10, 66880, Control_c, 4, 11, 106
10, 66980, Control_c, 4, 11, 109
10, 67080, Control_c, 4, 11, 112
10, 67180, Control_c, 4, 11, 114
10, 67280, Control_c, 4, 11, 117
10, 67380, Control_c, 4, 11, 119
10, 67480, Control_c, 4, 11, 122
10, 67580, Control_c, 4, 11, 127
10, 67649, Note_on_c, 4, 41, 0
10, 67680, Note_on_c, 4, 41, 76
10, 67889, Note_on_c, 4, 41, 0
10, 67920, Note_on_c, 4, 41, 68
10, 68129, Note_on_c, 4, 41, 0
10, 68160, Note_on_c, 4, 65, 76
10, 68160, Note_on_c, 4, 53, 76
10, 68609, Note_on_c, 4, 65, 0
10, 68609, Note_on_c, 4, 53, 0
10, 68640, Note_on_c, 4, 46, 76
10, 68640, Note_on_c, 4, 58, 76
10, 69089, Note_on_c, 4, 46, 0
10, 69089, Note_on_c, 4, 58, 0
10, 69120, Note_on_c, 4, 58, 76
10, 69120, Note_on_c, 4, 46, 76
10, 69329, Note_on_c, 4, 58, 0
10, 69329, Note_on_c, 4, 46, 0
10, 69360, Note_on_c, 4, 65, 84
10, 69360, Note_on_c, 4, 53, 84
10, 70049, Note_on_c, 4, 65, 0
10, 70049, Note_on_c, 4, 53, 0
10, 70080, Note_on_c, 4, 53, 84
10, 70080, Note_on_c, 4, 65, 84
10, 70769, Note_on_c, 4, 53, 0
10, 70769, Note_on_c, 4, 65, 0
10, 70800, Note_on_c, 4, 50, 84
10, 70800, Note_on_c, 4, 58, 84
10, 72209, Note_on_c, 4, 50, 0
10, 72209, Note_on_c, 4, 58, 0
10, 72240, Note_on_c, 4, 60, 84
10, 72240, Note_on_c, 4, 53, 84
10, 73649, Note_on_c, 4, 60, 0
10, 73649, Note_on_c, 4, 53, 0
10, 73680, Note_on_c, 4, 58, 84
10, 73680, Note_on_c, 4, 50, 84
10, 75089, Note_on_c, 4, 58, 0
10, 75089, Note_on_c, 4, 50, 0
10, 75120, Note_on_c, 4, 53, 84
10, 75120, Note_on_c, 4, 60, 84
10, 76529, Note_on_c, 4, 53, 0
10, 76529, Note_on_c, 4, 60, 0
10, 76560, Note_on_c, 4, 50, 76
10, 76560, Note_on_c, 4, 58, 76
10, 77249, Note_on_c, 4, 50, 0
10, 77249, Note_on_c, 4, 58, 0
10, 77280, Note_on_c, 4, 50, 76
10, 77280, Note_on_c, 4, 62, 76
10, 77969, Note_on_c, 4, 50, 0
10, 77969, Note_on_c, 4, 62, 0
10, 78000, Note_on_c, 4, 50, 76
10, 78000, Note_on_c, 4, 65, 76
10, 78209, Note_on_c, 4, 50, 0
10, 78209, Note_on_c, 4, 65, 0
10, 78240, Note_on_c, 4, 65, 76
10, 78240, Note_on_c, 4, 50, 76
10, 78449, Note_on_c, 4, 65, 0
10, 78449, Note_on_c, 4, 50, 0
10, 78480, Note_on_c, 4, 50, 76
10, 78480, Note_on_c, 4, 65, 76
10, 78689, Note_on_c, 4, 50, 0
10, 78689, Note_on_c, 4, 65, 0
10, 78720, Note_on_c, 4, 58, 76
10, 78720, Note_on_c, 4, 50, 76
10, 78959, Note_on_c, 4, 58, 0
10, 78959, Note_on_c, 4, 50, 0
10, 102240, Note_on_c, 4, 60, 76
10, 102240, Note_on_c, 4, 53, 76
10, 102479, Note_on_c, 4, 60, 0
10, 102479, Note_on_c, 4, 53, 0
10, 102480, Note_on_c, 4, 58, 84
10, 102480, Note_on_c, 4, 50, 84
10, 102599, Note_on_c, 4, 58, 0
10, 102599, Note_on_c, 4, 50, 0
10, 102720, Note_on_c, 4, 50, 84
10, 102720, Note_on_c, 4, 58, 84
10, 103169, Note_on_c, 4, 50, 0
10, 103169, Note_on_c, 4, 58, 0
10, 103200, Note_on_c, 4, 58, 84
10, 103200, Note_on_c, 4, 50, 84
10, 103649, Note_on_c, 4, 58, 0
10, 103649, Note_on_c, 4, 50, 0
10, 103680, Note_on_c, 4, 58, 84
10, 103680, Note_on_c, 4, 50, 84
10, 103889, Note_on_c, 4, 58, 0
10, 103889, Note_on_c, 4, 50, 0
10, 103920, Note_on_c, 4, 60, 84
10, 103920, Note_on_c, 4, 53, 84
10, 104369, Note_on_c, 4, 60, 0
10, 104369, Note_on_c, 4, 53, 0
10, 104400, Note_on_c, 4, 53, 84
10, 104400, Note_on_c, 4, 60, 84
10, 104579, Note_on_c, 4, 53, 0
10, 104579, Note_on_c, 4, 60, 0
10, 104640, Note_on_c, 4, 53, 84
10, 104640, Note_on_c, 4, 60, 84
10, 104879, Note_on_c, 4, 53, 0
10, 104879, Note_on_c, 4, 60, 0
10, 112320, Control_c, 4, 11, 96
10, 112560, Note_on_c, 4, 41, 68
10, 114000, Control_c, 4, 11, 96
10, 114100, Control_c, 4, 11, 99
10, 114200, Control_c, 4, 11, 101
10, 114300, Control_c, 4, 11, 104
10, 114400, Control_c, 4, 11, 106
10, 114500, Control_c, 4, 11, 109
10, 114600, Control_c, 4, 11, 112
10, 114700, Control_c, 4, 11, 114
10, 114800, Control_c, 4, 11, 117
10, 114900, Control_c, 4, 11, 119
10, 115000, Control_c, 4, 11, 122
10, 115100, Control_c, 4, 11, 127
10, 115169, Note_on_c, 4, 41, 0
10, 115200, Note_on_c, 4, 41, 76
10, 115409, Note_on_c, 4, 41, 0
10, 115438, Control_c, 4, 11, 96
10, 115440, Note_on_c, 4, 41, 68
10, 116880, Control_c, 4, 11, 96
10, 116980, Control_c, 4, 11, 99
10, 117080, Control_c, 4, 11, 101
10, 117180, Control_c, 4, 11, 104
10, 117280, Control_c, 4, 11, 106
10, 117380, Control_c, 4, 11, 109
10, 117480, Control_c, 4, 11, 112
10, 117580, Control_c, 4, 11, 114
10, 117680, Control_c, 4, 11, 117
10, 117780, Control_c, 4, 11, 119
10, 117880, Control_c, 4, 11, 122
10, 117980, Control_c, 4, 11, 127
10, 118049, Note_on_c, 4, 41, 0
10, 118080, Note_on_c, 4, 41, 76
10, 118289, Note_on_c, 4, 41, 0
10, 118320, Note_on_c, 4, 41, 68
10, 118529, Note_on_c, 4, 41, 0
10, 118560, Note_on_c, 4, 65, 76
10, 118560, Note_on_c, 4, 53, 76
10, 119009, Note_on_c, 4, 65, 0
10, 119009, Note_on_c, 4, 53, 0
10, 119040, Note_on_c, 4, 58, 76
10, 119040, Note_on_c, 4, 46, 76
10, 119489, Note_on_c, 4, 58, 0
10, 119489, Note_on_c, 4, 46, 0
10, 119520, Note_on_c, 4, 46, 76
10, 119520, Note_on_c, 4, 58, 76
10, 119729, Note_on_c, 4, 46, 0
10, 119729, Note_on_c, 4, 58, 0
10, 119760, Note_on_c, 4, 53, 84
10, 119760, Note_on_c, 4, 65, 84
10, 120449, Note_on_c, 4, 53, 0
10, 120449, Note_on_c, 4, 65, 0
10, 120480, Note_on_c, 4, 53, 84
10, 120480, Note_on_c, 4, 65, 84
10, 121169, Note_on_c, 4, 53, 0
10, 121169, Note_on_c, 4, 65, 0
10, 121200, Note_on_c, 4, 50, 84
10, 121200, Note_on_c, 4, 58, 84
10, 122609, Note_on_c, 4, 50, 0
10, 122609, Note_on_c, 4, 58, 0
10, 122640, Note_on_c, 4, 53, 84
10, 122640, Note_on_c, 4, 60, 84
10, 124049, Note_on_c, 4, 53, 0
10, 124049, Note_on_c, 4, 60, 0
10, 124080, Note_on_c, 4, 58, 84
10, 124080, Note_on_c, 4, 50, 84
10, 125489, Note_on_c, 4, 58, 0
10, 125489, Note_on_c, 4, 50, 0
10, 125520, Note_on_c, 4, 53, 84
10, 125520, Note_on_c, 4, 60, 84
10, 126929, Note_on_c, 4, 53, 0
10, 126929, Note_on_c, 4, 60, 0
10, 126960, Note_on_c, 4, 50, 76
10, 126960, Note_on_c, 4, 58, 76
10, 127649, Note_on_c, 4, 50, 0
10, 127649, Note_on_c, 4, 58, 0
10, 127680, Note_on_c, 4, 50, 76
10, 127680, Note_on_c, 4, 62, 76
10, 128369, Note_on_c, 4, 50, 0
10, 128369, Note_on_c, 4, 62, 0
10, 128400, Note_on_c, 4, 50, 76
10, 128400, Note_on_c, 4, 65, 76
10, 128609, Note_on_c, 4, 50, 0
10, 128609, Note_on_c, 4, 65, 0
10, 128640, Note_on_c, 4, 50, 76
10, 128640, Note_on_c, 4, 65, 76
10, 128849, Note_on_c, 4, 50, 0
10, 128849, Note_on_c, 4, 65, 0
10, 128880, Note_on_c, 4, 65, 76
10, 128880, Note_on_c, 4, 50, 76
10, 129089, Note_on_c, 4, 65, 0
10, 129089, Note_on_c, 4, 50, 0
10, 129120, Note_on_c, 4, 50, 76
10, 129120, Note_on_c, 4, 58, 76
10, 129359, Note_on_c, 4, 50, 0
10, 129359, Note_on_c, 4, 58, 0
10, 129600, Note_on_c, 4, 58, 48
10, 129600, Note_on_c, 4, 46, 48
10, 130559, Note_on_c, 4, 58, 0
10, 130559, Note_on_c, 4, 46, 0
10, 130560, Note_on_c, 4, 46, 48
10, 130560, Note_on_c, 4, 58, 48
10, 131519, Note_on_c, 4, 46, 0
10, 131519, Note_on_c, 4, 58, 0
10, 132480, Note_on_c, 4, 46, 48
10, 132480, Note_on_c, 4, 58, 48
10, 133439, Note_on_c, 4, 46, 0
10, 133439, Note_on_c, 4, 58, 0
10, 133440, Note_on_c, 4, 58, 48
10, 133440, Note_on_c, 4, 46, 48
10, 134399, Note_on_c, 4, 58, 0
10, 134399, Note_on_c, 4, 46, 0
10, 135360, Control_c, 4, 11, 96
10, 135600, Note_on_c, 4, 46, 68
10, 135600, Control_c, 4, 11, 96
10, 135600, Note_on_c, 4, 58, 68
10, 135680, Control_c, 4, 11, 98
10, 135760, Control_c, 4, 11, 99
10, 135840, Control_c, 4, 11, 101
10, 135920, Control_c, 4, 11, 103
10, 136000, Control_c, 4, 11, 105
10, 136080, Control_c, 4, 11, 106
10, 136160, Control_c, 4, 11, 108
10, 136240, Control_c, 4, 11, 110
10, 136320, Control_c, 4, 11, 112
10, 136400, Control_c, 4, 11, 113
10, 136480, Control_c, 4, 11, 115
10, 136560, Control_c, 4, 11, 117
10, 136640, Control_c, 4, 11, 118
10, 136720, Control_c, 4, 11, 120
10, 136769, Note_on_c, 4, 46, 0
10, 136769, Note_on_c, 4, 58, 0
10, 136800, Note_on_c, 4, 58, 68
10, 136800, Note_on_c, 4, 46, 68
10, 136800, Control_c, 4, 11, 122
10, 136880, Control_c, 4, 11, 124
10, 136960, Control_c, 4, 11, 127
10, 137009, Note_on_c, 4, 58, 0
10, 137009, Note_on_c, 4, 46, 0
10, 137040, Note_on_c, 4, 46, 76
10, 137040, Note_on_c, 4, 58, 76
10, 137160, Control_c, 4, 11, 112
10, 137233, Control_c, 4, 11, 110
10, 137307, Control_c, 4, 11, 108
10, 137380, Control_c, 4, 11, 107
10, 137453, Control_c, 4, 11, 105
10, 137527, Control_c, 4, 11, 103
10, 137600, Control_c, 4, 11, 101
10, 137673, Control_c, 4, 11, 100
10, 137747, Control_c, 4, 11, 98
10, 137820, Control_c, 4, 11, 96
10, 137893, Control_c, 4, 11, 94
10, 137967, Control_c, 4, 11, 92
10, 138040, Control_c, 4, 11, 91
10, 138113, Control_c, 4, 11, 89
10, 138187, Control_c, 4, 11, 87
10, 138209, Note_on_c, 4, 46, 0
10, 138209, Note_on_c, 4, 58, 0
10, 138240, Note_on_c, 4, 46, 76
10, 138240, Note_on_c, 4, 58, 76
10, 138260, Control_c, 4, 11, 85
10, 138333, Control_c, 4, 11, 84
10, 138407, Control_c, 4, 11, 80
10, 138449, Note_on_c, 4, 46, 0
10, 138449, Note_on_c, 4, 58, 0
10, 138480, Note_on_c, 4, 46, 76
10, 138480, Note_on_c, 4, 58, 76
10, 138719, Note_on_c, 4, 46, 0
10, 138719, Note_on_c, 4, 58, 0
10, 138960, Note_on_c, 4, 58, 76
10, 138960, Note_on_c, 4, 46, 76
10, 139169, Note_on_c, 4, 58, 0
10, 139169, Note_on_c, 4, 46, 0
10, 139200, Note_on_c, 4, 58, 76
10, 139200, Note_on_c, 4, 46, 76
10, 139649, Note_on_c, 4, 58, 0
10, 139649, Note_on_c, 4, 46, 0
10, 139680, Note_on_c, 4, 58, 76
10, 139680, Note_on_c, 4, 46, 76
10, 139889, Note_on_c, 4, 58, 0
10, 139889, Note_on_c, 4, 46, 0
10, 139920, Note_on_c, 4, 46, 76
10, 139920, Note_on_c, 4, 58, 76
10, 140159, Note_on_c, 4, 46, 0
10, 140159, Note_on_c, 4, 58, 0
10, 140640, Control_c, 4, 11, 127
10, 141120, Note_on_c, 4, 46, 52
10, 141120, Note_on_c, 4, 58, 52
10, 142079, Note_on_c, 4, 46, 0
10, 142079, Note_on_c, 4, 58, 0
10, 142080, Note_on_c, 4, 46, 52
10, 142080, Note_on_c, 4, 58, 52
10, 143039, Note_on_c, 4, 46, 0
10, 143039, Note_on_c, 4, 58, 0
10, 144000, Note_on_c, 4, 58, 52
10, 144000, Note_on_c, 4, 46, 52
10, 144959, Note_on_c, 4, 58, 0
10, 144959, Note_on_c, 4, 46, 0
10, 144960, Note_on_c, 4, 46, 52
10, 144960, Note_on_c, 4, 58, 52
10, 145919, Note_on_c, 4, 46, 0
10, 145919, Note_on_c, 4, 58, 0
10, 146400, Control_c, 4, 11, 96
10, 146880, Note_on_c, 4, 58, 68
10, 146880, Note_on_c, 4, 46, 68
10, 147120, Control_c, 4, 11, 96
10, 147200, Control_c, 4, 11, 98
10, 147280, Control_c, 4, 11, 99
10, 147360, Control_c, 4, 11, 101
10, 147440, Control_c, 4, 11, 103
10, 147520, Control_c, 4, 11, 105
10, 147600, Control_c, 4, 11, 106
10, 147680, Control_c, 4, 11, 108
10, 147760, Control_c, 4, 11, 110
10, 147840, Control_c, 4, 11, 112
10, 147920, Control_c, 4, 11, 113
10, 148000, Control_c, 4, 11, 115
10, 148080, Control_c, 4, 11, 117
10, 148160, Control_c, 4, 11, 118
10, 148240, Control_c, 4, 11, 120
10, 148289, Note_on_c, 4, 58, 0
10, 148289, Note_on_c, 4, 46, 0
10, 148320, Control_c, 4, 11, 122
10, 148320, Note_on_c, 4, 46, 68
10, 148320, Note_on_c, 4, 58, 68
10, 148400, Control_c, 4, 11, 124
10, 148480, Control_c, 4, 11, 127
10, 148529, Note_on_c, 4, 46, 0
10, 148529, Note_on_c, 4, 58, 0
10, 148560, Note_on_c, 4, 46, 76
10, 148560, Note_on_c, 4, 58, 76
10, 148680, Control_c, 4, 11, 112
10, 148753, Control_c, 4, 11, 110
10, 148827, Control_c, 4, 11, 108
10, 148900, Control_c, 4, 11, 107
10, 148973, Control_c, 4, 11, 105
10, 149047, Control_c, 4, 11, 103
10, 149120, Control_c, 4, 11, 101
10, 149193, Control_c, 4, 11, 100
10, 149267, Control_c, 4, 11, 98
10, 149340, Control_c, 4, 11, 96
10, 149413, Control_c, 4, 11, 94
10, 149487, Control_c, 4, 11, 92
10, 149560, Control_c, 4, 11, 91
10, 149633, Control_c, 4, 11, 89
10, 149707, Control_c, 4, 11, 87
10, 149729, Note_on_c, 4, 46, 0
10, 149729, Note_on_c, 4, 58, 0
10, 149760, Note_on_c, 4, 46, 76
10, 149760, Note_on_c, 4, 58, 76
10, 149780, Control_c, 4, 11, 85
10, 149853, Control_c, 4, 11, 84
10, 149927, Control_c, 4, 11, 80
10, 149969, Note_on_c, 4, 46, 0
10, 149969, Note_on_c, 4, 58, 0
10, 150000, Note_on_c, 4, 53, 76
10, 150000, Note_on_c, 4, 60, 76
10, 150239, Note_on_c, 4, 53, 0
10, 150239, Note_on_c, 4, 60, 0
10, 151440, Control_c, 4, 11, 96
10, 151920, Note_on_c, 4, 65, 68
10, 152129, Note_on_c, 4, 65, 0
10, 152160, Note_on_c, 4, 65, 68
10, 152609, Note_on_c, 4, 65, 0
10, 152640, Note_on_c, 4, 65, 68
10, 152849, Note_on_c, 4, 65, 0
10, 152880, Note_on_c, 4, 65, 68
10, 152880, Control_c, 4, 11, 96
10, 152940, Control_c, 4, 11, 99
10, 153000, Control_c, 4, 11, 101
10, 153060, Control_c, 4, 11, 104
10, 153120, Control_c, 4, 11, 106
10, 153180, Control_c, 4, 11, 109
10, 153240, Control_c, 4, 11, 112
10, 153300, Control_c, 4, 11, 114
10, 153360, Control_c, 4, 11, 117
10, 153420, Control_c, 4, 11, 119
10, 153480, Control_c, 4, 11, 122
10, 153540, Control_c, 4, 11, 127
10, 153600, Control_c, 4, 11, 127
10, 153660, Control_c, 4, 11, 124
10, 153720, Control_c, 4, 11, 122
10, 153780, Control_c, 4, 11, 119
10, 153840, Control_c, 4, 11, 117
10, 153900, Control_c, 4, 11, 114
10, 153960, Control_c, 4, 11, 112
10, 154020, Control_c, 4, 11, 109
10, 154080, Control_c, 4, 11, 106
10, 154140, Control_c, 4, 11, 104
10, 154200, Control_c, 4, 11, 101
10, 154260, Control_c, 4, 11, 96
10, 154559, Note_on_c, 4, 65, 0
10, 154800, Note_on_c, 4, 65, 68
10, 155009, Note_on_c, 4, 65, 0
10, 155040, Note_on_c, 4, 65, 68
10, 155489, Note_on_c, 4, 65, 0
10, 155520, Note_on_c, 4, 65, 68
10, 155729, Note_on_c, 4, 65, 0
10, 155760, Note_on_c, 4, 65, 68
10, 155760, Control_c, 4, 11, 96
10, 155827, Control_c, 4, 11, 98
10, 155893, Control_c, 4, 11, 99
10, 155960, Control_c, 4, 11, 101
10, 156027, Control_c, 4, 11, 103
10, 156093, Control_c, 4, 11, 105
10, 156160, Control_c, 4, 11, 106
10, 156227, Control_c, 4, 11, 108
10, 156293, Control_c, 4, 11, 110
10, 156360, Control_c, 4, 11, 112
10, 156427, Control_c, 4, 11, 113
10, 156493, Control_c, 4, 11, 115
10, 156560, Control_c, 4, 11, 117
10, 156627, Control_c, 4, 11, 118
10, 156693, Control_c, 4, 11, 120
10, 156760, Control_c, 4, 11, 122
10, 156827, Control_c, 4, 11, 124
10, 156893, Control_c, 4, 11, 127
10, 157199, Note_on_c, 4, 65, 0
10, 157200, Control_c, 4, 11, 127
10, 157200, Note_on_c, 4, 65, 68
10, 157253, Control_c, 4, 11, 125
10, 157307, Control_c, 4, 11, 124
10, 157360, Control_c, 4, 11, 122
10, 157413, Control_c, 4, 11, 120
10, 157467, Control_c, 4, 11, 118
10, 157520, Control_c, 4, 11, 117
10, 157573, Control_c, 4, 11, 115
10, 157627, Control_c, 4, 11, 113
10, 157680, Control_c, 4, 11, 112
10, 157733, Control_c, 4, 11, 110
10, 157787, Control_c, 4, 11, 108
10, 157840, Control_c, 4, 11, 106
10, 157893, Control_c, 4, 11, 105
10, 157947, Control_c, 4, 11, 103
10, 158000, Control_c, 4, 11, 101
10, 158053, Control_c, 4, 11, 99
10, 158107, Control_c, 4, 11, 96
10, 158159, Note_on_c, 4, 65, 0
10, 165120, Control_c, 4, 11, 48
10, 165600, Note_on_c, 4, 58, 84
10, 165600, Note_on_c, 4, 46, 84
10, 165840, Control_c, 4, 11, 48
10, 165977, Control_c, 4, 11, 49
10, 166113, Control_c, 4, 11, 50
10, 166250, Control_c, 4, 11, 51
10, 166387, Control_c, 4, 11, 52
10, 166524, Control_c, 4, 11, 53
10, 166559, Note_on_c, 4, 58, 0
10, 166559, Note_on_c, 4, 46, 0
10, 166560, Note_on_c, 4, 58, 84
10, 166560, Note_on_c, 4, 46, 84
10, 166660, Control_c, 4, 11, 54
10, 166797, Control_c, 4, 11, 55
10, 166934, Control_c, 4, 11, 56
10, 167070, Control_c, 4, 11, 57
10, 167207, Control_c, 4, 11, 58
10, 167344, Control_c, 4, 11, 59
10, 167481, Control_c, 4, 11, 60
10, 167519, Note_on_c, 4, 58, 0
10, 167519, Note_on_c, 4, 46, 0
10, 167617, Control_c, 4, 11, 61
10, 168437, Control_c, 4, 11, 67
10, 168480, Note_on_c, 4, 46, 84
10, 168480, Note_on_c, 4, 58, 84
10, 168574, Control_c, 4, 11, 68
10, 168711, Control_c, 4, 11, 69
10, 168848, Control_c, 4, 11, 70
10, 168984, Control_c, 4, 11, 71
10, 169121, Control_c, 4, 11, 72
10, 169258, Control_c, 4, 11, 73
10, 169394, Control_c, 4, 11, 74
10, 169439, Note_on_c, 4, 46, 0
10, 169439, Note_on_c, 4, 58, 0
10, 169440, Note_on_c, 4, 46, 84
10, 169440, Note_on_c, 4, 58, 84
10, 169531, Control_c, 4, 11, 75
10, 169668, Control_c, 4, 11, 76
10, 169805, Control_c, 4, 11, 77
10, 169941, Control_c, 4, 11, 78
10, 170078, Control_c, 4, 11, 79
10, 170215, Control_c, 4, 11, 80
10, 170351, Control_c, 4, 11, 81
10, 170399, Note_on_c, 4, 46, 0
10, 170399, Note_on_c, 4, 58, 0
10, 170488, Control_c, 4, 11, 82
10, 171308, Control_c, 4, 11, 88
10, 171360, Note_on_c, 4, 46, 84
10, 171360, Note_on_c, 4, 58, 84
10, 171445, Control_c, 4, 11, 89
10, 171582, Control_c, 4, 11, 90
10, 171718, Control_c, 4, 11, 91
10, 171855, Control_c, 4, 11, 92
10, 171992, Control_c, 4, 11, 93
10, 172129, Control_c, 4, 11, 94
10, 172265, Control_c, 4, 11, 95
10, 172289, Note_on_c, 4, 46, 0
10, 172289, Note_on_c, 4, 58, 0
10, 172320, Note_on_c, 4, 46, 84
10, 172320, Note_on_c, 4, 58, 84
10, 172402, Control_c, 4, 11, 96
10, 172539, Control_c, 4, 11, 97
10, 172675, Control_c, 4, 11, 98
10, 172812, Control_c, 4, 11, 99
10, 172949, Control_c, 4, 11, 100
10, 173009, Note_on_c, 4, 46, 0
10, 173009, Note_on_c, 4, 58, 0
10, 173040, Note_on_c, 4, 58, 84
10, 173040, Note_on_c, 4, 46, 84
10, 173086, Control_c, 4, 11, 101
10, 173222, Control_c, 4, 11, 102
10, 173359, Control_c, 4, 11, 103
10, 173496, Control_c, 4, 11, 104
10, 173632, Control_c, 4, 11, 105
10, 173769, Control_c, 4, 11, 106
10, 173906, Control_c, 4, 11, 107
10, 174043, Control_c, 4, 11, 108
10, 174179, Control_c, 4, 11, 109
10, 174209, Note_on_c, 4, 58, 0
10, 174209, Note_on_c, 4, 46, 0
10, 174240, Note_on_c, 4, 46, 84
10, 174240, Note_on_c, 4, 58, 84
10, 174316, Control_c, 4, 11, 110
10, 174449, Note_on_c, 4, 46, 0
10, 174449, Note_on_c, 4, 58, 0
10, 174453, Control_c, 4, 11, 111
10, 174480, Note_on_c, 4, 53, 84
10, 174480, Note_on_c, 4, 41, 84
10, 174589, Control_c, 4, 11, 112
10, 174726, Control_c, 4, 11, 113
10, 174863, Control_c, 4, 11, 114
10, 174929, Note_on_c, 4, 53, 0
10, 174929, Note_on_c, 4, 41, 0
10, 174960, Note_on_c, 4, 53, 84
10, 174960, Note_on_c, 4, 41, 84
10, 174999, Control_c, 4, 11, 115
10, 175136, Control_c, 4, 11, 116
10, 175169, Note_on_c, 4, 53, 0
10, 175169, Note_on_c, 4, 41, 0
10, 175200, Note_on_c, 4, 53, 84
10, 175200, Note_on_c, 4, 41, 84
10, 175273, Control_c, 4, 11, 117
10, 175410, Control_c, 4, 11, 118
10, 175546, Control_c, 4, 11, 119
10, 175649, Note_on_c, 4, 53, 0
10, 175649, Note_on_c, 4, 41, 0
10, 175680, Note_on_c, 4, 53, 84
10, 175680, Note_on_c, 4, 41, 84
10, 175683, Control_c, 4, 11, 120
10, 175820, Control_c, 4, 11, 121
10, 175889, Note_on_c, 4, 53, 0
10, 175889, Note_on_c, 4, 41, 0
10, 175920, Note_on_c, 4, 53, 84
10, 175920, Note_on_c, 4, 46, 84
10, 175956, Control_c, 4, 11, 122
10, 176093, Control_c, 4, 11, 123
10, 176159, Note_on_c, 4, 53, 0
10, 176159, Note_on_c, 4, 46, 0
10, 176230, Control_c, 4, 11, 124
10, 176367, Control_c, 4, 11, 125
10, 176503, Control_c, 4, 11, 127
10, 177120, Note_on_c, 4, 58, 84
10, 177120, Note_on_c, 4, 46, 84
10, 177329, Note_on_c, 4, 58, 0
10, 177329, Note_on_c, 4, 46, 0
10, 177360, Note_on_c, 4, 58, 84
10, 177360, Note_on_c, 4, 46, 84
10, 177809, Note_on_c, 4, 58, 0
10, 177809, Note_on_c, 4, 46, 0
10, 177840, Note_on_c, 4, 46, 84
10, 177840, Note_on_c, 4, 58, 84
10, 178049, Note_on_c, 4, 46, 0
10, 178049, Note_on_c, 4, 58, 0
10, 178080, Note_on_c, 4, 46, 84
10, 178080, Note_on_c, 4, 58, 84
10, 178529, Note_on_c, 4, 46, 0
10, 178529, Note_on_c, 4, 58, 0
10, 178560, Note_on_c, 4, 58, 84
10, 178560, Note_on_c, 4, 46, 84
10, 178769, Note_on_c, 4, 58, 0
10, 178769, Note_on_c, 4, 46, 0
10, 178800, Note_on_c, 4, 46, 92
10, 178800, Note_on_c, 4, 58, 92
10, 179969, Note_on_c, 4, 46, 0
10, 179969, Note_on_c, 4, 58, 0
10, 180000, Note_on_c, 4, 46, 84
10, 180000, Note_on_c, 4, 58, 84
10, 180239, Note_on_c, 4, 46, 0
10, 180239, Note_on_c, 4, 58, 0
10, 180240, Note_on_c, 4, 60, 84
10, 180240, Note_on_c, 4, 53, 84
10, 180479, Note_on_c, 4, 60, 0
10, 180479, Note_on_c, 4, 53, 0
10, 180720, Note_on_c, 4, 53, 84
10, 180720, Note_on_c, 4, 60, 84
10, 180929, Note_on_c, 4, 53, 0
10, 180929, Note_on_c, 4, 60, 0
10, 180960, Note_on_c, 4, 60, 84
10, 180960, Note_on_c, 4, 53, 84
10, 181409, Note_on_c, 4, 60, 0
10, 181409, Note_on_c, 4, 53, 0
10, 181440, Note_on_c, 4, 60, 84
10, 181440, Note_on_c, 4, 53, 84
10, 181649, Note_on_c, 4, 60, 0
10, 181649, Note_on_c, 4, 53, 0
10, 181680, Note_on_c, 4, 58, 84
10, 181680, Note_on_c, 4, 62, 84
10, 181919, Note_on_c, 4, 58, 0
10, 181919, Note_on_c, 4, 62, 0
10, 182880, Note_on_c, 4, 62, 84
10, 182880, Note_on_c, 4, 58, 84
10, 183119, Note_on_c, 4, 62, 0
10, 183119, Note_on_c, 4, 58, 0
10, 183120, Note_on_c, 4, 60, 84
10, 183120, Note_on_c, 4, 53, 84
10, 183359, Note_on_c, 4, 60, 0
10, 183359, Note_on_c, 4, 53, 0
10, 184320, Note_on_c, 4, 60, 84
10, 184320, Note_on_c, 4, 53, 84
10, 184559, Note_on_c, 4, 60, 0
10, 184559, Note_on_c, 4, 53, 0
10, 184560, Note_on_c, 4, 58, 84
10, 184560, Note_on_c, 4, 62, 84
10, 184799, Note_on_c, 4, 58, 0
10, 184799, Note_on_c, 4, 62, 0
10, 185760, Note_on_c, 4, 58, 72
10, 185760, Note_on_c, 4, 62, 72
10, 185999, Note_on_c, 4, 58, 0
10, 185999, Note_on_c, 4, 62, 0
10, 186000, Note_on_c, 4, 60, 68
10, 186000, Note_on_c, 4, 53, 68
10, 186239, Note_on_c, 4, 60, 0
10, 186239, Note_on_c, 4, 53, 0
10, 187200, Note_on_c, 4, 53, 48
10, 187200, Note_on_c, 4, 60, 48
10, 187439, Note_on_c, 4, 53, 0
10, 187439, Note_on_c, 4, 60, 0
10, 187440, Note_on_c, 4, 58, 44
10, 187440, Note_on_c, 4, 50, 44
10, 187679, Note_on_c, 4, 58, 0
10, 187679, Note_on_c, 4, 50, 0
10, 188160, Note_on_c, 4, 58, 44
10, 188160, Note_on_c, 4, 50, 44
10, 188399, Note_on_c, 4, 58, 0
10, 188399, Note_on_c, 4, 50, 0
10, 188880, Note_on_c, 4, 50, 44
10, 188880, Note_on_c, 4, 58, 44
10, 189119, Note_on_c, 4, 50, 0
10, 189119, Note_on_c, 4, 58, 0
10, 189600, Note_on_c, 4, 50, 44
10, 189600, Note_on_c, 4, 58, 44
10, 189839, Note_on_c, 4, 50, 0
10, 189839, Note_on_c, 4, 58, 0
10, 190320, Note_on_c, 4, 58, 44
10, 190320, Note_on_c, 4, 50, 44
10, 190559, Note_on_c, 4, 58, 0
10, 190559, Note_on_c, 4, 50, 0
10, 192960, Note_on_c, 4, 53, 76
10, 192960, Note_on_c, 4, 60, 76
10, 193199, Note_on_c, 4, 53, 0
10, 193199, Note_on_c, 4, 60, 0
10, 193200, Note_on_c, 4, 50, 84
10, 193200, Note_on_c, 4, 58, 84
10, 193319, Note_on_c, 4, 50, 0
10, 193319, Note_on_c, 4, 58, 0
10, 193440, Note_on_c, 4, 58, 84
10, 193440, Note_on_c, 4, 50, 84
10, 193889, Note_on_c, 4, 58, 0
10, 193889, Note_on_c, 4, 50, 0
10, 193920, Note_on_c, 4, 50, 84
10, 193920, Note_on_c, 4, 58, 84
10, 194369, Note_on_c, 4, 50, 0
10, 194369, Note_on_c, 4, 58, 0
10, 194400, Note_on_c, 4, 50, 84
10, 194400, Note_on_c, 4, 58, 84
10, 194609, Note_on_c, 4, 50, 0
10, 194609, Note_on_c, 4, 58, 0
10, 194640, Note_on_c, 4, 53, 84
10, 194640, Note_on_c, 4, 60, 84
10, 195089, Note_on_c, 4, 53, 0
10, 195089, Note_on_c, 4, 60, 0
10, 195120, Note_on_c, 4, 60, 84
10, 195120, Note_on_c, 4, 53, 84
10, 195329, Note_on_c, 4, 60, 0
10, 195329, Note_on_c, 4, 53, 0
10, 195360, Note_on_c, 4, 60, 84
10, 195360, Note_on_c, 4, 53, 84
10, 195599, Note_on_c, 4, 60, 0
10, 195599, Note_on_c, 4, 53, 0
10, 204480, Note_on_c, 4, 60, 76
10, 204659, Note_on_c, 4, 60, 0
10, 204720, Note_on_c, 4, 60, 84
10, 204720, Note_on_c, 4, 53, 84
10, 205409, Note_on_c, 4, 60, 0
10, 205409, Note_on_c, 4, 53, 0
10, 205440, Note_on_c, 4, 53, 84
10, 205440, Note_on_c, 4, 60, 84
10, 206129, Note_on_c, 4, 53, 0
10, 206129, Note_on_c, 4, 60, 0
10, 206160, Note_on_c, 4, 53, 84
10, 206160, Note_on_c, 4, 60, 84
10, 206369, Note_on_c, 4, 53, 0
10, 206369, Note_on_c, 4, 60, 0
10, 206400, Note_on_c, 4, 60, 84
10, 206400, Note_on_c, 4, 53, 84
10, 206609, Note_on_c, 4, 60, 0
10, 206609, Note_on_c, 4, 53, 0
10, 206640, Note_on_c, 4, 60, 84
10, 206640, Note_on_c, 4, 53, 84
10, 206849, Note_on_c, 4, 60, 0
10, 206849, Note_on_c, 4, 53, 0
10, 206880, Note_on_c, 4, 53, 84
10, 206880, Note_on_c, 4, 60, 84
10, 207119, Note_on_c, 4, 53, 0
10, 207119, Note_on_c, 4, 60, 0
10, 230400, Note_on_c, 4, 53, 76
10, 230400, Note_on_c, 4, 60, 76
10, 230639, Note_on_c, 4, 53, 0
10, 230639, Note_on_c, 4, 60, 0
10, 230640, Note_on_c, 4, 58, 84
10, 230640, Note_on_c, 4, 50, 84
10, 230759, Note_on_c, 4, 58, 0
10, 230759, Note_on_c, 4, 50, 0
10, 230880, Note_on_c, 4, 50, 84
10, 230880, Note_on_c, 4, 58, 84
10, 231329, Note_on_c, 4, 50, 0
10, 231329, Note_on_c, 4, 58, 0
10, 231360, Note_on_c, 4, 58, 84
10, 231360, Note_on_c, 4, 50, 84
10, 231809, Note_on_c, 4, 58, 0
10, 231809, Note_on_c, 4, 50, 0
10, 231840, Note_on_c, 4, 58, 84
10, 231840, Note_on_c, 4, 50, 84
10, 232049, Note_on_c, 4, 58, 0
10, 232049, Note_on_c, 4, 50, 0
10, 232080, Note_on_c, 4, 60, 84
10, 232080, Note_on_c, 4, 53, 84
10, 232529, Note_on_c, 4, 60, 0
10, 232529, Note_on_c, 4, 53, 0
10, 232560, Note_on_c, 4, 53, 84
10, 232560, Note_on_c, 4, 60, 84
10, 232739, Note_on_c, 4, 53, 0
10, 232739, Note_on_c, 4, 60, 0
10, 232800, Note_on_c, 4, 53, 84
10, 232800, Note_on_c, 4, 60, 84
10, 233039, Note_on_c, 4, 53, 0
10, 233039, Note_on_c, 4, 60, 0
10, 240480, Control_c, 4, 11, 96
10, 240720, Note_on_c, 4, 41, 68
10, 242160, Control_c, 4, 11, 96
10, 242260, Control_c, 4, 11, 99
10, 242360, Control_c, 4, 11, 101
10, 242460, Control_c, 4, 11, 104
10, 242560, Control_c, 4, 11, 106
10, 242660, Control_c, 4, 11, 109
10, 242760, Control_c, 4, 11, 112
10, 242860, Control_c, 4, 11, 114
10, 242960, Control_c, 4, 11, 117
10, 243060, Control_c, 4, 11, 119
10, 243160, Control_c, 4, 11, 122
10, 243260, Control_c, 4, 11, 127
10, 243329, Note_on_c, 4, 41, 0
10, 243360, Note_on_c, 4, 41, 76
10, 243569, Note_on_c, 4, 41, 0
10, 243598, Control_c, 4, 11, 96
10, 243600, Note_on_c, 4, 41, 68
10, 245040, Control_c, 4, 11, 96
10, 245140, Control_c, 4, 11, 99
10, 245240, Control_c, 4, 11, 101
10, 245340, Control_c, 4, 11, 104
10, 245440, Control_c, 4, 11, 106
10, 245540, Control_c, 4, 11, 109
10, 245640, Control_c, 4, 11, 112
10, 245740, Control_c, 4, 11, 114
10, 245840, Control_c, 4, 11, 117
10, 245940, Control_c, 4, 11, 119
10, 246040, Control_c, 4, 11, 122
10, 246140, Control_c, 4, 11, 127
10, 246209, Note_on_c, 4, 41, 0
10, 246240, Note_on_c, 4, 41, 76
10, 246449, Note_on_c, 4, 41, 0
10, 246480, Note_on_c, 4, 41, 68
10, 246689, Note_on_c, 4, 41, 0
10, 246720, Note_on_c, 4, 53, 76
10, 246720, Note_on_c, 4, 65, 76
10, 247169, Note_on_c, 4, 53, 0
10, 247169, Note_on_c, 4, 65, 0
10, 247200, Note_on_c, 4, 58, 76
10, 247200, Note_on_c, 4, 46, 76
10, 247649, Note_on_c, 4, 58, 0
10, 247649, Note_on_c, 4, 46, 0
10, 247680, Note_on_c, 4, 46, 76
10, 247680, Note_on_c, 4, 58, 76
10, 247859, Note_on_c, 4, 46, 0
10, 247859, Note_on_c, 4, 58, 0
10, 247920, Note_on_c, 4, 53, 84
10, 247920, Note_on_c, 4, 65, 84
10, 248609, Note_on_c, 4, 53, 0
10, 248609, Note_on_c, 4, 65, 0
10, 248640, Note_on_c, 4, 53, 84
10, 248640, Note_on_c, 4, 65, 84
10, 249329, Note_on_c, 4, 53, 0
10, 249329, Note_on_c, 4, 65, 0
10, 249360, Note_on_c, 4, 50, 84
10, 249360, Note_on_c, 4, 58, 84
10, 250769, Note_on_c, 4, 50, 0
10, 250769, Note_on_c, 4, 58, 0
10, 250800, Note_on_c, 4, 60, 84
10, 250800, Note_on_c, 4, 53, 84
10, 252209, Note_on_c, 4, 60, 0
10, 252209, Note_on_c, 4, 53, 0
10, 252240, Note_on_c, 4, 50, 84
10, 252240, Note_on_c, 4, 58, 84
10, 253649, Note_on_c, 4, 50, 0
10, 253649, Note_on_c, 4, 58, 0
10, 253680, Note_on_c, 4, 53, 84
10, 253680, Note_on_c, 4, 60, 84
10, 255089, Note_on_c, 4, 53, 0
10, 255089, Note_on_c, 4, 60, 0
10, 255120, Note_on_c, 4, 58, 76
10, 255120, Note_on_c, 4, 50, 76
10, 255809, Note_on_c, 4, 58, 0
10, 255809, Note_on_c, 4, 50, 0
10, 255840, Note_on_c, 4, 62, 76
10, 255840, Note_on_c, 4, 50, 76
10, 256529, Note_on_c, 4, 62, 0
10, 256529, Note_on_c, 4, 50, 0
10, 256560, Note_on_c, 4, 50, 76
10, 256560, Note_on_c, 4, 65, 76
10, 256769, Note_on_c, 4, 50, 0
10, 256769, Note_on_c, 4, 65, 0
10, 256800, Note_on_c, 4, 65, 76
10, 256800, Note_on_c, 4, 50, 76
10, 257009, Note_on_c, 4, 65, 0
10, 257009, Note_on_c, 4, 50, 0
10, 257040, Note_on_c, 4, 50, 76
10, 257040, Note_on_c, 4, 65, 76
10, 257249, Note_on_c, 4, 50, 0
10, 257249, Note_on_c, 4, 65, 0
10, 257280, Note_on_c, 4, 58, 76
10, 257280, Note_on_c, 4, 50, 76
10, 257519, Note_on_c, 4, 58, 0
10, 257519, Note_on_c, 4, 50, 0
10, 257760, Note_on_c, 4, 58, 48
10, 257760, Note_on_c, 4, 46, 48
10, 258719, Note_on_c, 4, 58, 0
10, 258719, Note_on_c, 4, 46, 0
10, 258720, Note_on_c, 4, 46, 48
10, 258720, Note_on_c, 4, 58, 48
10, 259679, Note_on_c, 4, 46, 0
10, 259679, Note_on_c, 4, 58, 0
10, 260640, Note_on_c, 4, 46, 48
10, 260640, Note_on_c, 4, 58, 48
10, 261599, Note_on_c, 4, 46, 0
10, 261599, Note_on_c, 4, 58, 0
10, 261600, Note_on_c, 4, 46, 48
10, 261600, Note_on_c, 4, 58, 48
10, 262559, Note_on_c, 4, 46, 0
10, 262559, Note_on_c, 4, 58, 0
10, 263520, Control_c, 4, 11, 96
10, 263760, Note_on_c, 4, 46, 68
10, 263760, Note_on_c, 4, 58, 68
10, 263760, Control_c, 4, 11, 96
10, 263840, Control_c, 4, 11, 98
10, 263920, Control_c, 4, 11, 99
10, 264000, Control_c, 4, 11, 101
10, 264080, Control_c, 4, 11, 103
10, 264160, Control_c, 4, 11, 105
10, 264240, Control_c, 4, 11, 106
10, 264320, Control_c, 4, 11, 108
10, 264400, Control_c, 4, 11, 110
10, 264480, Control_c, 4, 11, 112
10, 264560, Control_c, 4, 11, 113
10, 264640, Control_c, 4, 11, 115
10, 264720, Control_c, 4, 11, 117
10, 264800, Control_c, 4, 11, 118
10, 264880, Control_c, 4, 11, 120
10, 264929, Note_on_c, 4, 46, 0
10, 264929, Note_on_c, 4, 58, 0
10, 264960, Note_on_c, 4, 46, 68
10, 264960, Note_on_c, 4, 58, 68
10, 264960, Control_c, 4, 11, 122
10, 265040, Control_c, 4, 11, 124
10, 265120, Control_c, 4, 11, 127
10, 265169, Note_on_c, 4, 46, 0
10, 265169, Note_on_c, 4, 58, 0
10, 265200, Note_on_c, 4, 58, 76
10, 265200, Note_on_c, 4, 46, 76
10, 265320, Control_c, 4, 11, 112
10, 265393, Control_c, 4, 11, 110
10, 265467, Control_c, 4, 11, 108
10, 265540, Control_c, 4, 11, 107
10, 265613, Control_c, 4, 11, 105
10, 265687, Control_c, 4, 11, 103
10, 265760, Control_c, 4, 11, 101
10, 265833, Control_c, 4, 11, 100
10, 265907, Control_c, 4, 11, 98
10, 265980, Control_c, 4, 11, 96
10, 266053, Control_c, 4, 11, 94
10, 266127, Control_c, 4, 11, 92
10, 266200, Control_c, 4, 11, 91
10, 266273, Control_c, 4, 11, 89
10, 266347, Control_c, 4, 11, 87
10, 266369, Note_on_c, 4, 58, 0
10, 266369, Note_on_c, 4, 46, 0
10, 266400, Note_on_c, 4, 58, 76
10, 266400, Note_on_c, 4, 46, 76
10, 266420, Control_c, 4, 11, 85
10, 266493, Control_c, 4, 11, 84
10, 266567, Control_c, 4, 11, 80
10, 266609, Note_on_c, 4, 58, 0
10, 266609, Note_on_c, 4, 46, 0
10, 266640, Note_on_c, 4, 46, 76
10, 266640, Note_on_c, 4, 58, 76
10, 266879, Note_on_c, 4, 46, 0
10, 266879, Note_on_c, 4, 58, 0
10, 267120, Note_on_c, 4, 46, 76
10, 267120, Note_on_c, 4, 58, 76
10, 267329, Note_on_c, 4, 46, 0
10, 267329, Note_on_c, 4, 58, 0
10, 267360, Note_on_c, 4, 58, 76
10, 267360, Note_on_c, 4, 46, 76
10, 267809, Note_on_c, 4, 58, 0
10, 267809, Note_on_c, 4, 46, 0
10, 267840, Note_on_c, 4, 58, 76
10, 267840, Note_on_c, 4, 46, 76
10, 268049, Note_on_c, 4, 58, 0
10, 268049, Note_on_c, 4, 46, 0
10, 268080, Note_on_c, 4, 46, 76
10, 268080, Note_on_c, 4, 58, 76
10, 268319, Note_on_c, 4, 46, 0
10, 268319, Note_on_c, 4, 58, 0
10, 268800, Control_c, 4, 11, 127
10, 269280, Note_on_c, 4, 46, 52
10, 269280, Note_on_c, 4, 58, 52
10, 270239, Note_on_c, 4, 46, 0
10, 270239, Note_on_c, 4, 58, 0
10, 270240, Note_on_c, 4, 58, 52
10, 270240, Note_on_c, 4, 46, 52
10, 271199, Note_on_c, 4, 58, 0
10, 271199, Note_on_c, 4, 46, 0
10, 272160, Note_on_c, 4, 46, 52
10, 272160, Note_on_c, 4, 58, 52
10, 273119, Note_on_c, 4, 46, 0
10, 273119, Note_on_c, 4, 58, 0
10, 273120, Note_on_c, 4, 46, 52
10, 273120, Note_on_c, 4, 58, 52
10, 274079, Note_on_c, 4, 46, 0
10, 274079, Note_on_c, 4, 58, 0
10, 274560, Control_c, 4, 11, 96
10, 275040, Note_on_c, 4, 46, 68
10, 275040, Note_on_c, 4, 58, 68
10, 275280, Control_c, 4, 11, 96
10, 275360, Control_c, 4, 11, 98
10, 275440, Control_c, 4, 11, 99
10, 275520, Control_c, 4, 11, 101
10, 275600, Control_c, 4, 11, 103
10, 275680, Control_c, 4, 11, 105
10, 275760, Control_c, 4, 11, 106
10, 275840, Control_c, 4, 11, 108
10, 275920, Control_c, 4, 11, 110
10, 276000, Control_c, 4, 11, 112
10, 276080, Control_c, 4, 11, 113
10, 276160, Control_c, 4, 11, 115
10, 276240, Control_c, 4, 11, 117
10, 276320, Control_c, 4, 11, 118
10, 276400, Control_c, 4, 11, 120
10, 276449, Note_on_c, 4, 46, 0
10, 276449, Note_on_c, 4, 58, 0
10, 276480, Control_c, 4, 11, 122
10, 276480, Note_on_c, 4, 58, 68
10, 276480, Note_on_c, 4, 46, 68
10, 276560, Control_c, 4, 11, 124
10, 276640, Control_c, 4, 11, 127
10, 276689, Note_on_c, 4, 58, 0
10, 276689, Note_on_c, 4, 46, 0
10, 276720, Note_on_c, 4, 46, 76
10, 276720, Note_on_c, 4, 58, 76
10, 276840, Control_c, 4, 11, 112
10, 276913, Control_c, 4, 11, 110
10, 276987, Control_c, 4, 11, 108
10, 277060, Control_c, 4, 11, 107
10, 277133, Control_c, 4, 11, 105
10, 277207, Control_c, 4, 11, 103
10, 277280, Control_c, 4, 11, 101
10, 277353, Control_c, 4, 11, 100
10, 277427, Control_c, 4, 11, 98
10, 277500, Control_c, 4, 11, 96
10, 277573, Control_c, 4, 11, 94
10, 277647, Control_c, 4, 11, 92
10, 277720, Control_c, 4, 11, 91
10, 277793, Control_c, 4, 11, 89
10, 277867, Control_c, 4, 11, 87
10, 277889, Note_on_c, 4, 46, 0
10, 277889, Note_on_c, 4, 58, 0
10, 277920, Note_on_c, 4, 58, 76
10, 277920, Note_on_c, 4, 46, 76
10, 277940, Control_c, 4, 11, 85
10, 278013, Control_c, 4, 11, 84
10, 278087, Control_c, 4, 11, 80
10, 278129, Note_on_c, 4, 58, 0
10, 278129, Note_on_c, 4, 46, 0
10, 278160, Note_on_c, 4, 60, 76
10, 278160, Note_on_c, 4, 53, 76
10, 278399, Note_on_c, 4, 60, 0
10, 278399, Note_on_c, 4, 53, 0
10, 279600, Control_c, 4, 11, 96
10, 280080, Note_on_c, 4, 65, 68
10, 280289, Note_on_c, 4, 65, 0
10, 280320, Note_on_c, 4, 65, 68
10, 280769, Note_on_c, 4, 65, 0
10, 280800, Note_on_c, 4, 65, 68
10, 281009, Note_on_c, 4, 65, 0
10, 281040, Control_c, 4, 11, 96
10, 281040, Note_on_c, 4, 65, 68
10, 281100, Control_c, 4, 11, 99
10, 281160, Control_c, 4, 11, 101
10, 281220, Control_c, 4, 11, 104
10, 281280, Control_c, 4, 11, 106
10, 281340, Control_c, 4, 11, 109
10, 281400, Control_c, 4, 11, 112
10, 281460, Control_c, 4, 11, 114
10, 281520, Control_c, 4, 11, 117
10, 281580, Control_c, 4, 11, 119
10, 281640, Control_c, 4, 11, 122
10, 281700, Control_c, 4, 11, 127
10, 281760, Control_c, 4, 11, 127
10, 281820, Control_c, 4, 11, 124
10, 281880, Control_c, 4, 11, 122
10, 281940, Control_c, 4, 11, 119
10, 282000, Control_c, 4, 11, 117
10, 282060, Control_c, 4, 11, 114
10, 282120, Control_c, 4, 11, 112
10, 282180, Control_c, 4, 11, 109
10, 282240, Control_c, 4, 11, 106
10, 282300, Control_c, 4, 11, 104
10, 282360, Control_c, 4, 11, 101
10, 282420, Control_c, 4, 11, 96
10, 282719, Note_on_c, 4, 65, 0
10, 282960, Note_on_c, 4, 65, 68
10, 283169, Note_on_c, 4, 65, 0
10, 283200, Note_on_c, 4, 65, 68
10, 283649, Note_on_c, 4, 65, 0
10, 283680, Note_on_c, 4, 65, 68
10, 283889, Note_on_c, 4, 65, 0
10, 283920, Control_c, 4, 11, 96
10, 283920, Note_on_c, 4, 65, 68
10, 283987, Control_c, 4, 11, 98
10, 284053, Control_c, 4, 11, 99
10, 284120, Control_c, 4, 11, 101
10, 284187, Control_c, 4, 11, 103
10, 284253, Control_c, 4, 11, 105
10, 284320, Control_c, 4, 11, 106
10, 284387, Control_c, 4, 11, 108
10, 284453, Control_c, 4, 11, 110
10, 284520, Control_c, 4, 11, 112
10, 284587, Control_c, 4, 11, 113
10, 284653, Control_c, 4, 11, 115
10, 284720, Control_c, 4, 11, 117
10, 284787, Control_c, 4, 11, 118
10, 284853, Control_c, 4, 11, 120
10, 284920, Control_c, 4, 11, 122
10, 284987, Control_c, 4, 11, 124
10, 285053, Control_c, 4, 11, 127
10, 285359, Note_on_c, 4, 65, 0
10, 285360, Note_on_c, 4, 65, 68
10, 285360, Control_c, 4, 11, 127
10, 285413, Control_c, 4, 11, 125
10, 285467, Control_c, 4, 11, 124
10, 285520, Control_c, 4, 11, 122
10, 285573, Control_c, 4, 11, 120
10, 285627, Control_c, 4, 11, 118
10, 285680, Control_c, 4, 11, 117
10, 285733, Control_c, 4, 11, 115
10, 285787, Control_c, 4, 11, 113
10, 285840, Control_c, 4, 11, 112
10, 285893, Control_c, 4, 11, 110
10, 285947, Control_c, 4, 11, 108
10, 286000, Control_c, 4, 11, 106
10, 286053, Control_c, 4, 11, 105
10, 286107, Control_c, 4, 11, 103
10, 286160, Control_c, 4, 11, 101
10, 286213, Control_c, 4, 11, 99
10, 286267, Control_c, 4, 11, 96
10, 286319, Note_on_c, 4, 65, 0
10, 293280, Control_c, 4, 11, 48
10, 293760, Note_on_c, 4, 58, 84
10, 293760, Note_on_c, 4, 46, 84
10, 294000, Control_c, 4, 11, 48
10, 294137, Control_c, 4, 11, 49
10, 294273, Control_c, 4, 11, 50
10, 294410, Control_c, 4, 11, 51
10, 294547, Control_c, 4, 11, 52
10, 294684, Control_c, 4, 11, 53
10, 294719, Note_on_c, 4, 58, 0
10, 294719, Note_on_c, 4, 46, 0
10, 294720, Note_on_c, 4, 58, 84
10, 294720, Note_on_c, 4, 46, 84
10, 294820, Control_c, 4, 11, 54
10, 294957, Control_c, 4, 11, 55
10, 295094, Control_c, 4, 11, 56
10, 295230, Control_c, 4, 11, 57
10, 295367, Control_c, 4, 11, 58
10, 295504, Control_c, 4, 11, 59
10, 295641, Control_c, 4, 11, 60
10, 295679, Note_on_c, 4, 58, 0
10, 295679, Note_on_c, 4, 46, 0
10, 295777, Control_c, 4, 11, 61
10, 296597, Control_c, 4, 11, 67
10, 296640, Note_on_c, 4, 58, 84
10, 296640, Note_on_c, 4, 46, 84
10, 296734, Control_c, 4, 11, 68
10, 296871, Control_c, 4, 11, 69
10, 297008, Control_c, 4, 11, 70
10, 297144, Control_c, 4, 11, 71
10, 297281, Control_c, 4, 11, 72
10, 297418, Control_c, 4, 11, 73
10, 297554, Control_c, 4, 11, 74
10, 297599, Note_on_c, 4, 58, 0
10, 297599, Note_on_c, 4, 46, 0
10, 297600, Note_on_c, 4, 46, 84
10, 297600, Note_on_c, 4, 58, 84
10, 297691, Control_c, 4, 11, 75
10, 297828, Control_c, 4, 11, 76
10, 297965, Control_c, 4, 11, 77
10, 298101, Control_c, 4, 11, 78
10, 298238, Control_c, 4, 11, 79
10, 298375, Control_c, 4, 11, 80
10, 298511, Control_c, 4, 11, 81
10, 298559, Note_on_c, 4, 46, 0
10, 298559, Note_on_c, 4, 58, 0
10, 298648, Control_c, 4, 11, 82
10, 299468, Control_c, 4, 11, 88
10, 299520, Note_on_c, 4, 58, 84
10, 299520, Note_on_c, 4, 46, 84
10, 299605, Control_c, 4, 11, 89
10, 299742, Control_c, 4, 11, 90
10, 299878, Control_c, 4, 11, 91
10, 300015, Control_c, 4, 11, 92
10, 300152, Control_c, 4, 11, 93
10, 300289, Control_c, 4, 11, 94
10, 300425, Control_c, 4, 11, 95
10, 300449, Note_on_c, 4, 58, 0
10, 300449, Note_on_c, 4, 46, 0
10, 300480, Note_on_c, 4, 58, 84
10, 300480, Note_on_c, 4, 46, 84
10, 300562, Control_c, 4, 11, 96
10, 300699, Control_c, 4, 11, 97
10, 300835, Control_c, 4, 11, 98
10, 300972, Control_c, 4, 11, 99
10, 301109, Control_c, 4, 11, 100
10, 301169, Note_on_c, 4, 58, 0
10, 301169, Note_on_c, 4, 46, 0
10, 301200, Note_on_c, 4, 46, 84
10, 301200, Note_on_c, 4, 58, 84
10, 301246, Control_c, 4, 11, 101
10, 301382, Control_c, 4, 11, 102
10, 301519, Control_c, 4, 11, 103
10, 301656, Control_c, 4, 11, 104
10, 301792, Control_c, 4, 11, 105
10, 301929, Control_c, 4, 11, 106
10, 302066, Control_c, 4, 11, 107
10, 302203, Control_c, 4, 11, 108
10, 302339, Control_c, 4, 11, 109
10, 302369, Note_on_c, 4, 46, 0
10, 302369, Note_on_c, 4, 58, 0
10, 302400, Note_on_c, 4, 58, 84
10, 302400, Note_on_c, 4, 46, 84
10, 302476, Control_c, 4, 11, 110
10, 302609, Note_on_c, 4, 58, 0
10, 302609, Note_on_c, 4, 46, 0
10, 302613, Control_c, 4, 11, 111
10, 302640, Note_on_c, 4, 53, 84
10, 302640, Note_on_c, 4, 41, 84
10, 302749, Control_c, 4, 11, 112
10, 302886, Control_c, 4, 11, 113
10, 303023, Control_c, 4, 11, 114
10, 303089, Note_on_c, 4, 53, 0
10, 303089, Note_on_c, 4, 41, 0
10, 303120, Note_on_c, 4, 53, 84
10, 303120, Note_on_c, 4, 41, 84
10, 303159, Control_c, 4, 11, 115
10, 303296, Control_c, 4, 11, 116
10, 303329, Note_on_c, 4, 53, 0
10, 303329, Note_on_c, 4, 41, 0
10, 303360, Note_on_c, 4, 41, 84
10, 303360, Note_on_c, 4, 53, 84
10, 303433, Control_c, 4, 11, 117
10, 303570, Control_c, 4, 11, 118
10, 303706, Control_c, 4, 11, 119
10, 303809, Note_on_c, 4, 41, 0
10, 303809, Note_on_c, 4, 53, 0
10, 303840, Note_on_c, 4, 41, 84
10, 303840, Note_on_c, 4, 53, 84
10, 303843, Control_c, 4, 11, 120
10, 303980, Control_c, 4, 11, 121
10, 304049, Note_on_c, 4, 41, 0
10, 304049, Note_on_c, 4, 53, 0
10, 304080, Note_on_c, 4, 53, 84
10, 304080, Note_on_c, 4, 46, 84
10, 304116, Control_c, 4, 11, 122
10, 304253, Control_c, 4, 11, 123
10, 304319, Note_on_c, 4, 53, 0
10, 304319, Note_on_c, 4, 46, 0
10, 304390, Control_c, 4, 11, 124
10, 304527, Control_c, 4, 11, 125
10, 304663, Control_c, 4, 11, 127
10, 305280, Note_on_c, 4, 46, 84
10, 305280, Note_on_c, 4, 58, 84
10, 305489, Note_on_c, 4, 46, 0
10, 305489, Note_on_c, 4, 58, 0
10, 305520, Note_on_c, 4, 58, 84
10, 305520, Note_on_c, 4, 46, 84
10, 305969, Note_on_c, 4, 58, 0
10, 305969, Note_on_c, 4, 46, 0
10, 306000, Note_on_c, 4, 58, 84
10, 306000, Note_on_c, 4, 46, 84
10, 306209, Note_on_c, 4, 58, 0
10, 306209, Note_on_c, 4, 46, 0
10, 306240, Note_on_c, 4, 58, 84
10, 306240, Note_on_c, 4, 46, 84
10, 306689, Note_on_c, 4, 58, 0
10, 306689, Note_on_c, 4, 46, 0
10, 306720, Note_on_c, 4, 58, 84
10, 306720, Note_on_c, 4, 46, 84
10, 306929, Note_on_c, 4, 58, 0
10, 306929, Note_on_c, 4, 46, 0
10, 306960, Note_on_c, 4, 58, 92
10, 306960, Note_on_c, 4, 46, 92
10, 308129, Note_on_c, 4, 58, 0
10, 308129, Note_on_c, 4, 46, 0
10, 308160, Note_on_c, 4, 58, 84
10, 308160, Note_on_c, 4, 46, 84
10, 308399, Note_on_c, 4, 58, 0
10, 308399, Note_on_c, 4, 46, 0
10, 308400, Note_on_c, 4, 60, 84
10, 308400, Note_on_c, 4, 53, 84
10, 308639, Note_on_c, 4, 60, 0
10, 308639, Note_on_c, 4, 53, 0
10, 308880, Note_on_c, 4, 60, 84
10, 308880, Note_on_c, 4, 53, 84
10, 309089, Note_on_c, 4, 60, 0
10, 309089, Note_on_c, 4, 53, 0
10, 309120, Note_on_c, 4, 60, 84
10, 309120, Note_on_c, 4, 53, 84
10, 309569, Note_on_c, 4, 60, 0
10, 309569, Note_on_c, 4, 53, 0
10, 309600, Note_on_c, 4, 53, 84
10, 309600, Note_on_c, 4, 60, 84
10, 309809, Note_on_c, 4, 53, 0
10, 309809, Note_on_c, 4, 60, 0
10, 309840, Note_on_c, 4, 62, 84
10, 309840, Note_on_c, 4, 58, 84
10, 310079, Note_on_c, 4, 62, 0
10, 310079, Note_on_c, 4, 58, 0
10, 311040, Note_on_c, 4, 58, 84
10, 311040, Note_on_c, 4, 62, 84
10, 311279, Note_on_c, 4, 58, 0
10, 311279, Note_on_c, 4, 62, 0
10, 311280, Note_on_c, 4, 60, 84
10, 311280, Note_on_c, 4, 53, 84
10, 311519, Note_on_c, 4, 60, 0
10, 311519, Note_on_c, 4, 53, 0
10, 312480, Note_on_c, 4, 60, 84
10, 312480, Note_on_c, 4, 53, 84
10, 312719, Note_on_c, 4, 60, 0
10, 312719, Note_on_c, 4, 53, 0
10, 312720, Note_on_c, 4, 62, 84
10, 312720, Note_on_c, 4, 58, 84
10, 312959, Note_on_c, 4, 62, 0
10, 312959, Note_on_c, 4, 58, 0
10, 313920, Note_on_c, 4, 62, 72
10, 313920, Note_on_c, 4, 58, 72
10, 314159, Note_on_c, 4, 62, 0
10, 314159, Note_on_c, 4, 58, 0
10, 314160, Note_on_c, 4, 60, 68
10, 314160, Note_on_c, 4, 53, 68
10, 314399, Note_on_c, 4, 60, 0
10, 314399, Note_on_c, 4, 53, 0
10, 315360, Note_on_c, 4, 60, 48
10, 315360, Note_on_c, 4, 53, 48
10, 315599, Note_on_c, 4, 60, 0
10, 315599, Note_on_c, 4, 53, 0
10, 315600, Note_on_c, 4, 50, 44
10, 315600, Note_on_c, 4, 58, 44
10, 315839, Note_on_c, 4, 50, 0
10, 315839, Note_on_c, 4, 58, 0
10, 316320, Note_on_c, 4, 50, 44
10, 316320, Note_on_c, 4, 58, 44
10, 316559, Note_on_c, 4, 50, 0
10, 316559, Note_on_c, 4, 58, 0
10, 317040, Note_on_c, 4, 58, 44
10, 317040, Note_on_c, 4, 50, 44
10, 317279, Note_on_c, 4, 58, 0
10, 317279, Note_on_c, 4, 50, 0
10, 317760, Note_on_c, 4, 58, 44
10, 317760, Note_on_c, 4, 50, 44
10, 317999, Note_on_c, 4, 58, 0
10, 317999, Note_on_c, 4, 50, 0
10, 318480, Note_on_c, 4, 50, 44
10, 318480, Note_on_c, 4, 58, 44
10, 318719, Note_on_c, 4, 50, 0
10, 318719, Note_on_c, 4, 58, 0
10, 321120, Note_on_c, 4, 53, 76
10, 321120, Note_on_c, 4, 60, 76
10, 321359, Note_on_c, 4, 53, 0
10, 321359, Note_on_c, 4, 60, 0
10, 321360, Note_on_c, 4, 58, 84
10, 321360, Note_on_c, 4, 50, 84
10, 321479, Note_on_c, 4, 58, 0
10, 321479, Note_on_c, 4, 50, 0
10, 321600, Note_on_c, 4, 58, 84
10, 321600, Note_on_c, 4, 50, 84
10, 322049, Note_on_c, 4, 58, 0
10, 322049, Note_on_c, 4, 50, 0
10, 322080, Note_on_c, 4, 58, 84
10, 322080, Note_on_c, 4, 50, 84
10, 322529, Note_on_c, 4, 58, 0
10, 322529, Note_on_c, 4, 50, 0
10, 322560, Note_on_c, 4, 58, 84
10, 322560, Note_on_c, 4, 50, 84
10, 322769, Note_on_c, 4, 58, 0
10, 322769, Note_on_c, 4, 50, 0
10, 322800, Note_on_c, 4, 60, 84
10, 322800, Note_on_c, 4, 53, 84
10, 323249, Note_on_c, 4, 60, 0
10, 323249, Note_on_c, 4, 53, 0
10, 323280, Note_on_c, 4, 60, 84
10, 323280, Note_on_c, 4, 53, 84
10, 323489, Note_on_c, 4, 60, 0
10, 323489, Note_on_c, 4, 53, 0
10, 323520, Note_on_c, 4, 60, 84
10, 323520, Note_on_c, 4, 53, 84
10, 323759, Note_on_c, 4, 60, 0
10, 323759, Note_on_c, 4, 53, 0
10, 331200, Control_c, 4, 11, 96
10, 331440, Note_on_c, 4, 41, 68
10, 332879, Note_on_c, 4, 41, 0
10, 332880, Note_on_c, 4, 41, 68
10, 332880, Control_c, 4, 11, 96
10, 332933, Control_c, 4, 11, 98
10, 332987, Control_c, 4, 11, 99
10, 333040, Control_c, 4, 11, 101
10, 333093, Control_c, 4, 11, 103
10, 333147, Control_c, 4, 11, 105
10, 333200, Control_c, 4, 11, 106
10, 333253, Control_c, 4, 11, 108
10, 333307, Control_c, 4, 11, 110
10, 333360, Control_c, 4, 11, 112
10, 333413, Control_c, 4, 11, 113
10, 333467, Control_c, 4, 11, 115
10, 333520, Control_c, 4, 11, 117
10, 333573, Control_c, 4, 11, 118
10, 333627, Control_c, 4, 11, 120
10, 333680, Control_c, 4, 11, 122
10, 333733, Control_c, 4, 11, 124
10, 333787, Control_c, 4, 11, 127
10, 334049, Note_on_c, 4, 41, 0
10, 334080, Note_on_c, 4, 41, 76
10, 334289, Note_on_c, 4, 41, 0
10, 334318, Control_c, 4, 11, 96
10, 334320, Note_on_c, 4, 41, 68
10, 335759, Note_on_c, 4, 41, 0
10, 335760, Note_on_c, 4, 41, 68
10, 335760, Control_c, 4, 11, 96
10, 335813, Control_c, 4, 11, 98
10, 335867, Control_c, 4, 11, 99
10, 335920, Control_c, 4, 11, 101
10, 335973, Control_c, 4, 11, 103
10, 336027, Control_c, 4, 11, 105
10, 336080, Control_c, 4, 11, 106
10, 336133, Control_c, 4, 11, 108
10, 336187, Control_c, 4, 11, 110
10, 336240, Control_c, 4, 11, 112
10, 336293, Control_c, 4, 11, 113
10, 336347, Control_c, 4, 11, 115
10, 336400, Control_c, 4, 11, 117
10, 336453, Control_c, 4, 11, 118
10, 336507, Control_c, 4, 11, 120
10, 336560, Control_c, 4, 11, 122
10, 336613, Control_c, 4, 11, 124
10, 336667, Control_c, 4, 11, 127
10, 336929, Note_on_c, 4, 41, 0
10, 336960, Note_on_c, 4, 41, 76
10, 337169, Note_on_c, 4, 41, 0
10, 337200, Note_on_c, 4, 41, 68
10, 337409, Note_on_c, 4, 41, 0
10, 337440, Note_on_c, 4, 65, 76
10, 337440, Note_on_c, 4, 53, 76
10, 337889, Note_on_c, 4, 65, 0
10, 337889, Note_on_c, 4, 53, 0
10, 337920, Note_on_c, 4, 58, 76
10, 337920, Note_on_c, 4, 46, 76
10, 338369, Note_on_c, 4, 58, 0
10, 338369, Note_on_c, 4, 46, 0
10, 338400, Note_on_c, 4, 58, 76
10, 338400, Note_on_c, 4, 46, 76
10, 338639, Note_on_c, 4, 58, 0
10, 338639, Note_on_c, 4, 46, 0
10, 338640, Note_on_c, 4, 65, 84
10, 338640, Note_on_c, 4, 53, 84
10, 339329, Note_on_c, 4, 65, 0
10, 339329, Note_on_c, 4, 53, 0
10, 339360, Note_on_c, 4, 65, 84
10, 339360, Note_on_c, 4, 53, 84
10, 340049, Note_on_c, 4, 65, 0
10, 340049, Note_on_c, 4, 53, 0
10, 340080, Note_on_c, 4, 58, 84
10, 340080, Note_on_c, 4, 50, 84
10, 341489, Note_on_c, 4, 58, 0
10, 341489, Note_on_c, 4, 50, 0
10, 341520, Note_on_c, 4, 60, 84
10, 341520, Note_on_c, 4, 53, 84
10, 342929, Note_on_c, 4, 60, 0
10, 342929, Note_on_c, 4, 53, 0
10, 342960, Note_on_c, 4, 58, 84
10, 342960, Note_on_c, 4, 50, 84
10, 344369, Note_on_c, 4, 58, 0
10, 344369, Note_on_c, 4, 50, 0
10, 344400, Note_on_c, 4, 60, 84
10, 344400, Note_on_c, 4, 53, 84
10, 345809, Note_on_c, 4, 60, 0
10, 345809, Note_on_c, 4, 53, 0
10, 345840, Note_on_c, 4, 58, 76
10, 345840, Note_on_c, 4, 50, 76
10, 346529, Note_on_c, 4, 58, 0
10, 346529, Note_on_c, 4, 50, 0
10, 346560, Note_on_c, 4, 62, 76
10, 346560, Note_on_c, 4, 50, 76
10, 347249, Note_on_c, 4, 62, 0
10, 347249, Note_on_c, 4, 50, 0
10, 347280, Note_on_c, 4, 65, 76
10, 347280, Note_on_c, 4, 50, 76
10, 347489, Note_on_c, 4, 65, 0
10, 347489, Note_on_c, 4, 50, 0
10, 347520, Note_on_c, 4, 65, 76
10, 347520, Note_on_c, 4, 50, 76
10, 347729, Note_on_c, 4, 65, 0
10, 347729, Note_on_c, 4, 50, 0
10, 347760, Note_on_c, 4, 65, 76
10, 347760, Note_on_c, 4, 50, 76
10, 347969, Note_on_c, 4, 65, 0
10, 347969, Note_on_c, 4, 50, 0
10, 348000, Note_on_c, 4, 58, 76
10, 348000, Note_on_c, 4, 50, 76
10, 348209, Note_on_c, 4, 58, 0
10, 348209, Note_on_c, 4, 50, 0
10, 348238, Control_c, 4, 11, 64
10, 348240, Note_on_c, 4, 58, 84
10, 348240, Note_on_c, 4, 50, 84
10, 348449, Note_on_c, 4, 58, 0
10, 348449, Note_on_c, 4, 50, 0
10, 348480, Note_on_c, 4, 58, 84
10, 348480, Note_on_c, 4, 50, 84
10, 348689, Note_on_c, 4, 58, 0
10, 348689, Note_on_c, 4, 50, 0
10, 348720, Note_on_c, 4, 58, 84
10, 348720, Note_on_c, 4, 50, 84
10, 349409, Note_on_c, 4, 58, 0
10, 349409, Note_on_c, 4, 50, 0
10, 349440, Note_on_c, 4, 60, 84
10, 349440, Note_on_c, 4, 53, 84
10, 349440, Control_c, 4, 11, 64
10, 349500, Control_c, 4, 11, 69
10, 349560, Control_c, 4, 11, 75
10, 349620, Control_c, 4, 11, 80
10, 349680, Control_c, 4, 11, 85
10, 349740, Control_c, 4, 11, 90
10, 349800, Control_c, 4, 11, 96
10, 349860, Control_c, 4, 11, 101
10, 349920, Control_c, 4, 11, 106
10, 349980, Control_c, 4, 11, 111
10, 350040, Control_c, 4, 11, 117
10, 350100, Control_c, 4, 11, 127
10, 350129, Note_on_c, 4, 60, 0
10, 350129, Note_on_c, 4, 53, 0
10, 350160, Note_on_c, 4, 58, 84
10, 350160, Note_on_c, 4, 50, 84
10, 350399, Note_on_c, 4, 58, 0
10, 350399, Note_on_c, 4, 50, 0
10, 350399, End_track
11, 0, Start_track
11, 0, Title_t, "Trumpet in B-flat"
11, 0, MIDI_port, 0
11, 0, Program_c, 5, 56
11, 0, Control_c, 5, 7, 96
11, 0, Control_c, 5, 10, 60
11, 0, Control_c, 5, 11, 127
11, 240, Note_on_c, 5, 58, 84
11, 240, Note_on_c, 5, 70, 84
11, 449, Note_on_c, 5, 58, 0
11, 449, Note_on_c, 5, 70, 0
11, 480, Note_on_c, 5, 70, 84
11, 480, Note_on_c, 5, 58, 84
11, 719, Note_on_c, 5, 70, 0
11, 719, Note_on_c, 5, 58, 0
11, 960, Note_on_c, 5, 70, 84
11, 960, Note_on_c, 5, 58, 84
11, 1199, Note_on_c, 5, 70, 0
11, 1199, Note_on_c, 5, 58, 0
11, 1440, Note_on_c, 5, 58, 84
11, 1440, Note_on_c, 5, 70, 84
11, 1649, Note_on_c, 5, 58, 0
11, 1649, Note_on_c, 5, 70, 0
11, 1680, Note_on_c, 5, 53, 84
11, 1680, Note_on_c, 5, 65, 84
11, 1919, Note_on_c, 5, 53, 0
11, 1919, Note_on_c, 5, 65, 0
11, 2160, Note_on_c, 5, 65, 84
11, 2160, Note_on_c, 5, 53, 84
11, 2369, Note_on_c, 5, 65, 0
11, 2369, Note_on_c, 5, 53, 0
11, 2400, Note_on_c, 5, 65, 84
11, 2400, Note_on_c, 5, 53, 84
11, 2639, Note_on_c, 5, 65, 0
11, 2639, Note_on_c, 5, 53, 0
11, 11520, Note_on_c, 5, 72, 76
11, 11699, Note_on_c, 5, 72, 0
11, 11760, Note_on_c, 5, 65, 84
11, 11760, Note_on_c, 5, 53, 84
11, 12449, Note_on_c, 5, 65, 0
11, 12449, Note_on_c, 5, 53, 0
11, 12480, Note_on_c, 5, 53, 84
11, 12480, Note_on_c, 5, 65, 84
11, 13169, Note_on_c, 5, 53, 0
11, 13169, Note_on_c, 5, 65, 0
11, 13200, Note_on_c, 5, 65, 84
11, 13200, Note_on_c, 5, 53, 84
11, 13409, Note_on_c, 5, 65, 0
11, 13409, Note_on_c, 5, 53, 0
11, 13440, Note_on_c, 5, 53, 84
11, 13440, Note_on_c, 5, 65, 84
11, 13649, Note_on_c, 5, 53, 0
11, 13649, Note_on_c, 5, 65, 0
11, 13680, Note_on_c, 5, 53, 84
11, 13680, Note_on_c, 5, 65, 84
11, 13889, Note_on_c, 5, 53, 0
11, 13889, Note_on_c, 5, 65, 0
11, 13920, Note_on_c, 5, 53, 84
11, 13920, Note_on_c, 5, 65, 84
11, 14159, Note_on_c, 5, 53, 0
11, 14159, Note_on_c, 5, 65, 0
11, 14640, Note_on_c, 5, 70, 84
11, 14640, Note_on_c, 5, 58, 84
11, 14849, Note_on_c, 5, 70, 0
11, 14849, Note_on_c, 5, 58, 0
11, 14880, Note_on_c, 5, 70, 84
11, 14880, Note_on_c, 5, 58, 84
11, 15119, Note_on_c, 5, 70, 0
11, 15119, Note_on_c, 5, 58, 0
11, 15360, Note_on_c, 5, 58, 84
11, 15360, Note_on_c, 5, 70, 84
11, 15599, Note_on_c, 5, 58, 0
11, 15599, Note_on_c, 5, 70, 0
11, 15840, Note_on_c, 5, 70, 84
11, 15840, Note_on_c, 5, 58, 84
11, 16049, Note_on_c, 5, 70, 0
11, 16049, Note_on_c, 5, 58, 0
11, 16080, Note_on_c, 5, 53, 84
11, 16080, Note_on_c, 5, 65, 84
11, 16319, Note_on_c, 5, 53, 0
11, 16319, Note_on_c, 5, 65, 0
11, 16560, Note_on_c, 5, 65, 84
11, 16560, Note_on_c, 5, 53, 84
11, 16769, Note_on_c, 5, 65, 0
11, 16769, Note_on_c, 5, 53, 0
11, 16800, Note_on_c, 5, 53, 84
11, 16800, Note_on_c, 5, 65, 84
11, 17039, Note_on_c, 5, 53, 0
11, 17039, Note_on_c, 5, 65, 0
11, 25920, Note_on_c, 5, 72, 76
11, 26099, Note_on_c, 5, 72, 0
11, 26160, Note_on_c, 5, 65, 84
11, 26160, Note_on_c, 5, 53, 84
11, 26849, Note_on_c, 5, 65, 0
11, 26849, Note_on_c, 5, 53, 0
11, 26880, Note_on_c, 5, 53, 84
11, 26880, Note_on_c, 5, 65, 84
11, 27569, Note_on_c, 5, 53, 0
11, 27569, Note_on_c, 5, 65, 0
11, 27600, Note_on_c, 5, 65, 84
11, 27600, Note_on_c, 5, 53, 84
11, 27809, Note_on_c, 5, 65, 0
11, 27809, Note_on_c, 5, 53, 0
11, 27840, Note_on_c, 5, 65, 84
11, 27840, Note_on_c, 5, 53, 84
11, 28049, Note_on_c, 5, 65, 0
11, 28049, Note_on_c, 5, 53, 0
11, 28080, Note_on_c, 5, 65, 84
11, 28080, Note_on_c, 5, 53, 84
11, 28289, Note_on_c, 5, 65, 0
11, 28289, Note_on_c, 5, 53, 0
11, 28320, Note_on_c, 5, 65, 84
11, 28320, Note_on_c, 5, 53, 84
11, 28559, Note_on_c, 5, 65, 0
11, 28559, Note_on_c, 5, 53, 0
11, 51840, Note_on_c, 5, 65, 76
11, 51840, Note_on_c, 5, 53, 76
11, 52079, Note_on_c, 5, 65, 0
11, 52079, Note_on_c, 5, 53, 0
11, 52080, Note_on_c, 5, 70, 84
11, 52080, Note_on_c, 5, 58, 84
11, 52289, Note_on_c, 5, 70, 0
11, 52289, Note_on_c, 5, 58, 0
11, 52320, Note_on_c, 5, 70, 84
11, 52320, Note_on_c, 5, 58, 84
11, 52559, Note_on_c, 5, 70, 0
11, 52559, Note_on_c, 5, 58, 0
11, 52800, Note_on_c, 5, 58, 84
11, 52800, Note_on_c, 5, 70, 84
11, 53039, Note_on_c, 5, 58, 0
11, 53039, Note_on_c, 5, 70, 0
11, 53280, Note_on_c, 5, 58, 84
11, 53280, Note_on_c, 5, 70, 84
11, 53489, Note_on_c, 5, 58, 0
11, 53489, Note_on_c, 5, 70, 0
11, 53520, Note_on_c, 5, 65, 84
11, 53520, Note_on_c, 5, 53, 84
11, 53969, Note_on_c, 5, 65, 0
11, 53969, Note_on_c, 5, 53, 0
11, 54000, Note_on_c, 5, 65, 84
11, 54000, Note_on_c, 5, 53, 84
11, 54179, Note_on_c, 5, 65, 0
11, 54179, Note_on_c, 5, 53, 0
11, 54240, Note_on_c, 5, 53, 84
11, 54240, Note_on_c, 5, 65, 84
11, 54479, Note_on_c, 5, 53, 0
11, 54479, Note_on_c, 5, 65, 0
11, 68160, Note_on_c, 5, 65, 76
11, 68609, Note_on_c, 5, 65, 0
11, 68640, Note_on_c, 5, 70, 76
11, 68640, Note_on_c, 5, 58, 76
11, 69089, Note_on_c, 5, 70, 0
11, 69089, Note_on_c, 5, 58, 0
11, 69120, Note_on_c, 5, 58, 76
11, 69120, Note_on_c, 5, 70, 76
11, 69329, Note_on_c, 5, 58, 0
11, 69329, Note_on_c, 5, 70, 0
11, 69360, Note_on_c, 5, 53, 84
11, 69360, Note_on_c, 5, 65, 84
11, 70049, Note_on_c, 5, 53, 0
11, 70049, Note_on_c, 5, 65, 0
11, 70080, Note_on_c, 5, 53, 84
11, 70080, Note_on_c, 5, 65, 84
11, 70769, Note_on_c, 5, 53, 0
11, 70769, Note_on_c, 5, 65, 0
11, 70800, Note_on_c, 5, 70, 84
11, 70800, Note_on_c, 5, 58, 84
11, 72209, Note_on_c, 5, 70, 0
11, 72209, Note_on_c, 5, 58, 0
11, 72240, Note_on_c, 5, 65, 84
11, 72240, Note_on_c, 5, 53, 84
11, 73409, Note_on_c, 5, 65, 0
11, 73409, Note_on_c, 5, 53, 0
11, 73440, Note_on_c, 5, 53, 84
11, 73440, Note_on_c, 5, 65, 84
11, 73649, Note_on_c, 5, 53, 0
11, 73649, Note_on_c, 5, 65, 0
11, 73680, Note_on_c, 5, 70, 84
11, 73680, Note_on_c, 5, 58, 84
11, 75089, Note_on_c, 5, 70, 0
11, 75089, Note_on_c, 5, 58, 0
11, 75120, Note_on_c, 5, 53, 84
11, 75120, Note_on_c, 5, 65, 84
11, 76289, Note_on_c, 5, 53, 0
11, 76289, Note_on_c, 5, 65, 0
11, 76320, Note_on_c, 5, 53, 84
11, 76320, Note_on_c, 5, 65, 84
11, 76529, Note_on_c, 5, 53, 0
11, 76529, Note_on_c, 5, 65, 0
11, 76560, Note_on_c, 5, 58, 76
11, 76560, Note_on_c, 5, 70, 76
11, 77249, Note_on_c, 5, 58, 0
11, 77249, Note_on_c, 5, 70, 0
11, 77280, Note_on_c, 5, 58, 76
11, 77280, Note_on_c, 5, 70, 76
11, 77969, Note_on_c, 5, 58, 0
11, 77969, Note_on_c, 5, 70, 0
11, 78000, Note_on_c, 5, 70, 76
11, 78000, Note_on_c, 5, 58, 76
11, 78209, Note_on_c, 5, 70, 0
11, 78209, Note_on_c, 5, 58, 0
11, 78240, Note_on_c, 5, 58, 76
11, 78240, Note_on_c, 5, 70, 76
11, 78449, Note_on_c, 5, 58, 0
11, 78449, Note_on_c, 5, 70, 0
11, 78480, Note_on_c, 5, 58, 76
11, 78480, Note_on_c, 5, 70, 76
11, 78689, Note_on_c, 5, 58, 0
11, 78689, Note_on_c, 5, 70, 0
11, 78720, Note_on_c, 5, 58, 76
11, 78720, Note_on_c, 5, 70, 76
11, 78959, Note_on_c, 5, 58, 0
11, 78959, Note_on_c, 5, 70, 0
11, 102240, Note_on_c, 5, 65, 76
11, 102240, Note_on_c, 5, 53, 76
11, 102479, Note_on_c, 5, 65, 0
11, 102479, Note_on_c, 5, 53, 0
11, 102480, Note_on_c, 5, 58, 84
11, 102480, Note_on_c, 5, 70, 84
11, 102689, Note_on_c, 5, 58, 0
11, 102689, Note_on_c, 5, 70, 0
11, 102720, Note_on_c, 5, 58, 84
11, 102720, Note_on_c, 5, 70, 84
11, 102959, Note_on_c, 5, 58, 0
11, 102959, Note_on_c, 5, 70, 0
11, 103200, Note_on_c, 5, 58, 84
11, 103200, Note_on_c, 5, 70, 84
11, 103439, Note_on_c, 5, 58, 0
11, 103439, Note_on_c, 5, 70, 0
11, 103680, Note_on_c, 5, 70, 84
11, 103680, Note_on_c, 5, 58, 84
11, 103889, Note_on_c, 5, 70, 0
11, 103889, Note_on_c, 5, 58, 0
11, 103920, Note_on_c, 5, 53, 84
11, 103920, Note_on_c, 5, 65, 84
11, 104369, Note_on_c, 5, 53, 0
11, 104369, Note_on_c, 5, 65, 0
11, 104400, Note_on_c, 5, 65, 84
11, 104400, Note_on_c, 5, 53, 84
11, 104579, Note_on_c, 5, 65, 0
11, 104579, Note_on_c, 5, 53, 0
11, 104640, Note_on_c, 5, 65, 84
11, 104640, Note_on_c, 5, 53, 84
11, 104879, Note_on_c, 5, 65, 0
11, 104879, Note_on_c, 5, 53, 0
11, 118560, Note_on_c, 5, 65, 76
11, 119009, Note_on_c, 5, 65, 0
11, 119040, Note_on_c, 5, 70, 76
11, 119040, Note_on_c, 5, 58, 76
11, 119489, Note_on_c, 5, 70, 0
11, 119489, Note_on_c, 5, 58, 0
11, 119520, Note_on_c, 5, 58, 76
11, 119520, Note_on_c, 5, 70, 76
11, 119729, Note_on_c, 5, 58, 0
11, 119729, Note_on_c, 5, 70, 0
11, 119760, Note_on_c, 5, 53, 84
11, 119760, Note_on_c, 5, 65, 84
11, 120449, Note_on_c, 5, 53, 0
11, 120449, Note_on_c, 5, 65, 0
11, 120480, Note_on_c, 5, 53, 84
11, 120480, Note_on_c, 5, 65, 84
11, 121169, Note_on_c, 5, 53, 0
11, 121169, Note_on_c, 5, 65, 0
11, 121200, Note_on_c, 5, 58, 84
11, 121200, Note_on_c, 5, 70, 84
11, 122609, Note_on_c, 5, 58, 0
11, 122609, Note_on_c, 5, 70, 0
11, 122640, Note_on_c, 5, 53, 84
11, 122640, Note_on_c, 5, 65, 84
11, 123809, Note_on_c, 5, 53, 0
11, 123809, Note_on_c, 5, 65, 0
11, 123840, Note_on_c, 5, 65, 84
11, 123840, Note_on_c, 5, 53, 84
11, 124049, Note_on_c, 5, 65, 0
11, 124049, Note_on_c, 5, 53, 0
11, 124080, Note_on_c, 5, 70, 84
11, 124080, Note_on_c, 5, 58, 84
11, 125489, Note_on_c, 5, 70, 0
11, 125489, Note_on_c, 5, 58, 0
11, 125520, Note_on_c, 5, 53, 84
11, 125520, Note_on_c, 5, 65, 84
11, 126689, Note_on_c, 5, 53, 0
11, 126689, Note_on_c, 5, 65, 0
11, 126720, Note_on_c, 5, 53, 84
11, 126720, Note_on_c, 5, 65, 84
11, 126929, Note_on_c, 5, 53, 0
11, 126929, Note_on_c, 5, 65, 0
11, 126960, Note_on_c, 5, 58, 76
11, 126960, Note_on_c, 5, 70, 76
11, 127649, Note_on_c, 5, 58, 0
11, 127649, Note_on_c, 5, 70, 0
11, 127680, Note_on_c, 5, 70, 76
11, 127680, Note_on_c, 5, 58, 76
11, 128369, Note_on_c, 5, 70, 0
11, 128369, Note_on_c, 5, 58, 0
11, 128400, Note_on_c, 5, 70, 76
11, 128400, Note_on_c, 5, 58, 76
11, 128609, Note_on_c, 5, 70, 0
11, 128609, Note_on_c, 5, 58, 0
11, 128640, Note_on_c, 5, 58, 76
11, 128640, Note_on_c, 5, 70, 76
11, 128849, Note_on_c, 5, 58, 0
11, 128849, Note_on_c, 5, 70, 0
11, 128880, Note_on_c, 5, 70, 76
11, 128880, Note_on_c, 5, 58, 76
11, 129089, Note_on_c, 5, 70, 0
11, 129089, Note_on_c, 5, 58, 0
11, 129120, Note_on_c, 5, 70, 76
11, 129120, Note_on_c, 5, 58, 76
11, 129359, Note_on_c, 5, 70, 0
11, 129359, Note_on_c, 5, 58, 0
11, 177120, Note_on_c, 5, 58, 84
11, 177120, Note_on_c, 5, 70, 84
11, 177329, Note_on_c, 5, 58, 0
11, 177329, Note_on_c, 5, 70, 0
11, 177360, Note_on_c, 5, 70, 84
11, 177360, Note_on_c, 5, 58, 84
11, 177809, Note_on_c, 5, 70, 0
11, 177809, Note_on_c, 5, 58, 0
11, 177840, Note_on_c, 5, 70, 84
11, 177840, Note_on_c, 5, 58, 84
11, 178049, Note_on_c, 5, 70, 0
11, 178049, Note_on_c, 5, 58, 0
11, 178080, Note_on_c, 5, 70, 84
11, 178080, Note_on_c, 5, 58, 84
11, 178529, Note_on_c, 5, 70, 0
11, 178529, Note_on_c, 5, 58, 0
11, 178560, Note_on_c, 5, 58, 84
11, 178560, Note_on_c, 5, 70, 84
11, 178769, Note_on_c, 5, 58, 0
11, 178769, Note_on_c, 5, 70, 0
11, 178800, Note_on_c, 5, 58, 92
11, 178800, Note_on_c, 5, 70, 92
11, 179969, Note_on_c, 5, 58, 0
11, 179969, Note_on_c, 5, 70, 0
11, 180000, Note_on_c, 5, 58, 84
11, 180000, Note_on_c, 5, 70, 84
11, 180209, Note_on_c, 5, 58, 0
11, 180209, Note_on_c, 5, 70, 0
11, 180240, Note_on_c, 5, 65, 84
11, 180240, Note_on_c, 5, 53, 84
11, 180479, Note_on_c, 5, 65, 0
11, 180479, Note_on_c, 5, 53, 0
11, 180720, Note_on_c, 5, 65, 84
11, 180720, Note_on_c, 5, 53, 84
11, 180929, Note_on_c, 5, 65, 0
11, 180929, Note_on_c, 5, 53, 0
11, 180960, Note_on_c, 5, 53, 84
11, 180960, Note_on_c, 5, 65, 84
11, 181409, Note_on_c, 5, 53, 0
11, 181409, Note_on_c, 5, 65, 0
11, 181440, Note_on_c, 5, 53, 84
11, 181440, Note_on_c, 5, 65, 84
11, 181649, Note_on_c, 5, 53, 0
11, 181649, Note_on_c, 5, 65, 0
11, 181680, Note_on_c, 5, 65, 84
11, 181680, Note_on_c, 5, 53, 84
11, 181919, Note_on_c, 5, 65, 0
11, 181919, Note_on_c, 5, 53, 0
11, 182880, Note_on_c, 5, 65, 84
11, 182880, Note_on_c, 5, 53, 84
11, 183089, Note_on_c, 5, 65, 0
11, 183089, Note_on_c, 5, 53, 0
11, 183120, Note_on_c, 5, 53, 84
11, 183120, Note_on_c, 5, 65, 84
11, 183359, Note_on_c, 5, 53, 0
11, 183359, Note_on_c, 5, 65, 0
11, 184320, Note_on_c, 5, 53, 84
11, 184320, Note_on_c, 5, 65, 84
11, 184529, Note_on_c, 5, 53, 0
11, 184529, Note_on_c, 5, 65, 0
11, 184560, Note_on_c, 5, 65, 84
11, 184560, Note_on_c, 5, 53, 84
11, 184799, Note_on_c, 5, 65, 0
11, 184799, Note_on_c, 5, 53, 0
11, 185760, Note_on_c, 5, 65, 72
11, 185760, Note_on_c, 5, 53, 72
11, 185969, Note_on_c, 5, 65, 0
11, 185969, Note_on_c, 5, 53, 0
11, 186000, Note_on_c, 5, 65, 68
11, 186000, Note_on_c, 5, 53, 68
11, 186239, Note_on_c, 5, 65, 0
11, 186239, Note_on_c, 5, 53, 0
11, 187200, Note_on_c, 5, 65, 48
11, 187200, Note_on_c, 5, 53, 48
11, 187409, Note_on_c, 5, 65, 0
11, 187409, Note_on_c, 5, 53, 0
11, 187440, Note_on_c, 5, 53, 44
11, 187440, Note_on_c, 5, 65, 44
11, 187679, Note_on_c, 5, 53, 0
11, 187679, Note_on_c, 5, 65, 0
11, 188160, Note_on_c, 5, 65, 44
11, 188160, Note_on_c, 5, 53, 44
11, 188399, Note_on_c, 5, 65, 0
11, 188399, Note_on_c, 5, 53, 0
11, 188880, Note_on_c, 5, 53, 44
11, 188880, Note_on_c, 5, 65, 44
11, 189119, Note_on_c, 5, 53, 0
11, 189119, Note_on_c, 5, 65, 0
11, 189600, Note_on_c, 5, 53, 44
11, 189600, Note_on_c, 5, 65, 44
11, 189839, Note_on_c, 5, 53, 0
11, 189839, Note_on_c, 5, 65, 0
11, 190320, Note_on_c, 5, 53, 44
11, 190320, Note_on_c, 5, 65, 44
11, 190559, Note_on_c, 5, 53, 0
11, 190559, Note_on_c, 5, 65, 0
11, 192960, Note_on_c, 5, 53, 76
11, 192960, Note_on_c, 5, 65, 76
11, 193199, Note_on_c, 5, 53, 0
11, 193199, Note_on_c, 5, 65, 0
11, 193200, Note_on_c, 5, 70, 84
11, 193200, Note_on_c, 5, 58, 84
11, 193409, Note_on_c, 5, 70, 0
11, 193409, Note_on_c, 5, 58, 0
11, 193440, Note_on_c, 5, 70, 84
11, 193440, Note_on_c, 5, 58, 84
11, 193679, Note_on_c, 5, 70, 0
11, 193679, Note_on_c, 5, 58, 0
11, 193920, Note_on_c, 5, 70, 84
11, 193920, Note_on_c, 5, 58, 84
11, 194159, Note_on_c, 5, 70, 0
11, 194159, Note_on_c, 5, 58, 0
11, 194400, Note_on_c, 5, 70, 84
11, 194400, Note_on_c, 5, 58, 84
11, 194609, Note_on_c, 5, 70, 0
11, 194609, Note_on_c, 5, 58, 0
11, 194640, Note_on_c, 5, 53, 84
11, 194640, Note_on_c, 5, 65, 84
11, 194879, Note_on_c, 5, 53, 0
11, 194879, Note_on_c, 5, 65, 0
11, 195120, Note_on_c, 5, 53, 84
11, 195120, Note_on_c, 5, 65, 84
11, 195329, Note_on_c, 5, 53, 0
11, 195329, Note_on_c, 5, 65, 0
11, 195360, Note_on_c, 5, 53, 84
11, 195360, Note_on_c, 5, 65, 84
11, 195599, Note_on_c, 5, 53, 0
11, 195599, Note_on_c, 5, 65, 0
11, 204480, Note_on_c, 5, 72, 76
11, 204659, Note_on_c, 5, 72, 0
11, 204720, Note_on_c, 5, 65, 84
11, 204720, Note_on_c, 5, 53, 84
11, 205409, Note_on_c, 5, 65, 0
11, 205409, Note_on_c, 5, 53, 0
11, 205440, Note_on_c, 5, 53, 84
11, 205440, Note_on_c, 5, 65, 84
11, 206129, Note_on_c, 5, 53, 0
11, 206129, Note_on_c, 5, 65, 0
11, 206160, Note_on_c, 5, 53, 84
11, 206160, Note_on_c, 5, 65, 84
11, 206369, Note_on_c, 5, 53, 0
11, 206369, Note_on_c, 5, 65, 0
11, 206400, Note_on_c, 5, 53, 84
11, 206400, Note_on_c, 5, 65, 84
11, 206609, Note_on_c, 5, 53, 0
11, 206609, Note_on_c, 5, 65, 0
11, 206640, Note_on_c, 5, 65, 84
11, 206640, Note_on_c, 5, 53, 84
11, 206849, Note_on_c, 5, 65, 0
11, 206849, Note_on_c, 5, 53, 0
11, 206880, Note_on_c, 5, 53, 84
11, 206880, Note_on_c, 5, 65, 84
11, 207119, Note_on_c, 5, 53, 0
11, 207119, Note_on_c, 5, 65, 0
11, 230400, Note_on_c, 5, 65, 76
11, 230400, Note_on_c, 5, 53, 76
11, 230609, Note_on_c, 5, 65, 0
11, 230609, Note_on_c, 5, 53, 0
11, 230640, Note_on_c, 5, 70, 84
11, 230640, Note_on_c, 5, 58, 84
11, 230849, Note_on_c, 5, 70, 0
11, 230849, Note_on_c, 5, 58, 0
11, 230880, Note_on_c, 5, 70, 84
11, 230880, Note_on_c, 5, 58, 84
11, 231119, Note_on_c, 5, 70, 0
11, 231119, Note_on_c, 5, 58, 0
11, 231360, Note_on_c, 5, 58, 84
11, 231360, Note_on_c, 5, 70, 84
11, 231599, Note_on_c, 5, 58, 0
11, 231599, Note_on_c, 5, 70, 0
11, 231840, Note_on_c, 5, 70, 84
11, 231840, Note_on_c, 5, 58, 84
11, 232049, Note_on_c, 5, 70, 0
11, 232049, Note_on_c, 5, 58, 0
11, 232080, Note_on_c, 5, 65, 84
11, 232080, Note_on_c, 5, 53, 84
11, 232529, Note_on_c, 5, 65, 0
11, 232529, Note_on_c, 5, 53, 0
11, 232560, Note_on_c, 5, 65, 84
11, 232560, Note_on_c, 5, 53, 84
11, 232769, Note_on_c, 5, 65, 0
11, 232769, Note_on_c, 5, 53, 0
11, 232800, Note_on_c, 5, 53, 84
11, 232800, Note_on_c, 5, 65, 84
11, 233039, Note_on_c, 5, 53, 0
11, 233039, Note_on_c, 5, 65, 0
11, 246720, Note_on_c, 5, 65, 76
11, 247169, Note_on_c, 5, 65, 0
11, 247200, Note_on_c, 5, 58, 76
11, 247200, Note_on_c, 5, 70, 76
11, 247649, Note_on_c, 5, 58, 0
11, 247649, Note_on_c, 5, 70, 0
11, 247680, Note_on_c, 5, 58, 76
11, 247680, Note_on_c, 5, 70, 76
11, 247889, Note_on_c, 5, 58, 0
11, 247889, Note_on_c, 5, 70, 0
11, 247920, Note_on_c, 5, 65, 84
11, 247920, Note_on_c, 5, 53, 84
11, 248609, Note_on_c, 5, 65, 0
11, 248609, Note_on_c, 5, 53, 0
11, 248640, Note_on_c, 5, 65, 84
11, 248640, Note_on_c, 5, 53, 84
11, 249329, Note_on_c, 5, 65, 0
11, 249329, Note_on_c, 5, 53, 0
11, 249360, Note_on_c, 5, 58, 84
11, 249360, Note_on_c, 5, 70, 84
11, 250769, Note_on_c, 5, 58, 0
11, 250769, Note_on_c, 5, 70, 0
11, 250800, Note_on_c, 5, 53, 84
11, 250800, Note_on_c, 5, 65, 84
11, 251969, Note_on_c, 5, 53, 0
11, 251969, Note_on_c, 5, 65, 0
11, 252000, Note_on_c, 5, 53, 84
11, 252000, Note_on_c, 5, 65, 84
11, 252209, Note_on_c, 5, 53, 0
11, 252209, Note_on_c, 5, 65, 0
11, 252240, Note_on_c, 5, 70, 84
11, 252240, Note_on_c, 5, 58, 84
11, 253649, Note_on_c, 5, 70, 0
11, 253649, Note_on_c, 5, 58, 0
11, 253680, Note_on_c, 5, 65, 84
11, 253680, Note_on_c, 5, 53, 84
11, 254849, Note_on_c, 5, 65, 0
11, 254849, Note_on_c, 5, 53, 0
11, 254880, Note_on_c, 5, 65, 84
11, 254880, Note_on_c, 5, 53, 84
11, 255089, Note_on_c, 5, 65, 0
11, 255089, Note_on_c, 5, 53, 0
11, 255120, Note_on_c, 5, 70, 76
11, 255120, Note_on_c, 5, 58, 76
11, 255809, Note_on_c, 5, 70, 0
11, 255809, Note_on_c, 5, 58, 0
11, 255840, Note_on_c, 5, 70, 76
11, 255840, Note_on_c, 5, 58, 76
11, 256529, Note_on_c, 5, 70, 0
11, 256529, Note_on_c, 5, 58, 0
11, 256560, Note_on_c, 5, 70, 76
11, 256560, Note_on_c, 5, 58, 76
11, 256769, Note_on_c, 5, 70, 0
11, 256769, Note_on_c, 5, 58, 0
11, 256800, Note_on_c, 5, 58, 76
11, 256800, Note_on_c, 5, 70, 76
11, 257009, Note_on_c, 5, 58, 0
11, 257009, Note_on_c, 5, 70, 0
11, 257040, Note_on_c, 5, 70, 76
11, 257040, Note_on_c, 5, 58, 76
11, 257249, Note_on_c, 5, 70, 0
11, 257249, Note_on_c, 5, 58, 0
11, 257280, Note_on_c, 5, 70, 76
11, 257280, Note_on_c, 5, 58, 76
11, 257519, Note_on_c, 5, 70, 0
11, 257519, Note_on_c, 5, 58, 0
11, 305280, Note_on_c, 5, 58, 84
11, 305280, Note_on_c, 5, 70, 84
11, 305489, Note_on_c, 5, 58, 0
11, 305489, Note_on_c, 5, 70, 0
11, 305520, Note_on_c, 5, 58, 84
11, 305520, Note_on_c, 5, 70, 84
11, 305969, Note_on_c, 5, 58, 0
11, 305969, Note_on_c, 5, 70, 0
11, 306000, Note_on_c, 5, 58, 84
11, 306000, Note_on_c, 5, 70, 84
11, 306209, Note_on_c, 5, 58, 0
11, 306209, Note_on_c, 5, 70, 0
11, 306240, Note_on_c, 5, 58, 84
11, 306240, Note_on_c, 5, 70, 84
11, 306689, Note_on_c, 5, 58, 0
11, 306689, Note_on_c, 5, 70, 0
11, 306720, Note_on_c, 5, 58, 84
11, 306720, Note_on_c, 5, 70, 84
11, 306929, Note_on_c, 5, 58, 0
11, 306929, Note_on_c, 5, 70, 0
11, 306960, Note_on_c, 5, 70, 92
11, 306960, Note_on_c, 5, 58, 92
11, 308129, Note_on_c, 5, 70, 0
11, 308129, Note_on_c, 5, 58, 0
11, 308160, Note_on_c, 5, 70, 84
11, 308160, Note_on_c, 5, 58, 84
11, 308369, Note_on_c, 5, 70, 0
11, 308369, Note_on_c, 5, 58, 0
11, 308400, Note_on_c, 5, 65, 84
11, 308400, Note_on_c, 5, 53, 84
11, 308639, Note_on_c, 5, 65, 0
11, 308639, Note_on_c, 5, 53, 0
11, 308880, Note_on_c, 5, 65, 84
11, 308880, Note_on_c, 5, 53, 84
11, 309089, Note_on_c, 5, 65, 0
11, 309089, Note_on_c, 5, 53, 0
11, 309120, Note_on_c, 5, 53, 84
11, 309120, Note_on_c, 5, 65, 84
11, 309569, Note_on_c, 5, 53, 0
11, 309569, Note_on_c, 5, 65, 0
11, 309600, Note_on_c, 5, 65, 84
11, 309600, Note_on_c, 5, 53, 84
11, 309809, Note_on_c, 5, 65, 0
11, 309809, Note_on_c, 5, 53, 0
11, 309840, Note_on_c, 5, 53, 84
11, 309840, Note_on_c, 5, 65, 84
11, 310079, Note_on_c, 5, 53, 0
11, 310079, Note_on_c, 5, 65, 0
11, 311040, Note_on_c, 5, 53, 84
11, 311040, Note_on_c, 5, 65, 84
11, 311249, Note_on_c, 5, 53, 0
11, 311249, Note_on_c, 5, 65, 0
11, 311280, Note_on_c, 5, 65, 84
11, 311280, Note_on_c, 5, 53, 84
11, 311519, Note_on_c, 5, 65, 0
11, 311519, Note_on_c, 5, 53, 0
11, 312480, Note_on_c, 5, 65, 84
11, 312480, Note_on_c, 5, 53, 84
11, 312689, Note_on_c, 5, 65, 0
11, 312689, Note_on_c, 5, 53, 0
11, 312720, Note_on_c, 5, 65, 84
11, 312720, Note_on_c, 5, 53, 84
11, 312959, Note_on_c, 5, 65, 0
11, 312959, Note_on_c, 5, 53, 0
11, 313920, Note_on_c, 5, 65, 72
11, 313920, Note_on_c, 5, 53, 72
11, 314129, Note_on_c, 5, 65, 0
11, 314129, Note_on_c, 5, 53, 0
11, 314160, Note_on_c, 5, 53, 68
11, 314160, Note_on_c, 5, 65, 68
11, 314399, Note_on_c, 5, 53, 0
11, 314399, Note_on_c, 5, 65, 0
11, 315360, Note_on_c, 5, 53, 48
11, 315360, Note_on_c, 5, 65, 48
11, 315569, Note_on_c, 5, 53, 0
11, 315569, Note_on_c, 5, 65, 0
11, 315600, Note_on_c, 5, 53, 44
11, 315600, Note_on_c, 5, 65, 44
11, 315839, Note_on_c, 5, 53, 0
11, 315839, Note_on_c, 5, 65, 0
11, 316320, Note_on_c, 5, 53, 44
11, 316320, Note_on_c, 5, 65, 44
11, 316559, Note_on_c, 5, 53, 0
11, 316559, Note_on_c, 5, 65, 0
11, 317040, Note_on_c, 5, 65, 44
11, 317040, Note_on_c, 5, 53, 44
11, 317279, Note_on_c, 5, 65, 0
11, 317279, Note_on_c, 5, 53, 0
11, 317760, Note_on_c, 5, 53, 44
11, 317760, Note_on_c, 5, 65, 44
11, 317999, Note_on_c, 5, 53, 0
11, 317999, Note_on_c, 5, 65, 0
11, 318480, Note_on_c, 5, 53, 44
11, 318480, Note_on_c, 5, 65, 44
11, 318719, Note_on_c, 5, 53, 0
11, 318719, Note_on_c, 5, 65, 0
11, 321120, Note_on_c, 5, 65, 76
11, 321120, Note_on_c, 5, 53, 76
11, 321359, Note_on_c, 5, 65, 0
11, 321359, Note_on_c, 5, 53, 0
11, 321360, Note_on_c, 5, 70, 84
11, 321360, Note_on_c, 5, 58, 84
11, 321599, Note_on_c, 5, 70, 0
11, 321599, Note_on_c, 5, 58, 0
11, 321600, Note_on_c, 5, 70, 84
11, 321600, Note_on_c, 5, 58, 84
11, 321809, Note_on_c, 5, 70, 0
11, 321809, Note_on_c, 5, 58, 0
11, 322080, Note_on_c, 5, 70, 84
11, 322080, Note_on_c, 5, 58, 84
11, 322289, Note_on_c, 5, 70, 0
11, 322289, Note_on_c, 5, 58, 0
11, 322560, Note_on_c, 5, 70, 84
11, 322560, Note_on_c, 5, 58, 84
11, 322769, Note_on_c, 5, 70, 0
11, 322769, Note_on_c, 5, 58, 0
11, 322800, Note_on_c, 5, 65, 84
11, 322800, Note_on_c, 5, 53, 84
11, 323249, Note_on_c, 5, 65, 0
11, 323249, Note_on_c, 5, 53, 0
11, 323280, Note_on_c, 5, 65, 84
11, 323280, Note_on_c, 5, 53, 84
11, 323489, Note_on_c, 5, 65, 0
11, 323489, Note_on_c, 5, 53, 0
11, 323520, Note_on_c, 5, 65, 84
11, 323520, Note_on_c, 5, 53, 84
11, 323759, Note_on_c, 5, 65, 0
11, 323759, Note_on_c, 5, 53, 0
11, 337440, Note_on_c, 5, 65, 76
11, 337889, Note_on_c, 5, 65, 0
11, 337920, Note_on_c, 5, 70, 76
11, 337920, Note_on_c, 5, 58, 76
11, 338369, Note_on_c, 5, 70, 0
11, 338369, Note_on_c, 5, 58, 0
11, 338400, Note_on_c, 5, 70, 76
11, 338400, Note_on_c, 5, 58, 76
11, 338579, Note_on_c, 5, 70, 0
11, 338579, Note_on_c, 5, 58, 0
11, 338640, Note_on_c, 5, 65, 84
11, 338640, Note_on_c, 5, 53, 84
11, 339329, Note_on_c, 5, 65, 0
11, 339329, Note_on_c, 5, 53, 0
11, 339360, Note_on_c, 5, 65, 84
11, 339360, Note_on_c, 5, 53, 84
11, 340049, Note_on_c, 5, 65, 0
11, 340049, Note_on_c, 5, 53, 0
11, 340080, Note_on_c, 5, 70, 84
11, 340080, Note_on_c, 5, 58, 84
11, 341489, Note_on_c, 5, 70, 0
11, 341489, Note_on_c, 5, 58, 0
11, 341520, Note_on_c, 5, 65, 84
11, 341520, Note_on_c, 5, 53, 84
11, 342689, Note_on_c, 5, 65, 0
11, 342689, Note_on_c, 5, 53, 0
11, 342720, Note_on_c, 5, 65, 84
11, 342720, Note_on_c, 5, 53, 84
11, 342929, Note_on_c, 5, 65, 0
11, 342929, Note_on_c, 5, 53, 0
11, 342960, Note_on_c, 5, 70, 84
11, 342960, Note_on_c, 5, 58, 84
11, 344369, Note_on_c, 5, 70, 0
11, 344369, Note_on_c, 5, 58, 0
11, 344400, Note_on_c, 5, 65, 84
11, 344400, Note_on_c, 5, 53, 84
11, 345569, Note_on_c, 5, 65, 0
11, 345569, Note_on_c, 5, 53, 0
11, 345600, Note_on_c, 5, 65, 84
11, 345600, Note_on_c, 5, 53, 84
11, 345809, Note_on_c, 5, 65, 0
11, 345809, Note_on_c, 5, 53, 0
11, 345840, Note_on_c, 5, 70, 76
11, 345840, Note_on_c, 5, 58, 76
11, 346529, Note_on_c, 5, 70, 0
11, 346529, Note_on_c, 5, 58, 0
11, 346560, Note_on_c, 5, 70, 76
11, 346560, Note_on_c, 5, 58, 76
11, 347249, Note_on_c, 5, 70, 0
11, 347249, Note_on_c, 5, 58, 0
11, 347280, Note_on_c, 5, 70, 76
11, 347280, Note_on_c, 5, 58, 76
11, 347489, Note_on_c, 5, 70, 0
11, 347489, Note_on_c, 5, 58, 0
11, 347520, Note_on_c, 5, 70, 76
11, 347520, Note_on_c, 5, 58, 76
11, 347729, Note_on_c, 5, 70, 0
11, 347729, Note_on_c, 5, 58, 0
11, 347760, Note_on_c, 5, 70, 76
11, 347760, Note_on_c, 5, 58, 76
11, 347969, Note_on_c, 5, 70, 0
11, 347969, Note_on_c, 5, 58, 0
11, 348000, Note_on_c, 5, 70, 76
11, 348000, Note_on_c, 5, 58, 76
11, 348239, Note_on_c, 5, 70, 0
11, 348239, Note_on_c, 5, 58, 0
11, 350160, Note_on_c, 5, 70, 84
11, 350160, Note_on_c, 5, 58, 84
11, 350399, Note_on_c, 5, 70, 0
11, 350399, Note_on_c, 5, 58, 0
11, 350399, End_track
12, 0, Start_track
12, 0, Title_t, "Timpani"
12, 0, MIDI_port, 0
12, 0, Program_c, 6, 47
12, 0, Control_c, 6, 7, 96
12, 0, Control_c, 6, 10, 25
12, 0, Control_c, 6, 11, 127
12, 240, Note_on_c, 6, 46, 84
12, 479, Note_on_c, 6, 46, 0
12, 480, Note_on_c, 6, 46, 84
12, 719, Note_on_c, 6, 46, 0
12, 960, Note_on_c, 6, 46, 84
12, 1199, Note_on_c, 6, 46, 0
12, 1440, Note_on_c, 6, 46, 84
12, 1679, Note_on_c, 6, 46, 0
12, 1680, Note_on_c, 6, 41, 84
12, 1919, Note_on_c, 6, 41, 0
12, 2160, Note_on_c, 6, 41, 84
12, 2399, Note_on_c, 6, 41, 0
12, 2400, Note_on_c, 6, 41, 84
12, 2639, Note_on_c, 6, 41, 0
12, 11760, Note_on_c, 6, 41, 84
12, 11999, Note_on_c, 6, 41, 0
12, 12480, Note_on_c, 6, 41, 84
12, 12719, Note_on_c, 6, 41, 0
12, 13200, Note_on_c, 6, 41, 84
12, 13439, Note_on_c, 6, 41, 0
12, 13440, Note_on_c, 6, 41, 84
12, 13679, Note_on_c, 6, 41, 0
12, 13680, Note_on_c, 6, 41, 84
12, 13919, Note_on_c, 6, 41, 0
12, 13920, Note_on_c, 6, 41, 84
12, 14159, Note_on_c, 6, 41, 0
12, 14640, Note_on_c, 6, 46, 84
12, 14879, Note_on_c, 6, 46, 0
12, 14880, Note_on_c, 6, 46, 84
12, 15119, Note_on_c, 6, 46, 0
12, 15360, Note_on_c, 6, 46, 84
12, 15599, Note_on_c, 6, 46, 0
12, 15840, Note_on_c, 6, 46, 84
12, 16079, Note_on_c, 6, 46, 0
12, 16080, Note_on_c, 6, 41, 84
12, 16319, Note_on_c, 6, 41, 0
12, 16560, Note_on_c, 6, 41, 84
12, 16799, Note_on_c, 6, 41, 0
12, 16800, Note_on_c, 6, 41, 84
12, 17039, Note_on_c, 6, 41, 0
12, 26160, Note_on_c, 6, 41, 84
12, 26399, Note_on_c, 6, 41, 0
12, 26880, Note_on_c, 6, 41, 84
12, 27119, Note_on_c, 6, 41, 0
12, 27600, Note_on_c, 6, 41, 84
12, 27839, Note_on_c, 6, 41, 0
12, 27840, Note_on_c, 6, 41, 84
12, 28079, Note_on_c, 6, 41, 0
12, 28080, Note_on_c, 6, 41, 84
12, 28319, Note_on_c, 6, 41, 0
12, 28320, Note_on_c, 6, 41, 84
12, 28559, Note_on_c, 6, 41, 0
12, 51840, Note_on_c, 6, 41, 76
12, 52079, Note_on_c, 6, 41, 0
12, 52080, Note_on_c, 6, 46, 84
12, 52319, Note_on_c, 6, 46, 0
12, 52320, Note_on_c, 6, 46, 84
12, 52559, Note_on_c, 6, 46, 0
12, 52800, Note_on_c, 6, 46, 84
12, 53039, Note_on_c, 6, 46, 0
12, 53280, Note_on_c, 6, 46, 84
12, 53519, Note_on_c, 6, 46, 0
12, 53520, Note_on_c, 6, 41, 84
12, 53759, Note_on_c, 6, 41, 0
12, 54000, Note_on_c, 6, 41, 84
12, 54239, Note_on_c, 6, 41, 0
12, 54240, Note_on_c, 6, 41, 84
12, 54479, Note_on_c, 6, 41, 0
12, 68160, Note_on_c, 6, 41, 76
12, 68399, Note_on_c, 6, 41, 0
12, 68640, Note_on_c, 6, 46, 76
12, 68879, Note_on_c, 6, 46, 0
12, 69120, Note_on_c, 6, 46, 76
12, 69359, Note_on_c, 6, 46, 0
12, 69360, Note_on_c, 6, 41, 84
12, 69599, Note_on_c, 6, 41, 0
12, 70080, Note_on_c, 6, 41, 84
12, 70319, Note_on_c, 6, 41, 0
12, 70800, Note_on_c, 6, 46, 84
12, 70859, Note_on_c, 6, 46, 0
12, 70860, Note_on_c, 6, 46, 84
12, 70919, Note_on_c, 6, 46, 0
12, 70920, Note_on_c, 6, 46, 84
12, 70979, Note_on_c, 6, 46, 0
12, 70980, Note_on_c, 6, 46, 84
12, 71039, Note_on_c, 6, 46, 0
12, 71040, Note_on_c, 6, 46, 84
12, 71099, Note_on_c, 6, 46, 0
12, 71100, Note_on_c, 6, 46, 84
12, 71159, Note_on_c, 6, 46, 0
12, 71160, Note_on_c, 6, 46, 84
12, 71219, Note_on_c, 6, 46, 0
12, 71220, Note_on_c, 6, 46, 84
12, 71279, Note_on_c, 6, 46, 0
12, 71280, Note_on_c, 6, 46, 84
12, 71339, Note_on_c, 6, 46, 0
12, 71340, Note_on_c, 6, 46, 84
12, 71399, Note_on_c, 6, 46, 0
12, 71400, Note_on_c, 6, 46, 84
12, 71459, Note_on_c, 6, 46, 0
12, 71460, Note_on_c, 6, 46, 84
12, 71519, Note_on_c, 6, 46, 0
12, 71520, Note_on_c, 6, 46, 84
12, 71579, Note_on_c, 6, 46, 0
12, 71580, Note_on_c, 6, 46, 84
12, 71639, Note_on_c, 6, 46, 0
12, 71640, Note_on_c, 6, 46, 84
12, 71699, Note_on_c, 6, 46, 0
12, 71700, Note_on_c, 6, 46, 84
12, 71759, Note_on_c, 6, 46, 0
12, 71760, Note_on_c, 6, 46, 84
12, 71819, Note_on_c, 6, 46, 0
12, 71820, Note_on_c, 6, 46, 84
12, 71879, Note_on_c, 6, 46, 0
12, 71880, Note_on_c, 6, 46, 84
12, 71939, Note_on_c, 6, 46, 0
12, 71940, Note_on_c, 6, 46, 84
12, 71999, Note_on_c, 6, 46, 0
12, 72000, Note_on_c, 6, 46, 84
12, 72059, Note_on_c, 6, 46, 0
12, 72060, Note_on_c, 6, 46, 84
12, 72119, Note_on_c, 6, 46, 0
12, 72120, Note_on_c, 6, 46, 84
12, 72179, Note_on_c, 6, 46, 0
12, 72180, Note_on_c, 6, 46, 84
12, 72239, Note_on_c, 6, 46, 0
12, 72240, Note_on_c, 6, 41, 84
12, 72479, Note_on_c, 6, 41, 0
12, 73440, Note_on_c, 6, 41, 84
12, 73679, Note_on_c, 6, 41, 0
12, 73680, Note_on_c, 6, 46, 84
12, 73739, Note_on_c, 6, 46, 0
12, 73740, Note_on_c, 6, 46, 84
12, 73799, Note_on_c, 6, 46, 0
12, 73800, Note_on_c, 6, 46, 84
12, 73859, Note_on_c, 6, 46, 0
12, 73860, Note_on_c, 6, 46, 84
12, 73919, Note_on_c, 6, 46, 0
12, 73920, Note_on_c, 6, 46, 84
12, 73979, Note_on_c, 6, 46, 0
12, 73980, Note_on_c, 6, 46, 84
12, 74039, Note_on_c, 6, 46, 0
12, 74040, Note_on_c, 6, 46, 84
12, 74099, Note_on_c, 6, 46, 0
12, 74100, Note_on_c, 6, 46, 84
12, 74159, Note_on_c, 6, 46, 0
12, 74160, Note_on_c, 6, 46, 84
12, 74219, Note_on_c, 6, 46, 0
12, 74220, Note_on_c, 6, 46, 84
12, 74279, Note_on_c, 6, 46, 0
12, 74280, Note_on_c, 6, 46, 84
12, 74339, Note_on_c, 6, 46, 0
12, 74340, Note_on_c, 6, 46, 84
12, 74399, Note_on_c, 6, 46, 0
12, 74400, Note_on_c, 6, 46, 84
12, 74459, Note_on_c, 6, 46, 0
12, 74460, Note_on_c, 6, 46, 84
12, 74519, Note_on_c, 6, 46, 0
12, 74520, Note_on_c, 6, 46, 84
12, 74579, Note_on_c, 6, 46, 0
12, 74580, Note_on_c, 6, 46, 84
12, 74639, Note_on_c, 6, 46, 0
12, 74640, Note_on_c, 6, 46, 84
12, 74699, Note_on_c, 6, 46, 0
12, 74700, Note_on_c, 6, 46, 84
12, 74759, Note_on_c, 6, 46, 0
12, 74760, Note_on_c, 6, 46, 84
12, 74819, Note_on_c, 6, 46, 0
12, 74820, Note_on_c, 6, 46, 84
12, 74879, Note_on_c, 6, 46, 0
12, 74880, Note_on_c, 6, 46, 84
12, 74939, Note_on_c, 6, 46, 0
12, 74940, Note_on_c, 6, 46, 84
12, 74999, Note_on_c, 6, 46, 0
12, 75000, Note_on_c, 6, 46, 84
12, 75059, Note_on_c, 6, 46, 0
12, 75060, Note_on_c, 6, 46, 84
12, 75119, Note_on_c, 6, 46, 0
12, 75120, Note_on_c, 6, 41, 84
12, 75359, Note_on_c, 6, 41, 0
12, 76320, Note_on_c, 6, 41, 84
12, 76559, Note_on_c, 6, 41, 0
12, 76560, Note_on_c, 6, 46, 76
12, 76799, Note_on_c, 6, 46, 0
12, 77280, Note_on_c, 6, 46, 76
12, 77519, Note_on_c, 6, 46, 0
12, 78000, Note_on_c, 6, 46, 76
12, 78239, Note_on_c, 6, 46, 0
12, 78240, Note_on_c, 6, 46, 76
12, 78479, Note_on_c, 6, 46, 0
12, 78480, Note_on_c, 6, 46, 76
12, 78719, Note_on_c, 6, 46, 0
12, 78720, Note_on_c, 6, 46, 76
12, 78959, Note_on_c, 6, 46, 0
12, 102240, Note_on_c, 6, 41, 76
12, 102479, Note_on_c, 6, 41, 0
12, 102480, Note_on_c, 6, 46, 84
12, 102719, Note_on_c, 6, 46, 0
12, 102720, Note_on_c, 6, 46, 84
12, 102959, Note_on_c, 6, 46, 0
12, 103200, Note_on_c, 6, 46, 84
12, 103439, Note_on_c, 6, 46, 0
12, 103680, Note_on_c, 6, 46, 84
12, 103919, Note_on_c, 6, 46, 0
12, 103920, Note_on_c, 6, 41, 84
12, 104159, Note_on_c, 6, 41, 0
12, 104400, Note_on_c, 6, 41, 84
12, 104639, Note_on_c, 6, 41, 0
12, 104640, Note_on_c, 6, 41, 84
12, 104879, Note_on_c, 6, 41, 0
12, 118560, Note_on_c, 6, 41, 76
12, 118799, Note_on_c, 6, 41, 0
12, 119040, Note_on_c, 6, 46, 76
12, 119279, Note_on_c, 6, 46, 0
12, 119520, Note_on_c, 6, 46, 76
12, 119759, Note_on_c, 6, 46, 0
12, 119760, Note_on_c, 6, 41, 84
12, 119999, Note_on_c, 6, 41, 0
12, 120480, Note_on_c, 6, 41, 84
12, 120719, Note_on_c, 6, 41, 0
12, 121200, Note_on_c, 6, 46, 84
12, 121259, Note_on_c, 6, 46, 0
12, 121260, Note_on_c, 6, 46, 84
12, 121319, Note_on_c, 6, 46, 0
12, 121320, Note_on_c, 6, 46, 84
12, 121379, Note_on_c, 6, 46, 0
12, 121380, Note_on_c, 6, 46, 84
12, 121439, Note_on_c, 6, 46, 0
12, 121440, Note_on_c, 6, 46, 84
12, 121499, Note_on_c, 6, 46, 0
12, 121500, Note_on_c, 6, 46, 84
12, 121559, Note_on_c, 6, 46, 0
12, 121560, Note_on_c, 6, 46, 84
12, 121619, Note_on_c, 6, 46, 0
12, 121620, Note_on_c, 6, 46, 84
12, 121679, Note_on_c, 6, 46, 0
12, 121680, Note_on_c, 6, 46, 84
12, 121739, Note_on_c, 6, 46, 0
12, 121740, Note_on_c, 6, 46, 84
12, 121799, Note_on_c, 6, 46, 0
12, 121800, Note_on_c, 6, 46, 84
12, 121859, Note_on_c, 6, 46, 0
12, 121860, Note_on_c, 6, 46, 84
12, 121919, Note_on_c, 6, 46, 0
12, 121920, Note_on_c, 6, 46, 84
12, 121979, Note_on_c, 6, 46, 0
12, 121980, Note_on_c, 6, 46, 84
12, 122039, Note_on_c, 6, 46, 0
12, 122040, Note_on_c, 6, 46, 84
12, 122099, Note_on_c, 6, 46, 0
12, 122100, Note_on_c, 6, 46, 84
12, 122159, Note_on_c, 6, 46, 0
12, 122160, Note_on_c, 6, 46, 84
12, 122219, Note_on_c, 6, 46, 0
12, 122220, Note_on_c, 6, 46, 84
12, 122279, Note_on_c, 6, 46, 0
12, 122280, Note_on_c, 6, 46, 84
12, 122339, Note_on_c, 6, 46, 0
12, 122340, Note_on_c, 6, 46, 84
12, 122399, Note_on_c, 6, 46, 0
12, 122400, Note_on_c, 6, 46, 84
12, 122459, Note_on_c, 6, 46, 0
12, 122460, Note_on_c, 6, 46, 84
12, 122519, Note_on_c, 6, 46, 0
12, 122520, Note_on_c, 6, 46, 84
12, 122579, Note_on_c, 6, 46, 0
12, 122580, Note_on_c, 6, 46, 84
12, 122639, Note_on_c, 6, 46, 0
12, 122640, Note_on_c, 6, 41, 84
12, 122879, Note_on_c, 6, 41, 0
12, 123840, Note_on_c, 6, 41, 84
12, 124079, Note_on_c, 6, 41, 0
12, 124080, Note_on_c, 6, 46, 84
12, 124139, Note_on_c, 6, 46, 0
12, 124140, Note_on_c, 6, 46, 84
12, 124199, Note_on_c, 6, 46, 0
12, 124200, Note_on_c, 6, 46, 84
12, 124259, Note_on_c, 6, 46, 0
12, 124260, Note_on_c, 6, 46, 84
12, 124319, Note_on_c, 6, 46, 0
12, 124320, Note_on_c, 6, 46, 84
12, 124379, Note_on_c, 6, 46, 0
12, 124380, Note_on_c, 6, 46, 84
12, 124439, Note_on_c, 6, 46, 0
12, 124440, Note_on_c, 6, 46, 84
12, 124499, Note_on_c, 6, 46, 0
12, 124500, Note_on_c, 6, 46, 84
12, 124559, Note_on_c, 6, 46, 0
12, 124560, Note_on_c, 6, 46, 84
12, 124619, Note_on_c, 6, 46, 0
12, 124620, Note_on_c, 6, 46, 84
12, 124679, Note_on_c, 6, 46, 0
12, 124680, Note_on_c, 6, 46, 84
12, 124739, Note_on_c, 6, 46, 0
12, 124740, Note_on_c, 6, 46, 84
12, 124799, Note_on_c, 6, 46, 0
12, 124800, Note_on_c, 6, 46, 84
12, 124859, Note_on_c, 6, 46, 0
12, 124860, Note_on_c, 6, 46, 84
12, 124919, Note_on_c, 6, 46, 0
12, 124920, Note_on_c, 6, 46, 84
12, 124979, Note_on_c, 6, 46, 0
12, 124980, Note_on_c, 6, 46, 84
12, 125039, Note_on_c, 6, 46, 0
12, 125040, Note_on_c, 6, 46, 84
12, 125099, Note_on_c, 6, 46, 0
12, 125100, Note_on_c, 6, 46, 84
12, 125159, Note_on_c, 6, 46, 0
12, 125160, Note_on_c, 6, 46, 84
12, 125219, Note_on_c, 6, 46, 0
12, 125220, Note_on_c, 6, 46, 84
12, 125279, Note_on_c, 6, 46, 0
12, 125280, Note_on_c, 6, 46, 84
12, 125339, Note_on_c, 6, 46, 0
12, 125340, Note_on_c, 6, 46, 84
12, 125399, Note_on_c, 6, 46, 0
12, 125400, Note_on_c, 6, 46, 84
12, 125459, Note_on_c, 6, 46, 0
12, 125460, Note_on_c, 6, 46, 84
12, 125519, Note_on_c, 6, 46, 0
12, 125520, Note_on_c, 6, 41, 84
12, 125759, Note_on_c, 6, 41, 0
12, 126720, Note_on_c, 6, 41, 84
12, 126959, Note_on_c, 6, 41, 0
12, 126960, Note_on_c, 6, 46, 76
12, 127199, Note_on_c, 6, 46, 0
12, 127680, Note_on_c, 6, 46, 76
12, 127919, Note_on_c, 6, 46, 0
12, 128400, Note_on_c, 6, 46, 76
12, 128639, Note_on_c, 6, 46, 0
12, 128640, Note_on_c, 6, 46, 76
12, 128879, Note_on_c, 6, 46, 0
12, 128880, Note_on_c, 6, 46, 76
12, 129119, Note_on_c, 6, 46, 0
12, 129120, Note_on_c, 6, 46, 76
12, 129359, Note_on_c, 6, 46, 0
12, 177120, Note_on_c, 6, 46, 84
12, 177359, Note_on_c, 6, 46, 0
12, 177360, Note_on_c, 6, 46, 84
12, 177599, Note_on_c, 6, 46, 0
12, 177840, Note_on_c, 6, 46, 84
12, 178079, Note_on_c, 6, 46, 0
12, 178080, Note_on_c, 6, 46, 84
12, 178319, Note_on_c, 6, 46, 0
12, 178560, Note_on_c, 6, 46, 84
12, 178799, Note_on_c, 6, 46, 0
12, 178800, Note_on_c, 6, 46, 92
12, 178859, Note_on_c, 6, 46, 0
12, 178860, Note_on_c, 6, 46, 84
12, 178919, Note_on_c, 6, 46, 0
12, 178920, Note_on_c, 6, 46, 84
12, 178979, Note_on_c, 6, 46, 0
12, 178980, Note_on_c, 6, 46, 84
12, 179039, Note_on_c, 6, 46, 0
12, 179040, Note_on_c, 6, 46, 84
12, 179099, Note_on_c, 6, 46, 0
12, 179100, Note_on_c, 6, 46, 84
12, 179159, Note_on_c, 6, 46, 0
12, 179160, Note_on_c, 6, 46, 84
12, 179219, Note_on_c, 6, 46, 0
12, 179220, Note_on_c, 6, 46, 84
12, 179279, Note_on_c, 6, 46, 0
12, 179280, Note_on_c, 6, 46, 84
12, 179339, Note_on_c, 6, 46, 0
12, 179340, Note_on_c, 6, 46, 84
12, 179399, Note_on_c, 6, 46, 0
12, 179400, Note_on_c, 6, 46, 84
12, 179459, Note_on_c, 6, 46, 0
12, 179460, Note_on_c, 6, 46, 84
12, 179519, Note_on_c, 6, 46, 0
12, 179520, Note_on_c, 6, 46, 84
12, 179579, Note_on_c, 6, 46, 0
12, 179580, Note_on_c, 6, 46, 84
12, 179639, Note_on_c, 6, 46, 0
12, 179640, Note_on_c, 6, 46, 84
12, 179699, Note_on_c, 6, 46, 0
12, 179700, Note_on_c, 6, 46, 84
12, 179759, Note_on_c, 6, 46, 0
12, 179760, Note_on_c, 6, 46, 84
12, 179819, Note_on_c, 6, 46, 0
12, 179820, Note_on_c, 6, 46, 84
12, 179879, Note_on_c, 6, 46, 0
12, 179880, Note_on_c, 6, 46, 84
12, 179939, Note_on_c, 6, 46, 0
12, 179940, Note_on_c, 6, 46, 84
12, 179999, Note_on_c, 6, 46, 0
12, 180000, Note_on_c, 6, 46, 84
12, 180239, Note_on_c, 6, 46, 0
12, 180240, Note_on_c, 6, 41, 84
12, 180479, Note_on_c, 6, 41, 0
12, 180720, Note_on_c, 6, 41, 84
12, 180959, Note_on_c, 6, 41, 0
12, 180960, Note_on_c, 6, 41, 84
12, 181199, Note_on_c, 6, 41, 0
12, 181440, Note_on_c, 6, 41, 84
12, 181679, Note_on_c, 6, 41, 0
12, 181680, Note_on_c, 6, 46, 84
12, 181919, Note_on_c, 6, 46, 0
12, 182880, Note_on_c, 6, 46, 84
12, 183119, Note_on_c, 6, 46, 0
12, 183120, Note_on_c, 6, 41, 84
12, 183359, Note_on_c, 6, 41, 0
12, 184320, Note_on_c, 6, 41, 84
12, 184559, Note_on_c, 6, 41, 0
12, 184560, Note_on_c, 6, 46, 84
12, 184799, Note_on_c, 6, 46, 0
12, 185760, Note_on_c, 6, 46, 72
12, 185999, Note_on_c, 6, 46, 0
12, 186000, Note_on_c, 6, 41, 68
12, 186239, Note_on_c, 6, 41, 0
12, 187200, Note_on_c, 6, 41, 48
12, 187439, Note_on_c, 6, 41, 0
12, 187440, Note_on_c, 6, 46, 44
12, 187679, Note_on_c, 6, 46, 0
12, 188160, Note_on_c, 6, 46, 44
12, 188399, Note_on_c, 6, 46, 0
12, 188880, Note_on_c, 6, 46, 44
12, 189119, Note_on_c, 6, 46, 0
12, 189600, Note_on_c, 6, 46, 44
12, 189839, Note_on_c, 6, 46, 0
12, 190320, Note_on_c, 6, 46, 44
12, 190559, Note_on_c, 6, 46, 0
12, 192960, Note_on_c, 6, 41, 76
12, 193199, Note_on_c, 6, 41, 0
12, 193200, Note_on_c, 6, 46, 84
12, 193439, Note_on_c, 6, 46, 0
12, 193440, Note_on_c, 6, 46, 84
12, 193679, Note_on_c, 6, 46, 0
12, 193920, Note_on_c, 6, 46, 84
12, 194159, Note_on_c, 6, 46, 0
12, 194400, Note_on_c, 6, 46, 84
12, 194639, Note_on_c, 6, 46, 0
12, 194640, Note_on_c, 6, 41, 84
12, 194879, Note_on_c, 6, 41, 0
12, 195120, Note_on_c, 6, 41, 84
12, 195359, Note_on_c, 6, 41, 0
12, 195360, Note_on_c, 6, 41, 84
12, 195599, Note_on_c, 6, 41, 0
12, 204720, Note_on_c, 6, 41, 84
12, 204959, Note_on_c, 6, 41, 0
12, 205440, Note_on_c, 6, 41, 84
12, 205679, Note_on_c, 6, 41, 0
12, 206160, Note_on_c, 6, 41, 84
12, 206399, Note_on_c, 6, 41, 0
12, 206400, Note_on_c, 6, 41, 84
12, 206639, Note_on_c, 6, 41, 0
12, 206640, Note_on_c, 6, 41, 84
12, 206879, Note_on_c, 6, 41, 0
12, 206880, Note_on_c, 6, 41, 84
12, 207119, Note_on_c, 6, 41, 0
12, 230400, Note_on_c, 6, 41, 76
12, 230639, Note_on_c, 6, 41, 0
12, 230640, Note_on_c, 6, 46, 84
12, 230879, Note_on_c, 6, 46, 0
12, 230880, Note_on_c, 6, 46, 84
12, 231119, Note_on_c, 6, 46, 0
12, 231360, Note_on_c, 6, 46, 84
12, 231599, Note_on_c, 6, 46, 0
12, 231840, Note_on_c, 6, 46, 84
12, 232079, Note_on_c, 6, 46, 0
12, 232080, Note_on_c, 6, 41, 84
12, 232319, Note_on_c, 6, 41, 0
12, 232560, Note_on_c, 6, 41, 84
12, 232799, Note_on_c, 6, 41, 0
12, 232800, Note_on_c, 6, 41, 84
12, 233039, Note_on_c, 6, 41, 0
12, 246720, Note_on_c, 6, 41, 76
12, 246959, Note_on_c, 6, 41, 0
12, 247200, Note_on_c, 6, 46, 76
12, 247439, Note_on_c, 6, 46, 0
12, 247680, Note_on_c, 6, 46, 76
12, 247859, Note_on_c, 6, 46, 0
12, 247920, Note_on_c, 6, 41, 84
12, 248159, Note_on_c, 6, 41, 0
12, 248640, Note_on_c, 6, 41, 84
12, 248879, Note_on_c, 6, 41, 0
12, 249360, Note_on_c, 6, 46, 84
12, 249419, Note_on_c, 6, 46, 0
12, 249420, Note_on_c, 6, 46, 84
12, 249479, Note_on_c, 6, 46, 0
12, 249480, Note_on_c, 6, 46, 84
12, 249539, Note_on_c, 6, 46, 0
12, 249540, Note_on_c, 6, 46, 84
12, 249599, Note_on_c, 6, 46, 0
12, 249600, Note_on_c, 6, 46, 84
12, 249659, Note_on_c, 6, 46, 0
12, 249660, Note_on_c, 6, 46, 84
12, 249719, Note_on_c, 6, 46, 0
12, 249720, Note_on_c, 6, 46, 84
12, 249779, Note_on_c, 6, 46, 0
12, 249780, Note_on_c, 6, 46, 84
12, 249839, Note_on_c, 6, 46, 0
12, 249840, Note_on_c, 6, 46, 84
12, 249899, Note_on_c, 6, 46, 0
12, 249900, Note_on_c, 6, 46, 84
12, 249959, Note_on_c, 6, 46, 0
12, 249960, Note_on_c, 6, 46, 84
12, 250019, Note_on_c, 6, 46, 0
12, 250020, Note_on_c, 6, 46, 84
12, 250079, Note_on_c, 6, 46, 0
12, 250080, Note_on_c, 6, 46, 84
12, 250139, Note_on_c, 6, 46, 0
12, 250140, Note_on_c, 6, 46, 84
12, 250199, Note_on_c, 6, 46, 0
12, 250200, Note_on_c, 6, 46, 84
12, 250259, Note_on_c, 6, 46, 0
12, 250260, Note_on_c, 6, 46, 84
12, 250319, Note_on_c, 6, 46, 0
12, 250320, Note_on_c, 6, 46, 84
12, 250379, Note_on_c, 6, 46, 0
12, 250380, Note_on_c, 6, 46, 84
12, 250439, Note_on_c, 6, 46, 0
12, 250440, Note_on_c, 6, 46, 84
12, 250499, Note_on_c, 6, 46, 0
12, 250500, Note_on_c, 6, 46, 84
12, 250559, Note_on_c, 6, 46, 0
12, 250560, Note_on_c, 6, 46, 84
12, 250619, Note_on_c, 6, 46, 0
12, 250620, Note_on_c, 6, 46, 84
12, 250679, Note_on_c, 6, 46, 0
12, 250680, Note_on_c, 6, 46, 84
12, 250739, Note_on_c, 6, 46, 0
12, 250740, Note_on_c, 6, 46, 84
12, 250799, Note_on_c, 6, 46, 0
12, 250800, Note_on_c, 6, 41, 84
12, 251039, Note_on_c, 6, 41, 0
12, 252000, Note_on_c, 6, 41, 84
12, 252239, Note_on_c, 6, 41, 0
12, 252240, Note_on_c, 6, 46, 84
12, 252299, Note_on_c, 6, 46, 0
12, 252300, Note_on_c, 6, 46, 84
12, 252359, Note_on_c, 6, 46, 0
12, 252360, Note_on_c, 6, 46, 84
12, 252419, Note_on_c, 6, 46, 0
12, 252420, Note_on_c, 6, 46, 84
12, 252479, Note_on_c, 6, 46, 0
12, 252480, Note_on_c, 6, 46, 84
12, 252539, Note_on_c, 6, 46, 0
12, 252540, Note_on_c, 6, 46, 84
12, 252599, Note_on_c, 6, 46, 0
12, 252600, Note_on_c, 6, 46, 84
12, 252659, Note_on_c, 6, 46, 0
12, 252660, Note_on_c, 6, 46, 84
12, 252719, Note_on_c, 6, 46, 0
12, 252720, Note_on_c, 6, 46, 84
12, 252779, Note_on_c, 6, 46, 0
12, 252780, Note_on_c, 6, 46, 84
12, 252839, Note_on_c, 6, 46, 0
12, 252840, Note_on_c, 6, 46, 84
12, 252899, Note_on_c, 6, 46, 0
12, 252900, Note_on_c, 6, 46, 84
12, 252959, Note_on_c, 6, 46, 0
12, 252960, Note_on_c, 6, 46, 84
12, 253019, Note_on_c, 6, 46, 0
12, 253020, Note_on_c, 6, 46, 84
12, 253079, Note_on_c, 6, 46, 0
12, 253080, Note_on_c, 6, 46, 84
12, 253139, Note_on_c, 6, 46, 0
12, 253140, Note_on_c, 6, 46, 84
12, 253199, Note_on_c, 6, 46, 0
12, 253200, Note_on_c, 6, 46, 84
12, 253259, Note_on_c, 6, 46, 0
12, 253260, Note_on_c, 6, 46, 84
12, 253319, Note_on_c, 6, 46, 0
12, 253320, Note_on_c, 6, 46, 84
12, 253379, Note_on_c, 6, 46, 0
12, 253380, Note_on_c, 6, 46, 84
12, 253439, Note_on_c, 6, 46, 0
12, 253440, Note_on_c, 6, 46, 84
12, 253499, Note_on_c, 6, 46, 0
12, 253500, Note_on_c, 6, 46, 84
12, 253559, Note_on_c, 6, 46, 0
12, 253560, Note_on_c, 6, 46, 84
12, 253619, Note_on_c, 6, 46, 0
12, 253620, Note_on_c, 6, 46, 84
12, 253679, Note_on_c, 6, 46, 0
12, 253680, Note_on_c, 6, 41, 84
12, 253919, Note_on_c, 6, 41, 0
12, 254880, Note_on_c, 6, 41, 84
12, 255119, Note_on_c, 6, 41, 0
12, 255120, Note_on_c, 6, 46, 76
12, 255359, Note_on_c, 6, 46, 0
12, 255840, Note_on_c, 6, 46, 76
12, 256079, Note_on_c, 6, 46, 0
12, 256560, Note_on_c, 6, 46, 76
12, 256799, Note_on_c, 6, 46, 0
12, 256800, Note_on_c, 6, 46, 76
12, 257039, Note_on_c, 6, 46, 0
12, 257040, Note_on_c, 6, 46, 76
12, 257279, Note_on_c, 6, 46, 0
12, 257280, Note_on_c, 6, 46, 76
12, 257519, Note_on_c, 6, 46, 0
12, 305280, Note_on_c, 6, 46, 84
12, 305519, Note_on_c, 6, 46, 0
12, 305520, Note_on_c, 6, 46, 84
12, 305759, Note_on_c, 6, 46, 0
12, 306000, Note_on_c, 6, 46, 84
12, 306239, Note_on_c, 6, 46, 0
12, 306240, Note_on_c, 6, 46, 84
12, 306479, Note_on_c, 6, 46, 0
12, 306720, Note_on_c, 6, 46, 84
12, 306959, Note_on_c, 6, 46, 0
12, 306960, Note_on_c, 6, 46, 92
12, 307019, Note_on_c, 6, 46, 0
12, 307020, Note_on_c, 6, 46, 84
12, 307079, Note_on_c, 6, 46, 0
12, 307080, Note_on_c, 6, 46, 84
12, 307139, Note_on_c, 6, 46, 0
12, 307140, Note_on_c, 6, 46, 84
12, 307199, Note_on_c, 6, 46, 0
12, 307200, Note_on_c, 6, 46, 84
12, 307259, Note_on_c, 6, 46, 0
12, 307260, Note_on_c, 6, 46, 84
12, 307319, Note_on_c, 6, 46, 0
12, 307320, Note_on_c, 6, 46, 84
12, 307379, Note_on_c, 6, 46, 0
12, 307380, Note_on_c, 6, 46, 84
12, 307439, Note_on_c, 6, 46, 0
12, 307440, Note_on_c, 6, 46, 84
12, 307499, Note_on_c, 6, 46, 0
12, 307500, Note_on_c, 6, 46, 84
12, 307559, Note_on_c, 6, 46, 0
12, 307560, Note_on_c, 6, 46, 84
12, 307619, Note_on_c, 6, 46, 0
12, 307620, Note_on_c, 6, 46, 84
12, 307679, Note_on_c, 6, 46, 0
12, 307680, Note_on_c, 6, 46, 84
12, 307739, Note_on_c, 6, 46, 0
12, 307740, Note_on_c, 6, 46, 84
12, 307799, Note_on_c, 6, 46, 0
12, 307800, Note_on_c, 6, 46, 84
12, 307859, Note_on_c, 6, 46, 0
12, 307860, Note_on_c, 6, 46, 84
12, 307919, Note_on_c, 6, 46, 0
12, 307920, Note_on_c, 6, 46, 84
12, 307979, Note_on_c, 6, 46, 0
12, 307980, Note_on_c, 6, 46, 84
12, 308039, Note_on_c, 6, 46, 0
12, 308040, Note_on_c, 6, 46, 84
12, 308099, Note_on_c, 6, 46, 0
12, 308100, Note_on_c, 6, 46, 84
12, 308159, Note_on_c, 6, 46, 0
12, 308160, Note_on_c, 6, 46, 84
12, 308399, Note_on_c, 6, 46, 0
12, 308400, Note_on_c, 6, 41, 84
12, 308639, Note_on_c, 6, 41, 0
12, 308880, Note_on_c, 6, 41, 84
12, 309119, Note_on_c, 6, 41, 0
12, 309120, Note_on_c, 6, 41, 84
12, 309359, Note_on_c, 6, 41, 0
12, 309600, Note_on_c, 6, 41, 84
12, 309839, Note_on_c, 6, 41, 0
12, 309840, Note_on_c, 6, 46, 84
12, 310079, Note_on_c, 6, 46, 0
12, 311040, Note_on_c, 6, 46, 84
12, 311279, Note_on_c, 6, 46, 0
12, 311280, Note_on_c, 6, 41, 84
12, 311519, Note_on_c, 6, 41, 0
12, 312480, Note_on_c, 6, 41, 84
12, 312719, Note_on_c, 6, 41, 0
12, 312720, Note_on_c, 6, 46, 84
12, 312959, Note_on_c, 6, 46, 0
12, 313920, Note_on_c, 6, 46, 72
12, 314159, Note_on_c, 6, 46, 0
12, 314160, Note_on_c, 6, 41, 68
12, 314399, Note_on_c, 6, 41, 0
12, 315360, Note_on_c, 6, 41, 48
12, 315599, Note_on_c, 6, 41, 0
12, 315600, Note_on_c, 6, 46, 44
12, 315839, Note_on_c, 6, 46, 0
12, 316320, Note_on_c, 6, 46, 44
12, 316559, Note_on_c, 6, 46, 0
12, 317040, Note_on_c, 6, 46, 44
12, 317279, Note_on_c, 6, 46, 0
12, 317760, Note_on_c, 6, 46, 44
12, 317999, Note_on_c, 6, 46, 0
12, 318480, Note_on_c, 6, 46, 44
12, 318719, Note_on_c, 6, 46, 0
12, 321120, Note_on_c, 6, 41, 76
12, 321359, Note_on_c, 6, 41, 0
12, 321360, Note_on_c, 6, 46, 84
12, 321599, Note_on_c, 6, 46, 0
12, 321600, Note_on_c, 6, 46, 84
12, 321839, Note_on_c, 6, 46, 0
12, 322080, Note_on_c, 6, 46, 84
12, 322319, Note_on_c, 6, 46, 0
12, 322560, Note_on_c, 6, 46, 84
12, 322799, Note_on_c, 6, 46, 0
12, 322800, Note_on_c, 6, 41, 84
12, 323039, Note_on_c, 6, 41, 0
12, 323280, Note_on_c, 6, 41, 84
12, 323519, Note_on_c, 6, 41, 0
12, 323520, Note_on_c, 6, 41, 84
12, 323759, Note_on_c, 6, 41, 0
12, 337440, Note_on_c, 6, 41, 76
12, 337679, Note_on_c, 6, 41, 0
12, 337920, Note_on_c, 6, 46, 76
12, 338159, Note_on_c, 6, 46, 0
12, 338400, Note_on_c, 6, 46, 76
12, 338579, Note_on_c, 6, 46, 0
12, 338640, Note_on_c, 6, 41, 84
12, 338879, Note_on_c, 6, 41, 0
12, 339360, Note_on_c, 6, 41, 84
12, 339599, Note_on_c, 6, 41, 0
12, 340080, Note_on_c, 6, 46, 84
12, 340139, Note_on_c, 6, 46, 0
12, 340140, Note_on_c, 6, 46, 84
12, 340199, Note_on_c, 6, 46, 0
12, 340200, Note_on_c, 6, 46, 84
12, 340259, Note_on_c, 6, 46, 0
12, 340260, Note_on_c, 6, 46, 84
12, 340319, Note_on_c, 6, 46, 0
12, 340320, Note_on_c, 6, 46, 84
12, 340379, Note_on_c, 6, 46, 0
12, 340380, Note_on_c, 6, 46, 84
12, 340439, Note_on_c, 6, 46, 0
12, 340440, Note_on_c, 6, 46, 84
12, 340499, Note_on_c, 6, 46, 0
12, 340500, Note_on_c, 6, 46, 84
12, 340559, Note_on_c, 6, 46, 0
12, 340560, Note_on_c, 6, 46, 84
12, 340619, Note_on_c, 6, 46, 0
12, 340620, Note_on_c, 6, 46, 84
12, 340679, Note_on_c, 6, 46, 0
12, 340680, Note_on_c, 6, 46, 84
12, 340739, Note_on_c, 6, 46, 0
12, 340740, Note_on_c, 6, 46, 84
12, 340799, Note_on_c, 6, 46, 0
12, 340800, Note_on_c, 6, 46, 84
12, 340859, Note_on_c, 6, 46, 0
12, 340860, Note_on_c, 6, 46, 84
12, 340919, Note_on_c, 6, 46, 0
12, 340920, Note_on_c, 6, 46, 84
12, 340979, Note_on_c, 6, 46, 0
12, 340980, Note_on_c, 6, 46, 84
12, 341039, Note_on_c, 6, 46, 0
12, 341040, Note_on_c, 6, 46, 84
12, 341099, Note_on_c, 6, 46, 0
12, 341100, Note_on_c, 6, 46, 84
12, 341159, Note_on_c, 6, 46, 0
12, 341160, Note_on_c, 6, 46, 84
12, 341219, Note_on_c, 6, 46, 0
12, 341220, Note_on_c, 6, 46, 84
12, 341279, Note_on_c, 6, 46, 0
12, 341280, Note_on_c, 6, 46, 84
12, 341339, Note_on_c, 6, 46, 0
12, 341340, Note_on_c, 6, 46, 84
12, 341399, Note_on_c, 6, 46, 0
12, 341400, Note_on_c, 6, 46, 84
12, 341459, Note_on_c, 6, 46, 0
12, 341460, Note_on_c, 6, 46, 84
12, 341519, Note_on_c, 6, 46, 0
12, 341520, Note_on_c, 6, 41, 84
12, 341759, Note_on_c, 6, 41, 0
12, 342720, Note_on_c, 6, 41, 84
12, 342959, Note_on_c, 6, 41, 0
12, 342960, Note_on_c, 6, 46, 84
12, 343019, Note_on_c, 6, 46, 0
12, 343020, Note_on_c, 6, 46, 84
12, 343079, Note_on_c, 6, 46, 0
12, 343080, Note_on_c, 6, 46, 84
12, 343139, Note_on_c, 6, 46, 0
12, 343140, Note_on_c, 6, 46, 84
12, 343199, Note_on_c, 6, 46, 0
12, 343200, Note_on_c, 6, 46, 84
12, 343259, Note_on_c, 6, 46, 0
12, 343260, Note_on_c, 6, 46, 84
12, 343319, Note_on_c, 6, 46, 0
12, 343320, Note_on_c, 6, 46, 84
12, 343379, Note_on_c, 6, 46, 0
12, 343380, Note_on_c, 6, 46, 84
12, 343439, Note_on_c, 6, 46, 0
12, 343440, Note_on_c, 6, 46, 84
12, 343499, Note_on_c, 6, 46, 0
12, 343500, Note_on_c, 6, 46, 84
12, 343559, Note_on_c, 6, 46, 0
12, 343560, Note_on_c, 6, 46, 84
12, 343619, Note_on_c, 6, 46, 0
12, 343620, Note_on_c, 6, 46, 84
12, 343679, Note_on_c, 6, 46, 0
12, 343680, Note_on_c, 6, 46, 84
12, 343739, Note_on_c, 6, 46, 0
12, 343740, Note_on_c, 6, 46, 84
12, 343799, Note_on_c, 6, 46, 0
12, 343800, Note_on_c, 6, 46, 84
12, 343859, Note_on_c, 6, 46, 0
12, 343860, Note_on_c, 6, 46, 84
12, 343919, Note_on_c, 6, 46, 0
12, 343920, Note_on_c, 6, 46, 84
12, 343979, Note_on_c, 6, 46, 0
12, 343980, Note_on_c, 6, 46, 84
12, 344039, Note_on_c, 6, 46, 0
12, 344040, Note_on_c, 6, 46, 84
12, 344099, Note_on_c, 6, 46, 0
12, 344100, Note_on_c, 6, 46, 84
12, 344159, Note_on_c, 6, 46, 0
12, 344160, Note_on_c, 6, 46, 84
12, 344219, Note_on_c, 6, 46, 0
12, 344220, Note_on_c, 6, 46, 84
12, 344279, Note_on_c, 6, 46, 0
12, 344280, Note_on_c, 6, 46, 84
12, 344339, Note_on_c, 6, 46, 0
12, 344340, Note_on_c, 6, 46, 84
12, 344399, Note_on_c, 6, 46, 0
12, 344400, Note_on_c, 6, 41, 84
12, 344639, Note_on_c, 6, 41, 0
12, 345600, Note_on_c, 6, 41, 84
12, 345839, Note_on_c, 6, 41, 0
12, 345840, Note_on_c, 6, 46, 76
12, 346079, Note_on_c, 6, 46, 0
12, 346560, Note_on_c, 6, 46, 76
12, 346799, Note_on_c, 6, 46, 0
12, 347280, Note_on_c, 6, 46, 76
12, 347519, Note_on_c, 6, 46, 0
12, 347520, Note_on_c, 6, 46, 76
12, 347759, Note_on_c, 6, 46, 0
12, 347760, Note_on_c, 6, 46, 76
12, 347999, Note_on_c, 6, 46, 0
12, 348000, Note_on_c, 6, 46, 76
12, 348239, Note_on_c, 6, 46, 0
12, 350160, Note_on_c, 6, 46, 84
12, 350399, Note_on_c, 6, 46, 0
12, 350399, End_track
13, 0, Start_track
13, 0, Title_t, "Violin I"
13, 0, MIDI_port, 0
13, 0, Program_c, 11, 48
13, 0, Control_c, 11, 7, 96
13, 0, Control_c, 11, 10, 48
13, 0, Control_c, 11, 11, 127
13, 0, Note_on_c, 11, 65, 84
13, 239, Note_on_c, 11, 65, 0
13, 240, Note_on_c, 11, 70, 84
13, 359, Note_on_c, 11, 70, 0
13, 480, Note_on_c, 11, 65, 84
13, 719, Note_on_c, 11, 65, 0
13, 720, Note_on_c, 11, 74, 84
13, 839, Note_on_c, 11, 74, 0
13, 960, Note_on_c, 11, 70, 84
13, 1199, Note_on_c, 11, 70, 0
13, 1200, Note_on_c, 11, 77, 84
13, 1319, Note_on_c, 11, 77, 0
13, 1440, Note_on_c, 11, 74, 84
13, 1649, Note_on_c, 11, 74, 0
13, 1680, Note_on_c, 11, 77, 84
13, 1919, Note_on_c, 11, 77, 0
13, 1920, Note_on_c, 11, 75, 84
13, 2129, Note_on_c, 11, 75, 0
13, 2160, Note_on_c, 11, 72, 84
13, 2339, Note_on_c, 11, 72, 0
13, 2400, Note_on_c, 11, 69, 84
13, 2639, Note_on_c, 11, 69, 0
13, 4320, Note_on_c, 11, 78, 52
13, 4559, Note_on_c, 11, 78, 0
13, 4560, Note_on_c, 11, 75, 52
13, 4799, Note_on_c, 11, 75, 0
13, 4800, Note_on_c, 11, 72, 52
13, 5039, Note_on_c, 11, 72, 0
13, 5040, Note_on_c, 11, 69, 52
13, 5279, Note_on_c, 11, 69, 0
13, 5280, Note_on_c, 11, 66, 52
13, 5519, Note_on_c, 11, 66, 0
13, 5520, Note_on_c, 11, 65, 52
13, 5759, Note_on_c, 11, 65, 0
13, 5760, Note_on_c, 11, 63, 52
13, 5999, Note_on_c, 11, 63, 0
13, 6000, Note_on_c, 11, 61, 52
13, 6239, Note_on_c, 11, 61, 0
13, 7200, Note_on_c, 11, 73, 52
13, 7439, Note_on_c, 11, 73, 0
13, 7440, Note_on_c, 11, 70, 52
13, 7679, Note_on_c, 11, 70, 0
13, 7680, Note_on_c, 11, 67, 52
13, 7919, Note_on_c, 11, 67, 0
13, 7920, Note_on_c, 11, 64, 52
13, 8159, Note_on_c, 11, 64, 0
13, 8160, Note_on_c, 11, 61, 52
13, 8399, Note_on_c, 11, 61, 0
13, 8400, Note_on_c, 11, 60, 52
13, 8639, Note_on_c, 11, 60, 0
13, 8640, Note_on_c, 11, 64, 52
13, 8879, Note_on_c, 11, 64, 0
13, 8880, Note_on_c, 11, 65, 52
13, 8999, Note_on_c, 11, 65, 0
13, 9118, Control_c, 11, 11, 80
13, 9120, Note_on_c, 11, 67, 76
13, 9120, Control_c, 11, 11, 80
13, 9220, Control_c, 11, 11, 82
13, 9320, Control_c, 11, 11, 84
13, 9359, Note_on_c, 11, 67, 0
13, 9360, Note_on_c, 11, 60, 76
13, 9420, Control_c, 11, 11, 86
13, 9479, Note_on_c, 11, 60, 0
13, 9520, Control_c, 11, 11, 88
13, 9600, Note_on_c, 11, 69, 76
13, 9620, Control_c, 11, 11, 90
13, 9720, Control_c, 11, 11, 92
13, 9820, Control_c, 11, 11, 94
13, 9839, Note_on_c, 11, 69, 0
13, 9840, Note_on_c, 11, 65, 76
13, 9920, Control_c, 11, 11, 96
13, 9959, Note_on_c, 11, 65, 0
13, 10020, Control_c, 11, 11, 98
13, 10080, Note_on_c, 11, 70, 84
13, 10120, Control_c, 11, 11, 100
13, 10220, Control_c, 11, 11, 102
13, 10319, Note_on_c, 11, 70, 0
13, 10320, Note_on_c, 11, 70, 76
13, 10320, Control_c, 11, 11, 104
13, 10420, Control_c, 11, 11, 105
13, 10520, Control_c, 11, 11, 107
13, 10529, Note_on_c, 11, 70, 0
13, 10560, Note_on_c, 11, 72, 76
13, 10620, Control_c, 11, 11, 109
13, 10720, Control_c, 11, 11, 111
13, 10799, Note_on_c, 11, 72, 0
13, 10800, Note_on_c, 11, 65, 76
13, 10820, Control_c, 11, 11, 113
13, 10919, Note_on_c, 11, 65, 0
13, 10920, Control_c, 11, 11, 115
13, 11020, Control_c, 11, 11, 117
13, 11040, Note_on_c, 11, 74, 76
13, 11120, Control_c, 11, 11, 119
13, 11220, Control_c, 11, 11, 121
13, 11279, Note_on_c, 11, 74, 0
13, 11280, Note_on_c, 11, 70, 76
13, 11320, Control_c, 11, 11, 123
13, 11399, Note_on_c, 11, 70, 0
13, 11420, Control_c, 11, 11, 125
13, 11520, Note_on_c, 11, 76, 76
13, 11520, Control_c, 11, 11, 127
13, 11699, Note_on_c, 11, 76, 0
13, 11760, Note_on_c, 11, 77, 84
13, 11760, Note_on_c, 11, 69, 84
13, 12449, Note_on_c, 11, 77, 0
13, 12449, Note_on_c, 11, 69, 0
13, 12480, Note_on_c, 11, 69, 84
13, 12480, Note_on_c, 11, 81, 84
13, 13169, Note_on_c, 11, 69, 0
13, 13169, Note_on_c, 11, 81, 0
13, 13200, Note_on_c, 11, 69, 84
13, 13200, Note_on_c, 11, 84, 84
13, 13409, Note_on_c, 11, 69, 0
13, 13409, Note_on_c, 11, 84, 0
13, 13440, Note_on_c, 11, 84, 84
13, 13440, Note_on_c, 11, 69, 84
13, 13649, Note_on_c, 11, 84, 0
13, 13649, Note_on_c, 11, 69, 0
13, 13680, Note_on_c, 11, 84, 84
13, 13680, Note_on_c, 11, 69, 84
13, 13889, Note_on_c, 11, 84, 0
13, 13889, Note_on_c, 11, 69, 0
13, 13920, Note_on_c, 11, 77, 84
13, 13920, Note_on_c, 11, 69, 84
13, 14159, Note_on_c, 11, 77, 0
13, 14159, Note_on_c, 11, 69, 0
13, 14400, Note_on_c, 11, 65, 84
13, 14639, Note_on_c, 11, 65, 0
13, 14640, Note_on_c, 11, 70, 84
13, 14759, Note_on_c, 11, 70, 0
13, 14880, Note_on_c, 11, 65, 84
13, 15119, Note_on_c, 11, 65, 0
13, 15120, Note_on_c, 11, 74, 84
13, 15239, Note_on_c, 11, 74, 0
13, 15360, Note_on_c, 11, 70, 84
13, 15599, Note_on_c, 11, 70, 0
13, 15600, Note_on_c, 11, 77, 84
13, 15719, Note_on_c, 11, 77, 0
13, 15840, Note_on_c, 11, 74, 84
13, 16049, Note_on_c, 11, 74, 0
13, 16080, Note_on_c, 11, 77, 84
13, 16319, Note_on_c, 11, 77, 0
13, 16320, Note_on_c, 11, 75, 84
13, 16529, Note_on_c, 11, 75, 0
13, 16560, Note_on_c, 11, 72, 84
13, 16739, Note_on_c, 11, 72, 0
13, 16800, Note_on_c, 11, 69, 84
13, 17039, Note_on_c, 11, 69, 0
13, 18720, Note_on_c, 11, 78, 52
13, 18959, Note_on_c, 11, 78, 0
13, 18960, Note_on_c, 11, 75, 52
13, 19199, Note_on_c, 11, 75, 0
13, 19200, Note_on_c, 11, 72, 52
13, 19439, Note_on_c, 11, 72, 0
13, 19440, Note_on_c, 11, 69, 52
13, 19679, Note_on_c, 11, 69, 0
13, 19680, Note_on_c, 11, 66, 52
13, 19919, Note_on_c, 11, 66, 0
13, 19920, Note_on_c, 11, 65, 52
13, 20159, Note_on_c, 11, 65, 0
13, 20160, Note_on_c, 11, 63, 52
13, 20399, Note_on_c, 11, 63, 0
13, 20400, Note_on_c, 11, 61, 52
13, 20639, Note_on_c, 11, 61, 0
13, 21600, Note_on_c, 11, 73, 52
13, 21839, Note_on_c, 11, 73, 0
13, 21840, Note_on_c, 11, 70, 52
13, 22079, Note_on_c, 11, 70, 0
13, 22080, Note_on_c, 11, 67, 52
13, 22319, Note_on_c, 11, 67, 0
13, 22320, Note_on_c, 11, 64, 52
13, 22559, Note_on_c, 11, 64, 0
13, 22560, Note_on_c, 11, 61, 52
13, 22799, Note_on_c, 11, 61, 0
13, 22800, Note_on_c, 11, 60, 52
13, 23039, Note_on_c, 11, 60, 0
13, 23040, Note_on_c, 11, 64, 52
13, 23279, Note_on_c, 11, 64, 0
13, 23280, Note_on_c, 11, 65, 52
13, 23399, Note_on_c, 11, 65, 0
13, 23518, Control_c, 11, 11, 80
13, 23520, Note_on_c, 11, 67, 76
13, 23520, Control_c, 11, 11, 80
13, 23620, Control_c, 11, 11, 82
13, 23720, Control_c, 11, 11, 84
13, 23759, Note_on_c, 11, 67, 0
13, 23760, Note_on_c, 11, 60, 76
13, 23820, Control_c, 11, 11, 86
13, 23879, Note_on_c, 11, 60, 0
13, 23920, Control_c, 11, 11, 88
13, 24000, Note_on_c, 11, 69, 76
13, 24020, Control_c, 11, 11, 90
13, 24120, Control_c, 11, 11, 92
13, 24220, Control_c, 11, 11, 94
13, 24239, Note_on_c, 11, 69, 0
13, 24240, Note_on_c, 11, 65, 76
13, 24320, Control_c, 11, 11, 96
13, 24359, Note_on_c, 11, 65, 0
13, 24420, Control_c, 11, 11, 98
13, 24480, Note_on_c, 11, 70, 84
13, 24520, Control_c, 11, 11, 100
13, 24620, Control_c, 11, 11, 102
13, 24719, Note_on_c, 11, 70, 0
13, 24720, Control_c, 11, 11, 104
13, 24720, Note_on_c, 11, 70, 76
13, 24820, Control_c, 11, 11, 105
13, 24920, Control_c, 11, 11, 107
13, 24929, Note_on_c, 11, 70, 0
13, 24960, Note_on_c, 11, 72, 76
13, 25020, Control_c, 11, 11, 109
13, 25120, Control_c, 11, 11, 111
13, 25199, Note_on_c, 11, 72, 0
13, 25200, Note_on_c, 11, 65, 76
13, 25220, Control_c, 11, 11, 113
13, 25319, Note_on_c, 11, 65, 0
13, 25320, Control_c, 11, 11, 115
13, 25420, Control_c, 11, 11, 117
13, 25440, Note_on_c, 11, 74, 76
13, 25520, Control_c, 11, 11, 119
13, 25620, Control_c, 11, 11, 121
13, 25679, Note_on_c, 11, 74, 0
13, 25680, Note_on_c, 11, 70, 76
13, 25720, Control_c, 11, 11, 123
13, 25799, Note_on_c, 11, 70, 0
13, 25820, Control_c, 11, 11, 125
13, 25920, Control_c, 11, 11, 127
13, 25920, Note_on_c, 11, 76, 76
13, 26099, Note_on_c, 11, 76, 0
13, 26160, Note_on_c, 11, 69, 84
13, 26160, Note_on_c, 11, 77, 84
13, 26849, Note_on_c, 11, 69, 0
13, 26849, Note_on_c, 11, 77, 0
13, 26880, Note_on_c, 11, 81, 84
13, 26880, Note_on_c, 11, 69, 84
13, 27569, Note_on_c, 11, 81, 0
13, 27569, Note_on_c, 11, 69, 0
13, 27600, Note_on_c, 11, 84, 84
13, 27600, Note_on_c, 11, 69, 84
13, 27809, Note_on_c, 11, 84, 0
13, 27809, Note_on_c, 11, 69, 0
13, 27840, Note_on_c, 11, 69, 84
13, 27840, Note_on_c, 11, 84, 84
13, 28049, Note_on_c, 11, 69, 0
13, 28049, Note_on_c, 11, 84, 0
13, 28080, Note_on_c, 11, 69, 84
13, 28080, Note_on_c, 11, 84, 84
13, 28289, Note_on_c, 11, 69, 0
13, 28289, Note_on_c, 11, 84, 0
13, 28320, Note_on_c, 11, 69, 84
13, 28320, Note_on_c, 11, 77, 84
13, 28559, Note_on_c, 11, 69, 0
13, 28559, Note_on_c, 11, 77, 0
13, 28800, Note_on_c, 11, 68, 52
13, 29039, Note_on_c, 11, 68, 0
13, 29040, Note_on_c, 11, 73, 52
13, 29159, Note_on_c, 11, 73, 0
13, 29280, Note_on_c, 11, 68, 52
13, 29519, Note_on_c, 11, 68, 0
13, 29520, Note_on_c, 11, 77, 52
13, 29639, Note_on_c, 11, 77, 0
13, 29760, Note_on_c, 11, 73, 52
13, 29999, Note_on_c, 11, 73, 0
13, 30000, Note_on_c, 11, 80, 52
13, 30119, Note_on_c, 11, 80, 0
13, 30240, Note_on_c, 11, 77, 52
13, 30479, Note_on_c, 11, 77, 0
13, 30480, Note_on_c, 11, 80, 52
13, 30719, Note_on_c, 11, 80, 0
13, 30720, Note_on_c, 11, 78, 52
13, 30839, Note_on_c, 11, 78, 0
13, 30960, Note_on_c, 11, 75, 52
13, 31199, Note_on_c, 11, 75, 0
13, 31200, Note_on_c, 11, 72, 52
13, 31319, Note_on_c, 11, 72, 0
13, 32880, Note_on_c, 11, 78, 52
13, 33119, Note_on_c, 11, 78, 0
13, 33120, Note_on_c, 11, 75, 52
13, 33359, Note_on_c, 11, 75, 0
13, 33360, Note_on_c, 11, 82, 52
13, 33599, Note_on_c, 11, 82, 0
13, 33600, Note_on_c, 11, 80, 52
13, 33719, Note_on_c, 11, 80, 0
13, 33840, Note_on_c, 11, 77, 52
13, 34079, Note_on_c, 11, 77, 0
13, 34080, Note_on_c, 11, 73, 52
13, 34199, Note_on_c, 11, 73, 0
13, 35760, Note_on_c, 11, 80, 52
13, 35999, Note_on_c, 11, 80, 0
13, 36000, Note_on_c, 11, 77, 52
13, 36239, Note_on_c, 11, 77, 0
13, 36240, Note_on_c, 11, 82, 52
13, 36479, Note_on_c, 11, 82, 0
13, 36480, Note_on_c, 11, 80, 52
13, 36599, Note_on_c, 11, 80, 0
13, 36720, Note_on_c, 11, 77, 52
13, 36959, Note_on_c, 11, 77, 0
13, 36960, Note_on_c, 11, 74, 52
13, 37079, Note_on_c, 11, 74, 0
13, 38640, Note_on_c, 11, 80, 52
13, 38879, Note_on_c, 11, 80, 0
13, 38880, Note_on_c, 11, 77, 52
13, 39119, Note_on_c, 11, 77, 0
13, 39120, Note_on_c, 11, 78, 52
13, 39239, Note_on_c, 11, 78, 0
13, 39360, Note_on_c, 11, 75, 52
13, 39599, Note_on_c, 11, 75, 0
13, 39600, Note_on_c, 11, 78, 52
13, 39719, Note_on_c, 11, 78, 0
13, 39840, Note_on_c, 11, 71, 52
13, 40079, Note_on_c, 11, 71, 0
13, 40080, Note_on_c, 11, 78, 52
13, 40199, Note_on_c, 11, 78, 0
13, 40320, Note_on_c, 11, 70, 52
13, 40559, Note_on_c, 11, 70, 0
13, 40560, Note_on_c, 11, 69, 52
13, 40799, Note_on_c, 11, 69, 0
13, 42240, Note_on_c, 11, 70, 52
13, 42479, Note_on_c, 11, 70, 0
13, 42480, Note_on_c, 11, 73, 52
13, 42599, Note_on_c, 11, 73, 0
13, 42720, Note_on_c, 11, 66, 52
13, 42959, Note_on_c, 11, 66, 0
13, 42960, Note_on_c, 11, 73, 52
13, 43079, Note_on_c, 11, 73, 0
13, 43200, Note_on_c, 11, 65, 52
13, 43439, Note_on_c, 11, 65, 0
13, 43440, Note_on_c, 11, 64, 52
13, 43679, Note_on_c, 11, 64, 0
13, 45120, Note_on_c, 11, 65, 52
13, 45359, Note_on_c, 11, 65, 0
13, 45360, Note_on_c, 11, 68, 52
13, 45479, Note_on_c, 11, 68, 0
13, 45600, Note_on_c, 11, 59, 52
13, 45839, Note_on_c, 11, 59, 0
13, 46560, Note_on_c, 11, 72, 52
13, 46799, Note_on_c, 11, 72, 0
13, 46800, Note_on_c, 11, 75, 52
13, 46919, Note_on_c, 11, 75, 0
13, 47040, Note_on_c, 11, 66, 52
13, 47279, Note_on_c, 11, 66, 0
13, 48000, Note_on_c, 11, 67, 52
13, 48239, Note_on_c, 11, 67, 0
13, 48240, Note_on_c, 11, 70, 52
13, 48359, Note_on_c, 11, 70, 0
13, 48480, Note_on_c, 11, 61, 52
13, 48719, Note_on_c, 11, 61, 0
13, 49200, Control_c, 11, 11, 80
13, 49310, Control_c, 11, 11, 82
13, 49420, Control_c, 11, 11, 84
13, 49440, Note_on_c, 11, 65, 76
13, 49530, Control_c, 11, 11, 86
13, 49640, Control_c, 11, 11, 88
13, 49679, Note_on_c, 11, 65, 0
13, 49680, Note_on_c, 11, 69, 76
13, 49750, Control_c, 11, 11, 90
13, 49799, Note_on_c, 11, 69, 0
13, 49860, Control_c, 11, 11, 92
13, 49920, Note_on_c, 11, 63, 76
13, 49970, Control_c, 11, 11, 94
13, 50080, Control_c, 11, 11, 96
13, 50159, Note_on_c, 11, 63, 0
13, 50160, Note_on_c, 11, 69, 76
13, 50190, Control_c, 11, 11, 98
13, 50279, Note_on_c, 11, 69, 0
13, 50300, Control_c, 11, 11, 100
13, 50400, Note_on_c, 11, 69, 76
13, 50410, Control_c, 11, 11, 102
13, 50520, Control_c, 11, 11, 104
13, 50630, Control_c, 11, 11, 105
13, 50639, Note_on_c, 11, 69, 0
13, 50640, Note_on_c, 11, 72, 76
13, 50740, Control_c, 11, 11, 107
13, 50759, Note_on_c, 11, 72, 0
13, 50850, Control_c, 11, 11, 109
13, 50880, Note_on_c, 11, 72, 76
13, 50960, Control_c, 11, 11, 111
13, 51070, Control_c, 11, 11, 113
13, 51119, Note_on_c, 11, 72, 0
13, 51120, Note_on_c, 11, 75, 76
13, 51180, Control_c, 11, 11, 115
13, 51239, Note_on_c, 11, 75, 0
13, 51290, Control_c, 11, 11, 117
13, 51360, Note_on_c, 11, 75, 76
13, 51400, Control_c, 11, 11, 119
13, 51510, Control_c, 11, 11, 121
13, 51599, Note_on_c, 11, 75, 0
13, 51600, Note_on_c, 11, 81, 76
13, 51620, Control_c, 11, 11, 123
13, 51719, Note_on_c, 11, 81, 0
13, 51730, Control_c, 11, 11, 127
13, 51840, Note_on_c, 11, 81, 76
13, 52079, Note_on_c, 11, 81, 0
13, 52080, Note_on_c, 11, 82, 84
13, 52199, Note_on_c, 11, 82, 0
13, 52320, Note_on_c, 11, 77, 84
13, 52559, Note_on_c, 11, 77, 0
13, 52560, Note_on_c, 11, 86, 84
13, 52679, Note_on_c, 11, 86, 0
13, 52800, Note_on_c, 11, 82, 84
13, 53039, Note_on_c, 11, 82, 0
13, 53040, Note_on_c, 11, 89, 84
13, 53159, Note_on_c, 11, 89, 0
13, 53280, Note_on_c, 11, 86, 84
13, 53489, Note_on_c, 11, 86, 0
13, 53520, Note_on_c, 11, 89, 84
13, 53759, Note_on_c, 11, 89, 0
13, 53760, Note_on_c, 11, 87, 84
13, 53969, Note_on_c, 11, 87, 0
13, 54000, Note_on_c, 11, 84, 84
13, 54179, Note_on_c, 11, 84, 0
13, 54240, Note_on_c, 11, 81, 84
13, 54479, Note_on_c, 11, 81, 0
13, 56160, Note_on_c, 11, 78, 52
13, 56399, Note_on_c, 11, 78, 0
13, 56400, Note_on_c, 11, 75, 52
13, 56639, Note_on_c, 11, 75, 0
13, 56640, Note_on_c, 11, 72, 52
13, 56879, Note_on_c, 11, 72, 0
13, 56880, Note_on_c, 11, 69, 52
13, 57119, Note_on_c, 11, 69, 0
13, 57120, Note_on_c, 11, 66, 52
13, 57359, Note_on_c, 11, 66, 0
13, 57360, Note_on_c, 11, 65, 52
13, 57599, Note_on_c, 11, 65, 0
13, 59040, Note_on_c, 11, 80, 52
13, 59279, Note_on_c, 11, 80, 0
13, 59280, Note_on_c, 11, 77, 52
13, 59519, Note_on_c, 11, 77, 0
13, 59520, Note_on_c, 11, 74, 52
13, 59759, Note_on_c, 11, 74, 0
13, 59760, Note_on_c, 11, 71, 52
13, 59999, Note_on_c, 11, 71, 0
13, 60000, Note_on_c, 11, 68, 52
13, 60239, Note_on_c, 11, 68, 0
13, 60240, Note_on_c, 11, 67, 52
13, 60449, Note_on_c, 11, 67, 0
13, 60480, Note_on_c, 11, 73, 52
13, 60719, Note_on_c, 11, 73, 0
13, 60720, Note_on_c, 11, 70, 52
13, 60959, Note_on_c, 11, 70, 0
13, 60960, Note_on_c, 11, 67, 52
13, 61199, Note_on_c, 11, 67, 0
13, 61200, Note_on_c, 11, 64, 52
13, 61439, Note_on_c, 11, 64, 0
13, 61440, Note_on_c, 11, 61, 52
13, 61679, Note_on_c, 11, 61, 0
13, 61680, Note_on_c, 11, 60, 52
13, 61889, Note_on_c, 11, 60, 0
13, 61918, Control_c, 11, 11, 96
13, 61920, Note_on_c, 11, 64, 68
13, 62159, Note_on_c, 11, 64, 0
13, 62160, Note_on_c, 11, 65, 68
13, 63599, Note_on_c, 11, 65, 0
13, 63600, Control_c, 11, 11, 96
13, 63600, Note_on_c, 11, 65, 68
13, 63680, Control_c, 11, 11, 99
13, 63760, Control_c, 11, 11, 101
13, 63840, Control_c, 11, 11, 104
13, 63920, Control_c, 11, 11, 106
13, 64000, Control_c, 11, 11, 109
13, 64080, Control_c, 11, 11, 112
13, 64160, Control_c, 11, 11, 114
13, 64240, Control_c, 11, 11, 117
13, 64320, Control_c, 11, 11, 119
13, 64400, Control_c, 11, 11, 122
13, 64480, Control_c, 11, 11, 127
13, 64769, Note_on_c, 11, 65, 0
13, 64800, Note_on_c, 11, 66, 76
13, 65038, Control_c, 11, 11, 96
13, 65039, Note_on_c, 11, 66, 0
13, 65040, Note_on_c, 11, 65, 68
13, 66479, Note_on_c, 11, 65, 0
13, 66480, Note_on_c, 11, 65, 68
13, 66480, Control_c, 11, 11, 96
13, 66560, Control_c, 11, 11, 99
13, 66640, Control_c, 11, 11, 101
13, 66720, Control_c, 11, 11, 104
13, 66800, Control_c, 11, 11, 106
13, 66880, Control_c, 11, 11, 109
13, 66960, Control_c, 11, 11, 112
13, 67040, Control_c, 11, 11, 114
13, 67120, Control_c, 11, 11, 117
13, 67200, Control_c, 11, 11, 119
13, 67280, Control_c, 11, 11, 122
13, 67360, Control_c, 11, 11, 127
13, 67649, Note_on_c, 11, 65, 0
13, 67680, Note_on_c, 11, 66, 76
13, 67919, Note_on_c, 11, 66, 0
13, 67920, Note_on_c, 11, 65, 68
13, 68129, Note_on_c, 11, 65, 0
13, 68160, Note_on_c, 11, 69, 76
13, 68160, Note_on_c, 11, 81, 76
13, 68609, Note_on_c, 11, 69, 0
13, 68609, Note_on_c, 11, 81, 0
13, 68640, Note_on_c, 11, 82, 76
13, 68640, Note_on_c, 11, 70, 76
13, 69089, Note_on_c, 11, 82, 0
13, 69089, Note_on_c, 11, 70, 0
13, 69120, Note_on_c, 11, 79, 76
13, 69329, Note_on_c, 11, 79, 0
13, 69360, Note_on_c, 11, 77, 84
13, 70049, Note_on_c, 11, 77, 0
13, 70080, Note_on_c, 11, 81, 84
13, 70080, Note_on_c, 11, 72, 84
13, 70769, Note_on_c, 11, 81, 0
13, 70769, Note_on_c, 11, 72, 0
13, 70800, Note_on_c, 11, 74, 84
13, 70800, Note_on_c, 11, 82, 84
13, 70904, Note_on_c, 11, 74, 0
13, 70904, Note_on_c, 11, 82, 0
13, 70920, Note_on_c, 11, 82, 84
13, 70920, Note_on_c, 11, 74, 84
13, 71024, Note_on_c, 11, 82, 0
13, 71024, Note_on_c, 11, 74, 0
13, 71040, Note_on_c, 11, 82, 84
13, 71040, Note_on_c, 11, 74, 84
13, 71144, Note_on_c, 11, 82, 0
13, 71144, Note_on_c, 11, 74, 0
13, 71160, Note_on_c, 11, 82, 84
13, 71160, Note_on_c, 11, 74, 84
13, 71264, Note_on_c, 11, 82, 0
13, 71264, Note_on_c, 11, 74, 0
13, 71280, Note_on_c, 11, 74, 84
13, 71280, Note_on_c, 11, 82, 84
13, 71384, Note_on_c, 11, 74, 0
13, 71384, Note_on_c, 11, 82, 0
13, 71400, Note_on_c, 11, 82, 84
13, 71400, Note_on_c, 11, 74, 84
13, 71504, Note_on_c, 11, 82, 0
13, 71504, Note_on_c, 11, 74, 0
13, 71520, Note_on_c, 11, 82, 84
13, 71520, Note_on_c, 11, 74, 84
13, 71624, Note_on_c, 11, 82, 0
13, 71624, Note_on_c, 11, 74, 0
13, 71640, Note_on_c, 11, 74, 84
13, 71640, Note_on_c, 11, 82, 84
13, 71744, Note_on_c, 11, 74, 0
13, 71744, Note_on_c, 11, 82, 0
13, 71760, Note_on_c, 11, 74, 84
13, 71760, Note_on_c, 11, 82, 84
13, 71864, Note_on_c, 11, 74, 0
13, 71864, Note_on_c, 11, 82, 0
13, 71880, Note_on_c, 11, 74, 84
13, 71880, Note_on_c, 11, 82, 84
13, 71984, Note_on_c, 11, 74, 0
13, 71984, Note_on_c, 11, 82, 0
13, 72000, Note_on_c, 11, 82, 84
13, 72000, Note_on_c, 11, 74, 84
13, 72104, Note_on_c, 11, 82, 0
13, 72104, Note_on_c, 11, 74, 0
13, 72120, Note_on_c, 11, 74, 84
13, 72120, Note_on_c, 11, 82, 84
13, 72224, Note_on_c, 11, 74, 0
13, 72224, Note_on_c, 11, 82, 0
13, 72240, Note_on_c, 11, 81, 84
13, 72479, Note_on_c, 11, 81, 0
13, 72480, Note_on_c, 11, 77, 84
13, 72599, Note_on_c, 11, 77, 0
13, 72720, Note_on_c, 11, 84, 84
13, 72959, Note_on_c, 11, 84, 0
13, 72960, Note_on_c, 11, 81, 84
13, 73079, Note_on_c, 11, 81, 0
13, 73200, Note_on_c, 11, 87, 84
13, 73439, Note_on_c, 11, 87, 0
13, 73440, Note_on_c, 11, 84, 84
13, 73559, Note_on_c, 11, 84, 0
13, 73680, Note_on_c, 11, 74, 84
13, 73680, Note_on_c, 11, 82, 84
13, 73784, Note_on_c, 11, 74, 0
13, 73784, Note_on_c, 11, 82, 0
13, 73800, Note_on_c, 11, 82, 84
13, 73800, Note_on_c, 11, 74, 84
13, 73904, Note_on_c, 11, 82, 0
13, 73904, Note_on_c, 11, 74, 0
13, 73920, Note_on_c, 11, 74, 84
13, 73920, Note_on_c, 11, 82, 84
13, 74024, Note_on_c, 11, 74, 0
13, 74024, Note_on_c, 11, 82, 0
13, 74040, Note_on_c, 11, 74, 84
13, 74040, Note_on_c, 11, 82, 84
13, 74144, Note_on_c, 11, 74, 0
13, 74144, Note_on_c, 11, 82, 0
13, 74160, Note_on_c, 11, 82, 84
13, 74160, Note_on_c, 11, 74, 84
13, 74264, Note_on_c, 11, 82, 0
13, 74264, Note_on_c, 11, 74, 0
13, 74280, Note_on_c, 11, 74, 84
13, 74280, Note_on_c, 11, 82, 84
13, 74384, Note_on_c, 11, 74, 0
13, 74384, Note_on_c, 11, 82, 0
13, 74400, Note_on_c, 11, 74, 84
13, 74400, Note_on_c, 11, 82, 84
13, 74504, Note_on_c, 11, 74, 0
13, 74504, Note_on_c, 11, 82, 0
13, 74520, Note_on_c, 11, 74, 84
13, 74520, Note_on_c, 11, 82, 84
13, 74624, Note_on_c, 11, 74, 0
13, 74624, Note_on_c, 11, 82, 0
13, 74640, Note_on_c, 11, 82, 84
13, 74640, Note_on_c, 11, 74, 84
13, 74744, Note_on_c, 11, 82, 0
13, 74744, Note_on_c, 11, 74, 0
13, 74760, Note_on_c, 11, 82, 84
13, 74760, Note_on_c, 11, 74, 84
13, 74864, Note_on_c, 11, 82, 0
13, 74864, Note_on_c, 11, 74, 0
13, 74880, Note_on_c, 11, 74, 84
13, 74880, Note_on_c, 11, 82, 84
13, 74984, Note_on_c, 11, 74, 0
13, 74984, Note_on_c, 11, 82, 0
13, 75000, Note_on_c, 11, 82, 84
13, 75000, Note_on_c, 11, 74, 84
13, 75104, Note_on_c, 11, 82, 0
13, 75104, Note_on_c, 11, 74, 0
13, 75120, Note_on_c, 11, 81, 84
13, 75359, Note_on_c, 11, 81, 0
13, 75360, Note_on_c, 11, 77, 84
13, 75479, Note_on_c, 11, 77, 0
13, 75600, Note_on_c, 11, 84, 84
13, 75839, Note_on_c, 11, 84, 0
13, 75840, Note_on_c, 11, 81, 84
13, 75959, Note_on_c, 11, 81, 0
13, 76080, Note_on_c, 11, 87, 84
13, 76319, Note_on_c, 11, 87, 0
13, 76320, Note_on_c, 11, 84, 84
13, 76439, Note_on_c, 11, 84, 0
13, 76560, Note_on_c, 11, 82, 76
13, 76560, Note_on_c, 11, 74, 76
13, 77249, Note_on_c, 11, 82, 0
13, 77249, Note_on_c, 11, 74, 0
13, 77280, Note_on_c, 11, 86, 76
13, 77280, Note_on_c, 11, 74, 76
13, 77969, Note_on_c, 11, 86, 0
13, 77969, Note_on_c, 11, 74, 0
13, 78000, Note_on_c, 11, 89, 76
13, 78209, Note_on_c, 11, 89, 0
13, 78240, Note_on_c, 11, 89, 76
13, 78449, Note_on_c, 11, 89, 0
13, 78480, Note_on_c, 11, 89, 76
13, 78689, Note_on_c, 11, 89, 0
13, 78720, Note_on_c, 11, 82, 76
13, 78959, Note_on_c, 11, 82, 0
13, 79200, Note_on_c, 11, 68, 52
13, 79439, Note_on_c, 11, 68, 0
13, 79440, Note_on_c, 11, 73, 52
13, 79559, Note_on_c, 11, 73, 0
13, 79680, Note_on_c, 11, 68, 52
13, 79919, Note_on_c, 11, 68, 0
13, 79920, Note_on_c, 11, 77, 52
13, 80039, Note_on_c, 11, 77, 0
13, 80160, Note_on_c, 11, 73, 52
13, 80399, Note_on_c, 11, 73, 0
13, 80400, Note_on_c, 11, 80, 52
13, 80519, Note_on_c, 11, 80, 0
13, 80640, Note_on_c, 11, 77, 52
13, 80879, Note_on_c, 11, 77, 0
13, 80880, Note_on_c, 11, 80, 52
13, 81119, Note_on_c, 11, 80, 0
13, 81120, Note_on_c, 11, 78, 52
13, 81239, Note_on_c, 11, 78, 0
13, 81360, Note_on_c, 11, 75, 52
13, 81599, Note_on_c, 11, 75, 0
13, 81600, Note_on_c, 11, 72, 52
13, 81719, Note_on_c, 11, 72, 0
13, 83280, Note_on_c, 11, 78, 52
13, 83519, Note_on_c, 11, 78, 0
13, 83520, Note_on_c, 11, 75, 52
13, 83759, Note_on_c, 11, 75, 0
13, 83760, Note_on_c, 11, 82, 52
13, 83999, Note_on_c, 11, 82, 0
13, 84000, Note_on_c, 11, 80, 52
13, 84119, Note_on_c, 11, 80, 0
13, 84240, Note_on_c, 11, 77, 52
13, 84479, Note_on_c, 11, 77, 0
13, 84480, Note_on_c, 11, 73, 52
13, 84599, Note_on_c, 11, 73, 0
13, 86160, Note_on_c, 11, 80, 52
13, 86399, Note_on_c, 11, 80, 0
13, 86400, Note_on_c, 11, 77, 52
13, 86639, Note_on_c, 11, 77, 0
13, 86640, Note_on_c, 11, 82, 52
13, 86879, Note_on_c, 11, 82, 0
13, 86880, Note_on_c, 11, 80, 52
13, 86999, Note_on_c, 11, 80, 0
13, 87120, Note_on_c, 11, 77, 52
13, 87359, Note_on_c, 11, 77, 0
13, 87360, Note_on_c, 11, 74, 52
13, 87479, Note_on_c, 11, 74, 0
13, 89040, Note_on_c, 11, 80, 52
13, 89279, Note_on_c, 11, 80, 0
13, 89280, Note_on_c, 11, 77, 52
13, 89519, Note_on_c, 11, 77, 0
13, 89520, Note_on_c, 11, 78, 52
13, 89639, Note_on_c, 11, 78, 0
13, 89760, Note_on_c, 11, 75, 52
13, 89999, Note_on_c, 11, 75, 0
13, 90000, Note_on_c, 11, 78, 52
13, 90119, Note_on_c, 11, 78, 0
13, 90240, Note_on_c, 11, 71, 52
13, 90479, Note_on_c, 11, 71, 0
13, 90480, Note_on_c, 11, 78, 52
13, 90599, Note_on_c, 11, 78, 0
13, 90720, Note_on_c, 11, 70, 52
13, 90959, Note_on_c, 11, 70, 0
13, 90960, Note_on_c, 11, 69, 52
13, 91199, Note_on_c, 11, 69, 0
13, 92640, Note_on_c, 11, 70, 52
13, 92879, Note_on_c, 11, 70, 0
13, 92880, Note_on_c, 11, 73, 52
13, 92999, Note_on_c, 11, 73, 0
13, 93120, Note_on_c, 11, 66, 52
13, 93359, Note_on_c, 11, 66, 0
13, 93360, Note_on_c, 11, 73, 52
13, 93479, Note_on_c, 11, 73, 0
13, 93600, Note_on_c, 11, 65, 52
13, 93839, Note_on_c, 11, 65, 0
13, 93840, Note_on_c, 11, 64, 52
13, 94079, Note_on_c, 11, 64, 0
13, 95520, Note_on_c, 11, 65, 52
13, 95759, Note_on_c, 11, 65, 0
13, 95760, Note_on_c, 11, 68, 52
13, 95879, Note_on_c, 11, 68, 0
13, 96000, Note_on_c, 11, 59, 52
13, 96239, Note_on_c, 11, 59, 0
13, 96960, Note_on_c, 11, 72, 52
13, 97199, Note_on_c, 11, 72, 0
13, 97200, Note_on_c, 11, 75, 52
13, 97319, Note_on_c, 11, 75, 0
13, 97440, Note_on_c, 11, 66, 52
13, 97679, Note_on_c, 11, 66, 0
13, 98400, Note_on_c, 11, 67, 52
13, 98639, Note_on_c, 11, 67, 0
13, 98640, Note_on_c, 11, 70, 52
13, 98759, Note_on_c, 11, 70, 0
13, 98880, Note_on_c, 11, 61, 52
13, 99119, Note_on_c, 11, 61, 0
13, 99600, Control_c, 11, 11, 80
13, 99710, Control_c, 11, 11, 82
13, 99820, Control_c, 11, 11, 84
13, 99840, Note_on_c, 11, 65, 76
13, 99930, Control_c, 11, 11, 86
13, 100040, Control_c, 11, 11, 88
13, 100079, Note_on_c, 11, 65, 0
13, 100080, Note_on_c, 11, 69, 76
13, 100150, Control_c, 11, 11, 90
13, 100199, Note_on_c, 11, 69, 0
13, 100260, Control_c, 11, 11, 92
13, 100320, Note_on_c, 11, 63, 76
13, 100370, Control_c, 11, 11, 94
13, 100480, Control_c, 11, 11, 96
13, 100559, Note_on_c, 11, 63, 0
13, 100560, Note_on_c, 11, 69, 76
13, 100590, Control_c, 11, 11, 98
13, 100679, Note_on_c, 11, 69, 0
13, 100700, Control_c, 11, 11, 100
13, 100800, Note_on_c, 11, 69, 76
13, 100810, Control_c, 11, 11, 102
13, 100920, Control_c, 11, 11, 104
13, 101030, Control_c, 11, 11, 105
13, 101039, Note_on_c, 11, 69, 0
13, 101040, Note_on_c, 11, 72, 76
13, 101140, Control_c, 11, 11, 107
13, 101159, Note_on_c, 11, 72, 0
13, 101250, Control_c, 11, 11, 109
13, 101280, Note_on_c, 11, 72, 76
13, 101360, Control_c, 11, 11, 111
13, 101470, Control_c, 11, 11, 113
13, 101519, Note_on_c, 11, 72, 0
13, 101520, Note_on_c, 11, 75, 76
13, 101580, Control_c, 11, 11, 115
13, 101639, Note_on_c, 11, 75, 0
13, 101690, Control_c, 11, 11, 117
13, 101760, Note_on_c, 11, 75, 76
13, 101800, Control_c, 11, 11, 119
13, 101910, Control_c, 11, 11, 121
13, 101999, Note_on_c, 11, 75, 0
13, 102000, Note_on_c, 11, 81, 76
13, 102020, Control_c, 11, 11, 123
13, 102119, Note_on_c, 11, 81, 0
13, 102130, Control_c, 11, 11, 127
13, 102240, Note_on_c, 11, 81, 76
13, 102479, Note_on_c, 11, 81, 0
13, 102480, Note_on_c, 11, 82, 84
13, 102599, Note_on_c, 11, 82, 0
13, 102720, Note_on_c, 11, 77, 84
13, 102959, Note_on_c, 11, 77, 0
13, 102960, Note_on_c, 11, 86, 84
13, 103079, Note_on_c, 11, 86, 0
13, 103200, Note_on_c, 11, 82, 84
13, 103439, Note_on_c, 11, 82, 0
13, 103440, Note_on_c, 11, 89, 84
13, 103559, Note_on_c, 11, 89, 0
13, 103680, Note_on_c, 11, 86, 84
13, 103889, Note_on_c, 11, 86, 0
13, 103920, Note_on_c, 11, 89, 84
13, 104159, Note_on_c, 11, 89, 0
13, 104160, Note_on_c, 11, 87, 84
13, 104369, Note_on_c, 11, 87, 0
13, 104400, Note_on_c, 11, 84, 84
13, 104579, Note_on_c, 11, 84, 0
13, 104640, Note_on_c, 11, 81, 84
13, 104879, Note_on_c, 11, 81, 0
13, 106560, Note_on_c, 11, 78, 52
13, 106799, Note_on_c, 11, 78, 0
13, 106800, Note_on_c, 11, 75, 52
13, 107039, Note_on_c, 11, 75, 0
13, 107040, Note_on_c, 11, 72, 52
13, 107279, Note_on_c, 11, 72, 0
13, 107280, Note_on_c, 11, 69, 52
13, 107519, Note_on_c, 11, 69, 0
13, 107520, Note_on_c, 11, 66, 52
13, 107759, Note_on_c, 11, 66, 0
13, 107760, Note_on_c, 11, 65, 52
13, 107999, Note_on_c, 11, 65, 0
13, 109440, Note_on_c, 11, 80, 52
13, 109679, Note_on_c, 11, 80, 0
13, 109680, Note_on_c, 11, 77, 52
13, 109919, Note_on_c, 11, 77, 0
13, 109920, Note_on_c, 11, 74, 52
13, 110159, Note_on_c, 11, 74, 0
13, 110160, Note_on_c, 11, 71, 52
13, 110399, Note_on_c, 11, 71, 0
13, 110400, Note_on_c, 11, 68, 52
13, 110639, Note_on_c, 11, 68, 0
13, 110640, Note_on_c, 11, 67, 52
13, 110849, Note_on_c, 11, 67, 0
13, 110880, Note_on_c, 11, 73, 52
13, 111119, Note_on_c, 11, 73, 0
13, 111120, Note_on_c, 11, 70, 52
13, 111359, Note_on_c, 11, 70, 0
13, 111360, Note_on_c, 11, 67, 52
13, 111599, Note_on_c, 11, 67, 0
13, 111600, Note_on_c, 11, 64, 52
13, 111839, Note_on_c, 11, 64, 0
13, 111840, Note_on_c, 11, 61, 52
13, 112079, Note_on_c, 11, 61, 0
13, 112080, Note_on_c, 11, 60, 52
13, 112289, Note_on_c, 11, 60, 0
13, 112318, Control_c, 11, 11, 96
13, 112320, Note_on_c, 11, 64, 68
13, 112559, Note_on_c, 11, 64, 0
13, 112560, Note_on_c, 11, 65, 68
13, 113999, Note_on_c, 11, 65, 0
13, 114000, Control_c, 11, 11, 96
13, 114000, Note_on_c, 11, 65, 68
13, 114080, Control_c, 11, 11, 99
13, 114160, Control_c, 11, 11, 101
13, 114240, Control_c, 11, 11, 104
13, 114320, Control_c, 11, 11, 106
13, 114400, Control_c, 11, 11, 109
13, 114480, Control_c, 11, 11, 112
13, 114560, Control_c, 11, 11, 114
13, 114640, Control_c, 11, 11, 117
13, 114720, Control_c, 11, 11, 119
13, 114800, Control_c, 11, 11, 122
13, 114880, Control_c, 11, 11, 127
13, 115169, Note_on_c, 11, 65, 0
13, 115200, Note_on_c, 11, 66, 76
13, 115438, Control_c, 11, 11, 96
13, 115439, Note_on_c, 11, 66, 0
13, 115440, Note_on_c, 11, 65, 68
13, 116879, Note_on_c, 11, 65, 0
13, 116880, Note_on_c, 11, 65, 68
13, 116880, Control_c, 11, 11, 96
13, 116960, Control_c, 11, 11, 99
13, 117040, Control_c, 11, 11, 101
13, 117120, Control_c, 11, 11, 104
13, 117200, Control_c, 11, 11, 106
13, 117280, Control_c, 11, 11, 109
13, 117360, Control_c, 11, 11, 112
13, 117440, Control_c, 11, 11, 114
13, 117520, Control_c, 11, 11, 117
13, 117600, Control_c, 11, 11, 119
13, 117680, Control_c, 11, 11, 122
13, 117760, Control_c, 11, 11, 127
13, 118049, Note_on_c, 11, 65, 0
13, 118080, Note_on_c, 11, 66, 76
13, 118319, Note_on_c, 11, 66, 0
13, 118320, Note_on_c, 11, 65, 68
13, 118529, Note_on_c, 11, 65, 0
13, 118560, Note_on_c, 11, 81, 76
13, 118560, Note_on_c, 11, 69, 76
13, 119009, Note_on_c, 11, 81, 0
13, 119009, Note_on_c, 11, 69, 0
13, 119040, Note_on_c, 11, 70, 76
13, 119040, Note_on_c, 11, 82, 76
13, 119489, Note_on_c, 11, 70, 0
13, 119489, Note_on_c, 11, 82, 0
13, 119520, Note_on_c, 11, 79, 76
13, 119729, Note_on_c, 11, 79, 0
13, 119760, Note_on_c, 11, 77, 84
13, 120449, Note_on_c, 11, 77, 0
13, 120480, Note_on_c, 11, 72, 84
13, 120480, Note_on_c, 11, 81, 84
13, 121169, Note_on_c, 11, 72, 0
13, 121169, Note_on_c, 11, 81, 0
13, 121200, Note_on_c, 11, 82, 84
13, 121200, Note_on_c, 11, 74, 84
13, 121304, Note_on_c, 11, 82, 0
13, 121304, Note_on_c, 11, 74, 0
13, 121320, Note_on_c, 11, 82, 84
13, 121320, Note_on_c, 11, 74, 84
13, 121424, Note_on_c, 11, 82, 0
13, 121424, Note_on_c, 11, 74, 0
13, 121440, Note_on_c, 11, 82, 84
13, 121440, Note_on_c, 11, 74, 84
13, 121544, Note_on_c, 11, 82, 0
13, 121544, Note_on_c, 11, 74, 0
13, 121560, Note_on_c, 11, 82, 84
13, 121560, Note_on_c, 11, 74, 84
13, 121664, Note_on_c, 11, 82, 0
13, 121664, Note_on_c, 11, 74, 0
13, 121680, Note_on_c, 11, 74, 84
13, 121680, Note_on_c, 11, 82, 84
13, 121784, Note_on_c, 11, 74, 0
13, 121784, Note_on_c, 11, 82, 0
13, 121800, Note_on_c, 11, 74, 84
13, 121800, Note_on_c, 11, 82, 84
13, 121904, Note_on_c, 11, 74, 0
13, 121904, Note_on_c, 11, 82, 0
13, 121920, Note_on_c, 11, 82, 84
13, 121920, Note_on_c, 11, 74, 84
13, 122024, Note_on_c, 11, 82, 0
13, 122024, Note_on_c, 11, 74, 0
13, 122040, Note_on_c, 11, 82, 84
13, 122040, Note_on_c, 11, 74, 84
13, 122144, Note_on_c, 11, 82, 0
13, 122144, Note_on_c, 11, 74, 0
13, 122160, Note_on_c, 11, 82, 84
13, 122160, Note_on_c, 11, 74, 84
13, 122264, Note_on_c, 11, 82, 0
13, 122264, Note_on_c, 11, 74, 0
13, 122280, Note_on_c, 11, 74, 84
13, 122280, Note_on_c, 11, 82, 84
13, 122384, Note_on_c, 11, 74, 0
13, 122384, Note_on_c, 11, 82, 0
13, 122400, Note_on_c, 11, 82, 84
13, 122400, Note_on_c, 11, 74, 84
13, 122504, Note_on_c, 11, 82, 0
13, 122504, Note_on_c, 11, 74, 0
13, 122520, Note_on_c, 11, 82, 84
13, 122520, Note_on_c, 11, 74, 84
13, 122624, Note_on_c, 11, 82, 0
13, 122624, Note_on_c, 11, 74, 0
13, 122640, Note_on_c, 11, 81, 84
13, 122879, Note_on_c, 11, 81, 0
13, 122880, Note_on_c, 11, 77, 84
13, 122999, Note_on_c, 11, 77, 0
13, 123120, Note_on_c, 11, 84, 84
13, 123359, Note_on_c, 11, 84, 0
13, 123360, Note_on_c, 11, 81, 84
13, 123479, Note_on_c, 11, 81, 0
13, 123600, Note_on_c, 11, 87, 84
13, 123839, Note_on_c, 11, 87, 0
13, 123840, Note_on_c, 11, 84, 84
13, 123959, Note_on_c, 11, 84, 0
13, 124080, Note_on_c, 11, 82, 84
13, 124080, Note_on_c, 11, 74, 84
13, 124184, Note_on_c, 11, 82, 0
13, 124184, Note_on_c, 11, 74, 0
13, 124200, Note_on_c, 11, 82, 84
13, 124200, Note_on_c, 11, 74, 84
13, 124304, Note_on_c, 11, 82, 0
13, 124304, Note_on_c, 11, 74, 0
13, 124320, Note_on_c, 11, 74, 84
13, 124320, Note_on_c, 11, 82, 84
13, 124424, Note_on_c, 11, 74, 0
13, 124424, Note_on_c, 11, 82, 0
13, 124440, Note_on_c, 11, 74, 84
13, 124440, Note_on_c, 11, 82, 84
13, 124544, Note_on_c, 11, 74, 0
13, 124544, Note_on_c, 11, 82, 0
13, 124560, Note_on_c, 11, 82, 84
13, 124560, Note_on_c, 11, 74, 84
13, 124664, Note_on_c, 11, 82, 0
13, 124664, Note_on_c, 11, 74, 0
13, 124680, Note_on_c, 11, 82, 84
13, 124680, Note_on_c, 11, 74, 84
13, 124784, Note_on_c, 11, 82, 0
13, 124784, Note_on_c, 11, 74, 0
13, 124800, Note_on_c, 11, 74, 84
13, 124800, Note_on_c, 11, 82, 84
13, 124904, Note_on_c, 11, 74, 0
13, 124904, Note_on_c, 11, 82, 0
13, 124920, Note_on_c, 11, 82, 84
13, 124920, Note_on_c, 11, 74, 84
13, 125024, Note_on_c, 11, 82, 0
13, 125024, Note_on_c, 11, 74, 0
13, 125040, Note_on_c, 11, 82, 84
13, 125040, Note_on_c, 11, 74, 84
13, 125144, Note_on_c, 11, 82, 0
13, 125144, Note_on_c, 11, 74, 0
13, 125160, Note_on_c, 11, 82, 84
13, 125160, Note_on_c, 11, 74, 84
13, 125264, Note_on_c, 11, 82, 0
13, 125264, Note_on_c, 11, 74, 0
13, 125280, Note_on_c, 11, 82, 84
13, 125280, Note_on_c, 11, 74, 84
13, 125384, Note_on_c, 11, 82, 0
13, 125384, Note_on_c, 11, 74, 0
13, 125400, Note_on_c, 11, 74, 84
13, 125400, Note_on_c, 11, 82, 84
13, 125504, Note_on_c, 11, 74, 0
13, 125504, Note_on_c, 11, 82, 0
13, 125520, Note_on_c, 11, 81, 84
13, 125759, Note_on_c, 11, 81, 0
13, 125760, Note_on_c, 11, 77, 84
13, 125879, Note_on_c, 11, 77, 0
13, 126000, Note_on_c, 11, 84, 84
13, 126239, Note_on_c, 11, 84, 0
13, 126240, Note_on_c, 11, 81, 84
13, 126359, Note_on_c, 11, 81, 0
13, 126480, Note_on_c, 11, 87, 84
13, 126719, Note_on_c, 11, 87, 0
13, 126720, Note_on_c, 11, 84, 84
13, 126839, Note_on_c, 11, 84, 0
13, 126960, Note_on_c, 11, 82, 76
13, 126960, Note_on_c, 11, 74, 76
13, 127649, Note_on_c, 11, 82, 0
13, 127649, Note_on_c, 11, 74, 0
13, 127680, Note_on_c, 11, 86, 76
13, 127680, Note_on_c, 11, 74, 76
13, 128369, Note_on_c, 11, 86, 0
13, 128369, Note_on_c, 11, 74, 0
13, 128400, Note_on_c, 11, 89, 76
13, 128609, Note_on_c, 11, 89, 0
13, 128640, Note_on_c, 11, 89, 76
13, 128849, Note_on_c, 11, 89, 0
13, 128880, Note_on_c, 11, 89, 76
13, 129089, Note_on_c, 11, 89, 0
13, 129120, Note_on_c, 11, 82, 76
13, 129359, Note_on_c, 11, 82, 0
13, 131480, Note_on_c, 11, 71, 52
13, 131519, Note_on_c, 11, 71, 0
13, 131520, Note_on_c, 11, 72, 52
13, 131699, Note_on_c, 11, 72, 0
13, 131720, Note_on_c, 11, 74, 52
13, 131759, Note_on_c, 11, 74, 0
13, 131760, Note_on_c, 11, 75, 52
13, 131969, Note_on_c, 11, 75, 0
13, 132000, Note_on_c, 11, 79, 76
13, 132120, Control_c, 11, 11, 112
13, 132170, Control_c, 11, 11, 109
13, 132220, Control_c, 11, 11, 107
13, 132270, Control_c, 11, 11, 104
13, 132320, Control_c, 11, 11, 101
13, 132370, Control_c, 11, 11, 99
13, 132420, Control_c, 11, 11, 96
13, 132470, Control_c, 11, 11, 93
13, 132479, Note_on_c, 11, 79, 0
13, 132480, Note_on_c, 11, 75, 76
13, 132520, Control_c, 11, 11, 91
13, 132570, Control_c, 11, 11, 88
13, 132599, Note_on_c, 11, 75, 0
13, 132600, Note_on_c, 11, 72, 76
13, 132620, Control_c, 11, 11, 85
13, 132670, Control_c, 11, 11, 83
13, 132719, Note_on_c, 11, 72, 0
13, 134160, Control_c, 11, 11, 127
13, 134360, Note_on_c, 11, 73, 52
13, 134399, Note_on_c, 11, 73, 0
13, 134400, Note_on_c, 11, 74, 52
13, 134579, Note_on_c, 11, 74, 0
13, 134600, Note_on_c, 11, 76, 52
13, 134639, Note_on_c, 11, 76, 0
13, 134640, Note_on_c, 11, 77, 52
13, 134849, Note_on_c, 11, 77, 0
13, 134880, Note_on_c, 11, 80, 76
13, 135000, Control_c, 11, 11, 112
13, 135050, Control_c, 11, 11, 109
13, 135100, Control_c, 11, 11, 107
13, 135150, Control_c, 11, 11, 104
13, 135200, Control_c, 11, 11, 101
13, 135250, Control_c, 11, 11, 99
13, 135300, Control_c, 11, 11, 96
13, 135350, Control_c, 11, 11, 93
13, 135359, Note_on_c, 11, 80, 0
13, 135360, Note_on_c, 11, 77, 76
13, 135400, Control_c, 11, 11, 91
13, 135450, Control_c, 11, 11, 88
13, 135479, Note_on_c, 11, 77, 0
13, 135480, Note_on_c, 11, 74, 76
13, 135500, Control_c, 11, 11, 85
13, 135550, Control_c, 11, 11, 83
13, 135599, Note_on_c, 11, 74, 0
13, 139200, Control_c, 11, 11, 96
13, 139680, Note_on_c, 11, 75, 68
13, 139919, Note_on_c, 11, 75, 0
13, 139920, Note_on_c, 11, 74, 68
13, 139920, Control_c, 11, 11, 96
13, 139980, Control_c, 11, 11, 99
13, 140040, Control_c, 11, 11, 101
13, 140100, Control_c, 11, 11, 104
13, 140160, Control_c, 11, 11, 106
13, 140220, Control_c, 11, 11, 109
13, 140280, Control_c, 11, 11, 112
13, 140340, Control_c, 11, 11, 114
13, 140399, Note_on_c, 11, 74, 0
13, 140400, Note_on_c, 11, 73, 68
13, 140400, Control_c, 11, 11, 117
13, 140460, Control_c, 11, 11, 119
13, 140520, Control_c, 11, 11, 122
13, 140580, Control_c, 11, 11, 127
13, 140640, Control_c, 11, 11, 127
13, 140700, Control_c, 11, 11, 124
13, 140760, Control_c, 11, 11, 122
13, 140820, Control_c, 11, 11, 119
13, 140879, Note_on_c, 11, 73, 0
13, 140880, Note_on_c, 11, 72, 68
13, 140880, Control_c, 11, 11, 117
13, 140940, Control_c, 11, 11, 114
13, 141000, Control_c, 11, 11, 112
13, 141060, Control_c, 11, 11, 109
13, 141119, Note_on_c, 11, 72, 0
13, 141120, Note_on_c, 11, 70, 68
13, 141120, Control_c, 11, 11, 106
13, 141180, Control_c, 11, 11, 104
13, 141240, Control_c, 11, 11, 101
13, 141300, Control_c, 11, 11, 96
13, 141329, Note_on_c, 11, 70, 0
13, 141360, Note_on_c, 11, 70, 68
13, 141599, Note_on_c, 11, 70, 0
13, 142080, Control_c, 11, 11, 127
13, 142560, Note_on_c, 11, 72, 52
13, 142679, Note_on_c, 11, 72, 0
13, 142680, Note_on_c, 11, 74, 52
13, 142799, Note_on_c, 11, 74, 0
13, 142800, Note_on_c, 11, 75, 52
13, 142979, Note_on_c, 11, 75, 0
13, 143040, Note_on_c, 11, 75, 52
13, 143159, Note_on_c, 11, 75, 0
13, 143160, Note_on_c, 11, 77, 52
13, 143279, Note_on_c, 11, 77, 0
13, 143280, Note_on_c, 11, 79, 68
13, 143339, Note_on_c, 11, 79, 0
13, 143340, Note_on_c, 11, 79, 52
13, 143519, Note_on_c, 11, 79, 0
13, 143520, Note_on_c, 11, 72, 52
13, 143759, Note_on_c, 11, 72, 0
13, 145440, Note_on_c, 11, 74, 52
13, 145559, Note_on_c, 11, 74, 0
13, 145560, Note_on_c, 11, 75, 52
13, 145679, Note_on_c, 11, 75, 0
13, 145680, Note_on_c, 11, 77, 52
13, 145859, Note_on_c, 11, 77, 0
13, 145920, Note_on_c, 11, 77, 52
13, 146039, Note_on_c, 11, 77, 0
13, 146040, Note_on_c, 11, 79, 52
13, 146159, Note_on_c, 11, 79, 0
13, 146160, Note_on_c, 11, 80, 68
13, 146219, Note_on_c, 11, 80, 0
13, 146220, Note_on_c, 11, 80, 52
13, 146399, Note_on_c, 11, 80, 0
13, 146400, Note_on_c, 11, 74, 52
13, 146639, Note_on_c, 11, 74, 0
13, 154080, Program_c, 11, 45
13, 154320, Note_on_c, 11, 63, 48
13, 154559, Note_on_c, 11, 63, 0
13, 157200, Note_on_c, 11, 63, 48
13, 157439, Note_on_c, 11, 63, 0
13, 160800, Program_c, 11, 48
13, 161160, Note_on_c, 11, 65, 44
13, 161279, Note_on_c, 11, 65, 0
13, 161280, Note_on_c, 11, 66, 44
13, 161399, Note_on_c, 11, 66, 0
13, 161400, Note_on_c, 11, 65, 44
13, 161504, Note_on_c, 11, 65, 0
13, 161520, Note_on_c, 11, 66, 44
13, 161699, Note_on_c, 11, 66, 0
13, 161880, Note_on_c, 11, 65, 44
13, 161999, Note_on_c, 11, 65, 0
13, 162000, Note_on_c, 11, 66, 44
13, 162119, Note_on_c, 11, 66, 0
13, 162120, Note_on_c, 11, 65, 44
13, 162224, Note_on_c, 11, 65, 0
13, 162240, Note_on_c, 11, 66, 44
13, 162419, Note_on_c, 11, 66, 0
13, 162600, Note_on_c, 11, 65, 44
13, 162719, Note_on_c, 11, 65, 0
13, 162720, Note_on_c, 11, 66, 44
13, 162839, Note_on_c, 11, 66, 0
13, 162840, Note_on_c, 11, 65, 44
13, 162959, Note_on_c, 11, 65, 0
13, 162960, Note_on_c, 11, 66, 44
13, 163079, Note_on_c, 11, 66, 0
13, 163080, Note_on_c, 11, 64, 44
13, 163199, Note_on_c, 11, 64, 0
13, 163200, Note_on_c, 11, 65, 44
13, 163319, Note_on_c, 11, 65, 0
13, 163320, Note_on_c, 11, 64, 44
13, 163439, Note_on_c, 11, 64, 0
13, 163440, Note_on_c, 11, 65, 44
13, 163559, Note_on_c, 11, 65, 0
13, 163560, Note_on_c, 11, 64, 44
13, 163679, Note_on_c, 11, 64, 0
13, 163680, Note_on_c, 11, 65, 44
13, 163799, Note_on_c, 11, 65, 0
13, 163800, Note_on_c, 11, 57, 44
13, 163919, Note_on_c, 11, 57, 0
13, 163920, Note_on_c, 11, 58, 44
13, 164039, Note_on_c, 11, 58, 0
13, 164040, Note_on_c, 11, 57, 44
13, 164159, Note_on_c, 11, 57, 0
13, 164160, Note_on_c, 11, 58, 44
13, 164279, Note_on_c, 11, 58, 0
13, 164280, Note_on_c, 11, 57, 44
13, 164399, Note_on_c, 11, 57, 0
13, 164400, Note_on_c, 11, 58, 44
13, 164519, Note_on_c, 11, 58, 0
13, 164520, Note_on_c, 11, 57, 44
13, 164639, Note_on_c, 11, 57, 0
13, 164640, Note_on_c, 11, 58, 44
13, 164759, Note_on_c, 11, 58, 0
13, 164760, Note_on_c, 11, 57, 44
13, 164879, Note_on_c, 11, 57, 0
13, 164880, Note_on_c, 11, 58, 44
13, 164999, Note_on_c, 11, 58, 0
13, 165000, Note_on_c, 11, 57, 44
13, 165119, Note_on_c, 11, 57, 0
13, 165120, Note_on_c, 11, 58, 44
13, 165239, Note_on_c, 11, 58, 0
13, 165240, Note_on_c, 11, 57, 44
13, 165359, Note_on_c, 11, 57, 0
13, 165360, Note_on_c, 11, 58, 44
13, 165479, Note_on_c, 11, 58, 0
13, 165480, Note_on_c, 11, 57, 44
13, 165599, Note_on_c, 11, 57, 0
13, 165600, Note_on_c, 11, 58, 44
13, 165719, Note_on_c, 11, 58, 0
13, 165720, Note_on_c, 11, 57, 44
13, 165824, Note_on_c, 11, 57, 0
13, 165840, Note_on_c, 11, 58, 44
13, 165959, Note_on_c, 11, 58, 0
13, 165960, Note_on_c, 11, 57, 44
13, 166079, Note_on_c, 11, 57, 0
13, 166080, Note_on_c, 11, 58, 44
13, 166199, Note_on_c, 11, 58, 0
13, 166200, Note_on_c, 11, 57, 45
13, 166319, Note_on_c, 11, 57, 0
13, 166320, Note_on_c, 11, 58, 45
13, 166439, Note_on_c, 11, 58, 0
13, 166440, Note_on_c, 11, 57, 46
13, 166559, Note_on_c, 11, 57, 0
13, 166560, Note_on_c, 11, 58, 46
13, 166679, Note_on_c, 11, 58, 0
13, 166680, Note_on_c, 11, 57, 47
13, 166799, Note_on_c, 11, 57, 0
13, 166800, Note_on_c, 11, 58, 47
13, 166919, Note_on_c, 11, 58, 0
13, 166920, Note_on_c, 11, 57, 48
13, 167039, Note_on_c, 11, 57, 0
13, 167040, Note_on_c, 11, 58, 48
13, 167159, Note_on_c, 11, 58, 0
13, 167160, Note_on_c, 11, 57, 48
13, 167279, Note_on_c, 11, 57, 0
13, 167280, Note_on_c, 11, 58, 49
13, 167459, Note_on_c, 11, 58, 0
13, 167480, Note_on_c, 11, 71, 50
13, 167519, Note_on_c, 11, 71, 0
13, 167520, Note_on_c, 11, 72, 50
13, 167699, Note_on_c, 11, 72, 0
13, 167720, Note_on_c, 11, 74, 50
13, 167759, Note_on_c, 11, 74, 0
13, 167760, Note_on_c, 11, 75, 51
13, 167969, Note_on_c, 11, 75, 0
13, 168000, Note_on_c, 11, 79, 68
13, 168120, Control_c, 11, 11, 127
13, 168170, Control_c, 11, 11, 124
13, 168220, Control_c, 11, 11, 122
13, 168270, Control_c, 11, 11, 119
13, 168320, Control_c, 11, 11, 117
13, 168370, Control_c, 11, 11, 114
13, 168420, Control_c, 11, 11, 112
13, 168470, Control_c, 11, 11, 109
13, 168479, Note_on_c, 11, 79, 0
13, 168480, Note_on_c, 11, 75, 68
13, 168520, Control_c, 11, 11, 106
13, 168570, Control_c, 11, 11, 104
13, 168599, Note_on_c, 11, 75, 0
13, 168600, Note_on_c, 11, 72, 68
13, 168620, Control_c, 11, 11, 101
13, 168670, Control_c, 11, 11, 99
13, 168719, Note_on_c, 11, 72, 0
13, 169920, Control_c, 11, 11, 127
13, 170360, Note_on_c, 11, 73, 60
13, 170399, Note_on_c, 11, 73, 0
13, 170400, Note_on_c, 11, 74, 60
13, 170579, Note_on_c, 11, 74, 0
13, 170600, Note_on_c, 11, 76, 61
13, 170639, Note_on_c, 11, 76, 0
13, 170640, Note_on_c, 11, 77, 61
13, 170849, Note_on_c, 11, 77, 0
13, 170880, Note_on_c, 11, 80, 76
13, 171000, Control_c, 11, 11, 127
13, 171050, Control_c, 11, 11, 124
13, 171100, Control_c, 11, 11, 122
13, 171150, Control_c, 11, 11, 119
13, 171200, Control_c, 11, 11, 117
13, 171250, Control_c, 11, 11, 114
13, 171300, Control_c, 11, 11, 112
13, 171350, Control_c, 11, 11, 109
13, 171359, Note_on_c, 11, 80, 0
13, 171360, Note_on_c, 11, 77, 76
13, 171400, Control_c, 11, 11, 106
13, 171450, Control_c, 11, 11, 104
13, 171479, Note_on_c, 11, 77, 0
13, 171480, Note_on_c, 11, 74, 76
13, 171500, Control_c, 11, 11, 101
13, 171550, Control_c, 11, 11, 99
13, 171599, Note_on_c, 11, 74, 0
13, 176640, Control_c, 11, 11, 127
13, 177120, Note_on_c, 11, 74, 84
13, 177239, Note_on_c, 11, 74, 0
13, 177240, Note_on_c, 11, 75, 84
13, 177359, Note_on_c, 11, 75, 0
13, 177360, Note_on_c, 11, 77, 84
13, 177839, Note_on_c, 11, 77, 0
13, 177840, Note_on_c, 11, 74, 84
13, 178079, Note_on_c, 11, 74, 0
13, 178080, Note_on_c, 11, 75, 84
13, 178559, Note_on_c, 11, 75, 0
13, 178560, Note_on_c, 11, 77, 84
13, 178769, Note_on_c, 11, 77, 0
13, 178800, Note_on_c, 11, 79, 92
13, 178919, Note_on_c, 11, 79, 0
13, 178920, Note_on_c, 11, 79, 84
13, 179969, Note_on_c, 11, 79, 0
13, 180000, Note_on_c, 11, 77, 84
13, 180239, Note_on_c, 11, 77, 0
13, 180240, Note_on_c, 11, 75, 84
13, 180479, Note_on_c, 11, 75, 0
13, 180720, Note_on_c, 11, 75, 84
13, 180959, Note_on_c, 11, 75, 0
13, 180960, Note_on_c, 11, 75, 84
13, 181019, Note_on_c, 11, 75, 0
13, 181020, Note_on_c, 11, 77, 84
13, 181079, Note_on_c, 11, 77, 0
13, 181080, Note_on_c, 11, 75, 84
13, 181139, Note_on_c, 11, 75, 0
13, 181140, Note_on_c, 11, 77, 84
13, 181199, Note_on_c, 11, 77, 0
13, 181200, Note_on_c, 11, 75, 84
13, 181259, Note_on_c, 11, 75, 0
13, 181260, Note_on_c, 11, 77, 84
13, 181319, Note_on_c, 11, 77, 0
13, 181320, Note_on_c, 11, 74, 84
13, 181424, Note_on_c, 11, 74, 0
13, 181440, Note_on_c, 11, 75, 84
13, 181649, Note_on_c, 11, 75, 0
13, 181680, Note_on_c, 11, 74, 84
13, 181919, Note_on_c, 11, 74, 0
13, 182160, Note_on_c, 11, 77, 84
13, 182399, Note_on_c, 11, 77, 0
13, 182400, Note_on_c, 11, 74, 84
13, 182639, Note_on_c, 11, 74, 0
13, 183600, Note_on_c, 11, 77, 84
13, 183839, Note_on_c, 11, 77, 0
13, 183840, Note_on_c, 11, 75, 84
13, 184079, Note_on_c, 11, 75, 0
13, 185040, Note_on_c, 11, 77, 84
13, 185279, Note_on_c, 11, 77, 0
13, 185280, Note_on_c, 11, 74, 80
13, 185519, Note_on_c, 11, 74, 0
13, 186480, Note_on_c, 11, 77, 60
13, 186719, Note_on_c, 11, 77, 0
13, 186720, Note_on_c, 11, 75, 56
13, 186959, Note_on_c, 11, 75, 0
13, 187560, Note_on_c, 11, 70, 44
13, 187679, Note_on_c, 11, 70, 0
13, 187680, Note_on_c, 11, 69, 44
13, 187799, Note_on_c, 11, 69, 0
13, 187800, Note_on_c, 11, 70, 44
13, 187919, Note_on_c, 11, 70, 0
13, 187920, Note_on_c, 11, 74, 44
13, 188039, Note_on_c, 11, 74, 0
13, 188040, Note_on_c, 11, 70, 44
13, 188144, Note_on_c, 11, 70, 0
13, 188160, Note_on_c, 11, 74, 44
13, 188279, Note_on_c, 11, 74, 0
13, 188280, Note_on_c, 11, 70, 44
13, 188399, Note_on_c, 11, 70, 0
13, 188400, Note_on_c, 11, 69, 44
13, 188519, Note_on_c, 11, 69, 0
13, 188520, Note_on_c, 11, 70, 44
13, 188639, Note_on_c, 11, 70, 0
13, 188640, Note_on_c, 11, 74, 44
13, 188759, Note_on_c, 11, 74, 0
13, 188760, Note_on_c, 11, 70, 44
13, 188864, Note_on_c, 11, 70, 0
13, 188880, Note_on_c, 11, 74, 44
13, 188999, Note_on_c, 11, 74, 0
13, 189000, Note_on_c, 11, 70, 44
13, 189119, Note_on_c, 11, 70, 0
13, 189120, Note_on_c, 11, 69, 44
13, 189239, Note_on_c, 11, 69, 0
13, 189240, Note_on_c, 11, 70, 44
13, 189359, Note_on_c, 11, 70, 0
13, 189360, Note_on_c, 11, 74, 44
13, 189479, Note_on_c, 11, 74, 0
13, 189480, Note_on_c, 11, 70, 44
13, 189584, Note_on_c, 11, 70, 0
13, 189600, Note_on_c, 11, 74, 44
13, 189719, Note_on_c, 11, 74, 0
13, 189720, Note_on_c, 11, 70, 44
13, 189839, Note_on_c, 11, 70, 0
13, 189840, Note_on_c, 11, 69, 44
13, 189959, Note_on_c, 11, 69, 0
13, 189960, Note_on_c, 11, 70, 44
13, 190079, Note_on_c, 11, 70, 0
13, 190080, Note_on_c, 11, 74, 44
13, 190199, Note_on_c, 11, 74, 0
13, 190200, Note_on_c, 11, 70, 44
13, 190304, Note_on_c, 11, 70, 0
13, 190320, Note_on_c, 11, 74, 44
13, 190529, Note_on_c, 11, 74, 0
13, 190558, Control_c, 11, 11, 64
13, 190560, Control_c, 11, 11, 64
13, 190560, Note_on_c, 11, 64, 76
13, 190660, Control_c, 11, 11, 67
13, 190760, Control_c, 11, 11, 69
13, 190799, Note_on_c, 11, 64, 0
13, 190800, Note_on_c, 11, 65, 76
13, 190860, Control_c, 11, 11, 72
13, 190919, Note_on_c, 11, 65, 0
13, 190960, Control_c, 11, 11, 75
13, 191040, Note_on_c, 11, 65, 76
13, 191060, Control_c, 11, 11, 77
13, 191160, Control_c, 11, 11, 80
13, 191260, Control_c, 11, 11, 82
13, 191279, Note_on_c, 11, 65, 0
13, 191280, Note_on_c, 11, 66, 76
13, 191360, Control_c, 11, 11, 85
13, 191399, Note_on_c, 11, 66, 0
13, 191460, Control_c, 11, 11, 88
13, 191520, Note_on_c, 11, 66, 76
13, 191560, Control_c, 11, 11, 90
13, 191660, Control_c, 11, 11, 93
13, 191759, Note_on_c, 11, 66, 0
13, 191760, Note_on_c, 11, 67, 76
13, 191760, Control_c, 11, 11, 96
13, 191860, Control_c, 11, 11, 98
13, 191879, Note_on_c, 11, 67, 0
13, 191960, Control_c, 11, 11, 101
13, 192000, Note_on_c, 11, 67, 76
13, 192060, Control_c, 11, 11, 103
13, 192160, Control_c, 11, 11, 106
13, 192239, Note_on_c, 11, 67, 0
13, 192240, Note_on_c, 11, 68, 76
13, 192260, Control_c, 11, 11, 109
13, 192359, Note_on_c, 11, 68, 0
13, 192360, Control_c, 11, 11, 111
13, 192460, Control_c, 11, 11, 114
13, 192480, Note_on_c, 11, 68, 76
13, 192560, Control_c, 11, 11, 117
13, 192660, Control_c, 11, 11, 119
13, 192719, Note_on_c, 11, 68, 0
13, 192720, Note_on_c, 11, 69, 76
13, 192760, Control_c, 11, 11, 122
13, 192839, Note_on_c, 11, 69, 0
13, 192860, Control_c, 11, 11, 127
13, 192960, Note_on_c, 11, 69, 76
13, 193199, Note_on_c, 11, 69, 0
13, 193200, Note_on_c, 11, 70, 84
13, 193319, Note_on_c, 11, 70, 0
13, 193440, Note_on_c, 11, 65, 84
13, 193679, Note_on_c, 11, 65, 0
13, 193680, Note_on_c, 11, 74, 84
13, 193799, Note_on_c, 11, 74, 0
13, 193920, Note_on_c, 11, 70, 84
13, 194159, Note_on_c, 11, 70, 0
13, 194160, Note_on_c, 11, 77, 84
13, 194279, Note_on_c, 11, 77, 0
13, 194400, Note_on_c, 11, 74, 84
13, 194609, Note_on_c, 11, 74, 0
13, 194640, Note_on_c, 11, 77, 84
13, 194879, Note_on_c, 11, 77, 0
13, 194880, Note_on_c, 11, 75, 84
13, 195089, Note_on_c, 11, 75, 0
13, 195120, Note_on_c, 11, 72, 84
13, 195299, Note_on_c, 11, 72, 0
13, 195360, Note_on_c, 11, 69, 84
13, 195599, Note_on_c, 11, 69, 0
13, 197280, Note_on_c, 11, 78, 52
13, 197519, Note_on_c, 11, 78, 0
13, 197520, Note_on_c, 11, 75, 52
13, 197759, Note_on_c, 11, 75, 0
13, 197760, Note_on_c, 11, 72, 52
13, 197999, Note_on_c, 11, 72, 0
13, 198000, Note_on_c, 11, 69, 52
13, 198239, Note_on_c, 11, 69, 0
13, 198240, Note_on_c, 11, 66, 52
13, 198479, Note_on_c, 11, 66, 0
13, 198480, Note_on_c, 11, 65, 52
13, 198719, Note_on_c, 11, 65, 0
13, 198720, Note_on_c, 11, 63, 52
13, 198959, Note_on_c, 11, 63, 0
13, 198960, Note_on_c, 11, 61, 52
13, 199199, Note_on_c, 11, 61, 0
13, 200160, Note_on_c, 11, 73, 52
13, 200399, Note_on_c, 11, 73, 0
13, 200400, Note_on_c, 11, 70, 52
13, 200639, Note_on_c, 11, 70, 0
13, 200640, Note_on_c, 11, 67, 52
13, 200879, Note_on_c, 11, 67, 0
13, 200880, Note_on_c, 11, 64, 52
13, 201119, Note_on_c, 11, 64, 0
13, 201120, Note_on_c, 11, 61, 52
13, 201359, Note_on_c, 11, 61, 0
13, 201360, Note_on_c, 11, 60, 52
13, 201599, Note_on_c, 11, 60, 0
13, 201600, Note_on_c, 11, 64, 52
13, 201839, Note_on_c, 11, 64, 0
13, 201840, Note_on_c, 11, 65, 52
13, 201959, Note_on_c, 11, 65, 0
13, 202078, Control_c, 11, 11, 80
13, 202080, Note_on_c, 11, 67, 76
13, 202180, Control_c, 11, 11, 82
13, 202280, Control_c, 11, 11, 84
13, 202319, Note_on_c, 11, 67, 0
13, 202320, Note_on_c, 11, 60, 76
13, 202380, Control_c, 11, 11, 86
13, 202439, Note_on_c, 11, 60, 0
13, 202480, Control_c, 11, 11, 88
13, 202560, Note_on_c, 11, 69, 76
13, 202580, Control_c, 11, 11, 90
13, 202680, Control_c, 11, 11, 92
13, 202780, Control_c, 11, 11, 94
13, 202799, Note_on_c, 11, 69, 0
13, 202800, Note_on_c, 11, 65, 76
13, 202880, Control_c, 11, 11, 96
13, 202919, Note_on_c, 11, 65, 0
13, 202980, Control_c, 11, 11, 98
13, 203040, Note_on_c, 11, 70, 84
13, 203080, Control_c, 11, 11, 100
13, 203180, Control_c, 11, 11, 102
13, 203279, Note_on_c, 11, 70, 0
13, 203280, Control_c, 11, 11, 104
13, 203280, Note_on_c, 11, 70, 76
13, 203380, Control_c, 11, 11, 105
13, 203480, Control_c, 11, 11, 107
13, 203489, Note_on_c, 11, 70, 0
13, 203520, Note_on_c, 11, 72, 76
13, 203580, Control_c, 11, 11, 109
13, 203680, Control_c, 11, 11, 111
13, 203759, Note_on_c, 11, 72, 0
13, 203760, Note_on_c, 11, 65, 76
13, 203780, Control_c, 11, 11, 113
13, 203879, Note_on_c, 11, 65, 0
13, 203880, Control_c, 11, 11, 115
13, 203980, Control_c, 11, 11, 117
13, 204000, Note_on_c, 11, 74, 76
13, 204080, Control_c, 11, 11, 119
13, 204180, Control_c, 11, 11, 121
13, 204239, Note_on_c, 11, 74, 0
13, 204240, Note_on_c, 11, 70, 76
13, 204280, Control_c, 11, 11, 123
13, 204359, Note_on_c, 11, 70, 0
13, 204380, Control_c, 11, 11, 125
13, 204480, Control_c, 11, 11, 127
13, 204480, Note_on_c, 11, 76, 76
13, 204659, Note_on_c, 11, 76, 0
13, 204720, Note_on_c, 11, 69, 84
13, 204720, Note_on_c, 11, 77, 84
13, 205409, Note_on_c, 11, 69, 0
13, 205409, Note_on_c, 11, 77, 0
13, 205440, Note_on_c, 11, 69, 84
13, 205440, Note_on_c, 11, 81, 84
13, 206129, Note_on_c, 11, 69, 0
13, 206129, Note_on_c, 11, 81, 0
13, 206160, Note_on_c, 11, 69, 84
13, 206160, Note_on_c, 11, 84, 84
13, 206369, Note_on_c, 11, 69, 0
13, 206369, Note_on_c, 11, 84, 0
13, 206400, Note_on_c, 11, 69, 84
13, 206400, Note_on_c, 11, 84, 84
13, 206609, Note_on_c, 11, 69, 0
13, 206609, Note_on_c, 11, 84, 0
13, 206640, Note_on_c, 11, 69, 84
13, 206640, Note_on_c, 11, 84, 84
13, 206849, Note_on_c, 11, 69, 0
13, 206849, Note_on_c, 11, 84, 0
13, 206880, Note_on_c, 11, 77, 84
13, 206880, Note_on_c, 11, 69, 84
13, 207119, Note_on_c, 11, 77, 0
13, 207119, Note_on_c, 11, 69, 0
13, 207360, Note_on_c, 11, 68, 52
13, 207599, Note_on_c, 11, 68, 0
13, 207600, Note_on_c, 11, 73, 52
13, 207719, Note_on_c, 11, 73, 0
13, 207840, Note_on_c, 11, 68, 52
13, 208079, Note_on_c, 11, 68, 0
13, 208080, Note_on_c, 11, 77, 52
13, 208199, Note_on_c, 11, 77, 0
13, 208320, Note_on_c, 11, 73, 52
13, 208559, Note_on_c, 11, 73, 0
13, 208560, Note_on_c, 11, 80, 52
13, 208679, Note_on_c, 11, 80, 0
13, 208800, Note_on_c, 11, 77, 52
13, 209039, Note_on_c, 11, 77, 0
13, 209040, Note_on_c, 11, 80, 52
13, 209279, Note_on_c, 11, 80, 0
13, 209280, Note_on_c, 11, 78, 52
13, 209399, Note_on_c, 11, 78, 0
13, 209520, Note_on_c, 11, 75, 52
13, 209759, Note_on_c, 11, 75, 0
13, 209760, Note_on_c, 11, 72, 52
13, 209879, Note_on_c, 11, 72, 0
13, 211440, Note_on_c, 11, 78, 52
13, 211679, Note_on_c, 11, 78, 0
13, 211680, Note_on_c, 11, 75, 52
13, 211919, Note_on_c, 11, 75, 0
13, 211920, Note_on_c, 11, 82, 52
13, 212159, Note_on_c, 11, 82, 0
13, 212160, Note_on_c, 11, 80, 52
13, 212279, Note_on_c, 11, 80, 0
13, 212400, Note_on_c, 11, 77, 52
13, 212639, Note_on_c, 11, 77, 0
13, 212640, Note_on_c, 11, 73, 52
13, 212759, Note_on_c, 11, 73, 0
13, 214320, Note_on_c, 11, 80, 52
13, 214559, Note_on_c, 11, 80, 0
13, 214560, Note_on_c, 11, 77, 52
13, 214799, Note_on_c, 11, 77, 0
13, 214800, Note_on_c, 11, 82, 52
13, 215039, Note_on_c, 11, 82, 0
13, 215040, Note_on_c, 11, 80, 52
13, 215159, Note_on_c, 11, 80, 0
13, 215280, Note_on_c, 11, 77, 52
13, 215519, Note_on_c, 11, 77, 0
13, 215520, Note_on_c, 11, 74, 52
13, 215639, Note_on_c, 11, 74, 0
13, 217200, Note_on_c, 11, 80, 52
13, 217439, Note_on_c, 11, 80, 0
13, 217440, Note_on_c, 11, 77, 52
13, 217679, Note_on_c, 11, 77, 0
13, 217680, Note_on_c, 11, 78, 52
13, 217799, Note_on_c, 11, 78, 0
13, 217920, Note_on_c, 11, 75, 52
13, 218159, Note_on_c, 11, 75, 0
13, 218160, Note_on_c, 11, 78, 52
13, 218279, Note_on_c, 11, 78, 0
13, 218400, Note_on_c, 11, 71, 52
13, 218639, Note_on_c, 11, 71, 0
13, 218640, Note_on_c, 11, 78, 52
13, 218759, Note_on_c, 11, 78, 0
13, 218880, Note_on_c, 11, 70, 52
13, 219119, Note_on_c, 11, 70, 0
13, 219120, Note_on_c, 11, 69, 52
13, 219359, Note_on_c, 11, 69, 0
13, 220800, Note_on_c, 11, 70, 52
13, 221039, Note_on_c, 11, 70, 0
13, 221040, Note_on_c, 11, 73, 52
13, 221159, Note_on_c, 11, 73, 0
13, 221280, Note_on_c, 11, 66, 52
13, 221519, Note_on_c, 11, 66, 0
13, 221520, Note_on_c, 11, 73, 52
13, 221639, Note_on_c, 11, 73, 0
13, 221760, Note_on_c, 11, 65, 52
13, 221999, Note_on_c, 11, 65, 0
13, 222000, Note_on_c, 11, 64, 52
13, 222239, Note_on_c, 11, 64, 0
13, 223680, Note_on_c, 11, 65, 52
13, 223919, Note_on_c, 11, 65, 0
13, 223920, Note_on_c, 11, 68, 52
13, 224039, Note_on_c, 11, 68, 0
13, 224160, Note_on_c, 11, 59, 52
13, 224399, Note_on_c, 11, 59, 0
13, 225120, Note_on_c, 11, 72, 52
13, 225359, Note_on_c, 11, 72, 0
13, 225360, Note_on_c, 11, 75, 52
13, 225479, Note_on_c, 11, 75, 0
13, 225600, Note_on_c, 11, 66, 52
13, 225839, Note_on_c, 11, 66, 0
13, 226560, Note_on_c, 11, 67, 52
13, 226799, Note_on_c, 11, 67, 0
13, 226800, Note_on_c, 11, 70, 52
13, 226919, Note_on_c, 11, 70, 0
13, 227040, Note_on_c, 11, 61, 52
13, 227279, Note_on_c, 11, 61, 0
13, 227760, Control_c, 11, 11, 80
13, 227870, Control_c, 11, 11, 82
13, 227980, Control_c, 11, 11, 84
13, 228000, Note_on_c, 11, 65, 76
13, 228090, Control_c, 11, 11, 86
13, 228200, Control_c, 11, 11, 88
13, 228239, Note_on_c, 11, 65, 0
13, 228240, Note_on_c, 11, 69, 76
13, 228310, Control_c, 11, 11, 90
13, 228359, Note_on_c, 11, 69, 0
13, 228420, Control_c, 11, 11, 92
13, 228480, Note_on_c, 11, 63, 76
13, 228530, Control_c, 11, 11, 94
13, 228640, Control_c, 11, 11, 96
13, 228719, Note_on_c, 11, 63, 0
13, 228720, Note_on_c, 11, 69, 76
13, 228750, Control_c, 11, 11, 98
13, 228839, Note_on_c, 11, 69, 0
13, 228860, Control_c, 11, 11, 100
13, 228960, Note_on_c, 11, 69, 76
13, 228970, Control_c, 11, 11, 102
13, 229080, Control_c, 11, 11, 104
13, 229190, Control_c, 11, 11, 105
13, 229199, Note_on_c, 11, 69, 0
13, 229200, Note_on_c, 11, 72, 76
13, 229300, Control_c, 11, 11, 107
13, 229319, Note_on_c, 11, 72, 0
13, 229410, Control_c, 11, 11, 109
13, 229440, Note_on_c, 11, 72, 76
13, 229520, Control_c, 11, 11, 111
13, 229630, Control_c, 11, 11, 113
13, 229679, Note_on_c, 11, 72, 0
13, 229680, Note_on_c, 11, 75, 76
13, 229740, Control_c, 11, 11, 115
13, 229799, Note_on_c, 11, 75, 0
13, 229850, Control_c, 11, 11, 117
13, 229920, Note_on_c, 11, 75, 76
13, 229960, Control_c, 11, 11, 119
13, 230070, Control_c, 11, 11, 121
13, 230159, Note_on_c, 11, 75, 0
13, 230160, Note_on_c, 11, 81, 76
13, 230180, Control_c, 11, 11, 123
13, 230279, Note_on_c, 11, 81, 0
13, 230290, Control_c, 11, 11, 127
13, 230400, Note_on_c, 11, 81, 76
13, 230639, Note_on_c, 11, 81, 0
13, 230640, Note_on_c, 11, 82, 84
13, 230759, Note_on_c, 11, 82, 0
13, 230880, Note_on_c, 11, 77, 84
13, 231119, Note_on_c, 11, 77, 0
13, 231120, Note_on_c, 11, 86, 84
13, 231239, Note_on_c, 11, 86, 0
13, 231360, Note_on_c, 11, 82, 84
13, 231599, Note_on_c, 11, 82, 0
13, 231600, Note_on_c, 11, 89, 84
13, 231719, Note_on_c, 11, 89, 0
13, 231840, Note_on_c, 11, 86, 84
13, 232049, Note_on_c, 11, 86, 0
13, 232080, Note_on_c, 11, 89, 84
13, 232319, Note_on_c, 11, 89, 0
13, 232320, Note_on_c, 11, 87, 84
13, 232529, Note_on_c, 11, 87, 0
13, 232560, Note_on_c, 11, 84, 84
13, 232739, Note_on_c, 11, 84, 0
13, 232800, Note_on_c, 11, 81, 84
13, 233039, Note_on_c, 11, 81, 0
13, 234720, Note_on_c, 11, 78, 52
13, 234959, Note_on_c, 11, 78, 0
13, 234960, Note_on_c, 11, 75, 52
13, 235199, Note_on_c, 11, 75, 0
13, 235200, Note_on_c, 11, 72, 52
13, 235439, Note_on_c, 11, 72, 0
13, 235440, Note_on_c, 11, 69, 52
13, 235679, Note_on_c, 11, 69, 0
13, 235680, Note_on_c, 11, 66, 52
13, 235919, Note_on_c, 11, 66, 0
13, 235920, Note_on_c, 11, 65, 52
13, 236159, Note_on_c, 11, 65, 0
13, 237600, Note_on_c, 11, 80, 52
13, 237839, Note_on_c, 11, 80, 0
13, 237840, Note_on_c, 11, 77, 52
13, 238079, Note_on_c, 11, 77, 0
13, 238080, Note_on_c, 11, 74, 52
13, 238319, Note_on_c, 11, 74, 0
13, 238320, Note_on_c, 11, 71, 52
13, 238559, Note_on_c, 11, 71, 0
13, 238560, Note_on_c, 11, 68, 52
13, 238799, Note_on_c, 11, 68, 0
13, 238800, Note_on_c, 11, 67, 52
13, 239009, Note_on_c, 11, 67, 0
13, 239040, Note_on_c, 11, 73, 52
13, 239279, Note_on_c, 11, 73, 0
13, 239280, Note_on_c, 11, 70, 52
13, 239519, Note_on_c, 11, 70, 0
13, 239520, Note_on_c, 11, 67, 52
13, 239759, Note_on_c, 11, 67, 0
13, 239760, Note_on_c, 11, 64, 52
13, 239999, Note_on_c, 11, 64, 0
13, 240000, Note_on_c, 11, 61, 52
13, 240239, Note_on_c, 11, 61, 0
13, 240240, Note_on_c, 11, 60, 52
13, 240449, Note_on_c, 11, 60, 0
13, 240478, Control_c, 11, 11, 96
13, 240480, Note_on_c, 11, 64, 68
13, 240719, Note_on_c, 11, 64, 0
13, 240720, Note_on_c, 11, 65, 68
13, 242159, Note_on_c, 11, 65, 0
13, 242160, Control_c, 11, 11, 96
13, 242160, Note_on_c, 11, 65, 68
13, 242240, Control_c, 11, 11, 99
13, 242320, Control_c, 11, 11, 101
13, 242400, Control_c, 11, 11, 104
13, 242480, Control_c, 11, 11, 106
13, 242560, Control_c, 11, 11, 109
13, 242640, Control_c, 11, 11, 112
13, 242720, Control_c, 11, 11, 114
13, 242800, Control_c, 11, 11, 117
13, 242880, Control_c, 11, 11, 119
13, 242960, Control_c, 11, 11, 122
13, 243040, Control_c, 11, 11, 127
13, 243329, Note_on_c, 11, 65, 0
13, 243360, Note_on_c, 11, 66, 76
13, 243598, Control_c, 11, 11, 96
13, 243599, Note_on_c, 11, 66, 0
13, 243600, Note_on_c, 11, 65, 68
13, 245039, Note_on_c, 11, 65, 0
13, 245040, Control_c, 11, 11, 96
13, 245040, Note_on_c, 11, 65, 68
13, 245120, Control_c, 11, 11, 99
13, 245200, Control_c, 11, 11, 101
13, 245280, Control_c, 11, 11, 104
13, 245360, Control_c, 11, 11, 106
13, 245440, Control_c, 11, 11, 109
13, 245520, Control_c, 11, 11, 112
13, 245600, Control_c, 11, 11, 114
13, 245680, Control_c, 11, 11, 117
13, 245760, Control_c, 11, 11, 119
13, 245840, Control_c, 11, 11, 122
13, 245920, Control_c, 11, 11, 127
13, 246209, Note_on_c, 11, 65, 0
13, 246240, Note_on_c, 11, 66, 76
13, 246479, Note_on_c, 11, 66, 0
13, 246480, Note_on_c, 11, 65, 68
13, 246689, Note_on_c, 11, 65, 0
13, 246720, Note_on_c, 11, 81, 76
13, 246720, Note_on_c, 11, 69, 76
13, 247169, Note_on_c, 11, 81, 0
13, 247169, Note_on_c, 11, 69, 0
13, 247200, Note_on_c, 11, 70, 76
13, 247200, Note_on_c, 11, 82, 76
13, 247649, Note_on_c, 11, 70, 0
13, 247649, Note_on_c, 11, 82, 0
13, 247680, Note_on_c, 11, 79, 76
13, 247889, Note_on_c, 11, 79, 0
13, 247920, Note_on_c, 11, 77, 84
13, 248609, Note_on_c, 11, 77, 0
13, 248640, Note_on_c, 11, 81, 84
13, 248640, Note_on_c, 11, 72, 84
13, 249329, Note_on_c, 11, 81, 0
13, 249329, Note_on_c, 11, 72, 0
13, 249360, Note_on_c, 11, 74, 84
13, 249360, Note_on_c, 11, 82, 84
13, 249464, Note_on_c, 11, 74, 0
13, 249464, Note_on_c, 11, 82, 0
13, 249480, Note_on_c, 11, 82, 84
13, 249480, Note_on_c, 11, 74, 84
13, 249584, Note_on_c, 11, 82, 0
13, 249584, Note_on_c, 11, 74, 0
13, 249600, Note_on_c, 11, 82, 84
13, 249600, Note_on_c, 11, 74, 84
13, 249704, Note_on_c, 11, 82, 0
13, 249704, Note_on_c, 11, 74, 0
13, 249720, Note_on_c, 11, 82, 84
13, 249720, Note_on_c, 11, 74, 84
13, 249824, Note_on_c, 11, 82, 0
13, 249824, Note_on_c, 11, 74, 0
13, 249840, Note_on_c, 11, 82, 84
13, 249840, Note_on_c, 11, 74, 84
13, 249944, Note_on_c, 11, 82, 0
13, 249944, Note_on_c, 11, 74, 0
13, 249960, Note_on_c, 11, 82, 84
13, 249960, Note_on_c, 11, 74, 84
13, 250064, Note_on_c, 11, 82, 0
13, 250064, Note_on_c, 11, 74, 0
13, 250080, Note_on_c, 11, 74, 84
13, 250080, Note_on_c, 11, 82, 84
13, 250184, Note_on_c, 11, 74, 0
13, 250184, Note_on_c, 11, 82, 0
13, 250200, Note_on_c, 11, 82, 84
13, 250200, Note_on_c, 11, 74, 84
13, 250304, Note_on_c, 11, 82, 0
13, 250304, Note_on_c, 11, 74, 0
13, 250320, Note_on_c, 11, 74, 84
13, 250320, Note_on_c, 11, 82, 84
13, 250424, Note_on_c, 11, 74, 0
13, 250424, Note_on_c, 11, 82, 0
13, 250440, Note_on_c, 11, 74, 84
13, 250440, Note_on_c, 11, 82, 84
13, 250544, Note_on_c, 11, 74, 0
13, 250544, Note_on_c, 11, 82, 0
13, 250560, Note_on_c, 11, 74, 84
13, 250560, Note_on_c, 11, 82, 84
13, 250664, Note_on_c, 11, 74, 0
13, 250664, Note_on_c, 11, 82, 0
13, 250680, Note_on_c, 11, 82, 84
13, 250680, Note_on_c, 11, 74, 84
13, 250784, Note_on_c, 11, 82, 0
13, 250784, Note_on_c, 11, 74, 0
13, 250800, Note_on_c, 11, 81, 84
13, 251039, Note_on_c, 11, 81, 0
13, 251040, Note_on_c, 11, 77, 84
13, 251159, Note_on_c, 11, 77, 0
13, 251280, Note_on_c, 11, 84, 84
13, 251519, Note_on_c, 11, 84, 0
13, 251520, Note_on_c, 11, 81, 84
13, 251639, Note_on_c, 11, 81, 0
13, 251760, Note_on_c, 11, 87, 84
13, 251999, Note_on_c, 11, 87, 0
13, 252000, Note_on_c, 11, 84, 84
13, 252119, Note_on_c, 11, 84, 0
13, 252240, Note_on_c, 11, 82, 84
13, 252240, Note_on_c, 11, 74, 84
13, 252344, Note_on_c, 11, 82, 0
13, 252344, Note_on_c, 11, 74, 0
13, 252360, Note_on_c, 11, 74, 84
13, 252360, Note_on_c, 11, 82, 84
13, 252464, Note_on_c, 11, 74, 0
13, 252464, Note_on_c, 11, 82, 0
13, 252480, Note_on_c, 11, 74, 84
13, 252480, Note_on_c, 11, 82, 84
13, 252584, Note_on_c, 11, 74, 0
13, 252584, Note_on_c, 11, 82, 0
13, 252600, Note_on_c, 11, 74, 84
13, 252600, Note_on_c, 11, 82, 84
13, 252704, Note_on_c, 11, 74, 0
13, 252704, Note_on_c, 11, 82, 0
13, 252720, Note_on_c, 11, 82, 84
13, 252720, Note_on_c, 11, 74, 84
13, 252824, Note_on_c, 11, 82, 0
13, 252824, Note_on_c, 11, 74, 0
13, 252840, Note_on_c, 11, 82, 84
13, 252840, Note_on_c, 11, 74, 84
13, 252944, Note_on_c, 11, 82, 0
13, 252944, Note_on_c, 11, 74, 0
13, 252960, Note_on_c, 11, 82, 84
13, 252960, Note_on_c, 11, 74, 84
13, 253064, Note_on_c, 11, 82, 0
13, 253064, Note_on_c, 11, 74, 0
13, 253080, Note_on_c, 11, 82, 84
13, 253080, Note_on_c, 11, 74, 84
13, 253184, Note_on_c, 11, 82, 0
13, 253184, Note_on_c, 11, 74, 0
13, 253200, Note_on_c, 11, 74, 84
13, 253200, Note_on_c, 11, 82, 84
13, 253304, Note_on_c, 11, 74, 0
13, 253304, Note_on_c, 11, 82, 0
13, 253320, Note_on_c, 11, 74, 84
13, 253320, Note_on_c, 11, 82, 84
13, 253424, Note_on_c, 11, 74, 0
13, 253424, Note_on_c, 11, 82, 0
13, 253440, Note_on_c, 11, 74, 84
13, 253440, Note_on_c, 11, 82, 84
13, 253544, Note_on_c, 11, 74, 0
13, 253544, Note_on_c, 11, 82, 0
13, 253560, Note_on_c, 11, 74, 84
13, 253560, Note_on_c, 11, 82, 84
13, 253664, Note_on_c, 11, 74, 0
13, 253664, Note_on_c, 11, 82, 0
13, 253680, Note_on_c, 11, 81, 84
13, 253919, Note_on_c, 11, 81, 0
13, 253920, Note_on_c, 11, 77, 84
13, 254039, Note_on_c, 11, 77, 0
13, 254160, Note_on_c, 11, 84, 84
13, 254399, Note_on_c, 11, 84, 0
13, 254400, Note_on_c, 11, 81, 84
13, 254519, Note_on_c, 11, 81, 0
13, 254640, Note_on_c, 11, 87, 84
13, 254879, Note_on_c, 11, 87, 0
13, 254880, Note_on_c, 11, 84, 84
13, 254999, Note_on_c, 11, 84, 0
13, 255120, Note_on_c, 11, 74, 76
13, 255120, Note_on_c, 11, 82, 76
13, 255809, Note_on_c, 11, 74, 0
13, 255809, Note_on_c, 11, 82, 0
13, 255840, Note_on_c, 11, 86, 76
13, 255840, Note_on_c, 11, 74, 76
13, 256529, Note_on_c, 11, 86, 0
13, 256529, Note_on_c, 11, 74, 0
13, 256560, Note_on_c, 11, 89, 76
13, 256769, Note_on_c, 11, 89, 0
13, 256800, Note_on_c, 11, 89, 76
13, 257009, Note_on_c, 11, 89, 0
13, 257040, Note_on_c, 11, 89, 76
13, 257249, Note_on_c, 11, 89, 0
13, 257280, Note_on_c, 11, 82, 76
13, 257519, Note_on_c, 11, 82, 0
13, 259640, Note_on_c, 11, 71, 52
13, 259679, Note_on_c, 11, 71, 0
13, 259680, Note_on_c, 11, 72, 52
13, 259859, Note_on_c, 11, 72, 0
13, 259880, Note_on_c, 11, 74, 52
13, 259919, Note_on_c, 11, 74, 0
13, 259920, Note_on_c, 11, 75, 52
13, 260129, Note_on_c, 11, 75, 0
13, 260160, Note_on_c, 11, 79, 76
13, 260280, Control_c, 11, 11, 112
13, 260330, Control_c, 11, 11, 109
13, 260380, Control_c, 11, 11, 107
13, 260430, Control_c, 11, 11, 104
13, 260480, Control_c, 11, 11, 101
13, 260530, Control_c, 11, 11, 99
13, 260580, Control_c, 11, 11, 96
13, 260630, Control_c, 11, 11, 93
13, 260639, Note_on_c, 11, 79, 0
13, 260640, Note_on_c, 11, 75, 76
13, 260680, Control_c, 11, 11, 91
13, 260730, Control_c, 11, 11, 88
13, 260759, Note_on_c, 11, 75, 0
13, 260760, Note_on_c, 11, 72, 76
13, 260780, Control_c, 11, 11, 85
13, 260830, Control_c, 11, 11, 83
13, 260879, Note_on_c, 11, 72, 0
13, 262320, Control_c, 11, 11, 127
13, 262520, Note_on_c, 11, 73, 52
13, 262559, Note_on_c, 11, 73, 0
13, 262560, Note_on_c, 11, 74, 52
13, 262739, Note_on_c, 11, 74, 0
13, 262760, Note_on_c, 11, 76, 52
13, 262799, Note_on_c, 11, 76, 0
13, 262800, Note_on_c, 11, 77, 52
13, 263009, Note_on_c, 11, 77, 0
13, 263040, Note_on_c, 11, 80, 76
13, 263160, Control_c, 11, 11, 112
13, 263210, Control_c, 11, 11, 109
13, 263260, Control_c, 11, 11, 107
13, 263310, Control_c, 11, 11, 104
13, 263360, Control_c, 11, 11, 101
13, 263410, Control_c, 11, 11, 99
13, 263460, Control_c, 11, 11, 96
13, 263510, Control_c, 11, 11, 93
13, 263519, Note_on_c, 11, 80, 0
13, 263520, Note_on_c, 11, 77, 76
13, 263560, Control_c, 11, 11, 91
13, 263610, Control_c, 11, 11, 88
13, 263639, Note_on_c, 11, 77, 0
13, 263640, Note_on_c, 11, 74, 76
13, 263660, Control_c, 11, 11, 85
13, 263710, Control_c, 11, 11, 83
13, 263759, Note_on_c, 11, 74, 0
13, 267360, Control_c, 11, 11, 96
13, 267840, Note_on_c, 11, 75, 68
13, 268079, Note_on_c, 11, 75, 0
13, 268080, Note_on_c, 11, 74, 68
13, 268080, Control_c, 11, 11, 96
13, 268140, Control_c, 11, 11, 99
13, 268200, Control_c, 11, 11, 101
13, 268260, Control_c, 11, 11, 104
13, 268320, Control_c, 11, 11, 106
13, 268380, Control_c, 11, 11, 109
13, 268440, Control_c, 11, 11, 112
13, 268500, Control_c, 11, 11, 114
13, 268559, Note_on_c, 11, 74, 0
13, 268560, Control_c, 11, 11, 117
13, 268560, Note_on_c, 11, 73, 68
13, 268620, Control_c, 11, 11, 119
13, 268680, Control_c, 11, 11, 122
13, 268740, Control_c, 11, 11, 127
13, 268800, Control_c, 11, 11, 127
13, 268860, Control_c, 11, 11, 124
13, 268920, Control_c, 11, 11, 122
13, 268980, Control_c, 11, 11, 119
13, 269039, Note_on_c, 11, 73, 0
13, 269040, Note_on_c, 11, 72, 68
13, 269040, Control_c, 11, 11, 117
13, 269100, Control_c, 11, 11, 114
13, 269160, Control_c, 11, 11, 112
13, 269220, Control_c, 11, 11, 109
13, 269279, Note_on_c, 11, 72, 0
13, 269280, Control_c, 11, 11, 106
13, 269280, Note_on_c, 11, 70, 68
13, 269340, Control_c, 11, 11, 104
13, 269400, Control_c, 11, 11, 101
13, 269460, Control_c, 11, 11, 96
13, 269489, Note_on_c, 11, 70, 0
13, 269520, Note_on_c, 11, 70, 68
13, 269759, Note_on_c, 11, 70, 0
13, 270240, Control_c, 11, 11, 127
13, 270720, Note_on_c, 11, 72, 52
13, 270839, Note_on_c, 11, 72, 0
13, 270840, Note_on_c, 11, 74, 52
13, 270959, Note_on_c, 11, 74, 0
13, 270960, Note_on_c, 11, 75, 52
13, 271169, Note_on_c, 11, 75, 0
13, 271200, Note_on_c, 11, 75, 52
13, 271319, Note_on_c, 11, 75, 0
13, 271320, Note_on_c, 11, 77, 52
13, 271439, Note_on_c, 11, 77, 0
13, 271440, Note_on_c, 11, 79, 68
13, 271499, Note_on_c, 11, 79, 0
13, 271500, Note_on_c, 11, 79, 52
13, 271679, Note_on_c, 11, 79, 0
13, 271680, Note_on_c, 11, 72, 52
13, 271919, Note_on_c, 11, 72, 0
13, 273600, Note_on_c, 11, 74, 52
13, 273719, Note_on_c, 11, 74, 0
13, 273720, Note_on_c, 11, 75, 52
13, 273839, Note_on_c, 11, 75, 0
13, 273840, Note_on_c, 11, 77, 52
13, 274019, Note_on_c, 11, 77, 0
13, 274080, Note_on_c, 11, 77, 52
13, 274199, Note_on_c, 11, 77, 0
13, 274200, Note_on_c, 11, 79, 52
13, 274319, Note_on_c, 11, 79, 0
13, 274320, Note_on_c, 11, 80, 68
13, 274379, Note_on_c, 11, 80, 0
13, 274380, Note_on_c, 11, 80, 52
13, 274559, Note_on_c, 11, 80, 0
13, 274560, Note_on_c, 11, 74, 52
13, 274799, Note_on_c, 11, 74, 0
13, 282240, Program_c, 11, 45
13, 282480, Note_on_c, 11, 63, 48
13, 282719, Note_on_c, 11, 63, 0
13, 285360, Note_on_c, 11, 63, 48
13, 285599, Note_on_c, 11, 63, 0
13, 288960, Program_c, 11, 48
13, 289320, Note_on_c, 11, 65, 44
13, 289439, Note_on_c, 11, 65, 0
13, 289440, Note_on_c, 11, 66, 44
13, 289559, Note_on_c, 11, 66, 0
13, 289560, Note_on_c, 11, 65, 44
13, 289664, Note_on_c, 11, 65, 0
13, 289680, Note_on_c, 11, 66, 44
13, 289859, Note_on_c, 11, 66, 0
13, 290040, Note_on_c, 11, 65, 45
13, 290159, Note_on_c, 11, 65, 0
13, 290160, Note_on_c, 11, 66, 45
13, 290279, Note_on_c, 11, 66, 0
13, 290280, Note_on_c, 11, 65, 46
13, 290384, Note_on_c, 11, 65, 0
13, 290400, Note_on_c, 11, 66, 46
13, 290579, Note_on_c, 11, 66, 0
13, 290760, Note_on_c, 11, 65, 47
13, 290879, Note_on_c, 11, 65, 0
13, 290880, Note_on_c, 11, 66, 47
13, 290999, Note_on_c, 11, 66, 0
13, 291000, Note_on_c, 11, 65, 48
13, 291119, Note_on_c, 11, 65, 0
13, 291120, Note_on_c, 11, 66, 48
13, 291239, Note_on_c, 11, 66, 0
13, 291240, Note_on_c, 11, 64, 48
13, 291359, Note_on_c, 11, 64, 0
13, 291360, Note_on_c, 11, 65, 49
13, 291479, Note_on_c, 11, 65, 0
13, 291480, Note_on_c, 11, 64, 49
13, 291599, Note_on_c, 11, 64, 0
13, 291600, Note_on_c, 11, 65, 49
13, 291719, Note_on_c, 11, 65, 0
13, 291720, Note_on_c, 11, 64, 50
13, 291839, Note_on_c, 11, 64, 0
13, 291840, Note_on_c, 11, 65, 50
13, 291959, Note_on_c, 11, 65, 0
13, 291960, Note_on_c, 11, 57, 50
13, 292079, Note_on_c, 11, 57, 0
13, 292080, Note_on_c, 11, 58, 51
13, 292199, Note_on_c, 11, 58, 0
13, 292200, Note_on_c, 11, 57, 51
13, 292319, Note_on_c, 11, 57, 0
13, 292320, Note_on_c, 11, 58, 51
13, 292439, Note_on_c, 11, 58, 0
13, 292440, Note_on_c, 11, 57, 52
13, 292559, Note_on_c, 11, 57, 0
13, 292560, Note_on_c, 11, 58, 52
13, 292679, Note_on_c, 11, 58, 0
13, 292680, Note_on_c, 11, 57, 52
13, 292799, Note_on_c, 11, 57, 0
13, 292800, Note_on_c, 11, 58, 52
13, 292919, Note_on_c, 11, 58, 0
13, 292920, Note_on_c, 11, 57, 53
13, 293039, Note_on_c, 11, 57, 0
13, 293040, Note_on_c, 11, 58, 53
13, 293159, Note_on_c, 11, 58, 0
13, 293160, Note_on_c, 11, 57, 53
13, 293279, Note_on_c, 11, 57, 0
13, 293280, Note_on_c, 11, 58, 54
13, 293399, Note_on_c, 11, 58, 0
13, 293400, Note_on_c, 11, 57, 54
13, 293519, Note_on_c, 11, 57, 0
13, 293520, Note_on_c, 11, 58, 54
13, 293639, Note_on_c, 11, 58, 0
13, 293640, Note_on_c, 11, 57, 55
13, 293759, Note_on_c, 11, 57, 0
13, 293760, Note_on_c, 11, 58, 55
13, 293879, Note_on_c, 11, 58, 0
13, 293880, Note_on_c, 11, 57, 55
13, 293984, Note_on_c, 11, 57, 0
13, 294000, Note_on_c, 11, 58, 56
13, 294119, Note_on_c, 11, 58, 0
13, 294120, Note_on_c, 11, 57, 56
13, 294239, Note_on_c, 11, 57, 0
13, 294240, Note_on_c, 11, 58, 56
13, 294359, Note_on_c, 11, 58, 0
13, 294360, Note_on_c, 11, 57, 57
13, 294479, Note_on_c, 11, 57, 0
13, 294480, Note_on_c, 11, 58, 57
13, 294599, Note_on_c, 11, 58, 0
13, 294600, Note_on_c, 11, 57, 57
13, 294719, Note_on_c, 11, 57, 0
13, 294720, Note_on_c, 11, 58, 58
13, 294839, Note_on_c, 11, 58, 0
13, 294840, Note_on_c, 11, 57, 58
13, 294959, Note_on_c, 11, 57, 0
13, 294960, Note_on_c, 11, 58, 58
13, 295079, Note_on_c, 11, 58, 0
13, 295080, Note_on_c, 11, 57, 59
13, 295199, Note_on_c, 11, 57, 0
13, 295200, Note_on_c, 11, 58, 59
13, 295319, Note_on_c, 11, 58, 0
13, 295320, Note_on_c, 11, 57, 59
13, 295439, Note_on_c, 11, 57, 0
13, 295440, Note_on_c, 11, 58, 60
13, 295619, Note_on_c, 11, 58, 0
13, 295640, Note_on_c, 11, 71, 61
13, 295679, Note_on_c, 11, 71, 0
13, 295680, Note_on_c, 11, 72, 61
13, 295859, Note_on_c, 11, 72, 0
13, 295880, Note_on_c, 11, 74, 62
13, 295919, Note_on_c, 11, 74, 0
13, 295920, Note_on_c, 11, 75, 62
13, 296129, Note_on_c, 11, 75, 0
13, 296160, Note_on_c, 11, 79, 68
13, 296280, Control_c, 11, 11, 127
13, 296330, Control_c, 11, 11, 124
13, 296380, Control_c, 11, 11, 122
13, 296430, Control_c, 11, 11, 119
13, 296480, Control_c, 11, 11, 117
13, 296530, Control_c, 11, 11, 114
13, 296580, Control_c, 11, 11, 112
13, 296630, Control_c, 11, 11, 109
13, 296639, Note_on_c, 11, 79, 0
13, 296640, Note_on_c, 11, 75, 68
13, 296680, Control_c, 11, 11, 106
13, 296730, Control_c, 11, 11, 104
13, 296759, Note_on_c, 11, 75, 0
13, 296760, Note_on_c, 11, 72, 68
13, 296780, Control_c, 11, 11, 101
13, 296830, Control_c, 11, 11, 99
13, 296879, Note_on_c, 11, 72, 0
13, 298080, Control_c, 11, 11, 127
13, 298520, Note_on_c, 11, 73, 68
13, 298559, Note_on_c, 11, 73, 0
13, 298560, Note_on_c, 11, 74, 68
13, 298739, Note_on_c, 11, 74, 0
13, 298760, Note_on_c, 11, 76, 69
13, 298799, Note_on_c, 11, 76, 0
13, 298800, Note_on_c, 11, 77, 69
13, 299009, Note_on_c, 11, 77, 0
13, 299040, Note_on_c, 11, 80, 76
13, 299160, Control_c, 11, 11, 127
13, 299210, Control_c, 11, 11, 124
13, 299260, Control_c, 11, 11, 122
13, 299310, Control_c, 11, 11, 119
13, 299360, Control_c, 11, 11, 117
13, 299410, Control_c, 11, 11, 114
13, 299460, Control_c, 11, 11, 112
13, 299510, Control_c, 11, 11, 109
13, 299519, Note_on_c, 11, 80, 0
13, 299520, Note_on_c, 11, 77, 76
13, 299560, Control_c, 11, 11, 106
13, 299610, Control_c, 11, 11, 104
13, 299639, Note_on_c, 11, 77, 0
13, 299640, Note_on_c, 11, 74, 76
13, 299660, Control_c, 11, 11, 101
13, 299710, Control_c, 11, 11, 99
13, 299759, Note_on_c, 11, 74, 0
13, 304800, Control_c, 11, 11, 127
13, 305280, Note_on_c, 11, 74, 84
13, 305399, Note_on_c, 11, 74, 0
13, 305400, Note_on_c, 11, 75, 84
13, 305519, Note_on_c, 11, 75, 0
13, 305520, Note_on_c, 11, 77, 84
13, 305999, Note_on_c, 11, 77, 0
13, 306000, Note_on_c, 11, 74, 84
13, 306239, Note_on_c, 11, 74, 0
13, 306240, Note_on_c, 11, 75, 84
13, 306719, Note_on_c, 11, 75, 0
13, 306720, Note_on_c, 11, 77, 84
13, 306929, Note_on_c, 11, 77, 0
13, 306960, Note_on_c, 11, 79, 92
13, 307079, Note_on_c, 11, 79, 0
13, 307080, Note_on_c, 11, 79, 84
13, 308129, Note_on_c, 11, 79, 0
13, 308160, Note_on_c, 11, 77, 84
13, 308399, Note_on_c, 11, 77, 0
13, 308400, Note_on_c, 11, 75, 84
13, 308639, Note_on_c, 11, 75, 0
13, 308880, Note_on_c, 11, 75, 84
13, 309119, Note_on_c, 11, 75, 0
13, 309120, Note_on_c, 11, 75, 84
13, 309179, Note_on_c, 11, 75, 0
13, 309180, Note_on_c, 11, 77, 84
13, 309239, Note_on_c, 11, 77, 0
13, 309240, Note_on_c, 11, 75, 84
13, 309299, Note_on_c, 11, 75, 0
13, 309300, Note_on_c, 11, 77, 84
13, 309359, Note_on_c, 11, 77, 0
13, 309360, Note_on_c, 11, 75, 84
13, 309419, Note_on_c, 11, 75, 0
13, 309420, Note_on_c, 11, 77, 84
13, 309479, Note_on_c, 11, 77, 0
13, 309480, Note_on_c, 11, 74, 84
13, 309584, Note_on_c, 11, 74, 0
13, 309600, Note_on_c, 11, 75, 84
13, 309809, Note_on_c, 11, 75, 0
13, 309840, Note_on_c, 11, 74, 84
13, 310079, Note_on_c, 11, 74, 0
13, 310320, Note_on_c, 11, 77, 84
13, 310559, Note_on_c, 11, 77, 0
13, 310560, Note_on_c, 11, 74, 84
13, 310799, Note_on_c, 11, 74, 0
13, 311760, Note_on_c, 11, 77, 84
13, 311999, Note_on_c, 11, 77, 0
13, 312000, Note_on_c, 11, 75, 84
13, 312239, Note_on_c, 11, 75, 0
13, 313200, Note_on_c, 11, 77, 84
13, 313439, Note_on_c, 11, 77, 0
13, 313440, Note_on_c, 11, 74, 80
13, 313679, Note_on_c, 11, 74, 0
13, 314640, Note_on_c, 11, 77, 60
13, 314879, Note_on_c, 11, 77, 0
13, 314880, Note_on_c, 11, 75, 56
13, 315119, Note_on_c, 11, 75, 0
13, 315720, Note_on_c, 11, 70, 44
13, 315839, Note_on_c, 11, 70, 0
13, 315840, Note_on_c, 11, 69, 44
13, 315959, Note_on_c, 11, 69, 0
13, 315960, Note_on_c, 11, 70, 44
13, 316079, Note_on_c, 11, 70, 0
13, 316080, Note_on_c, 11, 74, 44
13, 316199, Note_on_c, 11, 74, 0
13, 316200, Note_on_c, 11, 70, 44
13, 316304, Note_on_c, 11, 70, 0
13, 316320, Note_on_c, 11, 74, 44
13, 316439, Note_on_c, 11, 74, 0
13, 316440, Note_on_c, 11, 70, 44
13, 316559, Note_on_c, 11, 70, 0
13, 316560, Note_on_c, 11, 69, 44
13, 316679, Note_on_c, 11, 69, 0
13, 316680, Note_on_c, 11, 70, 44
13, 316799, Note_on_c, 11, 70, 0
13, 316800, Note_on_c, 11, 74, 44
13, 316919, Note_on_c, 11, 74, 0
13, 316920, Note_on_c, 11, 70, 44
13, 317024, Note_on_c, 11, 70, 0
13, 317040, Note_on_c, 11, 74, 44
13, 317159, Note_on_c, 11, 74, 0
13, 317160, Note_on_c, 11, 70, 44
13, 317279, Note_on_c, 11, 70, 0
13, 317280, Note_on_c, 11, 69, 44
13, 317399, Note_on_c, 11, 69, 0
13, 317400, Note_on_c, 11, 70, 44
13, 317519, Note_on_c, 11, 70, 0
13, 317520, Note_on_c, 11, 74, 44
13, 317639, Note_on_c, 11, 74, 0
13, 317640, Note_on_c, 11, 70, 44
13, 317744, Note_on_c, 11, 70, 0
13, 317760, Note_on_c, 11, 74, 44
13, 317879, Note_on_c, 11, 74, 0
13, 317880, Note_on_c, 11, 70, 44
13, 317999, Note_on_c, 11, 70, 0
13, 318000, Note_on_c, 11, 69, 44
13, 318119, Note_on_c, 11, 69, 0
13, 318120, Note_on_c, 11, 70, 44
13, 318239, Note_on_c, 11, 70, 0
13, 318240, Note_on_c, 11, 74, 44
13, 318359, Note_on_c, 11, 74, 0
13, 318360, Note_on_c, 11, 70, 44
13, 318464, Note_on_c, 11, 70, 0
13, 318480, Note_on_c, 11, 74, 44
13, 318689, Note_on_c, 11, 74, 0
13, 318960, Control_c, 11, 11, 64
13, 319680, Note_on_c, 11, 78, 76
13, 319680, Control_c, 11, 11, 64
13, 319740, Control_c, 11, 11, 67
13, 319800, Control_c, 11, 11, 69
13, 319860, Control_c, 11, 11, 72
13, 319919, Note_on_c, 11, 78, 0
13, 319920, Control_c, 11, 11, 75
13, 319920, Note_on_c, 11, 79, 76
13, 319980, Control_c, 11, 11, 77
13, 320039, Note_on_c, 11, 79, 0
13, 320040, Control_c, 11, 11, 80
13, 320100, Control_c, 11, 11, 82
13, 320160, Control_c, 11, 11, 85
13, 320160, Note_on_c, 11, 79, 76
13, 320220, Control_c, 11, 11, 88
13, 320280, Control_c, 11, 11, 90
13, 320340, Control_c, 11, 11, 93
13, 320399, Note_on_c, 11, 79, 0
13, 320400, Note_on_c, 11, 80, 76
13, 320400, Control_c, 11, 11, 96
13, 320460, Control_c, 11, 11, 98
13, 320519, Note_on_c, 11, 80, 0
13, 320520, Control_c, 11, 11, 101
13, 320580, Control_c, 11, 11, 103
13, 320640, Control_c, 11, 11, 106
13, 320640, Note_on_c, 11, 80, 76
13, 320700, Control_c, 11, 11, 109
13, 320760, Control_c, 11, 11, 111
13, 320820, Control_c, 11, 11, 114
13, 320879, Note_on_c, 11, 80, 0
13, 320880, Control_c, 11, 11, 117
13, 320880, Note_on_c, 11, 81, 76
13, 320940, Control_c, 11, 11, 119
13, 320999, Note_on_c, 11, 81, 0
13, 321000, Control_c, 11, 11, 122
13, 321060, Control_c, 11, 11, 127
13, 321120, Note_on_c, 11, 81, 76
13, 321359, Note_on_c, 11, 81, 0
13, 321360, Note_on_c, 11, 82, 84
13, 321479, Note_on_c, 11, 82, 0
13, 321600, Note_on_c, 11, 77, 84
13, 321839, Note_on_c, 11, 77, 0
13, 321840, Note_on_c, 11, 86, 84
13, 321959, Note_on_c, 11, 86, 0
13, 322080, Note_on_c, 11, 82, 84
13, 322319, Note_on_c, 11, 82, 0
13, 322320, Note_on_c, 11, 89, 84
13, 322439, Note_on_c, 11, 89, 0
13, 322560, Note_on_c, 11, 86, 84
13, 322769, Note_on_c, 11, 86, 0
13, 322800, Note_on_c, 11, 89, 84
13, 323039, Note_on_c, 11, 89, 0
13, 323040, Note_on_c, 11, 87, 84
13, 323249, Note_on_c, 11, 87, 0
13, 323280, Note_on_c, 11, 84, 84
13, 323459, Note_on_c, 11, 84, 0
13, 323520, Note_on_c, 11, 81, 84
13, 323759, Note_on_c, 11, 81, 0
13, 325440, Note_on_c, 11, 78, 52
13, 325679, Note_on_c, 11, 78, 0
13, 325680, Note_on_c, 11, 75, 52
13, 325919, Note_on_c, 11, 75, 0
13, 325920, Note_on_c, 11, 72, 52
13, 326159, Note_on_c, 11, 72, 0
13, 326160, Note_on_c, 11, 69, 52
13, 326399, Note_on_c, 11, 69, 0
13, 326400, Note_on_c, 11, 66, 52
13, 326639, Note_on_c, 11, 66, 0
13, 326640, Note_on_c, 11, 65, 52
13, 326879, Note_on_c, 11, 65, 0
13, 328320, Note_on_c, 11, 80, 52
13, 328559, Note_on_c, 11, 80, 0
13, 328560, Note_on_c, 11, 77, 52
13, 328799, Note_on_c, 11, 77, 0
13, 328800, Note_on_c, 11, 74, 52
13, 329039, Note_on_c, 11, 74, 0
13, 329040, Note_on_c, 11, 71, 52
13, 329279, Note_on_c, 11, 71, 0
13, 329280, Note_on_c, 11, 68, 52
13, 329519, Note_on_c, 11, 68, 0
13, 329520, Note_on_c, 11, 67, 52
13, 329729, Note_on_c, 11, 67, 0
13, 329760, Note_on_c, 11, 73, 52
13, 329999, Note_on_c, 11, 73, 0
13, 330000, Note_on_c, 11, 70, 52
13, 330239, Note_on_c, 11, 70, 0
13, 330240, Note_on_c, 11, 67, 52
13, 330479, Note_on_c, 11, 67, 0
13, 330480, Note_on_c, 11, 64, 52
13, 330719, Note_on_c, 11, 64, 0
13, 330720, Note_on_c, 11, 61, 52
13, 330959, Note_on_c, 11, 61, 0
13, 330960, Note_on_c, 11, 60, 52
13, 331169, Note_on_c, 11, 60, 0
13, 331198, Control_c, 11, 11, 96
13, 331200, Note_on_c, 11, 64, 68
13, 331439, Note_on_c, 11, 64, 0
13, 331440, Note_on_c, 11, 65, 68
13, 332879, Note_on_c, 11, 65, 0
13, 332880, Note_on_c, 11, 65, 68
13, 332880, Control_c, 11, 11, 96
13, 332933, Control_c, 11, 11, 98
13, 332987, Control_c, 11, 11, 99
13, 333040, Control_c, 11, 11, 101
13, 333093, Control_c, 11, 11, 103
13, 333147, Control_c, 11, 11, 105
13, 333200, Control_c, 11, 11, 106
13, 333253, Control_c, 11, 11, 108
13, 333307, Control_c, 11, 11, 110
13, 333360, Control_c, 11, 11, 112
13, 333413, Control_c, 11, 11, 113
13, 333467, Control_c, 11, 11, 115
13, 333520, Control_c, 11, 11, 117
13, 333573, Control_c, 11, 11, 118
13, 333627, Control_c, 11, 11, 120
13, 333680, Control_c, 11, 11, 122
13, 333733, Control_c, 11, 11, 124
13, 333787, Control_c, 11, 11, 127
13, 334049, Note_on_c, 11, 65, 0
13, 334080, Note_on_c, 11, 66, 76
13, 334318, Control_c, 11, 11, 96
13, 334319, Note_on_c, 11, 66, 0
13, 334320, Note_on_c, 11, 65, 68
13, 335759, Note_on_c, 11, 65, 0
13, 335760, Control_c, 11, 11, 96
13, 335760, Note_on_c, 11, 65, 68
13, 335813, Control_c, 11, 11, 98
13, 335867, Control_c, 11, 11, 99
13, 335920, Control_c, 11, 11, 101
13, 335973, Control_c, 11, 11, 103
13, 336027, Control_c, 11, 11, 105
13, 336080, Control_c, 11, 11, 106
13, 336133, Control_c, 11, 11, 108
13, 336187, Control_c, 11, 11, 110
13, 336240, Control_c, 11, 11, 112
13, 336293, Control_c, 11, 11, 113
13, 336347, Control_c, 11, 11, 115
13, 336400, Control_c, 11, 11, 117
13, 336453, Control_c, 11, 11, 118
13, 336507, Control_c, 11, 11, 120
13, 336560, Control_c, 11, 11, 122
13, 336613, Control_c, 11, 11, 124
13, 336667, Control_c, 11, 11, 127
13, 336929, Note_on_c, 11, 65, 0
13, 336960, Note_on_c, 11, 66, 76
13, 337199, Note_on_c, 11, 66, 0
13, 337200, Note_on_c, 11, 65, 68
13, 337409, Note_on_c, 11, 65, 0
13, 337440, Note_on_c, 11, 81, 76
13, 337440, Note_on_c, 11, 69, 76
13, 337889, Note_on_c, 11, 81, 0
13, 337889, Note_on_c, 11, 69, 0
13, 337920, Note_on_c, 11, 70, 76
13, 337920, Note_on_c, 11, 82, 76
13, 338369, Note_on_c, 11, 70, 0
13, 338369, Note_on_c, 11, 82, 0
13, 338400, Note_on_c, 11, 79, 76
13, 338579, Note_on_c, 11, 79, 0
13, 338640, Note_on_c, 11, 77, 84
13, 339329, Note_on_c, 11, 77, 0
13, 339360, Note_on_c, 11, 81, 84
13, 339360, Note_on_c, 11, 72, 84
13, 340049, Note_on_c, 11, 81, 0
13, 340049, Note_on_c, 11, 72, 0
13, 340080, Note_on_c, 11, 82, 84
13, 340080, Note_on_c, 11, 74, 84
13, 340184, Note_on_c, 11, 82, 0
13, 340184, Note_on_c, 11, 74, 0
13, 340200, Note_on_c, 11, 74, 84
13, 340200, Note_on_c, 11, 82, 84
13, 340304, Note_on_c, 11, 74, 0
13, 340304, Note_on_c, 11, 82, 0
13, 340320, Note_on_c, 11, 82, 84
13, 340320, Note_on_c, 11, 74, 84
13, 340424, Note_on_c, 11, 82, 0
13, 340424, Note_on_c, 11, 74, 0
13, 340440, Note_on_c, 11, 74, 84
13, 340440, Note_on_c, 11, 82, 84
13, 340544, Note_on_c, 11, 74, 0
13, 340544, Note_on_c, 11, 82, 0
13, 340560, Note_on_c, 11, 82, 84
13, 340560, Note_on_c, 11, 74, 84
13, 340664, Note_on_c, 11, 82, 0
13, 340664, Note_on_c, 11, 74, 0
13, 340680, Note_on_c, 11, 74, 84
13, 340680, Note_on_c, 11, 82, 84
13, 340784, Note_on_c, 11, 74, 0
13, 340784, Note_on_c, 11, 82, 0
13, 340800, Note_on_c, 11, 74, 84
13, 340800, Note_on_c, 11, 82, 84
13, 340904, Note_on_c, 11, 74, 0
13, 340904, Note_on_c, 11, 82, 0
13, 340920, Note_on_c, 11, 74, 84
13, 340920, Note_on_c, 11, 82, 84
13, 341024, Note_on_c, 11, 74, 0
13, 341024, Note_on_c, 11, 82, 0
13, 341040, Note_on_c, 11, 82, 84
13, 341040, Note_on_c, 11, 74, 84
13, 341144, Note_on_c, 11, 82, 0
13, 341144, Note_on_c, 11, 74, 0
13, 341160, Note_on_c, 11, 74, 84
13, 341160, Note_on_c, 11, 82, 84
13, 341264, Note_on_c, 11, 74, 0
13, 341264, Note_on_c, 11, 82, 0
13, 341280, Note_on_c, 11, 74, 84
13, 341280, Note_on_c, 11, 82, 84
13, 341384, Note_on_c, 11, 74, 0
13, 341384, Note_on_c, 11, 82, 0
13, 341400, Note_on_c, 11, 82, 84
13, 341400, Note_on_c, 11, 74, 84
13, 341504, Note_on_c, 11, 82, 0
13, 341504, Note_on_c, 11, 74, 0
13, 341520, Note_on_c, 11, 81, 84
13, 341759, Note_on_c, 11, 81, 0
13, 341760, Note_on_c, 11, 77, 84
13, 341879, Note_on_c, 11, 77, 0
13, 342000, Note_on_c, 11, 84, 84
13, 342239, Note_on_c, 11, 84, 0
13, 342240, Note_on_c, 11, 81, 84
13, 342359, Note_on_c, 11, 81, 0
13, 342480, Note_on_c, 11, 87, 84
13, 342719, Note_on_c, 11, 87, 0
13, 342720, Note_on_c, 11, 84, 84
13, 342839, Note_on_c, 11, 84, 0
13, 342960, Note_on_c, 11, 74, 84
13, 342960, Note_on_c, 11, 82, 84
13, 343064, Note_on_c, 11, 74, 0
13, 343064, Note_on_c, 11, 82, 0
13, 343080, Note_on_c, 11, 74, 84
13, 343080, Note_on_c, 11, 82, 84
13, 343184, Note_on_c, 11, 74, 0
13, 343184, Note_on_c, 11, 82, 0
13, 343200, Note_on_c, 11, 74, 84
13, 343200, Note_on_c, 11, 82, 84
13, 343304, Note_on_c, 11, 74, 0
13, 343304, Note_on_c, 11, 82, 0
13, 343320, Note_on_c, 11, 82, 84
13, 343320, Note_on_c, 11, 74, 84
13, 343424, Note_on_c, 11, 82, 0
13, 343424, Note_on_c, 11, 74, 0
13, 343440, Note_on_c, 11, 74, 84
13, 343440, Note_on_c, 11, 82, 84
13, 343544, Note_on_c, 11, 74, 0
13, 343544, Note_on_c, 11, 82, 0
13, 343560, Note_on_c, 11, 82, 84
13, 343560, Note_on_c, 11, 74, 84
13, 343664, Note_on_c, 11, 82, 0
13, 343664, Note_on_c, 11, 74, 0
13, 343680, Note_on_c, 11, 74, 84
13, 343680, Note_on_c, 11, 82, 84
13, 343784, Note_on_c, 11, 74, 0
13, 343784, Note_on_c, 11, 82, 0
13, 343800, Note_on_c, 11, 82, 84
13, 343800, Note_on_c, 11, 74, 84
13, 343904, Note_on_c, 11, 82, 0
13, 343904, Note_on_c, 11, 74, 0
13, 343920, Note_on_c, 11, 74, 84
13, 343920, Note_on_c, 11, 82, 84
13, 344024, Note_on_c, 11, 74, 0
13, 344024, Note_on_c, 11, 82, 0
13, 344040, Note_on_c, 11, 82, 84
13, 344040, Note_on_c, 11, 74, 84
13, 344144, Note_on_c, 11, 82, 0
13, 344144, Note_on_c, 11, 74, 0
13, 344160, Note_on_c, 11, 82, 84
13, 344160, Note_on_c, 11, 74, 84
13, 344264, Note_on_c, 11, 82, 0
13, 344264, Note_on_c, 11, 74, 0
13, 344280, Note_on_c, 11, 74, 84
13, 344280, Note_on_c, 11, 82, 84
13, 344384, Note_on_c, 11, 74, 0
13, 344384, Note_on_c, 11, 82, 0
13, 344400, Note_on_c, 11, 81, 84
13, 344639, Note_on_c, 11, 81, 0
13, 344640, Note_on_c, 11, 77, 84
13, 344759, Note_on_c, 11, 77, 0
13, 344880, Note_on_c, 11, 84, 84
13, 345119, Note_on_c, 11, 84, 0
13, 345120, Note_on_c, 11, 81, 84
13, 345239, Note_on_c, 11, 81, 0
13, 345360, Note_on_c, 11, 87, 84
13, 345599, Note_on_c, 11, 87, 0
13, 345600, Note_on_c, 11, 84, 84
13, 345719, Note_on_c, 11, 84, 0
13, 345840, Note_on_c, 11, 82, 76
13, 345840, Note_on_c, 11, 74, 76
13, 346529, Note_on_c, 11, 82, 0
13, 346529, Note_on_c, 11, 74, 0
13, 346560, Note_on_c, 11, 86, 76
13, 346560, Note_on_c, 11, 74, 76
13, 347249, Note_on_c, 11, 86, 0
13, 347249, Note_on_c, 11, 74, 0
13, 347280, Note_on_c, 11, 89, 76
13, 347489, Note_on_c, 11, 89, 0
13, 347520, Note_on_c, 11, 89, 76
13, 347729, Note_on_c, 11, 89, 0
13, 347760, Note_on_c, 11, 89, 76
13, 347969, Note_on_c, 11, 89, 0
13, 348000, Note_on_c, 11, 82, 76
13, 348239, Note_on_c, 11, 82, 0
13, 350160, Note_on_c, 11, 82, 84
13, 350160, Note_on_c, 11, 70, 84
13, 350160, Note_on_c, 11, 62, 84
13, 350399, Note_on_c, 11, 82, 0
13, 350399, Note_on_c, 11, 70, 0
13, 350399, Note_on_c, 11, 62, 0
13, 350399, End_track
14, 0, Start_track
14, 0, Title_t, "Violin II"
14, 0, MIDI_port, 0
14, 0, Program_c, 12, 48
14, 0, Control_c, 12, 7, 96
14, 0, Control_c, 12, 10, 24
14, 0, Control_c, 12, 11, 127
14, 0, Note_on_c, 12, 65, 84
14, 239, Note_on_c, 12, 65, 0
14, 240, Note_on_c, 12, 62, 84
14, 359, Note_on_c, 12, 62, 0
14, 480, Note_on_c, 12, 62, 84
14, 480, Note_on_c, 12, 58, 84
14, 929, Note_on_c, 12, 62, 0
14, 929, Note_on_c, 12, 58, 0
14, 960, Note_on_c, 12, 62, 84
14, 960, Note_on_c, 12, 58, 84
14, 1409, Note_on_c, 12, 62, 0
14, 1409, Note_on_c, 12, 58, 0
14, 1440, Note_on_c, 12, 62, 84
14, 1440, Note_on_c, 12, 58, 84
14, 1649, Note_on_c, 12, 62, 0
14, 1649, Note_on_c, 12, 58, 0
14, 1680, Note_on_c, 12, 60, 84
14, 1680, Note_on_c, 12, 63, 84
14, 2129, Note_on_c, 12, 60, 0
14, 2129, Note_on_c, 12, 63, 0
14, 2160, Note_on_c, 12, 60, 84
14, 2160, Note_on_c, 12, 63, 84
14, 2369, Note_on_c, 12, 60, 0
14, 2369, Note_on_c, 12, 63, 0
14, 2400, Note_on_c, 12, 60, 84
14, 2400, Note_on_c, 12, 63, 84
14, 2639, Note_on_c, 12, 60, 0
14, 2639, Note_on_c, 12, 63, 0
14, 4320, Note_on_c, 12, 66, 52
14, 4559, Note_on_c, 12, 66, 0
14, 4560, Note_on_c, 12, 63, 52
14, 4799, Note_on_c, 12, 63, 0
14, 4800, Note_on_c, 12, 72, 52
14, 5039, Note_on_c, 12, 72, 0
14, 5040, Note_on_c, 12, 69, 52
14, 5279, Note_on_c, 12, 69, 0
14, 5280, Note_on_c, 12, 66, 52
14, 5519, Note_on_c, 12, 66, 0
14, 5520, Note_on_c, 12, 65, 52
14, 5759, Note_on_c, 12, 65, 0
14, 5760, Note_on_c, 12, 63, 52
14, 5999, Note_on_c, 12, 63, 0
14, 6000, Note_on_c, 12, 61, 52
14, 6239, Note_on_c, 12, 61, 0
14, 7200, Note_on_c, 12, 61, 52
14, 7439, Note_on_c, 12, 61, 0
14, 7440, Note_on_c, 12, 58, 52
14, 7679, Note_on_c, 12, 58, 0
14, 7680, Note_on_c, 12, 67, 52
14, 7919, Note_on_c, 12, 67, 0
14, 7920, Note_on_c, 12, 64, 52
14, 8159, Note_on_c, 12, 64, 0
14, 8160, Note_on_c, 12, 61, 52
14, 8399, Note_on_c, 12, 61, 0
14, 8400, Note_on_c, 12, 60, 52
14, 8639, Note_on_c, 12, 60, 0
14, 8640, Note_on_c, 12, 60, 52
14, 8879, Note_on_c, 12, 60, 0
14, 8880, Note_on_c, 12, 60, 52
14, 8999, Note_on_c, 12, 60, 0
14, 9118, Control_c, 12, 11, 80
14, 9120, Control_c, 12, 11, 80
14, 9120, Note_on_c, 12, 60, 76
14, 9220, Control_c, 12, 11, 82
14, 9320, Control_c, 12, 11, 84
14, 9420, Control_c, 12, 11, 86
14, 9520, Control_c, 12, 11, 88
14, 9569, Note_on_c, 12, 60, 0
14, 9600, Note_on_c, 12, 60, 76
14, 9620, Control_c, 12, 11, 90
14, 9720, Control_c, 12, 11, 92
14, 9820, Control_c, 12, 11, 94
14, 9839, Note_on_c, 12, 60, 0
14, 9840, Note_on_c, 12, 65, 76
14, 9920, Control_c, 12, 11, 96
14, 9959, Note_on_c, 12, 65, 0
14, 10020, Control_c, 12, 11, 98
14, 10080, Note_on_c, 12, 65, 84
14, 10120, Control_c, 12, 11, 100
14, 10220, Control_c, 12, 11, 102
14, 10319, Note_on_c, 12, 65, 0
14, 10320, Note_on_c, 12, 65, 76
14, 10320, Control_c, 12, 11, 104
14, 10420, Control_c, 12, 11, 105
14, 10520, Control_c, 12, 11, 107
14, 10529, Note_on_c, 12, 65, 0
14, 10560, Note_on_c, 12, 65, 76
14, 10620, Control_c, 12, 11, 109
14, 10720, Control_c, 12, 11, 111
14, 10820, Control_c, 12, 11, 113
14, 10920, Control_c, 12, 11, 115
14, 11009, Note_on_c, 12, 65, 0
14, 11020, Control_c, 12, 11, 117
14, 11040, Note_on_c, 12, 65, 76
14, 11120, Control_c, 12, 11, 119
14, 11220, Control_c, 12, 11, 121
14, 11279, Note_on_c, 12, 65, 0
14, 11280, Note_on_c, 12, 70, 76
14, 11320, Control_c, 12, 11, 123
14, 11399, Note_on_c, 12, 70, 0
14, 11420, Control_c, 12, 11, 125
14, 11520, Note_on_c, 12, 70, 76
14, 11520, Control_c, 12, 11, 127
14, 11520, Note_on_c, 12, 67, 76
14, 11699, Note_on_c, 12, 70, 0
14, 11699, Note_on_c, 12, 67, 0
14, 11760, Note_on_c, 12, 69, 84
14, 11760, Note_on_c, 12, 65, 84
14, 12449, Note_on_c, 12, 69, 0
14, 12449, Note_on_c, 12, 65, 0
14, 12480, Note_on_c, 12, 65, 84
14, 12480, Note_on_c, 12, 69, 84
14, 13169, Note_on_c, 12, 65, 0
14, 13169, Note_on_c, 12, 69, 0
14, 13200, Note_on_c, 12, 65, 84
14, 13200, Note_on_c, 12, 69, 84
14, 13409, Note_on_c, 12, 65, 0
14, 13409, Note_on_c, 12, 69, 0
14, 13440, Note_on_c, 12, 69, 84
14, 13440, Note_on_c, 12, 65, 84
14, 13649, Note_on_c, 12, 69, 0
14, 13649, Note_on_c, 12, 65, 0
14, 13680, Note_on_c, 12, 69, 84
14, 13680, Note_on_c, 12, 65, 84
14, 13889, Note_on_c, 12, 69, 0
14, 13889, Note_on_c, 12, 65, 0
14, 13920, Note_on_c, 12, 69, 84
14, 13920, Note_on_c, 12, 65, 84
14, 14159, Note_on_c, 12, 69, 0
14, 14159, Note_on_c, 12, 65, 0
14, 14400, Note_on_c, 12, 65, 84
14, 14639, Note_on_c, 12, 65, 0
14, 14640, Note_on_c, 12, 62, 84
14, 14759, Note_on_c, 12, 62, 0
14, 14880, Note_on_c, 12, 58, 84
14, 14880, Note_on_c, 12, 62, 84
14, 15329, Note_on_c, 12, 58, 0
14, 15329, Note_on_c, 12, 62, 0
14, 15360, Note_on_c, 12, 62, 84
14, 15360, Note_on_c, 12, 58, 84
14, 15809, Note_on_c, 12, 62, 0
14, 15809, Note_on_c, 12, 58, 0
14, 15840, Note_on_c, 12, 58, 84
14, 15840, Note_on_c, 12, 62, 84
14, 16049, Note_on_c, 12, 58, 0
14, 16049, Note_on_c, 12, 62, 0
14, 16080, Note_on_c, 12, 60, 84
14, 16080, Note_on_c, 12, 63, 84
14, 16529, Note_on_c, 12, 60, 0
14, 16529, Note_on_c, 12, 63, 0
14, 16560, Note_on_c, 12, 60, 84
14, 16560, Note_on_c, 12, 63, 84
14, 16769, Note_on_c, 12, 60, 0
14, 16769, Note_on_c, 12, 63, 0
14, 16800, Note_on_c, 12, 63, 84
14, 16800, Note_on_c, 12, 60, 84
14, 17039, Note_on_c, 12, 63, 0
14, 17039, Note_on_c, 12, 60, 0
14, 18720, Note_on_c, 12, 66, 52
14, 18959, Note_on_c, 12, 66, 0
14, 18960, Note_on_c, 12, 63, 52
14, 19199, Note_on_c, 12, 63, 0
14, 19200, Note_on_c, 12, 72, 52
14, 19439, Note_on_c, 12, 72, 0
14, 19440, Note_on_c, 12, 69, 52
14, 19679, Note_on_c, 12, 69, 0
14, 19680, Note_on_c, 12, 66, 52
14, 19919, Note_on_c, 12, 66, 0
14, 19920, Note_on_c, 12, 65, 52
14, 20159, Note_on_c, 12, 65, 0
14, 20160, Note_on_c, 12, 63, 52
14, 20399, Note_on_c, 12, 63, 0
14, 20400, Note_on_c, 12, 61, 52
14, 20639, Note_on_c, 12, 61, 0
14, 21600, Note_on_c, 12, 61, 52
14, 21839, Note_on_c, 12, 61, 0
14, 21840, Note_on_c, 12, 58, 52
14, 22079, Note_on_c, 12, 58, 0
14, 22080, Note_on_c, 12, 67, 52
14, 22319, Note_on_c, 12, 67, 0
14, 22320, Note_on_c, 12, 64, 52
14, 22559, Note_on_c, 12, 64, 0
14, 22560, Note_on_c, 12, 61, 52
14, 22799, Note_on_c, 12, 61, 0
14, 22800, Note_on_c, 12, 60, 52
14, 23039, Note_on_c, 12, 60, 0
14, 23040, Note_on_c, 12, 60, 52
14, 23279, Note_on_c, 12, 60, 0
14, 23280, Note_on_c, 12, 60, 52
14, 23399, Note_on_c, 12, 60, 0
14, 23518, Control_c, 12, 11, 80
14, 23520, Note_on_c, 12, 60, 76
14, 23520, Control_c, 12, 11, 80
14, 23620, Control_c, 12, 11, 82
14, 23720, Control_c, 12, 11, 84
14, 23820, Control_c, 12, 11, 86
14, 23920, Control_c, 12, 11, 88
14, 23969, Note_on_c, 12, 60, 0
14, 24000, Note_on_c, 12, 60, 76
14, 24020, Control_c, 12, 11, 90
14, 24120, Control_c, 12, 11, 92
14, 24220, Control_c, 12, 11, 94
14, 24239, Note_on_c, 12, 60, 0
14, 24240, Note_on_c, 12, 65, 76
14, 24320, Control_c, 12, 11, 96
14, 24359, Note_on_c, 12, 65, 0
14, 24420, Control_c, 12, 11, 98
14, 24480, Note_on_c, 12, 65, 84
14, 24520, Control_c, 12, 11, 100
14, 24620, Control_c, 12, 11, 102
14, 24719, Note_on_c, 12, 65, 0
14, 24720, Control_c, 12, 11, 104
14, 24720, Note_on_c, 12, 65, 76
14, 24820, Control_c, 12, 11, 105
14, 24920, Control_c, 12, 11, 107
14, 24929, Note_on_c, 12, 65, 0
14, 24960, Note_on_c, 12, 65, 76
14, 25020, Control_c, 12, 11, 109
14, 25120, Control_c, 12, 11, 111
14, 25220, Control_c, 12, 11, 113
14, 25320, Control_c, 12, 11, 115
14, 25409, Note_on_c, 12, 65, 0
14, 25420, Control_c, 12, 11, 117
14, 25440, Note_on_c, 12, 65, 76
14, 25520, Control_c, 12, 11, 119
14, 25620, Control_c, 12, 11, 121
14, 25679, Note_on_c, 12, 65, 0
14, 25680, Note_on_c, 12, 70, 76
14, 25720, Control_c, 12, 11, 123
14, 25799, Note_on_c, 12, 70, 0
14, 25820, Control_c, 12, 11, 125
14, 25920, Note_on_c, 12, 67, 76
14, 25920, Note_on_c, 12, 70, 76
14, 25920, Control_c, 12, 11, 127
14, 26099, Note_on_c, 12, 67, 0
14, 26099, Note_on_c, 12, 70, 0
14, 26160, Note_on_c, 12, 69, 84
14, 26160, Note_on_c, 12, 65, 84
14, 26849, Note_on_c, 12, 69, 0
14, 26849, Note_on_c, 12, 65, 0
14, 26880, Note_on_c, 12, 65, 84
14, 26880, Note_on_c, 12, 69, 84
14, 27569, Note_on_c, 12, 65, 0
14, 27569, Note_on_c, 12, 69, 0
14, 27600, Note_on_c, 12, 69, 84
14, 27600, Note_on_c, 12, 65, 84
14, 27809, Note_on_c, 12, 69, 0
14, 27809, Note_on_c, 12, 65, 0
14, 27840, Note_on_c, 12, 65, 84
14, 27840, Note_on_c, 12, 69, 84
14, 28049, Note_on_c, 12, 65, 0
14, 28049, Note_on_c, 12, 69, 0
14, 28080, Note_on_c, 12, 65, 84
14, 28080, Note_on_c, 12, 69, 84
14, 28289, Note_on_c, 12, 65, 0
14, 28289, Note_on_c, 12, 69, 0
14, 28320, Note_on_c, 12, 65, 84
14, 28320, Note_on_c, 12, 69, 84
14, 28559, Note_on_c, 12, 65, 0
14, 28559, Note_on_c, 12, 69, 0
14, 29040, Note_on_c, 12, 65, 52
14, 29249, Note_on_c, 12, 65, 0
14, 29280, Note_on_c, 12, 65, 52
14, 29729, Note_on_c, 12, 65, 0
14, 29760, Note_on_c, 12, 65, 52
14, 30209, Note_on_c, 12, 65, 0
14, 30240, Note_on_c, 12, 65, 52
14, 30449, Note_on_c, 12, 65, 0
14, 30480, Note_on_c, 12, 66, 52
14, 30929, Note_on_c, 12, 66, 0
14, 30960, Note_on_c, 12, 66, 52
14, 31169, Note_on_c, 12, 66, 0
14, 31200, Note_on_c, 12, 66, 52
14, 31409, Note_on_c, 12, 66, 0
14, 31440, Note_on_c, 12, 68, 52
14, 31679, Note_on_c, 12, 68, 0
14, 31680, Note_on_c, 12, 66, 52
14, 31799, Note_on_c, 12, 66, 0
14, 31920, Note_on_c, 12, 63, 52
14, 32159, Note_on_c, 12, 63, 0
14, 32160, Note_on_c, 12, 60, 52
14, 32279, Note_on_c, 12, 60, 0
14, 32880, Note_on_c, 12, 66, 52
14, 32880, Note_on_c, 12, 56, 52
14, 33089, Note_on_c, 12, 66, 0
14, 33089, Note_on_c, 12, 56, 0
14, 33120, Note_on_c, 12, 66, 52
14, 33120, Note_on_c, 12, 56, 52
14, 33329, Note_on_c, 12, 66, 0
14, 33329, Note_on_c, 12, 56, 0
14, 33360, Note_on_c, 12, 65, 52
14, 33360, Note_on_c, 12, 56, 52
14, 33839, Note_on_c, 12, 65, 0
14, 33839, Note_on_c, 12, 56, 0
14, 33840, Note_on_c, 12, 68, 52
14, 34079, Note_on_c, 12, 68, 0
14, 34080, Note_on_c, 12, 68, 52
14, 34289, Note_on_c, 12, 68, 0
14, 34320, Note_on_c, 12, 70, 52
14, 34559, Note_on_c, 12, 70, 0
14, 34560, Note_on_c, 12, 68, 52
14, 34679, Note_on_c, 12, 68, 0
14, 34800, Note_on_c, 12, 65, 52
14, 35039, Note_on_c, 12, 65, 0
14, 35040, Note_on_c, 12, 61, 52
14, 35159, Note_on_c, 12, 61, 0
14, 35760, Note_on_c, 12, 65, 52
14, 35760, Note_on_c, 12, 56, 52
14, 35969, Note_on_c, 12, 65, 0
14, 35969, Note_on_c, 12, 56, 0
14, 36000, Note_on_c, 12, 56, 52
14, 36000, Note_on_c, 12, 65, 52
14, 36209, Note_on_c, 12, 56, 0
14, 36209, Note_on_c, 12, 65, 0
14, 36240, Note_on_c, 12, 68, 52
14, 36689, Note_on_c, 12, 68, 0
14, 36720, Note_on_c, 12, 68, 52
14, 36929, Note_on_c, 12, 68, 0
14, 36960, Note_on_c, 12, 68, 52
14, 37169, Note_on_c, 12, 68, 0
14, 37200, Note_on_c, 12, 70, 52
14, 37439, Note_on_c, 12, 70, 0
14, 37440, Note_on_c, 12, 68, 52
14, 37559, Note_on_c, 12, 68, 0
14, 37680, Note_on_c, 12, 65, 52
14, 37919, Note_on_c, 12, 65, 0
14, 37920, Note_on_c, 12, 62, 52
14, 38039, Note_on_c, 12, 62, 0
14, 40800, Note_on_c, 12, 72, 52
14, 41039, Note_on_c, 12, 72, 0
14, 41040, Note_on_c, 12, 77, 52
14, 41159, Note_on_c, 12, 77, 0
14, 41280, Note_on_c, 12, 72, 52
14, 41519, Note_on_c, 12, 72, 0
14, 41520, Note_on_c, 12, 77, 52
14, 41639, Note_on_c, 12, 77, 0
14, 41760, Note_on_c, 12, 72, 52
14, 41999, Note_on_c, 12, 72, 0
14, 42000, Note_on_c, 12, 73, 52
14, 42239, Note_on_c, 12, 73, 0
14, 43680, Note_on_c, 12, 67, 52
14, 43919, Note_on_c, 12, 67, 0
14, 43920, Note_on_c, 12, 72, 52
14, 44039, Note_on_c, 12, 72, 0
14, 44160, Note_on_c, 12, 67, 52
14, 44399, Note_on_c, 12, 67, 0
14, 44400, Note_on_c, 12, 72, 52
14, 44519, Note_on_c, 12, 72, 0
14, 44640, Note_on_c, 12, 67, 52
14, 44879, Note_on_c, 12, 67, 0
14, 44880, Note_on_c, 12, 68, 52
14, 45119, Note_on_c, 12, 68, 0
14, 45840, Note_on_c, 12, 62, 52
14, 46079, Note_on_c, 12, 62, 0
14, 46080, Note_on_c, 12, 67, 52
14, 46199, Note_on_c, 12, 67, 0
14, 46320, Note_on_c, 12, 63, 52
14, 46559, Note_on_c, 12, 63, 0
14, 47280, Note_on_c, 12, 69, 52
14, 47519, Note_on_c, 12, 69, 0
14, 47520, Note_on_c, 12, 74, 52
14, 47639, Note_on_c, 12, 74, 0
14, 47760, Note_on_c, 12, 70, 52
14, 47999, Note_on_c, 12, 70, 0
14, 48720, Note_on_c, 12, 64, 52
14, 48959, Note_on_c, 12, 64, 0
14, 48960, Note_on_c, 12, 69, 52
14, 49079, Note_on_c, 12, 69, 0
14, 49198, Control_c, 12, 11, 80
14, 49200, Control_c, 12, 11, 80
14, 49200, Note_on_c, 12, 65, 76
14, 49310, Control_c, 12, 11, 82
14, 49420, Control_c, 12, 11, 84
14, 49439, Note_on_c, 12, 65, 0
14, 49440, Note_on_c, 12, 62, 76
14, 49530, Control_c, 12, 11, 86
14, 49640, Control_c, 12, 11, 88
14, 49679, Note_on_c, 12, 62, 0
14, 49680, Note_on_c, 12, 65, 76
14, 49750, Control_c, 12, 11, 90
14, 49799, Note_on_c, 12, 65, 0
14, 49860, Control_c, 12, 11, 92
14, 49920, Note_on_c, 12, 60, 76
14, 49970, Control_c, 12, 11, 94
14, 50080, Control_c, 12, 11, 96
14, 50159, Note_on_c, 12, 60, 0
14, 50160, Note_on_c, 12, 63, 76
14, 50190, Control_c, 12, 11, 98
14, 50279, Note_on_c, 12, 63, 0
14, 50300, Control_c, 12, 11, 100
14, 50400, Note_on_c, 12, 63, 76
14, 50410, Control_c, 12, 11, 102
14, 50520, Control_c, 12, 11, 104
14, 50630, Control_c, 12, 11, 105
14, 50639, Note_on_c, 12, 63, 0
14, 50640, Note_on_c, 12, 69, 76
14, 50740, Control_c, 12, 11, 107
14, 50759, Note_on_c, 12, 69, 0
14, 50850, Control_c, 12, 11, 109
14, 50880, Note_on_c, 12, 69, 76
14, 50960, Control_c, 12, 11, 111
14, 51070, Control_c, 12, 11, 113
14, 51119, Note_on_c, 12, 69, 0
14, 51120, Note_on_c, 12, 72, 76
14, 51180, Control_c, 12, 11, 115
14, 51239, Note_on_c, 12, 72, 0
14, 51290, Control_c, 12, 11, 117
14, 51360, Note_on_c, 12, 72, 76
14, 51400, Control_c, 12, 11, 119
14, 51510, Control_c, 12, 11, 121
14, 51599, Note_on_c, 12, 72, 0
14, 51600, Note_on_c, 12, 75, 76
14, 51620, Control_c, 12, 11, 123
14, 51719, Note_on_c, 12, 75, 0
14, 51730, Control_c, 12, 11, 127
14, 51840, Note_on_c, 12, 75, 76
14, 52079, Note_on_c, 12, 75, 0
14, 52080, Note_on_c, 12, 74, 84
14, 52289, Note_on_c, 12, 74, 0
14, 52320, Note_on_c, 12, 74, 84
14, 52320, Note_on_c, 12, 65, 84
14, 52769, Note_on_c, 12, 74, 0
14, 52769, Note_on_c, 12, 65, 0
14, 52800, Note_on_c, 12, 74, 84
14, 52800, Note_on_c, 12, 65, 84
14, 53249, Note_on_c, 12, 74, 0
14, 53249, Note_on_c, 12, 65, 0
14, 53280, Note_on_c, 12, 74, 84
14, 53280, Note_on_c, 12, 65, 84
14, 53489, Note_on_c, 12, 74, 0
14, 53489, Note_on_c, 12, 65, 0
14, 53520, Note_on_c, 12, 65, 84
14, 53520, Note_on_c, 12, 75, 84
14, 53969, Note_on_c, 12, 65, 0
14, 53969, Note_on_c, 12, 75, 0
14, 54000, Note_on_c, 12, 65, 84
14, 54000, Note_on_c, 12, 75, 84
14, 54209, Note_on_c, 12, 65, 0
14, 54209, Note_on_c, 12, 75, 0
14, 54240, Note_on_c, 12, 65, 84
14, 54240, Note_on_c, 12, 75, 84
14, 54479, Note_on_c, 12, 65, 0
14, 54479, Note_on_c, 12, 75, 0
14, 56160, Note_on_c, 12, 66, 52
14, 56399, Note_on_c, 12, 66, 0
14, 56400, Note_on_c, 12, 63, 52
14, 56639, Note_on_c, 12, 63, 0
14, 56640, Note_on_c, 12, 60, 52
14, 56879, Note_on_c, 12, 60, 0
14, 56880, Note_on_c, 12, 69, 52
14, 57119, Note_on_c, 12, 69, 0
14, 57120, Note_on_c, 12, 66, 52
14, 57359, Note_on_c, 12, 66, 0
14, 57360, Note_on_c, 12, 65, 52
14, 57599, Note_on_c, 12, 65, 0
14, 59040, Note_on_c, 12, 68, 52
14, 59279, Note_on_c, 12, 68, 0
14, 59280, Note_on_c, 12, 65, 52
14, 59519, Note_on_c, 12, 65, 0
14, 59520, Note_on_c, 12, 62, 52
14, 59759, Note_on_c, 12, 62, 0
14, 59760, Note_on_c, 12, 71, 52
14, 59999, Note_on_c, 12, 71, 0
14, 60000, Note_on_c, 12, 68, 52
14, 60239, Note_on_c, 12, 68, 0
14, 60240, Note_on_c, 12, 67, 52
14, 60449, Note_on_c, 12, 67, 0
14, 60480, Note_on_c, 12, 73, 52
14, 60719, Note_on_c, 12, 73, 0
14, 60720, Note_on_c, 12, 70, 52
14, 60959, Note_on_c, 12, 70, 0
14, 60960, Note_on_c, 12, 67, 52
14, 61199, Note_on_c, 12, 67, 0
14, 61200, Note_on_c, 12, 64, 52
14, 61439, Note_on_c, 12, 64, 0
14, 61440, Note_on_c, 12, 61, 52
14, 61679, Note_on_c, 12, 61, 0
14, 61680, Note_on_c, 12, 60, 52
14, 61889, Note_on_c, 12, 60, 0
14, 61918, Control_c, 12, 11, 96
14, 61920, Note_on_c, 12, 64, 68
14, 62159, Note_on_c, 12, 64, 0
14, 62160, Note_on_c, 12, 65, 68
14, 63599, Note_on_c, 12, 65, 0
14, 63600, Control_c, 12, 11, 96
14, 63600, Note_on_c, 12, 65, 68
14, 63680, Control_c, 12, 11, 99
14, 63760, Control_c, 12, 11, 101
14, 63840, Control_c, 12, 11, 104
14, 63920, Control_c, 12, 11, 106
14, 64000, Control_c, 12, 11, 109
14, 64080, Control_c, 12, 11, 112
14, 64160, Control_c, 12, 11, 114
14, 64240, Control_c, 12, 11, 117
14, 64320, Control_c, 12, 11, 119
14, 64400, Control_c, 12, 11, 122
14, 64480, Control_c, 12, 11, 127
14, 64769, Note_on_c, 12, 65, 0
14, 64800, Note_on_c, 12, 63, 76
14, 64800, Note_on_c, 12, 60, 76
14, 65038, Control_c, 12, 11, 96
14, 65039, Note_on_c, 12, 63, 0
14, 65039, Note_on_c, 12, 60, 0
14, 65040, Note_on_c, 12, 65, 68
14, 66479, Note_on_c, 12, 65, 0
14, 66480, Note_on_c, 12, 65, 68
14, 66480, Control_c, 12, 11, 96
14, 66560, Control_c, 12, 11, 99
14, 66640, Control_c, 12, 11, 101
14, 66720, Control_c, 12, 11, 104
14, 66800, Control_c, 12, 11, 106
14, 66880, Control_c, 12, 11, 109
14, 66960, Control_c, 12, 11, 112
14, 67040, Control_c, 12, 11, 114
14, 67120, Control_c, 12, 11, 117
14, 67200, Control_c, 12, 11, 119
14, 67280, Control_c, 12, 11, 122
14, 67360, Control_c, 12, 11, 127
14, 67649, Note_on_c, 12, 65, 0
14, 67680, Note_on_c, 12, 63, 76
14, 67680, Note_on_c, 12, 60, 76
14, 67919, Note_on_c, 12, 63, 0
14, 67919, Note_on_c, 12, 60, 0
14, 67920, Note_on_c, 12, 63, 68
14, 67920, Note_on_c, 12, 60, 68
14, 68129, Note_on_c, 12, 63, 0
14, 68129, Note_on_c, 12, 60, 0
14, 68160, Note_on_c, 12, 75, 76
14, 68609, Note_on_c, 12, 75, 0
14, 68640, Note_on_c, 12, 74, 76
14, 69089, Note_on_c, 12, 74, 0
14, 69120, Note_on_c, 12, 67, 76
14, 69120, Note_on_c, 12, 70, 76
14, 69329, Note_on_c, 12, 67, 0
14, 69329, Note_on_c, 12, 70, 0
14, 69360, Note_on_c, 12, 70, 84
14, 69360, Note_on_c, 12, 65, 84
14, 70049, Note_on_c, 12, 70, 0
14, 70049, Note_on_c, 12, 65, 0
14, 70080, Note_on_c, 12, 69, 84
14, 70080, Note_on_c, 12, 65, 84
14, 70769, Note_on_c, 12, 69, 0
14, 70769, Note_on_c, 12, 65, 0
14, 70800, Note_on_c, 12, 70, 84
14, 70904, Note_on_c, 12, 70, 0
14, 70920, Note_on_c, 12, 70, 84
14, 71024, Note_on_c, 12, 70, 0
14, 71040, Note_on_c, 12, 70, 84
14, 71144, Note_on_c, 12, 70, 0
14, 71160, Note_on_c, 12, 70, 84
14, 71264, Note_on_c, 12, 70, 0
14, 71280, Note_on_c, 12, 70, 84
14, 71384, Note_on_c, 12, 70, 0
14, 71400, Note_on_c, 12, 70, 84
14, 71504, Note_on_c, 12, 70, 0
14, 71520, Note_on_c, 12, 70, 84
14, 71624, Note_on_c, 12, 70, 0
14, 71640, Note_on_c, 12, 70, 84
14, 71744, Note_on_c, 12, 70, 0
14, 71760, Note_on_c, 12, 70, 84
14, 71864, Note_on_c, 12, 70, 0
14, 71880, Note_on_c, 12, 70, 84
14, 71984, Note_on_c, 12, 70, 0
14, 72000, Note_on_c, 12, 70, 84
14, 72104, Note_on_c, 12, 70, 0
14, 72120, Note_on_c, 12, 70, 84
14, 72224, Note_on_c, 12, 70, 0
14, 72240, Note_on_c, 12, 69, 84
14, 72344, Note_on_c, 12, 69, 0
14, 72360, Note_on_c, 12, 69, 84
14, 72464, Note_on_c, 12, 69, 0
14, 72480, Note_on_c, 12, 69, 84
14, 72584, Note_on_c, 12, 69, 0
14, 72600, Note_on_c, 12, 69, 84
14, 72704, Note_on_c, 12, 69, 0
14, 72720, Note_on_c, 12, 69, 84
14, 72824, Note_on_c, 12, 69, 0
14, 72840, Note_on_c, 12, 69, 84
14, 72944, Note_on_c, 12, 69, 0
14, 72960, Note_on_c, 12, 69, 84
14, 73064, Note_on_c, 12, 69, 0
14, 73080, Note_on_c, 12, 69, 84
14, 73184, Note_on_c, 12, 69, 0
14, 73200, Note_on_c, 12, 69, 84
14, 73304, Note_on_c, 12, 69, 0
14, 73320, Note_on_c, 12, 69, 84
14, 73424, Note_on_c, 12, 69, 0
14, 73440, Note_on_c, 12, 69, 84
14, 73544, Note_on_c, 12, 69, 0
14, 73560, Note_on_c, 12, 69, 84
14, 73664, Note_on_c, 12, 69, 0
14, 73680, Note_on_c, 12, 70, 84
14, 73784, Note_on_c, 12, 70, 0
14, 73800, Note_on_c, 12, 70, 84
14, 73904, Note_on_c, 12, 70, 0
14, 73920, Note_on_c, 12, 70, 84
14, 74024, Note_on_c, 12, 70, 0
14, 74040, Note_on_c, 12, 70, 84
14, 74144, Note_on_c, 12, 70, 0
14, 74160, Note_on_c, 12, 70, 84
14, 74264, Note_on_c, 12, 70, 0
14, 74280, Note_on_c, 12, 70, 84
14, 74384, Note_on_c, 12, 70, 0
14, 74400, Note_on_c, 12, 70, 84
14, 74504, Note_on_c, 12, 70, 0
14, 74520, Note_on_c, 12, 70, 84
14, 74624, Note_on_c, 12, 70, 0
14, 74640, Note_on_c, 12, 70, 84
14, 74744, Note_on_c, 12, 70, 0
14, 74760, Note_on_c, 12, 70, 84
14, 74864, Note_on_c, 12, 70, 0
14, 74880, Note_on_c, 12, 70, 84
14, 74984, Note_on_c, 12, 70, 0
14, 75000, Note_on_c, 12, 70, 84
14, 75104, Note_on_c, 12, 70, 0
14, 75120, Note_on_c, 12, 69, 84
14, 75224, Note_on_c, 12, 69, 0
14, 75240, Note_on_c, 12, 69, 84
14, 75344, Note_on_c, 12, 69, 0
14, 75360, Note_on_c, 12, 69, 84
14, 75464, Note_on_c, 12, 69, 0
14, 75480, Note_on_c, 12, 69, 84
14, 75584, Note_on_c, 12, 69, 0
14, 75600, Note_on_c, 12, 69, 84
14, 75704, Note_on_c, 12, 69, 0
14, 75720, Note_on_c, 12, 69, 84
14, 75824, Note_on_c, 12, 69, 0
14, 75840, Note_on_c, 12, 69, 84
14, 75944, Note_on_c, 12, 69, 0
14, 75960, Note_on_c, 12, 69, 84
14, 76064, Note_on_c, 12, 69, 0
14, 76080, Note_on_c, 12, 69, 84
14, 76184, Note_on_c, 12, 69, 0
14, 76200, Note_on_c, 12, 69, 84
14, 76304, Note_on_c, 12, 69, 0
14, 76320, Note_on_c, 12, 69, 84
14, 76424, Note_on_c, 12, 69, 0
14, 76440, Note_on_c, 12, 69, 84
14, 76544, Note_on_c, 12, 69, 0
14, 76560, Note_on_c, 12, 70, 76
14, 76560, Note_on_c, 12, 62, 76
14, 77249, Note_on_c, 12, 70, 0
14, 77249, Note_on_c, 12, 62, 0
14, 77280, Note_on_c, 12, 62, 76
14, 77280, Note_on_c, 12, 74, 76
14, 77969, Note_on_c, 12, 62, 0
14, 77969, Note_on_c, 12, 74, 0
14, 78000, Note_on_c, 12, 62, 76
14, 78000, Note_on_c, 12, 77, 76
14, 78209, Note_on_c, 12, 62, 0
14, 78209, Note_on_c, 12, 77, 0
14, 78240, Note_on_c, 12, 62, 76
14, 78240, Note_on_c, 12, 77, 76
14, 78449, Note_on_c, 12, 62, 0
14, 78449, Note_on_c, 12, 77, 0
14, 78480, Note_on_c, 12, 62, 76
14, 78480, Note_on_c, 12, 77, 76
14, 78689, Note_on_c, 12, 62, 0
14, 78689, Note_on_c, 12, 77, 0
14, 78720, Note_on_c, 12, 62, 76
14, 78720, Note_on_c, 12, 70, 76
14, 78959, Note_on_c, 12, 62, 0
14, 78959, Note_on_c, 12, 70, 0
14, 79440, Note_on_c, 12, 65, 52
14, 79649, Note_on_c, 12, 65, 0
14, 79680, Note_on_c, 12, 65, 52
14, 80129, Note_on_c, 12, 65, 0
14, 80160, Note_on_c, 12, 65, 52
14, 80609, Note_on_c, 12, 65, 0
14, 80640, Note_on_c, 12, 65, 52
14, 80849, Note_on_c, 12, 65, 0
14, 80880, Note_on_c, 12, 66, 52
14, 81329, Note_on_c, 12, 66, 0
14, 81360, Note_on_c, 12, 66, 52
14, 81569, Note_on_c, 12, 66, 0
14, 81600, Note_on_c, 12, 66, 52
14, 81809, Note_on_c, 12, 66, 0
14, 81840, Note_on_c, 12, 68, 52
14, 82079, Note_on_c, 12, 68, 0
14, 82080, Note_on_c, 12, 66, 52
14, 82199, Note_on_c, 12, 66, 0
14, 82320, Note_on_c, 12, 63, 52
14, 82559, Note_on_c, 12, 63, 0
14, 82560, Note_on_c, 12, 60, 52
14, 82679, Note_on_c, 12, 60, 0
14, 83280, Note_on_c, 12, 66, 52
14, 83280, Note_on_c, 12, 56, 52
14, 83489, Note_on_c, 12, 66, 0
14, 83489, Note_on_c, 12, 56, 0
14, 83520, Note_on_c, 12, 56, 52
14, 83520, Note_on_c, 12, 66, 52
14, 83729, Note_on_c, 12, 56, 0
14, 83729, Note_on_c, 12, 66, 0
14, 83760, Note_on_c, 12, 65, 52
14, 83760, Note_on_c, 12, 56, 52
14, 84239, Note_on_c, 12, 65, 0
14, 84239, Note_on_c, 12, 56, 0
14, 84240, Note_on_c, 12, 68, 52
14, 84479, Note_on_c, 12, 68, 0
14, 84480, Note_on_c, 12, 68, 52
14, 84689, Note_on_c, 12, 68, 0
14, 84720, Note_on_c, 12, 70, 52
14, 84959, Note_on_c, 12, 70, 0
14, 84960, Note_on_c, 12, 68, 52
14, 85079, Note_on_c, 12, 68, 0
14, 85200, Note_on_c, 12, 65, 52
14, 85439, Note_on_c, 12, 65, 0
14, 85440, Note_on_c, 12, 61, 52
14, 85559, Note_on_c, 12, 61, 0
14, 86160, Note_on_c, 12, 56, 52
14, 86160, Note_on_c, 12, 65, 52
14, 86369, Note_on_c, 12, 56, 0
14, 86369, Note_on_c, 12, 65, 0
14, 86400, Note_on_c, 12, 65, 52
14, 86400, Note_on_c, 12, 56, 52
14, 86609, Note_on_c, 12, 65, 0
14, 86609, Note_on_c, 12, 56, 0
14, 86640, Note_on_c, 12, 68, 52
14, 87089, Note_on_c, 12, 68, 0
14, 87120, Note_on_c, 12, 68, 52
14, 87329, Note_on_c, 12, 68, 0
14, 87360, Note_on_c, 12, 68, 52
14, 87569, Note_on_c, 12, 68, 0
14, 87600, Note_on_c, 12, 70, 52
14, 87839, Note_on_c, 12, 70, 0
14, 87840, Note_on_c, 12, 68, 52
14, 87959, Note_on_c, 12, 68, 0
14, 88080, Note_on_c, 12, 65, 52
14, 88319, Note_on_c, 12, 65, 0
14, 88320, Note_on_c, 12, 62, 52
14, 88439, Note_on_c, 12, 62, 0
14, 91200, Note_on_c, 12, 72, 52
14, 91439, Note_on_c, 12, 72, 0
14, 91440, Note_on_c, 12, 77, 52
14, 91559, Note_on_c, 12, 77, 0
14, 91680, Note_on_c, 12, 72, 52
14, 91919, Note_on_c, 12, 72, 0
14, 91920, Note_on_c, 12, 77, 52
14, 92039, Note_on_c, 12, 77, 0
14, 92160, Note_on_c, 12, 72, 52
14, 92399, Note_on_c, 12, 72, 0
14, 92400, Note_on_c, 12, 73, 52
14, 92639, Note_on_c, 12, 73, 0
14, 94080, Note_on_c, 12, 67, 52
14, 94319, Note_on_c, 12, 67, 0
14, 94320, Note_on_c, 12, 72, 52
14, 94439, Note_on_c, 12, 72, 0
14, 94560, Note_on_c, 12, 67, 52
14, 94799, Note_on_c, 12, 67, 0
14, 94800, Note_on_c, 12, 72, 52
14, 94919, Note_on_c, 12, 72, 0
14, 95040, Note_on_c, 12, 67, 52
14, 95279, Note_on_c, 12, 67, 0
14, 95280, Note_on_c, 12, 68, 52
14, 95519, Note_on_c, 12, 68, 0
14, 96240, Note_on_c, 12, 62, 52
14, 96479, Note_on_c, 12, 62, 0
14, 96480, Note_on_c, 12, 67, 52
14, 96599, Note_on_c, 12, 67, 0
14, 96720, Note_on_c, 12, 63, 52
14, 96959, Note_on_c, 12, 63, 0
14, 97680, Note_on_c, 12, 69, 52
14, 97919, Note_on_c, 12, 69, 0
14, 97920, Note_on_c, 12, 74, 52
14, 98039, Note_on_c, 12, 74, 0
14, 98160, Note_on_c, 12, 70, 52
14, 98399, Note_on_c, 12, 70, 0
14, 99120, Note_on_c, 12, 64, 52
14, 99359, Note_on_c, 12, 64, 0
14, 99360, Note_on_c, 12, 69, 52
14, 99479, Note_on_c, 12, 69, 0
14, 99598, Control_c, 12, 11, 80
14, 99600, Note_on_c, 12, 65, 76
14, 99600, Control_c, 12, 11, 80
14, 99710, Control_c, 12, 11, 82
14, 99820, Control_c, 12, 11, 84
14, 99839, Note_on_c, 12, 65, 0
14, 99840, Note_on_c, 12, 62, 76
14, 99930, Control_c, 12, 11, 86
14, 100040, Control_c, 12, 11, 88
14, 100079, Note_on_c, 12, 62, 0
14, 100080, Note_on_c, 12, 65, 76
14, 100150, Control_c, 12, 11, 90
14, 100199, Note_on_c, 12, 65, 0
14, 100260, Control_c, 12, 11, 92
14, 100320, Note_on_c, 12, 60, 76
14, 100370, Control_c, 12, 11, 94
14, 100480, Control_c, 12, 11, 96
14, 100559, Note_on_c, 12, 60, 0
14, 100560, Note_on_c, 12, 63, 76
14, 100590, Control_c, 12, 11, 98
14, 100679, Note_on_c, 12, 63, 0
14, 100700, Control_c, 12, 11, 100
14, 100800, Note_on_c, 12, 63, 76
14, 100810, Control_c, 12, 11, 102
14, 100920, Control_c, 12, 11, 104
14, 101030, Control_c, 12, 11, 105
14, 101039, Note_on_c, 12, 63, 0
14, 101040, Note_on_c, 12, 69, 76
14, 101140, Control_c, 12, 11, 107
14, 101159, Note_on_c, 12, 69, 0
14, 101250, Control_c, 12, 11, 109
14, 101280, Note_on_c, 12, 69, 76
14, 101360, Control_c, 12, 11, 111
14, 101470, Control_c, 12, 11, 113
14, 101519, Note_on_c, 12, 69, 0
14, 101520, Note_on_c, 12, 72, 76
14, 101580, Control_c, 12, 11, 115
14, 101639, Note_on_c, 12, 72, 0
14, 101690, Control_c, 12, 11, 117
14, 101760, Note_on_c, 12, 72, 76
14, 101800, Control_c, 12, 11, 119
14, 101910, Control_c, 12, 11, 121
14, 101999, Note_on_c, 12, 72, 0
14, 102000, Note_on_c, 12, 75, 76
14, 102020, Control_c, 12, 11, 123
14, 102119, Note_on_c, 12, 75, 0
14, 102130, Control_c, 12, 11, 127
14, 102240, Note_on_c, 12, 75, 76
14, 102479, Note_on_c, 12, 75, 0
14, 102480, Note_on_c, 12, 74, 84
14, 102689, Note_on_c, 12, 74, 0
14, 102720, Note_on_c, 12, 74, 84
14, 102720, Note_on_c, 12, 65, 84
14, 103169, Note_on_c, 12, 74, 0
14, 103169, Note_on_c, 12, 65, 0
14, 103200, Note_on_c, 12, 74, 84
14, 103200, Note_on_c, 12, 65, 84
14, 103649, Note_on_c, 12, 74, 0
14, 103649, Note_on_c, 12, 65, 0
14, 103680, Note_on_c, 12, 65, 84
14, 103680, Note_on_c, 12, 74, 84
14, 103889, Note_on_c, 12, 65, 0
14, 103889, Note_on_c, 12, 74, 0
14, 103920, Note_on_c, 12, 65, 84
14, 103920, Note_on_c, 12, 75, 84
14, 104369, Note_on_c, 12, 65, 0
14, 104369, Note_on_c, 12, 75, 0
14, 104400, Note_on_c, 12, 65, 84
14, 104400, Note_on_c, 12, 75, 84
14, 104609, Note_on_c, 12, 65, 0
14, 104609, Note_on_c, 12, 75, 0
14, 104640, Note_on_c, 12, 65, 84
14, 104640, Note_on_c, 12, 75, 84
14, 104879, Note_on_c, 12, 65, 0
14, 104879, Note_on_c, 12, 75, 0
14, 106560, Note_on_c, 12, 66, 52
14, 106799, Note_on_c, 12, 66, 0
14, 106800, Note_on_c, 12, 63, 52
14, 107039, Note_on_c, 12, 63, 0
14, 107040, Note_on_c, 12, 60, 52
14, 107279, Note_on_c, 12, 60, 0
14, 107280, Note_on_c, 12, 69, 52
14, 107519, Note_on_c, 12, 69, 0
14, 107520, Note_on_c, 12, 66, 52
14, 107759, Note_on_c, 12, 66, 0
14, 107760, Note_on_c, 12, 65, 52
14, 107999, Note_on_c, 12, 65, 0
14, 109440, Note_on_c, 12, 68, 52
14, 109679, Note_on_c, 12, 68, 0
14, 109680, Note_on_c, 12, 65, 52
14, 109919, Note_on_c, 12, 65, 0
14, 109920, Note_on_c, 12, 62, 52
14, 110159, Note_on_c, 12, 62, 0
14, 110160, Note_on_c, 12, 71, 52
14, 110399, Note_on_c, 12, 71, 0
14, 110400, Note_on_c, 12, 68, 52
14, 110639, Note_on_c, 12, 68, 0
14, 110640, Note_on_c, 12, 67, 52
14, 110849, Note_on_c, 12, 67, 0
14, 110880, Note_on_c, 12, 73, 52
14, 111119, Note_on_c, 12, 73, 0
14, 111120, Note_on_c, 12, 70, 52
14, 111359, Note_on_c, 12, 70, 0
14, 111360, Note_on_c, 12, 67, 52
14, 111599, Note_on_c, 12, 67, 0
14, 111600, Note_on_c, 12, 64, 52
14, 111839, Note_on_c, 12, 64, 0
14, 111840, Note_on_c, 12, 61, 52
14, 112079, Note_on_c, 12, 61, 0
14, 112080, Note_on_c, 12, 60, 52
14, 112289, Note_on_c, 12, 60, 0
14, 112318, Control_c, 12, 11, 96
14, 112320, Note_on_c, 12, 64, 68
14, 112559, Note_on_c, 12, 64, 0
14, 112560, Note_on_c, 12, 65, 68
14, 113999, Note_on_c, 12, 65, 0
14, 114000, Note_on_c, 12, 65, 68
14, 114000, Control_c, 12, 11, 96
14, 114080, Control_c, 12, 11, 99
14, 114160, Control_c, 12, 11, 101
14, 114240, Control_c, 12, 11, 104
14, 114320, Control_c, 12, 11, 106
14, 114400, Control_c, 12, 11, 109
14, 114480, Control_c, 12, 11, 112
14, 114560, Control_c, 12, 11, 114
14, 114640, Control_c, 12, 11, 117
14, 114720, Control_c, 12, 11, 119
14, 114800, Control_c, 12, 11, 122
14, 114880, Control_c, 12, 11, 127
14, 115169, Note_on_c, 12, 65, 0
14, 115200, Note_on_c, 12, 60, 76
14, 115200, Note_on_c, 12, 63, 76
14, 115438, Control_c, 12, 11, 96
14, 115439, Note_on_c, 12, 60, 0
14, 115439, Note_on_c, 12, 63, 0
14, 115440, Note_on_c, 12, 65, 68
14, 116879, Note_on_c, 12, 65, 0
14, 116880, Control_c, 12, 11, 96
14, 116880, Note_on_c, 12, 65, 68
14, 116960, Control_c, 12, 11, 99
14, 117040, Control_c, 12, 11, 101
14, 117120, Control_c, 12, 11, 104
14, 117200, Control_c, 12, 11, 106
14, 117280, Control_c, 12, 11, 109
14, 117360, Control_c, 12, 11, 112
14, 117440, Control_c, 12, 11, 114
14, 117520, Control_c, 12, 11, 117
14, 117600, Control_c, 12, 11, 119
14, 117680, Control_c, 12, 11, 122
14, 117760, Control_c, 12, 11, 127
14, 118049, Note_on_c, 12, 65, 0
14, 118080, Note_on_c, 12, 60, 76
14, 118080, Note_on_c, 12, 63, 76
14, 118319, Note_on_c, 12, 60, 0
14, 118319, Note_on_c, 12, 63, 0
14, 118320, Note_on_c, 12, 60, 68
14, 118320, Note_on_c, 12, 63, 68
14, 118529, Note_on_c, 12, 60, 0
14, 118529, Note_on_c, 12, 63, 0
14, 118560, Note_on_c, 12, 75, 76
14, 119009, Note_on_c, 12, 75, 0
14, 119040, Note_on_c, 12, 74, 76
14, 119489, Note_on_c, 12, 74, 0
14, 119520, Note_on_c, 12, 67, 76
14, 119520, Note_on_c, 12, 70, 76
14, 119729, Note_on_c, 12, 67, 0
14, 119729, Note_on_c, 12, 70, 0
14, 119760, Note_on_c, 12, 65, 84
14, 119760, Note_on_c, 12, 70, 84
14, 120449, Note_on_c, 12, 65, 0
14, 120449, Note_on_c, 12, 70, 0
14, 120480, Note_on_c, 12, 69, 84
14, 120480, Note_on_c, 12, 65, 84
14, 121169, Note_on_c, 12, 69, 0
14, 121169, Note_on_c, 12, 65, 0
14, 121200, Note_on_c, 12, 70, 84
14, 121304, Note_on_c, 12, 70, 0
14, 121320, Note_on_c, 12, 70, 84
14, 121424, Note_on_c, 12, 70, 0
14, 121440, Note_on_c, 12, 70, 84
14, 121544, Note_on_c, 12, 70, 0
14, 121560, Note_on_c, 12, 70, 84
14, 121664, Note_on_c, 12, 70, 0
14, 121680, Note_on_c, 12, 70, 84
14, 121784, Note_on_c, 12, 70, 0
14, 121800, Note_on_c, 12, 70, 84
14, 121904, Note_on_c, 12, 70, 0
14, 121920, Note_on_c, 12, 70, 84
14, 122024, Note_on_c, 12, 70, 0
14, 122040, Note_on_c, 12, 70, 84
14, 122144, Note_on_c, 12, 70, 0
14, 122160, Note_on_c, 12, 70, 84
14, 122264, Note_on_c, 12, 70, 0
14, 122280, Note_on_c, 12, 70, 84
14, 122384, Note_on_c, 12, 70, 0
14, 122400, Note_on_c, 12, 70, 84
14, 122504, Note_on_c, 12, 70, 0
14, 122520, Note_on_c, 12, 70, 84
14, 122624, Note_on_c, 12, 70, 0
14, 122640, Note_on_c, 12, 69, 84
14, 122744, Note_on_c, 12, 69, 0
14, 122760, Note_on_c, 12, 69, 84
14, 122864, Note_on_c, 12, 69, 0
14, 122880, Note_on_c, 12, 69, 84
14, 122984, Note_on_c, 12, 69, 0
14, 123000, Note_on_c, 12, 69, 84
14, 123104, Note_on_c, 12, 69, 0
14, 123120, Note_on_c, 12, 69, 84
14, 123224, Note_on_c, 12, 69, 0
14, 123240, Note_on_c, 12, 69, 84
14, 123344, Note_on_c, 12, 69, 0
14, 123360, Note_on_c, 12, 69, 84
14, 123464, Note_on_c, 12, 69, 0
14, 123480, Note_on_c, 12, 69, 84
14, 123584, Note_on_c, 12, 69, 0
14, 123600, Note_on_c, 12, 69, 84
14, 123704, Note_on_c, 12, 69, 0
14, 123720, Note_on_c, 12, 69, 84
14, 123824, Note_on_c, 12, 69, 0
14, 123840, Note_on_c, 12, 69, 84
14, 123944, Note_on_c, 12, 69, 0
14, 123960, Note_on_c, 12, 69, 84
14, 124064, Note_on_c, 12, 69, 0
14, 124080, Note_on_c, 12, 70, 84
14, 124184, Note_on_c, 12, 70, 0
14, 124200, Note_on_c, 12, 70, 84
14, 124304, Note_on_c, 12, 70, 0
14, 124320, Note_on_c, 12, 70, 84
14, 124424, Note_on_c, 12, 70, 0
14, 124440, Note_on_c, 12, 70, 84
14, 124544, Note_on_c, 12, 70, 0
14, 124560, Note_on_c, 12, 70, 84
14, 124664, Note_on_c, 12, 70, 0
14, 124680, Note_on_c, 12, 70, 84
14, 124784, Note_on_c, 12, 70, 0
14, 124800, Note_on_c, 12, 70, 84
14, 124904, Note_on_c, 12, 70, 0
14, 124920, Note_on_c, 12, 70, 84
14, 125024, Note_on_c, 12, 70, 0
14, 125040, Note_on_c, 12, 70, 84
14, 125144, Note_on_c, 12, 70, 0
14, 125160, Note_on_c, 12, 70, 84
14, 125264, Note_on_c, 12, 70, 0
14, 125280, Note_on_c, 12, 70, 84
14, 125384, Note_on_c, 12, 70, 0
14, 125400, Note_on_c, 12, 70, 84
14, 125504, Note_on_c, 12, 70, 0
14, 125520, Note_on_c, 12, 69, 84
14, 125624, Note_on_c, 12, 69, 0
14, 125640, Note_on_c, 12, 69, 84
14, 125744, Note_on_c, 12, 69, 0
14, 125760, Note_on_c, 12, 69, 84
14, 125864, Note_on_c, 12, 69, 0
14, 125880, Note_on_c, 12, 69, 84
14, 125984, Note_on_c, 12, 69, 0
14, 126000, Note_on_c, 12, 69, 84
14, 126104, Note_on_c, 12, 69, 0
14, 126120, Note_on_c, 12, 69, 84
14, 126224, Note_on_c, 12, 69, 0
14, 126240, Note_on_c, 12, 69, 84
14, 126344, Note_on_c, 12, 69, 0
14, 126360, Note_on_c, 12, 69, 84
14, 126464, Note_on_c, 12, 69, 0
14, 126480, Note_on_c, 12, 69, 84
14, 126584, Note_on_c, 12, 69, 0
14, 126600, Note_on_c, 12, 69, 84
14, 126704, Note_on_c, 12, 69, 0
14, 126720, Note_on_c, 12, 69, 84
14, 126824, Note_on_c, 12, 69, 0
14, 126840, Note_on_c, 12, 69, 84
14, 126944, Note_on_c, 12, 69, 0
14, 126960, Note_on_c, 12, 70, 76
14, 126960, Note_on_c, 12, 62, 76
14, 127649, Note_on_c, 12, 70, 0
14, 127649, Note_on_c, 12, 62, 0
14, 127680, Note_on_c, 12, 74, 76
14, 127680, Note_on_c, 12, 62, 76
14, 128369, Note_on_c, 12, 74, 0
14, 128369, Note_on_c, 12, 62, 0
14, 128400, Note_on_c, 12, 62, 76
14, 128400, Note_on_c, 12, 77, 76
14, 128609, Note_on_c, 12, 62, 0
14, 128609, Note_on_c, 12, 77, 0
14, 128640, Note_on_c, 12, 62, 76
14, 128640, Note_on_c, 12, 77, 76
14, 128849, Note_on_c, 12, 62, 0
14, 128849, Note_on_c, 12, 77, 0
14, 128880, Note_on_c, 12, 62, 76
14, 128880, Note_on_c, 12, 77, 76
14, 129089, Note_on_c, 12, 62, 0
14, 129089, Note_on_c, 12, 77, 0
14, 129120, Note_on_c, 12, 62, 76
14, 129120, Note_on_c, 12, 70, 76
14, 129359, Note_on_c, 12, 62, 0
14, 129359, Note_on_c, 12, 70, 0
14, 139200, Control_c, 12, 11, 96
14, 139680, Note_on_c, 12, 67, 68
14, 139919, Note_on_c, 12, 67, 0
14, 139920, Control_c, 12, 11, 96
14, 139920, Note_on_c, 12, 65, 68
14, 139980, Control_c, 12, 11, 99
14, 140040, Control_c, 12, 11, 101
14, 140100, Control_c, 12, 11, 104
14, 140160, Control_c, 12, 11, 106
14, 140220, Control_c, 12, 11, 109
14, 140280, Control_c, 12, 11, 112
14, 140340, Control_c, 12, 11, 114
14, 140399, Note_on_c, 12, 65, 0
14, 140400, Control_c, 12, 11, 117
14, 140400, Note_on_c, 12, 64, 68
14, 140460, Control_c, 12, 11, 119
14, 140520, Control_c, 12, 11, 122
14, 140580, Control_c, 12, 11, 127
14, 140640, Control_c, 12, 11, 127
14, 140700, Control_c, 12, 11, 124
14, 140760, Control_c, 12, 11, 122
14, 140820, Control_c, 12, 11, 119
14, 140879, Note_on_c, 12, 64, 0
14, 140880, Note_on_c, 12, 63, 68
14, 140880, Control_c, 12, 11, 117
14, 140940, Control_c, 12, 11, 114
14, 141000, Control_c, 12, 11, 112
14, 141060, Control_c, 12, 11, 109
14, 141119, Note_on_c, 12, 63, 0
14, 141120, Note_on_c, 12, 62, 68
14, 141120, Control_c, 12, 11, 106
14, 141180, Control_c, 12, 11, 104
14, 141240, Control_c, 12, 11, 101
14, 141300, Control_c, 12, 11, 96
14, 141329, Note_on_c, 12, 62, 0
14, 141360, Note_on_c, 12, 62, 68
14, 141599, Note_on_c, 12, 62, 0
14, 154080, Control_c, 12, 11, 127
14, 154080, Program_c, 12, 45
14, 154320, Note_on_c, 12, 60, 48
14, 154559, Note_on_c, 12, 60, 0
14, 157200, Note_on_c, 12, 60, 48
14, 157439, Note_on_c, 12, 60, 0
14, 157920, Program_c, 12, 48
14, 158280, Note_on_c, 12, 62, 44
14, 158399, Note_on_c, 12, 62, 0
14, 158400, Note_on_c, 12, 63, 44
14, 158519, Note_on_c, 12, 63, 0
14, 158520, Note_on_c, 12, 62, 44
14, 158624, Note_on_c, 12, 62, 0
14, 158640, Note_on_c, 12, 63, 44
14, 158819, Note_on_c, 12, 63, 0
14, 159000, Note_on_c, 12, 62, 44
14, 159119, Note_on_c, 12, 62, 0
14, 159120, Note_on_c, 12, 63, 44
14, 159239, Note_on_c, 12, 63, 0
14, 159240, Note_on_c, 12, 62, 44
14, 159344, Note_on_c, 12, 62, 0
14, 159360, Note_on_c, 12, 63, 44
14, 159539, Note_on_c, 12, 63, 0
14, 159720, Note_on_c, 12, 62, 44
14, 159839, Note_on_c, 12, 62, 0
14, 159840, Note_on_c, 12, 63, 44
14, 159959, Note_on_c, 12, 63, 0
14, 159960, Note_on_c, 12, 62, 44
14, 160064, Note_on_c, 12, 62, 0
14, 160080, Note_on_c, 12, 63, 44
14, 160259, Note_on_c, 12, 63, 0
14, 164400, Note_on_c, 12, 58, 44
14, 164519, Note_on_c, 12, 58, 0
14, 164520, Note_on_c, 12, 57, 44
14, 164639, Note_on_c, 12, 57, 0
14, 164640, Note_on_c, 12, 58, 44
14, 164759, Note_on_c, 12, 58, 0
14, 164760, Note_on_c, 12, 57, 44
14, 164879, Note_on_c, 12, 57, 0
14, 164880, Note_on_c, 12, 58, 44
14, 164999, Note_on_c, 12, 58, 0
14, 165000, Note_on_c, 12, 57, 44
14, 165119, Note_on_c, 12, 57, 0
14, 165120, Note_on_c, 12, 58, 44
14, 165239, Note_on_c, 12, 58, 0
14, 165240, Note_on_c, 12, 57, 44
14, 165359, Note_on_c, 12, 57, 0
14, 165360, Note_on_c, 12, 58, 44
14, 165479, Note_on_c, 12, 58, 0
14, 165480, Note_on_c, 12, 57, 44
14, 165599, Note_on_c, 12, 57, 0
14, 165600, Note_on_c, 12, 58, 44
14, 165719, Note_on_c, 12, 58, 0
14, 165720, Note_on_c, 12, 57, 44
14, 165824, Note_on_c, 12, 57, 0
14, 165840, Note_on_c, 12, 58, 44
14, 165959, Note_on_c, 12, 58, 0
14, 165960, Note_on_c, 12, 57, 44
14, 166079, Note_on_c, 12, 57, 0
14, 166080, Note_on_c, 12, 58, 44
14, 166199, Note_on_c, 12, 58, 0
14, 166200, Note_on_c, 12, 57, 45
14, 166319, Note_on_c, 12, 57, 0
14, 166320, Note_on_c, 12, 58, 45
14, 166439, Note_on_c, 12, 58, 0
14, 166440, Note_on_c, 12, 57, 46
14, 166559, Note_on_c, 12, 57, 0
14, 166560, Note_on_c, 12, 58, 46
14, 166679, Note_on_c, 12, 58, 0
14, 166680, Note_on_c, 12, 57, 47
14, 166799, Note_on_c, 12, 57, 0
14, 166800, Note_on_c, 12, 58, 47
14, 166919, Note_on_c, 12, 58, 0
14, 166920, Note_on_c, 12, 57, 48
14, 167039, Note_on_c, 12, 57, 0
14, 167040, Note_on_c, 12, 58, 48
14, 167159, Note_on_c, 12, 58, 0
14, 167160, Note_on_c, 12, 57, 48
14, 167264, Note_on_c, 12, 57, 0
14, 167280, Note_on_c, 12, 58, 49
14, 167399, Note_on_c, 12, 58, 0
14, 167400, Note_on_c, 12, 57, 49
14, 167519, Note_on_c, 12, 57, 0
14, 167520, Note_on_c, 12, 58, 50
14, 167639, Note_on_c, 12, 58, 0
14, 167640, Note_on_c, 12, 57, 50
14, 167759, Note_on_c, 12, 57, 0
14, 167760, Note_on_c, 12, 58, 51
14, 167879, Note_on_c, 12, 58, 0
14, 167880, Note_on_c, 12, 57, 51
14, 167999, Note_on_c, 12, 57, 0
14, 168000, Note_on_c, 12, 58, 52
14, 168119, Note_on_c, 12, 58, 0
14, 168120, Note_on_c, 12, 57, 52
14, 168239, Note_on_c, 12, 57, 0
14, 168240, Note_on_c, 12, 58, 52
14, 168359, Note_on_c, 12, 58, 0
14, 168360, Note_on_c, 12, 57, 53
14, 168479, Note_on_c, 12, 57, 0
14, 168480, Note_on_c, 12, 58, 53
14, 168599, Note_on_c, 12, 58, 0
14, 168600, Note_on_c, 12, 57, 54
14, 168704, Note_on_c, 12, 57, 0
14, 168720, Note_on_c, 12, 58, 54
14, 168839, Note_on_c, 12, 58, 0
14, 168840, Note_on_c, 12, 57, 55
14, 168959, Note_on_c, 12, 57, 0
14, 168960, Note_on_c, 12, 58, 55
14, 169079, Note_on_c, 12, 58, 0
14, 169080, Note_on_c, 12, 57, 56
14, 169199, Note_on_c, 12, 57, 0
14, 169200, Note_on_c, 12, 58, 56
14, 169319, Note_on_c, 12, 58, 0
14, 169320, Note_on_c, 12, 57, 56
14, 169439, Note_on_c, 12, 57, 0
14, 169440, Note_on_c, 12, 58, 57
14, 169559, Note_on_c, 12, 58, 0
14, 169560, Note_on_c, 12, 57, 57
14, 169679, Note_on_c, 12, 57, 0
14, 169680, Note_on_c, 12, 58, 58
14, 169799, Note_on_c, 12, 58, 0
14, 169800, Note_on_c, 12, 57, 58
14, 169919, Note_on_c, 12, 57, 0
14, 169920, Note_on_c, 12, 58, 59
14, 170039, Note_on_c, 12, 58, 0
14, 170040, Note_on_c, 12, 57, 59
14, 170159, Note_on_c, 12, 57, 0
14, 170160, Note_on_c, 12, 58, 60
14, 170264, Note_on_c, 12, 58, 0
14, 170280, Note_on_c, 12, 69, 60
14, 170399, Note_on_c, 12, 69, 0
14, 170400, Note_on_c, 12, 70, 60
14, 170519, Note_on_c, 12, 70, 0
14, 170520, Note_on_c, 12, 69, 61
14, 170639, Note_on_c, 12, 69, 0
14, 170640, Note_on_c, 12, 70, 61
14, 170759, Note_on_c, 12, 70, 0
14, 170760, Note_on_c, 12, 69, 62
14, 170879, Note_on_c, 12, 69, 0
14, 170880, Note_on_c, 12, 70, 62
14, 170999, Note_on_c, 12, 70, 0
14, 171000, Note_on_c, 12, 69, 63
14, 171119, Note_on_c, 12, 69, 0
14, 171120, Note_on_c, 12, 70, 63
14, 171239, Note_on_c, 12, 70, 0
14, 171240, Note_on_c, 12, 69, 64
14, 171359, Note_on_c, 12, 69, 0
14, 171360, Note_on_c, 12, 70, 64
14, 171479, Note_on_c, 12, 70, 0
14, 171480, Note_on_c, 12, 69, 64
14, 171584, Note_on_c, 12, 69, 0
14, 171600, Note_on_c, 12, 70, 65
14, 171719, Note_on_c, 12, 70, 0
14, 171720, Note_on_c, 12, 69, 65
14, 171839, Note_on_c, 12, 69, 0
14, 171840, Note_on_c, 12, 70, 66
14, 171959, Note_on_c, 12, 70, 0
14, 171960, Note_on_c, 12, 69, 66
14, 172079, Note_on_c, 12, 69, 0
14, 172080, Note_on_c, 12, 70, 67
14, 172199, Note_on_c, 12, 70, 0
14, 172200, Note_on_c, 12, 68, 67
14, 172319, Note_on_c, 12, 68, 0
14, 172320, Note_on_c, 12, 70, 68
14, 172439, Note_on_c, 12, 70, 0
14, 172440, Note_on_c, 12, 67, 68
14, 172559, Note_on_c, 12, 67, 0
14, 172560, Note_on_c, 12, 70, 68
14, 172679, Note_on_c, 12, 70, 0
14, 172680, Note_on_c, 12, 67, 69
14, 172799, Note_on_c, 12, 67, 0
14, 172800, Note_on_c, 12, 70, 69
14, 172919, Note_on_c, 12, 70, 0
14, 172920, Note_on_c, 12, 65, 70
14, 173024, Note_on_c, 12, 65, 0
14, 173040, Note_on_c, 12, 70, 70
14, 173159, Note_on_c, 12, 70, 0
14, 173160, Note_on_c, 12, 63, 71
14, 173279, Note_on_c, 12, 63, 0
14, 173280, Note_on_c, 12, 70, 71
14, 173399, Note_on_c, 12, 70, 0
14, 173400, Note_on_c, 12, 63, 72
14, 173519, Note_on_c, 12, 63, 0
14, 173520, Note_on_c, 12, 70, 72
14, 173639, Note_on_c, 12, 70, 0
14, 173640, Note_on_c, 12, 63, 72
14, 173759, Note_on_c, 12, 63, 0
14, 173760, Note_on_c, 12, 70, 73
14, 173879, Note_on_c, 12, 70, 0
14, 173880, Note_on_c, 12, 63, 73
14, 173999, Note_on_c, 12, 63, 0
14, 174000, Note_on_c, 12, 70, 74
14, 174119, Note_on_c, 12, 70, 0
14, 174120, Note_on_c, 12, 63, 74
14, 174239, Note_on_c, 12, 63, 0
14, 174240, Note_on_c, 12, 70, 75
14, 174359, Note_on_c, 12, 70, 0
14, 174360, Note_on_c, 12, 65, 75
14, 174464, Note_on_c, 12, 65, 0
14, 174480, Note_on_c, 12, 65, 76
14, 174569, Note_on_c, 12, 65, 0
14, 174600, Note_on_c, 12, 69, 76
14, 174719, Note_on_c, 12, 69, 0
14, 174720, Note_on_c, 12, 67, 76
14, 174839, Note_on_c, 12, 67, 0
14, 174840, Note_on_c, 12, 69, 77
14, 174959, Note_on_c, 12, 69, 0
14, 174960, Note_on_c, 12, 72, 77
14, 175079, Note_on_c, 12, 72, 0
14, 175080, Note_on_c, 12, 69, 78
14, 175184, Note_on_c, 12, 69, 0
14, 175200, Note_on_c, 12, 65, 78
14, 175289, Note_on_c, 12, 65, 0
14, 175320, Note_on_c, 12, 69, 79
14, 175439, Note_on_c, 12, 69, 0
14, 175440, Note_on_c, 12, 67, 79
14, 175559, Note_on_c, 12, 67, 0
14, 175560, Note_on_c, 12, 69, 80
14, 175679, Note_on_c, 12, 69, 0
14, 175680, Note_on_c, 12, 72, 80
14, 175799, Note_on_c, 12, 72, 0
14, 175800, Note_on_c, 12, 69, 80
14, 175904, Note_on_c, 12, 69, 0
14, 175920, Note_on_c, 12, 70, 81
14, 176039, Note_on_c, 12, 70, 0
14, 176040, Note_on_c, 12, 69, 81
14, 176159, Note_on_c, 12, 69, 0
14, 176160, Note_on_c, 12, 70, 82
14, 176279, Note_on_c, 12, 70, 0
14, 176280, Note_on_c, 12, 69, 82
14, 176399, Note_on_c, 12, 69, 0
14, 176400, Note_on_c, 12, 70, 83
14, 176519, Note_on_c, 12, 70, 0
14, 176520, Note_on_c, 12, 69, 83
14, 176639, Note_on_c, 12, 69, 0
14, 176640, Note_on_c, 12, 70, 84
14, 176759, Note_on_c, 12, 70, 0
14, 176760, Note_on_c, 12, 69, 84
14, 176879, Note_on_c, 12, 69, 0
14, 176880, Note_on_c, 12, 70, 84
14, 176999, Note_on_c, 12, 70, 0
14, 177000, Note_on_c, 12, 69, 84
14, 177119, Note_on_c, 12, 69, 0
14, 177120, Note_on_c, 12, 70, 84
14, 177239, Note_on_c, 12, 70, 0
14, 177240, Note_on_c, 12, 69, 84
14, 177344, Note_on_c, 12, 69, 0
14, 177360, Note_on_c, 12, 70, 84
14, 177479, Note_on_c, 12, 70, 0
14, 177480, Note_on_c, 12, 69, 84
14, 177599, Note_on_c, 12, 69, 0
14, 177600, Note_on_c, 12, 70, 84
14, 177719, Note_on_c, 12, 70, 0
14, 177720, Note_on_c, 12, 69, 84
14, 177839, Note_on_c, 12, 69, 0
14, 177840, Note_on_c, 12, 70, 84
14, 177959, Note_on_c, 12, 70, 0
14, 177960, Note_on_c, 12, 68, 84
14, 178079, Note_on_c, 12, 68, 0
14, 178080, Note_on_c, 12, 70, 84
14, 178199, Note_on_c, 12, 70, 0
14, 178200, Note_on_c, 12, 67, 84
14, 178319, Note_on_c, 12, 67, 0
14, 178320, Note_on_c, 12, 70, 84
14, 178439, Note_on_c, 12, 70, 0
14, 178440, Note_on_c, 12, 67, 84
14, 178559, Note_on_c, 12, 67, 0
14, 178560, Note_on_c, 12, 70, 84
14, 178679, Note_on_c, 12, 70, 0
14, 178680, Note_on_c, 12, 65, 84
14, 178784, Note_on_c, 12, 65, 0
14, 178800, Note_on_c, 12, 70, 84
14, 178919, Note_on_c, 12, 70, 0
14, 178920, Note_on_c, 12, 63, 84
14, 179039, Note_on_c, 12, 63, 0
14, 179040, Note_on_c, 12, 70, 84
14, 179159, Note_on_c, 12, 70, 0
14, 179160, Note_on_c, 12, 63, 84
14, 179279, Note_on_c, 12, 63, 0
14, 179280, Note_on_c, 12, 70, 84
14, 179399, Note_on_c, 12, 70, 0
14, 179400, Note_on_c, 12, 63, 84
14, 179519, Note_on_c, 12, 63, 0
14, 179520, Note_on_c, 12, 70, 84
14, 179639, Note_on_c, 12, 70, 0
14, 179640, Note_on_c, 12, 63, 84
14, 179759, Note_on_c, 12, 63, 0
14, 179760, Note_on_c, 12, 70, 84
14, 179879, Note_on_c, 12, 70, 0
14, 179880, Note_on_c, 12, 63, 84
14, 179999, Note_on_c, 12, 63, 0
14, 180000, Note_on_c, 12, 70, 84
14, 180119, Note_on_c, 12, 70, 0
14, 180120, Note_on_c, 12, 65, 84
14, 180224, Note_on_c, 12, 65, 0
14, 180240, Note_on_c, 12, 65, 84
14, 180329, Note_on_c, 12, 65, 0
14, 180360, Note_on_c, 12, 69, 84
14, 180479, Note_on_c, 12, 69, 0
14, 180480, Note_on_c, 12, 67, 84
14, 180599, Note_on_c, 12, 67, 0
14, 180600, Note_on_c, 12, 69, 84
14, 180719, Note_on_c, 12, 69, 0
14, 180720, Note_on_c, 12, 72, 84
14, 180839, Note_on_c, 12, 72, 0
14, 180840, Note_on_c, 12, 69, 84
14, 180944, Note_on_c, 12, 69, 0
14, 180960, Note_on_c, 12, 65, 84
14, 181049, Note_on_c, 12, 65, 0
14, 181080, Note_on_c, 12, 69, 84
14, 181199, Note_on_c, 12, 69, 0
14, 181200, Note_on_c, 12, 67, 84
14, 181319, Note_on_c, 12, 67, 0
14, 181320, Note_on_c, 12, 69, 84
14, 181439, Note_on_c, 12, 69, 0
14, 181440, Note_on_c, 12, 72, 84
14, 181559, Note_on_c, 12, 72, 0
14, 181560, Note_on_c, 12, 69, 84
14, 181664, Note_on_c, 12, 69, 0
14, 181680, Note_on_c, 12, 65, 84
14, 181769, Note_on_c, 12, 65, 0
14, 181800, Note_on_c, 12, 70, 84
14, 181919, Note_on_c, 12, 70, 0
14, 181920, Note_on_c, 12, 69, 84
14, 182039, Note_on_c, 12, 69, 0
14, 182040, Note_on_c, 12, 70, 84
14, 182159, Note_on_c, 12, 70, 0
14, 182160, Note_on_c, 12, 74, 92
14, 182279, Note_on_c, 12, 74, 0
14, 182280, Note_on_c, 12, 70, 84
14, 182399, Note_on_c, 12, 70, 0
14, 182400, Note_on_c, 12, 74, 92
14, 182519, Note_on_c, 12, 74, 0
14, 182520, Note_on_c, 12, 70, 84
14, 182639, Note_on_c, 12, 70, 0
14, 182640, Note_on_c, 12, 69, 84
14, 182759, Note_on_c, 12, 69, 0
14, 182760, Note_on_c, 12, 70, 84
14, 182879, Note_on_c, 12, 70, 0
14, 182880, Note_on_c, 12, 74, 84
14, 182999, Note_on_c, 12, 74, 0
14, 183000, Note_on_c, 12, 70, 84
14, 183104, Note_on_c, 12, 70, 0
14, 183120, Note_on_c, 12, 65, 84
14, 183209, Note_on_c, 12, 65, 0
14, 183240, Note_on_c, 12, 69, 84
14, 183359, Note_on_c, 12, 69, 0
14, 183360, Note_on_c, 12, 67, 84
14, 183479, Note_on_c, 12, 67, 0
14, 183480, Note_on_c, 12, 69, 84
14, 183599, Note_on_c, 12, 69, 0
14, 183600, Note_on_c, 12, 72, 92
14, 183719, Note_on_c, 12, 72, 0
14, 183720, Note_on_c, 12, 69, 84
14, 183824, Note_on_c, 12, 69, 0
14, 183840, Note_on_c, 12, 72, 92
14, 183959, Note_on_c, 12, 72, 0
14, 183960, Note_on_c, 12, 69, 84
14, 184079, Note_on_c, 12, 69, 0
14, 184080, Note_on_c, 12, 67, 84
14, 184199, Note_on_c, 12, 67, 0
14, 184200, Note_on_c, 12, 69, 84
14, 184319, Note_on_c, 12, 69, 0
14, 184320, Note_on_c, 12, 72, 84
14, 184439, Note_on_c, 12, 72, 0
14, 184440, Note_on_c, 12, 69, 84
14, 184544, Note_on_c, 12, 69, 0
14, 184560, Note_on_c, 12, 65, 84
14, 184649, Note_on_c, 12, 65, 0
14, 184680, Note_on_c, 12, 70, 84
14, 184799, Note_on_c, 12, 70, 0
14, 184800, Note_on_c, 12, 69, 84
14, 184919, Note_on_c, 12, 69, 0
14, 184920, Note_on_c, 12, 70, 84
14, 185039, Note_on_c, 12, 70, 0
14, 185040, Note_on_c, 12, 74, 84
14, 185159, Note_on_c, 12, 74, 0
14, 185160, Note_on_c, 12, 70, 82
14, 185279, Note_on_c, 12, 70, 0
14, 185280, Note_on_c, 12, 74, 80
14, 185399, Note_on_c, 12, 74, 0
14, 185400, Note_on_c, 12, 70, 78
14, 185519, Note_on_c, 12, 70, 0
14, 185520, Note_on_c, 12, 69, 76
14, 185639, Note_on_c, 12, 69, 0
14, 185640, Note_on_c, 12, 70, 74
14, 185759, Note_on_c, 12, 70, 0
14, 185760, Note_on_c, 12, 74, 72
14, 185879, Note_on_c, 12, 74, 0
14, 185880, Note_on_c, 12, 70, 70
14, 185984, Note_on_c, 12, 70, 0
14, 186000, Note_on_c, 12, 65, 68
14, 186089, Note_on_c, 12, 65, 0
14, 186120, Note_on_c, 12, 69, 66
14, 186239, Note_on_c, 12, 69, 0
14, 186240, Note_on_c, 12, 67, 64
14, 186359, Note_on_c, 12, 67, 0
14, 186360, Note_on_c, 12, 69, 62
14, 186479, Note_on_c, 12, 69, 0
14, 186480, Note_on_c, 12, 72, 60
14, 186599, Note_on_c, 12, 72, 0
14, 186600, Note_on_c, 12, 69, 58
14, 186719, Note_on_c, 12, 69, 0
14, 186720, Note_on_c, 12, 72, 56
14, 186839, Note_on_c, 12, 72, 0
14, 186840, Note_on_c, 12, 69, 54
14, 186959, Note_on_c, 12, 69, 0
14, 186960, Note_on_c, 12, 67, 52
14, 187079, Note_on_c, 12, 67, 0
14, 187080, Note_on_c, 12, 69, 50
14, 187199, Note_on_c, 12, 69, 0
14, 187200, Note_on_c, 12, 72, 48
14, 187319, Note_on_c, 12, 72, 0
14, 187320, Note_on_c, 12, 69, 46
14, 187424, Note_on_c, 12, 69, 0
14, 187440, Note_on_c, 12, 74, 44
14, 187529, Note_on_c, 12, 74, 0
14, 187560, Note_on_c, 12, 70, 44
14, 187679, Note_on_c, 12, 70, 0
14, 187680, Note_on_c, 12, 69, 44
14, 187799, Note_on_c, 12, 69, 0
14, 187800, Note_on_c, 12, 70, 44
14, 187919, Note_on_c, 12, 70, 0
14, 187920, Note_on_c, 12, 74, 44
14, 188039, Note_on_c, 12, 74, 0
14, 188040, Note_on_c, 12, 70, 44
14, 188144, Note_on_c, 12, 70, 0
14, 188160, Note_on_c, 12, 74, 44
14, 188279, Note_on_c, 12, 74, 0
14, 188280, Note_on_c, 12, 70, 44
14, 188399, Note_on_c, 12, 70, 0
14, 188400, Note_on_c, 12, 69, 44
14, 188519, Note_on_c, 12, 69, 0
14, 188520, Note_on_c, 12, 70, 44
14, 188639, Note_on_c, 12, 70, 0
14, 188640, Note_on_c, 12, 74, 44
14, 188759, Note_on_c, 12, 74, 0
14, 188760, Note_on_c, 12, 70, 44
14, 188864, Note_on_c, 12, 70, 0
14, 188880, Note_on_c, 12, 74, 44
14, 188999, Note_on_c, 12, 74, 0
14, 189000, Note_on_c, 12, 70, 44
14, 189119, Note_on_c, 12, 70, 0
14, 189120, Note_on_c, 12, 69, 44
14, 189239, Note_on_c, 12, 69, 0
14, 189240, Note_on_c, 12, 70, 44
14, 189359, Note_on_c, 12, 70, 0
14, 189360, Note_on_c, 12, 74, 44
14, 189479, Note_on_c, 12, 74, 0
14, 189480, Note_on_c, 12, 70, 44
14, 189584, Note_on_c, 12, 70, 0
14, 189600, Note_on_c, 12, 74, 44
14, 189719, Note_on_c, 12, 74, 0
14, 189720, Note_on_c, 12, 70, 44
14, 189839, Note_on_c, 12, 70, 0
14, 189840, Note_on_c, 12, 69, 44
14, 189959, Note_on_c, 12, 69, 0
14, 189960, Note_on_c, 12, 70, 44
14, 190079, Note_on_c, 12, 70, 0
14, 190080, Note_on_c, 12, 74, 44
14, 190199, Note_on_c, 12, 74, 0
14, 190200, Note_on_c, 12, 70, 44
14, 190304, Note_on_c, 12, 70, 0
14, 190320, Note_on_c, 12, 58, 44
14, 190559, Note_on_c, 12, 58, 0
14, 191960, Control_c, 12, 11, 101
14, 192000, Note_on_c, 12, 55, 76
14, 192060, Control_c, 12, 11, 103
14, 192160, Control_c, 12, 11, 106
14, 192239, Note_on_c, 12, 55, 0
14, 192240, Note_on_c, 12, 56, 76
14, 192260, Control_c, 12, 11, 109
14, 192359, Note_on_c, 12, 56, 0
14, 192360, Control_c, 12, 11, 111
14, 192460, Control_c, 12, 11, 114
14, 192480, Note_on_c, 12, 56, 76
14, 192560, Control_c, 12, 11, 117
14, 192660, Control_c, 12, 11, 119
14, 192719, Note_on_c, 12, 56, 0
14, 192720, Note_on_c, 12, 57, 76
14, 192760, Control_c, 12, 11, 122
14, 192839, Note_on_c, 12, 57, 0
14, 192860, Control_c, 12, 11, 127
14, 192960, Note_on_c, 12, 63, 76
14, 193199, Note_on_c, 12, 63, 0
14, 193200, Note_on_c, 12, 62, 84
14, 193319, Note_on_c, 12, 62, 0
14, 193440, Note_on_c, 12, 58, 84
14, 193440, Note_on_c, 12, 62, 84
14, 193889, Note_on_c, 12, 58, 0
14, 193889, Note_on_c, 12, 62, 0
14, 193920, Note_on_c, 12, 58, 84
14, 193920, Note_on_c, 12, 62, 84
14, 194369, Note_on_c, 12, 58, 0
14, 194369, Note_on_c, 12, 62, 0
14, 194400, Note_on_c, 12, 62, 84
14, 194400, Note_on_c, 12, 58, 84
14, 194609, Note_on_c, 12, 62, 0
14, 194609, Note_on_c, 12, 58, 0
14, 194640, Note_on_c, 12, 63, 84
14, 194640, Note_on_c, 12, 60, 84
14, 195089, Note_on_c, 12, 63, 0
14, 195089, Note_on_c, 12, 60, 0
14, 195120, Note_on_c, 12, 63, 84
14, 195120, Note_on_c, 12, 60, 84
14, 195329, Note_on_c, 12, 63, 0
14, 195329, Note_on_c, 12, 60, 0
14, 195360, Note_on_c, 12, 63, 84
14, 195360, Note_on_c, 12, 60, 84
14, 195599, Note_on_c, 12, 63, 0
14, 195599, Note_on_c, 12, 60, 0
14, 197280, Note_on_c, 12, 66, 52
14, 197519, Note_on_c, 12, 66, 0
14, 197520, Note_on_c, 12, 63, 52
14, 197759, Note_on_c, 12, 63, 0
14, 197760, Note_on_c, 12, 72, 52
14, 197999, Note_on_c, 12, 72, 0
14, 198000, Note_on_c, 12, 69, 52
14, 198239, Note_on_c, 12, 69, 0
14, 198240, Note_on_c, 12, 66, 52
14, 198479, Note_on_c, 12, 66, 0
14, 198480, Note_on_c, 12, 65, 52
14, 198719, Note_on_c, 12, 65, 0
14, 198720, Note_on_c, 12, 63, 52
14, 198959, Note_on_c, 12, 63, 0
14, 198960, Note_on_c, 12, 61, 52
14, 199199, Note_on_c, 12, 61, 0
14, 200160, Note_on_c, 12, 61, 52
14, 200399, Note_on_c, 12, 61, 0
14, 200400, Note_on_c, 12, 58, 52
14, 200639, Note_on_c, 12, 58, 0
14, 200640, Note_on_c, 12, 67, 52
14, 200879, Note_on_c, 12, 67, 0
14, 200880, Note_on_c, 12, 64, 52
14, 201119, Note_on_c, 12, 64, 0
14, 201120, Note_on_c, 12, 61, 52
14, 201359, Note_on_c, 12, 61, 0
14, 201360, Note_on_c, 12, 60, 52
14, 201599, Note_on_c, 12, 60, 0
14, 201600, Note_on_c, 12, 60, 52
14, 201839, Note_on_c, 12, 60, 0
14, 201840, Note_on_c, 12, 60, 52
14, 201959, Note_on_c, 12, 60, 0
14, 202078, Control_c, 12, 11, 80
14, 202080, Note_on_c, 12, 60, 76
14, 202180, Control_c, 12, 11, 82
14, 202280, Control_c, 12, 11, 84
14, 202380, Control_c, 12, 11, 86
14, 202480, Control_c, 12, 11, 88
14, 202529, Note_on_c, 12, 60, 0
14, 202560, Note_on_c, 12, 60, 76
14, 202580, Control_c, 12, 11, 90
14, 202680, Control_c, 12, 11, 92
14, 202780, Control_c, 12, 11, 94
14, 202799, Note_on_c, 12, 60, 0
14, 202800, Note_on_c, 12, 65, 76
14, 202880, Control_c, 12, 11, 96
14, 202919, Note_on_c, 12, 65, 0
14, 202980, Control_c, 12, 11, 98
14, 203040, Note_on_c, 12, 65, 84
14, 203080, Control_c, 12, 11, 100
14, 203180, Control_c, 12, 11, 102
14, 203279, Note_on_c, 12, 65, 0
14, 203280, Control_c, 12, 11, 104
14, 203280, Note_on_c, 12, 65, 76
14, 203380, Control_c, 12, 11, 105
14, 203480, Control_c, 12, 11, 107
14, 203489, Note_on_c, 12, 65, 0
14, 203520, Note_on_c, 12, 65, 76
14, 203580, Control_c, 12, 11, 109
14, 203680, Control_c, 12, 11, 111
14, 203780, Control_c, 12, 11, 113
14, 203880, Control_c, 12, 11, 115
14, 203969, Note_on_c, 12, 65, 0
14, 203980, Control_c, 12, 11, 117
14, 204000, Note_on_c, 12, 65, 76
14, 204080, Control_c, 12, 11, 119
14, 204180, Control_c, 12, 11, 121
14, 204239, Note_on_c, 12, 65, 0
14, 204240, Note_on_c, 12, 70, 76
14, 204280, Control_c, 12, 11, 123
14, 204359, Note_on_c, 12, 70, 0
14, 204380, Control_c, 12, 11, 125
14, 204480, Note_on_c, 12, 67, 76
14, 204480, Note_on_c, 12, 70, 76
14, 204480, Control_c, 12, 11, 127
14, 204659, Note_on_c, 12, 67, 0
14, 204659, Note_on_c, 12, 70, 0
14, 204720, Note_on_c, 12, 65, 84
14, 204720, Note_on_c, 12, 69, 84
14, 205409, Note_on_c, 12, 65, 0
14, 205409, Note_on_c, 12, 69, 0
14, 205440, Note_on_c, 12, 69, 84
14, 205440, Note_on_c, 12, 65, 84
14, 206129, Note_on_c, 12, 69, 0
14, 206129, Note_on_c, 12, 65, 0
14, 206160, Note_on_c, 12, 65, 84
14, 206160, Note_on_c, 12, 69, 84
14, 206369, Note_on_c, 12, 65, 0
14, 206369, Note_on_c, 12, 69, 0
14, 206400, Note_on_c, 12, 69, 84
14, 206400, Note_on_c, 12, 65, 84
14, 206609, Note_on_c, 12, 69, 0
14, 206609, Note_on_c, 12, 65, 0
14, 206640, Note_on_c, 12, 65, 84
14, 206640, Note_on_c, 12, 69, 84
14, 206849, Note_on_c, 12, 65, 0
14, 206849, Note_on_c, 12, 69, 0
14, 206880, Note_on_c, 12, 65, 84
14, 206880, Note_on_c, 12, 69, 84
14, 207119, Note_on_c, 12, 65, 0
14, 207119, Note_on_c, 12, 69, 0
14, 207600, Note_on_c, 12, 65, 52
14, 207809, Note_on_c, 12, 65, 0
14, 207840, Note_on_c, 12, 65, 52
14, 208289, Note_on_c, 12, 65, 0
14, 208320, Note_on_c, 12, 65, 52
14, 208769, Note_on_c, 12, 65, 0
14, 208800, Note_on_c, 12, 65, 52
14, 209009, Note_on_c, 12, 65, 0
14, 209040, Note_on_c, 12, 66, 52
14, 209489, Note_on_c, 12, 66, 0
14, 209520, Note_on_c, 12, 66, 52
14, 209729, Note_on_c, 12, 66, 0
14, 209760, Note_on_c, 12, 66, 52
14, 209969, Note_on_c, 12, 66, 0
14, 210000, Note_on_c, 12, 68, 52
14, 210239, Note_on_c, 12, 68, 0
14, 210240, Note_on_c, 12, 66, 52
14, 210359, Note_on_c, 12, 66, 0
14, 210480, Note_on_c, 12, 63, 52
14, 210719, Note_on_c, 12, 63, 0
14, 210720, Note_on_c, 12, 60, 52
14, 210839, Note_on_c, 12, 60, 0
14, 211440, Note_on_c, 12, 56, 52
14, 211440, Note_on_c, 12, 66, 52
14, 211649, Note_on_c, 12, 56, 0
14, 211649, Note_on_c, 12, 66, 0
14, 211680, Note_on_c, 12, 56, 52
14, 211680, Note_on_c, 12, 66, 52
14, 211889, Note_on_c, 12, 56, 0
14, 211889, Note_on_c, 12, 66, 0
14, 211920, Note_on_c, 12, 56, 52
14, 211920, Note_on_c, 12, 65, 52
14, 212399, Note_on_c, 12, 56, 0
14, 212399, Note_on_c, 12, 65, 0
14, 212400, Note_on_c, 12, 68, 52
14, 212609, Note_on_c, 12, 68, 0
14, 212640, Note_on_c, 12, 68, 52
14, 212849, Note_on_c, 12, 68, 0
14, 212880, Note_on_c, 12, 70, 52
14, 213119, Note_on_c, 12, 70, 0
14, 213120, Note_on_c, 12, 68, 52
14, 213239, Note_on_c, 12, 68, 0
14, 213360, Note_on_c, 12, 65, 52
14, 213599, Note_on_c, 12, 65, 0
14, 213600, Note_on_c, 12, 61, 52
14, 213719, Note_on_c, 12, 61, 0
14, 214320, Note_on_c, 12, 56, 52
14, 214320, Note_on_c, 12, 65, 52
14, 214529, Note_on_c, 12, 56, 0
14, 214529, Note_on_c, 12, 65, 0
14, 214560, Note_on_c, 12, 56, 52
14, 214560, Note_on_c, 12, 65, 52
14, 214769, Note_on_c, 12, 56, 0
14, 214769, Note_on_c, 12, 65, 0
14, 214800, Note_on_c, 12, 68, 52
14, 215249, Note_on_c, 12, 68, 0
14, 215280, Note_on_c, 12, 68, 52
14, 215489, Note_on_c, 12, 68, 0
14, 215520, Note_on_c, 12, 68, 52
14, 215729, Note_on_c, 12, 68, 0
14, 215760, Note_on_c, 12, 70, 52
14, 215999, Note_on_c, 12, 70, 0
14, 216000, Note_on_c, 12, 68, 52
14, 216119, Note_on_c, 12, 68, 0
14, 216240, Note_on_c, 12, 65, 52
14, 216479, Note_on_c, 12, 65, 0
14, 216480, Note_on_c, 12, 62, 52
14, 216599, Note_on_c, 12, 62, 0
14, 219360, Note_on_c, 12, 72, 52
14, 219599, Note_on_c, 12, 72, 0
14, 219600, Note_on_c, 12, 77, 52
14, 219719, Note_on_c, 12, 77, 0
14, 219840, Note_on_c, 12, 72, 52
14, 220079, Note_on_c, 12, 72, 0
14, 220080, Note_on_c, 12, 77, 52
14, 220199, Note_on_c, 12, 77, 0
14, 220320, Note_on_c, 12, 72, 52
14, 220559, Note_on_c, 12, 72, 0
14, 220560, Note_on_c, 12, 73, 52
14, 220799, Note_on_c, 12, 73, 0
14, 222240, Note_on_c, 12, 67, 52
14, 222479, Note_on_c, 12, 67, 0
14, 222480, Note_on_c, 12, 72, 52
14, 222599, Note_on_c, 12, 72, 0
14, 222720, Note_on_c, 12, 67, 52
14, 222959, Note_on_c, 12, 67, 0
14, 222960, Note_on_c, 12, 72, 52
14, 223079, Note_on_c, 12, 72, 0
14, 223200, Note_on_c, 12, 67, 52
14, 223439, Note_on_c, 12, 67, 0
14, 223440, Note_on_c, 12, 68, 52
14, 223679, Note_on_c, 12, 68, 0
14, 224400, Note_on_c, 12, 62, 52
14, 224639, Note_on_c, 12, 62, 0
14, 224640, Note_on_c, 12, 67, 52
14, 224759, Note_on_c, 12, 67, 0
14, 224880, Note_on_c, 12, 63, 52
14, 225119, Note_on_c, 12, 63, 0
14, 225840, Note_on_c, 12, 69, 52
14, 226079, Note_on_c, 12, 69, 0
14, 226080, Note_on_c, 12, 74, 52
14, 226199, Note_on_c, 12, 74, 0
14, 226320, Note_on_c, 12, 70, 52
14, 226559, Note_on_c, 12, 70, 0
14, 227280, Note_on_c, 12, 64, 52
14, 227519, Note_on_c, 12, 64, 0
14, 227520, Note_on_c, 12, 69, 52
14, 227639, Note_on_c, 12, 69, 0
14, 227758, Control_c, 12, 11, 80
14, 227760, Control_c, 12, 11, 80
14, 227760, Note_on_c, 12, 65, 76
14, 227870, Control_c, 12, 11, 82
14, 227980, Control_c, 12, 11, 84
14, 227999, Note_on_c, 12, 65, 0
14, 228000, Note_on_c, 12, 62, 76
14, 228090, Control_c, 12, 11, 86
14, 228200, Control_c, 12, 11, 88
14, 228239, Note_on_c, 12, 62, 0
14, 228240, Note_on_c, 12, 65, 76
14, 228310, Control_c, 12, 11, 90
14, 228359, Note_on_c, 12, 65, 0
14, 228420, Control_c, 12, 11, 92
14, 228480, Note_on_c, 12, 60, 76
14, 228530, Control_c, 12, 11, 94
14, 228640, Control_c, 12, 11, 96
14, 228719, Note_on_c, 12, 60, 0
14, 228720, Note_on_c, 12, 63, 76
14, 228750, Control_c, 12, 11, 98
14, 228839, Note_on_c, 12, 63, 0
14, 228860, Control_c, 12, 11, 100
14, 228960, Note_on_c, 12, 63, 76
14, 228970, Control_c, 12, 11, 102
14, 229080, Control_c, 12, 11, 104
14, 229190, Control_c, 12, 11, 105
14, 229199, Note_on_c, 12, 63, 0
14, 229200, Note_on_c, 12, 69, 76
14, 229300, Control_c, 12, 11, 107
14, 229319, Note_on_c, 12, 69, 0
14, 229410, Control_c, 12, 11, 109
14, 229440, Note_on_c, 12, 69, 76
14, 229520, Control_c, 12, 11, 111
14, 229630, Control_c, 12, 11, 113
14, 229679, Note_on_c, 12, 69, 0
14, 229680, Note_on_c, 12, 72, 76
14, 229740, Control_c, 12, 11, 115
14, 229799, Note_on_c, 12, 72, 0
14, 229850, Control_c, 12, 11, 117
14, 229920, Note_on_c, 12, 72, 76
14, 229960, Control_c, 12, 11, 119
14, 230070, Control_c, 12, 11, 121
14, 230159, Note_on_c, 12, 72, 0
14, 230160, Note_on_c, 12, 75, 76
14, 230180, Control_c, 12, 11, 123
14, 230279, Note_on_c, 12, 75, 0
14, 230290, Control_c, 12, 11, 125
14, 230400, Note_on_c, 12, 75, 76
14, 230400, Control_c, 12, 11, 127
14, 230639, Note_on_c, 12, 75, 0
14, 230640, Note_on_c, 12, 74, 84
14, 230849, Note_on_c, 12, 74, 0
14, 230880, Note_on_c, 12, 74, 84
14, 230880, Note_on_c, 12, 65, 84
14, 231329, Note_on_c, 12, 74, 0
14, 231329, Note_on_c, 12, 65, 0
14, 231360, Note_on_c, 12, 65, 84
14, 231360, Note_on_c, 12, 74, 84
14, 231809, Note_on_c, 12, 65, 0
14, 231809, Note_on_c, 12, 74, 0
14, 231840, Note_on_c, 12, 74, 84
14, 231840, Note_on_c, 12, 65, 84
14, 232049, Note_on_c, 12, 74, 0
14, 232049, Note_on_c, 12, 65, 0
14, 232080, Note_on_c, 12, 75, 84
14, 232080, Note_on_c, 12, 65, 84
14, 232529, Note_on_c, 12, 75, 0
14, 232529, Note_on_c, 12, 65, 0
14, 232560, Note_on_c, 12, 65, 84
14, 232560, Note_on_c, 12, 75, 84
14, 232769, Note_on_c, 12, 65, 0
14, 232769, Note_on_c, 12, 75, 0
14, 232800, Note_on_c, 12, 65, 84
14, 232800, Note_on_c, 12, 75, 84
14, 233039, Note_on_c, 12, 65, 0
14, 233039, Note_on_c, 12, 75, 0
14, 234720, Note_on_c, 12, 66, 52
14, 234959, Note_on_c, 12, 66, 0
14, 234960, Note_on_c, 12, 63, 52
14, 235199, Note_on_c, 12, 63, 0
14, 235200, Note_on_c, 12, 60, 52
14, 235439, Note_on_c, 12, 60, 0
14, 235440, Note_on_c, 12, 69, 52
14, 235679, Note_on_c, 12, 69, 0
14, 235680, Note_on_c, 12, 66, 52
14, 235919, Note_on_c, 12, 66, 0
14, 235920, Note_on_c, 12, 65, 52
14, 236159, Note_on_c, 12, 65, 0
14, 237600, Note_on_c, 12, 68, 52
14, 237839, Note_on_c, 12, 68, 0
14, 237840, Note_on_c, 12, 65, 52
14, 238079, Note_on_c, 12, 65, 0
14, 238080, Note_on_c, 12, 62, 52
14, 238319, Note_on_c, 12, 62, 0
14, 238320, Note_on_c, 12, 71, 52
14, 238559, Note_on_c, 12, 71, 0
14, 238560, Note_on_c, 12, 68, 52
14, 238799, Note_on_c, 12, 68, 0
14, 238800, Note_on_c, 12, 67, 52
14, 239009, Note_on_c, 12, 67, 0
14, 239040, Note_on_c, 12, 73, 52
14, 239279, Note_on_c, 12, 73, 0
14, 239280, Note_on_c, 12, 70, 52
14, 239519, Note_on_c, 12, 70, 0
14, 239520, Note_on_c, 12, 67, 52
14, 239759, Note_on_c, 12, 67, 0
14, 239760, Note_on_c, 12, 64, 52
14, 239999, Note_on_c, 12, 64, 0
14, 240000, Note_on_c, 12, 61, 52
14, 240239, Note_on_c, 12, 61, 0
14, 240240, Note_on_c, 12, 60, 52
14, 240449, Note_on_c, 12, 60, 0
14, 240478, Control_c, 12, 11, 96
14, 240480, Note_on_c, 12, 64, 68
14, 240719, Note_on_c, 12, 64, 0
14, 240720, Note_on_c, 12, 65, 68
14, 242159, Note_on_c, 12, 65, 0
14, 242160, Note_on_c, 12, 65, 68
14, 242160, Control_c, 12, 11, 96
14, 242240, Control_c, 12, 11, 99
14, 242320, Control_c, 12, 11, 101
14, 242400, Control_c, 12, 11, 104
14, 242480, Control_c, 12, 11, 106
14, 242560, Control_c, 12, 11, 109
14, 242640, Control_c, 12, 11, 112
14, 242720, Control_c, 12, 11, 114
14, 242800, Control_c, 12, 11, 117
14, 242880, Control_c, 12, 11, 119
14, 242960, Control_c, 12, 11, 122
14, 243040, Control_c, 12, 11, 127
14, 243329, Note_on_c, 12, 65, 0
14, 243360, Note_on_c, 12, 60, 76
14, 243360, Note_on_c, 12, 63, 76
14, 243598, Control_c, 12, 11, 96
14, 243599, Note_on_c, 12, 60, 0
14, 243599, Note_on_c, 12, 63, 0
14, 243600, Note_on_c, 12, 65, 68
14, 245039, Note_on_c, 12, 65, 0
14, 245040, Control_c, 12, 11, 96
14, 245040, Note_on_c, 12, 65, 68
14, 245120, Control_c, 12, 11, 99
14, 245200, Control_c, 12, 11, 101
14, 245280, Control_c, 12, 11, 104
14, 245360, Control_c, 12, 11, 106
14, 245440, Control_c, 12, 11, 109
14, 245520, Control_c, 12, 11, 112
14, 245600, Control_c, 12, 11, 114
14, 245680, Control_c, 12, 11, 117
14, 245760, Control_c, 12, 11, 119
14, 245840, Control_c, 12, 11, 122
14, 245920, Control_c, 12, 11, 127
14, 246209, Note_on_c, 12, 65, 0
14, 246240, Note_on_c, 12, 60, 76
14, 246240, Note_on_c, 12, 63, 76
14, 246479, Note_on_c, 12, 60, 0
14, 246479, Note_on_c, 12, 63, 0
14, 246480, Note_on_c, 12, 63, 68
14, 246480, Note_on_c, 12, 60, 68
14, 246689, Note_on_c, 12, 63, 0
14, 246689, Note_on_c, 12, 60, 0
14, 246720, Note_on_c, 12, 75, 76
14, 247169, Note_on_c, 12, 75, 0
14, 247200, Note_on_c, 12, 74, 76
14, 247649, Note_on_c, 12, 74, 0
14, 247680, Note_on_c, 12, 70, 76
14, 247680, Note_on_c, 12, 67, 76
14, 247889, Note_on_c, 12, 70, 0
14, 247889, Note_on_c, 12, 67, 0
14, 247920, Note_on_c, 12, 65, 84
14, 247920, Note_on_c, 12, 70, 84
14, 248609, Note_on_c, 12, 65, 0
14, 248609, Note_on_c, 12, 70, 0
14, 248640, Note_on_c, 12, 69, 84
14, 248640, Note_on_c, 12, 65, 84
14, 249329, Note_on_c, 12, 69, 0
14, 249329, Note_on_c, 12, 65, 0
14, 249360, Note_on_c, 12, 70, 84
14, 249464, Note_on_c, 12, 70, 0
14, 249480, Note_on_c, 12, 70, 84
14, 249584, Note_on_c, 12, 70, 0
14, 249600, Note_on_c, 12, 70, 84
14, 249704, Note_on_c, 12, 70, 0
14, 249720, Note_on_c, 12, 70, 84
14, 249824, Note_on_c, 12, 70, 0
14, 249840, Note_on_c, 12, 70, 84
14, 249944, Note_on_c, 12, 70, 0
14, 249960, Note_on_c, 12, 70, 84
14, 250064, Note_on_c, 12, 70, 0
14, 250080, Note_on_c, 12, 70, 84
14, 250184, Note_on_c, 12, 70, 0
14, 250200, Note_on_c, 12, 70, 84
14, 250304, Note_on_c, 12, 70, 0
14, 250320, Note_on_c, 12, 70, 84
14, 250424, Note_on_c, 12, 70, 0
14, 250440, Note_on_c, 12, 70, 84
14, 250544, Note_on_c, 12, 70, 0
14, 250560, Note_on_c, 12, 70, 84
14, 250664, Note_on_c, 12, 70, 0
14, 250680, Note_on_c, 12, 70, 84
14, 250784, Note_on_c, 12, 70, 0
14, 250800, Note_on_c, 12, 69, 84
14, 250904, Note_on_c, 12, 69, 0
14, 250920, Note_on_c, 12, 69, 84
14, 251024, Note_on_c, 12, 69, 0
14, 251040, Note_on_c, 12, 69, 84
14, 251144, Note_on_c, 12, 69, 0
14, 251160, Note_on_c, 12, 69, 84
14, 251264, Note_on_c, 12, 69, 0
14, 251280, Note_on_c, 12, 69, 84
14, 251384, Note_on_c, 12, 69, 0
14, 251400, Note_on_c, 12, 69, 84
14, 251504, Note_on_c, 12, 69, 0
14, 251520, Note_on_c, 12, 69, 84
14, 251624, Note_on_c, 12, 69, 0
14, 251640, Note_on_c, 12, 69, 84
14, 251744, Note_on_c, 12, 69, 0
14, 251760, Note_on_c, 12, 69, 84
14, 251864, Note_on_c, 12, 69, 0
14, 251880, Note_on_c, 12, 69, 84
14, 251984, Note_on_c, 12, 69, 0
14, 252000, Note_on_c, 12, 69, 84
14, 252104, Note_on_c, 12, 69, 0
14, 252120, Note_on_c, 12, 69, 84
14, 252224, Note_on_c, 12, 69, 0
14, 252240, Note_on_c, 12, 70, 84
14, 252344, Note_on_c, 12, 70, 0
14, 252360, Note_on_c, 12, 70, 84
14, 252464, Note_on_c, 12, 70, 0
14, 252480, Note_on_c, 12, 70, 84
14, 252584, Note_on_c, 12, 70, 0
14, 252600, Note_on_c, 12, 70, 84
14, 252704, Note_on_c, 12, 70, 0
14, 252720, Note_on_c, 12, 70, 84
14, 252824, Note_on_c, 12, 70, 0
14, 252840, Note_on_c, 12, 70, 84
14, 252944, Note_on_c, 12, 70, 0
14, 252960, Note_on_c, 12, 70, 84
14, 253064, Note_on_c, 12, 70, 0
14, 253080, Note_on_c, 12, 70, 84
14, 253184, Note_on_c, 12, 70, 0
14, 253200, Note_on_c, 12, 70, 84
14, 253304, Note_on_c, 12, 70, 0
14, 253320, Note_on_c, 12, 70, 84
14, 253424, Note_on_c, 12, 70, 0
14, 253440, Note_on_c, 12, 70, 84
14, 253544, Note_on_c, 12, 70, 0
14, 253560, Note_on_c, 12, 70, 84
14, 253664, Note_on_c, 12, 70, 0
14, 253680, Note_on_c, 12, 69, 84
14, 253784, Note_on_c, 12, 69, 0
14, 253800, Note_on_c, 12, 69, 84
14, 253904, Note_on_c, 12, 69, 0
14, 253920, Note_on_c, 12, 69, 84
14, 254024, Note_on_c, 12, 69, 0
14, 254040, Note_on_c, 12, 69, 84
14, 254144, Note_on_c, 12, 69, 0
14, 254160, Note_on_c, 12, 69, 84
14, 254264, Note_on_c, 12, 69, 0
14, 254280, Note_on_c, 12, 69, 84
14, 254384, Note_on_c, 12, 69, 0
14, 254400, Note_on_c, 12, 69, 84
14, 254504, Note_on_c, 12, 69, 0
14, 254520, Note_on_c, 12, 69, 84
14, 254624, Note_on_c, 12, 69, 0
14, 254640, Note_on_c, 12, 69, 84
14, 254744, Note_on_c, 12, 69, 0
14, 254760, Note_on_c, 12, 69, 84
14, 254864, Note_on_c, 12, 69, 0
14, 254880, Note_on_c, 12, 69, 84
14, 254984, Note_on_c, 12, 69, 0
14, 255000, Note_on_c, 12, 69, 84
14, 255104, Note_on_c, 12, 69, 0
14, 255120, Note_on_c, 12, 70, 76
14, 255120, Note_on_c, 12, 62, 76
14, 255809, Note_on_c, 12, 70, 0
14, 255809, Note_on_c, 12, 62, 0
14, 255840, Note_on_c, 12, 62, 76
14, 255840, Note_on_c, 12, 74, 76
14, 256529, Note_on_c, 12, 62, 0
14, 256529, Note_on_c, 12, 74, 0
14, 256560, Note_on_c, 12, 77, 76
14, 256560, Note_on_c, 12, 62, 76
14, 256769, Note_on_c, 12, 77, 0
14, 256769, Note_on_c, 12, 62, 0
14, 256800, Note_on_c, 12, 77, 76
14, 256800, Note_on_c, 12, 62, 76
14, 257009, Note_on_c, 12, 77, 0
14, 257009, Note_on_c, 12, 62, 0
14, 257040, Note_on_c, 12, 62, 76
14, 257040, Note_on_c, 12, 77, 76
14, 257249, Note_on_c, 12, 62, 0
14, 257249, Note_on_c, 12, 77, 0
14, 257280, Note_on_c, 12, 70, 76
14, 257280, Note_on_c, 12, 62, 76
14, 257519, Note_on_c, 12, 70, 0
14, 257519, Note_on_c, 12, 62, 0
14, 267360, Control_c, 12, 11, 96
14, 267840, Note_on_c, 12, 67, 68
14, 268079, Note_on_c, 12, 67, 0
14, 268080, Control_c, 12, 11, 96
14, 268080, Note_on_c, 12, 65, 68
14, 268140, Control_c, 12, 11, 99
14, 268200, Control_c, 12, 11, 101
14, 268260, Control_c, 12, 11, 104
14, 268320, Control_c, 12, 11, 106
14, 268380, Control_c, 12, 11, 109
14, 268440, Control_c, 12, 11, 112
14, 268500, Control_c, 12, 11, 114
14, 268559, Note_on_c, 12, 65, 0
14, 268560, Control_c, 12, 11, 117
14, 268560, Note_on_c, 12, 64, 68
14, 268620, Control_c, 12, 11, 119
14, 268680, Control_c, 12, 11, 122
14, 268740, Control_c, 12, 11, 127
14, 268800, Control_c, 12, 11, 127
14, 268860, Control_c, 12, 11, 124
14, 268920, Control_c, 12, 11, 122
14, 268980, Control_c, 12, 11, 119
14, 269039, Note_on_c, 12, 64, 0
14, 269040, Note_on_c, 12, 63, 68
14, 269040, Control_c, 12, 11, 117
14, 269100, Control_c, 12, 11, 114
14, 269160, Control_c, 12, 11, 112
14, 269220, Control_c, 12, 11, 109
14, 269279, Note_on_c, 12, 63, 0
14, 269280, Control_c, 12, 11, 106
14, 269280, Note_on_c, 12, 62, 68
14, 269340, Control_c, 12, 11, 104
14, 269400, Control_c, 12, 11, 101
14, 269460, Control_c, 12, 11, 96
14, 269489, Note_on_c, 12, 62, 0
14, 269520, Note_on_c, 12, 62, 68
14, 269759, Note_on_c, 12, 62, 0
14, 282240, Program_c, 12, 45
14, 282240, Control_c, 12, 11, 127
14, 282480, Note_on_c, 12, 60, 48
14, 282719, Note_on_c, 12, 60, 0
14, 285360, Note_on_c, 12, 60, 48
14, 285599, Note_on_c, 12, 60, 0
14, 286080, Program_c, 12, 48
14, 286440, Note_on_c, 12, 62, 44
14, 286559, Note_on_c, 12, 62, 0
14, 286560, Note_on_c, 12, 63, 44
14, 286679, Note_on_c, 12, 63, 0
14, 286680, Note_on_c, 12, 62, 44
14, 286784, Note_on_c, 12, 62, 0
14, 286800, Note_on_c, 12, 63, 44
14, 286979, Note_on_c, 12, 63, 0
14, 287160, Note_on_c, 12, 62, 44
14, 287279, Note_on_c, 12, 62, 0
14, 287280, Note_on_c, 12, 63, 44
14, 287399, Note_on_c, 12, 63, 0
14, 287400, Note_on_c, 12, 62, 44
14, 287504, Note_on_c, 12, 62, 0
14, 287520, Note_on_c, 12, 63, 44
14, 287699, Note_on_c, 12, 63, 0
14, 287880, Note_on_c, 12, 62, 44
14, 287999, Note_on_c, 12, 62, 0
14, 288000, Note_on_c, 12, 63, 44
14, 288119, Note_on_c, 12, 63, 0
14, 288120, Note_on_c, 12, 62, 44
14, 288224, Note_on_c, 12, 62, 0
14, 288240, Note_on_c, 12, 63, 44
14, 288419, Note_on_c, 12, 63, 0
14, 292560, Note_on_c, 12, 58, 53
14, 292679, Note_on_c, 12, 58, 0
14, 292680, Note_on_c, 12, 57, 53
14, 292799, Note_on_c, 12, 57, 0
14, 292800, Note_on_c, 12, 58, 53
14, 292919, Note_on_c, 12, 58, 0
14, 292920, Note_on_c, 12, 57, 54
14, 293039, Note_on_c, 12, 57, 0
14, 293040, Note_on_c, 12, 58, 54
14, 293159, Note_on_c, 12, 58, 0
14, 293160, Note_on_c, 12, 57, 54
14, 293279, Note_on_c, 12, 57, 0
14, 293280, Note_on_c, 12, 58, 54
14, 293399, Note_on_c, 12, 58, 0
14, 293400, Note_on_c, 12, 57, 55
14, 293519, Note_on_c, 12, 57, 0
14, 293520, Note_on_c, 12, 58, 55
14, 293639, Note_on_c, 12, 58, 0
14, 293640, Note_on_c, 12, 57, 55
14, 293759, Note_on_c, 12, 57, 0
14, 293760, Note_on_c, 12, 58, 56
14, 293879, Note_on_c, 12, 58, 0
14, 293880, Note_on_c, 12, 57, 56
14, 293984, Note_on_c, 12, 57, 0
14, 294000, Note_on_c, 12, 58, 56
14, 294119, Note_on_c, 12, 58, 0
14, 294120, Note_on_c, 12, 57, 57
14, 294239, Note_on_c, 12, 57, 0
14, 294240, Note_on_c, 12, 58, 57
14, 294359, Note_on_c, 12, 58, 0
14, 294360, Note_on_c, 12, 57, 57
14, 294479, Note_on_c, 12, 57, 0
14, 294480, Note_on_c, 12, 58, 57
14, 294599, Note_on_c, 12, 58, 0
14, 294600, Note_on_c, 12, 57, 58
14, 294719, Note_on_c, 12, 57, 0
14, 294720, Note_on_c, 12, 58, 58
14, 294839, Note_on_c, 12, 58, 0
14, 294840, Note_on_c, 12, 57, 58
14, 294959, Note_on_c, 12, 57, 0
14, 294960, Note_on_c, 12, 58, 59
14, 295079, Note_on_c, 12, 58, 0
14, 295080, Note_on_c, 12, 57, 59
14, 295199, Note_on_c, 12, 57, 0
14, 295200, Note_on_c, 12, 58, 59
14, 295319, Note_on_c, 12, 58, 0
14, 295320, Note_on_c, 12, 57, 60
14, 295424, Note_on_c, 12, 57, 0
14, 295440, Note_on_c, 12, 58, 60
14, 295559, Note_on_c, 12, 58, 0
14, 295560, Note_on_c, 12, 57, 60
14, 295679, Note_on_c, 12, 57, 0
14, 295680, Note_on_c, 12, 58, 60
14, 295799, Note_on_c, 12, 58, 0
14, 295800, Note_on_c, 12, 57, 61
14, 295919, Note_on_c, 12, 57, 0
14, 295920, Note_on_c, 12, 58, 61
14, 296039, Note_on_c, 12, 58, 0
14, 296040, Note_on_c, 12, 57, 61
14, 296159, Note_on_c, 12, 57, 0
14, 296160, Note_on_c, 12, 58, 62
14, 296279, Note_on_c, 12, 58, 0
14, 296280, Note_on_c, 12, 57, 62
14, 296399, Note_on_c, 12, 57, 0
14, 296400, Note_on_c, 12, 58, 62
14, 296519, Note_on_c, 12, 58, 0
14, 296520, Note_on_c, 12, 57, 63
14, 296639, Note_on_c, 12, 57, 0
14, 296640, Note_on_c, 12, 58, 63
14, 296759, Note_on_c, 12, 58, 0
14, 296760, Note_on_c, 12, 57, 63
14, 296864, Note_on_c, 12, 57, 0
14, 296880, Note_on_c, 12, 58, 64
14, 296999, Note_on_c, 12, 58, 0
14, 297000, Note_on_c, 12, 57, 64
14, 297119, Note_on_c, 12, 57, 0
14, 297120, Note_on_c, 12, 58, 64
14, 297239, Note_on_c, 12, 58, 0
14, 297240, Note_on_c, 12, 57, 64
14, 297359, Note_on_c, 12, 57, 0
14, 297360, Note_on_c, 12, 58, 65
14, 297479, Note_on_c, 12, 58, 0
14, 297480, Note_on_c, 12, 57, 65
14, 297599, Note_on_c, 12, 57, 0
14, 297600, Note_on_c, 12, 58, 65
14, 297719, Note_on_c, 12, 58, 0
14, 297720, Note_on_c, 12, 57, 66
14, 297839, Note_on_c, 12, 57, 0
14, 297840, Note_on_c, 12, 58, 66
14, 297959, Note_on_c, 12, 58, 0
14, 297960, Note_on_c, 12, 57, 66
14, 298079, Note_on_c, 12, 57, 0
14, 298080, Note_on_c, 12, 58, 67
14, 298199, Note_on_c, 12, 58, 0
14, 298200, Note_on_c, 12, 57, 67
14, 298319, Note_on_c, 12, 57, 0
14, 298320, Note_on_c, 12, 58, 67
14, 298424, Note_on_c, 12, 58, 0
14, 298440, Note_on_c, 12, 69, 67
14, 298559, Note_on_c, 12, 69, 0
14, 298560, Note_on_c, 12, 70, 68
14, 298679, Note_on_c, 12, 70, 0
14, 298680, Note_on_c, 12, 69, 68
14, 298799, Note_on_c, 12, 69, 0
14, 298800, Note_on_c, 12, 70, 68
14, 298919, Note_on_c, 12, 70, 0
14, 298920, Note_on_c, 12, 69, 69
14, 299039, Note_on_c, 12, 69, 0
14, 299040, Note_on_c, 12, 70, 69
14, 299159, Note_on_c, 12, 70, 0
14, 299160, Note_on_c, 12, 69, 69
14, 299279, Note_on_c, 12, 69, 0
14, 299280, Note_on_c, 12, 70, 70
14, 299399, Note_on_c, 12, 70, 0
14, 299400, Note_on_c, 12, 69, 70
14, 299519, Note_on_c, 12, 69, 0
14, 299520, Note_on_c, 12, 70, 70
14, 299639, Note_on_c, 12, 70, 0
14, 299640, Note_on_c, 12, 69, 70
14, 299744, Note_on_c, 12, 69, 0
14, 299760, Note_on_c, 12, 70, 71
14, 299879, Note_on_c, 12, 70, 0
14, 299880, Note_on_c, 12, 69, 71
14, 299999, Note_on_c, 12, 69, 0
14, 300000, Note_on_c, 12, 70, 71
14, 300119, Note_on_c, 12, 70, 0
14, 300120, Note_on_c, 12, 69, 72
14, 300239, Note_on_c, 12, 69, 0
14, 300240, Note_on_c, 12, 70, 72
14, 300359, Note_on_c, 12, 70, 0
14, 300360, Note_on_c, 12, 68, 72
14, 300479, Note_on_c, 12, 68, 0
14, 300480, Note_on_c, 12, 70, 73
14, 300599, Note_on_c, 12, 70, 0
14, 300600, Note_on_c, 12, 67, 73
14, 300719, Note_on_c, 12, 67, 0
14, 300720, Note_on_c, 12, 70, 73
14, 300839, Note_on_c, 12, 70, 0
14, 300840, Note_on_c, 12, 67, 74
14, 300959, Note_on_c, 12, 67, 0
14, 300960, Note_on_c, 12, 70, 74
14, 301079, Note_on_c, 12, 70, 0
14, 301080, Note_on_c, 12, 65, 74
14, 301184, Note_on_c, 12, 65, 0
14, 301200, Note_on_c, 12, 70, 74
14, 301319, Note_on_c, 12, 70, 0
14, 301320, Note_on_c, 12, 63, 75
14, 301439, Note_on_c, 12, 63, 0
14, 301440, Note_on_c, 12, 70, 75
14, 301559, Note_on_c, 12, 70, 0
14, 301560, Note_on_c, 12, 63, 75
14, 301679, Note_on_c, 12, 63, 0
14, 301680, Note_on_c, 12, 70, 76
14, 301799, Note_on_c, 12, 70, 0
14, 301800, Note_on_c, 12, 63, 76
14, 301919, Note_on_c, 12, 63, 0
14, 301920, Note_on_c, 12, 70, 76
14, 302039, Note_on_c, 12, 70, 0
14, 302040, Note_on_c, 12, 63, 77
14, 302159, Note_on_c, 12, 63, 0
14, 302160, Note_on_c, 12, 70, 77
14, 302279, Note_on_c, 12, 70, 0
14, 302280, Note_on_c, 12, 63, 77
14, 302399, Note_on_c, 12, 63, 0
14, 302400, Note_on_c, 12, 70, 77
14, 302519, Note_on_c, 12, 70, 0
14, 302520, Note_on_c, 12, 65, 78
14, 302624, Note_on_c, 12, 65, 0
14, 302640, Note_on_c, 12, 65, 78
14, 302729, Note_on_c, 12, 65, 0
14, 302760, Note_on_c, 12, 69, 78
14, 302879, Note_on_c, 12, 69, 0
14, 302880, Note_on_c, 12, 67, 79
14, 302999, Note_on_c, 12, 67, 0
14, 303000, Note_on_c, 12, 69, 79
14, 303119, Note_on_c, 12, 69, 0
14, 303120, Note_on_c, 12, 72, 79
14, 303239, Note_on_c, 12, 72, 0
14, 303240, Note_on_c, 12, 69, 80
14, 303344, Note_on_c, 12, 69, 0
14, 303360, Note_on_c, 12, 65, 80
14, 303449, Note_on_c, 12, 65, 0
14, 303480, Note_on_c, 12, 69, 80
14, 303599, Note_on_c, 12, 69, 0
14, 303600, Note_on_c, 12, 67, 80
14, 303719, Note_on_c, 12, 67, 0
14, 303720, Note_on_c, 12, 69, 81
14, 303839, Note_on_c, 12, 69, 0
14, 303840, Note_on_c, 12, 72, 81
14, 303959, Note_on_c, 12, 72, 0
14, 303960, Note_on_c, 12, 69, 81
14, 304064, Note_on_c, 12, 69, 0
14, 304080, Note_on_c, 12, 70, 82
14, 304199, Note_on_c, 12, 70, 0
14, 304200, Note_on_c, 12, 69, 82
14, 304319, Note_on_c, 12, 69, 0
14, 304320, Note_on_c, 12, 70, 82
14, 304439, Note_on_c, 12, 70, 0
14, 304440, Note_on_c, 12, 69, 83
14, 304559, Note_on_c, 12, 69, 0
14, 304560, Note_on_c, 12, 70, 83
14, 304679, Note_on_c, 12, 70, 0
14, 304680, Note_on_c, 12, 69, 83
14, 304799, Note_on_c, 12, 69, 0
14, 304800, Note_on_c, 12, 70, 84
14, 304919, Note_on_c, 12, 70, 0
14, 304920, Note_on_c, 12, 69, 84
14, 305039, Note_on_c, 12, 69, 0
14, 305040, Note_on_c, 12, 70, 84
14, 305159, Note_on_c, 12, 70, 0
14, 305160, Note_on_c, 12, 69, 84
14, 305279, Note_on_c, 12, 69, 0
14, 305280, Note_on_c, 12, 70, 84
14, 305399, Note_on_c, 12, 70, 0
14, 305400, Note_on_c, 12, 69, 84
14, 305504, Note_on_c, 12, 69, 0
14, 305520, Note_on_c, 12, 70, 84
14, 305639, Note_on_c, 12, 70, 0
14, 305640, Note_on_c, 12, 69, 84
14, 305759, Note_on_c, 12, 69, 0
14, 305760, Note_on_c, 12, 70, 84
14, 305879, Note_on_c, 12, 70, 0
14, 305880, Note_on_c, 12, 69, 84
14, 305999, Note_on_c, 12, 69, 0
14, 306000, Note_on_c, 12, 70, 84
14, 306119, Note_on_c, 12, 70, 0
14, 306120, Note_on_c, 12, 68, 84
14, 306239, Note_on_c, 12, 68, 0
14, 306240, Note_on_c, 12, 70, 84
14, 306359, Note_on_c, 12, 70, 0
14, 306360, Note_on_c, 12, 67, 84
14, 306479, Note_on_c, 12, 67, 0
14, 306480, Note_on_c, 12, 70, 84
14, 306599, Note_on_c, 12, 70, 0
14, 306600, Note_on_c, 12, 67, 84
14, 306719, Note_on_c, 12, 67, 0
14, 306720, Note_on_c, 12, 70, 84
14, 306839, Note_on_c, 12, 70, 0
14, 306840, Note_on_c, 12, 65, 84
14, 306944, Note_on_c, 12, 65, 0
14, 306960, Note_on_c, 12, 70, 84
14, 307079, Note_on_c, 12, 70, 0
14, 307080, Note_on_c, 12, 63, 84
14, 307199, Note_on_c, 12, 63, 0
14, 307200, Note_on_c, 12, 70, 84
14, 307319, Note_on_c, 12, 70, 0
14, 307320, Note_on_c, 12, 63, 84
14, 307439, Note_on_c, 12, 63, 0
14, 307440, Note_on_c, 12, 70, 84
14, 307559, Note_on_c, 12, 70, 0
14, 307560, Note_on_c, 12, 63, 84
14, 307679, Note_on_c, 12, 63, 0
14, 307680, Note_on_c, 12, 70, 84
14, 307799, Note_on_c, 12, 70, 0
14, 307800, Note_on_c, 12, 63, 84
14, 307919, Note_on_c, 12, 63, 0
14, 307920, Note_on_c, 12, 70, 84
14, 308039, Note_on_c, 12, 70, 0
14, 308040, Note_on_c, 12, 63, 84
14, 308159, Note_on_c, 12, 63, 0
14, 308160, Note_on_c, 12, 70, 84
14, 308279, Note_on_c, 12, 70, 0
14, 308280, Note_on_c, 12, 65, 84
14, 308384, Note_on_c, 12, 65, 0
14, 308400, Note_on_c, 12, 65, 84
14, 308489, Note_on_c, 12, 65, 0
14, 308520, Note_on_c, 12, 69, 84
14, 308639, Note_on_c, 12, 69, 0
14, 308640, Note_on_c, 12, 67, 84
14, 308759, Note_on_c, 12, 67, 0
14, 308760, Note_on_c, 12, 69, 84
14, 308879, Note_on_c, 12, 69, 0
14, 308880, Note_on_c, 12, 72, 84
14, 308999, Note_on_c, 12, 72, 0
14, 309000, Note_on_c, 12, 69, 84
14, 309104, Note_on_c, 12, 69, 0
14, 309120, Note_on_c, 12, 65, 84
14, 309209, Note_on_c, 12, 65, 0
14, 309240, Note_on_c, 12, 69, 84
14, 309359, Note_on_c, 12, 69, 0
14, 309360, Note_on_c, 12, 67, 84
14, 309479, Note_on_c, 12, 67, 0
14, 309480, Note_on_c, 12, 69, 84
14, 309599, Note_on_c, 12, 69, 0
14, 309600, Note_on_c, 12, 72, 84
14, 309719, Note_on_c, 12, 72, 0
14, 309720, Note_on_c, 12, 69, 84
14, 309824, Note_on_c, 12, 69, 0
14, 309840, Note_on_c, 12, 65, 84
14, 309929, Note_on_c, 12, 65, 0
14, 309960, Note_on_c, 12, 70, 84
14, 310079, Note_on_c, 12, 70, 0
14, 310080, Note_on_c, 12, 69, 84
14, 310199, Note_on_c, 12, 69, 0
14, 310200, Note_on_c, 12, 70, 84
14, 310319, Note_on_c, 12, 70, 0
14, 310320, Note_on_c, 12, 74, 92
14, 310439, Note_on_c, 12, 74, 0
14, 310440, Note_on_c, 12, 70, 84
14, 310559, Note_on_c, 12, 70, 0
14, 310560, Note_on_c, 12, 74, 92
14, 310679, Note_on_c, 12, 74, 0
14, 310680, Note_on_c, 12, 70, 84
14, 310799, Note_on_c, 12, 70, 0
14, 310800, Note_on_c, 12, 69, 84
14, 310919, Note_on_c, 12, 69, 0
14, 310920, Note_on_c, 12, 70, 84
14, 311039, Note_on_c, 12, 70, 0
14, 311040, Note_on_c, 12, 74, 84
14, 311159, Note_on_c, 12, 74, 0
14, 311160, Note_on_c, 12, 70, 84
14, 311264, Note_on_c, 12, 70, 0
14, 311280, Note_on_c, 12, 65, 84
14, 311369, Note_on_c, 12, 65, 0
14, 311400, Note_on_c, 12, 69, 84
14, 311519, Note_on_c, 12, 69, 0
14, 311520, Note_on_c, 12, 67, 84
14, 311639, Note_on_c, 12, 67, 0
14, 311640, Note_on_c, 12, 69, 84
14, 311759, Note_on_c, 12, 69, 0
14, 311760, Note_on_c, 12, 72, 92
14, 311879, Note_on_c, 12, 72, 0
14, 311880, Note_on_c, 12, 69, 84
14, 311984, Note_on_c, 12, 69, 0
14, 312000, Note_on_c, 12, 72, 92
14, 312119, Note_on_c, 12, 72, 0
14, 312120, Note_on_c, 12, 69, 84
14, 312239, Note_on_c, 12, 69, 0
14, 312240, Note_on_c, 12, 67, 84
14, 312359, Note_on_c, 12, 67, 0
14, 312360, Note_on_c, 12, 69, 84
14, 312479, Note_on_c, 12, 69, 0
14, 312480, Note_on_c, 12, 72, 84
14, 312599, Note_on_c, 12, 72, 0
14, 312600, Note_on_c, 12, 69, 84
14, 312704, Note_on_c, 12, 69, 0
14, 312720, Note_on_c, 12, 65, 84
14, 312809, Note_on_c, 12, 65, 0
14, 312840, Note_on_c, 12, 70, 84
14, 312959, Note_on_c, 12, 70, 0
14, 312960, Note_on_c, 12, 69, 84
14, 313079, Note_on_c, 12, 69, 0
14, 313080, Note_on_c, 12, 70, 84
14, 313199, Note_on_c, 12, 70, 0
14, 313200, Note_on_c, 12, 74, 84
14, 313319, Note_on_c, 12, 74, 0
14, 313320, Note_on_c, 12, 70, 82
14, 313439, Note_on_c, 12, 70, 0
14, 313440, Note_on_c, 12, 74, 80
14, 313559, Note_on_c, 12, 74, 0
14, 313560, Note_on_c, 12, 70, 78
14, 313679, Note_on_c, 12, 70, 0
14, 313680, Note_on_c, 12, 69, 76
14, 313799, Note_on_c, 12, 69, 0
14, 313800, Note_on_c, 12, 70, 74
14, 313919, Note_on_c, 12, 70, 0
14, 313920, Note_on_c, 12, 74, 72
14, 314039, Note_on_c, 12, 74, 0
14, 314040, Note_on_c, 12, 70, 70
14, 314144, Note_on_c, 12, 70, 0
14, 314160, Note_on_c, 12, 65, 68
14, 314249, Note_on_c, 12, 65, 0
14, 314280, Note_on_c, 12, 69, 66
14, 314399, Note_on_c, 12, 69, 0
14, 314400, Note_on_c, 12, 67, 64
14, 314519, Note_on_c, 12, 67, 0
14, 314520, Note_on_c, 12, 69, 62
14, 314639, Note_on_c, 12, 69, 0
14, 314640, Note_on_c, 12, 72, 60
14, 314759, Note_on_c, 12, 72, 0
14, 314760, Note_on_c, 12, 69, 58
14, 314879, Note_on_c, 12, 69, 0
14, 314880, Note_on_c, 12, 72, 56
14, 314999, Note_on_c, 12, 72, 0
14, 315000, Note_on_c, 12, 69, 54
14, 315119, Note_on_c, 12, 69, 0
14, 315120, Note_on_c, 12, 67, 52
14, 315239, Note_on_c, 12, 67, 0
14, 315240, Note_on_c, 12, 69, 50
14, 315359, Note_on_c, 12, 69, 0
14, 315360, Note_on_c, 12, 72, 48
14, 315479, Note_on_c, 12, 72, 0
14, 315480, Note_on_c, 12, 69, 46
14, 315584, Note_on_c, 12, 69, 0
14, 315600, Note_on_c, 12, 74, 44
14, 315689, Note_on_c, 12, 74, 0
14, 315720, Note_on_c, 12, 70, 44
14, 315839, Note_on_c, 12, 70, 0
14, 315840, Note_on_c, 12, 69, 44
14, 315959, Note_on_c, 12, 69, 0
14, 315960, Note_on_c, 12, 70, 44
14, 316079, Note_on_c, 12, 70, 0
14, 316080, Note_on_c, 12, 74, 44
14, 316199, Note_on_c, 12, 74, 0
14, 316200, Note_on_c, 12, 70, 44
14, 316304, Note_on_c, 12, 70, 0
14, 316320, Note_on_c, 12, 74, 44
14, 316439, Note_on_c, 12, 74, 0
14, 316440, Note_on_c, 12, 70, 44
14, 316559, Note_on_c, 12, 70, 0
14, 316560, Note_on_c, 12, 69, 44
14, 316679, Note_on_c, 12, 69, 0
14, 316680, Note_on_c, 12, 70, 44
14, 316799, Note_on_c, 12, 70, 0
14, 316800, Note_on_c, 12, 74, 44
14, 316919, Note_on_c, 12, 74, 0
14, 316920, Note_on_c, 12, 70, 44
14, 317024, Note_on_c, 12, 70, 0
14, 317040, Note_on_c, 12, 74, 44
14, 317159, Note_on_c, 12, 74, 0
14, 317160, Note_on_c, 12, 70, 44
14, 317279, Note_on_c, 12, 70, 0
14, 317280, Note_on_c, 12, 69, 44
14, 317399, Note_on_c, 12, 69, 0
14, 317400, Note_on_c, 12, 70, 44
14, 317519, Note_on_c, 12, 70, 0
14, 317520, Note_on_c, 12, 74, 44
14, 317639, Note_on_c, 12, 74, 0
14, 317640, Note_on_c, 12, 70, 44
14, 317744, Note_on_c, 12, 70, 0
14, 317760, Note_on_c, 12, 74, 44
14, 317879, Note_on_c, 12, 74, 0
14, 317880, Note_on_c, 12, 70, 44
14, 317999, Note_on_c, 12, 70, 0
14, 318000, Note_on_c, 12, 69, 44
14, 318119, Note_on_c, 12, 69, 0
14, 318120, Note_on_c, 12, 70, 44
14, 318239, Note_on_c, 12, 70, 0
14, 318240, Note_on_c, 12, 74, 44
14, 318359, Note_on_c, 12, 74, 0
14, 318360, Note_on_c, 12, 70, 44
14, 318464, Note_on_c, 12, 70, 0
14, 318480, Note_on_c, 12, 58, 44
14, 318689, Note_on_c, 12, 58, 0
14, 318720, Note_on_c, 12, 64, 44
14, 318959, Note_on_c, 12, 64, 0
14, 318960, Note_on_c, 12, 65, 44
14, 319079, Note_on_c, 12, 65, 0
14, 319198, Control_c, 12, 11, 64
14, 319200, Note_on_c, 12, 65, 76
14, 319439, Note_on_c, 12, 65, 0
14, 319440, Note_on_c, 12, 66, 76
14, 319559, Note_on_c, 12, 66, 0
14, 319680, Note_on_c, 12, 66, 76
14, 319680, Control_c, 12, 11, 64
14, 319740, Control_c, 12, 11, 67
14, 319800, Control_c, 12, 11, 69
14, 319860, Control_c, 12, 11, 72
14, 319919, Note_on_c, 12, 66, 0
14, 319920, Control_c, 12, 11, 75
14, 319920, Note_on_c, 12, 67, 76
14, 319980, Control_c, 12, 11, 77
14, 320039, Note_on_c, 12, 67, 0
14, 320040, Control_c, 12, 11, 80
14, 320100, Control_c, 12, 11, 82
14, 320160, Note_on_c, 12, 67, 76
14, 320160, Control_c, 12, 11, 85
14, 320220, Control_c, 12, 11, 88
14, 320280, Control_c, 12, 11, 90
14, 320340, Control_c, 12, 11, 93
14, 320399, Note_on_c, 12, 67, 0
14, 320400, Control_c, 12, 11, 96
14, 320400, Note_on_c, 12, 68, 76
14, 320460, Control_c, 12, 11, 98
14, 320519, Note_on_c, 12, 68, 0
14, 320520, Control_c, 12, 11, 101
14, 320580, Control_c, 12, 11, 103
14, 320640, Note_on_c, 12, 68, 76
14, 320640, Control_c, 12, 11, 106
14, 320700, Control_c, 12, 11, 109
14, 320760, Control_c, 12, 11, 111
14, 320820, Control_c, 12, 11, 114
14, 320879, Note_on_c, 12, 68, 0
14, 320880, Note_on_c, 12, 69, 76
14, 320880, Control_c, 12, 11, 117
14, 320940, Control_c, 12, 11, 119
14, 320999, Note_on_c, 12, 69, 0
14, 321000, Control_c, 12, 11, 122
14, 321060, Control_c, 12, 11, 127
14, 321120, Note_on_c, 12, 75, 76
14, 321359, Note_on_c, 12, 75, 0
14, 321360, Note_on_c, 12, 74, 84
14, 321569, Note_on_c, 12, 74, 0
14, 321600, Note_on_c, 12, 74, 84
14, 321600, Note_on_c, 12, 65, 84
14, 322049, Note_on_c, 12, 74, 0
14, 322049, Note_on_c, 12, 65, 0
14, 322080, Note_on_c, 12, 65, 84
14, 322080, Note_on_c, 12, 74, 84
14, 322529, Note_on_c, 12, 65, 0
14, 322529, Note_on_c, 12, 74, 0
14, 322560, Note_on_c, 12, 65, 84
14, 322560, Note_on_c, 12, 74, 84
14, 322769, Note_on_c, 12, 65, 0
14, 322769, Note_on_c, 12, 74, 0
14, 322800, Note_on_c, 12, 75, 84
14, 322800, Note_on_c, 12, 65, 84
14, 323249, Note_on_c, 12, 75, 0
14, 323249, Note_on_c, 12, 65, 0
14, 323280, Note_on_c, 12, 75, 84
14, 323280, Note_on_c, 12, 65, 84
14, 323489, Note_on_c, 12, 75, 0
14, 323489, Note_on_c, 12, 65, 0
14, 323520, Note_on_c, 12, 75, 84
14, 323520, Note_on_c, 12, 65, 84
14, 323759, Note_on_c, 12, 75, 0
14, 323759, Note_on_c, 12, 65, 0
14, 325440, Note_on_c, 12, 66, 52
14, 325679, Note_on_c, 12, 66, 0
14, 325680, Note_on_c, 12, 63, 52
14, 325919, Note_on_c, 12, 63, 0
14, 325920, Note_on_c, 12, 60, 52
14, 326159, Note_on_c, 12, 60, 0
14, 326160, Note_on_c, 12, 69, 52
14, 326399, Note_on_c, 12, 69, 0
14, 326400, Note_on_c, 12, 66, 52
14, 326639, Note_on_c, 12, 66, 0
14, 326640, Note_on_c, 12, 65, 52
14, 326879, Note_on_c, 12, 65, 0
14, 328320, Note_on_c, 12, 68, 52
14, 328559, Note_on_c, 12, 68, 0
14, 328560, Note_on_c, 12, 65, 52
14, 328799, Note_on_c, 12, 65, 0
14, 328800, Note_on_c, 12, 62, 52
14, 329039, Note_on_c, 12, 62, 0
14, 329040, Note_on_c, 12, 71, 52
14, 329279, Note_on_c, 12, 71, 0
14, 329280, Note_on_c, 12, 68, 52
14, 329519, Note_on_c, 12, 68, 0
14, 329520, Note_on_c, 12, 67, 52
14, 329729, Note_on_c, 12, 67, 0
14, 329760, Note_on_c, 12, 73, 52
14, 329999, Note_on_c, 12, 73, 0
14, 330000, Note_on_c, 12, 70, 52
14, 330239, Note_on_c, 12, 70, 0
14, 330240, Note_on_c, 12, 67, 52
14, 330479, Note_on_c, 12, 67, 0
14, 330480, Note_on_c, 12, 64, 52
14, 330719, Note_on_c, 12, 64, 0
14, 330720, Note_on_c, 12, 61, 52
14, 330959, Note_on_c, 12, 61, 0
14, 330960, Note_on_c, 12, 60, 52
14, 331169, Note_on_c, 12, 60, 0
14, 331198, Control_c, 12, 11, 96
14, 331200, Note_on_c, 12, 64, 68
14, 331439, Note_on_c, 12, 64, 0
14, 331440, Note_on_c, 12, 65, 68
14, 332879, Note_on_c, 12, 65, 0
14, 332880, Control_c, 12, 11, 96
14, 332880, Note_on_c, 12, 65, 68
14, 332933, Control_c, 12, 11, 98
14, 332987, Control_c, 12, 11, 99
14, 333040, Control_c, 12, 11, 101
14, 333093, Control_c, 12, 11, 103
14, 333147, Control_c, 12, 11, 105
14, 333200, Control_c, 12, 11, 106
14, 333253, Control_c, 12, 11, 108
14, 333307, Control_c, 12, 11, 110
14, 333360, Control_c, 12, 11, 112
14, 333413, Control_c, 12, 11, 113
14, 333467, Control_c, 12, 11, 115
14, 333520, Control_c, 12, 11, 117
14, 333573, Control_c, 12, 11, 118
14, 333627, Control_c, 12, 11, 120
14, 333680, Control_c, 12, 11, 122
14, 333733, Control_c, 12, 11, 124
14, 333787, Control_c, 12, 11, 127
14, 334049, Note_on_c, 12, 65, 0
14, 334080, Note_on_c, 12, 63, 76
14, 334080, Note_on_c, 12, 60, 76
14, 334318, Control_c, 12, 11, 96
14, 334319, Note_on_c, 12, 63, 0
14, 334319, Note_on_c, 12, 60, 0
14, 334320, Note_on_c, 12, 65, 68
14, 335759, Note_on_c, 12, 65, 0
14, 335760, Control_c, 12, 11, 96
14, 335760, Note_on_c, 12, 65, 68
14, 335813, Control_c, 12, 11, 98
14, 335867, Control_c, 12, 11, 99
14, 335920, Control_c, 12, 11, 101
14, 335973, Control_c, 12, 11, 103
14, 336027, Control_c, 12, 11, 105
14, 336080, Control_c, 12, 11, 106
14, 336133, Control_c, 12, 11, 108
14, 336187, Control_c, 12, 11, 110
14, 336240, Control_c, 12, 11, 112
14, 336293, Control_c, 12, 11, 113
14, 336347, Control_c, 12, 11, 115
14, 336400, Control_c, 12, 11, 117
14, 336453, Control_c, 12, 11, 118
14, 336507, Control_c, 12, 11, 120
14, 336560, Control_c, 12, 11, 122
14, 336613, Control_c, 12, 11, 124
14, 336667, Control_c, 12, 11, 127
14, 336929, Note_on_c, 12, 65, 0
14, 336960, Note_on_c, 12, 60, 76
14, 336960, Note_on_c, 12, 63, 76
14, 337199, Note_on_c, 12, 60, 0
14, 337199, Note_on_c, 12, 63, 0
14, 337200, Note_on_c, 12, 63, 68
14, 337200, Note_on_c, 12, 60, 68
14, 337409, Note_on_c, 12, 63, 0
14, 337409, Note_on_c, 12, 60, 0
14, 337440, Note_on_c, 12, 75, 76
14, 337889, Note_on_c, 12, 75, 0
14, 337920, Note_on_c, 12, 74, 76
14, 338369, Note_on_c, 12, 74, 0
14, 338400, Note_on_c, 12, 67, 76
14, 338400, Note_on_c, 12, 70, 76
14, 338579, Note_on_c, 12, 67, 0
14, 338579, Note_on_c, 12, 70, 0
14, 338640, Note_on_c, 12, 65, 84
14, 338640, Note_on_c, 12, 70, 84
14, 339329, Note_on_c, 12, 65, 0
14, 339329, Note_on_c, 12, 70, 0
14, 339360, Note_on_c, 12, 65, 84
14, 339360, Note_on_c, 12, 69, 84
14, 340049, Note_on_c, 12, 65, 0
14, 340049, Note_on_c, 12, 69, 0
14, 340080, Note_on_c, 12, 70, 84
14, 340184, Note_on_c, 12, 70, 0
14, 340200, Note_on_c, 12, 70, 84
14, 340304, Note_on_c, 12, 70, 0
14, 340320, Note_on_c, 12, 70, 84
14, 340424, Note_on_c, 12, 70, 0
14, 340440, Note_on_c, 12, 70, 84
14, 340544, Note_on_c, 12, 70, 0
14, 340560, Note_on_c, 12, 70, 84
14, 340664, Note_on_c, 12, 70, 0
14, 340680, Note_on_c, 12, 70, 84
14, 340784, Note_on_c, 12, 70, 0
14, 340800, Note_on_c, 12, 70, 84
14, 340904, Note_on_c, 12, 70, 0
14, 340920, Note_on_c, 12, 70, 84
14, 341024, Note_on_c, 12, 70, 0
14, 341040, Note_on_c, 12, 70, 84
14, 341144, Note_on_c, 12, 70, 0
14, 341160, Note_on_c, 12, 70, 84
14, 341264, Note_on_c, 12, 70, 0
14, 341280, Note_on_c, 12, 70, 84
14, 341384, Note_on_c, 12, 70, 0
14, 341400, Note_on_c, 12, 70, 84
14, 341504, Note_on_c, 12, 70, 0
14, 341520, Note_on_c, 12, 69, 84
14, 341624, Note_on_c, 12, 69, 0
14, 341640, Note_on_c, 12, 69, 84
14, 341744, Note_on_c, 12, 69, 0
14, 341760, Note_on_c, 12, 69, 84
14, 341864, Note_on_c, 12, 69, 0
14, 341880, Note_on_c, 12, 69, 84
14, 341984, Note_on_c, 12, 69, 0
14, 342000, Note_on_c, 12, 69, 84
14, 342104, Note_on_c, 12, 69, 0
14, 342120, Note_on_c, 12, 69, 84
14, 342224, Note_on_c, 12, 69, 0
14, 342240, Note_on_c, 12, 69, 84
14, 342344, Note_on_c, 12, 69, 0
14, 342360, Note_on_c, 12, 69, 84
14, 342464, Note_on_c, 12, 69, 0
14, 342480, Note_on_c, 12, 69, 84
14, 342584, Note_on_c, 12, 69, 0
14, 342600, Note_on_c, 12, 69, 84
14, 342704, Note_on_c, 12, 69, 0
14, 342720, Note_on_c, 12, 69, 84
14, 342824, Note_on_c, 12, 69, 0
14, 342840, Note_on_c, 12, 69, 84
14, 342944, Note_on_c, 12, 69, 0
14, 342960, Note_on_c, 12, 70, 84
14, 343064, Note_on_c, 12, 70, 0
14, 343080, Note_on_c, 12, 70, 84
14, 343184, Note_on_c, 12, 70, 0
14, 343200, Note_on_c, 12, 70, 84
14, 343304, Note_on_c, 12, 70, 0
14, 343320, Note_on_c, 12, 70, 84
14, 343424, Note_on_c, 12, 70, 0
14, 343440, Note_on_c, 12, 70, 84
14, 343544, Note_on_c, 12, 70, 0
14, 343560, Note_on_c, 12, 70, 84
14, 343664, Note_on_c, 12, 70, 0
14, 343680, Note_on_c, 12, 70, 84
14, 343784, Note_on_c, 12, 70, 0
14, 343800, Note_on_c, 12, 70, 84
14, 343904, Note_on_c, 12, 70, 0
14, 343920, Note_on_c, 12, 70, 84
14, 344024, Note_on_c, 12, 70, 0
14, 344040, Note_on_c, 12, 70, 84
14, 344144, Note_on_c, 12, 70, 0
14, 344160, Note_on_c, 12, 70, 84
14, 344264, Note_on_c, 12, 70, 0
14, 344280, Note_on_c, 12, 70, 84
14, 344384, Note_on_c, 12, 70, 0
14, 344400, Note_on_c, 12, 69, 84
14, 344504, Note_on_c, 12, 69, 0
14, 344520, Note_on_c, 12, 69, 84
14, 344624, Note_on_c, 12, 69, 0
14, 344640, Note_on_c, 12, 69, 84
14, 344744, Note_on_c, 12, 69, 0
14, 344760, Note_on_c, 12, 69, 84
14, 344864, Note_on_c, 12, 69, 0
14, 344880, Note_on_c, 12, 69, 84
14, 344984, Note_on_c, 12, 69, 0
14, 345000, Note_on_c, 12, 69, 84
14, 345104, Note_on_c, 12, 69, 0
14, 345120, Note_on_c, 12, 69, 84
14, 345224, Note_on_c, 12, 69, 0
14, 345240, Note_on_c, 12, 69, 84
14, 345344, Note_on_c, 12, 69, 0
14, 345360, Note_on_c, 12, 69, 84
14, 345464, Note_on_c, 12, 69, 0
14, 345480, Note_on_c, 12, 69, 84
14, 345584, Note_on_c, 12, 69, 0
14, 345600, Note_on_c, 12, 69, 84
14, 345704, Note_on_c, 12, 69, 0
14, 345720, Note_on_c, 12, 69, 84
14, 345824, Note_on_c, 12, 69, 0
14, 345840, Note_on_c, 12, 70, 76
14, 345840, Note_on_c, 12, 62, 76
14, 346529, Note_on_c, 12, 70, 0
14, 346529, Note_on_c, 12, 62, 0
14, 346560, Note_on_c, 12, 74, 76
14, 346560, Note_on_c, 12, 62, 76
14, 347249, Note_on_c, 12, 74, 0
14, 347249, Note_on_c, 12, 62, 0
14, 347280, Note_on_c, 12, 77, 76
14, 347280, Note_on_c, 12, 62, 76
14, 347489, Note_on_c, 12, 77, 0
14, 347489, Note_on_c, 12, 62, 0
14, 347520, Note_on_c, 12, 77, 76
14, 347520, Note_on_c, 12, 62, 76
14, 347729, Note_on_c, 12, 77, 0
14, 347729, Note_on_c, 12, 62, 0
14, 347760, Note_on_c, 12, 77, 76
14, 347760, Note_on_c, 12, 62, 76
14, 347969, Note_on_c, 12, 77, 0
14, 347969, Note_on_c, 12, 62, 0
14, 348000, Note_on_c, 12, 70, 76
14, 348000, Note_on_c, 12, 62, 76
14, 348239, Note_on_c, 12, 70, 0
14, 348239, Note_on_c, 12, 62, 0
14, 350160, Note_on_c, 12, 70, 84
14, 350160, Note_on_c, 12, 62, 84
14, 350399, Note_on_c, 12, 70, 0
14, 350399, Note_on_c, 12, 62, 0
14, 350399, End_track
15, 0, Start_track
15, 0, Title_t, "Viola "
15, 0, MIDI_port, 0
15, 0, Program_c, 13, 48
15, 0, Control_c, 13, 11, 127
15, 0, Control_c, 13, 10, 70
15, 0, Control_c, 13, 7, 96
15, 0, Note_on_c, 13, 53, 84
15, 209, Note_on_c, 13, 53, 0
15, 240, Note_on_c, 13, 58, 84
15, 329, Note_on_c, 13, 58, 0
15, 480, Note_on_c, 13, 53, 84
15, 929, Note_on_c, 13, 53, 0
15, 960, Note_on_c, 13, 53, 84
15, 1409, Note_on_c, 13, 53, 0
15, 1440, Note_on_c, 13, 53, 84
15, 1649, Note_on_c, 13, 53, 0
15, 1680, Note_on_c, 13, 53, 84
15, 2129, Note_on_c, 13, 53, 0
15, 2160, Note_on_c, 13, 53, 84
15, 2369, Note_on_c, 13, 53, 0
15, 2400, Note_on_c, 13, 53, 84
15, 2639, Note_on_c, 13, 53, 0
15, 4320, Note_on_c, 13, 66, 52
15, 4559, Note_on_c, 13, 66, 0
15, 4560, Note_on_c, 13, 63, 52
15, 4799, Note_on_c, 13, 63, 0
15, 4800, Note_on_c, 13, 60, 52
15, 5039, Note_on_c, 13, 60, 0
15, 5040, Note_on_c, 13, 57, 52
15, 5279, Note_on_c, 13, 57, 0
15, 5280, Note_on_c, 13, 54, 52
15, 5519, Note_on_c, 13, 54, 0
15, 5520, Note_on_c, 13, 53, 52
15, 5759, Note_on_c, 13, 53, 0
15, 5760, Note_on_c, 13, 51, 52
15, 5999, Note_on_c, 13, 51, 0
15, 6000, Note_on_c, 13, 49, 52
15, 6239, Note_on_c, 13, 49, 0
15, 7200, Note_on_c, 13, 61, 52
15, 7439, Note_on_c, 13, 61, 0
15, 7440, Note_on_c, 13, 58, 52
15, 7679, Note_on_c, 13, 58, 0
15, 7680, Note_on_c, 13, 55, 52
15, 7919, Note_on_c, 13, 55, 0
15, 7920, Note_on_c, 13, 52, 52
15, 8159, Note_on_c, 13, 52, 0
15, 8160, Note_on_c, 13, 49, 52
15, 8399, Note_on_c, 13, 49, 0
15, 8400, Note_on_c, 13, 48, 52
15, 8639, Note_on_c, 13, 48, 0
15, 8640, Note_on_c, 13, 55, 52
15, 8879, Note_on_c, 13, 55, 0
15, 8880, Note_on_c, 13, 53, 52
15, 8999, Note_on_c, 13, 53, 0
15, 9118, Control_c, 13, 11, 80
15, 9120, Control_c, 13, 11, 80
15, 9120, Note_on_c, 13, 55, 76
15, 9120, Note_on_c, 13, 48, 76
15, 9220, Control_c, 13, 11, 82
15, 9320, Control_c, 13, 11, 84
15, 9420, Control_c, 13, 11, 86
15, 9520, Control_c, 13, 11, 88
15, 9569, Note_on_c, 13, 55, 0
15, 9569, Note_on_c, 13, 48, 0
15, 9600, Note_on_c, 13, 57, 76
15, 9600, Note_on_c, 13, 53, 76
15, 9620, Control_c, 13, 11, 90
15, 9720, Control_c, 13, 11, 92
15, 9820, Control_c, 13, 11, 94
15, 9920, Control_c, 13, 11, 96
15, 10020, Control_c, 13, 11, 98
15, 10049, Note_on_c, 13, 57, 0
15, 10049, Note_on_c, 13, 53, 0
15, 10080, Note_on_c, 13, 58, 84
15, 10080, Note_on_c, 13, 53, 84
15, 10120, Control_c, 13, 11, 100
15, 10220, Control_c, 13, 11, 102
15, 10319, Note_on_c, 13, 58, 0
15, 10319, Note_on_c, 13, 53, 0
15, 10320, Note_on_c, 13, 53, 76
15, 10320, Note_on_c, 13, 58, 76
15, 10320, Control_c, 13, 11, 104
15, 10420, Control_c, 13, 11, 105
15, 10520, Control_c, 13, 11, 107
15, 10529, Note_on_c, 13, 53, 0
15, 10529, Note_on_c, 13, 58, 0
15, 10560, Note_on_c, 13, 53, 76
15, 10560, Note_on_c, 13, 60, 76
15, 10620, Control_c, 13, 11, 109
15, 10720, Control_c, 13, 11, 111
15, 10820, Control_c, 13, 11, 113
15, 10920, Control_c, 13, 11, 115
15, 11009, Note_on_c, 13, 53, 0
15, 11009, Note_on_c, 13, 60, 0
15, 11020, Control_c, 13, 11, 117
15, 11040, Note_on_c, 13, 53, 76
15, 11120, Control_c, 13, 11, 119
15, 11220, Control_c, 13, 11, 121
15, 11279, Note_on_c, 13, 53, 0
15, 11280, Note_on_c, 13, 58, 76
15, 11320, Control_c, 13, 11, 123
15, 11399, Note_on_c, 13, 58, 0
15, 11420, Control_c, 13, 11, 125
15, 11520, Note_on_c, 13, 60, 76
15, 11520, Control_c, 13, 11, 127
15, 11699, Note_on_c, 13, 60, 0
15, 11760, Note_on_c, 13, 53, 84
15, 11760, Note_on_c, 13, 60, 84
15, 12449, Note_on_c, 13, 53, 0
15, 12449, Note_on_c, 13, 60, 0
15, 12480, Note_on_c, 13, 53, 84
15, 12480, Note_on_c, 13, 60, 84
15, 13169, Note_on_c, 13, 53, 0
15, 13169, Note_on_c, 13, 60, 0
15, 13200, Note_on_c, 13, 53, 84
15, 13200, Note_on_c, 13, 60, 84
15, 13409, Note_on_c, 13, 53, 0
15, 13409, Note_on_c, 13, 60, 0
15, 13440, Note_on_c, 13, 53, 84
15, 13440, Note_on_c, 13, 60, 84
15, 13649, Note_on_c, 13, 53, 0
15, 13649, Note_on_c, 13, 60, 0
15, 13680, Note_on_c, 13, 53, 84
15, 13680, Note_on_c, 13, 60, 84
15, 13889, Note_on_c, 13, 53, 0
15, 13889, Note_on_c, 13, 60, 0
15, 13920, Note_on_c, 13, 60, 84
15, 13920, Note_on_c, 13, 53, 84
15, 14159, Note_on_c, 13, 60, 0
15, 14159, Note_on_c, 13, 53, 0
15, 14400, Note_on_c, 13, 53, 84
15, 14609, Note_on_c, 13, 53, 0
15, 14640, Note_on_c, 13, 58, 84
15, 14729, Note_on_c, 13, 58, 0
15, 14880, Note_on_c, 13, 53, 84
15, 15329, Note_on_c, 13, 53, 0
15, 15360, Note_on_c, 13, 53, 84
15, 15809, Note_on_c, 13, 53, 0
15, 15840, Note_on_c, 13, 53, 84
15, 16049, Note_on_c, 13, 53, 0
15, 16080, Note_on_c, 13, 53, 84
15, 16529, Note_on_c, 13, 53, 0
15, 16560, Note_on_c, 13, 53, 84
15, 16769, Note_on_c, 13, 53, 0
15, 16800, Note_on_c, 13, 53, 84
15, 17039, Note_on_c, 13, 53, 0
15, 18720, Note_on_c, 13, 66, 52
15, 18959, Note_on_c, 13, 66, 0
15, 18960, Note_on_c, 13, 63, 52
15, 19199, Note_on_c, 13, 63, 0
15, 19200, Note_on_c, 13, 60, 52
15, 19439, Note_on_c, 13, 60, 0
15, 19440, Note_on_c, 13, 57, 52
15, 19679, Note_on_c, 13, 57, 0
15, 19680, Note_on_c, 13, 54, 52
15, 19919, Note_on_c, 13, 54, 0
15, 19920, Note_on_c, 13, 53, 52
15, 20159, Note_on_c, 13, 53, 0
15, 20160, Note_on_c, 13, 51, 52
15, 20399, Note_on_c, 13, 51, 0
15, 20400, Note_on_c, 13, 49, 52
15, 20639, Note_on_c, 13, 49, 0
15, 21600, Note_on_c, 13, 61, 52
15, 21839, Note_on_c, 13, 61, 0
15, 21840, Note_on_c, 13, 58, 52
15, 22079, Note_on_c, 13, 58, 0
15, 22080, Note_on_c, 13, 55, 52
15, 22319, Note_on_c, 13, 55, 0
15, 22320, Note_on_c, 13, 52, 52
15, 22559, Note_on_c, 13, 52, 0
15, 22560, Note_on_c, 13, 49, 52
15, 22799, Note_on_c, 13, 49, 0
15, 22800, Note_on_c, 13, 48, 52
15, 23039, Note_on_c, 13, 48, 0
15, 23040, Note_on_c, 13, 55, 52
15, 23279, Note_on_c, 13, 55, 0
15, 23280, Note_on_c, 13, 53, 52
15, 23399, Note_on_c, 13, 53, 0
15, 23518, Control_c, 13, 11, 80
15, 23520, Note_on_c, 13, 48, 76
15, 23520, Note_on_c, 13, 55, 76
15, 23520, Control_c, 13, 11, 80
15, 23620, Control_c, 13, 11, 82
15, 23720, Control_c, 13, 11, 84
15, 23820, Control_c, 13, 11, 86
15, 23920, Control_c, 13, 11, 88
15, 23969, Note_on_c, 13, 48, 0
15, 23969, Note_on_c, 13, 55, 0
15, 24000, Note_on_c, 13, 57, 76
15, 24000, Note_on_c, 13, 53, 76
15, 24020, Control_c, 13, 11, 90
15, 24120, Control_c, 13, 11, 92
15, 24220, Control_c, 13, 11, 94
15, 24320, Control_c, 13, 11, 96
15, 24420, Control_c, 13, 11, 98
15, 24449, Note_on_c, 13, 57, 0
15, 24449, Note_on_c, 13, 53, 0
15, 24480, Note_on_c, 13, 53, 84
15, 24480, Note_on_c, 13, 58, 84
15, 24520, Control_c, 13, 11, 100
15, 24620, Control_c, 13, 11, 102
15, 24719, Note_on_c, 13, 53, 0
15, 24719, Note_on_c, 13, 58, 0
15, 24720, Note_on_c, 13, 58, 76
15, 24720, Note_on_c, 13, 53, 76
15, 24720, Control_c, 13, 11, 104
15, 24820, Control_c, 13, 11, 105
15, 24920, Control_c, 13, 11, 107
15, 24929, Note_on_c, 13, 58, 0
15, 24929, Note_on_c, 13, 53, 0
15, 24960, Note_on_c, 13, 60, 76
15, 24960, Note_on_c, 13, 53, 76
15, 25020, Control_c, 13, 11, 109
15, 25120, Control_c, 13, 11, 111
15, 25220, Control_c, 13, 11, 113
15, 25320, Control_c, 13, 11, 115
15, 25409, Note_on_c, 13, 60, 0
15, 25409, Note_on_c, 13, 53, 0
15, 25420, Control_c, 13, 11, 117
15, 25440, Note_on_c, 13, 53, 76
15, 25520, Control_c, 13, 11, 119
15, 25620, Control_c, 13, 11, 121
15, 25679, Note_on_c, 13, 53, 0
15, 25680, Note_on_c, 13, 58, 76
15, 25720, Control_c, 13, 11, 123
15, 25799, Note_on_c, 13, 58, 0
15, 25820, Control_c, 13, 11, 125
15, 25920, Control_c, 13, 11, 127
15, 25920, Note_on_c, 13, 60, 76
15, 26099, Note_on_c, 13, 60, 0
15, 26160, Note_on_c, 13, 53, 84
15, 26160, Note_on_c, 13, 60, 84
15, 26849, Note_on_c, 13, 53, 0
15, 26849, Note_on_c, 13, 60, 0
15, 26880, Note_on_c, 13, 60, 84
15, 26880, Note_on_c, 13, 53, 84
15, 27569, Note_on_c, 13, 60, 0
15, 27569, Note_on_c, 13, 53, 0
15, 27600, Note_on_c, 13, 53, 84
15, 27600, Note_on_c, 13, 60, 84
15, 27809, Note_on_c, 13, 53, 0
15, 27809, Note_on_c, 13, 60, 0
15, 27840, Note_on_c, 13, 53, 84
15, 27840, Note_on_c, 13, 60, 84
15, 28049, Note_on_c, 13, 53, 0
15, 28049, Note_on_c, 13, 60, 0
15, 28080, Note_on_c, 13, 53, 84
15, 28080, Note_on_c, 13, 60, 84
15, 28289, Note_on_c, 13, 53, 0
15, 28289, Note_on_c, 13, 60, 0
15, 28320, Note_on_c, 13, 53, 84
15, 28320, Note_on_c, 13, 60, 84
15, 28559, Note_on_c, 13, 53, 0
15, 28559, Note_on_c, 13, 60, 0
15, 29040, Note_on_c, 13, 61, 52
15, 29249, Note_on_c, 13, 61, 0
15, 29280, Note_on_c, 13, 61, 52
15, 29729, Note_on_c, 13, 61, 0
15, 29760, Note_on_c, 13, 61, 52
15, 30209, Note_on_c, 13, 61, 0
15, 30240, Note_on_c, 13, 61, 52
15, 30449, Note_on_c, 13, 61, 0
15, 30480, Note_on_c, 13, 63, 52
15, 30929, Note_on_c, 13, 63, 0
15, 30960, Note_on_c, 13, 63, 52
15, 31169, Note_on_c, 13, 63, 0
15, 31200, Note_on_c, 13, 63, 52
15, 31439, Note_on_c, 13, 63, 0
15, 32400, Note_on_c, 13, 56, 52
15, 32639, Note_on_c, 13, 56, 0
15, 32640, Note_on_c, 13, 54, 52
15, 32759, Note_on_c, 13, 54, 0
15, 32880, Note_on_c, 13, 51, 52
15, 33119, Note_on_c, 13, 51, 0
15, 33120, Note_on_c, 13, 48, 52
15, 33329, Note_on_c, 13, 48, 0
15, 33360, Note_on_c, 13, 65, 52
15, 33809, Note_on_c, 13, 65, 0
15, 33840, Note_on_c, 13, 65, 52
15, 34049, Note_on_c, 13, 65, 0
15, 34080, Note_on_c, 13, 65, 52
15, 34319, Note_on_c, 13, 65, 0
15, 35280, Note_on_c, 13, 58, 52
15, 35519, Note_on_c, 13, 58, 0
15, 35520, Note_on_c, 13, 56, 52
15, 35639, Note_on_c, 13, 56, 0
15, 35760, Note_on_c, 13, 53, 52
15, 35999, Note_on_c, 13, 53, 0
15, 36000, Note_on_c, 13, 49, 52
15, 36209, Note_on_c, 13, 49, 0
15, 36240, Note_on_c, 13, 50, 52
15, 36449, Note_on_c, 13, 50, 0
15, 36480, Note_on_c, 13, 65, 52
15, 36689, Note_on_c, 13, 65, 0
15, 36720, Note_on_c, 13, 65, 52
15, 36929, Note_on_c, 13, 65, 0
15, 36960, Note_on_c, 13, 65, 52
15, 37199, Note_on_c, 13, 65, 0
15, 38160, Note_on_c, 13, 58, 52
15, 38399, Note_on_c, 13, 58, 0
15, 38400, Note_on_c, 13, 56, 52
15, 38519, Note_on_c, 13, 56, 0
15, 38640, Note_on_c, 13, 53, 52
15, 38879, Note_on_c, 13, 53, 0
15, 38880, Note_on_c, 13, 50, 52
15, 39089, Note_on_c, 13, 50, 0
15, 39120, Note_on_c, 13, 51, 52
15, 39359, Note_on_c, 13, 51, 0
15, 40800, Note_on_c, 13, 69, 52
15, 41039, Note_on_c, 13, 69, 0
15, 41040, Note_on_c, 13, 72, 52
15, 41159, Note_on_c, 13, 72, 0
15, 41280, Note_on_c, 13, 69, 52
15, 41519, Note_on_c, 13, 69, 0
15, 41520, Note_on_c, 13, 72, 52
15, 41639, Note_on_c, 13, 72, 0
15, 41760, Note_on_c, 13, 69, 52
15, 41999, Note_on_c, 13, 69, 0
15, 42000, Note_on_c, 13, 70, 52
15, 42239, Note_on_c, 13, 70, 0
15, 43680, Note_on_c, 13, 64, 52
15, 43919, Note_on_c, 13, 64, 0
15, 43920, Note_on_c, 13, 67, 52
15, 44039, Note_on_c, 13, 67, 0
15, 44160, Note_on_c, 13, 64, 52
15, 44399, Note_on_c, 13, 64, 0
15, 44400, Note_on_c, 13, 67, 52
15, 44519, Note_on_c, 13, 67, 0
15, 44640, Note_on_c, 13, 64, 52
15, 44879, Note_on_c, 13, 64, 0
15, 44880, Note_on_c, 13, 65, 52
15, 45119, Note_on_c, 13, 65, 0
15, 45840, Note_on_c, 13, 59, 52
15, 46079, Note_on_c, 13, 59, 0
15, 46080, Note_on_c, 13, 55, 52
15, 46199, Note_on_c, 13, 55, 0
15, 46320, Note_on_c, 13, 60, 52
15, 46559, Note_on_c, 13, 60, 0
15, 47280, Note_on_c, 13, 66, 52
15, 47519, Note_on_c, 13, 66, 0
15, 47520, Note_on_c, 13, 62, 52
15, 47639, Note_on_c, 13, 62, 0
15, 47760, Note_on_c, 13, 67, 52
15, 47999, Note_on_c, 13, 67, 0
15, 48720, Note_on_c, 13, 61, 52
15, 48959, Note_on_c, 13, 61, 0
15, 48960, Note_on_c, 13, 57, 52
15, 49079, Note_on_c, 13, 57, 0
15, 49198, Control_c, 13, 11, 80
15, 49200, Control_c, 13, 11, 80
15, 49200, Note_on_c, 13, 62, 76
15, 49310, Control_c, 13, 11, 82
15, 49420, Control_c, 13, 11, 84
15, 49439, Note_on_c, 13, 62, 0
15, 49440, Note_on_c, 13, 57, 76
15, 49530, Control_c, 13, 11, 86
15, 49640, Control_c, 13, 11, 88
15, 49679, Note_on_c, 13, 57, 0
15, 49680, Note_on_c, 13, 62, 76
15, 49750, Control_c, 13, 11, 90
15, 49799, Note_on_c, 13, 62, 0
15, 49860, Control_c, 13, 11, 92
15, 49920, Note_on_c, 13, 57, 76
15, 49970, Control_c, 13, 11, 94
15, 50080, Control_c, 13, 11, 96
15, 50159, Note_on_c, 13, 57, 0
15, 50160, Note_on_c, 13, 60, 76
15, 50190, Control_c, 13, 11, 98
15, 50279, Note_on_c, 13, 60, 0
15, 50300, Control_c, 13, 11, 100
15, 50400, Note_on_c, 13, 60, 76
15, 50410, Control_c, 13, 11, 102
15, 50520, Control_c, 13, 11, 104
15, 50630, Control_c, 13, 11, 105
15, 50639, Note_on_c, 13, 60, 0
15, 50640, Note_on_c, 13, 63, 76
15, 50740, Control_c, 13, 11, 107
15, 50759, Note_on_c, 13, 63, 0
15, 50850, Control_c, 13, 11, 109
15, 50880, Note_on_c, 13, 63, 76
15, 50960, Control_c, 13, 11, 111
15, 51070, Control_c, 13, 11, 113
15, 51119, Note_on_c, 13, 63, 0
15, 51120, Note_on_c, 13, 69, 76
15, 51180, Control_c, 13, 11, 115
15, 51239, Note_on_c, 13, 69, 0
15, 51290, Control_c, 13, 11, 117
15, 51360, Note_on_c, 13, 69, 76
15, 51400, Control_c, 13, 11, 119
15, 51510, Control_c, 13, 11, 121
15, 51599, Note_on_c, 13, 69, 0
15, 51600, Note_on_c, 13, 72, 76
15, 51620, Control_c, 13, 11, 123
15, 51719, Note_on_c, 13, 72, 0
15, 51730, Control_c, 13, 11, 127
15, 51840, Note_on_c, 13, 60, 76
15, 52079, Note_on_c, 13, 60, 0
15, 52080, Note_on_c, 13, 58, 84
15, 52289, Note_on_c, 13, 58, 0
15, 52320, Note_on_c, 13, 58, 84
15, 52320, Note_on_c, 13, 62, 84
15, 52769, Note_on_c, 13, 58, 0
15, 52769, Note_on_c, 13, 62, 0
15, 52800, Note_on_c, 13, 62, 84
15, 52800, Note_on_c, 13, 58, 84
15, 53249, Note_on_c, 13, 62, 0
15, 53249, Note_on_c, 13, 58, 0
15, 53280, Note_on_c, 13, 62, 84
15, 53280, Note_on_c, 13, 58, 84
15, 53489, Note_on_c, 13, 62, 0
15, 53489, Note_on_c, 13, 58, 0
15, 53520, Note_on_c, 13, 63, 84
15, 53520, Note_on_c, 13, 60, 84
15, 53969, Note_on_c, 13, 63, 0
15, 53969, Note_on_c, 13, 60, 0
15, 54000, Note_on_c, 13, 60, 84
15, 54000, Note_on_c, 13, 63, 84
15, 54209, Note_on_c, 13, 60, 0
15, 54209, Note_on_c, 13, 63, 0
15, 54240, Note_on_c, 13, 60, 84
15, 54240, Note_on_c, 13, 63, 84
15, 54479, Note_on_c, 13, 60, 0
15, 54479, Note_on_c, 13, 63, 0
15, 56160, Note_on_c, 13, 66, 52
15, 56399, Note_on_c, 13, 66, 0
15, 56400, Note_on_c, 13, 63, 52
15, 56639, Note_on_c, 13, 63, 0
15, 56640, Note_on_c, 13, 60, 52
15, 56879, Note_on_c, 13, 60, 0
15, 56880, Note_on_c, 13, 57, 52
15, 57119, Note_on_c, 13, 57, 0
15, 57120, Note_on_c, 13, 54, 52
15, 57359, Note_on_c, 13, 54, 0
15, 57360, Note_on_c, 13, 53, 52
15, 57599, Note_on_c, 13, 53, 0
15, 59040, Note_on_c, 13, 68, 52
15, 59279, Note_on_c, 13, 68, 0
15, 59280, Note_on_c, 13, 65, 52
15, 59519, Note_on_c, 13, 65, 0
15, 59520, Note_on_c, 13, 62, 52
15, 59759, Note_on_c, 13, 62, 0
15, 59760, Note_on_c, 13, 59, 52
15, 59999, Note_on_c, 13, 59, 0
15, 60000, Note_on_c, 13, 56, 52
15, 60239, Note_on_c, 13, 56, 0
15, 60240, Note_on_c, 13, 55, 52
15, 60449, Note_on_c, 13, 55, 0
15, 60480, Note_on_c, 13, 61, 52
15, 60719, Note_on_c, 13, 61, 0
15, 60720, Note_on_c, 13, 58, 52
15, 60959, Note_on_c, 13, 58, 0
15, 60960, Note_on_c, 13, 55, 52
15, 61199, Note_on_c, 13, 55, 0
15, 61200, Note_on_c, 13, 52, 52
15, 61439, Note_on_c, 13, 52, 0
15, 61440, Note_on_c, 13, 49, 52
15, 61679, Note_on_c, 13, 49, 0
15, 61680, Note_on_c, 13, 48, 52
15, 61889, Note_on_c, 13, 48, 0
15, 61918, Control_c, 13, 11, 96
15, 61920, Note_on_c, 13, 52, 68
15, 62159, Note_on_c, 13, 52, 0
15, 62160, Note_on_c, 13, 53, 68
15, 63599, Note_on_c, 13, 53, 0
15, 63600, Note_on_c, 13, 53, 68
15, 63600, Control_c, 13, 11, 96
15, 63680, Control_c, 13, 11, 99
15, 63760, Control_c, 13, 11, 101
15, 63840, Control_c, 13, 11, 104
15, 63920, Control_c, 13, 11, 106
15, 64000, Control_c, 13, 11, 109
15, 64080, Control_c, 13, 11, 112
15, 64160, Control_c, 13, 11, 114
15, 64240, Control_c, 13, 11, 117
15, 64320, Control_c, 13, 11, 119
15, 64400, Control_c, 13, 11, 122
15, 64480, Control_c, 13, 11, 127
15, 64769, Note_on_c, 13, 53, 0
15, 64800, Note_on_c, 13, 54, 76
15, 65038, Control_c, 13, 11, 96
15, 65039, Note_on_c, 13, 54, 0
15, 65040, Note_on_c, 13, 53, 68
15, 66479, Note_on_c, 13, 53, 0
15, 66480, Note_on_c, 13, 53, 68
15, 66480, Control_c, 13, 11, 96
15, 66560, Control_c, 13, 11, 99
15, 66640, Control_c, 13, 11, 101
15, 66720, Control_c, 13, 11, 104
15, 66800, Control_c, 13, 11, 106
15, 66880, Control_c, 13, 11, 109
15, 66960, Control_c, 13, 11, 112
15, 67040, Control_c, 13, 11, 114
15, 67120, Control_c, 13, 11, 117
15, 67200, Control_c, 13, 11, 119
15, 67280, Control_c, 13, 11, 122
15, 67360, Control_c, 13, 11, 127
15, 67649, Note_on_c, 13, 53, 0
15, 67680, Note_on_c, 13, 54, 76
15, 67919, Note_on_c, 13, 54, 0
15, 67920, Note_on_c, 13, 53, 68
15, 68129, Note_on_c, 13, 53, 0
15, 68160, Note_on_c, 13, 65, 76
15, 68609, Note_on_c, 13, 65, 0
15, 68640, Note_on_c, 13, 67, 76
15, 69089, Note_on_c, 13, 67, 0
15, 69120, Note_on_c, 13, 63, 76
15, 69329, Note_on_c, 13, 63, 0
15, 69360, Note_on_c, 13, 62, 84
15, 70049, Note_on_c, 13, 62, 0
15, 70080, Note_on_c, 13, 60, 84
15, 70080, Note_on_c, 13, 63, 84
15, 70769, Note_on_c, 13, 60, 0
15, 70769, Note_on_c, 13, 63, 0
15, 70800, Note_on_c, 13, 62, 84
15, 70800, Note_on_c, 13, 58, 84
15, 70904, Note_on_c, 13, 62, 0
15, 70904, Note_on_c, 13, 58, 0
15, 70920, Note_on_c, 13, 58, 84
15, 70920, Note_on_c, 13, 62, 84
15, 71024, Note_on_c, 13, 58, 0
15, 71024, Note_on_c, 13, 62, 0
15, 71040, Note_on_c, 13, 62, 84
15, 71040, Note_on_c, 13, 58, 84
15, 71144, Note_on_c, 13, 62, 0
15, 71144, Note_on_c, 13, 58, 0
15, 71160, Note_on_c, 13, 62, 84
15, 71160, Note_on_c, 13, 58, 84
15, 71264, Note_on_c, 13, 62, 0
15, 71264, Note_on_c, 13, 58, 0
15, 71280, Note_on_c, 13, 62, 84
15, 71280, Note_on_c, 13, 58, 84
15, 71384, Note_on_c, 13, 62, 0
15, 71384, Note_on_c, 13, 58, 0
15, 71400, Note_on_c, 13, 62, 84
15, 71400, Note_on_c, 13, 58, 84
15, 71504, Note_on_c, 13, 62, 0
15, 71504, Note_on_c, 13, 58, 0
15, 71520, Note_on_c, 13, 62, 84
15, 71520, Note_on_c, 13, 58, 84
15, 71624, Note_on_c, 13, 62, 0
15, 71624, Note_on_c, 13, 58, 0
15, 71640, Note_on_c, 13, 62, 84
15, 71640, Note_on_c, 13, 58, 84
15, 71744, Note_on_c, 13, 62, 0
15, 71744, Note_on_c, 13, 58, 0
15, 71760, Note_on_c, 13, 58, 84
15, 71760, Note_on_c, 13, 62, 84
15, 71864, Note_on_c, 13, 58, 0
15, 71864, Note_on_c, 13, 62, 0
15, 71880, Note_on_c, 13, 58, 84
15, 71880, Note_on_c, 13, 62, 84
15, 71984, Note_on_c, 13, 58, 0
15, 71984, Note_on_c, 13, 62, 0
15, 72000, Note_on_c, 13, 62, 84
15, 72000, Note_on_c, 13, 58, 84
15, 72104, Note_on_c, 13, 62, 0
15, 72104, Note_on_c, 13, 58, 0
15, 72120, Note_on_c, 13, 62, 84
15, 72120, Note_on_c, 13, 58, 84
15, 72224, Note_on_c, 13, 62, 0
15, 72224, Note_on_c, 13, 58, 0
15, 72240, Note_on_c, 13, 60, 84
15, 72240, Note_on_c, 13, 63, 84
15, 72344, Note_on_c, 13, 60, 0
15, 72344, Note_on_c, 13, 63, 0
15, 72360, Note_on_c, 13, 60, 84
15, 72360, Note_on_c, 13, 63, 84
15, 72464, Note_on_c, 13, 60, 0
15, 72464, Note_on_c, 13, 63, 0
15, 72480, Note_on_c, 13, 60, 84
15, 72480, Note_on_c, 13, 63, 84
15, 72584, Note_on_c, 13, 60, 0
15, 72584, Note_on_c, 13, 63, 0
15, 72600, Note_on_c, 13, 60, 84
15, 72600, Note_on_c, 13, 63, 84
15, 72704, Note_on_c, 13, 60, 0
15, 72704, Note_on_c, 13, 63, 0
15, 72720, Note_on_c, 13, 63, 84
15, 72720, Note_on_c, 13, 60, 84
15, 72824, Note_on_c, 13, 63, 0
15, 72824, Note_on_c, 13, 60, 0
15, 72840, Note_on_c, 13, 60, 84
15, 72840, Note_on_c, 13, 63, 84
15, 72944, Note_on_c, 13, 60, 0
15, 72944, Note_on_c, 13, 63, 0
15, 72960, Note_on_c, 13, 63, 84
15, 72960, Note_on_c, 13, 60, 84
15, 73064, Note_on_c, 13, 63, 0
15, 73064, Note_on_c, 13, 60, 0
15, 73080, Note_on_c, 13, 63, 84
15, 73080, Note_on_c, 13, 60, 84
15, 73184, Note_on_c, 13, 63, 0
15, 73184, Note_on_c, 13, 60, 0
15, 73200, Note_on_c, 13, 60, 84
15, 73200, Note_on_c, 13, 63, 84
15, 73304, Note_on_c, 13, 60, 0
15, 73304, Note_on_c, 13, 63, 0
15, 73320, Note_on_c, 13, 63, 84
15, 73320, Note_on_c, 13, 60, 84
15, 73424, Note_on_c, 13, 63, 0
15, 73424, Note_on_c, 13, 60, 0
15, 73440, Note_on_c, 13, 63, 84
15, 73440, Note_on_c, 13, 60, 84
15, 73544, Note_on_c, 13, 63, 0
15, 73544, Note_on_c, 13, 60, 0
15, 73560, Note_on_c, 13, 63, 84
15, 73560, Note_on_c, 13, 60, 84
15, 73664, Note_on_c, 13, 63, 0
15, 73664, Note_on_c, 13, 60, 0
15, 73680, Note_on_c, 13, 62, 84
15, 73680, Note_on_c, 13, 58, 84
15, 73784, Note_on_c, 13, 62, 0
15, 73784, Note_on_c, 13, 58, 0
15, 73800, Note_on_c, 13, 58, 84
15, 73800, Note_on_c, 13, 62, 84
15, 73904, Note_on_c, 13, 58, 0
15, 73904, Note_on_c, 13, 62, 0
15, 73920, Note_on_c, 13, 62, 84
15, 73920, Note_on_c, 13, 58, 84
15, 74024, Note_on_c, 13, 62, 0
15, 74024, Note_on_c, 13, 58, 0
15, 74040, Note_on_c, 13, 58, 84
15, 74040, Note_on_c, 13, 62, 84
15, 74144, Note_on_c, 13, 58, 0
15, 74144, Note_on_c, 13, 62, 0
15, 74160, Note_on_c, 13, 62, 84
15, 74160, Note_on_c, 13, 58, 84
15, 74264, Note_on_c, 13, 62, 0
15, 74264, Note_on_c, 13, 58, 0
15, 74280, Note_on_c, 13, 62, 84
15, 74280, Note_on_c, 13, 58, 84
15, 74384, Note_on_c, 13, 62, 0
15, 74384, Note_on_c, 13, 58, 0
15, 74400, Note_on_c, 13, 58, 84
15, 74400, Note_on_c, 13, 62, 84
15, 74504, Note_on_c, 13, 58, 0
15, 74504, Note_on_c, 13, 62, 0
15, 74520, Note_on_c, 13, 62, 84
15, 74520, Note_on_c, 13, 58, 84
15, 74624, Note_on_c, 13, 62, 0
15, 74624, Note_on_c, 13, 58, 0
15, 74640, Note_on_c, 13, 58, 84
15, 74640, Note_on_c, 13, 62, 84
15, 74744, Note_on_c, 13, 58, 0
15, 74744, Note_on_c, 13, 62, 0
15, 74760, Note_on_c, 13, 58, 84
15, 74760, Note_on_c, 13, 62, 84
15, 74864, Note_on_c, 13, 58, 0
15, 74864, Note_on_c, 13, 62, 0
15, 74880, Note_on_c, 13, 58, 84
15, 74880, Note_on_c, 13, 62, 84
15, 74984, Note_on_c, 13, 58, 0
15, 74984, Note_on_c, 13, 62, 0
15, 75000, Note_on_c, 13, 62, 84
15, 75000, Note_on_c, 13, 58, 84
15, 75104, Note_on_c, 13, 62, 0
15, 75104, Note_on_c, 13, 58, 0
15, 75120, Note_on_c, 13, 63, 84
15, 75120, Note_on_c, 13, 60, 84
15, 75224, Note_on_c, 13, 63, 0
15, 75224, Note_on_c, 13, 60, 0
15, 75240, Note_on_c, 13, 63, 84
15, 75240, Note_on_c, 13, 60, 84
15, 75344, Note_on_c, 13, 63, 0
15, 75344, Note_on_c, 13, 60, 0
15, 75360, Note_on_c, 13, 63, 84
15, 75360, Note_on_c, 13, 60, 84
15, 75464, Note_on_c, 13, 63, 0
15, 75464, Note_on_c, 13, 60, 0
15, 75480, Note_on_c, 13, 60, 84
15, 75480, Note_on_c, 13, 63, 84
15, 75584, Note_on_c, 13, 60, 0
15, 75584, Note_on_c, 13, 63, 0
15, 75600, Note_on_c, 13, 63, 84
15, 75600, Note_on_c, 13, 60, 84
15, 75704, Note_on_c, 13, 63, 0
15, 75704, Note_on_c, 13, 60, 0
15, 75720, Note_on_c, 13, 60, 84
15, 75720, Note_on_c, 13, 63, 84
15, 75824, Note_on_c, 13, 60, 0
15, 75824, Note_on_c, 13, 63, 0
15, 75840, Note_on_c, 13, 63, 84
15, 75840, Note_on_c, 13, 60, 84
15, 75944, Note_on_c, 13, 63, 0
15, 75944, Note_on_c, 13, 60, 0
15, 75960, Note_on_c, 13, 60, 84
15, 75960, Note_on_c, 13, 63, 84
15, 76064, Note_on_c, 13, 60, 0
15, 76064, Note_on_c, 13, 63, 0
15, 76080, Note_on_c, 13, 63, 84
15, 76080, Note_on_c, 13, 60, 84
15, 76184, Note_on_c, 13, 63, 0
15, 76184, Note_on_c, 13, 60, 0
15, 76200, Note_on_c, 13, 60, 84
15, 76200, Note_on_c, 13, 63, 84
15, 76304, Note_on_c, 13, 60, 0
15, 76304, Note_on_c, 13, 63, 0
15, 76320, Note_on_c, 13, 60, 84
15, 76320, Note_on_c, 13, 63, 84
15, 76424, Note_on_c, 13, 60, 0
15, 76424, Note_on_c, 13, 63, 0
15, 76440, Note_on_c, 13, 60, 84
15, 76440, Note_on_c, 13, 63, 84
15, 76544, Note_on_c, 13, 60, 0
15, 76544, Note_on_c, 13, 63, 0
15, 76560, Note_on_c, 13, 58, 76
15, 76560, Note_on_c, 13, 62, 76
15, 77249, Note_on_c, 13, 58, 0
15, 77249, Note_on_c, 13, 62, 0
15, 77280, Note_on_c, 13, 62, 76
15, 77280, Note_on_c, 13, 58, 76
15, 77969, Note_on_c, 13, 62, 0
15, 77969, Note_on_c, 13, 58, 0
15, 78000, Note_on_c, 13, 62, 76
15, 78000, Note_on_c, 13, 58, 76
15, 78209, Note_on_c, 13, 62, 0
15, 78209, Note_on_c, 13, 58, 0
15, 78240, Note_on_c, 13, 58, 76
15, 78240, Note_on_c, 13, 62, 76
15, 78449, Note_on_c, 13, 58, 0
15, 78449, Note_on_c, 13, 62, 0
15, 78480, Note_on_c, 13, 62, 76
15, 78480, Note_on_c, 13, 58, 76
15, 78689, Note_on_c, 13, 62, 0
15, 78689, Note_on_c, 13, 58, 0
15, 78720, Note_on_c, 13, 62, 76
15, 78720, Note_on_c, 13, 58, 76
15, 78959, Note_on_c, 13, 62, 0
15, 78959, Note_on_c, 13, 58, 0
15, 79440, Note_on_c, 13, 61, 52
15, 79649, Note_on_c, 13, 61, 0
15, 79680, Note_on_c, 13, 61, 52
15, 80129, Note_on_c, 13, 61, 0
15, 80160, Note_on_c, 13, 61, 52
15, 80609, Note_on_c, 13, 61, 0
15, 80640, Note_on_c, 13, 61, 52
15, 80849, Note_on_c, 13, 61, 0
15, 80880, Note_on_c, 13, 63, 52
15, 81329, Note_on_c, 13, 63, 0
15, 81360, Note_on_c, 13, 63, 52
15, 81569, Note_on_c, 13, 63, 0
15, 81600, Note_on_c, 13, 63, 52
15, 81839, Note_on_c, 13, 63, 0
15, 82800, Note_on_c, 13, 56, 52
15, 83039, Note_on_c, 13, 56, 0
15, 83040, Note_on_c, 13, 54, 52
15, 83159, Note_on_c, 13, 54, 0
15, 83280, Note_on_c, 13, 51, 52
15, 83519, Note_on_c, 13, 51, 0
15, 83520, Note_on_c, 13, 48, 52
15, 83729, Note_on_c, 13, 48, 0
15, 83760, Note_on_c, 13, 65, 52
15, 84209, Note_on_c, 13, 65, 0
15, 84240, Note_on_c, 13, 65, 52
15, 84449, Note_on_c, 13, 65, 0
15, 84480, Note_on_c, 13, 65, 52
15, 84719, Note_on_c, 13, 65, 0
15, 85680, Note_on_c, 13, 58, 52
15, 85919, Note_on_c, 13, 58, 0
15, 85920, Note_on_c, 13, 56, 52
15, 86039, Note_on_c, 13, 56, 0
15, 86160, Note_on_c, 13, 53, 52
15, 86399, Note_on_c, 13, 53, 0
15, 86400, Note_on_c, 13, 49, 52
15, 86609, Note_on_c, 13, 49, 0
15, 86640, Note_on_c, 13, 50, 52
15, 86849, Note_on_c, 13, 50, 0
15, 86880, Note_on_c, 13, 65, 52
15, 87089, Note_on_c, 13, 65, 0
15, 87120, Note_on_c, 13, 65, 52
15, 87329, Note_on_c, 13, 65, 0
15, 87360, Note_on_c, 13, 65, 52
15, 87599, Note_on_c, 13, 65, 0
15, 88560, Note_on_c, 13, 58, 52
15, 88799, Note_on_c, 13, 58, 0
15, 88800, Note_on_c, 13, 56, 52
15, 88919, Note_on_c, 13, 56, 0
15, 89040, Note_on_c, 13, 53, 52
15, 89279, Note_on_c, 13, 53, 0
15, 89280, Note_on_c, 13, 50, 52
15, 89489, Note_on_c, 13, 50, 0
15, 89520, Note_on_c, 13, 51, 52
15, 89759, Note_on_c, 13, 51, 0
15, 91200, Note_on_c, 13, 69, 52
15, 91439, Note_on_c, 13, 69, 0
15, 91440, Note_on_c, 13, 72, 52
15, 91559, Note_on_c, 13, 72, 0
15, 91680, Note_on_c, 13, 69, 52
15, 91919, Note_on_c, 13, 69, 0
15, 91920, Note_on_c, 13, 72, 52
15, 92039, Note_on_c, 13, 72, 0
15, 92160, Note_on_c, 13, 69, 52
15, 92399, Note_on_c, 13, 69, 0
15, 92400, Note_on_c, 13, 70, 52
15, 92639, Note_on_c, 13, 70, 0
15, 94080, Note_on_c, 13, 64, 52
15, 94319, Note_on_c, 13, 64, 0
15, 94320, Note_on_c, 13, 67, 52
15, 94439, Note_on_c, 13, 67, 0
15, 94560, Note_on_c, 13, 64, 52
15, 94799, Note_on_c, 13, 64, 0
15, 94800, Note_on_c, 13, 67, 52
15, 94919, Note_on_c, 13, 67, 0
15, 95040, Note_on_c, 13, 64, 52
15, 95279, Note_on_c, 13, 64, 0
15, 95280, Note_on_c, 13, 65, 52
15, 95519, Note_on_c, 13, 65, 0
15, 96240, Note_on_c, 13, 59, 52
15, 96479, Note_on_c, 13, 59, 0
15, 96480, Note_on_c, 13, 55, 52
15, 96599, Note_on_c, 13, 55, 0
15, 96720, Note_on_c, 13, 60, 52
15, 96959, Note_on_c, 13, 60, 0
15, 97680, Note_on_c, 13, 66, 52
15, 97919, Note_on_c, 13, 66, 0
15, 97920, Note_on_c, 13, 62, 52
15, 98039, Note_on_c, 13, 62, 0
15, 98160, Note_on_c, 13, 67, 52
15, 98399, Note_on_c, 13, 67, 0
15, 99120, Note_on_c, 13, 61, 52
15, 99359, Note_on_c, 13, 61, 0
15, 99360, Note_on_c, 13, 57, 52
15, 99479, Note_on_c, 13, 57, 0
15, 99598, Control_c, 13, 11, 80
15, 99600, Note_on_c, 13, 62, 76
15, 99600, Control_c, 13, 11, 80
15, 99710, Control_c, 13, 11, 82
15, 99820, Control_c, 13, 11, 84
15, 99839, Note_on_c, 13, 62, 0
15, 99840, Note_on_c, 13, 57, 76
15, 99930, Control_c, 13, 11, 86
15, 100040, Control_c, 13, 11, 88
15, 100079, Note_on_c, 13, 57, 0
15, 100080, Note_on_c, 13, 62, 76
15, 100150, Control_c, 13, 11, 90
15, 100199, Note_on_c, 13, 62, 0
15, 100260, Control_c, 13, 11, 92
15, 100320, Note_on_c, 13, 57, 76
15, 100370, Control_c, 13, 11, 94
15, 100480, Control_c, 13, 11, 96
15, 100559, Note_on_c, 13, 57, 0
15, 100560, Note_on_c, 13, 60, 76
15, 100590, Control_c, 13, 11, 98
15, 100679, Note_on_c, 13, 60, 0
15, 100700, Control_c, 13, 11, 100
15, 100800, Note_on_c, 13, 60, 76
15, 100810, Control_c, 13, 11, 102
15, 100920, Control_c, 13, 11, 104
15, 101030, Control_c, 13, 11, 105
15, 101039, Note_on_c, 13, 60, 0
15, 101040, Note_on_c, 13, 63, 76
15, 101140, Control_c, 13, 11, 107
15, 101159, Note_on_c, 13, 63, 0
15, 101250, Control_c, 13, 11, 109
15, 101280, Note_on_c, 13, 63, 76
15, 101360, Control_c, 13, 11, 111
15, 101470, Control_c, 13, 11, 113
15, 101519, Note_on_c, 13, 63, 0
15, 101520, Note_on_c, 13, 69, 76
15, 101580, Control_c, 13, 11, 115
15, 101639, Note_on_c, 13, 69, 0
15, 101690, Control_c, 13, 11, 117
15, 101760, Note_on_c, 13, 69, 76
15, 101800, Control_c, 13, 11, 119
15, 101910, Control_c, 13, 11, 121
15, 101999, Note_on_c, 13, 69, 0
15, 102000, Note_on_c, 13, 72, 76
15, 102020, Control_c, 13, 11, 123
15, 102119, Note_on_c, 13, 72, 0
15, 102130, Control_c, 13, 11, 127
15, 102240, Note_on_c, 13, 60, 76
15, 102479, Note_on_c, 13, 60, 0
15, 102480, Note_on_c, 13, 58, 84
15, 102689, Note_on_c, 13, 58, 0
15, 102720, Note_on_c, 13, 58, 84
15, 102720, Note_on_c, 13, 62, 84
15, 103169, Note_on_c, 13, 58, 0
15, 103169, Note_on_c, 13, 62, 0
15, 103200, Note_on_c, 13, 62, 84
15, 103200, Note_on_c, 13, 58, 84
15, 103649, Note_on_c, 13, 62, 0
15, 103649, Note_on_c, 13, 58, 0
15, 103680, Note_on_c, 13, 58, 84
15, 103680, Note_on_c, 13, 62, 84
15, 103889, Note_on_c, 13, 58, 0
15, 103889, Note_on_c, 13, 62, 0
15, 103920, Note_on_c, 13, 63, 84
15, 103920, Note_on_c, 13, 60, 84
15, 104369, Note_on_c, 13, 63, 0
15, 104369, Note_on_c, 13, 60, 0
15, 104400, Note_on_c, 13, 63, 84
15, 104400, Note_on_c, 13, 60, 84
15, 104609, Note_on_c, 13, 63, 0
15, 104609, Note_on_c, 13, 60, 0
15, 104640, Note_on_c, 13, 60, 84
15, 104640, Note_on_c, 13, 63, 84
15, 104879, Note_on_c, 13, 60, 0
15, 104879, Note_on_c, 13, 63, 0
15, 106560, Note_on_c, 13, 66, 52
15, 106799, Note_on_c, 13, 66, 0
15, 106800, Note_on_c, 13, 63, 52
15, 107039, Note_on_c, 13, 63, 0
15, 107040, Note_on_c, 13, 60, 52
15, 107279, Note_on_c, 13, 60, 0
15, 107280, Note_on_c, 13, 57, 52
15, 107519, Note_on_c, 13, 57, 0
15, 107520, Note_on_c, 13, 54, 52
15, 107759, Note_on_c, 13, 54, 0
15, 107760, Note_on_c, 13, 53, 52
15, 107999, Note_on_c, 13, 53, 0
15, 109440, Note_on_c, 13, 68, 52
15, 109679, Note_on_c, 13, 68, 0
15, 109680, Note_on_c, 13, 65, 52
15, 109919, Note_on_c, 13, 65, 0
15, 109920, Note_on_c, 13, 62, 52
15, 110159, Note_on_c, 13, 62, 0
15, 110160, Note_on_c, 13, 59, 52
15, 110399, Note_on_c, 13, 59, 0
15, 110400, Note_on_c, 13, 56, 52
15, 110639, Note_on_c, 13, 56, 0
15, 110640, Note_on_c, 13, 55, 52
15, 110849, Note_on_c, 13, 55, 0
15, 110880, Note_on_c, 13, 61, 52
15, 111119, Note_on_c, 13, 61, 0
15, 111120, Note_on_c, 13, 58, 52
15, 111359, Note_on_c, 13, 58, 0
15, 111360, Note_on_c, 13, 55, 52
15, 111599, Note_on_c, 13, 55, 0
15, 111600, Note_on_c, 13, 52, 52
15, 111839, Note_on_c, 13, 52, 0
15, 111840, Note_on_c, 13, 49, 52
15, 112079, Note_on_c, 13, 49, 0
15, 112080, Note_on_c, 13, 48, 52
15, 112289, Note_on_c, 13, 48, 0
15, 112318, Control_c, 13, 11, 96
15, 112320, Note_on_c, 13, 52, 68
15, 112559, Note_on_c, 13, 52, 0
15, 112560, Note_on_c, 13, 53, 68
15, 113999, Note_on_c, 13, 53, 0
15, 114000, Control_c, 13, 11, 96
15, 114000, Note_on_c, 13, 53, 68
15, 114080, Control_c, 13, 11, 99
15, 114160, Control_c, 13, 11, 101
15, 114240, Control_c, 13, 11, 104
15, 114320, Control_c, 13, 11, 106
15, 114400, Control_c, 13, 11, 109
15, 114480, Control_c, 13, 11, 112
15, 114560, Control_c, 13, 11, 114
15, 114640, Control_c, 13, 11, 117
15, 114720, Control_c, 13, 11, 119
15, 114800, Control_c, 13, 11, 122
15, 114880, Control_c, 13, 11, 127
15, 115169, Note_on_c, 13, 53, 0
15, 115200, Note_on_c, 13, 54, 76
15, 115438, Control_c, 13, 11, 96
15, 115439, Note_on_c, 13, 54, 0
15, 115440, Note_on_c, 13, 53, 68
15, 116879, Note_on_c, 13, 53, 0
15, 116880, Note_on_c, 13, 53, 68
15, 116880, Control_c, 13, 11, 96
15, 116960, Control_c, 13, 11, 99
15, 117040, Control_c, 13, 11, 101
15, 117120, Control_c, 13, 11, 104
15, 117200, Control_c, 13, 11, 106
15, 117280, Control_c, 13, 11, 109
15, 117360, Control_c, 13, 11, 112
15, 117440, Control_c, 13, 11, 114
15, 117520, Control_c, 13, 11, 117
15, 117600, Control_c, 13, 11, 119
15, 117680, Control_c, 13, 11, 122
15, 117760, Control_c, 13, 11, 127
15, 118049, Note_on_c, 13, 53, 0
15, 118080, Note_on_c, 13, 54, 76
15, 118319, Note_on_c, 13, 54, 0
15, 118320, Note_on_c, 13, 53, 68
15, 118529, Note_on_c, 13, 53, 0
15, 118560, Note_on_c, 13, 65, 76
15, 119009, Note_on_c, 13, 65, 0
15, 119040, Note_on_c, 13, 67, 76
15, 119489, Note_on_c, 13, 67, 0
15, 119520, Note_on_c, 13, 63, 76
15, 119729, Note_on_c, 13, 63, 0
15, 119760, Note_on_c, 13, 62, 84
15, 120449, Note_on_c, 13, 62, 0
15, 120480, Note_on_c, 13, 63, 84
15, 120480, Note_on_c, 13, 60, 84
15, 121169, Note_on_c, 13, 63, 0
15, 121169, Note_on_c, 13, 60, 0
15, 121200, Note_on_c, 13, 62, 84
15, 121200, Note_on_c, 13, 58, 84
15, 121304, Note_on_c, 13, 62, 0
15, 121304, Note_on_c, 13, 58, 0
15, 121320, Note_on_c, 13, 62, 84
15, 121320, Note_on_c, 13, 58, 84
15, 121424, Note_on_c, 13, 62, 0
15, 121424, Note_on_c, 13, 58, 0
15, 121440, Note_on_c, 13, 58, 84
15, 121440, Note_on_c, 13, 62, 84
15, 121544, Note_on_c, 13, 58, 0
15, 121544, Note_on_c, 13, 62, 0
15, 121560, Note_on_c, 13, 58, 84
15, 121560, Note_on_c, 13, 62, 84
15, 121664, Note_on_c, 13, 58, 0
15, 121664, Note_on_c, 13, 62, 0
15, 121680, Note_on_c, 13, 62, 84
15, 121680, Note_on_c, 13, 58, 84
15, 121784, Note_on_c, 13, 62, 0
15, 121784, Note_on_c, 13, 58, 0
15, 121800, Note_on_c, 13, 62, 84
15, 121800, Note_on_c, 13, 58, 84
15, 121904, Note_on_c, 13, 62, 0
15, 121904, Note_on_c, 13, 58, 0
15, 121920, Note_on_c, 13, 62, 84
15, 121920, Note_on_c, 13, 58, 84
15, 122024, Note_on_c, 13, 62, 0
15, 122024, Note_on_c, 13, 58, 0
15, 122040, Note_on_c, 13, 62, 84
15, 122040, Note_on_c, 13, 58, 84
15, 122144, Note_on_c, 13, 62, 0
15, 122144, Note_on_c, 13, 58, 0
15, 122160, Note_on_c, 13, 62, 84
15, 122160, Note_on_c, 13, 58, 84
15, 122264, Note_on_c, 13, 62, 0
15, 122264, Note_on_c, 13, 58, 0
15, 122280, Note_on_c, 13, 58, 84
15, 122280, Note_on_c, 13, 62, 84
15, 122384, Note_on_c, 13, 58, 0
15, 122384, Note_on_c, 13, 62, 0
15, 122400, Note_on_c, 13, 58, 84
15, 122400, Note_on_c, 13, 62, 84
15, 122504, Note_on_c, 13, 58, 0
15, 122504, Note_on_c, 13, 62, 0
15, 122520, Note_on_c, 13, 62, 84
15, 122520, Note_on_c, 13, 58, 84
15, 122624, Note_on_c, 13, 62, 0
15, 122624, Note_on_c, 13, 58, 0
15, 122640, Note_on_c, 13, 60, 84
15, 122640, Note_on_c, 13, 63, 84
15, 122744, Note_on_c, 13, 60, 0
15, 122744, Note_on_c, 13, 63, 0
15, 122760, Note_on_c, 13, 63, 84
15, 122760, Note_on_c, 13, 60, 84
15, 122864, Note_on_c, 13, 63, 0
15, 122864, Note_on_c, 13, 60, 0
15, 122880, Note_on_c, 13, 63, 84
15, 122880, Note_on_c, 13, 60, 84
15, 122984, Note_on_c, 13, 63, 0
15, 122984, Note_on_c, 13, 60, 0
15, 123000, Note_on_c, 13, 60, 84
15, 123000, Note_on_c, 13, 63, 84
15, 123104, Note_on_c, 13, 60, 0
15, 123104, Note_on_c, 13, 63, 0
15, 123120, Note_on_c, 13, 60, 84
15, 123120, Note_on_c, 13, 63, 84
15, 123224, Note_on_c, 13, 60, 0
15, 123224, Note_on_c, 13, 63, 0
15, 123240, Note_on_c, 13, 63, 84
15, 123240, Note_on_c, 13, 60, 84
15, 123344, Note_on_c, 13, 63, 0
15, 123344, Note_on_c, 13, 60, 0
15, 123360, Note_on_c, 13, 63, 84
15, 123360, Note_on_c, 13, 60, 84
15, 123464, Note_on_c, 13, 63, 0
15, 123464, Note_on_c, 13, 60, 0
15, 123480, Note_on_c, 13, 63, 84
15, 123480, Note_on_c, 13, 60, 84
15, 123584, Note_on_c, 13, 63, 0
15, 123584, Note_on_c, 13, 60, 0
15, 123600, Note_on_c, 13, 60, 84
15, 123600, Note_on_c, 13, 63, 84
15, 123704, Note_on_c, 13, 60, 0
15, 123704, Note_on_c, 13, 63, 0
15, 123720, Note_on_c, 13, 63, 84
15, 123720, Note_on_c, 13, 60, 84
15, 123824, Note_on_c, 13, 63, 0
15, 123824, Note_on_c, 13, 60, 0
15, 123840, Note_on_c, 13, 63, 84
15, 123840, Note_on_c, 13, 60, 84
15, 123944, Note_on_c, 13, 63, 0
15, 123944, Note_on_c, 13, 60, 0
15, 123960, Note_on_c, 13, 63, 84
15, 123960, Note_on_c, 13, 60, 84
15, 124064, Note_on_c, 13, 63, 0
15, 124064, Note_on_c, 13, 60, 0
15, 124080, Note_on_c, 13, 58, 84
15, 124080, Note_on_c, 13, 62, 84
15, 124184, Note_on_c, 13, 58, 0
15, 124184, Note_on_c, 13, 62, 0
15, 124200, Note_on_c, 13, 58, 84
15, 124200, Note_on_c, 13, 62, 84
15, 124304, Note_on_c, 13, 58, 0
15, 124304, Note_on_c, 13, 62, 0
15, 124320, Note_on_c, 13, 62, 84
15, 124320, Note_on_c, 13, 58, 84
15, 124424, Note_on_c, 13, 62, 0
15, 124424, Note_on_c, 13, 58, 0
15, 124440, Note_on_c, 13, 58, 84
15, 124440, Note_on_c, 13, 62, 84
15, 124544, Note_on_c, 13, 58, 0
15, 124544, Note_on_c, 13, 62, 0
15, 124560, Note_on_c, 13, 58, 84
15, 124560, Note_on_c, 13, 62, 84
15, 124664, Note_on_c, 13, 58, 0
15, 124664, Note_on_c, 13, 62, 0
15, 124680, Note_on_c, 13, 58, 84
15, 124680, Note_on_c, 13, 62, 84
15, 124784, Note_on_c, 13, 58, 0
15, 124784, Note_on_c, 13, 62, 0
15, 124800, Note_on_c, 13, 58, 84
15, 124800, Note_on_c, 13, 62, 84
15, 124904, Note_on_c, 13, 58, 0
15, 124904, Note_on_c, 13, 62, 0
15, 124920, Note_on_c, 13, 62, 84
15, 124920, Note_on_c, 13, 58, 84
15, 125024, Note_on_c, 13, 62, 0
15, 125024, Note_on_c, 13, 58, 0
15, 125040, Note_on_c, 13, 58, 84
15, 125040, Note_on_c, 13, 62, 84
15, 125144, Note_on_c, 13, 58, 0
15, 125144, Note_on_c, 13, 62, 0
15, 125160, Note_on_c, 13, 62, 84
15, 125160, Note_on_c, 13, 58, 84
15, 125264, Note_on_c, 13, 62, 0
15, 125264, Note_on_c, 13, 58, 0
15, 125280, Note_on_c, 13, 62, 84
15, 125280, Note_on_c, 13, 58, 84
15, 125384, Note_on_c, 13, 62, 0
15, 125384, Note_on_c, 13, 58, 0
15, 125400, Note_on_c, 13, 62, 84
15, 125400, Note_on_c, 13, 58, 84
15, 125504, Note_on_c, 13, 62, 0
15, 125504, Note_on_c, 13, 58, 0
15, 125520, Note_on_c, 13, 60, 84
15, 125520, Note_on_c, 13, 63, 84
15, 125624, Note_on_c, 13, 60, 0
15, 125624, Note_on_c, 13, 63, 0
15, 125640, Note_on_c, 13, 63, 84
15, 125640, Note_on_c, 13, 60, 84
15, 125744, Note_on_c, 13, 63, 0
15, 125744, Note_on_c, 13, 60, 0
15, 125760, Note_on_c, 13, 60, 84
15, 125760, Note_on_c, 13, 63, 84
15, 125864, Note_on_c, 13, 60, 0
15, 125864, Note_on_c, 13, 63, 0
15, 125880, Note_on_c, 13, 63, 84
15, 125880, Note_on_c, 13, 60, 84
15, 125984, Note_on_c, 13, 63, 0
15, 125984, Note_on_c, 13, 60, 0
15, 126000, Note_on_c, 13, 63, 84
15, 126000, Note_on_c, 13, 60, 84
15, 126104, Note_on_c, 13, 63, 0
15, 126104, Note_on_c, 13, 60, 0
15, 126120, Note_on_c, 13, 63, 84
15, 126120, Note_on_c, 13, 60, 84
15, 126224, Note_on_c, 13, 63, 0
15, 126224, Note_on_c, 13, 60, 0
15, 126240, Note_on_c, 13, 60, 84
15, 126240, Note_on_c, 13, 63, 84
15, 126344, Note_on_c, 13, 60, 0
15, 126344, Note_on_c, 13, 63, 0
15, 126360, Note_on_c, 13, 63, 84
15, 126360, Note_on_c, 13, 60, 84
15, 126464, Note_on_c, 13, 63, 0
15, 126464, Note_on_c, 13, 60, 0
15, 126480, Note_on_c, 13, 63, 84
15, 126480, Note_on_c, 13, 60, 84
15, 126584, Note_on_c, 13, 63, 0
15, 126584, Note_on_c, 13, 60, 0
15, 126600, Note_on_c, 13, 60, 84
15, 126600, Note_on_c, 13, 63, 84
15, 126704, Note_on_c, 13, 60, 0
15, 126704, Note_on_c, 13, 63, 0
15, 126720, Note_on_c, 13, 60, 84
15, 126720, Note_on_c, 13, 63, 84
15, 126824, Note_on_c, 13, 60, 0
15, 126824, Note_on_c, 13, 63, 0
15, 126840, Note_on_c, 13, 60, 84
15, 126840, Note_on_c, 13, 63, 84
15, 126944, Note_on_c, 13, 60, 0
15, 126944, Note_on_c, 13, 63, 0
15, 126960, Note_on_c, 13, 62, 76
15, 126960, Note_on_c, 13, 58, 76
15, 127649, Note_on_c, 13, 62, 0
15, 127649, Note_on_c, 13, 58, 0
15, 127680, Note_on_c, 13, 62, 76
15, 127680, Note_on_c, 13, 58, 76
15, 128369, Note_on_c, 13, 62, 0
15, 128369, Note_on_c, 13, 58, 0
15, 128400, Note_on_c, 13, 58, 76
15, 128400, Note_on_c, 13, 62, 76
15, 128609, Note_on_c, 13, 58, 0
15, 128609, Note_on_c, 13, 62, 0
15, 128640, Note_on_c, 13, 58, 76
15, 128640, Note_on_c, 13, 62, 76
15, 128849, Note_on_c, 13, 58, 0
15, 128849, Note_on_c, 13, 62, 0
15, 128880, Note_on_c, 13, 62, 76
15, 128880, Note_on_c, 13, 58, 76
15, 129089, Note_on_c, 13, 62, 0
15, 129089, Note_on_c, 13, 58, 0
15, 129120, Note_on_c, 13, 58, 76
15, 129120, Note_on_c, 13, 62, 76
15, 129359, Note_on_c, 13, 58, 0
15, 129359, Note_on_c, 13, 62, 0
15, 139200, Control_c, 13, 11, 96
15, 139680, Note_on_c, 13, 51, 68
15, 139919, Note_on_c, 13, 51, 0
15, 139920, Control_c, 13, 11, 96
15, 139920, Note_on_c, 13, 53, 68
15, 139980, Control_c, 13, 11, 99
15, 140040, Control_c, 13, 11, 101
15, 140100, Control_c, 13, 11, 104
15, 140160, Control_c, 13, 11, 106
15, 140220, Control_c, 13, 11, 109
15, 140280, Control_c, 13, 11, 112
15, 140340, Control_c, 13, 11, 114
15, 140399, Note_on_c, 13, 53, 0
15, 140400, Control_c, 13, 11, 117
15, 140400, Note_on_c, 13, 55, 68
15, 140460, Control_c, 13, 11, 119
15, 140520, Control_c, 13, 11, 122
15, 140580, Control_c, 13, 11, 127
15, 140640, Control_c, 13, 11, 127
15, 140700, Control_c, 13, 11, 124
15, 140760, Control_c, 13, 11, 122
15, 140820, Control_c, 13, 11, 119
15, 140879, Note_on_c, 13, 55, 0
15, 140880, Note_on_c, 13, 57, 68
15, 140880, Control_c, 13, 11, 117
15, 140940, Control_c, 13, 11, 114
15, 140999, Note_on_c, 13, 57, 0
15, 141000, Note_on_c, 13, 53, 68
15, 141000, Control_c, 13, 11, 112
15, 141060, Control_c, 13, 11, 109
15, 141119, Note_on_c, 13, 53, 0
15, 141120, Control_c, 13, 11, 106
15, 141120, Note_on_c, 13, 58, 68
15, 141180, Control_c, 13, 11, 104
15, 141240, Control_c, 13, 11, 101
15, 141300, Control_c, 13, 11, 96
15, 141329, Note_on_c, 13, 58, 0
15, 141360, Note_on_c, 13, 58, 68
15, 141599, Note_on_c, 13, 58, 0
15, 154080, Control_c, 13, 11, 127
15, 154080, Program_c, 13, 45
15, 154320, Note_on_c, 13, 57, 48
15, 154559, Note_on_c, 13, 57, 0
15, 157200, Note_on_c, 13, 57, 48
15, 157439, Note_on_c, 13, 57, 0
15, 157920, Program_c, 13, 48
15, 158280, Note_on_c, 13, 59, 44
15, 158399, Note_on_c, 13, 59, 0
15, 158400, Note_on_c, 13, 60, 44
15, 158519, Note_on_c, 13, 60, 0
15, 158520, Note_on_c, 13, 59, 44
15, 158624, Note_on_c, 13, 59, 0
15, 158640, Note_on_c, 13, 60, 44
15, 158819, Note_on_c, 13, 60, 0
15, 159000, Note_on_c, 13, 59, 44
15, 159119, Note_on_c, 13, 59, 0
15, 159120, Note_on_c, 13, 60, 44
15, 159239, Note_on_c, 13, 60, 0
15, 159240, Note_on_c, 13, 59, 44
15, 159344, Note_on_c, 13, 59, 0
15, 159360, Note_on_c, 13, 60, 44
15, 159539, Note_on_c, 13, 60, 0
15, 159720, Note_on_c, 13, 59, 44
15, 159839, Note_on_c, 13, 59, 0
15, 159840, Note_on_c, 13, 60, 44
15, 159959, Note_on_c, 13, 60, 0
15, 159960, Note_on_c, 13, 59, 44
15, 160064, Note_on_c, 13, 59, 0
15, 160080, Note_on_c, 13, 60, 44
15, 160259, Note_on_c, 13, 60, 0
15, 161160, Note_on_c, 13, 53, 44
15, 161279, Note_on_c, 13, 53, 0
15, 161280, Note_on_c, 13, 54, 44
15, 161399, Note_on_c, 13, 54, 0
15, 161400, Note_on_c, 13, 53, 44
15, 161504, Note_on_c, 13, 53, 0
15, 161520, Note_on_c, 13, 54, 44
15, 161699, Note_on_c, 13, 54, 0
15, 161880, Note_on_c, 13, 53, 44
15, 161999, Note_on_c, 13, 53, 0
15, 162000, Note_on_c, 13, 54, 44
15, 162119, Note_on_c, 13, 54, 0
15, 162120, Note_on_c, 13, 53, 44
15, 162224, Note_on_c, 13, 53, 0
15, 162240, Note_on_c, 13, 54, 44
15, 162419, Note_on_c, 13, 54, 0
15, 162600, Note_on_c, 13, 53, 44
15, 162719, Note_on_c, 13, 53, 0
15, 162720, Note_on_c, 13, 54, 44
15, 162839, Note_on_c, 13, 54, 0
15, 162840, Note_on_c, 13, 53, 44
15, 162959, Note_on_c, 13, 53, 0
15, 162960, Note_on_c, 13, 54, 44
15, 163079, Note_on_c, 13, 54, 0
15, 163080, Note_on_c, 13, 52, 44
15, 163199, Note_on_c, 13, 52, 0
15, 163200, Note_on_c, 13, 53, 44
15, 163319, Note_on_c, 13, 53, 0
15, 163320, Note_on_c, 13, 52, 44
15, 163439, Note_on_c, 13, 52, 0
15, 163440, Note_on_c, 13, 53, 44
15, 163559, Note_on_c, 13, 53, 0
15, 163560, Note_on_c, 13, 52, 44
15, 163679, Note_on_c, 13, 52, 0
15, 163680, Note_on_c, 13, 53, 44
15, 163799, Note_on_c, 13, 53, 0
15, 163800, Note_on_c, 13, 57, 44
15, 163919, Note_on_c, 13, 57, 0
15, 163920, Note_on_c, 13, 58, 44
15, 164039, Note_on_c, 13, 58, 0
15, 164040, Note_on_c, 13, 57, 44
15, 164159, Note_on_c, 13, 57, 0
15, 164160, Note_on_c, 13, 58, 44
15, 164279, Note_on_c, 13, 58, 0
15, 164280, Note_on_c, 13, 57, 44
15, 164399, Note_on_c, 13, 57, 0
15, 164400, Note_on_c, 13, 58, 44
15, 164519, Note_on_c, 13, 58, 0
15, 164520, Note_on_c, 13, 57, 44
15, 164639, Note_on_c, 13, 57, 0
15, 164640, Note_on_c, 13, 58, 44
15, 164759, Note_on_c, 13, 58, 0
15, 164760, Note_on_c, 13, 57, 44
15, 164879, Note_on_c, 13, 57, 0
15, 164880, Note_on_c, 13, 58, 44
15, 164999, Note_on_c, 13, 58, 0
15, 165000, Note_on_c, 13, 57, 44
15, 165119, Note_on_c, 13, 57, 0
15, 165120, Note_on_c, 13, 58, 44
15, 165239, Note_on_c, 13, 58, 0
15, 165240, Note_on_c, 13, 57, 44
15, 165359, Note_on_c, 13, 57, 0
15, 165360, Note_on_c, 13, 58, 44
15, 165479, Note_on_c, 13, 58, 0
15, 165480, Note_on_c, 13, 57, 44
15, 165599, Note_on_c, 13, 57, 0
15, 165600, Note_on_c, 13, 58, 44
15, 165719, Note_on_c, 13, 58, 0
15, 165720, Note_on_c, 13, 57, 44
15, 165824, Note_on_c, 13, 57, 0
15, 165840, Note_on_c, 13, 58, 44
15, 165959, Note_on_c, 13, 58, 0
15, 165960, Note_on_c, 13, 57, 44
15, 166079, Note_on_c, 13, 57, 0
15, 166080, Note_on_c, 13, 58, 44
15, 166199, Note_on_c, 13, 58, 0
15, 166200, Note_on_c, 13, 57, 45
15, 166319, Note_on_c, 13, 57, 0
15, 166320, Note_on_c, 13, 58, 45
15, 166439, Note_on_c, 13, 58, 0
15, 166440, Note_on_c, 13, 57, 46
15, 166559, Note_on_c, 13, 57, 0
15, 166560, Note_on_c, 13, 58, 46
15, 166679, Note_on_c, 13, 58, 0
15, 166680, Note_on_c, 13, 57, 47
15, 166799, Note_on_c, 13, 57, 0
15, 166800, Note_on_c, 13, 58, 47
15, 166919, Note_on_c, 13, 58, 0
15, 166920, Note_on_c, 13, 57, 48
15, 167039, Note_on_c, 13, 57, 0
15, 167040, Note_on_c, 13, 58, 48
15, 167159, Note_on_c, 13, 58, 0
15, 167160, Note_on_c, 13, 57, 48
15, 167279, Note_on_c, 13, 57, 0
15, 167280, Note_on_c, 13, 58, 49
15, 167399, Note_on_c, 13, 58, 0
15, 167400, Note_on_c, 13, 57, 49
15, 167519, Note_on_c, 13, 57, 0
15, 167520, Note_on_c, 13, 58, 50
15, 167639, Note_on_c, 13, 58, 0
15, 167640, Note_on_c, 13, 57, 50
15, 167759, Note_on_c, 13, 57, 0
15, 167760, Note_on_c, 13, 58, 51
15, 167879, Note_on_c, 13, 58, 0
15, 167880, Note_on_c, 13, 57, 51
15, 167999, Note_on_c, 13, 57, 0
15, 168000, Note_on_c, 13, 58, 52
15, 168119, Note_on_c, 13, 58, 0
15, 168120, Note_on_c, 13, 57, 52
15, 168239, Note_on_c, 13, 57, 0
15, 168240, Note_on_c, 13, 58, 52
15, 168359, Note_on_c, 13, 58, 0
15, 168360, Note_on_c, 13, 57, 53
15, 168479, Note_on_c, 13, 57, 0
15, 168480, Note_on_c, 13, 58, 53
15, 168599, Note_on_c, 13, 58, 0
15, 168600, Note_on_c, 13, 57, 54
15, 168704, Note_on_c, 13, 57, 0
15, 168720, Note_on_c, 13, 58, 54
15, 168839, Note_on_c, 13, 58, 0
15, 168840, Note_on_c, 13, 57, 55
15, 168959, Note_on_c, 13, 57, 0
15, 168960, Note_on_c, 13, 58, 55
15, 169079, Note_on_c, 13, 58, 0
15, 169080, Note_on_c, 13, 57, 56
15, 169199, Note_on_c, 13, 57, 0
15, 169200, Note_on_c, 13, 58, 56
15, 169319, Note_on_c, 13, 58, 0
15, 169320, Note_on_c, 13, 57, 56
15, 169439, Note_on_c, 13, 57, 0
15, 169440, Note_on_c, 13, 58, 57
15, 169559, Note_on_c, 13, 58, 0
15, 169560, Note_on_c, 13, 57, 57
15, 169679, Note_on_c, 13, 57, 0
15, 169680, Note_on_c, 13, 58, 58
15, 169799, Note_on_c, 13, 58, 0
15, 169800, Note_on_c, 13, 57, 58
15, 169919, Note_on_c, 13, 57, 0
15, 169920, Note_on_c, 13, 58, 59
15, 170039, Note_on_c, 13, 58, 0
15, 170040, Note_on_c, 13, 57, 59
15, 170159, Note_on_c, 13, 57, 0
15, 170160, Note_on_c, 13, 58, 60
15, 170279, Note_on_c, 13, 58, 0
15, 170280, Note_on_c, 13, 57, 60
15, 170399, Note_on_c, 13, 57, 0
15, 170400, Note_on_c, 13, 58, 60
15, 170519, Note_on_c, 13, 58, 0
15, 170520, Note_on_c, 13, 57, 61
15, 170639, Note_on_c, 13, 57, 0
15, 170640, Note_on_c, 13, 58, 61
15, 170759, Note_on_c, 13, 58, 0
15, 170760, Note_on_c, 13, 57, 62
15, 170879, Note_on_c, 13, 57, 0
15, 170880, Note_on_c, 13, 58, 62
15, 170999, Note_on_c, 13, 58, 0
15, 171000, Note_on_c, 13, 57, 63
15, 171119, Note_on_c, 13, 57, 0
15, 171120, Note_on_c, 13, 58, 63
15, 171239, Note_on_c, 13, 58, 0
15, 171240, Note_on_c, 13, 57, 64
15, 171359, Note_on_c, 13, 57, 0
15, 171360, Note_on_c, 13, 58, 64
15, 171479, Note_on_c, 13, 58, 0
15, 171480, Note_on_c, 13, 57, 64
15, 171584, Note_on_c, 13, 57, 0
15, 171600, Note_on_c, 13, 58, 65
15, 171719, Note_on_c, 13, 58, 0
15, 171720, Note_on_c, 13, 57, 65
15, 171839, Note_on_c, 13, 57, 0
15, 171840, Note_on_c, 13, 58, 66
15, 171959, Note_on_c, 13, 58, 0
15, 171960, Note_on_c, 13, 57, 66
15, 172079, Note_on_c, 13, 57, 0
15, 172080, Note_on_c, 13, 58, 67
15, 172199, Note_on_c, 13, 58, 0
15, 172200, Note_on_c, 13, 56, 67
15, 172319, Note_on_c, 13, 56, 0
15, 172320, Note_on_c, 13, 58, 68
15, 172439, Note_on_c, 13, 58, 0
15, 172440, Note_on_c, 13, 55, 68
15, 172559, Note_on_c, 13, 55, 0
15, 172560, Note_on_c, 13, 58, 68
15, 172679, Note_on_c, 13, 58, 0
15, 172680, Note_on_c, 13, 55, 69
15, 172799, Note_on_c, 13, 55, 0
15, 172800, Note_on_c, 13, 58, 69
15, 172919, Note_on_c, 13, 58, 0
15, 172920, Note_on_c, 13, 53, 70
15, 173039, Note_on_c, 13, 53, 0
15, 173040, Note_on_c, 13, 58, 70
15, 173159, Note_on_c, 13, 58, 0
15, 173160, Note_on_c, 13, 51, 71
15, 173279, Note_on_c, 13, 51, 0
15, 173280, Note_on_c, 13, 58, 71
15, 173399, Note_on_c, 13, 58, 0
15, 173400, Note_on_c, 13, 51, 72
15, 173519, Note_on_c, 13, 51, 0
15, 173520, Note_on_c, 13, 58, 72
15, 173639, Note_on_c, 13, 58, 0
15, 173640, Note_on_c, 13, 51, 72
15, 173759, Note_on_c, 13, 51, 0
15, 173760, Note_on_c, 13, 58, 73
15, 173879, Note_on_c, 13, 58, 0
15, 173880, Note_on_c, 13, 51, 73
15, 173999, Note_on_c, 13, 51, 0
15, 174000, Note_on_c, 13, 58, 74
15, 174119, Note_on_c, 13, 58, 0
15, 174120, Note_on_c, 13, 51, 74
15, 174239, Note_on_c, 13, 51, 0
15, 174240, Note_on_c, 13, 58, 75
15, 174359, Note_on_c, 13, 58, 0
15, 174360, Note_on_c, 13, 53, 75
15, 174464, Note_on_c, 13, 53, 0
15, 174480, Note_on_c, 13, 53, 76
15, 174569, Note_on_c, 13, 53, 0
15, 174600, Note_on_c, 13, 57, 76
15, 174719, Note_on_c, 13, 57, 0
15, 174720, Note_on_c, 13, 55, 76
15, 174839, Note_on_c, 13, 55, 0
15, 174840, Note_on_c, 13, 57, 77
15, 174959, Note_on_c, 13, 57, 0
15, 174960, Note_on_c, 13, 60, 77
15, 175079, Note_on_c, 13, 60, 0
15, 175080, Note_on_c, 13, 57, 78
15, 175184, Note_on_c, 13, 57, 0
15, 175200, Note_on_c, 13, 53, 78
15, 175289, Note_on_c, 13, 53, 0
15, 175320, Note_on_c, 13, 57, 79
15, 175439, Note_on_c, 13, 57, 0
15, 175440, Note_on_c, 13, 55, 79
15, 175559, Note_on_c, 13, 55, 0
15, 175560, Note_on_c, 13, 57, 80
15, 175679, Note_on_c, 13, 57, 0
15, 175680, Note_on_c, 13, 60, 80
15, 175799, Note_on_c, 13, 60, 0
15, 175800, Note_on_c, 13, 57, 80
15, 175904, Note_on_c, 13, 57, 0
15, 175920, Note_on_c, 13, 58, 81
15, 176039, Note_on_c, 13, 58, 0
15, 176040, Note_on_c, 13, 57, 81
15, 176159, Note_on_c, 13, 57, 0
15, 176160, Note_on_c, 13, 58, 82
15, 176279, Note_on_c, 13, 58, 0
15, 176280, Note_on_c, 13, 57, 82
15, 176399, Note_on_c, 13, 57, 0
15, 176400, Note_on_c, 13, 58, 83
15, 176519, Note_on_c, 13, 58, 0
15, 176520, Note_on_c, 13, 57, 83
15, 176639, Note_on_c, 13, 57, 0
15, 176640, Note_on_c, 13, 58, 84
15, 176759, Note_on_c, 13, 58, 0
15, 176760, Note_on_c, 13, 57, 84
15, 176879, Note_on_c, 13, 57, 0
15, 176880, Note_on_c, 13, 58, 84
15, 176999, Note_on_c, 13, 58, 0
15, 177000, Note_on_c, 13, 57, 84
15, 177119, Note_on_c, 13, 57, 0
15, 177120, Note_on_c, 13, 58, 84
15, 177239, Note_on_c, 13, 58, 0
15, 177240, Note_on_c, 13, 57, 84
15, 177344, Note_on_c, 13, 57, 0
15, 177360, Note_on_c, 13, 58, 84
15, 177479, Note_on_c, 13, 58, 0
15, 177480, Note_on_c, 13, 57, 84
15, 177599, Note_on_c, 13, 57, 0
15, 177600, Note_on_c, 13, 58, 84
15, 177719, Note_on_c, 13, 58, 0
15, 177720, Note_on_c, 13, 57, 84
15, 177839, Note_on_c, 13, 57, 0
15, 177840, Note_on_c, 13, 58, 84
15, 177959, Note_on_c, 13, 58, 0
15, 177960, Note_on_c, 13, 56, 84
15, 178079, Note_on_c, 13, 56, 0
15, 178080, Note_on_c, 13, 58, 84
15, 178199, Note_on_c, 13, 58, 0
15, 178200, Note_on_c, 13, 55, 84
15, 178319, Note_on_c, 13, 55, 0
15, 178320, Note_on_c, 13, 58, 84
15, 178439, Note_on_c, 13, 58, 0
15, 178440, Note_on_c, 13, 55, 84
15, 178559, Note_on_c, 13, 55, 0
15, 178560, Note_on_c, 13, 58, 84
15, 178679, Note_on_c, 13, 58, 0
15, 178680, Note_on_c, 13, 53, 84
15, 178784, Note_on_c, 13, 53, 0
15, 178800, Note_on_c, 13, 58, 84
15, 178919, Note_on_c, 13, 58, 0
15, 178920, Note_on_c, 13, 51, 84
15, 179039, Note_on_c, 13, 51, 0
15, 179040, Note_on_c, 13, 58, 84
15, 179159, Note_on_c, 13, 58, 0
15, 179160, Note_on_c, 13, 51, 84
15, 179279, Note_on_c, 13, 51, 0
15, 179280, Note_on_c, 13, 58, 84
15, 179399, Note_on_c, 13, 58, 0
15, 179400, Note_on_c, 13, 51, 84
15, 179519, Note_on_c, 13, 51, 0
15, 179520, Note_on_c, 13, 58, 84
15, 179639, Note_on_c, 13, 58, 0
15, 179640, Note_on_c, 13, 51, 84
15, 179759, Note_on_c, 13, 51, 0
15, 179760, Note_on_c, 13, 58, 84
15, 179879, Note_on_c, 13, 58, 0
15, 179880, Note_on_c, 13, 51, 84
15, 179999, Note_on_c, 13, 51, 0
15, 180000, Note_on_c, 13, 58, 84
15, 180119, Note_on_c, 13, 58, 0
15, 180120, Note_on_c, 13, 53, 84
15, 180224, Note_on_c, 13, 53, 0
15, 180240, Note_on_c, 13, 53, 84
15, 180329, Note_on_c, 13, 53, 0
15, 180360, Note_on_c, 13, 57, 84
15, 180479, Note_on_c, 13, 57, 0
15, 180480, Note_on_c, 13, 55, 84
15, 180599, Note_on_c, 13, 55, 0
15, 180600, Note_on_c, 13, 57, 84
15, 180719, Note_on_c, 13, 57, 0
15, 180720, Note_on_c, 13, 60, 84
15, 180839, Note_on_c, 13, 60, 0
15, 180840, Note_on_c, 13, 57, 84
15, 180944, Note_on_c, 13, 57, 0
15, 180960, Note_on_c, 13, 53, 84
15, 181049, Note_on_c, 13, 53, 0
15, 181080, Note_on_c, 13, 57, 84
15, 181199, Note_on_c, 13, 57, 0
15, 181200, Note_on_c, 13, 55, 84
15, 181319, Note_on_c, 13, 55, 0
15, 181320, Note_on_c, 13, 57, 84
15, 181439, Note_on_c, 13, 57, 0
15, 181440, Note_on_c, 13, 60, 84
15, 181559, Note_on_c, 13, 60, 0
15, 181560, Note_on_c, 13, 57, 84
15, 181664, Note_on_c, 13, 57, 0
15, 181680, Note_on_c, 13, 53, 84
15, 181769, Note_on_c, 13, 53, 0
15, 181800, Note_on_c, 13, 58, 84
15, 181919, Note_on_c, 13, 58, 0
15, 181920, Note_on_c, 13, 57, 84
15, 182039, Note_on_c, 13, 57, 0
15, 182040, Note_on_c, 13, 58, 84
15, 182159, Note_on_c, 13, 58, 0
15, 182160, Note_on_c, 13, 62, 92
15, 182279, Note_on_c, 13, 62, 0
15, 182280, Note_on_c, 13, 58, 84
15, 182399, Note_on_c, 13, 58, 0
15, 182400, Note_on_c, 13, 62, 92
15, 182519, Note_on_c, 13, 62, 0
15, 182520, Note_on_c, 13, 58, 84
15, 182639, Note_on_c, 13, 58, 0
15, 182640, Note_on_c, 13, 57, 84
15, 182759, Note_on_c, 13, 57, 0
15, 182760, Note_on_c, 13, 58, 84
15, 182879, Note_on_c, 13, 58, 0
15, 182880, Note_on_c, 13, 62, 84
15, 182999, Note_on_c, 13, 62, 0
15, 183000, Note_on_c, 13, 58, 84
15, 183104, Note_on_c, 13, 58, 0
15, 183120, Note_on_c, 13, 53, 84
15, 183209, Note_on_c, 13, 53, 0
15, 183240, Note_on_c, 13, 57, 84
15, 183359, Note_on_c, 13, 57, 0
15, 183360, Note_on_c, 13, 55, 84
15, 183479, Note_on_c, 13, 55, 0
15, 183480, Note_on_c, 13, 57, 84
15, 183599, Note_on_c, 13, 57, 0
15, 183600, Note_on_c, 13, 60, 92
15, 183719, Note_on_c, 13, 60, 0
15, 183720, Note_on_c, 13, 57, 84
15, 183824, Note_on_c, 13, 57, 0
15, 183840, Note_on_c, 13, 60, 92
15, 183959, Note_on_c, 13, 60, 0
15, 183960, Note_on_c, 13, 57, 84
15, 184079, Note_on_c, 13, 57, 0
15, 184080, Note_on_c, 13, 55, 84
15, 184199, Note_on_c, 13, 55, 0
15, 184200, Note_on_c, 13, 57, 84
15, 184319, Note_on_c, 13, 57, 0
15, 184320, Note_on_c, 13, 60, 84
15, 184439, Note_on_c, 13, 60, 0
15, 184440, Note_on_c, 13, 57, 84
15, 184544, Note_on_c, 13, 57, 0
15, 184560, Note_on_c, 13, 53, 84
15, 184649, Note_on_c, 13, 53, 0
15, 184680, Note_on_c, 13, 58, 84
15, 184799, Note_on_c, 13, 58, 0
15, 184800, Note_on_c, 13, 57, 84
15, 184919, Note_on_c, 13, 57, 0
15, 184920, Note_on_c, 13, 58, 84
15, 185039, Note_on_c, 13, 58, 0
15, 185040, Note_on_c, 13, 62, 84
15, 185159, Note_on_c, 13, 62, 0
15, 185160, Note_on_c, 13, 58, 82
15, 185279, Note_on_c, 13, 58, 0
15, 185280, Note_on_c, 13, 62, 80
15, 185399, Note_on_c, 13, 62, 0
15, 185400, Note_on_c, 13, 58, 78
15, 185519, Note_on_c, 13, 58, 0
15, 185520, Note_on_c, 13, 57, 76
15, 185639, Note_on_c, 13, 57, 0
15, 185640, Note_on_c, 13, 58, 74
15, 185759, Note_on_c, 13, 58, 0
15, 185760, Note_on_c, 13, 62, 72
15, 185879, Note_on_c, 13, 62, 0
15, 185880, Note_on_c, 13, 58, 70
15, 185984, Note_on_c, 13, 58, 0
15, 186000, Note_on_c, 13, 53, 68
15, 186089, Note_on_c, 13, 53, 0
15, 186120, Note_on_c, 13, 57, 66
15, 186239, Note_on_c, 13, 57, 0
15, 186240, Note_on_c, 13, 55, 64
15, 186359, Note_on_c, 13, 55, 0
15, 186360, Note_on_c, 13, 57, 62
15, 186479, Note_on_c, 13, 57, 0
15, 186480, Note_on_c, 13, 60, 60
15, 186599, Note_on_c, 13, 60, 0
15, 186600, Note_on_c, 13, 57, 58
15, 186719, Note_on_c, 13, 57, 0
15, 186720, Note_on_c, 13, 60, 56
15, 186839, Note_on_c, 13, 60, 0
15, 186840, Note_on_c, 13, 57, 54
15, 186959, Note_on_c, 13, 57, 0
15, 186960, Note_on_c, 13, 55, 52
15, 187079, Note_on_c, 13, 55, 0
15, 187080, Note_on_c, 13, 57, 50
15, 187199, Note_on_c, 13, 57, 0
15, 187200, Note_on_c, 13, 60, 48
15, 187319, Note_on_c, 13, 60, 0
15, 187320, Note_on_c, 13, 57, 46
15, 187424, Note_on_c, 13, 57, 0
15, 187440, Note_on_c, 13, 62, 44
15, 187529, Note_on_c, 13, 62, 0
15, 187560, Note_on_c, 13, 58, 44
15, 187679, Note_on_c, 13, 58, 0
15, 187680, Note_on_c, 13, 57, 44
15, 187799, Note_on_c, 13, 57, 0
15, 187800, Note_on_c, 13, 58, 44
15, 187919, Note_on_c, 13, 58, 0
15, 187920, Note_on_c, 13, 62, 44
15, 188039, Note_on_c, 13, 62, 0
15, 188040, Note_on_c, 13, 58, 44
15, 188144, Note_on_c, 13, 58, 0
15, 188160, Note_on_c, 13, 62, 44
15, 188279, Note_on_c, 13, 62, 0
15, 188280, Note_on_c, 13, 58, 44
15, 188399, Note_on_c, 13, 58, 0
15, 188400, Note_on_c, 13, 57, 44
15, 188519, Note_on_c, 13, 57, 0
15, 188520, Note_on_c, 13, 58, 44
15, 188639, Note_on_c, 13, 58, 0
15, 188640, Note_on_c, 13, 62, 44
15, 188759, Note_on_c, 13, 62, 0
15, 188760, Note_on_c, 13, 58, 44
15, 188864, Note_on_c, 13, 58, 0
15, 188880, Note_on_c, 13, 62, 44
15, 188999, Note_on_c, 13, 62, 0
15, 189000, Note_on_c, 13, 58, 44
15, 189119, Note_on_c, 13, 58, 0
15, 189120, Note_on_c, 13, 57, 44
15, 189239, Note_on_c, 13, 57, 0
15, 189240, Note_on_c, 13, 58, 44
15, 189359, Note_on_c, 13, 58, 0
15, 189360, Note_on_c, 13, 62, 44
15, 189479, Note_on_c, 13, 62, 0
15, 189480, Note_on_c, 13, 58, 44
15, 189584, Note_on_c, 13, 58, 0
15, 189600, Note_on_c, 13, 62, 44
15, 189719, Note_on_c, 13, 62, 0
15, 189720, Note_on_c, 13, 58, 44
15, 189839, Note_on_c, 13, 58, 0
15, 189840, Note_on_c, 13, 57, 44
15, 189959, Note_on_c, 13, 57, 0
15, 189960, Note_on_c, 13, 58, 44
15, 190079, Note_on_c, 13, 58, 0
15, 190080, Note_on_c, 13, 62, 44
15, 190199, Note_on_c, 13, 62, 0
15, 190200, Note_on_c, 13, 58, 44
15, 190304, Note_on_c, 13, 58, 0
15, 190320, Note_on_c, 13, 58, 44
15, 190559, Note_on_c, 13, 58, 0
15, 191460, Control_c, 13, 11, 88
15, 191520, Note_on_c, 13, 54, 76
15, 191560, Control_c, 13, 11, 90
15, 191660, Control_c, 13, 11, 93
15, 191759, Note_on_c, 13, 54, 0
15, 191760, Note_on_c, 13, 55, 76
15, 191760, Control_c, 13, 11, 96
15, 191860, Control_c, 13, 11, 98
15, 191879, Note_on_c, 13, 55, 0
15, 191960, Control_c, 13, 11, 101
15, 192000, Note_on_c, 13, 55, 76
15, 192060, Control_c, 13, 11, 103
15, 192160, Control_c, 13, 11, 106
15, 192239, Note_on_c, 13, 55, 0
15, 192240, Note_on_c, 13, 56, 76
15, 192260, Control_c, 13, 11, 109
15, 192359, Note_on_c, 13, 56, 0
15, 192360, Control_c, 13, 11, 111
15, 192460, Control_c, 13, 11, 114
15, 192480, Note_on_c, 13, 56, 76
15, 192560, Control_c, 13, 11, 117
15, 192660, Control_c, 13, 11, 119
15, 192719, Note_on_c, 13, 56, 0
15, 192720, Note_on_c, 13, 57, 76
15, 192760, Control_c, 13, 11, 122
15, 192839, Note_on_c, 13, 57, 0
15, 192860, Control_c, 13, 11, 127
15, 192960, Note_on_c, 13, 60, 76
15, 193199, Note_on_c, 13, 60, 0
15, 193200, Note_on_c, 13, 58, 84
15, 193319, Note_on_c, 13, 58, 0
15, 193440, Note_on_c, 13, 53, 84
15, 193889, Note_on_c, 13, 53, 0
15, 193920, Note_on_c, 13, 53, 84
15, 194369, Note_on_c, 13, 53, 0
15, 194400, Note_on_c, 13, 53, 84
15, 194609, Note_on_c, 13, 53, 0
15, 194640, Note_on_c, 13, 53, 84
15, 195089, Note_on_c, 13, 53, 0
15, 195120, Note_on_c, 13, 53, 84
15, 195329, Note_on_c, 13, 53, 0
15, 195360, Note_on_c, 13, 53, 84
15, 195599, Note_on_c, 13, 53, 0
15, 197280, Note_on_c, 13, 66, 52
15, 197519, Note_on_c, 13, 66, 0
15, 197520, Note_on_c, 13, 63, 52
15, 197759, Note_on_c, 13, 63, 0
15, 197760, Note_on_c, 13, 60, 52
15, 197999, Note_on_c, 13, 60, 0
15, 198000, Note_on_c, 13, 57, 52
15, 198239, Note_on_c, 13, 57, 0
15, 198240, Note_on_c, 13, 54, 52
15, 198479, Note_on_c, 13, 54, 0
15, 198480, Note_on_c, 13, 53, 52
15, 198719, Note_on_c, 13, 53, 0
15, 198720, Note_on_c, 13, 51, 52
15, 198959, Note_on_c, 13, 51, 0
15, 198960, Note_on_c, 13, 49, 52
15, 199199, Note_on_c, 13, 49, 0
15, 200160, Note_on_c, 13, 61, 52
15, 200399, Note_on_c, 13, 61, 0
15, 200400, Note_on_c, 13, 58, 52
15, 200639, Note_on_c, 13, 58, 0
15, 200640, Note_on_c, 13, 55, 52
15, 200879, Note_on_c, 13, 55, 0
15, 200880, Note_on_c, 13, 52, 52
15, 201119, Note_on_c, 13, 52, 0
15, 201120, Note_on_c, 13, 49, 52
15, 201359, Note_on_c, 13, 49, 0
15, 201360, Note_on_c, 13, 48, 52
15, 201599, Note_on_c, 13, 48, 0
15, 201600, Note_on_c, 13, 55, 52
15, 201839, Note_on_c, 13, 55, 0
15, 201840, Note_on_c, 13, 53, 52
15, 201959, Note_on_c, 13, 53, 0
15, 202078, Control_c, 13, 11, 80
15, 202080, Note_on_c, 13, 55, 76
15, 202080, Note_on_c, 13, 48, 76
15, 202180, Control_c, 13, 11, 82
15, 202280, Control_c, 13, 11, 84
15, 202380, Control_c, 13, 11, 86
15, 202480, Control_c, 13, 11, 88
15, 202529, Note_on_c, 13, 55, 0
15, 202529, Note_on_c, 13, 48, 0
15, 202560, Note_on_c, 13, 57, 76
15, 202560, Note_on_c, 13, 53, 76
15, 202580, Control_c, 13, 11, 90
15, 202680, Control_c, 13, 11, 92
15, 202780, Control_c, 13, 11, 94
15, 202880, Control_c, 13, 11, 96
15, 202980, Control_c, 13, 11, 98
15, 203009, Note_on_c, 13, 57, 0
15, 203009, Note_on_c, 13, 53, 0
15, 203040, Note_on_c, 13, 53, 84
15, 203040, Note_on_c, 13, 58, 84
15, 203080, Control_c, 13, 11, 100
15, 203180, Control_c, 13, 11, 102
15, 203279, Note_on_c, 13, 53, 0
15, 203279, Note_on_c, 13, 58, 0
15, 203280, Note_on_c, 13, 53, 76
15, 203280, Control_c, 13, 11, 104
15, 203280, Note_on_c, 13, 58, 76
15, 203380, Control_c, 13, 11, 105
15, 203480, Control_c, 13, 11, 107
15, 203489, Note_on_c, 13, 53, 0
15, 203489, Note_on_c, 13, 58, 0
15, 203520, Note_on_c, 13, 53, 76
15, 203520, Note_on_c, 13, 60, 76
15, 203580, Control_c, 13, 11, 109
15, 203680, Control_c, 13, 11, 111
15, 203780, Control_c, 13, 11, 113
15, 203880, Control_c, 13, 11, 115
15, 203969, Note_on_c, 13, 53, 0
15, 203969, Note_on_c, 13, 60, 0
15, 203980, Control_c, 13, 11, 117
15, 204000, Note_on_c, 13, 53, 76
15, 204080, Control_c, 13, 11, 119
15, 204180, Control_c, 13, 11, 121
15, 204239, Note_on_c, 13, 53, 0
15, 204240, Note_on_c, 13, 58, 76
15, 204280, Control_c, 13, 11, 123
15, 204359, Note_on_c, 13, 58, 0
15, 204380, Control_c, 13, 11, 125
15, 204480, Note_on_c, 13, 60, 76
15, 204480, Control_c, 13, 11, 127
15, 204659, Note_on_c, 13, 60, 0
15, 204720, Note_on_c, 13, 53, 84
15, 204720, Note_on_c, 13, 60, 84
15, 205409, Note_on_c, 13, 53, 0
15, 205409, Note_on_c, 13, 60, 0
15, 205440, Note_on_c, 13, 60, 84
15, 205440, Note_on_c, 13, 53, 84
15, 206129, Note_on_c, 13, 60, 0
15, 206129, Note_on_c, 13, 53, 0
15, 206160, Note_on_c, 13, 60, 84
15, 206160, Note_on_c, 13, 53, 84
15, 206369, Note_on_c, 13, 60, 0
15, 206369, Note_on_c, 13, 53, 0
15, 206400, Note_on_c, 13, 60, 84
15, 206400, Note_on_c, 13, 53, 84
15, 206609, Note_on_c, 13, 60, 0
15, 206609, Note_on_c, 13, 53, 0
15, 206640, Note_on_c, 13, 60, 84
15, 206640, Note_on_c, 13, 53, 84
15, 206849, Note_on_c, 13, 60, 0
15, 206849, Note_on_c, 13, 53, 0
15, 206880, Note_on_c, 13, 60, 84
15, 206880, Note_on_c, 13, 53, 84
15, 207119, Note_on_c, 13, 60, 0
15, 207119, Note_on_c, 13, 53, 0
15, 207600, Note_on_c, 13, 61, 52
15, 207809, Note_on_c, 13, 61, 0
15, 207840, Note_on_c, 13, 61, 52
15, 208289, Note_on_c, 13, 61, 0
15, 208320, Note_on_c, 13, 61, 52
15, 208769, Note_on_c, 13, 61, 0
15, 208800, Note_on_c, 13, 61, 52
15, 209009, Note_on_c, 13, 61, 0
15, 209040, Note_on_c, 13, 63, 52
15, 209489, Note_on_c, 13, 63, 0
15, 209520, Note_on_c, 13, 63, 52
15, 209729, Note_on_c, 13, 63, 0
15, 209760, Note_on_c, 13, 63, 52
15, 209999, Note_on_c, 13, 63, 0
15, 210960, Note_on_c, 13, 56, 52
15, 211199, Note_on_c, 13, 56, 0
15, 211200, Note_on_c, 13, 54, 52
15, 211319, Note_on_c, 13, 54, 0
15, 211440, Note_on_c, 13, 51, 52
15, 211679, Note_on_c, 13, 51, 0
15, 211680, Note_on_c, 13, 48, 52
15, 211889, Note_on_c, 13, 48, 0
15, 211920, Note_on_c, 13, 65, 52
15, 212369, Note_on_c, 13, 65, 0
15, 212400, Note_on_c, 13, 65, 52
15, 212609, Note_on_c, 13, 65, 0
15, 212640, Note_on_c, 13, 65, 52
15, 212879, Note_on_c, 13, 65, 0
15, 213840, Note_on_c, 13, 58, 52
15, 214079, Note_on_c, 13, 58, 0
15, 214080, Note_on_c, 13, 56, 52
15, 214199, Note_on_c, 13, 56, 0
15, 214320, Note_on_c, 13, 53, 52
15, 214559, Note_on_c, 13, 53, 0
15, 214560, Note_on_c, 13, 49, 52
15, 214769, Note_on_c, 13, 49, 0
15, 214800, Note_on_c, 13, 50, 52
15, 215009, Note_on_c, 13, 50, 0
15, 215040, Note_on_c, 13, 65, 52
15, 215249, Note_on_c, 13, 65, 0
15, 215280, Note_on_c, 13, 65, 52
15, 215489, Note_on_c, 13, 65, 0
15, 215520, Note_on_c, 13, 65, 52
15, 215759, Note_on_c, 13, 65, 0
15, 216720, Note_on_c, 13, 58, 52
15, 216959, Note_on_c, 13, 58, 0
15, 216960, Note_on_c, 13, 56, 52
15, 217079, Note_on_c, 13, 56, 0
15, 217200, Note_on_c, 13, 53, 52
15, 217439, Note_on_c, 13, 53, 0
15, 217440, Note_on_c, 13, 50, 52
15, 217649, Note_on_c, 13, 50, 0
15, 217680, Note_on_c, 13, 51, 52
15, 217919, Note_on_c, 13, 51, 0
15, 219360, Note_on_c, 13, 69, 52
15, 219599, Note_on_c, 13, 69, 0
15, 219600, Note_on_c, 13, 72, 52
15, 219719, Note_on_c, 13, 72, 0
15, 219840, Note_on_c, 13, 69, 52
15, 220079, Note_on_c, 13, 69, 0
15, 220080, Note_on_c, 13, 72, 52
15, 220199, Note_on_c, 13, 72, 0
15, 220320, Note_on_c, 13, 69, 52
15, 220559, Note_on_c, 13, 69, 0
15, 220560, Note_on_c, 13, 70, 52
15, 220799, Note_on_c, 13, 70, 0
15, 222240, Note_on_c, 13, 64, 52
15, 222479, Note_on_c, 13, 64, 0
15, 222480, Note_on_c, 13, 67, 52
15, 222599, Note_on_c, 13, 67, 0
15, 222720, Note_on_c, 13, 64, 52
15, 222959, Note_on_c, 13, 64, 0
15, 222960, Note_on_c, 13, 67, 52
15, 223079, Note_on_c, 13, 67, 0
15, 223200, Note_on_c, 13, 64, 52
15, 223439, Note_on_c, 13, 64, 0
15, 223440, Note_on_c, 13, 65, 52
15, 223679, Note_on_c, 13, 65, 0
15, 224400, Note_on_c, 13, 59, 52
15, 224639, Note_on_c, 13, 59, 0
15, 224640, Note_on_c, 13, 55, 52
15, 224759, Note_on_c, 13, 55, 0
15, 224880, Note_on_c, 13, 60, 52
15, 225119, Note_on_c, 13, 60, 0
15, 225840, Note_on_c, 13, 66, 52
15, 226079, Note_on_c, 13, 66, 0
15, 226080, Note_on_c, 13, 62, 52
15, 226199, Note_on_c, 13, 62, 0
15, 226320, Note_on_c, 13, 67, 52
15, 226559, Note_on_c, 13, 67, 0
15, 227280, Note_on_c, 13, 61, 52
15, 227519, Note_on_c, 13, 61, 0
15, 227520, Note_on_c, 13, 57, 52
15, 227639, Note_on_c, 13, 57, 0
15, 227758, Control_c, 13, 11, 80
15, 227760, Note_on_c, 13, 62, 76
15, 227760, Control_c, 13, 11, 80
15, 227870, Control_c, 13, 11, 82
15, 227980, Control_c, 13, 11, 84
15, 227999, Note_on_c, 13, 62, 0
15, 228000, Note_on_c, 13, 57, 76
15, 228090, Control_c, 13, 11, 86
15, 228200, Control_c, 13, 11, 88
15, 228239, Note_on_c, 13, 57, 0
15, 228240, Note_on_c, 13, 62, 76
15, 228310, Control_c, 13, 11, 90
15, 228359, Note_on_c, 13, 62, 0
15, 228420, Control_c, 13, 11, 92
15, 228480, Note_on_c, 13, 57, 76
15, 228530, Control_c, 13, 11, 94
15, 228640, Control_c, 13, 11, 96
15, 228719, Note_on_c, 13, 57, 0
15, 228720, Note_on_c, 13, 60, 76
15, 228750, Control_c, 13, 11, 98
15, 228839, Note_on_c, 13, 60, 0
15, 228860, Control_c, 13, 11, 100
15, 228960, Note_on_c, 13, 60, 76
15, 228970, Control_c, 13, 11, 102
15, 229080, Control_c, 13, 11, 104
15, 229190, Control_c, 13, 11, 105
15, 229199, Note_on_c, 13, 60, 0
15, 229200, Note_on_c, 13, 63, 76
15, 229300, Control_c, 13, 11, 107
15, 229319, Note_on_c, 13, 63, 0
15, 229410, Control_c, 13, 11, 109
15, 229440, Note_on_c, 13, 63, 76
15, 229520, Control_c, 13, 11, 111
15, 229630, Control_c, 13, 11, 113
15, 229679, Note_on_c, 13, 63, 0
15, 229680, Note_on_c, 13, 69, 76
15, 229740, Control_c, 13, 11, 115
15, 229799, Note_on_c, 13, 69, 0
15, 229850, Control_c, 13, 11, 117
15, 229920, Note_on_c, 13, 69, 76
15, 229960, Control_c, 13, 11, 119
15, 230070, Control_c, 13, 11, 121
15, 230159, Note_on_c, 13, 69, 0
15, 230160, Note_on_c, 13, 72, 76
15, 230180, Control_c, 13, 11, 123
15, 230279, Note_on_c, 13, 72, 0
15, 230290, Control_c, 13, 11, 127
15, 230400, Note_on_c, 13, 60, 76
15, 230639, Note_on_c, 13, 60, 0
15, 230640, Note_on_c, 13, 58, 84
15, 230849, Note_on_c, 13, 58, 0
15, 230880, Note_on_c, 13, 58, 84
15, 230880, Note_on_c, 13, 62, 84
15, 231329, Note_on_c, 13, 58, 0
15, 231329, Note_on_c, 13, 62, 0
15, 231360, Note_on_c, 13, 58, 84
15, 231360, Note_on_c, 13, 62, 84
15, 231809, Note_on_c, 13, 58, 0
15, 231809, Note_on_c, 13, 62, 0
15, 231840, Note_on_c, 13, 58, 84
15, 231840, Note_on_c, 13, 62, 84
15, 232049, Note_on_c, 13, 58, 0
15, 232049, Note_on_c, 13, 62, 0
15, 232080, Note_on_c, 13, 60, 84
15, 232080, Note_on_c, 13, 63, 84
15, 232529, Note_on_c, 13, 60, 0
15, 232529, Note_on_c, 13, 63, 0
15, 232560, Note_on_c, 13, 60, 84
15, 232560, Note_on_c, 13, 63, 84
15, 232769, Note_on_c, 13, 60, 0
15, 232769, Note_on_c, 13, 63, 0
15, 232800, Note_on_c, 13, 63, 84
15, 232800, Note_on_c, 13, 60, 84
15, 233039, Note_on_c, 13, 63, 0
15, 233039, Note_on_c, 13, 60, 0
15, 234720, Note_on_c, 13, 66, 52
15, 234959, Note_on_c, 13, 66, 0
15, 234960, Note_on_c, 13, 63, 52
15, 235199, Note_on_c, 13, 63, 0
15, 235200, Note_on_c, 13, 60, 52
15, 235439, Note_on_c, 13, 60, 0
15, 235440, Note_on_c, 13, 57, 52
15, 235679, Note_on_c, 13, 57, 0
15, 235680, Note_on_c, 13, 54, 52
15, 235919, Note_on_c, 13, 54, 0
15, 235920, Note_on_c, 13, 53, 52
15, 236159, Note_on_c, 13, 53, 0
15, 237600, Note_on_c, 13, 68, 52
15, 237839, Note_on_c, 13, 68, 0
15, 237840, Note_on_c, 13, 65, 52
15, 238079, Note_on_c, 13, 65, 0
15, 238080, Note_on_c, 13, 62, 52
15, 238319, Note_on_c, 13, 62, 0
15, 238320, Note_on_c, 13, 59, 52
15, 238559, Note_on_c, 13, 59, 0
15, 238560, Note_on_c, 13, 56, 52
15, 238799, Note_on_c, 13, 56, 0
15, 238800, Note_on_c, 13, 55, 52
15, 239009, Note_on_c, 13, 55, 0
15, 239040, Note_on_c, 13, 61, 52
15, 239279, Note_on_c, 13, 61, 0
15, 239280, Note_on_c, 13, 58, 52
15, 239519, Note_on_c, 13, 58, 0
15, 239520, Note_on_c, 13, 55, 52
15, 239759, Note_on_c, 13, 55, 0
15, 239760, Note_on_c, 13, 52, 52
15, 239999, Note_on_c, 13, 52, 0
15, 240000, Note_on_c, 13, 49, 52
15, 240239, Note_on_c, 13, 49, 0
15, 240240, Note_on_c, 13, 48, 52
15, 240449, Note_on_c, 13, 48, 0
15, 240478, Control_c, 13, 11, 96
15, 240480, Note_on_c, 13, 52, 68
15, 240719, Note_on_c, 13, 52, 0
15, 240720, Note_on_c, 13, 53, 68
15, 242159, Note_on_c, 13, 53, 0
15, 242160, Control_c, 13, 11, 96
15, 242160, Note_on_c, 13, 53, 68
15, 242240, Control_c, 13, 11, 99
15, 242320, Control_c, 13, 11, 101
15, 242400, Control_c, 13, 11, 104
15, 242480, Control_c, 13, 11, 106
15, 242560, Control_c, 13, 11, 109
15, 242640, Control_c, 13, 11, 112
15, 242720, Control_c, 13, 11, 114
15, 242800, Control_c, 13, 11, 117
15, 242880, Control_c, 13, 11, 119
15, 242960, Control_c, 13, 11, 122
15, 243040, Control_c, 13, 11, 127
15, 243329, Note_on_c, 13, 53, 0
15, 243360, Note_on_c, 13, 54, 76
15, 243598, Control_c, 13, 11, 96
15, 243599, Note_on_c, 13, 54, 0
15, 243600, Note_on_c, 13, 53, 68
15, 245039, Note_on_c, 13, 53, 0
15, 245040, Note_on_c, 13, 53, 68
15, 245040, Control_c, 13, 11, 96
15, 245120, Control_c, 13, 11, 99
15, 245200, Control_c, 13, 11, 101
15, 245280, Control_c, 13, 11, 104
15, 245360, Control_c, 13, 11, 106
15, 245440, Control_c, 13, 11, 109
15, 245520, Control_c, 13, 11, 112
15, 245600, Control_c, 13, 11, 114
15, 245680, Control_c, 13, 11, 117
15, 245760, Control_c, 13, 11, 119
15, 245840, Control_c, 13, 11, 122
15, 245920, Control_c, 13, 11, 127
15, 246209, Note_on_c, 13, 53, 0
15, 246240, Note_on_c, 13, 54, 76
15, 246479, Note_on_c, 13, 54, 0
15, 246480, Note_on_c, 13, 53, 68
15, 246689, Note_on_c, 13, 53, 0
15, 246720, Note_on_c, 13, 65, 76
15, 247169, Note_on_c, 13, 65, 0
15, 247200, Note_on_c, 13, 67, 76
15, 247649, Note_on_c, 13, 67, 0
15, 247680, Note_on_c, 13, 63, 76
15, 247859, Note_on_c, 13, 63, 0
15, 247920, Note_on_c, 13, 62, 84
15, 248609, Note_on_c, 13, 62, 0
15, 248640, Note_on_c, 13, 63, 84
15, 248640, Note_on_c, 13, 60, 84
15, 249329, Note_on_c, 13, 63, 0
15, 249329, Note_on_c, 13, 60, 0
15, 249360, Note_on_c, 13, 62, 84
15, 249360, Note_on_c, 13, 58, 84
15, 249464, Note_on_c, 13, 62, 0
15, 249464, Note_on_c, 13, 58, 0
15, 249480, Note_on_c, 13, 62, 84
15, 249480, Note_on_c, 13, 58, 84
15, 249584, Note_on_c, 13, 62, 0
15, 249584, Note_on_c, 13, 58, 0
15, 249600, Note_on_c, 13, 62, 84
15, 249600, Note_on_c, 13, 58, 84
15, 249704, Note_on_c, 13, 62, 0
15, 249704, Note_on_c, 13, 58, 0
15, 249720, Note_on_c, 13, 62, 84
15, 249720, Note_on_c, 13, 58, 84
15, 249824, Note_on_c, 13, 62, 0
15, 249824, Note_on_c, 13, 58, 0
15, 249840, Note_on_c, 13, 62, 84
15, 249840, Note_on_c, 13, 58, 84
15, 249944, Note_on_c, 13, 62, 0
15, 249944, Note_on_c, 13, 58, 0
15, 249960, Note_on_c, 13, 62, 84
15, 249960, Note_on_c, 13, 58, 84
15, 250064, Note_on_c, 13, 62, 0
15, 250064, Note_on_c, 13, 58, 0
15, 250080, Note_on_c, 13, 62, 84
15, 250080, Note_on_c, 13, 58, 84
15, 250184, Note_on_c, 13, 62, 0
15, 250184, Note_on_c, 13, 58, 0
15, 250200, Note_on_c, 13, 62, 84
15, 250200, Note_on_c, 13, 58, 84
15, 250304, Note_on_c, 13, 62, 0
15, 250304, Note_on_c, 13, 58, 0
15, 250320, Note_on_c, 13, 62, 84
15, 250320, Note_on_c, 13, 58, 84
15, 250424, Note_on_c, 13, 62, 0
15, 250424, Note_on_c, 13, 58, 0
15, 250440, Note_on_c, 13, 58, 84
15, 250440, Note_on_c, 13, 62, 84
15, 250544, Note_on_c, 13, 58, 0
15, 250544, Note_on_c, 13, 62, 0
15, 250560, Note_on_c, 13, 58, 84
15, 250560, Note_on_c, 13, 62, 84
15, 250664, Note_on_c, 13, 58, 0
15, 250664, Note_on_c, 13, 62, 0
15, 250680, Note_on_c, 13, 58, 84
15, 250680, Note_on_c, 13, 62, 84
15, 250784, Note_on_c, 13, 58, 0
15, 250784, Note_on_c, 13, 62, 0
15, 250800, Note_on_c, 13, 63, 84
15, 250800, Note_on_c, 13, 60, 84
15, 250904, Note_on_c, 13, 63, 0
15, 250904, Note_on_c, 13, 60, 0
15, 250920, Note_on_c, 13, 63, 84
15, 250920, Note_on_c, 13, 60, 84
15, 251024, Note_on_c, 13, 63, 0
15, 251024, Note_on_c, 13, 60, 0
15, 251040, Note_on_c, 13, 60, 84
15, 251040, Note_on_c, 13, 63, 84
15, 251144, Note_on_c, 13, 60, 0
15, 251144, Note_on_c, 13, 63, 0
15, 251160, Note_on_c, 13, 63, 84
15, 251160, Note_on_c, 13, 60, 84
15, 251264, Note_on_c, 13, 63, 0
15, 251264, Note_on_c, 13, 60, 0
15, 251280, Note_on_c, 13, 63, 84
15, 251280, Note_on_c, 13, 60, 84
15, 251384, Note_on_c, 13, 63, 0
15, 251384, Note_on_c, 13, 60, 0
15, 251400, Note_on_c, 13, 60, 84
15, 251400, Note_on_c, 13, 63, 84
15, 251504, Note_on_c, 13, 60, 0
15, 251504, Note_on_c, 13, 63, 0
15, 251520, Note_on_c, 13, 63, 84
15, 251520, Note_on_c, 13, 60, 84
15, 251624, Note_on_c, 13, 63, 0
15, 251624, Note_on_c, 13, 60, 0
15, 251640, Note_on_c, 13, 60, 84
15, 251640, Note_on_c, 13, 63, 84
15, 251744, Note_on_c, 13, 60, 0
15, 251744, Note_on_c, 13, 63, 0
15, 251760, Note_on_c, 13, 63, 84
15, 251760, Note_on_c, 13, 60, 84
15, 251864, Note_on_c, 13, 63, 0
15, 251864, Note_on_c, 13, 60, 0
15, 251880, Note_on_c, 13, 63, 84
15, 251880, Note_on_c, 13, 60, 84
15, 251984, Note_on_c, 13, 63, 0
15, 251984, Note_on_c, 13, 60, 0
15, 252000, Note_on_c, 13, 60, 84
15, 252000, Note_on_c, 13, 63, 84
15, 252104, Note_on_c, 13, 60, 0
15, 252104, Note_on_c, 13, 63, 0
15, 252120, Note_on_c, 13, 60, 84
15, 252120, Note_on_c, 13, 63, 84
15, 252224, Note_on_c, 13, 60, 0
15, 252224, Note_on_c, 13, 63, 0
15, 252240, Note_on_c, 13, 62, 84
15, 252240, Note_on_c, 13, 58, 84
15, 252344, Note_on_c, 13, 62, 0
15, 252344, Note_on_c, 13, 58, 0
15, 252360, Note_on_c, 13, 58, 84
15, 252360, Note_on_c, 13, 62, 84
15, 252464, Note_on_c, 13, 58, 0
15, 252464, Note_on_c, 13, 62, 0
15, 252480, Note_on_c, 13, 58, 84
15, 252480, Note_on_c, 13, 62, 84
15, 252584, Note_on_c, 13, 58, 0
15, 252584, Note_on_c, 13, 62, 0
15, 252600, Note_on_c, 13, 62, 84
15, 252600, Note_on_c, 13, 58, 84
15, 252704, Note_on_c, 13, 62, 0
15, 252704, Note_on_c, 13, 58, 0
15, 252720, Note_on_c, 13, 62, 84
15, 252720, Note_on_c, 13, 58, 84
15, 252824, Note_on_c, 13, 62, 0
15, 252824, Note_on_c, 13, 58, 0
15, 252840, Note_on_c, 13, 58, 84
15, 252840, Note_on_c, 13, 62, 84
15, 252944, Note_on_c, 13, 58, 0
15, 252944, Note_on_c, 13, 62, 0
15, 252960, Note_on_c, 13, 62, 84
15, 252960, Note_on_c, 13, 58, 84
15, 253064, Note_on_c, 13, 62, 0
15, 253064, Note_on_c, 13, 58, 0
15, 253080, Note_on_c, 13, 58, 84
15, 253080, Note_on_c, 13, 62, 84
15, 253184, Note_on_c, 13, 58, 0
15, 253184, Note_on_c, 13, 62, 0
15, 253200, Note_on_c, 13, 62, 84
15, 253200, Note_on_c, 13, 58, 84
15, 253304, Note_on_c, 13, 62, 0
15, 253304, Note_on_c, 13, 58, 0
15, 253320, Note_on_c, 13, 62, 84
15, 253320, Note_on_c, 13, 58, 84
15, 253424, Note_on_c, 13, 62, 0
15, 253424, Note_on_c, 13, 58, 0
15, 253440, Note_on_c, 13, 58, 84
15, 253440, Note_on_c, 13, 62, 84
15, 253544, Note_on_c, 13, 58, 0
15, 253544, Note_on_c, 13, 62, 0
15, 253560, Note_on_c, 13, 58, 84
15, 253560, Note_on_c, 13, 62, 84
15, 253664, Note_on_c, 13, 58, 0
15, 253664, Note_on_c, 13, 62, 0
15, 253680, Note_on_c, 13, 60, 84
15, 253680, Note_on_c, 13, 63, 84
15, 253784, Note_on_c, 13, 60, 0
15, 253784, Note_on_c, 13, 63, 0
15, 253800, Note_on_c, 13, 63, 84
15, 253800, Note_on_c, 13, 60, 84
15, 253904, Note_on_c, 13, 63, 0
15, 253904, Note_on_c, 13, 60, 0
15, 253920, Note_on_c, 13, 60, 84
15, 253920, Note_on_c, 13, 63, 84
15, 254024, Note_on_c, 13, 60, 0
15, 254024, Note_on_c, 13, 63, 0
15, 254040, Note_on_c, 13, 63, 84
15, 254040, Note_on_c, 13, 60, 84
15, 254144, Note_on_c, 13, 63, 0
15, 254144, Note_on_c, 13, 60, 0
15, 254160, Note_on_c, 13, 60, 84
15, 254160, Note_on_c, 13, 63, 84
15, 254264, Note_on_c, 13, 60, 0
15, 254264, Note_on_c, 13, 63, 0
15, 254280, Note_on_c, 13, 60, 84
15, 254280, Note_on_c, 13, 63, 84
15, 254384, Note_on_c, 13, 60, 0
15, 254384, Note_on_c, 13, 63, 0
15, 254400, Note_on_c, 13, 63, 84
15, 254400, Note_on_c, 13, 60, 84
15, 254504, Note_on_c, 13, 63, 0
15, 254504, Note_on_c, 13, 60, 0
15, 254520, Note_on_c, 13, 60, 84
15, 254520, Note_on_c, 13, 63, 84
15, 254624, Note_on_c, 13, 60, 0
15, 254624, Note_on_c, 13, 63, 0
15, 254640, Note_on_c, 13, 63, 84
15, 254640, Note_on_c, 13, 60, 84
15, 254744, Note_on_c, 13, 63, 0
15, 254744, Note_on_c, 13, 60, 0
15, 254760, Note_on_c, 13, 60, 84
15, 254760, Note_on_c, 13, 63, 84
15, 254864, Note_on_c, 13, 60, 0
15, 254864, Note_on_c, 13, 63, 0
15, 254880, Note_on_c, 13, 63, 84
15, 254880, Note_on_c, 13, 60, 84
15, 254984, Note_on_c, 13, 63, 0
15, 254984, Note_on_c, 13, 60, 0
15, 255000, Note_on_c, 13, 60, 84
15, 255000, Note_on_c, 13, 63, 84
15, 255104, Note_on_c, 13, 60, 0
15, 255104, Note_on_c, 13, 63, 0
15, 255120, Note_on_c, 13, 58, 76
15, 255120, Note_on_c, 13, 62, 76
15, 255809, Note_on_c, 13, 58, 0
15, 255809, Note_on_c, 13, 62, 0
15, 255840, Note_on_c, 13, 58, 76
15, 255840, Note_on_c, 13, 62, 76
15, 256529, Note_on_c, 13, 58, 0
15, 256529, Note_on_c, 13, 62, 0
15, 256560, Note_on_c, 13, 58, 76
15, 256560, Note_on_c, 13, 62, 76
15, 256769, Note_on_c, 13, 58, 0
15, 256769, Note_on_c, 13, 62, 0
15, 256800, Note_on_c, 13, 62, 76
15, 256800, Note_on_c, 13, 58, 76
15, 257009, Note_on_c, 13, 62, 0
15, 257009, Note_on_c, 13, 58, 0
15, 257040, Note_on_c, 13, 62, 76
15, 257040, Note_on_c, 13, 58, 76
15, 257249, Note_on_c, 13, 62, 0
15, 257249, Note_on_c, 13, 58, 0
15, 257280, Note_on_c, 13, 58, 76
15, 257280, Note_on_c, 13, 62, 76
15, 257519, Note_on_c, 13, 58, 0
15, 257519, Note_on_c, 13, 62, 0
15, 267360, Control_c, 13, 11, 96
15, 267840, Note_on_c, 13, 51, 68
15, 268079, Note_on_c, 13, 51, 0
15, 268080, Note_on_c, 13, 53, 68
15, 268080, Control_c, 13, 11, 96
15, 268140, Control_c, 13, 11, 99
15, 268200, Control_c, 13, 11, 101
15, 268260, Control_c, 13, 11, 104
15, 268320, Control_c, 13, 11, 106
15, 268380, Control_c, 13, 11, 109
15, 268440, Control_c, 13, 11, 112
15, 268500, Control_c, 13, 11, 114
15, 268559, Note_on_c, 13, 53, 0
15, 268560, Note_on_c, 13, 55, 68
15, 268560, Control_c, 13, 11, 117
15, 268620, Control_c, 13, 11, 119
15, 268680, Control_c, 13, 11, 122
15, 268740, Control_c, 13, 11, 127
15, 268800, Control_c, 13, 11, 127
15, 268860, Control_c, 13, 11, 124
15, 268920, Control_c, 13, 11, 122
15, 268980, Control_c, 13, 11, 119
15, 269039, Note_on_c, 13, 55, 0
15, 269040, Note_on_c, 13, 57, 68
15, 269040, Control_c, 13, 11, 117
15, 269100, Control_c, 13, 11, 114
15, 269159, Note_on_c, 13, 57, 0
15, 269160, Control_c, 13, 11, 112
15, 269160, Note_on_c, 13, 53, 68
15, 269220, Control_c, 13, 11, 109
15, 269279, Note_on_c, 13, 53, 0
15, 269280, Control_c, 13, 11, 106
15, 269280, Note_on_c, 13, 58, 68
15, 269340, Control_c, 13, 11, 104
15, 269400, Control_c, 13, 11, 101
15, 269460, Control_c, 13, 11, 96
15, 269489, Note_on_c, 13, 58, 0
15, 269520, Note_on_c, 13, 58, 68
15, 269759, Note_on_c, 13, 58, 0
15, 282240, Program_c, 13, 45
15, 282240, Control_c, 13, 11, 127
15, 282480, Note_on_c, 13, 57, 48
15, 282719, Note_on_c, 13, 57, 0
15, 285360, Note_on_c, 13, 57, 48
15, 285599, Note_on_c, 13, 57, 0
15, 286080, Program_c, 13, 48
15, 286440, Note_on_c, 13, 59, 44
15, 286559, Note_on_c, 13, 59, 0
15, 286560, Note_on_c, 13, 60, 44
15, 286679, Note_on_c, 13, 60, 0
15, 286680, Note_on_c, 13, 59, 44
15, 286784, Note_on_c, 13, 59, 0
15, 286800, Note_on_c, 13, 60, 44
15, 286979, Note_on_c, 13, 60, 0
15, 287160, Note_on_c, 13, 59, 44
15, 287279, Note_on_c, 13, 59, 0
15, 287280, Note_on_c, 13, 60, 44
15, 287399, Note_on_c, 13, 60, 0
15, 287400, Note_on_c, 13, 59, 44
15, 287504, Note_on_c, 13, 59, 0
15, 287520, Note_on_c, 13, 60, 44
15, 287699, Note_on_c, 13, 60, 0
15, 287880, Note_on_c, 13, 59, 44
15, 287999, Note_on_c, 13, 59, 0
15, 288000, Note_on_c, 13, 60, 44
15, 288119, Note_on_c, 13, 60, 0
15, 288120, Note_on_c, 13, 59, 44
15, 288224, Note_on_c, 13, 59, 0
15, 288240, Note_on_c, 13, 60, 44
15, 288419, Note_on_c, 13, 60, 0
15, 289320, Note_on_c, 13, 53, 44
15, 289439, Note_on_c, 13, 53, 0
15, 289440, Note_on_c, 13, 54, 44
15, 289559, Note_on_c, 13, 54, 0
15, 289560, Note_on_c, 13, 53, 44
15, 289664, Note_on_c, 13, 53, 0
15, 289680, Note_on_c, 13, 54, 44
15, 289859, Note_on_c, 13, 54, 0
15, 290040, Note_on_c, 13, 53, 45
15, 290159, Note_on_c, 13, 53, 0
15, 290160, Note_on_c, 13, 54, 45
15, 290279, Note_on_c, 13, 54, 0
15, 290280, Note_on_c, 13, 53, 46
15, 290384, Note_on_c, 13, 53, 0
15, 290400, Note_on_c, 13, 54, 46
15, 290579, Note_on_c, 13, 54, 0
15, 290760, Note_on_c, 13, 53, 47
15, 290879, Note_on_c, 13, 53, 0
15, 290880, Note_on_c, 13, 54, 47
15, 290999, Note_on_c, 13, 54, 0
15, 291000, Note_on_c, 13, 53, 48
15, 291119, Note_on_c, 13, 53, 0
15, 291120, Note_on_c, 13, 54, 48
15, 291239, Note_on_c, 13, 54, 0
15, 291240, Note_on_c, 13, 52, 48
15, 291359, Note_on_c, 13, 52, 0
15, 291360, Note_on_c, 13, 53, 49
15, 291479, Note_on_c, 13, 53, 0
15, 291480, Note_on_c, 13, 52, 49
15, 291599, Note_on_c, 13, 52, 0
15, 291600, Note_on_c, 13, 53, 49
15, 291719, Note_on_c, 13, 53, 0
15, 291720, Note_on_c, 13, 52, 49
15, 291839, Note_on_c, 13, 52, 0
15, 291840, Note_on_c, 13, 53, 50
15, 291959, Note_on_c, 13, 53, 0
15, 291960, Note_on_c, 13, 57, 50
15, 292079, Note_on_c, 13, 57, 0
15, 292080, Note_on_c, 13, 58, 50
15, 292199, Note_on_c, 13, 58, 0
15, 292200, Note_on_c, 13, 57, 51
15, 292319, Note_on_c, 13, 57, 0
15, 292320, Note_on_c, 13, 58, 51
15, 292439, Note_on_c, 13, 58, 0
15, 292440, Note_on_c, 13, 57, 51
15, 292559, Note_on_c, 13, 57, 0
15, 292560, Note_on_c, 13, 58, 52
15, 292679, Note_on_c, 13, 58, 0
15, 292680, Note_on_c, 13, 57, 52
15, 292799, Note_on_c, 13, 57, 0
15, 292800, Note_on_c, 13, 58, 52
15, 292919, Note_on_c, 13, 58, 0
15, 292920, Note_on_c, 13, 57, 53
15, 293039, Note_on_c, 13, 57, 0
15, 293040, Note_on_c, 13, 58, 53
15, 293159, Note_on_c, 13, 58, 0
15, 293160, Note_on_c, 13, 57, 53
15, 293279, Note_on_c, 13, 57, 0
15, 293280, Note_on_c, 13, 58, 54
15, 293399, Note_on_c, 13, 58, 0
15, 293400, Note_on_c, 13, 57, 54
15, 293519, Note_on_c, 13, 57, 0
15, 293520, Note_on_c, 13, 58, 54
15, 293639, Note_on_c, 13, 58, 0
15, 293640, Note_on_c, 13, 57, 54
15, 293759, Note_on_c, 13, 57, 0
15, 293760, Note_on_c, 13, 58, 55
15, 293879, Note_on_c, 13, 58, 0
15, 293880, Note_on_c, 13, 57, 55
15, 293984, Note_on_c, 13, 57, 0
15, 294000, Note_on_c, 13, 58, 55
15, 294119, Note_on_c, 13, 58, 0
15, 294120, Note_on_c, 13, 57, 56
15, 294239, Note_on_c, 13, 57, 0
15, 294240, Note_on_c, 13, 58, 56
15, 294359, Note_on_c, 13, 58, 0
15, 294360, Note_on_c, 13, 57, 56
15, 294479, Note_on_c, 13, 57, 0
15, 294480, Note_on_c, 13, 58, 57
15, 294599, Note_on_c, 13, 58, 0
15, 294600, Note_on_c, 13, 57, 57
15, 294719, Note_on_c, 13, 57, 0
15, 294720, Note_on_c, 13, 58, 57
15, 294839, Note_on_c, 13, 58, 0
15, 294840, Note_on_c, 13, 57, 58
15, 294959, Note_on_c, 13, 57, 0
15, 294960, Note_on_c, 13, 58, 58
15, 295079, Note_on_c, 13, 58, 0
15, 295080, Note_on_c, 13, 57, 58
15, 295199, Note_on_c, 13, 57, 0
15, 295200, Note_on_c, 13, 58, 59
15, 295319, Note_on_c, 13, 58, 0
15, 295320, Note_on_c, 13, 57, 59
15, 295439, Note_on_c, 13, 57, 0
15, 295440, Note_on_c, 13, 58, 59
15, 295559, Note_on_c, 13, 58, 0
15, 295560, Note_on_c, 13, 57, 59
15, 295679, Note_on_c, 13, 57, 0
15, 295680, Note_on_c, 13, 58, 60
15, 295799, Note_on_c, 13, 58, 0
15, 295800, Note_on_c, 13, 57, 60
15, 295919, Note_on_c, 13, 57, 0
15, 295920, Note_on_c, 13, 58, 60
15, 296039, Note_on_c, 13, 58, 0
15, 296040, Note_on_c, 13, 57, 61
15, 296159, Note_on_c, 13, 57, 0
15, 296160, Note_on_c, 13, 58, 61
15, 296279, Note_on_c, 13, 58, 0
15, 296280, Note_on_c, 13, 57, 61
15, 296399, Note_on_c, 13, 57, 0
15, 296400, Note_on_c, 13, 58, 62
15, 296519, Note_on_c, 13, 58, 0
15, 296520, Note_on_c, 13, 57, 62
15, 296639, Note_on_c, 13, 57, 0
15, 296640, Note_on_c, 13, 58, 62
15, 296759, Note_on_c, 13, 58, 0
15, 296760, Note_on_c, 13, 57, 63
15, 296864, Note_on_c, 13, 57, 0
15, 296880, Note_on_c, 13, 58, 63
15, 296999, Note_on_c, 13, 58, 0
15, 297000, Note_on_c, 13, 57, 63
15, 297119, Note_on_c, 13, 57, 0
15, 297120, Note_on_c, 13, 58, 64
15, 297239, Note_on_c, 13, 58, 0
15, 297240, Note_on_c, 13, 57, 64
15, 297359, Note_on_c, 13, 57, 0
15, 297360, Note_on_c, 13, 58, 64
15, 297479, Note_on_c, 13, 58, 0
15, 297480, Note_on_c, 13, 57, 64
15, 297599, Note_on_c, 13, 57, 0
15, 297600, Note_on_c, 13, 58, 65
15, 297719, Note_on_c, 13, 58, 0
15, 297720, Note_on_c, 13, 57, 65
15, 297839, Note_on_c, 13, 57, 0
15, 297840, Note_on_c, 13, 58, 65
15, 297959, Note_on_c, 13, 58, 0
15, 297960, Note_on_c, 13, 57, 66
15, 298079, Note_on_c, 13, 57, 0
15, 298080, Note_on_c, 13, 58, 66
15, 298199, Note_on_c, 13, 58, 0
15, 298200, Note_on_c, 13, 57, 66
15, 298319, Note_on_c, 13, 57, 0
15, 298320, Note_on_c, 13, 58, 67
15, 298439, Note_on_c, 13, 58, 0
15, 298440, Note_on_c, 13, 57, 67
15, 298559, Note_on_c, 13, 57, 0
15, 298560, Note_on_c, 13, 58, 67
15, 298679, Note_on_c, 13, 58, 0
15, 298680, Note_on_c, 13, 57, 68
15, 298799, Note_on_c, 13, 57, 0
15, 298800, Note_on_c, 13, 58, 68
15, 298919, Note_on_c, 13, 58, 0
15, 298920, Note_on_c, 13, 57, 68
15, 299039, Note_on_c, 13, 57, 0
15, 299040, Note_on_c, 13, 58, 69
15, 299159, Note_on_c, 13, 58, 0
15, 299160, Note_on_c, 13, 57, 69
15, 299279, Note_on_c, 13, 57, 0
15, 299280, Note_on_c, 13, 58, 69
15, 299399, Note_on_c, 13, 58, 0
15, 299400, Note_on_c, 13, 57, 69
15, 299519, Note_on_c, 13, 57, 0
15, 299520, Note_on_c, 13, 58, 70
15, 299639, Note_on_c, 13, 58, 0
15, 299640, Note_on_c, 13, 57, 70
15, 299744, Note_on_c, 13, 57, 0
15, 299760, Note_on_c, 13, 58, 70
15, 299879, Note_on_c, 13, 58, 0
15, 299880, Note_on_c, 13, 57, 71
15, 299999, Note_on_c, 13, 57, 0
15, 300000, Note_on_c, 13, 58, 71
15, 300119, Note_on_c, 13, 58, 0
15, 300120, Note_on_c, 13, 57, 71
15, 300239, Note_on_c, 13, 57, 0
15, 300240, Note_on_c, 13, 58, 72
15, 300359, Note_on_c, 13, 58, 0
15, 300360, Note_on_c, 13, 56, 72
15, 300479, Note_on_c, 13, 56, 0
15, 300480, Note_on_c, 13, 58, 72
15, 300599, Note_on_c, 13, 58, 0
15, 300600, Note_on_c, 13, 55, 73
15, 300719, Note_on_c, 13, 55, 0
15, 300720, Note_on_c, 13, 58, 73
15, 300839, Note_on_c, 13, 58, 0
15, 300840, Note_on_c, 13, 55, 73
15, 300959, Note_on_c, 13, 55, 0
15, 300960, Note_on_c, 13, 58, 74
15, 301079, Note_on_c, 13, 58, 0
15, 301080, Note_on_c, 13, 53, 74
15, 301199, Note_on_c, 13, 53, 0
15, 301200, Note_on_c, 13, 58, 74
15, 301319, Note_on_c, 13, 58, 0
15, 301320, Note_on_c, 13, 51, 74
15, 301439, Note_on_c, 13, 51, 0
15, 301440, Note_on_c, 13, 58, 75
15, 301559, Note_on_c, 13, 58, 0
15, 301560, Note_on_c, 13, 51, 75
15, 301679, Note_on_c, 13, 51, 0
15, 301680, Note_on_c, 13, 58, 75
15, 301799, Note_on_c, 13, 58, 0
15, 301800, Note_on_c, 13, 51, 76
15, 301919, Note_on_c, 13, 51, 0
15, 301920, Note_on_c, 13, 58, 76
15, 302039, Note_on_c, 13, 58, 0
15, 302040, Note_on_c, 13, 51, 76
15, 302159, Note_on_c, 13, 51, 0
15, 302160, Note_on_c, 13, 58, 77
15, 302279, Note_on_c, 13, 58, 0
15, 302280, Note_on_c, 13, 51, 77
15, 302399, Note_on_c, 13, 51, 0
15, 302400, Note_on_c, 13, 58, 77
15, 302519, Note_on_c, 13, 58, 0
15, 302520, Note_on_c, 13, 53, 78
15, 302624, Note_on_c, 13, 53, 0
15, 302640, Note_on_c, 13, 53, 78
15, 302729, Note_on_c, 13, 53, 0
15, 302760, Note_on_c, 13, 57, 78
15, 302879, Note_on_c, 13, 57, 0
15, 302880, Note_on_c, 13, 55, 79
15, 302999, Note_on_c, 13, 55, 0
15, 303000, Note_on_c, 13, 57, 79
15, 303119, Note_on_c, 13, 57, 0
15, 303120, Note_on_c, 13, 60, 79
15, 303239, Note_on_c, 13, 60, 0
15, 303240, Note_on_c, 13, 57, 79
15, 303344, Note_on_c, 13, 57, 0
15, 303360, Note_on_c, 13, 53, 80
15, 303449, Note_on_c, 13, 53, 0
15, 303480, Note_on_c, 13, 57, 80
15, 303599, Note_on_c, 13, 57, 0
15, 303600, Note_on_c, 13, 55, 80
15, 303719, Note_on_c, 13, 55, 0
15, 303720, Note_on_c, 13, 57, 81
15, 303839, Note_on_c, 13, 57, 0
15, 303840, Note_on_c, 13, 60, 81
15, 303959, Note_on_c, 13, 60, 0
15, 303960, Note_on_c, 13, 57, 81
15, 304064, Note_on_c, 13, 57, 0
15, 304080, Note_on_c, 13, 58, 82
15, 304199, Note_on_c, 13, 58, 0
15, 304200, Note_on_c, 13, 57, 82
15, 304319, Note_on_c, 13, 57, 0
15, 304320, Note_on_c, 13, 58, 82
15, 304439, Note_on_c, 13, 58, 0
15, 304440, Note_on_c, 13, 57, 83
15, 304559, Note_on_c, 13, 57, 0
15, 304560, Note_on_c, 13, 58, 83
15, 304679, Note_on_c, 13, 58, 0
15, 304680, Note_on_c, 13, 57, 83
15, 304799, Note_on_c, 13, 57, 0
15, 304800, Note_on_c, 13, 58, 84
15, 304919, Note_on_c, 13, 58, 0
15, 304920, Note_on_c, 13, 57, 84
15, 305039, Note_on_c, 13, 57, 0
15, 305040, Note_on_c, 13, 58, 84
15, 305159, Note_on_c, 13, 58, 0
15, 305160, Note_on_c, 13, 57, 84
15, 305279, Note_on_c, 13, 57, 0
15, 305280, Note_on_c, 13, 58, 84
15, 305399, Note_on_c, 13, 58, 0
15, 305400, Note_on_c, 13, 57, 84
15, 305504, Note_on_c, 13, 57, 0
15, 305520, Note_on_c, 13, 58, 84
15, 305639, Note_on_c, 13, 58, 0
15, 305640, Note_on_c, 13, 57, 84
15, 305759, Note_on_c, 13, 57, 0
15, 305760, Note_on_c, 13, 58, 84
15, 305879, Note_on_c, 13, 58, 0
15, 305880, Note_on_c, 13, 57, 84
15, 305999, Note_on_c, 13, 57, 0
15, 306000, Note_on_c, 13, 58, 84
15, 306119, Note_on_c, 13, 58, 0
15, 306120, Note_on_c, 13, 56, 84
15, 306239, Note_on_c, 13, 56, 0
15, 306240, Note_on_c, 13, 58, 84
15, 306359, Note_on_c, 13, 58, 0
15, 306360, Note_on_c, 13, 55, 84
15, 306479, Note_on_c, 13, 55, 0
15, 306480, Note_on_c, 13, 58, 84
15, 306599, Note_on_c, 13, 58, 0
15, 306600, Note_on_c, 13, 55, 84
15, 306719, Note_on_c, 13, 55, 0
15, 306720, Note_on_c, 13, 58, 84
15, 306839, Note_on_c, 13, 58, 0
15, 306840, Note_on_c, 13, 53, 84
15, 306944, Note_on_c, 13, 53, 0
15, 306960, Note_on_c, 13, 58, 84
15, 307079, Note_on_c, 13, 58, 0
15, 307080, Note_on_c, 13, 51, 84
15, 307199, Note_on_c, 13, 51, 0
15, 307200, Note_on_c, 13, 58, 84
15, 307319, Note_on_c, 13, 58, 0
15, 307320, Note_on_c, 13, 51, 84
15, 307439, Note_on_c, 13, 51, 0
15, 307440, Note_on_c, 13, 58, 84
15, 307559, Note_on_c, 13, 58, 0
15, 307560, Note_on_c, 13, 51, 84
15, 307679, Note_on_c, 13, 51, 0
15, 307680, Note_on_c, 13, 58, 84
15, 307799, Note_on_c, 13, 58, 0
15, 307800, Note_on_c, 13, 51, 84
15, 307919, Note_on_c, 13, 51, 0
15, 307920, Note_on_c, 13, 58, 84
15, 308039, Note_on_c, 13, 58, 0
15, 308040, Note_on_c, 13, 51, 84
15, 308159, Note_on_c, 13, 51, 0
15, 308160, Note_on_c, 13, 58, 84
15, 308279, Note_on_c, 13, 58, 0
15, 308280, Note_on_c, 13, 53, 84
15, 308384, Note_on_c, 13, 53, 0
15, 308400, Note_on_c, 13, 53, 84
15, 308489, Note_on_c, 13, 53, 0
15, 308520, Note_on_c, 13, 57, 84
15, 308639, Note_on_c, 13, 57, 0
15, 308640, Note_on_c, 13, 55, 84
15, 308759, Note_on_c, 13, 55, 0
15, 308760, Note_on_c, 13, 57, 84
15, 308879, Note_on_c, 13, 57, 0
15, 308880, Note_on_c, 13, 60, 84
15, 308999, Note_on_c, 13, 60, 0
15, 309000, Note_on_c, 13, 57, 84
15, 309104, Note_on_c, 13, 57, 0
15, 309120, Note_on_c, 13, 53, 84
15, 309209, Note_on_c, 13, 53, 0
15, 309240, Note_on_c, 13, 57, 84
15, 309359, Note_on_c, 13, 57, 0
15, 309360, Note_on_c, 13, 55, 84
15, 309479, Note_on_c, 13, 55, 0
15, 309480, Note_on_c, 13, 57, 84
15, 309599, Note_on_c, 13, 57, 0
15, 309600, Note_on_c, 13, 60, 84
15, 309719, Note_on_c, 13, 60, 0
15, 309720, Note_on_c, 13, 57, 84
15, 309824, Note_on_c, 13, 57, 0
15, 309840, Note_on_c, 13, 53, 84
15, 309929, Note_on_c, 13, 53, 0
15, 309960, Note_on_c, 13, 58, 84
15, 310079, Note_on_c, 13, 58, 0
15, 310080, Note_on_c, 13, 57, 84
15, 310199, Note_on_c, 13, 57, 0
15, 310200, Note_on_c, 13, 58, 84
15, 310319, Note_on_c, 13, 58, 0
15, 310320, Note_on_c, 13, 62, 92
15, 310439, Note_on_c, 13, 62, 0
15, 310440, Note_on_c, 13, 58, 84
15, 310559, Note_on_c, 13, 58, 0
15, 310560, Note_on_c, 13, 62, 92
15, 310679, Note_on_c, 13, 62, 0
15, 310680, Note_on_c, 13, 58, 84
15, 310799, Note_on_c, 13, 58, 0
15, 310800, Note_on_c, 13, 57, 84
15, 310919, Note_on_c, 13, 57, 0
15, 310920, Note_on_c, 13, 58, 84
15, 311039, Note_on_c, 13, 58, 0
15, 311040, Note_on_c, 13, 62, 84
15, 311159, Note_on_c, 13, 62, 0
15, 311160, Note_on_c, 13, 58, 84
15, 311264, Note_on_c, 13, 58, 0
15, 311280, Note_on_c, 13, 53, 84
15, 311369, Note_on_c, 13, 53, 0
15, 311400, Note_on_c, 13, 57, 84
15, 311519, Note_on_c, 13, 57, 0
15, 311520, Note_on_c, 13, 55, 84
15, 311639, Note_on_c, 13, 55, 0
15, 311640, Note_on_c, 13, 57, 84
15, 311759, Note_on_c, 13, 57, 0
15, 311760, Note_on_c, 13, 60, 92
15, 311879, Note_on_c, 13, 60, 0
15, 311880, Note_on_c, 13, 57, 84
15, 311984, Note_on_c, 13, 57, 0
15, 312000, Note_on_c, 13, 60, 92
15, 312119, Note_on_c, 13, 60, 0
15, 312120, Note_on_c, 13, 57, 84
15, 312239, Note_on_c, 13, 57, 0
15, 312240, Note_on_c, 13, 55, 84
15, 312359, Note_on_c, 13, 55, 0
15, 312360, Note_on_c, 13, 57, 84
15, 312479, Note_on_c, 13, 57, 0
15, 312480, Note_on_c, 13, 60, 84
15, 312599, Note_on_c, 13, 60, 0
15, 312600, Note_on_c, 13, 57, 84
15, 312704, Note_on_c, 13, 57, 0
15, 312720, Note_on_c, 13, 53, 84
15, 312809, Note_on_c, 13, 53, 0
15, 312840, Note_on_c, 13, 58, 84
15, 312959, Note_on_c, 13, 58, 0
15, 312960, Note_on_c, 13, 57, 84
15, 313079, Note_on_c, 13, 57, 0
15, 313080, Note_on_c, 13, 58, 84
15, 313199, Note_on_c, 13, 58, 0
15, 313200, Note_on_c, 13, 62, 84
15, 313319, Note_on_c, 13, 62, 0
15, 313320, Note_on_c, 13, 58, 82
15, 313439, Note_on_c, 13, 58, 0
15, 313440, Note_on_c, 13, 62, 80
15, 313559, Note_on_c, 13, 62, 0
15, 313560, Note_on_c, 13, 58, 78
15, 313679, Note_on_c, 13, 58, 0
15, 313680, Note_on_c, 13, 57, 76
15, 313799, Note_on_c, 13, 57, 0
15, 313800, Note_on_c, 13, 58, 74
15, 313919, Note_on_c, 13, 58, 0
15, 313920, Note_on_c, 13, 62, 72
15, 314039, Note_on_c, 13, 62, 0
15, 314040, Note_on_c, 13, 58, 70
15, 314144, Note_on_c, 13, 58, 0
15, 314160, Note_on_c, 13, 53, 68
15, 314249, Note_on_c, 13, 53, 0
15, 314280, Note_on_c, 13, 57, 66
15, 314399, Note_on_c, 13, 57, 0
15, 314400, Note_on_c, 13, 55, 64
15, 314519, Note_on_c, 13, 55, 0
15, 314520, Note_on_c, 13, 57, 62
15, 314639, Note_on_c, 13, 57, 0
15, 314640, Note_on_c, 13, 60, 60
15, 314759, Note_on_c, 13, 60, 0
15, 314760, Note_on_c, 13, 57, 58
15, 314879, Note_on_c, 13, 57, 0
15, 314880, Note_on_c, 13, 60, 56
15, 314999, Note_on_c, 13, 60, 0
15, 315000, Note_on_c, 13, 57, 54
15, 315119, Note_on_c, 13, 57, 0
15, 315120, Note_on_c, 13, 55, 52
15, 315239, Note_on_c, 13, 55, 0
15, 315240, Note_on_c, 13, 57, 50
15, 315359, Note_on_c, 13, 57, 0
15, 315360, Note_on_c, 13, 60, 48
15, 315479, Note_on_c, 13, 60, 0
15, 315480, Note_on_c, 13, 57, 46
15, 315584, Note_on_c, 13, 57, 0
15, 315600, Note_on_c, 13, 62, 44
15, 315689, Note_on_c, 13, 62, 0
15, 315720, Note_on_c, 13, 58, 44
15, 315839, Note_on_c, 13, 58, 0
15, 315840, Note_on_c, 13, 57, 44
15, 315959, Note_on_c, 13, 57, 0
15, 315960, Note_on_c, 13, 58, 44
15, 316079, Note_on_c, 13, 58, 0
15, 316080, Note_on_c, 13, 62, 44
15, 316199, Note_on_c, 13, 62, 0
15, 316200, Note_on_c, 13, 58, 44
15, 316304, Note_on_c, 13, 58, 0
15, 316320, Note_on_c, 13, 62, 44
15, 316439, Note_on_c, 13, 62, 0
15, 316440, Note_on_c, 13, 58, 44
15, 316559, Note_on_c, 13, 58, 0
15, 316560, Note_on_c, 13, 57, 44
15, 316679, Note_on_c, 13, 57, 0
15, 316680, Note_on_c, 13, 58, 44
15, 316799, Note_on_c, 13, 58, 0
15, 316800, Note_on_c, 13, 62, 44
15, 316919, Note_on_c, 13, 62, 0
15, 316920, Note_on_c, 13, 58, 44
15, 317024, Note_on_c, 13, 58, 0
15, 317040, Note_on_c, 13, 62, 44
15, 317159, Note_on_c, 13, 62, 0
15, 317160, Note_on_c, 13, 58, 44
15, 317279, Note_on_c, 13, 58, 0
15, 317280, Note_on_c, 13, 57, 44
15, 317399, Note_on_c, 13, 57, 0
15, 317400, Note_on_c, 13, 58, 44
15, 317519, Note_on_c, 13, 58, 0
15, 317520, Note_on_c, 13, 62, 44
15, 317639, Note_on_c, 13, 62, 0
15, 317640, Note_on_c, 13, 58, 44
15, 317744, Note_on_c, 13, 58, 0
15, 317760, Note_on_c, 13, 62, 44
15, 317879, Note_on_c, 13, 62, 0
15, 317880, Note_on_c, 13, 58, 44
15, 317999, Note_on_c, 13, 58, 0
15, 318000, Note_on_c, 13, 57, 44
15, 318119, Note_on_c, 13, 57, 0
15, 318120, Note_on_c, 13, 58, 44
15, 318239, Note_on_c, 13, 58, 0
15, 318240, Note_on_c, 13, 62, 44
15, 318359, Note_on_c, 13, 62, 0
15, 318360, Note_on_c, 13, 58, 44
15, 318464, Note_on_c, 13, 58, 0
15, 318480, Note_on_c, 13, 58, 44
15, 318719, Note_on_c, 13, 58, 0
15, 319200, Control_c, 13, 11, 64
15, 319680, Control_c, 13, 11, 64
15, 319680, Note_on_c, 13, 54, 76
15, 319740, Control_c, 13, 11, 67
15, 319800, Control_c, 13, 11, 69
15, 319860, Control_c, 13, 11, 72
15, 319919, Note_on_c, 13, 54, 0
15, 319920, Note_on_c, 13, 55, 76
15, 319920, Control_c, 13, 11, 75
15, 319980, Control_c, 13, 11, 77
15, 320039, Note_on_c, 13, 55, 0
15, 320040, Control_c, 13, 11, 80
15, 320100, Control_c, 13, 11, 82
15, 320160, Control_c, 13, 11, 85
15, 320160, Note_on_c, 13, 55, 76
15, 320220, Control_c, 13, 11, 88
15, 320280, Control_c, 13, 11, 90
15, 320340, Control_c, 13, 11, 93
15, 320399, Note_on_c, 13, 55, 0
15, 320400, Control_c, 13, 11, 96
15, 320400, Note_on_c, 13, 56, 76
15, 320460, Control_c, 13, 11, 98
15, 320519, Note_on_c, 13, 56, 0
15, 320520, Control_c, 13, 11, 101
15, 320580, Control_c, 13, 11, 103
15, 320640, Note_on_c, 13, 56, 76
15, 320640, Control_c, 13, 11, 106
15, 320700, Control_c, 13, 11, 109
15, 320760, Control_c, 13, 11, 111
15, 320820, Control_c, 13, 11, 114
15, 320879, Note_on_c, 13, 56, 0
15, 320880, Control_c, 13, 11, 117
15, 320880, Note_on_c, 13, 57, 76
15, 320940, Control_c, 13, 11, 119
15, 320999, Note_on_c, 13, 57, 0
15, 321000, Control_c, 13, 11, 122
15, 321060, Control_c, 13, 11, 127
15, 321120, Note_on_c, 13, 60, 76
15, 321359, Note_on_c, 13, 60, 0
15, 321360, Note_on_c, 13, 58, 84
15, 321569, Note_on_c, 13, 58, 0
15, 321600, Note_on_c, 13, 62, 84
15, 321600, Note_on_c, 13, 58, 84
15, 322049, Note_on_c, 13, 62, 0
15, 322049, Note_on_c, 13, 58, 0
15, 322080, Note_on_c, 13, 58, 84
15, 322080, Note_on_c, 13, 62, 84
15, 322529, Note_on_c, 13, 58, 0
15, 322529, Note_on_c, 13, 62, 0
15, 322560, Note_on_c, 13, 58, 84
15, 322560, Note_on_c, 13, 62, 84
15, 322769, Note_on_c, 13, 58, 0
15, 322769, Note_on_c, 13, 62, 0
15, 322800, Note_on_c, 13, 60, 84
15, 322800, Note_on_c, 13, 63, 84
15, 323249, Note_on_c, 13, 60, 0
15, 323249, Note_on_c, 13, 63, 0
15, 323280, Note_on_c, 13, 63, 84
15, 323280, Note_on_c, 13, 60, 84
15, 323489, Note_on_c, 13, 63, 0
15, 323489, Note_on_c, 13, 60, 0
15, 323520, Note_on_c, 13, 60, 84
15, 323520, Note_on_c, 13, 63, 84
15, 323759, Note_on_c, 13, 60, 0
15, 323759, Note_on_c, 13, 63, 0
15, 325440, Note_on_c, 13, 66, 52
15, 325679, Note_on_c, 13, 66, 0
15, 325680, Note_on_c, 13, 63, 52
15, 325919, Note_on_c, 13, 63, 0
15, 325920, Note_on_c, 13, 60, 52
15, 326159, Note_on_c, 13, 60, 0
15, 326160, Note_on_c, 13, 57, 52
15, 326399, Note_on_c, 13, 57, 0
15, 326400, Note_on_c, 13, 54, 52
15, 326639, Note_on_c, 13, 54, 0
15, 326640, Note_on_c, 13, 53, 52
15, 326879, Note_on_c, 13, 53, 0
15, 328320, Note_on_c, 13, 68, 52
15, 328559, Note_on_c, 13, 68, 0
15, 328560, Note_on_c, 13, 65, 52
15, 328799, Note_on_c, 13, 65, 0
15, 328800, Note_on_c, 13, 62, 52
15, 329039, Note_on_c, 13, 62, 0
15, 329040, Note_on_c, 13, 59, 52
15, 329279, Note_on_c, 13, 59, 0
15, 329280, Note_on_c, 13, 56, 52
15, 329519, Note_on_c, 13, 56, 0
15, 329520, Note_on_c, 13, 55, 52
15, 329729, Note_on_c, 13, 55, 0
15, 329760, Note_on_c, 13, 61, 52
15, 329999, Note_on_c, 13, 61, 0
15, 330000, Note_on_c, 13, 58, 52
15, 330239, Note_on_c, 13, 58, 0
15, 330240, Note_on_c, 13, 55, 52
15, 330479, Note_on_c, 13, 55, 0
15, 330480, Note_on_c, 13, 52, 52
15, 330719, Note_on_c, 13, 52, 0
15, 330720, Note_on_c, 13, 49, 52
15, 330959, Note_on_c, 13, 49, 0
15, 330960, Note_on_c, 13, 48, 52
15, 331169, Note_on_c, 13, 48, 0
15, 331198, Control_c, 13, 11, 96
15, 331200, Note_on_c, 13, 52, 68
15, 331439, Note_on_c, 13, 52, 0
15, 331440, Note_on_c, 13, 53, 68
15, 332879, Note_on_c, 13, 53, 0
15, 332880, Note_on_c, 13, 53, 68
15, 332880, Control_c, 13, 11, 96
15, 332933, Control_c, 13, 11, 98
15, 332987, Control_c, 13, 11, 99
15, 333040, Control_c, 13, 11, 101
15, 333093, Control_c, 13, 11, 103
15, 333147, Control_c, 13, 11, 105
15, 333200, Control_c, 13, 11, 106
15, 333253, Control_c, 13, 11, 108
15, 333307, Control_c, 13, 11, 110
15, 333360, Control_c, 13, 11, 112
15, 333413, Control_c, 13, 11, 113
15, 333467, Control_c, 13, 11, 115
15, 333520, Control_c, 13, 11, 117
15, 333573, Control_c, 13, 11, 118
15, 333627, Control_c, 13, 11, 120
15, 333680, Control_c, 13, 11, 122
15, 333733, Control_c, 13, 11, 124
15, 333787, Control_c, 13, 11, 127
15, 334049, Note_on_c, 13, 53, 0
15, 334080, Note_on_c, 13, 54, 76
15, 334318, Control_c, 13, 11, 96
15, 334319, Note_on_c, 13, 54, 0
15, 334320, Note_on_c, 13, 53, 68
15, 335759, Note_on_c, 13, 53, 0
15, 335760, Control_c, 13, 11, 96
15, 335760, Note_on_c, 13, 53, 68
15, 335813, Control_c, 13, 11, 98
15, 335867, Control_c, 13, 11, 99
15, 335920, Control_c, 13, 11, 101
15, 335973, Control_c, 13, 11, 103
15, 336027, Control_c, 13, 11, 105
15, 336080, Control_c, 13, 11, 106
15, 336133, Control_c, 13, 11, 108
15, 336187, Control_c, 13, 11, 110
15, 336240, Control_c, 13, 11, 112
15, 336293, Control_c, 13, 11, 113
15, 336347, Control_c, 13, 11, 115
15, 336400, Control_c, 13, 11, 117
15, 336453, Control_c, 13, 11, 118
15, 336507, Control_c, 13, 11, 120
15, 336560, Control_c, 13, 11, 122
15, 336613, Control_c, 13, 11, 124
15, 336667, Control_c, 13, 11, 127
15, 336929, Note_on_c, 13, 53, 0
15, 336960, Note_on_c, 13, 54, 76
15, 337199, Note_on_c, 13, 54, 0
15, 337200, Note_on_c, 13, 53, 68
15, 337409, Note_on_c, 13, 53, 0
15, 337440, Note_on_c, 13, 65, 76
15, 337889, Note_on_c, 13, 65, 0
15, 337920, Note_on_c, 13, 67, 76
15, 338369, Note_on_c, 13, 67, 0
15, 338400, Note_on_c, 13, 63, 76
15, 338579, Note_on_c, 13, 63, 0
15, 338640, Note_on_c, 13, 62, 84
15, 339329, Note_on_c, 13, 62, 0
15, 339360, Note_on_c, 13, 60, 84
15, 339360, Note_on_c, 13, 63, 84
15, 340049, Note_on_c, 13, 60, 0
15, 340049, Note_on_c, 13, 63, 0
15, 340080, Note_on_c, 13, 58, 84
15, 340080, Note_on_c, 13, 62, 84
15, 340184, Note_on_c, 13, 58, 0
15, 340184, Note_on_c, 13, 62, 0
15, 340200, Note_on_c, 13, 62, 84
15, 340200, Note_on_c, 13, 58, 84
15, 340304, Note_on_c, 13, 62, 0
15, 340304, Note_on_c, 13, 58, 0
15, 340320, Note_on_c, 13, 62, 84
15, 340320, Note_on_c, 13, 58, 84
15, 340424, Note_on_c, 13, 62, 0
15, 340424, Note_on_c, 13, 58, 0
15, 340440, Note_on_c, 13, 62, 84
15, 340440, Note_on_c, 13, 58, 84
15, 340544, Note_on_c, 13, 62, 0
15, 340544, Note_on_c, 13, 58, 0
15, 340560, Note_on_c, 13, 62, 84
15, 340560, Note_on_c, 13, 58, 84
15, 340664, Note_on_c, 13, 62, 0
15, 340664, Note_on_c, 13, 58, 0
15, 340680, Note_on_c, 13, 58, 84
15, 340680, Note_on_c, 13, 62, 84
15, 340784, Note_on_c, 13, 58, 0
15, 340784, Note_on_c, 13, 62, 0
15, 340800, Note_on_c, 13, 58, 84
15, 340800, Note_on_c, 13, 62, 84
15, 340904, Note_on_c, 13, 58, 0
15, 340904, Note_on_c, 13, 62, 0
15, 340920, Note_on_c, 13, 58, 84
15, 340920, Note_on_c, 13, 62, 84
15, 341024, Note_on_c, 13, 58, 0
15, 341024, Note_on_c, 13, 62, 0
15, 341040, Note_on_c, 13, 62, 84
15, 341040, Note_on_c, 13, 58, 84
15, 341144, Note_on_c, 13, 62, 0
15, 341144, Note_on_c, 13, 58, 0
15, 341160, Note_on_c, 13, 58, 84
15, 341160, Note_on_c, 13, 62, 84
15, 341264, Note_on_c, 13, 58, 0
15, 341264, Note_on_c, 13, 62, 0
15, 341280, Note_on_c, 13, 62, 84
15, 341280, Note_on_c, 13, 58, 84
15, 341384, Note_on_c, 13, 62, 0
15, 341384, Note_on_c, 13, 58, 0
15, 341400, Note_on_c, 13, 62, 84
15, 341400, Note_on_c, 13, 58, 84
15, 341504, Note_on_c, 13, 62, 0
15, 341504, Note_on_c, 13, 58, 0
15, 341520, Note_on_c, 13, 63, 84
15, 341520, Note_on_c, 13, 60, 84
15, 341624, Note_on_c, 13, 63, 0
15, 341624, Note_on_c, 13, 60, 0
15, 341640, Note_on_c, 13, 63, 84
15, 341640, Note_on_c, 13, 60, 84
15, 341744, Note_on_c, 13, 63, 0
15, 341744, Note_on_c, 13, 60, 0
15, 341760, Note_on_c, 13, 60, 84
15, 341760, Note_on_c, 13, 63, 84
15, 341864, Note_on_c, 13, 60, 0
15, 341864, Note_on_c, 13, 63, 0
15, 341880, Note_on_c, 13, 63, 84
15, 341880, Note_on_c, 13, 60, 84
15, 341984, Note_on_c, 13, 63, 0
15, 341984, Note_on_c, 13, 60, 0
15, 342000, Note_on_c, 13, 60, 84
15, 342000, Note_on_c, 13, 63, 84
15, 342104, Note_on_c, 13, 60, 0
15, 342104, Note_on_c, 13, 63, 0
15, 342120, Note_on_c, 13, 63, 84
15, 342120, Note_on_c, 13, 60, 84
15, 342224, Note_on_c, 13, 63, 0
15, 342224, Note_on_c, 13, 60, 0
15, 342240, Note_on_c, 13, 63, 84
15, 342240, Note_on_c, 13, 60, 84
15, 342344, Note_on_c, 13, 63, 0
15, 342344, Note_on_c, 13, 60, 0
15, 342360, Note_on_c, 13, 60, 84
15, 342360, Note_on_c, 13, 63, 84
15, 342464, Note_on_c, 13, 60, 0
15, 342464, Note_on_c, 13, 63, 0
15, 342480, Note_on_c, 13, 60, 84
15, 342480, Note_on_c, 13, 63, 84
15, 342584, Note_on_c, 13, 60, 0
15, 342584, Note_on_c, 13, 63, 0
15, 342600, Note_on_c, 13, 63, 84
15, 342600, Note_on_c, 13, 60, 84
15, 342704, Note_on_c, 13, 63, 0
15, 342704, Note_on_c, 13, 60, 0
15, 342720, Note_on_c, 13, 63, 84
15, 342720, Note_on_c, 13, 60, 84
15, 342824, Note_on_c, 13, 63, 0
15, 342824, Note_on_c, 13, 60, 0
15, 342840, Note_on_c, 13, 63, 84
15, 342840, Note_on_c, 13, 60, 84
15, 342944, Note_on_c, 13, 63, 0
15, 342944, Note_on_c, 13, 60, 0
15, 342960, Note_on_c, 13, 58, 84
15, 342960, Note_on_c, 13, 62, 84
15, 343064, Note_on_c, 13, 58, 0
15, 343064, Note_on_c, 13, 62, 0
15, 343080, Note_on_c, 13, 58, 84
15, 343080, Note_on_c, 13, 62, 84
15, 343184, Note_on_c, 13, 58, 0
15, 343184, Note_on_c, 13, 62, 0
15, 343200, Note_on_c, 13, 58, 84
15, 343200, Note_on_c, 13, 62, 84
15, 343304, Note_on_c, 13, 58, 0
15, 343304, Note_on_c, 13, 62, 0
15, 343320, Note_on_c, 13, 62, 84
15, 343320, Note_on_c, 13, 58, 84
15, 343424, Note_on_c, 13, 62, 0
15, 343424, Note_on_c, 13, 58, 0
15, 343440, Note_on_c, 13, 62, 84
15, 343440, Note_on_c, 13, 58, 84
15, 343544, Note_on_c, 13, 62, 0
15, 343544, Note_on_c, 13, 58, 0
15, 343560, Note_on_c, 13, 58, 84
15, 343560, Note_on_c, 13, 62, 84
15, 343664, Note_on_c, 13, 58, 0
15, 343664, Note_on_c, 13, 62, 0
15, 343680, Note_on_c, 13, 62, 84
15, 343680, Note_on_c, 13, 58, 84
15, 343784, Note_on_c, 13, 62, 0
15, 343784, Note_on_c, 13, 58, 0
15, 343800, Note_on_c, 13, 62, 84
15, 343800, Note_on_c, 13, 58, 84
15, 343904, Note_on_c, 13, 62, 0
15, 343904, Note_on_c, 13, 58, 0
15, 343920, Note_on_c, 13, 58, 84
15, 343920, Note_on_c, 13, 62, 84
15, 344024, Note_on_c, 13, 58, 0
15, 344024, Note_on_c, 13, 62, 0
15, 344040, Note_on_c, 13, 62, 84
15, 344040, Note_on_c, 13, 58, 84
15, 344144, Note_on_c, 13, 62, 0
15, 344144, Note_on_c, 13, 58, 0
15, 344160, Note_on_c, 13, 62, 84
15, 344160, Note_on_c, 13, 58, 84
15, 344264, Note_on_c, 13, 62, 0
15, 344264, Note_on_c, 13, 58, 0
15, 344280, Note_on_c, 13, 58, 84
15, 344280, Note_on_c, 13, 62, 84
15, 344384, Note_on_c, 13, 58, 0
15, 344384, Note_on_c, 13, 62, 0
15, 344400, Note_on_c, 13, 63, 84
15, 344400, Note_on_c, 13, 60, 84
15, 344504, Note_on_c, 13, 63, 0
15, 344504, Note_on_c, 13, 60, 0
15, 344520, Note_on_c, 13, 60, 84
15, 344520, Note_on_c, 13, 63, 84
15, 344624, Note_on_c, 13, 60, 0
15, 344624, Note_on_c, 13, 63, 0
15, 344640, Note_on_c, 13, 60, 84
15, 344640, Note_on_c, 13, 63, 84
15, 344744, Note_on_c, 13, 60, 0
15, 344744, Note_on_c, 13, 63, 0
15, 344760, Note_on_c, 13, 60, 84
15, 344760, Note_on_c, 13, 63, 84
15, 344864, Note_on_c, 13, 60, 0
15, 344864, Note_on_c, 13, 63, 0
15, 344880, Note_on_c, 13, 60, 84
15, 344880, Note_on_c, 13, 63, 84
15, 344984, Note_on_c, 13, 60, 0
15, 344984, Note_on_c, 13, 63, 0
15, 345000, Note_on_c, 13, 60, 84
15, 345000, Note_on_c, 13, 63, 84
15, 345104, Note_on_c, 13, 60, 0
15, 345104, Note_on_c, 13, 63, 0
15, 345120, Note_on_c, 13, 63, 84
15, 345120, Note_on_c, 13, 60, 84
15, 345224, Note_on_c, 13, 63, 0
15, 345224, Note_on_c, 13, 60, 0
15, 345240, Note_on_c, 13, 60, 84
15, 345240, Note_on_c, 13, 63, 84
15, 345344, Note_on_c, 13, 60, 0
15, 345344, Note_on_c, 13, 63, 0
15, 345360, Note_on_c, 13, 63, 84
15, 345360, Note_on_c, 13, 60, 84
15, 345464, Note_on_c, 13, 63, 0
15, 345464, Note_on_c, 13, 60, 0
15, 345480, Note_on_c, 13, 63, 84
15, 345480, Note_on_c, 13, 60, 84
15, 345584, Note_on_c, 13, 63, 0
15, 345584, Note_on_c, 13, 60, 0
15, 345600, Note_on_c, 13, 63, 84
15, 345600, Note_on_c, 13, 60, 84
15, 345704, Note_on_c, 13, 63, 0
15, 345704, Note_on_c, 13, 60, 0
15, 345720, Note_on_c, 13, 60, 84
15, 345720, Note_on_c, 13, 63, 84
15, 345824, Note_on_c, 13, 60, 0
15, 345824, Note_on_c, 13, 63, 0
15, 345840, Note_on_c, 13, 62, 76
15, 345840, Note_on_c, 13, 58, 76
15, 346529, Note_on_c, 13, 62, 0
15, 346529, Note_on_c, 13, 58, 0
15, 346560, Note_on_c, 13, 62, 76
15, 346560, Note_on_c, 13, 58, 76
15, 347249, Note_on_c, 13, 62, 0
15, 347249, Note_on_c, 13, 58, 0
15, 347280, Note_on_c, 13, 62, 76
15, 347280, Note_on_c, 13, 58, 76
15, 347489, Note_on_c, 13, 62, 0
15, 347489, Note_on_c, 13, 58, 0
15, 347520, Note_on_c, 13, 62, 76
15, 347520, Note_on_c, 13, 58, 76
15, 347729, Note_on_c, 13, 62, 0
15, 347729, Note_on_c, 13, 58, 0
15, 347760, Note_on_c, 13, 62, 76
15, 347760, Note_on_c, 13, 58, 76
15, 347969, Note_on_c, 13, 62, 0
15, 347969, Note_on_c, 13, 58, 0
15, 348000, Note_on_c, 13, 62, 76
15, 348000, Note_on_c, 13, 58, 76
15, 348239, Note_on_c, 13, 62, 0
15, 348239, Note_on_c, 13, 58, 0
15, 350160, Note_on_c, 13, 58, 84
15, 350399, Note_on_c, 13, 58, 0
15, 350399, End_track
16, 0, Start_track
16, 0, Title_t, "Cello"
16, 0, MIDI_port, 0
16, 0, Program_c, 14, 48
16, 0, Control_c, 14, 7, 96
16, 0, Control_c, 14, 10, 90
16, 0, Control_c, 14, 11, 127
16, 0, Note_on_c, 14, 41, 84
16, 239, Note_on_c, 14, 41, 0
16, 240, Note_on_c, 14, 46, 84
16, 359, Note_on_c, 14, 46, 0
16, 480, Note_on_c, 14, 46, 84
16, 929, Note_on_c, 14, 46, 0
16, 960, Note_on_c, 14, 46, 84
16, 1409, Note_on_c, 14, 46, 0
16, 1440, Note_on_c, 14, 46, 84
16, 1649, Note_on_c, 14, 46, 0
16, 1680, Note_on_c, 14, 41, 84
16, 1919, Note_on_c, 14, 41, 0
16, 1920, Note_on_c, 14, 45, 84
16, 2129, Note_on_c, 14, 45, 0
16, 2160, Note_on_c, 14, 48, 84
16, 2339, Note_on_c, 14, 48, 0
16, 2400, Note_on_c, 14, 53, 84
16, 2639, Note_on_c, 14, 53, 0
16, 4320, Note_on_c, 14, 54, 52
16, 4559, Note_on_c, 14, 54, 0
16, 4560, Note_on_c, 14, 51, 52
16, 4799, Note_on_c, 14, 51, 0
16, 4800, Note_on_c, 14, 60, 52
16, 5039, Note_on_c, 14, 60, 0
16, 5040, Note_on_c, 14, 57, 52
16, 5279, Note_on_c, 14, 57, 0
16, 5280, Note_on_c, 14, 54, 52
16, 5519, Note_on_c, 14, 54, 0
16, 5520, Note_on_c, 14, 53, 52
16, 5759, Note_on_c, 14, 53, 0
16, 5760, Note_on_c, 14, 51, 52
16, 5999, Note_on_c, 14, 51, 0
16, 6000, Note_on_c, 14, 49, 52
16, 6239, Note_on_c, 14, 49, 0
16, 7200, Note_on_c, 14, 61, 52
16, 7439, Note_on_c, 14, 61, 0
16, 7440, Note_on_c, 14, 58, 52
16, 7679, Note_on_c, 14, 58, 0
16, 7680, Note_on_c, 14, 55, 52
16, 7919, Note_on_c, 14, 55, 0
16, 7920, Note_on_c, 14, 52, 52
16, 8159, Note_on_c, 14, 52, 0
16, 8160, Note_on_c, 14, 49, 52
16, 8399, Note_on_c, 14, 49, 0
16, 8400, Note_on_c, 14, 48, 52
16, 8639, Note_on_c, 14, 48, 0
16, 8640, Note_on_c, 14, 46, 52
16, 8879, Note_on_c, 14, 46, 0
16, 8880, Note_on_c, 14, 45, 52
16, 8999, Note_on_c, 14, 45, 0
16, 9118, Control_c, 14, 11, 80
16, 9120, Note_on_c, 14, 52, 76
16, 9120, Control_c, 14, 11, 80
16, 9220, Control_c, 14, 11, 82
16, 9320, Control_c, 14, 11, 84
16, 9420, Control_c, 14, 11, 86
16, 9520, Control_c, 14, 11, 88
16, 9569, Note_on_c, 14, 52, 0
16, 9600, Note_on_c, 14, 53, 76
16, 9620, Control_c, 14, 11, 90
16, 9720, Control_c, 14, 11, 92
16, 9820, Control_c, 14, 11, 94
16, 9920, Control_c, 14, 11, 96
16, 10020, Control_c, 14, 11, 98
16, 10049, Note_on_c, 14, 53, 0
16, 10080, Note_on_c, 14, 55, 84
16, 10120, Control_c, 14, 11, 100
16, 10220, Control_c, 14, 11, 102
16, 10319, Note_on_c, 14, 55, 0
16, 10320, Note_on_c, 14, 55, 76
16, 10320, Control_c, 14, 11, 104
16, 10420, Control_c, 14, 11, 105
16, 10520, Control_c, 14, 11, 107
16, 10529, Note_on_c, 14, 55, 0
16, 10560, Note_on_c, 14, 57, 76
16, 10620, Control_c, 14, 11, 109
16, 10720, Control_c, 14, 11, 111
16, 10820, Control_c, 14, 11, 113
16, 10920, Control_c, 14, 11, 115
16, 11009, Note_on_c, 14, 57, 0
16, 11020, Control_c, 14, 11, 117
16, 11040, Note_on_c, 14, 58, 76
16, 11120, Control_c, 14, 11, 119
16, 11220, Control_c, 14, 11, 121
16, 11320, Control_c, 14, 11, 123
16, 11420, Control_c, 14, 11, 125
16, 11489, Note_on_c, 14, 58, 0
16, 11520, Note_on_c, 14, 48, 76
16, 11520, Control_c, 14, 11, 127
16, 11699, Note_on_c, 14, 48, 0
16, 11760, Note_on_c, 14, 41, 84
16, 12449, Note_on_c, 14, 41, 0
16, 12480, Note_on_c, 14, 41, 84
16, 13169, Note_on_c, 14, 41, 0
16, 13200, Note_on_c, 14, 41, 84
16, 13409, Note_on_c, 14, 41, 0
16, 13440, Note_on_c, 14, 41, 84
16, 13649, Note_on_c, 14, 41, 0
16, 13680, Note_on_c, 14, 41, 84
16, 13889, Note_on_c, 14, 41, 0
16, 13920, Note_on_c, 14, 41, 84
16, 14159, Note_on_c, 14, 41, 0
16, 14400, Note_on_c, 14, 41, 84
16, 14639, Note_on_c, 14, 41, 0
16, 14640, Note_on_c, 14, 46, 84
16, 14759, Note_on_c, 14, 46, 0
16, 14880, Note_on_c, 14, 46, 84
16, 15329, Note_on_c, 14, 46, 0
16, 15360, Note_on_c, 14, 46, 84
16, 15809, Note_on_c, 14, 46, 0
16, 15840, Note_on_c, 14, 46, 84
16, 16049, Note_on_c, 14, 46, 0
16, 16080, Note_on_c, 14, 41, 84
16, 16319, Note_on_c, 14, 41, 0
16, 16320, Note_on_c, 14, 45, 84
16, 16529, Note_on_c, 14, 45, 0
16, 16560, Note_on_c, 14, 48, 84
16, 16739, Note_on_c, 14, 48, 0
16, 16800, Note_on_c, 14, 53, 84
16, 17039, Note_on_c, 14, 53, 0
16, 18720, Note_on_c, 14, 54, 52
16, 18959, Note_on_c, 14, 54, 0
16, 18960, Note_on_c, 14, 51, 52
16, 19199, Note_on_c, 14, 51, 0
16, 19200, Note_on_c, 14, 60, 52
16, 19439, Note_on_c, 14, 60, 0
16, 19440, Note_on_c, 14, 57, 52
16, 19679, Note_on_c, 14, 57, 0
16, 19680, Note_on_c, 14, 54, 52
16, 19919, Note_on_c, 14, 54, 0
16, 19920, Note_on_c, 14, 53, 52
16, 20159, Note_on_c, 14, 53, 0
16, 20160, Note_on_c, 14, 51, 52
16, 20399, Note_on_c, 14, 51, 0
16, 20400, Note_on_c, 14, 49, 52
16, 20639, Note_on_c, 14, 49, 0
16, 21600, Note_on_c, 14, 61, 52
16, 21839, Note_on_c, 14, 61, 0
16, 21840, Note_on_c, 14, 58, 52
16, 22079, Note_on_c, 14, 58, 0
16, 22080, Note_on_c, 14, 55, 52
16, 22319, Note_on_c, 14, 55, 0
16, 22320, Note_on_c, 14, 52, 52
16, 22559, Note_on_c, 14, 52, 0
16, 22560, Note_on_c, 14, 49, 52
16, 22799, Note_on_c, 14, 49, 0
16, 22800, Note_on_c, 14, 48, 52
16, 23039, Note_on_c, 14, 48, 0
16, 23040, Note_on_c, 14, 46, 52
16, 23279, Note_on_c, 14, 46, 0
16, 23280, Note_on_c, 14, 45, 52
16, 23399, Note_on_c, 14, 45, 0
16, 23518, Control_c, 14, 11, 80
16, 23520, Note_on_c, 14, 52, 76
16, 23520, Control_c, 14, 11, 80
16, 23620, Control_c, 14, 11, 82
16, 23720, Control_c, 14, 11, 84
16, 23820, Control_c, 14, 11, 86
16, 23920, Control_c, 14, 11, 88
16, 23969, Note_on_c, 14, 52, 0
16, 24000, Note_on_c, 14, 53, 76
16, 24020, Control_c, 14, 11, 90
16, 24120, Control_c, 14, 11, 92
16, 24220, Control_c, 14, 11, 94
16, 24320, Control_c, 14, 11, 96
16, 24420, Control_c, 14, 11, 98
16, 24449, Note_on_c, 14, 53, 0
16, 24480, Note_on_c, 14, 55, 84
16, 24520, Control_c, 14, 11, 100
16, 24620, Control_c, 14, 11, 102
16, 24719, Note_on_c, 14, 55, 0
16, 24720, Note_on_c, 14, 55, 76
16, 24720, Control_c, 14, 11, 104
16, 24820, Control_c, 14, 11, 105
16, 24920, Control_c, 14, 11, 107
16, 24929, Note_on_c, 14, 55, 0
16, 24960, Note_on_c, 14, 57, 76
16, 25020, Control_c, 14, 11, 109
16, 25120, Control_c, 14, 11, 111
16, 25220, Control_c, 14, 11, 113
16, 25320, Control_c, 14, 11, 115
16, 25409, Note_on_c, 14, 57, 0
16, 25420, Control_c, 14, 11, 117
16, 25440, Note_on_c, 14, 58, 76
16, 25520, Control_c, 14, 11, 119
16, 25620, Control_c, 14, 11, 121
16, 25720, Control_c, 14, 11, 123
16, 25820, Control_c, 14, 11, 125
16, 25889, Note_on_c, 14, 58, 0
16, 25920, Note_on_c, 14, 48, 76
16, 25920, Control_c, 14, 11, 127
16, 26099, Note_on_c, 14, 48, 0
16, 26160, Note_on_c, 14, 41, 84
16, 26849, Note_on_c, 14, 41, 0
16, 26880, Note_on_c, 14, 41, 84
16, 27569, Note_on_c, 14, 41, 0
16, 27600, Note_on_c, 14, 41, 84
16, 27809, Note_on_c, 14, 41, 0
16, 27840, Note_on_c, 14, 41, 84
16, 28049, Note_on_c, 14, 41, 0
16, 28080, Note_on_c, 14, 41, 84
16, 28289, Note_on_c, 14, 41, 0
16, 28320, Note_on_c, 14, 41, 84
16, 28559, Note_on_c, 14, 41, 0
16, 29040, Note_on_c, 14, 61, 52
16, 29249, Note_on_c, 14, 61, 0
16, 29280, Note_on_c, 14, 61, 52
16, 29729, Note_on_c, 14, 61, 0
16, 29760, Note_on_c, 14, 61, 52
16, 30209, Note_on_c, 14, 61, 0
16, 30240, Note_on_c, 14, 61, 52
16, 30449, Note_on_c, 14, 61, 0
16, 30480, Note_on_c, 14, 56, 52
16, 30929, Note_on_c, 14, 56, 0
16, 30960, Note_on_c, 14, 56, 52
16, 31169, Note_on_c, 14, 56, 0
16, 31200, Note_on_c, 14, 56, 52
16, 31439, Note_on_c, 14, 56, 0
16, 32880, Note_on_c, 14, 44, 52
16, 33089, Note_on_c, 14, 44, 0
16, 33120, Note_on_c, 14, 44, 52
16, 33329, Note_on_c, 14, 44, 0
16, 33360, Note_on_c, 14, 49, 52
16, 33809, Note_on_c, 14, 49, 0
16, 33840, Note_on_c, 14, 61, 52
16, 34049, Note_on_c, 14, 61, 0
16, 34080, Note_on_c, 14, 61, 52
16, 34319, Note_on_c, 14, 61, 0
16, 35760, Note_on_c, 14, 49, 52
16, 35969, Note_on_c, 14, 49, 0
16, 36000, Note_on_c, 14, 49, 52
16, 36209, Note_on_c, 14, 49, 0
16, 36240, Note_on_c, 14, 46, 52
16, 36689, Note_on_c, 14, 46, 0
16, 36720, Note_on_c, 14, 58, 52
16, 36929, Note_on_c, 14, 58, 0
16, 36960, Note_on_c, 14, 58, 52
16, 37199, Note_on_c, 14, 58, 0
16, 38640, Note_on_c, 14, 58, 52
16, 38849, Note_on_c, 14, 58, 0
16, 38880, Note_on_c, 14, 58, 52
16, 39089, Note_on_c, 14, 58, 0
16, 39120, Note_on_c, 14, 63, 52
16, 40529, Note_on_c, 14, 63, 0
16, 40560, Note_on_c, 14, 65, 52
16, 41969, Note_on_c, 14, 65, 0
16, 42000, Note_on_c, 14, 58, 52
16, 43409, Note_on_c, 14, 58, 0
16, 43440, Note_on_c, 14, 60, 52
16, 44849, Note_on_c, 14, 60, 0
16, 44880, Note_on_c, 14, 53, 52
16, 45569, Note_on_c, 14, 53, 0
16, 45600, Note_on_c, 14, 55, 52
16, 46289, Note_on_c, 14, 55, 0
16, 46320, Note_on_c, 14, 48, 52
16, 47009, Note_on_c, 14, 48, 0
16, 47040, Note_on_c, 14, 50, 52
16, 47729, Note_on_c, 14, 50, 0
16, 47760, Note_on_c, 14, 43, 52
16, 48449, Note_on_c, 14, 43, 0
16, 48480, Note_on_c, 14, 45, 52
16, 48960, Control_c, 14, 11, 80
16, 49169, Note_on_c, 14, 45, 0
16, 49200, Control_c, 14, 11, 80
16, 49200, Note_on_c, 14, 38, 76
16, 49310, Control_c, 14, 11, 82
16, 49420, Control_c, 14, 11, 84
16, 49530, Control_c, 14, 11, 86
16, 49640, Control_c, 14, 11, 88
16, 49750, Control_c, 14, 11, 90
16, 49860, Control_c, 14, 11, 92
16, 49889, Note_on_c, 14, 38, 0
16, 49920, Note_on_c, 14, 41, 76
16, 49970, Control_c, 14, 11, 94
16, 50080, Control_c, 14, 11, 96
16, 50190, Control_c, 14, 11, 98
16, 50300, Control_c, 14, 11, 100
16, 50410, Control_c, 14, 11, 102
16, 50520, Control_c, 14, 11, 104
16, 50630, Control_c, 14, 11, 105
16, 50740, Control_c, 14, 11, 107
16, 50850, Control_c, 14, 11, 109
16, 50960, Control_c, 14, 11, 111
16, 51070, Control_c, 14, 11, 113
16, 51180, Control_c, 14, 11, 115
16, 51290, Control_c, 14, 11, 117
16, 51400, Control_c, 14, 11, 119
16, 51510, Control_c, 14, 11, 121
16, 51620, Control_c, 14, 11, 123
16, 51730, Control_c, 14, 11, 127
16, 51809, Note_on_c, 14, 41, 0
16, 51840, Note_on_c, 14, 41, 76
16, 52079, Note_on_c, 14, 41, 0
16, 52080, Note_on_c, 14, 46, 84
16, 52289, Note_on_c, 14, 46, 0
16, 52320, Note_on_c, 14, 46, 84
16, 52769, Note_on_c, 14, 46, 0
16, 52800, Note_on_c, 14, 46, 84
16, 53249, Note_on_c, 14, 46, 0
16, 53280, Note_on_c, 14, 46, 84
16, 53489, Note_on_c, 14, 46, 0
16, 53520, Note_on_c, 14, 41, 84
16, 53759, Note_on_c, 14, 41, 0
16, 53760, Note_on_c, 14, 45, 84
16, 53999, Note_on_c, 14, 45, 0
16, 54000, Note_on_c, 14, 48, 84
16, 54179, Note_on_c, 14, 48, 0
16, 54240, Note_on_c, 14, 53, 84
16, 54479, Note_on_c, 14, 53, 0
16, 56160, Note_on_c, 14, 54, 52
16, 56399, Note_on_c, 14, 54, 0
16, 56400, Note_on_c, 14, 51, 52
16, 56639, Note_on_c, 14, 51, 0
16, 56640, Note_on_c, 14, 48, 52
16, 56879, Note_on_c, 14, 48, 0
16, 56880, Note_on_c, 14, 45, 52
16, 57119, Note_on_c, 14, 45, 0
16, 57120, Note_on_c, 14, 42, 52
16, 57359, Note_on_c, 14, 42, 0
16, 57360, Note_on_c, 14, 41, 52
16, 57599, Note_on_c, 14, 41, 0
16, 59040, Note_on_c, 14, 56, 52
16, 59279, Note_on_c, 14, 56, 0
16, 59280, Note_on_c, 14, 53, 52
16, 59519, Note_on_c, 14, 53, 0
16, 59520, Note_on_c, 14, 50, 52
16, 59759, Note_on_c, 14, 50, 0
16, 59760, Note_on_c, 14, 47, 52
16, 59999, Note_on_c, 14, 47, 0
16, 60000, Note_on_c, 14, 44, 52
16, 60239, Note_on_c, 14, 44, 0
16, 60240, Note_on_c, 14, 43, 52
16, 60449, Note_on_c, 14, 43, 0
16, 60480, Note_on_c, 14, 61, 52
16, 60719, Note_on_c, 14, 61, 0
16, 60720, Note_on_c, 14, 58, 52
16, 60959, Note_on_c, 14, 58, 0
16, 60960, Note_on_c, 14, 55, 52
16, 61199, Note_on_c, 14, 55, 0
16, 61200, Note_on_c, 14, 52, 52
16, 61439, Note_on_c, 14, 52, 0
16, 61440, Note_on_c, 14, 49, 52
16, 61679, Note_on_c, 14, 49, 0
16, 61680, Note_on_c, 14, 48, 52
16, 61889, Note_on_c, 14, 48, 0
16, 61918, Control_c, 14, 11, 96
16, 61920, Note_on_c, 14, 46, 68
16, 62159, Note_on_c, 14, 46, 0
16, 62160, Note_on_c, 14, 45, 68
16, 63599, Note_on_c, 14, 45, 0
16, 63600, Note_on_c, 14, 45, 68
16, 63600, Control_c, 14, 11, 96
16, 63680, Control_c, 14, 11, 99
16, 63760, Control_c, 14, 11, 101
16, 63840, Control_c, 14, 11, 104
16, 63920, Control_c, 14, 11, 106
16, 64000, Control_c, 14, 11, 109
16, 64080, Control_c, 14, 11, 112
16, 64160, Control_c, 14, 11, 114
16, 64240, Control_c, 14, 11, 117
16, 64320, Control_c, 14, 11, 119
16, 64400, Control_c, 14, 11, 122
16, 64480, Control_c, 14, 11, 127
16, 64769, Note_on_c, 14, 45, 0
16, 64800, Note_on_c, 14, 46, 76
16, 65038, Control_c, 14, 11, 96
16, 65039, Note_on_c, 14, 46, 0
16, 65040, Note_on_c, 14, 45, 68
16, 66479, Note_on_c, 14, 45, 0
16, 66480, Note_on_c, 14, 45, 68
16, 66480, Control_c, 14, 11, 96
16, 66560, Control_c, 14, 11, 99
16, 66640, Control_c, 14, 11, 101
16, 66720, Control_c, 14, 11, 104
16, 66800, Control_c, 14, 11, 106
16, 66880, Control_c, 14, 11, 109
16, 66960, Control_c, 14, 11, 112
16, 67040, Control_c, 14, 11, 114
16, 67120, Control_c, 14, 11, 117
16, 67200, Control_c, 14, 11, 119
16, 67280, Control_c, 14, 11, 122
16, 67360, Control_c, 14, 11, 127
16, 67649, Note_on_c, 14, 45, 0
16, 67680, Note_on_c, 14, 46, 76
16, 67919, Note_on_c, 14, 46, 0
16, 67920, Note_on_c, 14, 45, 68
16, 68129, Note_on_c, 14, 45, 0
16, 68160, Note_on_c, 14, 53, 76
16, 68609, Note_on_c, 14, 53, 0
16, 68640, Note_on_c, 14, 55, 76
16, 69089, Note_on_c, 14, 55, 0
16, 69120, Note_on_c, 14, 51, 76
16, 69329, Note_on_c, 14, 51, 0
16, 69360, Note_on_c, 14, 53, 84
16, 70049, Note_on_c, 14, 53, 0
16, 70080, Note_on_c, 14, 53, 84
16, 70769, Note_on_c, 14, 53, 0
16, 70800, Note_on_c, 14, 46, 84
16, 71039, Note_on_c, 14, 46, 0
16, 71040, Note_on_c, 14, 41, 84
16, 71159, Note_on_c, 14, 41, 0
16, 71280, Note_on_c, 14, 50, 84
16, 71519, Note_on_c, 14, 50, 0
16, 71520, Note_on_c, 14, 46, 84
16, 71639, Note_on_c, 14, 46, 0
16, 71760, Note_on_c, 14, 53, 84
16, 71999, Note_on_c, 14, 53, 0
16, 72000, Note_on_c, 14, 50, 84
16, 72119, Note_on_c, 14, 50, 0
16, 72240, Note_on_c, 14, 41, 84
16, 73409, Note_on_c, 14, 41, 0
16, 73440, Note_on_c, 14, 41, 84
16, 73649, Note_on_c, 14, 41, 0
16, 73680, Note_on_c, 14, 46, 84
16, 73919, Note_on_c, 14, 46, 0
16, 73920, Note_on_c, 14, 41, 84
16, 74039, Note_on_c, 14, 41, 0
16, 74160, Note_on_c, 14, 50, 84
16, 74399, Note_on_c, 14, 50, 0
16, 74400, Note_on_c, 14, 46, 84
16, 74519, Note_on_c, 14, 46, 0
16, 74640, Note_on_c, 14, 53, 84
16, 74879, Note_on_c, 14, 53, 0
16, 74880, Note_on_c, 14, 50, 84
16, 74999, Note_on_c, 14, 50, 0
16, 75120, Note_on_c, 14, 41, 84
16, 76289, Note_on_c, 14, 41, 0
16, 76320, Note_on_c, 14, 41, 84
16, 76529, Note_on_c, 14, 41, 0
16, 76560, Note_on_c, 14, 46, 76
16, 77249, Note_on_c, 14, 46, 0
16, 77280, Note_on_c, 14, 46, 76
16, 77969, Note_on_c, 14, 46, 0
16, 78000, Note_on_c, 14, 46, 76
16, 78209, Note_on_c, 14, 46, 0
16, 78240, Note_on_c, 14, 46, 76
16, 78449, Note_on_c, 14, 46, 0
16, 78480, Note_on_c, 14, 46, 76
16, 78689, Note_on_c, 14, 46, 0
16, 78720, Note_on_c, 14, 46, 76
16, 78959, Note_on_c, 14, 46, 0
16, 79440, Note_on_c, 14, 61, 52
16, 79649, Note_on_c, 14, 61, 0
16, 79680, Note_on_c, 14, 61, 52
16, 80129, Note_on_c, 14, 61, 0
16, 80160, Note_on_c, 14, 61, 52
16, 80609, Note_on_c, 14, 61, 0
16, 80640, Note_on_c, 14, 61, 52
16, 80849, Note_on_c, 14, 61, 0
16, 80880, Note_on_c, 14, 56, 52
16, 81329, Note_on_c, 14, 56, 0
16, 81360, Note_on_c, 14, 56, 52
16, 81569, Note_on_c, 14, 56, 0
16, 81600, Note_on_c, 14, 56, 52
16, 81839, Note_on_c, 14, 56, 0
16, 83280, Note_on_c, 14, 44, 52
16, 83489, Note_on_c, 14, 44, 0
16, 83520, Note_on_c, 14, 44, 52
16, 83729, Note_on_c, 14, 44, 0
16, 83760, Note_on_c, 14, 49, 52
16, 84209, Note_on_c, 14, 49, 0
16, 84240, Note_on_c, 14, 61, 52
16, 84449, Note_on_c, 14, 61, 0
16, 84480, Note_on_c, 14, 61, 52
16, 84719, Note_on_c, 14, 61, 0
16, 86160, Note_on_c, 14, 49, 52
16, 86369, Note_on_c, 14, 49, 0
16, 86400, Note_on_c, 14, 49, 52
16, 86609, Note_on_c, 14, 49, 0
16, 86640, Note_on_c, 14, 46, 52
16, 87089, Note_on_c, 14, 46, 0
16, 87120, Note_on_c, 14, 58, 52
16, 87329, Note_on_c, 14, 58, 0
16, 87360, Note_on_c, 14, 58, 52
16, 87599, Note_on_c, 14, 58, 0
16, 89040, Note_on_c, 14, 58, 52
16, 89249, Note_on_c, 14, 58, 0
16, 89280, Note_on_c, 14, 58, 52
16, 89489, Note_on_c, 14, 58, 0
16, 89520, Note_on_c, 14, 63, 52
16, 90929, Note_on_c, 14, 63, 0
16, 90960, Note_on_c, 14, 65, 52
16, 92369, Note_on_c, 14, 65, 0
16, 92400, Note_on_c, 14, 58, 52
16, 93809, Note_on_c, 14, 58, 0
16, 93840, Note_on_c, 14, 60, 52
16, 95249, Note_on_c, 14, 60, 0
16, 95280, Note_on_c, 14, 53, 52
16, 95969, Note_on_c, 14, 53, 0
16, 96000, Note_on_c, 14, 55, 52
16, 96689, Note_on_c, 14, 55, 0
16, 96720, Note_on_c, 14, 48, 52
16, 97409, Note_on_c, 14, 48, 0
16, 97440, Note_on_c, 14, 50, 52
16, 98129, Note_on_c, 14, 50, 0
16, 98160, Note_on_c, 14, 43, 52
16, 98849, Note_on_c, 14, 43, 0
16, 98880, Note_on_c, 14, 45, 52
16, 99360, Control_c, 14, 11, 80
16, 99569, Note_on_c, 14, 45, 0
16, 99600, Control_c, 14, 11, 80
16, 99600, Note_on_c, 14, 38, 76
16, 99710, Control_c, 14, 11, 82
16, 99820, Control_c, 14, 11, 84
16, 99930, Control_c, 14, 11, 86
16, 100040, Control_c, 14, 11, 88
16, 100150, Control_c, 14, 11, 90
16, 100260, Control_c, 14, 11, 92
16, 100289, Note_on_c, 14, 38, 0
16, 100320, Note_on_c, 14, 41, 76
16, 100370, Control_c, 14, 11, 94
16, 100480, Control_c, 14, 11, 96
16, 100590, Control_c, 14, 11, 98
16, 100700, Control_c, 14, 11, 100
16, 100810, Control_c, 14, 11, 102
16, 100920, Control_c, 14, 11, 104
16, 101030, Control_c, 14, 11, 105
16, 101140, Control_c, 14, 11, 107
16, 101250, Control_c, 14, 11, 109
16, 101360, Control_c, 14, 11, 111
16, 101470, Control_c, 14, 11, 113
16, 101580, Control_c, 14, 11, 115
16, 101690, Control_c, 14, 11, 117
16, 101800, Control_c, 14, 11, 119
16, 101910, Control_c, 14, 11, 121
16, 102020, Control_c, 14, 11, 123
16, 102130, Control_c, 14, 11, 127
16, 102209, Note_on_c, 14, 41, 0
16, 102240, Note_on_c, 14, 41, 76
16, 102479, Note_on_c, 14, 41, 0
16, 102480, Note_on_c, 14, 46, 84
16, 102689, Note_on_c, 14, 46, 0
16, 102720, Note_on_c, 14, 46, 84
16, 103169, Note_on_c, 14, 46, 0
16, 103200, Note_on_c, 14, 46, 84
16, 103649, Note_on_c, 14, 46, 0
16, 103680, Note_on_c, 14, 46, 84
16, 103889, Note_on_c, 14, 46, 0
16, 103920, Note_on_c, 14, 41, 84
16, 104159, Note_on_c, 14, 41, 0
16, 104160, Note_on_c, 14, 45, 84
16, 104399, Note_on_c, 14, 45, 0
16, 104400, Note_on_c, 14, 48, 84
16, 104579, Note_on_c, 14, 48, 0
16, 104640, Note_on_c, 14, 53, 84
16, 104879, Note_on_c, 14, 53, 0
16, 106560, Note_on_c, 14, 54, 52
16, 106799, Note_on_c, 14, 54, 0
16, 106800, Note_on_c, 14, 51, 52
16, 107039, Note_on_c, 14, 51, 0
16, 107040, Note_on_c, 14, 48, 52
16, 107279, Note_on_c, 14, 48, 0
16, 107280, Note_on_c, 14, 45, 52
16, 107519, Note_on_c, 14, 45, 0
16, 107520, Note_on_c, 14, 42, 52
16, 107759, Note_on_c, 14, 42, 0
16, 107760, Note_on_c, 14, 41, 52
16, 107999, Note_on_c, 14, 41, 0
16, 109440, Note_on_c, 14, 56, 52
16, 109679, Note_on_c, 14, 56, 0
16, 109680, Note_on_c, 14, 53, 52
16, 109919, Note_on_c, 14, 53, 0
16, 109920, Note_on_c, 14, 50, 52
16, 110159, Note_on_c, 14, 50, 0
16, 110160, Note_on_c, 14, 47, 52
16, 110399, Note_on_c, 14, 47, 0
16, 110400, Note_on_c, 14, 44, 52
16, 110639, Note_on_c, 14, 44, 0
16, 110640, Note_on_c, 14, 43, 52
16, 110849, Note_on_c, 14, 43, 0
16, 110880, Note_on_c, 14, 61, 52
16, 111119, Note_on_c, 14, 61, 0
16, 111120, Note_on_c, 14, 58, 52
16, 111359, Note_on_c, 14, 58, 0
16, 111360, Note_on_c, 14, 55, 52
16, 111599, Note_on_c, 14, 55, 0
16, 111600, Note_on_c, 14, 52, 52
16, 111839, Note_on_c, 14, 52, 0
16, 111840, Note_on_c, 14, 49, 52
16, 112079, Note_on_c, 14, 49, 0
16, 112080, Note_on_c, 14, 48, 52
16, 112289, Note_on_c, 14, 48, 0
16, 112318, Control_c, 14, 11, 96
16, 112320, Note_on_c, 14, 46, 68
16, 112559, Note_on_c, 14, 46, 0
16, 112560, Note_on_c, 14, 45, 68
16, 113999, Note_on_c, 14, 45, 0
16, 114000, Control_c, 14, 11, 96
16, 114000, Note_on_c, 14, 45, 68
16, 114080, Control_c, 14, 11, 99
16, 114160, Control_c, 14, 11, 101
16, 114240, Control_c, 14, 11, 104
16, 114320, Control_c, 14, 11, 106
16, 114400, Control_c, 14, 11, 109
16, 114480, Control_c, 14, 11, 112
16, 114560, Control_c, 14, 11, 114
16, 114640, Control_c, 14, 11, 117
16, 114720, Control_c, 14, 11, 119
16, 114800, Control_c, 14, 11, 122
16, 114880, Control_c, 14, 11, 127
16, 115169, Note_on_c, 14, 45, 0
16, 115200, Note_on_c, 14, 46, 76
16, 115438, Control_c, 14, 11, 96
16, 115439, Note_on_c, 14, 46, 0
16, 115440, Note_on_c, 14, 45, 68
16, 116879, Note_on_c, 14, 45, 0
16, 116880, Note_on_c, 14, 45, 68
16, 116880, Control_c, 14, 11, 96
16, 116960, Control_c, 14, 11, 99
16, 117040, Control_c, 14, 11, 101
16, 117120, Control_c, 14, 11, 104
16, 117200, Control_c, 14, 11, 106
16, 117280, Control_c, 14, 11, 109
16, 117360, Control_c, 14, 11, 112
16, 117440, Control_c, 14, 11, 114
16, 117520, Control_c, 14, 11, 117
16, 117600, Control_c, 14, 11, 119
16, 117680, Control_c, 14, 11, 122
16, 117760, Control_c, 14, 11, 127
16, 118049, Note_on_c, 14, 45, 0
16, 118080, Note_on_c, 14, 46, 76
16, 118319, Note_on_c, 14, 46, 0
16, 118320, Note_on_c, 14, 45, 68
16, 118529, Note_on_c, 14, 45, 0
16, 118560, Note_on_c, 14, 53, 76
16, 119009, Note_on_c, 14, 53, 0
16, 119040, Note_on_c, 14, 55, 76
16, 119489, Note_on_c, 14, 55, 0
16, 119520, Note_on_c, 14, 51, 76
16, 119729, Note_on_c, 14, 51, 0
16, 119760, Note_on_c, 14, 53, 84
16, 120449, Note_on_c, 14, 53, 0
16, 120480, Note_on_c, 14, 53, 84
16, 121169, Note_on_c, 14, 53, 0
16, 121200, Note_on_c, 14, 46, 84
16, 121439, Note_on_c, 14, 46, 0
16, 121440, Note_on_c, 14, 41, 84
16, 121559, Note_on_c, 14, 41, 0
16, 121680, Note_on_c, 14, 50, 84
16, 121919, Note_on_c, 14, 50, 0
16, 121920, Note_on_c, 14, 46, 84
16, 122039, Note_on_c, 14, 46, 0
16, 122160, Note_on_c, 14, 53, 84
16, 122399, Note_on_c, 14, 53, 0
16, 122400, Note_on_c, 14, 50, 84
16, 122519, Note_on_c, 14, 50, 0
16, 122640, Note_on_c, 14, 41, 84
16, 123809, Note_on_c, 14, 41, 0
16, 123840, Note_on_c, 14, 41, 84
16, 124049, Note_on_c, 14, 41, 0
16, 124080, Note_on_c, 14, 46, 84
16, 124319, Note_on_c, 14, 46, 0
16, 124320, Note_on_c, 14, 41, 84
16, 124439, Note_on_c, 14, 41, 0
16, 124560, Note_on_c, 14, 50, 84
16, 124799, Note_on_c, 14, 50, 0
16, 124800, Note_on_c, 14, 46, 84
16, 124919, Note_on_c, 14, 46, 0
16, 125040, Note_on_c, 14, 53, 84
16, 125279, Note_on_c, 14, 53, 0
16, 125280, Note_on_c, 14, 50, 84
16, 125399, Note_on_c, 14, 50, 0
16, 125520, Note_on_c, 14, 41, 84
16, 126689, Note_on_c, 14, 41, 0
16, 126720, Note_on_c, 14, 41, 84
16, 126929, Note_on_c, 14, 41, 0
16, 126960, Note_on_c, 14, 46, 76
16, 127649, Note_on_c, 14, 46, 0
16, 127680, Note_on_c, 14, 46, 76
16, 128369, Note_on_c, 14, 46, 0
16, 128400, Note_on_c, 14, 46, 76
16, 128609, Note_on_c, 14, 46, 0
16, 128640, Note_on_c, 14, 46, 76
16, 128849, Note_on_c, 14, 46, 0
16, 128880, Note_on_c, 14, 46, 76
16, 129089, Note_on_c, 14, 46, 0
16, 129120, Note_on_c, 14, 46, 76
16, 129359, Note_on_c, 14, 46, 0
16, 139200, Control_c, 14, 11, 96
16, 139680, Note_on_c, 14, 46, 68
16, 139889, Note_on_c, 14, 46, 0
16, 139920, Note_on_c, 14, 46, 68
16, 139920, Control_c, 14, 11, 96
16, 139980, Control_c, 14, 11, 99
16, 140040, Control_c, 14, 11, 101
16, 140100, Control_c, 14, 11, 104
16, 140160, Control_c, 14, 11, 106
16, 140220, Control_c, 14, 11, 109
16, 140280, Control_c, 14, 11, 112
16, 140340, Control_c, 14, 11, 114
16, 140400, Control_c, 14, 11, 117
16, 140460, Control_c, 14, 11, 119
16, 140520, Control_c, 14, 11, 122
16, 140580, Control_c, 14, 11, 127
16, 140640, Control_c, 14, 11, 127
16, 140700, Control_c, 14, 11, 124
16, 140760, Control_c, 14, 11, 122
16, 140820, Control_c, 14, 11, 119
16, 140849, Note_on_c, 14, 46, 0
16, 140880, Note_on_c, 14, 46, 68
16, 140880, Control_c, 14, 11, 117
16, 140940, Control_c, 14, 11, 114
16, 141000, Control_c, 14, 11, 112
16, 141060, Control_c, 14, 11, 109
16, 141089, Note_on_c, 14, 46, 0
16, 141120, Note_on_c, 14, 46, 68
16, 141120, Control_c, 14, 11, 106
16, 141180, Control_c, 14, 11, 104
16, 141240, Control_c, 14, 11, 101
16, 141300, Control_c, 14, 11, 96
16, 141329, Note_on_c, 14, 46, 0
16, 141360, Note_on_c, 14, 46, 68
16, 141599, Note_on_c, 14, 46, 0
16, 154080, Control_c, 14, 11, 127
16, 154080, Program_c, 14, 45
16, 154320, Note_on_c, 14, 41, 48
16, 154559, Note_on_c, 14, 41, 0
16, 157200, Note_on_c, 14, 41, 48
16, 157439, Note_on_c, 14, 41, 0
16, 160800, Program_c, 14, 48
16, 161160, Note_on_c, 14, 53, 44
16, 161279, Note_on_c, 14, 53, 0
16, 161280, Note_on_c, 14, 54, 44
16, 161399, Note_on_c, 14, 54, 0
16, 161400, Note_on_c, 14, 53, 44
16, 161504, Note_on_c, 14, 53, 0
16, 161520, Note_on_c, 14, 54, 44
16, 161699, Note_on_c, 14, 54, 0
16, 161880, Note_on_c, 14, 53, 44
16, 161999, Note_on_c, 14, 53, 0
16, 162000, Note_on_c, 14, 54, 44
16, 162119, Note_on_c, 14, 54, 0
16, 162120, Note_on_c, 14, 53, 44
16, 162224, Note_on_c, 14, 53, 0
16, 162240, Note_on_c, 14, 54, 44
16, 162419, Note_on_c, 14, 54, 0
16, 162600, Note_on_c, 14, 53, 44
16, 162719, Note_on_c, 14, 53, 0
16, 162720, Note_on_c, 14, 54, 44
16, 162839, Note_on_c, 14, 54, 0
16, 162840, Note_on_c, 14, 53, 44
16, 162959, Note_on_c, 14, 53, 0
16, 162960, Note_on_c, 14, 54, 44
16, 163079, Note_on_c, 14, 54, 0
16, 163080, Note_on_c, 14, 52, 44
16, 163199, Note_on_c, 14, 52, 0
16, 163200, Note_on_c, 14, 53, 44
16, 163319, Note_on_c, 14, 53, 0
16, 163320, Note_on_c, 14, 52, 44
16, 163439, Note_on_c, 14, 52, 0
16, 163440, Note_on_c, 14, 53, 44
16, 163559, Note_on_c, 14, 53, 0
16, 163560, Note_on_c, 14, 52, 44
16, 163679, Note_on_c, 14, 52, 0
16, 163680, Note_on_c, 14, 53, 44
16, 163799, Note_on_c, 14, 53, 0
16, 163800, Note_on_c, 14, 45, 44
16, 163919, Note_on_c, 14, 45, 0
16, 163920, Note_on_c, 14, 46, 44
16, 164039, Note_on_c, 14, 46, 0
16, 164040, Note_on_c, 14, 45, 44
16, 164159, Note_on_c, 14, 45, 0
16, 164160, Note_on_c, 14, 46, 44
16, 164279, Note_on_c, 14, 46, 0
16, 164280, Note_on_c, 14, 45, 44
16, 164399, Note_on_c, 14, 45, 0
16, 164400, Note_on_c, 14, 46, 44
16, 164519, Note_on_c, 14, 46, 0
16, 164520, Note_on_c, 14, 45, 44
16, 164639, Note_on_c, 14, 45, 0
16, 164640, Note_on_c, 14, 46, 44
16, 164759, Note_on_c, 14, 46, 0
16, 164760, Note_on_c, 14, 45, 44
16, 164879, Note_on_c, 14, 45, 0
16, 164880, Note_on_c, 14, 46, 44
16, 164999, Note_on_c, 14, 46, 0
16, 165000, Note_on_c, 14, 45, 44
16, 165119, Note_on_c, 14, 45, 0
16, 165120, Note_on_c, 14, 46, 44
16, 165239, Note_on_c, 14, 46, 0
16, 165240, Note_on_c, 14, 45, 44
16, 165359, Note_on_c, 14, 45, 0
16, 165360, Note_on_c, 14, 46, 44
16, 165479, Note_on_c, 14, 46, 0
16, 165480, Note_on_c, 14, 45, 44
16, 165599, Note_on_c, 14, 45, 0
16, 165600, Note_on_c, 14, 46, 44
16, 165719, Note_on_c, 14, 46, 0
16, 165720, Note_on_c, 14, 45, 44
16, 165824, Note_on_c, 14, 45, 0
16, 165840, Note_on_c, 14, 46, 44
16, 165959, Note_on_c, 14, 46, 0
16, 165960, Note_on_c, 14, 45, 44
16, 166079, Note_on_c, 14, 45, 0
16, 166080, Note_on_c, 14, 46, 44
16, 166199, Note_on_c, 14, 46, 0
16, 166200, Note_on_c, 14, 45, 45
16, 166319, Note_on_c, 14, 45, 0
16, 166320, Note_on_c, 14, 46, 45
16, 166439, Note_on_c, 14, 46, 0
16, 166440, Note_on_c, 14, 45, 46
16, 166559, Note_on_c, 14, 45, 0
16, 166560, Note_on_c, 14, 46, 46
16, 166679, Note_on_c, 14, 46, 0
16, 166680, Note_on_c, 14, 45, 47
16, 166799, Note_on_c, 14, 45, 0
16, 166800, Note_on_c, 14, 46, 47
16, 166919, Note_on_c, 14, 46, 0
16, 166920, Note_on_c, 14, 45, 48
16, 167039, Note_on_c, 14, 45, 0
16, 167040, Note_on_c, 14, 46, 48
16, 167159, Note_on_c, 14, 46, 0
16, 167160, Note_on_c, 14, 45, 48
16, 167279, Note_on_c, 14, 45, 0
16, 167280, Note_on_c, 14, 46, 49
16, 167399, Note_on_c, 14, 46, 0
16, 167400, Note_on_c, 14, 45, 49
16, 167519, Note_on_c, 14, 45, 0
16, 167520, Note_on_c, 14, 46, 50
16, 167639, Note_on_c, 14, 46, 0
16, 167640, Note_on_c, 14, 45, 50
16, 167759, Note_on_c, 14, 45, 0
16, 167760, Note_on_c, 14, 46, 51
16, 167879, Note_on_c, 14, 46, 0
16, 167880, Note_on_c, 14, 45, 51
16, 167999, Note_on_c, 14, 45, 0
16, 168000, Note_on_c, 14, 46, 52
16, 168119, Note_on_c, 14, 46, 0
16, 168120, Note_on_c, 14, 45, 52
16, 168239, Note_on_c, 14, 45, 0
16, 168240, Note_on_c, 14, 46, 52
16, 168359, Note_on_c, 14, 46, 0
16, 168360, Note_on_c, 14, 45, 53
16, 168479, Note_on_c, 14, 45, 0
16, 168480, Note_on_c, 14, 46, 53
16, 168599, Note_on_c, 14, 46, 0
16, 168600, Note_on_c, 14, 45, 54
16, 168704, Note_on_c, 14, 45, 0
16, 168720, Note_on_c, 14, 46, 54
16, 168839, Note_on_c, 14, 46, 0
16, 168840, Note_on_c, 14, 45, 55
16, 168959, Note_on_c, 14, 45, 0
16, 168960, Note_on_c, 14, 46, 55
16, 169079, Note_on_c, 14, 46, 0
16, 169080, Note_on_c, 14, 45, 56
16, 169199, Note_on_c, 14, 45, 0
16, 169200, Note_on_c, 14, 46, 56
16, 169319, Note_on_c, 14, 46, 0
16, 169320, Note_on_c, 14, 45, 56
16, 169439, Note_on_c, 14, 45, 0
16, 169440, Note_on_c, 14, 46, 57
16, 169559, Note_on_c, 14, 46, 0
16, 169560, Note_on_c, 14, 45, 57
16, 169679, Note_on_c, 14, 45, 0
16, 169680, Note_on_c, 14, 46, 58
16, 169799, Note_on_c, 14, 46, 0
16, 169800, Note_on_c, 14, 45, 58
16, 169919, Note_on_c, 14, 45, 0
16, 169920, Note_on_c, 14, 46, 59
16, 170039, Note_on_c, 14, 46, 0
16, 170040, Note_on_c, 14, 45, 59
16, 170159, Note_on_c, 14, 45, 0
16, 170160, Note_on_c, 14, 46, 60
16, 170279, Note_on_c, 14, 46, 0
16, 170280, Note_on_c, 14, 45, 60
16, 170399, Note_on_c, 14, 45, 0
16, 170400, Note_on_c, 14, 46, 60
16, 170519, Note_on_c, 14, 46, 0
16, 170520, Note_on_c, 14, 45, 61
16, 170639, Note_on_c, 14, 45, 0
16, 170640, Note_on_c, 14, 46, 61
16, 170759, Note_on_c, 14, 46, 0
16, 170760, Note_on_c, 14, 45, 62
16, 170879, Note_on_c, 14, 45, 0
16, 170880, Note_on_c, 14, 46, 62
16, 170999, Note_on_c, 14, 46, 0
16, 171000, Note_on_c, 14, 45, 63
16, 171119, Note_on_c, 14, 45, 0
16, 171120, Note_on_c, 14, 46, 63
16, 171239, Note_on_c, 14, 46, 0
16, 171240, Note_on_c, 14, 45, 64
16, 171359, Note_on_c, 14, 45, 0
16, 171360, Note_on_c, 14, 46, 64
16, 171479, Note_on_c, 14, 46, 0
16, 171480, Note_on_c, 14, 45, 64
16, 171584, Note_on_c, 14, 45, 0
16, 171600, Note_on_c, 14, 46, 65
16, 171719, Note_on_c, 14, 46, 0
16, 171720, Note_on_c, 14, 45, 65
16, 171839, Note_on_c, 14, 45, 0
16, 171840, Note_on_c, 14, 46, 66
16, 171959, Note_on_c, 14, 46, 0
16, 171960, Note_on_c, 14, 45, 66
16, 172079, Note_on_c, 14, 45, 0
16, 172080, Note_on_c, 14, 46, 67
16, 172199, Note_on_c, 14, 46, 0
16, 172200, Note_on_c, 14, 44, 67
16, 172319, Note_on_c, 14, 44, 0
16, 172320, Note_on_c, 14, 46, 68
16, 172439, Note_on_c, 14, 46, 0
16, 172440, Note_on_c, 14, 43, 68
16, 172559, Note_on_c, 14, 43, 0
16, 172560, Note_on_c, 14, 46, 68
16, 172679, Note_on_c, 14, 46, 0
16, 172680, Note_on_c, 14, 43, 69
16, 172799, Note_on_c, 14, 43, 0
16, 172800, Note_on_c, 14, 46, 69
16, 172919, Note_on_c, 14, 46, 0
16, 172920, Note_on_c, 14, 41, 70
16, 173039, Note_on_c, 14, 41, 0
16, 173040, Note_on_c, 14, 46, 70
16, 173159, Note_on_c, 14, 46, 0
16, 173160, Note_on_c, 14, 39, 71
16, 173279, Note_on_c, 14, 39, 0
16, 173280, Note_on_c, 14, 46, 71
16, 173399, Note_on_c, 14, 46, 0
16, 173400, Note_on_c, 14, 39, 72
16, 173519, Note_on_c, 14, 39, 0
16, 173520, Note_on_c, 14, 46, 72
16, 173639, Note_on_c, 14, 46, 0
16, 173640, Note_on_c, 14, 39, 72
16, 173759, Note_on_c, 14, 39, 0
16, 173760, Note_on_c, 14, 46, 73
16, 173879, Note_on_c, 14, 46, 0
16, 173880, Note_on_c, 14, 39, 73
16, 173999, Note_on_c, 14, 39, 0
16, 174000, Note_on_c, 14, 46, 74
16, 174119, Note_on_c, 14, 46, 0
16, 174120, Note_on_c, 14, 39, 74
16, 174239, Note_on_c, 14, 39, 0
16, 174240, Note_on_c, 14, 46, 75
16, 174359, Note_on_c, 14, 46, 0
16, 174360, Note_on_c, 14, 41, 75
16, 174464, Note_on_c, 14, 41, 0
16, 174480, Note_on_c, 14, 41, 76
16, 174569, Note_on_c, 14, 41, 0
16, 174600, Note_on_c, 14, 45, 76
16, 174719, Note_on_c, 14, 45, 0
16, 174720, Note_on_c, 14, 43, 76
16, 174839, Note_on_c, 14, 43, 0
16, 174840, Note_on_c, 14, 45, 77
16, 174959, Note_on_c, 14, 45, 0
16, 174960, Note_on_c, 14, 48, 77
16, 175079, Note_on_c, 14, 48, 0
16, 175080, Note_on_c, 14, 45, 78
16, 175184, Note_on_c, 14, 45, 0
16, 175200, Note_on_c, 14, 41, 78
16, 175289, Note_on_c, 14, 41, 0
16, 175320, Note_on_c, 14, 45, 79
16, 175439, Note_on_c, 14, 45, 0
16, 175440, Note_on_c, 14, 43, 79
16, 175559, Note_on_c, 14, 43, 0
16, 175560, Note_on_c, 14, 45, 80
16, 175679, Note_on_c, 14, 45, 0
16, 175680, Note_on_c, 14, 48, 80
16, 175799, Note_on_c, 14, 48, 0
16, 175800, Note_on_c, 14, 41, 80
16, 175904, Note_on_c, 14, 41, 0
16, 175920, Note_on_c, 14, 46, 81
16, 176009, Note_on_c, 14, 46, 0
16, 176040, Note_on_c, 14, 57, 81
16, 176159, Note_on_c, 14, 57, 0
16, 176160, Note_on_c, 14, 58, 82
16, 176279, Note_on_c, 14, 58, 0
16, 176280, Note_on_c, 14, 57, 82
16, 176399, Note_on_c, 14, 57, 0
16, 176400, Note_on_c, 14, 58, 83
16, 176519, Note_on_c, 14, 58, 0
16, 176520, Note_on_c, 14, 57, 83
16, 176639, Note_on_c, 14, 57, 0
16, 176640, Note_on_c, 14, 58, 84
16, 176759, Note_on_c, 14, 58, 0
16, 176760, Note_on_c, 14, 57, 84
16, 176879, Note_on_c, 14, 57, 0
16, 176880, Note_on_c, 14, 58, 84
16, 176999, Note_on_c, 14, 58, 0
16, 177000, Note_on_c, 14, 57, 84
16, 177119, Note_on_c, 14, 57, 0
16, 177120, Note_on_c, 14, 58, 84
16, 177239, Note_on_c, 14, 58, 0
16, 177240, Note_on_c, 14, 57, 84
16, 177344, Note_on_c, 14, 57, 0
16, 177360, Note_on_c, 14, 58, 84
16, 177479, Note_on_c, 14, 58, 0
16, 177480, Note_on_c, 14, 57, 84
16, 177599, Note_on_c, 14, 57, 0
16, 177600, Note_on_c, 14, 58, 84
16, 177719, Note_on_c, 14, 58, 0
16, 177720, Note_on_c, 14, 57, 84
16, 177839, Note_on_c, 14, 57, 0
16, 177840, Note_on_c, 14, 58, 84
16, 177959, Note_on_c, 14, 58, 0
16, 177960, Note_on_c, 14, 56, 84
16, 178079, Note_on_c, 14, 56, 0
16, 178080, Note_on_c, 14, 58, 84
16, 178199, Note_on_c, 14, 58, 0
16, 178200, Note_on_c, 14, 55, 84
16, 178319, Note_on_c, 14, 55, 0
16, 178320, Note_on_c, 14, 58, 84
16, 178439, Note_on_c, 14, 58, 0
16, 178440, Note_on_c, 14, 55, 84
16, 178559, Note_on_c, 14, 55, 0
16, 178560, Note_on_c, 14, 58, 84
16, 178679, Note_on_c, 14, 58, 0
16, 178680, Note_on_c, 14, 53, 84
16, 178784, Note_on_c, 14, 53, 0
16, 178800, Note_on_c, 14, 58, 84
16, 178919, Note_on_c, 14, 58, 0
16, 178920, Note_on_c, 14, 51, 84
16, 179039, Note_on_c, 14, 51, 0
16, 179040, Note_on_c, 14, 58, 84
16, 179159, Note_on_c, 14, 58, 0
16, 179160, Note_on_c, 14, 51, 84
16, 179279, Note_on_c, 14, 51, 0
16, 179280, Note_on_c, 14, 58, 84
16, 179399, Note_on_c, 14, 58, 0
16, 179400, Note_on_c, 14, 51, 84
16, 179519, Note_on_c, 14, 51, 0
16, 179520, Note_on_c, 14, 58, 84
16, 179639, Note_on_c, 14, 58, 0
16, 179640, Note_on_c, 14, 51, 84
16, 179759, Note_on_c, 14, 51, 0
16, 179760, Note_on_c, 14, 58, 84
16, 179879, Note_on_c, 14, 58, 0
16, 179880, Note_on_c, 14, 51, 84
16, 179999, Note_on_c, 14, 51, 0
16, 180000, Note_on_c, 14, 58, 84
16, 180119, Note_on_c, 14, 58, 0
16, 180120, Note_on_c, 14, 53, 84
16, 180224, Note_on_c, 14, 53, 0
16, 180240, Note_on_c, 14, 53, 84
16, 180329, Note_on_c, 14, 53, 0
16, 180360, Note_on_c, 14, 57, 84
16, 180479, Note_on_c, 14, 57, 0
16, 180480, Note_on_c, 14, 55, 84
16, 180599, Note_on_c, 14, 55, 0
16, 180600, Note_on_c, 14, 57, 84
16, 180719, Note_on_c, 14, 57, 0
16, 180720, Note_on_c, 14, 60, 84
16, 180839, Note_on_c, 14, 60, 0
16, 180840, Note_on_c, 14, 57, 84
16, 180944, Note_on_c, 14, 57, 0
16, 180960, Note_on_c, 14, 53, 84
16, 181049, Note_on_c, 14, 53, 0
16, 181080, Note_on_c, 14, 57, 84
16, 181199, Note_on_c, 14, 57, 0
16, 181200, Note_on_c, 14, 55, 84
16, 181319, Note_on_c, 14, 55, 0
16, 181320, Note_on_c, 14, 57, 84
16, 181439, Note_on_c, 14, 57, 0
16, 181440, Note_on_c, 14, 60, 84
16, 181559, Note_on_c, 14, 60, 0
16, 181560, Note_on_c, 14, 57, 84
16, 181664, Note_on_c, 14, 57, 0
16, 181680, Note_on_c, 14, 53, 84
16, 181769, Note_on_c, 14, 53, 0
16, 181800, Note_on_c, 14, 58, 84
16, 181919, Note_on_c, 14, 58, 0
16, 181920, Note_on_c, 14, 57, 84
16, 182039, Note_on_c, 14, 57, 0
16, 182040, Note_on_c, 14, 58, 84
16, 182159, Note_on_c, 14, 58, 0
16, 182160, Note_on_c, 14, 62, 92
16, 182279, Note_on_c, 14, 62, 0
16, 182280, Note_on_c, 14, 58, 84
16, 182399, Note_on_c, 14, 58, 0
16, 182400, Note_on_c, 14, 62, 92
16, 182519, Note_on_c, 14, 62, 0
16, 182520, Note_on_c, 14, 58, 84
16, 182639, Note_on_c, 14, 58, 0
16, 182640, Note_on_c, 14, 57, 84
16, 182759, Note_on_c, 14, 57, 0
16, 182760, Note_on_c, 14, 58, 84
16, 182879, Note_on_c, 14, 58, 0
16, 182880, Note_on_c, 14, 62, 84
16, 182999, Note_on_c, 14, 62, 0
16, 183000, Note_on_c, 14, 58, 84
16, 183104, Note_on_c, 14, 58, 0
16, 183120, Note_on_c, 14, 53, 84
16, 183209, Note_on_c, 14, 53, 0
16, 183240, Note_on_c, 14, 57, 84
16, 183359, Note_on_c, 14, 57, 0
16, 183360, Note_on_c, 14, 55, 84
16, 183479, Note_on_c, 14, 55, 0
16, 183480, Note_on_c, 14, 57, 84
16, 183599, Note_on_c, 14, 57, 0
16, 183600, Note_on_c, 14, 60, 92
16, 183719, Note_on_c, 14, 60, 0
16, 183720, Note_on_c, 14, 57, 84
16, 183824, Note_on_c, 14, 57, 0
16, 183840, Note_on_c, 14, 60, 92
16, 183959, Note_on_c, 14, 60, 0
16, 183960, Note_on_c, 14, 57, 84
16, 184079, Note_on_c, 14, 57, 0
16, 184080, Note_on_c, 14, 55, 84
16, 184199, Note_on_c, 14, 55, 0
16, 184200, Note_on_c, 14, 57, 84
16, 184319, Note_on_c, 14, 57, 0
16, 184320, Note_on_c, 14, 60, 84
16, 184439, Note_on_c, 14, 60, 0
16, 184440, Note_on_c, 14, 57, 84
16, 184544, Note_on_c, 14, 57, 0
16, 184560, Note_on_c, 14, 53, 84
16, 184649, Note_on_c, 14, 53, 0
16, 184680, Note_on_c, 14, 58, 84
16, 184799, Note_on_c, 14, 58, 0
16, 184800, Note_on_c, 14, 57, 84
16, 184919, Note_on_c, 14, 57, 0
16, 184920, Note_on_c, 14, 58, 84
16, 185039, Note_on_c, 14, 58, 0
16, 185040, Note_on_c, 14, 62, 84
16, 185159, Note_on_c, 14, 62, 0
16, 185160, Note_on_c, 14, 58, 82
16, 185279, Note_on_c, 14, 58, 0
16, 185280, Note_on_c, 14, 62, 80
16, 185399, Note_on_c, 14, 62, 0
16, 185400, Note_on_c, 14, 58, 78
16, 185519, Note_on_c, 14, 58, 0
16, 185520, Note_on_c, 14, 57, 76
16, 185639, Note_on_c, 14, 57, 0
16, 185640, Note_on_c, 14, 58, 74
16, 185759, Note_on_c, 14, 58, 0
16, 185760, Note_on_c, 14, 62, 72
16, 185879, Note_on_c, 14, 62, 0
16, 185880, Note_on_c, 14, 58, 70
16, 185984, Note_on_c, 14, 58, 0
16, 186000, Note_on_c, 14, 53, 68
16, 186089, Note_on_c, 14, 53, 0
16, 186120, Note_on_c, 14, 57, 66
16, 186239, Note_on_c, 14, 57, 0
16, 186240, Note_on_c, 14, 55, 64
16, 186359, Note_on_c, 14, 55, 0
16, 186360, Note_on_c, 14, 57, 62
16, 186479, Note_on_c, 14, 57, 0
16, 186480, Note_on_c, 14, 60, 60
16, 186599, Note_on_c, 14, 60, 0
16, 186600, Note_on_c, 14, 57, 58
16, 186719, Note_on_c, 14, 57, 0
16, 186720, Note_on_c, 14, 60, 56
16, 186839, Note_on_c, 14, 60, 0
16, 186840, Note_on_c, 14, 57, 54
16, 186959, Note_on_c, 14, 57, 0
16, 186960, Note_on_c, 14, 55, 52
16, 187079, Note_on_c, 14, 55, 0
16, 187080, Note_on_c, 14, 57, 50
16, 187199, Note_on_c, 14, 57, 0
16, 187200, Note_on_c, 14, 60, 48
16, 187319, Note_on_c, 14, 60, 0
16, 187320, Note_on_c, 14, 57, 46
16, 187424, Note_on_c, 14, 57, 0
16, 187440, Note_on_c, 14, 62, 44
16, 187529, Note_on_c, 14, 62, 0
16, 187560, Note_on_c, 14, 58, 44
16, 187679, Note_on_c, 14, 58, 0
16, 187680, Note_on_c, 14, 57, 44
16, 187799, Note_on_c, 14, 57, 0
16, 187800, Note_on_c, 14, 58, 44
16, 187919, Note_on_c, 14, 58, 0
16, 187920, Note_on_c, 14, 62, 44
16, 188039, Note_on_c, 14, 62, 0
16, 188040, Note_on_c, 14, 58, 44
16, 188144, Note_on_c, 14, 58, 0
16, 188160, Note_on_c, 14, 62, 44
16, 188279, Note_on_c, 14, 62, 0
16, 188280, Note_on_c, 14, 58, 44
16, 188399, Note_on_c, 14, 58, 0
16, 188400, Note_on_c, 14, 57, 44
16, 188519, Note_on_c, 14, 57, 0
16, 188520, Note_on_c, 14, 58, 44
16, 188639, Note_on_c, 14, 58, 0
16, 188640, Note_on_c, 14, 62, 44
16, 188759, Note_on_c, 14, 62, 0
16, 188760, Note_on_c, 14, 58, 44
16, 188864, Note_on_c, 14, 58, 0
16, 188880, Note_on_c, 14, 62, 44
16, 188999, Note_on_c, 14, 62, 0
16, 189000, Note_on_c, 14, 58, 44
16, 189119, Note_on_c, 14, 58, 0
16, 189120, Note_on_c, 14, 57, 44
16, 189239, Note_on_c, 14, 57, 0
16, 189240, Note_on_c, 14, 58, 44
16, 189359, Note_on_c, 14, 58, 0
16, 189360, Note_on_c, 14, 62, 44
16, 189479, Note_on_c, 14, 62, 0
16, 189480, Note_on_c, 14, 58, 44
16, 189584, Note_on_c, 14, 58, 0
16, 189600, Note_on_c, 14, 62, 44
16, 189719, Note_on_c, 14, 62, 0
16, 189720, Note_on_c, 14, 58, 44
16, 189839, Note_on_c, 14, 58, 0
16, 189840, Note_on_c, 14, 57, 44
16, 189959, Note_on_c, 14, 57, 0
16, 189960, Note_on_c, 14, 58, 44
16, 190079, Note_on_c, 14, 58, 0
16, 190080, Note_on_c, 14, 62, 44
16, 190199, Note_on_c, 14, 62, 0
16, 190200, Note_on_c, 14, 58, 44
16, 190304, Note_on_c, 14, 58, 0
16, 190320, Note_on_c, 14, 46, 44
16, 190559, Note_on_c, 14, 46, 0
16, 191960, Control_c, 14, 11, 101
16, 192000, Note_on_c, 14, 43, 76
16, 192060, Control_c, 14, 11, 103
16, 192160, Control_c, 14, 11, 106
16, 192239, Note_on_c, 14, 43, 0
16, 192240, Note_on_c, 14, 44, 76
16, 192260, Control_c, 14, 11, 109
16, 192359, Note_on_c, 14, 44, 0
16, 192360, Control_c, 14, 11, 111
16, 192460, Control_c, 14, 11, 114
16, 192480, Note_on_c, 14, 44, 76
16, 192560, Control_c, 14, 11, 117
16, 192660, Control_c, 14, 11, 119
16, 192719, Note_on_c, 14, 44, 0
16, 192720, Note_on_c, 14, 45, 76
16, 192760, Control_c, 14, 11, 122
16, 192839, Note_on_c, 14, 45, 0
16, 192860, Control_c, 14, 11, 124
16, 192960, Note_on_c, 14, 41, 76
16, 193199, Note_on_c, 14, 41, 0
16, 193200, Note_on_c, 14, 46, 84
16, 193319, Note_on_c, 14, 46, 0
16, 193440, Note_on_c, 14, 46, 84
16, 193889, Note_on_c, 14, 46, 0
16, 193920, Note_on_c, 14, 46, 84
16, 194369, Note_on_c, 14, 46, 0
16, 194400, Note_on_c, 14, 46, 84
16, 194609, Note_on_c, 14, 46, 0
16, 194640, Note_on_c, 14, 41, 84
16, 194879, Note_on_c, 14, 41, 0
16, 194880, Note_on_c, 14, 45, 84
16, 195089, Note_on_c, 14, 45, 0
16, 195120, Note_on_c, 14, 48, 84
16, 195299, Note_on_c, 14, 48, 0
16, 195360, Note_on_c, 14, 53, 84
16, 195599, Note_on_c, 14, 53, 0
16, 197280, Note_on_c, 14, 54, 52
16, 197519, Note_on_c, 14, 54, 0
16, 197520, Note_on_c, 14, 51, 52
16, 197759, Note_on_c, 14, 51, 0
16, 197760, Note_on_c, 14, 60, 52
16, 197999, Note_on_c, 14, 60, 0
16, 198000, Note_on_c, 14, 57, 52
16, 198239, Note_on_c, 14, 57, 0
16, 198240, Note_on_c, 14, 54, 52
16, 198479, Note_on_c, 14, 54, 0
16, 198480, Note_on_c, 14, 53, 52
16, 198719, Note_on_c, 14, 53, 0
16, 198720, Note_on_c, 14, 51, 52
16, 198959, Note_on_c, 14, 51, 0
16, 198960, Note_on_c, 14, 49, 52
16, 199199, Note_on_c, 14, 49, 0
16, 200160, Note_on_c, 14, 61, 52
16, 200399, Note_on_c, 14, 61, 0
16, 200400, Note_on_c, 14, 58, 52
16, 200639, Note_on_c, 14, 58, 0
16, 200640, Note_on_c, 14, 55, 52
16, 200879, Note_on_c, 14, 55, 0
16, 200880, Note_on_c, 14, 52, 52
16, 201119, Note_on_c, 14, 52, 0
16, 201120, Note_on_c, 14, 49, 52
16, 201359, Note_on_c, 14, 49, 0
16, 201360, Note_on_c, 14, 48, 52
16, 201599, Note_on_c, 14, 48, 0
16, 201600, Note_on_c, 14, 46, 52
16, 201839, Note_on_c, 14, 46, 0
16, 201840, Note_on_c, 14, 45, 52
16, 201959, Note_on_c, 14, 45, 0
16, 202078, Control_c, 14, 11, 80
16, 202080, Note_on_c, 14, 52, 76
16, 202080, Control_c, 14, 11, 80
16, 202180, Control_c, 14, 11, 82
16, 202280, Control_c, 14, 11, 84
16, 202380, Control_c, 14, 11, 86
16, 202480, Control_c, 14, 11, 88
16, 202529, Note_on_c, 14, 52, 0
16, 202560, Note_on_c, 14, 53, 76
16, 202580, Control_c, 14, 11, 90
16, 202680, Control_c, 14, 11, 92
16, 202780, Control_c, 14, 11, 94
16, 202880, Control_c, 14, 11, 96
16, 202980, Control_c, 14, 11, 98
16, 203009, Note_on_c, 14, 53, 0
16, 203040, Note_on_c, 14, 55, 84
16, 203080, Control_c, 14, 11, 100
16, 203180, Control_c, 14, 11, 102
16, 203279, Note_on_c, 14, 55, 0
16, 203280, Control_c, 14, 11, 104
16, 203280, Note_on_c, 14, 55, 76
16, 203380, Control_c, 14, 11, 105
16, 203480, Control_c, 14, 11, 107
16, 203489, Note_on_c, 14, 55, 0
16, 203520, Note_on_c, 14, 57, 76
16, 203580, Control_c, 14, 11, 109
16, 203680, Control_c, 14, 11, 111
16, 203780, Control_c, 14, 11, 113
16, 203880, Control_c, 14, 11, 115
16, 203969, Note_on_c, 14, 57, 0
16, 203980, Control_c, 14, 11, 117
16, 204000, Note_on_c, 14, 58, 76
16, 204080, Control_c, 14, 11, 119
16, 204180, Control_c, 14, 11, 121
16, 204280, Control_c, 14, 11, 123
16, 204380, Control_c, 14, 11, 125
16, 204449, Note_on_c, 14, 58, 0
16, 204480, Note_on_c, 14, 48, 76
16, 204480, Control_c, 14, 11, 127
16, 204659, Note_on_c, 14, 48, 0
16, 204720, Note_on_c, 14, 41, 84
16, 205409, Note_on_c, 14, 41, 0
16, 205440, Note_on_c, 14, 41, 84
16, 206129, Note_on_c, 14, 41, 0
16, 206160, Note_on_c, 14, 41, 84
16, 206369, Note_on_c, 14, 41, 0
16, 206400, Note_on_c, 14, 41, 84
16, 206609, Note_on_c, 14, 41, 0
16, 206640, Note_on_c, 14, 41, 84
16, 206849, Note_on_c, 14, 41, 0
16, 206880, Note_on_c, 14, 41, 84
16, 207119, Note_on_c, 14, 41, 0
16, 207600, Note_on_c, 14, 61, 52
16, 207809, Note_on_c, 14, 61, 0
16, 207840, Note_on_c, 14, 61, 52
16, 208289, Note_on_c, 14, 61, 0
16, 208320, Note_on_c, 14, 61, 52
16, 208769, Note_on_c, 14, 61, 0
16, 208800, Note_on_c, 14, 61, 52
16, 209009, Note_on_c, 14, 61, 0
16, 209040, Note_on_c, 14, 56, 52
16, 209489, Note_on_c, 14, 56, 0
16, 209520, Note_on_c, 14, 56, 52
16, 209729, Note_on_c, 14, 56, 0
16, 209760, Note_on_c, 14, 56, 52
16, 209999, Note_on_c, 14, 56, 0
16, 211440, Note_on_c, 14, 44, 52
16, 211649, Note_on_c, 14, 44, 0
16, 211680, Note_on_c, 14, 44, 52
16, 211889, Note_on_c, 14, 44, 0
16, 211920, Note_on_c, 14, 49, 52
16, 212369, Note_on_c, 14, 49, 0
16, 212400, Note_on_c, 14, 61, 52
16, 212609, Note_on_c, 14, 61, 0
16, 212640, Note_on_c, 14, 61, 52
16, 212879, Note_on_c, 14, 61, 0
16, 214320, Note_on_c, 14, 49, 52
16, 214529, Note_on_c, 14, 49, 0
16, 214560, Note_on_c, 14, 49, 52
16, 214769, Note_on_c, 14, 49, 0
16, 214800, Note_on_c, 14, 46, 52
16, 215249, Note_on_c, 14, 46, 0
16, 215280, Note_on_c, 14, 58, 52
16, 215489, Note_on_c, 14, 58, 0
16, 215520, Note_on_c, 14, 58, 52
16, 215759, Note_on_c, 14, 58, 0
16, 217200, Note_on_c, 14, 58, 52
16, 217409, Note_on_c, 14, 58, 0
16, 217440, Note_on_c, 14, 58, 52
16, 217649, Note_on_c, 14, 58, 0
16, 217680, Note_on_c, 14, 63, 52
16, 219089, Note_on_c, 14, 63, 0
16, 219120, Note_on_c, 14, 65, 52
16, 220529, Note_on_c, 14, 65, 0
16, 220560, Note_on_c, 14, 58, 52
16, 221969, Note_on_c, 14, 58, 0
16, 222000, Note_on_c, 14, 60, 52
16, 223409, Note_on_c, 14, 60, 0
16, 223440, Note_on_c, 14, 53, 52
16, 224129, Note_on_c, 14, 53, 0
16, 224160, Note_on_c, 14, 55, 52
16, 224849, Note_on_c, 14, 55, 0
16, 224880, Note_on_c, 14, 48, 52
16, 225569, Note_on_c, 14, 48, 0
16, 225600, Note_on_c, 14, 50, 52
16, 226289, Note_on_c, 14, 50, 0
16, 226320, Note_on_c, 14, 43, 52
16, 227009, Note_on_c, 14, 43, 0
16, 227040, Note_on_c, 14, 45, 52
16, 227520, Control_c, 14, 11, 80
16, 227729, Note_on_c, 14, 45, 0
16, 227760, Note_on_c, 14, 38, 76
16, 227870, Control_c, 14, 11, 82
16, 227980, Control_c, 14, 11, 84
16, 228090, Control_c, 14, 11, 86
16, 228200, Control_c, 14, 11, 88
16, 228310, Control_c, 14, 11, 90
16, 228420, Control_c, 14, 11, 92
16, 228449, Note_on_c, 14, 38, 0
16, 228480, Note_on_c, 14, 41, 76
16, 228530, Control_c, 14, 11, 94
16, 228640, Control_c, 14, 11, 96
16, 228750, Control_c, 14, 11, 98
16, 228860, Control_c, 14, 11, 100
16, 228970, Control_c, 14, 11, 102
16, 229080, Control_c, 14, 11, 104
16, 229190, Control_c, 14, 11, 105
16, 229300, Control_c, 14, 11, 107
16, 229410, Control_c, 14, 11, 109
16, 229520, Control_c, 14, 11, 111
16, 229630, Control_c, 14, 11, 113
16, 229740, Control_c, 14, 11, 115
16, 229850, Control_c, 14, 11, 117
16, 229960, Control_c, 14, 11, 119
16, 230070, Control_c, 14, 11, 121
16, 230180, Control_c, 14, 11, 123
16, 230290, Control_c, 14, 11, 127
16, 230369, Note_on_c, 14, 41, 0
16, 230400, Note_on_c, 14, 41, 76
16, 230639, Note_on_c, 14, 41, 0
16, 230640, Note_on_c, 14, 46, 84
16, 230849, Note_on_c, 14, 46, 0
16, 230880, Note_on_c, 14, 46, 84
16, 231329, Note_on_c, 14, 46, 0
16, 231360, Note_on_c, 14, 46, 84
16, 231809, Note_on_c, 14, 46, 0
16, 231840, Note_on_c, 14, 46, 84
16, 232049, Note_on_c, 14, 46, 0
16, 232080, Note_on_c, 14, 41, 84
16, 232319, Note_on_c, 14, 41, 0
16, 232320, Note_on_c, 14, 45, 84
16, 232559, Note_on_c, 14, 45, 0
16, 232560, Note_on_c, 14, 48, 84
16, 232739, Note_on_c, 14, 48, 0
16, 232800, Note_on_c, 14, 53, 84
16, 233039, Note_on_c, 14, 53, 0
16, 234720, Note_on_c, 14, 54, 52
16, 234959, Note_on_c, 14, 54, 0
16, 234960, Note_on_c, 14, 51, 52
16, 235199, Note_on_c, 14, 51, 0
16, 235200, Note_on_c, 14, 48, 52
16, 235439, Note_on_c, 14, 48, 0
16, 235440, Note_on_c, 14, 45, 52
16, 235679, Note_on_c, 14, 45, 0
16, 235680, Note_on_c, 14, 42, 52
16, 235919, Note_on_c, 14, 42, 0
16, 235920, Note_on_c, 14, 41, 52
16, 236159, Note_on_c, 14, 41, 0
16, 237600, Note_on_c, 14, 56, 52
16, 237839, Note_on_c, 14, 56, 0
16, 237840, Note_on_c, 14, 53, 52
16, 238079, Note_on_c, 14, 53, 0
16, 238080, Note_on_c, 14, 50, 52
16, 238319, Note_on_c, 14, 50, 0
16, 238320, Note_on_c, 14, 47, 52
16, 238559, Note_on_c, 14, 47, 0
16, 238560, Note_on_c, 14, 44, 52
16, 238799, Note_on_c, 14, 44, 0
16, 238800, Note_on_c, 14, 43, 52
16, 239009, Note_on_c, 14, 43, 0
16, 239040, Note_on_c, 14, 61, 52
16, 239279, Note_on_c, 14, 61, 0
16, 239280, Note_on_c, 14, 58, 52
16, 239519, Note_on_c, 14, 58, 0
16, 239520, Note_on_c, 14, 55, 52
16, 239759, Note_on_c, 14, 55, 0
16, 239760, Note_on_c, 14, 52, 52
16, 239999, Note_on_c, 14, 52, 0
16, 240000, Note_on_c, 14, 49, 52
16, 240239, Note_on_c, 14, 49, 0
16, 240240, Note_on_c, 14, 48, 52
16, 240449, Note_on_c, 14, 48, 0
16, 240478, Control_c, 14, 11, 96
16, 240480, Note_on_c, 14, 46, 68
16, 240719, Note_on_c, 14, 46, 0
16, 240720, Note_on_c, 14, 45, 68
16, 242159, Note_on_c, 14, 45, 0
16, 242160, Note_on_c, 14, 45, 68
16, 242160, Control_c, 14, 11, 96
16, 242240, Control_c, 14, 11, 99
16, 242320, Control_c, 14, 11, 101
16, 242400, Control_c, 14, 11, 104
16, 242480, Control_c, 14, 11, 106
16, 242560, Control_c, 14, 11, 109
16, 242640, Control_c, 14, 11, 112
16, 242720, Control_c, 14, 11, 114
16, 242800, Control_c, 14, 11, 117
16, 242880, Control_c, 14, 11, 119
16, 242960, Control_c, 14, 11, 122
16, 243040, Control_c, 14, 11, 127
16, 243329, Note_on_c, 14, 45, 0
16, 243360, Note_on_c, 14, 46, 76
16, 243598, Control_c, 14, 11, 96
16, 243599, Note_on_c, 14, 46, 0
16, 243600, Note_on_c, 14, 45, 68
16, 245039, Note_on_c, 14, 45, 0
16, 245040, Control_c, 14, 11, 96
16, 245040, Note_on_c, 14, 45, 68
16, 245120, Control_c, 14, 11, 99
16, 245200, Control_c, 14, 11, 101
16, 245280, Control_c, 14, 11, 104
16, 245360, Control_c, 14, 11, 106
16, 245440, Control_c, 14, 11, 109
16, 245520, Control_c, 14, 11, 112
16, 245600, Control_c, 14, 11, 114
16, 245680, Control_c, 14, 11, 117
16, 245760, Control_c, 14, 11, 119
16, 245840, Control_c, 14, 11, 122
16, 245920, Control_c, 14, 11, 127
16, 246209, Note_on_c, 14, 45, 0
16, 246240, Note_on_c, 14, 46, 76
16, 246479, Note_on_c, 14, 46, 0
16, 246480, Note_on_c, 14, 45, 68
16, 246689, Note_on_c, 14, 45, 0
16, 246720, Note_on_c, 14, 53, 76
16, 247169, Note_on_c, 14, 53, 0
16, 247200, Note_on_c, 14, 55, 76
16, 247649, Note_on_c, 14, 55, 0
16, 247680, Note_on_c, 14, 51, 76
16, 247889, Note_on_c, 14, 51, 0
16, 247920, Note_on_c, 14, 53, 84
16, 248609, Note_on_c, 14, 53, 0
16, 248640, Note_on_c, 14, 53, 84
16, 249329, Note_on_c, 14, 53, 0
16, 249360, Note_on_c, 14, 46, 84
16, 249599, Note_on_c, 14, 46, 0
16, 249600, Note_on_c, 14, 41, 84
16, 249719, Note_on_c, 14, 41, 0
16, 249840, Note_on_c, 14, 50, 84
16, 250079, Note_on_c, 14, 50, 0
16, 250080, Note_on_c, 14, 46, 84
16, 250199, Note_on_c, 14, 46, 0
16, 250320, Note_on_c, 14, 53, 84
16, 250559, Note_on_c, 14, 53, 0
16, 250560, Note_on_c, 14, 50, 84
16, 250679, Note_on_c, 14, 50, 0
16, 250800, Note_on_c, 14, 41, 84
16, 251969, Note_on_c, 14, 41, 0
16, 252000, Note_on_c, 14, 41, 84
16, 252209, Note_on_c, 14, 41, 0
16, 252240, Note_on_c, 14, 46, 84
16, 252479, Note_on_c, 14, 46, 0
16, 252480, Note_on_c, 14, 41, 84
16, 252599, Note_on_c, 14, 41, 0
16, 252720, Note_on_c, 14, 50, 84
16, 252959, Note_on_c, 14, 50, 0
16, 252960, Note_on_c, 14, 46, 84
16, 253079, Note_on_c, 14, 46, 0
16, 253200, Note_on_c, 14, 53, 84
16, 253439, Note_on_c, 14, 53, 0
16, 253440, Note_on_c, 14, 50, 84
16, 253559, Note_on_c, 14, 50, 0
16, 253680, Note_on_c, 14, 41, 84
16, 254849, Note_on_c, 14, 41, 0
16, 254880, Note_on_c, 14, 41, 84
16, 255089, Note_on_c, 14, 41, 0
16, 255120, Note_on_c, 14, 46, 76
16, 255809, Note_on_c, 14, 46, 0
16, 255840, Note_on_c, 14, 46, 76
16, 256529, Note_on_c, 14, 46, 0
16, 256560, Note_on_c, 14, 46, 76
16, 256769, Note_on_c, 14, 46, 0
16, 256800, Note_on_c, 14, 46, 76
16, 257009, Note_on_c, 14, 46, 0
16, 257040, Note_on_c, 14, 46, 76
16, 257249, Note_on_c, 14, 46, 0
16, 257280, Note_on_c, 14, 46, 76
16, 257519, Note_on_c, 14, 46, 0
16, 267360, Control_c, 14, 11, 96
16, 267840, Note_on_c, 14, 46, 68
16, 268049, Note_on_c, 14, 46, 0
16, 268080, Control_c, 14, 11, 96
16, 268080, Note_on_c, 14, 46, 68
16, 268140, Control_c, 14, 11, 99
16, 268200, Control_c, 14, 11, 101
16, 268260, Control_c, 14, 11, 104
16, 268320, Control_c, 14, 11, 106
16, 268380, Control_c, 14, 11, 109
16, 268440, Control_c, 14, 11, 112
16, 268500, Control_c, 14, 11, 114
16, 268560, Control_c, 14, 11, 117
16, 268620, Control_c, 14, 11, 119
16, 268680, Control_c, 14, 11, 122
16, 268740, Control_c, 14, 11, 127
16, 268800, Control_c, 14, 11, 127
16, 268860, Control_c, 14, 11, 124
16, 268920, Control_c, 14, 11, 122
16, 268980, Control_c, 14, 11, 119
16, 269009, Note_on_c, 14, 46, 0
16, 269040, Control_c, 14, 11, 117
16, 269040, Note_on_c, 14, 46, 68
16, 269100, Control_c, 14, 11, 114
16, 269160, Control_c, 14, 11, 112
16, 269220, Control_c, 14, 11, 109
16, 269249, Note_on_c, 14, 46, 0
16, 269280, Control_c, 14, 11, 106
16, 269280, Note_on_c, 14, 46, 68
16, 269340, Control_c, 14, 11, 104
16, 269400, Control_c, 14, 11, 101
16, 269460, Control_c, 14, 11, 96
16, 269489, Note_on_c, 14, 46, 0
16, 269520, Note_on_c, 14, 46, 68
16, 269759, Note_on_c, 14, 46, 0
16, 282240, Control_c, 14, 11, 127
16, 282240, Program_c, 14, 45
16, 282480, Note_on_c, 14, 41, 48
16, 282719, Note_on_c, 14, 41, 0
16, 285360, Note_on_c, 14, 41, 48
16, 285599, Note_on_c, 14, 41, 0
16, 288960, Program_c, 14, 48
16, 289320, Note_on_c, 14, 53, 44
16, 289439, Note_on_c, 14, 53, 0
16, 289440, Note_on_c, 14, 54, 44
16, 289559, Note_on_c, 14, 54, 0
16, 289560, Note_on_c, 14, 53, 44
16, 289664, Note_on_c, 14, 53, 0
16, 289680, Note_on_c, 14, 54, 44
16, 289859, Note_on_c, 14, 54, 0
16, 290040, Note_on_c, 14, 53, 45
16, 290159, Note_on_c, 14, 53, 0
16, 290160, Note_on_c, 14, 54, 45
16, 290279, Note_on_c, 14, 54, 0
16, 290280, Note_on_c, 14, 53, 46
16, 290384, Note_on_c, 14, 53, 0
16, 290400, Note_on_c, 14, 54, 46
16, 290579, Note_on_c, 14, 54, 0
16, 290760, Note_on_c, 14, 53, 47
16, 290879, Note_on_c, 14, 53, 0
16, 290880, Note_on_c, 14, 54, 47
16, 290999, Note_on_c, 14, 54, 0
16, 291000, Note_on_c, 14, 53, 48
16, 291119, Note_on_c, 14, 53, 0
16, 291120, Note_on_c, 14, 54, 48
16, 291239, Note_on_c, 14, 54, 0
16, 291240, Note_on_c, 14, 52, 48
16, 291359, Note_on_c, 14, 52, 0
16, 291360, Note_on_c, 14, 53, 49
16, 291479, Note_on_c, 14, 53, 0
16, 291480, Note_on_c, 14, 52, 49
16, 291599, Note_on_c, 14, 52, 0
16, 291600, Note_on_c, 14, 53, 49
16, 291719, Note_on_c, 14, 53, 0
16, 291720, Note_on_c, 14, 52, 49
16, 291839, Note_on_c, 14, 52, 0
16, 291840, Note_on_c, 14, 53, 50
16, 291959, Note_on_c, 14, 53, 0
16, 291960, Note_on_c, 14, 45, 50
16, 292079, Note_on_c, 14, 45, 0
16, 292080, Note_on_c, 14, 46, 50
16, 292199, Note_on_c, 14, 46, 0
16, 292200, Note_on_c, 14, 45, 51
16, 292319, Note_on_c, 14, 45, 0
16, 292320, Note_on_c, 14, 46, 51
16, 292439, Note_on_c, 14, 46, 0
16, 292440, Note_on_c, 14, 45, 51
16, 292559, Note_on_c, 14, 45, 0
16, 292560, Note_on_c, 14, 46, 52
16, 292679, Note_on_c, 14, 46, 0
16, 292680, Note_on_c, 14, 45, 52
16, 292799, Note_on_c, 14, 45, 0
16, 292800, Note_on_c, 14, 46, 52
16, 292919, Note_on_c, 14, 46, 0
16, 292920, Note_on_c, 14, 45, 53
16, 293039, Note_on_c, 14, 45, 0
16, 293040, Note_on_c, 14, 46, 53
16, 293159, Note_on_c, 14, 46, 0
16, 293160, Note_on_c, 14, 45, 53
16, 293279, Note_on_c, 14, 45, 0
16, 293280, Note_on_c, 14, 46, 54
16, 293399, Note_on_c, 14, 46, 0
16, 293400, Note_on_c, 14, 45, 54
16, 293519, Note_on_c, 14, 45, 0
16, 293520, Note_on_c, 14, 46, 54
16, 293639, Note_on_c, 14, 46, 0
16, 293640, Note_on_c, 14, 45, 54
16, 293759, Note_on_c, 14, 45, 0
16, 293760, Note_on_c, 14, 46, 55
16, 293879, Note_on_c, 14, 46, 0
16, 293880, Note_on_c, 14, 45, 55
16, 293984, Note_on_c, 14, 45, 0
16, 294000, Note_on_c, 14, 46, 55
16, 294119, Note_on_c, 14, 46, 0
16, 294120, Note_on_c, 14, 45, 56
16, 294239, Note_on_c, 14, 45, 0
16, 294240, Note_on_c, 14, 46, 56
16, 294359, Note_on_c, 14, 46, 0
16, 294360, Note_on_c, 14, 45, 56
16, 294479, Note_on_c, 14, 45, 0
16, 294480, Note_on_c, 14, 46, 57
16, 294599, Note_on_c, 14, 46, 0
16, 294600, Note_on_c, 14, 45, 57
16, 294719, Note_on_c, 14, 45, 0
16, 294720, Note_on_c, 14, 46, 57
16, 294839, Note_on_c, 14, 46, 0
16, 294840, Note_on_c, 14, 45, 58
16, 294959, Note_on_c, 14, 45, 0
16, 294960, Note_on_c, 14, 46, 58
16, 295079, Note_on_c, 14, 46, 0
16, 295080, Note_on_c, 14, 45, 58
16, 295199, Note_on_c, 14, 45, 0
16, 295200, Note_on_c, 14, 46, 59
16, 295319, Note_on_c, 14, 46, 0
16, 295320, Note_on_c, 14, 45, 59
16, 295439, Note_on_c, 14, 45, 0
16, 295440, Note_on_c, 14, 46, 59
16, 295559, Note_on_c, 14, 46, 0
16, 295560, Note_on_c, 14, 45, 59
16, 295679, Note_on_c, 14, 45, 0
16, 295680, Note_on_c, 14, 46, 60
16, 295799, Note_on_c, 14, 46, 0
16, 295800, Note_on_c, 14, 45, 60
16, 295919, Note_on_c, 14, 45, 0
16, 295920, Note_on_c, 14, 46, 60
16, 296039, Note_on_c, 14, 46, 0
16, 296040, Note_on_c, 14, 45, 61
16, 296159, Note_on_c, 14, 45, 0
16, 296160, Note_on_c, 14, 46, 61
16, 296279, Note_on_c, 14, 46, 0
16, 296280, Note_on_c, 14, 45, 61
16, 296399, Note_on_c, 14, 45, 0
16, 296400, Note_on_c, 14, 46, 62
16, 296519, Note_on_c, 14, 46, 0
16, 296520, Note_on_c, 14, 45, 62
16, 296639, Note_on_c, 14, 45, 0
16, 296640, Note_on_c, 14, 46, 62
16, 296759, Note_on_c, 14, 46, 0
16, 296760, Note_on_c, 14, 45, 63
16, 296864, Note_on_c, 14, 45, 0
16, 296880, Note_on_c, 14, 46, 63
16, 296999, Note_on_c, 14, 46, 0
16, 297000, Note_on_c, 14, 45, 63
16, 297119, Note_on_c, 14, 45, 0
16, 297120, Note_on_c, 14, 46, 64
16, 297239, Note_on_c, 14, 46, 0
16, 297240, Note_on_c, 14, 45, 64
16, 297359, Note_on_c, 14, 45, 0
16, 297360, Note_on_c, 14, 46, 64
16, 297479, Note_on_c, 14, 46, 0
16, 297480, Note_on_c, 14, 45, 64
16, 297599, Note_on_c, 14, 45, 0
16, 297600, Note_on_c, 14, 46, 65
16, 297719, Note_on_c, 14, 46, 0
16, 297720, Note_on_c, 14, 45, 65
16, 297839, Note_on_c, 14, 45, 0
16, 297840, Note_on_c, 14, 46, 65
16, 297959, Note_on_c, 14, 46, 0
16, 297960, Note_on_c, 14, 45, 66
16, 298079, Note_on_c, 14, 45, 0
16, 298080, Note_on_c, 14, 46, 66
16, 298199, Note_on_c, 14, 46, 0
16, 298200, Note_on_c, 14, 45, 66
16, 298319, Note_on_c, 14, 45, 0
16, 298320, Note_on_c, 14, 46, 67
16, 298439, Note_on_c, 14, 46, 0
16, 298440, Note_on_c, 14, 45, 67
16, 298559, Note_on_c, 14, 45, 0
16, 298560, Note_on_c, 14, 46, 67
16, 298679, Note_on_c, 14, 46, 0
16, 298680, Note_on_c, 14, 45, 68
16, 298799, Note_on_c, 14, 45, 0
16, 298800, Note_on_c, 14, 46, 68
16, 298919, Note_on_c, 14, 46, 0
16, 298920, Note_on_c, 14, 45, 68
16, 299039, Note_on_c, 14, 45, 0
16, 299040, Note_on_c, 14, 46, 69
16, 299159, Note_on_c, 14, 46, 0
16, 299160, Note_on_c, 14, 45, 69
16, 299279, Note_on_c, 14, 45, 0
16, 299280, Note_on_c, 14, 46, 69
16, 299399, Note_on_c, 14, 46, 0
16, 299400, Note_on_c, 14, 45, 69
16, 299519, Note_on_c, 14, 45, 0
16, 299520, Note_on_c, 14, 46, 70
16, 299639, Note_on_c, 14, 46, 0
16, 299640, Note_on_c, 14, 45, 70
16, 299744, Note_on_c, 14, 45, 0
16, 299760, Note_on_c, 14, 46, 70
16, 299879, Note_on_c, 14, 46, 0
16, 299880, Note_on_c, 14, 45, 71
16, 299999, Note_on_c, 14, 45, 0
16, 300000, Note_on_c, 14, 46, 71
16, 300119, Note_on_c, 14, 46, 0
16, 300120, Note_on_c, 14, 45, 71
16, 300239, Note_on_c, 14, 45, 0
16, 300240, Note_on_c, 14, 46, 72
16, 300359, Note_on_c, 14, 46, 0
16, 300360, Note_on_c, 14, 44, 72
16, 300479, Note_on_c, 14, 44, 0
16, 300480, Note_on_c, 14, 46, 72
16, 300599, Note_on_c, 14, 46, 0
16, 300600, Note_on_c, 14, 43, 73
16, 300719, Note_on_c, 14, 43, 0
16, 300720, Note_on_c, 14, 46, 73
16, 300839, Note_on_c, 14, 46, 0
16, 300840, Note_on_c, 14, 43, 73
16, 300959, Note_on_c, 14, 43, 0
16, 300960, Note_on_c, 14, 46, 74
16, 301079, Note_on_c, 14, 46, 0
16, 301080, Note_on_c, 14, 41, 74
16, 301199, Note_on_c, 14, 41, 0
16, 301200, Note_on_c, 14, 46, 74
16, 301319, Note_on_c, 14, 46, 0
16, 301320, Note_on_c, 14, 39, 74
16, 301439, Note_on_c, 14, 39, 0
16, 301440, Note_on_c, 14, 46, 75
16, 301559, Note_on_c, 14, 46, 0
16, 301560, Note_on_c, 14, 39, 75
16, 301679, Note_on_c, 14, 39, 0
16, 301680, Note_on_c, 14, 46, 75
16, 301799, Note_on_c, 14, 46, 0
16, 301800, Note_on_c, 14, 39, 76
16, 301919, Note_on_c, 14, 39, 0
16, 301920, Note_on_c, 14, 46, 76
16, 302039, Note_on_c, 14, 46, 0
16, 302040, Note_on_c, 14, 39, 76
16, 302159, Note_on_c, 14, 39, 0
16, 302160, Note_on_c, 14, 46, 77
16, 302279, Note_on_c, 14, 46, 0
16, 302280, Note_on_c, 14, 39, 77
16, 302399, Note_on_c, 14, 39, 0
16, 302400, Note_on_c, 14, 46, 77
16, 302519, Note_on_c, 14, 46, 0
16, 302520, Note_on_c, 14, 41, 78
16, 302624, Note_on_c, 14, 41, 0
16, 302640, Note_on_c, 14, 41, 78
16, 302729, Note_on_c, 14, 41, 0
16, 302760, Note_on_c, 14, 45, 78
16, 302879, Note_on_c, 14, 45, 0
16, 302880, Note_on_c, 14, 43, 79
16, 302999, Note_on_c, 14, 43, 0
16, 303000, Note_on_c, 14, 45, 79
16, 303119, Note_on_c, 14, 45, 0
16, 303120, Note_on_c, 14, 48, 79
16, 303239, Note_on_c, 14, 48, 0
16, 303240, Note_on_c, 14, 45, 79
16, 303344, Note_on_c, 14, 45, 0
16, 303360, Note_on_c, 14, 41, 80
16, 303449, Note_on_c, 14, 41, 0
16, 303480, Note_on_c, 14, 45, 80
16, 303599, Note_on_c, 14, 45, 0
16, 303600, Note_on_c, 14, 43, 80
16, 303719, Note_on_c, 14, 43, 0
16, 303720, Note_on_c, 14, 45, 81
16, 303839, Note_on_c, 14, 45, 0
16, 303840, Note_on_c, 14, 48, 81
16, 303959, Note_on_c, 14, 48, 0
16, 303960, Note_on_c, 14, 41, 81
16, 304064, Note_on_c, 14, 41, 0
16, 304080, Note_on_c, 14, 46, 82
16, 304169, Note_on_c, 14, 46, 0
16, 304200, Note_on_c, 14, 57, 82
16, 304319, Note_on_c, 14, 57, 0
16, 304320, Note_on_c, 14, 58, 82
16, 304439, Note_on_c, 14, 58, 0
16, 304440, Note_on_c, 14, 57, 83
16, 304559, Note_on_c, 14, 57, 0
16, 304560, Note_on_c, 14, 58, 83
16, 304679, Note_on_c, 14, 58, 0
16, 304680, Note_on_c, 14, 57, 83
16, 304799, Note_on_c, 14, 57, 0
16, 304800, Note_on_c, 14, 58, 84
16, 304919, Note_on_c, 14, 58, 0
16, 304920, Note_on_c, 14, 57, 84
16, 305039, Note_on_c, 14, 57, 0
16, 305040, Note_on_c, 14, 58, 84
16, 305159, Note_on_c, 14, 58, 0
16, 305160, Note_on_c, 14, 57, 84
16, 305279, Note_on_c, 14, 57, 0
16, 305280, Note_on_c, 14, 58, 84
16, 305399, Note_on_c, 14, 58, 0
16, 305400, Note_on_c, 14, 57, 84
16, 305504, Note_on_c, 14, 57, 0
16, 305520, Note_on_c, 14, 58, 84
16, 305639, Note_on_c, 14, 58, 0
16, 305640, Note_on_c, 14, 57, 84
16, 305759, Note_on_c, 14, 57, 0
16, 305760, Note_on_c, 14, 58, 84
16, 305879, Note_on_c, 14, 58, 0
16, 305880, Note_on_c, 14, 57, 84
16, 305999, Note_on_c, 14, 57, 0
16, 306000, Note_on_c, 14, 58, 84
16, 306119, Note_on_c, 14, 58, 0
16, 306120, Note_on_c, 14, 56, 84
16, 306239, Note_on_c, 14, 56, 0
16, 306240, Note_on_c, 14, 58, 84
16, 306359, Note_on_c, 14, 58, 0
16, 306360, Note_on_c, 14, 55, 84
16, 306479, Note_on_c, 14, 55, 0
16, 306480, Note_on_c, 14, 58, 84
16, 306599, Note_on_c, 14, 58, 0
16, 306600, Note_on_c, 14, 55, 84
16, 306719, Note_on_c, 14, 55, 0
16, 306720, Note_on_c, 14, 58, 84
16, 306839, Note_on_c, 14, 58, 0
16, 306840, Note_on_c, 14, 53, 84
16, 306944, Note_on_c, 14, 53, 0
16, 306960, Note_on_c, 14, 58, 84
16, 307079, Note_on_c, 14, 58, 0
16, 307080, Note_on_c, 14, 51, 84
16, 307199, Note_on_c, 14, 51, 0
16, 307200, Note_on_c, 14, 58, 84
16, 307319, Note_on_c, 14, 58, 0
16, 307320, Note_on_c, 14, 51, 84
16, 307439, Note_on_c, 14, 51, 0
16, 307440, Note_on_c, 14, 58, 84
16, 307559, Note_on_c, 14, 58, 0
16, 307560, Note_on_c, 14, 51, 84
16, 307679, Note_on_c, 14, 51, 0
16, 307680, Note_on_c, 14, 58, 84
16, 307799, Note_on_c, 14, 58, 0
16, 307800, Note_on_c, 14, 51, 84
16, 307919, Note_on_c, 14, 51, 0
16, 307920, Note_on_c, 14, 58, 84
16, 308039, Note_on_c, 14, 58, 0
16, 308040, Note_on_c, 14, 51, 84
16, 308159, Note_on_c, 14, 51, 0
16, 308160, Note_on_c, 14, 58, 84
16, 308279, Note_on_c, 14, 58, 0
16, 308280, Note_on_c, 14, 53, 84
16, 308384, Note_on_c, 14, 53, 0
16, 308400, Note_on_c, 14, 53, 84
16, 308489, Note_on_c, 14, 53, 0
16, 308520, Note_on_c, 14, 57, 84
16, 308639, Note_on_c, 14, 57, 0
16, 308640, Note_on_c, 14, 55, 84
16, 308759, Note_on_c, 14, 55, 0
16, 308760, Note_on_c, 14, 57, 84
16, 308879, Note_on_c, 14, 57, 0
16, 308880, Note_on_c, 14, 60, 84
16, 308999, Note_on_c, 14, 60, 0
16, 309000, Note_on_c, 14, 57, 84
16, 309104, Note_on_c, 14, 57, 0
16, 309120, Note_on_c, 14, 53, 84
16, 309209, Note_on_c, 14, 53, 0
16, 309240, Note_on_c, 14, 57, 84
16, 309359, Note_on_c, 14, 57, 0
16, 309360, Note_on_c, 14, 55, 84
16, 309479, Note_on_c, 14, 55, 0
16, 309480, Note_on_c, 14, 57, 84
16, 309599, Note_on_c, 14, 57, 0
16, 309600, Note_on_c, 14, 60, 84
16, 309719, Note_on_c, 14, 60, 0
16, 309720, Note_on_c, 14, 57, 84
16, 309824, Note_on_c, 14, 57, 0
16, 309840, Note_on_c, 14, 53, 84
16, 309929, Note_on_c, 14, 53, 0
16, 309960, Note_on_c, 14, 58, 84
16, 310079, Note_on_c, 14, 58, 0
16, 310080, Note_on_c, 14, 57, 84
16, 310199, Note_on_c, 14, 57, 0
16, 310200, Note_on_c, 14, 58, 84
16, 310319, Note_on_c, 14, 58, 0
16, 310320, Note_on_c, 14, 62, 92
16, 310439, Note_on_c, 14, 62, 0
16, 310440, Note_on_c, 14, 58, 84
16, 310559, Note_on_c, 14, 58, 0
16, 310560, Note_on_c, 14, 62, 92
16, 310679, Note_on_c, 14, 62, 0
16, 310680, Note_on_c, 14, 58, 84
16, 310799, Note_on_c, 14, 58, 0
16, 310800, Note_on_c, 14, 57, 84
16, 310919, Note_on_c, 14, 57, 0
16, 310920, Note_on_c, 14, 58, 84
16, 311039, Note_on_c, 14, 58, 0
16, 311040, Note_on_c, 14, 62, 84
16, 311159, Note_on_c, 14, 62, 0
16, 311160, Note_on_c, 14, 58, 84
16, 311264, Note_on_c, 14, 58, 0
16, 311280, Note_on_c, 14, 53, 84
16, 311369, Note_on_c, 14, 53, 0
16, 311400, Note_on_c, 14, 57, 84
16, 311519, Note_on_c, 14, 57, 0
16, 311520, Note_on_c, 14, 55, 84
16, 311639, Note_on_c, 14, 55, 0
16, 311640, Note_on_c, 14, 57, 84
16, 311759, Note_on_c, 14, 57, 0
16, 311760, Note_on_c, 14, 60, 92
16, 311879, Note_on_c, 14, 60, 0
16, 311880, Note_on_c, 14, 57, 84
16, 311984, Note_on_c, 14, 57, 0
16, 312000, Note_on_c, 14, 60, 92
16, 312119, Note_on_c, 14, 60, 0
16, 312120, Note_on_c, 14, 57, 84
16, 312239, Note_on_c, 14, 57, 0
16, 312240, Note_on_c, 14, 55, 84
16, 312359, Note_on_c, 14, 55, 0
16, 312360, Note_on_c, 14, 57, 84
16, 312479, Note_on_c, 14, 57, 0
16, 312480, Note_on_c, 14, 60, 84
16, 312599, Note_on_c, 14, 60, 0
16, 312600, Note_on_c, 14, 57, 84
16, 312704, Note_on_c, 14, 57, 0
16, 312720, Note_on_c, 14, 53, 84
16, 312809, Note_on_c, 14, 53, 0
16, 312840, Note_on_c, 14, 58, 84
16, 312959, Note_on_c, 14, 58, 0
16, 312960, Note_on_c, 14, 57, 84
16, 313079, Note_on_c, 14, 57, 0
16, 313080, Note_on_c, 14, 58, 84
16, 313199, Note_on_c, 14, 58, 0
16, 313200, Note_on_c, 14, 62, 84
16, 313319, Note_on_c, 14, 62, 0
16, 313320, Note_on_c, 14, 58, 82
16, 313439, Note_on_c, 14, 58, 0
16, 313440, Note_on_c, 14, 62, 80
16, 313559, Note_on_c, 14, 62, 0
16, 313560, Note_on_c, 14, 58, 78
16, 313679, Note_on_c, 14, 58, 0
16, 313680, Note_on_c, 14, 57, 76
16, 313799, Note_on_c, 14, 57, 0
16, 313800, Note_on_c, 14, 58, 74
16, 313919, Note_on_c, 14, 58, 0
16, 313920, Note_on_c, 14, 62, 72
16, 314039, Note_on_c, 14, 62, 0
16, 314040, Note_on_c, 14, 58, 70
16, 314144, Note_on_c, 14, 58, 0
16, 314160, Note_on_c, 14, 53, 68
16, 314249, Note_on_c, 14, 53, 0
16, 314280, Note_on_c, 14, 57, 66
16, 314399, Note_on_c, 14, 57, 0
16, 314400, Note_on_c, 14, 55, 64
16, 314519, Note_on_c, 14, 55, 0
16, 314520, Note_on_c, 14, 57, 62
16, 314639, Note_on_c, 14, 57, 0
16, 314640, Note_on_c, 14, 60, 60
16, 314759, Note_on_c, 14, 60, 0
16, 314760, Note_on_c, 14, 57, 58
16, 314879, Note_on_c, 14, 57, 0
16, 314880, Note_on_c, 14, 60, 56
16, 314999, Note_on_c, 14, 60, 0
16, 315000, Note_on_c, 14, 57, 54
16, 315119, Note_on_c, 14, 57, 0
16, 315120, Note_on_c, 14, 55, 52
16, 315239, Note_on_c, 14, 55, 0
16, 315240, Note_on_c, 14, 57, 50
16, 315359, Note_on_c, 14, 57, 0
16, 315360, Note_on_c, 14, 60, 48
16, 315479, Note_on_c, 14, 60, 0
16, 315480, Note_on_c, 14, 57, 46
16, 315584, Note_on_c, 14, 57, 0
16, 315600, Note_on_c, 14, 62, 44
16, 315689, Note_on_c, 14, 62, 0
16, 315720, Note_on_c, 14, 58, 44
16, 315839, Note_on_c, 14, 58, 0
16, 315840, Note_on_c, 14, 57, 44
16, 315959, Note_on_c, 14, 57, 0
16, 315960, Note_on_c, 14, 58, 44
16, 316079, Note_on_c, 14, 58, 0
16, 316080, Note_on_c, 14, 62, 44
16, 316199, Note_on_c, 14, 62, 0
16, 316200, Note_on_c, 14, 58, 44
16, 316304, Note_on_c, 14, 58, 0
16, 316320, Note_on_c, 14, 62, 44
16, 316439, Note_on_c, 14, 62, 0
16, 316440, Note_on_c, 14, 58, 44
16, 316559, Note_on_c, 14, 58, 0
16, 316560, Note_on_c, 14, 57, 44
16, 316679, Note_on_c, 14, 57, 0
16, 316680, Note_on_c, 14, 58, 44
16, 316799, Note_on_c, 14, 58, 0
16, 316800, Note_on_c, 14, 62, 44
16, 316919, Note_on_c, 14, 62, 0
16, 316920, Note_on_c, 14, 58, 44
16, 317024, Note_on_c, 14, 58, 0
16, 317040, Note_on_c, 14, 62, 44
16, 317159, Note_on_c, 14, 62, 0
16, 317160, Note_on_c, 14, 58, 44
16, 317279, Note_on_c, 14, 58, 0
16, 317280, Note_on_c, 14, 57, 44
16, 317399, Note_on_c, 14, 57, 0
16, 317400, Note_on_c, 14, 58, 44
16, 317519, Note_on_c, 14, 58, 0
16, 317520, Note_on_c, 14, 62, 44
16, 317639, Note_on_c, 14, 62, 0
16, 317640, Note_on_c, 14, 58, 44
16, 317744, Note_on_c, 14, 58, 0
16, 317760, Note_on_c, 14, 62, 44
16, 317879, Note_on_c, 14, 62, 0
16, 317880, Note_on_c, 14, 58, 44
16, 317999, Note_on_c, 14, 58, 0
16, 318000, Note_on_c, 14, 57, 44
16, 318119, Note_on_c, 14, 57, 0
16, 318120, Note_on_c, 14, 58, 44
16, 318239, Note_on_c, 14, 58, 0
16, 318240, Note_on_c, 14, 62, 44
16, 318359, Note_on_c, 14, 62, 0
16, 318360, Note_on_c, 14, 58, 44
16, 318464, Note_on_c, 14, 58, 0
16, 318480, Note_on_c, 14, 46, 44
16, 318719, Note_on_c, 14, 46, 0
16, 320100, Control_c, 14, 11, 82
16, 320160, Note_on_c, 14, 43, 76
16, 320160, Control_c, 14, 11, 85
16, 320220, Control_c, 14, 11, 88
16, 320280, Control_c, 14, 11, 90
16, 320340, Control_c, 14, 11, 93
16, 320399, Note_on_c, 14, 43, 0
16, 320400, Control_c, 14, 11, 96
16, 320400, Note_on_c, 14, 44, 76
16, 320460, Control_c, 14, 11, 98
16, 320519, Note_on_c, 14, 44, 0
16, 320520, Control_c, 14, 11, 101
16, 320580, Control_c, 14, 11, 103
16, 320640, Note_on_c, 14, 44, 76
16, 320640, Control_c, 14, 11, 106
16, 320700, Control_c, 14, 11, 109
16, 320760, Control_c, 14, 11, 111
16, 320820, Control_c, 14, 11, 114
16, 320879, Note_on_c, 14, 44, 0
16, 320880, Control_c, 14, 11, 117
16, 320880, Note_on_c, 14, 45, 76
16, 320940, Control_c, 14, 11, 119
16, 320999, Note_on_c, 14, 45, 0
16, 321000, Control_c, 14, 11, 122
16, 321060, Control_c, 14, 11, 127
16, 321120, Note_on_c, 14, 41, 76
16, 321359, Note_on_c, 14, 41, 0
16, 321360, Note_on_c, 14, 46, 84
16, 321569, Note_on_c, 14, 46, 0
16, 321600, Note_on_c, 14, 46, 84
16, 322049, Note_on_c, 14, 46, 0
16, 322080, Note_on_c, 14, 46, 84
16, 322529, Note_on_c, 14, 46, 0
16, 322560, Note_on_c, 14, 46, 84
16, 322769, Note_on_c, 14, 46, 0
16, 322800, Note_on_c, 14, 41, 84
16, 323039, Note_on_c, 14, 41, 0
16, 323040, Note_on_c, 14, 45, 84
16, 323249, Note_on_c, 14, 45, 0
16, 323280, Note_on_c, 14, 48, 84
16, 323459, Note_on_c, 14, 48, 0
16, 323520, Note_on_c, 14, 53, 84
16, 323759, Note_on_c, 14, 53, 0
16, 325440, Note_on_c, 14, 54, 52
16, 325679, Note_on_c, 14, 54, 0
16, 325680, Note_on_c, 14, 51, 52
16, 325919, Note_on_c, 14, 51, 0
16, 325920, Note_on_c, 14, 48, 52
16, 326159, Note_on_c, 14, 48, 0
16, 326160, Note_on_c, 14, 45, 52
16, 326399, Note_on_c, 14, 45, 0
16, 326400, Note_on_c, 14, 42, 52
16, 326639, Note_on_c, 14, 42, 0
16, 326640, Note_on_c, 14, 41, 52
16, 326879, Note_on_c, 14, 41, 0
16, 328320, Note_on_c, 14, 56, 52
16, 328559, Note_on_c, 14, 56, 0
16, 328560, Note_on_c, 14, 53, 52
16, 328799, Note_on_c, 14, 53, 0
16, 328800, Note_on_c, 14, 50, 52
16, 329039, Note_on_c, 14, 50, 0
16, 329040, Note_on_c, 14, 47, 52
16, 329279, Note_on_c, 14, 47, 0
16, 329280, Note_on_c, 14, 44, 52
16, 329519, Note_on_c, 14, 44, 0
16, 329520, Note_on_c, 14, 43, 52
16, 329729, Note_on_c, 14, 43, 0
16, 329760, Note_on_c, 14, 61, 52
16, 329999, Note_on_c, 14, 61, 0
16, 330000, Note_on_c, 14, 58, 52
16, 330239, Note_on_c, 14, 58, 0
16, 330240, Note_on_c, 14, 55, 52
16, 330479, Note_on_c, 14, 55, 0
16, 330480, Note_on_c, 14, 52, 52
16, 330719, Note_on_c, 14, 52, 0
16, 330720, Note_on_c, 14, 49, 52
16, 330959, Note_on_c, 14, 49, 0
16, 330960, Note_on_c, 14, 48, 52
16, 331169, Note_on_c, 14, 48, 0
16, 331198, Control_c, 14, 11, 96
16, 331200, Note_on_c, 14, 46, 68
16, 331439, Note_on_c, 14, 46, 0
16, 331440, Note_on_c, 14, 45, 68
16, 332879, Note_on_c, 14, 45, 0
16, 332880, Note_on_c, 14, 45, 68
16, 332880, Control_c, 14, 11, 96
16, 332933, Control_c, 14, 11, 98
16, 332987, Control_c, 14, 11, 99
16, 333040, Control_c, 14, 11, 101
16, 333093, Control_c, 14, 11, 103
16, 333147, Control_c, 14, 11, 105
16, 333200, Control_c, 14, 11, 106
16, 333253, Control_c, 14, 11, 108
16, 333307, Control_c, 14, 11, 110
16, 333360, Control_c, 14, 11, 112
16, 333413, Control_c, 14, 11, 113
16, 333467, Control_c, 14, 11, 115
16, 333520, Control_c, 14, 11, 117
16, 333573, Control_c, 14, 11, 118
16, 333627, Control_c, 14, 11, 120
16, 333680, Control_c, 14, 11, 122
16, 333733, Control_c, 14, 11, 124
16, 333787, Control_c, 14, 11, 127
16, 334049, Note_on_c, 14, 45, 0
16, 334080, Note_on_c, 14, 46, 76
16, 334318, Control_c, 14, 11, 96
16, 334319, Note_on_c, 14, 46, 0
16, 334320, Note_on_c, 14, 45, 68
16, 335759, Note_on_c, 14, 45, 0
16, 335760, Note_on_c, 14, 45, 68
16, 335760, Control_c, 14, 11, 96
16, 335813, Control_c, 14, 11, 98
16, 335867, Control_c, 14, 11, 99
16, 335920, Control_c, 14, 11, 101
16, 335973, Control_c, 14, 11, 103
16, 336027, Control_c, 14, 11, 105
16, 336080, Control_c, 14, 11, 106
16, 336133, Control_c, 14, 11, 108
16, 336187, Control_c, 14, 11, 110
16, 336240, Control_c, 14, 11, 112
16, 336293, Control_c, 14, 11, 113
16, 336347, Control_c, 14, 11, 115
16, 336400, Control_c, 14, 11, 117
16, 336453, Control_c, 14, 11, 118
16, 336507, Control_c, 14, 11, 120
16, 336560, Control_c, 14, 11, 122
16, 336613, Control_c, 14, 11, 124
16, 336667, Control_c, 14, 11, 127
16, 336929, Note_on_c, 14, 45, 0
16, 336960, Note_on_c, 14, 46, 76
16, 337199, Note_on_c, 14, 46, 0
16, 337200, Note_on_c, 14, 45, 68
16, 337409, Note_on_c, 14, 45, 0
16, 337440, Note_on_c, 14, 53, 76
16, 337889, Note_on_c, 14, 53, 0
16, 337920, Note_on_c, 14, 55, 76
16, 338369, Note_on_c, 14, 55, 0
16, 338400, Note_on_c, 14, 51, 76
16, 338579, Note_on_c, 14, 51, 0
16, 338640, Note_on_c, 14, 53, 84
16, 339329, Note_on_c, 14, 53, 0
16, 339360, Note_on_c, 14, 53, 84
16, 340049, Note_on_c, 14, 53, 0
16, 340080, Note_on_c, 14, 46, 84
16, 340319, Note_on_c, 14, 46, 0
16, 340320, Note_on_c, 14, 41, 84
16, 340439, Note_on_c, 14, 41, 0
16, 340560, Note_on_c, 14, 50, 84
16, 340799, Note_on_c, 14, 50, 0
16, 340800, Note_on_c, 14, 46, 84
16, 340919, Note_on_c, 14, 46, 0
16, 341040, Note_on_c, 14, 53, 84
16, 341279, Note_on_c, 14, 53, 0
16, 341280, Note_on_c, 14, 50, 84
16, 341399, Note_on_c, 14, 50, 0
16, 341520, Note_on_c, 14, 41, 84
16, 342689, Note_on_c, 14, 41, 0
16, 342720, Note_on_c, 14, 41, 84
16, 342929, Note_on_c, 14, 41, 0
16, 342960, Note_on_c, 14, 46, 84
16, 343199, Note_on_c, 14, 46, 0
16, 343200, Note_on_c, 14, 41, 84
16, 343319, Note_on_c, 14, 41, 0
16, 343440, Note_on_c, 14, 50, 84
16, 343679, Note_on_c, 14, 50, 0
16, 343680, Note_on_c, 14, 46, 84
16, 343799, Note_on_c, 14, 46, 0
16, 343920, Note_on_c, 14, 53, 84
16, 344159, Note_on_c, 14, 53, 0
16, 344160, Note_on_c, 14, 50, 84
16, 344279, Note_on_c, 14, 50, 0
16, 344400, Note_on_c, 14, 41, 84
16, 345569, Note_on_c, 14, 41, 0
16, 345600, Note_on_c, 14, 41, 84
16, 345809, Note_on_c, 14, 41, 0
16, 345840, Note_on_c, 14, 46, 76
16, 346529, Note_on_c, 14, 46, 0
16, 346560, Note_on_c, 14, 46, 76
16, 347249, Note_on_c, 14, 46, 0
16, 347280, Note_on_c, 14, 46, 76
16, 347489, Note_on_c, 14, 46, 0
16, 347520, Note_on_c, 14, 46, 76
16, 347729, Note_on_c, 14, 46, 0
16, 347760, Note_on_c, 14, 46, 76
16, 347969, Note_on_c, 14, 46, 0
16, 348000, Note_on_c, 14, 46, 76
16, 348239, Note_on_c, 14, 46, 0
16, 350160, Note_on_c, 14, 46, 84
16, 350399, Note_on_c, 14, 46, 0
16, 350399, End_track
17, 0, Start_track
17, 0, Title_t, "Contrabass"
17, 0, MIDI_port, 0
17, 0, Program_c, 15, 48
17, 0, Control_c, 15, 7, 88
17, 0, Control_c, 15, 10, 100
17, 0, Control_c, 15, 11, 127
17, 0, Note_on_c, 15, 29, 84
17, 239, Note_on_c, 15, 29, 0
17, 240, Note_on_c, 15, 34, 84
17, 359, Note_on_c, 15, 34, 0
17, 480, Note_on_c, 15, 34, 84
17, 929, Note_on_c, 15, 34, 0
17, 960, Note_on_c, 15, 34, 84
17, 1409, Note_on_c, 15, 34, 0
17, 1440, Note_on_c, 15, 34, 84
17, 1649, Note_on_c, 15, 34, 0
17, 1680, Note_on_c, 15, 29, 84
17, 1919, Note_on_c, 15, 29, 0
17, 1920, Note_on_c, 15, 33, 84
17, 2129, Note_on_c, 15, 33, 0
17, 2160, Note_on_c, 15, 36, 84
17, 2339, Note_on_c, 15, 36, 0
17, 2400, Note_on_c, 15, 41, 84
17, 2639, Note_on_c, 15, 41, 0
17, 4320, Note_on_c, 15, 42, 52
17, 4559, Note_on_c, 15, 42, 0
17, 4560, Note_on_c, 15, 39, 52
17, 4799, Note_on_c, 15, 39, 0
17, 4800, Note_on_c, 15, 48, 52
17, 5039, Note_on_c, 15, 48, 0
17, 5040, Note_on_c, 15, 45, 52
17, 5279, Note_on_c, 15, 45, 0
17, 5280, Note_on_c, 15, 42, 52
17, 5519, Note_on_c, 15, 42, 0
17, 5520, Note_on_c, 15, 41, 52
17, 5759, Note_on_c, 15, 41, 0
17, 5760, Note_on_c, 15, 39, 52
17, 5999, Note_on_c, 15, 39, 0
17, 6000, Note_on_c, 15, 37, 52
17, 6239, Note_on_c, 15, 37, 0
17, 7200, Note_on_c, 15, 49, 52
17, 7439, Note_on_c, 15, 49, 0
17, 7440, Note_on_c, 15, 46, 52
17, 7679, Note_on_c, 15, 46, 0
17, 7680, Note_on_c, 15, 43, 52
17, 7919, Note_on_c, 15, 43, 0
17, 7920, Note_on_c, 15, 40, 52
17, 8159, Note_on_c, 15, 40, 0
17, 8160, Note_on_c, 15, 37, 52
17, 8399, Note_on_c, 15, 37, 0
17, 8400, Note_on_c, 15, 36, 52
17, 8639, Note_on_c, 15, 36, 0
17, 8640, Note_on_c, 15, 34, 52
17, 8879, Note_on_c, 15, 34, 0
17, 8880, Note_on_c, 15, 33, 52
17, 8999, Note_on_c, 15, 33, 0
17, 9118, Control_c, 15, 11, 80
17, 9120, Control_c, 15, 11, 80
17, 9120, Note_on_c, 15, 40, 76
17, 9220, Control_c, 15, 11, 82
17, 9320, Control_c, 15, 11, 84
17, 9420, Control_c, 15, 11, 86
17, 9520, Control_c, 15, 11, 88
17, 9569, Note_on_c, 15, 40, 0
17, 9600, Note_on_c, 15, 41, 76
17, 9620, Control_c, 15, 11, 90
17, 9720, Control_c, 15, 11, 92
17, 9820, Control_c, 15, 11, 94
17, 9920, Control_c, 15, 11, 96
17, 10020, Control_c, 15, 11, 98
17, 10049, Note_on_c, 15, 41, 0
17, 10080, Note_on_c, 15, 43, 84
17, 10120, Control_c, 15, 11, 100
17, 10220, Control_c, 15, 11, 102
17, 10319, Note_on_c, 15, 43, 0
17, 10320, Note_on_c, 15, 43, 76
17, 10320, Control_c, 15, 11, 104
17, 10420, Control_c, 15, 11, 105
17, 10520, Control_c, 15, 11, 107
17, 10529, Note_on_c, 15, 43, 0
17, 10560, Note_on_c, 15, 45, 76
17, 10620, Control_c, 15, 11, 109
17, 10720, Control_c, 15, 11, 111
17, 10820, Control_c, 15, 11, 113
17, 10920, Control_c, 15, 11, 115
17, 11009, Note_on_c, 15, 45, 0
17, 11020, Control_c, 15, 11, 117
17, 11040, Note_on_c, 15, 46, 76
17, 11120, Control_c, 15, 11, 119
17, 11220, Control_c, 15, 11, 121
17, 11320, Control_c, 15, 11, 123
17, 11420, Control_c, 15, 11, 125
17, 11489, Note_on_c, 15, 46, 0
17, 11520, Control_c, 15, 11, 127
17, 11520, Note_on_c, 15, 36, 76
17, 11699, Note_on_c, 15, 36, 0
17, 11760, Note_on_c, 15, 29, 84
17, 12449, Note_on_c, 15, 29, 0
17, 12480, Note_on_c, 15, 29, 84
17, 13169, Note_on_c, 15, 29, 0
17, 13200, Note_on_c, 15, 29, 84
17, 13409, Note_on_c, 15, 29, 0
17, 13440, Note_on_c, 15, 29, 84
17, 13649, Note_on_c, 15, 29, 0
17, 13680, Note_on_c, 15, 29, 84
17, 13889, Note_on_c, 15, 29, 0
17, 13920, Note_on_c, 15, 29, 84
17, 14159, Note_on_c, 15, 29, 0
17, 14400, Note_on_c, 15, 29, 84
17, 14639, Note_on_c, 15, 29, 0
17, 14640, Note_on_c, 15, 34, 84
17, 14759, Note_on_c, 15, 34, 0
17, 14880, Note_on_c, 15, 34, 84
17, 15329, Note_on_c, 15, 34, 0
17, 15360, Note_on_c, 15, 34, 84
17, 15809, Note_on_c, 15, 34, 0
17, 15840, Note_on_c, 15, 34, 84
17, 16049, Note_on_c, 15, 34, 0
17, 16080, Note_on_c, 15, 29, 84
17, 16319, Note_on_c, 15, 29, 0
17, 16320, Note_on_c, 15, 33, 84
17, 16529, Note_on_c, 15, 33, 0
17, 16560, Note_on_c, 15, 36, 84
17, 16739, Note_on_c, 15, 36, 0
17, 16800, Note_on_c, 15, 41, 84
17, 17039, Note_on_c, 15, 41, 0
17, 18720, Note_on_c, 15, 42, 52
17, 18959, Note_on_c, 15, 42, 0
17, 18960, Note_on_c, 15, 39, 52
17, 19199, Note_on_c, 15, 39, 0
17, 19200, Note_on_c, 15, 48, 52
17, 19439, Note_on_c, 15, 48, 0
17, 19440, Note_on_c, 15, 45, 52
17, 19679, Note_on_c, 15, 45, 0
17, 19680, Note_on_c, 15, 42, 52
17, 19919, Note_on_c, 15, 42, 0
17, 19920, Note_on_c, 15, 41, 52
17, 20159, Note_on_c, 15, 41, 0
17, 20160, Note_on_c, 15, 39, 52
17, 20399, Note_on_c, 15, 39, 0
17, 20400, Note_on_c, 15, 37, 52
17, 20639, Note_on_c, 15, 37, 0
17, 21600, Note_on_c, 15, 49, 52
17, 21839, Note_on_c, 15, 49, 0
17, 21840, Note_on_c, 15, 46, 52
17, 22079, Note_on_c, 15, 46, 0
17, 22080, Note_on_c, 15, 43, 52
17, 22319, Note_on_c, 15, 43, 0
17, 22320, Note_on_c, 15, 40, 52
17, 22559, Note_on_c, 15, 40, 0
17, 22560, Note_on_c, 15, 37, 52
17, 22799, Note_on_c, 15, 37, 0
17, 22800, Note_on_c, 15, 36, 52
17, 23039, Note_on_c, 15, 36, 0
17, 23040, Note_on_c, 15, 34, 52
17, 23279, Note_on_c, 15, 34, 0
17, 23280, Note_on_c, 15, 33, 52
17, 23399, Note_on_c, 15, 33, 0
17, 23518, Control_c, 15, 11, 80
17, 23520, Control_c, 15, 11, 80
17, 23520, Note_on_c, 15, 40, 76
17, 23620, Control_c, 15, 11, 82
17, 23720, Control_c, 15, 11, 84
17, 23820, Control_c, 15, 11, 86
17, 23920, Control_c, 15, 11, 88
17, 23969, Note_on_c, 15, 40, 0
17, 24000, Note_on_c, 15, 41, 76
17, 24020, Control_c, 15, 11, 90
17, 24120, Control_c, 15, 11, 92
17, 24220, Control_c, 15, 11, 94
17, 24320, Control_c, 15, 11, 96
17, 24420, Control_c, 15, 11, 98
17, 24449, Note_on_c, 15, 41, 0
17, 24480, Note_on_c, 15, 43, 84
17, 24520, Control_c, 15, 11, 100
17, 24620, Control_c, 15, 11, 102
17, 24719, Note_on_c, 15, 43, 0
17, 24720, Note_on_c, 15, 43, 76
17, 24720, Control_c, 15, 11, 104
17, 24820, Control_c, 15, 11, 105
17, 24920, Control_c, 15, 11, 107
17, 24929, Note_on_c, 15, 43, 0
17, 24960, Note_on_c, 15, 45, 76
17, 25020, Control_c, 15, 11, 109
17, 25120, Control_c, 15, 11, 111
17, 25220, Control_c, 15, 11, 113
17, 25320, Control_c, 15, 11, 115
17, 25409, Note_on_c, 15, 45, 0
17, 25420, Control_c, 15, 11, 117
17, 25440, Note_on_c, 15, 46, 76
17, 25520, Control_c, 15, 11, 119
17, 25620, Control_c, 15, 11, 121
17, 25720, Control_c, 15, 11, 123
17, 25820, Control_c, 15, 11, 125
17, 25889, Note_on_c, 15, 46, 0
17, 25920, Control_c, 15, 11, 127
17, 25920, Note_on_c, 15, 36, 76
17, 26099, Note_on_c, 15, 36, 0
17, 26160, Note_on_c, 15, 29, 84
17, 26849, Note_on_c, 15, 29, 0
17, 26880, Note_on_c, 15, 29, 84
17, 27569, Note_on_c, 15, 29, 0
17, 27600, Note_on_c, 15, 29, 84
17, 27809, Note_on_c, 15, 29, 0
17, 27840, Note_on_c, 15, 29, 84
17, 28049, Note_on_c, 15, 29, 0
17, 28080, Note_on_c, 15, 29, 84
17, 28289, Note_on_c, 15, 29, 0
17, 28320, Note_on_c, 15, 29, 84
17, 28559, Note_on_c, 15, 29, 0
17, 51840, Note_on_c, 15, 29, 76
17, 52079, Note_on_c, 15, 29, 0
17, 52080, Note_on_c, 15, 34, 84
17, 52289, Note_on_c, 15, 34, 0
17, 52320, Note_on_c, 15, 34, 84
17, 52769, Note_on_c, 15, 34, 0
17, 52800, Note_on_c, 15, 34, 84
17, 53249, Note_on_c, 15, 34, 0
17, 53280, Note_on_c, 15, 34, 84
17, 53489, Note_on_c, 15, 34, 0
17, 53520, Note_on_c, 15, 29, 84
17, 53759, Note_on_c, 15, 29, 0
17, 53760, Note_on_c, 15, 33, 84
17, 53999, Note_on_c, 15, 33, 0
17, 54000, Note_on_c, 15, 36, 84
17, 54179, Note_on_c, 15, 36, 0
17, 54240, Note_on_c, 15, 41, 84
17, 54479, Note_on_c, 15, 41, 0
17, 56160, Note_on_c, 15, 42, 52
17, 56399, Note_on_c, 15, 42, 0
17, 56400, Note_on_c, 15, 39, 52
17, 56639, Note_on_c, 15, 39, 0
17, 56640, Note_on_c, 15, 36, 52
17, 56879, Note_on_c, 15, 36, 0
17, 56880, Note_on_c, 15, 33, 52
17, 57119, Note_on_c, 15, 33, 0
17, 57120, Note_on_c, 15, 30, 52
17, 57359, Note_on_c, 15, 30, 0
17, 57360, Note_on_c, 15, 29, 52
17, 57599, Note_on_c, 15, 29, 0
17, 59040, Note_on_c, 15, 44, 52
17, 59279, Note_on_c, 15, 44, 0
17, 59280, Note_on_c, 15, 41, 52
17, 59519, Note_on_c, 15, 41, 0
17, 59520, Note_on_c, 15, 38, 52
17, 59759, Note_on_c, 15, 38, 0
17, 59760, Note_on_c, 15, 35, 52
17, 59999, Note_on_c, 15, 35, 0
17, 60000, Note_on_c, 15, 32, 52
17, 60239, Note_on_c, 15, 32, 0
17, 60240, Note_on_c, 15, 31, 52
17, 60449, Note_on_c, 15, 31, 0
17, 60480, Note_on_c, 15, 49, 52
17, 60719, Note_on_c, 15, 49, 0
17, 60720, Note_on_c, 15, 46, 52
17, 60959, Note_on_c, 15, 46, 0
17, 60960, Note_on_c, 15, 43, 52
17, 61199, Note_on_c, 15, 43, 0
17, 61200, Note_on_c, 15, 40, 52
17, 61439, Note_on_c, 15, 40, 0
17, 61440, Note_on_c, 15, 37, 52
17, 61679, Note_on_c, 15, 37, 0
17, 61680, Note_on_c, 15, 36, 52
17, 61889, Note_on_c, 15, 36, 0
17, 61918, Control_c, 15, 11, 96
17, 61920, Note_on_c, 15, 34, 68
17, 62159, Note_on_c, 15, 34, 0
17, 62160, Note_on_c, 15, 33, 68
17, 63599, Note_on_c, 15, 33, 0
17, 63600, Control_c, 15, 11, 96
17, 63600, Note_on_c, 15, 33, 68
17, 63680, Control_c, 15, 11, 99
17, 63760, Control_c, 15, 11, 101
17, 63840, Control_c, 15, 11, 104
17, 63920, Control_c, 15, 11, 106
17, 64000, Control_c, 15, 11, 109
17, 64080, Control_c, 15, 11, 112
17, 64160, Control_c, 15, 11, 114
17, 64240, Control_c, 15, 11, 117
17, 64320, Control_c, 15, 11, 119
17, 64400, Control_c, 15, 11, 122
17, 64480, Control_c, 15, 11, 127
17, 64769, Note_on_c, 15, 33, 0
17, 64800, Note_on_c, 15, 34, 76
17, 65038, Control_c, 15, 11, 96
17, 65039, Note_on_c, 15, 34, 0
17, 65040, Note_on_c, 15, 33, 68
17, 66479, Note_on_c, 15, 33, 0
17, 66480, Control_c, 15, 11, 96
17, 66480, Note_on_c, 15, 33, 68
17, 66560, Control_c, 15, 11, 99
17, 66640, Control_c, 15, 11, 101
17, 66720, Control_c, 15, 11, 104
17, 66800, Control_c, 15, 11, 106
17, 66880, Control_c, 15, 11, 109
17, 66960, Control_c, 15, 11, 112
17, 67040, Control_c, 15, 11, 114
17, 67120, Control_c, 15, 11, 117
17, 67200, Control_c, 15, 11, 119
17, 67280, Control_c, 15, 11, 122
17, 67360, Control_c, 15, 11, 127
17, 67649, Note_on_c, 15, 33, 0
17, 67680, Note_on_c, 15, 34, 76
17, 67919, Note_on_c, 15, 34, 0
17, 67920, Note_on_c, 15, 33, 68
17, 68129, Note_on_c, 15, 33, 0
17, 68160, Note_on_c, 15, 41, 76
17, 68609, Note_on_c, 15, 41, 0
17, 68640, Note_on_c, 15, 43, 76
17, 69089, Note_on_c, 15, 43, 0
17, 69120, Note_on_c, 15, 39, 76
17, 69329, Note_on_c, 15, 39, 0
17, 69360, Note_on_c, 15, 41, 84
17, 70049, Note_on_c, 15, 41, 0
17, 70080, Note_on_c, 15, 41, 84
17, 70769, Note_on_c, 15, 41, 0
17, 70800, Note_on_c, 15, 34, 84
17, 71039, Note_on_c, 15, 34, 0
17, 71040, Note_on_c, 15, 29, 84
17, 71159, Note_on_c, 15, 29, 0
17, 71280, Note_on_c, 15, 38, 84
17, 71519, Note_on_c, 15, 38, 0
17, 71520, Note_on_c, 15, 34, 84
17, 71639, Note_on_c, 15, 34, 0
17, 71760, Note_on_c, 15, 41, 84
17, 71999, Note_on_c, 15, 41, 0
17, 72000, Note_on_c, 15, 38, 84
17, 72119, Note_on_c, 15, 38, 0
17, 72240, Note_on_c, 15, 29, 84
17, 73409, Note_on_c, 15, 29, 0
17, 73440, Note_on_c, 15, 29, 84
17, 73649, Note_on_c, 15, 29, 0
17, 73680, Note_on_c, 15, 34, 84
17, 73919, Note_on_c, 15, 34, 0
17, 73920, Note_on_c, 15, 29, 84
17, 74039, Note_on_c, 15, 29, 0
17, 74160, Note_on_c, 15, 38, 84
17, 74399, Note_on_c, 15, 38, 0
17, 74400, Note_on_c, 15, 34, 84
17, 74519, Note_on_c, 15, 34, 0
17, 74640, Note_on_c, 15, 41, 84
17, 74879, Note_on_c, 15, 41, 0
17, 74880, Note_on_c, 15, 38, 84
17, 74999, Note_on_c, 15, 38, 0
17, 75120, Note_on_c, 15, 29, 84
17, 76289, Note_on_c, 15, 29, 0
17, 76320, Note_on_c, 15, 29, 84
17, 76529, Note_on_c, 15, 29, 0
17, 76560, Note_on_c, 15, 34, 76
17, 77249, Note_on_c, 15, 34, 0
17, 77280, Note_on_c, 15, 34, 76
17, 77969, Note_on_c, 15, 34, 0
17, 78000, Note_on_c, 15, 34, 76
17, 78209, Note_on_c, 15, 34, 0
17, 78240, Note_on_c, 15, 34, 76
17, 78449, Note_on_c, 15, 34, 0
17, 78480, Note_on_c, 15, 34, 76
17, 78689, Note_on_c, 15, 34, 0
17, 78720, Note_on_c, 15, 34, 76
17, 78959, Note_on_c, 15, 34, 0
17, 102240, Note_on_c, 15, 29, 76
17, 102479, Note_on_c, 15, 29, 0
17, 102480, Note_on_c, 15, 34, 84
17, 102689, Note_on_c, 15, 34, 0
17, 102720, Note_on_c, 15, 34, 84
17, 103169, Note_on_c, 15, 34, 0
17, 103200, Note_on_c, 15, 34, 84
17, 103649, Note_on_c, 15, 34, 0
17, 103680, Note_on_c, 15, 34, 84
17, 103889, Note_on_c, 15, 34, 0
17, 103920, Note_on_c, 15, 29, 84
17, 104159, Note_on_c, 15, 29, 0
17, 104160, Note_on_c, 15, 33, 84
17, 104399, Note_on_c, 15, 33, 0
17, 104400, Note_on_c, 15, 36, 84
17, 104579, Note_on_c, 15, 36, 0
17, 104640, Note_on_c, 15, 41, 84
17, 104879, Note_on_c, 15, 41, 0
17, 106560, Note_on_c, 15, 42, 52
17, 106799, Note_on_c, 15, 42, 0
17, 106800, Note_on_c, 15, 39, 52
17, 107039, Note_on_c, 15, 39, 0
17, 107040, Note_on_c, 15, 36, 52
17, 107279, Note_on_c, 15, 36, 0
17, 107280, Note_on_c, 15, 33, 52
17, 107519, Note_on_c, 15, 33, 0
17, 107520, Note_on_c, 15, 30, 52
17, 107759, Note_on_c, 15, 30, 0
17, 107760, Note_on_c, 15, 29, 52
17, 107999, Note_on_c, 15, 29, 0
17, 109440, Note_on_c, 15, 44, 52
17, 109679, Note_on_c, 15, 44, 0
17, 109680, Note_on_c, 15, 41, 52
17, 109919, Note_on_c, 15, 41, 0
17, 109920, Note_on_c, 15, 38, 52
17, 110159, Note_on_c, 15, 38, 0
17, 110160, Note_on_c, 15, 35, 52
17, 110399, Note_on_c, 15, 35, 0
17, 110400, Note_on_c, 15, 32, 52
17, 110639, Note_on_c, 15, 32, 0
17, 110640, Note_on_c, 15, 31, 52
17, 110849, Note_on_c, 15, 31, 0
17, 110880, Note_on_c, 15, 49, 52
17, 111119, Note_on_c, 15, 49, 0
17, 111120, Note_on_c, 15, 46, 52
17, 111359, Note_on_c, 15, 46, 0
17, 111360, Note_on_c, 15, 43, 52
17, 111599, Note_on_c, 15, 43, 0
17, 111600, Note_on_c, 15, 40, 52
17, 111839, Note_on_c, 15, 40, 0
17, 111840, Note_on_c, 15, 37, 52
17, 112079, Note_on_c, 15, 37, 0
17, 112080, Note_on_c, 15, 36, 52
17, 112289, Note_on_c, 15, 36, 0
17, 112318, Control_c, 15, 11, 96
17, 112320, Note_on_c, 15, 34, 68
17, 112559, Note_on_c, 15, 34, 0
17, 112560, Note_on_c, 15, 33, 68
17, 113999, Note_on_c, 15, 33, 0
17, 114000, Control_c, 15, 11, 96
17, 114000, Note_on_c, 15, 33, 68
17, 114080, Control_c, 15, 11, 99
17, 114160, Control_c, 15, 11, 101
17, 114240, Control_c, 15, 11, 104
17, 114320, Control_c, 15, 11, 106
17, 114400, Control_c, 15, 11, 109
17, 114480, Control_c, 15, 11, 112
17, 114560, Control_c, 15, 11, 114
17, 114640, Control_c, 15, 11, 117
17, 114720, Control_c, 15, 11, 119
17, 114800, Control_c, 15, 11, 122
17, 114880, Control_c, 15, 11, 127
17, 115169, Note_on_c, 15, 33, 0
17, 115200, Note_on_c, 15, 34, 76
17, 115438, Control_c, 15, 11, 96
17, 115439, Note_on_c, 15, 34, 0
17, 115440, Note_on_c, 15, 33, 68
17, 116879, Note_on_c, 15, 33, 0
17, 116880, Control_c, 15, 11, 96
17, 116880, Note_on_c, 15, 33, 68
17, 116960, Control_c, 15, 11, 99
17, 117040, Control_c, 15, 11, 101
17, 117120, Control_c, 15, 11, 104
17, 117200, Control_c, 15, 11, 106
17, 117280, Control_c, 15, 11, 109
17, 117360, Control_c, 15, 11, 112
17, 117440, Control_c, 15, 11, 114
17, 117520, Control_c, 15, 11, 117
17, 117600, Control_c, 15, 11, 119
17, 117680, Control_c, 15, 11, 122
17, 117760, Control_c, 15, 11, 127
17, 118049, Note_on_c, 15, 33, 0
17, 118080, Note_on_c, 15, 34, 76
17, 118319, Note_on_c, 15, 34, 0
17, 118320, Note_on_c, 15, 33, 68
17, 118529, Note_on_c, 15, 33, 0
17, 118560, Note_on_c, 15, 41, 76
17, 119009, Note_on_c, 15, 41, 0
17, 119040, Note_on_c, 15, 43, 76
17, 119489, Note_on_c, 15, 43, 0
17, 119520, Note_on_c, 15, 39, 76
17, 119729, Note_on_c, 15, 39, 0
17, 119760, Note_on_c, 15, 41, 84
17, 120449, Note_on_c, 15, 41, 0
17, 120480, Note_on_c, 15, 41, 84
17, 121169, Note_on_c, 15, 41, 0
17, 121200, Note_on_c, 15, 34, 84
17, 121439, Note_on_c, 15, 34, 0
17, 121440, Note_on_c, 15, 29, 84
17, 121559, Note_on_c, 15, 29, 0
17, 121680, Note_on_c, 15, 38, 84
17, 121919, Note_on_c, 15, 38, 0
17, 121920, Note_on_c, 15, 34, 84
17, 122039, Note_on_c, 15, 34, 0
17, 122160, Note_on_c, 15, 41, 84
17, 122399, Note_on_c, 15, 41, 0
17, 122400, Note_on_c, 15, 38, 84
17, 122519, Note_on_c, 15, 38, 0
17, 122640, Note_on_c, 15, 29, 84
17, 123809, Note_on_c, 15, 29, 0
17, 123840, Note_on_c, 15, 29, 84
17, 124049, Note_on_c, 15, 29, 0
17, 124080, Note_on_c, 15, 34, 84
17, 124319, Note_on_c, 15, 34, 0
17, 124320, Note_on_c, 15, 29, 84
17, 124439, Note_on_c, 15, 29, 0
17, 124560, Note_on_c, 15, 38, 84
17, 124799, Note_on_c, 15, 38, 0
17, 124800, Note_on_c, 15, 34, 84
17, 124919, Note_on_c, 15, 34, 0
17, 125040, Note_on_c, 15, 41, 84
17, 125279, Note_on_c, 15, 41, 0
17, 125280, Note_on_c, 15, 38, 84
17, 125399, Note_on_c, 15, 38, 0
17, 125520, Note_on_c, 15, 29, 84
17, 126689, Note_on_c, 15, 29, 0
17, 126720, Note_on_c, 15, 29, 84
17, 126929, Note_on_c, 15, 29, 0
17, 126960, Note_on_c, 15, 34, 76
17, 127649, Note_on_c, 15, 34, 0
17, 127680, Note_on_c, 15, 34, 76
17, 128369, Note_on_c, 15, 34, 0
17, 128400, Note_on_c, 15, 34, 76
17, 128609, Note_on_c, 15, 34, 0
17, 128640, Note_on_c, 15, 34, 76
17, 128849, Note_on_c, 15, 34, 0
17, 128880, Note_on_c, 15, 34, 76
17, 129089, Note_on_c, 15, 34, 0
17, 129120, Note_on_c, 15, 34, 76
17, 129359, Note_on_c, 15, 34, 0
17, 139200, Control_c, 15, 11, 96
17, 139680, Note_on_c, 15, 34, 68
17, 139889, Note_on_c, 15, 34, 0
17, 139920, Control_c, 15, 11, 96
17, 139920, Note_on_c, 15, 34, 68
17, 139980, Control_c, 15, 11, 99
17, 140040, Control_c, 15, 11, 101
17, 140100, Control_c, 15, 11, 104
17, 140160, Control_c, 15, 11, 106
17, 140220, Control_c, 15, 11, 109
17, 140280, Control_c, 15, 11, 112
17, 140340, Control_c, 15, 11, 114
17, 140400, Control_c, 15, 11, 117
17, 140460, Control_c, 15, 11, 119
17, 140520, Control_c, 15, 11, 122
17, 140580, Control_c, 15, 11, 127
17, 140640, Control_c, 15, 11, 127
17, 140700, Control_c, 15, 11, 124
17, 140760, Control_c, 15, 11, 122
17, 140820, Control_c, 15, 11, 119
17, 140849, Note_on_c, 15, 34, 0
17, 140880, Note_on_c, 15, 34, 68
17, 140880, Control_c, 15, 11, 117
17, 140940, Control_c, 15, 11, 114
17, 141000, Control_c, 15, 11, 112
17, 141060, Control_c, 15, 11, 109
17, 141089, Note_on_c, 15, 34, 0
17, 141120, Control_c, 15, 11, 106
17, 141120, Note_on_c, 15, 34, 68
17, 141180, Control_c, 15, 11, 104
17, 141240, Control_c, 15, 11, 101
17, 141300, Control_c, 15, 11, 96
17, 141329, Note_on_c, 15, 34, 0
17, 141360, Note_on_c, 15, 34, 68
17, 141599, Note_on_c, 15, 34, 0
17, 154080, Control_c, 15, 11, 127
17, 154080, Program_c, 15, 45
17, 154320, Note_on_c, 15, 29, 48
17, 154559, Note_on_c, 15, 29, 0
17, 157200, Note_on_c, 15, 29, 48
17, 157439, Note_on_c, 15, 29, 0
17, 176640, Program_c, 15, 48
17, 177120, Note_on_c, 15, 46, 84
17, 177329, Note_on_c, 15, 46, 0
17, 177360, Note_on_c, 15, 46, 84
17, 177839, Note_on_c, 15, 46, 0
17, 177840, Note_on_c, 15, 44, 84
17, 178079, Note_on_c, 15, 44, 0
17, 178080, Note_on_c, 15, 43, 84
17, 178559, Note_on_c, 15, 43, 0
17, 178560, Note_on_c, 15, 41, 84
17, 178769, Note_on_c, 15, 41, 0
17, 178800, Note_on_c, 15, 39, 92
17, 178859, Note_on_c, 15, 39, 0
17, 178860, Note_on_c, 15, 39, 84
17, 179969, Note_on_c, 15, 39, 0
17, 180000, Note_on_c, 15, 34, 84
17, 180209, Note_on_c, 15, 34, 0
17, 180240, Note_on_c, 15, 29, 84
17, 180479, Note_on_c, 15, 29, 0
17, 180720, Note_on_c, 15, 29, 84
17, 180929, Note_on_c, 15, 29, 0
17, 180960, Note_on_c, 15, 29, 84
17, 181409, Note_on_c, 15, 29, 0
17, 181440, Note_on_c, 15, 29, 84
17, 181679, Note_on_c, 15, 29, 0
17, 181680, Note_on_c, 15, 34, 84
17, 181919, Note_on_c, 15, 34, 0
17, 182880, Note_on_c, 15, 34, 84
17, 183119, Note_on_c, 15, 34, 0
17, 183120, Note_on_c, 15, 29, 84
17, 183359, Note_on_c, 15, 29, 0
17, 184320, Note_on_c, 15, 29, 84
17, 184559, Note_on_c, 15, 29, 0
17, 184560, Note_on_c, 15, 34, 84
17, 184799, Note_on_c, 15, 34, 0
17, 185760, Note_on_c, 15, 34, 72
17, 185999, Note_on_c, 15, 34, 0
17, 186000, Note_on_c, 15, 29, 68
17, 186239, Note_on_c, 15, 29, 0
17, 187200, Note_on_c, 15, 29, 48
17, 187439, Note_on_c, 15, 29, 0
17, 187440, Note_on_c, 15, 34, 44
17, 187679, Note_on_c, 15, 34, 0
17, 188160, Note_on_c, 15, 34, 44
17, 188399, Note_on_c, 15, 34, 0
17, 188880, Note_on_c, 15, 34, 44
17, 189119, Note_on_c, 15, 34, 0
17, 189600, Note_on_c, 15, 34, 44
17, 189839, Note_on_c, 15, 34, 0
17, 190320, Note_on_c, 15, 34, 44
17, 190559, Note_on_c, 15, 34, 0
17, 190560, Control_c, 15, 11, 64
17, 190660, Control_c, 15, 11, 67
17, 190760, Control_c, 15, 11, 69
17, 190860, Control_c, 15, 11, 72
17, 190960, Control_c, 15, 11, 75
17, 191060, Control_c, 15, 11, 77
17, 191160, Control_c, 15, 11, 80
17, 191260, Control_c, 15, 11, 82
17, 191360, Control_c, 15, 11, 85
17, 191460, Control_c, 15, 11, 88
17, 191560, Control_c, 15, 11, 90
17, 191660, Control_c, 15, 11, 93
17, 191760, Control_c, 15, 11, 96
17, 191860, Control_c, 15, 11, 98
17, 191960, Control_c, 15, 11, 101
17, 192000, Note_on_c, 15, 31, 76
17, 192060, Control_c, 15, 11, 103
17, 192160, Control_c, 15, 11, 106
17, 192239, Note_on_c, 15, 31, 0
17, 192240, Note_on_c, 15, 32, 76
17, 192260, Control_c, 15, 11, 109
17, 192359, Note_on_c, 15, 32, 0
17, 192360, Control_c, 15, 11, 111
17, 192460, Control_c, 15, 11, 114
17, 192480, Note_on_c, 15, 32, 76
17, 192560, Control_c, 15, 11, 117
17, 192660, Control_c, 15, 11, 119
17, 192719, Note_on_c, 15, 32, 0
17, 192720, Note_on_c, 15, 33, 76
17, 192760, Control_c, 15, 11, 122
17, 192839, Note_on_c, 15, 33, 0
17, 192860, Control_c, 15, 11, 124
17, 192960, Note_on_c, 15, 29, 76
17, 193199, Note_on_c, 15, 29, 0
17, 193200, Note_on_c, 15, 34, 84
17, 193319, Note_on_c, 15, 34, 0
17, 193440, Note_on_c, 15, 34, 84
17, 193889, Note_on_c, 15, 34, 0
17, 193920, Note_on_c, 15, 34, 84
17, 194369, Note_on_c, 15, 34, 0
17, 194400, Note_on_c, 15, 34, 84
17, 194609, Note_on_c, 15, 34, 0
17, 194640, Note_on_c, 15, 29, 84
17, 194879, Note_on_c, 15, 29, 0
17, 194880, Note_on_c, 15, 33, 84
17, 195089, Note_on_c, 15, 33, 0
17, 195120, Note_on_c, 15, 36, 84
17, 195299, Note_on_c, 15, 36, 0
17, 195360, Note_on_c, 15, 41, 84
17, 195599, Note_on_c, 15, 41, 0
17, 197280, Note_on_c, 15, 42, 52
17, 197519, Note_on_c, 15, 42, 0
17, 197520, Note_on_c, 15, 39, 52
17, 197759, Note_on_c, 15, 39, 0
17, 197760, Note_on_c, 15, 48, 52
17, 197999, Note_on_c, 15, 48, 0
17, 198000, Note_on_c, 15, 45, 52
17, 198239, Note_on_c, 15, 45, 0
17, 198240, Note_on_c, 15, 42, 52
17, 198479, Note_on_c, 15, 42, 0
17, 198480, Note_on_c, 15, 41, 52
17, 198719, Note_on_c, 15, 41, 0
17, 198720, Note_on_c, 15, 39, 52
17, 198959, Note_on_c, 15, 39, 0
17, 198960, Note_on_c, 15, 37, 52
17, 199199, Note_on_c, 15, 37, 0
17, 200160, Note_on_c, 15, 49, 52
17, 200399, Note_on_c, 15, 49, 0
17, 200400, Note_on_c, 15, 46, 52
17, 200639, Note_on_c, 15, 46, 0
17, 200640, Note_on_c, 15, 43, 52
17, 200879, Note_on_c, 15, 43, 0
17, 200880, Note_on_c, 15, 40, 52
17, 201119, Note_on_c, 15, 40, 0
17, 201120, Note_on_c, 15, 37, 52
17, 201359, Note_on_c, 15, 37, 0
17, 201360, Note_on_c, 15, 36, 52
17, 201599, Note_on_c, 15, 36, 0
17, 201600, Note_on_c, 15, 34, 52
17, 201839, Note_on_c, 15, 34, 0
17, 201840, Note_on_c, 15, 33, 52
17, 201959, Note_on_c, 15, 33, 0
17, 202078, Control_c, 15, 11, 80
17, 202080, Note_on_c, 15, 40, 76
17, 202080, Control_c, 15, 11, 80
17, 202180, Control_c, 15, 11, 82
17, 202280, Control_c, 15, 11, 84
17, 202380, Control_c, 15, 11, 86
17, 202480, Control_c, 15, 11, 88
17, 202529, Note_on_c, 15, 40, 0
17, 202560, Note_on_c, 15, 41, 76
17, 202580, Control_c, 15, 11, 90
17, 202680, Control_c, 15, 11, 92
17, 202780, Control_c, 15, 11, 94
17, 202880, Control_c, 15, 11, 96
17, 202980, Control_c, 15, 11, 98
17, 203009, Note_on_c, 15, 41, 0
17, 203040, Note_on_c, 15, 43, 84
17, 203080, Control_c, 15, 11, 100
17, 203180, Control_c, 15, 11, 102
17, 203279, Note_on_c, 15, 43, 0
17, 203280, Control_c, 15, 11, 104
17, 203280, Note_on_c, 15, 43, 76
17, 203380, Control_c, 15, 11, 105
17, 203480, Control_c, 15, 11, 107
17, 203489, Note_on_c, 15, 43, 0
17, 203520, Note_on_c, 15, 45, 76
17, 203580, Control_c, 15, 11, 109
17, 203680, Control_c, 15, 11, 111
17, 203780, Control_c, 15, 11, 113
17, 203880, Control_c, 15, 11, 115
17, 203969, Note_on_c, 15, 45, 0
17, 203980, Control_c, 15, 11, 117
17, 204000, Note_on_c, 15, 46, 76
17, 204080, Control_c, 15, 11, 119
17, 204180, Control_c, 15, 11, 121
17, 204280, Control_c, 15, 11, 123
17, 204380, Control_c, 15, 11, 125
17, 204449, Note_on_c, 15, 46, 0
17, 204480, Control_c, 15, 11, 127
17, 204480, Note_on_c, 15, 36, 76
17, 204659, Note_on_c, 15, 36, 0
17, 204720, Note_on_c, 15, 29, 84
17, 205409, Note_on_c, 15, 29, 0
17, 205440, Note_on_c, 15, 29, 84
17, 206129, Note_on_c, 15, 29, 0
17, 206160, Note_on_c, 15, 29, 84
17, 206369, Note_on_c, 15, 29, 0
17, 206400, Note_on_c, 15, 29, 84
17, 206609, Note_on_c, 15, 29, 0
17, 206640, Note_on_c, 15, 29, 84
17, 206849, Note_on_c, 15, 29, 0
17, 206880, Note_on_c, 15, 29, 84
17, 207119, Note_on_c, 15, 29, 0
17, 230400, Note_on_c, 15, 29, 76
17, 230639, Note_on_c, 15, 29, 0
17, 230640, Note_on_c, 15, 34, 84
17, 230849, Note_on_c, 15, 34, 0
17, 230880, Note_on_c, 15, 34, 84
17, 231329, Note_on_c, 15, 34, 0
17, 231360, Note_on_c, 15, 34, 84
17, 231809, Note_on_c, 15, 34, 0
17, 231840, Note_on_c, 15, 34, 84
17, 232049, Note_on_c, 15, 34, 0
17, 232080, Note_on_c, 15, 29, 84
17, 232319, Note_on_c, 15, 29, 0
17, 232320, Note_on_c, 15, 33, 84
17, 232559, Note_on_c, 15, 33, 0
17, 232560, Note_on_c, 15, 36, 84
17, 232739, Note_on_c, 15, 36, 0
17, 232800, Note_on_c, 15, 41, 84
17, 233039, Note_on_c, 15, 41, 0
17, 234720, Note_on_c, 15, 42, 52
17, 234959, Note_on_c, 15, 42, 0
17, 234960, Note_on_c, 15, 39, 52
17, 235199, Note_on_c, 15, 39, 0
17, 235200, Note_on_c, 15, 36, 52
17, 235439, Note_on_c, 15, 36, 0
17, 235440, Note_on_c, 15, 33, 52
17, 235679, Note_on_c, 15, 33, 0
17, 235680, Note_on_c, 15, 30, 52
17, 235919, Note_on_c, 15, 30, 0
17, 235920, Note_on_c, 15, 29, 52
17, 236159, Note_on_c, 15, 29, 0
17, 237600, Note_on_c, 15, 44, 52
17, 237839, Note_on_c, 15, 44, 0
17, 237840, Note_on_c, 15, 41, 52
17, 238079, Note_on_c, 15, 41, 0
17, 238080, Note_on_c, 15, 38, 52
17, 238319, Note_on_c, 15, 38, 0
17, 238320, Note_on_c, 15, 35, 52
17, 238559, Note_on_c, 15, 35, 0
17, 238560, Note_on_c, 15, 32, 52
17, 238799, Note_on_c, 15, 32, 0
17, 238800, Note_on_c, 15, 31, 52
17, 239009, Note_on_c, 15, 31, 0
17, 239040, Note_on_c, 15, 49, 52
17, 239279, Note_on_c, 15, 49, 0
17, 239280, Note_on_c, 15, 46, 52
17, 239519, Note_on_c, 15, 46, 0
17, 239520, Note_on_c, 15, 43, 52
17, 239759, Note_on_c, 15, 43, 0
17, 239760, Note_on_c, 15, 40, 52
17, 239999, Note_on_c, 15, 40, 0
17, 240000, Note_on_c, 15, 37, 52
17, 240239, Note_on_c, 15, 37, 0
17, 240240, Note_on_c, 15, 36, 52
17, 240449, Note_on_c, 15, 36, 0
17, 240478, Control_c, 15, 11, 96
17, 240480, Note_on_c, 15, 34, 68
17, 240719, Note_on_c, 15, 34, 0
17, 240720, Note_on_c, 15, 33, 68
17, 242159, Note_on_c, 15, 33, 0
17, 242160, Note_on_c, 15, 33, 68
17, 242160, Control_c, 15, 11, 96
17, 242240, Control_c, 15, 11, 99
17, 242320, Control_c, 15, 11, 101
17, 242400, Control_c, 15, 11, 104
17, 242480, Control_c, 15, 11, 106
17, 242560, Control_c, 15, 11, 109
17, 242640, Control_c, 15, 11, 112
17, 242720, Control_c, 15, 11, 114
17, 242800, Control_c, 15, 11, 117
17, 242880, Control_c, 15, 11, 119
17, 242960, Control_c, 15, 11, 122
17, 243040, Control_c, 15, 11, 127
17, 243329, Note_on_c, 15, 33, 0
17, 243360, Note_on_c, 15, 34, 76
17, 243598, Control_c, 15, 11, 96
17, 243599, Note_on_c, 15, 34, 0
17, 243600, Note_on_c, 15, 33, 68
17, 245039, Note_on_c, 15, 33, 0
17, 245040, Control_c, 15, 11, 96
17, 245040, Note_on_c, 15, 33, 68
17, 245120, Control_c, 15, 11, 99
17, 245200, Control_c, 15, 11, 101
17, 245280, Control_c, 15, 11, 104
17, 245360, Control_c, 15, 11, 106
17, 245440, Control_c, 15, 11, 109
17, 245520, Control_c, 15, 11, 112
17, 245600, Control_c, 15, 11, 114
17, 245680, Control_c, 15, 11, 117
17, 245760, Control_c, 15, 11, 119
17, 245840, Control_c, 15, 11, 122
17, 245920, Control_c, 15, 11, 127
17, 246209, Note_on_c, 15, 33, 0
17, 246240, Note_on_c, 15, 34, 76
17, 246479, Note_on_c, 15, 34, 0
17, 246480, Note_on_c, 15, 33, 68
17, 246689, Note_on_c, 15, 33, 0
17, 246720, Note_on_c, 15, 41, 76
17, 247169, Note_on_c, 15, 41, 0
17, 247200, Note_on_c, 15, 43, 76
17, 247649, Note_on_c, 15, 43, 0
17, 247680, Note_on_c, 15, 39, 76
17, 247889, Note_on_c, 15, 39, 0
17, 247920, Note_on_c, 15, 41, 84
17, 248609, Note_on_c, 15, 41, 0
17, 248640, Note_on_c, 15, 41, 84
17, 249329, Note_on_c, 15, 41, 0
17, 249360, Note_on_c, 15, 34, 84
17, 249599, Note_on_c, 15, 34, 0
17, 249600, Note_on_c, 15, 29, 84
17, 249719, Note_on_c, 15, 29, 0
17, 249840, Note_on_c, 15, 38, 84
17, 250079, Note_on_c, 15, 38, 0
17, 250080, Note_on_c, 15, 34, 84
17, 250199, Note_on_c, 15, 34, 0
17, 250320, Note_on_c, 15, 41, 84
17, 250559, Note_on_c, 15, 41, 0
17, 250560, Note_on_c, 15, 38, 84
17, 250679, Note_on_c, 15, 38, 0
17, 250800, Note_on_c, 15, 29, 84
17, 251969, Note_on_c, 15, 29, 0
17, 252000, Note_on_c, 15, 29, 84
17, 252209, Note_on_c, 15, 29, 0
17, 252240, Note_on_c, 15, 34, 84
17, 252479, Note_on_c, 15, 34, 0
17, 252480, Note_on_c, 15, 29, 84
17, 252599, Note_on_c, 15, 29, 0
17, 252720, Note_on_c, 15, 38, 84
17, 252959, Note_on_c, 15, 38, 0
17, 252960, Note_on_c, 15, 34, 84
17, 253079, Note_on_c, 15, 34, 0
17, 253200, Note_on_c, 15, 41, 84
17, 253439, Note_on_c, 15, 41, 0
17, 253440, Note_on_c, 15, 38, 84
17, 253559, Note_on_c, 15, 38, 0
17, 253680, Note_on_c, 15, 29, 84
17, 254849, Note_on_c, 15, 29, 0
17, 254880, Note_on_c, 15, 29, 84
17, 255089, Note_on_c, 15, 29, 0
17, 255120, Note_on_c, 15, 34, 76
17, 255809, Note_on_c, 15, 34, 0
17, 255840, Note_on_c, 15, 34, 76
17, 256529, Note_on_c, 15, 34, 0
17, 256560, Note_on_c, 15, 34, 76
17, 256769, Note_on_c, 15, 34, 0
17, 256800, Note_on_c, 15, 34, 76
17, 257009, Note_on_c, 15, 34, 0
17, 257040, Note_on_c, 15, 34, 76
17, 257249, Note_on_c, 15, 34, 0
17, 257280, Note_on_c, 15, 34, 76
17, 257519, Note_on_c, 15, 34, 0
17, 267360, Control_c, 15, 11, 96
17, 267840, Note_on_c, 15, 34, 68
17, 268049, Note_on_c, 15, 34, 0
17, 268080, Control_c, 15, 11, 96
17, 268080, Note_on_c, 15, 34, 68
17, 268140, Control_c, 15, 11, 99
17, 268200, Control_c, 15, 11, 101
17, 268260, Control_c, 15, 11, 104
17, 268320, Control_c, 15, 11, 106
17, 268380, Control_c, 15, 11, 109
17, 268440, Control_c, 15, 11, 112
17, 268500, Control_c, 15, 11, 114
17, 268560, Control_c, 15, 11, 117
17, 268620, Control_c, 15, 11, 119
17, 268680, Control_c, 15, 11, 122
17, 268740, Control_c, 15, 11, 127
17, 268800, Control_c, 15, 11, 127
17, 268860, Control_c, 15, 11, 124
17, 268920, Control_c, 15, 11, 122
17, 268980, Control_c, 15, 11, 119
17, 269009, Note_on_c, 15, 34, 0
17, 269040, Note_on_c, 15, 34, 68
17, 269040, Control_c, 15, 11, 117
17, 269100, Control_c, 15, 11, 114
17, 269160, Control_c, 15, 11, 112
17, 269220, Control_c, 15, 11, 109
17, 269249, Note_on_c, 15, 34, 0
17, 269280, Control_c, 15, 11, 106
17, 269280, Note_on_c, 15, 34, 68
17, 269340, Control_c, 15, 11, 104
17, 269400, Control_c, 15, 11, 101
17, 269460, Control_c, 15, 11, 96
17, 269489, Note_on_c, 15, 34, 0
17, 269520, Note_on_c, 15, 34, 68
17, 269759, Note_on_c, 15, 34, 0
17, 282240, Control_c, 15, 11, 127
17, 282240, Program_c, 15, 45
17, 282480, Note_on_c, 15, 29, 48
17, 282719, Note_on_c, 15, 29, 0
17, 285360, Note_on_c, 15, 29, 48
17, 285599, Note_on_c, 15, 29, 0
17, 304800, Program_c, 15, 48
17, 305280, Note_on_c, 15, 46, 84
17, 305489, Note_on_c, 15, 46, 0
17, 305520, Note_on_c, 15, 46, 84
17, 305999, Note_on_c, 15, 46, 0
17, 306000, Note_on_c, 15, 44, 84
17, 306239, Note_on_c, 15, 44, 0
17, 306240, Note_on_c, 15, 43, 84
17, 306719, Note_on_c, 15, 43, 0
17, 306720, Note_on_c, 15, 41, 84
17, 306929, Note_on_c, 15, 41, 0
17, 306960, Note_on_c, 15, 39, 92
17, 307019, Note_on_c, 15, 39, 0
17, 307020, Note_on_c, 15, 39, 84
17, 308129, Note_on_c, 15, 39, 0
17, 308160, Note_on_c, 15, 34, 84
17, 308369, Note_on_c, 15, 34, 0
17, 308400, Note_on_c, 15, 29, 84
17, 308639, Note_on_c, 15, 29, 0
17, 308880, Note_on_c, 15, 29, 84
17, 309089, Note_on_c, 15, 29, 0
17, 309120, Note_on_c, 15, 29, 84
17, 309569, Note_on_c, 15, 29, 0
17, 309600, Note_on_c, 15, 29, 84
17, 309839, Note_on_c, 15, 29, 0
17, 309840, Note_on_c, 15, 34, 84
17, 310079, Note_on_c, 15, 34, 0
17, 311040, Note_on_c, 15, 34, 84
17, 311279, Note_on_c, 15, 34, 0
17, 311280, Note_on_c, 15, 29, 84
17, 311519, Note_on_c, 15, 29, 0
17, 312480, Note_on_c, 15, 29, 84
17, 312719, Note_on_c, 15, 29, 0
17, 312720, Note_on_c, 15, 34, 84
17, 312959, Note_on_c, 15, 34, 0
17, 313920, Note_on_c, 15, 34, 72
17, 314159, Note_on_c, 15, 34, 0
17, 314160, Note_on_c, 15, 29, 68
17, 314399, Note_on_c, 15, 29, 0
17, 315360, Note_on_c, 15, 29, 48
17, 315599, Note_on_c, 15, 29, 0
17, 315600, Note_on_c, 15, 34, 44
17, 315839, Note_on_c, 15, 34, 0
17, 316320, Note_on_c, 15, 34, 44
17, 316559, Note_on_c, 15, 34, 0
17, 317040, Note_on_c, 15, 34, 44
17, 317279, Note_on_c, 15, 34, 0
17, 317760, Note_on_c, 15, 34, 44
17, 317999, Note_on_c, 15, 34, 0
17, 318480, Note_on_c, 15, 34, 44
17, 318719, Note_on_c, 15, 34, 0
17, 320100, Control_c, 15, 11, 82
17, 320160, Note_on_c, 15, 31, 76
17, 320160, Control_c, 15, 11, 85
17, 320220, Control_c, 15, 11, 88
17, 320280, Control_c, 15, 11, 90
17, 320340, Control_c, 15, 11, 93
17, 320399, Note_on_c, 15, 31, 0
17, 320400, Control_c, 15, 11, 96
17, 320400, Note_on_c, 15, 32, 76
17, 320460, Control_c, 15, 11, 98
17, 320519, Note_on_c, 15, 32, 0
17, 320520, Control_c, 15, 11, 101
17, 320580, Control_c, 15, 11, 103
17, 320640, Control_c, 15, 11, 106
17, 320640, Note_on_c, 15, 32, 76
17, 320700, Control_c, 15, 11, 109
17, 320760, Control_c, 15, 11, 111
17, 320820, Control_c, 15, 11, 114
17, 320879, Note_on_c, 15, 32, 0
17, 320880, Note_on_c, 15, 33, 76
17, 320880, Control_c, 15, 11, 117
17, 320940, Control_c, 15, 11, 119
17, 320999, Note_on_c, 15, 33, 0
17, 321000, Control_c, 15, 11, 122
17, 321060, Control_c, 15, 11, 127
17, 321120, Note_on_c, 15, 29, 76
17, 321359, Note_on_c, 15, 29, 0
17, 321360, Note_on_c, 15, 34, 84
17, 321569, Note_on_c, 15, 34, 0
17, 321600, Note_on_c, 15, 34, 84
17, 322049, Note_on_c, 15, 34, 0
17, 322080, Note_on_c, 15, 34, 84
17, 322529, Note_on_c, 15, 34, 0
17, 322560, Note_on_c, 15, 34, 84
17, 322769, Note_on_c, 15, 34, 0
17, 322800, Note_on_c, 15, 29, 84
17, 323039, Note_on_c, 15, 29, 0
17, 323040, Note_on_c, 15, 33, 84
17, 323249, Note_on_c, 15, 33, 0
17, 323280, Note_on_c, 15, 36, 84
17, 323459, Note_on_c, 15, 36, 0
17, 323520, Note_on_c, 15, 41, 84
17, 323759, Note_on_c, 15, 41, 0
17, 325440, Note_on_c, 15, 42, 52
17, 325679, Note_on_c, 15, 42, 0
17, 325680, Note_on_c, 15, 39, 52
17, 325919, Note_on_c, 15, 39, 0
17, 325920, Note_on_c, 15, 36, 52
17, 326159, Note_on_c, 15, 36, 0
17, 326160, Note_on_c, 15, 33, 52
17, 326399, Note_on_c, 15, 33, 0
17, 326400, Note_on_c, 15, 30, 52
17, 326639, Note_on_c, 15, 30, 0
17, 326640, Note_on_c, 15, 29, 52
17, 326879, Note_on_c, 15, 29, 0
17, 328320, Note_on_c, 15, 44, 52
17, 328559, Note_on_c, 15, 44, 0
17, 328560, Note_on_c, 15, 41, 52
17, 328799, Note_on_c, 15, 41, 0
17, 328800, Note_on_c, 15, 38, 52
17, 329039, Note_on_c, 15, 38, 0
17, 329040, Note_on_c, 15, 35, 52
17, 329279, Note_on_c, 15, 35, 0
17, 329280, Note_on_c, 15, 32, 52
17, 329519, Note_on_c, 15, 32, 0
17, 329520, Note_on_c, 15, 31, 52
17, 329729, Note_on_c, 15, 31, 0
17, 329760, Note_on_c, 15, 49, 52
17, 329999, Note_on_c, 15, 49, 0
17, 330000, Note_on_c, 15, 46, 52
17, 330239, Note_on_c, 15, 46, 0
17, 330240, Note_on_c, 15, 43, 52
17, 330479, Note_on_c, 15, 43, 0
17, 330480, Note_on_c, 15, 40, 52
17, 330719, Note_on_c, 15, 40, 0
17, 330720, Note_on_c, 15, 37, 52
17, 330959, Note_on_c, 15, 37, 0
17, 330960, Note_on_c, 15, 36, 52
17, 331169, Note_on_c, 15, 36, 0
17, 331198, Control_c, 15, 11, 96
17, 331200, Note_on_c, 15, 34, 68
17, 331439, Note_on_c, 15, 34, 0
17, 331440, Note_on_c, 15, 33, 68
17, 332879, Note_on_c, 15, 33, 0
17, 332880, Note_on_c, 15, 33, 68
17, 332880, Control_c, 15, 11, 96
17, 332933, Control_c, 15, 11, 98
17, 332987, Control_c, 15, 11, 99
17, 333040, Control_c, 15, 11, 101
17, 333093, Control_c, 15, 11, 103
17, 333147, Control_c, 15, 11, 105
17, 333200, Control_c, 15, 11, 106
17, 333253, Control_c, 15, 11, 108
17, 333307, Control_c, 15, 11, 110
17, 333360, Control_c, 15, 11, 112
17, 333413, Control_c, 15, 11, 113
17, 333467, Control_c, 15, 11, 115
17, 333520, Control_c, 15, 11, 117
17, 333573, Control_c, 15, 11, 118
17, 333627, Control_c, 15, 11, 120
17, 333680, Control_c, 15, 11, 122
17, 333733, Control_c, 15, 11, 124
17, 333787, Control_c, 15, 11, 127
17, 334049, Note_on_c, 15, 33, 0
17, 334080, Note_on_c, 15, 34, 76
17, 334318, Control_c, 15, 11, 96
17, 334319, Note_on_c, 15, 34, 0
17, 334320, Note_on_c, 15, 33, 68
17, 335759, Note_on_c, 15, 33, 0
17, 335760, Note_on_c, 15, 33, 68
17, 335760, Control_c, 15, 11, 96
17, 335813, Control_c, 15, 11, 98
17, 335867, Control_c, 15, 11, 99
17, 335920, Control_c, 15, 11, 101
17, 335973, Control_c, 15, 11, 103
17, 336027, Control_c, 15, 11, 105
17, 336080, Control_c, 15, 11, 106
17, 336133, Control_c, 15, 11, 108
17, 336187, Control_c, 15, 11, 110
17, 336240, Control_c, 15, 11, 112
17, 336293, Control_c, 15, 11, 113
17, 336347, Control_c, 15, 11, 115
17, 336400, Control_c, 15, 11, 117
17, 336453, Control_c, 15, 11, 118
17, 336507, Control_c, 15, 11, 120
17, 336560, Control_c, 15, 11, 122
17, 336613, Control_c, 15, 11, 124
17, 336667, Control_c, 15, 11, 127
17, 336929, Note_on_c, 15, 33, 0
17, 336960, Note_on_c, 15, 34, 76
17, 337199, Note_on_c, 15, 34, 0
17, 337200, Note_on_c, 15, 33, 68
17, 337409, Note_on_c, 15, 33, 0
17, 337440, Note_on_c, 15, 41, 76
17, 337889, Note_on_c, 15, 41, 0
17, 337920, Note_on_c, 15, 43, 76
17, 338369, Note_on_c, 15, 43, 0
17, 338400, Note_on_c, 15, 39, 76
17, 338579, Note_on_c, 15, 39, 0
17, 338640, Note_on_c, 15, 41, 84
17, 339329, Note_on_c, 15, 41, 0
17, 339360, Note_on_c, 15, 41, 84
17, 340049, Note_on_c, 15, 41, 0
17, 340080, Note_on_c, 15, 34, 84
17, 340319, Note_on_c, 15, 34, 0
17, 340320, Note_on_c, 15, 29, 84
17, 340439, Note_on_c, 15, 29, 0
17, 340560, Note_on_c, 15, 38, 84
17, 340799, Note_on_c, 15, 38, 0
17, 340800, Note_on_c, 15, 34, 84
17, 340919, Note_on_c, 15, 34, 0
17, 341040, Note_on_c, 15, 41, 84
17, 341279, Note_on_c, 15, 41, 0
17, 341280, Note_on_c, 15, 38, 84
17, 341399, Note_on_c, 15, 38, 0
17, 341520, Note_on_c, 15, 29, 84
17, 342689, Note_on_c, 15, 29, 0
17, 342720, Note_on_c, 15, 29, 84
17, 342929, Note_on_c, 15, 29, 0
17, 342960, Note_on_c, 15, 34, 84
17, 343199, Note_on_c, 15, 34, 0
17, 343200, Note_on_c, 15, 29, 84
17, 343319, Note_on_c, 15, 29, 0
17, 343440, Note_on_c, 15, 38, 84
17, 343679, Note_on_c, 15, 38, 0
17, 343680, Note_on_c, 15, 34, 84
17, 343799, Note_on_c, 15, 34, 0
17, 343920, Note_on_c, 15, 41, 84
17, 344159, Note_on_c, 15, 41, 0
17, 344160, Note_on_c, 15, 38, 84
17, 344279, Note_on_c, 15, 38, 0
17, 344400, Note_on_c, 15, 29, 84
17, 345569, Note_on_c, 15, 29, 0
17, 345600, Note_on_c, 15, 29, 84
17, 345809, Note_on_c, 15, 29, 0
17, 345840, Note_on_c, 15, 34, 76
17, 346529, Note_on_c, 15, 34, 0
17, 346560, Note_on_c, 15, 34, 76
17, 347249, Note_on_c, 15, 34, 0
17, 347280, Note_on_c, 15, 34, 76
17, 347489, Note_on_c, 15, 34, 0
17, 347520, Note_on_c, 15, 34, 76
17, 347729, Note_on_c, 15, 34, 0
17, 347760, Note_on_c, 15, 34, 76
17, 347969, Note_on_c, 15, 34, 0
17, 348000, Note_on_c, 15, 34, 76
17, 348239, Note_on_c, 15, 34, 0
17, 350160, Note_on_c, 15, 34, 84
17, 350399, Note_on_c, 15, 34, 0
17, 350399, End_track
18, 0, Start_track
18, 0, Title_t, "Ludwig van Beethoven - Symphony No. 4, Op.60 - No. 3 Allegro vivace"
18, 0, MIDI_port, 0
18, 0, End_track
0, 0, End_of_file
