0, 0, Header, 1, 18, 240
1, 0, Start_track
1, 0, Sequencer_specific, 10, 0, 0, 91, 35, 1, 0, 5, 6, 42, 0
1, 0, Title_t, "Ludwig van Beethoven - Symphony No. 6 in F Major, Op.68"
1, 0, Instrument_name_t, "Conductor Track"
1, 0, SMPTE_offset, 96, 0, 3, 0, 0
1, 0, MIDI_port, 0
1, 0, Key_signature, -1, "major"
1, 0, Tempo, 357142
1, 0, Time_signature, 1, 3, 12, 8
1, 120, Time_signature, 3, 3, 12, 8
1, 57720, Tempo, 370370
1, 57780, Tempo, 368098
1, 57840, Tempo, 363636
1, 57900, Tempo, 361445
1, 57960, Tempo, 359281
1, 58020, Tempo, 357142
1, 58080, Tempo, 352941
1, 58140, Tempo, 350877
1, 58200, Tempo, 348837
1, 58260, Tempo, 346820
1, 58320, Tempo, 342857
1, 58380, Tempo, 340909
1, 58440, Tempo, 338983
1, 58500, Tempo, 337078
1, 58560, Tempo, 333333
1, 58620, Tempo, 331491
1, 58680, Tempo, 329670
1, 58740, Tempo, 327868
1, 58800, Tempo, 324324
1, 58860, Tempo, 322580
1, 58920, Tempo, 320855
1, 58980, Tempo, 319148
1, 59040, Tempo, 315789
1, 59100, Tempo, 314136
1, 59160, Time_signature, 2, 2, 24, 8
1, 59160, Tempo, 454545
1, 77520, Tempo, 1333333
1, 77880, Tempo, 454545
1, 78000, Tempo, 2000000
1, 78240, Tempo, 357142
1, 78360, Time_signature, 3, 3, 12, 8
1, 135960, Tempo, 370370
1, 136020, Tempo, 368098
1, 136080, Tempo, 363636
1, 136140, Tempo, 361445
1, 136200, Tempo, 359281
1, 136260, Tempo, 357142
1, 136320, Tempo, 352941
1, 136380, Tempo, 350877
1, 136440, Tempo, 348837
1, 136500, Tempo, 346820
1, 136560, Tempo, 342857
1, 136620, Tempo, 340909
1, 136680, Tempo, 338983
1, 136740, Tempo, 337078
1, 136800, Tempo, 333333
1, 136860, Tempo, 331491
1, 136920, Tempo, 329670
1, 136980, Tempo, 327868
1, 137040, Tempo, 324324
1, 137100, Tempo, 322580
1, 137160, Tempo, 320855
1, 137220, Tempo, 319148
1, 137280, Tempo, 315789
1, 137340, Tempo, 314136
1, 137400, Time_signature, 2, 2, 24, 8
1, 137400, Tempo, 454545
1, 155760, Tempo, 1333333
1, 156120, Tempo, 454545
1, 156240, Tempo, 2000000
1, 156480, Tempo, 357142
1, 156600, Tempo, 357142
1, 156600, Time_signature, 3, 3, 12, 8
1, 167400, Tempo, 312500
1, 178200, Tempo, 375000
1, 178200, End_track
2, 0, Start_track
2, 0, Title_t, "3rd Movement - Merry Gathering of the Countryfolk"
2, 0, MIDI_port, 0
2, 0, End_track
3, 0, Start_track
3, 0, Title_t, "(Lustiges Zusammensein der Landleute)"
3, 0, MIDI_port, 0
3, 0, End_track
4, 0, Start_track
4, 0, Title_t, "Sequenced by D. L. Viens 5 Aug 2000"
4, 0, MIDI_port, 0
4, 0, End_track
5, 0, Start_track
5, 0, Title_t, "dlviens@empire.net"
5, 0, MIDI_port, 0
5, 0, End_track
6, 0, Start_track
6, 0, MIDI_port, 0
6, 0, End_track
7, 0, Start_track
7, 0, Title_t, "Flute"
7, 0, MIDI_port, 0
7, 0, Program_c, 1, 73
7, 0, Control_c, 1, 7, 72
7, 0, Control_c, 1, 10, 60
7, 0, Control_c, 1, 11, 127
7, 2880, Note_on_c, 1, 69, 48
7, 2999, Note_on_c, 1, 69, 0
7, 3000, Note_on_c, 1, 74, 48
7, 3239, Note_on_c, 1, 74, 0
7, 3240, Note_on_c, 1, 78, 48
7, 3359, Note_on_c, 1, 78, 0
7, 3360, Note_on_c, 1, 81, 48
7, 3479, Note_on_c, 1, 81, 0
7, 3480, Note_on_c, 1, 78, 48
7, 3584, Note_on_c, 1, 78, 0
7, 3600, Note_on_c, 1, 78, 48
7, 3719, Note_on_c, 1, 78, 0
7, 3720, Note_on_c, 1, 81, 48
7, 3839, Note_on_c, 1, 81, 0
7, 3840, Note_on_c, 1, 85, 48
7, 3959, Note_on_c, 1, 85, 0
7, 3960, Note_on_c, 1, 86, 48
7, 4019, Note_on_c, 1, 86, 0
7, 4020, Note_on_c, 1, 83, 48
7, 4079, Note_on_c, 1, 83, 0
7, 4080, Note_on_c, 1, 81, 48
7, 4304, Note_on_c, 1, 81, 0
7, 4320, Note_on_c, 1, 85, 48
7, 4439, Note_on_c, 1, 85, 0
7, 4440, Note_on_c, 1, 86, 48
7, 4559, Note_on_c, 1, 86, 0
7, 4560, Note_on_c, 1, 81, 48
7, 4679, Note_on_c, 1, 81, 0
7, 4680, Note_on_c, 1, 83, 48
7, 4799, Note_on_c, 1, 83, 0
7, 4800, Note_on_c, 1, 81, 48
7, 4919, Note_on_c, 1, 81, 0
7, 4920, Note_on_c, 1, 78, 48
7, 5039, Note_on_c, 1, 78, 0
7, 5040, Note_on_c, 1, 79, 48
7, 5159, Note_on_c, 1, 79, 0
7, 5160, Note_on_c, 1, 78, 48
7, 5279, Note_on_c, 1, 78, 0
7, 5280, Note_on_c, 1, 74, 48
7, 5399, Note_on_c, 1, 74, 0
7, 5400, Note_on_c, 1, 78, 48
7, 5459, Note_on_c, 1, 78, 0
7, 5460, Note_on_c, 1, 76, 48
7, 5519, Note_on_c, 1, 76, 0
7, 5520, Note_on_c, 1, 74, 48
7, 5639, Note_on_c, 1, 74, 0
7, 8640, Note_on_c, 1, 69, 48
7, 8759, Note_on_c, 1, 69, 0
7, 8760, Note_on_c, 1, 74, 48
7, 8999, Note_on_c, 1, 74, 0
7, 9000, Note_on_c, 1, 78, 48
7, 9119, Note_on_c, 1, 78, 0
7, 9120, Note_on_c, 1, 81, 48
7, 9239, Note_on_c, 1, 81, 0
7, 9240, Note_on_c, 1, 78, 48
7, 9344, Note_on_c, 1, 78, 0
7, 9360, Note_on_c, 1, 78, 48
7, 9479, Note_on_c, 1, 78, 0
7, 9480, Note_on_c, 1, 81, 48
7, 9599, Note_on_c, 1, 81, 0
7, 9600, Note_on_c, 1, 85, 48
7, 9719, Note_on_c, 1, 85, 0
7, 9720, Note_on_c, 1, 86, 48
7, 9779, Note_on_c, 1, 86, 0
7, 9780, Note_on_c, 1, 83, 48
7, 9839, Note_on_c, 1, 83, 0
7, 9840, Note_on_c, 1, 81, 48
7, 10064, Note_on_c, 1, 81, 0
7, 10080, Note_on_c, 1, 85, 48
7, 10199, Note_on_c, 1, 85, 0
7, 10200, Note_on_c, 1, 86, 48
7, 10319, Note_on_c, 1, 86, 0
7, 10320, Note_on_c, 1, 81, 48
7, 10439, Note_on_c, 1, 81, 0
7, 10440, Note_on_c, 1, 83, 48
7, 10559, Note_on_c, 1, 83, 0
7, 10560, Note_on_c, 1, 81, 48
7, 10679, Note_on_c, 1, 81, 0
7, 10680, Note_on_c, 1, 78, 48
7, 10799, Note_on_c, 1, 78, 0
7, 10800, Note_on_c, 1, 79, 48
7, 10919, Note_on_c, 1, 79, 0
7, 10920, Note_on_c, 1, 78, 48
7, 11039, Note_on_c, 1, 78, 0
7, 11040, Note_on_c, 1, 74, 48
7, 11159, Note_on_c, 1, 74, 0
7, 11160, Note_on_c, 1, 78, 48
7, 11219, Note_on_c, 1, 78, 0
7, 11220, Note_on_c, 1, 76, 48
7, 11279, Note_on_c, 1, 76, 0
7, 11280, Note_on_c, 1, 74, 48
7, 11399, Note_on_c, 1, 74, 0
7, 13680, Note_on_c, 1, 72, 44
7, 13769, Note_on_c, 1, 72, 0
7, 13800, Note_on_c, 1, 71, 44
7, 13889, Note_on_c, 1, 71, 0
7, 13920, Note_on_c, 1, 67, 44
7, 14009, Note_on_c, 1, 67, 0
7, 14040, Note_on_c, 1, 69, 44
7, 14129, Note_on_c, 1, 69, 0
7, 14160, Note_on_c, 1, 71, 44
7, 14249, Note_on_c, 1, 71, 0
7, 14280, Note_on_c, 1, 67, 44
7, 14369, Note_on_c, 1, 67, 0
7, 16320, Control_c, 1, 11, 64
7, 16560, Note_on_c, 1, 84, 84
7, 16784, Note_on_c, 1, 84, 0
7, 16800, Note_on_c, 1, 84, 84
7, 16919, Note_on_c, 1, 84, 0
7, 16920, Note_on_c, 1, 83, 84
7, 17039, Note_on_c, 1, 83, 0
7, 17040, Control_c, 1, 11, 64
7, 17040, Note_on_c, 1, 84, 84
7, 17080, Control_c, 1, 11, 66
7, 17120, Control_c, 1, 11, 68
7, 17144, Note_on_c, 1, 84, 0
7, 17160, Control_c, 1, 11, 69
7, 17160, Note_on_c, 1, 84, 84
7, 17200, Control_c, 1, 11, 71
7, 17240, Control_c, 1, 11, 73
7, 17264, Note_on_c, 1, 84, 0
7, 17280, Control_c, 1, 11, 75
7, 17280, Note_on_c, 1, 84, 84
7, 17320, Control_c, 1, 11, 76
7, 17360, Control_c, 1, 11, 78
7, 17384, Note_on_c, 1, 84, 0
7, 17400, Note_on_c, 1, 84, 84
7, 17400, Control_c, 1, 11, 80
7, 17440, Control_c, 1, 11, 82
7, 17480, Control_c, 1, 11, 83
7, 17504, Note_on_c, 1, 84, 0
7, 17520, Note_on_c, 1, 84, 84
7, 17520, Control_c, 1, 11, 85
7, 17560, Control_c, 1, 11, 87
7, 17600, Control_c, 1, 11, 89
7, 17624, Note_on_c, 1, 84, 0
7, 17640, Control_c, 1, 11, 90
7, 17640, Note_on_c, 1, 84, 84
7, 17680, Control_c, 1, 11, 92
7, 17720, Control_c, 1, 11, 94
7, 17744, Note_on_c, 1, 84, 0
7, 17760, Note_on_c, 1, 84, 84
7, 17760, Control_c, 1, 11, 96
7, 17800, Control_c, 1, 11, 97
7, 17840, Control_c, 1, 11, 99
7, 17864, Note_on_c, 1, 84, 0
7, 17880, Note_on_c, 1, 84, 84
7, 17880, Control_c, 1, 11, 101
7, 17920, Control_c, 1, 11, 103
7, 17960, Control_c, 1, 11, 104
7, 17984, Note_on_c, 1, 84, 0
7, 18000, Note_on_c, 1, 84, 84
7, 18000, Control_c, 1, 11, 106
7, 18040, Control_c, 1, 11, 108
7, 18080, Control_c, 1, 11, 110
7, 18104, Note_on_c, 1, 84, 0
7, 18120, Note_on_c, 1, 84, 84
7, 18120, Control_c, 1, 11, 111
7, 18160, Control_c, 1, 11, 113
7, 18200, Control_c, 1, 11, 115
7, 18224, Note_on_c, 1, 84, 0
7, 18240, Note_on_c, 1, 84, 84
7, 18240, Control_c, 1, 11, 117
7, 18280, Control_c, 1, 11, 118
7, 18320, Control_c, 1, 11, 120
7, 18344, Note_on_c, 1, 84, 0
7, 18360, Control_c, 1, 11, 122
7, 18360, Note_on_c, 1, 84, 84
7, 18400, Control_c, 1, 11, 124
7, 18440, Control_c, 1, 11, 125
7, 18464, Note_on_c, 1, 84, 0
7, 18478, Control_c, 1, 11, 127
7, 18480, Note_on_c, 1, 84, 84
7, 18584, Note_on_c, 1, 84, 0
7, 18600, Note_on_c, 1, 84, 84
7, 18704, Note_on_c, 1, 84, 0
7, 18720, Note_on_c, 1, 84, 84
7, 18720, Note_on_c, 1, 72, 84
7, 18824, Note_on_c, 1, 84, 0
7, 18824, Note_on_c, 1, 72, 0
7, 18840, Note_on_c, 1, 89, 84
7, 18840, Note_on_c, 1, 77, 84
7, 18944, Note_on_c, 1, 89, 0
7, 18944, Note_on_c, 1, 77, 0
7, 18960, Note_on_c, 1, 84, 84
7, 18960, Note_on_c, 1, 72, 84
7, 19064, Note_on_c, 1, 84, 0
7, 19064, Note_on_c, 1, 72, 0
7, 19080, Note_on_c, 1, 86, 84
7, 19080, Note_on_c, 1, 74, 84
7, 19184, Note_on_c, 1, 86, 0
7, 19184, Note_on_c, 1, 74, 0
7, 19200, Note_on_c, 1, 84, 84
7, 19200, Note_on_c, 1, 72, 84
7, 19304, Note_on_c, 1, 84, 0
7, 19304, Note_on_c, 1, 72, 0
7, 19320, Note_on_c, 1, 81, 84
7, 19320, Note_on_c, 1, 69, 84
7, 19424, Note_on_c, 1, 81, 0
7, 19424, Note_on_c, 1, 69, 0
7, 19440, Note_on_c, 1, 70, 84
7, 19440, Note_on_c, 1, 82, 84
7, 19544, Note_on_c, 1, 70, 0
7, 19544, Note_on_c, 1, 82, 0
7, 19560, Note_on_c, 1, 69, 92
7, 19560, Note_on_c, 1, 81, 92
7, 19664, Note_on_c, 1, 69, 0
7, 19664, Note_on_c, 1, 81, 0
7, 19680, Note_on_c, 1, 77, 84
7, 19680, Note_on_c, 1, 65, 84
7, 19784, Note_on_c, 1, 77, 0
7, 19784, Note_on_c, 1, 65, 0
7, 19800, Note_on_c, 1, 79, 84
7, 19800, Note_on_c, 1, 67, 84
7, 19904, Note_on_c, 1, 79, 0
7, 19904, Note_on_c, 1, 67, 0
7, 19920, Note_on_c, 1, 69, 92
7, 19920, Note_on_c, 1, 81, 92
7, 20024, Note_on_c, 1, 69, 0
7, 20024, Note_on_c, 1, 81, 0
7, 20040, Note_on_c, 1, 77, 84
7, 20040, Note_on_c, 1, 65, 84
7, 20144, Note_on_c, 1, 77, 0
7, 20144, Note_on_c, 1, 65, 0
7, 20160, Note_on_c, 1, 67, 84
7, 20160, Note_on_c, 1, 79, 84
7, 20264, Note_on_c, 1, 67, 0
7, 20264, Note_on_c, 1, 79, 0
7, 20280, Note_on_c, 1, 69, 92
7, 20280, Note_on_c, 1, 81, 92
7, 20384, Note_on_c, 1, 69, 0
7, 20384, Note_on_c, 1, 81, 0
7, 20400, Note_on_c, 1, 77, 84
7, 20504, Note_on_c, 1, 77, 0
7, 20520, Note_on_c, 1, 79, 84
7, 20624, Note_on_c, 1, 79, 0
7, 20640, Note_on_c, 1, 81, 92
7, 20744, Note_on_c, 1, 81, 0
7, 20760, Note_on_c, 1, 77, 84
7, 20864, Note_on_c, 1, 77, 0
7, 20880, Note_on_c, 1, 79, 84
7, 20984, Note_on_c, 1, 79, 0
7, 21000, Note_on_c, 1, 81, 92
7, 21060, Control_c, 1, 11, 112
7, 21307, Note_on_c, 1, 81, 0
7, 21320, Note_on_c, 1, 79, 92
7, 21339, Note_on_c, 1, 79, 0
7, 21340, Note_on_c, 1, 81, 92
7, 21359, Note_on_c, 1, 81, 0
7, 21360, Note_on_c, 1, 79, 92
7, 21584, Note_on_c, 1, 79, 0
7, 21600, Note_on_c, 1, 77, 92
7, 21667, Note_on_c, 1, 77, 0
7, 21680, Note_on_c, 1, 76, 92
7, 21699, Note_on_c, 1, 76, 0
7, 21700, Note_on_c, 1, 77, 92
7, 21719, Note_on_c, 1, 77, 0
7, 21720, Note_on_c, 1, 76, 92
7, 21944, Note_on_c, 1, 76, 0
7, 21960, Note_on_c, 1, 74, 92
7, 22064, Note_on_c, 1, 74, 0
7, 22080, Note_on_c, 1, 72, 92
7, 22304, Note_on_c, 1, 72, 0
7, 22320, Note_on_c, 1, 76, 92
7, 22424, Note_on_c, 1, 76, 0
7, 22438, Control_c, 1, 11, 127
7, 22440, Note_on_c, 1, 77, 92
7, 22500, Control_c, 1, 11, 112
7, 22784, Note_on_c, 1, 77, 0
7, 22798, Control_c, 1, 11, 127
7, 22800, Note_on_c, 1, 79, 92
7, 22800, Note_on_c, 1, 77, 92
7, 22860, Control_c, 1, 11, 112
7, 23144, Note_on_c, 1, 79, 0
7, 23144, Note_on_c, 1, 77, 0
7, 23158, Control_c, 1, 11, 127
7, 23160, Note_on_c, 1, 77, 92
7, 23160, Note_on_c, 1, 81, 92
7, 23220, Control_c, 1, 11, 112
7, 23504, Note_on_c, 1, 77, 0
7, 23504, Note_on_c, 1, 81, 0
7, 23520, Note_on_c, 1, 76, 92
7, 23520, Note_on_c, 1, 79, 92
7, 23864, Note_on_c, 1, 76, 0
7, 23864, Note_on_c, 1, 79, 0
7, 23880, Note_on_c, 1, 77, 92
7, 23880, Note_on_c, 1, 81, 92
7, 23999, Note_on_c, 1, 77, 0
7, 23999, Note_on_c, 1, 81, 0
7, 24120, Note_on_c, 1, 93, 92
7, 24120, Note_on_c, 1, 81, 92
7, 24224, Note_on_c, 1, 93, 0
7, 24224, Note_on_c, 1, 81, 0
7, 24240, Note_on_c, 1, 79, 92
7, 24240, Note_on_c, 1, 91, 92
7, 24464, Note_on_c, 1, 79, 0
7, 24464, Note_on_c, 1, 91, 0
7, 24480, Note_on_c, 1, 77, 92
7, 24480, Note_on_c, 1, 89, 92
7, 24584, Note_on_c, 1, 77, 0
7, 24584, Note_on_c, 1, 89, 0
7, 24600, Note_on_c, 1, 76, 92
7, 24600, Note_on_c, 1, 88, 92
7, 24824, Note_on_c, 1, 76, 0
7, 24824, Note_on_c, 1, 88, 0
7, 24840, Note_on_c, 1, 86, 92
7, 24840, Note_on_c, 1, 74, 92
7, 24944, Note_on_c, 1, 86, 0
7, 24944, Note_on_c, 1, 74, 0
7, 24960, Note_on_c, 1, 72, 92
7, 24960, Note_on_c, 1, 84, 92
7, 25184, Note_on_c, 1, 72, 0
7, 25184, Note_on_c, 1, 84, 0
7, 25200, Note_on_c, 1, 84, 92
7, 25200, Note_on_c, 1, 88, 92
7, 25304, Note_on_c, 1, 84, 0
7, 25304, Note_on_c, 1, 88, 0
7, 25318, Control_c, 1, 11, 127
7, 25320, Note_on_c, 1, 77, 92
7, 25320, Note_on_c, 1, 89, 92
7, 25380, Control_c, 1, 11, 112
7, 25664, Note_on_c, 1, 77, 0
7, 25664, Note_on_c, 1, 89, 0
7, 25678, Control_c, 1, 11, 127
7, 25680, Note_on_c, 1, 86, 92
7, 25680, Note_on_c, 1, 89, 92
7, 25740, Control_c, 1, 11, 112
7, 26024, Note_on_c, 1, 86, 0
7, 26024, Note_on_c, 1, 89, 0
7, 26038, Control_c, 1, 11, 127
7, 26040, Note_on_c, 1, 84, 92
7, 26040, Note_on_c, 1, 89, 92
7, 26100, Control_c, 1, 11, 112
7, 26384, Note_on_c, 1, 84, 0
7, 26384, Note_on_c, 1, 89, 0
7, 26398, Control_c, 1, 11, 127
7, 26400, Note_on_c, 1, 88, 92
7, 26400, Note_on_c, 1, 84, 92
7, 26460, Control_c, 1, 11, 112
7, 26744, Note_on_c, 1, 88, 0
7, 26744, Note_on_c, 1, 84, 0
7, 26758, Control_c, 1, 11, 127
7, 26760, Note_on_c, 1, 89, 92
7, 26760, Note_on_c, 1, 84, 92
7, 26879, Note_on_c, 1, 89, 0
7, 26879, Note_on_c, 1, 84, 0
7, 27840, Note_on_c, 1, 84, 84
7, 27840, Note_on_c, 1, 88, 84
7, 27944, Note_on_c, 1, 84, 0
7, 27944, Note_on_c, 1, 88, 0
7, 27960, Note_on_c, 1, 84, 84
7, 27960, Note_on_c, 1, 88, 84
7, 28064, Note_on_c, 1, 84, 0
7, 28064, Note_on_c, 1, 88, 0
7, 28080, Note_on_c, 1, 84, 84
7, 28080, Note_on_c, 1, 88, 84
7, 28184, Note_on_c, 1, 84, 0
7, 28184, Note_on_c, 1, 88, 0
7, 28200, Note_on_c, 1, 84, 92
7, 28200, Note_on_c, 1, 89, 92
7, 28319, Note_on_c, 1, 84, 0
7, 28319, Note_on_c, 1, 89, 0
7, 29280, Note_on_c, 1, 88, 84
7, 29280, Note_on_c, 1, 84, 84
7, 29384, Note_on_c, 1, 88, 0
7, 29384, Note_on_c, 1, 84, 0
7, 29400, Note_on_c, 1, 88, 84
7, 29400, Note_on_c, 1, 84, 84
7, 29504, Note_on_c, 1, 88, 0
7, 29504, Note_on_c, 1, 84, 0
7, 29520, Note_on_c, 1, 88, 84
7, 29520, Note_on_c, 1, 84, 84
7, 29624, Note_on_c, 1, 88, 0
7, 29624, Note_on_c, 1, 84, 0
7, 29640, Note_on_c, 1, 89, 92
7, 29640, Note_on_c, 1, 84, 92
7, 29759, Note_on_c, 1, 89, 0
7, 29759, Note_on_c, 1, 84, 0
7, 30360, Note_on_c, 1, 84, 92
7, 30360, Note_on_c, 1, 89, 92
7, 30479, Note_on_c, 1, 84, 0
7, 30479, Note_on_c, 1, 89, 0
7, 63000, Note_on_c, 1, 77, 84
7, 63067, Note_on_c, 1, 77, 0
7, 63080, Note_on_c, 1, 81, 76
7, 63147, Note_on_c, 1, 81, 0
7, 63160, Note_on_c, 1, 82, 76
7, 63227, Note_on_c, 1, 82, 0
7, 63240, Note_on_c, 1, 84, 76
7, 63464, Note_on_c, 1, 84, 0
7, 63480, Note_on_c, 1, 77, 84
7, 63547, Note_on_c, 1, 77, 0
7, 63560, Note_on_c, 1, 81, 76
7, 63627, Note_on_c, 1, 81, 0
7, 63640, Note_on_c, 1, 82, 76
7, 63707, Note_on_c, 1, 82, 0
7, 63720, Note_on_c, 1, 84, 76
7, 63944, Note_on_c, 1, 84, 0
7, 63960, Note_on_c, 1, 82, 76
7, 63960, Note_on_c, 1, 77, 84
7, 64027, Note_on_c, 1, 77, 0
7, 64120, Note_on_c, 1, 84, 76
7, 64187, Note_on_c, 1, 84, 0
7, 64200, Note_on_c, 1, 86, 76
7, 64424, Note_on_c, 1, 82, 0
7, 64424, Note_on_c, 1, 86, 0
7, 64440, Note_on_c, 1, 84, 84
7, 64440, Note_on_c, 1, 81, 84
7, 64679, Note_on_c, 1, 84, 0
7, 64679, Note_on_c, 1, 81, 0
7, 64680, Note_on_c, 1, 82, 76
7, 64904, Note_on_c, 1, 82, 0
7, 64920, Note_on_c, 1, 77, 84
7, 64987, Note_on_c, 1, 77, 0
7, 65000, Note_on_c, 1, 81, 76
7, 65067, Note_on_c, 1, 81, 0
7, 65080, Note_on_c, 1, 82, 76
7, 65147, Note_on_c, 1, 82, 0
7, 65160, Note_on_c, 1, 84, 76
7, 65384, Note_on_c, 1, 84, 0
7, 65400, Note_on_c, 1, 77, 84
7, 65467, Note_on_c, 1, 77, 0
7, 65480, Note_on_c, 1, 81, 76
7, 65547, Note_on_c, 1, 81, 0
7, 65560, Note_on_c, 1, 82, 76
7, 65627, Note_on_c, 1, 82, 0
7, 65640, Note_on_c, 1, 84, 76
7, 65864, Note_on_c, 1, 84, 0
7, 65880, Note_on_c, 1, 77, 84
7, 65880, Note_on_c, 1, 82, 76
7, 65947, Note_on_c, 1, 77, 0
7, 66040, Note_on_c, 1, 84, 76
7, 66107, Note_on_c, 1, 84, 0
7, 66120, Note_on_c, 1, 86, 76
7, 66344, Note_on_c, 1, 82, 0
7, 66344, Note_on_c, 1, 86, 0
7, 66360, Note_on_c, 1, 81, 84
7, 66360, Note_on_c, 1, 84, 84
7, 66599, Note_on_c, 1, 81, 0
7, 66599, Note_on_c, 1, 84, 0
7, 66600, Note_on_c, 1, 82, 76
7, 66839, Note_on_c, 1, 82, 0
7, 67800, Note_on_c, 1, 84, 84
7, 67800, Note_on_c, 1, 89, 84
7, 67860, Control_c, 1, 11, 96
7, 68264, Note_on_c, 1, 84, 0
7, 68264, Note_on_c, 1, 89, 0
7, 68280, Note_on_c, 1, 88, 84
7, 68280, Note_on_c, 1, 84, 84
7, 68504, Note_on_c, 1, 88, 0
7, 68504, Note_on_c, 1, 84, 0
7, 68520, Note_on_c, 1, 84, 84
7, 68520, Note_on_c, 1, 89, 84
7, 68759, Note_on_c, 1, 84, 0
7, 68759, Note_on_c, 1, 89, 0
7, 69480, Control_c, 1, 11, 127
7, 69720, Note_on_c, 1, 84, 84
7, 69720, Note_on_c, 1, 89, 84
7, 69780, Control_c, 1, 11, 96
7, 70184, Note_on_c, 1, 84, 0
7, 70184, Note_on_c, 1, 89, 0
7, 70200, Note_on_c, 1, 88, 84
7, 70200, Note_on_c, 1, 84, 84
7, 70424, Note_on_c, 1, 88, 0
7, 70424, Note_on_c, 1, 84, 0
7, 70440, Note_on_c, 1, 84, 84
7, 70440, Note_on_c, 1, 89, 84
7, 70679, Note_on_c, 1, 84, 0
7, 70679, Note_on_c, 1, 89, 0
7, 71400, Control_c, 1, 11, 127
7, 71520, Note_on_c, 1, 93, 84
7, 71520, Note_on_c, 1, 89, 84
7, 71624, Note_on_c, 1, 93, 0
7, 71624, Note_on_c, 1, 89, 0
7, 71640, Note_on_c, 1, 91, 84
7, 71640, Note_on_c, 1, 88, 84
7, 71759, Note_on_c, 1, 91, 0
7, 71759, Note_on_c, 1, 88, 0
7, 71880, Note_on_c, 1, 86, 84
7, 71880, Note_on_c, 1, 89, 84
7, 71999, Note_on_c, 1, 86, 0
7, 71999, Note_on_c, 1, 89, 0
7, 72120, Note_on_c, 1, 84, 84
7, 72120, Note_on_c, 1, 88, 84
7, 72239, Note_on_c, 1, 84, 0
7, 72239, Note_on_c, 1, 88, 0
7, 72360, Note_on_c, 1, 83, 84
7, 72360, Note_on_c, 1, 86, 84
7, 72479, Note_on_c, 1, 83, 0
7, 72479, Note_on_c, 1, 86, 0
7, 72600, Note_on_c, 1, 84, 84
7, 72719, Note_on_c, 1, 84, 0
7, 73440, Note_on_c, 1, 93, 84
7, 73440, Note_on_c, 1, 89, 84
7, 73559, Note_on_c, 1, 93, 0
7, 73559, Note_on_c, 1, 89, 0
7, 73680, Note_on_c, 1, 91, 84
7, 73680, Note_on_c, 1, 88, 84
7, 73799, Note_on_c, 1, 91, 0
7, 73799, Note_on_c, 1, 88, 0
7, 73920, Note_on_c, 1, 86, 84
7, 73920, Note_on_c, 1, 89, 84
7, 74039, Note_on_c, 1, 86, 0
7, 74039, Note_on_c, 1, 89, 0
7, 74160, Note_on_c, 1, 88, 84
7, 74160, Note_on_c, 1, 84, 84
7, 74279, Note_on_c, 1, 88, 0
7, 74279, Note_on_c, 1, 84, 0
7, 74400, Note_on_c, 1, 83, 84
7, 74400, Note_on_c, 1, 86, 84
7, 74504, Note_on_c, 1, 83, 0
7, 74504, Note_on_c, 1, 86, 0
7, 74518, Control_c, 1, 11, 112
7, 74520, Control_c, 1, 11, 112
7, 74520, Note_on_c, 1, 76, 92
7, 74520, Note_on_c, 1, 84, 92
7, 74712, Control_c, 1, 11, 113
7, 74864, Note_on_c, 1, 76, 0
7, 74864, Note_on_c, 1, 84, 0
7, 74880, Note_on_c, 1, 84, 92
7, 74880, Note_on_c, 1, 76, 92
7, 74904, Control_c, 1, 11, 114
7, 74984, Note_on_c, 1, 84, 0
7, 74984, Note_on_c, 1, 76, 0
7, 75000, Note_on_c, 1, 76, 92
7, 75000, Note_on_c, 1, 84, 92
7, 75096, Control_c, 1, 11, 115
7, 75288, Control_c, 1, 11, 116
7, 75344, Note_on_c, 1, 76, 0
7, 75344, Note_on_c, 1, 84, 0
7, 75360, Note_on_c, 1, 76, 92
7, 75360, Note_on_c, 1, 84, 92
7, 75464, Note_on_c, 1, 76, 0
7, 75464, Note_on_c, 1, 84, 0
7, 75480, Note_on_c, 1, 84, 92
7, 75480, Control_c, 1, 11, 117
7, 75480, Note_on_c, 1, 76, 92
7, 75672, Control_c, 1, 11, 118
7, 75824, Note_on_c, 1, 84, 0
7, 75824, Note_on_c, 1, 76, 0
7, 75840, Note_on_c, 1, 76, 92
7, 75840, Note_on_c, 1, 84, 92
7, 75864, Control_c, 1, 11, 119
7, 75944, Note_on_c, 1, 76, 0
7, 75944, Note_on_c, 1, 84, 0
7, 75960, Note_on_c, 1, 76, 92
7, 75960, Note_on_c, 1, 84, 92
7, 76056, Control_c, 1, 11, 120
7, 76248, Control_c, 1, 11, 121
7, 76304, Note_on_c, 1, 76, 0
7, 76304, Note_on_c, 1, 84, 0
7, 76320, Note_on_c, 1, 84, 92
7, 76320, Note_on_c, 1, 76, 92
7, 76424, Note_on_c, 1, 84, 0
7, 76424, Note_on_c, 1, 76, 0
7, 76440, Note_on_c, 1, 76, 92
7, 76440, Note_on_c, 1, 84, 92
7, 76440, Control_c, 1, 11, 122
7, 76544, Note_on_c, 1, 76, 0
7, 76544, Note_on_c, 1, 84, 0
7, 76560, Note_on_c, 1, 76, 92
7, 76560, Note_on_c, 1, 84, 92
7, 76632, Control_c, 1, 11, 123
7, 76664, Note_on_c, 1, 76, 0
7, 76664, Note_on_c, 1, 84, 0
7, 76680, Note_on_c, 1, 76, 92
7, 76680, Note_on_c, 1, 84, 92
7, 76784, Note_on_c, 1, 76, 0
7, 76784, Note_on_c, 1, 84, 0
7, 76800, Note_on_c, 1, 84, 92
7, 76800, Note_on_c, 1, 88, 92
7, 76824, Control_c, 1, 11, 124
7, 76904, Note_on_c, 1, 84, 0
7, 76904, Note_on_c, 1, 88, 0
7, 76920, Note_on_c, 1, 88, 92
7, 76920, Note_on_c, 1, 84, 92
7, 77016, Control_c, 1, 11, 125
7, 77024, Note_on_c, 1, 88, 0
7, 77024, Note_on_c, 1, 84, 0
7, 77040, Note_on_c, 1, 84, 92
7, 77040, Note_on_c, 1, 88, 92
7, 77144, Note_on_c, 1, 84, 0
7, 77144, Note_on_c, 1, 88, 0
7, 77160, Note_on_c, 1, 88, 92
7, 77160, Note_on_c, 1, 84, 92
7, 77208, Control_c, 1, 11, 127
7, 77264, Note_on_c, 1, 88, 0
7, 77264, Note_on_c, 1, 84, 0
7, 77280, Note_on_c, 1, 88, 92
7, 77280, Note_on_c, 1, 84, 92
7, 77384, Note_on_c, 1, 88, 0
7, 77384, Note_on_c, 1, 84, 0
7, 77400, Note_on_c, 1, 88, 84
7, 77400, Note_on_c, 1, 84, 84
7, 77519, Note_on_c, 1, 88, 0
7, 77519, Note_on_c, 1, 84, 0
7, 77880, Note_on_c, 1, 76, 52
7, 77880, Note_on_c, 1, 84, 52
7, 77999, Note_on_c, 1, 76, 0
7, 77999, Note_on_c, 1, 84, 0
7, 81120, Note_on_c, 1, 69, 48
7, 81239, Note_on_c, 1, 69, 0
7, 81240, Note_on_c, 1, 74, 48
7, 81479, Note_on_c, 1, 74, 0
7, 81480, Note_on_c, 1, 78, 48
7, 81599, Note_on_c, 1, 78, 0
7, 81600, Note_on_c, 1, 81, 48
7, 81719, Note_on_c, 1, 81, 0
7, 81720, Note_on_c, 1, 78, 48
7, 81824, Note_on_c, 1, 78, 0
7, 81840, Note_on_c, 1, 78, 48
7, 81959, Note_on_c, 1, 78, 0
7, 81960, Note_on_c, 1, 81, 48
7, 82079, Note_on_c, 1, 81, 0
7, 82080, Note_on_c, 1, 85, 48
7, 82199, Note_on_c, 1, 85, 0
7, 82200, Note_on_c, 1, 86, 48
7, 82259, Note_on_c, 1, 86, 0
7, 82260, Note_on_c, 1, 83, 48
7, 82319, Note_on_c, 1, 83, 0
7, 82320, Note_on_c, 1, 81, 48
7, 82544, Note_on_c, 1, 81, 0
7, 82560, Note_on_c, 1, 85, 48
7, 82679, Note_on_c, 1, 85, 0
7, 82680, Note_on_c, 1, 86, 48
7, 82799, Note_on_c, 1, 86, 0
7, 82800, Note_on_c, 1, 81, 48
7, 82919, Note_on_c, 1, 81, 0
7, 82920, Note_on_c, 1, 83, 48
7, 83039, Note_on_c, 1, 83, 0
7, 83040, Note_on_c, 1, 81, 48
7, 83159, Note_on_c, 1, 81, 0
7, 83160, Note_on_c, 1, 78, 48
7, 83279, Note_on_c, 1, 78, 0
7, 83280, Note_on_c, 1, 79, 48
7, 83399, Note_on_c, 1, 79, 0
7, 83400, Note_on_c, 1, 78, 48
7, 83519, Note_on_c, 1, 78, 0
7, 83520, Note_on_c, 1, 74, 48
7, 83639, Note_on_c, 1, 74, 0
7, 83640, Note_on_c, 1, 78, 48
7, 83699, Note_on_c, 1, 78, 0
7, 83700, Note_on_c, 1, 76, 48
7, 83759, Note_on_c, 1, 76, 0
7, 83760, Note_on_c, 1, 74, 48
7, 83879, Note_on_c, 1, 74, 0
7, 86880, Note_on_c, 1, 69, 48
7, 86999, Note_on_c, 1, 69, 0
7, 87000, Note_on_c, 1, 74, 48
7, 87239, Note_on_c, 1, 74, 0
7, 87240, Note_on_c, 1, 78, 48
7, 87359, Note_on_c, 1, 78, 0
7, 87360, Note_on_c, 1, 81, 48
7, 87479, Note_on_c, 1, 81, 0
7, 87480, Note_on_c, 1, 78, 48
7, 87584, Note_on_c, 1, 78, 0
7, 87600, Note_on_c, 1, 78, 48
7, 87719, Note_on_c, 1, 78, 0
7, 87720, Note_on_c, 1, 81, 48
7, 87839, Note_on_c, 1, 81, 0
7, 87840, Note_on_c, 1, 85, 48
7, 87959, Note_on_c, 1, 85, 0
7, 87960, Note_on_c, 1, 86, 48
7, 88019, Note_on_c, 1, 86, 0
7, 88020, Note_on_c, 1, 83, 48
7, 88079, Note_on_c, 1, 83, 0
7, 88080, Note_on_c, 1, 81, 48
7, 88304, Note_on_c, 1, 81, 0
7, 88320, Note_on_c, 1, 85, 48
7, 88439, Note_on_c, 1, 85, 0
7, 88440, Note_on_c, 1, 86, 48
7, 88559, Note_on_c, 1, 86, 0
7, 88560, Note_on_c, 1, 81, 48
7, 88679, Note_on_c, 1, 81, 0
7, 88680, Note_on_c, 1, 83, 48
7, 88799, Note_on_c, 1, 83, 0
7, 88800, Note_on_c, 1, 81, 48
7, 88919, Note_on_c, 1, 81, 0
7, 88920, Note_on_c, 1, 78, 48
7, 89039, Note_on_c, 1, 78, 0
7, 89040, Note_on_c, 1, 79, 48
7, 89159, Note_on_c, 1, 79, 0
7, 89160, Note_on_c, 1, 78, 48
7, 89279, Note_on_c, 1, 78, 0
7, 89280, Note_on_c, 1, 74, 48
7, 89399, Note_on_c, 1, 74, 0
7, 89400, Note_on_c, 1, 78, 48
7, 89459, Note_on_c, 1, 78, 0
7, 89460, Note_on_c, 1, 76, 48
7, 89519, Note_on_c, 1, 76, 0
7, 89520, Note_on_c, 1, 74, 48
7, 89639, Note_on_c, 1, 74, 0
7, 91920, Note_on_c, 1, 72, 44
7, 92009, Note_on_c, 1, 72, 0
7, 92040, Note_on_c, 1, 71, 44
7, 92129, Note_on_c, 1, 71, 0
7, 92160, Note_on_c, 1, 67, 44
7, 92249, Note_on_c, 1, 67, 0
7, 92280, Note_on_c, 1, 69, 44
7, 92369, Note_on_c, 1, 69, 0
7, 92400, Note_on_c, 1, 71, 44
7, 92489, Note_on_c, 1, 71, 0
7, 92520, Note_on_c, 1, 67, 44
7, 92609, Note_on_c, 1, 67, 0
7, 94560, Control_c, 1, 11, 64
7, 94800, Note_on_c, 1, 84, 84
7, 95024, Note_on_c, 1, 84, 0
7, 95040, Note_on_c, 1, 84, 84
7, 95159, Note_on_c, 1, 84, 0
7, 95160, Note_on_c, 1, 83, 84
7, 95279, Note_on_c, 1, 83, 0
7, 95280, Note_on_c, 1, 84, 84
7, 95280, Control_c, 1, 11, 64
7, 95320, Control_c, 1, 11, 66
7, 95360, Control_c, 1, 11, 68
7, 95384, Note_on_c, 1, 84, 0
7, 95400, Note_on_c, 1, 84, 84
7, 95400, Control_c, 1, 11, 69
7, 95440, Control_c, 1, 11, 71
7, 95480, Control_c, 1, 11, 73
7, 95504, Note_on_c, 1, 84, 0
7, 95520, Control_c, 1, 11, 75
7, 95520, Note_on_c, 1, 84, 84
7, 95560, Control_c, 1, 11, 76
7, 95600, Control_c, 1, 11, 78
7, 95624, Note_on_c, 1, 84, 0
7, 95640, Note_on_c, 1, 84, 84
7, 95640, Control_c, 1, 11, 80
7, 95680, Control_c, 1, 11, 82
7, 95720, Control_c, 1, 11, 83
7, 95744, Note_on_c, 1, 84, 0
7, 95760, Control_c, 1, 11, 85
7, 95760, Note_on_c, 1, 84, 84
7, 95800, Control_c, 1, 11, 87
7, 95840, Control_c, 1, 11, 89
7, 95864, Note_on_c, 1, 84, 0
7, 95880, Note_on_c, 1, 84, 84
7, 95880, Control_c, 1, 11, 90
7, 95920, Control_c, 1, 11, 92
7, 95960, Control_c, 1, 11, 94
7, 95984, Note_on_c, 1, 84, 0
7, 96000, Note_on_c, 1, 84, 84
7, 96000, Control_c, 1, 11, 96
7, 96040, Control_c, 1, 11, 97
7, 96080, Control_c, 1, 11, 99
7, 96104, Note_on_c, 1, 84, 0
7, 96120, Control_c, 1, 11, 101
7, 96120, Note_on_c, 1, 84, 84
7, 96160, Control_c, 1, 11, 103
7, 96200, Control_c, 1, 11, 104
7, 96224, Note_on_c, 1, 84, 0
7, 96240, Control_c, 1, 11, 106
7, 96240, Note_on_c, 1, 84, 84
7, 96280, Control_c, 1, 11, 108
7, 96320, Control_c, 1, 11, 110
7, 96344, Note_on_c, 1, 84, 0
7, 96360, Note_on_c, 1, 84, 84
7, 96360, Control_c, 1, 11, 111
7, 96400, Control_c, 1, 11, 113
7, 96440, Control_c, 1, 11, 115
7, 96464, Note_on_c, 1, 84, 0
7, 96480, Note_on_c, 1, 84, 84
7, 96480, Control_c, 1, 11, 117
7, 96520, Control_c, 1, 11, 118
7, 96560, Control_c, 1, 11, 120
7, 96584, Note_on_c, 1, 84, 0
7, 96600, Control_c, 1, 11, 122
7, 96600, Note_on_c, 1, 84, 84
7, 96640, Control_c, 1, 11, 124
7, 96680, Control_c, 1, 11, 125
7, 96704, Note_on_c, 1, 84, 0
7, 96718, Control_c, 1, 11, 127
7, 96720, Note_on_c, 1, 84, 84
7, 96824, Note_on_c, 1, 84, 0
7, 96840, Note_on_c, 1, 84, 84
7, 96944, Note_on_c, 1, 84, 0
7, 96960, Note_on_c, 1, 72, 84
7, 96960, Note_on_c, 1, 84, 84
7, 97064, Note_on_c, 1, 72, 0
7, 97064, Note_on_c, 1, 84, 0
7, 97080, Note_on_c, 1, 89, 84
7, 97080, Note_on_c, 1, 77, 84
7, 97184, Note_on_c, 1, 89, 0
7, 97184, Note_on_c, 1, 77, 0
7, 97200, Note_on_c, 1, 72, 84
7, 97200, Note_on_c, 1, 84, 84
7, 97304, Note_on_c, 1, 72, 0
7, 97304, Note_on_c, 1, 84, 0
7, 97320, Note_on_c, 1, 74, 84
7, 97320, Note_on_c, 1, 86, 84
7, 97424, Note_on_c, 1, 74, 0
7, 97424, Note_on_c, 1, 86, 0
7, 97440, Note_on_c, 1, 84, 84
7, 97440, Note_on_c, 1, 72, 84
7, 97544, Note_on_c, 1, 84, 0
7, 97544, Note_on_c, 1, 72, 0
7, 97560, Note_on_c, 1, 81, 84
7, 97560, Note_on_c, 1, 69, 84
7, 97664, Note_on_c, 1, 81, 0
7, 97664, Note_on_c, 1, 69, 0
7, 97680, Note_on_c, 1, 70, 84
7, 97680, Note_on_c, 1, 82, 84
7, 97784, Note_on_c, 1, 70, 0
7, 97784, Note_on_c, 1, 82, 0
7, 97800, Note_on_c, 1, 81, 92
7, 97800, Note_on_c, 1, 69, 92
7, 97904, Note_on_c, 1, 81, 0
7, 97904, Note_on_c, 1, 69, 0
7, 97920, Note_on_c, 1, 77, 84
7, 97920, Note_on_c, 1, 65, 84
7, 98024, Note_on_c, 1, 77, 0
7, 98024, Note_on_c, 1, 65, 0
7, 98040, Note_on_c, 1, 79, 84
7, 98040, Note_on_c, 1, 67, 84
7, 98144, Note_on_c, 1, 79, 0
7, 98144, Note_on_c, 1, 67, 0
7, 98160, Note_on_c, 1, 69, 92
7, 98160, Note_on_c, 1, 81, 92
7, 98264, Note_on_c, 1, 69, 0
7, 98264, Note_on_c, 1, 81, 0
7, 98280, Note_on_c, 1, 77, 84
7, 98280, Note_on_c, 1, 65, 84
7, 98384, Note_on_c, 1, 77, 0
7, 98384, Note_on_c, 1, 65, 0
7, 98400, Note_on_c, 1, 67, 84
7, 98400, Note_on_c, 1, 79, 84
7, 98504, Note_on_c, 1, 67, 0
7, 98504, Note_on_c, 1, 79, 0
7, 98520, Note_on_c, 1, 81, 92
7, 98520, Note_on_c, 1, 69, 92
7, 98624, Note_on_c, 1, 81, 0
7, 98624, Note_on_c, 1, 69, 0
7, 98640, Note_on_c, 1, 77, 84
7, 98744, Note_on_c, 1, 77, 0
7, 98760, Note_on_c, 1, 79, 84
7, 98864, Note_on_c, 1, 79, 0
7, 98880, Note_on_c, 1, 81, 92
7, 98984, Note_on_c, 1, 81, 0
7, 99000, Note_on_c, 1, 77, 84
7, 99104, Note_on_c, 1, 77, 0
7, 99120, Note_on_c, 1, 79, 84
7, 99224, Note_on_c, 1, 79, 0
7, 99240, Note_on_c, 1, 81, 92
7, 99300, Control_c, 1, 11, 112
7, 99547, Note_on_c, 1, 81, 0
7, 99560, Note_on_c, 1, 79, 92
7, 99579, Note_on_c, 1, 79, 0
7, 99580, Note_on_c, 1, 81, 92
7, 99599, Note_on_c, 1, 81, 0
7, 99600, Note_on_c, 1, 79, 92
7, 99824, Note_on_c, 1, 79, 0
7, 99840, Note_on_c, 1, 77, 92
7, 99907, Note_on_c, 1, 77, 0
7, 99920, Note_on_c, 1, 76, 92
7, 99939, Note_on_c, 1, 76, 0
7, 99940, Note_on_c, 1, 77, 92
7, 99959, Note_on_c, 1, 77, 0
7, 99960, Note_on_c, 1, 76, 92
7, 100184, Note_on_c, 1, 76, 0
7, 100200, Note_on_c, 1, 74, 92
7, 100304, Note_on_c, 1, 74, 0
7, 100320, Note_on_c, 1, 72, 92
7, 100544, Note_on_c, 1, 72, 0
7, 100560, Note_on_c, 1, 76, 92
7, 100664, Note_on_c, 1, 76, 0
7, 100678, Control_c, 1, 11, 127
7, 100680, Note_on_c, 1, 77, 92
7, 100740, Control_c, 1, 11, 112
7, 101024, Note_on_c, 1, 77, 0
7, 101038, Control_c, 1, 11, 127
7, 101040, Note_on_c, 1, 77, 92
7, 101040, Note_on_c, 1, 79, 92
7, 101100, Control_c, 1, 11, 112
7, 101384, Note_on_c, 1, 77, 0
7, 101384, Note_on_c, 1, 79, 0
7, 101398, Control_c, 1, 11, 127
7, 101400, Note_on_c, 1, 81, 92
7, 101400, Note_on_c, 1, 77, 92
7, 101460, Control_c, 1, 11, 112
7, 101744, Note_on_c, 1, 81, 0
7, 101744, Note_on_c, 1, 77, 0
7, 101760, Note_on_c, 1, 76, 92
7, 101760, Note_on_c, 1, 79, 92
7, 102104, Note_on_c, 1, 76, 0
7, 102104, Note_on_c, 1, 79, 0
7, 102120, Note_on_c, 1, 77, 92
7, 102120, Note_on_c, 1, 81, 92
7, 102239, Note_on_c, 1, 77, 0
7, 102239, Note_on_c, 1, 81, 0
7, 102360, Note_on_c, 1, 81, 92
7, 102360, Note_on_c, 1, 93, 92
7, 102464, Note_on_c, 1, 81, 0
7, 102464, Note_on_c, 1, 93, 0
7, 102480, Note_on_c, 1, 91, 92
7, 102480, Note_on_c, 1, 79, 92
7, 102704, Note_on_c, 1, 91, 0
7, 102704, Note_on_c, 1, 79, 0
7, 102720, Note_on_c, 1, 89, 92
7, 102720, Note_on_c, 1, 77, 92
7, 102824, Note_on_c, 1, 89, 0
7, 102824, Note_on_c, 1, 77, 0
7, 102840, Note_on_c, 1, 88, 92
7, 102840, Note_on_c, 1, 76, 92
7, 103064, Note_on_c, 1, 88, 0
7, 103064, Note_on_c, 1, 76, 0
7, 103080, Note_on_c, 1, 74, 92
7, 103080, Note_on_c, 1, 86, 92
7, 103184, Note_on_c, 1, 74, 0
7, 103184, Note_on_c, 1, 86, 0
7, 103200, Note_on_c, 1, 72, 92
7, 103200, Note_on_c, 1, 84, 92
7, 103424, Note_on_c, 1, 72, 0
7, 103424, Note_on_c, 1, 84, 0
7, 103440, Note_on_c, 1, 88, 92
7, 103440, Note_on_c, 1, 84, 92
7, 103544, Note_on_c, 1, 88, 0
7, 103544, Note_on_c, 1, 84, 0
7, 103558, Control_c, 1, 11, 127
7, 103560, Note_on_c, 1, 77, 92
7, 103560, Note_on_c, 1, 89, 92
7, 103620, Control_c, 1, 11, 112
7, 103904, Note_on_c, 1, 77, 0
7, 103904, Note_on_c, 1, 89, 0
7, 103918, Control_c, 1, 11, 127
7, 103920, Note_on_c, 1, 86, 92
7, 103920, Note_on_c, 1, 89, 92
7, 103980, Control_c, 1, 11, 112
7, 104264, Note_on_c, 1, 86, 0
7, 104264, Note_on_c, 1, 89, 0
7, 104278, Control_c, 1, 11, 127
7, 104280, Note_on_c, 1, 84, 92
7, 104280, Note_on_c, 1, 89, 92
7, 104340, Control_c, 1, 11, 112
7, 104624, Note_on_c, 1, 84, 0
7, 104624, Note_on_c, 1, 89, 0
7, 104638, Control_c, 1, 11, 127
7, 104640, Note_on_c, 1, 88, 92
7, 104640, Note_on_c, 1, 84, 92
7, 104700, Control_c, 1, 11, 112
7, 104984, Note_on_c, 1, 88, 0
7, 104984, Note_on_c, 1, 84, 0
7, 104998, Control_c, 1, 11, 127
7, 105000, Note_on_c, 1, 89, 92
7, 105000, Note_on_c, 1, 84, 92
7, 105119, Note_on_c, 1, 89, 0
7, 105119, Note_on_c, 1, 84, 0
7, 106080, Note_on_c, 1, 84, 84
7, 106080, Note_on_c, 1, 88, 84
7, 106184, Note_on_c, 1, 84, 0
7, 106184, Note_on_c, 1, 88, 0
7, 106200, Note_on_c, 1, 84, 84
7, 106200, Note_on_c, 1, 88, 84
7, 106304, Note_on_c, 1, 84, 0
7, 106304, Note_on_c, 1, 88, 0
7, 106320, Note_on_c, 1, 84, 84
7, 106320, Note_on_c, 1, 88, 84
7, 106424, Note_on_c, 1, 84, 0
7, 106424, Note_on_c, 1, 88, 0
7, 106440, Note_on_c, 1, 89, 92
7, 106440, Note_on_c, 1, 84, 92
7, 106559, Note_on_c, 1, 89, 0
7, 106559, Note_on_c, 1, 84, 0
7, 107520, Note_on_c, 1, 84, 84
7, 107520, Note_on_c, 1, 88, 84
7, 107624, Note_on_c, 1, 84, 0
7, 107624, Note_on_c, 1, 88, 0
7, 107640, Note_on_c, 1, 84, 84
7, 107640, Note_on_c, 1, 88, 84
7, 107744, Note_on_c, 1, 84, 0
7, 107744, Note_on_c, 1, 88, 0
7, 107760, Note_on_c, 1, 84, 84
7, 107760, Note_on_c, 1, 88, 84
7, 107864, Note_on_c, 1, 84, 0
7, 107864, Note_on_c, 1, 88, 0
7, 107880, Note_on_c, 1, 89, 92
7, 107880, Note_on_c, 1, 84, 92
7, 107999, Note_on_c, 1, 89, 0
7, 107999, Note_on_c, 1, 84, 0
7, 108600, Note_on_c, 1, 89, 92
7, 108600, Note_on_c, 1, 84, 92
7, 108719, Note_on_c, 1, 89, 0
7, 108719, Note_on_c, 1, 84, 0
7, 141240, Note_on_c, 1, 77, 84
7, 141307, Note_on_c, 1, 77, 0
7, 141320, Note_on_c, 1, 81, 76
7, 141387, Note_on_c, 1, 81, 0
7, 141400, Note_on_c, 1, 82, 76
7, 141467, Note_on_c, 1, 82, 0
7, 141480, Note_on_c, 1, 84, 76
7, 141704, Note_on_c, 1, 84, 0
7, 141720, Note_on_c, 1, 77, 84
7, 141787, Note_on_c, 1, 77, 0
7, 141800, Note_on_c, 1, 81, 76
7, 141867, Note_on_c, 1, 81, 0
7, 141880, Note_on_c, 1, 82, 76
7, 141947, Note_on_c, 1, 82, 0
7, 141960, Note_on_c, 1, 84, 76
7, 142184, Note_on_c, 1, 84, 0
7, 142200, Note_on_c, 1, 77, 84
7, 142200, Note_on_c, 1, 82, 76
7, 142267, Note_on_c, 1, 77, 0
7, 142360, Note_on_c, 1, 84, 76
7, 142427, Note_on_c, 1, 84, 0
7, 142440, Note_on_c, 1, 86, 76
7, 142664, Note_on_c, 1, 82, 0
7, 142664, Note_on_c, 1, 86, 0
7, 142680, Note_on_c, 1, 84, 84
7, 142680, Note_on_c, 1, 81, 84
7, 142919, Note_on_c, 1, 84, 0
7, 142919, Note_on_c, 1, 81, 0
7, 142920, Note_on_c, 1, 82, 76
7, 143144, Note_on_c, 1, 82, 0
7, 143160, Note_on_c, 1, 77, 84
7, 143227, Note_on_c, 1, 77, 0
7, 143240, Note_on_c, 1, 81, 76
7, 143307, Note_on_c, 1, 81, 0
7, 143320, Note_on_c, 1, 82, 76
7, 143387, Note_on_c, 1, 82, 0
7, 143400, Note_on_c, 1, 84, 76
7, 143624, Note_on_c, 1, 84, 0
7, 143640, Note_on_c, 1, 77, 84
7, 143707, Note_on_c, 1, 77, 0
7, 143720, Note_on_c, 1, 81, 76
7, 143787, Note_on_c, 1, 81, 0
7, 143800, Note_on_c, 1, 82, 76
7, 143867, Note_on_c, 1, 82, 0
7, 143880, Note_on_c, 1, 84, 76
7, 144104, Note_on_c, 1, 84, 0
7, 144120, Note_on_c, 1, 82, 76
7, 144120, Note_on_c, 1, 77, 84
7, 144187, Note_on_c, 1, 77, 0
7, 144280, Note_on_c, 1, 84, 76
7, 144347, Note_on_c, 1, 84, 0
7, 144360, Note_on_c, 1, 86, 76
7, 144584, Note_on_c, 1, 82, 0
7, 144584, Note_on_c, 1, 86, 0
7, 144600, Note_on_c, 1, 81, 84
7, 144600, Note_on_c, 1, 84, 84
7, 144839, Note_on_c, 1, 81, 0
7, 144839, Note_on_c, 1, 84, 0
7, 144840, Note_on_c, 1, 82, 76
7, 145079, Note_on_c, 1, 82, 0
7, 146040, Note_on_c, 1, 89, 84
7, 146040, Note_on_c, 1, 84, 84
7, 146100, Control_c, 1, 11, 96
7, 146504, Note_on_c, 1, 89, 0
7, 146504, Note_on_c, 1, 84, 0
7, 146520, Note_on_c, 1, 88, 84
7, 146520, Note_on_c, 1, 84, 84
7, 146744, Note_on_c, 1, 88, 0
7, 146744, Note_on_c, 1, 84, 0
7, 146760, Note_on_c, 1, 84, 84
7, 146760, Note_on_c, 1, 89, 84
7, 146999, Note_on_c, 1, 84, 0
7, 146999, Note_on_c, 1, 89, 0
7, 147720, Control_c, 1, 11, 127
7, 147960, Note_on_c, 1, 89, 84
7, 147960, Note_on_c, 1, 84, 84
7, 148020, Control_c, 1, 11, 96
7, 148424, Note_on_c, 1, 89, 0
7, 148424, Note_on_c, 1, 84, 0
7, 148440, Note_on_c, 1, 84, 84
7, 148440, Note_on_c, 1, 88, 84
7, 148664, Note_on_c, 1, 84, 0
7, 148664, Note_on_c, 1, 88, 0
7, 148680, Note_on_c, 1, 89, 84
7, 148680, Note_on_c, 1, 84, 84
7, 148919, Note_on_c, 1, 89, 0
7, 148919, Note_on_c, 1, 84, 0
7, 149640, Control_c, 1, 11, 127
7, 149760, Note_on_c, 1, 89, 84
7, 149760, Note_on_c, 1, 93, 84
7, 149864, Note_on_c, 1, 89, 0
7, 149864, Note_on_c, 1, 93, 0
7, 149880, Note_on_c, 1, 88, 84
7, 149880, Note_on_c, 1, 91, 84
7, 149999, Note_on_c, 1, 88, 0
7, 149999, Note_on_c, 1, 91, 0
7, 150120, Note_on_c, 1, 89, 84
7, 150120, Note_on_c, 1, 86, 84
7, 150239, Note_on_c, 1, 89, 0
7, 150239, Note_on_c, 1, 86, 0
7, 150360, Note_on_c, 1, 88, 84
7, 150360, Note_on_c, 1, 84, 84
7, 150479, Note_on_c, 1, 88, 0
7, 150479, Note_on_c, 1, 84, 0
7, 150600, Note_on_c, 1, 86, 84
7, 150600, Note_on_c, 1, 83, 84
7, 150719, Note_on_c, 1, 86, 0
7, 150719, Note_on_c, 1, 83, 0
7, 150840, Note_on_c, 1, 84, 84
7, 150959, Note_on_c, 1, 84, 0
7, 151680, Note_on_c, 1, 89, 84
7, 151680, Note_on_c, 1, 93, 84
7, 151799, Note_on_c, 1, 89, 0
7, 151799, Note_on_c, 1, 93, 0
7, 151920, Note_on_c, 1, 88, 84
7, 151920, Note_on_c, 1, 91, 84
7, 152039, Note_on_c, 1, 88, 0
7, 152039, Note_on_c, 1, 91, 0
7, 152160, Note_on_c, 1, 86, 84
7, 152160, Note_on_c, 1, 89, 84
7, 152279, Note_on_c, 1, 86, 0
7, 152279, Note_on_c, 1, 89, 0
7, 152400, Note_on_c, 1, 88, 84
7, 152400, Note_on_c, 1, 84, 84
7, 152519, Note_on_c, 1, 88, 0
7, 152519, Note_on_c, 1, 84, 0
7, 152640, Note_on_c, 1, 83, 84
7, 152640, Note_on_c, 1, 86, 84
7, 152744, Note_on_c, 1, 83, 0
7, 152744, Note_on_c, 1, 86, 0
7, 152758, Control_c, 1, 11, 112
7, 152760, Note_on_c, 1, 84, 92
7, 152760, Control_c, 1, 11, 112
7, 152760, Note_on_c, 1, 76, 92
7, 152952, Control_c, 1, 11, 113
7, 153104, Note_on_c, 1, 84, 0
7, 153104, Note_on_c, 1, 76, 0
7, 153120, Note_on_c, 1, 84, 92
7, 153120, Note_on_c, 1, 76, 92
7, 153144, Control_c, 1, 11, 114
7, 153224, Note_on_c, 1, 84, 0
7, 153224, Note_on_c, 1, 76, 0
7, 153240, Note_on_c, 1, 84, 92
7, 153240, Note_on_c, 1, 76, 92
7, 153336, Control_c, 1, 11, 115
7, 153528, Control_c, 1, 11, 116
7, 153584, Note_on_c, 1, 84, 0
7, 153584, Note_on_c, 1, 76, 0
7, 153600, Note_on_c, 1, 84, 92
7, 153600, Note_on_c, 1, 76, 92
7, 153704, Note_on_c, 1, 84, 0
7, 153704, Note_on_c, 1, 76, 0
7, 153720, Note_on_c, 1, 76, 92
7, 153720, Note_on_c, 1, 84, 92
7, 153720, Control_c, 1, 11, 117
7, 153912, Control_c, 1, 11, 118
7, 154064, Note_on_c, 1, 76, 0
7, 154064, Note_on_c, 1, 84, 0
7, 154080, Note_on_c, 1, 76, 92
7, 154080, Note_on_c, 1, 84, 92
7, 154104, Control_c, 1, 11, 119
7, 154184, Note_on_c, 1, 76, 0
7, 154184, Note_on_c, 1, 84, 0
7, 154200, Note_on_c, 1, 84, 92
7, 154200, Note_on_c, 1, 76, 92
7, 154296, Control_c, 1, 11, 120
7, 154488, Control_c, 1, 11, 121
7, 154544, Note_on_c, 1, 84, 0
7, 154544, Note_on_c, 1, 76, 0
7, 154560, Note_on_c, 1, 84, 92
7, 154560, Note_on_c, 1, 76, 92
7, 154664, Note_on_c, 1, 84, 0
7, 154664, Note_on_c, 1, 76, 0
7, 154680, Control_c, 1, 11, 122
7, 154680, Note_on_c, 1, 84, 92
7, 154680, Note_on_c, 1, 76, 92
7, 154784, Note_on_c, 1, 84, 0
7, 154784, Note_on_c, 1, 76, 0
7, 154800, Note_on_c, 1, 84, 92
7, 154800, Note_on_c, 1, 76, 92
7, 154872, Control_c, 1, 11, 123
7, 154904, Note_on_c, 1, 84, 0
7, 154904, Note_on_c, 1, 76, 0
7, 154920, Note_on_c, 1, 84, 92
7, 154920, Note_on_c, 1, 76, 92
7, 155024, Note_on_c, 1, 84, 0
7, 155024, Note_on_c, 1, 76, 0
7, 155040, Note_on_c, 1, 88, 92
7, 155040, Note_on_c, 1, 84, 92
7, 155064, Control_c, 1, 11, 124
7, 155144, Note_on_c, 1, 88, 0
7, 155144, Note_on_c, 1, 84, 0
7, 155160, Note_on_c, 1, 84, 92
7, 155160, Note_on_c, 1, 88, 92
7, 155256, Control_c, 1, 11, 125
7, 155264, Note_on_c, 1, 84, 0
7, 155264, Note_on_c, 1, 88, 0
7, 155280, Note_on_c, 1, 84, 92
7, 155280, Note_on_c, 1, 88, 92
7, 155384, Note_on_c, 1, 84, 0
7, 155384, Note_on_c, 1, 88, 0
7, 155400, Note_on_c, 1, 88, 92
7, 155400, Note_on_c, 1, 84, 92
7, 155448, Control_c, 1, 11, 127
7, 155504, Note_on_c, 1, 88, 0
7, 155504, Note_on_c, 1, 84, 0
7, 155520, Note_on_c, 1, 88, 92
7, 155520, Note_on_c, 1, 84, 92
7, 155624, Note_on_c, 1, 88, 0
7, 155624, Note_on_c, 1, 84, 0
7, 155640, Note_on_c, 1, 88, 84
7, 155640, Note_on_c, 1, 84, 84
7, 155759, Note_on_c, 1, 88, 0
7, 155759, Note_on_c, 1, 84, 0
7, 156120, Note_on_c, 1, 84, 52
7, 156120, Note_on_c, 1, 76, 52
7, 156239, Note_on_c, 1, 84, 0
7, 156239, Note_on_c, 1, 76, 0
7, 162960, Note_on_c, 1, 72, 48
7, 163079, Note_on_c, 1, 72, 0
7, 163080, Note_on_c, 1, 77, 48
7, 163319, Note_on_c, 1, 77, 0
7, 163320, Note_on_c, 1, 81, 48
7, 163439, Note_on_c, 1, 81, 0
7, 163440, Note_on_c, 1, 84, 48
7, 163559, Note_on_c, 1, 84, 0
7, 163560, Note_on_c, 1, 81, 48
7, 163664, Note_on_c, 1, 81, 0
7, 163680, Note_on_c, 1, 81, 48
7, 163799, Note_on_c, 1, 81, 0
7, 163800, Note_on_c, 1, 84, 48
7, 163919, Note_on_c, 1, 84, 0
7, 163920, Note_on_c, 1, 88, 48
7, 164039, Note_on_c, 1, 88, 0
7, 164040, Note_on_c, 1, 89, 48
7, 164099, Note_on_c, 1, 89, 0
7, 164100, Note_on_c, 1, 86, 48
7, 164159, Note_on_c, 1, 86, 0
7, 164160, Note_on_c, 1, 84, 48
7, 164399, Note_on_c, 1, 84, 0
7, 164400, Note_on_c, 1, 88, 48
7, 164519, Note_on_c, 1, 88, 0
7, 164520, Note_on_c, 1, 89, 48
7, 164639, Note_on_c, 1, 89, 0
7, 164640, Note_on_c, 1, 84, 48
7, 164759, Note_on_c, 1, 84, 0
7, 164760, Note_on_c, 1, 86, 48
7, 164879, Note_on_c, 1, 86, 0
7, 164880, Note_on_c, 1, 84, 48
7, 164999, Note_on_c, 1, 84, 0
7, 165000, Note_on_c, 1, 81, 48
7, 165119, Note_on_c, 1, 81, 0
7, 165120, Note_on_c, 1, 82, 48
7, 165239, Note_on_c, 1, 82, 0
7, 165240, Note_on_c, 1, 81, 48
7, 165359, Note_on_c, 1, 81, 0
7, 165360, Note_on_c, 1, 77, 48
7, 165479, Note_on_c, 1, 77, 0
7, 165480, Note_on_c, 1, 79, 48
7, 165599, Note_on_c, 1, 79, 0
7, 165600, Note_on_c, 1, 81, 48
7, 165719, Note_on_c, 1, 81, 0
7, 165720, Note_on_c, 1, 77, 48
7, 165839, Note_on_c, 1, 77, 0
7, 167280, Note_on_c, 1, 84, 84
7, 167280, Note_on_c, 1, 72, 84
7, 167369, Note_on_c, 1, 84, 0
7, 167369, Note_on_c, 1, 72, 0
7, 167400, Note_on_c, 1, 89, 84
7, 167400, Note_on_c, 1, 77, 84
7, 167489, Note_on_c, 1, 89, 0
7, 167489, Note_on_c, 1, 77, 0
7, 167520, Note_on_c, 1, 72, 84
7, 167520, Note_on_c, 1, 84, 84
7, 167609, Note_on_c, 1, 72, 0
7, 167609, Note_on_c, 1, 84, 0
7, 167640, Note_on_c, 1, 86, 84
7, 167640, Note_on_c, 1, 74, 84
7, 167729, Note_on_c, 1, 86, 0
7, 167729, Note_on_c, 1, 74, 0
7, 167760, Note_on_c, 1, 72, 84
7, 167760, Note_on_c, 1, 84, 84
7, 167849, Note_on_c, 1, 72, 0
7, 167849, Note_on_c, 1, 84, 0
7, 167880, Note_on_c, 1, 81, 84
7, 167880, Note_on_c, 1, 69, 84
7, 167969, Note_on_c, 1, 81, 0
7, 167969, Note_on_c, 1, 69, 0
7, 168000, Note_on_c, 1, 82, 84
7, 168000, Note_on_c, 1, 70, 84
7, 168089, Note_on_c, 1, 82, 0
7, 168089, Note_on_c, 1, 70, 0
7, 168120, Note_on_c, 1, 69, 92
7, 168120, Note_on_c, 1, 81, 92
7, 168209, Note_on_c, 1, 69, 0
7, 168209, Note_on_c, 1, 81, 0
7, 168240, Note_on_c, 1, 77, 84
7, 168240, Note_on_c, 1, 65, 84
7, 168329, Note_on_c, 1, 77, 0
7, 168329, Note_on_c, 1, 65, 0
7, 168360, Note_on_c, 1, 67, 84
7, 168360, Note_on_c, 1, 79, 84
7, 168449, Note_on_c, 1, 67, 0
7, 168449, Note_on_c, 1, 79, 0
7, 168480, Note_on_c, 1, 81, 92
7, 168480, Note_on_c, 1, 69, 92
7, 168569, Note_on_c, 1, 81, 0
7, 168569, Note_on_c, 1, 69, 0
7, 168600, Note_on_c, 1, 77, 84
7, 168600, Note_on_c, 1, 65, 84
7, 168689, Note_on_c, 1, 77, 0
7, 168689, Note_on_c, 1, 65, 0
7, 168720, Note_on_c, 1, 79, 84
7, 168720, Note_on_c, 1, 67, 84
7, 168809, Note_on_c, 1, 79, 0
7, 168809, Note_on_c, 1, 67, 0
7, 168840, Note_on_c, 1, 81, 92
7, 168840, Note_on_c, 1, 69, 92
7, 168929, Note_on_c, 1, 81, 0
7, 168929, Note_on_c, 1, 69, 0
7, 168960, Note_on_c, 1, 77, 84
7, 169049, Note_on_c, 1, 77, 0
7, 169080, Note_on_c, 1, 79, 84
7, 169169, Note_on_c, 1, 79, 0
7, 169200, Note_on_c, 1, 81, 92
7, 169289, Note_on_c, 1, 81, 0
7, 169320, Note_on_c, 1, 77, 84
7, 169409, Note_on_c, 1, 77, 0
7, 169440, Note_on_c, 1, 79, 84
7, 169529, Note_on_c, 1, 79, 0
7, 169560, Note_on_c, 1, 81, 92
7, 169620, Control_c, 1, 11, 112
7, 169844, Note_on_c, 1, 81, 0
7, 169860, Note_on_c, 1, 79, 92
7, 169889, Note_on_c, 1, 79, 0
7, 169890, Note_on_c, 1, 81, 92
7, 169919, Note_on_c, 1, 81, 0
7, 169920, Note_on_c, 1, 79, 92
7, 170139, Note_on_c, 1, 79, 0
7, 170160, Note_on_c, 1, 77, 92
7, 170211, Note_on_c, 1, 77, 0
7, 170220, Note_on_c, 1, 76, 92
7, 170249, Note_on_c, 1, 76, 0
7, 170250, Note_on_c, 1, 77, 92
7, 170279, Note_on_c, 1, 77, 0
7, 170280, Note_on_c, 1, 76, 92
7, 170499, Note_on_c, 1, 76, 0
7, 170520, Note_on_c, 1, 74, 92
7, 170619, Note_on_c, 1, 74, 0
7, 170640, Note_on_c, 1, 72, 92
7, 170859, Note_on_c, 1, 72, 0
7, 170880, Note_on_c, 1, 76, 92
7, 170979, Note_on_c, 1, 76, 0
7, 170998, Control_c, 1, 11, 127
7, 171000, Note_on_c, 1, 77, 92
7, 171060, Control_c, 1, 11, 112
7, 171339, Note_on_c, 1, 77, 0
7, 171358, Control_c, 1, 11, 127
7, 171360, Note_on_c, 1, 77, 92
7, 171360, Note_on_c, 1, 79, 92
7, 171420, Control_c, 1, 11, 112
7, 171699, Note_on_c, 1, 77, 0
7, 171699, Note_on_c, 1, 79, 0
7, 171718, Control_c, 1, 11, 127
7, 171720, Note_on_c, 1, 81, 92
7, 171720, Note_on_c, 1, 77, 92
7, 171780, Control_c, 1, 11, 112
7, 172059, Note_on_c, 1, 81, 0
7, 172059, Note_on_c, 1, 77, 0
7, 172080, Note_on_c, 1, 79, 92
7, 172080, Note_on_c, 1, 76, 92
7, 172419, Note_on_c, 1, 79, 0
7, 172419, Note_on_c, 1, 76, 0
7, 172438, Control_c, 1, 11, 127
7, 172440, Note_on_c, 1, 77, 84
7, 172440, Note_on_c, 1, 81, 84
7, 172559, Note_on_c, 1, 77, 0
7, 172559, Note_on_c, 1, 81, 0
7, 172680, Note_on_c, 1, 93, 84
7, 172680, Note_on_c, 1, 81, 84
7, 172769, Note_on_c, 1, 93, 0
7, 172769, Note_on_c, 1, 81, 0
7, 172800, Note_on_c, 1, 79, 84
7, 172800, Note_on_c, 1, 91, 84
7, 173019, Note_on_c, 1, 79, 0
7, 173019, Note_on_c, 1, 91, 0
7, 173040, Note_on_c, 1, 77, 84
7, 173040, Note_on_c, 1, 89, 84
7, 173139, Note_on_c, 1, 77, 0
7, 173139, Note_on_c, 1, 89, 0
7, 173160, Note_on_c, 1, 88, 84
7, 173160, Note_on_c, 1, 76, 84
7, 173379, Note_on_c, 1, 88, 0
7, 173379, Note_on_c, 1, 76, 0
7, 173400, Note_on_c, 1, 74, 84
7, 173400, Note_on_c, 1, 86, 84
7, 173499, Note_on_c, 1, 74, 0
7, 173499, Note_on_c, 1, 86, 0
7, 173520, Note_on_c, 1, 72, 84
7, 173520, Note_on_c, 1, 84, 84
7, 173739, Note_on_c, 1, 72, 0
7, 173739, Note_on_c, 1, 84, 0
7, 173760, Note_on_c, 1, 88, 84
7, 173760, Note_on_c, 1, 84, 84
7, 173859, Note_on_c, 1, 88, 0
7, 173859, Note_on_c, 1, 84, 0
7, 173880, Note_on_c, 1, 77, 92
7, 173880, Note_on_c, 1, 89, 92
7, 173940, Control_c, 1, 11, 112
7, 174219, Note_on_c, 1, 77, 0
7, 174219, Note_on_c, 1, 89, 0
7, 174238, Control_c, 1, 11, 127
7, 174240, Note_on_c, 1, 86, 92
7, 174240, Note_on_c, 1, 89, 92
7, 174300, Control_c, 1, 11, 112
7, 174579, Note_on_c, 1, 86, 0
7, 174579, Note_on_c, 1, 89, 0
7, 174598, Control_c, 1, 11, 127
7, 174600, Note_on_c, 1, 84, 92
7, 174600, Note_on_c, 1, 89, 92
7, 174660, Control_c, 1, 11, 112
7, 174939, Note_on_c, 1, 84, 0
7, 174939, Note_on_c, 1, 89, 0
7, 174958, Control_c, 1, 11, 127
7, 174960, Note_on_c, 1, 84, 92
7, 174960, Note_on_c, 1, 88, 92
7, 175020, Control_c, 1, 11, 112
7, 175299, Note_on_c, 1, 84, 0
7, 175299, Note_on_c, 1, 88, 0
7, 175318, Control_c, 1, 11, 127
7, 175320, Note_on_c, 1, 89, 92
7, 175320, Note_on_c, 1, 84, 92
7, 175439, Note_on_c, 1, 89, 0
7, 175439, Note_on_c, 1, 84, 0
7, 176400, Note_on_c, 1, 88, 84
7, 176400, Note_on_c, 1, 84, 84
7, 176499, Note_on_c, 1, 88, 0
7, 176499, Note_on_c, 1, 84, 0
7, 176520, Note_on_c, 1, 88, 84
7, 176520, Note_on_c, 1, 84, 84
7, 176619, Note_on_c, 1, 88, 0
7, 176619, Note_on_c, 1, 84, 0
7, 176640, Note_on_c, 1, 88, 84
7, 176640, Note_on_c, 1, 84, 84
7, 176739, Note_on_c, 1, 88, 0
7, 176739, Note_on_c, 1, 84, 0
7, 176760, Note_on_c, 1, 89, 92
7, 176760, Note_on_c, 1, 84, 92
7, 176879, Note_on_c, 1, 89, 0
7, 176879, Note_on_c, 1, 84, 0
7, 177840, Note_on_c, 1, 88, 84
7, 177840, Note_on_c, 1, 84, 84
7, 177939, Note_on_c, 1, 88, 0
7, 177939, Note_on_c, 1, 84, 0
7, 177960, Note_on_c, 1, 88, 84
7, 177960, Note_on_c, 1, 84, 84
7, 178059, Note_on_c, 1, 88, 0
7, 178059, Note_on_c, 1, 84, 0
7, 178080, Note_on_c, 1, 88, 84
7, 178080, Note_on_c, 1, 84, 84
7, 178199, Note_on_c, 1, 88, 0
7, 178199, Note_on_c, 1, 84, 0
7, 178199, End_track
8, 0, Start_track
8, 0, Title_t, "Oboe"
8, 0, MIDI_port, 0
8, 0, Program_c, 2, 68
8, 0, Control_c, 2, 7, 80
8, 0, Control_c, 2, 10, 70
8, 0, Control_c, 2, 11, 127
8, 4560, Note_on_c, 2, 78, 48
8, 4679, Note_on_c, 2, 78, 0
8, 4680, Note_on_c, 2, 79, 48
8, 4799, Note_on_c, 2, 79, 0
8, 4800, Note_on_c, 2, 78, 48
8, 4919, Note_on_c, 2, 78, 0
8, 4920, Note_on_c, 2, 74, 48
8, 5024, Note_on_c, 2, 74, 0
8, 5040, Note_on_c, 2, 74, 48
8, 5264, Note_on_c, 2, 74, 0
8, 5280, Note_on_c, 2, 74, 48
8, 5399, Note_on_c, 2, 74, 0
8, 5400, Note_on_c, 2, 73, 48
8, 5519, Note_on_c, 2, 73, 0
8, 5520, Note_on_c, 2, 74, 48
8, 5639, Note_on_c, 2, 74, 0
8, 10320, Note_on_c, 2, 78, 48
8, 10439, Note_on_c, 2, 78, 0
8, 10440, Note_on_c, 2, 79, 48
8, 10559, Note_on_c, 2, 79, 0
8, 10560, Note_on_c, 2, 78, 48
8, 10679, Note_on_c, 2, 78, 0
8, 10680, Note_on_c, 2, 74, 48
8, 10784, Note_on_c, 2, 74, 0
8, 10800, Note_on_c, 2, 74, 48
8, 11024, Note_on_c, 2, 74, 0
8, 11040, Note_on_c, 2, 74, 48
8, 11159, Note_on_c, 2, 74, 0
8, 11160, Note_on_c, 2, 73, 48
8, 11279, Note_on_c, 2, 73, 0
8, 11280, Note_on_c, 2, 74, 48
8, 11399, Note_on_c, 2, 74, 0
8, 12240, Note_on_c, 2, 79, 44
8, 12329, Note_on_c, 2, 79, 0
8, 12360, Note_on_c, 2, 78, 44
8, 12449, Note_on_c, 2, 78, 0
8, 12480, Note_on_c, 2, 74, 44
8, 12569, Note_on_c, 2, 74, 0
8, 12600, Note_on_c, 2, 76, 44
8, 12689, Note_on_c, 2, 76, 0
8, 12720, Note_on_c, 2, 78, 44
8, 12809, Note_on_c, 2, 78, 0
8, 12840, Note_on_c, 2, 74, 44
8, 12929, Note_on_c, 2, 74, 0
8, 14400, Note_on_c, 2, 67, 48
8, 14519, Note_on_c, 2, 67, 0
8, 14520, Note_on_c, 2, 72, 48
8, 14759, Note_on_c, 2, 72, 0
8, 14760, Note_on_c, 2, 76, 48
8, 14879, Note_on_c, 2, 76, 0
8, 14880, Note_on_c, 2, 79, 48
8, 14999, Note_on_c, 2, 79, 0
8, 15000, Note_on_c, 2, 76, 48
8, 15104, Note_on_c, 2, 76, 0
8, 15120, Note_on_c, 2, 76, 48
8, 15239, Note_on_c, 2, 76, 0
8, 15240, Note_on_c, 2, 79, 48
8, 15359, Note_on_c, 2, 79, 0
8, 15360, Note_on_c, 2, 83, 48
8, 15479, Note_on_c, 2, 83, 0
8, 15480, Note_on_c, 2, 84, 48
8, 15539, Note_on_c, 2, 84, 0
8, 15540, Note_on_c, 2, 81, 48
8, 15599, Note_on_c, 2, 81, 0
8, 15600, Note_on_c, 2, 79, 48
8, 15824, Note_on_c, 2, 79, 0
8, 15840, Note_on_c, 2, 83, 48
8, 15959, Note_on_c, 2, 83, 0
8, 15960, Note_on_c, 2, 84, 48
8, 16079, Note_on_c, 2, 84, 0
8, 16080, Note_on_c, 2, 79, 48
8, 16199, Note_on_c, 2, 79, 0
8, 16200, Note_on_c, 2, 81, 52
8, 16200, Note_on_c, 2, 77, 52
8, 16319, Note_on_c, 2, 81, 0
8, 16319, Note_on_c, 2, 77, 0
8, 16320, Note_on_c, 2, 79, 52
8, 16320, Note_on_c, 2, 76, 52
8, 16439, Note_on_c, 2, 79, 0
8, 16439, Note_on_c, 2, 76, 0
8, 16440, Note_on_c, 2, 72, 52
8, 16440, Note_on_c, 2, 76, 52
8, 16544, Note_on_c, 2, 72, 0
8, 16559, Note_on_c, 2, 76, 0
8, 16560, Note_on_c, 2, 72, 52
8, 16560, Note_on_c, 2, 77, 52
8, 16664, Note_on_c, 2, 72, 0
8, 16679, Note_on_c, 2, 77, 0
8, 16680, Note_on_c, 2, 72, 52
8, 16680, Note_on_c, 2, 76, 52
8, 16799, Note_on_c, 2, 72, 0
8, 16799, Note_on_c, 2, 76, 0
8, 16800, Note_on_c, 2, 72, 52
8, 16800, Note_on_c, 2, 67, 52
8, 16919, Note_on_c, 2, 72, 0
8, 16919, Note_on_c, 2, 67, 0
8, 16920, Note_on_c, 2, 71, 52
8, 16920, Note_on_c, 2, 74, 52
8, 17039, Note_on_c, 2, 71, 0
8, 17039, Note_on_c, 2, 74, 0
8, 17040, Note_on_c, 2, 72, 52
8, 17040, Note_on_c, 2, 76, 52
8, 17159, Note_on_c, 2, 72, 0
8, 17159, Note_on_c, 2, 76, 0
8, 17160, Note_on_c, 2, 64, 52
8, 17160, Note_on_c, 2, 72, 52
8, 17279, Note_on_c, 2, 64, 0
8, 17279, Note_on_c, 2, 72, 0
8, 17970, Control_c, 2, 11, 97
8, 18000, Note_on_c, 2, 72, 84
8, 18000, Control_c, 2, 11, 99
8, 18000, Note_on_c, 2, 84, 84
8, 18030, Control_c, 2, 11, 101
8, 18060, Control_c, 2, 11, 103
8, 18090, Control_c, 2, 11, 104
8, 18104, Note_on_c, 2, 72, 0
8, 18104, Note_on_c, 2, 84, 0
8, 18120, Note_on_c, 2, 72, 84
8, 18120, Control_c, 2, 11, 106
8, 18120, Note_on_c, 2, 84, 84
8, 18150, Control_c, 2, 11, 108
8, 18180, Control_c, 2, 11, 110
8, 18210, Control_c, 2, 11, 111
8, 18224, Note_on_c, 2, 72, 0
8, 18224, Note_on_c, 2, 84, 0
8, 18240, Control_c, 2, 11, 113
8, 18240, Note_on_c, 2, 84, 84
8, 18240, Note_on_c, 2, 72, 84
8, 18270, Control_c, 2, 11, 115
8, 18300, Control_c, 2, 11, 117
8, 18330, Control_c, 2, 11, 118
8, 18344, Note_on_c, 2, 84, 0
8, 18344, Note_on_c, 2, 72, 0
8, 18360, Note_on_c, 2, 72, 84
8, 18360, Note_on_c, 2, 84, 84
8, 18360, Control_c, 2, 11, 120
8, 18390, Control_c, 2, 11, 122
8, 18420, Control_c, 2, 11, 124
8, 18450, Control_c, 2, 11, 125
8, 18464, Note_on_c, 2, 72, 0
8, 18464, Note_on_c, 2, 84, 0
8, 18478, Control_c, 2, 11, 127
8, 18480, Note_on_c, 2, 72, 84
8, 18480, Note_on_c, 2, 84, 84
8, 18584, Note_on_c, 2, 72, 0
8, 18584, Note_on_c, 2, 84, 0
8, 18600, Note_on_c, 2, 84, 84
8, 18600, Note_on_c, 2, 72, 84
8, 18704, Note_on_c, 2, 84, 0
8, 18704, Note_on_c, 2, 72, 0
8, 18720, Note_on_c, 2, 72, 84
8, 18824, Note_on_c, 2, 72, 0
8, 18840, Note_on_c, 2, 77, 84
8, 18944, Note_on_c, 2, 77, 0
8, 18960, Note_on_c, 2, 72, 84
8, 19064, Note_on_c, 2, 72, 0
8, 19080, Note_on_c, 2, 74, 84
8, 19184, Note_on_c, 2, 74, 0
8, 19200, Note_on_c, 2, 72, 84
8, 19304, Note_on_c, 2, 72, 0
8, 19320, Note_on_c, 2, 69, 84
8, 19320, Note_on_c, 2, 81, 84
8, 19424, Note_on_c, 2, 69, 0
8, 19424, Note_on_c, 2, 81, 0
8, 19440, Note_on_c, 2, 82, 84
8, 19440, Note_on_c, 2, 70, 84
8, 19544, Note_on_c, 2, 82, 0
8, 19544, Note_on_c, 2, 70, 0
8, 19560, Note_on_c, 2, 69, 92
8, 19560, Note_on_c, 2, 81, 92
8, 19664, Note_on_c, 2, 69, 0
8, 19664, Note_on_c, 2, 81, 0
8, 19680, Note_on_c, 2, 77, 84
8, 19680, Note_on_c, 2, 65, 84
8, 19784, Note_on_c, 2, 77, 0
8, 19784, Note_on_c, 2, 65, 0
8, 19800, Note_on_c, 2, 79, 84
8, 19800, Note_on_c, 2, 67, 84
8, 19904, Note_on_c, 2, 79, 0
8, 19904, Note_on_c, 2, 67, 0
8, 19920, Note_on_c, 2, 81, 92
8, 19920, Note_on_c, 2, 69, 92
8, 20024, Note_on_c, 2, 81, 0
8, 20024, Note_on_c, 2, 69, 0
8, 20040, Note_on_c, 2, 77, 84
8, 20040, Note_on_c, 2, 65, 84
8, 20144, Note_on_c, 2, 77, 0
8, 20144, Note_on_c, 2, 65, 0
8, 20160, Note_on_c, 2, 79, 84
8, 20160, Note_on_c, 2, 67, 84
8, 20264, Note_on_c, 2, 79, 0
8, 20264, Note_on_c, 2, 67, 0
8, 20280, Note_on_c, 2, 81, 92
8, 20280, Note_on_c, 2, 69, 92
8, 20384, Note_on_c, 2, 81, 0
8, 20384, Note_on_c, 2, 69, 0
8, 20400, Note_on_c, 2, 65, 84
8, 20400, Note_on_c, 2, 77, 84
8, 20504, Note_on_c, 2, 65, 0
8, 20504, Note_on_c, 2, 77, 0
8, 20520, Note_on_c, 2, 67, 84
8, 20520, Note_on_c, 2, 79, 84
8, 20624, Note_on_c, 2, 67, 0
8, 20624, Note_on_c, 2, 79, 0
8, 20640, Note_on_c, 2, 81, 92
8, 20640, Note_on_c, 2, 69, 92
8, 20744, Note_on_c, 2, 81, 0
8, 20744, Note_on_c, 2, 69, 0
8, 20760, Note_on_c, 2, 77, 84
8, 20760, Note_on_c, 2, 65, 84
8, 20864, Note_on_c, 2, 77, 0
8, 20864, Note_on_c, 2, 65, 0
8, 20880, Note_on_c, 2, 79, 84
8, 20880, Note_on_c, 2, 67, 84
8, 20984, Note_on_c, 2, 79, 0
8, 20984, Note_on_c, 2, 67, 0
8, 21000, Note_on_c, 2, 81, 92
8, 21000, Note_on_c, 2, 69, 92
8, 21060, Control_c, 2, 11, 112
8, 21307, Note_on_c, 2, 81, 0
8, 21307, Note_on_c, 2, 69, 0
8, 21320, Note_on_c, 2, 79, 92
8, 21339, Note_on_c, 2, 79, 0
8, 21340, Note_on_c, 2, 81, 92
8, 21359, Note_on_c, 2, 81, 0
8, 21360, Note_on_c, 2, 67, 92
8, 21360, Note_on_c, 2, 79, 92
8, 21584, Note_on_c, 2, 67, 0
8, 21584, Note_on_c, 2, 79, 0
8, 21600, Note_on_c, 2, 77, 92
8, 21600, Note_on_c, 2, 65, 92
8, 21667, Note_on_c, 2, 77, 0
8, 21667, Note_on_c, 2, 65, 0
8, 21680, Note_on_c, 2, 76, 92
8, 21699, Note_on_c, 2, 76, 0
8, 21700, Note_on_c, 2, 77, 92
8, 21719, Note_on_c, 2, 77, 0
8, 21720, Note_on_c, 2, 64, 92
8, 21720, Note_on_c, 2, 76, 92
8, 21944, Note_on_c, 2, 64, 0
8, 21944, Note_on_c, 2, 76, 0
8, 21960, Note_on_c, 2, 62, 92
8, 21960, Note_on_c, 2, 74, 92
8, 22064, Note_on_c, 2, 62, 0
8, 22064, Note_on_c, 2, 74, 0
8, 22080, Note_on_c, 2, 72, 92
8, 22080, Note_on_c, 2, 60, 92
8, 22304, Note_on_c, 2, 72, 0
8, 22304, Note_on_c, 2, 60, 0
8, 22320, Note_on_c, 2, 72, 92
8, 22320, Note_on_c, 2, 76, 92
8, 22424, Note_on_c, 2, 72, 0
8, 22424, Note_on_c, 2, 76, 0
8, 22438, Control_c, 2, 11, 127
8, 22440, Note_on_c, 2, 77, 92
8, 22440, Note_on_c, 2, 72, 92
8, 22500, Control_c, 2, 11, 112
8, 22784, Note_on_c, 2, 77, 0
8, 22784, Note_on_c, 2, 72, 0
8, 22798, Control_c, 2, 11, 127
8, 22800, Note_on_c, 2, 67, 92
8, 22800, Note_on_c, 2, 77, 92
8, 22860, Control_c, 2, 11, 112
8, 23144, Note_on_c, 2, 67, 0
8, 23144, Note_on_c, 2, 77, 0
8, 23158, Control_c, 2, 11, 127
8, 23160, Note_on_c, 2, 69, 92
8, 23160, Note_on_c, 2, 77, 92
8, 23220, Control_c, 2, 11, 112
8, 23504, Note_on_c, 2, 69, 0
8, 23504, Note_on_c, 2, 77, 0
8, 23520, Note_on_c, 2, 72, 92
8, 23520, Note_on_c, 2, 76, 92
8, 23864, Note_on_c, 2, 72, 0
8, 23864, Note_on_c, 2, 76, 0
8, 23880, Note_on_c, 2, 77, 92
8, 23880, Note_on_c, 2, 72, 92
8, 23999, Note_on_c, 2, 77, 0
8, 23999, Note_on_c, 2, 72, 0
8, 24120, Note_on_c, 2, 81, 92
8, 24187, Note_on_c, 2, 81, 0
8, 24200, Note_on_c, 2, 79, 92
8, 24219, Note_on_c, 2, 79, 0
8, 24220, Note_on_c, 2, 81, 92
8, 24239, Note_on_c, 2, 81, 0
8, 24240, Note_on_c, 2, 79, 92
8, 24464, Note_on_c, 2, 79, 0
8, 24480, Note_on_c, 2, 77, 92
8, 24547, Note_on_c, 2, 77, 0
8, 24560, Note_on_c, 2, 76, 92
8, 24579, Note_on_c, 2, 76, 0
8, 24580, Note_on_c, 2, 77, 92
8, 24599, Note_on_c, 2, 77, 0
8, 24600, Note_on_c, 2, 76, 92
8, 24824, Note_on_c, 2, 76, 0
8, 24840, Note_on_c, 2, 74, 92
8, 24944, Note_on_c, 2, 74, 0
8, 24960, Note_on_c, 2, 72, 92
8, 25184, Note_on_c, 2, 72, 0
8, 25200, Note_on_c, 2, 76, 92
8, 25200, Note_on_c, 2, 72, 92
8, 25304, Note_on_c, 2, 76, 0
8, 25304, Note_on_c, 2, 72, 0
8, 25318, Control_c, 2, 11, 127
8, 25320, Note_on_c, 2, 77, 92
8, 25320, Note_on_c, 2, 72, 92
8, 25380, Control_c, 2, 11, 112
8, 25664, Note_on_c, 2, 77, 0
8, 25664, Note_on_c, 2, 72, 0
8, 25678, Control_c, 2, 11, 127
8, 25680, Note_on_c, 2, 77, 92
8, 25680, Note_on_c, 2, 79, 92
8, 25740, Control_c, 2, 11, 112
8, 26024, Note_on_c, 2, 77, 0
8, 26024, Note_on_c, 2, 79, 0
8, 26038, Control_c, 2, 11, 127
8, 26040, Note_on_c, 2, 84, 92
8, 26040, Note_on_c, 2, 81, 92
8, 26100, Control_c, 2, 11, 112
8, 26384, Note_on_c, 2, 84, 0
8, 26384, Note_on_c, 2, 81, 0
8, 26398, Control_c, 2, 11, 127
8, 26400, Note_on_c, 2, 79, 92
8, 26400, Note_on_c, 2, 76, 92
8, 26460, Control_c, 2, 11, 112
8, 26744, Note_on_c, 2, 79, 0
8, 26744, Note_on_c, 2, 76, 0
8, 26758, Control_c, 2, 11, 127
8, 26760, Note_on_c, 2, 81, 92
8, 26760, Note_on_c, 2, 77, 92
8, 26879, Note_on_c, 2, 81, 0
8, 26879, Note_on_c, 2, 77, 0
8, 27840, Note_on_c, 2, 79, 84
8, 27840, Note_on_c, 2, 76, 84
8, 27944, Note_on_c, 2, 79, 0
8, 27944, Note_on_c, 2, 76, 0
8, 27960, Note_on_c, 2, 76, 84
8, 27960, Note_on_c, 2, 79, 84
8, 28064, Note_on_c, 2, 76, 0
8, 28064, Note_on_c, 2, 79, 0
8, 28080, Note_on_c, 2, 76, 84
8, 28080, Note_on_c, 2, 79, 84
8, 28184, Note_on_c, 2, 76, 0
8, 28184, Note_on_c, 2, 79, 0
8, 28200, Note_on_c, 2, 77, 92
8, 28200, Note_on_c, 2, 81, 92
8, 28319, Note_on_c, 2, 77, 0
8, 28319, Note_on_c, 2, 81, 0
8, 29280, Note_on_c, 2, 79, 84
8, 29280, Note_on_c, 2, 76, 84
8, 29384, Note_on_c, 2, 79, 0
8, 29384, Note_on_c, 2, 76, 0
8, 29400, Note_on_c, 2, 79, 84
8, 29400, Note_on_c, 2, 76, 84
8, 29504, Note_on_c, 2, 79, 0
8, 29504, Note_on_c, 2, 76, 0
8, 29520, Note_on_c, 2, 76, 84
8, 29520, Note_on_c, 2, 79, 84
8, 29624, Note_on_c, 2, 76, 0
8, 29624, Note_on_c, 2, 79, 0
8, 29640, Note_on_c, 2, 81, 92
8, 29640, Note_on_c, 2, 77, 92
8, 29759, Note_on_c, 2, 81, 0
8, 29759, Note_on_c, 2, 77, 0
8, 30360, Note_on_c, 2, 77, 92
8, 30360, Note_on_c, 2, 69, 92
8, 30479, Note_on_c, 2, 77, 0
8, 30479, Note_on_c, 2, 69, 0
8, 32520, Control_c, 2, 11, 96
8, 32640, Note_on_c, 2, 81, 68
8, 32729, Note_on_c, 2, 81, 0
8, 32760, Note_on_c, 2, 84, 68
8, 32984, Note_on_c, 2, 84, 0
8, 33000, Note_on_c, 2, 81, 68
8, 33089, Note_on_c, 2, 81, 0
8, 33120, Note_on_c, 2, 77, 68
8, 33344, Note_on_c, 2, 77, 0
8, 33360, Note_on_c, 2, 76, 68
8, 33419, Note_on_c, 2, 76, 0
8, 33420, Note_on_c, 2, 77, 68
8, 33479, Note_on_c, 2, 77, 0
8, 33480, Note_on_c, 2, 79, 68
8, 33704, Note_on_c, 2, 79, 0
8, 33720, Note_on_c, 2, 77, 68
8, 33839, Note_on_c, 2, 77, 0
8, 33840, Note_on_c, 2, 79, 68
8, 33959, Note_on_c, 2, 79, 0
8, 33960, Note_on_c, 2, 81, 68
8, 34079, Note_on_c, 2, 81, 0
8, 34080, Note_on_c, 2, 79, 68
8, 34199, Note_on_c, 2, 79, 0
8, 34200, Note_on_c, 2, 77, 68
8, 34319, Note_on_c, 2, 77, 0
8, 34320, Note_on_c, 2, 79, 68
8, 34439, Note_on_c, 2, 79, 0
8, 34440, Note_on_c, 2, 81, 68
8, 34559, Note_on_c, 2, 81, 0
8, 34560, Note_on_c, 2, 82, 68
8, 34664, Note_on_c, 2, 82, 0
8, 34680, Note_on_c, 2, 81, 68
8, 34680, Control_c, 2, 11, 96
8, 34720, Control_c, 2, 11, 99
8, 34760, Control_c, 2, 11, 103
8, 34799, Note_on_c, 2, 81, 0
8, 34800, Note_on_c, 2, 82, 68
8, 34800, Control_c, 2, 11, 106
8, 34840, Control_c, 2, 11, 110
8, 34880, Control_c, 2, 11, 113
8, 34919, Note_on_c, 2, 82, 0
8, 34920, Note_on_c, 2, 84, 68
8, 34920, Control_c, 2, 11, 117
8, 34960, Control_c, 2, 11, 120
8, 35000, Control_c, 2, 11, 124
8, 35040, Control_c, 2, 11, 127
8, 35080, Control_c, 2, 11, 124
8, 35120, Control_c, 2, 11, 120
8, 35160, Control_c, 2, 11, 117
8, 35200, Control_c, 2, 11, 113
8, 35240, Control_c, 2, 11, 110
8, 35280, Control_c, 2, 11, 106
8, 35320, Control_c, 2, 11, 103
8, 35360, Control_c, 2, 11, 99
8, 35399, Note_on_c, 2, 84, 0
8, 35400, Control_c, 2, 11, 96
8, 35520, Note_on_c, 2, 81, 68
8, 35609, Note_on_c, 2, 81, 0
8, 35640, Note_on_c, 2, 84, 68
8, 35864, Note_on_c, 2, 84, 0
8, 35880, Note_on_c, 2, 81, 68
8, 35969, Note_on_c, 2, 81, 0
8, 36000, Note_on_c, 2, 77, 68
8, 36224, Note_on_c, 2, 77, 0
8, 36240, Note_on_c, 2, 76, 68
8, 36299, Note_on_c, 2, 76, 0
8, 36300, Note_on_c, 2, 77, 68
8, 36359, Note_on_c, 2, 77, 0
8, 36360, Note_on_c, 2, 79, 68
8, 36584, Note_on_c, 2, 79, 0
8, 36600, Note_on_c, 2, 81, 68
8, 36719, Note_on_c, 2, 81, 0
8, 36720, Note_on_c, 2, 82, 68
8, 36839, Note_on_c, 2, 82, 0
8, 36840, Note_on_c, 2, 84, 64
8, 36959, Note_on_c, 2, 84, 0
8, 36960, Note_on_c, 2, 82, 64
8, 37079, Note_on_c, 2, 82, 0
8, 37080, Note_on_c, 2, 81, 64
8, 37199, Note_on_c, 2, 81, 0
8, 37200, Note_on_c, 2, 79, 64
8, 37439, Note_on_c, 2, 79, 0
8, 37440, Note_on_c, 2, 81, 64
8, 37559, Note_on_c, 2, 81, 0
8, 37560, Note_on_c, 2, 82, 64
8, 37679, Note_on_c, 2, 82, 0
8, 37680, Note_on_c, 2, 79, 64
8, 37799, Note_on_c, 2, 79, 0
8, 37800, Note_on_c, 2, 81, 64
8, 37919, Note_on_c, 2, 81, 0
8, 37920, Note_on_c, 2, 77, 64
8, 38039, Note_on_c, 2, 77, 0
8, 38400, Note_on_c, 2, 81, 68
8, 38489, Note_on_c, 2, 81, 0
8, 38520, Note_on_c, 2, 84, 68
8, 38744, Note_on_c, 2, 84, 0
8, 38760, Note_on_c, 2, 81, 68
8, 38849, Note_on_c, 2, 81, 0
8, 38880, Note_on_c, 2, 77, 68
8, 39104, Note_on_c, 2, 77, 0
8, 39120, Note_on_c, 2, 76, 68
8, 39179, Note_on_c, 2, 76, 0
8, 39180, Note_on_c, 2, 77, 68
8, 39239, Note_on_c, 2, 77, 0
8, 39240, Note_on_c, 2, 79, 68
8, 39464, Note_on_c, 2, 79, 0
8, 39480, Note_on_c, 2, 77, 68
8, 39599, Note_on_c, 2, 77, 0
8, 39600, Note_on_c, 2, 79, 68
8, 39719, Note_on_c, 2, 79, 0
8, 39720, Note_on_c, 2, 81, 68
8, 39839, Note_on_c, 2, 81, 0
8, 39840, Note_on_c, 2, 79, 68
8, 39959, Note_on_c, 2, 79, 0
8, 39960, Note_on_c, 2, 77, 68
8, 40079, Note_on_c, 2, 77, 0
8, 40080, Note_on_c, 2, 79, 68
8, 40199, Note_on_c, 2, 79, 0
8, 40200, Note_on_c, 2, 81, 68
8, 40319, Note_on_c, 2, 81, 0
8, 40320, Note_on_c, 2, 82, 68
8, 40424, Note_on_c, 2, 82, 0
8, 40440, Note_on_c, 2, 81, 68
8, 40440, Control_c, 2, 11, 96
8, 40480, Control_c, 2, 11, 99
8, 40520, Control_c, 2, 11, 103
8, 40559, Note_on_c, 2, 81, 0
8, 40560, Control_c, 2, 11, 106
8, 40560, Note_on_c, 2, 82, 68
8, 40600, Control_c, 2, 11, 110
8, 40640, Control_c, 2, 11, 113
8, 40679, Note_on_c, 2, 82, 0
8, 40680, Control_c, 2, 11, 117
8, 40680, Note_on_c, 2, 84, 68
8, 40720, Control_c, 2, 11, 120
8, 40760, Control_c, 2, 11, 124
8, 40800, Control_c, 2, 11, 127
8, 40840, Control_c, 2, 11, 124
8, 40880, Control_c, 2, 11, 120
8, 40920, Control_c, 2, 11, 117
8, 40960, Control_c, 2, 11, 113
8, 41000, Control_c, 2, 11, 110
8, 41040, Control_c, 2, 11, 106
8, 41080, Control_c, 2, 11, 103
8, 41120, Control_c, 2, 11, 99
8, 41159, Note_on_c, 2, 84, 0
8, 41160, Control_c, 2, 11, 96
8, 41280, Note_on_c, 2, 81, 68
8, 41369, Note_on_c, 2, 81, 0
8, 41400, Note_on_c, 2, 84, 68
8, 41624, Note_on_c, 2, 84, 0
8, 41640, Note_on_c, 2, 81, 68
8, 41729, Note_on_c, 2, 81, 0
8, 41760, Note_on_c, 2, 77, 68
8, 41984, Note_on_c, 2, 77, 0
8, 42000, Note_on_c, 2, 76, 68
8, 42059, Note_on_c, 2, 76, 0
8, 42060, Note_on_c, 2, 77, 68
8, 42119, Note_on_c, 2, 77, 0
8, 42120, Note_on_c, 2, 79, 68
8, 42344, Note_on_c, 2, 79, 0
8, 42360, Note_on_c, 2, 81, 68
8, 42479, Note_on_c, 2, 81, 0
8, 42480, Note_on_c, 2, 82, 68
8, 42599, Note_on_c, 2, 82, 0
8, 42600, Note_on_c, 2, 84, 64
8, 42719, Note_on_c, 2, 84, 0
8, 42720, Note_on_c, 2, 82, 64
8, 42839, Note_on_c, 2, 82, 0
8, 42840, Note_on_c, 2, 81, 64
8, 42959, Note_on_c, 2, 81, 0
8, 42960, Note_on_c, 2, 79, 64
8, 43199, Note_on_c, 2, 79, 0
8, 43200, Note_on_c, 2, 81, 64
8, 43319, Note_on_c, 2, 81, 0
8, 43320, Note_on_c, 2, 82, 64
8, 43439, Note_on_c, 2, 82, 0
8, 43440, Note_on_c, 2, 79, 64
8, 43559, Note_on_c, 2, 79, 0
8, 43560, Note_on_c, 2, 81, 64
8, 43679, Note_on_c, 2, 81, 0
8, 43680, Note_on_c, 2, 77, 64
8, 43799, Note_on_c, 2, 77, 0
8, 50520, Control_c, 2, 11, 96
8, 50580, Control_c, 2, 11, 97
8, 50640, Note_on_c, 2, 81, 68
8, 50640, Control_c, 2, 11, 99
8, 50700, Control_c, 2, 11, 100
8, 50744, Note_on_c, 2, 81, 0
8, 50760, Control_c, 2, 11, 101
8, 50760, Note_on_c, 2, 84, 68
8, 50820, Control_c, 2, 11, 102
8, 50880, Control_c, 2, 11, 104
8, 50940, Control_c, 2, 11, 105
8, 50984, Note_on_c, 2, 84, 0
8, 51000, Note_on_c, 2, 81, 68
8, 51000, Control_c, 2, 11, 106
8, 51060, Control_c, 2, 11, 108
8, 51104, Note_on_c, 2, 81, 0
8, 51120, Note_on_c, 2, 77, 68
8, 51120, Control_c, 2, 11, 109
8, 51180, Control_c, 2, 11, 110
8, 51224, Note_on_c, 2, 77, 0
8, 51240, Control_c, 2, 11, 112
8, 51240, Note_on_c, 2, 79, 68
8, 51300, Control_c, 2, 11, 113
8, 51344, Note_on_c, 2, 79, 0
8, 51360, Control_c, 2, 11, 114
8, 51360, Note_on_c, 2, 72, 68
8, 51420, Control_c, 2, 11, 115
8, 51464, Note_on_c, 2, 72, 0
8, 51480, Note_on_c, 2, 79, 68
8, 51480, Control_c, 2, 11, 117
8, 51540, Control_c, 2, 11, 118
8, 51600, Control_c, 2, 11, 119
8, 51660, Control_c, 2, 11, 121
8, 51704, Note_on_c, 2, 79, 0
8, 51720, Control_c, 2, 11, 122
8, 51720, Note_on_c, 2, 77, 68
8, 51780, Control_c, 2, 11, 123
8, 51824, Note_on_c, 2, 77, 0
8, 51840, Note_on_c, 2, 79, 68
8, 51840, Control_c, 2, 11, 124
8, 51900, Control_c, 2, 11, 126
8, 51944, Note_on_c, 2, 79, 0
8, 51958, Control_c, 2, 11, 127
8, 51960, Note_on_c, 2, 81, 52
8, 52079, Note_on_c, 2, 81, 0
8, 53520, Note_on_c, 2, 81, 52
8, 53639, Note_on_c, 2, 81, 0
8, 53640, Note_on_c, 2, 82, 52
8, 53744, Note_on_c, 2, 82, 0
8, 53760, Note_on_c, 2, 84, 52
8, 53879, Note_on_c, 2, 84, 0
8, 53880, Note_on_c, 2, 82, 52
8, 53999, Note_on_c, 2, 82, 0
8, 54000, Note_on_c, 2, 81, 52
8, 54119, Note_on_c, 2, 81, 0
8, 54120, Note_on_c, 2, 79, 52
8, 54359, Note_on_c, 2, 79, 0
8, 54360, Note_on_c, 2, 81, 52
8, 54479, Note_on_c, 2, 81, 0
8, 54480, Note_on_c, 2, 82, 52
8, 54599, Note_on_c, 2, 82, 0
8, 54600, Note_on_c, 2, 79, 52
8, 54719, Note_on_c, 2, 79, 0
8, 54720, Note_on_c, 2, 81, 52
8, 54839, Note_on_c, 2, 81, 0
8, 54840, Note_on_c, 2, 77, 52
8, 54959, Note_on_c, 2, 77, 0
8, 55200, Note_on_c, 2, 81, 52
8, 55319, Note_on_c, 2, 81, 0
8, 55320, Note_on_c, 2, 84, 52
8, 55439, Note_on_c, 2, 84, 0
8, 55440, Note_on_c, 2, 82, 52
8, 55559, Note_on_c, 2, 82, 0
8, 55800, Control_c, 2, 11, 80
8, 55920, Note_on_c, 2, 79, 76
8, 56039, Note_on_c, 2, 79, 0
8, 56040, Note_on_c, 2, 82, 76
8, 56159, Note_on_c, 2, 82, 0
8, 56160, Note_on_c, 2, 81, 76
8, 56264, Note_on_c, 2, 81, 0
8, 56280, Control_c, 2, 11, 80
8, 56280, Note_on_c, 2, 77, 76
8, 56340, Control_c, 2, 11, 82
8, 56400, Control_c, 2, 11, 84
8, 56460, Control_c, 2, 11, 86
8, 56520, Control_c, 2, 11, 88
8, 56580, Control_c, 2, 11, 90
8, 56624, Note_on_c, 2, 77, 0
8, 56640, Control_c, 2, 11, 92
8, 56640, Note_on_c, 2, 84, 76
8, 56700, Control_c, 2, 11, 94
8, 56760, Control_c, 2, 11, 96
8, 56820, Control_c, 2, 11, 98
8, 56880, Control_c, 2, 11, 100
8, 56940, Control_c, 2, 11, 102
8, 57000, Control_c, 2, 11, 104
8, 57060, Control_c, 2, 11, 105
8, 57120, Control_c, 2, 11, 107
8, 57180, Control_c, 2, 11, 109
8, 57240, Control_c, 2, 11, 111
8, 57300, Control_c, 2, 11, 113
8, 57360, Control_c, 2, 11, 115
8, 57420, Control_c, 2, 11, 117
8, 57480, Control_c, 2, 11, 119
8, 57540, Control_c, 2, 11, 121
8, 57600, Control_c, 2, 11, 123
8, 57660, Control_c, 2, 11, 127
8, 57704, Note_on_c, 2, 84, 0
8, 57720, Note_on_c, 2, 77, 76
8, 57839, Note_on_c, 2, 77, 0
8, 59160, Note_on_c, 2, 77, 84
8, 59160, Note_on_c, 2, 72, 84
8, 59220, Control_c, 2, 11, 96
8, 59624, Note_on_c, 2, 77, 0
8, 59624, Note_on_c, 2, 72, 0
8, 59638, Control_c, 2, 11, 127
8, 59640, Note_on_c, 2, 77, 84
8, 59640, Note_on_c, 2, 72, 84
8, 59700, Control_c, 2, 11, 96
8, 60104, Note_on_c, 2, 77, 0
8, 60104, Note_on_c, 2, 72, 0
8, 60118, Control_c, 2, 11, 127
8, 60120, Note_on_c, 2, 74, 84
8, 60120, Note_on_c, 2, 77, 84
8, 60180, Control_c, 2, 11, 96
8, 60584, Note_on_c, 2, 74, 0
8, 60584, Note_on_c, 2, 77, 0
8, 60598, Control_c, 2, 11, 127
8, 60600, Note_on_c, 2, 77, 84
8, 60600, Note_on_c, 2, 72, 84
8, 60660, Control_c, 2, 11, 96
8, 60839, Note_on_c, 2, 72, 0
8, 60840, Note_on_c, 2, 74, 84
8, 61064, Note_on_c, 2, 77, 0
8, 61064, Note_on_c, 2, 74, 0
8, 61078, Control_c, 2, 11, 127
8, 61080, Note_on_c, 2, 72, 84
8, 61080, Note_on_c, 2, 77, 84
8, 61140, Control_c, 2, 11, 96
8, 61544, Note_on_c, 2, 72, 0
8, 61544, Note_on_c, 2, 77, 0
8, 61558, Control_c, 2, 11, 127
8, 61560, Note_on_c, 2, 72, 84
8, 61560, Note_on_c, 2, 77, 84
8, 61620, Control_c, 2, 11, 96
8, 62024, Note_on_c, 2, 72, 0
8, 62024, Note_on_c, 2, 77, 0
8, 62038, Control_c, 2, 11, 127
8, 62040, Note_on_c, 2, 77, 84
8, 62040, Note_on_c, 2, 74, 84
8, 62100, Control_c, 2, 11, 96
8, 62504, Note_on_c, 2, 77, 0
8, 62504, Note_on_c, 2, 74, 0
8, 62518, Control_c, 2, 11, 127
8, 62520, Note_on_c, 2, 77, 84
8, 62520, Note_on_c, 2, 72, 84
8, 62580, Control_c, 2, 11, 96
8, 62759, Note_on_c, 2, 72, 0
8, 62760, Note_on_c, 2, 74, 84
8, 62984, Note_on_c, 2, 77, 0
8, 62984, Note_on_c, 2, 74, 0
8, 62998, Control_c, 2, 11, 127
8, 63000, Note_on_c, 2, 77, 84
8, 63000, Note_on_c, 2, 72, 84
8, 63060, Control_c, 2, 11, 96
8, 63464, Note_on_c, 2, 77, 0
8, 63464, Note_on_c, 2, 72, 0
8, 63478, Control_c, 2, 11, 127
8, 63480, Note_on_c, 2, 77, 84
8, 63480, Note_on_c, 2, 72, 84
8, 63540, Control_c, 2, 11, 96
8, 63944, Note_on_c, 2, 77, 0
8, 63944, Note_on_c, 2, 72, 0
8, 63958, Control_c, 2, 11, 127
8, 63960, Note_on_c, 2, 74, 84
8, 63960, Note_on_c, 2, 77, 84
8, 64020, Control_c, 2, 11, 96
8, 64424, Note_on_c, 2, 74, 0
8, 64424, Note_on_c, 2, 77, 0
8, 64438, Control_c, 2, 11, 127
8, 64440, Note_on_c, 2, 77, 84
8, 64440, Note_on_c, 2, 72, 84
8, 64500, Control_c, 2, 11, 96
8, 64679, Note_on_c, 2, 72, 0
8, 64680, Note_on_c, 2, 74, 84
8, 64904, Note_on_c, 2, 77, 0
8, 64904, Note_on_c, 2, 74, 0
8, 64918, Control_c, 2, 11, 127
8, 64920, Note_on_c, 2, 72, 84
8, 64920, Note_on_c, 2, 77, 84
8, 64980, Control_c, 2, 11, 96
8, 65384, Note_on_c, 2, 72, 0
8, 65384, Note_on_c, 2, 77, 0
8, 65398, Control_c, 2, 11, 127
8, 65400, Note_on_c, 2, 77, 84
8, 65400, Note_on_c, 2, 72, 84
8, 65460, Control_c, 2, 11, 96
8, 65864, Note_on_c, 2, 77, 0
8, 65864, Note_on_c, 2, 72, 0
8, 65878, Control_c, 2, 11, 127
8, 65880, Note_on_c, 2, 77, 84
8, 65880, Note_on_c, 2, 74, 84
8, 65940, Control_c, 2, 11, 96
8, 66344, Note_on_c, 2, 77, 0
8, 66344, Note_on_c, 2, 74, 0
8, 66358, Control_c, 2, 11, 127
8, 66360, Note_on_c, 2, 72, 84
8, 66360, Note_on_c, 2, 77, 84
8, 66420, Control_c, 2, 11, 96
8, 66599, Note_on_c, 2, 72, 0
8, 66600, Note_on_c, 2, 74, 84
8, 66824, Note_on_c, 2, 77, 0
8, 66824, Note_on_c, 2, 74, 0
8, 66838, Control_c, 2, 11, 127
8, 67800, Note_on_c, 2, 81, 84
8, 67800, Note_on_c, 2, 77, 84
8, 67860, Control_c, 2, 11, 96
8, 68264, Note_on_c, 2, 81, 0
8, 68264, Note_on_c, 2, 77, 0
8, 68280, Note_on_c, 2, 79, 84
8, 68280, Note_on_c, 2, 76, 84
8, 68504, Note_on_c, 2, 79, 0
8, 68504, Note_on_c, 2, 76, 0
8, 68520, Note_on_c, 2, 81, 84
8, 68520, Note_on_c, 2, 77, 84
8, 68759, Note_on_c, 2, 81, 0
8, 68759, Note_on_c, 2, 77, 0
8, 69720, Note_on_c, 2, 81, 84
8, 69720, Note_on_c, 2, 77, 84
8, 69780, Control_c, 2, 11, 96
8, 70184, Note_on_c, 2, 81, 0
8, 70184, Note_on_c, 2, 77, 0
8, 70200, Note_on_c, 2, 79, 84
8, 70200, Note_on_c, 2, 76, 84
8, 70424, Note_on_c, 2, 79, 0
8, 70424, Note_on_c, 2, 76, 0
8, 70440, Note_on_c, 2, 81, 84
8, 70440, Note_on_c, 2, 77, 84
8, 70664, Note_on_c, 2, 81, 0
8, 70664, Note_on_c, 2, 77, 0
8, 70678, Control_c, 2, 11, 127
8, 70680, Note_on_c, 2, 64, 84
8, 70680, Note_on_c, 2, 72, 84
8, 70919, Note_on_c, 2, 64, 0
8, 70919, Note_on_c, 2, 72, 0
8, 70920, Note_on_c, 2, 74, 84
8, 70920, Note_on_c, 2, 77, 84
8, 71159, Note_on_c, 2, 74, 0
8, 71159, Note_on_c, 2, 77, 0
8, 71160, Note_on_c, 2, 72, 84
8, 71160, Note_on_c, 2, 76, 84
8, 71504, Note_on_c, 2, 72, 0
8, 71504, Note_on_c, 2, 76, 0
8, 71520, Note_on_c, 2, 81, 84
8, 71520, Note_on_c, 2, 77, 84
8, 71624, Note_on_c, 2, 81, 0
8, 71624, Note_on_c, 2, 77, 0
8, 71640, Note_on_c, 2, 76, 84
8, 71640, Note_on_c, 2, 79, 84
8, 71759, Note_on_c, 2, 76, 0
8, 71759, Note_on_c, 2, 79, 0
8, 71880, Note_on_c, 2, 77, 84
8, 71880, Note_on_c, 2, 74, 84
8, 71999, Note_on_c, 2, 77, 0
8, 71999, Note_on_c, 2, 74, 0
8, 72120, Note_on_c, 2, 76, 84
8, 72120, Note_on_c, 2, 72, 84
8, 72239, Note_on_c, 2, 76, 0
8, 72239, Note_on_c, 2, 72, 0
8, 72360, Note_on_c, 2, 74, 84
8, 72360, Note_on_c, 2, 71, 84
8, 72479, Note_on_c, 2, 74, 0
8, 72479, Note_on_c, 2, 71, 0
8, 72600, Note_on_c, 2, 72, 84
8, 72600, Note_on_c, 2, 64, 84
8, 72704, Note_on_c, 2, 72, 0
8, 72704, Note_on_c, 2, 64, 0
8, 72720, Note_on_c, 2, 64, 84
8, 72720, Note_on_c, 2, 72, 84
8, 72824, Note_on_c, 2, 64, 0
8, 72824, Note_on_c, 2, 72, 0
8, 72840, Note_on_c, 2, 77, 84
8, 72840, Note_on_c, 2, 74, 84
8, 72944, Note_on_c, 2, 77, 0
8, 72944, Note_on_c, 2, 74, 0
8, 72960, Note_on_c, 2, 74, 84
8, 72960, Note_on_c, 2, 77, 84
8, 73064, Note_on_c, 2, 74, 0
8, 73064, Note_on_c, 2, 77, 0
8, 73080, Note_on_c, 2, 72, 84
8, 73080, Note_on_c, 2, 76, 84
8, 73184, Note_on_c, 2, 72, 0
8, 73184, Note_on_c, 2, 76, 0
8, 73200, Note_on_c, 2, 76, 84
8, 73200, Note_on_c, 2, 72, 84
8, 73319, Note_on_c, 2, 76, 0
8, 73319, Note_on_c, 2, 72, 0
8, 73440, Note_on_c, 2, 77, 84
8, 73440, Note_on_c, 2, 81, 84
8, 73559, Note_on_c, 2, 77, 0
8, 73559, Note_on_c, 2, 81, 0
8, 73680, Note_on_c, 2, 79, 84
8, 73680, Note_on_c, 2, 76, 84
8, 73799, Note_on_c, 2, 79, 0
8, 73799, Note_on_c, 2, 76, 0
8, 73920, Note_on_c, 2, 74, 84
8, 73920, Note_on_c, 2, 77, 84
8, 74039, Note_on_c, 2, 74, 0
8, 74039, Note_on_c, 2, 77, 0
8, 74160, Note_on_c, 2, 72, 84
8, 74160, Note_on_c, 2, 76, 84
8, 74279, Note_on_c, 2, 72, 0
8, 74279, Note_on_c, 2, 76, 0
8, 74400, Note_on_c, 2, 74, 84
8, 74400, Note_on_c, 2, 71, 84
8, 74504, Note_on_c, 2, 74, 0
8, 74504, Note_on_c, 2, 71, 0
8, 74518, Control_c, 2, 11, 112
8, 74520, Control_c, 2, 11, 112
8, 74520, Note_on_c, 2, 72, 92
8, 74712, Control_c, 2, 11, 113
8, 74864, Note_on_c, 2, 72, 0
8, 74880, Note_on_c, 2, 76, 92
8, 74904, Control_c, 2, 11, 114
8, 74984, Note_on_c, 2, 76, 0
8, 75000, Note_on_c, 2, 76, 92
8, 75096, Control_c, 2, 11, 115
8, 75288, Control_c, 2, 11, 116
8, 75344, Note_on_c, 2, 76, 0
8, 75360, Note_on_c, 2, 72, 92
8, 75464, Note_on_c, 2, 72, 0
8, 75480, Control_c, 2, 11, 117
8, 75480, Note_on_c, 2, 72, 92
8, 75672, Control_c, 2, 11, 118
8, 75824, Note_on_c, 2, 72, 0
8, 75840, Note_on_c, 2, 79, 92
8, 75864, Control_c, 2, 11, 119
8, 75944, Note_on_c, 2, 79, 0
8, 75960, Note_on_c, 2, 79, 92
8, 76056, Control_c, 2, 11, 120
8, 76248, Control_c, 2, 11, 121
8, 76304, Note_on_c, 2, 79, 0
8, 76320, Note_on_c, 2, 72, 92
8, 76424, Note_on_c, 2, 72, 0
8, 76440, Control_c, 2, 11, 122
8, 76440, Note_on_c, 2, 72, 92
8, 76544, Note_on_c, 2, 72, 0
8, 76560, Note_on_c, 2, 76, 92
8, 76560, Note_on_c, 2, 84, 92
8, 76632, Control_c, 2, 11, 123
8, 76664, Note_on_c, 2, 76, 0
8, 76664, Note_on_c, 2, 84, 0
8, 76680, Note_on_c, 2, 84, 92
8, 76680, Note_on_c, 2, 76, 92
8, 76784, Note_on_c, 2, 84, 0
8, 76784, Note_on_c, 2, 76, 0
8, 76800, Note_on_c, 2, 84, 92
8, 76800, Note_on_c, 2, 76, 92
8, 76824, Control_c, 2, 11, 124
8, 76904, Note_on_c, 2, 84, 0
8, 76904, Note_on_c, 2, 76, 0
8, 76920, Note_on_c, 2, 84, 92
8, 76920, Note_on_c, 2, 76, 92
8, 77016, Control_c, 2, 11, 125
8, 77024, Note_on_c, 2, 84, 0
8, 77024, Note_on_c, 2, 76, 0
8, 77040, Note_on_c, 2, 76, 92
8, 77040, Note_on_c, 2, 84, 92
8, 77144, Note_on_c, 2, 76, 0
8, 77144, Note_on_c, 2, 84, 0
8, 77160, Note_on_c, 2, 76, 92
8, 77160, Note_on_c, 2, 84, 92
8, 77208, Control_c, 2, 11, 127
8, 77264, Note_on_c, 2, 76, 0
8, 77264, Note_on_c, 2, 84, 0
8, 77280, Note_on_c, 2, 76, 92
8, 77280, Note_on_c, 2, 84, 92
8, 77384, Note_on_c, 2, 76, 0
8, 77384, Note_on_c, 2, 84, 0
8, 77400, Note_on_c, 2, 76, 84
8, 77400, Note_on_c, 2, 84, 84
8, 77519, Note_on_c, 2, 76, 0
8, 77519, Note_on_c, 2, 84, 0
8, 77880, Note_on_c, 2, 72, 52
8, 77880, Note_on_c, 2, 76, 52
8, 77999, Note_on_c, 2, 72, 0
8, 77999, Note_on_c, 2, 76, 0
8, 82800, Note_on_c, 2, 78, 48
8, 82919, Note_on_c, 2, 78, 0
8, 82920, Note_on_c, 2, 79, 48
8, 83039, Note_on_c, 2, 79, 0
8, 83040, Note_on_c, 2, 78, 48
8, 83159, Note_on_c, 2, 78, 0
8, 83160, Note_on_c, 2, 74, 48
8, 83264, Note_on_c, 2, 74, 0
8, 83280, Note_on_c, 2, 74, 48
8, 83504, Note_on_c, 2, 74, 0
8, 83520, Note_on_c, 2, 74, 48
8, 83639, Note_on_c, 2, 74, 0
8, 83640, Note_on_c, 2, 73, 48
8, 83759, Note_on_c, 2, 73, 0
8, 83760, Note_on_c, 2, 74, 48
8, 83879, Note_on_c, 2, 74, 0
8, 88560, Note_on_c, 2, 78, 48
8, 88679, Note_on_c, 2, 78, 0
8, 88680, Note_on_c, 2, 79, 48
8, 88799, Note_on_c, 2, 79, 0
8, 88800, Note_on_c, 2, 78, 48
8, 88919, Note_on_c, 2, 78, 0
8, 88920, Note_on_c, 2, 74, 48
8, 89024, Note_on_c, 2, 74, 0
8, 89040, Note_on_c, 2, 74, 48
8, 89264, Note_on_c, 2, 74, 0
8, 89280, Note_on_c, 2, 74, 48
8, 89399, Note_on_c, 2, 74, 0
8, 89400, Note_on_c, 2, 73, 48
8, 89519, Note_on_c, 2, 73, 0
8, 89520, Note_on_c, 2, 74, 48
8, 89639, Note_on_c, 2, 74, 0
8, 90480, Note_on_c, 2, 79, 44
8, 90569, Note_on_c, 2, 79, 0
8, 90600, Note_on_c, 2, 78, 44
8, 90689, Note_on_c, 2, 78, 0
8, 90720, Note_on_c, 2, 74, 44
8, 90809, Note_on_c, 2, 74, 0
8, 90840, Note_on_c, 2, 76, 44
8, 90929, Note_on_c, 2, 76, 0
8, 90960, Note_on_c, 2, 78, 44
8, 91049, Note_on_c, 2, 78, 0
8, 91080, Note_on_c, 2, 74, 44
8, 91169, Note_on_c, 2, 74, 0
8, 92640, Note_on_c, 2, 67, 48
8, 92759, Note_on_c, 2, 67, 0
8, 92760, Note_on_c, 2, 72, 48
8, 92999, Note_on_c, 2, 72, 0
8, 93000, Note_on_c, 2, 76, 48
8, 93119, Note_on_c, 2, 76, 0
8, 93120, Note_on_c, 2, 79, 48
8, 93239, Note_on_c, 2, 79, 0
8, 93240, Note_on_c, 2, 76, 48
8, 93344, Note_on_c, 2, 76, 0
8, 93360, Note_on_c, 2, 76, 48
8, 93479, Note_on_c, 2, 76, 0
8, 93480, Note_on_c, 2, 79, 48
8, 93599, Note_on_c, 2, 79, 0
8, 93600, Note_on_c, 2, 83, 48
8, 93719, Note_on_c, 2, 83, 0
8, 93720, Note_on_c, 2, 84, 48
8, 93779, Note_on_c, 2, 84, 0
8, 93780, Note_on_c, 2, 81, 48
8, 93839, Note_on_c, 2, 81, 0
8, 93840, Note_on_c, 2, 79, 48
8, 94064, Note_on_c, 2, 79, 0
8, 94080, Note_on_c, 2, 83, 48
8, 94199, Note_on_c, 2, 83, 0
8, 94200, Note_on_c, 2, 84, 48
8, 94319, Note_on_c, 2, 84, 0
8, 94320, Note_on_c, 2, 79, 48
8, 94439, Note_on_c, 2, 79, 0
8, 94440, Note_on_c, 2, 81, 52
8, 94440, Note_on_c, 2, 77, 52
8, 94559, Note_on_c, 2, 81, 0
8, 94559, Note_on_c, 2, 77, 0
8, 94560, Note_on_c, 2, 79, 52
8, 94560, Note_on_c, 2, 76, 52
8, 94679, Note_on_c, 2, 79, 0
8, 94679, Note_on_c, 2, 76, 0
8, 94680, Note_on_c, 2, 76, 52
8, 94680, Note_on_c, 2, 72, 52
8, 94784, Note_on_c, 2, 72, 0
8, 94799, Note_on_c, 2, 76, 0
8, 94800, Note_on_c, 2, 77, 52
8, 94800, Note_on_c, 2, 72, 52
8, 94904, Note_on_c, 2, 72, 0
8, 94919, Note_on_c, 2, 77, 0
8, 94920, Note_on_c, 2, 72, 52
8, 94920, Note_on_c, 2, 76, 52
8, 95039, Note_on_c, 2, 72, 0
8, 95039, Note_on_c, 2, 76, 0
8, 95040, Note_on_c, 2, 72, 52
8, 95040, Note_on_c, 2, 67, 52
8, 95159, Note_on_c, 2, 72, 0
8, 95159, Note_on_c, 2, 67, 0
8, 95160, Note_on_c, 2, 74, 52
8, 95160, Note_on_c, 2, 71, 52
8, 95279, Note_on_c, 2, 74, 0
8, 95279, Note_on_c, 2, 71, 0
8, 95280, Note_on_c, 2, 72, 52
8, 95280, Note_on_c, 2, 76, 52
8, 95399, Note_on_c, 2, 72, 0
8, 95399, Note_on_c, 2, 76, 0
8, 95400, Note_on_c, 2, 64, 52
8, 95400, Note_on_c, 2, 72, 52
8, 95519, Note_on_c, 2, 64, 0
8, 95519, Note_on_c, 2, 72, 0
8, 96210, Control_c, 2, 11, 97
8, 96240, Note_on_c, 2, 72, 84
8, 96240, Control_c, 2, 11, 99
8, 96240, Note_on_c, 2, 84, 84
8, 96270, Control_c, 2, 11, 101
8, 96300, Control_c, 2, 11, 103
8, 96330, Control_c, 2, 11, 104
8, 96344, Note_on_c, 2, 72, 0
8, 96344, Note_on_c, 2, 84, 0
8, 96360, Note_on_c, 2, 84, 84
8, 96360, Control_c, 2, 11, 106
8, 96360, Note_on_c, 2, 72, 84
8, 96390, Control_c, 2, 11, 108
8, 96420, Control_c, 2, 11, 110
8, 96450, Control_c, 2, 11, 111
8, 96464, Note_on_c, 2, 84, 0
8, 96464, Note_on_c, 2, 72, 0
8, 96480, Note_on_c, 2, 84, 84
8, 96480, Control_c, 2, 11, 113
8, 96480, Note_on_c, 2, 72, 84
8, 96510, Control_c, 2, 11, 115
8, 96540, Control_c, 2, 11, 117
8, 96570, Control_c, 2, 11, 118
8, 96584, Note_on_c, 2, 84, 0
8, 96584, Note_on_c, 2, 72, 0
8, 96600, Note_on_c, 2, 72, 84
8, 96600, Control_c, 2, 11, 120
8, 96600, Note_on_c, 2, 84, 84
8, 96630, Control_c, 2, 11, 122
8, 96660, Control_c, 2, 11, 124
8, 96690, Control_c, 2, 11, 125
8, 96704, Note_on_c, 2, 72, 0
8, 96704, Note_on_c, 2, 84, 0
8, 96718, Control_c, 2, 11, 127
8, 96720, Note_on_c, 2, 72, 84
8, 96720, Note_on_c, 2, 84, 84
8, 96824, Note_on_c, 2, 72, 0
8, 96824, Note_on_c, 2, 84, 0
8, 96840, Note_on_c, 2, 84, 84
8, 96840, Note_on_c, 2, 72, 84
8, 96944, Note_on_c, 2, 84, 0
8, 96944, Note_on_c, 2, 72, 0
8, 96960, Note_on_c, 2, 72, 84
8, 97064, Note_on_c, 2, 72, 0
8, 97080, Note_on_c, 2, 77, 84
8, 97184, Note_on_c, 2, 77, 0
8, 97200, Note_on_c, 2, 72, 84
8, 97304, Note_on_c, 2, 72, 0
8, 97320, Note_on_c, 2, 74, 84
8, 97424, Note_on_c, 2, 74, 0
8, 97440, Note_on_c, 2, 72, 84
8, 97544, Note_on_c, 2, 72, 0
8, 97560, Note_on_c, 2, 69, 84
8, 97560, Note_on_c, 2, 81, 84
8, 97664, Note_on_c, 2, 69, 0
8, 97664, Note_on_c, 2, 81, 0
8, 97680, Note_on_c, 2, 70, 84
8, 97680, Note_on_c, 2, 82, 84
8, 97784, Note_on_c, 2, 70, 0
8, 97784, Note_on_c, 2, 82, 0
8, 97800, Note_on_c, 2, 81, 92
8, 97800, Note_on_c, 2, 69, 92
8, 97904, Note_on_c, 2, 81, 0
8, 97904, Note_on_c, 2, 69, 0
8, 97920, Note_on_c, 2, 65, 84
8, 97920, Note_on_c, 2, 77, 84
8, 98024, Note_on_c, 2, 65, 0
8, 98024, Note_on_c, 2, 77, 0
8, 98040, Note_on_c, 2, 79, 84
8, 98040, Note_on_c, 2, 67, 84
8, 98144, Note_on_c, 2, 79, 0
8, 98144, Note_on_c, 2, 67, 0
8, 98160, Note_on_c, 2, 81, 92
8, 98160, Note_on_c, 2, 69, 92
8, 98264, Note_on_c, 2, 81, 0
8, 98264, Note_on_c, 2, 69, 0
8, 98280, Note_on_c, 2, 65, 84
8, 98280, Note_on_c, 2, 77, 84
8, 98384, Note_on_c, 2, 65, 0
8, 98384, Note_on_c, 2, 77, 0
8, 98400, Note_on_c, 2, 79, 84
8, 98400, Note_on_c, 2, 67, 84
8, 98504, Note_on_c, 2, 79, 0
8, 98504, Note_on_c, 2, 67, 0
8, 98520, Note_on_c, 2, 81, 92
8, 98520, Note_on_c, 2, 69, 92
8, 98624, Note_on_c, 2, 81, 0
8, 98624, Note_on_c, 2, 69, 0
8, 98640, Note_on_c, 2, 77, 84
8, 98640, Note_on_c, 2, 65, 84
8, 98744, Note_on_c, 2, 77, 0
8, 98744, Note_on_c, 2, 65, 0
8, 98760, Note_on_c, 2, 79, 84
8, 98760, Note_on_c, 2, 67, 84
8, 98864, Note_on_c, 2, 79, 0
8, 98864, Note_on_c, 2, 67, 0
8, 98880, Note_on_c, 2, 81, 92
8, 98880, Note_on_c, 2, 69, 92
8, 98984, Note_on_c, 2, 81, 0
8, 98984, Note_on_c, 2, 69, 0
8, 99000, Note_on_c, 2, 77, 84
8, 99000, Note_on_c, 2, 65, 84
8, 99104, Note_on_c, 2, 77, 0
8, 99104, Note_on_c, 2, 65, 0
8, 99120, Note_on_c, 2, 67, 84
8, 99120, Note_on_c, 2, 79, 84
8, 99224, Note_on_c, 2, 67, 0
8, 99224, Note_on_c, 2, 79, 0
8, 99240, Note_on_c, 2, 69, 92
8, 99240, Note_on_c, 2, 81, 92
8, 99300, Control_c, 2, 11, 112
8, 99547, Note_on_c, 2, 69, 0
8, 99547, Note_on_c, 2, 81, 0
8, 99560, Note_on_c, 2, 79, 92
8, 99579, Note_on_c, 2, 79, 0
8, 99580, Note_on_c, 2, 81, 92
8, 99599, Note_on_c, 2, 81, 0
8, 99600, Note_on_c, 2, 67, 92
8, 99600, Note_on_c, 2, 79, 92
8, 99824, Note_on_c, 2, 67, 0
8, 99824, Note_on_c, 2, 79, 0
8, 99840, Note_on_c, 2, 77, 92
8, 99840, Note_on_c, 2, 65, 92
8, 99907, Note_on_c, 2, 77, 0
8, 99907, Note_on_c, 2, 65, 0
8, 99920, Note_on_c, 2, 76, 92
8, 99939, Note_on_c, 2, 76, 0
8, 99940, Note_on_c, 2, 77, 92
8, 99959, Note_on_c, 2, 77, 0
8, 99960, Note_on_c, 2, 64, 92
8, 99960, Note_on_c, 2, 76, 92
8, 100184, Note_on_c, 2, 64, 0
8, 100184, Note_on_c, 2, 76, 0
8, 100200, Note_on_c, 2, 62, 92
8, 100200, Note_on_c, 2, 74, 92
8, 100304, Note_on_c, 2, 62, 0
8, 100304, Note_on_c, 2, 74, 0
8, 100320, Note_on_c, 2, 60, 92
8, 100320, Note_on_c, 2, 72, 92
8, 100544, Note_on_c, 2, 60, 0
8, 100544, Note_on_c, 2, 72, 0
8, 100560, Note_on_c, 2, 76, 92
8, 100560, Note_on_c, 2, 72, 92
8, 100664, Note_on_c, 2, 76, 0
8, 100664, Note_on_c, 2, 72, 0
8, 100678, Control_c, 2, 11, 127
8, 100680, Note_on_c, 2, 72, 92
8, 100680, Note_on_c, 2, 77, 92
8, 100740, Control_c, 2, 11, 112
8, 101024, Note_on_c, 2, 72, 0
8, 101024, Note_on_c, 2, 77, 0
8, 101038, Control_c, 2, 11, 127
8, 101040, Note_on_c, 2, 67, 92
8, 101040, Note_on_c, 2, 77, 92
8, 101100, Control_c, 2, 11, 112
8, 101384, Note_on_c, 2, 67, 0
8, 101384, Note_on_c, 2, 77, 0
8, 101398, Control_c, 2, 11, 127
8, 101400, Note_on_c, 2, 77, 92
8, 101400, Note_on_c, 2, 69, 92
8, 101460, Control_c, 2, 11, 112
8, 101744, Note_on_c, 2, 77, 0
8, 101744, Note_on_c, 2, 69, 0
8, 101760, Note_on_c, 2, 76, 92
8, 101760, Note_on_c, 2, 72, 92
8, 102104, Note_on_c, 2, 76, 0
8, 102104, Note_on_c, 2, 72, 0
8, 102120, Note_on_c, 2, 77, 92
8, 102120, Note_on_c, 2, 72, 92
8, 102239, Note_on_c, 2, 77, 0
8, 102239, Note_on_c, 2, 72, 0
8, 102360, Note_on_c, 2, 81, 92
8, 102427, Note_on_c, 2, 81, 0
8, 102440, Note_on_c, 2, 79, 92
8, 102459, Note_on_c, 2, 79, 0
8, 102460, Note_on_c, 2, 81, 92
8, 102479, Note_on_c, 2, 81, 0
8, 102480, Note_on_c, 2, 79, 92
8, 102704, Note_on_c, 2, 79, 0
8, 102720, Note_on_c, 2, 77, 92
8, 102787, Note_on_c, 2, 77, 0
8, 102800, Note_on_c, 2, 76, 92
8, 102819, Note_on_c, 2, 76, 0
8, 102820, Note_on_c, 2, 77, 92
8, 102839, Note_on_c, 2, 77, 0
8, 102840, Note_on_c, 2, 76, 92
8, 103064, Note_on_c, 2, 76, 0
8, 103080, Note_on_c, 2, 74, 92
8, 103184, Note_on_c, 2, 74, 0
8, 103200, Note_on_c, 2, 72, 92
8, 103424, Note_on_c, 2, 72, 0
8, 103440, Note_on_c, 2, 72, 92
8, 103440, Note_on_c, 2, 76, 92
8, 103544, Note_on_c, 2, 72, 0
8, 103544, Note_on_c, 2, 76, 0
8, 103558, Control_c, 2, 11, 127
8, 103560, Note_on_c, 2, 72, 92
8, 103560, Note_on_c, 2, 77, 92
8, 103620, Control_c, 2, 11, 112
8, 103904, Note_on_c, 2, 72, 0
8, 103904, Note_on_c, 2, 77, 0
8, 103918, Control_c, 2, 11, 127
8, 103920, Note_on_c, 2, 79, 92
8, 103920, Note_on_c, 2, 77, 92
8, 103980, Control_c, 2, 11, 112
8, 104264, Note_on_c, 2, 79, 0
8, 104264, Note_on_c, 2, 77, 0
8, 104278, Control_c, 2, 11, 127
8, 104280, Note_on_c, 2, 81, 92
8, 104280, Note_on_c, 2, 84, 92
8, 104340, Control_c, 2, 11, 112
8, 104624, Note_on_c, 2, 81, 0
8, 104624, Note_on_c, 2, 84, 0
8, 104638, Control_c, 2, 11, 127
8, 104640, Note_on_c, 2, 79, 92
8, 104640, Note_on_c, 2, 76, 92
8, 104700, Control_c, 2, 11, 112
8, 104984, Note_on_c, 2, 79, 0
8, 104984, Note_on_c, 2, 76, 0
8, 104998, Control_c, 2, 11, 127
8, 105000, Note_on_c, 2, 81, 92
8, 105000, Note_on_c, 2, 77, 92
8, 105119, Note_on_c, 2, 81, 0
8, 105119, Note_on_c, 2, 77, 0
8, 106080, Note_on_c, 2, 76, 84
8, 106080, Note_on_c, 2, 79, 84
8, 106184, Note_on_c, 2, 76, 0
8, 106184, Note_on_c, 2, 79, 0
8, 106200, Note_on_c, 2, 79, 84
8, 106200, Note_on_c, 2, 76, 84
8, 106304, Note_on_c, 2, 79, 0
8, 106304, Note_on_c, 2, 76, 0
8, 106320, Note_on_c, 2, 76, 84
8, 106320, Note_on_c, 2, 79, 84
8, 106424, Note_on_c, 2, 76, 0
8, 106424, Note_on_c, 2, 79, 0
8, 106440, Note_on_c, 2, 81, 92
8, 106440, Note_on_c, 2, 77, 92
8, 106559, Note_on_c, 2, 81, 0
8, 106559, Note_on_c, 2, 77, 0
8, 107520, Note_on_c, 2, 79, 84
8, 107520, Note_on_c, 2, 76, 84
8, 107624, Note_on_c, 2, 79, 0
8, 107624, Note_on_c, 2, 76, 0
8, 107640, Note_on_c, 2, 76, 84
8, 107640, Note_on_c, 2, 79, 84
8, 107744, Note_on_c, 2, 76, 0
8, 107744, Note_on_c, 2, 79, 0
8, 107760, Note_on_c, 2, 79, 84
8, 107760, Note_on_c, 2, 76, 84
8, 107864, Note_on_c, 2, 79, 0
8, 107864, Note_on_c, 2, 76, 0
8, 107880, Note_on_c, 2, 81, 92
8, 107880, Note_on_c, 2, 77, 92
8, 107999, Note_on_c, 2, 81, 0
8, 107999, Note_on_c, 2, 77, 0
8, 108600, Note_on_c, 2, 69, 92
8, 108600, Note_on_c, 2, 77, 92
8, 108719, Note_on_c, 2, 69, 0
8, 108719, Note_on_c, 2, 77, 0
8, 110760, Control_c, 2, 11, 96
8, 110880, Note_on_c, 2, 81, 68
8, 110969, Note_on_c, 2, 81, 0
8, 111000, Note_on_c, 2, 84, 68
8, 111224, Note_on_c, 2, 84, 0
8, 111240, Note_on_c, 2, 81, 68
8, 111329, Note_on_c, 2, 81, 0
8, 111360, Note_on_c, 2, 77, 68
8, 111584, Note_on_c, 2, 77, 0
8, 111600, Note_on_c, 2, 76, 68
8, 111659, Note_on_c, 2, 76, 0
8, 111660, Note_on_c, 2, 77, 68
8, 111719, Note_on_c, 2, 77, 0
8, 111720, Note_on_c, 2, 79, 68
8, 111944, Note_on_c, 2, 79, 0
8, 111960, Note_on_c, 2, 77, 68
8, 112079, Note_on_c, 2, 77, 0
8, 112080, Note_on_c, 2, 79, 68
8, 112199, Note_on_c, 2, 79, 0
8, 112200, Note_on_c, 2, 81, 68
8, 112319, Note_on_c, 2, 81, 0
8, 112320, Note_on_c, 2, 79, 68
8, 112439, Note_on_c, 2, 79, 0
8, 112440, Note_on_c, 2, 77, 68
8, 112559, Note_on_c, 2, 77, 0
8, 112560, Note_on_c, 2, 79, 68
8, 112679, Note_on_c, 2, 79, 0
8, 112680, Note_on_c, 2, 81, 68
8, 112799, Note_on_c, 2, 81, 0
8, 112800, Note_on_c, 2, 82, 68
8, 112904, Note_on_c, 2, 82, 0
8, 112920, Control_c, 2, 11, 96
8, 112920, Note_on_c, 2, 81, 68
8, 112960, Control_c, 2, 11, 99
8, 113000, Control_c, 2, 11, 103
8, 113039, Note_on_c, 2, 81, 0
8, 113040, Control_c, 2, 11, 106
8, 113040, Note_on_c, 2, 82, 68
8, 113080, Control_c, 2, 11, 110
8, 113120, Control_c, 2, 11, 113
8, 113159, Note_on_c, 2, 82, 0
8, 113160, Note_on_c, 2, 84, 68
8, 113160, Control_c, 2, 11, 117
8, 113200, Control_c, 2, 11, 120
8, 113240, Control_c, 2, 11, 124
8, 113280, Control_c, 2, 11, 127
8, 113320, Control_c, 2, 11, 124
8, 113360, Control_c, 2, 11, 120
8, 113400, Control_c, 2, 11, 117
8, 113440, Control_c, 2, 11, 113
8, 113480, Control_c, 2, 11, 110
8, 113520, Control_c, 2, 11, 106
8, 113560, Control_c, 2, 11, 103
8, 113600, Control_c, 2, 11, 99
8, 113639, Note_on_c, 2, 84, 0
8, 113640, Control_c, 2, 11, 96
8, 113760, Note_on_c, 2, 81, 68
8, 113849, Note_on_c, 2, 81, 0
8, 113880, Note_on_c, 2, 84, 68
8, 114104, Note_on_c, 2, 84, 0
8, 114120, Note_on_c, 2, 81, 68
8, 114209, Note_on_c, 2, 81, 0
8, 114240, Note_on_c, 2, 77, 68
8, 114464, Note_on_c, 2, 77, 0
8, 114480, Note_on_c, 2, 76, 68
8, 114539, Note_on_c, 2, 76, 0
8, 114540, Note_on_c, 2, 77, 68
8, 114599, Note_on_c, 2, 77, 0
8, 114600, Note_on_c, 2, 79, 68
8, 114824, Note_on_c, 2, 79, 0
8, 114840, Note_on_c, 2, 81, 68
8, 114959, Note_on_c, 2, 81, 0
8, 114960, Note_on_c, 2, 82, 68
8, 115079, Note_on_c, 2, 82, 0
8, 115080, Note_on_c, 2, 84, 64
8, 115199, Note_on_c, 2, 84, 0
8, 115200, Note_on_c, 2, 82, 64
8, 115319, Note_on_c, 2, 82, 0
8, 115320, Note_on_c, 2, 81, 64
8, 115439, Note_on_c, 2, 81, 0
8, 115440, Note_on_c, 2, 79, 64
8, 115679, Note_on_c, 2, 79, 0
8, 115680, Note_on_c, 2, 81, 64
8, 115799, Note_on_c, 2, 81, 0
8, 115800, Note_on_c, 2, 82, 64
8, 115919, Note_on_c, 2, 82, 0
8, 115920, Note_on_c, 2, 79, 64
8, 116039, Note_on_c, 2, 79, 0
8, 116040, Note_on_c, 2, 81, 64
8, 116159, Note_on_c, 2, 81, 0
8, 116160, Note_on_c, 2, 77, 64
8, 116279, Note_on_c, 2, 77, 0
8, 116640, Note_on_c, 2, 81, 68
8, 116729, Note_on_c, 2, 81, 0
8, 116760, Note_on_c, 2, 84, 68
8, 116984, Note_on_c, 2, 84, 0
8, 117000, Note_on_c, 2, 81, 68
8, 117089, Note_on_c, 2, 81, 0
8, 117120, Note_on_c, 2, 77, 68
8, 117344, Note_on_c, 2, 77, 0
8, 117360, Note_on_c, 2, 76, 68
8, 117419, Note_on_c, 2, 76, 0
8, 117420, Note_on_c, 2, 77, 68
8, 117479, Note_on_c, 2, 77, 0
8, 117480, Note_on_c, 2, 79, 68
8, 117704, Note_on_c, 2, 79, 0
8, 117720, Note_on_c, 2, 77, 68
8, 117839, Note_on_c, 2, 77, 0
8, 117840, Note_on_c, 2, 79, 68
8, 117959, Note_on_c, 2, 79, 0
8, 117960, Note_on_c, 2, 81, 68
8, 118079, Note_on_c, 2, 81, 0
8, 118080, Note_on_c, 2, 79, 68
8, 118199, Note_on_c, 2, 79, 0
8, 118200, Note_on_c, 2, 77, 68
8, 118319, Note_on_c, 2, 77, 0
8, 118320, Note_on_c, 2, 79, 68
8, 118439, Note_on_c, 2, 79, 0
8, 118440, Note_on_c, 2, 81, 68
8, 118559, Note_on_c, 2, 81, 0
8, 118560, Note_on_c, 2, 82, 68
8, 118664, Note_on_c, 2, 82, 0
8, 118680, Note_on_c, 2, 81, 68
8, 118680, Control_c, 2, 11, 96
8, 118720, Control_c, 2, 11, 99
8, 118760, Control_c, 2, 11, 103
8, 118799, Note_on_c, 2, 81, 0
8, 118800, Note_on_c, 2, 82, 68
8, 118800, Control_c, 2, 11, 106
8, 118840, Control_c, 2, 11, 110
8, 118880, Control_c, 2, 11, 113
8, 118919, Note_on_c, 2, 82, 0
8, 118920, Control_c, 2, 11, 117
8, 118920, Note_on_c, 2, 84, 68
8, 118960, Control_c, 2, 11, 120
8, 119000, Control_c, 2, 11, 124
8, 119040, Control_c, 2, 11, 127
8, 119080, Control_c, 2, 11, 124
8, 119120, Control_c, 2, 11, 120
8, 119160, Control_c, 2, 11, 117
8, 119200, Control_c, 2, 11, 113
8, 119240, Control_c, 2, 11, 110
8, 119280, Control_c, 2, 11, 106
8, 119320, Control_c, 2, 11, 103
8, 119360, Control_c, 2, 11, 99
8, 119399, Note_on_c, 2, 84, 0
8, 119400, Control_c, 2, 11, 96
8, 119520, Note_on_c, 2, 81, 68
8, 119609, Note_on_c, 2, 81, 0
8, 119640, Note_on_c, 2, 84, 68
8, 119864, Note_on_c, 2, 84, 0
8, 119880, Note_on_c, 2, 81, 68
8, 119969, Note_on_c, 2, 81, 0
8, 120000, Note_on_c, 2, 77, 68
8, 120224, Note_on_c, 2, 77, 0
8, 120240, Note_on_c, 2, 76, 68
8, 120299, Note_on_c, 2, 76, 0
8, 120300, Note_on_c, 2, 77, 68
8, 120359, Note_on_c, 2, 77, 0
8, 120360, Note_on_c, 2, 79, 68
8, 120584, Note_on_c, 2, 79, 0
8, 120600, Note_on_c, 2, 81, 68
8, 120719, Note_on_c, 2, 81, 0
8, 120720, Note_on_c, 2, 82, 68
8, 120839, Note_on_c, 2, 82, 0
8, 120840, Note_on_c, 2, 84, 64
8, 120959, Note_on_c, 2, 84, 0
8, 120960, Note_on_c, 2, 82, 64
8, 121079, Note_on_c, 2, 82, 0
8, 121080, Note_on_c, 2, 81, 64
8, 121199, Note_on_c, 2, 81, 0
8, 121200, Note_on_c, 2, 79, 64
8, 121439, Note_on_c, 2, 79, 0
8, 121440, Note_on_c, 2, 81, 64
8, 121559, Note_on_c, 2, 81, 0
8, 121560, Note_on_c, 2, 82, 64
8, 121679, Note_on_c, 2, 82, 0
8, 121680, Note_on_c, 2, 79, 64
8, 121799, Note_on_c, 2, 79, 0
8, 121800, Note_on_c, 2, 81, 64
8, 121919, Note_on_c, 2, 81, 0
8, 121920, Note_on_c, 2, 77, 64
8, 122039, Note_on_c, 2, 77, 0
8, 128760, Control_c, 2, 11, 96
8, 128820, Control_c, 2, 11, 97
8, 128880, Note_on_c, 2, 81, 68
8, 128880, Control_c, 2, 11, 99
8, 128940, Control_c, 2, 11, 100
8, 128984, Note_on_c, 2, 81, 0
8, 129000, Note_on_c, 2, 84, 68
8, 129000, Control_c, 2, 11, 101
8, 129060, Control_c, 2, 11, 102
8, 129120, Control_c, 2, 11, 104
8, 129180, Control_c, 2, 11, 105
8, 129224, Note_on_c, 2, 84, 0
8, 129240, Note_on_c, 2, 81, 68
8, 129240, Control_c, 2, 11, 106
8, 129300, Control_c, 2, 11, 108
8, 129344, Note_on_c, 2, 81, 0
8, 129360, Note_on_c, 2, 77, 68
8, 129360, Control_c, 2, 11, 109
8, 129420, Control_c, 2, 11, 110
8, 129464, Note_on_c, 2, 77, 0
8, 129480, Note_on_c, 2, 79, 68
8, 129480, Control_c, 2, 11, 112
8, 129540, Control_c, 2, 11, 113
8, 129584, Note_on_c, 2, 79, 0
8, 129600, Control_c, 2, 11, 114
8, 129600, Note_on_c, 2, 72, 68
8, 129660, Control_c, 2, 11, 115
8, 129704, Note_on_c, 2, 72, 0
8, 129720, Note_on_c, 2, 79, 68
8, 129720, Control_c, 2, 11, 117
8, 129780, Control_c, 2, 11, 118
8, 129840, Control_c, 2, 11, 119
8, 129900, Control_c, 2, 11, 121
8, 129944, Note_on_c, 2, 79, 0
8, 129960, Note_on_c, 2, 77, 68
8, 129960, Control_c, 2, 11, 122
8, 130020, Control_c, 2, 11, 123
8, 130064, Note_on_c, 2, 77, 0
8, 130080, Control_c, 2, 11, 124
8, 130080, Note_on_c, 2, 79, 68
8, 130140, Control_c, 2, 11, 126
8, 130184, Note_on_c, 2, 79, 0
8, 130198, Control_c, 2, 11, 127
8, 130200, Note_on_c, 2, 81, 52
8, 130319, Note_on_c, 2, 81, 0
8, 131760, Note_on_c, 2, 81, 52
8, 131879, Note_on_c, 2, 81, 0
8, 131880, Note_on_c, 2, 82, 52
8, 131984, Note_on_c, 2, 82, 0
8, 132000, Note_on_c, 2, 84, 52
8, 132119, Note_on_c, 2, 84, 0
8, 132120, Note_on_c, 2, 82, 52
8, 132239, Note_on_c, 2, 82, 0
8, 132240, Note_on_c, 2, 81, 52
8, 132359, Note_on_c, 2, 81, 0
8, 132360, Note_on_c, 2, 79, 52
8, 132599, Note_on_c, 2, 79, 0
8, 132600, Note_on_c, 2, 81, 52
8, 132719, Note_on_c, 2, 81, 0
8, 132720, Note_on_c, 2, 82, 52
8, 132839, Note_on_c, 2, 82, 0
8, 132840, Note_on_c, 2, 79, 52
8, 132959, Note_on_c, 2, 79, 0
8, 132960, Note_on_c, 2, 81, 52
8, 133079, Note_on_c, 2, 81, 0
8, 133080, Note_on_c, 2, 77, 52
8, 133199, Note_on_c, 2, 77, 0
8, 133440, Note_on_c, 2, 81, 52
8, 133559, Note_on_c, 2, 81, 0
8, 133560, Note_on_c, 2, 84, 52
8, 133679, Note_on_c, 2, 84, 0
8, 133680, Note_on_c, 2, 82, 52
8, 133799, Note_on_c, 2, 82, 0
8, 134040, Control_c, 2, 11, 80
8, 134160, Note_on_c, 2, 79, 76
8, 134279, Note_on_c, 2, 79, 0
8, 134280, Note_on_c, 2, 82, 76
8, 134399, Note_on_c, 2, 82, 0
8, 134400, Note_on_c, 2, 81, 76
8, 134504, Note_on_c, 2, 81, 0
8, 134520, Note_on_c, 2, 77, 76
8, 134520, Control_c, 2, 11, 80
8, 134580, Control_c, 2, 11, 82
8, 134640, Control_c, 2, 11, 84
8, 134700, Control_c, 2, 11, 86
8, 134760, Control_c, 2, 11, 88
8, 134820, Control_c, 2, 11, 90
8, 134864, Note_on_c, 2, 77, 0
8, 134880, Note_on_c, 2, 84, 76
8, 134880, Control_c, 2, 11, 92
8, 134940, Control_c, 2, 11, 94
8, 135000, Control_c, 2, 11, 96
8, 135060, Control_c, 2, 11, 98
8, 135120, Control_c, 2, 11, 100
8, 135180, Control_c, 2, 11, 102
8, 135240, Control_c, 2, 11, 104
8, 135300, Control_c, 2, 11, 105
8, 135360, Control_c, 2, 11, 107
8, 135420, Control_c, 2, 11, 109
8, 135480, Control_c, 2, 11, 111
8, 135540, Control_c, 2, 11, 113
8, 135600, Control_c, 2, 11, 115
8, 135660, Control_c, 2, 11, 117
8, 135720, Control_c, 2, 11, 119
8, 135780, Control_c, 2, 11, 121
8, 135840, Control_c, 2, 11, 123
8, 135900, Control_c, 2, 11, 127
8, 135944, Note_on_c, 2, 84, 0
8, 135960, Note_on_c, 2, 77, 76
8, 136079, Note_on_c, 2, 77, 0
8, 137400, Note_on_c, 2, 72, 84
8, 137400, Note_on_c, 2, 77, 84
8, 137460, Control_c, 2, 11, 96
8, 137864, Note_on_c, 2, 72, 0
8, 137864, Note_on_c, 2, 77, 0
8, 137878, Control_c, 2, 11, 127
8, 137880, Note_on_c, 2, 72, 84
8, 137880, Note_on_c, 2, 77, 84
8, 137940, Control_c, 2, 11, 96
8, 138344, Note_on_c, 2, 72, 0
8, 138344, Note_on_c, 2, 77, 0
8, 138358, Control_c, 2, 11, 127
8, 138360, Note_on_c, 2, 77, 84
8, 138360, Note_on_c, 2, 74, 84
8, 138420, Control_c, 2, 11, 96
8, 138824, Note_on_c, 2, 77, 0
8, 138824, Note_on_c, 2, 74, 0
8, 138838, Control_c, 2, 11, 127
8, 138840, Note_on_c, 2, 77, 84
8, 138840, Note_on_c, 2, 72, 84
8, 138900, Control_c, 2, 11, 96
8, 139079, Note_on_c, 2, 72, 0
8, 139080, Note_on_c, 2, 74, 84
8, 139304, Note_on_c, 2, 77, 0
8, 139304, Note_on_c, 2, 74, 0
8, 139318, Control_c, 2, 11, 127
8, 139320, Note_on_c, 2, 77, 84
8, 139320, Note_on_c, 2, 72, 84
8, 139380, Control_c, 2, 11, 96
8, 139784, Note_on_c, 2, 77, 0
8, 139784, Note_on_c, 2, 72, 0
8, 139798, Control_c, 2, 11, 127
8, 139800, Note_on_c, 2, 72, 84
8, 139800, Note_on_c, 2, 77, 84
8, 139860, Control_c, 2, 11, 96
8, 140264, Note_on_c, 2, 72, 0
8, 140264, Note_on_c, 2, 77, 0
8, 140278, Control_c, 2, 11, 127
8, 140280, Note_on_c, 2, 77, 84
8, 140280, Note_on_c, 2, 74, 84
8, 140340, Control_c, 2, 11, 96
8, 140744, Note_on_c, 2, 77, 0
8, 140744, Note_on_c, 2, 74, 0
8, 140758, Control_c, 2, 11, 127
8, 140760, Note_on_c, 2, 77, 84
8, 140760, Note_on_c, 2, 72, 84
8, 140820, Control_c, 2, 11, 96
8, 140999, Note_on_c, 2, 72, 0
8, 141000, Note_on_c, 2, 74, 84
8, 141224, Note_on_c, 2, 77, 0
8, 141224, Note_on_c, 2, 74, 0
8, 141238, Control_c, 2, 11, 127
8, 141240, Note_on_c, 2, 72, 84
8, 141240, Note_on_c, 2, 77, 84
8, 141300, Control_c, 2, 11, 96
8, 141704, Note_on_c, 2, 72, 0
8, 141704, Note_on_c, 2, 77, 0
8, 141718, Control_c, 2, 11, 127
8, 141720, Note_on_c, 2, 77, 84
8, 141720, Note_on_c, 2, 72, 84
8, 141780, Control_c, 2, 11, 96
8, 142184, Note_on_c, 2, 77, 0
8, 142184, Note_on_c, 2, 72, 0
8, 142198, Control_c, 2, 11, 127
8, 142200, Note_on_c, 2, 74, 84
8, 142200, Note_on_c, 2, 77, 84
8, 142260, Control_c, 2, 11, 96
8, 142664, Note_on_c, 2, 74, 0
8, 142664, Note_on_c, 2, 77, 0
8, 142678, Control_c, 2, 11, 127
8, 142680, Note_on_c, 2, 77, 84
8, 142680, Note_on_c, 2, 72, 84
8, 142740, Control_c, 2, 11, 96
8, 142919, Note_on_c, 2, 72, 0
8, 142920, Note_on_c, 2, 74, 84
8, 143144, Note_on_c, 2, 77, 0
8, 143144, Note_on_c, 2, 74, 0
8, 143158, Control_c, 2, 11, 127
8, 143160, Note_on_c, 2, 77, 84
8, 143160, Note_on_c, 2, 72, 84
8, 143220, Control_c, 2, 11, 96
8, 143624, Note_on_c, 2, 77, 0
8, 143624, Note_on_c, 2, 72, 0
8, 143638, Control_c, 2, 11, 127
8, 143640, Note_on_c, 2, 77, 84
8, 143640, Note_on_c, 2, 72, 84
8, 143700, Control_c, 2, 11, 96
8, 144104, Note_on_c, 2, 77, 0
8, 144104, Note_on_c, 2, 72, 0
8, 144118, Control_c, 2, 11, 127
8, 144120, Note_on_c, 2, 77, 84
8, 144120, Note_on_c, 2, 74, 84
8, 144180, Control_c, 2, 11, 96
8, 144584, Note_on_c, 2, 77, 0
8, 144584, Note_on_c, 2, 74, 0
8, 144598, Control_c, 2, 11, 127
8, 144600, Note_on_c, 2, 77, 84
8, 144600, Note_on_c, 2, 72, 84
8, 144660, Control_c, 2, 11, 96
8, 144839, Note_on_c, 2, 72, 0
8, 144840, Note_on_c, 2, 74, 84
8, 145064, Note_on_c, 2, 77, 0
8, 145064, Note_on_c, 2, 74, 0
8, 145078, Control_c, 2, 11, 127
8, 146040, Note_on_c, 2, 81, 84
8, 146040, Note_on_c, 2, 77, 84
8, 146100, Control_c, 2, 11, 96
8, 146504, Note_on_c, 2, 81, 0
8, 146504, Note_on_c, 2, 77, 0
8, 146520, Note_on_c, 2, 79, 84
8, 146520, Note_on_c, 2, 76, 84
8, 146744, Note_on_c, 2, 79, 0
8, 146744, Note_on_c, 2, 76, 0
8, 146760, Note_on_c, 2, 81, 84
8, 146760, Note_on_c, 2, 77, 84
8, 146999, Note_on_c, 2, 81, 0
8, 146999, Note_on_c, 2, 77, 0
8, 147960, Note_on_c, 2, 77, 84
8, 147960, Note_on_c, 2, 81, 84
8, 148020, Control_c, 2, 11, 96
8, 148424, Note_on_c, 2, 77, 0
8, 148424, Note_on_c, 2, 81, 0
8, 148440, Note_on_c, 2, 79, 84
8, 148440, Note_on_c, 2, 76, 84
8, 148664, Note_on_c, 2, 79, 0
8, 148664, Note_on_c, 2, 76, 0
8, 148680, Note_on_c, 2, 77, 84
8, 148680, Note_on_c, 2, 81, 84
8, 148904, Note_on_c, 2, 77, 0
8, 148904, Note_on_c, 2, 81, 0
8, 148918, Control_c, 2, 11, 127
8, 148920, Note_on_c, 2, 72, 84
8, 148920, Note_on_c, 2, 64, 84
8, 149159, Note_on_c, 2, 72, 0
8, 149159, Note_on_c, 2, 64, 0
8, 149160, Note_on_c, 2, 77, 84
8, 149160, Note_on_c, 2, 74, 84
8, 149399, Note_on_c, 2, 77, 0
8, 149399, Note_on_c, 2, 74, 0
8, 149400, Note_on_c, 2, 76, 84
8, 149400, Note_on_c, 2, 72, 84
8, 149744, Note_on_c, 2, 76, 0
8, 149744, Note_on_c, 2, 72, 0
8, 149760, Note_on_c, 2, 77, 84
8, 149760, Note_on_c, 2, 81, 84
8, 149864, Note_on_c, 2, 77, 0
8, 149864, Note_on_c, 2, 81, 0
8, 149880, Note_on_c, 2, 76, 84
8, 149880, Note_on_c, 2, 79, 84
8, 149999, Note_on_c, 2, 76, 0
8, 149999, Note_on_c, 2, 79, 0
8, 150120, Note_on_c, 2, 77, 84
8, 150120, Note_on_c, 2, 74, 84
8, 150239, Note_on_c, 2, 77, 0
8, 150239, Note_on_c, 2, 74, 0
8, 150360, Note_on_c, 2, 76, 84
8, 150360, Note_on_c, 2, 72, 84
8, 150479, Note_on_c, 2, 76, 0
8, 150479, Note_on_c, 2, 72, 0
8, 150600, Note_on_c, 2, 74, 84
8, 150600, Note_on_c, 2, 71, 84
8, 150719, Note_on_c, 2, 74, 0
8, 150719, Note_on_c, 2, 71, 0
8, 150840, Note_on_c, 2, 72, 84
8, 150840, Note_on_c, 2, 64, 84
8, 150944, Note_on_c, 2, 72, 0
8, 150944, Note_on_c, 2, 64, 0
8, 150960, Note_on_c, 2, 64, 84
8, 150960, Note_on_c, 2, 72, 84
8, 151064, Note_on_c, 2, 64, 0
8, 151064, Note_on_c, 2, 72, 0
8, 151080, Note_on_c, 2, 74, 84
8, 151080, Note_on_c, 2, 77, 84
8, 151184, Note_on_c, 2, 74, 0
8, 151184, Note_on_c, 2, 77, 0
8, 151200, Note_on_c, 2, 77, 84
8, 151200, Note_on_c, 2, 74, 84
8, 151304, Note_on_c, 2, 77, 0
8, 151304, Note_on_c, 2, 74, 0
8, 151320, Note_on_c, 2, 72, 84
8, 151320, Note_on_c, 2, 76, 84
8, 151424, Note_on_c, 2, 72, 0
8, 151424, Note_on_c, 2, 76, 0
8, 151440, Note_on_c, 2, 76, 84
8, 151440, Note_on_c, 2, 72, 84
8, 151559, Note_on_c, 2, 76, 0
8, 151559, Note_on_c, 2, 72, 0
8, 151680, Note_on_c, 2, 81, 84
8, 151680, Note_on_c, 2, 77, 84
8, 151799, Note_on_c, 2, 81, 0
8, 151799, Note_on_c, 2, 77, 0
8, 151920, Note_on_c, 2, 79, 84
8, 151920, Note_on_c, 2, 76, 84
8, 152039, Note_on_c, 2, 79, 0
8, 152039, Note_on_c, 2, 76, 0
8, 152160, Note_on_c, 2, 77, 84
8, 152160, Note_on_c, 2, 74, 84
8, 152279, Note_on_c, 2, 77, 0
8, 152279, Note_on_c, 2, 74, 0
8, 152400, Note_on_c, 2, 76, 84
8, 152400, Note_on_c, 2, 72, 84
8, 152519, Note_on_c, 2, 76, 0
8, 152519, Note_on_c, 2, 72, 0
8, 152640, Note_on_c, 2, 74, 84
8, 152640, Note_on_c, 2, 71, 84
8, 152744, Note_on_c, 2, 74, 0
8, 152744, Note_on_c, 2, 71, 0
8, 152758, Control_c, 2, 11, 112
8, 152760, Note_on_c, 2, 72, 92
8, 152760, Control_c, 2, 11, 112
8, 152952, Control_c, 2, 11, 113
8, 153104, Note_on_c, 2, 72, 0
8, 153120, Note_on_c, 2, 76, 92
8, 153144, Control_c, 2, 11, 114
8, 153224, Note_on_c, 2, 76, 0
8, 153240, Note_on_c, 2, 76, 92
8, 153336, Control_c, 2, 11, 115
8, 153528, Control_c, 2, 11, 116
8, 153584, Note_on_c, 2, 76, 0
8, 153600, Note_on_c, 2, 72, 92
8, 153704, Note_on_c, 2, 72, 0
8, 153720, Control_c, 2, 11, 117
8, 153720, Note_on_c, 2, 72, 92
8, 153912, Control_c, 2, 11, 118
8, 154064, Note_on_c, 2, 72, 0
8, 154080, Note_on_c, 2, 79, 92
8, 154104, Control_c, 2, 11, 119
8, 154184, Note_on_c, 2, 79, 0
8, 154200, Note_on_c, 2, 79, 92
8, 154296, Control_c, 2, 11, 120
8, 154488, Control_c, 2, 11, 121
8, 154544, Note_on_c, 2, 79, 0
8, 154560, Note_on_c, 2, 72, 92
8, 154664, Note_on_c, 2, 72, 0
8, 154680, Control_c, 2, 11, 122
8, 154680, Note_on_c, 2, 72, 92
8, 154784, Note_on_c, 2, 72, 0
8, 154800, Note_on_c, 2, 84, 92
8, 154800, Note_on_c, 2, 76, 92
8, 154872, Control_c, 2, 11, 123
8, 154904, Note_on_c, 2, 84, 0
8, 154904, Note_on_c, 2, 76, 0
8, 154920, Note_on_c, 2, 76, 92
8, 154920, Note_on_c, 2, 84, 92
8, 155024, Note_on_c, 2, 76, 0
8, 155024, Note_on_c, 2, 84, 0
8, 155040, Note_on_c, 2, 84, 92
8, 155040, Note_on_c, 2, 76, 92
8, 155064, Control_c, 2, 11, 124
8, 155144, Note_on_c, 2, 84, 0
8, 155144, Note_on_c, 2, 76, 0
8, 155160, Note_on_c, 2, 84, 92
8, 155160, Note_on_c, 2, 76, 92
8, 155256, Control_c, 2, 11, 125
8, 155264, Note_on_c, 2, 84, 0
8, 155264, Note_on_c, 2, 76, 0
8, 155280, Note_on_c, 2, 76, 92
8, 155280, Note_on_c, 2, 84, 92
8, 155384, Note_on_c, 2, 76, 0
8, 155384, Note_on_c, 2, 84, 0
8, 155400, Note_on_c, 2, 76, 92
8, 155400, Note_on_c, 2, 84, 92
8, 155448, Control_c, 2, 11, 127
8, 155504, Note_on_c, 2, 76, 0
8, 155504, Note_on_c, 2, 84, 0
8, 155520, Note_on_c, 2, 84, 92
8, 155520, Note_on_c, 2, 76, 92
8, 155624, Note_on_c, 2, 84, 0
8, 155624, Note_on_c, 2, 76, 0
8, 155640, Note_on_c, 2, 76, 84
8, 155640, Note_on_c, 2, 84, 84
8, 155759, Note_on_c, 2, 76, 0
8, 155759, Note_on_c, 2, 84, 0
8, 156120, Note_on_c, 2, 72, 52
8, 156120, Note_on_c, 2, 76, 52
8, 156239, Note_on_c, 2, 72, 0
8, 156239, Note_on_c, 2, 76, 0
8, 161280, Note_on_c, 2, 81, 64
8, 161399, Note_on_c, 2, 81, 0
8, 161400, Note_on_c, 2, 84, 68
8, 161400, Note_on_c, 2, 72, 68
8, 161519, Note_on_c, 2, 84, 0
8, 161519, Note_on_c, 2, 72, 0
8, 161520, Note_on_c, 2, 74, 72
8, 161520, Note_on_c, 2, 82, 72
8, 161579, Note_on_c, 2, 74, 0
8, 161579, Note_on_c, 2, 82, 0
8, 161580, Note_on_c, 2, 79, 74
8, 161580, Note_on_c, 2, 70, 74
8, 161631, Note_on_c, 2, 79, 0
8, 161631, Note_on_c, 2, 70, 0
8, 161640, Note_on_c, 2, 69, 76
8, 161640, Note_on_c, 2, 77, 76
8, 161759, Note_on_c, 2, 69, 0
8, 161759, Note_on_c, 2, 77, 0
8, 164640, Note_on_c, 2, 81, 48
8, 164759, Note_on_c, 2, 81, 0
8, 164760, Note_on_c, 2, 82, 48
8, 164879, Note_on_c, 2, 82, 0
8, 164880, Note_on_c, 2, 81, 48
8, 164999, Note_on_c, 2, 81, 0
8, 165000, Note_on_c, 2, 77, 48
8, 165119, Note_on_c, 2, 77, 0
8, 165120, Note_on_c, 2, 79, 48
8, 165239, Note_on_c, 2, 79, 0
8, 165240, Note_on_c, 2, 77, 48
8, 165344, Note_on_c, 2, 77, 0
8, 165360, Note_on_c, 2, 77, 48
8, 165479, Note_on_c, 2, 77, 0
8, 165480, Note_on_c, 2, 76, 48
8, 165599, Note_on_c, 2, 76, 0
8, 165600, Note_on_c, 2, 77, 48
8, 165719, Note_on_c, 2, 77, 0
8, 167280, Note_on_c, 2, 72, 84
8, 167369, Note_on_c, 2, 72, 0
8, 167400, Note_on_c, 2, 77, 84
8, 167489, Note_on_c, 2, 77, 0
8, 167520, Note_on_c, 2, 72, 84
8, 167609, Note_on_c, 2, 72, 0
8, 167640, Note_on_c, 2, 74, 84
8, 167729, Note_on_c, 2, 74, 0
8, 167760, Note_on_c, 2, 72, 84
8, 167849, Note_on_c, 2, 72, 0
8, 167880, Note_on_c, 2, 81, 84
8, 167880, Note_on_c, 2, 69, 84
8, 167969, Note_on_c, 2, 81, 0
8, 167969, Note_on_c, 2, 69, 0
8, 168000, Note_on_c, 2, 70, 84
8, 168000, Note_on_c, 2, 82, 84
8, 168089, Note_on_c, 2, 70, 0
8, 168089, Note_on_c, 2, 82, 0
8, 168120, Note_on_c, 2, 81, 92
8, 168120, Note_on_c, 2, 69, 92
8, 168209, Note_on_c, 2, 81, 0
8, 168209, Note_on_c, 2, 69, 0
8, 168240, Note_on_c, 2, 77, 84
8, 168240, Note_on_c, 2, 65, 84
8, 168329, Note_on_c, 2, 77, 0
8, 168329, Note_on_c, 2, 65, 0
8, 168360, Note_on_c, 2, 67, 84
8, 168360, Note_on_c, 2, 79, 84
8, 168449, Note_on_c, 2, 67, 0
8, 168449, Note_on_c, 2, 79, 0
8, 168480, Note_on_c, 2, 81, 92
8, 168480, Note_on_c, 2, 69, 92
8, 168569, Note_on_c, 2, 81, 0
8, 168569, Note_on_c, 2, 69, 0
8, 168600, Note_on_c, 2, 65, 84
8, 168600, Note_on_c, 2, 77, 84
8, 168689, Note_on_c, 2, 65, 0
8, 168689, Note_on_c, 2, 77, 0
8, 168720, Note_on_c, 2, 79, 84
8, 168720, Note_on_c, 2, 67, 84
8, 168809, Note_on_c, 2, 79, 0
8, 168809, Note_on_c, 2, 67, 0
8, 168840, Note_on_c, 2, 81, 92
8, 168840, Note_on_c, 2, 69, 92
8, 168929, Note_on_c, 2, 81, 0
8, 168929, Note_on_c, 2, 69, 0
8, 168960, Note_on_c, 2, 77, 84
8, 168960, Note_on_c, 2, 65, 84
8, 169049, Note_on_c, 2, 77, 0
8, 169049, Note_on_c, 2, 65, 0
8, 169080, Note_on_c, 2, 79, 84
8, 169080, Note_on_c, 2, 67, 84
8, 169169, Note_on_c, 2, 79, 0
8, 169169, Note_on_c, 2, 67, 0
8, 169200, Note_on_c, 2, 69, 84
8, 169200, Note_on_c, 2, 81, 92
8, 169289, Note_on_c, 2, 69, 0
8, 169289, Note_on_c, 2, 81, 0
8, 169320, Note_on_c, 2, 77, 84
8, 169320, Note_on_c, 2, 65, 84
8, 169409, Note_on_c, 2, 77, 0
8, 169409, Note_on_c, 2, 65, 0
8, 169440, Note_on_c, 2, 67, 84
8, 169440, Note_on_c, 2, 79, 84
8, 169529, Note_on_c, 2, 67, 0
8, 169529, Note_on_c, 2, 79, 0
8, 169560, Note_on_c, 2, 81, 92
8, 169560, Note_on_c, 2, 69, 92
8, 169620, Control_c, 2, 11, 112
8, 169844, Note_on_c, 2, 81, 0
8, 169860, Note_on_c, 2, 79, 92
8, 169889, Note_on_c, 2, 79, 0
8, 169890, Note_on_c, 2, 81, 92
8, 169899, Note_on_c, 2, 69, 0
8, 169919, Note_on_c, 2, 81, 0
8, 169920, Note_on_c, 2, 79, 92
8, 169920, Note_on_c, 2, 67, 92
8, 170139, Note_on_c, 2, 79, 0
8, 170139, Note_on_c, 2, 67, 0
8, 170160, Note_on_c, 2, 65, 92
8, 170160, Note_on_c, 2, 77, 92
8, 170211, Note_on_c, 2, 77, 0
8, 170220, Note_on_c, 2, 76, 92
8, 170249, Note_on_c, 2, 76, 0
8, 170250, Note_on_c, 2, 77, 92
8, 170259, Note_on_c, 2, 65, 0
8, 170279, Note_on_c, 2, 77, 0
8, 170280, Note_on_c, 2, 76, 92
8, 170280, Note_on_c, 2, 64, 92
8, 170499, Note_on_c, 2, 76, 0
8, 170499, Note_on_c, 2, 64, 0
8, 170520, Note_on_c, 2, 74, 92
8, 170520, Note_on_c, 2, 62, 92
8, 170619, Note_on_c, 2, 74, 0
8, 170619, Note_on_c, 2, 62, 0
8, 170640, Note_on_c, 2, 60, 92
8, 170640, Note_on_c, 2, 72, 92
8, 170859, Note_on_c, 2, 60, 0
8, 170859, Note_on_c, 2, 72, 0
8, 170880, Note_on_c, 2, 76, 92
8, 170880, Note_on_c, 2, 72, 92
8, 170979, Note_on_c, 2, 76, 0
8, 170979, Note_on_c, 2, 72, 0
8, 170998, Control_c, 2, 11, 127
8, 171000, Note_on_c, 2, 77, 92
8, 171000, Note_on_c, 2, 72, 92
8, 171060, Control_c, 2, 11, 112
8, 171339, Note_on_c, 2, 77, 0
8, 171339, Note_on_c, 2, 72, 0
8, 171358, Control_c, 2, 11, 127
8, 171360, Note_on_c, 2, 67, 92
8, 171360, Note_on_c, 2, 77, 92
8, 171420, Control_c, 2, 11, 112
8, 171699, Note_on_c, 2, 67, 0
8, 171699, Note_on_c, 2, 77, 0
8, 171718, Control_c, 2, 11, 127
8, 171720, Note_on_c, 2, 77, 92
8, 171720, Note_on_c, 2, 69, 92
8, 171780, Control_c, 2, 11, 112
8, 172059, Note_on_c, 2, 77, 0
8, 172059, Note_on_c, 2, 69, 0
8, 172080, Note_on_c, 2, 72, 92
8, 172080, Note_on_c, 2, 76, 92
8, 172419, Note_on_c, 2, 72, 0
8, 172419, Note_on_c, 2, 76, 0
8, 172438, Control_c, 2, 11, 127
8, 172440, Note_on_c, 2, 77, 84
8, 172440, Note_on_c, 2, 72, 84
8, 172559, Note_on_c, 2, 77, 0
8, 172559, Note_on_c, 2, 72, 0
8, 172680, Note_on_c, 2, 81, 84
8, 172731, Note_on_c, 2, 81, 0
8, 172740, Note_on_c, 2, 79, 84
8, 172769, Note_on_c, 2, 79, 0
8, 172770, Note_on_c, 2, 81, 84
8, 172799, Note_on_c, 2, 81, 0
8, 172800, Note_on_c, 2, 79, 84
8, 173019, Note_on_c, 2, 79, 0
8, 173040, Note_on_c, 2, 77, 84
8, 173091, Note_on_c, 2, 77, 0
8, 173100, Note_on_c, 2, 76, 84
8, 173129, Note_on_c, 2, 76, 0
8, 173130, Note_on_c, 2, 77, 84
8, 173159, Note_on_c, 2, 77, 0
8, 173160, Note_on_c, 2, 76, 84
8, 173379, Note_on_c, 2, 76, 0
8, 173400, Note_on_c, 2, 74, 84
8, 173499, Note_on_c, 2, 74, 0
8, 173520, Note_on_c, 2, 72, 84
8, 173739, Note_on_c, 2, 72, 0
8, 173760, Note_on_c, 2, 76, 84
8, 173760, Note_on_c, 2, 72, 84
8, 173859, Note_on_c, 2, 76, 0
8, 173859, Note_on_c, 2, 72, 0
8, 173880, Note_on_c, 2, 72, 92
8, 173880, Note_on_c, 2, 77, 92
8, 173940, Control_c, 2, 11, 112
8, 174219, Note_on_c, 2, 72, 0
8, 174219, Note_on_c, 2, 77, 0
8, 174238, Control_c, 2, 11, 127
8, 174240, Note_on_c, 2, 79, 92
8, 174240, Note_on_c, 2, 77, 92
8, 174300, Control_c, 2, 11, 112
8, 174579, Note_on_c, 2, 79, 0
8, 174579, Note_on_c, 2, 77, 0
8, 174598, Control_c, 2, 11, 127
8, 174600, Note_on_c, 2, 81, 92
8, 174600, Note_on_c, 2, 77, 92
8, 174660, Control_c, 2, 11, 112
8, 174939, Note_on_c, 2, 81, 0
8, 174939, Note_on_c, 2, 77, 0
8, 174958, Control_c, 2, 11, 127
8, 174960, Note_on_c, 2, 79, 92
8, 174960, Note_on_c, 2, 76, 92
8, 175020, Control_c, 2, 11, 112
8, 175299, Note_on_c, 2, 79, 0
8, 175299, Note_on_c, 2, 76, 0
8, 175318, Control_c, 2, 11, 127
8, 175320, Note_on_c, 2, 77, 92
8, 175320, Note_on_c, 2, 81, 92
8, 175439, Note_on_c, 2, 77, 0
8, 175439, Note_on_c, 2, 81, 0
8, 176400, Note_on_c, 2, 76, 84
8, 176400, Note_on_c, 2, 79, 84
8, 176499, Note_on_c, 2, 76, 0
8, 176499, Note_on_c, 2, 79, 0
8, 176520, Note_on_c, 2, 79, 84
8, 176520, Note_on_c, 2, 76, 84
8, 176619, Note_on_c, 2, 79, 0
8, 176619, Note_on_c, 2, 76, 0
8, 176640, Note_on_c, 2, 79, 84
8, 176640, Note_on_c, 2, 76, 84
8, 176739, Note_on_c, 2, 79, 0
8, 176739, Note_on_c, 2, 76, 0
8, 176760, Note_on_c, 2, 81, 92
8, 176760, Note_on_c, 2, 77, 92
8, 176879, Note_on_c, 2, 81, 0
8, 176879, Note_on_c, 2, 77, 0
8, 177840, Note_on_c, 2, 79, 84
8, 177840, Note_on_c, 2, 76, 84
8, 177939, Note_on_c, 2, 79, 0
8, 177939, Note_on_c, 2, 76, 0
8, 177960, Note_on_c, 2, 76, 84
8, 177960, Note_on_c, 2, 79, 84
8, 178059, Note_on_c, 2, 76, 0
8, 178059, Note_on_c, 2, 79, 0
8, 178080, Note_on_c, 2, 76, 84
8, 178080, Note_on_c, 2, 79, 84
8, 178199, Note_on_c, 2, 76, 0
8, 178199, Note_on_c, 2, 79, 0
8, 178199, End_track
9, 0, Start_track
9, 0, Title_t, "Clarinet in B-flat "
9, 0, MIDI_port, 0
9, 0, Program_c, 3, 71
9, 0, Control_c, 3, 7, 88
9, 0, Control_c, 3, 11, 127
9, 0, Control_c, 3, 10, 75
9, 12960, Note_on_c, 3, 74, 44
9, 12960, Note_on_c, 3, 62, 44
9, 13049, Note_on_c, 3, 74, 0
9, 13049, Note_on_c, 3, 62, 0
9, 13080, Note_on_c, 3, 67, 44
9, 13080, Note_on_c, 3, 79, 44
9, 13169, Note_on_c, 3, 67, 0
9, 13169, Note_on_c, 3, 79, 0
9, 13200, Note_on_c, 3, 74, 44
9, 13200, Note_on_c, 3, 62, 44
9, 13289, Note_on_c, 3, 74, 0
9, 13289, Note_on_c, 3, 62, 0
9, 13320, Note_on_c, 3, 64, 44
9, 13320, Note_on_c, 3, 76, 44
9, 13409, Note_on_c, 3, 64, 0
9, 13409, Note_on_c, 3, 76, 0
9, 13440, Note_on_c, 3, 62, 44
9, 13440, Note_on_c, 3, 74, 44
9, 13529, Note_on_c, 3, 62, 0
9, 13529, Note_on_c, 3, 74, 0
9, 13560, Note_on_c, 3, 59, 44
9, 13560, Note_on_c, 3, 71, 44
9, 13649, Note_on_c, 3, 59, 0
9, 13649, Note_on_c, 3, 71, 0
9, 13680, Note_on_c, 3, 72, 44
9, 13680, Note_on_c, 3, 60, 44
9, 13769, Note_on_c, 3, 72, 0
9, 13769, Note_on_c, 3, 60, 0
9, 13800, Note_on_c, 3, 71, 44
9, 13800, Note_on_c, 3, 59, 44
9, 13889, Note_on_c, 3, 71, 0
9, 13889, Note_on_c, 3, 59, 0
9, 13920, Note_on_c, 3, 67, 44
9, 13920, Note_on_c, 3, 55, 44
9, 14009, Note_on_c, 3, 67, 0
9, 14009, Note_on_c, 3, 55, 0
9, 14040, Note_on_c, 3, 57, 44
9, 14040, Note_on_c, 3, 69, 44
9, 14129, Note_on_c, 3, 57, 0
9, 14129, Note_on_c, 3, 69, 0
9, 14160, Note_on_c, 3, 59, 44
9, 14160, Note_on_c, 3, 71, 44
9, 14249, Note_on_c, 3, 59, 0
9, 14249, Note_on_c, 3, 71, 0
9, 14280, Note_on_c, 3, 55, 44
9, 14280, Note_on_c, 3, 67, 44
9, 14399, Note_on_c, 3, 55, 0
9, 14399, Note_on_c, 3, 67, 0
9, 16080, Note_on_c, 3, 64, 44
9, 16080, Note_on_c, 3, 67, 44
9, 16199, Note_on_c, 3, 64, 0
9, 16199, Note_on_c, 3, 67, 0
9, 16200, Note_on_c, 3, 65, 44
9, 16200, Note_on_c, 3, 69, 44
9, 16319, Note_on_c, 3, 65, 0
9, 16319, Note_on_c, 3, 69, 0
9, 16320, Note_on_c, 3, 67, 44
9, 16320, Note_on_c, 3, 64, 44
9, 16424, Note_on_c, 3, 67, 0
9, 16439, Note_on_c, 3, 64, 0
9, 16440, Note_on_c, 3, 60, 44
9, 16440, Note_on_c, 3, 67, 44
9, 16544, Note_on_c, 3, 60, 0
9, 16559, Note_on_c, 3, 67, 0
9, 16560, Note_on_c, 3, 60, 44
9, 16560, Note_on_c, 3, 69, 44
9, 16679, Note_on_c, 3, 60, 0
9, 16679, Note_on_c, 3, 69, 0
9, 16680, Note_on_c, 3, 60, 44
9, 16680, Note_on_c, 3, 67, 44
9, 16799, Note_on_c, 3, 60, 0
9, 16799, Note_on_c, 3, 67, 0
9, 16800, Note_on_c, 3, 72, 44
9, 16800, Note_on_c, 3, 64, 44
9, 16919, Note_on_c, 3, 72, 0
9, 16919, Note_on_c, 3, 64, 0
9, 16920, Note_on_c, 3, 71, 44
9, 16920, Note_on_c, 3, 65, 44
9, 17039, Note_on_c, 3, 71, 0
9, 17039, Note_on_c, 3, 65, 0
9, 17040, Note_on_c, 3, 64, 44
9, 17040, Note_on_c, 3, 72, 44
9, 17159, Note_on_c, 3, 64, 0
9, 17159, Note_on_c, 3, 72, 0
9, 17987, Control_c, 3, 11, 92
9, 18000, Note_on_c, 3, 72, 84
9, 18000, Note_on_c, 3, 60, 84
9, 18023, Control_c, 3, 11, 94
9, 18060, Control_c, 3, 11, 96
9, 18097, Control_c, 3, 11, 97
9, 18104, Note_on_c, 3, 72, 0
9, 18104, Note_on_c, 3, 60, 0
9, 18120, Note_on_c, 3, 60, 84
9, 18120, Note_on_c, 3, 72, 84
9, 18133, Control_c, 3, 11, 99
9, 18170, Control_c, 3, 11, 101
9, 18207, Control_c, 3, 11, 103
9, 18224, Note_on_c, 3, 60, 0
9, 18224, Note_on_c, 3, 72, 0
9, 18240, Note_on_c, 3, 60, 84
9, 18240, Note_on_c, 3, 72, 84
9, 18243, Control_c, 3, 11, 104
9, 18280, Control_c, 3, 11, 106
9, 18317, Control_c, 3, 11, 108
9, 18344, Note_on_c, 3, 60, 0
9, 18344, Note_on_c, 3, 72, 0
9, 18353, Control_c, 3, 11, 110
9, 18360, Note_on_c, 3, 72, 84
9, 18360, Note_on_c, 3, 60, 84
9, 18390, Control_c, 3, 11, 111
9, 18427, Control_c, 3, 11, 113
9, 18463, Control_c, 3, 11, 115
9, 18464, Note_on_c, 3, 72, 0
9, 18464, Note_on_c, 3, 60, 0
9, 18480, Note_on_c, 3, 72, 84
9, 18480, Note_on_c, 3, 60, 84
9, 18500, Control_c, 3, 11, 117
9, 18537, Control_c, 3, 11, 118
9, 18573, Control_c, 3, 11, 120
9, 18584, Note_on_c, 3, 72, 0
9, 18584, Note_on_c, 3, 60, 0
9, 18600, Note_on_c, 3, 72, 84
9, 18600, Note_on_c, 3, 60, 84
9, 18610, Control_c, 3, 11, 122
9, 18647, Control_c, 3, 11, 124
9, 18683, Control_c, 3, 11, 125
9, 18704, Note_on_c, 3, 72, 0
9, 18704, Note_on_c, 3, 60, 0
9, 18718, Control_c, 3, 11, 127
9, 18720, Note_on_c, 3, 60, 84
9, 18720, Note_on_c, 3, 72, 84
9, 18824, Note_on_c, 3, 60, 0
9, 18824, Note_on_c, 3, 72, 0
9, 18840, Note_on_c, 3, 65, 84
9, 18840, Note_on_c, 3, 77, 84
9, 18944, Note_on_c, 3, 65, 0
9, 18944, Note_on_c, 3, 77, 0
9, 18960, Note_on_c, 3, 65, 84
9, 18960, Note_on_c, 3, 77, 84
9, 19064, Note_on_c, 3, 65, 0
9, 19064, Note_on_c, 3, 77, 0
9, 19080, Note_on_c, 3, 77, 84
9, 19080, Note_on_c, 3, 65, 84
9, 19184, Note_on_c, 3, 77, 0
9, 19184, Note_on_c, 3, 65, 0
9, 19200, Note_on_c, 3, 77, 84
9, 19200, Note_on_c, 3, 65, 84
9, 19304, Note_on_c, 3, 77, 0
9, 19304, Note_on_c, 3, 65, 0
9, 19320, Note_on_c, 3, 77, 84
9, 19320, Note_on_c, 3, 65, 84
9, 19424, Note_on_c, 3, 77, 0
9, 19424, Note_on_c, 3, 65, 0
9, 19440, Note_on_c, 3, 77, 84
9, 19440, Note_on_c, 3, 65, 84
9, 19544, Note_on_c, 3, 77, 0
9, 19544, Note_on_c, 3, 65, 0
9, 19560, Note_on_c, 3, 77, 92
9, 19560, Note_on_c, 3, 65, 92
9, 19664, Note_on_c, 3, 77, 0
9, 19664, Note_on_c, 3, 65, 0
9, 19680, Note_on_c, 3, 65, 84
9, 19680, Note_on_c, 3, 77, 84
9, 19784, Note_on_c, 3, 65, 0
9, 19784, Note_on_c, 3, 77, 0
9, 19800, Note_on_c, 3, 79, 84
9, 19800, Note_on_c, 3, 67, 84
9, 19904, Note_on_c, 3, 79, 0
9, 19904, Note_on_c, 3, 67, 0
9, 19920, Note_on_c, 3, 69, 92
9, 19920, Note_on_c, 3, 81, 92
9, 20024, Note_on_c, 3, 69, 0
9, 20024, Note_on_c, 3, 81, 0
9, 20040, Note_on_c, 3, 77, 84
9, 20040, Note_on_c, 3, 65, 84
9, 20144, Note_on_c, 3, 77, 0
9, 20144, Note_on_c, 3, 65, 0
9, 20160, Note_on_c, 3, 79, 84
9, 20160, Note_on_c, 3, 67, 84
9, 20264, Note_on_c, 3, 79, 0
9, 20264, Note_on_c, 3, 67, 0
9, 20280, Note_on_c, 3, 81, 92
9, 20280, Note_on_c, 3, 69, 92
9, 20384, Note_on_c, 3, 81, 0
9, 20384, Note_on_c, 3, 69, 0
9, 20400, Note_on_c, 3, 65, 84
9, 20400, Note_on_c, 3, 77, 84
9, 20504, Note_on_c, 3, 65, 0
9, 20504, Note_on_c, 3, 77, 0
9, 20520, Note_on_c, 3, 67, 84
9, 20520, Note_on_c, 3, 79, 84
9, 20624, Note_on_c, 3, 67, 0
9, 20624, Note_on_c, 3, 79, 0
9, 20640, Note_on_c, 3, 81, 92
9, 20640, Note_on_c, 3, 69, 92
9, 20744, Note_on_c, 3, 81, 0
9, 20744, Note_on_c, 3, 69, 0
9, 20760, Note_on_c, 3, 77, 84
9, 20760, Note_on_c, 3, 65, 84
9, 20864, Note_on_c, 3, 77, 0
9, 20864, Note_on_c, 3, 65, 0
9, 20880, Note_on_c, 3, 67, 84
9, 20880, Note_on_c, 3, 79, 84
9, 20984, Note_on_c, 3, 67, 0
9, 20984, Note_on_c, 3, 79, 0
9, 21000, Note_on_c, 3, 81, 92
9, 21000, Note_on_c, 3, 69, 92
9, 21060, Control_c, 3, 11, 112
9, 21344, Note_on_c, 3, 81, 0
9, 21344, Note_on_c, 3, 69, 0
9, 21360, Note_on_c, 3, 67, 92
9, 21360, Note_on_c, 3, 79, 92
9, 21584, Note_on_c, 3, 67, 0
9, 21584, Note_on_c, 3, 79, 0
9, 21600, Note_on_c, 3, 77, 92
9, 21600, Note_on_c, 3, 65, 92
9, 21704, Note_on_c, 3, 77, 0
9, 21704, Note_on_c, 3, 65, 0
9, 21720, Note_on_c, 3, 76, 92
9, 21720, Note_on_c, 3, 64, 92
9, 21944, Note_on_c, 3, 76, 0
9, 21944, Note_on_c, 3, 64, 0
9, 21960, Note_on_c, 3, 62, 92
9, 21960, Note_on_c, 3, 74, 92
9, 22064, Note_on_c, 3, 62, 0
9, 22064, Note_on_c, 3, 74, 0
9, 22080, Note_on_c, 3, 74, 92
9, 22080, Note_on_c, 3, 62, 92
9, 22304, Note_on_c, 3, 74, 0
9, 22304, Note_on_c, 3, 62, 0
9, 22320, Note_on_c, 3, 72, 92
9, 22320, Note_on_c, 3, 67, 92
9, 22424, Note_on_c, 3, 72, 0
9, 22424, Note_on_c, 3, 67, 0
9, 22438, Control_c, 3, 11, 127
9, 22440, Note_on_c, 3, 65, 92
9, 22440, Note_on_c, 3, 72, 92
9, 22500, Control_c, 3, 11, 112
9, 22784, Note_on_c, 3, 65, 0
9, 22784, Note_on_c, 3, 72, 0
9, 22798, Control_c, 3, 11, 127
9, 22800, Note_on_c, 3, 77, 92
9, 22800, Note_on_c, 3, 74, 92
9, 22860, Control_c, 3, 11, 112
9, 23144, Note_on_c, 3, 77, 0
9, 23144, Note_on_c, 3, 74, 0
9, 23158, Control_c, 3, 11, 127
9, 23160, Note_on_c, 3, 69, 92
9, 23160, Note_on_c, 3, 72, 92
9, 23220, Control_c, 3, 11, 112
9, 23504, Note_on_c, 3, 69, 0
9, 23504, Note_on_c, 3, 72, 0
9, 23518, Control_c, 3, 11, 127
9, 23520, Note_on_c, 3, 72, 92
9, 23520, Note_on_c, 3, 64, 92
9, 23580, Control_c, 3, 11, 112
9, 23864, Note_on_c, 3, 72, 0
9, 23864, Note_on_c, 3, 64, 0
9, 23878, Control_c, 3, 11, 127
9, 23880, Note_on_c, 3, 72, 92
9, 23880, Note_on_c, 3, 65, 92
9, 23940, Control_c, 3, 11, 112
9, 23999, Note_on_c, 3, 72, 0
9, 23999, Note_on_c, 3, 65, 0
9, 24840, Note_on_c, 3, 60, 92
9, 24840, Note_on_c, 3, 72, 92
9, 24944, Note_on_c, 3, 60, 0
9, 24944, Note_on_c, 3, 72, 0
9, 24960, Note_on_c, 3, 72, 92
9, 24960, Note_on_c, 3, 60, 92
9, 25184, Note_on_c, 3, 72, 0
9, 25184, Note_on_c, 3, 60, 0
9, 25200, Note_on_c, 3, 64, 92
9, 25200, Note_on_c, 3, 67, 92
9, 25304, Note_on_c, 3, 64, 0
9, 25304, Note_on_c, 3, 67, 0
9, 25318, Control_c, 3, 11, 127
9, 25320, Note_on_c, 3, 69, 92
9, 25320, Note_on_c, 3, 65, 92
9, 25380, Control_c, 3, 11, 112
9, 25664, Note_on_c, 3, 69, 0
9, 25664, Note_on_c, 3, 65, 0
9, 25678, Control_c, 3, 11, 127
9, 25680, Note_on_c, 3, 65, 92
9, 25680, Note_on_c, 3, 67, 92
9, 25740, Control_c, 3, 11, 112
9, 26024, Note_on_c, 3, 65, 0
9, 26024, Note_on_c, 3, 67, 0
9, 26038, Control_c, 3, 11, 127
9, 26040, Note_on_c, 3, 69, 92
9, 26040, Note_on_c, 3, 65, 92
9, 26100, Control_c, 3, 11, 112
9, 26384, Note_on_c, 3, 69, 0
9, 26384, Note_on_c, 3, 65, 0
9, 26398, Control_c, 3, 11, 127
9, 26400, Note_on_c, 3, 67, 92
9, 26400, Note_on_c, 3, 64, 92
9, 26460, Control_c, 3, 11, 112
9, 26744, Note_on_c, 3, 67, 0
9, 26744, Note_on_c, 3, 64, 0
9, 26758, Control_c, 3, 11, 127
9, 26760, Note_on_c, 3, 57, 84
9, 26760, Note_on_c, 3, 65, 84
9, 26864, Note_on_c, 3, 65, 0
9, 26879, Note_on_c, 3, 57, 0
9, 27840, Note_on_c, 3, 76, 84
9, 27840, Note_on_c, 3, 67, 84
9, 27944, Note_on_c, 3, 76, 0
9, 27944, Note_on_c, 3, 67, 0
9, 27960, Note_on_c, 3, 76, 84
9, 27960, Note_on_c, 3, 67, 84
9, 28064, Note_on_c, 3, 76, 0
9, 28064, Note_on_c, 3, 67, 0
9, 28080, Note_on_c, 3, 67, 84
9, 28080, Note_on_c, 3, 76, 84
9, 28184, Note_on_c, 3, 67, 0
9, 28184, Note_on_c, 3, 76, 0
9, 28200, Note_on_c, 3, 69, 92
9, 28200, Note_on_c, 3, 77, 92
9, 28319, Note_on_c, 3, 69, 0
9, 28319, Note_on_c, 3, 77, 0
9, 29280, Note_on_c, 3, 76, 84
9, 29280, Note_on_c, 3, 67, 84
9, 29384, Note_on_c, 3, 76, 0
9, 29384, Note_on_c, 3, 67, 0
9, 29400, Note_on_c, 3, 76, 84
9, 29400, Note_on_c, 3, 67, 84
9, 29504, Note_on_c, 3, 76, 0
9, 29504, Note_on_c, 3, 67, 0
9, 29520, Note_on_c, 3, 76, 84
9, 29520, Note_on_c, 3, 67, 84
9, 29624, Note_on_c, 3, 76, 0
9, 29624, Note_on_c, 3, 67, 0
9, 29640, Note_on_c, 3, 69, 92
9, 29640, Note_on_c, 3, 77, 92
9, 29759, Note_on_c, 3, 69, 0
9, 29759, Note_on_c, 3, 77, 0
9, 30360, Note_on_c, 3, 69, 92
9, 30360, Note_on_c, 3, 65, 92
9, 30479, Note_on_c, 3, 69, 0
9, 30479, Note_on_c, 3, 65, 0
9, 40800, Note_on_c, 3, 81, 48
9, 40919, Note_on_c, 3, 81, 0
9, 40920, Note_on_c, 3, 82, 48
9, 41039, Note_on_c, 3, 82, 0
9, 41040, Note_on_c, 3, 84, 48
9, 41159, Note_on_c, 3, 84, 0
9, 43680, Note_on_c, 3, 82, 52
9, 43799, Note_on_c, 3, 82, 0
9, 43800, Note_on_c, 3, 81, 52
9, 43919, Note_on_c, 3, 81, 0
9, 43920, Note_on_c, 3, 77, 52
9, 44024, Note_on_c, 3, 77, 0
9, 44040, Note_on_c, 3, 79, 52
9, 44129, Note_on_c, 3, 79, 0
9, 44160, Note_on_c, 3, 72, 52
9, 44264, Note_on_c, 3, 72, 0
9, 44280, Note_on_c, 3, 76, 52
9, 44504, Note_on_c, 3, 76, 0
9, 44520, Note_on_c, 3, 72, 52
9, 44609, Note_on_c, 3, 72, 0
9, 44640, Note_on_c, 3, 67, 52
9, 44864, Note_on_c, 3, 67, 0
9, 44880, Note_on_c, 3, 71, 52
9, 44939, Note_on_c, 3, 71, 0
9, 44940, Note_on_c, 3, 72, 52
9, 44999, Note_on_c, 3, 72, 0
9, 45000, Note_on_c, 3, 74, 52
9, 45224, Note_on_c, 3, 74, 0
9, 45240, Note_on_c, 3, 72, 52
9, 45359, Note_on_c, 3, 72, 0
9, 45360, Note_on_c, 3, 74, 52
9, 45479, Note_on_c, 3, 74, 0
9, 45480, Note_on_c, 3, 76, 52
9, 45599, Note_on_c, 3, 76, 0
9, 45600, Note_on_c, 3, 74, 52
9, 45719, Note_on_c, 3, 74, 0
9, 45720, Note_on_c, 3, 72, 52
9, 45839, Note_on_c, 3, 72, 0
9, 45840, Note_on_c, 3, 74, 52
9, 45959, Note_on_c, 3, 74, 0
9, 45960, Note_on_c, 3, 76, 52
9, 46079, Note_on_c, 3, 76, 0
9, 46080, Note_on_c, 3, 77, 52
9, 46199, Note_on_c, 3, 77, 0
9, 46200, Note_on_c, 3, 76, 52
9, 46319, Note_on_c, 3, 76, 0
9, 46320, Note_on_c, 3, 77, 52
9, 46439, Note_on_c, 3, 77, 0
9, 46440, Note_on_c, 3, 79, 52
9, 46971, Note_on_c, 3, 79, 0
9, 46980, Note_on_c, 3, 82, 53
9, 47031, Note_on_c, 3, 82, 0
9, 47040, Note_on_c, 3, 79, 54
9, 47091, Note_on_c, 3, 79, 0
9, 47100, Note_on_c, 3, 76, 56
9, 47151, Note_on_c, 3, 76, 0
9, 47160, Note_on_c, 3, 72, 57
9, 47211, Note_on_c, 3, 72, 0
9, 47220, Note_on_c, 3, 70, 58
9, 47271, Note_on_c, 3, 70, 0
9, 47280, Note_on_c, 3, 67, 60
9, 47331, Note_on_c, 3, 67, 0
9, 47340, Note_on_c, 3, 64, 61
9, 47391, Note_on_c, 3, 64, 0
9, 47400, Note_on_c, 3, 60, 62
9, 47451, Note_on_c, 3, 60, 0
9, 47460, Note_on_c, 3, 58, 64
9, 47511, Note_on_c, 3, 58, 0
9, 47520, Note_on_c, 3, 55, 65
9, 47571, Note_on_c, 3, 55, 0
9, 47580, Note_on_c, 3, 52, 66
9, 47631, Note_on_c, 3, 52, 0
9, 47640, Note_on_c, 3, 53, 52
9, 47759, Note_on_c, 3, 53, 0
9, 51356, Control_c, 3, 11, 114
9, 51360, Note_on_c, 3, 79, 68
9, 51403, Control_c, 3, 11, 115
9, 51449, Control_c, 3, 11, 116
9, 51464, Note_on_c, 3, 79, 0
9, 51480, Note_on_c, 3, 82, 68
9, 51495, Control_c, 3, 11, 117
9, 51542, Control_c, 3, 11, 118
9, 51588, Control_c, 3, 11, 119
9, 51635, Control_c, 3, 11, 120
9, 51681, Control_c, 3, 11, 121
9, 51704, Note_on_c, 3, 82, 0
9, 51720, Note_on_c, 3, 79, 68
9, 51728, Control_c, 3, 11, 122
9, 51774, Control_c, 3, 11, 123
9, 51821, Control_c, 3, 11, 124
9, 51824, Note_on_c, 3, 79, 0
9, 51840, Note_on_c, 3, 72, 68
9, 51867, Control_c, 3, 11, 125
9, 51914, Control_c, 3, 11, 127
9, 51944, Note_on_c, 3, 72, 0
9, 51960, Note_on_c, 3, 77, 52
9, 52079, Note_on_c, 3, 77, 0
9, 53520, Note_on_c, 3, 77, 52
9, 53639, Note_on_c, 3, 77, 0
9, 53640, Note_on_c, 3, 79, 52
9, 53759, Note_on_c, 3, 79, 0
9, 53760, Note_on_c, 3, 81, 52
9, 53879, Note_on_c, 3, 81, 0
9, 53880, Note_on_c, 3, 79, 52
9, 53999, Note_on_c, 3, 79, 0
9, 54000, Note_on_c, 3, 77, 52
9, 54104, Note_on_c, 3, 77, 0
9, 54120, Note_on_c, 3, 76, 52
9, 54359, Note_on_c, 3, 76, 0
9, 54360, Note_on_c, 3, 77, 52
9, 54479, Note_on_c, 3, 77, 0
9, 54480, Note_on_c, 3, 79, 52
9, 54599, Note_on_c, 3, 79, 0
9, 54600, Note_on_c, 3, 70, 52
9, 54719, Note_on_c, 3, 70, 0
9, 54720, Note_on_c, 3, 72, 52
9, 54839, Note_on_c, 3, 72, 0
9, 54840, Note_on_c, 3, 69, 52
9, 54959, Note_on_c, 3, 69, 0
9, 55200, Note_on_c, 3, 77, 52
9, 55319, Note_on_c, 3, 77, 0
9, 55320, Note_on_c, 3, 81, 52
9, 55439, Note_on_c, 3, 81, 0
9, 55440, Note_on_c, 3, 79, 52
9, 55559, Note_on_c, 3, 79, 0
9, 55800, Control_c, 3, 11, 80
9, 55920, Note_on_c, 3, 76, 76
9, 56039, Note_on_c, 3, 76, 0
9, 56040, Note_on_c, 3, 79, 76
9, 56159, Note_on_c, 3, 79, 0
9, 56160, Note_on_c, 3, 77, 76
9, 56264, Note_on_c, 3, 77, 0
9, 56280, Note_on_c, 3, 77, 76
9, 56280, Control_c, 3, 11, 80
9, 56340, Control_c, 3, 11, 82
9, 56400, Control_c, 3, 11, 84
9, 56460, Control_c, 3, 11, 86
9, 56520, Control_c, 3, 11, 88
9, 56580, Control_c, 3, 11, 90
9, 56639, Note_on_c, 3, 77, 0
9, 56640, Control_c, 3, 11, 92
9, 56640, Note_on_c, 3, 81, 76
9, 56700, Control_c, 3, 11, 94
9, 56759, Note_on_c, 3, 81, 0
9, 56760, Note_on_c, 3, 84, 76
9, 56760, Control_c, 3, 11, 96
9, 56820, Control_c, 3, 11, 98
9, 56879, Note_on_c, 3, 84, 0
9, 56880, Control_c, 3, 11, 100
9, 56880, Note_on_c, 3, 82, 76
9, 56940, Control_c, 3, 11, 102
9, 56999, Note_on_c, 3, 82, 0
9, 57000, Control_c, 3, 11, 104
9, 57060, Control_c, 3, 11, 105
9, 57120, Control_c, 3, 11, 107
9, 57180, Control_c, 3, 11, 109
9, 57240, Control_c, 3, 11, 111
9, 57300, Control_c, 3, 11, 113
9, 57360, Note_on_c, 3, 79, 76
9, 57360, Control_c, 3, 11, 115
9, 57420, Control_c, 3, 11, 117
9, 57479, Note_on_c, 3, 79, 0
9, 57480, Control_c, 3, 11, 119
9, 57480, Note_on_c, 3, 82, 76
9, 57540, Control_c, 3, 11, 121
9, 57599, Note_on_c, 3, 82, 0
9, 57600, Note_on_c, 3, 81, 76
9, 57600, Control_c, 3, 11, 123
9, 57660, Control_c, 3, 11, 127
9, 57704, Note_on_c, 3, 81, 0
9, 57720, Note_on_c, 3, 77, 76
9, 57839, Note_on_c, 3, 77, 0
9, 59160, Note_on_c, 3, 69, 84
9, 59160, Note_on_c, 3, 72, 84
9, 59220, Control_c, 3, 11, 96
9, 59624, Note_on_c, 3, 69, 0
9, 59624, Note_on_c, 3, 72, 0
9, 59638, Control_c, 3, 11, 127
9, 59640, Note_on_c, 3, 72, 84
9, 59640, Note_on_c, 3, 69, 84
9, 59700, Control_c, 3, 11, 96
9, 60104, Note_on_c, 3, 72, 0
9, 60104, Note_on_c, 3, 69, 0
9, 60118, Control_c, 3, 11, 127
9, 60120, Note_on_c, 3, 74, 84
9, 60120, Note_on_c, 3, 70, 84
9, 60180, Control_c, 3, 11, 96
9, 60584, Note_on_c, 3, 74, 0
9, 60584, Note_on_c, 3, 70, 0
9, 60598, Control_c, 3, 11, 127
9, 60600, Note_on_c, 3, 75, 84
9, 60600, Note_on_c, 3, 69, 84
9, 60660, Control_c, 3, 11, 96
9, 60839, Note_on_c, 3, 75, 0
9, 60839, Note_on_c, 3, 69, 0
9, 60840, Note_on_c, 3, 70, 84
9, 60840, Note_on_c, 3, 74, 84
9, 61064, Note_on_c, 3, 70, 0
9, 61064, Note_on_c, 3, 74, 0
9, 61078, Control_c, 3, 11, 127
9, 61080, Note_on_c, 3, 72, 84
9, 61080, Note_on_c, 3, 69, 84
9, 61140, Control_c, 3, 11, 96
9, 61544, Note_on_c, 3, 72, 0
9, 61544, Note_on_c, 3, 69, 0
9, 61558, Control_c, 3, 11, 127
9, 61560, Note_on_c, 3, 69, 84
9, 61560, Note_on_c, 3, 72, 84
9, 61620, Control_c, 3, 11, 96
9, 62024, Note_on_c, 3, 69, 0
9, 62024, Note_on_c, 3, 72, 0
9, 62038, Control_c, 3, 11, 127
9, 62040, Note_on_c, 3, 70, 84
9, 62040, Note_on_c, 3, 74, 84
9, 62100, Control_c, 3, 11, 96
9, 62504, Note_on_c, 3, 70, 0
9, 62504, Note_on_c, 3, 74, 0
9, 62518, Control_c, 3, 11, 127
9, 62520, Note_on_c, 3, 69, 84
9, 62520, Note_on_c, 3, 75, 84
9, 62580, Control_c, 3, 11, 96
9, 62759, Note_on_c, 3, 69, 0
9, 62759, Note_on_c, 3, 75, 0
9, 62760, Note_on_c, 3, 74, 84
9, 62760, Note_on_c, 3, 70, 84
9, 62984, Note_on_c, 3, 74, 0
9, 62984, Note_on_c, 3, 70, 0
9, 62998, Control_c, 3, 11, 127
9, 63000, Note_on_c, 3, 72, 84
9, 63000, Note_on_c, 3, 69, 84
9, 63060, Control_c, 3, 11, 96
9, 63464, Note_on_c, 3, 72, 0
9, 63464, Note_on_c, 3, 69, 0
9, 63478, Control_c, 3, 11, 127
9, 63480, Note_on_c, 3, 69, 84
9, 63480, Note_on_c, 3, 72, 84
9, 63540, Control_c, 3, 11, 96
9, 63944, Note_on_c, 3, 69, 0
9, 63944, Note_on_c, 3, 72, 0
9, 63958, Control_c, 3, 11, 127
9, 63960, Note_on_c, 3, 70, 84
9, 63960, Note_on_c, 3, 74, 84
9, 64020, Control_c, 3, 11, 96
9, 64424, Note_on_c, 3, 70, 0
9, 64424, Note_on_c, 3, 74, 0
9, 64438, Control_c, 3, 11, 127
9, 64440, Note_on_c, 3, 75, 84
9, 64440, Note_on_c, 3, 69, 84
9, 64500, Control_c, 3, 11, 96
9, 64679, Note_on_c, 3, 75, 0
9, 64679, Note_on_c, 3, 69, 0
9, 64680, Note_on_c, 3, 70, 84
9, 64680, Note_on_c, 3, 74, 84
9, 64904, Note_on_c, 3, 70, 0
9, 64904, Note_on_c, 3, 74, 0
9, 64918, Control_c, 3, 11, 127
9, 64920, Note_on_c, 3, 72, 84
9, 64920, Note_on_c, 3, 69, 84
9, 64980, Control_c, 3, 11, 96
9, 65384, Note_on_c, 3, 72, 0
9, 65384, Note_on_c, 3, 69, 0
9, 65398, Control_c, 3, 11, 127
9, 65400, Note_on_c, 3, 69, 84
9, 65400, Note_on_c, 3, 72, 84
9, 65460, Control_c, 3, 11, 96
9, 65864, Note_on_c, 3, 69, 0
9, 65864, Note_on_c, 3, 72, 0
9, 65878, Control_c, 3, 11, 127
9, 65880, Note_on_c, 3, 74, 84
9, 65880, Note_on_c, 3, 70, 84
9, 65940, Control_c, 3, 11, 96
9, 66344, Note_on_c, 3, 74, 0
9, 66344, Note_on_c, 3, 70, 0
9, 66358, Control_c, 3, 11, 127
9, 66360, Note_on_c, 3, 69, 84
9, 66360, Note_on_c, 3, 75, 84
9, 66420, Control_c, 3, 11, 96
9, 66599, Note_on_c, 3, 69, 0
9, 66599, Note_on_c, 3, 75, 0
9, 66600, Note_on_c, 3, 74, 84
9, 66600, Note_on_c, 3, 70, 84
9, 66839, Note_on_c, 3, 74, 0
9, 66839, Note_on_c, 3, 70, 0
9, 67560, Control_c, 3, 11, 127
9, 67800, Note_on_c, 3, 69, 84
9, 67800, Note_on_c, 3, 65, 84
9, 67860, Control_c, 3, 11, 96
9, 68264, Note_on_c, 3, 69, 0
9, 68264, Note_on_c, 3, 65, 0
9, 68280, Note_on_c, 3, 67, 84
9, 68280, Note_on_c, 3, 64, 84
9, 68504, Note_on_c, 3, 67, 0
9, 68504, Note_on_c, 3, 64, 0
9, 68520, Note_on_c, 3, 69, 84
9, 68520, Note_on_c, 3, 65, 84
9, 68759, Note_on_c, 3, 69, 0
9, 68759, Note_on_c, 3, 65, 0
9, 69720, Note_on_c, 3, 65, 84
9, 69720, Note_on_c, 3, 69, 84
9, 69780, Control_c, 3, 11, 96
9, 70184, Note_on_c, 3, 65, 0
9, 70184, Note_on_c, 3, 69, 0
9, 70200, Note_on_c, 3, 64, 84
9, 70200, Note_on_c, 3, 67, 84
9, 70424, Note_on_c, 3, 64, 0
9, 70424, Note_on_c, 3, 67, 0
9, 70440, Note_on_c, 3, 65, 84
9, 70440, Note_on_c, 3, 69, 84
9, 70664, Note_on_c, 3, 65, 0
9, 70664, Note_on_c, 3, 69, 0
9, 70678, Control_c, 3, 11, 127
9, 70680, Note_on_c, 3, 72, 84
9, 70680, Note_on_c, 3, 64, 84
9, 70919, Note_on_c, 3, 72, 0
9, 70919, Note_on_c, 3, 64, 0
9, 70920, Note_on_c, 3, 77, 84
9, 70920, Note_on_c, 3, 74, 84
9, 71159, Note_on_c, 3, 77, 0
9, 71159, Note_on_c, 3, 74, 0
9, 71160, Note_on_c, 3, 76, 84
9, 71160, Note_on_c, 3, 72, 84
9, 71504, Note_on_c, 3, 76, 0
9, 71504, Note_on_c, 3, 72, 0
9, 71520, Note_on_c, 3, 65, 84
9, 71520, Note_on_c, 3, 69, 84
9, 71624, Note_on_c, 3, 65, 0
9, 71624, Note_on_c, 3, 69, 0
9, 71640, Note_on_c, 3, 64, 84
9, 71640, Note_on_c, 3, 67, 84
9, 71759, Note_on_c, 3, 64, 0
9, 71759, Note_on_c, 3, 67, 0
9, 71880, Note_on_c, 3, 65, 84
9, 71880, Note_on_c, 3, 62, 84
9, 71999, Note_on_c, 3, 65, 0
9, 71999, Note_on_c, 3, 62, 0
9, 72120, Note_on_c, 3, 64, 84
9, 72120, Note_on_c, 3, 60, 84
9, 72239, Note_on_c, 3, 64, 0
9, 72239, Note_on_c, 3, 60, 0
9, 72360, Note_on_c, 3, 62, 84
9, 72360, Note_on_c, 3, 71, 84
9, 72479, Note_on_c, 3, 62, 0
9, 72479, Note_on_c, 3, 71, 0
9, 72600, Note_on_c, 3, 64, 84
9, 72600, Note_on_c, 3, 72, 84
9, 72704, Note_on_c, 3, 64, 0
9, 72704, Note_on_c, 3, 72, 0
9, 72720, Note_on_c, 3, 64, 84
9, 72720, Note_on_c, 3, 72, 84
9, 72824, Note_on_c, 3, 64, 0
9, 72824, Note_on_c, 3, 72, 0
9, 72840, Note_on_c, 3, 77, 84
9, 72840, Note_on_c, 3, 74, 84
9, 72944, Note_on_c, 3, 77, 0
9, 72944, Note_on_c, 3, 74, 0
9, 72960, Note_on_c, 3, 74, 84
9, 72960, Note_on_c, 3, 77, 84
9, 73064, Note_on_c, 3, 74, 0
9, 73064, Note_on_c, 3, 77, 0
9, 73080, Note_on_c, 3, 72, 84
9, 73080, Note_on_c, 3, 76, 84
9, 73184, Note_on_c, 3, 72, 0
9, 73184, Note_on_c, 3, 76, 0
9, 73200, Note_on_c, 3, 72, 84
9, 73200, Note_on_c, 3, 76, 84
9, 73319, Note_on_c, 3, 72, 0
9, 73319, Note_on_c, 3, 76, 0
9, 73440, Note_on_c, 3, 69, 84
9, 73440, Note_on_c, 3, 65, 84
9, 73559, Note_on_c, 3, 69, 0
9, 73559, Note_on_c, 3, 65, 0
9, 73680, Note_on_c, 3, 67, 84
9, 73680, Note_on_c, 3, 64, 84
9, 73799, Note_on_c, 3, 67, 0
9, 73799, Note_on_c, 3, 64, 0
9, 73920, Note_on_c, 3, 62, 84
9, 73920, Note_on_c, 3, 65, 84
9, 74039, Note_on_c, 3, 62, 0
9, 74039, Note_on_c, 3, 65, 0
9, 74160, Note_on_c, 3, 64, 84
9, 74160, Note_on_c, 3, 60, 84
9, 74279, Note_on_c, 3, 64, 0
9, 74279, Note_on_c, 3, 60, 0
9, 74400, Note_on_c, 3, 62, 84
9, 74400, Note_on_c, 3, 71, 84
9, 74504, Note_on_c, 3, 62, 0
9, 74504, Note_on_c, 3, 71, 0
9, 74518, Control_c, 3, 11, 112
9, 74520, Note_on_c, 3, 64, 92
9, 74520, Control_c, 3, 11, 112
9, 74520, Note_on_c, 3, 72, 92
9, 74712, Control_c, 3, 11, 113
9, 74864, Note_on_c, 3, 64, 0
9, 74864, Note_on_c, 3, 72, 0
9, 74880, Note_on_c, 3, 64, 92
9, 74880, Note_on_c, 3, 72, 92
9, 74904, Control_c, 3, 11, 114
9, 74984, Note_on_c, 3, 64, 0
9, 74984, Note_on_c, 3, 72, 0
9, 75000, Note_on_c, 3, 72, 92
9, 75000, Note_on_c, 3, 64, 92
9, 75096, Control_c, 3, 11, 115
9, 75288, Control_c, 3, 11, 116
9, 75344, Note_on_c, 3, 72, 0
9, 75344, Note_on_c, 3, 64, 0
9, 75360, Note_on_c, 3, 72, 92
9, 75360, Note_on_c, 3, 64, 92
9, 75464, Note_on_c, 3, 72, 0
9, 75464, Note_on_c, 3, 64, 0
9, 75480, Note_on_c, 3, 72, 92
9, 75480, Note_on_c, 3, 64, 92
9, 75480, Control_c, 3, 11, 117
9, 75672, Control_c, 3, 11, 118
9, 75824, Note_on_c, 3, 72, 0
9, 75824, Note_on_c, 3, 64, 0
9, 75840, Note_on_c, 3, 64, 92
9, 75840, Note_on_c, 3, 72, 92
9, 75864, Control_c, 3, 11, 119
9, 75944, Note_on_c, 3, 64, 0
9, 75944, Note_on_c, 3, 72, 0
9, 75960, Note_on_c, 3, 72, 92
9, 75960, Note_on_c, 3, 64, 92
9, 76056, Control_c, 3, 11, 120
9, 76248, Control_c, 3, 11, 121
9, 76304, Note_on_c, 3, 72, 0
9, 76304, Note_on_c, 3, 64, 0
9, 76320, Note_on_c, 3, 64, 92
9, 76320, Note_on_c, 3, 72, 92
9, 76424, Note_on_c, 3, 64, 0
9, 76424, Note_on_c, 3, 72, 0
9, 76440, Control_c, 3, 11, 122
9, 76440, Note_on_c, 3, 72, 92
9, 76440, Note_on_c, 3, 64, 92
9, 76544, Note_on_c, 3, 72, 0
9, 76544, Note_on_c, 3, 64, 0
9, 76560, Note_on_c, 3, 64, 92
9, 76560, Note_on_c, 3, 72, 92
9, 76632, Control_c, 3, 11, 123
9, 76664, Note_on_c, 3, 64, 0
9, 76664, Note_on_c, 3, 72, 0
9, 76680, Note_on_c, 3, 64, 92
9, 76680, Note_on_c, 3, 72, 92
9, 76784, Note_on_c, 3, 64, 0
9, 76784, Note_on_c, 3, 72, 0
9, 76800, Note_on_c, 3, 72, 92
9, 76800, Note_on_c, 3, 76, 92
9, 76824, Control_c, 3, 11, 124
9, 76904, Note_on_c, 3, 72, 0
9, 76904, Note_on_c, 3, 76, 0
9, 76920, Note_on_c, 3, 76, 92
9, 76920, Note_on_c, 3, 72, 92
9, 77016, Control_c, 3, 11, 125
9, 77024, Note_on_c, 3, 76, 0
9, 77024, Note_on_c, 3, 72, 0
9, 77040, Note_on_c, 3, 76, 92
9, 77040, Note_on_c, 3, 72, 92
9, 77144, Note_on_c, 3, 76, 0
9, 77144, Note_on_c, 3, 72, 0
9, 77160, Note_on_c, 3, 76, 92
9, 77160, Note_on_c, 3, 72, 92
9, 77208, Control_c, 3, 11, 127
9, 77264, Note_on_c, 3, 76, 0
9, 77264, Note_on_c, 3, 72, 0
9, 77280, Note_on_c, 3, 72, 92
9, 77280, Note_on_c, 3, 76, 92
9, 77384, Note_on_c, 3, 72, 0
9, 77384, Note_on_c, 3, 76, 0
9, 77400, Note_on_c, 3, 76, 84
9, 77400, Note_on_c, 3, 72, 84
9, 77519, Note_on_c, 3, 76, 0
9, 77519, Note_on_c, 3, 72, 0
9, 77880, Note_on_c, 3, 72, 52
9, 77880, Note_on_c, 3, 64, 52
9, 77999, Note_on_c, 3, 72, 0
9, 77999, Note_on_c, 3, 64, 0
9, 91200, Note_on_c, 3, 74, 44
9, 91200, Note_on_c, 3, 62, 44
9, 91289, Note_on_c, 3, 74, 0
9, 91289, Note_on_c, 3, 62, 0
9, 91320, Note_on_c, 3, 79, 44
9, 91320, Note_on_c, 3, 67, 44
9, 91409, Note_on_c, 3, 79, 0
9, 91409, Note_on_c, 3, 67, 0
9, 91440, Note_on_c, 3, 74, 44
9, 91440, Note_on_c, 3, 62, 44
9, 91529, Note_on_c, 3, 74, 0
9, 91529, Note_on_c, 3, 62, 0
9, 91560, Note_on_c, 3, 64, 44
9, 91560, Note_on_c, 3, 76, 44
9, 91649, Note_on_c, 3, 64, 0
9, 91649, Note_on_c, 3, 76, 0
9, 91680, Note_on_c, 3, 74, 44
9, 91680, Note_on_c, 3, 62, 44
9, 91769, Note_on_c, 3, 74, 0
9, 91769, Note_on_c, 3, 62, 0
9, 91800, Note_on_c, 3, 59, 44
9, 91800, Note_on_c, 3, 71, 44
9, 91889, Note_on_c, 3, 59, 0
9, 91889, Note_on_c, 3, 71, 0
9, 91920, Note_on_c, 3, 72, 44
9, 91920, Note_on_c, 3, 60, 44
9, 92009, Note_on_c, 3, 72, 0
9, 92009, Note_on_c, 3, 60, 0
9, 92040, Note_on_c, 3, 59, 44
9, 92040, Note_on_c, 3, 71, 44
9, 92129, Note_on_c, 3, 59, 0
9, 92129, Note_on_c, 3, 71, 0
9, 92160, Note_on_c, 3, 67, 44
9, 92160, Note_on_c, 3, 55, 44
9, 92249, Note_on_c, 3, 67, 0
9, 92249, Note_on_c, 3, 55, 0
9, 92280, Note_on_c, 3, 69, 44
9, 92280, Note_on_c, 3, 57, 44
9, 92369, Note_on_c, 3, 69, 0
9, 92369, Note_on_c, 3, 57, 0
9, 92400, Note_on_c, 3, 59, 44
9, 92400, Note_on_c, 3, 71, 44
9, 92489, Note_on_c, 3, 59, 0
9, 92489, Note_on_c, 3, 71, 0
9, 92520, Note_on_c, 3, 67, 44
9, 92520, Note_on_c, 3, 55, 44
9, 92639, Note_on_c, 3, 67, 0
9, 92639, Note_on_c, 3, 55, 0
9, 94320, Note_on_c, 3, 67, 44
9, 94320, Note_on_c, 3, 64, 44
9, 94439, Note_on_c, 3, 67, 0
9, 94439, Note_on_c, 3, 64, 0
9, 94440, Note_on_c, 3, 65, 44
9, 94440, Note_on_c, 3, 69, 44
9, 94559, Note_on_c, 3, 65, 0
9, 94559, Note_on_c, 3, 69, 0
9, 94560, Note_on_c, 3, 64, 44
9, 94560, Note_on_c, 3, 67, 44
9, 94664, Note_on_c, 3, 67, 0
9, 94679, Note_on_c, 3, 64, 0
9, 94680, Note_on_c, 3, 60, 44
9, 94680, Note_on_c, 3, 67, 44
9, 94784, Note_on_c, 3, 60, 0
9, 94799, Note_on_c, 3, 67, 0
9, 94800, Note_on_c, 3, 69, 44
9, 94800, Note_on_c, 3, 60, 44
9, 94919, Note_on_c, 3, 69, 0
9, 94919, Note_on_c, 3, 60, 0
9, 94920, Note_on_c, 3, 60, 44
9, 94920, Note_on_c, 3, 67, 44
9, 95039, Note_on_c, 3, 60, 0
9, 95039, Note_on_c, 3, 67, 0
9, 95040, Note_on_c, 3, 72, 44
9, 95040, Note_on_c, 3, 64, 44
9, 95159, Note_on_c, 3, 72, 0
9, 95159, Note_on_c, 3, 64, 0
9, 95160, Note_on_c, 3, 65, 44
9, 95160, Note_on_c, 3, 71, 44
9, 95279, Note_on_c, 3, 65, 0
9, 95279, Note_on_c, 3, 71, 0
9, 95280, Note_on_c, 3, 64, 44
9, 95280, Note_on_c, 3, 72, 44
9, 95399, Note_on_c, 3, 64, 0
9, 95399, Note_on_c, 3, 72, 0
9, 96227, Control_c, 3, 11, 92
9, 96240, Note_on_c, 3, 72, 84
9, 96240, Note_on_c, 3, 60, 84
9, 96263, Control_c, 3, 11, 94
9, 96300, Control_c, 3, 11, 96
9, 96337, Control_c, 3, 11, 97
9, 96344, Note_on_c, 3, 72, 0
9, 96344, Note_on_c, 3, 60, 0
9, 96360, Note_on_c, 3, 60, 84
9, 96360, Note_on_c, 3, 72, 84
9, 96373, Control_c, 3, 11, 99
9, 96410, Control_c, 3, 11, 101
9, 96447, Control_c, 3, 11, 103
9, 96464, Note_on_c, 3, 60, 0
9, 96464, Note_on_c, 3, 72, 0
9, 96480, Note_on_c, 3, 60, 84
9, 96480, Note_on_c, 3, 72, 84
9, 96483, Control_c, 3, 11, 104
9, 96520, Control_c, 3, 11, 106
9, 96557, Control_c, 3, 11, 108
9, 96584, Note_on_c, 3, 60, 0
9, 96584, Note_on_c, 3, 72, 0
9, 96593, Control_c, 3, 11, 110
9, 96600, Note_on_c, 3, 72, 84
9, 96600, Note_on_c, 3, 60, 84
9, 96630, Control_c, 3, 11, 111
9, 96667, Control_c, 3, 11, 113
9, 96703, Control_c, 3, 11, 115
9, 96704, Note_on_c, 3, 72, 0
9, 96704, Note_on_c, 3, 60, 0
9, 96720, Note_on_c, 3, 60, 84
9, 96720, Note_on_c, 3, 72, 84
9, 96740, Control_c, 3, 11, 117
9, 96777, Control_c, 3, 11, 118
9, 96813, Control_c, 3, 11, 120
9, 96824, Note_on_c, 3, 60, 0
9, 96824, Note_on_c, 3, 72, 0
9, 96840, Note_on_c, 3, 72, 84
9, 96840, Note_on_c, 3, 60, 84
9, 96850, Control_c, 3, 11, 122
9, 96887, Control_c, 3, 11, 124
9, 96923, Control_c, 3, 11, 125
9, 96944, Note_on_c, 3, 72, 0
9, 96944, Note_on_c, 3, 60, 0
9, 96958, Control_c, 3, 11, 127
9, 96960, Note_on_c, 3, 60, 84
9, 96960, Note_on_c, 3, 72, 84
9, 97064, Note_on_c, 3, 60, 0
9, 97064, Note_on_c, 3, 72, 0
9, 97080, Note_on_c, 3, 77, 84
9, 97080, Note_on_c, 3, 65, 84
9, 97184, Note_on_c, 3, 77, 0
9, 97184, Note_on_c, 3, 65, 0
9, 97200, Note_on_c, 3, 65, 84
9, 97200, Note_on_c, 3, 77, 84
9, 97304, Note_on_c, 3, 65, 0
9, 97304, Note_on_c, 3, 77, 0
9, 97320, Note_on_c, 3, 65, 84
9, 97320, Note_on_c, 3, 77, 84
9, 97424, Note_on_c, 3, 65, 0
9, 97424, Note_on_c, 3, 77, 0
9, 97440, Note_on_c, 3, 65, 84
9, 97440, Note_on_c, 3, 77, 84
9, 97544, Note_on_c, 3, 65, 0
9, 97544, Note_on_c, 3, 77, 0
9, 97560, Note_on_c, 3, 77, 84
9, 97560, Note_on_c, 3, 65, 84
9, 97664, Note_on_c, 3, 77, 0
9, 97664, Note_on_c, 3, 65, 0
9, 97680, Note_on_c, 3, 77, 84
9, 97680, Note_on_c, 3, 65, 84
9, 97784, Note_on_c, 3, 77, 0
9, 97784, Note_on_c, 3, 65, 0
9, 97800, Note_on_c, 3, 65, 92
9, 97800, Note_on_c, 3, 77, 92
9, 97904, Note_on_c, 3, 65, 0
9, 97904, Note_on_c, 3, 77, 0
9, 97920, Note_on_c, 3, 77, 84
9, 97920, Note_on_c, 3, 65, 84
9, 98024, Note_on_c, 3, 77, 0
9, 98024, Note_on_c, 3, 65, 0
9, 98040, Note_on_c, 3, 67, 84
9, 98040, Note_on_c, 3, 79, 84
9, 98144, Note_on_c, 3, 67, 0
9, 98144, Note_on_c, 3, 79, 0
9, 98160, Note_on_c, 3, 81, 92
9, 98160, Note_on_c, 3, 69, 92
9, 98264, Note_on_c, 3, 81, 0
9, 98264, Note_on_c, 3, 69, 0
9, 98280, Note_on_c, 3, 77, 84
9, 98280, Note_on_c, 3, 65, 84
9, 98384, Note_on_c, 3, 77, 0
9, 98384, Note_on_c, 3, 65, 0
9, 98400, Note_on_c, 3, 67, 84
9, 98400, Note_on_c, 3, 79, 84
9, 98504, Note_on_c, 3, 67, 0
9, 98504, Note_on_c, 3, 79, 0
9, 98520, Note_on_c, 3, 69, 92
9, 98520, Note_on_c, 3, 81, 92
9, 98624, Note_on_c, 3, 69, 0
9, 98624, Note_on_c, 3, 81, 0
9, 98640, Note_on_c, 3, 77, 84
9, 98640, Note_on_c, 3, 65, 84
9, 98744, Note_on_c, 3, 77, 0
9, 98744, Note_on_c, 3, 65, 0
9, 98760, Note_on_c, 3, 67, 84
9, 98760, Note_on_c, 3, 79, 84
9, 98864, Note_on_c, 3, 67, 0
9, 98864, Note_on_c, 3, 79, 0
9, 98880, Note_on_c, 3, 69, 92
9, 98880, Note_on_c, 3, 81, 92
9, 98984, Note_on_c, 3, 69, 0
9, 98984, Note_on_c, 3, 81, 0
9, 99000, Note_on_c, 3, 77, 84
9, 99000, Note_on_c, 3, 65, 84
9, 99104, Note_on_c, 3, 77, 0
9, 99104, Note_on_c, 3, 65, 0
9, 99120, Note_on_c, 3, 79, 84
9, 99120, Note_on_c, 3, 67, 84
9, 99224, Note_on_c, 3, 79, 0
9, 99224, Note_on_c, 3, 67, 0
9, 99240, Note_on_c, 3, 69, 92
9, 99240, Note_on_c, 3, 81, 92
9, 99300, Control_c, 3, 11, 112
9, 99584, Note_on_c, 3, 69, 0
9, 99584, Note_on_c, 3, 81, 0
9, 99600, Note_on_c, 3, 79, 92
9, 99600, Note_on_c, 3, 67, 92
9, 99824, Note_on_c, 3, 79, 0
9, 99824, Note_on_c, 3, 67, 0
9, 99840, Note_on_c, 3, 77, 92
9, 99840, Note_on_c, 3, 65, 92
9, 99944, Note_on_c, 3, 77, 0
9, 99944, Note_on_c, 3, 65, 0
9, 99960, Note_on_c, 3, 76, 92
9, 99960, Note_on_c, 3, 64, 92
9, 100184, Note_on_c, 3, 76, 0
9, 100184, Note_on_c, 3, 64, 0
9, 100200, Note_on_c, 3, 62, 92
9, 100200, Note_on_c, 3, 74, 92
9, 100304, Note_on_c, 3, 62, 0
9, 100304, Note_on_c, 3, 74, 0
9, 100320, Note_on_c, 3, 62, 92
9, 100320, Note_on_c, 3, 74, 92
9, 100544, Note_on_c, 3, 62, 0
9, 100544, Note_on_c, 3, 74, 0
9, 100560, Note_on_c, 3, 67, 92
9, 100560, Note_on_c, 3, 72, 92
9, 100664, Note_on_c, 3, 67, 0
9, 100664, Note_on_c, 3, 72, 0
9, 100678, Control_c, 3, 11, 127
9, 100680, Note_on_c, 3, 72, 92
9, 100680, Note_on_c, 3, 65, 92
9, 100740, Control_c, 3, 11, 112
9, 101024, Note_on_c, 3, 72, 0
9, 101024, Note_on_c, 3, 65, 0
9, 101038, Control_c, 3, 11, 127
9, 101040, Note_on_c, 3, 77, 92
9, 101040, Note_on_c, 3, 74, 92
9, 101100, Control_c, 3, 11, 112
9, 101384, Note_on_c, 3, 77, 0
9, 101384, Note_on_c, 3, 74, 0
9, 101398, Control_c, 3, 11, 127
9, 101400, Note_on_c, 3, 69, 92
9, 101400, Note_on_c, 3, 72, 92
9, 101460, Control_c, 3, 11, 112
9, 101744, Note_on_c, 3, 69, 0
9, 101744, Note_on_c, 3, 72, 0
9, 101758, Control_c, 3, 11, 127
9, 101760, Note_on_c, 3, 64, 92
9, 101760, Note_on_c, 3, 72, 92
9, 101820, Control_c, 3, 11, 112
9, 102104, Note_on_c, 3, 64, 0
9, 102104, Note_on_c, 3, 72, 0
9, 102118, Control_c, 3, 11, 127
9, 102120, Note_on_c, 3, 72, 92
9, 102120, Note_on_c, 3, 65, 92
9, 102180, Control_c, 3, 11, 112
9, 102239, Note_on_c, 3, 72, 0
9, 102239, Note_on_c, 3, 65, 0
9, 103080, Note_on_c, 3, 60, 92
9, 103080, Note_on_c, 3, 72, 92
9, 103184, Note_on_c, 3, 60, 0
9, 103184, Note_on_c, 3, 72, 0
9, 103200, Note_on_c, 3, 60, 92
9, 103200, Note_on_c, 3, 72, 92
9, 103424, Note_on_c, 3, 60, 0
9, 103424, Note_on_c, 3, 72, 0
9, 103440, Note_on_c, 3, 67, 92
9, 103440, Note_on_c, 3, 64, 92
9, 103544, Note_on_c, 3, 67, 0
9, 103544, Note_on_c, 3, 64, 0
9, 103558, Control_c, 3, 11, 127
9, 103560, Note_on_c, 3, 65, 92
9, 103560, Note_on_c, 3, 69, 92
9, 103620, Control_c, 3, 11, 112
9, 103904, Note_on_c, 3, 65, 0
9, 103904, Note_on_c, 3, 69, 0
9, 103918, Control_c, 3, 11, 127
9, 103920, Note_on_c, 3, 67, 92
9, 103920, Note_on_c, 3, 65, 92
9, 103980, Control_c, 3, 11, 112
9, 104264, Note_on_c, 3, 67, 0
9, 104264, Note_on_c, 3, 65, 0
9, 104278, Control_c, 3, 11, 127
9, 104280, Note_on_c, 3, 69, 92
9, 104280, Note_on_c, 3, 65, 92
9, 104340, Control_c, 3, 11, 112
9, 104624, Note_on_c, 3, 69, 0
9, 104624, Note_on_c, 3, 65, 0
9, 104638, Control_c, 3, 11, 127
9, 104640, Note_on_c, 3, 67, 92
9, 104640, Note_on_c, 3, 64, 92
9, 104700, Control_c, 3, 11, 112
9, 104984, Note_on_c, 3, 67, 0
9, 104984, Note_on_c, 3, 64, 0
9, 104998, Control_c, 3, 11, 127
9, 105000, Note_on_c, 3, 65, 84
9, 105000, Note_on_c, 3, 57, 84
9, 105104, Note_on_c, 3, 65, 0
9, 105119, Note_on_c, 3, 57, 0
9, 106080, Note_on_c, 3, 76, 84
9, 106080, Note_on_c, 3, 67, 84
9, 106184, Note_on_c, 3, 76, 0
9, 106184, Note_on_c, 3, 67, 0
9, 106200, Note_on_c, 3, 67, 84
9, 106200, Note_on_c, 3, 76, 84
9, 106304, Note_on_c, 3, 67, 0
9, 106304, Note_on_c, 3, 76, 0
9, 106320, Note_on_c, 3, 67, 84
9, 106320, Note_on_c, 3, 76, 84
9, 106424, Note_on_c, 3, 67, 0
9, 106424, Note_on_c, 3, 76, 0
9, 106440, Note_on_c, 3, 69, 92
9, 106440, Note_on_c, 3, 77, 92
9, 106559, Note_on_c, 3, 69, 0
9, 106559, Note_on_c, 3, 77, 0
9, 107520, Note_on_c, 3, 76, 84
9, 107520, Note_on_c, 3, 67, 84
9, 107624, Note_on_c, 3, 76, 0
9, 107624, Note_on_c, 3, 67, 0
9, 107640, Note_on_c, 3, 76, 84
9, 107640, Note_on_c, 3, 67, 84
9, 107744, Note_on_c, 3, 76, 0
9, 107744, Note_on_c, 3, 67, 0
9, 107760, Note_on_c, 3, 67, 84
9, 107760, Note_on_c, 3, 76, 84
9, 107864, Note_on_c, 3, 67, 0
9, 107864, Note_on_c, 3, 76, 0
9, 107880, Note_on_c, 3, 69, 92
9, 107880, Note_on_c, 3, 77, 92
9, 107999, Note_on_c, 3, 69, 0
9, 107999, Note_on_c, 3, 77, 0
9, 108600, Note_on_c, 3, 69, 92
9, 108600, Note_on_c, 3, 65, 92
9, 108719, Note_on_c, 3, 69, 0
9, 108719, Note_on_c, 3, 65, 0
9, 119040, Note_on_c, 3, 81, 48
9, 119159, Note_on_c, 3, 81, 0
9, 119160, Note_on_c, 3, 82, 48
9, 119279, Note_on_c, 3, 82, 0
9, 119280, Note_on_c, 3, 84, 48
9, 119399, Note_on_c, 3, 84, 0
9, 121920, Note_on_c, 3, 82, 52
9, 122039, Note_on_c, 3, 82, 0
9, 122040, Note_on_c, 3, 81, 52
9, 122159, Note_on_c, 3, 81, 0
9, 122160, Note_on_c, 3, 77, 52
9, 122264, Note_on_c, 3, 77, 0
9, 122280, Note_on_c, 3, 79, 52
9, 122369, Note_on_c, 3, 79, 0
9, 122400, Note_on_c, 3, 72, 52
9, 122504, Note_on_c, 3, 72, 0
9, 122520, Note_on_c, 3, 76, 52
9, 122744, Note_on_c, 3, 76, 0
9, 122760, Note_on_c, 3, 72, 52
9, 122849, Note_on_c, 3, 72, 0
9, 122880, Note_on_c, 3, 67, 52
9, 123104, Note_on_c, 3, 67, 0
9, 123120, Note_on_c, 3, 71, 52
9, 123179, Note_on_c, 3, 71, 0
9, 123180, Note_on_c, 3, 72, 52
9, 123239, Note_on_c, 3, 72, 0
9, 123240, Note_on_c, 3, 74, 52
9, 123464, Note_on_c, 3, 74, 0
9, 123480, Note_on_c, 3, 72, 52
9, 123599, Note_on_c, 3, 72, 0
9, 123600, Note_on_c, 3, 74, 52
9, 123719, Note_on_c, 3, 74, 0
9, 123720, Note_on_c, 3, 76, 52
9, 123839, Note_on_c, 3, 76, 0
9, 123840, Note_on_c, 3, 74, 52
9, 123959, Note_on_c, 3, 74, 0
9, 123960, Note_on_c, 3, 72, 52
9, 124079, Note_on_c, 3, 72, 0
9, 124080, Note_on_c, 3, 74, 52
9, 124199, Note_on_c, 3, 74, 0
9, 124200, Note_on_c, 3, 76, 52
9, 124319, Note_on_c, 3, 76, 0
9, 124320, Note_on_c, 3, 77, 52
9, 124439, Note_on_c, 3, 77, 0
9, 124440, Note_on_c, 3, 76, 52
9, 124559, Note_on_c, 3, 76, 0
9, 124560, Note_on_c, 3, 77, 52
9, 124679, Note_on_c, 3, 77, 0
9, 124680, Note_on_c, 3, 79, 52
9, 125211, Note_on_c, 3, 79, 0
9, 125220, Note_on_c, 3, 82, 53
9, 125271, Note_on_c, 3, 82, 0
9, 125280, Note_on_c, 3, 79, 54
9, 125331, Note_on_c, 3, 79, 0
9, 125340, Note_on_c, 3, 76, 56
9, 125391, Note_on_c, 3, 76, 0
9, 125400, Note_on_c, 3, 72, 57
9, 125451, Note_on_c, 3, 72, 0
9, 125460, Note_on_c, 3, 70, 58
9, 125511, Note_on_c, 3, 70, 0
9, 125520, Note_on_c, 3, 67, 60
9, 125571, Note_on_c, 3, 67, 0
9, 125580, Note_on_c, 3, 64, 61
9, 125631, Note_on_c, 3, 64, 0
9, 125640, Note_on_c, 3, 60, 62
9, 125691, Note_on_c, 3, 60, 0
9, 125700, Note_on_c, 3, 58, 64
9, 125751, Note_on_c, 3, 58, 0
9, 125760, Note_on_c, 3, 55, 65
9, 125811, Note_on_c, 3, 55, 0
9, 125820, Note_on_c, 3, 52, 66
9, 125871, Note_on_c, 3, 52, 0
9, 125880, Note_on_c, 3, 53, 52
9, 125999, Note_on_c, 3, 53, 0
9, 129596, Control_c, 3, 11, 114
9, 129600, Note_on_c, 3, 79, 68
9, 129643, Control_c, 3, 11, 115
9, 129689, Control_c, 3, 11, 116
9, 129704, Note_on_c, 3, 79, 0
9, 129720, Note_on_c, 3, 82, 68
9, 129735, Control_c, 3, 11, 117
9, 129782, Control_c, 3, 11, 118
9, 129828, Control_c, 3, 11, 119
9, 129875, Control_c, 3, 11, 120
9, 129921, Control_c, 3, 11, 121
9, 129944, Note_on_c, 3, 82, 0
9, 129960, Note_on_c, 3, 79, 68
9, 129968, Control_c, 3, 11, 122
9, 130014, Control_c, 3, 11, 123
9, 130061, Control_c, 3, 11, 124
9, 130064, Note_on_c, 3, 79, 0
9, 130080, Note_on_c, 3, 72, 68
9, 130107, Control_c, 3, 11, 125
9, 130154, Control_c, 3, 11, 127
9, 130184, Note_on_c, 3, 72, 0
9, 130200, Note_on_c, 3, 77, 52
9, 130319, Note_on_c, 3, 77, 0
9, 131760, Note_on_c, 3, 77, 52
9, 131879, Note_on_c, 3, 77, 0
9, 131880, Note_on_c, 3, 79, 52
9, 131999, Note_on_c, 3, 79, 0
9, 132000, Note_on_c, 3, 81, 52
9, 132119, Note_on_c, 3, 81, 0
9, 132120, Note_on_c, 3, 79, 52
9, 132239, Note_on_c, 3, 79, 0
9, 132240, Note_on_c, 3, 77, 52
9, 132344, Note_on_c, 3, 77, 0
9, 132360, Note_on_c, 3, 76, 52
9, 132599, Note_on_c, 3, 76, 0
9, 132600, Note_on_c, 3, 77, 52
9, 132719, Note_on_c, 3, 77, 0
9, 132720, Note_on_c, 3, 79, 52
9, 132839, Note_on_c, 3, 79, 0
9, 132840, Note_on_c, 3, 70, 52
9, 132959, Note_on_c, 3, 70, 0
9, 132960, Note_on_c, 3, 72, 52
9, 133079, Note_on_c, 3, 72, 0
9, 133080, Note_on_c, 3, 69, 52
9, 133199, Note_on_c, 3, 69, 0
9, 133440, Note_on_c, 3, 77, 52
9, 133559, Note_on_c, 3, 77, 0
9, 133560, Note_on_c, 3, 81, 52
9, 133679, Note_on_c, 3, 81, 0
9, 133680, Note_on_c, 3, 79, 52
9, 133799, Note_on_c, 3, 79, 0
9, 134040, Control_c, 3, 11, 80
9, 134160, Note_on_c, 3, 76, 76
9, 134279, Note_on_c, 3, 76, 0
9, 134280, Note_on_c, 3, 79, 76
9, 134399, Note_on_c, 3, 79, 0
9, 134400, Note_on_c, 3, 77, 76
9, 134504, Note_on_c, 3, 77, 0
9, 134520, Control_c, 3, 11, 80
9, 134520, Note_on_c, 3, 77, 76
9, 134580, Control_c, 3, 11, 82
9, 134640, Control_c, 3, 11, 84
9, 134700, Control_c, 3, 11, 86
9, 134760, Control_c, 3, 11, 88
9, 134820, Control_c, 3, 11, 90
9, 134879, Note_on_c, 3, 77, 0
9, 134880, Control_c, 3, 11, 92
9, 134880, Note_on_c, 3, 81, 76
9, 134940, Control_c, 3, 11, 94
9, 134999, Note_on_c, 3, 81, 0
9, 135000, Note_on_c, 3, 84, 76
9, 135000, Control_c, 3, 11, 96
9, 135060, Control_c, 3, 11, 98
9, 135119, Note_on_c, 3, 84, 0
9, 135120, Control_c, 3, 11, 100
9, 135120, Note_on_c, 3, 82, 76
9, 135180, Control_c, 3, 11, 102
9, 135239, Note_on_c, 3, 82, 0
9, 135240, Control_c, 3, 11, 104
9, 135300, Control_c, 3, 11, 105
9, 135360, Control_c, 3, 11, 107
9, 135420, Control_c, 3, 11, 109
9, 135480, Control_c, 3, 11, 111
9, 135540, Control_c, 3, 11, 113
9, 135600, Control_c, 3, 11, 115
9, 135600, Note_on_c, 3, 79, 76
9, 135660, Control_c, 3, 11, 117
9, 135719, Note_on_c, 3, 79, 0
9, 135720, Note_on_c, 3, 82, 76
9, 135720, Control_c, 3, 11, 119
9, 135780, Control_c, 3, 11, 121
9, 135839, Note_on_c, 3, 82, 0
9, 135840, Control_c, 3, 11, 123
9, 135840, Note_on_c, 3, 81, 76
9, 135900, Control_c, 3, 11, 127
9, 135944, Note_on_c, 3, 81, 0
9, 135960, Note_on_c, 3, 77, 76
9, 136079, Note_on_c, 3, 77, 0
9, 137400, Note_on_c, 3, 69, 84
9, 137400, Note_on_c, 3, 72, 84
9, 137460, Control_c, 3, 11, 96
9, 137864, Note_on_c, 3, 69, 0
9, 137864, Note_on_c, 3, 72, 0
9, 137878, Control_c, 3, 11, 127
9, 137880, Note_on_c, 3, 69, 84
9, 137880, Note_on_c, 3, 72, 84
9, 137940, Control_c, 3, 11, 96
9, 138344, Note_on_c, 3, 69, 0
9, 138344, Note_on_c, 3, 72, 0
9, 138358, Control_c, 3, 11, 127
9, 138360, Note_on_c, 3, 70, 84
9, 138360, Note_on_c, 3, 74, 84
9, 138420, Control_c, 3, 11, 96
9, 138824, Note_on_c, 3, 70, 0
9, 138824, Note_on_c, 3, 74, 0
9, 138838, Control_c, 3, 11, 127
9, 138840, Note_on_c, 3, 69, 84
9, 138840, Note_on_c, 3, 75, 84
9, 138900, Control_c, 3, 11, 96
9, 139079, Note_on_c, 3, 69, 0
9, 139079, Note_on_c, 3, 75, 0
9, 139080, Note_on_c, 3, 74, 84
9, 139080, Note_on_c, 3, 70, 84
9, 139304, Note_on_c, 3, 74, 0
9, 139304, Note_on_c, 3, 70, 0
9, 139318, Control_c, 3, 11, 127
9, 139320, Note_on_c, 3, 72, 84
9, 139320, Note_on_c, 3, 69, 84
9, 139380, Control_c, 3, 11, 96
9, 139784, Note_on_c, 3, 72, 0
9, 139784, Note_on_c, 3, 69, 0
9, 139798, Control_c, 3, 11, 127
9, 139800, Note_on_c, 3, 72, 84
9, 139800, Note_on_c, 3, 69, 84
9, 139860, Control_c, 3, 11, 96
9, 140264, Note_on_c, 3, 72, 0
9, 140264, Note_on_c, 3, 69, 0
9, 140278, Control_c, 3, 11, 127
9, 140280, Note_on_c, 3, 70, 84
9, 140280, Note_on_c, 3, 74, 84
9, 140340, Control_c, 3, 11, 96
9, 140744, Note_on_c, 3, 70, 0
9, 140744, Note_on_c, 3, 74, 0
9, 140758, Control_c, 3, 11, 127
9, 140760, Note_on_c, 3, 69, 84
9, 140760, Note_on_c, 3, 75, 84
9, 140820, Control_c, 3, 11, 96
9, 140999, Note_on_c, 3, 69, 0
9, 140999, Note_on_c, 3, 75, 0
9, 141000, Note_on_c, 3, 70, 84
9, 141000, Note_on_c, 3, 74, 84
9, 141224, Note_on_c, 3, 70, 0
9, 141224, Note_on_c, 3, 74, 0
9, 141238, Control_c, 3, 11, 127
9, 141240, Note_on_c, 3, 72, 84
9, 141240, Note_on_c, 3, 69, 84
9, 141300, Control_c, 3, 11, 96
9, 141704, Note_on_c, 3, 72, 0
9, 141704, Note_on_c, 3, 69, 0
9, 141718, Control_c, 3, 11, 127
9, 141720, Note_on_c, 3, 69, 84
9, 141720, Note_on_c, 3, 72, 84
9, 141780, Control_c, 3, 11, 96
9, 142184, Note_on_c, 3, 69, 0
9, 142184, Note_on_c, 3, 72, 0
9, 142198, Control_c, 3, 11, 127
9, 142200, Note_on_c, 3, 70, 84
9, 142200, Note_on_c, 3, 74, 84
9, 142260, Control_c, 3, 11, 96
9, 142664, Note_on_c, 3, 70, 0
9, 142664, Note_on_c, 3, 74, 0
9, 142678, Control_c, 3, 11, 127
9, 142680, Note_on_c, 3, 75, 84
9, 142680, Note_on_c, 3, 69, 84
9, 142740, Control_c, 3, 11, 96
9, 142919, Note_on_c, 3, 75, 0
9, 142919, Note_on_c, 3, 69, 0
9, 142920, Note_on_c, 3, 70, 84
9, 142920, Note_on_c, 3, 74, 84
9, 143144, Note_on_c, 3, 70, 0
9, 143144, Note_on_c, 3, 74, 0
9, 143158, Control_c, 3, 11, 127
9, 143160, Note_on_c, 3, 69, 84
9, 143160, Note_on_c, 3, 72, 84
9, 143220, Control_c, 3, 11, 96
9, 143624, Note_on_c, 3, 69, 0
9, 143624, Note_on_c, 3, 72, 0
9, 143638, Control_c, 3, 11, 127
9, 143640, Note_on_c, 3, 72, 84
9, 143640, Note_on_c, 3, 69, 84
9, 143700, Control_c, 3, 11, 96
9, 144104, Note_on_c, 3, 72, 0
9, 144104, Note_on_c, 3, 69, 0
9, 144118, Control_c, 3, 11, 127
9, 144120, Note_on_c, 3, 74, 84
9, 144120, Note_on_c, 3, 70, 84
9, 144180, Control_c, 3, 11, 96
9, 144584, Note_on_c, 3, 74, 0
9, 144584, Note_on_c, 3, 70, 0
9, 144598, Control_c, 3, 11, 127
9, 144600, Note_on_c, 3, 75, 84
9, 144600, Note_on_c, 3, 69, 84
9, 144660, Control_c, 3, 11, 96
9, 144839, Note_on_c, 3, 75, 0
9, 144839, Note_on_c, 3, 69, 0
9, 144840, Note_on_c, 3, 74, 84
9, 144840, Note_on_c, 3, 70, 84
9, 145079, Note_on_c, 3, 74, 0
9, 145079, Note_on_c, 3, 70, 0
9, 145800, Control_c, 3, 11, 127
9, 146040, Note_on_c, 3, 65, 84
9, 146040, Note_on_c, 3, 69, 84
9, 146100, Control_c, 3, 11, 96
9, 146504, Note_on_c, 3, 65, 0
9, 146504, Note_on_c, 3, 69, 0
9, 146520, Note_on_c, 3, 67, 84
9, 146520, Note_on_c, 3, 64, 84
9, 146744, Note_on_c, 3, 67, 0
9, 146744, Note_on_c, 3, 64, 0
9, 146760, Note_on_c, 3, 65, 84
9, 146760, Note_on_c, 3, 69, 84
9, 146999, Note_on_c, 3, 65, 0
9, 146999, Note_on_c, 3, 69, 0
9, 147960, Note_on_c, 3, 65, 84
9, 147960, Note_on_c, 3, 69, 84
9, 148020, Control_c, 3, 11, 96
9, 148424, Note_on_c, 3, 65, 0
9, 148424, Note_on_c, 3, 69, 0
9, 148440, Note_on_c, 3, 67, 84
9, 148440, Note_on_c, 3, 64, 84
9, 148664, Note_on_c, 3, 67, 0
9, 148664, Note_on_c, 3, 64, 0
9, 148680, Note_on_c, 3, 69, 84
9, 148680, Note_on_c, 3, 65, 84
9, 148904, Note_on_c, 3, 69, 0
9, 148904, Note_on_c, 3, 65, 0
9, 148918, Control_c, 3, 11, 127
9, 148920, Note_on_c, 3, 64, 84
9, 148920, Note_on_c, 3, 72, 84
9, 149159, Note_on_c, 3, 64, 0
9, 149159, Note_on_c, 3, 72, 0
9, 149160, Note_on_c, 3, 77, 84
9, 149160, Note_on_c, 3, 74, 84
9, 149399, Note_on_c, 3, 77, 0
9, 149399, Note_on_c, 3, 74, 0
9, 149400, Note_on_c, 3, 72, 84
9, 149400, Note_on_c, 3, 76, 84
9, 149744, Note_on_c, 3, 72, 0
9, 149744, Note_on_c, 3, 76, 0
9, 149760, Note_on_c, 3, 65, 84
9, 149760, Note_on_c, 3, 69, 84
9, 149864, Note_on_c, 3, 65, 0
9, 149864, Note_on_c, 3, 69, 0
9, 149880, Note_on_c, 3, 67, 84
9, 149880, Note_on_c, 3, 64, 84
9, 149999, Note_on_c, 3, 67, 0
9, 149999, Note_on_c, 3, 64, 0
9, 150120, Note_on_c, 3, 65, 84
9, 150120, Note_on_c, 3, 62, 84
9, 150239, Note_on_c, 3, 65, 0
9, 150239, Note_on_c, 3, 62, 0
9, 150360, Note_on_c, 3, 64, 84
9, 150360, Note_on_c, 3, 60, 84
9, 150479, Note_on_c, 3, 64, 0
9, 150479, Note_on_c, 3, 60, 0
9, 150600, Note_on_c, 3, 71, 84
9, 150600, Note_on_c, 3, 62, 84
9, 150719, Note_on_c, 3, 71, 0
9, 150719, Note_on_c, 3, 62, 0
9, 150840, Note_on_c, 3, 64, 84
9, 150840, Note_on_c, 3, 72, 84
9, 150944, Note_on_c, 3, 64, 0
9, 150944, Note_on_c, 3, 72, 0
9, 150960, Note_on_c, 3, 72, 84
9, 150960, Note_on_c, 3, 64, 84
9, 151064, Note_on_c, 3, 72, 0
9, 151064, Note_on_c, 3, 64, 0
9, 151080, Note_on_c, 3, 74, 84
9, 151080, Note_on_c, 3, 77, 84
9, 151184, Note_on_c, 3, 74, 0
9, 151184, Note_on_c, 3, 77, 0
9, 151200, Note_on_c, 3, 77, 84
9, 151200, Note_on_c, 3, 74, 84
9, 151304, Note_on_c, 3, 77, 0
9, 151304, Note_on_c, 3, 74, 0
9, 151320, Note_on_c, 3, 76, 84
9, 151320, Note_on_c, 3, 72, 84
9, 151424, Note_on_c, 3, 76, 0
9, 151424, Note_on_c, 3, 72, 0
9, 151440, Note_on_c, 3, 72, 84
9, 151440, Note_on_c, 3, 76, 84
9, 151559, Note_on_c, 3, 72, 0
9, 151559, Note_on_c, 3, 76, 0
9, 151680, Note_on_c, 3, 69, 84
9, 151680, Note_on_c, 3, 65, 84
9, 151799, Note_on_c, 3, 69, 0
9, 151799, Note_on_c, 3, 65, 0
9, 151920, Note_on_c, 3, 67, 84
9, 151920, Note_on_c, 3, 64, 84
9, 152039, Note_on_c, 3, 67, 0
9, 152039, Note_on_c, 3, 64, 0
9, 152160, Note_on_c, 3, 62, 84
9, 152160, Note_on_c, 3, 65, 84
9, 152279, Note_on_c, 3, 62, 0
9, 152279, Note_on_c, 3, 65, 0
9, 152400, Note_on_c, 3, 60, 84
9, 152400, Note_on_c, 3, 64, 84
9, 152519, Note_on_c, 3, 60, 0
9, 152519, Note_on_c, 3, 64, 0
9, 152640, Note_on_c, 3, 62, 84
9, 152640, Note_on_c, 3, 71, 84
9, 152744, Note_on_c, 3, 62, 0
9, 152744, Note_on_c, 3, 71, 0
9, 152758, Control_c, 3, 11, 112
9, 152760, Note_on_c, 3, 64, 92
9, 152760, Note_on_c, 3, 72, 92
9, 152760, Control_c, 3, 11, 112
9, 152952, Control_c, 3, 11, 113
9, 153104, Note_on_c, 3, 64, 0
9, 153104, Note_on_c, 3, 72, 0
9, 153120, Note_on_c, 3, 64, 92
9, 153120, Note_on_c, 3, 72, 92
9, 153144, Control_c, 3, 11, 114
9, 153224, Note_on_c, 3, 64, 0
9, 153224, Note_on_c, 3, 72, 0
9, 153240, Note_on_c, 3, 72, 92
9, 153240, Note_on_c, 3, 64, 92
9, 153336, Control_c, 3, 11, 115
9, 153528, Control_c, 3, 11, 116
9, 153584, Note_on_c, 3, 72, 0
9, 153584, Note_on_c, 3, 64, 0
9, 153600, Note_on_c, 3, 72, 92
9, 153600, Note_on_c, 3, 64, 92
9, 153704, Note_on_c, 3, 72, 0
9, 153704, Note_on_c, 3, 64, 0
9, 153720, Control_c, 3, 11, 117
9, 153720, Note_on_c, 3, 72, 92
9, 153720, Note_on_c, 3, 64, 92
9, 153912, Control_c, 3, 11, 118
9, 154064, Note_on_c, 3, 72, 0
9, 154064, Note_on_c, 3, 64, 0
9, 154080, Note_on_c, 3, 64, 92
9, 154080, Note_on_c, 3, 72, 92
9, 154104, Control_c, 3, 11, 119
9, 154184, Note_on_c, 3, 64, 0
9, 154184, Note_on_c, 3, 72, 0
9, 154200, Note_on_c, 3, 72, 92
9, 154200, Note_on_c, 3, 64, 92
9, 154296, Control_c, 3, 11, 120
9, 154488, Control_c, 3, 11, 121
9, 154544, Note_on_c, 3, 72, 0
9, 154544, Note_on_c, 3, 64, 0
9, 154560, Note_on_c, 3, 72, 92
9, 154560, Note_on_c, 3, 64, 92
9, 154664, Note_on_c, 3, 72, 0
9, 154664, Note_on_c, 3, 64, 0
9, 154680, Control_c, 3, 11, 122
9, 154680, Note_on_c, 3, 64, 92
9, 154680, Note_on_c, 3, 72, 92
9, 154784, Note_on_c, 3, 64, 0
9, 154784, Note_on_c, 3, 72, 0
9, 154800, Note_on_c, 3, 64, 92
9, 154800, Note_on_c, 3, 72, 92
9, 154872, Control_c, 3, 11, 123
9, 154904, Note_on_c, 3, 64, 0
9, 154904, Note_on_c, 3, 72, 0
9, 154920, Note_on_c, 3, 72, 92
9, 154920, Note_on_c, 3, 64, 92
9, 155024, Note_on_c, 3, 72, 0
9, 155024, Note_on_c, 3, 64, 0
9, 155040, Note_on_c, 3, 76, 92
9, 155040, Note_on_c, 3, 72, 92
9, 155064, Control_c, 3, 11, 124
9, 155144, Note_on_c, 3, 76, 0
9, 155144, Note_on_c, 3, 72, 0
9, 155160, Note_on_c, 3, 72, 92
9, 155160, Note_on_c, 3, 76, 92
9, 155256, Control_c, 3, 11, 125
9, 155264, Note_on_c, 3, 72, 0
9, 155264, Note_on_c, 3, 76, 0
9, 155280, Note_on_c, 3, 76, 92
9, 155280, Note_on_c, 3, 72, 92
9, 155384, Note_on_c, 3, 76, 0
9, 155384, Note_on_c, 3, 72, 0
9, 155400, Note_on_c, 3, 76, 92
9, 155400, Note_on_c, 3, 72, 92
9, 155448, Control_c, 3, 11, 127
9, 155504, Note_on_c, 3, 76, 0
9, 155504, Note_on_c, 3, 72, 0
9, 155520, Note_on_c, 3, 72, 92
9, 155520, Note_on_c, 3, 76, 92
9, 155624, Note_on_c, 3, 72, 0
9, 155624, Note_on_c, 3, 76, 0
9, 155640, Note_on_c, 3, 72, 84
9, 155640, Note_on_c, 3, 76, 84
9, 155759, Note_on_c, 3, 72, 0
9, 155759, Note_on_c, 3, 76, 0
9, 156120, Note_on_c, 3, 72, 52
9, 156120, Note_on_c, 3, 64, 52
9, 156239, Note_on_c, 3, 72, 0
9, 156239, Note_on_c, 3, 64, 0
9, 161040, Note_on_c, 3, 72, 56
9, 161159, Note_on_c, 3, 72, 0
9, 161160, Note_on_c, 3, 74, 60
9, 161219, Note_on_c, 3, 74, 0
9, 161220, Note_on_c, 3, 70, 62
9, 161279, Note_on_c, 3, 70, 0
9, 161280, Note_on_c, 3, 69, 64
9, 161399, Note_on_c, 3, 69, 0
9, 161400, Note_on_c, 3, 72, 68
9, 161519, Note_on_c, 3, 72, 0
9, 161520, Note_on_c, 3, 67, 72
9, 161520, Note_on_c, 3, 70, 72
9, 161624, Note_on_c, 3, 70, 0
9, 161639, Note_on_c, 3, 67, 0
9, 161640, Note_on_c, 3, 65, 76
9, 161640, Note_on_c, 3, 69, 76
9, 161759, Note_on_c, 3, 65, 0
9, 161759, Note_on_c, 3, 69, 0
9, 162360, Note_on_c, 3, 67, 52
9, 162360, Note_on_c, 3, 72, 52
9, 162479, Note_on_c, 3, 67, 0
9, 162479, Note_on_c, 3, 72, 0
9, 162960, Note_on_c, 3, 60, 48
9, 163079, Note_on_c, 3, 60, 0
9, 163080, Note_on_c, 3, 65, 48
9, 163319, Note_on_c, 3, 65, 0
9, 163320, Note_on_c, 3, 69, 48
9, 163439, Note_on_c, 3, 69, 0
9, 163440, Note_on_c, 3, 72, 48
9, 163559, Note_on_c, 3, 72, 0
9, 163560, Note_on_c, 3, 69, 48
9, 163664, Note_on_c, 3, 69, 0
9, 163680, Note_on_c, 3, 69, 48
9, 163799, Note_on_c, 3, 69, 0
9, 163800, Note_on_c, 3, 72, 48
9, 163919, Note_on_c, 3, 72, 0
9, 163920, Note_on_c, 3, 76, 48
9, 164039, Note_on_c, 3, 76, 0
9, 164040, Note_on_c, 3, 77, 48
9, 164040, Note_on_c, 3, 70, 48
9, 164099, Note_on_c, 3, 77, 0
9, 164100, Note_on_c, 3, 74, 48
9, 164159, Note_on_c, 3, 70, 0
9, 164159, Note_on_c, 3, 74, 0
9, 164160, Note_on_c, 3, 72, 48
9, 164160, Note_on_c, 3, 69, 48
9, 164399, Note_on_c, 3, 72, 0
9, 164399, Note_on_c, 3, 69, 0
9, 164400, Note_on_c, 3, 67, 48
9, 164400, Note_on_c, 3, 76, 48
9, 164519, Note_on_c, 3, 67, 0
9, 164519, Note_on_c, 3, 76, 0
9, 164520, Note_on_c, 3, 69, 48
9, 164520, Note_on_c, 3, 77, 48
9, 164639, Note_on_c, 3, 77, 0
9, 164640, Note_on_c, 3, 72, 48
9, 164759, Note_on_c, 3, 69, 0
9, 164759, Note_on_c, 3, 72, 0
9, 164760, Note_on_c, 3, 74, 48
9, 164760, Note_on_c, 3, 70, 48
9, 164864, Note_on_c, 3, 74, 0
9, 164864, Note_on_c, 3, 70, 0
9, 164880, Note_on_c, 3, 72, 48
9, 164880, Note_on_c, 3, 69, 48
9, 164999, Note_on_c, 3, 72, 0
9, 164999, Note_on_c, 3, 69, 0
9, 165000, Note_on_c, 3, 65, 48
9, 165000, Note_on_c, 3, 69, 48
9, 165119, Note_on_c, 3, 65, 0
9, 165119, Note_on_c, 3, 69, 0
9, 165120, Note_on_c, 3, 70, 48
9, 165120, Note_on_c, 3, 67, 48
9, 165239, Note_on_c, 3, 70, 0
9, 165239, Note_on_c, 3, 67, 0
9, 165240, Note_on_c, 3, 69, 48
9, 165240, Note_on_c, 3, 65, 48
9, 165359, Note_on_c, 3, 69, 0
9, 165359, Note_on_c, 3, 65, 0
9, 165360, Note_on_c, 3, 65, 48
9, 165360, Note_on_c, 3, 60, 48
9, 165479, Note_on_c, 3, 65, 0
9, 165479, Note_on_c, 3, 60, 0
9, 165480, Note_on_c, 3, 64, 48
9, 165480, Note_on_c, 3, 67, 48
9, 165599, Note_on_c, 3, 64, 0
9, 165599, Note_on_c, 3, 67, 0
9, 165600, Note_on_c, 3, 65, 48
9, 165600, Note_on_c, 3, 69, 48
9, 165704, Note_on_c, 3, 65, 0
9, 165719, Note_on_c, 3, 69, 0
9, 165720, Note_on_c, 3, 65, 48
9, 165824, Note_on_c, 3, 65, 0
9, 165838, Control_c, 3, 11, 64
9, 165840, Note_on_c, 3, 77, 84
9, 165840, Note_on_c, 3, 65, 84
9, 165960, Control_c, 3, 11, 64
9, 166015, Control_c, 3, 11, 67
9, 166070, Control_c, 3, 11, 69
9, 166125, Control_c, 3, 11, 72
9, 166180, Control_c, 3, 11, 75
9, 166184, Note_on_c, 3, 77, 0
9, 166184, Note_on_c, 3, 65, 0
9, 166200, Note_on_c, 3, 65, 84
9, 166200, Note_on_c, 3, 77, 84
9, 166235, Control_c, 3, 11, 77
9, 166290, Control_c, 3, 11, 80
9, 166345, Control_c, 3, 11, 82
9, 166400, Control_c, 3, 11, 85
9, 166455, Control_c, 3, 11, 88
9, 166510, Control_c, 3, 11, 90
9, 166544, Note_on_c, 3, 65, 0
9, 166544, Note_on_c, 3, 77, 0
9, 166560, Note_on_c, 3, 77, 84
9, 166560, Note_on_c, 3, 65, 84
9, 166565, Control_c, 3, 11, 93
9, 166620, Control_c, 3, 11, 96
9, 166675, Control_c, 3, 11, 98
9, 166730, Control_c, 3, 11, 101
9, 166785, Control_c, 3, 11, 103
9, 166840, Control_c, 3, 11, 106
9, 166895, Control_c, 3, 11, 109
9, 166904, Note_on_c, 3, 77, 0
9, 166904, Note_on_c, 3, 65, 0
9, 166920, Note_on_c, 3, 65, 84
9, 166920, Note_on_c, 3, 77, 84
9, 166950, Control_c, 3, 11, 111
9, 167005, Control_c, 3, 11, 114
9, 167060, Control_c, 3, 11, 117
9, 167115, Control_c, 3, 11, 119
9, 167170, Control_c, 3, 11, 122
9, 167225, Control_c, 3, 11, 127
9, 167264, Note_on_c, 3, 65, 0
9, 167264, Note_on_c, 3, 77, 0
9, 167280, Note_on_c, 3, 72, 84
9, 167280, Note_on_c, 3, 60, 84
9, 167384, Note_on_c, 3, 72, 0
9, 167384, Note_on_c, 3, 60, 0
9, 167400, Note_on_c, 3, 77, 84
9, 167400, Note_on_c, 3, 65, 84
9, 167499, Note_on_c, 3, 77, 0
9, 167499, Note_on_c, 3, 65, 0
9, 167520, Note_on_c, 3, 65, 84
9, 167520, Note_on_c, 3, 77, 84
9, 167619, Note_on_c, 3, 65, 0
9, 167619, Note_on_c, 3, 77, 0
9, 167640, Note_on_c, 3, 65, 84
9, 167640, Note_on_c, 3, 77, 84
9, 167739, Note_on_c, 3, 65, 0
9, 167739, Note_on_c, 3, 77, 0
9, 167760, Note_on_c, 3, 77, 84
9, 167760, Note_on_c, 3, 65, 84
9, 167859, Note_on_c, 3, 77, 0
9, 167859, Note_on_c, 3, 65, 0
9, 167880, Note_on_c, 3, 77, 84
9, 167880, Note_on_c, 3, 65, 84
9, 167979, Note_on_c, 3, 77, 0
9, 167979, Note_on_c, 3, 65, 0
9, 168000, Note_on_c, 3, 77, 84
9, 168000, Note_on_c, 3, 65, 84
9, 168099, Note_on_c, 3, 77, 0
9, 168099, Note_on_c, 3, 65, 0
9, 168120, Note_on_c, 3, 65, 92
9, 168120, Note_on_c, 3, 77, 92
9, 168219, Note_on_c, 3, 65, 0
9, 168219, Note_on_c, 3, 77, 0
9, 168240, Note_on_c, 3, 65, 84
9, 168240, Note_on_c, 3, 77, 84
9, 168339, Note_on_c, 3, 65, 0
9, 168339, Note_on_c, 3, 77, 0
9, 168360, Note_on_c, 3, 67, 84
9, 168360, Note_on_c, 3, 79, 84
9, 168459, Note_on_c, 3, 67, 0
9, 168459, Note_on_c, 3, 79, 0
9, 168480, Note_on_c, 3, 81, 92
9, 168480, Note_on_c, 3, 69, 92
9, 168579, Note_on_c, 3, 81, 0
9, 168579, Note_on_c, 3, 69, 0
9, 168600, Note_on_c, 3, 77, 84
9, 168600, Note_on_c, 3, 65, 84
9, 168699, Note_on_c, 3, 77, 0
9, 168699, Note_on_c, 3, 65, 0
9, 168720, Note_on_c, 3, 79, 84
9, 168720, Note_on_c, 3, 67, 84
9, 168819, Note_on_c, 3, 79, 0
9, 168819, Note_on_c, 3, 67, 0
9, 168840, Note_on_c, 3, 81, 92
9, 168840, Note_on_c, 3, 69, 92
9, 168939, Note_on_c, 3, 81, 0
9, 168939, Note_on_c, 3, 69, 0
9, 168960, Note_on_c, 3, 77, 84
9, 168960, Note_on_c, 3, 65, 84
9, 169059, Note_on_c, 3, 77, 0
9, 169059, Note_on_c, 3, 65, 0
9, 169080, Note_on_c, 3, 67, 84
9, 169080, Note_on_c, 3, 79, 84
9, 169179, Note_on_c, 3, 67, 0
9, 169179, Note_on_c, 3, 79, 0
9, 169200, Note_on_c, 3, 69, 92
9, 169200, Note_on_c, 3, 81, 92
9, 169299, Note_on_c, 3, 69, 0
9, 169299, Note_on_c, 3, 81, 0
9, 169320, Note_on_c, 3, 77, 84
9, 169320, Note_on_c, 3, 65, 84
9, 169419, Note_on_c, 3, 77, 0
9, 169419, Note_on_c, 3, 65, 0
9, 169440, Note_on_c, 3, 67, 84
9, 169440, Note_on_c, 3, 79, 84
9, 169539, Note_on_c, 3, 67, 0
9, 169539, Note_on_c, 3, 79, 0
9, 169560, Note_on_c, 3, 81, 92
9, 169560, Note_on_c, 3, 69, 92
9, 169620, Control_c, 3, 11, 112
9, 169899, Note_on_c, 3, 81, 0
9, 169899, Note_on_c, 3, 69, 0
9, 169920, Note_on_c, 3, 79, 92
9, 169920, Note_on_c, 3, 67, 92
9, 170139, Note_on_c, 3, 79, 0
9, 170139, Note_on_c, 3, 67, 0
9, 170160, Note_on_c, 3, 77, 92
9, 170160, Note_on_c, 3, 65, 92
9, 170259, Note_on_c, 3, 77, 0
9, 170259, Note_on_c, 3, 65, 0
9, 170280, Note_on_c, 3, 76, 92
9, 170280, Note_on_c, 3, 64, 92
9, 170499, Note_on_c, 3, 76, 0
9, 170499, Note_on_c, 3, 64, 0
9, 170520, Note_on_c, 3, 62, 92
9, 170520, Note_on_c, 3, 74, 92
9, 170619, Note_on_c, 3, 62, 0
9, 170619, Note_on_c, 3, 74, 0
9, 170640, Note_on_c, 3, 60, 92
9, 170640, Note_on_c, 3, 72, 92
9, 170859, Note_on_c, 3, 60, 0
9, 170859, Note_on_c, 3, 72, 0
9, 170880, Note_on_c, 3, 67, 92
9, 170880, Note_on_c, 3, 72, 92
9, 170979, Note_on_c, 3, 67, 0
9, 170979, Note_on_c, 3, 72, 0
9, 170998, Control_c, 3, 11, 127
9, 171000, Note_on_c, 3, 65, 92
9, 171000, Note_on_c, 3, 72, 92
9, 171060, Control_c, 3, 11, 112
9, 171339, Note_on_c, 3, 65, 0
9, 171339, Note_on_c, 3, 72, 0
9, 171358, Control_c, 3, 11, 127
9, 171360, Note_on_c, 3, 77, 92
9, 171360, Note_on_c, 3, 74, 92
9, 171420, Control_c, 3, 11, 112
9, 171699, Note_on_c, 3, 77, 0
9, 171699, Note_on_c, 3, 74, 0
9, 171718, Control_c, 3, 11, 127
9, 171720, Note_on_c, 3, 72, 92
9, 171720, Note_on_c, 3, 69, 92
9, 171780, Control_c, 3, 11, 112
9, 172059, Note_on_c, 3, 72, 0
9, 172059, Note_on_c, 3, 69, 0
9, 172080, Note_on_c, 3, 72, 92
9, 172080, Note_on_c, 3, 64, 92
9, 172419, Note_on_c, 3, 72, 0
9, 172419, Note_on_c, 3, 64, 0
9, 172438, Control_c, 3, 11, 127
9, 172440, Note_on_c, 3, 65, 84
9, 172440, Note_on_c, 3, 72, 84
9, 172559, Note_on_c, 3, 65, 0
9, 172559, Note_on_c, 3, 72, 0
9, 173400, Note_on_c, 3, 72, 84
9, 173400, Note_on_c, 3, 60, 84
9, 173499, Note_on_c, 3, 72, 0
9, 173499, Note_on_c, 3, 60, 0
9, 173520, Note_on_c, 3, 72, 84
9, 173520, Note_on_c, 3, 60, 84
9, 173739, Note_on_c, 3, 72, 0
9, 173739, Note_on_c, 3, 60, 0
9, 173760, Note_on_c, 3, 67, 84
9, 173760, Note_on_c, 3, 64, 84
9, 173859, Note_on_c, 3, 67, 0
9, 173859, Note_on_c, 3, 64, 0
9, 173880, Note_on_c, 3, 69, 92
9, 173880, Note_on_c, 3, 65, 92
9, 173940, Control_c, 3, 11, 112
9, 174219, Note_on_c, 3, 69, 0
9, 174219, Note_on_c, 3, 65, 0
9, 174238, Control_c, 3, 11, 127
9, 174240, Note_on_c, 3, 65, 92
9, 174240, Note_on_c, 3, 67, 92
9, 174300, Control_c, 3, 11, 112
9, 174579, Note_on_c, 3, 65, 0
9, 174579, Note_on_c, 3, 67, 0
9, 174598, Control_c, 3, 11, 127
9, 174600, Note_on_c, 3, 65, 92
9, 174600, Note_on_c, 3, 69, 92
9, 174660, Control_c, 3, 11, 112
9, 174939, Note_on_c, 3, 65, 0
9, 174939, Note_on_c, 3, 69, 0
9, 174958, Control_c, 3, 11, 127
9, 174960, Note_on_c, 3, 64, 92
9, 174960, Note_on_c, 3, 67, 92
9, 175020, Control_c, 3, 11, 112
9, 175299, Note_on_c, 3, 64, 0
9, 175299, Note_on_c, 3, 67, 0
9, 175318, Control_c, 3, 11, 127
9, 175320, Note_on_c, 3, 65, 92
9, 175320, Note_on_c, 3, 57, 92
9, 175439, Note_on_c, 3, 65, 0
9, 175439, Note_on_c, 3, 57, 0
9, 176400, Note_on_c, 3, 76, 84
9, 176400, Note_on_c, 3, 67, 84
9, 176499, Note_on_c, 3, 76, 0
9, 176499, Note_on_c, 3, 67, 0
9, 176520, Note_on_c, 3, 67, 84
9, 176520, Note_on_c, 3, 76, 84
9, 176619, Note_on_c, 3, 67, 0
9, 176619, Note_on_c, 3, 76, 0
9, 176640, Note_on_c, 3, 67, 84
9, 176640, Note_on_c, 3, 76, 84
9, 176739, Note_on_c, 3, 67, 0
9, 176739, Note_on_c, 3, 76, 0
9, 176760, Note_on_c, 3, 69, 92
9, 176760, Note_on_c, 3, 77, 92
9, 176879, Note_on_c, 3, 69, 0
9, 176879, Note_on_c, 3, 77, 0
9, 177840, Note_on_c, 3, 67, 84
9, 177840, Note_on_c, 3, 76, 84
9, 177939, Note_on_c, 3, 67, 0
9, 177939, Note_on_c, 3, 76, 0
9, 177960, Note_on_c, 3, 76, 84
9, 177960, Note_on_c, 3, 67, 84
9, 178059, Note_on_c, 3, 76, 0
9, 178059, Note_on_c, 3, 67, 0
9, 178080, Note_on_c, 3, 76, 84
9, 178080, Note_on_c, 3, 67, 84
9, 178199, Note_on_c, 3, 76, 0
9, 178199, Note_on_c, 3, 67, 0
9, 178199, End_track
10, 0, Start_track
10, 0, Title_t, "Bassoon"
10, 0, MIDI_port, 0
10, 0, Program_c, 4, 70
10, 0, Control_c, 4, 7, 96
10, 0, Control_c, 4, 11, 127
10, 0, Control_c, 4, 10, 65
10, 2880, Note_on_c, 4, 57, 44
10, 2880, Note_on_c, 4, 45, 44
10, 2999, Note_on_c, 4, 57, 0
10, 2999, Note_on_c, 4, 45, 0
10, 3000, Note_on_c, 4, 62, 44
10, 3000, Note_on_c, 4, 50, 44
10, 3224, Note_on_c, 4, 62, 0
10, 3224, Note_on_c, 4, 50, 0
10, 3240, Note_on_c, 4, 62, 44
10, 3240, Note_on_c, 4, 50, 44
10, 3584, Note_on_c, 4, 62, 0
10, 3584, Note_on_c, 4, 50, 0
10, 3600, Note_on_c, 4, 50, 44
10, 3600, Note_on_c, 4, 62, 44
10, 3944, Note_on_c, 4, 50, 0
10, 3944, Note_on_c, 4, 62, 0
10, 3960, Note_on_c, 4, 62, 44
10, 3960, Note_on_c, 4, 50, 44
10, 4304, Note_on_c, 4, 62, 0
10, 4304, Note_on_c, 4, 50, 0
10, 4320, Note_on_c, 4, 62, 44
10, 4320, Note_on_c, 4, 50, 44
10, 4664, Note_on_c, 4, 62, 0
10, 4664, Note_on_c, 4, 50, 0
10, 4680, Note_on_c, 4, 62, 44
10, 4680, Note_on_c, 4, 50, 44
10, 5024, Note_on_c, 4, 62, 0
10, 5024, Note_on_c, 4, 50, 0
10, 5040, Note_on_c, 4, 50, 44
10, 5040, Note_on_c, 4, 62, 44
10, 5399, Note_on_c, 4, 50, 0
10, 5399, Note_on_c, 4, 62, 0
10, 5400, Note_on_c, 4, 45, 44
10, 5400, Note_on_c, 4, 61, 44
10, 5519, Note_on_c, 4, 45, 0
10, 5519, Note_on_c, 4, 61, 0
10, 5520, Note_on_c, 4, 50, 44
10, 5520, Note_on_c, 4, 62, 44
10, 5639, Note_on_c, 4, 50, 0
10, 5639, Note_on_c, 4, 62, 0
10, 8640, Note_on_c, 4, 57, 44
10, 8640, Note_on_c, 4, 45, 44
10, 8759, Note_on_c, 4, 57, 0
10, 8759, Note_on_c, 4, 45, 0
10, 8760, Note_on_c, 4, 50, 44
10, 8760, Note_on_c, 4, 62, 44
10, 8984, Note_on_c, 4, 50, 0
10, 8984, Note_on_c, 4, 62, 0
10, 9000, Note_on_c, 4, 50, 44
10, 9000, Note_on_c, 4, 62, 44
10, 9344, Note_on_c, 4, 50, 0
10, 9344, Note_on_c, 4, 62, 0
10, 9360, Note_on_c, 4, 50, 44
10, 9360, Note_on_c, 4, 62, 44
10, 9704, Note_on_c, 4, 50, 0
10, 9704, Note_on_c, 4, 62, 0
10, 9720, Note_on_c, 4, 50, 44
10, 9720, Note_on_c, 4, 62, 44
10, 10064, Note_on_c, 4, 50, 0
10, 10064, Note_on_c, 4, 62, 0
10, 10080, Note_on_c, 4, 62, 44
10, 10080, Note_on_c, 4, 50, 44
10, 10424, Note_on_c, 4, 62, 0
10, 10424, Note_on_c, 4, 50, 0
10, 10440, Note_on_c, 4, 50, 44
10, 10440, Note_on_c, 4, 62, 44
10, 10784, Note_on_c, 4, 50, 0
10, 10784, Note_on_c, 4, 62, 0
10, 10800, Note_on_c, 4, 62, 44
10, 10800, Note_on_c, 4, 50, 44
10, 11159, Note_on_c, 4, 62, 0
10, 11159, Note_on_c, 4, 50, 0
10, 11160, Note_on_c, 4, 61, 44
10, 11160, Note_on_c, 4, 45, 44
10, 11279, Note_on_c, 4, 61, 0
10, 11279, Note_on_c, 4, 45, 0
10, 11280, Note_on_c, 4, 62, 44
10, 11280, Note_on_c, 4, 50, 44
10, 11399, Note_on_c, 4, 62, 0
10, 11399, Note_on_c, 4, 50, 0
10, 12240, Note_on_c, 4, 67, 44
10, 12329, Note_on_c, 4, 67, 0
10, 12360, Note_on_c, 4, 66, 44
10, 12449, Note_on_c, 4, 66, 0
10, 12480, Note_on_c, 4, 62, 44
10, 12569, Note_on_c, 4, 62, 0
10, 12600, Note_on_c, 4, 64, 44
10, 12689, Note_on_c, 4, 64, 0
10, 12720, Note_on_c, 4, 66, 44
10, 12809, Note_on_c, 4, 66, 0
10, 12840, Note_on_c, 4, 62, 44
10, 12929, Note_on_c, 4, 62, 0
10, 13680, Note_on_c, 4, 60, 44
10, 13769, Note_on_c, 4, 60, 0
10, 13800, Note_on_c, 4, 59, 44
10, 13889, Note_on_c, 4, 59, 0
10, 13920, Note_on_c, 4, 55, 44
10, 14009, Note_on_c, 4, 55, 0
10, 14040, Note_on_c, 4, 57, 44
10, 14129, Note_on_c, 4, 57, 0
10, 14160, Note_on_c, 4, 59, 44
10, 14249, Note_on_c, 4, 59, 0
10, 14280, Note_on_c, 4, 55, 44
10, 14369, Note_on_c, 4, 55, 0
10, 15840, Note_on_c, 4, 50, 44
10, 15840, Note_on_c, 4, 59, 44
10, 15944, Note_on_c, 4, 59, 0
10, 15959, Note_on_c, 4, 50, 0
10, 15960, Note_on_c, 4, 60, 44
10, 15960, Note_on_c, 4, 52, 44
10, 16064, Note_on_c, 4, 60, 0
10, 16080, Note_on_c, 4, 55, 44
10, 16184, Note_on_c, 4, 55, 0
10, 16199, Note_on_c, 4, 52, 0
10, 16200, Note_on_c, 4, 57, 44
10, 16200, Note_on_c, 4, 53, 44
10, 16304, Note_on_c, 4, 57, 0
10, 16319, Note_on_c, 4, 53, 0
10, 16320, Note_on_c, 4, 52, 44
10, 16320, Note_on_c, 4, 55, 44
10, 16424, Note_on_c, 4, 55, 0
10, 16439, Note_on_c, 4, 52, 0
10, 16440, Note_on_c, 4, 64, 44
10, 16440, Note_on_c, 4, 55, 44
10, 16544, Note_on_c, 4, 64, 0
10, 16559, Note_on_c, 4, 55, 0
10, 16560, Note_on_c, 4, 65, 44
10, 16560, Note_on_c, 4, 57, 44
10, 16664, Note_on_c, 4, 65, 0
10, 16679, Note_on_c, 4, 57, 0
10, 16680, Note_on_c, 4, 55, 44
10, 16680, Note_on_c, 4, 64, 44
10, 16784, Note_on_c, 4, 64, 0
10, 16799, Note_on_c, 4, 55, 0
10, 16800, Note_on_c, 4, 55, 44
10, 16800, Note_on_c, 4, 60, 44
10, 16904, Note_on_c, 4, 60, 0
10, 16919, Note_on_c, 4, 55, 0
10, 16920, Note_on_c, 4, 62, 44
10, 16920, Note_on_c, 4, 59, 44
10, 17024, Note_on_c, 4, 62, 0
10, 17039, Note_on_c, 4, 59, 0
10, 17040, Note_on_c, 4, 60, 44
10, 17040, Note_on_c, 4, 64, 44
10, 17144, Note_on_c, 4, 64, 0
10, 17159, Note_on_c, 4, 60, 0
10, 17160, Note_on_c, 4, 52, 44
10, 17160, Note_on_c, 4, 60, 44
10, 17279, Note_on_c, 4, 52, 0
10, 17279, Note_on_c, 4, 60, 0
10, 18720, Note_on_c, 4, 48, 84
10, 18824, Note_on_c, 4, 48, 0
10, 18840, Note_on_c, 4, 53, 84
10, 18944, Note_on_c, 4, 53, 0
10, 18960, Note_on_c, 4, 48, 84
10, 19064, Note_on_c, 4, 48, 0
10, 19080, Note_on_c, 4, 50, 84
10, 19184, Note_on_c, 4, 50, 0
10, 19200, Note_on_c, 4, 48, 84
10, 19304, Note_on_c, 4, 48, 0
10, 19320, Note_on_c, 4, 45, 84
10, 19424, Note_on_c, 4, 45, 0
10, 19440, Note_on_c, 4, 46, 84
10, 19544, Note_on_c, 4, 46, 0
10, 19560, Note_on_c, 4, 45, 92
10, 19664, Note_on_c, 4, 45, 0
10, 19680, Note_on_c, 4, 41, 84
10, 19680, Note_on_c, 4, 53, 84
10, 19784, Note_on_c, 4, 41, 0
10, 19784, Note_on_c, 4, 53, 0
10, 19800, Note_on_c, 4, 55, 84
10, 19800, Note_on_c, 4, 43, 84
10, 19904, Note_on_c, 4, 55, 0
10, 19904, Note_on_c, 4, 43, 0
10, 19920, Note_on_c, 4, 45, 92
10, 19920, Note_on_c, 4, 57, 92
10, 20024, Note_on_c, 4, 45, 0
10, 20024, Note_on_c, 4, 57, 0
10, 20040, Note_on_c, 4, 53, 84
10, 20040, Note_on_c, 4, 41, 84
10, 20144, Note_on_c, 4, 53, 0
10, 20144, Note_on_c, 4, 41, 0
10, 20160, Note_on_c, 4, 55, 84
10, 20160, Note_on_c, 4, 43, 84
10, 20264, Note_on_c, 4, 55, 0
10, 20264, Note_on_c, 4, 43, 0
10, 20280, Note_on_c, 4, 57, 92
10, 20280, Note_on_c, 4, 45, 92
10, 20384, Note_on_c, 4, 57, 0
10, 20384, Note_on_c, 4, 45, 0
10, 20400, Note_on_c, 4, 41, 84
10, 20400, Note_on_c, 4, 53, 84
10, 20504, Note_on_c, 4, 41, 0
10, 20504, Note_on_c, 4, 53, 0
10, 20520, Note_on_c, 4, 55, 84
10, 20520, Note_on_c, 4, 43, 84
10, 20624, Note_on_c, 4, 55, 0
10, 20624, Note_on_c, 4, 43, 0
10, 20640, Note_on_c, 4, 57, 92
10, 20640, Note_on_c, 4, 45, 92
10, 20744, Note_on_c, 4, 57, 0
10, 20744, Note_on_c, 4, 45, 0
10, 20760, Note_on_c, 4, 41, 84
10, 20760, Note_on_c, 4, 53, 84
10, 20864, Note_on_c, 4, 41, 0
10, 20864, Note_on_c, 4, 53, 0
10, 20880, Note_on_c, 4, 43, 84
10, 20880, Note_on_c, 4, 55, 84
10, 20984, Note_on_c, 4, 43, 0
10, 20984, Note_on_c, 4, 55, 0
10, 21000, Note_on_c, 4, 45, 92
10, 21000, Note_on_c, 4, 57, 92
10, 21060, Control_c, 4, 11, 112
10, 21344, Note_on_c, 4, 45, 0
10, 21344, Note_on_c, 4, 57, 0
10, 21360, Note_on_c, 4, 43, 92
10, 21360, Note_on_c, 4, 55, 92
10, 21584, Note_on_c, 4, 43, 0
10, 21584, Note_on_c, 4, 55, 0
10, 21600, Note_on_c, 4, 41, 92
10, 21600, Note_on_c, 4, 53, 92
10, 21704, Note_on_c, 4, 41, 0
10, 21704, Note_on_c, 4, 53, 0
10, 21720, Note_on_c, 4, 52, 92
10, 21720, Note_on_c, 4, 40, 92
10, 21944, Note_on_c, 4, 52, 0
10, 21944, Note_on_c, 4, 40, 0
10, 21960, Note_on_c, 4, 50, 92
10, 21960, Note_on_c, 4, 38, 92
10, 22064, Note_on_c, 4, 50, 0
10, 22064, Note_on_c, 4, 38, 0
10, 22080, Note_on_c, 4, 36, 92
10, 22080, Note_on_c, 4, 48, 92
10, 22304, Note_on_c, 4, 36, 0
10, 22304, Note_on_c, 4, 48, 0
10, 22320, Note_on_c, 4, 58, 92
10, 22320, Note_on_c, 4, 46, 92
10, 22424, Note_on_c, 4, 58, 0
10, 22424, Note_on_c, 4, 46, 0
10, 22438, Control_c, 4, 11, 127
10, 22440, Note_on_c, 4, 57, 92
10, 22440, Note_on_c, 4, 45, 92
10, 22500, Control_c, 4, 11, 112
10, 22784, Note_on_c, 4, 57, 0
10, 22784, Note_on_c, 4, 45, 0
10, 22798, Control_c, 4, 11, 127
10, 22800, Note_on_c, 4, 58, 92
10, 22800, Note_on_c, 4, 46, 92
10, 22860, Control_c, 4, 11, 112
10, 23144, Note_on_c, 4, 58, 0
10, 23144, Note_on_c, 4, 46, 0
10, 23158, Control_c, 4, 11, 127
10, 23160, Note_on_c, 4, 48, 92
10, 23160, Note_on_c, 4, 60, 92
10, 23220, Control_c, 4, 11, 112
10, 23504, Note_on_c, 4, 48, 0
10, 23504, Note_on_c, 4, 60, 0
10, 23518, Control_c, 4, 11, 127
10, 23520, Note_on_c, 4, 48, 92
10, 23520, Note_on_c, 4, 36, 92
10, 23580, Control_c, 4, 11, 112
10, 23864, Note_on_c, 4, 48, 0
10, 23864, Note_on_c, 4, 36, 0
10, 23880, Note_on_c, 4, 53, 92
10, 23880, Note_on_c, 4, 41, 92
10, 23999, Note_on_c, 4, 53, 0
10, 23999, Note_on_c, 4, 41, 0
10, 24120, Note_on_c, 4, 57, 92
10, 24120, Note_on_c, 4, 45, 92
10, 24224, Note_on_c, 4, 57, 0
10, 24224, Note_on_c, 4, 45, 0
10, 24240, Note_on_c, 4, 55, 92
10, 24240, Note_on_c, 4, 43, 92
10, 24464, Note_on_c, 4, 55, 0
10, 24464, Note_on_c, 4, 43, 0
10, 24480, Note_on_c, 4, 41, 92
10, 24480, Note_on_c, 4, 53, 92
10, 24584, Note_on_c, 4, 41, 0
10, 24584, Note_on_c, 4, 53, 0
10, 24600, Note_on_c, 4, 40, 92
10, 24600, Note_on_c, 4, 52, 92
10, 24824, Note_on_c, 4, 40, 0
10, 24824, Note_on_c, 4, 52, 0
10, 24840, Note_on_c, 4, 50, 92
10, 24840, Note_on_c, 4, 38, 92
10, 24944, Note_on_c, 4, 50, 0
10, 24944, Note_on_c, 4, 38, 0
10, 24960, Note_on_c, 4, 48, 92
10, 24960, Note_on_c, 4, 36, 92
10, 25184, Note_on_c, 4, 48, 0
10, 25184, Note_on_c, 4, 36, 0
10, 25200, Note_on_c, 4, 58, 92
10, 25200, Note_on_c, 4, 46, 92
10, 25304, Note_on_c, 4, 58, 0
10, 25304, Note_on_c, 4, 46, 0
10, 25318, Control_c, 4, 11, 127
10, 25320, Note_on_c, 4, 45, 92
10, 25320, Note_on_c, 4, 57, 92
10, 25380, Control_c, 4, 11, 112
10, 25664, Note_on_c, 4, 45, 0
10, 25664, Note_on_c, 4, 57, 0
10, 25678, Control_c, 4, 11, 127
10, 25680, Note_on_c, 4, 58, 92
10, 25680, Note_on_c, 4, 46, 92
10, 25740, Control_c, 4, 11, 112
10, 26024, Note_on_c, 4, 58, 0
10, 26024, Note_on_c, 4, 46, 0
10, 26038, Control_c, 4, 11, 127
10, 26040, Note_on_c, 4, 60, 92
10, 26040, Note_on_c, 4, 48, 92
10, 26100, Control_c, 4, 11, 112
10, 26384, Note_on_c, 4, 60, 0
10, 26384, Note_on_c, 4, 48, 0
10, 26398, Control_c, 4, 11, 127
10, 26400, Note_on_c, 4, 48, 92
10, 26400, Note_on_c, 4, 36, 92
10, 26460, Control_c, 4, 11, 112
10, 26624, Note_on_c, 4, 48, 0
10, 26624, Note_on_c, 4, 36, 0
10, 26758, Control_c, 4, 11, 127
10, 26760, Note_on_c, 4, 53, 92
10, 26760, Note_on_c, 4, 41, 92
10, 26864, Note_on_c, 4, 53, 0
10, 26864, Note_on_c, 4, 41, 0
10, 26880, Note_on_c, 4, 57, 84
10, 26880, Note_on_c, 4, 53, 84
10, 26984, Note_on_c, 4, 57, 0
10, 26984, Note_on_c, 4, 53, 0
10, 27000, Note_on_c, 4, 53, 84
10, 27000, Note_on_c, 4, 57, 84
10, 27104, Note_on_c, 4, 53, 0
10, 27104, Note_on_c, 4, 57, 0
10, 27120, Note_on_c, 4, 60, 92
10, 27120, Note_on_c, 4, 57, 92
10, 27224, Note_on_c, 4, 60, 0
10, 27224, Note_on_c, 4, 57, 0
10, 27240, Note_on_c, 4, 57, 84
10, 27240, Note_on_c, 4, 53, 84
10, 27344, Note_on_c, 4, 57, 0
10, 27344, Note_on_c, 4, 53, 0
10, 27360, Note_on_c, 4, 53, 84
10, 27360, Note_on_c, 4, 57, 84
10, 27464, Note_on_c, 4, 53, 0
10, 27464, Note_on_c, 4, 57, 0
10, 27480, Note_on_c, 4, 60, 92
10, 27480, Note_on_c, 4, 57, 92
10, 27584, Note_on_c, 4, 60, 0
10, 27584, Note_on_c, 4, 57, 0
10, 27600, Note_on_c, 4, 57, 84
10, 27600, Note_on_c, 4, 53, 84
10, 27704, Note_on_c, 4, 57, 0
10, 27704, Note_on_c, 4, 53, 0
10, 27720, Note_on_c, 4, 57, 84
10, 27720, Note_on_c, 4, 53, 84
10, 27824, Note_on_c, 4, 57, 0
10, 27824, Note_on_c, 4, 53, 0
10, 27840, Note_on_c, 4, 55, 92
10, 27840, Note_on_c, 4, 58, 92
10, 27944, Note_on_c, 4, 55, 0
10, 27944, Note_on_c, 4, 58, 0
10, 27960, Note_on_c, 4, 55, 84
10, 27960, Note_on_c, 4, 48, 84
10, 28064, Note_on_c, 4, 55, 0
10, 28064, Note_on_c, 4, 48, 0
10, 28080, Note_on_c, 4, 55, 84
10, 28080, Note_on_c, 4, 48, 84
10, 28184, Note_on_c, 4, 55, 0
10, 28184, Note_on_c, 4, 48, 0
10, 28200, Note_on_c, 4, 57, 92
10, 28200, Note_on_c, 4, 60, 92
10, 28304, Note_on_c, 4, 57, 0
10, 28304, Note_on_c, 4, 60, 0
10, 28320, Note_on_c, 4, 57, 84
10, 28320, Note_on_c, 4, 53, 84
10, 28424, Note_on_c, 4, 57, 0
10, 28424, Note_on_c, 4, 53, 0
10, 28440, Note_on_c, 4, 53, 84
10, 28440, Note_on_c, 4, 57, 84
10, 28544, Note_on_c, 4, 53, 0
10, 28544, Note_on_c, 4, 57, 0
10, 28560, Note_on_c, 4, 57, 92
10, 28560, Note_on_c, 4, 60, 92
10, 28664, Note_on_c, 4, 57, 0
10, 28664, Note_on_c, 4, 60, 0
10, 28680, Note_on_c, 4, 53, 84
10, 28680, Note_on_c, 4, 57, 84
10, 28784, Note_on_c, 4, 53, 0
10, 28784, Note_on_c, 4, 57, 0
10, 28800, Note_on_c, 4, 53, 84
10, 28800, Note_on_c, 4, 57, 84
10, 28904, Note_on_c, 4, 53, 0
10, 28904, Note_on_c, 4, 57, 0
10, 28920, Note_on_c, 4, 57, 92
10, 28920, Note_on_c, 4, 60, 92
10, 29024, Note_on_c, 4, 57, 0
10, 29024, Note_on_c, 4, 60, 0
10, 29040, Note_on_c, 4, 57, 84
10, 29040, Note_on_c, 4, 53, 84
10, 29144, Note_on_c, 4, 57, 0
10, 29144, Note_on_c, 4, 53, 0
10, 29160, Note_on_c, 4, 57, 84
10, 29160, Note_on_c, 4, 53, 84
10, 29264, Note_on_c, 4, 57, 0
10, 29264, Note_on_c, 4, 53, 0
10, 29280, Note_on_c, 4, 55, 92
10, 29280, Note_on_c, 4, 58, 92
10, 29384, Note_on_c, 4, 55, 0
10, 29384, Note_on_c, 4, 58, 0
10, 29400, Note_on_c, 4, 48, 84
10, 29400, Note_on_c, 4, 55, 84
10, 29504, Note_on_c, 4, 48, 0
10, 29504, Note_on_c, 4, 55, 0
10, 29520, Note_on_c, 4, 55, 84
10, 29520, Note_on_c, 4, 48, 84
10, 29624, Note_on_c, 4, 55, 0
10, 29624, Note_on_c, 4, 48, 0
10, 29640, Note_on_c, 4, 57, 92
10, 29640, Note_on_c, 4, 60, 92
10, 29744, Note_on_c, 4, 57, 0
10, 29744, Note_on_c, 4, 60, 0
10, 29760, Note_on_c, 4, 57, 84
10, 29760, Note_on_c, 4, 53, 84
10, 29864, Note_on_c, 4, 57, 0
10, 29864, Note_on_c, 4, 53, 0
10, 29880, Note_on_c, 4, 57, 84
10, 29880, Note_on_c, 4, 53, 84
10, 29984, Note_on_c, 4, 57, 0
10, 29984, Note_on_c, 4, 53, 0
10, 30000, Note_on_c, 4, 57, 92
10, 30000, Note_on_c, 4, 60, 92
10, 30104, Note_on_c, 4, 57, 0
10, 30104, Note_on_c, 4, 60, 0
10, 30120, Note_on_c, 4, 57, 84
10, 30120, Note_on_c, 4, 53, 84
10, 30224, Note_on_c, 4, 57, 0
10, 30224, Note_on_c, 4, 53, 0
10, 30240, Note_on_c, 4, 57, 84
10, 30240, Note_on_c, 4, 53, 84
10, 30344, Note_on_c, 4, 57, 0
10, 30344, Note_on_c, 4, 53, 0
10, 30360, Note_on_c, 4, 60, 92
10, 30360, Note_on_c, 4, 57, 92
10, 30464, Note_on_c, 4, 60, 0
10, 30464, Note_on_c, 4, 57, 0
10, 30480, Note_on_c, 4, 57, 84
10, 30480, Note_on_c, 4, 53, 84
10, 30584, Note_on_c, 4, 57, 0
10, 30584, Note_on_c, 4, 53, 0
10, 30600, Note_on_c, 4, 57, 84
10, 30600, Note_on_c, 4, 53, 84
10, 30704, Note_on_c, 4, 57, 0
10, 30704, Note_on_c, 4, 53, 0
10, 30720, Note_on_c, 4, 60, 92
10, 30720, Note_on_c, 4, 57, 92
10, 30824, Note_on_c, 4, 60, 0
10, 30824, Note_on_c, 4, 57, 0
10, 30840, Note_on_c, 4, 57, 84
10, 30840, Note_on_c, 4, 53, 84
10, 30944, Note_on_c, 4, 57, 0
10, 30944, Note_on_c, 4, 53, 0
10, 30960, Note_on_c, 4, 53, 84
10, 30960, Note_on_c, 4, 57, 84
10, 31079, Note_on_c, 4, 53, 0
10, 31079, Note_on_c, 4, 57, 0
10, 33960, Note_on_c, 4, 53, 52
10, 34304, Note_on_c, 4, 53, 0
10, 34320, Note_on_c, 4, 48, 52
10, 34664, Note_on_c, 4, 48, 0
10, 34680, Note_on_c, 4, 41, 52
10, 35039, Note_on_c, 4, 41, 0
10, 36840, Note_on_c, 4, 53, 52
10, 37184, Note_on_c, 4, 53, 0
10, 37200, Note_on_c, 4, 48, 52
10, 37544, Note_on_c, 4, 48, 0
10, 37560, Note_on_c, 4, 48, 52
10, 37904, Note_on_c, 4, 48, 0
10, 37920, Note_on_c, 4, 41, 52
10, 38279, Note_on_c, 4, 41, 0
10, 40080, Note_on_c, 4, 53, 52
10, 40424, Note_on_c, 4, 53, 0
10, 40440, Note_on_c, 4, 48, 52
10, 40784, Note_on_c, 4, 48, 0
10, 40800, Note_on_c, 4, 41, 52
10, 41159, Note_on_c, 4, 41, 0
10, 42600, Note_on_c, 4, 53, 52
10, 42944, Note_on_c, 4, 53, 0
10, 42960, Note_on_c, 4, 48, 52
10, 43304, Note_on_c, 4, 48, 0
10, 43320, Note_on_c, 4, 48, 52
10, 43664, Note_on_c, 4, 48, 0
10, 43680, Note_on_c, 4, 41, 52
10, 44024, Note_on_c, 4, 41, 0
10, 44040, Note_on_c, 4, 64, 52
10, 44040, Note_on_c, 4, 67, 52
10, 44144, Note_on_c, 4, 64, 0
10, 44144, Note_on_c, 4, 67, 0
10, 44160, Note_on_c, 4, 64, 52
10, 44160, Note_on_c, 4, 60, 52
10, 44264, Note_on_c, 4, 64, 0
10, 44264, Note_on_c, 4, 60, 0
10, 44280, Note_on_c, 4, 60, 52
10, 44280, Note_on_c, 4, 64, 52
10, 44384, Note_on_c, 4, 60, 0
10, 44384, Note_on_c, 4, 64, 0
10, 44400, Note_on_c, 4, 64, 52
10, 44400, Note_on_c, 4, 67, 52
10, 44504, Note_on_c, 4, 64, 0
10, 44504, Note_on_c, 4, 67, 0
10, 44520, Note_on_c, 4, 64, 52
10, 44520, Note_on_c, 4, 60, 52
10, 44624, Note_on_c, 4, 64, 0
10, 44624, Note_on_c, 4, 60, 0
10, 44640, Note_on_c, 4, 64, 52
10, 44640, Note_on_c, 4, 60, 52
10, 44744, Note_on_c, 4, 64, 0
10, 44744, Note_on_c, 4, 60, 0
10, 44760, Note_on_c, 4, 67, 52
10, 44760, Note_on_c, 4, 65, 52
10, 44864, Note_on_c, 4, 67, 0
10, 44864, Note_on_c, 4, 65, 0
10, 44880, Note_on_c, 4, 60, 52
10, 44880, Note_on_c, 4, 65, 52
10, 44984, Note_on_c, 4, 60, 0
10, 44984, Note_on_c, 4, 65, 0
10, 45000, Note_on_c, 4, 65, 52
10, 45000, Note_on_c, 4, 60, 52
10, 45104, Note_on_c, 4, 65, 0
10, 45104, Note_on_c, 4, 60, 0
10, 45120, Note_on_c, 4, 67, 52
10, 45120, Note_on_c, 4, 65, 52
10, 45224, Note_on_c, 4, 67, 0
10, 45224, Note_on_c, 4, 65, 0
10, 45240, Note_on_c, 4, 60, 52
10, 45240, Note_on_c, 4, 65, 52
10, 45344, Note_on_c, 4, 60, 0
10, 45344, Note_on_c, 4, 65, 0
10, 45360, Note_on_c, 4, 65, 52
10, 45360, Note_on_c, 4, 60, 52
10, 45464, Note_on_c, 4, 65, 0
10, 45464, Note_on_c, 4, 60, 0
10, 45480, Note_on_c, 4, 64, 52
10, 45480, Note_on_c, 4, 67, 52
10, 45584, Note_on_c, 4, 64, 0
10, 45584, Note_on_c, 4, 67, 0
10, 45600, Note_on_c, 4, 64, 52
10, 45600, Note_on_c, 4, 60, 52
10, 45704, Note_on_c, 4, 64, 0
10, 45704, Note_on_c, 4, 60, 0
10, 45720, Note_on_c, 4, 60, 52
10, 45720, Note_on_c, 4, 64, 52
10, 45824, Note_on_c, 4, 60, 0
10, 45824, Note_on_c, 4, 64, 0
10, 45840, Note_on_c, 4, 65, 52
10, 45840, Note_on_c, 4, 67, 52
10, 45944, Note_on_c, 4, 65, 0
10, 45944, Note_on_c, 4, 67, 0
10, 45960, Note_on_c, 4, 59, 52
10, 45960, Note_on_c, 4, 62, 52
10, 46064, Note_on_c, 4, 59, 0
10, 46064, Note_on_c, 4, 62, 0
10, 46080, Note_on_c, 4, 62, 52
10, 46080, Note_on_c, 4, 59, 52
10, 46184, Note_on_c, 4, 62, 0
10, 46184, Note_on_c, 4, 59, 0
10, 46200, Note_on_c, 4, 67, 52
10, 46200, Note_on_c, 4, 64, 52
10, 46304, Note_on_c, 4, 67, 0
10, 46304, Note_on_c, 4, 64, 0
10, 46320, Note_on_c, 4, 64, 52
10, 46320, Note_on_c, 4, 60, 52
10, 46424, Note_on_c, 4, 64, 0
10, 46424, Note_on_c, 4, 60, 0
10, 46440, Note_on_c, 4, 64, 52
10, 46440, Note_on_c, 4, 60, 52
10, 46544, Note_on_c, 4, 64, 0
10, 46544, Note_on_c, 4, 60, 0
10, 46560, Note_on_c, 4, 67, 52
10, 46560, Note_on_c, 4, 64, 52
10, 46664, Note_on_c, 4, 67, 0
10, 46664, Note_on_c, 4, 64, 0
10, 46680, Note_on_c, 4, 60, 52
10, 46680, Note_on_c, 4, 64, 52
10, 46784, Note_on_c, 4, 60, 0
10, 46784, Note_on_c, 4, 64, 0
10, 46800, Note_on_c, 4, 64, 52
10, 46800, Note_on_c, 4, 60, 52
10, 46904, Note_on_c, 4, 64, 0
10, 46904, Note_on_c, 4, 60, 0
10, 46918, Control_c, 4, 11, 96
10, 46920, Note_on_c, 4, 64, 68
10, 46920, Note_on_c, 4, 67, 68
10, 46950, Control_c, 4, 11, 97
10, 46980, Control_c, 4, 11, 99
10, 47010, Control_c, 4, 11, 100
10, 47024, Note_on_c, 4, 64, 0
10, 47024, Note_on_c, 4, 67, 0
10, 47040, Note_on_c, 4, 60, 68
10, 47040, Note_on_c, 4, 64, 68
10, 47040, Control_c, 4, 11, 101
10, 47070, Control_c, 4, 11, 102
10, 47100, Control_c, 4, 11, 104
10, 47130, Control_c, 4, 11, 105
10, 47144, Note_on_c, 4, 60, 0
10, 47144, Note_on_c, 4, 64, 0
10, 47160, Note_on_c, 4, 60, 68
10, 47160, Note_on_c, 4, 64, 68
10, 47160, Control_c, 4, 11, 106
10, 47190, Control_c, 4, 11, 108
10, 47220, Control_c, 4, 11, 109
10, 47250, Control_c, 4, 11, 110
10, 47264, Note_on_c, 4, 60, 0
10, 47264, Note_on_c, 4, 64, 0
10, 47280, Control_c, 4, 11, 112
10, 47280, Note_on_c, 4, 64, 68
10, 47280, Note_on_c, 4, 67, 68
10, 47310, Control_c, 4, 11, 113
10, 47340, Control_c, 4, 11, 114
10, 47370, Control_c, 4, 11, 115
10, 47384, Note_on_c, 4, 64, 0
10, 47384, Note_on_c, 4, 67, 0
10, 47400, Control_c, 4, 11, 117
10, 47400, Note_on_c, 4, 55, 68
10, 47400, Note_on_c, 4, 48, 68
10, 47430, Control_c, 4, 11, 118
10, 47460, Control_c, 4, 11, 119
10, 47490, Control_c, 4, 11, 121
10, 47504, Note_on_c, 4, 55, 0
10, 47504, Note_on_c, 4, 48, 0
10, 47520, Note_on_c, 4, 48, 68
10, 47520, Note_on_c, 4, 55, 68
10, 47520, Control_c, 4, 11, 122
10, 47550, Control_c, 4, 11, 123
10, 47580, Control_c, 4, 11, 124
10, 47610, Control_c, 4, 11, 127
10, 47624, Note_on_c, 4, 48, 0
10, 47624, Note_on_c, 4, 55, 0
10, 47640, Note_on_c, 4, 57, 52
10, 47640, Note_on_c, 4, 53, 52
10, 47759, Note_on_c, 4, 57, 0
10, 47759, Note_on_c, 4, 53, 0
10, 48960, Control_c, 4, 11, 96
10, 49080, Note_on_c, 4, 53, 68
10, 49424, Note_on_c, 4, 53, 0
10, 49440, Note_on_c, 4, 48, 68
10, 49784, Note_on_c, 4, 48, 0
10, 49800, Note_on_c, 4, 41, 68
10, 50144, Note_on_c, 4, 41, 0
10, 50160, Note_on_c, 4, 48, 68
10, 50504, Note_on_c, 4, 48, 0
10, 50520, Note_on_c, 4, 53, 68
10, 50520, Control_c, 4, 11, 96
10, 50580, Control_c, 4, 11, 97
10, 50640, Control_c, 4, 11, 99
10, 50700, Control_c, 4, 11, 100
10, 50760, Control_c, 4, 11, 101
10, 50820, Control_c, 4, 11, 102
10, 50864, Note_on_c, 4, 53, 0
10, 50880, Control_c, 4, 11, 104
10, 50880, Note_on_c, 4, 53, 68
10, 50940, Control_c, 4, 11, 105
10, 51000, Control_c, 4, 11, 106
10, 51060, Control_c, 4, 11, 108
10, 51120, Control_c, 4, 11, 109
10, 51180, Control_c, 4, 11, 110
10, 51224, Note_on_c, 4, 53, 0
10, 51240, Note_on_c, 4, 48, 68
10, 51240, Control_c, 4, 11, 112
10, 51300, Control_c, 4, 11, 113
10, 51360, Control_c, 4, 11, 114
10, 51420, Control_c, 4, 11, 115
10, 51480, Control_c, 4, 11, 117
10, 51540, Control_c, 4, 11, 118
10, 51584, Note_on_c, 4, 48, 0
10, 51600, Note_on_c, 4, 48, 68
10, 51600, Control_c, 4, 11, 119
10, 51660, Control_c, 4, 11, 121
10, 51720, Control_c, 4, 11, 122
10, 51780, Control_c, 4, 11, 123
10, 51840, Control_c, 4, 11, 124
10, 51944, Note_on_c, 4, 48, 0
10, 51958, Control_c, 4, 11, 80
10, 51960, Note_on_c, 4, 41, 76
10, 53399, Note_on_c, 4, 41, 0
10, 53400, Note_on_c, 4, 41, 76
10, 54839, Note_on_c, 4, 41, 0
10, 54840, Note_on_c, 4, 41, 76
10, 55200, Note_on_c, 4, 60, 76
10, 56279, Note_on_c, 4, 60, 0
10, 56280, Control_c, 4, 11, 80
10, 56280, Note_on_c, 4, 60, 76
10, 56340, Control_c, 4, 11, 82
10, 56400, Control_c, 4, 11, 84
10, 56460, Control_c, 4, 11, 86
10, 56519, Note_on_c, 4, 41, 0
10, 56520, Control_c, 4, 11, 88
10, 56520, Note_on_c, 4, 46, 76
10, 56580, Control_c, 4, 11, 90
10, 56639, Note_on_c, 4, 46, 0
10, 56640, Note_on_c, 4, 48, 76
10, 56640, Control_c, 4, 11, 92
10, 56700, Control_c, 4, 11, 94
10, 56759, Note_on_c, 4, 48, 0
10, 56760, Note_on_c, 4, 45, 76
10, 56760, Control_c, 4, 11, 96
10, 56820, Control_c, 4, 11, 98
10, 56879, Note_on_c, 4, 45, 0
10, 56880, Note_on_c, 4, 46, 76
10, 56880, Control_c, 4, 11, 100
10, 56940, Control_c, 4, 11, 102
10, 56984, Note_on_c, 4, 46, 0
10, 57000, Note_on_c, 4, 43, 76
10, 57000, Control_c, 4, 11, 104
10, 57060, Control_c, 4, 11, 105
10, 57120, Control_c, 4, 11, 107
10, 57180, Control_c, 4, 11, 109
10, 57239, Note_on_c, 4, 43, 0
10, 57240, Note_on_c, 4, 45, 76
10, 57240, Control_c, 4, 11, 111
10, 57300, Control_c, 4, 11, 113
10, 57359, Note_on_c, 4, 45, 0
10, 57360, Control_c, 4, 11, 115
10, 57360, Note_on_c, 4, 46, 76
10, 57420, Control_c, 4, 11, 117
10, 57479, Note_on_c, 4, 46, 0
10, 57480, Control_c, 4, 11, 119
10, 57480, Note_on_c, 4, 43, 76
10, 57540, Control_c, 4, 11, 121
10, 57599, Note_on_c, 4, 43, 0
10, 57600, Control_c, 4, 11, 123
10, 57600, Note_on_c, 4, 45, 76
10, 57660, Control_c, 4, 11, 127
10, 57704, Note_on_c, 4, 60, 0
10, 57704, Note_on_c, 4, 45, 0
10, 57720, Note_on_c, 4, 53, 76
10, 57720, Note_on_c, 4, 41, 76
10, 57839, Note_on_c, 4, 53, 0
10, 57839, Note_on_c, 4, 41, 0
10, 57960, Note_on_c, 4, 46, 76
10, 58059, Note_on_c, 4, 46, 0
10, 58080, Note_on_c, 4, 48, 76
10, 58179, Note_on_c, 4, 48, 0
10, 58200, Note_on_c, 4, 45, 76
10, 58299, Note_on_c, 4, 45, 0
10, 58320, Note_on_c, 4, 46, 76
10, 58419, Note_on_c, 4, 46, 0
10, 58440, Note_on_c, 4, 46, 76
10, 58539, Note_on_c, 4, 46, 0
10, 58560, Note_on_c, 4, 43, 76
10, 58659, Note_on_c, 4, 43, 0
10, 58680, Note_on_c, 4, 45, 76
10, 58779, Note_on_c, 4, 45, 0
10, 58800, Note_on_c, 4, 45, 76
10, 58899, Note_on_c, 4, 45, 0
10, 58920, Note_on_c, 4, 41, 76
10, 59019, Note_on_c, 4, 41, 0
10, 59040, Note_on_c, 4, 43, 76
10, 59139, Note_on_c, 4, 43, 0
10, 59160, Note_on_c, 4, 60, 84
10, 59160, Note_on_c, 4, 57, 84
10, 59220, Control_c, 4, 11, 96
10, 59624, Note_on_c, 4, 60, 0
10, 59624, Note_on_c, 4, 57, 0
10, 59638, Control_c, 4, 11, 127
10, 59640, Note_on_c, 4, 57, 84
10, 59640, Note_on_c, 4, 60, 84
10, 59700, Control_c, 4, 11, 96
10, 60104, Note_on_c, 4, 57, 0
10, 60104, Note_on_c, 4, 60, 0
10, 60118, Control_c, 4, 11, 127
10, 60120, Note_on_c, 4, 62, 84
10, 60120, Note_on_c, 4, 58, 84
10, 60180, Control_c, 4, 11, 96
10, 60584, Note_on_c, 4, 62, 0
10, 60584, Note_on_c, 4, 58, 0
10, 60598, Control_c, 4, 11, 127
10, 60600, Note_on_c, 4, 57, 84
10, 60600, Note_on_c, 4, 60, 84
10, 60660, Control_c, 4, 11, 96
10, 60839, Note_on_c, 4, 57, 0
10, 60839, Note_on_c, 4, 60, 0
10, 60840, Note_on_c, 4, 58, 84
10, 60840, Note_on_c, 4, 62, 84
10, 61064, Note_on_c, 4, 58, 0
10, 61064, Note_on_c, 4, 62, 0
10, 61078, Control_c, 4, 11, 127
10, 61080, Note_on_c, 4, 57, 84
10, 61080, Note_on_c, 4, 60, 84
10, 61140, Control_c, 4, 11, 96
10, 61544, Note_on_c, 4, 57, 0
10, 61544, Note_on_c, 4, 60, 0
10, 61558, Control_c, 4, 11, 127
10, 61560, Note_on_c, 4, 57, 84
10, 61560, Note_on_c, 4, 60, 84
10, 61620, Control_c, 4, 11, 96
10, 62024, Note_on_c, 4, 57, 0
10, 62024, Note_on_c, 4, 60, 0
10, 62038, Control_c, 4, 11, 127
10, 62040, Note_on_c, 4, 62, 84
10, 62040, Note_on_c, 4, 58, 84
10, 62100, Control_c, 4, 11, 96
10, 62504, Note_on_c, 4, 62, 0
10, 62504, Note_on_c, 4, 58, 0
10, 62518, Control_c, 4, 11, 127
10, 62520, Note_on_c, 4, 60, 84
10, 62520, Note_on_c, 4, 57, 84
10, 62580, Control_c, 4, 11, 96
10, 62759, Note_on_c, 4, 60, 0
10, 62759, Note_on_c, 4, 57, 0
10, 62760, Note_on_c, 4, 58, 84
10, 62760, Note_on_c, 4, 62, 84
10, 62984, Note_on_c, 4, 58, 0
10, 62984, Note_on_c, 4, 62, 0
10, 62998, Control_c, 4, 11, 127
10, 63000, Note_on_c, 4, 60, 84
10, 63000, Note_on_c, 4, 57, 84
10, 63060, Control_c, 4, 11, 96
10, 63464, Note_on_c, 4, 60, 0
10, 63464, Note_on_c, 4, 57, 0
10, 63478, Control_c, 4, 11, 127
10, 63480, Note_on_c, 4, 57, 84
10, 63480, Note_on_c, 4, 60, 84
10, 63540, Control_c, 4, 11, 96
10, 63944, Note_on_c, 4, 57, 0
10, 63944, Note_on_c, 4, 60, 0
10, 63958, Control_c, 4, 11, 127
10, 63960, Note_on_c, 4, 62, 84
10, 63960, Note_on_c, 4, 58, 84
10, 64020, Control_c, 4, 11, 96
10, 64424, Note_on_c, 4, 62, 0
10, 64424, Note_on_c, 4, 58, 0
10, 64438, Control_c, 4, 11, 127
10, 64440, Note_on_c, 4, 60, 84
10, 64440, Note_on_c, 4, 57, 84
10, 64500, Control_c, 4, 11, 96
10, 64679, Note_on_c, 4, 60, 0
10, 64679, Note_on_c, 4, 57, 0
10, 64680, Note_on_c, 4, 62, 84
10, 64680, Note_on_c, 4, 58, 84
10, 64904, Note_on_c, 4, 62, 0
10, 64904, Note_on_c, 4, 58, 0
10, 64918, Control_c, 4, 11, 127
10, 64920, Note_on_c, 4, 60, 84
10, 64920, Note_on_c, 4, 57, 84
10, 64980, Control_c, 4, 11, 96
10, 65384, Note_on_c, 4, 60, 0
10, 65384, Note_on_c, 4, 57, 0
10, 65398, Control_c, 4, 11, 127
10, 65400, Note_on_c, 4, 57, 84
10, 65400, Note_on_c, 4, 60, 84
10, 65460, Control_c, 4, 11, 96
10, 65864, Note_on_c, 4, 57, 0
10, 65864, Note_on_c, 4, 60, 0
10, 65878, Control_c, 4, 11, 127
10, 65880, Note_on_c, 4, 62, 84
10, 65880, Note_on_c, 4, 58, 84
10, 65940, Control_c, 4, 11, 96
10, 66344, Note_on_c, 4, 62, 0
10, 66344, Note_on_c, 4, 58, 0
10, 66358, Control_c, 4, 11, 127
10, 66360, Note_on_c, 4, 60, 84
10, 66360, Note_on_c, 4, 57, 84
10, 66420, Control_c, 4, 11, 96
10, 66599, Note_on_c, 4, 60, 0
10, 66599, Note_on_c, 4, 57, 0
10, 66600, Note_on_c, 4, 62, 84
10, 66600, Note_on_c, 4, 58, 84
10, 66824, Note_on_c, 4, 62, 0
10, 66824, Note_on_c, 4, 58, 0
10, 66838, Control_c, 4, 11, 127
10, 66840, Note_on_c, 4, 60, 84
10, 66959, Note_on_c, 4, 60, 0
10, 66960, Note_on_c, 4, 62, 76
10, 67019, Note_on_c, 4, 62, 0
10, 67020, Note_on_c, 4, 60, 76
10, 67079, Note_on_c, 4, 60, 0
10, 67080, Note_on_c, 4, 55, 76
10, 67199, Note_on_c, 4, 55, 0
10, 67200, Note_on_c, 4, 57, 76
10, 67259, Note_on_c, 4, 57, 0
10, 67260, Note_on_c, 4, 59, 76
10, 67311, Note_on_c, 4, 59, 0
10, 67320, Note_on_c, 4, 60, 84
10, 67439, Note_on_c, 4, 60, 0
10, 67440, Note_on_c, 4, 62, 76
10, 67499, Note_on_c, 4, 62, 0
10, 67500, Note_on_c, 4, 60, 76
10, 67551, Note_on_c, 4, 60, 0
10, 67560, Note_on_c, 4, 55, 76
10, 67784, Note_on_c, 4, 55, 0
10, 67800, Note_on_c, 4, 53, 84
10, 67859, Note_on_c, 4, 53, 0
10, 67860, Note_on_c, 4, 55, 76
10, 67919, Note_on_c, 4, 55, 0
10, 67920, Note_on_c, 4, 57, 76
10, 67979, Note_on_c, 4, 57, 0
10, 67980, Note_on_c, 4, 58, 76
10, 68031, Note_on_c, 4, 58, 0
10, 68040, Note_on_c, 4, 60, 76
10, 68129, Note_on_c, 4, 60, 0
10, 68160, Note_on_c, 4, 60, 76
10, 68189, Note_on_c, 4, 60, 0
10, 68190, Note_on_c, 4, 62, 76
10, 68271, Note_on_c, 4, 62, 0
10, 68280, Note_on_c, 4, 55, 76
10, 68369, Note_on_c, 4, 55, 0
10, 68400, Note_on_c, 4, 55, 76
10, 68429, Note_on_c, 4, 55, 0
10, 68430, Note_on_c, 4, 60, 76
10, 68511, Note_on_c, 4, 60, 0
10, 68520, Note_on_c, 4, 53, 76
10, 68744, Note_on_c, 4, 53, 0
10, 68760, Note_on_c, 4, 60, 76
10, 68879, Note_on_c, 4, 60, 0
10, 68880, Note_on_c, 4, 62, 76
10, 68939, Note_on_c, 4, 62, 0
10, 68940, Note_on_c, 4, 60, 76
10, 68999, Note_on_c, 4, 60, 0
10, 69000, Note_on_c, 4, 55, 76
10, 69119, Note_on_c, 4, 55, 0
10, 69120, Note_on_c, 4, 57, 76
10, 69179, Note_on_c, 4, 57, 0
10, 69180, Note_on_c, 4, 59, 76
10, 69231, Note_on_c, 4, 59, 0
10, 69240, Note_on_c, 4, 60, 76
10, 69359, Note_on_c, 4, 60, 0
10, 69360, Note_on_c, 4, 62, 76
10, 69419, Note_on_c, 4, 62, 0
10, 69420, Note_on_c, 4, 60, 76
10, 69471, Note_on_c, 4, 60, 0
10, 69480, Note_on_c, 4, 55, 76
10, 69704, Note_on_c, 4, 55, 0
10, 69720, Note_on_c, 4, 53, 76
10, 69779, Note_on_c, 4, 53, 0
10, 69780, Note_on_c, 4, 55, 76
10, 69839, Note_on_c, 4, 55, 0
10, 69840, Note_on_c, 4, 57, 76
10, 69899, Note_on_c, 4, 57, 0
10, 69900, Note_on_c, 4, 58, 76
10, 69951, Note_on_c, 4, 58, 0
10, 69960, Note_on_c, 4, 60, 76
10, 70049, Note_on_c, 4, 60, 0
10, 70080, Note_on_c, 4, 60, 76
10, 70109, Note_on_c, 4, 60, 0
10, 70110, Note_on_c, 4, 62, 76
10, 70191, Note_on_c, 4, 62, 0
10, 70200, Note_on_c, 4, 55, 76
10, 70289, Note_on_c, 4, 55, 0
10, 70320, Note_on_c, 4, 55, 76
10, 70349, Note_on_c, 4, 55, 0
10, 70350, Note_on_c, 4, 60, 76
10, 70431, Note_on_c, 4, 60, 0
10, 70440, Note_on_c, 4, 53, 76
10, 70664, Note_on_c, 4, 53, 0
10, 70680, Note_on_c, 4, 60, 84
10, 70680, Note_on_c, 4, 52, 84
10, 70919, Note_on_c, 4, 60, 0
10, 70919, Note_on_c, 4, 52, 0
10, 70920, Note_on_c, 4, 65, 84
10, 70920, Note_on_c, 4, 62, 84
10, 71159, Note_on_c, 4, 65, 0
10, 71159, Note_on_c, 4, 62, 0
10, 71160, Note_on_c, 4, 60, 84
10, 71160, Note_on_c, 4, 64, 84
10, 71504, Note_on_c, 4, 60, 0
10, 71504, Note_on_c, 4, 64, 0
10, 71520, Note_on_c, 4, 53, 84
10, 71520, Note_on_c, 4, 57, 84
10, 71624, Note_on_c, 4, 53, 0
10, 71624, Note_on_c, 4, 57, 0
10, 71640, Note_on_c, 4, 55, 84
10, 71640, Note_on_c, 4, 52, 84
10, 71759, Note_on_c, 4, 55, 0
10, 71759, Note_on_c, 4, 52, 0
10, 71880, Note_on_c, 4, 53, 84
10, 71880, Note_on_c, 4, 57, 84
10, 71999, Note_on_c, 4, 53, 0
10, 71999, Note_on_c, 4, 57, 0
10, 72120, Note_on_c, 4, 55, 84
10, 72120, Note_on_c, 4, 60, 84
10, 72239, Note_on_c, 4, 55, 0
10, 72239, Note_on_c, 4, 60, 0
10, 72360, Note_on_c, 4, 59, 84
10, 72360, Note_on_c, 4, 55, 84
10, 72479, Note_on_c, 4, 59, 0
10, 72479, Note_on_c, 4, 55, 0
10, 72600, Note_on_c, 4, 60, 84
10, 72600, Note_on_c, 4, 52, 84
10, 72704, Note_on_c, 4, 60, 0
10, 72704, Note_on_c, 4, 52, 0
10, 72720, Note_on_c, 4, 52, 84
10, 72720, Note_on_c, 4, 60, 84
10, 72824, Note_on_c, 4, 52, 0
10, 72824, Note_on_c, 4, 60, 0
10, 72840, Note_on_c, 4, 65, 84
10, 72840, Note_on_c, 4, 62, 84
10, 72944, Note_on_c, 4, 65, 0
10, 72944, Note_on_c, 4, 62, 0
10, 72960, Note_on_c, 4, 65, 84
10, 72960, Note_on_c, 4, 62, 84
10, 73064, Note_on_c, 4, 65, 0
10, 73064, Note_on_c, 4, 62, 0
10, 73080, Note_on_c, 4, 60, 84
10, 73080, Note_on_c, 4, 64, 84
10, 73184, Note_on_c, 4, 60, 0
10, 73184, Note_on_c, 4, 64, 0
10, 73200, Note_on_c, 4, 64, 84
10, 73200, Note_on_c, 4, 60, 84
10, 73319, Note_on_c, 4, 64, 0
10, 73319, Note_on_c, 4, 60, 0
10, 73440, Note_on_c, 4, 53, 84
10, 73440, Note_on_c, 4, 57, 84
10, 73559, Note_on_c, 4, 53, 0
10, 73559, Note_on_c, 4, 57, 0
10, 73680, Note_on_c, 4, 55, 84
10, 73680, Note_on_c, 4, 52, 84
10, 73799, Note_on_c, 4, 55, 0
10, 73799, Note_on_c, 4, 52, 0
10, 73920, Note_on_c, 4, 57, 84
10, 73920, Note_on_c, 4, 53, 84
10, 74039, Note_on_c, 4, 57, 0
10, 74039, Note_on_c, 4, 53, 0
10, 74160, Note_on_c, 4, 55, 84
10, 74160, Note_on_c, 4, 60, 84
10, 74279, Note_on_c, 4, 55, 0
10, 74279, Note_on_c, 4, 60, 0
10, 74400, Note_on_c, 4, 55, 84
10, 74400, Note_on_c, 4, 59, 84
10, 74504, Note_on_c, 4, 55, 0
10, 74504, Note_on_c, 4, 59, 0
10, 74518, Control_c, 4, 11, 112
10, 74520, Note_on_c, 4, 48, 92
10, 74520, Control_c, 4, 11, 112
10, 74520, Note_on_c, 4, 55, 92
10, 74712, Control_c, 4, 11, 113
10, 74864, Note_on_c, 4, 48, 0
10, 74864, Note_on_c, 4, 55, 0
10, 74880, Note_on_c, 4, 55, 92
10, 74880, Note_on_c, 4, 48, 92
10, 74904, Control_c, 4, 11, 114
10, 74984, Note_on_c, 4, 55, 0
10, 74984, Note_on_c, 4, 48, 0
10, 75000, Note_on_c, 4, 55, 92
10, 75000, Note_on_c, 4, 48, 92
10, 75096, Control_c, 4, 11, 115
10, 75288, Control_c, 4, 11, 116
10, 75344, Note_on_c, 4, 55, 0
10, 75344, Note_on_c, 4, 48, 0
10, 75360, Note_on_c, 4, 55, 92
10, 75360, Note_on_c, 4, 48, 92
10, 75464, Note_on_c, 4, 55, 0
10, 75464, Note_on_c, 4, 48, 0
10, 75480, Control_c, 4, 11, 117
10, 75480, Note_on_c, 4, 55, 92
10, 75480, Note_on_c, 4, 48, 92
10, 75672, Control_c, 4, 11, 118
10, 75824, Note_on_c, 4, 55, 0
10, 75824, Note_on_c, 4, 48, 0
10, 75840, Note_on_c, 4, 55, 92
10, 75840, Note_on_c, 4, 48, 92
10, 75864, Control_c, 4, 11, 119
10, 75944, Note_on_c, 4, 55, 0
10, 75944, Note_on_c, 4, 48, 0
10, 75960, Note_on_c, 4, 48, 92
10, 75960, Note_on_c, 4, 55, 92
10, 76056, Control_c, 4, 11, 120
10, 76248, Control_c, 4, 11, 121
10, 76304, Note_on_c, 4, 48, 0
10, 76304, Note_on_c, 4, 55, 0
10, 76320, Note_on_c, 4, 48, 92
10, 76320, Note_on_c, 4, 55, 92
10, 76424, Note_on_c, 4, 48, 0
10, 76424, Note_on_c, 4, 55, 0
10, 76440, Note_on_c, 4, 48, 92
10, 76440, Note_on_c, 4, 60, 92
10, 76440, Control_c, 4, 11, 122
10, 76544, Note_on_c, 4, 48, 0
10, 76544, Note_on_c, 4, 60, 0
10, 76560, Note_on_c, 4, 60, 92
10, 76560, Note_on_c, 4, 52, 92
10, 76632, Control_c, 4, 11, 123
10, 76664, Note_on_c, 4, 60, 0
10, 76664, Note_on_c, 4, 52, 0
10, 76680, Note_on_c, 4, 52, 92
10, 76680, Note_on_c, 4, 60, 92
10, 76784, Note_on_c, 4, 52, 0
10, 76784, Note_on_c, 4, 60, 0
10, 76800, Note_on_c, 4, 52, 92
10, 76800, Note_on_c, 4, 60, 92
10, 76824, Control_c, 4, 11, 124
10, 76904, Note_on_c, 4, 52, 0
10, 76904, Note_on_c, 4, 60, 0
10, 76920, Note_on_c, 4, 60, 92
10, 76920, Note_on_c, 4, 52, 92
10, 77016, Control_c, 4, 11, 125
10, 77024, Note_on_c, 4, 60, 0
10, 77024, Note_on_c, 4, 52, 0
10, 77040, Note_on_c, 4, 64, 92
10, 77040, Note_on_c, 4, 60, 92
10, 77144, Note_on_c, 4, 64, 0
10, 77144, Note_on_c, 4, 60, 0
10, 77160, Note_on_c, 4, 60, 92
10, 77160, Note_on_c, 4, 64, 92
10, 77208, Control_c, 4, 11, 127
10, 77264, Note_on_c, 4, 60, 0
10, 77264, Note_on_c, 4, 64, 0
10, 77280, Note_on_c, 4, 64, 92
10, 77280, Note_on_c, 4, 60, 92
10, 77384, Note_on_c, 4, 64, 0
10, 77384, Note_on_c, 4, 60, 0
10, 77400, Note_on_c, 4, 64, 84
10, 77400, Note_on_c, 4, 60, 84
10, 77519, Note_on_c, 4, 64, 0
10, 77519, Note_on_c, 4, 60, 0
10, 77880, Note_on_c, 4, 48, 52
10, 77999, Note_on_c, 4, 48, 0
10, 81120, Note_on_c, 4, 45, 44
10, 81120, Note_on_c, 4, 57, 44
10, 81239, Note_on_c, 4, 45, 0
10, 81239, Note_on_c, 4, 57, 0
10, 81240, Note_on_c, 4, 50, 44
10, 81240, Note_on_c, 4, 62, 44
10, 81464, Note_on_c, 4, 50, 0
10, 81464, Note_on_c, 4, 62, 0
10, 81480, Note_on_c, 4, 50, 44
10, 81480, Note_on_c, 4, 62, 44
10, 81824, Note_on_c, 4, 50, 0
10, 81824, Note_on_c, 4, 62, 0
10, 81840, Note_on_c, 4, 62, 44
10, 81840, Note_on_c, 4, 50, 44
10, 82184, Note_on_c, 4, 62, 0
10, 82184, Note_on_c, 4, 50, 0
10, 82200, Note_on_c, 4, 50, 44
10, 82200, Note_on_c, 4, 62, 44
10, 82544, Note_on_c, 4, 50, 0
10, 82544, Note_on_c, 4, 62, 0
10, 82560, Note_on_c, 4, 62, 44
10, 82560, Note_on_c, 4, 50, 44
10, 82904, Note_on_c, 4, 62, 0
10, 82904, Note_on_c, 4, 50, 0
10, 82920, Note_on_c, 4, 50, 44
10, 82920, Note_on_c, 4, 62, 44
10, 83264, Note_on_c, 4, 50, 0
10, 83264, Note_on_c, 4, 62, 0
10, 83280, Note_on_c, 4, 62, 44
10, 83280, Note_on_c, 4, 50, 44
10, 83639, Note_on_c, 4, 62, 0
10, 83639, Note_on_c, 4, 50, 0
10, 83640, Note_on_c, 4, 61, 44
10, 83640, Note_on_c, 4, 45, 44
10, 83759, Note_on_c, 4, 61, 0
10, 83759, Note_on_c, 4, 45, 0
10, 83760, Note_on_c, 4, 62, 44
10, 83760, Note_on_c, 4, 50, 44
10, 83879, Note_on_c, 4, 62, 0
10, 83879, Note_on_c, 4, 50, 0
10, 86880, Note_on_c, 4, 57, 44
10, 86880, Note_on_c, 4, 45, 44
10, 86999, Note_on_c, 4, 57, 0
10, 86999, Note_on_c, 4, 45, 0
10, 87000, Note_on_c, 4, 50, 44
10, 87000, Note_on_c, 4, 62, 44
10, 87224, Note_on_c, 4, 50, 0
10, 87224, Note_on_c, 4, 62, 0
10, 87240, Note_on_c, 4, 50, 44
10, 87240, Note_on_c, 4, 62, 44
10, 87584, Note_on_c, 4, 50, 0
10, 87584, Note_on_c, 4, 62, 0
10, 87600, Note_on_c, 4, 62, 44
10, 87600, Note_on_c, 4, 50, 44
10, 87944, Note_on_c, 4, 62, 0
10, 87944, Note_on_c, 4, 50, 0
10, 87960, Note_on_c, 4, 50, 44
10, 87960, Note_on_c, 4, 62, 44
10, 88304, Note_on_c, 4, 50, 0
10, 88304, Note_on_c, 4, 62, 0
10, 88320, Note_on_c, 4, 50, 44
10, 88320, Note_on_c, 4, 62, 44
10, 88664, Note_on_c, 4, 50, 0
10, 88664, Note_on_c, 4, 62, 0
10, 88680, Note_on_c, 4, 62, 44
10, 88680, Note_on_c, 4, 50, 44
10, 89024, Note_on_c, 4, 62, 0
10, 89024, Note_on_c, 4, 50, 0
10, 89040, Note_on_c, 4, 62, 44
10, 89040, Note_on_c, 4, 50, 44
10, 89399, Note_on_c, 4, 62, 0
10, 89399, Note_on_c, 4, 50, 0
10, 89400, Note_on_c, 4, 61, 44
10, 89400, Note_on_c, 4, 45, 44
10, 89519, Note_on_c, 4, 61, 0
10, 89519, Note_on_c, 4, 45, 0
10, 89520, Note_on_c, 4, 62, 44
10, 89520, Note_on_c, 4, 50, 44
10, 89639, Note_on_c, 4, 62, 0
10, 89639, Note_on_c, 4, 50, 0
10, 90480, Note_on_c, 4, 67, 44
10, 90569, Note_on_c, 4, 67, 0
10, 90600, Note_on_c, 4, 66, 44
10, 90689, Note_on_c, 4, 66, 0
10, 90720, Note_on_c, 4, 62, 44
10, 90809, Note_on_c, 4, 62, 0
10, 90840, Note_on_c, 4, 64, 44
10, 90929, Note_on_c, 4, 64, 0
10, 90960, Note_on_c, 4, 66, 44
10, 91049, Note_on_c, 4, 66, 0
10, 91080, Note_on_c, 4, 62, 44
10, 91169, Note_on_c, 4, 62, 0
10, 91920, Note_on_c, 4, 60, 44
10, 92009, Note_on_c, 4, 60, 0
10, 92040, Note_on_c, 4, 59, 44
10, 92129, Note_on_c, 4, 59, 0
10, 92160, Note_on_c, 4, 55, 44
10, 92249, Note_on_c, 4, 55, 0
10, 92280, Note_on_c, 4, 57, 44
10, 92369, Note_on_c, 4, 57, 0
10, 92400, Note_on_c, 4, 59, 44
10, 92489, Note_on_c, 4, 59, 0
10, 92520, Note_on_c, 4, 55, 44
10, 92609, Note_on_c, 4, 55, 0
10, 94080, Note_on_c, 4, 59, 44
10, 94080, Note_on_c, 4, 50, 44
10, 94184, Note_on_c, 4, 59, 0
10, 94199, Note_on_c, 4, 50, 0
10, 94200, Note_on_c, 4, 52, 44
10, 94200, Note_on_c, 4, 60, 44
10, 94304, Note_on_c, 4, 60, 0
10, 94320, Note_on_c, 4, 55, 44
10, 94424, Note_on_c, 4, 55, 0
10, 94439, Note_on_c, 4, 52, 0
10, 94440, Note_on_c, 4, 53, 44
10, 94440, Note_on_c, 4, 57, 44
10, 94544, Note_on_c, 4, 57, 0
10, 94559, Note_on_c, 4, 53, 0
10, 94560, Note_on_c, 4, 55, 44
10, 94560, Note_on_c, 4, 52, 44
10, 94664, Note_on_c, 4, 55, 0
10, 94679, Note_on_c, 4, 52, 0
10, 94680, Note_on_c, 4, 64, 44
10, 94680, Note_on_c, 4, 55, 44
10, 94784, Note_on_c, 4, 64, 0
10, 94799, Note_on_c, 4, 55, 0
10, 94800, Note_on_c, 4, 65, 44
10, 94800, Note_on_c, 4, 57, 44
10, 94904, Note_on_c, 4, 65, 0
10, 94919, Note_on_c, 4, 57, 0
10, 94920, Note_on_c, 4, 64, 44
10, 94920, Note_on_c, 4, 55, 44
10, 95024, Note_on_c, 4, 64, 0
10, 95039, Note_on_c, 4, 55, 0
10, 95040, Note_on_c, 4, 55, 44
10, 95040, Note_on_c, 4, 60, 44
10, 95144, Note_on_c, 4, 60, 0
10, 95159, Note_on_c, 4, 55, 0
10, 95160, Note_on_c, 4, 59, 44
10, 95160, Note_on_c, 4, 62, 44
10, 95264, Note_on_c, 4, 62, 0
10, 95279, Note_on_c, 4, 59, 0
10, 95280, Note_on_c, 4, 64, 44
10, 95280, Note_on_c, 4, 60, 44
10, 95384, Note_on_c, 4, 64, 0
10, 95399, Note_on_c, 4, 60, 0
10, 95400, Note_on_c, 4, 52, 44
10, 95400, Note_on_c, 4, 60, 44
10, 95519, Note_on_c, 4, 52, 0
10, 95519, Note_on_c, 4, 60, 0
10, 96960, Note_on_c, 4, 48, 84
10, 97064, Note_on_c, 4, 48, 0
10, 97080, Note_on_c, 4, 53, 84
10, 97184, Note_on_c, 4, 53, 0
10, 97200, Note_on_c, 4, 48, 84
10, 97304, Note_on_c, 4, 48, 0
10, 97320, Note_on_c, 4, 50, 84
10, 97424, Note_on_c, 4, 50, 0
10, 97440, Note_on_c, 4, 48, 84
10, 97544, Note_on_c, 4, 48, 0
10, 97560, Note_on_c, 4, 45, 84
10, 97664, Note_on_c, 4, 45, 0
10, 97680, Note_on_c, 4, 46, 84
10, 97784, Note_on_c, 4, 46, 0
10, 97800, Note_on_c, 4, 45, 92
10, 97904, Note_on_c, 4, 45, 0
10, 97920, Note_on_c, 4, 53, 84
10, 97920, Note_on_c, 4, 41, 84
10, 98024, Note_on_c, 4, 53, 0
10, 98024, Note_on_c, 4, 41, 0
10, 98040, Note_on_c, 4, 55, 84
10, 98040, Note_on_c, 4, 43, 84
10, 98144, Note_on_c, 4, 55, 0
10, 98144, Note_on_c, 4, 43, 0
10, 98160, Note_on_c, 4, 57, 92
10, 98160, Note_on_c, 4, 45, 92
10, 98264, Note_on_c, 4, 57, 0
10, 98264, Note_on_c, 4, 45, 0
10, 98280, Note_on_c, 4, 53, 84
10, 98280, Note_on_c, 4, 41, 84
10, 98384, Note_on_c, 4, 53, 0
10, 98384, Note_on_c, 4, 41, 0
10, 98400, Note_on_c, 4, 43, 84
10, 98400, Note_on_c, 4, 55, 84
10, 98504, Note_on_c, 4, 43, 0
10, 98504, Note_on_c, 4, 55, 0
10, 98520, Note_on_c, 4, 57, 92
10, 98520, Note_on_c, 4, 45, 92
10, 98624, Note_on_c, 4, 57, 0
10, 98624, Note_on_c, 4, 45, 0
10, 98640, Note_on_c, 4, 41, 84
10, 98640, Note_on_c, 4, 53, 84
10, 98744, Note_on_c, 4, 41, 0
10, 98744, Note_on_c, 4, 53, 0
10, 98760, Note_on_c, 4, 43, 84
10, 98760, Note_on_c, 4, 55, 84
10, 98864, Note_on_c, 4, 43, 0
10, 98864, Note_on_c, 4, 55, 0
10, 98880, Note_on_c, 4, 45, 92
10, 98880, Note_on_c, 4, 57, 92
10, 98984, Note_on_c, 4, 45, 0
10, 98984, Note_on_c, 4, 57, 0
10, 99000, Note_on_c, 4, 53, 84
10, 99000, Note_on_c, 4, 41, 84
10, 99104, Note_on_c, 4, 53, 0
10, 99104, Note_on_c, 4, 41, 0
10, 99120, Note_on_c, 4, 55, 84
10, 99120, Note_on_c, 4, 43, 84
10, 99224, Note_on_c, 4, 55, 0
10, 99224, Note_on_c, 4, 43, 0
10, 99240, Note_on_c, 4, 45, 92
10, 99240, Note_on_c, 4, 57, 92
10, 99300, Control_c, 4, 11, 112
10, 99584, Note_on_c, 4, 45, 0
10, 99584, Note_on_c, 4, 57, 0
10, 99600, Note_on_c, 4, 43, 92
10, 99600, Note_on_c, 4, 55, 92
10, 99824, Note_on_c, 4, 43, 0
10, 99824, Note_on_c, 4, 55, 0
10, 99840, Note_on_c, 4, 41, 92
10, 99840, Note_on_c, 4, 53, 92
10, 99944, Note_on_c, 4, 41, 0
10, 99944, Note_on_c, 4, 53, 0
10, 99960, Note_on_c, 4, 40, 92
10, 99960, Note_on_c, 4, 52, 92
10, 100184, Note_on_c, 4, 40, 0
10, 100184, Note_on_c, 4, 52, 0
10, 100200, Note_on_c, 4, 50, 92
10, 100200, Note_on_c, 4, 38, 92
10, 100304, Note_on_c, 4, 50, 0
10, 100304, Note_on_c, 4, 38, 0
10, 100320, Note_on_c, 4, 48, 92
10, 100320, Note_on_c, 4, 36, 92
10, 100544, Note_on_c, 4, 48, 0
10, 100544, Note_on_c, 4, 36, 0
10, 100560, Note_on_c, 4, 46, 92
10, 100560, Note_on_c, 4, 58, 92
10, 100664, Note_on_c, 4, 46, 0
10, 100664, Note_on_c, 4, 58, 0
10, 100678, Control_c, 4, 11, 127
10, 100680, Note_on_c, 4, 45, 92
10, 100680, Note_on_c, 4, 57, 92
10, 100740, Control_c, 4, 11, 112
10, 101024, Note_on_c, 4, 45, 0
10, 101024, Note_on_c, 4, 57, 0
10, 101038, Control_c, 4, 11, 127
10, 101040, Note_on_c, 4, 46, 92
10, 101040, Note_on_c, 4, 58, 92
10, 101100, Control_c, 4, 11, 112
10, 101384, Note_on_c, 4, 46, 0
10, 101384, Note_on_c, 4, 58, 0
10, 101398, Control_c, 4, 11, 127
10, 101400, Note_on_c, 4, 48, 92
10, 101400, Note_on_c, 4, 60, 92
10, 101460, Control_c, 4, 11, 112
10, 101744, Note_on_c, 4, 48, 0
10, 101744, Note_on_c, 4, 60, 0
10, 101758, Control_c, 4, 11, 127
10, 101760, Note_on_c, 4, 36, 92
10, 101760, Note_on_c, 4, 48, 92
10, 101820, Control_c, 4, 11, 112
10, 102104, Note_on_c, 4, 36, 0
10, 102104, Note_on_c, 4, 48, 0
10, 102120, Note_on_c, 4, 53, 92
10, 102120, Note_on_c, 4, 41, 92
10, 102239, Note_on_c, 4, 53, 0
10, 102239, Note_on_c, 4, 41, 0
10, 102360, Note_on_c, 4, 45, 92
10, 102360, Note_on_c, 4, 57, 92
10, 102464, Note_on_c, 4, 45, 0
10, 102464, Note_on_c, 4, 57, 0
10, 102480, Note_on_c, 4, 43, 92
10, 102480, Note_on_c, 4, 55, 92
10, 102704, Note_on_c, 4, 43, 0
10, 102704, Note_on_c, 4, 55, 0
10, 102720, Note_on_c, 4, 53, 92
10, 102720, Note_on_c, 4, 41, 92
10, 102824, Note_on_c, 4, 53, 0
10, 102824, Note_on_c, 4, 41, 0
10, 102840, Note_on_c, 4, 40, 92
10, 102840, Note_on_c, 4, 52, 92
10, 103064, Note_on_c, 4, 40, 0
10, 103064, Note_on_c, 4, 52, 0
10, 103080, Note_on_c, 4, 38, 92
10, 103080, Note_on_c, 4, 50, 92
10, 103184, Note_on_c, 4, 38, 0
10, 103184, Note_on_c, 4, 50, 0
10, 103200, Note_on_c, 4, 48, 92
10, 103200, Note_on_c, 4, 36, 92
10, 103424, Note_on_c, 4, 48, 0
10, 103424, Note_on_c, 4, 36, 0
10, 103440, Note_on_c, 4, 58, 92
10, 103440, Note_on_c, 4, 46, 92
10, 103544, Note_on_c, 4, 58, 0
10, 103544, Note_on_c, 4, 46, 0
10, 103558, Control_c, 4, 11, 127
10, 103560, Note_on_c, 4, 57, 92
10, 103560, Note_on_c, 4, 45, 92
10, 103620, Control_c, 4, 11, 112
10, 103904, Note_on_c, 4, 57, 0
10, 103904, Note_on_c, 4, 45, 0
10, 103918, Control_c, 4, 11, 127
10, 103920, Note_on_c, 4, 58, 92
10, 103920, Note_on_c, 4, 46, 92
10, 103980, Control_c, 4, 11, 112
10, 104264, Note_on_c, 4, 58, 0
10, 104264, Note_on_c, 4, 46, 0
10, 104278, Control_c, 4, 11, 127
10, 104280, Note_on_c, 4, 48, 92
10, 104280, Note_on_c, 4, 60, 92
10, 104340, Control_c, 4, 11, 112
10, 104624, Note_on_c, 4, 48, 0
10, 104624, Note_on_c, 4, 60, 0
10, 104638, Control_c, 4, 11, 127
10, 104640, Note_on_c, 4, 48, 92
10, 104640, Note_on_c, 4, 36, 92
10, 104700, Control_c, 4, 11, 112
10, 104864, Note_on_c, 4, 48, 0
10, 104864, Note_on_c, 4, 36, 0
10, 104998, Control_c, 4, 11, 127
10, 105000, Note_on_c, 4, 53, 92
10, 105000, Note_on_c, 4, 41, 92
10, 105104, Note_on_c, 4, 53, 0
10, 105104, Note_on_c, 4, 41, 0
10, 105120, Note_on_c, 4, 53, 84
10, 105120, Note_on_c, 4, 57, 84
10, 105224, Note_on_c, 4, 53, 0
10, 105224, Note_on_c, 4, 57, 0
10, 105240, Note_on_c, 4, 57, 84
10, 105240, Note_on_c, 4, 53, 84
10, 105344, Note_on_c, 4, 57, 0
10, 105344, Note_on_c, 4, 53, 0
10, 105360, Note_on_c, 4, 60, 92
10, 105360, Note_on_c, 4, 57, 92
10, 105464, Note_on_c, 4, 60, 0
10, 105464, Note_on_c, 4, 57, 0
10, 105480, Note_on_c, 4, 53, 84
10, 105480, Note_on_c, 4, 57, 84
10, 105584, Note_on_c, 4, 53, 0
10, 105584, Note_on_c, 4, 57, 0
10, 105600, Note_on_c, 4, 53, 84
10, 105600, Note_on_c, 4, 57, 84
10, 105704, Note_on_c, 4, 53, 0
10, 105704, Note_on_c, 4, 57, 0
10, 105720, Note_on_c, 4, 57, 92
10, 105720, Note_on_c, 4, 60, 92
10, 105824, Note_on_c, 4, 57, 0
10, 105824, Note_on_c, 4, 60, 0
10, 105840, Note_on_c, 4, 53, 84
10, 105840, Note_on_c, 4, 57, 84
10, 105944, Note_on_c, 4, 53, 0
10, 105944, Note_on_c, 4, 57, 0
10, 105960, Note_on_c, 4, 53, 84
10, 105960, Note_on_c, 4, 57, 84
10, 106064, Note_on_c, 4, 53, 0
10, 106064, Note_on_c, 4, 57, 0
10, 106080, Note_on_c, 4, 58, 92
10, 106080, Note_on_c, 4, 55, 92
10, 106184, Note_on_c, 4, 58, 0
10, 106184, Note_on_c, 4, 55, 0
10, 106200, Note_on_c, 4, 48, 84
10, 106200, Note_on_c, 4, 55, 84
10, 106304, Note_on_c, 4, 48, 0
10, 106304, Note_on_c, 4, 55, 0
10, 106320, Note_on_c, 4, 48, 84
10, 106320, Note_on_c, 4, 55, 84
10, 106424, Note_on_c, 4, 48, 0
10, 106424, Note_on_c, 4, 55, 0
10, 106440, Note_on_c, 4, 57, 92
10, 106440, Note_on_c, 4, 60, 92
10, 106544, Note_on_c, 4, 57, 0
10, 106544, Note_on_c, 4, 60, 0
10, 106560, Note_on_c, 4, 57, 84
10, 106560, Note_on_c, 4, 53, 84
10, 106664, Note_on_c, 4, 57, 0
10, 106664, Note_on_c, 4, 53, 0
10, 106680, Note_on_c, 4, 53, 84
10, 106680, Note_on_c, 4, 57, 84
10, 106784, Note_on_c, 4, 53, 0
10, 106784, Note_on_c, 4, 57, 0
10, 106800, Note_on_c, 4, 57, 92
10, 106800, Note_on_c, 4, 60, 92
10, 106904, Note_on_c, 4, 57, 0
10, 106904, Note_on_c, 4, 60, 0
10, 106920, Note_on_c, 4, 53, 84
10, 106920, Note_on_c, 4, 57, 84
10, 107024, Note_on_c, 4, 53, 0
10, 107024, Note_on_c, 4, 57, 0
10, 107040, Note_on_c, 4, 53, 84
10, 107040, Note_on_c, 4, 57, 84
10, 107144, Note_on_c, 4, 53, 0
10, 107144, Note_on_c, 4, 57, 0
10, 107160, Note_on_c, 4, 57, 92
10, 107160, Note_on_c, 4, 60, 92
10, 107264, Note_on_c, 4, 57, 0
10, 107264, Note_on_c, 4, 60, 0
10, 107280, Note_on_c, 4, 57, 84
10, 107280, Note_on_c, 4, 53, 84
10, 107384, Note_on_c, 4, 57, 0
10, 107384, Note_on_c, 4, 53, 0
10, 107400, Note_on_c, 4, 57, 84
10, 107400, Note_on_c, 4, 53, 84
10, 107504, Note_on_c, 4, 57, 0
10, 107504, Note_on_c, 4, 53, 0
10, 107520, Note_on_c, 4, 58, 92
10, 107520, Note_on_c, 4, 55, 92
10, 107624, Note_on_c, 4, 58, 0
10, 107624, Note_on_c, 4, 55, 0
10, 107640, Note_on_c, 4, 48, 84
10, 107640, Note_on_c, 4, 55, 84
10, 107744, Note_on_c, 4, 48, 0
10, 107744, Note_on_c, 4, 55, 0
10, 107760, Note_on_c, 4, 48, 84
10, 107760, Note_on_c, 4, 55, 84
10, 107864, Note_on_c, 4, 48, 0
10, 107864, Note_on_c, 4, 55, 0
10, 107880, Note_on_c, 4, 60, 92
10, 107880, Note_on_c, 4, 57, 92
10, 107984, Note_on_c, 4, 60, 0
10, 107984, Note_on_c, 4, 57, 0
10, 108000, Note_on_c, 4, 57, 84
10, 108000, Note_on_c, 4, 53, 84
10, 108104, Note_on_c, 4, 57, 0
10, 108104, Note_on_c, 4, 53, 0
10, 108120, Note_on_c, 4, 57, 84
10, 108120, Note_on_c, 4, 53, 84
10, 108224, Note_on_c, 4, 57, 0
10, 108224, Note_on_c, 4, 53, 0
10, 108240, Note_on_c, 4, 60, 92
10, 108240, Note_on_c, 4, 57, 92
10, 108344, Note_on_c, 4, 60, 0
10, 108344, Note_on_c, 4, 57, 0
10, 108360, Note_on_c, 4, 57, 84
10, 108360, Note_on_c, 4, 53, 84
10, 108464, Note_on_c, 4, 57, 0
10, 108464, Note_on_c, 4, 53, 0
10, 108480, Note_on_c, 4, 53, 84
10, 108480, Note_on_c, 4, 57, 84
10, 108584, Note_on_c, 4, 53, 0
10, 108584, Note_on_c, 4, 57, 0
10, 108600, Note_on_c, 4, 60, 92
10, 108600, Note_on_c, 4, 57, 92
10, 108704, Note_on_c, 4, 60, 0
10, 108704, Note_on_c, 4, 57, 0
10, 108720, Note_on_c, 4, 53, 84
10, 108720, Note_on_c, 4, 57, 84
10, 108824, Note_on_c, 4, 53, 0
10, 108824, Note_on_c, 4, 57, 0
10, 108840, Note_on_c, 4, 53, 84
10, 108840, Note_on_c, 4, 57, 84
10, 108944, Note_on_c, 4, 53, 0
10, 108944, Note_on_c, 4, 57, 0
10, 108960, Note_on_c, 4, 60, 92
10, 108960, Note_on_c, 4, 57, 92
10, 109064, Note_on_c, 4, 60, 0
10, 109064, Note_on_c, 4, 57, 0
10, 109080, Note_on_c, 4, 57, 84
10, 109080, Note_on_c, 4, 53, 84
10, 109184, Note_on_c, 4, 57, 0
10, 109184, Note_on_c, 4, 53, 0
10, 109200, Note_on_c, 4, 53, 84
10, 109200, Note_on_c, 4, 57, 84
10, 109319, Note_on_c, 4, 53, 0
10, 109319, Note_on_c, 4, 57, 0
10, 112200, Note_on_c, 4, 53, 52
10, 112544, Note_on_c, 4, 53, 0
10, 112560, Note_on_c, 4, 48, 52
10, 112904, Note_on_c, 4, 48, 0
10, 112920, Note_on_c, 4, 41, 52
10, 113279, Note_on_c, 4, 41, 0
10, 115080, Note_on_c, 4, 53, 52
10, 115424, Note_on_c, 4, 53, 0
10, 115440, Note_on_c, 4, 48, 52
10, 115784, Note_on_c, 4, 48, 0
10, 115800, Note_on_c, 4, 48, 52
10, 116144, Note_on_c, 4, 48, 0
10, 116160, Note_on_c, 4, 41, 52
10, 116519, Note_on_c, 4, 41, 0
10, 118320, Note_on_c, 4, 53, 52
10, 118664, Note_on_c, 4, 53, 0
10, 118680, Note_on_c, 4, 48, 52
10, 119024, Note_on_c, 4, 48, 0
10, 119040, Note_on_c, 4, 41, 52
10, 119399, Note_on_c, 4, 41, 0
10, 120840, Note_on_c, 4, 53, 52
10, 121184, Note_on_c, 4, 53, 0
10, 121200, Note_on_c, 4, 48, 52
10, 121544, Note_on_c, 4, 48, 0
10, 121560, Note_on_c, 4, 48, 52
10, 121904, Note_on_c, 4, 48, 0
10, 121920, Note_on_c, 4, 41, 52
10, 122264, Note_on_c, 4, 41, 0
10, 122280, Note_on_c, 4, 64, 52
10, 122280, Note_on_c, 4, 67, 52
10, 122384, Note_on_c, 4, 64, 0
10, 122384, Note_on_c, 4, 67, 0
10, 122400, Note_on_c, 4, 60, 52
10, 122400, Note_on_c, 4, 64, 52
10, 122504, Note_on_c, 4, 60, 0
10, 122504, Note_on_c, 4, 64, 0
10, 122520, Note_on_c, 4, 64, 52
10, 122520, Note_on_c, 4, 60, 52
10, 122624, Note_on_c, 4, 64, 0
10, 122624, Note_on_c, 4, 60, 0
10, 122640, Note_on_c, 4, 64, 52
10, 122640, Note_on_c, 4, 67, 52
10, 122744, Note_on_c, 4, 64, 0
10, 122744, Note_on_c, 4, 67, 0
10, 122760, Note_on_c, 4, 64, 52
10, 122760, Note_on_c, 4, 60, 52
10, 122864, Note_on_c, 4, 64, 0
10, 122864, Note_on_c, 4, 60, 0
10, 122880, Note_on_c, 4, 60, 52
10, 122880, Note_on_c, 4, 64, 52
10, 122984, Note_on_c, 4, 60, 0
10, 122984, Note_on_c, 4, 64, 0
10, 123000, Note_on_c, 4, 65, 52
10, 123000, Note_on_c, 4, 67, 52
10, 123104, Note_on_c, 4, 65, 0
10, 123104, Note_on_c, 4, 67, 0
10, 123120, Note_on_c, 4, 60, 52
10, 123120, Note_on_c, 4, 65, 52
10, 123224, Note_on_c, 4, 60, 0
10, 123224, Note_on_c, 4, 65, 0
10, 123240, Note_on_c, 4, 60, 52
10, 123240, Note_on_c, 4, 65, 52
10, 123344, Note_on_c, 4, 60, 0
10, 123344, Note_on_c, 4, 65, 0
10, 123360, Note_on_c, 4, 65, 52
10, 123360, Note_on_c, 4, 67, 52
10, 123464, Note_on_c, 4, 65, 0
10, 123464, Note_on_c, 4, 67, 0
10, 123480, Note_on_c, 4, 60, 52
10, 123480, Note_on_c, 4, 65, 52
10, 123584, Note_on_c, 4, 60, 0
10, 123584, Note_on_c, 4, 65, 0
10, 123600, Note_on_c, 4, 60, 52
10, 123600, Note_on_c, 4, 65, 52
10, 123704, Note_on_c, 4, 60, 0
10, 123704, Note_on_c, 4, 65, 0
10, 123720, Note_on_c, 4, 67, 52
10, 123720, Note_on_c, 4, 64, 52
10, 123824, Note_on_c, 4, 67, 0
10, 123824, Note_on_c, 4, 64, 0
10, 123840, Note_on_c, 4, 64, 52
10, 123840, Note_on_c, 4, 60, 52
10, 123944, Note_on_c, 4, 64, 0
10, 123944, Note_on_c, 4, 60, 0
10, 123960, Note_on_c, 4, 60, 52
10, 123960, Note_on_c, 4, 64, 52
10, 124064, Note_on_c, 4, 60, 0
10, 124064, Note_on_c, 4, 64, 0
10, 124080, Note_on_c, 4, 67, 52
10, 124080, Note_on_c, 4, 65, 52
10, 124184, Note_on_c, 4, 67, 0
10, 124184, Note_on_c, 4, 65, 0
10, 124200, Note_on_c, 4, 62, 52
10, 124200, Note_on_c, 4, 59, 52
10, 124304, Note_on_c, 4, 62, 0
10, 124304, Note_on_c, 4, 59, 0
10, 124320, Note_on_c, 4, 59, 52
10, 124320, Note_on_c, 4, 62, 52
10, 124424, Note_on_c, 4, 59, 0
10, 124424, Note_on_c, 4, 62, 0
10, 124440, Note_on_c, 4, 67, 52
10, 124440, Note_on_c, 4, 64, 52
10, 124544, Note_on_c, 4, 67, 0
10, 124544, Note_on_c, 4, 64, 0
10, 124560, Note_on_c, 4, 64, 52
10, 124560, Note_on_c, 4, 60, 52
10, 124664, Note_on_c, 4, 64, 0
10, 124664, Note_on_c, 4, 60, 0
10, 124680, Note_on_c, 4, 64, 52
10, 124680, Note_on_c, 4, 60, 52
10, 124784, Note_on_c, 4, 64, 0
10, 124784, Note_on_c, 4, 60, 0
10, 124800, Note_on_c, 4, 67, 52
10, 124800, Note_on_c, 4, 64, 52
10, 124904, Note_on_c, 4, 67, 0
10, 124904, Note_on_c, 4, 64, 0
10, 124920, Note_on_c, 4, 64, 52
10, 124920, Note_on_c, 4, 60, 52
10, 125024, Note_on_c, 4, 64, 0
10, 125024, Note_on_c, 4, 60, 0
10, 125040, Note_on_c, 4, 64, 52
10, 125040, Note_on_c, 4, 60, 52
10, 125144, Note_on_c, 4, 64, 0
10, 125144, Note_on_c, 4, 60, 0
10, 125158, Control_c, 4, 11, 96
10, 125160, Note_on_c, 4, 64, 68
10, 125160, Note_on_c, 4, 67, 68
10, 125190, Control_c, 4, 11, 97
10, 125220, Control_c, 4, 11, 99
10, 125250, Control_c, 4, 11, 100
10, 125264, Note_on_c, 4, 64, 0
10, 125264, Note_on_c, 4, 67, 0
10, 125280, Note_on_c, 4, 64, 68
10, 125280, Control_c, 4, 11, 101
10, 125280, Note_on_c, 4, 60, 68
10, 125310, Control_c, 4, 11, 102
10, 125340, Control_c, 4, 11, 104
10, 125370, Control_c, 4, 11, 105
10, 125384, Note_on_c, 4, 64, 0
10, 125384, Note_on_c, 4, 60, 0
10, 125400, Note_on_c, 4, 60, 68
10, 125400, Note_on_c, 4, 64, 68
10, 125400, Control_c, 4, 11, 106
10, 125430, Control_c, 4, 11, 108
10, 125460, Control_c, 4, 11, 109
10, 125490, Control_c, 4, 11, 110
10, 125504, Note_on_c, 4, 60, 0
10, 125504, Note_on_c, 4, 64, 0
10, 125520, Note_on_c, 4, 67, 68
10, 125520, Control_c, 4, 11, 112
10, 125520, Note_on_c, 4, 64, 68
10, 125550, Control_c, 4, 11, 113
10, 125580, Control_c, 4, 11, 114
10, 125610, Control_c, 4, 11, 115
10, 125624, Note_on_c, 4, 67, 0
10, 125624, Note_on_c, 4, 64, 0
10, 125640, Note_on_c, 4, 48, 68
10, 125640, Control_c, 4, 11, 117
10, 125640, Note_on_c, 4, 55, 68
10, 125670, Control_c, 4, 11, 118
10, 125700, Control_c, 4, 11, 119
10, 125730, Control_c, 4, 11, 121
10, 125744, Note_on_c, 4, 48, 0
10, 125744, Note_on_c, 4, 55, 0
10, 125760, Note_on_c, 4, 48, 68
10, 125760, Note_on_c, 4, 55, 68
10, 125760, Control_c, 4, 11, 122
10, 125790, Control_c, 4, 11, 123
10, 125820, Control_c, 4, 11, 124
10, 125850, Control_c, 4, 11, 127
10, 125864, Note_on_c, 4, 48, 0
10, 125864, Note_on_c, 4, 55, 0
10, 125880, Note_on_c, 4, 57, 52
10, 125880, Note_on_c, 4, 53, 52
10, 125999, Note_on_c, 4, 57, 0
10, 125999, Note_on_c, 4, 53, 0
10, 127200, Control_c, 4, 11, 96
10, 127320, Note_on_c, 4, 53, 68
10, 127664, Note_on_c, 4, 53, 0
10, 127680, Note_on_c, 4, 48, 68
10, 128024, Note_on_c, 4, 48, 0
10, 128040, Note_on_c, 4, 41, 68
10, 128384, Note_on_c, 4, 41, 0
10, 128400, Note_on_c, 4, 48, 68
10, 128744, Note_on_c, 4, 48, 0
10, 128760, Control_c, 4, 11, 96
10, 128760, Note_on_c, 4, 53, 68
10, 128820, Control_c, 4, 11, 97
10, 128880, Control_c, 4, 11, 99
10, 128940, Control_c, 4, 11, 100
10, 129000, Control_c, 4, 11, 101
10, 129060, Control_c, 4, 11, 102
10, 129104, Note_on_c, 4, 53, 0
10, 129120, Note_on_c, 4, 53, 68
10, 129120, Control_c, 4, 11, 104
10, 129180, Control_c, 4, 11, 105
10, 129240, Control_c, 4, 11, 106
10, 129300, Control_c, 4, 11, 108
10, 129360, Control_c, 4, 11, 109
10, 129420, Control_c, 4, 11, 110
10, 129464, Note_on_c, 4, 53, 0
10, 129480, Control_c, 4, 11, 112
10, 129480, Note_on_c, 4, 48, 68
10, 129540, Control_c, 4, 11, 113
10, 129600, Control_c, 4, 11, 114
10, 129660, Control_c, 4, 11, 115
10, 129720, Control_c, 4, 11, 117
10, 129780, Control_c, 4, 11, 118
10, 129824, Note_on_c, 4, 48, 0
10, 129840, Control_c, 4, 11, 119
10, 129840, Note_on_c, 4, 48, 68
10, 129900, Control_c, 4, 11, 121
10, 129960, Control_c, 4, 11, 122
10, 130020, Control_c, 4, 11, 123
10, 130080, Control_c, 4, 11, 124
10, 130184, Note_on_c, 4, 48, 0
10, 130198, Control_c, 4, 11, 80
10, 130200, Note_on_c, 4, 41, 76
10, 131639, Note_on_c, 4, 41, 0
10, 131640, Note_on_c, 4, 41, 76
10, 133079, Note_on_c, 4, 41, 0
10, 133080, Note_on_c, 4, 41, 76
10, 133440, Note_on_c, 4, 60, 76
10, 134519, Note_on_c, 4, 60, 0
10, 134520, Note_on_c, 4, 60, 76
10, 134520, Control_c, 4, 11, 80
10, 134580, Control_c, 4, 11, 82
10, 134640, Control_c, 4, 11, 84
10, 134700, Control_c, 4, 11, 86
10, 134759, Note_on_c, 4, 41, 0
10, 134760, Control_c, 4, 11, 88
10, 134760, Note_on_c, 4, 46, 76
10, 134820, Control_c, 4, 11, 90
10, 134879, Note_on_c, 4, 46, 0
10, 134880, Control_c, 4, 11, 92
10, 134880, Note_on_c, 4, 48, 76
10, 134940, Control_c, 4, 11, 94
10, 134999, Note_on_c, 4, 48, 0
10, 135000, Note_on_c, 4, 45, 76
10, 135000, Control_c, 4, 11, 96
10, 135060, Control_c, 4, 11, 98
10, 135119, Note_on_c, 4, 45, 0
10, 135120, Control_c, 4, 11, 100
10, 135120, Note_on_c, 4, 46, 76
10, 135180, Control_c, 4, 11, 102
10, 135224, Note_on_c, 4, 46, 0
10, 135240, Note_on_c, 4, 43, 76
10, 135240, Control_c, 4, 11, 104
10, 135300, Control_c, 4, 11, 105
10, 135360, Control_c, 4, 11, 107
10, 135420, Control_c, 4, 11, 109
10, 135479, Note_on_c, 4, 43, 0
10, 135480, Note_on_c, 4, 45, 76
10, 135480, Control_c, 4, 11, 111
10, 135540, Control_c, 4, 11, 113
10, 135599, Note_on_c, 4, 45, 0
10, 135600, Control_c, 4, 11, 115
10, 135600, Note_on_c, 4, 46, 76
10, 135660, Control_c, 4, 11, 117
10, 135719, Note_on_c, 4, 46, 0
10, 135720, Note_on_c, 4, 43, 76
10, 135720, Control_c, 4, 11, 119
10, 135780, Control_c, 4, 11, 121
10, 135839, Note_on_c, 4, 43, 0
10, 135840, Note_on_c, 4, 45, 76
10, 135840, Control_c, 4, 11, 123
10, 135900, Control_c, 4, 11, 127
10, 135944, Note_on_c, 4, 60, 0
10, 135944, Note_on_c, 4, 45, 0
10, 135960, Note_on_c, 4, 41, 76
10, 135960, Note_on_c, 4, 53, 76
10, 136079, Note_on_c, 4, 41, 0
10, 136079, Note_on_c, 4, 53, 0
10, 136200, Note_on_c, 4, 46, 76
10, 136299, Note_on_c, 4, 46, 0
10, 136320, Note_on_c, 4, 48, 76
10, 136419, Note_on_c, 4, 48, 0
10, 136440, Note_on_c, 4, 45, 76
10, 136539, Note_on_c, 4, 45, 0
10, 136560, Note_on_c, 4, 46, 76
10, 136659, Note_on_c, 4, 46, 0
10, 136680, Note_on_c, 4, 46, 76
10, 136779, Note_on_c, 4, 46, 0
10, 136800, Note_on_c, 4, 43, 76
10, 136899, Note_on_c, 4, 43, 0
10, 136920, Note_on_c, 4, 45, 76
10, 137019, Note_on_c, 4, 45, 0
10, 137040, Note_on_c, 4, 45, 76
10, 137139, Note_on_c, 4, 45, 0
10, 137160, Note_on_c, 4, 41, 76
10, 137259, Note_on_c, 4, 41, 0
10, 137280, Note_on_c, 4, 43, 76
10, 137379, Note_on_c, 4, 43, 0
10, 137400, Note_on_c, 4, 60, 84
10, 137400, Note_on_c, 4, 57, 84
10, 137460, Control_c, 4, 11, 96
10, 137864, Note_on_c, 4, 60, 0
10, 137864, Note_on_c, 4, 57, 0
10, 137878, Control_c, 4, 11, 127
10, 137880, Note_on_c, 4, 60, 84
10, 137880, Note_on_c, 4, 57, 84
10, 137940, Control_c, 4, 11, 96
10, 138344, Note_on_c, 4, 60, 0
10, 138344, Note_on_c, 4, 57, 0
10, 138358, Control_c, 4, 11, 127
10, 138360, Note_on_c, 4, 62, 84
10, 138360, Note_on_c, 4, 58, 84
10, 138420, Control_c, 4, 11, 96
10, 138824, Note_on_c, 4, 62, 0
10, 138824, Note_on_c, 4, 58, 0
10, 138838, Control_c, 4, 11, 127
10, 138840, Note_on_c, 4, 60, 84
10, 138840, Note_on_c, 4, 57, 84
10, 138900, Control_c, 4, 11, 96
10, 139079, Note_on_c, 4, 60, 0
10, 139079, Note_on_c, 4, 57, 0
10, 139080, Note_on_c, 4, 58, 84
10, 139080, Note_on_c, 4, 62, 84
10, 139304, Note_on_c, 4, 58, 0
10, 139304, Note_on_c, 4, 62, 0
10, 139318, Control_c, 4, 11, 127
10, 139320, Note_on_c, 4, 60, 84
10, 139320, Note_on_c, 4, 57, 84
10, 139380, Control_c, 4, 11, 96
10, 139784, Note_on_c, 4, 60, 0
10, 139784, Note_on_c, 4, 57, 0
10, 139798, Control_c, 4, 11, 127
10, 139800, Note_on_c, 4, 60, 84
10, 139800, Note_on_c, 4, 57, 84
10, 139860, Control_c, 4, 11, 96
10, 140264, Note_on_c, 4, 60, 0
10, 140264, Note_on_c, 4, 57, 0
10, 140278, Control_c, 4, 11, 127
10, 140280, Note_on_c, 4, 58, 84
10, 140280, Note_on_c, 4, 62, 84
10, 140340, Control_c, 4, 11, 96
10, 140744, Note_on_c, 4, 58, 0
10, 140744, Note_on_c, 4, 62, 0
10, 140758, Control_c, 4, 11, 127
10, 140760, Note_on_c, 4, 57, 84
10, 140760, Note_on_c, 4, 60, 84
10, 140820, Control_c, 4, 11, 96
10, 140999, Note_on_c, 4, 57, 0
10, 140999, Note_on_c, 4, 60, 0
10, 141000, Note_on_c, 4, 58, 84
10, 141000, Note_on_c, 4, 62, 84
10, 141224, Note_on_c, 4, 58, 0
10, 141224, Note_on_c, 4, 62, 0
10, 141238, Control_c, 4, 11, 127
10, 141240, Note_on_c, 4, 60, 84
10, 141240, Note_on_c, 4, 57, 84
10, 141300, Control_c, 4, 11, 96
10, 141704, Note_on_c, 4, 60, 0
10, 141704, Note_on_c, 4, 57, 0
10, 141718, Control_c, 4, 11, 127
10, 141720, Note_on_c, 4, 60, 84
10, 141720, Note_on_c, 4, 57, 84
10, 141780, Control_c, 4, 11, 96
10, 142184, Note_on_c, 4, 60, 0
10, 142184, Note_on_c, 4, 57, 0
10, 142198, Control_c, 4, 11, 127
10, 142200, Note_on_c, 4, 58, 84
10, 142200, Note_on_c, 4, 62, 84
10, 142260, Control_c, 4, 11, 96
10, 142664, Note_on_c, 4, 58, 0
10, 142664, Note_on_c, 4, 62, 0
10, 142678, Control_c, 4, 11, 127
10, 142680, Note_on_c, 4, 57, 84
10, 142680, Note_on_c, 4, 60, 84
10, 142740, Control_c, 4, 11, 96
10, 142919, Note_on_c, 4, 57, 0
10, 142919, Note_on_c, 4, 60, 0
10, 142920, Note_on_c, 4, 58, 84
10, 142920, Note_on_c, 4, 62, 84
10, 143144, Note_on_c, 4, 58, 0
10, 143144, Note_on_c, 4, 62, 0
10, 143158, Control_c, 4, 11, 127
10, 143160, Note_on_c, 4, 60, 84
10, 143160, Note_on_c, 4, 57, 84
10, 143220, Control_c, 4, 11, 96
10, 143624, Note_on_c, 4, 60, 0
10, 143624, Note_on_c, 4, 57, 0
10, 143638, Control_c, 4, 11, 127
10, 143640, Note_on_c, 4, 60, 84
10, 143640, Note_on_c, 4, 57, 84
10, 143700, Control_c, 4, 11, 96
10, 144104, Note_on_c, 4, 60, 0
10, 144104, Note_on_c, 4, 57, 0
10, 144118, Control_c, 4, 11, 127
10, 144120, Note_on_c, 4, 58, 84
10, 144120, Note_on_c, 4, 62, 84
10, 144180, Control_c, 4, 11, 96
10, 144584, Note_on_c, 4, 58, 0
10, 144584, Note_on_c, 4, 62, 0
10, 144598, Control_c, 4, 11, 127
10, 144600, Note_on_c, 4, 60, 84
10, 144600, Note_on_c, 4, 57, 84
10, 144660, Control_c, 4, 11, 96
10, 144839, Note_on_c, 4, 60, 0
10, 144839, Note_on_c, 4, 57, 0
10, 144840, Note_on_c, 4, 58, 84
10, 144840, Note_on_c, 4, 62, 84
10, 145064, Note_on_c, 4, 58, 0
10, 145064, Note_on_c, 4, 62, 0
10, 145078, Control_c, 4, 11, 127
10, 145080, Note_on_c, 4, 60, 84
10, 145199, Note_on_c, 4, 60, 0
10, 145200, Note_on_c, 4, 62, 76
10, 145259, Note_on_c, 4, 62, 0
10, 145260, Note_on_c, 4, 60, 76
10, 145319, Note_on_c, 4, 60, 0
10, 145320, Note_on_c, 4, 55, 76
10, 145439, Note_on_c, 4, 55, 0
10, 145440, Note_on_c, 4, 57, 76
10, 145499, Note_on_c, 4, 57, 0
10, 145500, Note_on_c, 4, 59, 76
10, 145551, Note_on_c, 4, 59, 0
10, 145560, Note_on_c, 4, 60, 84
10, 145679, Note_on_c, 4, 60, 0
10, 145680, Note_on_c, 4, 62, 76
10, 145739, Note_on_c, 4, 62, 0
10, 145740, Note_on_c, 4, 60, 76
10, 145791, Note_on_c, 4, 60, 0
10, 145800, Note_on_c, 4, 55, 76
10, 146024, Note_on_c, 4, 55, 0
10, 146040, Note_on_c, 4, 53, 84
10, 146099, Note_on_c, 4, 53, 0
10, 146100, Note_on_c, 4, 55, 76
10, 146159, Note_on_c, 4, 55, 0
10, 146160, Note_on_c, 4, 57, 76
10, 146219, Note_on_c, 4, 57, 0
10, 146220, Note_on_c, 4, 58, 76
10, 146271, Note_on_c, 4, 58, 0
10, 146280, Note_on_c, 4, 60, 76
10, 146369, Note_on_c, 4, 60, 0
10, 146400, Note_on_c, 4, 60, 76
10, 146429, Note_on_c, 4, 60, 0
10, 146430, Note_on_c, 4, 62, 76
10, 146511, Note_on_c, 4, 62, 0
10, 146520, Note_on_c, 4, 55, 76
10, 146609, Note_on_c, 4, 55, 0
10, 146640, Note_on_c, 4, 55, 76
10, 146669, Note_on_c, 4, 55, 0
10, 146670, Note_on_c, 4, 60, 76
10, 146751, Note_on_c, 4, 60, 0
10, 146760, Note_on_c, 4, 53, 76
10, 146984, Note_on_c, 4, 53, 0
10, 147000, Note_on_c, 4, 60, 76
10, 147119, Note_on_c, 4, 60, 0
10, 147120, Note_on_c, 4, 62, 76
10, 147179, Note_on_c, 4, 62, 0
10, 147180, Note_on_c, 4, 60, 76
10, 147239, Note_on_c, 4, 60, 0
10, 147240, Note_on_c, 4, 55, 76
10, 147359, Note_on_c, 4, 55, 0
10, 147360, Note_on_c, 4, 57, 76
10, 147419, Note_on_c, 4, 57, 0
10, 147420, Note_on_c, 4, 59, 76
10, 147471, Note_on_c, 4, 59, 0
10, 147480, Note_on_c, 4, 60, 76
10, 147599, Note_on_c, 4, 60, 0
10, 147600, Note_on_c, 4, 62, 76
10, 147659, Note_on_c, 4, 62, 0
10, 147660, Note_on_c, 4, 60, 76
10, 147711, Note_on_c, 4, 60, 0
10, 147720, Note_on_c, 4, 55, 76
10, 147944, Note_on_c, 4, 55, 0
10, 147960, Note_on_c, 4, 53, 76
10, 148019, Note_on_c, 4, 53, 0
10, 148020, Note_on_c, 4, 55, 76
10, 148079, Note_on_c, 4, 55, 0
10, 148080, Note_on_c, 4, 57, 76
10, 148139, Note_on_c, 4, 57, 0
10, 148140, Note_on_c, 4, 58, 76
10, 148191, Note_on_c, 4, 58, 0
10, 148200, Note_on_c, 4, 60, 76
10, 148289, Note_on_c, 4, 60, 0
10, 148320, Note_on_c, 4, 60, 76
10, 148349, Note_on_c, 4, 60, 0
10, 148350, Note_on_c, 4, 62, 76
10, 148431, Note_on_c, 4, 62, 0
10, 148440, Note_on_c, 4, 55, 76
10, 148529, Note_on_c, 4, 55, 0
10, 148560, Note_on_c, 4, 55, 76
10, 148589, Note_on_c, 4, 55, 0
10, 148590, Note_on_c, 4, 60, 76
10, 148671, Note_on_c, 4, 60, 0
10, 148680, Note_on_c, 4, 53, 76
10, 148904, Note_on_c, 4, 53, 0
10, 148920, Note_on_c, 4, 52, 84
10, 148920, Note_on_c, 4, 60, 84
10, 149159, Note_on_c, 4, 52, 0
10, 149159, Note_on_c, 4, 60, 0
10, 149160, Note_on_c, 4, 62, 84
10, 149160, Note_on_c, 4, 65, 84
10, 149399, Note_on_c, 4, 62, 0
10, 149399, Note_on_c, 4, 65, 0
10, 149400, Note_on_c, 4, 60, 84
10, 149400, Note_on_c, 4, 64, 84
10, 149744, Note_on_c, 4, 60, 0
10, 149744, Note_on_c, 4, 64, 0
10, 149760, Note_on_c, 4, 53, 84
10, 149760, Note_on_c, 4, 57, 84
10, 149864, Note_on_c, 4, 53, 0
10, 149864, Note_on_c, 4, 57, 0
10, 149880, Note_on_c, 4, 55, 84
10, 149880, Note_on_c, 4, 52, 84
10, 149999, Note_on_c, 4, 55, 0
10, 149999, Note_on_c, 4, 52, 0
10, 150120, Note_on_c, 4, 57, 84
10, 150120, Note_on_c, 4, 53, 84
10, 150239, Note_on_c, 4, 57, 0
10, 150239, Note_on_c, 4, 53, 0
10, 150360, Note_on_c, 4, 60, 84
10, 150360, Note_on_c, 4, 55, 84
10, 150479, Note_on_c, 4, 60, 0
10, 150479, Note_on_c, 4, 55, 0
10, 150600, Note_on_c, 4, 59, 84
10, 150600, Note_on_c, 4, 55, 84
10, 150719, Note_on_c, 4, 59, 0
10, 150719, Note_on_c, 4, 55, 0
10, 150840, Note_on_c, 4, 60, 84
10, 150840, Note_on_c, 4, 52, 84
10, 150944, Note_on_c, 4, 60, 0
10, 150944, Note_on_c, 4, 52, 0
10, 150960, Note_on_c, 4, 52, 84
10, 150960, Note_on_c, 4, 60, 84
10, 151064, Note_on_c, 4, 52, 0
10, 151064, Note_on_c, 4, 60, 0
10, 151080, Note_on_c, 4, 65, 84
10, 151080, Note_on_c, 4, 62, 84
10, 151184, Note_on_c, 4, 65, 0
10, 151184, Note_on_c, 4, 62, 0
10, 151200, Note_on_c, 4, 62, 84
10, 151200, Note_on_c, 4, 65, 84
10, 151304, Note_on_c, 4, 62, 0
10, 151304, Note_on_c, 4, 65, 0
10, 151320, Note_on_c, 4, 64, 84
10, 151320, Note_on_c, 4, 60, 84
10, 151424, Note_on_c, 4, 64, 0
10, 151424, Note_on_c, 4, 60, 0
10, 151440, Note_on_c, 4, 60, 84
10, 151440, Note_on_c, 4, 64, 84
10, 151559, Note_on_c, 4, 60, 0
10, 151559, Note_on_c, 4, 64, 0
10, 151680, Note_on_c, 4, 53, 84
10, 151680, Note_on_c, 4, 57, 84
10, 151799, Note_on_c, 4, 53, 0
10, 151799, Note_on_c, 4, 57, 0
10, 151920, Note_on_c, 4, 55, 84
10, 151920, Note_on_c, 4, 52, 84
10, 152039, Note_on_c, 4, 55, 0
10, 152039, Note_on_c, 4, 52, 0
10, 152160, Note_on_c, 4, 53, 84
10, 152160, Note_on_c, 4, 57, 84
10, 152279, Note_on_c, 4, 53, 0
10, 152279, Note_on_c, 4, 57, 0
10, 152400, Note_on_c, 4, 60, 84
10, 152400, Note_on_c, 4, 55, 84
10, 152519, Note_on_c, 4, 60, 0
10, 152519, Note_on_c, 4, 55, 0
10, 152640, Note_on_c, 4, 55, 84
10, 152640, Note_on_c, 4, 59, 84
10, 152744, Note_on_c, 4, 55, 0
10, 152744, Note_on_c, 4, 59, 0
10, 152758, Control_c, 4, 11, 112
10, 152760, Note_on_c, 4, 55, 92
10, 152760, Note_on_c, 4, 48, 92
10, 152760, Control_c, 4, 11, 112
10, 152952, Control_c, 4, 11, 113
10, 153104, Note_on_c, 4, 55, 0
10, 153104, Note_on_c, 4, 48, 0
10, 153120, Note_on_c, 4, 48, 92
10, 153120, Note_on_c, 4, 55, 92
10, 153144, Control_c, 4, 11, 114
10, 153224, Note_on_c, 4, 48, 0
10, 153224, Note_on_c, 4, 55, 0
10, 153240, Note_on_c, 4, 55, 92
10, 153240, Note_on_c, 4, 48, 92
10, 153336, Control_c, 4, 11, 115
10, 153528, Control_c, 4, 11, 116
10, 153584, Note_on_c, 4, 55, 0
10, 153584, Note_on_c, 4, 48, 0
10, 153600, Note_on_c, 4, 55, 92
10, 153600, Note_on_c, 4, 48, 92
10, 153704, Note_on_c, 4, 55, 0
10, 153704, Note_on_c, 4, 48, 0
10, 153720, Control_c, 4, 11, 117
10, 153720, Note_on_c, 4, 48, 92
10, 153720, Note_on_c, 4, 55, 92
10, 153912, Control_c, 4, 11, 118
10, 154064, Note_on_c, 4, 48, 0
10, 154064, Note_on_c, 4, 55, 0
10, 154080, Note_on_c, 4, 55, 92
10, 154080, Note_on_c, 4, 48, 92
10, 154104, Control_c, 4, 11, 119
10, 154184, Note_on_c, 4, 55, 0
10, 154184, Note_on_c, 4, 48, 0
10, 154200, Note_on_c, 4, 55, 92
10, 154200, Note_on_c, 4, 48, 92
10, 154296, Control_c, 4, 11, 120
10, 154488, Control_c, 4, 11, 121
10, 154544, Note_on_c, 4, 55, 0
10, 154544, Note_on_c, 4, 48, 0
10, 154560, Note_on_c, 4, 55, 92
10, 154560, Note_on_c, 4, 48, 92
10, 154664, Note_on_c, 4, 55, 0
10, 154664, Note_on_c, 4, 48, 0
10, 154680, Note_on_c, 4, 48, 92
10, 154680, Note_on_c, 4, 60, 92
10, 154680, Control_c, 4, 11, 122
10, 154784, Note_on_c, 4, 48, 0
10, 154784, Note_on_c, 4, 60, 0
10, 154800, Note_on_c, 4, 52, 92
10, 154800, Note_on_c, 4, 60, 92
10, 154872, Control_c, 4, 11, 123
10, 154904, Note_on_c, 4, 52, 0
10, 154904, Note_on_c, 4, 60, 0
10, 154920, Note_on_c, 4, 52, 92
10, 154920, Note_on_c, 4, 60, 92
10, 155024, Note_on_c, 4, 52, 0
10, 155024, Note_on_c, 4, 60, 0
10, 155040, Note_on_c, 4, 52, 92
10, 155040, Note_on_c, 4, 60, 92
10, 155064, Control_c, 4, 11, 124
10, 155144, Note_on_c, 4, 52, 0
10, 155144, Note_on_c, 4, 60, 0
10, 155160, Note_on_c, 4, 52, 92
10, 155160, Note_on_c, 4, 60, 92
10, 155256, Control_c, 4, 11, 125
10, 155264, Note_on_c, 4, 52, 0
10, 155264, Note_on_c, 4, 60, 0
10, 155280, Note_on_c, 4, 60, 92
10, 155280, Note_on_c, 4, 64, 92
10, 155384, Note_on_c, 4, 60, 0
10, 155384, Note_on_c, 4, 64, 0
10, 155400, Note_on_c, 4, 60, 92
10, 155400, Note_on_c, 4, 64, 92
10, 155448, Control_c, 4, 11, 127
10, 155504, Note_on_c, 4, 60, 0
10, 155504, Note_on_c, 4, 64, 0
10, 155520, Note_on_c, 4, 60, 92
10, 155520, Note_on_c, 4, 64, 92
10, 155624, Note_on_c, 4, 60, 0
10, 155624, Note_on_c, 4, 64, 0
10, 155640, Note_on_c, 4, 60, 84
10, 155640, Note_on_c, 4, 64, 84
10, 155759, Note_on_c, 4, 60, 0
10, 155759, Note_on_c, 4, 64, 0
10, 156120, Note_on_c, 4, 48, 52
10, 156239, Note_on_c, 4, 48, 0
10, 159240, Control_c, 4, 11, 64
10, 159360, Note_on_c, 4, 57, 76
10, 159360, Note_on_c, 4, 45, 76
10, 159479, Note_on_c, 4, 57, 0
10, 159479, Note_on_c, 4, 45, 0
10, 159480, Note_on_c, 4, 62, 76
10, 159480, Note_on_c, 4, 50, 76
10, 159704, Note_on_c, 4, 62, 0
10, 159704, Note_on_c, 4, 50, 0
10, 159720, Note_on_c, 4, 62, 76
10, 159720, Note_on_c, 4, 50, 76
10, 160064, Note_on_c, 4, 62, 0
10, 160064, Note_on_c, 4, 50, 0
10, 160080, Note_on_c, 4, 50, 76
10, 160080, Note_on_c, 4, 62, 76
10, 160920, Control_c, 4, 11, 64
10, 160960, Control_c, 4, 11, 68
10, 161000, Control_c, 4, 11, 71
10, 161024, Note_on_c, 4, 62, 0
10, 161040, Note_on_c, 4, 60, 76
10, 161040, Control_c, 4, 11, 75
10, 161080, Control_c, 4, 11, 78
10, 161120, Control_c, 4, 11, 82
10, 161159, Note_on_c, 4, 60, 0
10, 161160, Control_c, 4, 11, 85
10, 161160, Note_on_c, 4, 62, 76
10, 161200, Control_c, 4, 11, 89
10, 161219, Note_on_c, 4, 62, 0
10, 161220, Note_on_c, 4, 58, 76
10, 161240, Control_c, 4, 11, 92
10, 161264, Note_on_c, 4, 50, 0
10, 161279, Note_on_c, 4, 58, 0
10, 161280, Control_c, 4, 11, 96
10, 161280, Note_on_c, 4, 50, 76
10, 161280, Note_on_c, 4, 57, 76
10, 161320, Control_c, 4, 11, 99
10, 161360, Control_c, 4, 11, 103
10, 161399, Note_on_c, 4, 57, 0
10, 161400, Note_on_c, 4, 60, 76
10, 161400, Control_c, 4, 11, 106
10, 161440, Control_c, 4, 11, 110
10, 161480, Control_c, 4, 11, 113
10, 161504, Note_on_c, 4, 50, 0
10, 161519, Note_on_c, 4, 60, 0
10, 161520, Control_c, 4, 11, 117
10, 161520, Note_on_c, 4, 58, 76
10, 161520, Note_on_c, 4, 46, 76
10, 161560, Control_c, 4, 11, 120
10, 161579, Note_on_c, 4, 58, 0
10, 161580, Note_on_c, 4, 62, 76
10, 161600, Control_c, 4, 11, 124
10, 161631, Note_on_c, 4, 62, 0
10, 161638, Control_c, 4, 11, 127
10, 161639, Note_on_c, 4, 46, 0
10, 161640, Note_on_c, 4, 48, 76
10, 161640, Note_on_c, 4, 60, 76
10, 161759, Note_on_c, 4, 48, 0
10, 161759, Note_on_c, 4, 60, 0
10, 162360, Note_on_c, 4, 48, 52
10, 162479, Note_on_c, 4, 48, 0
10, 162960, Note_on_c, 4, 48, 48
10, 163079, Note_on_c, 4, 48, 0
10, 163080, Note_on_c, 4, 53, 48
10, 163319, Note_on_c, 4, 53, 0
10, 163320, Note_on_c, 4, 57, 48
10, 163439, Note_on_c, 4, 57, 0
10, 163440, Note_on_c, 4, 60, 48
10, 163559, Note_on_c, 4, 60, 0
10, 163560, Note_on_c, 4, 57, 48
10, 163664, Note_on_c, 4, 57, 0
10, 163680, Note_on_c, 4, 57, 48
10, 163799, Note_on_c, 4, 57, 0
10, 163800, Note_on_c, 4, 60, 48
10, 163919, Note_on_c, 4, 60, 0
10, 163920, Note_on_c, 4, 64, 48
10, 164039, Note_on_c, 4, 64, 0
10, 164040, Note_on_c, 4, 58, 48
10, 164040, Note_on_c, 4, 65, 48
10, 164099, Note_on_c, 4, 65, 0
10, 164100, Note_on_c, 4, 62, 48
10, 164159, Note_on_c, 4, 58, 0
10, 164159, Note_on_c, 4, 62, 0
10, 164160, Note_on_c, 4, 60, 48
10, 164160, Note_on_c, 4, 57, 48
10, 164399, Note_on_c, 4, 60, 0
10, 164399, Note_on_c, 4, 57, 0
10, 164400, Note_on_c, 4, 55, 48
10, 164400, Note_on_c, 4, 64, 48
10, 164504, Note_on_c, 4, 55, 0
10, 164519, Note_on_c, 4, 64, 0
10, 164520, Note_on_c, 4, 57, 48
10, 164520, Note_on_c, 4, 65, 48
10, 164639, Note_on_c, 4, 65, 0
10, 164640, Note_on_c, 4, 60, 48
10, 164759, Note_on_c, 4, 57, 0
10, 164759, Note_on_c, 4, 60, 0
10, 164760, Note_on_c, 4, 58, 48
10, 164760, Note_on_c, 4, 62, 48
10, 164864, Note_on_c, 4, 62, 0
10, 164879, Note_on_c, 4, 58, 0
10, 164880, Note_on_c, 4, 60, 48
10, 164880, Note_on_c, 4, 57, 48
10, 164999, Note_on_c, 4, 60, 0
10, 164999, Note_on_c, 4, 57, 0
10, 165000, Note_on_c, 4, 53, 48
10, 165000, Note_on_c, 4, 57, 48
10, 165119, Note_on_c, 4, 53, 0
10, 165119, Note_on_c, 4, 57, 0
10, 165120, Note_on_c, 4, 55, 48
10, 165120, Note_on_c, 4, 58, 48
10, 165239, Note_on_c, 4, 55, 0
10, 165239, Note_on_c, 4, 58, 0
10, 165240, Note_on_c, 4, 53, 48
10, 165240, Note_on_c, 4, 57, 48
10, 165344, Note_on_c, 4, 53, 0
10, 165344, Note_on_c, 4, 57, 0
10, 165360, Note_on_c, 4, 53, 48
10, 165360, Note_on_c, 4, 57, 48
10, 165479, Note_on_c, 4, 53, 0
10, 165479, Note_on_c, 4, 57, 0
10, 165480, Note_on_c, 4, 48, 48
10, 165480, Note_on_c, 4, 55, 48
10, 165599, Note_on_c, 4, 48, 0
10, 165599, Note_on_c, 4, 55, 0
10, 165600, Note_on_c, 4, 57, 48
10, 165600, Note_on_c, 4, 53, 48
10, 165719, Note_on_c, 4, 57, 0
10, 165719, Note_on_c, 4, 53, 0
10, 167280, Note_on_c, 4, 48, 84
10, 167369, Note_on_c, 4, 48, 0
10, 167400, Note_on_c, 4, 53, 84
10, 167489, Note_on_c, 4, 53, 0
10, 167520, Note_on_c, 4, 48, 84
10, 167609, Note_on_c, 4, 48, 0
10, 167640, Note_on_c, 4, 50, 84
10, 167729, Note_on_c, 4, 50, 0
10, 167760, Note_on_c, 4, 48, 84
10, 167849, Note_on_c, 4, 48, 0
10, 167880, Note_on_c, 4, 45, 84
10, 167969, Note_on_c, 4, 45, 0
10, 168000, Note_on_c, 4, 46, 84
10, 168089, Note_on_c, 4, 46, 0
10, 168120, Note_on_c, 4, 45, 92
10, 168209, Note_on_c, 4, 45, 0
10, 168240, Note_on_c, 4, 53, 84
10, 168240, Note_on_c, 4, 41, 84
10, 168329, Note_on_c, 4, 53, 0
10, 168329, Note_on_c, 4, 41, 0
10, 168360, Note_on_c, 4, 43, 84
10, 168360, Note_on_c, 4, 55, 84
10, 168449, Note_on_c, 4, 43, 0
10, 168449, Note_on_c, 4, 55, 0
10, 168480, Note_on_c, 4, 57, 92
10, 168480, Note_on_c, 4, 45, 92
10, 168569, Note_on_c, 4, 57, 0
10, 168569, Note_on_c, 4, 45, 0
10, 168600, Note_on_c, 4, 53, 84
10, 168600, Note_on_c, 4, 41, 84
10, 168689, Note_on_c, 4, 53, 0
10, 168689, Note_on_c, 4, 41, 0
10, 168720, Note_on_c, 4, 55, 84
10, 168720, Note_on_c, 4, 43, 84
10, 168809, Note_on_c, 4, 55, 0
10, 168809, Note_on_c, 4, 43, 0
10, 168840, Note_on_c, 4, 57, 92
10, 168840, Note_on_c, 4, 45, 92
10, 168929, Note_on_c, 4, 57, 0
10, 168929, Note_on_c, 4, 45, 0
10, 168960, Note_on_c, 4, 41, 84
10, 168960, Note_on_c, 4, 53, 84
10, 169049, Note_on_c, 4, 41, 0
10, 169049, Note_on_c, 4, 53, 0
10, 169080, Note_on_c, 4, 55, 84
10, 169080, Note_on_c, 4, 43, 84
10, 169169, Note_on_c, 4, 55, 0
10, 169169, Note_on_c, 4, 43, 0
10, 169200, Note_on_c, 4, 45, 92
10, 169200, Note_on_c, 4, 57, 92
10, 169289, Note_on_c, 4, 45, 0
10, 169289, Note_on_c, 4, 57, 0
10, 169320, Note_on_c, 4, 53, 84
10, 169320, Note_on_c, 4, 41, 84
10, 169409, Note_on_c, 4, 53, 0
10, 169409, Note_on_c, 4, 41, 0
10, 169440, Note_on_c, 4, 55, 84
10, 169440, Note_on_c, 4, 43, 84
10, 169529, Note_on_c, 4, 55, 0
10, 169529, Note_on_c, 4, 43, 0
10, 169560, Note_on_c, 4, 57, 92
10, 169560, Note_on_c, 4, 45, 92
10, 169620, Control_c, 4, 11, 112
10, 169899, Note_on_c, 4, 57, 0
10, 169899, Note_on_c, 4, 45, 0
10, 169920, Note_on_c, 4, 55, 92
10, 169920, Note_on_c, 4, 43, 92
10, 170139, Note_on_c, 4, 55, 0
10, 170139, Note_on_c, 4, 43, 0
10, 170160, Note_on_c, 4, 41, 92
10, 170160, Note_on_c, 4, 53, 92
10, 170259, Note_on_c, 4, 41, 0
10, 170259, Note_on_c, 4, 53, 0
10, 170280, Note_on_c, 4, 40, 92
10, 170280, Note_on_c, 4, 52, 92
10, 170499, Note_on_c, 4, 40, 0
10, 170499, Note_on_c, 4, 52, 0
10, 170520, Note_on_c, 4, 50, 92
10, 170520, Note_on_c, 4, 38, 92
10, 170619, Note_on_c, 4, 50, 0
10, 170619, Note_on_c, 4, 38, 0
10, 170640, Note_on_c, 4, 48, 92
10, 170640, Note_on_c, 4, 36, 92
10, 170859, Note_on_c, 4, 48, 0
10, 170859, Note_on_c, 4, 36, 0
10, 170880, Note_on_c, 4, 46, 92
10, 170880, Note_on_c, 4, 58, 92
10, 170979, Note_on_c, 4, 46, 0
10, 170979, Note_on_c, 4, 58, 0
10, 170998, Control_c, 4, 11, 127
10, 171000, Note_on_c, 4, 45, 92
10, 171000, Note_on_c, 4, 57, 92
10, 171060, Control_c, 4, 11, 112
10, 171339, Note_on_c, 4, 45, 0
10, 171339, Note_on_c, 4, 57, 0
10, 171358, Control_c, 4, 11, 127
10, 171360, Note_on_c, 4, 46, 92
10, 171360, Note_on_c, 4, 58, 92
10, 171420, Control_c, 4, 11, 112
10, 171699, Note_on_c, 4, 46, 0
10, 171699, Note_on_c, 4, 58, 0
10, 171718, Control_c, 4, 11, 127
10, 171720, Note_on_c, 4, 60, 92
10, 171720, Note_on_c, 4, 48, 92
10, 171780, Control_c, 4, 11, 112
10, 172059, Note_on_c, 4, 60, 0
10, 172059, Note_on_c, 4, 48, 0
10, 172080, Note_on_c, 4, 36, 92
10, 172080, Note_on_c, 4, 48, 92
10, 172419, Note_on_c, 4, 36, 0
10, 172419, Note_on_c, 4, 48, 0
10, 172438, Control_c, 4, 11, 127
10, 172440, Note_on_c, 4, 41, 84
10, 172440, Note_on_c, 4, 53, 84
10, 172559, Note_on_c, 4, 41, 0
10, 172559, Note_on_c, 4, 53, 0
10, 172680, Note_on_c, 4, 57, 84
10, 172680, Note_on_c, 4, 45, 84
10, 172779, Note_on_c, 4, 57, 0
10, 172779, Note_on_c, 4, 45, 0
10, 172800, Note_on_c, 4, 55, 84
10, 172800, Note_on_c, 4, 43, 84
10, 173019, Note_on_c, 4, 55, 0
10, 173019, Note_on_c, 4, 43, 0
10, 173040, Note_on_c, 4, 53, 84
10, 173040, Note_on_c, 4, 41, 84
10, 173139, Note_on_c, 4, 53, 0
10, 173139, Note_on_c, 4, 41, 0
10, 173160, Note_on_c, 4, 52, 84
10, 173160, Note_on_c, 4, 40, 84
10, 173379, Note_on_c, 4, 52, 0
10, 173379, Note_on_c, 4, 40, 0
10, 173400, Note_on_c, 4, 50, 84
10, 173400, Note_on_c, 4, 38, 84
10, 173499, Note_on_c, 4, 50, 0
10, 173499, Note_on_c, 4, 38, 0
10, 173520, Note_on_c, 4, 48, 84
10, 173520, Note_on_c, 4, 36, 84
10, 173739, Note_on_c, 4, 48, 0
10, 173739, Note_on_c, 4, 36, 0
10, 173760, Note_on_c, 4, 58, 84
10, 173760, Note_on_c, 4, 46, 84
10, 173859, Note_on_c, 4, 58, 0
10, 173859, Note_on_c, 4, 46, 0
10, 173880, Note_on_c, 4, 57, 92
10, 173880, Note_on_c, 4, 45, 92
10, 173940, Control_c, 4, 11, 112
10, 174219, Note_on_c, 4, 57, 0
10, 174219, Note_on_c, 4, 45, 0
10, 174238, Control_c, 4, 11, 127
10, 174240, Note_on_c, 4, 58, 92
10, 174240, Note_on_c, 4, 46, 92
10, 174300, Control_c, 4, 11, 112
10, 174579, Note_on_c, 4, 58, 0
10, 174579, Note_on_c, 4, 46, 0
10, 174598, Control_c, 4, 11, 127
10, 174600, Note_on_c, 4, 60, 92
10, 174600, Note_on_c, 4, 48, 92
10, 174660, Control_c, 4, 11, 112
10, 174939, Note_on_c, 4, 60, 0
10, 174939, Note_on_c, 4, 48, 0
10, 174958, Control_c, 4, 11, 127
10, 174960, Note_on_c, 4, 48, 92
10, 174960, Note_on_c, 4, 36, 92
10, 175020, Control_c, 4, 11, 112
10, 175299, Note_on_c, 4, 48, 0
10, 175299, Note_on_c, 4, 36, 0
10, 175318, Control_c, 4, 11, 127
10, 175320, Note_on_c, 4, 53, 92
10, 175320, Note_on_c, 4, 41, 92
10, 175419, Note_on_c, 4, 53, 0
10, 175419, Note_on_c, 4, 41, 0
10, 175440, Note_on_c, 4, 57, 84
10, 175440, Note_on_c, 4, 53, 84
10, 175539, Note_on_c, 4, 57, 0
10, 175539, Note_on_c, 4, 53, 0
10, 175560, Note_on_c, 4, 57, 84
10, 175560, Note_on_c, 4, 53, 84
10, 175659, Note_on_c, 4, 57, 0
10, 175659, Note_on_c, 4, 53, 0
10, 175680, Note_on_c, 4, 60, 92
10, 175680, Note_on_c, 4, 57, 92
10, 175779, Note_on_c, 4, 60, 0
10, 175779, Note_on_c, 4, 57, 0
10, 175800, Note_on_c, 4, 57, 84
10, 175800, Note_on_c, 4, 53, 84
10, 175899, Note_on_c, 4, 57, 0
10, 175899, Note_on_c, 4, 53, 0
10, 175920, Note_on_c, 4, 57, 84
10, 175920, Note_on_c, 4, 53, 84
10, 176019, Note_on_c, 4, 57, 0
10, 176019, Note_on_c, 4, 53, 0
10, 176040, Note_on_c, 4, 60, 92
10, 176040, Note_on_c, 4, 57, 92
10, 176139, Note_on_c, 4, 60, 0
10, 176139, Note_on_c, 4, 57, 0
10, 176160, Note_on_c, 4, 57, 84
10, 176160, Note_on_c, 4, 53, 84
10, 176259, Note_on_c, 4, 57, 0
10, 176259, Note_on_c, 4, 53, 0
10, 176280, Note_on_c, 4, 57, 84
10, 176280, Note_on_c, 4, 53, 84
10, 176379, Note_on_c, 4, 57, 0
10, 176379, Note_on_c, 4, 53, 0
10, 176400, Note_on_c, 4, 58, 92
10, 176400, Note_on_c, 4, 55, 92
10, 176499, Note_on_c, 4, 58, 0
10, 176499, Note_on_c, 4, 55, 0
10, 176520, Note_on_c, 4, 55, 84
10, 176520, Note_on_c, 4, 48, 84
10, 176619, Note_on_c, 4, 55, 0
10, 176619, Note_on_c, 4, 48, 0
10, 176640, Note_on_c, 4, 55, 84
10, 176640, Note_on_c, 4, 48, 84
10, 176739, Note_on_c, 4, 55, 0
10, 176739, Note_on_c, 4, 48, 0
10, 176760, Note_on_c, 4, 60, 92
10, 176760, Note_on_c, 4, 57, 92
10, 176859, Note_on_c, 4, 60, 0
10, 176859, Note_on_c, 4, 57, 0
10, 176880, Note_on_c, 4, 57, 84
10, 176880, Note_on_c, 4, 53, 84
10, 176979, Note_on_c, 4, 57, 0
10, 176979, Note_on_c, 4, 53, 0
10, 177000, Note_on_c, 4, 57, 84
10, 177000, Note_on_c, 4, 53, 84
10, 177099, Note_on_c, 4, 57, 0
10, 177099, Note_on_c, 4, 53, 0
10, 177120, Note_on_c, 4, 60, 92
10, 177120, Note_on_c, 4, 57, 92
10, 177219, Note_on_c, 4, 60, 0
10, 177219, Note_on_c, 4, 57, 0
10, 177240, Note_on_c, 4, 57, 84
10, 177240, Note_on_c, 4, 53, 84
10, 177339, Note_on_c, 4, 57, 0
10, 177339, Note_on_c, 4, 53, 0
10, 177360, Note_on_c, 4, 57, 84
10, 177360, Note_on_c, 4, 53, 84
10, 177459, Note_on_c, 4, 57, 0
10, 177459, Note_on_c, 4, 53, 0
10, 177480, Note_on_c, 4, 60, 92
10, 177480, Note_on_c, 4, 57, 92
10, 177579, Note_on_c, 4, 60, 0
10, 177579, Note_on_c, 4, 57, 0
10, 177600, Note_on_c, 4, 57, 84
10, 177600, Note_on_c, 4, 53, 84
10, 177699, Note_on_c, 4, 57, 0
10, 177699, Note_on_c, 4, 53, 0
10, 177720, Note_on_c, 4, 57, 84
10, 177720, Note_on_c, 4, 53, 84
10, 177819, Note_on_c, 4, 57, 0
10, 177819, Note_on_c, 4, 53, 0
10, 177840, Note_on_c, 4, 58, 92
10, 177840, Note_on_c, 4, 55, 92
10, 177939, Note_on_c, 4, 58, 0
10, 177939, Note_on_c, 4, 55, 0
10, 177960, Note_on_c, 4, 55, 84
10, 177960, Note_on_c, 4, 48, 84
10, 178059, Note_on_c, 4, 55, 0
10, 178059, Note_on_c, 4, 48, 0
10, 178080, Note_on_c, 4, 55, 84
10, 178080, Note_on_c, 4, 48, 84
10, 178199, Note_on_c, 4, 55, 0
10, 178199, Note_on_c, 4, 48, 0
10, 178199, End_track
11, 0, Start_track
11, 0, Title_t, "French Horn in F"
11, 0, MIDI_port, 0
11, 0, Program_c, 5, 60
11, 0, Control_c, 5, 7, 96
11, 0, Control_c, 5, 10, 45
11, 0, Control_c, 5, 11, 127
11, 14400, Note_on_c, 5, 67, 44
11, 14504, Note_on_c, 5, 67, 0
11, 14520, Note_on_c, 5, 48, 44
11, 14520, Note_on_c, 5, 60, 44
11, 14744, Note_on_c, 5, 48, 0
11, 14744, Note_on_c, 5, 60, 0
11, 14760, Note_on_c, 5, 60, 44
11, 14760, Note_on_c, 5, 48, 44
11, 15104, Note_on_c, 5, 60, 0
11, 15104, Note_on_c, 5, 48, 0
11, 15120, Note_on_c, 5, 48, 44
11, 15120, Note_on_c, 5, 60, 44
11, 15464, Note_on_c, 5, 48, 0
11, 15464, Note_on_c, 5, 60, 0
11, 15480, Note_on_c, 5, 48, 44
11, 15480, Note_on_c, 5, 60, 44
11, 15824, Note_on_c, 5, 48, 0
11, 15824, Note_on_c, 5, 60, 0
11, 15840, Note_on_c, 5, 60, 44
11, 15840, Note_on_c, 5, 48, 44
11, 16184, Note_on_c, 5, 60, 0
11, 16184, Note_on_c, 5, 48, 0
11, 16200, Note_on_c, 5, 48, 44
11, 16200, Note_on_c, 5, 60, 44
11, 16544, Note_on_c, 5, 48, 0
11, 16544, Note_on_c, 5, 60, 0
11, 16560, Note_on_c, 5, 60, 44
11, 16560, Note_on_c, 5, 48, 44
11, 16904, Note_on_c, 5, 60, 0
11, 16904, Note_on_c, 5, 48, 0
11, 16918, Control_c, 5, 11, 48
11, 16920, Note_on_c, 5, 67, 84
11, 17024, Note_on_c, 5, 67, 0
11, 17040, Note_on_c, 5, 67, 84
11, 17144, Note_on_c, 5, 67, 0
11, 17160, Control_c, 5, 11, 48
11, 17160, Note_on_c, 5, 48, 84
11, 17160, Note_on_c, 5, 60, 84
11, 17203, Control_c, 5, 11, 50
11, 17247, Control_c, 5, 11, 52
11, 17264, Note_on_c, 5, 48, 0
11, 17264, Note_on_c, 5, 60, 0
11, 17280, Note_on_c, 5, 48, 84
11, 17280, Note_on_c, 5, 60, 84
11, 17290, Control_c, 5, 11, 55
11, 17333, Control_c, 5, 11, 57
11, 17377, Control_c, 5, 11, 59
11, 17384, Note_on_c, 5, 48, 0
11, 17384, Note_on_c, 5, 60, 0
11, 17400, Note_on_c, 5, 48, 84
11, 17400, Note_on_c, 5, 60, 84
11, 17420, Control_c, 5, 11, 61
11, 17463, Control_c, 5, 11, 63
11, 17504, Note_on_c, 5, 48, 0
11, 17504, Note_on_c, 5, 60, 0
11, 17507, Control_c, 5, 11, 66
11, 17520, Note_on_c, 5, 60, 84
11, 17520, Note_on_c, 5, 48, 84
11, 17550, Control_c, 5, 11, 68
11, 17593, Control_c, 5, 11, 70
11, 17624, Note_on_c, 5, 60, 0
11, 17624, Note_on_c, 5, 48, 0
11, 17637, Control_c, 5, 11, 72
11, 17640, Note_on_c, 5, 60, 84
11, 17640, Note_on_c, 5, 48, 84
11, 17680, Control_c, 5, 11, 74
11, 17723, Control_c, 5, 11, 77
11, 17744, Note_on_c, 5, 60, 0
11, 17744, Note_on_c, 5, 48, 0
11, 17760, Note_on_c, 5, 48, 84
11, 17760, Note_on_c, 5, 60, 84
11, 17767, Control_c, 5, 11, 79
11, 17810, Control_c, 5, 11, 81
11, 17853, Control_c, 5, 11, 83
11, 17864, Note_on_c, 5, 48, 0
11, 17864, Note_on_c, 5, 60, 0
11, 17880, Note_on_c, 5, 48, 84
11, 17880, Note_on_c, 5, 60, 84
11, 17897, Control_c, 5, 11, 85
11, 17940, Control_c, 5, 11, 88
11, 17983, Control_c, 5, 11, 90
11, 17984, Note_on_c, 5, 48, 0
11, 17984, Note_on_c, 5, 60, 0
11, 18000, Note_on_c, 5, 48, 84
11, 18000, Note_on_c, 5, 60, 84
11, 18027, Control_c, 5, 11, 92
11, 18070, Control_c, 5, 11, 94
11, 18104, Note_on_c, 5, 48, 0
11, 18104, Note_on_c, 5, 60, 0
11, 18113, Control_c, 5, 11, 96
11, 18120, Note_on_c, 5, 48, 84
11, 18120, Note_on_c, 5, 60, 84
11, 18157, Control_c, 5, 11, 98
11, 18200, Control_c, 5, 11, 101
11, 18224, Note_on_c, 5, 48, 0
11, 18224, Note_on_c, 5, 60, 0
11, 18240, Note_on_c, 5, 60, 84
11, 18240, Note_on_c, 5, 48, 84
11, 18243, Control_c, 5, 11, 103
11, 18287, Control_c, 5, 11, 105
11, 18330, Control_c, 5, 11, 107
11, 18344, Note_on_c, 5, 60, 0
11, 18344, Note_on_c, 5, 48, 0
11, 18360, Note_on_c, 5, 60, 84
11, 18360, Note_on_c, 5, 48, 84
11, 18373, Control_c, 5, 11, 109
11, 18417, Control_c, 5, 11, 112
11, 18460, Control_c, 5, 11, 114
11, 18464, Note_on_c, 5, 60, 0
11, 18464, Note_on_c, 5, 48, 0
11, 18480, Note_on_c, 5, 48, 84
11, 18480, Note_on_c, 5, 60, 84
11, 18503, Control_c, 5, 11, 116
11, 18547, Control_c, 5, 11, 118
11, 18584, Note_on_c, 5, 48, 0
11, 18584, Note_on_c, 5, 60, 0
11, 18590, Control_c, 5, 11, 120
11, 18600, Note_on_c, 5, 48, 84
11, 18600, Note_on_c, 5, 60, 84
11, 18633, Control_c, 5, 11, 123
11, 18677, Control_c, 5, 11, 125
11, 18704, Note_on_c, 5, 48, 0
11, 18704, Note_on_c, 5, 60, 0
11, 18718, Control_c, 5, 11, 127
11, 18720, Note_on_c, 5, 60, 84
11, 18720, Note_on_c, 5, 48, 84
11, 18824, Note_on_c, 5, 60, 0
11, 18824, Note_on_c, 5, 48, 0
11, 18840, Note_on_c, 5, 65, 84
11, 18840, Note_on_c, 5, 53, 84
11, 18944, Note_on_c, 5, 65, 0
11, 18944, Note_on_c, 5, 53, 0
11, 18960, Note_on_c, 5, 65, 84
11, 18960, Note_on_c, 5, 53, 84
11, 19064, Note_on_c, 5, 65, 0
11, 19064, Note_on_c, 5, 53, 0
11, 19080, Note_on_c, 5, 65, 84
11, 19080, Note_on_c, 5, 53, 84
11, 19184, Note_on_c, 5, 65, 0
11, 19184, Note_on_c, 5, 53, 0
11, 19200, Note_on_c, 5, 65, 84
11, 19200, Note_on_c, 5, 53, 84
11, 19304, Note_on_c, 5, 65, 0
11, 19304, Note_on_c, 5, 53, 0
11, 19320, Note_on_c, 5, 53, 84
11, 19320, Note_on_c, 5, 65, 84
11, 19424, Note_on_c, 5, 53, 0
11, 19424, Note_on_c, 5, 65, 0
11, 19440, Note_on_c, 5, 53, 84
11, 19440, Note_on_c, 5, 65, 84
11, 19544, Note_on_c, 5, 53, 0
11, 19544, Note_on_c, 5, 65, 0
11, 19560, Note_on_c, 5, 65, 92
11, 19560, Note_on_c, 5, 53, 92
11, 19664, Note_on_c, 5, 65, 0
11, 19664, Note_on_c, 5, 53, 0
11, 19680, Note_on_c, 5, 65, 84
11, 19784, Note_on_c, 5, 65, 0
11, 19800, Note_on_c, 5, 67, 84
11, 19904, Note_on_c, 5, 67, 0
11, 19920, Note_on_c, 5, 69, 92
11, 19920, Note_on_c, 5, 57, 92
11, 20039, Note_on_c, 5, 69, 0
11, 20039, Note_on_c, 5, 57, 0
11, 20280, Note_on_c, 5, 69, 92
11, 20280, Note_on_c, 5, 57, 92
11, 20399, Note_on_c, 5, 69, 0
11, 20399, Note_on_c, 5, 57, 0
11, 20640, Note_on_c, 5, 57, 92
11, 20640, Note_on_c, 5, 69, 92
11, 20759, Note_on_c, 5, 57, 0
11, 20759, Note_on_c, 5, 69, 0
11, 21000, Note_on_c, 5, 69, 92
11, 21000, Note_on_c, 5, 57, 92
11, 21060, Control_c, 5, 11, 112
11, 21344, Note_on_c, 5, 69, 0
11, 21344, Note_on_c, 5, 57, 0
11, 21360, Note_on_c, 5, 67, 92
11, 21584, Note_on_c, 5, 67, 0
11, 21600, Note_on_c, 5, 60, 92
11, 21600, Note_on_c, 5, 48, 92
11, 21704, Note_on_c, 5, 60, 0
11, 21704, Note_on_c, 5, 48, 0
11, 21720, Note_on_c, 5, 60, 92
11, 21720, Note_on_c, 5, 48, 92
11, 21944, Note_on_c, 5, 60, 0
11, 21944, Note_on_c, 5, 48, 0
11, 21960, Note_on_c, 5, 48, 92
11, 21960, Note_on_c, 5, 60, 92
11, 22064, Note_on_c, 5, 48, 0
11, 22064, Note_on_c, 5, 60, 0
11, 22080, Note_on_c, 5, 60, 92
11, 22080, Note_on_c, 5, 48, 92
11, 22304, Note_on_c, 5, 60, 0
11, 22304, Note_on_c, 5, 48, 0
11, 22320, Note_on_c, 5, 60, 92
11, 22320, Note_on_c, 5, 48, 92
11, 22424, Note_on_c, 5, 60, 0
11, 22424, Note_on_c, 5, 48, 0
11, 22438, Control_c, 5, 11, 127
11, 22440, Note_on_c, 5, 65, 92
11, 22500, Control_c, 5, 11, 112
11, 22784, Note_on_c, 5, 65, 0
11, 22798, Control_c, 5, 11, 127
11, 22800, Note_on_c, 5, 65, 92
11, 22800, Note_on_c, 5, 67, 92
11, 22860, Control_c, 5, 11, 112
11, 23144, Note_on_c, 5, 65, 0
11, 23144, Note_on_c, 5, 67, 0
11, 23158, Control_c, 5, 11, 127
11, 23160, Note_on_c, 5, 69, 92
11, 23160, Note_on_c, 5, 65, 92
11, 23220, Control_c, 5, 11, 112
11, 23504, Note_on_c, 5, 69, 0
11, 23504, Note_on_c, 5, 65, 0
11, 23518, Control_c, 5, 11, 127
11, 23520, Note_on_c, 5, 60, 92
11, 23520, Note_on_c, 5, 67, 92
11, 23580, Control_c, 5, 11, 112
11, 23864, Note_on_c, 5, 60, 0
11, 23864, Note_on_c, 5, 67, 0
11, 23880, Note_on_c, 5, 69, 92
11, 23880, Note_on_c, 5, 65, 92
11, 23999, Note_on_c, 5, 69, 0
11, 23999, Note_on_c, 5, 65, 0
11, 24480, Note_on_c, 5, 48, 92
11, 24480, Note_on_c, 5, 60, 92
11, 24584, Note_on_c, 5, 48, 0
11, 24584, Note_on_c, 5, 60, 0
11, 24600, Note_on_c, 5, 60, 92
11, 24600, Note_on_c, 5, 48, 92
11, 24824, Note_on_c, 5, 60, 0
11, 24824, Note_on_c, 5, 48, 0
11, 24840, Note_on_c, 5, 48, 92
11, 24840, Note_on_c, 5, 60, 92
11, 24944, Note_on_c, 5, 48, 0
11, 24944, Note_on_c, 5, 60, 0
11, 24960, Note_on_c, 5, 60, 92
11, 24960, Note_on_c, 5, 48, 92
11, 25184, Note_on_c, 5, 60, 0
11, 25184, Note_on_c, 5, 48, 0
11, 25200, Note_on_c, 5, 67, 92
11, 25200, Note_on_c, 5, 60, 92
11, 25304, Note_on_c, 5, 67, 0
11, 25304, Note_on_c, 5, 60, 0
11, 25318, Control_c, 5, 11, 127
11, 25320, Note_on_c, 5, 65, 92
11, 25320, Note_on_c, 5, 53, 92
11, 25380, Control_c, 5, 11, 112
11, 25664, Note_on_c, 5, 65, 0
11, 25664, Note_on_c, 5, 53, 0
11, 25678, Control_c, 5, 11, 127
11, 25680, Note_on_c, 5, 65, 92
11, 25680, Note_on_c, 5, 53, 92
11, 25740, Control_c, 5, 11, 112
11, 26024, Note_on_c, 5, 65, 0
11, 26024, Note_on_c, 5, 53, 0
11, 26038, Control_c, 5, 11, 127
11, 26040, Note_on_c, 5, 65, 92
11, 26040, Note_on_c, 5, 53, 92
11, 26100, Control_c, 5, 11, 112
11, 26384, Note_on_c, 5, 65, 0
11, 26384, Note_on_c, 5, 53, 0
11, 26398, Control_c, 5, 11, 127
11, 26400, Note_on_c, 5, 60, 92
11, 26400, Note_on_c, 5, 48, 92
11, 26460, Control_c, 5, 11, 112
11, 26744, Note_on_c, 5, 60, 0
11, 26744, Note_on_c, 5, 48, 0
11, 26758, Control_c, 5, 11, 127
11, 26760, Note_on_c, 5, 65, 92
11, 26760, Note_on_c, 5, 53, 92
11, 26864, Note_on_c, 5, 65, 0
11, 26864, Note_on_c, 5, 53, 0
11, 26880, Note_on_c, 5, 69, 84
11, 26880, Note_on_c, 5, 65, 84
11, 26984, Note_on_c, 5, 69, 0
11, 26984, Note_on_c, 5, 65, 0
11, 27000, Note_on_c, 5, 65, 84
11, 27000, Note_on_c, 5, 69, 84
11, 27104, Note_on_c, 5, 65, 0
11, 27104, Note_on_c, 5, 69, 0
11, 27120, Note_on_c, 5, 69, 92
11, 27120, Note_on_c, 5, 72, 92
11, 27224, Note_on_c, 5, 69, 0
11, 27224, Note_on_c, 5, 72, 0
11, 27240, Note_on_c, 5, 69, 84
11, 27240, Note_on_c, 5, 65, 84
11, 27344, Note_on_c, 5, 69, 0
11, 27344, Note_on_c, 5, 65, 0
11, 27360, Note_on_c, 5, 65, 84
11, 27360, Note_on_c, 5, 69, 84
11, 27464, Note_on_c, 5, 65, 0
11, 27464, Note_on_c, 5, 69, 0
11, 27480, Note_on_c, 5, 69, 92
11, 27480, Note_on_c, 5, 72, 92
11, 27584, Note_on_c, 5, 69, 0
11, 27584, Note_on_c, 5, 72, 0
11, 27600, Note_on_c, 5, 69, 84
11, 27600, Note_on_c, 5, 65, 84
11, 27704, Note_on_c, 5, 69, 0
11, 27704, Note_on_c, 5, 65, 0
11, 27720, Note_on_c, 5, 65, 84
11, 27720, Note_on_c, 5, 69, 84
11, 27824, Note_on_c, 5, 65, 0
11, 27824, Note_on_c, 5, 69, 0
11, 27840, Note_on_c, 5, 67, 92
11, 27840, Note_on_c, 5, 70, 92
11, 27944, Note_on_c, 5, 67, 0
11, 27944, Note_on_c, 5, 70, 0
11, 27960, Note_on_c, 5, 67, 84
11, 27960, Note_on_c, 5, 60, 84
11, 28064, Note_on_c, 5, 67, 0
11, 28064, Note_on_c, 5, 60, 0
11, 28080, Note_on_c, 5, 60, 84
11, 28080, Note_on_c, 5, 67, 84
11, 28184, Note_on_c, 5, 60, 0
11, 28184, Note_on_c, 5, 67, 0
11, 28200, Note_on_c, 5, 69, 92
11, 28200, Note_on_c, 5, 72, 92
11, 28304, Note_on_c, 5, 69, 0
11, 28304, Note_on_c, 5, 72, 0
11, 28320, Note_on_c, 5, 69, 84
11, 28320, Note_on_c, 5, 65, 84
11, 28424, Note_on_c, 5, 69, 0
11, 28424, Note_on_c, 5, 65, 0
11, 28440, Note_on_c, 5, 69, 84
11, 28440, Note_on_c, 5, 65, 84
11, 28544, Note_on_c, 5, 69, 0
11, 28544, Note_on_c, 5, 65, 0
11, 28560, Note_on_c, 5, 69, 92
11, 28560, Note_on_c, 5, 72, 92
11, 28664, Note_on_c, 5, 69, 0
11, 28664, Note_on_c, 5, 72, 0
11, 28680, Note_on_c, 5, 69, 84
11, 28680, Note_on_c, 5, 65, 84
11, 28784, Note_on_c, 5, 69, 0
11, 28784, Note_on_c, 5, 65, 0
11, 28800, Note_on_c, 5, 65, 84
11, 28800, Note_on_c, 5, 69, 84
11, 28904, Note_on_c, 5, 65, 0
11, 28904, Note_on_c, 5, 69, 0
11, 28920, Note_on_c, 5, 69, 92
11, 28920, Note_on_c, 5, 72, 92
11, 29024, Note_on_c, 5, 69, 0
11, 29024, Note_on_c, 5, 72, 0
11, 29040, Note_on_c, 5, 69, 84
11, 29040, Note_on_c, 5, 65, 84
11, 29144, Note_on_c, 5, 69, 0
11, 29144, Note_on_c, 5, 65, 0
11, 29160, Note_on_c, 5, 69, 84
11, 29160, Note_on_c, 5, 65, 84
11, 29264, Note_on_c, 5, 69, 0
11, 29264, Note_on_c, 5, 65, 0
11, 29280, Note_on_c, 5, 67, 92
11, 29280, Note_on_c, 5, 70, 92
11, 29384, Note_on_c, 5, 67, 0
11, 29384, Note_on_c, 5, 70, 0
11, 29400, Note_on_c, 5, 67, 84
11, 29400, Note_on_c, 5, 60, 84
11, 29504, Note_on_c, 5, 67, 0
11, 29504, Note_on_c, 5, 60, 0
11, 29520, Note_on_c, 5, 60, 84
11, 29520, Note_on_c, 5, 67, 84
11, 29624, Note_on_c, 5, 60, 0
11, 29624, Note_on_c, 5, 67, 0
11, 29640, Note_on_c, 5, 72, 92
11, 29640, Note_on_c, 5, 69, 92
11, 29744, Note_on_c, 5, 72, 0
11, 29744, Note_on_c, 5, 69, 0
11, 29760, Note_on_c, 5, 65, 84
11, 29760, Note_on_c, 5, 69, 84
11, 29864, Note_on_c, 5, 65, 0
11, 29864, Note_on_c, 5, 69, 0
11, 29880, Note_on_c, 5, 65, 84
11, 29880, Note_on_c, 5, 69, 84
11, 29984, Note_on_c, 5, 65, 0
11, 29984, Note_on_c, 5, 69, 0
11, 30000, Note_on_c, 5, 72, 92
11, 30000, Note_on_c, 5, 69, 92
11, 30104, Note_on_c, 5, 72, 0
11, 30104, Note_on_c, 5, 69, 0
11, 30120, Note_on_c, 5, 65, 84
11, 30120, Note_on_c, 5, 69, 84
11, 30224, Note_on_c, 5, 65, 0
11, 30224, Note_on_c, 5, 69, 0
11, 30240, Note_on_c, 5, 65, 84
11, 30240, Note_on_c, 5, 69, 84
11, 30344, Note_on_c, 5, 65, 0
11, 30344, Note_on_c, 5, 69, 0
11, 30360, Note_on_c, 5, 69, 92
11, 30360, Note_on_c, 5, 72, 92
11, 30464, Note_on_c, 5, 69, 0
11, 30464, Note_on_c, 5, 72, 0
11, 30480, Note_on_c, 5, 65, 84
11, 30480, Note_on_c, 5, 69, 84
11, 30584, Note_on_c, 5, 65, 0
11, 30584, Note_on_c, 5, 69, 0
11, 30600, Note_on_c, 5, 65, 84
11, 30600, Note_on_c, 5, 69, 84
11, 30704, Note_on_c, 5, 65, 0
11, 30704, Note_on_c, 5, 69, 0
11, 30720, Note_on_c, 5, 69, 92
11, 30720, Note_on_c, 5, 72, 92
11, 30824, Note_on_c, 5, 69, 0
11, 30824, Note_on_c, 5, 72, 0
11, 30840, Note_on_c, 5, 69, 84
11, 30840, Note_on_c, 5, 65, 84
11, 30944, Note_on_c, 5, 69, 0
11, 30944, Note_on_c, 5, 65, 0
11, 30960, Note_on_c, 5, 65, 84
11, 30960, Note_on_c, 5, 69, 84
11, 31079, Note_on_c, 5, 65, 0
11, 31079, Note_on_c, 5, 69, 0
11, 46800, Control_c, 5, 11, 96
11, 46920, Control_c, 5, 11, 96
11, 46920, Note_on_c, 5, 60, 68
11, 46950, Control_c, 5, 11, 97
11, 46980, Control_c, 5, 11, 99
11, 47010, Control_c, 5, 11, 100
11, 47040, Control_c, 5, 11, 101
11, 47070, Control_c, 5, 11, 102
11, 47100, Control_c, 5, 11, 104
11, 47130, Control_c, 5, 11, 105
11, 47160, Control_c, 5, 11, 106
11, 47190, Control_c, 5, 11, 108
11, 47220, Control_c, 5, 11, 109
11, 47250, Control_c, 5, 11, 110
11, 47264, Note_on_c, 5, 60, 0
11, 47280, Note_on_c, 5, 48, 68
11, 47280, Note_on_c, 5, 70, 68
11, 47280, Control_c, 5, 11, 112
11, 47310, Control_c, 5, 11, 113
11, 47340, Control_c, 5, 11, 114
11, 47370, Control_c, 5, 11, 115
11, 47384, Note_on_c, 5, 70, 0
11, 47400, Control_c, 5, 11, 117
11, 47400, Note_on_c, 5, 67, 68
11, 47430, Control_c, 5, 11, 118
11, 47460, Control_c, 5, 11, 119
11, 47490, Control_c, 5, 11, 121
11, 47504, Note_on_c, 5, 67, 0
11, 47520, Note_on_c, 5, 67, 68
11, 47520, Control_c, 5, 11, 122
11, 47550, Control_c, 5, 11, 123
11, 47580, Control_c, 5, 11, 124
11, 47610, Control_c, 5, 11, 127
11, 47624, Note_on_c, 5, 48, 0
11, 47624, Note_on_c, 5, 67, 0
11, 47640, Note_on_c, 5, 53, 52
11, 47640, Note_on_c, 5, 69, 48
11, 47744, Note_on_c, 5, 69, 0
11, 47759, Note_on_c, 5, 53, 0
11, 47760, Note_on_c, 5, 69, 48
11, 47864, Note_on_c, 5, 69, 0
11, 47880, Note_on_c, 5, 72, 48
11, 48104, Note_on_c, 5, 72, 0
11, 48120, Note_on_c, 5, 69, 48
11, 48224, Note_on_c, 5, 69, 0
11, 48240, Note_on_c, 5, 65, 48
11, 48464, Note_on_c, 5, 65, 0
11, 48480, Note_on_c, 5, 60, 48
11, 48584, Note_on_c, 5, 60, 0
11, 48600, Note_on_c, 5, 67, 48
11, 48824, Note_on_c, 5, 67, 0
11, 48840, Note_on_c, 5, 65, 48
11, 48959, Note_on_c, 5, 65, 0
11, 48960, Note_on_c, 5, 67, 48
11, 49079, Note_on_c, 5, 67, 0
11, 49080, Note_on_c, 5, 69, 48
11, 49199, Note_on_c, 5, 69, 0
11, 49200, Note_on_c, 5, 67, 48
11, 49319, Note_on_c, 5, 67, 0
11, 49320, Note_on_c, 5, 65, 48
11, 49439, Note_on_c, 5, 65, 0
11, 49440, Note_on_c, 5, 67, 48
11, 49559, Note_on_c, 5, 67, 0
11, 49560, Note_on_c, 5, 69, 48
11, 49679, Note_on_c, 5, 69, 0
11, 49680, Note_on_c, 5, 70, 48
11, 49799, Note_on_c, 5, 70, 0
11, 49800, Note_on_c, 5, 69, 48
11, 49919, Note_on_c, 5, 69, 0
11, 49920, Note_on_c, 5, 70, 48
11, 50024, Note_on_c, 5, 70, 0
11, 50038, Control_c, 5, 11, 96
11, 50040, Note_on_c, 5, 72, 68
11, 50160, Control_c, 5, 11, 96
11, 50218, Control_c, 5, 11, 97
11, 50276, Control_c, 5, 11, 98
11, 50334, Control_c, 5, 11, 99
11, 50392, Control_c, 5, 11, 100
11, 50450, Control_c, 5, 11, 101
11, 50508, Control_c, 5, 11, 102
11, 50566, Control_c, 5, 11, 103
11, 50625, Control_c, 5, 11, 104
11, 50683, Control_c, 5, 11, 105
11, 50741, Control_c, 5, 11, 106
11, 50799, Control_c, 5, 11, 107
11, 50857, Control_c, 5, 11, 108
11, 50915, Control_c, 5, 11, 109
11, 50973, Control_c, 5, 11, 110
11, 51031, Control_c, 5, 11, 111
11, 51089, Control_c, 5, 11, 112
11, 51147, Control_c, 5, 11, 113
11, 51205, Control_c, 5, 11, 114
11, 51263, Control_c, 5, 11, 115
11, 51321, Control_c, 5, 11, 116
11, 51379, Control_c, 5, 11, 117
11, 51437, Control_c, 5, 11, 118
11, 51495, Control_c, 5, 11, 119
11, 51554, Control_c, 5, 11, 120
11, 51612, Control_c, 5, 11, 121
11, 51670, Control_c, 5, 11, 122
11, 51728, Control_c, 5, 11, 123
11, 51786, Control_c, 5, 11, 124
11, 51844, Control_c, 5, 11, 125
11, 51902, Control_c, 5, 11, 127
11, 52064, Note_on_c, 5, 72, 0
11, 52080, Note_on_c, 5, 69, 48
11, 52199, Note_on_c, 5, 69, 0
11, 52200, Note_on_c, 5, 70, 48
11, 52319, Note_on_c, 5, 70, 0
11, 52320, Note_on_c, 5, 72, 48
11, 52439, Note_on_c, 5, 72, 0
11, 52440, Note_on_c, 5, 70, 48
11, 52559, Note_on_c, 5, 70, 0
11, 52560, Note_on_c, 5, 69, 48
11, 52664, Note_on_c, 5, 69, 0
11, 52680, Note_on_c, 5, 67, 48
11, 52919, Note_on_c, 5, 67, 0
11, 52920, Note_on_c, 5, 69, 48
11, 53039, Note_on_c, 5, 69, 0
11, 53040, Note_on_c, 5, 70, 48
11, 53159, Note_on_c, 5, 70, 0
11, 53160, Note_on_c, 5, 67, 48
11, 53279, Note_on_c, 5, 67, 0
11, 53280, Note_on_c, 5, 69, 48
11, 53384, Note_on_c, 5, 69, 0
11, 53400, Note_on_c, 5, 65, 48
11, 53519, Note_on_c, 5, 65, 0
11, 53520, Note_on_c, 5, 69, 48
11, 53639, Note_on_c, 5, 69, 0
11, 53640, Note_on_c, 5, 70, 48
11, 53759, Note_on_c, 5, 70, 0
11, 53760, Note_on_c, 5, 72, 48
11, 53879, Note_on_c, 5, 72, 0
11, 53880, Note_on_c, 5, 70, 48
11, 53999, Note_on_c, 5, 70, 0
11, 54000, Note_on_c, 5, 69, 48
11, 54104, Note_on_c, 5, 69, 0
11, 54118, Control_c, 5, 11, 80
11, 54120, Note_on_c, 5, 67, 76
11, 54359, Note_on_c, 5, 67, 0
11, 54360, Note_on_c, 5, 69, 76
11, 54479, Note_on_c, 5, 69, 0
11, 54480, Note_on_c, 5, 70, 76
11, 54480, Note_on_c, 5, 48, 76
11, 54599, Note_on_c, 5, 70, 0
11, 54600, Note_on_c, 5, 67, 76
11, 54719, Note_on_c, 5, 67, 0
11, 54720, Note_on_c, 5, 69, 76
11, 54839, Note_on_c, 5, 69, 0
11, 54840, Note_on_c, 5, 65, 76
11, 54959, Note_on_c, 5, 65, 0
11, 55200, Note_on_c, 5, 69, 76
11, 55319, Note_on_c, 5, 69, 0
11, 55320, Note_on_c, 5, 72, 76
11, 55439, Note_on_c, 5, 72, 0
11, 55440, Note_on_c, 5, 70, 76
11, 55559, Note_on_c, 5, 70, 0
11, 55920, Note_on_c, 5, 67, 76
11, 56039, Note_on_c, 5, 67, 0
11, 56040, Note_on_c, 5, 70, 76
11, 56159, Note_on_c, 5, 70, 0
11, 56160, Note_on_c, 5, 69, 76
11, 56279, Note_on_c, 5, 48, 0
11, 56279, Note_on_c, 5, 69, 0
11, 56280, Note_on_c, 5, 65, 76
11, 56280, Control_c, 5, 11, 80
11, 56280, Note_on_c, 5, 48, 76
11, 56340, Control_c, 5, 11, 82
11, 56400, Control_c, 5, 11, 84
11, 56460, Control_c, 5, 11, 86
11, 56520, Control_c, 5, 11, 88
11, 56580, Control_c, 5, 11, 90
11, 56639, Note_on_c, 5, 65, 0
11, 56640, Control_c, 5, 11, 92
11, 56640, Note_on_c, 5, 72, 76
11, 56700, Control_c, 5, 11, 94
11, 56760, Control_c, 5, 11, 96
11, 56820, Control_c, 5, 11, 98
11, 56880, Control_c, 5, 11, 100
11, 56940, Control_c, 5, 11, 102
11, 57000, Control_c, 5, 11, 104
11, 57060, Control_c, 5, 11, 105
11, 57120, Control_c, 5, 11, 107
11, 57180, Control_c, 5, 11, 109
11, 57240, Control_c, 5, 11, 111
11, 57300, Control_c, 5, 11, 113
11, 57360, Control_c, 5, 11, 115
11, 57420, Control_c, 5, 11, 117
11, 57480, Control_c, 5, 11, 119
11, 57540, Control_c, 5, 11, 121
11, 57600, Control_c, 5, 11, 123
11, 57660, Control_c, 5, 11, 127
11, 57704, Note_on_c, 5, 48, 0
11, 57704, Note_on_c, 5, 72, 0
11, 57720, Note_on_c, 5, 65, 76
11, 57720, Note_on_c, 5, 53, 76
11, 57839, Note_on_c, 5, 65, 0
11, 57839, Note_on_c, 5, 53, 0
11, 59160, Note_on_c, 5, 65, 84
11, 59160, Note_on_c, 5, 53, 84
11, 59220, Control_c, 5, 11, 96
11, 59624, Note_on_c, 5, 65, 0
11, 59624, Note_on_c, 5, 53, 0
11, 59638, Control_c, 5, 11, 127
11, 59640, Note_on_c, 5, 53, 84
11, 59640, Note_on_c, 5, 65, 84
11, 59700, Control_c, 5, 11, 96
11, 60104, Note_on_c, 5, 53, 0
11, 60104, Note_on_c, 5, 65, 0
11, 60118, Control_c, 5, 11, 127
11, 60120, Note_on_c, 5, 65, 84
11, 60120, Note_on_c, 5, 53, 84
11, 60180, Control_c, 5, 11, 96
11, 60584, Note_on_c, 5, 65, 0
11, 60584, Note_on_c, 5, 53, 0
11, 60598, Control_c, 5, 11, 127
11, 60600, Note_on_c, 5, 65, 84
11, 60600, Note_on_c, 5, 53, 84
11, 60660, Control_c, 5, 11, 96
11, 60824, Note_on_c, 5, 65, 0
11, 60824, Note_on_c, 5, 53, 0
11, 60840, Note_on_c, 5, 65, 84
11, 60840, Note_on_c, 5, 53, 84
11, 61064, Note_on_c, 5, 65, 0
11, 61064, Note_on_c, 5, 53, 0
11, 61078, Control_c, 5, 11, 127
11, 61080, Note_on_c, 5, 53, 84
11, 61080, Note_on_c, 5, 65, 84
11, 61140, Control_c, 5, 11, 96
11, 61544, Note_on_c, 5, 53, 0
11, 61544, Note_on_c, 5, 65, 0
11, 61558, Control_c, 5, 11, 127
11, 61560, Note_on_c, 5, 53, 84
11, 61560, Note_on_c, 5, 65, 84
11, 61620, Control_c, 5, 11, 96
11, 62024, Note_on_c, 5, 53, 0
11, 62024, Note_on_c, 5, 65, 0
11, 62038, Control_c, 5, 11, 127
11, 62040, Note_on_c, 5, 53, 84
11, 62040, Note_on_c, 5, 65, 84
11, 62100, Control_c, 5, 11, 96
11, 62504, Note_on_c, 5, 53, 0
11, 62504, Note_on_c, 5, 65, 0
11, 62518, Control_c, 5, 11, 127
11, 62520, Note_on_c, 5, 53, 84
11, 62520, Note_on_c, 5, 65, 84
11, 62580, Control_c, 5, 11, 96
11, 62744, Note_on_c, 5, 53, 0
11, 62744, Note_on_c, 5, 65, 0
11, 62760, Note_on_c, 5, 65, 84
11, 62760, Note_on_c, 5, 53, 84
11, 62984, Note_on_c, 5, 65, 0
11, 62984, Note_on_c, 5, 53, 0
11, 62998, Control_c, 5, 11, 127
11, 63000, Note_on_c, 5, 65, 84
11, 63000, Note_on_c, 5, 53, 84
11, 63060, Control_c, 5, 11, 96
11, 63464, Note_on_c, 5, 65, 0
11, 63464, Note_on_c, 5, 53, 0
11, 63478, Control_c, 5, 11, 127
11, 63480, Note_on_c, 5, 65, 84
11, 63480, Note_on_c, 5, 53, 84
11, 63540, Control_c, 5, 11, 96
11, 63944, Note_on_c, 5, 65, 0
11, 63944, Note_on_c, 5, 53, 0
11, 63958, Control_c, 5, 11, 127
11, 63960, Note_on_c, 5, 65, 84
11, 63960, Note_on_c, 5, 53, 84
11, 64020, Control_c, 5, 11, 96
11, 64424, Note_on_c, 5, 65, 0
11, 64424, Note_on_c, 5, 53, 0
11, 64438, Control_c, 5, 11, 127
11, 64440, Note_on_c, 5, 53, 84
11, 64440, Note_on_c, 5, 65, 84
11, 64500, Control_c, 5, 11, 96
11, 64664, Note_on_c, 5, 53, 0
11, 64664, Note_on_c, 5, 65, 0
11, 64680, Note_on_c, 5, 53, 84
11, 64680, Note_on_c, 5, 65, 84
11, 64904, Note_on_c, 5, 53, 0
11, 64904, Note_on_c, 5, 65, 0
11, 64918, Control_c, 5, 11, 127
11, 64920, Note_on_c, 5, 65, 84
11, 64920, Note_on_c, 5, 53, 84
11, 64980, Control_c, 5, 11, 96
11, 65384, Note_on_c, 5, 65, 0
11, 65384, Note_on_c, 5, 53, 0
11, 65398, Control_c, 5, 11, 127
11, 65400, Note_on_c, 5, 65, 84
11, 65400, Note_on_c, 5, 53, 84
11, 65460, Control_c, 5, 11, 96
11, 65864, Note_on_c, 5, 65, 0
11, 65864, Note_on_c, 5, 53, 0
11, 65878, Control_c, 5, 11, 127
11, 65880, Note_on_c, 5, 65, 84
11, 65880, Note_on_c, 5, 53, 84
11, 65940, Control_c, 5, 11, 96
11, 66344, Note_on_c, 5, 65, 0
11, 66344, Note_on_c, 5, 53, 0
11, 66358, Control_c, 5, 11, 127
11, 66360, Note_on_c, 5, 65, 84
11, 66360, Note_on_c, 5, 53, 84
11, 66569, Note_on_c, 5, 65, 0
11, 66569, Note_on_c, 5, 53, 0
11, 66600, Note_on_c, 5, 53, 76
11, 66600, Note_on_c, 5, 65, 76
11, 66824, Note_on_c, 5, 53, 0
11, 66824, Note_on_c, 5, 65, 0
11, 67800, Note_on_c, 5, 69, 84
11, 67800, Note_on_c, 5, 65, 84
11, 68009, Note_on_c, 5, 69, 0
11, 68009, Note_on_c, 5, 65, 0
11, 68040, Note_on_c, 5, 65, 76
11, 68040, Note_on_c, 5, 57, 76
11, 68264, Note_on_c, 5, 65, 0
11, 68264, Note_on_c, 5, 57, 0
11, 68280, Note_on_c, 5, 60, 76
11, 68280, Note_on_c, 5, 67, 76
11, 68504, Note_on_c, 5, 60, 0
11, 68504, Note_on_c, 5, 67, 0
11, 68520, Note_on_c, 5, 65, 76
11, 68520, Note_on_c, 5, 57, 76
11, 68759, Note_on_c, 5, 65, 0
11, 68759, Note_on_c, 5, 57, 0
11, 69720, Note_on_c, 5, 69, 76
11, 69720, Note_on_c, 5, 65, 76
11, 69944, Note_on_c, 5, 69, 0
11, 69944, Note_on_c, 5, 65, 0
11, 69960, Note_on_c, 5, 57, 76
11, 69960, Note_on_c, 5, 65, 76
11, 70184, Note_on_c, 5, 57, 0
11, 70184, Note_on_c, 5, 65, 0
11, 70200, Note_on_c, 5, 67, 76
11, 70200, Note_on_c, 5, 60, 76
11, 70424, Note_on_c, 5, 67, 0
11, 70424, Note_on_c, 5, 60, 0
11, 70440, Note_on_c, 5, 57, 76
11, 70440, Note_on_c, 5, 65, 76
11, 70664, Note_on_c, 5, 57, 0
11, 70664, Note_on_c, 5, 65, 0
11, 70680, Note_on_c, 5, 48, 84
11, 70680, Note_on_c, 5, 60, 84
11, 70904, Note_on_c, 5, 48, 0
11, 70904, Note_on_c, 5, 60, 0
11, 70920, Note_on_c, 5, 67, 84
11, 71144, Note_on_c, 5, 67, 0
11, 71160, Note_on_c, 5, 60, 84
11, 71160, Note_on_c, 5, 48, 84
11, 71504, Note_on_c, 5, 60, 0
11, 71504, Note_on_c, 5, 48, 0
11, 71520, Note_on_c, 5, 48, 84
11, 71520, Note_on_c, 5, 60, 84
11, 71624, Note_on_c, 5, 48, 0
11, 71624, Note_on_c, 5, 60, 0
11, 71640, Note_on_c, 5, 48, 84
11, 71640, Note_on_c, 5, 60, 84
11, 71759, Note_on_c, 5, 48, 0
11, 71759, Note_on_c, 5, 60, 0
11, 71880, Note_on_c, 5, 48, 84
11, 71880, Note_on_c, 5, 60, 84
11, 71999, Note_on_c, 5, 48, 0
11, 71999, Note_on_c, 5, 60, 0
11, 72120, Note_on_c, 5, 48, 84
11, 72120, Note_on_c, 5, 60, 84
11, 72239, Note_on_c, 5, 48, 0
11, 72239, Note_on_c, 5, 60, 0
11, 72360, Note_on_c, 5, 67, 84
11, 72479, Note_on_c, 5, 67, 0
11, 72600, Note_on_c, 5, 60, 84
11, 72600, Note_on_c, 5, 48, 84
11, 72704, Note_on_c, 5, 60, 0
11, 72704, Note_on_c, 5, 48, 0
11, 72720, Note_on_c, 5, 60, 84
11, 72720, Note_on_c, 5, 48, 84
11, 72824, Note_on_c, 5, 60, 0
11, 72824, Note_on_c, 5, 48, 0
11, 72840, Note_on_c, 5, 67, 84
11, 72944, Note_on_c, 5, 67, 0
11, 72960, Note_on_c, 5, 67, 84
11, 73064, Note_on_c, 5, 67, 0
11, 73080, Note_on_c, 5, 48, 84
11, 73080, Note_on_c, 5, 60, 84
11, 73184, Note_on_c, 5, 48, 0
11, 73184, Note_on_c, 5, 60, 0
11, 73200, Note_on_c, 5, 60, 84
11, 73200, Note_on_c, 5, 48, 84
11, 73319, Note_on_c, 5, 60, 0
11, 73319, Note_on_c, 5, 48, 0
11, 73440, Note_on_c, 5, 60, 84
11, 73440, Note_on_c, 5, 48, 84
11, 73544, Note_on_c, 5, 60, 0
11, 73544, Note_on_c, 5, 48, 0
11, 73560, Note_on_c, 5, 60, 84
11, 73560, Note_on_c, 5, 48, 84
11, 73664, Note_on_c, 5, 60, 0
11, 73664, Note_on_c, 5, 48, 0
11, 73680, Note_on_c, 5, 48, 84
11, 73680, Note_on_c, 5, 60, 84
11, 73799, Note_on_c, 5, 48, 0
11, 73799, Note_on_c, 5, 60, 0
11, 73920, Note_on_c, 5, 60, 84
11, 73920, Note_on_c, 5, 48, 84
11, 74039, Note_on_c, 5, 60, 0
11, 74039, Note_on_c, 5, 48, 0
11, 74160, Note_on_c, 5, 60, 84
11, 74160, Note_on_c, 5, 48, 84
11, 74279, Note_on_c, 5, 60, 0
11, 74279, Note_on_c, 5, 48, 0
11, 74400, Note_on_c, 5, 67, 84
11, 74504, Note_on_c, 5, 67, 0
11, 74518, Control_c, 5, 11, 112
11, 74520, Note_on_c, 5, 48, 92
11, 74520, Control_c, 5, 11, 112
11, 74520, Note_on_c, 5, 60, 92
11, 74712, Control_c, 5, 11, 113
11, 74864, Note_on_c, 5, 48, 0
11, 74864, Note_on_c, 5, 60, 0
11, 74880, Note_on_c, 5, 60, 92
11, 74880, Note_on_c, 5, 48, 92
11, 74904, Control_c, 5, 11, 114
11, 74984, Note_on_c, 5, 60, 0
11, 74984, Note_on_c, 5, 48, 0
11, 75000, Note_on_c, 5, 48, 92
11, 75000, Note_on_c, 5, 60, 92
11, 75096, Control_c, 5, 11, 115
11, 75288, Control_c, 5, 11, 116
11, 75344, Note_on_c, 5, 48, 0
11, 75344, Note_on_c, 5, 60, 0
11, 75360, Note_on_c, 5, 60, 92
11, 75360, Note_on_c, 5, 48, 92
11, 75464, Note_on_c, 5, 60, 0
11, 75464, Note_on_c, 5, 48, 0
11, 75480, Control_c, 5, 11, 117
11, 75480, Note_on_c, 5, 60, 92
11, 75480, Note_on_c, 5, 48, 92
11, 75672, Control_c, 5, 11, 118
11, 75824, Note_on_c, 5, 60, 0
11, 75824, Note_on_c, 5, 48, 0
11, 75840, Note_on_c, 5, 60, 92
11, 75840, Note_on_c, 5, 48, 92
11, 75864, Control_c, 5, 11, 119
11, 75944, Note_on_c, 5, 60, 0
11, 75944, Note_on_c, 5, 48, 0
11, 75960, Note_on_c, 5, 60, 92
11, 75960, Note_on_c, 5, 48, 92
11, 76056, Control_c, 5, 11, 120
11, 76248, Control_c, 5, 11, 121
11, 76304, Note_on_c, 5, 60, 0
11, 76304, Note_on_c, 5, 48, 0
11, 76320, Note_on_c, 5, 60, 92
11, 76320, Note_on_c, 5, 48, 92
11, 76424, Note_on_c, 5, 60, 0
11, 76424, Note_on_c, 5, 48, 0
11, 76440, Control_c, 5, 11, 122
11, 76440, Note_on_c, 5, 48, 92
11, 76440, Note_on_c, 5, 60, 92
11, 76544, Note_on_c, 5, 48, 0
11, 76544, Note_on_c, 5, 60, 0
11, 76560, Note_on_c, 5, 60, 92
11, 76560, Note_on_c, 5, 48, 92
11, 76632, Control_c, 5, 11, 123
11, 76664, Note_on_c, 5, 60, 0
11, 76664, Note_on_c, 5, 48, 0
11, 76680, Note_on_c, 5, 48, 92
11, 76680, Note_on_c, 5, 60, 92
11, 76784, Note_on_c, 5, 48, 0
11, 76784, Note_on_c, 5, 60, 0
11, 76800, Note_on_c, 5, 48, 92
11, 76800, Note_on_c, 5, 60, 92
11, 76824, Control_c, 5, 11, 124
11, 76904, Note_on_c, 5, 48, 0
11, 76904, Note_on_c, 5, 60, 0
11, 76920, Note_on_c, 5, 60, 92
11, 76920, Note_on_c, 5, 48, 92
11, 77016, Control_c, 5, 11, 125
11, 77024, Note_on_c, 5, 60, 0
11, 77024, Note_on_c, 5, 48, 0
11, 77040, Note_on_c, 5, 48, 92
11, 77040, Note_on_c, 5, 60, 92
11, 77144, Note_on_c, 5, 48, 0
11, 77144, Note_on_c, 5, 60, 0
11, 77160, Note_on_c, 5, 48, 92
11, 77160, Note_on_c, 5, 60, 92
11, 77208, Control_c, 5, 11, 127
11, 77264, Note_on_c, 5, 48, 0
11, 77264, Note_on_c, 5, 60, 0
11, 77280, Note_on_c, 5, 60, 92
11, 77280, Note_on_c, 5, 48, 92
11, 77384, Note_on_c, 5, 60, 0
11, 77384, Note_on_c, 5, 48, 0
11, 77400, Note_on_c, 5, 48, 84
11, 77400, Note_on_c, 5, 60, 84
11, 77519, Note_on_c, 5, 48, 0
11, 77519, Note_on_c, 5, 60, 0
11, 92640, Note_on_c, 5, 67, 44
11, 92744, Note_on_c, 5, 67, 0
11, 92760, Note_on_c, 5, 48, 44
11, 92760, Note_on_c, 5, 60, 44
11, 92984, Note_on_c, 5, 48, 0
11, 92984, Note_on_c, 5, 60, 0
11, 93000, Note_on_c, 5, 60, 44
11, 93000, Note_on_c, 5, 48, 44
11, 93344, Note_on_c, 5, 60, 0
11, 93344, Note_on_c, 5, 48, 0
11, 93360, Note_on_c, 5, 60, 44
11, 93360, Note_on_c, 5, 48, 44
11, 93704, Note_on_c, 5, 60, 0
11, 93704, Note_on_c, 5, 48, 0
11, 93720, Note_on_c, 5, 48, 44
11, 93720, Note_on_c, 5, 60, 44
11, 94064, Note_on_c, 5, 48, 0
11, 94064, Note_on_c, 5, 60, 0
11, 94080, Note_on_c, 5, 60, 44
11, 94080, Note_on_c, 5, 48, 44
11, 94424, Note_on_c, 5, 60, 0
11, 94424, Note_on_c, 5, 48, 0
11, 94440, Note_on_c, 5, 60, 44
11, 94440, Note_on_c, 5, 48, 44
11, 94784, Note_on_c, 5, 60, 0
11, 94784, Note_on_c, 5, 48, 0
11, 94800, Note_on_c, 5, 48, 44
11, 94800, Note_on_c, 5, 60, 44
11, 95144, Note_on_c, 5, 48, 0
11, 95144, Note_on_c, 5, 60, 0
11, 95158, Control_c, 5, 11, 48
11, 95160, Note_on_c, 5, 67, 84
11, 95264, Note_on_c, 5, 67, 0
11, 95280, Note_on_c, 5, 67, 84
11, 95384, Note_on_c, 5, 67, 0
11, 95400, Note_on_c, 5, 48, 84
11, 95400, Control_c, 5, 11, 48
11, 95400, Note_on_c, 5, 60, 84
11, 95443, Control_c, 5, 11, 50
11, 95487, Control_c, 5, 11, 52
11, 95504, Note_on_c, 5, 48, 0
11, 95504, Note_on_c, 5, 60, 0
11, 95520, Note_on_c, 5, 48, 84
11, 95520, Note_on_c, 5, 60, 84
11, 95530, Control_c, 5, 11, 55
11, 95573, Control_c, 5, 11, 57
11, 95617, Control_c, 5, 11, 59
11, 95624, Note_on_c, 5, 48, 0
11, 95624, Note_on_c, 5, 60, 0
11, 95640, Note_on_c, 5, 60, 84
11, 95640, Note_on_c, 5, 48, 84
11, 95660, Control_c, 5, 11, 61
11, 95703, Control_c, 5, 11, 63
11, 95744, Note_on_c, 5, 60, 0
11, 95744, Note_on_c, 5, 48, 0
11, 95747, Control_c, 5, 11, 66
11, 95760, Note_on_c, 5, 48, 84
11, 95760, Note_on_c, 5, 60, 84
11, 95790, Control_c, 5, 11, 68
11, 95833, Control_c, 5, 11, 70
11, 95864, Note_on_c, 5, 48, 0
11, 95864, Note_on_c, 5, 60, 0
11, 95877, Control_c, 5, 11, 72
11, 95880, Note_on_c, 5, 48, 84
11, 95880, Note_on_c, 5, 60, 84
11, 95920, Control_c, 5, 11, 74
11, 95963, Control_c, 5, 11, 77
11, 95984, Note_on_c, 5, 48, 0
11, 95984, Note_on_c, 5, 60, 0
11, 96000, Note_on_c, 5, 48, 84
11, 96000, Note_on_c, 5, 60, 84
11, 96007, Control_c, 5, 11, 79
11, 96050, Control_c, 5, 11, 81
11, 96093, Control_c, 5, 11, 83
11, 96104, Note_on_c, 5, 48, 0
11, 96104, Note_on_c, 5, 60, 0
11, 96120, Note_on_c, 5, 60, 84
11, 96120, Note_on_c, 5, 48, 84
11, 96137, Control_c, 5, 11, 85
11, 96180, Control_c, 5, 11, 88
11, 96223, Control_c, 5, 11, 90
11, 96224, Note_on_c, 5, 60, 0
11, 96224, Note_on_c, 5, 48, 0
11, 96240, Note_on_c, 5, 48, 84
11, 96240, Note_on_c, 5, 60, 84
11, 96267, Control_c, 5, 11, 92
11, 96310, Control_c, 5, 11, 94
11, 96344, Note_on_c, 5, 48, 0
11, 96344, Note_on_c, 5, 60, 0
11, 96353, Control_c, 5, 11, 96
11, 96360, Note_on_c, 5, 48, 84
11, 96360, Note_on_c, 5, 60, 84
11, 96397, Control_c, 5, 11, 98
11, 96440, Control_c, 5, 11, 101
11, 96464, Note_on_c, 5, 48, 0
11, 96464, Note_on_c, 5, 60, 0
11, 96480, Note_on_c, 5, 60, 84
11, 96480, Note_on_c, 5, 48, 84
11, 96483, Control_c, 5, 11, 103
11, 96527, Control_c, 5, 11, 105
11, 96570, Control_c, 5, 11, 107
11, 96584, Note_on_c, 5, 60, 0
11, 96584, Note_on_c, 5, 48, 0
11, 96600, Note_on_c, 5, 48, 84
11, 96600, Note_on_c, 5, 60, 84
11, 96613, Control_c, 5, 11, 109
11, 96657, Control_c, 5, 11, 112
11, 96700, Control_c, 5, 11, 114
11, 96704, Note_on_c, 5, 48, 0
11, 96704, Note_on_c, 5, 60, 0
11, 96720, Note_on_c, 5, 48, 84
11, 96720, Note_on_c, 5, 60, 84
11, 96743, Control_c, 5, 11, 116
11, 96787, Control_c, 5, 11, 118
11, 96824, Note_on_c, 5, 48, 0
11, 96824, Note_on_c, 5, 60, 0
11, 96830, Control_c, 5, 11, 120
11, 96840, Note_on_c, 5, 48, 84
11, 96840, Note_on_c, 5, 60, 84
11, 96873, Control_c, 5, 11, 123
11, 96917, Control_c, 5, 11, 125
11, 96944, Note_on_c, 5, 48, 0
11, 96944, Note_on_c, 5, 60, 0
11, 96958, Control_c, 5, 11, 127
11, 96960, Note_on_c, 5, 60, 84
11, 96960, Note_on_c, 5, 48, 84
11, 97064, Note_on_c, 5, 60, 0
11, 97064, Note_on_c, 5, 48, 0
11, 97080, Note_on_c, 5, 65, 84
11, 97080, Note_on_c, 5, 53, 84
11, 97184, Note_on_c, 5, 65, 0
11, 97184, Note_on_c, 5, 53, 0
11, 97200, Note_on_c, 5, 65, 84
11, 97200, Note_on_c, 5, 53, 84
11, 97304, Note_on_c, 5, 65, 0
11, 97304, Note_on_c, 5, 53, 0
11, 97320, Note_on_c, 5, 53, 84
11, 97320, Note_on_c, 5, 65, 84
11, 97424, Note_on_c, 5, 53, 0
11, 97424, Note_on_c, 5, 65, 0
11, 97440, Note_on_c, 5, 65, 84
11, 97440, Note_on_c, 5, 53, 84
11, 97544, Note_on_c, 5, 65, 0
11, 97544, Note_on_c, 5, 53, 0
11, 97560, Note_on_c, 5, 53, 84
11, 97560, Note_on_c, 5, 65, 84
11, 97664, Note_on_c, 5, 53, 0
11, 97664, Note_on_c, 5, 65, 0
11, 97680, Note_on_c, 5, 53, 84
11, 97680, Note_on_c, 5, 65, 84
11, 97784, Note_on_c, 5, 53, 0
11, 97784, Note_on_c, 5, 65, 0
11, 97800, Note_on_c, 5, 65, 92
11, 97800, Note_on_c, 5, 53, 92
11, 97904, Note_on_c, 5, 65, 0
11, 97904, Note_on_c, 5, 53, 0
11, 97920, Note_on_c, 5, 65, 84
11, 98024, Note_on_c, 5, 65, 0
11, 98040, Note_on_c, 5, 67, 84
11, 98144, Note_on_c, 5, 67, 0
11, 98160, Note_on_c, 5, 69, 92
11, 98160, Note_on_c, 5, 57, 92
11, 98279, Note_on_c, 5, 69, 0
11, 98279, Note_on_c, 5, 57, 0
11, 98520, Note_on_c, 5, 69, 92
11, 98520, Note_on_c, 5, 57, 92
11, 98639, Note_on_c, 5, 69, 0
11, 98639, Note_on_c, 5, 57, 0
11, 98880, Note_on_c, 5, 69, 92
11, 98880, Note_on_c, 5, 57, 92
11, 98999, Note_on_c, 5, 69, 0
11, 98999, Note_on_c, 5, 57, 0
11, 99240, Note_on_c, 5, 69, 92
11, 99240, Note_on_c, 5, 57, 92
11, 99300, Control_c, 5, 11, 112
11, 99584, Note_on_c, 5, 69, 0
11, 99584, Note_on_c, 5, 57, 0
11, 99600, Note_on_c, 5, 67, 92
11, 99824, Note_on_c, 5, 67, 0
11, 99840, Note_on_c, 5, 48, 92
11, 99840, Note_on_c, 5, 60, 92
11, 99944, Note_on_c, 5, 48, 0
11, 99944, Note_on_c, 5, 60, 0
11, 99960, Note_on_c, 5, 60, 92
11, 99960, Note_on_c, 5, 48, 92
11, 100184, Note_on_c, 5, 60, 0
11, 100184, Note_on_c, 5, 48, 0
11, 100200, Note_on_c, 5, 48, 92
11, 100200, Note_on_c, 5, 60, 92
11, 100304, Note_on_c, 5, 48, 0
11, 100304, Note_on_c, 5, 60, 0
11, 100320, Note_on_c, 5, 60, 92
11, 100320, Note_on_c, 5, 48, 92
11, 100544, Note_on_c, 5, 60, 0
11, 100544, Note_on_c, 5, 48, 0
11, 100560, Note_on_c, 5, 48, 92
11, 100560, Note_on_c, 5, 60, 92
11, 100664, Note_on_c, 5, 48, 0
11, 100664, Note_on_c, 5, 60, 0
11, 100678, Control_c, 5, 11, 127
11, 100680, Note_on_c, 5, 65, 92
11, 100740, Control_c, 5, 11, 112
11, 101024, Note_on_c, 5, 65, 0
11, 101038, Control_c, 5, 11, 127
11, 101040, Note_on_c, 5, 65, 92
11, 101040, Note_on_c, 5, 67, 92
11, 101100, Control_c, 5, 11, 112
11, 101384, Note_on_c, 5, 65, 0
11, 101384, Note_on_c, 5, 67, 0
11, 101398, Control_c, 5, 11, 127
11, 101400, Note_on_c, 5, 69, 92
11, 101400, Note_on_c, 5, 65, 92
11, 101460, Control_c, 5, 11, 112
11, 101744, Note_on_c, 5, 69, 0
11, 101744, Note_on_c, 5, 65, 0
11, 101758, Control_c, 5, 11, 127
11, 101760, Note_on_c, 5, 67, 92
11, 101760, Note_on_c, 5, 60, 92
11, 101820, Control_c, 5, 11, 112
11, 102104, Note_on_c, 5, 67, 0
11, 102104, Note_on_c, 5, 60, 0
11, 102120, Note_on_c, 5, 65, 92
11, 102120, Note_on_c, 5, 69, 92
11, 102239, Note_on_c, 5, 65, 0
11, 102239, Note_on_c, 5, 69, 0
11, 102720, Note_on_c, 5, 60, 92
11, 102720, Note_on_c, 5, 48, 92
11, 102824, Note_on_c, 5, 60, 0
11, 102824, Note_on_c, 5, 48, 0
11, 102840, Note_on_c, 5, 48, 92
11, 102840, Note_on_c, 5, 60, 92
11, 103064, Note_on_c, 5, 48, 0
11, 103064, Note_on_c, 5, 60, 0
11, 103080, Note_on_c, 5, 60, 92
11, 103080, Note_on_c, 5, 48, 92
11, 103184, Note_on_c, 5, 60, 0
11, 103184, Note_on_c, 5, 48, 0
11, 103200, Note_on_c, 5, 48, 92
11, 103200, Note_on_c, 5, 60, 92
11, 103424, Note_on_c, 5, 48, 0
11, 103424, Note_on_c, 5, 60, 0
11, 103440, Note_on_c, 5, 60, 92
11, 103440, Note_on_c, 5, 67, 92
11, 103544, Note_on_c, 5, 60, 0
11, 103544, Note_on_c, 5, 67, 0
11, 103558, Control_c, 5, 11, 127
11, 103560, Note_on_c, 5, 53, 92
11, 103560, Note_on_c, 5, 65, 92
11, 103620, Control_c, 5, 11, 112
11, 103904, Note_on_c, 5, 53, 0
11, 103904, Note_on_c, 5, 65, 0
11, 103918, Control_c, 5, 11, 127
11, 103920, Note_on_c, 5, 53, 92
11, 103920, Note_on_c, 5, 65, 92
11, 103980, Control_c, 5, 11, 112
11, 104264, Note_on_c, 5, 53, 0
11, 104264, Note_on_c, 5, 65, 0
11, 104278, Control_c, 5, 11, 127
11, 104280, Note_on_c, 5, 65, 92
11, 104280, Note_on_c, 5, 53, 92
11, 104340, Control_c, 5, 11, 112
11, 104624, Note_on_c, 5, 65, 0
11, 104624, Note_on_c, 5, 53, 0
11, 104638, Control_c, 5, 11, 127
11, 104640, Note_on_c, 5, 60, 92
11, 104640, Note_on_c, 5, 48, 92
11, 104700, Control_c, 5, 11, 112
11, 104984, Note_on_c, 5, 60, 0
11, 104984, Note_on_c, 5, 48, 0
11, 104998, Control_c, 5, 11, 127
11, 105000, Note_on_c, 5, 53, 92
11, 105000, Note_on_c, 5, 65, 92
11, 105104, Note_on_c, 5, 53, 0
11, 105104, Note_on_c, 5, 65, 0
11, 105120, Note_on_c, 5, 65, 84
11, 105120, Note_on_c, 5, 69, 84
11, 105224, Note_on_c, 5, 65, 0
11, 105224, Note_on_c, 5, 69, 0
11, 105240, Note_on_c, 5, 65, 84
11, 105240, Note_on_c, 5, 69, 84
11, 105344, Note_on_c, 5, 65, 0
11, 105344, Note_on_c, 5, 69, 0
11, 105360, Note_on_c, 5, 72, 92
11, 105360, Note_on_c, 5, 69, 92
11, 105464, Note_on_c, 5, 72, 0
11, 105464, Note_on_c, 5, 69, 0
11, 105480, Note_on_c, 5, 69, 84
11, 105480, Note_on_c, 5, 65, 84
11, 105584, Note_on_c, 5, 69, 0
11, 105584, Note_on_c, 5, 65, 0
11, 105600, Note_on_c, 5, 69, 84
11, 105600, Note_on_c, 5, 65, 84
11, 105704, Note_on_c, 5, 69, 0
11, 105704, Note_on_c, 5, 65, 0
11, 105720, Note_on_c, 5, 72, 92
11, 105720, Note_on_c, 5, 69, 92
11, 105824, Note_on_c, 5, 72, 0
11, 105824, Note_on_c, 5, 69, 0
11, 105840, Note_on_c, 5, 69, 84
11, 105840, Note_on_c, 5, 65, 84
11, 105944, Note_on_c, 5, 69, 0
11, 105944, Note_on_c, 5, 65, 0
11, 105960, Note_on_c, 5, 65, 84
11, 105960, Note_on_c, 5, 69, 84
11, 106064, Note_on_c, 5, 65, 0
11, 106064, Note_on_c, 5, 69, 0
11, 106080, Note_on_c, 5, 67, 92
11, 106080, Note_on_c, 5, 70, 92
11, 106184, Note_on_c, 5, 67, 0
11, 106184, Note_on_c, 5, 70, 0
11, 106200, Note_on_c, 5, 60, 84
11, 106200, Note_on_c, 5, 67, 84
11, 106304, Note_on_c, 5, 60, 0
11, 106304, Note_on_c, 5, 67, 0
11, 106320, Note_on_c, 5, 67, 84
11, 106320, Note_on_c, 5, 60, 84
11, 106424, Note_on_c, 5, 67, 0
11, 106424, Note_on_c, 5, 60, 0
11, 106440, Note_on_c, 5, 69, 92
11, 106440, Note_on_c, 5, 72, 92
11, 106544, Note_on_c, 5, 69, 0
11, 106544, Note_on_c, 5, 72, 0
11, 106560, Note_on_c, 5, 65, 84
11, 106560, Note_on_c, 5, 69, 84
11, 106664, Note_on_c, 5, 65, 0
11, 106664, Note_on_c, 5, 69, 0
11, 106680, Note_on_c, 5, 65, 84
11, 106680, Note_on_c, 5, 69, 84
11, 106784, Note_on_c, 5, 65, 0
11, 106784, Note_on_c, 5, 69, 0
11, 106800, Note_on_c, 5, 69, 92
11, 106800, Note_on_c, 5, 72, 92
11, 106904, Note_on_c, 5, 69, 0
11, 106904, Note_on_c, 5, 72, 0
11, 106920, Note_on_c, 5, 65, 84
11, 106920, Note_on_c, 5, 69, 84
11, 107024, Note_on_c, 5, 65, 0
11, 107024, Note_on_c, 5, 69, 0
11, 107040, Note_on_c, 5, 69, 84
11, 107040, Note_on_c, 5, 65, 84
11, 107144, Note_on_c, 5, 69, 0
11, 107144, Note_on_c, 5, 65, 0
11, 107160, Note_on_c, 5, 72, 92
11, 107160, Note_on_c, 5, 69, 92
11, 107264, Note_on_c, 5, 72, 0
11, 107264, Note_on_c, 5, 69, 0
11, 107280, Note_on_c, 5, 65, 84
11, 107280, Note_on_c, 5, 69, 84
11, 107384, Note_on_c, 5, 65, 0
11, 107384, Note_on_c, 5, 69, 0
11, 107400, Note_on_c, 5, 65, 84
11, 107400, Note_on_c, 5, 69, 84
11, 107504, Note_on_c, 5, 65, 0
11, 107504, Note_on_c, 5, 69, 0
11, 107520, Note_on_c, 5, 70, 92
11, 107520, Note_on_c, 5, 67, 92
11, 107624, Note_on_c, 5, 70, 0
11, 107624, Note_on_c, 5, 67, 0
11, 107640, Note_on_c, 5, 60, 84
11, 107640, Note_on_c, 5, 67, 84
11, 107744, Note_on_c, 5, 60, 0
11, 107744, Note_on_c, 5, 67, 0
11, 107760, Note_on_c, 5, 60, 84
11, 107760, Note_on_c, 5, 67, 84
11, 107864, Note_on_c, 5, 60, 0
11, 107864, Note_on_c, 5, 67, 0
11, 107880, Note_on_c, 5, 69, 92
11, 107880, Note_on_c, 5, 72, 92
11, 107984, Note_on_c, 5, 69, 0
11, 107984, Note_on_c, 5, 72, 0
11, 108000, Note_on_c, 5, 69, 84
11, 108000, Note_on_c, 5, 65, 84
11, 108104, Note_on_c, 5, 69, 0
11, 108104, Note_on_c, 5, 65, 0
11, 108120, Note_on_c, 5, 69, 84
11, 108120, Note_on_c, 5, 65, 84
11, 108224, Note_on_c, 5, 69, 0
11, 108224, Note_on_c, 5, 65, 0
11, 108240, Note_on_c, 5, 69, 92
11, 108240, Note_on_c, 5, 72, 92
11, 108344, Note_on_c, 5, 69, 0
11, 108344, Note_on_c, 5, 72, 0
11, 108360, Note_on_c, 5, 69, 84
11, 108360, Note_on_c, 5, 65, 84
11, 108464, Note_on_c, 5, 69, 0
11, 108464, Note_on_c, 5, 65, 0
11, 108480, Note_on_c, 5, 65, 84
11, 108480, Note_on_c, 5, 69, 84
11, 108584, Note_on_c, 5, 65, 0
11, 108584, Note_on_c, 5, 69, 0
11, 108600, Note_on_c, 5, 72, 92
11, 108600, Note_on_c, 5, 69, 92
11, 108704, Note_on_c, 5, 72, 0
11, 108704, Note_on_c, 5, 69, 0
11, 108720, Note_on_c, 5, 65, 84
11, 108720, Note_on_c, 5, 69, 84
11, 108824, Note_on_c, 5, 65, 0
11, 108824, Note_on_c, 5, 69, 0
11, 108840, Note_on_c, 5, 69, 84
11, 108840, Note_on_c, 5, 65, 84
11, 108944, Note_on_c, 5, 69, 0
11, 108944, Note_on_c, 5, 65, 0
11, 108960, Note_on_c, 5, 69, 92
11, 108960, Note_on_c, 5, 72, 92
11, 109064, Note_on_c, 5, 69, 0
11, 109064, Note_on_c, 5, 72, 0
11, 109080, Note_on_c, 5, 69, 84
11, 109080, Note_on_c, 5, 65, 84
11, 109184, Note_on_c, 5, 69, 0
11, 109184, Note_on_c, 5, 65, 0
11, 109200, Note_on_c, 5, 69, 84
11, 109200, Note_on_c, 5, 65, 84
11, 109319, Note_on_c, 5, 69, 0
11, 109319, Note_on_c, 5, 65, 0
11, 125040, Control_c, 5, 11, 96
11, 125160, Control_c, 5, 11, 96
11, 125160, Note_on_c, 5, 60, 68
11, 125190, Control_c, 5, 11, 97
11, 125220, Control_c, 5, 11, 99
11, 125250, Control_c, 5, 11, 100
11, 125280, Control_c, 5, 11, 101
11, 125310, Control_c, 5, 11, 102
11, 125340, Control_c, 5, 11, 104
11, 125370, Control_c, 5, 11, 105
11, 125400, Control_c, 5, 11, 106
11, 125430, Control_c, 5, 11, 108
11, 125460, Control_c, 5, 11, 109
11, 125490, Control_c, 5, 11, 110
11, 125504, Note_on_c, 5, 60, 0
11, 125520, Note_on_c, 5, 70, 68
11, 125520, Note_on_c, 5, 48, 68
11, 125520, Control_c, 5, 11, 112
11, 125550, Control_c, 5, 11, 113
11, 125580, Control_c, 5, 11, 114
11, 125610, Control_c, 5, 11, 115
11, 125624, Note_on_c, 5, 70, 0
11, 125640, Control_c, 5, 11, 117
11, 125640, Note_on_c, 5, 67, 68
11, 125670, Control_c, 5, 11, 118
11, 125700, Control_c, 5, 11, 119
11, 125730, Control_c, 5, 11, 121
11, 125744, Note_on_c, 5, 67, 0
11, 125760, Control_c, 5, 11, 122
11, 125760, Note_on_c, 5, 67, 68
11, 125790, Control_c, 5, 11, 123
11, 125820, Control_c, 5, 11, 124
11, 125850, Control_c, 5, 11, 127
11, 125864, Note_on_c, 5, 48, 0
11, 125864, Note_on_c, 5, 67, 0
11, 125880, Note_on_c, 5, 53, 52
11, 125880, Note_on_c, 5, 69, 48
11, 125984, Note_on_c, 5, 69, 0
11, 125999, Note_on_c, 5, 53, 0
11, 126000, Note_on_c, 5, 69, 48
11, 126104, Note_on_c, 5, 69, 0
11, 126120, Note_on_c, 5, 72, 48
11, 126344, Note_on_c, 5, 72, 0
11, 126360, Note_on_c, 5, 69, 48
11, 126464, Note_on_c, 5, 69, 0
11, 126480, Note_on_c, 5, 65, 48
11, 126704, Note_on_c, 5, 65, 0
11, 126720, Note_on_c, 5, 60, 48
11, 126824, Note_on_c, 5, 60, 0
11, 126840, Note_on_c, 5, 67, 48
11, 127064, Note_on_c, 5, 67, 0
11, 127080, Note_on_c, 5, 65, 48
11, 127199, Note_on_c, 5, 65, 0
11, 127200, Note_on_c, 5, 67, 48
11, 127319, Note_on_c, 5, 67, 0
11, 127320, Note_on_c, 5, 69, 48
11, 127439, Note_on_c, 5, 69, 0
11, 127440, Note_on_c, 5, 67, 48
11, 127559, Note_on_c, 5, 67, 0
11, 127560, Note_on_c, 5, 65, 48
11, 127679, Note_on_c, 5, 65, 0
11, 127680, Note_on_c, 5, 67, 48
11, 127799, Note_on_c, 5, 67, 0
11, 127800, Note_on_c, 5, 69, 48
11, 127919, Note_on_c, 5, 69, 0
11, 127920, Note_on_c, 5, 70, 48
11, 128039, Note_on_c, 5, 70, 0
11, 128040, Note_on_c, 5, 69, 48
11, 128159, Note_on_c, 5, 69, 0
11, 128160, Note_on_c, 5, 70, 48
11, 128264, Note_on_c, 5, 70, 0
11, 128278, Control_c, 5, 11, 96
11, 128280, Note_on_c, 5, 72, 68
11, 128400, Control_c, 5, 11, 96
11, 128458, Control_c, 5, 11, 97
11, 128516, Control_c, 5, 11, 98
11, 128574, Control_c, 5, 11, 99
11, 128632, Control_c, 5, 11, 100
11, 128690, Control_c, 5, 11, 101
11, 128748, Control_c, 5, 11, 102
11, 128806, Control_c, 5, 11, 103
11, 128865, Control_c, 5, 11, 104
11, 128923, Control_c, 5, 11, 105
11, 128981, Control_c, 5, 11, 106
11, 129039, Control_c, 5, 11, 107
11, 129097, Control_c, 5, 11, 108
11, 129155, Control_c, 5, 11, 109
11, 129213, Control_c, 5, 11, 110
11, 129271, Control_c, 5, 11, 111
11, 129329, Control_c, 5, 11, 112
11, 129387, Control_c, 5, 11, 113
11, 129445, Control_c, 5, 11, 114
11, 129503, Control_c, 5, 11, 115
11, 129561, Control_c, 5, 11, 116
11, 129619, Control_c, 5, 11, 117
11, 129677, Control_c, 5, 11, 118
11, 129735, Control_c, 5, 11, 119
11, 129794, Control_c, 5, 11, 120
11, 129852, Control_c, 5, 11, 121
11, 129910, Control_c, 5, 11, 122
11, 129968, Control_c, 5, 11, 123
11, 130026, Control_c, 5, 11, 124
11, 130084, Control_c, 5, 11, 125
11, 130142, Control_c, 5, 11, 127
11, 130304, Note_on_c, 5, 72, 0
11, 130320, Note_on_c, 5, 69, 48
11, 130439, Note_on_c, 5, 69, 0
11, 130440, Note_on_c, 5, 70, 48
11, 130559, Note_on_c, 5, 70, 0
11, 130560, Note_on_c, 5, 72, 48
11, 130679, Note_on_c, 5, 72, 0
11, 130680, Note_on_c, 5, 70, 48
11, 130799, Note_on_c, 5, 70, 0
11, 130800, Note_on_c, 5, 69, 48
11, 130904, Note_on_c, 5, 69, 0
11, 130920, Note_on_c, 5, 67, 48
11, 131159, Note_on_c, 5, 67, 0
11, 131160, Note_on_c, 5, 69, 48
11, 131279, Note_on_c, 5, 69, 0
11, 131280, Note_on_c, 5, 70, 48
11, 131399, Note_on_c, 5, 70, 0
11, 131400, Note_on_c, 5, 67, 48
11, 131519, Note_on_c, 5, 67, 0
11, 131520, Note_on_c, 5, 69, 48
11, 131624, Note_on_c, 5, 69, 0
11, 131640, Note_on_c, 5, 65, 48
11, 131759, Note_on_c, 5, 65, 0
11, 131760, Note_on_c, 5, 69, 48
11, 131879, Note_on_c, 5, 69, 0
11, 131880, Note_on_c, 5, 70, 48
11, 131999, Note_on_c, 5, 70, 0
11, 132000, Note_on_c, 5, 72, 48
11, 132119, Note_on_c, 5, 72, 0
11, 132120, Note_on_c, 5, 70, 48
11, 132239, Note_on_c, 5, 70, 0
11, 132240, Note_on_c, 5, 69, 48
11, 132344, Note_on_c, 5, 69, 0
11, 132358, Control_c, 5, 11, 80
11, 132360, Note_on_c, 5, 67, 76
11, 132599, Note_on_c, 5, 67, 0
11, 132600, Note_on_c, 5, 69, 76
11, 132719, Note_on_c, 5, 69, 0
11, 132720, Note_on_c, 5, 70, 76
11, 132720, Note_on_c, 5, 48, 76
11, 132839, Note_on_c, 5, 70, 0
11, 132840, Note_on_c, 5, 67, 76
11, 132959, Note_on_c, 5, 67, 0
11, 132960, Note_on_c, 5, 69, 76
11, 133079, Note_on_c, 5, 69, 0
11, 133080, Note_on_c, 5, 65, 76
11, 133199, Note_on_c, 5, 65, 0
11, 133440, Note_on_c, 5, 69, 76
11, 133559, Note_on_c, 5, 69, 0
11, 133560, Note_on_c, 5, 72, 76
11, 133679, Note_on_c, 5, 72, 0
11, 133680, Note_on_c, 5, 70, 76
11, 133799, Note_on_c, 5, 70, 0
11, 134160, Note_on_c, 5, 67, 76
11, 134279, Note_on_c, 5, 67, 0
11, 134280, Note_on_c, 5, 70, 76
11, 134399, Note_on_c, 5, 70, 0
11, 134400, Note_on_c, 5, 69, 76
11, 134519, Note_on_c, 5, 48, 0
11, 134519, Note_on_c, 5, 69, 0
11, 134520, Note_on_c, 5, 48, 76
11, 134520, Note_on_c, 5, 65, 76
11, 134520, Control_c, 5, 11, 80
11, 134580, Control_c, 5, 11, 82
11, 134640, Control_c, 5, 11, 84
11, 134700, Control_c, 5, 11, 86
11, 134760, Control_c, 5, 11, 88
11, 134820, Control_c, 5, 11, 90
11, 134879, Note_on_c, 5, 65, 0
11, 134880, Control_c, 5, 11, 92
11, 134880, Note_on_c, 5, 72, 76
11, 134940, Control_c, 5, 11, 94
11, 135000, Control_c, 5, 11, 96
11, 135060, Control_c, 5, 11, 98
11, 135120, Control_c, 5, 11, 100
11, 135180, Control_c, 5, 11, 102
11, 135240, Control_c, 5, 11, 104
11, 135300, Control_c, 5, 11, 105
11, 135360, Control_c, 5, 11, 107
11, 135420, Control_c, 5, 11, 109
11, 135480, Control_c, 5, 11, 111
11, 135540, Control_c, 5, 11, 113
11, 135600, Control_c, 5, 11, 115
11, 135660, Control_c, 5, 11, 117
11, 135720, Control_c, 5, 11, 119
11, 135780, Control_c, 5, 11, 121
11, 135840, Control_c, 5, 11, 123
11, 135900, Control_c, 5, 11, 127
11, 135944, Note_on_c, 5, 48, 0
11, 135944, Note_on_c, 5, 72, 0
11, 135960, Note_on_c, 5, 53, 76
11, 135960, Note_on_c, 5, 65, 76
11, 136079, Note_on_c, 5, 53, 0
11, 136079, Note_on_c, 5, 65, 0
11, 137400, Note_on_c, 5, 53, 84
11, 137400, Note_on_c, 5, 65, 84
11, 137460, Control_c, 5, 11, 96
11, 137864, Note_on_c, 5, 53, 0
11, 137864, Note_on_c, 5, 65, 0
11, 137878, Control_c, 5, 11, 127
11, 137880, Note_on_c, 5, 53, 84
11, 137880, Note_on_c, 5, 65, 84
11, 137940, Control_c, 5, 11, 96
11, 138344, Note_on_c, 5, 53, 0
11, 138344, Note_on_c, 5, 65, 0
11, 138358, Control_c, 5, 11, 127
11, 138360, Note_on_c, 5, 65, 84
11, 138360, Note_on_c, 5, 53, 84
11, 138420, Control_c, 5, 11, 96
11, 138824, Note_on_c, 5, 65, 0
11, 138824, Note_on_c, 5, 53, 0
11, 138838, Control_c, 5, 11, 127
11, 138840, Note_on_c, 5, 53, 84
11, 138840, Note_on_c, 5, 65, 84
11, 138900, Control_c, 5, 11, 96
11, 139064, Note_on_c, 5, 53, 0
11, 139064, Note_on_c, 5, 65, 0
11, 139080, Note_on_c, 5, 65, 84
11, 139080, Note_on_c, 5, 53, 84
11, 139304, Note_on_c, 5, 65, 0
11, 139304, Note_on_c, 5, 53, 0
11, 139318, Control_c, 5, 11, 127
11, 139320, Note_on_c, 5, 53, 84
11, 139320, Note_on_c, 5, 65, 84
11, 139380, Control_c, 5, 11, 96
11, 139784, Note_on_c, 5, 53, 0
11, 139784, Note_on_c, 5, 65, 0
11, 139798, Control_c, 5, 11, 127
11, 139800, Note_on_c, 5, 53, 84
11, 139800, Note_on_c, 5, 65, 84
11, 139860, Control_c, 5, 11, 96
11, 140264, Note_on_c, 5, 53, 0
11, 140264, Note_on_c, 5, 65, 0
11, 140278, Control_c, 5, 11, 127
11, 140280, Note_on_c, 5, 65, 84
11, 140280, Note_on_c, 5, 53, 84
11, 140340, Control_c, 5, 11, 96
11, 140744, Note_on_c, 5, 65, 0
11, 140744, Note_on_c, 5, 53, 0
11, 140758, Control_c, 5, 11, 127
11, 140760, Note_on_c, 5, 65, 84
11, 140760, Note_on_c, 5, 53, 84
11, 140820, Control_c, 5, 11, 96
11, 140984, Note_on_c, 5, 65, 0
11, 140984, Note_on_c, 5, 53, 0
11, 141000, Note_on_c, 5, 53, 84
11, 141000, Note_on_c, 5, 65, 84
11, 141224, Note_on_c, 5, 53, 0
11, 141224, Note_on_c, 5, 65, 0
11, 141238, Control_c, 5, 11, 127
11, 141240, Note_on_c, 5, 65, 84
11, 141240, Note_on_c, 5, 53, 84
11, 141300, Control_c, 5, 11, 96
11, 141704, Note_on_c, 5, 65, 0
11, 141704, Note_on_c, 5, 53, 0
11, 141718, Control_c, 5, 11, 127
11, 141720, Note_on_c, 5, 53, 84
11, 141720, Note_on_c, 5, 65, 84
11, 141780, Control_c, 5, 11, 96
11, 142184, Note_on_c, 5, 53, 0
11, 142184, Note_on_c, 5, 65, 0
11, 142198, Control_c, 5, 11, 127
11, 142200, Note_on_c, 5, 53, 84
11, 142200, Note_on_c, 5, 65, 84
11, 142260, Control_c, 5, 11, 96
11, 142664, Note_on_c, 5, 53, 0
11, 142664, Note_on_c, 5, 65, 0
11, 142678, Control_c, 5, 11, 127
11, 142680, Note_on_c, 5, 53, 84
11, 142680, Note_on_c, 5, 65, 84
11, 142740, Control_c, 5, 11, 96
11, 142904, Note_on_c, 5, 53, 0
11, 142904, Note_on_c, 5, 65, 0
11, 142920, Note_on_c, 5, 53, 84
11, 142920, Note_on_c, 5, 65, 84
11, 143144, Note_on_c, 5, 53, 0
11, 143144, Note_on_c, 5, 65, 0
11, 143158, Control_c, 5, 11, 127
11, 143160, Note_on_c, 5, 53, 84
11, 143160, Note_on_c, 5, 65, 84
11, 143220, Control_c, 5, 11, 96
11, 143624, Note_on_c, 5, 53, 0
11, 143624, Note_on_c, 5, 65, 0
11, 143638, Control_c, 5, 11, 127
11, 143640, Note_on_c, 5, 65, 84
11, 143640, Note_on_c, 5, 53, 84
11, 143700, Control_c, 5, 11, 96
11, 144104, Note_on_c, 5, 65, 0
11, 144104, Note_on_c, 5, 53, 0
11, 144118, Control_c, 5, 11, 127
11, 144120, Note_on_c, 5, 53, 84
11, 144120, Note_on_c, 5, 65, 84
11, 144180, Control_c, 5, 11, 96
11, 144584, Note_on_c, 5, 53, 0
11, 144584, Note_on_c, 5, 65, 0
11, 144598, Control_c, 5, 11, 127
11, 144600, Note_on_c, 5, 53, 84
11, 144600, Note_on_c, 5, 65, 84
11, 144809, Note_on_c, 5, 53, 0
11, 144809, Note_on_c, 5, 65, 0
11, 144840, Note_on_c, 5, 65, 76
11, 144840, Note_on_c, 5, 53, 76
11, 145064, Note_on_c, 5, 65, 0
11, 145064, Note_on_c, 5, 53, 0
11, 146040, Note_on_c, 5, 65, 84
11, 146040, Note_on_c, 5, 69, 84
11, 146249, Note_on_c, 5, 65, 0
11, 146249, Note_on_c, 5, 69, 0
11, 146280, Note_on_c, 5, 65, 76
11, 146280, Note_on_c, 5, 57, 76
11, 146504, Note_on_c, 5, 65, 0
11, 146504, Note_on_c, 5, 57, 0
11, 146520, Note_on_c, 5, 67, 76
11, 146520, Note_on_c, 5, 60, 76
11, 146744, Note_on_c, 5, 67, 0
11, 146744, Note_on_c, 5, 60, 0
11, 146760, Note_on_c, 5, 65, 76
11, 146760, Note_on_c, 5, 57, 76
11, 146999, Note_on_c, 5, 65, 0
11, 146999, Note_on_c, 5, 57, 0
11, 147960, Note_on_c, 5, 65, 76
11, 147960, Note_on_c, 5, 69, 76
11, 148184, Note_on_c, 5, 65, 0
11, 148184, Note_on_c, 5, 69, 0
11, 148200, Note_on_c, 5, 57, 76
11, 148200, Note_on_c, 5, 65, 76
11, 148424, Note_on_c, 5, 57, 0
11, 148424, Note_on_c, 5, 65, 0
11, 148440, Note_on_c, 5, 60, 76
11, 148440, Note_on_c, 5, 67, 76
11, 148664, Note_on_c, 5, 60, 0
11, 148664, Note_on_c, 5, 67, 0
11, 148680, Note_on_c, 5, 65, 76
11, 148680, Note_on_c, 5, 57, 76
11, 148904, Note_on_c, 5, 65, 0
11, 148904, Note_on_c, 5, 57, 0
11, 148920, Note_on_c, 5, 48, 84
11, 148920, Note_on_c, 5, 60, 84
11, 149144, Note_on_c, 5, 48, 0
11, 149144, Note_on_c, 5, 60, 0
11, 149160, Note_on_c, 5, 67, 84
11, 149384, Note_on_c, 5, 67, 0
11, 149400, Note_on_c, 5, 48, 84
11, 149400, Note_on_c, 5, 60, 84
11, 149744, Note_on_c, 5, 48, 0
11, 149744, Note_on_c, 5, 60, 0
11, 149760, Note_on_c, 5, 60, 84
11, 149760, Note_on_c, 5, 48, 84
11, 149864, Note_on_c, 5, 60, 0
11, 149864, Note_on_c, 5, 48, 0
11, 149880, Note_on_c, 5, 48, 84
11, 149880, Note_on_c, 5, 60, 84
11, 149999, Note_on_c, 5, 48, 0
11, 149999, Note_on_c, 5, 60, 0
11, 150120, Note_on_c, 5, 48, 84
11, 150120, Note_on_c, 5, 60, 84
11, 150239, Note_on_c, 5, 48, 0
11, 150239, Note_on_c, 5, 60, 0
11, 150360, Note_on_c, 5, 60, 84
11, 150360, Note_on_c, 5, 48, 84
11, 150479, Note_on_c, 5, 60, 0
11, 150479, Note_on_c, 5, 48, 0
11, 150600, Note_on_c, 5, 67, 84
11, 150719, Note_on_c, 5, 67, 0
11, 150840, Note_on_c, 5, 60, 84
11, 150840, Note_on_c, 5, 48, 84
11, 150944, Note_on_c, 5, 60, 0
11, 150944, Note_on_c, 5, 48, 0
11, 150960, Note_on_c, 5, 60, 84
11, 150960, Note_on_c, 5, 48, 84
11, 151064, Note_on_c, 5, 60, 0
11, 151064, Note_on_c, 5, 48, 0
11, 151080, Note_on_c, 5, 67, 84
11, 151184, Note_on_c, 5, 67, 0
11, 151200, Note_on_c, 5, 67, 84
11, 151304, Note_on_c, 5, 67, 0
11, 151320, Note_on_c, 5, 60, 84
11, 151320, Note_on_c, 5, 48, 84
11, 151424, Note_on_c, 5, 60, 0
11, 151424, Note_on_c, 5, 48, 0
11, 151440, Note_on_c, 5, 48, 84
11, 151440, Note_on_c, 5, 60, 84
11, 151559, Note_on_c, 5, 48, 0
11, 151559, Note_on_c, 5, 60, 0
11, 151680, Note_on_c, 5, 48, 84
11, 151680, Note_on_c, 5, 60, 84
11, 151784, Note_on_c, 5, 48, 0
11, 151784, Note_on_c, 5, 60, 0
11, 151800, Note_on_c, 5, 60, 84
11, 151800, Note_on_c, 5, 48, 84
11, 151904, Note_on_c, 5, 60, 0
11, 151904, Note_on_c, 5, 48, 0
11, 151920, Note_on_c, 5, 48, 84
11, 151920, Note_on_c, 5, 60, 84
11, 152039, Note_on_c, 5, 48, 0
11, 152039, Note_on_c, 5, 60, 0
11, 152160, Note_on_c, 5, 48, 84
11, 152160, Note_on_c, 5, 60, 84
11, 152279, Note_on_c, 5, 48, 0
11, 152279, Note_on_c, 5, 60, 0
11, 152400, Note_on_c, 5, 48, 84
11, 152400, Note_on_c, 5, 60, 84
11, 152519, Note_on_c, 5, 48, 0
11, 152519, Note_on_c, 5, 60, 0
11, 152640, Note_on_c, 5, 67, 84
11, 152744, Note_on_c, 5, 67, 0
11, 152758, Control_c, 5, 11, 112
11, 152760, Note_on_c, 5, 48, 92
11, 152760, Control_c, 5, 11, 112
11, 152760, Note_on_c, 5, 60, 92
11, 152952, Control_c, 5, 11, 113
11, 153104, Note_on_c, 5, 48, 0
11, 153104, Note_on_c, 5, 60, 0
11, 153120, Note_on_c, 5, 60, 92
11, 153120, Note_on_c, 5, 48, 92
11, 153144, Control_c, 5, 11, 114
11, 153224, Note_on_c, 5, 60, 0
11, 153224, Note_on_c, 5, 48, 0
11, 153240, Note_on_c, 5, 60, 92
11, 153240, Note_on_c, 5, 48, 92
11, 153336, Control_c, 5, 11, 115
11, 153528, Control_c, 5, 11, 116
11, 153584, Note_on_c, 5, 60, 0
11, 153584, Note_on_c, 5, 48, 0
11, 153600, Note_on_c, 5, 48, 92
11, 153600, Note_on_c, 5, 60, 92
11, 153704, Note_on_c, 5, 48, 0
11, 153704, Note_on_c, 5, 60, 0
11, 153720, Control_c, 5, 11, 117
11, 153720, Note_on_c, 5, 48, 92
11, 153720, Note_on_c, 5, 60, 92
11, 153912, Control_c, 5, 11, 118
11, 154064, Note_on_c, 5, 48, 0
11, 154064, Note_on_c, 5, 60, 0
11, 154080, Note_on_c, 5, 48, 92
11, 154080, Note_on_c, 5, 60, 92
11, 154104, Control_c, 5, 11, 119
11, 154184, Note_on_c, 5, 48, 0
11, 154184, Note_on_c, 5, 60, 0
11, 154200, Note_on_c, 5, 60, 92
11, 154200, Note_on_c, 5, 48, 92
11, 154296, Control_c, 5, 11, 120
11, 154488, Control_c, 5, 11, 121
11, 154544, Note_on_c, 5, 60, 0
11, 154544, Note_on_c, 5, 48, 0
11, 154560, Note_on_c, 5, 48, 92
11, 154560, Note_on_c, 5, 60, 92
11, 154664, Note_on_c, 5, 48, 0
11, 154664, Note_on_c, 5, 60, 0
11, 154680, Note_on_c, 5, 48, 92
11, 154680, Note_on_c, 5, 60, 92
11, 154680, Control_c, 5, 11, 122
11, 154784, Note_on_c, 5, 48, 0
11, 154784, Note_on_c, 5, 60, 0
11, 154800, Note_on_c, 5, 60, 92
11, 154800, Note_on_c, 5, 48, 92
11, 154872, Control_c, 5, 11, 123
11, 154904, Note_on_c, 5, 60, 0
11, 154904, Note_on_c, 5, 48, 0
11, 154920, Note_on_c, 5, 48, 92
11, 154920, Note_on_c, 5, 60, 92
11, 155024, Note_on_c, 5, 48, 0
11, 155024, Note_on_c, 5, 60, 0
11, 155040, Note_on_c, 5, 48, 92
11, 155040, Note_on_c, 5, 60, 92
11, 155064, Control_c, 5, 11, 124
11, 155144, Note_on_c, 5, 48, 0
11, 155144, Note_on_c, 5, 60, 0
11, 155160, Note_on_c, 5, 60, 92
11, 155160, Note_on_c, 5, 48, 92
11, 155256, Control_c, 5, 11, 125
11, 155264, Note_on_c, 5, 60, 0
11, 155264, Note_on_c, 5, 48, 0
11, 155280, Note_on_c, 5, 60, 92
11, 155280, Note_on_c, 5, 48, 92
11, 155384, Note_on_c, 5, 60, 0
11, 155384, Note_on_c, 5, 48, 0
11, 155400, Note_on_c, 5, 48, 92
11, 155400, Note_on_c, 5, 60, 92
11, 155448, Control_c, 5, 11, 127
11, 155504, Note_on_c, 5, 48, 0
11, 155504, Note_on_c, 5, 60, 0
11, 155520, Note_on_c, 5, 48, 92
11, 155520, Note_on_c, 5, 60, 92
11, 155624, Note_on_c, 5, 48, 0
11, 155624, Note_on_c, 5, 60, 0
11, 155640, Note_on_c, 5, 48, 84
11, 155640, Note_on_c, 5, 60, 84
11, 155759, Note_on_c, 5, 48, 0
11, 155759, Note_on_c, 5, 60, 0
11, 161520, Note_on_c, 5, 67, 72
11, 161639, Note_on_c, 5, 67, 0
11, 161640, Note_on_c, 5, 69, 76
11, 161640, Note_on_c, 5, 65, 76
11, 161759, Note_on_c, 5, 69, 0
11, 161759, Note_on_c, 5, 65, 0
11, 162360, Note_on_c, 5, 67, 52
11, 162360, Note_on_c, 5, 60, 52
11, 162479, Note_on_c, 5, 67, 0
11, 162479, Note_on_c, 5, 60, 0
11, 162960, Note_on_c, 5, 48, 48
11, 162960, Note_on_c, 5, 60, 48
11, 163064, Note_on_c, 5, 48, 0
11, 163064, Note_on_c, 5, 60, 0
11, 163080, Note_on_c, 5, 53, 48
11, 163080, Note_on_c, 5, 41, 48
11, 163304, Note_on_c, 5, 53, 0
11, 163304, Note_on_c, 5, 41, 0
11, 163320, Note_on_c, 5, 53, 48
11, 163320, Note_on_c, 5, 41, 48
11, 163664, Note_on_c, 5, 53, 0
11, 163664, Note_on_c, 5, 41, 0
11, 163680, Note_on_c, 5, 53, 48
11, 163680, Note_on_c, 5, 41, 48
11, 164024, Note_on_c, 5, 53, 0
11, 164024, Note_on_c, 5, 41, 0
11, 164040, Note_on_c, 5, 53, 48
11, 164040, Note_on_c, 5, 41, 48
11, 164384, Note_on_c, 5, 53, 0
11, 164384, Note_on_c, 5, 41, 0
11, 164400, Note_on_c, 5, 41, 48
11, 164400, Note_on_c, 5, 53, 48
11, 164744, Note_on_c, 5, 41, 0
11, 164744, Note_on_c, 5, 53, 0
11, 164760, Note_on_c, 5, 41, 48
11, 164760, Note_on_c, 5, 53, 48
11, 165104, Note_on_c, 5, 41, 0
11, 165104, Note_on_c, 5, 53, 0
11, 165120, Note_on_c, 5, 53, 48
11, 165120, Note_on_c, 5, 41, 48
11, 165464, Note_on_c, 5, 53, 0
11, 165464, Note_on_c, 5, 41, 0
11, 165480, Note_on_c, 5, 53, 48
11, 165480, Note_on_c, 5, 41, 48
11, 165824, Note_on_c, 5, 53, 0
11, 165824, Note_on_c, 5, 41, 0
11, 165838, Control_c, 5, 11, 64
11, 165840, Note_on_c, 5, 41, 84
11, 165840, Note_on_c, 5, 53, 84
11, 165960, Control_c, 5, 11, 64
11, 166015, Control_c, 5, 11, 67
11, 166070, Control_c, 5, 11, 69
11, 166125, Control_c, 5, 11, 72
11, 166180, Control_c, 5, 11, 75
11, 166184, Note_on_c, 5, 41, 0
11, 166184, Note_on_c, 5, 53, 0
11, 166200, Note_on_c, 5, 53, 84
11, 166200, Note_on_c, 5, 41, 84
11, 166235, Control_c, 5, 11, 77
11, 166290, Control_c, 5, 11, 80
11, 166345, Control_c, 5, 11, 82
11, 166400, Control_c, 5, 11, 85
11, 166455, Control_c, 5, 11, 88
11, 166510, Control_c, 5, 11, 90
11, 166544, Note_on_c, 5, 53, 0
11, 166544, Note_on_c, 5, 41, 0
11, 166560, Note_on_c, 5, 53, 84
11, 166560, Note_on_c, 5, 41, 84
11, 166565, Control_c, 5, 11, 93
11, 166620, Control_c, 5, 11, 96
11, 166675, Control_c, 5, 11, 98
11, 166730, Control_c, 5, 11, 101
11, 166785, Control_c, 5, 11, 103
11, 166840, Control_c, 5, 11, 106
11, 166895, Control_c, 5, 11, 109
11, 166904, Note_on_c, 5, 53, 0
11, 166904, Note_on_c, 5, 41, 0
11, 166920, Note_on_c, 5, 53, 84
11, 166920, Note_on_c, 5, 41, 84
11, 166950, Control_c, 5, 11, 111
11, 167005, Control_c, 5, 11, 114
11, 167060, Control_c, 5, 11, 117
11, 167115, Control_c, 5, 11, 119
11, 167170, Control_c, 5, 11, 122
11, 167225, Control_c, 5, 11, 124
11, 167264, Note_on_c, 5, 53, 0
11, 167264, Note_on_c, 5, 41, 0
11, 167278, Control_c, 5, 11, 127
11, 167280, Note_on_c, 5, 60, 84
11, 167280, Note_on_c, 5, 48, 84
11, 167379, Note_on_c, 5, 60, 0
11, 167379, Note_on_c, 5, 48, 0
11, 167400, Note_on_c, 5, 65, 84
11, 167400, Note_on_c, 5, 53, 84
11, 167499, Note_on_c, 5, 65, 0
11, 167499, Note_on_c, 5, 53, 0
11, 167520, Note_on_c, 5, 65, 84
11, 167520, Note_on_c, 5, 53, 84
11, 167619, Note_on_c, 5, 65, 0
11, 167619, Note_on_c, 5, 53, 0
11, 167640, Note_on_c, 5, 65, 84
11, 167640, Note_on_c, 5, 53, 84
11, 167739, Note_on_c, 5, 65, 0
11, 167739, Note_on_c, 5, 53, 0
11, 167760, Note_on_c, 5, 53, 84
11, 167760, Note_on_c, 5, 65, 84
11, 167859, Note_on_c, 5, 53, 0
11, 167859, Note_on_c, 5, 65, 0
11, 167880, Note_on_c, 5, 65, 84
11, 167880, Note_on_c, 5, 53, 84
11, 167979, Note_on_c, 5, 65, 0
11, 167979, Note_on_c, 5, 53, 0
11, 168000, Note_on_c, 5, 65, 84
11, 168000, Note_on_c, 5, 53, 84
11, 168099, Note_on_c, 5, 65, 0
11, 168099, Note_on_c, 5, 53, 0
11, 168120, Note_on_c, 5, 53, 92
11, 168120, Note_on_c, 5, 65, 92
11, 168219, Note_on_c, 5, 53, 0
11, 168219, Note_on_c, 5, 65, 0
11, 168240, Note_on_c, 5, 65, 84
11, 168339, Note_on_c, 5, 65, 0
11, 168360, Note_on_c, 5, 67, 84
11, 168459, Note_on_c, 5, 67, 0
11, 168480, Note_on_c, 5, 69, 92
11, 168480, Note_on_c, 5, 57, 92
11, 168599, Note_on_c, 5, 69, 0
11, 168599, Note_on_c, 5, 57, 0
11, 168840, Note_on_c, 5, 69, 92
11, 168840, Note_on_c, 5, 57, 92
11, 168959, Note_on_c, 5, 69, 0
11, 168959, Note_on_c, 5, 57, 0
11, 169200, Note_on_c, 5, 69, 92
11, 169200, Note_on_c, 5, 57, 92
11, 169319, Note_on_c, 5, 69, 0
11, 169319, Note_on_c, 5, 57, 0
11, 169560, Note_on_c, 5, 69, 92
11, 169560, Note_on_c, 5, 57, 92
11, 169620, Control_c, 5, 11, 112
11, 169899, Note_on_c, 5, 69, 0
11, 169899, Note_on_c, 5, 57, 0
11, 169920, Note_on_c, 5, 67, 92
11, 170139, Note_on_c, 5, 67, 0
11, 170160, Note_on_c, 5, 48, 92
11, 170160, Note_on_c, 5, 60, 92
11, 170259, Note_on_c, 5, 48, 0
11, 170259, Note_on_c, 5, 60, 0
11, 170280, Note_on_c, 5, 48, 92
11, 170280, Note_on_c, 5, 60, 92
11, 170499, Note_on_c, 5, 48, 0
11, 170499, Note_on_c, 5, 60, 0
11, 170520, Note_on_c, 5, 48, 92
11, 170520, Note_on_c, 5, 60, 92
11, 170619, Note_on_c, 5, 48, 0
11, 170619, Note_on_c, 5, 60, 0
11, 170640, Note_on_c, 5, 60, 92
11, 170640, Note_on_c, 5, 48, 92
11, 170859, Note_on_c, 5, 60, 0
11, 170859, Note_on_c, 5, 48, 0
11, 170880, Note_on_c, 5, 60, 92
11, 170880, Note_on_c, 5, 48, 92
11, 170979, Note_on_c, 5, 60, 0
11, 170979, Note_on_c, 5, 48, 0
11, 170998, Control_c, 5, 11, 127
11, 171000, Note_on_c, 5, 65, 92
11, 171060, Control_c, 5, 11, 112
11, 171339, Note_on_c, 5, 65, 0
11, 171358, Control_c, 5, 11, 127
11, 171360, Note_on_c, 5, 65, 92
11, 171360, Note_on_c, 5, 67, 92
11, 171420, Control_c, 5, 11, 112
11, 171699, Note_on_c, 5, 65, 0
11, 171699, Note_on_c, 5, 67, 0
11, 171718, Control_c, 5, 11, 127
11, 171720, Note_on_c, 5, 65, 92
11, 171720, Note_on_c, 5, 69, 92
11, 171780, Control_c, 5, 11, 112
11, 172059, Note_on_c, 5, 65, 0
11, 172059, Note_on_c, 5, 69, 0
11, 172080, Note_on_c, 5, 67, 92
11, 172080, Note_on_c, 5, 60, 92
11, 172419, Note_on_c, 5, 67, 0
11, 172419, Note_on_c, 5, 60, 0
11, 172438, Control_c, 5, 11, 127
11, 172440, Note_on_c, 5, 65, 84
11, 172440, Note_on_c, 5, 69, 84
11, 172539, Note_on_c, 5, 65, 0
11, 172539, Note_on_c, 5, 69, 0
11, 173040, Note_on_c, 5, 60, 84
11, 173040, Note_on_c, 5, 48, 84
11, 173139, Note_on_c, 5, 60, 0
11, 173139, Note_on_c, 5, 48, 0
11, 173160, Note_on_c, 5, 60, 84
11, 173160, Note_on_c, 5, 48, 84
11, 173379, Note_on_c, 5, 60, 0
11, 173379, Note_on_c, 5, 48, 0
11, 173400, Note_on_c, 5, 60, 84
11, 173400, Note_on_c, 5, 48, 84
11, 173499, Note_on_c, 5, 60, 0
11, 173499, Note_on_c, 5, 48, 0
11, 173520, Note_on_c, 5, 60, 84
11, 173520, Note_on_c, 5, 48, 84
11, 173739, Note_on_c, 5, 60, 0
11, 173739, Note_on_c, 5, 48, 0
11, 173760, Note_on_c, 5, 67, 84
11, 173760, Note_on_c, 5, 60, 84
11, 173859, Note_on_c, 5, 67, 0
11, 173859, Note_on_c, 5, 60, 0
11, 173880, Note_on_c, 5, 65, 92
11, 173880, Note_on_c, 5, 53, 92
11, 173940, Control_c, 5, 11, 112
11, 174219, Note_on_c, 5, 65, 0
11, 174219, Note_on_c, 5, 53, 0
11, 174238, Control_c, 5, 11, 127
11, 174240, Note_on_c, 5, 65, 92
11, 174240, Note_on_c, 5, 53, 92
11, 174300, Control_c, 5, 11, 112
11, 174579, Note_on_c, 5, 65, 0
11, 174579, Note_on_c, 5, 53, 0
11, 174598, Control_c, 5, 11, 127
11, 174600, Note_on_c, 5, 65, 92
11, 174600, Note_on_c, 5, 53, 92
11, 174660, Control_c, 5, 11, 112
11, 174939, Note_on_c, 5, 65, 0
11, 174939, Note_on_c, 5, 53, 0
11, 174958, Control_c, 5, 11, 127
11, 174960, Note_on_c, 5, 60, 92
11, 174960, Note_on_c, 5, 48, 92
11, 175020, Control_c, 5, 11, 112
11, 175299, Note_on_c, 5, 60, 0
11, 175299, Note_on_c, 5, 48, 0
11, 175318, Control_c, 5, 11, 127
11, 175320, Note_on_c, 5, 65, 92
11, 175320, Note_on_c, 5, 53, 92
11, 175419, Note_on_c, 5, 65, 0
11, 175419, Note_on_c, 5, 53, 0
11, 175440, Note_on_c, 5, 69, 84
11, 175440, Note_on_c, 5, 65, 84
11, 175539, Note_on_c, 5, 69, 0
11, 175539, Note_on_c, 5, 65, 0
11, 175560, Note_on_c, 5, 69, 84
11, 175560, Note_on_c, 5, 65, 84
11, 175659, Note_on_c, 5, 69, 0
11, 175659, Note_on_c, 5, 65, 0
11, 175680, Note_on_c, 5, 72, 92
11, 175680, Note_on_c, 5, 69, 92
11, 175779, Note_on_c, 5, 72, 0
11, 175779, Note_on_c, 5, 69, 0
11, 175800, Note_on_c, 5, 69, 84
11, 175800, Note_on_c, 5, 65, 84
11, 175899, Note_on_c, 5, 69, 0
11, 175899, Note_on_c, 5, 65, 0
11, 175920, Note_on_c, 5, 69, 84
11, 175920, Note_on_c, 5, 65, 84
11, 176019, Note_on_c, 5, 69, 0
11, 176019, Note_on_c, 5, 65, 0
11, 176040, Note_on_c, 5, 72, 92
11, 176040, Note_on_c, 5, 69, 92
11, 176139, Note_on_c, 5, 72, 0
11, 176139, Note_on_c, 5, 69, 0
11, 176160, Note_on_c, 5, 69, 84
11, 176160, Note_on_c, 5, 65, 84
11, 176259, Note_on_c, 5, 69, 0
11, 176259, Note_on_c, 5, 65, 0
11, 176280, Note_on_c, 5, 69, 84
11, 176280, Note_on_c, 5, 65, 84
11, 176379, Note_on_c, 5, 69, 0
11, 176379, Note_on_c, 5, 65, 0
11, 176400, Note_on_c, 5, 70, 92
11, 176400, Note_on_c, 5, 67, 92
11, 176499, Note_on_c, 5, 70, 0
11, 176499, Note_on_c, 5, 67, 0
11, 176520, Note_on_c, 5, 67, 84
11, 176520, Note_on_c, 5, 60, 84
11, 176619, Note_on_c, 5, 67, 0
11, 176619, Note_on_c, 5, 60, 0
11, 176640, Note_on_c, 5, 67, 84
11, 176640, Note_on_c, 5, 60, 84
11, 176739, Note_on_c, 5, 67, 0
11, 176739, Note_on_c, 5, 60, 0
11, 176760, Note_on_c, 5, 69, 92
11, 176760, Note_on_c, 5, 72, 92
11, 176859, Note_on_c, 5, 69, 0
11, 176859, Note_on_c, 5, 72, 0
11, 176880, Note_on_c, 5, 69, 84
11, 176880, Note_on_c, 5, 65, 84
11, 176979, Note_on_c, 5, 69, 0
11, 176979, Note_on_c, 5, 65, 0
11, 177000, Note_on_c, 5, 69, 84
11, 177000, Note_on_c, 5, 65, 84
11, 177099, Note_on_c, 5, 69, 0
11, 177099, Note_on_c, 5, 65, 0
11, 177120, Note_on_c, 5, 72, 92
11, 177120, Note_on_c, 5, 69, 92
11, 177219, Note_on_c, 5, 72, 0
11, 177219, Note_on_c, 5, 69, 0
11, 177240, Note_on_c, 5, 69, 84
11, 177240, Note_on_c, 5, 65, 84
11, 177339, Note_on_c, 5, 69, 0
11, 177339, Note_on_c, 5, 65, 0
11, 177360, Note_on_c, 5, 69, 84
11, 177360, Note_on_c, 5, 65, 84
11, 177459, Note_on_c, 5, 69, 0
11, 177459, Note_on_c, 5, 65, 0
11, 177480, Note_on_c, 5, 72, 92
11, 177480, Note_on_c, 5, 69, 92
11, 177579, Note_on_c, 5, 72, 0
11, 177579, Note_on_c, 5, 69, 0
11, 177600, Note_on_c, 5, 69, 84
11, 177600, Note_on_c, 5, 65, 84
11, 177699, Note_on_c, 5, 69, 0
11, 177699, Note_on_c, 5, 65, 0
11, 177720, Note_on_c, 5, 69, 84
11, 177720, Note_on_c, 5, 65, 84
11, 177819, Note_on_c, 5, 69, 0
11, 177819, Note_on_c, 5, 65, 0
11, 177840, Note_on_c, 5, 70, 92
11, 177840, Note_on_c, 5, 67, 92
11, 177939, Note_on_c, 5, 70, 0
11, 177939, Note_on_c, 5, 67, 0
11, 177960, Note_on_c, 5, 67, 84
11, 177960, Note_on_c, 5, 60, 84
11, 178059, Note_on_c, 5, 67, 0
11, 178059, Note_on_c, 5, 60, 0
11, 178080, Note_on_c, 5, 67, 84
11, 178080, Note_on_c, 5, 60, 84
11, 178199, Note_on_c, 5, 67, 0
11, 178199, Note_on_c, 5, 60, 0
11, 178199, End_track
12, 0, Start_track
12, 0, Title_t, "Trumpet in C"
12, 0, MIDI_port, 0
12, 0, Program_c, 6, 56
12, 0, Control_c, 6, 7, 96
12, 0, Control_c, 6, 10, 60
12, 0, Control_c, 6, 11, 127
12, 66840, Note_on_c, 6, 60, 84
12, 66840, Note_on_c, 6, 72, 84
12, 66900, Control_c, 6, 11, 96
12, 67304, Note_on_c, 6, 60, 0
12, 67304, Note_on_c, 6, 72, 0
12, 67318, Control_c, 6, 11, 127
12, 67320, Note_on_c, 6, 60, 84
12, 67320, Note_on_c, 6, 72, 84
12, 67380, Control_c, 6, 11, 96
12, 67784, Note_on_c, 6, 60, 0
12, 67784, Note_on_c, 6, 72, 0
12, 67798, Control_c, 6, 11, 127
12, 67800, Note_on_c, 6, 72, 84
12, 67800, Note_on_c, 6, 60, 84
12, 67860, Control_c, 6, 11, 96
12, 68264, Note_on_c, 6, 72, 0
12, 68264, Note_on_c, 6, 60, 0
12, 68278, Control_c, 6, 11, 127
12, 68280, Note_on_c, 6, 60, 76
12, 68280, Note_on_c, 6, 72, 76
12, 68504, Note_on_c, 6, 60, 0
12, 68504, Note_on_c, 6, 72, 0
12, 68520, Note_on_c, 6, 60, 76
12, 68520, Note_on_c, 6, 72, 76
12, 68744, Note_on_c, 6, 60, 0
12, 68744, Note_on_c, 6, 72, 0
12, 68760, Note_on_c, 6, 72, 76
12, 68760, Note_on_c, 6, 60, 76
12, 69224, Note_on_c, 6, 72, 0
12, 69224, Note_on_c, 6, 60, 0
12, 69240, Note_on_c, 6, 60, 76
12, 69240, Note_on_c, 6, 72, 76
12, 69704, Note_on_c, 6, 60, 0
12, 69704, Note_on_c, 6, 72, 0
12, 69720, Note_on_c, 6, 60, 76
12, 69720, Note_on_c, 6, 72, 76
12, 70184, Note_on_c, 6, 60, 0
12, 70184, Note_on_c, 6, 72, 0
12, 70200, Note_on_c, 6, 72, 76
12, 70200, Note_on_c, 6, 60, 76
12, 70424, Note_on_c, 6, 72, 0
12, 70424, Note_on_c, 6, 60, 0
12, 70440, Note_on_c, 6, 72, 76
12, 70440, Note_on_c, 6, 60, 76
12, 70664, Note_on_c, 6, 72, 0
12, 70664, Note_on_c, 6, 60, 0
12, 70680, Note_on_c, 6, 72, 84
12, 70680, Note_on_c, 6, 60, 84
12, 70904, Note_on_c, 6, 72, 0
12, 70904, Note_on_c, 6, 60, 0
12, 70920, Note_on_c, 6, 55, 84
12, 70920, Note_on_c, 6, 67, 84
12, 71144, Note_on_c, 6, 55, 0
12, 71144, Note_on_c, 6, 67, 0
12, 71160, Note_on_c, 6, 60, 84
12, 71160, Note_on_c, 6, 72, 84
12, 71504, Note_on_c, 6, 60, 0
12, 71504, Note_on_c, 6, 72, 0
12, 71520, Note_on_c, 6, 60, 84
12, 71520, Note_on_c, 6, 72, 84
12, 71624, Note_on_c, 6, 60, 0
12, 71624, Note_on_c, 6, 72, 0
12, 71640, Note_on_c, 6, 60, 84
12, 71640, Note_on_c, 6, 72, 84
12, 71759, Note_on_c, 6, 60, 0
12, 71759, Note_on_c, 6, 72, 0
12, 71880, Note_on_c, 6, 72, 84
12, 71880, Note_on_c, 6, 60, 84
12, 71999, Note_on_c, 6, 72, 0
12, 71999, Note_on_c, 6, 60, 0
12, 72120, Note_on_c, 6, 60, 84
12, 72120, Note_on_c, 6, 72, 84
12, 72239, Note_on_c, 6, 60, 0
12, 72239, Note_on_c, 6, 72, 0
12, 72360, Note_on_c, 6, 55, 84
12, 72360, Note_on_c, 6, 67, 84
12, 72479, Note_on_c, 6, 55, 0
12, 72479, Note_on_c, 6, 67, 0
12, 72600, Note_on_c, 6, 72, 84
12, 72600, Note_on_c, 6, 60, 84
12, 72704, Note_on_c, 6, 72, 0
12, 72704, Note_on_c, 6, 60, 0
12, 72720, Note_on_c, 6, 60, 84
12, 72720, Note_on_c, 6, 72, 84
12, 72824, Note_on_c, 6, 60, 0
12, 72824, Note_on_c, 6, 72, 0
12, 72840, Note_on_c, 6, 55, 84
12, 72840, Note_on_c, 6, 67, 84
12, 72944, Note_on_c, 6, 55, 0
12, 72944, Note_on_c, 6, 67, 0
12, 72960, Note_on_c, 6, 67, 84
12, 72960, Note_on_c, 6, 55, 84
12, 73064, Note_on_c, 6, 67, 0
12, 73064, Note_on_c, 6, 55, 0
12, 73080, Note_on_c, 6, 60, 84
12, 73080, Note_on_c, 6, 72, 84
12, 73184, Note_on_c, 6, 60, 0
12, 73184, Note_on_c, 6, 72, 0
12, 73200, Note_on_c, 6, 60, 84
12, 73200, Note_on_c, 6, 72, 84
12, 73319, Note_on_c, 6, 60, 0
12, 73319, Note_on_c, 6, 72, 0
12, 73440, Note_on_c, 6, 60, 84
12, 73440, Note_on_c, 6, 72, 84
12, 73544, Note_on_c, 6, 60, 0
12, 73544, Note_on_c, 6, 72, 0
12, 73560, Note_on_c, 6, 60, 84
12, 73560, Note_on_c, 6, 72, 84
12, 73664, Note_on_c, 6, 60, 0
12, 73664, Note_on_c, 6, 72, 0
12, 73680, Note_on_c, 6, 60, 84
12, 73680, Note_on_c, 6, 72, 84
12, 73799, Note_on_c, 6, 60, 0
12, 73799, Note_on_c, 6, 72, 0
12, 73920, Note_on_c, 6, 60, 84
12, 73920, Note_on_c, 6, 72, 84
12, 74039, Note_on_c, 6, 60, 0
12, 74039, Note_on_c, 6, 72, 0
12, 74160, Note_on_c, 6, 72, 84
12, 74160, Note_on_c, 6, 60, 84
12, 74279, Note_on_c, 6, 72, 0
12, 74279, Note_on_c, 6, 60, 0
12, 74400, Note_on_c, 6, 55, 84
12, 74400, Note_on_c, 6, 67, 84
12, 74504, Note_on_c, 6, 55, 0
12, 74504, Note_on_c, 6, 67, 0
12, 74518, Control_c, 6, 11, 112
12, 74520, Note_on_c, 6, 60, 92
12, 74520, Note_on_c, 6, 72, 92
12, 74520, Control_c, 6, 11, 112
12, 74712, Control_c, 6, 11, 113
12, 74864, Note_on_c, 6, 60, 0
12, 74864, Note_on_c, 6, 72, 0
12, 74880, Note_on_c, 6, 60, 92
12, 74880, Note_on_c, 6, 72, 92
12, 74904, Control_c, 6, 11, 114
12, 74984, Note_on_c, 6, 60, 0
12, 74984, Note_on_c, 6, 72, 0
12, 75000, Note_on_c, 6, 72, 92
12, 75000, Note_on_c, 6, 60, 92
12, 75096, Control_c, 6, 11, 115
12, 75288, Control_c, 6, 11, 116
12, 75344, Note_on_c, 6, 72, 0
12, 75344, Note_on_c, 6, 60, 0
12, 75360, Note_on_c, 6, 72, 92
12, 75360, Note_on_c, 6, 60, 92
12, 75464, Note_on_c, 6, 72, 0
12, 75464, Note_on_c, 6, 60, 0
12, 75480, Note_on_c, 6, 60, 92
12, 75480, Note_on_c, 6, 72, 92
12, 75480, Control_c, 6, 11, 117
12, 75672, Control_c, 6, 11, 118
12, 75824, Note_on_c, 6, 60, 0
12, 75824, Note_on_c, 6, 72, 0
12, 75840, Note_on_c, 6, 60, 92
12, 75840, Note_on_c, 6, 72, 92
12, 75864, Control_c, 6, 11, 119
12, 75944, Note_on_c, 6, 60, 0
12, 75944, Note_on_c, 6, 72, 0
12, 75960, Note_on_c, 6, 60, 92
12, 75960, Note_on_c, 6, 72, 92
12, 76056, Control_c, 6, 11, 120
12, 76248, Control_c, 6, 11, 121
12, 76304, Note_on_c, 6, 60, 0
12, 76304, Note_on_c, 6, 72, 0
12, 76320, Note_on_c, 6, 60, 92
12, 76320, Note_on_c, 6, 72, 92
12, 76424, Note_on_c, 6, 60, 0
12, 76424, Note_on_c, 6, 72, 0
12, 76440, Control_c, 6, 11, 122
12, 76440, Note_on_c, 6, 60, 92
12, 76440, Note_on_c, 6, 72, 92
12, 76544, Note_on_c, 6, 60, 0
12, 76544, Note_on_c, 6, 72, 0
12, 76560, Note_on_c, 6, 72, 92
12, 76560, Note_on_c, 6, 60, 92
12, 76632, Control_c, 6, 11, 123
12, 76664, Note_on_c, 6, 72, 0
12, 76664, Note_on_c, 6, 60, 0
12, 76680, Note_on_c, 6, 60, 92
12, 76680, Note_on_c, 6, 72, 92
12, 76784, Note_on_c, 6, 60, 0
12, 76784, Note_on_c, 6, 72, 0
12, 76800, Note_on_c, 6, 72, 92
12, 76800, Note_on_c, 6, 60, 92
12, 76824, Control_c, 6, 11, 124
12, 76904, Note_on_c, 6, 72, 0
12, 76904, Note_on_c, 6, 60, 0
12, 76920, Note_on_c, 6, 60, 92
12, 76920, Note_on_c, 6, 72, 92
12, 77016, Control_c, 6, 11, 125
12, 77024, Note_on_c, 6, 60, 0
12, 77024, Note_on_c, 6, 72, 0
12, 77040, Note_on_c, 6, 60, 92
12, 77040, Note_on_c, 6, 76, 92
12, 77144, Note_on_c, 6, 60, 0
12, 77144, Note_on_c, 6, 76, 0
12, 77160, Note_on_c, 6, 60, 92
12, 77160, Note_on_c, 6, 76, 92
12, 77208, Control_c, 6, 11, 127
12, 77264, Note_on_c, 6, 60, 0
12, 77264, Note_on_c, 6, 76, 0
12, 77280, Note_on_c, 6, 76, 92
12, 77280, Note_on_c, 6, 60, 92
12, 77384, Note_on_c, 6, 76, 0
12, 77384, Note_on_c, 6, 60, 0
12, 77400, Control_c, 6, 11, 127
12, 77400, Note_on_c, 6, 60, 84
12, 77400, Note_on_c, 6, 76, 84
12, 77420, Control_c, 6, 11, 124
12, 77440, Control_c, 6, 11, 122
12, 77460, Control_c, 6, 11, 119
12, 77480, Control_c, 6, 11, 117
12, 77500, Control_c, 6, 11, 114
12, 77519, Note_on_c, 6, 60, 0
12, 77520, Control_c, 6, 11, 111
12, 77540, Control_c, 6, 11, 109
12, 77560, Control_c, 6, 11, 106
12, 77580, Control_c, 6, 11, 103
12, 77600, Control_c, 6, 11, 101
12, 77620, Control_c, 6, 11, 98
12, 77640, Control_c, 6, 11, 96
12, 77660, Control_c, 6, 11, 93
12, 77680, Control_c, 6, 11, 90
12, 77700, Control_c, 6, 11, 88
12, 77720, Control_c, 6, 11, 85
12, 77740, Control_c, 6, 11, 82
12, 77760, Control_c, 6, 11, 80
12, 77780, Control_c, 6, 11, 77
12, 77800, Control_c, 6, 11, 75
12, 77820, Control_c, 6, 11, 72
12, 77840, Control_c, 6, 11, 69
12, 77860, Control_c, 6, 11, 64
12, 77864, Note_on_c, 6, 76, 0
12, 77880, Note_on_c, 6, 72, 84
12, 78119, Note_on_c, 6, 72, 0
12, 145080, Note_on_c, 6, 60, 84
12, 145080, Note_on_c, 6, 72, 84
12, 145140, Control_c, 6, 11, 96
12, 145544, Note_on_c, 6, 60, 0
12, 145544, Note_on_c, 6, 72, 0
12, 145558, Control_c, 6, 11, 127
12, 145560, Note_on_c, 6, 60, 84
12, 145560, Note_on_c, 6, 72, 84
12, 145620, Control_c, 6, 11, 96
12, 146024, Note_on_c, 6, 60, 0
12, 146024, Note_on_c, 6, 72, 0
12, 146038, Control_c, 6, 11, 127
12, 146040, Note_on_c, 6, 72, 84
12, 146040, Note_on_c, 6, 60, 84
12, 146100, Control_c, 6, 11, 96
12, 146504, Note_on_c, 6, 72, 0
12, 146504, Note_on_c, 6, 60, 0
12, 146518, Control_c, 6, 11, 127
12, 146520, Note_on_c, 6, 60, 76
12, 146520, Note_on_c, 6, 72, 76
12, 146744, Note_on_c, 6, 60, 0
12, 146744, Note_on_c, 6, 72, 0
12, 146760, Note_on_c, 6, 60, 76
12, 146760, Note_on_c, 6, 72, 76
12, 146984, Note_on_c, 6, 60, 0
12, 146984, Note_on_c, 6, 72, 0
12, 147000, Note_on_c, 6, 72, 76
12, 147000, Note_on_c, 6, 60, 76
12, 147464, Note_on_c, 6, 72, 0
12, 147464, Note_on_c, 6, 60, 0
12, 147480, Note_on_c, 6, 60, 76
12, 147480, Note_on_c, 6, 72, 76
12, 147944, Note_on_c, 6, 60, 0
12, 147944, Note_on_c, 6, 72, 0
12, 147960, Note_on_c, 6, 60, 76
12, 147960, Note_on_c, 6, 72, 76
12, 148424, Note_on_c, 6, 60, 0
12, 148424, Note_on_c, 6, 72, 0
12, 148440, Note_on_c, 6, 72, 76
12, 148440, Note_on_c, 6, 60, 76
12, 148664, Note_on_c, 6, 72, 0
12, 148664, Note_on_c, 6, 60, 0
12, 148680, Note_on_c, 6, 72, 76
12, 148680, Note_on_c, 6, 60, 76
12, 148904, Note_on_c, 6, 72, 0
12, 148904, Note_on_c, 6, 60, 0
12, 148920, Note_on_c, 6, 72, 84
12, 148920, Note_on_c, 6, 60, 84
12, 149144, Note_on_c, 6, 72, 0
12, 149144, Note_on_c, 6, 60, 0
12, 149160, Note_on_c, 6, 55, 84
12, 149160, Note_on_c, 6, 67, 84
12, 149384, Note_on_c, 6, 55, 0
12, 149384, Note_on_c, 6, 67, 0
12, 149400, Note_on_c, 6, 60, 84
12, 149400, Note_on_c, 6, 72, 84
12, 149744, Note_on_c, 6, 60, 0
12, 149744, Note_on_c, 6, 72, 0
12, 149760, Note_on_c, 6, 60, 84
12, 149760, Note_on_c, 6, 72, 84
12, 149864, Note_on_c, 6, 60, 0
12, 149864, Note_on_c, 6, 72, 0
12, 149880, Note_on_c, 6, 60, 84
12, 149880, Note_on_c, 6, 72, 84
12, 149999, Note_on_c, 6, 60, 0
12, 149999, Note_on_c, 6, 72, 0
12, 150120, Note_on_c, 6, 72, 84
12, 150120, Note_on_c, 6, 60, 84
12, 150239, Note_on_c, 6, 72, 0
12, 150239, Note_on_c, 6, 60, 0
12, 150360, Note_on_c, 6, 60, 84
12, 150360, Note_on_c, 6, 72, 84
12, 150479, Note_on_c, 6, 60, 0
12, 150479, Note_on_c, 6, 72, 0
12, 150600, Note_on_c, 6, 55, 84
12, 150600, Note_on_c, 6, 67, 84
12, 150719, Note_on_c, 6, 55, 0
12, 150719, Note_on_c, 6, 67, 0
12, 150840, Note_on_c, 6, 72, 84
12, 150840, Note_on_c, 6, 60, 84
12, 150944, Note_on_c, 6, 72, 0
12, 150944, Note_on_c, 6, 60, 0
12, 150960, Note_on_c, 6, 60, 84
12, 150960, Note_on_c, 6, 72, 84
12, 151064, Note_on_c, 6, 60, 0
12, 151064, Note_on_c, 6, 72, 0
12, 151080, Note_on_c, 6, 55, 84
12, 151080, Note_on_c, 6, 67, 84
12, 151184, Note_on_c, 6, 55, 0
12, 151184, Note_on_c, 6, 67, 0
12, 151200, Note_on_c, 6, 67, 84
12, 151200, Note_on_c, 6, 55, 84
12, 151304, Note_on_c, 6, 67, 0
12, 151304, Note_on_c, 6, 55, 0
12, 151320, Note_on_c, 6, 60, 84
12, 151320, Note_on_c, 6, 72, 84
12, 151424, Note_on_c, 6, 60, 0
12, 151424, Note_on_c, 6, 72, 0
12, 151440, Note_on_c, 6, 60, 84
12, 151440, Note_on_c, 6, 72, 84
12, 151559, Note_on_c, 6, 60, 0
12, 151559, Note_on_c, 6, 72, 0
12, 151680, Note_on_c, 6, 60, 84
12, 151680, Note_on_c, 6, 72, 84
12, 151784, Note_on_c, 6, 60, 0
12, 151784, Note_on_c, 6, 72, 0
12, 151800, Note_on_c, 6, 60, 84
12, 151800, Note_on_c, 6, 72, 84
12, 151904, Note_on_c, 6, 60, 0
12, 151904, Note_on_c, 6, 72, 0
12, 151920, Note_on_c, 6, 60, 84
12, 151920, Note_on_c, 6, 72, 84
12, 152039, Note_on_c, 6, 60, 0
12, 152039, Note_on_c, 6, 72, 0
12, 152160, Note_on_c, 6, 60, 84
12, 152160, Note_on_c, 6, 72, 84
12, 152279, Note_on_c, 6, 60, 0
12, 152279, Note_on_c, 6, 72, 0
12, 152400, Note_on_c, 6, 72, 84
12, 152400, Note_on_c, 6, 60, 84
12, 152519, Note_on_c, 6, 72, 0
12, 152519, Note_on_c, 6, 60, 0
12, 152640, Note_on_c, 6, 55, 84
12, 152640, Note_on_c, 6, 67, 84
12, 152744, Note_on_c, 6, 55, 0
12, 152744, Note_on_c, 6, 67, 0
12, 152758, Control_c, 6, 11, 112
12, 152760, Note_on_c, 6, 60, 92
12, 152760, Note_on_c, 6, 72, 92
12, 152760, Control_c, 6, 11, 112
12, 152952, Control_c, 6, 11, 113
12, 153104, Note_on_c, 6, 60, 0
12, 153104, Note_on_c, 6, 72, 0
12, 153120, Note_on_c, 6, 60, 92
12, 153120, Note_on_c, 6, 72, 92
12, 153144, Control_c, 6, 11, 114
12, 153224, Note_on_c, 6, 60, 0
12, 153224, Note_on_c, 6, 72, 0
12, 153240, Note_on_c, 6, 72, 92
12, 153240, Note_on_c, 6, 60, 92
12, 153336, Control_c, 6, 11, 115
12, 153528, Control_c, 6, 11, 116
12, 153584, Note_on_c, 6, 72, 0
12, 153584, Note_on_c, 6, 60, 0
12, 153600, Note_on_c, 6, 72, 92
12, 153600, Note_on_c, 6, 60, 92
12, 153704, Note_on_c, 6, 72, 0
12, 153704, Note_on_c, 6, 60, 0
12, 153720, Note_on_c, 6, 60, 92
12, 153720, Note_on_c, 6, 72, 92
12, 153720, Control_c, 6, 11, 117
12, 153912, Control_c, 6, 11, 118
12, 154064, Note_on_c, 6, 60, 0
12, 154064, Note_on_c, 6, 72, 0
12, 154080, Note_on_c, 6, 60, 92
12, 154080, Note_on_c, 6, 72, 92
12, 154104, Control_c, 6, 11, 119
12, 154184, Note_on_c, 6, 60, 0
12, 154184, Note_on_c, 6, 72, 0
12, 154200, Note_on_c, 6, 60, 92
12, 154200, Note_on_c, 6, 72, 92
12, 154296, Control_c, 6, 11, 120
12, 154488, Control_c, 6, 11, 121
12, 154544, Note_on_c, 6, 60, 0
12, 154544, Note_on_c, 6, 72, 0
12, 154560, Note_on_c, 6, 60, 92
12, 154560, Note_on_c, 6, 72, 92
12, 154664, Note_on_c, 6, 60, 0
12, 154664, Note_on_c, 6, 72, 0
12, 154680, Control_c, 6, 11, 122
12, 154680, Note_on_c, 6, 60, 92
12, 154680, Note_on_c, 6, 72, 92
12, 154784, Note_on_c, 6, 60, 0
12, 154784, Note_on_c, 6, 72, 0
12, 154800, Note_on_c, 6, 72, 92
12, 154800, Note_on_c, 6, 60, 92
12, 154872, Control_c, 6, 11, 123
12, 154904, Note_on_c, 6, 72, 0
12, 154904, Note_on_c, 6, 60, 0
12, 154920, Note_on_c, 6, 60, 92
12, 154920, Note_on_c, 6, 72, 92
12, 155024, Note_on_c, 6, 60, 0
12, 155024, Note_on_c, 6, 72, 0
12, 155040, Note_on_c, 6, 72, 92
12, 155040, Note_on_c, 6, 60, 92
12, 155064, Control_c, 6, 11, 124
12, 155144, Note_on_c, 6, 72, 0
12, 155144, Note_on_c, 6, 60, 0
12, 155160, Note_on_c, 6, 60, 92
12, 155160, Note_on_c, 6, 72, 92
12, 155256, Control_c, 6, 11, 125
12, 155264, Note_on_c, 6, 60, 0
12, 155264, Note_on_c, 6, 72, 0
12, 155280, Note_on_c, 6, 60, 92
12, 155280, Note_on_c, 6, 76, 92
12, 155384, Note_on_c, 6, 60, 0
12, 155384, Note_on_c, 6, 76, 0
12, 155400, Note_on_c, 6, 60, 92
12, 155400, Note_on_c, 6, 76, 92
12, 155448, Control_c, 6, 11, 127
12, 155504, Note_on_c, 6, 60, 0
12, 155504, Note_on_c, 6, 76, 0
12, 155520, Note_on_c, 6, 76, 92
12, 155520, Note_on_c, 6, 60, 92
12, 155624, Note_on_c, 6, 76, 0
12, 155624, Note_on_c, 6, 60, 0
12, 155640, Control_c, 6, 11, 127
12, 155640, Note_on_c, 6, 60, 84
12, 155640, Note_on_c, 6, 76, 84
12, 155660, Control_c, 6, 11, 124
12, 155680, Control_c, 6, 11, 122
12, 155700, Control_c, 6, 11, 119
12, 155720, Control_c, 6, 11, 117
12, 155740, Control_c, 6, 11, 114
12, 155759, Note_on_c, 6, 60, 0
12, 155760, Control_c, 6, 11, 111
12, 155780, Control_c, 6, 11, 109
12, 155800, Control_c, 6, 11, 106
12, 155820, Control_c, 6, 11, 103
12, 155840, Control_c, 6, 11, 101
12, 155860, Control_c, 6, 11, 98
12, 155880, Control_c, 6, 11, 96
12, 155900, Control_c, 6, 11, 93
12, 155920, Control_c, 6, 11, 90
12, 155940, Control_c, 6, 11, 88
12, 155960, Control_c, 6, 11, 85
12, 155980, Control_c, 6, 11, 82
12, 156000, Control_c, 6, 11, 80
12, 156020, Control_c, 6, 11, 77
12, 156040, Control_c, 6, 11, 75
12, 156060, Control_c, 6, 11, 72
12, 156080, Control_c, 6, 11, 69
12, 156100, Control_c, 6, 11, 64
12, 156104, Note_on_c, 6, 76, 0
12, 156120, Note_on_c, 6, 72, 84
12, 156359, Note_on_c, 6, 72, 0
12, 156600, Control_c, 6, 11, 127
12, 156600, End_track
13, 0, Start_track
13, 0, Title_t, "Violin I"
13, 0, MIDI_port, 0
13, 0, Program_c, 10, 48
13, 0, Control_c, 10, 7, 96
13, 0, Control_c, 10, 10, 48
13, 0, Control_c, 10, 11, 127
13, 0, Note_on_c, 10, 72, 44
13, 89, Note_on_c, 10, 72, 0
13, 120, Note_on_c, 10, 77, 44
13, 209, Note_on_c, 10, 77, 0
13, 240, Note_on_c, 10, 72, 44
13, 329, Note_on_c, 10, 72, 0
13, 360, Note_on_c, 10, 74, 44
13, 449, Note_on_c, 10, 74, 0
13, 480, Note_on_c, 10, 72, 44
13, 569, Note_on_c, 10, 72, 0
13, 600, Note_on_c, 10, 69, 44
13, 689, Note_on_c, 10, 69, 0
13, 720, Note_on_c, 10, 70, 44
13, 809, Note_on_c, 10, 70, 0
13, 840, Note_on_c, 10, 69, 44
13, 929, Note_on_c, 10, 69, 0
13, 960, Note_on_c, 10, 65, 44
13, 1049, Note_on_c, 10, 65, 0
13, 1080, Note_on_c, 10, 67, 44
13, 1169, Note_on_c, 10, 67, 0
13, 1200, Note_on_c, 10, 69, 44
13, 1289, Note_on_c, 10, 69, 0
13, 1320, Note_on_c, 10, 65, 44
13, 1409, Note_on_c, 10, 65, 0
13, 1440, Note_on_c, 10, 67, 44
13, 1529, Note_on_c, 10, 67, 0
13, 1540, Note_on_c, 10, 65, 44
13, 1559, Note_on_c, 10, 65, 0
13, 1560, Note_on_c, 10, 69, 44
13, 1649, Note_on_c, 10, 69, 0
13, 1680, Note_on_c, 10, 65, 44
13, 1769, Note_on_c, 10, 65, 0
13, 1800, Note_on_c, 10, 67, 44
13, 1889, Note_on_c, 10, 67, 0
13, 1900, Note_on_c, 10, 62, 44
13, 1919, Note_on_c, 10, 62, 0
13, 1920, Note_on_c, 10, 65, 44
13, 2009, Note_on_c, 10, 65, 0
13, 2040, Note_on_c, 10, 62, 44
13, 2129, Note_on_c, 10, 62, 0
13, 2160, Note_on_c, 10, 64, 44
13, 2249, Note_on_c, 10, 64, 0
13, 2260, Note_on_c, 10, 57, 44
13, 2279, Note_on_c, 10, 57, 0
13, 2280, Note_on_c, 10, 62, 44
13, 2369, Note_on_c, 10, 62, 0
13, 2400, Note_on_c, 10, 57, 44
13, 2489, Note_on_c, 10, 57, 0
13, 2520, Note_on_c, 10, 57, 44
13, 2609, Note_on_c, 10, 57, 0
13, 2640, Note_on_c, 10, 57, 44
13, 2759, Note_on_c, 10, 57, 0
13, 2880, Note_on_c, 10, 69, 48
13, 2999, Note_on_c, 10, 69, 0
13, 3000, Note_on_c, 10, 74, 48
13, 3239, Note_on_c, 10, 74, 0
13, 3240, Note_on_c, 10, 78, 48
13, 3359, Note_on_c, 10, 78, 0
13, 3360, Note_on_c, 10, 81, 48
13, 3479, Note_on_c, 10, 81, 0
13, 3480, Note_on_c, 10, 78, 48
13, 3584, Note_on_c, 10, 78, 0
13, 3600, Note_on_c, 10, 78, 48
13, 3719, Note_on_c, 10, 78, 0
13, 3720, Note_on_c, 10, 81, 48
13, 3839, Note_on_c, 10, 81, 0
13, 3840, Note_on_c, 10, 85, 48
13, 3959, Note_on_c, 10, 85, 0
13, 3960, Note_on_c, 10, 86, 48
13, 4019, Note_on_c, 10, 86, 0
13, 4020, Note_on_c, 10, 83, 48
13, 4079, Note_on_c, 10, 83, 0
13, 4080, Note_on_c, 10, 81, 48
13, 4304, Note_on_c, 10, 81, 0
13, 4320, Note_on_c, 10, 85, 48
13, 4439, Note_on_c, 10, 85, 0
13, 4440, Note_on_c, 10, 86, 48
13, 4559, Note_on_c, 10, 86, 0
13, 4560, Note_on_c, 10, 81, 48
13, 4679, Note_on_c, 10, 81, 0
13, 4680, Note_on_c, 10, 83, 48
13, 4799, Note_on_c, 10, 83, 0
13, 4800, Note_on_c, 10, 81, 48
13, 4919, Note_on_c, 10, 81, 0
13, 4920, Note_on_c, 10, 78, 48
13, 5039, Note_on_c, 10, 78, 0
13, 5040, Note_on_c, 10, 79, 48
13, 5159, Note_on_c, 10, 79, 0
13, 5160, Note_on_c, 10, 78, 48
13, 5279, Note_on_c, 10, 78, 0
13, 5280, Note_on_c, 10, 74, 48
13, 5399, Note_on_c, 10, 74, 0
13, 5400, Note_on_c, 10, 78, 48
13, 5459, Note_on_c, 10, 78, 0
13, 5460, Note_on_c, 10, 76, 48
13, 5519, Note_on_c, 10, 76, 0
13, 5520, Note_on_c, 10, 74, 48
13, 5639, Note_on_c, 10, 74, 0
13, 5760, Note_on_c, 10, 72, 44
13, 5849, Note_on_c, 10, 72, 0
13, 5880, Note_on_c, 10, 77, 44
13, 5969, Note_on_c, 10, 77, 0
13, 6000, Note_on_c, 10, 72, 44
13, 6089, Note_on_c, 10, 72, 0
13, 6120, Note_on_c, 10, 74, 44
13, 6209, Note_on_c, 10, 74, 0
13, 6240, Note_on_c, 10, 72, 44
13, 6329, Note_on_c, 10, 72, 0
13, 6360, Note_on_c, 10, 69, 44
13, 6449, Note_on_c, 10, 69, 0
13, 6480, Note_on_c, 10, 70, 44
13, 6569, Note_on_c, 10, 70, 0
13, 6600, Note_on_c, 10, 69, 44
13, 6689, Note_on_c, 10, 69, 0
13, 6720, Note_on_c, 10, 65, 44
13, 6809, Note_on_c, 10, 65, 0
13, 6840, Note_on_c, 10, 67, 44
13, 6929, Note_on_c, 10, 67, 0
13, 6960, Note_on_c, 10, 69, 44
13, 7049, Note_on_c, 10, 69, 0
13, 7080, Note_on_c, 10, 65, 44
13, 7169, Note_on_c, 10, 65, 0
13, 7200, Note_on_c, 10, 67, 44
13, 7289, Note_on_c, 10, 67, 0
13, 7300, Note_on_c, 10, 65, 44
13, 7319, Note_on_c, 10, 65, 0
13, 7320, Note_on_c, 10, 69, 44
13, 7409, Note_on_c, 10, 69, 0
13, 7440, Note_on_c, 10, 65, 44
13, 7529, Note_on_c, 10, 65, 0
13, 7560, Note_on_c, 10, 67, 44
13, 7649, Note_on_c, 10, 67, 0
13, 7660, Note_on_c, 10, 62, 44
13, 7679, Note_on_c, 10, 62, 0
13, 7680, Note_on_c, 10, 65, 44
13, 7769, Note_on_c, 10, 65, 0
13, 7800, Note_on_c, 10, 62, 44
13, 7889, Note_on_c, 10, 62, 0
13, 7920, Note_on_c, 10, 64, 44
13, 8009, Note_on_c, 10, 64, 0
13, 8020, Note_on_c, 10, 57, 44
13, 8039, Note_on_c, 10, 57, 0
13, 8040, Note_on_c, 10, 62, 44
13, 8129, Note_on_c, 10, 62, 0
13, 8160, Note_on_c, 10, 57, 44
13, 8249, Note_on_c, 10, 57, 0
13, 8280, Note_on_c, 10, 57, 44
13, 8369, Note_on_c, 10, 57, 0
13, 8400, Note_on_c, 10, 57, 44
13, 8519, Note_on_c, 10, 57, 0
13, 8640, Note_on_c, 10, 69, 48
13, 8759, Note_on_c, 10, 69, 0
13, 8760, Note_on_c, 10, 74, 48
13, 8999, Note_on_c, 10, 74, 0
13, 9000, Note_on_c, 10, 78, 48
13, 9119, Note_on_c, 10, 78, 0
13, 9120, Note_on_c, 10, 81, 48
13, 9239, Note_on_c, 10, 81, 0
13, 9240, Note_on_c, 10, 78, 48
13, 9344, Note_on_c, 10, 78, 0
13, 9360, Note_on_c, 10, 78, 48
13, 9479, Note_on_c, 10, 78, 0
13, 9480, Note_on_c, 10, 81, 48
13, 9599, Note_on_c, 10, 81, 0
13, 9600, Note_on_c, 10, 85, 48
13, 9719, Note_on_c, 10, 85, 0
13, 9720, Note_on_c, 10, 86, 48
13, 9779, Note_on_c, 10, 86, 0
13, 9780, Note_on_c, 10, 83, 48
13, 9839, Note_on_c, 10, 83, 0
13, 9840, Note_on_c, 10, 81, 48
13, 10064, Note_on_c, 10, 81, 0
13, 10080, Note_on_c, 10, 85, 48
13, 10199, Note_on_c, 10, 85, 0
13, 10200, Note_on_c, 10, 86, 48
13, 10319, Note_on_c, 10, 86, 0
13, 10320, Note_on_c, 10, 81, 48
13, 10439, Note_on_c, 10, 81, 0
13, 10440, Note_on_c, 10, 83, 48
13, 10559, Note_on_c, 10, 83, 0
13, 10560, Note_on_c, 10, 81, 48
13, 10679, Note_on_c, 10, 81, 0
13, 10680, Note_on_c, 10, 78, 48
13, 10799, Note_on_c, 10, 78, 0
13, 10800, Note_on_c, 10, 79, 48
13, 10919, Note_on_c, 10, 79, 0
13, 10920, Note_on_c, 10, 78, 48
13, 11039, Note_on_c, 10, 78, 0
13, 11040, Note_on_c, 10, 74, 48
13, 11159, Note_on_c, 10, 74, 0
13, 11160, Note_on_c, 10, 78, 48
13, 11219, Note_on_c, 10, 78, 0
13, 11220, Note_on_c, 10, 76, 48
13, 11279, Note_on_c, 10, 76, 0
13, 11280, Note_on_c, 10, 74, 48
13, 11399, Note_on_c, 10, 74, 0
13, 11520, Note_on_c, 10, 81, 44
13, 11609, Note_on_c, 10, 81, 0
13, 11640, Note_on_c, 10, 86, 44
13, 11729, Note_on_c, 10, 86, 0
13, 11760, Note_on_c, 10, 81, 44
13, 11849, Note_on_c, 10, 81, 0
13, 11880, Note_on_c, 10, 83, 44
13, 11969, Note_on_c, 10, 83, 0
13, 12000, Note_on_c, 10, 81, 44
13, 12089, Note_on_c, 10, 81, 0
13, 12120, Note_on_c, 10, 78, 44
13, 12209, Note_on_c, 10, 78, 0
13, 12240, Note_on_c, 10, 79, 44
13, 12329, Note_on_c, 10, 79, 0
13, 12360, Note_on_c, 10, 78, 44
13, 12449, Note_on_c, 10, 78, 0
13, 12480, Note_on_c, 10, 74, 44
13, 12569, Note_on_c, 10, 74, 0
13, 12600, Note_on_c, 10, 76, 44
13, 12689, Note_on_c, 10, 76, 0
13, 12720, Note_on_c, 10, 78, 44
13, 12809, Note_on_c, 10, 78, 0
13, 12840, Note_on_c, 10, 74, 44
13, 12929, Note_on_c, 10, 74, 0
13, 12960, Note_on_c, 10, 74, 44
13, 13049, Note_on_c, 10, 74, 0
13, 13080, Note_on_c, 10, 79, 44
13, 13169, Note_on_c, 10, 79, 0
13, 13200, Note_on_c, 10, 74, 44
13, 13289, Note_on_c, 10, 74, 0
13, 13320, Note_on_c, 10, 76, 44
13, 13409, Note_on_c, 10, 76, 0
13, 13440, Note_on_c, 10, 74, 44
13, 13529, Note_on_c, 10, 74, 0
13, 13560, Note_on_c, 10, 71, 44
13, 13649, Note_on_c, 10, 71, 0
13, 13680, Note_on_c, 10, 72, 44
13, 13769, Note_on_c, 10, 72, 0
13, 13800, Note_on_c, 10, 71, 44
13, 13889, Note_on_c, 10, 71, 0
13, 13920, Note_on_c, 10, 67, 44
13, 14009, Note_on_c, 10, 67, 0
13, 14040, Note_on_c, 10, 69, 44
13, 14129, Note_on_c, 10, 69, 0
13, 14160, Note_on_c, 10, 71, 48
13, 14264, Note_on_c, 10, 71, 0
13, 14280, Note_on_c, 10, 67, 48
13, 14384, Note_on_c, 10, 67, 0
13, 14400, Note_on_c, 10, 67, 48
13, 14519, Note_on_c, 10, 67, 0
13, 14520, Note_on_c, 10, 72, 48
13, 14759, Note_on_c, 10, 72, 0
13, 14760, Note_on_c, 10, 76, 48
13, 14879, Note_on_c, 10, 76, 0
13, 14880, Note_on_c, 10, 79, 48
13, 14999, Note_on_c, 10, 79, 0
13, 15000, Note_on_c, 10, 76, 48
13, 15104, Note_on_c, 10, 76, 0
13, 15120, Note_on_c, 10, 76, 48
13, 15239, Note_on_c, 10, 76, 0
13, 15240, Note_on_c, 10, 79, 48
13, 15359, Note_on_c, 10, 79, 0
13, 15360, Note_on_c, 10, 83, 48
13, 15479, Note_on_c, 10, 83, 0
13, 15480, Note_on_c, 10, 84, 48
13, 15539, Note_on_c, 10, 84, 0
13, 15540, Note_on_c, 10, 81, 48
13, 15599, Note_on_c, 10, 81, 0
13, 15600, Note_on_c, 10, 79, 48
13, 15824, Note_on_c, 10, 79, 0
13, 15840, Note_on_c, 10, 83, 48
13, 15959, Note_on_c, 10, 83, 0
13, 15960, Note_on_c, 10, 84, 48
13, 16079, Note_on_c, 10, 84, 0
13, 16080, Note_on_c, 10, 79, 48
13, 16199, Note_on_c, 10, 79, 0
13, 16200, Note_on_c, 10, 81, 48
13, 16319, Note_on_c, 10, 81, 0
13, 16320, Note_on_c, 10, 79, 48
13, 16439, Note_on_c, 10, 79, 0
13, 16440, Note_on_c, 10, 76, 48
13, 16559, Note_on_c, 10, 76, 0
13, 16560, Note_on_c, 10, 77, 48
13, 16679, Note_on_c, 10, 77, 0
13, 16680, Note_on_c, 10, 76, 48
13, 16799, Note_on_c, 10, 76, 0
13, 16800, Note_on_c, 10, 72, 48
13, 16919, Note_on_c, 10, 72, 0
13, 16920, Note_on_c, 10, 74, 48
13, 17039, Note_on_c, 10, 74, 0
13, 17040, Note_on_c, 10, 76, 48
13, 17159, Note_on_c, 10, 76, 0
13, 17160, Note_on_c, 10, 72, 48
13, 17264, Note_on_c, 10, 72, 0
13, 17278, Control_c, 10, 11, 64
13, 17280, Control_c, 10, 11, 64
13, 17280, Note_on_c, 10, 72, 84
13, 17320, Control_c, 10, 11, 66
13, 17360, Control_c, 10, 11, 68
13, 17399, Note_on_c, 10, 72, 0
13, 17400, Control_c, 10, 11, 69
13, 17400, Note_on_c, 10, 84, 84
13, 17440, Control_c, 10, 11, 71
13, 17480, Control_c, 10, 11, 73
13, 17519, Note_on_c, 10, 84, 0
13, 17520, Note_on_c, 10, 81, 84
13, 17520, Control_c, 10, 11, 75
13, 17560, Control_c, 10, 11, 76
13, 17600, Control_c, 10, 11, 78
13, 17639, Note_on_c, 10, 81, 0
13, 17640, Control_c, 10, 11, 80
13, 17640, Note_on_c, 10, 82, 84
13, 17680, Control_c, 10, 11, 82
13, 17720, Control_c, 10, 11, 83
13, 17759, Note_on_c, 10, 82, 0
13, 17760, Control_c, 10, 11, 85
13, 17760, Note_on_c, 10, 81, 84
13, 17800, Control_c, 10, 11, 87
13, 17840, Control_c, 10, 11, 89
13, 17879, Note_on_c, 10, 81, 0
13, 17880, Control_c, 10, 11, 90
13, 17880, Note_on_c, 10, 77, 84
13, 17920, Control_c, 10, 11, 92
13, 17960, Control_c, 10, 11, 94
13, 17999, Note_on_c, 10, 77, 0
13, 18000, Control_c, 10, 11, 96
13, 18000, Note_on_c, 10, 79, 84
13, 18040, Control_c, 10, 11, 97
13, 18080, Control_c, 10, 11, 99
13, 18119, Note_on_c, 10, 79, 0
13, 18120, Note_on_c, 10, 77, 84
13, 18120, Control_c, 10, 11, 101
13, 18160, Control_c, 10, 11, 103
13, 18200, Control_c, 10, 11, 104
13, 18239, Note_on_c, 10, 77, 0
13, 18240, Note_on_c, 10, 72, 84
13, 18240, Control_c, 10, 11, 106
13, 18280, Control_c, 10, 11, 108
13, 18320, Control_c, 10, 11, 110
13, 18359, Note_on_c, 10, 72, 0
13, 18360, Note_on_c, 10, 79, 84
13, 18360, Control_c, 10, 11, 111
13, 18400, Control_c, 10, 11, 113
13, 18440, Control_c, 10, 11, 115
13, 18479, Note_on_c, 10, 79, 0
13, 18480, Control_c, 10, 11, 117
13, 18480, Note_on_c, 10, 81, 84
13, 18520, Control_c, 10, 11, 118
13, 18560, Control_c, 10, 11, 120
13, 18599, Note_on_c, 10, 81, 0
13, 18600, Control_c, 10, 11, 122
13, 18600, Note_on_c, 10, 77, 84
13, 18640, Control_c, 10, 11, 124
13, 18680, Control_c, 10, 11, 127
13, 18704, Note_on_c, 10, 77, 0
13, 18720, Note_on_c, 10, 84, 84
13, 18809, Note_on_c, 10, 84, 0
13, 18840, Note_on_c, 10, 89, 84
13, 18929, Note_on_c, 10, 89, 0
13, 18960, Note_on_c, 10, 84, 84
13, 19049, Note_on_c, 10, 84, 0
13, 19080, Note_on_c, 10, 86, 84
13, 19169, Note_on_c, 10, 86, 0
13, 19200, Note_on_c, 10, 84, 84
13, 19289, Note_on_c, 10, 84, 0
13, 19320, Note_on_c, 10, 81, 84
13, 19409, Note_on_c, 10, 81, 0
13, 19440, Note_on_c, 10, 82, 84
13, 19529, Note_on_c, 10, 82, 0
13, 19560, Note_on_c, 10, 81, 92
13, 19649, Note_on_c, 10, 81, 0
13, 19680, Note_on_c, 10, 77, 84
13, 19769, Note_on_c, 10, 77, 0
13, 19800, Note_on_c, 10, 79, 84
13, 19889, Note_on_c, 10, 79, 0
13, 19920, Note_on_c, 10, 81, 92
13, 20009, Note_on_c, 10, 81, 0
13, 20040, Note_on_c, 10, 77, 84
13, 20129, Note_on_c, 10, 77, 0
13, 20160, Note_on_c, 10, 79, 84
13, 20249, Note_on_c, 10, 79, 0
13, 20280, Note_on_c, 10, 81, 92
13, 20369, Note_on_c, 10, 81, 0
13, 20400, Note_on_c, 10, 77, 84
13, 20489, Note_on_c, 10, 77, 0
13, 20520, Note_on_c, 10, 79, 84
13, 20609, Note_on_c, 10, 79, 0
13, 20640, Note_on_c, 10, 81, 92
13, 20729, Note_on_c, 10, 81, 0
13, 20760, Note_on_c, 10, 77, 84
13, 20849, Note_on_c, 10, 77, 0
13, 20880, Note_on_c, 10, 79, 84
13, 20969, Note_on_c, 10, 79, 0
13, 21000, Note_on_c, 10, 81, 92
13, 21060, Control_c, 10, 11, 112
13, 21307, Note_on_c, 10, 81, 0
13, 21320, Note_on_c, 10, 79, 92
13, 21339, Note_on_c, 10, 79, 0
13, 21340, Note_on_c, 10, 81, 92
13, 21359, Note_on_c, 10, 81, 0
13, 21360, Note_on_c, 10, 79, 92
13, 21584, Note_on_c, 10, 79, 0
13, 21600, Note_on_c, 10, 77, 92
13, 21667, Note_on_c, 10, 77, 0
13, 21680, Note_on_c, 10, 76, 92
13, 21699, Note_on_c, 10, 76, 0
13, 21700, Note_on_c, 10, 77, 92
13, 21719, Note_on_c, 10, 77, 0
13, 21720, Note_on_c, 10, 76, 92
13, 21944, Note_on_c, 10, 76, 0
13, 21960, Note_on_c, 10, 74, 92
13, 22064, Note_on_c, 10, 74, 0
13, 22080, Note_on_c, 10, 72, 92
13, 22304, Note_on_c, 10, 72, 0
13, 22320, Note_on_c, 10, 76, 92
13, 22424, Note_on_c, 10, 76, 0
13, 22438, Control_c, 10, 11, 127
13, 22440, Note_on_c, 10, 77, 92
13, 22440, Note_on_c, 10, 65, 92
13, 22440, Note_on_c, 10, 72, 92
13, 22500, Control_c, 10, 11, 112
13, 22559, Note_on_c, 10, 65, 0
13, 22559, Note_on_c, 10, 72, 0
13, 22784, Note_on_c, 10, 77, 0
13, 22798, Control_c, 10, 11, 127
13, 22800, Note_on_c, 10, 79, 92
13, 22860, Control_c, 10, 11, 112
13, 23144, Note_on_c, 10, 79, 0
13, 23158, Control_c, 10, 11, 127
13, 23160, Note_on_c, 10, 81, 92
13, 23220, Control_c, 10, 11, 112
13, 23504, Note_on_c, 10, 81, 0
13, 23518, Control_c, 10, 11, 127
13, 23520, Note_on_c, 10, 64, 92
13, 23520, Note_on_c, 10, 72, 92
13, 23520, Note_on_c, 10, 79, 92
13, 23580, Control_c, 10, 11, 112
13, 23639, Note_on_c, 10, 64, 0
13, 23639, Note_on_c, 10, 72, 0
13, 23864, Note_on_c, 10, 79, 0
13, 23880, Note_on_c, 10, 81, 92
13, 23880, Note_on_c, 10, 72, 92
13, 23880, Note_on_c, 10, 65, 92
13, 23999, Note_on_c, 10, 81, 0
13, 23999, Note_on_c, 10, 72, 0
13, 23999, Note_on_c, 10, 65, 0
13, 24120, Note_on_c, 10, 81, 92
13, 24187, Note_on_c, 10, 81, 0
13, 24200, Note_on_c, 10, 79, 92
13, 24219, Note_on_c, 10, 79, 0
13, 24220, Note_on_c, 10, 81, 92
13, 24239, Note_on_c, 10, 81, 0
13, 24240, Note_on_c, 10, 79, 92
13, 24464, Note_on_c, 10, 79, 0
13, 24480, Note_on_c, 10, 77, 92
13, 24547, Note_on_c, 10, 77, 0
13, 24560, Note_on_c, 10, 76, 92
13, 24579, Note_on_c, 10, 76, 0
13, 24580, Note_on_c, 10, 77, 92
13, 24599, Note_on_c, 10, 77, 0
13, 24600, Note_on_c, 10, 76, 92
13, 24824, Note_on_c, 10, 76, 0
13, 24840, Note_on_c, 10, 74, 92
13, 24944, Note_on_c, 10, 74, 0
13, 24960, Note_on_c, 10, 72, 92
13, 25184, Note_on_c, 10, 72, 0
13, 25200, Note_on_c, 10, 76, 92
13, 25304, Note_on_c, 10, 76, 0
13, 25318, Control_c, 10, 11, 127
13, 25320, Note_on_c, 10, 72, 92
13, 25320, Note_on_c, 10, 65, 92
13, 25320, Note_on_c, 10, 77, 92
13, 25380, Control_c, 10, 11, 112
13, 25439, Note_on_c, 10, 72, 0
13, 25439, Note_on_c, 10, 65, 0
13, 25664, Note_on_c, 10, 77, 0
13, 25678, Control_c, 10, 11, 127
13, 25680, Note_on_c, 10, 79, 92
13, 25740, Control_c, 10, 11, 112
13, 26024, Note_on_c, 10, 79, 0
13, 26038, Control_c, 10, 11, 127
13, 26040, Note_on_c, 10, 81, 92
13, 26100, Control_c, 10, 11, 112
13, 26384, Note_on_c, 10, 81, 0
13, 26398, Control_c, 10, 11, 127
13, 26400, Note_on_c, 10, 72, 92
13, 26400, Note_on_c, 10, 79, 92
13, 26400, Note_on_c, 10, 64, 92
13, 26460, Control_c, 10, 11, 112
13, 26519, Note_on_c, 10, 72, 0
13, 26519, Note_on_c, 10, 64, 0
13, 26744, Note_on_c, 10, 79, 0
13, 26758, Control_c, 10, 11, 127
13, 26760, Note_on_c, 10, 72, 92
13, 26760, Note_on_c, 10, 77, 92
13, 26760, Note_on_c, 10, 65, 92
13, 26879, Note_on_c, 10, 72, 0
13, 26879, Note_on_c, 10, 77, 0
13, 26879, Note_on_c, 10, 65, 0
13, 27480, Note_on_c, 10, 69, 84
13, 27531, Note_on_c, 10, 69, 0
13, 27540, Note_on_c, 10, 72, 84
13, 27591, Note_on_c, 10, 72, 0
13, 27600, Note_on_c, 10, 77, 84
13, 27651, Note_on_c, 10, 77, 0
13, 27660, Note_on_c, 10, 81, 84
13, 27711, Note_on_c, 10, 81, 0
13, 27720, Note_on_c, 10, 84, 84
13, 27824, Note_on_c, 10, 84, 0
13, 27840, Note_on_c, 10, 76, 84
13, 27840, Note_on_c, 10, 67, 84
13, 27944, Note_on_c, 10, 76, 0
13, 27944, Note_on_c, 10, 67, 0
13, 27960, Note_on_c, 10, 67, 84
13, 27960, Note_on_c, 10, 76, 84
13, 28064, Note_on_c, 10, 67, 0
13, 28064, Note_on_c, 10, 76, 0
13, 28080, Note_on_c, 10, 76, 84
13, 28080, Note_on_c, 10, 67, 84
13, 28184, Note_on_c, 10, 76, 0
13, 28184, Note_on_c, 10, 67, 0
13, 28200, Note_on_c, 10, 65, 92
13, 28200, Note_on_c, 10, 77, 92
13, 28200, Note_on_c, 10, 69, 92
13, 28319, Note_on_c, 10, 65, 0
13, 28319, Note_on_c, 10, 77, 0
13, 28319, Note_on_c, 10, 69, 0
13, 28920, Note_on_c, 10, 69, 84
13, 28971, Note_on_c, 10, 69, 0
13, 28980, Note_on_c, 10, 72, 84
13, 29031, Note_on_c, 10, 72, 0
13, 29040, Note_on_c, 10, 77, 84
13, 29091, Note_on_c, 10, 77, 0
13, 29100, Note_on_c, 10, 81, 84
13, 29151, Note_on_c, 10, 81, 0
13, 29160, Note_on_c, 10, 84, 84
13, 29264, Note_on_c, 10, 84, 0
13, 29280, Note_on_c, 10, 76, 84
13, 29280, Note_on_c, 10, 67, 84
13, 29384, Note_on_c, 10, 76, 0
13, 29384, Note_on_c, 10, 67, 0
13, 29400, Note_on_c, 10, 76, 84
13, 29400, Note_on_c, 10, 67, 84
13, 29504, Note_on_c, 10, 76, 0
13, 29504, Note_on_c, 10, 67, 0
13, 29520, Note_on_c, 10, 76, 84
13, 29520, Note_on_c, 10, 67, 84
13, 29624, Note_on_c, 10, 76, 0
13, 29624, Note_on_c, 10, 67, 0
13, 29640, Note_on_c, 10, 65, 92
13, 29640, Note_on_c, 10, 77, 92
13, 29640, Note_on_c, 10, 69, 92
13, 29759, Note_on_c, 10, 65, 0
13, 29759, Note_on_c, 10, 77, 0
13, 29759, Note_on_c, 10, 69, 0
13, 30360, Note_on_c, 10, 69, 92
13, 30360, Note_on_c, 10, 77, 92
13, 30360, Note_on_c, 10, 65, 92
13, 30479, Note_on_c, 10, 69, 0
13, 30479, Note_on_c, 10, 77, 0
13, 30479, Note_on_c, 10, 65, 0
13, 31080, Note_on_c, 10, 72, 84
13, 31184, Note_on_c, 10, 72, 0
13, 31200, Note_on_c, 10, 69, 81
13, 31304, Note_on_c, 10, 69, 0
13, 31320, Note_on_c, 10, 69, 78
13, 31424, Note_on_c, 10, 69, 0
13, 31440, Note_on_c, 10, 72, 74
13, 31544, Note_on_c, 10, 72, 0
13, 31560, Note_on_c, 10, 69, 71
13, 31664, Note_on_c, 10, 69, 0
13, 31680, Note_on_c, 10, 69, 68
13, 31784, Note_on_c, 10, 69, 0
13, 31800, Note_on_c, 10, 72, 64
13, 31904, Note_on_c, 10, 72, 0
13, 31920, Note_on_c, 10, 69, 61
13, 32024, Note_on_c, 10, 69, 0
13, 32040, Note_on_c, 10, 69, 58
13, 32144, Note_on_c, 10, 69, 0
13, 32160, Note_on_c, 10, 72, 54
13, 32264, Note_on_c, 10, 72, 0
13, 32280, Note_on_c, 10, 69, 51
13, 32384, Note_on_c, 10, 69, 0
13, 32400, Note_on_c, 10, 69, 48
13, 32504, Note_on_c, 10, 69, 0
13, 32520, Note_on_c, 10, 72, 44
13, 32624, Note_on_c, 10, 72, 0
13, 32640, Note_on_c, 10, 69, 44
13, 32744, Note_on_c, 10, 69, 0
13, 32760, Note_on_c, 10, 69, 44
13, 32864, Note_on_c, 10, 69, 0
13, 32880, Note_on_c, 10, 72, 44
13, 32984, Note_on_c, 10, 72, 0
13, 33000, Note_on_c, 10, 69, 44
13, 33104, Note_on_c, 10, 69, 0
13, 33120, Note_on_c, 10, 69, 44
13, 33224, Note_on_c, 10, 69, 0
13, 33240, Note_on_c, 10, 72, 44
13, 33344, Note_on_c, 10, 72, 0
13, 33360, Note_on_c, 10, 70, 44
13, 33464, Note_on_c, 10, 70, 0
13, 33480, Note_on_c, 10, 70, 44
13, 33584, Note_on_c, 10, 70, 0
13, 33600, Note_on_c, 10, 72, 44
13, 33704, Note_on_c, 10, 72, 0
13, 33720, Note_on_c, 10, 70, 44
13, 33824, Note_on_c, 10, 70, 0
13, 33840, Note_on_c, 10, 70, 44
13, 33944, Note_on_c, 10, 70, 0
13, 33960, Note_on_c, 10, 72, 44
13, 34064, Note_on_c, 10, 72, 0
13, 34080, Note_on_c, 10, 69, 44
13, 34184, Note_on_c, 10, 69, 0
13, 34200, Note_on_c, 10, 69, 44
13, 34304, Note_on_c, 10, 69, 0
13, 34320, Note_on_c, 10, 72, 44
13, 34424, Note_on_c, 10, 72, 0
13, 34440, Note_on_c, 10, 67, 44
13, 34544, Note_on_c, 10, 67, 0
13, 34560, Note_on_c, 10, 67, 44
13, 34664, Note_on_c, 10, 67, 0
13, 34680, Note_on_c, 10, 72, 44
13, 34784, Note_on_c, 10, 72, 0
13, 34800, Note_on_c, 10, 69, 44
13, 34904, Note_on_c, 10, 69, 0
13, 34920, Note_on_c, 10, 69, 44
13, 35024, Note_on_c, 10, 69, 0
13, 35040, Note_on_c, 10, 72, 44
13, 35144, Note_on_c, 10, 72, 0
13, 35160, Note_on_c, 10, 69, 44
13, 35264, Note_on_c, 10, 69, 0
13, 35280, Note_on_c, 10, 69, 44
13, 35384, Note_on_c, 10, 69, 0
13, 35400, Note_on_c, 10, 72, 44
13, 35504, Note_on_c, 10, 72, 0
13, 35520, Note_on_c, 10, 69, 44
13, 35624, Note_on_c, 10, 69, 0
13, 35640, Note_on_c, 10, 69, 44
13, 35744, Note_on_c, 10, 69, 0
13, 35760, Note_on_c, 10, 72, 44
13, 35864, Note_on_c, 10, 72, 0
13, 35880, Note_on_c, 10, 69, 44
13, 35984, Note_on_c, 10, 69, 0
13, 36000, Note_on_c, 10, 69, 44
13, 36104, Note_on_c, 10, 69, 0
13, 36120, Note_on_c, 10, 72, 44
13, 36224, Note_on_c, 10, 72, 0
13, 36240, Note_on_c, 10, 70, 44
13, 36344, Note_on_c, 10, 70, 0
13, 36360, Note_on_c, 10, 70, 44
13, 36464, Note_on_c, 10, 70, 0
13, 36480, Note_on_c, 10, 72, 44
13, 36584, Note_on_c, 10, 72, 0
13, 36600, Note_on_c, 10, 70, 44
13, 36704, Note_on_c, 10, 70, 0
13, 36720, Note_on_c, 10, 70, 44
13, 36824, Note_on_c, 10, 70, 0
13, 36840, Note_on_c, 10, 72, 44
13, 36944, Note_on_c, 10, 72, 0
13, 36960, Note_on_c, 10, 69, 44
13, 37064, Note_on_c, 10, 69, 0
13, 37080, Note_on_c, 10, 69, 44
13, 37184, Note_on_c, 10, 69, 0
13, 37200, Note_on_c, 10, 72, 44
13, 37304, Note_on_c, 10, 72, 0
13, 37320, Note_on_c, 10, 67, 44
13, 37424, Note_on_c, 10, 67, 0
13, 37440, Note_on_c, 10, 67, 44
13, 37544, Note_on_c, 10, 67, 0
13, 37560, Note_on_c, 10, 72, 44
13, 37664, Note_on_c, 10, 72, 0
13, 37680, Note_on_c, 10, 67, 44
13, 37784, Note_on_c, 10, 67, 0
13, 37800, Note_on_c, 10, 67, 44
13, 37904, Note_on_c, 10, 67, 0
13, 37920, Note_on_c, 10, 72, 44
13, 38024, Note_on_c, 10, 72, 0
13, 38040, Note_on_c, 10, 69, 44
13, 38144, Note_on_c, 10, 69, 0
13, 38160, Note_on_c, 10, 69, 44
13, 38264, Note_on_c, 10, 69, 0
13, 38280, Note_on_c, 10, 72, 44
13, 38384, Note_on_c, 10, 72, 0
13, 38400, Note_on_c, 10, 69, 44
13, 38504, Note_on_c, 10, 69, 0
13, 38520, Note_on_c, 10, 69, 44
13, 38624, Note_on_c, 10, 69, 0
13, 38640, Note_on_c, 10, 72, 44
13, 38744, Note_on_c, 10, 72, 0
13, 38760, Note_on_c, 10, 69, 44
13, 38864, Note_on_c, 10, 69, 0
13, 38880, Note_on_c, 10, 69, 44
13, 38984, Note_on_c, 10, 69, 0
13, 39000, Note_on_c, 10, 72, 44
13, 39104, Note_on_c, 10, 72, 0
13, 39120, Note_on_c, 10, 70, 44
13, 39224, Note_on_c, 10, 70, 0
13, 39240, Note_on_c, 10, 70, 44
13, 39344, Note_on_c, 10, 70, 0
13, 39360, Note_on_c, 10, 72, 44
13, 39464, Note_on_c, 10, 72, 0
13, 39480, Note_on_c, 10, 70, 44
13, 39584, Note_on_c, 10, 70, 0
13, 39600, Note_on_c, 10, 70, 44
13, 39704, Note_on_c, 10, 70, 0
13, 39720, Note_on_c, 10, 72, 44
13, 39824, Note_on_c, 10, 72, 0
13, 39840, Note_on_c, 10, 69, 44
13, 39944, Note_on_c, 10, 69, 0
13, 39960, Note_on_c, 10, 69, 44
13, 40064, Note_on_c, 10, 69, 0
13, 40080, Note_on_c, 10, 72, 44
13, 40184, Note_on_c, 10, 72, 0
13, 40200, Note_on_c, 10, 67, 44
13, 40304, Note_on_c, 10, 67, 0
13, 40320, Note_on_c, 10, 67, 44
13, 40424, Note_on_c, 10, 67, 0
13, 40440, Note_on_c, 10, 72, 44
13, 40544, Note_on_c, 10, 72, 0
13, 40560, Note_on_c, 10, 69, 44
13, 40664, Note_on_c, 10, 69, 0
13, 40680, Note_on_c, 10, 69, 44
13, 40784, Note_on_c, 10, 69, 0
13, 40800, Note_on_c, 10, 72, 44
13, 40904, Note_on_c, 10, 72, 0
13, 40920, Note_on_c, 10, 69, 44
13, 41024, Note_on_c, 10, 69, 0
13, 41040, Note_on_c, 10, 69, 44
13, 41144, Note_on_c, 10, 69, 0
13, 41160, Note_on_c, 10, 72, 44
13, 41264, Note_on_c, 10, 72, 0
13, 41280, Note_on_c, 10, 69, 44
13, 41384, Note_on_c, 10, 69, 0
13, 41400, Note_on_c, 10, 69, 44
13, 41504, Note_on_c, 10, 69, 0
13, 41520, Note_on_c, 10, 72, 44
13, 41624, Note_on_c, 10, 72, 0
13, 41640, Note_on_c, 10, 69, 44
13, 41744, Note_on_c, 10, 69, 0
13, 41760, Note_on_c, 10, 69, 44
13, 41864, Note_on_c, 10, 69, 0
13, 41880, Note_on_c, 10, 72, 44
13, 41984, Note_on_c, 10, 72, 0
13, 42000, Note_on_c, 10, 70, 44
13, 42104, Note_on_c, 10, 70, 0
13, 42120, Note_on_c, 10, 70, 44
13, 42224, Note_on_c, 10, 70, 0
13, 42240, Note_on_c, 10, 72, 44
13, 42344, Note_on_c, 10, 72, 0
13, 42360, Note_on_c, 10, 70, 44
13, 42464, Note_on_c, 10, 70, 0
13, 42480, Note_on_c, 10, 70, 44
13, 42584, Note_on_c, 10, 70, 0
13, 42600, Note_on_c, 10, 72, 44
13, 42704, Note_on_c, 10, 72, 0
13, 42720, Note_on_c, 10, 69, 44
13, 42824, Note_on_c, 10, 69, 0
13, 42840, Note_on_c, 10, 69, 44
13, 42944, Note_on_c, 10, 69, 0
13, 42960, Note_on_c, 10, 72, 44
13, 43064, Note_on_c, 10, 72, 0
13, 43080, Note_on_c, 10, 67, 44
13, 43184, Note_on_c, 10, 67, 0
13, 43200, Note_on_c, 10, 67, 44
13, 43304, Note_on_c, 10, 67, 0
13, 43320, Note_on_c, 10, 72, 44
13, 43424, Note_on_c, 10, 72, 0
13, 43440, Note_on_c, 10, 67, 44
13, 43544, Note_on_c, 10, 67, 0
13, 43560, Note_on_c, 10, 67, 44
13, 43664, Note_on_c, 10, 67, 0
13, 43680, Note_on_c, 10, 72, 44
13, 43784, Note_on_c, 10, 72, 0
13, 43800, Note_on_c, 10, 69, 44
13, 43904, Note_on_c, 10, 69, 0
13, 43920, Note_on_c, 10, 69, 44
13, 44039, Note_on_c, 10, 69, 0
13, 46800, Control_c, 10, 11, 96
13, 46920, Note_on_c, 10, 72, 68
13, 46920, Control_c, 10, 11, 96
13, 46950, Control_c, 10, 11, 97
13, 46980, Control_c, 10, 11, 99
13, 47010, Control_c, 10, 11, 100
13, 47024, Note_on_c, 10, 72, 0
13, 47040, Control_c, 10, 11, 101
13, 47040, Note_on_c, 10, 67, 68
13, 47070, Control_c, 10, 11, 102
13, 47100, Control_c, 10, 11, 104
13, 47130, Control_c, 10, 11, 105
13, 47144, Note_on_c, 10, 67, 0
13, 47160, Note_on_c, 10, 67, 68
13, 47160, Control_c, 10, 11, 106
13, 47190, Control_c, 10, 11, 108
13, 47220, Control_c, 10, 11, 109
13, 47250, Control_c, 10, 11, 110
13, 47264, Note_on_c, 10, 67, 0
13, 47280, Note_on_c, 10, 72, 68
13, 47280, Control_c, 10, 11, 112
13, 47310, Control_c, 10, 11, 113
13, 47340, Control_c, 10, 11, 114
13, 47370, Control_c, 10, 11, 115
13, 47384, Note_on_c, 10, 72, 0
13, 47400, Control_c, 10, 11, 117
13, 47400, Note_on_c, 10, 67, 68
13, 47430, Control_c, 10, 11, 118
13, 47460, Control_c, 10, 11, 119
13, 47490, Control_c, 10, 11, 121
13, 47504, Note_on_c, 10, 67, 0
13, 47520, Note_on_c, 10, 67, 68
13, 47520, Control_c, 10, 11, 122
13, 47550, Control_c, 10, 11, 123
13, 47580, Control_c, 10, 11, 124
13, 47610, Control_c, 10, 11, 127
13, 47624, Note_on_c, 10, 67, 0
13, 47640, Note_on_c, 10, 72, 52
13, 47744, Note_on_c, 10, 72, 0
13, 47760, Note_on_c, 10, 69, 52
13, 47864, Note_on_c, 10, 69, 0
13, 47880, Note_on_c, 10, 69, 52
13, 47984, Note_on_c, 10, 69, 0
13, 48000, Note_on_c, 10, 72, 52
13, 48104, Note_on_c, 10, 72, 0
13, 48120, Note_on_c, 10, 69, 52
13, 48224, Note_on_c, 10, 69, 0
13, 48240, Note_on_c, 10, 69, 52
13, 48344, Note_on_c, 10, 69, 0
13, 48360, Note_on_c, 10, 72, 52
13, 48464, Note_on_c, 10, 72, 0
13, 48480, Note_on_c, 10, 70, 52
13, 48584, Note_on_c, 10, 70, 0
13, 48600, Note_on_c, 10, 70, 52
13, 48704, Note_on_c, 10, 70, 0
13, 48720, Note_on_c, 10, 72, 52
13, 48824, Note_on_c, 10, 72, 0
13, 48840, Note_on_c, 10, 70, 52
13, 48944, Note_on_c, 10, 70, 0
13, 48960, Note_on_c, 10, 70, 52
13, 49064, Note_on_c, 10, 70, 0
13, 49080, Note_on_c, 10, 72, 52
13, 49184, Note_on_c, 10, 72, 0
13, 49200, Note_on_c, 10, 69, 52
13, 49304, Note_on_c, 10, 69, 0
13, 49320, Note_on_c, 10, 69, 52
13, 49424, Note_on_c, 10, 69, 0
13, 49440, Note_on_c, 10, 72, 52
13, 49544, Note_on_c, 10, 72, 0
13, 49560, Note_on_c, 10, 67, 52
13, 49664, Note_on_c, 10, 67, 0
13, 49680, Note_on_c, 10, 67, 52
13, 49784, Note_on_c, 10, 67, 0
13, 49800, Note_on_c, 10, 72, 52
13, 49904, Note_on_c, 10, 72, 0
13, 49920, Note_on_c, 10, 69, 52
13, 50024, Note_on_c, 10, 69, 0
13, 50040, Note_on_c, 10, 69, 52
13, 50144, Note_on_c, 10, 69, 0
13, 50160, Note_on_c, 10, 72, 52
13, 50264, Note_on_c, 10, 72, 0
13, 50280, Note_on_c, 10, 69, 52
13, 50384, Note_on_c, 10, 69, 0
13, 50400, Note_on_c, 10, 69, 52
13, 50504, Note_on_c, 10, 69, 0
13, 50518, Control_c, 10, 11, 96
13, 50520, Note_on_c, 10, 72, 68
13, 50520, Control_c, 10, 11, 96
13, 50580, Control_c, 10, 11, 97
13, 50624, Note_on_c, 10, 72, 0
13, 50640, Control_c, 10, 11, 99
13, 50640, Note_on_c, 10, 69, 68
13, 50700, Control_c, 10, 11, 100
13, 50744, Note_on_c, 10, 69, 0
13, 50760, Note_on_c, 10, 69, 68
13, 50760, Control_c, 10, 11, 101
13, 50820, Control_c, 10, 11, 102
13, 50864, Note_on_c, 10, 69, 0
13, 50880, Note_on_c, 10, 72, 68
13, 50880, Control_c, 10, 11, 104
13, 50940, Control_c, 10, 11, 105
13, 50984, Note_on_c, 10, 72, 0
13, 51000, Control_c, 10, 11, 106
13, 51000, Note_on_c, 10, 69, 68
13, 51060, Control_c, 10, 11, 108
13, 51104, Note_on_c, 10, 69, 0
13, 51120, Note_on_c, 10, 69, 68
13, 51120, Control_c, 10, 11, 109
13, 51180, Control_c, 10, 11, 110
13, 51224, Note_on_c, 10, 69, 0
13, 51240, Note_on_c, 10, 72, 68
13, 51240, Control_c, 10, 11, 112
13, 51300, Control_c, 10, 11, 113
13, 51344, Note_on_c, 10, 72, 0
13, 51360, Note_on_c, 10, 64, 68
13, 51360, Control_c, 10, 11, 114
13, 51420, Control_c, 10, 11, 115
13, 51464, Note_on_c, 10, 64, 0
13, 51480, Note_on_c, 10, 64, 68
13, 51480, Control_c, 10, 11, 117
13, 51540, Control_c, 10, 11, 118
13, 51584, Note_on_c, 10, 64, 0
13, 51600, Control_c, 10, 11, 119
13, 51600, Note_on_c, 10, 72, 68
13, 51660, Control_c, 10, 11, 121
13, 51704, Note_on_c, 10, 72, 0
13, 51720, Note_on_c, 10, 67, 68
13, 51720, Control_c, 10, 11, 122
13, 51780, Control_c, 10, 11, 123
13, 51824, Note_on_c, 10, 67, 0
13, 51840, Control_c, 10, 11, 124
13, 51840, Note_on_c, 10, 67, 68
13, 51900, Control_c, 10, 11, 127
13, 51944, Note_on_c, 10, 67, 0
13, 51960, Note_on_c, 10, 72, 52
13, 52064, Note_on_c, 10, 72, 0
13, 52080, Note_on_c, 10, 69, 52
13, 52184, Note_on_c, 10, 69, 0
13, 52200, Note_on_c, 10, 69, 52
13, 52304, Note_on_c, 10, 69, 0
13, 52320, Note_on_c, 10, 72, 52
13, 52424, Note_on_c, 10, 72, 0
13, 52440, Note_on_c, 10, 69, 52
13, 52544, Note_on_c, 10, 69, 0
13, 52560, Note_on_c, 10, 69, 52
13, 52664, Note_on_c, 10, 69, 0
13, 52680, Note_on_c, 10, 72, 52
13, 52784, Note_on_c, 10, 72, 0
13, 52800, Note_on_c, 10, 67, 52
13, 52904, Note_on_c, 10, 67, 0
13, 52920, Note_on_c, 10, 67, 52
13, 53024, Note_on_c, 10, 67, 0
13, 53040, Note_on_c, 10, 72, 52
13, 53144, Note_on_c, 10, 72, 0
13, 53160, Note_on_c, 10, 67, 52
13, 53264, Note_on_c, 10, 67, 0
13, 53280, Note_on_c, 10, 67, 52
13, 53384, Note_on_c, 10, 67, 0
13, 53400, Note_on_c, 10, 72, 52
13, 53504, Note_on_c, 10, 72, 0
13, 53520, Note_on_c, 10, 69, 52
13, 53624, Note_on_c, 10, 69, 0
13, 53640, Note_on_c, 10, 69, 52
13, 53744, Note_on_c, 10, 69, 0
13, 53760, Note_on_c, 10, 72, 52
13, 53864, Note_on_c, 10, 72, 0
13, 53880, Note_on_c, 10, 69, 52
13, 53984, Note_on_c, 10, 69, 0
13, 54000, Note_on_c, 10, 69, 52
13, 54104, Note_on_c, 10, 69, 0
13, 54120, Note_on_c, 10, 72, 52
13, 54224, Note_on_c, 10, 72, 0
13, 54240, Note_on_c, 10, 67, 52
13, 54344, Note_on_c, 10, 67, 0
13, 54360, Note_on_c, 10, 67, 52
13, 54464, Note_on_c, 10, 67, 0
13, 54480, Note_on_c, 10, 72, 52
13, 54584, Note_on_c, 10, 72, 0
13, 54600, Note_on_c, 10, 67, 52
13, 54704, Note_on_c, 10, 67, 0
13, 54720, Note_on_c, 10, 67, 52
13, 54824, Note_on_c, 10, 67, 0
13, 54838, Control_c, 10, 11, 80
13, 54840, Note_on_c, 10, 77, 76
13, 55544, Note_on_c, 10, 77, 0
13, 55560, Note_on_c, 10, 76, 76
13, 56264, Note_on_c, 10, 76, 0
13, 56280, Note_on_c, 10, 77, 76
13, 56280, Control_c, 10, 11, 80
13, 56340, Control_c, 10, 11, 82
13, 56400, Control_c, 10, 11, 84
13, 56460, Control_c, 10, 11, 86
13, 56520, Control_c, 10, 11, 88
13, 56580, Control_c, 10, 11, 90
13, 56640, Control_c, 10, 11, 92
13, 56700, Control_c, 10, 11, 94
13, 56760, Control_c, 10, 11, 96
13, 56820, Control_c, 10, 11, 98
13, 56880, Control_c, 10, 11, 100
13, 56940, Control_c, 10, 11, 102
13, 56984, Note_on_c, 10, 77, 0
13, 57000, Note_on_c, 10, 76, 76
13, 57000, Control_c, 10, 11, 104
13, 57060, Control_c, 10, 11, 105
13, 57120, Control_c, 10, 11, 107
13, 57180, Control_c, 10, 11, 109
13, 57240, Control_c, 10, 11, 111
13, 57300, Control_c, 10, 11, 113
13, 57360, Control_c, 10, 11, 115
13, 57420, Control_c, 10, 11, 117
13, 57480, Control_c, 10, 11, 119
13, 57540, Control_c, 10, 11, 121
13, 57600, Control_c, 10, 11, 123
13, 57660, Control_c, 10, 11, 127
13, 57704, Note_on_c, 10, 76, 0
13, 57720, Note_on_c, 10, 77, 76
13, 57839, Note_on_c, 10, 77, 0
13, 59160, Note_on_c, 10, 65, 84
13, 59279, Note_on_c, 10, 65, 0
13, 59280, Note_on_c, 10, 67, 84
13, 59339, Note_on_c, 10, 67, 0
13, 59340, Note_on_c, 10, 65, 84
13, 59399, Note_on_c, 10, 65, 0
13, 59400, Note_on_c, 10, 60, 84
13, 59519, Note_on_c, 10, 60, 0
13, 59520, Note_on_c, 10, 62, 84
13, 59579, Note_on_c, 10, 62, 0
13, 59580, Note_on_c, 10, 64, 84
13, 59631, Note_on_c, 10, 64, 0
13, 59640, Note_on_c, 10, 65, 92
13, 59759, Note_on_c, 10, 65, 0
13, 59760, Note_on_c, 10, 67, 84
13, 59819, Note_on_c, 10, 67, 0
13, 59820, Note_on_c, 10, 65, 84
13, 59871, Note_on_c, 10, 65, 0
13, 59880, Note_on_c, 10, 60, 84
13, 60104, Note_on_c, 10, 60, 0
13, 60120, Note_on_c, 10, 58, 92
13, 60179, Note_on_c, 10, 58, 0
13, 60180, Note_on_c, 10, 60, 84
13, 60239, Note_on_c, 10, 60, 0
13, 60240, Note_on_c, 10, 62, 84
13, 60299, Note_on_c, 10, 62, 0
13, 60300, Note_on_c, 10, 63, 84
13, 60359, Note_on_c, 10, 63, 0
13, 60360, Note_on_c, 10, 65, 84
13, 60449, Note_on_c, 10, 65, 0
13, 60480, Note_on_c, 10, 65, 84
13, 60509, Note_on_c, 10, 65, 0
13, 60510, Note_on_c, 10, 67, 84
13, 60591, Note_on_c, 10, 67, 0
13, 60600, Note_on_c, 10, 60, 92
13, 60689, Note_on_c, 10, 60, 0
13, 60720, Note_on_c, 10, 60, 84
13, 60749, Note_on_c, 10, 60, 0
13, 60750, Note_on_c, 10, 65, 84
13, 60831, Note_on_c, 10, 65, 0
13, 60840, Note_on_c, 10, 58, 84
13, 61064, Note_on_c, 10, 58, 0
13, 61080, Note_on_c, 10, 65, 92
13, 61199, Note_on_c, 10, 65, 0
13, 61200, Note_on_c, 10, 67, 84
13, 61259, Note_on_c, 10, 67, 0
13, 61260, Note_on_c, 10, 65, 84
13, 61319, Note_on_c, 10, 65, 0
13, 61320, Note_on_c, 10, 60, 84
13, 61439, Note_on_c, 10, 60, 0
13, 61440, Note_on_c, 10, 62, 84
13, 61499, Note_on_c, 10, 62, 0
13, 61500, Note_on_c, 10, 64, 84
13, 61551, Note_on_c, 10, 64, 0
13, 61560, Note_on_c, 10, 65, 92
13, 61679, Note_on_c, 10, 65, 0
13, 61680, Note_on_c, 10, 67, 84
13, 61739, Note_on_c, 10, 67, 0
13, 61740, Note_on_c, 10, 65, 84
13, 61791, Note_on_c, 10, 65, 0
13, 61800, Note_on_c, 10, 60, 84
13, 62024, Note_on_c, 10, 60, 0
13, 62040, Note_on_c, 10, 58, 92
13, 62099, Note_on_c, 10, 58, 0
13, 62100, Note_on_c, 10, 60, 84
13, 62159, Note_on_c, 10, 60, 0
13, 62160, Note_on_c, 10, 62, 84
13, 62219, Note_on_c, 10, 62, 0
13, 62220, Note_on_c, 10, 63, 84
13, 62279, Note_on_c, 10, 63, 0
13, 62280, Note_on_c, 10, 65, 84
13, 62369, Note_on_c, 10, 65, 0
13, 62400, Note_on_c, 10, 65, 84
13, 62429, Note_on_c, 10, 65, 0
13, 62430, Note_on_c, 10, 67, 84
13, 62511, Note_on_c, 10, 67, 0
13, 62520, Note_on_c, 10, 60, 92
13, 62609, Note_on_c, 10, 60, 0
13, 62640, Note_on_c, 10, 60, 84
13, 62669, Note_on_c, 10, 60, 0
13, 62670, Note_on_c, 10, 65, 84
13, 62751, Note_on_c, 10, 65, 0
13, 62760, Note_on_c, 10, 58, 84
13, 62984, Note_on_c, 10, 58, 0
13, 63000, Note_on_c, 10, 65, 92
13, 63119, Note_on_c, 10, 65, 0
13, 63120, Note_on_c, 10, 67, 84
13, 63179, Note_on_c, 10, 67, 0
13, 63180, Note_on_c, 10, 65, 84
13, 63239, Note_on_c, 10, 65, 0
13, 63240, Note_on_c, 10, 60, 84
13, 63359, Note_on_c, 10, 60, 0
13, 63360, Note_on_c, 10, 62, 84
13, 63419, Note_on_c, 10, 62, 0
13, 63420, Note_on_c, 10, 64, 84
13, 63471, Note_on_c, 10, 64, 0
13, 63480, Note_on_c, 10, 65, 92
13, 63599, Note_on_c, 10, 65, 0
13, 63600, Note_on_c, 10, 67, 84
13, 63659, Note_on_c, 10, 67, 0
13, 63660, Note_on_c, 10, 65, 84
13, 63711, Note_on_c, 10, 65, 0
13, 63720, Note_on_c, 10, 60, 84
13, 63944, Note_on_c, 10, 60, 0
13, 63960, Note_on_c, 10, 58, 92
13, 64019, Note_on_c, 10, 58, 0
13, 64020, Note_on_c, 10, 60, 84
13, 64079, Note_on_c, 10, 60, 0
13, 64080, Note_on_c, 10, 62, 84
13, 64139, Note_on_c, 10, 62, 0
13, 64140, Note_on_c, 10, 63, 84
13, 64199, Note_on_c, 10, 63, 0
13, 64200, Note_on_c, 10, 65, 84
13, 64289, Note_on_c, 10, 65, 0
13, 64320, Note_on_c, 10, 65, 84
13, 64349, Note_on_c, 10, 65, 0
13, 64350, Note_on_c, 10, 67, 84
13, 64431, Note_on_c, 10, 67, 0
13, 64440, Note_on_c, 10, 60, 92
13, 64529, Note_on_c, 10, 60, 0
13, 64560, Note_on_c, 10, 60, 84
13, 64589, Note_on_c, 10, 60, 0
13, 64590, Note_on_c, 10, 65, 84
13, 64671, Note_on_c, 10, 65, 0
13, 64680, Note_on_c, 10, 58, 84
13, 64904, Note_on_c, 10, 58, 0
13, 64920, Note_on_c, 10, 65, 92
13, 65039, Note_on_c, 10, 65, 0
13, 65040, Note_on_c, 10, 67, 84
13, 65099, Note_on_c, 10, 67, 0
13, 65100, Note_on_c, 10, 65, 84
13, 65159, Note_on_c, 10, 65, 0
13, 65160, Note_on_c, 10, 60, 84
13, 65279, Note_on_c, 10, 60, 0
13, 65280, Note_on_c, 10, 62, 84
13, 65339, Note_on_c, 10, 62, 0
13, 65340, Note_on_c, 10, 64, 84
13, 65391, Note_on_c, 10, 64, 0
13, 65400, Note_on_c, 10, 65, 92
13, 65519, Note_on_c, 10, 65, 0
13, 65520, Note_on_c, 10, 67, 84
13, 65579, Note_on_c, 10, 67, 0
13, 65580, Note_on_c, 10, 65, 84
13, 65631, Note_on_c, 10, 65, 0
13, 65640, Note_on_c, 10, 60, 84
13, 65864, Note_on_c, 10, 60, 0
13, 65880, Note_on_c, 10, 58, 92
13, 65939, Note_on_c, 10, 58, 0
13, 65940, Note_on_c, 10, 60, 84
13, 65999, Note_on_c, 10, 60, 0
13, 66000, Note_on_c, 10, 62, 84
13, 66059, Note_on_c, 10, 62, 0
13, 66060, Note_on_c, 10, 63, 84
13, 66119, Note_on_c, 10, 63, 0
13, 66120, Note_on_c, 10, 65, 84
13, 66209, Note_on_c, 10, 65, 0
13, 66240, Note_on_c, 10, 65, 84
13, 66269, Note_on_c, 10, 65, 0
13, 66270, Note_on_c, 10, 67, 84
13, 66351, Note_on_c, 10, 67, 0
13, 66360, Note_on_c, 10, 60, 92
13, 66449, Note_on_c, 10, 60, 0
13, 66480, Note_on_c, 10, 60, 84
13, 66509, Note_on_c, 10, 60, 0
13, 66510, Note_on_c, 10, 65, 84
13, 66591, Note_on_c, 10, 65, 0
13, 66600, Note_on_c, 10, 58, 84
13, 66824, Note_on_c, 10, 58, 0
13, 66840, Note_on_c, 10, 72, 92
13, 66899, Note_on_c, 10, 72, 0
13, 66900, Note_on_c, 10, 72, 84
13, 67079, Note_on_c, 10, 72, 0
13, 67080, Note_on_c, 10, 77, 84
13, 67304, Note_on_c, 10, 77, 0
13, 67320, Note_on_c, 10, 76, 92
13, 67379, Note_on_c, 10, 76, 0
13, 67380, Note_on_c, 10, 76, 84
13, 67559, Note_on_c, 10, 76, 0
13, 67560, Note_on_c, 10, 82, 84
13, 67784, Note_on_c, 10, 82, 0
13, 67800, Note_on_c, 10, 81, 92
13, 67859, Note_on_c, 10, 81, 0
13, 67860, Note_on_c, 10, 81, 84
13, 68039, Note_on_c, 10, 81, 0
13, 68040, Note_on_c, 10, 77, 84
13, 68264, Note_on_c, 10, 77, 0
13, 68280, Note_on_c, 10, 76, 84
13, 68519, Note_on_c, 10, 76, 0
13, 68520, Note_on_c, 10, 77, 84
13, 68744, Note_on_c, 10, 77, 0
13, 68760, Note_on_c, 10, 72, 84
13, 68999, Note_on_c, 10, 72, 0
13, 69000, Note_on_c, 10, 77, 84
13, 69224, Note_on_c, 10, 77, 0
13, 69240, Note_on_c, 10, 76, 84
13, 69479, Note_on_c, 10, 76, 0
13, 69480, Note_on_c, 10, 82, 84
13, 69704, Note_on_c, 10, 82, 0
13, 69720, Note_on_c, 10, 81, 84
13, 69959, Note_on_c, 10, 81, 0
13, 69960, Note_on_c, 10, 77, 84
13, 70184, Note_on_c, 10, 77, 0
13, 70200, Note_on_c, 10, 76, 84
13, 70439, Note_on_c, 10, 76, 0
13, 70440, Note_on_c, 10, 77, 84
13, 70664, Note_on_c, 10, 77, 0
13, 70680, Note_on_c, 10, 72, 84
13, 70919, Note_on_c, 10, 72, 0
13, 70920, Note_on_c, 10, 77, 84
13, 71159, Note_on_c, 10, 77, 0
13, 71160, Note_on_c, 10, 76, 84
13, 71504, Note_on_c, 10, 76, 0
13, 71520, Note_on_c, 10, 81, 84
13, 71587, Note_on_c, 10, 81, 0
13, 71595, Note_on_c, 10, 81, 84
13, 71609, Note_on_c, 10, 81, 0
13, 71610, Note_on_c, 10, 79, 84
13, 71624, Note_on_c, 10, 79, 0
13, 71625, Note_on_c, 10, 77, 84
13, 71639, Note_on_c, 10, 77, 0
13, 71640, Note_on_c, 10, 79, 84
13, 71729, Note_on_c, 10, 79, 0
13, 71835, Note_on_c, 10, 79, 84
13, 71849, Note_on_c, 10, 79, 0
13, 71850, Note_on_c, 10, 77, 84
13, 71864, Note_on_c, 10, 77, 0
13, 71865, Note_on_c, 10, 76, 84
13, 71879, Note_on_c, 10, 76, 0
13, 71880, Note_on_c, 10, 77, 84
13, 71969, Note_on_c, 10, 77, 0
13, 72075, Note_on_c, 10, 77, 84
13, 72089, Note_on_c, 10, 77, 0
13, 72090, Note_on_c, 10, 76, 84
13, 72104, Note_on_c, 10, 76, 0
13, 72105, Note_on_c, 10, 74, 84
13, 72119, Note_on_c, 10, 74, 0
13, 72120, Note_on_c, 10, 76, 84
13, 72209, Note_on_c, 10, 76, 0
13, 72315, Note_on_c, 10, 76, 84
13, 72329, Note_on_c, 10, 76, 0
13, 72330, Note_on_c, 10, 74, 84
13, 72344, Note_on_c, 10, 74, 0
13, 72345, Note_on_c, 10, 72, 84
13, 72359, Note_on_c, 10, 72, 0
13, 72360, Note_on_c, 10, 74, 84
13, 72449, Note_on_c, 10, 74, 0
13, 72600, Note_on_c, 10, 72, 84
13, 72704, Note_on_c, 10, 72, 0
13, 72720, Note_on_c, 10, 72, 84
13, 72824, Note_on_c, 10, 72, 0
13, 72840, Note_on_c, 10, 77, 84
13, 72944, Note_on_c, 10, 77, 0
13, 72960, Note_on_c, 10, 77, 84
13, 73064, Note_on_c, 10, 77, 0
13, 73080, Note_on_c, 10, 76, 84
13, 73184, Note_on_c, 10, 76, 0
13, 73200, Note_on_c, 10, 76, 84
13, 73319, Note_on_c, 10, 76, 0
13, 73440, Note_on_c, 10, 81, 84
13, 73559, Note_on_c, 10, 81, 0
13, 73680, Note_on_c, 10, 79, 84
13, 73799, Note_on_c, 10, 79, 0
13, 73920, Note_on_c, 10, 77, 84
13, 74039, Note_on_c, 10, 77, 0
13, 74160, Note_on_c, 10, 76, 84
13, 74279, Note_on_c, 10, 76, 0
13, 74400, Note_on_c, 10, 74, 84
13, 74504, Note_on_c, 10, 74, 0
13, 74518, Control_c, 10, 11, 112
13, 74520, Control_c, 10, 11, 112
13, 74520, Note_on_c, 10, 72, 92
13, 74712, Control_c, 10, 11, 113
13, 74864, Note_on_c, 10, 72, 0
13, 74880, Note_on_c, 10, 76, 92
13, 74904, Control_c, 10, 11, 114
13, 74984, Note_on_c, 10, 76, 0
13, 75000, Note_on_c, 10, 76, 92
13, 75096, Control_c, 10, 11, 115
13, 75288, Control_c, 10, 11, 116
13, 75344, Note_on_c, 10, 76, 0
13, 75360, Note_on_c, 10, 72, 92
13, 75464, Note_on_c, 10, 72, 0
13, 75480, Note_on_c, 10, 72, 92
13, 75480, Control_c, 10, 11, 117
13, 75672, Control_c, 10, 11, 118
13, 75824, Note_on_c, 10, 72, 0
13, 75840, Note_on_c, 10, 79, 92
13, 75864, Control_c, 10, 11, 119
13, 75944, Note_on_c, 10, 79, 0
13, 75960, Note_on_c, 10, 79, 92
13, 76056, Control_c, 10, 11, 120
13, 76248, Control_c, 10, 11, 121
13, 76304, Note_on_c, 10, 79, 0
13, 76320, Note_on_c, 10, 72, 92
13, 76424, Note_on_c, 10, 72, 0
13, 76440, Control_c, 10, 11, 122
13, 76440, Note_on_c, 10, 72, 92
13, 76544, Note_on_c, 10, 72, 0
13, 76560, Note_on_c, 10, 84, 92
13, 76632, Control_c, 10, 11, 123
13, 76664, Note_on_c, 10, 84, 0
13, 76680, Note_on_c, 10, 84, 92
13, 76784, Note_on_c, 10, 84, 0
13, 76800, Note_on_c, 10, 76, 92
13, 76824, Control_c, 10, 11, 124
13, 76904, Note_on_c, 10, 76, 0
13, 76920, Note_on_c, 10, 76, 92
13, 77016, Control_c, 10, 11, 125
13, 77024, Note_on_c, 10, 76, 0
13, 77040, Note_on_c, 10, 88, 92
13, 77144, Note_on_c, 10, 88, 0
13, 77160, Note_on_c, 10, 88, 92
13, 77208, Control_c, 10, 11, 127
13, 77264, Note_on_c, 10, 88, 0
13, 77280, Note_on_c, 10, 76, 92
13, 77384, Note_on_c, 10, 76, 0
13, 77400, Note_on_c, 10, 64, 84
13, 77400, Note_on_c, 10, 76, 84
13, 77400, Note_on_c, 10, 55, 84
13, 77400, Control_c, 10, 11, 127
13, 77440, Control_c, 10, 11, 122
13, 77480, Control_c, 10, 11, 117
13, 77520, Control_c, 10, 11, 111
13, 77560, Control_c, 10, 11, 106
13, 77600, Control_c, 10, 11, 101
13, 77639, Note_on_c, 10, 64, 0
13, 77639, Note_on_c, 10, 55, 0
13, 77640, Control_c, 10, 11, 96
13, 77680, Control_c, 10, 11, 90
13, 77720, Control_c, 10, 11, 85
13, 77760, Control_c, 10, 11, 80
13, 77800, Control_c, 10, 11, 75
13, 77840, Control_c, 10, 11, 69
13, 77864, Note_on_c, 10, 76, 0
13, 77878, Control_c, 10, 11, 80
13, 77880, Note_on_c, 10, 72, 76
13, 78118, Control_c, 10, 11, 96
13, 78224, Note_on_c, 10, 72, 0
13, 78240, Note_on_c, 10, 72, 60
13, 78329, Note_on_c, 10, 72, 0
13, 78360, Note_on_c, 10, 77, 60
13, 78449, Note_on_c, 10, 77, 0
13, 78480, Note_on_c, 10, 72, 60
13, 78569, Note_on_c, 10, 72, 0
13, 78600, Note_on_c, 10, 74, 60
13, 78689, Note_on_c, 10, 74, 0
13, 78720, Note_on_c, 10, 72, 60
13, 78809, Note_on_c, 10, 72, 0
13, 78840, Note_on_c, 10, 69, 60
13, 78929, Note_on_c, 10, 69, 0
13, 78960, Note_on_c, 10, 70, 60
13, 79049, Note_on_c, 10, 70, 0
13, 79078, Control_c, 10, 11, 112
13, 79080, Note_on_c, 10, 69, 52
13, 79169, Note_on_c, 10, 69, 0
13, 79200, Note_on_c, 10, 65, 52
13, 79289, Note_on_c, 10, 65, 0
13, 79320, Note_on_c, 10, 67, 52
13, 79409, Note_on_c, 10, 67, 0
13, 79440, Note_on_c, 10, 69, 52
13, 79529, Note_on_c, 10, 69, 0
13, 79560, Note_on_c, 10, 65, 52
13, 79649, Note_on_c, 10, 65, 0
13, 79680, Note_on_c, 10, 67, 52
13, 79769, Note_on_c, 10, 67, 0
13, 79780, Note_on_c, 10, 65, 52
13, 79799, Note_on_c, 10, 65, 0
13, 79800, Note_on_c, 10, 69, 52
13, 79889, Note_on_c, 10, 69, 0
13, 79920, Note_on_c, 10, 65, 52
13, 80009, Note_on_c, 10, 65, 0
13, 80040, Note_on_c, 10, 67, 52
13, 80129, Note_on_c, 10, 67, 0
13, 80140, Note_on_c, 10, 62, 52
13, 80159, Note_on_c, 10, 62, 0
13, 80160, Note_on_c, 10, 65, 52
13, 80249, Note_on_c, 10, 65, 0
13, 80280, Note_on_c, 10, 62, 52
13, 80369, Note_on_c, 10, 62, 0
13, 80400, Note_on_c, 10, 64, 52
13, 80489, Note_on_c, 10, 64, 0
13, 80500, Note_on_c, 10, 57, 52
13, 80519, Note_on_c, 10, 57, 0
13, 80520, Note_on_c, 10, 62, 52
13, 80609, Note_on_c, 10, 62, 0
13, 80640, Note_on_c, 10, 57, 52
13, 80729, Note_on_c, 10, 57, 0
13, 80760, Note_on_c, 10, 57, 52
13, 80849, Note_on_c, 10, 57, 0
13, 80880, Note_on_c, 10, 57, 52
13, 80999, Note_on_c, 10, 57, 0
13, 81118, Control_c, 10, 11, 127
13, 81120, Note_on_c, 10, 69, 48
13, 81239, Note_on_c, 10, 69, 0
13, 81240, Note_on_c, 10, 74, 48
13, 81479, Note_on_c, 10, 74, 0
13, 81480, Note_on_c, 10, 78, 48
13, 81599, Note_on_c, 10, 78, 0
13, 81600, Note_on_c, 10, 81, 48
13, 81719, Note_on_c, 10, 81, 0
13, 81720, Note_on_c, 10, 78, 48
13, 81824, Note_on_c, 10, 78, 0
13, 81840, Note_on_c, 10, 78, 48
13, 81959, Note_on_c, 10, 78, 0
13, 81960, Note_on_c, 10, 81, 48
13, 82079, Note_on_c, 10, 81, 0
13, 82080, Note_on_c, 10, 85, 48
13, 82199, Note_on_c, 10, 85, 0
13, 82200, Note_on_c, 10, 86, 48
13, 82259, Note_on_c, 10, 86, 0
13, 82260, Note_on_c, 10, 83, 48
13, 82319, Note_on_c, 10, 83, 0
13, 82320, Note_on_c, 10, 81, 48
13, 82544, Note_on_c, 10, 81, 0
13, 82560, Note_on_c, 10, 85, 48
13, 82679, Note_on_c, 10, 85, 0
13, 82680, Note_on_c, 10, 86, 48
13, 82799, Note_on_c, 10, 86, 0
13, 82800, Note_on_c, 10, 81, 48
13, 82919, Note_on_c, 10, 81, 0
13, 82920, Note_on_c, 10, 83, 48
13, 83039, Note_on_c, 10, 83, 0
13, 83040, Note_on_c, 10, 81, 48
13, 83159, Note_on_c, 10, 81, 0
13, 83160, Note_on_c, 10, 78, 48
13, 83279, Note_on_c, 10, 78, 0
13, 83280, Note_on_c, 10, 79, 48
13, 83399, Note_on_c, 10, 79, 0
13, 83400, Note_on_c, 10, 78, 48
13, 83519, Note_on_c, 10, 78, 0
13, 83520, Note_on_c, 10, 74, 48
13, 83639, Note_on_c, 10, 74, 0
13, 83640, Note_on_c, 10, 78, 48
13, 83699, Note_on_c, 10, 78, 0
13, 83700, Note_on_c, 10, 76, 48
13, 83759, Note_on_c, 10, 76, 0
13, 83760, Note_on_c, 10, 74, 48
13, 83879, Note_on_c, 10, 74, 0
13, 84000, Note_on_c, 10, 72, 44
13, 84089, Note_on_c, 10, 72, 0
13, 84120, Note_on_c, 10, 77, 44
13, 84209, Note_on_c, 10, 77, 0
13, 84240, Note_on_c, 10, 72, 44
13, 84329, Note_on_c, 10, 72, 0
13, 84360, Note_on_c, 10, 74, 44
13, 84449, Note_on_c, 10, 74, 0
13, 84480, Note_on_c, 10, 72, 44
13, 84569, Note_on_c, 10, 72, 0
13, 84600, Note_on_c, 10, 69, 44
13, 84689, Note_on_c, 10, 69, 0
13, 84720, Note_on_c, 10, 70, 44
13, 84809, Note_on_c, 10, 70, 0
13, 84840, Note_on_c, 10, 69, 44
13, 84929, Note_on_c, 10, 69, 0
13, 84960, Note_on_c, 10, 65, 44
13, 85049, Note_on_c, 10, 65, 0
13, 85080, Note_on_c, 10, 67, 44
13, 85169, Note_on_c, 10, 67, 0
13, 85200, Note_on_c, 10, 69, 44
13, 85289, Note_on_c, 10, 69, 0
13, 85320, Note_on_c, 10, 65, 44
13, 85409, Note_on_c, 10, 65, 0
13, 85440, Note_on_c, 10, 67, 44
13, 85529, Note_on_c, 10, 67, 0
13, 85540, Note_on_c, 10, 65, 44
13, 85559, Note_on_c, 10, 65, 0
13, 85560, Note_on_c, 10, 69, 44
13, 85649, Note_on_c, 10, 69, 0
13, 85680, Note_on_c, 10, 65, 44
13, 85769, Note_on_c, 10, 65, 0
13, 85800, Note_on_c, 10, 67, 44
13, 85889, Note_on_c, 10, 67, 0
13, 85900, Note_on_c, 10, 62, 44
13, 85919, Note_on_c, 10, 62, 0
13, 85920, Note_on_c, 10, 65, 44
13, 86009, Note_on_c, 10, 65, 0
13, 86040, Note_on_c, 10, 62, 44
13, 86129, Note_on_c, 10, 62, 0
13, 86160, Note_on_c, 10, 64, 44
13, 86249, Note_on_c, 10, 64, 0
13, 86260, Note_on_c, 10, 57, 44
13, 86279, Note_on_c, 10, 57, 0
13, 86280, Note_on_c, 10, 62, 44
13, 86369, Note_on_c, 10, 62, 0
13, 86400, Note_on_c, 10, 57, 44
13, 86489, Note_on_c, 10, 57, 0
13, 86520, Note_on_c, 10, 57, 44
13, 86609, Note_on_c, 10, 57, 0
13, 86640, Note_on_c, 10, 57, 44
13, 86759, Note_on_c, 10, 57, 0
13, 86880, Note_on_c, 10, 69, 48
13, 86999, Note_on_c, 10, 69, 0
13, 87000, Note_on_c, 10, 74, 48
13, 87239, Note_on_c, 10, 74, 0
13, 87240, Note_on_c, 10, 78, 48
13, 87359, Note_on_c, 10, 78, 0
13, 87360, Note_on_c, 10, 81, 48
13, 87479, Note_on_c, 10, 81, 0
13, 87480, Note_on_c, 10, 78, 48
13, 87584, Note_on_c, 10, 78, 0
13, 87600, Note_on_c, 10, 78, 48
13, 87719, Note_on_c, 10, 78, 0
13, 87720, Note_on_c, 10, 81, 48
13, 87839, Note_on_c, 10, 81, 0
13, 87840, Note_on_c, 10, 85, 48
13, 87959, Note_on_c, 10, 85, 0
13, 87960, Note_on_c, 10, 86, 48
13, 88019, Note_on_c, 10, 86, 0
13, 88020, Note_on_c, 10, 83, 48
13, 88079, Note_on_c, 10, 83, 0
13, 88080, Note_on_c, 10, 81, 48
13, 88304, Note_on_c, 10, 81, 0
13, 88320, Note_on_c, 10, 85, 48
13, 88439, Note_on_c, 10, 85, 0
13, 88440, Note_on_c, 10, 86, 48
13, 88559, Note_on_c, 10, 86, 0
13, 88560, Note_on_c, 10, 81, 48
13, 88679, Note_on_c, 10, 81, 0
13, 88680, Note_on_c, 10, 83, 48
13, 88799, Note_on_c, 10, 83, 0
13, 88800, Note_on_c, 10, 81, 48
13, 88919, Note_on_c, 10, 81, 0
13, 88920, Note_on_c, 10, 78, 48
13, 89039, Note_on_c, 10, 78, 0
13, 89040, Note_on_c, 10, 79, 48
13, 89159, Note_on_c, 10, 79, 0
13, 89160, Note_on_c, 10, 78, 48
13, 89279, Note_on_c, 10, 78, 0
13, 89280, Note_on_c, 10, 74, 48
13, 89399, Note_on_c, 10, 74, 0
13, 89400, Note_on_c, 10, 78, 48
13, 89459, Note_on_c, 10, 78, 0
13, 89460, Note_on_c, 10, 76, 48
13, 89519, Note_on_c, 10, 76, 0
13, 89520, Note_on_c, 10, 74, 48
13, 89639, Note_on_c, 10, 74, 0
13, 89760, Note_on_c, 10, 81, 44
13, 89849, Note_on_c, 10, 81, 0
13, 89880, Note_on_c, 10, 86, 44
13, 89969, Note_on_c, 10, 86, 0
13, 90000, Note_on_c, 10, 81, 44
13, 90089, Note_on_c, 10, 81, 0
13, 90120, Note_on_c, 10, 83, 44
13, 90209, Note_on_c, 10, 83, 0
13, 90240, Note_on_c, 10, 81, 44
13, 90329, Note_on_c, 10, 81, 0
13, 90360, Note_on_c, 10, 78, 44
13, 90449, Note_on_c, 10, 78, 0
13, 90480, Note_on_c, 10, 79, 44
13, 90569, Note_on_c, 10, 79, 0
13, 90600, Note_on_c, 10, 78, 44
13, 90689, Note_on_c, 10, 78, 0
13, 90720, Note_on_c, 10, 74, 44
13, 90809, Note_on_c, 10, 74, 0
13, 90840, Note_on_c, 10, 76, 44
13, 90929, Note_on_c, 10, 76, 0
13, 90960, Note_on_c, 10, 78, 44
13, 91049, Note_on_c, 10, 78, 0
13, 91080, Note_on_c, 10, 74, 44
13, 91169, Note_on_c, 10, 74, 0
13, 91200, Note_on_c, 10, 74, 44
13, 91289, Note_on_c, 10, 74, 0
13, 91320, Note_on_c, 10, 79, 44
13, 91409, Note_on_c, 10, 79, 0
13, 91440, Note_on_c, 10, 74, 44
13, 91529, Note_on_c, 10, 74, 0
13, 91560, Note_on_c, 10, 76, 44
13, 91649, Note_on_c, 10, 76, 0
13, 91680, Note_on_c, 10, 74, 44
13, 91769, Note_on_c, 10, 74, 0
13, 91800, Note_on_c, 10, 71, 44
13, 91889, Note_on_c, 10, 71, 0
13, 91920, Note_on_c, 10, 72, 44
13, 92009, Note_on_c, 10, 72, 0
13, 92040, Note_on_c, 10, 71, 44
13, 92129, Note_on_c, 10, 71, 0
13, 92160, Note_on_c, 10, 67, 44
13, 92249, Note_on_c, 10, 67, 0
13, 92280, Note_on_c, 10, 69, 44
13, 92369, Note_on_c, 10, 69, 0
13, 92400, Note_on_c, 10, 71, 48
13, 92504, Note_on_c, 10, 71, 0
13, 92520, Note_on_c, 10, 67, 48
13, 92624, Note_on_c, 10, 67, 0
13, 92640, Note_on_c, 10, 67, 48
13, 92759, Note_on_c, 10, 67, 0
13, 92760, Note_on_c, 10, 72, 48
13, 92999, Note_on_c, 10, 72, 0
13, 93000, Note_on_c, 10, 76, 48
13, 93119, Note_on_c, 10, 76, 0
13, 93120, Note_on_c, 10, 79, 48
13, 93239, Note_on_c, 10, 79, 0
13, 93240, Note_on_c, 10, 76, 48
13, 93344, Note_on_c, 10, 76, 0
13, 93360, Note_on_c, 10, 76, 48
13, 93479, Note_on_c, 10, 76, 0
13, 93480, Note_on_c, 10, 79, 48
13, 93599, Note_on_c, 10, 79, 0
13, 93600, Note_on_c, 10, 83, 48
13, 93719, Note_on_c, 10, 83, 0
13, 93720, Note_on_c, 10, 84, 48
13, 93779, Note_on_c, 10, 84, 0
13, 93780, Note_on_c, 10, 81, 48
13, 93839, Note_on_c, 10, 81, 0
13, 93840, Note_on_c, 10, 79, 48
13, 94064, Note_on_c, 10, 79, 0
13, 94080, Note_on_c, 10, 83, 48
13, 94199, Note_on_c, 10, 83, 0
13, 94200, Note_on_c, 10, 84, 48
13, 94319, Note_on_c, 10, 84, 0
13, 94320, Note_on_c, 10, 79, 48
13, 94439, Note_on_c, 10, 79, 0
13, 94440, Note_on_c, 10, 81, 48
13, 94559, Note_on_c, 10, 81, 0
13, 94560, Note_on_c, 10, 79, 48
13, 94679, Note_on_c, 10, 79, 0
13, 94680, Note_on_c, 10, 76, 48
13, 94799, Note_on_c, 10, 76, 0
13, 94800, Note_on_c, 10, 77, 48
13, 94919, Note_on_c, 10, 77, 0
13, 94920, Note_on_c, 10, 76, 48
13, 95039, Note_on_c, 10, 76, 0
13, 95040, Note_on_c, 10, 72, 48
13, 95159, Note_on_c, 10, 72, 0
13, 95160, Note_on_c, 10, 74, 48
13, 95279, Note_on_c, 10, 74, 0
13, 95280, Note_on_c, 10, 76, 48
13, 95399, Note_on_c, 10, 76, 0
13, 95400, Note_on_c, 10, 72, 48
13, 95504, Note_on_c, 10, 72, 0
13, 95518, Control_c, 10, 11, 64
13, 95520, Note_on_c, 10, 72, 84
13, 95520, Control_c, 10, 11, 64
13, 95560, Control_c, 10, 11, 66
13, 95600, Control_c, 10, 11, 68
13, 95639, Note_on_c, 10, 72, 0
13, 95640, Control_c, 10, 11, 69
13, 95640, Note_on_c, 10, 84, 84
13, 95680, Control_c, 10, 11, 71
13, 95720, Control_c, 10, 11, 73
13, 95759, Note_on_c, 10, 84, 0
13, 95760, Control_c, 10, 11, 75
13, 95760, Note_on_c, 10, 81, 84
13, 95800, Control_c, 10, 11, 76
13, 95840, Control_c, 10, 11, 78
13, 95879, Note_on_c, 10, 81, 0
13, 95880, Control_c, 10, 11, 80
13, 95880, Note_on_c, 10, 82, 84
13, 95920, Control_c, 10, 11, 82
13, 95960, Control_c, 10, 11, 83
13, 95999, Note_on_c, 10, 82, 0
13, 96000, Note_on_c, 10, 81, 84
13, 96000, Control_c, 10, 11, 85
13, 96040, Control_c, 10, 11, 87
13, 96080, Control_c, 10, 11, 89
13, 96119, Note_on_c, 10, 81, 0
13, 96120, Note_on_c, 10, 77, 84
13, 96120, Control_c, 10, 11, 90
13, 96160, Control_c, 10, 11, 92
13, 96200, Control_c, 10, 11, 94
13, 96239, Note_on_c, 10, 77, 0
13, 96240, Note_on_c, 10, 79, 84
13, 96240, Control_c, 10, 11, 96
13, 96280, Control_c, 10, 11, 97
13, 96320, Control_c, 10, 11, 99
13, 96359, Note_on_c, 10, 79, 0
13, 96360, Control_c, 10, 11, 101
13, 96360, Note_on_c, 10, 77, 84
13, 96400, Control_c, 10, 11, 103
13, 96440, Control_c, 10, 11, 104
13, 96479, Note_on_c, 10, 77, 0
13, 96480, Note_on_c, 10, 72, 84
13, 96480, Control_c, 10, 11, 106
13, 96520, Control_c, 10, 11, 108
13, 96560, Control_c, 10, 11, 110
13, 96599, Note_on_c, 10, 72, 0
13, 96600, Control_c, 10, 11, 111
13, 96600, Note_on_c, 10, 79, 84
13, 96640, Control_c, 10, 11, 113
13, 96680, Control_c, 10, 11, 115
13, 96719, Note_on_c, 10, 79, 0
13, 96720, Control_c, 10, 11, 117
13, 96720, Note_on_c, 10, 81, 84
13, 96760, Control_c, 10, 11, 118
13, 96800, Control_c, 10, 11, 120
13, 96839, Note_on_c, 10, 81, 0
13, 96840, Control_c, 10, 11, 122
13, 96840, Note_on_c, 10, 77, 84
13, 96880, Control_c, 10, 11, 124
13, 96920, Control_c, 10, 11, 127
13, 96944, Note_on_c, 10, 77, 0
13, 96960, Note_on_c, 10, 84, 84
13, 97049, Note_on_c, 10, 84, 0
13, 97080, Note_on_c, 10, 89, 84
13, 97169, Note_on_c, 10, 89, 0
13, 97200, Note_on_c, 10, 84, 84
13, 97289, Note_on_c, 10, 84, 0
13, 97320, Note_on_c, 10, 86, 84
13, 97409, Note_on_c, 10, 86, 0
13, 97440, Note_on_c, 10, 84, 84
13, 97529, Note_on_c, 10, 84, 0
13, 97560, Note_on_c, 10, 81, 84
13, 97649, Note_on_c, 10, 81, 0
13, 97680, Note_on_c, 10, 82, 84
13, 97769, Note_on_c, 10, 82, 0
13, 97800, Note_on_c, 10, 81, 92
13, 97889, Note_on_c, 10, 81, 0
13, 97920, Note_on_c, 10, 77, 84
13, 98009, Note_on_c, 10, 77, 0
13, 98040, Note_on_c, 10, 79, 84
13, 98129, Note_on_c, 10, 79, 0
13, 98160, Note_on_c, 10, 81, 92
13, 98249, Note_on_c, 10, 81, 0
13, 98280, Note_on_c, 10, 77, 84
13, 98369, Note_on_c, 10, 77, 0
13, 98400, Note_on_c, 10, 79, 84
13, 98489, Note_on_c, 10, 79, 0
13, 98520, Note_on_c, 10, 81, 92
13, 98609, Note_on_c, 10, 81, 0
13, 98640, Note_on_c, 10, 77, 84
13, 98729, Note_on_c, 10, 77, 0
13, 98760, Note_on_c, 10, 79, 84
13, 98849, Note_on_c, 10, 79, 0
13, 98880, Note_on_c, 10, 81, 92
13, 98969, Note_on_c, 10, 81, 0
13, 99000, Note_on_c, 10, 77, 84
13, 99089, Note_on_c, 10, 77, 0
13, 99120, Note_on_c, 10, 79, 84
13, 99209, Note_on_c, 10, 79, 0
13, 99240, Note_on_c, 10, 81, 92
13, 99300, Control_c, 10, 11, 112
13, 99547, Note_on_c, 10, 81, 0
13, 99560, Note_on_c, 10, 79, 92
13, 99579, Note_on_c, 10, 79, 0
13, 99580, Note_on_c, 10, 81, 92
13, 99599, Note_on_c, 10, 81, 0
13, 99600, Note_on_c, 10, 79, 92
13, 99824, Note_on_c, 10, 79, 0
13, 99840, Note_on_c, 10, 77, 92
13, 99907, Note_on_c, 10, 77, 0
13, 99920, Note_on_c, 10, 76, 92
13, 99939, Note_on_c, 10, 76, 0
13, 99940, Note_on_c, 10, 77, 92
13, 99959, Note_on_c, 10, 77, 0
13, 99960, Note_on_c, 10, 76, 92
13, 100184, Note_on_c, 10, 76, 0
13, 100200, Note_on_c, 10, 74, 92
13, 100304, Note_on_c, 10, 74, 0
13, 100320, Note_on_c, 10, 72, 92
13, 100544, Note_on_c, 10, 72, 0
13, 100560, Note_on_c, 10, 76, 92
13, 100664, Note_on_c, 10, 76, 0
13, 100678, Control_c, 10, 11, 127
13, 100680, Note_on_c, 10, 77, 92
13, 100680, Note_on_c, 10, 72, 92
13, 100680, Note_on_c, 10, 65, 92
13, 100740, Control_c, 10, 11, 112
13, 100799, Note_on_c, 10, 72, 0
13, 100799, Note_on_c, 10, 65, 0
13, 101024, Note_on_c, 10, 77, 0
13, 101038, Control_c, 10, 11, 127
13, 101040, Note_on_c, 10, 79, 92
13, 101100, Control_c, 10, 11, 112
13, 101384, Note_on_c, 10, 79, 0
13, 101398, Control_c, 10, 11, 127
13, 101400, Note_on_c, 10, 81, 92
13, 101460, Control_c, 10, 11, 112
13, 101744, Note_on_c, 10, 81, 0
13, 101758, Control_c, 10, 11, 127
13, 101760, Note_on_c, 10, 72, 92
13, 101760, Note_on_c, 10, 64, 92
13, 101760, Note_on_c, 10, 79, 92
13, 101820, Control_c, 10, 11, 112
13, 101879, Note_on_c, 10, 72, 0
13, 101879, Note_on_c, 10, 64, 0
13, 102104, Note_on_c, 10, 79, 0
13, 102120, Note_on_c, 10, 65, 92
13, 102120, Note_on_c, 10, 72, 92
13, 102120, Note_on_c, 10, 81, 92
13, 102239, Note_on_c, 10, 65, 0
13, 102239, Note_on_c, 10, 72, 0
13, 102239, Note_on_c, 10, 81, 0
13, 102360, Note_on_c, 10, 81, 92
13, 102427, Note_on_c, 10, 81, 0
13, 102440, Note_on_c, 10, 79, 92
13, 102459, Note_on_c, 10, 79, 0
13, 102460, Note_on_c, 10, 81, 92
13, 102479, Note_on_c, 10, 81, 0
13, 102480, Note_on_c, 10, 79, 92
13, 102704, Note_on_c, 10, 79, 0
13, 102720, Note_on_c, 10, 77, 92
13, 102787, Note_on_c, 10, 77, 0
13, 102800, Note_on_c, 10, 76, 92
13, 102819, Note_on_c, 10, 76, 0
13, 102820, Note_on_c, 10, 77, 92
13, 102839, Note_on_c, 10, 77, 0
13, 102840, Note_on_c, 10, 76, 92
13, 103064, Note_on_c, 10, 76, 0
13, 103080, Note_on_c, 10, 74, 92
13, 103184, Note_on_c, 10, 74, 0
13, 103200, Note_on_c, 10, 72, 92
13, 103424, Note_on_c, 10, 72, 0
13, 103440, Note_on_c, 10, 76, 92
13, 103544, Note_on_c, 10, 76, 0
13, 103558, Control_c, 10, 11, 127
13, 103560, Note_on_c, 10, 77, 92
13, 103560, Note_on_c, 10, 65, 92
13, 103560, Note_on_c, 10, 72, 92
13, 103620, Control_c, 10, 11, 112
13, 103679, Note_on_c, 10, 65, 0
13, 103679, Note_on_c, 10, 72, 0
13, 103904, Note_on_c, 10, 77, 0
13, 103918, Control_c, 10, 11, 127
13, 103920, Note_on_c, 10, 79, 92
13, 103980, Control_c, 10, 11, 112
13, 104264, Note_on_c, 10, 79, 0
13, 104278, Control_c, 10, 11, 127
13, 104280, Note_on_c, 10, 81, 92
13, 104340, Control_c, 10, 11, 112
13, 104624, Note_on_c, 10, 81, 0
13, 104638, Control_c, 10, 11, 127
13, 104640, Note_on_c, 10, 79, 92
13, 104640, Note_on_c, 10, 72, 92
13, 104640, Note_on_c, 10, 64, 92
13, 104700, Control_c, 10, 11, 112
13, 104759, Note_on_c, 10, 72, 0
13, 104759, Note_on_c, 10, 64, 0
13, 104984, Note_on_c, 10, 79, 0
13, 104998, Control_c, 10, 11, 127
13, 105000, Note_on_c, 10, 65, 92
13, 105000, Note_on_c, 10, 72, 92
13, 105000, Note_on_c, 10, 77, 92
13, 105119, Note_on_c, 10, 65, 0
13, 105119, Note_on_c, 10, 72, 0
13, 105119, Note_on_c, 10, 77, 0
13, 105720, Note_on_c, 10, 69, 84
13, 105771, Note_on_c, 10, 69, 0
13, 105780, Note_on_c, 10, 72, 84
13, 105831, Note_on_c, 10, 72, 0
13, 105840, Note_on_c, 10, 77, 84
13, 105891, Note_on_c, 10, 77, 0
13, 105900, Note_on_c, 10, 81, 84
13, 105951, Note_on_c, 10, 81, 0
13, 105960, Note_on_c, 10, 84, 84
13, 106064, Note_on_c, 10, 84, 0
13, 106080, Note_on_c, 10, 67, 84
13, 106080, Note_on_c, 10, 76, 84
13, 106184, Note_on_c, 10, 67, 0
13, 106184, Note_on_c, 10, 76, 0
13, 106200, Note_on_c, 10, 67, 84
13, 106200, Note_on_c, 10, 76, 84
13, 106304, Note_on_c, 10, 67, 0
13, 106304, Note_on_c, 10, 76, 0
13, 106320, Note_on_c, 10, 76, 84
13, 106320, Note_on_c, 10, 67, 84
13, 106424, Note_on_c, 10, 76, 0
13, 106424, Note_on_c, 10, 67, 0
13, 106440, Note_on_c, 10, 77, 92
13, 106440, Note_on_c, 10, 65, 92
13, 106440, Note_on_c, 10, 69, 92
13, 106559, Note_on_c, 10, 77, 0
13, 106559, Note_on_c, 10, 65, 0
13, 106559, Note_on_c, 10, 69, 0
13, 107160, Note_on_c, 10, 69, 84
13, 107211, Note_on_c, 10, 69, 0
13, 107220, Note_on_c, 10, 72, 84
13, 107271, Note_on_c, 10, 72, 0
13, 107280, Note_on_c, 10, 77, 84
13, 107331, Note_on_c, 10, 77, 0
13, 107340, Note_on_c, 10, 81, 84
13, 107391, Note_on_c, 10, 81, 0
13, 107400, Note_on_c, 10, 84, 84
13, 107504, Note_on_c, 10, 84, 0
13, 107520, Note_on_c, 10, 76, 84
13, 107520, Note_on_c, 10, 67, 84
13, 107624, Note_on_c, 10, 76, 0
13, 107624, Note_on_c, 10, 67, 0
13, 107640, Note_on_c, 10, 76, 84
13, 107640, Note_on_c, 10, 67, 84
13, 107744, Note_on_c, 10, 76, 0
13, 107744, Note_on_c, 10, 67, 0
13, 107760, Note_on_c, 10, 76, 84
13, 107760, Note_on_c, 10, 67, 84
13, 107864, Note_on_c, 10, 76, 0
13, 107864, Note_on_c, 10, 67, 0
13, 107880, Note_on_c, 10, 69, 92
13, 107880, Note_on_c, 10, 65, 92
13, 107880, Note_on_c, 10, 77, 92
13, 107999, Note_on_c, 10, 69, 0
13, 107999, Note_on_c, 10, 65, 0
13, 107999, Note_on_c, 10, 77, 0
13, 108600, Note_on_c, 10, 69, 92
13, 108600, Note_on_c, 10, 65, 92
13, 108600, Note_on_c, 10, 77, 92
13, 108719, Note_on_c, 10, 69, 0
13, 108719, Note_on_c, 10, 65, 0
13, 108719, Note_on_c, 10, 77, 0
13, 109320, Note_on_c, 10, 72, 84
13, 109424, Note_on_c, 10, 72, 0
13, 109440, Note_on_c, 10, 69, 81
13, 109544, Note_on_c, 10, 69, 0
13, 109560, Note_on_c, 10, 69, 78
13, 109664, Note_on_c, 10, 69, 0
13, 109680, Note_on_c, 10, 72, 74
13, 109784, Note_on_c, 10, 72, 0
13, 109800, Note_on_c, 10, 69, 71
13, 109904, Note_on_c, 10, 69, 0
13, 109920, Note_on_c, 10, 69, 68
13, 110024, Note_on_c, 10, 69, 0
13, 110040, Note_on_c, 10, 72, 64
13, 110144, Note_on_c, 10, 72, 0
13, 110160, Note_on_c, 10, 69, 61
13, 110264, Note_on_c, 10, 69, 0
13, 110280, Note_on_c, 10, 69, 58
13, 110384, Note_on_c, 10, 69, 0
13, 110400, Note_on_c, 10, 72, 54
13, 110504, Note_on_c, 10, 72, 0
13, 110520, Note_on_c, 10, 69, 51
13, 110624, Note_on_c, 10, 69, 0
13, 110640, Note_on_c, 10, 69, 48
13, 110744, Note_on_c, 10, 69, 0
13, 110760, Note_on_c, 10, 72, 44
13, 110864, Note_on_c, 10, 72, 0
13, 110880, Note_on_c, 10, 69, 44
13, 110984, Note_on_c, 10, 69, 0
13, 111000, Note_on_c, 10, 69, 44
13, 111104, Note_on_c, 10, 69, 0
13, 111120, Note_on_c, 10, 72, 44
13, 111224, Note_on_c, 10, 72, 0
13, 111240, Note_on_c, 10, 69, 44
13, 111344, Note_on_c, 10, 69, 0
13, 111360, Note_on_c, 10, 69, 44
13, 111464, Note_on_c, 10, 69, 0
13, 111480, Note_on_c, 10, 72, 44
13, 111584, Note_on_c, 10, 72, 0
13, 111600, Note_on_c, 10, 70, 44
13, 111704, Note_on_c, 10, 70, 0
13, 111720, Note_on_c, 10, 70, 44
13, 111824, Note_on_c, 10, 70, 0
13, 111840, Note_on_c, 10, 72, 44
13, 111944, Note_on_c, 10, 72, 0
13, 111960, Note_on_c, 10, 70, 44
13, 112064, Note_on_c, 10, 70, 0
13, 112080, Note_on_c, 10, 70, 44
13, 112184, Note_on_c, 10, 70, 0
13, 112200, Note_on_c, 10, 72, 44
13, 112304, Note_on_c, 10, 72, 0
13, 112320, Note_on_c, 10, 69, 44
13, 112424, Note_on_c, 10, 69, 0
13, 112440, Note_on_c, 10, 69, 44
13, 112544, Note_on_c, 10, 69, 0
13, 112560, Note_on_c, 10, 72, 44
13, 112664, Note_on_c, 10, 72, 0
13, 112680, Note_on_c, 10, 67, 44
13, 112784, Note_on_c, 10, 67, 0
13, 112800, Note_on_c, 10, 67, 44
13, 112904, Note_on_c, 10, 67, 0
13, 112920, Note_on_c, 10, 72, 44
13, 113024, Note_on_c, 10, 72, 0
13, 113040, Note_on_c, 10, 69, 44
13, 113144, Note_on_c, 10, 69, 0
13, 113160, Note_on_c, 10, 69, 44
13, 113264, Note_on_c, 10, 69, 0
13, 113280, Note_on_c, 10, 72, 44
13, 113384, Note_on_c, 10, 72, 0
13, 113400, Note_on_c, 10, 69, 44
13, 113504, Note_on_c, 10, 69, 0
13, 113520, Note_on_c, 10, 69, 44
13, 113624, Note_on_c, 10, 69, 0
13, 113640, Note_on_c, 10, 72, 44
13, 113744, Note_on_c, 10, 72, 0
13, 113760, Note_on_c, 10, 69, 44
13, 113864, Note_on_c, 10, 69, 0
13, 113880, Note_on_c, 10, 69, 44
13, 113984, Note_on_c, 10, 69, 0
13, 114000, Note_on_c, 10, 72, 44
13, 114104, Note_on_c, 10, 72, 0
13, 114120, Note_on_c, 10, 69, 44
13, 114224, Note_on_c, 10, 69, 0
13, 114240, Note_on_c, 10, 69, 44
13, 114344, Note_on_c, 10, 69, 0
13, 114360, Note_on_c, 10, 72, 44
13, 114464, Note_on_c, 10, 72, 0
13, 114480, Note_on_c, 10, 70, 44
13, 114584, Note_on_c, 10, 70, 0
13, 114600, Note_on_c, 10, 70, 44
13, 114704, Note_on_c, 10, 70, 0
13, 114720, Note_on_c, 10, 72, 44
13, 114824, Note_on_c, 10, 72, 0
13, 114840, Note_on_c, 10, 70, 44
13, 114944, Note_on_c, 10, 70, 0
13, 114960, Note_on_c, 10, 70, 44
13, 115064, Note_on_c, 10, 70, 0
13, 115080, Note_on_c, 10, 72, 44
13, 115184, Note_on_c, 10, 72, 0
13, 115200, Note_on_c, 10, 69, 44
13, 115304, Note_on_c, 10, 69, 0
13, 115320, Note_on_c, 10, 69, 44
13, 115424, Note_on_c, 10, 69, 0
13, 115440, Note_on_c, 10, 72, 44
13, 115544, Note_on_c, 10, 72, 0
13, 115560, Note_on_c, 10, 67, 44
13, 115664, Note_on_c, 10, 67, 0
13, 115680, Note_on_c, 10, 67, 44
13, 115784, Note_on_c, 10, 67, 0
13, 115800, Note_on_c, 10, 72, 44
13, 115904, Note_on_c, 10, 72, 0
13, 115920, Note_on_c, 10, 67, 44
13, 116024, Note_on_c, 10, 67, 0
13, 116040, Note_on_c, 10, 67, 44
13, 116144, Note_on_c, 10, 67, 0
13, 116160, Note_on_c, 10, 72, 44
13, 116264, Note_on_c, 10, 72, 0
13, 116280, Note_on_c, 10, 69, 44
13, 116384, Note_on_c, 10, 69, 0
13, 116400, Note_on_c, 10, 69, 44
13, 116504, Note_on_c, 10, 69, 0
13, 116520, Note_on_c, 10, 72, 44
13, 116624, Note_on_c, 10, 72, 0
13, 116640, Note_on_c, 10, 69, 44
13, 116744, Note_on_c, 10, 69, 0
13, 116760, Note_on_c, 10, 69, 44
13, 116864, Note_on_c, 10, 69, 0
13, 116880, Note_on_c, 10, 72, 44
13, 116984, Note_on_c, 10, 72, 0
13, 117000, Note_on_c, 10, 69, 44
13, 117104, Note_on_c, 10, 69, 0
13, 117120, Note_on_c, 10, 69, 44
13, 117224, Note_on_c, 10, 69, 0
13, 117240, Note_on_c, 10, 72, 44
13, 117344, Note_on_c, 10, 72, 0
13, 117360, Note_on_c, 10, 70, 44
13, 117464, Note_on_c, 10, 70, 0
13, 117480, Note_on_c, 10, 70, 44
13, 117584, Note_on_c, 10, 70, 0
13, 117600, Note_on_c, 10, 72, 44
13, 117704, Note_on_c, 10, 72, 0
13, 117720, Note_on_c, 10, 70, 44
13, 117824, Note_on_c, 10, 70, 0
13, 117840, Note_on_c, 10, 70, 44
13, 117944, Note_on_c, 10, 70, 0
13, 117960, Note_on_c, 10, 72, 44
13, 118064, Note_on_c, 10, 72, 0
13, 118080, Note_on_c, 10, 69, 44
13, 118184, Note_on_c, 10, 69, 0
13, 118200, Note_on_c, 10, 69, 44
13, 118304, Note_on_c, 10, 69, 0
13, 118320, Note_on_c, 10, 72, 44
13, 118424, Note_on_c, 10, 72, 0
13, 118440, Note_on_c, 10, 67, 44
13, 118544, Note_on_c, 10, 67, 0
13, 118560, Note_on_c, 10, 67, 44
13, 118664, Note_on_c, 10, 67, 0
13, 118680, Note_on_c, 10, 72, 44
13, 118784, Note_on_c, 10, 72, 0
13, 118800, Note_on_c, 10, 69, 44
13, 118904, Note_on_c, 10, 69, 0
13, 118920, Note_on_c, 10, 69, 44
13, 119024, Note_on_c, 10, 69, 0
13, 119040, Note_on_c, 10, 72, 44
13, 119144, Note_on_c, 10, 72, 0
13, 119160, Note_on_c, 10, 69, 44
13, 119264, Note_on_c, 10, 69, 0
13, 119280, Note_on_c, 10, 69, 44
13, 119384, Note_on_c, 10, 69, 0
13, 119400, Note_on_c, 10, 72, 44
13, 119504, Note_on_c, 10, 72, 0
13, 119520, Note_on_c, 10, 69, 44
13, 119624, Note_on_c, 10, 69, 0
13, 119640, Note_on_c, 10, 69, 44
13, 119744, Note_on_c, 10, 69, 0
13, 119760, Note_on_c, 10, 72, 44
13, 119864, Note_on_c, 10, 72, 0
13, 119880, Note_on_c, 10, 69, 44
13, 119984, Note_on_c, 10, 69, 0
13, 120000, Note_on_c, 10, 69, 44
13, 120104, Note_on_c, 10, 69, 0
13, 120120, Note_on_c, 10, 72, 44
13, 120224, Note_on_c, 10, 72, 0
13, 120240, Note_on_c, 10, 70, 44
13, 120344, Note_on_c, 10, 70, 0
13, 120360, Note_on_c, 10, 70, 44
13, 120464, Note_on_c, 10, 70, 0
13, 120480, Note_on_c, 10, 72, 44
13, 120584, Note_on_c, 10, 72, 0
13, 120600, Note_on_c, 10, 70, 44
13, 120704, Note_on_c, 10, 70, 0
13, 120720, Note_on_c, 10, 70, 44
13, 120824, Note_on_c, 10, 70, 0
13, 120840, Note_on_c, 10, 72, 44
13, 120944, Note_on_c, 10, 72, 0
13, 120960, Note_on_c, 10, 69, 44
13, 121064, Note_on_c, 10, 69, 0
13, 121080, Note_on_c, 10, 69, 44
13, 121184, Note_on_c, 10, 69, 0
13, 121200, Note_on_c, 10, 72, 44
13, 121304, Note_on_c, 10, 72, 0
13, 121320, Note_on_c, 10, 67, 44
13, 121424, Note_on_c, 10, 67, 0
13, 121440, Note_on_c, 10, 67, 44
13, 121544, Note_on_c, 10, 67, 0
13, 121560, Note_on_c, 10, 72, 44
13, 121664, Note_on_c, 10, 72, 0
13, 121680, Note_on_c, 10, 67, 44
13, 121784, Note_on_c, 10, 67, 0
13, 121800, Note_on_c, 10, 67, 44
13, 121904, Note_on_c, 10, 67, 0
13, 121920, Note_on_c, 10, 72, 44
13, 122024, Note_on_c, 10, 72, 0
13, 122040, Note_on_c, 10, 69, 44
13, 122144, Note_on_c, 10, 69, 0
13, 122160, Note_on_c, 10, 69, 44
13, 122279, Note_on_c, 10, 69, 0
13, 125040, Control_c, 10, 11, 96
13, 125160, Note_on_c, 10, 72, 68
13, 125160, Control_c, 10, 11, 96
13, 125190, Control_c, 10, 11, 97
13, 125220, Control_c, 10, 11, 99
13, 125250, Control_c, 10, 11, 100
13, 125264, Note_on_c, 10, 72, 0
13, 125280, Note_on_c, 10, 67, 68
13, 125280, Control_c, 10, 11, 101
13, 125310, Control_c, 10, 11, 102
13, 125340, Control_c, 10, 11, 104
13, 125370, Control_c, 10, 11, 105
13, 125384, Note_on_c, 10, 67, 0
13, 125400, Control_c, 10, 11, 106
13, 125400, Note_on_c, 10, 67, 68
13, 125430, Control_c, 10, 11, 108
13, 125460, Control_c, 10, 11, 109
13, 125490, Control_c, 10, 11, 110
13, 125504, Note_on_c, 10, 67, 0
13, 125520, Control_c, 10, 11, 112
13, 125520, Note_on_c, 10, 72, 68
13, 125550, Control_c, 10, 11, 113
13, 125580, Control_c, 10, 11, 114
13, 125610, Control_c, 10, 11, 115
13, 125624, Note_on_c, 10, 72, 0
13, 125640, Note_on_c, 10, 67, 68
13, 125640, Control_c, 10, 11, 117
13, 125670, Control_c, 10, 11, 118
13, 125700, Control_c, 10, 11, 119
13, 125730, Control_c, 10, 11, 121
13, 125744, Note_on_c, 10, 67, 0
13, 125760, Note_on_c, 10, 67, 68
13, 125760, Control_c, 10, 11, 122
13, 125790, Control_c, 10, 11, 123
13, 125820, Control_c, 10, 11, 124
13, 125850, Control_c, 10, 11, 127
13, 125864, Note_on_c, 10, 67, 0
13, 125880, Note_on_c, 10, 72, 52
13, 125984, Note_on_c, 10, 72, 0
13, 126000, Note_on_c, 10, 69, 52
13, 126104, Note_on_c, 10, 69, 0
13, 126120, Note_on_c, 10, 69, 52
13, 126224, Note_on_c, 10, 69, 0
13, 126240, Note_on_c, 10, 72, 52
13, 126344, Note_on_c, 10, 72, 0
13, 126360, Note_on_c, 10, 69, 52
13, 126464, Note_on_c, 10, 69, 0
13, 126480, Note_on_c, 10, 69, 52
13, 126584, Note_on_c, 10, 69, 0
13, 126600, Note_on_c, 10, 72, 52
13, 126704, Note_on_c, 10, 72, 0
13, 126720, Note_on_c, 10, 70, 52
13, 126824, Note_on_c, 10, 70, 0
13, 126840, Note_on_c, 10, 70, 52
13, 126944, Note_on_c, 10, 70, 0
13, 126960, Note_on_c, 10, 72, 52
13, 127064, Note_on_c, 10, 72, 0
13, 127080, Note_on_c, 10, 70, 52
13, 127184, Note_on_c, 10, 70, 0
13, 127200, Note_on_c, 10, 70, 52
13, 127304, Note_on_c, 10, 70, 0
13, 127320, Note_on_c, 10, 72, 52
13, 127424, Note_on_c, 10, 72, 0
13, 127440, Note_on_c, 10, 69, 52
13, 127544, Note_on_c, 10, 69, 0
13, 127560, Note_on_c, 10, 69, 52
13, 127664, Note_on_c, 10, 69, 0
13, 127680, Note_on_c, 10, 72, 52
13, 127784, Note_on_c, 10, 72, 0
13, 127800, Note_on_c, 10, 67, 52
13, 127904, Note_on_c, 10, 67, 0
13, 127920, Note_on_c, 10, 67, 52
13, 128024, Note_on_c, 10, 67, 0
13, 128040, Note_on_c, 10, 72, 52
13, 128144, Note_on_c, 10, 72, 0
13, 128160, Note_on_c, 10, 69, 52
13, 128264, Note_on_c, 10, 69, 0
13, 128280, Note_on_c, 10, 69, 52
13, 128384, Note_on_c, 10, 69, 0
13, 128400, Note_on_c, 10, 72, 52
13, 128504, Note_on_c, 10, 72, 0
13, 128520, Note_on_c, 10, 69, 52
13, 128624, Note_on_c, 10, 69, 0
13, 128640, Note_on_c, 10, 69, 52
13, 128744, Note_on_c, 10, 69, 0
13, 128758, Control_c, 10, 11, 96
13, 128760, Control_c, 10, 11, 96
13, 128760, Note_on_c, 10, 72, 68
13, 128820, Control_c, 10, 11, 97
13, 128864, Note_on_c, 10, 72, 0
13, 128880, Control_c, 10, 11, 99
13, 128880, Note_on_c, 10, 69, 68
13, 128940, Control_c, 10, 11, 100
13, 128984, Note_on_c, 10, 69, 0
13, 129000, Control_c, 10, 11, 101
13, 129000, Note_on_c, 10, 69, 68
13, 129060, Control_c, 10, 11, 102
13, 129104, Note_on_c, 10, 69, 0
13, 129120, Note_on_c, 10, 72, 68
13, 129120, Control_c, 10, 11, 104
13, 129180, Control_c, 10, 11, 105
13, 129224, Note_on_c, 10, 72, 0
13, 129240, Note_on_c, 10, 69, 68
13, 129240, Control_c, 10, 11, 106
13, 129300, Control_c, 10, 11, 108
13, 129344, Note_on_c, 10, 69, 0
13, 129360, Control_c, 10, 11, 109
13, 129360, Note_on_c, 10, 69, 68
13, 129420, Control_c, 10, 11, 110
13, 129464, Note_on_c, 10, 69, 0
13, 129480, Control_c, 10, 11, 112
13, 129480, Note_on_c, 10, 72, 68
13, 129540, Control_c, 10, 11, 113
13, 129584, Note_on_c, 10, 72, 0
13, 129600, Note_on_c, 10, 64, 68
13, 129600, Control_c, 10, 11, 114
13, 129660, Control_c, 10, 11, 115
13, 129704, Note_on_c, 10, 64, 0
13, 129720, Note_on_c, 10, 64, 68
13, 129720, Control_c, 10, 11, 117
13, 129780, Control_c, 10, 11, 118
13, 129824, Note_on_c, 10, 64, 0
13, 129840, Control_c, 10, 11, 119
13, 129840, Note_on_c, 10, 72, 68
13, 129900, Control_c, 10, 11, 121
13, 129944, Note_on_c, 10, 72, 0
13, 129960, Note_on_c, 10, 67, 68
13, 129960, Control_c, 10, 11, 122
13, 130020, Control_c, 10, 11, 123
13, 130064, Note_on_c, 10, 67, 0
13, 130080, Note_on_c, 10, 67, 68
13, 130080, Control_c, 10, 11, 124
13, 130140, Control_c, 10, 11, 127
13, 130184, Note_on_c, 10, 67, 0
13, 130200, Note_on_c, 10, 72, 52
13, 130304, Note_on_c, 10, 72, 0
13, 130320, Note_on_c, 10, 69, 52
13, 130424, Note_on_c, 10, 69, 0
13, 130440, Note_on_c, 10, 69, 52
13, 130544, Note_on_c, 10, 69, 0
13, 130560, Note_on_c, 10, 72, 52
13, 130664, Note_on_c, 10, 72, 0
13, 130680, Note_on_c, 10, 69, 52
13, 130784, Note_on_c, 10, 69, 0
13, 130800, Note_on_c, 10, 69, 52
13, 130904, Note_on_c, 10, 69, 0
13, 130920, Note_on_c, 10, 72, 52
13, 131024, Note_on_c, 10, 72, 0
13, 131040, Note_on_c, 10, 67, 52
13, 131144, Note_on_c, 10, 67, 0
13, 131160, Note_on_c, 10, 67, 52
13, 131264, Note_on_c, 10, 67, 0
13, 131280, Note_on_c, 10, 72, 52
13, 131384, Note_on_c, 10, 72, 0
13, 131400, Note_on_c, 10, 67, 52
13, 131504, Note_on_c, 10, 67, 0
13, 131520, Note_on_c, 10, 67, 52
13, 131624, Note_on_c, 10, 67, 0
13, 131640, Note_on_c, 10, 72, 52
13, 131744, Note_on_c, 10, 72, 0
13, 131760, Note_on_c, 10, 69, 52
13, 131864, Note_on_c, 10, 69, 0
13, 131880, Note_on_c, 10, 69, 52
13, 131984, Note_on_c, 10, 69, 0
13, 132000, Note_on_c, 10, 72, 52
13, 132104, Note_on_c, 10, 72, 0
13, 132120, Note_on_c, 10, 69, 52
13, 132224, Note_on_c, 10, 69, 0
13, 132240, Note_on_c, 10, 69, 52
13, 132344, Note_on_c, 10, 69, 0
13, 132360, Note_on_c, 10, 72, 52
13, 132464, Note_on_c, 10, 72, 0
13, 132480, Note_on_c, 10, 67, 52
13, 132584, Note_on_c, 10, 67, 0
13, 132600, Note_on_c, 10, 67, 52
13, 132704, Note_on_c, 10, 67, 0
13, 132720, Note_on_c, 10, 72, 52
13, 132824, Note_on_c, 10, 72, 0
13, 132840, Note_on_c, 10, 67, 52
13, 132944, Note_on_c, 10, 67, 0
13, 132960, Note_on_c, 10, 67, 52
13, 133064, Note_on_c, 10, 67, 0
13, 133078, Control_c, 10, 11, 80
13, 133080, Note_on_c, 10, 77, 76
13, 133784, Note_on_c, 10, 77, 0
13, 133800, Note_on_c, 10, 76, 76
13, 134504, Note_on_c, 10, 76, 0
13, 134520, Control_c, 10, 11, 80
13, 134520, Note_on_c, 10, 77, 76
13, 134580, Control_c, 10, 11, 82
13, 134640, Control_c, 10, 11, 84
13, 134700, Control_c, 10, 11, 86
13, 134760, Control_c, 10, 11, 88
13, 134820, Control_c, 10, 11, 90
13, 134880, Control_c, 10, 11, 92
13, 134940, Control_c, 10, 11, 94
13, 135000, Control_c, 10, 11, 96
13, 135060, Control_c, 10, 11, 98
13, 135120, Control_c, 10, 11, 100
13, 135180, Control_c, 10, 11, 102
13, 135224, Note_on_c, 10, 77, 0
13, 135240, Note_on_c, 10, 76, 76
13, 135240, Control_c, 10, 11, 104
13, 135300, Control_c, 10, 11, 105
13, 135360, Control_c, 10, 11, 107
13, 135420, Control_c, 10, 11, 109
13, 135480, Control_c, 10, 11, 111
13, 135540, Control_c, 10, 11, 113
13, 135600, Control_c, 10, 11, 115
13, 135660, Control_c, 10, 11, 117
13, 135720, Control_c, 10, 11, 119
13, 135780, Control_c, 10, 11, 121
13, 135840, Control_c, 10, 11, 123
13, 135900, Control_c, 10, 11, 127
13, 135944, Note_on_c, 10, 76, 0
13, 135960, Note_on_c, 10, 77, 76
13, 136079, Note_on_c, 10, 77, 0
13, 137400, Note_on_c, 10, 65, 84
13, 137519, Note_on_c, 10, 65, 0
13, 137520, Note_on_c, 10, 67, 84
13, 137579, Note_on_c, 10, 67, 0
13, 137580, Note_on_c, 10, 65, 84
13, 137639, Note_on_c, 10, 65, 0
13, 137640, Note_on_c, 10, 60, 84
13, 137759, Note_on_c, 10, 60, 0
13, 137760, Note_on_c, 10, 62, 84
13, 137819, Note_on_c, 10, 62, 0
13, 137820, Note_on_c, 10, 64, 84
13, 137871, Note_on_c, 10, 64, 0
13, 137880, Note_on_c, 10, 65, 92
13, 137999, Note_on_c, 10, 65, 0
13, 138000, Note_on_c, 10, 67, 84
13, 138059, Note_on_c, 10, 67, 0
13, 138060, Note_on_c, 10, 65, 84
13, 138111, Note_on_c, 10, 65, 0
13, 138120, Note_on_c, 10, 60, 84
13, 138344, Note_on_c, 10, 60, 0
13, 138360, Note_on_c, 10, 58, 92
13, 138419, Note_on_c, 10, 58, 0
13, 138420, Note_on_c, 10, 60, 84
13, 138479, Note_on_c, 10, 60, 0
13, 138480, Note_on_c, 10, 62, 84
13, 138539, Note_on_c, 10, 62, 0
13, 138540, Note_on_c, 10, 63, 84
13, 138599, Note_on_c, 10, 63, 0
13, 138600, Note_on_c, 10, 65, 84
13, 138689, Note_on_c, 10, 65, 0
13, 138720, Note_on_c, 10, 65, 84
13, 138749, Note_on_c, 10, 65, 0
13, 138750, Note_on_c, 10, 67, 84
13, 138831, Note_on_c, 10, 67, 0
13, 138840, Note_on_c, 10, 60, 92
13, 138929, Note_on_c, 10, 60, 0
13, 138960, Note_on_c, 10, 60, 84
13, 138989, Note_on_c, 10, 60, 0
13, 138990, Note_on_c, 10, 65, 84
13, 139071, Note_on_c, 10, 65, 0
13, 139080, Note_on_c, 10, 58, 84
13, 139304, Note_on_c, 10, 58, 0
13, 139320, Note_on_c, 10, 65, 92
13, 139439, Note_on_c, 10, 65, 0
13, 139440, Note_on_c, 10, 67, 84
13, 139499, Note_on_c, 10, 67, 0
13, 139500, Note_on_c, 10, 65, 84
13, 139559, Note_on_c, 10, 65, 0
13, 139560, Note_on_c, 10, 60, 84
13, 139679, Note_on_c, 10, 60, 0
13, 139680, Note_on_c, 10, 62, 84
13, 139739, Note_on_c, 10, 62, 0
13, 139740, Note_on_c, 10, 64, 84
13, 139791, Note_on_c, 10, 64, 0
13, 139800, Note_on_c, 10, 65, 92
13, 139919, Note_on_c, 10, 65, 0
13, 139920, Note_on_c, 10, 67, 84
13, 139979, Note_on_c, 10, 67, 0
13, 139980, Note_on_c, 10, 65, 84
13, 140031, Note_on_c, 10, 65, 0
13, 140040, Note_on_c, 10, 60, 84
13, 140264, Note_on_c, 10, 60, 0
13, 140280, Note_on_c, 10, 58, 92
13, 140339, Note_on_c, 10, 58, 0
13, 140340, Note_on_c, 10, 60, 84
13, 140399, Note_on_c, 10, 60, 0
13, 140400, Note_on_c, 10, 62, 84
13, 140459, Note_on_c, 10, 62, 0
13, 140460, Note_on_c, 10, 63, 84
13, 140519, Note_on_c, 10, 63, 0
13, 140520, Note_on_c, 10, 65, 84
13, 140609, Note_on_c, 10, 65, 0
13, 140640, Note_on_c, 10, 65, 84
13, 140669, Note_on_c, 10, 65, 0
13, 140670, Note_on_c, 10, 67, 84
13, 140751, Note_on_c, 10, 67, 0
13, 140760, Note_on_c, 10, 60, 92
13, 140849, Note_on_c, 10, 60, 0
13, 140880, Note_on_c, 10, 60, 84
13, 140909, Note_on_c, 10, 60, 0
13, 140910, Note_on_c, 10, 65, 84
13, 140991, Note_on_c, 10, 65, 0
13, 141000, Note_on_c, 10, 58, 84
13, 141224, Note_on_c, 10, 58, 0
13, 141240, Note_on_c, 10, 65, 92
13, 141359, Note_on_c, 10, 65, 0
13, 141360, Note_on_c, 10, 67, 84
13, 141419, Note_on_c, 10, 67, 0
13, 141420, Note_on_c, 10, 65, 84
13, 141479, Note_on_c, 10, 65, 0
13, 141480, Note_on_c, 10, 60, 84
13, 141599, Note_on_c, 10, 60, 0
13, 141600, Note_on_c, 10, 62, 84
13, 141659, Note_on_c, 10, 62, 0
13, 141660, Note_on_c, 10, 64, 84
13, 141711, Note_on_c, 10, 64, 0
13, 141720, Note_on_c, 10, 65, 92
13, 141839, Note_on_c, 10, 65, 0
13, 141840, Note_on_c, 10, 67, 84
13, 141899, Note_on_c, 10, 67, 0
13, 141900, Note_on_c, 10, 65, 84
13, 141951, Note_on_c, 10, 65, 0
13, 141960, Note_on_c, 10, 60, 84
13, 142184, Note_on_c, 10, 60, 0
13, 142200, Note_on_c, 10, 58, 92
13, 142259, Note_on_c, 10, 58, 0
13, 142260, Note_on_c, 10, 60, 84
13, 142319, Note_on_c, 10, 60, 0
13, 142320, Note_on_c, 10, 62, 84
13, 142379, Note_on_c, 10, 62, 0
13, 142380, Note_on_c, 10, 63, 84
13, 142439, Note_on_c, 10, 63, 0
13, 142440, Note_on_c, 10, 65, 84
13, 142529, Note_on_c, 10, 65, 0
13, 142560, Note_on_c, 10, 65, 84
13, 142589, Note_on_c, 10, 65, 0
13, 142590, Note_on_c, 10, 67, 84
13, 142671, Note_on_c, 10, 67, 0
13, 142680, Note_on_c, 10, 60, 92
13, 142769, Note_on_c, 10, 60, 0
13, 142800, Note_on_c, 10, 60, 84
13, 142829, Note_on_c, 10, 60, 0
13, 142830, Note_on_c, 10, 65, 84
13, 142911, Note_on_c, 10, 65, 0
13, 142920, Note_on_c, 10, 58, 84
13, 143144, Note_on_c, 10, 58, 0
13, 143160, Note_on_c, 10, 65, 92
13, 143279, Note_on_c, 10, 65, 0
13, 143280, Note_on_c, 10, 67, 84
13, 143339, Note_on_c, 10, 67, 0
13, 143340, Note_on_c, 10, 65, 84
13, 143399, Note_on_c, 10, 65, 0
13, 143400, Note_on_c, 10, 60, 84
13, 143519, Note_on_c, 10, 60, 0
13, 143520, Note_on_c, 10, 62, 84
13, 143579, Note_on_c, 10, 62, 0
13, 143580, Note_on_c, 10, 64, 84
13, 143631, Note_on_c, 10, 64, 0
13, 143640, Note_on_c, 10, 65, 92
13, 143759, Note_on_c, 10, 65, 0
13, 143760, Note_on_c, 10, 67, 84
13, 143819, Note_on_c, 10, 67, 0
13, 143820, Note_on_c, 10, 65, 84
13, 143871, Note_on_c, 10, 65, 0
13, 143880, Note_on_c, 10, 60, 84
13, 144104, Note_on_c, 10, 60, 0
13, 144120, Note_on_c, 10, 58, 92
13, 144179, Note_on_c, 10, 58, 0
13, 144180, Note_on_c, 10, 60, 84
13, 144239, Note_on_c, 10, 60, 0
13, 144240, Note_on_c, 10, 62, 84
13, 144299, Note_on_c, 10, 62, 0
13, 144300, Note_on_c, 10, 63, 84
13, 144359, Note_on_c, 10, 63, 0
13, 144360, Note_on_c, 10, 65, 84
13, 144449, Note_on_c, 10, 65, 0
13, 144480, Note_on_c, 10, 65, 84
13, 144509, Note_on_c, 10, 65, 0
13, 144510, Note_on_c, 10, 67, 84
13, 144591, Note_on_c, 10, 67, 0
13, 144600, Note_on_c, 10, 60, 92
13, 144689, Note_on_c, 10, 60, 0
13, 144720, Note_on_c, 10, 60, 84
13, 144749, Note_on_c, 10, 60, 0
13, 144750, Note_on_c, 10, 65, 84
13, 144831, Note_on_c, 10, 65, 0
13, 144840, Note_on_c, 10, 58, 84
13, 145064, Note_on_c, 10, 58, 0
13, 145080, Note_on_c, 10, 72, 92
13, 145139, Note_on_c, 10, 72, 0
13, 145140, Note_on_c, 10, 72, 84
13, 145319, Note_on_c, 10, 72, 0
13, 145320, Note_on_c, 10, 77, 84
13, 145544, Note_on_c, 10, 77, 0
13, 145560, Note_on_c, 10, 76, 92
13, 145619, Note_on_c, 10, 76, 0
13, 145620, Note_on_c, 10, 76, 84
13, 145799, Note_on_c, 10, 76, 0
13, 145800, Note_on_c, 10, 82, 84
13, 146024, Note_on_c, 10, 82, 0
13, 146040, Note_on_c, 10, 81, 92
13, 146099, Note_on_c, 10, 81, 0
13, 146100, Note_on_c, 10, 81, 84
13, 146279, Note_on_c, 10, 81, 0
13, 146280, Note_on_c, 10, 77, 84
13, 146504, Note_on_c, 10, 77, 0
13, 146520, Note_on_c, 10, 76, 84
13, 146759, Note_on_c, 10, 76, 0
13, 146760, Note_on_c, 10, 77, 84
13, 146984, Note_on_c, 10, 77, 0
13, 147000, Note_on_c, 10, 72, 84
13, 147239, Note_on_c, 10, 72, 0
13, 147240, Note_on_c, 10, 77, 84
13, 147464, Note_on_c, 10, 77, 0
13, 147480, Note_on_c, 10, 76, 84
13, 147719, Note_on_c, 10, 76, 0
13, 147720, Note_on_c, 10, 82, 84
13, 147944, Note_on_c, 10, 82, 0
13, 147960, Note_on_c, 10, 81, 84
13, 148199, Note_on_c, 10, 81, 0
13, 148200, Note_on_c, 10, 77, 84
13, 148424, Note_on_c, 10, 77, 0
13, 148440, Note_on_c, 10, 76, 84
13, 148679, Note_on_c, 10, 76, 0
13, 148680, Note_on_c, 10, 77, 84
13, 148904, Note_on_c, 10, 77, 0
13, 148920, Note_on_c, 10, 72, 84
13, 149159, Note_on_c, 10, 72, 0
13, 149160, Note_on_c, 10, 77, 84
13, 149399, Note_on_c, 10, 77, 0
13, 149400, Note_on_c, 10, 76, 84
13, 149744, Note_on_c, 10, 76, 0
13, 149760, Note_on_c, 10, 81, 84
13, 149827, Note_on_c, 10, 81, 0
13, 149835, Note_on_c, 10, 81, 84
13, 149849, Note_on_c, 10, 81, 0
13, 149850, Note_on_c, 10, 79, 84
13, 149864, Note_on_c, 10, 79, 0
13, 149865, Note_on_c, 10, 77, 84
13, 149879, Note_on_c, 10, 77, 0
13, 149880, Note_on_c, 10, 79, 84
13, 149969, Note_on_c, 10, 79, 0
13, 150075, Note_on_c, 10, 79, 84
13, 150089, Note_on_c, 10, 79, 0
13, 150090, Note_on_c, 10, 77, 84
13, 150104, Note_on_c, 10, 77, 0
13, 150105, Note_on_c, 10, 76, 84
13, 150119, Note_on_c, 10, 76, 0
13, 150120, Note_on_c, 10, 77, 84
13, 150209, Note_on_c, 10, 77, 0
13, 150315, Note_on_c, 10, 77, 84
13, 150329, Note_on_c, 10, 77, 0
13, 150330, Note_on_c, 10, 76, 84
13, 150344, Note_on_c, 10, 76, 0
13, 150345, Note_on_c, 10, 74, 84
13, 150359, Note_on_c, 10, 74, 0
13, 150360, Note_on_c, 10, 76, 84
13, 150449, Note_on_c, 10, 76, 0
13, 150555, Note_on_c, 10, 76, 84
13, 150569, Note_on_c, 10, 76, 0
13, 150570, Note_on_c, 10, 74, 84
13, 150584, Note_on_c, 10, 74, 0
13, 150585, Note_on_c, 10, 72, 84
13, 150599, Note_on_c, 10, 72, 0
13, 150600, Note_on_c, 10, 74, 84
13, 150689, Note_on_c, 10, 74, 0
13, 150840, Note_on_c, 10, 72, 84
13, 150944, Note_on_c, 10, 72, 0
13, 150960, Note_on_c, 10, 72, 84
13, 151064, Note_on_c, 10, 72, 0
13, 151080, Note_on_c, 10, 77, 84
13, 151184, Note_on_c, 10, 77, 0
13, 151200, Note_on_c, 10, 77, 84
13, 151304, Note_on_c, 10, 77, 0
13, 151320, Note_on_c, 10, 76, 84
13, 151424, Note_on_c, 10, 76, 0
13, 151440, Note_on_c, 10, 76, 84
13, 151559, Note_on_c, 10, 76, 0
13, 151680, Note_on_c, 10, 81, 84
13, 151799, Note_on_c, 10, 81, 0
13, 151920, Note_on_c, 10, 79, 84
13, 152039, Note_on_c, 10, 79, 0
13, 152160, Note_on_c, 10, 77, 84
13, 152279, Note_on_c, 10, 77, 0
13, 152400, Note_on_c, 10, 76, 84
13, 152519, Note_on_c, 10, 76, 0
13, 152640, Note_on_c, 10, 74, 84
13, 152744, Note_on_c, 10, 74, 0
13, 152758, Control_c, 10, 11, 112
13, 152760, Control_c, 10, 11, 112
13, 152760, Note_on_c, 10, 72, 92
13, 152952, Control_c, 10, 11, 113
13, 153104, Note_on_c, 10, 72, 0
13, 153120, Note_on_c, 10, 76, 92
13, 153144, Control_c, 10, 11, 114
13, 153224, Note_on_c, 10, 76, 0
13, 153240, Note_on_c, 10, 76, 92
13, 153336, Control_c, 10, 11, 115
13, 153528, Control_c, 10, 11, 116
13, 153584, Note_on_c, 10, 76, 0
13, 153600, Note_on_c, 10, 72, 92
13, 153704, Note_on_c, 10, 72, 0
13, 153720, Note_on_c, 10, 72, 92
13, 153720, Control_c, 10, 11, 117
13, 153912, Control_c, 10, 11, 118
13, 154064, Note_on_c, 10, 72, 0
13, 154080, Note_on_c, 10, 79, 92
13, 154104, Control_c, 10, 11, 119
13, 154184, Note_on_c, 10, 79, 0
13, 154200, Note_on_c, 10, 79, 92
13, 154296, Control_c, 10, 11, 120
13, 154488, Control_c, 10, 11, 121
13, 154544, Note_on_c, 10, 79, 0
13, 154560, Note_on_c, 10, 72, 92
13, 154664, Note_on_c, 10, 72, 0
13, 154680, Control_c, 10, 11, 122
13, 154680, Note_on_c, 10, 72, 92
13, 154784, Note_on_c, 10, 72, 0
13, 154800, Note_on_c, 10, 84, 92
13, 154872, Control_c, 10, 11, 123
13, 154904, Note_on_c, 10, 84, 0
13, 154920, Note_on_c, 10, 84, 92
13, 155024, Note_on_c, 10, 84, 0
13, 155040, Note_on_c, 10, 76, 92
13, 155064, Control_c, 10, 11, 124
13, 155144, Note_on_c, 10, 76, 0
13, 155160, Note_on_c, 10, 76, 92
13, 155256, Control_c, 10, 11, 125
13, 155264, Note_on_c, 10, 76, 0
13, 155280, Note_on_c, 10, 88, 92
13, 155384, Note_on_c, 10, 88, 0
13, 155400, Note_on_c, 10, 88, 92
13, 155448, Control_c, 10, 11, 127
13, 155504, Note_on_c, 10, 88, 0
13, 155520, Note_on_c, 10, 76, 92
13, 155624, Note_on_c, 10, 76, 0
13, 155640, Note_on_c, 10, 55, 84
13, 155640, Note_on_c, 10, 64, 84
13, 155640, Control_c, 10, 11, 127
13, 155640, Note_on_c, 10, 76, 84
13, 155680, Control_c, 10, 11, 122
13, 155720, Control_c, 10, 11, 117
13, 155760, Control_c, 10, 11, 111
13, 155800, Control_c, 10, 11, 106
13, 155840, Control_c, 10, 11, 101
13, 155879, Note_on_c, 10, 55, 0
13, 155879, Note_on_c, 10, 64, 0
13, 155880, Control_c, 10, 11, 96
13, 155920, Control_c, 10, 11, 90
13, 155960, Control_c, 10, 11, 85
13, 156000, Control_c, 10, 11, 80
13, 156040, Control_c, 10, 11, 75
13, 156080, Control_c, 10, 11, 69
13, 156104, Note_on_c, 10, 76, 0
13, 156118, Control_c, 10, 11, 80
13, 156120, Note_on_c, 10, 72, 76
13, 156464, Note_on_c, 10, 72, 0
13, 156480, Note_on_c, 10, 72, 68
13, 156569, Note_on_c, 10, 72, 0
13, 156600, Note_on_c, 10, 77, 68
13, 156689, Note_on_c, 10, 77, 0
13, 156720, Note_on_c, 10, 72, 68
13, 156809, Note_on_c, 10, 72, 0
13, 156840, Note_on_c, 10, 74, 68
13, 156929, Note_on_c, 10, 74, 0
13, 156960, Note_on_c, 10, 72, 68
13, 157049, Note_on_c, 10, 72, 0
13, 157080, Note_on_c, 10, 69, 68
13, 157169, Note_on_c, 10, 69, 0
13, 157200, Note_on_c, 10, 70, 68
13, 157289, Note_on_c, 10, 70, 0
13, 157320, Note_on_c, 10, 69, 68
13, 157409, Note_on_c, 10, 69, 0
13, 157440, Note_on_c, 10, 65, 68
13, 157529, Note_on_c, 10, 65, 0
13, 157560, Note_on_c, 10, 67, 68
13, 157649, Note_on_c, 10, 67, 0
13, 157680, Note_on_c, 10, 69, 68
13, 157769, Note_on_c, 10, 69, 0
13, 157800, Note_on_c, 10, 65, 68
13, 157889, Note_on_c, 10, 65, 0
13, 157920, Note_on_c, 10, 67, 68
13, 158001, Note_on_c, 10, 67, 0
13, 158020, Note_on_c, 10, 65, 68
13, 158039, Note_on_c, 10, 65, 0
13, 158040, Note_on_c, 10, 69, 68
13, 158129, Note_on_c, 10, 69, 0
13, 158160, Note_on_c, 10, 65, 68
13, 158249, Note_on_c, 10, 65, 0
13, 158280, Note_on_c, 10, 67, 68
13, 158361, Note_on_c, 10, 67, 0
13, 158380, Note_on_c, 10, 62, 68
13, 158399, Note_on_c, 10, 62, 0
13, 158400, Note_on_c, 10, 65, 68
13, 158489, Note_on_c, 10, 65, 0
13, 158520, Note_on_c, 10, 62, 68
13, 158609, Note_on_c, 10, 62, 0
13, 158640, Note_on_c, 10, 64, 68
13, 158729, Note_on_c, 10, 64, 0
13, 158740, Note_on_c, 10, 57, 68
13, 158759, Note_on_c, 10, 57, 0
13, 158760, Note_on_c, 10, 62, 68
13, 158849, Note_on_c, 10, 62, 0
13, 158880, Note_on_c, 10, 57, 68
13, 158969, Note_on_c, 10, 57, 0
13, 159000, Note_on_c, 10, 57, 68
13, 159089, Note_on_c, 10, 57, 0
13, 159120, Note_on_c, 10, 57, 68
13, 159239, Note_on_c, 10, 57, 0
13, 159358, Control_c, 10, 11, 64
13, 159360, Note_on_c, 10, 69, 76
13, 159479, Note_on_c, 10, 69, 0
13, 159480, Note_on_c, 10, 74, 76
13, 159719, Note_on_c, 10, 74, 0
13, 159720, Note_on_c, 10, 78, 76
13, 159839, Note_on_c, 10, 78, 0
13, 159840, Note_on_c, 10, 81, 76
13, 159959, Note_on_c, 10, 81, 0
13, 159960, Note_on_c, 10, 78, 76
13, 160064, Note_on_c, 10, 78, 0
13, 160080, Note_on_c, 10, 78, 76
13, 160199, Note_on_c, 10, 78, 0
13, 160200, Note_on_c, 10, 81, 76
13, 160200, Control_c, 10, 11, 64
13, 160260, Control_c, 10, 11, 67
13, 160319, Note_on_c, 10, 81, 0
13, 160320, Note_on_c, 10, 85, 76
13, 160320, Control_c, 10, 11, 69
13, 160380, Control_c, 10, 11, 72
13, 160439, Note_on_c, 10, 85, 0
13, 160440, Control_c, 10, 11, 75
13, 160440, Note_on_c, 10, 86, 76
13, 160499, Note_on_c, 10, 86, 0
13, 160500, Note_on_c, 10, 83, 76
13, 160500, Control_c, 10, 11, 77
13, 160559, Note_on_c, 10, 83, 0
13, 160560, Note_on_c, 10, 81, 76
13, 160560, Control_c, 10, 11, 80
13, 160620, Control_c, 10, 11, 82
13, 160679, Note_on_c, 10, 81, 0
13, 160680, Control_c, 10, 11, 85
13, 160680, Note_on_c, 10, 85, 76
13, 160740, Control_c, 10, 11, 88
13, 160799, Note_on_c, 10, 85, 0
13, 160800, Control_c, 10, 11, 90
13, 160800, Note_on_c, 10, 86, 76
13, 160859, Note_on_c, 10, 86, 0
13, 160860, Control_c, 10, 11, 93
13, 160860, Note_on_c, 10, 82, 76
13, 160919, Note_on_c, 10, 82, 0
13, 160920, Note_on_c, 10, 81, 76
13, 160920, Control_c, 10, 11, 96
13, 160980, Control_c, 10, 11, 98
13, 161039, Note_on_c, 10, 81, 0
13, 161040, Note_on_c, 10, 84, 76
13, 161040, Control_c, 10, 11, 101
13, 161100, Control_c, 10, 11, 103
13, 161159, Note_on_c, 10, 84, 0
13, 161160, Note_on_c, 10, 86, 76
13, 161160, Control_c, 10, 11, 106
13, 161219, Note_on_c, 10, 86, 0
13, 161220, Note_on_c, 10, 82, 76
13, 161220, Control_c, 10, 11, 109
13, 161279, Note_on_c, 10, 82, 0
13, 161280, Control_c, 10, 11, 111
13, 161280, Note_on_c, 10, 81, 76
13, 161340, Control_c, 10, 11, 114
13, 161399, Note_on_c, 10, 81, 0
13, 161400, Control_c, 10, 11, 117
13, 161400, Note_on_c, 10, 84, 76
13, 161460, Control_c, 10, 11, 119
13, 161519, Note_on_c, 10, 84, 0
13, 161520, Control_c, 10, 11, 122
13, 161520, Note_on_c, 10, 82, 76
13, 161579, Note_on_c, 10, 82, 0
13, 161580, Note_on_c, 10, 79, 76
13, 161580, Control_c, 10, 11, 124
13, 161638, Control_c, 10, 11, 127
13, 161639, Note_on_c, 10, 79, 0
13, 161640, Note_on_c, 10, 69, 76
13, 161640, Note_on_c, 10, 77, 76
13, 161640, Note_on_c, 10, 65, 76
13, 161759, Note_on_c, 10, 69, 0
13, 161759, Note_on_c, 10, 77, 0
13, 161759, Note_on_c, 10, 65, 0
13, 162360, Note_on_c, 10, 76, 52
13, 162479, Note_on_c, 10, 76, 0
13, 162960, Program_c, 10, 45
13, 163080, Note_on_c, 10, 65, 48
13, 163199, Note_on_c, 10, 65, 0
13, 163440, Note_on_c, 10, 65, 48
13, 163559, Note_on_c, 10, 65, 0
13, 163800, Note_on_c, 10, 65, 48
13, 163919, Note_on_c, 10, 65, 0
13, 164160, Note_on_c, 10, 65, 48
13, 164279, Note_on_c, 10, 65, 0
13, 164520, Note_on_c, 10, 65, 48
13, 164639, Note_on_c, 10, 65, 0
13, 164880, Note_on_c, 10, 65, 48
13, 164999, Note_on_c, 10, 65, 0
13, 165240, Note_on_c, 10, 65, 48
13, 165359, Note_on_c, 10, 65, 0
13, 165600, Note_on_c, 10, 65, 48
13, 165719, Note_on_c, 10, 65, 0
13, 165838, Control_c, 10, 11, 64
13, 165838, Program_c, 10, 48
13, 165840, Note_on_c, 10, 72, 84
13, 165959, Note_on_c, 10, 72, 0
13, 165960, Note_on_c, 10, 77, 84
13, 166079, Note_on_c, 10, 77, 0
13, 166080, Control_c, 10, 11, 64
13, 166080, Note_on_c, 10, 72, 84
13, 166130, Control_c, 10, 11, 67
13, 166180, Control_c, 10, 11, 69
13, 166199, Note_on_c, 10, 72, 0
13, 166200, Note_on_c, 10, 74, 84
13, 166230, Control_c, 10, 11, 72
13, 166280, Control_c, 10, 11, 75
13, 166319, Note_on_c, 10, 74, 0
13, 166320, Note_on_c, 10, 72, 84
13, 166330, Control_c, 10, 11, 77
13, 166380, Control_c, 10, 11, 80
13, 166430, Control_c, 10, 11, 82
13, 166439, Note_on_c, 10, 72, 0
13, 166440, Note_on_c, 10, 69, 84
13, 166480, Control_c, 10, 11, 85
13, 166530, Control_c, 10, 11, 88
13, 166559, Note_on_c, 10, 69, 0
13, 166560, Note_on_c, 10, 70, 84
13, 166580, Control_c, 10, 11, 90
13, 166630, Control_c, 10, 11, 93
13, 166679, Note_on_c, 10, 70, 0
13, 166680, Control_c, 10, 11, 96
13, 166680, Note_on_c, 10, 69, 84
13, 166730, Control_c, 10, 11, 98
13, 166780, Control_c, 10, 11, 101
13, 166799, Note_on_c, 10, 69, 0
13, 166800, Note_on_c, 10, 65, 84
13, 166830, Control_c, 10, 11, 103
13, 166880, Control_c, 10, 11, 106
13, 166919, Note_on_c, 10, 65, 0
13, 166920, Note_on_c, 10, 67, 84
13, 166930, Control_c, 10, 11, 109
13, 166980, Control_c, 10, 11, 111
13, 167030, Control_c, 10, 11, 114
13, 167039, Note_on_c, 10, 67, 0
13, 167040, Note_on_c, 10, 69, 84
13, 167080, Control_c, 10, 11, 117
13, 167130, Control_c, 10, 11, 119
13, 167159, Note_on_c, 10, 69, 0
13, 167160, Note_on_c, 10, 65, 84
13, 167180, Control_c, 10, 11, 122
13, 167230, Control_c, 10, 11, 124
13, 167264, Note_on_c, 10, 65, 0
13, 167278, Control_c, 10, 11, 127
13, 167280, Note_on_c, 10, 72, 84
13, 167369, Note_on_c, 10, 72, 0
13, 167400, Note_on_c, 10, 77, 84
13, 167489, Note_on_c, 10, 77, 0
13, 167520, Note_on_c, 10, 72, 84
13, 167609, Note_on_c, 10, 72, 0
13, 167640, Note_on_c, 10, 74, 84
13, 167729, Note_on_c, 10, 74, 0
13, 167760, Note_on_c, 10, 72, 84
13, 167849, Note_on_c, 10, 72, 0
13, 167880, Note_on_c, 10, 69, 84
13, 167969, Note_on_c, 10, 69, 0
13, 168000, Note_on_c, 10, 70, 84
13, 168089, Note_on_c, 10, 70, 0
13, 168120, Note_on_c, 10, 69, 92
13, 168209, Note_on_c, 10, 69, 0
13, 168240, Note_on_c, 10, 77, 84
13, 168329, Note_on_c, 10, 77, 0
13, 168360, Note_on_c, 10, 79, 84
13, 168449, Note_on_c, 10, 79, 0
13, 168480, Note_on_c, 10, 81, 92
13, 168569, Note_on_c, 10, 81, 0
13, 168600, Note_on_c, 10, 77, 84
13, 168689, Note_on_c, 10, 77, 0
13, 168720, Note_on_c, 10, 79, 84
13, 168809, Note_on_c, 10, 79, 0
13, 168840, Note_on_c, 10, 81, 92
13, 168929, Note_on_c, 10, 81, 0
13, 168960, Note_on_c, 10, 77, 84
13, 169049, Note_on_c, 10, 77, 0
13, 169080, Note_on_c, 10, 79, 84
13, 169169, Note_on_c, 10, 79, 0
13, 169200, Note_on_c, 10, 81, 92
13, 169289, Note_on_c, 10, 81, 0
13, 169320, Note_on_c, 10, 77, 84
13, 169409, Note_on_c, 10, 77, 0
13, 169440, Note_on_c, 10, 79, 84
13, 169529, Note_on_c, 10, 79, 0
13, 169560, Note_on_c, 10, 81, 92
13, 169620, Control_c, 10, 11, 112
13, 169839, Note_on_c, 10, 81, 0
13, 169860, Note_on_c, 10, 79, 92
13, 169889, Note_on_c, 10, 79, 0
13, 169890, Note_on_c, 10, 81, 92
13, 169919, Note_on_c, 10, 81, 0
13, 169920, Note_on_c, 10, 79, 92
13, 170139, Note_on_c, 10, 79, 0
13, 170160, Note_on_c, 10, 77, 92
13, 170211, Note_on_c, 10, 77, 0
13, 170220, Note_on_c, 10, 76, 92
13, 170249, Note_on_c, 10, 76, 0
13, 170250, Note_on_c, 10, 77, 92
13, 170279, Note_on_c, 10, 77, 0
13, 170280, Note_on_c, 10, 76, 92
13, 170499, Note_on_c, 10, 76, 0
13, 170520, Note_on_c, 10, 74, 92
13, 170619, Note_on_c, 10, 74, 0
13, 170640, Note_on_c, 10, 72, 92
13, 170859, Note_on_c, 10, 72, 0
13, 170880, Note_on_c, 10, 76, 92
13, 170979, Note_on_c, 10, 76, 0
13, 171000, Note_on_c, 10, 77, 92
13, 171000, Note_on_c, 10, 72, 92
13, 171000, Note_on_c, 10, 65, 92
13, 171060, Control_c, 10, 11, 112
13, 171119, Note_on_c, 10, 72, 0
13, 171119, Note_on_c, 10, 65, 0
13, 171339, Note_on_c, 10, 77, 0
13, 171358, Control_c, 10, 11, 127
13, 171360, Note_on_c, 10, 79, 92
13, 171420, Control_c, 10, 11, 112
13, 171699, Note_on_c, 10, 79, 0
13, 171718, Control_c, 10, 11, 127
13, 171720, Note_on_c, 10, 81, 92
13, 171780, Control_c, 10, 11, 112
13, 172059, Note_on_c, 10, 81, 0
13, 172080, Note_on_c, 10, 72, 92
13, 172080, Note_on_c, 10, 79, 92
13, 172080, Note_on_c, 10, 64, 92
13, 172140, Control_c, 10, 11, 112
13, 172199, Note_on_c, 10, 72, 0
13, 172199, Note_on_c, 10, 64, 0
13, 172419, Note_on_c, 10, 79, 0
13, 172438, Control_c, 10, 11, 127
13, 172440, Note_on_c, 10, 81, 84
13, 172440, Note_on_c, 10, 72, 84
13, 172440, Note_on_c, 10, 65, 84
13, 172559, Note_on_c, 10, 81, 0
13, 172559, Note_on_c, 10, 72, 0
13, 172559, Note_on_c, 10, 65, 0
13, 172680, Note_on_c, 10, 81, 84
13, 172731, Note_on_c, 10, 81, 0
13, 172740, Note_on_c, 10, 79, 84
13, 172769, Note_on_c, 10, 79, 0
13, 172770, Note_on_c, 10, 81, 84
13, 172799, Note_on_c, 10, 81, 0
13, 172800, Note_on_c, 10, 79, 84
13, 173019, Note_on_c, 10, 79, 0
13, 173040, Note_on_c, 10, 77, 84
13, 173091, Note_on_c, 10, 77, 0
13, 173100, Note_on_c, 10, 76, 84
13, 173129, Note_on_c, 10, 76, 0
13, 173130, Note_on_c, 10, 77, 84
13, 173159, Note_on_c, 10, 77, 0
13, 173160, Note_on_c, 10, 76, 84
13, 173379, Note_on_c, 10, 76, 0
13, 173400, Note_on_c, 10, 74, 84
13, 173499, Note_on_c, 10, 74, 0
13, 173520, Note_on_c, 10, 72, 84
13, 173739, Note_on_c, 10, 72, 0
13, 173760, Note_on_c, 10, 76, 84
13, 173859, Note_on_c, 10, 76, 0
13, 173880, Note_on_c, 10, 65, 92
13, 173880, Note_on_c, 10, 77, 92
13, 173880, Note_on_c, 10, 72, 92
13, 173940, Control_c, 10, 11, 112
13, 173999, Note_on_c, 10, 65, 0
13, 173999, Note_on_c, 10, 72, 0
13, 174219, Note_on_c, 10, 77, 0
13, 174238, Control_c, 10, 11, 127
13, 174240, Note_on_c, 10, 79, 92
13, 174300, Control_c, 10, 11, 112
13, 174579, Note_on_c, 10, 79, 0
13, 174598, Control_c, 10, 11, 127
13, 174600, Note_on_c, 10, 81, 92
13, 174660, Control_c, 10, 11, 112
13, 174939, Note_on_c, 10, 81, 0
13, 174958, Control_c, 10, 11, 127
13, 174960, Note_on_c, 10, 79, 92
13, 174960, Note_on_c, 10, 64, 92
13, 174960, Note_on_c, 10, 72, 92
13, 175020, Control_c, 10, 11, 112
13, 175079, Note_on_c, 10, 64, 0
13, 175079, Note_on_c, 10, 72, 0
13, 175299, Note_on_c, 10, 79, 0
13, 175318, Control_c, 10, 11, 127
13, 175320, Note_on_c, 10, 77, 92
13, 175320, Note_on_c, 10, 65, 92
13, 175320, Note_on_c, 10, 72, 92
13, 175439, Note_on_c, 10, 77, 0
13, 175439, Note_on_c, 10, 65, 0
13, 175439, Note_on_c, 10, 72, 0
13, 176040, Note_on_c, 10, 69, 84
13, 176091, Note_on_c, 10, 69, 0
13, 176100, Note_on_c, 10, 72, 84
13, 176151, Note_on_c, 10, 72, 0
13, 176160, Note_on_c, 10, 77, 84
13, 176211, Note_on_c, 10, 77, 0
13, 176220, Note_on_c, 10, 81, 84
13, 176271, Note_on_c, 10, 81, 0
13, 176280, Note_on_c, 10, 84, 84
13, 176379, Note_on_c, 10, 84, 0
13, 176400, Note_on_c, 10, 76, 84
13, 176400, Note_on_c, 10, 67, 84
13, 176499, Note_on_c, 10, 76, 0
13, 176499, Note_on_c, 10, 67, 0
13, 176520, Note_on_c, 10, 67, 84
13, 176520, Note_on_c, 10, 76, 84
13, 176619, Note_on_c, 10, 67, 0
13, 176619, Note_on_c, 10, 76, 0
13, 176640, Note_on_c, 10, 67, 84
13, 176640, Note_on_c, 10, 76, 84
13, 176739, Note_on_c, 10, 67, 0
13, 176739, Note_on_c, 10, 76, 0
13, 176760, Note_on_c, 10, 69, 92
13, 176760, Note_on_c, 10, 65, 92
13, 176760, Note_on_c, 10, 77, 92
13, 176879, Note_on_c, 10, 69, 0
13, 176879, Note_on_c, 10, 65, 0
13, 176879, Note_on_c, 10, 77, 0
13, 177480, Note_on_c, 10, 69, 84
13, 177531, Note_on_c, 10, 69, 0
13, 177540, Note_on_c, 10, 72, 84
13, 177591, Note_on_c, 10, 72, 0
13, 177600, Note_on_c, 10, 77, 84
13, 177651, Note_on_c, 10, 77, 0
13, 177660, Note_on_c, 10, 81, 84
13, 177711, Note_on_c, 10, 81, 0
13, 177720, Note_on_c, 10, 84, 84
13, 177819, Note_on_c, 10, 84, 0
13, 177840, Note_on_c, 10, 76, 84
13, 177939, Note_on_c, 10, 76, 0
13, 177960, Note_on_c, 10, 76, 84
13, 178059, Note_on_c, 10, 76, 0
13, 178080, Note_on_c, 10, 76, 84
13, 178199, Note_on_c, 10, 76, 0
13, 178199, End_track
14, 0, Start_track
14, 0, Title_t, "Violin II"
14, 0, MIDI_port, 0
14, 0, Program_c, 11, 48
14, 0, Control_c, 11, 7, 96
14, 0, Control_c, 11, 10, 24
14, 0, Control_c, 11, 11, 127
14, 0, Note_on_c, 11, 72, 44
14, 89, Note_on_c, 11, 72, 0
14, 120, Note_on_c, 11, 77, 44
14, 209, Note_on_c, 11, 77, 0
14, 240, Note_on_c, 11, 72, 44
14, 329, Note_on_c, 11, 72, 0
14, 360, Note_on_c, 11, 74, 44
14, 449, Note_on_c, 11, 74, 0
14, 480, Note_on_c, 11, 72, 44
14, 569, Note_on_c, 11, 72, 0
14, 600, Note_on_c, 11, 69, 44
14, 689, Note_on_c, 11, 69, 0
14, 720, Note_on_c, 11, 70, 44
14, 809, Note_on_c, 11, 70, 0
14, 840, Note_on_c, 11, 69, 44
14, 929, Note_on_c, 11, 69, 0
14, 960, Note_on_c, 11, 65, 44
14, 1049, Note_on_c, 11, 65, 0
14, 1080, Note_on_c, 11, 67, 44
14, 1169, Note_on_c, 11, 67, 0
14, 1200, Note_on_c, 11, 69, 44
14, 1289, Note_on_c, 11, 69, 0
14, 1320, Note_on_c, 11, 65, 44
14, 1409, Note_on_c, 11, 65, 0
14, 1440, Note_on_c, 11, 67, 44
14, 1529, Note_on_c, 11, 67, 0
14, 1540, Note_on_c, 11, 65, 44
14, 1559, Note_on_c, 11, 65, 0
14, 1560, Note_on_c, 11, 69, 44
14, 1649, Note_on_c, 11, 69, 0
14, 1680, Note_on_c, 11, 65, 44
14, 1769, Note_on_c, 11, 65, 0
14, 1800, Note_on_c, 11, 67, 44
14, 1889, Note_on_c, 11, 67, 0
14, 1900, Note_on_c, 11, 62, 44
14, 1919, Note_on_c, 11, 62, 0
14, 1920, Note_on_c, 11, 65, 44
14, 2009, Note_on_c, 11, 65, 0
14, 2040, Note_on_c, 11, 62, 44
14, 2129, Note_on_c, 11, 62, 0
14, 2160, Note_on_c, 11, 64, 44
14, 2249, Note_on_c, 11, 64, 0
14, 2260, Note_on_c, 11, 57, 44
14, 2279, Note_on_c, 11, 57, 0
14, 2280, Note_on_c, 11, 62, 44
14, 2369, Note_on_c, 11, 62, 0
14, 2400, Note_on_c, 11, 57, 44
14, 2489, Note_on_c, 11, 57, 0
14, 2520, Note_on_c, 11, 57, 44
14, 2609, Note_on_c, 11, 57, 0
14, 2640, Note_on_c, 11, 57, 44
14, 2759, Note_on_c, 11, 57, 0
14, 2880, Note_on_c, 11, 57, 48
14, 2999, Note_on_c, 11, 57, 0
14, 3000, Note_on_c, 11, 62, 48
14, 3239, Note_on_c, 11, 62, 0
14, 3240, Note_on_c, 11, 66, 48
14, 3359, Note_on_c, 11, 66, 0
14, 3360, Note_on_c, 11, 69, 48
14, 3479, Note_on_c, 11, 69, 0
14, 3480, Note_on_c, 11, 66, 48
14, 3584, Note_on_c, 11, 66, 0
14, 3600, Note_on_c, 11, 66, 48
14, 3719, Note_on_c, 11, 66, 0
14, 3720, Note_on_c, 11, 69, 48
14, 3839, Note_on_c, 11, 69, 0
14, 3840, Note_on_c, 11, 73, 48
14, 3959, Note_on_c, 11, 73, 0
14, 3960, Note_on_c, 11, 74, 48
14, 4019, Note_on_c, 11, 74, 0
14, 4020, Note_on_c, 11, 71, 48
14, 4079, Note_on_c, 11, 71, 0
14, 4080, Note_on_c, 11, 69, 48
14, 4304, Note_on_c, 11, 69, 0
14, 4320, Note_on_c, 11, 73, 48
14, 4439, Note_on_c, 11, 73, 0
14, 4440, Note_on_c, 11, 74, 48
14, 4559, Note_on_c, 11, 74, 0
14, 4560, Note_on_c, 11, 69, 48
14, 4679, Note_on_c, 11, 69, 0
14, 4680, Note_on_c, 11, 71, 48
14, 4799, Note_on_c, 11, 71, 0
14, 4800, Note_on_c, 11, 69, 48
14, 4919, Note_on_c, 11, 69, 0
14, 4920, Note_on_c, 11, 66, 48
14, 5039, Note_on_c, 11, 66, 0
14, 5040, Note_on_c, 11, 67, 48
14, 5159, Note_on_c, 11, 67, 0
14, 5160, Note_on_c, 11, 66, 48
14, 5279, Note_on_c, 11, 66, 0
14, 5280, Note_on_c, 11, 62, 48
14, 5399, Note_on_c, 11, 62, 0
14, 5400, Note_on_c, 11, 66, 48
14, 5459, Note_on_c, 11, 66, 0
14, 5460, Note_on_c, 11, 64, 48
14, 5519, Note_on_c, 11, 64, 0
14, 5520, Note_on_c, 11, 62, 48
14, 5639, Note_on_c, 11, 62, 0
14, 5760, Note_on_c, 11, 72, 44
14, 5849, Note_on_c, 11, 72, 0
14, 5880, Note_on_c, 11, 77, 44
14, 5969, Note_on_c, 11, 77, 0
14, 6000, Note_on_c, 11, 72, 44
14, 6089, Note_on_c, 11, 72, 0
14, 6120, Note_on_c, 11, 74, 44
14, 6209, Note_on_c, 11, 74, 0
14, 6240, Note_on_c, 11, 72, 44
14, 6329, Note_on_c, 11, 72, 0
14, 6360, Note_on_c, 11, 69, 44
14, 6449, Note_on_c, 11, 69, 0
14, 6480, Note_on_c, 11, 70, 44
14, 6569, Note_on_c, 11, 70, 0
14, 6600, Note_on_c, 11, 69, 44
14, 6689, Note_on_c, 11, 69, 0
14, 6720, Note_on_c, 11, 65, 44
14, 6809, Note_on_c, 11, 65, 0
14, 6840, Note_on_c, 11, 67, 44
14, 6929, Note_on_c, 11, 67, 0
14, 6960, Note_on_c, 11, 69, 44
14, 7049, Note_on_c, 11, 69, 0
14, 7080, Note_on_c, 11, 65, 44
14, 7169, Note_on_c, 11, 65, 0
14, 7200, Note_on_c, 11, 67, 44
14, 7289, Note_on_c, 11, 67, 0
14, 7300, Note_on_c, 11, 65, 44
14, 7319, Note_on_c, 11, 65, 0
14, 7320, Note_on_c, 11, 69, 44
14, 7409, Note_on_c, 11, 69, 0
14, 7440, Note_on_c, 11, 65, 44
14, 7529, Note_on_c, 11, 65, 0
14, 7560, Note_on_c, 11, 67, 44
14, 7649, Note_on_c, 11, 67, 0
14, 7660, Note_on_c, 11, 62, 44
14, 7679, Note_on_c, 11, 62, 0
14, 7680, Note_on_c, 11, 65, 44
14, 7769, Note_on_c, 11, 65, 0
14, 7800, Note_on_c, 11, 62, 44
14, 7889, Note_on_c, 11, 62, 0
14, 7920, Note_on_c, 11, 64, 44
14, 8009, Note_on_c, 11, 64, 0
14, 8020, Note_on_c, 11, 57, 44
14, 8039, Note_on_c, 11, 57, 0
14, 8040, Note_on_c, 11, 62, 44
14, 8129, Note_on_c, 11, 62, 0
14, 8160, Note_on_c, 11, 57, 44
14, 8249, Note_on_c, 11, 57, 0
14, 8280, Note_on_c, 11, 57, 44
14, 8369, Note_on_c, 11, 57, 0
14, 8400, Note_on_c, 11, 57, 44
14, 8519, Note_on_c, 11, 57, 0
14, 8640, Note_on_c, 11, 57, 48
14, 8759, Note_on_c, 11, 57, 0
14, 8760, Note_on_c, 11, 62, 48
14, 8999, Note_on_c, 11, 62, 0
14, 9000, Note_on_c, 11, 66, 48
14, 9119, Note_on_c, 11, 66, 0
14, 9120, Note_on_c, 11, 69, 48
14, 9239, Note_on_c, 11, 69, 0
14, 9240, Note_on_c, 11, 66, 48
14, 9344, Note_on_c, 11, 66, 0
14, 9360, Note_on_c, 11, 66, 48
14, 9479, Note_on_c, 11, 66, 0
14, 9480, Note_on_c, 11, 69, 48
14, 9599, Note_on_c, 11, 69, 0
14, 9600, Note_on_c, 11, 73, 48
14, 9719, Note_on_c, 11, 73, 0
14, 9720, Note_on_c, 11, 74, 48
14, 9779, Note_on_c, 11, 74, 0
14, 9780, Note_on_c, 11, 71, 48
14, 9839, Note_on_c, 11, 71, 0
14, 9840, Note_on_c, 11, 69, 48
14, 10064, Note_on_c, 11, 69, 0
14, 10080, Note_on_c, 11, 73, 48
14, 10199, Note_on_c, 11, 73, 0
14, 10200, Note_on_c, 11, 74, 48
14, 10319, Note_on_c, 11, 74, 0
14, 10320, Note_on_c, 11, 69, 48
14, 10439, Note_on_c, 11, 69, 0
14, 10440, Note_on_c, 11, 71, 48
14, 10559, Note_on_c, 11, 71, 0
14, 10560, Note_on_c, 11, 69, 48
14, 10679, Note_on_c, 11, 69, 0
14, 10680, Note_on_c, 11, 66, 48
14, 10799, Note_on_c, 11, 66, 0
14, 10800, Note_on_c, 11, 67, 48
14, 10919, Note_on_c, 11, 67, 0
14, 10920, Note_on_c, 11, 66, 48
14, 11039, Note_on_c, 11, 66, 0
14, 11040, Note_on_c, 11, 62, 48
14, 11159, Note_on_c, 11, 62, 0
14, 11160, Note_on_c, 11, 66, 48
14, 11219, Note_on_c, 11, 66, 0
14, 11220, Note_on_c, 11, 64, 48
14, 11279, Note_on_c, 11, 64, 0
14, 11280, Note_on_c, 11, 62, 48
14, 11399, Note_on_c, 11, 62, 0
14, 11520, Note_on_c, 11, 69, 44
14, 11609, Note_on_c, 11, 69, 0
14, 11640, Note_on_c, 11, 74, 44
14, 11729, Note_on_c, 11, 74, 0
14, 11760, Note_on_c, 11, 69, 44
14, 11849, Note_on_c, 11, 69, 0
14, 11880, Note_on_c, 11, 71, 44
14, 11969, Note_on_c, 11, 71, 0
14, 12000, Note_on_c, 11, 69, 44
14, 12089, Note_on_c, 11, 69, 0
14, 12120, Note_on_c, 11, 66, 44
14, 12209, Note_on_c, 11, 66, 0
14, 12240, Note_on_c, 11, 67, 44
14, 12329, Note_on_c, 11, 67, 0
14, 12360, Note_on_c, 11, 66, 44
14, 12449, Note_on_c, 11, 66, 0
14, 12480, Note_on_c, 11, 62, 44
14, 12569, Note_on_c, 11, 62, 0
14, 12600, Note_on_c, 11, 64, 44
14, 12689, Note_on_c, 11, 64, 0
14, 12720, Note_on_c, 11, 66, 44
14, 12809, Note_on_c, 11, 66, 0
14, 12840, Note_on_c, 11, 62, 44
14, 12929, Note_on_c, 11, 62, 0
14, 12960, Note_on_c, 11, 62, 44
14, 13049, Note_on_c, 11, 62, 0
14, 13080, Note_on_c, 11, 67, 44
14, 13169, Note_on_c, 11, 67, 0
14, 13200, Note_on_c, 11, 62, 44
14, 13289, Note_on_c, 11, 62, 0
14, 13320, Note_on_c, 11, 64, 44
14, 13409, Note_on_c, 11, 64, 0
14, 13440, Note_on_c, 11, 62, 44
14, 13529, Note_on_c, 11, 62, 0
14, 13560, Note_on_c, 11, 59, 44
14, 13649, Note_on_c, 11, 59, 0
14, 13680, Note_on_c, 11, 60, 44
14, 13769, Note_on_c, 11, 60, 0
14, 13800, Note_on_c, 11, 59, 44
14, 13889, Note_on_c, 11, 59, 0
14, 13920, Note_on_c, 11, 55, 44
14, 14009, Note_on_c, 11, 55, 0
14, 14040, Note_on_c, 11, 57, 44
14, 14129, Note_on_c, 11, 57, 0
14, 14160, Note_on_c, 11, 59, 48
14, 14264, Note_on_c, 11, 59, 0
14, 14280, Note_on_c, 11, 55, 48
14, 14384, Note_on_c, 11, 55, 0
14, 14400, Note_on_c, 11, 55, 48
14, 14519, Note_on_c, 11, 55, 0
14, 14520, Note_on_c, 11, 60, 48
14, 14759, Note_on_c, 11, 60, 0
14, 14760, Note_on_c, 11, 64, 48
14, 14879, Note_on_c, 11, 64, 0
14, 14880, Note_on_c, 11, 67, 48
14, 14999, Note_on_c, 11, 67, 0
14, 15000, Note_on_c, 11, 64, 48
14, 15104, Note_on_c, 11, 64, 0
14, 15120, Note_on_c, 11, 64, 48
14, 15239, Note_on_c, 11, 64, 0
14, 15240, Note_on_c, 11, 67, 48
14, 15359, Note_on_c, 11, 67, 0
14, 15360, Note_on_c, 11, 71, 48
14, 15479, Note_on_c, 11, 71, 0
14, 15480, Note_on_c, 11, 72, 48
14, 15539, Note_on_c, 11, 72, 0
14, 15540, Note_on_c, 11, 69, 48
14, 15599, Note_on_c, 11, 69, 0
14, 15600, Note_on_c, 11, 67, 48
14, 15824, Note_on_c, 11, 67, 0
14, 15840, Note_on_c, 11, 71, 48
14, 15959, Note_on_c, 11, 71, 0
14, 15960, Note_on_c, 11, 72, 48
14, 16079, Note_on_c, 11, 72, 0
14, 16080, Note_on_c, 11, 67, 48
14, 16199, Note_on_c, 11, 67, 0
14, 16200, Note_on_c, 11, 69, 48
14, 16319, Note_on_c, 11, 69, 0
14, 16320, Note_on_c, 11, 67, 48
14, 16439, Note_on_c, 11, 67, 0
14, 16440, Note_on_c, 11, 64, 48
14, 16559, Note_on_c, 11, 64, 0
14, 16560, Note_on_c, 11, 65, 48
14, 16679, Note_on_c, 11, 65, 0
14, 16680, Note_on_c, 11, 64, 48
14, 16799, Note_on_c, 11, 64, 0
14, 16800, Note_on_c, 11, 60, 48
14, 16919, Note_on_c, 11, 60, 0
14, 16920, Note_on_c, 11, 62, 48
14, 16920, Note_on_c, 11, 55, 48
14, 17039, Note_on_c, 11, 62, 0
14, 17039, Note_on_c, 11, 55, 0
14, 17040, Note_on_c, 11, 64, 48
14, 17040, Note_on_c, 11, 55, 48
14, 17159, Note_on_c, 11, 64, 0
14, 17159, Note_on_c, 11, 55, 0
14, 17160, Note_on_c, 11, 60, 48
14, 17264, Note_on_c, 11, 60, 0
14, 17278, Control_c, 11, 11, 64
14, 17280, Note_on_c, 11, 60, 84
14, 17280, Control_c, 11, 11, 64
14, 17320, Control_c, 11, 11, 66
14, 17360, Control_c, 11, 11, 68
14, 17399, Note_on_c, 11, 60, 0
14, 17400, Control_c, 11, 11, 69
14, 17400, Note_on_c, 11, 72, 84
14, 17440, Control_c, 11, 11, 71
14, 17480, Control_c, 11, 11, 73
14, 17519, Note_on_c, 11, 72, 0
14, 17520, Control_c, 11, 11, 75
14, 17520, Note_on_c, 11, 69, 84
14, 17560, Control_c, 11, 11, 76
14, 17600, Control_c, 11, 11, 78
14, 17639, Note_on_c, 11, 69, 0
14, 17640, Note_on_c, 11, 70, 84
14, 17640, Control_c, 11, 11, 80
14, 17680, Control_c, 11, 11, 82
14, 17720, Control_c, 11, 11, 83
14, 17759, Note_on_c, 11, 70, 0
14, 17760, Note_on_c, 11, 69, 84
14, 17760, Control_c, 11, 11, 85
14, 17800, Control_c, 11, 11, 87
14, 17840, Control_c, 11, 11, 89
14, 17879, Note_on_c, 11, 69, 0
14, 17880, Note_on_c, 11, 65, 84
14, 17880, Control_c, 11, 11, 90
14, 17920, Control_c, 11, 11, 92
14, 17960, Control_c, 11, 11, 94
14, 17999, Note_on_c, 11, 65, 0
14, 18000, Control_c, 11, 11, 96
14, 18000, Note_on_c, 11, 67, 84
14, 18040, Control_c, 11, 11, 97
14, 18080, Control_c, 11, 11, 99
14, 18119, Note_on_c, 11, 67, 0
14, 18120, Control_c, 11, 11, 101
14, 18120, Note_on_c, 11, 65, 84
14, 18160, Control_c, 11, 11, 103
14, 18200, Control_c, 11, 11, 104
14, 18239, Note_on_c, 11, 65, 0
14, 18240, Note_on_c, 11, 60, 84
14, 18240, Control_c, 11, 11, 106
14, 18280, Control_c, 11, 11, 108
14, 18320, Control_c, 11, 11, 110
14, 18359, Note_on_c, 11, 60, 0
14, 18360, Note_on_c, 11, 67, 84
14, 18360, Control_c, 11, 11, 111
14, 18400, Control_c, 11, 11, 113
14, 18440, Control_c, 11, 11, 115
14, 18479, Note_on_c, 11, 67, 0
14, 18480, Note_on_c, 11, 69, 84
14, 18480, Control_c, 11, 11, 117
14, 18520, Control_c, 11, 11, 118
14, 18560, Control_c, 11, 11, 120
14, 18599, Note_on_c, 11, 69, 0
14, 18600, Control_c, 11, 11, 122
14, 18600, Note_on_c, 11, 65, 84
14, 18640, Control_c, 11, 11, 124
14, 18680, Control_c, 11, 11, 127
14, 18704, Note_on_c, 11, 65, 0
14, 18720, Note_on_c, 11, 72, 84
14, 18809, Note_on_c, 11, 72, 0
14, 18840, Note_on_c, 11, 77, 84
14, 18929, Note_on_c, 11, 77, 0
14, 18960, Note_on_c, 11, 72, 84
14, 19049, Note_on_c, 11, 72, 0
14, 19080, Note_on_c, 11, 74, 84
14, 19169, Note_on_c, 11, 74, 0
14, 19200, Note_on_c, 11, 72, 84
14, 19289, Note_on_c, 11, 72, 0
14, 19320, Note_on_c, 11, 69, 84
14, 19409, Note_on_c, 11, 69, 0
14, 19440, Note_on_c, 11, 70, 84
14, 19529, Note_on_c, 11, 70, 0
14, 19560, Note_on_c, 11, 69, 92
14, 19649, Note_on_c, 11, 69, 0
14, 19680, Note_on_c, 11, 65, 84
14, 19769, Note_on_c, 11, 65, 0
14, 19800, Note_on_c, 11, 67, 84
14, 19889, Note_on_c, 11, 67, 0
14, 19920, Note_on_c, 11, 69, 92
14, 20009, Note_on_c, 11, 69, 0
14, 20040, Note_on_c, 11, 65, 84
14, 20129, Note_on_c, 11, 65, 0
14, 20160, Note_on_c, 11, 67, 84
14, 20249, Note_on_c, 11, 67, 0
14, 20280, Note_on_c, 11, 69, 92
14, 20369, Note_on_c, 11, 69, 0
14, 20400, Note_on_c, 11, 65, 84
14, 20489, Note_on_c, 11, 65, 0
14, 20520, Note_on_c, 11, 67, 84
14, 20609, Note_on_c, 11, 67, 0
14, 20640, Note_on_c, 11, 69, 92
14, 20729, Note_on_c, 11, 69, 0
14, 20760, Note_on_c, 11, 65, 84
14, 20849, Note_on_c, 11, 65, 0
14, 20880, Note_on_c, 11, 67, 84
14, 20969, Note_on_c, 11, 67, 0
14, 21000, Note_on_c, 11, 69, 92
14, 21060, Control_c, 11, 11, 112
14, 21307, Note_on_c, 11, 69, 0
14, 21320, Note_on_c, 11, 67, 92
14, 21339, Note_on_c, 11, 67, 0
14, 21340, Note_on_c, 11, 69, 92
14, 21359, Note_on_c, 11, 69, 0
14, 21360, Note_on_c, 11, 67, 92
14, 21584, Note_on_c, 11, 67, 0
14, 21600, Note_on_c, 11, 65, 92
14, 21667, Note_on_c, 11, 65, 0
14, 21680, Note_on_c, 11, 64, 92
14, 21699, Note_on_c, 11, 64, 0
14, 21700, Note_on_c, 11, 65, 92
14, 21719, Note_on_c, 11, 65, 0
14, 21720, Note_on_c, 11, 64, 92
14, 21944, Note_on_c, 11, 64, 0
14, 21960, Note_on_c, 11, 62, 92
14, 22064, Note_on_c, 11, 62, 0
14, 22080, Note_on_c, 11, 60, 92
14, 22304, Note_on_c, 11, 60, 0
14, 22320, Note_on_c, 11, 72, 92
14, 22424, Note_on_c, 11, 72, 0
14, 22438, Control_c, 11, 11, 127
14, 22440, Note_on_c, 11, 77, 92
14, 22500, Control_c, 11, 11, 112
14, 22784, Note_on_c, 11, 77, 0
14, 22798, Control_c, 11, 11, 127
14, 22800, Note_on_c, 11, 77, 92
14, 22860, Control_c, 11, 11, 112
14, 23144, Note_on_c, 11, 77, 0
14, 23158, Control_c, 11, 11, 127
14, 23160, Note_on_c, 11, 77, 92
14, 23220, Control_c, 11, 11, 112
14, 23504, Note_on_c, 11, 77, 0
14, 23518, Control_c, 11, 11, 127
14, 23520, Note_on_c, 11, 67, 92
14, 23520, Note_on_c, 11, 60, 92
14, 23520, Note_on_c, 11, 76, 92
14, 23580, Control_c, 11, 11, 112
14, 23639, Note_on_c, 11, 67, 0
14, 23639, Note_on_c, 11, 60, 0
14, 23864, Note_on_c, 11, 76, 0
14, 23880, Note_on_c, 11, 77, 92
14, 23880, Note_on_c, 11, 69, 92
14, 23999, Note_on_c, 11, 77, 0
14, 23999, Note_on_c, 11, 69, 0
14, 24120, Note_on_c, 11, 81, 92
14, 24187, Note_on_c, 11, 81, 0
14, 24200, Note_on_c, 11, 79, 92
14, 24219, Note_on_c, 11, 79, 0
14, 24220, Note_on_c, 11, 81, 92
14, 24239, Note_on_c, 11, 81, 0
14, 24240, Note_on_c, 11, 79, 92
14, 24464, Note_on_c, 11, 79, 0
14, 24480, Note_on_c, 11, 77, 92
14, 24547, Note_on_c, 11, 77, 0
14, 24560, Note_on_c, 11, 76, 92
14, 24579, Note_on_c, 11, 76, 0
14, 24580, Note_on_c, 11, 77, 92
14, 24599, Note_on_c, 11, 77, 0
14, 24600, Note_on_c, 11, 76, 92
14, 24824, Note_on_c, 11, 76, 0
14, 24840, Note_on_c, 11, 74, 92
14, 24944, Note_on_c, 11, 74, 0
14, 24960, Note_on_c, 11, 72, 92
14, 25184, Note_on_c, 11, 72, 0
14, 25200, Note_on_c, 11, 76, 92
14, 25304, Note_on_c, 11, 76, 0
14, 25318, Control_c, 11, 11, 127
14, 25320, Note_on_c, 11, 77, 92
14, 25320, Note_on_c, 11, 72, 92
14, 25320, Note_on_c, 11, 65, 92
14, 25380, Control_c, 11, 11, 112
14, 25439, Note_on_c, 11, 72, 0
14, 25439, Note_on_c, 11, 65, 0
14, 25664, Note_on_c, 11, 77, 0
14, 25678, Control_c, 11, 11, 127
14, 25680, Note_on_c, 11, 67, 92
14, 25740, Control_c, 11, 11, 112
14, 26024, Note_on_c, 11, 67, 0
14, 26038, Control_c, 11, 11, 127
14, 26040, Note_on_c, 11, 72, 92
14, 26100, Control_c, 11, 11, 112
14, 26384, Note_on_c, 11, 72, 0
14, 26398, Control_c, 11, 11, 127
14, 26400, Note_on_c, 11, 72, 92
14, 26400, Note_on_c, 11, 64, 92
14, 26400, Note_on_c, 11, 76, 92
14, 26460, Control_c, 11, 11, 112
14, 26519, Note_on_c, 11, 72, 0
14, 26519, Note_on_c, 11, 64, 0
14, 26744, Note_on_c, 11, 76, 0
14, 26758, Control_c, 11, 11, 127
14, 26760, Note_on_c, 11, 72, 92
14, 26760, Note_on_c, 11, 77, 92
14, 26760, Note_on_c, 11, 65, 92
14, 26879, Note_on_c, 11, 72, 0
14, 26879, Note_on_c, 11, 77, 0
14, 26879, Note_on_c, 11, 65, 0
14, 27120, Note_on_c, 11, 57, 84
14, 27171, Note_on_c, 11, 57, 0
14, 27180, Note_on_c, 11, 60, 84
14, 27231, Note_on_c, 11, 60, 0
14, 27240, Note_on_c, 11, 65, 84
14, 27291, Note_on_c, 11, 65, 0
14, 27300, Note_on_c, 11, 69, 84
14, 27351, Note_on_c, 11, 69, 0
14, 27360, Note_on_c, 11, 72, 84
14, 27479, Note_on_c, 11, 72, 0
14, 27840, Note_on_c, 11, 70, 84
14, 27840, Note_on_c, 11, 67, 84
14, 27944, Note_on_c, 11, 70, 0
14, 27944, Note_on_c, 11, 67, 0
14, 27960, Note_on_c, 11, 70, 84
14, 27960, Note_on_c, 11, 67, 84
14, 28064, Note_on_c, 11, 70, 0
14, 28064, Note_on_c, 11, 67, 0
14, 28080, Note_on_c, 11, 70, 84
14, 28080, Note_on_c, 11, 67, 84
14, 28184, Note_on_c, 11, 70, 0
14, 28184, Note_on_c, 11, 67, 0
14, 28200, Note_on_c, 11, 65, 92
14, 28200, Note_on_c, 11, 69, 92
14, 28319, Note_on_c, 11, 65, 0
14, 28319, Note_on_c, 11, 69, 0
14, 28560, Note_on_c, 11, 57, 84
14, 28611, Note_on_c, 11, 57, 0
14, 28620, Note_on_c, 11, 60, 84
14, 28671, Note_on_c, 11, 60, 0
14, 28680, Note_on_c, 11, 65, 84
14, 28731, Note_on_c, 11, 65, 0
14, 28740, Note_on_c, 11, 69, 84
14, 28791, Note_on_c, 11, 69, 0
14, 28800, Note_on_c, 11, 72, 84
14, 28919, Note_on_c, 11, 72, 0
14, 29280, Note_on_c, 11, 70, 84
14, 29280, Note_on_c, 11, 67, 84
14, 29384, Note_on_c, 11, 70, 0
14, 29384, Note_on_c, 11, 67, 0
14, 29400, Note_on_c, 11, 67, 84
14, 29400, Note_on_c, 11, 70, 84
14, 29504, Note_on_c, 11, 67, 0
14, 29504, Note_on_c, 11, 70, 0
14, 29520, Note_on_c, 11, 70, 84
14, 29520, Note_on_c, 11, 67, 84
14, 29624, Note_on_c, 11, 70, 0
14, 29624, Note_on_c, 11, 67, 0
14, 29640, Note_on_c, 11, 65, 92
14, 29640, Note_on_c, 11, 69, 92
14, 29759, Note_on_c, 11, 65, 0
14, 29759, Note_on_c, 11, 69, 0
14, 30360, Note_on_c, 11, 77, 92
14, 30360, Note_on_c, 11, 65, 92
14, 30360, Note_on_c, 11, 69, 92
14, 30479, Note_on_c, 11, 77, 0
14, 30479, Note_on_c, 11, 65, 0
14, 30479, Note_on_c, 11, 69, 0
14, 31080, Note_on_c, 11, 69, 84
14, 31184, Note_on_c, 11, 69, 0
14, 31200, Note_on_c, 11, 65, 81
14, 31304, Note_on_c, 11, 65, 0
14, 31320, Note_on_c, 11, 65, 78
14, 31424, Note_on_c, 11, 65, 0
14, 31440, Note_on_c, 11, 69, 74
14, 31544, Note_on_c, 11, 69, 0
14, 31560, Note_on_c, 11, 65, 71
14, 31664, Note_on_c, 11, 65, 0
14, 31680, Note_on_c, 11, 65, 68
14, 31784, Note_on_c, 11, 65, 0
14, 31800, Note_on_c, 11, 69, 64
14, 31904, Note_on_c, 11, 69, 0
14, 31920, Note_on_c, 11, 65, 61
14, 32024, Note_on_c, 11, 65, 0
14, 32040, Note_on_c, 11, 65, 58
14, 32144, Note_on_c, 11, 65, 0
14, 32160, Note_on_c, 11, 69, 54
14, 32264, Note_on_c, 11, 69, 0
14, 32280, Note_on_c, 11, 65, 51
14, 32384, Note_on_c, 11, 65, 0
14, 32400, Note_on_c, 11, 65, 48
14, 32504, Note_on_c, 11, 65, 0
14, 32520, Note_on_c, 11, 69, 44
14, 32624, Note_on_c, 11, 69, 0
14, 32640, Note_on_c, 11, 65, 44
14, 32744, Note_on_c, 11, 65, 0
14, 32760, Note_on_c, 11, 65, 44
14, 32864, Note_on_c, 11, 65, 0
14, 32880, Note_on_c, 11, 69, 44
14, 32984, Note_on_c, 11, 69, 0
14, 33000, Note_on_c, 11, 65, 44
14, 33104, Note_on_c, 11, 65, 0
14, 33120, Note_on_c, 11, 65, 44
14, 33224, Note_on_c, 11, 65, 0
14, 33240, Note_on_c, 11, 70, 44
14, 33344, Note_on_c, 11, 70, 0
14, 33360, Note_on_c, 11, 65, 44
14, 33464, Note_on_c, 11, 65, 0
14, 33480, Note_on_c, 11, 65, 44
14, 33584, Note_on_c, 11, 65, 0
14, 33600, Note_on_c, 11, 70, 44
14, 33704, Note_on_c, 11, 70, 0
14, 33720, Note_on_c, 11, 65, 44
14, 33824, Note_on_c, 11, 65, 0
14, 33840, Note_on_c, 11, 65, 44
14, 33944, Note_on_c, 11, 65, 0
14, 33960, Note_on_c, 11, 69, 44
14, 34064, Note_on_c, 11, 69, 0
14, 34080, Note_on_c, 11, 65, 44
14, 34184, Note_on_c, 11, 65, 0
14, 34200, Note_on_c, 11, 65, 44
14, 34304, Note_on_c, 11, 65, 0
14, 34320, Note_on_c, 11, 67, 44
14, 34424, Note_on_c, 11, 67, 0
14, 34440, Note_on_c, 11, 64, 44
14, 34544, Note_on_c, 11, 64, 0
14, 34560, Note_on_c, 11, 64, 44
14, 34664, Note_on_c, 11, 64, 0
14, 34680, Note_on_c, 11, 69, 44
14, 34784, Note_on_c, 11, 69, 0
14, 34800, Note_on_c, 11, 65, 44
14, 34904, Note_on_c, 11, 65, 0
14, 34920, Note_on_c, 11, 65, 44
14, 35024, Note_on_c, 11, 65, 0
14, 35040, Note_on_c, 11, 69, 44
14, 35144, Note_on_c, 11, 69, 0
14, 35160, Note_on_c, 11, 65, 44
14, 35264, Note_on_c, 11, 65, 0
14, 35280, Note_on_c, 11, 65, 44
14, 35384, Note_on_c, 11, 65, 0
14, 35400, Note_on_c, 11, 69, 44
14, 35504, Note_on_c, 11, 69, 0
14, 35520, Note_on_c, 11, 65, 44
14, 35624, Note_on_c, 11, 65, 0
14, 35640, Note_on_c, 11, 65, 44
14, 35744, Note_on_c, 11, 65, 0
14, 35760, Note_on_c, 11, 69, 44
14, 35864, Note_on_c, 11, 69, 0
14, 35880, Note_on_c, 11, 65, 44
14, 35984, Note_on_c, 11, 65, 0
14, 36000, Note_on_c, 11, 65, 44
14, 36104, Note_on_c, 11, 65, 0
14, 36120, Note_on_c, 11, 70, 44
14, 36224, Note_on_c, 11, 70, 0
14, 36240, Note_on_c, 11, 65, 44
14, 36344, Note_on_c, 11, 65, 0
14, 36360, Note_on_c, 11, 65, 44
14, 36464, Note_on_c, 11, 65, 0
14, 36480, Note_on_c, 11, 70, 44
14, 36584, Note_on_c, 11, 70, 0
14, 36600, Note_on_c, 11, 65, 44
14, 36704, Note_on_c, 11, 65, 0
14, 36720, Note_on_c, 11, 65, 44
14, 36824, Note_on_c, 11, 65, 0
14, 36840, Note_on_c, 11, 69, 44
14, 36944, Note_on_c, 11, 69, 0
14, 36960, Note_on_c, 11, 65, 44
14, 37064, Note_on_c, 11, 65, 0
14, 37080, Note_on_c, 11, 65, 44
14, 37184, Note_on_c, 11, 65, 0
14, 37200, Note_on_c, 11, 70, 44
14, 37304, Note_on_c, 11, 70, 0
14, 37320, Note_on_c, 11, 64, 44
14, 37424, Note_on_c, 11, 64, 0
14, 37440, Note_on_c, 11, 64, 44
14, 37544, Note_on_c, 11, 64, 0
14, 37560, Note_on_c, 11, 67, 44
14, 37664, Note_on_c, 11, 67, 0
14, 37680, Note_on_c, 11, 64, 44
14, 37784, Note_on_c, 11, 64, 0
14, 37800, Note_on_c, 11, 64, 44
14, 37904, Note_on_c, 11, 64, 0
14, 37920, Note_on_c, 11, 69, 44
14, 38024, Note_on_c, 11, 69, 0
14, 38040, Note_on_c, 11, 65, 44
14, 38144, Note_on_c, 11, 65, 0
14, 38160, Note_on_c, 11, 65, 44
14, 38264, Note_on_c, 11, 65, 0
14, 38280, Note_on_c, 11, 69, 44
14, 38384, Note_on_c, 11, 69, 0
14, 38400, Note_on_c, 11, 65, 44
14, 38504, Note_on_c, 11, 65, 0
14, 38520, Note_on_c, 11, 65, 44
14, 38624, Note_on_c, 11, 65, 0
14, 38640, Note_on_c, 11, 69, 44
14, 38744, Note_on_c, 11, 69, 0
14, 38760, Note_on_c, 11, 65, 44
14, 38864, Note_on_c, 11, 65, 0
14, 38880, Note_on_c, 11, 65, 44
14, 38984, Note_on_c, 11, 65, 0
14, 39000, Note_on_c, 11, 70, 44
14, 39104, Note_on_c, 11, 70, 0
14, 39120, Note_on_c, 11, 65, 44
14, 39224, Note_on_c, 11, 65, 0
14, 39240, Note_on_c, 11, 65, 44
14, 39344, Note_on_c, 11, 65, 0
14, 39360, Note_on_c, 11, 70, 44
14, 39464, Note_on_c, 11, 70, 0
14, 39480, Note_on_c, 11, 65, 44
14, 39584, Note_on_c, 11, 65, 0
14, 39600, Note_on_c, 11, 65, 44
14, 39704, Note_on_c, 11, 65, 0
14, 39720, Note_on_c, 11, 69, 44
14, 39824, Note_on_c, 11, 69, 0
14, 39840, Note_on_c, 11, 65, 44
14, 39944, Note_on_c, 11, 65, 0
14, 39960, Note_on_c, 11, 65, 44
14, 40064, Note_on_c, 11, 65, 0
14, 40080, Note_on_c, 11, 67, 44
14, 40184, Note_on_c, 11, 67, 0
14, 40200, Note_on_c, 11, 64, 44
14, 40304, Note_on_c, 11, 64, 0
14, 40320, Note_on_c, 11, 64, 44
14, 40424, Note_on_c, 11, 64, 0
14, 40440, Note_on_c, 11, 69, 44
14, 40544, Note_on_c, 11, 69, 0
14, 40560, Note_on_c, 11, 65, 44
14, 40664, Note_on_c, 11, 65, 0
14, 40680, Note_on_c, 11, 65, 44
14, 40784, Note_on_c, 11, 65, 0
14, 40800, Note_on_c, 11, 69, 44
14, 40904, Note_on_c, 11, 69, 0
14, 40920, Note_on_c, 11, 65, 44
14, 41024, Note_on_c, 11, 65, 0
14, 41040, Note_on_c, 11, 65, 44
14, 41144, Note_on_c, 11, 65, 0
14, 41160, Note_on_c, 11, 69, 44
14, 41264, Note_on_c, 11, 69, 0
14, 41280, Note_on_c, 11, 65, 44
14, 41384, Note_on_c, 11, 65, 0
14, 41400, Note_on_c, 11, 65, 44
14, 41504, Note_on_c, 11, 65, 0
14, 41520, Note_on_c, 11, 69, 44
14, 41624, Note_on_c, 11, 69, 0
14, 41640, Note_on_c, 11, 65, 44
14, 41744, Note_on_c, 11, 65, 0
14, 41760, Note_on_c, 11, 65, 44
14, 41864, Note_on_c, 11, 65, 0
14, 41880, Note_on_c, 11, 70, 44
14, 41984, Note_on_c, 11, 70, 0
14, 42000, Note_on_c, 11, 65, 44
14, 42104, Note_on_c, 11, 65, 0
14, 42120, Note_on_c, 11, 65, 44
14, 42224, Note_on_c, 11, 65, 0
14, 42240, Note_on_c, 11, 70, 44
14, 42344, Note_on_c, 11, 70, 0
14, 42360, Note_on_c, 11, 65, 44
14, 42464, Note_on_c, 11, 65, 0
14, 42480, Note_on_c, 11, 65, 44
14, 42584, Note_on_c, 11, 65, 0
14, 42600, Note_on_c, 11, 69, 44
14, 42704, Note_on_c, 11, 69, 0
14, 42720, Note_on_c, 11, 65, 44
14, 42824, Note_on_c, 11, 65, 0
14, 42840, Note_on_c, 11, 65, 44
14, 42944, Note_on_c, 11, 65, 0
14, 42960, Note_on_c, 11, 70, 44
14, 43064, Note_on_c, 11, 70, 0
14, 43080, Note_on_c, 11, 64, 44
14, 43184, Note_on_c, 11, 64, 0
14, 43200, Note_on_c, 11, 64, 44
14, 43304, Note_on_c, 11, 64, 0
14, 43320, Note_on_c, 11, 67, 44
14, 43424, Note_on_c, 11, 67, 0
14, 43440, Note_on_c, 11, 64, 44
14, 43544, Note_on_c, 11, 64, 0
14, 43560, Note_on_c, 11, 64, 44
14, 43664, Note_on_c, 11, 64, 0
14, 43680, Note_on_c, 11, 69, 44
14, 43784, Note_on_c, 11, 69, 0
14, 43800, Note_on_c, 11, 65, 44
14, 43904, Note_on_c, 11, 65, 0
14, 43920, Note_on_c, 11, 65, 44
14, 44039, Note_on_c, 11, 65, 0
14, 46800, Control_c, 11, 11, 96
14, 46920, Note_on_c, 11, 67, 68
14, 46920, Control_c, 11, 11, 96
14, 46980, Control_c, 11, 11, 99
14, 47024, Note_on_c, 11, 67, 0
14, 47040, Note_on_c, 11, 64, 68
14, 47040, Control_c, 11, 11, 101
14, 47100, Control_c, 11, 11, 104
14, 47144, Note_on_c, 11, 64, 0
14, 47160, Note_on_c, 11, 64, 68
14, 47160, Control_c, 11, 11, 106
14, 47220, Control_c, 11, 11, 109
14, 47264, Note_on_c, 11, 64, 0
14, 47280, Note_on_c, 11, 67, 68
14, 47280, Control_c, 11, 11, 112
14, 47340, Control_c, 11, 11, 114
14, 47384, Note_on_c, 11, 67, 0
14, 47400, Control_c, 11, 11, 117
14, 47400, Note_on_c, 11, 64, 68
14, 47460, Control_c, 11, 11, 119
14, 47504, Note_on_c, 11, 64, 0
14, 47520, Control_c, 11, 11, 122
14, 47520, Note_on_c, 11, 64, 68
14, 47580, Control_c, 11, 11, 127
14, 47624, Note_on_c, 11, 64, 0
14, 47640, Note_on_c, 11, 69, 52
14, 47744, Note_on_c, 11, 69, 0
14, 47760, Note_on_c, 11, 65, 52
14, 47864, Note_on_c, 11, 65, 0
14, 47880, Note_on_c, 11, 65, 52
14, 47984, Note_on_c, 11, 65, 0
14, 48000, Note_on_c, 11, 69, 52
14, 48104, Note_on_c, 11, 69, 0
14, 48120, Note_on_c, 11, 65, 52
14, 48224, Note_on_c, 11, 65, 0
14, 48240, Note_on_c, 11, 65, 52
14, 48344, Note_on_c, 11, 65, 0
14, 48360, Note_on_c, 11, 70, 52
14, 48464, Note_on_c, 11, 70, 0
14, 48480, Note_on_c, 11, 65, 52
14, 48584, Note_on_c, 11, 65, 0
14, 48600, Note_on_c, 11, 65, 52
14, 48704, Note_on_c, 11, 65, 0
14, 48720, Note_on_c, 11, 70, 52
14, 48824, Note_on_c, 11, 70, 0
14, 48840, Note_on_c, 11, 65, 52
14, 48944, Note_on_c, 11, 65, 0
14, 48960, Note_on_c, 11, 65, 52
14, 49064, Note_on_c, 11, 65, 0
14, 49080, Note_on_c, 11, 69, 52
14, 49184, Note_on_c, 11, 69, 0
14, 49200, Note_on_c, 11, 65, 52
14, 49304, Note_on_c, 11, 65, 0
14, 49320, Note_on_c, 11, 65, 52
14, 49424, Note_on_c, 11, 65, 0
14, 49440, Note_on_c, 11, 67, 52
14, 49544, Note_on_c, 11, 67, 0
14, 49560, Note_on_c, 11, 64, 52
14, 49664, Note_on_c, 11, 64, 0
14, 49680, Note_on_c, 11, 64, 52
14, 49784, Note_on_c, 11, 64, 0
14, 49800, Note_on_c, 11, 69, 52
14, 49904, Note_on_c, 11, 69, 0
14, 49920, Note_on_c, 11, 65, 52
14, 50024, Note_on_c, 11, 65, 0
14, 50040, Note_on_c, 11, 65, 52
14, 50144, Note_on_c, 11, 65, 0
14, 50160, Note_on_c, 11, 69, 52
14, 50264, Note_on_c, 11, 69, 0
14, 50280, Note_on_c, 11, 65, 52
14, 50384, Note_on_c, 11, 65, 0
14, 50400, Note_on_c, 11, 65, 52
14, 50504, Note_on_c, 11, 65, 0
14, 50518, Control_c, 11, 11, 96
14, 50520, Note_on_c, 11, 69, 68
14, 50520, Control_c, 11, 11, 96
14, 50580, Control_c, 11, 11, 97
14, 50624, Note_on_c, 11, 69, 0
14, 50640, Note_on_c, 11, 65, 68
14, 50640, Control_c, 11, 11, 99
14, 50700, Control_c, 11, 11, 100
14, 50744, Note_on_c, 11, 65, 0
14, 50760, Note_on_c, 11, 65, 68
14, 50760, Control_c, 11, 11, 101
14, 50820, Control_c, 11, 11, 102
14, 50864, Note_on_c, 11, 65, 0
14, 50880, Control_c, 11, 11, 104
14, 50880, Note_on_c, 11, 69, 68
14, 50940, Control_c, 11, 11, 105
14, 50984, Note_on_c, 11, 69, 0
14, 51000, Control_c, 11, 11, 106
14, 51000, Note_on_c, 11, 65, 68
14, 51060, Control_c, 11, 11, 108
14, 51104, Note_on_c, 11, 65, 0
14, 51120, Control_c, 11, 11, 109
14, 51120, Note_on_c, 11, 65, 68
14, 51180, Control_c, 11, 11, 110
14, 51224, Note_on_c, 11, 65, 0
14, 51240, Control_c, 11, 11, 112
14, 51240, Note_on_c, 11, 70, 68
14, 51300, Control_c, 11, 11, 113
14, 51344, Note_on_c, 11, 70, 0
14, 51360, Control_c, 11, 11, 114
14, 51360, Note_on_c, 11, 60, 68
14, 51420, Control_c, 11, 11, 115
14, 51464, Note_on_c, 11, 60, 0
14, 51480, Note_on_c, 11, 60, 68
14, 51480, Control_c, 11, 11, 117
14, 51540, Control_c, 11, 11, 118
14, 51584, Note_on_c, 11, 60, 0
14, 51600, Control_c, 11, 11, 119
14, 51600, Note_on_c, 11, 70, 68
14, 51660, Control_c, 11, 11, 121
14, 51704, Note_on_c, 11, 70, 0
14, 51720, Control_c, 11, 11, 122
14, 51720, Note_on_c, 11, 64, 68
14, 51780, Control_c, 11, 11, 123
14, 51824, Note_on_c, 11, 64, 0
14, 51840, Note_on_c, 11, 64, 68
14, 51840, Control_c, 11, 11, 124
14, 51900, Control_c, 11, 11, 127
14, 51944, Note_on_c, 11, 64, 0
14, 51960, Note_on_c, 11, 69, 52
14, 52064, Note_on_c, 11, 69, 0
14, 52080, Note_on_c, 11, 65, 52
14, 52184, Note_on_c, 11, 65, 0
14, 52200, Note_on_c, 11, 65, 52
14, 52304, Note_on_c, 11, 65, 0
14, 52320, Note_on_c, 11, 69, 52
14, 52424, Note_on_c, 11, 69, 0
14, 52440, Note_on_c, 11, 65, 52
14, 52544, Note_on_c, 11, 65, 0
14, 52560, Note_on_c, 11, 65, 52
14, 52664, Note_on_c, 11, 65, 0
14, 52680, Note_on_c, 11, 70, 52
14, 52784, Note_on_c, 11, 70, 0
14, 52800, Note_on_c, 11, 60, 52
14, 52904, Note_on_c, 11, 60, 0
14, 52920, Note_on_c, 11, 60, 52
14, 53024, Note_on_c, 11, 60, 0
14, 53040, Note_on_c, 11, 70, 52
14, 53144, Note_on_c, 11, 70, 0
14, 53160, Note_on_c, 11, 60, 52
14, 53264, Note_on_c, 11, 60, 0
14, 53280, Note_on_c, 11, 60, 52
14, 53384, Note_on_c, 11, 60, 0
14, 53400, Note_on_c, 11, 69, 52
14, 53504, Note_on_c, 11, 69, 0
14, 53520, Note_on_c, 11, 65, 52
14, 53624, Note_on_c, 11, 65, 0
14, 53640, Note_on_c, 11, 65, 52
14, 53744, Note_on_c, 11, 65, 0
14, 53760, Note_on_c, 11, 69, 52
14, 53864, Note_on_c, 11, 69, 0
14, 53880, Note_on_c, 11, 65, 52
14, 53984, Note_on_c, 11, 65, 0
14, 54000, Note_on_c, 11, 65, 52
14, 54104, Note_on_c, 11, 65, 0
14, 54120, Note_on_c, 11, 70, 52
14, 54224, Note_on_c, 11, 70, 0
14, 54240, Note_on_c, 11, 60, 52
14, 54344, Note_on_c, 11, 60, 0
14, 54360, Note_on_c, 11, 60, 52
14, 54464, Note_on_c, 11, 60, 0
14, 54480, Note_on_c, 11, 70, 52
14, 54584, Note_on_c, 11, 70, 0
14, 54600, Note_on_c, 11, 60, 52
14, 54704, Note_on_c, 11, 60, 0
14, 54720, Note_on_c, 11, 60, 52
14, 54824, Note_on_c, 11, 60, 0
14, 54838, Control_c, 11, 11, 80
14, 54840, Note_on_c, 11, 65, 76
14, 55544, Note_on_c, 11, 65, 0
14, 55560, Note_on_c, 11, 64, 76
14, 56264, Note_on_c, 11, 64, 0
14, 56280, Control_c, 11, 11, 80
14, 56280, Note_on_c, 11, 65, 76
14, 56340, Control_c, 11, 11, 82
14, 56400, Control_c, 11, 11, 84
14, 56460, Control_c, 11, 11, 86
14, 56520, Control_c, 11, 11, 88
14, 56580, Control_c, 11, 11, 90
14, 56640, Control_c, 11, 11, 92
14, 56700, Control_c, 11, 11, 94
14, 56760, Control_c, 11, 11, 96
14, 56820, Control_c, 11, 11, 98
14, 56880, Control_c, 11, 11, 100
14, 56940, Control_c, 11, 11, 102
14, 56984, Note_on_c, 11, 65, 0
14, 57000, Note_on_c, 11, 64, 76
14, 57000, Control_c, 11, 11, 104
14, 57060, Control_c, 11, 11, 105
14, 57120, Control_c, 11, 11, 107
14, 57180, Control_c, 11, 11, 109
14, 57240, Control_c, 11, 11, 111
14, 57300, Control_c, 11, 11, 113
14, 57360, Control_c, 11, 11, 115
14, 57420, Control_c, 11, 11, 117
14, 57480, Control_c, 11, 11, 119
14, 57540, Control_c, 11, 11, 121
14, 57600, Control_c, 11, 11, 123
14, 57660, Control_c, 11, 11, 127
14, 57704, Note_on_c, 11, 64, 0
14, 57720, Note_on_c, 11, 65, 76
14, 57839, Note_on_c, 11, 65, 0
14, 59160, Note_on_c, 11, 65, 84
14, 59279, Note_on_c, 11, 65, 0
14, 59280, Note_on_c, 11, 67, 84
14, 59339, Note_on_c, 11, 67, 0
14, 59340, Note_on_c, 11, 65, 84
14, 59399, Note_on_c, 11, 65, 0
14, 59400, Note_on_c, 11, 60, 84
14, 59519, Note_on_c, 11, 60, 0
14, 59520, Note_on_c, 11, 62, 84
14, 59579, Note_on_c, 11, 62, 0
14, 59580, Note_on_c, 11, 64, 84
14, 59631, Note_on_c, 11, 64, 0
14, 59640, Note_on_c, 11, 65, 92
14, 59759, Note_on_c, 11, 65, 0
14, 59760, Note_on_c, 11, 67, 84
14, 59819, Note_on_c, 11, 67, 0
14, 59820, Note_on_c, 11, 65, 84
14, 59871, Note_on_c, 11, 65, 0
14, 59880, Note_on_c, 11, 60, 84
14, 60104, Note_on_c, 11, 60, 0
14, 60120, Note_on_c, 11, 58, 92
14, 60179, Note_on_c, 11, 58, 0
14, 60180, Note_on_c, 11, 60, 84
14, 60239, Note_on_c, 11, 60, 0
14, 60240, Note_on_c, 11, 62, 84
14, 60299, Note_on_c, 11, 62, 0
14, 60300, Note_on_c, 11, 63, 84
14, 60359, Note_on_c, 11, 63, 0
14, 60360, Note_on_c, 11, 65, 84
14, 60449, Note_on_c, 11, 65, 0
14, 60480, Note_on_c, 11, 65, 84
14, 60509, Note_on_c, 11, 65, 0
14, 60510, Note_on_c, 11, 67, 84
14, 60591, Note_on_c, 11, 67, 0
14, 60600, Note_on_c, 11, 60, 92
14, 60689, Note_on_c, 11, 60, 0
14, 60720, Note_on_c, 11, 60, 84
14, 60749, Note_on_c, 11, 60, 0
14, 60750, Note_on_c, 11, 65, 84
14, 60831, Note_on_c, 11, 65, 0
14, 60840, Note_on_c, 11, 58, 84
14, 61064, Note_on_c, 11, 58, 0
14, 61080, Note_on_c, 11, 65, 92
14, 61199, Note_on_c, 11, 65, 0
14, 61200, Note_on_c, 11, 67, 84
14, 61259, Note_on_c, 11, 67, 0
14, 61260, Note_on_c, 11, 65, 84
14, 61319, Note_on_c, 11, 65, 0
14, 61320, Note_on_c, 11, 60, 84
14, 61439, Note_on_c, 11, 60, 0
14, 61440, Note_on_c, 11, 62, 84
14, 61499, Note_on_c, 11, 62, 0
14, 61500, Note_on_c, 11, 64, 84
14, 61551, Note_on_c, 11, 64, 0
14, 61560, Note_on_c, 11, 65, 92
14, 61679, Note_on_c, 11, 65, 0
14, 61680, Note_on_c, 11, 67, 84
14, 61739, Note_on_c, 11, 67, 0
14, 61740, Note_on_c, 11, 65, 84
14, 61791, Note_on_c, 11, 65, 0
14, 61800, Note_on_c, 11, 60, 84
14, 62024, Note_on_c, 11, 60, 0
14, 62040, Note_on_c, 11, 58, 92
14, 62099, Note_on_c, 11, 58, 0
14, 62100, Note_on_c, 11, 60, 84
14, 62159, Note_on_c, 11, 60, 0
14, 62160, Note_on_c, 11, 62, 84
14, 62219, Note_on_c, 11, 62, 0
14, 62220, Note_on_c, 11, 63, 84
14, 62279, Note_on_c, 11, 63, 0
14, 62280, Note_on_c, 11, 65, 84
14, 62369, Note_on_c, 11, 65, 0
14, 62400, Note_on_c, 11, 65, 84
14, 62429, Note_on_c, 11, 65, 0
14, 62430, Note_on_c, 11, 67, 84
14, 62511, Note_on_c, 11, 67, 0
14, 62520, Note_on_c, 11, 60, 92
14, 62609, Note_on_c, 11, 60, 0
14, 62640, Note_on_c, 11, 60, 84
14, 62669, Note_on_c, 11, 60, 0
14, 62670, Note_on_c, 11, 65, 84
14, 62751, Note_on_c, 11, 65, 0
14, 62760, Note_on_c, 11, 58, 84
14, 62984, Note_on_c, 11, 58, 0
14, 63000, Note_on_c, 11, 65, 92
14, 63119, Note_on_c, 11, 65, 0
14, 63120, Note_on_c, 11, 67, 84
14, 63179, Note_on_c, 11, 67, 0
14, 63180, Note_on_c, 11, 65, 84
14, 63239, Note_on_c, 11, 65, 0
14, 63240, Note_on_c, 11, 60, 84
14, 63359, Note_on_c, 11, 60, 0
14, 63360, Note_on_c, 11, 62, 84
14, 63419, Note_on_c, 11, 62, 0
14, 63420, Note_on_c, 11, 64, 84
14, 63471, Note_on_c, 11, 64, 0
14, 63480, Note_on_c, 11, 65, 92
14, 63599, Note_on_c, 11, 65, 0
14, 63600, Note_on_c, 11, 67, 84
14, 63659, Note_on_c, 11, 67, 0
14, 63660, Note_on_c, 11, 65, 84
14, 63711, Note_on_c, 11, 65, 0
14, 63720, Note_on_c, 11, 60, 84
14, 63944, Note_on_c, 11, 60, 0
14, 63960, Note_on_c, 11, 58, 92
14, 64019, Note_on_c, 11, 58, 0
14, 64020, Note_on_c, 11, 60, 84
14, 64079, Note_on_c, 11, 60, 0
14, 64080, Note_on_c, 11, 62, 84
14, 64139, Note_on_c, 11, 62, 0
14, 64140, Note_on_c, 11, 63, 84
14, 64199, Note_on_c, 11, 63, 0
14, 64200, Note_on_c, 11, 65, 84
14, 64289, Note_on_c, 11, 65, 0
14, 64320, Note_on_c, 11, 65, 84
14, 64349, Note_on_c, 11, 65, 0
14, 64350, Note_on_c, 11, 67, 84
14, 64431, Note_on_c, 11, 67, 0
14, 64440, Note_on_c, 11, 60, 92
14, 64529, Note_on_c, 11, 60, 0
14, 64560, Note_on_c, 11, 60, 84
14, 64589, Note_on_c, 11, 60, 0
14, 64590, Note_on_c, 11, 65, 84
14, 64671, Note_on_c, 11, 65, 0
14, 64680, Note_on_c, 11, 58, 84
14, 64904, Note_on_c, 11, 58, 0
14, 64920, Note_on_c, 11, 65, 92
14, 65039, Note_on_c, 11, 65, 0
14, 65040, Note_on_c, 11, 67, 84
14, 65099, Note_on_c, 11, 67, 0
14, 65100, Note_on_c, 11, 65, 84
14, 65159, Note_on_c, 11, 65, 0
14, 65160, Note_on_c, 11, 60, 84
14, 65279, Note_on_c, 11, 60, 0
14, 65280, Note_on_c, 11, 62, 84
14, 65339, Note_on_c, 11, 62, 0
14, 65340, Note_on_c, 11, 64, 84
14, 65391, Note_on_c, 11, 64, 0
14, 65400, Note_on_c, 11, 65, 92
14, 65519, Note_on_c, 11, 65, 0
14, 65520, Note_on_c, 11, 67, 84
14, 65579, Note_on_c, 11, 67, 0
14, 65580, Note_on_c, 11, 65, 84
14, 65631, Note_on_c, 11, 65, 0
14, 65640, Note_on_c, 11, 60, 84
14, 65864, Note_on_c, 11, 60, 0
14, 65880, Note_on_c, 11, 58, 92
14, 65939, Note_on_c, 11, 58, 0
14, 65940, Note_on_c, 11, 60, 84
14, 65999, Note_on_c, 11, 60, 0
14, 66000, Note_on_c, 11, 62, 84
14, 66059, Note_on_c, 11, 62, 0
14, 66060, Note_on_c, 11, 63, 84
14, 66119, Note_on_c, 11, 63, 0
14, 66120, Note_on_c, 11, 65, 84
14, 66209, Note_on_c, 11, 65, 0
14, 66240, Note_on_c, 11, 65, 84
14, 66269, Note_on_c, 11, 65, 0
14, 66270, Note_on_c, 11, 67, 84
14, 66351, Note_on_c, 11, 67, 0
14, 66360, Note_on_c, 11, 60, 92
14, 66449, Note_on_c, 11, 60, 0
14, 66480, Note_on_c, 11, 60, 84
14, 66509, Note_on_c, 11, 60, 0
14, 66510, Note_on_c, 11, 65, 84
14, 66591, Note_on_c, 11, 65, 0
14, 66600, Note_on_c, 11, 58, 84
14, 66824, Note_on_c, 11, 58, 0
14, 66840, Note_on_c, 11, 72, 92
14, 66899, Note_on_c, 11, 72, 0
14, 66900, Note_on_c, 11, 72, 84
14, 67079, Note_on_c, 11, 72, 0
14, 67080, Note_on_c, 11, 74, 84
14, 67304, Note_on_c, 11, 74, 0
14, 67320, Note_on_c, 11, 72, 92
14, 67379, Note_on_c, 11, 72, 0
14, 67380, Note_on_c, 11, 72, 84
14, 67559, Note_on_c, 11, 72, 0
14, 67560, Note_on_c, 11, 76, 84
14, 67784, Note_on_c, 11, 76, 0
14, 67800, Note_on_c, 11, 77, 92
14, 67859, Note_on_c, 11, 77, 0
14, 67860, Note_on_c, 11, 77, 84
14, 68039, Note_on_c, 11, 77, 0
14, 68040, Note_on_c, 11, 69, 84
14, 68264, Note_on_c, 11, 69, 0
14, 68280, Note_on_c, 11, 70, 84
14, 68519, Note_on_c, 11, 70, 0
14, 68520, Note_on_c, 11, 69, 84
14, 68639, Note_on_c, 11, 69, 0
14, 68640, Note_on_c, 11, 71, 84
14, 68744, Note_on_c, 11, 71, 0
14, 68760, Note_on_c, 11, 72, 84
14, 68999, Note_on_c, 11, 72, 0
14, 69000, Note_on_c, 11, 74, 84
14, 69224, Note_on_c, 11, 74, 0
14, 69240, Note_on_c, 11, 72, 84
14, 69479, Note_on_c, 11, 72, 0
14, 69480, Note_on_c, 11, 76, 84
14, 69704, Note_on_c, 11, 76, 0
14, 69720, Note_on_c, 11, 77, 84
14, 69959, Note_on_c, 11, 77, 0
14, 69960, Note_on_c, 11, 69, 84
14, 70184, Note_on_c, 11, 69, 0
14, 70200, Note_on_c, 11, 70, 84
14, 70439, Note_on_c, 11, 70, 0
14, 70440, Note_on_c, 11, 69, 84
14, 70664, Note_on_c, 11, 69, 0
14, 70680, Note_on_c, 11, 60, 84
14, 70799, Note_on_c, 11, 60, 0
14, 70800, Note_on_c, 11, 62, 84
14, 70859, Note_on_c, 11, 62, 0
14, 70860, Note_on_c, 11, 60, 84
14, 70919, Note_on_c, 11, 60, 0
14, 70920, Note_on_c, 11, 59, 84
14, 71039, Note_on_c, 11, 59, 0
14, 71040, Note_on_c, 11, 60, 84
14, 71099, Note_on_c, 11, 60, 0
14, 71100, Note_on_c, 11, 62, 84
14, 71151, Note_on_c, 11, 62, 0
14, 71160, Note_on_c, 11, 64, 84
14, 71279, Note_on_c, 11, 64, 0
14, 71280, Note_on_c, 11, 65, 84
14, 71339, Note_on_c, 11, 65, 0
14, 71340, Note_on_c, 11, 64, 84
14, 71399, Note_on_c, 11, 64, 0
14, 71400, Note_on_c, 11, 62, 84
14, 71519, Note_on_c, 11, 62, 0
14, 71520, Note_on_c, 11, 64, 84
14, 71579, Note_on_c, 11, 64, 0
14, 71580, Note_on_c, 11, 65, 84
14, 71631, Note_on_c, 11, 65, 0
14, 71640, Note_on_c, 11, 67, 84
14, 71759, Note_on_c, 11, 67, 0
14, 71760, Note_on_c, 11, 65, 84
14, 71819, Note_on_c, 11, 65, 0
14, 71820, Note_on_c, 11, 67, 84
14, 71871, Note_on_c, 11, 67, 0
14, 71880, Note_on_c, 11, 69, 84
14, 71999, Note_on_c, 11, 69, 0
14, 72120, Note_on_c, 11, 72, 84
14, 72120, Note_on_c, 11, 64, 84
14, 72239, Note_on_c, 11, 72, 0
14, 72239, Note_on_c, 11, 64, 0
14, 72360, Note_on_c, 11, 71, 84
14, 72360, Note_on_c, 11, 55, 84
14, 72360, Note_on_c, 11, 65, 84
14, 72479, Note_on_c, 11, 71, 0
14, 72479, Note_on_c, 11, 55, 0
14, 72479, Note_on_c, 11, 65, 0
14, 72600, Note_on_c, 11, 60, 84
14, 72719, Note_on_c, 11, 60, 0
14, 72720, Note_on_c, 11, 62, 84
14, 72779, Note_on_c, 11, 62, 0
14, 72780, Note_on_c, 11, 60, 84
14, 72839, Note_on_c, 11, 60, 0
14, 72840, Note_on_c, 11, 59, 84
14, 72959, Note_on_c, 11, 59, 0
14, 72960, Note_on_c, 11, 60, 84
14, 73019, Note_on_c, 11, 60, 0
14, 73020, Note_on_c, 11, 62, 84
14, 73071, Note_on_c, 11, 62, 0
14, 73080, Note_on_c, 11, 64, 84
14, 73199, Note_on_c, 11, 64, 0
14, 73200, Note_on_c, 11, 65, 84
14, 73259, Note_on_c, 11, 65, 0
14, 73260, Note_on_c, 11, 64, 84
14, 73319, Note_on_c, 11, 64, 0
14, 73320, Note_on_c, 11, 62, 84
14, 73439, Note_on_c, 11, 62, 0
14, 73440, Note_on_c, 11, 64, 84
14, 73499, Note_on_c, 11, 64, 0
14, 73500, Note_on_c, 11, 65, 84
14, 73551, Note_on_c, 11, 65, 0
14, 73560, Note_on_c, 11, 67, 84
14, 73679, Note_on_c, 11, 67, 0
14, 73680, Note_on_c, 11, 65, 84
14, 73739, Note_on_c, 11, 65, 0
14, 73740, Note_on_c, 11, 67, 84
14, 73791, Note_on_c, 11, 67, 0
14, 73800, Note_on_c, 11, 69, 84
14, 73904, Note_on_c, 11, 69, 0
14, 73920, Note_on_c, 11, 69, 84
14, 74039, Note_on_c, 11, 69, 0
14, 74160, Note_on_c, 11, 72, 84
14, 74160, Note_on_c, 11, 64, 84
14, 74160, Note_on_c, 11, 55, 84
14, 74279, Note_on_c, 11, 72, 0
14, 74279, Note_on_c, 11, 64, 0
14, 74279, Note_on_c, 11, 55, 0
14, 74385, Control_c, 11, 11, 112
14, 74400, Note_on_c, 11, 55, 92
14, 74400, Note_on_c, 11, 71, 92
14, 74400, Note_on_c, 11, 65, 92
14, 74504, Note_on_c, 11, 55, 0
14, 74504, Note_on_c, 11, 71, 0
14, 74504, Note_on_c, 11, 65, 0
14, 74520, Control_c, 11, 11, 112
14, 74520, Note_on_c, 11, 64, 92
14, 74520, Note_on_c, 11, 55, 92
14, 74520, Note_on_c, 11, 72, 92
14, 74712, Control_c, 11, 11, 113
14, 74759, Note_on_c, 11, 64, 0
14, 74759, Note_on_c, 11, 55, 0
14, 74864, Note_on_c, 11, 72, 0
14, 74880, Note_on_c, 11, 64, 92
14, 74904, Control_c, 11, 11, 114
14, 74984, Note_on_c, 11, 64, 0
14, 75000, Note_on_c, 11, 64, 92
14, 75096, Control_c, 11, 11, 115
14, 75288, Control_c, 11, 11, 116
14, 75344, Note_on_c, 11, 64, 0
14, 75360, Note_on_c, 11, 60, 92
14, 75464, Note_on_c, 11, 60, 0
14, 75480, Note_on_c, 11, 60, 92
14, 75480, Control_c, 11, 11, 117
14, 75672, Control_c, 11, 11, 118
14, 75824, Note_on_c, 11, 60, 0
14, 75840, Note_on_c, 11, 67, 92
14, 75864, Control_c, 11, 11, 119
14, 75944, Note_on_c, 11, 67, 0
14, 75960, Note_on_c, 11, 67, 92
14, 76056, Control_c, 11, 11, 120
14, 76248, Control_c, 11, 11, 121
14, 76304, Note_on_c, 11, 67, 0
14, 76320, Note_on_c, 11, 60, 92
14, 76424, Note_on_c, 11, 60, 0
14, 76440, Control_c, 11, 11, 122
14, 76440, Note_on_c, 11, 60, 92
14, 76559, Note_on_c, 11, 60, 0
14, 76560, Note_on_c, 11, 72, 92
14, 76632, Control_c, 11, 11, 123
14, 76679, Note_on_c, 11, 72, 0
14, 76680, Note_on_c, 11, 72, 92
14, 76799, Note_on_c, 11, 72, 0
14, 76800, Note_on_c, 11, 64, 92
14, 76824, Control_c, 11, 11, 124
14, 76919, Note_on_c, 11, 64, 0
14, 76920, Note_on_c, 11, 64, 92
14, 77016, Control_c, 11, 11, 125
14, 77039, Note_on_c, 11, 64, 0
14, 77040, Note_on_c, 11, 76, 92
14, 77159, Note_on_c, 11, 76, 0
14, 77160, Note_on_c, 11, 76, 92
14, 77208, Control_c, 11, 11, 127
14, 77279, Note_on_c, 11, 76, 0
14, 77280, Note_on_c, 11, 76, 92
14, 77280, Note_on_c, 11, 72, 92
14, 77399, Note_on_c, 11, 76, 0
14, 77399, Note_on_c, 11, 72, 0
14, 77400, Note_on_c, 11, 76, 84
14, 77400, Note_on_c, 11, 72, 84
14, 77400, Note_on_c, 11, 64, 84
14, 77519, Note_on_c, 11, 76, 0
14, 77519, Note_on_c, 11, 72, 0
14, 77519, Note_on_c, 11, 64, 0
14, 77880, Note_on_c, 11, 72, 52
14, 77880, Note_on_c, 11, 64, 52
14, 77880, Note_on_c, 11, 55, 52
14, 77999, Note_on_c, 11, 72, 0
14, 77999, Note_on_c, 11, 64, 0
14, 77999, Note_on_c, 11, 55, 0
14, 78240, Note_on_c, 11, 72, 44
14, 78329, Note_on_c, 11, 72, 0
14, 78360, Note_on_c, 11, 77, 44
14, 78449, Note_on_c, 11, 77, 0
14, 78480, Note_on_c, 11, 72, 44
14, 78569, Note_on_c, 11, 72, 0
14, 78600, Note_on_c, 11, 74, 44
14, 78689, Note_on_c, 11, 74, 0
14, 78720, Note_on_c, 11, 72, 44
14, 78809, Note_on_c, 11, 72, 0
14, 78840, Note_on_c, 11, 69, 44
14, 78929, Note_on_c, 11, 69, 0
14, 78960, Note_on_c, 11, 70, 44
14, 79049, Note_on_c, 11, 70, 0
14, 79080, Note_on_c, 11, 69, 44
14, 79169, Note_on_c, 11, 69, 0
14, 79200, Note_on_c, 11, 65, 44
14, 79289, Note_on_c, 11, 65, 0
14, 79320, Note_on_c, 11, 67, 44
14, 79409, Note_on_c, 11, 67, 0
14, 79440, Note_on_c, 11, 69, 44
14, 79529, Note_on_c, 11, 69, 0
14, 79560, Note_on_c, 11, 65, 44
14, 79649, Note_on_c, 11, 65, 0
14, 79680, Note_on_c, 11, 67, 44
14, 79769, Note_on_c, 11, 67, 0
14, 79780, Note_on_c, 11, 65, 44
14, 79799, Note_on_c, 11, 65, 0
14, 79800, Note_on_c, 11, 69, 44
14, 79889, Note_on_c, 11, 69, 0
14, 79920, Note_on_c, 11, 65, 44
14, 80009, Note_on_c, 11, 65, 0
14, 80040, Note_on_c, 11, 67, 44
14, 80129, Note_on_c, 11, 67, 0
14, 80140, Note_on_c, 11, 62, 44
14, 80159, Note_on_c, 11, 62, 0
14, 80160, Note_on_c, 11, 65, 44
14, 80249, Note_on_c, 11, 65, 0
14, 80280, Note_on_c, 11, 62, 44
14, 80369, Note_on_c, 11, 62, 0
14, 80400, Note_on_c, 11, 64, 44
14, 80489, Note_on_c, 11, 64, 0
14, 80500, Note_on_c, 11, 57, 44
14, 80519, Note_on_c, 11, 57, 0
14, 80520, Note_on_c, 11, 62, 44
14, 80609, Note_on_c, 11, 62, 0
14, 80640, Note_on_c, 11, 57, 44
14, 80729, Note_on_c, 11, 57, 0
14, 80760, Note_on_c, 11, 57, 44
14, 80849, Note_on_c, 11, 57, 0
14, 80880, Note_on_c, 11, 57, 44
14, 80999, Note_on_c, 11, 57, 0
14, 81120, Note_on_c, 11, 57, 48
14, 81239, Note_on_c, 11, 57, 0
14, 81240, Note_on_c, 11, 62, 48
14, 81479, Note_on_c, 11, 62, 0
14, 81480, Note_on_c, 11, 66, 48
14, 81599, Note_on_c, 11, 66, 0
14, 81600, Note_on_c, 11, 69, 48
14, 81719, Note_on_c, 11, 69, 0
14, 81720, Note_on_c, 11, 66, 48
14, 81824, Note_on_c, 11, 66, 0
14, 81840, Note_on_c, 11, 66, 48
14, 81959, Note_on_c, 11, 66, 0
14, 81960, Note_on_c, 11, 69, 48
14, 82079, Note_on_c, 11, 69, 0
14, 82080, Note_on_c, 11, 73, 48
14, 82199, Note_on_c, 11, 73, 0
14, 82200, Note_on_c, 11, 74, 48
14, 82259, Note_on_c, 11, 74, 0
14, 82260, Note_on_c, 11, 71, 48
14, 82319, Note_on_c, 11, 71, 0
14, 82320, Note_on_c, 11, 69, 48
14, 82544, Note_on_c, 11, 69, 0
14, 82560, Note_on_c, 11, 73, 48
14, 82679, Note_on_c, 11, 73, 0
14, 82680, Note_on_c, 11, 74, 48
14, 82799, Note_on_c, 11, 74, 0
14, 82800, Note_on_c, 11, 69, 48
14, 82919, Note_on_c, 11, 69, 0
14, 82920, Note_on_c, 11, 71, 48
14, 83039, Note_on_c, 11, 71, 0
14, 83040, Note_on_c, 11, 69, 48
14, 83159, Note_on_c, 11, 69, 0
14, 83160, Note_on_c, 11, 66, 48
14, 83279, Note_on_c, 11, 66, 0
14, 83280, Note_on_c, 11, 67, 48
14, 83399, Note_on_c, 11, 67, 0
14, 83400, Note_on_c, 11, 66, 48
14, 83519, Note_on_c, 11, 66, 0
14, 83520, Note_on_c, 11, 62, 48
14, 83639, Note_on_c, 11, 62, 0
14, 83640, Note_on_c, 11, 66, 48
14, 83699, Note_on_c, 11, 66, 0
14, 83700, Note_on_c, 11, 64, 48
14, 83759, Note_on_c, 11, 64, 0
14, 83760, Note_on_c, 11, 62, 48
14, 83879, Note_on_c, 11, 62, 0
14, 84000, Note_on_c, 11, 72, 44
14, 84089, Note_on_c, 11, 72, 0
14, 84120, Note_on_c, 11, 77, 44
14, 84209, Note_on_c, 11, 77, 0
14, 84240, Note_on_c, 11, 72, 44
14, 84329, Note_on_c, 11, 72, 0
14, 84360, Note_on_c, 11, 74, 44
14, 84449, Note_on_c, 11, 74, 0
14, 84480, Note_on_c, 11, 72, 44
14, 84569, Note_on_c, 11, 72, 0
14, 84600, Note_on_c, 11, 69, 44
14, 84689, Note_on_c, 11, 69, 0
14, 84720, Note_on_c, 11, 70, 44
14, 84809, Note_on_c, 11, 70, 0
14, 84840, Note_on_c, 11, 69, 44
14, 84929, Note_on_c, 11, 69, 0
14, 84960, Note_on_c, 11, 65, 44
14, 85049, Note_on_c, 11, 65, 0
14, 85080, Note_on_c, 11, 67, 44
14, 85169, Note_on_c, 11, 67, 0
14, 85200, Note_on_c, 11, 69, 44
14, 85289, Note_on_c, 11, 69, 0
14, 85320, Note_on_c, 11, 65, 44
14, 85409, Note_on_c, 11, 65, 0
14, 85440, Note_on_c, 11, 67, 44
14, 85529, Note_on_c, 11, 67, 0
14, 85540, Note_on_c, 11, 65, 44
14, 85559, Note_on_c, 11, 65, 0
14, 85560, Note_on_c, 11, 69, 44
14, 85649, Note_on_c, 11, 69, 0
14, 85680, Note_on_c, 11, 65, 44
14, 85769, Note_on_c, 11, 65, 0
14, 85800, Note_on_c, 11, 67, 44
14, 85889, Note_on_c, 11, 67, 0
14, 85900, Note_on_c, 11, 62, 44
14, 85919, Note_on_c, 11, 62, 0
14, 85920, Note_on_c, 11, 65, 44
14, 86009, Note_on_c, 11, 65, 0
14, 86040, Note_on_c, 11, 62, 44
14, 86129, Note_on_c, 11, 62, 0
14, 86160, Note_on_c, 11, 64, 44
14, 86249, Note_on_c, 11, 64, 0
14, 86260, Note_on_c, 11, 57, 44
14, 86279, Note_on_c, 11, 57, 0
14, 86280, Note_on_c, 11, 62, 44
14, 86369, Note_on_c, 11, 62, 0
14, 86400, Note_on_c, 11, 57, 44
14, 86489, Note_on_c, 11, 57, 0
14, 86520, Note_on_c, 11, 57, 44
14, 86609, Note_on_c, 11, 57, 0
14, 86640, Note_on_c, 11, 57, 44
14, 86759, Note_on_c, 11, 57, 0
14, 86880, Note_on_c, 11, 57, 48
14, 86999, Note_on_c, 11, 57, 0
14, 87000, Note_on_c, 11, 62, 48
14, 87239, Note_on_c, 11, 62, 0
14, 87240, Note_on_c, 11, 66, 48
14, 87359, Note_on_c, 11, 66, 0
14, 87360, Note_on_c, 11, 69, 48
14, 87479, Note_on_c, 11, 69, 0
14, 87480, Note_on_c, 11, 66, 48
14, 87584, Note_on_c, 11, 66, 0
14, 87600, Note_on_c, 11, 66, 48
14, 87719, Note_on_c, 11, 66, 0
14, 87720, Note_on_c, 11, 69, 48
14, 87839, Note_on_c, 11, 69, 0
14, 87840, Note_on_c, 11, 73, 48
14, 87959, Note_on_c, 11, 73, 0
14, 87960, Note_on_c, 11, 74, 48
14, 88019, Note_on_c, 11, 74, 0
14, 88020, Note_on_c, 11, 71, 48
14, 88079, Note_on_c, 11, 71, 0
14, 88080, Note_on_c, 11, 69, 48
14, 88304, Note_on_c, 11, 69, 0
14, 88320, Note_on_c, 11, 73, 48
14, 88439, Note_on_c, 11, 73, 0
14, 88440, Note_on_c, 11, 74, 48
14, 88559, Note_on_c, 11, 74, 0
14, 88560, Note_on_c, 11, 69, 48
14, 88679, Note_on_c, 11, 69, 0
14, 88680, Note_on_c, 11, 71, 48
14, 88799, Note_on_c, 11, 71, 0
14, 88800, Note_on_c, 11, 69, 48
14, 88919, Note_on_c, 11, 69, 0
14, 88920, Note_on_c, 11, 66, 48
14, 89039, Note_on_c, 11, 66, 0
14, 89040, Note_on_c, 11, 67, 48
14, 89159, Note_on_c, 11, 67, 0
14, 89160, Note_on_c, 11, 66, 48
14, 89279, Note_on_c, 11, 66, 0
14, 89280, Note_on_c, 11, 62, 48
14, 89399, Note_on_c, 11, 62, 0
14, 89400, Note_on_c, 11, 66, 48
14, 89459, Note_on_c, 11, 66, 0
14, 89460, Note_on_c, 11, 64, 48
14, 89519, Note_on_c, 11, 64, 0
14, 89520, Note_on_c, 11, 62, 48
14, 89639, Note_on_c, 11, 62, 0
14, 89760, Note_on_c, 11, 69, 44
14, 89849, Note_on_c, 11, 69, 0
14, 89880, Note_on_c, 11, 74, 44
14, 89969, Note_on_c, 11, 74, 0
14, 90000, Note_on_c, 11, 69, 44
14, 90089, Note_on_c, 11, 69, 0
14, 90120, Note_on_c, 11, 71, 44
14, 90209, Note_on_c, 11, 71, 0
14, 90240, Note_on_c, 11, 69, 44
14, 90329, Note_on_c, 11, 69, 0
14, 90360, Note_on_c, 11, 66, 44
14, 90449, Note_on_c, 11, 66, 0
14, 90480, Note_on_c, 11, 67, 44
14, 90569, Note_on_c, 11, 67, 0
14, 90600, Note_on_c, 11, 66, 44
14, 90689, Note_on_c, 11, 66, 0
14, 90720, Note_on_c, 11, 62, 44
14, 90809, Note_on_c, 11, 62, 0
14, 90840, Note_on_c, 11, 64, 44
14, 90929, Note_on_c, 11, 64, 0
14, 90960, Note_on_c, 11, 66, 44
14, 91049, Note_on_c, 11, 66, 0
14, 91080, Note_on_c, 11, 62, 44
14, 91169, Note_on_c, 11, 62, 0
14, 91200, Note_on_c, 11, 62, 44
14, 91289, Note_on_c, 11, 62, 0
14, 91320, Note_on_c, 11, 67, 44
14, 91409, Note_on_c, 11, 67, 0
14, 91440, Note_on_c, 11, 62, 44
14, 91529, Note_on_c, 11, 62, 0
14, 91560, Note_on_c, 11, 64, 44
14, 91649, Note_on_c, 11, 64, 0
14, 91680, Note_on_c, 11, 62, 44
14, 91769, Note_on_c, 11, 62, 0
14, 91800, Note_on_c, 11, 59, 44
14, 91889, Note_on_c, 11, 59, 0
14, 91920, Note_on_c, 11, 60, 44
14, 92009, Note_on_c, 11, 60, 0
14, 92040, Note_on_c, 11, 59, 44
14, 92129, Note_on_c, 11, 59, 0
14, 92160, Note_on_c, 11, 55, 44
14, 92249, Note_on_c, 11, 55, 0
14, 92280, Note_on_c, 11, 57, 44
14, 92369, Note_on_c, 11, 57, 0
14, 92400, Note_on_c, 11, 59, 48
14, 92504, Note_on_c, 11, 59, 0
14, 92520, Note_on_c, 11, 55, 48
14, 92624, Note_on_c, 11, 55, 0
14, 92640, Note_on_c, 11, 55, 48
14, 92759, Note_on_c, 11, 55, 0
14, 92760, Note_on_c, 11, 60, 48
14, 92999, Note_on_c, 11, 60, 0
14, 93000, Note_on_c, 11, 64, 48
14, 93119, Note_on_c, 11, 64, 0
14, 93120, Note_on_c, 11, 67, 48
14, 93239, Note_on_c, 11, 67, 0
14, 93240, Note_on_c, 11, 64, 48
14, 93344, Note_on_c, 11, 64, 0
14, 93360, Note_on_c, 11, 64, 48
14, 93479, Note_on_c, 11, 64, 0
14, 93480, Note_on_c, 11, 67, 48
14, 93599, Note_on_c, 11, 67, 0
14, 93600, Note_on_c, 11, 71, 48
14, 93719, Note_on_c, 11, 71, 0
14, 93720, Note_on_c, 11, 72, 48
14, 93779, Note_on_c, 11, 72, 0
14, 93780, Note_on_c, 11, 69, 48
14, 93839, Note_on_c, 11, 69, 0
14, 93840, Note_on_c, 11, 67, 48
14, 94064, Note_on_c, 11, 67, 0
14, 94080, Note_on_c, 11, 71, 48
14, 94199, Note_on_c, 11, 71, 0
14, 94200, Note_on_c, 11, 72, 48
14, 94319, Note_on_c, 11, 72, 0
14, 94320, Note_on_c, 11, 67, 48
14, 94439, Note_on_c, 11, 67, 0
14, 94440, Note_on_c, 11, 69, 48
14, 94559, Note_on_c, 11, 69, 0
14, 94560, Note_on_c, 11, 67, 48
14, 94679, Note_on_c, 11, 67, 0
14, 94680, Note_on_c, 11, 64, 48
14, 94799, Note_on_c, 11, 64, 0
14, 94800, Note_on_c, 11, 65, 48
14, 94919, Note_on_c, 11, 65, 0
14, 94920, Note_on_c, 11, 64, 48
14, 95039, Note_on_c, 11, 64, 0
14, 95040, Note_on_c, 11, 60, 48
14, 95159, Note_on_c, 11, 60, 0
14, 95160, Note_on_c, 11, 62, 48
14, 95160, Note_on_c, 11, 55, 48
14, 95279, Note_on_c, 11, 62, 0
14, 95279, Note_on_c, 11, 55, 0
14, 95280, Note_on_c, 11, 55, 48
14, 95280, Note_on_c, 11, 64, 48
14, 95399, Note_on_c, 11, 55, 0
14, 95399, Note_on_c, 11, 64, 0
14, 95400, Note_on_c, 11, 60, 48
14, 95504, Note_on_c, 11, 60, 0
14, 95518, Control_c, 11, 11, 64
14, 95520, Control_c, 11, 11, 64
14, 95520, Note_on_c, 11, 60, 84
14, 95560, Control_c, 11, 11, 66
14, 95600, Control_c, 11, 11, 68
14, 95639, Note_on_c, 11, 60, 0
14, 95640, Control_c, 11, 11, 69
14, 95640, Note_on_c, 11, 72, 84
14, 95680, Control_c, 11, 11, 71
14, 95720, Control_c, 11, 11, 73
14, 95759, Note_on_c, 11, 72, 0
14, 95760, Control_c, 11, 11, 75
14, 95760, Note_on_c, 11, 69, 84
14, 95800, Control_c, 11, 11, 76
14, 95840, Control_c, 11, 11, 78
14, 95879, Note_on_c, 11, 69, 0
14, 95880, Note_on_c, 11, 70, 84
14, 95880, Control_c, 11, 11, 80
14, 95920, Control_c, 11, 11, 82
14, 95960, Control_c, 11, 11, 83
14, 95999, Note_on_c, 11, 70, 0
14, 96000, Note_on_c, 11, 69, 84
14, 96000, Control_c, 11, 11, 85
14, 96040, Control_c, 11, 11, 87
14, 96080, Control_c, 11, 11, 89
14, 96119, Note_on_c, 11, 69, 0
14, 96120, Note_on_c, 11, 65, 84
14, 96120, Control_c, 11, 11, 90
14, 96160, Control_c, 11, 11, 92
14, 96200, Control_c, 11, 11, 94
14, 96239, Note_on_c, 11, 65, 0
14, 96240, Note_on_c, 11, 67, 84
14, 96240, Control_c, 11, 11, 96
14, 96280, Control_c, 11, 11, 97
14, 96320, Control_c, 11, 11, 99
14, 96359, Note_on_c, 11, 67, 0
14, 96360, Note_on_c, 11, 65, 84
14, 96360, Control_c, 11, 11, 101
14, 96400, Control_c, 11, 11, 103
14, 96440, Control_c, 11, 11, 104
14, 96479, Note_on_c, 11, 65, 0
14, 96480, Control_c, 11, 11, 106
14, 96480, Note_on_c, 11, 60, 84
14, 96520, Control_c, 11, 11, 108
14, 96560, Control_c, 11, 11, 110
14, 96599, Note_on_c, 11, 60, 0
14, 96600, Control_c, 11, 11, 111
14, 96600, Note_on_c, 11, 67, 84
14, 96640, Control_c, 11, 11, 113
14, 96680, Control_c, 11, 11, 115
14, 96719, Note_on_c, 11, 67, 0
14, 96720, Control_c, 11, 11, 117
14, 96720, Note_on_c, 11, 69, 84
14, 96760, Control_c, 11, 11, 118
14, 96800, Control_c, 11, 11, 120
14, 96839, Note_on_c, 11, 69, 0
14, 96840, Control_c, 11, 11, 122
14, 96840, Note_on_c, 11, 65, 84
14, 96880, Control_c, 11, 11, 124
14, 96920, Control_c, 11, 11, 127
14, 96944, Note_on_c, 11, 65, 0
14, 96960, Note_on_c, 11, 72, 84
14, 97049, Note_on_c, 11, 72, 0
14, 97080, Note_on_c, 11, 77, 84
14, 97169, Note_on_c, 11, 77, 0
14, 97200, Note_on_c, 11, 72, 84
14, 97289, Note_on_c, 11, 72, 0
14, 97320, Note_on_c, 11, 74, 84
14, 97409, Note_on_c, 11, 74, 0
14, 97440, Note_on_c, 11, 72, 84
14, 97529, Note_on_c, 11, 72, 0
14, 97560, Note_on_c, 11, 69, 84
14, 97649, Note_on_c, 11, 69, 0
14, 97680, Note_on_c, 11, 70, 84
14, 97769, Note_on_c, 11, 70, 0
14, 97800, Note_on_c, 11, 69, 92
14, 97889, Note_on_c, 11, 69, 0
14, 97920, Note_on_c, 11, 65, 84
14, 98009, Note_on_c, 11, 65, 0
14, 98040, Note_on_c, 11, 67, 84
14, 98129, Note_on_c, 11, 67, 0
14, 98160, Note_on_c, 11, 69, 92
14, 98249, Note_on_c, 11, 69, 0
14, 98280, Note_on_c, 11, 65, 84
14, 98369, Note_on_c, 11, 65, 0
14, 98400, Note_on_c, 11, 67, 84
14, 98489, Note_on_c, 11, 67, 0
14, 98520, Note_on_c, 11, 69, 92
14, 98609, Note_on_c, 11, 69, 0
14, 98640, Note_on_c, 11, 65, 84
14, 98729, Note_on_c, 11, 65, 0
14, 98760, Note_on_c, 11, 67, 84
14, 98849, Note_on_c, 11, 67, 0
14, 98880, Note_on_c, 11, 69, 92
14, 98969, Note_on_c, 11, 69, 0
14, 99000, Note_on_c, 11, 65, 84
14, 99089, Note_on_c, 11, 65, 0
14, 99120, Note_on_c, 11, 67, 84
14, 99209, Note_on_c, 11, 67, 0
14, 99240, Note_on_c, 11, 69, 92
14, 99300, Control_c, 11, 11, 112
14, 99547, Note_on_c, 11, 69, 0
14, 99560, Note_on_c, 11, 67, 92
14, 99579, Note_on_c, 11, 67, 0
14, 99580, Note_on_c, 11, 69, 92
14, 99599, Note_on_c, 11, 69, 0
14, 99600, Note_on_c, 11, 67, 92
14, 99824, Note_on_c, 11, 67, 0
14, 99840, Note_on_c, 11, 65, 92
14, 99907, Note_on_c, 11, 65, 0
14, 99920, Note_on_c, 11, 64, 92
14, 99939, Note_on_c, 11, 64, 0
14, 99940, Note_on_c, 11, 65, 92
14, 99959, Note_on_c, 11, 65, 0
14, 99960, Note_on_c, 11, 64, 92
14, 100184, Note_on_c, 11, 64, 0
14, 100200, Note_on_c, 11, 62, 92
14, 100304, Note_on_c, 11, 62, 0
14, 100320, Note_on_c, 11, 60, 92
14, 100544, Note_on_c, 11, 60, 0
14, 100560, Note_on_c, 11, 72, 92
14, 100664, Note_on_c, 11, 72, 0
14, 100678, Control_c, 11, 11, 127
14, 100680, Note_on_c, 11, 77, 92
14, 100740, Control_c, 11, 11, 112
14, 101024, Note_on_c, 11, 77, 0
14, 101038, Control_c, 11, 11, 127
14, 101040, Note_on_c, 11, 77, 92
14, 101100, Control_c, 11, 11, 112
14, 101384, Note_on_c, 11, 77, 0
14, 101398, Control_c, 11, 11, 127
14, 101400, Note_on_c, 11, 77, 92
14, 101460, Control_c, 11, 11, 112
14, 101744, Note_on_c, 11, 77, 0
14, 101758, Control_c, 11, 11, 127
14, 101760, Note_on_c, 11, 76, 92
14, 101760, Note_on_c, 11, 60, 92
14, 101760, Note_on_c, 11, 67, 92
14, 101820, Control_c, 11, 11, 112
14, 101879, Note_on_c, 11, 60, 0
14, 101879, Note_on_c, 11, 67, 0
14, 102104, Note_on_c, 11, 76, 0
14, 102120, Note_on_c, 11, 77, 92
14, 102120, Note_on_c, 11, 69, 92
14, 102239, Note_on_c, 11, 77, 0
14, 102239, Note_on_c, 11, 69, 0
14, 102360, Note_on_c, 11, 81, 92
14, 102427, Note_on_c, 11, 81, 0
14, 102440, Note_on_c, 11, 79, 92
14, 102459, Note_on_c, 11, 79, 0
14, 102460, Note_on_c, 11, 81, 92
14, 102479, Note_on_c, 11, 81, 0
14, 102480, Note_on_c, 11, 79, 92
14, 102704, Note_on_c, 11, 79, 0
14, 102720, Note_on_c, 11, 77, 92
14, 102787, Note_on_c, 11, 77, 0
14, 102800, Note_on_c, 11, 76, 92
14, 102819, Note_on_c, 11, 76, 0
14, 102820, Note_on_c, 11, 77, 92
14, 102839, Note_on_c, 11, 77, 0
14, 102840, Note_on_c, 11, 76, 92
14, 103064, Note_on_c, 11, 76, 0
14, 103080, Note_on_c, 11, 74, 92
14, 103184, Note_on_c, 11, 74, 0
14, 103200, Note_on_c, 11, 72, 92
14, 103424, Note_on_c, 11, 72, 0
14, 103440, Note_on_c, 11, 76, 92
14, 103544, Note_on_c, 11, 76, 0
14, 103558, Control_c, 11, 11, 127
14, 103560, Note_on_c, 11, 72, 92
14, 103560, Note_on_c, 11, 65, 92
14, 103560, Note_on_c, 11, 77, 92
14, 103620, Control_c, 11, 11, 112
14, 103679, Note_on_c, 11, 72, 0
14, 103679, Note_on_c, 11, 65, 0
14, 103904, Note_on_c, 11, 77, 0
14, 103918, Control_c, 11, 11, 127
14, 103920, Note_on_c, 11, 67, 92
14, 103980, Control_c, 11, 11, 112
14, 104264, Note_on_c, 11, 67, 0
14, 104278, Control_c, 11, 11, 127
14, 104280, Note_on_c, 11, 72, 92
14, 104340, Control_c, 11, 11, 112
14, 104624, Note_on_c, 11, 72, 0
14, 104638, Control_c, 11, 11, 127
14, 104640, Note_on_c, 11, 64, 92
14, 104640, Note_on_c, 11, 76, 92
14, 104640, Note_on_c, 11, 72, 92
14, 104700, Control_c, 11, 11, 112
14, 104759, Note_on_c, 11, 64, 0
14, 104759, Note_on_c, 11, 72, 0
14, 104984, Note_on_c, 11, 76, 0
14, 104998, Control_c, 11, 11, 127
14, 105000, Note_on_c, 11, 72, 92
14, 105000, Note_on_c, 11, 77, 92
14, 105000, Note_on_c, 11, 65, 92
14, 105119, Note_on_c, 11, 72, 0
14, 105119, Note_on_c, 11, 77, 0
14, 105119, Note_on_c, 11, 65, 0
14, 105360, Note_on_c, 11, 57, 84
14, 105411, Note_on_c, 11, 57, 0
14, 105420, Note_on_c, 11, 60, 84
14, 105471, Note_on_c, 11, 60, 0
14, 105480, Note_on_c, 11, 65, 84
14, 105531, Note_on_c, 11, 65, 0
14, 105540, Note_on_c, 11, 69, 84
14, 105591, Note_on_c, 11, 69, 0
14, 105600, Note_on_c, 11, 72, 84
14, 105719, Note_on_c, 11, 72, 0
14, 106080, Note_on_c, 11, 67, 84
14, 106080, Note_on_c, 11, 70, 84
14, 106184, Note_on_c, 11, 67, 0
14, 106184, Note_on_c, 11, 70, 0
14, 106200, Note_on_c, 11, 67, 84
14, 106200, Note_on_c, 11, 70, 84
14, 106304, Note_on_c, 11, 67, 0
14, 106304, Note_on_c, 11, 70, 0
14, 106320, Note_on_c, 11, 70, 84
14, 106320, Note_on_c, 11, 67, 84
14, 106424, Note_on_c, 11, 70, 0
14, 106424, Note_on_c, 11, 67, 0
14, 106440, Note_on_c, 11, 65, 92
14, 106440, Note_on_c, 11, 69, 92
14, 106559, Note_on_c, 11, 65, 0
14, 106559, Note_on_c, 11, 69, 0
14, 106800, Note_on_c, 11, 57, 84
14, 106851, Note_on_c, 11, 57, 0
14, 106860, Note_on_c, 11, 60, 84
14, 106911, Note_on_c, 11, 60, 0
14, 106920, Note_on_c, 11, 65, 84
14, 106971, Note_on_c, 11, 65, 0
14, 106980, Note_on_c, 11, 69, 84
14, 107031, Note_on_c, 11, 69, 0
14, 107040, Note_on_c, 11, 72, 84
14, 107159, Note_on_c, 11, 72, 0
14, 107520, Note_on_c, 11, 67, 84
14, 107520, Note_on_c, 11, 70, 84
14, 107624, Note_on_c, 11, 67, 0
14, 107624, Note_on_c, 11, 70, 0
14, 107640, Note_on_c, 11, 67, 84
14, 107640, Note_on_c, 11, 70, 84
14, 107744, Note_on_c, 11, 67, 0
14, 107744, Note_on_c, 11, 70, 0
14, 107760, Note_on_c, 11, 67, 84
14, 107760, Note_on_c, 11, 70, 84
14, 107864, Note_on_c, 11, 67, 0
14, 107864, Note_on_c, 11, 70, 0
14, 107880, Note_on_c, 11, 65, 92
14, 107880, Note_on_c, 11, 69, 92
14, 107999, Note_on_c, 11, 65, 0
14, 107999, Note_on_c, 11, 69, 0
14, 108600, Note_on_c, 11, 69, 92
14, 108600, Note_on_c, 11, 77, 92
14, 108600, Note_on_c, 11, 65, 92
14, 108719, Note_on_c, 11, 69, 0
14, 108719, Note_on_c, 11, 77, 0
14, 108719, Note_on_c, 11, 65, 0
14, 109320, Note_on_c, 11, 69, 84
14, 109424, Note_on_c, 11, 69, 0
14, 109440, Note_on_c, 11, 65, 81
14, 109544, Note_on_c, 11, 65, 0
14, 109560, Note_on_c, 11, 65, 78
14, 109664, Note_on_c, 11, 65, 0
14, 109680, Note_on_c, 11, 69, 74
14, 109784, Note_on_c, 11, 69, 0
14, 109800, Note_on_c, 11, 65, 71
14, 109904, Note_on_c, 11, 65, 0
14, 109920, Note_on_c, 11, 65, 68
14, 110024, Note_on_c, 11, 65, 0
14, 110040, Note_on_c, 11, 69, 64
14, 110144, Note_on_c, 11, 69, 0
14, 110160, Note_on_c, 11, 65, 61
14, 110264, Note_on_c, 11, 65, 0
14, 110280, Note_on_c, 11, 65, 58
14, 110384, Note_on_c, 11, 65, 0
14, 110400, Note_on_c, 11, 69, 54
14, 110504, Note_on_c, 11, 69, 0
14, 110520, Note_on_c, 11, 65, 51
14, 110624, Note_on_c, 11, 65, 0
14, 110640, Note_on_c, 11, 65, 48
14, 110744, Note_on_c, 11, 65, 0
14, 110760, Note_on_c, 11, 69, 44
14, 110864, Note_on_c, 11, 69, 0
14, 110880, Note_on_c, 11, 65, 44
14, 110984, Note_on_c, 11, 65, 0
14, 111000, Note_on_c, 11, 65, 44
14, 111104, Note_on_c, 11, 65, 0
14, 111120, Note_on_c, 11, 69, 44
14, 111224, Note_on_c, 11, 69, 0
14, 111240, Note_on_c, 11, 65, 44
14, 111344, Note_on_c, 11, 65, 0
14, 111360, Note_on_c, 11, 65, 44
14, 111464, Note_on_c, 11, 65, 0
14, 111480, Note_on_c, 11, 70, 44
14, 111584, Note_on_c, 11, 70, 0
14, 111600, Note_on_c, 11, 65, 44
14, 111704, Note_on_c, 11, 65, 0
14, 111720, Note_on_c, 11, 65, 44
14, 111824, Note_on_c, 11, 65, 0
14, 111840, Note_on_c, 11, 70, 44
14, 111944, Note_on_c, 11, 70, 0
14, 111960, Note_on_c, 11, 65, 44
14, 112064, Note_on_c, 11, 65, 0
14, 112080, Note_on_c, 11, 65, 44
14, 112184, Note_on_c, 11, 65, 0
14, 112200, Note_on_c, 11, 69, 44
14, 112304, Note_on_c, 11, 69, 0
14, 112320, Note_on_c, 11, 65, 44
14, 112424, Note_on_c, 11, 65, 0
14, 112440, Note_on_c, 11, 65, 44
14, 112544, Note_on_c, 11, 65, 0
14, 112560, Note_on_c, 11, 67, 44
14, 112664, Note_on_c, 11, 67, 0
14, 112680, Note_on_c, 11, 64, 44
14, 112784, Note_on_c, 11, 64, 0
14, 112800, Note_on_c, 11, 64, 44
14, 112904, Note_on_c, 11, 64, 0
14, 112920, Note_on_c, 11, 69, 44
14, 113024, Note_on_c, 11, 69, 0
14, 113040, Note_on_c, 11, 65, 44
14, 113144, Note_on_c, 11, 65, 0
14, 113160, Note_on_c, 11, 65, 44
14, 113264, Note_on_c, 11, 65, 0
14, 113280, Note_on_c, 11, 69, 44
14, 113384, Note_on_c, 11, 69, 0
14, 113400, Note_on_c, 11, 65, 44
14, 113504, Note_on_c, 11, 65, 0
14, 113520, Note_on_c, 11, 65, 44
14, 113624, Note_on_c, 11, 65, 0
14, 113640, Note_on_c, 11, 69, 44
14, 113744, Note_on_c, 11, 69, 0
14, 113760, Note_on_c, 11, 65, 44
14, 113864, Note_on_c, 11, 65, 0
14, 113880, Note_on_c, 11, 65, 44
14, 113984, Note_on_c, 11, 65, 0
14, 114000, Note_on_c, 11, 69, 44
14, 114104, Note_on_c, 11, 69, 0
14, 114120, Note_on_c, 11, 65, 44
14, 114224, Note_on_c, 11, 65, 0
14, 114240, Note_on_c, 11, 65, 44
14, 114344, Note_on_c, 11, 65, 0
14, 114360, Note_on_c, 11, 70, 44
14, 114464, Note_on_c, 11, 70, 0
14, 114480, Note_on_c, 11, 65, 44
14, 114584, Note_on_c, 11, 65, 0
14, 114600, Note_on_c, 11, 65, 44
14, 114704, Note_on_c, 11, 65, 0
14, 114720, Note_on_c, 11, 70, 44
14, 114824, Note_on_c, 11, 70, 0
14, 114840, Note_on_c, 11, 65, 44
14, 114944, Note_on_c, 11, 65, 0
14, 114960, Note_on_c, 11, 65, 44
14, 115064, Note_on_c, 11, 65, 0
14, 115080, Note_on_c, 11, 69, 44
14, 115184, Note_on_c, 11, 69, 0
14, 115200, Note_on_c, 11, 65, 44
14, 115304, Note_on_c, 11, 65, 0
14, 115320, Note_on_c, 11, 65, 44
14, 115424, Note_on_c, 11, 65, 0
14, 115440, Note_on_c, 11, 70, 44
14, 115544, Note_on_c, 11, 70, 0
14, 115560, Note_on_c, 11, 64, 44
14, 115664, Note_on_c, 11, 64, 0
14, 115680, Note_on_c, 11, 64, 44
14, 115784, Note_on_c, 11, 64, 0
14, 115800, Note_on_c, 11, 67, 44
14, 115904, Note_on_c, 11, 67, 0
14, 115920, Note_on_c, 11, 64, 44
14, 116024, Note_on_c, 11, 64, 0
14, 116040, Note_on_c, 11, 64, 44
14, 116144, Note_on_c, 11, 64, 0
14, 116160, Note_on_c, 11, 69, 44
14, 116264, Note_on_c, 11, 69, 0
14, 116280, Note_on_c, 11, 65, 44
14, 116384, Note_on_c, 11, 65, 0
14, 116400, Note_on_c, 11, 65, 44
14, 116504, Note_on_c, 11, 65, 0
14, 116520, Note_on_c, 11, 69, 44
14, 116624, Note_on_c, 11, 69, 0
14, 116640, Note_on_c, 11, 65, 44
14, 116744, Note_on_c, 11, 65, 0
14, 116760, Note_on_c, 11, 65, 44
14, 116864, Note_on_c, 11, 65, 0
14, 116880, Note_on_c, 11, 69, 44
14, 116984, Note_on_c, 11, 69, 0
14, 117000, Note_on_c, 11, 65, 44
14, 117104, Note_on_c, 11, 65, 0
14, 117120, Note_on_c, 11, 65, 44
14, 117224, Note_on_c, 11, 65, 0
14, 117240, Note_on_c, 11, 70, 44
14, 117344, Note_on_c, 11, 70, 0
14, 117360, Note_on_c, 11, 65, 44
14, 117464, Note_on_c, 11, 65, 0
14, 117480, Note_on_c, 11, 65, 44
14, 117584, Note_on_c, 11, 65, 0
14, 117600, Note_on_c, 11, 70, 44
14, 117704, Note_on_c, 11, 70, 0
14, 117720, Note_on_c, 11, 65, 44
14, 117824, Note_on_c, 11, 65, 0
14, 117840, Note_on_c, 11, 65, 44
14, 117944, Note_on_c, 11, 65, 0
14, 117960, Note_on_c, 11, 69, 44
14, 118064, Note_on_c, 11, 69, 0
14, 118080, Note_on_c, 11, 65, 44
14, 118184, Note_on_c, 11, 65, 0
14, 118200, Note_on_c, 11, 65, 44
14, 118304, Note_on_c, 11, 65, 0
14, 118320, Note_on_c, 11, 67, 44
14, 118424, Note_on_c, 11, 67, 0
14, 118440, Note_on_c, 11, 64, 44
14, 118544, Note_on_c, 11, 64, 0
14, 118560, Note_on_c, 11, 64, 44
14, 118664, Note_on_c, 11, 64, 0
14, 118680, Note_on_c, 11, 69, 44
14, 118784, Note_on_c, 11, 69, 0
14, 118800, Note_on_c, 11, 65, 44
14, 118904, Note_on_c, 11, 65, 0
14, 118920, Note_on_c, 11, 65, 44
14, 119024, Note_on_c, 11, 65, 0
14, 119040, Note_on_c, 11, 69, 44
14, 119144, Note_on_c, 11, 69, 0
14, 119160, Note_on_c, 11, 65, 44
14, 119264, Note_on_c, 11, 65, 0
14, 119280, Note_on_c, 11, 65, 44
14, 119384, Note_on_c, 11, 65, 0
14, 119400, Note_on_c, 11, 69, 44
14, 119504, Note_on_c, 11, 69, 0
14, 119520, Note_on_c, 11, 65, 44
14, 119624, Note_on_c, 11, 65, 0
14, 119640, Note_on_c, 11, 65, 44
14, 119744, Note_on_c, 11, 65, 0
14, 119760, Note_on_c, 11, 69, 44
14, 119864, Note_on_c, 11, 69, 0
14, 119880, Note_on_c, 11, 65, 44
14, 119984, Note_on_c, 11, 65, 0
14, 120000, Note_on_c, 11, 65, 44
14, 120104, Note_on_c, 11, 65, 0
14, 120120, Note_on_c, 11, 70, 44
14, 120224, Note_on_c, 11, 70, 0
14, 120240, Note_on_c, 11, 65, 44
14, 120344, Note_on_c, 11, 65, 0
14, 120360, Note_on_c, 11, 65, 44
14, 120464, Note_on_c, 11, 65, 0
14, 120480, Note_on_c, 11, 70, 44
14, 120584, Note_on_c, 11, 70, 0
14, 120600, Note_on_c, 11, 65, 44
14, 120704, Note_on_c, 11, 65, 0
14, 120720, Note_on_c, 11, 65, 44
14, 120824, Note_on_c, 11, 65, 0
14, 120840, Note_on_c, 11, 69, 44
14, 120944, Note_on_c, 11, 69, 0
14, 120960, Note_on_c, 11, 65, 44
14, 121064, Note_on_c, 11, 65, 0
14, 121080, Note_on_c, 11, 65, 44
14, 121184, Note_on_c, 11, 65, 0
14, 121200, Note_on_c, 11, 70, 44
14, 121304, Note_on_c, 11, 70, 0
14, 121320, Note_on_c, 11, 64, 44
14, 121424, Note_on_c, 11, 64, 0
14, 121440, Note_on_c, 11, 64, 44
14, 121544, Note_on_c, 11, 64, 0
14, 121560, Note_on_c, 11, 67, 44
14, 121664, Note_on_c, 11, 67, 0
14, 121680, Note_on_c, 11, 64, 44
14, 121784, Note_on_c, 11, 64, 0
14, 121800, Note_on_c, 11, 64, 44
14, 121904, Note_on_c, 11, 64, 0
14, 121920, Note_on_c, 11, 69, 44
14, 122024, Note_on_c, 11, 69, 0
14, 122040, Note_on_c, 11, 65, 44
14, 122144, Note_on_c, 11, 65, 0
14, 122160, Note_on_c, 11, 65, 44
14, 122279, Note_on_c, 11, 65, 0
14, 125040, Control_c, 11, 11, 96
14, 125160, Control_c, 11, 11, 96
14, 125160, Note_on_c, 11, 67, 68
14, 125220, Control_c, 11, 11, 99
14, 125264, Note_on_c, 11, 67, 0
14, 125280, Control_c, 11, 11, 101
14, 125280, Note_on_c, 11, 64, 68
14, 125340, Control_c, 11, 11, 104
14, 125384, Note_on_c, 11, 64, 0
14, 125400, Control_c, 11, 11, 106
14, 125400, Note_on_c, 11, 64, 68
14, 125460, Control_c, 11, 11, 109
14, 125504, Note_on_c, 11, 64, 0
14, 125520, Note_on_c, 11, 67, 68
14, 125520, Control_c, 11, 11, 112
14, 125580, Control_c, 11, 11, 114
14, 125624, Note_on_c, 11, 67, 0
14, 125640, Control_c, 11, 11, 117
14, 125640, Note_on_c, 11, 64, 68
14, 125700, Control_c, 11, 11, 119
14, 125744, Note_on_c, 11, 64, 0
14, 125760, Control_c, 11, 11, 122
14, 125760, Note_on_c, 11, 64, 68
14, 125820, Control_c, 11, 11, 127
14, 125864, Note_on_c, 11, 64, 0
14, 125880, Note_on_c, 11, 69, 52
14, 125984, Note_on_c, 11, 69, 0
14, 126000, Note_on_c, 11, 65, 52
14, 126104, Note_on_c, 11, 65, 0
14, 126120, Note_on_c, 11, 65, 52
14, 126224, Note_on_c, 11, 65, 0
14, 126240, Note_on_c, 11, 69, 52
14, 126344, Note_on_c, 11, 69, 0
14, 126360, Note_on_c, 11, 65, 52
14, 126464, Note_on_c, 11, 65, 0
14, 126480, Note_on_c, 11, 65, 52
14, 126584, Note_on_c, 11, 65, 0
14, 126600, Note_on_c, 11, 70, 52
14, 126704, Note_on_c, 11, 70, 0
14, 126720, Note_on_c, 11, 65, 52
14, 126824, Note_on_c, 11, 65, 0
14, 126840, Note_on_c, 11, 65, 52
14, 126944, Note_on_c, 11, 65, 0
14, 126960, Note_on_c, 11, 70, 52
14, 127064, Note_on_c, 11, 70, 0
14, 127080, Note_on_c, 11, 65, 52
14, 127184, Note_on_c, 11, 65, 0
14, 127200, Note_on_c, 11, 65, 52
14, 127304, Note_on_c, 11, 65, 0
14, 127320, Note_on_c, 11, 69, 52
14, 127424, Note_on_c, 11, 69, 0
14, 127440, Note_on_c, 11, 65, 52
14, 127544, Note_on_c, 11, 65, 0
14, 127560, Note_on_c, 11, 65, 52
14, 127664, Note_on_c, 11, 65, 0
14, 127680, Note_on_c, 11, 67, 52
14, 127784, Note_on_c, 11, 67, 0
14, 127800, Note_on_c, 11, 64, 52
14, 127904, Note_on_c, 11, 64, 0
14, 127920, Note_on_c, 11, 64, 52
14, 128024, Note_on_c, 11, 64, 0
14, 128040, Note_on_c, 11, 69, 52
14, 128144, Note_on_c, 11, 69, 0
14, 128160, Note_on_c, 11, 65, 52
14, 128264, Note_on_c, 11, 65, 0
14, 128280, Note_on_c, 11, 65, 52
14, 128384, Note_on_c, 11, 65, 0
14, 128400, Note_on_c, 11, 69, 52
14, 128504, Note_on_c, 11, 69, 0
14, 128520, Note_on_c, 11, 65, 52
14, 128624, Note_on_c, 11, 65, 0
14, 128640, Note_on_c, 11, 65, 52
14, 128744, Note_on_c, 11, 65, 0
14, 128758, Control_c, 11, 11, 96
14, 128760, Control_c, 11, 11, 96
14, 128760, Note_on_c, 11, 69, 68
14, 128820, Control_c, 11, 11, 97
14, 128864, Note_on_c, 11, 69, 0
14, 128880, Note_on_c, 11, 65, 68
14, 128880, Control_c, 11, 11, 99
14, 128940, Control_c, 11, 11, 100
14, 128984, Note_on_c, 11, 65, 0
14, 129000, Note_on_c, 11, 65, 68
14, 129000, Control_c, 11, 11, 101
14, 129060, Control_c, 11, 11, 102
14, 129104, Note_on_c, 11, 65, 0
14, 129120, Note_on_c, 11, 69, 68
14, 129120, Control_c, 11, 11, 104
14, 129180, Control_c, 11, 11, 105
14, 129224, Note_on_c, 11, 69, 0
14, 129240, Note_on_c, 11, 65, 68
14, 129240, Control_c, 11, 11, 106
14, 129300, Control_c, 11, 11, 108
14, 129344, Note_on_c, 11, 65, 0
14, 129360, Note_on_c, 11, 65, 68
14, 129360, Control_c, 11, 11, 109
14, 129420, Control_c, 11, 11, 110
14, 129464, Note_on_c, 11, 65, 0
14, 129480, Note_on_c, 11, 70, 68
14, 129480, Control_c, 11, 11, 112
14, 129540, Control_c, 11, 11, 113
14, 129584, Note_on_c, 11, 70, 0
14, 129600, Note_on_c, 11, 60, 68
14, 129600, Control_c, 11, 11, 114
14, 129660, Control_c, 11, 11, 115
14, 129704, Note_on_c, 11, 60, 0
14, 129720, Control_c, 11, 11, 117
14, 129720, Note_on_c, 11, 60, 68
14, 129780, Control_c, 11, 11, 118
14, 129824, Note_on_c, 11, 60, 0
14, 129840, Control_c, 11, 11, 119
14, 129840, Note_on_c, 11, 70, 68
14, 129900, Control_c, 11, 11, 121
14, 129944, Note_on_c, 11, 70, 0
14, 129960, Control_c, 11, 11, 122
14, 129960, Note_on_c, 11, 64, 68
14, 130020, Control_c, 11, 11, 123
14, 130064, Note_on_c, 11, 64, 0
14, 130080, Control_c, 11, 11, 124
14, 130080, Note_on_c, 11, 64, 68
14, 130140, Control_c, 11, 11, 127
14, 130184, Note_on_c, 11, 64, 0
14, 130200, Note_on_c, 11, 69, 52
14, 130304, Note_on_c, 11, 69, 0
14, 130320, Note_on_c, 11, 65, 52
14, 130424, Note_on_c, 11, 65, 0
14, 130440, Note_on_c, 11, 65, 52
14, 130544, Note_on_c, 11, 65, 0
14, 130560, Note_on_c, 11, 69, 52
14, 130664, Note_on_c, 11, 69, 0
14, 130680, Note_on_c, 11, 65, 52
14, 130784, Note_on_c, 11, 65, 0
14, 130800, Note_on_c, 11, 65, 52
14, 130904, Note_on_c, 11, 65, 0
14, 130920, Note_on_c, 11, 70, 52
14, 131024, Note_on_c, 11, 70, 0
14, 131040, Note_on_c, 11, 60, 52
14, 131144, Note_on_c, 11, 60, 0
14, 131160, Note_on_c, 11, 60, 52
14, 131264, Note_on_c, 11, 60, 0
14, 131280, Note_on_c, 11, 70, 52
14, 131384, Note_on_c, 11, 70, 0
14, 131400, Note_on_c, 11, 60, 52
14, 131504, Note_on_c, 11, 60, 0
14, 131520, Note_on_c, 11, 60, 52
14, 131624, Note_on_c, 11, 60, 0
14, 131640, Note_on_c, 11, 69, 52
14, 131744, Note_on_c, 11, 69, 0
14, 131760, Note_on_c, 11, 65, 52
14, 131864, Note_on_c, 11, 65, 0
14, 131880, Note_on_c, 11, 65, 52
14, 131984, Note_on_c, 11, 65, 0
14, 132000, Note_on_c, 11, 69, 52
14, 132104, Note_on_c, 11, 69, 0
14, 132120, Note_on_c, 11, 65, 52
14, 132224, Note_on_c, 11, 65, 0
14, 132240, Note_on_c, 11, 65, 52
14, 132344, Note_on_c, 11, 65, 0
14, 132360, Note_on_c, 11, 70, 52
14, 132464, Note_on_c, 11, 70, 0
14, 132480, Note_on_c, 11, 60, 52
14, 132584, Note_on_c, 11, 60, 0
14, 132600, Note_on_c, 11, 60, 52
14, 132704, Note_on_c, 11, 60, 0
14, 132720, Note_on_c, 11, 70, 52
14, 132824, Note_on_c, 11, 70, 0
14, 132840, Note_on_c, 11, 60, 52
14, 132944, Note_on_c, 11, 60, 0
14, 132960, Note_on_c, 11, 60, 52
14, 133064, Note_on_c, 11, 60, 0
14, 133078, Control_c, 11, 11, 80
14, 133080, Note_on_c, 11, 65, 76
14, 133784, Note_on_c, 11, 65, 0
14, 133800, Note_on_c, 11, 64, 76
14, 134504, Note_on_c, 11, 64, 0
14, 134520, Note_on_c, 11, 65, 76
14, 134520, Control_c, 11, 11, 80
14, 134580, Control_c, 11, 11, 82
14, 134640, Control_c, 11, 11, 84
14, 134700, Control_c, 11, 11, 86
14, 134760, Control_c, 11, 11, 88
14, 134820, Control_c, 11, 11, 90
14, 134880, Control_c, 11, 11, 92
14, 134940, Control_c, 11, 11, 94
14, 135000, Control_c, 11, 11, 96
14, 135060, Control_c, 11, 11, 98
14, 135120, Control_c, 11, 11, 100
14, 135180, Control_c, 11, 11, 102
14, 135224, Note_on_c, 11, 65, 0
14, 135240, Control_c, 11, 11, 104
14, 135240, Note_on_c, 11, 64, 76
14, 135300, Control_c, 11, 11, 105
14, 135360, Control_c, 11, 11, 107
14, 135420, Control_c, 11, 11, 109
14, 135480, Control_c, 11, 11, 111
14, 135540, Control_c, 11, 11, 113
14, 135600, Control_c, 11, 11, 115
14, 135660, Control_c, 11, 11, 117
14, 135720, Control_c, 11, 11, 119
14, 135780, Control_c, 11, 11, 121
14, 135840, Control_c, 11, 11, 123
14, 135900, Control_c, 11, 11, 127
14, 135944, Note_on_c, 11, 64, 0
14, 135960, Note_on_c, 11, 65, 76
14, 136079, Note_on_c, 11, 65, 0
14, 137400, Note_on_c, 11, 65, 84
14, 137519, Note_on_c, 11, 65, 0
14, 137520, Note_on_c, 11, 67, 84
14, 137579, Note_on_c, 11, 67, 0
14, 137580, Note_on_c, 11, 65, 84
14, 137639, Note_on_c, 11, 65, 0
14, 137640, Note_on_c, 11, 60, 84
14, 137759, Note_on_c, 11, 60, 0
14, 137760, Note_on_c, 11, 62, 84
14, 137819, Note_on_c, 11, 62, 0
14, 137820, Note_on_c, 11, 64, 84
14, 137871, Note_on_c, 11, 64, 0
14, 137880, Note_on_c, 11, 65, 92
14, 137999, Note_on_c, 11, 65, 0
14, 138000, Note_on_c, 11, 67, 84
14, 138059, Note_on_c, 11, 67, 0
14, 138060, Note_on_c, 11, 65, 84
14, 138111, Note_on_c, 11, 65, 0
14, 138120, Note_on_c, 11, 60, 84
14, 138344, Note_on_c, 11, 60, 0
14, 138360, Note_on_c, 11, 58, 92
14, 138419, Note_on_c, 11, 58, 0
14, 138420, Note_on_c, 11, 60, 84
14, 138479, Note_on_c, 11, 60, 0
14, 138480, Note_on_c, 11, 62, 84
14, 138539, Note_on_c, 11, 62, 0
14, 138540, Note_on_c, 11, 63, 84
14, 138599, Note_on_c, 11, 63, 0
14, 138600, Note_on_c, 11, 65, 84
14, 138689, Note_on_c, 11, 65, 0
14, 138720, Note_on_c, 11, 65, 84
14, 138749, Note_on_c, 11, 65, 0
14, 138750, Note_on_c, 11, 67, 84
14, 138831, Note_on_c, 11, 67, 0
14, 138840, Note_on_c, 11, 60, 92
14, 138929, Note_on_c, 11, 60, 0
14, 138960, Note_on_c, 11, 60, 84
14, 138989, Note_on_c, 11, 60, 0
14, 138990, Note_on_c, 11, 65, 84
14, 139071, Note_on_c, 11, 65, 0
14, 139080, Note_on_c, 11, 58, 84
14, 139304, Note_on_c, 11, 58, 0
14, 139320, Note_on_c, 11, 65, 92
14, 139439, Note_on_c, 11, 65, 0
14, 139440, Note_on_c, 11, 67, 84
14, 139499, Note_on_c, 11, 67, 0
14, 139500, Note_on_c, 11, 65, 84
14, 139559, Note_on_c, 11, 65, 0
14, 139560, Note_on_c, 11, 60, 84
14, 139679, Note_on_c, 11, 60, 0
14, 139680, Note_on_c, 11, 62, 84
14, 139739, Note_on_c, 11, 62, 0
14, 139740, Note_on_c, 11, 64, 84
14, 139791, Note_on_c, 11, 64, 0
14, 139800, Note_on_c, 11, 65, 92
14, 139919, Note_on_c, 11, 65, 0
14, 139920, Note_on_c, 11, 67, 84
14, 139979, Note_on_c, 11, 67, 0
14, 139980, Note_on_c, 11, 65, 84
14, 140031, Note_on_c, 11, 65, 0
14, 140040, Note_on_c, 11, 60, 84
14, 140264, Note_on_c, 11, 60, 0
14, 140280, Note_on_c, 11, 58, 92
14, 140339, Note_on_c, 11, 58, 0
14, 140340, Note_on_c, 11, 60, 84
14, 140399, Note_on_c, 11, 60, 0
14, 140400, Note_on_c, 11, 62, 84
14, 140459, Note_on_c, 11, 62, 0
14, 140460, Note_on_c, 11, 63, 84
14, 140519, Note_on_c, 11, 63, 0
14, 140520, Note_on_c, 11, 65, 84
14, 140609, Note_on_c, 11, 65, 0
14, 140640, Note_on_c, 11, 65, 84
14, 140669, Note_on_c, 11, 65, 0
14, 140670, Note_on_c, 11, 67, 84
14, 140751, Note_on_c, 11, 67, 0
14, 140760, Note_on_c, 11, 60, 92
14, 140849, Note_on_c, 11, 60, 0
14, 140880, Note_on_c, 11, 60, 84
14, 140909, Note_on_c, 11, 60, 0
14, 140910, Note_on_c, 11, 65, 84
14, 140991, Note_on_c, 11, 65, 0
14, 141000, Note_on_c, 11, 58, 84
14, 141224, Note_on_c, 11, 58, 0
14, 141240, Note_on_c, 11, 65, 92
14, 141359, Note_on_c, 11, 65, 0
14, 141360, Note_on_c, 11, 67, 84
14, 141419, Note_on_c, 11, 67, 0
14, 141420, Note_on_c, 11, 65, 84
14, 141479, Note_on_c, 11, 65, 0
14, 141480, Note_on_c, 11, 60, 84
14, 141599, Note_on_c, 11, 60, 0
14, 141600, Note_on_c, 11, 62, 84
14, 141659, Note_on_c, 11, 62, 0
14, 141660, Note_on_c, 11, 64, 84
14, 141711, Note_on_c, 11, 64, 0
14, 141720, Note_on_c, 11, 65, 92
14, 141839, Note_on_c, 11, 65, 0
14, 141840, Note_on_c, 11, 67, 84
14, 141899, Note_on_c, 11, 67, 0
14, 141900, Note_on_c, 11, 65, 84
14, 141951, Note_on_c, 11, 65, 0
14, 141960, Note_on_c, 11, 60, 84
14, 142184, Note_on_c, 11, 60, 0
14, 142200, Note_on_c, 11, 58, 92
14, 142259, Note_on_c, 11, 58, 0
14, 142260, Note_on_c, 11, 60, 84
14, 142319, Note_on_c, 11, 60, 0
14, 142320, Note_on_c, 11, 62, 84
14, 142379, Note_on_c, 11, 62, 0
14, 142380, Note_on_c, 11, 63, 84
14, 142439, Note_on_c, 11, 63, 0
14, 142440, Note_on_c, 11, 65, 84
14, 142529, Note_on_c, 11, 65, 0
14, 142560, Note_on_c, 11, 65, 84
14, 142589, Note_on_c, 11, 65, 0
14, 142590, Note_on_c, 11, 67, 84
14, 142671, Note_on_c, 11, 67, 0
14, 142680, Note_on_c, 11, 60, 92
14, 142769, Note_on_c, 11, 60, 0
14, 142800, Note_on_c, 11, 60, 84
14, 142829, Note_on_c, 11, 60, 0
14, 142830, Note_on_c, 11, 65, 84
14, 142911, Note_on_c, 11, 65, 0
14, 142920, Note_on_c, 11, 58, 84
14, 143144, Note_on_c, 11, 58, 0
14, 143160, Note_on_c, 11, 65, 92
14, 143279, Note_on_c, 11, 65, 0
14, 143280, Note_on_c, 11, 67, 84
14, 143339, Note_on_c, 11, 67, 0
14, 143340, Note_on_c, 11, 65, 84
14, 143399, Note_on_c, 11, 65, 0
14, 143400, Note_on_c, 11, 60, 84
14, 143519, Note_on_c, 11, 60, 0
14, 143520, Note_on_c, 11, 62, 84
14, 143579, Note_on_c, 11, 62, 0
14, 143580, Note_on_c, 11, 64, 84
14, 143631, Note_on_c, 11, 64, 0
14, 143640, Note_on_c, 11, 65, 92
14, 143759, Note_on_c, 11, 65, 0
14, 143760, Note_on_c, 11, 67, 84
14, 143819, Note_on_c, 11, 67, 0
14, 143820, Note_on_c, 11, 65, 84
14, 143871, Note_on_c, 11, 65, 0
14, 143880, Note_on_c, 11, 60, 84
14, 144104, Note_on_c, 11, 60, 0
14, 144120, Note_on_c, 11, 58, 92
14, 144179, Note_on_c, 11, 58, 0
14, 144180, Note_on_c, 11, 60, 84
14, 144239, Note_on_c, 11, 60, 0
14, 144240, Note_on_c, 11, 62, 84
14, 144299, Note_on_c, 11, 62, 0
14, 144300, Note_on_c, 11, 63, 84
14, 144359, Note_on_c, 11, 63, 0
14, 144360, Note_on_c, 11, 65, 84
14, 144449, Note_on_c, 11, 65, 0
14, 144480, Note_on_c, 11, 65, 84
14, 144509, Note_on_c, 11, 65, 0
14, 144510, Note_on_c, 11, 67, 84
14, 144591, Note_on_c, 11, 67, 0
14, 144600, Note_on_c, 11, 60, 92
14, 144689, Note_on_c, 11, 60, 0
14, 144720, Note_on_c, 11, 60, 84
14, 144749, Note_on_c, 11, 60, 0
14, 144750, Note_on_c, 11, 65, 84
14, 144831, Note_on_c, 11, 65, 0
14, 144840, Note_on_c, 11, 58, 84
14, 145064, Note_on_c, 11, 58, 0
14, 145080, Note_on_c, 11, 72, 92
14, 145139, Note_on_c, 11, 72, 0
14, 145140, Note_on_c, 11, 72, 84
14, 145319, Note_on_c, 11, 72, 0
14, 145320, Note_on_c, 11, 74, 84
14, 145544, Note_on_c, 11, 74, 0
14, 145560, Note_on_c, 11, 72, 92
14, 145619, Note_on_c, 11, 72, 0
14, 145620, Note_on_c, 11, 72, 84
14, 145799, Note_on_c, 11, 72, 0
14, 145800, Note_on_c, 11, 76, 84
14, 146024, Note_on_c, 11, 76, 0
14, 146040, Note_on_c, 11, 77, 92
14, 146099, Note_on_c, 11, 77, 0
14, 146100, Note_on_c, 11, 77, 84
14, 146279, Note_on_c, 11, 77, 0
14, 146280, Note_on_c, 11, 69, 84
14, 146504, Note_on_c, 11, 69, 0
14, 146520, Note_on_c, 11, 70, 84
14, 146759, Note_on_c, 11, 70, 0
14, 146760, Note_on_c, 11, 69, 84
14, 146879, Note_on_c, 11, 69, 0
14, 146880, Note_on_c, 11, 71, 84
14, 146984, Note_on_c, 11, 71, 0
14, 147000, Note_on_c, 11, 72, 84
14, 147239, Note_on_c, 11, 72, 0
14, 147240, Note_on_c, 11, 74, 84
14, 147464, Note_on_c, 11, 74, 0
14, 147480, Note_on_c, 11, 72, 84
14, 147719, Note_on_c, 11, 72, 0
14, 147720, Note_on_c, 11, 76, 84
14, 147944, Note_on_c, 11, 76, 0
14, 147960, Note_on_c, 11, 77, 84
14, 148199, Note_on_c, 11, 77, 0
14, 148200, Note_on_c, 11, 69, 84
14, 148424, Note_on_c, 11, 69, 0
14, 148440, Note_on_c, 11, 70, 84
14, 148679, Note_on_c, 11, 70, 0
14, 148680, Note_on_c, 11, 69, 84
14, 148904, Note_on_c, 11, 69, 0
14, 148920, Note_on_c, 11, 60, 84
14, 149039, Note_on_c, 11, 60, 0
14, 149040, Note_on_c, 11, 62, 84
14, 149099, Note_on_c, 11, 62, 0
14, 149100, Note_on_c, 11, 60, 84
14, 149159, Note_on_c, 11, 60, 0
14, 149160, Note_on_c, 11, 59, 84
14, 149279, Note_on_c, 11, 59, 0
14, 149280, Note_on_c, 11, 60, 84
14, 149339, Note_on_c, 11, 60, 0
14, 149340, Note_on_c, 11, 62, 84
14, 149391, Note_on_c, 11, 62, 0
14, 149400, Note_on_c, 11, 64, 84
14, 149519, Note_on_c, 11, 64, 0
14, 149520, Note_on_c, 11, 65, 84
14, 149579, Note_on_c, 11, 65, 0
14, 149580, Note_on_c, 11, 64, 84
14, 149639, Note_on_c, 11, 64, 0
14, 149640, Note_on_c, 11, 62, 84
14, 149759, Note_on_c, 11, 62, 0
14, 149760, Note_on_c, 11, 64, 84
14, 149819, Note_on_c, 11, 64, 0
14, 149820, Note_on_c, 11, 65, 84
14, 149871, Note_on_c, 11, 65, 0
14, 149880, Note_on_c, 11, 67, 84
14, 149999, Note_on_c, 11, 67, 0
14, 150000, Note_on_c, 11, 65, 84
14, 150059, Note_on_c, 11, 65, 0
14, 150060, Note_on_c, 11, 67, 84
14, 150111, Note_on_c, 11, 67, 0
14, 150120, Note_on_c, 11, 69, 84
14, 150239, Note_on_c, 11, 69, 0
14, 150360, Note_on_c, 11, 72, 84
14, 150360, Note_on_c, 11, 64, 84
14, 150479, Note_on_c, 11, 72, 0
14, 150479, Note_on_c, 11, 64, 0
14, 150600, Note_on_c, 11, 65, 84
14, 150600, Note_on_c, 11, 71, 84
14, 150600, Note_on_c, 11, 55, 84
14, 150719, Note_on_c, 11, 65, 0
14, 150719, Note_on_c, 11, 71, 0
14, 150719, Note_on_c, 11, 55, 0
14, 150840, Note_on_c, 11, 60, 84
14, 150959, Note_on_c, 11, 60, 0
14, 150960, Note_on_c, 11, 62, 84
14, 151019, Note_on_c, 11, 62, 0
14, 151020, Note_on_c, 11, 60, 84
14, 151079, Note_on_c, 11, 60, 0
14, 151080, Note_on_c, 11, 59, 84
14, 151199, Note_on_c, 11, 59, 0
14, 151200, Note_on_c, 11, 60, 84
14, 151259, Note_on_c, 11, 60, 0
14, 151260, Note_on_c, 11, 62, 84
14, 151311, Note_on_c, 11, 62, 0
14, 151320, Note_on_c, 11, 64, 84
14, 151439, Note_on_c, 11, 64, 0
14, 151440, Note_on_c, 11, 65, 84
14, 151499, Note_on_c, 11, 65, 0
14, 151500, Note_on_c, 11, 64, 84
14, 151559, Note_on_c, 11, 64, 0
14, 151560, Note_on_c, 11, 62, 84
14, 151679, Note_on_c, 11, 62, 0
14, 151680, Note_on_c, 11, 64, 84
14, 151739, Note_on_c, 11, 64, 0
14, 151740, Note_on_c, 11, 65, 84
14, 151791, Note_on_c, 11, 65, 0
14, 151800, Note_on_c, 11, 67, 84
14, 151919, Note_on_c, 11, 67, 0
14, 151920, Note_on_c, 11, 65, 84
14, 151979, Note_on_c, 11, 65, 0
14, 151980, Note_on_c, 11, 67, 84
14, 152031, Note_on_c, 11, 67, 0
14, 152040, Note_on_c, 11, 69, 84
14, 152144, Note_on_c, 11, 69, 0
14, 152160, Note_on_c, 11, 69, 84
14, 152279, Note_on_c, 11, 69, 0
14, 152400, Note_on_c, 11, 72, 84
14, 152400, Note_on_c, 11, 55, 84
14, 152400, Note_on_c, 11, 64, 84
14, 152519, Note_on_c, 11, 72, 0
14, 152519, Note_on_c, 11, 55, 0
14, 152519, Note_on_c, 11, 64, 0
14, 152625, Control_c, 11, 11, 112
14, 152640, Note_on_c, 11, 65, 92
14, 152640, Note_on_c, 11, 55, 92
14, 152640, Note_on_c, 11, 71, 92
14, 152744, Note_on_c, 11, 65, 0
14, 152744, Note_on_c, 11, 55, 0
14, 152744, Note_on_c, 11, 71, 0
14, 152760, Control_c, 11, 11, 112
14, 152760, Note_on_c, 11, 55, 92
14, 152760, Note_on_c, 11, 64, 92
14, 152760, Note_on_c, 11, 72, 92
14, 152952, Control_c, 11, 11, 113
14, 152999, Note_on_c, 11, 55, 0
14, 152999, Note_on_c, 11, 64, 0
14, 153104, Note_on_c, 11, 72, 0
14, 153120, Note_on_c, 11, 64, 92
14, 153144, Control_c, 11, 11, 114
14, 153224, Note_on_c, 11, 64, 0
14, 153240, Note_on_c, 11, 64, 92
14, 153336, Control_c, 11, 11, 115
14, 153528, Control_c, 11, 11, 116
14, 153584, Note_on_c, 11, 64, 0
14, 153600, Note_on_c, 11, 60, 92
14, 153704, Note_on_c, 11, 60, 0
14, 153720, Note_on_c, 11, 60, 92
14, 153720, Control_c, 11, 11, 117
14, 153912, Control_c, 11, 11, 118
14, 154064, Note_on_c, 11, 60, 0
14, 154080, Note_on_c, 11, 67, 92
14, 154104, Control_c, 11, 11, 119
14, 154184, Note_on_c, 11, 67, 0
14, 154200, Note_on_c, 11, 67, 92
14, 154296, Control_c, 11, 11, 120
14, 154488, Control_c, 11, 11, 121
14, 154544, Note_on_c, 11, 67, 0
14, 154560, Note_on_c, 11, 60, 92
14, 154664, Note_on_c, 11, 60, 0
14, 154680, Control_c, 11, 11, 122
14, 154680, Note_on_c, 11, 60, 92
14, 154799, Note_on_c, 11, 60, 0
14, 154800, Note_on_c, 11, 72, 92
14, 154872, Control_c, 11, 11, 123
14, 154919, Note_on_c, 11, 72, 0
14, 154920, Note_on_c, 11, 72, 92
14, 155039, Note_on_c, 11, 72, 0
14, 155040, Note_on_c, 11, 64, 92
14, 155064, Control_c, 11, 11, 124
14, 155159, Note_on_c, 11, 64, 0
14, 155160, Note_on_c, 11, 64, 92
14, 155256, Control_c, 11, 11, 125
14, 155279, Note_on_c, 11, 64, 0
14, 155280, Note_on_c, 11, 76, 92
14, 155399, Note_on_c, 11, 76, 0
14, 155400, Note_on_c, 11, 76, 92
14, 155448, Control_c, 11, 11, 127
14, 155519, Note_on_c, 11, 76, 0
14, 155520, Note_on_c, 11, 76, 92
14, 155520, Note_on_c, 11, 72, 92
14, 155639, Note_on_c, 11, 76, 0
14, 155639, Note_on_c, 11, 72, 0
14, 155640, Note_on_c, 11, 72, 84
14, 155640, Note_on_c, 11, 76, 84
14, 155640, Note_on_c, 11, 64, 84
14, 155759, Note_on_c, 11, 72, 0
14, 155759, Note_on_c, 11, 76, 0
14, 155759, Note_on_c, 11, 64, 0
14, 156120, Note_on_c, 11, 72, 52
14, 156120, Note_on_c, 11, 55, 52
14, 156120, Note_on_c, 11, 64, 52
14, 156239, Note_on_c, 11, 72, 0
14, 156239, Note_on_c, 11, 55, 0
14, 156239, Note_on_c, 11, 64, 0
14, 156480, Note_on_c, 11, 60, 44
14, 156569, Note_on_c, 11, 60, 0
14, 156600, Note_on_c, 11, 65, 44
14, 156689, Note_on_c, 11, 65, 0
14, 156720, Note_on_c, 11, 72, 44
14, 156809, Note_on_c, 11, 72, 0
14, 156840, Note_on_c, 11, 74, 44
14, 156929, Note_on_c, 11, 74, 0
14, 156960, Note_on_c, 11, 72, 44
14, 157049, Note_on_c, 11, 72, 0
14, 157080, Note_on_c, 11, 69, 44
14, 157169, Note_on_c, 11, 69, 0
14, 157200, Note_on_c, 11, 70, 44
14, 157289, Note_on_c, 11, 70, 0
14, 157320, Note_on_c, 11, 69, 44
14, 157409, Note_on_c, 11, 69, 0
14, 157440, Note_on_c, 11, 65, 44
14, 157529, Note_on_c, 11, 65, 0
14, 157560, Note_on_c, 11, 67, 44
14, 157649, Note_on_c, 11, 67, 0
14, 157680, Note_on_c, 11, 69, 44
14, 157769, Note_on_c, 11, 69, 0
14, 157800, Note_on_c, 11, 65, 44
14, 157889, Note_on_c, 11, 65, 0
14, 157920, Note_on_c, 11, 67, 44
14, 158001, Note_on_c, 11, 67, 0
14, 158020, Note_on_c, 11, 65, 44
14, 158039, Note_on_c, 11, 65, 0
14, 158040, Note_on_c, 11, 69, 44
14, 158129, Note_on_c, 11, 69, 0
14, 158160, Note_on_c, 11, 65, 44
14, 158249, Note_on_c, 11, 65, 0
14, 158280, Note_on_c, 11, 67, 44
14, 158361, Note_on_c, 11, 67, 0
14, 158380, Note_on_c, 11, 62, 44
14, 158399, Note_on_c, 11, 62, 0
14, 158400, Note_on_c, 11, 65, 44
14, 158489, Note_on_c, 11, 65, 0
14, 158520, Note_on_c, 11, 62, 44
14, 158609, Note_on_c, 11, 62, 0
14, 158640, Note_on_c, 11, 64, 44
14, 158729, Note_on_c, 11, 64, 0
14, 158740, Note_on_c, 11, 57, 44
14, 158759, Note_on_c, 11, 57, 0
14, 158760, Note_on_c, 11, 62, 44
14, 158849, Note_on_c, 11, 62, 0
14, 158880, Note_on_c, 11, 57, 44
14, 158969, Note_on_c, 11, 57, 0
14, 159000, Note_on_c, 11, 57, 44
14, 159089, Note_on_c, 11, 57, 0
14, 159120, Note_on_c, 11, 57, 44
14, 159239, Note_on_c, 11, 57, 0
14, 159358, Control_c, 11, 11, 64
14, 159360, Note_on_c, 11, 57, 76
14, 159479, Note_on_c, 11, 57, 0
14, 159480, Note_on_c, 11, 62, 76
14, 159719, Note_on_c, 11, 62, 0
14, 159720, Note_on_c, 11, 66, 76
14, 159839, Note_on_c, 11, 66, 0
14, 159840, Note_on_c, 11, 69, 76
14, 159959, Note_on_c, 11, 69, 0
14, 159960, Note_on_c, 11, 66, 76
14, 160064, Note_on_c, 11, 66, 0
14, 160080, Note_on_c, 11, 66, 76
14, 160199, Note_on_c, 11, 66, 0
14, 160200, Note_on_c, 11, 69, 76
14, 160200, Control_c, 11, 11, 64
14, 160260, Control_c, 11, 11, 67
14, 160319, Note_on_c, 11, 69, 0
14, 160320, Control_c, 11, 11, 69
14, 160320, Note_on_c, 11, 73, 76
14, 160380, Control_c, 11, 11, 72
14, 160439, Note_on_c, 11, 73, 0
14, 160440, Control_c, 11, 11, 75
14, 160440, Note_on_c, 11, 74, 76
14, 160499, Note_on_c, 11, 74, 0
14, 160500, Note_on_c, 11, 71, 76
14, 160500, Control_c, 11, 11, 77
14, 160559, Note_on_c, 11, 71, 0
14, 160560, Control_c, 11, 11, 80
14, 160560, Note_on_c, 11, 69, 76
14, 160620, Control_c, 11, 11, 82
14, 160679, Note_on_c, 11, 69, 0
14, 160680, Control_c, 11, 11, 85
14, 160680, Note_on_c, 11, 73, 76
14, 160740, Control_c, 11, 11, 88
14, 160799, Note_on_c, 11, 73, 0
14, 160800, Control_c, 11, 11, 90
14, 160800, Note_on_c, 11, 74, 76
14, 160859, Note_on_c, 11, 74, 0
14, 160860, Control_c, 11, 11, 93
14, 160860, Note_on_c, 11, 70, 76
14, 160919, Note_on_c, 11, 70, 0
14, 160920, Control_c, 11, 11, 96
14, 160920, Note_on_c, 11, 69, 76
14, 160980, Control_c, 11, 11, 98
14, 161039, Note_on_c, 11, 69, 0
14, 161040, Note_on_c, 11, 72, 76
14, 161040, Control_c, 11, 11, 101
14, 161100, Control_c, 11, 11, 103
14, 161159, Note_on_c, 11, 72, 0
14, 161160, Control_c, 11, 11, 106
14, 161160, Note_on_c, 11, 74, 76
14, 161219, Note_on_c, 11, 74, 0
14, 161220, Note_on_c, 11, 70, 76
14, 161220, Control_c, 11, 11, 109
14, 161279, Note_on_c, 11, 70, 0
14, 161280, Note_on_c, 11, 69, 76
14, 161280, Control_c, 11, 11, 111
14, 161340, Control_c, 11, 11, 114
14, 161399, Note_on_c, 11, 69, 0
14, 161400, Note_on_c, 11, 72, 76
14, 161400, Control_c, 11, 11, 117
14, 161460, Control_c, 11, 11, 119
14, 161519, Note_on_c, 11, 72, 0
14, 161520, Note_on_c, 11, 70, 76
14, 161520, Control_c, 11, 11, 122
14, 161579, Note_on_c, 11, 70, 0
14, 161580, Note_on_c, 11, 67, 76
14, 161580, Control_c, 11, 11, 124
14, 161638, Control_c, 11, 11, 127
14, 161639, Note_on_c, 11, 67, 0
14, 161640, Note_on_c, 11, 69, 76
14, 161640, Note_on_c, 11, 65, 76
14, 161759, Note_on_c, 11, 69, 0
14, 161759, Note_on_c, 11, 65, 0
14, 162360, Note_on_c, 11, 70, 52
14, 162360, Note_on_c, 11, 67, 52
14, 162479, Note_on_c, 11, 70, 0
14, 162479, Note_on_c, 11, 67, 0
14, 162960, Program_c, 11, 45
14, 163080, Note_on_c, 11, 65, 48
14, 163199, Note_on_c, 11, 65, 0
14, 163440, Note_on_c, 11, 65, 48
14, 163559, Note_on_c, 11, 65, 0
14, 163800, Note_on_c, 11, 65, 48
14, 163919, Note_on_c, 11, 65, 0
14, 164160, Note_on_c, 11, 65, 48
14, 164279, Note_on_c, 11, 65, 0
14, 164520, Note_on_c, 11, 65, 48
14, 164639, Note_on_c, 11, 65, 0
14, 164880, Note_on_c, 11, 65, 48
14, 164999, Note_on_c, 11, 65, 0
14, 165240, Note_on_c, 11, 65, 48
14, 165359, Note_on_c, 11, 65, 0
14, 165600, Note_on_c, 11, 65, 48
14, 165719, Note_on_c, 11, 65, 0
14, 165838, Control_c, 11, 11, 64
14, 165838, Program_c, 11, 48
14, 165840, Note_on_c, 11, 72, 84
14, 165959, Note_on_c, 11, 72, 0
14, 165960, Note_on_c, 11, 77, 84
14, 166079, Note_on_c, 11, 77, 0
14, 166080, Control_c, 11, 11, 64
14, 166080, Note_on_c, 11, 72, 84
14, 166130, Control_c, 11, 11, 67
14, 166180, Control_c, 11, 11, 69
14, 166199, Note_on_c, 11, 72, 0
14, 166200, Note_on_c, 11, 74, 84
14, 166230, Control_c, 11, 11, 72
14, 166280, Control_c, 11, 11, 75
14, 166319, Note_on_c, 11, 74, 0
14, 166320, Note_on_c, 11, 72, 84
14, 166330, Control_c, 11, 11, 77
14, 166380, Control_c, 11, 11, 80
14, 166430, Control_c, 11, 11, 82
14, 166439, Note_on_c, 11, 72, 0
14, 166440, Note_on_c, 11, 69, 84
14, 166480, Control_c, 11, 11, 85
14, 166530, Control_c, 11, 11, 88
14, 166559, Note_on_c, 11, 69, 0
14, 166560, Note_on_c, 11, 70, 84
14, 166580, Control_c, 11, 11, 90
14, 166630, Control_c, 11, 11, 93
14, 166679, Note_on_c, 11, 70, 0
14, 166680, Note_on_c, 11, 69, 84
14, 166680, Control_c, 11, 11, 96
14, 166730, Control_c, 11, 11, 98
14, 166780, Control_c, 11, 11, 101
14, 166799, Note_on_c, 11, 69, 0
14, 166800, Note_on_c, 11, 65, 84
14, 166830, Control_c, 11, 11, 103
14, 166880, Control_c, 11, 11, 106
14, 166919, Note_on_c, 11, 65, 0
14, 166920, Note_on_c, 11, 67, 84
14, 166930, Control_c, 11, 11, 109
14, 166980, Control_c, 11, 11, 111
14, 167030, Control_c, 11, 11, 114
14, 167039, Note_on_c, 11, 67, 0
14, 167040, Note_on_c, 11, 69, 84
14, 167080, Control_c, 11, 11, 117
14, 167130, Control_c, 11, 11, 119
14, 167159, Note_on_c, 11, 69, 0
14, 167160, Note_on_c, 11, 65, 84
14, 167180, Control_c, 11, 11, 122
14, 167230, Control_c, 11, 11, 124
14, 167264, Note_on_c, 11, 65, 0
14, 167278, Control_c, 11, 11, 127
14, 167280, Note_on_c, 11, 72, 84
14, 167369, Note_on_c, 11, 72, 0
14, 167400, Note_on_c, 11, 77, 84
14, 167489, Note_on_c, 11, 77, 0
14, 167520, Note_on_c, 11, 72, 84
14, 167609, Note_on_c, 11, 72, 0
14, 167640, Note_on_c, 11, 74, 84
14, 167729, Note_on_c, 11, 74, 0
14, 167760, Note_on_c, 11, 72, 84
14, 167849, Note_on_c, 11, 72, 0
14, 167880, Note_on_c, 11, 69, 84
14, 167969, Note_on_c, 11, 69, 0
14, 168000, Note_on_c, 11, 70, 84
14, 168089, Note_on_c, 11, 70, 0
14, 168120, Note_on_c, 11, 69, 92
14, 168209, Note_on_c, 11, 69, 0
14, 168240, Note_on_c, 11, 65, 84
14, 168329, Note_on_c, 11, 65, 0
14, 168360, Note_on_c, 11, 67, 84
14, 168449, Note_on_c, 11, 67, 0
14, 168480, Note_on_c, 11, 69, 92
14, 168569, Note_on_c, 11, 69, 0
14, 168600, Note_on_c, 11, 65, 84
14, 168689, Note_on_c, 11, 65, 0
14, 168720, Note_on_c, 11, 67, 84
14, 168809, Note_on_c, 11, 67, 0
14, 168840, Note_on_c, 11, 69, 92
14, 168929, Note_on_c, 11, 69, 0
14, 168960, Note_on_c, 11, 65, 84
14, 169049, Note_on_c, 11, 65, 0
14, 169080, Note_on_c, 11, 67, 84
14, 169169, Note_on_c, 11, 67, 0
14, 169200, Note_on_c, 11, 69, 92
14, 169289, Note_on_c, 11, 69, 0
14, 169320, Note_on_c, 11, 65, 84
14, 169409, Note_on_c, 11, 65, 0
14, 169440, Note_on_c, 11, 67, 84
14, 169529, Note_on_c, 11, 67, 0
14, 169560, Note_on_c, 11, 69, 92
14, 169620, Control_c, 11, 11, 112
14, 169839, Note_on_c, 11, 69, 0
14, 169860, Note_on_c, 11, 67, 92
14, 169889, Note_on_c, 11, 67, 0
14, 169890, Note_on_c, 11, 69, 92
14, 169919, Note_on_c, 11, 69, 0
14, 169920, Note_on_c, 11, 67, 92
14, 170139, Note_on_c, 11, 67, 0
14, 170160, Note_on_c, 11, 65, 92
14, 170211, Note_on_c, 11, 65, 0
14, 170220, Note_on_c, 11, 64, 92
14, 170249, Note_on_c, 11, 64, 0
14, 170250, Note_on_c, 11, 65, 92
14, 170279, Note_on_c, 11, 65, 0
14, 170280, Note_on_c, 11, 64, 92
14, 170499, Note_on_c, 11, 64, 0
14, 170520, Note_on_c, 11, 62, 92
14, 170619, Note_on_c, 11, 62, 0
14, 170640, Note_on_c, 11, 60, 92
14, 170859, Note_on_c, 11, 60, 0
14, 170880, Note_on_c, 11, 72, 92
14, 170979, Note_on_c, 11, 72, 0
14, 171000, Note_on_c, 11, 77, 92
14, 171060, Control_c, 11, 11, 112
14, 171339, Note_on_c, 11, 77, 0
14, 171358, Control_c, 11, 11, 127
14, 171360, Note_on_c, 11, 77, 92
14, 171420, Control_c, 11, 11, 112
14, 171699, Note_on_c, 11, 77, 0
14, 171718, Control_c, 11, 11, 127
14, 171720, Note_on_c, 11, 77, 92
14, 171780, Control_c, 11, 11, 112
14, 172059, Note_on_c, 11, 77, 0
14, 172080, Note_on_c, 11, 67, 92
14, 172080, Note_on_c, 11, 76, 92
14, 172080, Note_on_c, 11, 60, 92
14, 172140, Control_c, 11, 11, 112
14, 172199, Note_on_c, 11, 67, 0
14, 172199, Note_on_c, 11, 60, 0
14, 172419, Note_on_c, 11, 76, 0
14, 172438, Control_c, 11, 11, 127
14, 172440, Note_on_c, 11, 69, 84
14, 172440, Note_on_c, 11, 77, 84
14, 172559, Note_on_c, 11, 69, 0
14, 172559, Note_on_c, 11, 77, 0
14, 172680, Note_on_c, 11, 81, 84
14, 172731, Note_on_c, 11, 81, 0
14, 172740, Note_on_c, 11, 79, 84
14, 172769, Note_on_c, 11, 79, 0
14, 172770, Note_on_c, 11, 81, 84
14, 172799, Note_on_c, 11, 81, 0
14, 172800, Note_on_c, 11, 79, 84
14, 173019, Note_on_c, 11, 79, 0
14, 173040, Note_on_c, 11, 77, 84
14, 173091, Note_on_c, 11, 77, 0
14, 173100, Note_on_c, 11, 76, 84
14, 173129, Note_on_c, 11, 76, 0
14, 173130, Note_on_c, 11, 77, 84
14, 173159, Note_on_c, 11, 77, 0
14, 173160, Note_on_c, 11, 76, 84
14, 173379, Note_on_c, 11, 76, 0
14, 173400, Note_on_c, 11, 74, 84
14, 173499, Note_on_c, 11, 74, 0
14, 173520, Note_on_c, 11, 72, 84
14, 173739, Note_on_c, 11, 72, 0
14, 173760, Note_on_c, 11, 76, 84
14, 173859, Note_on_c, 11, 76, 0
14, 173880, Note_on_c, 11, 77, 92
14, 173880, Note_on_c, 11, 65, 92
14, 173880, Note_on_c, 11, 72, 92
14, 173940, Control_c, 11, 11, 112
14, 173999, Note_on_c, 11, 65, 0
14, 173999, Note_on_c, 11, 72, 0
14, 174219, Note_on_c, 11, 77, 0
14, 174238, Control_c, 11, 11, 127
14, 174240, Note_on_c, 11, 67, 92
14, 174300, Control_c, 11, 11, 112
14, 174579, Note_on_c, 11, 67, 0
14, 174598, Control_c, 11, 11, 127
14, 174600, Note_on_c, 11, 72, 92
14, 174660, Control_c, 11, 11, 112
14, 174939, Note_on_c, 11, 72, 0
14, 174958, Control_c, 11, 11, 127
14, 174960, Note_on_c, 11, 72, 92
14, 174960, Note_on_c, 11, 79, 92
14, 174960, Note_on_c, 11, 64, 92
14, 175020, Control_c, 11, 11, 112
14, 175079, Note_on_c, 11, 72, 0
14, 175079, Note_on_c, 11, 64, 0
14, 175299, Note_on_c, 11, 79, 0
14, 175318, Control_c, 11, 11, 127
14, 175320, Note_on_c, 11, 65, 92
14, 175320, Note_on_c, 11, 72, 92
14, 175320, Note_on_c, 11, 77, 92
14, 175439, Note_on_c, 11, 65, 0
14, 175439, Note_on_c, 11, 72, 0
14, 175439, Note_on_c, 11, 77, 0
14, 175680, Note_on_c, 11, 57, 84
14, 175731, Note_on_c, 11, 57, 0
14, 175740, Note_on_c, 11, 60, 84
14, 175791, Note_on_c, 11, 60, 0
14, 175800, Note_on_c, 11, 65, 84
14, 175851, Note_on_c, 11, 65, 0
14, 175860, Note_on_c, 11, 69, 84
14, 175911, Note_on_c, 11, 69, 0
14, 175920, Note_on_c, 11, 72, 84
14, 176039, Note_on_c, 11, 72, 0
14, 176400, Note_on_c, 11, 67, 84
14, 176400, Note_on_c, 11, 70, 84
14, 176499, Note_on_c, 11, 67, 0
14, 176499, Note_on_c, 11, 70, 0
14, 176520, Note_on_c, 11, 67, 84
14, 176520, Note_on_c, 11, 70, 84
14, 176619, Note_on_c, 11, 67, 0
14, 176619, Note_on_c, 11, 70, 0
14, 176640, Note_on_c, 11, 67, 84
14, 176640, Note_on_c, 11, 70, 84
14, 176739, Note_on_c, 11, 67, 0
14, 176739, Note_on_c, 11, 70, 0
14, 176760, Note_on_c, 11, 65, 92
14, 176760, Note_on_c, 11, 69, 92
14, 176879, Note_on_c, 11, 65, 0
14, 176879, Note_on_c, 11, 69, 0
14, 177120, Note_on_c, 11, 57, 84
14, 177171, Note_on_c, 11, 57, 0
14, 177180, Note_on_c, 11, 60, 84
14, 177231, Note_on_c, 11, 60, 0
14, 177240, Note_on_c, 11, 65, 84
14, 177291, Note_on_c, 11, 65, 0
14, 177300, Note_on_c, 11, 69, 84
14, 177351, Note_on_c, 11, 69, 0
14, 177360, Note_on_c, 11, 72, 84
14, 177479, Note_on_c, 11, 72, 0
14, 177840, Note_on_c, 11, 67, 84
14, 177840, Note_on_c, 11, 70, 84
14, 177939, Note_on_c, 11, 67, 0
14, 177939, Note_on_c, 11, 70, 0
14, 177960, Note_on_c, 11, 70, 84
14, 177960, Note_on_c, 11, 67, 84
14, 178059, Note_on_c, 11, 70, 0
14, 178059, Note_on_c, 11, 67, 0
14, 178080, Note_on_c, 11, 67, 84
14, 178080, Note_on_c, 11, 70, 84
14, 178199, Note_on_c, 11, 67, 0
14, 178199, Note_on_c, 11, 70, 0
14, 178199, End_track
15, 0, Start_track
15, 0, Title_t, "Viola "
15, 0, MIDI_port, 0
15, 0, Program_c, 12, 48
15, 0, Control_c, 12, 11, 127
15, 0, Control_c, 12, 10, 70
15, 0, Control_c, 12, 7, 96
15, 0, Note_on_c, 12, 60, 44
15, 89, Note_on_c, 12, 60, 0
15, 120, Note_on_c, 12, 65, 44
15, 209, Note_on_c, 12, 65, 0
15, 240, Note_on_c, 12, 60, 44
15, 329, Note_on_c, 12, 60, 0
15, 360, Note_on_c, 12, 62, 44
15, 449, Note_on_c, 12, 62, 0
15, 480, Note_on_c, 12, 60, 44
15, 569, Note_on_c, 12, 60, 0
15, 600, Note_on_c, 12, 57, 44
15, 689, Note_on_c, 12, 57, 0
15, 720, Note_on_c, 12, 58, 44
15, 809, Note_on_c, 12, 58, 0
15, 840, Note_on_c, 12, 57, 44
15, 929, Note_on_c, 12, 57, 0
15, 960, Note_on_c, 12, 53, 44
15, 1049, Note_on_c, 12, 53, 0
15, 1080, Note_on_c, 12, 55, 44
15, 1169, Note_on_c, 12, 55, 0
15, 1200, Note_on_c, 12, 57, 44
15, 1289, Note_on_c, 12, 57, 0
15, 1320, Note_on_c, 12, 53, 44
15, 1409, Note_on_c, 12, 53, 0
15, 1440, Note_on_c, 12, 55, 44
15, 1529, Note_on_c, 12, 55, 0
15, 1560, Note_on_c, 12, 57, 44
15, 1649, Note_on_c, 12, 57, 0
15, 1680, Note_on_c, 12, 65, 44
15, 1769, Note_on_c, 12, 65, 0
15, 1800, Note_on_c, 12, 67, 44
15, 1889, Note_on_c, 12, 67, 0
15, 1920, Note_on_c, 12, 65, 44
15, 2009, Note_on_c, 12, 65, 0
15, 2040, Note_on_c, 12, 62, 44
15, 2129, Note_on_c, 12, 62, 0
15, 2160, Note_on_c, 12, 64, 44
15, 2249, Note_on_c, 12, 64, 0
15, 2280, Note_on_c, 12, 62, 44
15, 2369, Note_on_c, 12, 62, 0
15, 2400, Note_on_c, 12, 57, 44
15, 2489, Note_on_c, 12, 57, 0
15, 2520, Note_on_c, 12, 57, 44
15, 2609, Note_on_c, 12, 57, 0
15, 2640, Note_on_c, 12, 57, 44
15, 2759, Note_on_c, 12, 57, 0
15, 2880, Note_on_c, 12, 57, 48
15, 2999, Note_on_c, 12, 57, 0
15, 3000, Note_on_c, 12, 50, 48
15, 3239, Note_on_c, 12, 50, 0
15, 3240, Note_on_c, 12, 54, 48
15, 3359, Note_on_c, 12, 54, 0
15, 3360, Note_on_c, 12, 57, 48
15, 3479, Note_on_c, 12, 57, 0
15, 3480, Note_on_c, 12, 54, 48
15, 3584, Note_on_c, 12, 54, 0
15, 3600, Note_on_c, 12, 54, 48
15, 3719, Note_on_c, 12, 54, 0
15, 3720, Note_on_c, 12, 57, 48
15, 3839, Note_on_c, 12, 57, 0
15, 3840, Note_on_c, 12, 61, 48
15, 3959, Note_on_c, 12, 61, 0
15, 3960, Note_on_c, 12, 62, 48
15, 4019, Note_on_c, 12, 62, 0
15, 4020, Note_on_c, 12, 59, 48
15, 4079, Note_on_c, 12, 59, 0
15, 4080, Note_on_c, 12, 57, 48
15, 4304, Note_on_c, 12, 57, 0
15, 4320, Note_on_c, 12, 61, 48
15, 4320, Note_on_c, 12, 52, 48
15, 4439, Note_on_c, 12, 61, 0
15, 4439, Note_on_c, 12, 52, 0
15, 4440, Note_on_c, 12, 54, 48
15, 4440, Note_on_c, 12, 62, 48
15, 4559, Note_on_c, 12, 62, 0
15, 4560, Note_on_c, 12, 57, 48
15, 4679, Note_on_c, 12, 54, 0
15, 4679, Note_on_c, 12, 57, 0
15, 4680, Note_on_c, 12, 55, 48
15, 4680, Note_on_c, 12, 59, 48
15, 4799, Note_on_c, 12, 55, 0
15, 4799, Note_on_c, 12, 59, 0
15, 4800, Note_on_c, 12, 57, 48
15, 4800, Note_on_c, 12, 54, 48
15, 4919, Note_on_c, 12, 57, 0
15, 4919, Note_on_c, 12, 54, 0
15, 4920, Note_on_c, 12, 57, 48
15, 4920, Note_on_c, 12, 69, 48
15, 5039, Note_on_c, 12, 57, 0
15, 5039, Note_on_c, 12, 69, 0
15, 5040, Note_on_c, 12, 59, 48
15, 5040, Note_on_c, 12, 71, 48
15, 5159, Note_on_c, 12, 59, 0
15, 5159, Note_on_c, 12, 71, 0
15, 5160, Note_on_c, 12, 57, 48
15, 5160, Note_on_c, 12, 69, 48
15, 5279, Note_on_c, 12, 57, 0
15, 5279, Note_on_c, 12, 69, 0
15, 5280, Note_on_c, 12, 66, 48
15, 5280, Note_on_c, 12, 54, 48
15, 5399, Note_on_c, 12, 66, 0
15, 5399, Note_on_c, 12, 54, 0
15, 5400, Note_on_c, 12, 57, 48
15, 5400, Note_on_c, 12, 69, 48
15, 5519, Note_on_c, 12, 57, 0
15, 5519, Note_on_c, 12, 69, 0
15, 5520, Note_on_c, 12, 50, 48
15, 5520, Note_on_c, 12, 62, 48
15, 5639, Note_on_c, 12, 50, 0
15, 5639, Note_on_c, 12, 62, 0
15, 5760, Note_on_c, 12, 60, 44
15, 5849, Note_on_c, 12, 60, 0
15, 5880, Note_on_c, 12, 65, 44
15, 5969, Note_on_c, 12, 65, 0
15, 6000, Note_on_c, 12, 60, 44
15, 6089, Note_on_c, 12, 60, 0
15, 6120, Note_on_c, 12, 62, 44
15, 6209, Note_on_c, 12, 62, 0
15, 6240, Note_on_c, 12, 60, 44
15, 6329, Note_on_c, 12, 60, 0
15, 6360, Note_on_c, 12, 57, 44
15, 6449, Note_on_c, 12, 57, 0
15, 6480, Note_on_c, 12, 58, 44
15, 6569, Note_on_c, 12, 58, 0
15, 6600, Note_on_c, 12, 57, 44
15, 6689, Note_on_c, 12, 57, 0
15, 6720, Note_on_c, 12, 53, 44
15, 6809, Note_on_c, 12, 53, 0
15, 6840, Note_on_c, 12, 55, 44
15, 6929, Note_on_c, 12, 55, 0
15, 6960, Note_on_c, 12, 57, 44
15, 7049, Note_on_c, 12, 57, 0
15, 7080, Note_on_c, 12, 53, 44
15, 7169, Note_on_c, 12, 53, 0
15, 7200, Note_on_c, 12, 55, 44
15, 7289, Note_on_c, 12, 55, 0
15, 7320, Note_on_c, 12, 57, 44
15, 7409, Note_on_c, 12, 57, 0
15, 7440, Note_on_c, 12, 65, 44
15, 7529, Note_on_c, 12, 65, 0
15, 7560, Note_on_c, 12, 67, 44
15, 7649, Note_on_c, 12, 67, 0
15, 7680, Note_on_c, 12, 65, 44
15, 7769, Note_on_c, 12, 65, 0
15, 7800, Note_on_c, 12, 62, 44
15, 7889, Note_on_c, 12, 62, 0
15, 7920, Note_on_c, 12, 64, 44
15, 8009, Note_on_c, 12, 64, 0
15, 8040, Note_on_c, 12, 62, 44
15, 8129, Note_on_c, 12, 62, 0
15, 8160, Note_on_c, 12, 57, 44
15, 8249, Note_on_c, 12, 57, 0
15, 8280, Note_on_c, 12, 57, 44
15, 8369, Note_on_c, 12, 57, 0
15, 8400, Note_on_c, 12, 57, 44
15, 8519, Note_on_c, 12, 57, 0
15, 8640, Note_on_c, 12, 57, 48
15, 8759, Note_on_c, 12, 57, 0
15, 8760, Note_on_c, 12, 50, 48
15, 8999, Note_on_c, 12, 50, 0
15, 9000, Note_on_c, 12, 54, 48
15, 9119, Note_on_c, 12, 54, 0
15, 9120, Note_on_c, 12, 57, 48
15, 9239, Note_on_c, 12, 57, 0
15, 9240, Note_on_c, 12, 54, 48
15, 9344, Note_on_c, 12, 54, 0
15, 9360, Note_on_c, 12, 54, 48
15, 9479, Note_on_c, 12, 54, 0
15, 9480, Note_on_c, 12, 57, 48
15, 9599, Note_on_c, 12, 57, 0
15, 9600, Note_on_c, 12, 61, 48
15, 9719, Note_on_c, 12, 61, 0
15, 9720, Note_on_c, 12, 62, 48
15, 9779, Note_on_c, 12, 62, 0
15, 9780, Note_on_c, 12, 59, 48
15, 9839, Note_on_c, 12, 59, 0
15, 9840, Note_on_c, 12, 57, 48
15, 10064, Note_on_c, 12, 57, 0
15, 10080, Note_on_c, 12, 52, 48
15, 10080, Note_on_c, 12, 61, 48
15, 10199, Note_on_c, 12, 52, 0
15, 10199, Note_on_c, 12, 61, 0
15, 10200, Note_on_c, 12, 54, 48
15, 10200, Note_on_c, 12, 62, 48
15, 10319, Note_on_c, 12, 62, 0
15, 10320, Note_on_c, 12, 57, 48
15, 10439, Note_on_c, 12, 54, 0
15, 10439, Note_on_c, 12, 57, 0
15, 10440, Note_on_c, 12, 55, 48
15, 10440, Note_on_c, 12, 59, 48
15, 10559, Note_on_c, 12, 55, 0
15, 10559, Note_on_c, 12, 59, 0
15, 10560, Note_on_c, 12, 54, 48
15, 10560, Note_on_c, 12, 57, 48
15, 10679, Note_on_c, 12, 54, 0
15, 10679, Note_on_c, 12, 57, 0
15, 10680, Note_on_c, 12, 57, 48
15, 10680, Note_on_c, 12, 69, 48
15, 10799, Note_on_c, 12, 57, 0
15, 10799, Note_on_c, 12, 69, 0
15, 10800, Note_on_c, 12, 71, 48
15, 10800, Note_on_c, 12, 59, 48
15, 10919, Note_on_c, 12, 71, 0
15, 10919, Note_on_c, 12, 59, 0
15, 10920, Note_on_c, 12, 69, 48
15, 10920, Note_on_c, 12, 57, 48
15, 11039, Note_on_c, 12, 69, 0
15, 11039, Note_on_c, 12, 57, 0
15, 11040, Note_on_c, 12, 66, 48
15, 11040, Note_on_c, 12, 54, 48
15, 11159, Note_on_c, 12, 66, 0
15, 11159, Note_on_c, 12, 54, 0
15, 11160, Note_on_c, 12, 57, 48
15, 11160, Note_on_c, 12, 69, 48
15, 11279, Note_on_c, 12, 57, 0
15, 11279, Note_on_c, 12, 69, 0
15, 11280, Note_on_c, 12, 54, 48
15, 11280, Note_on_c, 12, 66, 48
15, 11399, Note_on_c, 12, 54, 0
15, 11399, Note_on_c, 12, 66, 0
15, 12960, Note_on_c, 12, 62, 44
15, 13049, Note_on_c, 12, 62, 0
15, 13080, Note_on_c, 12, 67, 44
15, 13169, Note_on_c, 12, 67, 0
15, 13200, Note_on_c, 12, 62, 44
15, 13289, Note_on_c, 12, 62, 0
15, 13320, Note_on_c, 12, 64, 44
15, 13409, Note_on_c, 12, 64, 0
15, 13440, Note_on_c, 12, 62, 44
15, 13529, Note_on_c, 12, 62, 0
15, 13560, Note_on_c, 12, 59, 44
15, 13649, Note_on_c, 12, 59, 0
15, 13680, Note_on_c, 12, 60, 44
15, 13769, Note_on_c, 12, 60, 0
15, 13800, Note_on_c, 12, 59, 44
15, 13889, Note_on_c, 12, 59, 0
15, 13920, Note_on_c, 12, 55, 44
15, 14009, Note_on_c, 12, 55, 0
15, 14040, Note_on_c, 12, 57, 44
15, 14129, Note_on_c, 12, 57, 0
15, 14160, Note_on_c, 12, 59, 44
15, 14249, Note_on_c, 12, 59, 0
15, 14280, Note_on_c, 12, 55, 48
15, 14384, Note_on_c, 12, 55, 0
15, 14400, Note_on_c, 12, 55, 48
15, 14519, Note_on_c, 12, 55, 0
15, 14520, Note_on_c, 12, 48, 48
15, 14759, Note_on_c, 12, 48, 0
15, 14760, Note_on_c, 12, 52, 48
15, 14879, Note_on_c, 12, 52, 0
15, 14880, Note_on_c, 12, 55, 48
15, 14999, Note_on_c, 12, 55, 0
15, 15000, Note_on_c, 12, 52, 48
15, 15104, Note_on_c, 12, 52, 0
15, 15120, Note_on_c, 12, 52, 48
15, 15239, Note_on_c, 12, 52, 0
15, 15240, Note_on_c, 12, 55, 48
15, 15359, Note_on_c, 12, 55, 0
15, 15360, Note_on_c, 12, 59, 48
15, 15479, Note_on_c, 12, 59, 0
15, 15480, Note_on_c, 12, 60, 48
15, 15539, Note_on_c, 12, 60, 0
15, 15540, Note_on_c, 12, 57, 48
15, 15599, Note_on_c, 12, 57, 0
15, 15600, Note_on_c, 12, 55, 48
15, 15824, Note_on_c, 12, 55, 0
15, 15840, Note_on_c, 12, 62, 48
15, 15959, Note_on_c, 12, 62, 0
15, 15960, Note_on_c, 12, 64, 48
15, 16199, Note_on_c, 12, 64, 0
15, 16200, Note_on_c, 12, 65, 48
15, 16319, Note_on_c, 12, 65, 0
15, 16320, Note_on_c, 12, 64, 48
15, 16439, Note_on_c, 12, 64, 0
15, 16440, Note_on_c, 12, 60, 48
15, 16544, Note_on_c, 12, 60, 0
15, 16560, Note_on_c, 12, 60, 48
15, 16679, Note_on_c, 12, 60, 0
15, 16680, Note_on_c, 12, 60, 48
15, 16799, Note_on_c, 12, 60, 0
15, 16800, Note_on_c, 12, 52, 48
15, 16919, Note_on_c, 12, 52, 0
15, 16920, Note_on_c, 12, 53, 48
15, 17039, Note_on_c, 12, 53, 0
15, 17040, Note_on_c, 12, 52, 48
15, 17159, Note_on_c, 12, 52, 0
15, 17278, Control_c, 12, 11, 64
15, 17280, Note_on_c, 12, 48, 84
15, 17340, Control_c, 12, 11, 67
15, 17399, Note_on_c, 12, 48, 0
15, 17400, Control_c, 12, 11, 69
15, 17400, Note_on_c, 12, 60, 84
15, 17460, Control_c, 12, 11, 72
15, 17519, Note_on_c, 12, 60, 0
15, 17520, Control_c, 12, 11, 75
15, 17520, Note_on_c, 12, 57, 84
15, 17580, Control_c, 12, 11, 77
15, 17639, Note_on_c, 12, 57, 0
15, 17640, Control_c, 12, 11, 80
15, 17640, Note_on_c, 12, 58, 84
15, 17700, Control_c, 12, 11, 82
15, 17759, Note_on_c, 12, 58, 0
15, 17760, Control_c, 12, 11, 85
15, 17760, Note_on_c, 12, 57, 84
15, 17820, Control_c, 12, 11, 88
15, 17879, Note_on_c, 12, 57, 0
15, 17880, Note_on_c, 12, 53, 84
15, 17880, Control_c, 12, 11, 90
15, 17940, Control_c, 12, 11, 93
15, 17999, Note_on_c, 12, 53, 0
15, 18000, Control_c, 12, 11, 96
15, 18000, Note_on_c, 12, 55, 84
15, 18060, Control_c, 12, 11, 98
15, 18119, Note_on_c, 12, 55, 0
15, 18120, Control_c, 12, 11, 101
15, 18120, Note_on_c, 12, 53, 84
15, 18180, Control_c, 12, 11, 103
15, 18239, Note_on_c, 12, 53, 0
15, 18240, Note_on_c, 12, 48, 84
15, 18240, Control_c, 12, 11, 106
15, 18300, Control_c, 12, 11, 109
15, 18359, Note_on_c, 12, 48, 0
15, 18360, Note_on_c, 12, 55, 84
15, 18360, Control_c, 12, 11, 111
15, 18420, Control_c, 12, 11, 114
15, 18479, Note_on_c, 12, 55, 0
15, 18480, Note_on_c, 12, 57, 84
15, 18480, Control_c, 12, 11, 117
15, 18540, Control_c, 12, 11, 119
15, 18599, Note_on_c, 12, 57, 0
15, 18600, Control_c, 12, 11, 122
15, 18600, Note_on_c, 12, 53, 84
15, 18660, Control_c, 12, 11, 127
15, 18704, Note_on_c, 12, 53, 0
15, 18720, Note_on_c, 12, 60, 84
15, 18809, Note_on_c, 12, 60, 0
15, 18840, Note_on_c, 12, 65, 84
15, 18929, Note_on_c, 12, 65, 0
15, 18960, Note_on_c, 12, 60, 84
15, 19049, Note_on_c, 12, 60, 0
15, 19080, Note_on_c, 12, 62, 84
15, 19169, Note_on_c, 12, 62, 0
15, 19200, Note_on_c, 12, 60, 84
15, 19289, Note_on_c, 12, 60, 0
15, 19320, Note_on_c, 12, 57, 84
15, 19409, Note_on_c, 12, 57, 0
15, 19440, Note_on_c, 12, 58, 84
15, 19529, Note_on_c, 12, 58, 0
15, 19560, Note_on_c, 12, 57, 92
15, 19649, Note_on_c, 12, 57, 0
15, 19680, Note_on_c, 12, 53, 84
15, 19769, Note_on_c, 12, 53, 0
15, 19800, Note_on_c, 12, 55, 84
15, 19889, Note_on_c, 12, 55, 0
15, 19920, Note_on_c, 12, 57, 92
15, 20009, Note_on_c, 12, 57, 0
15, 20040, Note_on_c, 12, 53, 84
15, 20129, Note_on_c, 12, 53, 0
15, 20160, Note_on_c, 12, 55, 84
15, 20249, Note_on_c, 12, 55, 0
15, 20280, Note_on_c, 12, 57, 92
15, 20369, Note_on_c, 12, 57, 0
15, 20400, Note_on_c, 12, 53, 84
15, 20489, Note_on_c, 12, 53, 0
15, 20520, Note_on_c, 12, 55, 84
15, 20609, Note_on_c, 12, 55, 0
15, 20640, Note_on_c, 12, 57, 92
15, 20729, Note_on_c, 12, 57, 0
15, 20760, Note_on_c, 12, 53, 84
15, 20849, Note_on_c, 12, 53, 0
15, 20880, Note_on_c, 12, 55, 84
15, 20969, Note_on_c, 12, 55, 0
15, 21000, Note_on_c, 12, 57, 92
15, 21060, Control_c, 12, 11, 112
15, 21344, Note_on_c, 12, 57, 0
15, 21360, Note_on_c, 12, 55, 92
15, 21584, Note_on_c, 12, 55, 0
15, 21600, Note_on_c, 12, 53, 92
15, 21704, Note_on_c, 12, 53, 0
15, 21720, Note_on_c, 12, 52, 92
15, 21944, Note_on_c, 12, 52, 0
15, 21960, Note_on_c, 12, 50, 92
15, 22064, Note_on_c, 12, 50, 0
15, 22080, Note_on_c, 12, 48, 92
15, 22304, Note_on_c, 12, 48, 0
15, 22320, Note_on_c, 12, 55, 92
15, 22424, Note_on_c, 12, 55, 0
15, 22438, Control_c, 12, 11, 127
15, 22440, Note_on_c, 12, 60, 92
15, 22500, Control_c, 12, 11, 112
15, 22784, Note_on_c, 12, 60, 0
15, 22798, Control_c, 12, 11, 127
15, 22800, Note_on_c, 12, 62, 92
15, 22860, Control_c, 12, 11, 112
15, 23144, Note_on_c, 12, 62, 0
15, 23158, Control_c, 12, 11, 127
15, 23160, Note_on_c, 12, 60, 92
15, 23220, Control_c, 12, 11, 112
15, 23504, Note_on_c, 12, 60, 0
15, 23518, Control_c, 12, 11, 127
15, 23520, Note_on_c, 12, 48, 92
15, 23580, Control_c, 12, 11, 112
15, 23864, Note_on_c, 12, 48, 0
15, 23880, Note_on_c, 12, 53, 92
15, 23999, Note_on_c, 12, 53, 0
15, 24120, Note_on_c, 12, 69, 92
15, 24224, Note_on_c, 12, 69, 0
15, 24240, Note_on_c, 12, 67, 92
15, 24464, Note_on_c, 12, 67, 0
15, 24480, Note_on_c, 12, 65, 92
15, 24584, Note_on_c, 12, 65, 0
15, 24600, Note_on_c, 12, 64, 92
15, 24824, Note_on_c, 12, 64, 0
15, 24840, Note_on_c, 12, 62, 92
15, 24944, Note_on_c, 12, 62, 0
15, 24960, Note_on_c, 12, 60, 92
15, 25184, Note_on_c, 12, 60, 0
15, 25200, Note_on_c, 12, 67, 92
15, 25304, Note_on_c, 12, 67, 0
15, 25318, Control_c, 12, 11, 127
15, 25320, Note_on_c, 12, 60, 92
15, 25380, Control_c, 12, 11, 112
15, 25664, Note_on_c, 12, 60, 0
15, 25678, Control_c, 12, 11, 127
15, 25680, Note_on_c, 12, 62, 92
15, 25740, Control_c, 12, 11, 112
15, 26024, Note_on_c, 12, 62, 0
15, 26038, Control_c, 12, 11, 127
15, 26040, Note_on_c, 12, 69, 92
15, 26100, Control_c, 12, 11, 112
15, 26384, Note_on_c, 12, 69, 0
15, 26398, Control_c, 12, 11, 127
15, 26400, Note_on_c, 12, 60, 92
15, 26400, Note_on_c, 12, 48, 92
15, 26460, Control_c, 12, 11, 112
15, 26744, Note_on_c, 12, 60, 0
15, 26744, Note_on_c, 12, 48, 0
15, 26758, Control_c, 12, 11, 127
15, 26760, Note_on_c, 12, 53, 92
15, 26811, Note_on_c, 12, 53, 0
15, 26820, Note_on_c, 12, 57, 84
15, 26871, Note_on_c, 12, 57, 0
15, 26880, Note_on_c, 12, 60, 84
15, 26931, Note_on_c, 12, 60, 0
15, 26940, Note_on_c, 12, 65, 84
15, 26991, Note_on_c, 12, 65, 0
15, 27000, Note_on_c, 12, 69, 84
15, 27119, Note_on_c, 12, 69, 0
15, 27840, Note_on_c, 12, 60, 84
15, 27944, Note_on_c, 12, 60, 0
15, 27960, Note_on_c, 12, 60, 84
15, 28064, Note_on_c, 12, 60, 0
15, 28080, Note_on_c, 12, 60, 84
15, 28184, Note_on_c, 12, 60, 0
15, 28200, Note_on_c, 12, 53, 92
15, 28251, Note_on_c, 12, 53, 0
15, 28260, Note_on_c, 12, 57, 84
15, 28311, Note_on_c, 12, 57, 0
15, 28320, Note_on_c, 12, 60, 84
15, 28371, Note_on_c, 12, 60, 0
15, 28380, Note_on_c, 12, 65, 84
15, 28431, Note_on_c, 12, 65, 0
15, 28440, Note_on_c, 12, 69, 84
15, 28559, Note_on_c, 12, 69, 0
15, 29280, Note_on_c, 12, 60, 84
15, 29384, Note_on_c, 12, 60, 0
15, 29400, Note_on_c, 12, 60, 84
15, 29504, Note_on_c, 12, 60, 0
15, 29520, Note_on_c, 12, 60, 84
15, 29624, Note_on_c, 12, 60, 0
15, 29640, Note_on_c, 12, 53, 92
15, 29759, Note_on_c, 12, 53, 0
15, 30360, Note_on_c, 12, 53, 92
15, 30479, Note_on_c, 12, 53, 0
15, 45480, Note_on_c, 12, 60, 52
15, 45824, Note_on_c, 12, 60, 0
15, 45840, Note_on_c, 12, 55, 52
15, 46184, Note_on_c, 12, 55, 0
15, 46200, Note_on_c, 12, 48, 52
15, 46559, Note_on_c, 12, 48, 0
15, 47250, Control_c, 12, 11, 110
15, 47280, Note_on_c, 12, 60, 68
15, 47280, Note_on_c, 12, 55, 68
15, 47280, Control_c, 12, 11, 112
15, 47310, Control_c, 12, 11, 113
15, 47340, Control_c, 12, 11, 114
15, 47370, Control_c, 12, 11, 115
15, 47384, Note_on_c, 12, 60, 0
15, 47384, Note_on_c, 12, 55, 0
15, 47400, Note_on_c, 12, 55, 68
15, 47400, Note_on_c, 12, 52, 68
15, 47400, Control_c, 12, 11, 117
15, 47430, Control_c, 12, 11, 118
15, 47460, Control_c, 12, 11, 119
15, 47490, Control_c, 12, 11, 121
15, 47504, Note_on_c, 12, 55, 0
15, 47504, Note_on_c, 12, 52, 0
15, 47520, Control_c, 12, 11, 122
15, 47520, Note_on_c, 12, 52, 68
15, 47520, Note_on_c, 12, 55, 68
15, 47550, Control_c, 12, 11, 123
15, 47580, Control_c, 12, 11, 124
15, 47610, Control_c, 12, 11, 127
15, 47624, Note_on_c, 12, 52, 0
15, 47624, Note_on_c, 12, 55, 0
15, 47640, Note_on_c, 12, 57, 52
15, 47640, Note_on_c, 12, 60, 52
15, 47744, Note_on_c, 12, 57, 0
15, 47744, Note_on_c, 12, 60, 0
15, 47760, Note_on_c, 12, 53, 52
15, 47760, Note_on_c, 12, 57, 52
15, 47864, Note_on_c, 12, 53, 0
15, 47864, Note_on_c, 12, 57, 0
15, 47880, Note_on_c, 12, 53, 52
15, 47880, Note_on_c, 12, 57, 52
15, 47984, Note_on_c, 12, 53, 0
15, 47984, Note_on_c, 12, 57, 0
15, 48000, Note_on_c, 12, 60, 52
15, 48000, Note_on_c, 12, 57, 52
15, 48104, Note_on_c, 12, 60, 0
15, 48104, Note_on_c, 12, 57, 0
15, 48120, Note_on_c, 12, 53, 52
15, 48120, Note_on_c, 12, 57, 52
15, 48224, Note_on_c, 12, 53, 0
15, 48224, Note_on_c, 12, 57, 0
15, 48240, Note_on_c, 12, 57, 52
15, 48240, Note_on_c, 12, 53, 52
15, 48344, Note_on_c, 12, 57, 0
15, 48344, Note_on_c, 12, 53, 0
15, 48360, Note_on_c, 12, 58, 52
15, 48360, Note_on_c, 12, 60, 52
15, 48464, Note_on_c, 12, 58, 0
15, 48464, Note_on_c, 12, 60, 0
15, 48480, Note_on_c, 12, 53, 52
15, 48480, Note_on_c, 12, 58, 52
15, 48584, Note_on_c, 12, 53, 0
15, 48584, Note_on_c, 12, 58, 0
15, 48600, Note_on_c, 12, 58, 52
15, 48600, Note_on_c, 12, 53, 52
15, 48704, Note_on_c, 12, 58, 0
15, 48704, Note_on_c, 12, 53, 0
15, 48720, Note_on_c, 12, 60, 52
15, 48720, Note_on_c, 12, 58, 52
15, 48824, Note_on_c, 12, 60, 0
15, 48824, Note_on_c, 12, 58, 0
15, 48840, Note_on_c, 12, 58, 52
15, 48840, Note_on_c, 12, 53, 52
15, 48944, Note_on_c, 12, 58, 0
15, 48944, Note_on_c, 12, 53, 0
15, 48960, Note_on_c, 12, 58, 52
15, 48960, Note_on_c, 12, 53, 52
15, 49064, Note_on_c, 12, 58, 0
15, 49064, Note_on_c, 12, 53, 0
15, 49080, Note_on_c, 12, 57, 52
15, 49080, Note_on_c, 12, 60, 52
15, 49184, Note_on_c, 12, 57, 0
15, 49184, Note_on_c, 12, 60, 0
15, 49200, Note_on_c, 12, 57, 52
15, 49200, Note_on_c, 12, 53, 52
15, 49304, Note_on_c, 12, 57, 0
15, 49304, Note_on_c, 12, 53, 0
15, 49320, Note_on_c, 12, 53, 52
15, 49320, Note_on_c, 12, 57, 52
15, 49424, Note_on_c, 12, 53, 0
15, 49424, Note_on_c, 12, 57, 0
15, 49440, Note_on_c, 12, 60, 52
15, 49440, Note_on_c, 12, 55, 52
15, 49544, Note_on_c, 12, 60, 0
15, 49544, Note_on_c, 12, 55, 0
15, 49560, Note_on_c, 12, 52, 52
15, 49560, Note_on_c, 12, 55, 52
15, 49664, Note_on_c, 12, 52, 0
15, 49664, Note_on_c, 12, 55, 0
15, 49680, Note_on_c, 12, 55, 52
15, 49680, Note_on_c, 12, 52, 52
15, 49784, Note_on_c, 12, 55, 0
15, 49784, Note_on_c, 12, 52, 0
15, 49800, Note_on_c, 12, 60, 52
15, 49800, Note_on_c, 12, 57, 52
15, 49904, Note_on_c, 12, 60, 0
15, 49904, Note_on_c, 12, 57, 0
15, 49920, Note_on_c, 12, 53, 52
15, 49920, Note_on_c, 12, 57, 52
15, 50024, Note_on_c, 12, 53, 0
15, 50024, Note_on_c, 12, 57, 0
15, 50040, Note_on_c, 12, 57, 52
15, 50040, Note_on_c, 12, 53, 52
15, 50144, Note_on_c, 12, 57, 0
15, 50144, Note_on_c, 12, 53, 0
15, 50160, Note_on_c, 12, 60, 52
15, 50160, Note_on_c, 12, 57, 52
15, 50264, Note_on_c, 12, 60, 0
15, 50264, Note_on_c, 12, 57, 0
15, 50280, Note_on_c, 12, 57, 52
15, 50280, Note_on_c, 12, 53, 52
15, 50384, Note_on_c, 12, 57, 0
15, 50384, Note_on_c, 12, 53, 0
15, 50400, Note_on_c, 12, 53, 52
15, 50400, Note_on_c, 12, 57, 52
15, 50504, Note_on_c, 12, 53, 0
15, 50504, Note_on_c, 12, 57, 0
15, 50518, Control_c, 12, 11, 96
15, 50520, Note_on_c, 12, 57, 68
15, 50520, Control_c, 12, 11, 96
15, 50520, Note_on_c, 12, 60, 68
15, 50580, Control_c, 12, 11, 97
15, 50624, Note_on_c, 12, 57, 0
15, 50624, Note_on_c, 12, 60, 0
15, 50640, Note_on_c, 12, 57, 68
15, 50640, Note_on_c, 12, 53, 68
15, 50640, Control_c, 12, 11, 99
15, 50700, Control_c, 12, 11, 100
15, 50744, Note_on_c, 12, 57, 0
15, 50744, Note_on_c, 12, 53, 0
15, 50760, Control_c, 12, 11, 101
15, 50760, Note_on_c, 12, 57, 68
15, 50760, Note_on_c, 12, 53, 68
15, 50820, Control_c, 12, 11, 102
15, 50864, Note_on_c, 12, 57, 0
15, 50864, Note_on_c, 12, 53, 0
15, 50880, Control_c, 12, 11, 104
15, 50880, Note_on_c, 12, 57, 68
15, 50880, Note_on_c, 12, 60, 68
15, 50940, Control_c, 12, 11, 105
15, 50984, Note_on_c, 12, 57, 0
15, 50984, Note_on_c, 12, 60, 0
15, 51000, Note_on_c, 12, 53, 68
15, 51000, Control_c, 12, 11, 106
15, 51000, Note_on_c, 12, 57, 68
15, 51060, Control_c, 12, 11, 108
15, 51104, Note_on_c, 12, 53, 0
15, 51104, Note_on_c, 12, 57, 0
15, 51120, Control_c, 12, 11, 109
15, 51120, Note_on_c, 12, 57, 68
15, 51120, Note_on_c, 12, 53, 68
15, 51180, Control_c, 12, 11, 110
15, 51224, Note_on_c, 12, 57, 0
15, 51224, Note_on_c, 12, 53, 0
15, 51240, Note_on_c, 12, 60, 68
15, 51240, Note_on_c, 12, 58, 68
15, 51240, Control_c, 12, 11, 112
15, 51300, Control_c, 12, 11, 113
15, 51344, Note_on_c, 12, 60, 0
15, 51344, Note_on_c, 12, 58, 0
15, 51360, Note_on_c, 12, 52, 68
15, 51360, Note_on_c, 12, 48, 68
15, 51360, Control_c, 12, 11, 114
15, 51420, Control_c, 12, 11, 115
15, 51464, Note_on_c, 12, 52, 0
15, 51464, Note_on_c, 12, 48, 0
15, 51480, Note_on_c, 12, 52, 68
15, 51480, Note_on_c, 12, 48, 68
15, 51480, Control_c, 12, 11, 117
15, 51540, Control_c, 12, 11, 118
15, 51584, Note_on_c, 12, 52, 0
15, 51584, Note_on_c, 12, 48, 0
15, 51600, Control_c, 12, 11, 119
15, 51600, Note_on_c, 12, 60, 68
15, 51600, Note_on_c, 12, 58, 68
15, 51660, Control_c, 12, 11, 121
15, 51704, Note_on_c, 12, 60, 0
15, 51704, Note_on_c, 12, 58, 0
15, 51720, Note_on_c, 12, 52, 68
15, 51720, Note_on_c, 12, 55, 68
15, 51720, Control_c, 12, 11, 122
15, 51780, Control_c, 12, 11, 123
15, 51824, Note_on_c, 12, 52, 0
15, 51824, Note_on_c, 12, 55, 0
15, 51840, Note_on_c, 12, 55, 68
15, 51840, Control_c, 12, 11, 124
15, 51840, Note_on_c, 12, 52, 68
15, 51900, Control_c, 12, 11, 127
15, 51944, Note_on_c, 12, 55, 0
15, 51944, Note_on_c, 12, 52, 0
15, 51960, Note_on_c, 12, 53, 52
15, 51960, Note_on_c, 12, 57, 52
15, 52064, Note_on_c, 12, 53, 0
15, 52064, Note_on_c, 12, 57, 0
15, 52080, Note_on_c, 12, 48, 52
15, 52080, Note_on_c, 12, 52, 52
15, 52184, Note_on_c, 12, 48, 0
15, 52184, Note_on_c, 12, 52, 0
15, 52200, Note_on_c, 12, 48, 52
15, 52200, Note_on_c, 12, 52, 52
15, 52304, Note_on_c, 12, 48, 0
15, 52304, Note_on_c, 12, 52, 0
15, 52320, Note_on_c, 12, 57, 52
15, 52320, Note_on_c, 12, 53, 52
15, 52424, Note_on_c, 12, 57, 0
15, 52424, Note_on_c, 12, 53, 0
15, 52440, Note_on_c, 12, 48, 52
15, 52440, Note_on_c, 12, 53, 52
15, 52544, Note_on_c, 12, 48, 0
15, 52544, Note_on_c, 12, 53, 0
15, 52560, Note_on_c, 12, 53, 52
15, 52560, Note_on_c, 12, 48, 52
15, 52664, Note_on_c, 12, 53, 0
15, 52664, Note_on_c, 12, 48, 0
15, 52680, Note_on_c, 12, 55, 52
15, 52680, Note_on_c, 12, 52, 52
15, 52784, Note_on_c, 12, 55, 0
15, 52784, Note_on_c, 12, 52, 0
15, 52800, Note_on_c, 12, 52, 52
15, 52800, Note_on_c, 12, 48, 52
15, 52904, Note_on_c, 12, 52, 0
15, 52904, Note_on_c, 12, 48, 0
15, 52920, Note_on_c, 12, 48, 52
15, 52920, Note_on_c, 12, 52, 52
15, 53024, Note_on_c, 12, 48, 0
15, 53024, Note_on_c, 12, 52, 0
15, 53040, Note_on_c, 12, 52, 52
15, 53040, Note_on_c, 12, 55, 52
15, 53144, Note_on_c, 12, 52, 0
15, 53144, Note_on_c, 12, 55, 0
15, 53160, Note_on_c, 12, 52, 52
15, 53160, Note_on_c, 12, 48, 52
15, 53264, Note_on_c, 12, 52, 0
15, 53264, Note_on_c, 12, 48, 0
15, 53280, Note_on_c, 12, 52, 52
15, 53280, Note_on_c, 12, 48, 52
15, 53384, Note_on_c, 12, 52, 0
15, 53384, Note_on_c, 12, 48, 0
15, 53400, Note_on_c, 12, 57, 52
15, 53400, Note_on_c, 12, 53, 52
15, 53504, Note_on_c, 12, 57, 0
15, 53504, Note_on_c, 12, 53, 0
15, 53520, Note_on_c, 12, 48, 52
15, 53520, Note_on_c, 12, 53, 52
15, 53624, Note_on_c, 12, 48, 0
15, 53624, Note_on_c, 12, 53, 0
15, 53640, Note_on_c, 12, 53, 52
15, 53640, Note_on_c, 12, 48, 52
15, 53744, Note_on_c, 12, 53, 0
15, 53744, Note_on_c, 12, 48, 0
15, 53760, Note_on_c, 12, 57, 52
15, 53760, Note_on_c, 12, 53, 52
15, 53864, Note_on_c, 12, 57, 0
15, 53864, Note_on_c, 12, 53, 0
15, 53880, Note_on_c, 12, 53, 52
15, 53880, Note_on_c, 12, 48, 52
15, 53984, Note_on_c, 12, 53, 0
15, 53984, Note_on_c, 12, 48, 0
15, 54000, Note_on_c, 12, 48, 52
15, 54000, Note_on_c, 12, 53, 52
15, 54104, Note_on_c, 12, 48, 0
15, 54104, Note_on_c, 12, 53, 0
15, 54120, Note_on_c, 12, 55, 52
15, 54120, Note_on_c, 12, 52, 52
15, 54224, Note_on_c, 12, 55, 0
15, 54224, Note_on_c, 12, 52, 0
15, 54240, Note_on_c, 12, 52, 52
15, 54240, Note_on_c, 12, 48, 52
15, 54344, Note_on_c, 12, 52, 0
15, 54344, Note_on_c, 12, 48, 0
15, 54360, Note_on_c, 12, 52, 52
15, 54360, Note_on_c, 12, 48, 52
15, 54464, Note_on_c, 12, 52, 0
15, 54464, Note_on_c, 12, 48, 0
15, 54480, Note_on_c, 12, 55, 52
15, 54480, Note_on_c, 12, 52, 52
15, 54584, Note_on_c, 12, 55, 0
15, 54584, Note_on_c, 12, 52, 0
15, 54600, Note_on_c, 12, 48, 52
15, 54600, Note_on_c, 12, 52, 52
15, 54704, Note_on_c, 12, 48, 0
15, 54704, Note_on_c, 12, 52, 0
15, 54720, Note_on_c, 12, 48, 52
15, 54720, Note_on_c, 12, 52, 52
15, 54824, Note_on_c, 12, 48, 0
15, 54824, Note_on_c, 12, 52, 0
15, 54840, Note_on_c, 12, 65, 52
15, 55079, Note_on_c, 12, 65, 0
15, 55080, Note_on_c, 12, 70, 52
15, 55199, Note_on_c, 12, 70, 0
15, 55200, Note_on_c, 12, 72, 52
15, 55319, Note_on_c, 12, 72, 0
15, 55320, Note_on_c, 12, 69, 52
15, 55439, Note_on_c, 12, 69, 0
15, 55440, Note_on_c, 12, 70, 52
15, 55544, Note_on_c, 12, 70, 0
15, 55560, Note_on_c, 12, 67, 52
15, 55799, Note_on_c, 12, 67, 0
15, 55800, Note_on_c, 12, 69, 52
15, 55919, Note_on_c, 12, 69, 0
15, 55920, Note_on_c, 12, 70, 52
15, 56039, Note_on_c, 12, 70, 0
15, 56040, Note_on_c, 12, 67, 52
15, 56159, Note_on_c, 12, 67, 0
15, 56160, Note_on_c, 12, 69, 52
15, 56264, Note_on_c, 12, 69, 0
15, 56278, Control_c, 12, 11, 80
15, 56280, Note_on_c, 12, 65, 76
15, 56340, Control_c, 12, 11, 82
15, 56400, Control_c, 12, 11, 84
15, 56460, Control_c, 12, 11, 86
15, 56519, Note_on_c, 12, 65, 0
15, 56520, Control_c, 12, 11, 88
15, 56520, Note_on_c, 12, 58, 76
15, 56580, Control_c, 12, 11, 90
15, 56639, Note_on_c, 12, 58, 0
15, 56640, Note_on_c, 12, 60, 76
15, 56640, Control_c, 12, 11, 92
15, 56700, Control_c, 12, 11, 94
15, 56759, Note_on_c, 12, 60, 0
15, 56760, Note_on_c, 12, 57, 76
15, 56760, Control_c, 12, 11, 96
15, 56820, Control_c, 12, 11, 98
15, 56879, Note_on_c, 12, 57, 0
15, 56880, Note_on_c, 12, 58, 76
15, 56880, Control_c, 12, 11, 100
15, 56940, Control_c, 12, 11, 102
15, 56984, Note_on_c, 12, 58, 0
15, 57000, Control_c, 12, 11, 104
15, 57000, Note_on_c, 12, 55, 76
15, 57060, Control_c, 12, 11, 105
15, 57120, Control_c, 12, 11, 107
15, 57180, Control_c, 12, 11, 109
15, 57239, Note_on_c, 12, 55, 0
15, 57240, Note_on_c, 12, 57, 76
15, 57240, Control_c, 12, 11, 111
15, 57300, Control_c, 12, 11, 113
15, 57359, Note_on_c, 12, 57, 0
15, 57360, Control_c, 12, 11, 115
15, 57360, Note_on_c, 12, 58, 76
15, 57420, Control_c, 12, 11, 117
15, 57479, Note_on_c, 12, 58, 0
15, 57480, Control_c, 12, 11, 119
15, 57480, Note_on_c, 12, 55, 76
15, 57540, Control_c, 12, 11, 121
15, 57599, Note_on_c, 12, 55, 0
15, 57600, Note_on_c, 12, 57, 76
15, 57600, Control_c, 12, 11, 123
15, 57660, Control_c, 12, 11, 127
15, 57704, Note_on_c, 12, 57, 0
15, 57720, Note_on_c, 12, 53, 76
15, 57839, Note_on_c, 12, 53, 0
15, 59160, Note_on_c, 12, 53, 84
15, 59219, Note_on_c, 12, 53, 0
15, 59220, Note_on_c, 12, 53, 76
15, 59624, Note_on_c, 12, 53, 0
15, 59640, Note_on_c, 12, 53, 84
15, 59699, Note_on_c, 12, 53, 0
15, 59700, Note_on_c, 12, 53, 76
15, 60104, Note_on_c, 12, 53, 0
15, 60120, Note_on_c, 12, 58, 84
15, 60179, Note_on_c, 12, 58, 0
15, 60180, Note_on_c, 12, 58, 76
15, 60584, Note_on_c, 12, 58, 0
15, 60600, Note_on_c, 12, 53, 84
15, 60659, Note_on_c, 12, 53, 0
15, 60660, Note_on_c, 12, 53, 76
15, 60839, Note_on_c, 12, 53, 0
15, 60840, Note_on_c, 12, 58, 76
15, 61064, Note_on_c, 12, 58, 0
15, 61080, Note_on_c, 12, 53, 84
15, 61139, Note_on_c, 12, 53, 0
15, 61140, Note_on_c, 12, 53, 76
15, 61544, Note_on_c, 12, 53, 0
15, 61560, Note_on_c, 12, 53, 84
15, 61619, Note_on_c, 12, 53, 0
15, 61620, Note_on_c, 12, 53, 76
15, 62024, Note_on_c, 12, 53, 0
15, 62040, Note_on_c, 12, 58, 84
15, 62099, Note_on_c, 12, 58, 0
15, 62100, Note_on_c, 12, 58, 76
15, 62504, Note_on_c, 12, 58, 0
15, 62520, Note_on_c, 12, 53, 84
15, 62579, Note_on_c, 12, 53, 0
15, 62580, Note_on_c, 12, 53, 76
15, 62759, Note_on_c, 12, 53, 0
15, 62760, Note_on_c, 12, 58, 76
15, 62984, Note_on_c, 12, 58, 0
15, 63000, Note_on_c, 12, 53, 84
15, 63059, Note_on_c, 12, 53, 0
15, 63060, Note_on_c, 12, 53, 76
15, 63464, Note_on_c, 12, 53, 0
15, 63480, Note_on_c, 12, 53, 84
15, 63539, Note_on_c, 12, 53, 0
15, 63540, Note_on_c, 12, 53, 76
15, 63944, Note_on_c, 12, 53, 0
15, 63960, Note_on_c, 12, 58, 84
15, 64019, Note_on_c, 12, 58, 0
15, 64020, Note_on_c, 12, 58, 76
15, 64424, Note_on_c, 12, 58, 0
15, 64440, Note_on_c, 12, 53, 84
15, 64499, Note_on_c, 12, 53, 0
15, 64500, Note_on_c, 12, 53, 76
15, 64679, Note_on_c, 12, 53, 0
15, 64680, Note_on_c, 12, 58, 76
15, 64904, Note_on_c, 12, 58, 0
15, 64920, Note_on_c, 12, 53, 84
15, 64979, Note_on_c, 12, 53, 0
15, 64980, Note_on_c, 12, 53, 76
15, 65384, Note_on_c, 12, 53, 0
15, 65400, Note_on_c, 12, 53, 84
15, 65459, Note_on_c, 12, 53, 0
15, 65460, Note_on_c, 12, 53, 76
15, 65864, Note_on_c, 12, 53, 0
15, 65880, Note_on_c, 12, 58, 84
15, 65939, Note_on_c, 12, 58, 0
15, 65940, Note_on_c, 12, 58, 76
15, 66344, Note_on_c, 12, 58, 0
15, 66360, Note_on_c, 12, 53, 84
15, 66419, Note_on_c, 12, 53, 0
15, 66420, Note_on_c, 12, 53, 76
15, 66599, Note_on_c, 12, 53, 0
15, 66600, Note_on_c, 12, 58, 76
15, 66824, Note_on_c, 12, 58, 0
15, 66840, Note_on_c, 12, 60, 84
15, 66959, Note_on_c, 12, 60, 0
15, 66960, Note_on_c, 12, 62, 76
15, 67019, Note_on_c, 12, 62, 0
15, 67020, Note_on_c, 12, 60, 76
15, 67079, Note_on_c, 12, 60, 0
15, 67080, Note_on_c, 12, 55, 76
15, 67199, Note_on_c, 12, 55, 0
15, 67200, Note_on_c, 12, 57, 76
15, 67259, Note_on_c, 12, 57, 0
15, 67260, Note_on_c, 12, 59, 76
15, 67311, Note_on_c, 12, 59, 0
15, 67320, Note_on_c, 12, 60, 84
15, 67439, Note_on_c, 12, 60, 0
15, 67440, Note_on_c, 12, 62, 76
15, 67499, Note_on_c, 12, 62, 0
15, 67500, Note_on_c, 12, 60, 76
15, 67551, Note_on_c, 12, 60, 0
15, 67560, Note_on_c, 12, 55, 76
15, 67784, Note_on_c, 12, 55, 0
15, 67800, Note_on_c, 12, 53, 84
15, 67859, Note_on_c, 12, 53, 0
15, 67860, Note_on_c, 12, 55, 76
15, 67919, Note_on_c, 12, 55, 0
15, 67920, Note_on_c, 12, 57, 76
15, 67979, Note_on_c, 12, 57, 0
15, 67980, Note_on_c, 12, 58, 76
15, 68031, Note_on_c, 12, 58, 0
15, 68040, Note_on_c, 12, 60, 76
15, 68129, Note_on_c, 12, 60, 0
15, 68160, Note_on_c, 12, 60, 76
15, 68189, Note_on_c, 12, 60, 0
15, 68190, Note_on_c, 12, 62, 76
15, 68271, Note_on_c, 12, 62, 0
15, 68280, Note_on_c, 12, 55, 76
15, 68384, Note_on_c, 12, 55, 0
15, 68400, Note_on_c, 12, 55, 76
15, 68429, Note_on_c, 12, 55, 0
15, 68430, Note_on_c, 12, 60, 76
15, 68511, Note_on_c, 12, 60, 0
15, 68520, Note_on_c, 12, 53, 76
15, 68744, Note_on_c, 12, 53, 0
15, 68760, Note_on_c, 12, 60, 76
15, 68879, Note_on_c, 12, 60, 0
15, 68880, Note_on_c, 12, 62, 76
15, 68939, Note_on_c, 12, 62, 0
15, 68940, Note_on_c, 12, 60, 76
15, 68999, Note_on_c, 12, 60, 0
15, 69000, Note_on_c, 12, 55, 76
15, 69119, Note_on_c, 12, 55, 0
15, 69120, Note_on_c, 12, 57, 76
15, 69179, Note_on_c, 12, 57, 0
15, 69180, Note_on_c, 12, 59, 76
15, 69231, Note_on_c, 12, 59, 0
15, 69240, Note_on_c, 12, 60, 76
15, 69359, Note_on_c, 12, 60, 0
15, 69360, Note_on_c, 12, 62, 76
15, 69419, Note_on_c, 12, 62, 0
15, 69420, Note_on_c, 12, 60, 76
15, 69471, Note_on_c, 12, 60, 0
15, 69480, Note_on_c, 12, 55, 76
15, 69704, Note_on_c, 12, 55, 0
15, 69720, Note_on_c, 12, 53, 76
15, 69779, Note_on_c, 12, 53, 0
15, 69780, Note_on_c, 12, 55, 76
15, 69839, Note_on_c, 12, 55, 0
15, 69840, Note_on_c, 12, 57, 76
15, 69899, Note_on_c, 12, 57, 0
15, 69900, Note_on_c, 12, 58, 76
15, 69951, Note_on_c, 12, 58, 0
15, 69960, Note_on_c, 12, 60, 76
15, 70049, Note_on_c, 12, 60, 0
15, 70080, Note_on_c, 12, 60, 76
15, 70109, Note_on_c, 12, 60, 0
15, 70110, Note_on_c, 12, 62, 76
15, 70191, Note_on_c, 12, 62, 0
15, 70200, Note_on_c, 12, 55, 76
15, 70289, Note_on_c, 12, 55, 0
15, 70320, Note_on_c, 12, 55, 76
15, 70349, Note_on_c, 12, 55, 0
15, 70350, Note_on_c, 12, 60, 76
15, 70431, Note_on_c, 12, 60, 0
15, 70440, Note_on_c, 12, 53, 76
15, 70664, Note_on_c, 12, 53, 0
15, 70680, Note_on_c, 12, 60, 84
15, 70799, Note_on_c, 12, 60, 0
15, 70800, Note_on_c, 12, 62, 84
15, 70859, Note_on_c, 12, 62, 0
15, 70860, Note_on_c, 12, 60, 84
15, 70919, Note_on_c, 12, 60, 0
15, 70920, Note_on_c, 12, 55, 84
15, 71039, Note_on_c, 12, 55, 0
15, 71040, Note_on_c, 12, 57, 84
15, 71099, Note_on_c, 12, 57, 0
15, 71100, Note_on_c, 12, 59, 84
15, 71151, Note_on_c, 12, 59, 0
15, 71160, Note_on_c, 12, 60, 84
15, 71279, Note_on_c, 12, 60, 0
15, 71280, Note_on_c, 12, 62, 84
15, 71339, Note_on_c, 12, 62, 0
15, 71340, Note_on_c, 12, 60, 84
15, 71399, Note_on_c, 12, 60, 0
15, 71400, Note_on_c, 12, 59, 84
15, 71519, Note_on_c, 12, 59, 0
15, 71520, Note_on_c, 12, 60, 84
15, 71579, Note_on_c, 12, 60, 0
15, 71580, Note_on_c, 12, 62, 84
15, 71631, Note_on_c, 12, 62, 0
15, 71640, Note_on_c, 12, 64, 84
15, 71759, Note_on_c, 12, 64, 0
15, 71760, Note_on_c, 12, 62, 84
15, 71819, Note_on_c, 12, 62, 0
15, 71820, Note_on_c, 12, 64, 84
15, 71871, Note_on_c, 12, 64, 0
15, 71880, Note_on_c, 12, 65, 84
15, 71999, Note_on_c, 12, 65, 0
15, 72000, Note_on_c, 12, 67, 84
15, 72059, Note_on_c, 12, 67, 0
15, 72060, Note_on_c, 12, 69, 84
15, 72111, Note_on_c, 12, 69, 0
15, 72120, Note_on_c, 12, 67, 84
15, 72239, Note_on_c, 12, 67, 0
15, 72240, Note_on_c, 12, 69, 84
15, 72299, Note_on_c, 12, 69, 0
15, 72300, Note_on_c, 12, 66, 84
15, 72351, Note_on_c, 12, 66, 0
15, 72360, Note_on_c, 12, 67, 84
15, 72464, Note_on_c, 12, 67, 0
15, 72480, Note_on_c, 12, 55, 84
15, 72584, Note_on_c, 12, 55, 0
15, 72600, Note_on_c, 12, 60, 84
15, 72719, Note_on_c, 12, 60, 0
15, 72720, Note_on_c, 12, 62, 84
15, 72779, Note_on_c, 12, 62, 0
15, 72780, Note_on_c, 12, 60, 84
15, 72839, Note_on_c, 12, 60, 0
15, 72840, Note_on_c, 12, 55, 84
15, 72959, Note_on_c, 12, 55, 0
15, 72960, Note_on_c, 12, 57, 84
15, 73019, Note_on_c, 12, 57, 0
15, 73020, Note_on_c, 12, 59, 84
15, 73071, Note_on_c, 12, 59, 0
15, 73080, Note_on_c, 12, 60, 84
15, 73199, Note_on_c, 12, 60, 0
15, 73200, Note_on_c, 12, 62, 84
15, 73259, Note_on_c, 12, 62, 0
15, 73260, Note_on_c, 12, 60, 84
15, 73319, Note_on_c, 12, 60, 0
15, 73320, Note_on_c, 12, 59, 84
15, 73439, Note_on_c, 12, 59, 0
15, 73440, Note_on_c, 12, 60, 84
15, 73499, Note_on_c, 12, 60, 0
15, 73500, Note_on_c, 12, 62, 84
15, 73551, Note_on_c, 12, 62, 0
15, 73560, Note_on_c, 12, 64, 84
15, 73679, Note_on_c, 12, 64, 0
15, 73680, Note_on_c, 12, 62, 84
15, 73739, Note_on_c, 12, 62, 0
15, 73740, Note_on_c, 12, 64, 84
15, 73791, Note_on_c, 12, 64, 0
15, 73800, Note_on_c, 12, 65, 84
15, 73919, Note_on_c, 12, 65, 0
15, 73920, Note_on_c, 12, 67, 84
15, 73979, Note_on_c, 12, 67, 0
15, 73980, Note_on_c, 12, 69, 84
15, 74031, Note_on_c, 12, 69, 0
15, 74040, Note_on_c, 12, 67, 84
15, 74159, Note_on_c, 12, 67, 0
15, 74160, Note_on_c, 12, 69, 84
15, 74219, Note_on_c, 12, 69, 0
15, 74220, Note_on_c, 12, 66, 84
15, 74271, Note_on_c, 12, 66, 0
15, 74280, Note_on_c, 12, 67, 84
15, 74384, Note_on_c, 12, 67, 0
15, 74400, Note_on_c, 12, 55, 84
15, 74504, Note_on_c, 12, 55, 0
15, 74518, Control_c, 12, 11, 112
15, 74520, Note_on_c, 12, 60, 92
15, 74520, Control_c, 12, 11, 112
15, 74609, Note_on_c, 12, 60, 0
15, 74640, Note_on_c, 12, 62, 92
15, 74691, Note_on_c, 12, 62, 0
15, 74700, Note_on_c, 12, 60, 92
15, 74712, Control_c, 12, 11, 113
15, 74751, Note_on_c, 12, 60, 0
15, 74760, Note_on_c, 12, 55, 92
15, 74864, Note_on_c, 12, 55, 0
15, 74880, Note_on_c, 12, 57, 92
15, 74904, Control_c, 12, 11, 114
15, 74931, Note_on_c, 12, 57, 0
15, 74940, Note_on_c, 12, 59, 92
15, 74991, Note_on_c, 12, 59, 0
15, 75000, Note_on_c, 12, 60, 92
15, 75089, Note_on_c, 12, 60, 0
15, 75096, Control_c, 12, 11, 115
15, 75120, Note_on_c, 12, 62, 92
15, 75171, Note_on_c, 12, 62, 0
15, 75180, Note_on_c, 12, 60, 92
15, 75231, Note_on_c, 12, 60, 0
15, 75240, Note_on_c, 12, 59, 92
15, 75288, Control_c, 12, 11, 116
15, 75344, Note_on_c, 12, 59, 0
15, 75360, Note_on_c, 12, 60, 92
15, 75411, Note_on_c, 12, 60, 0
15, 75420, Note_on_c, 12, 62, 92
15, 75471, Note_on_c, 12, 62, 0
15, 75480, Note_on_c, 12, 64, 92
15, 75480, Control_c, 12, 11, 117
15, 75569, Note_on_c, 12, 64, 0
15, 75600, Note_on_c, 12, 65, 92
15, 75651, Note_on_c, 12, 65, 0
15, 75660, Note_on_c, 12, 64, 92
15, 75672, Control_c, 12, 11, 118
15, 75711, Note_on_c, 12, 64, 0
15, 75720, Note_on_c, 12, 62, 92
15, 75824, Note_on_c, 12, 62, 0
15, 75840, Note_on_c, 12, 64, 92
15, 75864, Control_c, 12, 11, 119
15, 75891, Note_on_c, 12, 64, 0
15, 75900, Note_on_c, 12, 65, 92
15, 75951, Note_on_c, 12, 65, 0
15, 75960, Note_on_c, 12, 67, 92
15, 76049, Note_on_c, 12, 67, 0
15, 76056, Control_c, 12, 11, 120
15, 76080, Note_on_c, 12, 69, 92
15, 76131, Note_on_c, 12, 69, 0
15, 76140, Note_on_c, 12, 65, 92
15, 76191, Note_on_c, 12, 65, 0
15, 76200, Note_on_c, 12, 67, 92
15, 76248, Control_c, 12, 11, 121
15, 76304, Note_on_c, 12, 67, 0
15, 76320, Note_on_c, 12, 69, 92
15, 76371, Note_on_c, 12, 69, 0
15, 76380, Note_on_c, 12, 71, 92
15, 76431, Note_on_c, 12, 71, 0
15, 76440, Note_on_c, 12, 72, 92
15, 76440, Control_c, 12, 11, 122
15, 76529, Note_on_c, 12, 72, 0
15, 76560, Note_on_c, 12, 74, 92
15, 76611, Note_on_c, 12, 74, 0
15, 76620, Note_on_c, 12, 71, 92
15, 76632, Control_c, 12, 11, 123
15, 76671, Note_on_c, 12, 71, 0
15, 76680, Note_on_c, 12, 72, 92
15, 76784, Note_on_c, 12, 72, 0
15, 76800, Note_on_c, 12, 74, 92
15, 76824, Control_c, 12, 11, 124
15, 76851, Note_on_c, 12, 74, 0
15, 76860, Note_on_c, 12, 71, 92
15, 76911, Note_on_c, 12, 71, 0
15, 76920, Note_on_c, 12, 72, 92
15, 77009, Note_on_c, 12, 72, 0
15, 77016, Control_c, 12, 11, 125
15, 77040, Note_on_c, 12, 74, 92
15, 77091, Note_on_c, 12, 74, 0
15, 77100, Note_on_c, 12, 71, 92
15, 77151, Note_on_c, 12, 71, 0
15, 77160, Note_on_c, 12, 72, 92
15, 77208, Control_c, 12, 11, 127
15, 77264, Note_on_c, 12, 72, 0
15, 77280, Note_on_c, 12, 74, 92
15, 77331, Note_on_c, 12, 74, 0
15, 77340, Note_on_c, 12, 71, 92
15, 77391, Note_on_c, 12, 71, 0
15, 77400, Note_on_c, 12, 55, 84
15, 77400, Note_on_c, 12, 64, 84
15, 77400, Note_on_c, 12, 72, 84
15, 77400, Note_on_c, 12, 48, 84
15, 77519, Note_on_c, 12, 55, 0
15, 77519, Note_on_c, 12, 64, 0
15, 77519, Note_on_c, 12, 72, 0
15, 77519, Note_on_c, 12, 48, 0
15, 77880, Note_on_c, 12, 48, 52
15, 77880, Note_on_c, 12, 60, 52
15, 77999, Note_on_c, 12, 48, 0
15, 77999, Note_on_c, 12, 60, 0
15, 78240, Note_on_c, 12, 60, 44
15, 78329, Note_on_c, 12, 60, 0
15, 78360, Note_on_c, 12, 65, 44
15, 78449, Note_on_c, 12, 65, 0
15, 78480, Note_on_c, 12, 60, 44
15, 78569, Note_on_c, 12, 60, 0
15, 78600, Note_on_c, 12, 62, 44
15, 78689, Note_on_c, 12, 62, 0
15, 78720, Note_on_c, 12, 60, 44
15, 78809, Note_on_c, 12, 60, 0
15, 78840, Note_on_c, 12, 57, 44
15, 78929, Note_on_c, 12, 57, 0
15, 78960, Note_on_c, 12, 58, 44
15, 79049, Note_on_c, 12, 58, 0
15, 79080, Note_on_c, 12, 57, 44
15, 79169, Note_on_c, 12, 57, 0
15, 79200, Note_on_c, 12, 53, 44
15, 79289, Note_on_c, 12, 53, 0
15, 79320, Note_on_c, 12, 55, 44
15, 79409, Note_on_c, 12, 55, 0
15, 79440, Note_on_c, 12, 57, 44
15, 79529, Note_on_c, 12, 57, 0
15, 79560, Note_on_c, 12, 53, 44
15, 79649, Note_on_c, 12, 53, 0
15, 79680, Note_on_c, 12, 55, 44
15, 79769, Note_on_c, 12, 55, 0
15, 79800, Note_on_c, 12, 57, 44
15, 79889, Note_on_c, 12, 57, 0
15, 79920, Note_on_c, 12, 65, 44
15, 80009, Note_on_c, 12, 65, 0
15, 80040, Note_on_c, 12, 67, 44
15, 80129, Note_on_c, 12, 67, 0
15, 80160, Note_on_c, 12, 65, 44
15, 80249, Note_on_c, 12, 65, 0
15, 80280, Note_on_c, 12, 62, 44
15, 80369, Note_on_c, 12, 62, 0
15, 80400, Note_on_c, 12, 64, 44
15, 80489, Note_on_c, 12, 64, 0
15, 80520, Note_on_c, 12, 62, 44
15, 80609, Note_on_c, 12, 62, 0
15, 80640, Note_on_c, 12, 57, 44
15, 80729, Note_on_c, 12, 57, 0
15, 80760, Note_on_c, 12, 57, 44
15, 80849, Note_on_c, 12, 57, 0
15, 80880, Note_on_c, 12, 57, 44
15, 80999, Note_on_c, 12, 57, 0
15, 81120, Note_on_c, 12, 57, 48
15, 81239, Note_on_c, 12, 57, 0
15, 81240, Note_on_c, 12, 50, 48
15, 81479, Note_on_c, 12, 50, 0
15, 81480, Note_on_c, 12, 54, 48
15, 81599, Note_on_c, 12, 54, 0
15, 81600, Note_on_c, 12, 57, 48
15, 81719, Note_on_c, 12, 57, 0
15, 81720, Note_on_c, 12, 54, 48
15, 81824, Note_on_c, 12, 54, 0
15, 81840, Note_on_c, 12, 54, 48
15, 81959, Note_on_c, 12, 54, 0
15, 81960, Note_on_c, 12, 57, 48
15, 82079, Note_on_c, 12, 57, 0
15, 82080, Note_on_c, 12, 61, 48
15, 82199, Note_on_c, 12, 61, 0
15, 82200, Note_on_c, 12, 62, 48
15, 82259, Note_on_c, 12, 62, 0
15, 82260, Note_on_c, 12, 59, 48
15, 82319, Note_on_c, 12, 59, 0
15, 82320, Note_on_c, 12, 57, 48
15, 82544, Note_on_c, 12, 57, 0
15, 82560, Note_on_c, 12, 52, 48
15, 82560, Note_on_c, 12, 61, 48
15, 82679, Note_on_c, 12, 52, 0
15, 82679, Note_on_c, 12, 61, 0
15, 82680, Note_on_c, 12, 54, 48
15, 82680, Note_on_c, 12, 62, 48
15, 82799, Note_on_c, 12, 62, 0
15, 82800, Note_on_c, 12, 57, 48
15, 82919, Note_on_c, 12, 54, 0
15, 82919, Note_on_c, 12, 57, 0
15, 82920, Note_on_c, 12, 59, 48
15, 82920, Note_on_c, 12, 55, 48
15, 83039, Note_on_c, 12, 59, 0
15, 83039, Note_on_c, 12, 55, 0
15, 83040, Note_on_c, 12, 57, 48
15, 83040, Note_on_c, 12, 54, 48
15, 83159, Note_on_c, 12, 57, 0
15, 83159, Note_on_c, 12, 54, 0
15, 83160, Note_on_c, 12, 57, 48
15, 83160, Note_on_c, 12, 69, 48
15, 83279, Note_on_c, 12, 57, 0
15, 83279, Note_on_c, 12, 69, 0
15, 83280, Note_on_c, 12, 71, 48
15, 83280, Note_on_c, 12, 59, 48
15, 83399, Note_on_c, 12, 71, 0
15, 83399, Note_on_c, 12, 59, 0
15, 83400, Note_on_c, 12, 69, 48
15, 83400, Note_on_c, 12, 57, 48
15, 83519, Note_on_c, 12, 69, 0
15, 83519, Note_on_c, 12, 57, 0
15, 83520, Note_on_c, 12, 54, 48
15, 83520, Note_on_c, 12, 66, 48
15, 83639, Note_on_c, 12, 54, 0
15, 83639, Note_on_c, 12, 66, 0
15, 83640, Note_on_c, 12, 57, 48
15, 83640, Note_on_c, 12, 69, 48
15, 83759, Note_on_c, 12, 57, 0
15, 83759, Note_on_c, 12, 69, 0
15, 83760, Note_on_c, 12, 50, 48
15, 83760, Note_on_c, 12, 62, 48
15, 83879, Note_on_c, 12, 50, 0
15, 83879, Note_on_c, 12, 62, 0
15, 84000, Note_on_c, 12, 60, 44
15, 84089, Note_on_c, 12, 60, 0
15, 84120, Note_on_c, 12, 65, 44
15, 84209, Note_on_c, 12, 65, 0
15, 84240, Note_on_c, 12, 60, 44
15, 84329, Note_on_c, 12, 60, 0
15, 84360, Note_on_c, 12, 62, 44
15, 84449, Note_on_c, 12, 62, 0
15, 84480, Note_on_c, 12, 60, 44
15, 84569, Note_on_c, 12, 60, 0
15, 84600, Note_on_c, 12, 57, 44
15, 84689, Note_on_c, 12, 57, 0
15, 84720, Note_on_c, 12, 58, 44
15, 84809, Note_on_c, 12, 58, 0
15, 84840, Note_on_c, 12, 57, 44
15, 84929, Note_on_c, 12, 57, 0
15, 84960, Note_on_c, 12, 53, 44
15, 85049, Note_on_c, 12, 53, 0
15, 85080, Note_on_c, 12, 55, 44
15, 85169, Note_on_c, 12, 55, 0
15, 85200, Note_on_c, 12, 57, 44
15, 85289, Note_on_c, 12, 57, 0
15, 85320, Note_on_c, 12, 53, 44
15, 85409, Note_on_c, 12, 53, 0
15, 85440, Note_on_c, 12, 55, 44
15, 85529, Note_on_c, 12, 55, 0
15, 85560, Note_on_c, 12, 57, 44
15, 85649, Note_on_c, 12, 57, 0
15, 85680, Note_on_c, 12, 65, 44
15, 85769, Note_on_c, 12, 65, 0
15, 85800, Note_on_c, 12, 67, 44
15, 85889, Note_on_c, 12, 67, 0
15, 85920, Note_on_c, 12, 65, 44
15, 86009, Note_on_c, 12, 65, 0
15, 86040, Note_on_c, 12, 62, 44
15, 86129, Note_on_c, 12, 62, 0
15, 86160, Note_on_c, 12, 64, 44
15, 86249, Note_on_c, 12, 64, 0
15, 86280, Note_on_c, 12, 62, 44
15, 86369, Note_on_c, 12, 62, 0
15, 86400, Note_on_c, 12, 57, 44
15, 86489, Note_on_c, 12, 57, 0
15, 86520, Note_on_c, 12, 57, 44
15, 86609, Note_on_c, 12, 57, 0
15, 86640, Note_on_c, 12, 57, 44
15, 86759, Note_on_c, 12, 57, 0
15, 86880, Note_on_c, 12, 57, 48
15, 86999, Note_on_c, 12, 57, 0
15, 87000, Note_on_c, 12, 50, 48
15, 87239, Note_on_c, 12, 50, 0
15, 87240, Note_on_c, 12, 54, 48
15, 87359, Note_on_c, 12, 54, 0
15, 87360, Note_on_c, 12, 57, 48
15, 87479, Note_on_c, 12, 57, 0
15, 87480, Note_on_c, 12, 54, 48
15, 87584, Note_on_c, 12, 54, 0
15, 87600, Note_on_c, 12, 54, 48
15, 87719, Note_on_c, 12, 54, 0
15, 87720, Note_on_c, 12, 57, 48
15, 87839, Note_on_c, 12, 57, 0
15, 87840, Note_on_c, 12, 61, 48
15, 87959, Note_on_c, 12, 61, 0
15, 87960, Note_on_c, 12, 62, 48
15, 88019, Note_on_c, 12, 62, 0
15, 88020, Note_on_c, 12, 59, 48
15, 88079, Note_on_c, 12, 59, 0
15, 88080, Note_on_c, 12, 57, 48
15, 88304, Note_on_c, 12, 57, 0
15, 88320, Note_on_c, 12, 61, 48
15, 88320, Note_on_c, 12, 52, 48
15, 88439, Note_on_c, 12, 61, 0
15, 88439, Note_on_c, 12, 52, 0
15, 88440, Note_on_c, 12, 54, 48
15, 88440, Note_on_c, 12, 62, 48
15, 88559, Note_on_c, 12, 62, 0
15, 88560, Note_on_c, 12, 57, 48
15, 88679, Note_on_c, 12, 54, 0
15, 88679, Note_on_c, 12, 57, 0
15, 88680, Note_on_c, 12, 55, 48
15, 88680, Note_on_c, 12, 59, 48
15, 88799, Note_on_c, 12, 55, 0
15, 88799, Note_on_c, 12, 59, 0
15, 88800, Note_on_c, 12, 57, 48
15, 88800, Note_on_c, 12, 54, 48
15, 88919, Note_on_c, 12, 57, 0
15, 88919, Note_on_c, 12, 54, 0
15, 88920, Note_on_c, 12, 57, 48
15, 88920, Note_on_c, 12, 69, 48
15, 89039, Note_on_c, 12, 57, 0
15, 89039, Note_on_c, 12, 69, 0
15, 89040, Note_on_c, 12, 59, 48
15, 89040, Note_on_c, 12, 71, 48
15, 89159, Note_on_c, 12, 59, 0
15, 89159, Note_on_c, 12, 71, 0
15, 89160, Note_on_c, 12, 57, 48
15, 89160, Note_on_c, 12, 69, 48
15, 89279, Note_on_c, 12, 57, 0
15, 89279, Note_on_c, 12, 69, 0
15, 89280, Note_on_c, 12, 54, 48
15, 89280, Note_on_c, 12, 66, 48
15, 89399, Note_on_c, 12, 54, 0
15, 89399, Note_on_c, 12, 66, 0
15, 89400, Note_on_c, 12, 57, 48
15, 89400, Note_on_c, 12, 69, 48
15, 89519, Note_on_c, 12, 57, 0
15, 89519, Note_on_c, 12, 69, 0
15, 89520, Note_on_c, 12, 54, 48
15, 89520, Note_on_c, 12, 66, 48
15, 89639, Note_on_c, 12, 54, 0
15, 89639, Note_on_c, 12, 66, 0
15, 91200, Note_on_c, 12, 62, 44
15, 91289, Note_on_c, 12, 62, 0
15, 91320, Note_on_c, 12, 67, 44
15, 91409, Note_on_c, 12, 67, 0
15, 91440, Note_on_c, 12, 62, 44
15, 91529, Note_on_c, 12, 62, 0
15, 91560, Note_on_c, 12, 64, 44
15, 91649, Note_on_c, 12, 64, 0
15, 91680, Note_on_c, 12, 62, 44
15, 91769, Note_on_c, 12, 62, 0
15, 91800, Note_on_c, 12, 59, 44
15, 91889, Note_on_c, 12, 59, 0
15, 91920, Note_on_c, 12, 60, 44
15, 92009, Note_on_c, 12, 60, 0
15, 92040, Note_on_c, 12, 59, 44
15, 92129, Note_on_c, 12, 59, 0
15, 92160, Note_on_c, 12, 55, 44
15, 92249, Note_on_c, 12, 55, 0
15, 92280, Note_on_c, 12, 57, 44
15, 92369, Note_on_c, 12, 57, 0
15, 92400, Note_on_c, 12, 59, 44
15, 92489, Note_on_c, 12, 59, 0
15, 92520, Note_on_c, 12, 55, 48
15, 92624, Note_on_c, 12, 55, 0
15, 92640, Note_on_c, 12, 55, 48
15, 92759, Note_on_c, 12, 55, 0
15, 92760, Note_on_c, 12, 48, 48
15, 92999, Note_on_c, 12, 48, 0
15, 93000, Note_on_c, 12, 52, 48
15, 93119, Note_on_c, 12, 52, 0
15, 93120, Note_on_c, 12, 55, 48
15, 93239, Note_on_c, 12, 55, 0
15, 93240, Note_on_c, 12, 52, 48
15, 93344, Note_on_c, 12, 52, 0
15, 93360, Note_on_c, 12, 52, 48
15, 93479, Note_on_c, 12, 52, 0
15, 93480, Note_on_c, 12, 55, 48
15, 93599, Note_on_c, 12, 55, 0
15, 93600, Note_on_c, 12, 59, 48
15, 93719, Note_on_c, 12, 59, 0
15, 93720, Note_on_c, 12, 60, 48
15, 93779, Note_on_c, 12, 60, 0
15, 93780, Note_on_c, 12, 57, 48
15, 93839, Note_on_c, 12, 57, 0
15, 93840, Note_on_c, 12, 55, 48
15, 94064, Note_on_c, 12, 55, 0
15, 94080, Note_on_c, 12, 62, 48
15, 94199, Note_on_c, 12, 62, 0
15, 94200, Note_on_c, 12, 64, 48
15, 94439, Note_on_c, 12, 64, 0
15, 94440, Note_on_c, 12, 65, 48
15, 94559, Note_on_c, 12, 65, 0
15, 94560, Note_on_c, 12, 64, 48
15, 94679, Note_on_c, 12, 64, 0
15, 94680, Note_on_c, 12, 60, 48
15, 94784, Note_on_c, 12, 60, 0
15, 94800, Note_on_c, 12, 60, 48
15, 94919, Note_on_c, 12, 60, 0
15, 94920, Note_on_c, 12, 60, 48
15, 95039, Note_on_c, 12, 60, 0
15, 95040, Note_on_c, 12, 52, 48
15, 95159, Note_on_c, 12, 52, 0
15, 95160, Note_on_c, 12, 53, 48
15, 95279, Note_on_c, 12, 53, 0
15, 95280, Note_on_c, 12, 52, 48
15, 95399, Note_on_c, 12, 52, 0
15, 95518, Control_c, 12, 11, 64
15, 95520, Note_on_c, 12, 48, 84
15, 95580, Control_c, 12, 11, 67
15, 95639, Note_on_c, 12, 48, 0
15, 95640, Note_on_c, 12, 60, 84
15, 95640, Control_c, 12, 11, 69
15, 95700, Control_c, 12, 11, 72
15, 95759, Note_on_c, 12, 60, 0
15, 95760, Control_c, 12, 11, 75
15, 95760, Note_on_c, 12, 57, 84
15, 95820, Control_c, 12, 11, 77
15, 95879, Note_on_c, 12, 57, 0
15, 95880, Control_c, 12, 11, 80
15, 95880, Note_on_c, 12, 58, 84
15, 95940, Control_c, 12, 11, 82
15, 95999, Note_on_c, 12, 58, 0
15, 96000, Control_c, 12, 11, 85
15, 96000, Note_on_c, 12, 57, 84
15, 96060, Control_c, 12, 11, 88
15, 96119, Note_on_c, 12, 57, 0
15, 96120, Control_c, 12, 11, 90
15, 96120, Note_on_c, 12, 53, 84
15, 96180, Control_c, 12, 11, 93
15, 96239, Note_on_c, 12, 53, 0
15, 96240, Note_on_c, 12, 55, 84
15, 96240, Control_c, 12, 11, 96
15, 96300, Control_c, 12, 11, 98
15, 96359, Note_on_c, 12, 55, 0
15, 96360, Note_on_c, 12, 53, 84
15, 96360, Control_c, 12, 11, 101
15, 96420, Control_c, 12, 11, 103
15, 96479, Note_on_c, 12, 53, 0
15, 96480, Control_c, 12, 11, 106
15, 96480, Note_on_c, 12, 48, 84
15, 96540, Control_c, 12, 11, 109
15, 96599, Note_on_c, 12, 48, 0
15, 96600, Control_c, 12, 11, 111
15, 96600, Note_on_c, 12, 55, 84
15, 96660, Control_c, 12, 11, 114
15, 96719, Note_on_c, 12, 55, 0
15, 96720, Control_c, 12, 11, 117
15, 96720, Note_on_c, 12, 57, 84
15, 96780, Control_c, 12, 11, 119
15, 96839, Note_on_c, 12, 57, 0
15, 96840, Note_on_c, 12, 53, 84
15, 96840, Control_c, 12, 11, 122
15, 96900, Control_c, 12, 11, 127
15, 96944, Note_on_c, 12, 53, 0
15, 96960, Note_on_c, 12, 60, 84
15, 97049, Note_on_c, 12, 60, 0
15, 97080, Note_on_c, 12, 65, 84
15, 97169, Note_on_c, 12, 65, 0
15, 97200, Note_on_c, 12, 60, 84
15, 97289, Note_on_c, 12, 60, 0
15, 97320, Note_on_c, 12, 62, 84
15, 97409, Note_on_c, 12, 62, 0
15, 97440, Note_on_c, 12, 60, 84
15, 97529, Note_on_c, 12, 60, 0
15, 97560, Note_on_c, 12, 57, 84
15, 97649, Note_on_c, 12, 57, 0
15, 97680, Note_on_c, 12, 58, 84
15, 97769, Note_on_c, 12, 58, 0
15, 97800, Note_on_c, 12, 57, 92
15, 97889, Note_on_c, 12, 57, 0
15, 97920, Note_on_c, 12, 53, 84
15, 98009, Note_on_c, 12, 53, 0
15, 98040, Note_on_c, 12, 55, 84
15, 98129, Note_on_c, 12, 55, 0
15, 98160, Note_on_c, 12, 57, 92
15, 98249, Note_on_c, 12, 57, 0
15, 98280, Note_on_c, 12, 53, 84
15, 98369, Note_on_c, 12, 53, 0
15, 98400, Note_on_c, 12, 55, 84
15, 98489, Note_on_c, 12, 55, 0
15, 98520, Note_on_c, 12, 57, 92
15, 98609, Note_on_c, 12, 57, 0
15, 98640, Note_on_c, 12, 53, 84
15, 98729, Note_on_c, 12, 53, 0
15, 98760, Note_on_c, 12, 55, 84
15, 98849, Note_on_c, 12, 55, 0
15, 98880, Note_on_c, 12, 57, 92
15, 98969, Note_on_c, 12, 57, 0
15, 99000, Note_on_c, 12, 53, 84
15, 99089, Note_on_c, 12, 53, 0
15, 99120, Note_on_c, 12, 55, 84
15, 99209, Note_on_c, 12, 55, 0
15, 99240, Note_on_c, 12, 57, 92
15, 99300, Control_c, 12, 11, 112
15, 99584, Note_on_c, 12, 57, 0
15, 99600, Note_on_c, 12, 55, 92
15, 99824, Note_on_c, 12, 55, 0
15, 99840, Note_on_c, 12, 53, 92
15, 99944, Note_on_c, 12, 53, 0
15, 99960, Note_on_c, 12, 52, 92
15, 100184, Note_on_c, 12, 52, 0
15, 100200, Note_on_c, 12, 50, 92
15, 100304, Note_on_c, 12, 50, 0
15, 100320, Note_on_c, 12, 48, 92
15, 100544, Note_on_c, 12, 48, 0
15, 100560, Note_on_c, 12, 55, 92
15, 100664, Note_on_c, 12, 55, 0
15, 100678, Control_c, 12, 11, 127
15, 100680, Note_on_c, 12, 60, 92
15, 100740, Control_c, 12, 11, 112
15, 101024, Note_on_c, 12, 60, 0
15, 101038, Control_c, 12, 11, 127
15, 101040, Note_on_c, 12, 62, 92
15, 101100, Control_c, 12, 11, 112
15, 101384, Note_on_c, 12, 62, 0
15, 101398, Control_c, 12, 11, 127
15, 101400, Note_on_c, 12, 60, 92
15, 101460, Control_c, 12, 11, 112
15, 101744, Note_on_c, 12, 60, 0
15, 101758, Control_c, 12, 11, 127
15, 101760, Note_on_c, 12, 48, 92
15, 101820, Control_c, 12, 11, 112
15, 102104, Note_on_c, 12, 48, 0
15, 102120, Note_on_c, 12, 53, 92
15, 102239, Note_on_c, 12, 53, 0
15, 102360, Note_on_c, 12, 69, 92
15, 102464, Note_on_c, 12, 69, 0
15, 102480, Note_on_c, 12, 67, 92
15, 102704, Note_on_c, 12, 67, 0
15, 102720, Note_on_c, 12, 65, 92
15, 102824, Note_on_c, 12, 65, 0
15, 102840, Note_on_c, 12, 64, 92
15, 103064, Note_on_c, 12, 64, 0
15, 103080, Note_on_c, 12, 62, 92
15, 103184, Note_on_c, 12, 62, 0
15, 103200, Note_on_c, 12, 60, 92
15, 103424, Note_on_c, 12, 60, 0
15, 103440, Note_on_c, 12, 67, 92
15, 103544, Note_on_c, 12, 67, 0
15, 103558, Control_c, 12, 11, 127
15, 103560, Note_on_c, 12, 60, 92
15, 103620, Control_c, 12, 11, 112
15, 103904, Note_on_c, 12, 60, 0
15, 103918, Control_c, 12, 11, 127
15, 103920, Note_on_c, 12, 62, 92
15, 103980, Control_c, 12, 11, 112
15, 104264, Note_on_c, 12, 62, 0
15, 104278, Control_c, 12, 11, 127
15, 104280, Note_on_c, 12, 69, 92
15, 104340, Control_c, 12, 11, 112
15, 104624, Note_on_c, 12, 69, 0
15, 104638, Control_c, 12, 11, 127
15, 104640, Note_on_c, 12, 48, 92
15, 104640, Note_on_c, 12, 60, 92
15, 104700, Control_c, 12, 11, 112
15, 104984, Note_on_c, 12, 48, 0
15, 104984, Note_on_c, 12, 60, 0
15, 104998, Control_c, 12, 11, 127
15, 105000, Note_on_c, 12, 53, 92
15, 105051, Note_on_c, 12, 53, 0
15, 105060, Note_on_c, 12, 57, 84
15, 105111, Note_on_c, 12, 57, 0
15, 105120, Note_on_c, 12, 60, 84
15, 105171, Note_on_c, 12, 60, 0
15, 105180, Note_on_c, 12, 65, 84
15, 105231, Note_on_c, 12, 65, 0
15, 105240, Note_on_c, 12, 69, 84
15, 105359, Note_on_c, 12, 69, 0
15, 106080, Note_on_c, 12, 60, 84
15, 106184, Note_on_c, 12, 60, 0
15, 106200, Note_on_c, 12, 60, 84
15, 106304, Note_on_c, 12, 60, 0
15, 106320, Note_on_c, 12, 60, 84
15, 106424, Note_on_c, 12, 60, 0
15, 106440, Note_on_c, 12, 53, 92
15, 106491, Note_on_c, 12, 53, 0
15, 106500, Note_on_c, 12, 57, 84
15, 106551, Note_on_c, 12, 57, 0
15, 106560, Note_on_c, 12, 60, 84
15, 106611, Note_on_c, 12, 60, 0
15, 106620, Note_on_c, 12, 65, 84
15, 106671, Note_on_c, 12, 65, 0
15, 106680, Note_on_c, 12, 69, 84
15, 106799, Note_on_c, 12, 69, 0
15, 107520, Note_on_c, 12, 60, 84
15, 107624, Note_on_c, 12, 60, 0
15, 107640, Note_on_c, 12, 60, 84
15, 107744, Note_on_c, 12, 60, 0
15, 107760, Note_on_c, 12, 60, 84
15, 107864, Note_on_c, 12, 60, 0
15, 107880, Note_on_c, 12, 53, 92
15, 107999, Note_on_c, 12, 53, 0
15, 108600, Note_on_c, 12, 53, 92
15, 108719, Note_on_c, 12, 53, 0
15, 123720, Note_on_c, 12, 60, 52
15, 124064, Note_on_c, 12, 60, 0
15, 124080, Note_on_c, 12, 55, 52
15, 124424, Note_on_c, 12, 55, 0
15, 124440, Note_on_c, 12, 48, 52
15, 124799, Note_on_c, 12, 48, 0
15, 125490, Control_c, 12, 11, 110
15, 125520, Note_on_c, 12, 55, 68
15, 125520, Note_on_c, 12, 60, 68
15, 125520, Control_c, 12, 11, 112
15, 125550, Control_c, 12, 11, 113
15, 125580, Control_c, 12, 11, 114
15, 125610, Control_c, 12, 11, 115
15, 125624, Note_on_c, 12, 55, 0
15, 125624, Note_on_c, 12, 60, 0
15, 125640, Note_on_c, 12, 55, 68
15, 125640, Note_on_c, 12, 52, 68
15, 125640, Control_c, 12, 11, 117
15, 125670, Control_c, 12, 11, 118
15, 125700, Control_c, 12, 11, 119
15, 125730, Control_c, 12, 11, 121
15, 125744, Note_on_c, 12, 55, 0
15, 125744, Note_on_c, 12, 52, 0
15, 125760, Note_on_c, 12, 52, 68
15, 125760, Note_on_c, 12, 55, 68
15, 125760, Control_c, 12, 11, 122
15, 125790, Control_c, 12, 11, 123
15, 125820, Control_c, 12, 11, 124
15, 125850, Control_c, 12, 11, 127
15, 125864, Note_on_c, 12, 52, 0
15, 125864, Note_on_c, 12, 55, 0
15, 125880, Note_on_c, 12, 60, 52
15, 125880, Note_on_c, 12, 57, 52
15, 125984, Note_on_c, 12, 60, 0
15, 125984, Note_on_c, 12, 57, 0
15, 126000, Note_on_c, 12, 57, 52
15, 126000, Note_on_c, 12, 53, 52
15, 126104, Note_on_c, 12, 57, 0
15, 126104, Note_on_c, 12, 53, 0
15, 126120, Note_on_c, 12, 57, 52
15, 126120, Note_on_c, 12, 53, 52
15, 126224, Note_on_c, 12, 57, 0
15, 126224, Note_on_c, 12, 53, 0
15, 126240, Note_on_c, 12, 60, 52
15, 126240, Note_on_c, 12, 57, 52
15, 126344, Note_on_c, 12, 60, 0
15, 126344, Note_on_c, 12, 57, 0
15, 126360, Note_on_c, 12, 57, 52
15, 126360, Note_on_c, 12, 53, 52
15, 126464, Note_on_c, 12, 57, 0
15, 126464, Note_on_c, 12, 53, 0
15, 126480, Note_on_c, 12, 53, 52
15, 126480, Note_on_c, 12, 57, 52
15, 126584, Note_on_c, 12, 53, 0
15, 126584, Note_on_c, 12, 57, 0
15, 126600, Note_on_c, 12, 58, 52
15, 126600, Note_on_c, 12, 60, 52
15, 126704, Note_on_c, 12, 58, 0
15, 126704, Note_on_c, 12, 60, 0
15, 126720, Note_on_c, 12, 58, 52
15, 126720, Note_on_c, 12, 53, 52
15, 126824, Note_on_c, 12, 58, 0
15, 126824, Note_on_c, 12, 53, 0
15, 126840, Note_on_c, 12, 53, 52
15, 126840, Note_on_c, 12, 58, 52
15, 126944, Note_on_c, 12, 53, 0
15, 126944, Note_on_c, 12, 58, 0
15, 126960, Note_on_c, 12, 58, 52
15, 126960, Note_on_c, 12, 60, 52
15, 127064, Note_on_c, 12, 58, 0
15, 127064, Note_on_c, 12, 60, 0
15, 127080, Note_on_c, 12, 53, 52
15, 127080, Note_on_c, 12, 58, 52
15, 127184, Note_on_c, 12, 53, 0
15, 127184, Note_on_c, 12, 58, 0
15, 127200, Note_on_c, 12, 53, 52
15, 127200, Note_on_c, 12, 58, 52
15, 127304, Note_on_c, 12, 53, 0
15, 127304, Note_on_c, 12, 58, 0
15, 127320, Note_on_c, 12, 60, 52
15, 127320, Note_on_c, 12, 57, 52
15, 127424, Note_on_c, 12, 60, 0
15, 127424, Note_on_c, 12, 57, 0
15, 127440, Note_on_c, 12, 53, 52
15, 127440, Note_on_c, 12, 57, 52
15, 127544, Note_on_c, 12, 53, 0
15, 127544, Note_on_c, 12, 57, 0
15, 127560, Note_on_c, 12, 57, 52
15, 127560, Note_on_c, 12, 53, 52
15, 127664, Note_on_c, 12, 57, 0
15, 127664, Note_on_c, 12, 53, 0
15, 127680, Note_on_c, 12, 55, 52
15, 127680, Note_on_c, 12, 60, 52
15, 127784, Note_on_c, 12, 55, 0
15, 127784, Note_on_c, 12, 60, 0
15, 127800, Note_on_c, 12, 55, 52
15, 127800, Note_on_c, 12, 52, 52
15, 127904, Note_on_c, 12, 55, 0
15, 127904, Note_on_c, 12, 52, 0
15, 127920, Note_on_c, 12, 55, 52
15, 127920, Note_on_c, 12, 52, 52
15, 128024, Note_on_c, 12, 55, 0
15, 128024, Note_on_c, 12, 52, 0
15, 128040, Note_on_c, 12, 60, 52
15, 128040, Note_on_c, 12, 57, 52
15, 128144, Note_on_c, 12, 60, 0
15, 128144, Note_on_c, 12, 57, 0
15, 128160, Note_on_c, 12, 57, 52
15, 128160, Note_on_c, 12, 53, 52
15, 128264, Note_on_c, 12, 57, 0
15, 128264, Note_on_c, 12, 53, 0
15, 128280, Note_on_c, 12, 53, 52
15, 128280, Note_on_c, 12, 57, 52
15, 128384, Note_on_c, 12, 53, 0
15, 128384, Note_on_c, 12, 57, 0
15, 128400, Note_on_c, 12, 57, 52
15, 128400, Note_on_c, 12, 60, 52
15, 128504, Note_on_c, 12, 57, 0
15, 128504, Note_on_c, 12, 60, 0
15, 128520, Note_on_c, 12, 57, 52
15, 128520, Note_on_c, 12, 53, 52
15, 128624, Note_on_c, 12, 57, 0
15, 128624, Note_on_c, 12, 53, 0
15, 128640, Note_on_c, 12, 57, 52
15, 128640, Note_on_c, 12, 53, 52
15, 128744, Note_on_c, 12, 57, 0
15, 128744, Note_on_c, 12, 53, 0
15, 128758, Control_c, 12, 11, 96
15, 128760, Control_c, 12, 11, 96
15, 128760, Note_on_c, 12, 60, 68
15, 128760, Note_on_c, 12, 57, 68
15, 128820, Control_c, 12, 11, 97
15, 128864, Note_on_c, 12, 60, 0
15, 128864, Note_on_c, 12, 57, 0
15, 128880, Control_c, 12, 11, 99
15, 128880, Note_on_c, 12, 53, 68
15, 128880, Note_on_c, 12, 57, 68
15, 128940, Control_c, 12, 11, 100
15, 128984, Note_on_c, 12, 53, 0
15, 128984, Note_on_c, 12, 57, 0
15, 129000, Control_c, 12, 11, 101
15, 129000, Note_on_c, 12, 53, 68
15, 129000, Note_on_c, 12, 57, 68
15, 129060, Control_c, 12, 11, 102
15, 129104, Note_on_c, 12, 53, 0
15, 129104, Note_on_c, 12, 57, 0
15, 129120, Note_on_c, 12, 60, 68
15, 129120, Note_on_c, 12, 57, 68
15, 129120, Control_c, 12, 11, 104
15, 129180, Control_c, 12, 11, 105
15, 129224, Note_on_c, 12, 60, 0
15, 129224, Note_on_c, 12, 57, 0
15, 129240, Note_on_c, 12, 53, 68
15, 129240, Note_on_c, 12, 57, 68
15, 129240, Control_c, 12, 11, 106
15, 129300, Control_c, 12, 11, 108
15, 129344, Note_on_c, 12, 53, 0
15, 129344, Note_on_c, 12, 57, 0
15, 129360, Control_c, 12, 11, 109
15, 129360, Note_on_c, 12, 57, 68
15, 129360, Note_on_c, 12, 53, 68
15, 129420, Control_c, 12, 11, 110
15, 129464, Note_on_c, 12, 57, 0
15, 129464, Note_on_c, 12, 53, 0
15, 129480, Note_on_c, 12, 60, 68
15, 129480, Control_c, 12, 11, 112
15, 129480, Note_on_c, 12, 58, 68
15, 129540, Control_c, 12, 11, 113
15, 129584, Note_on_c, 12, 60, 0
15, 129584, Note_on_c, 12, 58, 0
15, 129600, Control_c, 12, 11, 114
15, 129600, Note_on_c, 12, 52, 68
15, 129600, Note_on_c, 12, 48, 68
15, 129660, Control_c, 12, 11, 115
15, 129704, Note_on_c, 12, 52, 0
15, 129704, Note_on_c, 12, 48, 0
15, 129720, Note_on_c, 12, 52, 68
15, 129720, Control_c, 12, 11, 117
15, 129720, Note_on_c, 12, 48, 68
15, 129780, Control_c, 12, 11, 118
15, 129824, Note_on_c, 12, 52, 0
15, 129824, Note_on_c, 12, 48, 0
15, 129840, Note_on_c, 12, 58, 68
15, 129840, Note_on_c, 12, 60, 68
15, 129840, Control_c, 12, 11, 119
15, 129900, Control_c, 12, 11, 121
15, 129944, Note_on_c, 12, 58, 0
15, 129944, Note_on_c, 12, 60, 0
15, 129960, Note_on_c, 12, 52, 68
15, 129960, Note_on_c, 12, 55, 68
15, 129960, Control_c, 12, 11, 122
15, 130020, Control_c, 12, 11, 123
15, 130064, Note_on_c, 12, 52, 0
15, 130064, Note_on_c, 12, 55, 0
15, 130080, Control_c, 12, 11, 124
15, 130080, Note_on_c, 12, 55, 68
15, 130080, Note_on_c, 12, 52, 68
15, 130140, Control_c, 12, 11, 127
15, 130184, Note_on_c, 12, 55, 0
15, 130184, Note_on_c, 12, 52, 0
15, 130200, Note_on_c, 12, 53, 52
15, 130200, Note_on_c, 12, 57, 52
15, 130304, Note_on_c, 12, 53, 0
15, 130304, Note_on_c, 12, 57, 0
15, 130320, Note_on_c, 12, 48, 52
15, 130320, Note_on_c, 12, 52, 52
15, 130424, Note_on_c, 12, 48, 0
15, 130424, Note_on_c, 12, 52, 0
15, 130440, Note_on_c, 12, 48, 52
15, 130440, Note_on_c, 12, 52, 52
15, 130544, Note_on_c, 12, 48, 0
15, 130544, Note_on_c, 12, 52, 0
15, 130560, Note_on_c, 12, 53, 52
15, 130560, Note_on_c, 12, 57, 52
15, 130664, Note_on_c, 12, 53, 0
15, 130664, Note_on_c, 12, 57, 0
15, 130680, Note_on_c, 12, 48, 52
15, 130680, Note_on_c, 12, 53, 52
15, 130784, Note_on_c, 12, 48, 0
15, 130784, Note_on_c, 12, 53, 0
15, 130800, Note_on_c, 12, 53, 52
15, 130800, Note_on_c, 12, 48, 52
15, 130904, Note_on_c, 12, 53, 0
15, 130904, Note_on_c, 12, 48, 0
15, 130920, Note_on_c, 12, 55, 52
15, 130920, Note_on_c, 12, 52, 52
15, 131024, Note_on_c, 12, 55, 0
15, 131024, Note_on_c, 12, 52, 0
15, 131040, Note_on_c, 12, 52, 52
15, 131040, Note_on_c, 12, 48, 52
15, 131144, Note_on_c, 12, 52, 0
15, 131144, Note_on_c, 12, 48, 0
15, 131160, Note_on_c, 12, 52, 52
15, 131160, Note_on_c, 12, 48, 52
15, 131264, Note_on_c, 12, 52, 0
15, 131264, Note_on_c, 12, 48, 0
15, 131280, Note_on_c, 12, 52, 52
15, 131280, Note_on_c, 12, 55, 52
15, 131384, Note_on_c, 12, 52, 0
15, 131384, Note_on_c, 12, 55, 0
15, 131400, Note_on_c, 12, 48, 52
15, 131400, Note_on_c, 12, 52, 52
15, 131504, Note_on_c, 12, 48, 0
15, 131504, Note_on_c, 12, 52, 0
15, 131520, Note_on_c, 12, 52, 52
15, 131520, Note_on_c, 12, 48, 52
15, 131624, Note_on_c, 12, 52, 0
15, 131624, Note_on_c, 12, 48, 0
15, 131640, Note_on_c, 12, 57, 52
15, 131640, Note_on_c, 12, 53, 52
15, 131744, Note_on_c, 12, 57, 0
15, 131744, Note_on_c, 12, 53, 0
15, 131760, Note_on_c, 12, 48, 52
15, 131760, Note_on_c, 12, 53, 52
15, 131864, Note_on_c, 12, 48, 0
15, 131864, Note_on_c, 12, 53, 0
15, 131880, Note_on_c, 12, 48, 52
15, 131880, Note_on_c, 12, 53, 52
15, 131984, Note_on_c, 12, 48, 0
15, 131984, Note_on_c, 12, 53, 0
15, 132000, Note_on_c, 12, 53, 52
15, 132000, Note_on_c, 12, 57, 52
15, 132104, Note_on_c, 12, 53, 0
15, 132104, Note_on_c, 12, 57, 0
15, 132120, Note_on_c, 12, 53, 52
15, 132120, Note_on_c, 12, 48, 52
15, 132224, Note_on_c, 12, 53, 0
15, 132224, Note_on_c, 12, 48, 0
15, 132240, Note_on_c, 12, 48, 52
15, 132240, Note_on_c, 12, 53, 52
15, 132344, Note_on_c, 12, 48, 0
15, 132344, Note_on_c, 12, 53, 0
15, 132360, Note_on_c, 12, 55, 52
15, 132360, Note_on_c, 12, 52, 52
15, 132464, Note_on_c, 12, 55, 0
15, 132464, Note_on_c, 12, 52, 0
15, 132480, Note_on_c, 12, 48, 52
15, 132480, Note_on_c, 12, 52, 52
15, 132584, Note_on_c, 12, 48, 0
15, 132584, Note_on_c, 12, 52, 0
15, 132600, Note_on_c, 12, 48, 52
15, 132600, Note_on_c, 12, 52, 52
15, 132704, Note_on_c, 12, 48, 0
15, 132704, Note_on_c, 12, 52, 0
15, 132720, Note_on_c, 12, 52, 52
15, 132720, Note_on_c, 12, 55, 52
15, 132824, Note_on_c, 12, 52, 0
15, 132824, Note_on_c, 12, 55, 0
15, 132840, Note_on_c, 12, 52, 52
15, 132840, Note_on_c, 12, 48, 52
15, 132944, Note_on_c, 12, 52, 0
15, 132944, Note_on_c, 12, 48, 0
15, 132960, Note_on_c, 12, 48, 52
15, 132960, Note_on_c, 12, 52, 52
15, 133064, Note_on_c, 12, 48, 0
15, 133064, Note_on_c, 12, 52, 0
15, 133080, Note_on_c, 12, 65, 52
15, 133319, Note_on_c, 12, 65, 0
15, 133320, Note_on_c, 12, 70, 52
15, 133439, Note_on_c, 12, 70, 0
15, 133440, Note_on_c, 12, 72, 52
15, 133559, Note_on_c, 12, 72, 0
15, 133560, Note_on_c, 12, 69, 52
15, 133679, Note_on_c, 12, 69, 0
15, 133680, Note_on_c, 12, 70, 52
15, 133784, Note_on_c, 12, 70, 0
15, 133800, Note_on_c, 12, 67, 52
15, 134039, Note_on_c, 12, 67, 0
15, 134040, Note_on_c, 12, 69, 52
15, 134159, Note_on_c, 12, 69, 0
15, 134160, Note_on_c, 12, 70, 52
15, 134279, Note_on_c, 12, 70, 0
15, 134280, Note_on_c, 12, 67, 52
15, 134399, Note_on_c, 12, 67, 0
15, 134400, Note_on_c, 12, 69, 52
15, 134504, Note_on_c, 12, 69, 0
15, 134518, Control_c, 12, 11, 80
15, 134520, Note_on_c, 12, 65, 76
15, 134580, Control_c, 12, 11, 82
15, 134640, Control_c, 12, 11, 84
15, 134700, Control_c, 12, 11, 86
15, 134759, Note_on_c, 12, 65, 0
15, 134760, Control_c, 12, 11, 88
15, 134760, Note_on_c, 12, 58, 76
15, 134820, Control_c, 12, 11, 90
15, 134879, Note_on_c, 12, 58, 0
15, 134880, Note_on_c, 12, 60, 76
15, 134880, Control_c, 12, 11, 92
15, 134940, Control_c, 12, 11, 94
15, 134999, Note_on_c, 12, 60, 0
15, 135000, Note_on_c, 12, 57, 76
15, 135000, Control_c, 12, 11, 96
15, 135060, Control_c, 12, 11, 98
15, 135119, Note_on_c, 12, 57, 0
15, 135120, Note_on_c, 12, 58, 76
15, 135120, Control_c, 12, 11, 100
15, 135180, Control_c, 12, 11, 102
15, 135224, Note_on_c, 12, 58, 0
15, 135240, Control_c, 12, 11, 104
15, 135240, Note_on_c, 12, 55, 76
15, 135300, Control_c, 12, 11, 105
15, 135360, Control_c, 12, 11, 107
15, 135420, Control_c, 12, 11, 109
15, 135479, Note_on_c, 12, 55, 0
15, 135480, Control_c, 12, 11, 111
15, 135480, Note_on_c, 12, 57, 76
15, 135540, Control_c, 12, 11, 113
15, 135599, Note_on_c, 12, 57, 0
15, 135600, Note_on_c, 12, 58, 76
15, 135600, Control_c, 12, 11, 115
15, 135660, Control_c, 12, 11, 117
15, 135719, Note_on_c, 12, 58, 0
15, 135720, Control_c, 12, 11, 119
15, 135720, Note_on_c, 12, 55, 76
15, 135780, Control_c, 12, 11, 121
15, 135839, Note_on_c, 12, 55, 0
15, 135840, Note_on_c, 12, 57, 76
15, 135840, Control_c, 12, 11, 123
15, 135900, Control_c, 12, 11, 127
15, 135944, Note_on_c, 12, 57, 0
15, 135960, Note_on_c, 12, 53, 76
15, 136079, Note_on_c, 12, 53, 0
15, 137400, Note_on_c, 12, 53, 84
15, 137459, Note_on_c, 12, 53, 0
15, 137460, Note_on_c, 12, 53, 76
15, 137864, Note_on_c, 12, 53, 0
15, 137880, Note_on_c, 12, 53, 84
15, 137939, Note_on_c, 12, 53, 0
15, 137940, Note_on_c, 12, 53, 76
15, 138344, Note_on_c, 12, 53, 0
15, 138360, Note_on_c, 12, 58, 84
15, 138419, Note_on_c, 12, 58, 0
15, 138420, Note_on_c, 12, 58, 76
15, 138824, Note_on_c, 12, 58, 0
15, 138840, Note_on_c, 12, 53, 84
15, 138899, Note_on_c, 12, 53, 0
15, 138900, Note_on_c, 12, 53, 76
15, 139079, Note_on_c, 12, 53, 0
15, 139080, Note_on_c, 12, 58, 76
15, 139304, Note_on_c, 12, 58, 0
15, 139320, Note_on_c, 12, 53, 84
15, 139379, Note_on_c, 12, 53, 0
15, 139380, Note_on_c, 12, 53, 76
15, 139784, Note_on_c, 12, 53, 0
15, 139800, Note_on_c, 12, 53, 84
15, 139859, Note_on_c, 12, 53, 0
15, 139860, Note_on_c, 12, 53, 76
15, 140264, Note_on_c, 12, 53, 0
15, 140280, Note_on_c, 12, 58, 84
15, 140339, Note_on_c, 12, 58, 0
15, 140340, Note_on_c, 12, 58, 76
15, 140744, Note_on_c, 12, 58, 0
15, 140760, Note_on_c, 12, 53, 84
15, 140819, Note_on_c, 12, 53, 0
15, 140820, Note_on_c, 12, 53, 76
15, 140999, Note_on_c, 12, 53, 0
15, 141000, Note_on_c, 12, 58, 76
15, 141224, Note_on_c, 12, 58, 0
15, 141240, Note_on_c, 12, 53, 84
15, 141299, Note_on_c, 12, 53, 0
15, 141300, Note_on_c, 12, 53, 76
15, 141704, Note_on_c, 12, 53, 0
15, 141720, Note_on_c, 12, 53, 84
15, 141779, Note_on_c, 12, 53, 0
15, 141780, Note_on_c, 12, 53, 76
15, 142184, Note_on_c, 12, 53, 0
15, 142200, Note_on_c, 12, 58, 84
15, 142259, Note_on_c, 12, 58, 0
15, 142260, Note_on_c, 12, 58, 76
15, 142664, Note_on_c, 12, 58, 0
15, 142680, Note_on_c, 12, 53, 84
15, 142739, Note_on_c, 12, 53, 0
15, 142740, Note_on_c, 12, 53, 76
15, 142919, Note_on_c, 12, 53, 0
15, 142920, Note_on_c, 12, 58, 76
15, 143144, Note_on_c, 12, 58, 0
15, 143160, Note_on_c, 12, 53, 84
15, 143219, Note_on_c, 12, 53, 0
15, 143220, Note_on_c, 12, 53, 76
15, 143624, Note_on_c, 12, 53, 0
15, 143640, Note_on_c, 12, 53, 84
15, 143699, Note_on_c, 12, 53, 0
15, 143700, Note_on_c, 12, 53, 76
15, 144104, Note_on_c, 12, 53, 0
15, 144120, Note_on_c, 12, 58, 84
15, 144179, Note_on_c, 12, 58, 0
15, 144180, Note_on_c, 12, 58, 76
15, 144584, Note_on_c, 12, 58, 0
15, 144600, Note_on_c, 12, 53, 84
15, 144659, Note_on_c, 12, 53, 0
15, 144660, Note_on_c, 12, 53, 76
15, 144839, Note_on_c, 12, 53, 0
15, 144840, Note_on_c, 12, 58, 76
15, 145064, Note_on_c, 12, 58, 0
15, 145080, Note_on_c, 12, 60, 84
15, 145199, Note_on_c, 12, 60, 0
15, 145200, Note_on_c, 12, 62, 76
15, 145259, Note_on_c, 12, 62, 0
15, 145260, Note_on_c, 12, 60, 76
15, 145319, Note_on_c, 12, 60, 0
15, 145320, Note_on_c, 12, 55, 76
15, 145439, Note_on_c, 12, 55, 0
15, 145440, Note_on_c, 12, 57, 76
15, 145499, Note_on_c, 12, 57, 0
15, 145500, Note_on_c, 12, 59, 76
15, 145551, Note_on_c, 12, 59, 0
15, 145560, Note_on_c, 12, 60, 84
15, 145679, Note_on_c, 12, 60, 0
15, 145680, Note_on_c, 12, 62, 76
15, 145739, Note_on_c, 12, 62, 0
15, 145740, Note_on_c, 12, 60, 76
15, 145791, Note_on_c, 12, 60, 0
15, 145800, Note_on_c, 12, 55, 76
15, 146024, Note_on_c, 12, 55, 0
15, 146040, Note_on_c, 12, 53, 84
15, 146099, Note_on_c, 12, 53, 0
15, 146100, Note_on_c, 12, 55, 76
15, 146159, Note_on_c, 12, 55, 0
15, 146160, Note_on_c, 12, 57, 76
15, 146219, Note_on_c, 12, 57, 0
15, 146220, Note_on_c, 12, 58, 76
15, 146271, Note_on_c, 12, 58, 0
15, 146280, Note_on_c, 12, 60, 76
15, 146369, Note_on_c, 12, 60, 0
15, 146400, Note_on_c, 12, 60, 76
15, 146429, Note_on_c, 12, 60, 0
15, 146430, Note_on_c, 12, 62, 76
15, 146511, Note_on_c, 12, 62, 0
15, 146520, Note_on_c, 12, 55, 76
15, 146624, Note_on_c, 12, 55, 0
15, 146640, Note_on_c, 12, 55, 76
15, 146669, Note_on_c, 12, 55, 0
15, 146670, Note_on_c, 12, 60, 76
15, 146751, Note_on_c, 12, 60, 0
15, 146760, Note_on_c, 12, 53, 76
15, 146984, Note_on_c, 12, 53, 0
15, 147000, Note_on_c, 12, 60, 76
15, 147119, Note_on_c, 12, 60, 0
15, 147120, Note_on_c, 12, 62, 76
15, 147179, Note_on_c, 12, 62, 0
15, 147180, Note_on_c, 12, 60, 76
15, 147239, Note_on_c, 12, 60, 0
15, 147240, Note_on_c, 12, 55, 76
15, 147359, Note_on_c, 12, 55, 0
15, 147360, Note_on_c, 12, 57, 76
15, 147419, Note_on_c, 12, 57, 0
15, 147420, Note_on_c, 12, 59, 76
15, 147471, Note_on_c, 12, 59, 0
15, 147480, Note_on_c, 12, 60, 76
15, 147599, Note_on_c, 12, 60, 0
15, 147600, Note_on_c, 12, 62, 76
15, 147659, Note_on_c, 12, 62, 0
15, 147660, Note_on_c, 12, 60, 76
15, 147711, Note_on_c, 12, 60, 0
15, 147720, Note_on_c, 12, 55, 76
15, 147944, Note_on_c, 12, 55, 0
15, 147960, Note_on_c, 12, 53, 76
15, 148019, Note_on_c, 12, 53, 0
15, 148020, Note_on_c, 12, 55, 76
15, 148079, Note_on_c, 12, 55, 0
15, 148080, Note_on_c, 12, 57, 76
15, 148139, Note_on_c, 12, 57, 0
15, 148140, Note_on_c, 12, 58, 76
15, 148191, Note_on_c, 12, 58, 0
15, 148200, Note_on_c, 12, 60, 76
15, 148289, Note_on_c, 12, 60, 0
15, 148320, Note_on_c, 12, 60, 76
15, 148349, Note_on_c, 12, 60, 0
15, 148350, Note_on_c, 12, 62, 76
15, 148431, Note_on_c, 12, 62, 0
15, 148440, Note_on_c, 12, 55, 76
15, 148529, Note_on_c, 12, 55, 0
15, 148560, Note_on_c, 12, 55, 76
15, 148589, Note_on_c, 12, 55, 0
15, 148590, Note_on_c, 12, 60, 76
15, 148671, Note_on_c, 12, 60, 0
15, 148680, Note_on_c, 12, 53, 76
15, 148904, Note_on_c, 12, 53, 0
15, 148920, Note_on_c, 12, 60, 84
15, 149039, Note_on_c, 12, 60, 0
15, 149040, Note_on_c, 12, 62, 84
15, 149099, Note_on_c, 12, 62, 0
15, 149100, Note_on_c, 12, 60, 84
15, 149159, Note_on_c, 12, 60, 0
15, 149160, Note_on_c, 12, 55, 84
15, 149279, Note_on_c, 12, 55, 0
15, 149280, Note_on_c, 12, 57, 84
15, 149339, Note_on_c, 12, 57, 0
15, 149340, Note_on_c, 12, 59, 84
15, 149391, Note_on_c, 12, 59, 0
15, 149400, Note_on_c, 12, 60, 84
15, 149519, Note_on_c, 12, 60, 0
15, 149520, Note_on_c, 12, 62, 84
15, 149579, Note_on_c, 12, 62, 0
15, 149580, Note_on_c, 12, 60, 84
15, 149639, Note_on_c, 12, 60, 0
15, 149640, Note_on_c, 12, 59, 84
15, 149759, Note_on_c, 12, 59, 0
15, 149760, Note_on_c, 12, 60, 84
15, 149819, Note_on_c, 12, 60, 0
15, 149820, Note_on_c, 12, 62, 84
15, 149871, Note_on_c, 12, 62, 0
15, 149880, Note_on_c, 12, 64, 84
15, 149999, Note_on_c, 12, 64, 0
15, 150000, Note_on_c, 12, 62, 84
15, 150059, Note_on_c, 12, 62, 0
15, 150060, Note_on_c, 12, 64, 84
15, 150111, Note_on_c, 12, 64, 0
15, 150120, Note_on_c, 12, 65, 84
15, 150239, Note_on_c, 12, 65, 0
15, 150240, Note_on_c, 12, 67, 84
15, 150299, Note_on_c, 12, 67, 0
15, 150300, Note_on_c, 12, 69, 84
15, 150351, Note_on_c, 12, 69, 0
15, 150360, Note_on_c, 12, 67, 84
15, 150479, Note_on_c, 12, 67, 0
15, 150480, Note_on_c, 12, 69, 84
15, 150539, Note_on_c, 12, 69, 0
15, 150540, Note_on_c, 12, 66, 84
15, 150591, Note_on_c, 12, 66, 0
15, 150600, Note_on_c, 12, 67, 84
15, 150704, Note_on_c, 12, 67, 0
15, 150720, Note_on_c, 12, 55, 84
15, 150824, Note_on_c, 12, 55, 0
15, 150840, Note_on_c, 12, 60, 84
15, 150959, Note_on_c, 12, 60, 0
15, 150960, Note_on_c, 12, 62, 84
15, 151019, Note_on_c, 12, 62, 0
15, 151020, Note_on_c, 12, 60, 84
15, 151079, Note_on_c, 12, 60, 0
15, 151080, Note_on_c, 12, 55, 84
15, 151199, Note_on_c, 12, 55, 0
15, 151200, Note_on_c, 12, 57, 84
15, 151259, Note_on_c, 12, 57, 0
15, 151260, Note_on_c, 12, 59, 84
15, 151311, Note_on_c, 12, 59, 0
15, 151320, Note_on_c, 12, 60, 84
15, 151439, Note_on_c, 12, 60, 0
15, 151440, Note_on_c, 12, 62, 84
15, 151499, Note_on_c, 12, 62, 0
15, 151500, Note_on_c, 12, 60, 84
15, 151559, Note_on_c, 12, 60, 0
15, 151560, Note_on_c, 12, 59, 84
15, 151679, Note_on_c, 12, 59, 0
15, 151680, Note_on_c, 12, 60, 84
15, 151739, Note_on_c, 12, 60, 0
15, 151740, Note_on_c, 12, 62, 84
15, 151791, Note_on_c, 12, 62, 0
15, 151800, Note_on_c, 12, 64, 84
15, 151919, Note_on_c, 12, 64, 0
15, 151920, Note_on_c, 12, 62, 84
15, 151979, Note_on_c, 12, 62, 0
15, 151980, Note_on_c, 12, 64, 84
15, 152031, Note_on_c, 12, 64, 0
15, 152040, Note_on_c, 12, 65, 84
15, 152159, Note_on_c, 12, 65, 0
15, 152160, Note_on_c, 12, 67, 84
15, 152219, Note_on_c, 12, 67, 0
15, 152220, Note_on_c, 12, 69, 84
15, 152271, Note_on_c, 12, 69, 0
15, 152280, Note_on_c, 12, 67, 84
15, 152399, Note_on_c, 12, 67, 0
15, 152400, Note_on_c, 12, 69, 84
15, 152459, Note_on_c, 12, 69, 0
15, 152460, Note_on_c, 12, 66, 84
15, 152511, Note_on_c, 12, 66, 0
15, 152520, Note_on_c, 12, 67, 84
15, 152624, Note_on_c, 12, 67, 0
15, 152640, Note_on_c, 12, 55, 84
15, 152744, Note_on_c, 12, 55, 0
15, 152758, Control_c, 12, 11, 112
15, 152760, Note_on_c, 12, 60, 92
15, 152760, Control_c, 12, 11, 112
15, 152849, Note_on_c, 12, 60, 0
15, 152880, Note_on_c, 12, 62, 92
15, 152931, Note_on_c, 12, 62, 0
15, 152940, Note_on_c, 12, 60, 92
15, 152952, Control_c, 12, 11, 113
15, 152991, Note_on_c, 12, 60, 0
15, 153000, Note_on_c, 12, 55, 92
15, 153104, Note_on_c, 12, 55, 0
15, 153120, Note_on_c, 12, 57, 92
15, 153144, Control_c, 12, 11, 114
15, 153171, Note_on_c, 12, 57, 0
15, 153180, Note_on_c, 12, 59, 92
15, 153231, Note_on_c, 12, 59, 0
15, 153240, Note_on_c, 12, 60, 92
15, 153329, Note_on_c, 12, 60, 0
15, 153336, Control_c, 12, 11, 115
15, 153360, Note_on_c, 12, 62, 92
15, 153411, Note_on_c, 12, 62, 0
15, 153420, Note_on_c, 12, 60, 92
15, 153471, Note_on_c, 12, 60, 0
15, 153480, Note_on_c, 12, 59, 92
15, 153528, Control_c, 12, 11, 116
15, 153584, Note_on_c, 12, 59, 0
15, 153600, Note_on_c, 12, 60, 92
15, 153651, Note_on_c, 12, 60, 0
15, 153660, Note_on_c, 12, 62, 92
15, 153711, Note_on_c, 12, 62, 0
15, 153720, Note_on_c, 12, 64, 92
15, 153720, Control_c, 12, 11, 117
15, 153809, Note_on_c, 12, 64, 0
15, 153840, Note_on_c, 12, 65, 92
15, 153891, Note_on_c, 12, 65, 0
15, 153900, Note_on_c, 12, 64, 92
15, 153912, Control_c, 12, 11, 118
15, 153951, Note_on_c, 12, 64, 0
15, 153960, Note_on_c, 12, 62, 92
15, 154064, Note_on_c, 12, 62, 0
15, 154080, Note_on_c, 12, 64, 92
15, 154104, Control_c, 12, 11, 119
15, 154131, Note_on_c, 12, 64, 0
15, 154140, Note_on_c, 12, 65, 92
15, 154191, Note_on_c, 12, 65, 0
15, 154200, Note_on_c, 12, 67, 92
15, 154289, Note_on_c, 12, 67, 0
15, 154296, Control_c, 12, 11, 120
15, 154320, Note_on_c, 12, 69, 92
15, 154371, Note_on_c, 12, 69, 0
15, 154380, Note_on_c, 12, 65, 92
15, 154431, Note_on_c, 12, 65, 0
15, 154440, Note_on_c, 12, 67, 92
15, 154488, Control_c, 12, 11, 121
15, 154544, Note_on_c, 12, 67, 0
15, 154560, Note_on_c, 12, 69, 92
15, 154611, Note_on_c, 12, 69, 0
15, 154620, Note_on_c, 12, 71, 92
15, 154671, Note_on_c, 12, 71, 0
15, 154680, Control_c, 12, 11, 122
15, 154680, Note_on_c, 12, 72, 92
15, 154769, Note_on_c, 12, 72, 0
15, 154800, Note_on_c, 12, 74, 92
15, 154851, Note_on_c, 12, 74, 0
15, 154860, Note_on_c, 12, 71, 92
15, 154872, Control_c, 12, 11, 123
15, 154911, Note_on_c, 12, 71, 0
15, 154920, Note_on_c, 12, 72, 92
15, 155024, Note_on_c, 12, 72, 0
15, 155040, Note_on_c, 12, 74, 92
15, 155064, Control_c, 12, 11, 124
15, 155091, Note_on_c, 12, 74, 0
15, 155100, Note_on_c, 12, 71, 92
15, 155151, Note_on_c, 12, 71, 0
15, 155160, Note_on_c, 12, 72, 92
15, 155249, Note_on_c, 12, 72, 0
15, 155256, Control_c, 12, 11, 125
15, 155280, Note_on_c, 12, 74, 92
15, 155331, Note_on_c, 12, 74, 0
15, 155340, Note_on_c, 12, 71, 92
15, 155391, Note_on_c, 12, 71, 0
15, 155400, Note_on_c, 12, 72, 92
15, 155448, Control_c, 12, 11, 127
15, 155504, Note_on_c, 12, 72, 0
15, 155520, Note_on_c, 12, 74, 92
15, 155571, Note_on_c, 12, 74, 0
15, 155580, Note_on_c, 12, 71, 92
15, 155631, Note_on_c, 12, 71, 0
15, 155640, Note_on_c, 12, 48, 84
15, 155640, Note_on_c, 12, 55, 84
15, 155640, Note_on_c, 12, 72, 84
15, 155640, Note_on_c, 12, 64, 84
15, 155759, Note_on_c, 12, 48, 0
15, 155759, Note_on_c, 12, 55, 0
15, 155759, Note_on_c, 12, 72, 0
15, 155759, Note_on_c, 12, 64, 0
15, 156120, Note_on_c, 12, 48, 52
15, 156120, Note_on_c, 12, 60, 52
15, 156239, Note_on_c, 12, 48, 0
15, 156239, Note_on_c, 12, 60, 0
15, 156480, Note_on_c, 12, 60, 44
15, 156569, Note_on_c, 12, 60, 0
15, 156600, Note_on_c, 12, 65, 44
15, 156689, Note_on_c, 12, 65, 0
15, 156720, Note_on_c, 12, 60, 44
15, 156809, Note_on_c, 12, 60, 0
15, 156840, Note_on_c, 12, 62, 44
15, 156929, Note_on_c, 12, 62, 0
15, 156960, Note_on_c, 12, 60, 44
15, 157049, Note_on_c, 12, 60, 0
15, 157080, Note_on_c, 12, 57, 44
15, 157169, Note_on_c, 12, 57, 0
15, 157200, Note_on_c, 12, 58, 44
15, 157289, Note_on_c, 12, 58, 0
15, 157320, Note_on_c, 12, 57, 44
15, 157409, Note_on_c, 12, 57, 0
15, 157440, Note_on_c, 12, 53, 44
15, 157529, Note_on_c, 12, 53, 0
15, 157560, Note_on_c, 12, 55, 44
15, 157649, Note_on_c, 12, 55, 0
15, 157680, Note_on_c, 12, 57, 44
15, 157769, Note_on_c, 12, 57, 0
15, 157800, Note_on_c, 12, 53, 44
15, 157889, Note_on_c, 12, 53, 0
15, 157920, Note_on_c, 12, 55, 44
15, 158009, Note_on_c, 12, 55, 0
15, 158040, Note_on_c, 12, 57, 44
15, 158129, Note_on_c, 12, 57, 0
15, 158160, Note_on_c, 12, 53, 44
15, 158249, Note_on_c, 12, 53, 0
15, 158280, Note_on_c, 12, 55, 44
15, 158369, Note_on_c, 12, 55, 0
15, 158400, Note_on_c, 12, 53, 44
15, 158489, Note_on_c, 12, 53, 0
15, 158520, Note_on_c, 12, 50, 44
15, 158609, Note_on_c, 12, 50, 0
15, 158640, Note_on_c, 12, 52, 44
15, 158729, Note_on_c, 12, 52, 0
15, 158760, Note_on_c, 12, 50, 44
15, 158849, Note_on_c, 12, 50, 0
15, 158880, Note_on_c, 12, 45, 44
15, 158969, Note_on_c, 12, 45, 0
15, 159000, Note_on_c, 12, 45, 44
15, 159089, Note_on_c, 12, 45, 0
15, 159120, Note_on_c, 12, 45, 44
15, 159239, Note_on_c, 12, 45, 0
15, 159358, Control_c, 12, 11, 64
15, 159360, Note_on_c, 12, 45, 76
15, 159479, Note_on_c, 12, 45, 0
15, 159480, Note_on_c, 12, 50, 76
15, 159719, Note_on_c, 12, 50, 0
15, 159720, Note_on_c, 12, 54, 76
15, 159839, Note_on_c, 12, 54, 0
15, 159840, Note_on_c, 12, 57, 76
15, 159959, Note_on_c, 12, 57, 0
15, 159960, Note_on_c, 12, 54, 76
15, 160064, Note_on_c, 12, 54, 0
15, 160080, Note_on_c, 12, 54, 76
15, 160199, Note_on_c, 12, 54, 0
15, 160200, Control_c, 12, 11, 64
15, 160200, Note_on_c, 12, 57, 76
15, 160260, Control_c, 12, 11, 67
15, 160319, Note_on_c, 12, 57, 0
15, 160320, Control_c, 12, 11, 69
15, 160320, Note_on_c, 12, 61, 76
15, 160380, Control_c, 12, 11, 72
15, 160439, Note_on_c, 12, 61, 0
15, 160440, Note_on_c, 12, 62, 76
15, 160440, Control_c, 12, 11, 75
15, 160499, Note_on_c, 12, 62, 0
15, 160500, Control_c, 12, 11, 77
15, 160500, Note_on_c, 12, 59, 76
15, 160559, Note_on_c, 12, 59, 0
15, 160560, Note_on_c, 12, 57, 76
15, 160560, Control_c, 12, 11, 80
15, 160620, Control_c, 12, 11, 82
15, 160679, Note_on_c, 12, 57, 0
15, 160680, Control_c, 12, 11, 85
15, 160680, Note_on_c, 12, 61, 76
15, 160740, Control_c, 12, 11, 88
15, 160799, Note_on_c, 12, 61, 0
15, 160800, Control_c, 12, 11, 90
15, 160800, Note_on_c, 12, 62, 76
15, 160859, Note_on_c, 12, 62, 0
15, 160860, Control_c, 12, 11, 93
15, 160860, Note_on_c, 12, 58, 76
15, 160919, Note_on_c, 12, 58, 0
15, 160920, Note_on_c, 12, 57, 76
15, 160920, Control_c, 12, 11, 96
15, 160980, Control_c, 12, 11, 98
15, 161039, Note_on_c, 12, 57, 0
15, 161040, Control_c, 12, 11, 101
15, 161040, Note_on_c, 12, 60, 76
15, 161100, Control_c, 12, 11, 103
15, 161159, Note_on_c, 12, 60, 0
15, 161160, Note_on_c, 12, 62, 76
15, 161160, Control_c, 12, 11, 106
15, 161219, Note_on_c, 12, 62, 0
15, 161220, Control_c, 12, 11, 109
15, 161220, Note_on_c, 12, 58, 76
15, 161279, Note_on_c, 12, 58, 0
15, 161280, Note_on_c, 12, 57, 76
15, 161280, Control_c, 12, 11, 111
15, 161340, Control_c, 12, 11, 114
15, 161399, Note_on_c, 12, 57, 0
15, 161400, Control_c, 12, 11, 117
15, 161400, Note_on_c, 12, 60, 76
15, 161460, Control_c, 12, 11, 119
15, 161519, Note_on_c, 12, 60, 0
15, 161520, Control_c, 12, 11, 122
15, 161520, Note_on_c, 12, 62, 76
15, 161579, Note_on_c, 12, 62, 0
15, 161580, Control_c, 12, 11, 124
15, 161580, Note_on_c, 12, 58, 76
15, 161638, Control_c, 12, 11, 127
15, 161639, Note_on_c, 12, 58, 0
15, 161640, Note_on_c, 12, 65, 76
15, 161640, Note_on_c, 12, 57, 76
15, 161759, Note_on_c, 12, 65, 0
15, 161759, Note_on_c, 12, 57, 0
15, 162360, Note_on_c, 12, 60, 52
15, 162479, Note_on_c, 12, 60, 0
15, 162960, Program_c, 12, 45
15, 163080, Note_on_c, 12, 53, 48
15, 163199, Note_on_c, 12, 53, 0
15, 163440, Note_on_c, 12, 53, 48
15, 163559, Note_on_c, 12, 53, 0
15, 163800, Note_on_c, 12, 53, 48
15, 163919, Note_on_c, 12, 53, 0
15, 164160, Note_on_c, 12, 53, 48
15, 164279, Note_on_c, 12, 53, 0
15, 164520, Note_on_c, 12, 53, 48
15, 164639, Note_on_c, 12, 53, 0
15, 164880, Note_on_c, 12, 53, 48
15, 164999, Note_on_c, 12, 53, 0
15, 165240, Note_on_c, 12, 53, 48
15, 165359, Note_on_c, 12, 53, 0
15, 165600, Note_on_c, 12, 53, 48
15, 165719, Note_on_c, 12, 53, 0
15, 165838, Program_c, 12, 48
15, 165838, Control_c, 12, 11, 64
15, 165840, Note_on_c, 12, 60, 84
15, 165959, Note_on_c, 12, 60, 0
15, 165960, Note_on_c, 12, 65, 84
15, 166079, Note_on_c, 12, 65, 0
15, 166080, Note_on_c, 12, 60, 84
15, 166080, Control_c, 12, 11, 64
15, 166130, Control_c, 12, 11, 67
15, 166180, Control_c, 12, 11, 69
15, 166199, Note_on_c, 12, 60, 0
15, 166200, Note_on_c, 12, 62, 84
15, 166230, Control_c, 12, 11, 72
15, 166280, Control_c, 12, 11, 75
15, 166319, Note_on_c, 12, 62, 0
15, 166320, Note_on_c, 12, 60, 84
15, 166330, Control_c, 12, 11, 77
15, 166380, Control_c, 12, 11, 80
15, 166430, Control_c, 12, 11, 82
15, 166439, Note_on_c, 12, 60, 0
15, 166440, Note_on_c, 12, 57, 84
15, 166480, Control_c, 12, 11, 85
15, 166530, Control_c, 12, 11, 88
15, 166559, Note_on_c, 12, 57, 0
15, 166560, Note_on_c, 12, 58, 84
15, 166580, Control_c, 12, 11, 90
15, 166630, Control_c, 12, 11, 93
15, 166679, Note_on_c, 12, 58, 0
15, 166680, Control_c, 12, 11, 96
15, 166680, Note_on_c, 12, 57, 84
15, 166730, Control_c, 12, 11, 98
15, 166780, Control_c, 12, 11, 101
15, 166799, Note_on_c, 12, 57, 0
15, 166800, Note_on_c, 12, 53, 84
15, 166830, Control_c, 12, 11, 103
15, 166880, Control_c, 12, 11, 106
15, 166919, Note_on_c, 12, 53, 0
15, 166920, Note_on_c, 12, 55, 84
15, 166930, Control_c, 12, 11, 109
15, 166980, Control_c, 12, 11, 111
15, 167030, Control_c, 12, 11, 114
15, 167039, Note_on_c, 12, 55, 0
15, 167040, Note_on_c, 12, 57, 84
15, 167080, Control_c, 12, 11, 117
15, 167130, Control_c, 12, 11, 119
15, 167159, Note_on_c, 12, 57, 0
15, 167160, Note_on_c, 12, 53, 84
15, 167180, Control_c, 12, 11, 122
15, 167230, Control_c, 12, 11, 124
15, 167264, Note_on_c, 12, 53, 0
15, 167278, Control_c, 12, 11, 127
15, 167280, Note_on_c, 12, 60, 84
15, 167369, Note_on_c, 12, 60, 0
15, 167400, Note_on_c, 12, 65, 84
15, 167489, Note_on_c, 12, 65, 0
15, 167520, Note_on_c, 12, 60, 84
15, 167609, Note_on_c, 12, 60, 0
15, 167640, Note_on_c, 12, 62, 84
15, 167729, Note_on_c, 12, 62, 0
15, 167760, Note_on_c, 12, 60, 84
15, 167849, Note_on_c, 12, 60, 0
15, 167880, Note_on_c, 12, 57, 84
15, 167969, Note_on_c, 12, 57, 0
15, 168000, Note_on_c, 12, 58, 84
15, 168089, Note_on_c, 12, 58, 0
15, 168120, Note_on_c, 12, 57, 92
15, 168209, Note_on_c, 12, 57, 0
15, 168240, Note_on_c, 12, 53, 84
15, 168329, Note_on_c, 12, 53, 0
15, 168360, Note_on_c, 12, 55, 84
15, 168449, Note_on_c, 12, 55, 0
15, 168480, Note_on_c, 12, 57, 92
15, 168569, Note_on_c, 12, 57, 0
15, 168600, Note_on_c, 12, 53, 84
15, 168689, Note_on_c, 12, 53, 0
15, 168720, Note_on_c, 12, 55, 84
15, 168809, Note_on_c, 12, 55, 0
15, 168840, Note_on_c, 12, 57, 92
15, 168929, Note_on_c, 12, 57, 0
15, 168960, Note_on_c, 12, 53, 84
15, 169049, Note_on_c, 12, 53, 0
15, 169080, Note_on_c, 12, 55, 84
15, 169169, Note_on_c, 12, 55, 0
15, 169200, Note_on_c, 12, 57, 92
15, 169289, Note_on_c, 12, 57, 0
15, 169320, Note_on_c, 12, 53, 84
15, 169409, Note_on_c, 12, 53, 0
15, 169440, Note_on_c, 12, 55, 84
15, 169529, Note_on_c, 12, 55, 0
15, 169560, Note_on_c, 12, 57, 92
15, 169620, Control_c, 12, 11, 112
15, 169899, Note_on_c, 12, 57, 0
15, 169920, Note_on_c, 12, 55, 92
15, 170139, Note_on_c, 12, 55, 0
15, 170160, Note_on_c, 12, 53, 92
15, 170259, Note_on_c, 12, 53, 0
15, 170280, Note_on_c, 12, 52, 92
15, 170499, Note_on_c, 12, 52, 0
15, 170520, Note_on_c, 12, 50, 92
15, 170619, Note_on_c, 12, 50, 0
15, 170640, Note_on_c, 12, 48, 92
15, 170859, Note_on_c, 12, 48, 0
15, 170880, Note_on_c, 12, 55, 92
15, 170979, Note_on_c, 12, 55, 0
15, 171000, Note_on_c, 12, 60, 92
15, 171060, Control_c, 12, 11, 112
15, 171339, Note_on_c, 12, 60, 0
15, 171358, Control_c, 12, 11, 127
15, 171360, Note_on_c, 12, 62, 92
15, 171420, Control_c, 12, 11, 112
15, 171699, Note_on_c, 12, 62, 0
15, 171718, Control_c, 12, 11, 127
15, 171720, Note_on_c, 12, 60, 92
15, 171780, Control_c, 12, 11, 112
15, 172059, Note_on_c, 12, 60, 0
15, 172080, Note_on_c, 12, 48, 92
15, 172140, Control_c, 12, 11, 112
15, 172419, Note_on_c, 12, 48, 0
15, 172438, Control_c, 12, 11, 127
15, 172440, Note_on_c, 12, 53, 84
15, 172559, Note_on_c, 12, 53, 0
15, 172680, Note_on_c, 12, 69, 84
15, 172779, Note_on_c, 12, 69, 0
15, 172800, Note_on_c, 12, 67, 84
15, 173019, Note_on_c, 12, 67, 0
15, 173040, Note_on_c, 12, 65, 84
15, 173139, Note_on_c, 12, 65, 0
15, 173160, Note_on_c, 12, 64, 84
15, 173379, Note_on_c, 12, 64, 0
15, 173400, Note_on_c, 12, 62, 84
15, 173499, Note_on_c, 12, 62, 0
15, 173520, Note_on_c, 12, 60, 84
15, 173739, Note_on_c, 12, 60, 0
15, 173760, Note_on_c, 12, 67, 84
15, 173859, Note_on_c, 12, 67, 0
15, 173880, Note_on_c, 12, 60, 92
15, 173940, Control_c, 12, 11, 112
15, 174219, Note_on_c, 12, 60, 0
15, 174238, Control_c, 12, 11, 127
15, 174240, Note_on_c, 12, 62, 92
15, 174300, Control_c, 12, 11, 112
15, 174579, Note_on_c, 12, 62, 0
15, 174598, Control_c, 12, 11, 127
15, 174600, Note_on_c, 12, 69, 92
15, 174660, Control_c, 12, 11, 112
15, 174939, Note_on_c, 12, 69, 0
15, 174958, Control_c, 12, 11, 127
15, 174960, Note_on_c, 12, 48, 92
15, 174960, Note_on_c, 12, 60, 92
15, 175020, Control_c, 12, 11, 112
15, 175299, Note_on_c, 12, 48, 0
15, 175299, Note_on_c, 12, 60, 0
15, 175318, Control_c, 12, 11, 127
15, 175320, Note_on_c, 12, 53, 92
15, 175371, Note_on_c, 12, 53, 0
15, 175380, Note_on_c, 12, 57, 84
15, 175431, Note_on_c, 12, 57, 0
15, 175440, Note_on_c, 12, 60, 84
15, 175491, Note_on_c, 12, 60, 0
15, 175500, Note_on_c, 12, 65, 84
15, 175551, Note_on_c, 12, 65, 0
15, 175560, Note_on_c, 12, 69, 84
15, 175679, Note_on_c, 12, 69, 0
15, 176400, Note_on_c, 12, 60, 84
15, 176499, Note_on_c, 12, 60, 0
15, 176520, Note_on_c, 12, 60, 84
15, 176619, Note_on_c, 12, 60, 0
15, 176640, Note_on_c, 12, 60, 84
15, 176739, Note_on_c, 12, 60, 0
15, 176760, Note_on_c, 12, 53, 92
15, 176811, Note_on_c, 12, 53, 0
15, 176820, Note_on_c, 12, 57, 84
15, 176871, Note_on_c, 12, 57, 0
15, 176880, Note_on_c, 12, 60, 84
15, 176931, Note_on_c, 12, 60, 0
15, 176940, Note_on_c, 12, 65, 84
15, 176991, Note_on_c, 12, 65, 0
15, 177000, Note_on_c, 12, 69, 84
15, 177119, Note_on_c, 12, 69, 0
15, 177840, Note_on_c, 12, 60, 84
15, 177939, Note_on_c, 12, 60, 0
15, 177960, Note_on_c, 12, 60, 84
15, 178059, Note_on_c, 12, 60, 0
15, 178080, Note_on_c, 12, 60, 84
15, 178199, Note_on_c, 12, 60, 0
15, 178199, End_track
16, 0, Start_track
16, 0, Title_t, "Cello"
16, 0, MIDI_port, 0
16, 0, Control_c, 14, 7, 96
16, 0, Control_c, 14, 10, 90
16, 0, Program_c, 14, 48
16, 0, Control_c, 14, 11, 127
16, 1440, Note_on_c, 14, 55, 44
16, 1529, Note_on_c, 14, 55, 0
16, 1560, Note_on_c, 14, 57, 44
16, 1649, Note_on_c, 14, 57, 0
16, 1680, Note_on_c, 14, 53, 44
16, 1769, Note_on_c, 14, 53, 0
16, 1800, Note_on_c, 14, 55, 44
16, 1889, Note_on_c, 14, 55, 0
16, 1920, Note_on_c, 14, 53, 44
16, 2009, Note_on_c, 14, 53, 0
16, 2040, Note_on_c, 14, 50, 44
16, 2129, Note_on_c, 14, 50, 0
16, 2160, Note_on_c, 14, 52, 44
16, 2249, Note_on_c, 14, 52, 0
16, 2280, Note_on_c, 14, 50, 44
16, 2369, Note_on_c, 14, 50, 0
16, 2400, Note_on_c, 14, 45, 44
16, 2489, Note_on_c, 14, 45, 0
16, 2520, Note_on_c, 14, 45, 44
16, 2609, Note_on_c, 14, 45, 0
16, 2640, Note_on_c, 14, 45, 44
16, 2759, Note_on_c, 14, 45, 0
16, 2880, Note_on_c, 14, 45, 44
16, 2969, Note_on_c, 14, 45, 0
16, 3000, Note_on_c, 14, 50, 44
16, 3119, Note_on_c, 14, 50, 0
16, 3360, Note_on_c, 14, 50, 44
16, 3479, Note_on_c, 14, 50, 0
16, 3720, Note_on_c, 14, 50, 44
16, 3839, Note_on_c, 14, 50, 0
16, 4080, Note_on_c, 14, 50, 44
16, 4199, Note_on_c, 14, 50, 0
16, 4440, Note_on_c, 14, 50, 44
16, 4559, Note_on_c, 14, 50, 0
16, 4800, Note_on_c, 14, 50, 44
16, 4919, Note_on_c, 14, 50, 0
16, 5160, Note_on_c, 14, 50, 44
16, 5279, Note_on_c, 14, 50, 0
16, 5400, Note_on_c, 14, 45, 44
16, 5489, Note_on_c, 14, 45, 0
16, 5520, Note_on_c, 14, 50, 44
16, 5639, Note_on_c, 14, 50, 0
16, 7200, Note_on_c, 14, 55, 44
16, 7289, Note_on_c, 14, 55, 0
16, 7320, Note_on_c, 14, 57, 44
16, 7409, Note_on_c, 14, 57, 0
16, 7440, Note_on_c, 14, 53, 44
16, 7529, Note_on_c, 14, 53, 0
16, 7560, Note_on_c, 14, 55, 44
16, 7649, Note_on_c, 14, 55, 0
16, 7680, Note_on_c, 14, 53, 44
16, 7769, Note_on_c, 14, 53, 0
16, 7800, Note_on_c, 14, 50, 44
16, 7889, Note_on_c, 14, 50, 0
16, 7920, Note_on_c, 14, 52, 44
16, 8009, Note_on_c, 14, 52, 0
16, 8040, Note_on_c, 14, 50, 44
16, 8129, Note_on_c, 14, 50, 0
16, 8160, Note_on_c, 14, 45, 44
16, 8249, Note_on_c, 14, 45, 0
16, 8280, Note_on_c, 14, 45, 44
16, 8369, Note_on_c, 14, 45, 0
16, 8400, Note_on_c, 14, 45, 44
16, 8519, Note_on_c, 14, 45, 0
16, 8640, Note_on_c, 14, 45, 44
16, 8729, Note_on_c, 14, 45, 0
16, 8760, Note_on_c, 14, 50, 44
16, 8879, Note_on_c, 14, 50, 0
16, 9120, Note_on_c, 14, 50, 44
16, 9239, Note_on_c, 14, 50, 0
16, 9480, Note_on_c, 14, 50, 44
16, 9599, Note_on_c, 14, 50, 0
16, 9840, Note_on_c, 14, 50, 44
16, 9959, Note_on_c, 14, 50, 0
16, 10200, Note_on_c, 14, 50, 44
16, 10319, Note_on_c, 14, 50, 0
16, 10560, Note_on_c, 14, 50, 44
16, 10679, Note_on_c, 14, 50, 0
16, 10920, Note_on_c, 14, 50, 44
16, 11039, Note_on_c, 14, 50, 0
16, 11160, Note_on_c, 14, 45, 44
16, 11249, Note_on_c, 14, 45, 0
16, 11280, Note_on_c, 14, 50, 44
16, 11399, Note_on_c, 14, 50, 0
16, 13920, Note_on_c, 14, 43, 44
16, 14024, Note_on_c, 14, 43, 0
16, 14040, Note_on_c, 14, 45, 44
16, 14144, Note_on_c, 14, 45, 0
16, 14160, Note_on_c, 14, 47, 44
16, 14264, Note_on_c, 14, 47, 0
16, 14280, Note_on_c, 14, 43, 44
16, 14384, Note_on_c, 14, 43, 0
16, 14400, Note_on_c, 14, 43, 44
16, 14504, Note_on_c, 14, 43, 0
16, 14520, Note_on_c, 14, 48, 44
16, 14639, Note_on_c, 14, 48, 0
16, 14880, Note_on_c, 14, 48, 44
16, 14999, Note_on_c, 14, 48, 0
16, 15240, Note_on_c, 14, 48, 44
16, 15359, Note_on_c, 14, 48, 0
16, 15600, Note_on_c, 14, 48, 44
16, 15719, Note_on_c, 14, 48, 0
16, 15960, Note_on_c, 14, 48, 44
16, 16079, Note_on_c, 14, 48, 0
16, 16320, Note_on_c, 14, 48, 44
16, 16439, Note_on_c, 14, 48, 0
16, 16680, Note_on_c, 14, 48, 44
16, 16799, Note_on_c, 14, 48, 0
16, 16920, Note_on_c, 14, 43, 44
16, 17024, Note_on_c, 14, 43, 0
16, 17040, Note_on_c, 14, 48, 44
16, 17159, Note_on_c, 14, 48, 0
16, 17278, Control_c, 14, 11, 64
16, 17280, Note_on_c, 14, 48, 84
16, 17340, Control_c, 14, 11, 67
16, 17399, Note_on_c, 14, 48, 0
16, 17400, Note_on_c, 14, 60, 84
16, 17400, Control_c, 14, 11, 69
16, 17460, Control_c, 14, 11, 72
16, 17519, Note_on_c, 14, 60, 0
16, 17520, Control_c, 14, 11, 75
16, 17520, Note_on_c, 14, 57, 84
16, 17580, Control_c, 14, 11, 77
16, 17639, Note_on_c, 14, 57, 0
16, 17640, Control_c, 14, 11, 80
16, 17640, Note_on_c, 14, 58, 84
16, 17700, Control_c, 14, 11, 82
16, 17759, Note_on_c, 14, 58, 0
16, 17760, Note_on_c, 14, 57, 84
16, 17760, Control_c, 14, 11, 85
16, 17820, Control_c, 14, 11, 88
16, 17879, Note_on_c, 14, 57, 0
16, 17880, Note_on_c, 14, 53, 84
16, 17880, Control_c, 14, 11, 90
16, 17940, Control_c, 14, 11, 93
16, 17999, Note_on_c, 14, 53, 0
16, 18000, Note_on_c, 14, 55, 84
16, 18000, Control_c, 14, 11, 96
16, 18060, Control_c, 14, 11, 98
16, 18119, Note_on_c, 14, 55, 0
16, 18120, Control_c, 14, 11, 101
16, 18120, Note_on_c, 14, 53, 84
16, 18180, Control_c, 14, 11, 103
16, 18239, Note_on_c, 14, 53, 0
16, 18240, Note_on_c, 14, 48, 84
16, 18240, Control_c, 14, 11, 106
16, 18300, Control_c, 14, 11, 109
16, 18359, Note_on_c, 14, 48, 0
16, 18360, Note_on_c, 14, 55, 84
16, 18360, Control_c, 14, 11, 111
16, 18420, Control_c, 14, 11, 114
16, 18479, Note_on_c, 14, 55, 0
16, 18480, Note_on_c, 14, 57, 84
16, 18480, Control_c, 14, 11, 117
16, 18540, Control_c, 14, 11, 119
16, 18599, Note_on_c, 14, 57, 0
16, 18600, Note_on_c, 14, 53, 84
16, 18600, Control_c, 14, 11, 122
16, 18660, Control_c, 14, 11, 127
16, 18704, Note_on_c, 14, 53, 0
16, 18720, Note_on_c, 14, 48, 84
16, 18809, Note_on_c, 14, 48, 0
16, 18840, Note_on_c, 14, 53, 84
16, 18929, Note_on_c, 14, 53, 0
16, 18960, Note_on_c, 14, 48, 84
16, 19049, Note_on_c, 14, 48, 0
16, 19080, Note_on_c, 14, 50, 84
16, 19169, Note_on_c, 14, 50, 0
16, 19200, Note_on_c, 14, 48, 84
16, 19289, Note_on_c, 14, 48, 0
16, 19320, Note_on_c, 14, 45, 84
16, 19409, Note_on_c, 14, 45, 0
16, 19440, Note_on_c, 14, 46, 84
16, 19529, Note_on_c, 14, 46, 0
16, 19560, Note_on_c, 14, 45, 92
16, 19649, Note_on_c, 14, 45, 0
16, 19680, Note_on_c, 14, 41, 84
16, 19769, Note_on_c, 14, 41, 0
16, 19800, Note_on_c, 14, 43, 84
16, 19889, Note_on_c, 14, 43, 0
16, 19920, Note_on_c, 14, 45, 92
16, 20009, Note_on_c, 14, 45, 0
16, 20040, Note_on_c, 14, 41, 84
16, 20129, Note_on_c, 14, 41, 0
16, 20160, Note_on_c, 14, 43, 84
16, 20249, Note_on_c, 14, 43, 0
16, 20280, Note_on_c, 14, 45, 92
16, 20369, Note_on_c, 14, 45, 0
16, 20400, Note_on_c, 14, 41, 84
16, 20489, Note_on_c, 14, 41, 0
16, 20520, Note_on_c, 14, 43, 84
16, 20609, Note_on_c, 14, 43, 0
16, 20640, Note_on_c, 14, 45, 92
16, 20729, Note_on_c, 14, 45, 0
16, 20760, Note_on_c, 14, 41, 84
16, 20849, Note_on_c, 14, 41, 0
16, 20880, Note_on_c, 14, 43, 84
16, 20969, Note_on_c, 14, 43, 0
16, 21000, Note_on_c, 14, 45, 92
16, 21060, Control_c, 14, 11, 112
16, 21344, Note_on_c, 14, 45, 0
16, 21360, Note_on_c, 14, 43, 92
16, 21584, Note_on_c, 14, 43, 0
16, 21600, Note_on_c, 14, 41, 92
16, 21704, Note_on_c, 14, 41, 0
16, 21720, Note_on_c, 14, 40, 92
16, 21944, Note_on_c, 14, 40, 0
16, 21960, Note_on_c, 14, 38, 92
16, 22064, Note_on_c, 14, 38, 0
16, 22080, Note_on_c, 14, 36, 92
16, 22304, Note_on_c, 14, 36, 0
16, 22320, Note_on_c, 14, 46, 92
16, 22424, Note_on_c, 14, 46, 0
16, 22438, Control_c, 14, 11, 127
16, 22440, Note_on_c, 14, 45, 92
16, 22500, Control_c, 14, 11, 112
16, 22784, Note_on_c, 14, 45, 0
16, 22798, Control_c, 14, 11, 127
16, 22800, Note_on_c, 14, 46, 92
16, 22860, Control_c, 14, 11, 112
16, 23144, Note_on_c, 14, 46, 0
16, 23158, Control_c, 14, 11, 127
16, 23160, Note_on_c, 14, 48, 92
16, 23220, Control_c, 14, 11, 112
16, 23504, Note_on_c, 14, 48, 0
16, 23518, Control_c, 14, 11, 127
16, 23520, Note_on_c, 14, 48, 92
16, 23580, Control_c, 14, 11, 112
16, 23864, Note_on_c, 14, 48, 0
16, 23880, Note_on_c, 14, 53, 92
16, 23999, Note_on_c, 14, 53, 0
16, 24120, Note_on_c, 14, 57, 92
16, 24224, Note_on_c, 14, 57, 0
16, 24240, Note_on_c, 14, 55, 92
16, 24464, Note_on_c, 14, 55, 0
16, 24480, Note_on_c, 14, 53, 92
16, 24584, Note_on_c, 14, 53, 0
16, 24600, Note_on_c, 14, 52, 92
16, 24824, Note_on_c, 14, 52, 0
16, 24840, Note_on_c, 14, 50, 92
16, 24944, Note_on_c, 14, 50, 0
16, 24960, Note_on_c, 14, 48, 92
16, 25184, Note_on_c, 14, 48, 0
16, 25200, Note_on_c, 14, 58, 92
16, 25304, Note_on_c, 14, 58, 0
16, 25318, Control_c, 14, 11, 127
16, 25320, Note_on_c, 14, 57, 92
16, 25380, Control_c, 14, 11, 112
16, 25664, Note_on_c, 14, 57, 0
16, 25678, Control_c, 14, 11, 127
16, 25680, Note_on_c, 14, 58, 92
16, 25740, Control_c, 14, 11, 112
16, 26024, Note_on_c, 14, 58, 0
16, 26038, Control_c, 14, 11, 127
16, 26040, Note_on_c, 14, 60, 92
16, 26100, Control_c, 14, 11, 112
16, 26384, Note_on_c, 14, 60, 0
16, 26398, Control_c, 14, 11, 127
16, 26400, Note_on_c, 14, 48, 92
16, 26460, Control_c, 14, 11, 112
16, 26744, Note_on_c, 14, 48, 0
16, 26758, Control_c, 14, 11, 127
16, 26760, Note_on_c, 14, 53, 92
16, 26879, Note_on_c, 14, 53, 0
16, 27840, Note_on_c, 14, 48, 84
16, 27944, Note_on_c, 14, 48, 0
16, 27960, Note_on_c, 14, 48, 84
16, 28064, Note_on_c, 14, 48, 0
16, 28080, Note_on_c, 14, 48, 84
16, 28184, Note_on_c, 14, 48, 0
16, 28200, Note_on_c, 14, 41, 92
16, 28319, Note_on_c, 14, 41, 0
16, 29280, Note_on_c, 14, 48, 84
16, 29384, Note_on_c, 14, 48, 0
16, 29400, Note_on_c, 14, 48, 84
16, 29504, Note_on_c, 14, 48, 0
16, 29520, Note_on_c, 14, 48, 84
16, 29624, Note_on_c, 14, 48, 0
16, 29640, Note_on_c, 14, 41, 92
16, 29759, Note_on_c, 14, 41, 0
16, 30360, Note_on_c, 14, 41, 92
16, 30479, Note_on_c, 14, 41, 0
16, 45720, Control_c, 14, 11, 96
16, 45840, Note_on_c, 14, 55, 68
16, 46184, Note_on_c, 14, 55, 0
16, 46200, Note_on_c, 14, 48, 68
16, 46544, Note_on_c, 14, 48, 0
16, 46560, Note_on_c, 14, 43, 68
16, 46904, Note_on_c, 14, 43, 0
16, 46920, Note_on_c, 14, 36, 68
16, 46920, Control_c, 14, 11, 96
16, 46980, Control_c, 14, 11, 99
16, 47040, Control_c, 14, 11, 101
16, 47100, Control_c, 14, 11, 104
16, 47160, Control_c, 14, 11, 106
16, 47220, Control_c, 14, 11, 109
16, 47264, Note_on_c, 14, 36, 0
16, 47280, Control_c, 14, 11, 112
16, 47280, Note_on_c, 14, 48, 68
16, 47340, Control_c, 14, 11, 114
16, 47400, Control_c, 14, 11, 117
16, 47460, Control_c, 14, 11, 119
16, 47520, Control_c, 14, 11, 122
16, 47580, Control_c, 14, 11, 127
16, 47624, Note_on_c, 14, 48, 0
16, 47640, Note_on_c, 14, 41, 52
16, 47759, Note_on_c, 14, 41, 0
16, 53400, Note_on_c, 14, 41, 52
16, 54824, Note_on_c, 14, 41, 0
16, 54838, Control_c, 14, 11, 80
16, 54840, Note_on_c, 14, 53, 76
16, 55079, Note_on_c, 14, 53, 0
16, 55080, Note_on_c, 14, 58, 76
16, 55199, Note_on_c, 14, 58, 0
16, 55200, Note_on_c, 14, 60, 76
16, 55319, Note_on_c, 14, 60, 0
16, 55320, Note_on_c, 14, 57, 76
16, 55439, Note_on_c, 14, 57, 0
16, 55440, Note_on_c, 14, 58, 76
16, 55544, Note_on_c, 14, 58, 0
16, 55560, Note_on_c, 14, 55, 76
16, 55799, Note_on_c, 14, 55, 0
16, 55800, Note_on_c, 14, 57, 76
16, 55919, Note_on_c, 14, 57, 0
16, 55920, Note_on_c, 14, 58, 76
16, 56039, Note_on_c, 14, 58, 0
16, 56040, Note_on_c, 14, 55, 76
16, 56159, Note_on_c, 14, 55, 0
16, 56160, Note_on_c, 14, 57, 76
16, 56264, Note_on_c, 14, 57, 0
16, 56280, Control_c, 14, 11, 80
16, 56280, Note_on_c, 14, 41, 76
16, 56340, Control_c, 14, 11, 82
16, 56400, Control_c, 14, 11, 84
16, 56460, Control_c, 14, 11, 86
16, 56519, Note_on_c, 14, 41, 0
16, 56520, Control_c, 14, 11, 88
16, 56520, Note_on_c, 14, 46, 76
16, 56580, Control_c, 14, 11, 90
16, 56639, Note_on_c, 14, 46, 0
16, 56640, Control_c, 14, 11, 92
16, 56640, Note_on_c, 14, 48, 76
16, 56700, Control_c, 14, 11, 94
16, 56759, Note_on_c, 14, 48, 0
16, 56760, Note_on_c, 14, 45, 76
16, 56760, Control_c, 14, 11, 96
16, 56820, Control_c, 14, 11, 98
16, 56879, Note_on_c, 14, 45, 0
16, 56880, Control_c, 14, 11, 100
16, 56880, Note_on_c, 14, 46, 76
16, 56940, Control_c, 14, 11, 102
16, 56984, Note_on_c, 14, 46, 0
16, 57000, Control_c, 14, 11, 104
16, 57000, Note_on_c, 14, 43, 76
16, 57060, Control_c, 14, 11, 105
16, 57120, Control_c, 14, 11, 107
16, 57180, Control_c, 14, 11, 109
16, 57239, Note_on_c, 14, 43, 0
16, 57240, Note_on_c, 14, 45, 76
16, 57240, Control_c, 14, 11, 111
16, 57300, Control_c, 14, 11, 113
16, 57359, Note_on_c, 14, 45, 0
16, 57360, Note_on_c, 14, 46, 76
16, 57360, Control_c, 14, 11, 115
16, 57420, Control_c, 14, 11, 117
16, 57479, Note_on_c, 14, 46, 0
16, 57480, Control_c, 14, 11, 119
16, 57480, Note_on_c, 14, 43, 76
16, 57540, Control_c, 14, 11, 121
16, 57599, Note_on_c, 14, 43, 0
16, 57600, Control_c, 14, 11, 123
16, 57600, Note_on_c, 14, 45, 76
16, 57660, Control_c, 14, 11, 127
16, 57704, Note_on_c, 14, 45, 0
16, 57720, Note_on_c, 14, 41, 76
16, 57839, Note_on_c, 14, 41, 0
16, 57960, Note_on_c, 14, 46, 76
16, 58064, Note_on_c, 14, 46, 0
16, 58080, Note_on_c, 14, 48, 76
16, 58184, Note_on_c, 14, 48, 0
16, 58200, Note_on_c, 14, 45, 76
16, 58304, Note_on_c, 14, 45, 0
16, 58320, Note_on_c, 14, 46, 76
16, 58424, Note_on_c, 14, 46, 0
16, 58440, Note_on_c, 14, 46, 76
16, 58544, Note_on_c, 14, 46, 0
16, 58560, Note_on_c, 14, 43, 76
16, 58664, Note_on_c, 14, 43, 0
16, 58680, Note_on_c, 14, 45, 76
16, 58784, Note_on_c, 14, 45, 0
16, 58800, Note_on_c, 14, 45, 76
16, 58904, Note_on_c, 14, 45, 0
16, 58920, Note_on_c, 14, 41, 76
16, 59024, Note_on_c, 14, 41, 0
16, 59040, Note_on_c, 14, 43, 76
16, 59144, Note_on_c, 14, 43, 0
16, 59160, Note_on_c, 14, 41, 84
16, 59219, Note_on_c, 14, 41, 0
16, 59220, Note_on_c, 14, 41, 76
16, 59624, Note_on_c, 14, 41, 0
16, 59640, Note_on_c, 14, 41, 84
16, 59699, Note_on_c, 14, 41, 0
16, 59700, Note_on_c, 14, 41, 76
16, 60104, Note_on_c, 14, 41, 0
16, 60120, Note_on_c, 14, 46, 84
16, 60179, Note_on_c, 14, 46, 0
16, 60180, Note_on_c, 14, 46, 76
16, 60584, Note_on_c, 14, 46, 0
16, 60600, Note_on_c, 14, 41, 84
16, 60659, Note_on_c, 14, 41, 0
16, 60660, Note_on_c, 14, 41, 76
16, 60839, Note_on_c, 14, 41, 0
16, 60840, Note_on_c, 14, 46, 76
16, 61064, Note_on_c, 14, 46, 0
16, 61080, Note_on_c, 14, 41, 84
16, 61139, Note_on_c, 14, 41, 0
16, 61140, Note_on_c, 14, 41, 76
16, 61544, Note_on_c, 14, 41, 0
16, 61560, Note_on_c, 14, 41, 84
16, 61619, Note_on_c, 14, 41, 0
16, 61620, Note_on_c, 14, 41, 76
16, 62024, Note_on_c, 14, 41, 0
16, 62040, Note_on_c, 14, 46, 84
16, 62099, Note_on_c, 14, 46, 0
16, 62100, Note_on_c, 14, 46, 76
16, 62504, Note_on_c, 14, 46, 0
16, 62520, Note_on_c, 14, 41, 84
16, 62579, Note_on_c, 14, 41, 0
16, 62580, Note_on_c, 14, 41, 76
16, 62759, Note_on_c, 14, 41, 0
16, 62760, Note_on_c, 14, 46, 76
16, 62984, Note_on_c, 14, 46, 0
16, 63000, Note_on_c, 14, 41, 84
16, 63059, Note_on_c, 14, 41, 0
16, 63060, Note_on_c, 14, 41, 76
16, 63464, Note_on_c, 14, 41, 0
16, 63480, Note_on_c, 14, 41, 84
16, 63539, Note_on_c, 14, 41, 0
16, 63540, Note_on_c, 14, 41, 76
16, 63944, Note_on_c, 14, 41, 0
16, 63960, Note_on_c, 14, 46, 84
16, 64019, Note_on_c, 14, 46, 0
16, 64020, Note_on_c, 14, 46, 76
16, 64424, Note_on_c, 14, 46, 0
16, 64440, Note_on_c, 14, 41, 84
16, 64499, Note_on_c, 14, 41, 0
16, 64500, Note_on_c, 14, 41, 76
16, 64679, Note_on_c, 14, 41, 0
16, 64680, Note_on_c, 14, 46, 76
16, 64904, Note_on_c, 14, 46, 0
16, 64920, Note_on_c, 14, 41, 84
16, 64979, Note_on_c, 14, 41, 0
16, 64980, Note_on_c, 14, 41, 76
16, 65384, Note_on_c, 14, 41, 0
16, 65400, Note_on_c, 14, 41, 84
16, 65459, Note_on_c, 14, 41, 0
16, 65460, Note_on_c, 14, 41, 76
16, 65864, Note_on_c, 14, 41, 0
16, 65880, Note_on_c, 14, 46, 84
16, 65939, Note_on_c, 14, 46, 0
16, 65940, Note_on_c, 14, 46, 76
16, 66344, Note_on_c, 14, 46, 0
16, 66360, Note_on_c, 14, 41, 84
16, 66419, Note_on_c, 14, 41, 0
16, 66420, Note_on_c, 14, 41, 76
16, 66599, Note_on_c, 14, 41, 0
16, 66600, Note_on_c, 14, 46, 76
16, 66839, Note_on_c, 14, 46, 0
16, 67800, Note_on_c, 14, 53, 84
16, 67859, Note_on_c, 14, 53, 0
16, 67860, Note_on_c, 14, 53, 76
16, 68264, Note_on_c, 14, 53, 0
16, 68280, Note_on_c, 14, 48, 76
16, 68519, Note_on_c, 14, 48, 0
16, 68520, Note_on_c, 14, 41, 76
16, 68759, Note_on_c, 14, 41, 0
16, 69720, Note_on_c, 14, 53, 76
16, 70184, Note_on_c, 14, 53, 0
16, 70200, Note_on_c, 14, 48, 76
16, 70424, Note_on_c, 14, 48, 0
16, 70440, Note_on_c, 14, 41, 76
16, 70664, Note_on_c, 14, 41, 0
16, 70680, Note_on_c, 14, 48, 84
16, 70799, Note_on_c, 14, 48, 0
16, 70800, Note_on_c, 14, 50, 84
16, 70859, Note_on_c, 14, 50, 0
16, 70860, Note_on_c, 14, 48, 84
16, 70919, Note_on_c, 14, 48, 0
16, 70920, Note_on_c, 14, 43, 84
16, 71039, Note_on_c, 14, 43, 0
16, 71040, Note_on_c, 14, 45, 84
16, 71099, Note_on_c, 14, 45, 0
16, 71100, Note_on_c, 14, 47, 84
16, 71151, Note_on_c, 14, 47, 0
16, 71160, Note_on_c, 14, 48, 84
16, 71279, Note_on_c, 14, 48, 0
16, 71280, Note_on_c, 14, 50, 84
16, 71339, Note_on_c, 14, 50, 0
16, 71340, Note_on_c, 14, 48, 84
16, 71399, Note_on_c, 14, 48, 0
16, 71400, Note_on_c, 14, 47, 84
16, 71519, Note_on_c, 14, 47, 0
16, 71520, Note_on_c, 14, 48, 84
16, 71579, Note_on_c, 14, 48, 0
16, 71580, Note_on_c, 14, 50, 84
16, 71631, Note_on_c, 14, 50, 0
16, 71640, Note_on_c, 14, 52, 84
16, 71759, Note_on_c, 14, 52, 0
16, 71760, Note_on_c, 14, 50, 84
16, 71819, Note_on_c, 14, 50, 0
16, 71820, Note_on_c, 14, 52, 84
16, 71871, Note_on_c, 14, 52, 0
16, 71880, Note_on_c, 14, 53, 84
16, 71999, Note_on_c, 14, 53, 0
16, 72000, Note_on_c, 14, 55, 84
16, 72059, Note_on_c, 14, 55, 0
16, 72060, Note_on_c, 14, 57, 84
16, 72111, Note_on_c, 14, 57, 0
16, 72120, Note_on_c, 14, 55, 84
16, 72239, Note_on_c, 14, 55, 0
16, 72240, Note_on_c, 14, 57, 84
16, 72299, Note_on_c, 14, 57, 0
16, 72300, Note_on_c, 14, 54, 84
16, 72351, Note_on_c, 14, 54, 0
16, 72360, Note_on_c, 14, 55, 84
16, 72464, Note_on_c, 14, 55, 0
16, 72480, Note_on_c, 14, 43, 84
16, 72584, Note_on_c, 14, 43, 0
16, 72600, Note_on_c, 14, 48, 84
16, 72719, Note_on_c, 14, 48, 0
16, 72720, Note_on_c, 14, 50, 84
16, 72779, Note_on_c, 14, 50, 0
16, 72780, Note_on_c, 14, 48, 84
16, 72839, Note_on_c, 14, 48, 0
16, 72840, Note_on_c, 14, 43, 84
16, 72959, Note_on_c, 14, 43, 0
16, 72960, Note_on_c, 14, 45, 84
16, 73019, Note_on_c, 14, 45, 0
16, 73020, Note_on_c, 14, 47, 84
16, 73071, Note_on_c, 14, 47, 0
16, 73080, Note_on_c, 14, 48, 84
16, 73199, Note_on_c, 14, 48, 0
16, 73200, Note_on_c, 14, 50, 84
16, 73259, Note_on_c, 14, 50, 0
16, 73260, Note_on_c, 14, 48, 84
16, 73319, Note_on_c, 14, 48, 0
16, 73320, Note_on_c, 14, 47, 84
16, 73439, Note_on_c, 14, 47, 0
16, 73440, Note_on_c, 14, 48, 84
16, 73499, Note_on_c, 14, 48, 0
16, 73500, Note_on_c, 14, 50, 84
16, 73551, Note_on_c, 14, 50, 0
16, 73560, Note_on_c, 14, 52, 84
16, 73679, Note_on_c, 14, 52, 0
16, 73680, Note_on_c, 14, 50, 84
16, 73739, Note_on_c, 14, 50, 0
16, 73740, Note_on_c, 14, 52, 84
16, 73791, Note_on_c, 14, 52, 0
16, 73800, Note_on_c, 14, 53, 84
16, 73919, Note_on_c, 14, 53, 0
16, 73920, Note_on_c, 14, 55, 84
16, 73979, Note_on_c, 14, 55, 0
16, 73980, Note_on_c, 14, 57, 84
16, 74031, Note_on_c, 14, 57, 0
16, 74040, Note_on_c, 14, 55, 84
16, 74159, Note_on_c, 14, 55, 0
16, 74160, Note_on_c, 14, 57, 84
16, 74219, Note_on_c, 14, 57, 0
16, 74220, Note_on_c, 14, 54, 84
16, 74271, Note_on_c, 14, 54, 0
16, 74280, Note_on_c, 14, 55, 84
16, 74384, Note_on_c, 14, 55, 0
16, 74400, Note_on_c, 14, 43, 84
16, 74504, Note_on_c, 14, 43, 0
16, 74518, Control_c, 14, 11, 112
16, 74520, Note_on_c, 14, 48, 92
16, 74609, Note_on_c, 14, 48, 0
16, 74640, Note_on_c, 14, 50, 92
16, 74691, Note_on_c, 14, 50, 0
16, 74700, Note_on_c, 14, 48, 92
16, 74712, Control_c, 14, 11, 113
16, 74751, Note_on_c, 14, 48, 0
16, 74760, Note_on_c, 14, 43, 92
16, 74864, Note_on_c, 14, 43, 0
16, 74880, Note_on_c, 14, 45, 92
16, 74904, Control_c, 14, 11, 114
16, 74931, Note_on_c, 14, 45, 0
16, 74940, Note_on_c, 14, 47, 92
16, 74991, Note_on_c, 14, 47, 0
16, 75000, Note_on_c, 14, 48, 92
16, 75089, Note_on_c, 14, 48, 0
16, 75096, Control_c, 14, 11, 115
16, 75120, Note_on_c, 14, 50, 92
16, 75171, Note_on_c, 14, 50, 0
16, 75180, Note_on_c, 14, 48, 92
16, 75231, Note_on_c, 14, 48, 0
16, 75240, Note_on_c, 14, 47, 92
16, 75288, Control_c, 14, 11, 116
16, 75344, Note_on_c, 14, 47, 0
16, 75360, Note_on_c, 14, 48, 92
16, 75411, Note_on_c, 14, 48, 0
16, 75420, Note_on_c, 14, 50, 92
16, 75471, Note_on_c, 14, 50, 0
16, 75480, Control_c, 14, 11, 117
16, 75480, Note_on_c, 14, 52, 92
16, 75569, Note_on_c, 14, 52, 0
16, 75600, Note_on_c, 14, 53, 92
16, 75651, Note_on_c, 14, 53, 0
16, 75660, Note_on_c, 14, 52, 92
16, 75672, Control_c, 14, 11, 118
16, 75711, Note_on_c, 14, 52, 0
16, 75720, Note_on_c, 14, 50, 92
16, 75824, Note_on_c, 14, 50, 0
16, 75840, Note_on_c, 14, 52, 92
16, 75864, Control_c, 14, 11, 119
16, 75891, Note_on_c, 14, 52, 0
16, 75900, Note_on_c, 14, 53, 92
16, 75951, Note_on_c, 14, 53, 0
16, 75960, Note_on_c, 14, 55, 92
16, 76049, Note_on_c, 14, 55, 0
16, 76056, Control_c, 14, 11, 120
16, 76080, Note_on_c, 14, 57, 92
16, 76131, Note_on_c, 14, 57, 0
16, 76140, Note_on_c, 14, 53, 92
16, 76191, Note_on_c, 14, 53, 0
16, 76200, Note_on_c, 14, 55, 92
16, 76248, Control_c, 14, 11, 121
16, 76304, Note_on_c, 14, 55, 0
16, 76320, Note_on_c, 14, 57, 92
16, 76371, Note_on_c, 14, 57, 0
16, 76380, Note_on_c, 14, 59, 92
16, 76431, Note_on_c, 14, 59, 0
16, 76440, Control_c, 14, 11, 122
16, 76440, Note_on_c, 14, 60, 92
16, 76529, Note_on_c, 14, 60, 0
16, 76560, Note_on_c, 14, 62, 92
16, 76611, Note_on_c, 14, 62, 0
16, 76620, Note_on_c, 14, 59, 92
16, 76632, Control_c, 14, 11, 123
16, 76671, Note_on_c, 14, 59, 0
16, 76680, Note_on_c, 14, 60, 92
16, 76784, Note_on_c, 14, 60, 0
16, 76800, Note_on_c, 14, 62, 92
16, 76824, Control_c, 14, 11, 124
16, 76851, Note_on_c, 14, 62, 0
16, 76860, Note_on_c, 14, 59, 92
16, 76911, Note_on_c, 14, 59, 0
16, 76920, Note_on_c, 14, 60, 92
16, 77009, Note_on_c, 14, 60, 0
16, 77016, Control_c, 14, 11, 125
16, 77040, Note_on_c, 14, 62, 92
16, 77091, Note_on_c, 14, 62, 0
16, 77100, Note_on_c, 14, 59, 92
16, 77151, Note_on_c, 14, 59, 0
16, 77160, Note_on_c, 14, 60, 92
16, 77208, Control_c, 14, 11, 127
16, 77264, Note_on_c, 14, 60, 0
16, 77280, Note_on_c, 14, 62, 92
16, 77331, Note_on_c, 14, 62, 0
16, 77340, Note_on_c, 14, 59, 92
16, 77391, Note_on_c, 14, 59, 0
16, 77400, Note_on_c, 14, 60, 84
16, 77519, Note_on_c, 14, 60, 0
16, 77880, Note_on_c, 14, 48, 52
16, 77999, Note_on_c, 14, 48, 0
16, 79680, Note_on_c, 14, 55, 44
16, 79769, Note_on_c, 14, 55, 0
16, 79800, Note_on_c, 14, 57, 44
16, 79889, Note_on_c, 14, 57, 0
16, 79920, Note_on_c, 14, 53, 44
16, 80009, Note_on_c, 14, 53, 0
16, 80040, Note_on_c, 14, 55, 44
16, 80129, Note_on_c, 14, 55, 0
16, 80160, Note_on_c, 14, 53, 44
16, 80249, Note_on_c, 14, 53, 0
16, 80280, Note_on_c, 14, 50, 44
16, 80369, Note_on_c, 14, 50, 0
16, 80400, Note_on_c, 14, 52, 44
16, 80489, Note_on_c, 14, 52, 0
16, 80520, Note_on_c, 14, 50, 44
16, 80609, Note_on_c, 14, 50, 0
16, 80640, Note_on_c, 14, 45, 44
16, 80729, Note_on_c, 14, 45, 0
16, 80760, Note_on_c, 14, 45, 44
16, 80849, Note_on_c, 14, 45, 0
16, 80880, Note_on_c, 14, 45, 44
16, 80999, Note_on_c, 14, 45, 0
16, 81120, Note_on_c, 14, 45, 44
16, 81209, Note_on_c, 14, 45, 0
16, 81240, Note_on_c, 14, 50, 44
16, 81359, Note_on_c, 14, 50, 0
16, 81600, Note_on_c, 14, 50, 44
16, 81719, Note_on_c, 14, 50, 0
16, 81960, Note_on_c, 14, 50, 44
16, 82079, Note_on_c, 14, 50, 0
16, 82320, Note_on_c, 14, 50, 44
16, 82439, Note_on_c, 14, 50, 0
16, 82680, Note_on_c, 14, 50, 44
16, 82799, Note_on_c, 14, 50, 0
16, 83040, Note_on_c, 14, 50, 44
16, 83159, Note_on_c, 14, 50, 0
16, 83400, Note_on_c, 14, 50, 44
16, 83519, Note_on_c, 14, 50, 0
16, 83640, Note_on_c, 14, 45, 44
16, 83729, Note_on_c, 14, 45, 0
16, 83760, Note_on_c, 14, 50, 44
16, 83879, Note_on_c, 14, 50, 0
16, 85440, Note_on_c, 14, 55, 44
16, 85529, Note_on_c, 14, 55, 0
16, 85560, Note_on_c, 14, 57, 44
16, 85649, Note_on_c, 14, 57, 0
16, 85680, Note_on_c, 14, 53, 44
16, 85769, Note_on_c, 14, 53, 0
16, 85800, Note_on_c, 14, 55, 44
16, 85889, Note_on_c, 14, 55, 0
16, 85920, Note_on_c, 14, 53, 44
16, 86009, Note_on_c, 14, 53, 0
16, 86040, Note_on_c, 14, 50, 44
16, 86129, Note_on_c, 14, 50, 0
16, 86160, Note_on_c, 14, 52, 44
16, 86249, Note_on_c, 14, 52, 0
16, 86280, Note_on_c, 14, 50, 44
16, 86369, Note_on_c, 14, 50, 0
16, 86400, Note_on_c, 14, 45, 44
16, 86489, Note_on_c, 14, 45, 0
16, 86520, Note_on_c, 14, 45, 44
16, 86609, Note_on_c, 14, 45, 0
16, 86640, Note_on_c, 14, 45, 44
16, 86759, Note_on_c, 14, 45, 0
16, 86880, Note_on_c, 14, 45, 44
16, 86969, Note_on_c, 14, 45, 0
16, 87000, Note_on_c, 14, 50, 44
16, 87119, Note_on_c, 14, 50, 0
16, 87360, Note_on_c, 14, 50, 44
16, 87479, Note_on_c, 14, 50, 0
16, 87720, Note_on_c, 14, 50, 44
16, 87839, Note_on_c, 14, 50, 0
16, 88080, Note_on_c, 14, 50, 44
16, 88199, Note_on_c, 14, 50, 0
16, 88440, Note_on_c, 14, 50, 44
16, 88559, Note_on_c, 14, 50, 0
16, 88800, Note_on_c, 14, 50, 44
16, 88919, Note_on_c, 14, 50, 0
16, 89160, Note_on_c, 14, 50, 44
16, 89279, Note_on_c, 14, 50, 0
16, 89400, Note_on_c, 14, 45, 44
16, 89489, Note_on_c, 14, 45, 0
16, 89520, Note_on_c, 14, 50, 44
16, 89639, Note_on_c, 14, 50, 0
16, 92160, Note_on_c, 14, 43, 44
16, 92264, Note_on_c, 14, 43, 0
16, 92280, Note_on_c, 14, 45, 44
16, 92384, Note_on_c, 14, 45, 0
16, 92400, Note_on_c, 14, 47, 44
16, 92504, Note_on_c, 14, 47, 0
16, 92520, Note_on_c, 14, 43, 44
16, 92624, Note_on_c, 14, 43, 0
16, 92640, Note_on_c, 14, 43, 44
16, 92744, Note_on_c, 14, 43, 0
16, 92760, Note_on_c, 14, 48, 44
16, 92879, Note_on_c, 14, 48, 0
16, 93120, Note_on_c, 14, 48, 44
16, 93239, Note_on_c, 14, 48, 0
16, 93480, Note_on_c, 14, 48, 44
16, 93599, Note_on_c, 14, 48, 0
16, 93840, Note_on_c, 14, 48, 44
16, 93959, Note_on_c, 14, 48, 0
16, 94200, Note_on_c, 14, 48, 44
16, 94319, Note_on_c, 14, 48, 0
16, 94560, Note_on_c, 14, 48, 44
16, 94679, Note_on_c, 14, 48, 0
16, 94920, Note_on_c, 14, 48, 44
16, 95039, Note_on_c, 14, 48, 0
16, 95160, Note_on_c, 14, 43, 44
16, 95264, Note_on_c, 14, 43, 0
16, 95280, Note_on_c, 14, 48, 44
16, 95399, Note_on_c, 14, 48, 0
16, 95518, Control_c, 14, 11, 64
16, 95520, Note_on_c, 14, 48, 84
16, 95580, Control_c, 14, 11, 67
16, 95639, Note_on_c, 14, 48, 0
16, 95640, Note_on_c, 14, 60, 84
16, 95640, Control_c, 14, 11, 69
16, 95700, Control_c, 14, 11, 72
16, 95759, Note_on_c, 14, 60, 0
16, 95760, Note_on_c, 14, 57, 84
16, 95760, Control_c, 14, 11, 75
16, 95820, Control_c, 14, 11, 77
16, 95879, Note_on_c, 14, 57, 0
16, 95880, Control_c, 14, 11, 80
16, 95880, Note_on_c, 14, 58, 84
16, 95940, Control_c, 14, 11, 82
16, 95999, Note_on_c, 14, 58, 0
16, 96000, Control_c, 14, 11, 85
16, 96000, Note_on_c, 14, 57, 84
16, 96060, Control_c, 14, 11, 88
16, 96119, Note_on_c, 14, 57, 0
16, 96120, Note_on_c, 14, 53, 84
16, 96120, Control_c, 14, 11, 90
16, 96180, Control_c, 14, 11, 93
16, 96239, Note_on_c, 14, 53, 0
16, 96240, Control_c, 14, 11, 96
16, 96240, Note_on_c, 14, 55, 84
16, 96300, Control_c, 14, 11, 98
16, 96359, Note_on_c, 14, 55, 0
16, 96360, Control_c, 14, 11, 101
16, 96360, Note_on_c, 14, 53, 84
16, 96420, Control_c, 14, 11, 103
16, 96479, Note_on_c, 14, 53, 0
16, 96480, Control_c, 14, 11, 106
16, 96480, Note_on_c, 14, 48, 84
16, 96540, Control_c, 14, 11, 109
16, 96599, Note_on_c, 14, 48, 0
16, 96600, Note_on_c, 14, 55, 84
16, 96600, Control_c, 14, 11, 111
16, 96660, Control_c, 14, 11, 114
16, 96719, Note_on_c, 14, 55, 0
16, 96720, Note_on_c, 14, 57, 84
16, 96720, Control_c, 14, 11, 117
16, 96780, Control_c, 14, 11, 119
16, 96839, Note_on_c, 14, 57, 0
16, 96840, Control_c, 14, 11, 122
16, 96840, Note_on_c, 14, 53, 84
16, 96900, Control_c, 14, 11, 127
16, 96944, Note_on_c, 14, 53, 0
16, 96960, Note_on_c, 14, 48, 84
16, 97049, Note_on_c, 14, 48, 0
16, 97080, Note_on_c, 14, 53, 84
16, 97169, Note_on_c, 14, 53, 0
16, 97200, Note_on_c, 14, 48, 84
16, 97289, Note_on_c, 14, 48, 0
16, 97320, Note_on_c, 14, 50, 84
16, 97409, Note_on_c, 14, 50, 0
16, 97440, Note_on_c, 14, 48, 84
16, 97529, Note_on_c, 14, 48, 0
16, 97560, Note_on_c, 14, 45, 84
16, 97649, Note_on_c, 14, 45, 0
16, 97680, Note_on_c, 14, 46, 84
16, 97769, Note_on_c, 14, 46, 0
16, 97800, Note_on_c, 14, 45, 92
16, 97889, Note_on_c, 14, 45, 0
16, 97920, Note_on_c, 14, 41, 84
16, 98009, Note_on_c, 14, 41, 0
16, 98040, Note_on_c, 14, 43, 84
16, 98129, Note_on_c, 14, 43, 0
16, 98160, Note_on_c, 14, 45, 92
16, 98249, Note_on_c, 14, 45, 0
16, 98280, Note_on_c, 14, 41, 84
16, 98369, Note_on_c, 14, 41, 0
16, 98400, Note_on_c, 14, 43, 84
16, 98489, Note_on_c, 14, 43, 0
16, 98520, Note_on_c, 14, 45, 92
16, 98609, Note_on_c, 14, 45, 0
16, 98640, Note_on_c, 14, 41, 84
16, 98729, Note_on_c, 14, 41, 0
16, 98760, Note_on_c, 14, 43, 84
16, 98849, Note_on_c, 14, 43, 0
16, 98880, Note_on_c, 14, 45, 92
16, 98969, Note_on_c, 14, 45, 0
16, 99000, Note_on_c, 14, 41, 84
16, 99089, Note_on_c, 14, 41, 0
16, 99120, Note_on_c, 14, 43, 84
16, 99209, Note_on_c, 14, 43, 0
16, 99240, Note_on_c, 14, 45, 92
16, 99300, Control_c, 14, 11, 112
16, 99584, Note_on_c, 14, 45, 0
16, 99600, Note_on_c, 14, 43, 92
16, 99824, Note_on_c, 14, 43, 0
16, 99840, Note_on_c, 14, 41, 92
16, 99944, Note_on_c, 14, 41, 0
16, 99960, Note_on_c, 14, 40, 92
16, 100184, Note_on_c, 14, 40, 0
16, 100200, Note_on_c, 14, 38, 92
16, 100304, Note_on_c, 14, 38, 0
16, 100320, Note_on_c, 14, 36, 92
16, 100544, Note_on_c, 14, 36, 0
16, 100560, Note_on_c, 14, 46, 92
16, 100664, Note_on_c, 14, 46, 0
16, 100678, Control_c, 14, 11, 127
16, 100680, Note_on_c, 14, 45, 92
16, 100740, Control_c, 14, 11, 112
16, 101024, Note_on_c, 14, 45, 0
16, 101038, Control_c, 14, 11, 127
16, 101040, Note_on_c, 14, 46, 92
16, 101100, Control_c, 14, 11, 112
16, 101384, Note_on_c, 14, 46, 0
16, 101398, Control_c, 14, 11, 127
16, 101400, Note_on_c, 14, 48, 92
16, 101460, Control_c, 14, 11, 112
16, 101744, Note_on_c, 14, 48, 0
16, 101758, Control_c, 14, 11, 127
16, 101760, Note_on_c, 14, 48, 92
16, 101820, Control_c, 14, 11, 112
16, 102104, Note_on_c, 14, 48, 0
16, 102120, Note_on_c, 14, 53, 92
16, 102239, Note_on_c, 14, 53, 0
16, 102360, Note_on_c, 14, 57, 92
16, 102464, Note_on_c, 14, 57, 0
16, 102480, Note_on_c, 14, 55, 92
16, 102704, Note_on_c, 14, 55, 0
16, 102720, Note_on_c, 14, 53, 92
16, 102824, Note_on_c, 14, 53, 0
16, 102840, Note_on_c, 14, 52, 92
16, 103064, Note_on_c, 14, 52, 0
16, 103080, Note_on_c, 14, 50, 92
16, 103184, Note_on_c, 14, 50, 0
16, 103200, Note_on_c, 14, 48, 92
16, 103424, Note_on_c, 14, 48, 0
16, 103440, Note_on_c, 14, 58, 92
16, 103544, Note_on_c, 14, 58, 0
16, 103558, Control_c, 14, 11, 127
16, 103560, Note_on_c, 14, 57, 92
16, 103620, Control_c, 14, 11, 112
16, 103904, Note_on_c, 14, 57, 0
16, 103918, Control_c, 14, 11, 127
16, 103920, Note_on_c, 14, 58, 92
16, 103980, Control_c, 14, 11, 112
16, 104264, Note_on_c, 14, 58, 0
16, 104278, Control_c, 14, 11, 127
16, 104280, Note_on_c, 14, 60, 92
16, 104340, Control_c, 14, 11, 112
16, 104624, Note_on_c, 14, 60, 0
16, 104638, Control_c, 14, 11, 127
16, 104640, Note_on_c, 14, 48, 92
16, 104700, Control_c, 14, 11, 112
16, 104984, Note_on_c, 14, 48, 0
16, 104998, Control_c, 14, 11, 127
16, 105000, Note_on_c, 14, 53, 92
16, 105119, Note_on_c, 14, 53, 0
16, 106080, Note_on_c, 14, 48, 84
16, 106184, Note_on_c, 14, 48, 0
16, 106200, Note_on_c, 14, 48, 84
16, 106304, Note_on_c, 14, 48, 0
16, 106320, Note_on_c, 14, 48, 84
16, 106424, Note_on_c, 14, 48, 0
16, 106440, Note_on_c, 14, 41, 92
16, 106559, Note_on_c, 14, 41, 0
16, 107520, Note_on_c, 14, 48, 84
16, 107624, Note_on_c, 14, 48, 0
16, 107640, Note_on_c, 14, 48, 84
16, 107744, Note_on_c, 14, 48, 0
16, 107760, Note_on_c, 14, 48, 84
16, 107864, Note_on_c, 14, 48, 0
16, 107880, Note_on_c, 14, 41, 92
16, 107999, Note_on_c, 14, 41, 0
16, 108600, Note_on_c, 14, 41, 92
16, 108719, Note_on_c, 14, 41, 0
16, 123960, Control_c, 14, 11, 96
16, 124080, Note_on_c, 14, 55, 68
16, 124424, Note_on_c, 14, 55, 0
16, 124440, Note_on_c, 14, 48, 68
16, 124784, Note_on_c, 14, 48, 0
16, 124800, Note_on_c, 14, 43, 68
16, 125144, Note_on_c, 14, 43, 0
16, 125160, Control_c, 14, 11, 96
16, 125160, Note_on_c, 14, 36, 68
16, 125220, Control_c, 14, 11, 99
16, 125280, Control_c, 14, 11, 101
16, 125340, Control_c, 14, 11, 104
16, 125400, Control_c, 14, 11, 106
16, 125460, Control_c, 14, 11, 109
16, 125504, Note_on_c, 14, 36, 0
16, 125520, Note_on_c, 14, 48, 68
16, 125520, Control_c, 14, 11, 112
16, 125580, Control_c, 14, 11, 114
16, 125640, Control_c, 14, 11, 117
16, 125700, Control_c, 14, 11, 119
16, 125760, Control_c, 14, 11, 122
16, 125820, Control_c, 14, 11, 127
16, 125864, Note_on_c, 14, 48, 0
16, 125880, Note_on_c, 14, 41, 52
16, 125999, Note_on_c, 14, 41, 0
16, 131640, Note_on_c, 14, 41, 52
16, 133064, Note_on_c, 14, 41, 0
16, 133078, Control_c, 14, 11, 80
16, 133080, Note_on_c, 14, 53, 76
16, 133319, Note_on_c, 14, 53, 0
16, 133320, Note_on_c, 14, 58, 76
16, 133439, Note_on_c, 14, 58, 0
16, 133440, Note_on_c, 14, 60, 76
16, 133559, Note_on_c, 14, 60, 0
16, 133560, Note_on_c, 14, 57, 76
16, 133679, Note_on_c, 14, 57, 0
16, 133680, Note_on_c, 14, 58, 76
16, 133784, Note_on_c, 14, 58, 0
16, 133800, Note_on_c, 14, 55, 76
16, 134039, Note_on_c, 14, 55, 0
16, 134040, Note_on_c, 14, 57, 76
16, 134159, Note_on_c, 14, 57, 0
16, 134160, Note_on_c, 14, 58, 76
16, 134279, Note_on_c, 14, 58, 0
16, 134280, Note_on_c, 14, 55, 76
16, 134399, Note_on_c, 14, 55, 0
16, 134400, Note_on_c, 14, 57, 76
16, 134504, Note_on_c, 14, 57, 0
16, 134520, Control_c, 14, 11, 80
16, 134520, Note_on_c, 14, 41, 76
16, 134580, Control_c, 14, 11, 82
16, 134640, Control_c, 14, 11, 84
16, 134700, Control_c, 14, 11, 86
16, 134759, Note_on_c, 14, 41, 0
16, 134760, Control_c, 14, 11, 88
16, 134760, Note_on_c, 14, 46, 76
16, 134820, Control_c, 14, 11, 90
16, 134879, Note_on_c, 14, 46, 0
16, 134880, Control_c, 14, 11, 92
16, 134880, Note_on_c, 14, 48, 76
16, 134940, Control_c, 14, 11, 94
16, 134999, Note_on_c, 14, 48, 0
16, 135000, Note_on_c, 14, 45, 76
16, 135000, Control_c, 14, 11, 96
16, 135060, Control_c, 14, 11, 98
16, 135119, Note_on_c, 14, 45, 0
16, 135120, Note_on_c, 14, 46, 76
16, 135120, Control_c, 14, 11, 100
16, 135180, Control_c, 14, 11, 102
16, 135224, Note_on_c, 14, 46, 0
16, 135240, Note_on_c, 14, 43, 76
16, 135240, Control_c, 14, 11, 104
16, 135300, Control_c, 14, 11, 105
16, 135360, Control_c, 14, 11, 107
16, 135420, Control_c, 14, 11, 109
16, 135479, Note_on_c, 14, 43, 0
16, 135480, Note_on_c, 14, 45, 76
16, 135480, Control_c, 14, 11, 111
16, 135540, Control_c, 14, 11, 113
16, 135599, Note_on_c, 14, 45, 0
16, 135600, Control_c, 14, 11, 115
16, 135600, Note_on_c, 14, 46, 76
16, 135660, Control_c, 14, 11, 117
16, 135719, Note_on_c, 14, 46, 0
16, 135720, Control_c, 14, 11, 119
16, 135720, Note_on_c, 14, 43, 76
16, 135780, Control_c, 14, 11, 121
16, 135839, Note_on_c, 14, 43, 0
16, 135840, Control_c, 14, 11, 123
16, 135840, Note_on_c, 14, 45, 76
16, 135900, Control_c, 14, 11, 127
16, 135944, Note_on_c, 14, 45, 0
16, 135960, Note_on_c, 14, 41, 76
16, 136079, Note_on_c, 14, 41, 0
16, 136200, Note_on_c, 14, 46, 76
16, 136304, Note_on_c, 14, 46, 0
16, 136320, Note_on_c, 14, 48, 76
16, 136424, Note_on_c, 14, 48, 0
16, 136440, Note_on_c, 14, 45, 76
16, 136544, Note_on_c, 14, 45, 0
16, 136560, Note_on_c, 14, 46, 76
16, 136664, Note_on_c, 14, 46, 0
16, 136680, Note_on_c, 14, 46, 76
16, 136784, Note_on_c, 14, 46, 0
16, 136800, Note_on_c, 14, 43, 76
16, 136904, Note_on_c, 14, 43, 0
16, 136920, Note_on_c, 14, 45, 76
16, 137024, Note_on_c, 14, 45, 0
16, 137040, Note_on_c, 14, 45, 76
16, 137144, Note_on_c, 14, 45, 0
16, 137160, Note_on_c, 14, 41, 76
16, 137264, Note_on_c, 14, 41, 0
16, 137280, Note_on_c, 14, 43, 76
16, 137384, Note_on_c, 14, 43, 0
16, 137400, Note_on_c, 14, 41, 84
16, 137459, Note_on_c, 14, 41, 0
16, 137460, Note_on_c, 14, 41, 76
16, 137864, Note_on_c, 14, 41, 0
16, 137880, Note_on_c, 14, 41, 84
16, 137939, Note_on_c, 14, 41, 0
16, 137940, Note_on_c, 14, 41, 76
16, 138344, Note_on_c, 14, 41, 0
16, 138360, Note_on_c, 14, 46, 84
16, 138419, Note_on_c, 14, 46, 0
16, 138420, Note_on_c, 14, 46, 76
16, 138824, Note_on_c, 14, 46, 0
16, 138840, Note_on_c, 14, 41, 84
16, 138899, Note_on_c, 14, 41, 0
16, 138900, Note_on_c, 14, 41, 76
16, 139079, Note_on_c, 14, 41, 0
16, 139080, Note_on_c, 14, 46, 76
16, 139304, Note_on_c, 14, 46, 0
16, 139320, Note_on_c, 14, 41, 84
16, 139379, Note_on_c, 14, 41, 0
16, 139380, Note_on_c, 14, 41, 76
16, 139784, Note_on_c, 14, 41, 0
16, 139800, Note_on_c, 14, 41, 84
16, 139859, Note_on_c, 14, 41, 0
16, 139860, Note_on_c, 14, 41, 76
16, 140264, Note_on_c, 14, 41, 0
16, 140280, Note_on_c, 14, 46, 84
16, 140339, Note_on_c, 14, 46, 0
16, 140340, Note_on_c, 14, 46, 76
16, 140744, Note_on_c, 14, 46, 0
16, 140760, Note_on_c, 14, 41, 84
16, 140819, Note_on_c, 14, 41, 0
16, 140820, Note_on_c, 14, 41, 76
16, 140999, Note_on_c, 14, 41, 0
16, 141000, Note_on_c, 14, 46, 76
16, 141224, Note_on_c, 14, 46, 0
16, 141240, Note_on_c, 14, 41, 84
16, 141299, Note_on_c, 14, 41, 0
16, 141300, Note_on_c, 14, 41, 76
16, 141704, Note_on_c, 14, 41, 0
16, 141720, Note_on_c, 14, 41, 84
16, 141779, Note_on_c, 14, 41, 0
16, 141780, Note_on_c, 14, 41, 76
16, 142184, Note_on_c, 14, 41, 0
16, 142200, Note_on_c, 14, 46, 84
16, 142259, Note_on_c, 14, 46, 0
16, 142260, Note_on_c, 14, 46, 76
16, 142664, Note_on_c, 14, 46, 0
16, 142680, Note_on_c, 14, 41, 84
16, 142739, Note_on_c, 14, 41, 0
16, 142740, Note_on_c, 14, 41, 76
16, 142919, Note_on_c, 14, 41, 0
16, 142920, Note_on_c, 14, 46, 76
16, 143144, Note_on_c, 14, 46, 0
16, 143160, Note_on_c, 14, 41, 84
16, 143219, Note_on_c, 14, 41, 0
16, 143220, Note_on_c, 14, 41, 76
16, 143624, Note_on_c, 14, 41, 0
16, 143640, Note_on_c, 14, 41, 84
16, 143699, Note_on_c, 14, 41, 0
16, 143700, Note_on_c, 14, 41, 76
16, 144104, Note_on_c, 14, 41, 0
16, 144120, Note_on_c, 14, 46, 84
16, 144179, Note_on_c, 14, 46, 0
16, 144180, Note_on_c, 14, 46, 76
16, 144584, Note_on_c, 14, 46, 0
16, 144600, Note_on_c, 14, 41, 84
16, 144659, Note_on_c, 14, 41, 0
16, 144660, Note_on_c, 14, 41, 76
16, 144839, Note_on_c, 14, 41, 0
16, 144840, Note_on_c, 14, 46, 76
16, 145079, Note_on_c, 14, 46, 0
16, 146040, Note_on_c, 14, 53, 84
16, 146099, Note_on_c, 14, 53, 0
16, 146100, Note_on_c, 14, 53, 76
16, 146504, Note_on_c, 14, 53, 0
16, 146520, Note_on_c, 14, 48, 76
16, 146759, Note_on_c, 14, 48, 0
16, 146760, Note_on_c, 14, 41, 76
16, 146999, Note_on_c, 14, 41, 0
16, 147960, Note_on_c, 14, 53, 76
16, 148424, Note_on_c, 14, 53, 0
16, 148440, Note_on_c, 14, 48, 76
16, 148664, Note_on_c, 14, 48, 0
16, 148680, Note_on_c, 14, 41, 76
16, 148904, Note_on_c, 14, 41, 0
16, 148920, Note_on_c, 14, 48, 84
16, 149039, Note_on_c, 14, 48, 0
16, 149040, Note_on_c, 14, 50, 84
16, 149099, Note_on_c, 14, 50, 0
16, 149100, Note_on_c, 14, 48, 84
16, 149159, Note_on_c, 14, 48, 0
16, 149160, Note_on_c, 14, 43, 84
16, 149279, Note_on_c, 14, 43, 0
16, 149280, Note_on_c, 14, 45, 84
16, 149339, Note_on_c, 14, 45, 0
16, 149340, Note_on_c, 14, 47, 84
16, 149391, Note_on_c, 14, 47, 0
16, 149400, Note_on_c, 14, 48, 84
16, 149519, Note_on_c, 14, 48, 0
16, 149520, Note_on_c, 14, 50, 84
16, 149579, Note_on_c, 14, 50, 0
16, 149580, Note_on_c, 14, 48, 84
16, 149639, Note_on_c, 14, 48, 0
16, 149640, Note_on_c, 14, 47, 84
16, 149759, Note_on_c, 14, 47, 0
16, 149760, Note_on_c, 14, 48, 84
16, 149819, Note_on_c, 14, 48, 0
16, 149820, Note_on_c, 14, 50, 84
16, 149871, Note_on_c, 14, 50, 0
16, 149880, Note_on_c, 14, 52, 84
16, 149999, Note_on_c, 14, 52, 0
16, 150000, Note_on_c, 14, 50, 84
16, 150059, Note_on_c, 14, 50, 0
16, 150060, Note_on_c, 14, 52, 84
16, 150111, Note_on_c, 14, 52, 0
16, 150120, Note_on_c, 14, 53, 84
16, 150239, Note_on_c, 14, 53, 0
16, 150240, Note_on_c, 14, 55, 84
16, 150299, Note_on_c, 14, 55, 0
16, 150300, Note_on_c, 14, 57, 84
16, 150351, Note_on_c, 14, 57, 0
16, 150360, Note_on_c, 14, 55, 84
16, 150479, Note_on_c, 14, 55, 0
16, 150480, Note_on_c, 14, 57, 84
16, 150539, Note_on_c, 14, 57, 0
16, 150540, Note_on_c, 14, 54, 84
16, 150591, Note_on_c, 14, 54, 0
16, 150600, Note_on_c, 14, 55, 84
16, 150704, Note_on_c, 14, 55, 0
16, 150720, Note_on_c, 14, 43, 84
16, 150824, Note_on_c, 14, 43, 0
16, 150840, Note_on_c, 14, 48, 84
16, 150959, Note_on_c, 14, 48, 0
16, 150960, Note_on_c, 14, 50, 84
16, 151019, Note_on_c, 14, 50, 0
16, 151020, Note_on_c, 14, 48, 84
16, 151079, Note_on_c, 14, 48, 0
16, 151080, Note_on_c, 14, 43, 84
16, 151199, Note_on_c, 14, 43, 0
16, 151200, Note_on_c, 14, 45, 84
16, 151259, Note_on_c, 14, 45, 0
16, 151260, Note_on_c, 14, 47, 84
16, 151311, Note_on_c, 14, 47, 0
16, 151320, Note_on_c, 14, 48, 84
16, 151439, Note_on_c, 14, 48, 0
16, 151440, Note_on_c, 14, 50, 84
16, 151499, Note_on_c, 14, 50, 0
16, 151500, Note_on_c, 14, 48, 84
16, 151559, Note_on_c, 14, 48, 0
16, 151560, Note_on_c, 14, 47, 84
16, 151679, Note_on_c, 14, 47, 0
16, 151680, Note_on_c, 14, 48, 84
16, 151739, Note_on_c, 14, 48, 0
16, 151740, Note_on_c, 14, 50, 84
16, 151791, Note_on_c, 14, 50, 0
16, 151800, Note_on_c, 14, 52, 84
16, 151919, Note_on_c, 14, 52, 0
16, 151920, Note_on_c, 14, 50, 84
16, 151979, Note_on_c, 14, 50, 0
16, 151980, Note_on_c, 14, 52, 84
16, 152031, Note_on_c, 14, 52, 0
16, 152040, Note_on_c, 14, 53, 84
16, 152159, Note_on_c, 14, 53, 0
16, 152160, Note_on_c, 14, 55, 84
16, 152219, Note_on_c, 14, 55, 0
16, 152220, Note_on_c, 14, 57, 84
16, 152271, Note_on_c, 14, 57, 0
16, 152280, Note_on_c, 14, 55, 84
16, 152399, Note_on_c, 14, 55, 0
16, 152400, Note_on_c, 14, 57, 84
16, 152459, Note_on_c, 14, 57, 0
16, 152460, Note_on_c, 14, 54, 84
16, 152511, Note_on_c, 14, 54, 0
16, 152520, Note_on_c, 14, 55, 84
16, 152624, Note_on_c, 14, 55, 0
16, 152640, Note_on_c, 14, 43, 84
16, 152744, Note_on_c, 14, 43, 0
16, 152758, Control_c, 14, 11, 112
16, 152760, Note_on_c, 14, 48, 92
16, 152849, Note_on_c, 14, 48, 0
16, 152880, Note_on_c, 14, 50, 92
16, 152931, Note_on_c, 14, 50, 0
16, 152940, Note_on_c, 14, 48, 92
16, 152952, Control_c, 14, 11, 113
16, 152991, Note_on_c, 14, 48, 0
16, 153000, Note_on_c, 14, 43, 92
16, 153104, Note_on_c, 14, 43, 0
16, 153120, Note_on_c, 14, 45, 92
16, 153144, Control_c, 14, 11, 114
16, 153171, Note_on_c, 14, 45, 0
16, 153180, Note_on_c, 14, 47, 92
16, 153231, Note_on_c, 14, 47, 0
16, 153240, Note_on_c, 14, 48, 92
16, 153329, Note_on_c, 14, 48, 0
16, 153336, Control_c, 14, 11, 115
16, 153360, Note_on_c, 14, 50, 92
16, 153411, Note_on_c, 14, 50, 0
16, 153420, Note_on_c, 14, 48, 92
16, 153471, Note_on_c, 14, 48, 0
16, 153480, Note_on_c, 14, 47, 92
16, 153528, Control_c, 14, 11, 116
16, 153584, Note_on_c, 14, 47, 0
16, 153600, Note_on_c, 14, 48, 92
16, 153651, Note_on_c, 14, 48, 0
16, 153660, Note_on_c, 14, 50, 92
16, 153711, Note_on_c, 14, 50, 0
16, 153720, Control_c, 14, 11, 117
16, 153720, Note_on_c, 14, 52, 92
16, 153809, Note_on_c, 14, 52, 0
16, 153840, Note_on_c, 14, 53, 92
16, 153891, Note_on_c, 14, 53, 0
16, 153900, Note_on_c, 14, 52, 92
16, 153912, Control_c, 14, 11, 118
16, 153951, Note_on_c, 14, 52, 0
16, 153960, Note_on_c, 14, 50, 92
16, 154064, Note_on_c, 14, 50, 0
16, 154080, Note_on_c, 14, 52, 92
16, 154104, Control_c, 14, 11, 119
16, 154131, Note_on_c, 14, 52, 0
16, 154140, Note_on_c, 14, 53, 92
16, 154191, Note_on_c, 14, 53, 0
16, 154200, Note_on_c, 14, 55, 92
16, 154289, Note_on_c, 14, 55, 0
16, 154296, Control_c, 14, 11, 120
16, 154320, Note_on_c, 14, 57, 92
16, 154371, Note_on_c, 14, 57, 0
16, 154380, Note_on_c, 14, 53, 92
16, 154431, Note_on_c, 14, 53, 0
16, 154440, Note_on_c, 14, 55, 92
16, 154488, Control_c, 14, 11, 121
16, 154544, Note_on_c, 14, 55, 0
16, 154560, Note_on_c, 14, 57, 92
16, 154611, Note_on_c, 14, 57, 0
16, 154620, Note_on_c, 14, 59, 92
16, 154671, Note_on_c, 14, 59, 0
16, 154680, Note_on_c, 14, 60, 92
16, 154680, Control_c, 14, 11, 122
16, 154769, Note_on_c, 14, 60, 0
16, 154800, Note_on_c, 14, 62, 92
16, 154851, Note_on_c, 14, 62, 0
16, 154860, Note_on_c, 14, 59, 92
16, 154872, Control_c, 14, 11, 123
16, 154911, Note_on_c, 14, 59, 0
16, 154920, Note_on_c, 14, 60, 92
16, 155024, Note_on_c, 14, 60, 0
16, 155040, Note_on_c, 14, 62, 92
16, 155064, Control_c, 14, 11, 124
16, 155091, Note_on_c, 14, 62, 0
16, 155100, Note_on_c, 14, 59, 92
16, 155151, Note_on_c, 14, 59, 0
16, 155160, Note_on_c, 14, 60, 92
16, 155249, Note_on_c, 14, 60, 0
16, 155256, Control_c, 14, 11, 125
16, 155280, Note_on_c, 14, 62, 92
16, 155331, Note_on_c, 14, 62, 0
16, 155340, Note_on_c, 14, 59, 92
16, 155391, Note_on_c, 14, 59, 0
16, 155400, Note_on_c, 14, 60, 92
16, 155448, Control_c, 14, 11, 127
16, 155504, Note_on_c, 14, 60, 0
16, 155520, Note_on_c, 14, 62, 92
16, 155571, Note_on_c, 14, 62, 0
16, 155580, Note_on_c, 14, 59, 92
16, 155631, Note_on_c, 14, 59, 0
16, 155640, Note_on_c, 14, 60, 84
16, 155759, Note_on_c, 14, 60, 0
16, 156120, Note_on_c, 14, 48, 52
16, 156239, Note_on_c, 14, 48, 0
16, 157920, Note_on_c, 14, 55, 44
16, 158009, Note_on_c, 14, 55, 0
16, 158040, Note_on_c, 14, 57, 44
16, 158129, Note_on_c, 14, 57, 0
16, 158160, Note_on_c, 14, 53, 44
16, 158249, Note_on_c, 14, 53, 0
16, 158280, Note_on_c, 14, 55, 44
16, 158369, Note_on_c, 14, 55, 0
16, 158400, Note_on_c, 14, 53, 44
16, 158489, Note_on_c, 14, 53, 0
16, 158520, Note_on_c, 14, 50, 44
16, 158609, Note_on_c, 14, 50, 0
16, 158640, Note_on_c, 14, 52, 44
16, 158729, Note_on_c, 14, 52, 0
16, 158760, Note_on_c, 14, 50, 44
16, 158849, Note_on_c, 14, 50, 0
16, 158880, Note_on_c, 14, 45, 44
16, 158969, Note_on_c, 14, 45, 0
16, 159000, Note_on_c, 14, 45, 44
16, 159089, Note_on_c, 14, 45, 0
16, 159120, Note_on_c, 14, 45, 44
16, 159239, Note_on_c, 14, 45, 0
16, 159360, Note_on_c, 14, 45, 44
16, 159449, Note_on_c, 14, 45, 0
16, 159480, Note_on_c, 14, 50, 44
16, 159599, Note_on_c, 14, 50, 0
16, 159840, Note_on_c, 14, 50, 44
16, 159959, Note_on_c, 14, 50, 0
16, 161480, Control_c, 14, 11, 120
16, 161520, Control_c, 14, 11, 122
16, 161520, Note_on_c, 14, 46, 76
16, 161560, Control_c, 14, 11, 124
16, 161600, Control_c, 14, 11, 125
16, 161638, Control_c, 14, 11, 127
16, 161639, Note_on_c, 14, 46, 0
16, 161640, Note_on_c, 14, 48, 76
16, 161759, Note_on_c, 14, 48, 0
16, 162360, Note_on_c, 14, 48, 52
16, 162479, Note_on_c, 14, 48, 0
16, 162960, Program_c, 14, 45
16, 163080, Note_on_c, 14, 41, 48
16, 163199, Note_on_c, 14, 41, 0
16, 163440, Note_on_c, 14, 41, 48
16, 163559, Note_on_c, 14, 41, 0
16, 163800, Note_on_c, 14, 41, 48
16, 163919, Note_on_c, 14, 41, 0
16, 164160, Note_on_c, 14, 41, 48
16, 164279, Note_on_c, 14, 41, 0
16, 164520, Note_on_c, 14, 41, 48
16, 164639, Note_on_c, 14, 41, 0
16, 164880, Note_on_c, 14, 41, 48
16, 164999, Note_on_c, 14, 41, 0
16, 165240, Note_on_c, 14, 41, 48
16, 165359, Note_on_c, 14, 41, 0
16, 165600, Note_on_c, 14, 41, 48
16, 165719, Note_on_c, 14, 41, 0
16, 165838, Program_c, 14, 48
16, 165838, Control_c, 14, 11, 64
16, 165840, Note_on_c, 14, 48, 84
16, 165959, Note_on_c, 14, 48, 0
16, 165960, Note_on_c, 14, 53, 84
16, 166079, Note_on_c, 14, 53, 0
16, 166080, Control_c, 14, 11, 64
16, 166080, Note_on_c, 14, 48, 84
16, 166130, Control_c, 14, 11, 67
16, 166180, Control_c, 14, 11, 69
16, 166199, Note_on_c, 14, 48, 0
16, 166200, Note_on_c, 14, 50, 84
16, 166230, Control_c, 14, 11, 72
16, 166280, Control_c, 14, 11, 75
16, 166319, Note_on_c, 14, 50, 0
16, 166320, Note_on_c, 14, 48, 84
16, 166330, Control_c, 14, 11, 77
16, 166380, Control_c, 14, 11, 80
16, 166430, Control_c, 14, 11, 82
16, 166439, Note_on_c, 14, 48, 0
16, 166440, Note_on_c, 14, 45, 84
16, 166480, Control_c, 14, 11, 85
16, 166530, Control_c, 14, 11, 88
16, 166559, Note_on_c, 14, 45, 0
16, 166560, Note_on_c, 14, 46, 84
16, 166580, Control_c, 14, 11, 90
16, 166630, Control_c, 14, 11, 93
16, 166679, Note_on_c, 14, 46, 0
16, 166680, Note_on_c, 14, 45, 84
16, 166680, Control_c, 14, 11, 96
16, 166730, Control_c, 14, 11, 98
16, 166780, Control_c, 14, 11, 101
16, 166799, Note_on_c, 14, 45, 0
16, 166800, Note_on_c, 14, 41, 84
16, 166830, Control_c, 14, 11, 103
16, 166880, Control_c, 14, 11, 106
16, 166919, Note_on_c, 14, 41, 0
16, 166920, Note_on_c, 14, 43, 84
16, 166930, Control_c, 14, 11, 109
16, 166980, Control_c, 14, 11, 111
16, 167030, Control_c, 14, 11, 114
16, 167039, Note_on_c, 14, 43, 0
16, 167040, Note_on_c, 14, 45, 84
16, 167080, Control_c, 14, 11, 117
16, 167130, Control_c, 14, 11, 119
16, 167159, Note_on_c, 14, 45, 0
16, 167160, Note_on_c, 14, 41, 84
16, 167180, Control_c, 14, 11, 122
16, 167230, Control_c, 14, 11, 124
16, 167259, Note_on_c, 14, 41, 0
16, 167278, Control_c, 14, 11, 127
16, 167280, Note_on_c, 14, 48, 84
16, 167369, Note_on_c, 14, 48, 0
16, 167400, Note_on_c, 14, 53, 84
16, 167489, Note_on_c, 14, 53, 0
16, 167520, Note_on_c, 14, 48, 84
16, 167609, Note_on_c, 14, 48, 0
16, 167640, Note_on_c, 14, 50, 84
16, 167729, Note_on_c, 14, 50, 0
16, 167760, Note_on_c, 14, 48, 84
16, 167849, Note_on_c, 14, 48, 0
16, 167880, Note_on_c, 14, 45, 84
16, 167969, Note_on_c, 14, 45, 0
16, 168000, Note_on_c, 14, 46, 84
16, 168089, Note_on_c, 14, 46, 0
16, 168120, Note_on_c, 14, 45, 92
16, 168209, Note_on_c, 14, 45, 0
16, 168240, Note_on_c, 14, 41, 84
16, 168329, Note_on_c, 14, 41, 0
16, 168360, Note_on_c, 14, 43, 84
16, 168449, Note_on_c, 14, 43, 0
16, 168480, Note_on_c, 14, 45, 92
16, 168569, Note_on_c, 14, 45, 0
16, 168600, Note_on_c, 14, 41, 84
16, 168689, Note_on_c, 14, 41, 0
16, 168720, Note_on_c, 14, 43, 84
16, 168809, Note_on_c, 14, 43, 0
16, 168840, Note_on_c, 14, 45, 92
16, 168929, Note_on_c, 14, 45, 0
16, 168960, Note_on_c, 14, 41, 84
16, 169049, Note_on_c, 14, 41, 0
16, 169080, Note_on_c, 14, 43, 84
16, 169169, Note_on_c, 14, 43, 0
16, 169200, Note_on_c, 14, 45, 92
16, 169289, Note_on_c, 14, 45, 0
16, 169320, Note_on_c, 14, 41, 84
16, 169409, Note_on_c, 14, 41, 0
16, 169440, Note_on_c, 14, 43, 84
16, 169529, Note_on_c, 14, 43, 0
16, 169560, Note_on_c, 14, 45, 92
16, 169620, Control_c, 14, 11, 112
16, 169899, Note_on_c, 14, 45, 0
16, 169920, Note_on_c, 14, 43, 92
16, 170139, Note_on_c, 14, 43, 0
16, 170160, Note_on_c, 14, 41, 92
16, 170259, Note_on_c, 14, 41, 0
16, 170280, Note_on_c, 14, 40, 92
16, 170499, Note_on_c, 14, 40, 0
16, 170520, Note_on_c, 14, 38, 92
16, 170619, Note_on_c, 14, 38, 0
16, 170640, Note_on_c, 14, 36, 92
16, 170859, Note_on_c, 14, 36, 0
16, 170880, Note_on_c, 14, 46, 92
16, 170979, Note_on_c, 14, 46, 0
16, 170998, Control_c, 14, 11, 127
16, 171000, Note_on_c, 14, 45, 92
16, 171060, Control_c, 14, 11, 112
16, 171339, Note_on_c, 14, 45, 0
16, 171358, Control_c, 14, 11, 127
16, 171360, Note_on_c, 14, 46, 92
16, 171420, Control_c, 14, 11, 112
16, 171699, Note_on_c, 14, 46, 0
16, 171718, Control_c, 14, 11, 127
16, 171720, Note_on_c, 14, 48, 92
16, 171780, Control_c, 14, 11, 112
16, 172059, Note_on_c, 14, 48, 0
16, 172080, Note_on_c, 14, 48, 92
16, 172140, Control_c, 14, 11, 112
16, 172419, Note_on_c, 14, 48, 0
16, 172438, Control_c, 14, 11, 127
16, 172440, Note_on_c, 14, 53, 84
16, 172559, Note_on_c, 14, 53, 0
16, 172680, Note_on_c, 14, 57, 84
16, 172779, Note_on_c, 14, 57, 0
16, 172800, Note_on_c, 14, 55, 84
16, 173019, Note_on_c, 14, 55, 0
16, 173040, Note_on_c, 14, 53, 84
16, 173139, Note_on_c, 14, 53, 0
16, 173160, Note_on_c, 14, 52, 84
16, 173379, Note_on_c, 14, 52, 0
16, 173400, Note_on_c, 14, 50, 84
16, 173499, Note_on_c, 14, 50, 0
16, 173520, Note_on_c, 14, 48, 84
16, 173739, Note_on_c, 14, 48, 0
16, 173760, Note_on_c, 14, 58, 84
16, 173859, Note_on_c, 14, 58, 0
16, 173880, Note_on_c, 14, 57, 92
16, 173940, Control_c, 14, 11, 112
16, 174219, Note_on_c, 14, 57, 0
16, 174238, Control_c, 14, 11, 127
16, 174240, Note_on_c, 14, 58, 92
16, 174300, Control_c, 14, 11, 112
16, 174579, Note_on_c, 14, 58, 0
16, 174598, Control_c, 14, 11, 127
16, 174600, Note_on_c, 14, 60, 92
16, 174660, Control_c, 14, 11, 112
16, 174939, Note_on_c, 14, 60, 0
16, 174958, Control_c, 14, 11, 127
16, 174960, Note_on_c, 14, 48, 92
16, 175020, Control_c, 14, 11, 112
16, 175299, Note_on_c, 14, 48, 0
16, 175318, Control_c, 14, 11, 127
16, 175320, Note_on_c, 14, 53, 92
16, 175439, Note_on_c, 14, 53, 0
16, 176400, Note_on_c, 14, 48, 84
16, 176499, Note_on_c, 14, 48, 0
16, 176520, Note_on_c, 14, 48, 84
16, 176619, Note_on_c, 14, 48, 0
16, 176640, Note_on_c, 14, 48, 84
16, 176739, Note_on_c, 14, 48, 0
16, 176760, Note_on_c, 14, 41, 92
16, 176879, Note_on_c, 14, 41, 0
16, 177840, Note_on_c, 14, 48, 84
16, 177939, Note_on_c, 14, 48, 0
16, 177960, Note_on_c, 14, 48, 84
16, 178059, Note_on_c, 14, 48, 0
16, 178080, Note_on_c, 14, 48, 84
16, 178179, Note_on_c, 14, 48, 0
16, 178179, End_track
17, 0, Start_track
17, 0, Title_t, "Contrabass"
17, 0, MIDI_port, 0
17, 0, Control_c, 15, 7, 96
17, 0, Control_c, 15, 10, 100
17, 0, Program_c, 15, 48
17, 0, Control_c, 15, 11, 127
17, 2160, Note_on_c, 15, 40, 44
17, 2249, Note_on_c, 15, 40, 0
17, 2280, Note_on_c, 15, 38, 44
17, 2369, Note_on_c, 15, 38, 0
17, 2400, Note_on_c, 15, 33, 44
17, 2489, Note_on_c, 15, 33, 0
17, 2520, Note_on_c, 15, 33, 44
17, 2609, Note_on_c, 15, 33, 0
17, 2640, Note_on_c, 15, 33, 44
17, 2759, Note_on_c, 15, 33, 0
17, 2880, Note_on_c, 15, 33, 44
17, 2969, Note_on_c, 15, 33, 0
17, 3000, Note_on_c, 15, 38, 44
17, 3119, Note_on_c, 15, 38, 0
17, 3360, Note_on_c, 15, 38, 44
17, 3479, Note_on_c, 15, 38, 0
17, 3720, Note_on_c, 15, 38, 44
17, 3839, Note_on_c, 15, 38, 0
17, 4080, Note_on_c, 15, 38, 44
17, 4199, Note_on_c, 15, 38, 0
17, 4440, Note_on_c, 15, 38, 44
17, 4559, Note_on_c, 15, 38, 0
17, 4800, Note_on_c, 15, 38, 44
17, 4919, Note_on_c, 15, 38, 0
17, 5160, Note_on_c, 15, 38, 44
17, 5279, Note_on_c, 15, 38, 0
17, 5400, Note_on_c, 15, 33, 44
17, 5489, Note_on_c, 15, 33, 0
17, 5520, Note_on_c, 15, 38, 44
17, 5639, Note_on_c, 15, 38, 0
17, 7920, Note_on_c, 15, 40, 44
17, 8009, Note_on_c, 15, 40, 0
17, 8040, Note_on_c, 15, 38, 44
17, 8129, Note_on_c, 15, 38, 0
17, 8160, Note_on_c, 15, 33, 44
17, 8249, Note_on_c, 15, 33, 0
17, 8280, Note_on_c, 15, 33, 44
17, 8369, Note_on_c, 15, 33, 0
17, 8400, Note_on_c, 15, 33, 44
17, 8519, Note_on_c, 15, 33, 0
17, 8640, Note_on_c, 15, 33, 44
17, 8729, Note_on_c, 15, 33, 0
17, 8760, Note_on_c, 15, 38, 44
17, 8879, Note_on_c, 15, 38, 0
17, 9120, Note_on_c, 15, 38, 44
17, 9239, Note_on_c, 15, 38, 0
17, 9480, Note_on_c, 15, 38, 44
17, 9599, Note_on_c, 15, 38, 0
17, 9840, Note_on_c, 15, 38, 44
17, 9959, Note_on_c, 15, 38, 0
17, 10200, Note_on_c, 15, 38, 44
17, 10319, Note_on_c, 15, 38, 0
17, 10560, Note_on_c, 15, 38, 44
17, 10679, Note_on_c, 15, 38, 0
17, 10920, Note_on_c, 15, 38, 44
17, 11039, Note_on_c, 15, 38, 0
17, 11160, Note_on_c, 15, 33, 44
17, 11249, Note_on_c, 15, 33, 0
17, 11280, Note_on_c, 15, 38, 44
17, 11399, Note_on_c, 15, 38, 0
17, 13920, Note_on_c, 15, 31, 44
17, 14024, Note_on_c, 15, 31, 0
17, 14040, Note_on_c, 15, 33, 44
17, 14144, Note_on_c, 15, 33, 0
17, 14160, Note_on_c, 15, 35, 44
17, 14264, Note_on_c, 15, 35, 0
17, 14280, Note_on_c, 15, 31, 44
17, 14384, Note_on_c, 15, 31, 0
17, 14400, Note_on_c, 15, 31, 44
17, 14504, Note_on_c, 15, 31, 0
17, 14520, Note_on_c, 15, 36, 44
17, 14639, Note_on_c, 15, 36, 0
17, 14880, Note_on_c, 15, 36, 44
17, 14999, Note_on_c, 15, 36, 0
17, 15240, Note_on_c, 15, 36, 44
17, 15359, Note_on_c, 15, 36, 0
17, 15600, Note_on_c, 15, 36, 44
17, 15719, Note_on_c, 15, 36, 0
17, 15960, Note_on_c, 15, 36, 44
17, 16079, Note_on_c, 15, 36, 0
17, 16320, Note_on_c, 15, 36, 44
17, 16439, Note_on_c, 15, 36, 0
17, 16680, Note_on_c, 15, 36, 44
17, 16799, Note_on_c, 15, 36, 0
17, 16920, Note_on_c, 15, 31, 44
17, 17024, Note_on_c, 15, 31, 0
17, 17040, Note_on_c, 15, 36, 44
17, 17159, Note_on_c, 15, 36, 0
17, 17278, Control_c, 15, 11, 64
17, 17280, Note_on_c, 15, 36, 84
17, 17340, Control_c, 15, 11, 67
17, 17399, Note_on_c, 15, 36, 0
17, 17400, Control_c, 15, 11, 69
17, 17400, Note_on_c, 15, 48, 84
17, 17460, Control_c, 15, 11, 72
17, 17519, Note_on_c, 15, 48, 0
17, 17520, Note_on_c, 15, 45, 84
17, 17520, Control_c, 15, 11, 75
17, 17580, Control_c, 15, 11, 77
17, 17639, Note_on_c, 15, 45, 0
17, 17640, Note_on_c, 15, 46, 84
17, 17640, Control_c, 15, 11, 80
17, 17700, Control_c, 15, 11, 82
17, 17759, Note_on_c, 15, 46, 0
17, 17760, Control_c, 15, 11, 85
17, 17760, Note_on_c, 15, 45, 84
17, 17820, Control_c, 15, 11, 88
17, 17879, Note_on_c, 15, 45, 0
17, 17880, Note_on_c, 15, 41, 84
17, 17880, Control_c, 15, 11, 90
17, 17940, Control_c, 15, 11, 93
17, 17999, Note_on_c, 15, 41, 0
17, 18000, Note_on_c, 15, 43, 84
17, 18000, Control_c, 15, 11, 96
17, 18060, Control_c, 15, 11, 98
17, 18119, Note_on_c, 15, 43, 0
17, 18120, Control_c, 15, 11, 101
17, 18120, Note_on_c, 15, 41, 84
17, 18180, Control_c, 15, 11, 103
17, 18239, Note_on_c, 15, 41, 0
17, 18240, Control_c, 15, 11, 106
17, 18240, Note_on_c, 15, 36, 84
17, 18300, Control_c, 15, 11, 109
17, 18359, Note_on_c, 15, 36, 0
17, 18360, Control_c, 15, 11, 111
17, 18360, Note_on_c, 15, 43, 84
17, 18420, Control_c, 15, 11, 114
17, 18479, Note_on_c, 15, 43, 0
17, 18480, Note_on_c, 15, 45, 84
17, 18480, Control_c, 15, 11, 117
17, 18540, Control_c, 15, 11, 119
17, 18599, Note_on_c, 15, 45, 0
17, 18600, Note_on_c, 15, 41, 84
17, 18600, Control_c, 15, 11, 122
17, 18660, Control_c, 15, 11, 127
17, 18704, Note_on_c, 15, 41, 0
17, 18720, Note_on_c, 15, 36, 84
17, 18809, Note_on_c, 15, 36, 0
17, 18840, Note_on_c, 15, 41, 84
17, 18929, Note_on_c, 15, 41, 0
17, 18960, Note_on_c, 15, 36, 84
17, 19049, Note_on_c, 15, 36, 0
17, 19080, Note_on_c, 15, 38, 84
17, 19169, Note_on_c, 15, 38, 0
17, 19200, Note_on_c, 15, 36, 84
17, 19289, Note_on_c, 15, 36, 0
17, 19320, Note_on_c, 15, 33, 84
17, 19409, Note_on_c, 15, 33, 0
17, 19440, Note_on_c, 15, 34, 84
17, 19529, Note_on_c, 15, 34, 0
17, 19560, Note_on_c, 15, 33, 92
17, 19649, Note_on_c, 15, 33, 0
17, 19680, Note_on_c, 15, 29, 84
17, 19769, Note_on_c, 15, 29, 0
17, 19800, Note_on_c, 15, 31, 84
17, 19889, Note_on_c, 15, 31, 0
17, 19920, Note_on_c, 15, 33, 92
17, 20009, Note_on_c, 15, 33, 0
17, 20040, Note_on_c, 15, 29, 84
17, 20129, Note_on_c, 15, 29, 0
17, 20160, Note_on_c, 15, 31, 84
17, 20249, Note_on_c, 15, 31, 0
17, 20280, Note_on_c, 15, 33, 92
17, 20369, Note_on_c, 15, 33, 0
17, 20400, Note_on_c, 15, 29, 84
17, 20489, Note_on_c, 15, 29, 0
17, 20520, Note_on_c, 15, 31, 84
17, 20609, Note_on_c, 15, 31, 0
17, 20640, Note_on_c, 15, 33, 92
17, 20729, Note_on_c, 15, 33, 0
17, 20760, Note_on_c, 15, 29, 84
17, 20849, Note_on_c, 15, 29, 0
17, 20880, Note_on_c, 15, 31, 84
17, 20969, Note_on_c, 15, 31, 0
17, 21000, Note_on_c, 15, 33, 92
17, 21060, Control_c, 15, 11, 112
17, 21344, Note_on_c, 15, 33, 0
17, 21360, Note_on_c, 15, 31, 92
17, 21584, Note_on_c, 15, 31, 0
17, 21600, Note_on_c, 15, 41, 92
17, 21704, Note_on_c, 15, 41, 0
17, 21720, Note_on_c, 15, 40, 92
17, 21944, Note_on_c, 15, 40, 0
17, 21960, Note_on_c, 15, 38, 92
17, 22064, Note_on_c, 15, 38, 0
17, 22080, Note_on_c, 15, 36, 92
17, 22304, Note_on_c, 15, 36, 0
17, 22320, Note_on_c, 15, 46, 92
17, 22424, Note_on_c, 15, 46, 0
17, 22438, Control_c, 15, 11, 127
17, 22440, Note_on_c, 15, 33, 92
17, 22500, Control_c, 15, 11, 112
17, 22784, Note_on_c, 15, 33, 0
17, 22798, Control_c, 15, 11, 127
17, 22800, Note_on_c, 15, 34, 92
17, 22860, Control_c, 15, 11, 112
17, 23144, Note_on_c, 15, 34, 0
17, 23158, Control_c, 15, 11, 127
17, 23160, Note_on_c, 15, 36, 92
17, 23220, Control_c, 15, 11, 112
17, 23504, Note_on_c, 15, 36, 0
17, 23518, Control_c, 15, 11, 127
17, 23520, Note_on_c, 15, 36, 92
17, 23580, Control_c, 15, 11, 112
17, 23864, Note_on_c, 15, 36, 0
17, 23880, Note_on_c, 15, 41, 92
17, 23999, Note_on_c, 15, 41, 0
17, 24120, Note_on_c, 15, 45, 92
17, 24224, Note_on_c, 15, 45, 0
17, 24240, Note_on_c, 15, 43, 92
17, 24464, Note_on_c, 15, 43, 0
17, 24480, Note_on_c, 15, 41, 92
17, 24584, Note_on_c, 15, 41, 0
17, 24600, Note_on_c, 15, 40, 92
17, 24824, Note_on_c, 15, 40, 0
17, 24840, Note_on_c, 15, 38, 92
17, 24944, Note_on_c, 15, 38, 0
17, 24960, Note_on_c, 15, 36, 92
17, 25184, Note_on_c, 15, 36, 0
17, 25200, Note_on_c, 15, 46, 92
17, 25304, Note_on_c, 15, 46, 0
17, 25318, Control_c, 15, 11, 127
17, 25320, Note_on_c, 15, 45, 92
17, 25380, Control_c, 15, 11, 112
17, 25664, Note_on_c, 15, 45, 0
17, 25678, Control_c, 15, 11, 127
17, 25680, Note_on_c, 15, 46, 92
17, 25740, Control_c, 15, 11, 112
17, 26024, Note_on_c, 15, 46, 0
17, 26038, Control_c, 15, 11, 127
17, 26040, Note_on_c, 15, 48, 92
17, 26100, Control_c, 15, 11, 112
17, 26384, Note_on_c, 15, 48, 0
17, 26398, Control_c, 15, 11, 127
17, 26400, Note_on_c, 15, 36, 92
17, 26460, Control_c, 15, 11, 112
17, 26744, Note_on_c, 15, 36, 0
17, 26758, Control_c, 15, 11, 127
17, 26760, Note_on_c, 15, 41, 92
17, 26879, Note_on_c, 15, 41, 0
17, 27840, Note_on_c, 15, 36, 84
17, 27944, Note_on_c, 15, 36, 0
17, 27960, Note_on_c, 15, 36, 84
17, 28064, Note_on_c, 15, 36, 0
17, 28080, Note_on_c, 15, 36, 84
17, 28184, Note_on_c, 15, 36, 0
17, 28200, Note_on_c, 15, 29, 92
17, 28319, Note_on_c, 15, 29, 0
17, 29280, Note_on_c, 15, 36, 84
17, 29384, Note_on_c, 15, 36, 0
17, 29400, Note_on_c, 15, 36, 84
17, 29504, Note_on_c, 15, 36, 0
17, 29520, Note_on_c, 15, 36, 84
17, 29624, Note_on_c, 15, 36, 0
17, 29640, Note_on_c, 15, 29, 92
17, 29759, Note_on_c, 15, 29, 0
17, 30360, Note_on_c, 15, 29, 92
17, 30479, Note_on_c, 15, 29, 0
17, 53400, Note_on_c, 15, 29, 52
17, 54824, Note_on_c, 15, 29, 0
17, 54838, Control_c, 15, 11, 80
17, 54840, Note_on_c, 15, 29, 76
17, 55544, Note_on_c, 15, 29, 0
17, 55560, Note_on_c, 15, 29, 76
17, 56264, Note_on_c, 15, 29, 0
17, 56280, Note_on_c, 15, 29, 76
17, 56280, Control_c, 15, 11, 80
17, 56340, Control_c, 15, 11, 82
17, 56400, Control_c, 15, 11, 84
17, 56460, Control_c, 15, 11, 86
17, 56519, Note_on_c, 15, 29, 0
17, 56520, Note_on_c, 15, 34, 76
17, 56520, Control_c, 15, 11, 88
17, 56580, Control_c, 15, 11, 90
17, 56639, Note_on_c, 15, 34, 0
17, 56640, Control_c, 15, 11, 92
17, 56640, Note_on_c, 15, 36, 76
17, 56700, Control_c, 15, 11, 94
17, 56759, Note_on_c, 15, 36, 0
17, 56760, Control_c, 15, 11, 96
17, 56760, Note_on_c, 15, 33, 76
17, 56820, Control_c, 15, 11, 98
17, 56879, Note_on_c, 15, 33, 0
17, 56880, Note_on_c, 15, 34, 76
17, 56880, Control_c, 15, 11, 100
17, 56940, Control_c, 15, 11, 102
17, 56984, Note_on_c, 15, 34, 0
17, 57000, Control_c, 15, 11, 104
17, 57000, Note_on_c, 15, 31, 76
17, 57060, Control_c, 15, 11, 105
17, 57120, Control_c, 15, 11, 107
17, 57180, Control_c, 15, 11, 109
17, 57239, Note_on_c, 15, 31, 0
17, 57240, Note_on_c, 15, 33, 76
17, 57240, Control_c, 15, 11, 111
17, 57300, Control_c, 15, 11, 113
17, 57359, Note_on_c, 15, 33, 0
17, 57360, Note_on_c, 15, 34, 76
17, 57360, Control_c, 15, 11, 115
17, 57420, Control_c, 15, 11, 117
17, 57479, Note_on_c, 15, 34, 0
17, 57480, Control_c, 15, 11, 119
17, 57480, Note_on_c, 15, 31, 76
17, 57540, Control_c, 15, 11, 121
17, 57599, Note_on_c, 15, 31, 0
17, 57600, Note_on_c, 15, 33, 76
17, 57600, Control_c, 15, 11, 123
17, 57660, Control_c, 15, 11, 127
17, 57704, Note_on_c, 15, 33, 0
17, 57720, Note_on_c, 15, 29, 76
17, 57839, Note_on_c, 15, 29, 0
17, 57960, Note_on_c, 15, 34, 76
17, 58064, Note_on_c, 15, 34, 0
17, 58080, Note_on_c, 15, 36, 76
17, 58184, Note_on_c, 15, 36, 0
17, 58200, Note_on_c, 15, 33, 76
17, 58304, Note_on_c, 15, 33, 0
17, 58320, Note_on_c, 15, 34, 76
17, 58424, Note_on_c, 15, 34, 0
17, 58440, Note_on_c, 15, 34, 76
17, 58544, Note_on_c, 15, 34, 0
17, 58560, Note_on_c, 15, 31, 76
17, 58664, Note_on_c, 15, 31, 0
17, 58680, Note_on_c, 15, 33, 76
17, 58784, Note_on_c, 15, 33, 0
17, 58800, Note_on_c, 15, 33, 76
17, 58904, Note_on_c, 15, 33, 0
17, 58920, Note_on_c, 15, 29, 76
17, 59024, Note_on_c, 15, 29, 0
17, 59040, Note_on_c, 15, 31, 76
17, 59144, Note_on_c, 15, 31, 0
17, 59160, Note_on_c, 15, 29, 84
17, 59219, Note_on_c, 15, 29, 0
17, 59220, Note_on_c, 15, 29, 76
17, 59624, Note_on_c, 15, 29, 0
17, 59640, Note_on_c, 15, 29, 84
17, 59699, Note_on_c, 15, 29, 0
17, 59700, Note_on_c, 15, 29, 76
17, 60104, Note_on_c, 15, 29, 0
17, 60120, Note_on_c, 15, 34, 84
17, 60179, Note_on_c, 15, 34, 0
17, 60180, Note_on_c, 15, 34, 76
17, 60584, Note_on_c, 15, 34, 0
17, 60600, Note_on_c, 15, 29, 84
17, 60659, Note_on_c, 15, 29, 0
17, 60660, Note_on_c, 15, 29, 76
17, 60839, Note_on_c, 15, 29, 0
17, 60840, Note_on_c, 15, 34, 76
17, 61064, Note_on_c, 15, 34, 0
17, 61080, Note_on_c, 15, 29, 84
17, 61139, Note_on_c, 15, 29, 0
17, 61140, Note_on_c, 15, 29, 76
17, 61544, Note_on_c, 15, 29, 0
17, 61560, Note_on_c, 15, 29, 84
17, 61619, Note_on_c, 15, 29, 0
17, 61620, Note_on_c, 15, 29, 76
17, 62024, Note_on_c, 15, 29, 0
17, 62040, Note_on_c, 15, 34, 84
17, 62099, Note_on_c, 15, 34, 0
17, 62100, Note_on_c, 15, 34, 76
17, 62504, Note_on_c, 15, 34, 0
17, 62520, Note_on_c, 15, 29, 84
17, 62579, Note_on_c, 15, 29, 0
17, 62580, Note_on_c, 15, 29, 76
17, 62759, Note_on_c, 15, 29, 0
17, 62760, Note_on_c, 15, 34, 76
17, 62984, Note_on_c, 15, 34, 0
17, 63000, Note_on_c, 15, 29, 84
17, 63059, Note_on_c, 15, 29, 0
17, 63060, Note_on_c, 15, 29, 76
17, 63464, Note_on_c, 15, 29, 0
17, 63480, Note_on_c, 15, 29, 84
17, 63539, Note_on_c, 15, 29, 0
17, 63540, Note_on_c, 15, 29, 76
17, 63944, Note_on_c, 15, 29, 0
17, 63960, Note_on_c, 15, 34, 84
17, 64019, Note_on_c, 15, 34, 0
17, 64020, Note_on_c, 15, 34, 76
17, 64424, Note_on_c, 15, 34, 0
17, 64440, Note_on_c, 15, 29, 84
17, 64499, Note_on_c, 15, 29, 0
17, 64500, Note_on_c, 15, 29, 76
17, 64679, Note_on_c, 15, 29, 0
17, 64680, Note_on_c, 15, 34, 76
17, 64904, Note_on_c, 15, 34, 0
17, 64920, Note_on_c, 15, 29, 84
17, 64979, Note_on_c, 15, 29, 0
17, 64980, Note_on_c, 15, 29, 76
17, 65384, Note_on_c, 15, 29, 0
17, 65400, Note_on_c, 15, 29, 84
17, 65459, Note_on_c, 15, 29, 0
17, 65460, Note_on_c, 15, 29, 76
17, 65864, Note_on_c, 15, 29, 0
17, 65880, Note_on_c, 15, 34, 84
17, 65939, Note_on_c, 15, 34, 0
17, 65940, Note_on_c, 15, 34, 76
17, 66344, Note_on_c, 15, 34, 0
17, 66360, Note_on_c, 15, 29, 84
17, 66419, Note_on_c, 15, 29, 0
17, 66420, Note_on_c, 15, 29, 76
17, 66599, Note_on_c, 15, 29, 0
17, 66600, Note_on_c, 15, 34, 76
17, 66839, Note_on_c, 15, 34, 0
17, 67800, Note_on_c, 15, 41, 84
17, 67859, Note_on_c, 15, 41, 0
17, 67860, Note_on_c, 15, 41, 76
17, 68264, Note_on_c, 15, 41, 0
17, 68280, Note_on_c, 15, 36, 76
17, 68519, Note_on_c, 15, 36, 0
17, 68520, Note_on_c, 15, 29, 76
17, 68759, Note_on_c, 15, 29, 0
17, 69720, Note_on_c, 15, 41, 76
17, 70184, Note_on_c, 15, 41, 0
17, 70200, Note_on_c, 15, 36, 76
17, 70424, Note_on_c, 15, 36, 0
17, 70440, Note_on_c, 15, 29, 76
17, 70664, Note_on_c, 15, 29, 0
17, 70680, Note_on_c, 15, 36, 84
17, 70799, Note_on_c, 15, 36, 0
17, 70800, Note_on_c, 15, 38, 84
17, 70859, Note_on_c, 15, 38, 0
17, 70860, Note_on_c, 15, 36, 84
17, 70919, Note_on_c, 15, 36, 0
17, 70920, Note_on_c, 15, 31, 84
17, 71039, Note_on_c, 15, 31, 0
17, 71040, Note_on_c, 15, 33, 84
17, 71099, Note_on_c, 15, 33, 0
17, 71100, Note_on_c, 15, 35, 84
17, 71151, Note_on_c, 15, 35, 0
17, 71160, Note_on_c, 15, 36, 84
17, 71279, Note_on_c, 15, 36, 0
17, 71280, Note_on_c, 15, 38, 84
17, 71339, Note_on_c, 15, 38, 0
17, 71340, Note_on_c, 15, 36, 84
17, 71399, Note_on_c, 15, 36, 0
17, 71400, Note_on_c, 15, 35, 84
17, 71519, Note_on_c, 15, 35, 0
17, 71520, Note_on_c, 15, 36, 84
17, 71579, Note_on_c, 15, 36, 0
17, 71580, Note_on_c, 15, 38, 84
17, 71631, Note_on_c, 15, 38, 0
17, 71640, Note_on_c, 15, 40, 84
17, 71759, Note_on_c, 15, 40, 0
17, 71760, Note_on_c, 15, 38, 84
17, 71819, Note_on_c, 15, 38, 0
17, 71820, Note_on_c, 15, 40, 84
17, 71871, Note_on_c, 15, 40, 0
17, 71880, Note_on_c, 15, 41, 84
17, 71999, Note_on_c, 15, 41, 0
17, 72000, Note_on_c, 15, 43, 84
17, 72059, Note_on_c, 15, 43, 0
17, 72060, Note_on_c, 15, 45, 84
17, 72111, Note_on_c, 15, 45, 0
17, 72120, Note_on_c, 15, 43, 84
17, 72239, Note_on_c, 15, 43, 0
17, 72240, Note_on_c, 15, 45, 84
17, 72299, Note_on_c, 15, 45, 0
17, 72300, Note_on_c, 15, 42, 84
17, 72351, Note_on_c, 15, 42, 0
17, 72360, Note_on_c, 15, 43, 84
17, 72464, Note_on_c, 15, 43, 0
17, 72480, Note_on_c, 15, 31, 84
17, 72584, Note_on_c, 15, 31, 0
17, 72600, Note_on_c, 15, 36, 84
17, 72719, Note_on_c, 15, 36, 0
17, 72720, Note_on_c, 15, 38, 84
17, 72779, Note_on_c, 15, 38, 0
17, 72780, Note_on_c, 15, 36, 84
17, 72839, Note_on_c, 15, 36, 0
17, 72840, Note_on_c, 15, 31, 84
17, 72959, Note_on_c, 15, 31, 0
17, 72960, Note_on_c, 15, 33, 84
17, 73019, Note_on_c, 15, 33, 0
17, 73020, Note_on_c, 15, 35, 84
17, 73071, Note_on_c, 15, 35, 0
17, 73080, Note_on_c, 15, 36, 84
17, 73199, Note_on_c, 15, 36, 0
17, 73200, Note_on_c, 15, 38, 84
17, 73259, Note_on_c, 15, 38, 0
17, 73260, Note_on_c, 15, 36, 84
17, 73319, Note_on_c, 15, 36, 0
17, 73320, Note_on_c, 15, 35, 84
17, 73439, Note_on_c, 15, 35, 0
17, 73440, Note_on_c, 15, 36, 84
17, 73499, Note_on_c, 15, 36, 0
17, 73500, Note_on_c, 15, 38, 84
17, 73551, Note_on_c, 15, 38, 0
17, 73560, Note_on_c, 15, 40, 84
17, 73679, Note_on_c, 15, 40, 0
17, 73680, Note_on_c, 15, 38, 84
17, 73739, Note_on_c, 15, 38, 0
17, 73740, Note_on_c, 15, 40, 84
17, 73791, Note_on_c, 15, 40, 0
17, 73800, Note_on_c, 15, 41, 84
17, 73919, Note_on_c, 15, 41, 0
17, 73920, Note_on_c, 15, 43, 84
17, 73979, Note_on_c, 15, 43, 0
17, 73980, Note_on_c, 15, 45, 84
17, 74031, Note_on_c, 15, 45, 0
17, 74040, Note_on_c, 15, 43, 84
17, 74159, Note_on_c, 15, 43, 0
17, 74160, Note_on_c, 15, 45, 84
17, 74219, Note_on_c, 15, 45, 0
17, 74220, Note_on_c, 15, 42, 84
17, 74271, Note_on_c, 15, 42, 0
17, 74280, Note_on_c, 15, 43, 84
17, 74384, Note_on_c, 15, 43, 0
17, 74400, Note_on_c, 15, 31, 84
17, 74504, Note_on_c, 15, 31, 0
17, 74518, Control_c, 15, 11, 112
17, 74520, Note_on_c, 15, 36, 92
17, 74609, Note_on_c, 15, 36, 0
17, 74640, Note_on_c, 15, 38, 92
17, 74691, Note_on_c, 15, 38, 0
17, 74700, Note_on_c, 15, 36, 92
17, 74712, Control_c, 15, 11, 113
17, 74751, Note_on_c, 15, 36, 0
17, 74760, Note_on_c, 15, 31, 92
17, 74864, Note_on_c, 15, 31, 0
17, 74880, Note_on_c, 15, 33, 92
17, 74904, Control_c, 15, 11, 114
17, 74931, Note_on_c, 15, 33, 0
17, 74940, Note_on_c, 15, 35, 92
17, 74991, Note_on_c, 15, 35, 0
17, 75000, Note_on_c, 15, 36, 92
17, 75089, Note_on_c, 15, 36, 0
17, 75096, Control_c, 15, 11, 115
17, 75120, Note_on_c, 15, 38, 92
17, 75171, Note_on_c, 15, 38, 0
17, 75180, Note_on_c, 15, 36, 92
17, 75231, Note_on_c, 15, 36, 0
17, 75240, Note_on_c, 15, 35, 92
17, 75288, Control_c, 15, 11, 116
17, 75344, Note_on_c, 15, 35, 0
17, 75360, Note_on_c, 15, 36, 92
17, 75411, Note_on_c, 15, 36, 0
17, 75420, Note_on_c, 15, 38, 92
17, 75471, Note_on_c, 15, 38, 0
17, 75480, Control_c, 15, 11, 117
17, 75480, Note_on_c, 15, 40, 92
17, 75569, Note_on_c, 15, 40, 0
17, 75600, Note_on_c, 15, 41, 92
17, 75651, Note_on_c, 15, 41, 0
17, 75660, Note_on_c, 15, 40, 92
17, 75672, Control_c, 15, 11, 118
17, 75711, Note_on_c, 15, 40, 0
17, 75720, Note_on_c, 15, 38, 92
17, 75824, Note_on_c, 15, 38, 0
17, 75840, Note_on_c, 15, 40, 92
17, 75864, Control_c, 15, 11, 119
17, 75891, Note_on_c, 15, 40, 0
17, 75900, Note_on_c, 15, 41, 92
17, 75951, Note_on_c, 15, 41, 0
17, 75960, Note_on_c, 15, 43, 92
17, 76049, Note_on_c, 15, 43, 0
17, 76056, Control_c, 15, 11, 120
17, 76080, Note_on_c, 15, 45, 92
17, 76131, Note_on_c, 15, 45, 0
17, 76140, Note_on_c, 15, 41, 92
17, 76191, Note_on_c, 15, 41, 0
17, 76200, Note_on_c, 15, 43, 92
17, 76248, Control_c, 15, 11, 121
17, 76304, Note_on_c, 15, 43, 0
17, 76320, Note_on_c, 15, 45, 92
17, 76371, Note_on_c, 15, 45, 0
17, 76380, Note_on_c, 15, 47, 92
17, 76431, Note_on_c, 15, 47, 0
17, 76440, Control_c, 15, 11, 122
17, 76440, Note_on_c, 15, 48, 92
17, 76529, Note_on_c, 15, 48, 0
17, 76560, Note_on_c, 15, 50, 92
17, 76611, Note_on_c, 15, 50, 0
17, 76620, Note_on_c, 15, 47, 92
17, 76632, Control_c, 15, 11, 123
17, 76671, Note_on_c, 15, 47, 0
17, 76680, Note_on_c, 15, 48, 92
17, 76784, Note_on_c, 15, 48, 0
17, 76800, Note_on_c, 15, 50, 92
17, 76824, Control_c, 15, 11, 124
17, 76851, Note_on_c, 15, 50, 0
17, 76860, Note_on_c, 15, 47, 92
17, 76911, Note_on_c, 15, 47, 0
17, 76920, Note_on_c, 15, 48, 92
17, 77009, Note_on_c, 15, 48, 0
17, 77016, Control_c, 15, 11, 125
17, 77040, Note_on_c, 15, 50, 92
17, 77091, Note_on_c, 15, 50, 0
17, 77100, Note_on_c, 15, 47, 92
17, 77151, Note_on_c, 15, 47, 0
17, 77160, Note_on_c, 15, 48, 92
17, 77208, Control_c, 15, 11, 127
17, 77264, Note_on_c, 15, 48, 0
17, 77280, Note_on_c, 15, 50, 92
17, 77331, Note_on_c, 15, 50, 0
17, 77340, Note_on_c, 15, 47, 92
17, 77391, Note_on_c, 15, 47, 0
17, 77400, Note_on_c, 15, 48, 84
17, 77519, Note_on_c, 15, 48, 0
17, 77880, Note_on_c, 15, 36, 52
17, 77999, Note_on_c, 15, 36, 0
17, 80400, Note_on_c, 15, 40, 44
17, 80489, Note_on_c, 15, 40, 0
17, 80520, Note_on_c, 15, 38, 44
17, 80609, Note_on_c, 15, 38, 0
17, 80640, Note_on_c, 15, 33, 44
17, 80729, Note_on_c, 15, 33, 0
17, 80760, Note_on_c, 15, 33, 44
17, 80849, Note_on_c, 15, 33, 0
17, 80880, Note_on_c, 15, 33, 44
17, 80999, Note_on_c, 15, 33, 0
17, 81120, Note_on_c, 15, 33, 44
17, 81209, Note_on_c, 15, 33, 0
17, 81240, Note_on_c, 15, 38, 44
17, 81359, Note_on_c, 15, 38, 0
17, 81600, Note_on_c, 15, 38, 44
17, 81719, Note_on_c, 15, 38, 0
17, 81960, Note_on_c, 15, 38, 44
17, 82079, Note_on_c, 15, 38, 0
17, 82320, Note_on_c, 15, 38, 44
17, 82439, Note_on_c, 15, 38, 0
17, 82680, Note_on_c, 15, 38, 44
17, 82799, Note_on_c, 15, 38, 0
17, 83040, Note_on_c, 15, 38, 44
17, 83159, Note_on_c, 15, 38, 0
17, 83400, Note_on_c, 15, 38, 44
17, 83519, Note_on_c, 15, 38, 0
17, 83640, Note_on_c, 15, 33, 44
17, 83729, Note_on_c, 15, 33, 0
17, 83760, Note_on_c, 15, 38, 44
17, 83879, Note_on_c, 15, 38, 0
17, 86160, Note_on_c, 15, 40, 44
17, 86249, Note_on_c, 15, 40, 0
17, 86280, Note_on_c, 15, 38, 44
17, 86369, Note_on_c, 15, 38, 0
17, 86400, Note_on_c, 15, 33, 44
17, 86489, Note_on_c, 15, 33, 0
17, 86520, Note_on_c, 15, 33, 44
17, 86609, Note_on_c, 15, 33, 0
17, 86640, Note_on_c, 15, 33, 44
17, 86759, Note_on_c, 15, 33, 0
17, 86880, Note_on_c, 15, 33, 44
17, 86969, Note_on_c, 15, 33, 0
17, 87000, Note_on_c, 15, 38, 44
17, 87119, Note_on_c, 15, 38, 0
17, 87360, Note_on_c, 15, 38, 44
17, 87479, Note_on_c, 15, 38, 0
17, 87720, Note_on_c, 15, 38, 44
17, 87839, Note_on_c, 15, 38, 0
17, 88080, Note_on_c, 15, 38, 44
17, 88199, Note_on_c, 15, 38, 0
17, 88440, Note_on_c, 15, 38, 44
17, 88559, Note_on_c, 15, 38, 0
17, 88800, Note_on_c, 15, 38, 44
17, 88919, Note_on_c, 15, 38, 0
17, 89160, Note_on_c, 15, 38, 44
17, 89279, Note_on_c, 15, 38, 0
17, 89400, Note_on_c, 15, 33, 44
17, 89489, Note_on_c, 15, 33, 0
17, 89520, Note_on_c, 15, 38, 44
17, 89639, Note_on_c, 15, 38, 0
17, 92160, Note_on_c, 15, 31, 44
17, 92264, Note_on_c, 15, 31, 0
17, 92280, Note_on_c, 15, 33, 44
17, 92384, Note_on_c, 15, 33, 0
17, 92400, Note_on_c, 15, 35, 44
17, 92504, Note_on_c, 15, 35, 0
17, 92520, Note_on_c, 15, 31, 44
17, 92624, Note_on_c, 15, 31, 0
17, 92640, Note_on_c, 15, 31, 44
17, 92744, Note_on_c, 15, 31, 0
17, 92760, Note_on_c, 15, 36, 44
17, 92879, Note_on_c, 15, 36, 0
17, 93120, Note_on_c, 15, 36, 44
17, 93239, Note_on_c, 15, 36, 0
17, 93480, Note_on_c, 15, 36, 44
17, 93599, Note_on_c, 15, 36, 0
17, 93840, Note_on_c, 15, 36, 44
17, 93959, Note_on_c, 15, 36, 0
17, 94200, Note_on_c, 15, 36, 44
17, 94319, Note_on_c, 15, 36, 0
17, 94560, Note_on_c, 15, 36, 44
17, 94679, Note_on_c, 15, 36, 0
17, 94920, Note_on_c, 15, 36, 44
17, 95039, Note_on_c, 15, 36, 0
17, 95160, Note_on_c, 15, 31, 44
17, 95264, Note_on_c, 15, 31, 0
17, 95280, Note_on_c, 15, 36, 44
17, 95399, Note_on_c, 15, 36, 0
17, 95518, Control_c, 15, 11, 64
17, 95520, Note_on_c, 15, 36, 84
17, 95580, Control_c, 15, 11, 67
17, 95639, Note_on_c, 15, 36, 0
17, 95640, Note_on_c, 15, 48, 84
17, 95640, Control_c, 15, 11, 69
17, 95700, Control_c, 15, 11, 72
17, 95759, Note_on_c, 15, 48, 0
17, 95760, Note_on_c, 15, 45, 84
17, 95760, Control_c, 15, 11, 75
17, 95820, Control_c, 15, 11, 77
17, 95879, Note_on_c, 15, 45, 0
17, 95880, Control_c, 15, 11, 80
17, 95880, Note_on_c, 15, 46, 84
17, 95940, Control_c, 15, 11, 82
17, 95999, Note_on_c, 15, 46, 0
17, 96000, Control_c, 15, 11, 85
17, 96000, Note_on_c, 15, 45, 84
17, 96060, Control_c, 15, 11, 88
17, 96119, Note_on_c, 15, 45, 0
17, 96120, Control_c, 15, 11, 90
17, 96120, Note_on_c, 15, 41, 84
17, 96180, Control_c, 15, 11, 93
17, 96239, Note_on_c, 15, 41, 0
17, 96240, Control_c, 15, 11, 96
17, 96240, Note_on_c, 15, 43, 84
17, 96300, Control_c, 15, 11, 98
17, 96359, Note_on_c, 15, 43, 0
17, 96360, Control_c, 15, 11, 101
17, 96360, Note_on_c, 15, 41, 84
17, 96420, Control_c, 15, 11, 103
17, 96479, Note_on_c, 15, 41, 0
17, 96480, Note_on_c, 15, 36, 84
17, 96480, Control_c, 15, 11, 106
17, 96540, Control_c, 15, 11, 109
17, 96599, Note_on_c, 15, 36, 0
17, 96600, Note_on_c, 15, 43, 84
17, 96600, Control_c, 15, 11, 111
17, 96660, Control_c, 15, 11, 114
17, 96719, Note_on_c, 15, 43, 0
17, 96720, Control_c, 15, 11, 117
17, 96720, Note_on_c, 15, 45, 84
17, 96780, Control_c, 15, 11, 119
17, 96839, Note_on_c, 15, 45, 0
17, 96840, Note_on_c, 15, 41, 84
17, 96840, Control_c, 15, 11, 122
17, 96900, Control_c, 15, 11, 127
17, 96944, Note_on_c, 15, 41, 0
17, 96960, Note_on_c, 15, 36, 84
17, 97049, Note_on_c, 15, 36, 0
17, 97080, Note_on_c, 15, 41, 84
17, 97169, Note_on_c, 15, 41, 0
17, 97200, Note_on_c, 15, 36, 84
17, 97289, Note_on_c, 15, 36, 0
17, 97320, Note_on_c, 15, 38, 84
17, 97409, Note_on_c, 15, 38, 0
17, 97440, Note_on_c, 15, 36, 84
17, 97529, Note_on_c, 15, 36, 0
17, 97560, Note_on_c, 15, 33, 84
17, 97649, Note_on_c, 15, 33, 0
17, 97680, Note_on_c, 15, 34, 84
17, 97769, Note_on_c, 15, 34, 0
17, 97800, Note_on_c, 15, 33, 92
17, 97889, Note_on_c, 15, 33, 0
17, 97920, Note_on_c, 15, 29, 84
17, 98009, Note_on_c, 15, 29, 0
17, 98040, Note_on_c, 15, 31, 84
17, 98129, Note_on_c, 15, 31, 0
17, 98160, Note_on_c, 15, 33, 92
17, 98249, Note_on_c, 15, 33, 0
17, 98280, Note_on_c, 15, 29, 84
17, 98369, Note_on_c, 15, 29, 0
17, 98400, Note_on_c, 15, 31, 84
17, 98489, Note_on_c, 15, 31, 0
17, 98520, Note_on_c, 15, 33, 92
17, 98609, Note_on_c, 15, 33, 0
17, 98640, Note_on_c, 15, 29, 84
17, 98729, Note_on_c, 15, 29, 0
17, 98760, Note_on_c, 15, 31, 84
17, 98849, Note_on_c, 15, 31, 0
17, 98880, Note_on_c, 15, 33, 92
17, 98969, Note_on_c, 15, 33, 0
17, 99000, Note_on_c, 15, 29, 84
17, 99089, Note_on_c, 15, 29, 0
17, 99120, Note_on_c, 15, 31, 84
17, 99209, Note_on_c, 15, 31, 0
17, 99240, Note_on_c, 15, 33, 92
17, 99300, Control_c, 15, 11, 112
17, 99584, Note_on_c, 15, 33, 0
17, 99600, Note_on_c, 15, 31, 92
17, 99824, Note_on_c, 15, 31, 0
17, 99840, Note_on_c, 15, 41, 92
17, 99944, Note_on_c, 15, 41, 0
17, 99960, Note_on_c, 15, 40, 92
17, 100184, Note_on_c, 15, 40, 0
17, 100200, Note_on_c, 15, 38, 92
17, 100304, Note_on_c, 15, 38, 0
17, 100320, Note_on_c, 15, 36, 92
17, 100544, Note_on_c, 15, 36, 0
17, 100560, Note_on_c, 15, 46, 92
17, 100664, Note_on_c, 15, 46, 0
17, 100678, Control_c, 15, 11, 127
17, 100680, Note_on_c, 15, 33, 92
17, 100740, Control_c, 15, 11, 112
17, 101024, Note_on_c, 15, 33, 0
17, 101038, Control_c, 15, 11, 127
17, 101040, Note_on_c, 15, 34, 92
17, 101100, Control_c, 15, 11, 112
17, 101384, Note_on_c, 15, 34, 0
17, 101398, Control_c, 15, 11, 127
17, 101400, Note_on_c, 15, 36, 92
17, 101460, Control_c, 15, 11, 112
17, 101744, Note_on_c, 15, 36, 0
17, 101758, Control_c, 15, 11, 127
17, 101760, Note_on_c, 15, 36, 92
17, 101820, Control_c, 15, 11, 112
17, 102104, Note_on_c, 15, 36, 0
17, 102120, Note_on_c, 15, 41, 92
17, 102239, Note_on_c, 15, 41, 0
17, 102360, Note_on_c, 15, 45, 92
17, 102464, Note_on_c, 15, 45, 0
17, 102480, Note_on_c, 15, 43, 92
17, 102704, Note_on_c, 15, 43, 0
17, 102720, Note_on_c, 15, 41, 92
17, 102824, Note_on_c, 15, 41, 0
17, 102840, Note_on_c, 15, 40, 92
17, 103064, Note_on_c, 15, 40, 0
17, 103080, Note_on_c, 15, 38, 92
17, 103184, Note_on_c, 15, 38, 0
17, 103200, Note_on_c, 15, 36, 92
17, 103424, Note_on_c, 15, 36, 0
17, 103440, Note_on_c, 15, 46, 92
17, 103544, Note_on_c, 15, 46, 0
17, 103558, Control_c, 15, 11, 127
17, 103560, Note_on_c, 15, 45, 92
17, 103620, Control_c, 15, 11, 112
17, 103904, Note_on_c, 15, 45, 0
17, 103918, Control_c, 15, 11, 127
17, 103920, Note_on_c, 15, 46, 92
17, 103980, Control_c, 15, 11, 112
17, 104264, Note_on_c, 15, 46, 0
17, 104278, Control_c, 15, 11, 127
17, 104280, Note_on_c, 15, 48, 92
17, 104340, Control_c, 15, 11, 112
17, 104624, Note_on_c, 15, 48, 0
17, 104638, Control_c, 15, 11, 127
17, 104640, Note_on_c, 15, 36, 92
17, 104700, Control_c, 15, 11, 112
17, 104984, Note_on_c, 15, 36, 0
17, 104998, Control_c, 15, 11, 127
17, 105000, Note_on_c, 15, 41, 92
17, 105119, Note_on_c, 15, 41, 0
17, 106080, Note_on_c, 15, 36, 84
17, 106184, Note_on_c, 15, 36, 0
17, 106200, Note_on_c, 15, 36, 84
17, 106304, Note_on_c, 15, 36, 0
17, 106320, Note_on_c, 15, 36, 84
17, 106424, Note_on_c, 15, 36, 0
17, 106440, Note_on_c, 15, 29, 92
17, 106559, Note_on_c, 15, 29, 0
17, 107520, Note_on_c, 15, 36, 84
17, 107624, Note_on_c, 15, 36, 0
17, 107640, Note_on_c, 15, 36, 84
17, 107744, Note_on_c, 15, 36, 0
17, 107760, Note_on_c, 15, 36, 84
17, 107864, Note_on_c, 15, 36, 0
17, 107880, Note_on_c, 15, 29, 92
17, 107999, Note_on_c, 15, 29, 0
17, 108600, Note_on_c, 15, 29, 92
17, 108719, Note_on_c, 15, 29, 0
17, 131640, Note_on_c, 15, 29, 52
17, 133064, Note_on_c, 15, 29, 0
17, 133078, Control_c, 15, 11, 80
17, 133080, Note_on_c, 15, 29, 76
17, 133784, Note_on_c, 15, 29, 0
17, 133800, Note_on_c, 15, 29, 76
17, 134504, Note_on_c, 15, 29, 0
17, 134520, Note_on_c, 15, 29, 76
17, 134520, Control_c, 15, 11, 80
17, 134580, Control_c, 15, 11, 82
17, 134640, Control_c, 15, 11, 84
17, 134700, Control_c, 15, 11, 86
17, 134759, Note_on_c, 15, 29, 0
17, 134760, Note_on_c, 15, 34, 76
17, 134760, Control_c, 15, 11, 88
17, 134820, Control_c, 15, 11, 90
17, 134879, Note_on_c, 15, 34, 0
17, 134880, Note_on_c, 15, 36, 76
17, 134880, Control_c, 15, 11, 92
17, 134940, Control_c, 15, 11, 94
17, 134999, Note_on_c, 15, 36, 0
17, 135000, Note_on_c, 15, 33, 76
17, 135000, Control_c, 15, 11, 96
17, 135060, Control_c, 15, 11, 98
17, 135119, Note_on_c, 15, 33, 0
17, 135120, Note_on_c, 15, 34, 76
17, 135120, Control_c, 15, 11, 100
17, 135180, Control_c, 15, 11, 102
17, 135224, Note_on_c, 15, 34, 0
17, 135240, Note_on_c, 15, 31, 76
17, 135240, Control_c, 15, 11, 104
17, 135300, Control_c, 15, 11, 105
17, 135360, Control_c, 15, 11, 107
17, 135420, Control_c, 15, 11, 109
17, 135479, Note_on_c, 15, 31, 0
17, 135480, Control_c, 15, 11, 111
17, 135480, Note_on_c, 15, 33, 76
17, 135540, Control_c, 15, 11, 113
17, 135599, Note_on_c, 15, 33, 0
17, 135600, Note_on_c, 15, 34, 76
17, 135600, Control_c, 15, 11, 115
17, 135660, Control_c, 15, 11, 117
17, 135719, Note_on_c, 15, 34, 0
17, 135720, Control_c, 15, 11, 119
17, 135720, Note_on_c, 15, 31, 76
17, 135780, Control_c, 15, 11, 121
17, 135839, Note_on_c, 15, 31, 0
17, 135840, Control_c, 15, 11, 123
17, 135840, Note_on_c, 15, 33, 76
17, 135900, Control_c, 15, 11, 127
17, 135944, Note_on_c, 15, 33, 0
17, 135960, Note_on_c, 15, 29, 76
17, 136079, Note_on_c, 15, 29, 0
17, 136200, Note_on_c, 15, 34, 76
17, 136304, Note_on_c, 15, 34, 0
17, 136320, Note_on_c, 15, 36, 76
17, 136424, Note_on_c, 15, 36, 0
17, 136440, Note_on_c, 15, 33, 76
17, 136544, Note_on_c, 15, 33, 0
17, 136560, Note_on_c, 15, 34, 76
17, 136664, Note_on_c, 15, 34, 0
17, 136680, Note_on_c, 15, 34, 76
17, 136784, Note_on_c, 15, 34, 0
17, 136800, Note_on_c, 15, 31, 76
17, 136904, Note_on_c, 15, 31, 0
17, 136920, Note_on_c, 15, 33, 76
17, 137024, Note_on_c, 15, 33, 0
17, 137040, Note_on_c, 15, 33, 76
17, 137144, Note_on_c, 15, 33, 0
17, 137160, Note_on_c, 15, 29, 76
17, 137264, Note_on_c, 15, 29, 0
17, 137280, Note_on_c, 15, 31, 76
17, 137384, Note_on_c, 15, 31, 0
17, 137400, Note_on_c, 15, 29, 84
17, 137459, Note_on_c, 15, 29, 0
17, 137460, Note_on_c, 15, 29, 76
17, 137864, Note_on_c, 15, 29, 0
17, 137880, Note_on_c, 15, 29, 84
17, 137939, Note_on_c, 15, 29, 0
17, 137940, Note_on_c, 15, 29, 76
17, 138344, Note_on_c, 15, 29, 0
17, 138360, Note_on_c, 15, 34, 84
17, 138419, Note_on_c, 15, 34, 0
17, 138420, Note_on_c, 15, 34, 76
17, 138824, Note_on_c, 15, 34, 0
17, 138840, Note_on_c, 15, 29, 84
17, 138899, Note_on_c, 15, 29, 0
17, 138900, Note_on_c, 15, 29, 76
17, 139079, Note_on_c, 15, 29, 0
17, 139080, Note_on_c, 15, 34, 76
17, 139304, Note_on_c, 15, 34, 0
17, 139320, Note_on_c, 15, 29, 84
17, 139379, Note_on_c, 15, 29, 0
17, 139380, Note_on_c, 15, 29, 76
17, 139784, Note_on_c, 15, 29, 0
17, 139800, Note_on_c, 15, 29, 84
17, 139859, Note_on_c, 15, 29, 0
17, 139860, Note_on_c, 15, 29, 76
17, 140264, Note_on_c, 15, 29, 0
17, 140280, Note_on_c, 15, 34, 84
17, 140339, Note_on_c, 15, 34, 0
17, 140340, Note_on_c, 15, 34, 76
17, 140744, Note_on_c, 15, 34, 0
17, 140760, Note_on_c, 15, 29, 84
17, 140819, Note_on_c, 15, 29, 0
17, 140820, Note_on_c, 15, 29, 76
17, 140999, Note_on_c, 15, 29, 0
17, 141000, Note_on_c, 15, 34, 76
17, 141224, Note_on_c, 15, 34, 0
17, 141240, Note_on_c, 15, 29, 84
17, 141299, Note_on_c, 15, 29, 0
17, 141300, Note_on_c, 15, 29, 76
17, 141704, Note_on_c, 15, 29, 0
17, 141720, Note_on_c, 15, 29, 84
17, 141779, Note_on_c, 15, 29, 0
17, 141780, Note_on_c, 15, 29, 76
17, 142184, Note_on_c, 15, 29, 0
17, 142200, Note_on_c, 15, 34, 84
17, 142259, Note_on_c, 15, 34, 0
17, 142260, Note_on_c, 15, 34, 76
17, 142664, Note_on_c, 15, 34, 0
17, 142680, Note_on_c, 15, 29, 84
17, 142739, Note_on_c, 15, 29, 0
17, 142740, Note_on_c, 15, 29, 76
17, 142919, Note_on_c, 15, 29, 0
17, 142920, Note_on_c, 15, 34, 76
17, 143144, Note_on_c, 15, 34, 0
17, 143160, Note_on_c, 15, 29, 84
17, 143219, Note_on_c, 15, 29, 0
17, 143220, Note_on_c, 15, 29, 76
17, 143624, Note_on_c, 15, 29, 0
17, 143640, Note_on_c, 15, 29, 84
17, 143699, Note_on_c, 15, 29, 0
17, 143700, Note_on_c, 15, 29, 76
17, 144104, Note_on_c, 15, 29, 0
17, 144120, Note_on_c, 15, 34, 84
17, 144179, Note_on_c, 15, 34, 0
17, 144180, Note_on_c, 15, 34, 76
17, 144584, Note_on_c, 15, 34, 0
17, 144600, Note_on_c, 15, 29, 84
17, 144659, Note_on_c, 15, 29, 0
17, 144660, Note_on_c, 15, 29, 76
17, 144839, Note_on_c, 15, 29, 0
17, 144840, Note_on_c, 15, 34, 76
17, 145079, Note_on_c, 15, 34, 0
17, 146040, Note_on_c, 15, 41, 84
17, 146099, Note_on_c, 15, 41, 0
17, 146100, Note_on_c, 15, 41, 76
17, 146504, Note_on_c, 15, 41, 0
17, 146520, Note_on_c, 15, 36, 76
17, 146759, Note_on_c, 15, 36, 0
17, 146760, Note_on_c, 15, 29, 76
17, 146999, Note_on_c, 15, 29, 0
17, 147960, Note_on_c, 15, 41, 76
17, 148424, Note_on_c, 15, 41, 0
17, 148440, Note_on_c, 15, 36, 76
17, 148664, Note_on_c, 15, 36, 0
17, 148680, Note_on_c, 15, 29, 76
17, 148904, Note_on_c, 15, 29, 0
17, 148920, Note_on_c, 15, 36, 84
17, 149039, Note_on_c, 15, 36, 0
17, 149040, Note_on_c, 15, 38, 84
17, 149099, Note_on_c, 15, 38, 0
17, 149100, Note_on_c, 15, 36, 84
17, 149159, Note_on_c, 15, 36, 0
17, 149160, Note_on_c, 15, 31, 84
17, 149279, Note_on_c, 15, 31, 0
17, 149280, Note_on_c, 15, 33, 84
17, 149339, Note_on_c, 15, 33, 0
17, 149340, Note_on_c, 15, 35, 84
17, 149391, Note_on_c, 15, 35, 0
17, 149400, Note_on_c, 15, 36, 84
17, 149519, Note_on_c, 15, 36, 0
17, 149520, Note_on_c, 15, 38, 84
17, 149579, Note_on_c, 15, 38, 0
17, 149580, Note_on_c, 15, 36, 84
17, 149639, Note_on_c, 15, 36, 0
17, 149640, Note_on_c, 15, 35, 84
17, 149759, Note_on_c, 15, 35, 0
17, 149760, Note_on_c, 15, 36, 84
17, 149819, Note_on_c, 15, 36, 0
17, 149820, Note_on_c, 15, 38, 84
17, 149871, Note_on_c, 15, 38, 0
17, 149880, Note_on_c, 15, 40, 84
17, 149999, Note_on_c, 15, 40, 0
17, 150000, Note_on_c, 15, 38, 84
17, 150059, Note_on_c, 15, 38, 0
17, 150060, Note_on_c, 15, 40, 84
17, 150111, Note_on_c, 15, 40, 0
17, 150120, Note_on_c, 15, 41, 84
17, 150239, Note_on_c, 15, 41, 0
17, 150240, Note_on_c, 15, 43, 84
17, 150299, Note_on_c, 15, 43, 0
17, 150300, Note_on_c, 15, 45, 84
17, 150351, Note_on_c, 15, 45, 0
17, 150360, Note_on_c, 15, 43, 84
17, 150479, Note_on_c, 15, 43, 0
17, 150480, Note_on_c, 15, 45, 84
17, 150539, Note_on_c, 15, 45, 0
17, 150540, Note_on_c, 15, 42, 84
17, 150591, Note_on_c, 15, 42, 0
17, 150600, Note_on_c, 15, 43, 84
17, 150704, Note_on_c, 15, 43, 0
17, 150720, Note_on_c, 15, 31, 84
17, 150824, Note_on_c, 15, 31, 0
17, 150840, Note_on_c, 15, 36, 84
17, 150959, Note_on_c, 15, 36, 0
17, 150960, Note_on_c, 15, 38, 84
17, 151019, Note_on_c, 15, 38, 0
17, 151020, Note_on_c, 15, 36, 84
17, 151079, Note_on_c, 15, 36, 0
17, 151080, Note_on_c, 15, 31, 84
17, 151199, Note_on_c, 15, 31, 0
17, 151200, Note_on_c, 15, 33, 84
17, 151259, Note_on_c, 15, 33, 0
17, 151260, Note_on_c, 15, 35, 84
17, 151311, Note_on_c, 15, 35, 0
17, 151320, Note_on_c, 15, 36, 84
17, 151439, Note_on_c, 15, 36, 0
17, 151440, Note_on_c, 15, 38, 84
17, 151499, Note_on_c, 15, 38, 0
17, 151500, Note_on_c, 15, 36, 84
17, 151559, Note_on_c, 15, 36, 0
17, 151560, Note_on_c, 15, 35, 84
17, 151679, Note_on_c, 15, 35, 0
17, 151680, Note_on_c, 15, 36, 84
17, 151739, Note_on_c, 15, 36, 0
17, 151740, Note_on_c, 15, 38, 84
17, 151791, Note_on_c, 15, 38, 0
17, 151800, Note_on_c, 15, 40, 84
17, 151919, Note_on_c, 15, 40, 0
17, 151920, Note_on_c, 15, 38, 84
17, 151979, Note_on_c, 15, 38, 0
17, 151980, Note_on_c, 15, 40, 84
17, 152031, Note_on_c, 15, 40, 0
17, 152040, Note_on_c, 15, 41, 84
17, 152159, Note_on_c, 15, 41, 0
17, 152160, Note_on_c, 15, 43, 84
17, 152219, Note_on_c, 15, 43, 0
17, 152220, Note_on_c, 15, 45, 84
17, 152271, Note_on_c, 15, 45, 0
17, 152280, Note_on_c, 15, 43, 84
17, 152399, Note_on_c, 15, 43, 0
17, 152400, Note_on_c, 15, 45, 84
17, 152459, Note_on_c, 15, 45, 0
17, 152460, Note_on_c, 15, 42, 84
17, 152511, Note_on_c, 15, 42, 0
17, 152520, Note_on_c, 15, 43, 84
17, 152624, Note_on_c, 15, 43, 0
17, 152640, Note_on_c, 15, 31, 84
17, 152744, Note_on_c, 15, 31, 0
17, 152758, Control_c, 15, 11, 112
17, 152760, Note_on_c, 15, 36, 92
17, 152849, Note_on_c, 15, 36, 0
17, 152880, Note_on_c, 15, 38, 92
17, 152931, Note_on_c, 15, 38, 0
17, 152940, Note_on_c, 15, 36, 92
17, 152952, Control_c, 15, 11, 113
17, 152991, Note_on_c, 15, 36, 0
17, 153000, Note_on_c, 15, 31, 92
17, 153104, Note_on_c, 15, 31, 0
17, 153120, Note_on_c, 15, 33, 92
17, 153144, Control_c, 15, 11, 114
17, 153171, Note_on_c, 15, 33, 0
17, 153180, Note_on_c, 15, 35, 92
17, 153231, Note_on_c, 15, 35, 0
17, 153240, Note_on_c, 15, 36, 92
17, 153329, Note_on_c, 15, 36, 0
17, 153336, Control_c, 15, 11, 115
17, 153360, Note_on_c, 15, 38, 92
17, 153411, Note_on_c, 15, 38, 0
17, 153420, Note_on_c, 15, 36, 92
17, 153471, Note_on_c, 15, 36, 0
17, 153480, Note_on_c, 15, 35, 92
17, 153528, Control_c, 15, 11, 116
17, 153584, Note_on_c, 15, 35, 0
17, 153600, Note_on_c, 15, 36, 92
17, 153651, Note_on_c, 15, 36, 0
17, 153660, Note_on_c, 15, 38, 92
17, 153711, Note_on_c, 15, 38, 0
17, 153720, Note_on_c, 15, 40, 92
17, 153720, Control_c, 15, 11, 117
17, 153809, Note_on_c, 15, 40, 0
17, 153840, Note_on_c, 15, 41, 92
17, 153891, Note_on_c, 15, 41, 0
17, 153900, Note_on_c, 15, 40, 92
17, 153912, Control_c, 15, 11, 118
17, 153951, Note_on_c, 15, 40, 0
17, 153960, Note_on_c, 15, 38, 92
17, 154064, Note_on_c, 15, 38, 0
17, 154080, Note_on_c, 15, 40, 92
17, 154104, Control_c, 15, 11, 119
17, 154131, Note_on_c, 15, 40, 0
17, 154140, Note_on_c, 15, 41, 92
17, 154191, Note_on_c, 15, 41, 0
17, 154200, Note_on_c, 15, 43, 92
17, 154289, Note_on_c, 15, 43, 0
17, 154296, Control_c, 15, 11, 120
17, 154320, Note_on_c, 15, 45, 92
17, 154371, Note_on_c, 15, 45, 0
17, 154380, Note_on_c, 15, 41, 92
17, 154431, Note_on_c, 15, 41, 0
17, 154440, Note_on_c, 15, 43, 92
17, 154488, Control_c, 15, 11, 121
17, 154544, Note_on_c, 15, 43, 0
17, 154560, Note_on_c, 15, 45, 92
17, 154611, Note_on_c, 15, 45, 0
17, 154620, Note_on_c, 15, 47, 92
17, 154671, Note_on_c, 15, 47, 0
17, 154680, Note_on_c, 15, 48, 92
17, 154680, Control_c, 15, 11, 122
17, 154769, Note_on_c, 15, 48, 0
17, 154800, Note_on_c, 15, 50, 92
17, 154851, Note_on_c, 15, 50, 0
17, 154860, Note_on_c, 15, 47, 92
17, 154872, Control_c, 15, 11, 123
17, 154911, Note_on_c, 15, 47, 0
17, 154920, Note_on_c, 15, 48, 92
17, 155024, Note_on_c, 15, 48, 0
17, 155040, Note_on_c, 15, 50, 92
17, 155064, Control_c, 15, 11, 124
17, 155091, Note_on_c, 15, 50, 0
17, 155100, Note_on_c, 15, 47, 92
17, 155151, Note_on_c, 15, 47, 0
17, 155160, Note_on_c, 15, 48, 92
17, 155249, Note_on_c, 15, 48, 0
17, 155256, Control_c, 15, 11, 125
17, 155280, Note_on_c, 15, 50, 92
17, 155331, Note_on_c, 15, 50, 0
17, 155340, Note_on_c, 15, 47, 92
17, 155391, Note_on_c, 15, 47, 0
17, 155400, Note_on_c, 15, 48, 92
17, 155448, Control_c, 15, 11, 127
17, 155504, Note_on_c, 15, 48, 0
17, 155520, Note_on_c, 15, 50, 92
17, 155571, Note_on_c, 15, 50, 0
17, 155580, Note_on_c, 15, 47, 92
17, 155631, Note_on_c, 15, 47, 0
17, 155640, Note_on_c, 15, 48, 84
17, 155759, Note_on_c, 15, 48, 0
17, 156120, Note_on_c, 15, 36, 52
17, 156239, Note_on_c, 15, 36, 0
17, 158640, Note_on_c, 15, 40, 44
17, 158729, Note_on_c, 15, 40, 0
17, 158760, Note_on_c, 15, 38, 44
17, 158849, Note_on_c, 15, 38, 0
17, 158880, Note_on_c, 15, 33, 44
17, 158969, Note_on_c, 15, 33, 0
17, 159000, Note_on_c, 15, 33, 44
17, 159089, Note_on_c, 15, 33, 0
17, 159120, Note_on_c, 15, 33, 44
17, 159239, Note_on_c, 15, 33, 0
17, 159360, Note_on_c, 15, 33, 44
17, 159449, Note_on_c, 15, 33, 0
17, 159480, Note_on_c, 15, 38, 44
17, 159599, Note_on_c, 15, 38, 0
17, 159840, Note_on_c, 15, 38, 44
17, 159959, Note_on_c, 15, 38, 0
17, 161480, Control_c, 15, 11, 120
17, 161520, Note_on_c, 15, 34, 76
17, 161520, Control_c, 15, 11, 122
17, 161560, Control_c, 15, 11, 124
17, 161600, Control_c, 15, 11, 125
17, 161638, Control_c, 15, 11, 127
17, 161639, Note_on_c, 15, 34, 0
17, 161640, Note_on_c, 15, 36, 76
17, 161759, Note_on_c, 15, 36, 0
17, 162360, Note_on_c, 15, 36, 52
17, 162479, Note_on_c, 15, 36, 0
17, 162960, Program_c, 15, 45
17, 163080, Note_on_c, 15, 29, 48
17, 163199, Note_on_c, 15, 29, 0
17, 163440, Note_on_c, 15, 29, 48
17, 163559, Note_on_c, 15, 29, 0
17, 163800, Note_on_c, 15, 29, 48
17, 163919, Note_on_c, 15, 29, 0
17, 164160, Note_on_c, 15, 29, 48
17, 164279, Note_on_c, 15, 29, 0
17, 164520, Note_on_c, 15, 29, 48
17, 164639, Note_on_c, 15, 29, 0
17, 164880, Note_on_c, 15, 29, 48
17, 164999, Note_on_c, 15, 29, 0
17, 165240, Note_on_c, 15, 29, 48
17, 165359, Note_on_c, 15, 29, 0
17, 165600, Note_on_c, 15, 29, 48
17, 165719, Note_on_c, 15, 29, 0
17, 165838, Program_c, 15, 48
17, 165838, Control_c, 15, 11, 64
17, 165840, Note_on_c, 15, 36, 84
17, 165959, Note_on_c, 15, 36, 0
17, 165960, Note_on_c, 15, 41, 84
17, 166079, Note_on_c, 15, 41, 0
17, 166080, Note_on_c, 15, 36, 84
17, 166080, Control_c, 15, 11, 64
17, 166130, Control_c, 15, 11, 67
17, 166180, Control_c, 15, 11, 69
17, 166199, Note_on_c, 15, 36, 0
17, 166200, Note_on_c, 15, 38, 84
17, 166230, Control_c, 15, 11, 72
17, 166280, Control_c, 15, 11, 75
17, 166319, Note_on_c, 15, 38, 0
17, 166320, Note_on_c, 15, 36, 84
17, 166330, Control_c, 15, 11, 77
17, 166380, Control_c, 15, 11, 80
17, 166430, Control_c, 15, 11, 82
17, 166439, Note_on_c, 15, 36, 0
17, 166440, Note_on_c, 15, 33, 84
17, 166480, Control_c, 15, 11, 85
17, 166530, Control_c, 15, 11, 88
17, 166559, Note_on_c, 15, 33, 0
17, 166560, Note_on_c, 15, 34, 84
17, 166580, Control_c, 15, 11, 90
17, 166630, Control_c, 15, 11, 93
17, 166679, Note_on_c, 15, 34, 0
17, 166680, Control_c, 15, 11, 96
17, 166680, Note_on_c, 15, 33, 84
17, 166730, Control_c, 15, 11, 98
17, 166780, Control_c, 15, 11, 101
17, 166799, Note_on_c, 15, 33, 0
17, 166800, Note_on_c, 15, 29, 84
17, 166830, Control_c, 15, 11, 103
17, 166880, Control_c, 15, 11, 106
17, 166919, Note_on_c, 15, 29, 0
17, 166920, Note_on_c, 15, 31, 84
17, 166930, Control_c, 15, 11, 109
17, 166980, Control_c, 15, 11, 111
17, 167030, Control_c, 15, 11, 114
17, 167039, Note_on_c, 15, 31, 0
17, 167040, Note_on_c, 15, 33, 84
17, 167080, Control_c, 15, 11, 117
17, 167130, Control_c, 15, 11, 119
17, 167159, Note_on_c, 15, 33, 0
17, 167160, Note_on_c, 15, 29, 84
17, 167180, Control_c, 15, 11, 122
17, 167230, Control_c, 15, 11, 124
17, 167259, Note_on_c, 15, 29, 0
17, 167278, Control_c, 15, 11, 127
17, 167280, Note_on_c, 15, 36, 84
17, 167369, Note_on_c, 15, 36, 0
17, 167400, Note_on_c, 15, 41, 84
17, 167489, Note_on_c, 15, 41, 0
17, 167520, Note_on_c, 15, 36, 84
17, 167609, Note_on_c, 15, 36, 0
17, 167640, Note_on_c, 15, 38, 84
17, 167729, Note_on_c, 15, 38, 0
17, 167760, Note_on_c, 15, 36, 84
17, 167849, Note_on_c, 15, 36, 0
17, 167880, Note_on_c, 15, 33, 84
17, 167969, Note_on_c, 15, 33, 0
17, 168000, Note_on_c, 15, 34, 84
17, 168089, Note_on_c, 15, 34, 0
17, 168120, Note_on_c, 15, 33, 92
17, 168209, Note_on_c, 15, 33, 0
17, 168240, Note_on_c, 15, 29, 84
17, 168329, Note_on_c, 15, 29, 0
17, 168360, Note_on_c, 15, 31, 84
17, 168449, Note_on_c, 15, 31, 0
17, 168480, Note_on_c, 15, 33, 92
17, 168569, Note_on_c, 15, 33, 0
17, 168600, Note_on_c, 15, 29, 84
17, 168689, Note_on_c, 15, 29, 0
17, 168720, Note_on_c, 15, 31, 84
17, 168809, Note_on_c, 15, 31, 0
17, 168840, Note_on_c, 15, 33, 92
17, 168929, Note_on_c, 15, 33, 0
17, 168960, Note_on_c, 15, 29, 84
17, 169049, Note_on_c, 15, 29, 0
17, 169080, Note_on_c, 15, 31, 84
17, 169169, Note_on_c, 15, 31, 0
17, 169200, Note_on_c, 15, 33, 92
17, 169289, Note_on_c, 15, 33, 0
17, 169320, Note_on_c, 15, 29, 84
17, 169409, Note_on_c, 15, 29, 0
17, 169440, Note_on_c, 15, 31, 84
17, 169529, Note_on_c, 15, 31, 0
17, 169560, Note_on_c, 15, 33, 92
17, 169620, Control_c, 15, 11, 112
17, 169899, Note_on_c, 15, 33, 0
17, 169920, Note_on_c, 15, 31, 92
17, 170139, Note_on_c, 15, 31, 0
17, 170160, Note_on_c, 15, 41, 92
17, 170259, Note_on_c, 15, 41, 0
17, 170280, Note_on_c, 15, 40, 92
17, 170499, Note_on_c, 15, 40, 0
17, 170520, Note_on_c, 15, 38, 92
17, 170619, Note_on_c, 15, 38, 0
17, 170640, Note_on_c, 15, 36, 92
17, 170859, Note_on_c, 15, 36, 0
17, 170880, Note_on_c, 15, 34, 92
17, 170979, Note_on_c, 15, 34, 0
17, 170998, Control_c, 15, 11, 127
17, 171000, Note_on_c, 15, 33, 92
17, 171060, Control_c, 15, 11, 112
17, 171339, Note_on_c, 15, 33, 0
17, 171358, Control_c, 15, 11, 127
17, 171360, Note_on_c, 15, 34, 92
17, 171420, Control_c, 15, 11, 112
17, 171699, Note_on_c, 15, 34, 0
17, 171718, Control_c, 15, 11, 127
17, 171720, Note_on_c, 15, 36, 92
17, 171780, Control_c, 15, 11, 112
17, 172059, Note_on_c, 15, 36, 0
17, 172080, Note_on_c, 15, 36, 92
17, 172140, Control_c, 15, 11, 112
17, 172419, Note_on_c, 15, 36, 0
17, 172438, Control_c, 15, 11, 127
17, 172440, Note_on_c, 15, 41, 84
17, 172559, Note_on_c, 15, 41, 0
17, 172680, Note_on_c, 15, 45, 84
17, 172779, Note_on_c, 15, 45, 0
17, 172800, Note_on_c, 15, 43, 84
17, 173019, Note_on_c, 15, 43, 0
17, 173040, Note_on_c, 15, 41, 84
17, 173139, Note_on_c, 15, 41, 0
17, 173160, Note_on_c, 15, 40, 84
17, 173379, Note_on_c, 15, 40, 0
17, 173400, Note_on_c, 15, 38, 84
17, 173499, Note_on_c, 15, 38, 0
17, 173520, Note_on_c, 15, 36, 84
17, 173739, Note_on_c, 15, 36, 0
17, 173760, Note_on_c, 15, 46, 84
17, 173859, Note_on_c, 15, 46, 0
17, 173880, Note_on_c, 15, 45, 92
17, 173940, Control_c, 15, 11, 112
17, 174219, Note_on_c, 15, 45, 0
17, 174238, Control_c, 15, 11, 127
17, 174240, Note_on_c, 15, 46, 92
17, 174300, Control_c, 15, 11, 112
17, 174579, Note_on_c, 15, 46, 0
17, 174598, Control_c, 15, 11, 127
17, 174600, Note_on_c, 15, 48, 92
17, 174660, Control_c, 15, 11, 112
17, 174939, Note_on_c, 15, 48, 0
17, 174958, Control_c, 15, 11, 127
17, 174960, Note_on_c, 15, 36, 92
17, 175020, Control_c, 15, 11, 112
17, 175299, Note_on_c, 15, 36, 0
17, 175318, Control_c, 15, 11, 127
17, 175320, Note_on_c, 15, 41, 92
17, 175439, Note_on_c, 15, 41, 0
17, 176400, Note_on_c, 15, 36, 84
17, 176499, Note_on_c, 15, 36, 0
17, 176520, Note_on_c, 15, 36, 84
17, 176619, Note_on_c, 15, 36, 0
17, 176640, Note_on_c, 15, 36, 84
17, 176739, Note_on_c, 15, 36, 0
17, 176760, Note_on_c, 15, 29, 92
17, 176879, Note_on_c, 15, 29, 0
17, 177840, Note_on_c, 15, 36, 84
17, 177939, Note_on_c, 15, 36, 0
17, 177960, Note_on_c, 15, 36, 84
17, 178059, Note_on_c, 15, 36, 0
17, 178080, Note_on_c, 15, 36, 84
17, 178179, Note_on_c, 15, 36, 0
17, 178179, End_track
18, 0, Start_track
18, 0, Title_t, "Ludwig van Beethoven - Symphony No. 6 in F Major, Op.68 - 3. Allegro"
18, 0, MIDI_port, 0
18, 0, End_track
0, 0, End_of_file
