0, 0, Header, 1, 19, 240
1, 0, Start_track
1, 0, Sequencer_specific, 10, 0, 0, 91, 35, 1, 0, 5, 6, 42, 0
1, 0, Title_t, "Ludwig van Beethoven - Symphony No. 6 in F Major, Op.68"
1, 0, Instrument_name_t, "Conductor Track"
1, 0, SMPTE_offset, 96, 0, 3, 0, 0
1, 0, MIDI_port, 0
1, 0, Key_signature, -1, "major"
1, 0, Tempo, 1000000
1, 0, Time_signature, 6, 3, 36, 8
1, 189840, Tempo, 1000000
1, 189840, End_track
2, 0, Start_track
2, 0, Title_t, "5th Movement - Shepherd's Song: Happy and Grateful Feelings After the Storm"
2, 0, MIDI_port, 0
2, 0, End_track
3, 0, Start_track
3, 0, Title_t, "(Hirtengesang. Frohe und dankbare Gefühle nach dem Sturm)"
3, 0, MIDI_port, 0
3, 0, End_track
4, 0, Start_track
4, 0, Title_t, "Sequenced by D. L. Viens 23 Aug 2000"
4, 0, MIDI_port, 0
4, 0, End_track
5, 0, Start_track
5, 0, Title_t, "dlviens@empire.net"
5, 0, MIDI_port, 0
5, 0, End_track
6, 0, Start_track
6, 0, MIDI_port, 0
6, 0, End_track
7, 0, Start_track
7, 0, Title_t, "Flute"
7, 0, MIDI_port, 0
7, 0, Program_c, 1, 73
7, 0, Control_c, 1, 7, 72
7, 0, Control_c, 1, 10, 60
7, 0, Control_c, 1, 11, 127
7, 0, Note_on_c, 1, 84, 44
7, 239, Note_on_c, 1, 84, 0
7, 17040, Note_on_c, 1, 84, 82
7, 17040, Note_on_c, 1, 89, 82
7, 17151, Note_on_c, 1, 84, 0
7, 17151, Note_on_c, 1, 89, 0
7, 17160, Note_on_c, 1, 84, 83
7, 17160, Note_on_c, 1, 89, 83
7, 17271, Note_on_c, 1, 84, 0
7, 17271, Note_on_c, 1, 89, 0
7, 17280, Note_on_c, 1, 89, 84
7, 17280, Note_on_c, 1, 84, 84
7, 17991, Note_on_c, 1, 89, 0
7, 17991, Note_on_c, 1, 84, 0
7, 18000, Note_on_c, 1, 84, 84
7, 18000, Note_on_c, 1, 89, 84
7, 18711, Note_on_c, 1, 84, 0
7, 18711, Note_on_c, 1, 89, 0
7, 18720, Note_on_c, 1, 84, 84
7, 18720, Note_on_c, 1, 89, 84
7, 19431, Note_on_c, 1, 84, 0
7, 19431, Note_on_c, 1, 89, 0
7, 19440, Note_on_c, 1, 89, 84
7, 19440, Note_on_c, 1, 86, 84
7, 20031, Note_on_c, 1, 89, 0
7, 20031, Note_on_c, 1, 86, 0
7, 20040, Note_on_c, 1, 84, 84
7, 20040, Note_on_c, 1, 91, 84
7, 20151, Note_on_c, 1, 84, 0
7, 20151, Note_on_c, 1, 91, 0
7, 20160, Note_on_c, 1, 91, 84
7, 20160, Note_on_c, 1, 84, 84
7, 20871, Note_on_c, 1, 91, 0
7, 20871, Note_on_c, 1, 84, 0
7, 20880, Note_on_c, 1, 84, 84
7, 20880, Note_on_c, 1, 91, 84
7, 20991, Note_on_c, 1, 91, 0
7, 21000, Note_on_c, 1, 89, 84
7, 21231, Note_on_c, 1, 84, 0
7, 21240, Note_on_c, 1, 86, 84
7, 21471, Note_on_c, 1, 89, 0
7, 21471, Note_on_c, 1, 86, 0
7, 21480, Note_on_c, 1, 84, 84
7, 21480, Note_on_c, 1, 89, 84
7, 21591, Note_on_c, 1, 84, 0
7, 21591, Note_on_c, 1, 89, 0
7, 21600, Note_on_c, 1, 89, 84
7, 21600, Note_on_c, 1, 86, 84
7, 21951, Note_on_c, 1, 89, 0
7, 21951, Note_on_c, 1, 86, 0
7, 21960, Note_on_c, 1, 88, 84
7, 21960, Note_on_c, 1, 84, 84
7, 22311, Note_on_c, 1, 88, 0
7, 22311, Note_on_c, 1, 84, 0
7, 22320, Note_on_c, 1, 89, 84
7, 22320, Note_on_c, 1, 84, 84
7, 22439, Note_on_c, 1, 89, 0
7, 22439, Note_on_c, 1, 84, 0
7, 23640, Note_on_c, 1, 84, 84
7, 23640, Note_on_c, 1, 72, 84
7, 23751, Note_on_c, 1, 84, 0
7, 23751, Note_on_c, 1, 72, 0
7, 23760, Note_on_c, 1, 72, 84
7, 23760, Note_on_c, 1, 84, 84
7, 24831, Note_on_c, 1, 72, 0
7, 24831, Note_on_c, 1, 84, 0
7, 24840, Note_on_c, 1, 72, 84
7, 24840, Note_on_c, 1, 84, 84
7, 25071, Note_on_c, 1, 72, 0
7, 25071, Note_on_c, 1, 84, 0
7, 25080, Note_on_c, 1, 84, 84
7, 25080, Note_on_c, 1, 72, 84
7, 25199, Note_on_c, 1, 84, 0
7, 25199, Note_on_c, 1, 72, 0
7, 26520, Note_on_c, 1, 84, 84
7, 26520, Note_on_c, 1, 72, 84
7, 26631, Note_on_c, 1, 84, 0
7, 26631, Note_on_c, 1, 72, 0
7, 26640, Note_on_c, 1, 72, 84
7, 26640, Note_on_c, 1, 84, 84
7, 27711, Note_on_c, 1, 72, 0
7, 27711, Note_on_c, 1, 84, 0
7, 27720, Note_on_c, 1, 72, 84
7, 27720, Note_on_c, 1, 84, 84
7, 27951, Note_on_c, 1, 72, 0
7, 27951, Note_on_c, 1, 84, 0
7, 27960, Note_on_c, 1, 84, 84
7, 27960, Note_on_c, 1, 72, 84
7, 28071, Note_on_c, 1, 84, 0
7, 28071, Note_on_c, 1, 72, 0
7, 28080, Note_on_c, 1, 72, 92
7, 28080, Note_on_c, 1, 84, 92
7, 28110, Control_c, 1, 11, 112
7, 28431, Note_on_c, 1, 72, 0
7, 28431, Note_on_c, 1, 84, 0
7, 28440, Note_on_c, 1, 86, 92
7, 28440, Note_on_c, 1, 74, 92
7, 28671, Note_on_c, 1, 86, 0
7, 28671, Note_on_c, 1, 74, 0
7, 28680, Note_on_c, 1, 74, 92
7, 28680, Note_on_c, 1, 86, 92
7, 28791, Note_on_c, 1, 74, 0
7, 28791, Note_on_c, 1, 86, 0
7, 28798, Control_c, 1, 11, 127
7, 28800, Note_on_c, 1, 84, 92
7, 28800, Note_on_c, 1, 88, 92
7, 28830, Control_c, 1, 11, 112
7, 29151, Note_on_c, 1, 84, 0
7, 29151, Note_on_c, 1, 88, 0
7, 29160, Note_on_c, 1, 89, 92
7, 29160, Note_on_c, 1, 83, 92
7, 29391, Note_on_c, 1, 89, 0
7, 29391, Note_on_c, 1, 83, 0
7, 29400, Note_on_c, 1, 83, 92
7, 29400, Note_on_c, 1, 91, 92
7, 29511, Note_on_c, 1, 83, 0
7, 29511, Note_on_c, 1, 91, 0
7, 29518, Control_c, 1, 11, 127
7, 29520, Note_on_c, 1, 91, 84
7, 29520, Note_on_c, 1, 84, 84
7, 30111, Note_on_c, 1, 91, 0
7, 30111, Note_on_c, 1, 84, 0
7, 30120, Note_on_c, 1, 84, 84
7, 30120, Note_on_c, 1, 88, 84
7, 30231, Note_on_c, 1, 84, 0
7, 30231, Note_on_c, 1, 88, 0
7, 30240, Note_on_c, 1, 84, 84
7, 30240, Note_on_c, 1, 88, 84
7, 30471, Note_on_c, 1, 84, 0
7, 30471, Note_on_c, 1, 88, 0
7, 30480, Note_on_c, 1, 84, 84
7, 30480, Note_on_c, 1, 88, 84
7, 30591, Note_on_c, 1, 84, 0
7, 30591, Note_on_c, 1, 88, 0
7, 30600, Note_on_c, 1, 88, 84
7, 30600, Note_on_c, 1, 84, 84
7, 30831, Note_on_c, 1, 88, 0
7, 30831, Note_on_c, 1, 84, 0
7, 30840, Note_on_c, 1, 84, 84
7, 30840, Note_on_c, 1, 88, 84
7, 30951, Note_on_c, 1, 84, 0
7, 30951, Note_on_c, 1, 88, 0
7, 30960, Note_on_c, 1, 89, 84
7, 30960, Note_on_c, 1, 86, 84
7, 31551, Note_on_c, 1, 89, 0
7, 31551, Note_on_c, 1, 86, 0
7, 31560, Note_on_c, 1, 86, 84
7, 31560, Note_on_c, 1, 83, 84
7, 31671, Note_on_c, 1, 86, 0
7, 31671, Note_on_c, 1, 83, 0
7, 31680, Note_on_c, 1, 83, 84
7, 31680, Note_on_c, 1, 86, 84
7, 31911, Note_on_c, 1, 83, 0
7, 31911, Note_on_c, 1, 86, 0
7, 31920, Note_on_c, 1, 83, 84
7, 31920, Note_on_c, 1, 86, 84
7, 32031, Note_on_c, 1, 83, 0
7, 32031, Note_on_c, 1, 86, 0
7, 32040, Note_on_c, 1, 83, 84
7, 32040, Note_on_c, 1, 86, 84
7, 32271, Note_on_c, 1, 83, 0
7, 32271, Note_on_c, 1, 86, 0
7, 32280, Note_on_c, 1, 86, 84
7, 32280, Note_on_c, 1, 83, 84
7, 32391, Note_on_c, 1, 86, 0
7, 32391, Note_on_c, 1, 83, 0
7, 32400, Note_on_c, 1, 91, 84
7, 32400, Note_on_c, 1, 88, 84
7, 32631, Note_on_c, 1, 91, 0
7, 32631, Note_on_c, 1, 88, 0
7, 32640, Note_on_c, 1, 91, 84
7, 32640, Note_on_c, 1, 88, 84
7, 32751, Note_on_c, 1, 91, 0
7, 32751, Note_on_c, 1, 88, 0
7, 32760, Note_on_c, 1, 88, 84
7, 32760, Note_on_c, 1, 91, 84
7, 32991, Note_on_c, 1, 88, 0
7, 32991, Note_on_c, 1, 91, 0
7, 33000, Note_on_c, 1, 88, 84
7, 33000, Note_on_c, 1, 91, 84
7, 33111, Note_on_c, 1, 88, 0
7, 33111, Note_on_c, 1, 91, 0
7, 33120, Note_on_c, 1, 88, 84
7, 33120, Note_on_c, 1, 91, 84
7, 33351, Note_on_c, 1, 88, 0
7, 33351, Note_on_c, 1, 91, 0
7, 33360, Note_on_c, 1, 88, 84
7, 33360, Note_on_c, 1, 84, 84
7, 33471, Note_on_c, 1, 88, 0
7, 33471, Note_on_c, 1, 84, 0
7, 33480, Note_on_c, 1, 88, 84
7, 33480, Note_on_c, 1, 84, 84
7, 33711, Note_on_c, 1, 88, 0
7, 33711, Note_on_c, 1, 84, 0
7, 33720, Note_on_c, 1, 84, 84
7, 33720, Note_on_c, 1, 88, 84
7, 33831, Note_on_c, 1, 84, 0
7, 33831, Note_on_c, 1, 88, 0
7, 33840, Note_on_c, 1, 89, 84
7, 33840, Note_on_c, 1, 86, 84
7, 34071, Note_on_c, 1, 89, 0
7, 34071, Note_on_c, 1, 86, 0
7, 34080, Note_on_c, 1, 89, 84
7, 34080, Note_on_c, 1, 86, 84
7, 34191, Note_on_c, 1, 89, 0
7, 34191, Note_on_c, 1, 86, 0
7, 34200, Note_on_c, 1, 86, 84
7, 34200, Note_on_c, 1, 89, 84
7, 34431, Note_on_c, 1, 86, 0
7, 34431, Note_on_c, 1, 89, 0
7, 34440, Note_on_c, 1, 89, 84
7, 34440, Note_on_c, 1, 86, 84
7, 34551, Note_on_c, 1, 89, 0
7, 34551, Note_on_c, 1, 86, 0
7, 34560, Note_on_c, 1, 89, 84
7, 34560, Note_on_c, 1, 86, 84
7, 34799, Note_on_c, 1, 89, 0
7, 34799, Note_on_c, 1, 86, 0
7, 34800, Note_on_c, 1, 86, 84
7, 34800, Note_on_c, 1, 83, 84
7, 34911, Note_on_c, 1, 86, 0
7, 34911, Note_on_c, 1, 83, 0
7, 34920, Note_on_c, 1, 83, 84
7, 34920, Note_on_c, 1, 86, 84
7, 35151, Note_on_c, 1, 83, 0
7, 35151, Note_on_c, 1, 86, 0
7, 35160, Note_on_c, 1, 86, 84
7, 35160, Note_on_c, 1, 83, 84
7, 35271, Note_on_c, 1, 86, 0
7, 35271, Note_on_c, 1, 83, 0
7, 35280, Note_on_c, 1, 84, 84
7, 35280, Note_on_c, 1, 88, 84
7, 35511, Note_on_c, 1, 84, 0
7, 35511, Note_on_c, 1, 88, 0
7, 36210, Control_c, 1, 11, 117
7, 36240, Note_on_c, 1, 84, 76
7, 36240, Control_c, 1, 11, 119
7, 36240, Note_on_c, 1, 88, 76
7, 36270, Control_c, 1, 11, 121
7, 36300, Control_c, 1, 11, 123
7, 36330, Control_c, 1, 11, 125
7, 36358, Control_c, 1, 11, 127
7, 36359, Note_on_c, 1, 84, 0
7, 36359, Note_on_c, 1, 88, 0
7, 36360, Note_on_c, 1, 86, 76
7, 36360, Note_on_c, 1, 89, 76
7, 36591, Note_on_c, 1, 86, 0
7, 36591, Note_on_c, 1, 89, 0
7, 36600, Note_on_c, 1, 86, 76
7, 36600, Note_on_c, 1, 89, 76
7, 36711, Note_on_c, 1, 86, 0
7, 36711, Note_on_c, 1, 89, 0
7, 36720, Note_on_c, 1, 84, 76
7, 36720, Note_on_c, 1, 88, 76
7, 36839, Note_on_c, 1, 84, 0
7, 36839, Note_on_c, 1, 88, 0
7, 37290, Control_c, 1, 11, 94
7, 37320, Note_on_c, 1, 84, 76
7, 37320, Control_c, 1, 11, 96
7, 37350, Control_c, 1, 11, 98
7, 37380, Control_c, 1, 11, 100
7, 37410, Control_c, 1, 11, 102
7, 37440, Control_c, 1, 11, 104
7, 37470, Control_c, 1, 11, 105
7, 37500, Control_c, 1, 11, 107
7, 37530, Control_c, 1, 11, 109
7, 37559, Note_on_c, 1, 84, 0
7, 37560, Control_c, 1, 11, 111
7, 37560, Note_on_c, 1, 89, 76
7, 37590, Control_c, 1, 11, 113
7, 37620, Control_c, 1, 11, 115
7, 37650, Control_c, 1, 11, 117
7, 37679, Note_on_c, 1, 89, 0
7, 37680, Note_on_c, 1, 84, 76
7, 37680, Control_c, 1, 11, 119
7, 37680, Note_on_c, 1, 88, 76
7, 37710, Control_c, 1, 11, 121
7, 37740, Control_c, 1, 11, 123
7, 37770, Control_c, 1, 11, 125
7, 37791, Note_on_c, 1, 88, 0
7, 37798, Control_c, 1, 11, 127
7, 37799, Note_on_c, 1, 84, 0
7, 37800, Note_on_c, 1, 86, 76
7, 37800, Note_on_c, 1, 89, 76
7, 38031, Note_on_c, 1, 86, 0
7, 38031, Note_on_c, 1, 89, 0
7, 38040, Note_on_c, 1, 89, 76
7, 38040, Note_on_c, 1, 86, 76
7, 38129, Note_on_c, 1, 89, 0
7, 38129, Note_on_c, 1, 86, 0
7, 38160, Note_on_c, 1, 84, 84
7, 38160, Note_on_c, 1, 88, 84
7, 38511, Note_on_c, 1, 84, 0
7, 38511, Note_on_c, 1, 88, 0
7, 38520, Note_on_c, 1, 88, 84
7, 38520, Note_on_c, 1, 84, 84
7, 38639, Note_on_c, 1, 88, 0
7, 38639, Note_on_c, 1, 84, 0
7, 38760, Note_on_c, 1, 84, 84
7, 38760, Note_on_c, 1, 88, 84
7, 38849, Note_on_c, 1, 84, 0
7, 38849, Note_on_c, 1, 88, 0
7, 38880, Note_on_c, 1, 86, 84
7, 38880, Note_on_c, 1, 89, 84
7, 39231, Note_on_c, 1, 86, 0
7, 39231, Note_on_c, 1, 89, 0
7, 39240, Note_on_c, 1, 89, 84
7, 39240, Note_on_c, 1, 86, 84
7, 39359, Note_on_c, 1, 89, 0
7, 39359, Note_on_c, 1, 86, 0
7, 39480, Note_on_c, 1, 86, 84
7, 39480, Note_on_c, 1, 89, 84
7, 39569, Note_on_c, 1, 86, 0
7, 39569, Note_on_c, 1, 89, 0
7, 39600, Note_on_c, 1, 84, 84
7, 39600, Note_on_c, 1, 88, 84
7, 39689, Note_on_c, 1, 84, 0
7, 39689, Note_on_c, 1, 88, 0
7, 40800, Note_on_c, 1, 79, 48
7, 40919, Note_on_c, 1, 79, 0
7, 40920, Note_on_c, 1, 88, 48
7, 41039, Note_on_c, 1, 88, 0
7, 41040, Note_on_c, 1, 84, 48
7, 41159, Note_on_c, 1, 84, 0
7, 41160, Note_on_c, 1, 79, 48
7, 41279, Note_on_c, 1, 79, 0
7, 41280, Note_on_c, 1, 88, 48
7, 41399, Note_on_c, 1, 88, 0
7, 41400, Note_on_c, 1, 79, 48
7, 41519, Note_on_c, 1, 79, 0
7, 41520, Note_on_c, 1, 76, 48
7, 41639, Note_on_c, 1, 76, 0
7, 41640, Note_on_c, 1, 84, 48
7, 41759, Note_on_c, 1, 84, 0
7, 41760, Note_on_c, 1, 79, 48
7, 41879, Note_on_c, 1, 79, 0
7, 41880, Note_on_c, 1, 76, 48
7, 41999, Note_on_c, 1, 76, 0
7, 42000, Note_on_c, 1, 84, 48
7, 42119, Note_on_c, 1, 84, 0
7, 44628, Control_c, 1, 11, 106
7, 44640, Note_on_c, 1, 76, 68
7, 44640, Note_on_c, 1, 84, 68
7, 44663, Control_c, 1, 11, 107
7, 44698, Control_c, 1, 11, 108
7, 44733, Control_c, 1, 11, 109
7, 44768, Control_c, 1, 11, 110
7, 44803, Control_c, 1, 11, 111
7, 44837, Control_c, 1, 11, 112
7, 44872, Control_c, 1, 11, 113
7, 44907, Control_c, 1, 11, 114
7, 44942, Control_c, 1, 11, 115
7, 44977, Control_c, 1, 11, 116
7, 45012, Control_c, 1, 11, 117
7, 45046, Control_c, 1, 11, 118
7, 45081, Control_c, 1, 11, 119
7, 45116, Control_c, 1, 11, 120
7, 45151, Control_c, 1, 11, 121
7, 45186, Control_c, 1, 11, 122
7, 45221, Control_c, 1, 11, 123
7, 45231, Note_on_c, 1, 84, 0
7, 45240, Note_on_c, 1, 79, 68
7, 45255, Control_c, 1, 11, 124
7, 45290, Control_c, 1, 11, 125
7, 45325, Control_c, 1, 11, 127
7, 45351, Note_on_c, 1, 76, 0
7, 45351, Note_on_c, 1, 79, 0
7, 45360, Note_on_c, 1, 81, 52
7, 45360, Note_on_c, 1, 77, 52
7, 45599, Note_on_c, 1, 81, 0
7, 45599, Note_on_c, 1, 77, 0
7, 54720, Note_on_c, 1, 81, 76
7, 54720, Note_on_c, 1, 84, 76
7, 54831, Note_on_c, 1, 81, 0
7, 54831, Note_on_c, 1, 84, 0
7, 54840, Note_on_c, 1, 84, 76
7, 54840, Note_on_c, 1, 81, 76
7, 54951, Note_on_c, 1, 84, 0
7, 54951, Note_on_c, 1, 81, 0
7, 54960, Note_on_c, 1, 84, 76
7, 54960, Note_on_c, 1, 81, 76
7, 55071, Note_on_c, 1, 84, 0
7, 55071, Note_on_c, 1, 81, 0
7, 55080, Note_on_c, 1, 81, 76
7, 55080, Note_on_c, 1, 84, 76
7, 55191, Note_on_c, 1, 81, 0
7, 55191, Note_on_c, 1, 84, 0
7, 55200, Note_on_c, 1, 84, 76
7, 55200, Note_on_c, 1, 81, 76
7, 55311, Note_on_c, 1, 84, 0
7, 55311, Note_on_c, 1, 81, 0
7, 55320, Note_on_c, 1, 89, 84
7, 55320, Note_on_c, 1, 81, 84
7, 55409, Note_on_c, 1, 89, 0
7, 55409, Note_on_c, 1, 81, 0
7, 55440, Note_on_c, 1, 89, 84
7, 55440, Note_on_c, 1, 81, 84
7, 55649, Note_on_c, 1, 89, 0
7, 55649, Note_on_c, 1, 81, 0
7, 55680, Note_on_c, 1, 89, 84
7, 55680, Note_on_c, 1, 81, 84
7, 55769, Note_on_c, 1, 89, 0
7, 55769, Note_on_c, 1, 81, 0
7, 55800, Note_on_c, 1, 89, 84
7, 55800, Note_on_c, 1, 81, 84
7, 56009, Note_on_c, 1, 89, 0
7, 56009, Note_on_c, 1, 81, 0
7, 56040, Note_on_c, 1, 89, 84
7, 56040, Note_on_c, 1, 81, 84
7, 56129, Note_on_c, 1, 89, 0
7, 56129, Note_on_c, 1, 81, 0
7, 56160, Note_on_c, 1, 81, 84
7, 56160, Note_on_c, 1, 89, 84
7, 56369, Note_on_c, 1, 81, 0
7, 56369, Note_on_c, 1, 89, 0
7, 56400, Note_on_c, 1, 89, 84
7, 56400, Note_on_c, 1, 81, 84
7, 56489, Note_on_c, 1, 89, 0
7, 56489, Note_on_c, 1, 81, 0
7, 56520, Note_on_c, 1, 81, 84
7, 56520, Note_on_c, 1, 89, 84
7, 56729, Note_on_c, 1, 81, 0
7, 56729, Note_on_c, 1, 89, 0
7, 56760, Note_on_c, 1, 81, 84
7, 56760, Note_on_c, 1, 89, 84
7, 56849, Note_on_c, 1, 81, 0
7, 56849, Note_on_c, 1, 89, 0
7, 56880, Note_on_c, 1, 86, 84
7, 56880, Note_on_c, 1, 82, 84
7, 57119, Note_on_c, 1, 86, 0
7, 57119, Note_on_c, 1, 82, 0
7, 58200, Note_on_c, 1, 77, 76
7, 58200, Note_on_c, 1, 82, 76
7, 58311, Note_on_c, 1, 77, 0
7, 58311, Note_on_c, 1, 82, 0
7, 58320, Note_on_c, 1, 82, 84
7, 58320, Note_on_c, 1, 77, 84
7, 58350, Control_c, 1, 11, 112
7, 58559, Note_on_c, 1, 82, 0
7, 58559, Note_on_c, 1, 77, 0
7, 58560, Note_on_c, 1, 81, 84
7, 58679, Note_on_c, 1, 81, 0
7, 59640, Note_on_c, 1, 86, 84
7, 59640, Note_on_c, 1, 83, 84
7, 59751, Note_on_c, 1, 86, 0
7, 59751, Note_on_c, 1, 83, 0
7, 59758, Control_c, 1, 11, 127
7, 59760, Note_on_c, 1, 86, 84
7, 59760, Note_on_c, 1, 83, 84
7, 59790, Control_c, 1, 11, 112
7, 59999, Note_on_c, 1, 86, 0
7, 59999, Note_on_c, 1, 83, 0
7, 60000, Note_on_c, 1, 84, 84
7, 60000, Note_on_c, 1, 87, 84
7, 60119, Note_on_c, 1, 84, 0
7, 60119, Note_on_c, 1, 87, 0
7, 60960, Control_c, 1, 11, 127
7, 61080, Note_on_c, 1, 89, 76
7, 61080, Note_on_c, 1, 81, 76
7, 61199, Note_on_c, 1, 89, 0
7, 61199, Note_on_c, 1, 81, 0
7, 61200, Note_on_c, 1, 86, 76
7, 61200, Note_on_c, 1, 82, 76
7, 61439, Note_on_c, 1, 86, 0
7, 61439, Note_on_c, 1, 82, 0
7, 61800, Note_on_c, 1, 86, 76
7, 61800, Note_on_c, 1, 89, 76
7, 61919, Note_on_c, 1, 86, 0
7, 61919, Note_on_c, 1, 89, 0
7, 61920, Note_on_c, 1, 87, 76
7, 61920, Note_on_c, 1, 91, 76
7, 62159, Note_on_c, 1, 87, 0
7, 62159, Note_on_c, 1, 91, 0
7, 62520, Note_on_c, 1, 91, 76
7, 62520, Note_on_c, 1, 87, 76
7, 62639, Note_on_c, 1, 91, 0
7, 62639, Note_on_c, 1, 87, 0
7, 62640, Note_on_c, 1, 86, 76
7, 62640, Note_on_c, 1, 89, 76
7, 62879, Note_on_c, 1, 86, 0
7, 62879, Note_on_c, 1, 89, 0
7, 63240, Note_on_c, 1, 86, 76
7, 63240, Note_on_c, 1, 89, 76
7, 63359, Note_on_c, 1, 86, 0
7, 63359, Note_on_c, 1, 89, 0
7, 63360, Note_on_c, 1, 84, 76
7, 63360, Note_on_c, 1, 87, 76
7, 63599, Note_on_c, 1, 84, 0
7, 63599, Note_on_c, 1, 87, 0
7, 63960, Note_on_c, 1, 84, 76
7, 63960, Note_on_c, 1, 87, 76
7, 64071, Note_on_c, 1, 84, 0
7, 64071, Note_on_c, 1, 87, 0
7, 64080, Note_on_c, 1, 82, 76
7, 64080, Note_on_c, 1, 86, 76
7, 64311, Note_on_c, 1, 82, 0
7, 64311, Note_on_c, 1, 86, 0
7, 64320, Note_on_c, 1, 86, 76
7, 64320, Note_on_c, 1, 82, 76
7, 64439, Note_on_c, 1, 86, 0
7, 64439, Note_on_c, 1, 82, 0
7, 64440, Note_on_c, 1, 84, 76
7, 64440, Note_on_c, 1, 87, 76
7, 64679, Note_on_c, 1, 84, 0
7, 64679, Note_on_c, 1, 87, 0
7, 64680, Note_on_c, 1, 86, 76
7, 64680, Note_on_c, 1, 89, 76
7, 64791, Note_on_c, 1, 86, 0
7, 64791, Note_on_c, 1, 89, 0
7, 64800, Note_on_c, 1, 87, 80
7, 64800, Note_on_c, 1, 91, 80
7, 65511, Note_on_c, 1, 87, 0
7, 65511, Note_on_c, 1, 91, 0
7, 65520, Note_on_c, 1, 86, 80
7, 65520, Note_on_c, 1, 89, 80
7, 66231, Note_on_c, 1, 86, 0
7, 66231, Note_on_c, 1, 89, 0
7, 66240, Note_on_c, 1, 88, 84
7, 66240, Note_on_c, 1, 76, 84
7, 66951, Note_on_c, 1, 88, 0
7, 66951, Note_on_c, 1, 76, 0
7, 66960, Note_on_c, 1, 89, 84
7, 66960, Note_on_c, 1, 77, 84
7, 66980, Control_c, 1, 11, 125
7, 67000, Control_c, 1, 11, 123
7, 67020, Control_c, 1, 11, 120
7, 67040, Control_c, 1, 11, 118
7, 67060, Control_c, 1, 11, 116
7, 67080, Control_c, 1, 11, 114
7, 67100, Control_c, 1, 11, 112
7, 67120, Control_c, 1, 11, 109
7, 67140, Control_c, 1, 11, 107
7, 67160, Control_c, 1, 11, 105
7, 67180, Control_c, 1, 11, 103
7, 67199, Note_on_c, 1, 89, 0
7, 67199, Note_on_c, 1, 77, 0
7, 67200, Control_c, 1, 11, 101
7, 67300, Control_c, 1, 11, 90
7, 67320, Note_on_c, 1, 84, 84
7, 67320, Control_c, 1, 11, 88
7, 67320, Note_on_c, 1, 72, 84
7, 67340, Control_c, 1, 11, 85
7, 67360, Control_c, 1, 11, 83
7, 67380, Control_c, 1, 11, 81
7, 67400, Control_c, 1, 11, 79
7, 67420, Control_c, 1, 11, 77
7, 67440, Control_c, 1, 11, 74
7, 67460, Control_c, 1, 11, 72
7, 67480, Control_c, 1, 11, 70
7, 67500, Control_c, 1, 11, 68
7, 67520, Control_c, 1, 11, 66
7, 67540, Control_c, 1, 11, 63
7, 67559, Note_on_c, 1, 84, 0
7, 67559, Note_on_c, 1, 72, 0
7, 71760, Control_c, 1, 11, 127
7, 71880, Note_on_c, 1, 86, 76
7, 71880, Note_on_c, 1, 89, 76
7, 71991, Note_on_c, 1, 86, 0
7, 71991, Note_on_c, 1, 89, 0
7, 72000, Note_on_c, 1, 83, 76
7, 72359, Note_on_c, 1, 83, 0
7, 72360, Note_on_c, 1, 79, 76
7, 72479, Note_on_c, 1, 79, 0
7, 72600, Note_on_c, 1, 86, 76
7, 72711, Note_on_c, 1, 86, 0
7, 72720, Note_on_c, 1, 84, 76
7, 73079, Note_on_c, 1, 84, 0
7, 73080, Note_on_c, 1, 79, 76
7, 73199, Note_on_c, 1, 79, 0
7, 73320, Note_on_c, 1, 88, 76
7, 73439, Note_on_c, 1, 88, 0
7, 74760, Note_on_c, 1, 86, 76
7, 74760, Note_on_c, 1, 89, 76
7, 74871, Note_on_c, 1, 86, 0
7, 74871, Note_on_c, 1, 89, 0
7, 74880, Note_on_c, 1, 83, 76
7, 75239, Note_on_c, 1, 83, 0
7, 75240, Note_on_c, 1, 79, 76
7, 75359, Note_on_c, 1, 79, 0
7, 75480, Note_on_c, 1, 86, 76
7, 75591, Note_on_c, 1, 86, 0
7, 75600, Note_on_c, 1, 84, 76
7, 75959, Note_on_c, 1, 84, 0
7, 75960, Note_on_c, 1, 79, 76
7, 76079, Note_on_c, 1, 79, 0
7, 76200, Note_on_c, 1, 88, 76
7, 76311, Note_on_c, 1, 88, 0
7, 76320, Note_on_c, 1, 84, 84
7, 76679, Note_on_c, 1, 84, 0
7, 76680, Note_on_c, 1, 79, 84
7, 76799, Note_on_c, 1, 79, 0
7, 76920, Note_on_c, 1, 88, 84
7, 77031, Note_on_c, 1, 88, 0
7, 77040, Note_on_c, 1, 84, 84
7, 77399, Note_on_c, 1, 84, 0
7, 77400, Note_on_c, 1, 79, 84
7, 77519, Note_on_c, 1, 79, 0
7, 77640, Note_on_c, 1, 88, 84
7, 77751, Note_on_c, 1, 88, 0
7, 77760, Control_c, 1, 11, 127
7, 77760, Note_on_c, 1, 84, 84
7, 77790, Control_c, 1, 11, 126
7, 77820, Control_c, 1, 11, 124
7, 77850, Control_c, 1, 11, 123
7, 77880, Control_c, 1, 11, 122
7, 77910, Control_c, 1, 11, 120
7, 77940, Control_c, 1, 11, 119
7, 77970, Control_c, 1, 11, 118
7, 78000, Control_c, 1, 11, 117
7, 78030, Control_c, 1, 11, 115
7, 78060, Control_c, 1, 11, 114
7, 78090, Control_c, 1, 11, 113
7, 78119, Note_on_c, 1, 84, 0
7, 78120, Control_c, 1, 11, 111
7, 78120, Note_on_c, 1, 79, 84
7, 78150, Control_c, 1, 11, 110
7, 78180, Control_c, 1, 11, 109
7, 78210, Control_c, 1, 11, 107
7, 78240, Control_c, 1, 11, 106
7, 78270, Control_c, 1, 11, 105
7, 78300, Control_c, 1, 11, 103
7, 78330, Control_c, 1, 11, 102
7, 78359, Note_on_c, 1, 79, 0
7, 78360, Control_c, 1, 11, 101
7, 78360, Note_on_c, 1, 88, 84
7, 78390, Control_c, 1, 11, 99
7, 78420, Control_c, 1, 11, 98
7, 78450, Control_c, 1, 11, 97
7, 78479, Note_on_c, 1, 88, 0
7, 78480, Control_c, 1, 11, 96
7, 78480, Note_on_c, 1, 84, 84
7, 78510, Control_c, 1, 11, 94
7, 78540, Control_c, 1, 11, 93
7, 78570, Control_c, 1, 11, 92
7, 78600, Control_c, 1, 11, 90
7, 78630, Control_c, 1, 11, 89
7, 78660, Control_c, 1, 11, 88
7, 78690, Control_c, 1, 11, 86
7, 78720, Control_c, 1, 11, 85
7, 78750, Control_c, 1, 11, 84
7, 78780, Control_c, 1, 11, 82
7, 78810, Control_c, 1, 11, 81
7, 78839, Note_on_c, 1, 84, 0
7, 78840, Control_c, 1, 11, 80
7, 78840, Note_on_c, 1, 79, 84
7, 78870, Control_c, 1, 11, 78
7, 78900, Control_c, 1, 11, 77
7, 78930, Control_c, 1, 11, 76
7, 78960, Control_c, 1, 11, 75
7, 78990, Control_c, 1, 11, 73
7, 79020, Control_c, 1, 11, 72
7, 79050, Control_c, 1, 11, 71
7, 79079, Note_on_c, 1, 79, 0
7, 79080, Control_c, 1, 11, 69
7, 79080, Note_on_c, 1, 88, 84
7, 79110, Control_c, 1, 11, 68
7, 79140, Control_c, 1, 11, 67
7, 79191, Note_on_c, 1, 88, 0
7, 79192, Control_c, 1, 11, 80
7, 79200, Note_on_c, 1, 84, 76
7, 79319, Note_on_c, 1, 84, 0
7, 79320, Note_on_c, 1, 79, 76
7, 79439, Note_on_c, 1, 79, 0
7, 79440, Note_on_c, 1, 88, 75
7, 79559, Note_on_c, 1, 88, 0
7, 79560, Note_on_c, 1, 84, 74
7, 79679, Note_on_c, 1, 84, 0
7, 79680, Note_on_c, 1, 79, 74
7, 79799, Note_on_c, 1, 79, 0
7, 79800, Note_on_c, 1, 88, 73
7, 79919, Note_on_c, 1, 88, 0
7, 79920, Note_on_c, 1, 84, 72
7, 80039, Note_on_c, 1, 84, 0
7, 80040, Note_on_c, 1, 79, 72
7, 80159, Note_on_c, 1, 79, 0
7, 80160, Note_on_c, 1, 88, 71
7, 80279, Note_on_c, 1, 88, 0
7, 80280, Note_on_c, 1, 84, 70
7, 80399, Note_on_c, 1, 84, 0
7, 80400, Note_on_c, 1, 79, 70
7, 80519, Note_on_c, 1, 79, 0
7, 80520, Note_on_c, 1, 88, 69
7, 80631, Note_on_c, 1, 88, 0
7, 80640, Note_on_c, 1, 88, 68
7, 81720, Control_c, 1, 11, 80
7, 81720, Note_on_c, 1, 84, 68
7, 81758, Control_c, 1, 11, 81
7, 81797, Control_c, 1, 11, 82
7, 81835, Control_c, 1, 11, 83
7, 81873, Control_c, 1, 11, 84
7, 81911, Control_c, 1, 11, 85
7, 81950, Control_c, 1, 11, 86
7, 81988, Control_c, 1, 11, 87
7, 82026, Control_c, 1, 11, 88
7, 82065, Control_c, 1, 11, 89
7, 82079, Note_on_c, 1, 88, 0
7, 82079, Note_on_c, 1, 84, 0
7, 82080, Note_on_c, 1, 84, 68
7, 82080, Note_on_c, 1, 88, 68
7, 82103, Control_c, 1, 11, 90
7, 82141, Control_c, 1, 11, 91
7, 82180, Control_c, 1, 11, 92
7, 82218, Control_c, 1, 11, 93
7, 82256, Control_c, 1, 11, 94
7, 82294, Control_c, 1, 11, 95
7, 82333, Control_c, 1, 11, 96
7, 82371, Control_c, 1, 11, 97
7, 82409, Control_c, 1, 11, 98
7, 82448, Control_c, 1, 11, 99
7, 82486, Control_c, 1, 11, 100
7, 82524, Control_c, 1, 11, 101
7, 82563, Control_c, 1, 11, 102
7, 82601, Control_c, 1, 11, 103
7, 82639, Control_c, 1, 11, 104
7, 82677, Control_c, 1, 11, 105
7, 82716, Control_c, 1, 11, 106
7, 82754, Control_c, 1, 11, 107
7, 82792, Control_c, 1, 11, 108
7, 82831, Control_c, 1, 11, 109
7, 82869, Control_c, 1, 11, 110
7, 82907, Control_c, 1, 11, 111
7, 82946, Control_c, 1, 11, 112
7, 82984, Control_c, 1, 11, 113
7, 83022, Control_c, 1, 11, 114
7, 83060, Control_c, 1, 11, 115
7, 83099, Control_c, 1, 11, 116
7, 83137, Control_c, 1, 11, 117
7, 83175, Control_c, 1, 11, 118
7, 83214, Control_c, 1, 11, 119
7, 83252, Control_c, 1, 11, 120
7, 83290, Control_c, 1, 11, 121
7, 83329, Control_c, 1, 11, 122
7, 83367, Control_c, 1, 11, 123
7, 83405, Control_c, 1, 11, 124
7, 83443, Control_c, 1, 11, 125
7, 83482, Control_c, 1, 11, 127
7, 83511, Note_on_c, 1, 84, 0
7, 83511, Note_on_c, 1, 88, 0
7, 83520, Note_on_c, 1, 84, 52
7, 83520, Note_on_c, 1, 89, 52
7, 83759, Note_on_c, 1, 84, 0
7, 83759, Note_on_c, 1, 89, 0
7, 94800, Note_on_c, 1, 89, 82
7, 94800, Note_on_c, 1, 84, 82
7, 94911, Note_on_c, 1, 89, 0
7, 94911, Note_on_c, 1, 84, 0
7, 94920, Note_on_c, 1, 84, 83
7, 94920, Note_on_c, 1, 89, 83
7, 95031, Note_on_c, 1, 84, 0
7, 95031, Note_on_c, 1, 89, 0
7, 95040, Note_on_c, 1, 89, 84
7, 95040, Note_on_c, 1, 84, 84
7, 95631, Note_on_c, 1, 89, 0
7, 95631, Note_on_c, 1, 84, 0
7, 95640, Note_on_c, 1, 89, 84
7, 95640, Note_on_c, 1, 84, 84
7, 95751, Note_on_c, 1, 89, 0
7, 95751, Note_on_c, 1, 84, 0
7, 95760, Note_on_c, 1, 84, 84
7, 95760, Note_on_c, 1, 89, 84
7, 96351, Note_on_c, 1, 84, 0
7, 96351, Note_on_c, 1, 89, 0
7, 96360, Note_on_c, 1, 89, 84
7, 96360, Note_on_c, 1, 84, 84
7, 96471, Note_on_c, 1, 89, 0
7, 96471, Note_on_c, 1, 84, 0
7, 96480, Note_on_c, 1, 89, 84
7, 96480, Note_on_c, 1, 84, 84
7, 97071, Note_on_c, 1, 89, 0
7, 97071, Note_on_c, 1, 84, 0
7, 97080, Note_on_c, 1, 89, 84
7, 97080, Note_on_c, 1, 84, 84
7, 97191, Note_on_c, 1, 89, 0
7, 97191, Note_on_c, 1, 84, 0
7, 97200, Note_on_c, 1, 89, 84
7, 97200, Note_on_c, 1, 86, 84
7, 97791, Note_on_c, 1, 89, 0
7, 97791, Note_on_c, 1, 86, 0
7, 97800, Note_on_c, 1, 84, 84
7, 97800, Note_on_c, 1, 91, 84
7, 97911, Note_on_c, 1, 84, 0
7, 97911, Note_on_c, 1, 91, 0
7, 97920, Note_on_c, 1, 91, 84
7, 97920, Note_on_c, 1, 84, 84
7, 98511, Note_on_c, 1, 91, 0
7, 98511, Note_on_c, 1, 84, 0
7, 98520, Note_on_c, 1, 84, 84
7, 98520, Note_on_c, 1, 91, 84
7, 98631, Note_on_c, 1, 84, 0
7, 98631, Note_on_c, 1, 91, 0
7, 98640, Note_on_c, 1, 91, 84
7, 98640, Note_on_c, 1, 84, 84
7, 98751, Note_on_c, 1, 91, 0
7, 98760, Note_on_c, 1, 89, 84
7, 98991, Note_on_c, 1, 84, 0
7, 99000, Note_on_c, 1, 86, 84
7, 99231, Note_on_c, 1, 89, 0
7, 99231, Note_on_c, 1, 86, 0
7, 99240, Note_on_c, 1, 84, 84
7, 99240, Note_on_c, 1, 89, 84
7, 99351, Note_on_c, 1, 84, 0
7, 99351, Note_on_c, 1, 89, 0
7, 99360, Note_on_c, 1, 89, 84
7, 99360, Note_on_c, 1, 77, 84
7, 99471, Note_on_c, 1, 77, 0
7, 99480, Note_on_c, 1, 86, 84
7, 99711, Note_on_c, 1, 89, 0
7, 99711, Note_on_c, 1, 86, 0
7, 99720, Note_on_c, 1, 88, 84
7, 99720, Note_on_c, 1, 84, 84
7, 100071, Note_on_c, 1, 88, 0
7, 100071, Note_on_c, 1, 84, 0
7, 100080, Note_on_c, 1, 89, 84
7, 100080, Note_on_c, 1, 84, 84
7, 100199, Note_on_c, 1, 89, 0
7, 100199, Note_on_c, 1, 84, 0
7, 101400, Note_on_c, 1, 84, 84
7, 101400, Note_on_c, 1, 72, 84
7, 101511, Note_on_c, 1, 84, 0
7, 101511, Note_on_c, 1, 72, 0
7, 101520, Note_on_c, 1, 84, 84
7, 101520, Note_on_c, 1, 72, 84
7, 102591, Note_on_c, 1, 84, 0
7, 102591, Note_on_c, 1, 72, 0
7, 102600, Note_on_c, 1, 84, 84
7, 102600, Note_on_c, 1, 72, 84
7, 102831, Note_on_c, 1, 84, 0
7, 102831, Note_on_c, 1, 72, 0
7, 102840, Note_on_c, 1, 84, 84
7, 102840, Note_on_c, 1, 72, 84
7, 102959, Note_on_c, 1, 84, 0
7, 102959, Note_on_c, 1, 72, 0
7, 105000, Note_on_c, 1, 79, 84
7, 105111, Note_on_c, 1, 79, 0
7, 105118, Control_c, 1, 11, 127
7, 105120, Note_on_c, 1, 79, 92
7, 105180, Control_c, 1, 11, 112
7, 105471, Note_on_c, 1, 79, 0
7, 105478, Control_c, 1, 11, 127
7, 105480, Note_on_c, 1, 79, 92
7, 105480, Note_on_c, 1, 83, 92
7, 105540, Control_c, 1, 11, 112
7, 105711, Note_on_c, 1, 79, 0
7, 105711, Note_on_c, 1, 83, 0
7, 105720, Note_on_c, 1, 83, 92
7, 105720, Note_on_c, 1, 79, 92
7, 105831, Note_on_c, 1, 83, 0
7, 105831, Note_on_c, 1, 79, 0
7, 105838, Control_c, 1, 11, 127
7, 105840, Note_on_c, 1, 79, 88
7, 105840, Note_on_c, 1, 84, 88
7, 106191, Note_on_c, 1, 79, 0
7, 106191, Note_on_c, 1, 84, 0
7, 106200, Note_on_c, 1, 84, 88
7, 106200, Note_on_c, 1, 81, 88
7, 106551, Note_on_c, 1, 84, 0
7, 106551, Note_on_c, 1, 81, 0
7, 106560, Note_on_c, 1, 82, 88
7, 106560, Note_on_c, 1, 84, 88
7, 106799, Note_on_c, 1, 82, 0
7, 106799, Note_on_c, 1, 84, 0
7, 107160, Note_on_c, 1, 86, 88
7, 107271, Note_on_c, 1, 86, 0
7, 107278, Control_c, 1, 11, 127
7, 107280, Note_on_c, 1, 84, 96
7, 107340, Control_c, 1, 11, 112
7, 107759, Note_on_c, 1, 84, 0
7, 108000, Control_c, 1, 11, 127
7, 108240, Note_on_c, 1, 89, 88
7, 108240, Note_on_c, 1, 84, 88
7, 108351, Note_on_c, 1, 89, 0
7, 108351, Note_on_c, 1, 84, 0
7, 108360, Note_on_c, 1, 89, 88
7, 108360, Note_on_c, 1, 84, 88
7, 108591, Note_on_c, 1, 89, 0
7, 108591, Note_on_c, 1, 84, 0
7, 108600, Note_on_c, 1, 89, 88
7, 108600, Note_on_c, 1, 84, 88
7, 108711, Note_on_c, 1, 89, 0
7, 108711, Note_on_c, 1, 84, 0
7, 108720, Note_on_c, 1, 84, 88
7, 108720, Note_on_c, 1, 88, 88
7, 108959, Note_on_c, 1, 84, 0
7, 108959, Note_on_c, 1, 88, 0
7, 109680, Note_on_c, 1, 91, 88
7, 109680, Note_on_c, 1, 84, 88
7, 109791, Note_on_c, 1, 91, 0
7, 109791, Note_on_c, 1, 84, 0
7, 109800, Note_on_c, 1, 91, 88
7, 109800, Note_on_c, 1, 84, 88
7, 110031, Note_on_c, 1, 91, 0
7, 110031, Note_on_c, 1, 84, 0
7, 110040, Note_on_c, 1, 84, 88
7, 110040, Note_on_c, 1, 91, 88
7, 110151, Note_on_c, 1, 84, 0
7, 110151, Note_on_c, 1, 91, 0
7, 110160, Note_on_c, 1, 84, 88
7, 110160, Note_on_c, 1, 89, 88
7, 110399, Note_on_c, 1, 84, 0
7, 110399, Note_on_c, 1, 89, 0
7, 111120, Note_on_c, 1, 89, 88
7, 111120, Note_on_c, 1, 84, 88
7, 111231, Note_on_c, 1, 89, 0
7, 111231, Note_on_c, 1, 84, 0
7, 111240, Note_on_c, 1, 89, 88
7, 111240, Note_on_c, 1, 84, 88
7, 111471, Note_on_c, 1, 89, 0
7, 111471, Note_on_c, 1, 84, 0
7, 111480, Note_on_c, 1, 89, 88
7, 111480, Note_on_c, 1, 84, 88
7, 111591, Note_on_c, 1, 89, 0
7, 111591, Note_on_c, 1, 84, 0
7, 111600, Note_on_c, 1, 88, 88
7, 111600, Note_on_c, 1, 84, 88
7, 111839, Note_on_c, 1, 88, 0
7, 111839, Note_on_c, 1, 84, 0
7, 112560, Note_on_c, 1, 84, 88
7, 112560, Note_on_c, 1, 91, 88
7, 112671, Note_on_c, 1, 84, 0
7, 112671, Note_on_c, 1, 91, 0
7, 112680, Note_on_c, 1, 84, 88
7, 112680, Note_on_c, 1, 91, 88
7, 112911, Note_on_c, 1, 84, 0
7, 112911, Note_on_c, 1, 91, 0
7, 112920, Note_on_c, 1, 91, 88
7, 112920, Note_on_c, 1, 84, 88
7, 113031, Note_on_c, 1, 91, 0
7, 113031, Note_on_c, 1, 84, 0
7, 113040, Note_on_c, 1, 89, 88
7, 113040, Note_on_c, 1, 84, 88
7, 113279, Note_on_c, 1, 89, 0
7, 113279, Note_on_c, 1, 84, 0
7, 113760, Control_c, 1, 11, 117
7, 114000, Note_on_c, 1, 89, 76
7, 114000, Control_c, 1, 11, 119
7, 114000, Note_on_c, 1, 84, 76
7, 114030, Control_c, 1, 11, 121
7, 114060, Control_c, 1, 11, 123
7, 114090, Control_c, 1, 11, 127
7, 114119, Note_on_c, 1, 89, 0
7, 114120, Note_on_c, 1, 91, 76
7, 114351, Note_on_c, 1, 84, 0
7, 114351, Note_on_c, 1, 91, 0
7, 114360, Note_on_c, 1, 91, 76
7, 114360, Note_on_c, 1, 84, 76
7, 114471, Note_on_c, 1, 91, 0
7, 114471, Note_on_c, 1, 84, 0
7, 114480, Note_on_c, 1, 89, 76
7, 114480, Note_on_c, 1, 84, 76
7, 114719, Note_on_c, 1, 89, 0
7, 114719, Note_on_c, 1, 84, 0
7, 115050, Control_c, 1, 11, 94
7, 115080, Control_c, 1, 11, 96
7, 115080, Note_on_c, 1, 86, 76
7, 115110, Control_c, 1, 11, 98
7, 115140, Control_c, 1, 11, 100
7, 115170, Control_c, 1, 11, 102
7, 115199, Note_on_c, 1, 86, 0
7, 115200, Control_c, 1, 11, 104
7, 115200, Note_on_c, 1, 84, 76
7, 115230, Control_c, 1, 11, 105
7, 115260, Control_c, 1, 11, 107
7, 115290, Control_c, 1, 11, 109
7, 115319, Note_on_c, 1, 84, 0
7, 115320, Note_on_c, 1, 88, 76
7, 115320, Control_c, 1, 11, 111
7, 115320, Note_on_c, 1, 82, 76
7, 115350, Control_c, 1, 11, 113
7, 115380, Control_c, 1, 11, 115
7, 115410, Control_c, 1, 11, 117
7, 115439, Note_on_c, 1, 88, 0
7, 115439, Note_on_c, 1, 82, 0
7, 115440, Control_c, 1, 11, 119
7, 115440, Note_on_c, 1, 81, 76
7, 115440, Note_on_c, 1, 89, 76
7, 115470, Control_c, 1, 11, 121
7, 115500, Control_c, 1, 11, 123
7, 115530, Control_c, 1, 11, 127
7, 115551, Note_on_c, 1, 81, 0
7, 115551, Note_on_c, 1, 89, 0
7, 115560, Note_on_c, 1, 91, 76
7, 115560, Note_on_c, 1, 88, 76
7, 115791, Note_on_c, 1, 91, 0
7, 115791, Note_on_c, 1, 88, 0
7, 115800, Note_on_c, 1, 91, 76
7, 115800, Note_on_c, 1, 88, 76
7, 115889, Note_on_c, 1, 91, 0
7, 115889, Note_on_c, 1, 88, 0
7, 115920, Note_on_c, 1, 89, 84
7, 115920, Note_on_c, 1, 93, 84
7, 116271, Note_on_c, 1, 89, 0
7, 116271, Note_on_c, 1, 93, 0
7, 116280, Note_on_c, 1, 93, 84
7, 116280, Note_on_c, 1, 89, 84
7, 116399, Note_on_c, 1, 93, 0
7, 116399, Note_on_c, 1, 89, 0
7, 116520, Note_on_c, 1, 89, 84
7, 116520, Note_on_c, 1, 93, 84
7, 116609, Note_on_c, 1, 89, 0
7, 116609, Note_on_c, 1, 93, 0
7, 116640, Note_on_c, 1, 91, 84
7, 116640, Note_on_c, 1, 86, 84
7, 116991, Note_on_c, 1, 91, 0
7, 116999, Note_on_c, 1, 86, 0
7, 117000, Note_on_c, 1, 91, 84
7, 117000, Note_on_c, 1, 82, 84
7, 117119, Note_on_c, 1, 91, 0
7, 117119, Note_on_c, 1, 82, 0
7, 117240, Note_on_c, 1, 91, 84
7, 117240, Note_on_c, 1, 86, 84
7, 117329, Note_on_c, 1, 91, 0
7, 117329, Note_on_c, 1, 86, 0
7, 117360, Note_on_c, 1, 93, 84
7, 117360, Note_on_c, 1, 81, 84
7, 117479, Note_on_c, 1, 93, 0
7, 117479, Note_on_c, 1, 81, 0
7, 124177, Control_c, 1, 11, 92
7, 124200, Note_on_c, 1, 82, 76
7, 124205, Control_c, 1, 11, 93
7, 124233, Control_c, 1, 11, 94
7, 124261, Control_c, 1, 11, 95
7, 124289, Control_c, 1, 11, 96
7, 124317, Control_c, 1, 11, 97
7, 124346, Control_c, 1, 11, 98
7, 124374, Control_c, 1, 11, 99
7, 124402, Control_c, 1, 11, 100
7, 124430, Control_c, 1, 11, 101
7, 124439, Note_on_c, 1, 82, 0
7, 124542, Control_c, 1, 11, 105
7, 124560, Note_on_c, 1, 82, 76
7, 124570, Control_c, 1, 11, 106
7, 124598, Control_c, 1, 11, 107
7, 124626, Control_c, 1, 11, 108
7, 124654, Control_c, 1, 11, 109
7, 124683, Control_c, 1, 11, 110
7, 124711, Control_c, 1, 11, 111
7, 124739, Control_c, 1, 11, 112
7, 124767, Control_c, 1, 11, 113
7, 124795, Control_c, 1, 11, 114
7, 124799, Note_on_c, 1, 82, 0
7, 124907, Control_c, 1, 11, 118
7, 124920, Note_on_c, 1, 82, 76
7, 124935, Control_c, 1, 11, 119
7, 124963, Control_c, 1, 11, 120
7, 124991, Control_c, 1, 11, 121
7, 125020, Control_c, 1, 11, 122
7, 125039, Note_on_c, 1, 82, 0
7, 125048, Control_c, 1, 11, 123
7, 125076, Control_c, 1, 11, 124
7, 125104, Control_c, 1, 11, 125
7, 125132, Control_c, 1, 11, 127
7, 125160, Note_on_c, 1, 84, 76
7, 125160, Note_on_c, 1, 72, 76
7, 125871, Note_on_c, 1, 84, 0
7, 125871, Note_on_c, 1, 72, 0
7, 125880, Note_on_c, 1, 72, 76
7, 125880, Note_on_c, 1, 84, 76
7, 126231, Note_on_c, 1, 72, 0
7, 126231, Note_on_c, 1, 84, 0
7, 126240, Note_on_c, 1, 72, 76
7, 126240, Note_on_c, 1, 84, 76
7, 126591, Note_on_c, 1, 72, 0
7, 126591, Note_on_c, 1, 84, 0
7, 126600, Note_on_c, 1, 84, 76
7, 126600, Note_on_c, 1, 72, 76
7, 126711, Note_on_c, 1, 84, 0
7, 126711, Note_on_c, 1, 72, 0
7, 126720, Note_on_c, 1, 81, 84
7, 126720, Note_on_c, 1, 69, 84
7, 126839, Note_on_c, 1, 81, 0
7, 126839, Note_on_c, 1, 69, 0
7, 130920, Control_c, 1, 11, 64
7, 131040, Note_on_c, 1, 81, 84
7, 131040, Control_c, 1, 11, 64
7, 131120, Control_c, 1, 11, 65
7, 131200, Control_c, 1, 11, 66
7, 131280, Control_c, 1, 11, 67
7, 131360, Control_c, 1, 11, 68
7, 131440, Control_c, 1, 11, 69
7, 131520, Control_c, 1, 11, 70
7, 131600, Control_c, 1, 11, 71
7, 131680, Control_c, 1, 11, 72
7, 131751, Note_on_c, 1, 81, 0
7, 131760, Control_c, 1, 11, 73
7, 131760, Note_on_c, 1, 82, 84
7, 131840, Control_c, 1, 11, 74
7, 131920, Control_c, 1, 11, 75
7, 131999, Note_on_c, 1, 82, 0
7, 132000, Control_c, 1, 11, 76
7, 132080, Control_c, 1, 11, 77
7, 132160, Control_c, 1, 11, 78
7, 132240, Control_c, 1, 11, 79
7, 132320, Control_c, 1, 11, 80
7, 132400, Control_c, 1, 11, 81
7, 132480, Control_c, 1, 11, 82
7, 132480, Note_on_c, 1, 79, 84
7, 132560, Control_c, 1, 11, 83
7, 132640, Control_c, 1, 11, 84
7, 132720, Control_c, 1, 11, 85
7, 132800, Control_c, 1, 11, 86
7, 132880, Control_c, 1, 11, 87
7, 132960, Control_c, 1, 11, 88
7, 133040, Control_c, 1, 11, 89
7, 133120, Control_c, 1, 11, 90
7, 133191, Note_on_c, 1, 79, 0
7, 133200, Note_on_c, 1, 81, 84
7, 133200, Control_c, 1, 11, 91
7, 133280, Control_c, 1, 11, 92
7, 133360, Control_c, 1, 11, 93
7, 133439, Note_on_c, 1, 81, 0
7, 133440, Control_c, 1, 11, 94
7, 133520, Control_c, 1, 11, 95
7, 133600, Control_c, 1, 11, 96
7, 133680, Control_c, 1, 11, 97
7, 133760, Control_c, 1, 11, 98
7, 133840, Control_c, 1, 11, 99
7, 133920, Control_c, 1, 11, 100
7, 134000, Control_c, 1, 11, 101
7, 134040, Note_on_c, 1, 81, 84
7, 134080, Control_c, 1, 11, 102
7, 134151, Note_on_c, 1, 81, 0
7, 134160, Note_on_c, 1, 81, 84
7, 134160, Control_c, 1, 11, 103
7, 134240, Control_c, 1, 11, 104
7, 134271, Note_on_c, 1, 81, 0
7, 134280, Note_on_c, 1, 81, 84
7, 134320, Control_c, 1, 11, 105
7, 134391, Note_on_c, 1, 81, 0
7, 134400, Note_on_c, 1, 81, 84
7, 134400, Control_c, 1, 11, 106
7, 134480, Control_c, 1, 11, 107
7, 134511, Note_on_c, 1, 81, 0
7, 134520, Note_on_c, 1, 81, 84
7, 134560, Control_c, 1, 11, 108
7, 134631, Note_on_c, 1, 81, 0
7, 134640, Note_on_c, 1, 82, 84
7, 134640, Control_c, 1, 11, 109
7, 134720, Control_c, 1, 11, 110
7, 134800, Control_c, 1, 11, 111
7, 134879, Note_on_c, 1, 82, 0
7, 134880, Control_c, 1, 11, 112
7, 134960, Control_c, 1, 11, 113
7, 135040, Control_c, 1, 11, 114
7, 135120, Control_c, 1, 11, 115
7, 135200, Control_c, 1, 11, 116
7, 135280, Control_c, 1, 11, 117
7, 135360, Control_c, 1, 11, 118
7, 135440, Control_c, 1, 11, 119
7, 135480, Note_on_c, 1, 88, 84
7, 135520, Control_c, 1, 11, 120
7, 135591, Note_on_c, 1, 88, 0
7, 135600, Note_on_c, 1, 88, 84
7, 135600, Control_c, 1, 11, 121
7, 135680, Control_c, 1, 11, 122
7, 135711, Note_on_c, 1, 88, 0
7, 135720, Note_on_c, 1, 88, 84
7, 135760, Control_c, 1, 11, 123
7, 135831, Note_on_c, 1, 88, 0
7, 135840, Note_on_c, 1, 88, 84
7, 135840, Control_c, 1, 11, 124
7, 135920, Control_c, 1, 11, 125
7, 135951, Note_on_c, 1, 88, 0
7, 135960, Note_on_c, 1, 88, 84
7, 135960, Note_on_c, 1, 84, 84
7, 136000, Control_c, 1, 11, 127
7, 136071, Note_on_c, 1, 88, 0
7, 136071, Note_on_c, 1, 84, 0
7, 136080, Note_on_c, 1, 89, 84
7, 136080, Note_on_c, 1, 84, 84
7, 137391, Note_on_c, 1, 89, 0
7, 137391, Note_on_c, 1, 84, 0
7, 137400, Note_on_c, 1, 89, 84
7, 137400, Note_on_c, 1, 84, 84
7, 137511, Note_on_c, 1, 89, 0
7, 137511, Note_on_c, 1, 84, 0
7, 137520, Note_on_c, 1, 89, 84
7, 137520, Note_on_c, 1, 86, 84
7, 138831, Note_on_c, 1, 89, 0
7, 138831, Note_on_c, 1, 86, 0
7, 138840, Note_on_c, 1, 86, 84
7, 138840, Note_on_c, 1, 89, 84
7, 138951, Note_on_c, 1, 86, 0
7, 138951, Note_on_c, 1, 89, 0
7, 138960, Note_on_c, 1, 86, 84
7, 138960, Note_on_c, 1, 89, 84
7, 139680, Control_c, 1, 11, 127
7, 139700, Control_c, 1, 11, 125
7, 139720, Control_c, 1, 11, 123
7, 139740, Control_c, 1, 11, 120
7, 139760, Control_c, 1, 11, 118
7, 139780, Control_c, 1, 11, 116
7, 139800, Control_c, 1, 11, 114
7, 139820, Control_c, 1, 11, 112
7, 139840, Control_c, 1, 11, 109
7, 139860, Control_c, 1, 11, 107
7, 139880, Control_c, 1, 11, 105
7, 139900, Control_c, 1, 11, 103
7, 139920, Control_c, 1, 11, 101
7, 139940, Control_c, 1, 11, 98
7, 139960, Control_c, 1, 11, 96
7, 139980, Control_c, 1, 11, 94
7, 140000, Control_c, 1, 11, 92
7, 140020, Control_c, 1, 11, 90
7, 140040, Control_c, 1, 11, 88
7, 140060, Control_c, 1, 11, 85
7, 140080, Control_c, 1, 11, 83
7, 140100, Control_c, 1, 11, 81
7, 140120, Control_c, 1, 11, 79
7, 140140, Control_c, 1, 11, 77
7, 140160, Control_c, 1, 11, 74
7, 140180, Control_c, 1, 11, 72
7, 140200, Control_c, 1, 11, 70
7, 140220, Control_c, 1, 11, 68
7, 140240, Control_c, 1, 11, 66
7, 140260, Control_c, 1, 11, 63
7, 140271, Note_on_c, 1, 86, 0
7, 140271, Note_on_c, 1, 89, 0
7, 140280, Control_c, 1, 11, 61
7, 140280, Note_on_c, 1, 89, 84
7, 140280, Note_on_c, 1, 86, 84
7, 140300, Control_c, 1, 11, 59
7, 140320, Control_c, 1, 11, 57
7, 140340, Control_c, 1, 11, 55
7, 140360, Control_c, 1, 11, 52
7, 140380, Control_c, 1, 11, 48
7, 140399, Note_on_c, 1, 89, 0
7, 140399, Note_on_c, 1, 86, 0
7, 144000, Control_c, 1, 11, 127
7, 144600, Note_on_c, 1, 82, 64
7, 144655, Note_on_c, 1, 82, 0
7, 144660, Note_on_c, 1, 82, 64
7, 144715, Note_on_c, 1, 82, 0
7, 144720, Note_on_c, 1, 82, 65
7, 144839, Note_on_c, 1, 82, 0
7, 144960, Note_on_c, 1, 82, 67
7, 145015, Note_on_c, 1, 82, 0
7, 145020, Note_on_c, 1, 82, 67
7, 145075, Note_on_c, 1, 82, 0
7, 145080, Note_on_c, 1, 82, 68
7, 145199, Note_on_c, 1, 82, 0
7, 145320, Note_on_c, 1, 82, 70
7, 145375, Note_on_c, 1, 82, 0
7, 145380, Note_on_c, 1, 82, 70
7, 145435, Note_on_c, 1, 82, 0
7, 145440, Note_on_c, 1, 82, 71
7, 145559, Note_on_c, 1, 82, 0
7, 145680, Note_on_c, 1, 82, 73
7, 145735, Note_on_c, 1, 82, 0
7, 145740, Note_on_c, 1, 82, 73
7, 145795, Note_on_c, 1, 82, 0
7, 145800, Note_on_c, 1, 82, 74
7, 145919, Note_on_c, 1, 82, 0
7, 146040, Note_on_c, 1, 84, 76
7, 146040, Note_on_c, 1, 72, 76
7, 146751, Note_on_c, 1, 84, 0
7, 146751, Note_on_c, 1, 72, 0
7, 146760, Note_on_c, 1, 72, 76
7, 146760, Note_on_c, 1, 84, 76
7, 147111, Note_on_c, 1, 72, 0
7, 147111, Note_on_c, 1, 84, 0
7, 147120, Note_on_c, 1, 72, 76
7, 147120, Note_on_c, 1, 84, 76
7, 147471, Note_on_c, 1, 72, 0
7, 147471, Note_on_c, 1, 84, 0
7, 147480, Note_on_c, 1, 84, 76
7, 147480, Note_on_c, 1, 72, 76
7, 147591, Note_on_c, 1, 84, 0
7, 147591, Note_on_c, 1, 72, 0
7, 147600, Note_on_c, 1, 81, 84
7, 147600, Note_on_c, 1, 69, 84
7, 147839, Note_on_c, 1, 81, 0
7, 147839, Note_on_c, 1, 69, 0
7, 151749, Control_c, 1, 11, 70
7, 151800, Note_on_c, 1, 72, 84
7, 151840, Control_c, 1, 11, 71
7, 151919, Note_on_c, 1, 72, 0
7, 151920, Note_on_c, 1, 78, 84
7, 151931, Control_c, 1, 11, 72
7, 152023, Control_c, 1, 11, 73
7, 152114, Control_c, 1, 11, 74
7, 152159, Note_on_c, 1, 78, 0
7, 152160, Note_on_c, 1, 81, 84
7, 152206, Control_c, 1, 11, 75
7, 152279, Note_on_c, 1, 81, 0
7, 152280, Note_on_c, 1, 84, 84
7, 152297, Control_c, 1, 11, 76
7, 152389, Control_c, 1, 11, 77
7, 152480, Control_c, 1, 11, 78
7, 152519, Note_on_c, 1, 84, 0
7, 152520, Note_on_c, 1, 81, 84
7, 152571, Control_c, 1, 11, 79
7, 152639, Note_on_c, 1, 81, 0
7, 152640, Note_on_c, 1, 82, 84
7, 152663, Control_c, 1, 11, 80
7, 152754, Control_c, 1, 11, 81
7, 152846, Control_c, 1, 11, 82
7, 152879, Note_on_c, 1, 82, 0
7, 154674, Control_c, 1, 11, 102
7, 154680, Note_on_c, 1, 72, 84
7, 154766, Control_c, 1, 11, 103
7, 154799, Note_on_c, 1, 72, 0
7, 154800, Note_on_c, 1, 78, 84
7, 154857, Control_c, 1, 11, 104
7, 154949, Control_c, 1, 11, 105
7, 155039, Note_on_c, 1, 78, 0
7, 155040, Control_c, 1, 11, 106
7, 155040, Note_on_c, 1, 81, 84
7, 155131, Control_c, 1, 11, 107
7, 155159, Note_on_c, 1, 81, 0
7, 155160, Note_on_c, 1, 84, 84
7, 155223, Control_c, 1, 11, 108
7, 155314, Control_c, 1, 11, 109
7, 155399, Note_on_c, 1, 84, 0
7, 155400, Note_on_c, 1, 74, 84
7, 155406, Control_c, 1, 11, 110
7, 155497, Control_c, 1, 11, 111
7, 155519, Note_on_c, 1, 74, 0
7, 155520, Note_on_c, 1, 79, 84
7, 155589, Control_c, 1, 11, 112
7, 155680, Control_c, 1, 11, 113
7, 155759, Note_on_c, 1, 79, 0
7, 155760, Note_on_c, 1, 82, 84
7, 155771, Control_c, 1, 11, 114
7, 155863, Control_c, 1, 11, 115
7, 155879, Note_on_c, 1, 82, 0
7, 155880, Note_on_c, 1, 86, 84
7, 155954, Control_c, 1, 11, 116
7, 155999, Note_on_c, 1, 86, 0
7, 156046, Control_c, 1, 11, 117
7, 156120, Note_on_c, 1, 74, 84
7, 156137, Control_c, 1, 11, 118
7, 156229, Control_c, 1, 11, 119
7, 156239, Note_on_c, 1, 74, 0
7, 156240, Note_on_c, 1, 76, 84
7, 156320, Control_c, 1, 11, 120
7, 156411, Control_c, 1, 11, 121
7, 156479, Note_on_c, 1, 76, 0
7, 156480, Note_on_c, 1, 79, 84
7, 156503, Control_c, 1, 11, 122
7, 156594, Control_c, 1, 11, 123
7, 156599, Note_on_c, 1, 79, 0
7, 156600, Note_on_c, 1, 82, 84
7, 156686, Control_c, 1, 11, 124
7, 156777, Control_c, 1, 11, 125
7, 156839, Note_on_c, 1, 82, 0
7, 156840, Note_on_c, 1, 84, 84
7, 156840, Note_on_c, 1, 88, 84
7, 156869, Control_c, 1, 11, 127
7, 156951, Note_on_c, 1, 84, 0
7, 156951, Note_on_c, 1, 88, 0
7, 156960, Note_on_c, 1, 89, 84
7, 156960, Note_on_c, 1, 84, 84
7, 158271, Note_on_c, 1, 89, 0
7, 158271, Note_on_c, 1, 84, 0
7, 158280, Note_on_c, 1, 89, 84
7, 158280, Note_on_c, 1, 84, 84
7, 158391, Note_on_c, 1, 89, 0
7, 158391, Note_on_c, 1, 84, 0
7, 158400, Note_on_c, 1, 86, 84
7, 158400, Note_on_c, 1, 89, 84
7, 159711, Note_on_c, 1, 86, 0
7, 159711, Note_on_c, 1, 89, 0
7, 159720, Note_on_c, 1, 86, 84
7, 159720, Note_on_c, 1, 89, 84
7, 159831, Note_on_c, 1, 86, 0
7, 159831, Note_on_c, 1, 89, 0
7, 159840, Note_on_c, 1, 89, 84
7, 160200, Note_on_c, 1, 91, 84
7, 161151, Note_on_c, 1, 89, 0
7, 161151, Note_on_c, 1, 91, 0
7, 161160, Note_on_c, 1, 91, 84
7, 161160, Note_on_c, 1, 89, 84
7, 161271, Note_on_c, 1, 91, 0
7, 161271, Note_on_c, 1, 89, 0
7, 161280, Note_on_c, 1, 89, 84
7, 161280, Note_on_c, 1, 91, 84
7, 161999, Note_on_c, 1, 89, 0
7, 162000, Note_on_c, 1, 88, 84
7, 162591, Note_on_c, 1, 91, 0
7, 162591, Note_on_c, 1, 88, 0
7, 162600, Note_on_c, 1, 91, 84
7, 162600, Note_on_c, 1, 88, 84
7, 162689, Note_on_c, 1, 91, 0
7, 162689, Note_on_c, 1, 88, 0
7, 162720, Note_on_c, 1, 91, 84
7, 162720, Note_on_c, 1, 87, 84
7, 163431, Note_on_c, 1, 91, 0
7, 163431, Note_on_c, 1, 87, 0
7, 163440, Note_on_c, 1, 84, 84
7, 163440, Note_on_c, 1, 89, 84
7, 164151, Note_on_c, 1, 84, 0
7, 164151, Note_on_c, 1, 89, 0
7, 164160, Note_on_c, 1, 87, 84
7, 164511, Note_on_c, 1, 87, 0
7, 164520, Note_on_c, 1, 86, 84
7, 164871, Note_on_c, 1, 86, 0
7, 164880, Note_on_c, 1, 84, 84
7, 165231, Note_on_c, 1, 84, 0
7, 165240, Note_on_c, 1, 82, 84
7, 165591, Note_on_c, 1, 82, 0
7, 165600, Note_on_c, 1, 81, 84
7, 165600, Control_c, 1, 11, 127
7, 165630, Control_c, 1, 11, 126
7, 165660, Control_c, 1, 11, 124
7, 165690, Control_c, 1, 11, 123
7, 165720, Control_c, 1, 11, 122
7, 165750, Control_c, 1, 11, 120
7, 165780, Control_c, 1, 11, 119
7, 165810, Control_c, 1, 11, 118
7, 165840, Control_c, 1, 11, 117
7, 165870, Control_c, 1, 11, 115
7, 165900, Control_c, 1, 11, 114
7, 165930, Control_c, 1, 11, 113
7, 165959, Note_on_c, 1, 81, 0
7, 165960, Control_c, 1, 11, 111
7, 165960, Note_on_c, 1, 91, 84
7, 165990, Control_c, 1, 11, 110
7, 166020, Control_c, 1, 11, 109
7, 166050, Control_c, 1, 11, 107
7, 166080, Control_c, 1, 11, 106
7, 166110, Control_c, 1, 11, 105
7, 166140, Control_c, 1, 11, 103
7, 166170, Control_c, 1, 11, 102
7, 166200, Control_c, 1, 11, 101
7, 166230, Control_c, 1, 11, 99
7, 166260, Control_c, 1, 11, 98
7, 166290, Control_c, 1, 11, 97
7, 166319, Note_on_c, 1, 91, 0
7, 166320, Note_on_c, 1, 89, 84
7, 166320, Control_c, 1, 11, 96
7, 166350, Control_c, 1, 11, 94
7, 166380, Control_c, 1, 11, 93
7, 166410, Control_c, 1, 11, 92
7, 166440, Control_c, 1, 11, 90
7, 166470, Control_c, 1, 11, 89
7, 166500, Control_c, 1, 11, 88
7, 166530, Control_c, 1, 11, 86
7, 166560, Control_c, 1, 11, 85
7, 166590, Control_c, 1, 11, 84
7, 166620, Control_c, 1, 11, 82
7, 166650, Control_c, 1, 11, 81
7, 166679, Note_on_c, 1, 89, 0
7, 166680, Note_on_c, 1, 88, 84
7, 166680, Control_c, 1, 11, 80
7, 166710, Control_c, 1, 11, 78
7, 166740, Control_c, 1, 11, 77
7, 166770, Control_c, 1, 11, 76
7, 166800, Control_c, 1, 11, 75
7, 166830, Control_c, 1, 11, 73
7, 166860, Control_c, 1, 11, 72
7, 166890, Control_c, 1, 11, 71
7, 166920, Control_c, 1, 11, 69
7, 166950, Control_c, 1, 11, 68
7, 166980, Control_c, 1, 11, 67
7, 167010, Control_c, 1, 11, 64
7, 167039, Note_on_c, 1, 88, 0
7, 167040, Note_on_c, 1, 86, 84
7, 167399, Note_on_c, 1, 86, 0
7, 167400, Note_on_c, 1, 84, 80
7, 168479, Note_on_c, 1, 84, 0
7, 168480, Note_on_c, 1, 84, 80
7, 169559, Note_on_c, 1, 84, 0
7, 169560, Note_on_c, 1, 82, 80
7, 169799, Note_on_c, 1, 82, 0
7, 169800, Note_on_c, 1, 79, 80
7, 169911, Note_on_c, 1, 79, 0
7, 169920, Note_on_c, 1, 77, 76
7, 170039, Note_on_c, 1, 77, 0
7, 175560, Control_c, 1, 11, 127
7, 175680, Note_on_c, 1, 89, 76
7, 175680, Note_on_c, 1, 81, 76
7, 176031, Note_on_c, 1, 89, 0
7, 176031, Note_on_c, 1, 81, 0
7, 176040, Note_on_c, 1, 82, 76
7, 176040, Note_on_c, 1, 89, 76
7, 176129, Note_on_c, 1, 82, 0
7, 176129, Note_on_c, 1, 89, 0
7, 176280, Note_on_c, 1, 89, 76
7, 176280, Note_on_c, 1, 84, 76
7, 176369, Note_on_c, 1, 89, 0
7, 176369, Note_on_c, 1, 84, 0
7, 176400, Note_on_c, 1, 89, 76
7, 176400, Note_on_c, 1, 86, 76
7, 176999, Note_on_c, 1, 89, 0
7, 176999, Note_on_c, 1, 86, 0
7, 182040, Note_on_c, 1, 79, 74
7, 182040, Note_on_c, 1, 82, 74
7, 182151, Note_on_c, 1, 79, 0
7, 182151, Note_on_c, 1, 82, 0
7, 182160, Note_on_c, 1, 79, 76
7, 182160, Note_on_c, 1, 88, 76
7, 183599, Note_on_c, 1, 79, 0
7, 183599, Note_on_c, 1, 88, 0
7, 183600, Note_on_c, 1, 88, 76
7, 183600, Note_on_c, 1, 79, 76
7, 183600, Control_c, 1, 11, 127
7, 183631, Control_c, 1, 11, 126
7, 183661, Control_c, 1, 11, 125
7, 183692, Control_c, 1, 11, 124
7, 183723, Control_c, 1, 11, 123
7, 183753, Control_c, 1, 11, 122
7, 183784, Control_c, 1, 11, 121
7, 183814, Control_c, 1, 11, 120
7, 183845, Control_c, 1, 11, 119
7, 183876, Control_c, 1, 11, 118
7, 183906, Control_c, 1, 11, 117
7, 183937, Control_c, 1, 11, 116
7, 183968, Control_c, 1, 11, 115
7, 183998, Control_c, 1, 11, 114
7, 184029, Control_c, 1, 11, 113
7, 184060, Control_c, 1, 11, 112
7, 184090, Control_c, 1, 11, 111
7, 184121, Control_c, 1, 11, 110
7, 184151, Control_c, 1, 11, 109
7, 184182, Control_c, 1, 11, 108
7, 184213, Control_c, 1, 11, 107
7, 184243, Control_c, 1, 11, 106
7, 184274, Control_c, 1, 11, 105
7, 184305, Control_c, 1, 11, 104
7, 184335, Control_c, 1, 11, 103
7, 184366, Control_c, 1, 11, 102
7, 184397, Control_c, 1, 11, 101
7, 184427, Control_c, 1, 11, 100
7, 184458, Control_c, 1, 11, 99
7, 184489, Control_c, 1, 11, 98
7, 184519, Control_c, 1, 11, 97
7, 184550, Control_c, 1, 11, 96
7, 184580, Control_c, 1, 11, 95
7, 184611, Control_c, 1, 11, 94
7, 184642, Control_c, 1, 11, 93
7, 184672, Control_c, 1, 11, 92
7, 184703, Control_c, 1, 11, 91
7, 184734, Control_c, 1, 11, 90
7, 184764, Control_c, 1, 11, 89
7, 184795, Control_c, 1, 11, 88
7, 184826, Control_c, 1, 11, 87
7, 184856, Control_c, 1, 11, 86
7, 184887, Control_c, 1, 11, 85
7, 184917, Control_c, 1, 11, 84
7, 184948, Control_c, 1, 11, 83
7, 184979, Control_c, 1, 11, 82
7, 185031, Note_on_c, 1, 88, 0
7, 185031, Note_on_c, 1, 79, 0
7, 185038, Control_c, 1, 11, 96
7, 185040, Note_on_c, 1, 89, 68
7, 185751, Note_on_c, 1, 89, 0
7, 185758, Control_c, 1, 11, 112
7, 185760, Note_on_c, 1, 89, 60
7, 186471, Note_on_c, 1, 89, 0
7, 186478, Control_c, 1, 11, 127
7, 186480, Note_on_c, 1, 89, 44
7, 187919, Note_on_c, 1, 89, 0
7, 187920, Note_on_c, 1, 89, 44
7, 189231, Note_on_c, 1, 89, 0
7, 189240, Note_on_c, 1, 93, 84
7, 189240, Note_on_c, 1, 84, 84
7, 189351, Note_on_c, 1, 93, 0
7, 189351, Note_on_c, 1, 84, 0
7, 189360, Note_on_c, 1, 89, 84
7, 189360, Note_on_c, 1, 81, 84
7, 189599, Note_on_c, 1, 89, 0
7, 189599, Note_on_c, 1, 81, 0
7, 189599, End_track
8, 0, Start_track
8, 0, Title_t, "Oboe"
8, 0, MIDI_port, 0
8, 0, Program_c, 2, 68
8, 0, Control_c, 2, 7, 80
8, 0, Control_c, 2, 10, 70
8, 0, Control_c, 2, 11, 127
8, 0, Note_on_c, 2, 72, 44
8, 0, Note_on_c, 2, 64, 44
8, 239, Note_on_c, 2, 72, 0
8, 239, Note_on_c, 2, 64, 0
8, 16680, Note_on_c, 2, 77, 81
8, 16680, Note_on_c, 2, 81, 81
8, 16791, Note_on_c, 2, 77, 0
8, 16791, Note_on_c, 2, 81, 0
8, 16800, Note_on_c, 2, 77, 81
8, 16800, Note_on_c, 2, 81, 81
8, 16911, Note_on_c, 2, 77, 0
8, 16911, Note_on_c, 2, 81, 0
8, 16920, Note_on_c, 2, 81, 82
8, 16920, Note_on_c, 2, 77, 82
8, 17031, Note_on_c, 2, 81, 0
8, 17031, Note_on_c, 2, 77, 0
8, 17040, Note_on_c, 2, 81, 82
8, 17040, Note_on_c, 2, 77, 82
8, 17151, Note_on_c, 2, 81, 0
8, 17151, Note_on_c, 2, 77, 0
8, 17160, Note_on_c, 2, 77, 83
8, 17160, Note_on_c, 2, 81, 83
8, 17271, Note_on_c, 2, 77, 0
8, 17271, Note_on_c, 2, 81, 0
8, 17280, Note_on_c, 2, 77, 84
8, 17280, Note_on_c, 2, 81, 84
8, 17991, Note_on_c, 2, 77, 0
8, 17991, Note_on_c, 2, 81, 0
8, 18000, Note_on_c, 2, 77, 84
8, 18000, Note_on_c, 2, 81, 84
8, 18711, Note_on_c, 2, 77, 0
8, 18711, Note_on_c, 2, 81, 0
8, 18720, Note_on_c, 2, 77, 84
8, 18720, Note_on_c, 2, 81, 84
8, 19431, Note_on_c, 2, 77, 0
8, 19431, Note_on_c, 2, 81, 0
8, 19440, Note_on_c, 2, 82, 84
8, 19440, Note_on_c, 2, 77, 84
8, 20031, Note_on_c, 2, 82, 0
8, 20031, Note_on_c, 2, 77, 0
8, 20040, Note_on_c, 2, 79, 84
8, 20040, Note_on_c, 2, 82, 84
8, 20151, Note_on_c, 2, 79, 0
8, 20151, Note_on_c, 2, 82, 0
8, 20160, Note_on_c, 2, 79, 84
8, 20160, Note_on_c, 2, 82, 84
8, 20871, Note_on_c, 2, 79, 0
8, 20871, Note_on_c, 2, 82, 0
8, 20880, Note_on_c, 2, 77, 84
8, 20880, Note_on_c, 2, 81, 84
8, 21471, Note_on_c, 2, 77, 0
8, 21471, Note_on_c, 2, 81, 0
8, 21480, Note_on_c, 2, 81, 84
8, 21480, Note_on_c, 2, 77, 84
8, 21591, Note_on_c, 2, 81, 0
8, 21591, Note_on_c, 2, 77, 0
8, 21600, Note_on_c, 2, 79, 84
8, 21600, Note_on_c, 2, 77, 84
8, 21951, Note_on_c, 2, 79, 0
8, 21951, Note_on_c, 2, 77, 0
8, 21960, Note_on_c, 2, 76, 84
8, 21960, Note_on_c, 2, 79, 84
8, 22311, Note_on_c, 2, 76, 0
8, 22311, Note_on_c, 2, 79, 0
8, 22320, Note_on_c, 2, 81, 84
8, 22320, Note_on_c, 2, 77, 84
8, 22439, Note_on_c, 2, 81, 0
8, 22439, Note_on_c, 2, 77, 0
8, 23640, Note_on_c, 2, 76, 84
8, 23640, Note_on_c, 2, 79, 84
8, 23751, Note_on_c, 2, 76, 0
8, 23751, Note_on_c, 2, 79, 0
8, 23760, Note_on_c, 2, 77, 84
8, 24111, Note_on_c, 2, 77, 0
8, 24120, Note_on_c, 2, 79, 84
8, 24471, Note_on_c, 2, 79, 0
8, 24480, Note_on_c, 2, 81, 84
8, 24480, Note_on_c, 2, 77, 84
8, 24831, Note_on_c, 2, 81, 0
8, 24831, Note_on_c, 2, 77, 0
8, 24840, Note_on_c, 2, 79, 84
8, 24840, Note_on_c, 2, 82, 84
8, 25071, Note_on_c, 2, 79, 0
8, 25071, Note_on_c, 2, 82, 0
8, 25080, Note_on_c, 2, 76, 84
8, 25080, Note_on_c, 2, 79, 84
8, 25199, Note_on_c, 2, 76, 0
8, 25199, Note_on_c, 2, 79, 0
8, 26520, Note_on_c, 2, 79, 84
8, 26520, Note_on_c, 2, 76, 84
8, 26631, Note_on_c, 2, 79, 0
8, 26631, Note_on_c, 2, 76, 0
8, 26640, Note_on_c, 2, 77, 84
8, 26991, Note_on_c, 2, 77, 0
8, 27000, Note_on_c, 2, 79, 84
8, 27351, Note_on_c, 2, 79, 0
8, 27360, Note_on_c, 2, 81, 84
8, 27360, Note_on_c, 2, 77, 84
8, 27711, Note_on_c, 2, 81, 0
8, 27711, Note_on_c, 2, 77, 0
8, 27720, Note_on_c, 2, 82, 84
8, 27720, Note_on_c, 2, 76, 84
8, 27951, Note_on_c, 2, 82, 0
8, 27951, Note_on_c, 2, 76, 0
8, 27960, Note_on_c, 2, 82, 84
8, 27960, Note_on_c, 2, 76, 84
8, 28071, Note_on_c, 2, 82, 0
8, 28071, Note_on_c, 2, 76, 0
8, 28080, Note_on_c, 2, 81, 92
8, 28080, Note_on_c, 2, 77, 92
8, 28110, Control_c, 2, 11, 112
8, 28431, Note_on_c, 2, 81, 0
8, 28431, Note_on_c, 2, 77, 0
8, 28440, Note_on_c, 2, 77, 92
8, 28440, Note_on_c, 2, 79, 92
8, 28671, Note_on_c, 2, 77, 0
8, 28671, Note_on_c, 2, 79, 0
8, 28680, Note_on_c, 2, 77, 92
8, 28680, Note_on_c, 2, 79, 92
8, 28791, Note_on_c, 2, 77, 0
8, 28791, Note_on_c, 2, 79, 0
8, 28798, Control_c, 2, 11, 127
8, 28800, Note_on_c, 2, 79, 92
8, 28800, Note_on_c, 2, 76, 92
8, 28830, Control_c, 2, 11, 112
8, 29151, Note_on_c, 2, 79, 0
8, 29151, Note_on_c, 2, 76, 0
8, 29160, Note_on_c, 2, 77, 92
8, 29160, Note_on_c, 2, 79, 92
8, 29391, Note_on_c, 2, 77, 0
8, 29391, Note_on_c, 2, 79, 0
8, 29400, Note_on_c, 2, 79, 92
8, 29400, Note_on_c, 2, 71, 92
8, 29511, Note_on_c, 2, 79, 0
8, 29511, Note_on_c, 2, 71, 0
8, 29518, Control_c, 2, 11, 127
8, 29520, Note_on_c, 2, 79, 84
8, 29520, Note_on_c, 2, 72, 84
8, 30111, Note_on_c, 2, 79, 0
8, 30111, Note_on_c, 2, 72, 0
8, 30120, Note_on_c, 2, 72, 84
8, 30120, Note_on_c, 2, 76, 84
8, 30231, Note_on_c, 2, 72, 0
8, 30231, Note_on_c, 2, 76, 0
8, 30240, Note_on_c, 2, 72, 84
8, 30240, Note_on_c, 2, 76, 84
8, 30471, Note_on_c, 2, 72, 0
8, 30471, Note_on_c, 2, 76, 0
8, 30480, Note_on_c, 2, 72, 84
8, 30480, Note_on_c, 2, 76, 84
8, 30591, Note_on_c, 2, 72, 0
8, 30591, Note_on_c, 2, 76, 0
8, 30600, Note_on_c, 2, 72, 84
8, 30600, Note_on_c, 2, 76, 84
8, 30831, Note_on_c, 2, 72, 0
8, 30831, Note_on_c, 2, 76, 0
8, 30840, Note_on_c, 2, 76, 84
8, 30840, Note_on_c, 2, 72, 84
8, 30951, Note_on_c, 2, 76, 0
8, 30951, Note_on_c, 2, 72, 0
8, 30960, Note_on_c, 2, 74, 84
8, 30960, Note_on_c, 2, 77, 84
8, 31551, Note_on_c, 2, 74, 0
8, 31551, Note_on_c, 2, 77, 0
8, 31560, Note_on_c, 2, 71, 84
8, 31560, Note_on_c, 2, 74, 84
8, 31671, Note_on_c, 2, 71, 0
8, 31671, Note_on_c, 2, 74, 0
8, 31680, Note_on_c, 2, 74, 84
8, 31680, Note_on_c, 2, 71, 84
8, 31911, Note_on_c, 2, 74, 0
8, 31911, Note_on_c, 2, 71, 0
8, 31920, Note_on_c, 2, 71, 84
8, 31920, Note_on_c, 2, 74, 84
8, 32031, Note_on_c, 2, 71, 0
8, 32031, Note_on_c, 2, 74, 0
8, 32040, Note_on_c, 2, 74, 84
8, 32040, Note_on_c, 2, 71, 84
8, 32271, Note_on_c, 2, 74, 0
8, 32271, Note_on_c, 2, 71, 0
8, 32280, Note_on_c, 2, 74, 84
8, 32280, Note_on_c, 2, 71, 84
8, 32391, Note_on_c, 2, 74, 0
8, 32391, Note_on_c, 2, 71, 0
8, 32400, Note_on_c, 2, 79, 84
8, 32400, Note_on_c, 2, 76, 84
8, 32631, Note_on_c, 2, 79, 0
8, 32631, Note_on_c, 2, 76, 0
8, 32640, Note_on_c, 2, 76, 84
8, 32640, Note_on_c, 2, 79, 84
8, 32751, Note_on_c, 2, 76, 0
8, 32751, Note_on_c, 2, 79, 0
8, 32760, Note_on_c, 2, 79, 84
8, 32760, Note_on_c, 2, 76, 84
8, 32991, Note_on_c, 2, 79, 0
8, 32991, Note_on_c, 2, 76, 0
8, 33000, Note_on_c, 2, 76, 84
8, 33000, Note_on_c, 2, 79, 84
8, 33111, Note_on_c, 2, 76, 0
8, 33111, Note_on_c, 2, 79, 0
8, 33120, Note_on_c, 2, 76, 84
8, 33120, Note_on_c, 2, 79, 84
8, 33351, Note_on_c, 2, 76, 0
8, 33351, Note_on_c, 2, 79, 0
8, 33360, Note_on_c, 2, 76, 84
8, 33360, Note_on_c, 2, 72, 84
8, 33471, Note_on_c, 2, 76, 0
8, 33471, Note_on_c, 2, 72, 0
8, 33480, Note_on_c, 2, 76, 84
8, 33480, Note_on_c, 2, 72, 84
8, 33711, Note_on_c, 2, 76, 0
8, 33711, Note_on_c, 2, 72, 0
8, 33720, Note_on_c, 2, 72, 84
8, 33720, Note_on_c, 2, 76, 84
8, 33831, Note_on_c, 2, 72, 0
8, 33831, Note_on_c, 2, 76, 0
8, 33840, Note_on_c, 2, 74, 84
8, 33840, Note_on_c, 2, 77, 84
8, 34071, Note_on_c, 2, 74, 0
8, 34071, Note_on_c, 2, 77, 0
8, 34080, Note_on_c, 2, 74, 84
8, 34080, Note_on_c, 2, 77, 84
8, 34191, Note_on_c, 2, 74, 0
8, 34191, Note_on_c, 2, 77, 0
8, 34200, Note_on_c, 2, 77, 84
8, 34200, Note_on_c, 2, 74, 84
8, 34431, Note_on_c, 2, 77, 0
8, 34431, Note_on_c, 2, 74, 0
8, 34440, Note_on_c, 2, 77, 84
8, 34440, Note_on_c, 2, 74, 84
8, 34551, Note_on_c, 2, 77, 0
8, 34551, Note_on_c, 2, 74, 0
8, 34560, Note_on_c, 2, 77, 84
8, 34560, Note_on_c, 2, 74, 84
8, 34799, Note_on_c, 2, 77, 0
8, 34799, Note_on_c, 2, 74, 0
8, 34800, Note_on_c, 2, 74, 84
8, 34800, Note_on_c, 2, 71, 84
8, 34911, Note_on_c, 2, 74, 0
8, 34911, Note_on_c, 2, 71, 0
8, 34920, Note_on_c, 2, 74, 84
8, 34920, Note_on_c, 2, 71, 84
8, 35151, Note_on_c, 2, 74, 0
8, 35151, Note_on_c, 2, 71, 0
8, 35160, Note_on_c, 2, 71, 84
8, 35160, Note_on_c, 2, 74, 84
8, 35271, Note_on_c, 2, 71, 0
8, 35271, Note_on_c, 2, 74, 0
8, 35280, Note_on_c, 2, 72, 84
8, 35280, Note_on_c, 2, 76, 84
8, 35511, Note_on_c, 2, 72, 0
8, 35511, Note_on_c, 2, 76, 0
8, 35850, Control_c, 2, 11, 94
8, 35880, Control_c, 2, 11, 96
8, 35880, Note_on_c, 2, 72, 76
8, 35910, Control_c, 2, 11, 98
8, 35940, Control_c, 2, 11, 100
8, 35970, Control_c, 2, 11, 102
8, 36000, Control_c, 2, 11, 104
8, 36030, Control_c, 2, 11, 105
8, 36060, Control_c, 2, 11, 107
8, 36090, Control_c, 2, 11, 109
8, 36119, Note_on_c, 2, 72, 0
8, 36120, Control_c, 2, 11, 111
8, 36120, Note_on_c, 2, 77, 76
8, 36150, Control_c, 2, 11, 113
8, 36180, Control_c, 2, 11, 115
8, 36210, Control_c, 2, 11, 117
8, 36239, Note_on_c, 2, 77, 0
8, 36240, Note_on_c, 2, 76, 76
8, 36240, Control_c, 2, 11, 119
8, 36270, Control_c, 2, 11, 121
8, 36300, Control_c, 2, 11, 123
8, 36330, Control_c, 2, 11, 125
8, 36351, Note_on_c, 2, 76, 0
8, 36358, Control_c, 2, 11, 127
8, 36360, Note_on_c, 2, 77, 76
8, 36360, Note_on_c, 2, 74, 76
8, 36591, Note_on_c, 2, 77, 0
8, 36591, Note_on_c, 2, 74, 0
8, 36600, Note_on_c, 2, 74, 76
8, 36600, Note_on_c, 2, 77, 76
8, 36711, Note_on_c, 2, 74, 0
8, 36711, Note_on_c, 2, 77, 0
8, 36720, Note_on_c, 2, 72, 76
8, 36720, Note_on_c, 2, 76, 76
8, 36839, Note_on_c, 2, 72, 0
8, 36839, Note_on_c, 2, 76, 0
8, 37290, Control_c, 2, 11, 94
8, 37320, Note_on_c, 2, 72, 76
8, 37320, Control_c, 2, 11, 96
8, 37350, Control_c, 2, 11, 98
8, 37380, Control_c, 2, 11, 100
8, 37410, Control_c, 2, 11, 102
8, 37440, Control_c, 2, 11, 104
8, 37470, Control_c, 2, 11, 105
8, 37500, Control_c, 2, 11, 107
8, 37530, Control_c, 2, 11, 109
8, 37559, Note_on_c, 2, 72, 0
8, 37560, Note_on_c, 2, 77, 76
8, 37560, Control_c, 2, 11, 111
8, 37590, Control_c, 2, 11, 113
8, 37620, Control_c, 2, 11, 115
8, 37650, Control_c, 2, 11, 117
8, 37679, Note_on_c, 2, 77, 0
8, 37680, Note_on_c, 2, 72, 76
8, 37680, Control_c, 2, 11, 119
8, 37680, Note_on_c, 2, 76, 76
8, 37710, Control_c, 2, 11, 121
8, 37740, Control_c, 2, 11, 123
8, 37770, Control_c, 2, 11, 125
8, 37791, Note_on_c, 2, 76, 0
8, 37798, Control_c, 2, 11, 127
8, 37799, Note_on_c, 2, 72, 0
8, 37800, Note_on_c, 2, 74, 76
8, 37800, Note_on_c, 2, 77, 76
8, 38039, Note_on_c, 2, 74, 0
8, 38039, Note_on_c, 2, 77, 0
8, 38040, Note_on_c, 2, 74, 76
8, 38040, Note_on_c, 2, 77, 76
8, 38129, Note_on_c, 2, 74, 0
8, 38129, Note_on_c, 2, 77, 0
8, 38160, Note_on_c, 2, 72, 84
8, 38160, Note_on_c, 2, 76, 84
8, 38511, Note_on_c, 2, 72, 0
8, 38511, Note_on_c, 2, 76, 0
8, 38520, Note_on_c, 2, 72, 84
8, 38520, Note_on_c, 2, 76, 84
8, 38639, Note_on_c, 2, 72, 0
8, 38639, Note_on_c, 2, 76, 0
8, 38760, Note_on_c, 2, 76, 84
8, 38760, Note_on_c, 2, 72, 84
8, 38849, Note_on_c, 2, 76, 0
8, 38849, Note_on_c, 2, 72, 0
8, 38880, Note_on_c, 2, 77, 84
8, 38880, Note_on_c, 2, 74, 84
8, 39231, Note_on_c, 2, 77, 0
8, 39231, Note_on_c, 2, 74, 0
8, 39240, Note_on_c, 2, 74, 84
8, 39240, Note_on_c, 2, 77, 84
8, 39359, Note_on_c, 2, 74, 0
8, 39359, Note_on_c, 2, 77, 0
8, 39480, Note_on_c, 2, 74, 84
8, 39480, Note_on_c, 2, 77, 84
8, 39569, Note_on_c, 2, 74, 0
8, 39569, Note_on_c, 2, 77, 0
8, 39600, Note_on_c, 2, 76, 84
8, 39600, Note_on_c, 2, 72, 84
8, 39689, Note_on_c, 2, 76, 0
8, 39689, Note_on_c, 2, 72, 0
8, 42120, Note_on_c, 2, 76, 48
8, 42239, Note_on_c, 2, 76, 0
8, 42240, Note_on_c, 2, 72, 48
8, 42359, Note_on_c, 2, 72, 0
8, 42360, Note_on_c, 2, 79, 48
8, 42471, Note_on_c, 2, 79, 0
8, 42480, Note_on_c, 2, 76, 48
8, 42599, Note_on_c, 2, 76, 0
8, 42600, Note_on_c, 2, 72, 48
8, 42719, Note_on_c, 2, 72, 0
8, 42720, Note_on_c, 2, 79, 48
8, 42839, Note_on_c, 2, 79, 0
8, 44245, Control_c, 2, 11, 103
8, 44280, Note_on_c, 2, 70, 68
8, 44292, Control_c, 2, 11, 104
8, 44338, Control_c, 2, 11, 105
8, 44385, Control_c, 2, 11, 106
8, 44431, Control_c, 2, 11, 107
8, 44477, Control_c, 2, 11, 108
8, 44524, Control_c, 2, 11, 109
8, 44570, Control_c, 2, 11, 110
8, 44617, Control_c, 2, 11, 111
8, 44663, Control_c, 2, 11, 112
8, 44710, Control_c, 2, 11, 113
8, 44756, Control_c, 2, 11, 114
8, 44803, Control_c, 2, 11, 115
8, 44849, Control_c, 2, 11, 116
8, 44895, Control_c, 2, 11, 117
8, 44942, Control_c, 2, 11, 118
8, 44988, Control_c, 2, 11, 119
8, 45035, Control_c, 2, 11, 120
8, 45081, Control_c, 2, 11, 121
8, 45128, Control_c, 2, 11, 122
8, 45174, Control_c, 2, 11, 123
8, 45221, Control_c, 2, 11, 124
8, 45267, Control_c, 2, 11, 125
8, 45314, Control_c, 2, 11, 127
8, 45351, Note_on_c, 2, 70, 0
8, 45360, Note_on_c, 2, 69, 52
8, 45599, Note_on_c, 2, 69, 0
8, 54000, Note_on_c, 2, 75, 72
8, 54000, Note_on_c, 2, 72, 72
8, 54111, Note_on_c, 2, 75, 0
8, 54111, Note_on_c, 2, 72, 0
8, 54120, Note_on_c, 2, 75, 72
8, 54120, Note_on_c, 2, 72, 72
8, 54231, Note_on_c, 2, 75, 0
8, 54231, Note_on_c, 2, 72, 0
8, 54240, Note_on_c, 2, 75, 73
8, 54240, Note_on_c, 2, 72, 73
8, 54351, Note_on_c, 2, 75, 0
8, 54351, Note_on_c, 2, 72, 0
8, 54360, Note_on_c, 2, 75, 74
8, 54360, Note_on_c, 2, 72, 74
8, 54471, Note_on_c, 2, 75, 0
8, 54471, Note_on_c, 2, 72, 0
8, 54480, Note_on_c, 2, 72, 74
8, 54480, Note_on_c, 2, 75, 74
8, 54591, Note_on_c, 2, 72, 0
8, 54591, Note_on_c, 2, 75, 0
8, 54600, Note_on_c, 2, 72, 75
8, 54600, Note_on_c, 2, 75, 75
8, 54711, Note_on_c, 2, 72, 0
8, 54711, Note_on_c, 2, 75, 0
8, 54720, Note_on_c, 2, 72, 76
8, 54720, Note_on_c, 2, 75, 76
8, 54831, Note_on_c, 2, 72, 0
8, 54831, Note_on_c, 2, 75, 0
8, 54840, Note_on_c, 2, 75, 76
8, 54840, Note_on_c, 2, 72, 76
8, 54951, Note_on_c, 2, 75, 0
8, 54951, Note_on_c, 2, 72, 0
8, 54960, Note_on_c, 2, 75, 76
8, 54960, Note_on_c, 2, 72, 76
8, 55071, Note_on_c, 2, 75, 0
8, 55071, Note_on_c, 2, 72, 0
8, 55080, Note_on_c, 2, 72, 76
8, 55080, Note_on_c, 2, 75, 76
8, 55191, Note_on_c, 2, 72, 0
8, 55191, Note_on_c, 2, 75, 0
8, 55200, Note_on_c, 2, 72, 76
8, 55200, Note_on_c, 2, 75, 76
8, 55311, Note_on_c, 2, 72, 0
8, 55311, Note_on_c, 2, 75, 0
8, 55320, Note_on_c, 2, 77, 84
8, 55320, Note_on_c, 2, 69, 84
8, 55409, Note_on_c, 2, 77, 0
8, 55409, Note_on_c, 2, 69, 0
8, 55440, Note_on_c, 2, 77, 84
8, 55440, Note_on_c, 2, 69, 84
8, 55649, Note_on_c, 2, 77, 0
8, 55649, Note_on_c, 2, 69, 0
8, 55680, Note_on_c, 2, 77, 84
8, 55680, Note_on_c, 2, 69, 84
8, 55769, Note_on_c, 2, 77, 0
8, 55769, Note_on_c, 2, 69, 0
8, 55800, Note_on_c, 2, 69, 84
8, 55800, Note_on_c, 2, 77, 84
8, 56009, Note_on_c, 2, 69, 0
8, 56009, Note_on_c, 2, 77, 0
8, 56040, Note_on_c, 2, 77, 84
8, 56040, Note_on_c, 2, 69, 84
8, 56129, Note_on_c, 2, 77, 0
8, 56129, Note_on_c, 2, 69, 0
8, 56160, Note_on_c, 2, 69, 84
8, 56160, Note_on_c, 2, 77, 84
8, 56369, Note_on_c, 2, 69, 0
8, 56369, Note_on_c, 2, 77, 0
8, 56400, Note_on_c, 2, 77, 84
8, 56400, Note_on_c, 2, 69, 84
8, 56489, Note_on_c, 2, 77, 0
8, 56489, Note_on_c, 2, 69, 0
8, 56520, Note_on_c, 2, 77, 84
8, 56520, Note_on_c, 2, 69, 84
8, 56729, Note_on_c, 2, 77, 0
8, 56729, Note_on_c, 2, 69, 0
8, 56760, Note_on_c, 2, 69, 84
8, 56760, Note_on_c, 2, 77, 84
8, 56849, Note_on_c, 2, 69, 0
8, 56849, Note_on_c, 2, 77, 0
8, 56880, Note_on_c, 2, 70, 84
8, 56880, Note_on_c, 2, 74, 84
8, 57119, Note_on_c, 2, 70, 0
8, 57119, Note_on_c, 2, 74, 0
8, 58200, Note_on_c, 2, 70, 76
8, 58200, Note_on_c, 2, 74, 76
8, 58311, Note_on_c, 2, 70, 0
8, 58311, Note_on_c, 2, 74, 0
8, 58320, Note_on_c, 2, 75, 84
8, 58320, Note_on_c, 2, 70, 84
8, 58350, Control_c, 2, 11, 112
8, 58559, Note_on_c, 2, 75, 0
8, 58559, Note_on_c, 2, 70, 0
8, 58560, Note_on_c, 2, 69, 84
8, 58679, Note_on_c, 2, 69, 0
8, 59640, Note_on_c, 2, 71, 84
8, 59640, Note_on_c, 2, 74, 84
8, 59751, Note_on_c, 2, 71, 0
8, 59751, Note_on_c, 2, 74, 0
8, 59758, Control_c, 2, 11, 127
8, 59760, Note_on_c, 2, 74, 84
8, 59760, Note_on_c, 2, 71, 84
8, 59790, Control_c, 2, 11, 112
8, 59999, Note_on_c, 2, 74, 0
8, 59999, Note_on_c, 2, 71, 0
8, 60000, Note_on_c, 2, 72, 84
8, 60000, Note_on_c, 2, 75, 84
8, 60119, Note_on_c, 2, 72, 0
8, 60119, Note_on_c, 2, 75, 0
8, 60960, Control_c, 2, 11, 127
8, 61080, Note_on_c, 2, 72, 76
8, 61080, Note_on_c, 2, 69, 76
8, 61199, Note_on_c, 2, 72, 0
8, 61199, Note_on_c, 2, 69, 0
8, 61200, Note_on_c, 2, 74, 76
8, 61200, Note_on_c, 2, 70, 76
8, 61439, Note_on_c, 2, 74, 0
8, 61439, Note_on_c, 2, 70, 0
8, 61800, Note_on_c, 2, 70, 76
8, 61800, Note_on_c, 2, 82, 76
8, 61911, Note_on_c, 2, 70, 0
8, 61911, Note_on_c, 2, 82, 0
8, 61920, Note_on_c, 2, 82, 76
8, 61920, Note_on_c, 2, 70, 76
8, 62159, Note_on_c, 2, 82, 0
8, 62159, Note_on_c, 2, 70, 0
8, 62520, Note_on_c, 2, 82, 76
8, 62520, Note_on_c, 2, 70, 76
8, 62631, Note_on_c, 2, 82, 0
8, 62631, Note_on_c, 2, 70, 0
8, 62640, Note_on_c, 2, 82, 76
8, 62640, Note_on_c, 2, 70, 76
8, 62879, Note_on_c, 2, 82, 0
8, 62879, Note_on_c, 2, 70, 0
8, 63240, Note_on_c, 2, 65, 76
8, 63240, Note_on_c, 2, 77, 76
8, 63351, Note_on_c, 2, 65, 0
8, 63351, Note_on_c, 2, 77, 0
8, 63360, Note_on_c, 2, 65, 76
8, 63360, Note_on_c, 2, 77, 76
8, 63599, Note_on_c, 2, 65, 0
8, 63599, Note_on_c, 2, 77, 0
8, 63960, Note_on_c, 2, 77, 76
8, 63960, Note_on_c, 2, 65, 76
8, 64071, Note_on_c, 2, 77, 0
8, 64071, Note_on_c, 2, 65, 0
8, 64080, Note_on_c, 2, 77, 76
8, 64080, Note_on_c, 2, 65, 76
8, 64311, Note_on_c, 2, 77, 0
8, 64311, Note_on_c, 2, 65, 0
8, 64320, Note_on_c, 2, 82, 76
8, 64320, Note_on_c, 2, 70, 76
8, 64431, Note_on_c, 2, 82, 0
8, 64431, Note_on_c, 2, 70, 0
8, 64440, Note_on_c, 2, 70, 76
8, 64440, Note_on_c, 2, 82, 76
8, 64671, Note_on_c, 2, 70, 0
8, 64671, Note_on_c, 2, 82, 0
8, 64680, Note_on_c, 2, 70, 76
8, 64680, Note_on_c, 2, 82, 76
8, 64791, Note_on_c, 2, 70, 0
8, 64791, Note_on_c, 2, 82, 0
8, 64800, Note_on_c, 2, 70, 80
8, 64800, Note_on_c, 2, 82, 80
8, 65511, Note_on_c, 2, 70, 0
8, 65511, Note_on_c, 2, 82, 0
8, 65520, Note_on_c, 2, 82, 80
8, 65520, Note_on_c, 2, 70, 80
8, 66231, Note_on_c, 2, 82, 0
8, 66231, Note_on_c, 2, 70, 0
8, 66240, Note_on_c, 2, 82, 84
8, 66240, Note_on_c, 2, 73, 84
8, 66951, Note_on_c, 2, 82, 0
8, 66960, Note_on_c, 2, 80, 84
8, 67199, Note_on_c, 2, 73, 0
8, 67199, Note_on_c, 2, 80, 0
8, 71880, Note_on_c, 2, 74, 76
8, 71880, Note_on_c, 2, 77, 76
8, 71991, Note_on_c, 2, 74, 0
8, 71991, Note_on_c, 2, 77, 0
8, 72000, Note_on_c, 2, 71, 76
8, 72359, Note_on_c, 2, 71, 0
8, 72360, Note_on_c, 2, 67, 76
8, 72479, Note_on_c, 2, 67, 0
8, 72600, Note_on_c, 2, 74, 76
8, 72711, Note_on_c, 2, 74, 0
8, 72720, Note_on_c, 2, 72, 76
8, 73079, Note_on_c, 2, 72, 0
8, 73080, Note_on_c, 2, 67, 76
8, 73199, Note_on_c, 2, 67, 0
8, 73320, Note_on_c, 2, 76, 76
8, 73439, Note_on_c, 2, 76, 0
8, 74760, Note_on_c, 2, 74, 76
8, 74760, Note_on_c, 2, 77, 76
8, 74871, Note_on_c, 2, 74, 0
8, 74871, Note_on_c, 2, 77, 0
8, 74880, Note_on_c, 2, 71, 76
8, 75239, Note_on_c, 2, 71, 0
8, 75240, Note_on_c, 2, 67, 76
8, 75359, Note_on_c, 2, 67, 0
8, 75480, Note_on_c, 2, 74, 76
8, 75591, Note_on_c, 2, 74, 0
8, 75600, Note_on_c, 2, 72, 76
8, 75959, Note_on_c, 2, 72, 0
8, 75960, Note_on_c, 2, 67, 76
8, 76079, Note_on_c, 2, 67, 0
8, 76200, Note_on_c, 2, 76, 76
8, 76311, Note_on_c, 2, 76, 0
8, 76320, Note_on_c, 2, 72, 84
8, 76679, Note_on_c, 2, 72, 0
8, 76680, Note_on_c, 2, 67, 84
8, 76799, Note_on_c, 2, 67, 0
8, 76920, Note_on_c, 2, 76, 84
8, 77031, Note_on_c, 2, 76, 0
8, 77040, Note_on_c, 2, 72, 84
8, 77399, Note_on_c, 2, 72, 0
8, 77400, Note_on_c, 2, 67, 84
8, 77519, Note_on_c, 2, 67, 0
8, 77640, Note_on_c, 2, 76, 84
8, 77751, Note_on_c, 2, 76, 0
8, 77760, Note_on_c, 2, 72, 84
8, 77760, Control_c, 2, 11, 127
8, 77790, Control_c, 2, 11, 126
8, 77820, Control_c, 2, 11, 124
8, 77850, Control_c, 2, 11, 123
8, 77880, Control_c, 2, 11, 122
8, 77910, Control_c, 2, 11, 120
8, 77940, Control_c, 2, 11, 119
8, 77970, Control_c, 2, 11, 118
8, 78000, Control_c, 2, 11, 117
8, 78030, Control_c, 2, 11, 115
8, 78060, Control_c, 2, 11, 114
8, 78090, Control_c, 2, 11, 113
8, 78119, Note_on_c, 2, 72, 0
8, 78120, Control_c, 2, 11, 111
8, 78120, Note_on_c, 2, 67, 84
8, 78150, Control_c, 2, 11, 110
8, 78180, Control_c, 2, 11, 109
8, 78210, Control_c, 2, 11, 107
8, 78240, Control_c, 2, 11, 106
8, 78270, Control_c, 2, 11, 105
8, 78300, Control_c, 2, 11, 103
8, 78330, Control_c, 2, 11, 102
8, 78359, Note_on_c, 2, 67, 0
8, 78360, Note_on_c, 2, 76, 84
8, 78360, Control_c, 2, 11, 101
8, 78390, Control_c, 2, 11, 99
8, 78420, Control_c, 2, 11, 98
8, 78450, Control_c, 2, 11, 97
8, 78479, Note_on_c, 2, 76, 0
8, 78480, Note_on_c, 2, 72, 84
8, 78480, Control_c, 2, 11, 96
8, 78510, Control_c, 2, 11, 94
8, 78540, Control_c, 2, 11, 93
8, 78570, Control_c, 2, 11, 92
8, 78600, Control_c, 2, 11, 90
8, 78630, Control_c, 2, 11, 89
8, 78660, Control_c, 2, 11, 88
8, 78690, Control_c, 2, 11, 86
8, 78720, Control_c, 2, 11, 85
8, 78750, Control_c, 2, 11, 84
8, 78780, Control_c, 2, 11, 82
8, 78810, Control_c, 2, 11, 81
8, 78839, Note_on_c, 2, 72, 0
8, 78840, Control_c, 2, 11, 80
8, 78840, Note_on_c, 2, 67, 84
8, 78870, Control_c, 2, 11, 78
8, 78900, Control_c, 2, 11, 77
8, 78930, Control_c, 2, 11, 76
8, 78960, Control_c, 2, 11, 75
8, 78990, Control_c, 2, 11, 73
8, 79020, Control_c, 2, 11, 72
8, 79050, Control_c, 2, 11, 71
8, 79079, Note_on_c, 2, 67, 0
8, 79080, Note_on_c, 2, 76, 84
8, 79080, Control_c, 2, 11, 69
8, 79110, Control_c, 2, 11, 68
8, 79140, Control_c, 2, 11, 67
8, 79192, Control_c, 2, 11, 80
8, 79199, Note_on_c, 2, 76, 0
8, 80640, Note_on_c, 2, 72, 68
8, 80640, Note_on_c, 2, 76, 68
8, 81720, Control_c, 2, 11, 80
8, 81758, Control_c, 2, 11, 81
8, 81797, Control_c, 2, 11, 82
8, 81835, Control_c, 2, 11, 83
8, 81873, Control_c, 2, 11, 84
8, 81911, Control_c, 2, 11, 85
8, 81950, Control_c, 2, 11, 86
8, 81988, Control_c, 2, 11, 87
8, 82026, Control_c, 2, 11, 88
8, 82065, Control_c, 2, 11, 89
8, 82079, Note_on_c, 2, 72, 0
8, 82079, Note_on_c, 2, 76, 0
8, 82080, Note_on_c, 2, 76, 68
8, 82080, Note_on_c, 2, 72, 68
8, 82103, Control_c, 2, 11, 90
8, 82141, Control_c, 2, 11, 91
8, 82180, Control_c, 2, 11, 92
8, 82218, Control_c, 2, 11, 93
8, 82256, Control_c, 2, 11, 94
8, 82294, Control_c, 2, 11, 95
8, 82333, Control_c, 2, 11, 96
8, 82371, Control_c, 2, 11, 97
8, 82409, Control_c, 2, 11, 98
8, 82448, Control_c, 2, 11, 99
8, 82486, Control_c, 2, 11, 100
8, 82524, Control_c, 2, 11, 101
8, 82563, Control_c, 2, 11, 102
8, 82601, Control_c, 2, 11, 103
8, 82639, Control_c, 2, 11, 104
8, 82677, Control_c, 2, 11, 105
8, 82716, Control_c, 2, 11, 106
8, 82754, Control_c, 2, 11, 107
8, 82792, Control_c, 2, 11, 108
8, 82831, Control_c, 2, 11, 109
8, 82869, Control_c, 2, 11, 110
8, 82907, Control_c, 2, 11, 111
8, 82946, Control_c, 2, 11, 112
8, 82984, Control_c, 2, 11, 113
8, 83022, Control_c, 2, 11, 114
8, 83060, Control_c, 2, 11, 115
8, 83099, Control_c, 2, 11, 116
8, 83137, Control_c, 2, 11, 117
8, 83175, Control_c, 2, 11, 118
8, 83214, Control_c, 2, 11, 119
8, 83252, Control_c, 2, 11, 120
8, 83290, Control_c, 2, 11, 121
8, 83329, Control_c, 2, 11, 122
8, 83367, Control_c, 2, 11, 123
8, 83405, Control_c, 2, 11, 124
8, 83443, Control_c, 2, 11, 125
8, 83482, Control_c, 2, 11, 127
8, 83511, Note_on_c, 2, 76, 0
8, 83511, Note_on_c, 2, 72, 0
8, 83520, Note_on_c, 2, 81, 52
8, 83520, Note_on_c, 2, 77, 52
8, 83759, Note_on_c, 2, 81, 0
8, 83759, Note_on_c, 2, 77, 0
8, 94440, Note_on_c, 2, 81, 81
8, 94440, Note_on_c, 2, 77, 81
8, 94551, Note_on_c, 2, 81, 0
8, 94551, Note_on_c, 2, 77, 0
8, 94560, Note_on_c, 2, 81, 81
8, 94560, Note_on_c, 2, 77, 81
8, 94671, Note_on_c, 2, 81, 0
8, 94671, Note_on_c, 2, 77, 0
8, 94680, Note_on_c, 2, 77, 82
8, 94680, Note_on_c, 2, 81, 82
8, 94791, Note_on_c, 2, 77, 0
8, 94791, Note_on_c, 2, 81, 0
8, 94800, Note_on_c, 2, 77, 82
8, 94800, Note_on_c, 2, 81, 82
8, 94911, Note_on_c, 2, 77, 0
8, 94911, Note_on_c, 2, 81, 0
8, 94920, Note_on_c, 2, 77, 83
8, 94920, Note_on_c, 2, 81, 83
8, 95031, Note_on_c, 2, 77, 0
8, 95031, Note_on_c, 2, 81, 0
8, 95040, Note_on_c, 2, 81, 84
8, 95040, Note_on_c, 2, 77, 84
8, 95631, Note_on_c, 2, 81, 0
8, 95631, Note_on_c, 2, 77, 0
8, 95640, Note_on_c, 2, 81, 84
8, 95640, Note_on_c, 2, 77, 84
8, 95751, Note_on_c, 2, 81, 0
8, 95751, Note_on_c, 2, 77, 0
8, 95760, Note_on_c, 2, 77, 84
8, 95760, Note_on_c, 2, 81, 84
8, 96351, Note_on_c, 2, 77, 0
8, 96351, Note_on_c, 2, 81, 0
8, 96360, Note_on_c, 2, 81, 84
8, 96360, Note_on_c, 2, 77, 84
8, 96471, Note_on_c, 2, 81, 0
8, 96471, Note_on_c, 2, 77, 0
8, 96480, Note_on_c, 2, 81, 84
8, 96480, Note_on_c, 2, 77, 84
8, 97071, Note_on_c, 2, 81, 0
8, 97071, Note_on_c, 2, 77, 0
8, 97080, Note_on_c, 2, 77, 84
8, 97080, Note_on_c, 2, 81, 84
8, 97191, Note_on_c, 2, 77, 0
8, 97191, Note_on_c, 2, 81, 0
8, 97200, Note_on_c, 2, 82, 84
8, 97200, Note_on_c, 2, 77, 84
8, 97791, Note_on_c, 2, 82, 0
8, 97791, Note_on_c, 2, 77, 0
8, 97800, Note_on_c, 2, 82, 84
8, 97800, Note_on_c, 2, 79, 84
8, 97911, Note_on_c, 2, 82, 0
8, 97911, Note_on_c, 2, 79, 0
8, 97920, Note_on_c, 2, 79, 84
8, 97920, Note_on_c, 2, 82, 84
8, 98511, Note_on_c, 2, 79, 0
8, 98511, Note_on_c, 2, 82, 0
8, 98520, Note_on_c, 2, 82, 84
8, 98520, Note_on_c, 2, 79, 84
8, 98631, Note_on_c, 2, 82, 0
8, 98631, Note_on_c, 2, 79, 0
8, 98640, Note_on_c, 2, 79, 84
8, 98640, Note_on_c, 2, 81, 84
8, 98751, Note_on_c, 2, 79, 0
8, 98760, Note_on_c, 2, 77, 84
8, 99231, Note_on_c, 2, 81, 0
8, 99231, Note_on_c, 2, 77, 0
8, 99240, Note_on_c, 2, 77, 84
8, 99240, Note_on_c, 2, 81, 84
8, 99351, Note_on_c, 2, 77, 0
8, 99351, Note_on_c, 2, 81, 0
8, 99360, Note_on_c, 2, 79, 84
8, 99360, Note_on_c, 2, 77, 84
8, 99711, Note_on_c, 2, 79, 0
8, 99711, Note_on_c, 2, 77, 0
8, 99720, Note_on_c, 2, 79, 84
8, 99720, Note_on_c, 2, 76, 84
8, 100071, Note_on_c, 2, 79, 0
8, 100071, Note_on_c, 2, 76, 0
8, 100080, Note_on_c, 2, 77, 84
8, 100080, Note_on_c, 2, 81, 84
8, 100199, Note_on_c, 2, 77, 0
8, 100199, Note_on_c, 2, 81, 0
8, 101400, Note_on_c, 2, 79, 84
8, 101400, Note_on_c, 2, 76, 84
8, 101511, Note_on_c, 2, 79, 0
8, 101511, Note_on_c, 2, 76, 0
8, 101520, Note_on_c, 2, 77, 84
8, 101871, Note_on_c, 2, 77, 0
8, 101880, Note_on_c, 2, 79, 84
8, 102231, Note_on_c, 2, 79, 0
8, 102240, Note_on_c, 2, 77, 84
8, 102240, Note_on_c, 2, 81, 84
8, 102591, Note_on_c, 2, 77, 0
8, 102591, Note_on_c, 2, 81, 0
8, 102600, Note_on_c, 2, 79, 84
8, 102600, Note_on_c, 2, 82, 84
8, 102831, Note_on_c, 2, 79, 0
8, 102831, Note_on_c, 2, 82, 0
8, 102840, Note_on_c, 2, 76, 84
8, 102840, Note_on_c, 2, 79, 84
8, 102959, Note_on_c, 2, 76, 0
8, 102959, Note_on_c, 2, 79, 0
8, 104280, Note_on_c, 2, 77, 84
8, 104280, Note_on_c, 2, 71, 84
8, 104391, Note_on_c, 2, 77, 0
8, 104391, Note_on_c, 2, 71, 0
8, 104400, Note_on_c, 2, 77, 92
8, 104400, Note_on_c, 2, 72, 92
8, 104460, Control_c, 2, 11, 112
8, 104751, Note_on_c, 2, 77, 0
8, 104751, Note_on_c, 2, 72, 0
8, 104758, Control_c, 2, 11, 127
8, 104760, Note_on_c, 2, 77, 92
8, 104760, Note_on_c, 2, 74, 92
8, 104820, Control_c, 2, 11, 112
8, 104991, Note_on_c, 2, 77, 0
8, 104991, Note_on_c, 2, 74, 0
8, 105000, Note_on_c, 2, 74, 92
8, 105000, Note_on_c, 2, 77, 92
8, 105111, Note_on_c, 2, 74, 0
8, 105111, Note_on_c, 2, 77, 0
8, 105118, Control_c, 2, 11, 127
8, 105120, Note_on_c, 2, 72, 92
8, 105120, Note_on_c, 2, 76, 92
8, 105180, Control_c, 2, 11, 112
8, 105471, Note_on_c, 2, 72, 0
8, 105471, Note_on_c, 2, 76, 0
8, 105478, Control_c, 2, 11, 127
8, 105480, Note_on_c, 2, 71, 92
8, 105480, Note_on_c, 2, 77, 92
8, 105540, Control_c, 2, 11, 112
8, 105711, Note_on_c, 2, 71, 0
8, 105711, Note_on_c, 2, 77, 0
8, 105720, Note_on_c, 2, 71, 92
8, 105720, Note_on_c, 2, 67, 92
8, 105831, Note_on_c, 2, 71, 0
8, 105831, Note_on_c, 2, 67, 0
8, 105838, Control_c, 2, 11, 127
8, 105840, Note_on_c, 2, 72, 88
8, 105840, Note_on_c, 2, 67, 88
8, 106191, Note_on_c, 2, 72, 0
8, 106191, Note_on_c, 2, 67, 0
8, 106200, Note_on_c, 2, 72, 88
8, 106200, Note_on_c, 2, 69, 88
8, 106551, Note_on_c, 2, 72, 0
8, 106551, Note_on_c, 2, 69, 0
8, 106560, Note_on_c, 2, 72, 88
8, 106560, Note_on_c, 2, 70, 88
8, 106791, Note_on_c, 2, 72, 0
8, 106791, Note_on_c, 2, 70, 0
8, 106800, Note_on_c, 2, 79, 88
8, 106800, Note_on_c, 2, 82, 88
8, 106911, Note_on_c, 2, 79, 0
8, 106911, Note_on_c, 2, 82, 0
8, 106920, Note_on_c, 2, 80, 88
8, 106920, Note_on_c, 2, 83, 88
8, 107151, Note_on_c, 2, 80, 0
8, 107151, Note_on_c, 2, 83, 0
8, 107160, Note_on_c, 2, 83, 88
8, 107160, Note_on_c, 2, 80, 88
8, 107271, Note_on_c, 2, 83, 0
8, 107271, Note_on_c, 2, 80, 0
8, 107280, Note_on_c, 2, 84, 96
8, 107280, Note_on_c, 2, 81, 96
8, 107340, Control_c, 2, 11, 112
8, 107871, Note_on_c, 2, 84, 0
8, 107871, Note_on_c, 2, 81, 0
8, 107880, Note_on_c, 2, 77, 96
8, 107880, Note_on_c, 2, 81, 96
8, 107991, Note_on_c, 2, 77, 0
8, 107991, Note_on_c, 2, 81, 0
8, 107998, Control_c, 2, 11, 127
8, 108000, Note_on_c, 2, 81, 88
8, 108000, Note_on_c, 2, 77, 88
8, 108231, Note_on_c, 2, 81, 0
8, 108231, Note_on_c, 2, 77, 0
8, 108240, Note_on_c, 2, 77, 88
8, 108240, Note_on_c, 2, 81, 88
8, 108351, Note_on_c, 2, 77, 0
8, 108351, Note_on_c, 2, 81, 0
8, 108360, Note_on_c, 2, 77, 88
8, 108360, Note_on_c, 2, 81, 88
8, 108591, Note_on_c, 2, 77, 0
8, 108591, Note_on_c, 2, 81, 0
8, 108600, Note_on_c, 2, 77, 88
8, 108600, Note_on_c, 2, 81, 88
8, 108711, Note_on_c, 2, 77, 0
8, 108711, Note_on_c, 2, 81, 0
8, 108720, Note_on_c, 2, 82, 88
8, 108720, Note_on_c, 2, 79, 88
8, 109311, Note_on_c, 2, 82, 0
8, 109311, Note_on_c, 2, 79, 0
8, 109320, Note_on_c, 2, 79, 88
8, 109320, Note_on_c, 2, 76, 88
8, 109431, Note_on_c, 2, 79, 0
8, 109431, Note_on_c, 2, 76, 0
8, 109440, Note_on_c, 2, 76, 88
8, 109440, Note_on_c, 2, 79, 88
8, 109671, Note_on_c, 2, 76, 0
8, 109671, Note_on_c, 2, 79, 0
8, 109680, Note_on_c, 2, 79, 88
8, 109680, Note_on_c, 2, 76, 88
8, 109791, Note_on_c, 2, 79, 0
8, 109791, Note_on_c, 2, 76, 0
8, 109800, Note_on_c, 2, 76, 88
8, 109800, Note_on_c, 2, 79, 88
8, 110031, Note_on_c, 2, 76, 0
8, 110031, Note_on_c, 2, 79, 0
8, 110040, Note_on_c, 2, 79, 88
8, 110040, Note_on_c, 2, 76, 88
8, 110151, Note_on_c, 2, 79, 0
8, 110151, Note_on_c, 2, 76, 0
8, 110160, Note_on_c, 2, 81, 88
8, 110160, Note_on_c, 2, 84, 88
8, 110391, Note_on_c, 2, 81, 0
8, 110391, Note_on_c, 2, 84, 0
8, 110400, Note_on_c, 2, 84, 88
8, 110400, Note_on_c, 2, 81, 88
8, 110511, Note_on_c, 2, 84, 0
8, 110511, Note_on_c, 2, 81, 0
8, 110520, Note_on_c, 2, 81, 88
8, 110520, Note_on_c, 2, 84, 88
8, 110751, Note_on_c, 2, 81, 0
8, 110751, Note_on_c, 2, 84, 0
8, 110760, Note_on_c, 2, 81, 88
8, 110760, Note_on_c, 2, 84, 88
8, 110871, Note_on_c, 2, 81, 0
8, 110871, Note_on_c, 2, 84, 0
8, 110880, Note_on_c, 2, 81, 88
8, 110880, Note_on_c, 2, 84, 88
8, 111111, Note_on_c, 2, 81, 0
8, 111111, Note_on_c, 2, 84, 0
8, 111120, Note_on_c, 2, 81, 88
8, 111120, Note_on_c, 2, 77, 88
8, 111231, Note_on_c, 2, 81, 0
8, 111231, Note_on_c, 2, 77, 0
8, 111240, Note_on_c, 2, 81, 88
8, 111240, Note_on_c, 2, 77, 88
8, 111471, Note_on_c, 2, 81, 0
8, 111471, Note_on_c, 2, 77, 0
8, 111480, Note_on_c, 2, 77, 88
8, 111480, Note_on_c, 2, 81, 88
8, 111591, Note_on_c, 2, 77, 0
8, 111591, Note_on_c, 2, 81, 0
8, 111600, Note_on_c, 2, 79, 88
8, 111600, Note_on_c, 2, 82, 88
8, 111831, Note_on_c, 2, 79, 0
8, 111831, Note_on_c, 2, 82, 0
8, 111840, Note_on_c, 2, 82, 88
8, 111840, Note_on_c, 2, 79, 88
8, 111951, Note_on_c, 2, 82, 0
8, 111951, Note_on_c, 2, 79, 0
8, 111960, Note_on_c, 2, 82, 88
8, 111960, Note_on_c, 2, 79, 88
8, 112191, Note_on_c, 2, 82, 0
8, 112191, Note_on_c, 2, 79, 0
8, 112200, Note_on_c, 2, 82, 88
8, 112200, Note_on_c, 2, 79, 88
8, 112311, Note_on_c, 2, 82, 0
8, 112311, Note_on_c, 2, 79, 0
8, 112320, Note_on_c, 2, 79, 88
8, 112320, Note_on_c, 2, 82, 88
8, 112551, Note_on_c, 2, 79, 0
8, 112551, Note_on_c, 2, 82, 0
8, 112560, Note_on_c, 2, 76, 88
8, 112560, Note_on_c, 2, 79, 88
8, 112671, Note_on_c, 2, 76, 0
8, 112671, Note_on_c, 2, 79, 0
8, 112680, Note_on_c, 2, 76, 88
8, 112680, Note_on_c, 2, 79, 88
8, 112911, Note_on_c, 2, 76, 0
8, 112911, Note_on_c, 2, 79, 0
8, 112920, Note_on_c, 2, 79, 88
8, 112920, Note_on_c, 2, 76, 88
8, 113031, Note_on_c, 2, 79, 0
8, 113031, Note_on_c, 2, 76, 0
8, 113040, Note_on_c, 2, 77, 88
8, 113040, Note_on_c, 2, 81, 88
8, 113279, Note_on_c, 2, 77, 0
8, 113279, Note_on_c, 2, 81, 0
8, 113760, Control_c, 2, 11, 117
8, 114000, Note_on_c, 2, 81, 76
8, 114000, Control_c, 2, 11, 119
8, 114000, Note_on_c, 2, 77, 76
8, 114030, Control_c, 2, 11, 121
8, 114060, Control_c, 2, 11, 123
8, 114090, Control_c, 2, 11, 127
8, 114119, Note_on_c, 2, 81, 0
8, 114119, Note_on_c, 2, 77, 0
8, 114120, Note_on_c, 2, 82, 76
8, 114120, Note_on_c, 2, 79, 76
8, 114351, Note_on_c, 2, 82, 0
8, 114351, Note_on_c, 2, 79, 0
8, 114360, Note_on_c, 2, 82, 76
8, 114360, Note_on_c, 2, 79, 76
8, 114471, Note_on_c, 2, 82, 0
8, 114471, Note_on_c, 2, 79, 0
8, 114480, Note_on_c, 2, 77, 76
8, 114480, Note_on_c, 2, 81, 76
8, 114719, Note_on_c, 2, 77, 0
8, 114719, Note_on_c, 2, 81, 0
8, 115050, Control_c, 2, 11, 94
8, 115080, Control_c, 2, 11, 96
8, 115080, Note_on_c, 2, 74, 76
8, 115110, Control_c, 2, 11, 98
8, 115140, Control_c, 2, 11, 100
8, 115170, Control_c, 2, 11, 102
8, 115199, Note_on_c, 2, 74, 0
8, 115200, Note_on_c, 2, 72, 76
8, 115200, Control_c, 2, 11, 104
8, 115230, Control_c, 2, 11, 105
8, 115260, Control_c, 2, 11, 107
8, 115290, Control_c, 2, 11, 109
8, 115319, Note_on_c, 2, 72, 0
8, 115320, Note_on_c, 2, 76, 76
8, 115320, Control_c, 2, 11, 111
8, 115350, Control_c, 2, 11, 113
8, 115380, Control_c, 2, 11, 115
8, 115410, Control_c, 2, 11, 117
8, 115439, Note_on_c, 2, 76, 0
8, 115440, Note_on_c, 2, 77, 76
8, 115440, Control_c, 2, 11, 119
8, 115440, Note_on_c, 2, 69, 76
8, 115470, Control_c, 2, 11, 121
8, 115500, Control_c, 2, 11, 123
8, 115530, Control_c, 2, 11, 127
8, 115551, Note_on_c, 2, 77, 0
8, 115551, Note_on_c, 2, 69, 0
8, 115560, Note_on_c, 2, 79, 76
8, 115560, Note_on_c, 2, 82, 76
8, 115791, Note_on_c, 2, 79, 0
8, 115791, Note_on_c, 2, 82, 0
8, 115800, Note_on_c, 2, 79, 76
8, 115800, Note_on_c, 2, 84, 76
8, 115889, Note_on_c, 2, 79, 0
8, 115889, Note_on_c, 2, 84, 0
8, 115920, Note_on_c, 2, 81, 84
8, 115920, Note_on_c, 2, 77, 84
8, 116279, Note_on_c, 2, 81, 0
8, 116279, Note_on_c, 2, 77, 0
8, 116280, Note_on_c, 2, 72, 84
8, 116280, Note_on_c, 2, 77, 84
8, 116399, Note_on_c, 2, 72, 0
8, 116399, Note_on_c, 2, 77, 0
8, 116520, Note_on_c, 2, 84, 84
8, 116520, Note_on_c, 2, 81, 84
8, 116609, Note_on_c, 2, 84, 0
8, 116609, Note_on_c, 2, 81, 0
8, 116640, Note_on_c, 2, 79, 84
8, 116640, Note_on_c, 2, 82, 84
8, 116999, Note_on_c, 2, 79, 0
8, 116999, Note_on_c, 2, 82, 0
8, 117000, Note_on_c, 2, 79, 84
8, 117000, Note_on_c, 2, 74, 84
8, 117119, Note_on_c, 2, 79, 0
8, 117119, Note_on_c, 2, 74, 0
8, 117240, Note_on_c, 2, 82, 84
8, 117240, Note_on_c, 2, 86, 84
8, 117329, Note_on_c, 2, 82, 0
8, 117329, Note_on_c, 2, 86, 0
8, 117360, Note_on_c, 2, 77, 84
8, 117360, Note_on_c, 2, 81, 84
8, 117479, Note_on_c, 2, 77, 0
8, 117479, Note_on_c, 2, 81, 0
8, 122752, Control_c, 2, 11, 86
8, 122760, Note_on_c, 2, 79, 76
8, 122811, Control_c, 2, 11, 87
8, 122870, Control_c, 2, 11, 88
8, 122929, Control_c, 2, 11, 89
8, 122987, Control_c, 2, 11, 90
8, 122999, Note_on_c, 2, 79, 0
8, 123046, Control_c, 2, 11, 91
8, 123105, Control_c, 2, 11, 92
8, 123120, Note_on_c, 2, 79, 76
8, 123163, Control_c, 2, 11, 93
8, 123222, Control_c, 2, 11, 94
8, 123281, Control_c, 2, 11, 95
8, 123340, Control_c, 2, 11, 96
8, 123359, Note_on_c, 2, 79, 0
8, 123398, Control_c, 2, 11, 97
8, 123457, Control_c, 2, 11, 98
8, 123480, Note_on_c, 2, 79, 76
8, 123516, Control_c, 2, 11, 99
8, 123574, Control_c, 2, 11, 100
8, 123633, Control_c, 2, 11, 101
8, 123692, Control_c, 2, 11, 102
8, 123719, Note_on_c, 2, 79, 0
8, 123751, Control_c, 2, 11, 103
8, 123809, Control_c, 2, 11, 104
8, 123840, Note_on_c, 2, 79, 76
8, 123868, Control_c, 2, 11, 105
8, 123927, Control_c, 2, 11, 106
8, 123986, Control_c, 2, 11, 107
8, 124044, Control_c, 2, 11, 108
8, 124079, Note_on_c, 2, 79, 0
8, 124103, Control_c, 2, 11, 109
8, 124162, Control_c, 2, 11, 110
8, 124200, Note_on_c, 2, 79, 76
8, 124220, Control_c, 2, 11, 111
8, 124279, Control_c, 2, 11, 112
8, 124338, Control_c, 2, 11, 113
8, 124397, Control_c, 2, 11, 114
8, 124439, Note_on_c, 2, 79, 0
8, 124455, Control_c, 2, 11, 115
8, 124514, Control_c, 2, 11, 116
8, 124560, Note_on_c, 2, 79, 76
8, 124573, Control_c, 2, 11, 117
8, 124631, Control_c, 2, 11, 118
8, 124690, Control_c, 2, 11, 119
8, 124749, Control_c, 2, 11, 120
8, 124799, Note_on_c, 2, 79, 0
8, 124808, Control_c, 2, 11, 121
8, 124866, Control_c, 2, 11, 122
8, 124920, Note_on_c, 2, 79, 76
8, 124925, Control_c, 2, 11, 123
8, 124984, Control_c, 2, 11, 124
8, 125039, Note_on_c, 2, 79, 0
8, 125043, Control_c, 2, 11, 125
8, 125101, Control_c, 2, 11, 127
8, 125160, Note_on_c, 2, 82, 76
8, 125160, Note_on_c, 2, 79, 76
8, 125871, Note_on_c, 2, 82, 0
8, 125871, Note_on_c, 2, 79, 0
8, 125880, Note_on_c, 2, 79, 76
8, 125880, Note_on_c, 2, 82, 76
8, 126231, Note_on_c, 2, 79, 0
8, 126231, Note_on_c, 2, 82, 0
8, 126240, Note_on_c, 2, 79, 76
8, 126240, Note_on_c, 2, 82, 76
8, 126591, Note_on_c, 2, 79, 0
8, 126591, Note_on_c, 2, 82, 0
8, 126600, Note_on_c, 2, 79, 76
8, 126600, Note_on_c, 2, 82, 76
8, 126711, Note_on_c, 2, 79, 0
8, 126711, Note_on_c, 2, 82, 0
8, 126720, Note_on_c, 2, 77, 84
8, 126720, Note_on_c, 2, 81, 84
8, 126839, Note_on_c, 2, 77, 0
8, 126839, Note_on_c, 2, 81, 0
8, 130920, Control_c, 2, 11, 64
8, 131040, Note_on_c, 2, 78, 84
8, 131040, Control_c, 2, 11, 64
8, 131120, Control_c, 2, 11, 65
8, 131200, Control_c, 2, 11, 66
8, 131280, Control_c, 2, 11, 67
8, 131360, Control_c, 2, 11, 68
8, 131440, Control_c, 2, 11, 69
8, 131520, Control_c, 2, 11, 70
8, 131600, Control_c, 2, 11, 71
8, 131680, Control_c, 2, 11, 72
8, 131751, Note_on_c, 2, 78, 0
8, 131760, Note_on_c, 2, 79, 84
8, 131760, Control_c, 2, 11, 73
8, 131840, Control_c, 2, 11, 74
8, 131920, Control_c, 2, 11, 75
8, 131999, Note_on_c, 2, 79, 0
8, 132000, Control_c, 2, 11, 76
8, 132080, Control_c, 2, 11, 77
8, 132160, Control_c, 2, 11, 78
8, 132240, Control_c, 2, 11, 79
8, 132320, Control_c, 2, 11, 80
8, 132400, Control_c, 2, 11, 81
8, 132480, Control_c, 2, 11, 82
8, 132480, Note_on_c, 2, 76, 84
8, 132560, Control_c, 2, 11, 83
8, 132640, Control_c, 2, 11, 84
8, 132720, Control_c, 2, 11, 85
8, 132800, Control_c, 2, 11, 86
8, 132880, Control_c, 2, 11, 87
8, 132960, Control_c, 2, 11, 88
8, 133040, Control_c, 2, 11, 89
8, 133120, Control_c, 2, 11, 90
8, 133191, Note_on_c, 2, 76, 0
8, 133200, Control_c, 2, 11, 91
8, 133200, Note_on_c, 2, 77, 84
8, 133280, Control_c, 2, 11, 92
8, 133360, Control_c, 2, 11, 93
8, 133439, Note_on_c, 2, 77, 0
8, 133440, Control_c, 2, 11, 94
8, 133520, Control_c, 2, 11, 95
8, 133600, Control_c, 2, 11, 96
8, 133680, Control_c, 2, 11, 97
8, 133760, Control_c, 2, 11, 98
8, 133840, Control_c, 2, 11, 99
8, 133920, Control_c, 2, 11, 100
8, 134000, Control_c, 2, 11, 101
8, 134040, Note_on_c, 2, 78, 84
8, 134080, Control_c, 2, 11, 102
8, 134151, Note_on_c, 2, 78, 0
8, 134160, Note_on_c, 2, 78, 84
8, 134160, Control_c, 2, 11, 103
8, 134240, Control_c, 2, 11, 104
8, 134271, Note_on_c, 2, 78, 0
8, 134280, Note_on_c, 2, 78, 84
8, 134320, Control_c, 2, 11, 105
8, 134391, Note_on_c, 2, 78, 0
8, 134400, Note_on_c, 2, 78, 84
8, 134400, Control_c, 2, 11, 106
8, 134480, Control_c, 2, 11, 107
8, 134511, Note_on_c, 2, 78, 0
8, 134520, Note_on_c, 2, 78, 84
8, 134560, Control_c, 2, 11, 108
8, 134631, Note_on_c, 2, 78, 0
8, 134640, Note_on_c, 2, 79, 84
8, 134640, Control_c, 2, 11, 109
8, 134720, Control_c, 2, 11, 110
8, 134800, Control_c, 2, 11, 111
8, 134879, Note_on_c, 2, 79, 0
8, 134880, Control_c, 2, 11, 112
8, 134960, Control_c, 2, 11, 113
8, 135040, Control_c, 2, 11, 114
8, 135120, Control_c, 2, 11, 115
8, 135200, Control_c, 2, 11, 116
8, 135280, Control_c, 2, 11, 117
8, 135360, Control_c, 2, 11, 118
8, 135440, Control_c, 2, 11, 119
8, 135480, Note_on_c, 2, 79, 84
8, 135480, Note_on_c, 2, 76, 84
8, 135520, Control_c, 2, 11, 120
8, 135591, Note_on_c, 2, 79, 0
8, 135591, Note_on_c, 2, 76, 0
8, 135600, Note_on_c, 2, 76, 84
8, 135600, Control_c, 2, 11, 121
8, 135600, Note_on_c, 2, 79, 84
8, 135680, Control_c, 2, 11, 122
8, 135711, Note_on_c, 2, 76, 0
8, 135711, Note_on_c, 2, 79, 0
8, 135720, Note_on_c, 2, 76, 84
8, 135720, Note_on_c, 2, 79, 84
8, 135760, Control_c, 2, 11, 123
8, 135831, Note_on_c, 2, 76, 0
8, 135831, Note_on_c, 2, 79, 0
8, 135840, Note_on_c, 2, 79, 84
8, 135840, Note_on_c, 2, 76, 84
8, 135840, Control_c, 2, 11, 124
8, 135920, Control_c, 2, 11, 125
8, 135951, Note_on_c, 2, 79, 0
8, 135951, Note_on_c, 2, 76, 0
8, 135960, Note_on_c, 2, 76, 84
8, 135960, Note_on_c, 2, 79, 84
8, 136000, Control_c, 2, 11, 127
8, 136071, Note_on_c, 2, 76, 0
8, 136071, Note_on_c, 2, 79, 0
8, 136080, Note_on_c, 2, 77, 84
8, 136080, Note_on_c, 2, 81, 84
8, 137391, Note_on_c, 2, 77, 0
8, 137391, Note_on_c, 2, 81, 0
8, 137400, Note_on_c, 2, 81, 84
8, 137400, Note_on_c, 2, 77, 84
8, 137511, Note_on_c, 2, 81, 0
8, 137511, Note_on_c, 2, 77, 0
8, 137520, Note_on_c, 2, 81, 84
8, 137520, Note_on_c, 2, 77, 84
8, 138831, Note_on_c, 2, 81, 0
8, 138831, Note_on_c, 2, 77, 0
8, 138840, Note_on_c, 2, 81, 84
8, 138840, Note_on_c, 2, 77, 84
8, 138951, Note_on_c, 2, 81, 0
8, 138951, Note_on_c, 2, 77, 0
8, 138960, Note_on_c, 2, 71, 84
8, 138960, Note_on_c, 2, 83, 84
8, 139680, Control_c, 2, 11, 127
8, 139700, Control_c, 2, 11, 125
8, 139720, Control_c, 2, 11, 123
8, 139740, Control_c, 2, 11, 120
8, 139760, Control_c, 2, 11, 118
8, 139780, Control_c, 2, 11, 116
8, 139800, Control_c, 2, 11, 114
8, 139820, Control_c, 2, 11, 112
8, 139840, Control_c, 2, 11, 109
8, 139860, Control_c, 2, 11, 107
8, 139880, Control_c, 2, 11, 105
8, 139900, Control_c, 2, 11, 103
8, 139920, Control_c, 2, 11, 101
8, 139940, Control_c, 2, 11, 98
8, 139960, Control_c, 2, 11, 96
8, 139980, Control_c, 2, 11, 94
8, 140000, Control_c, 2, 11, 92
8, 140020, Control_c, 2, 11, 90
8, 140040, Control_c, 2, 11, 88
8, 140060, Control_c, 2, 11, 85
8, 140080, Control_c, 2, 11, 83
8, 140100, Control_c, 2, 11, 81
8, 140120, Control_c, 2, 11, 79
8, 140140, Control_c, 2, 11, 77
8, 140160, Control_c, 2, 11, 74
8, 140180, Control_c, 2, 11, 72
8, 140200, Control_c, 2, 11, 70
8, 140220, Control_c, 2, 11, 68
8, 140240, Control_c, 2, 11, 66
8, 140260, Control_c, 2, 11, 63
8, 140271, Note_on_c, 2, 71, 0
8, 140271, Note_on_c, 2, 83, 0
8, 140280, Note_on_c, 2, 83, 84
8, 140280, Control_c, 2, 11, 61
8, 140280, Note_on_c, 2, 71, 84
8, 140300, Control_c, 2, 11, 59
8, 140320, Control_c, 2, 11, 57
8, 140340, Control_c, 2, 11, 55
8, 140360, Control_c, 2, 11, 52
8, 140380, Control_c, 2, 11, 48
8, 140399, Note_on_c, 2, 83, 0
8, 140399, Note_on_c, 2, 71, 0
8, 142560, Control_c, 2, 11, 127
8, 143160, Note_on_c, 2, 79, 56
8, 143215, Note_on_c, 2, 79, 0
8, 143220, Note_on_c, 2, 79, 56
8, 143275, Note_on_c, 2, 79, 0
8, 143280, Note_on_c, 2, 79, 56
8, 143399, Note_on_c, 2, 79, 0
8, 143520, Note_on_c, 2, 79, 58
8, 143575, Note_on_c, 2, 79, 0
8, 143580, Note_on_c, 2, 79, 59
8, 143635, Note_on_c, 2, 79, 0
8, 143640, Note_on_c, 2, 79, 59
8, 143759, Note_on_c, 2, 79, 0
8, 143880, Note_on_c, 2, 79, 61
8, 143935, Note_on_c, 2, 79, 0
8, 143940, Note_on_c, 2, 79, 61
8, 143995, Note_on_c, 2, 79, 0
8, 144000, Note_on_c, 2, 79, 61
8, 144119, Note_on_c, 2, 79, 0
8, 144240, Note_on_c, 2, 79, 63
8, 144295, Note_on_c, 2, 79, 0
8, 144300, Note_on_c, 2, 79, 64
8, 144355, Note_on_c, 2, 79, 0
8, 144360, Note_on_c, 2, 79, 64
8, 144479, Note_on_c, 2, 79, 0
8, 144600, Note_on_c, 2, 79, 66
8, 144600, Note_on_c, 2, 76, 66
8, 144655, Note_on_c, 2, 79, 0
8, 144655, Note_on_c, 2, 76, 0
8, 144660, Note_on_c, 2, 76, 66
8, 144660, Note_on_c, 2, 79, 66
8, 144715, Note_on_c, 2, 76, 0
8, 144715, Note_on_c, 2, 79, 0
8, 144720, Note_on_c, 2, 76, 66
8, 144720, Note_on_c, 2, 79, 66
8, 144839, Note_on_c, 2, 76, 0
8, 144839, Note_on_c, 2, 79, 0
8, 144960, Note_on_c, 2, 76, 68
8, 144960, Note_on_c, 2, 79, 68
8, 145015, Note_on_c, 2, 76, 0
8, 145015, Note_on_c, 2, 79, 0
8, 145020, Note_on_c, 2, 79, 68
8, 145020, Note_on_c, 2, 76, 68
8, 145075, Note_on_c, 2, 79, 0
8, 145075, Note_on_c, 2, 76, 0
8, 145080, Note_on_c, 2, 76, 69
8, 145080, Note_on_c, 2, 79, 69
8, 145199, Note_on_c, 2, 76, 0
8, 145199, Note_on_c, 2, 79, 0
8, 145320, Note_on_c, 2, 76, 71
8, 145320, Note_on_c, 2, 79, 71
8, 145375, Note_on_c, 2, 76, 0
8, 145375, Note_on_c, 2, 79, 0
8, 145380, Note_on_c, 2, 79, 71
8, 145380, Note_on_c, 2, 76, 71
8, 145435, Note_on_c, 2, 79, 0
8, 145435, Note_on_c, 2, 76, 0
8, 145440, Note_on_c, 2, 76, 71
8, 145440, Note_on_c, 2, 79, 71
8, 145559, Note_on_c, 2, 76, 0
8, 145559, Note_on_c, 2, 79, 0
8, 145680, Note_on_c, 2, 79, 73
8, 145680, Note_on_c, 2, 76, 73
8, 145735, Note_on_c, 2, 79, 0
8, 145735, Note_on_c, 2, 76, 0
8, 145740, Note_on_c, 2, 76, 73
8, 145740, Note_on_c, 2, 79, 73
8, 145795, Note_on_c, 2, 76, 0
8, 145795, Note_on_c, 2, 79, 0
8, 145800, Note_on_c, 2, 79, 74
8, 145800, Note_on_c, 2, 76, 74
8, 145919, Note_on_c, 2, 79, 0
8, 145919, Note_on_c, 2, 76, 0
8, 146040, Note_on_c, 2, 79, 76
8, 146040, Note_on_c, 2, 82, 76
8, 146751, Note_on_c, 2, 79, 0
8, 146751, Note_on_c, 2, 82, 0
8, 146760, Note_on_c, 2, 79, 76
8, 146760, Note_on_c, 2, 82, 76
8, 147111, Note_on_c, 2, 79, 0
8, 147111, Note_on_c, 2, 82, 0
8, 147120, Note_on_c, 2, 82, 76
8, 147120, Note_on_c, 2, 79, 76
8, 147471, Note_on_c, 2, 82, 0
8, 147471, Note_on_c, 2, 79, 0
8, 147480, Note_on_c, 2, 79, 76
8, 147480, Note_on_c, 2, 82, 76
8, 147591, Note_on_c, 2, 79, 0
8, 147591, Note_on_c, 2, 82, 0
8, 147600, Note_on_c, 2, 81, 84
8, 147600, Note_on_c, 2, 77, 84
8, 147839, Note_on_c, 2, 81, 0
8, 147839, Note_on_c, 2, 77, 0
8, 153189, Control_c, 2, 11, 72
8, 153240, Note_on_c, 2, 74, 84
8, 153257, Control_c, 2, 11, 73
8, 153326, Control_c, 2, 11, 74
8, 153359, Note_on_c, 2, 74, 0
8, 153360, Note_on_c, 2, 76, 84
8, 153394, Control_c, 2, 11, 75
8, 153463, Control_c, 2, 11, 76
8, 153531, Control_c, 2, 11, 77
8, 153599, Note_on_c, 2, 76, 0
8, 153600, Note_on_c, 2, 79, 84
8, 153600, Control_c, 2, 11, 78
8, 153669, Control_c, 2, 11, 79
8, 153719, Note_on_c, 2, 79, 0
8, 153720, Note_on_c, 2, 82, 84
8, 153737, Control_c, 2, 11, 80
8, 153806, Control_c, 2, 11, 81
8, 153874, Control_c, 2, 11, 82
8, 153943, Control_c, 2, 11, 83
8, 153959, Note_on_c, 2, 82, 0
8, 153960, Note_on_c, 2, 79, 84
8, 154011, Control_c, 2, 11, 84
8, 154079, Note_on_c, 2, 79, 0
8, 154080, Note_on_c, 2, 81, 84
8, 154080, Control_c, 2, 11, 85
8, 154149, Control_c, 2, 11, 86
8, 154217, Control_c, 2, 11, 87
8, 154286, Control_c, 2, 11, 88
8, 154319, Note_on_c, 2, 81, 0
8, 156411, Control_c, 2, 11, 119
8, 156480, Note_on_c, 2, 76, 84
8, 156480, Control_c, 2, 11, 120
8, 156480, Note_on_c, 2, 79, 84
8, 156549, Control_c, 2, 11, 121
8, 156599, Note_on_c, 2, 76, 0
8, 156599, Note_on_c, 2, 79, 0
8, 156600, Note_on_c, 2, 82, 84
8, 156600, Note_on_c, 2, 79, 84
8, 156617, Control_c, 2, 11, 122
8, 156686, Control_c, 2, 11, 123
8, 156754, Control_c, 2, 11, 124
8, 156823, Control_c, 2, 11, 125
8, 156831, Note_on_c, 2, 82, 0
8, 156831, Note_on_c, 2, 79, 0
8, 156840, Note_on_c, 2, 82, 84
8, 156840, Note_on_c, 2, 79, 84
8, 156891, Control_c, 2, 11, 127
8, 156951, Note_on_c, 2, 82, 0
8, 156951, Note_on_c, 2, 79, 0
8, 156960, Note_on_c, 2, 77, 84
8, 156960, Note_on_c, 2, 81, 84
8, 158271, Note_on_c, 2, 77, 0
8, 158271, Note_on_c, 2, 81, 0
8, 158280, Note_on_c, 2, 77, 84
8, 158280, Note_on_c, 2, 81, 84
8, 158391, Note_on_c, 2, 77, 0
8, 158391, Note_on_c, 2, 81, 0
8, 158400, Note_on_c, 2, 77, 84
8, 158400, Note_on_c, 2, 81, 84
8, 159711, Note_on_c, 2, 77, 0
8, 159711, Note_on_c, 2, 81, 0
8, 159720, Note_on_c, 2, 77, 84
8, 159720, Note_on_c, 2, 86, 84
8, 159831, Note_on_c, 2, 77, 0
8, 159831, Note_on_c, 2, 86, 0
8, 159840, Note_on_c, 2, 83, 84
8, 159840, Note_on_c, 2, 86, 84
8, 161151, Note_on_c, 2, 83, 0
8, 161151, Note_on_c, 2, 86, 0
8, 161160, Note_on_c, 2, 83, 84
8, 161160, Note_on_c, 2, 86, 84
8, 161271, Note_on_c, 2, 83, 0
8, 161271, Note_on_c, 2, 86, 0
8, 161280, Note_on_c, 2, 84, 84
8, 161280, Note_on_c, 2, 82, 84
8, 162591, Note_on_c, 2, 84, 0
8, 162591, Note_on_c, 2, 82, 0
8, 162600, Note_on_c, 2, 84, 84
8, 162600, Note_on_c, 2, 82, 84
8, 162689, Note_on_c, 2, 84, 0
8, 162689, Note_on_c, 2, 82, 0
8, 162720, Note_on_c, 2, 84, 84
8, 162720, Note_on_c, 2, 81, 84
8, 163431, Note_on_c, 2, 84, 0
8, 163431, Note_on_c, 2, 81, 0
8, 163440, Note_on_c, 2, 81, 84
8, 163440, Note_on_c, 2, 84, 84
8, 164151, Note_on_c, 2, 81, 0
8, 164151, Note_on_c, 2, 84, 0
8, 164160, Note_on_c, 2, 82, 84
8, 164160, Note_on_c, 2, 77, 84
8, 164511, Note_on_c, 2, 82, 0
8, 164511, Note_on_c, 2, 77, 0
8, 164520, Note_on_c, 2, 74, 84
8, 164520, Note_on_c, 2, 77, 84
8, 164871, Note_on_c, 2, 74, 0
8, 164871, Note_on_c, 2, 77, 0
8, 164880, Note_on_c, 2, 74, 84
8, 164880, Note_on_c, 2, 77, 84
8, 165231, Note_on_c, 2, 74, 0
8, 165231, Note_on_c, 2, 77, 0
8, 165240, Note_on_c, 2, 77, 84
8, 165240, Note_on_c, 2, 74, 84
8, 165591, Note_on_c, 2, 77, 0
8, 165591, Note_on_c, 2, 74, 0
8, 165600, Note_on_c, 2, 81, 84
8, 165600, Control_c, 2, 11, 127
8, 165630, Control_c, 2, 11, 126
8, 165660, Control_c, 2, 11, 124
8, 165690, Control_c, 2, 11, 123
8, 165720, Control_c, 2, 11, 122
8, 165750, Control_c, 2, 11, 120
8, 165780, Control_c, 2, 11, 119
8, 165810, Control_c, 2, 11, 118
8, 165840, Control_c, 2, 11, 117
8, 165870, Control_c, 2, 11, 115
8, 165900, Control_c, 2, 11, 114
8, 165930, Control_c, 2, 11, 113
8, 165959, Note_on_c, 2, 81, 0
8, 165960, Note_on_c, 2, 79, 84
8, 165960, Control_c, 2, 11, 111
8, 165990, Control_c, 2, 11, 110
8, 166020, Control_c, 2, 11, 109
8, 166050, Control_c, 2, 11, 107
8, 166080, Control_c, 2, 11, 106
8, 166110, Control_c, 2, 11, 105
8, 166140, Control_c, 2, 11, 103
8, 166170, Control_c, 2, 11, 102
8, 166200, Control_c, 2, 11, 101
8, 166230, Control_c, 2, 11, 99
8, 166260, Control_c, 2, 11, 98
8, 166290, Control_c, 2, 11, 97
8, 166319, Note_on_c, 2, 79, 0
8, 166320, Control_c, 2, 11, 96
8, 166320, Note_on_c, 2, 77, 84
8, 166350, Control_c, 2, 11, 94
8, 166380, Control_c, 2, 11, 93
8, 166410, Control_c, 2, 11, 92
8, 166440, Control_c, 2, 11, 90
8, 166470, Control_c, 2, 11, 89
8, 166500, Control_c, 2, 11, 88
8, 166530, Control_c, 2, 11, 86
8, 166560, Control_c, 2, 11, 85
8, 166590, Control_c, 2, 11, 84
8, 166620, Control_c, 2, 11, 82
8, 166650, Control_c, 2, 11, 81
8, 166679, Note_on_c, 2, 77, 0
8, 166680, Control_c, 2, 11, 80
8, 166680, Note_on_c, 2, 76, 84
8, 166710, Control_c, 2, 11, 78
8, 166740, Control_c, 2, 11, 77
8, 166770, Control_c, 2, 11, 76
8, 166800, Control_c, 2, 11, 75
8, 166830, Control_c, 2, 11, 73
8, 166860, Control_c, 2, 11, 72
8, 166890, Control_c, 2, 11, 71
8, 166920, Control_c, 2, 11, 69
8, 166950, Control_c, 2, 11, 68
8, 166980, Control_c, 2, 11, 67
8, 167010, Control_c, 2, 11, 64
8, 167039, Note_on_c, 2, 76, 0
8, 167040, Note_on_c, 2, 74, 84
8, 167399, Note_on_c, 2, 74, 0
8, 167400, Note_on_c, 2, 72, 80
8, 168119, Note_on_c, 2, 72, 0
8, 168120, Note_on_c, 2, 82, 80
8, 168839, Note_on_c, 2, 82, 0
8, 168840, Note_on_c, 2, 79, 80
8, 169559, Note_on_c, 2, 79, 0
8, 169560, Note_on_c, 2, 76, 80
8, 169911, Note_on_c, 2, 76, 0
8, 169920, Note_on_c, 2, 77, 76
8, 170039, Note_on_c, 2, 77, 0
8, 175560, Control_c, 2, 11, 127
8, 175680, Note_on_c, 2, 77, 76
8, 175680, Note_on_c, 2, 69, 76
8, 176031, Note_on_c, 2, 77, 0
8, 176031, Note_on_c, 2, 69, 0
8, 176040, Note_on_c, 2, 70, 76
8, 176040, Note_on_c, 2, 77, 76
8, 176129, Note_on_c, 2, 70, 0
8, 176129, Note_on_c, 2, 77, 0
8, 176280, Note_on_c, 2, 77, 76
8, 176280, Note_on_c, 2, 72, 76
8, 176369, Note_on_c, 2, 77, 0
8, 176369, Note_on_c, 2, 72, 0
8, 176400, Note_on_c, 2, 77, 76
8, 176400, Note_on_c, 2, 74, 76
8, 176999, Note_on_c, 2, 77, 0
8, 176999, Note_on_c, 2, 74, 0
8, 177000, Note_on_c, 2, 79, 48
8, 177000, Note_on_c, 2, 74, 48
8, 177111, Note_on_c, 2, 79, 0
8, 177111, Note_on_c, 2, 74, 0
8, 177120, Note_on_c, 2, 79, 48
8, 177120, Note_on_c, 2, 76, 48
8, 177599, Note_on_c, 2, 79, 0
8, 177600, Note_on_c, 2, 81, 48
8, 177689, Note_on_c, 2, 81, 0
8, 177700, Note_on_c, 2, 84, 48
8, 177719, Note_on_c, 2, 84, 0
8, 177720, Note_on_c, 2, 82, 48
8, 177764, Note_on_c, 2, 82, 0
8, 177780, Note_on_c, 2, 81, 48
8, 177824, Note_on_c, 2, 81, 0
8, 177831, Note_on_c, 2, 76, 0
8, 177840, Note_on_c, 2, 81, 48
8, 177840, Note_on_c, 2, 77, 48
8, 178079, Note_on_c, 2, 81, 0
8, 178079, Note_on_c, 2, 77, 0
8, 179880, Note_on_c, 2, 77, 52
8, 179880, Note_on_c, 2, 81, 52
8, 179999, Note_on_c, 2, 77, 0
8, 179999, Note_on_c, 2, 81, 0
8, 180000, Note_on_c, 2, 76, 52
8, 180000, Note_on_c, 2, 82, 52
8, 180591, Note_on_c, 2, 76, 0
8, 180591, Note_on_c, 2, 82, 0
8, 180600, Note_on_c, 2, 76, 52
8, 180600, Note_on_c, 2, 82, 52
8, 180711, Note_on_c, 2, 76, 0
8, 180711, Note_on_c, 2, 82, 0
8, 180720, Note_on_c, 2, 81, 52
8, 180720, Note_on_c, 2, 77, 52
8, 180959, Note_on_c, 2, 81, 0
8, 180959, Note_on_c, 2, 77, 0
8, 181200, Control_c, 2, 11, 80
8, 181320, Note_on_c, 2, 77, 76
8, 181320, Note_on_c, 2, 81, 76
8, 181439, Note_on_c, 2, 77, 0
8, 181439, Note_on_c, 2, 81, 0
8, 181440, Control_c, 2, 11, 80
8, 181440, Note_on_c, 2, 82, 76
8, 181440, Note_on_c, 2, 76, 76
8, 181470, Control_c, 2, 11, 82
8, 181500, Control_c, 2, 11, 84
8, 181530, Control_c, 2, 11, 86
8, 181560, Control_c, 2, 11, 88
8, 181590, Control_c, 2, 11, 90
8, 181620, Control_c, 2, 11, 92
8, 181650, Control_c, 2, 11, 94
8, 181680, Control_c, 2, 11, 96
8, 181710, Control_c, 2, 11, 98
8, 181740, Control_c, 2, 11, 100
8, 181770, Control_c, 2, 11, 102
8, 181800, Control_c, 2, 11, 104
8, 181830, Control_c, 2, 11, 105
8, 181860, Control_c, 2, 11, 107
8, 181890, Control_c, 2, 11, 109
8, 181920, Control_c, 2, 11, 111
8, 181950, Control_c, 2, 11, 113
8, 181980, Control_c, 2, 11, 115
8, 182010, Control_c, 2, 11, 117
8, 182031, Note_on_c, 2, 82, 0
8, 182031, Note_on_c, 2, 76, 0
8, 182040, Note_on_c, 2, 82, 76
8, 182040, Note_on_c, 2, 76, 76
8, 182040, Control_c, 2, 11, 119
8, 182070, Control_c, 2, 11, 121
8, 182100, Control_c, 2, 11, 123
8, 182130, Control_c, 2, 11, 125
8, 182151, Note_on_c, 2, 82, 0
8, 182151, Note_on_c, 2, 76, 0
8, 182158, Control_c, 2, 11, 127
8, 182160, Note_on_c, 2, 82, 76
8, 182160, Note_on_c, 2, 79, 76
8, 183599, Note_on_c, 2, 82, 0
8, 183599, Note_on_c, 2, 79, 0
8, 183600, Note_on_c, 2, 79, 76
8, 183600, Note_on_c, 2, 82, 76
8, 183631, Control_c, 2, 11, 126
8, 183661, Control_c, 2, 11, 125
8, 183692, Control_c, 2, 11, 124
8, 183723, Control_c, 2, 11, 123
8, 183753, Control_c, 2, 11, 122
8, 183784, Control_c, 2, 11, 121
8, 183814, Control_c, 2, 11, 120
8, 183845, Control_c, 2, 11, 119
8, 183876, Control_c, 2, 11, 118
8, 183906, Control_c, 2, 11, 117
8, 183937, Control_c, 2, 11, 116
8, 183968, Control_c, 2, 11, 115
8, 183998, Control_c, 2, 11, 114
8, 184029, Control_c, 2, 11, 113
8, 184060, Control_c, 2, 11, 112
8, 184090, Control_c, 2, 11, 111
8, 184121, Control_c, 2, 11, 110
8, 184151, Control_c, 2, 11, 109
8, 184182, Control_c, 2, 11, 108
8, 184213, Control_c, 2, 11, 107
8, 184243, Control_c, 2, 11, 106
8, 184274, Control_c, 2, 11, 105
8, 184305, Control_c, 2, 11, 104
8, 184335, Control_c, 2, 11, 103
8, 184366, Control_c, 2, 11, 102
8, 184397, Control_c, 2, 11, 101
8, 184427, Control_c, 2, 11, 100
8, 184458, Control_c, 2, 11, 99
8, 184489, Control_c, 2, 11, 98
8, 184519, Control_c, 2, 11, 97
8, 184550, Control_c, 2, 11, 96
8, 184580, Control_c, 2, 11, 95
8, 184611, Control_c, 2, 11, 94
8, 184642, Control_c, 2, 11, 93
8, 184672, Control_c, 2, 11, 92
8, 184703, Control_c, 2, 11, 91
8, 184734, Control_c, 2, 11, 90
8, 184764, Control_c, 2, 11, 89
8, 184795, Control_c, 2, 11, 88
8, 184826, Control_c, 2, 11, 87
8, 184856, Control_c, 2, 11, 86
8, 184887, Control_c, 2, 11, 85
8, 184917, Control_c, 2, 11, 84
8, 184948, Control_c, 2, 11, 83
8, 184979, Control_c, 2, 11, 82
8, 185031, Note_on_c, 2, 79, 0
8, 185031, Note_on_c, 2, 82, 0
8, 185038, Control_c, 2, 11, 96
8, 185040, Note_on_c, 2, 81, 68
8, 185040, Note_on_c, 2, 77, 68
8, 185751, Note_on_c, 2, 81, 0
8, 185751, Note_on_c, 2, 77, 0
8, 185758, Control_c, 2, 11, 112
8, 185760, Note_on_c, 2, 81, 60
8, 185760, Note_on_c, 2, 77, 60
8, 186471, Note_on_c, 2, 81, 0
8, 186471, Note_on_c, 2, 77, 0
8, 186478, Control_c, 2, 11, 127
8, 186480, Note_on_c, 2, 77, 44
8, 187919, Note_on_c, 2, 77, 0
8, 187920, Note_on_c, 2, 77, 44
8, 189231, Note_on_c, 2, 77, 0
8, 189240, Note_on_c, 2, 81, 84
8, 189240, Note_on_c, 2, 72, 84
8, 189351, Note_on_c, 2, 81, 0
8, 189351, Note_on_c, 2, 72, 0
8, 189360, Note_on_c, 2, 77, 84
8, 189360, Note_on_c, 2, 69, 84
8, 189599, Note_on_c, 2, 77, 0
8, 189599, Note_on_c, 2, 69, 0
8, 189599, End_track
9, 0, Start_track
9, 0, Title_t, "Clarinet in B-flat "
9, 0, MIDI_port, 0
9, 0, Program_c, 3, 71
9, 0, Control_c, 3, 7, 84
9, 0, Control_c, 3, 11, 127
9, 0, Control_c, 3, 10, 75
9, 0, Note_on_c, 3, 72, 48
9, 351, Note_on_c, 3, 72, 0
9, 360, Note_on_c, 3, 67, 48
9, 579, Note_on_c, 3, 67, 0
9, 600, Note_on_c, 3, 76, 48
9, 689, Note_on_c, 3, 76, 0
9, 720, Note_on_c, 3, 72, 48
9, 1071, Note_on_c, 3, 72, 0
9, 1080, Note_on_c, 3, 67, 48
9, 1299, Note_on_c, 3, 67, 0
9, 1320, Note_on_c, 3, 76, 48
9, 1409, Note_on_c, 3, 76, 0
9, 1440, Note_on_c, 3, 72, 48
9, 1539, Note_on_c, 3, 72, 0
9, 1560, Note_on_c, 3, 67, 48
9, 1659, Note_on_c, 3, 67, 0
9, 1680, Note_on_c, 3, 76, 48
9, 1769, Note_on_c, 3, 76, 0
9, 1800, Note_on_c, 3, 72, 48
9, 1899, Note_on_c, 3, 72, 0
9, 1920, Note_on_c, 3, 67, 48
9, 2019, Note_on_c, 3, 67, 0
9, 2040, Note_on_c, 3, 76, 48
9, 2129, Note_on_c, 3, 76, 0
9, 2160, Note_on_c, 3, 72, 48
9, 2259, Note_on_c, 3, 72, 0
9, 2280, Note_on_c, 3, 67, 48
9, 2379, Note_on_c, 3, 67, 0
9, 2400, Note_on_c, 3, 76, 48
9, 2489, Note_on_c, 3, 76, 0
9, 2520, Note_on_c, 3, 72, 48
9, 2619, Note_on_c, 3, 72, 0
9, 2640, Note_on_c, 3, 67, 48
9, 2739, Note_on_c, 3, 67, 0
9, 2760, Note_on_c, 3, 72, 48
9, 2849, Note_on_c, 3, 72, 0
9, 2880, Note_on_c, 3, 72, 48
9, 3359, Note_on_c, 3, 72, 0
9, 5760, Note_on_c, 3, 69, 48
9, 5760, Note_on_c, 3, 65, 48
9, 7199, Note_on_c, 3, 69, 0
9, 7199, Note_on_c, 3, 65, 0
9, 7200, Note_on_c, 3, 65, 48
9, 7200, Note_on_c, 3, 69, 48
9, 7911, Note_on_c, 3, 65, 0
9, 7911, Note_on_c, 3, 69, 0
9, 7920, Note_on_c, 3, 65, 48
9, 7920, Note_on_c, 3, 70, 48
9, 8511, Note_on_c, 3, 65, 0
9, 8511, Note_on_c, 3, 70, 0
9, 8520, Note_on_c, 3, 70, 48
9, 8520, Note_on_c, 3, 67, 48
9, 8631, Note_on_c, 3, 70, 0
9, 8631, Note_on_c, 3, 67, 0
9, 8640, Note_on_c, 3, 67, 48
9, 8640, Note_on_c, 3, 70, 48
9, 9351, Note_on_c, 3, 67, 0
9, 9351, Note_on_c, 3, 70, 0
9, 9360, Note_on_c, 3, 69, 48
9, 9360, Note_on_c, 3, 65, 48
9, 10079, Note_on_c, 3, 69, 0
9, 10080, Note_on_c, 3, 67, 48
9, 10431, Note_on_c, 3, 65, 0
9, 10431, Note_on_c, 3, 67, 0
9, 10440, Note_on_c, 3, 67, 48
9, 10440, Note_on_c, 3, 64, 48
9, 10678, Control_c, 3, 11, 64
9, 10791, Note_on_c, 3, 67, 0
9, 10791, Note_on_c, 3, 64, 0
9, 10800, Note_on_c, 3, 65, 84
9, 10800, Control_c, 3, 11, 64
9, 10800, Note_on_c, 3, 69, 84
9, 10903, Control_c, 3, 11, 65
9, 11006, Control_c, 3, 11, 66
9, 11109, Control_c, 3, 11, 67
9, 11211, Control_c, 3, 11, 68
9, 11314, Control_c, 3, 11, 69
9, 11417, Control_c, 3, 11, 70
9, 11511, Note_on_c, 3, 65, 0
9, 11511, Note_on_c, 3, 69, 0
9, 11520, Control_c, 3, 11, 71
9, 11520, Note_on_c, 3, 57, 84
9, 11520, Note_on_c, 3, 60, 84
9, 11623, Control_c, 3, 11, 72
9, 11631, Note_on_c, 3, 57, 0
9, 11631, Note_on_c, 3, 60, 0
9, 11640, Note_on_c, 3, 57, 84
9, 11640, Note_on_c, 3, 60, 84
9, 11726, Control_c, 3, 11, 73
9, 11751, Note_on_c, 3, 57, 0
9, 11751, Note_on_c, 3, 60, 0
9, 11760, Note_on_c, 3, 60, 84
9, 11760, Note_on_c, 3, 57, 84
9, 11829, Control_c, 3, 11, 74
9, 11871, Note_on_c, 3, 60, 0
9, 11871, Note_on_c, 3, 57, 0
9, 11880, Note_on_c, 3, 60, 84
9, 11880, Note_on_c, 3, 57, 84
9, 11931, Control_c, 3, 11, 75
9, 11991, Note_on_c, 3, 60, 0
9, 11991, Note_on_c, 3, 57, 0
9, 12000, Note_on_c, 3, 57, 84
9, 12000, Note_on_c, 3, 60, 84
9, 12034, Control_c, 3, 11, 76
9, 12111, Note_on_c, 3, 57, 0
9, 12111, Note_on_c, 3, 60, 0
9, 12120, Note_on_c, 3, 57, 84
9, 12120, Note_on_c, 3, 60, 84
9, 12137, Control_c, 3, 11, 77
9, 12231, Note_on_c, 3, 57, 0
9, 12231, Note_on_c, 3, 60, 0
9, 12240, Control_c, 3, 11, 78
9, 12240, Note_on_c, 3, 60, 84
9, 12240, Note_on_c, 3, 57, 84
9, 12343, Control_c, 3, 11, 79
9, 12351, Note_on_c, 3, 60, 0
9, 12351, Note_on_c, 3, 57, 0
9, 12360, Note_on_c, 3, 60, 84
9, 12360, Note_on_c, 3, 57, 84
9, 12446, Control_c, 3, 11, 80
9, 12471, Note_on_c, 3, 60, 0
9, 12471, Note_on_c, 3, 57, 0
9, 12480, Note_on_c, 3, 57, 84
9, 12480, Note_on_c, 3, 60, 84
9, 12549, Control_c, 3, 11, 81
9, 12591, Note_on_c, 3, 57, 0
9, 12591, Note_on_c, 3, 60, 0
9, 12600, Note_on_c, 3, 60, 84
9, 12600, Note_on_c, 3, 57, 84
9, 12651, Control_c, 3, 11, 82
9, 12711, Note_on_c, 3, 60, 0
9, 12711, Note_on_c, 3, 57, 0
9, 12720, Note_on_c, 3, 60, 84
9, 12720, Note_on_c, 3, 57, 84
9, 12754, Control_c, 3, 11, 83
9, 12831, Note_on_c, 3, 60, 0
9, 12831, Note_on_c, 3, 57, 0
9, 12840, Note_on_c, 3, 57, 84
9, 12840, Note_on_c, 3, 60, 84
9, 12857, Control_c, 3, 11, 84
9, 12951, Note_on_c, 3, 57, 0
9, 12951, Note_on_c, 3, 60, 0
9, 12960, Note_on_c, 3, 60, 84
9, 12960, Control_c, 3, 11, 85
9, 12960, Note_on_c, 3, 57, 84
9, 13063, Control_c, 3, 11, 86
9, 13071, Note_on_c, 3, 60, 0
9, 13071, Note_on_c, 3, 57, 0
9, 13080, Note_on_c, 3, 57, 84
9, 13080, Note_on_c, 3, 60, 84
9, 13166, Control_c, 3, 11, 87
9, 13191, Note_on_c, 3, 57, 0
9, 13191, Note_on_c, 3, 60, 0
9, 13200, Note_on_c, 3, 57, 84
9, 13200, Note_on_c, 3, 60, 84
9, 13269, Control_c, 3, 11, 88
9, 13311, Note_on_c, 3, 57, 0
9, 13311, Note_on_c, 3, 60, 0
9, 13320, Note_on_c, 3, 57, 84
9, 13320, Note_on_c, 3, 60, 84
9, 13371, Control_c, 3, 11, 89
9, 13431, Note_on_c, 3, 57, 0
9, 13431, Note_on_c, 3, 60, 0
9, 13440, Note_on_c, 3, 60, 84
9, 13440, Note_on_c, 3, 57, 84
9, 13474, Control_c, 3, 11, 90
9, 13551, Note_on_c, 3, 60, 0
9, 13551, Note_on_c, 3, 57, 0
9, 13560, Note_on_c, 3, 60, 84
9, 13560, Note_on_c, 3, 57, 84
9, 13577, Control_c, 3, 11, 91
9, 13671, Note_on_c, 3, 60, 0
9, 13671, Note_on_c, 3, 57, 0
9, 13680, Note_on_c, 3, 62, 84
9, 13680, Note_on_c, 3, 58, 84
9, 13680, Control_c, 3, 11, 92
9, 13783, Control_c, 3, 11, 93
9, 13791, Note_on_c, 3, 62, 0
9, 13791, Note_on_c, 3, 58, 0
9, 13800, Note_on_c, 3, 62, 84
9, 13800, Note_on_c, 3, 58, 84
9, 13886, Control_c, 3, 11, 94
9, 13911, Note_on_c, 3, 62, 0
9, 13911, Note_on_c, 3, 58, 0
9, 13920, Note_on_c, 3, 62, 84
9, 13920, Note_on_c, 3, 58, 84
9, 13989, Control_c, 3, 11, 95
9, 14031, Note_on_c, 3, 62, 0
9, 14031, Note_on_c, 3, 58, 0
9, 14040, Note_on_c, 3, 58, 84
9, 14040, Note_on_c, 3, 62, 84
9, 14091, Control_c, 3, 11, 96
9, 14151, Note_on_c, 3, 58, 0
9, 14151, Note_on_c, 3, 62, 0
9, 14160, Note_on_c, 3, 58, 84
9, 14160, Note_on_c, 3, 62, 84
9, 14194, Control_c, 3, 11, 97
9, 14271, Note_on_c, 3, 58, 0
9, 14271, Note_on_c, 3, 62, 0
9, 14280, Note_on_c, 3, 60, 84
9, 14280, Note_on_c, 3, 58, 84
9, 14297, Control_c, 3, 11, 98
9, 14391, Note_on_c, 3, 60, 0
9, 14391, Note_on_c, 3, 58, 0
9, 14400, Note_on_c, 3, 58, 84
9, 14400, Note_on_c, 3, 60, 84
9, 14400, Control_c, 3, 11, 99
9, 14503, Control_c, 3, 11, 100
9, 14511, Note_on_c, 3, 58, 0
9, 14511, Note_on_c, 3, 60, 0
9, 14520, Note_on_c, 3, 60, 84
9, 14520, Note_on_c, 3, 58, 84
9, 14606, Control_c, 3, 11, 101
9, 14631, Note_on_c, 3, 60, 0
9, 14631, Note_on_c, 3, 58, 0
9, 14640, Note_on_c, 3, 60, 84
9, 14640, Note_on_c, 3, 58, 84
9, 14709, Control_c, 3, 11, 102
9, 14751, Note_on_c, 3, 60, 0
9, 14751, Note_on_c, 3, 58, 0
9, 14760, Note_on_c, 3, 58, 84
9, 14760, Note_on_c, 3, 60, 84
9, 14811, Control_c, 3, 11, 103
9, 14871, Note_on_c, 3, 58, 0
9, 14871, Note_on_c, 3, 60, 0
9, 14880, Note_on_c, 3, 58, 84
9, 14880, Note_on_c, 3, 60, 84
9, 14914, Control_c, 3, 11, 104
9, 14991, Note_on_c, 3, 58, 0
9, 14991, Note_on_c, 3, 60, 0
9, 15000, Note_on_c, 3, 60, 84
9, 15000, Note_on_c, 3, 64, 84
9, 15017, Control_c, 3, 11, 105
9, 15111, Note_on_c, 3, 60, 0
9, 15111, Note_on_c, 3, 64, 0
9, 15120, Note_on_c, 3, 65, 84
9, 15120, Note_on_c, 3, 60, 84
9, 15120, Control_c, 3, 11, 106
9, 15223, Control_c, 3, 11, 107
9, 15231, Note_on_c, 3, 65, 0
9, 15231, Note_on_c, 3, 60, 0
9, 15240, Note_on_c, 3, 57, 84
9, 15240, Note_on_c, 3, 60, 84
9, 15326, Control_c, 3, 11, 108
9, 15351, Note_on_c, 3, 57, 0
9, 15351, Note_on_c, 3, 60, 0
9, 15360, Note_on_c, 3, 57, 84
9, 15360, Note_on_c, 3, 60, 84
9, 15429, Control_c, 3, 11, 109
9, 15471, Note_on_c, 3, 57, 0
9, 15471, Note_on_c, 3, 60, 0
9, 15480, Note_on_c, 3, 62, 84
9, 15480, Note_on_c, 3, 57, 84
9, 15531, Control_c, 3, 11, 110
9, 15591, Note_on_c, 3, 62, 0
9, 15591, Note_on_c, 3, 57, 0
9, 15600, Note_on_c, 3, 57, 84
9, 15600, Note_on_c, 3, 62, 84
9, 15634, Control_c, 3, 11, 111
9, 15711, Note_on_c, 3, 57, 0
9, 15711, Note_on_c, 3, 62, 0
9, 15720, Note_on_c, 3, 57, 84
9, 15720, Note_on_c, 3, 60, 84
9, 15737, Control_c, 3, 11, 112
9, 15831, Note_on_c, 3, 57, 0
9, 15831, Note_on_c, 3, 60, 0
9, 15840, Note_on_c, 3, 62, 84
9, 15840, Note_on_c, 3, 55, 84
9, 15840, Control_c, 3, 11, 113
9, 15943, Control_c, 3, 11, 114
9, 15951, Note_on_c, 3, 62, 0
9, 15951, Note_on_c, 3, 55, 0
9, 15960, Note_on_c, 3, 62, 84
9, 15960, Note_on_c, 3, 55, 84
9, 16046, Control_c, 3, 11, 115
9, 16071, Note_on_c, 3, 62, 0
9, 16071, Note_on_c, 3, 55, 0
9, 16080, Note_on_c, 3, 62, 84
9, 16080, Note_on_c, 3, 55, 84
9, 16149, Control_c, 3, 11, 116
9, 16191, Note_on_c, 3, 62, 0
9, 16191, Note_on_c, 3, 55, 0
9, 16200, Note_on_c, 3, 60, 84
9, 16200, Note_on_c, 3, 55, 84
9, 16251, Control_c, 3, 11, 117
9, 16311, Note_on_c, 3, 60, 0
9, 16311, Note_on_c, 3, 55, 0
9, 16320, Note_on_c, 3, 60, 84
9, 16320, Note_on_c, 3, 55, 84
9, 16354, Control_c, 3, 11, 118
9, 16431, Note_on_c, 3, 60, 0
9, 16431, Note_on_c, 3, 55, 0
9, 16440, Note_on_c, 3, 55, 84
9, 16440, Note_on_c, 3, 60, 84
9, 16457, Control_c, 3, 11, 119
9, 16551, Note_on_c, 3, 55, 0
9, 16551, Note_on_c, 3, 60, 0
9, 16560, Note_on_c, 3, 57, 84
9, 16560, Control_c, 3, 11, 120
9, 16560, Note_on_c, 3, 60, 84
9, 16663, Control_c, 3, 11, 121
9, 16671, Note_on_c, 3, 57, 0
9, 16671, Note_on_c, 3, 60, 0
9, 16680, Note_on_c, 3, 60, 84
9, 16680, Note_on_c, 3, 57, 84
9, 16766, Control_c, 3, 11, 122
9, 16791, Note_on_c, 3, 60, 0
9, 16791, Note_on_c, 3, 57, 0
9, 16800, Note_on_c, 3, 60, 84
9, 16800, Note_on_c, 3, 57, 84
9, 16869, Control_c, 3, 11, 123
9, 16911, Note_on_c, 3, 60, 0
9, 16911, Note_on_c, 3, 57, 0
9, 16920, Note_on_c, 3, 60, 84
9, 16920, Note_on_c, 3, 57, 84
9, 16971, Control_c, 3, 11, 124
9, 17031, Note_on_c, 3, 60, 0
9, 17031, Note_on_c, 3, 57, 0
9, 17040, Note_on_c, 3, 60, 84
9, 17040, Note_on_c, 3, 57, 84
9, 17074, Control_c, 3, 11, 125
9, 17151, Note_on_c, 3, 60, 0
9, 17151, Note_on_c, 3, 57, 0
9, 17160, Note_on_c, 3, 57, 84
9, 17160, Note_on_c, 3, 60, 84
9, 17177, Control_c, 3, 11, 126
9, 17271, Note_on_c, 3, 57, 0
9, 17271, Note_on_c, 3, 60, 0
9, 17278, Control_c, 3, 11, 127
9, 17280, Note_on_c, 3, 69, 84
9, 17639, Note_on_c, 3, 69, 0
9, 17640, Note_on_c, 3, 65, 84
9, 17879, Note_on_c, 3, 65, 0
9, 17880, Note_on_c, 3, 72, 84
9, 17991, Note_on_c, 3, 72, 0
9, 18000, Note_on_c, 3, 69, 84
9, 18359, Note_on_c, 3, 69, 0
9, 18360, Note_on_c, 3, 65, 84
9, 18591, Note_on_c, 3, 65, 0
9, 18600, Note_on_c, 3, 60, 84
9, 18689, Note_on_c, 3, 60, 0
9, 18720, Note_on_c, 3, 65, 84
9, 18959, Note_on_c, 3, 65, 0
9, 18960, Note_on_c, 3, 69, 84
9, 19079, Note_on_c, 3, 69, 0
9, 19080, Note_on_c, 3, 72, 84
9, 19319, Note_on_c, 3, 72, 0
9, 19320, Note_on_c, 3, 69, 84
9, 19431, Note_on_c, 3, 69, 0
9, 19440, Note_on_c, 3, 70, 84
9, 20031, Note_on_c, 3, 70, 0
9, 20040, Note_on_c, 3, 67, 84
9, 20129, Note_on_c, 3, 67, 0
9, 20160, Note_on_c, 3, 70, 84
9, 20519, Note_on_c, 3, 70, 0
9, 20520, Note_on_c, 3, 67, 84
9, 20759, Note_on_c, 3, 67, 0
9, 20760, Note_on_c, 3, 72, 84
9, 20871, Note_on_c, 3, 72, 0
9, 20880, Note_on_c, 3, 69, 84
9, 21239, Note_on_c, 3, 69, 0
9, 21240, Note_on_c, 3, 65, 84
9, 21471, Note_on_c, 3, 65, 0
9, 21480, Note_on_c, 3, 69, 84
9, 21569, Note_on_c, 3, 69, 0
9, 21600, Note_on_c, 3, 67, 84
9, 21839, Note_on_c, 3, 67, 0
9, 21840, Note_on_c, 3, 62, 84
9, 21959, Note_on_c, 3, 62, 0
9, 21960, Note_on_c, 3, 64, 84
9, 22199, Note_on_c, 3, 64, 0
9, 22200, Note_on_c, 3, 60, 84
9, 22311, Note_on_c, 3, 60, 0
9, 22320, Note_on_c, 3, 65, 84
9, 22439, Note_on_c, 3, 65, 0
9, 23640, Note_on_c, 3, 64, 84
9, 23640, Note_on_c, 3, 67, 84
9, 23751, Note_on_c, 3, 64, 0
9, 23751, Note_on_c, 3, 67, 0
9, 23760, Note_on_c, 3, 65, 84
9, 24111, Note_on_c, 3, 65, 0
9, 24120, Note_on_c, 3, 67, 84
9, 24471, Note_on_c, 3, 67, 0
9, 24480, Note_on_c, 3, 69, 84
9, 24480, Note_on_c, 3, 65, 84
9, 24831, Note_on_c, 3, 69, 0
9, 24831, Note_on_c, 3, 65, 0
9, 24840, Note_on_c, 3, 67, 84
9, 24840, Note_on_c, 3, 70, 84
9, 25071, Note_on_c, 3, 67, 0
9, 25071, Note_on_c, 3, 70, 0
9, 25080, Note_on_c, 3, 67, 84
9, 25080, Note_on_c, 3, 64, 84
9, 25199, Note_on_c, 3, 67, 0
9, 25199, Note_on_c, 3, 64, 0
9, 26520, Note_on_c, 3, 64, 84
9, 26520, Note_on_c, 3, 67, 84
9, 26631, Note_on_c, 3, 64, 0
9, 26631, Note_on_c, 3, 67, 0
9, 26640, Note_on_c, 3, 65, 84
9, 26991, Note_on_c, 3, 65, 0
9, 27000, Note_on_c, 3, 67, 84
9, 27351, Note_on_c, 3, 67, 0
9, 27360, Note_on_c, 3, 69, 84
9, 27360, Note_on_c, 3, 65, 84
9, 27711, Note_on_c, 3, 69, 0
9, 27711, Note_on_c, 3, 65, 0
9, 27720, Note_on_c, 3, 64, 84
9, 27720, Note_on_c, 3, 70, 84
9, 27951, Note_on_c, 3, 64, 0
9, 27951, Note_on_c, 3, 70, 0
9, 27960, Note_on_c, 3, 67, 84
9, 27960, Note_on_c, 3, 64, 84
9, 28071, Note_on_c, 3, 67, 0
9, 28071, Note_on_c, 3, 64, 0
9, 28080, Note_on_c, 3, 72, 92
9, 28080, Note_on_c, 3, 65, 92
9, 28110, Control_c, 3, 11, 112
9, 28431, Note_on_c, 3, 72, 0
9, 28431, Note_on_c, 3, 65, 0
9, 28440, Note_on_c, 3, 74, 92
9, 28440, Note_on_c, 3, 65, 92
9, 28671, Note_on_c, 3, 74, 0
9, 28671, Note_on_c, 3, 65, 0
9, 28680, Note_on_c, 3, 59, 92
9, 28680, Note_on_c, 3, 62, 92
9, 28791, Note_on_c, 3, 59, 0
9, 28791, Note_on_c, 3, 62, 0
9, 28798, Control_c, 3, 11, 127
9, 28800, Note_on_c, 3, 64, 92
9, 28800, Note_on_c, 3, 60, 92
9, 28830, Control_c, 3, 11, 112
9, 29151, Note_on_c, 3, 64, 0
9, 29151, Note_on_c, 3, 60, 0
9, 29160, Note_on_c, 3, 65, 92
9, 29160, Note_on_c, 3, 62, 92
9, 29391, Note_on_c, 3, 65, 0
9, 29391, Note_on_c, 3, 62, 0
9, 29400, Note_on_c, 3, 62, 92
9, 29400, Note_on_c, 3, 65, 92
9, 29511, Note_on_c, 3, 62, 0
9, 29511, Note_on_c, 3, 65, 0
9, 29518, Control_c, 3, 11, 127
9, 29520, Note_on_c, 3, 67, 84
9, 29520, Note_on_c, 3, 64, 84
9, 30111, Note_on_c, 3, 67, 0
9, 30111, Note_on_c, 3, 64, 0
9, 30120, Note_on_c, 3, 60, 84
9, 30120, Note_on_c, 3, 64, 84
9, 30231, Note_on_c, 3, 60, 0
9, 30231, Note_on_c, 3, 64, 0
9, 30240, Note_on_c, 3, 64, 84
9, 30240, Note_on_c, 3, 60, 84
9, 30471, Note_on_c, 3, 64, 0
9, 30471, Note_on_c, 3, 60, 0
9, 30480, Note_on_c, 3, 60, 84
9, 30480, Note_on_c, 3, 64, 84
9, 30591, Note_on_c, 3, 60, 0
9, 30591, Note_on_c, 3, 64, 0
9, 30600, Note_on_c, 3, 60, 84
9, 30600, Note_on_c, 3, 64, 84
9, 30831, Note_on_c, 3, 60, 0
9, 30831, Note_on_c, 3, 64, 0
9, 30840, Note_on_c, 3, 64, 84
9, 30840, Note_on_c, 3, 60, 84
9, 30951, Note_on_c, 3, 64, 0
9, 30951, Note_on_c, 3, 60, 0
9, 30960, Note_on_c, 3, 62, 84
9, 30960, Note_on_c, 3, 65, 84
9, 31551, Note_on_c, 3, 62, 0
9, 31551, Note_on_c, 3, 65, 0
9, 31560, Note_on_c, 3, 59, 84
9, 31560, Note_on_c, 3, 62, 84
9, 31671, Note_on_c, 3, 59, 0
9, 31671, Note_on_c, 3, 62, 0
9, 31680, Note_on_c, 3, 62, 84
9, 31680, Note_on_c, 3, 59, 84
9, 31911, Note_on_c, 3, 62, 0
9, 31911, Note_on_c, 3, 59, 0
9, 31920, Note_on_c, 3, 59, 84
9, 31920, Note_on_c, 3, 62, 84
9, 32031, Note_on_c, 3, 59, 0
9, 32031, Note_on_c, 3, 62, 0
9, 32040, Note_on_c, 3, 62, 84
9, 32040, Note_on_c, 3, 59, 84
9, 32271, Note_on_c, 3, 62, 0
9, 32271, Note_on_c, 3, 59, 0
9, 32280, Note_on_c, 3, 62, 84
9, 32280, Note_on_c, 3, 59, 84
9, 32391, Note_on_c, 3, 62, 0
9, 32391, Note_on_c, 3, 59, 0
9, 32400, Note_on_c, 3, 67, 84
9, 32400, Note_on_c, 3, 64, 84
9, 32631, Note_on_c, 3, 67, 0
9, 32631, Note_on_c, 3, 64, 0
9, 32640, Note_on_c, 3, 64, 84
9, 32640, Note_on_c, 3, 67, 84
9, 32751, Note_on_c, 3, 64, 0
9, 32751, Note_on_c, 3, 67, 0
9, 32760, Note_on_c, 3, 64, 84
9, 32760, Note_on_c, 3, 67, 84
9, 32991, Note_on_c, 3, 64, 0
9, 32991, Note_on_c, 3, 67, 0
9, 33000, Note_on_c, 3, 64, 84
9, 33000, Note_on_c, 3, 67, 84
9, 33111, Note_on_c, 3, 64, 0
9, 33111, Note_on_c, 3, 67, 0
9, 33120, Note_on_c, 3, 64, 84
9, 33120, Note_on_c, 3, 67, 84
9, 33351, Note_on_c, 3, 64, 0
9, 33351, Note_on_c, 3, 67, 0
9, 33360, Note_on_c, 3, 64, 84
9, 33360, Note_on_c, 3, 60, 84
9, 33471, Note_on_c, 3, 64, 0
9, 33471, Note_on_c, 3, 60, 0
9, 33480, Note_on_c, 3, 60, 84
9, 33480, Note_on_c, 3, 64, 84
9, 33711, Note_on_c, 3, 60, 0
9, 33711, Note_on_c, 3, 64, 0
9, 33720, Note_on_c, 3, 64, 84
9, 33720, Note_on_c, 3, 60, 84
9, 33831, Note_on_c, 3, 64, 0
9, 33831, Note_on_c, 3, 60, 0
9, 33840, Note_on_c, 3, 65, 84
9, 33840, Note_on_c, 3, 62, 84
9, 34071, Note_on_c, 3, 65, 0
9, 34071, Note_on_c, 3, 62, 0
9, 34080, Note_on_c, 3, 65, 84
9, 34080, Note_on_c, 3, 62, 84
9, 34191, Note_on_c, 3, 65, 0
9, 34191, Note_on_c, 3, 62, 0
9, 34200, Note_on_c, 3, 65, 84
9, 34200, Note_on_c, 3, 62, 84
9, 34431, Note_on_c, 3, 65, 0
9, 34431, Note_on_c, 3, 62, 0
9, 34440, Note_on_c, 3, 65, 84
9, 34440, Note_on_c, 3, 62, 84
9, 34551, Note_on_c, 3, 65, 0
9, 34551, Note_on_c, 3, 62, 0
9, 34560, Note_on_c, 3, 65, 84
9, 34560, Note_on_c, 3, 62, 84
9, 34799, Note_on_c, 3, 65, 0
9, 34799, Note_on_c, 3, 62, 0
9, 34800, Note_on_c, 3, 59, 84
9, 34800, Note_on_c, 3, 62, 84
9, 34911, Note_on_c, 3, 59, 0
9, 34911, Note_on_c, 3, 62, 0
9, 34920, Note_on_c, 3, 62, 84
9, 34920, Note_on_c, 3, 59, 84
9, 35151, Note_on_c, 3, 62, 0
9, 35151, Note_on_c, 3, 59, 0
9, 35160, Note_on_c, 3, 62, 84
9, 35160, Note_on_c, 3, 59, 84
9, 35271, Note_on_c, 3, 62, 0
9, 35271, Note_on_c, 3, 59, 0
9, 35280, Note_on_c, 3, 60, 84
9, 35280, Note_on_c, 3, 64, 84
9, 35511, Note_on_c, 3, 60, 0
9, 35511, Note_on_c, 3, 64, 0
9, 36240, Note_on_c, 3, 60, 76
9, 36240, Note_on_c, 3, 72, 76
9, 36359, Note_on_c, 3, 60, 0
9, 36359, Note_on_c, 3, 72, 0
9, 36360, Note_on_c, 3, 71, 76
9, 36360, Note_on_c, 3, 62, 76
9, 36591, Note_on_c, 3, 71, 0
9, 36591, Note_on_c, 3, 62, 0
9, 36600, Note_on_c, 3, 62, 76
9, 36600, Note_on_c, 3, 71, 76
9, 36711, Note_on_c, 3, 62, 0
9, 36711, Note_on_c, 3, 71, 0
9, 36720, Note_on_c, 3, 64, 76
9, 36720, Note_on_c, 3, 72, 76
9, 36839, Note_on_c, 3, 64, 0
9, 36839, Note_on_c, 3, 72, 0
9, 37680, Note_on_c, 3, 72, 76
9, 37680, Note_on_c, 3, 64, 76
9, 37799, Note_on_c, 3, 72, 0
9, 37799, Note_on_c, 3, 64, 0
9, 37800, Note_on_c, 3, 62, 76
9, 37800, Note_on_c, 3, 71, 76
9, 38031, Note_on_c, 3, 62, 0
9, 38031, Note_on_c, 3, 71, 0
9, 38040, Note_on_c, 3, 62, 76
9, 38040, Note_on_c, 3, 71, 76
9, 38129, Note_on_c, 3, 62, 0
9, 38129, Note_on_c, 3, 71, 0
9, 38160, Note_on_c, 3, 72, 84
9, 38519, Note_on_c, 3, 72, 0
9, 38520, Note_on_c, 3, 67, 84
9, 38639, Note_on_c, 3, 67, 0
9, 38760, Note_on_c, 3, 76, 84
9, 38849, Note_on_c, 3, 76, 0
9, 38880, Note_on_c, 3, 74, 84
9, 39239, Note_on_c, 3, 74, 0
9, 39240, Note_on_c, 3, 69, 84
9, 39359, Note_on_c, 3, 69, 0
9, 39480, Note_on_c, 3, 77, 84
9, 39569, Note_on_c, 3, 77, 0
9, 39600, Note_on_c, 3, 72, 84
9, 39689, Note_on_c, 3, 72, 0
9, 42840, Note_on_c, 3, 72, 48
9, 42944, Note_on_c, 3, 72, 0
9, 42960, Note_on_c, 3, 67, 48
9, 43064, Note_on_c, 3, 67, 0
9, 43080, Note_on_c, 3, 76, 48
9, 43169, Note_on_c, 3, 76, 0
9, 43200, Note_on_c, 3, 72, 48
9, 43304, Note_on_c, 3, 72, 0
9, 43320, Note_on_c, 3, 67, 48
9, 43424, Note_on_c, 3, 67, 0
9, 43440, Note_on_c, 3, 76, 48
9, 43529, Note_on_c, 3, 76, 0
9, 43560, Note_on_c, 3, 72, 48
9, 43664, Note_on_c, 3, 72, 0
9, 43680, Note_on_c, 3, 67, 48
9, 43784, Note_on_c, 3, 67, 0
9, 43800, Note_on_c, 3, 72, 48
9, 43889, Note_on_c, 3, 72, 0
9, 43918, Control_c, 3, 11, 96
9, 43920, Note_on_c, 3, 72, 68
9, 43966, Control_c, 3, 11, 97
9, 44013, Control_c, 3, 11, 98
9, 44059, Control_c, 3, 11, 99
9, 44106, Control_c, 3, 11, 100
9, 44152, Control_c, 3, 11, 101
9, 44199, Control_c, 3, 11, 102
9, 44245, Control_c, 3, 11, 103
9, 44292, Control_c, 3, 11, 104
9, 44338, Control_c, 3, 11, 105
9, 44385, Control_c, 3, 11, 106
9, 44431, Control_c, 3, 11, 107
9, 44477, Control_c, 3, 11, 108
9, 44524, Control_c, 3, 11, 109
9, 44570, Control_c, 3, 11, 110
9, 44617, Control_c, 3, 11, 111
9, 44663, Control_c, 3, 11, 112
9, 44710, Control_c, 3, 11, 113
9, 44756, Control_c, 3, 11, 114
9, 44803, Control_c, 3, 11, 115
9, 44849, Control_c, 3, 11, 116
9, 44895, Control_c, 3, 11, 117
9, 44942, Control_c, 3, 11, 118
9, 44988, Control_c, 3, 11, 119
9, 45035, Control_c, 3, 11, 120
9, 45081, Control_c, 3, 11, 121
9, 45128, Control_c, 3, 11, 122
9, 45174, Control_c, 3, 11, 123
9, 45221, Control_c, 3, 11, 124
9, 45267, Control_c, 3, 11, 125
9, 45314, Control_c, 3, 11, 127
9, 45351, Note_on_c, 3, 72, 0
9, 45360, Note_on_c, 3, 69, 52
9, 45360, Note_on_c, 3, 65, 52
9, 46799, Note_on_c, 3, 69, 0
9, 46799, Note_on_c, 3, 65, 0
9, 46800, Note_on_c, 3, 65, 52
9, 46800, Note_on_c, 3, 69, 52
9, 47511, Note_on_c, 3, 65, 0
9, 47511, Note_on_c, 3, 69, 0
9, 47520, Note_on_c, 3, 65, 52
9, 47520, Note_on_c, 3, 70, 52
9, 48111, Note_on_c, 3, 65, 0
9, 48111, Note_on_c, 3, 70, 0
9, 48120, Note_on_c, 3, 67, 52
9, 48120, Note_on_c, 3, 70, 52
9, 48231, Note_on_c, 3, 67, 0
9, 48231, Note_on_c, 3, 70, 0
9, 48240, Note_on_c, 3, 70, 52
9, 48240, Note_on_c, 3, 67, 52
9, 48951, Note_on_c, 3, 70, 0
9, 48951, Note_on_c, 3, 67, 0
9, 48960, Note_on_c, 3, 69, 52
9, 48960, Note_on_c, 3, 65, 52
9, 49671, Note_on_c, 3, 69, 0
9, 49680, Note_on_c, 3, 67, 52
9, 50031, Note_on_c, 3, 65, 0
9, 50031, Note_on_c, 3, 67, 0
9, 50040, Note_on_c, 3, 64, 52
9, 50040, Note_on_c, 3, 67, 52
9, 50391, Note_on_c, 3, 64, 0
9, 50391, Note_on_c, 3, 67, 0
9, 50398, Control_c, 3, 11, 80
9, 50400, Note_on_c, 3, 69, 76
9, 50400, Note_on_c, 3, 65, 76
9, 50492, Control_c, 3, 11, 81
9, 50584, Control_c, 3, 11, 82
9, 50676, Control_c, 3, 11, 83
9, 50768, Control_c, 3, 11, 84
9, 50860, Control_c, 3, 11, 85
9, 50951, Control_c, 3, 11, 86
9, 51043, Control_c, 3, 11, 87
9, 51111, Note_on_c, 3, 69, 0
9, 51111, Note_on_c, 3, 65, 0
9, 51120, Note_on_c, 3, 57, 76
9, 51120, Note_on_c, 3, 60, 76
9, 51135, Control_c, 3, 11, 88
9, 51227, Control_c, 3, 11, 89
9, 51231, Note_on_c, 3, 57, 0
9, 51231, Note_on_c, 3, 60, 0
9, 51240, Note_on_c, 3, 60, 76
9, 51240, Note_on_c, 3, 57, 76
9, 51319, Control_c, 3, 11, 90
9, 51351, Note_on_c, 3, 60, 0
9, 51351, Note_on_c, 3, 57, 0
9, 51360, Note_on_c, 3, 60, 76
9, 51360, Note_on_c, 3, 57, 76
9, 51411, Control_c, 3, 11, 91
9, 51471, Note_on_c, 3, 60, 0
9, 51471, Note_on_c, 3, 57, 0
9, 51480, Note_on_c, 3, 60, 76
9, 51480, Note_on_c, 3, 57, 76
9, 51503, Control_c, 3, 11, 92
9, 51591, Note_on_c, 3, 60, 0
9, 51591, Note_on_c, 3, 57, 0
9, 51595, Control_c, 3, 11, 93
9, 51600, Note_on_c, 3, 60, 76
9, 51600, Note_on_c, 3, 57, 76
9, 51687, Control_c, 3, 11, 94
9, 51711, Note_on_c, 3, 60, 0
9, 51711, Note_on_c, 3, 57, 0
9, 51720, Note_on_c, 3, 60, 76
9, 51720, Note_on_c, 3, 57, 76
9, 51779, Control_c, 3, 11, 95
9, 51831, Note_on_c, 3, 60, 0
9, 51831, Note_on_c, 3, 57, 0
9, 51840, Note_on_c, 3, 57, 76
9, 51840, Note_on_c, 3, 60, 76
9, 51871, Control_c, 3, 11, 96
9, 51951, Note_on_c, 3, 57, 0
9, 51951, Note_on_c, 3, 60, 0
9, 51960, Note_on_c, 3, 60, 76
9, 51960, Note_on_c, 3, 57, 76
9, 51963, Control_c, 3, 11, 97
9, 52054, Control_c, 3, 11, 98
9, 52071, Note_on_c, 3, 60, 0
9, 52071, Note_on_c, 3, 57, 0
9, 52080, Note_on_c, 3, 60, 76
9, 52080, Note_on_c, 3, 57, 76
9, 52146, Control_c, 3, 11, 99
9, 52191, Note_on_c, 3, 60, 0
9, 52191, Note_on_c, 3, 57, 0
9, 52200, Note_on_c, 3, 60, 76
9, 52200, Note_on_c, 3, 57, 76
9, 52238, Control_c, 3, 11, 100
9, 52311, Note_on_c, 3, 60, 0
9, 52311, Note_on_c, 3, 57, 0
9, 52320, Note_on_c, 3, 60, 76
9, 52320, Note_on_c, 3, 57, 76
9, 52330, Control_c, 3, 11, 101
9, 52422, Control_c, 3, 11, 102
9, 52431, Note_on_c, 3, 60, 0
9, 52431, Note_on_c, 3, 57, 0
9, 52440, Note_on_c, 3, 57, 76
9, 52440, Note_on_c, 3, 60, 76
9, 52514, Control_c, 3, 11, 103
9, 52551, Note_on_c, 3, 57, 0
9, 52551, Note_on_c, 3, 60, 0
9, 52560, Note_on_c, 3, 57, 76
9, 52560, Note_on_c, 3, 60, 76
9, 52606, Control_c, 3, 11, 104
9, 52671, Note_on_c, 3, 57, 0
9, 52671, Note_on_c, 3, 60, 0
9, 52680, Note_on_c, 3, 57, 76
9, 52680, Note_on_c, 3, 60, 76
9, 52698, Control_c, 3, 11, 105
9, 52790, Control_c, 3, 11, 106
9, 52791, Note_on_c, 3, 57, 0
9, 52791, Note_on_c, 3, 60, 0
9, 52800, Note_on_c, 3, 57, 76
9, 52800, Note_on_c, 3, 60, 76
9, 52882, Control_c, 3, 11, 107
9, 52911, Note_on_c, 3, 57, 0
9, 52911, Note_on_c, 3, 60, 0
9, 52920, Note_on_c, 3, 57, 76
9, 52920, Note_on_c, 3, 60, 76
9, 52974, Control_c, 3, 11, 108
9, 53031, Note_on_c, 3, 57, 0
9, 53031, Note_on_c, 3, 60, 0
9, 53040, Note_on_c, 3, 60, 76
9, 53040, Note_on_c, 3, 57, 76
9, 53066, Control_c, 3, 11, 109
9, 53151, Note_on_c, 3, 60, 0
9, 53151, Note_on_c, 3, 57, 0
9, 53157, Control_c, 3, 11, 110
9, 53160, Note_on_c, 3, 57, 76
9, 53160, Note_on_c, 3, 60, 76
9, 53249, Control_c, 3, 11, 111
9, 53271, Note_on_c, 3, 57, 0
9, 53271, Note_on_c, 3, 60, 0
9, 53280, Note_on_c, 3, 60, 76
9, 53280, Note_on_c, 3, 57, 76
9, 53341, Control_c, 3, 11, 112
9, 53391, Note_on_c, 3, 60, 0
9, 53391, Note_on_c, 3, 57, 0
9, 53400, Note_on_c, 3, 60, 76
9, 53400, Note_on_c, 3, 57, 76
9, 53433, Control_c, 3, 11, 113
9, 53511, Note_on_c, 3, 60, 0
9, 53511, Note_on_c, 3, 57, 0
9, 53520, Note_on_c, 3, 60, 76
9, 53520, Note_on_c, 3, 57, 76
9, 53525, Control_c, 3, 11, 114
9, 53617, Control_c, 3, 11, 115
9, 53631, Note_on_c, 3, 60, 0
9, 53631, Note_on_c, 3, 57, 0
9, 53640, Note_on_c, 3, 60, 76
9, 53640, Note_on_c, 3, 57, 76
9, 53709, Control_c, 3, 11, 116
9, 53751, Note_on_c, 3, 60, 0
9, 53751, Note_on_c, 3, 57, 0
9, 53760, Note_on_c, 3, 60, 76
9, 53760, Note_on_c, 3, 57, 76
9, 53801, Control_c, 3, 11, 117
9, 53871, Note_on_c, 3, 60, 0
9, 53871, Note_on_c, 3, 57, 0
9, 53880, Note_on_c, 3, 60, 76
9, 53880, Note_on_c, 3, 57, 76
9, 53893, Control_c, 3, 11, 118
9, 53985, Control_c, 3, 11, 119
9, 53991, Note_on_c, 3, 60, 0
9, 53991, Note_on_c, 3, 57, 0
9, 54000, Note_on_c, 3, 57, 76
9, 54000, Note_on_c, 3, 60, 76
9, 54077, Control_c, 3, 11, 120
9, 54111, Note_on_c, 3, 57, 0
9, 54111, Note_on_c, 3, 60, 0
9, 54120, Note_on_c, 3, 57, 76
9, 54120, Note_on_c, 3, 60, 76
9, 54169, Control_c, 3, 11, 121
9, 54231, Note_on_c, 3, 57, 0
9, 54231, Note_on_c, 3, 60, 0
9, 54240, Note_on_c, 3, 57, 76
9, 54240, Note_on_c, 3, 60, 76
9, 54260, Control_c, 3, 11, 122
9, 54351, Note_on_c, 3, 57, 0
9, 54351, Note_on_c, 3, 60, 0
9, 54352, Control_c, 3, 11, 123
9, 54360, Note_on_c, 3, 60, 76
9, 54360, Note_on_c, 3, 57, 76
9, 54444, Control_c, 3, 11, 124
9, 54471, Note_on_c, 3, 60, 0
9, 54471, Note_on_c, 3, 57, 0
9, 54480, Note_on_c, 3, 60, 76
9, 54480, Note_on_c, 3, 57, 76
9, 54536, Control_c, 3, 11, 125
9, 54591, Note_on_c, 3, 60, 0
9, 54591, Note_on_c, 3, 57, 0
9, 54600, Note_on_c, 3, 57, 76
9, 54600, Note_on_c, 3, 60, 76
9, 54628, Control_c, 3, 11, 127
9, 54711, Note_on_c, 3, 57, 0
9, 54711, Note_on_c, 3, 60, 0
9, 54720, Note_on_c, 3, 60, 76
9, 54720, Note_on_c, 3, 57, 76
9, 54831, Note_on_c, 3, 60, 0
9, 54831, Note_on_c, 3, 57, 0
9, 54840, Note_on_c, 3, 57, 76
9, 54840, Note_on_c, 3, 60, 76
9, 54951, Note_on_c, 3, 57, 0
9, 54951, Note_on_c, 3, 60, 0
9, 54960, Note_on_c, 3, 57, 76
9, 54960, Note_on_c, 3, 60, 76
9, 55071, Note_on_c, 3, 57, 0
9, 55071, Note_on_c, 3, 60, 0
9, 55080, Note_on_c, 3, 57, 76
9, 55080, Note_on_c, 3, 60, 76
9, 55191, Note_on_c, 3, 57, 0
9, 55191, Note_on_c, 3, 60, 0
9, 55200, Note_on_c, 3, 57, 76
9, 55200, Note_on_c, 3, 60, 76
9, 55311, Note_on_c, 3, 57, 0
9, 55311, Note_on_c, 3, 60, 0
9, 55320, Note_on_c, 3, 72, 84
9, 55320, Note_on_c, 3, 69, 84
9, 55409, Note_on_c, 3, 72, 0
9, 55409, Note_on_c, 3, 69, 0
9, 55440, Note_on_c, 3, 69, 84
9, 55440, Note_on_c, 3, 72, 84
9, 55649, Note_on_c, 3, 69, 0
9, 55649, Note_on_c, 3, 72, 0
9, 55680, Note_on_c, 3, 69, 84
9, 55680, Note_on_c, 3, 72, 84
9, 55769, Note_on_c, 3, 69, 0
9, 55769, Note_on_c, 3, 72, 0
9, 55800, Note_on_c, 3, 69, 84
9, 55800, Note_on_c, 3, 72, 84
9, 56009, Note_on_c, 3, 69, 0
9, 56009, Note_on_c, 3, 72, 0
9, 56040, Note_on_c, 3, 72, 84
9, 56040, Note_on_c, 3, 69, 84
9, 56129, Note_on_c, 3, 72, 0
9, 56129, Note_on_c, 3, 69, 0
9, 56160, Note_on_c, 3, 69, 84
9, 56160, Note_on_c, 3, 72, 84
9, 56369, Note_on_c, 3, 69, 0
9, 56369, Note_on_c, 3, 72, 0
9, 56400, Note_on_c, 3, 69, 84
9, 56400, Note_on_c, 3, 72, 84
9, 56489, Note_on_c, 3, 69, 0
9, 56489, Note_on_c, 3, 72, 0
9, 56520, Note_on_c, 3, 69, 84
9, 56520, Note_on_c, 3, 72, 84
9, 56729, Note_on_c, 3, 69, 0
9, 56729, Note_on_c, 3, 72, 0
9, 56760, Note_on_c, 3, 77, 84
9, 56760, Note_on_c, 3, 69, 84
9, 56849, Note_on_c, 3, 77, 0
9, 56849, Note_on_c, 3, 69, 0
9, 56880, Note_on_c, 3, 74, 84
9, 56880, Note_on_c, 3, 70, 84
9, 57111, Note_on_c, 3, 74, 0
9, 57111, Note_on_c, 3, 70, 0
9, 57120, Note_on_c, 3, 74, 48
9, 57120, Note_on_c, 3, 65, 48
9, 57231, Note_on_c, 3, 74, 0
9, 57231, Note_on_c, 3, 65, 0
9, 57240, Note_on_c, 3, 65, 48
9, 57240, Note_on_c, 3, 74, 48
9, 57479, Note_on_c, 3, 65, 0
9, 57479, Note_on_c, 3, 74, 0
9, 57480, Note_on_c, 3, 72, 48
9, 57480, Note_on_c, 3, 63, 48
9, 57599, Note_on_c, 3, 72, 0
9, 57599, Note_on_c, 3, 63, 0
9, 57600, Note_on_c, 3, 70, 48
9, 57600, Note_on_c, 3, 62, 48
9, 57839, Note_on_c, 3, 70, 0
9, 57839, Note_on_c, 3, 62, 0
9, 57840, Note_on_c, 3, 63, 48
9, 57840, Note_on_c, 3, 72, 48
9, 57959, Note_on_c, 3, 63, 0
9, 57959, Note_on_c, 3, 72, 0
9, 57960, Note_on_c, 3, 74, 48
9, 57960, Note_on_c, 3, 65, 48
9, 58199, Note_on_c, 3, 74, 0
9, 58199, Note_on_c, 3, 65, 0
9, 58200, Note_on_c, 3, 70, 76
9, 58200, Note_on_c, 3, 62, 76
9, 58311, Note_on_c, 3, 70, 0
9, 58311, Note_on_c, 3, 62, 0
9, 58320, Note_on_c, 3, 70, 84
9, 58320, Note_on_c, 3, 63, 84
9, 58350, Control_c, 3, 11, 112
9, 58559, Note_on_c, 3, 70, 0
9, 58559, Note_on_c, 3, 63, 0
9, 58560, Note_on_c, 3, 69, 84
9, 58671, Note_on_c, 3, 69, 0
9, 58680, Note_on_c, 3, 69, 60
9, 58680, Note_on_c, 3, 65, 60
9, 58919, Note_on_c, 3, 69, 0
9, 58919, Note_on_c, 3, 65, 0
9, 58920, Note_on_c, 3, 71, 60
9, 58920, Note_on_c, 3, 67, 60
9, 59009, Note_on_c, 3, 71, 0
9, 59009, Note_on_c, 3, 67, 0
9, 59020, Note_on_c, 3, 74, 60
9, 59020, Note_on_c, 3, 71, 60
9, 59039, Note_on_c, 3, 74, 0
9, 59039, Note_on_c, 3, 71, 0
9, 59040, Note_on_c, 3, 69, 60
9, 59040, Note_on_c, 3, 72, 60
9, 59279, Note_on_c, 3, 69, 0
9, 59279, Note_on_c, 3, 72, 0
9, 59280, Note_on_c, 3, 67, 60
9, 59280, Note_on_c, 3, 71, 60
9, 59399, Note_on_c, 3, 67, 0
9, 59399, Note_on_c, 3, 71, 0
9, 59400, Note_on_c, 3, 72, 60
9, 59400, Note_on_c, 3, 69, 60
9, 59639, Note_on_c, 3, 72, 0
9, 59639, Note_on_c, 3, 69, 0
9, 59640, Note_on_c, 3, 71, 84
9, 59640, Note_on_c, 3, 74, 84
9, 59751, Note_on_c, 3, 71, 0
9, 59751, Note_on_c, 3, 74, 0
9, 59758, Control_c, 3, 11, 127
9, 59760, Note_on_c, 3, 71, 84
9, 59760, Note_on_c, 3, 74, 84
9, 59999, Note_on_c, 3, 71, 0
9, 59999, Note_on_c, 3, 74, 0
9, 60000, Note_on_c, 3, 72, 84
9, 60000, Note_on_c, 3, 75, 84
9, 60111, Note_on_c, 3, 72, 0
9, 60111, Note_on_c, 3, 75, 0
9, 60120, Note_on_c, 3, 72, 60
9, 60120, Note_on_c, 3, 75, 60
9, 60359, Note_on_c, 3, 72, 0
9, 60359, Note_on_c, 3, 75, 0
9, 60360, Note_on_c, 3, 74, 60
9, 60360, Note_on_c, 3, 70, 60
9, 60479, Note_on_c, 3, 74, 0
9, 60479, Note_on_c, 3, 70, 0
9, 60480, Note_on_c, 3, 72, 60
9, 60480, Note_on_c, 3, 69, 60
9, 60719, Note_on_c, 3, 72, 0
9, 60719, Note_on_c, 3, 69, 0
9, 60720, Note_on_c, 3, 74, 60
9, 60720, Note_on_c, 3, 70, 60
9, 60839, Note_on_c, 3, 74, 0
9, 60839, Note_on_c, 3, 70, 0
9, 60840, Note_on_c, 3, 72, 60
9, 60840, Note_on_c, 3, 75, 60
9, 61079, Note_on_c, 3, 72, 0
9, 61079, Note_on_c, 3, 75, 0
9, 61080, Note_on_c, 3, 69, 84
9, 61080, Note_on_c, 3, 77, 84
9, 61191, Note_on_c, 3, 69, 0
9, 61191, Note_on_c, 3, 77, 0
9, 61200, Note_on_c, 3, 70, 84
9, 61200, Note_on_c, 3, 74, 84
9, 61431, Note_on_c, 3, 70, 0
9, 61431, Note_on_c, 3, 74, 0
9, 61440, Note_on_c, 3, 70, 60
9, 61440, Note_on_c, 3, 74, 60
9, 61559, Note_on_c, 3, 70, 0
9, 61559, Note_on_c, 3, 74, 0
9, 61560, Note_on_c, 3, 72, 60
9, 61560, Note_on_c, 3, 75, 60
9, 61799, Note_on_c, 3, 72, 0
9, 61799, Note_on_c, 3, 75, 0
9, 61800, Note_on_c, 3, 77, 84
9, 61800, Note_on_c, 3, 74, 84
9, 61911, Note_on_c, 3, 77, 0
9, 61911, Note_on_c, 3, 74, 0
9, 61920, Note_on_c, 3, 79, 84
9, 61920, Note_on_c, 3, 75, 84
9, 62151, Note_on_c, 3, 79, 0
9, 62151, Note_on_c, 3, 75, 0
9, 62158, Control_c, 3, 11, 127
9, 62160, Note_on_c, 3, 79, 76
9, 62160, Note_on_c, 3, 75, 76
9, 62279, Note_on_c, 3, 79, 0
9, 62279, Note_on_c, 3, 75, 0
9, 62280, Note_on_c, 3, 79, 84
9, 62280, Note_on_c, 3, 82, 84
9, 62310, Control_c, 3, 11, 112
9, 62519, Note_on_c, 3, 79, 0
9, 62519, Note_on_c, 3, 82, 0
9, 62520, Note_on_c, 3, 75, 84
9, 62520, Note_on_c, 3, 79, 84
9, 62631, Note_on_c, 3, 75, 0
9, 62631, Note_on_c, 3, 79, 0
9, 62640, Note_on_c, 3, 74, 84
9, 62640, Note_on_c, 3, 77, 84
9, 62871, Note_on_c, 3, 74, 0
9, 62871, Note_on_c, 3, 77, 0
9, 62878, Control_c, 3, 11, 127
9, 62880, Note_on_c, 3, 74, 76
9, 62880, Note_on_c, 3, 77, 76
9, 62999, Note_on_c, 3, 74, 0
9, 62999, Note_on_c, 3, 77, 0
9, 63000, Note_on_c, 3, 82, 84
9, 63000, Note_on_c, 3, 77, 84
9, 63030, Control_c, 3, 11, 112
9, 63239, Note_on_c, 3, 82, 0
9, 63239, Note_on_c, 3, 77, 0
9, 63240, Note_on_c, 3, 74, 84
9, 63240, Note_on_c, 3, 77, 84
9, 63351, Note_on_c, 3, 74, 0
9, 63351, Note_on_c, 3, 77, 0
9, 63358, Control_c, 3, 11, 127
9, 63360, Note_on_c, 3, 75, 76
9, 63360, Note_on_c, 3, 72, 76
9, 63591, Note_on_c, 3, 75, 0
9, 63591, Note_on_c, 3, 72, 0
9, 63600, Note_on_c, 3, 72, 76
9, 63600, Note_on_c, 3, 75, 76
9, 63719, Note_on_c, 3, 72, 0
9, 63719, Note_on_c, 3, 75, 0
9, 63720, Note_on_c, 3, 74, 76
9, 63720, Note_on_c, 3, 77, 76
9, 63959, Note_on_c, 3, 74, 0
9, 63959, Note_on_c, 3, 77, 0
9, 63960, Note_on_c, 3, 72, 76
9, 63960, Note_on_c, 3, 75, 76
9, 64071, Note_on_c, 3, 72, 0
9, 64071, Note_on_c, 3, 75, 0
9, 64080, Note_on_c, 3, 70, 76
9, 64080, Note_on_c, 3, 74, 76
9, 64311, Note_on_c, 3, 70, 0
9, 64311, Note_on_c, 3, 74, 0
9, 64320, Note_on_c, 3, 70, 76
9, 64320, Note_on_c, 3, 74, 76
9, 64439, Note_on_c, 3, 70, 0
9, 64439, Note_on_c, 3, 74, 0
9, 64440, Note_on_c, 3, 72, 76
9, 64440, Note_on_c, 3, 75, 76
9, 64679, Note_on_c, 3, 72, 0
9, 64679, Note_on_c, 3, 75, 0
9, 64680, Note_on_c, 3, 74, 76
9, 64680, Note_on_c, 3, 77, 76
9, 64791, Note_on_c, 3, 74, 0
9, 64791, Note_on_c, 3, 77, 0
9, 64800, Note_on_c, 3, 79, 80
9, 64800, Note_on_c, 3, 75, 80
9, 65391, Note_on_c, 3, 79, 0
9, 65391, Note_on_c, 3, 75, 0
9, 65400, Note_on_c, 3, 75, 80
9, 65400, Note_on_c, 3, 79, 80
9, 65511, Note_on_c, 3, 75, 0
9, 65511, Note_on_c, 3, 79, 0
9, 65520, Note_on_c, 3, 77, 80
9, 65520, Note_on_c, 3, 74, 80
9, 66111, Note_on_c, 3, 77, 0
9, 66111, Note_on_c, 3, 74, 0
9, 66120, Note_on_c, 3, 77, 80
9, 66120, Note_on_c, 3, 74, 80
9, 66231, Note_on_c, 3, 77, 0
9, 66231, Note_on_c, 3, 74, 0
9, 66240, Note_on_c, 3, 76, 84
9, 66240, Note_on_c, 3, 70, 84
9, 66831, Note_on_c, 3, 76, 0
9, 66831, Note_on_c, 3, 70, 0
9, 66840, Note_on_c, 3, 70, 84
9, 66840, Note_on_c, 3, 76, 84
9, 66951, Note_on_c, 3, 70, 0
9, 66951, Note_on_c, 3, 76, 0
9, 66960, Note_on_c, 3, 73, 84
9, 66960, Note_on_c, 3, 77, 84
9, 66975, Control_c, 3, 11, 125
9, 66990, Control_c, 3, 11, 124
9, 67005, Control_c, 3, 11, 122
9, 67020, Control_c, 3, 11, 120
9, 67035, Control_c, 3, 11, 119
9, 67050, Control_c, 3, 11, 117
9, 67065, Control_c, 3, 11, 115
9, 67080, Control_c, 3, 11, 114
9, 67095, Control_c, 3, 11, 112
9, 67110, Control_c, 3, 11, 111
9, 67125, Control_c, 3, 11, 109
9, 67140, Control_c, 3, 11, 107
9, 67155, Control_c, 3, 11, 106
9, 67170, Control_c, 3, 11, 104
9, 67185, Control_c, 3, 11, 102
9, 67191, Note_on_c, 3, 73, 0
9, 67191, Note_on_c, 3, 77, 0
9, 67200, Note_on_c, 3, 77, 84
9, 67200, Control_c, 3, 11, 101
9, 67200, Note_on_c, 3, 73, 84
9, 67215, Control_c, 3, 11, 99
9, 67230, Control_c, 3, 11, 97
9, 67245, Control_c, 3, 11, 96
9, 67260, Control_c, 3, 11, 94
9, 67275, Control_c, 3, 11, 92
9, 67290, Control_c, 3, 11, 91
9, 67305, Control_c, 3, 11, 89
9, 67311, Note_on_c, 3, 77, 0
9, 67311, Note_on_c, 3, 73, 0
9, 67320, Note_on_c, 3, 75, 84
9, 67320, Note_on_c, 3, 78, 84
9, 67320, Control_c, 3, 11, 88
9, 67335, Control_c, 3, 11, 86
9, 67350, Control_c, 3, 11, 84
9, 67365, Control_c, 3, 11, 83
9, 67380, Control_c, 3, 11, 81
9, 67395, Control_c, 3, 11, 79
9, 67410, Control_c, 3, 11, 78
9, 67425, Control_c, 3, 11, 76
9, 67440, Control_c, 3, 11, 74
9, 67455, Control_c, 3, 11, 73
9, 67470, Control_c, 3, 11, 71
9, 67485, Control_c, 3, 11, 69
9, 67500, Control_c, 3, 11, 68
9, 67515, Control_c, 3, 11, 66
9, 67530, Control_c, 3, 11, 64
9, 67545, Control_c, 3, 11, 63
9, 67551, Note_on_c, 3, 75, 0
9, 67551, Note_on_c, 3, 78, 0
9, 67560, Note_on_c, 3, 75, 84
9, 67560, Note_on_c, 3, 78, 84
9, 67560, Control_c, 3, 11, 61
9, 67575, Control_c, 3, 11, 60
9, 67590, Control_c, 3, 11, 58
9, 67605, Control_c, 3, 11, 56
9, 67620, Control_c, 3, 11, 55
9, 67635, Control_c, 3, 11, 53
9, 67650, Control_c, 3, 11, 51
9, 67665, Control_c, 3, 11, 50
9, 67671, Note_on_c, 3, 75, 0
9, 67671, Note_on_c, 3, 78, 0
9, 67678, Control_c, 3, 11, 64
9, 67680, Note_on_c, 3, 77, 76
9, 67680, Note_on_c, 3, 73, 76
9, 68399, Note_on_c, 3, 73, 0
9, 68400, Note_on_c, 3, 75, 76
9, 69119, Note_on_c, 3, 77, 0
9, 69119, Note_on_c, 3, 75, 0
9, 69120, Note_on_c, 3, 73, 76
9, 69120, Note_on_c, 3, 77, 76
9, 69839, Note_on_c, 3, 73, 0
9, 69840, Note_on_c, 3, 68, 76
9, 70199, Note_on_c, 3, 68, 0
9, 70200, Note_on_c, 3, 67, 76
9, 70551, Note_on_c, 3, 77, 0
9, 70551, Note_on_c, 3, 67, 0
9, 70558, Control_c, 3, 11, 80
9, 70560, Note_on_c, 3, 67, 76
9, 70560, Note_on_c, 3, 76, 76
9, 70799, Note_on_c, 3, 67, 0
9, 70799, Note_on_c, 3, 76, 0
9, 71760, Control_c, 3, 11, 127
9, 71880, Note_on_c, 3, 74, 76
9, 71880, Note_on_c, 3, 77, 76
9, 71991, Note_on_c, 3, 74, 0
9, 71991, Note_on_c, 3, 77, 0
9, 72000, Note_on_c, 3, 71, 76
9, 72000, Note_on_c, 3, 74, 76
9, 72479, Note_on_c, 3, 71, 0
9, 72479, Note_on_c, 3, 74, 0
9, 72600, Note_on_c, 3, 74, 76
9, 72600, Note_on_c, 3, 71, 76
9, 72711, Note_on_c, 3, 74, 0
9, 72711, Note_on_c, 3, 71, 0
9, 72720, Note_on_c, 3, 72, 76
9, 72720, Note_on_c, 3, 76, 76
9, 73199, Note_on_c, 3, 72, 0
9, 73199, Note_on_c, 3, 76, 0
9, 73320, Note_on_c, 3, 76, 76
9, 73320, Note_on_c, 3, 72, 76
9, 73439, Note_on_c, 3, 76, 0
9, 73439, Note_on_c, 3, 72, 0
9, 74880, Note_on_c, 3, 74, 76
9, 74880, Note_on_c, 3, 71, 76
9, 75359, Note_on_c, 3, 74, 0
9, 75359, Note_on_c, 3, 71, 0
9, 75480, Note_on_c, 3, 71, 76
9, 75480, Note_on_c, 3, 74, 76
9, 75591, Note_on_c, 3, 71, 0
9, 75591, Note_on_c, 3, 74, 0
9, 75600, Note_on_c, 3, 76, 76
9, 75600, Note_on_c, 3, 72, 76
9, 76079, Note_on_c, 3, 76, 0
9, 76079, Note_on_c, 3, 72, 0
9, 76200, Note_on_c, 3, 72, 76
9, 76200, Note_on_c, 3, 76, 76
9, 76311, Note_on_c, 3, 72, 0
9, 76311, Note_on_c, 3, 76, 0
9, 76320, Note_on_c, 3, 76, 84
9, 76320, Note_on_c, 3, 72, 84
9, 76911, Note_on_c, 3, 76, 0
9, 76911, Note_on_c, 3, 72, 0
9, 76920, Note_on_c, 3, 76, 84
9, 76920, Note_on_c, 3, 72, 84
9, 77031, Note_on_c, 3, 76, 0
9, 77031, Note_on_c, 3, 72, 0
9, 77040, Note_on_c, 3, 72, 84
9, 77040, Note_on_c, 3, 76, 84
9, 77631, Note_on_c, 3, 72, 0
9, 77631, Note_on_c, 3, 76, 0
9, 77640, Note_on_c, 3, 72, 84
9, 77640, Note_on_c, 3, 76, 84
9, 77751, Note_on_c, 3, 72, 0
9, 77751, Note_on_c, 3, 76, 0
9, 77760, Note_on_c, 3, 76, 84
9, 77760, Note_on_c, 3, 72, 84
9, 77790, Control_c, 3, 11, 126
9, 77820, Control_c, 3, 11, 124
9, 77850, Control_c, 3, 11, 123
9, 77880, Control_c, 3, 11, 122
9, 77910, Control_c, 3, 11, 120
9, 77940, Control_c, 3, 11, 119
9, 77970, Control_c, 3, 11, 118
9, 78000, Control_c, 3, 11, 117
9, 78030, Control_c, 3, 11, 115
9, 78060, Control_c, 3, 11, 114
9, 78090, Control_c, 3, 11, 113
9, 78120, Control_c, 3, 11, 111
9, 78150, Control_c, 3, 11, 110
9, 78180, Control_c, 3, 11, 109
9, 78210, Control_c, 3, 11, 107
9, 78240, Control_c, 3, 11, 106
9, 78270, Control_c, 3, 11, 105
9, 78300, Control_c, 3, 11, 103
9, 78330, Control_c, 3, 11, 102
9, 78360, Control_c, 3, 11, 101
9, 78390, Control_c, 3, 11, 99
9, 78420, Control_c, 3, 11, 98
9, 78450, Control_c, 3, 11, 97
9, 78480, Control_c, 3, 11, 96
9, 78510, Control_c, 3, 11, 94
9, 78540, Control_c, 3, 11, 93
9, 78570, Control_c, 3, 11, 92
9, 78600, Control_c, 3, 11, 90
9, 78630, Control_c, 3, 11, 89
9, 78660, Control_c, 3, 11, 88
9, 78690, Control_c, 3, 11, 86
9, 78720, Control_c, 3, 11, 85
9, 78750, Control_c, 3, 11, 84
9, 78780, Control_c, 3, 11, 82
9, 78810, Control_c, 3, 11, 81
9, 78840, Control_c, 3, 11, 80
9, 78870, Control_c, 3, 11, 78
9, 78900, Control_c, 3, 11, 77
9, 78930, Control_c, 3, 11, 76
9, 78960, Control_c, 3, 11, 75
9, 78990, Control_c, 3, 11, 73
9, 79020, Control_c, 3, 11, 72
9, 79050, Control_c, 3, 11, 71
9, 79080, Control_c, 3, 11, 69
9, 79110, Control_c, 3, 11, 68
9, 79140, Control_c, 3, 11, 67
9, 79191, Note_on_c, 3, 76, 0
9, 79191, Note_on_c, 3, 72, 0
9, 79192, Control_c, 3, 11, 80
9, 79200, Note_on_c, 3, 72, 76
9, 79200, Note_on_c, 3, 76, 76
9, 79920, Control_c, 3, 11, 80
9, 79965, Control_c, 3, 11, 79
9, 80010, Control_c, 3, 11, 78
9, 80055, Control_c, 3, 11, 77
9, 80100, Control_c, 3, 11, 76
9, 80145, Control_c, 3, 11, 75
9, 80190, Control_c, 3, 11, 74
9, 80235, Control_c, 3, 11, 73
9, 80280, Control_c, 3, 11, 72
9, 80325, Control_c, 3, 11, 71
9, 80370, Control_c, 3, 11, 70
9, 80415, Control_c, 3, 11, 69
9, 80460, Control_c, 3, 11, 68
9, 80505, Control_c, 3, 11, 67
9, 80517, Note_on_c, 3, 76, 0
9, 80520, Note_on_c, 3, 76, 76
9, 80550, Control_c, 3, 11, 66
9, 80595, Control_c, 3, 11, 64
9, 80631, Note_on_c, 3, 76, 0
9, 80760, Note_on_c, 3, 67, 76
9, 80864, Note_on_c, 3, 67, 0
9, 80879, Note_on_c, 3, 72, 0
9, 80880, Note_on_c, 3, 76, 76
9, 80969, Note_on_c, 3, 76, 0
9, 81000, Note_on_c, 3, 72, 76
9, 81104, Note_on_c, 3, 72, 0
9, 81120, Note_on_c, 3, 67, 76
9, 81224, Note_on_c, 3, 67, 0
9, 81240, Note_on_c, 3, 76, 76
9, 81329, Note_on_c, 3, 76, 0
9, 81358, Control_c, 3, 11, 80
9, 81360, Note_on_c, 3, 72, 68
9, 81464, Note_on_c, 3, 72, 0
9, 81480, Note_on_c, 3, 67, 68
9, 81584, Note_on_c, 3, 67, 0
9, 81600, Note_on_c, 3, 76, 68
9, 81689, Note_on_c, 3, 76, 0
9, 81720, Note_on_c, 3, 70, 68
9, 81720, Note_on_c, 3, 72, 68
9, 81720, Control_c, 3, 11, 80
9, 81758, Control_c, 3, 11, 81
9, 81797, Control_c, 3, 11, 82
9, 81824, Note_on_c, 3, 72, 0
9, 81835, Control_c, 3, 11, 83
9, 81840, Note_on_c, 3, 67, 68
9, 81873, Control_c, 3, 11, 84
9, 81911, Control_c, 3, 11, 85
9, 81944, Note_on_c, 3, 67, 0
9, 81950, Control_c, 3, 11, 86
9, 81960, Note_on_c, 3, 72, 68
9, 81988, Control_c, 3, 11, 87
9, 82026, Control_c, 3, 11, 88
9, 82049, Note_on_c, 3, 72, 0
9, 82065, Control_c, 3, 11, 89
9, 82080, Note_on_c, 3, 72, 68
9, 82103, Control_c, 3, 11, 90
9, 82141, Control_c, 3, 11, 91
9, 82180, Control_c, 3, 11, 92
9, 82218, Control_c, 3, 11, 93
9, 82256, Control_c, 3, 11, 94
9, 82294, Control_c, 3, 11, 95
9, 82333, Control_c, 3, 11, 96
9, 82371, Control_c, 3, 11, 97
9, 82409, Control_c, 3, 11, 98
9, 82431, Note_on_c, 3, 72, 0
9, 82440, Note_on_c, 3, 82, 68
9, 82448, Control_c, 3, 11, 99
9, 82486, Control_c, 3, 11, 100
9, 82524, Control_c, 3, 11, 101
9, 82563, Control_c, 3, 11, 102
9, 82601, Control_c, 3, 11, 103
9, 82639, Control_c, 3, 11, 104
9, 82677, Control_c, 3, 11, 105
9, 82716, Control_c, 3, 11, 106
9, 82754, Control_c, 3, 11, 107
9, 82792, Control_c, 3, 11, 108
9, 82799, Note_on_c, 3, 70, 0
9, 82800, Note_on_c, 3, 70, 68
9, 82831, Control_c, 3, 11, 109
9, 82869, Control_c, 3, 11, 110
9, 82907, Control_c, 3, 11, 111
9, 82946, Control_c, 3, 11, 112
9, 82984, Control_c, 3, 11, 113
9, 83022, Control_c, 3, 11, 114
9, 83060, Control_c, 3, 11, 115
9, 83099, Control_c, 3, 11, 116
9, 83137, Control_c, 3, 11, 117
9, 83175, Control_c, 3, 11, 118
9, 83214, Control_c, 3, 11, 119
9, 83252, Control_c, 3, 11, 120
9, 83290, Control_c, 3, 11, 121
9, 83329, Control_c, 3, 11, 122
9, 83367, Control_c, 3, 11, 123
9, 83405, Control_c, 3, 11, 124
9, 83443, Control_c, 3, 11, 125
9, 83482, Control_c, 3, 11, 127
9, 83511, Note_on_c, 3, 82, 0
9, 83511, Note_on_c, 3, 70, 0
9, 83520, Note_on_c, 3, 69, 52
9, 83520, Note_on_c, 3, 81, 52
9, 83871, Note_on_c, 3, 69, 0
9, 83871, Note_on_c, 3, 81, 0
9, 83880, Note_on_c, 3, 69, 52
9, 83880, Note_on_c, 3, 65, 52
9, 84959, Note_on_c, 3, 69, 0
9, 84959, Note_on_c, 3, 65, 0
9, 84960, Note_on_c, 3, 69, 52
9, 84960, Note_on_c, 3, 65, 52
9, 85671, Note_on_c, 3, 69, 0
9, 85671, Note_on_c, 3, 65, 0
9, 85680, Note_on_c, 3, 70, 52
9, 85680, Note_on_c, 3, 65, 52
9, 86271, Note_on_c, 3, 70, 0
9, 86271, Note_on_c, 3, 65, 0
9, 86280, Note_on_c, 3, 70, 52
9, 86280, Note_on_c, 3, 67, 52
9, 86391, Note_on_c, 3, 70, 0
9, 86391, Note_on_c, 3, 67, 0
9, 86400, Note_on_c, 3, 70, 52
9, 86400, Note_on_c, 3, 67, 52
9, 87111, Note_on_c, 3, 70, 0
9, 87111, Note_on_c, 3, 67, 0
9, 87120, Note_on_c, 3, 69, 52
9, 87120, Note_on_c, 3, 65, 52
9, 87839, Note_on_c, 3, 69, 0
9, 87840, Note_on_c, 3, 67, 52
9, 88191, Note_on_c, 3, 65, 0
9, 88191, Note_on_c, 3, 67, 0
9, 88200, Note_on_c, 3, 67, 52
9, 88200, Note_on_c, 3, 64, 52
9, 88551, Note_on_c, 3, 67, 0
9, 88551, Note_on_c, 3, 64, 0
9, 88558, Control_c, 3, 11, 64
9, 88560, Note_on_c, 3, 65, 84
9, 88560, Note_on_c, 3, 69, 84
9, 88663, Control_c, 3, 11, 65
9, 88766, Control_c, 3, 11, 66
9, 88869, Control_c, 3, 11, 67
9, 88971, Control_c, 3, 11, 68
9, 89074, Control_c, 3, 11, 69
9, 89177, Control_c, 3, 11, 70
9, 89271, Note_on_c, 3, 65, 0
9, 89271, Note_on_c, 3, 69, 0
9, 89280, Note_on_c, 3, 60, 84
9, 89280, Control_c, 3, 11, 71
9, 89280, Note_on_c, 3, 57, 84
9, 89383, Control_c, 3, 11, 72
9, 89391, Note_on_c, 3, 60, 0
9, 89391, Note_on_c, 3, 57, 0
9, 89400, Note_on_c, 3, 60, 84
9, 89400, Note_on_c, 3, 57, 84
9, 89486, Control_c, 3, 11, 73
9, 89511, Note_on_c, 3, 60, 0
9, 89511, Note_on_c, 3, 57, 0
9, 89520, Note_on_c, 3, 60, 84
9, 89520, Note_on_c, 3, 57, 84
9, 89589, Control_c, 3, 11, 74
9, 89631, Note_on_c, 3, 60, 0
9, 89631, Note_on_c, 3, 57, 0
9, 89640, Note_on_c, 3, 57, 84
9, 89640, Note_on_c, 3, 60, 84
9, 89691, Control_c, 3, 11, 75
9, 89751, Note_on_c, 3, 57, 0
9, 89751, Note_on_c, 3, 60, 0
9, 89760, Note_on_c, 3, 57, 84
9, 89760, Note_on_c, 3, 60, 84
9, 89794, Control_c, 3, 11, 76
9, 89871, Note_on_c, 3, 57, 0
9, 89871, Note_on_c, 3, 60, 0
9, 89880, Note_on_c, 3, 57, 84
9, 89880, Note_on_c, 3, 60, 84
9, 89897, Control_c, 3, 11, 77
9, 89991, Note_on_c, 3, 57, 0
9, 89991, Note_on_c, 3, 60, 0
9, 90000, Control_c, 3, 11, 78
9, 90000, Note_on_c, 3, 57, 84
9, 90000, Note_on_c, 3, 60, 84
9, 90103, Control_c, 3, 11, 79
9, 90111, Note_on_c, 3, 57, 0
9, 90111, Note_on_c, 3, 60, 0
9, 90120, Note_on_c, 3, 57, 84
9, 90120, Note_on_c, 3, 60, 84
9, 90206, Control_c, 3, 11, 80
9, 90231, Note_on_c, 3, 57, 0
9, 90231, Note_on_c, 3, 60, 0
9, 90240, Note_on_c, 3, 60, 84
9, 90240, Note_on_c, 3, 57, 84
9, 90309, Control_c, 3, 11, 81
9, 90351, Note_on_c, 3, 60, 0
9, 90351, Note_on_c, 3, 57, 0
9, 90360, Note_on_c, 3, 60, 84
9, 90360, Note_on_c, 3, 57, 84
9, 90411, Control_c, 3, 11, 82
9, 90471, Note_on_c, 3, 60, 0
9, 90471, Note_on_c, 3, 57, 0
9, 90480, Note_on_c, 3, 60, 84
9, 90480, Note_on_c, 3, 57, 84
9, 90514, Control_c, 3, 11, 83
9, 90591, Note_on_c, 3, 60, 0
9, 90591, Note_on_c, 3, 57, 0
9, 90600, Note_on_c, 3, 60, 84
9, 90600, Note_on_c, 3, 57, 84
9, 90617, Control_c, 3, 11, 84
9, 90711, Note_on_c, 3, 60, 0
9, 90711, Note_on_c, 3, 57, 0
9, 90720, Control_c, 3, 11, 85
9, 90720, Note_on_c, 3, 57, 84
9, 90720, Note_on_c, 3, 60, 84
9, 90823, Control_c, 3, 11, 86
9, 90831, Note_on_c, 3, 57, 0
9, 90831, Note_on_c, 3, 60, 0
9, 90840, Note_on_c, 3, 57, 84
9, 90840, Note_on_c, 3, 60, 84
9, 90926, Control_c, 3, 11, 87
9, 90951, Note_on_c, 3, 57, 0
9, 90951, Note_on_c, 3, 60, 0
9, 90960, Note_on_c, 3, 57, 84
9, 90960, Note_on_c, 3, 60, 84
9, 91029, Control_c, 3, 11, 88
9, 91071, Note_on_c, 3, 57, 0
9, 91071, Note_on_c, 3, 60, 0
9, 91080, Note_on_c, 3, 60, 84
9, 91080, Note_on_c, 3, 57, 84
9, 91131, Control_c, 3, 11, 89
9, 91191, Note_on_c, 3, 60, 0
9, 91191, Note_on_c, 3, 57, 0
9, 91200, Note_on_c, 3, 57, 84
9, 91200, Note_on_c, 3, 60, 84
9, 91234, Control_c, 3, 11, 90
9, 91311, Note_on_c, 3, 57, 0
9, 91311, Note_on_c, 3, 60, 0
9, 91320, Note_on_c, 3, 57, 84
9, 91320, Note_on_c, 3, 60, 84
9, 91337, Control_c, 3, 11, 91
9, 91431, Note_on_c, 3, 57, 0
9, 91431, Note_on_c, 3, 60, 0
9, 91440, Note_on_c, 3, 62, 84
9, 91440, Control_c, 3, 11, 92
9, 91440, Note_on_c, 3, 58, 84
9, 91543, Control_c, 3, 11, 93
9, 91551, Note_on_c, 3, 62, 0
9, 91551, Note_on_c, 3, 58, 0
9, 91560, Note_on_c, 3, 62, 84
9, 91560, Note_on_c, 3, 58, 84
9, 91646, Control_c, 3, 11, 94
9, 91671, Note_on_c, 3, 62, 0
9, 91671, Note_on_c, 3, 58, 0
9, 91680, Note_on_c, 3, 62, 84
9, 91680, Note_on_c, 3, 58, 84
9, 91749, Control_c, 3, 11, 95
9, 91791, Note_on_c, 3, 62, 0
9, 91791, Note_on_c, 3, 58, 0
9, 91800, Note_on_c, 3, 62, 84
9, 91800, Note_on_c, 3, 58, 84
9, 91851, Control_c, 3, 11, 96
9, 91911, Note_on_c, 3, 62, 0
9, 91911, Note_on_c, 3, 58, 0
9, 91920, Note_on_c, 3, 62, 84
9, 91920, Note_on_c, 3, 58, 84
9, 91954, Control_c, 3, 11, 97
9, 92031, Note_on_c, 3, 62, 0
9, 92031, Note_on_c, 3, 58, 0
9, 92040, Note_on_c, 3, 58, 84
9, 92040, Note_on_c, 3, 60, 84
9, 92057, Control_c, 3, 11, 98
9, 92151, Note_on_c, 3, 58, 0
9, 92151, Note_on_c, 3, 60, 0
9, 92160, Note_on_c, 3, 58, 84
9, 92160, Control_c, 3, 11, 99
9, 92160, Note_on_c, 3, 60, 84
9, 92263, Control_c, 3, 11, 100
9, 92271, Note_on_c, 3, 58, 0
9, 92271, Note_on_c, 3, 60, 0
9, 92280, Note_on_c, 3, 58, 84
9, 92280, Note_on_c, 3, 60, 84
9, 92366, Control_c, 3, 11, 101
9, 92391, Note_on_c, 3, 58, 0
9, 92391, Note_on_c, 3, 60, 0
9, 92400, Note_on_c, 3, 58, 84
9, 92400, Note_on_c, 3, 60, 84
9, 92469, Control_c, 3, 11, 102
9, 92511, Note_on_c, 3, 58, 0
9, 92511, Note_on_c, 3, 60, 0
9, 92520, Note_on_c, 3, 58, 84
9, 92520, Note_on_c, 3, 60, 84
9, 92571, Control_c, 3, 11, 103
9, 92631, Note_on_c, 3, 58, 0
9, 92631, Note_on_c, 3, 60, 0
9, 92640, Note_on_c, 3, 60, 84
9, 92640, Note_on_c, 3, 58, 84
9, 92674, Control_c, 3, 11, 104
9, 92751, Note_on_c, 3, 60, 0
9, 92751, Note_on_c, 3, 58, 0
9, 92760, Note_on_c, 3, 60, 84
9, 92760, Note_on_c, 3, 64, 84
9, 92777, Control_c, 3, 11, 105
9, 92871, Note_on_c, 3, 60, 0
9, 92871, Note_on_c, 3, 64, 0
9, 92880, Control_c, 3, 11, 106
9, 92880, Note_on_c, 3, 60, 84
9, 92880, Note_on_c, 3, 65, 84
9, 92983, Control_c, 3, 11, 107
9, 92991, Note_on_c, 3, 60, 0
9, 92991, Note_on_c, 3, 65, 0
9, 93000, Note_on_c, 3, 60, 84
9, 93000, Note_on_c, 3, 57, 84
9, 93086, Control_c, 3, 11, 108
9, 93111, Note_on_c, 3, 60, 0
9, 93111, Note_on_c, 3, 57, 0
9, 93120, Note_on_c, 3, 57, 84
9, 93120, Note_on_c, 3, 60, 84
9, 93189, Control_c, 3, 11, 109
9, 93231, Note_on_c, 3, 57, 0
9, 93231, Note_on_c, 3, 60, 0
9, 93240, Note_on_c, 3, 62, 84
9, 93240, Note_on_c, 3, 57, 84
9, 93291, Control_c, 3, 11, 110
9, 93351, Note_on_c, 3, 62, 0
9, 93351, Note_on_c, 3, 57, 0
9, 93360, Note_on_c, 3, 62, 84
9, 93360, Note_on_c, 3, 57, 84
9, 93394, Control_c, 3, 11, 111
9, 93471, Note_on_c, 3, 62, 0
9, 93471, Note_on_c, 3, 57, 0
9, 93480, Note_on_c, 3, 57, 84
9, 93480, Note_on_c, 3, 60, 84
9, 93497, Control_c, 3, 11, 112
9, 93591, Note_on_c, 3, 57, 0
9, 93591, Note_on_c, 3, 60, 0
9, 93600, Note_on_c, 3, 62, 84
9, 93600, Control_c, 3, 11, 113
9, 93600, Note_on_c, 3, 55, 84
9, 93703, Control_c, 3, 11, 114
9, 93711, Note_on_c, 3, 62, 0
9, 93711, Note_on_c, 3, 55, 0
9, 93720, Note_on_c, 3, 62, 84
9, 93720, Note_on_c, 3, 55, 84
9, 93806, Control_c, 3, 11, 115
9, 93831, Note_on_c, 3, 62, 0
9, 93831, Note_on_c, 3, 55, 0
9, 93840, Note_on_c, 3, 55, 84
9, 93840, Note_on_c, 3, 62, 84
9, 93909, Control_c, 3, 11, 116
9, 93951, Note_on_c, 3, 55, 0
9, 93951, Note_on_c, 3, 62, 0
9, 93960, Note_on_c, 3, 60, 84
9, 93960, Note_on_c, 3, 55, 84
9, 94011, Control_c, 3, 11, 117
9, 94071, Note_on_c, 3, 60, 0
9, 94071, Note_on_c, 3, 55, 0
9, 94080, Note_on_c, 3, 60, 84
9, 94080, Note_on_c, 3, 55, 84
9, 94114, Control_c, 3, 11, 118
9, 94191, Note_on_c, 3, 60, 0
9, 94191, Note_on_c, 3, 55, 0
9, 94200, Note_on_c, 3, 60, 84
9, 94200, Note_on_c, 3, 55, 84
9, 94217, Control_c, 3, 11, 119
9, 94311, Note_on_c, 3, 60, 0
9, 94311, Note_on_c, 3, 55, 0
9, 94320, Note_on_c, 3, 57, 84
9, 94320, Control_c, 3, 11, 120
9, 94320, Note_on_c, 3, 60, 84
9, 94423, Control_c, 3, 11, 121
9, 94431, Note_on_c, 3, 57, 0
9, 94431, Note_on_c, 3, 60, 0
9, 94440, Note_on_c, 3, 60, 84
9, 94440, Note_on_c, 3, 57, 84
9, 94526, Control_c, 3, 11, 122
9, 94551, Note_on_c, 3, 60, 0
9, 94551, Note_on_c, 3, 57, 0
9, 94560, Note_on_c, 3, 60, 84
9, 94560, Note_on_c, 3, 57, 84
9, 94629, Control_c, 3, 11, 123
9, 94671, Note_on_c, 3, 60, 0
9, 94671, Note_on_c, 3, 57, 0
9, 94680, Note_on_c, 3, 57, 84
9, 94680, Note_on_c, 3, 60, 84
9, 94731, Control_c, 3, 11, 124
9, 94791, Note_on_c, 3, 57, 0
9, 94791, Note_on_c, 3, 60, 0
9, 94800, Note_on_c, 3, 57, 84
9, 94800, Note_on_c, 3, 60, 84
9, 94834, Control_c, 3, 11, 125
9, 94911, Note_on_c, 3, 57, 0
9, 94911, Note_on_c, 3, 60, 0
9, 94920, Note_on_c, 3, 60, 84
9, 94920, Note_on_c, 3, 57, 84
9, 94937, Control_c, 3, 11, 126
9, 95031, Note_on_c, 3, 60, 0
9, 95031, Note_on_c, 3, 57, 0
9, 95038, Control_c, 3, 11, 127
9, 95040, Note_on_c, 3, 65, 84
9, 95040, Note_on_c, 3, 69, 84
9, 95631, Note_on_c, 3, 65, 0
9, 95631, Note_on_c, 3, 69, 0
9, 95640, Note_on_c, 3, 69, 84
9, 95640, Note_on_c, 3, 65, 84
9, 95751, Note_on_c, 3, 69, 0
9, 95751, Note_on_c, 3, 65, 0
9, 95760, Note_on_c, 3, 69, 84
9, 95760, Note_on_c, 3, 65, 84
9, 96351, Note_on_c, 3, 69, 0
9, 96351, Note_on_c, 3, 65, 0
9, 96360, Note_on_c, 3, 65, 84
9, 96360, Note_on_c, 3, 69, 84
9, 96471, Note_on_c, 3, 65, 0
9, 96471, Note_on_c, 3, 69, 0
9, 96480, Note_on_c, 3, 65, 84
9, 96480, Note_on_c, 3, 69, 84
9, 97071, Note_on_c, 3, 65, 0
9, 97071, Note_on_c, 3, 69, 0
9, 97080, Note_on_c, 3, 65, 84
9, 97080, Note_on_c, 3, 69, 84
9, 97191, Note_on_c, 3, 65, 0
9, 97191, Note_on_c, 3, 69, 0
9, 97200, Note_on_c, 3, 70, 84
9, 97200, Note_on_c, 3, 65, 84
9, 97791, Note_on_c, 3, 70, 0
9, 97791, Note_on_c, 3, 65, 0
9, 97800, Note_on_c, 3, 70, 84
9, 97800, Note_on_c, 3, 67, 84
9, 97911, Note_on_c, 3, 70, 0
9, 97911, Note_on_c, 3, 67, 0
9, 97920, Note_on_c, 3, 70, 84
9, 97920, Note_on_c, 3, 67, 84
9, 98511, Note_on_c, 3, 70, 0
9, 98511, Note_on_c, 3, 67, 0
9, 98520, Note_on_c, 3, 67, 84
9, 98520, Note_on_c, 3, 70, 84
9, 98631, Note_on_c, 3, 67, 0
9, 98631, Note_on_c, 3, 70, 0
9, 98640, Note_on_c, 3, 69, 84
9, 98640, Note_on_c, 3, 67, 84
9, 98751, Note_on_c, 3, 67, 0
9, 98760, Note_on_c, 3, 65, 84
9, 99231, Note_on_c, 3, 69, 0
9, 99231, Note_on_c, 3, 65, 0
9, 99240, Note_on_c, 3, 65, 84
9, 99240, Note_on_c, 3, 69, 84
9, 99351, Note_on_c, 3, 65, 0
9, 99351, Note_on_c, 3, 69, 0
9, 99360, Note_on_c, 3, 67, 84
9, 99360, Note_on_c, 3, 65, 84
9, 99711, Note_on_c, 3, 67, 0
9, 99711, Note_on_c, 3, 65, 0
9, 99720, Note_on_c, 3, 67, 84
9, 99720, Note_on_c, 3, 64, 84
9, 100071, Note_on_c, 3, 67, 0
9, 100071, Note_on_c, 3, 64, 0
9, 100080, Note_on_c, 3, 65, 84
9, 100080, Note_on_c, 3, 69, 84
9, 100199, Note_on_c, 3, 65, 0
9, 100199, Note_on_c, 3, 69, 0
9, 101400, Note_on_c, 3, 64, 84
9, 101400, Note_on_c, 3, 67, 84
9, 101511, Note_on_c, 3, 64, 0
9, 101511, Note_on_c, 3, 67, 0
9, 101520, Note_on_c, 3, 65, 84
9, 101871, Note_on_c, 3, 65, 0
9, 101880, Note_on_c, 3, 67, 84
9, 102231, Note_on_c, 3, 67, 0
9, 102240, Note_on_c, 3, 69, 84
9, 102240, Note_on_c, 3, 65, 84
9, 102591, Note_on_c, 3, 69, 0
9, 102591, Note_on_c, 3, 65, 0
9, 102600, Note_on_c, 3, 70, 84
9, 102600, Note_on_c, 3, 67, 84
9, 102831, Note_on_c, 3, 70, 0
9, 102831, Note_on_c, 3, 67, 0
9, 102840, Note_on_c, 3, 64, 84
9, 102840, Note_on_c, 3, 67, 84
9, 102959, Note_on_c, 3, 64, 0
9, 102959, Note_on_c, 3, 67, 0
9, 105720, Note_on_c, 3, 65, 84
9, 105720, Note_on_c, 3, 62, 84
9, 105831, Note_on_c, 3, 65, 0
9, 105831, Note_on_c, 3, 62, 0
9, 105840, Note_on_c, 3, 64, 88
9, 105840, Note_on_c, 3, 67, 88
9, 106191, Note_on_c, 3, 64, 0
9, 106191, Note_on_c, 3, 67, 0
9, 106200, Note_on_c, 3, 69, 88
9, 106200, Note_on_c, 3, 65, 88
9, 106551, Note_on_c, 3, 69, 0
9, 106551, Note_on_c, 3, 65, 0
9, 106560, Note_on_c, 3, 70, 88
9, 106560, Note_on_c, 3, 67, 88
9, 106911, Note_on_c, 3, 70, 0
9, 106911, Note_on_c, 3, 67, 0
9, 106920, Note_on_c, 3, 71, 88
9, 106920, Note_on_c, 3, 68, 88
9, 107151, Note_on_c, 3, 71, 0
9, 107151, Note_on_c, 3, 68, 0
9, 107160, Note_on_c, 3, 68, 88
9, 107160, Note_on_c, 3, 71, 88
9, 107271, Note_on_c, 3, 68, 0
9, 107271, Note_on_c, 3, 71, 0
9, 107280, Note_on_c, 3, 69, 96
9, 107280, Note_on_c, 3, 72, 96
9, 107340, Control_c, 3, 11, 112
9, 107871, Note_on_c, 3, 69, 0
9, 107871, Note_on_c, 3, 72, 0
9, 107880, Note_on_c, 3, 65, 96
9, 107880, Note_on_c, 3, 69, 96
9, 107991, Note_on_c, 3, 65, 0
9, 107991, Note_on_c, 3, 69, 0
9, 107998, Control_c, 3, 11, 127
9, 108000, Note_on_c, 3, 69, 88
9, 108000, Note_on_c, 3, 65, 88
9, 108231, Note_on_c, 3, 69, 0
9, 108231, Note_on_c, 3, 65, 0
9, 108240, Note_on_c, 3, 65, 88
9, 108240, Note_on_c, 3, 69, 88
9, 108351, Note_on_c, 3, 65, 0
9, 108351, Note_on_c, 3, 69, 0
9, 108360, Note_on_c, 3, 69, 88
9, 108360, Note_on_c, 3, 65, 88
9, 108591, Note_on_c, 3, 69, 0
9, 108591, Note_on_c, 3, 65, 0
9, 108600, Note_on_c, 3, 69, 88
9, 108600, Note_on_c, 3, 65, 88
9, 108711, Note_on_c, 3, 69, 0
9, 108711, Note_on_c, 3, 65, 0
9, 108720, Note_on_c, 3, 67, 88
9, 108720, Note_on_c, 3, 70, 88
9, 109311, Note_on_c, 3, 67, 0
9, 109311, Note_on_c, 3, 70, 0
9, 109320, Note_on_c, 3, 64, 88
9, 109320, Note_on_c, 3, 67, 88
9, 109431, Note_on_c, 3, 64, 0
9, 109431, Note_on_c, 3, 67, 0
9, 109440, Note_on_c, 3, 67, 88
9, 109440, Note_on_c, 3, 64, 88
9, 109671, Note_on_c, 3, 67, 0
9, 109671, Note_on_c, 3, 64, 0
9, 109680, Note_on_c, 3, 67, 88
9, 109680, Note_on_c, 3, 64, 88
9, 109791, Note_on_c, 3, 67, 0
9, 109791, Note_on_c, 3, 64, 0
9, 109800, Note_on_c, 3, 64, 88
9, 109800, Note_on_c, 3, 67, 88
9, 110031, Note_on_c, 3, 64, 0
9, 110031, Note_on_c, 3, 67, 0
9, 110040, Note_on_c, 3, 64, 88
9, 110040, Note_on_c, 3, 67, 88
9, 110151, Note_on_c, 3, 64, 0
9, 110151, Note_on_c, 3, 67, 0
9, 110160, Note_on_c, 3, 72, 88
9, 110160, Note_on_c, 3, 69, 88
9, 110391, Note_on_c, 3, 72, 0
9, 110391, Note_on_c, 3, 69, 0
9, 110400, Note_on_c, 3, 69, 88
9, 110400, Note_on_c, 3, 72, 88
9, 110511, Note_on_c, 3, 69, 0
9, 110511, Note_on_c, 3, 72, 0
9, 110520, Note_on_c, 3, 72, 88
9, 110520, Note_on_c, 3, 69, 88
9, 110751, Note_on_c, 3, 72, 0
9, 110751, Note_on_c, 3, 69, 0
9, 110760, Note_on_c, 3, 72, 88
9, 110760, Note_on_c, 3, 69, 88
9, 110871, Note_on_c, 3, 72, 0
9, 110871, Note_on_c, 3, 69, 0
9, 110880, Note_on_c, 3, 69, 88
9, 110880, Note_on_c, 3, 72, 88
9, 111111, Note_on_c, 3, 69, 0
9, 111111, Note_on_c, 3, 72, 0
9, 111120, Note_on_c, 3, 69, 88
9, 111120, Note_on_c, 3, 65, 88
9, 111231, Note_on_c, 3, 69, 0
9, 111231, Note_on_c, 3, 65, 0
9, 111240, Note_on_c, 3, 69, 88
9, 111240, Note_on_c, 3, 65, 88
9, 111471, Note_on_c, 3, 69, 0
9, 111471, Note_on_c, 3, 65, 0
9, 111480, Note_on_c, 3, 65, 88
9, 111480, Note_on_c, 3, 69, 88
9, 111591, Note_on_c, 3, 65, 0
9, 111591, Note_on_c, 3, 69, 0
9, 111600, Note_on_c, 3, 67, 88
9, 111600, Note_on_c, 3, 70, 88
9, 111831, Note_on_c, 3, 67, 0
9, 111831, Note_on_c, 3, 70, 0
9, 111840, Note_on_c, 3, 70, 88
9, 111840, Note_on_c, 3, 67, 88
9, 111951, Note_on_c, 3, 70, 0
9, 111951, Note_on_c, 3, 67, 0
9, 111960, Note_on_c, 3, 67, 88
9, 111960, Note_on_c, 3, 70, 88
9, 112191, Note_on_c, 3, 67, 0
9, 112191, Note_on_c, 3, 70, 0
9, 112200, Note_on_c, 3, 70, 88
9, 112200, Note_on_c, 3, 67, 88
9, 112311, Note_on_c, 3, 70, 0
9, 112311, Note_on_c, 3, 67, 0
9, 112320, Note_on_c, 3, 70, 88
9, 112320, Note_on_c, 3, 67, 88
9, 112551, Note_on_c, 3, 70, 0
9, 112551, Note_on_c, 3, 67, 0
9, 112560, Note_on_c, 3, 64, 88
9, 112560, Note_on_c, 3, 67, 88
9, 112671, Note_on_c, 3, 64, 0
9, 112671, Note_on_c, 3, 67, 0
9, 112680, Note_on_c, 3, 64, 88
9, 112680, Note_on_c, 3, 67, 88
9, 112911, Note_on_c, 3, 64, 0
9, 112911, Note_on_c, 3, 67, 0
9, 112920, Note_on_c, 3, 67, 88
9, 112920, Note_on_c, 3, 64, 88
9, 113031, Note_on_c, 3, 67, 0
9, 113031, Note_on_c, 3, 64, 0
9, 113040, Note_on_c, 3, 65, 88
9, 113040, Note_on_c, 3, 69, 88
9, 113279, Note_on_c, 3, 65, 0
9, 113279, Note_on_c, 3, 69, 0
9, 113760, Control_c, 3, 11, 117
9, 114000, Control_c, 3, 11, 119
9, 114000, Note_on_c, 3, 69, 76
9, 114000, Note_on_c, 3, 65, 76
9, 114030, Control_c, 3, 11, 121
9, 114060, Control_c, 3, 11, 123
9, 114090, Control_c, 3, 11, 127
9, 114119, Note_on_c, 3, 69, 0
9, 114119, Note_on_c, 3, 65, 0
9, 114120, Note_on_c, 3, 64, 76
9, 114120, Note_on_c, 3, 70, 76
9, 114351, Note_on_c, 3, 64, 0
9, 114351, Note_on_c, 3, 70, 0
9, 114360, Note_on_c, 3, 64, 76
9, 114360, Note_on_c, 3, 70, 76
9, 114471, Note_on_c, 3, 64, 0
9, 114471, Note_on_c, 3, 70, 0
9, 114480, Note_on_c, 3, 69, 76
9, 114480, Note_on_c, 3, 65, 76
9, 114719, Note_on_c, 3, 69, 0
9, 114719, Note_on_c, 3, 65, 0
9, 115050, Control_c, 3, 11, 94
9, 115080, Note_on_c, 3, 65, 76
9, 115080, Control_c, 3, 11, 96
9, 115110, Control_c, 3, 11, 98
9, 115140, Control_c, 3, 11, 100
9, 115170, Control_c, 3, 11, 102
9, 115200, Control_c, 3, 11, 104
9, 115230, Control_c, 3, 11, 105
9, 115260, Control_c, 3, 11, 107
9, 115290, Control_c, 3, 11, 109
9, 115319, Note_on_c, 3, 65, 0
9, 115320, Control_c, 3, 11, 111
9, 115320, Note_on_c, 3, 70, 76
9, 115350, Control_c, 3, 11, 113
9, 115380, Control_c, 3, 11, 115
9, 115410, Control_c, 3, 11, 117
9, 115439, Note_on_c, 3, 70, 0
9, 115440, Control_c, 3, 11, 119
9, 115440, Note_on_c, 3, 65, 76
9, 115440, Note_on_c, 3, 69, 76
9, 115470, Control_c, 3, 11, 121
9, 115500, Control_c, 3, 11, 123
9, 115530, Control_c, 3, 11, 127
9, 115551, Note_on_c, 3, 65, 0
9, 115551, Note_on_c, 3, 69, 0
9, 115560, Note_on_c, 3, 70, 76
9, 115560, Note_on_c, 3, 67, 76
9, 115791, Note_on_c, 3, 70, 0
9, 115791, Note_on_c, 3, 67, 0
9, 115800, Note_on_c, 3, 72, 76
9, 115800, Note_on_c, 3, 67, 76
9, 115889, Note_on_c, 3, 72, 0
9, 115889, Note_on_c, 3, 67, 0
9, 115920, Note_on_c, 3, 72, 84
9, 115920, Note_on_c, 3, 69, 84
9, 116279, Note_on_c, 3, 72, 0
9, 116279, Note_on_c, 3, 69, 0
9, 116280, Note_on_c, 3, 65, 84
9, 116280, Note_on_c, 3, 69, 84
9, 116399, Note_on_c, 3, 65, 0
9, 116399, Note_on_c, 3, 69, 0
9, 116520, Note_on_c, 3, 69, 84
9, 116520, Note_on_c, 3, 81, 84
9, 116609, Note_on_c, 3, 69, 0
9, 116609, Note_on_c, 3, 81, 0
9, 116640, Note_on_c, 3, 74, 84
9, 116640, Note_on_c, 3, 82, 84
9, 116999, Note_on_c, 3, 74, 0
9, 116999, Note_on_c, 3, 82, 0
9, 117000, Note_on_c, 3, 70, 84
9, 117000, Note_on_c, 3, 79, 84
9, 117119, Note_on_c, 3, 70, 0
9, 117119, Note_on_c, 3, 79, 0
9, 117240, Note_on_c, 3, 70, 84
9, 117240, Note_on_c, 3, 74, 84
9, 117329, Note_on_c, 3, 70, 0
9, 117329, Note_on_c, 3, 74, 0
9, 117360, Note_on_c, 3, 69, 84
9, 117360, Note_on_c, 3, 65, 84
9, 117479, Note_on_c, 3, 69, 0
9, 117479, Note_on_c, 3, 65, 0
9, 120600, Note_on_c, 3, 77, 44
9, 120600, Note_on_c, 3, 71, 44
9, 121199, Note_on_c, 3, 77, 0
9, 121199, Note_on_c, 3, 71, 0
9, 121320, Note_on_c, 3, 71, 44
9, 121320, Note_on_c, 3, 77, 44
9, 121559, Note_on_c, 3, 71, 0
9, 121559, Note_on_c, 3, 77, 0
9, 121680, Note_on_c, 3, 71, 44
9, 121680, Note_on_c, 3, 77, 44
9, 121919, Note_on_c, 3, 71, 0
9, 121919, Note_on_c, 3, 77, 0
9, 122040, Note_on_c, 3, 77, 44
9, 122040, Note_on_c, 3, 71, 44
9, 122279, Note_on_c, 3, 77, 0
9, 122279, Note_on_c, 3, 71, 0
9, 122280, Control_c, 3, 11, 64
9, 122400, Note_on_c, 3, 71, 76
9, 122400, Control_c, 3, 11, 64
9, 122400, Note_on_c, 3, 77, 76
9, 122444, Control_c, 3, 11, 65
9, 122488, Control_c, 3, 11, 66
9, 122531, Control_c, 3, 11, 67
9, 122575, Control_c, 3, 11, 68
9, 122619, Control_c, 3, 11, 69
9, 122639, Note_on_c, 3, 71, 0
9, 122639, Note_on_c, 3, 77, 0
9, 122663, Control_c, 3, 11, 70
9, 122707, Control_c, 3, 11, 71
9, 122750, Control_c, 3, 11, 72
9, 122760, Note_on_c, 3, 71, 76
9, 122760, Note_on_c, 3, 77, 76
9, 122794, Control_c, 3, 11, 73
9, 122838, Control_c, 3, 11, 74
9, 122882, Control_c, 3, 11, 75
9, 122926, Control_c, 3, 11, 76
9, 122970, Control_c, 3, 11, 77
9, 122999, Note_on_c, 3, 71, 0
9, 122999, Note_on_c, 3, 77, 0
9, 123013, Control_c, 3, 11, 78
9, 123057, Control_c, 3, 11, 79
9, 123101, Control_c, 3, 11, 80
9, 123120, Note_on_c, 3, 71, 76
9, 123120, Note_on_c, 3, 77, 76
9, 123145, Control_c, 3, 11, 81
9, 123189, Control_c, 3, 11, 82
9, 123232, Control_c, 3, 11, 83
9, 123276, Control_c, 3, 11, 84
9, 123320, Control_c, 3, 11, 85
9, 123359, Note_on_c, 3, 71, 0
9, 123359, Note_on_c, 3, 77, 0
9, 123364, Control_c, 3, 11, 86
9, 123408, Control_c, 3, 11, 87
9, 123451, Control_c, 3, 11, 88
9, 123480, Note_on_c, 3, 77, 76
9, 123480, Note_on_c, 3, 71, 76
9, 123495, Control_c, 3, 11, 89
9, 123539, Control_c, 3, 11, 90
9, 123583, Control_c, 3, 11, 91
9, 123627, Control_c, 3, 11, 92
9, 123670, Control_c, 3, 11, 93
9, 123714, Control_c, 3, 11, 94
9, 123719, Note_on_c, 3, 77, 0
9, 123719, Note_on_c, 3, 71, 0
9, 123758, Control_c, 3, 11, 95
9, 123802, Control_c, 3, 11, 96
9, 123840, Note_on_c, 3, 70, 76
9, 123840, Note_on_c, 3, 76, 76
9, 123846, Control_c, 3, 11, 97
9, 123890, Control_c, 3, 11, 98
9, 123933, Control_c, 3, 11, 99
9, 123977, Control_c, 3, 11, 100
9, 124021, Control_c, 3, 11, 101
9, 124065, Control_c, 3, 11, 102
9, 124079, Note_on_c, 3, 70, 0
9, 124079, Note_on_c, 3, 76, 0
9, 124109, Control_c, 3, 11, 103
9, 124152, Control_c, 3, 11, 104
9, 124196, Control_c, 3, 11, 105
9, 124200, Note_on_c, 3, 70, 76
9, 124200, Note_on_c, 3, 76, 76
9, 124240, Control_c, 3, 11, 106
9, 124284, Control_c, 3, 11, 107
9, 124328, Control_c, 3, 11, 108
9, 124371, Control_c, 3, 11, 109
9, 124415, Control_c, 3, 11, 110
9, 124439, Note_on_c, 3, 70, 0
9, 124439, Note_on_c, 3, 76, 0
9, 124459, Control_c, 3, 11, 111
9, 124503, Control_c, 3, 11, 112
9, 124547, Control_c, 3, 11, 113
9, 124560, Note_on_c, 3, 70, 76
9, 124560, Note_on_c, 3, 76, 76
9, 124590, Control_c, 3, 11, 114
9, 124634, Control_c, 3, 11, 115
9, 124678, Control_c, 3, 11, 116
9, 124722, Control_c, 3, 11, 117
9, 124766, Control_c, 3, 11, 118
9, 124799, Note_on_c, 3, 70, 0
9, 124799, Note_on_c, 3, 76, 0
9, 124810, Control_c, 3, 11, 119
9, 124853, Control_c, 3, 11, 120
9, 124897, Control_c, 3, 11, 121
9, 124920, Note_on_c, 3, 76, 76
9, 124920, Note_on_c, 3, 70, 76
9, 124941, Control_c, 3, 11, 122
9, 124985, Control_c, 3, 11, 123
9, 125029, Control_c, 3, 11, 124
9, 125039, Note_on_c, 3, 76, 0
9, 125039, Note_on_c, 3, 70, 0
9, 125072, Control_c, 3, 11, 125
9, 125116, Control_c, 3, 11, 127
9, 125160, Note_on_c, 3, 76, 76
9, 125160, Note_on_c, 3, 67, 76
9, 125871, Note_on_c, 3, 76, 0
9, 125871, Note_on_c, 3, 67, 0
9, 125880, Note_on_c, 3, 67, 76
9, 125880, Note_on_c, 3, 76, 76
9, 126231, Note_on_c, 3, 67, 0
9, 126231, Note_on_c, 3, 76, 0
9, 126240, Note_on_c, 3, 76, 76
9, 126240, Note_on_c, 3, 67, 76
9, 126591, Note_on_c, 3, 76, 0
9, 126591, Note_on_c, 3, 67, 0
9, 126600, Note_on_c, 3, 67, 76
9, 126600, Note_on_c, 3, 76, 76
9, 126711, Note_on_c, 3, 67, 0
9, 126711, Note_on_c, 3, 76, 0
9, 126720, Note_on_c, 3, 77, 84
9, 126720, Note_on_c, 3, 69, 84
9, 126839, Note_on_c, 3, 77, 0
9, 126839, Note_on_c, 3, 69, 0
9, 135480, Note_on_c, 3, 76, 80
9, 135480, Note_on_c, 3, 67, 80
9, 135591, Note_on_c, 3, 76, 0
9, 135591, Note_on_c, 3, 67, 0
9, 135600, Note_on_c, 3, 67, 80
9, 135600, Note_on_c, 3, 76, 80
9, 135711, Note_on_c, 3, 67, 0
9, 135711, Note_on_c, 3, 76, 0
9, 135720, Note_on_c, 3, 76, 81
9, 135720, Note_on_c, 3, 67, 81
9, 135831, Note_on_c, 3, 76, 0
9, 135831, Note_on_c, 3, 67, 0
9, 135840, Note_on_c, 3, 76, 82
9, 135840, Note_on_c, 3, 67, 82
9, 135951, Note_on_c, 3, 76, 0
9, 135951, Note_on_c, 3, 67, 0
9, 135960, Note_on_c, 3, 76, 83
9, 135960, Note_on_c, 3, 67, 83
9, 136071, Note_on_c, 3, 76, 0
9, 136071, Note_on_c, 3, 67, 0
9, 136080, Note_on_c, 3, 77, 84
9, 136080, Note_on_c, 3, 69, 84
9, 137391, Note_on_c, 3, 77, 0
9, 137391, Note_on_c, 3, 69, 0
9, 137400, Note_on_c, 3, 77, 84
9, 137400, Note_on_c, 3, 69, 84
9, 137511, Note_on_c, 3, 77, 0
9, 137511, Note_on_c, 3, 69, 0
9, 137520, Note_on_c, 3, 69, 84
9, 137520, Note_on_c, 3, 65, 84
9, 138831, Note_on_c, 3, 69, 0
9, 138831, Note_on_c, 3, 65, 0
9, 138840, Note_on_c, 3, 65, 84
9, 138840, Note_on_c, 3, 69, 84
9, 138951, Note_on_c, 3, 65, 0
9, 138951, Note_on_c, 3, 69, 0
9, 138960, Note_on_c, 3, 62, 84
9, 138960, Note_on_c, 3, 77, 84
9, 139680, Control_c, 3, 11, 127
9, 139700, Control_c, 3, 11, 125
9, 139720, Control_c, 3, 11, 123
9, 139740, Control_c, 3, 11, 120
9, 139760, Control_c, 3, 11, 118
9, 139780, Control_c, 3, 11, 116
9, 139800, Control_c, 3, 11, 114
9, 139820, Control_c, 3, 11, 112
9, 139840, Control_c, 3, 11, 109
9, 139860, Control_c, 3, 11, 107
9, 139880, Control_c, 3, 11, 105
9, 139900, Control_c, 3, 11, 103
9, 139920, Control_c, 3, 11, 101
9, 139940, Control_c, 3, 11, 98
9, 139960, Control_c, 3, 11, 96
9, 139980, Control_c, 3, 11, 94
9, 140000, Control_c, 3, 11, 92
9, 140020, Control_c, 3, 11, 90
9, 140040, Control_c, 3, 11, 88
9, 140060, Control_c, 3, 11, 85
9, 140080, Control_c, 3, 11, 83
9, 140100, Control_c, 3, 11, 81
9, 140120, Control_c, 3, 11, 79
9, 140140, Control_c, 3, 11, 77
9, 140160, Control_c, 3, 11, 74
9, 140180, Control_c, 3, 11, 72
9, 140200, Control_c, 3, 11, 70
9, 140220, Control_c, 3, 11, 68
9, 140240, Control_c, 3, 11, 66
9, 140260, Control_c, 3, 11, 63
9, 140271, Note_on_c, 3, 62, 0
9, 140271, Note_on_c, 3, 77, 0
9, 140280, Control_c, 3, 11, 61
9, 140280, Note_on_c, 3, 62, 84
9, 140280, Note_on_c, 3, 77, 84
9, 140300, Control_c, 3, 11, 59
9, 140320, Control_c, 3, 11, 57
9, 140340, Control_c, 3, 11, 55
9, 140360, Control_c, 3, 11, 52
9, 140380, Control_c, 3, 11, 48
9, 140399, Note_on_c, 3, 62, 0
9, 140399, Note_on_c, 3, 77, 0
9, 140880, Control_c, 3, 11, 127
9, 141000, Note_on_c, 3, 77, 44
9, 141000, Note_on_c, 3, 71, 44
9, 141055, Note_on_c, 3, 77, 0
9, 141055, Note_on_c, 3, 71, 0
9, 141060, Note_on_c, 3, 77, 44
9, 141060, Note_on_c, 3, 71, 44
9, 141115, Note_on_c, 3, 77, 0
9, 141115, Note_on_c, 3, 71, 0
9, 141120, Note_on_c, 3, 71, 44
9, 141120, Note_on_c, 3, 77, 44
9, 141239, Note_on_c, 3, 71, 0
9, 141239, Note_on_c, 3, 77, 0
9, 141720, Note_on_c, 3, 77, 44
9, 141720, Note_on_c, 3, 71, 44
9, 141775, Note_on_c, 3, 77, 0
9, 141775, Note_on_c, 3, 71, 0
9, 141780, Note_on_c, 3, 77, 44
9, 141780, Note_on_c, 3, 71, 44
9, 141835, Note_on_c, 3, 77, 0
9, 141835, Note_on_c, 3, 71, 0
9, 141840, Note_on_c, 3, 77, 44
9, 141840, Note_on_c, 3, 71, 44
9, 141959, Note_on_c, 3, 77, 0
9, 141959, Note_on_c, 3, 71, 0
9, 142080, Note_on_c, 3, 77, 45
9, 142080, Note_on_c, 3, 71, 45
9, 142135, Note_on_c, 3, 77, 0
9, 142135, Note_on_c, 3, 71, 0
9, 142140, Note_on_c, 3, 71, 46
9, 142140, Note_on_c, 3, 77, 46
9, 142195, Note_on_c, 3, 71, 0
9, 142195, Note_on_c, 3, 77, 0
9, 142200, Note_on_c, 3, 77, 46
9, 142200, Note_on_c, 3, 71, 46
9, 142319, Note_on_c, 3, 77, 0
9, 142319, Note_on_c, 3, 71, 0
9, 142440, Note_on_c, 3, 71, 48
9, 142440, Note_on_c, 3, 77, 48
9, 142495, Note_on_c, 3, 71, 0
9, 142495, Note_on_c, 3, 77, 0
9, 142500, Note_on_c, 3, 71, 49
9, 142500, Note_on_c, 3, 77, 49
9, 142555, Note_on_c, 3, 71, 0
9, 142555, Note_on_c, 3, 77, 0
9, 142560, Note_on_c, 3, 77, 49
9, 142560, Note_on_c, 3, 71, 49
9, 142679, Note_on_c, 3, 77, 0
9, 142679, Note_on_c, 3, 71, 0
9, 142800, Note_on_c, 3, 77, 51
9, 142800, Note_on_c, 3, 71, 51
9, 142855, Note_on_c, 3, 77, 0
9, 142855, Note_on_c, 3, 71, 0
9, 142860, Note_on_c, 3, 71, 51
9, 142860, Note_on_c, 3, 77, 51
9, 142915, Note_on_c, 3, 71, 0
9, 142915, Note_on_c, 3, 77, 0
9, 142920, Note_on_c, 3, 77, 52
9, 142920, Note_on_c, 3, 71, 52
9, 143039, Note_on_c, 3, 77, 0
9, 143039, Note_on_c, 3, 71, 0
9, 143160, Note_on_c, 3, 77, 54
9, 143160, Note_on_c, 3, 71, 54
9, 143215, Note_on_c, 3, 77, 0
9, 143215, Note_on_c, 3, 71, 0
9, 143220, Note_on_c, 3, 71, 54
9, 143220, Note_on_c, 3, 77, 54
9, 143275, Note_on_c, 3, 71, 0
9, 143275, Note_on_c, 3, 77, 0
9, 143280, Note_on_c, 3, 76, 54
9, 143280, Note_on_c, 3, 72, 54
9, 143399, Note_on_c, 3, 76, 0
9, 143399, Note_on_c, 3, 72, 0
9, 143520, Note_on_c, 3, 72, 56
9, 143520, Note_on_c, 3, 76, 56
9, 143575, Note_on_c, 3, 72, 0
9, 143575, Note_on_c, 3, 76, 0
9, 143580, Note_on_c, 3, 72, 57
9, 143580, Note_on_c, 3, 76, 57
9, 143635, Note_on_c, 3, 72, 0
9, 143635, Note_on_c, 3, 76, 0
9, 143640, Note_on_c, 3, 76, 57
9, 143640, Note_on_c, 3, 72, 57
9, 143759, Note_on_c, 3, 76, 0
9, 143759, Note_on_c, 3, 72, 0
9, 143880, Note_on_c, 3, 76, 59
9, 143880, Note_on_c, 3, 72, 59
9, 143935, Note_on_c, 3, 76, 0
9, 143935, Note_on_c, 3, 72, 0
9, 143940, Note_on_c, 3, 76, 60
9, 143940, Note_on_c, 3, 72, 60
9, 143995, Note_on_c, 3, 76, 0
9, 143995, Note_on_c, 3, 72, 0
9, 144000, Note_on_c, 3, 76, 60
9, 144000, Note_on_c, 3, 72, 60
9, 144119, Note_on_c, 3, 76, 0
9, 144119, Note_on_c, 3, 72, 0
9, 144240, Note_on_c, 3, 72, 62
9, 144240, Note_on_c, 3, 76, 62
9, 144295, Note_on_c, 3, 72, 0
9, 144295, Note_on_c, 3, 76, 0
9, 144300, Note_on_c, 3, 76, 62
9, 144300, Note_on_c, 3, 72, 62
9, 144355, Note_on_c, 3, 76, 0
9, 144355, Note_on_c, 3, 72, 0
9, 144360, Note_on_c, 3, 72, 63
9, 144360, Note_on_c, 3, 76, 63
9, 144479, Note_on_c, 3, 72, 0
9, 144479, Note_on_c, 3, 76, 0
9, 144600, Note_on_c, 3, 67, 65
9, 144600, Note_on_c, 3, 70, 65
9, 144655, Note_on_c, 3, 67, 0
9, 144655, Note_on_c, 3, 70, 0
9, 144660, Note_on_c, 3, 70, 65
9, 144660, Note_on_c, 3, 67, 65
9, 144715, Note_on_c, 3, 70, 0
9, 144715, Note_on_c, 3, 67, 0
9, 144720, Note_on_c, 3, 67, 65
9, 144720, Note_on_c, 3, 70, 65
9, 144839, Note_on_c, 3, 67, 0
9, 144839, Note_on_c, 3, 70, 0
9, 144960, Note_on_c, 3, 67, 67
9, 144960, Note_on_c, 3, 70, 67
9, 145015, Note_on_c, 3, 67, 0
9, 145015, Note_on_c, 3, 70, 0
9, 145020, Note_on_c, 3, 70, 68
9, 145020, Note_on_c, 3, 67, 68
9, 145075, Note_on_c, 3, 70, 0
9, 145075, Note_on_c, 3, 67, 0
9, 145080, Note_on_c, 3, 67, 68
9, 145080, Note_on_c, 3, 70, 68
9, 145199, Note_on_c, 3, 67, 0
9, 145199, Note_on_c, 3, 70, 0
9, 145320, Note_on_c, 3, 67, 70
9, 145320, Note_on_c, 3, 70, 70
9, 145375, Note_on_c, 3, 67, 0
9, 145375, Note_on_c, 3, 70, 0
9, 145380, Note_on_c, 3, 70, 70
9, 145380, Note_on_c, 3, 67, 70
9, 145435, Note_on_c, 3, 70, 0
9, 145435, Note_on_c, 3, 67, 0
9, 145440, Note_on_c, 3, 70, 71
9, 145440, Note_on_c, 3, 67, 71
9, 145559, Note_on_c, 3, 70, 0
9, 145559, Note_on_c, 3, 67, 0
9, 145680, Note_on_c, 3, 70, 73
9, 145680, Note_on_c, 3, 67, 73
9, 145735, Note_on_c, 3, 70, 0
9, 145735, Note_on_c, 3, 67, 0
9, 145740, Note_on_c, 3, 67, 73
9, 145740, Note_on_c, 3, 70, 73
9, 145795, Note_on_c, 3, 67, 0
9, 145795, Note_on_c, 3, 70, 0
9, 145800, Note_on_c, 3, 70, 74
9, 145800, Note_on_c, 3, 67, 74
9, 145919, Note_on_c, 3, 70, 0
9, 145919, Note_on_c, 3, 67, 0
9, 146040, Note_on_c, 3, 67, 76
9, 146040, Note_on_c, 3, 76, 76
9, 146751, Note_on_c, 3, 67, 0
9, 146751, Note_on_c, 3, 76, 0
9, 146760, Note_on_c, 3, 76, 76
9, 146760, Note_on_c, 3, 67, 76
9, 147111, Note_on_c, 3, 76, 0
9, 147111, Note_on_c, 3, 67, 0
9, 147120, Note_on_c, 3, 67, 76
9, 147120, Note_on_c, 3, 76, 76
9, 147471, Note_on_c, 3, 67, 0
9, 147471, Note_on_c, 3, 76, 0
9, 147480, Note_on_c, 3, 76, 76
9, 147480, Note_on_c, 3, 67, 76
9, 147591, Note_on_c, 3, 76, 0
9, 147591, Note_on_c, 3, 67, 0
9, 147600, Note_on_c, 3, 77, 84
9, 147600, Note_on_c, 3, 69, 84
9, 147839, Note_on_c, 3, 77, 0
9, 147839, Note_on_c, 3, 69, 0
9, 155383, Control_c, 3, 11, 104
9, 155400, Note_on_c, 3, 62, 84
9, 155451, Control_c, 3, 11, 105
9, 155519, Note_on_c, 3, 62, 0
9, 155520, Note_on_c, 3, 67, 84
9, 155520, Control_c, 3, 11, 106
9, 155589, Control_c, 3, 11, 107
9, 155657, Control_c, 3, 11, 108
9, 155726, Control_c, 3, 11, 109
9, 155759, Note_on_c, 3, 67, 0
9, 155760, Note_on_c, 3, 70, 84
9, 155794, Control_c, 3, 11, 110
9, 155863, Control_c, 3, 11, 111
9, 155879, Note_on_c, 3, 70, 0
9, 155880, Note_on_c, 3, 74, 84
9, 155931, Control_c, 3, 11, 112
9, 155999, Note_on_c, 3, 74, 0
9, 156000, Control_c, 3, 11, 113
9, 156480, Control_c, 3, 11, 120
9, 156480, Note_on_c, 3, 64, 84
9, 156480, Note_on_c, 3, 67, 84
9, 156549, Control_c, 3, 11, 121
9, 156599, Note_on_c, 3, 64, 0
9, 156599, Note_on_c, 3, 67, 0
9, 156600, Note_on_c, 3, 70, 84
9, 156600, Note_on_c, 3, 67, 84
9, 156617, Control_c, 3, 11, 122
9, 156686, Control_c, 3, 11, 123
9, 156754, Control_c, 3, 11, 124
9, 156823, Control_c, 3, 11, 125
9, 156831, Note_on_c, 3, 70, 0
9, 156831, Note_on_c, 3, 67, 0
9, 156840, Note_on_c, 3, 67, 84
9, 156840, Note_on_c, 3, 70, 84
9, 156891, Control_c, 3, 11, 127
9, 156951, Note_on_c, 3, 67, 0
9, 156951, Note_on_c, 3, 70, 0
9, 156960, Note_on_c, 3, 65, 84
9, 156960, Note_on_c, 3, 69, 84
9, 158271, Note_on_c, 3, 65, 0
9, 158271, Note_on_c, 3, 69, 0
9, 158280, Note_on_c, 3, 69, 84
9, 158280, Note_on_c, 3, 65, 84
9, 158391, Note_on_c, 3, 69, 0
9, 158391, Note_on_c, 3, 65, 0
9, 158400, Note_on_c, 3, 69, 84
9, 158400, Note_on_c, 3, 65, 84
9, 159711, Note_on_c, 3, 69, 0
9, 159711, Note_on_c, 3, 65, 0
9, 159720, Note_on_c, 3, 77, 84
9, 159720, Note_on_c, 3, 69, 84
9, 159831, Note_on_c, 3, 77, 0
9, 159831, Note_on_c, 3, 69, 0
9, 159840, Note_on_c, 3, 77, 84
9, 159840, Note_on_c, 3, 74, 84
9, 161151, Note_on_c, 3, 77, 0
9, 161151, Note_on_c, 3, 74, 0
9, 161160, Note_on_c, 3, 77, 84
9, 161160, Note_on_c, 3, 74, 84
9, 161271, Note_on_c, 3, 77, 0
9, 161271, Note_on_c, 3, 74, 0
9, 161280, Note_on_c, 3, 70, 84
9, 161280, Note_on_c, 3, 77, 84
9, 161999, Note_on_c, 3, 77, 0
9, 162000, Note_on_c, 3, 76, 84
9, 162591, Note_on_c, 3, 70, 0
9, 162591, Note_on_c, 3, 76, 0
9, 162600, Note_on_c, 3, 70, 84
9, 162600, Note_on_c, 3, 76, 84
9, 162689, Note_on_c, 3, 70, 0
9, 162689, Note_on_c, 3, 76, 0
9, 162720, Note_on_c, 3, 72, 84
9, 162720, Note_on_c, 3, 75, 84
9, 163431, Note_on_c, 3, 72, 0
9, 163431, Note_on_c, 3, 75, 0
9, 163440, Note_on_c, 3, 69, 84
9, 163440, Note_on_c, 3, 72, 84
9, 164151, Note_on_c, 3, 69, 0
9, 164151, Note_on_c, 3, 72, 0
9, 164160, Note_on_c, 3, 70, 84
9, 164160, Note_on_c, 3, 75, 84
9, 164511, Note_on_c, 3, 70, 0
9, 164511, Note_on_c, 3, 75, 0
9, 164520, Note_on_c, 3, 74, 84
9, 164871, Note_on_c, 3, 74, 0
9, 164880, Note_on_c, 3, 72, 84
9, 165231, Note_on_c, 3, 72, 0
9, 165240, Note_on_c, 3, 70, 84
9, 165591, Note_on_c, 3, 70, 0
9, 165600, Control_c, 3, 11, 127
9, 165600, Note_on_c, 3, 69, 84
9, 165630, Control_c, 3, 11, 126
9, 165660, Control_c, 3, 11, 124
9, 165690, Control_c, 3, 11, 123
9, 165720, Control_c, 3, 11, 122
9, 165750, Control_c, 3, 11, 120
9, 165780, Control_c, 3, 11, 119
9, 165810, Control_c, 3, 11, 118
9, 165840, Control_c, 3, 11, 117
9, 165870, Control_c, 3, 11, 115
9, 165900, Control_c, 3, 11, 114
9, 165930, Control_c, 3, 11, 113
9, 165959, Note_on_c, 3, 69, 0
9, 165960, Control_c, 3, 11, 111
9, 165960, Note_on_c, 3, 70, 84
9, 165960, Note_on_c, 3, 67, 84
9, 165990, Control_c, 3, 11, 110
9, 166020, Control_c, 3, 11, 109
9, 166050, Control_c, 3, 11, 107
9, 166080, Control_c, 3, 11, 106
9, 166110, Control_c, 3, 11, 105
9, 166140, Control_c, 3, 11, 103
9, 166170, Control_c, 3, 11, 102
9, 166200, Control_c, 3, 11, 101
9, 166230, Control_c, 3, 11, 99
9, 166260, Control_c, 3, 11, 98
9, 166290, Control_c, 3, 11, 97
9, 166320, Control_c, 3, 11, 96
9, 166350, Control_c, 3, 11, 94
9, 166380, Control_c, 3, 11, 93
9, 166410, Control_c, 3, 11, 92
9, 166440, Control_c, 3, 11, 90
9, 166470, Control_c, 3, 11, 89
9, 166500, Control_c, 3, 11, 88
9, 166530, Control_c, 3, 11, 86
9, 166560, Control_c, 3, 11, 85
9, 166590, Control_c, 3, 11, 84
9, 166620, Control_c, 3, 11, 82
9, 166650, Control_c, 3, 11, 81
9, 166671, Note_on_c, 3, 70, 0
9, 166671, Note_on_c, 3, 67, 0
9, 166680, Note_on_c, 3, 70, 84
9, 166680, Note_on_c, 3, 67, 84
9, 166680, Control_c, 3, 11, 80
9, 166710, Control_c, 3, 11, 78
9, 166740, Control_c, 3, 11, 77
9, 166770, Control_c, 3, 11, 76
9, 166800, Control_c, 3, 11, 75
9, 166830, Control_c, 3, 11, 73
9, 166860, Control_c, 3, 11, 72
9, 166890, Control_c, 3, 11, 71
9, 166920, Control_c, 3, 11, 69
9, 166950, Control_c, 3, 11, 68
9, 166980, Control_c, 3, 11, 67
9, 167010, Control_c, 3, 11, 64
9, 167399, Note_on_c, 3, 70, 0
9, 167399, Note_on_c, 3, 67, 0
9, 167400, Note_on_c, 3, 72, 80
9, 168119, Note_on_c, 3, 72, 0
9, 168120, Note_on_c, 3, 70, 80
9, 168839, Note_on_c, 3, 70, 0
9, 168840, Note_on_c, 3, 67, 80
9, 169559, Note_on_c, 3, 67, 0
9, 169560, Note_on_c, 3, 64, 80
9, 169911, Note_on_c, 3, 64, 0
9, 169920, Note_on_c, 3, 65, 76
9, 170039, Note_on_c, 3, 65, 0
9, 175560, Control_c, 3, 11, 127
9, 175680, Note_on_c, 3, 65, 76
9, 175680, Note_on_c, 3, 69, 76
9, 176031, Note_on_c, 3, 65, 0
9, 176031, Note_on_c, 3, 69, 0
9, 176040, Note_on_c, 3, 70, 76
9, 176040, Note_on_c, 3, 65, 76
9, 176129, Note_on_c, 3, 70, 0
9, 176129, Note_on_c, 3, 65, 0
9, 176280, Note_on_c, 3, 72, 76
9, 176280, Note_on_c, 3, 65, 76
9, 176369, Note_on_c, 3, 72, 0
9, 176369, Note_on_c, 3, 65, 0
9, 176400, Note_on_c, 3, 74, 76
9, 176400, Note_on_c, 3, 65, 76
9, 176999, Note_on_c, 3, 74, 0
9, 176999, Note_on_c, 3, 65, 0
9, 179880, Note_on_c, 3, 69, 52
9, 179880, Note_on_c, 3, 72, 52
9, 179999, Note_on_c, 3, 69, 0
9, 179999, Note_on_c, 3, 72, 0
9, 180000, Note_on_c, 3, 67, 52
9, 180000, Note_on_c, 3, 72, 52
9, 180591, Note_on_c, 3, 67, 0
9, 180591, Note_on_c, 3, 72, 0
9, 180600, Note_on_c, 3, 67, 52
9, 180600, Note_on_c, 3, 72, 52
9, 180711, Note_on_c, 3, 67, 0
9, 180711, Note_on_c, 3, 72, 0
9, 180720, Note_on_c, 3, 72, 52
9, 180720, Note_on_c, 3, 69, 52
9, 180959, Note_on_c, 3, 72, 0
9, 180959, Note_on_c, 3, 69, 0
9, 181200, Control_c, 3, 11, 80
9, 181320, Note_on_c, 3, 72, 76
9, 181320, Note_on_c, 3, 69, 76
9, 181431, Note_on_c, 3, 72, 0
9, 181439, Note_on_c, 3, 69, 0
9, 181440, Control_c, 3, 11, 80
9, 181440, Note_on_c, 3, 72, 76
9, 181440, Note_on_c, 3, 67, 76
9, 181470, Control_c, 3, 11, 82
9, 181500, Control_c, 3, 11, 84
9, 181530, Control_c, 3, 11, 86
9, 181560, Control_c, 3, 11, 88
9, 181590, Control_c, 3, 11, 90
9, 181620, Control_c, 3, 11, 92
9, 181650, Control_c, 3, 11, 94
9, 181680, Control_c, 3, 11, 96
9, 181710, Control_c, 3, 11, 98
9, 181740, Control_c, 3, 11, 100
9, 181770, Control_c, 3, 11, 102
9, 181800, Control_c, 3, 11, 104
9, 181830, Control_c, 3, 11, 105
9, 181860, Control_c, 3, 11, 107
9, 181890, Control_c, 3, 11, 109
9, 181920, Control_c, 3, 11, 111
9, 181950, Control_c, 3, 11, 113
9, 181980, Control_c, 3, 11, 115
9, 182010, Control_c, 3, 11, 117
9, 182031, Note_on_c, 3, 72, 0
9, 182031, Note_on_c, 3, 67, 0
9, 182040, Control_c, 3, 11, 119
9, 182040, Note_on_c, 3, 67, 76
9, 182040, Note_on_c, 3, 72, 76
9, 182070, Control_c, 3, 11, 121
9, 182100, Control_c, 3, 11, 123
9, 182130, Control_c, 3, 11, 125
9, 182151, Note_on_c, 3, 67, 0
9, 182151, Note_on_c, 3, 72, 0
9, 182158, Control_c, 3, 11, 127
9, 182160, Note_on_c, 3, 67, 76
9, 182160, Note_on_c, 3, 76, 76
9, 183599, Note_on_c, 3, 67, 0
9, 183599, Note_on_c, 3, 76, 0
9, 183600, Note_on_c, 3, 76, 76
9, 183600, Note_on_c, 3, 67, 76
9, 183631, Control_c, 3, 11, 126
9, 183661, Control_c, 3, 11, 125
9, 183692, Control_c, 3, 11, 124
9, 183723, Control_c, 3, 11, 123
9, 183753, Control_c, 3, 11, 122
9, 183784, Control_c, 3, 11, 121
9, 183814, Control_c, 3, 11, 120
9, 183845, Control_c, 3, 11, 119
9, 183876, Control_c, 3, 11, 118
9, 183906, Control_c, 3, 11, 117
9, 183937, Control_c, 3, 11, 116
9, 183968, Control_c, 3, 11, 115
9, 183998, Control_c, 3, 11, 114
9, 184029, Control_c, 3, 11, 113
9, 184060, Control_c, 3, 11, 112
9, 184090, Control_c, 3, 11, 111
9, 184121, Control_c, 3, 11, 110
9, 184151, Control_c, 3, 11, 109
9, 184182, Control_c, 3, 11, 108
9, 184213, Control_c, 3, 11, 107
9, 184243, Control_c, 3, 11, 106
9, 184274, Control_c, 3, 11, 105
9, 184305, Control_c, 3, 11, 104
9, 184335, Control_c, 3, 11, 103
9, 184366, Control_c, 3, 11, 102
9, 184397, Control_c, 3, 11, 101
9, 184427, Control_c, 3, 11, 100
9, 184458, Control_c, 3, 11, 99
9, 184489, Control_c, 3, 11, 98
9, 184519, Control_c, 3, 11, 97
9, 184550, Control_c, 3, 11, 96
9, 184580, Control_c, 3, 11, 95
9, 184611, Control_c, 3, 11, 94
9, 184642, Control_c, 3, 11, 93
9, 184672, Control_c, 3, 11, 92
9, 184703, Control_c, 3, 11, 91
9, 184734, Control_c, 3, 11, 90
9, 184764, Control_c, 3, 11, 89
9, 184795, Control_c, 3, 11, 88
9, 184826, Control_c, 3, 11, 87
9, 184856, Control_c, 3, 11, 86
9, 184887, Control_c, 3, 11, 85
9, 184917, Control_c, 3, 11, 84
9, 184948, Control_c, 3, 11, 83
9, 184979, Control_c, 3, 11, 82
9, 185031, Note_on_c, 3, 76, 0
9, 185031, Note_on_c, 3, 67, 0
9, 185038, Control_c, 3, 11, 96
9, 185040, Note_on_c, 3, 69, 68
9, 185040, Note_on_c, 3, 77, 68
9, 185751, Note_on_c, 3, 69, 0
9, 185751, Note_on_c, 3, 77, 0
9, 185758, Control_c, 3, 11, 112
9, 185760, Note_on_c, 3, 77, 60
9, 185760, Note_on_c, 3, 69, 60
9, 186471, Note_on_c, 3, 77, 0
9, 186471, Note_on_c, 3, 69, 0
9, 186478, Control_c, 3, 11, 127
9, 186480, Note_on_c, 3, 65, 44
9, 187919, Note_on_c, 3, 65, 0
9, 187920, Note_on_c, 3, 65, 44
9, 189231, Note_on_c, 3, 65, 0
9, 189240, Note_on_c, 3, 69, 84
9, 189240, Note_on_c, 3, 60, 84
9, 189351, Note_on_c, 3, 69, 0
9, 189351, Note_on_c, 3, 60, 0
9, 189360, Note_on_c, 3, 57, 84
9, 189360, Note_on_c, 3, 65, 84
9, 189599, Note_on_c, 3, 57, 0
9, 189599, Note_on_c, 3, 65, 0
9, 189599, End_track
10, 0, Start_track
10, 0, Title_t, "Bassoon"
10, 0, MIDI_port, 0
10, 0, Program_c, 4, 70
10, 0, Control_c, 4, 7, 96
10, 0, Control_c, 4, 11, 127
10, 0, Control_c, 4, 10, 65
10, 0, Note_on_c, 4, 52, 44
10, 0, Note_on_c, 4, 48, 44
10, 239, Note_on_c, 4, 52, 0
10, 239, Note_on_c, 4, 48, 0
10, 5760, Note_on_c, 4, 57, 48
10, 5760, Note_on_c, 4, 53, 48
10, 7199, Note_on_c, 4, 57, 0
10, 7199, Note_on_c, 4, 53, 0
10, 7200, Note_on_c, 4, 57, 48
10, 7200, Note_on_c, 4, 53, 48
10, 7911, Note_on_c, 4, 57, 0
10, 7911, Note_on_c, 4, 53, 0
10, 7920, Note_on_c, 4, 50, 48
10, 7920, Note_on_c, 4, 53, 48
10, 8511, Note_on_c, 4, 50, 0
10, 8511, Note_on_c, 4, 53, 0
10, 8520, Note_on_c, 4, 55, 48
10, 8520, Note_on_c, 4, 52, 48
10, 8631, Note_on_c, 4, 55, 0
10, 8631, Note_on_c, 4, 52, 0
10, 8640, Note_on_c, 4, 55, 48
10, 8640, Note_on_c, 4, 52, 48
10, 9351, Note_on_c, 4, 55, 0
10, 9351, Note_on_c, 4, 52, 0
10, 9360, Note_on_c, 4, 53, 48
10, 9360, Note_on_c, 4, 57, 48
10, 10079, Note_on_c, 4, 57, 0
10, 10080, Note_on_c, 4, 55, 48
10, 10431, Note_on_c, 4, 53, 0
10, 10431, Note_on_c, 4, 55, 0
10, 10440, Note_on_c, 4, 55, 48
10, 10440, Note_on_c, 4, 52, 48
10, 10678, Control_c, 4, 11, 64
10, 10791, Note_on_c, 4, 55, 0
10, 10791, Note_on_c, 4, 52, 0
10, 10800, Note_on_c, 4, 57, 84
10, 10800, Note_on_c, 4, 53, 84
10, 10800, Control_c, 4, 11, 64
10, 10903, Control_c, 4, 11, 65
10, 11006, Control_c, 4, 11, 66
10, 11109, Control_c, 4, 11, 67
10, 11211, Control_c, 4, 11, 68
10, 11314, Control_c, 4, 11, 69
10, 11417, Control_c, 4, 11, 70
10, 11511, Note_on_c, 4, 57, 0
10, 11511, Note_on_c, 4, 53, 0
10, 11520, Note_on_c, 4, 57, 84
10, 11520, Note_on_c, 4, 53, 84
10, 11520, Control_c, 4, 11, 71
10, 11623, Control_c, 4, 11, 72
10, 11631, Note_on_c, 4, 57, 0
10, 11631, Note_on_c, 4, 53, 0
10, 11640, Note_on_c, 4, 53, 84
10, 11640, Note_on_c, 4, 57, 84
10, 11726, Control_c, 4, 11, 73
10, 11751, Note_on_c, 4, 53, 0
10, 11751, Note_on_c, 4, 57, 0
10, 11760, Note_on_c, 4, 57, 84
10, 11760, Note_on_c, 4, 53, 84
10, 11829, Control_c, 4, 11, 74
10, 11871, Note_on_c, 4, 57, 0
10, 11871, Note_on_c, 4, 53, 0
10, 11880, Note_on_c, 4, 53, 84
10, 11880, Note_on_c, 4, 57, 84
10, 11931, Control_c, 4, 11, 75
10, 11991, Note_on_c, 4, 53, 0
10, 11991, Note_on_c, 4, 57, 0
10, 12000, Note_on_c, 4, 53, 84
10, 12000, Note_on_c, 4, 57, 84
10, 12034, Control_c, 4, 11, 76
10, 12111, Note_on_c, 4, 53, 0
10, 12111, Note_on_c, 4, 57, 0
10, 12120, Note_on_c, 4, 53, 84
10, 12120, Note_on_c, 4, 57, 84
10, 12137, Control_c, 4, 11, 77
10, 12231, Note_on_c, 4, 53, 0
10, 12231, Note_on_c, 4, 57, 0
10, 12240, Note_on_c, 4, 57, 84
10, 12240, Note_on_c, 4, 53, 84
10, 12240, Control_c, 4, 11, 78
10, 12343, Control_c, 4, 11, 79
10, 12351, Note_on_c, 4, 57, 0
10, 12351, Note_on_c, 4, 53, 0
10, 12360, Note_on_c, 4, 57, 84
10, 12360, Note_on_c, 4, 53, 84
10, 12446, Control_c, 4, 11, 80
10, 12471, Note_on_c, 4, 57, 0
10, 12471, Note_on_c, 4, 53, 0
10, 12480, Note_on_c, 4, 57, 84
10, 12480, Note_on_c, 4, 53, 84
10, 12549, Control_c, 4, 11, 81
10, 12591, Note_on_c, 4, 57, 0
10, 12591, Note_on_c, 4, 53, 0
10, 12600, Note_on_c, 4, 53, 84
10, 12600, Note_on_c, 4, 57, 84
10, 12651, Control_c, 4, 11, 82
10, 12711, Note_on_c, 4, 53, 0
10, 12711, Note_on_c, 4, 57, 0
10, 12720, Note_on_c, 4, 53, 84
10, 12720, Note_on_c, 4, 57, 84
10, 12754, Control_c, 4, 11, 83
10, 12831, Note_on_c, 4, 53, 0
10, 12831, Note_on_c, 4, 57, 0
10, 12840, Note_on_c, 4, 53, 84
10, 12840, Note_on_c, 4, 57, 84
10, 12857, Control_c, 4, 11, 84
10, 12951, Note_on_c, 4, 53, 0
10, 12951, Note_on_c, 4, 57, 0
10, 12960, Note_on_c, 4, 57, 84
10, 12960, Note_on_c, 4, 53, 84
10, 12960, Control_c, 4, 11, 85
10, 13063, Control_c, 4, 11, 86
10, 13071, Note_on_c, 4, 57, 0
10, 13071, Note_on_c, 4, 53, 0
10, 13080, Note_on_c, 4, 53, 84
10, 13080, Note_on_c, 4, 57, 84
10, 13166, Control_c, 4, 11, 87
10, 13191, Note_on_c, 4, 53, 0
10, 13191, Note_on_c, 4, 57, 0
10, 13200, Note_on_c, 4, 53, 84
10, 13200, Note_on_c, 4, 57, 84
10, 13269, Control_c, 4, 11, 88
10, 13311, Note_on_c, 4, 53, 0
10, 13311, Note_on_c, 4, 57, 0
10, 13320, Note_on_c, 4, 53, 84
10, 13320, Note_on_c, 4, 57, 84
10, 13371, Control_c, 4, 11, 89
10, 13431, Note_on_c, 4, 53, 0
10, 13431, Note_on_c, 4, 57, 0
10, 13440, Note_on_c, 4, 57, 84
10, 13440, Note_on_c, 4, 53, 84
10, 13474, Control_c, 4, 11, 90
10, 13551, Note_on_c, 4, 57, 0
10, 13551, Note_on_c, 4, 53, 0
10, 13560, Note_on_c, 4, 53, 84
10, 13560, Note_on_c, 4, 57, 84
10, 13577, Control_c, 4, 11, 91
10, 13671, Note_on_c, 4, 53, 0
10, 13671, Note_on_c, 4, 57, 0
10, 13680, Control_c, 4, 11, 92
10, 13680, Note_on_c, 4, 53, 84
10, 13680, Note_on_c, 4, 50, 84
10, 13783, Control_c, 4, 11, 93
10, 13791, Note_on_c, 4, 53, 0
10, 13791, Note_on_c, 4, 50, 0
10, 13800, Note_on_c, 4, 53, 84
10, 13800, Note_on_c, 4, 50, 84
10, 13886, Control_c, 4, 11, 94
10, 13911, Note_on_c, 4, 53, 0
10, 13911, Note_on_c, 4, 50, 0
10, 13920, Note_on_c, 4, 50, 84
10, 13920, Note_on_c, 4, 53, 84
10, 13989, Control_c, 4, 11, 95
10, 14031, Note_on_c, 4, 50, 0
10, 14031, Note_on_c, 4, 53, 0
10, 14040, Note_on_c, 4, 50, 84
10, 14040, Note_on_c, 4, 53, 84
10, 14091, Control_c, 4, 11, 96
10, 14151, Note_on_c, 4, 50, 0
10, 14151, Note_on_c, 4, 53, 0
10, 14160, Note_on_c, 4, 53, 84
10, 14160, Note_on_c, 4, 50, 84
10, 14194, Control_c, 4, 11, 97
10, 14271, Note_on_c, 4, 53, 0
10, 14271, Note_on_c, 4, 50, 0
10, 14280, Note_on_c, 4, 52, 84
10, 14280, Note_on_c, 4, 55, 84
10, 14297, Control_c, 4, 11, 98
10, 14391, Note_on_c, 4, 52, 0
10, 14391, Note_on_c, 4, 55, 0
10, 14400, Note_on_c, 4, 55, 84
10, 14400, Note_on_c, 4, 52, 84
10, 14400, Control_c, 4, 11, 99
10, 14503, Control_c, 4, 11, 100
10, 14511, Note_on_c, 4, 55, 0
10, 14511, Note_on_c, 4, 52, 0
10, 14520, Note_on_c, 4, 55, 84
10, 14520, Note_on_c, 4, 52, 84
10, 14606, Control_c, 4, 11, 101
10, 14631, Note_on_c, 4, 55, 0
10, 14631, Note_on_c, 4, 52, 0
10, 14640, Note_on_c, 4, 52, 84
10, 14640, Note_on_c, 4, 55, 84
10, 14709, Control_c, 4, 11, 102
10, 14751, Note_on_c, 4, 52, 0
10, 14751, Note_on_c, 4, 55, 0
10, 14760, Note_on_c, 4, 55, 84
10, 14760, Note_on_c, 4, 52, 84
10, 14811, Control_c, 4, 11, 103
10, 14871, Note_on_c, 4, 55, 0
10, 14871, Note_on_c, 4, 52, 0
10, 14880, Note_on_c, 4, 52, 84
10, 14880, Note_on_c, 4, 55, 84
10, 14914, Control_c, 4, 11, 104
10, 14991, Note_on_c, 4, 52, 0
10, 14991, Note_on_c, 4, 55, 0
10, 15000, Note_on_c, 4, 48, 84
10, 15000, Note_on_c, 4, 55, 84
10, 15017, Control_c, 4, 11, 105
10, 15111, Note_on_c, 4, 48, 0
10, 15111, Note_on_c, 4, 55, 0
10, 15120, Note_on_c, 4, 53, 84
10, 15120, Note_on_c, 4, 57, 84
10, 15120, Control_c, 4, 11, 106
10, 15223, Control_c, 4, 11, 107
10, 15231, Note_on_c, 4, 53, 0
10, 15231, Note_on_c, 4, 57, 0
10, 15240, Note_on_c, 4, 57, 84
10, 15240, Note_on_c, 4, 53, 84
10, 15326, Control_c, 4, 11, 108
10, 15351, Note_on_c, 4, 57, 0
10, 15351, Note_on_c, 4, 53, 0
10, 15360, Note_on_c, 4, 57, 84
10, 15360, Note_on_c, 4, 53, 84
10, 15429, Control_c, 4, 11, 109
10, 15471, Note_on_c, 4, 57, 0
10, 15471, Note_on_c, 4, 53, 0
10, 15480, Note_on_c, 4, 50, 84
10, 15480, Note_on_c, 4, 53, 84
10, 15531, Control_c, 4, 11, 110
10, 15591, Note_on_c, 4, 50, 0
10, 15591, Note_on_c, 4, 53, 0
10, 15600, Note_on_c, 4, 50, 84
10, 15600, Note_on_c, 4, 53, 84
10, 15634, Control_c, 4, 11, 111
10, 15711, Note_on_c, 4, 50, 0
10, 15711, Note_on_c, 4, 53, 0
10, 15720, Note_on_c, 4, 53, 84
10, 15720, Note_on_c, 4, 45, 84
10, 15737, Control_c, 4, 11, 112
10, 15831, Note_on_c, 4, 53, 0
10, 15831, Note_on_c, 4, 45, 0
10, 15840, Control_c, 4, 11, 113
10, 15840, Note_on_c, 4, 46, 84
10, 15840, Note_on_c, 4, 53, 84
10, 15943, Control_c, 4, 11, 114
10, 15951, Note_on_c, 4, 46, 0
10, 15951, Note_on_c, 4, 53, 0
10, 15960, Note_on_c, 4, 53, 84
10, 15960, Note_on_c, 4, 46, 84
10, 16046, Control_c, 4, 11, 115
10, 16071, Note_on_c, 4, 53, 0
10, 16071, Note_on_c, 4, 46, 0
10, 16080, Note_on_c, 4, 53, 84
10, 16080, Note_on_c, 4, 46, 84
10, 16149, Control_c, 4, 11, 116
10, 16191, Note_on_c, 4, 53, 0
10, 16191, Note_on_c, 4, 46, 0
10, 16200, Note_on_c, 4, 48, 84
10, 16200, Note_on_c, 4, 52, 84
10, 16251, Control_c, 4, 11, 117
10, 16311, Note_on_c, 4, 48, 0
10, 16311, Note_on_c, 4, 52, 0
10, 16320, Note_on_c, 4, 48, 84
10, 16320, Note_on_c, 4, 52, 84
10, 16354, Control_c, 4, 11, 118
10, 16431, Note_on_c, 4, 48, 0
10, 16431, Note_on_c, 4, 52, 0
10, 16440, Note_on_c, 4, 52, 84
10, 16440, Note_on_c, 4, 48, 84
10, 16457, Control_c, 4, 11, 119
10, 16551, Note_on_c, 4, 52, 0
10, 16551, Note_on_c, 4, 48, 0
10, 16560, Note_on_c, 4, 53, 84
10, 16560, Control_c, 4, 11, 120
10, 16560, Note_on_c, 4, 41, 84
10, 16663, Control_c, 4, 11, 121
10, 16671, Note_on_c, 4, 53, 0
10, 16671, Note_on_c, 4, 41, 0
10, 16680, Note_on_c, 4, 53, 84
10, 16680, Note_on_c, 4, 41, 84
10, 16766, Control_c, 4, 11, 122
10, 16791, Note_on_c, 4, 53, 0
10, 16791, Note_on_c, 4, 41, 0
10, 16800, Note_on_c, 4, 53, 84
10, 16800, Note_on_c, 4, 41, 84
10, 16869, Control_c, 4, 11, 123
10, 16911, Note_on_c, 4, 53, 0
10, 16911, Note_on_c, 4, 41, 0
10, 16920, Note_on_c, 4, 41, 84
10, 16920, Note_on_c, 4, 53, 84
10, 16971, Control_c, 4, 11, 124
10, 17031, Note_on_c, 4, 41, 0
10, 17031, Note_on_c, 4, 53, 0
10, 17040, Note_on_c, 4, 41, 84
10, 17040, Note_on_c, 4, 53, 84
10, 17074, Control_c, 4, 11, 125
10, 17151, Note_on_c, 4, 41, 0
10, 17151, Note_on_c, 4, 53, 0
10, 17160, Note_on_c, 4, 53, 84
10, 17160, Note_on_c, 4, 41, 84
10, 17177, Control_c, 4, 11, 126
10, 17271, Note_on_c, 4, 53, 0
10, 17271, Note_on_c, 4, 41, 0
10, 17278, Control_c, 4, 11, 127
10, 17280, Note_on_c, 4, 41, 84
10, 17280, Note_on_c, 4, 53, 84
10, 17391, Note_on_c, 4, 41, 0
10, 17391, Note_on_c, 4, 53, 0
10, 17400, Note_on_c, 4, 41, 84
10, 17400, Note_on_c, 4, 53, 84
10, 17511, Note_on_c, 4, 41, 0
10, 17511, Note_on_c, 4, 53, 0
10, 17520, Note_on_c, 4, 53, 84
10, 17520, Note_on_c, 4, 41, 84
10, 17631, Note_on_c, 4, 53, 0
10, 17631, Note_on_c, 4, 41, 0
10, 17640, Note_on_c, 4, 41, 84
10, 17640, Note_on_c, 4, 53, 84
10, 17751, Note_on_c, 4, 41, 0
10, 17751, Note_on_c, 4, 53, 0
10, 17760, Note_on_c, 4, 41, 84
10, 17760, Note_on_c, 4, 53, 84
10, 17871, Note_on_c, 4, 41, 0
10, 17871, Note_on_c, 4, 53, 0
10, 17880, Note_on_c, 4, 41, 84
10, 17880, Note_on_c, 4, 53, 84
10, 17991, Note_on_c, 4, 41, 0
10, 17991, Note_on_c, 4, 53, 0
10, 18000, Note_on_c, 4, 53, 84
10, 18000, Note_on_c, 4, 41, 84
10, 18111, Note_on_c, 4, 53, 0
10, 18111, Note_on_c, 4, 41, 0
10, 18120, Note_on_c, 4, 41, 84
10, 18120, Note_on_c, 4, 53, 84
10, 18231, Note_on_c, 4, 41, 0
10, 18231, Note_on_c, 4, 53, 0
10, 18240, Note_on_c, 4, 41, 84
10, 18240, Note_on_c, 4, 53, 84
10, 18351, Note_on_c, 4, 41, 0
10, 18351, Note_on_c, 4, 53, 0
10, 18360, Note_on_c, 4, 53, 84
10, 18360, Note_on_c, 4, 41, 84
10, 18471, Note_on_c, 4, 53, 0
10, 18471, Note_on_c, 4, 41, 0
10, 18480, Note_on_c, 4, 41, 84
10, 18480, Note_on_c, 4, 53, 84
10, 18591, Note_on_c, 4, 41, 0
10, 18591, Note_on_c, 4, 53, 0
10, 18600, Note_on_c, 4, 53, 84
10, 18600, Note_on_c, 4, 41, 84
10, 18711, Note_on_c, 4, 53, 0
10, 18711, Note_on_c, 4, 41, 0
10, 18720, Note_on_c, 4, 53, 84
10, 18720, Note_on_c, 4, 41, 84
10, 18831, Note_on_c, 4, 53, 0
10, 18831, Note_on_c, 4, 41, 0
10, 18840, Note_on_c, 4, 53, 84
10, 18840, Note_on_c, 4, 41, 84
10, 18951, Note_on_c, 4, 53, 0
10, 18951, Note_on_c, 4, 41, 0
10, 18960, Note_on_c, 4, 53, 84
10, 18960, Note_on_c, 4, 41, 84
10, 19071, Note_on_c, 4, 53, 0
10, 19071, Note_on_c, 4, 41, 0
10, 19080, Note_on_c, 4, 53, 84
10, 19080, Note_on_c, 4, 41, 84
10, 19191, Note_on_c, 4, 53, 0
10, 19191, Note_on_c, 4, 41, 0
10, 19200, Note_on_c, 4, 41, 84
10, 19200, Note_on_c, 4, 53, 84
10, 19311, Note_on_c, 4, 41, 0
10, 19311, Note_on_c, 4, 53, 0
10, 19320, Note_on_c, 4, 53, 84
10, 19320, Note_on_c, 4, 41, 84
10, 19431, Note_on_c, 4, 53, 0
10, 19431, Note_on_c, 4, 41, 0
10, 19440, Note_on_c, 4, 38, 84
10, 19440, Note_on_c, 4, 50, 84
10, 19551, Note_on_c, 4, 38, 0
10, 19551, Note_on_c, 4, 50, 0
10, 19560, Note_on_c, 4, 50, 84
10, 19560, Note_on_c, 4, 38, 84
10, 19671, Note_on_c, 4, 50, 0
10, 19671, Note_on_c, 4, 38, 0
10, 19680, Note_on_c, 4, 38, 84
10, 19680, Note_on_c, 4, 50, 84
10, 19791, Note_on_c, 4, 38, 0
10, 19791, Note_on_c, 4, 50, 0
10, 19800, Note_on_c, 4, 38, 84
10, 19800, Note_on_c, 4, 50, 84
10, 19911, Note_on_c, 4, 38, 0
10, 19911, Note_on_c, 4, 50, 0
10, 19920, Note_on_c, 4, 50, 84
10, 19920, Note_on_c, 4, 38, 84
10, 20031, Note_on_c, 4, 50, 0
10, 20031, Note_on_c, 4, 38, 0
10, 20040, Note_on_c, 4, 52, 84
10, 20040, Note_on_c, 4, 40, 84
10, 20151, Note_on_c, 4, 52, 0
10, 20151, Note_on_c, 4, 40, 0
10, 20160, Note_on_c, 4, 52, 84
10, 20160, Note_on_c, 4, 40, 84
10, 20271, Note_on_c, 4, 52, 0
10, 20271, Note_on_c, 4, 40, 0
10, 20280, Note_on_c, 4, 52, 84
10, 20280, Note_on_c, 4, 40, 84
10, 20391, Note_on_c, 4, 52, 0
10, 20391, Note_on_c, 4, 40, 0
10, 20400, Note_on_c, 4, 52, 84
10, 20400, Note_on_c, 4, 40, 84
10, 20511, Note_on_c, 4, 52, 0
10, 20511, Note_on_c, 4, 40, 0
10, 20520, Note_on_c, 4, 40, 84
10, 20520, Note_on_c, 4, 52, 84
10, 20631, Note_on_c, 4, 40, 0
10, 20631, Note_on_c, 4, 52, 0
10, 20640, Note_on_c, 4, 52, 84
10, 20640, Note_on_c, 4, 40, 84
10, 20751, Note_on_c, 4, 52, 0
10, 20751, Note_on_c, 4, 40, 0
10, 20760, Note_on_c, 4, 48, 84
10, 20760, Note_on_c, 4, 36, 84
10, 20871, Note_on_c, 4, 48, 0
10, 20871, Note_on_c, 4, 36, 0
10, 20880, Note_on_c, 4, 41, 84
10, 20880, Note_on_c, 4, 53, 84
10, 20991, Note_on_c, 4, 41, 0
10, 20991, Note_on_c, 4, 53, 0
10, 21000, Note_on_c, 4, 53, 84
10, 21000, Note_on_c, 4, 41, 84
10, 21111, Note_on_c, 4, 53, 0
10, 21111, Note_on_c, 4, 41, 0
10, 21120, Note_on_c, 4, 41, 84
10, 21120, Note_on_c, 4, 53, 84
10, 21231, Note_on_c, 4, 41, 0
10, 21231, Note_on_c, 4, 53, 0
10, 21240, Note_on_c, 4, 38, 84
10, 21240, Note_on_c, 4, 50, 84
10, 21351, Note_on_c, 4, 38, 0
10, 21351, Note_on_c, 4, 50, 0
10, 21360, Note_on_c, 4, 38, 84
10, 21360, Note_on_c, 4, 50, 84
10, 21471, Note_on_c, 4, 38, 0
10, 21471, Note_on_c, 4, 50, 0
10, 21480, Note_on_c, 4, 45, 84
10, 21591, Note_on_c, 4, 45, 0
10, 21600, Note_on_c, 4, 46, 84
10, 21600, Note_on_c, 4, 34, 84
10, 21711, Note_on_c, 4, 46, 0
10, 21711, Note_on_c, 4, 34, 0
10, 21720, Note_on_c, 4, 46, 84
10, 21720, Note_on_c, 4, 34, 84
10, 21831, Note_on_c, 4, 46, 0
10, 21831, Note_on_c, 4, 34, 0
10, 21840, Note_on_c, 4, 34, 84
10, 21840, Note_on_c, 4, 46, 84
10, 21951, Note_on_c, 4, 34, 0
10, 21951, Note_on_c, 4, 46, 0
10, 21960, Note_on_c, 4, 48, 84
10, 21960, Note_on_c, 4, 36, 84
10, 22071, Note_on_c, 4, 48, 0
10, 22071, Note_on_c, 4, 36, 0
10, 22080, Note_on_c, 4, 48, 84
10, 22080, Note_on_c, 4, 36, 84
10, 22191, Note_on_c, 4, 48, 0
10, 22191, Note_on_c, 4, 36, 0
10, 22200, Note_on_c, 4, 48, 84
10, 22200, Note_on_c, 4, 36, 84
10, 22311, Note_on_c, 4, 48, 0
10, 22311, Note_on_c, 4, 36, 0
10, 22320, Note_on_c, 4, 41, 84
10, 22439, Note_on_c, 4, 41, 0
10, 23640, Note_on_c, 4, 55, 84
10, 23640, Note_on_c, 4, 52, 84
10, 23751, Note_on_c, 4, 55, 0
10, 23751, Note_on_c, 4, 52, 0
10, 23760, Note_on_c, 4, 53, 84
10, 24111, Note_on_c, 4, 53, 0
10, 24120, Note_on_c, 4, 55, 84
10, 24120, Note_on_c, 4, 52, 84
10, 24471, Note_on_c, 4, 55, 0
10, 24471, Note_on_c, 4, 52, 0
10, 24480, Note_on_c, 4, 53, 84
10, 24480, Note_on_c, 4, 57, 84
10, 24831, Note_on_c, 4, 53, 0
10, 24831, Note_on_c, 4, 57, 0
10, 24840, Note_on_c, 4, 58, 84
10, 24840, Note_on_c, 4, 55, 84
10, 25071, Note_on_c, 4, 58, 0
10, 25071, Note_on_c, 4, 55, 0
10, 25080, Note_on_c, 4, 55, 84
10, 25080, Note_on_c, 4, 52, 84
10, 25199, Note_on_c, 4, 55, 0
10, 25199, Note_on_c, 4, 52, 0
10, 26520, Note_on_c, 4, 55, 84
10, 26520, Note_on_c, 4, 52, 84
10, 26631, Note_on_c, 4, 55, 0
10, 26631, Note_on_c, 4, 52, 0
10, 26640, Note_on_c, 4, 53, 84
10, 26991, Note_on_c, 4, 53, 0
10, 27000, Note_on_c, 4, 55, 84
10, 27000, Note_on_c, 4, 52, 84
10, 27351, Note_on_c, 4, 55, 0
10, 27351, Note_on_c, 4, 52, 0
10, 27360, Note_on_c, 4, 53, 84
10, 27360, Note_on_c, 4, 57, 84
10, 27711, Note_on_c, 4, 53, 0
10, 27711, Note_on_c, 4, 57, 0
10, 27720, Note_on_c, 4, 58, 84
10, 27720, Note_on_c, 4, 55, 84
10, 27951, Note_on_c, 4, 58, 0
10, 27951, Note_on_c, 4, 55, 0
10, 27960, Note_on_c, 4, 55, 84
10, 27960, Note_on_c, 4, 58, 84
10, 28071, Note_on_c, 4, 55, 0
10, 28071, Note_on_c, 4, 58, 0
10, 28080, Note_on_c, 4, 60, 92
10, 28080, Note_on_c, 4, 57, 92
10, 28110, Control_c, 4, 11, 112
10, 28431, Note_on_c, 4, 60, 0
10, 28431, Note_on_c, 4, 57, 0
10, 28440, Note_on_c, 4, 62, 92
10, 28440, Note_on_c, 4, 59, 92
10, 28671, Note_on_c, 4, 62, 0
10, 28671, Note_on_c, 4, 59, 0
10, 28680, Note_on_c, 4, 47, 92
10, 28680, Note_on_c, 4, 50, 92
10, 28791, Note_on_c, 4, 47, 0
10, 28791, Note_on_c, 4, 50, 0
10, 28798, Control_c, 4, 11, 127
10, 28800, Note_on_c, 4, 48, 92
10, 28800, Note_on_c, 4, 52, 92
10, 28830, Control_c, 4, 11, 112
10, 29151, Note_on_c, 4, 48, 0
10, 29151, Note_on_c, 4, 52, 0
10, 29160, Note_on_c, 4, 53, 92
10, 29160, Note_on_c, 4, 50, 92
10, 29391, Note_on_c, 4, 53, 0
10, 29391, Note_on_c, 4, 50, 0
10, 29400, Note_on_c, 4, 50, 92
10, 29400, Note_on_c, 4, 53, 92
10, 29511, Note_on_c, 4, 50, 0
10, 29511, Note_on_c, 4, 53, 0
10, 29518, Control_c, 4, 11, 127
10, 29520, Note_on_c, 4, 55, 84
10, 29520, Note_on_c, 4, 52, 84
10, 30111, Note_on_c, 4, 55, 0
10, 30111, Note_on_c, 4, 52, 0
10, 30120, Note_on_c, 4, 48, 84
10, 30120, Note_on_c, 4, 52, 84
10, 30231, Note_on_c, 4, 48, 0
10, 30231, Note_on_c, 4, 52, 0
10, 30240, Note_on_c, 4, 52, 84
10, 30240, Note_on_c, 4, 48, 84
10, 30471, Note_on_c, 4, 52, 0
10, 30471, Note_on_c, 4, 48, 0
10, 30480, Note_on_c, 4, 52, 84
10, 30480, Note_on_c, 4, 48, 84
10, 30591, Note_on_c, 4, 52, 0
10, 30591, Note_on_c, 4, 48, 0
10, 30600, Note_on_c, 4, 48, 84
10, 30600, Note_on_c, 4, 52, 84
10, 30831, Note_on_c, 4, 48, 0
10, 30831, Note_on_c, 4, 52, 0
10, 30840, Note_on_c, 4, 52, 84
10, 30840, Note_on_c, 4, 48, 84
10, 30951, Note_on_c, 4, 52, 0
10, 30951, Note_on_c, 4, 48, 0
10, 30960, Note_on_c, 4, 50, 84
10, 30960, Note_on_c, 4, 53, 84
10, 31551, Note_on_c, 4, 50, 0
10, 31551, Note_on_c, 4, 53, 0
10, 31560, Note_on_c, 4, 50, 84
10, 31560, Note_on_c, 4, 43, 84
10, 31671, Note_on_c, 4, 50, 0
10, 31671, Note_on_c, 4, 43, 0
10, 31680, Note_on_c, 4, 43, 84
10, 31680, Note_on_c, 4, 50, 84
10, 31911, Note_on_c, 4, 43, 0
10, 31911, Note_on_c, 4, 50, 0
10, 31920, Note_on_c, 4, 50, 84
10, 31920, Note_on_c, 4, 43, 84
10, 32031, Note_on_c, 4, 50, 0
10, 32031, Note_on_c, 4, 43, 0
10, 32040, Note_on_c, 4, 43, 84
10, 32040, Note_on_c, 4, 50, 84
10, 32271, Note_on_c, 4, 43, 0
10, 32271, Note_on_c, 4, 50, 0
10, 32280, Note_on_c, 4, 50, 84
10, 32280, Note_on_c, 4, 43, 84
10, 32391, Note_on_c, 4, 50, 0
10, 32391, Note_on_c, 4, 43, 0
10, 32400, Note_on_c, 4, 55, 84
10, 32400, Note_on_c, 4, 52, 84
10, 32631, Note_on_c, 4, 55, 0
10, 32631, Note_on_c, 4, 52, 0
10, 32640, Note_on_c, 4, 52, 84
10, 32640, Note_on_c, 4, 55, 84
10, 32751, Note_on_c, 4, 52, 0
10, 32751, Note_on_c, 4, 55, 0
10, 32760, Note_on_c, 4, 55, 84
10, 32760, Note_on_c, 4, 52, 84
10, 32991, Note_on_c, 4, 55, 0
10, 32991, Note_on_c, 4, 52, 0
10, 33000, Note_on_c, 4, 52, 84
10, 33000, Note_on_c, 4, 55, 84
10, 33111, Note_on_c, 4, 52, 0
10, 33111, Note_on_c, 4, 55, 0
10, 33120, Note_on_c, 4, 52, 84
10, 33120, Note_on_c, 4, 55, 84
10, 33351, Note_on_c, 4, 52, 0
10, 33351, Note_on_c, 4, 55, 0
10, 33360, Note_on_c, 4, 48, 84
10, 33360, Note_on_c, 4, 52, 84
10, 33471, Note_on_c, 4, 48, 0
10, 33471, Note_on_c, 4, 52, 0
10, 33480, Note_on_c, 4, 52, 84
10, 33480, Note_on_c, 4, 48, 84
10, 33711, Note_on_c, 4, 52, 0
10, 33711, Note_on_c, 4, 48, 0
10, 33720, Note_on_c, 4, 52, 84
10, 33720, Note_on_c, 4, 48, 84
10, 33831, Note_on_c, 4, 52, 0
10, 33831, Note_on_c, 4, 48, 0
10, 33840, Note_on_c, 4, 50, 84
10, 33840, Note_on_c, 4, 53, 84
10, 34071, Note_on_c, 4, 50, 0
10, 34071, Note_on_c, 4, 53, 0
10, 34080, Note_on_c, 4, 50, 84
10, 34080, Note_on_c, 4, 53, 84
10, 34191, Note_on_c, 4, 50, 0
10, 34191, Note_on_c, 4, 53, 0
10, 34200, Note_on_c, 4, 50, 84
10, 34200, Note_on_c, 4, 53, 84
10, 34431, Note_on_c, 4, 50, 0
10, 34431, Note_on_c, 4, 53, 0
10, 34440, Note_on_c, 4, 50, 84
10, 34440, Note_on_c, 4, 53, 84
10, 34551, Note_on_c, 4, 50, 0
10, 34551, Note_on_c, 4, 53, 0
10, 34560, Note_on_c, 4, 50, 84
10, 34560, Note_on_c, 4, 53, 84
10, 34799, Note_on_c, 4, 50, 0
10, 34799, Note_on_c, 4, 53, 0
10, 34800, Note_on_c, 4, 50, 84
10, 34800, Note_on_c, 4, 43, 84
10, 34911, Note_on_c, 4, 50, 0
10, 34911, Note_on_c, 4, 43, 0
10, 34920, Note_on_c, 4, 50, 84
10, 34920, Note_on_c, 4, 43, 84
10, 35151, Note_on_c, 4, 50, 0
10, 35151, Note_on_c, 4, 43, 0
10, 35160, Note_on_c, 4, 43, 84
10, 35160, Note_on_c, 4, 50, 84
10, 35271, Note_on_c, 4, 43, 0
10, 35271, Note_on_c, 4, 50, 0
10, 35280, Note_on_c, 4, 48, 84
10, 35280, Note_on_c, 4, 52, 84
10, 35511, Note_on_c, 4, 48, 0
10, 35511, Note_on_c, 4, 52, 0
10, 35640, Control_c, 4, 11, 80
10, 35670, Control_c, 4, 11, 82
10, 35700, Control_c, 4, 11, 84
10, 35730, Control_c, 4, 11, 86
10, 35760, Control_c, 4, 11, 88
10, 35790, Control_c, 4, 11, 90
10, 35820, Control_c, 4, 11, 92
10, 35850, Control_c, 4, 11, 94
10, 35880, Note_on_c, 4, 60, 76
10, 35880, Control_c, 4, 11, 96
10, 35910, Control_c, 4, 11, 98
10, 35940, Control_c, 4, 11, 100
10, 35970, Control_c, 4, 11, 102
10, 36000, Control_c, 4, 11, 104
10, 36030, Control_c, 4, 11, 105
10, 36060, Control_c, 4, 11, 107
10, 36090, Control_c, 4, 11, 109
10, 36119, Note_on_c, 4, 60, 0
10, 36120, Note_on_c, 4, 65, 76
10, 36120, Control_c, 4, 11, 111
10, 36150, Control_c, 4, 11, 113
10, 36180, Control_c, 4, 11, 115
10, 36210, Control_c, 4, 11, 117
10, 36239, Note_on_c, 4, 65, 0
10, 36240, Note_on_c, 4, 64, 76
10, 36240, Note_on_c, 4, 48, 76
10, 36240, Control_c, 4, 11, 119
10, 36270, Control_c, 4, 11, 121
10, 36300, Control_c, 4, 11, 123
10, 36330, Control_c, 4, 11, 125
10, 36351, Note_on_c, 4, 64, 0
10, 36358, Control_c, 4, 11, 127
10, 36359, Note_on_c, 4, 48, 0
10, 36360, Note_on_c, 4, 59, 76
10, 36360, Note_on_c, 4, 43, 76
10, 36591, Note_on_c, 4, 59, 0
10, 36591, Note_on_c, 4, 43, 0
10, 36600, Note_on_c, 4, 43, 76
10, 36600, Note_on_c, 4, 59, 76
10, 36711, Note_on_c, 4, 43, 0
10, 36711, Note_on_c, 4, 59, 0
10, 36720, Note_on_c, 4, 60, 76
10, 36720, Note_on_c, 4, 48, 76
10, 36839, Note_on_c, 4, 60, 0
10, 36839, Note_on_c, 4, 48, 0
10, 37080, Control_c, 4, 11, 80
10, 37110, Control_c, 4, 11, 82
10, 37140, Control_c, 4, 11, 84
10, 37170, Control_c, 4, 11, 86
10, 37200, Control_c, 4, 11, 88
10, 37230, Control_c, 4, 11, 90
10, 37260, Control_c, 4, 11, 92
10, 37290, Control_c, 4, 11, 94
10, 37320, Control_c, 4, 11, 96
10, 37320, Note_on_c, 4, 60, 76
10, 37350, Control_c, 4, 11, 98
10, 37380, Control_c, 4, 11, 100
10, 37410, Control_c, 4, 11, 102
10, 37440, Control_c, 4, 11, 104
10, 37470, Control_c, 4, 11, 105
10, 37500, Control_c, 4, 11, 107
10, 37530, Control_c, 4, 11, 109
10, 37559, Note_on_c, 4, 60, 0
10, 37560, Note_on_c, 4, 65, 76
10, 37560, Control_c, 4, 11, 111
10, 37590, Control_c, 4, 11, 113
10, 37620, Control_c, 4, 11, 115
10, 37650, Control_c, 4, 11, 117
10, 37679, Note_on_c, 4, 65, 0
10, 37680, Note_on_c, 4, 64, 76
10, 37680, Control_c, 4, 11, 119
10, 37680, Note_on_c, 4, 48, 76
10, 37710, Control_c, 4, 11, 121
10, 37740, Control_c, 4, 11, 123
10, 37770, Control_c, 4, 11, 125
10, 37783, Note_on_c, 4, 64, 0
10, 37798, Control_c, 4, 11, 127
10, 37799, Note_on_c, 4, 48, 0
10, 37800, Note_on_c, 4, 43, 76
10, 37800, Note_on_c, 4, 59, 76
10, 38031, Note_on_c, 4, 43, 0
10, 38031, Note_on_c, 4, 59, 0
10, 38040, Note_on_c, 4, 43, 76
10, 38040, Note_on_c, 4, 59, 76
10, 38129, Note_on_c, 4, 43, 0
10, 38129, Note_on_c, 4, 59, 0
10, 38160, Note_on_c, 4, 48, 84
10, 38160, Note_on_c, 4, 60, 84
10, 38519, Note_on_c, 4, 60, 0
10, 38520, Note_on_c, 4, 55, 84
10, 38639, Note_on_c, 4, 48, 0
10, 38639, Note_on_c, 4, 55, 0
10, 38760, Note_on_c, 4, 64, 84
10, 38760, Note_on_c, 4, 55, 84
10, 38849, Note_on_c, 4, 64, 0
10, 38849, Note_on_c, 4, 55, 0
10, 38880, Note_on_c, 4, 62, 84
10, 38880, Note_on_c, 4, 53, 84
10, 39231, Note_on_c, 4, 53, 0
10, 39239, Note_on_c, 4, 62, 0
10, 39240, Note_on_c, 4, 53, 84
10, 39240, Note_on_c, 4, 57, 84
10, 39359, Note_on_c, 4, 53, 0
10, 39359, Note_on_c, 4, 57, 0
10, 39480, Note_on_c, 4, 65, 84
10, 39480, Note_on_c, 4, 57, 84
10, 39569, Note_on_c, 4, 65, 0
10, 39569, Note_on_c, 4, 57, 0
10, 39600, Note_on_c, 4, 60, 84
10, 39600, Note_on_c, 4, 64, 84
10, 39689, Note_on_c, 4, 60, 0
10, 39689, Note_on_c, 4, 64, 0
10, 43912, Control_c, 4, 11, 96
10, 43920, Note_on_c, 4, 58, 68
10, 43960, Control_c, 4, 11, 97
10, 44007, Control_c, 4, 11, 98
10, 44053, Control_c, 4, 11, 99
10, 44100, Control_c, 4, 11, 100
10, 44146, Control_c, 4, 11, 101
10, 44193, Control_c, 4, 11, 102
10, 44239, Control_c, 4, 11, 103
10, 44286, Control_c, 4, 11, 104
10, 44332, Control_c, 4, 11, 105
10, 44379, Control_c, 4, 11, 106
10, 44425, Control_c, 4, 11, 107
10, 44471, Control_c, 4, 11, 108
10, 44518, Control_c, 4, 11, 109
10, 44564, Control_c, 4, 11, 110
10, 44611, Control_c, 4, 11, 111
10, 44657, Control_c, 4, 11, 112
10, 44704, Control_c, 4, 11, 113
10, 44750, Control_c, 4, 11, 114
10, 44797, Control_c, 4, 11, 115
10, 44843, Control_c, 4, 11, 116
10, 44889, Control_c, 4, 11, 117
10, 44936, Control_c, 4, 11, 118
10, 44982, Control_c, 4, 11, 119
10, 45029, Control_c, 4, 11, 120
10, 45075, Control_c, 4, 11, 121
10, 45122, Control_c, 4, 11, 122
10, 45168, Control_c, 4, 11, 123
10, 45215, Control_c, 4, 11, 124
10, 45261, Control_c, 4, 11, 125
10, 45308, Control_c, 4, 11, 127
10, 45351, Note_on_c, 4, 58, 0
10, 45360, Note_on_c, 4, 53, 52
10, 45360, Note_on_c, 4, 57, 52
10, 46799, Note_on_c, 4, 53, 0
10, 46799, Note_on_c, 4, 57, 0
10, 46800, Note_on_c, 4, 57, 52
10, 46800, Note_on_c, 4, 53, 52
10, 47511, Note_on_c, 4, 57, 0
10, 47511, Note_on_c, 4, 53, 0
10, 47520, Note_on_c, 4, 50, 52
10, 47520, Note_on_c, 4, 53, 52
10, 48111, Note_on_c, 4, 50, 0
10, 48111, Note_on_c, 4, 53, 0
10, 48120, Note_on_c, 4, 55, 52
10, 48120, Note_on_c, 4, 52, 52
10, 48231, Note_on_c, 4, 55, 0
10, 48231, Note_on_c, 4, 52, 0
10, 48240, Note_on_c, 4, 52, 52
10, 48240, Note_on_c, 4, 55, 52
10, 48951, Note_on_c, 4, 52, 0
10, 48951, Note_on_c, 4, 55, 0
10, 48960, Note_on_c, 4, 53, 52
10, 48960, Note_on_c, 4, 57, 52
10, 49679, Note_on_c, 4, 57, 0
10, 49680, Note_on_c, 4, 55, 52
10, 50031, Note_on_c, 4, 53, 0
10, 50031, Note_on_c, 4, 55, 0
10, 50040, Note_on_c, 4, 55, 52
10, 50040, Note_on_c, 4, 52, 52
10, 50391, Note_on_c, 4, 55, 0
10, 50391, Note_on_c, 4, 52, 0
10, 50398, Control_c, 4, 11, 80
10, 50400, Note_on_c, 4, 57, 76
10, 50400, Note_on_c, 4, 53, 76
10, 50492, Control_c, 4, 11, 81
10, 50584, Control_c, 4, 11, 82
10, 50676, Control_c, 4, 11, 83
10, 50768, Control_c, 4, 11, 84
10, 50860, Control_c, 4, 11, 85
10, 50951, Control_c, 4, 11, 86
10, 51043, Control_c, 4, 11, 87
10, 51111, Note_on_c, 4, 57, 0
10, 51111, Note_on_c, 4, 53, 0
10, 51120, Note_on_c, 4, 53, 76
10, 51120, Note_on_c, 4, 57, 76
10, 51135, Control_c, 4, 11, 88
10, 51227, Control_c, 4, 11, 89
10, 51231, Note_on_c, 4, 53, 0
10, 51231, Note_on_c, 4, 57, 0
10, 51240, Note_on_c, 4, 57, 76
10, 51240, Note_on_c, 4, 53, 76
10, 51319, Control_c, 4, 11, 90
10, 51351, Note_on_c, 4, 57, 0
10, 51351, Note_on_c, 4, 53, 0
10, 51360, Note_on_c, 4, 53, 76
10, 51360, Note_on_c, 4, 57, 76
10, 51411, Control_c, 4, 11, 91
10, 51471, Note_on_c, 4, 53, 0
10, 51471, Note_on_c, 4, 57, 0
10, 51480, Note_on_c, 4, 57, 76
10, 51480, Note_on_c, 4, 53, 76
10, 51503, Control_c, 4, 11, 92
10, 51591, Note_on_c, 4, 57, 0
10, 51591, Note_on_c, 4, 53, 0
10, 51595, Control_c, 4, 11, 93
10, 51600, Note_on_c, 4, 53, 76
10, 51600, Note_on_c, 4, 57, 76
10, 51687, Control_c, 4, 11, 94
10, 51711, Note_on_c, 4, 53, 0
10, 51711, Note_on_c, 4, 57, 0
10, 51720, Note_on_c, 4, 53, 76
10, 51720, Note_on_c, 4, 57, 76
10, 51779, Control_c, 4, 11, 95
10, 51831, Note_on_c, 4, 53, 0
10, 51831, Note_on_c, 4, 57, 0
10, 51840, Note_on_c, 4, 57, 76
10, 51840, Note_on_c, 4, 53, 76
10, 51871, Control_c, 4, 11, 96
10, 51951, Note_on_c, 4, 57, 0
10, 51951, Note_on_c, 4, 53, 0
10, 51960, Note_on_c, 4, 57, 76
10, 51960, Note_on_c, 4, 53, 76
10, 51963, Control_c, 4, 11, 97
10, 52054, Control_c, 4, 11, 98
10, 52071, Note_on_c, 4, 57, 0
10, 52071, Note_on_c, 4, 53, 0
10, 52080, Note_on_c, 4, 53, 76
10, 52080, Note_on_c, 4, 57, 76
10, 52146, Control_c, 4, 11, 99
10, 52191, Note_on_c, 4, 53, 0
10, 52191, Note_on_c, 4, 57, 0
10, 52200, Note_on_c, 4, 53, 76
10, 52200, Note_on_c, 4, 57, 76
10, 52238, Control_c, 4, 11, 100
10, 52311, Note_on_c, 4, 53, 0
10, 52311, Note_on_c, 4, 57, 0
10, 52320, Note_on_c, 4, 53, 76
10, 52320, Note_on_c, 4, 57, 76
10, 52330, Control_c, 4, 11, 101
10, 52422, Control_c, 4, 11, 102
10, 52431, Note_on_c, 4, 53, 0
10, 52431, Note_on_c, 4, 57, 0
10, 52440, Note_on_c, 4, 53, 76
10, 52440, Note_on_c, 4, 57, 76
10, 52514, Control_c, 4, 11, 103
10, 52551, Note_on_c, 4, 53, 0
10, 52551, Note_on_c, 4, 57, 0
10, 52560, Note_on_c, 4, 53, 76
10, 52560, Note_on_c, 4, 57, 76
10, 52606, Control_c, 4, 11, 104
10, 52671, Note_on_c, 4, 53, 0
10, 52671, Note_on_c, 4, 57, 0
10, 52680, Note_on_c, 4, 57, 76
10, 52680, Note_on_c, 4, 53, 76
10, 52698, Control_c, 4, 11, 105
10, 52790, Control_c, 4, 11, 106
10, 52791, Note_on_c, 4, 57, 0
10, 52791, Note_on_c, 4, 53, 0
10, 52800, Note_on_c, 4, 57, 76
10, 52800, Note_on_c, 4, 53, 76
10, 52882, Control_c, 4, 11, 107
10, 52911, Note_on_c, 4, 57, 0
10, 52911, Note_on_c, 4, 53, 0
10, 52920, Note_on_c, 4, 53, 76
10, 52920, Note_on_c, 4, 57, 76
10, 52974, Control_c, 4, 11, 108
10, 53031, Note_on_c, 4, 53, 0
10, 53031, Note_on_c, 4, 57, 0
10, 53040, Note_on_c, 4, 53, 76
10, 53040, Note_on_c, 4, 57, 76
10, 53066, Control_c, 4, 11, 109
10, 53151, Note_on_c, 4, 53, 0
10, 53151, Note_on_c, 4, 57, 0
10, 53157, Control_c, 4, 11, 110
10, 53160, Note_on_c, 4, 57, 76
10, 53160, Note_on_c, 4, 53, 76
10, 53249, Control_c, 4, 11, 111
10, 53271, Note_on_c, 4, 57, 0
10, 53271, Note_on_c, 4, 53, 0
10, 53280, Note_on_c, 4, 53, 76
10, 53280, Note_on_c, 4, 57, 76
10, 53341, Control_c, 4, 11, 112
10, 53391, Note_on_c, 4, 53, 0
10, 53391, Note_on_c, 4, 57, 0
10, 53400, Note_on_c, 4, 53, 76
10, 53400, Note_on_c, 4, 57, 76
10, 53433, Control_c, 4, 11, 113
10, 53511, Note_on_c, 4, 53, 0
10, 53511, Note_on_c, 4, 57, 0
10, 53520, Note_on_c, 4, 57, 76
10, 53520, Note_on_c, 4, 53, 76
10, 53525, Control_c, 4, 11, 114
10, 53617, Control_c, 4, 11, 115
10, 53631, Note_on_c, 4, 57, 0
10, 53631, Note_on_c, 4, 53, 0
10, 53640, Note_on_c, 4, 53, 76
10, 53640, Note_on_c, 4, 57, 76
10, 53709, Control_c, 4, 11, 116
10, 53751, Note_on_c, 4, 53, 0
10, 53751, Note_on_c, 4, 57, 0
10, 53760, Note_on_c, 4, 57, 76
10, 53760, Note_on_c, 4, 53, 76
10, 53801, Control_c, 4, 11, 117
10, 53871, Note_on_c, 4, 57, 0
10, 53871, Note_on_c, 4, 53, 0
10, 53880, Note_on_c, 4, 57, 76
10, 53880, Note_on_c, 4, 53, 76
10, 53893, Control_c, 4, 11, 118
10, 53985, Control_c, 4, 11, 119
10, 53991, Note_on_c, 4, 57, 0
10, 53991, Note_on_c, 4, 53, 0
10, 54000, Note_on_c, 4, 63, 76
10, 54000, Note_on_c, 4, 53, 76
10, 54077, Control_c, 4, 11, 120
10, 54111, Note_on_c, 4, 63, 0
10, 54111, Note_on_c, 4, 53, 0
10, 54120, Note_on_c, 4, 53, 76
10, 54120, Note_on_c, 4, 63, 76
10, 54169, Control_c, 4, 11, 121
10, 54231, Note_on_c, 4, 53, 0
10, 54231, Note_on_c, 4, 63, 0
10, 54240, Note_on_c, 4, 53, 76
10, 54240, Note_on_c, 4, 63, 76
10, 54260, Control_c, 4, 11, 122
10, 54351, Note_on_c, 4, 53, 0
10, 54351, Note_on_c, 4, 63, 0
10, 54352, Control_c, 4, 11, 123
10, 54360, Note_on_c, 4, 53, 76
10, 54360, Note_on_c, 4, 63, 76
10, 54444, Control_c, 4, 11, 124
10, 54471, Note_on_c, 4, 53, 0
10, 54471, Note_on_c, 4, 63, 0
10, 54480, Note_on_c, 4, 63, 76
10, 54480, Note_on_c, 4, 53, 76
10, 54536, Control_c, 4, 11, 125
10, 54591, Note_on_c, 4, 63, 0
10, 54591, Note_on_c, 4, 53, 0
10, 54600, Note_on_c, 4, 63, 76
10, 54600, Note_on_c, 4, 53, 76
10, 54628, Control_c, 4, 11, 127
10, 54711, Note_on_c, 4, 63, 0
10, 54711, Note_on_c, 4, 53, 0
10, 54720, Note_on_c, 4, 53, 76
10, 54720, Note_on_c, 4, 63, 76
10, 54831, Note_on_c, 4, 53, 0
10, 54831, Note_on_c, 4, 63, 0
10, 54840, Note_on_c, 4, 63, 76
10, 54840, Note_on_c, 4, 53, 76
10, 54951, Note_on_c, 4, 63, 0
10, 54951, Note_on_c, 4, 53, 0
10, 54960, Note_on_c, 4, 63, 76
10, 54960, Note_on_c, 4, 53, 76
10, 55071, Note_on_c, 4, 63, 0
10, 55071, Note_on_c, 4, 53, 0
10, 55080, Note_on_c, 4, 63, 76
10, 55080, Note_on_c, 4, 53, 76
10, 55191, Note_on_c, 4, 63, 0
10, 55191, Note_on_c, 4, 53, 0
10, 55200, Note_on_c, 4, 53, 76
10, 55200, Note_on_c, 4, 63, 76
10, 55311, Note_on_c, 4, 53, 0
10, 55311, Note_on_c, 4, 63, 0
10, 55320, Note_on_c, 4, 57, 84
10, 55320, Note_on_c, 4, 65, 84
10, 55409, Note_on_c, 4, 57, 0
10, 55409, Note_on_c, 4, 65, 0
10, 55440, Note_on_c, 4, 57, 84
10, 55440, Note_on_c, 4, 65, 84
10, 55649, Note_on_c, 4, 57, 0
10, 55649, Note_on_c, 4, 65, 0
10, 55680, Note_on_c, 4, 57, 84
10, 55680, Note_on_c, 4, 65, 84
10, 55769, Note_on_c, 4, 57, 0
10, 55769, Note_on_c, 4, 65, 0
10, 55800, Note_on_c, 4, 65, 84
10, 55800, Note_on_c, 4, 57, 84
10, 56009, Note_on_c, 4, 65, 0
10, 56009, Note_on_c, 4, 57, 0
10, 56040, Note_on_c, 4, 65, 84
10, 56040, Note_on_c, 4, 57, 84
10, 56129, Note_on_c, 4, 65, 0
10, 56129, Note_on_c, 4, 57, 0
10, 56160, Note_on_c, 4, 65, 84
10, 56160, Note_on_c, 4, 57, 84
10, 56369, Note_on_c, 4, 65, 0
10, 56369, Note_on_c, 4, 57, 0
10, 56400, Note_on_c, 4, 65, 84
10, 56400, Note_on_c, 4, 57, 84
10, 56489, Note_on_c, 4, 65, 0
10, 56489, Note_on_c, 4, 57, 0
10, 56520, Note_on_c, 4, 57, 84
10, 56520, Note_on_c, 4, 65, 84
10, 56729, Note_on_c, 4, 57, 0
10, 56729, Note_on_c, 4, 65, 0
10, 56760, Note_on_c, 4, 57, 84
10, 56760, Note_on_c, 4, 65, 84
10, 56849, Note_on_c, 4, 57, 0
10, 56849, Note_on_c, 4, 65, 0
10, 56880, Note_on_c, 4, 62, 84
10, 56880, Note_on_c, 4, 58, 84
10, 57111, Note_on_c, 4, 62, 0
10, 57111, Note_on_c, 4, 58, 0
10, 57120, Note_on_c, 4, 62, 48
10, 57120, Note_on_c, 4, 53, 48
10, 57231, Note_on_c, 4, 62, 0
10, 57231, Note_on_c, 4, 53, 0
10, 57240, Note_on_c, 4, 53, 48
10, 57240, Note_on_c, 4, 62, 48
10, 57479, Note_on_c, 4, 53, 0
10, 57479, Note_on_c, 4, 62, 0
10, 57480, Note_on_c, 4, 51, 48
10, 57480, Note_on_c, 4, 60, 48
10, 57599, Note_on_c, 4, 51, 0
10, 57599, Note_on_c, 4, 60, 0
10, 57600, Note_on_c, 4, 58, 48
10, 57600, Note_on_c, 4, 50, 48
10, 57839, Note_on_c, 4, 58, 0
10, 57839, Note_on_c, 4, 50, 0
10, 57840, Note_on_c, 4, 60, 48
10, 57840, Note_on_c, 4, 51, 48
10, 57959, Note_on_c, 4, 60, 0
10, 57959, Note_on_c, 4, 51, 0
10, 57960, Note_on_c, 4, 53, 48
10, 57960, Note_on_c, 4, 62, 48
10, 58199, Note_on_c, 4, 53, 0
10, 58199, Note_on_c, 4, 62, 0
10, 58200, Note_on_c, 4, 58, 76
10, 58200, Note_on_c, 4, 41, 76
10, 58311, Note_on_c, 4, 58, 0
10, 58311, Note_on_c, 4, 41, 0
10, 58320, Note_on_c, 4, 58, 84
10, 58320, Note_on_c, 4, 48, 84
10, 58350, Control_c, 4, 11, 112
10, 58559, Note_on_c, 4, 58, 0
10, 58559, Note_on_c, 4, 48, 0
10, 58560, Note_on_c, 4, 57, 84
10, 58671, Note_on_c, 4, 57, 0
10, 58680, Note_on_c, 4, 57, 60
10, 58680, Note_on_c, 4, 53, 60
10, 58919, Note_on_c, 4, 57, 0
10, 58919, Note_on_c, 4, 53, 0
10, 58920, Note_on_c, 4, 55, 60
10, 58920, Note_on_c, 4, 59, 60
10, 59009, Note_on_c, 4, 55, 0
10, 59009, Note_on_c, 4, 59, 0
10, 59020, Note_on_c, 4, 59, 60
10, 59020, Note_on_c, 4, 62, 60
10, 59039, Note_on_c, 4, 59, 0
10, 59039, Note_on_c, 4, 62, 0
10, 59040, Note_on_c, 4, 60, 60
10, 59040, Note_on_c, 4, 57, 60
10, 59279, Note_on_c, 4, 60, 0
10, 59279, Note_on_c, 4, 57, 0
10, 59280, Note_on_c, 4, 55, 60
10, 59280, Note_on_c, 4, 59, 60
10, 59399, Note_on_c, 4, 55, 0
10, 59399, Note_on_c, 4, 59, 0
10, 59400, Note_on_c, 4, 57, 60
10, 59400, Note_on_c, 4, 60, 60
10, 59639, Note_on_c, 4, 57, 0
10, 59639, Note_on_c, 4, 60, 0
10, 59640, Note_on_c, 4, 59, 84
10, 59640, Note_on_c, 4, 62, 84
10, 59751, Note_on_c, 4, 59, 0
10, 59751, Note_on_c, 4, 62, 0
10, 59758, Control_c, 4, 11, 127
10, 59760, Note_on_c, 4, 59, 84
10, 59760, Note_on_c, 4, 62, 84
10, 59999, Note_on_c, 4, 59, 0
10, 59999, Note_on_c, 4, 62, 0
10, 60000, Note_on_c, 4, 63, 84
10, 60000, Note_on_c, 4, 60, 84
10, 60111, Note_on_c, 4, 63, 0
10, 60111, Note_on_c, 4, 60, 0
10, 60120, Note_on_c, 4, 60, 60
10, 60120, Note_on_c, 4, 63, 60
10, 60359, Note_on_c, 4, 60, 0
10, 60359, Note_on_c, 4, 63, 0
10, 60360, Note_on_c, 4, 58, 60
10, 60360, Note_on_c, 4, 62, 60
10, 60479, Note_on_c, 4, 58, 0
10, 60479, Note_on_c, 4, 62, 0
10, 60480, Note_on_c, 4, 60, 60
10, 60480, Note_on_c, 4, 57, 60
10, 60719, Note_on_c, 4, 60, 0
10, 60719, Note_on_c, 4, 57, 0
10, 60720, Note_on_c, 4, 62, 60
10, 60720, Note_on_c, 4, 58, 60
10, 60839, Note_on_c, 4, 62, 0
10, 60839, Note_on_c, 4, 58, 0
10, 60840, Note_on_c, 4, 63, 60
10, 60840, Note_on_c, 4, 60, 60
10, 61079, Note_on_c, 4, 63, 0
10, 61079, Note_on_c, 4, 60, 0
10, 61080, Note_on_c, 4, 57, 84
10, 61080, Note_on_c, 4, 65, 84
10, 61191, Note_on_c, 4, 57, 0
10, 61191, Note_on_c, 4, 65, 0
10, 61200, Note_on_c, 4, 58, 84
10, 61200, Note_on_c, 4, 62, 84
10, 61431, Note_on_c, 4, 58, 0
10, 61431, Note_on_c, 4, 62, 0
10, 61440, Note_on_c, 4, 58, 60
10, 61440, Note_on_c, 4, 62, 60
10, 61559, Note_on_c, 4, 58, 0
10, 61559, Note_on_c, 4, 62, 0
10, 61560, Note_on_c, 4, 60, 60
10, 61560, Note_on_c, 4, 63, 60
10, 61799, Note_on_c, 4, 60, 0
10, 61799, Note_on_c, 4, 63, 0
10, 61800, Note_on_c, 4, 65, 84
10, 61800, Note_on_c, 4, 62, 84
10, 61911, Note_on_c, 4, 65, 0
10, 61911, Note_on_c, 4, 62, 0
10, 61920, Note_on_c, 4, 67, 76
10, 61920, Note_on_c, 4, 63, 76
10, 62511, Note_on_c, 4, 67, 0
10, 62511, Note_on_c, 4, 63, 0
10, 62520, Note_on_c, 4, 67, 76
10, 62520, Note_on_c, 4, 63, 76
10, 62631, Note_on_c, 4, 67, 0
10, 62631, Note_on_c, 4, 63, 0
10, 62640, Note_on_c, 4, 65, 76
10, 62640, Note_on_c, 4, 62, 76
10, 63231, Note_on_c, 4, 65, 0
10, 63231, Note_on_c, 4, 62, 0
10, 63240, Note_on_c, 4, 62, 76
10, 63240, Note_on_c, 4, 65, 76
10, 63351, Note_on_c, 4, 62, 0
10, 63351, Note_on_c, 4, 65, 0
10, 63358, Control_c, 4, 11, 127
10, 63360, Note_on_c, 4, 63, 76
10, 63360, Note_on_c, 4, 60, 76
10, 63591, Note_on_c, 4, 63, 0
10, 63591, Note_on_c, 4, 60, 0
10, 63600, Note_on_c, 4, 63, 76
10, 63600, Note_on_c, 4, 60, 76
10, 63719, Note_on_c, 4, 63, 0
10, 63719, Note_on_c, 4, 60, 0
10, 63720, Note_on_c, 4, 65, 76
10, 63720, Note_on_c, 4, 62, 76
10, 63959, Note_on_c, 4, 65, 0
10, 63959, Note_on_c, 4, 62, 0
10, 63960, Note_on_c, 4, 63, 76
10, 63960, Note_on_c, 4, 60, 76
10, 64071, Note_on_c, 4, 63, 0
10, 64071, Note_on_c, 4, 60, 0
10, 64080, Note_on_c, 4, 62, 76
10, 64080, Note_on_c, 4, 58, 76
10, 64311, Note_on_c, 4, 62, 0
10, 64311, Note_on_c, 4, 58, 0
10, 64320, Note_on_c, 4, 46, 76
10, 64320, Note_on_c, 4, 50, 76
10, 64439, Note_on_c, 4, 46, 0
10, 64439, Note_on_c, 4, 50, 0
10, 64440, Note_on_c, 4, 48, 76
10, 64440, Note_on_c, 4, 51, 76
10, 64679, Note_on_c, 4, 48, 0
10, 64679, Note_on_c, 4, 51, 0
10, 64680, Note_on_c, 4, 53, 76
10, 64680, Note_on_c, 4, 50, 76
10, 64791, Note_on_c, 4, 53, 0
10, 64791, Note_on_c, 4, 50, 0
10, 64800, Note_on_c, 4, 55, 80
10, 64800, Note_on_c, 4, 51, 80
10, 65391, Note_on_c, 4, 55, 0
10, 65391, Note_on_c, 4, 51, 0
10, 65400, Note_on_c, 4, 51, 80
10, 65400, Note_on_c, 4, 55, 80
10, 65511, Note_on_c, 4, 51, 0
10, 65511, Note_on_c, 4, 55, 0
10, 65520, Note_on_c, 4, 58, 80
10, 65520, Note_on_c, 4, 53, 80
10, 66111, Note_on_c, 4, 58, 0
10, 66111, Note_on_c, 4, 53, 0
10, 66120, Note_on_c, 4, 58, 80
10, 66120, Note_on_c, 4, 53, 80
10, 66231, Note_on_c, 4, 58, 0
10, 66231, Note_on_c, 4, 53, 0
10, 66240, Note_on_c, 4, 54, 84
10, 66240, Note_on_c, 4, 61, 84
10, 66831, Note_on_c, 4, 54, 0
10, 66831, Note_on_c, 4, 61, 0
10, 66840, Note_on_c, 4, 61, 84
10, 66840, Note_on_c, 4, 55, 84
10, 66951, Note_on_c, 4, 61, 0
10, 66951, Note_on_c, 4, 55, 0
10, 66960, Note_on_c, 4, 56, 84
10, 66960, Note_on_c, 4, 61, 84
10, 66975, Control_c, 4, 11, 125
10, 66990, Control_c, 4, 11, 124
10, 67005, Control_c, 4, 11, 122
10, 67020, Control_c, 4, 11, 120
10, 67035, Control_c, 4, 11, 119
10, 67050, Control_c, 4, 11, 117
10, 67065, Control_c, 4, 11, 115
10, 67080, Control_c, 4, 11, 114
10, 67095, Control_c, 4, 11, 112
10, 67110, Control_c, 4, 11, 111
10, 67125, Control_c, 4, 11, 109
10, 67140, Control_c, 4, 11, 107
10, 67155, Control_c, 4, 11, 106
10, 67170, Control_c, 4, 11, 104
10, 67185, Control_c, 4, 11, 102
10, 67191, Note_on_c, 4, 56, 0
10, 67191, Note_on_c, 4, 61, 0
10, 67200, Note_on_c, 4, 56, 84
10, 67200, Control_c, 4, 11, 101
10, 67200, Note_on_c, 4, 61, 84
10, 67215, Control_c, 4, 11, 99
10, 67230, Control_c, 4, 11, 97
10, 67245, Control_c, 4, 11, 96
10, 67260, Control_c, 4, 11, 94
10, 67275, Control_c, 4, 11, 92
10, 67290, Control_c, 4, 11, 91
10, 67305, Control_c, 4, 11, 89
10, 67311, Note_on_c, 4, 56, 0
10, 67311, Note_on_c, 4, 61, 0
10, 67320, Note_on_c, 4, 60, 84
10, 67320, Control_c, 4, 11, 88
10, 67320, Note_on_c, 4, 56, 84
10, 67335, Control_c, 4, 11, 86
10, 67350, Control_c, 4, 11, 84
10, 67365, Control_c, 4, 11, 83
10, 67380, Control_c, 4, 11, 81
10, 67395, Control_c, 4, 11, 79
10, 67410, Control_c, 4, 11, 78
10, 67425, Control_c, 4, 11, 76
10, 67440, Control_c, 4, 11, 74
10, 67455, Control_c, 4, 11, 73
10, 67470, Control_c, 4, 11, 71
10, 67485, Control_c, 4, 11, 69
10, 67500, Control_c, 4, 11, 68
10, 67515, Control_c, 4, 11, 66
10, 67530, Control_c, 4, 11, 64
10, 67545, Control_c, 4, 11, 63
10, 67551, Note_on_c, 4, 60, 0
10, 67551, Note_on_c, 4, 56, 0
10, 67560, Note_on_c, 4, 56, 84
10, 67560, Control_c, 4, 11, 61
10, 67560, Note_on_c, 4, 60, 84
10, 67575, Control_c, 4, 11, 60
10, 67590, Control_c, 4, 11, 58
10, 67605, Control_c, 4, 11, 56
10, 67620, Control_c, 4, 11, 55
10, 67635, Control_c, 4, 11, 53
10, 67650, Control_c, 4, 11, 51
10, 67665, Control_c, 4, 11, 50
10, 67671, Note_on_c, 4, 56, 0
10, 67671, Note_on_c, 4, 60, 0
10, 67678, Control_c, 4, 11, 64
10, 67680, Note_on_c, 4, 61, 76
10, 67680, Note_on_c, 4, 56, 76
10, 68399, Note_on_c, 4, 61, 0
10, 68399, Note_on_c, 4, 56, 0
10, 68400, Note_on_c, 4, 60, 76
10, 68400, Note_on_c, 4, 57, 76
10, 69119, Note_on_c, 4, 60, 0
10, 69119, Note_on_c, 4, 57, 0
10, 69120, Note_on_c, 4, 61, 76
10, 69120, Note_on_c, 4, 58, 76
10, 69839, Note_on_c, 4, 61, 0
10, 69839, Note_on_c, 4, 58, 0
10, 69840, Note_on_c, 4, 59, 76
10, 69840, Note_on_c, 4, 62, 76
10, 70551, Note_on_c, 4, 59, 0
10, 70551, Note_on_c, 4, 62, 0
10, 70558, Control_c, 4, 11, 80
10, 70560, Note_on_c, 4, 60, 76
10, 70560, Note_on_c, 4, 64, 76
10, 70799, Note_on_c, 4, 60, 0
10, 70799, Note_on_c, 4, 64, 0
10, 71760, Control_c, 4, 11, 127
10, 71880, Note_on_c, 4, 65, 76
10, 71880, Note_on_c, 4, 62, 76
10, 71991, Note_on_c, 4, 65, 0
10, 71991, Note_on_c, 4, 62, 0
10, 72000, Note_on_c, 4, 59, 76
10, 72359, Note_on_c, 4, 59, 0
10, 72360, Note_on_c, 4, 55, 76
10, 72479, Note_on_c, 4, 55, 0
10, 72600, Note_on_c, 4, 62, 76
10, 72711, Note_on_c, 4, 62, 0
10, 72720, Note_on_c, 4, 60, 76
10, 73079, Note_on_c, 4, 60, 0
10, 73080, Note_on_c, 4, 55, 76
10, 73199, Note_on_c, 4, 55, 0
10, 73320, Note_on_c, 4, 64, 76
10, 73439, Note_on_c, 4, 64, 0
10, 74760, Note_on_c, 4, 65, 76
10, 74760, Note_on_c, 4, 62, 76
10, 74871, Note_on_c, 4, 65, 0
10, 74871, Note_on_c, 4, 62, 0
10, 74880, Note_on_c, 4, 59, 76
10, 75239, Note_on_c, 4, 59, 0
10, 75240, Note_on_c, 4, 55, 76
10, 75359, Note_on_c, 4, 55, 0
10, 75480, Note_on_c, 4, 62, 76
10, 75591, Note_on_c, 4, 62, 0
10, 75600, Note_on_c, 4, 60, 76
10, 75959, Note_on_c, 4, 60, 0
10, 75960, Note_on_c, 4, 55, 76
10, 76079, Note_on_c, 4, 55, 0
10, 76200, Note_on_c, 4, 64, 76
10, 76311, Note_on_c, 4, 64, 0
10, 76320, Note_on_c, 4, 60, 84
10, 76679, Note_on_c, 4, 60, 0
10, 76680, Note_on_c, 4, 55, 84
10, 76799, Note_on_c, 4, 55, 0
10, 76920, Note_on_c, 4, 64, 84
10, 77031, Note_on_c, 4, 64, 0
10, 77040, Note_on_c, 4, 60, 84
10, 77399, Note_on_c, 4, 60, 0
10, 77400, Note_on_c, 4, 55, 84
10, 77519, Note_on_c, 4, 55, 0
10, 77640, Note_on_c, 4, 64, 84
10, 77751, Note_on_c, 4, 64, 0
10, 77760, Note_on_c, 4, 48, 84
10, 77760, Note_on_c, 4, 55, 84
10, 77790, Control_c, 4, 11, 126
10, 77820, Control_c, 4, 11, 124
10, 77850, Control_c, 4, 11, 123
10, 77880, Control_c, 4, 11, 122
10, 77910, Control_c, 4, 11, 120
10, 77940, Control_c, 4, 11, 119
10, 77970, Control_c, 4, 11, 118
10, 78000, Control_c, 4, 11, 117
10, 78030, Control_c, 4, 11, 115
10, 78060, Control_c, 4, 11, 114
10, 78090, Control_c, 4, 11, 113
10, 78120, Control_c, 4, 11, 111
10, 78150, Control_c, 4, 11, 110
10, 78180, Control_c, 4, 11, 109
10, 78210, Control_c, 4, 11, 107
10, 78240, Control_c, 4, 11, 106
10, 78270, Control_c, 4, 11, 105
10, 78300, Control_c, 4, 11, 103
10, 78330, Control_c, 4, 11, 102
10, 78360, Control_c, 4, 11, 101
10, 78390, Control_c, 4, 11, 99
10, 78420, Control_c, 4, 11, 98
10, 78450, Control_c, 4, 11, 97
10, 78480, Control_c, 4, 11, 96
10, 78510, Control_c, 4, 11, 94
10, 78540, Control_c, 4, 11, 93
10, 78570, Control_c, 4, 11, 92
10, 78600, Control_c, 4, 11, 90
10, 78630, Control_c, 4, 11, 89
10, 78660, Control_c, 4, 11, 88
10, 78690, Control_c, 4, 11, 86
10, 78720, Control_c, 4, 11, 85
10, 78750, Control_c, 4, 11, 84
10, 78780, Control_c, 4, 11, 82
10, 78810, Control_c, 4, 11, 81
10, 78840, Control_c, 4, 11, 80
10, 78870, Control_c, 4, 11, 78
10, 78900, Control_c, 4, 11, 77
10, 78930, Control_c, 4, 11, 76
10, 78960, Control_c, 4, 11, 75
10, 78990, Control_c, 4, 11, 73
10, 79020, Control_c, 4, 11, 72
10, 79050, Control_c, 4, 11, 71
10, 79080, Control_c, 4, 11, 69
10, 79110, Control_c, 4, 11, 68
10, 79140, Control_c, 4, 11, 67
10, 79170, Control_c, 4, 11, 65
10, 79191, Note_on_c, 4, 48, 0
10, 79191, Note_on_c, 4, 55, 0
10, 79198, Control_c, 4, 11, 80
10, 79200, Note_on_c, 4, 48, 76
10, 79200, Note_on_c, 4, 55, 76
10, 79920, Control_c, 4, 11, 80
10, 79965, Control_c, 4, 11, 79
10, 80010, Control_c, 4, 11, 78
10, 80055, Control_c, 4, 11, 77
10, 80100, Control_c, 4, 11, 76
10, 80145, Control_c, 4, 11, 75
10, 80190, Control_c, 4, 11, 74
10, 80235, Control_c, 4, 11, 73
10, 80280, Control_c, 4, 11, 72
10, 80325, Control_c, 4, 11, 71
10, 80370, Control_c, 4, 11, 70
10, 80415, Control_c, 4, 11, 69
10, 80460, Control_c, 4, 11, 68
10, 80505, Control_c, 4, 11, 67
10, 80550, Control_c, 4, 11, 66
10, 80595, Control_c, 4, 11, 65
10, 80639, Note_on_c, 4, 48, 0
10, 80639, Note_on_c, 4, 55, 0
10, 80640, Note_on_c, 4, 55, 76
10, 80640, Note_on_c, 4, 48, 76
10, 81711, Note_on_c, 4, 55, 0
10, 81711, Note_on_c, 4, 48, 0
10, 81718, Control_c, 4, 11, 80
10, 81720, Control_c, 4, 11, 80
10, 81720, Note_on_c, 4, 58, 68
10, 81720, Note_on_c, 4, 55, 68
10, 81758, Control_c, 4, 11, 81
10, 81797, Control_c, 4, 11, 82
10, 81835, Control_c, 4, 11, 83
10, 81873, Control_c, 4, 11, 84
10, 81911, Control_c, 4, 11, 85
10, 81950, Control_c, 4, 11, 86
10, 81988, Control_c, 4, 11, 87
10, 82026, Control_c, 4, 11, 88
10, 82065, Control_c, 4, 11, 89
10, 82103, Control_c, 4, 11, 90
10, 82141, Control_c, 4, 11, 91
10, 82180, Control_c, 4, 11, 92
10, 82218, Control_c, 4, 11, 93
10, 82256, Control_c, 4, 11, 94
10, 82294, Control_c, 4, 11, 95
10, 82333, Control_c, 4, 11, 96
10, 82371, Control_c, 4, 11, 97
10, 82409, Control_c, 4, 11, 98
10, 82448, Control_c, 4, 11, 99
10, 82486, Control_c, 4, 11, 100
10, 82524, Control_c, 4, 11, 101
10, 82563, Control_c, 4, 11, 102
10, 82601, Control_c, 4, 11, 103
10, 82639, Control_c, 4, 11, 104
10, 82677, Control_c, 4, 11, 105
10, 82716, Control_c, 4, 11, 106
10, 82754, Control_c, 4, 11, 107
10, 82792, Control_c, 4, 11, 108
10, 82799, Note_on_c, 4, 58, 0
10, 82799, Note_on_c, 4, 55, 0
10, 82800, Note_on_c, 4, 58, 68
10, 82800, Note_on_c, 4, 55, 68
10, 82831, Control_c, 4, 11, 109
10, 82869, Control_c, 4, 11, 110
10, 82907, Control_c, 4, 11, 111
10, 82946, Control_c, 4, 11, 112
10, 82984, Control_c, 4, 11, 113
10, 83022, Control_c, 4, 11, 114
10, 83060, Control_c, 4, 11, 115
10, 83099, Control_c, 4, 11, 116
10, 83137, Control_c, 4, 11, 117
10, 83175, Control_c, 4, 11, 118
10, 83214, Control_c, 4, 11, 119
10, 83252, Control_c, 4, 11, 120
10, 83290, Control_c, 4, 11, 121
10, 83329, Control_c, 4, 11, 122
10, 83367, Control_c, 4, 11, 123
10, 83405, Control_c, 4, 11, 124
10, 83443, Control_c, 4, 11, 125
10, 83482, Control_c, 4, 11, 127
10, 83511, Note_on_c, 4, 58, 0
10, 83511, Note_on_c, 4, 55, 0
10, 83520, Note_on_c, 4, 57, 52
10, 83520, Note_on_c, 4, 53, 52
10, 84959, Note_on_c, 4, 57, 0
10, 84959, Note_on_c, 4, 53, 0
10, 84960, Note_on_c, 4, 57, 52
10, 84960, Note_on_c, 4, 53, 52
10, 85671, Note_on_c, 4, 57, 0
10, 85671, Note_on_c, 4, 53, 0
10, 85680, Note_on_c, 4, 50, 52
10, 85680, Note_on_c, 4, 53, 52
10, 86271, Note_on_c, 4, 50, 0
10, 86271, Note_on_c, 4, 53, 0
10, 86280, Note_on_c, 4, 52, 52
10, 86280, Note_on_c, 4, 55, 52
10, 86391, Note_on_c, 4, 52, 0
10, 86391, Note_on_c, 4, 55, 0
10, 86400, Note_on_c, 4, 55, 52
10, 86400, Note_on_c, 4, 52, 52
10, 87111, Note_on_c, 4, 55, 0
10, 87111, Note_on_c, 4, 52, 0
10, 87120, Note_on_c, 4, 53, 52
10, 87120, Note_on_c, 4, 57, 52
10, 87839, Note_on_c, 4, 57, 0
10, 87840, Note_on_c, 4, 55, 52
10, 88191, Note_on_c, 4, 53, 0
10, 88191, Note_on_c, 4, 55, 0
10, 88200, Note_on_c, 4, 55, 52
10, 88200, Note_on_c, 4, 52, 52
10, 88551, Note_on_c, 4, 55, 0
10, 88551, Note_on_c, 4, 52, 0
10, 88558, Control_c, 4, 11, 64
10, 88560, Note_on_c, 4, 53, 84
10, 88560, Note_on_c, 4, 57, 84
10, 88663, Control_c, 4, 11, 65
10, 88766, Control_c, 4, 11, 66
10, 88869, Control_c, 4, 11, 67
10, 88971, Control_c, 4, 11, 68
10, 89074, Control_c, 4, 11, 69
10, 89177, Control_c, 4, 11, 70
10, 89271, Note_on_c, 4, 53, 0
10, 89271, Note_on_c, 4, 57, 0
10, 89280, Control_c, 4, 11, 71
10, 89280, Note_on_c, 4, 53, 84
10, 89280, Note_on_c, 4, 57, 84
10, 89383, Control_c, 4, 11, 72
10, 89391, Note_on_c, 4, 53, 0
10, 89391, Note_on_c, 4, 57, 0
10, 89400, Note_on_c, 4, 57, 84
10, 89400, Note_on_c, 4, 53, 84
10, 89486, Control_c, 4, 11, 73
10, 89511, Note_on_c, 4, 57, 0
10, 89511, Note_on_c, 4, 53, 0
10, 89520, Note_on_c, 4, 53, 84
10, 89520, Note_on_c, 4, 57, 84
10, 89589, Control_c, 4, 11, 74
10, 89631, Note_on_c, 4, 53, 0
10, 89631, Note_on_c, 4, 57, 0
10, 89640, Note_on_c, 4, 53, 84
10, 89640, Note_on_c, 4, 57, 84
10, 89691, Control_c, 4, 11, 75
10, 89751, Note_on_c, 4, 53, 0
10, 89751, Note_on_c, 4, 57, 0
10, 89760, Note_on_c, 4, 53, 84
10, 89760, Note_on_c, 4, 57, 84
10, 89794, Control_c, 4, 11, 76
10, 89871, Note_on_c, 4, 53, 0
10, 89871, Note_on_c, 4, 57, 0
10, 89880, Note_on_c, 4, 53, 84
10, 89880, Note_on_c, 4, 57, 84
10, 89897, Control_c, 4, 11, 77
10, 89991, Note_on_c, 4, 53, 0
10, 89991, Note_on_c, 4, 57, 0
10, 90000, Control_c, 4, 11, 78
10, 90000, Note_on_c, 4, 53, 84
10, 90000, Note_on_c, 4, 57, 84
10, 90103, Control_c, 4, 11, 79
10, 90111, Note_on_c, 4, 53, 0
10, 90111, Note_on_c, 4, 57, 0
10, 90120, Note_on_c, 4, 53, 84
10, 90120, Note_on_c, 4, 57, 84
10, 90206, Control_c, 4, 11, 80
10, 90231, Note_on_c, 4, 53, 0
10, 90231, Note_on_c, 4, 57, 0
10, 90240, Note_on_c, 4, 57, 84
10, 90240, Note_on_c, 4, 53, 84
10, 90309, Control_c, 4, 11, 81
10, 90351, Note_on_c, 4, 57, 0
10, 90351, Note_on_c, 4, 53, 0
10, 90360, Note_on_c, 4, 53, 84
10, 90360, Note_on_c, 4, 57, 84
10, 90411, Control_c, 4, 11, 82
10, 90471, Note_on_c, 4, 53, 0
10, 90471, Note_on_c, 4, 57, 0
10, 90480, Note_on_c, 4, 53, 84
10, 90480, Note_on_c, 4, 57, 84
10, 90514, Control_c, 4, 11, 83
10, 90591, Note_on_c, 4, 53, 0
10, 90591, Note_on_c, 4, 57, 0
10, 90600, Note_on_c, 4, 57, 84
10, 90600, Note_on_c, 4, 53, 84
10, 90617, Control_c, 4, 11, 84
10, 90711, Note_on_c, 4, 57, 0
10, 90711, Note_on_c, 4, 53, 0
10, 90720, Note_on_c, 4, 53, 84
10, 90720, Control_c, 4, 11, 85
10, 90720, Note_on_c, 4, 57, 84
10, 90823, Control_c, 4, 11, 86
10, 90831, Note_on_c, 4, 53, 0
10, 90831, Note_on_c, 4, 57, 0
10, 90840, Note_on_c, 4, 53, 84
10, 90840, Note_on_c, 4, 57, 84
10, 90926, Control_c, 4, 11, 87
10, 90951, Note_on_c, 4, 53, 0
10, 90951, Note_on_c, 4, 57, 0
10, 90960, Note_on_c, 4, 53, 84
10, 90960, Note_on_c, 4, 57, 84
10, 91029, Control_c, 4, 11, 88
10, 91071, Note_on_c, 4, 53, 0
10, 91071, Note_on_c, 4, 57, 0
10, 91080, Note_on_c, 4, 53, 84
10, 91080, Note_on_c, 4, 57, 84
10, 91131, Control_c, 4, 11, 89
10, 91191, Note_on_c, 4, 53, 0
10, 91191, Note_on_c, 4, 57, 0
10, 91200, Note_on_c, 4, 57, 84
10, 91200, Note_on_c, 4, 53, 84
10, 91234, Control_c, 4, 11, 90
10, 91311, Note_on_c, 4, 57, 0
10, 91311, Note_on_c, 4, 53, 0
10, 91320, Note_on_c, 4, 57, 84
10, 91320, Note_on_c, 4, 53, 84
10, 91337, Control_c, 4, 11, 91
10, 91431, Note_on_c, 4, 57, 0
10, 91431, Note_on_c, 4, 53, 0
10, 91440, Note_on_c, 4, 53, 84
10, 91440, Control_c, 4, 11, 92
10, 91440, Note_on_c, 4, 50, 84
10, 91543, Control_c, 4, 11, 93
10, 91551, Note_on_c, 4, 53, 0
10, 91551, Note_on_c, 4, 50, 0
10, 91560, Note_on_c, 4, 50, 84
10, 91560, Note_on_c, 4, 53, 84
10, 91646, Control_c, 4, 11, 94
10, 91671, Note_on_c, 4, 50, 0
10, 91671, Note_on_c, 4, 53, 0
10, 91680, Note_on_c, 4, 53, 84
10, 91680, Note_on_c, 4, 50, 84
10, 91749, Control_c, 4, 11, 95
10, 91791, Note_on_c, 4, 53, 0
10, 91791, Note_on_c, 4, 50, 0
10, 91800, Note_on_c, 4, 53, 84
10, 91800, Note_on_c, 4, 50, 84
10, 91851, Control_c, 4, 11, 96
10, 91911, Note_on_c, 4, 53, 0
10, 91911, Note_on_c, 4, 50, 0
10, 91920, Note_on_c, 4, 50, 84
10, 91920, Note_on_c, 4, 53, 84
10, 91954, Control_c, 4, 11, 97
10, 92031, Note_on_c, 4, 50, 0
10, 92031, Note_on_c, 4, 53, 0
10, 92040, Note_on_c, 4, 55, 84
10, 92040, Note_on_c, 4, 52, 84
10, 92057, Control_c, 4, 11, 98
10, 92151, Note_on_c, 4, 55, 0
10, 92151, Note_on_c, 4, 52, 0
10, 92160, Control_c, 4, 11, 99
10, 92160, Note_on_c, 4, 55, 84
10, 92160, Note_on_c, 4, 52, 84
10, 92263, Control_c, 4, 11, 100
10, 92271, Note_on_c, 4, 55, 0
10, 92271, Note_on_c, 4, 52, 0
10, 92280, Note_on_c, 4, 52, 84
10, 92280, Note_on_c, 4, 55, 84
10, 92366, Control_c, 4, 11, 101
10, 92391, Note_on_c, 4, 52, 0
10, 92391, Note_on_c, 4, 55, 0
10, 92400, Note_on_c, 4, 55, 84
10, 92400, Note_on_c, 4, 52, 84
10, 92469, Control_c, 4, 11, 102
10, 92511, Note_on_c, 4, 55, 0
10, 92511, Note_on_c, 4, 52, 0
10, 92520, Note_on_c, 4, 55, 84
10, 92520, Note_on_c, 4, 52, 84
10, 92571, Control_c, 4, 11, 103
10, 92631, Note_on_c, 4, 55, 0
10, 92631, Note_on_c, 4, 52, 0
10, 92640, Note_on_c, 4, 52, 84
10, 92640, Note_on_c, 4, 55, 84
10, 92674, Control_c, 4, 11, 104
10, 92751, Note_on_c, 4, 52, 0
10, 92751, Note_on_c, 4, 55, 0
10, 92760, Note_on_c, 4, 48, 84
10, 92760, Note_on_c, 4, 55, 84
10, 92777, Control_c, 4, 11, 105
10, 92871, Note_on_c, 4, 48, 0
10, 92871, Note_on_c, 4, 55, 0
10, 92880, Note_on_c, 4, 57, 84
10, 92880, Note_on_c, 4, 53, 84
10, 92880, Control_c, 4, 11, 106
10, 92983, Control_c, 4, 11, 107
10, 92991, Note_on_c, 4, 57, 0
10, 92991, Note_on_c, 4, 53, 0
10, 93000, Note_on_c, 4, 53, 84
10, 93000, Note_on_c, 4, 57, 84
10, 93086, Control_c, 4, 11, 108
10, 93111, Note_on_c, 4, 53, 0
10, 93111, Note_on_c, 4, 57, 0
10, 93120, Note_on_c, 4, 53, 84
10, 93120, Note_on_c, 4, 57, 84
10, 93189, Control_c, 4, 11, 109
10, 93231, Note_on_c, 4, 53, 0
10, 93231, Note_on_c, 4, 57, 0
10, 93240, Note_on_c, 4, 50, 84
10, 93240, Note_on_c, 4, 53, 84
10, 93291, Control_c, 4, 11, 110
10, 93351, Note_on_c, 4, 50, 0
10, 93351, Note_on_c, 4, 53, 0
10, 93360, Note_on_c, 4, 53, 84
10, 93360, Note_on_c, 4, 50, 84
10, 93394, Control_c, 4, 11, 111
10, 93471, Note_on_c, 4, 53, 0
10, 93471, Note_on_c, 4, 50, 0
10, 93480, Note_on_c, 4, 53, 84
10, 93480, Note_on_c, 4, 45, 84
10, 93497, Control_c, 4, 11, 112
10, 93591, Note_on_c, 4, 53, 0
10, 93591, Note_on_c, 4, 45, 0
10, 93600, Note_on_c, 4, 53, 84
10, 93600, Note_on_c, 4, 46, 84
10, 93600, Control_c, 4, 11, 113
10, 93703, Control_c, 4, 11, 114
10, 93711, Note_on_c, 4, 53, 0
10, 93711, Note_on_c, 4, 46, 0
10, 93720, Note_on_c, 4, 46, 84
10, 93720, Note_on_c, 4, 53, 84
10, 93806, Control_c, 4, 11, 115
10, 93831, Note_on_c, 4, 46, 0
10, 93831, Note_on_c, 4, 53, 0
10, 93840, Note_on_c, 4, 53, 84
10, 93840, Note_on_c, 4, 46, 84
10, 93909, Control_c, 4, 11, 116
10, 93951, Note_on_c, 4, 53, 0
10, 93951, Note_on_c, 4, 46, 0
10, 93960, Note_on_c, 4, 48, 84
10, 93960, Note_on_c, 4, 52, 84
10, 94011, Control_c, 4, 11, 117
10, 94071, Note_on_c, 4, 48, 0
10, 94071, Note_on_c, 4, 52, 0
10, 94080, Note_on_c, 4, 52, 84
10, 94080, Note_on_c, 4, 48, 84
10, 94114, Control_c, 4, 11, 118
10, 94191, Note_on_c, 4, 52, 0
10, 94191, Note_on_c, 4, 48, 0
10, 94200, Note_on_c, 4, 48, 84
10, 94200, Note_on_c, 4, 52, 84
10, 94217, Control_c, 4, 11, 119
10, 94311, Note_on_c, 4, 48, 0
10, 94311, Note_on_c, 4, 52, 0
10, 94320, Note_on_c, 4, 41, 84
10, 94320, Control_c, 4, 11, 120
10, 94320, Note_on_c, 4, 53, 84
10, 94423, Control_c, 4, 11, 121
10, 94431, Note_on_c, 4, 41, 0
10, 94431, Note_on_c, 4, 53, 0
10, 94440, Note_on_c, 4, 41, 84
10, 94440, Note_on_c, 4, 53, 84
10, 94526, Control_c, 4, 11, 122
10, 94551, Note_on_c, 4, 41, 0
10, 94551, Note_on_c, 4, 53, 0
10, 94560, Note_on_c, 4, 41, 84
10, 94560, Note_on_c, 4, 53, 84
10, 94629, Control_c, 4, 11, 123
10, 94671, Note_on_c, 4, 41, 0
10, 94671, Note_on_c, 4, 53, 0
10, 94680, Note_on_c, 4, 53, 84
10, 94680, Note_on_c, 4, 41, 84
10, 94731, Control_c, 4, 11, 124
10, 94791, Note_on_c, 4, 53, 0
10, 94791, Note_on_c, 4, 41, 0
10, 94800, Note_on_c, 4, 41, 84
10, 94800, Note_on_c, 4, 53, 84
10, 94834, Control_c, 4, 11, 125
10, 94911, Note_on_c, 4, 41, 0
10, 94911, Note_on_c, 4, 53, 0
10, 94920, Note_on_c, 4, 53, 84
10, 94920, Note_on_c, 4, 41, 84
10, 94937, Control_c, 4, 11, 126
10, 95031, Note_on_c, 4, 53, 0
10, 95031, Note_on_c, 4, 41, 0
10, 95038, Control_c, 4, 11, 127
10, 95040, Note_on_c, 4, 41, 84
10, 95040, Note_on_c, 4, 53, 84
10, 95151, Note_on_c, 4, 41, 0
10, 95151, Note_on_c, 4, 53, 0
10, 95160, Note_on_c, 4, 41, 84
10, 95160, Note_on_c, 4, 53, 84
10, 95271, Note_on_c, 4, 41, 0
10, 95271, Note_on_c, 4, 53, 0
10, 95280, Note_on_c, 4, 53, 84
10, 95280, Note_on_c, 4, 41, 84
10, 95391, Note_on_c, 4, 53, 0
10, 95391, Note_on_c, 4, 41, 0
10, 95400, Note_on_c, 4, 41, 84
10, 95400, Note_on_c, 4, 53, 84
10, 95511, Note_on_c, 4, 41, 0
10, 95511, Note_on_c, 4, 53, 0
10, 95520, Note_on_c, 4, 53, 84
10, 95520, Note_on_c, 4, 41, 84
10, 95631, Note_on_c, 4, 53, 0
10, 95631, Note_on_c, 4, 41, 0
10, 95640, Note_on_c, 4, 41, 84
10, 95640, Note_on_c, 4, 53, 84
10, 95751, Note_on_c, 4, 41, 0
10, 95751, Note_on_c, 4, 53, 0
10, 95760, Note_on_c, 4, 53, 84
10, 95760, Note_on_c, 4, 41, 84
10, 95871, Note_on_c, 4, 53, 0
10, 95871, Note_on_c, 4, 41, 0
10, 95880, Note_on_c, 4, 53, 84
10, 95880, Note_on_c, 4, 41, 84
10, 95991, Note_on_c, 4, 53, 0
10, 95991, Note_on_c, 4, 41, 0
10, 96000, Note_on_c, 4, 53, 84
10, 96000, Note_on_c, 4, 41, 84
10, 96111, Note_on_c, 4, 53, 0
10, 96111, Note_on_c, 4, 41, 0
10, 96120, Note_on_c, 4, 41, 84
10, 96120, Note_on_c, 4, 53, 84
10, 96231, Note_on_c, 4, 41, 0
10, 96231, Note_on_c, 4, 53, 0
10, 96240, Note_on_c, 4, 53, 84
10, 96240, Note_on_c, 4, 41, 84
10, 96351, Note_on_c, 4, 53, 0
10, 96351, Note_on_c, 4, 41, 0
10, 96360, Note_on_c, 4, 53, 84
10, 96360, Note_on_c, 4, 41, 84
10, 96471, Note_on_c, 4, 53, 0
10, 96471, Note_on_c, 4, 41, 0
10, 96480, Note_on_c, 4, 41, 84
10, 96480, Note_on_c, 4, 53, 84
10, 96591, Note_on_c, 4, 41, 0
10, 96591, Note_on_c, 4, 53, 0
10, 96600, Note_on_c, 4, 53, 84
10, 96600, Note_on_c, 4, 41, 84
10, 96711, Note_on_c, 4, 53, 0
10, 96711, Note_on_c, 4, 41, 0
10, 96720, Note_on_c, 4, 41, 84
10, 96720, Note_on_c, 4, 53, 84
10, 96831, Note_on_c, 4, 41, 0
10, 96831, Note_on_c, 4, 53, 0
10, 96840, Note_on_c, 4, 53, 84
10, 96840, Note_on_c, 4, 41, 84
10, 96951, Note_on_c, 4, 53, 0
10, 96951, Note_on_c, 4, 41, 0
10, 96960, Note_on_c, 4, 53, 84
10, 96960, Note_on_c, 4, 41, 84
10, 97071, Note_on_c, 4, 53, 0
10, 97071, Note_on_c, 4, 41, 0
10, 97080, Note_on_c, 4, 53, 84
10, 97080, Note_on_c, 4, 41, 84
10, 97191, Note_on_c, 4, 53, 0
10, 97191, Note_on_c, 4, 41, 0
10, 97200, Note_on_c, 4, 38, 84
10, 97200, Note_on_c, 4, 50, 84
10, 97311, Note_on_c, 4, 38, 0
10, 97311, Note_on_c, 4, 50, 0
10, 97320, Note_on_c, 4, 50, 84
10, 97320, Note_on_c, 4, 38, 84
10, 97431, Note_on_c, 4, 50, 0
10, 97431, Note_on_c, 4, 38, 0
10, 97440, Note_on_c, 4, 38, 84
10, 97440, Note_on_c, 4, 50, 84
10, 97551, Note_on_c, 4, 38, 0
10, 97551, Note_on_c, 4, 50, 0
10, 97560, Note_on_c, 4, 50, 84
10, 97560, Note_on_c, 4, 38, 84
10, 97671, Note_on_c, 4, 50, 0
10, 97671, Note_on_c, 4, 38, 0
10, 97680, Note_on_c, 4, 50, 84
10, 97680, Note_on_c, 4, 38, 84
10, 97791, Note_on_c, 4, 50, 0
10, 97791, Note_on_c, 4, 38, 0
10, 97800, Note_on_c, 4, 52, 84
10, 97800, Note_on_c, 4, 40, 84
10, 97911, Note_on_c, 4, 52, 0
10, 97911, Note_on_c, 4, 40, 0
10, 97920, Note_on_c, 4, 40, 84
10, 97920, Note_on_c, 4, 52, 84
10, 98031, Note_on_c, 4, 40, 0
10, 98031, Note_on_c, 4, 52, 0
10, 98040, Note_on_c, 4, 40, 84
10, 98040, Note_on_c, 4, 52, 84
10, 98151, Note_on_c, 4, 40, 0
10, 98151, Note_on_c, 4, 52, 0
10, 98160, Note_on_c, 4, 52, 84
10, 98160, Note_on_c, 4, 40, 84
10, 98271, Note_on_c, 4, 52, 0
10, 98271, Note_on_c, 4, 40, 0
10, 98280, Note_on_c, 4, 52, 84
10, 98280, Note_on_c, 4, 40, 84
10, 98391, Note_on_c, 4, 52, 0
10, 98391, Note_on_c, 4, 40, 0
10, 98400, Note_on_c, 4, 52, 84
10, 98400, Note_on_c, 4, 40, 84
10, 98511, Note_on_c, 4, 52, 0
10, 98511, Note_on_c, 4, 40, 0
10, 98520, Note_on_c, 4, 36, 84
10, 98520, Note_on_c, 4, 48, 84
10, 98631, Note_on_c, 4, 36, 0
10, 98631, Note_on_c, 4, 48, 0
10, 98640, Note_on_c, 4, 41, 84
10, 98640, Note_on_c, 4, 53, 84
10, 98751, Note_on_c, 4, 41, 0
10, 98751, Note_on_c, 4, 53, 0
10, 98760, Note_on_c, 4, 41, 84
10, 98760, Note_on_c, 4, 53, 84
10, 98871, Note_on_c, 4, 41, 0
10, 98871, Note_on_c, 4, 53, 0
10, 98880, Note_on_c, 4, 41, 84
10, 98880, Note_on_c, 4, 53, 84
10, 98991, Note_on_c, 4, 41, 0
10, 98991, Note_on_c, 4, 53, 0
10, 99000, Note_on_c, 4, 38, 84
10, 99000, Note_on_c, 4, 50, 84
10, 99111, Note_on_c, 4, 38, 0
10, 99111, Note_on_c, 4, 50, 0
10, 99120, Note_on_c, 4, 50, 84
10, 99120, Note_on_c, 4, 38, 84
10, 99231, Note_on_c, 4, 50, 0
10, 99231, Note_on_c, 4, 38, 0
10, 99240, Note_on_c, 4, 45, 84
10, 99351, Note_on_c, 4, 45, 0
10, 99360, Note_on_c, 4, 34, 84
10, 99360, Note_on_c, 4, 46, 84
10, 99471, Note_on_c, 4, 34, 0
10, 99471, Note_on_c, 4, 46, 0
10, 99480, Note_on_c, 4, 34, 84
10, 99480, Note_on_c, 4, 46, 84
10, 99591, Note_on_c, 4, 34, 0
10, 99591, Note_on_c, 4, 46, 0
10, 99600, Note_on_c, 4, 46, 84
10, 99600, Note_on_c, 4, 34, 84
10, 99711, Note_on_c, 4, 46, 0
10, 99711, Note_on_c, 4, 34, 0
10, 99720, Note_on_c, 4, 48, 84
10, 99720, Note_on_c, 4, 36, 84
10, 99831, Note_on_c, 4, 48, 0
10, 99831, Note_on_c, 4, 36, 0
10, 99840, Note_on_c, 4, 48, 84
10, 99840, Note_on_c, 4, 36, 84
10, 99951, Note_on_c, 4, 48, 0
10, 99951, Note_on_c, 4, 36, 0
10, 99960, Note_on_c, 4, 48, 84
10, 99960, Note_on_c, 4, 36, 84
10, 100071, Note_on_c, 4, 48, 0
10, 100071, Note_on_c, 4, 36, 0
10, 100080, Note_on_c, 4, 41, 84
10, 100080, Note_on_c, 4, 53, 84
10, 100199, Note_on_c, 4, 41, 0
10, 100199, Note_on_c, 4, 53, 0
10, 101400, Note_on_c, 4, 55, 84
10, 101400, Note_on_c, 4, 52, 84
10, 101511, Note_on_c, 4, 55, 0
10, 101511, Note_on_c, 4, 52, 0
10, 101520, Note_on_c, 4, 53, 84
10, 101871, Note_on_c, 4, 53, 0
10, 101880, Note_on_c, 4, 52, 84
10, 101880, Note_on_c, 4, 55, 84
10, 102231, Note_on_c, 4, 52, 0
10, 102231, Note_on_c, 4, 55, 0
10, 102240, Note_on_c, 4, 53, 84
10, 102240, Note_on_c, 4, 57, 84
10, 102591, Note_on_c, 4, 53, 0
10, 102591, Note_on_c, 4, 57, 0
10, 102600, Note_on_c, 4, 55, 84
10, 102600, Note_on_c, 4, 58, 84
10, 102831, Note_on_c, 4, 55, 0
10, 102831, Note_on_c, 4, 58, 0
10, 102840, Note_on_c, 4, 55, 84
10, 102840, Note_on_c, 4, 52, 84
10, 102959, Note_on_c, 4, 55, 0
10, 102959, Note_on_c, 4, 52, 0
10, 103560, Note_on_c, 4, 48, 84
10, 103560, Note_on_c, 4, 55, 84
10, 103671, Note_on_c, 4, 48, 0
10, 103671, Note_on_c, 4, 55, 0
10, 103680, Note_on_c, 4, 57, 92
10, 103680, Note_on_c, 4, 53, 92
10, 103740, Control_c, 4, 11, 112
10, 104031, Note_on_c, 4, 57, 0
10, 104031, Note_on_c, 4, 53, 0
10, 104038, Control_c, 4, 11, 127
10, 104040, Note_on_c, 4, 55, 92
10, 104040, Note_on_c, 4, 59, 92
10, 104100, Control_c, 4, 11, 112
10, 104271, Note_on_c, 4, 55, 0
10, 104271, Note_on_c, 4, 59, 0
10, 104280, Note_on_c, 4, 59, 92
10, 104280, Note_on_c, 4, 55, 92
10, 104391, Note_on_c, 4, 59, 0
10, 104391, Note_on_c, 4, 55, 0
10, 104398, Control_c, 4, 11, 127
10, 104400, Note_on_c, 4, 60, 92
10, 104400, Note_on_c, 4, 57, 92
10, 104460, Control_c, 4, 11, 112
10, 104751, Note_on_c, 4, 60, 0
10, 104751, Note_on_c, 4, 57, 0
10, 104758, Control_c, 4, 11, 127
10, 104760, Note_on_c, 4, 62, 92
10, 104760, Note_on_c, 4, 59, 92
10, 104820, Control_c, 4, 11, 112
10, 104991, Note_on_c, 4, 62, 0
10, 104991, Note_on_c, 4, 59, 0
10, 105000, Note_on_c, 4, 62, 92
10, 105000, Note_on_c, 4, 59, 92
10, 105111, Note_on_c, 4, 62, 0
10, 105111, Note_on_c, 4, 59, 0
10, 105118, Control_c, 4, 11, 127
10, 105120, Note_on_c, 4, 60, 92
10, 105120, Note_on_c, 4, 64, 92
10, 105180, Control_c, 4, 11, 112
10, 105471, Note_on_c, 4, 60, 0
10, 105471, Note_on_c, 4, 64, 0
10, 105478, Control_c, 4, 11, 127
10, 105480, Note_on_c, 4, 65, 92
10, 105480, Note_on_c, 4, 62, 92
10, 105540, Control_c, 4, 11, 112
10, 105711, Note_on_c, 4, 65, 0
10, 105711, Note_on_c, 4, 62, 0
10, 105720, Note_on_c, 4, 53, 92
10, 105720, Note_on_c, 4, 50, 92
10, 105831, Note_on_c, 4, 53, 0
10, 105831, Note_on_c, 4, 50, 0
10, 105838, Control_c, 4, 11, 127
10, 105840, Note_on_c, 4, 55, 88
10, 105840, Note_on_c, 4, 52, 88
10, 106191, Note_on_c, 4, 55, 0
10, 106191, Note_on_c, 4, 52, 0
10, 106200, Note_on_c, 4, 53, 88
10, 106200, Note_on_c, 4, 57, 88
10, 106551, Note_on_c, 4, 53, 0
10, 106551, Note_on_c, 4, 57, 0
10, 106560, Note_on_c, 4, 58, 88
10, 106560, Note_on_c, 4, 55, 88
10, 106911, Note_on_c, 4, 58, 0
10, 106911, Note_on_c, 4, 55, 0
10, 106920, Note_on_c, 4, 56, 88
10, 106920, Note_on_c, 4, 59, 88
10, 107151, Note_on_c, 4, 56, 0
10, 107151, Note_on_c, 4, 59, 0
10, 107160, Note_on_c, 4, 59, 88
10, 107160, Note_on_c, 4, 56, 88
10, 107271, Note_on_c, 4, 59, 0
10, 107271, Note_on_c, 4, 56, 0
10, 107280, Note_on_c, 4, 57, 96
10, 107280, Note_on_c, 4, 60, 96
10, 107340, Control_c, 4, 11, 112
10, 107871, Note_on_c, 4, 57, 0
10, 107871, Note_on_c, 4, 60, 0
10, 107880, Note_on_c, 4, 57, 96
10, 107880, Note_on_c, 4, 53, 96
10, 107991, Note_on_c, 4, 57, 0
10, 107991, Note_on_c, 4, 53, 0
10, 107998, Control_c, 4, 11, 127
10, 108000, Note_on_c, 4, 57, 88
10, 108000, Note_on_c, 4, 53, 88
10, 108231, Note_on_c, 4, 57, 0
10, 108231, Note_on_c, 4, 53, 0
10, 108240, Note_on_c, 4, 53, 88
10, 108240, Note_on_c, 4, 57, 88
10, 108351, Note_on_c, 4, 53, 0
10, 108351, Note_on_c, 4, 57, 0
10, 108360, Note_on_c, 4, 53, 88
10, 108360, Note_on_c, 4, 57, 88
10, 108591, Note_on_c, 4, 53, 0
10, 108591, Note_on_c, 4, 57, 0
10, 108600, Note_on_c, 4, 57, 88
10, 108600, Note_on_c, 4, 53, 88
10, 108711, Note_on_c, 4, 57, 0
10, 108711, Note_on_c, 4, 53, 0
10, 108720, Note_on_c, 4, 58, 88
10, 108720, Note_on_c, 4, 55, 88
10, 109311, Note_on_c, 4, 58, 0
10, 109311, Note_on_c, 4, 55, 0
10, 109320, Note_on_c, 4, 52, 88
10, 109320, Note_on_c, 4, 55, 88
10, 109431, Note_on_c, 4, 52, 0
10, 109431, Note_on_c, 4, 55, 0
10, 109440, Note_on_c, 4, 55, 88
10, 109440, Note_on_c, 4, 52, 88
10, 109671, Note_on_c, 4, 55, 0
10, 109671, Note_on_c, 4, 52, 0
10, 109680, Note_on_c, 4, 52, 88
10, 109680, Note_on_c, 4, 55, 88
10, 109791, Note_on_c, 4, 52, 0
10, 109791, Note_on_c, 4, 55, 0
10, 109800, Note_on_c, 4, 55, 88
10, 109800, Note_on_c, 4, 52, 88
10, 110031, Note_on_c, 4, 55, 0
10, 110031, Note_on_c, 4, 52, 0
10, 110040, Note_on_c, 4, 52, 88
10, 110040, Note_on_c, 4, 55, 88
10, 110151, Note_on_c, 4, 52, 0
10, 110151, Note_on_c, 4, 55, 0
10, 110160, Note_on_c, 4, 60, 88
10, 110160, Note_on_c, 4, 57, 88
10, 110391, Note_on_c, 4, 60, 0
10, 110391, Note_on_c, 4, 57, 0
10, 110400, Note_on_c, 4, 60, 88
10, 110400, Note_on_c, 4, 57, 88
10, 110511, Note_on_c, 4, 60, 0
10, 110511, Note_on_c, 4, 57, 0
10, 110520, Note_on_c, 4, 60, 88
10, 110520, Note_on_c, 4, 57, 88
10, 110751, Note_on_c, 4, 60, 0
10, 110751, Note_on_c, 4, 57, 0
10, 110760, Note_on_c, 4, 57, 88
10, 110760, Note_on_c, 4, 60, 88
10, 110871, Note_on_c, 4, 57, 0
10, 110871, Note_on_c, 4, 60, 0
10, 110880, Note_on_c, 4, 60, 88
10, 110880, Note_on_c, 4, 57, 88
10, 111111, Note_on_c, 4, 60, 0
10, 111111, Note_on_c, 4, 57, 0
10, 111120, Note_on_c, 4, 53, 88
10, 111120, Note_on_c, 4, 57, 88
10, 111231, Note_on_c, 4, 53, 0
10, 111231, Note_on_c, 4, 57, 0
10, 111240, Note_on_c, 4, 57, 88
10, 111240, Note_on_c, 4, 53, 88
10, 111471, Note_on_c, 4, 57, 0
10, 111471, Note_on_c, 4, 53, 0
10, 111480, Note_on_c, 4, 57, 88
10, 111480, Note_on_c, 4, 53, 88
10, 111591, Note_on_c, 4, 57, 0
10, 111591, Note_on_c, 4, 53, 0
10, 111600, Note_on_c, 4, 55, 88
10, 111600, Note_on_c, 4, 58, 88
10, 111831, Note_on_c, 4, 55, 0
10, 111831, Note_on_c, 4, 58, 0
10, 111840, Note_on_c, 4, 55, 88
10, 111840, Note_on_c, 4, 58, 88
10, 111951, Note_on_c, 4, 55, 0
10, 111951, Note_on_c, 4, 58, 0
10, 111960, Note_on_c, 4, 55, 88
10, 111960, Note_on_c, 4, 58, 88
10, 112191, Note_on_c, 4, 55, 0
10, 112191, Note_on_c, 4, 58, 0
10, 112200, Note_on_c, 4, 58, 88
10, 112200, Note_on_c, 4, 55, 88
10, 112311, Note_on_c, 4, 58, 0
10, 112311, Note_on_c, 4, 55, 0
10, 112320, Note_on_c, 4, 55, 88
10, 112320, Note_on_c, 4, 58, 88
10, 112551, Note_on_c, 4, 55, 0
10, 112551, Note_on_c, 4, 58, 0
10, 112560, Note_on_c, 4, 52, 88
10, 112560, Note_on_c, 4, 55, 88
10, 112671, Note_on_c, 4, 52, 0
10, 112671, Note_on_c, 4, 55, 0
10, 112680, Note_on_c, 4, 55, 88
10, 112680, Note_on_c, 4, 52, 88
10, 112911, Note_on_c, 4, 55, 0
10, 112911, Note_on_c, 4, 52, 0
10, 112920, Note_on_c, 4, 52, 88
10, 112920, Note_on_c, 4, 55, 88
10, 113031, Note_on_c, 4, 52, 0
10, 113031, Note_on_c, 4, 55, 0
10, 113040, Note_on_c, 4, 53, 88
10, 113040, Note_on_c, 4, 57, 88
10, 113279, Note_on_c, 4, 53, 0
10, 113279, Note_on_c, 4, 57, 0
10, 113760, Control_c, 4, 11, 117
10, 114000, Note_on_c, 4, 57, 76
10, 114000, Note_on_c, 4, 53, 76
10, 114000, Control_c, 4, 11, 119
10, 114030, Control_c, 4, 11, 121
10, 114060, Control_c, 4, 11, 123
10, 114090, Control_c, 4, 11, 127
10, 114119, Note_on_c, 4, 57, 0
10, 114119, Note_on_c, 4, 53, 0
10, 114120, Note_on_c, 4, 55, 76
10, 114120, Note_on_c, 4, 52, 76
10, 114351, Note_on_c, 4, 55, 0
10, 114351, Note_on_c, 4, 52, 0
10, 114360, Note_on_c, 4, 55, 76
10, 114360, Note_on_c, 4, 52, 76
10, 114471, Note_on_c, 4, 55, 0
10, 114471, Note_on_c, 4, 52, 0
10, 114480, Note_on_c, 4, 53, 76
10, 114480, Note_on_c, 4, 57, 76
10, 114719, Note_on_c, 4, 53, 0
10, 114719, Note_on_c, 4, 57, 0
10, 115050, Control_c, 4, 11, 94
10, 115080, Control_c, 4, 11, 96
10, 115080, Note_on_c, 4, 62, 76
10, 115080, Note_on_c, 4, 53, 76
10, 115110, Control_c, 4, 11, 98
10, 115140, Control_c, 4, 11, 100
10, 115170, Control_c, 4, 11, 102
10, 115199, Note_on_c, 4, 62, 0
10, 115200, Note_on_c, 4, 60, 76
10, 115200, Control_c, 4, 11, 104
10, 115230, Control_c, 4, 11, 105
10, 115260, Control_c, 4, 11, 107
10, 115290, Control_c, 4, 11, 109
10, 115319, Note_on_c, 4, 53, 0
10, 115319, Note_on_c, 4, 60, 0
10, 115320, Note_on_c, 4, 64, 76
10, 115320, Note_on_c, 4, 58, 76
10, 115320, Control_c, 4, 11, 111
10, 115350, Control_c, 4, 11, 113
10, 115380, Control_c, 4, 11, 115
10, 115410, Control_c, 4, 11, 117
10, 115439, Note_on_c, 4, 64, 0
10, 115439, Note_on_c, 4, 58, 0
10, 115440, Control_c, 4, 11, 119
10, 115440, Note_on_c, 4, 65, 76
10, 115440, Note_on_c, 4, 57, 76
10, 115470, Control_c, 4, 11, 121
10, 115500, Control_c, 4, 11, 123
10, 115530, Control_c, 4, 11, 127
10, 115551, Note_on_c, 4, 65, 0
10, 115551, Note_on_c, 4, 57, 0
10, 115560, Note_on_c, 4, 55, 76
10, 115560, Note_on_c, 4, 58, 76
10, 115791, Note_on_c, 4, 55, 0
10, 115791, Note_on_c, 4, 58, 0
10, 115800, Note_on_c, 4, 55, 76
10, 115800, Note_on_c, 4, 60, 76
10, 115889, Note_on_c, 4, 55, 0
10, 115889, Note_on_c, 4, 60, 0
10, 115920, Note_on_c, 4, 60, 84
10, 115920, Note_on_c, 4, 57, 84
10, 116279, Note_on_c, 4, 60, 0
10, 116279, Note_on_c, 4, 57, 0
10, 116280, Note_on_c, 4, 53, 84
10, 116280, Note_on_c, 4, 57, 84
10, 116399, Note_on_c, 4, 53, 0
10, 116399, Note_on_c, 4, 57, 0
10, 116520, Note_on_c, 4, 57, 84
10, 116520, Note_on_c, 4, 60, 84
10, 116609, Note_on_c, 4, 57, 0
10, 116609, Note_on_c, 4, 60, 0
10, 116640, Note_on_c, 4, 62, 84
10, 116640, Note_on_c, 4, 58, 84
10, 116999, Note_on_c, 4, 62, 0
10, 116999, Note_on_c, 4, 58, 0
10, 117000, Note_on_c, 4, 58, 84
10, 117000, Note_on_c, 4, 55, 84
10, 117119, Note_on_c, 4, 58, 0
10, 117119, Note_on_c, 4, 55, 0
10, 117240, Note_on_c, 4, 58, 84
10, 117240, Note_on_c, 4, 62, 84
10, 117329, Note_on_c, 4, 58, 0
10, 117329, Note_on_c, 4, 62, 0
10, 117360, Note_on_c, 4, 57, 84
10, 117360, Note_on_c, 4, 53, 84
10, 117479, Note_on_c, 4, 57, 0
10, 117479, Note_on_c, 4, 53, 0
10, 120600, Note_on_c, 4, 62, 44
10, 120600, Note_on_c, 4, 55, 44
10, 121199, Note_on_c, 4, 62, 0
10, 121199, Note_on_c, 4, 55, 0
10, 121320, Note_on_c, 4, 55, 44
10, 121320, Note_on_c, 4, 62, 44
10, 121559, Note_on_c, 4, 55, 0
10, 121559, Note_on_c, 4, 62, 0
10, 121680, Note_on_c, 4, 55, 44
10, 121680, Note_on_c, 4, 62, 44
10, 121919, Note_on_c, 4, 55, 0
10, 121919, Note_on_c, 4, 62, 0
10, 122040, Note_on_c, 4, 62, 44
10, 122040, Note_on_c, 4, 55, 44
10, 122279, Note_on_c, 4, 62, 0
10, 122279, Note_on_c, 4, 55, 0
10, 122280, Control_c, 4, 11, 64
10, 122400, Control_c, 4, 11, 64
10, 122400, Note_on_c, 4, 55, 76
10, 122400, Note_on_c, 4, 62, 76
10, 122444, Control_c, 4, 11, 65
10, 122488, Control_c, 4, 11, 66
10, 122531, Control_c, 4, 11, 67
10, 122575, Control_c, 4, 11, 68
10, 122619, Control_c, 4, 11, 69
10, 122639, Note_on_c, 4, 55, 0
10, 122639, Note_on_c, 4, 62, 0
10, 122663, Control_c, 4, 11, 70
10, 122707, Control_c, 4, 11, 71
10, 122750, Control_c, 4, 11, 72
10, 122760, Note_on_c, 4, 62, 76
10, 122760, Note_on_c, 4, 55, 76
10, 122794, Control_c, 4, 11, 73
10, 122838, Control_c, 4, 11, 74
10, 122882, Control_c, 4, 11, 75
10, 122926, Control_c, 4, 11, 76
10, 122970, Control_c, 4, 11, 77
10, 122999, Note_on_c, 4, 62, 0
10, 122999, Note_on_c, 4, 55, 0
10, 123013, Control_c, 4, 11, 78
10, 123057, Control_c, 4, 11, 79
10, 123101, Control_c, 4, 11, 80
10, 123120, Note_on_c, 4, 55, 76
10, 123120, Note_on_c, 4, 62, 76
10, 123145, Control_c, 4, 11, 81
10, 123189, Control_c, 4, 11, 82
10, 123232, Control_c, 4, 11, 83
10, 123276, Control_c, 4, 11, 84
10, 123320, Control_c, 4, 11, 85
10, 123359, Note_on_c, 4, 55, 0
10, 123359, Note_on_c, 4, 62, 0
10, 123364, Control_c, 4, 11, 86
10, 123408, Control_c, 4, 11, 87
10, 123451, Control_c, 4, 11, 88
10, 123480, Note_on_c, 4, 55, 76
10, 123480, Note_on_c, 4, 62, 76
10, 123495, Control_c, 4, 11, 89
10, 123539, Control_c, 4, 11, 90
10, 123583, Control_c, 4, 11, 91
10, 123627, Control_c, 4, 11, 92
10, 123670, Control_c, 4, 11, 93
10, 123714, Control_c, 4, 11, 94
10, 123719, Note_on_c, 4, 55, 0
10, 123719, Note_on_c, 4, 62, 0
10, 123758, Control_c, 4, 11, 95
10, 123802, Control_c, 4, 11, 96
10, 123840, Note_on_c, 4, 64, 76
10, 123840, Note_on_c, 4, 55, 76
10, 123846, Control_c, 4, 11, 97
10, 123890, Control_c, 4, 11, 98
10, 123933, Control_c, 4, 11, 99
10, 123977, Control_c, 4, 11, 100
10, 124021, Control_c, 4, 11, 101
10, 124065, Control_c, 4, 11, 102
10, 124079, Note_on_c, 4, 64, 0
10, 124079, Note_on_c, 4, 55, 0
10, 124109, Control_c, 4, 11, 103
10, 124152, Control_c, 4, 11, 104
10, 124196, Control_c, 4, 11, 105
10, 124200, Note_on_c, 4, 55, 76
10, 124200, Note_on_c, 4, 64, 76
10, 124240, Control_c, 4, 11, 106
10, 124284, Control_c, 4, 11, 107
10, 124328, Control_c, 4, 11, 108
10, 124371, Control_c, 4, 11, 109
10, 124415, Control_c, 4, 11, 110
10, 124439, Note_on_c, 4, 55, 0
10, 124439, Note_on_c, 4, 64, 0
10, 124459, Control_c, 4, 11, 111
10, 124503, Control_c, 4, 11, 112
10, 124547, Control_c, 4, 11, 113
10, 124560, Note_on_c, 4, 64, 76
10, 124560, Note_on_c, 4, 55, 76
10, 124590, Control_c, 4, 11, 114
10, 124634, Control_c, 4, 11, 115
10, 124678, Control_c, 4, 11, 116
10, 124722, Control_c, 4, 11, 117
10, 124766, Control_c, 4, 11, 118
10, 124799, Note_on_c, 4, 64, 0
10, 124799, Note_on_c, 4, 55, 0
10, 124810, Control_c, 4, 11, 119
10, 124853, Control_c, 4, 11, 120
10, 124897, Control_c, 4, 11, 121
10, 124920, Note_on_c, 4, 55, 76
10, 124920, Note_on_c, 4, 64, 76
10, 124941, Control_c, 4, 11, 122
10, 124985, Control_c, 4, 11, 123
10, 125029, Control_c, 4, 11, 124
10, 125039, Note_on_c, 4, 55, 0
10, 125039, Note_on_c, 4, 64, 0
10, 125072, Control_c, 4, 11, 125
10, 125116, Control_c, 4, 11, 127
10, 125160, Note_on_c, 4, 58, 76
10, 125160, Note_on_c, 4, 55, 76
10, 125871, Note_on_c, 4, 58, 0
10, 125871, Note_on_c, 4, 55, 0
10, 125880, Note_on_c, 4, 55, 76
10, 125880, Note_on_c, 4, 58, 76
10, 126231, Note_on_c, 4, 55, 0
10, 126231, Note_on_c, 4, 58, 0
10, 126240, Note_on_c, 4, 55, 76
10, 126240, Note_on_c, 4, 58, 76
10, 126591, Note_on_c, 4, 55, 0
10, 126591, Note_on_c, 4, 58, 0
10, 126600, Note_on_c, 4, 55, 76
10, 126600, Note_on_c, 4, 58, 76
10, 126711, Note_on_c, 4, 55, 0
10, 126711, Note_on_c, 4, 58, 0
10, 126720, Note_on_c, 4, 57, 84
10, 127071, Note_on_c, 4, 57, 0
10, 127080, Note_on_c, 4, 53, 84
10, 127169, Note_on_c, 4, 53, 0
10, 127320, Note_on_c, 4, 60, 84
10, 127409, Note_on_c, 4, 60, 0
10, 127440, Note_on_c, 4, 57, 84
10, 128031, Note_on_c, 4, 57, 0
10, 128040, Note_on_c, 4, 48, 52
10, 128159, Note_on_c, 4, 48, 0
10, 128160, Note_on_c, 4, 53, 52
10, 128399, Note_on_c, 4, 53, 0
10, 128400, Note_on_c, 4, 57, 52
10, 128519, Note_on_c, 4, 57, 0
10, 128520, Note_on_c, 4, 60, 52
10, 128759, Note_on_c, 4, 60, 0
10, 128760, Note_on_c, 4, 57, 52
10, 128871, Note_on_c, 4, 57, 0
10, 128880, Note_on_c, 4, 58, 52
10, 129471, Note_on_c, 4, 58, 0
10, 129480, Note_on_c, 4, 48, 52
10, 129599, Note_on_c, 4, 48, 0
10, 129600, Note_on_c, 4, 52, 52
10, 129839, Note_on_c, 4, 52, 0
10, 129840, Note_on_c, 4, 55, 52
10, 129959, Note_on_c, 4, 55, 0
10, 129960, Note_on_c, 4, 58, 52
10, 130199, Note_on_c, 4, 58, 0
10, 130200, Note_on_c, 4, 55, 52
10, 130311, Note_on_c, 4, 55, 0
10, 130320, Note_on_c, 4, 57, 52
10, 130559, Note_on_c, 4, 57, 0
10, 130920, Control_c, 4, 11, 64
10, 131040, Control_c, 4, 11, 64
10, 131040, Note_on_c, 4, 57, 84
10, 131040, Note_on_c, 4, 54, 84
10, 131120, Control_c, 4, 11, 65
10, 131200, Control_c, 4, 11, 66
10, 131280, Control_c, 4, 11, 67
10, 131360, Control_c, 4, 11, 68
10, 131440, Control_c, 4, 11, 69
10, 131520, Control_c, 4, 11, 70
10, 131600, Control_c, 4, 11, 71
10, 131680, Control_c, 4, 11, 72
10, 131751, Note_on_c, 4, 57, 0
10, 131751, Note_on_c, 4, 54, 0
10, 131760, Note_on_c, 4, 58, 84
10, 131760, Control_c, 4, 11, 73
10, 131760, Note_on_c, 4, 55, 84
10, 131840, Control_c, 4, 11, 74
10, 131920, Control_c, 4, 11, 75
10, 131999, Note_on_c, 4, 58, 0
10, 131999, Note_on_c, 4, 55, 0
10, 132000, Control_c, 4, 11, 76
10, 132080, Control_c, 4, 11, 77
10, 132160, Control_c, 4, 11, 78
10, 132240, Control_c, 4, 11, 79
10, 132320, Control_c, 4, 11, 80
10, 132400, Control_c, 4, 11, 81
10, 132480, Control_c, 4, 11, 82
10, 132480, Note_on_c, 4, 55, 84
10, 132480, Note_on_c, 4, 52, 84
10, 132560, Control_c, 4, 11, 83
10, 132640, Control_c, 4, 11, 84
10, 132720, Control_c, 4, 11, 85
10, 132800, Control_c, 4, 11, 86
10, 132880, Control_c, 4, 11, 87
10, 132960, Control_c, 4, 11, 88
10, 133040, Control_c, 4, 11, 89
10, 133120, Control_c, 4, 11, 90
10, 133191, Note_on_c, 4, 55, 0
10, 133191, Note_on_c, 4, 52, 0
10, 133200, Note_on_c, 4, 57, 84
10, 133200, Note_on_c, 4, 53, 84
10, 133200, Control_c, 4, 11, 91
10, 133280, Control_c, 4, 11, 92
10, 133360, Control_c, 4, 11, 93
10, 133439, Note_on_c, 4, 57, 0
10, 133439, Note_on_c, 4, 53, 0
10, 133440, Control_c, 4, 11, 94
10, 133520, Control_c, 4, 11, 95
10, 133600, Control_c, 4, 11, 96
10, 133680, Control_c, 4, 11, 97
10, 133760, Control_c, 4, 11, 98
10, 133840, Control_c, 4, 11, 99
10, 133920, Control_c, 4, 11, 100
10, 134000, Control_c, 4, 11, 101
10, 134040, Note_on_c, 4, 54, 84
10, 134040, Note_on_c, 4, 57, 84
10, 134080, Control_c, 4, 11, 102
10, 134151, Note_on_c, 4, 54, 0
10, 134151, Note_on_c, 4, 57, 0
10, 134160, Note_on_c, 4, 54, 84
10, 134160, Note_on_c, 4, 57, 84
10, 134160, Control_c, 4, 11, 103
10, 134240, Control_c, 4, 11, 104
10, 134271, Note_on_c, 4, 54, 0
10, 134271, Note_on_c, 4, 57, 0
10, 134280, Note_on_c, 4, 54, 84
10, 134280, Note_on_c, 4, 57, 84
10, 134320, Control_c, 4, 11, 105
10, 134391, Note_on_c, 4, 54, 0
10, 134391, Note_on_c, 4, 57, 0
10, 134400, Note_on_c, 4, 57, 84
10, 134400, Note_on_c, 4, 54, 84
10, 134400, Control_c, 4, 11, 106
10, 134480, Control_c, 4, 11, 107
10, 134511, Note_on_c, 4, 57, 0
10, 134511, Note_on_c, 4, 54, 0
10, 134520, Note_on_c, 4, 57, 84
10, 134520, Note_on_c, 4, 54, 84
10, 134560, Control_c, 4, 11, 108
10, 134631, Note_on_c, 4, 57, 0
10, 134631, Note_on_c, 4, 54, 0
10, 134640, Control_c, 4, 11, 109
10, 134640, Note_on_c, 4, 55, 84
10, 134640, Note_on_c, 4, 58, 84
10, 134720, Control_c, 4, 11, 110
10, 134800, Control_c, 4, 11, 111
10, 134879, Note_on_c, 4, 55, 0
10, 134879, Note_on_c, 4, 58, 0
10, 134880, Control_c, 4, 11, 112
10, 134960, Control_c, 4, 11, 113
10, 135040, Control_c, 4, 11, 114
10, 135120, Control_c, 4, 11, 115
10, 135200, Control_c, 4, 11, 116
10, 135280, Control_c, 4, 11, 117
10, 135360, Control_c, 4, 11, 118
10, 135440, Control_c, 4, 11, 119
10, 135480, Note_on_c, 4, 52, 84
10, 135480, Note_on_c, 4, 55, 84
10, 135520, Control_c, 4, 11, 120
10, 135591, Note_on_c, 4, 52, 0
10, 135591, Note_on_c, 4, 55, 0
10, 135600, Note_on_c, 4, 52, 84
10, 135600, Note_on_c, 4, 55, 84
10, 135600, Control_c, 4, 11, 121
10, 135680, Control_c, 4, 11, 122
10, 135711, Note_on_c, 4, 52, 0
10, 135711, Note_on_c, 4, 55, 0
10, 135720, Note_on_c, 4, 52, 84
10, 135720, Note_on_c, 4, 55, 84
10, 135760, Control_c, 4, 11, 123
10, 135831, Note_on_c, 4, 52, 0
10, 135831, Note_on_c, 4, 55, 0
10, 135840, Note_on_c, 4, 52, 84
10, 135840, Note_on_c, 4, 55, 84
10, 135840, Control_c, 4, 11, 124
10, 135920, Control_c, 4, 11, 125
10, 135951, Note_on_c, 4, 52, 0
10, 135951, Note_on_c, 4, 55, 0
10, 135960, Note_on_c, 4, 52, 84
10, 135960, Note_on_c, 4, 55, 84
10, 136000, Control_c, 4, 11, 127
10, 136071, Note_on_c, 4, 52, 0
10, 136071, Note_on_c, 4, 55, 0
10, 136080, Note_on_c, 4, 57, 84
10, 136080, Note_on_c, 4, 53, 84
10, 137391, Note_on_c, 4, 57, 0
10, 137391, Note_on_c, 4, 53, 0
10, 137400, Note_on_c, 4, 53, 84
10, 137400, Note_on_c, 4, 57, 84
10, 137511, Note_on_c, 4, 53, 0
10, 137511, Note_on_c, 4, 57, 0
10, 137520, Note_on_c, 4, 57, 84
10, 137520, Note_on_c, 4, 53, 84
10, 138831, Note_on_c, 4, 57, 0
10, 138831, Note_on_c, 4, 53, 0
10, 138840, Note_on_c, 4, 53, 84
10, 138840, Note_on_c, 4, 57, 84
10, 138951, Note_on_c, 4, 53, 0
10, 138951, Note_on_c, 4, 57, 0
10, 138960, Note_on_c, 4, 55, 84
10, 138960, Note_on_c, 4, 59, 84
10, 139680, Control_c, 4, 11, 127
10, 139700, Control_c, 4, 11, 125
10, 139720, Control_c, 4, 11, 123
10, 139740, Control_c, 4, 11, 120
10, 139760, Control_c, 4, 11, 118
10, 139780, Control_c, 4, 11, 116
10, 139800, Control_c, 4, 11, 114
10, 139820, Control_c, 4, 11, 112
10, 139840, Control_c, 4, 11, 109
10, 139860, Control_c, 4, 11, 107
10, 139880, Control_c, 4, 11, 105
10, 139900, Control_c, 4, 11, 103
10, 139920, Control_c, 4, 11, 101
10, 139940, Control_c, 4, 11, 98
10, 139960, Control_c, 4, 11, 96
10, 139980, Control_c, 4, 11, 94
10, 140000, Control_c, 4, 11, 92
10, 140020, Control_c, 4, 11, 90
10, 140040, Control_c, 4, 11, 88
10, 140060, Control_c, 4, 11, 85
10, 140080, Control_c, 4, 11, 83
10, 140100, Control_c, 4, 11, 81
10, 140120, Control_c, 4, 11, 79
10, 140140, Control_c, 4, 11, 77
10, 140160, Control_c, 4, 11, 74
10, 140180, Control_c, 4, 11, 72
10, 140200, Control_c, 4, 11, 70
10, 140220, Control_c, 4, 11, 68
10, 140240, Control_c, 4, 11, 66
10, 140260, Control_c, 4, 11, 63
10, 140271, Note_on_c, 4, 55, 0
10, 140271, Note_on_c, 4, 59, 0
10, 140280, Control_c, 4, 11, 61
10, 140280, Note_on_c, 4, 55, 84
10, 140280, Note_on_c, 4, 59, 84
10, 140300, Control_c, 4, 11, 59
10, 140320, Control_c, 4, 11, 57
10, 140340, Control_c, 4, 11, 55
10, 140360, Control_c, 4, 11, 52
10, 140380, Control_c, 4, 11, 48
10, 140399, Note_on_c, 4, 55, 0
10, 140399, Note_on_c, 4, 59, 0
10, 140880, Control_c, 4, 11, 127
10, 141000, Note_on_c, 4, 62, 44
10, 141000, Note_on_c, 4, 55, 44
10, 141055, Note_on_c, 4, 62, 0
10, 141055, Note_on_c, 4, 55, 0
10, 141060, Note_on_c, 4, 55, 44
10, 141060, Note_on_c, 4, 62, 44
10, 141115, Note_on_c, 4, 55, 0
10, 141115, Note_on_c, 4, 62, 0
10, 141120, Note_on_c, 4, 55, 44
10, 141120, Note_on_c, 4, 62, 44
10, 141239, Note_on_c, 4, 55, 0
10, 141239, Note_on_c, 4, 62, 0
10, 141720, Note_on_c, 4, 62, 44
10, 141720, Note_on_c, 4, 55, 44
10, 141775, Note_on_c, 4, 62, 0
10, 141775, Note_on_c, 4, 55, 0
10, 141780, Note_on_c, 4, 55, 44
10, 141780, Note_on_c, 4, 62, 44
10, 141835, Note_on_c, 4, 55, 0
10, 141835, Note_on_c, 4, 62, 0
10, 141840, Note_on_c, 4, 55, 44
10, 141840, Note_on_c, 4, 62, 44
10, 141959, Note_on_c, 4, 55, 0
10, 141959, Note_on_c, 4, 62, 0
10, 142080, Note_on_c, 4, 55, 45
10, 142080, Note_on_c, 4, 62, 45
10, 142135, Note_on_c, 4, 55, 0
10, 142135, Note_on_c, 4, 62, 0
10, 142140, Note_on_c, 4, 62, 46
10, 142140, Note_on_c, 4, 55, 46
10, 142195, Note_on_c, 4, 62, 0
10, 142195, Note_on_c, 4, 55, 0
10, 142200, Note_on_c, 4, 55, 46
10, 142200, Note_on_c, 4, 62, 46
10, 142319, Note_on_c, 4, 55, 0
10, 142319, Note_on_c, 4, 62, 0
10, 142440, Note_on_c, 4, 62, 48
10, 142440, Note_on_c, 4, 55, 48
10, 142495, Note_on_c, 4, 62, 0
10, 142495, Note_on_c, 4, 55, 0
10, 142500, Note_on_c, 4, 62, 49
10, 142500, Note_on_c, 4, 55, 49
10, 142555, Note_on_c, 4, 62, 0
10, 142555, Note_on_c, 4, 55, 0
10, 142560, Note_on_c, 4, 62, 49
10, 142560, Note_on_c, 4, 55, 49
10, 142679, Note_on_c, 4, 62, 0
10, 142679, Note_on_c, 4, 55, 0
10, 142800, Note_on_c, 4, 62, 51
10, 142800, Note_on_c, 4, 55, 51
10, 142855, Note_on_c, 4, 62, 0
10, 142855, Note_on_c, 4, 55, 0
10, 142860, Note_on_c, 4, 55, 51
10, 142860, Note_on_c, 4, 62, 51
10, 142915, Note_on_c, 4, 55, 0
10, 142915, Note_on_c, 4, 62, 0
10, 142920, Note_on_c, 4, 55, 52
10, 142920, Note_on_c, 4, 62, 52
10, 143039, Note_on_c, 4, 55, 0
10, 143039, Note_on_c, 4, 62, 0
10, 143160, Note_on_c, 4, 55, 54
10, 143160, Note_on_c, 4, 62, 54
10, 143215, Note_on_c, 4, 55, 0
10, 143215, Note_on_c, 4, 62, 0
10, 143220, Note_on_c, 4, 62, 54
10, 143220, Note_on_c, 4, 55, 54
10, 143275, Note_on_c, 4, 62, 0
10, 143275, Note_on_c, 4, 55, 0
10, 143280, Note_on_c, 4, 64, 54
10, 143280, Note_on_c, 4, 60, 54
10, 143399, Note_on_c, 4, 64, 0
10, 143399, Note_on_c, 4, 60, 0
10, 143520, Note_on_c, 4, 64, 56
10, 143520, Note_on_c, 4, 60, 56
10, 143575, Note_on_c, 4, 64, 0
10, 143575, Note_on_c, 4, 60, 0
10, 143580, Note_on_c, 4, 64, 57
10, 143580, Note_on_c, 4, 60, 57
10, 143635, Note_on_c, 4, 64, 0
10, 143635, Note_on_c, 4, 60, 0
10, 143640, Note_on_c, 4, 64, 57
10, 143640, Note_on_c, 4, 60, 57
10, 143759, Note_on_c, 4, 64, 0
10, 143759, Note_on_c, 4, 60, 0
10, 143880, Note_on_c, 4, 60, 59
10, 143880, Note_on_c, 4, 64, 59
10, 143935, Note_on_c, 4, 60, 0
10, 143935, Note_on_c, 4, 64, 0
10, 143940, Note_on_c, 4, 60, 60
10, 143940, Note_on_c, 4, 64, 60
10, 143995, Note_on_c, 4, 60, 0
10, 143995, Note_on_c, 4, 64, 0
10, 144000, Note_on_c, 4, 60, 60
10, 144000, Note_on_c, 4, 64, 60
10, 144119, Note_on_c, 4, 60, 0
10, 144119, Note_on_c, 4, 64, 0
10, 144240, Note_on_c, 4, 60, 62
10, 144240, Note_on_c, 4, 64, 62
10, 144295, Note_on_c, 4, 60, 0
10, 144295, Note_on_c, 4, 64, 0
10, 144300, Note_on_c, 4, 64, 62
10, 144300, Note_on_c, 4, 60, 62
10, 144355, Note_on_c, 4, 64, 0
10, 144355, Note_on_c, 4, 60, 0
10, 144360, Note_on_c, 4, 60, 63
10, 144360, Note_on_c, 4, 64, 63
10, 144479, Note_on_c, 4, 60, 0
10, 144479, Note_on_c, 4, 64, 0
10, 144600, Note_on_c, 4, 55, 65
10, 144600, Note_on_c, 4, 58, 65
10, 144655, Note_on_c, 4, 55, 0
10, 144655, Note_on_c, 4, 58, 0
10, 144660, Note_on_c, 4, 55, 65
10, 144660, Note_on_c, 4, 58, 65
10, 144715, Note_on_c, 4, 55, 0
10, 144715, Note_on_c, 4, 58, 0
10, 144720, Note_on_c, 4, 55, 65
10, 144720, Note_on_c, 4, 58, 65
10, 144839, Note_on_c, 4, 55, 0
10, 144839, Note_on_c, 4, 58, 0
10, 144960, Note_on_c, 4, 58, 67
10, 144960, Note_on_c, 4, 55, 67
10, 145015, Note_on_c, 4, 58, 0
10, 145015, Note_on_c, 4, 55, 0
10, 145020, Note_on_c, 4, 55, 68
10, 145020, Note_on_c, 4, 58, 68
10, 145075, Note_on_c, 4, 55, 0
10, 145075, Note_on_c, 4, 58, 0
10, 145080, Note_on_c, 4, 58, 68
10, 145080, Note_on_c, 4, 55, 68
10, 145199, Note_on_c, 4, 58, 0
10, 145199, Note_on_c, 4, 55, 0
10, 145320, Note_on_c, 4, 58, 70
10, 145320, Note_on_c, 4, 55, 70
10, 145375, Note_on_c, 4, 58, 0
10, 145375, Note_on_c, 4, 55, 0
10, 145380, Note_on_c, 4, 58, 70
10, 145380, Note_on_c, 4, 55, 70
10, 145435, Note_on_c, 4, 58, 0
10, 145435, Note_on_c, 4, 55, 0
10, 145440, Note_on_c, 4, 58, 71
10, 145440, Note_on_c, 4, 55, 71
10, 145559, Note_on_c, 4, 58, 0
10, 145559, Note_on_c, 4, 55, 0
10, 145680, Note_on_c, 4, 58, 73
10, 145680, Note_on_c, 4, 55, 73
10, 145735, Note_on_c, 4, 58, 0
10, 145735, Note_on_c, 4, 55, 0
10, 145740, Note_on_c, 4, 55, 73
10, 145740, Note_on_c, 4, 58, 73
10, 145795, Note_on_c, 4, 55, 0
10, 145795, Note_on_c, 4, 58, 0
10, 145800, Note_on_c, 4, 58, 74
10, 145800, Note_on_c, 4, 55, 74
10, 145919, Note_on_c, 4, 58, 0
10, 145919, Note_on_c, 4, 55, 0
10, 146040, Note_on_c, 4, 55, 76
10, 146040, Note_on_c, 4, 58, 76
10, 146751, Note_on_c, 4, 55, 0
10, 146751, Note_on_c, 4, 58, 0
10, 146760, Note_on_c, 4, 58, 76
10, 146760, Note_on_c, 4, 55, 76
10, 147111, Note_on_c, 4, 58, 0
10, 147111, Note_on_c, 4, 55, 0
10, 147120, Note_on_c, 4, 55, 76
10, 147120, Note_on_c, 4, 58, 76
10, 147471, Note_on_c, 4, 55, 0
10, 147471, Note_on_c, 4, 58, 0
10, 147480, Note_on_c, 4, 52, 76
10, 147480, Note_on_c, 4, 55, 76
10, 147591, Note_on_c, 4, 52, 0
10, 147591, Note_on_c, 4, 55, 0
10, 147600, Note_on_c, 4, 57, 84
10, 147659, Note_on_c, 4, 57, 0
10, 147660, Note_on_c, 4, 58, 84
10, 147719, Note_on_c, 4, 58, 0
10, 147720, Note_on_c, 4, 57, 84
10, 147779, Note_on_c, 4, 57, 0
10, 147780, Note_on_c, 4, 55, 84
10, 147839, Note_on_c, 4, 55, 0
10, 147840, Note_on_c, 4, 53, 84
10, 147899, Note_on_c, 4, 53, 0
10, 147900, Note_on_c, 4, 52, 84
10, 147959, Note_on_c, 4, 52, 0
10, 147960, Note_on_c, 4, 53, 84
10, 148019, Note_on_c, 4, 53, 0
10, 148020, Note_on_c, 4, 55, 84
10, 148079, Note_on_c, 4, 55, 0
10, 148080, Note_on_c, 4, 57, 84
10, 148139, Note_on_c, 4, 57, 0
10, 148140, Note_on_c, 4, 58, 84
10, 148199, Note_on_c, 4, 58, 0
10, 148200, Note_on_c, 4, 60, 84
10, 148259, Note_on_c, 4, 60, 0
10, 148260, Note_on_c, 4, 58, 84
10, 148315, Note_on_c, 4, 58, 0
10, 148320, Note_on_c, 4, 57, 84
10, 148379, Note_on_c, 4, 57, 0
10, 148380, Note_on_c, 4, 58, 84
10, 148439, Note_on_c, 4, 58, 0
10, 148440, Note_on_c, 4, 57, 84
10, 148499, Note_on_c, 4, 57, 0
10, 148500, Note_on_c, 4, 55, 84
10, 148559, Note_on_c, 4, 55, 0
10, 148560, Note_on_c, 4, 53, 84
10, 148619, Note_on_c, 4, 53, 0
10, 148620, Note_on_c, 4, 52, 84
10, 148679, Note_on_c, 4, 52, 0
10, 148680, Note_on_c, 4, 53, 84
10, 148739, Note_on_c, 4, 53, 0
10, 148740, Note_on_c, 4, 52, 84
10, 148799, Note_on_c, 4, 52, 0
10, 148800, Note_on_c, 4, 53, 84
10, 148859, Note_on_c, 4, 53, 0
10, 148860, Note_on_c, 4, 48, 52
10, 148919, Note_on_c, 4, 48, 0
10, 148920, Note_on_c, 4, 50, 52
10, 148979, Note_on_c, 4, 50, 0
10, 148980, Note_on_c, 4, 52, 52
10, 149035, Note_on_c, 4, 52, 0
10, 149040, Note_on_c, 4, 53, 52
10, 149099, Note_on_c, 4, 53, 0
10, 149100, Note_on_c, 4, 55, 52
10, 149159, Note_on_c, 4, 55, 0
10, 149160, Note_on_c, 4, 53, 52
10, 149219, Note_on_c, 4, 53, 0
10, 149220, Note_on_c, 4, 52, 52
10, 149279, Note_on_c, 4, 52, 0
10, 149280, Note_on_c, 4, 53, 52
10, 149339, Note_on_c, 4, 53, 0
10, 149340, Note_on_c, 4, 55, 52
10, 149399, Note_on_c, 4, 55, 0
10, 149400, Note_on_c, 4, 57, 52
10, 149459, Note_on_c, 4, 57, 0
10, 149460, Note_on_c, 4, 58, 52
10, 149519, Note_on_c, 4, 58, 0
10, 149520, Note_on_c, 4, 60, 52
10, 149579, Note_on_c, 4, 60, 0
10, 149580, Note_on_c, 4, 59, 52
10, 149639, Note_on_c, 4, 59, 0
10, 149640, Note_on_c, 4, 60, 52
10, 149699, Note_on_c, 4, 60, 0
10, 149700, Note_on_c, 4, 57, 52
10, 149755, Note_on_c, 4, 57, 0
10, 149760, Note_on_c, 4, 58, 52
10, 149819, Note_on_c, 4, 58, 0
10, 149820, Note_on_c, 4, 60, 52
10, 149879, Note_on_c, 4, 60, 0
10, 149880, Note_on_c, 4, 62, 52
10, 149939, Note_on_c, 4, 62, 0
10, 149940, Note_on_c, 4, 60, 52
10, 149999, Note_on_c, 4, 60, 0
10, 150000, Note_on_c, 4, 58, 52
10, 150059, Note_on_c, 4, 58, 0
10, 150060, Note_on_c, 4, 60, 52
10, 150119, Note_on_c, 4, 60, 0
10, 150120, Note_on_c, 4, 58, 52
10, 150179, Note_on_c, 4, 58, 0
10, 150180, Note_on_c, 4, 60, 52
10, 150239, Note_on_c, 4, 60, 0
10, 150240, Note_on_c, 4, 58, 52
10, 150299, Note_on_c, 4, 58, 0
10, 150300, Note_on_c, 4, 57, 52
10, 150359, Note_on_c, 4, 57, 0
10, 150360, Note_on_c, 4, 55, 52
10, 150419, Note_on_c, 4, 55, 0
10, 150420, Note_on_c, 4, 53, 52
10, 150475, Note_on_c, 4, 53, 0
10, 150480, Note_on_c, 4, 52, 52
10, 150539, Note_on_c, 4, 52, 0
10, 150540, Note_on_c, 4, 53, 52
10, 150599, Note_on_c, 4, 53, 0
10, 150600, Note_on_c, 4, 52, 52
10, 150659, Note_on_c, 4, 52, 0
10, 150660, Note_on_c, 4, 50, 52
10, 150719, Note_on_c, 4, 50, 0
10, 150720, Note_on_c, 4, 52, 52
10, 150779, Note_on_c, 4, 52, 0
10, 150780, Note_on_c, 4, 53, 52
10, 150839, Note_on_c, 4, 53, 0
10, 150840, Note_on_c, 4, 55, 52
10, 150899, Note_on_c, 4, 55, 0
10, 150900, Note_on_c, 4, 57, 52
10, 150959, Note_on_c, 4, 57, 0
10, 150960, Note_on_c, 4, 58, 52
10, 151019, Note_on_c, 4, 58, 0
10, 151020, Note_on_c, 4, 57, 52
10, 151079, Note_on_c, 4, 57, 0
10, 151080, Note_on_c, 4, 58, 52
10, 151139, Note_on_c, 4, 58, 0
10, 151140, Note_on_c, 4, 55, 52
10, 151195, Note_on_c, 4, 55, 0
10, 151200, Note_on_c, 4, 57, 52
10, 151439, Note_on_c, 4, 57, 0
10, 152520, Control_c, 4, 11, 64
10, 152640, Note_on_c, 4, 55, 84
10, 152640, Note_on_c, 4, 58, 84
10, 152709, Control_c, 4, 11, 65
10, 152777, Control_c, 4, 11, 66
10, 152846, Control_c, 4, 11, 67
10, 152914, Control_c, 4, 11, 68
10, 152983, Control_c, 4, 11, 69
10, 152991, Note_on_c, 4, 55, 0
10, 152999, Note_on_c, 4, 58, 0
10, 153000, Note_on_c, 4, 55, 84
10, 153051, Control_c, 4, 11, 70
10, 153120, Control_c, 4, 11, 71
10, 153189, Control_c, 4, 11, 72
10, 153239, Note_on_c, 4, 55, 0
10, 153240, Note_on_c, 4, 53, 84
10, 153240, Note_on_c, 4, 62, 84
10, 153257, Control_c, 4, 11, 73
10, 153326, Control_c, 4, 11, 74
10, 153359, Note_on_c, 4, 53, 0
10, 153359, Note_on_c, 4, 62, 0
10, 153360, Note_on_c, 4, 52, 84
10, 153360, Note_on_c, 4, 60, 84
10, 153394, Control_c, 4, 11, 75
10, 153463, Control_c, 4, 11, 76
10, 153531, Control_c, 4, 11, 77
10, 153599, Note_on_c, 4, 52, 0
10, 153599, Note_on_c, 4, 60, 0
10, 153600, Control_c, 4, 11, 78
10, 153669, Control_c, 4, 11, 79
10, 155383, Control_c, 4, 11, 104
10, 155400, Note_on_c, 4, 50, 84
10, 155451, Control_c, 4, 11, 105
10, 155519, Note_on_c, 4, 50, 0
10, 155520, Control_c, 4, 11, 106
10, 155520, Note_on_c, 4, 55, 84
10, 155589, Control_c, 4, 11, 107
10, 155657, Control_c, 4, 11, 108
10, 155726, Control_c, 4, 11, 109
10, 155759, Note_on_c, 4, 55, 0
10, 155760, Note_on_c, 4, 58, 84
10, 155794, Control_c, 4, 11, 110
10, 155863, Control_c, 4, 11, 111
10, 155879, Note_on_c, 4, 58, 0
10, 155880, Note_on_c, 4, 62, 84
10, 155931, Control_c, 4, 11, 112
10, 155999, Note_on_c, 4, 62, 0
10, 156000, Control_c, 4, 11, 113
10, 156069, Control_c, 4, 11, 114
10, 156120, Note_on_c, 4, 50, 84
10, 156137, Control_c, 4, 11, 115
10, 156206, Control_c, 4, 11, 116
10, 156239, Note_on_c, 4, 50, 0
10, 156240, Note_on_c, 4, 52, 84
10, 156274, Control_c, 4, 11, 117
10, 156343, Control_c, 4, 11, 118
10, 156411, Control_c, 4, 11, 119
10, 156479, Note_on_c, 4, 52, 0
10, 156480, Note_on_c, 4, 55, 84
10, 156480, Control_c, 4, 11, 120
10, 156480, Note_on_c, 4, 52, 84
10, 156549, Control_c, 4, 11, 121
10, 156599, Note_on_c, 4, 55, 0
10, 156599, Note_on_c, 4, 52, 0
10, 156600, Note_on_c, 4, 55, 84
10, 156600, Note_on_c, 4, 58, 84
10, 156617, Control_c, 4, 11, 122
10, 156686, Control_c, 4, 11, 123
10, 156754, Control_c, 4, 11, 124
10, 156823, Control_c, 4, 11, 125
10, 156831, Note_on_c, 4, 55, 0
10, 156831, Note_on_c, 4, 58, 0
10, 156840, Note_on_c, 4, 55, 84
10, 156840, Note_on_c, 4, 58, 84
10, 156891, Control_c, 4, 11, 127
10, 156951, Note_on_c, 4, 55, 0
10, 156951, Note_on_c, 4, 58, 0
10, 156960, Note_on_c, 4, 53, 84
10, 156960, Note_on_c, 4, 57, 84
10, 158271, Note_on_c, 4, 53, 0
10, 158271, Note_on_c, 4, 57, 0
10, 158280, Note_on_c, 4, 53, 84
10, 158280, Note_on_c, 4, 57, 84
10, 158391, Note_on_c, 4, 53, 0
10, 158391, Note_on_c, 4, 57, 0
10, 158400, Note_on_c, 4, 57, 84
10, 158400, Note_on_c, 4, 53, 84
10, 159711, Note_on_c, 4, 57, 0
10, 159711, Note_on_c, 4, 53, 0
10, 159720, Note_on_c, 4, 53, 84
10, 159720, Note_on_c, 4, 62, 84
10, 159831, Note_on_c, 4, 53, 0
10, 159831, Note_on_c, 4, 62, 0
10, 159840, Note_on_c, 4, 62, 84
10, 159840, Note_on_c, 4, 59, 84
10, 161151, Note_on_c, 4, 62, 0
10, 161151, Note_on_c, 4, 59, 0
10, 161160, Note_on_c, 4, 59, 84
10, 161160, Note_on_c, 4, 62, 84
10, 161271, Note_on_c, 4, 59, 0
10, 161271, Note_on_c, 4, 62, 0
10, 161280, Note_on_c, 4, 58, 84
10, 161280, Note_on_c, 4, 65, 84
10, 161999, Note_on_c, 4, 65, 0
10, 162000, Note_on_c, 4, 64, 84
10, 162591, Note_on_c, 4, 58, 0
10, 162591, Note_on_c, 4, 64, 0
10, 162600, Note_on_c, 4, 58, 84
10, 162600, Note_on_c, 4, 64, 84
10, 162689, Note_on_c, 4, 58, 0
10, 162689, Note_on_c, 4, 64, 0
10, 162720, Note_on_c, 4, 60, 84
10, 162720, Note_on_c, 4, 63, 84
10, 163431, Note_on_c, 4, 60, 0
10, 163431, Note_on_c, 4, 63, 0
10, 163440, Note_on_c, 4, 57, 84
10, 163440, Note_on_c, 4, 60, 84
10, 164151, Note_on_c, 4, 57, 0
10, 164151, Note_on_c, 4, 60, 0
10, 164160, Note_on_c, 4, 58, 84
10, 164160, Note_on_c, 4, 46, 84
10, 164511, Note_on_c, 4, 58, 0
10, 164511, Note_on_c, 4, 46, 0
10, 164520, Note_on_c, 4, 62, 84
10, 164520, Note_on_c, 4, 46, 84
10, 164871, Note_on_c, 4, 62, 0
10, 164871, Note_on_c, 4, 46, 0
10, 164880, Note_on_c, 4, 62, 84
10, 164880, Note_on_c, 4, 46, 84
10, 165231, Note_on_c, 4, 62, 0
10, 165231, Note_on_c, 4, 46, 0
10, 165240, Note_on_c, 4, 46, 84
10, 165240, Note_on_c, 4, 62, 84
10, 165591, Note_on_c, 4, 46, 0
10, 165591, Note_on_c, 4, 62, 0
10, 165600, Note_on_c, 4, 57, 84
10, 165600, Control_c, 4, 11, 127
10, 165630, Control_c, 4, 11, 126
10, 165660, Control_c, 4, 11, 124
10, 165690, Control_c, 4, 11, 123
10, 165720, Control_c, 4, 11, 122
10, 165750, Control_c, 4, 11, 120
10, 165780, Control_c, 4, 11, 119
10, 165810, Control_c, 4, 11, 118
10, 165840, Control_c, 4, 11, 117
10, 165870, Control_c, 4, 11, 115
10, 165900, Control_c, 4, 11, 114
10, 165930, Control_c, 4, 11, 113
10, 165959, Note_on_c, 4, 57, 0
10, 165960, Control_c, 4, 11, 111
10, 165960, Note_on_c, 4, 58, 84
10, 165960, Note_on_c, 4, 55, 84
10, 165990, Control_c, 4, 11, 110
10, 166020, Control_c, 4, 11, 109
10, 166050, Control_c, 4, 11, 107
10, 166080, Control_c, 4, 11, 106
10, 166110, Control_c, 4, 11, 105
10, 166140, Control_c, 4, 11, 103
10, 166170, Control_c, 4, 11, 102
10, 166200, Control_c, 4, 11, 101
10, 166230, Control_c, 4, 11, 99
10, 166260, Control_c, 4, 11, 98
10, 166290, Control_c, 4, 11, 97
10, 166320, Control_c, 4, 11, 96
10, 166350, Control_c, 4, 11, 94
10, 166380, Control_c, 4, 11, 93
10, 166410, Control_c, 4, 11, 92
10, 166440, Control_c, 4, 11, 90
10, 166470, Control_c, 4, 11, 89
10, 166500, Control_c, 4, 11, 88
10, 166530, Control_c, 4, 11, 86
10, 166560, Control_c, 4, 11, 85
10, 166590, Control_c, 4, 11, 84
10, 166620, Control_c, 4, 11, 82
10, 166650, Control_c, 4, 11, 81
10, 166671, Note_on_c, 4, 58, 0
10, 166671, Note_on_c, 4, 55, 0
10, 166680, Note_on_c, 4, 58, 84
10, 166680, Control_c, 4, 11, 80
10, 166680, Note_on_c, 4, 55, 84
10, 166710, Control_c, 4, 11, 78
10, 166740, Control_c, 4, 11, 77
10, 166770, Control_c, 4, 11, 76
10, 166800, Control_c, 4, 11, 75
10, 166830, Control_c, 4, 11, 73
10, 166860, Control_c, 4, 11, 72
10, 166890, Control_c, 4, 11, 71
10, 166920, Control_c, 4, 11, 69
10, 166950, Control_c, 4, 11, 68
10, 166980, Control_c, 4, 11, 67
10, 167010, Control_c, 4, 11, 64
10, 167031, Note_on_c, 4, 58, 0
10, 167031, Note_on_c, 4, 55, 0
10, 167040, Note_on_c, 4, 58, 84
10, 167040, Note_on_c, 4, 55, 84
10, 167400, Control_c, 4, 11, 56
10, 168479, Note_on_c, 4, 58, 0
10, 168479, Note_on_c, 4, 55, 0
10, 168480, Note_on_c, 4, 55, 84
10, 168480, Note_on_c, 4, 58, 84
10, 169911, Note_on_c, 4, 55, 0
10, 169911, Note_on_c, 4, 58, 0
10, 169918, Control_c, 4, 11, 64
10, 169920, Note_on_c, 4, 57, 76
10, 169920, Note_on_c, 4, 53, 76
10, 170039, Note_on_c, 4, 57, 0
10, 170039, Note_on_c, 4, 53, 0
10, 175560, Control_c, 4, 11, 127
10, 175680, Note_on_c, 4, 53, 76
10, 176031, Note_on_c, 4, 53, 0
10, 176040, Note_on_c, 4, 50, 76
10, 176129, Note_on_c, 4, 50, 0
10, 176280, Note_on_c, 4, 45, 76
10, 176369, Note_on_c, 4, 45, 0
10, 176400, Note_on_c, 4, 46, 76
10, 176999, Note_on_c, 4, 46, 0
10, 177000, Note_on_c, 4, 46, 48
10, 177000, Note_on_c, 4, 58, 48
10, 177111, Note_on_c, 4, 46, 0
10, 177111, Note_on_c, 4, 58, 0
10, 177120, Note_on_c, 4, 60, 48
10, 177120, Note_on_c, 4, 48, 48
10, 177831, Note_on_c, 4, 60, 0
10, 177831, Note_on_c, 4, 48, 0
10, 177840, Note_on_c, 4, 53, 48
10, 177840, Note_on_c, 4, 60, 48
10, 178079, Note_on_c, 4, 53, 0
10, 178079, Note_on_c, 4, 60, 0
10, 179880, Note_on_c, 4, 57, 52
10, 179880, Note_on_c, 4, 65, 52
10, 179999, Note_on_c, 4, 57, 0
10, 179999, Note_on_c, 4, 65, 0
10, 180000, Note_on_c, 4, 64, 52
10, 180000, Note_on_c, 4, 55, 52
10, 180591, Note_on_c, 4, 64, 0
10, 180591, Note_on_c, 4, 55, 0
10, 180600, Note_on_c, 4, 55, 52
10, 180600, Note_on_c, 4, 64, 52
10, 180711, Note_on_c, 4, 55, 0
10, 180711, Note_on_c, 4, 64, 0
10, 180720, Note_on_c, 4, 65, 52
10, 180720, Note_on_c, 4, 57, 52
10, 180959, Note_on_c, 4, 65, 0
10, 180959, Note_on_c, 4, 57, 0
10, 181200, Control_c, 4, 11, 80
10, 181320, Note_on_c, 4, 53, 76
10, 181320, Note_on_c, 4, 57, 76
10, 181431, Note_on_c, 4, 57, 0
10, 181439, Note_on_c, 4, 53, 0
10, 181440, Control_c, 4, 11, 80
10, 181440, Note_on_c, 4, 48, 76
10, 181440, Note_on_c, 4, 55, 76
10, 181470, Control_c, 4, 11, 82
10, 181500, Control_c, 4, 11, 84
10, 181530, Control_c, 4, 11, 86
10, 181560, Control_c, 4, 11, 88
10, 181590, Control_c, 4, 11, 90
10, 181620, Control_c, 4, 11, 92
10, 181650, Control_c, 4, 11, 94
10, 181680, Control_c, 4, 11, 96
10, 181710, Control_c, 4, 11, 98
10, 181740, Control_c, 4, 11, 100
10, 181770, Control_c, 4, 11, 102
10, 181800, Control_c, 4, 11, 104
10, 181830, Control_c, 4, 11, 105
10, 181860, Control_c, 4, 11, 107
10, 181890, Control_c, 4, 11, 109
10, 181920, Control_c, 4, 11, 111
10, 181950, Control_c, 4, 11, 113
10, 181980, Control_c, 4, 11, 115
10, 182010, Control_c, 4, 11, 117
10, 182031, Note_on_c, 4, 48, 0
10, 182031, Note_on_c, 4, 55, 0
10, 182040, Control_c, 4, 11, 119
10, 182040, Note_on_c, 4, 55, 76
10, 182040, Note_on_c, 4, 48, 76
10, 182070, Control_c, 4, 11, 121
10, 182100, Control_c, 4, 11, 123
10, 182130, Control_c, 4, 11, 125
10, 182151, Note_on_c, 4, 55, 0
10, 182151, Note_on_c, 4, 48, 0
10, 182158, Control_c, 4, 11, 127
10, 182160, Note_on_c, 4, 48, 76
10, 182160, Note_on_c, 4, 55, 76
10, 183599, Note_on_c, 4, 48, 0
10, 183599, Note_on_c, 4, 55, 0
10, 183600, Note_on_c, 4, 55, 76
10, 183600, Note_on_c, 4, 48, 76
10, 183631, Control_c, 4, 11, 126
10, 183661, Control_c, 4, 11, 125
10, 183692, Control_c, 4, 11, 124
10, 183723, Control_c, 4, 11, 123
10, 183753, Control_c, 4, 11, 122
10, 183784, Control_c, 4, 11, 121
10, 183814, Control_c, 4, 11, 120
10, 183845, Control_c, 4, 11, 119
10, 183876, Control_c, 4, 11, 118
10, 183906, Control_c, 4, 11, 117
10, 183937, Control_c, 4, 11, 116
10, 183968, Control_c, 4, 11, 115
10, 183998, Control_c, 4, 11, 114
10, 184029, Control_c, 4, 11, 113
10, 184060, Control_c, 4, 11, 112
10, 184090, Control_c, 4, 11, 111
10, 184121, Control_c, 4, 11, 110
10, 184151, Control_c, 4, 11, 109
10, 184182, Control_c, 4, 11, 108
10, 184213, Control_c, 4, 11, 107
10, 184243, Control_c, 4, 11, 106
10, 184274, Control_c, 4, 11, 105
10, 184305, Control_c, 4, 11, 104
10, 184335, Control_c, 4, 11, 103
10, 184366, Control_c, 4, 11, 102
10, 184397, Control_c, 4, 11, 101
10, 184427, Control_c, 4, 11, 100
10, 184458, Control_c, 4, 11, 99
10, 184489, Control_c, 4, 11, 98
10, 184519, Control_c, 4, 11, 97
10, 184550, Control_c, 4, 11, 96
10, 184580, Control_c, 4, 11, 95
10, 184611, Control_c, 4, 11, 94
10, 184642, Control_c, 4, 11, 93
10, 184672, Control_c, 4, 11, 92
10, 184703, Control_c, 4, 11, 91
10, 184734, Control_c, 4, 11, 90
10, 184764, Control_c, 4, 11, 89
10, 184795, Control_c, 4, 11, 88
10, 184826, Control_c, 4, 11, 87
10, 184856, Control_c, 4, 11, 86
10, 184887, Control_c, 4, 11, 85
10, 184917, Control_c, 4, 11, 84
10, 184948, Control_c, 4, 11, 83
10, 184979, Control_c, 4, 11, 82
10, 185031, Note_on_c, 4, 55, 0
10, 185031, Note_on_c, 4, 48, 0
10, 185038, Control_c, 4, 11, 96
10, 185040, Note_on_c, 4, 53, 68
10, 185040, Note_on_c, 4, 45, 68
10, 185751, Note_on_c, 4, 53, 0
10, 185751, Note_on_c, 4, 45, 0
10, 185758, Control_c, 4, 11, 112
10, 185760, Note_on_c, 4, 53, 60
10, 185760, Note_on_c, 4, 45, 60
10, 186471, Note_on_c, 4, 53, 0
10, 186471, Note_on_c, 4, 45, 0
10, 186478, Control_c, 4, 11, 127
10, 186480, Note_on_c, 4, 41, 44
10, 186480, Note_on_c, 4, 53, 44
10, 187919, Note_on_c, 4, 41, 0
10, 187919, Note_on_c, 4, 53, 0
10, 187920, Note_on_c, 4, 41, 44
10, 187920, Note_on_c, 4, 53, 44
10, 189231, Note_on_c, 4, 41, 0
10, 189231, Note_on_c, 4, 53, 0
10, 189240, Note_on_c, 4, 53, 84
10, 189240, Note_on_c, 4, 41, 84
10, 189351, Note_on_c, 4, 53, 0
10, 189351, Note_on_c, 4, 41, 0
10, 189360, Note_on_c, 4, 41, 84
10, 189360, Note_on_c, 4, 53, 84
10, 189599, Note_on_c, 4, 41, 0
10, 189599, Note_on_c, 4, 53, 0
10, 189599, End_track
11, 0, Start_track
11, 0, Title_t, "French Horn in F"
11, 0, MIDI_port, 0
11, 0, Program_c, 5, 60
11, 0, Control_c, 5, 7, 96
11, 0, Control_c, 5, 10, 45
11, 0, Control_c, 5, 11, 127
11, 2880, Note_on_c, 5, 67, 48
11, 3231, Note_on_c, 5, 67, 0
11, 3240, Note_on_c, 5, 60, 48
11, 3459, Note_on_c, 5, 60, 0
11, 3480, Note_on_c, 5, 72, 48
11, 3569, Note_on_c, 5, 72, 0
11, 3600, Note_on_c, 5, 67, 48
11, 3951, Note_on_c, 5, 67, 0
11, 3960, Note_on_c, 5, 60, 48
11, 4179, Note_on_c, 5, 60, 0
11, 4200, Note_on_c, 5, 72, 48
11, 4289, Note_on_c, 5, 72, 0
11, 4320, Note_on_c, 5, 67, 52
11, 4419, Note_on_c, 5, 67, 0
11, 4440, Note_on_c, 5, 60, 53
11, 4539, Note_on_c, 5, 60, 0
11, 4560, Note_on_c, 5, 72, 55
11, 4649, Note_on_c, 5, 72, 0
11, 4680, Note_on_c, 5, 67, 57
11, 4779, Note_on_c, 5, 67, 0
11, 4800, Note_on_c, 5, 60, 59
11, 4899, Note_on_c, 5, 60, 0
11, 4920, Note_on_c, 5, 72, 60
11, 5009, Note_on_c, 5, 72, 0
11, 5040, Note_on_c, 5, 67, 62
11, 5139, Note_on_c, 5, 67, 0
11, 5160, Note_on_c, 5, 60, 64
11, 5259, Note_on_c, 5, 60, 0
11, 5280, Note_on_c, 5, 72, 66
11, 5369, Note_on_c, 5, 72, 0
11, 5400, Note_on_c, 5, 69, 76
11, 5499, Note_on_c, 5, 69, 0
11, 5520, Note_on_c, 5, 60, 68
11, 5619, Note_on_c, 5, 60, 0
11, 5640, Note_on_c, 5, 72, 68
11, 5729, Note_on_c, 5, 72, 0
11, 5760, Note_on_c, 5, 69, 52
11, 6239, Note_on_c, 5, 69, 0
11, 10440, Note_on_c, 5, 48, 52
11, 10440, Note_on_c, 5, 60, 52
11, 10678, Control_c, 5, 11, 64
11, 10791, Note_on_c, 5, 48, 0
11, 10791, Note_on_c, 5, 60, 0
11, 10800, Control_c, 5, 11, 64
11, 10800, Note_on_c, 5, 60, 84
11, 10800, Note_on_c, 5, 53, 84
11, 10903, Control_c, 5, 11, 65
11, 11006, Control_c, 5, 11, 66
11, 11109, Control_c, 5, 11, 67
11, 11211, Control_c, 5, 11, 68
11, 11314, Control_c, 5, 11, 69
11, 11417, Control_c, 5, 11, 70
11, 11511, Note_on_c, 5, 60, 0
11, 11511, Note_on_c, 5, 53, 0
11, 11520, Note_on_c, 5, 65, 84
11, 11520, Control_c, 5, 11, 71
11, 11520, Note_on_c, 5, 69, 84
11, 11623, Control_c, 5, 11, 72
11, 11631, Note_on_c, 5, 65, 0
11, 11631, Note_on_c, 5, 69, 0
11, 11640, Note_on_c, 5, 65, 84
11, 11640, Note_on_c, 5, 69, 84
11, 11726, Control_c, 5, 11, 73
11, 11751, Note_on_c, 5, 65, 0
11, 11751, Note_on_c, 5, 69, 0
11, 11760, Note_on_c, 5, 65, 84
11, 11760, Note_on_c, 5, 69, 84
11, 11829, Control_c, 5, 11, 74
11, 11871, Note_on_c, 5, 65, 0
11, 11871, Note_on_c, 5, 69, 0
11, 11880, Note_on_c, 5, 69, 84
11, 11880, Note_on_c, 5, 65, 84
11, 11931, Control_c, 5, 11, 75
11, 11991, Note_on_c, 5, 69, 0
11, 11991, Note_on_c, 5, 65, 0
11, 12000, Note_on_c, 5, 65, 84
11, 12000, Note_on_c, 5, 69, 84
11, 12034, Control_c, 5, 11, 76
11, 12111, Note_on_c, 5, 65, 0
11, 12111, Note_on_c, 5, 69, 0
11, 12120, Note_on_c, 5, 65, 84
11, 12120, Note_on_c, 5, 69, 84
11, 12137, Control_c, 5, 11, 77
11, 12231, Note_on_c, 5, 65, 0
11, 12231, Note_on_c, 5, 69, 0
11, 12240, Note_on_c, 5, 65, 84
11, 12240, Note_on_c, 5, 69, 84
11, 12240, Control_c, 5, 11, 78
11, 12343, Control_c, 5, 11, 79
11, 12351, Note_on_c, 5, 65, 0
11, 12351, Note_on_c, 5, 69, 0
11, 12360, Note_on_c, 5, 69, 84
11, 12360, Note_on_c, 5, 65, 84
11, 12446, Control_c, 5, 11, 80
11, 12471, Note_on_c, 5, 69, 0
11, 12471, Note_on_c, 5, 65, 0
11, 12480, Note_on_c, 5, 65, 84
11, 12480, Note_on_c, 5, 69, 84
11, 12549, Control_c, 5, 11, 81
11, 12591, Note_on_c, 5, 65, 0
11, 12591, Note_on_c, 5, 69, 0
11, 12600, Note_on_c, 5, 65, 84
11, 12600, Note_on_c, 5, 69, 84
11, 12651, Control_c, 5, 11, 82
11, 12711, Note_on_c, 5, 65, 0
11, 12711, Note_on_c, 5, 69, 0
11, 12720, Note_on_c, 5, 65, 84
11, 12720, Note_on_c, 5, 69, 84
11, 12754, Control_c, 5, 11, 83
11, 12831, Note_on_c, 5, 65, 0
11, 12831, Note_on_c, 5, 69, 0
11, 12840, Note_on_c, 5, 69, 84
11, 12840, Note_on_c, 5, 65, 84
11, 12857, Control_c, 5, 11, 84
11, 12951, Note_on_c, 5, 69, 0
11, 12951, Note_on_c, 5, 65, 0
11, 12960, Note_on_c, 5, 65, 84
11, 12960, Control_c, 5, 11, 85
11, 12960, Note_on_c, 5, 69, 84
11, 13063, Control_c, 5, 11, 86
11, 13071, Note_on_c, 5, 65, 0
11, 13071, Note_on_c, 5, 69, 0
11, 13080, Note_on_c, 5, 69, 84
11, 13080, Note_on_c, 5, 65, 84
11, 13166, Control_c, 5, 11, 87
11, 13191, Note_on_c, 5, 69, 0
11, 13191, Note_on_c, 5, 65, 0
11, 13200, Note_on_c, 5, 69, 84
11, 13200, Note_on_c, 5, 65, 84
11, 13269, Control_c, 5, 11, 88
11, 13311, Note_on_c, 5, 69, 0
11, 13311, Note_on_c, 5, 65, 0
11, 13320, Note_on_c, 5, 65, 84
11, 13320, Note_on_c, 5, 69, 84
11, 13371, Control_c, 5, 11, 89
11, 13431, Note_on_c, 5, 65, 0
11, 13431, Note_on_c, 5, 69, 0
11, 13440, Note_on_c, 5, 69, 84
11, 13440, Note_on_c, 5, 65, 84
11, 13474, Control_c, 5, 11, 90
11, 13551, Note_on_c, 5, 69, 0
11, 13551, Note_on_c, 5, 65, 0
11, 13560, Note_on_c, 5, 69, 84
11, 13560, Note_on_c, 5, 65, 84
11, 13577, Control_c, 5, 11, 91
11, 13671, Note_on_c, 5, 69, 0
11, 13671, Note_on_c, 5, 65, 0
11, 13680, Note_on_c, 5, 65, 84
11, 13680, Control_c, 5, 11, 92
11, 13680, Note_on_c, 5, 70, 84
11, 13783, Control_c, 5, 11, 93
11, 13791, Note_on_c, 5, 65, 0
11, 13791, Note_on_c, 5, 70, 0
11, 13800, Note_on_c, 5, 70, 84
11, 13800, Note_on_c, 5, 65, 84
11, 13886, Control_c, 5, 11, 94
11, 13911, Note_on_c, 5, 70, 0
11, 13911, Note_on_c, 5, 65, 0
11, 13920, Note_on_c, 5, 70, 84
11, 13920, Note_on_c, 5, 65, 84
11, 13989, Control_c, 5, 11, 95
11, 14031, Note_on_c, 5, 70, 0
11, 14031, Note_on_c, 5, 65, 0
11, 14040, Note_on_c, 5, 65, 84
11, 14040, Note_on_c, 5, 70, 84
11, 14091, Control_c, 5, 11, 96
11, 14151, Note_on_c, 5, 65, 0
11, 14151, Note_on_c, 5, 70, 0
11, 14160, Note_on_c, 5, 65, 84
11, 14160, Note_on_c, 5, 70, 84
11, 14194, Control_c, 5, 11, 97
11, 14271, Note_on_c, 5, 65, 0
11, 14271, Note_on_c, 5, 70, 0
11, 14280, Note_on_c, 5, 70, 84
11, 14280, Note_on_c, 5, 67, 84
11, 14297, Control_c, 5, 11, 98
11, 14391, Note_on_c, 5, 70, 0
11, 14391, Note_on_c, 5, 67, 0
11, 14400, Note_on_c, 5, 70, 84
11, 14400, Control_c, 5, 11, 99
11, 14400, Note_on_c, 5, 67, 84
11, 14503, Control_c, 5, 11, 100
11, 14511, Note_on_c, 5, 70, 0
11, 14511, Note_on_c, 5, 67, 0
11, 14520, Note_on_c, 5, 70, 84
11, 14520, Note_on_c, 5, 67, 84
11, 14606, Control_c, 5, 11, 101
11, 14631, Note_on_c, 5, 70, 0
11, 14631, Note_on_c, 5, 67, 0
11, 14640, Note_on_c, 5, 67, 84
11, 14640, Note_on_c, 5, 70, 84
11, 14709, Control_c, 5, 11, 102
11, 14751, Note_on_c, 5, 67, 0
11, 14751, Note_on_c, 5, 70, 0
11, 14760, Note_on_c, 5, 70, 84
11, 14760, Note_on_c, 5, 67, 84
11, 14811, Control_c, 5, 11, 103
11, 14871, Note_on_c, 5, 70, 0
11, 14871, Note_on_c, 5, 67, 0
11, 14880, Note_on_c, 5, 67, 84
11, 14880, Note_on_c, 5, 70, 84
11, 14914, Control_c, 5, 11, 104
11, 14991, Note_on_c, 5, 67, 0
11, 14991, Note_on_c, 5, 70, 0
11, 15000, Note_on_c, 5, 67, 84
11, 15000, Note_on_c, 5, 70, 84
11, 15017, Control_c, 5, 11, 105
11, 15111, Note_on_c, 5, 67, 0
11, 15111, Note_on_c, 5, 70, 0
11, 15120, Note_on_c, 5, 69, 84
11, 15120, Control_c, 5, 11, 106
11, 15120, Note_on_c, 5, 65, 84
11, 15223, Control_c, 5, 11, 107
11, 15231, Note_on_c, 5, 69, 0
11, 15231, Note_on_c, 5, 65, 0
11, 15240, Note_on_c, 5, 65, 84
11, 15240, Note_on_c, 5, 69, 84
11, 15326, Control_c, 5, 11, 108
11, 15351, Note_on_c, 5, 65, 0
11, 15351, Note_on_c, 5, 69, 0
11, 15360, Note_on_c, 5, 65, 84
11, 15360, Note_on_c, 5, 69, 84
11, 15429, Control_c, 5, 11, 109
11, 15471, Note_on_c, 5, 65, 0
11, 15471, Note_on_c, 5, 69, 0
11, 15480, Note_on_c, 5, 65, 84
11, 15480, Note_on_c, 5, 69, 84
11, 15531, Control_c, 5, 11, 110
11, 15591, Note_on_c, 5, 65, 0
11, 15591, Note_on_c, 5, 69, 0
11, 15600, Note_on_c, 5, 69, 84
11, 15600, Note_on_c, 5, 65, 84
11, 15634, Control_c, 5, 11, 111
11, 15711, Note_on_c, 5, 69, 0
11, 15711, Note_on_c, 5, 65, 0
11, 15720, Note_on_c, 5, 69, 84
11, 15720, Note_on_c, 5, 65, 84
11, 15737, Control_c, 5, 11, 112
11, 15831, Note_on_c, 5, 69, 0
11, 15831, Note_on_c, 5, 65, 0
11, 15840, Control_c, 5, 11, 113
11, 15840, Note_on_c, 5, 67, 84
11, 15840, Note_on_c, 5, 65, 84
11, 15943, Control_c, 5, 11, 114
11, 15951, Note_on_c, 5, 67, 0
11, 15951, Note_on_c, 5, 65, 0
11, 15960, Note_on_c, 5, 67, 84
11, 15960, Note_on_c, 5, 65, 84
11, 16046, Control_c, 5, 11, 115
11, 16071, Note_on_c, 5, 67, 0
11, 16071, Note_on_c, 5, 65, 0
11, 16080, Note_on_c, 5, 65, 84
11, 16080, Note_on_c, 5, 67, 84
11, 16149, Control_c, 5, 11, 116
11, 16191, Note_on_c, 5, 65, 0
11, 16191, Note_on_c, 5, 67, 0
11, 16200, Note_on_c, 5, 60, 84
11, 16200, Note_on_c, 5, 67, 84
11, 16251, Control_c, 5, 11, 117
11, 16311, Note_on_c, 5, 60, 0
11, 16311, Note_on_c, 5, 67, 0
11, 16320, Note_on_c, 5, 60, 84
11, 16320, Note_on_c, 5, 67, 84
11, 16354, Control_c, 5, 11, 118
11, 16431, Note_on_c, 5, 60, 0
11, 16431, Note_on_c, 5, 67, 0
11, 16440, Note_on_c, 5, 60, 84
11, 16440, Note_on_c, 5, 67, 84
11, 16457, Control_c, 5, 11, 119
11, 16551, Note_on_c, 5, 60, 0
11, 16551, Note_on_c, 5, 67, 0
11, 16560, Control_c, 5, 11, 120
11, 16560, Note_on_c, 5, 65, 84
11, 16560, Note_on_c, 5, 69, 84
11, 16663, Control_c, 5, 11, 121
11, 16671, Note_on_c, 5, 65, 0
11, 16671, Note_on_c, 5, 69, 0
11, 16680, Note_on_c, 5, 65, 84
11, 16680, Note_on_c, 5, 69, 84
11, 16766, Control_c, 5, 11, 122
11, 16791, Note_on_c, 5, 65, 0
11, 16791, Note_on_c, 5, 69, 0
11, 16800, Note_on_c, 5, 65, 84
11, 16800, Note_on_c, 5, 69, 84
11, 16869, Control_c, 5, 11, 123
11, 16911, Note_on_c, 5, 65, 0
11, 16911, Note_on_c, 5, 69, 0
11, 16920, Note_on_c, 5, 69, 84
11, 16920, Note_on_c, 5, 65, 84
11, 16971, Control_c, 5, 11, 124
11, 17031, Note_on_c, 5, 69, 0
11, 17031, Note_on_c, 5, 65, 0
11, 17040, Note_on_c, 5, 69, 84
11, 17040, Note_on_c, 5, 65, 84
11, 17074, Control_c, 5, 11, 125
11, 17151, Note_on_c, 5, 69, 0
11, 17151, Note_on_c, 5, 65, 0
11, 17160, Note_on_c, 5, 69, 84
11, 17160, Note_on_c, 5, 65, 84
11, 17177, Control_c, 5, 11, 126
11, 17271, Note_on_c, 5, 69, 0
11, 17271, Note_on_c, 5, 65, 0
11, 17278, Control_c, 5, 11, 127
11, 17280, Note_on_c, 5, 69, 84
11, 17280, Note_on_c, 5, 57, 84
11, 17631, Note_on_c, 5, 69, 0
11, 17631, Note_on_c, 5, 57, 0
11, 17640, Note_on_c, 5, 53, 84
11, 17640, Note_on_c, 5, 65, 84
11, 17871, Note_on_c, 5, 53, 0
11, 17871, Note_on_c, 5, 65, 0
11, 17880, Note_on_c, 5, 72, 84
11, 17880, Note_on_c, 5, 60, 84
11, 17991, Note_on_c, 5, 72, 0
11, 17991, Note_on_c, 5, 60, 0
11, 18000, Note_on_c, 5, 57, 84
11, 18000, Note_on_c, 5, 69, 84
11, 18351, Note_on_c, 5, 57, 0
11, 18351, Note_on_c, 5, 69, 0
11, 18360, Note_on_c, 5, 65, 84
11, 18360, Note_on_c, 5, 53, 84
11, 18591, Note_on_c, 5, 65, 0
11, 18591, Note_on_c, 5, 53, 0
11, 18600, Note_on_c, 5, 48, 84
11, 18600, Note_on_c, 5, 60, 84
11, 18711, Note_on_c, 5, 48, 0
11, 18711, Note_on_c, 5, 60, 0
11, 18720, Note_on_c, 5, 65, 84
11, 18720, Note_on_c, 5, 53, 84
11, 18951, Note_on_c, 5, 65, 0
11, 18951, Note_on_c, 5, 53, 0
11, 18960, Note_on_c, 5, 57, 84
11, 18960, Note_on_c, 5, 69, 84
11, 19071, Note_on_c, 5, 57, 0
11, 19071, Note_on_c, 5, 69, 0
11, 19080, Note_on_c, 5, 60, 84
11, 19080, Note_on_c, 5, 72, 84
11, 19311, Note_on_c, 5, 60, 0
11, 19311, Note_on_c, 5, 72, 0
11, 19320, Note_on_c, 5, 69, 84
11, 19320, Note_on_c, 5, 57, 84
11, 19431, Note_on_c, 5, 69, 0
11, 19431, Note_on_c, 5, 57, 0
11, 19440, Note_on_c, 5, 53, 84
11, 19440, Note_on_c, 5, 70, 84
11, 20031, Note_on_c, 5, 53, 0
11, 20031, Note_on_c, 5, 70, 0
11, 20040, Note_on_c, 5, 67, 84
11, 20040, Note_on_c, 5, 48, 84
11, 20151, Note_on_c, 5, 67, 0
11, 20151, Note_on_c, 5, 48, 0
11, 20160, Note_on_c, 5, 70, 84
11, 20160, Note_on_c, 5, 48, 84
11, 20511, Note_on_c, 5, 70, 0
11, 20520, Note_on_c, 5, 67, 84
11, 20751, Note_on_c, 5, 48, 0
11, 20751, Note_on_c, 5, 67, 0
11, 20760, Note_on_c, 5, 72, 84
11, 20760, Note_on_c, 5, 48, 84
11, 20871, Note_on_c, 5, 72, 0
11, 20871, Note_on_c, 5, 48, 0
11, 20880, Note_on_c, 5, 69, 84
11, 20880, Note_on_c, 5, 53, 84
11, 21231, Note_on_c, 5, 69, 0
11, 21231, Note_on_c, 5, 53, 0
11, 21240, Note_on_c, 5, 65, 84
11, 21240, Note_on_c, 5, 53, 84
11, 21471, Note_on_c, 5, 65, 0
11, 21471, Note_on_c, 5, 53, 0
11, 21480, Note_on_c, 5, 69, 84
11, 21480, Note_on_c, 5, 65, 84
11, 21591, Note_on_c, 5, 69, 0
11, 21591, Note_on_c, 5, 65, 0
11, 21600, Note_on_c, 5, 67, 84
11, 21600, Note_on_c, 5, 65, 84
11, 21831, Note_on_c, 5, 67, 0
11, 21831, Note_on_c, 5, 65, 0
11, 21840, Note_on_c, 5, 65, 84
11, 21840, Note_on_c, 5, 67, 84
11, 21951, Note_on_c, 5, 65, 0
11, 21951, Note_on_c, 5, 67, 0
11, 21960, Note_on_c, 5, 60, 84
11, 21960, Note_on_c, 5, 67, 84
11, 22191, Note_on_c, 5, 60, 0
11, 22191, Note_on_c, 5, 67, 0
11, 22200, Note_on_c, 5, 67, 84
11, 22200, Note_on_c, 5, 60, 84
11, 22311, Note_on_c, 5, 67, 0
11, 22311, Note_on_c, 5, 60, 0
11, 22320, Note_on_c, 5, 65, 84
11, 22320, Note_on_c, 5, 57, 84
11, 22439, Note_on_c, 5, 65, 0
11, 22439, Note_on_c, 5, 57, 0
11, 23640, Note_on_c, 5, 48, 84
11, 23640, Note_on_c, 5, 60, 84
11, 23751, Note_on_c, 5, 48, 0
11, 23751, Note_on_c, 5, 60, 0
11, 23760, Note_on_c, 5, 60, 84
11, 23760, Note_on_c, 5, 48, 84
11, 24831, Note_on_c, 5, 60, 0
11, 24831, Note_on_c, 5, 48, 0
11, 24840, Note_on_c, 5, 60, 84
11, 24840, Note_on_c, 5, 48, 84
11, 25071, Note_on_c, 5, 60, 0
11, 25071, Note_on_c, 5, 48, 0
11, 25080, Note_on_c, 5, 48, 84
11, 25080, Note_on_c, 5, 60, 84
11, 25199, Note_on_c, 5, 48, 0
11, 25199, Note_on_c, 5, 60, 0
11, 26520, Note_on_c, 5, 60, 84
11, 26520, Note_on_c, 5, 48, 84
11, 26631, Note_on_c, 5, 60, 0
11, 26631, Note_on_c, 5, 48, 0
11, 26640, Note_on_c, 5, 60, 84
11, 26640, Note_on_c, 5, 48, 84
11, 27711, Note_on_c, 5, 60, 0
11, 27711, Note_on_c, 5, 48, 0
11, 27720, Note_on_c, 5, 48, 84
11, 27720, Note_on_c, 5, 60, 84
11, 27951, Note_on_c, 5, 48, 0
11, 27951, Note_on_c, 5, 60, 0
11, 27960, Note_on_c, 5, 48, 84
11, 27960, Note_on_c, 5, 60, 84
11, 28071, Note_on_c, 5, 48, 0
11, 28071, Note_on_c, 5, 60, 0
11, 28080, Note_on_c, 5, 60, 92
11, 28080, Note_on_c, 5, 48, 92
11, 28110, Control_c, 5, 11, 112
11, 28431, Note_on_c, 5, 60, 0
11, 28431, Note_on_c, 5, 48, 0
11, 28440, Note_on_c, 5, 67, 92
11, 28671, Note_on_c, 5, 67, 0
11, 28680, Note_on_c, 5, 67, 92
11, 28791, Note_on_c, 5, 67, 0
11, 28798, Control_c, 5, 11, 127
11, 28800, Note_on_c, 5, 67, 92
11, 28830, Control_c, 5, 11, 112
11, 29151, Note_on_c, 5, 67, 0
11, 29160, Note_on_c, 5, 67, 92
11, 29391, Note_on_c, 5, 67, 0
11, 29400, Note_on_c, 5, 67, 92
11, 29511, Note_on_c, 5, 67, 0
11, 29518, Control_c, 5, 11, 127
11, 29520, Note_on_c, 5, 67, 84
11, 30111, Note_on_c, 5, 67, 0
11, 30120, Note_on_c, 5, 67, 84
11, 30175, Note_on_c, 5, 67, 0
11, 30180, Note_on_c, 5, 67, 84
11, 30235, Note_on_c, 5, 67, 0
11, 30240, Note_on_c, 5, 67, 84
11, 30471, Note_on_c, 5, 67, 0
11, 30480, Note_on_c, 5, 67, 84
11, 30591, Note_on_c, 5, 67, 0
11, 30600, Note_on_c, 5, 67, 84
11, 30831, Note_on_c, 5, 67, 0
11, 30840, Note_on_c, 5, 67, 84
11, 30951, Note_on_c, 5, 67, 0
11, 30960, Note_on_c, 5, 67, 84
11, 31551, Note_on_c, 5, 67, 0
11, 31560, Note_on_c, 5, 67, 84
11, 31615, Note_on_c, 5, 67, 0
11, 31620, Note_on_c, 5, 67, 84
11, 31675, Note_on_c, 5, 67, 0
11, 31680, Note_on_c, 5, 67, 84
11, 31911, Note_on_c, 5, 67, 0
11, 31920, Note_on_c, 5, 67, 84
11, 32031, Note_on_c, 5, 67, 0
11, 32040, Note_on_c, 5, 67, 84
11, 32271, Note_on_c, 5, 67, 0
11, 32280, Note_on_c, 5, 67, 84
11, 32391, Note_on_c, 5, 67, 0
11, 32400, Note_on_c, 5, 67, 84
11, 32631, Note_on_c, 5, 67, 0
11, 32640, Note_on_c, 5, 67, 84
11, 32751, Note_on_c, 5, 67, 0
11, 32760, Note_on_c, 5, 67, 84
11, 32991, Note_on_c, 5, 67, 0
11, 33000, Note_on_c, 5, 67, 84
11, 33055, Note_on_c, 5, 67, 0
11, 33060, Note_on_c, 5, 67, 84
11, 33115, Note_on_c, 5, 67, 0
11, 33120, Note_on_c, 5, 67, 84
11, 33351, Note_on_c, 5, 67, 0
11, 33360, Note_on_c, 5, 67, 84
11, 33471, Note_on_c, 5, 67, 0
11, 33480, Note_on_c, 5, 67, 84
11, 33711, Note_on_c, 5, 67, 0
11, 33720, Note_on_c, 5, 67, 84
11, 33831, Note_on_c, 5, 67, 0
11, 33840, Note_on_c, 5, 67, 84
11, 34071, Note_on_c, 5, 67, 0
11, 34080, Note_on_c, 5, 67, 84
11, 34191, Note_on_c, 5, 67, 0
11, 34200, Note_on_c, 5, 67, 84
11, 34431, Note_on_c, 5, 67, 0
11, 34440, Note_on_c, 5, 67, 84
11, 34495, Note_on_c, 5, 67, 0
11, 34500, Note_on_c, 5, 67, 84
11, 34555, Note_on_c, 5, 67, 0
11, 34560, Note_on_c, 5, 67, 84
11, 34791, Note_on_c, 5, 67, 0
11, 34800, Note_on_c, 5, 67, 84
11, 34911, Note_on_c, 5, 67, 0
11, 34920, Note_on_c, 5, 67, 84
11, 35151, Note_on_c, 5, 67, 0
11, 35160, Note_on_c, 5, 67, 84
11, 35271, Note_on_c, 5, 67, 0
11, 35280, Note_on_c, 5, 48, 84
11, 35280, Note_on_c, 5, 60, 84
11, 35519, Note_on_c, 5, 48, 0
11, 35519, Note_on_c, 5, 60, 0
11, 36240, Note_on_c, 5, 48, 68
11, 36240, Note_on_c, 5, 60, 68
11, 36351, Note_on_c, 5, 48, 0
11, 36351, Note_on_c, 5, 60, 0
11, 36360, Note_on_c, 5, 67, 76
11, 36599, Note_on_c, 5, 67, 0
11, 36600, Note_on_c, 5, 67, 76
11, 36719, Note_on_c, 5, 67, 0
11, 36720, Note_on_c, 5, 60, 76
11, 36720, Note_on_c, 5, 48, 76
11, 36839, Note_on_c, 5, 60, 0
11, 36839, Note_on_c, 5, 48, 0
11, 37680, Note_on_c, 5, 48, 76
11, 37680, Note_on_c, 5, 60, 76
11, 37791, Note_on_c, 5, 48, 0
11, 37791, Note_on_c, 5, 60, 0
11, 37800, Note_on_c, 5, 67, 76
11, 38031, Note_on_c, 5, 67, 0
11, 38040, Note_on_c, 5, 67, 76
11, 38129, Note_on_c, 5, 67, 0
11, 38160, Note_on_c, 5, 60, 84
11, 38160, Note_on_c, 5, 48, 84
11, 38511, Note_on_c, 5, 60, 0
11, 38511, Note_on_c, 5, 48, 0
11, 38520, Note_on_c, 5, 60, 84
11, 38520, Note_on_c, 5, 48, 84
11, 38639, Note_on_c, 5, 60, 0
11, 38639, Note_on_c, 5, 48, 0
11, 38760, Note_on_c, 5, 48, 84
11, 38760, Note_on_c, 5, 60, 84
11, 38849, Note_on_c, 5, 48, 0
11, 38849, Note_on_c, 5, 60, 0
11, 38880, Note_on_c, 5, 69, 84
11, 38880, Note_on_c, 5, 57, 84
11, 39231, Note_on_c, 5, 69, 0
11, 39231, Note_on_c, 5, 57, 0
11, 39240, Note_on_c, 5, 69, 84
11, 39240, Note_on_c, 5, 57, 84
11, 39359, Note_on_c, 5, 69, 0
11, 39359, Note_on_c, 5, 57, 0
11, 39480, Note_on_c, 5, 57, 84
11, 39480, Note_on_c, 5, 69, 84
11, 39569, Note_on_c, 5, 57, 0
11, 39569, Note_on_c, 5, 69, 0
11, 39600, Note_on_c, 5, 67, 84
11, 39689, Note_on_c, 5, 67, 0
11, 42720, Control_c, 5, 11, 96
11, 42840, Note_on_c, 5, 48, 68
11, 43919, Note_on_c, 5, 48, 0
11, 43920, Note_on_c, 5, 67, 68
11, 43920, Note_on_c, 5, 48, 68
11, 43966, Control_c, 5, 11, 97
11, 44013, Control_c, 5, 11, 98
11, 44024, Note_on_c, 5, 67, 0
11, 44040, Note_on_c, 5, 60, 68
11, 44059, Control_c, 5, 11, 99
11, 44106, Control_c, 5, 11, 100
11, 44144, Note_on_c, 5, 60, 0
11, 44152, Control_c, 5, 11, 101
11, 44160, Note_on_c, 5, 72, 68
11, 44199, Control_c, 5, 11, 102
11, 44245, Control_c, 5, 11, 103
11, 44249, Note_on_c, 5, 72, 0
11, 44280, Note_on_c, 5, 67, 68
11, 44292, Control_c, 5, 11, 104
11, 44338, Control_c, 5, 11, 105
11, 44384, Note_on_c, 5, 67, 0
11, 44385, Control_c, 5, 11, 106
11, 44400, Note_on_c, 5, 60, 68
11, 44431, Control_c, 5, 11, 107
11, 44477, Control_c, 5, 11, 108
11, 44504, Note_on_c, 5, 60, 0
11, 44520, Note_on_c, 5, 72, 68
11, 44524, Control_c, 5, 11, 109
11, 44570, Control_c, 5, 11, 110
11, 44609, Note_on_c, 5, 72, 0
11, 44617, Control_c, 5, 11, 111
11, 44640, Note_on_c, 5, 67, 68
11, 44663, Control_c, 5, 11, 112
11, 44710, Control_c, 5, 11, 113
11, 44751, Note_on_c, 5, 67, 0
11, 44756, Control_c, 5, 11, 114
11, 44760, Note_on_c, 5, 60, 68
11, 44803, Control_c, 5, 11, 115
11, 44849, Control_c, 5, 11, 116
11, 44871, Note_on_c, 5, 60, 0
11, 44880, Note_on_c, 5, 72, 68
11, 44895, Control_c, 5, 11, 117
11, 44942, Control_c, 5, 11, 118
11, 44988, Control_c, 5, 11, 119
11, 44991, Note_on_c, 5, 72, 0
11, 45000, Note_on_c, 5, 67, 68
11, 45035, Control_c, 5, 11, 120
11, 45081, Control_c, 5, 11, 121
11, 45111, Note_on_c, 5, 67, 0
11, 45120, Note_on_c, 5, 60, 68
11, 45128, Control_c, 5, 11, 122
11, 45174, Control_c, 5, 11, 123
11, 45221, Control_c, 5, 11, 124
11, 45231, Note_on_c, 5, 60, 0
11, 45240, Note_on_c, 5, 72, 68
11, 45267, Control_c, 5, 11, 125
11, 45314, Control_c, 5, 11, 127
11, 45351, Note_on_c, 5, 48, 0
11, 45351, Note_on_c, 5, 72, 0
11, 45360, Note_on_c, 5, 69, 52
11, 45360, Note_on_c, 5, 53, 52
11, 45599, Note_on_c, 5, 69, 0
11, 45599, Note_on_c, 5, 53, 0
11, 50040, Note_on_c, 5, 60, 52
11, 50040, Note_on_c, 5, 48, 52
11, 50391, Note_on_c, 5, 60, 0
11, 50391, Note_on_c, 5, 48, 0
11, 50398, Control_c, 5, 11, 80
11, 50400, Note_on_c, 5, 60, 76
11, 50400, Note_on_c, 5, 53, 76
11, 50492, Control_c, 5, 11, 81
11, 50584, Control_c, 5, 11, 82
11, 50676, Control_c, 5, 11, 83
11, 50768, Control_c, 5, 11, 84
11, 50860, Control_c, 5, 11, 85
11, 50951, Control_c, 5, 11, 86
11, 51043, Control_c, 5, 11, 87
11, 51111, Note_on_c, 5, 60, 0
11, 51111, Note_on_c, 5, 53, 0
11, 51120, Note_on_c, 5, 65, 76
11, 51120, Note_on_c, 5, 69, 76
11, 51135, Control_c, 5, 11, 88
11, 51227, Control_c, 5, 11, 89
11, 51231, Note_on_c, 5, 65, 0
11, 51231, Note_on_c, 5, 69, 0
11, 51240, Note_on_c, 5, 69, 76
11, 51240, Note_on_c, 5, 65, 76
11, 51319, Control_c, 5, 11, 90
11, 51351, Note_on_c, 5, 69, 0
11, 51351, Note_on_c, 5, 65, 0
11, 51360, Note_on_c, 5, 69, 76
11, 51360, Note_on_c, 5, 65, 76
11, 51411, Control_c, 5, 11, 91
11, 51471, Note_on_c, 5, 69, 0
11, 51471, Note_on_c, 5, 65, 0
11, 51480, Note_on_c, 5, 69, 76
11, 51480, Note_on_c, 5, 65, 76
11, 51503, Control_c, 5, 11, 92
11, 51591, Note_on_c, 5, 69, 0
11, 51591, Note_on_c, 5, 65, 0
11, 51595, Control_c, 5, 11, 93
11, 51600, Note_on_c, 5, 69, 76
11, 51600, Note_on_c, 5, 65, 76
11, 51687, Control_c, 5, 11, 94
11, 51711, Note_on_c, 5, 69, 0
11, 51711, Note_on_c, 5, 65, 0
11, 51720, Note_on_c, 5, 69, 76
11, 51720, Note_on_c, 5, 65, 76
11, 51779, Control_c, 5, 11, 95
11, 51831, Note_on_c, 5, 69, 0
11, 51831, Note_on_c, 5, 65, 0
11, 51840, Note_on_c, 5, 69, 76
11, 51840, Note_on_c, 5, 65, 76
11, 51871, Control_c, 5, 11, 96
11, 51951, Note_on_c, 5, 69, 0
11, 51951, Note_on_c, 5, 65, 0
11, 51960, Note_on_c, 5, 69, 76
11, 51960, Note_on_c, 5, 65, 76
11, 51963, Control_c, 5, 11, 97
11, 52054, Control_c, 5, 11, 98
11, 52071, Note_on_c, 5, 69, 0
11, 52071, Note_on_c, 5, 65, 0
11, 52080, Note_on_c, 5, 65, 76
11, 52080, Note_on_c, 5, 69, 76
11, 52146, Control_c, 5, 11, 99
11, 52191, Note_on_c, 5, 65, 0
11, 52191, Note_on_c, 5, 69, 0
11, 52200, Note_on_c, 5, 65, 76
11, 52200, Note_on_c, 5, 69, 76
11, 52238, Control_c, 5, 11, 100
11, 52311, Note_on_c, 5, 65, 0
11, 52311, Note_on_c, 5, 69, 0
11, 52320, Note_on_c, 5, 65, 76
11, 52320, Note_on_c, 5, 69, 76
11, 52330, Control_c, 5, 11, 101
11, 52422, Control_c, 5, 11, 102
11, 52431, Note_on_c, 5, 65, 0
11, 52431, Note_on_c, 5, 69, 0
11, 52440, Note_on_c, 5, 65, 76
11, 52440, Note_on_c, 5, 69, 76
11, 52514, Control_c, 5, 11, 103
11, 52551, Note_on_c, 5, 65, 0
11, 52551, Note_on_c, 5, 69, 0
11, 52560, Note_on_c, 5, 65, 76
11, 52560, Note_on_c, 5, 69, 76
11, 52606, Control_c, 5, 11, 104
11, 52671, Note_on_c, 5, 65, 0
11, 52671, Note_on_c, 5, 69, 0
11, 52680, Note_on_c, 5, 69, 76
11, 52680, Note_on_c, 5, 65, 76
11, 52698, Control_c, 5, 11, 105
11, 52790, Control_c, 5, 11, 106
11, 52791, Note_on_c, 5, 69, 0
11, 52791, Note_on_c, 5, 65, 0
11, 52800, Note_on_c, 5, 65, 76
11, 52800, Note_on_c, 5, 69, 76
11, 52882, Control_c, 5, 11, 107
11, 52911, Note_on_c, 5, 65, 0
11, 52911, Note_on_c, 5, 69, 0
11, 52920, Note_on_c, 5, 69, 76
11, 52920, Note_on_c, 5, 65, 76
11, 52974, Control_c, 5, 11, 108
11, 53031, Note_on_c, 5, 69, 0
11, 53031, Note_on_c, 5, 65, 0
11, 53040, Note_on_c, 5, 65, 76
11, 53040, Note_on_c, 5, 69, 76
11, 53066, Control_c, 5, 11, 109
11, 53151, Note_on_c, 5, 65, 0
11, 53151, Note_on_c, 5, 69, 0
11, 53157, Control_c, 5, 11, 110
11, 53160, Note_on_c, 5, 69, 76
11, 53160, Note_on_c, 5, 65, 76
11, 53249, Control_c, 5, 11, 111
11, 53271, Note_on_c, 5, 69, 0
11, 53271, Note_on_c, 5, 65, 0
11, 53280, Note_on_c, 5, 69, 76
11, 53280, Note_on_c, 5, 65, 76
11, 53341, Control_c, 5, 11, 112
11, 53391, Note_on_c, 5, 69, 0
11, 53391, Note_on_c, 5, 65, 0
11, 53400, Note_on_c, 5, 65, 76
11, 53400, Note_on_c, 5, 69, 76
11, 53433, Control_c, 5, 11, 113
11, 53511, Note_on_c, 5, 65, 0
11, 53511, Note_on_c, 5, 69, 0
11, 53520, Note_on_c, 5, 69, 76
11, 53520, Note_on_c, 5, 65, 76
11, 53525, Control_c, 5, 11, 114
11, 53617, Control_c, 5, 11, 115
11, 53631, Note_on_c, 5, 69, 0
11, 53631, Note_on_c, 5, 65, 0
11, 53640, Note_on_c, 5, 69, 76
11, 53640, Note_on_c, 5, 65, 76
11, 53709, Control_c, 5, 11, 116
11, 53751, Note_on_c, 5, 69, 0
11, 53751, Note_on_c, 5, 65, 0
11, 53760, Note_on_c, 5, 69, 76
11, 53760, Note_on_c, 5, 65, 76
11, 53801, Control_c, 5, 11, 117
11, 53871, Note_on_c, 5, 69, 0
11, 53871, Note_on_c, 5, 65, 0
11, 53880, Note_on_c, 5, 69, 76
11, 53880, Note_on_c, 5, 65, 76
11, 53893, Control_c, 5, 11, 118
11, 53985, Control_c, 5, 11, 119
11, 53991, Note_on_c, 5, 69, 0
11, 53991, Note_on_c, 5, 65, 0
11, 54000, Note_on_c, 5, 69, 76
11, 54000, Note_on_c, 5, 65, 76
11, 54077, Control_c, 5, 11, 120
11, 54111, Note_on_c, 5, 69, 0
11, 54111, Note_on_c, 5, 65, 0
11, 54120, Note_on_c, 5, 69, 76
11, 54120, Note_on_c, 5, 65, 76
11, 54169, Control_c, 5, 11, 121
11, 54231, Note_on_c, 5, 69, 0
11, 54231, Note_on_c, 5, 65, 0
11, 54240, Note_on_c, 5, 65, 76
11, 54240, Note_on_c, 5, 69, 76
11, 54260, Control_c, 5, 11, 122
11, 54351, Note_on_c, 5, 65, 0
11, 54351, Note_on_c, 5, 69, 0
11, 54352, Control_c, 5, 11, 123
11, 54360, Note_on_c, 5, 65, 76
11, 54360, Note_on_c, 5, 69, 76
11, 54444, Control_c, 5, 11, 124
11, 54471, Note_on_c, 5, 65, 0
11, 54471, Note_on_c, 5, 69, 0
11, 54480, Note_on_c, 5, 69, 76
11, 54480, Note_on_c, 5, 65, 76
11, 54536, Control_c, 5, 11, 125
11, 54591, Note_on_c, 5, 69, 0
11, 54591, Note_on_c, 5, 65, 0
11, 54600, Note_on_c, 5, 69, 76
11, 54600, Note_on_c, 5, 65, 76
11, 54628, Control_c, 5, 11, 127
11, 54711, Note_on_c, 5, 69, 0
11, 54711, Note_on_c, 5, 65, 0
11, 54720, Note_on_c, 5, 69, 76
11, 54720, Note_on_c, 5, 65, 76
11, 54831, Note_on_c, 5, 69, 0
11, 54831, Note_on_c, 5, 65, 0
11, 54840, Note_on_c, 5, 65, 76
11, 54840, Note_on_c, 5, 69, 76
11, 54951, Note_on_c, 5, 65, 0
11, 54951, Note_on_c, 5, 69, 0
11, 54960, Note_on_c, 5, 65, 76
11, 54960, Note_on_c, 5, 69, 76
11, 55071, Note_on_c, 5, 65, 0
11, 55071, Note_on_c, 5, 69, 0
11, 55080, Note_on_c, 5, 69, 76
11, 55080, Note_on_c, 5, 65, 76
11, 55191, Note_on_c, 5, 69, 0
11, 55191, Note_on_c, 5, 65, 0
11, 55200, Note_on_c, 5, 65, 76
11, 55200, Note_on_c, 5, 69, 76
11, 55311, Note_on_c, 5, 65, 0
11, 55311, Note_on_c, 5, 69, 0
11, 55320, Note_on_c, 5, 53, 84
11, 55320, Note_on_c, 5, 65, 84
11, 55409, Note_on_c, 5, 53, 0
11, 55409, Note_on_c, 5, 65, 0
11, 55440, Note_on_c, 5, 53, 84
11, 55440, Note_on_c, 5, 65, 84
11, 55649, Note_on_c, 5, 53, 0
11, 55649, Note_on_c, 5, 65, 0
11, 55680, Note_on_c, 5, 65, 84
11, 55680, Note_on_c, 5, 53, 84
11, 55769, Note_on_c, 5, 65, 0
11, 55769, Note_on_c, 5, 53, 0
11, 55800, Note_on_c, 5, 53, 84
11, 55800, Note_on_c, 5, 65, 84
11, 56009, Note_on_c, 5, 53, 0
11, 56009, Note_on_c, 5, 65, 0
11, 56040, Note_on_c, 5, 65, 84
11, 56040, Note_on_c, 5, 53, 84
11, 56129, Note_on_c, 5, 65, 0
11, 56129, Note_on_c, 5, 53, 0
11, 56160, Note_on_c, 5, 65, 84
11, 56160, Note_on_c, 5, 53, 84
11, 56369, Note_on_c, 5, 65, 0
11, 56369, Note_on_c, 5, 53, 0
11, 56400, Note_on_c, 5, 53, 84
11, 56400, Note_on_c, 5, 65, 84
11, 56489, Note_on_c, 5, 53, 0
11, 56489, Note_on_c, 5, 65, 0
11, 56520, Note_on_c, 5, 65, 84
11, 56520, Note_on_c, 5, 53, 84
11, 56729, Note_on_c, 5, 65, 0
11, 56729, Note_on_c, 5, 53, 0
11, 56760, Note_on_c, 5, 65, 84
11, 56760, Note_on_c, 5, 53, 84
11, 56849, Note_on_c, 5, 65, 0
11, 56849, Note_on_c, 5, 53, 0
11, 56880, Note_on_c, 5, 53, 84
11, 56880, Note_on_c, 5, 65, 84
11, 57119, Note_on_c, 5, 53, 0
11, 57119, Note_on_c, 5, 65, 0
11, 58200, Note_on_c, 5, 53, 76
11, 58200, Note_on_c, 5, 65, 76
11, 58311, Note_on_c, 5, 53, 0
11, 58311, Note_on_c, 5, 65, 0
11, 58320, Note_on_c, 5, 65, 84
11, 58320, Note_on_c, 5, 53, 84
11, 58350, Control_c, 5, 11, 112
11, 58559, Note_on_c, 5, 65, 0
11, 58559, Note_on_c, 5, 53, 0
11, 58680, Control_c, 5, 11, 127
11, 59640, Note_on_c, 5, 65, 76
11, 59640, Note_on_c, 5, 53, 76
11, 59751, Note_on_c, 5, 65, 0
11, 59751, Note_on_c, 5, 53, 0
11, 59760, Note_on_c, 5, 65, 84
11, 59760, Note_on_c, 5, 53, 84
11, 59790, Control_c, 5, 11, 112
11, 59879, Note_on_c, 5, 65, 0
11, 59879, Note_on_c, 5, 53, 0
11, 60000, Control_c, 5, 11, 127
11, 60120, Note_on_c, 5, 53, 52
11, 60120, Note_on_c, 5, 65, 52
11, 60351, Note_on_c, 5, 53, 0
11, 60351, Note_on_c, 5, 65, 0
11, 60360, Note_on_c, 5, 53, 52
11, 60360, Note_on_c, 5, 65, 52
11, 60471, Note_on_c, 5, 53, 0
11, 60471, Note_on_c, 5, 65, 0
11, 60480, Note_on_c, 5, 65, 52
11, 60480, Note_on_c, 5, 53, 52
11, 60711, Note_on_c, 5, 65, 0
11, 60711, Note_on_c, 5, 53, 0
11, 60720, Note_on_c, 5, 53, 52
11, 60720, Note_on_c, 5, 65, 52
11, 60831, Note_on_c, 5, 53, 0
11, 60831, Note_on_c, 5, 65, 0
11, 60840, Note_on_c, 5, 53, 52
11, 60840, Note_on_c, 5, 65, 52
11, 61071, Note_on_c, 5, 53, 0
11, 61071, Note_on_c, 5, 65, 0
11, 61080, Note_on_c, 5, 65, 76
11, 61080, Note_on_c, 5, 53, 76
11, 61191, Note_on_c, 5, 65, 0
11, 61191, Note_on_c, 5, 53, 0
11, 61200, Note_on_c, 5, 53, 76
11, 61200, Note_on_c, 5, 65, 76
11, 61439, Note_on_c, 5, 53, 0
11, 61439, Note_on_c, 5, 65, 0
11, 61800, Note_on_c, 5, 70, 76
11, 61911, Note_on_c, 5, 70, 0
11, 61920, Note_on_c, 5, 70, 76
11, 62159, Note_on_c, 5, 70, 0
11, 62520, Note_on_c, 5, 70, 76
11, 62631, Note_on_c, 5, 70, 0
11, 62640, Note_on_c, 5, 70, 76
11, 62879, Note_on_c, 5, 70, 0
11, 63240, Note_on_c, 5, 70, 76
11, 63351, Note_on_c, 5, 70, 0
11, 63360, Note_on_c, 5, 53, 76
11, 63360, Note_on_c, 5, 65, 76
11, 63599, Note_on_c, 5, 53, 0
11, 63599, Note_on_c, 5, 65, 0
11, 63960, Note_on_c, 5, 65, 76
11, 63960, Note_on_c, 5, 53, 76
11, 64071, Note_on_c, 5, 65, 0
11, 64071, Note_on_c, 5, 53, 0
11, 64080, Note_on_c, 5, 65, 76
11, 64080, Note_on_c, 5, 53, 76
11, 64319, Note_on_c, 5, 65, 0
11, 64319, Note_on_c, 5, 53, 0
11, 64680, Note_on_c, 5, 70, 76
11, 64791, Note_on_c, 5, 70, 0
11, 64800, Note_on_c, 5, 70, 80
11, 65039, Note_on_c, 5, 70, 0
11, 65400, Note_on_c, 5, 70, 80
11, 65511, Note_on_c, 5, 70, 0
11, 65520, Note_on_c, 5, 70, 80
11, 65759, Note_on_c, 5, 70, 0
11, 66120, Note_on_c, 5, 70, 80
11, 66231, Note_on_c, 5, 70, 0
11, 66240, Note_on_c, 5, 70, 84
11, 66951, Note_on_c, 5, 70, 0
11, 66960, Note_on_c, 5, 65, 84
11, 66960, Note_on_c, 5, 53, 84
11, 67199, Note_on_c, 5, 65, 0
11, 67199, Note_on_c, 5, 53, 0
11, 70200, Note_on_c, 5, 67, 44
11, 70551, Note_on_c, 5, 67, 0
11, 70560, Note_on_c, 5, 67, 52
11, 71639, Note_on_c, 5, 67, 0
11, 71880, Note_on_c, 5, 67, 76
11, 71991, Note_on_c, 5, 67, 0
11, 72000, Note_on_c, 5, 67, 76
11, 72351, Note_on_c, 5, 67, 0
11, 72360, Note_on_c, 5, 67, 76
11, 72479, Note_on_c, 5, 67, 0
11, 72600, Note_on_c, 5, 67, 76
11, 72711, Note_on_c, 5, 67, 0
11, 72720, Note_on_c, 5, 67, 76
11, 73071, Note_on_c, 5, 67, 0
11, 73080, Note_on_c, 5, 67, 76
11, 73199, Note_on_c, 5, 67, 0
11, 73320, Note_on_c, 5, 67, 76
11, 73431, Note_on_c, 5, 67, 0
11, 73440, Note_on_c, 5, 67, 52
11, 74759, Note_on_c, 5, 67, 0
11, 74760, Note_on_c, 5, 67, 76
11, 74871, Note_on_c, 5, 67, 0
11, 74880, Note_on_c, 5, 67, 76
11, 75231, Note_on_c, 5, 67, 0
11, 75240, Note_on_c, 5, 67, 76
11, 75359, Note_on_c, 5, 67, 0
11, 75480, Note_on_c, 5, 67, 76
11, 75591, Note_on_c, 5, 67, 0
11, 75600, Note_on_c, 5, 67, 76
11, 75951, Note_on_c, 5, 67, 0
11, 75960, Note_on_c, 5, 67, 76
11, 76079, Note_on_c, 5, 67, 0
11, 76200, Note_on_c, 5, 60, 76
11, 76200, Note_on_c, 5, 67, 76
11, 76311, Note_on_c, 5, 60, 0
11, 76311, Note_on_c, 5, 67, 0
11, 76320, Note_on_c, 5, 60, 84
11, 76320, Note_on_c, 5, 67, 84
11, 76671, Note_on_c, 5, 60, 0
11, 76671, Note_on_c, 5, 67, 0
11, 76680, Note_on_c, 5, 67, 84
11, 76680, Note_on_c, 5, 60, 84
11, 76799, Note_on_c, 5, 67, 0
11, 76799, Note_on_c, 5, 60, 0
11, 76920, Note_on_c, 5, 67, 84
11, 76920, Note_on_c, 5, 60, 84
11, 77031, Note_on_c, 5, 67, 0
11, 77031, Note_on_c, 5, 60, 0
11, 77040, Note_on_c, 5, 60, 84
11, 77040, Note_on_c, 5, 67, 84
11, 77391, Note_on_c, 5, 60, 0
11, 77391, Note_on_c, 5, 67, 0
11, 77400, Note_on_c, 5, 60, 84
11, 77400, Note_on_c, 5, 67, 84
11, 77519, Note_on_c, 5, 60, 0
11, 77519, Note_on_c, 5, 67, 0
11, 77640, Note_on_c, 5, 67, 84
11, 77640, Note_on_c, 5, 60, 84
11, 77751, Note_on_c, 5, 67, 0
11, 77751, Note_on_c, 5, 60, 0
11, 77760, Note_on_c, 5, 60, 84
11, 77760, Note_on_c, 5, 67, 84
11, 77790, Control_c, 5, 11, 126
11, 77820, Control_c, 5, 11, 124
11, 77850, Control_c, 5, 11, 123
11, 77880, Control_c, 5, 11, 122
11, 77910, Control_c, 5, 11, 120
11, 77940, Control_c, 5, 11, 119
11, 77970, Control_c, 5, 11, 118
11, 78000, Control_c, 5, 11, 117
11, 78030, Control_c, 5, 11, 115
11, 78060, Control_c, 5, 11, 114
11, 78090, Control_c, 5, 11, 113
11, 78120, Control_c, 5, 11, 111
11, 78150, Control_c, 5, 11, 110
11, 78180, Control_c, 5, 11, 109
11, 78210, Control_c, 5, 11, 107
11, 78240, Control_c, 5, 11, 106
11, 78270, Control_c, 5, 11, 105
11, 78300, Control_c, 5, 11, 103
11, 78330, Control_c, 5, 11, 102
11, 78360, Control_c, 5, 11, 101
11, 78390, Control_c, 5, 11, 99
11, 78420, Control_c, 5, 11, 98
11, 78450, Control_c, 5, 11, 97
11, 78480, Control_c, 5, 11, 96
11, 78510, Control_c, 5, 11, 94
11, 78540, Control_c, 5, 11, 93
11, 78570, Control_c, 5, 11, 92
11, 78600, Control_c, 5, 11, 90
11, 78630, Control_c, 5, 11, 89
11, 78660, Control_c, 5, 11, 88
11, 78690, Control_c, 5, 11, 86
11, 78720, Control_c, 5, 11, 85
11, 78750, Control_c, 5, 11, 84
11, 78780, Control_c, 5, 11, 82
11, 78810, Control_c, 5, 11, 81
11, 78840, Control_c, 5, 11, 80
11, 78870, Control_c, 5, 11, 78
11, 78900, Control_c, 5, 11, 77
11, 78930, Control_c, 5, 11, 76
11, 78960, Control_c, 5, 11, 75
11, 78990, Control_c, 5, 11, 73
11, 79020, Control_c, 5, 11, 72
11, 79050, Control_c, 5, 11, 71
11, 79080, Control_c, 5, 11, 69
11, 79110, Control_c, 5, 11, 68
11, 79140, Control_c, 5, 11, 67
11, 79170, Control_c, 5, 11, 65
11, 79191, Note_on_c, 5, 60, 0
11, 79191, Note_on_c, 5, 67, 0
11, 79198, Control_c, 5, 11, 80
11, 79200, Note_on_c, 5, 60, 76
11, 79200, Note_on_c, 5, 67, 76
11, 79920, Control_c, 5, 11, 80
11, 79965, Control_c, 5, 11, 79
11, 80010, Control_c, 5, 11, 78
11, 80055, Control_c, 5, 11, 77
11, 80100, Control_c, 5, 11, 76
11, 80145, Control_c, 5, 11, 75
11, 80190, Control_c, 5, 11, 74
11, 80235, Control_c, 5, 11, 73
11, 80280, Control_c, 5, 11, 72
11, 80325, Control_c, 5, 11, 71
11, 80370, Control_c, 5, 11, 70
11, 80415, Control_c, 5, 11, 69
11, 80460, Control_c, 5, 11, 68
11, 80505, Control_c, 5, 11, 67
11, 80550, Control_c, 5, 11, 66
11, 80595, Control_c, 5, 11, 65
11, 80639, Note_on_c, 5, 60, 0
11, 80639, Note_on_c, 5, 67, 0
11, 80640, Note_on_c, 5, 60, 76
11, 80640, Note_on_c, 5, 67, 76
11, 81718, Control_c, 5, 11, 80
11, 81720, Control_c, 5, 11, 80
11, 81758, Control_c, 5, 11, 81
11, 81797, Control_c, 5, 11, 82
11, 81835, Control_c, 5, 11, 83
11, 81873, Control_c, 5, 11, 84
11, 81911, Control_c, 5, 11, 85
11, 81950, Control_c, 5, 11, 86
11, 81951, Note_on_c, 5, 67, 0
11, 81960, Note_on_c, 5, 72, 76
11, 81988, Control_c, 5, 11, 87
11, 82026, Control_c, 5, 11, 88
11, 82065, Control_c, 5, 11, 89
11, 82071, Note_on_c, 5, 72, 0
11, 82079, Note_on_c, 5, 60, 0
11, 82080, Note_on_c, 5, 60, 68
11, 82080, Note_on_c, 5, 67, 68
11, 82103, Control_c, 5, 11, 90
11, 82141, Control_c, 5, 11, 91
11, 82180, Control_c, 5, 11, 92
11, 82184, Note_on_c, 5, 67, 0
11, 82218, Control_c, 5, 11, 93
11, 82256, Control_c, 5, 11, 94
11, 82294, Control_c, 5, 11, 95
11, 82320, Note_on_c, 5, 72, 68
11, 82333, Control_c, 5, 11, 96
11, 82371, Control_c, 5, 11, 97
11, 82409, Note_on_c, 5, 72, 0
11, 82409, Control_c, 5, 11, 98
11, 82440, Note_on_c, 5, 67, 68
11, 82448, Control_c, 5, 11, 99
11, 82486, Control_c, 5, 11, 100
11, 82524, Control_c, 5, 11, 101
11, 82544, Note_on_c, 5, 67, 0
11, 82563, Control_c, 5, 11, 102
11, 82601, Control_c, 5, 11, 103
11, 82639, Control_c, 5, 11, 104
11, 82677, Control_c, 5, 11, 105
11, 82680, Note_on_c, 5, 72, 68
11, 82716, Control_c, 5, 11, 106
11, 82754, Control_c, 5, 11, 107
11, 82769, Note_on_c, 5, 72, 0
11, 82792, Control_c, 5, 11, 108
11, 82800, Note_on_c, 5, 67, 68
11, 82831, Control_c, 5, 11, 109
11, 82869, Control_c, 5, 11, 110
11, 82904, Note_on_c, 5, 67, 0
11, 82907, Control_c, 5, 11, 111
11, 82946, Control_c, 5, 11, 112
11, 82984, Control_c, 5, 11, 113
11, 83022, Control_c, 5, 11, 114
11, 83040, Note_on_c, 5, 72, 68
11, 83060, Control_c, 5, 11, 115
11, 83099, Control_c, 5, 11, 116
11, 83129, Note_on_c, 5, 72, 0
11, 83137, Control_c, 5, 11, 117
11, 83160, Note_on_c, 5, 67, 68
11, 83175, Control_c, 5, 11, 118
11, 83214, Control_c, 5, 11, 119
11, 83252, Control_c, 5, 11, 120
11, 83264, Note_on_c, 5, 67, 0
11, 83290, Control_c, 5, 11, 121
11, 83329, Control_c, 5, 11, 122
11, 83367, Control_c, 5, 11, 123
11, 83400, Note_on_c, 5, 72, 68
11, 83405, Control_c, 5, 11, 124
11, 83443, Control_c, 5, 11, 125
11, 83482, Control_c, 5, 11, 127
11, 83489, Note_on_c, 5, 72, 0
11, 83511, Note_on_c, 5, 60, 0
11, 83520, Note_on_c, 5, 65, 52
11, 83520, Note_on_c, 5, 53, 52
11, 83759, Note_on_c, 5, 65, 0
11, 83759, Note_on_c, 5, 53, 0
11, 88080, Control_c, 5, 11, 64
11, 88200, Note_on_c, 5, 60, 84
11, 88200, Note_on_c, 5, 48, 84
11, 88431, Note_on_c, 5, 60, 0
11, 88431, Note_on_c, 5, 48, 0
11, 88440, Note_on_c, 5, 48, 84
11, 88440, Note_on_c, 5, 60, 84
11, 88551, Note_on_c, 5, 48, 0
11, 88551, Note_on_c, 5, 60, 0
11, 88560, Control_c, 5, 11, 64
11, 88560, Note_on_c, 5, 53, 84
11, 88560, Note_on_c, 5, 60, 84
11, 88663, Control_c, 5, 11, 65
11, 88766, Control_c, 5, 11, 66
11, 88869, Control_c, 5, 11, 67
11, 88971, Control_c, 5, 11, 68
11, 89074, Control_c, 5, 11, 69
11, 89151, Note_on_c, 5, 53, 0
11, 89151, Note_on_c, 5, 60, 0
11, 89160, Note_on_c, 5, 69, 84
11, 89160, Note_on_c, 5, 65, 84
11, 89177, Control_c, 5, 11, 70
11, 89271, Note_on_c, 5, 69, 0
11, 89271, Note_on_c, 5, 65, 0
11, 89280, Control_c, 5, 11, 71
11, 89280, Note_on_c, 5, 69, 84
11, 89280, Note_on_c, 5, 65, 84
11, 89383, Control_c, 5, 11, 72
11, 89391, Note_on_c, 5, 69, 0
11, 89391, Note_on_c, 5, 65, 0
11, 89400, Note_on_c, 5, 69, 84
11, 89400, Note_on_c, 5, 65, 84
11, 89486, Control_c, 5, 11, 73
11, 89511, Note_on_c, 5, 69, 0
11, 89511, Note_on_c, 5, 65, 0
11, 89520, Note_on_c, 5, 65, 84
11, 89520, Note_on_c, 5, 69, 84
11, 89589, Control_c, 5, 11, 74
11, 89631, Note_on_c, 5, 65, 0
11, 89631, Note_on_c, 5, 69, 0
11, 89640, Note_on_c, 5, 69, 84
11, 89640, Note_on_c, 5, 65, 84
11, 89691, Control_c, 5, 11, 75
11, 89751, Note_on_c, 5, 69, 0
11, 89751, Note_on_c, 5, 65, 0
11, 89760, Note_on_c, 5, 65, 84
11, 89760, Note_on_c, 5, 69, 84
11, 89794, Control_c, 5, 11, 76
11, 89871, Note_on_c, 5, 65, 0
11, 89871, Note_on_c, 5, 69, 0
11, 89880, Note_on_c, 5, 65, 84
11, 89880, Note_on_c, 5, 69, 84
11, 89897, Control_c, 5, 11, 77
11, 89991, Note_on_c, 5, 65, 0
11, 89991, Note_on_c, 5, 69, 0
11, 90000, Note_on_c, 5, 69, 84
11, 90000, Note_on_c, 5, 65, 84
11, 90000, Control_c, 5, 11, 78
11, 90103, Control_c, 5, 11, 79
11, 90111, Note_on_c, 5, 69, 0
11, 90111, Note_on_c, 5, 65, 0
11, 90120, Note_on_c, 5, 69, 84
11, 90120, Note_on_c, 5, 65, 84
11, 90206, Control_c, 5, 11, 80
11, 90231, Note_on_c, 5, 69, 0
11, 90231, Note_on_c, 5, 65, 0
11, 90240, Note_on_c, 5, 65, 84
11, 90240, Note_on_c, 5, 69, 84
11, 90309, Control_c, 5, 11, 81
11, 90351, Note_on_c, 5, 65, 0
11, 90351, Note_on_c, 5, 69, 0
11, 90360, Note_on_c, 5, 69, 84
11, 90360, Note_on_c, 5, 65, 84
11, 90411, Control_c, 5, 11, 82
11, 90471, Note_on_c, 5, 69, 0
11, 90471, Note_on_c, 5, 65, 0
11, 90480, Note_on_c, 5, 65, 84
11, 90480, Note_on_c, 5, 69, 84
11, 90514, Control_c, 5, 11, 83
11, 90591, Note_on_c, 5, 65, 0
11, 90591, Note_on_c, 5, 69, 0
11, 90600, Note_on_c, 5, 65, 84
11, 90600, Note_on_c, 5, 69, 84
11, 90617, Control_c, 5, 11, 84
11, 90711, Note_on_c, 5, 65, 0
11, 90711, Note_on_c, 5, 69, 0
11, 90720, Note_on_c, 5, 69, 84
11, 90720, Note_on_c, 5, 65, 84
11, 90720, Control_c, 5, 11, 85
11, 90823, Control_c, 5, 11, 86
11, 90831, Note_on_c, 5, 69, 0
11, 90831, Note_on_c, 5, 65, 0
11, 90840, Note_on_c, 5, 65, 84
11, 90840, Note_on_c, 5, 69, 84
11, 90926, Control_c, 5, 11, 87
11, 90951, Note_on_c, 5, 65, 0
11, 90951, Note_on_c, 5, 69, 0
11, 90960, Note_on_c, 5, 69, 84
11, 90960, Note_on_c, 5, 65, 84
11, 91029, Control_c, 5, 11, 88
11, 91071, Note_on_c, 5, 69, 0
11, 91071, Note_on_c, 5, 65, 0
11, 91080, Note_on_c, 5, 65, 84
11, 91080, Note_on_c, 5, 69, 84
11, 91131, Control_c, 5, 11, 89
11, 91191, Note_on_c, 5, 65, 0
11, 91191, Note_on_c, 5, 69, 0
11, 91200, Note_on_c, 5, 65, 84
11, 91200, Note_on_c, 5, 69, 84
11, 91234, Control_c, 5, 11, 90
11, 91311, Note_on_c, 5, 65, 0
11, 91311, Note_on_c, 5, 69, 0
11, 91320, Note_on_c, 5, 65, 84
11, 91320, Note_on_c, 5, 69, 84
11, 91337, Control_c, 5, 11, 91
11, 91431, Note_on_c, 5, 65, 0
11, 91431, Note_on_c, 5, 69, 0
11, 91440, Note_on_c, 5, 65, 84
11, 91440, Note_on_c, 5, 70, 84
11, 91440, Control_c, 5, 11, 92
11, 91543, Control_c, 5, 11, 93
11, 91551, Note_on_c, 5, 65, 0
11, 91551, Note_on_c, 5, 70, 0
11, 91560, Note_on_c, 5, 70, 84
11, 91560, Note_on_c, 5, 65, 84
11, 91646, Control_c, 5, 11, 94
11, 91671, Note_on_c, 5, 70, 0
11, 91671, Note_on_c, 5, 65, 0
11, 91680, Note_on_c, 5, 65, 84
11, 91680, Note_on_c, 5, 70, 84
11, 91749, Control_c, 5, 11, 95
11, 91791, Note_on_c, 5, 65, 0
11, 91791, Note_on_c, 5, 70, 0
11, 91800, Note_on_c, 5, 65, 84
11, 91800, Note_on_c, 5, 70, 84
11, 91851, Control_c, 5, 11, 96
11, 91911, Note_on_c, 5, 65, 0
11, 91911, Note_on_c, 5, 70, 0
11, 91920, Note_on_c, 5, 70, 84
11, 91920, Note_on_c, 5, 65, 84
11, 91954, Control_c, 5, 11, 97
11, 92031, Note_on_c, 5, 70, 0
11, 92031, Note_on_c, 5, 65, 0
11, 92040, Note_on_c, 5, 67, 84
11, 92040, Note_on_c, 5, 70, 84
11, 92057, Control_c, 5, 11, 98
11, 92151, Note_on_c, 5, 67, 0
11, 92151, Note_on_c, 5, 70, 0
11, 92160, Control_c, 5, 11, 99
11, 92160, Note_on_c, 5, 70, 84
11, 92160, Note_on_c, 5, 67, 84
11, 92263, Control_c, 5, 11, 100
11, 92271, Note_on_c, 5, 70, 0
11, 92271, Note_on_c, 5, 67, 0
11, 92280, Note_on_c, 5, 67, 84
11, 92280, Note_on_c, 5, 70, 84
11, 92366, Control_c, 5, 11, 101
11, 92391, Note_on_c, 5, 67, 0
11, 92391, Note_on_c, 5, 70, 0
11, 92400, Note_on_c, 5, 67, 84
11, 92400, Note_on_c, 5, 70, 84
11, 92469, Control_c, 5, 11, 102
11, 92511, Note_on_c, 5, 67, 0
11, 92511, Note_on_c, 5, 70, 0
11, 92520, Note_on_c, 5, 67, 84
11, 92520, Note_on_c, 5, 70, 84
11, 92571, Control_c, 5, 11, 103
11, 92631, Note_on_c, 5, 67, 0
11, 92631, Note_on_c, 5, 70, 0
11, 92640, Note_on_c, 5, 70, 84
11, 92640, Note_on_c, 5, 67, 84
11, 92674, Control_c, 5, 11, 104
11, 92751, Note_on_c, 5, 70, 0
11, 92751, Note_on_c, 5, 67, 0
11, 92760, Note_on_c, 5, 67, 84
11, 92760, Note_on_c, 5, 70, 84
11, 92777, Control_c, 5, 11, 105
11, 92871, Note_on_c, 5, 67, 0
11, 92871, Note_on_c, 5, 70, 0
11, 92880, Control_c, 5, 11, 106
11, 92880, Note_on_c, 5, 69, 84
11, 92880, Note_on_c, 5, 65, 84
11, 92983, Control_c, 5, 11, 107
11, 92991, Note_on_c, 5, 69, 0
11, 92991, Note_on_c, 5, 65, 0
11, 93000, Note_on_c, 5, 65, 84
11, 93000, Note_on_c, 5, 69, 84
11, 93086, Control_c, 5, 11, 108
11, 93111, Note_on_c, 5, 65, 0
11, 93111, Note_on_c, 5, 69, 0
11, 93120, Note_on_c, 5, 65, 84
11, 93120, Note_on_c, 5, 69, 84
11, 93189, Control_c, 5, 11, 109
11, 93231, Note_on_c, 5, 65, 0
11, 93231, Note_on_c, 5, 69, 0
11, 93240, Note_on_c, 5, 65, 84
11, 93240, Note_on_c, 5, 69, 84
11, 93291, Control_c, 5, 11, 110
11, 93351, Note_on_c, 5, 65, 0
11, 93351, Note_on_c, 5, 69, 0
11, 93360, Note_on_c, 5, 65, 84
11, 93360, Note_on_c, 5, 69, 84
11, 93394, Control_c, 5, 11, 111
11, 93471, Note_on_c, 5, 65, 0
11, 93471, Note_on_c, 5, 69, 0
11, 93480, Note_on_c, 5, 65, 84
11, 93480, Note_on_c, 5, 69, 84
11, 93497, Control_c, 5, 11, 112
11, 93591, Note_on_c, 5, 65, 0
11, 93591, Note_on_c, 5, 69, 0
11, 93600, Note_on_c, 5, 67, 84
11, 93600, Control_c, 5, 11, 113
11, 93600, Note_on_c, 5, 65, 84
11, 93703, Control_c, 5, 11, 114
11, 93711, Note_on_c, 5, 67, 0
11, 93711, Note_on_c, 5, 65, 0
11, 93720, Note_on_c, 5, 65, 84
11, 93720, Note_on_c, 5, 67, 84
11, 93806, Control_c, 5, 11, 115
11, 93831, Note_on_c, 5, 65, 0
11, 93831, Note_on_c, 5, 67, 0
11, 93840, Note_on_c, 5, 67, 84
11, 93840, Note_on_c, 5, 65, 84
11, 93909, Control_c, 5, 11, 116
11, 93951, Note_on_c, 5, 67, 0
11, 93951, Note_on_c, 5, 65, 0
11, 93960, Note_on_c, 5, 60, 84
11, 93960, Note_on_c, 5, 67, 84
11, 94011, Control_c, 5, 11, 117
11, 94071, Note_on_c, 5, 60, 0
11, 94071, Note_on_c, 5, 67, 0
11, 94080, Note_on_c, 5, 67, 84
11, 94080, Note_on_c, 5, 60, 84
11, 94114, Control_c, 5, 11, 118
11, 94191, Note_on_c, 5, 67, 0
11, 94191, Note_on_c, 5, 60, 0
11, 94200, Note_on_c, 5, 67, 84
11, 94200, Note_on_c, 5, 60, 84
11, 94217, Control_c, 5, 11, 119
11, 94311, Note_on_c, 5, 67, 0
11, 94311, Note_on_c, 5, 60, 0
11, 94320, Control_c, 5, 11, 120
11, 94320, Note_on_c, 5, 65, 84
11, 94320, Note_on_c, 5, 69, 84
11, 94423, Control_c, 5, 11, 121
11, 94431, Note_on_c, 5, 65, 0
11, 94431, Note_on_c, 5, 69, 0
11, 94440, Note_on_c, 5, 69, 84
11, 94440, Note_on_c, 5, 65, 84
11, 94526, Control_c, 5, 11, 122
11, 94551, Note_on_c, 5, 69, 0
11, 94551, Note_on_c, 5, 65, 0
11, 94560, Note_on_c, 5, 69, 84
11, 94560, Note_on_c, 5, 65, 84
11, 94629, Control_c, 5, 11, 123
11, 94671, Note_on_c, 5, 69, 0
11, 94671, Note_on_c, 5, 65, 0
11, 94680, Note_on_c, 5, 65, 84
11, 94680, Note_on_c, 5, 69, 84
11, 94731, Control_c, 5, 11, 124
11, 94791, Note_on_c, 5, 65, 0
11, 94791, Note_on_c, 5, 69, 0
11, 94800, Note_on_c, 5, 69, 84
11, 94800, Note_on_c, 5, 65, 84
11, 94834, Control_c, 5, 11, 125
11, 94911, Note_on_c, 5, 69, 0
11, 94911, Note_on_c, 5, 65, 0
11, 94920, Note_on_c, 5, 65, 84
11, 94920, Note_on_c, 5, 69, 84
11, 94937, Control_c, 5, 11, 126
11, 95031, Note_on_c, 5, 65, 0
11, 95031, Note_on_c, 5, 69, 0
11, 95038, Control_c, 5, 11, 127
11, 95040, Note_on_c, 5, 69, 84
11, 95040, Note_on_c, 5, 57, 84
11, 95271, Note_on_c, 5, 69, 0
11, 95271, Note_on_c, 5, 57, 0
11, 95280, Note_on_c, 5, 57, 84
11, 95280, Note_on_c, 5, 69, 84
11, 95369, Note_on_c, 5, 57, 0
11, 95369, Note_on_c, 5, 69, 0
11, 95400, Note_on_c, 5, 57, 84
11, 95400, Note_on_c, 5, 69, 84
11, 95489, Note_on_c, 5, 57, 0
11, 95489, Note_on_c, 5, 69, 0
11, 95520, Note_on_c, 5, 53, 84
11, 95520, Note_on_c, 5, 65, 84
11, 95609, Note_on_c, 5, 53, 0
11, 95609, Note_on_c, 5, 65, 0
11, 95640, Note_on_c, 5, 60, 84
11, 95640, Note_on_c, 5, 72, 84
11, 95729, Note_on_c, 5, 60, 0
11, 95729, Note_on_c, 5, 72, 0
11, 96000, Note_on_c, 5, 69, 84
11, 96000, Note_on_c, 5, 57, 84
11, 96089, Note_on_c, 5, 69, 0
11, 96089, Note_on_c, 5, 57, 0
11, 96120, Note_on_c, 5, 57, 84
11, 96120, Note_on_c, 5, 69, 84
11, 96209, Note_on_c, 5, 57, 0
11, 96209, Note_on_c, 5, 69, 0
11, 96240, Note_on_c, 5, 48, 84
11, 96240, Note_on_c, 5, 60, 84
11, 96329, Note_on_c, 5, 48, 0
11, 96329, Note_on_c, 5, 60, 0
11, 96360, Note_on_c, 5, 65, 84
11, 96360, Note_on_c, 5, 53, 84
11, 96449, Note_on_c, 5, 65, 0
11, 96449, Note_on_c, 5, 53, 0
11, 96720, Note_on_c, 5, 69, 84
11, 96720, Note_on_c, 5, 57, 84
11, 96809, Note_on_c, 5, 69, 0
11, 96809, Note_on_c, 5, 57, 0
11, 96840, Note_on_c, 5, 57, 84
11, 96840, Note_on_c, 5, 69, 84
11, 96929, Note_on_c, 5, 57, 0
11, 96929, Note_on_c, 5, 69, 0
11, 96960, Note_on_c, 5, 53, 84
11, 96960, Note_on_c, 5, 65, 84
11, 97049, Note_on_c, 5, 53, 0
11, 97049, Note_on_c, 5, 65, 0
11, 97080, Note_on_c, 5, 60, 84
11, 97080, Note_on_c, 5, 72, 84
11, 97169, Note_on_c, 5, 60, 0
11, 97169, Note_on_c, 5, 72, 0
11, 97440, Note_on_c, 5, 65, 84
11, 97440, Note_on_c, 5, 70, 84
11, 97529, Note_on_c, 5, 65, 0
11, 97529, Note_on_c, 5, 70, 0
11, 97560, Note_on_c, 5, 70, 84
11, 97560, Note_on_c, 5, 65, 84
11, 97649, Note_on_c, 5, 70, 0
11, 97649, Note_on_c, 5, 65, 0
11, 97680, Note_on_c, 5, 53, 84
11, 97680, Note_on_c, 5, 65, 84
11, 97769, Note_on_c, 5, 53, 0
11, 97769, Note_on_c, 5, 65, 0
11, 97800, Note_on_c, 5, 67, 84
11, 97800, Note_on_c, 5, 48, 84
11, 97889, Note_on_c, 5, 67, 0
11, 97889, Note_on_c, 5, 48, 0
11, 98160, Note_on_c, 5, 70, 84
11, 98160, Note_on_c, 5, 67, 84
11, 98249, Note_on_c, 5, 70, 0
11, 98249, Note_on_c, 5, 67, 0
11, 98280, Note_on_c, 5, 67, 84
11, 98280, Note_on_c, 5, 70, 84
11, 98369, Note_on_c, 5, 67, 0
11, 98369, Note_on_c, 5, 70, 0
11, 98400, Note_on_c, 5, 67, 84
11, 98400, Note_on_c, 5, 60, 84
11, 98489, Note_on_c, 5, 67, 0
11, 98489, Note_on_c, 5, 60, 0
11, 98520, Note_on_c, 5, 60, 84
11, 98520, Note_on_c, 5, 72, 84
11, 98609, Note_on_c, 5, 60, 0
11, 98609, Note_on_c, 5, 72, 0
11, 98880, Note_on_c, 5, 69, 84
11, 98880, Note_on_c, 5, 65, 84
11, 98969, Note_on_c, 5, 69, 0
11, 98969, Note_on_c, 5, 65, 0
11, 99000, Note_on_c, 5, 69, 84
11, 99000, Note_on_c, 5, 65, 84
11, 99089, Note_on_c, 5, 69, 0
11, 99089, Note_on_c, 5, 65, 0
11, 99120, Note_on_c, 5, 65, 84
11, 99120, Note_on_c, 5, 57, 84
11, 99209, Note_on_c, 5, 65, 0
11, 99209, Note_on_c, 5, 57, 0
11, 99240, Note_on_c, 5, 69, 84
11, 99240, Note_on_c, 5, 65, 84
11, 99329, Note_on_c, 5, 69, 0
11, 99329, Note_on_c, 5, 65, 0
11, 99600, Note_on_c, 5, 65, 84
11, 99600, Note_on_c, 5, 67, 84
11, 99689, Note_on_c, 5, 65, 0
11, 99689, Note_on_c, 5, 67, 0
11, 99720, Note_on_c, 5, 60, 84
11, 99720, Note_on_c, 5, 67, 84
11, 99809, Note_on_c, 5, 60, 0
11, 99809, Note_on_c, 5, 67, 0
11, 99840, Note_on_c, 5, 60, 84
11, 99929, Note_on_c, 5, 60, 0
11, 99960, Note_on_c, 5, 67, 84
11, 99960, Note_on_c, 5, 60, 84
11, 100049, Note_on_c, 5, 67, 0
11, 100049, Note_on_c, 5, 60, 0
11, 100080, Note_on_c, 5, 65, 84
11, 100080, Note_on_c, 5, 57, 84
11, 100199, Note_on_c, 5, 65, 0
11, 100199, Note_on_c, 5, 57, 0
11, 101400, Note_on_c, 5, 60, 84
11, 101400, Note_on_c, 5, 48, 84
11, 101511, Note_on_c, 5, 60, 0
11, 101511, Note_on_c, 5, 48, 0
11, 101520, Note_on_c, 5, 60, 84
11, 101520, Note_on_c, 5, 48, 84
11, 102591, Note_on_c, 5, 60, 0
11, 102591, Note_on_c, 5, 48, 0
11, 102600, Note_on_c, 5, 48, 84
11, 102600, Note_on_c, 5, 60, 84
11, 102831, Note_on_c, 5, 48, 0
11, 102831, Note_on_c, 5, 60, 0
11, 102840, Note_on_c, 5, 60, 84
11, 102840, Note_on_c, 5, 48, 84
11, 102959, Note_on_c, 5, 60, 0
11, 102959, Note_on_c, 5, 48, 0
11, 104760, Note_on_c, 5, 67, 92
11, 104820, Control_c, 5, 11, 112
11, 104991, Note_on_c, 5, 67, 0
11, 105000, Note_on_c, 5, 67, 92
11, 105111, Note_on_c, 5, 67, 0
11, 105118, Control_c, 5, 11, 127
11, 105120, Note_on_c, 5, 67, 92
11, 105180, Control_c, 5, 11, 112
11, 105471, Note_on_c, 5, 67, 0
11, 105478, Control_c, 5, 11, 127
11, 105480, Note_on_c, 5, 67, 92
11, 105540, Control_c, 5, 11, 112
11, 105711, Note_on_c, 5, 67, 0
11, 105720, Note_on_c, 5, 67, 92
11, 105831, Note_on_c, 5, 67, 0
11, 105838, Control_c, 5, 11, 127
11, 105840, Note_on_c, 5, 67, 88
11, 106191, Note_on_c, 5, 67, 0
11, 106200, Note_on_c, 5, 60, 88
11, 106200, Note_on_c, 5, 48, 88
11, 106551, Note_on_c, 5, 60, 0
11, 106551, Note_on_c, 5, 48, 0
11, 106560, Note_on_c, 5, 48, 88
11, 106560, Note_on_c, 5, 60, 88
11, 106911, Note_on_c, 5, 48, 0
11, 106911, Note_on_c, 5, 60, 0
11, 106920, Note_on_c, 5, 53, 88
11, 106920, Note_on_c, 5, 65, 88
11, 107151, Note_on_c, 5, 53, 0
11, 107151, Note_on_c, 5, 65, 0
11, 107160, Note_on_c, 5, 65, 88
11, 107160, Note_on_c, 5, 53, 88
11, 107271, Note_on_c, 5, 65, 0
11, 107271, Note_on_c, 5, 53, 0
11, 107280, Note_on_c, 5, 48, 96
11, 107280, Note_on_c, 5, 60, 96
11, 107340, Control_c, 5, 11, 112
11, 107871, Note_on_c, 5, 48, 0
11, 107871, Note_on_c, 5, 60, 0
11, 107880, Note_on_c, 5, 48, 96
11, 107880, Note_on_c, 5, 60, 96
11, 107935, Note_on_c, 5, 48, 0
11, 107935, Note_on_c, 5, 60, 0
11, 107940, Note_on_c, 5, 48, 96
11, 107940, Note_on_c, 5, 60, 96
11, 107995, Note_on_c, 5, 48, 0
11, 107995, Note_on_c, 5, 60, 0
11, 107998, Control_c, 5, 11, 127
11, 108000, Note_on_c, 5, 60, 88
11, 108000, Note_on_c, 5, 48, 88
11, 108231, Note_on_c, 5, 60, 0
11, 108231, Note_on_c, 5, 48, 0
11, 108240, Note_on_c, 5, 60, 88
11, 108240, Note_on_c, 5, 48, 88
11, 108351, Note_on_c, 5, 60, 0
11, 108351, Note_on_c, 5, 48, 0
11, 108360, Note_on_c, 5, 60, 88
11, 108360, Note_on_c, 5, 48, 88
11, 108591, Note_on_c, 5, 60, 0
11, 108591, Note_on_c, 5, 48, 0
11, 108600, Note_on_c, 5, 60, 88
11, 108600, Note_on_c, 5, 48, 88
11, 108711, Note_on_c, 5, 60, 0
11, 108711, Note_on_c, 5, 48, 0
11, 108720, Note_on_c, 5, 60, 88
11, 108720, Note_on_c, 5, 48, 88
11, 109311, Note_on_c, 5, 60, 0
11, 109311, Note_on_c, 5, 48, 0
11, 109320, Note_on_c, 5, 48, 88
11, 109320, Note_on_c, 5, 60, 88
11, 109375, Note_on_c, 5, 48, 0
11, 109375, Note_on_c, 5, 60, 0
11, 109380, Note_on_c, 5, 48, 88
11, 109380, Note_on_c, 5, 60, 88
11, 109435, Note_on_c, 5, 48, 0
11, 109435, Note_on_c, 5, 60, 0
11, 109440, Note_on_c, 5, 48, 88
11, 109440, Note_on_c, 5, 60, 88
11, 109671, Note_on_c, 5, 48, 0
11, 109671, Note_on_c, 5, 60, 0
11, 109680, Note_on_c, 5, 48, 88
11, 109680, Note_on_c, 5, 60, 88
11, 109791, Note_on_c, 5, 48, 0
11, 109791, Note_on_c, 5, 60, 0
11, 109800, Note_on_c, 5, 60, 88
11, 109800, Note_on_c, 5, 48, 88
11, 110031, Note_on_c, 5, 60, 0
11, 110031, Note_on_c, 5, 48, 0
11, 110040, Note_on_c, 5, 60, 88
11, 110040, Note_on_c, 5, 48, 88
11, 110151, Note_on_c, 5, 60, 0
11, 110151, Note_on_c, 5, 48, 0
11, 110160, Note_on_c, 5, 48, 88
11, 110160, Note_on_c, 5, 60, 88
11, 110391, Note_on_c, 5, 48, 0
11, 110391, Note_on_c, 5, 60, 0
11, 110400, Note_on_c, 5, 48, 88
11, 110400, Note_on_c, 5, 60, 88
11, 110511, Note_on_c, 5, 48, 0
11, 110511, Note_on_c, 5, 60, 0
11, 110520, Note_on_c, 5, 60, 88
11, 110520, Note_on_c, 5, 48, 88
11, 110751, Note_on_c, 5, 60, 0
11, 110751, Note_on_c, 5, 48, 0
11, 110760, Note_on_c, 5, 60, 88
11, 110760, Note_on_c, 5, 48, 88
11, 110815, Note_on_c, 5, 60, 0
11, 110815, Note_on_c, 5, 48, 0
11, 110820, Note_on_c, 5, 48, 88
11, 110820, Note_on_c, 5, 60, 88
11, 110875, Note_on_c, 5, 48, 0
11, 110875, Note_on_c, 5, 60, 0
11, 110880, Note_on_c, 5, 48, 88
11, 110880, Note_on_c, 5, 60, 88
11, 111111, Note_on_c, 5, 48, 0
11, 111111, Note_on_c, 5, 60, 0
11, 111120, Note_on_c, 5, 60, 88
11, 111120, Note_on_c, 5, 48, 88
11, 111231, Note_on_c, 5, 60, 0
11, 111231, Note_on_c, 5, 48, 0
11, 111240, Note_on_c, 5, 60, 88
11, 111240, Note_on_c, 5, 48, 88
11, 111471, Note_on_c, 5, 60, 0
11, 111471, Note_on_c, 5, 48, 0
11, 111480, Note_on_c, 5, 48, 88
11, 111480, Note_on_c, 5, 60, 88
11, 111591, Note_on_c, 5, 48, 0
11, 111591, Note_on_c, 5, 60, 0
11, 111600, Note_on_c, 5, 48, 88
11, 111600, Note_on_c, 5, 60, 88
11, 111831, Note_on_c, 5, 48, 0
11, 111831, Note_on_c, 5, 60, 0
11, 111840, Note_on_c, 5, 48, 88
11, 111840, Note_on_c, 5, 60, 88
11, 111951, Note_on_c, 5, 48, 0
11, 111951, Note_on_c, 5, 60, 0
11, 111960, Note_on_c, 5, 48, 88
11, 111960, Note_on_c, 5, 60, 88
11, 112191, Note_on_c, 5, 48, 0
11, 112191, Note_on_c, 5, 60, 0
11, 112200, Note_on_c, 5, 60, 88
11, 112200, Note_on_c, 5, 48, 88
11, 112255, Note_on_c, 5, 60, 0
11, 112255, Note_on_c, 5, 48, 0
11, 112260, Note_on_c, 5, 48, 88
11, 112260, Note_on_c, 5, 60, 88
11, 112315, Note_on_c, 5, 48, 0
11, 112315, Note_on_c, 5, 60, 0
11, 112320, Note_on_c, 5, 48, 88
11, 112320, Note_on_c, 5, 60, 88
11, 112551, Note_on_c, 5, 48, 0
11, 112551, Note_on_c, 5, 60, 0
11, 112560, Note_on_c, 5, 60, 88
11, 112560, Note_on_c, 5, 48, 88
11, 112671, Note_on_c, 5, 60, 0
11, 112671, Note_on_c, 5, 48, 0
11, 112680, Note_on_c, 5, 60, 88
11, 112680, Note_on_c, 5, 48, 88
11, 112911, Note_on_c, 5, 60, 0
11, 112911, Note_on_c, 5, 48, 0
11, 112920, Note_on_c, 5, 60, 88
11, 112920, Note_on_c, 5, 48, 88
11, 113031, Note_on_c, 5, 60, 0
11, 113031, Note_on_c, 5, 48, 0
11, 113040, Note_on_c, 5, 53, 88
11, 113040, Note_on_c, 5, 65, 88
11, 113279, Note_on_c, 5, 53, 0
11, 113279, Note_on_c, 5, 65, 0
11, 113970, Control_c, 5, 11, 117
11, 114000, Note_on_c, 5, 60, 76
11, 114000, Note_on_c, 5, 53, 76
11, 114000, Control_c, 5, 11, 119
11, 114030, Control_c, 5, 11, 121
11, 114060, Control_c, 5, 11, 123
11, 114090, Control_c, 5, 11, 125
11, 114111, Note_on_c, 5, 60, 0
11, 114111, Note_on_c, 5, 53, 0
11, 114118, Control_c, 5, 11, 127
11, 114120, Note_on_c, 5, 48, 76
11, 114120, Note_on_c, 5, 60, 76
11, 114351, Note_on_c, 5, 48, 0
11, 114351, Note_on_c, 5, 60, 0
11, 114360, Note_on_c, 5, 48, 76
11, 114360, Note_on_c, 5, 60, 76
11, 114471, Note_on_c, 5, 48, 0
11, 114471, Note_on_c, 5, 60, 0
11, 114480, Note_on_c, 5, 60, 76
11, 114480, Note_on_c, 5, 53, 76
11, 114711, Note_on_c, 5, 60, 0
11, 114711, Note_on_c, 5, 53, 0
11, 114718, Control_c, 5, 11, 80
11, 114720, Note_on_c, 5, 53, 76
11, 114720, Note_on_c, 5, 65, 76
11, 114720, Control_c, 5, 11, 80
11, 114743, Control_c, 5, 11, 81
11, 114767, Control_c, 5, 11, 83
11, 114790, Control_c, 5, 11, 84
11, 114813, Control_c, 5, 11, 85
11, 114837, Control_c, 5, 11, 87
11, 114860, Control_c, 5, 11, 88
11, 114883, Control_c, 5, 11, 89
11, 114907, Control_c, 5, 11, 90
11, 114930, Control_c, 5, 11, 92
11, 114953, Control_c, 5, 11, 93
11, 114977, Control_c, 5, 11, 94
11, 115000, Control_c, 5, 11, 96
11, 115023, Control_c, 5, 11, 97
11, 115047, Control_c, 5, 11, 98
11, 115070, Control_c, 5, 11, 100
11, 115093, Control_c, 5, 11, 101
11, 115117, Control_c, 5, 11, 102
11, 115140, Control_c, 5, 11, 104
11, 115163, Control_c, 5, 11, 105
11, 115187, Control_c, 5, 11, 106
11, 115210, Control_c, 5, 11, 107
11, 115233, Control_c, 5, 11, 109
11, 115257, Control_c, 5, 11, 110
11, 115280, Control_c, 5, 11, 111
11, 115303, Control_c, 5, 11, 113
11, 115311, Note_on_c, 5, 53, 0
11, 115311, Note_on_c, 5, 65, 0
11, 115320, Note_on_c, 5, 48, 76
11, 115320, Note_on_c, 5, 60, 76
11, 115327, Control_c, 5, 11, 114
11, 115350, Control_c, 5, 11, 115
11, 115373, Control_c, 5, 11, 117
11, 115397, Control_c, 5, 11, 118
11, 115420, Control_c, 5, 11, 119
11, 115431, Note_on_c, 5, 48, 0
11, 115431, Note_on_c, 5, 60, 0
11, 115440, Note_on_c, 5, 48, 76
11, 115440, Note_on_c, 5, 60, 76
11, 115443, Control_c, 5, 11, 120
11, 115467, Control_c, 5, 11, 122
11, 115490, Control_c, 5, 11, 123
11, 115513, Control_c, 5, 11, 124
11, 115537, Control_c, 5, 11, 127
11, 115551, Note_on_c, 5, 48, 0
11, 115551, Note_on_c, 5, 60, 0
11, 115560, Note_on_c, 5, 60, 76
11, 115560, Note_on_c, 5, 48, 76
11, 115791, Note_on_c, 5, 60, 0
11, 115791, Note_on_c, 5, 48, 0
11, 115800, Note_on_c, 5, 48, 76
11, 115800, Note_on_c, 5, 60, 76
11, 115889, Note_on_c, 5, 48, 0
11, 115889, Note_on_c, 5, 60, 0
11, 115920, Note_on_c, 5, 53, 84
11, 115920, Note_on_c, 5, 65, 84
11, 116271, Note_on_c, 5, 53, 0
11, 116271, Note_on_c, 5, 65, 0
11, 116280, Note_on_c, 5, 65, 84
11, 116280, Note_on_c, 5, 53, 84
11, 116399, Note_on_c, 5, 65, 0
11, 116399, Note_on_c, 5, 53, 0
11, 116520, Note_on_c, 5, 53, 84
11, 116520, Note_on_c, 5, 65, 84
11, 116609, Note_on_c, 5, 53, 0
11, 116609, Note_on_c, 5, 65, 0
11, 116640, Note_on_c, 5, 67, 84
11, 116991, Note_on_c, 5, 67, 0
11, 117000, Note_on_c, 5, 67, 84
11, 117119, Note_on_c, 5, 67, 0
11, 117240, Note_on_c, 5, 67, 84
11, 117329, Note_on_c, 5, 67, 0
11, 117360, Note_on_c, 5, 48, 84
11, 117360, Note_on_c, 5, 60, 84
11, 117479, Note_on_c, 5, 48, 0
11, 117479, Note_on_c, 5, 60, 0
11, 123720, Control_c, 5, 11, 80
11, 123840, Note_on_c, 5, 48, 76
11, 123840, Note_on_c, 5, 60, 76
11, 123877, Control_c, 5, 11, 81
11, 123913, Control_c, 5, 11, 83
11, 123950, Control_c, 5, 11, 84
11, 123987, Control_c, 5, 11, 85
11, 124023, Control_c, 5, 11, 87
11, 124060, Control_c, 5, 11, 88
11, 124079, Note_on_c, 5, 48, 0
11, 124079, Note_on_c, 5, 60, 0
11, 124097, Control_c, 5, 11, 89
11, 124133, Control_c, 5, 11, 90
11, 124170, Control_c, 5, 11, 92
11, 124200, Note_on_c, 5, 48, 76
11, 124200, Note_on_c, 5, 60, 76
11, 124207, Control_c, 5, 11, 93
11, 124243, Control_c, 5, 11, 94
11, 124280, Control_c, 5, 11, 96
11, 124317, Control_c, 5, 11, 97
11, 124353, Control_c, 5, 11, 98
11, 124390, Control_c, 5, 11, 100
11, 124427, Control_c, 5, 11, 101
11, 124439, Note_on_c, 5, 48, 0
11, 124439, Note_on_c, 5, 60, 0
11, 124463, Control_c, 5, 11, 102
11, 124500, Control_c, 5, 11, 104
11, 124537, Control_c, 5, 11, 105
11, 124560, Note_on_c, 5, 48, 76
11, 124560, Note_on_c, 5, 60, 76
11, 124573, Control_c, 5, 11, 106
11, 124610, Control_c, 5, 11, 107
11, 124647, Control_c, 5, 11, 109
11, 124683, Control_c, 5, 11, 110
11, 124720, Control_c, 5, 11, 111
11, 124757, Control_c, 5, 11, 113
11, 124793, Control_c, 5, 11, 114
11, 124799, Note_on_c, 5, 48, 0
11, 124799, Note_on_c, 5, 60, 0
11, 124830, Control_c, 5, 11, 115
11, 124867, Control_c, 5, 11, 117
11, 124903, Control_c, 5, 11, 118
11, 124920, Note_on_c, 5, 48, 76
11, 124920, Note_on_c, 5, 60, 76
11, 124940, Control_c, 5, 11, 119
11, 124977, Control_c, 5, 11, 120
11, 125013, Control_c, 5, 11, 122
11, 125039, Note_on_c, 5, 48, 0
11, 125039, Note_on_c, 5, 60, 0
11, 125050, Control_c, 5, 11, 123
11, 125087, Control_c, 5, 11, 124
11, 125123, Control_c, 5, 11, 127
11, 125160, Note_on_c, 5, 48, 76
11, 125160, Note_on_c, 5, 60, 76
11, 125871, Note_on_c, 5, 48, 0
11, 125871, Note_on_c, 5, 60, 0
11, 125880, Note_on_c, 5, 60, 76
11, 125880, Note_on_c, 5, 48, 76
11, 126231, Note_on_c, 5, 60, 0
11, 126231, Note_on_c, 5, 48, 0
11, 126240, Note_on_c, 5, 60, 76
11, 126240, Note_on_c, 5, 48, 76
11, 126591, Note_on_c, 5, 60, 0
11, 126591, Note_on_c, 5, 48, 0
11, 126600, Note_on_c, 5, 60, 76
11, 126600, Note_on_c, 5, 48, 76
11, 126711, Note_on_c, 5, 60, 0
11, 126711, Note_on_c, 5, 48, 0
11, 126720, Note_on_c, 5, 69, 84
11, 126720, Note_on_c, 5, 53, 84
11, 126839, Note_on_c, 5, 69, 0
11, 126839, Note_on_c, 5, 53, 0
11, 135480, Note_on_c, 5, 67, 80
11, 135480, Note_on_c, 5, 60, 80
11, 135591, Note_on_c, 5, 67, 0
11, 135591, Note_on_c, 5, 60, 0
11, 135600, Note_on_c, 5, 60, 80
11, 135600, Note_on_c, 5, 67, 80
11, 135711, Note_on_c, 5, 60, 0
11, 135711, Note_on_c, 5, 67, 0
11, 135720, Note_on_c, 5, 67, 81
11, 135720, Note_on_c, 5, 60, 81
11, 135831, Note_on_c, 5, 67, 0
11, 135831, Note_on_c, 5, 60, 0
11, 135840, Note_on_c, 5, 60, 82
11, 135840, Note_on_c, 5, 67, 82
11, 135951, Note_on_c, 5, 60, 0
11, 135951, Note_on_c, 5, 67, 0
11, 135960, Note_on_c, 5, 67, 83
11, 135960, Note_on_c, 5, 60, 83
11, 136071, Note_on_c, 5, 67, 0
11, 136071, Note_on_c, 5, 60, 0
11, 136080, Note_on_c, 5, 65, 84
11, 136080, Note_on_c, 5, 57, 84
11, 137391, Note_on_c, 5, 65, 0
11, 137391, Note_on_c, 5, 57, 0
11, 137400, Note_on_c, 5, 57, 84
11, 137400, Note_on_c, 5, 65, 84
11, 137511, Note_on_c, 5, 57, 0
11, 137511, Note_on_c, 5, 65, 0
11, 137520, Note_on_c, 5, 65, 84
11, 137520, Note_on_c, 5, 57, 84
11, 138831, Note_on_c, 5, 65, 0
11, 138831, Note_on_c, 5, 57, 0
11, 138840, Note_on_c, 5, 53, 84
11, 138840, Note_on_c, 5, 65, 84
11, 138951, Note_on_c, 5, 53, 0
11, 138951, Note_on_c, 5, 65, 0
11, 138960, Note_on_c, 5, 67, 84
11, 139680, Control_c, 5, 11, 127
11, 139700, Control_c, 5, 11, 125
11, 139720, Control_c, 5, 11, 123
11, 139740, Control_c, 5, 11, 120
11, 139760, Control_c, 5, 11, 118
11, 139780, Control_c, 5, 11, 116
11, 139800, Control_c, 5, 11, 114
11, 139820, Control_c, 5, 11, 112
11, 139840, Control_c, 5, 11, 109
11, 139860, Control_c, 5, 11, 107
11, 139880, Control_c, 5, 11, 105
11, 139900, Control_c, 5, 11, 103
11, 139920, Control_c, 5, 11, 101
11, 139940, Control_c, 5, 11, 98
11, 139960, Control_c, 5, 11, 96
11, 139980, Control_c, 5, 11, 94
11, 140000, Control_c, 5, 11, 92
11, 140020, Control_c, 5, 11, 90
11, 140040, Control_c, 5, 11, 88
11, 140060, Control_c, 5, 11, 85
11, 140080, Control_c, 5, 11, 83
11, 140100, Control_c, 5, 11, 81
11, 140120, Control_c, 5, 11, 79
11, 140140, Control_c, 5, 11, 77
11, 140160, Control_c, 5, 11, 74
11, 140180, Control_c, 5, 11, 72
11, 140200, Control_c, 5, 11, 70
11, 140220, Control_c, 5, 11, 68
11, 140240, Control_c, 5, 11, 66
11, 140260, Control_c, 5, 11, 63
11, 140271, Note_on_c, 5, 67, 0
11, 140280, Control_c, 5, 11, 61
11, 140280, Note_on_c, 5, 67, 84
11, 140300, Control_c, 5, 11, 59
11, 140320, Control_c, 5, 11, 57
11, 140340, Control_c, 5, 11, 55
11, 140360, Control_c, 5, 11, 52
11, 140380, Control_c, 5, 11, 48
11, 140399, Note_on_c, 5, 67, 0
11, 143160, Control_c, 5, 11, 80
11, 143280, Note_on_c, 5, 48, 76
11, 143691, Control_c, 5, 11, 81
11, 143742, Control_c, 5, 11, 82
11, 143793, Control_c, 5, 11, 83
11, 143844, Control_c, 5, 11, 84
11, 143895, Control_c, 5, 11, 85
11, 143946, Control_c, 5, 11, 86
11, 143997, Control_c, 5, 11, 87
11, 144049, Control_c, 5, 11, 88
11, 144100, Control_c, 5, 11, 89
11, 144151, Control_c, 5, 11, 90
11, 144202, Control_c, 5, 11, 91
11, 144253, Control_c, 5, 11, 92
11, 144304, Control_c, 5, 11, 93
11, 144355, Control_c, 5, 11, 94
11, 144406, Control_c, 5, 11, 95
11, 144457, Control_c, 5, 11, 96
11, 144508, Control_c, 5, 11, 97
11, 144559, Control_c, 5, 11, 98
11, 144591, Note_on_c, 5, 48, 0
11, 144600, Note_on_c, 5, 60, 76
11, 144600, Note_on_c, 5, 48, 76
11, 144610, Control_c, 5, 11, 99
11, 144655, Note_on_c, 5, 60, 0
11, 144655, Note_on_c, 5, 48, 0
11, 144660, Note_on_c, 5, 60, 76
11, 144660, Note_on_c, 5, 48, 76
11, 144661, Control_c, 5, 11, 100
11, 144712, Control_c, 5, 11, 101
11, 144715, Note_on_c, 5, 60, 0
11, 144715, Note_on_c, 5, 48, 0
11, 144720, Note_on_c, 5, 60, 76
11, 144720, Note_on_c, 5, 48, 76
11, 144763, Control_c, 5, 11, 102
11, 144814, Control_c, 5, 11, 103
11, 144839, Note_on_c, 5, 60, 0
11, 144839, Note_on_c, 5, 48, 0
11, 144866, Control_c, 5, 11, 104
11, 144917, Control_c, 5, 11, 105
11, 144960, Note_on_c, 5, 48, 76
11, 144960, Note_on_c, 5, 60, 76
11, 144968, Control_c, 5, 11, 106
11, 145015, Note_on_c, 5, 48, 0
11, 145015, Note_on_c, 5, 60, 0
11, 145019, Control_c, 5, 11, 107
11, 145020, Note_on_c, 5, 48, 76
11, 145020, Note_on_c, 5, 60, 76
11, 145070, Control_c, 5, 11, 108
11, 145075, Note_on_c, 5, 48, 0
11, 145075, Note_on_c, 5, 60, 0
11, 145080, Note_on_c, 5, 48, 76
11, 145080, Note_on_c, 5, 60, 76
11, 145121, Control_c, 5, 11, 109
11, 145172, Control_c, 5, 11, 110
11, 145199, Note_on_c, 5, 48, 0
11, 145199, Note_on_c, 5, 60, 0
11, 145223, Control_c, 5, 11, 111
11, 145274, Control_c, 5, 11, 112
11, 145320, Note_on_c, 5, 48, 76
11, 145320, Note_on_c, 5, 60, 76
11, 145325, Control_c, 5, 11, 113
11, 145375, Note_on_c, 5, 48, 0
11, 145375, Note_on_c, 5, 60, 0
11, 145376, Control_c, 5, 11, 114
11, 145380, Note_on_c, 5, 48, 76
11, 145380, Note_on_c, 5, 60, 76
11, 145427, Control_c, 5, 11, 115
11, 145435, Note_on_c, 5, 48, 0
11, 145435, Note_on_c, 5, 60, 0
11, 145440, Note_on_c, 5, 48, 76
11, 145440, Note_on_c, 5, 60, 76
11, 145478, Control_c, 5, 11, 116
11, 145529, Control_c, 5, 11, 117
11, 145559, Note_on_c, 5, 48, 0
11, 145559, Note_on_c, 5, 60, 0
11, 145580, Control_c, 5, 11, 118
11, 145631, Control_c, 5, 11, 119
11, 145680, Note_on_c, 5, 60, 76
11, 145680, Note_on_c, 5, 48, 76
11, 145683, Control_c, 5, 11, 120
11, 145734, Control_c, 5, 11, 121
11, 145735, Note_on_c, 5, 60, 0
11, 145735, Note_on_c, 5, 48, 0
11, 145740, Note_on_c, 5, 48, 76
11, 145740, Note_on_c, 5, 60, 76
11, 145785, Control_c, 5, 11, 122
11, 145795, Note_on_c, 5, 48, 0
11, 145795, Note_on_c, 5, 60, 0
11, 145800, Note_on_c, 5, 60, 76
11, 145800, Note_on_c, 5, 48, 76
11, 145836, Control_c, 5, 11, 123
11, 145887, Control_c, 5, 11, 124
11, 145919, Note_on_c, 5, 60, 0
11, 145919, Note_on_c, 5, 48, 0
11, 145938, Control_c, 5, 11, 125
11, 145989, Control_c, 5, 11, 127
11, 146040, Note_on_c, 5, 60, 76
11, 146040, Note_on_c, 5, 48, 76
11, 146751, Note_on_c, 5, 60, 0
11, 146751, Note_on_c, 5, 48, 0
11, 146760, Note_on_c, 5, 48, 76
11, 146760, Note_on_c, 5, 60, 76
11, 147111, Note_on_c, 5, 48, 0
11, 147111, Note_on_c, 5, 60, 0
11, 147120, Note_on_c, 5, 60, 76
11, 147120, Note_on_c, 5, 48, 76
11, 147471, Note_on_c, 5, 60, 0
11, 147471, Note_on_c, 5, 48, 0
11, 147480, Note_on_c, 5, 60, 76
11, 147480, Note_on_c, 5, 48, 76
11, 147591, Note_on_c, 5, 60, 0
11, 147591, Note_on_c, 5, 48, 0
11, 147600, Note_on_c, 5, 57, 84
11, 147600, Note_on_c, 5, 53, 84
11, 147839, Note_on_c, 5, 57, 0
11, 147839, Note_on_c, 5, 53, 0
11, 151080, Control_c, 5, 11, 64
11, 151200, Note_on_c, 5, 69, 84
11, 151291, Control_c, 5, 11, 65
11, 151383, Control_c, 5, 11, 66
11, 151474, Control_c, 5, 11, 67
11, 151559, Note_on_c, 5, 69, 0
11, 151560, Note_on_c, 5, 65, 84
11, 151566, Control_c, 5, 11, 68
11, 151657, Control_c, 5, 11, 69
11, 151749, Control_c, 5, 11, 70
11, 151799, Note_on_c, 5, 65, 0
11, 151800, Note_on_c, 5, 72, 84
11, 151840, Control_c, 5, 11, 71
11, 151919, Note_on_c, 5, 72, 0
11, 151920, Note_on_c, 5, 69, 84
11, 151931, Control_c, 5, 11, 72
11, 152023, Control_c, 5, 11, 73
11, 152114, Control_c, 5, 11, 74
11, 152159, Note_on_c, 5, 69, 0
11, 152206, Control_c, 5, 11, 75
11, 153943, Control_c, 5, 11, 94
11, 153960, Note_on_c, 5, 60, 84
11, 154034, Control_c, 5, 11, 95
11, 154079, Note_on_c, 5, 60, 0
11, 154080, Note_on_c, 5, 65, 84
11, 154126, Control_c, 5, 11, 96
11, 154217, Control_c, 5, 11, 97
11, 154309, Control_c, 5, 11, 98
11, 154319, Note_on_c, 5, 65, 0
11, 154320, Note_on_c, 5, 69, 84
11, 154400, Control_c, 5, 11, 99
11, 154439, Note_on_c, 5, 69, 0
11, 154440, Note_on_c, 5, 72, 84
11, 154491, Control_c, 5, 11, 100
11, 154559, Note_on_c, 5, 72, 0
11, 154583, Control_c, 5, 11, 101
11, 154674, Control_c, 5, 11, 102
11, 156411, Control_c, 5, 11, 121
11, 156480, Note_on_c, 5, 48, 84
11, 156480, Note_on_c, 5, 60, 84
11, 156503, Control_c, 5, 11, 122
11, 156591, Note_on_c, 5, 48, 0
11, 156591, Note_on_c, 5, 60, 0
11, 156594, Control_c, 5, 11, 123
11, 156600, Note_on_c, 5, 60, 84
11, 156600, Note_on_c, 5, 67, 84
11, 156686, Control_c, 5, 11, 124
11, 156777, Control_c, 5, 11, 125
11, 156831, Note_on_c, 5, 60, 0
11, 156831, Note_on_c, 5, 67, 0
11, 156840, Note_on_c, 5, 67, 84
11, 156840, Note_on_c, 5, 60, 84
11, 156869, Control_c, 5, 11, 126
11, 156951, Note_on_c, 5, 67, 0
11, 156951, Note_on_c, 5, 60, 0
11, 156958, Control_c, 5, 11, 127
11, 156960, Note_on_c, 5, 57, 84
11, 156960, Note_on_c, 5, 65, 84
11, 158271, Note_on_c, 5, 57, 0
11, 158271, Note_on_c, 5, 65, 0
11, 158280, Note_on_c, 5, 65, 84
11, 158280, Note_on_c, 5, 57, 84
11, 158391, Note_on_c, 5, 65, 0
11, 158391, Note_on_c, 5, 57, 0
11, 158400, Note_on_c, 5, 65, 84
11, 158400, Note_on_c, 5, 53, 84
11, 159711, Note_on_c, 5, 65, 0
11, 159711, Note_on_c, 5, 53, 0
11, 159720, Note_on_c, 5, 65, 84
11, 159720, Note_on_c, 5, 69, 84
11, 159831, Note_on_c, 5, 65, 0
11, 159831, Note_on_c, 5, 69, 0
11, 159840, Note_on_c, 5, 65, 84
11, 159840, Note_on_c, 5, 67, 84
11, 161151, Note_on_c, 5, 65, 0
11, 161151, Note_on_c, 5, 67, 0
11, 161160, Note_on_c, 5, 65, 84
11, 161160, Note_on_c, 5, 67, 84
11, 161271, Note_on_c, 5, 65, 0
11, 161271, Note_on_c, 5, 67, 0
11, 161280, Note_on_c, 5, 67, 84
11, 161280, Note_on_c, 5, 60, 84
11, 162591, Note_on_c, 5, 67, 0
11, 162591, Note_on_c, 5, 60, 0
11, 162600, Note_on_c, 5, 67, 84
11, 162600, Note_on_c, 5, 60, 84
11, 162689, Note_on_c, 5, 67, 0
11, 162689, Note_on_c, 5, 60, 0
11, 162720, Note_on_c, 5, 57, 84
11, 162720, Note_on_c, 5, 69, 84
11, 163431, Note_on_c, 5, 57, 0
11, 163431, Note_on_c, 5, 69, 0
11, 163440, Note_on_c, 5, 69, 84
11, 163440, Note_on_c, 5, 57, 84
11, 164151, Note_on_c, 5, 69, 0
11, 164151, Note_on_c, 5, 57, 0
11, 164160, Note_on_c, 5, 53, 84
11, 164160, Note_on_c, 5, 65, 84
11, 164511, Note_on_c, 5, 53, 0
11, 164511, Note_on_c, 5, 65, 0
11, 164520, Note_on_c, 5, 65, 84
11, 164520, Note_on_c, 5, 53, 84
11, 164871, Note_on_c, 5, 65, 0
11, 164871, Note_on_c, 5, 53, 0
11, 164880, Note_on_c, 5, 65, 84
11, 164880, Note_on_c, 5, 53, 84
11, 165231, Note_on_c, 5, 65, 0
11, 165231, Note_on_c, 5, 53, 0
11, 165240, Note_on_c, 5, 65, 84
11, 165240, Note_on_c, 5, 53, 84
11, 165591, Note_on_c, 5, 65, 0
11, 165591, Note_on_c, 5, 53, 0
11, 165600, Note_on_c, 5, 60, 84
11, 165600, Note_on_c, 5, 48, 84
11, 165600, Control_c, 5, 11, 127
11, 165630, Control_c, 5, 11, 126
11, 165660, Control_c, 5, 11, 124
11, 165690, Control_c, 5, 11, 123
11, 165720, Control_c, 5, 11, 122
11, 165750, Control_c, 5, 11, 120
11, 165780, Control_c, 5, 11, 119
11, 165810, Control_c, 5, 11, 118
11, 165840, Control_c, 5, 11, 117
11, 165870, Control_c, 5, 11, 115
11, 165900, Control_c, 5, 11, 114
11, 165930, Control_c, 5, 11, 113
11, 165951, Note_on_c, 5, 60, 0
11, 165951, Note_on_c, 5, 48, 0
11, 165960, Note_on_c, 5, 48, 84
11, 165960, Control_c, 5, 11, 111
11, 165960, Note_on_c, 5, 60, 84
11, 165990, Control_c, 5, 11, 110
11, 166020, Control_c, 5, 11, 109
11, 166050, Control_c, 5, 11, 107
11, 166080, Control_c, 5, 11, 106
11, 166110, Control_c, 5, 11, 105
11, 166140, Control_c, 5, 11, 103
11, 166170, Control_c, 5, 11, 102
11, 166200, Control_c, 5, 11, 101
11, 166230, Control_c, 5, 11, 99
11, 166260, Control_c, 5, 11, 98
11, 166290, Control_c, 5, 11, 97
11, 166311, Note_on_c, 5, 48, 0
11, 166311, Note_on_c, 5, 60, 0
11, 166320, Control_c, 5, 11, 96
11, 166320, Note_on_c, 5, 48, 84
11, 166320, Note_on_c, 5, 60, 84
11, 166350, Control_c, 5, 11, 94
11, 166380, Control_c, 5, 11, 93
11, 166410, Control_c, 5, 11, 92
11, 166440, Control_c, 5, 11, 90
11, 166470, Control_c, 5, 11, 89
11, 166500, Control_c, 5, 11, 88
11, 166530, Control_c, 5, 11, 86
11, 166560, Control_c, 5, 11, 85
11, 166590, Control_c, 5, 11, 84
11, 166620, Control_c, 5, 11, 82
11, 166650, Control_c, 5, 11, 81
11, 166671, Note_on_c, 5, 48, 0
11, 166671, Note_on_c, 5, 60, 0
11, 166680, Note_on_c, 5, 48, 84
11, 166680, Note_on_c, 5, 60, 84
11, 166680, Control_c, 5, 11, 80
11, 166710, Control_c, 5, 11, 78
11, 166740, Control_c, 5, 11, 77
11, 166770, Control_c, 5, 11, 76
11, 166800, Control_c, 5, 11, 75
11, 166830, Control_c, 5, 11, 73
11, 166860, Control_c, 5, 11, 72
11, 166890, Control_c, 5, 11, 71
11, 166920, Control_c, 5, 11, 69
11, 166950, Control_c, 5, 11, 68
11, 166980, Control_c, 5, 11, 67
11, 167010, Control_c, 5, 11, 64
11, 167031, Note_on_c, 5, 48, 0
11, 167031, Note_on_c, 5, 60, 0
11, 167040, Note_on_c, 5, 60, 84
11, 167040, Note_on_c, 5, 48, 84
11, 167400, Control_c, 5, 11, 56
11, 168479, Note_on_c, 5, 60, 0
11, 168479, Note_on_c, 5, 48, 0
11, 168480, Note_on_c, 5, 60, 84
11, 168480, Note_on_c, 5, 48, 84
11, 169911, Note_on_c, 5, 60, 0
11, 169911, Note_on_c, 5, 48, 0
11, 169918, Control_c, 5, 11, 64
11, 169920, Note_on_c, 5, 53, 76
11, 170039, Note_on_c, 5, 53, 0
11, 175560, Control_c, 5, 11, 127
11, 175680, Note_on_c, 5, 65, 76
11, 175680, Note_on_c, 5, 53, 76
11, 176031, Note_on_c, 5, 65, 0
11, 176031, Note_on_c, 5, 53, 0
11, 176040, Note_on_c, 5, 65, 76
11, 176040, Note_on_c, 5, 53, 76
11, 176129, Note_on_c, 5, 65, 0
11, 176129, Note_on_c, 5, 53, 0
11, 176280, Note_on_c, 5, 65, 76
11, 176280, Note_on_c, 5, 53, 76
11, 176369, Note_on_c, 5, 65, 0
11, 176369, Note_on_c, 5, 53, 0
11, 176400, Note_on_c, 5, 53, 76
11, 176400, Note_on_c, 5, 65, 76
11, 176991, Note_on_c, 5, 53, 0
11, 176991, Note_on_c, 5, 65, 0
11, 177000, Note_on_c, 5, 65, 48
11, 177000, Note_on_c, 5, 67, 48
11, 177111, Note_on_c, 5, 65, 0
11, 177111, Note_on_c, 5, 67, 0
11, 177120, Note_on_c, 5, 67, 48
11, 177120, Note_on_c, 5, 60, 48
11, 177831, Note_on_c, 5, 67, 0
11, 177831, Note_on_c, 5, 60, 0
11, 177840, Note_on_c, 5, 69, 48
11, 177840, Note_on_c, 5, 65, 48
11, 178079, Note_on_c, 5, 69, 0
11, 178079, Note_on_c, 5, 65, 0
11, 179880, Note_on_c, 5, 60, 52
11, 179880, Note_on_c, 5, 53, 52
11, 179999, Note_on_c, 5, 60, 0
11, 179999, Note_on_c, 5, 53, 0
11, 180000, Note_on_c, 5, 60, 52
11, 180000, Note_on_c, 5, 48, 52
11, 180591, Note_on_c, 5, 60, 0
11, 180591, Note_on_c, 5, 48, 0
11, 180600, Note_on_c, 5, 48, 52
11, 180600, Note_on_c, 5, 60, 52
11, 180711, Note_on_c, 5, 48, 0
11, 180711, Note_on_c, 5, 60, 0
11, 180720, Note_on_c, 5, 60, 52
11, 180720, Note_on_c, 5, 53, 52
11, 180959, Note_on_c, 5, 60, 0
11, 180959, Note_on_c, 5, 53, 0
11, 181200, Control_c, 5, 11, 80
11, 181320, Note_on_c, 5, 60, 76
11, 181320, Note_on_c, 5, 53, 76
11, 181431, Note_on_c, 5, 60, 0
11, 181439, Note_on_c, 5, 53, 0
11, 181440, Note_on_c, 5, 48, 76
11, 181440, Note_on_c, 5, 60, 76
11, 181440, Control_c, 5, 11, 80
11, 181470, Control_c, 5, 11, 82
11, 181500, Control_c, 5, 11, 84
11, 181530, Control_c, 5, 11, 86
11, 181560, Control_c, 5, 11, 88
11, 181590, Control_c, 5, 11, 90
11, 181620, Control_c, 5, 11, 92
11, 181650, Control_c, 5, 11, 94
11, 181680, Control_c, 5, 11, 96
11, 181710, Control_c, 5, 11, 98
11, 181740, Control_c, 5, 11, 100
11, 181770, Control_c, 5, 11, 102
11, 181800, Control_c, 5, 11, 104
11, 181830, Control_c, 5, 11, 105
11, 181860, Control_c, 5, 11, 107
11, 181890, Control_c, 5, 11, 109
11, 181920, Control_c, 5, 11, 111
11, 181950, Control_c, 5, 11, 113
11, 181980, Control_c, 5, 11, 115
11, 182010, Control_c, 5, 11, 117
11, 182031, Note_on_c, 5, 48, 0
11, 182031, Note_on_c, 5, 60, 0
11, 182040, Note_on_c, 5, 48, 76
11, 182040, Control_c, 5, 11, 119
11, 182040, Note_on_c, 5, 60, 76
11, 182070, Control_c, 5, 11, 121
11, 182100, Control_c, 5, 11, 123
11, 182130, Control_c, 5, 11, 125
11, 182151, Note_on_c, 5, 48, 0
11, 182151, Note_on_c, 5, 60, 0
11, 182158, Control_c, 5, 11, 127
11, 182160, Note_on_c, 5, 60, 76
11, 182160, Note_on_c, 5, 67, 76
11, 183599, Note_on_c, 5, 60, 0
11, 183599, Note_on_c, 5, 67, 0
11, 183600, Note_on_c, 5, 67, 76
11, 183600, Note_on_c, 5, 60, 76
11, 183631, Control_c, 5, 11, 126
11, 183661, Control_c, 5, 11, 125
11, 183692, Control_c, 5, 11, 124
11, 183723, Control_c, 5, 11, 123
11, 183753, Control_c, 5, 11, 122
11, 183784, Control_c, 5, 11, 121
11, 183814, Control_c, 5, 11, 120
11, 183845, Control_c, 5, 11, 119
11, 183876, Control_c, 5, 11, 118
11, 183906, Control_c, 5, 11, 117
11, 183937, Control_c, 5, 11, 116
11, 183968, Control_c, 5, 11, 115
11, 183998, Control_c, 5, 11, 114
11, 184029, Control_c, 5, 11, 113
11, 184060, Control_c, 5, 11, 112
11, 184090, Control_c, 5, 11, 111
11, 184121, Control_c, 5, 11, 110
11, 184151, Control_c, 5, 11, 109
11, 184182, Control_c, 5, 11, 108
11, 184213, Control_c, 5, 11, 107
11, 184243, Control_c, 5, 11, 106
11, 184274, Control_c, 5, 11, 105
11, 184305, Control_c, 5, 11, 104
11, 184335, Control_c, 5, 11, 103
11, 184366, Control_c, 5, 11, 102
11, 184397, Control_c, 5, 11, 101
11, 184427, Control_c, 5, 11, 100
11, 184458, Control_c, 5, 11, 99
11, 184489, Control_c, 5, 11, 98
11, 184519, Control_c, 5, 11, 97
11, 184550, Control_c, 5, 11, 96
11, 184580, Control_c, 5, 11, 95
11, 184611, Control_c, 5, 11, 94
11, 184642, Control_c, 5, 11, 93
11, 184672, Control_c, 5, 11, 92
11, 184703, Control_c, 5, 11, 91
11, 184734, Control_c, 5, 11, 90
11, 184764, Control_c, 5, 11, 89
11, 184795, Control_c, 5, 11, 88
11, 184826, Control_c, 5, 11, 87
11, 184856, Control_c, 5, 11, 86
11, 184887, Control_c, 5, 11, 85
11, 184917, Control_c, 5, 11, 84
11, 184948, Control_c, 5, 11, 83
11, 184979, Control_c, 5, 11, 82
11, 185031, Note_on_c, 5, 67, 0
11, 185031, Note_on_c, 5, 60, 0
11, 185038, Control_c, 5, 11, 96
11, 185040, Note_on_c, 5, 65, 68
11, 185040, Note_on_c, 5, 57, 68
11, 185279, Note_on_c, 5, 65, 0
11, 185279, Note_on_c, 5, 57, 0
11, 186360, Program_c, 5, 59
11, 186360, Control_c, 5, 11, 127
11, 186480, Note_on_c, 5, 65, 48
11, 186839, Note_on_c, 5, 65, 0
11, 186840, Note_on_c, 5, 60, 48
11, 187079, Note_on_c, 5, 60, 0
11, 187080, Note_on_c, 5, 69, 48
11, 187191, Note_on_c, 5, 69, 0
11, 187200, Note_on_c, 5, 65, 48
11, 187559, Note_on_c, 5, 65, 0
11, 187560, Note_on_c, 5, 60, 48
11, 187799, Note_on_c, 5, 60, 0
11, 187800, Note_on_c, 5, 69, 48
11, 187911, Note_on_c, 5, 69, 0
11, 187920, Note_on_c, 5, 65, 48
11, 188031, Note_on_c, 5, 65, 0
11, 188040, Note_on_c, 5, 60, 48
11, 188151, Note_on_c, 5, 60, 0
11, 188160, Note_on_c, 5, 69, 48
11, 188271, Note_on_c, 5, 69, 0
11, 188280, Note_on_c, 5, 65, 48
11, 188391, Note_on_c, 5, 65, 0
11, 188400, Note_on_c, 5, 60, 48
11, 188511, Note_on_c, 5, 60, 0
11, 188520, Note_on_c, 5, 69, 48
11, 188631, Note_on_c, 5, 69, 0
11, 188640, Note_on_c, 5, 65, 48
11, 188751, Note_on_c, 5, 65, 0
11, 188760, Note_on_c, 5, 60, 48
11, 188871, Note_on_c, 5, 60, 0
11, 188880, Note_on_c, 5, 69, 48
11, 188991, Note_on_c, 5, 69, 0
11, 189000, Note_on_c, 5, 65, 48
11, 189111, Note_on_c, 5, 65, 0
11, 189120, Note_on_c, 5, 60, 48
11, 189231, Note_on_c, 5, 60, 0
11, 189240, Note_on_c, 5, 69, 84
11, 189240, Note_on_c, 5, 53, 84
11, 189351, Note_on_c, 5, 69, 0
11, 189351, Note_on_c, 5, 53, 0
11, 189360, Note_on_c, 5, 65, 84
11, 189360, Note_on_c, 5, 53, 84
11, 189599, Note_on_c, 5, 65, 0
11, 189599, Note_on_c, 5, 53, 0
11, 189720, Program_c, 5, 60
11, 189720, End_track
12, 0, Start_track
12, 0, Title_t, "Trumpet in C"
12, 0, MIDI_port, 0
12, 0, Program_c, 6, 56
12, 0, Control_c, 6, 7, 96
12, 0, Control_c, 6, 10, 60
12, 0, Control_c, 6, 11, 127
12, 17280, Note_on_c, 6, 60, 84
12, 17280, Note_on_c, 6, 72, 84
12, 17991, Note_on_c, 6, 60, 0
12, 17991, Note_on_c, 6, 72, 0
12, 18000, Note_on_c, 6, 72, 84
12, 18000, Note_on_c, 6, 60, 84
12, 18711, Note_on_c, 6, 72, 0
12, 18711, Note_on_c, 6, 60, 0
12, 18720, Note_on_c, 6, 72, 84
12, 18720, Note_on_c, 6, 60, 84
12, 19431, Note_on_c, 6, 72, 0
12, 19431, Note_on_c, 6, 60, 0
12, 19440, Note_on_c, 6, 74, 84
12, 20031, Note_on_c, 6, 74, 0
12, 20040, Note_on_c, 6, 72, 84
12, 20040, Note_on_c, 6, 60, 84
12, 20151, Note_on_c, 6, 72, 0
12, 20151, Note_on_c, 6, 60, 0
12, 20160, Note_on_c, 6, 60, 84
12, 20160, Note_on_c, 6, 72, 84
12, 20751, Note_on_c, 6, 60, 0
12, 20751, Note_on_c, 6, 72, 0
12, 20760, Note_on_c, 6, 72, 84
12, 20760, Note_on_c, 6, 60, 84
12, 20871, Note_on_c, 6, 72, 0
12, 20871, Note_on_c, 6, 60, 0
12, 20880, Note_on_c, 6, 72, 84
12, 20880, Note_on_c, 6, 60, 84
12, 21231, Note_on_c, 6, 72, 0
12, 21231, Note_on_c, 6, 60, 0
12, 21240, Note_on_c, 6, 60, 84
12, 21240, Note_on_c, 6, 72, 84
12, 21471, Note_on_c, 6, 60, 0
12, 21471, Note_on_c, 6, 72, 0
12, 21480, Note_on_c, 6, 72, 84
12, 21480, Note_on_c, 6, 60, 84
12, 21599, Note_on_c, 6, 72, 0
12, 21599, Note_on_c, 6, 60, 0
12, 21840, Note_on_c, 6, 74, 84
12, 21895, Note_on_c, 6, 74, 0
12, 21900, Note_on_c, 6, 74, 84
12, 21955, Note_on_c, 6, 74, 0
12, 21960, Note_on_c, 6, 72, 84
12, 21960, Note_on_c, 6, 60, 84
12, 22191, Note_on_c, 6, 72, 0
12, 22191, Note_on_c, 6, 60, 0
12, 22200, Note_on_c, 6, 60, 84
12, 22200, Note_on_c, 6, 72, 84
12, 22319, Note_on_c, 6, 60, 0
12, 22319, Note_on_c, 6, 72, 0
12, 23640, Note_on_c, 6, 60, 84
12, 23640, Note_on_c, 6, 72, 84
12, 23751, Note_on_c, 6, 60, 0
12, 23751, Note_on_c, 6, 72, 0
12, 23760, Note_on_c, 6, 60, 84
12, 23760, Note_on_c, 6, 72, 84
12, 24831, Note_on_c, 6, 60, 0
12, 24831, Note_on_c, 6, 72, 0
12, 24840, Note_on_c, 6, 60, 84
12, 24840, Note_on_c, 6, 72, 84
12, 25071, Note_on_c, 6, 60, 0
12, 25071, Note_on_c, 6, 72, 0
12, 25080, Note_on_c, 6, 72, 84
12, 25080, Note_on_c, 6, 60, 84
12, 25199, Note_on_c, 6, 72, 0
12, 25199, Note_on_c, 6, 60, 0
12, 26520, Note_on_c, 6, 60, 84
12, 26520, Note_on_c, 6, 72, 84
12, 26631, Note_on_c, 6, 60, 0
12, 26631, Note_on_c, 6, 72, 0
12, 26640, Note_on_c, 6, 72, 84
12, 26640, Note_on_c, 6, 60, 84
12, 27711, Note_on_c, 6, 72, 0
12, 27711, Note_on_c, 6, 60, 0
12, 27720, Note_on_c, 6, 60, 84
12, 27720, Note_on_c, 6, 72, 84
12, 27951, Note_on_c, 6, 60, 0
12, 27951, Note_on_c, 6, 72, 0
12, 27960, Note_on_c, 6, 60, 84
12, 27960, Note_on_c, 6, 72, 84
12, 28079, Note_on_c, 6, 60, 0
12, 28079, Note_on_c, 6, 72, 0
12, 29520, Note_on_c, 6, 55, 84
12, 29520, Note_on_c, 6, 67, 84
12, 30119, Note_on_c, 6, 55, 0
12, 30119, Note_on_c, 6, 67, 0
12, 30960, Note_on_c, 6, 67, 84
12, 30960, Note_on_c, 6, 55, 84
12, 31559, Note_on_c, 6, 67, 0
12, 31559, Note_on_c, 6, 55, 0
12, 32760, Note_on_c, 6, 55, 92
12, 32760, Note_on_c, 6, 67, 92
12, 32790, Control_c, 6, 11, 112
12, 33351, Note_on_c, 6, 55, 0
12, 33351, Note_on_c, 6, 67, 0
12, 33360, Note_on_c, 6, 55, 92
12, 33360, Note_on_c, 6, 67, 92
12, 33471, Note_on_c, 6, 55, 0
12, 33471, Note_on_c, 6, 67, 0
12, 33480, Note_on_c, 6, 55, 92
12, 33480, Note_on_c, 6, 67, 92
12, 33711, Note_on_c, 6, 55, 0
12, 33711, Note_on_c, 6, 67, 0
12, 33720, Note_on_c, 6, 55, 92
12, 33720, Note_on_c, 6, 67, 92
12, 33839, Note_on_c, 6, 55, 0
12, 33839, Note_on_c, 6, 67, 0
12, 34080, Control_c, 6, 11, 127
12, 34200, Note_on_c, 6, 67, 92
12, 34200, Note_on_c, 6, 55, 92
12, 34230, Control_c, 6, 11, 112
12, 34791, Note_on_c, 6, 67, 0
12, 34791, Note_on_c, 6, 55, 0
12, 34800, Note_on_c, 6, 67, 92
12, 34800, Note_on_c, 6, 55, 92
12, 34911, Note_on_c, 6, 67, 0
12, 34911, Note_on_c, 6, 55, 0
12, 34920, Note_on_c, 6, 55, 92
12, 34920, Note_on_c, 6, 67, 92
12, 35151, Note_on_c, 6, 55, 0
12, 35151, Note_on_c, 6, 67, 0
12, 35160, Note_on_c, 6, 67, 92
12, 35160, Note_on_c, 6, 55, 92
12, 35271, Note_on_c, 6, 55, 0
12, 35279, Note_on_c, 6, 67, 0
12, 35280, Note_on_c, 6, 60, 92
12, 35519, Note_on_c, 6, 60, 0
12, 36000, Control_c, 6, 11, 127
12, 36360, Note_on_c, 6, 67, 76
12, 36360, Note_on_c, 6, 55, 76
12, 36591, Note_on_c, 6, 67, 0
12, 36591, Note_on_c, 6, 55, 0
12, 36600, Note_on_c, 6, 67, 76
12, 36600, Note_on_c, 6, 55, 76
12, 36711, Note_on_c, 6, 67, 0
12, 36711, Note_on_c, 6, 55, 0
12, 36720, Note_on_c, 6, 60, 76
12, 36839, Note_on_c, 6, 60, 0
12, 37800, Note_on_c, 6, 55, 76
12, 37800, Note_on_c, 6, 67, 76
12, 38031, Note_on_c, 6, 55, 0
12, 38031, Note_on_c, 6, 67, 0
12, 38040, Note_on_c, 6, 55, 76
12, 38040, Note_on_c, 6, 67, 76
12, 38129, Note_on_c, 6, 55, 0
12, 38129, Note_on_c, 6, 67, 0
12, 38160, Note_on_c, 6, 72, 84
12, 38160, Note_on_c, 6, 64, 84
12, 38511, Note_on_c, 6, 72, 0
12, 38511, Note_on_c, 6, 64, 0
12, 38520, Note_on_c, 6, 67, 84
12, 38520, Note_on_c, 6, 64, 84
12, 38639, Note_on_c, 6, 67, 0
12, 38639, Note_on_c, 6, 64, 0
12, 38760, Note_on_c, 6, 72, 84
12, 38760, Note_on_c, 6, 60, 84
12, 38849, Note_on_c, 6, 72, 0
12, 38849, Note_on_c, 6, 60, 0
12, 38880, Note_on_c, 6, 60, 84
12, 38880, Note_on_c, 6, 72, 84
12, 39231, Note_on_c, 6, 60, 0
12, 39231, Note_on_c, 6, 72, 0
12, 39240, Note_on_c, 6, 60, 84
12, 39240, Note_on_c, 6, 72, 84
12, 39359, Note_on_c, 6, 60, 0
12, 39359, Note_on_c, 6, 72, 0
12, 39480, Note_on_c, 6, 72, 84
12, 39480, Note_on_c, 6, 60, 84
12, 39569, Note_on_c, 6, 72, 0
12, 39569, Note_on_c, 6, 60, 0
12, 39600, Note_on_c, 6, 67, 84
12, 39600, Note_on_c, 6, 55, 84
12, 39689, Note_on_c, 6, 67, 0
12, 39689, Note_on_c, 6, 55, 0
12, 55320, Note_on_c, 6, 72, 84
12, 55320, Note_on_c, 6, 60, 84
12, 55409, Note_on_c, 6, 72, 0
12, 55409, Note_on_c, 6, 60, 0
12, 55440, Note_on_c, 6, 60, 84
12, 55440, Note_on_c, 6, 72, 84
12, 55529, Note_on_c, 6, 60, 0
12, 55529, Note_on_c, 6, 72, 0
12, 55680, Note_on_c, 6, 72, 84
12, 55680, Note_on_c, 6, 60, 84
12, 55769, Note_on_c, 6, 72, 0
12, 55769, Note_on_c, 6, 60, 0
12, 55800, Note_on_c, 6, 60, 84
12, 55800, Note_on_c, 6, 72, 84
12, 55889, Note_on_c, 6, 60, 0
12, 55889, Note_on_c, 6, 72, 0
12, 56040, Note_on_c, 6, 72, 84
12, 56040, Note_on_c, 6, 60, 84
12, 56129, Note_on_c, 6, 72, 0
12, 56129, Note_on_c, 6, 60, 0
12, 56160, Note_on_c, 6, 72, 84
12, 56160, Note_on_c, 6, 60, 84
12, 56249, Note_on_c, 6, 72, 0
12, 56249, Note_on_c, 6, 60, 0
12, 56400, Note_on_c, 6, 60, 84
12, 56400, Note_on_c, 6, 72, 84
12, 56489, Note_on_c, 6, 60, 0
12, 56489, Note_on_c, 6, 72, 0
12, 56520, Note_on_c, 6, 60, 84
12, 56520, Note_on_c, 6, 72, 84
12, 56609, Note_on_c, 6, 60, 0
12, 56609, Note_on_c, 6, 72, 0
12, 56760, Note_on_c, 6, 72, 84
12, 56760, Note_on_c, 6, 60, 84
12, 56849, Note_on_c, 6, 72, 0
12, 56849, Note_on_c, 6, 60, 0
12, 56880, Note_on_c, 6, 74, 84
12, 57119, Note_on_c, 6, 74, 0
12, 71880, Note_on_c, 6, 55, 76
12, 71880, Note_on_c, 6, 67, 76
12, 71991, Note_on_c, 6, 55, 0
12, 71991, Note_on_c, 6, 67, 0
12, 72000, Note_on_c, 6, 55, 76
12, 72000, Note_on_c, 6, 67, 76
12, 72351, Note_on_c, 6, 55, 0
12, 72351, Note_on_c, 6, 67, 0
12, 72360, Note_on_c, 6, 67, 76
12, 72360, Note_on_c, 6, 55, 76
12, 72479, Note_on_c, 6, 67, 0
12, 72479, Note_on_c, 6, 55, 0
12, 72600, Note_on_c, 6, 55, 76
12, 72600, Note_on_c, 6, 67, 76
12, 72711, Note_on_c, 6, 55, 0
12, 72711, Note_on_c, 6, 67, 0
12, 72720, Note_on_c, 6, 72, 76
12, 72720, Note_on_c, 6, 60, 76
12, 73071, Note_on_c, 6, 72, 0
12, 73071, Note_on_c, 6, 60, 0
12, 73080, Note_on_c, 6, 55, 76
12, 73080, Note_on_c, 6, 67, 76
12, 73199, Note_on_c, 6, 55, 0
12, 73199, Note_on_c, 6, 67, 0
12, 74760, Note_on_c, 6, 55, 76
12, 74760, Note_on_c, 6, 67, 76
12, 74871, Note_on_c, 6, 55, 0
12, 74871, Note_on_c, 6, 67, 0
12, 74880, Note_on_c, 6, 67, 76
12, 74880, Note_on_c, 6, 55, 76
12, 75231, Note_on_c, 6, 67, 0
12, 75231, Note_on_c, 6, 55, 0
12, 75240, Note_on_c, 6, 55, 76
12, 75240, Note_on_c, 6, 67, 76
12, 75359, Note_on_c, 6, 55, 0
12, 75359, Note_on_c, 6, 67, 0
12, 75480, Note_on_c, 6, 55, 76
12, 75480, Note_on_c, 6, 67, 76
12, 75591, Note_on_c, 6, 55, 0
12, 75591, Note_on_c, 6, 67, 0
12, 75600, Note_on_c, 6, 60, 76
12, 75600, Note_on_c, 6, 72, 76
12, 75951, Note_on_c, 6, 60, 0
12, 75951, Note_on_c, 6, 72, 0
12, 75960, Note_on_c, 6, 55, 76
12, 75960, Note_on_c, 6, 67, 76
12, 76079, Note_on_c, 6, 55, 0
12, 76079, Note_on_c, 6, 67, 0
12, 76200, Note_on_c, 6, 64, 76
12, 76200, Note_on_c, 6, 76, 76
12, 76311, Note_on_c, 6, 64, 0
12, 76311, Note_on_c, 6, 76, 0
12, 76320, Note_on_c, 6, 60, 84
12, 76320, Note_on_c, 6, 72, 84
12, 76671, Note_on_c, 6, 60, 0
12, 76671, Note_on_c, 6, 72, 0
12, 76680, Note_on_c, 6, 67, 84
12, 76680, Note_on_c, 6, 55, 84
12, 76799, Note_on_c, 6, 67, 0
12, 76799, Note_on_c, 6, 55, 0
12, 76920, Note_on_c, 6, 64, 84
12, 76920, Note_on_c, 6, 76, 84
12, 77031, Note_on_c, 6, 64, 0
12, 77031, Note_on_c, 6, 76, 0
12, 77040, Note_on_c, 6, 60, 84
12, 77040, Note_on_c, 6, 72, 84
12, 77391, Note_on_c, 6, 60, 0
12, 77391, Note_on_c, 6, 72, 0
12, 77400, Note_on_c, 6, 67, 84
12, 77400, Note_on_c, 6, 55, 84
12, 77519, Note_on_c, 6, 67, 0
12, 77519, Note_on_c, 6, 55, 0
12, 77640, Note_on_c, 6, 64, 84
12, 77640, Note_on_c, 6, 76, 84
12, 77751, Note_on_c, 6, 64, 0
12, 77759, Note_on_c, 6, 76, 0
12, 82680, Control_c, 6, 11, 96
12, 82800, Note_on_c, 6, 60, 68
12, 82800, Control_c, 6, 11, 96
12, 82800, Note_on_c, 6, 72, 68
12, 82830, Control_c, 6, 11, 97
12, 82860, Control_c, 6, 11, 99
12, 82890, Control_c, 6, 11, 100
12, 82920, Control_c, 6, 11, 101
12, 82950, Control_c, 6, 11, 102
12, 82980, Control_c, 6, 11, 104
12, 83010, Control_c, 6, 11, 105
12, 83040, Control_c, 6, 11, 106
12, 83070, Control_c, 6, 11, 108
12, 83100, Control_c, 6, 11, 109
12, 83130, Control_c, 6, 11, 110
12, 83160, Control_c, 6, 11, 112
12, 83190, Control_c, 6, 11, 113
12, 83220, Control_c, 6, 11, 114
12, 83250, Control_c, 6, 11, 115
12, 83280, Control_c, 6, 11, 117
12, 83310, Control_c, 6, 11, 118
12, 83340, Control_c, 6, 11, 119
12, 83370, Control_c, 6, 11, 121
12, 83400, Control_c, 6, 11, 122
12, 83430, Control_c, 6, 11, 123
12, 83460, Control_c, 6, 11, 124
12, 83490, Control_c, 6, 11, 127
12, 83511, Note_on_c, 6, 60, 0
12, 83511, Note_on_c, 6, 72, 0
12, 83520, Note_on_c, 6, 72, 52
12, 83520, Note_on_c, 6, 60, 52
12, 83759, Note_on_c, 6, 72, 0
12, 83759, Note_on_c, 6, 60, 0
12, 95040, Note_on_c, 6, 72, 84
12, 95040, Note_on_c, 6, 60, 84
12, 95631, Note_on_c, 6, 72, 0
12, 95631, Note_on_c, 6, 60, 0
12, 95640, Note_on_c, 6, 60, 84
12, 95640, Note_on_c, 6, 72, 84
12, 95751, Note_on_c, 6, 60, 0
12, 95751, Note_on_c, 6, 72, 0
12, 95760, Note_on_c, 6, 72, 84
12, 95760, Note_on_c, 6, 60, 84
12, 96351, Note_on_c, 6, 72, 0
12, 96351, Note_on_c, 6, 60, 0
12, 96360, Note_on_c, 6, 72, 84
12, 96360, Note_on_c, 6, 60, 84
12, 96471, Note_on_c, 6, 72, 0
12, 96471, Note_on_c, 6, 60, 0
12, 96480, Note_on_c, 6, 60, 84
12, 96480, Note_on_c, 6, 72, 84
12, 97071, Note_on_c, 6, 60, 0
12, 97071, Note_on_c, 6, 72, 0
12, 97080, Note_on_c, 6, 60, 84
12, 97080, Note_on_c, 6, 72, 84
12, 97191, Note_on_c, 6, 60, 0
12, 97191, Note_on_c, 6, 72, 0
12, 97200, Note_on_c, 6, 74, 84
12, 97439, Note_on_c, 6, 74, 0
12, 97800, Note_on_c, 6, 60, 84
12, 97800, Note_on_c, 6, 72, 84
12, 97911, Note_on_c, 6, 60, 0
12, 97911, Note_on_c, 6, 72, 0
12, 97920, Note_on_c, 6, 72, 84
12, 97920, Note_on_c, 6, 60, 84
12, 98511, Note_on_c, 6, 72, 0
12, 98511, Note_on_c, 6, 60, 0
12, 98520, Note_on_c, 6, 60, 84
12, 98520, Note_on_c, 6, 72, 84
12, 98631, Note_on_c, 6, 60, 0
12, 98631, Note_on_c, 6, 72, 0
12, 98640, Note_on_c, 6, 72, 84
12, 98640, Note_on_c, 6, 60, 84
12, 98991, Note_on_c, 6, 72, 0
12, 98991, Note_on_c, 6, 60, 0
12, 99000, Note_on_c, 6, 74, 84
12, 99119, Note_on_c, 6, 74, 0
12, 99720, Note_on_c, 6, 72, 84
12, 99720, Note_on_c, 6, 60, 84
12, 99951, Note_on_c, 6, 72, 0
12, 99951, Note_on_c, 6, 60, 0
12, 99960, Note_on_c, 6, 72, 84
12, 99960, Note_on_c, 6, 60, 84
12, 100071, Note_on_c, 6, 72, 0
12, 100071, Note_on_c, 6, 60, 0
12, 100080, Note_on_c, 6, 60, 84
12, 100080, Note_on_c, 6, 72, 84
12, 100199, Note_on_c, 6, 60, 0
12, 100199, Note_on_c, 6, 72, 0
12, 101400, Note_on_c, 6, 72, 84
12, 101400, Note_on_c, 6, 60, 84
12, 101511, Note_on_c, 6, 72, 0
12, 101511, Note_on_c, 6, 60, 0
12, 101520, Note_on_c, 6, 60, 84
12, 101520, Note_on_c, 6, 72, 84
12, 102591, Note_on_c, 6, 60, 0
12, 102591, Note_on_c, 6, 72, 0
12, 102600, Note_on_c, 6, 72, 84
12, 102600, Note_on_c, 6, 60, 84
12, 102831, Note_on_c, 6, 72, 0
12, 102831, Note_on_c, 6, 60, 0
12, 102840, Note_on_c, 6, 72, 84
12, 102840, Note_on_c, 6, 60, 84
12, 102959, Note_on_c, 6, 72, 0
12, 102959, Note_on_c, 6, 60, 0
12, 107280, Note_on_c, 6, 72, 96
12, 107280, Note_on_c, 6, 60, 96
12, 107340, Control_c, 6, 11, 112
12, 107871, Note_on_c, 6, 72, 0
12, 107871, Note_on_c, 6, 60, 0
12, 108718, Control_c, 6, 11, 127
12, 108720, Note_on_c, 6, 72, 88
12, 108720, Note_on_c, 6, 60, 88
12, 109311, Note_on_c, 6, 72, 0
12, 109311, Note_on_c, 6, 60, 0
12, 110160, Note_on_c, 6, 60, 88
12, 110160, Note_on_c, 6, 72, 88
12, 110391, Note_on_c, 6, 60, 0
12, 110391, Note_on_c, 6, 72, 0
12, 110520, Note_on_c, 6, 72, 88
12, 110520, Note_on_c, 6, 60, 88
12, 110751, Note_on_c, 6, 72, 0
12, 110751, Note_on_c, 6, 60, 0
12, 111600, Note_on_c, 6, 72, 88
12, 111600, Note_on_c, 6, 60, 88
12, 111831, Note_on_c, 6, 72, 0
12, 111831, Note_on_c, 6, 60, 0
12, 111960, Note_on_c, 6, 72, 88
12, 111960, Note_on_c, 6, 60, 88
12, 112191, Note_on_c, 6, 72, 0
12, 112191, Note_on_c, 6, 60, 0
12, 114120, Note_on_c, 6, 72, 76
12, 114120, Note_on_c, 6, 60, 76
12, 114351, Note_on_c, 6, 72, 0
12, 114351, Note_on_c, 6, 60, 0
12, 114360, Note_on_c, 6, 60, 76
12, 114360, Note_on_c, 6, 72, 76
12, 114471, Note_on_c, 6, 60, 0
12, 114471, Note_on_c, 6, 72, 0
12, 115560, Note_on_c, 6, 72, 76
12, 115560, Note_on_c, 6, 60, 76
12, 115791, Note_on_c, 6, 72, 0
12, 115791, Note_on_c, 6, 60, 0
12, 115800, Note_on_c, 6, 72, 76
12, 115800, Note_on_c, 6, 60, 76
12, 115889, Note_on_c, 6, 72, 0
12, 115889, Note_on_c, 6, 60, 0
12, 115920, Note_on_c, 6, 72, 84
12, 115920, Note_on_c, 6, 60, 84
12, 116271, Note_on_c, 6, 72, 0
12, 116271, Note_on_c, 6, 60, 0
12, 116280, Note_on_c, 6, 72, 84
12, 116280, Note_on_c, 6, 60, 84
12, 116399, Note_on_c, 6, 72, 0
12, 116399, Note_on_c, 6, 60, 0
12, 117360, Note_on_c, 6, 60, 84
12, 117360, Note_on_c, 6, 72, 84
12, 117479, Note_on_c, 6, 60, 0
12, 117479, Note_on_c, 6, 72, 0
12, 125160, Note_on_c, 6, 72, 76
12, 125160, Note_on_c, 6, 60, 76
12, 125871, Note_on_c, 6, 72, 0
12, 125871, Note_on_c, 6, 60, 0
12, 125880, Note_on_c, 6, 72, 76
12, 125880, Note_on_c, 6, 60, 76
12, 126231, Note_on_c, 6, 72, 0
12, 126231, Note_on_c, 6, 60, 0
12, 126240, Note_on_c, 6, 60, 76
12, 126240, Note_on_c, 6, 72, 76
12, 126591, Note_on_c, 6, 60, 0
12, 126591, Note_on_c, 6, 72, 0
12, 126600, Note_on_c, 6, 60, 76
12, 126600, Note_on_c, 6, 72, 76
12, 126711, Note_on_c, 6, 60, 0
12, 126711, Note_on_c, 6, 72, 0
12, 136080, Note_on_c, 6, 72, 84
12, 136080, Note_on_c, 6, 60, 84
12, 137391, Note_on_c, 6, 72, 0
12, 137391, Note_on_c, 6, 60, 0
12, 137520, Note_on_c, 6, 74, 84
12, 138831, Note_on_c, 6, 74, 0
12, 138960, Note_on_c, 6, 55, 84
12, 138960, Note_on_c, 6, 67, 84
12, 139680, Control_c, 6, 11, 127
12, 139700, Control_c, 6, 11, 125
12, 139720, Control_c, 6, 11, 123
12, 139740, Control_c, 6, 11, 120
12, 139760, Control_c, 6, 11, 118
12, 139780, Control_c, 6, 11, 116
12, 139800, Control_c, 6, 11, 114
12, 139820, Control_c, 6, 11, 112
12, 139840, Control_c, 6, 11, 109
12, 139860, Control_c, 6, 11, 107
12, 139880, Control_c, 6, 11, 105
12, 139900, Control_c, 6, 11, 103
12, 139920, Control_c, 6, 11, 101
12, 139940, Control_c, 6, 11, 98
12, 139960, Control_c, 6, 11, 96
12, 139980, Control_c, 6, 11, 94
12, 140000, Control_c, 6, 11, 92
12, 140020, Control_c, 6, 11, 90
12, 140040, Control_c, 6, 11, 88
12, 140060, Control_c, 6, 11, 85
12, 140080, Control_c, 6, 11, 83
12, 140100, Control_c, 6, 11, 81
12, 140120, Control_c, 6, 11, 79
12, 140140, Control_c, 6, 11, 77
12, 140160, Control_c, 6, 11, 74
12, 140180, Control_c, 6, 11, 72
12, 140200, Control_c, 6, 11, 70
12, 140220, Control_c, 6, 11, 68
12, 140240, Control_c, 6, 11, 66
12, 140260, Control_c, 6, 11, 63
12, 140271, Note_on_c, 6, 55, 0
12, 140271, Note_on_c, 6, 67, 0
12, 140280, Control_c, 6, 11, 61
12, 145440, Control_c, 6, 11, 127
12, 146040, Note_on_c, 6, 72, 76
12, 146040, Note_on_c, 6, 60, 76
12, 146751, Note_on_c, 6, 72, 0
12, 146751, Note_on_c, 6, 60, 0
12, 146760, Note_on_c, 6, 60, 76
12, 146760, Note_on_c, 6, 72, 76
12, 147111, Note_on_c, 6, 60, 0
12, 147111, Note_on_c, 6, 72, 0
12, 147120, Note_on_c, 6, 72, 76
12, 147120, Note_on_c, 6, 60, 76
12, 147471, Note_on_c, 6, 72, 0
12, 147471, Note_on_c, 6, 60, 0
12, 147480, Note_on_c, 6, 60, 76
12, 147480, Note_on_c, 6, 72, 76
12, 147591, Note_on_c, 6, 60, 0
12, 147591, Note_on_c, 6, 72, 0
12, 156960, Note_on_c, 6, 60, 84
12, 156960, Note_on_c, 6, 72, 84
12, 158271, Note_on_c, 6, 60, 0
12, 158271, Note_on_c, 6, 72, 0
12, 158400, Note_on_c, 6, 74, 84
12, 159711, Note_on_c, 6, 74, 0
12, 159840, Note_on_c, 6, 67, 84
12, 159840, Note_on_c, 6, 55, 84
12, 161151, Note_on_c, 6, 67, 0
12, 161151, Note_on_c, 6, 55, 0
12, 161280, Note_on_c, 6, 72, 84
12, 161280, Note_on_c, 6, 60, 84
12, 162591, Note_on_c, 6, 72, 0
12, 162591, Note_on_c, 6, 60, 0
12, 162720, Note_on_c, 6, 72, 84
12, 162720, Note_on_c, 6, 60, 84
12, 164039, Note_on_c, 6, 72, 0
12, 164039, Note_on_c, 6, 60, 0
12, 164520, Note_on_c, 6, 74, 84
12, 164871, Note_on_c, 6, 74, 0
12, 165240, Note_on_c, 6, 74, 84
12, 165591, Note_on_c, 6, 74, 0
12, 182160, Note_on_c, 6, 60, 76
12, 182160, Note_on_c, 6, 72, 76
12, 183599, Note_on_c, 6, 60, 0
12, 183599, Note_on_c, 6, 72, 0
12, 183600, Note_on_c, 6, 72, 76
12, 183600, Note_on_c, 6, 60, 76
12, 185031, Note_on_c, 6, 72, 0
12, 185031, Note_on_c, 6, 60, 0
12, 189240, Note_on_c, 6, 72, 84
12, 189240, Note_on_c, 6, 60, 84
12, 189351, Note_on_c, 6, 72, 0
12, 189351, Note_on_c, 6, 60, 0
12, 189360, Note_on_c, 6, 72, 84
12, 189360, Note_on_c, 6, 60, 84
12, 189599, Note_on_c, 6, 72, 0
12, 189599, Note_on_c, 6, 60, 0
12, 189599, End_track
13, 0, Start_track
13, 0, Title_t, "Trombone"
13, 0, MIDI_port, 0
13, 0, Program_c, 8, 57
13, 0, Control_c, 8, 7, 96
13, 0, Control_c, 8, 10, 80
13, 0, Control_c, 8, 11, 127
13, 17280, Note_on_c, 8, 69, 84
13, 17280, Note_on_c, 8, 57, 84
13, 17991, Note_on_c, 8, 69, 0
13, 17991, Note_on_c, 8, 57, 0
13, 18000, Note_on_c, 8, 69, 84
13, 18000, Note_on_c, 8, 57, 84
13, 18711, Note_on_c, 8, 69, 0
13, 18711, Note_on_c, 8, 57, 0
13, 18720, Note_on_c, 8, 69, 84
13, 18720, Note_on_c, 8, 57, 84
13, 19431, Note_on_c, 8, 69, 0
13, 19431, Note_on_c, 8, 57, 0
13, 19440, Note_on_c, 8, 70, 84
13, 19440, Note_on_c, 8, 58, 84
13, 20039, Note_on_c, 8, 70, 0
13, 20039, Note_on_c, 8, 58, 0
13, 20160, Note_on_c, 8, 67, 84
13, 20160, Note_on_c, 8, 70, 84
13, 20511, Note_on_c, 8, 67, 0
13, 20511, Note_on_c, 8, 70, 0
13, 20520, Note_on_c, 8, 67, 84
13, 20759, Note_on_c, 8, 67, 0
13, 20880, Note_on_c, 8, 69, 84
13, 20880, Note_on_c, 8, 65, 84
13, 21231, Note_on_c, 8, 69, 0
13, 21231, Note_on_c, 8, 65, 0
13, 21240, Note_on_c, 8, 65, 84
13, 21479, Note_on_c, 8, 65, 0
13, 21960, Note_on_c, 8, 67, 84
13, 21960, Note_on_c, 8, 48, 84
13, 22311, Note_on_c, 8, 67, 0
13, 22311, Note_on_c, 8, 48, 0
13, 22320, Note_on_c, 8, 65, 84
13, 22320, Note_on_c, 8, 53, 84
13, 22559, Note_on_c, 8, 65, 0
13, 22559, Note_on_c, 8, 53, 0
13, 29520, Note_on_c, 8, 64, 84
13, 29520, Note_on_c, 8, 67, 84
13, 30119, Note_on_c, 8, 64, 0
13, 30119, Note_on_c, 8, 67, 0
13, 30960, Note_on_c, 8, 62, 84
13, 30960, Note_on_c, 8, 65, 84
13, 31559, Note_on_c, 8, 62, 0
13, 31559, Note_on_c, 8, 65, 0
13, 32400, Note_on_c, 8, 64, 84
13, 32400, Note_on_c, 8, 67, 84
13, 33359, Note_on_c, 8, 64, 0
13, 33359, Note_on_c, 8, 67, 0
13, 33840, Note_on_c, 8, 62, 84
13, 33840, Note_on_c, 8, 65, 84
13, 34799, Note_on_c, 8, 62, 0
13, 34799, Note_on_c, 8, 65, 0
13, 38160, Note_on_c, 8, 64, 84
13, 38160, Note_on_c, 8, 72, 84
13, 38511, Note_on_c, 8, 64, 0
13, 38511, Note_on_c, 8, 72, 0
13, 38520, Note_on_c, 8, 67, 84
13, 38520, Note_on_c, 8, 64, 84
13, 38759, Note_on_c, 8, 67, 0
13, 38759, Note_on_c, 8, 64, 0
13, 38880, Note_on_c, 8, 74, 84
13, 38880, Note_on_c, 8, 65, 84
13, 39231, Note_on_c, 8, 74, 0
13, 39231, Note_on_c, 8, 65, 0
13, 39240, Note_on_c, 8, 69, 84
13, 39240, Note_on_c, 8, 65, 84
13, 39359, Note_on_c, 8, 69, 0
13, 39359, Note_on_c, 8, 65, 0
13, 72000, Note_on_c, 8, 71, 76
13, 72000, Note_on_c, 8, 62, 76
13, 72239, Note_on_c, 8, 71, 0
13, 72239, Note_on_c, 8, 62, 0
13, 72720, Note_on_c, 8, 64, 76
13, 72720, Note_on_c, 8, 72, 76
13, 72959, Note_on_c, 8, 64, 0
13, 72959, Note_on_c, 8, 72, 0
13, 74880, Note_on_c, 8, 71, 76
13, 74880, Note_on_c, 8, 62, 76
13, 75119, Note_on_c, 8, 71, 0
13, 75119, Note_on_c, 8, 62, 0
13, 75600, Note_on_c, 8, 72, 76
13, 75600, Note_on_c, 8, 64, 76
13, 75839, Note_on_c, 8, 72, 0
13, 75839, Note_on_c, 8, 64, 0
13, 76320, Note_on_c, 8, 72, 84
13, 76320, Note_on_c, 8, 64, 84
13, 76919, Note_on_c, 8, 72, 0
13, 76919, Note_on_c, 8, 64, 0
13, 77040, Note_on_c, 8, 64, 84
13, 77040, Note_on_c, 8, 72, 84
13, 77639, Note_on_c, 8, 64, 0
13, 77639, Note_on_c, 8, 72, 0
13, 95040, Note_on_c, 8, 69, 84
13, 95040, Note_on_c, 8, 65, 84
13, 95279, Note_on_c, 8, 69, 0
13, 95279, Note_on_c, 8, 65, 0
13, 95760, Note_on_c, 8, 65, 84
13, 95760, Note_on_c, 8, 69, 84
13, 95999, Note_on_c, 8, 65, 0
13, 95999, Note_on_c, 8, 69, 0
13, 96480, Note_on_c, 8, 65, 84
13, 96480, Note_on_c, 8, 69, 84
13, 96719, Note_on_c, 8, 65, 0
13, 96719, Note_on_c, 8, 69, 0
13, 97200, Note_on_c, 8, 65, 84
13, 97200, Note_on_c, 8, 70, 84
13, 97439, Note_on_c, 8, 65, 0
13, 97439, Note_on_c, 8, 70, 0
13, 97920, Note_on_c, 8, 67, 84
13, 97920, Note_on_c, 8, 70, 84
13, 98159, Note_on_c, 8, 67, 0
13, 98159, Note_on_c, 8, 70, 0
13, 98640, Note_on_c, 8, 57, 84
13, 98640, Note_on_c, 8, 69, 84
13, 98879, Note_on_c, 8, 57, 0
13, 98879, Note_on_c, 8, 69, 0
13, 99000, Note_on_c, 8, 62, 84
13, 99000, Note_on_c, 8, 69, 84
13, 99239, Note_on_c, 8, 62, 0
13, 99239, Note_on_c, 8, 69, 0
13, 99360, Note_on_c, 8, 58, 84
13, 99360, Note_on_c, 8, 67, 84
13, 99599, Note_on_c, 8, 58, 0
13, 99599, Note_on_c, 8, 67, 0
13, 99720, Note_on_c, 8, 60, 84
13, 99720, Note_on_c, 8, 67, 84
13, 99959, Note_on_c, 8, 60, 0
13, 99959, Note_on_c, 8, 67, 0
13, 100080, Note_on_c, 8, 53, 84
13, 100080, Note_on_c, 8, 65, 84
13, 100319, Note_on_c, 8, 53, 0
13, 100319, Note_on_c, 8, 65, 0
13, 107280, Note_on_c, 8, 65, 96
13, 107280, Note_on_c, 8, 69, 96
13, 107340, Control_c, 8, 11, 112
13, 107871, Note_on_c, 8, 65, 0
13, 107871, Note_on_c, 8, 69, 0
13, 108718, Control_c, 8, 11, 127
13, 108720, Note_on_c, 8, 64, 88
13, 108720, Note_on_c, 8, 70, 88
13, 109311, Note_on_c, 8, 64, 0
13, 109311, Note_on_c, 8, 70, 0
13, 110160, Note_on_c, 8, 69, 88
13, 110160, Note_on_c, 8, 65, 88
13, 110391, Note_on_c, 8, 69, 0
13, 110391, Note_on_c, 8, 65, 0
13, 110520, Note_on_c, 8, 69, 88
13, 110520, Note_on_c, 8, 65, 88
13, 110751, Note_on_c, 8, 69, 0
13, 110751, Note_on_c, 8, 65, 0
13, 111600, Note_on_c, 8, 70, 88
13, 111600, Note_on_c, 8, 64, 88
13, 111831, Note_on_c, 8, 70, 0
13, 111831, Note_on_c, 8, 64, 0
13, 111960, Note_on_c, 8, 70, 88
13, 111960, Note_on_c, 8, 64, 88
13, 112191, Note_on_c, 8, 70, 0
13, 112191, Note_on_c, 8, 64, 0
13, 113040, Note_on_c, 8, 53, 88
13, 113040, Note_on_c, 8, 65, 88
13, 113279, Note_on_c, 8, 53, 0
13, 113279, Note_on_c, 8, 65, 0
13, 114480, Note_on_c, 8, 65, 76
13, 114480, Note_on_c, 8, 53, 76
13, 114719, Note_on_c, 8, 65, 0
13, 114719, Note_on_c, 8, 53, 0
13, 115920, Note_on_c, 8, 65, 84
13, 115920, Note_on_c, 8, 69, 84
13, 116271, Note_on_c, 8, 65, 0
13, 116271, Note_on_c, 8, 69, 0
13, 116280, Note_on_c, 8, 65, 84
13, 116280, Note_on_c, 8, 69, 84
13, 116519, Note_on_c, 8, 65, 0
13, 116519, Note_on_c, 8, 69, 0
13, 116640, Note_on_c, 8, 70, 84
13, 116640, Note_on_c, 8, 58, 84
13, 116991, Note_on_c, 8, 70, 0
13, 116991, Note_on_c, 8, 58, 0
13, 117000, Note_on_c, 8, 58, 84
13, 117000, Note_on_c, 8, 70, 84
13, 117239, Note_on_c, 8, 58, 0
13, 117239, Note_on_c, 8, 70, 0
13, 117360, Note_on_c, 8, 60, 84
13, 117360, Note_on_c, 8, 69, 84
13, 117599, Note_on_c, 8, 60, 0
13, 117599, Note_on_c, 8, 69, 0
13, 136080, Note_on_c, 8, 53, 84
13, 136080, Note_on_c, 8, 69, 84
13, 137391, Note_on_c, 8, 53, 0
13, 137391, Note_on_c, 8, 69, 0
13, 137520, Note_on_c, 8, 69, 84
13, 137520, Note_on_c, 8, 62, 84
13, 138831, Note_on_c, 8, 69, 0
13, 138831, Note_on_c, 8, 62, 0
13, 138960, Note_on_c, 8, 62, 84
13, 138960, Note_on_c, 8, 74, 84
13, 139919, Note_on_c, 8, 62, 0
13, 139919, Note_on_c, 8, 74, 0
13, 156960, Note_on_c, 8, 53, 84
13, 156960, Note_on_c, 8, 69, 84
13, 158271, Note_on_c, 8, 53, 0
13, 158271, Note_on_c, 8, 69, 0
13, 158400, Note_on_c, 8, 50, 84
13, 158400, Note_on_c, 8, 69, 84
13, 159711, Note_on_c, 8, 50, 0
13, 159711, Note_on_c, 8, 69, 0
13, 159840, Note_on_c, 8, 55, 84
13, 159840, Note_on_c, 8, 71, 84
13, 161151, Note_on_c, 8, 55, 0
13, 161151, Note_on_c, 8, 71, 0
13, 161280, Note_on_c, 8, 48, 84
13, 161280, Note_on_c, 8, 72, 84
13, 162591, Note_on_c, 8, 48, 0
13, 162591, Note_on_c, 8, 72, 0
13, 162720, Note_on_c, 8, 72, 84
13, 162720, Note_on_c, 8, 53, 84
13, 163431, Note_on_c, 8, 72, 0
13, 163431, Note_on_c, 8, 53, 0
13, 163440, Note_on_c, 8, 53, 84
13, 163440, Note_on_c, 8, 72, 84
13, 164151, Note_on_c, 8, 53, 0
13, 164151, Note_on_c, 8, 72, 0
13, 164160, Note_on_c, 8, 70, 84
13, 164160, Note_on_c, 8, 53, 84
13, 164511, Note_on_c, 8, 70, 0
13, 164511, Note_on_c, 8, 53, 0
13, 164520, Note_on_c, 8, 62, 84
13, 164520, Note_on_c, 8, 65, 84
13, 164871, Note_on_c, 8, 62, 0
13, 164871, Note_on_c, 8, 65, 0
13, 164880, Note_on_c, 8, 65, 84
13, 164880, Note_on_c, 8, 62, 84
13, 165231, Note_on_c, 8, 65, 0
13, 165231, Note_on_c, 8, 62, 0
13, 165240, Note_on_c, 8, 62, 84
13, 165240, Note_on_c, 8, 65, 84
13, 165591, Note_on_c, 8, 62, 0
13, 165591, Note_on_c, 8, 65, 0
13, 182880, Note_on_c, 8, 67, 76
13, 182880, Note_on_c, 8, 70, 76
13, 183631, Control_c, 8, 11, 126
13, 183661, Control_c, 8, 11, 125
13, 183692, Control_c, 8, 11, 124
13, 183723, Control_c, 8, 11, 123
13, 183753, Control_c, 8, 11, 122
13, 183784, Control_c, 8, 11, 121
13, 183814, Control_c, 8, 11, 120
13, 183839, Note_on_c, 8, 67, 0
13, 183839, Note_on_c, 8, 70, 0
13, 183845, Control_c, 8, 11, 119
13, 183876, Control_c, 8, 11, 118
13, 183906, Control_c, 8, 11, 117
13, 183937, Control_c, 8, 11, 116
13, 189240, Control_c, 8, 11, 127
13, 189360, Note_on_c, 8, 53, 84
13, 189360, Note_on_c, 8, 65, 84
13, 189599, Note_on_c, 8, 53, 0
13, 189599, Note_on_c, 8, 65, 0
13, 189599, End_track
14, 0, Start_track
14, 0, Title_t, "Violin I"
14, 0, MIDI_port, 0
14, 0, Program_c, 10, 48
14, 0, Control_c, 10, 7, 96
14, 0, Control_c, 10, 10, 48
14, 0, Control_c, 10, 11, 127
14, 5760, Note_on_c, 10, 81, 44
14, 6119, Note_on_c, 10, 81, 0
14, 6120, Note_on_c, 10, 77, 44
14, 6359, Note_on_c, 10, 77, 0
14, 6360, Note_on_c, 10, 84, 44
14, 6471, Note_on_c, 10, 84, 0
14, 6480, Note_on_c, 10, 81, 44
14, 6839, Note_on_c, 10, 81, 0
14, 6840, Note_on_c, 10, 77, 44
14, 7071, Note_on_c, 10, 77, 0
14, 7080, Note_on_c, 10, 72, 44
14, 7199, Note_on_c, 10, 72, 0
14, 7200, Note_on_c, 10, 77, 44
14, 7439, Note_on_c, 10, 77, 0
14, 7440, Note_on_c, 10, 81, 44
14, 7559, Note_on_c, 10, 81, 0
14, 7560, Note_on_c, 10, 84, 44
14, 7799, Note_on_c, 10, 84, 0
14, 7800, Note_on_c, 10, 81, 44
14, 7911, Note_on_c, 10, 81, 0
14, 7920, Note_on_c, 10, 82, 44
14, 8279, Note_on_c, 10, 82, 0
14, 8280, Note_on_c, 10, 82, 44
14, 8511, Note_on_c, 10, 82, 0
14, 8520, Note_on_c, 10, 79, 44
14, 8639, Note_on_c, 10, 79, 0
14, 8640, Note_on_c, 10, 82, 44
14, 8999, Note_on_c, 10, 82, 0
14, 9000, Note_on_c, 10, 79, 44
14, 9239, Note_on_c, 10, 79, 0
14, 9240, Note_on_c, 10, 84, 44
14, 9351, Note_on_c, 10, 84, 0
14, 9360, Note_on_c, 10, 81, 44
14, 9719, Note_on_c, 10, 81, 0
14, 9720, Note_on_c, 10, 77, 44
14, 9951, Note_on_c, 10, 77, 0
14, 9960, Note_on_c, 10, 81, 44
14, 10079, Note_on_c, 10, 81, 0
14, 10080, Note_on_c, 10, 79, 44
14, 10319, Note_on_c, 10, 79, 0
14, 10320, Note_on_c, 10, 74, 44
14, 10439, Note_on_c, 10, 74, 0
14, 10440, Note_on_c, 10, 76, 44
14, 10679, Note_on_c, 10, 76, 0
14, 10680, Note_on_c, 10, 72, 44
14, 10791, Note_on_c, 10, 72, 0
14, 10800, Note_on_c, 10, 72, 44
14, 10919, Note_on_c, 10, 72, 0
14, 10920, Note_on_c, 10, 77, 44
14, 11159, Note_on_c, 10, 77, 0
14, 11160, Note_on_c, 10, 77, 46
14, 11399, Note_on_c, 10, 77, 0
14, 11400, Note_on_c, 10, 81, 47
14, 11511, Note_on_c, 10, 81, 0
14, 11520, Note_on_c, 10, 77, 48
14, 11579, Note_on_c, 10, 77, 0
14, 11580, Note_on_c, 10, 81, 48
14, 11635, Note_on_c, 10, 81, 0
14, 11640, Note_on_c, 10, 77, 49
14, 11699, Note_on_c, 10, 77, 0
14, 11700, Note_on_c, 10, 81, 49
14, 11755, Note_on_c, 10, 81, 0
14, 11760, Note_on_c, 10, 77, 49
14, 11819, Note_on_c, 10, 77, 0
14, 11820, Note_on_c, 10, 81, 50
14, 11875, Note_on_c, 10, 81, 0
14, 11880, Note_on_c, 10, 77, 50
14, 11939, Note_on_c, 10, 77, 0
14, 11940, Note_on_c, 10, 81, 51
14, 11995, Note_on_c, 10, 81, 0
14, 12000, Note_on_c, 10, 77, 51
14, 12059, Note_on_c, 10, 77, 0
14, 12060, Note_on_c, 10, 81, 51
14, 12115, Note_on_c, 10, 81, 0
14, 12120, Note_on_c, 10, 77, 52
14, 12179, Note_on_c, 10, 77, 0
14, 12180, Note_on_c, 10, 81, 52
14, 12235, Note_on_c, 10, 81, 0
14, 12240, Note_on_c, 10, 77, 52
14, 12299, Note_on_c, 10, 77, 0
14, 12300, Note_on_c, 10, 81, 53
14, 12355, Note_on_c, 10, 81, 0
14, 12360, Note_on_c, 10, 77, 53
14, 12419, Note_on_c, 10, 77, 0
14, 12420, Note_on_c, 10, 81, 54
14, 12475, Note_on_c, 10, 81, 0
14, 12480, Note_on_c, 10, 77, 54
14, 12539, Note_on_c, 10, 77, 0
14, 12540, Note_on_c, 10, 81, 54
14, 12595, Note_on_c, 10, 81, 0
14, 12600, Note_on_c, 10, 77, 55
14, 12659, Note_on_c, 10, 77, 0
14, 12660, Note_on_c, 10, 81, 55
14, 12715, Note_on_c, 10, 81, 0
14, 12720, Note_on_c, 10, 77, 55
14, 12779, Note_on_c, 10, 77, 0
14, 12780, Note_on_c, 10, 81, 56
14, 12835, Note_on_c, 10, 81, 0
14, 12840, Note_on_c, 10, 77, 56
14, 12899, Note_on_c, 10, 77, 0
14, 12900, Note_on_c, 10, 81, 56
14, 12955, Note_on_c, 10, 81, 0
14, 12960, Note_on_c, 10, 77, 57
14, 13019, Note_on_c, 10, 77, 0
14, 13020, Note_on_c, 10, 81, 57
14, 13075, Note_on_c, 10, 81, 0
14, 13080, Note_on_c, 10, 77, 58
14, 13139, Note_on_c, 10, 77, 0
14, 13140, Note_on_c, 10, 81, 58
14, 13195, Note_on_c, 10, 81, 0
14, 13200, Note_on_c, 10, 77, 58
14, 13259, Note_on_c, 10, 77, 0
14, 13260, Note_on_c, 10, 81, 59
14, 13315, Note_on_c, 10, 81, 0
14, 13320, Note_on_c, 10, 77, 59
14, 13379, Note_on_c, 10, 77, 0
14, 13380, Note_on_c, 10, 81, 59
14, 13435, Note_on_c, 10, 81, 0
14, 13440, Note_on_c, 10, 77, 60
14, 13499, Note_on_c, 10, 77, 0
14, 13500, Note_on_c, 10, 81, 60
14, 13555, Note_on_c, 10, 81, 0
14, 13560, Note_on_c, 10, 77, 61
14, 13619, Note_on_c, 10, 77, 0
14, 13620, Note_on_c, 10, 81, 61
14, 13675, Note_on_c, 10, 81, 0
14, 13680, Note_on_c, 10, 77, 61
14, 13739, Note_on_c, 10, 77, 0
14, 13740, Note_on_c, 10, 82, 62
14, 13795, Note_on_c, 10, 82, 0
14, 13800, Note_on_c, 10, 77, 62
14, 13859, Note_on_c, 10, 77, 0
14, 13860, Note_on_c, 10, 82, 62
14, 13915, Note_on_c, 10, 82, 0
14, 13920, Note_on_c, 10, 77, 63
14, 13979, Note_on_c, 10, 77, 0
14, 13980, Note_on_c, 10, 82, 63
14, 14035, Note_on_c, 10, 82, 0
14, 14040, Note_on_c, 10, 77, 64
14, 14099, Note_on_c, 10, 77, 0
14, 14100, Note_on_c, 10, 82, 64
14, 14155, Note_on_c, 10, 82, 0
14, 14160, Note_on_c, 10, 77, 64
14, 14219, Note_on_c, 10, 77, 0
14, 14220, Note_on_c, 10, 82, 65
14, 14275, Note_on_c, 10, 82, 0
14, 14280, Note_on_c, 10, 79, 65
14, 14339, Note_on_c, 10, 79, 0
14, 14340, Note_on_c, 10, 84, 65
14, 14395, Note_on_c, 10, 84, 0
14, 14400, Note_on_c, 10, 79, 66
14, 14459, Note_on_c, 10, 79, 0
14, 14460, Note_on_c, 10, 82, 66
14, 14515, Note_on_c, 10, 82, 0
14, 14520, Note_on_c, 10, 79, 66
14, 14579, Note_on_c, 10, 79, 0
14, 14580, Note_on_c, 10, 82, 67
14, 14635, Note_on_c, 10, 82, 0
14, 14640, Note_on_c, 10, 79, 67
14, 14699, Note_on_c, 10, 79, 0
14, 14700, Note_on_c, 10, 82, 68
14, 14755, Note_on_c, 10, 82, 0
14, 14760, Note_on_c, 10, 79, 68
14, 14819, Note_on_c, 10, 79, 0
14, 14820, Note_on_c, 10, 82, 68
14, 14875, Note_on_c, 10, 82, 0
14, 14880, Note_on_c, 10, 79, 69
14, 14939, Note_on_c, 10, 79, 0
14, 14940, Note_on_c, 10, 82, 69
14, 14995, Note_on_c, 10, 82, 0
14, 15000, Note_on_c, 10, 79, 69
14, 15059, Note_on_c, 10, 79, 0
14, 15060, Note_on_c, 10, 84, 70
14, 15115, Note_on_c, 10, 84, 0
14, 15120, Note_on_c, 10, 81, 70
14, 15179, Note_on_c, 10, 81, 0
14, 15180, Note_on_c, 10, 84, 71
14, 15235, Note_on_c, 10, 84, 0
14, 15240, Note_on_c, 10, 81, 71
14, 15299, Note_on_c, 10, 81, 0
14, 15300, Note_on_c, 10, 84, 71
14, 15355, Note_on_c, 10, 84, 0
14, 15360, Note_on_c, 10, 81, 72
14, 15419, Note_on_c, 10, 81, 0
14, 15420, Note_on_c, 10, 84, 72
14, 15475, Note_on_c, 10, 84, 0
14, 15480, Note_on_c, 10, 81, 72
14, 15539, Note_on_c, 10, 81, 0
14, 15540, Note_on_c, 10, 86, 73
14, 15595, Note_on_c, 10, 86, 0
14, 15600, Note_on_c, 10, 81, 73
14, 15659, Note_on_c, 10, 81, 0
14, 15660, Note_on_c, 10, 86, 74
14, 15715, Note_on_c, 10, 86, 0
14, 15720, Note_on_c, 10, 81, 74
14, 15779, Note_on_c, 10, 81, 0
14, 15780, Note_on_c, 10, 84, 74
14, 15835, Note_on_c, 10, 84, 0
14, 15840, Note_on_c, 10, 79, 75
14, 15899, Note_on_c, 10, 79, 0
14, 15900, Note_on_c, 10, 86, 75
14, 15955, Note_on_c, 10, 86, 0
14, 15960, Note_on_c, 10, 79, 75
14, 16019, Note_on_c, 10, 79, 0
14, 16020, Note_on_c, 10, 86, 76
14, 16075, Note_on_c, 10, 86, 0
14, 16080, Note_on_c, 10, 79, 76
14, 16139, Note_on_c, 10, 79, 0
14, 16140, Note_on_c, 10, 86, 76
14, 16195, Note_on_c, 10, 86, 0
14, 16200, Note_on_c, 10, 79, 77
14, 16259, Note_on_c, 10, 79, 0
14, 16260, Note_on_c, 10, 84, 77
14, 16315, Note_on_c, 10, 84, 0
14, 16320, Note_on_c, 10, 79, 78
14, 16379, Note_on_c, 10, 79, 0
14, 16380, Note_on_c, 10, 84, 78
14, 16435, Note_on_c, 10, 84, 0
14, 16440, Note_on_c, 10, 79, 78
14, 16499, Note_on_c, 10, 79, 0
14, 16500, Note_on_c, 10, 84, 79
14, 16555, Note_on_c, 10, 84, 0
14, 16560, Note_on_c, 10, 81, 79
14, 16619, Note_on_c, 10, 81, 0
14, 16620, Note_on_c, 10, 84, 79
14, 16675, Note_on_c, 10, 84, 0
14, 16680, Note_on_c, 10, 81, 80
14, 16739, Note_on_c, 10, 81, 0
14, 16740, Note_on_c, 10, 84, 80
14, 16795, Note_on_c, 10, 84, 0
14, 16800, Note_on_c, 10, 81, 81
14, 16859, Note_on_c, 10, 81, 0
14, 16860, Note_on_c, 10, 84, 81
14, 16915, Note_on_c, 10, 84, 0
14, 16920, Note_on_c, 10, 81, 81
14, 16979, Note_on_c, 10, 81, 0
14, 16980, Note_on_c, 10, 84, 82
14, 17035, Note_on_c, 10, 84, 0
14, 17040, Note_on_c, 10, 81, 82
14, 17099, Note_on_c, 10, 81, 0
14, 17100, Note_on_c, 10, 84, 82
14, 17155, Note_on_c, 10, 84, 0
14, 17160, Note_on_c, 10, 81, 83
14, 17219, Note_on_c, 10, 81, 0
14, 17220, Note_on_c, 10, 84, 83
14, 17275, Note_on_c, 10, 84, 0
14, 17280, Note_on_c, 10, 89, 84
14, 17280, Note_on_c, 10, 77, 84
14, 17315, Note_on_c, 10, 89, 0
14, 17315, Note_on_c, 10, 77, 0
14, 17320, Note_on_c, 10, 77, 84
14, 17320, Note_on_c, 10, 89, 84
14, 17355, Note_on_c, 10, 77, 0
14, 17355, Note_on_c, 10, 89, 0
14, 17360, Note_on_c, 10, 77, 84
14, 17360, Note_on_c, 10, 89, 84
14, 17395, Note_on_c, 10, 77, 0
14, 17395, Note_on_c, 10, 89, 0
14, 17400, Note_on_c, 10, 89, 84
14, 17400, Note_on_c, 10, 77, 84
14, 17435, Note_on_c, 10, 89, 0
14, 17435, Note_on_c, 10, 77, 0
14, 17440, Note_on_c, 10, 89, 84
14, 17440, Note_on_c, 10, 77, 84
14, 17475, Note_on_c, 10, 89, 0
14, 17475, Note_on_c, 10, 77, 0
14, 17480, Note_on_c, 10, 89, 84
14, 17480, Note_on_c, 10, 77, 84
14, 17515, Note_on_c, 10, 89, 0
14, 17515, Note_on_c, 10, 77, 0
14, 17520, Note_on_c, 10, 77, 84
14, 17520, Note_on_c, 10, 89, 84
14, 17555, Note_on_c, 10, 77, 0
14, 17555, Note_on_c, 10, 89, 0
14, 17560, Note_on_c, 10, 89, 84
14, 17560, Note_on_c, 10, 77, 84
14, 17595, Note_on_c, 10, 89, 0
14, 17595, Note_on_c, 10, 77, 0
14, 17600, Note_on_c, 10, 77, 84
14, 17600, Note_on_c, 10, 89, 84
14, 17635, Note_on_c, 10, 77, 0
14, 17635, Note_on_c, 10, 89, 0
14, 17640, Note_on_c, 10, 77, 84
14, 17640, Note_on_c, 10, 89, 84
14, 17675, Note_on_c, 10, 77, 0
14, 17675, Note_on_c, 10, 89, 0
14, 17680, Note_on_c, 10, 77, 84
14, 17680, Note_on_c, 10, 89, 84
14, 17715, Note_on_c, 10, 77, 0
14, 17715, Note_on_c, 10, 89, 0
14, 17720, Note_on_c, 10, 77, 84
14, 17720, Note_on_c, 10, 89, 84
14, 17755, Note_on_c, 10, 77, 0
14, 17755, Note_on_c, 10, 89, 0
14, 17760, Note_on_c, 10, 89, 84
14, 17760, Note_on_c, 10, 77, 84
14, 17795, Note_on_c, 10, 89, 0
14, 17795, Note_on_c, 10, 77, 0
14, 17800, Note_on_c, 10, 89, 84
14, 17800, Note_on_c, 10, 77, 84
14, 17835, Note_on_c, 10, 89, 0
14, 17835, Note_on_c, 10, 77, 0
14, 17840, Note_on_c, 10, 89, 84
14, 17840, Note_on_c, 10, 77, 84
14, 17875, Note_on_c, 10, 89, 0
14, 17875, Note_on_c, 10, 77, 0
14, 17880, Note_on_c, 10, 77, 84
14, 17880, Note_on_c, 10, 89, 84
14, 17915, Note_on_c, 10, 77, 0
14, 17915, Note_on_c, 10, 89, 0
14, 17920, Note_on_c, 10, 77, 84
14, 17920, Note_on_c, 10, 89, 84
14, 17955, Note_on_c, 10, 77, 0
14, 17955, Note_on_c, 10, 89, 0
14, 17960, Note_on_c, 10, 77, 84
14, 17960, Note_on_c, 10, 89, 84
14, 17995, Note_on_c, 10, 77, 0
14, 17995, Note_on_c, 10, 89, 0
14, 18000, Note_on_c, 10, 77, 84
14, 18000, Note_on_c, 10, 89, 84
14, 18035, Note_on_c, 10, 77, 0
14, 18035, Note_on_c, 10, 89, 0
14, 18040, Note_on_c, 10, 89, 84
14, 18040, Note_on_c, 10, 77, 84
14, 18075, Note_on_c, 10, 89, 0
14, 18075, Note_on_c, 10, 77, 0
14, 18080, Note_on_c, 10, 77, 84
14, 18080, Note_on_c, 10, 89, 84
14, 18115, Note_on_c, 10, 77, 0
14, 18115, Note_on_c, 10, 89, 0
14, 18120, Note_on_c, 10, 77, 84
14, 18120, Note_on_c, 10, 89, 84
14, 18155, Note_on_c, 10, 77, 0
14, 18155, Note_on_c, 10, 89, 0
14, 18160, Note_on_c, 10, 89, 84
14, 18160, Note_on_c, 10, 77, 84
14, 18195, Note_on_c, 10, 89, 0
14, 18195, Note_on_c, 10, 77, 0
14, 18200, Note_on_c, 10, 77, 84
14, 18200, Note_on_c, 10, 89, 84
14, 18235, Note_on_c, 10, 77, 0
14, 18235, Note_on_c, 10, 89, 0
14, 18240, Note_on_c, 10, 89, 84
14, 18240, Note_on_c, 10, 77, 84
14, 18275, Note_on_c, 10, 89, 0
14, 18275, Note_on_c, 10, 77, 0
14, 18280, Note_on_c, 10, 89, 84
14, 18280, Note_on_c, 10, 77, 84
14, 18315, Note_on_c, 10, 89, 0
14, 18315, Note_on_c, 10, 77, 0
14, 18320, Note_on_c, 10, 77, 84
14, 18320, Note_on_c, 10, 89, 84
14, 18355, Note_on_c, 10, 77, 0
14, 18355, Note_on_c, 10, 89, 0
14, 18360, Note_on_c, 10, 89, 84
14, 18360, Note_on_c, 10, 77, 84
14, 18395, Note_on_c, 10, 89, 0
14, 18395, Note_on_c, 10, 77, 0
14, 18400, Note_on_c, 10, 77, 84
14, 18400, Note_on_c, 10, 89, 84
14, 18435, Note_on_c, 10, 77, 0
14, 18435, Note_on_c, 10, 89, 0
14, 18440, Note_on_c, 10, 77, 84
14, 18440, Note_on_c, 10, 89, 84
14, 18475, Note_on_c, 10, 77, 0
14, 18475, Note_on_c, 10, 89, 0
14, 18480, Note_on_c, 10, 77, 84
14, 18480, Note_on_c, 10, 89, 84
14, 18515, Note_on_c, 10, 77, 0
14, 18515, Note_on_c, 10, 89, 0
14, 18520, Note_on_c, 10, 89, 84
14, 18520, Note_on_c, 10, 77, 84
14, 18555, Note_on_c, 10, 89, 0
14, 18555, Note_on_c, 10, 77, 0
14, 18560, Note_on_c, 10, 89, 84
14, 18560, Note_on_c, 10, 77, 84
14, 18595, Note_on_c, 10, 89, 0
14, 18595, Note_on_c, 10, 77, 0
14, 18600, Note_on_c, 10, 89, 84
14, 18600, Note_on_c, 10, 77, 84
14, 18635, Note_on_c, 10, 89, 0
14, 18635, Note_on_c, 10, 77, 0
14, 18640, Note_on_c, 10, 89, 84
14, 18640, Note_on_c, 10, 77, 84
14, 18675, Note_on_c, 10, 89, 0
14, 18675, Note_on_c, 10, 77, 0
14, 18680, Note_on_c, 10, 77, 84
14, 18680, Note_on_c, 10, 89, 84
14, 18715, Note_on_c, 10, 77, 0
14, 18715, Note_on_c, 10, 89, 0
14, 18720, Note_on_c, 10, 89, 84
14, 18720, Note_on_c, 10, 77, 84
14, 18755, Note_on_c, 10, 89, 0
14, 18755, Note_on_c, 10, 77, 0
14, 18760, Note_on_c, 10, 89, 84
14, 18760, Note_on_c, 10, 77, 84
14, 18795, Note_on_c, 10, 89, 0
14, 18795, Note_on_c, 10, 77, 0
14, 18800, Note_on_c, 10, 77, 84
14, 18800, Note_on_c, 10, 89, 84
14, 18835, Note_on_c, 10, 77, 0
14, 18835, Note_on_c, 10, 89, 0
14, 18840, Note_on_c, 10, 89, 84
14, 18840, Note_on_c, 10, 77, 84
14, 18875, Note_on_c, 10, 89, 0
14, 18875, Note_on_c, 10, 77, 0
14, 18880, Note_on_c, 10, 89, 84
14, 18880, Note_on_c, 10, 77, 84
14, 18915, Note_on_c, 10, 89, 0
14, 18915, Note_on_c, 10, 77, 0
14, 18920, Note_on_c, 10, 77, 84
14, 18920, Note_on_c, 10, 89, 84
14, 18955, Note_on_c, 10, 77, 0
14, 18955, Note_on_c, 10, 89, 0
14, 18960, Note_on_c, 10, 89, 84
14, 18960, Note_on_c, 10, 77, 84
14, 18995, Note_on_c, 10, 89, 0
14, 18995, Note_on_c, 10, 77, 0
14, 19000, Note_on_c, 10, 77, 84
14, 19000, Note_on_c, 10, 89, 84
14, 19035, Note_on_c, 10, 77, 0
14, 19035, Note_on_c, 10, 89, 0
14, 19040, Note_on_c, 10, 77, 84
14, 19040, Note_on_c, 10, 89, 84
14, 19075, Note_on_c, 10, 77, 0
14, 19075, Note_on_c, 10, 89, 0
14, 19080, Note_on_c, 10, 77, 84
14, 19080, Note_on_c, 10, 89, 84
14, 19115, Note_on_c, 10, 77, 0
14, 19115, Note_on_c, 10, 89, 0
14, 19120, Note_on_c, 10, 89, 84
14, 19120, Note_on_c, 10, 77, 84
14, 19155, Note_on_c, 10, 89, 0
14, 19155, Note_on_c, 10, 77, 0
14, 19160, Note_on_c, 10, 77, 84
14, 19160, Note_on_c, 10, 89, 84
14, 19195, Note_on_c, 10, 77, 0
14, 19195, Note_on_c, 10, 89, 0
14, 19200, Note_on_c, 10, 89, 84
14, 19200, Note_on_c, 10, 77, 84
14, 19235, Note_on_c, 10, 89, 0
14, 19235, Note_on_c, 10, 77, 0
14, 19240, Note_on_c, 10, 77, 84
14, 19240, Note_on_c, 10, 89, 84
14, 19275, Note_on_c, 10, 77, 0
14, 19275, Note_on_c, 10, 89, 0
14, 19280, Note_on_c, 10, 77, 84
14, 19280, Note_on_c, 10, 89, 84
14, 19315, Note_on_c, 10, 77, 0
14, 19315, Note_on_c, 10, 89, 0
14, 19320, Note_on_c, 10, 77, 84
14, 19320, Note_on_c, 10, 89, 84
14, 19355, Note_on_c, 10, 77, 0
14, 19355, Note_on_c, 10, 89, 0
14, 19360, Note_on_c, 10, 77, 84
14, 19360, Note_on_c, 10, 89, 84
14, 19395, Note_on_c, 10, 77, 0
14, 19395, Note_on_c, 10, 89, 0
14, 19400, Note_on_c, 10, 89, 84
14, 19400, Note_on_c, 10, 77, 84
14, 19435, Note_on_c, 10, 89, 0
14, 19435, Note_on_c, 10, 77, 0
14, 19440, Note_on_c, 10, 89, 84
14, 19440, Note_on_c, 10, 77, 84
14, 19475, Note_on_c, 10, 89, 0
14, 19475, Note_on_c, 10, 77, 0
14, 19480, Note_on_c, 10, 77, 84
14, 19480, Note_on_c, 10, 89, 84
14, 19515, Note_on_c, 10, 77, 0
14, 19515, Note_on_c, 10, 89, 0
14, 19520, Note_on_c, 10, 89, 84
14, 19520, Note_on_c, 10, 77, 84
14, 19555, Note_on_c, 10, 89, 0
14, 19555, Note_on_c, 10, 77, 0
14, 19560, Note_on_c, 10, 89, 84
14, 19560, Note_on_c, 10, 77, 84
14, 19595, Note_on_c, 10, 89, 0
14, 19595, Note_on_c, 10, 77, 0
14, 19600, Note_on_c, 10, 77, 84
14, 19600, Note_on_c, 10, 89, 84
14, 19635, Note_on_c, 10, 77, 0
14, 19635, Note_on_c, 10, 89, 0
14, 19640, Note_on_c, 10, 77, 84
14, 19640, Note_on_c, 10, 89, 84
14, 19675, Note_on_c, 10, 77, 0
14, 19675, Note_on_c, 10, 89, 0
14, 19680, Note_on_c, 10, 89, 84
14, 19680, Note_on_c, 10, 77, 84
14, 19715, Note_on_c, 10, 89, 0
14, 19715, Note_on_c, 10, 77, 0
14, 19720, Note_on_c, 10, 89, 84
14, 19720, Note_on_c, 10, 77, 84
14, 19755, Note_on_c, 10, 89, 0
14, 19755, Note_on_c, 10, 77, 0
14, 19760, Note_on_c, 10, 89, 84
14, 19760, Note_on_c, 10, 77, 84
14, 19795, Note_on_c, 10, 89, 0
14, 19795, Note_on_c, 10, 77, 0
14, 19800, Note_on_c, 10, 77, 84
14, 19800, Note_on_c, 10, 89, 84
14, 19835, Note_on_c, 10, 77, 0
14, 19835, Note_on_c, 10, 89, 0
14, 19840, Note_on_c, 10, 89, 84
14, 19840, Note_on_c, 10, 77, 84
14, 19875, Note_on_c, 10, 89, 0
14, 19875, Note_on_c, 10, 77, 0
14, 19880, Note_on_c, 10, 89, 84
14, 19880, Note_on_c, 10, 77, 84
14, 19915, Note_on_c, 10, 89, 0
14, 19915, Note_on_c, 10, 77, 0
14, 19920, Note_on_c, 10, 89, 84
14, 19920, Note_on_c, 10, 77, 84
14, 19955, Note_on_c, 10, 89, 0
14, 19955, Note_on_c, 10, 77, 0
14, 19960, Note_on_c, 10, 89, 84
14, 19960, Note_on_c, 10, 77, 84
14, 19995, Note_on_c, 10, 89, 0
14, 19995, Note_on_c, 10, 77, 0
14, 20000, Note_on_c, 10, 77, 84
14, 20000, Note_on_c, 10, 89, 84
14, 20035, Note_on_c, 10, 77, 0
14, 20035, Note_on_c, 10, 89, 0
14, 20040, Note_on_c, 10, 79, 84
14, 20040, Note_on_c, 10, 91, 84
14, 20075, Note_on_c, 10, 79, 0
14, 20075, Note_on_c, 10, 91, 0
14, 20080, Note_on_c, 10, 91, 84
14, 20080, Note_on_c, 10, 79, 84
14, 20115, Note_on_c, 10, 91, 0
14, 20115, Note_on_c, 10, 79, 0
14, 20120, Note_on_c, 10, 79, 84
14, 20120, Note_on_c, 10, 91, 84
14, 20155, Note_on_c, 10, 79, 0
14, 20155, Note_on_c, 10, 91, 0
14, 20160, Note_on_c, 10, 79, 84
14, 20160, Note_on_c, 10, 91, 84
14, 20195, Note_on_c, 10, 79, 0
14, 20195, Note_on_c, 10, 91, 0
14, 20200, Note_on_c, 10, 91, 84
14, 20200, Note_on_c, 10, 79, 84
14, 20235, Note_on_c, 10, 91, 0
14, 20235, Note_on_c, 10, 79, 0
14, 20240, Note_on_c, 10, 79, 84
14, 20240, Note_on_c, 10, 91, 84
14, 20275, Note_on_c, 10, 79, 0
14, 20275, Note_on_c, 10, 91, 0
14, 20280, Note_on_c, 10, 91, 84
14, 20280, Note_on_c, 10, 79, 84
14, 20315, Note_on_c, 10, 91, 0
14, 20315, Note_on_c, 10, 79, 0
14, 20320, Note_on_c, 10, 91, 84
14, 20320, Note_on_c, 10, 79, 84
14, 20355, Note_on_c, 10, 91, 0
14, 20355, Note_on_c, 10, 79, 0
14, 20360, Note_on_c, 10, 91, 84
14, 20360, Note_on_c, 10, 79, 84
14, 20395, Note_on_c, 10, 91, 0
14, 20395, Note_on_c, 10, 79, 0
14, 20400, Note_on_c, 10, 79, 84
14, 20400, Note_on_c, 10, 91, 84
14, 20435, Note_on_c, 10, 79, 0
14, 20435, Note_on_c, 10, 91, 0
14, 20440, Note_on_c, 10, 91, 84
14, 20440, Note_on_c, 10, 79, 84
14, 20475, Note_on_c, 10, 91, 0
14, 20475, Note_on_c, 10, 79, 0
14, 20480, Note_on_c, 10, 91, 84
14, 20480, Note_on_c, 10, 79, 84
14, 20515, Note_on_c, 10, 91, 0
14, 20515, Note_on_c, 10, 79, 0
14, 20520, Note_on_c, 10, 91, 84
14, 20520, Note_on_c, 10, 79, 84
14, 20555, Note_on_c, 10, 91, 0
14, 20555, Note_on_c, 10, 79, 0
14, 20560, Note_on_c, 10, 91, 84
14, 20560, Note_on_c, 10, 79, 84
14, 20595, Note_on_c, 10, 91, 0
14, 20595, Note_on_c, 10, 79, 0
14, 20600, Note_on_c, 10, 79, 84
14, 20600, Note_on_c, 10, 91, 84
14, 20635, Note_on_c, 10, 79, 0
14, 20635, Note_on_c, 10, 91, 0
14, 20640, Note_on_c, 10, 91, 84
14, 20640, Note_on_c, 10, 79, 84
14, 20675, Note_on_c, 10, 91, 0
14, 20675, Note_on_c, 10, 79, 0
14, 20680, Note_on_c, 10, 91, 84
14, 20680, Note_on_c, 10, 79, 84
14, 20715, Note_on_c, 10, 91, 0
14, 20715, Note_on_c, 10, 79, 0
14, 20720, Note_on_c, 10, 79, 84
14, 20720, Note_on_c, 10, 91, 84
14, 20755, Note_on_c, 10, 79, 0
14, 20755, Note_on_c, 10, 91, 0
14, 20760, Note_on_c, 10, 91, 84
14, 20760, Note_on_c, 10, 79, 84
14, 20795, Note_on_c, 10, 91, 0
14, 20795, Note_on_c, 10, 79, 0
14, 20800, Note_on_c, 10, 91, 84
14, 20800, Note_on_c, 10, 79, 84
14, 20835, Note_on_c, 10, 91, 0
14, 20835, Note_on_c, 10, 79, 0
14, 20840, Note_on_c, 10, 91, 84
14, 20840, Note_on_c, 10, 79, 84
14, 20875, Note_on_c, 10, 91, 0
14, 20875, Note_on_c, 10, 79, 0
14, 20880, Note_on_c, 10, 91, 84
14, 20880, Note_on_c, 10, 79, 84
14, 20915, Note_on_c, 10, 91, 0
14, 20915, Note_on_c, 10, 79, 0
14, 20920, Note_on_c, 10, 79, 84
14, 20920, Note_on_c, 10, 91, 84
14, 20955, Note_on_c, 10, 79, 0
14, 20955, Note_on_c, 10, 91, 0
14, 20960, Note_on_c, 10, 91, 84
14, 20960, Note_on_c, 10, 79, 84
14, 20995, Note_on_c, 10, 91, 0
14, 20995, Note_on_c, 10, 79, 0
14, 21000, Note_on_c, 10, 89, 84
14, 21000, Note_on_c, 10, 77, 84
14, 21035, Note_on_c, 10, 89, 0
14, 21035, Note_on_c, 10, 77, 0
14, 21040, Note_on_c, 10, 89, 84
14, 21040, Note_on_c, 10, 77, 84
14, 21075, Note_on_c, 10, 89, 0
14, 21075, Note_on_c, 10, 77, 0
14, 21080, Note_on_c, 10, 89, 84
14, 21080, Note_on_c, 10, 77, 84
14, 21115, Note_on_c, 10, 89, 0
14, 21115, Note_on_c, 10, 77, 0
14, 21120, Note_on_c, 10, 89, 84
14, 21120, Note_on_c, 10, 77, 84
14, 21155, Note_on_c, 10, 89, 0
14, 21155, Note_on_c, 10, 77, 0
14, 21160, Note_on_c, 10, 77, 84
14, 21160, Note_on_c, 10, 89, 84
14, 21195, Note_on_c, 10, 77, 0
14, 21195, Note_on_c, 10, 89, 0
14, 21200, Note_on_c, 10, 89, 84
14, 21200, Note_on_c, 10, 77, 84
14, 21235, Note_on_c, 10, 89, 0
14, 21235, Note_on_c, 10, 77, 0
14, 21240, Note_on_c, 10, 89, 84
14, 21240, Note_on_c, 10, 77, 84
14, 21275, Note_on_c, 10, 89, 0
14, 21275, Note_on_c, 10, 77, 0
14, 21280, Note_on_c, 10, 89, 84
14, 21280, Note_on_c, 10, 77, 84
14, 21315, Note_on_c, 10, 89, 0
14, 21315, Note_on_c, 10, 77, 0
14, 21320, Note_on_c, 10, 77, 84
14, 21320, Note_on_c, 10, 89, 84
14, 21355, Note_on_c, 10, 77, 0
14, 21355, Note_on_c, 10, 89, 0
14, 21360, Note_on_c, 10, 89, 84
14, 21360, Note_on_c, 10, 77, 84
14, 21395, Note_on_c, 10, 89, 0
14, 21395, Note_on_c, 10, 77, 0
14, 21400, Note_on_c, 10, 77, 84
14, 21400, Note_on_c, 10, 89, 84
14, 21435, Note_on_c, 10, 77, 0
14, 21435, Note_on_c, 10, 89, 0
14, 21440, Note_on_c, 10, 77, 84
14, 21440, Note_on_c, 10, 89, 84
14, 21475, Note_on_c, 10, 77, 0
14, 21475, Note_on_c, 10, 89, 0
14, 21480, Note_on_c, 10, 77, 84
14, 21480, Note_on_c, 10, 89, 84
14, 21515, Note_on_c, 10, 77, 0
14, 21515, Note_on_c, 10, 89, 0
14, 21520, Note_on_c, 10, 77, 84
14, 21520, Note_on_c, 10, 89, 84
14, 21555, Note_on_c, 10, 77, 0
14, 21555, Note_on_c, 10, 89, 0
14, 21560, Note_on_c, 10, 77, 84
14, 21560, Note_on_c, 10, 89, 84
14, 21595, Note_on_c, 10, 77, 0
14, 21595, Note_on_c, 10, 89, 0
14, 21600, Note_on_c, 10, 89, 84
14, 21600, Note_on_c, 10, 77, 84
14, 21635, Note_on_c, 10, 89, 0
14, 21635, Note_on_c, 10, 77, 0
14, 21640, Note_on_c, 10, 89, 84
14, 21640, Note_on_c, 10, 77, 84
14, 21675, Note_on_c, 10, 89, 0
14, 21675, Note_on_c, 10, 77, 0
14, 21680, Note_on_c, 10, 77, 84
14, 21680, Note_on_c, 10, 89, 84
14, 21715, Note_on_c, 10, 77, 0
14, 21715, Note_on_c, 10, 89, 0
14, 21720, Note_on_c, 10, 77, 84
14, 21720, Note_on_c, 10, 89, 84
14, 21755, Note_on_c, 10, 77, 0
14, 21755, Note_on_c, 10, 89, 0
14, 21760, Note_on_c, 10, 89, 84
14, 21760, Note_on_c, 10, 77, 84
14, 21795, Note_on_c, 10, 89, 0
14, 21795, Note_on_c, 10, 77, 0
14, 21800, Note_on_c, 10, 77, 84
14, 21800, Note_on_c, 10, 89, 84
14, 21835, Note_on_c, 10, 77, 0
14, 21835, Note_on_c, 10, 89, 0
14, 21840, Note_on_c, 10, 89, 84
14, 21840, Note_on_c, 10, 77, 84
14, 21875, Note_on_c, 10, 89, 0
14, 21875, Note_on_c, 10, 77, 0
14, 21880, Note_on_c, 10, 77, 84
14, 21880, Note_on_c, 10, 89, 84
14, 21915, Note_on_c, 10, 77, 0
14, 21915, Note_on_c, 10, 89, 0
14, 21920, Note_on_c, 10, 89, 84
14, 21920, Note_on_c, 10, 77, 84
14, 21955, Note_on_c, 10, 89, 0
14, 21955, Note_on_c, 10, 77, 0
14, 21960, Note_on_c, 10, 88, 84
14, 21960, Note_on_c, 10, 76, 84
14, 21995, Note_on_c, 10, 88, 0
14, 21995, Note_on_c, 10, 76, 0
14, 22000, Note_on_c, 10, 88, 84
14, 22000, Note_on_c, 10, 76, 84
14, 22035, Note_on_c, 10, 88, 0
14, 22035, Note_on_c, 10, 76, 0
14, 22040, Note_on_c, 10, 76, 84
14, 22040, Note_on_c, 10, 88, 84
14, 22075, Note_on_c, 10, 76, 0
14, 22075, Note_on_c, 10, 88, 0
14, 22080, Note_on_c, 10, 88, 84
14, 22080, Note_on_c, 10, 76, 84
14, 22115, Note_on_c, 10, 88, 0
14, 22115, Note_on_c, 10, 76, 0
14, 22120, Note_on_c, 10, 88, 84
14, 22120, Note_on_c, 10, 76, 84
14, 22155, Note_on_c, 10, 88, 0
14, 22155, Note_on_c, 10, 76, 0
14, 22160, Note_on_c, 10, 76, 84
14, 22160, Note_on_c, 10, 88, 84
14, 22195, Note_on_c, 10, 76, 0
14, 22195, Note_on_c, 10, 88, 0
14, 22200, Note_on_c, 10, 76, 84
14, 22200, Note_on_c, 10, 88, 84
14, 22235, Note_on_c, 10, 76, 0
14, 22235, Note_on_c, 10, 88, 0
14, 22240, Note_on_c, 10, 76, 84
14, 22240, Note_on_c, 10, 88, 84
14, 22275, Note_on_c, 10, 76, 0
14, 22275, Note_on_c, 10, 88, 0
14, 22280, Note_on_c, 10, 76, 84
14, 22280, Note_on_c, 10, 88, 84
14, 22315, Note_on_c, 10, 76, 0
14, 22315, Note_on_c, 10, 88, 0
14, 22320, Note_on_c, 10, 77, 84
14, 22320, Note_on_c, 10, 89, 84
14, 22439, Note_on_c, 10, 77, 0
14, 22439, Note_on_c, 10, 89, 0
14, 23640, Note_on_c, 10, 72, 84
14, 23751, Note_on_c, 10, 72, 0
14, 23760, Note_on_c, 10, 72, 84
14, 23879, Note_on_c, 10, 72, 0
14, 23880, Note_on_c, 10, 77, 84
14, 24115, Note_on_c, 10, 77, 0
14, 24120, Note_on_c, 10, 72, 84
14, 24239, Note_on_c, 10, 72, 0
14, 24240, Note_on_c, 10, 79, 84
14, 24471, Note_on_c, 10, 79, 0
14, 24480, Note_on_c, 10, 72, 84
14, 24599, Note_on_c, 10, 72, 0
14, 24600, Note_on_c, 10, 81, 84
14, 24831, Note_on_c, 10, 81, 0
14, 24840, Note_on_c, 10, 84, 84
14, 24959, Note_on_c, 10, 84, 0
14, 24960, Note_on_c, 10, 82, 84
14, 25071, Note_on_c, 10, 82, 0
14, 25080, Note_on_c, 10, 79, 84
14, 25124, Note_on_c, 10, 79, 0
14, 25140, Note_on_c, 10, 76, 84
14, 25184, Note_on_c, 10, 76, 0
14, 26520, Note_on_c, 10, 72, 84
14, 26631, Note_on_c, 10, 72, 0
14, 26640, Note_on_c, 10, 72, 84
14, 26759, Note_on_c, 10, 72, 0
14, 26760, Note_on_c, 10, 77, 84
14, 26871, Note_on_c, 10, 77, 0
14, 26880, Note_on_c, 10, 77, 84
14, 26899, Note_on_c, 10, 77, 0
14, 26900, Note_on_c, 10, 79, 84
14, 26919, Note_on_c, 10, 79, 0
14, 26920, Note_on_c, 10, 77, 84
14, 26939, Note_on_c, 10, 77, 0
14, 26940, Note_on_c, 10, 79, 84
14, 26959, Note_on_c, 10, 79, 0
14, 26960, Note_on_c, 10, 76, 84
14, 26979, Note_on_c, 10, 76, 0
14, 26980, Note_on_c, 10, 77, 84
14, 26999, Note_on_c, 10, 77, 0
14, 27000, Note_on_c, 10, 72, 84
14, 27119, Note_on_c, 10, 72, 0
14, 27120, Note_on_c, 10, 79, 84
14, 27231, Note_on_c, 10, 79, 0
14, 27240, Note_on_c, 10, 79, 84
14, 27259, Note_on_c, 10, 79, 0
14, 27260, Note_on_c, 10, 81, 84
14, 27279, Note_on_c, 10, 81, 0
14, 27280, Note_on_c, 10, 79, 84
14, 27299, Note_on_c, 10, 79, 0
14, 27300, Note_on_c, 10, 81, 84
14, 27319, Note_on_c, 10, 81, 0
14, 27320, Note_on_c, 10, 77, 84
14, 27339, Note_on_c, 10, 77, 0
14, 27340, Note_on_c, 10, 79, 84
14, 27359, Note_on_c, 10, 79, 0
14, 27360, Note_on_c, 10, 72, 84
14, 27479, Note_on_c, 10, 72, 0
14, 27480, Note_on_c, 10, 81, 84
14, 27591, Note_on_c, 10, 81, 0
14, 27600, Note_on_c, 10, 81, 84
14, 27619, Note_on_c, 10, 81, 0
14, 27620, Note_on_c, 10, 82, 84
14, 27639, Note_on_c, 10, 82, 0
14, 27640, Note_on_c, 10, 81, 84
14, 27659, Note_on_c, 10, 81, 0
14, 27660, Note_on_c, 10, 82, 84
14, 27679, Note_on_c, 10, 82, 0
14, 27680, Note_on_c, 10, 79, 84
14, 27699, Note_on_c, 10, 79, 0
14, 27700, Note_on_c, 10, 81, 84
14, 27719, Note_on_c, 10, 81, 0
14, 27720, Note_on_c, 10, 84, 84
14, 27839, Note_on_c, 10, 84, 0
14, 27840, Note_on_c, 10, 82, 84
14, 27951, Note_on_c, 10, 82, 0
14, 27960, Note_on_c, 10, 79, 84
14, 28004, Note_on_c, 10, 79, 0
14, 28020, Note_on_c, 10, 76, 84
14, 28064, Note_on_c, 10, 76, 0
14, 28440, Note_on_c, 10, 76, 92
14, 28499, Note_on_c, 10, 76, 0
14, 28500, Note_on_c, 10, 76, 84
14, 28559, Note_on_c, 10, 76, 0
14, 28560, Note_on_c, 10, 74, 84
14, 28671, Note_on_c, 10, 74, 0
14, 28680, Note_on_c, 10, 71, 84
14, 28724, Note_on_c, 10, 71, 0
14, 28740, Note_on_c, 10, 67, 84
14, 28784, Note_on_c, 10, 67, 0
14, 29160, Note_on_c, 10, 79, 92
14, 29219, Note_on_c, 10, 79, 0
14, 29220, Note_on_c, 10, 79, 84
14, 29279, Note_on_c, 10, 79, 0
14, 29280, Note_on_c, 10, 77, 84
14, 29391, Note_on_c, 10, 77, 0
14, 29400, Note_on_c, 10, 74, 84
14, 29444, Note_on_c, 10, 74, 0
14, 29460, Note_on_c, 10, 71, 84
14, 29504, Note_on_c, 10, 71, 0
14, 29520, Note_on_c, 10, 81, 84
14, 29639, Note_on_c, 10, 81, 0
14, 29640, Note_on_c, 10, 79, 84
14, 29751, Note_on_c, 10, 79, 0
14, 29760, Note_on_c, 10, 76, 84
14, 29804, Note_on_c, 10, 76, 0
14, 29820, Note_on_c, 10, 72, 84
14, 29864, Note_on_c, 10, 72, 0
14, 29880, Note_on_c, 10, 69, 84
14, 29999, Note_on_c, 10, 69, 0
14, 30000, Note_on_c, 10, 67, 84
14, 30111, Note_on_c, 10, 67, 0
14, 30120, Note_on_c, 10, 64, 84
14, 30164, Note_on_c, 10, 64, 0
14, 30180, Note_on_c, 10, 60, 84
14, 30224, Note_on_c, 10, 60, 0
14, 30240, Note_on_c, 10, 55, 84
14, 30471, Note_on_c, 10, 55, 0
14, 30480, Note_on_c, 10, 76, 84
14, 30591, Note_on_c, 10, 76, 0
14, 30600, Note_on_c, 10, 76, 84
14, 30711, Note_on_c, 10, 76, 0
14, 30720, Note_on_c, 10, 76, 84
14, 30831, Note_on_c, 10, 76, 0
14, 30840, Note_on_c, 10, 76, 84
14, 30859, Note_on_c, 10, 76, 0
14, 30860, Note_on_c, 10, 77, 84
14, 30879, Note_on_c, 10, 77, 0
14, 30880, Note_on_c, 10, 76, 84
14, 30899, Note_on_c, 10, 76, 0
14, 30900, Note_on_c, 10, 77, 84
14, 30919, Note_on_c, 10, 77, 0
14, 30920, Note_on_c, 10, 74, 84
14, 30939, Note_on_c, 10, 74, 0
14, 30940, Note_on_c, 10, 76, 84
14, 30959, Note_on_c, 10, 76, 0
14, 30960, Note_on_c, 10, 79, 84
14, 31079, Note_on_c, 10, 79, 0
14, 31080, Note_on_c, 10, 77, 84
14, 31191, Note_on_c, 10, 77, 0
14, 31200, Note_on_c, 10, 74, 84
14, 31244, Note_on_c, 10, 74, 0
14, 31260, Note_on_c, 10, 71, 84
14, 31304, Note_on_c, 10, 71, 0
14, 31320, Note_on_c, 10, 67, 84
14, 31439, Note_on_c, 10, 67, 0
14, 31440, Note_on_c, 10, 65, 84
14, 31551, Note_on_c, 10, 65, 0
14, 31560, Note_on_c, 10, 62, 84
14, 31604, Note_on_c, 10, 62, 0
14, 31620, Note_on_c, 10, 59, 84
14, 31664, Note_on_c, 10, 59, 0
14, 31680, Note_on_c, 10, 55, 84
14, 31911, Note_on_c, 10, 55, 0
14, 31920, Note_on_c, 10, 74, 84
14, 32031, Note_on_c, 10, 74, 0
14, 32040, Note_on_c, 10, 74, 84
14, 32151, Note_on_c, 10, 74, 0
14, 32160, Note_on_c, 10, 74, 84
14, 32271, Note_on_c, 10, 74, 0
14, 32280, Note_on_c, 10, 74, 84
14, 32299, Note_on_c, 10, 74, 0
14, 32300, Note_on_c, 10, 76, 84
14, 32319, Note_on_c, 10, 76, 0
14, 32320, Note_on_c, 10, 74, 84
14, 32339, Note_on_c, 10, 74, 0
14, 32340, Note_on_c, 10, 76, 84
14, 32359, Note_on_c, 10, 76, 0
14, 32360, Note_on_c, 10, 72, 84
14, 32379, Note_on_c, 10, 72, 0
14, 32380, Note_on_c, 10, 74, 84
14, 32399, Note_on_c, 10, 74, 0
14, 32400, Note_on_c, 10, 81, 84
14, 32459, Note_on_c, 10, 81, 0
14, 32460, Note_on_c, 10, 79, 84
14, 32515, Note_on_c, 10, 79, 0
14, 32520, Note_on_c, 10, 78, 84
14, 32564, Note_on_c, 10, 78, 0
14, 32580, Note_on_c, 10, 79, 84
14, 32624, Note_on_c, 10, 79, 0
14, 32640, Note_on_c, 10, 76, 84
14, 32684, Note_on_c, 10, 76, 0
14, 32700, Note_on_c, 10, 72, 84
14, 32744, Note_on_c, 10, 72, 0
14, 32760, Note_on_c, 10, 69, 84
14, 32819, Note_on_c, 10, 69, 0
14, 32820, Note_on_c, 10, 67, 84
14, 32875, Note_on_c, 10, 67, 0
14, 32880, Note_on_c, 10, 66, 84
14, 32924, Note_on_c, 10, 66, 0
14, 32940, Note_on_c, 10, 67, 84
14, 32984, Note_on_c, 10, 67, 0
14, 33000, Note_on_c, 10, 64, 84
14, 33044, Note_on_c, 10, 64, 0
14, 33060, Note_on_c, 10, 60, 84
14, 33104, Note_on_c, 10, 60, 0
14, 33120, Note_on_c, 10, 55, 84
14, 33351, Note_on_c, 10, 55, 0
14, 33360, Note_on_c, 10, 76, 84
14, 33471, Note_on_c, 10, 76, 0
14, 33480, Note_on_c, 10, 76, 84
14, 33591, Note_on_c, 10, 76, 0
14, 33600, Note_on_c, 10, 76, 84
14, 33711, Note_on_c, 10, 76, 0
14, 33720, Note_on_c, 10, 76, 84
14, 33739, Note_on_c, 10, 76, 0
14, 33740, Note_on_c, 10, 78, 84
14, 33759, Note_on_c, 10, 78, 0
14, 33760, Note_on_c, 10, 76, 84
14, 33779, Note_on_c, 10, 76, 0
14, 33780, Note_on_c, 10, 78, 84
14, 33799, Note_on_c, 10, 78, 0
14, 33800, Note_on_c, 10, 74, 84
14, 33819, Note_on_c, 10, 74, 0
14, 33820, Note_on_c, 10, 76, 84
14, 33839, Note_on_c, 10, 76, 0
14, 33840, Note_on_c, 10, 79, 84
14, 33899, Note_on_c, 10, 79, 0
14, 33900, Note_on_c, 10, 77, 84
14, 33955, Note_on_c, 10, 77, 0
14, 33960, Note_on_c, 10, 76, 84
14, 34004, Note_on_c, 10, 76, 0
14, 34020, Note_on_c, 10, 77, 84
14, 34064, Note_on_c, 10, 77, 0
14, 34080, Note_on_c, 10, 74, 84
14, 34124, Note_on_c, 10, 74, 0
14, 34140, Note_on_c, 10, 71, 84
14, 34184, Note_on_c, 10, 71, 0
14, 34200, Note_on_c, 10, 67, 84
14, 34259, Note_on_c, 10, 67, 0
14, 34260, Note_on_c, 10, 65, 84
14, 34315, Note_on_c, 10, 65, 0
14, 34320, Note_on_c, 10, 64, 84
14, 34364, Note_on_c, 10, 64, 0
14, 34380, Note_on_c, 10, 65, 84
14, 34424, Note_on_c, 10, 65, 0
14, 34440, Note_on_c, 10, 62, 84
14, 34484, Note_on_c, 10, 62, 0
14, 34500, Note_on_c, 10, 59, 84
14, 34544, Note_on_c, 10, 59, 0
14, 34560, Note_on_c, 10, 55, 84
14, 34791, Note_on_c, 10, 55, 0
14, 34800, Note_on_c, 10, 74, 84
14, 34911, Note_on_c, 10, 74, 0
14, 34920, Note_on_c, 10, 74, 84
14, 35031, Note_on_c, 10, 74, 0
14, 35040, Note_on_c, 10, 74, 84
14, 35159, Note_on_c, 10, 74, 0
14, 35160, Note_on_c, 10, 74, 84
14, 35179, Note_on_c, 10, 74, 0
14, 35180, Note_on_c, 10, 76, 84
14, 35199, Note_on_c, 10, 76, 0
14, 35200, Note_on_c, 10, 74, 84
14, 35219, Note_on_c, 10, 74, 0
14, 35220, Note_on_c, 10, 76, 84
14, 35239, Note_on_c, 10, 76, 0
14, 35240, Note_on_c, 10, 72, 84
14, 35259, Note_on_c, 10, 72, 0
14, 35260, Note_on_c, 10, 74, 84
14, 35279, Note_on_c, 10, 74, 0
14, 35280, Note_on_c, 10, 72, 84
14, 35280, Note_on_c, 10, 76, 84
14, 35280, Note_on_c, 10, 64, 84
14, 35519, Note_on_c, 10, 72, 0
14, 35519, Note_on_c, 10, 76, 0
14, 35519, Note_on_c, 10, 64, 0
14, 35640, Note_on_c, 10, 77, 52
14, 35759, Note_on_c, 10, 77, 0
14, 35760, Note_on_c, 10, 76, 56
14, 35879, Note_on_c, 10, 76, 0
14, 35880, Note_on_c, 10, 81, 60
14, 35999, Note_on_c, 10, 81, 0
14, 36000, Note_on_c, 10, 79, 64
14, 36119, Note_on_c, 10, 79, 0
14, 36120, Note_on_c, 10, 83, 68
14, 36239, Note_on_c, 10, 83, 0
14, 36240, Note_on_c, 10, 84, 72
14, 36351, Note_on_c, 10, 84, 0
14, 36360, Note_on_c, 10, 77, 76
14, 36360, Note_on_c, 10, 67, 76
14, 36360, Note_on_c, 10, 86, 76
14, 36591, Note_on_c, 10, 77, 0
14, 36591, Note_on_c, 10, 67, 0
14, 36591, Note_on_c, 10, 86, 0
14, 36600, Note_on_c, 10, 77, 76
14, 36600, Note_on_c, 10, 86, 76
14, 36600, Note_on_c, 10, 67, 76
14, 36711, Note_on_c, 10, 77, 0
14, 36711, Note_on_c, 10, 86, 0
14, 36711, Note_on_c, 10, 67, 0
14, 36720, Note_on_c, 10, 76, 76
14, 36720, Note_on_c, 10, 84, 76
14, 36720, Note_on_c, 10, 67, 76
14, 36839, Note_on_c, 10, 76, 0
14, 36839, Note_on_c, 10, 84, 0
14, 36839, Note_on_c, 10, 67, 0
14, 36960, Note_on_c, 10, 76, 55
14, 37079, Note_on_c, 10, 76, 0
14, 37080, Note_on_c, 10, 77, 58
14, 37199, Note_on_c, 10, 77, 0
14, 37200, Note_on_c, 10, 76, 61
14, 37319, Note_on_c, 10, 76, 0
14, 37320, Note_on_c, 10, 81, 64
14, 37439, Note_on_c, 10, 81, 0
14, 37440, Note_on_c, 10, 79, 67
14, 37559, Note_on_c, 10, 79, 0
14, 37560, Note_on_c, 10, 83, 70
14, 37679, Note_on_c, 10, 83, 0
14, 37680, Note_on_c, 10, 84, 73
14, 37791, Note_on_c, 10, 84, 0
14, 37800, Note_on_c, 10, 67, 76
14, 37800, Note_on_c, 10, 77, 76
14, 37800, Note_on_c, 10, 86, 76
14, 38031, Note_on_c, 10, 67, 0
14, 38031, Note_on_c, 10, 77, 0
14, 38031, Note_on_c, 10, 86, 0
14, 38040, Note_on_c, 10, 77, 76
14, 38040, Note_on_c, 10, 86, 76
14, 38040, Note_on_c, 10, 67, 76
14, 38129, Note_on_c, 10, 77, 0
14, 38129, Note_on_c, 10, 86, 0
14, 38129, Note_on_c, 10, 67, 0
14, 38160, Note_on_c, 10, 84, 84
14, 38519, Note_on_c, 10, 84, 0
14, 38520, Note_on_c, 10, 79, 84
14, 38639, Note_on_c, 10, 79, 0
14, 38760, Note_on_c, 10, 88, 84
14, 38849, Note_on_c, 10, 88, 0
14, 38880, Note_on_c, 10, 86, 84
14, 39239, Note_on_c, 10, 86, 0
14, 39240, Note_on_c, 10, 81, 84
14, 39359, Note_on_c, 10, 81, 0
14, 39480, Note_on_c, 10, 89, 84
14, 39569, Note_on_c, 10, 89, 0
14, 39600, Control_c, 10, 11, 127
14, 39600, Note_on_c, 10, 84, 76
14, 39620, Control_c, 10, 11, 124
14, 39640, Control_c, 10, 11, 122
14, 39660, Control_c, 10, 11, 119
14, 39680, Control_c, 10, 11, 117
14, 39700, Control_c, 10, 11, 114
14, 39720, Control_c, 10, 11, 111
14, 39740, Control_c, 10, 11, 109
14, 39760, Control_c, 10, 11, 106
14, 39780, Control_c, 10, 11, 104
14, 39800, Control_c, 10, 11, 101
14, 39820, Control_c, 10, 11, 98
14, 39840, Control_c, 10, 11, 96
14, 39860, Control_c, 10, 11, 93
14, 39880, Control_c, 10, 11, 90
14, 39900, Control_c, 10, 11, 88
14, 39920, Control_c, 10, 11, 85
14, 39940, Control_c, 10, 11, 80
14, 40079, Note_on_c, 10, 84, 0
14, 40080, Note_on_c, 10, 79, 76
14, 40199, Note_on_c, 10, 79, 0
14, 40200, Note_on_c, 10, 88, 76
14, 40319, Note_on_c, 10, 88, 0
14, 40320, Note_on_c, 10, 84, 76
14, 40439, Note_on_c, 10, 84, 0
14, 40440, Note_on_c, 10, 79, 76
14, 40559, Note_on_c, 10, 79, 0
14, 40560, Note_on_c, 10, 88, 76
14, 40679, Note_on_c, 10, 88, 0
14, 40680, Note_on_c, 10, 84, 76
14, 40799, Note_on_c, 10, 84, 0
14, 40800, Note_on_c, 10, 79, 76
14, 40919, Note_on_c, 10, 79, 0
14, 40920, Note_on_c, 10, 88, 76
14, 41031, Note_on_c, 10, 88, 0
14, 41040, Note_on_c, 10, 84, 76
14, 41040, Control_c, 10, 11, 80
14, 41108, Control_c, 10, 11, 79
14, 41159, Note_on_c, 10, 84, 0
14, 41160, Note_on_c, 10, 79, 76
14, 41175, Control_c, 10, 11, 78
14, 41243, Control_c, 10, 11, 77
14, 41279, Note_on_c, 10, 79, 0
14, 41280, Note_on_c, 10, 88, 76
14, 41310, Control_c, 10, 11, 76
14, 41378, Control_c, 10, 11, 75
14, 41399, Note_on_c, 10, 88, 0
14, 41400, Note_on_c, 10, 79, 76
14, 41445, Control_c, 10, 11, 74
14, 41513, Control_c, 10, 11, 73
14, 41519, Note_on_c, 10, 79, 0
14, 41520, Note_on_c, 10, 76, 76
14, 41580, Control_c, 10, 11, 72
14, 41639, Note_on_c, 10, 76, 0
14, 41640, Note_on_c, 10, 84, 76
14, 41648, Control_c, 10, 11, 71
14, 41715, Control_c, 10, 11, 70
14, 41751, Note_on_c, 10, 84, 0
14, 41760, Note_on_c, 10, 79, 76
14, 41783, Control_c, 10, 11, 69
14, 41850, Control_c, 10, 11, 68
14, 41879, Note_on_c, 10, 79, 0
14, 41880, Note_on_c, 10, 76, 76
14, 41918, Control_c, 10, 11, 67
14, 41985, Control_c, 10, 11, 66
14, 41999, Note_on_c, 10, 76, 0
14, 42000, Note_on_c, 10, 84, 76
14, 42053, Control_c, 10, 11, 64
14, 42119, Note_on_c, 10, 84, 0
14, 42120, Note_on_c, 10, 76, 76
14, 42239, Note_on_c, 10, 76, 0
14, 42240, Note_on_c, 10, 72, 76
14, 42359, Note_on_c, 10, 72, 0
14, 42360, Note_on_c, 10, 79, 76
14, 42471, Note_on_c, 10, 79, 0
14, 42480, Note_on_c, 10, 76, 76
14, 42599, Note_on_c, 10, 76, 0
14, 42600, Note_on_c, 10, 72, 76
14, 42719, Note_on_c, 10, 72, 0
14, 42720, Note_on_c, 10, 79, 76
14, 42831, Note_on_c, 10, 79, 0
14, 42840, Note_on_c, 10, 72, 76
14, 42944, Note_on_c, 10, 72, 0
14, 42960, Note_on_c, 10, 67, 76
14, 43064, Note_on_c, 10, 67, 0
14, 43080, Note_on_c, 10, 76, 76
14, 43169, Note_on_c, 10, 76, 0
14, 43200, Note_on_c, 10, 72, 76
14, 43304, Note_on_c, 10, 72, 0
14, 43320, Note_on_c, 10, 67, 76
14, 43424, Note_on_c, 10, 67, 0
14, 43440, Note_on_c, 10, 76, 76
14, 43529, Note_on_c, 10, 76, 0
14, 43560, Note_on_c, 10, 72, 76
14, 43664, Note_on_c, 10, 72, 0
14, 43680, Note_on_c, 10, 67, 76
14, 43784, Note_on_c, 10, 67, 0
14, 43800, Note_on_c, 10, 72, 76
14, 43889, Note_on_c, 10, 72, 0
14, 44257, Control_c, 10, 11, 91
14, 44280, Note_on_c, 10, 60, 68
14, 44288, Control_c, 10, 11, 92
14, 44318, Control_c, 10, 11, 93
14, 44349, Control_c, 10, 11, 94
14, 44380, Control_c, 10, 11, 95
14, 44410, Control_c, 10, 11, 96
14, 44441, Control_c, 10, 11, 97
14, 44471, Control_c, 10, 11, 98
14, 44502, Control_c, 10, 11, 99
14, 44533, Control_c, 10, 11, 100
14, 44563, Control_c, 10, 11, 101
14, 44571, Note_on_c, 10, 60, 0
14, 44580, Note_on_c, 10, 62, 68
14, 44594, Control_c, 10, 11, 102
14, 44599, Note_on_c, 10, 62, 0
14, 44600, Note_on_c, 10, 60, 68
14, 44619, Note_on_c, 10, 60, 0
14, 44620, Note_on_c, 10, 59, 68
14, 44625, Control_c, 10, 11, 103
14, 44639, Note_on_c, 10, 59, 0
14, 44640, Note_on_c, 10, 60, 68
14, 44655, Control_c, 10, 11, 104
14, 44684, Note_on_c, 10, 60, 0
14, 44686, Control_c, 10, 11, 105
14, 44700, Note_on_c, 10, 62, 68
14, 44717, Control_c, 10, 11, 106
14, 44744, Note_on_c, 10, 62, 0
14, 44747, Control_c, 10, 11, 107
14, 44760, Note_on_c, 10, 64, 68
14, 44778, Control_c, 10, 11, 108
14, 44804, Note_on_c, 10, 64, 0
14, 44809, Control_c, 10, 11, 109
14, 44820, Note_on_c, 10, 65, 68
14, 44839, Control_c, 10, 11, 110
14, 44864, Note_on_c, 10, 65, 0
14, 44870, Control_c, 10, 11, 111
14, 44880, Note_on_c, 10, 67, 68
14, 44900, Control_c, 10, 11, 112
14, 44924, Note_on_c, 10, 67, 0
14, 44931, Control_c, 10, 11, 113
14, 44940, Note_on_c, 10, 69, 68
14, 44962, Control_c, 10, 11, 114
14, 44984, Note_on_c, 10, 69, 0
14, 44992, Control_c, 10, 11, 115
14, 45000, Note_on_c, 10, 70, 68
14, 45023, Control_c, 10, 11, 116
14, 45044, Note_on_c, 10, 70, 0
14, 45054, Control_c, 10, 11, 117
14, 45060, Note_on_c, 10, 72, 68
14, 45084, Control_c, 10, 11, 118
14, 45104, Note_on_c, 10, 72, 0
14, 45115, Control_c, 10, 11, 119
14, 45120, Note_on_c, 10, 74, 68
14, 45146, Control_c, 10, 11, 120
14, 45164, Note_on_c, 10, 74, 0
14, 45176, Control_c, 10, 11, 121
14, 45180, Note_on_c, 10, 76, 68
14, 45207, Control_c, 10, 11, 122
14, 45224, Note_on_c, 10, 76, 0
14, 45237, Control_c, 10, 11, 123
14, 45240, Note_on_c, 10, 77, 68
14, 45268, Control_c, 10, 11, 124
14, 45284, Note_on_c, 10, 77, 0
14, 45299, Control_c, 10, 11, 125
14, 45300, Note_on_c, 10, 79, 68
14, 45329, Control_c, 10, 11, 127
14, 45344, Note_on_c, 10, 79, 0
14, 45360, Note_on_c, 10, 81, 52
14, 45719, Note_on_c, 10, 81, 0
14, 45720, Note_on_c, 10, 77, 52
14, 45959, Note_on_c, 10, 77, 0
14, 45960, Note_on_c, 10, 84, 52
14, 46071, Note_on_c, 10, 84, 0
14, 46080, Note_on_c, 10, 81, 52
14, 46439, Note_on_c, 10, 81, 0
14, 46440, Note_on_c, 10, 77, 52
14, 46671, Note_on_c, 10, 77, 0
14, 46680, Note_on_c, 10, 72, 52
14, 46799, Note_on_c, 10, 72, 0
14, 46800, Note_on_c, 10, 77, 52
14, 46819, Note_on_c, 10, 77, 0
14, 46820, Note_on_c, 10, 79, 52
14, 46839, Note_on_c, 10, 79, 0
14, 46840, Note_on_c, 10, 77, 52
14, 46859, Note_on_c, 10, 77, 0
14, 46860, Note_on_c, 10, 79, 52
14, 46879, Note_on_c, 10, 79, 0
14, 46880, Note_on_c, 10, 77, 52
14, 46899, Note_on_c, 10, 77, 0
14, 46900, Note_on_c, 10, 79, 52
14, 46919, Note_on_c, 10, 79, 0
14, 46920, Note_on_c, 10, 77, 52
14, 46939, Note_on_c, 10, 77, 0
14, 46940, Note_on_c, 10, 79, 52
14, 46959, Note_on_c, 10, 79, 0
14, 46960, Note_on_c, 10, 77, 52
14, 46979, Note_on_c, 10, 77, 0
14, 46980, Note_on_c, 10, 79, 52
14, 46999, Note_on_c, 10, 79, 0
14, 47000, Note_on_c, 10, 76, 52
14, 47019, Note_on_c, 10, 76, 0
14, 47020, Note_on_c, 10, 77, 52
14, 47039, Note_on_c, 10, 77, 0
14, 47040, Note_on_c, 10, 81, 52
14, 47159, Note_on_c, 10, 81, 0
14, 47160, Note_on_c, 10, 84, 52
14, 47399, Note_on_c, 10, 84, 0
14, 47400, Note_on_c, 10, 81, 52
14, 47511, Note_on_c, 10, 81, 0
14, 47520, Note_on_c, 10, 82, 52
14, 48111, Note_on_c, 10, 82, 0
14, 48120, Note_on_c, 10, 79, 52
14, 48239, Note_on_c, 10, 79, 0
14, 48240, Note_on_c, 10, 82, 52
14, 48599, Note_on_c, 10, 82, 0
14, 48600, Note_on_c, 10, 79, 52
14, 48839, Note_on_c, 10, 79, 0
14, 48840, Note_on_c, 10, 84, 52
14, 48951, Note_on_c, 10, 84, 0
14, 48960, Note_on_c, 10, 81, 52
14, 49319, Note_on_c, 10, 81, 0
14, 49320, Note_on_c, 10, 77, 52
14, 49559, Note_on_c, 10, 77, 0
14, 49560, Note_on_c, 10, 81, 52
14, 49671, Note_on_c, 10, 81, 0
14, 49680, Note_on_c, 10, 79, 52
14, 49919, Note_on_c, 10, 79, 0
14, 49920, Note_on_c, 10, 74, 52
14, 50039, Note_on_c, 10, 74, 0
14, 50040, Note_on_c, 10, 76, 52
14, 50279, Note_on_c, 10, 76, 0
14, 50280, Note_on_c, 10, 72, 52
14, 50391, Note_on_c, 10, 72, 0
14, 50398, Control_c, 10, 11, 80
14, 50400, Note_on_c, 10, 72, 76
14, 50400, Control_c, 10, 11, 80
14, 50492, Control_c, 10, 11, 81
14, 50519, Note_on_c, 10, 72, 0
14, 50520, Note_on_c, 10, 77, 76
14, 50584, Control_c, 10, 11, 82
14, 50676, Control_c, 10, 11, 83
14, 50768, Control_c, 10, 11, 84
14, 50860, Control_c, 10, 11, 85
14, 50951, Control_c, 10, 11, 86
14, 50999, Note_on_c, 10, 77, 0
14, 51000, Note_on_c, 10, 81, 76
14, 51043, Control_c, 10, 11, 87
14, 51111, Note_on_c, 10, 81, 0
14, 51120, Note_on_c, 10, 77, 76
14, 51135, Control_c, 10, 11, 88
14, 51179, Note_on_c, 10, 77, 0
14, 51180, Note_on_c, 10, 81, 76
14, 51227, Control_c, 10, 11, 89
14, 51235, Note_on_c, 10, 81, 0
14, 51240, Note_on_c, 10, 77, 76
14, 51299, Note_on_c, 10, 77, 0
14, 51300, Note_on_c, 10, 81, 76
14, 51319, Control_c, 10, 11, 90
14, 51355, Note_on_c, 10, 81, 0
14, 51360, Note_on_c, 10, 77, 76
14, 51411, Control_c, 10, 11, 91
14, 51419, Note_on_c, 10, 77, 0
14, 51420, Note_on_c, 10, 81, 76
14, 51475, Note_on_c, 10, 81, 0
14, 51480, Note_on_c, 10, 77, 76
14, 51503, Control_c, 10, 11, 92
14, 51539, Note_on_c, 10, 77, 0
14, 51540, Note_on_c, 10, 81, 76
14, 51595, Note_on_c, 10, 81, 0
14, 51595, Control_c, 10, 11, 93
14, 51600, Note_on_c, 10, 77, 76
14, 51659, Note_on_c, 10, 77, 0
14, 51660, Note_on_c, 10, 81, 76
14, 51687, Control_c, 10, 11, 94
14, 51715, Note_on_c, 10, 81, 0
14, 51720, Note_on_c, 10, 77, 76
14, 51779, Note_on_c, 10, 77, 0
14, 51779, Control_c, 10, 11, 95
14, 51780, Note_on_c, 10, 81, 76
14, 51835, Note_on_c, 10, 81, 0
14, 51840, Note_on_c, 10, 77, 76
14, 51871, Control_c, 10, 11, 96
14, 51899, Note_on_c, 10, 77, 0
14, 51900, Note_on_c, 10, 81, 76
14, 51955, Note_on_c, 10, 81, 0
14, 51960, Note_on_c, 10, 77, 76
14, 51963, Control_c, 10, 11, 97
14, 52019, Note_on_c, 10, 77, 0
14, 52020, Note_on_c, 10, 81, 76
14, 52054, Control_c, 10, 11, 98
14, 52075, Note_on_c, 10, 81, 0
14, 52080, Note_on_c, 10, 77, 76
14, 52139, Note_on_c, 10, 77, 0
14, 52140, Note_on_c, 10, 81, 76
14, 52146, Control_c, 10, 11, 99
14, 52195, Note_on_c, 10, 81, 0
14, 52200, Note_on_c, 10, 77, 76
14, 52238, Control_c, 10, 11, 100
14, 52259, Note_on_c, 10, 77, 0
14, 52260, Note_on_c, 10, 81, 76
14, 52315, Note_on_c, 10, 81, 0
14, 52320, Note_on_c, 10, 77, 76
14, 52330, Control_c, 10, 11, 101
14, 52379, Note_on_c, 10, 77, 0
14, 52380, Note_on_c, 10, 81, 76
14, 52422, Control_c, 10, 11, 102
14, 52435, Note_on_c, 10, 81, 0
14, 52440, Note_on_c, 10, 77, 76
14, 52499, Note_on_c, 10, 77, 0
14, 52500, Note_on_c, 10, 81, 76
14, 52514, Control_c, 10, 11, 103
14, 52555, Note_on_c, 10, 81, 0
14, 52560, Note_on_c, 10, 77, 76
14, 52606, Control_c, 10, 11, 104
14, 52619, Note_on_c, 10, 77, 0
14, 52620, Note_on_c, 10, 81, 76
14, 52675, Note_on_c, 10, 81, 0
14, 52680, Note_on_c, 10, 77, 76
14, 52698, Control_c, 10, 11, 105
14, 52739, Note_on_c, 10, 77, 0
14, 52740, Note_on_c, 10, 81, 76
14, 52790, Control_c, 10, 11, 106
14, 52795, Note_on_c, 10, 81, 0
14, 52800, Note_on_c, 10, 77, 76
14, 52859, Note_on_c, 10, 77, 0
14, 52860, Note_on_c, 10, 81, 76
14, 52882, Control_c, 10, 11, 107
14, 52915, Note_on_c, 10, 81, 0
14, 52920, Note_on_c, 10, 77, 76
14, 52974, Control_c, 10, 11, 108
14, 52979, Note_on_c, 10, 77, 0
14, 52980, Note_on_c, 10, 81, 76
14, 53035, Note_on_c, 10, 81, 0
14, 53040, Note_on_c, 10, 77, 76
14, 53066, Control_c, 10, 11, 109
14, 53099, Note_on_c, 10, 77, 0
14, 53100, Note_on_c, 10, 81, 76
14, 53155, Note_on_c, 10, 81, 0
14, 53157, Control_c, 10, 11, 110
14, 53160, Note_on_c, 10, 77, 76
14, 53219, Note_on_c, 10, 77, 0
14, 53220, Note_on_c, 10, 81, 76
14, 53249, Control_c, 10, 11, 111
14, 53275, Note_on_c, 10, 81, 0
14, 53280, Note_on_c, 10, 77, 76
14, 53339, Note_on_c, 10, 77, 0
14, 53340, Note_on_c, 10, 81, 76
14, 53341, Control_c, 10, 11, 112
14, 53395, Note_on_c, 10, 81, 0
14, 53400, Note_on_c, 10, 77, 76
14, 53433, Control_c, 10, 11, 113
14, 53459, Note_on_c, 10, 77, 0
14, 53460, Note_on_c, 10, 81, 76
14, 53515, Note_on_c, 10, 81, 0
14, 53520, Note_on_c, 10, 77, 76
14, 53525, Control_c, 10, 11, 114
14, 53579, Note_on_c, 10, 77, 0
14, 53580, Note_on_c, 10, 81, 76
14, 53617, Control_c, 10, 11, 115
14, 53635, Note_on_c, 10, 81, 0
14, 53640, Note_on_c, 10, 77, 76
14, 53699, Note_on_c, 10, 77, 0
14, 53700, Note_on_c, 10, 81, 76
14, 53709, Control_c, 10, 11, 116
14, 53755, Note_on_c, 10, 81, 0
14, 53760, Note_on_c, 10, 77, 76
14, 53801, Control_c, 10, 11, 117
14, 53819, Note_on_c, 10, 77, 0
14, 53820, Note_on_c, 10, 81, 76
14, 53875, Note_on_c, 10, 81, 0
14, 53880, Note_on_c, 10, 77, 76
14, 53893, Control_c, 10, 11, 118
14, 53939, Note_on_c, 10, 77, 0
14, 53940, Note_on_c, 10, 81, 76
14, 53985, Control_c, 10, 11, 119
14, 53995, Note_on_c, 10, 81, 0
14, 54000, Note_on_c, 10, 77, 76
14, 54059, Note_on_c, 10, 77, 0
14, 54060, Note_on_c, 10, 81, 76
14, 54077, Control_c, 10, 11, 120
14, 54115, Note_on_c, 10, 81, 0
14, 54120, Note_on_c, 10, 77, 76
14, 54169, Control_c, 10, 11, 121
14, 54179, Note_on_c, 10, 77, 0
14, 54180, Note_on_c, 10, 81, 76
14, 54235, Note_on_c, 10, 81, 0
14, 54240, Note_on_c, 10, 77, 76
14, 54260, Control_c, 10, 11, 122
14, 54299, Note_on_c, 10, 77, 0
14, 54300, Note_on_c, 10, 81, 76
14, 54352, Control_c, 10, 11, 123
14, 54355, Note_on_c, 10, 81, 0
14, 54360, Note_on_c, 10, 77, 76
14, 54419, Note_on_c, 10, 77, 0
14, 54420, Note_on_c, 10, 81, 76
14, 54444, Control_c, 10, 11, 124
14, 54475, Note_on_c, 10, 81, 0
14, 54480, Note_on_c, 10, 77, 76
14, 54536, Control_c, 10, 11, 125
14, 54539, Note_on_c, 10, 77, 0
14, 54540, Note_on_c, 10, 81, 76
14, 54595, Note_on_c, 10, 81, 0
14, 54600, Note_on_c, 10, 77, 76
14, 54628, Control_c, 10, 11, 126
14, 54659, Note_on_c, 10, 77, 0
14, 54660, Note_on_c, 10, 81, 76
14, 54715, Note_on_c, 10, 81, 0
14, 54718, Control_c, 10, 11, 127
14, 54720, Note_on_c, 10, 77, 76
14, 54779, Note_on_c, 10, 77, 0
14, 54780, Note_on_c, 10, 81, 76
14, 54835, Note_on_c, 10, 81, 0
14, 54840, Note_on_c, 10, 77, 76
14, 54899, Note_on_c, 10, 77, 0
14, 54900, Note_on_c, 10, 81, 76
14, 54955, Note_on_c, 10, 81, 0
14, 54960, Note_on_c, 10, 77, 76
14, 55019, Note_on_c, 10, 77, 0
14, 55020, Note_on_c, 10, 81, 76
14, 55075, Note_on_c, 10, 81, 0
14, 55080, Note_on_c, 10, 77, 76
14, 55139, Note_on_c, 10, 77, 0
14, 55140, Note_on_c, 10, 81, 76
14, 55195, Note_on_c, 10, 81, 0
14, 55200, Note_on_c, 10, 77, 76
14, 55259, Note_on_c, 10, 77, 0
14, 55260, Note_on_c, 10, 81, 76
14, 55315, Note_on_c, 10, 81, 0
14, 55320, Note_on_c, 10, 65, 84
14, 55409, Note_on_c, 10, 65, 0
14, 55440, Note_on_c, 10, 69, 84
14, 55649, Note_on_c, 10, 69, 0
14, 55680, Note_on_c, 10, 72, 84
14, 55769, Note_on_c, 10, 72, 0
14, 55800, Note_on_c, 10, 75, 84
14, 56009, Note_on_c, 10, 75, 0
14, 56040, Note_on_c, 10, 77, 84
14, 56129, Note_on_c, 10, 77, 0
14, 56160, Note_on_c, 10, 81, 84
14, 56369, Note_on_c, 10, 81, 0
14, 56400, Note_on_c, 10, 84, 84
14, 56489, Note_on_c, 10, 84, 0
14, 56520, Note_on_c, 10, 87, 84
14, 56729, Note_on_c, 10, 87, 0
14, 56760, Note_on_c, 10, 72, 84
14, 56760, Note_on_c, 10, 65, 84
14, 56760, Note_on_c, 10, 81, 84
14, 56849, Note_on_c, 10, 72, 0
14, 56849, Note_on_c, 10, 65, 0
14, 56849, Note_on_c, 10, 81, 0
14, 56880, Note_on_c, 10, 65, 84
14, 56880, Note_on_c, 10, 82, 84
14, 56880, Note_on_c, 10, 74, 84
14, 57119, Note_on_c, 10, 65, 0
14, 57119, Note_on_c, 10, 82, 0
14, 57119, Note_on_c, 10, 74, 0
14, 58200, Note_on_c, 10, 70, 76
14, 58311, Note_on_c, 10, 70, 0
14, 58320, Note_on_c, 10, 70, 84
14, 58379, Note_on_c, 10, 70, 0
14, 58380, Note_on_c, 10, 70, 76
14, 58559, Note_on_c, 10, 70, 0
14, 58560, Note_on_c, 10, 69, 76
14, 58679, Note_on_c, 10, 69, 0
14, 59640, Note_on_c, 10, 74, 76
14, 59751, Note_on_c, 10, 74, 0
14, 59760, Note_on_c, 10, 74, 84
14, 59819, Note_on_c, 10, 74, 0
14, 59820, Note_on_c, 10, 74, 76
14, 59999, Note_on_c, 10, 74, 0
14, 60000, Note_on_c, 10, 75, 76
14, 60119, Note_on_c, 10, 75, 0
14, 61080, Note_on_c, 10, 77, 76
14, 61199, Note_on_c, 10, 77, 0
14, 61200, Note_on_c, 10, 74, 76
14, 61439, Note_on_c, 10, 74, 0
14, 61800, Note_on_c, 10, 77, 76
14, 61919, Note_on_c, 10, 77, 0
14, 61920, Note_on_c, 10, 79, 76
14, 62159, Note_on_c, 10, 79, 0
14, 62520, Note_on_c, 10, 79, 76
14, 62639, Note_on_c, 10, 79, 0
14, 62640, Note_on_c, 10, 77, 76
14, 62879, Note_on_c, 10, 77, 0
14, 63240, Note_on_c, 10, 77, 76
14, 63359, Note_on_c, 10, 77, 0
14, 63360, Note_on_c, 10, 75, 76
14, 63599, Note_on_c, 10, 75, 0
14, 63960, Note_on_c, 10, 75, 76
14, 64071, Note_on_c, 10, 75, 0
14, 64080, Note_on_c, 10, 74, 76
14, 64139, Note_on_c, 10, 74, 0
14, 64140, Note_on_c, 10, 70, 76
14, 64199, Note_on_c, 10, 70, 0
14, 64200, Note_on_c, 10, 69, 76
14, 64259, Note_on_c, 10, 69, 0
14, 64260, Note_on_c, 10, 70, 76
14, 64319, Note_on_c, 10, 70, 0
14, 64320, Note_on_c, 10, 74, 76
14, 64379, Note_on_c, 10, 74, 0
14, 64380, Note_on_c, 10, 70, 76
14, 64439, Note_on_c, 10, 70, 0
14, 64440, Note_on_c, 10, 75, 76
14, 64499, Note_on_c, 10, 75, 0
14, 64500, Note_on_c, 10, 70, 76
14, 64559, Note_on_c, 10, 70, 0
14, 64560, Note_on_c, 10, 75, 76
14, 64619, Note_on_c, 10, 75, 0
14, 64620, Note_on_c, 10, 70, 76
14, 64679, Note_on_c, 10, 70, 0
14, 64680, Note_on_c, 10, 77, 76
14, 64739, Note_on_c, 10, 77, 0
14, 64740, Note_on_c, 10, 70, 76
14, 64795, Note_on_c, 10, 70, 0
14, 64800, Note_on_c, 10, 79, 80
14, 64800, Note_on_c, 10, 70, 80
14, 65031, Note_on_c, 10, 79, 0
14, 65031, Note_on_c, 10, 70, 0
14, 65040, Note_on_c, 10, 79, 80
14, 65129, Note_on_c, 10, 79, 0
14, 65140, Note_on_c, 10, 79, 80
14, 65159, Note_on_c, 10, 79, 0
14, 65160, Note_on_c, 10, 82, 80
14, 65399, Note_on_c, 10, 82, 0
14, 65400, Note_on_c, 10, 79, 80
14, 65511, Note_on_c, 10, 79, 0
14, 65520, Note_on_c, 10, 70, 80
14, 65520, Note_on_c, 10, 77, 80
14, 65751, Note_on_c, 10, 70, 0
14, 65751, Note_on_c, 10, 77, 0
14, 65760, Note_on_c, 10, 77, 80
14, 65849, Note_on_c, 10, 77, 0
14, 65860, Note_on_c, 10, 77, 80
14, 65879, Note_on_c, 10, 77, 0
14, 65880, Note_on_c, 10, 82, 80
14, 66119, Note_on_c, 10, 82, 0
14, 66120, Note_on_c, 10, 77, 80
14, 66231, Note_on_c, 10, 77, 0
14, 66240, Note_on_c, 10, 76, 84
14, 66240, Note_on_c, 10, 70, 84
14, 66471, Note_on_c, 10, 76, 0
14, 66471, Note_on_c, 10, 70, 0
14, 66480, Note_on_c, 10, 76, 84
14, 66569, Note_on_c, 10, 76, 0
14, 66580, Note_on_c, 10, 76, 84
14, 66599, Note_on_c, 10, 76, 0
14, 66600, Note_on_c, 10, 82, 84
14, 66839, Note_on_c, 10, 82, 0
14, 66840, Note_on_c, 10, 76, 84
14, 66951, Note_on_c, 10, 76, 0
14, 66960, Note_on_c, 10, 77, 84
14, 66960, Control_c, 10, 11, 127
14, 66980, Control_c, 10, 11, 125
14, 67000, Control_c, 10, 11, 123
14, 67020, Control_c, 10, 11, 120
14, 67040, Control_c, 10, 11, 118
14, 67060, Control_c, 10, 11, 116
14, 67080, Control_c, 10, 11, 114
14, 67100, Control_c, 10, 11, 112
14, 67120, Control_c, 10, 11, 109
14, 67140, Control_c, 10, 11, 107
14, 67160, Control_c, 10, 11, 105
14, 67180, Control_c, 10, 11, 103
14, 67191, Note_on_c, 10, 77, 0
14, 67200, Note_on_c, 10, 77, 84
14, 67200, Control_c, 10, 11, 101
14, 67220, Control_c, 10, 11, 98
14, 67240, Control_c, 10, 11, 96
14, 67260, Control_c, 10, 11, 94
14, 67280, Control_c, 10, 11, 92
14, 67300, Control_c, 10, 11, 90
14, 67319, Note_on_c, 10, 77, 0
14, 67320, Control_c, 10, 11, 88
14, 67320, Note_on_c, 10, 78, 84
14, 67340, Control_c, 10, 11, 85
14, 67360, Control_c, 10, 11, 83
14, 67380, Control_c, 10, 11, 81
14, 67400, Control_c, 10, 11, 79
14, 67420, Control_c, 10, 11, 77
14, 67440, Control_c, 10, 11, 74
14, 67460, Control_c, 10, 11, 72
14, 67480, Control_c, 10, 11, 70
14, 67500, Control_c, 10, 11, 68
14, 67520, Control_c, 10, 11, 66
14, 67540, Control_c, 10, 11, 63
14, 67559, Note_on_c, 10, 78, 0
14, 67560, Note_on_c, 10, 75, 84
14, 67560, Control_c, 10, 11, 61
14, 67580, Control_c, 10, 11, 59
14, 67600, Control_c, 10, 11, 57
14, 67620, Control_c, 10, 11, 55
14, 67640, Control_c, 10, 11, 52
14, 67660, Control_c, 10, 11, 50
14, 67671, Note_on_c, 10, 75, 0
14, 67678, Control_c, 10, 11, 64
14, 67680, Note_on_c, 10, 73, 76
14, 68039, Note_on_c, 10, 73, 0
14, 68040, Note_on_c, 10, 68, 76
14, 68279, Note_on_c, 10, 68, 0
14, 68280, Note_on_c, 10, 77, 76
14, 68391, Note_on_c, 10, 77, 0
14, 68400, Note_on_c, 10, 69, 76
14, 68759, Note_on_c, 10, 69, 0
14, 68760, Note_on_c, 10, 65, 76
14, 68999, Note_on_c, 10, 65, 0
14, 69000, Note_on_c, 10, 72, 76
14, 69111, Note_on_c, 10, 72, 0
14, 69120, Note_on_c, 10, 70, 76
14, 69479, Note_on_c, 10, 70, 0
14, 69480, Note_on_c, 10, 65, 76
14, 69719, Note_on_c, 10, 65, 0
14, 69720, Note_on_c, 10, 73, 76
14, 69831, Note_on_c, 10, 73, 0
14, 69840, Note_on_c, 10, 68, 76
14, 70199, Note_on_c, 10, 68, 0
14, 70200, Note_on_c, 10, 67, 76
14, 70439, Note_on_c, 10, 67, 0
14, 70440, Note_on_c, 10, 74, 76
14, 70551, Note_on_c, 10, 74, 0
14, 70558, Control_c, 10, 11, 80
14, 70560, Note_on_c, 10, 76, 76
14, 70799, Note_on_c, 10, 76, 0
14, 71640, Control_c, 10, 11, 127
14, 71880, Note_on_c, 10, 77, 76
14, 71924, Note_on_c, 10, 77, 0
14, 71940, Note_on_c, 10, 74, 76
14, 71984, Note_on_c, 10, 74, 0
14, 72000, Note_on_c, 10, 71, 76
14, 72059, Note_on_c, 10, 71, 0
14, 72060, Note_on_c, 10, 72, 76
14, 72119, Note_on_c, 10, 72, 0
14, 72120, Note_on_c, 10, 74, 76
14, 72164, Note_on_c, 10, 74, 0
14, 72180, Note_on_c, 10, 76, 76
14, 72224, Note_on_c, 10, 76, 0
14, 72240, Note_on_c, 10, 77, 76
14, 72284, Note_on_c, 10, 77, 0
14, 72300, Note_on_c, 10, 76, 76
14, 72344, Note_on_c, 10, 76, 0
14, 72360, Note_on_c, 10, 79, 84
14, 72404, Note_on_c, 10, 79, 0
14, 72420, Note_on_c, 10, 77, 76
14, 72464, Note_on_c, 10, 77, 0
14, 72480, Note_on_c, 10, 76, 76
14, 72524, Note_on_c, 10, 76, 0
14, 72540, Note_on_c, 10, 74, 76
14, 72584, Note_on_c, 10, 74, 0
14, 72600, Note_on_c, 10, 72, 76
14, 72644, Note_on_c, 10, 72, 0
14, 72660, Note_on_c, 10, 71, 76
14, 72704, Note_on_c, 10, 71, 0
14, 72720, Note_on_c, 10, 72, 76
14, 72779, Note_on_c, 10, 72, 0
14, 72780, Note_on_c, 10, 74, 76
14, 72839, Note_on_c, 10, 74, 0
14, 72840, Note_on_c, 10, 76, 76
14, 72884, Note_on_c, 10, 76, 0
14, 72900, Note_on_c, 10, 77, 76
14, 72944, Note_on_c, 10, 77, 0
14, 72960, Note_on_c, 10, 79, 76
14, 73004, Note_on_c, 10, 79, 0
14, 73020, Note_on_c, 10, 78, 76
14, 73064, Note_on_c, 10, 78, 0
14, 73080, Note_on_c, 10, 81, 84
14, 73124, Note_on_c, 10, 81, 0
14, 73140, Note_on_c, 10, 79, 76
14, 73184, Note_on_c, 10, 79, 0
14, 73200, Note_on_c, 10, 77, 76
14, 73244, Note_on_c, 10, 77, 0
14, 73260, Note_on_c, 10, 76, 76
14, 73304, Note_on_c, 10, 76, 0
14, 73320, Note_on_c, 10, 74, 76
14, 73364, Note_on_c, 10, 74, 0
14, 73380, Note_on_c, 10, 72, 76
14, 73424, Note_on_c, 10, 72, 0
14, 74760, Note_on_c, 10, 77, 76
14, 74804, Note_on_c, 10, 77, 0
14, 74820, Note_on_c, 10, 74, 76
14, 74864, Note_on_c, 10, 74, 0
14, 74880, Note_on_c, 10, 71, 76
14, 74939, Note_on_c, 10, 71, 0
14, 74940, Note_on_c, 10, 72, 76
14, 74999, Note_on_c, 10, 72, 0
14, 75000, Note_on_c, 10, 74, 76
14, 75044, Note_on_c, 10, 74, 0
14, 75060, Note_on_c, 10, 76, 76
14, 75104, Note_on_c, 10, 76, 0
14, 75120, Note_on_c, 10, 77, 76
14, 75164, Note_on_c, 10, 77, 0
14, 75180, Note_on_c, 10, 76, 76
14, 75224, Note_on_c, 10, 76, 0
14, 75240, Note_on_c, 10, 79, 84
14, 75284, Note_on_c, 10, 79, 0
14, 75300, Note_on_c, 10, 77, 76
14, 75344, Note_on_c, 10, 77, 0
14, 75360, Note_on_c, 10, 76, 76
14, 75404, Note_on_c, 10, 76, 0
14, 75420, Note_on_c, 10, 74, 76
14, 75464, Note_on_c, 10, 74, 0
14, 75480, Note_on_c, 10, 72, 76
14, 75524, Note_on_c, 10, 72, 0
14, 75540, Note_on_c, 10, 71, 76
14, 75584, Note_on_c, 10, 71, 0
14, 75600, Note_on_c, 10, 72, 76
14, 75659, Note_on_c, 10, 72, 0
14, 75660, Note_on_c, 10, 74, 76
14, 75719, Note_on_c, 10, 74, 0
14, 75720, Note_on_c, 10, 76, 76
14, 75764, Note_on_c, 10, 76, 0
14, 75780, Note_on_c, 10, 77, 76
14, 75824, Note_on_c, 10, 77, 0
14, 75840, Note_on_c, 10, 79, 76
14, 75884, Note_on_c, 10, 79, 0
14, 75900, Note_on_c, 10, 78, 76
14, 75944, Note_on_c, 10, 78, 0
14, 75960, Note_on_c, 10, 81, 84
14, 76004, Note_on_c, 10, 81, 0
14, 76020, Note_on_c, 10, 79, 76
14, 76064, Note_on_c, 10, 79, 0
14, 76080, Note_on_c, 10, 77, 76
14, 76124, Note_on_c, 10, 77, 0
14, 76140, Note_on_c, 10, 76, 76
14, 76184, Note_on_c, 10, 76, 0
14, 76200, Note_on_c, 10, 74, 76
14, 76244, Note_on_c, 10, 74, 0
14, 76260, Note_on_c, 10, 72, 76
14, 76304, Note_on_c, 10, 72, 0
14, 76320, Note_on_c, 10, 72, 84
14, 76379, Note_on_c, 10, 72, 0
14, 76380, Note_on_c, 10, 74, 84
14, 76435, Note_on_c, 10, 74, 0
14, 76440, Note_on_c, 10, 76, 84
14, 76484, Note_on_c, 10, 76, 0
14, 76500, Note_on_c, 10, 77, 84
14, 76544, Note_on_c, 10, 77, 0
14, 76560, Note_on_c, 10, 79, 84
14, 76604, Note_on_c, 10, 79, 0
14, 76620, Note_on_c, 10, 78, 84
14, 76664, Note_on_c, 10, 78, 0
14, 76680, Note_on_c, 10, 81, 92
14, 76724, Note_on_c, 10, 81, 0
14, 76740, Note_on_c, 10, 79, 84
14, 76784, Note_on_c, 10, 79, 0
14, 76800, Note_on_c, 10, 77, 84
14, 76844, Note_on_c, 10, 77, 0
14, 76860, Note_on_c, 10, 76, 84
14, 76904, Note_on_c, 10, 76, 0
14, 76920, Note_on_c, 10, 74, 84
14, 76964, Note_on_c, 10, 74, 0
14, 76980, Note_on_c, 10, 72, 84
14, 77024, Note_on_c, 10, 72, 0
14, 77040, Note_on_c, 10, 72, 84
14, 77099, Note_on_c, 10, 72, 0
14, 77100, Note_on_c, 10, 74, 84
14, 77155, Note_on_c, 10, 74, 0
14, 77160, Note_on_c, 10, 76, 84
14, 77204, Note_on_c, 10, 76, 0
14, 77220, Note_on_c, 10, 77, 84
14, 77264, Note_on_c, 10, 77, 0
14, 77280, Note_on_c, 10, 79, 84
14, 77324, Note_on_c, 10, 79, 0
14, 77340, Note_on_c, 10, 78, 84
14, 77384, Note_on_c, 10, 78, 0
14, 77400, Note_on_c, 10, 81, 92
14, 77444, Note_on_c, 10, 81, 0
14, 77460, Note_on_c, 10, 79, 84
14, 77504, Note_on_c, 10, 79, 0
14, 77520, Note_on_c, 10, 77, 84
14, 77564, Note_on_c, 10, 77, 0
14, 77580, Note_on_c, 10, 76, 84
14, 77624, Note_on_c, 10, 76, 0
14, 77640, Note_on_c, 10, 74, 84
14, 77684, Note_on_c, 10, 74, 0
14, 77700, Note_on_c, 10, 72, 84
14, 77744, Note_on_c, 10, 72, 0
14, 77760, Note_on_c, 10, 72, 84
14, 77819, Note_on_c, 10, 72, 0
14, 77820, Note_on_c, 10, 74, 83
14, 77875, Note_on_c, 10, 74, 0
14, 77880, Note_on_c, 10, 76, 82
14, 77924, Note_on_c, 10, 76, 0
14, 77940, Note_on_c, 10, 77, 80
14, 77984, Note_on_c, 10, 77, 0
14, 78000, Note_on_c, 10, 79, 79
14, 78044, Note_on_c, 10, 79, 0
14, 78060, Note_on_c, 10, 78, 78
14, 78104, Note_on_c, 10, 78, 0
14, 78120, Note_on_c, 10, 81, 76
14, 78164, Note_on_c, 10, 81, 0
14, 78180, Note_on_c, 10, 79, 75
14, 78224, Note_on_c, 10, 79, 0
14, 78240, Note_on_c, 10, 77, 74
14, 78284, Note_on_c, 10, 77, 0
14, 78300, Note_on_c, 10, 76, 72
14, 78344, Note_on_c, 10, 76, 0
14, 78360, Note_on_c, 10, 74, 71
14, 78404, Note_on_c, 10, 74, 0
14, 78420, Note_on_c, 10, 72, 70
14, 78464, Note_on_c, 10, 72, 0
14, 78480, Note_on_c, 10, 72, 68
14, 78539, Note_on_c, 10, 72, 0
14, 78540, Note_on_c, 10, 74, 67
14, 78595, Note_on_c, 10, 74, 0
14, 78600, Note_on_c, 10, 76, 66
14, 78644, Note_on_c, 10, 76, 0
14, 78660, Note_on_c, 10, 77, 64
14, 78704, Note_on_c, 10, 77, 0
14, 78720, Note_on_c, 10, 79, 63
14, 78764, Note_on_c, 10, 79, 0
14, 78780, Note_on_c, 10, 78, 62
14, 78824, Note_on_c, 10, 78, 0
14, 78840, Note_on_c, 10, 81, 60
14, 78884, Note_on_c, 10, 81, 0
14, 78900, Note_on_c, 10, 79, 59
14, 78944, Note_on_c, 10, 79, 0
14, 78960, Note_on_c, 10, 77, 58
14, 79004, Note_on_c, 10, 77, 0
14, 79020, Note_on_c, 10, 76, 56
14, 79064, Note_on_c, 10, 76, 0
14, 79080, Note_on_c, 10, 74, 55
14, 79124, Note_on_c, 10, 74, 0
14, 79140, Note_on_c, 10, 72, 54
14, 79184, Note_on_c, 10, 72, 0
14, 79200, Note_on_c, 10, 81, 52
14, 79259, Note_on_c, 10, 81, 0
14, 79260, Note_on_c, 10, 79, 52
14, 79319, Note_on_c, 10, 79, 0
14, 79320, Note_on_c, 10, 77, 52
14, 79379, Note_on_c, 10, 77, 0
14, 79380, Note_on_c, 10, 76, 52
14, 79439, Note_on_c, 10, 76, 0
14, 79440, Note_on_c, 10, 74, 52
14, 79499, Note_on_c, 10, 74, 0
14, 79500, Note_on_c, 10, 72, 52
14, 79555, Note_on_c, 10, 72, 0
14, 79560, Note_on_c, 10, 81, 52
14, 79619, Note_on_c, 10, 81, 0
14, 79620, Note_on_c, 10, 79, 52
14, 79679, Note_on_c, 10, 79, 0
14, 79680, Note_on_c, 10, 77, 52
14, 79739, Note_on_c, 10, 77, 0
14, 79740, Note_on_c, 10, 76, 52
14, 79799, Note_on_c, 10, 76, 0
14, 79800, Note_on_c, 10, 74, 52
14, 79859, Note_on_c, 10, 74, 0
14, 79860, Note_on_c, 10, 72, 52
14, 79915, Note_on_c, 10, 72, 0
14, 79920, Note_on_c, 10, 81, 52
14, 79979, Note_on_c, 10, 81, 0
14, 79980, Note_on_c, 10, 79, 52
14, 80039, Note_on_c, 10, 79, 0
14, 80040, Note_on_c, 10, 77, 51
14, 80099, Note_on_c, 10, 77, 0
14, 80100, Note_on_c, 10, 76, 50
14, 80159, Note_on_c, 10, 76, 0
14, 80160, Note_on_c, 10, 74, 50
14, 80219, Note_on_c, 10, 74, 0
14, 80220, Note_on_c, 10, 72, 49
14, 80275, Note_on_c, 10, 72, 0
14, 80280, Note_on_c, 10, 81, 48
14, 80339, Note_on_c, 10, 81, 0
14, 80340, Note_on_c, 10, 79, 48
14, 80399, Note_on_c, 10, 79, 0
14, 80400, Note_on_c, 10, 77, 47
14, 80459, Note_on_c, 10, 77, 0
14, 80460, Note_on_c, 10, 76, 46
14, 80519, Note_on_c, 10, 76, 0
14, 80520, Note_on_c, 10, 74, 46
14, 80579, Note_on_c, 10, 74, 0
14, 80580, Note_on_c, 10, 72, 45
14, 80635, Note_on_c, 10, 72, 0
14, 80640, Note_on_c, 10, 81, 44
14, 80699, Note_on_c, 10, 81, 0
14, 80700, Note_on_c, 10, 79, 44
14, 80759, Note_on_c, 10, 79, 0
14, 80760, Note_on_c, 10, 77, 44
14, 80819, Note_on_c, 10, 77, 0
14, 80820, Note_on_c, 10, 76, 44
14, 80879, Note_on_c, 10, 76, 0
14, 80880, Note_on_c, 10, 74, 44
14, 80939, Note_on_c, 10, 74, 0
14, 80940, Note_on_c, 10, 72, 44
14, 80995, Note_on_c, 10, 72, 0
14, 81000, Note_on_c, 10, 81, 44
14, 81059, Note_on_c, 10, 81, 0
14, 81060, Note_on_c, 10, 79, 44
14, 81119, Note_on_c, 10, 79, 0
14, 81120, Note_on_c, 10, 77, 44
14, 81179, Note_on_c, 10, 77, 0
14, 81180, Note_on_c, 10, 76, 44
14, 81239, Note_on_c, 10, 76, 0
14, 81240, Note_on_c, 10, 74, 44
14, 81299, Note_on_c, 10, 74, 0
14, 81300, Note_on_c, 10, 72, 44
14, 81355, Note_on_c, 10, 72, 0
14, 81360, Note_on_c, 10, 81, 44
14, 81419, Note_on_c, 10, 81, 0
14, 81420, Note_on_c, 10, 79, 44
14, 81479, Note_on_c, 10, 79, 0
14, 81480, Note_on_c, 10, 77, 44
14, 81539, Note_on_c, 10, 77, 0
14, 81540, Note_on_c, 10, 76, 44
14, 81599, Note_on_c, 10, 76, 0
14, 81600, Note_on_c, 10, 74, 44
14, 81659, Note_on_c, 10, 74, 0
14, 81660, Note_on_c, 10, 72, 44
14, 81715, Note_on_c, 10, 72, 0
14, 81720, Note_on_c, 10, 84, 44
14, 81779, Note_on_c, 10, 84, 0
14, 81780, Note_on_c, 10, 82, 44
14, 81839, Note_on_c, 10, 82, 0
14, 81840, Note_on_c, 10, 81, 45
14, 81899, Note_on_c, 10, 81, 0
14, 81900, Note_on_c, 10, 79, 46
14, 81959, Note_on_c, 10, 79, 0
14, 81960, Note_on_c, 10, 77, 47
14, 82019, Note_on_c, 10, 77, 0
14, 82020, Note_on_c, 10, 76, 48
14, 82075, Note_on_c, 10, 76, 0
14, 82080, Note_on_c, 10, 74, 48
14, 82139, Note_on_c, 10, 74, 0
14, 82140, Note_on_c, 10, 72, 49
14, 82199, Note_on_c, 10, 72, 0
14, 82200, Note_on_c, 10, 70, 50
14, 82259, Note_on_c, 10, 70, 0
14, 82260, Note_on_c, 10, 69, 51
14, 82319, Note_on_c, 10, 69, 0
14, 82320, Note_on_c, 10, 67, 52
14, 82379, Note_on_c, 10, 67, 0
14, 82380, Note_on_c, 10, 65, 52
14, 82439, Note_on_c, 10, 65, 0
14, 82440, Note_on_c, 10, 64, 53
14, 82499, Note_on_c, 10, 64, 0
14, 82500, Note_on_c, 10, 62, 54
14, 82559, Note_on_c, 10, 62, 0
14, 82560, Note_on_c, 10, 60, 55
14, 82619, Note_on_c, 10, 60, 0
14, 82620, Note_on_c, 10, 58, 56
14, 82679, Note_on_c, 10, 58, 0
14, 82680, Note_on_c, 10, 57, 56
14, 82739, Note_on_c, 10, 57, 0
14, 82740, Note_on_c, 10, 55, 57
14, 82799, Note_on_c, 10, 55, 0
14, 82800, Note_on_c, 10, 58, 58
14, 82859, Note_on_c, 10, 58, 0
14, 82860, Note_on_c, 10, 60, 59
14, 82919, Note_on_c, 10, 60, 0
14, 82920, Note_on_c, 10, 64, 60
14, 82979, Note_on_c, 10, 64, 0
14, 82980, Note_on_c, 10, 67, 60
14, 83039, Note_on_c, 10, 67, 0
14, 83040, Note_on_c, 10, 70, 61
14, 83099, Note_on_c, 10, 70, 0
14, 83100, Note_on_c, 10, 72, 62
14, 83159, Note_on_c, 10, 72, 0
14, 83160, Note_on_c, 10, 76, 63
14, 83219, Note_on_c, 10, 76, 0
14, 83220, Note_on_c, 10, 79, 64
14, 83279, Note_on_c, 10, 79, 0
14, 83280, Note_on_c, 10, 82, 64
14, 83339, Note_on_c, 10, 82, 0
14, 83340, Note_on_c, 10, 79, 65
14, 83399, Note_on_c, 10, 79, 0
14, 83400, Note_on_c, 10, 84, 66
14, 83459, Note_on_c, 10, 84, 0
14, 83460, Note_on_c, 10, 82, 67
14, 83515, Note_on_c, 10, 82, 0
14, 83520, Note_on_c, 10, 81, 48
14, 83579, Note_on_c, 10, 81, 0
14, 83580, Note_on_c, 10, 82, 48
14, 83639, Note_on_c, 10, 82, 0
14, 83640, Note_on_c, 10, 81, 48
14, 83699, Note_on_c, 10, 81, 0
14, 83700, Note_on_c, 10, 79, 48
14, 83759, Note_on_c, 10, 79, 0
14, 83760, Note_on_c, 10, 77, 48
14, 83819, Note_on_c, 10, 77, 0
14, 83820, Note_on_c, 10, 76, 48
14, 83879, Note_on_c, 10, 76, 0
14, 83880, Note_on_c, 10, 77, 48
14, 83939, Note_on_c, 10, 77, 0
14, 83940, Note_on_c, 10, 79, 48
14, 83999, Note_on_c, 10, 79, 0
14, 84000, Note_on_c, 10, 81, 48
14, 84059, Note_on_c, 10, 81, 0
14, 84060, Note_on_c, 10, 82, 48
14, 84119, Note_on_c, 10, 82, 0
14, 84120, Note_on_c, 10, 84, 48
14, 84179, Note_on_c, 10, 84, 0
14, 84180, Note_on_c, 10, 82, 48
14, 84239, Note_on_c, 10, 82, 0
14, 84240, Note_on_c, 10, 81, 48
14, 84299, Note_on_c, 10, 81, 0
14, 84300, Note_on_c, 10, 82, 48
14, 84359, Note_on_c, 10, 82, 0
14, 84360, Note_on_c, 10, 81, 48
14, 84419, Note_on_c, 10, 81, 0
14, 84420, Note_on_c, 10, 79, 48
14, 84479, Note_on_c, 10, 79, 0
14, 84480, Note_on_c, 10, 77, 48
14, 84539, Note_on_c, 10, 77, 0
14, 84540, Note_on_c, 10, 76, 48
14, 84599, Note_on_c, 10, 76, 0
14, 84600, Note_on_c, 10, 77, 48
14, 84659, Note_on_c, 10, 77, 0
14, 84660, Note_on_c, 10, 76, 48
14, 84719, Note_on_c, 10, 76, 0
14, 84720, Note_on_c, 10, 77, 48
14, 84779, Note_on_c, 10, 77, 0
14, 84780, Note_on_c, 10, 72, 48
14, 84839, Note_on_c, 10, 72, 0
14, 84840, Note_on_c, 10, 74, 48
14, 84899, Note_on_c, 10, 74, 0
14, 84900, Note_on_c, 10, 76, 48
14, 84955, Note_on_c, 10, 76, 0
14, 84960, Note_on_c, 10, 77, 48
14, 85019, Note_on_c, 10, 77, 0
14, 85020, Note_on_c, 10, 79, 48
14, 85079, Note_on_c, 10, 79, 0
14, 85080, Note_on_c, 10, 77, 48
14, 85139, Note_on_c, 10, 77, 0
14, 85140, Note_on_c, 10, 76, 48
14, 85199, Note_on_c, 10, 76, 0
14, 85200, Note_on_c, 10, 77, 48
14, 85259, Note_on_c, 10, 77, 0
14, 85260, Note_on_c, 10, 79, 48
14, 85319, Note_on_c, 10, 79, 0
14, 85320, Note_on_c, 10, 81, 48
14, 85379, Note_on_c, 10, 81, 0
14, 85380, Note_on_c, 10, 82, 48
14, 85439, Note_on_c, 10, 82, 0
14, 85440, Note_on_c, 10, 84, 48
14, 85499, Note_on_c, 10, 84, 0
14, 85500, Note_on_c, 10, 83, 48
14, 85559, Note_on_c, 10, 83, 0
14, 85560, Note_on_c, 10, 84, 48
14, 85619, Note_on_c, 10, 84, 0
14, 85620, Note_on_c, 10, 81, 48
14, 85679, Note_on_c, 10, 81, 0
14, 85680, Note_on_c, 10, 82, 48
14, 85739, Note_on_c, 10, 82, 0
14, 85740, Note_on_c, 10, 84, 48
14, 85799, Note_on_c, 10, 84, 0
14, 85800, Note_on_c, 10, 86, 48
14, 85859, Note_on_c, 10, 86, 0
14, 85860, Note_on_c, 10, 84, 48
14, 85919, Note_on_c, 10, 84, 0
14, 85920, Note_on_c, 10, 82, 48
14, 85979, Note_on_c, 10, 82, 0
14, 85980, Note_on_c, 10, 84, 48
14, 86039, Note_on_c, 10, 84, 0
14, 86040, Note_on_c, 10, 82, 48
14, 86099, Note_on_c, 10, 82, 0
14, 86100, Note_on_c, 10, 84, 48
14, 86159, Note_on_c, 10, 84, 0
14, 86160, Note_on_c, 10, 82, 48
14, 86219, Note_on_c, 10, 82, 0
14, 86220, Note_on_c, 10, 81, 48
14, 86279, Note_on_c, 10, 81, 0
14, 86280, Note_on_c, 10, 79, 48
14, 86339, Note_on_c, 10, 79, 0
14, 86340, Note_on_c, 10, 81, 48
14, 86395, Note_on_c, 10, 81, 0
14, 86400, Note_on_c, 10, 82, 48
14, 86459, Note_on_c, 10, 82, 0
14, 86460, Note_on_c, 10, 84, 48
14, 86519, Note_on_c, 10, 84, 0
14, 86520, Note_on_c, 10, 82, 48
14, 86579, Note_on_c, 10, 82, 0
14, 86580, Note_on_c, 10, 81, 48
14, 86639, Note_on_c, 10, 81, 0
14, 86640, Note_on_c, 10, 79, 48
14, 86699, Note_on_c, 10, 79, 0
14, 86700, Note_on_c, 10, 78, 48
14, 86759, Note_on_c, 10, 78, 0
14, 86760, Note_on_c, 10, 79, 48
14, 86819, Note_on_c, 10, 79, 0
14, 86820, Note_on_c, 10, 81, 48
14, 86879, Note_on_c, 10, 81, 0
14, 86880, Note_on_c, 10, 82, 48
14, 86939, Note_on_c, 10, 82, 0
14, 86940, Note_on_c, 10, 83, 48
14, 86999, Note_on_c, 10, 83, 0
14, 87000, Note_on_c, 10, 84, 48
14, 87059, Note_on_c, 10, 84, 0
14, 87060, Note_on_c, 10, 82, 48
14, 87119, Note_on_c, 10, 82, 0
14, 87120, Note_on_c, 10, 81, 48
14, 87179, Note_on_c, 10, 81, 0
14, 87180, Note_on_c, 10, 82, 48
14, 87239, Note_on_c, 10, 82, 0
14, 87240, Note_on_c, 10, 81, 48
14, 87299, Note_on_c, 10, 81, 0
14, 87300, Note_on_c, 10, 79, 48
14, 87359, Note_on_c, 10, 79, 0
14, 87360, Note_on_c, 10, 81, 48
14, 87419, Note_on_c, 10, 81, 0
14, 87420, Note_on_c, 10, 79, 48
14, 87479, Note_on_c, 10, 79, 0
14, 87480, Note_on_c, 10, 77, 48
14, 87539, Note_on_c, 10, 77, 0
14, 87540, Note_on_c, 10, 79, 48
14, 87599, Note_on_c, 10, 79, 0
14, 87600, Note_on_c, 10, 77, 48
14, 87659, Note_on_c, 10, 77, 0
14, 87660, Note_on_c, 10, 76, 48
14, 87719, Note_on_c, 10, 76, 0
14, 87720, Note_on_c, 10, 77, 48
14, 87779, Note_on_c, 10, 77, 0
14, 87780, Note_on_c, 10, 81, 48
14, 87835, Note_on_c, 10, 81, 0
14, 87840, Note_on_c, 10, 81, 52
14, 87899, Note_on_c, 10, 81, 0
14, 87900, Note_on_c, 10, 79, 52
14, 87959, Note_on_c, 10, 79, 0
14, 87960, Note_on_c, 10, 77, 52
14, 88019, Note_on_c, 10, 77, 0
14, 88020, Note_on_c, 10, 79, 52
14, 88079, Note_on_c, 10, 79, 0
14, 88080, Note_on_c, 10, 74, 52
14, 88139, Note_on_c, 10, 74, 0
14, 88140, Note_on_c, 10, 79, 52
14, 88199, Note_on_c, 10, 79, 0
14, 88200, Note_on_c, 10, 77, 52
14, 88259, Note_on_c, 10, 77, 0
14, 88260, Note_on_c, 10, 76, 52
14, 88319, Note_on_c, 10, 76, 0
14, 88320, Note_on_c, 10, 74, 52
14, 88379, Note_on_c, 10, 74, 0
14, 88380, Note_on_c, 10, 76, 52
14, 88439, Note_on_c, 10, 76, 0
14, 88440, Note_on_c, 10, 72, 52
14, 88499, Note_on_c, 10, 72, 0
14, 88500, Note_on_c, 10, 76, 52
14, 88559, Note_on_c, 10, 76, 0
14, 88560, Note_on_c, 10, 72, 52
14, 88619, Note_on_c, 10, 72, 0
14, 88620, Note_on_c, 10, 77, 52
14, 88679, Note_on_c, 10, 77, 0
14, 88680, Note_on_c, 10, 72, 52
14, 88739, Note_on_c, 10, 72, 0
14, 88740, Note_on_c, 10, 70, 52
14, 88799, Note_on_c, 10, 70, 0
14, 88800, Note_on_c, 10, 69, 53
14, 88859, Note_on_c, 10, 69, 0
14, 88860, Note_on_c, 10, 70, 53
14, 88919, Note_on_c, 10, 70, 0
14, 88920, Note_on_c, 10, 72, 53
14, 88979, Note_on_c, 10, 72, 0
14, 88980, Note_on_c, 10, 74, 54
14, 89039, Note_on_c, 10, 74, 0
14, 89040, Note_on_c, 10, 76, 54
14, 89099, Note_on_c, 10, 76, 0
14, 89100, Note_on_c, 10, 77, 54
14, 89159, Note_on_c, 10, 77, 0
14, 89160, Note_on_c, 10, 79, 54
14, 89219, Note_on_c, 10, 79, 0
14, 89220, Note_on_c, 10, 81, 55
14, 89275, Note_on_c, 10, 81, 0
14, 89280, Note_on_c, 10, 77, 55
14, 89511, Note_on_c, 10, 77, 0
14, 89520, Note_on_c, 10, 81, 56
14, 89609, Note_on_c, 10, 81, 0
14, 89640, Note_on_c, 10, 81, 57
14, 89729, Note_on_c, 10, 81, 0
14, 89760, Note_on_c, 10, 77, 57
14, 89849, Note_on_c, 10, 77, 0
14, 89880, Note_on_c, 10, 84, 58
14, 89969, Note_on_c, 10, 84, 0
14, 90240, Note_on_c, 10, 81, 60
14, 90329, Note_on_c, 10, 81, 0
14, 90360, Note_on_c, 10, 81, 60
14, 90449, Note_on_c, 10, 81, 0
14, 90480, Note_on_c, 10, 72, 61
14, 90569, Note_on_c, 10, 72, 0
14, 90600, Note_on_c, 10, 77, 62
14, 90689, Note_on_c, 10, 77, 0
14, 90960, Note_on_c, 10, 81, 63
14, 91049, Note_on_c, 10, 81, 0
14, 91080, Note_on_c, 10, 81, 64
14, 91169, Note_on_c, 10, 81, 0
14, 91200, Note_on_c, 10, 77, 65
14, 91289, Note_on_c, 10, 77, 0
14, 91320, Note_on_c, 10, 84, 65
14, 91409, Note_on_c, 10, 84, 0
14, 91680, Note_on_c, 10, 82, 67
14, 91769, Note_on_c, 10, 82, 0
14, 91800, Note_on_c, 10, 82, 68
14, 91889, Note_on_c, 10, 82, 0
14, 91920, Note_on_c, 10, 77, 68
14, 92009, Note_on_c, 10, 77, 0
14, 92040, Note_on_c, 10, 79, 69
14, 92129, Note_on_c, 10, 79, 0
14, 92400, Note_on_c, 10, 82, 70
14, 92489, Note_on_c, 10, 82, 0
14, 92520, Note_on_c, 10, 82, 71
14, 92609, Note_on_c, 10, 82, 0
14, 92640, Note_on_c, 10, 79, 72
14, 92729, Note_on_c, 10, 79, 0
14, 92760, Note_on_c, 10, 84, 72
14, 92849, Note_on_c, 10, 84, 0
14, 93120, Note_on_c, 10, 81, 74
14, 93209, Note_on_c, 10, 81, 0
14, 93240, Note_on_c, 10, 81, 75
14, 93329, Note_on_c, 10, 81, 0
14, 93360, Note_on_c, 10, 77, 75
14, 93449, Note_on_c, 10, 77, 0
14, 93480, Note_on_c, 10, 84, 76
14, 93569, Note_on_c, 10, 84, 0
14, 93840, Note_on_c, 10, 79, 78
14, 93929, Note_on_c, 10, 79, 0
14, 93960, Note_on_c, 10, 79, 78
14, 94049, Note_on_c, 10, 79, 0
14, 94080, Note_on_c, 10, 76, 79
14, 94169, Note_on_c, 10, 76, 0
14, 94200, Note_on_c, 10, 84, 79
14, 94289, Note_on_c, 10, 84, 0
14, 94560, Note_on_c, 10, 77, 81
14, 94595, Note_on_c, 10, 77, 0
14, 94600, Note_on_c, 10, 77, 81
14, 94635, Note_on_c, 10, 77, 0
14, 94640, Note_on_c, 10, 77, 82
14, 94675, Note_on_c, 10, 77, 0
14, 94680, Note_on_c, 10, 77, 82
14, 94715, Note_on_c, 10, 77, 0
14, 94720, Note_on_c, 10, 77, 82
14, 94755, Note_on_c, 10, 77, 0
14, 94760, Note_on_c, 10, 77, 82
14, 94795, Note_on_c, 10, 77, 0
14, 94800, Note_on_c, 10, 81, 82
14, 94835, Note_on_c, 10, 81, 0
14, 94840, Note_on_c, 10, 81, 83
14, 94875, Note_on_c, 10, 81, 0
14, 94880, Note_on_c, 10, 81, 83
14, 94915, Note_on_c, 10, 81, 0
14, 94920, Note_on_c, 10, 84, 83
14, 94955, Note_on_c, 10, 84, 0
14, 94960, Note_on_c, 10, 84, 83
14, 94995, Note_on_c, 10, 84, 0
14, 95000, Note_on_c, 10, 84, 83
14, 95035, Note_on_c, 10, 84, 0
14, 95040, Note_on_c, 10, 89, 84
14, 95040, Note_on_c, 10, 77, 84
14, 95075, Note_on_c, 10, 89, 0
14, 95075, Note_on_c, 10, 77, 0
14, 95080, Note_on_c, 10, 77, 84
14, 95080, Note_on_c, 10, 89, 84
14, 95115, Note_on_c, 10, 77, 0
14, 95115, Note_on_c, 10, 89, 0
14, 95120, Note_on_c, 10, 89, 84
14, 95120, Note_on_c, 10, 77, 84
14, 95155, Note_on_c, 10, 89, 0
14, 95155, Note_on_c, 10, 77, 0
14, 95160, Note_on_c, 10, 89, 84
14, 95160, Note_on_c, 10, 77, 84
14, 95195, Note_on_c, 10, 89, 0
14, 95195, Note_on_c, 10, 77, 0
14, 95200, Note_on_c, 10, 89, 84
14, 95200, Note_on_c, 10, 77, 84
14, 95235, Note_on_c, 10, 89, 0
14, 95235, Note_on_c, 10, 77, 0
14, 95240, Note_on_c, 10, 77, 84
14, 95240, Note_on_c, 10, 89, 84
14, 95275, Note_on_c, 10, 77, 0
14, 95275, Note_on_c, 10, 89, 0
14, 95280, Note_on_c, 10, 89, 84
14, 95280, Note_on_c, 10, 77, 84
14, 95315, Note_on_c, 10, 89, 0
14, 95315, Note_on_c, 10, 77, 0
14, 95320, Note_on_c, 10, 77, 84
14, 95320, Note_on_c, 10, 89, 84
14, 95355, Note_on_c, 10, 77, 0
14, 95355, Note_on_c, 10, 89, 0
14, 95360, Note_on_c, 10, 89, 84
14, 95360, Note_on_c, 10, 77, 84
14, 95395, Note_on_c, 10, 89, 0
14, 95395, Note_on_c, 10, 77, 0
14, 95400, Note_on_c, 10, 77, 84
14, 95400, Note_on_c, 10, 89, 84
14, 95435, Note_on_c, 10, 77, 0
14, 95435, Note_on_c, 10, 89, 0
14, 95440, Note_on_c, 10, 77, 84
14, 95440, Note_on_c, 10, 89, 84
14, 95475, Note_on_c, 10, 77, 0
14, 95475, Note_on_c, 10, 89, 0
14, 95480, Note_on_c, 10, 77, 84
14, 95480, Note_on_c, 10, 89, 84
14, 95515, Note_on_c, 10, 77, 0
14, 95515, Note_on_c, 10, 89, 0
14, 95520, Note_on_c, 10, 89, 84
14, 95520, Note_on_c, 10, 77, 84
14, 95555, Note_on_c, 10, 89, 0
14, 95555, Note_on_c, 10, 77, 0
14, 95560, Note_on_c, 10, 77, 84
14, 95560, Note_on_c, 10, 89, 84
14, 95595, Note_on_c, 10, 77, 0
14, 95595, Note_on_c, 10, 89, 0
14, 95600, Note_on_c, 10, 89, 84
14, 95600, Note_on_c, 10, 77, 84
14, 95635, Note_on_c, 10, 89, 0
14, 95635, Note_on_c, 10, 77, 0
14, 95640, Note_on_c, 10, 77, 84
14, 95640, Note_on_c, 10, 89, 84
14, 95675, Note_on_c, 10, 77, 0
14, 95675, Note_on_c, 10, 89, 0
14, 95680, Note_on_c, 10, 77, 84
14, 95680, Note_on_c, 10, 89, 84
14, 95715, Note_on_c, 10, 77, 0
14, 95715, Note_on_c, 10, 89, 0
14, 95720, Note_on_c, 10, 89, 84
14, 95720, Note_on_c, 10, 77, 84
14, 95755, Note_on_c, 10, 89, 0
14, 95755, Note_on_c, 10, 77, 0
14, 95760, Note_on_c, 10, 77, 84
14, 95760, Note_on_c, 10, 89, 84
14, 95795, Note_on_c, 10, 77, 0
14, 95795, Note_on_c, 10, 89, 0
14, 95800, Note_on_c, 10, 89, 84
14, 95800, Note_on_c, 10, 77, 84
14, 95835, Note_on_c, 10, 89, 0
14, 95835, Note_on_c, 10, 77, 0
14, 95840, Note_on_c, 10, 77, 84
14, 95840, Note_on_c, 10, 89, 84
14, 95875, Note_on_c, 10, 77, 0
14, 95875, Note_on_c, 10, 89, 0
14, 95880, Note_on_c, 10, 89, 84
14, 95880, Note_on_c, 10, 77, 84
14, 95915, Note_on_c, 10, 89, 0
14, 95915, Note_on_c, 10, 77, 0
14, 95920, Note_on_c, 10, 77, 84
14, 95920, Note_on_c, 10, 89, 84
14, 95955, Note_on_c, 10, 77, 0
14, 95955, Note_on_c, 10, 89, 0
14, 95960, Note_on_c, 10, 89, 84
14, 95960, Note_on_c, 10, 77, 84
14, 95995, Note_on_c, 10, 89, 0
14, 95995, Note_on_c, 10, 77, 0
14, 96000, Note_on_c, 10, 77, 84
14, 96000, Note_on_c, 10, 89, 84
14, 96035, Note_on_c, 10, 77, 0
14, 96035, Note_on_c, 10, 89, 0
14, 96040, Note_on_c, 10, 77, 84
14, 96040, Note_on_c, 10, 89, 84
14, 96075, Note_on_c, 10, 77, 0
14, 96075, Note_on_c, 10, 89, 0
14, 96080, Note_on_c, 10, 77, 84
14, 96080, Note_on_c, 10, 89, 84
14, 96115, Note_on_c, 10, 77, 0
14, 96115, Note_on_c, 10, 89, 0
14, 96120, Note_on_c, 10, 77, 84
14, 96120, Note_on_c, 10, 89, 84
14, 96155, Note_on_c, 10, 77, 0
14, 96155, Note_on_c, 10, 89, 0
14, 96160, Note_on_c, 10, 89, 84
14, 96160, Note_on_c, 10, 77, 84
14, 96195, Note_on_c, 10, 89, 0
14, 96195, Note_on_c, 10, 77, 0
14, 96200, Note_on_c, 10, 77, 84
14, 96200, Note_on_c, 10, 89, 84
14, 96235, Note_on_c, 10, 77, 0
14, 96235, Note_on_c, 10, 89, 0
14, 96240, Note_on_c, 10, 77, 84
14, 96240, Note_on_c, 10, 89, 84
14, 96275, Note_on_c, 10, 77, 0
14, 96275, Note_on_c, 10, 89, 0
14, 96280, Note_on_c, 10, 77, 84
14, 96280, Note_on_c, 10, 89, 84
14, 96315, Note_on_c, 10, 77, 0
14, 96315, Note_on_c, 10, 89, 0
14, 96320, Note_on_c, 10, 89, 84
14, 96320, Note_on_c, 10, 77, 84
14, 96355, Note_on_c, 10, 89, 0
14, 96355, Note_on_c, 10, 77, 0
14, 96360, Note_on_c, 10, 89, 84
14, 96360, Note_on_c, 10, 77, 84
14, 96395, Note_on_c, 10, 89, 0
14, 96395, Note_on_c, 10, 77, 0
14, 96400, Note_on_c, 10, 89, 84
14, 96400, Note_on_c, 10, 77, 84
14, 96435, Note_on_c, 10, 89, 0
14, 96435, Note_on_c, 10, 77, 0
14, 96440, Note_on_c, 10, 89, 84
14, 96440, Note_on_c, 10, 77, 84
14, 96475, Note_on_c, 10, 89, 0
14, 96475, Note_on_c, 10, 77, 0
14, 96480, Note_on_c, 10, 89, 84
14, 96480, Note_on_c, 10, 77, 84
14, 96515, Note_on_c, 10, 89, 0
14, 96515, Note_on_c, 10, 77, 0
14, 96520, Note_on_c, 10, 77, 84
14, 96520, Note_on_c, 10, 89, 84
14, 96555, Note_on_c, 10, 77, 0
14, 96555, Note_on_c, 10, 89, 0
14, 96560, Note_on_c, 10, 89, 84
14, 96560, Note_on_c, 10, 77, 84
14, 96595, Note_on_c, 10, 89, 0
14, 96595, Note_on_c, 10, 77, 0
14, 96600, Note_on_c, 10, 89, 84
14, 96600, Note_on_c, 10, 77, 84
14, 96635, Note_on_c, 10, 89, 0
14, 96635, Note_on_c, 10, 77, 0
14, 96640, Note_on_c, 10, 89, 84
14, 96640, Note_on_c, 10, 77, 84
14, 96675, Note_on_c, 10, 89, 0
14, 96675, Note_on_c, 10, 77, 0
14, 96680, Note_on_c, 10, 89, 84
14, 96680, Note_on_c, 10, 77, 84
14, 96715, Note_on_c, 10, 89, 0
14, 96715, Note_on_c, 10, 77, 0
14, 96720, Note_on_c, 10, 89, 84
14, 96720, Note_on_c, 10, 77, 84
14, 96755, Note_on_c, 10, 89, 0
14, 96755, Note_on_c, 10, 77, 0
14, 96760, Note_on_c, 10, 89, 84
14, 96760, Note_on_c, 10, 77, 84
14, 96795, Note_on_c, 10, 89, 0
14, 96795, Note_on_c, 10, 77, 0
14, 96800, Note_on_c, 10, 77, 84
14, 96800, Note_on_c, 10, 89, 84
14, 96835, Note_on_c, 10, 77, 0
14, 96835, Note_on_c, 10, 89, 0
14, 96840, Note_on_c, 10, 89, 84
14, 96840, Note_on_c, 10, 77, 84
14, 96875, Note_on_c, 10, 89, 0
14, 96875, Note_on_c, 10, 77, 0
14, 96880, Note_on_c, 10, 77, 84
14, 96880, Note_on_c, 10, 89, 84
14, 96915, Note_on_c, 10, 77, 0
14, 96915, Note_on_c, 10, 89, 0
14, 96920, Note_on_c, 10, 89, 84
14, 96920, Note_on_c, 10, 77, 84
14, 96955, Note_on_c, 10, 89, 0
14, 96955, Note_on_c, 10, 77, 0
14, 96960, Note_on_c, 10, 89, 84
14, 96960, Note_on_c, 10, 77, 84
14, 96995, Note_on_c, 10, 89, 0
14, 96995, Note_on_c, 10, 77, 0
14, 97000, Note_on_c, 10, 89, 84
14, 97000, Note_on_c, 10, 77, 84
14, 97035, Note_on_c, 10, 89, 0
14, 97035, Note_on_c, 10, 77, 0
14, 97040, Note_on_c, 10, 89, 84
14, 97040, Note_on_c, 10, 77, 84
14, 97075, Note_on_c, 10, 89, 0
14, 97075, Note_on_c, 10, 77, 0
14, 97080, Note_on_c, 10, 77, 84
14, 97080, Note_on_c, 10, 89, 84
14, 97115, Note_on_c, 10, 77, 0
14, 97115, Note_on_c, 10, 89, 0
14, 97120, Note_on_c, 10, 89, 84
14, 97120, Note_on_c, 10, 77, 84
14, 97155, Note_on_c, 10, 89, 0
14, 97155, Note_on_c, 10, 77, 0
14, 97160, Note_on_c, 10, 89, 84
14, 97160, Note_on_c, 10, 77, 84
14, 97195, Note_on_c, 10, 89, 0
14, 97195, Note_on_c, 10, 77, 0
14, 97200, Note_on_c, 10, 89, 84
14, 97200, Note_on_c, 10, 77, 84
14, 97235, Note_on_c, 10, 89, 0
14, 97235, Note_on_c, 10, 77, 0
14, 97240, Note_on_c, 10, 89, 84
14, 97240, Note_on_c, 10, 77, 84
14, 97275, Note_on_c, 10, 89, 0
14, 97275, Note_on_c, 10, 77, 0
14, 97280, Note_on_c, 10, 89, 84
14, 97280, Note_on_c, 10, 77, 84
14, 97315, Note_on_c, 10, 89, 0
14, 97315, Note_on_c, 10, 77, 0
14, 97320, Note_on_c, 10, 77, 84
14, 97320, Note_on_c, 10, 89, 84
14, 97355, Note_on_c, 10, 77, 0
14, 97355, Note_on_c, 10, 89, 0
14, 97360, Note_on_c, 10, 89, 84
14, 97360, Note_on_c, 10, 77, 84
14, 97395, Note_on_c, 10, 89, 0
14, 97395, Note_on_c, 10, 77, 0
14, 97400, Note_on_c, 10, 77, 84
14, 97400, Note_on_c, 10, 89, 84
14, 97435, Note_on_c, 10, 77, 0
14, 97435, Note_on_c, 10, 89, 0
14, 97440, Note_on_c, 10, 89, 84
14, 97440, Note_on_c, 10, 77, 84
14, 97475, Note_on_c, 10, 89, 0
14, 97475, Note_on_c, 10, 77, 0
14, 97480, Note_on_c, 10, 89, 84
14, 97480, Note_on_c, 10, 77, 84
14, 97515, Note_on_c, 10, 89, 0
14, 97515, Note_on_c, 10, 77, 0
14, 97520, Note_on_c, 10, 77, 84
14, 97520, Note_on_c, 10, 89, 84
14, 97555, Note_on_c, 10, 77, 0
14, 97555, Note_on_c, 10, 89, 0
14, 97560, Note_on_c, 10, 77, 84
14, 97560, Note_on_c, 10, 89, 84
14, 97595, Note_on_c, 10, 77, 0
14, 97595, Note_on_c, 10, 89, 0
14, 97600, Note_on_c, 10, 89, 84
14, 97600, Note_on_c, 10, 77, 84
14, 97635, Note_on_c, 10, 89, 0
14, 97635, Note_on_c, 10, 77, 0
14, 97640, Note_on_c, 10, 77, 84
14, 97640, Note_on_c, 10, 89, 84
14, 97675, Note_on_c, 10, 77, 0
14, 97675, Note_on_c, 10, 89, 0
14, 97680, Note_on_c, 10, 77, 84
14, 97680, Note_on_c, 10, 89, 84
14, 97715, Note_on_c, 10, 77, 0
14, 97715, Note_on_c, 10, 89, 0
14, 97720, Note_on_c, 10, 77, 84
14, 97720, Note_on_c, 10, 89, 84
14, 97755, Note_on_c, 10, 77, 0
14, 97755, Note_on_c, 10, 89, 0
14, 97760, Note_on_c, 10, 77, 84
14, 97760, Note_on_c, 10, 89, 84
14, 97795, Note_on_c, 10, 77, 0
14, 97795, Note_on_c, 10, 89, 0
14, 97800, Note_on_c, 10, 91, 84
14, 97800, Note_on_c, 10, 79, 84
14, 97835, Note_on_c, 10, 91, 0
14, 97835, Note_on_c, 10, 79, 0
14, 97840, Note_on_c, 10, 91, 84
14, 97840, Note_on_c, 10, 79, 84
14, 97875, Note_on_c, 10, 91, 0
14, 97875, Note_on_c, 10, 79, 0
14, 97880, Note_on_c, 10, 79, 84
14, 97880, Note_on_c, 10, 91, 84
14, 97915, Note_on_c, 10, 79, 0
14, 97915, Note_on_c, 10, 91, 0
14, 97920, Note_on_c, 10, 79, 84
14, 97920, Note_on_c, 10, 91, 84
14, 97955, Note_on_c, 10, 79, 0
14, 97955, Note_on_c, 10, 91, 0
14, 97960, Note_on_c, 10, 91, 84
14, 97960, Note_on_c, 10, 79, 84
14, 97995, Note_on_c, 10, 91, 0
14, 97995, Note_on_c, 10, 79, 0
14, 98000, Note_on_c, 10, 79, 84
14, 98000, Note_on_c, 10, 91, 84
14, 98035, Note_on_c, 10, 79, 0
14, 98035, Note_on_c, 10, 91, 0
14, 98040, Note_on_c, 10, 79, 84
14, 98040, Note_on_c, 10, 91, 84
14, 98075, Note_on_c, 10, 79, 0
14, 98075, Note_on_c, 10, 91, 0
14, 98080, Note_on_c, 10, 91, 84
14, 98080, Note_on_c, 10, 79, 84
14, 98115, Note_on_c, 10, 91, 0
14, 98115, Note_on_c, 10, 79, 0
14, 98120, Note_on_c, 10, 91, 84
14, 98120, Note_on_c, 10, 79, 84
14, 98155, Note_on_c, 10, 91, 0
14, 98155, Note_on_c, 10, 79, 0
14, 98160, Note_on_c, 10, 91, 84
14, 98160, Note_on_c, 10, 79, 84
14, 98195, Note_on_c, 10, 91, 0
14, 98195, Note_on_c, 10, 79, 0
14, 98200, Note_on_c, 10, 91, 84
14, 98200, Note_on_c, 10, 79, 84
14, 98235, Note_on_c, 10, 91, 0
14, 98235, Note_on_c, 10, 79, 0
14, 98240, Note_on_c, 10, 91, 84
14, 98240, Note_on_c, 10, 79, 84
14, 98275, Note_on_c, 10, 91, 0
14, 98275, Note_on_c, 10, 79, 0
14, 98280, Note_on_c, 10, 91, 84
14, 98280, Note_on_c, 10, 79, 84
14, 98315, Note_on_c, 10, 91, 0
14, 98315, Note_on_c, 10, 79, 0
14, 98320, Note_on_c, 10, 91, 84
14, 98320, Note_on_c, 10, 79, 84
14, 98355, Note_on_c, 10, 91, 0
14, 98355, Note_on_c, 10, 79, 0
14, 98360, Note_on_c, 10, 91, 84
14, 98360, Note_on_c, 10, 79, 84
14, 98395, Note_on_c, 10, 91, 0
14, 98395, Note_on_c, 10, 79, 0
14, 98400, Note_on_c, 10, 91, 84
14, 98400, Note_on_c, 10, 79, 84
14, 98435, Note_on_c, 10, 91, 0
14, 98435, Note_on_c, 10, 79, 0
14, 98440, Note_on_c, 10, 79, 84
14, 98440, Note_on_c, 10, 91, 84
14, 98475, Note_on_c, 10, 79, 0
14, 98475, Note_on_c, 10, 91, 0
14, 98480, Note_on_c, 10, 91, 84
14, 98480, Note_on_c, 10, 79, 84
14, 98515, Note_on_c, 10, 91, 0
14, 98515, Note_on_c, 10, 79, 0
14, 98520, Note_on_c, 10, 79, 84
14, 98520, Note_on_c, 10, 91, 84
14, 98555, Note_on_c, 10, 79, 0
14, 98555, Note_on_c, 10, 91, 0
14, 98560, Note_on_c, 10, 79, 84
14, 98560, Note_on_c, 10, 91, 84
14, 98595, Note_on_c, 10, 79, 0
14, 98595, Note_on_c, 10, 91, 0
14, 98600, Note_on_c, 10, 91, 84
14, 98600, Note_on_c, 10, 79, 84
14, 98635, Note_on_c, 10, 91, 0
14, 98635, Note_on_c, 10, 79, 0
14, 98640, Note_on_c, 10, 91, 84
14, 98640, Note_on_c, 10, 79, 84
14, 98675, Note_on_c, 10, 91, 0
14, 98675, Note_on_c, 10, 79, 0
14, 98680, Note_on_c, 10, 79, 84
14, 98680, Note_on_c, 10, 91, 84
14, 98715, Note_on_c, 10, 79, 0
14, 98715, Note_on_c, 10, 91, 0
14, 98720, Note_on_c, 10, 91, 84
14, 98720, Note_on_c, 10, 79, 84
14, 98755, Note_on_c, 10, 91, 0
14, 98755, Note_on_c, 10, 79, 0
14, 98760, Note_on_c, 10, 89, 84
14, 98760, Note_on_c, 10, 77, 84
14, 98795, Note_on_c, 10, 89, 0
14, 98795, Note_on_c, 10, 77, 0
14, 98800, Note_on_c, 10, 77, 84
14, 98800, Note_on_c, 10, 89, 84
14, 98835, Note_on_c, 10, 77, 0
14, 98835, Note_on_c, 10, 89, 0
14, 98840, Note_on_c, 10, 89, 84
14, 98840, Note_on_c, 10, 77, 84
14, 98875, Note_on_c, 10, 89, 0
14, 98875, Note_on_c, 10, 77, 0
14, 98880, Note_on_c, 10, 89, 84
14, 98880, Note_on_c, 10, 77, 84
14, 98915, Note_on_c, 10, 89, 0
14, 98915, Note_on_c, 10, 77, 0
14, 98920, Note_on_c, 10, 77, 84
14, 98920, Note_on_c, 10, 89, 84
14, 98955, Note_on_c, 10, 77, 0
14, 98955, Note_on_c, 10, 89, 0
14, 98960, Note_on_c, 10, 89, 84
14, 98960, Note_on_c, 10, 77, 84
14, 98995, Note_on_c, 10, 89, 0
14, 98995, Note_on_c, 10, 77, 0
14, 99000, Note_on_c, 10, 77, 84
14, 99000, Note_on_c, 10, 89, 84
14, 99035, Note_on_c, 10, 77, 0
14, 99035, Note_on_c, 10, 89, 0
14, 99040, Note_on_c, 10, 89, 84
14, 99040, Note_on_c, 10, 77, 84
14, 99075, Note_on_c, 10, 89, 0
14, 99075, Note_on_c, 10, 77, 0
14, 99080, Note_on_c, 10, 77, 84
14, 99080, Note_on_c, 10, 89, 84
14, 99115, Note_on_c, 10, 77, 0
14, 99115, Note_on_c, 10, 89, 0
14, 99120, Note_on_c, 10, 77, 84
14, 99120, Note_on_c, 10, 89, 84
14, 99155, Note_on_c, 10, 77, 0
14, 99155, Note_on_c, 10, 89, 0
14, 99160, Note_on_c, 10, 77, 84
14, 99160, Note_on_c, 10, 89, 84
14, 99195, Note_on_c, 10, 77, 0
14, 99195, Note_on_c, 10, 89, 0
14, 99200, Note_on_c, 10, 77, 84
14, 99200, Note_on_c, 10, 89, 84
14, 99235, Note_on_c, 10, 77, 0
14, 99235, Note_on_c, 10, 89, 0
14, 99240, Note_on_c, 10, 89, 84
14, 99240, Note_on_c, 10, 77, 84
14, 99275, Note_on_c, 10, 89, 0
14, 99275, Note_on_c, 10, 77, 0
14, 99280, Note_on_c, 10, 77, 84
14, 99280, Note_on_c, 10, 89, 84
14, 99315, Note_on_c, 10, 77, 0
14, 99315, Note_on_c, 10, 89, 0
14, 99320, Note_on_c, 10, 77, 84
14, 99320, Note_on_c, 10, 89, 84
14, 99355, Note_on_c, 10, 77, 0
14, 99355, Note_on_c, 10, 89, 0
14, 99360, Note_on_c, 10, 89, 84
14, 99360, Note_on_c, 10, 77, 84
14, 99395, Note_on_c, 10, 89, 0
14, 99395, Note_on_c, 10, 77, 0
14, 99400, Note_on_c, 10, 77, 84
14, 99400, Note_on_c, 10, 89, 84
14, 99435, Note_on_c, 10, 77, 0
14, 99435, Note_on_c, 10, 89, 0
14, 99440, Note_on_c, 10, 89, 84
14, 99440, Note_on_c, 10, 77, 84
14, 99475, Note_on_c, 10, 89, 0
14, 99475, Note_on_c, 10, 77, 0
14, 99480, Note_on_c, 10, 89, 84
14, 99480, Note_on_c, 10, 77, 84
14, 99515, Note_on_c, 10, 89, 0
14, 99515, Note_on_c, 10, 77, 0
14, 99520, Note_on_c, 10, 89, 84
14, 99520, Note_on_c, 10, 77, 84
14, 99555, Note_on_c, 10, 89, 0
14, 99555, Note_on_c, 10, 77, 0
14, 99560, Note_on_c, 10, 77, 84
14, 99560, Note_on_c, 10, 89, 84
14, 99595, Note_on_c, 10, 77, 0
14, 99595, Note_on_c, 10, 89, 0
14, 99600, Note_on_c, 10, 77, 84
14, 99600, Note_on_c, 10, 89, 84
14, 99635, Note_on_c, 10, 77, 0
14, 99635, Note_on_c, 10, 89, 0
14, 99640, Note_on_c, 10, 89, 84
14, 99640, Note_on_c, 10, 77, 84
14, 99675, Note_on_c, 10, 89, 0
14, 99675, Note_on_c, 10, 77, 0
14, 99680, Note_on_c, 10, 89, 84
14, 99680, Note_on_c, 10, 77, 84
14, 99715, Note_on_c, 10, 89, 0
14, 99715, Note_on_c, 10, 77, 0
14, 99720, Note_on_c, 10, 88, 84
14, 99720, Note_on_c, 10, 76, 84
14, 99755, Note_on_c, 10, 88, 0
14, 99755, Note_on_c, 10, 76, 0
14, 99760, Note_on_c, 10, 88, 84
14, 99760, Note_on_c, 10, 76, 84
14, 99795, Note_on_c, 10, 88, 0
14, 99795, Note_on_c, 10, 76, 0
14, 99800, Note_on_c, 10, 76, 84
14, 99800, Note_on_c, 10, 88, 84
14, 99835, Note_on_c, 10, 76, 0
14, 99835, Note_on_c, 10, 88, 0
14, 99840, Note_on_c, 10, 76, 84
14, 99840, Note_on_c, 10, 88, 84
14, 99875, Note_on_c, 10, 76, 0
14, 99875, Note_on_c, 10, 88, 0
14, 99880, Note_on_c, 10, 88, 84
14, 99880, Note_on_c, 10, 76, 84
14, 99915, Note_on_c, 10, 88, 0
14, 99915, Note_on_c, 10, 76, 0
14, 99920, Note_on_c, 10, 88, 84
14, 99920, Note_on_c, 10, 76, 84
14, 99955, Note_on_c, 10, 88, 0
14, 99955, Note_on_c, 10, 76, 0
14, 99960, Note_on_c, 10, 76, 84
14, 99960, Note_on_c, 10, 88, 84
14, 99995, Note_on_c, 10, 76, 0
14, 99995, Note_on_c, 10, 88, 0
14, 100000, Note_on_c, 10, 88, 84
14, 100000, Note_on_c, 10, 76, 84
14, 100035, Note_on_c, 10, 88, 0
14, 100035, Note_on_c, 10, 76, 0
14, 100040, Note_on_c, 10, 88, 84
14, 100040, Note_on_c, 10, 76, 84
14, 100075, Note_on_c, 10, 88, 0
14, 100075, Note_on_c, 10, 76, 0
14, 100080, Note_on_c, 10, 77, 84
14, 100080, Note_on_c, 10, 89, 84
14, 100199, Note_on_c, 10, 77, 0
14, 100199, Note_on_c, 10, 89, 0
14, 101400, Note_on_c, 10, 72, 84
14, 101511, Note_on_c, 10, 72, 0
14, 101520, Note_on_c, 10, 72, 84
14, 101639, Note_on_c, 10, 72, 0
14, 101640, Note_on_c, 10, 77, 84
14, 101871, Note_on_c, 10, 77, 0
14, 101880, Note_on_c, 10, 72, 84
14, 101999, Note_on_c, 10, 72, 0
14, 102000, Note_on_c, 10, 79, 84
14, 102231, Note_on_c, 10, 79, 0
14, 102240, Note_on_c, 10, 72, 84
14, 102359, Note_on_c, 10, 72, 0
14, 102360, Note_on_c, 10, 81, 84
14, 102591, Note_on_c, 10, 81, 0
14, 102600, Note_on_c, 10, 84, 84
14, 102719, Note_on_c, 10, 84, 0
14, 102720, Note_on_c, 10, 82, 84
14, 102831, Note_on_c, 10, 82, 0
14, 102840, Note_on_c, 10, 79, 84
14, 102884, Note_on_c, 10, 79, 0
14, 102900, Note_on_c, 10, 76, 84
14, 102944, Note_on_c, 10, 76, 0
14, 104400, Note_on_c, 10, 74, 92
14, 104459, Note_on_c, 10, 74, 0
14, 104460, Note_on_c, 10, 74, 84
14, 104519, Note_on_c, 10, 74, 0
14, 104520, Note_on_c, 10, 72, 84
14, 104631, Note_on_c, 10, 72, 0
14, 104640, Note_on_c, 10, 69, 84
14, 104684, Note_on_c, 10, 69, 0
14, 104700, Note_on_c, 10, 65, 84
14, 104759, Note_on_c, 10, 65, 0
14, 105120, Note_on_c, 10, 77, 92
14, 105179, Note_on_c, 10, 77, 0
14, 105180, Note_on_c, 10, 77, 84
14, 105239, Note_on_c, 10, 77, 0
14, 105240, Note_on_c, 10, 76, 84
14, 105351, Note_on_c, 10, 76, 0
14, 105360, Note_on_c, 10, 72, 84
14, 105404, Note_on_c, 10, 72, 0
14, 105420, Note_on_c, 10, 67, 84
14, 105479, Note_on_c, 10, 67, 0
14, 105840, Note_on_c, 10, 81, 88
14, 105959, Note_on_c, 10, 81, 0
14, 105960, Note_on_c, 10, 79, 88
14, 106071, Note_on_c, 10, 79, 0
14, 106080, Note_on_c, 10, 76, 88
14, 106124, Note_on_c, 10, 76, 0
14, 106140, Note_on_c, 10, 72, 88
14, 106184, Note_on_c, 10, 72, 0
14, 106200, Note_on_c, 10, 82, 88
14, 106319, Note_on_c, 10, 82, 0
14, 106320, Note_on_c, 10, 81, 88
14, 106431, Note_on_c, 10, 81, 0
14, 106440, Note_on_c, 10, 77, 88
14, 106484, Note_on_c, 10, 77, 0
14, 106500, Note_on_c, 10, 72, 88
14, 106544, Note_on_c, 10, 72, 0
14, 106560, Note_on_c, 10, 84, 88
14, 106679, Note_on_c, 10, 84, 0
14, 106680, Note_on_c, 10, 82, 88
14, 106791, Note_on_c, 10, 82, 0
14, 106800, Note_on_c, 10, 79, 88
14, 106844, Note_on_c, 10, 79, 0
14, 106860, Note_on_c, 10, 76, 88
14, 106904, Note_on_c, 10, 76, 0
14, 106920, Note_on_c, 10, 84, 88
14, 107039, Note_on_c, 10, 84, 0
14, 107040, Note_on_c, 10, 83, 88
14, 107151, Note_on_c, 10, 83, 0
14, 107160, Note_on_c, 10, 83, 88
14, 107204, Note_on_c, 10, 83, 0
14, 107220, Note_on_c, 10, 83, 88
14, 107264, Note_on_c, 10, 83, 0
14, 107280, Note_on_c, 10, 86, 96
14, 107339, Note_on_c, 10, 86, 0
14, 107340, Note_on_c, 10, 86, 88
14, 107399, Note_on_c, 10, 86, 0
14, 107400, Note_on_c, 10, 84, 88
14, 107511, Note_on_c, 10, 84, 0
14, 107520, Note_on_c, 10, 81, 88
14, 107564, Note_on_c, 10, 81, 0
14, 107580, Note_on_c, 10, 77, 88
14, 107624, Note_on_c, 10, 77, 0
14, 107640, Note_on_c, 10, 74, 88
14, 107759, Note_on_c, 10, 74, 0
14, 107760, Note_on_c, 10, 72, 88
14, 107871, Note_on_c, 10, 72, 0
14, 107880, Note_on_c, 10, 69, 88
14, 107924, Note_on_c, 10, 69, 0
14, 107940, Note_on_c, 10, 65, 88
14, 107984, Note_on_c, 10, 65, 0
14, 108000, Note_on_c, 10, 60, 88
14, 108231, Note_on_c, 10, 60, 0
14, 108240, Note_on_c, 10, 81, 88
14, 108351, Note_on_c, 10, 81, 0
14, 108360, Note_on_c, 10, 81, 88
14, 108471, Note_on_c, 10, 81, 0
14, 108480, Note_on_c, 10, 81, 88
14, 108591, Note_on_c, 10, 81, 0
14, 108600, Note_on_c, 10, 81, 88
14, 108619, Note_on_c, 10, 81, 0
14, 108620, Note_on_c, 10, 82, 88
14, 108639, Note_on_c, 10, 82, 0
14, 108640, Note_on_c, 10, 81, 88
14, 108659, Note_on_c, 10, 81, 0
14, 108660, Note_on_c, 10, 82, 88
14, 108679, Note_on_c, 10, 82, 0
14, 108680, Note_on_c, 10, 79, 88
14, 108699, Note_on_c, 10, 79, 0
14, 108700, Note_on_c, 10, 81, 88
14, 108719, Note_on_c, 10, 81, 0
14, 108720, Note_on_c, 10, 84, 88
14, 108839, Note_on_c, 10, 84, 0
14, 108840, Note_on_c, 10, 82, 88
14, 108951, Note_on_c, 10, 82, 0
14, 108960, Note_on_c, 10, 79, 88
14, 109004, Note_on_c, 10, 79, 0
14, 109020, Note_on_c, 10, 76, 88
14, 109064, Note_on_c, 10, 76, 0
14, 109080, Note_on_c, 10, 72, 88
14, 109199, Note_on_c, 10, 72, 0
14, 109200, Note_on_c, 10, 70, 88
14, 109311, Note_on_c, 10, 70, 0
14, 109320, Note_on_c, 10, 67, 88
14, 109364, Note_on_c, 10, 67, 0
14, 109380, Note_on_c, 10, 64, 88
14, 109424, Note_on_c, 10, 64, 0
14, 109440, Note_on_c, 10, 60, 88
14, 109671, Note_on_c, 10, 60, 0
14, 109680, Note_on_c, 10, 79, 88
14, 109791, Note_on_c, 10, 79, 0
14, 109800, Note_on_c, 10, 79, 88
14, 109911, Note_on_c, 10, 79, 0
14, 109920, Note_on_c, 10, 79, 88
14, 110031, Note_on_c, 10, 79, 0
14, 110040, Note_on_c, 10, 79, 88
14, 110059, Note_on_c, 10, 79, 0
14, 110060, Note_on_c, 10, 81, 88
14, 110079, Note_on_c, 10, 81, 0
14, 110080, Note_on_c, 10, 79, 88
14, 110099, Note_on_c, 10, 79, 0
14, 110100, Note_on_c, 10, 81, 88
14, 110119, Note_on_c, 10, 81, 0
14, 110120, Note_on_c, 10, 77, 88
14, 110139, Note_on_c, 10, 77, 0
14, 110140, Note_on_c, 10, 79, 88
14, 110159, Note_on_c, 10, 79, 0
14, 110160, Note_on_c, 10, 86, 88
14, 110219, Note_on_c, 10, 86, 0
14, 110220, Note_on_c, 10, 84, 88
14, 110275, Note_on_c, 10, 84, 0
14, 110280, Note_on_c, 10, 83, 88
14, 110324, Note_on_c, 10, 83, 0
14, 110340, Note_on_c, 10, 84, 88
14, 110384, Note_on_c, 10, 84, 0
14, 110400, Note_on_c, 10, 81, 88
14, 110444, Note_on_c, 10, 81, 0
14, 110460, Note_on_c, 10, 77, 88
14, 110504, Note_on_c, 10, 77, 0
14, 110520, Note_on_c, 10, 74, 88
14, 110579, Note_on_c, 10, 74, 0
14, 110580, Note_on_c, 10, 72, 88
14, 110635, Note_on_c, 10, 72, 0
14, 110640, Note_on_c, 10, 71, 88
14, 110684, Note_on_c, 10, 71, 0
14, 110700, Note_on_c, 10, 72, 88
14, 110744, Note_on_c, 10, 72, 0
14, 110760, Note_on_c, 10, 69, 88
14, 110804, Note_on_c, 10, 69, 0
14, 110820, Note_on_c, 10, 65, 88
14, 110864, Note_on_c, 10, 65, 0
14, 110880, Note_on_c, 10, 60, 88
14, 111111, Note_on_c, 10, 60, 0
14, 111120, Note_on_c, 10, 81, 88
14, 111231, Note_on_c, 10, 81, 0
14, 111240, Note_on_c, 10, 81, 88
14, 111351, Note_on_c, 10, 81, 0
14, 111360, Note_on_c, 10, 81, 88
14, 111471, Note_on_c, 10, 81, 0
14, 111480, Note_on_c, 10, 81, 88
14, 111499, Note_on_c, 10, 81, 0
14, 111500, Note_on_c, 10, 82, 88
14, 111519, Note_on_c, 10, 82, 0
14, 111520, Note_on_c, 10, 81, 88
14, 111539, Note_on_c, 10, 81, 0
14, 111540, Note_on_c, 10, 82, 88
14, 111559, Note_on_c, 10, 82, 0
14, 111560, Note_on_c, 10, 79, 88
14, 111579, Note_on_c, 10, 79, 0
14, 111580, Note_on_c, 10, 81, 88
14, 111599, Note_on_c, 10, 81, 0
14, 111600, Note_on_c, 10, 84, 88
14, 111659, Note_on_c, 10, 84, 0
14, 111660, Note_on_c, 10, 82, 88
14, 111715, Note_on_c, 10, 82, 0
14, 111720, Note_on_c, 10, 81, 88
14, 111764, Note_on_c, 10, 81, 0
14, 111780, Note_on_c, 10, 82, 88
14, 111824, Note_on_c, 10, 82, 0
14, 111840, Note_on_c, 10, 79, 88
14, 111884, Note_on_c, 10, 79, 0
14, 111900, Note_on_c, 10, 76, 88
14, 111944, Note_on_c, 10, 76, 0
14, 111960, Note_on_c, 10, 72, 88
14, 112004, Note_on_c, 10, 72, 0
14, 112020, Note_on_c, 10, 70, 88
14, 112064, Note_on_c, 10, 70, 0
14, 112080, Note_on_c, 10, 69, 88
14, 112124, Note_on_c, 10, 69, 0
14, 112140, Note_on_c, 10, 70, 88
14, 112184, Note_on_c, 10, 70, 0
14, 112200, Note_on_c, 10, 67, 88
14, 112244, Note_on_c, 10, 67, 0
14, 112260, Note_on_c, 10, 64, 88
14, 112304, Note_on_c, 10, 64, 0
14, 112320, Note_on_c, 10, 60, 88
14, 112551, Note_on_c, 10, 60, 0
14, 112560, Note_on_c, 10, 79, 88
14, 112671, Note_on_c, 10, 79, 0
14, 112680, Note_on_c, 10, 79, 88
14, 112791, Note_on_c, 10, 79, 0
14, 112800, Note_on_c, 10, 79, 88
14, 112911, Note_on_c, 10, 79, 0
14, 112920, Note_on_c, 10, 79, 88
14, 112939, Note_on_c, 10, 79, 0
14, 112940, Note_on_c, 10, 81, 88
14, 112959, Note_on_c, 10, 81, 0
14, 112960, Note_on_c, 10, 79, 88
14, 112979, Note_on_c, 10, 79, 0
14, 112980, Note_on_c, 10, 81, 88
14, 112999, Note_on_c, 10, 81, 0
14, 113000, Note_on_c, 10, 77, 88
14, 113019, Note_on_c, 10, 77, 0
14, 113020, Note_on_c, 10, 79, 88
14, 113039, Note_on_c, 10, 79, 0
14, 113040, Note_on_c, 10, 81, 88
14, 113040, Note_on_c, 10, 69, 88
14, 113279, Note_on_c, 10, 81, 0
14, 113279, Note_on_c, 10, 69, 0
14, 113400, Note_on_c, 10, 70, 52
14, 113519, Note_on_c, 10, 70, 0
14, 113520, Note_on_c, 10, 69, 56
14, 113639, Note_on_c, 10, 69, 0
14, 113640, Note_on_c, 10, 74, 60
14, 113759, Note_on_c, 10, 74, 0
14, 113760, Note_on_c, 10, 72, 64
14, 113879, Note_on_c, 10, 72, 0
14, 113880, Note_on_c, 10, 76, 68
14, 113999, Note_on_c, 10, 76, 0
14, 114000, Note_on_c, 10, 77, 72
14, 114111, Note_on_c, 10, 77, 0
14, 114120, Note_on_c, 10, 72, 76
14, 114120, Note_on_c, 10, 79, 76
14, 114351, Note_on_c, 10, 72, 0
14, 114351, Note_on_c, 10, 79, 0
14, 114360, Note_on_c, 10, 72, 76
14, 114360, Note_on_c, 10, 79, 76
14, 114471, Note_on_c, 10, 72, 0
14, 114471, Note_on_c, 10, 79, 0
14, 114480, Note_on_c, 10, 72, 76
14, 114480, Note_on_c, 10, 81, 76
14, 114711, Note_on_c, 10, 72, 0
14, 114711, Note_on_c, 10, 81, 0
14, 114720, Note_on_c, 10, 69, 52
14, 114839, Note_on_c, 10, 69, 0
14, 114840, Note_on_c, 10, 70, 56
14, 114959, Note_on_c, 10, 70, 0
14, 114960, Note_on_c, 10, 69, 60
14, 115079, Note_on_c, 10, 69, 0
14, 115080, Note_on_c, 10, 74, 64
14, 115199, Note_on_c, 10, 74, 0
14, 115200, Note_on_c, 10, 72, 68
14, 115319, Note_on_c, 10, 72, 0
14, 115320, Note_on_c, 10, 76, 72
14, 115439, Note_on_c, 10, 76, 0
14, 115440, Note_on_c, 10, 77, 76
14, 115551, Note_on_c, 10, 77, 0
14, 115560, Note_on_c, 10, 72, 76
14, 115560, Note_on_c, 10, 79, 76
14, 115791, Note_on_c, 10, 72, 0
14, 115791, Note_on_c, 10, 79, 0
14, 115800, Note_on_c, 10, 79, 76
14, 115800, Note_on_c, 10, 72, 76
14, 115800, Note_on_c, 10, 64, 76
14, 115889, Note_on_c, 10, 79, 0
14, 115889, Note_on_c, 10, 72, 0
14, 115889, Note_on_c, 10, 64, 0
14, 115920, Note_on_c, 10, 65, 76
14, 115920, Note_on_c, 10, 72, 76
14, 115920, Note_on_c, 10, 81, 76
14, 116279, Note_on_c, 10, 65, 0
14, 116279, Note_on_c, 10, 72, 0
14, 116279, Note_on_c, 10, 81, 0
14, 116280, Note_on_c, 10, 69, 76
14, 116280, Note_on_c, 10, 77, 76
14, 116399, Note_on_c, 10, 69, 0
14, 116399, Note_on_c, 10, 77, 0
14, 116520, Note_on_c, 10, 69, 76
14, 116520, Note_on_c, 10, 84, 76
14, 116609, Note_on_c, 10, 69, 0
14, 116609, Note_on_c, 10, 84, 0
14, 116640, Note_on_c, 10, 62, 76
14, 116640, Note_on_c, 10, 74, 76
14, 116640, Note_on_c, 10, 82, 76
14, 116879, Note_on_c, 10, 62, 0
14, 116879, Note_on_c, 10, 74, 0
14, 116999, Note_on_c, 10, 82, 0
14, 117000, Note_on_c, 10, 79, 76
14, 117119, Note_on_c, 10, 79, 0
14, 117240, Note_on_c, 10, 86, 76
14, 117329, Note_on_c, 10, 86, 0
14, 117360, Note_on_c, 10, 81, 76
14, 117360, Control_c, 10, 11, 127
14, 117390, Control_c, 10, 11, 125
14, 117420, Control_c, 10, 11, 123
14, 117450, Control_c, 10, 11, 121
14, 117480, Control_c, 10, 11, 119
14, 117510, Control_c, 10, 11, 117
14, 117540, Control_c, 10, 11, 115
14, 117570, Control_c, 10, 11, 113
14, 117600, Control_c, 10, 11, 111
14, 117630, Control_c, 10, 11, 109
14, 117660, Control_c, 10, 11, 107
14, 117690, Control_c, 10, 11, 105
14, 117720, Control_c, 10, 11, 104
14, 117750, Control_c, 10, 11, 102
14, 117780, Control_c, 10, 11, 100
14, 117810, Control_c, 10, 11, 98
14, 117839, Note_on_c, 10, 81, 0
14, 117840, Control_c, 10, 11, 96
14, 117840, Note_on_c, 10, 77, 76
14, 117870, Control_c, 10, 11, 94
14, 117900, Control_c, 10, 11, 92
14, 117930, Control_c, 10, 11, 90
14, 117959, Note_on_c, 10, 77, 0
14, 117960, Note_on_c, 10, 84, 76
14, 117960, Control_c, 10, 11, 88
14, 117990, Control_c, 10, 11, 86
14, 118020, Control_c, 10, 11, 84
14, 118050, Control_c, 10, 11, 80
14, 118079, Note_on_c, 10, 84, 0
14, 118080, Note_on_c, 10, 81, 76
14, 118199, Note_on_c, 10, 81, 0
14, 118200, Note_on_c, 10, 77, 76
14, 118319, Note_on_c, 10, 77, 0
14, 118320, Note_on_c, 10, 84, 75
14, 118439, Note_on_c, 10, 84, 0
14, 118440, Note_on_c, 10, 77, 74
14, 118559, Note_on_c, 10, 77, 0
14, 118560, Note_on_c, 10, 72, 74
14, 118679, Note_on_c, 10, 72, 0
14, 118680, Note_on_c, 10, 81, 73
14, 118791, Note_on_c, 10, 81, 0
14, 118800, Note_on_c, 10, 77, 72
14, 118919, Note_on_c, 10, 77, 0
14, 118920, Note_on_c, 10, 72, 72
14, 119039, Note_on_c, 10, 72, 0
14, 119040, Note_on_c, 10, 81, 71
14, 119159, Note_on_c, 10, 81, 0
14, 119160, Note_on_c, 10, 72, 70
14, 119279, Note_on_c, 10, 72, 0
14, 119280, Note_on_c, 10, 69, 70
14, 119399, Note_on_c, 10, 69, 0
14, 119400, Note_on_c, 10, 77, 69
14, 119519, Note_on_c, 10, 77, 0
14, 119520, Note_on_c, 10, 72, 68
14, 119639, Note_on_c, 10, 72, 0
14, 119640, Note_on_c, 10, 69, 68
14, 119759, Note_on_c, 10, 69, 0
14, 119760, Note_on_c, 10, 77, 68
14, 119879, Note_on_c, 10, 77, 0
14, 119880, Note_on_c, 10, 74, 68
14, 119999, Note_on_c, 10, 74, 0
14, 120000, Note_on_c, 10, 71, 68
14, 120119, Note_on_c, 10, 71, 0
14, 120120, Note_on_c, 10, 77, 68
14, 120231, Note_on_c, 10, 77, 0
14, 120238, Control_c, 10, 11, 96
14, 120240, Note_on_c, 10, 74, 60
14, 120359, Note_on_c, 10, 74, 0
14, 120360, Note_on_c, 10, 71, 60
14, 120479, Note_on_c, 10, 71, 0
14, 120480, Note_on_c, 10, 77, 60
14, 120599, Note_on_c, 10, 77, 0
14, 120600, Note_on_c, 10, 74, 60
14, 120719, Note_on_c, 10, 74, 0
14, 120720, Note_on_c, 10, 71, 60
14, 120839, Note_on_c, 10, 71, 0
14, 120840, Note_on_c, 10, 77, 60
14, 120951, Note_on_c, 10, 77, 0
14, 120958, Control_c, 10, 11, 112
14, 120960, Note_on_c, 10, 74, 52
14, 121019, Note_on_c, 10, 74, 0
14, 121020, Note_on_c, 10, 71, 52
14, 121079, Note_on_c, 10, 71, 0
14, 121080, Note_on_c, 10, 79, 52
14, 121139, Note_on_c, 10, 79, 0
14, 121140, Note_on_c, 10, 77, 52
14, 121199, Note_on_c, 10, 77, 0
14, 121200, Note_on_c, 10, 74, 52
14, 121259, Note_on_c, 10, 74, 0
14, 121260, Note_on_c, 10, 71, 52
14, 121319, Note_on_c, 10, 71, 0
14, 121380, Note_on_c, 10, 71, 52
14, 121439, Note_on_c, 10, 71, 0
14, 121440, Note_on_c, 10, 79, 52
14, 121499, Note_on_c, 10, 79, 0
14, 121500, Note_on_c, 10, 77, 52
14, 121559, Note_on_c, 10, 77, 0
14, 121560, Note_on_c, 10, 74, 52
14, 121619, Note_on_c, 10, 74, 0
14, 121620, Note_on_c, 10, 71, 52
14, 121679, Note_on_c, 10, 71, 0
14, 121710, Control_c, 10, 11, 127
14, 121740, Note_on_c, 10, 71, 44
14, 121799, Note_on_c, 10, 71, 0
14, 121800, Note_on_c, 10, 79, 44
14, 121859, Note_on_c, 10, 79, 0
14, 121860, Note_on_c, 10, 77, 44
14, 121919, Note_on_c, 10, 77, 0
14, 121920, Note_on_c, 10, 74, 44
14, 121979, Note_on_c, 10, 74, 0
14, 121980, Note_on_c, 10, 71, 44
14, 122039, Note_on_c, 10, 71, 0
14, 122100, Note_on_c, 10, 71, 44
14, 122159, Note_on_c, 10, 71, 0
14, 122160, Note_on_c, 10, 79, 44
14, 122219, Note_on_c, 10, 79, 0
14, 122220, Note_on_c, 10, 77, 44
14, 122279, Note_on_c, 10, 77, 0
14, 122280, Note_on_c, 10, 74, 44
14, 122339, Note_on_c, 10, 74, 0
14, 122340, Note_on_c, 10, 71, 44
14, 122399, Note_on_c, 10, 71, 0
14, 122460, Note_on_c, 10, 71, 44
14, 122519, Note_on_c, 10, 71, 0
14, 122520, Note_on_c, 10, 79, 45
14, 122579, Note_on_c, 10, 79, 0
14, 122580, Note_on_c, 10, 77, 46
14, 122639, Note_on_c, 10, 77, 0
14, 122640, Note_on_c, 10, 74, 46
14, 122699, Note_on_c, 10, 74, 0
14, 122700, Note_on_c, 10, 71, 47
14, 122759, Note_on_c, 10, 71, 0
14, 122820, Note_on_c, 10, 71, 48
14, 122879, Note_on_c, 10, 71, 0
14, 122880, Note_on_c, 10, 79, 49
14, 122939, Note_on_c, 10, 79, 0
14, 122940, Note_on_c, 10, 77, 50
14, 122999, Note_on_c, 10, 77, 0
14, 123000, Note_on_c, 10, 74, 50
14, 123059, Note_on_c, 10, 74, 0
14, 123060, Note_on_c, 10, 71, 51
14, 123119, Note_on_c, 10, 71, 0
14, 123180, Note_on_c, 10, 71, 53
14, 123239, Note_on_c, 10, 71, 0
14, 123240, Note_on_c, 10, 79, 53
14, 123299, Note_on_c, 10, 79, 0
14, 123300, Note_on_c, 10, 77, 54
14, 123359, Note_on_c, 10, 77, 0
14, 123360, Note_on_c, 10, 74, 55
14, 123419, Note_on_c, 10, 74, 0
14, 123420, Note_on_c, 10, 71, 55
14, 123479, Note_on_c, 10, 71, 0
14, 123540, Note_on_c, 10, 71, 57
14, 123599, Note_on_c, 10, 71, 0
14, 123600, Note_on_c, 10, 79, 57
14, 123659, Note_on_c, 10, 79, 0
14, 123660, Note_on_c, 10, 77, 58
14, 123719, Note_on_c, 10, 77, 0
14, 123720, Note_on_c, 10, 74, 59
14, 123779, Note_on_c, 10, 74, 0
14, 123780, Note_on_c, 10, 71, 60
14, 123839, Note_on_c, 10, 71, 0
14, 123900, Note_on_c, 10, 70, 61
14, 123959, Note_on_c, 10, 70, 0
14, 123960, Note_on_c, 10, 79, 62
14, 124019, Note_on_c, 10, 79, 0
14, 124020, Note_on_c, 10, 76, 62
14, 124079, Note_on_c, 10, 76, 0
14, 124080, Note_on_c, 10, 72, 63
14, 124139, Note_on_c, 10, 72, 0
14, 124140, Note_on_c, 10, 70, 64
14, 124199, Note_on_c, 10, 70, 0
14, 124260, Note_on_c, 10, 70, 65
14, 124319, Note_on_c, 10, 70, 0
14, 124320, Note_on_c, 10, 79, 66
14, 124379, Note_on_c, 10, 79, 0
14, 124380, Note_on_c, 10, 76, 66
14, 124439, Note_on_c, 10, 76, 0
14, 124440, Note_on_c, 10, 72, 67
14, 124499, Note_on_c, 10, 72, 0
14, 124500, Note_on_c, 10, 70, 68
14, 124559, Note_on_c, 10, 70, 0
14, 124620, Note_on_c, 10, 70, 69
14, 124679, Note_on_c, 10, 70, 0
14, 124680, Note_on_c, 10, 79, 70
14, 124739, Note_on_c, 10, 79, 0
14, 124740, Note_on_c, 10, 76, 71
14, 124799, Note_on_c, 10, 76, 0
14, 124800, Note_on_c, 10, 72, 71
14, 124859, Note_on_c, 10, 72, 0
14, 124860, Note_on_c, 10, 70, 72
14, 124919, Note_on_c, 10, 70, 0
14, 124980, Note_on_c, 10, 70, 73
14, 125039, Note_on_c, 10, 70, 0
14, 125040, Note_on_c, 10, 79, 74
14, 125099, Note_on_c, 10, 79, 0
14, 125100, Note_on_c, 10, 76, 75
14, 125159, Note_on_c, 10, 76, 0
14, 125160, Note_on_c, 10, 72, 76
14, 125219, Note_on_c, 10, 72, 0
14, 125220, Note_on_c, 10, 70, 76
14, 125275, Note_on_c, 10, 70, 0
14, 125280, Note_on_c, 10, 82, 76
14, 125339, Note_on_c, 10, 82, 0
14, 125340, Note_on_c, 10, 79, 76
14, 125399, Note_on_c, 10, 79, 0
14, 125400, Note_on_c, 10, 76, 76
14, 125459, Note_on_c, 10, 76, 0
14, 125460, Note_on_c, 10, 70, 76
14, 125519, Note_on_c, 10, 70, 0
14, 125520, Note_on_c, 10, 82, 76
14, 125579, Note_on_c, 10, 82, 0
14, 125580, Note_on_c, 10, 79, 76
14, 125639, Note_on_c, 10, 79, 0
14, 125640, Note_on_c, 10, 76, 76
14, 125699, Note_on_c, 10, 76, 0
14, 125700, Note_on_c, 10, 70, 76
14, 125759, Note_on_c, 10, 70, 0
14, 125760, Note_on_c, 10, 82, 76
14, 125819, Note_on_c, 10, 82, 0
14, 125820, Note_on_c, 10, 79, 76
14, 125879, Note_on_c, 10, 79, 0
14, 125880, Note_on_c, 10, 76, 76
14, 125939, Note_on_c, 10, 76, 0
14, 125940, Note_on_c, 10, 70, 76
14, 125995, Note_on_c, 10, 70, 0
14, 126000, Note_on_c, 10, 82, 76
14, 126059, Note_on_c, 10, 82, 0
14, 126060, Note_on_c, 10, 79, 76
14, 126119, Note_on_c, 10, 79, 0
14, 126120, Note_on_c, 10, 76, 76
14, 126179, Note_on_c, 10, 76, 0
14, 126180, Note_on_c, 10, 70, 76
14, 126239, Note_on_c, 10, 70, 0
14, 126240, Note_on_c, 10, 82, 76
14, 126299, Note_on_c, 10, 82, 0
14, 126300, Note_on_c, 10, 79, 76
14, 126359, Note_on_c, 10, 79, 0
14, 126360, Note_on_c, 10, 76, 76
14, 126419, Note_on_c, 10, 76, 0
14, 126420, Note_on_c, 10, 70, 76
14, 126479, Note_on_c, 10, 70, 0
14, 126480, Note_on_c, 10, 82, 76
14, 126539, Note_on_c, 10, 82, 0
14, 126540, Note_on_c, 10, 79, 76
14, 126599, Note_on_c, 10, 79, 0
14, 126600, Note_on_c, 10, 76, 76
14, 126659, Note_on_c, 10, 76, 0
14, 126660, Note_on_c, 10, 72, 76
14, 126715, Note_on_c, 10, 72, 0
14, 126720, Note_on_c, 10, 65, 84
14, 126720, Note_on_c, 10, 72, 84
14, 126720, Note_on_c, 10, 81, 84
14, 126839, Note_on_c, 10, 65, 0
14, 126839, Note_on_c, 10, 72, 0
14, 126839, Note_on_c, 10, 81, 0
14, 133794, Control_c, 10, 11, 77
14, 133800, Note_on_c, 10, 72, 84
14, 133840, Control_c, 10, 11, 78
14, 133886, Control_c, 10, 11, 79
14, 133919, Note_on_c, 10, 72, 0
14, 133920, Note_on_c, 10, 78, 84
14, 133931, Control_c, 10, 11, 80
14, 133977, Control_c, 10, 11, 81
14, 134023, Control_c, 10, 11, 82
14, 134069, Control_c, 10, 11, 83
14, 134114, Control_c, 10, 11, 84
14, 134159, Note_on_c, 10, 78, 0
14, 134160, Note_on_c, 10, 81, 84
14, 134160, Control_c, 10, 11, 85
14, 134206, Control_c, 10, 11, 86
14, 134251, Control_c, 10, 11, 87
14, 134279, Note_on_c, 10, 81, 0
14, 134280, Note_on_c, 10, 84, 84
14, 134297, Control_c, 10, 11, 88
14, 134343, Control_c, 10, 11, 89
14, 134389, Control_c, 10, 11, 90
14, 134434, Control_c, 10, 11, 91
14, 134480, Control_c, 10, 11, 92
14, 134519, Note_on_c, 10, 84, 0
14, 134520, Note_on_c, 10, 81, 84
14, 134526, Control_c, 10, 11, 93
14, 134571, Control_c, 10, 11, 94
14, 134617, Control_c, 10, 11, 95
14, 134631, Note_on_c, 10, 81, 0
14, 134640, Note_on_c, 10, 82, 84
14, 134663, Control_c, 10, 11, 96
14, 134709, Control_c, 10, 11, 97
14, 134754, Control_c, 10, 11, 98
14, 134800, Control_c, 10, 11, 99
14, 134846, Control_c, 10, 11, 100
14, 134891, Control_c, 10, 11, 101
14, 134937, Control_c, 10, 11, 102
14, 134983, Control_c, 10, 11, 103
14, 135029, Control_c, 10, 11, 104
14, 135074, Control_c, 10, 11, 105
14, 135120, Control_c, 10, 11, 106
14, 135166, Control_c, 10, 11, 107
14, 135211, Control_c, 10, 11, 108
14, 135231, Note_on_c, 10, 82, 0
14, 135240, Note_on_c, 10, 72, 84
14, 135257, Control_c, 10, 11, 109
14, 135303, Control_c, 10, 11, 110
14, 135349, Control_c, 10, 11, 111
14, 135359, Note_on_c, 10, 72, 0
14, 135360, Note_on_c, 10, 76, 84
14, 135394, Control_c, 10, 11, 112
14, 135440, Control_c, 10, 11, 113
14, 135486, Control_c, 10, 11, 114
14, 135531, Control_c, 10, 11, 115
14, 135577, Control_c, 10, 11, 116
14, 135599, Note_on_c, 10, 76, 0
14, 135600, Note_on_c, 10, 79, 84
14, 135623, Control_c, 10, 11, 117
14, 135669, Control_c, 10, 11, 118
14, 135714, Control_c, 10, 11, 119
14, 135719, Note_on_c, 10, 79, 0
14, 135720, Note_on_c, 10, 82, 84
14, 135760, Control_c, 10, 11, 120
14, 135806, Control_c, 10, 11, 121
14, 135851, Control_c, 10, 11, 122
14, 135897, Control_c, 10, 11, 123
14, 135943, Control_c, 10, 11, 124
14, 135959, Note_on_c, 10, 82, 0
14, 135960, Note_on_c, 10, 79, 84
14, 135989, Control_c, 10, 11, 125
14, 136034, Control_c, 10, 11, 127
14, 136071, Note_on_c, 10, 79, 0
14, 136080, Note_on_c, 10, 81, 84
14, 136115, Note_on_c, 10, 81, 0
14, 136120, Note_on_c, 10, 81, 84
14, 136155, Note_on_c, 10, 81, 0
14, 136160, Note_on_c, 10, 81, 84
14, 136195, Note_on_c, 10, 81, 0
14, 136200, Note_on_c, 10, 81, 84
14, 136235, Note_on_c, 10, 81, 0
14, 136240, Note_on_c, 10, 81, 84
14, 136275, Note_on_c, 10, 81, 0
14, 136280, Note_on_c, 10, 81, 84
14, 136315, Note_on_c, 10, 81, 0
14, 136320, Note_on_c, 10, 84, 84
14, 136355, Note_on_c, 10, 84, 0
14, 136360, Note_on_c, 10, 84, 84
14, 136395, Note_on_c, 10, 84, 0
14, 136400, Note_on_c, 10, 84, 84
14, 136435, Note_on_c, 10, 84, 0
14, 136440, Note_on_c, 10, 89, 84
14, 136475, Note_on_c, 10, 89, 0
14, 136480, Note_on_c, 10, 89, 84
14, 136515, Note_on_c, 10, 89, 0
14, 136520, Note_on_c, 10, 89, 84
14, 136555, Note_on_c, 10, 89, 0
14, 136560, Note_on_c, 10, 89, 84
14, 136595, Note_on_c, 10, 89, 0
14, 136600, Note_on_c, 10, 89, 84
14, 136635, Note_on_c, 10, 89, 0
14, 136640, Note_on_c, 10, 89, 84
14, 136675, Note_on_c, 10, 89, 0
14, 136680, Note_on_c, 10, 89, 84
14, 136715, Note_on_c, 10, 89, 0
14, 136720, Note_on_c, 10, 89, 84
14, 136755, Note_on_c, 10, 89, 0
14, 136760, Note_on_c, 10, 89, 84
14, 136795, Note_on_c, 10, 89, 0
14, 136800, Note_on_c, 10, 89, 84
14, 136835, Note_on_c, 10, 89, 0
14, 136840, Note_on_c, 10, 89, 84
14, 136875, Note_on_c, 10, 89, 0
14, 136880, Note_on_c, 10, 89, 84
14, 136915, Note_on_c, 10, 89, 0
14, 136920, Note_on_c, 10, 89, 84
14, 136955, Note_on_c, 10, 89, 0
14, 136960, Note_on_c, 10, 89, 84
14, 136995, Note_on_c, 10, 89, 0
14, 137000, Note_on_c, 10, 89, 84
14, 137035, Note_on_c, 10, 89, 0
14, 137040, Note_on_c, 10, 89, 84
14, 137075, Note_on_c, 10, 89, 0
14, 137080, Note_on_c, 10, 89, 84
14, 137115, Note_on_c, 10, 89, 0
14, 137120, Note_on_c, 10, 89, 84
14, 137155, Note_on_c, 10, 89, 0
14, 137160, Note_on_c, 10, 89, 84
14, 137195, Note_on_c, 10, 89, 0
14, 137200, Note_on_c, 10, 89, 84
14, 137235, Note_on_c, 10, 89, 0
14, 137240, Note_on_c, 10, 89, 84
14, 137275, Note_on_c, 10, 89, 0
14, 137280, Note_on_c, 10, 89, 84
14, 137315, Note_on_c, 10, 89, 0
14, 137320, Note_on_c, 10, 89, 84
14, 137355, Note_on_c, 10, 89, 0
14, 137360, Note_on_c, 10, 89, 84
14, 137395, Note_on_c, 10, 89, 0
14, 137400, Note_on_c, 10, 89, 84
14, 137435, Note_on_c, 10, 89, 0
14, 137440, Note_on_c, 10, 89, 84
14, 137475, Note_on_c, 10, 89, 0
14, 137480, Note_on_c, 10, 89, 84
14, 137515, Note_on_c, 10, 89, 0
14, 137520, Note_on_c, 10, 81, 84
14, 137555, Note_on_c, 10, 81, 0
14, 137560, Note_on_c, 10, 81, 84
14, 137595, Note_on_c, 10, 81, 0
14, 137600, Note_on_c, 10, 81, 84
14, 137635, Note_on_c, 10, 81, 0
14, 137640, Note_on_c, 10, 81, 84
14, 137675, Note_on_c, 10, 81, 0
14, 137680, Note_on_c, 10, 81, 84
14, 137715, Note_on_c, 10, 81, 0
14, 137720, Note_on_c, 10, 81, 84
14, 137755, Note_on_c, 10, 81, 0
14, 137760, Note_on_c, 10, 86, 84
14, 137795, Note_on_c, 10, 86, 0
14, 137800, Note_on_c, 10, 86, 84
14, 137835, Note_on_c, 10, 86, 0
14, 137840, Note_on_c, 10, 86, 84
14, 137875, Note_on_c, 10, 86, 0
14, 137880, Note_on_c, 10, 89, 84
14, 137915, Note_on_c, 10, 89, 0
14, 137920, Note_on_c, 10, 89, 84
14, 137955, Note_on_c, 10, 89, 0
14, 137960, Note_on_c, 10, 89, 84
14, 137995, Note_on_c, 10, 89, 0
14, 138000, Note_on_c, 10, 89, 84
14, 138035, Note_on_c, 10, 89, 0
14, 138040, Note_on_c, 10, 89, 84
14, 138075, Note_on_c, 10, 89, 0
14, 138080, Note_on_c, 10, 89, 84
14, 138115, Note_on_c, 10, 89, 0
14, 138120, Note_on_c, 10, 89, 84
14, 138155, Note_on_c, 10, 89, 0
14, 138160, Note_on_c, 10, 89, 84
14, 138195, Note_on_c, 10, 89, 0
14, 138200, Note_on_c, 10, 89, 84
14, 138235, Note_on_c, 10, 89, 0
14, 138240, Note_on_c, 10, 89, 84
14, 138275, Note_on_c, 10, 89, 0
14, 138280, Note_on_c, 10, 89, 84
14, 138315, Note_on_c, 10, 89, 0
14, 138320, Note_on_c, 10, 89, 84
14, 138355, Note_on_c, 10, 89, 0
14, 138360, Note_on_c, 10, 89, 84
14, 138395, Note_on_c, 10, 89, 0
14, 138400, Note_on_c, 10, 89, 84
14, 138435, Note_on_c, 10, 89, 0
14, 138440, Note_on_c, 10, 89, 84
14, 138475, Note_on_c, 10, 89, 0
14, 138480, Note_on_c, 10, 89, 84
14, 138515, Note_on_c, 10, 89, 0
14, 138520, Note_on_c, 10, 89, 84
14, 138555, Note_on_c, 10, 89, 0
14, 138560, Note_on_c, 10, 89, 84
14, 138595, Note_on_c, 10, 89, 0
14, 138600, Note_on_c, 10, 89, 84
14, 138635, Note_on_c, 10, 89, 0
14, 138640, Note_on_c, 10, 89, 84
14, 138675, Note_on_c, 10, 89, 0
14, 138680, Note_on_c, 10, 89, 84
14, 138715, Note_on_c, 10, 89, 0
14, 138720, Note_on_c, 10, 89, 84
14, 138755, Note_on_c, 10, 89, 0
14, 138760, Note_on_c, 10, 89, 84
14, 138795, Note_on_c, 10, 89, 0
14, 138800, Note_on_c, 10, 89, 84
14, 138835, Note_on_c, 10, 89, 0
14, 138840, Note_on_c, 10, 89, 84
14, 138875, Note_on_c, 10, 89, 0
14, 138880, Note_on_c, 10, 89, 84
14, 138915, Note_on_c, 10, 89, 0
14, 138920, Note_on_c, 10, 89, 84
14, 138955, Note_on_c, 10, 89, 0
14, 138960, Note_on_c, 10, 83, 84
14, 138995, Note_on_c, 10, 83, 0
14, 139000, Note_on_c, 10, 83, 84
14, 139035, Note_on_c, 10, 83, 0
14, 139040, Note_on_c, 10, 83, 84
14, 139075, Note_on_c, 10, 83, 0
14, 139080, Note_on_c, 10, 83, 84
14, 139115, Note_on_c, 10, 83, 0
14, 139120, Note_on_c, 10, 83, 84
14, 139155, Note_on_c, 10, 83, 0
14, 139160, Note_on_c, 10, 83, 84
14, 139195, Note_on_c, 10, 83, 0
14, 139200, Note_on_c, 10, 86, 84
14, 139235, Note_on_c, 10, 86, 0
14, 139240, Note_on_c, 10, 86, 84
14, 139275, Note_on_c, 10, 86, 0
14, 139280, Note_on_c, 10, 86, 84
14, 139315, Note_on_c, 10, 86, 0
14, 139320, Note_on_c, 10, 89, 84
14, 139355, Note_on_c, 10, 89, 0
14, 139360, Note_on_c, 10, 89, 84
14, 139395, Note_on_c, 10, 89, 0
14, 139400, Note_on_c, 10, 89, 84
14, 139435, Note_on_c, 10, 89, 0
14, 139440, Note_on_c, 10, 89, 84
14, 139475, Note_on_c, 10, 89, 0
14, 139480, Note_on_c, 10, 89, 84
14, 139515, Note_on_c, 10, 89, 0
14, 139520, Note_on_c, 10, 89, 84
14, 139555, Note_on_c, 10, 89, 0
14, 139560, Note_on_c, 10, 89, 84
14, 139595, Note_on_c, 10, 89, 0
14, 139600, Note_on_c, 10, 89, 84
14, 139635, Note_on_c, 10, 89, 0
14, 139640, Note_on_c, 10, 89, 84
14, 139675, Note_on_c, 10, 89, 0
14, 139680, Note_on_c, 10, 89, 84
14, 139715, Note_on_c, 10, 89, 0
14, 139720, Note_on_c, 10, 89, 82
14, 139755, Note_on_c, 10, 89, 0
14, 139760, Note_on_c, 10, 89, 80
14, 139795, Note_on_c, 10, 89, 0
14, 139800, Note_on_c, 10, 89, 78
14, 139835, Note_on_c, 10, 89, 0
14, 139840, Note_on_c, 10, 89, 76
14, 139875, Note_on_c, 10, 89, 0
14, 139880, Note_on_c, 10, 89, 73
14, 139915, Note_on_c, 10, 89, 0
14, 139920, Note_on_c, 10, 89, 71
14, 139955, Note_on_c, 10, 89, 0
14, 139960, Note_on_c, 10, 89, 69
14, 139995, Note_on_c, 10, 89, 0
14, 140000, Note_on_c, 10, 89, 67
14, 140035, Note_on_c, 10, 89, 0
14, 140040, Note_on_c, 10, 89, 64
14, 140075, Note_on_c, 10, 89, 0
14, 140080, Note_on_c, 10, 89, 62
14, 140115, Note_on_c, 10, 89, 0
14, 140120, Note_on_c, 10, 89, 60
14, 140155, Note_on_c, 10, 89, 0
14, 140160, Note_on_c, 10, 89, 58
14, 140195, Note_on_c, 10, 89, 0
14, 140200, Note_on_c, 10, 89, 56
14, 140235, Note_on_c, 10, 89, 0
14, 140240, Note_on_c, 10, 89, 53
14, 140275, Note_on_c, 10, 89, 0
14, 140280, Note_on_c, 10, 89, 51
14, 140315, Note_on_c, 10, 89, 0
14, 140320, Note_on_c, 10, 89, 49
14, 140355, Note_on_c, 10, 89, 0
14, 140360, Note_on_c, 10, 89, 47
14, 140395, Note_on_c, 10, 89, 0
14, 140400, Note_on_c, 10, 71, 44
14, 140759, Note_on_c, 10, 71, 0
14, 140760, Note_on_c, 10, 67, 44
14, 140999, Note_on_c, 10, 67, 0
14, 141000, Note_on_c, 10, 74, 44
14, 141111, Note_on_c, 10, 74, 0
14, 141120, Note_on_c, 10, 71, 44
14, 141479, Note_on_c, 10, 71, 0
14, 141480, Note_on_c, 10, 67, 44
14, 141719, Note_on_c, 10, 67, 0
14, 141720, Note_on_c, 10, 77, 44
14, 141831, Note_on_c, 10, 77, 0
14, 141840, Note_on_c, 10, 74, 44
14, 141959, Note_on_c, 10, 74, 0
14, 141960, Note_on_c, 10, 71, 44
14, 142079, Note_on_c, 10, 71, 0
14, 142080, Note_on_c, 10, 83, 45
14, 142199, Note_on_c, 10, 83, 0
14, 142200, Note_on_c, 10, 77, 46
14, 142319, Note_on_c, 10, 77, 0
14, 142320, Note_on_c, 10, 74, 47
14, 142439, Note_on_c, 10, 74, 0
14, 142440, Note_on_c, 10, 86, 48
14, 142551, Note_on_c, 10, 86, 0
14, 142560, Note_on_c, 10, 83, 49
14, 142679, Note_on_c, 10, 83, 0
14, 142680, Note_on_c, 10, 79, 50
14, 142799, Note_on_c, 10, 79, 0
14, 142800, Note_on_c, 10, 86, 51
14, 142919, Note_on_c, 10, 86, 0
14, 142920, Note_on_c, 10, 83, 52
14, 143039, Note_on_c, 10, 83, 0
14, 143040, Note_on_c, 10, 79, 53
14, 143159, Note_on_c, 10, 79, 0
14, 143160, Note_on_c, 10, 86, 54
14, 143271, Note_on_c, 10, 86, 0
14, 143280, Note_on_c, 10, 88, 54
14, 143399, Note_on_c, 10, 88, 0
14, 143400, Note_on_c, 10, 84, 55
14, 143519, Note_on_c, 10, 84, 0
14, 143520, Note_on_c, 10, 88, 56
14, 143639, Note_on_c, 10, 88, 0
14, 143640, Note_on_c, 10, 84, 57
14, 143759, Note_on_c, 10, 84, 0
14, 143760, Note_on_c, 10, 79, 58
14, 143879, Note_on_c, 10, 79, 0
14, 143880, Note_on_c, 10, 84, 59
14, 143999, Note_on_c, 10, 84, 0
14, 144000, Note_on_c, 10, 79, 60
14, 144119, Note_on_c, 10, 79, 0
14, 144120, Note_on_c, 10, 76, 61
14, 144239, Note_on_c, 10, 76, 0
14, 144240, Note_on_c, 10, 79, 62
14, 144359, Note_on_c, 10, 79, 0
14, 144360, Note_on_c, 10, 76, 63
14, 144479, Note_on_c, 10, 76, 0
14, 144480, Note_on_c, 10, 72, 64
14, 144599, Note_on_c, 10, 72, 0
14, 144600, Note_on_c, 10, 76, 65
14, 144711, Note_on_c, 10, 76, 0
14, 144720, Note_on_c, 10, 72, 65
14, 144839, Note_on_c, 10, 72, 0
14, 144840, Note_on_c, 10, 70, 66
14, 144959, Note_on_c, 10, 70, 0
14, 144960, Note_on_c, 10, 72, 67
14, 145079, Note_on_c, 10, 72, 0
14, 145080, Note_on_c, 10, 70, 68
14, 145199, Note_on_c, 10, 70, 0
14, 145200, Note_on_c, 10, 67, 69
14, 145319, Note_on_c, 10, 67, 0
14, 145320, Note_on_c, 10, 70, 70
14, 145431, Note_on_c, 10, 70, 0
14, 145440, Note_on_c, 10, 67, 71
14, 145559, Note_on_c, 10, 67, 0
14, 145560, Note_on_c, 10, 64, 72
14, 145679, Note_on_c, 10, 64, 0
14, 145680, Note_on_c, 10, 67, 73
14, 145799, Note_on_c, 10, 67, 0
14, 145800, Note_on_c, 10, 64, 74
14, 145919, Note_on_c, 10, 64, 0
14, 145920, Note_on_c, 10, 60, 75
14, 146031, Note_on_c, 10, 60, 0
14, 146040, Note_on_c, 10, 64, 76
14, 146099, Note_on_c, 10, 64, 0
14, 146100, Note_on_c, 10, 60, 76
14, 146159, Note_on_c, 10, 60, 0
14, 146160, Note_on_c, 10, 58, 76
14, 146219, Note_on_c, 10, 58, 0
14, 146220, Note_on_c, 10, 60, 76
14, 146279, Note_on_c, 10, 60, 0
14, 146280, Note_on_c, 10, 64, 76
14, 146339, Note_on_c, 10, 64, 0
14, 146340, Note_on_c, 10, 67, 76
14, 146399, Note_on_c, 10, 67, 0
14, 146400, Note_on_c, 10, 70, 76
14, 146459, Note_on_c, 10, 70, 0
14, 146460, Note_on_c, 10, 67, 76
14, 146519, Note_on_c, 10, 67, 0
14, 146520, Note_on_c, 10, 64, 76
14, 146579, Note_on_c, 10, 64, 0
14, 146580, Note_on_c, 10, 67, 76
14, 146639, Note_on_c, 10, 67, 0
14, 146640, Note_on_c, 10, 70, 76
14, 146699, Note_on_c, 10, 70, 0
14, 146700, Note_on_c, 10, 72, 76
14, 146759, Note_on_c, 10, 72, 0
14, 146760, Note_on_c, 10, 76, 76
14, 146819, Note_on_c, 10, 76, 0
14, 146820, Note_on_c, 10, 72, 76
14, 146875, Note_on_c, 10, 72, 0
14, 146880, Note_on_c, 10, 70, 76
14, 146939, Note_on_c, 10, 70, 0
14, 146940, Note_on_c, 10, 72, 76
14, 146999, Note_on_c, 10, 72, 0
14, 147000, Note_on_c, 10, 76, 76
14, 147059, Note_on_c, 10, 76, 0
14, 147060, Note_on_c, 10, 79, 76
14, 147119, Note_on_c, 10, 79, 0
14, 147120, Note_on_c, 10, 82, 76
14, 147179, Note_on_c, 10, 82, 0
14, 147180, Note_on_c, 10, 79, 76
14, 147239, Note_on_c, 10, 79, 0
14, 147240, Note_on_c, 10, 82, 76
14, 147299, Note_on_c, 10, 82, 0
14, 147300, Note_on_c, 10, 79, 76
14, 147359, Note_on_c, 10, 79, 0
14, 147360, Note_on_c, 10, 82, 76
14, 147419, Note_on_c, 10, 82, 0
14, 147420, Note_on_c, 10, 79, 76
14, 147479, Note_on_c, 10, 79, 0
14, 147480, Note_on_c, 10, 82, 76
14, 147539, Note_on_c, 10, 82, 0
14, 147540, Note_on_c, 10, 79, 76
14, 147595, Note_on_c, 10, 79, 0
14, 147600, Note_on_c, 10, 69, 84
14, 147600, Note_on_c, 10, 81, 84
14, 147839, Note_on_c, 10, 69, 0
14, 147839, Note_on_c, 10, 81, 0
14, 154620, Note_on_c, 10, 72, 71
14, 154679, Note_on_c, 10, 72, 0
14, 154680, Note_on_c, 10, 74, 71
14, 154739, Note_on_c, 10, 74, 0
14, 154740, Note_on_c, 10, 76, 71
14, 154795, Note_on_c, 10, 76, 0
14, 154800, Note_on_c, 10, 78, 72
14, 154859, Note_on_c, 10, 78, 0
14, 154860, Note_on_c, 10, 79, 72
14, 154919, Note_on_c, 10, 79, 0
14, 154920, Note_on_c, 10, 78, 72
14, 154979, Note_on_c, 10, 78, 0
14, 154980, Note_on_c, 10, 76, 73
14, 155039, Note_on_c, 10, 76, 0
14, 155040, Note_on_c, 10, 78, 73
14, 155099, Note_on_c, 10, 78, 0
14, 155100, Note_on_c, 10, 79, 73
14, 155159, Note_on_c, 10, 79, 0
14, 155160, Note_on_c, 10, 81, 74
14, 155219, Note_on_c, 10, 81, 0
14, 155220, Note_on_c, 10, 82, 74
14, 155279, Note_on_c, 10, 82, 0
14, 155280, Note_on_c, 10, 84, 74
14, 155339, Note_on_c, 10, 84, 0
14, 155340, Note_on_c, 10, 82, 75
14, 155399, Note_on_c, 10, 82, 0
14, 155400, Note_on_c, 10, 84, 75
14, 155459, Note_on_c, 10, 84, 0
14, 155460, Note_on_c, 10, 81, 75
14, 155515, Note_on_c, 10, 81, 0
14, 155520, Note_on_c, 10, 82, 76
14, 155579, Note_on_c, 10, 82, 0
14, 155580, Note_on_c, 10, 84, 76
14, 155639, Note_on_c, 10, 84, 0
14, 155640, Note_on_c, 10, 82, 76
14, 155699, Note_on_c, 10, 82, 0
14, 155700, Note_on_c, 10, 81, 77
14, 155759, Note_on_c, 10, 81, 0
14, 155760, Note_on_c, 10, 82, 77
14, 155819, Note_on_c, 10, 82, 0
14, 155820, Note_on_c, 10, 81, 77
14, 155879, Note_on_c, 10, 81, 0
14, 155880, Note_on_c, 10, 79, 78
14, 155939, Note_on_c, 10, 79, 0
14, 155940, Note_on_c, 10, 81, 78
14, 155999, Note_on_c, 10, 81, 0
14, 156000, Note_on_c, 10, 79, 78
14, 156059, Note_on_c, 10, 79, 0
14, 156060, Note_on_c, 10, 77, 79
14, 156119, Note_on_c, 10, 77, 0
14, 156120, Note_on_c, 10, 79, 79
14, 156179, Note_on_c, 10, 79, 0
14, 156180, Note_on_c, 10, 77, 79
14, 156235, Note_on_c, 10, 77, 0
14, 156240, Note_on_c, 10, 76, 80
14, 156299, Note_on_c, 10, 76, 0
14, 156300, Note_on_c, 10, 77, 80
14, 156359, Note_on_c, 10, 77, 0
14, 156360, Note_on_c, 10, 76, 80
14, 156419, Note_on_c, 10, 76, 0
14, 156420, Note_on_c, 10, 74, 81
14, 156479, Note_on_c, 10, 74, 0
14, 156480, Note_on_c, 10, 76, 81
14, 156539, Note_on_c, 10, 76, 0
14, 156540, Note_on_c, 10, 77, 81
14, 156599, Note_on_c, 10, 77, 0
14, 156600, Note_on_c, 10, 79, 82
14, 156659, Note_on_c, 10, 79, 0
14, 156660, Note_on_c, 10, 81, 82
14, 156719, Note_on_c, 10, 81, 0
14, 156720, Note_on_c, 10, 82, 82
14, 156779, Note_on_c, 10, 82, 0
14, 156780, Note_on_c, 10, 84, 83
14, 156839, Note_on_c, 10, 84, 0
14, 156840, Note_on_c, 10, 86, 83
14, 156899, Note_on_c, 10, 86, 0
14, 156900, Note_on_c, 10, 88, 83
14, 156955, Note_on_c, 10, 88, 0
14, 156960, Note_on_c, 10, 89, 84
14, 156995, Note_on_c, 10, 89, 0
14, 157000, Note_on_c, 10, 89, 84
14, 157035, Note_on_c, 10, 89, 0
14, 157040, Note_on_c, 10, 89, 84
14, 157075, Note_on_c, 10, 89, 0
14, 157080, Note_on_c, 10, 89, 84
14, 157115, Note_on_c, 10, 89, 0
14, 157120, Note_on_c, 10, 89, 84
14, 157155, Note_on_c, 10, 89, 0
14, 157160, Note_on_c, 10, 89, 84
14, 157195, Note_on_c, 10, 89, 0
14, 157200, Note_on_c, 10, 89, 84
14, 157235, Note_on_c, 10, 89, 0
14, 157240, Note_on_c, 10, 89, 84
14, 157275, Note_on_c, 10, 89, 0
14, 157280, Note_on_c, 10, 89, 84
14, 157315, Note_on_c, 10, 89, 0
14, 157320, Note_on_c, 10, 89, 84
14, 157355, Note_on_c, 10, 89, 0
14, 157360, Note_on_c, 10, 89, 84
14, 157395, Note_on_c, 10, 89, 0
14, 157400, Note_on_c, 10, 89, 84
14, 157435, Note_on_c, 10, 89, 0
14, 157440, Note_on_c, 10, 89, 84
14, 157475, Note_on_c, 10, 89, 0
14, 157480, Note_on_c, 10, 89, 84
14, 157515, Note_on_c, 10, 89, 0
14, 157520, Note_on_c, 10, 89, 84
14, 157555, Note_on_c, 10, 89, 0
14, 157560, Note_on_c, 10, 89, 84
14, 157595, Note_on_c, 10, 89, 0
14, 157600, Note_on_c, 10, 89, 84
14, 157635, Note_on_c, 10, 89, 0
14, 157640, Note_on_c, 10, 89, 84
14, 157675, Note_on_c, 10, 89, 0
14, 157680, Note_on_c, 10, 89, 84
14, 157715, Note_on_c, 10, 89, 0
14, 157720, Note_on_c, 10, 89, 84
14, 157755, Note_on_c, 10, 89, 0
14, 157760, Note_on_c, 10, 89, 84
14, 157795, Note_on_c, 10, 89, 0
14, 157800, Note_on_c, 10, 89, 84
14, 157835, Note_on_c, 10, 89, 0
14, 157840, Note_on_c, 10, 89, 84
14, 157875, Note_on_c, 10, 89, 0
14, 157880, Note_on_c, 10, 89, 84
14, 157915, Note_on_c, 10, 89, 0
14, 157920, Note_on_c, 10, 89, 84
14, 157955, Note_on_c, 10, 89, 0
14, 157960, Note_on_c, 10, 89, 84
14, 157995, Note_on_c, 10, 89, 0
14, 158000, Note_on_c, 10, 89, 84
14, 158035, Note_on_c, 10, 89, 0
14, 158040, Note_on_c, 10, 89, 84
14, 158075, Note_on_c, 10, 89, 0
14, 158080, Note_on_c, 10, 89, 84
14, 158115, Note_on_c, 10, 89, 0
14, 158120, Note_on_c, 10, 89, 84
14, 158155, Note_on_c, 10, 89, 0
14, 158160, Note_on_c, 10, 89, 84
14, 158195, Note_on_c, 10, 89, 0
14, 158200, Note_on_c, 10, 89, 84
14, 158235, Note_on_c, 10, 89, 0
14, 158240, Note_on_c, 10, 89, 84
14, 158275, Note_on_c, 10, 89, 0
14, 158280, Note_on_c, 10, 89, 84
14, 158315, Note_on_c, 10, 89, 0
14, 158320, Note_on_c, 10, 89, 84
14, 158355, Note_on_c, 10, 89, 0
14, 158360, Note_on_c, 10, 89, 84
14, 158395, Note_on_c, 10, 89, 0
14, 158400, Note_on_c, 10, 89, 84
14, 158435, Note_on_c, 10, 89, 0
14, 158440, Note_on_c, 10, 89, 84
14, 158475, Note_on_c, 10, 89, 0
14, 158480, Note_on_c, 10, 89, 84
14, 158515, Note_on_c, 10, 89, 0
14, 158520, Note_on_c, 10, 89, 84
14, 158555, Note_on_c, 10, 89, 0
14, 158560, Note_on_c, 10, 89, 84
14, 158595, Note_on_c, 10, 89, 0
14, 158600, Note_on_c, 10, 89, 84
14, 158635, Note_on_c, 10, 89, 0
14, 158640, Note_on_c, 10, 89, 84
14, 158675, Note_on_c, 10, 89, 0
14, 158680, Note_on_c, 10, 89, 84
14, 158715, Note_on_c, 10, 89, 0
14, 158720, Note_on_c, 10, 89, 84
14, 158755, Note_on_c, 10, 89, 0
14, 158760, Note_on_c, 10, 89, 84
14, 158795, Note_on_c, 10, 89, 0
14, 158800, Note_on_c, 10, 89, 84
14, 158835, Note_on_c, 10, 89, 0
14, 158840, Note_on_c, 10, 89, 84
14, 158875, Note_on_c, 10, 89, 0
14, 158880, Note_on_c, 10, 89, 84
14, 158915, Note_on_c, 10, 89, 0
14, 158920, Note_on_c, 10, 89, 84
14, 158955, Note_on_c, 10, 89, 0
14, 158960, Note_on_c, 10, 89, 84
14, 158995, Note_on_c, 10, 89, 0
14, 159000, Note_on_c, 10, 89, 84
14, 159035, Note_on_c, 10, 89, 0
14, 159040, Note_on_c, 10, 89, 84
14, 159075, Note_on_c, 10, 89, 0
14, 159080, Note_on_c, 10, 89, 84
14, 159115, Note_on_c, 10, 89, 0
14, 159120, Note_on_c, 10, 89, 84
14, 159155, Note_on_c, 10, 89, 0
14, 159160, Note_on_c, 10, 89, 84
14, 159195, Note_on_c, 10, 89, 0
14, 159200, Note_on_c, 10, 89, 84
14, 159235, Note_on_c, 10, 89, 0
14, 159240, Note_on_c, 10, 89, 84
14, 159275, Note_on_c, 10, 89, 0
14, 159280, Note_on_c, 10, 89, 84
14, 159315, Note_on_c, 10, 89, 0
14, 159320, Note_on_c, 10, 89, 84
14, 159355, Note_on_c, 10, 89, 0
14, 159360, Note_on_c, 10, 89, 84
14, 159395, Note_on_c, 10, 89, 0
14, 159400, Note_on_c, 10, 89, 84
14, 159435, Note_on_c, 10, 89, 0
14, 159440, Note_on_c, 10, 89, 84
14, 159475, Note_on_c, 10, 89, 0
14, 159480, Note_on_c, 10, 89, 84
14, 159515, Note_on_c, 10, 89, 0
14, 159520, Note_on_c, 10, 89, 84
14, 159555, Note_on_c, 10, 89, 0
14, 159560, Note_on_c, 10, 89, 84
14, 159595, Note_on_c, 10, 89, 0
14, 159600, Note_on_c, 10, 89, 84
14, 159635, Note_on_c, 10, 89, 0
14, 159640, Note_on_c, 10, 89, 84
14, 159675, Note_on_c, 10, 89, 0
14, 159680, Note_on_c, 10, 89, 84
14, 159715, Note_on_c, 10, 89, 0
14, 159720, Note_on_c, 10, 89, 84
14, 159755, Note_on_c, 10, 89, 0
14, 159760, Note_on_c, 10, 89, 84
14, 159795, Note_on_c, 10, 89, 0
14, 159800, Note_on_c, 10, 89, 84
14, 159835, Note_on_c, 10, 89, 0
14, 159840, Note_on_c, 10, 89, 84
14, 159875, Note_on_c, 10, 89, 0
14, 159880, Note_on_c, 10, 89, 84
14, 159915, Note_on_c, 10, 89, 0
14, 159920, Note_on_c, 10, 89, 84
14, 159955, Note_on_c, 10, 89, 0
14, 159960, Note_on_c, 10, 89, 84
14, 159995, Note_on_c, 10, 89, 0
14, 160000, Note_on_c, 10, 89, 84
14, 160035, Note_on_c, 10, 89, 0
14, 160040, Note_on_c, 10, 89, 84
14, 160075, Note_on_c, 10, 89, 0
14, 160080, Note_on_c, 10, 89, 84
14, 160115, Note_on_c, 10, 89, 0
14, 160120, Note_on_c, 10, 89, 84
14, 160155, Note_on_c, 10, 89, 0
14, 160160, Note_on_c, 10, 89, 84
14, 160195, Note_on_c, 10, 89, 0
14, 160200, Note_on_c, 10, 91, 84
14, 160235, Note_on_c, 10, 91, 0
14, 160240, Note_on_c, 10, 91, 84
14, 160275, Note_on_c, 10, 91, 0
14, 160280, Note_on_c, 10, 91, 84
14, 160315, Note_on_c, 10, 91, 0
14, 160320, Note_on_c, 10, 91, 84
14, 160355, Note_on_c, 10, 91, 0
14, 160360, Note_on_c, 10, 91, 84
14, 160395, Note_on_c, 10, 91, 0
14, 160400, Note_on_c, 10, 91, 84
14, 160435, Note_on_c, 10, 91, 0
14, 160440, Note_on_c, 10, 91, 84
14, 160475, Note_on_c, 10, 91, 0
14, 160480, Note_on_c, 10, 91, 84
14, 160515, Note_on_c, 10, 91, 0
14, 160520, Note_on_c, 10, 91, 84
14, 160555, Note_on_c, 10, 91, 0
14, 160560, Note_on_c, 10, 91, 84
14, 160595, Note_on_c, 10, 91, 0
14, 160600, Note_on_c, 10, 91, 84
14, 160635, Note_on_c, 10, 91, 0
14, 160640, Note_on_c, 10, 91, 84
14, 160675, Note_on_c, 10, 91, 0
14, 160680, Note_on_c, 10, 91, 84
14, 160715, Note_on_c, 10, 91, 0
14, 160720, Note_on_c, 10, 91, 84
14, 160755, Note_on_c, 10, 91, 0
14, 160760, Note_on_c, 10, 91, 84
14, 160795, Note_on_c, 10, 91, 0
14, 160800, Note_on_c, 10, 91, 84
14, 160835, Note_on_c, 10, 91, 0
14, 160840, Note_on_c, 10, 91, 84
14, 160875, Note_on_c, 10, 91, 0
14, 160880, Note_on_c, 10, 91, 84
14, 160915, Note_on_c, 10, 91, 0
14, 160920, Note_on_c, 10, 91, 84
14, 160955, Note_on_c, 10, 91, 0
14, 160960, Note_on_c, 10, 91, 84
14, 160995, Note_on_c, 10, 91, 0
14, 161000, Note_on_c, 10, 91, 84
14, 161035, Note_on_c, 10, 91, 0
14, 161040, Note_on_c, 10, 91, 84
14, 161075, Note_on_c, 10, 91, 0
14, 161080, Note_on_c, 10, 91, 84
14, 161115, Note_on_c, 10, 91, 0
14, 161120, Note_on_c, 10, 91, 84
14, 161155, Note_on_c, 10, 91, 0
14, 161160, Note_on_c, 10, 91, 84
14, 161195, Note_on_c, 10, 91, 0
14, 161200, Note_on_c, 10, 91, 84
14, 161235, Note_on_c, 10, 91, 0
14, 161240, Note_on_c, 10, 91, 84
14, 161275, Note_on_c, 10, 91, 0
14, 161280, Note_on_c, 10, 91, 84
14, 161315, Note_on_c, 10, 91, 0
14, 161320, Note_on_c, 10, 91, 84
14, 161355, Note_on_c, 10, 91, 0
14, 161360, Note_on_c, 10, 91, 84
14, 161395, Note_on_c, 10, 91, 0
14, 161400, Note_on_c, 10, 91, 84
14, 161435, Note_on_c, 10, 91, 0
14, 161440, Note_on_c, 10, 91, 84
14, 161475, Note_on_c, 10, 91, 0
14, 161480, Note_on_c, 10, 91, 84
14, 161515, Note_on_c, 10, 91, 0
14, 161520, Note_on_c, 10, 91, 84
14, 161555, Note_on_c, 10, 91, 0
14, 161560, Note_on_c, 10, 91, 84
14, 161595, Note_on_c, 10, 91, 0
14, 161600, Note_on_c, 10, 91, 84
14, 161635, Note_on_c, 10, 91, 0
14, 161640, Note_on_c, 10, 91, 84
14, 161675, Note_on_c, 10, 91, 0
14, 161680, Note_on_c, 10, 91, 84
14, 161715, Note_on_c, 10, 91, 0
14, 161720, Note_on_c, 10, 91, 84
14, 161755, Note_on_c, 10, 91, 0
14, 161760, Note_on_c, 10, 91, 84
14, 161795, Note_on_c, 10, 91, 0
14, 161800, Note_on_c, 10, 91, 84
14, 161835, Note_on_c, 10, 91, 0
14, 161840, Note_on_c, 10, 91, 84
14, 161875, Note_on_c, 10, 91, 0
14, 161880, Note_on_c, 10, 91, 84
14, 161915, Note_on_c, 10, 91, 0
14, 161920, Note_on_c, 10, 91, 84
14, 161955, Note_on_c, 10, 91, 0
14, 161960, Note_on_c, 10, 91, 84
14, 161995, Note_on_c, 10, 91, 0
14, 162000, Note_on_c, 10, 91, 84
14, 162035, Note_on_c, 10, 91, 0
14, 162040, Note_on_c, 10, 91, 84
14, 162075, Note_on_c, 10, 91, 0
14, 162080, Note_on_c, 10, 91, 84
14, 162115, Note_on_c, 10, 91, 0
14, 162120, Note_on_c, 10, 91, 84
14, 162155, Note_on_c, 10, 91, 0
14, 162160, Note_on_c, 10, 91, 84
14, 162195, Note_on_c, 10, 91, 0
14, 162200, Note_on_c, 10, 91, 84
14, 162235, Note_on_c, 10, 91, 0
14, 162240, Note_on_c, 10, 91, 84
14, 162275, Note_on_c, 10, 91, 0
14, 162280, Note_on_c, 10, 91, 84
14, 162315, Note_on_c, 10, 91, 0
14, 162320, Note_on_c, 10, 91, 84
14, 162355, Note_on_c, 10, 91, 0
14, 162360, Note_on_c, 10, 91, 84
14, 162395, Note_on_c, 10, 91, 0
14, 162400, Note_on_c, 10, 91, 84
14, 162435, Note_on_c, 10, 91, 0
14, 162440, Note_on_c, 10, 91, 84
14, 162475, Note_on_c, 10, 91, 0
14, 162480, Note_on_c, 10, 91, 84
14, 162515, Note_on_c, 10, 91, 0
14, 162520, Note_on_c, 10, 91, 84
14, 162555, Note_on_c, 10, 91, 0
14, 162560, Note_on_c, 10, 91, 84
14, 162595, Note_on_c, 10, 91, 0
14, 162600, Note_on_c, 10, 91, 84
14, 162635, Note_on_c, 10, 91, 0
14, 162640, Note_on_c, 10, 91, 84
14, 162675, Note_on_c, 10, 91, 0
14, 162680, Note_on_c, 10, 91, 84
14, 162715, Note_on_c, 10, 91, 0
14, 162720, Note_on_c, 10, 91, 84
14, 162755, Note_on_c, 10, 91, 0
14, 162760, Note_on_c, 10, 91, 84
14, 162795, Note_on_c, 10, 91, 0
14, 162800, Note_on_c, 10, 91, 84
14, 162835, Note_on_c, 10, 91, 0
14, 162840, Note_on_c, 10, 91, 84
14, 162875, Note_on_c, 10, 91, 0
14, 162880, Note_on_c, 10, 91, 84
14, 162915, Note_on_c, 10, 91, 0
14, 162920, Note_on_c, 10, 91, 84
14, 162955, Note_on_c, 10, 91, 0
14, 162960, Note_on_c, 10, 91, 84
14, 162995, Note_on_c, 10, 91, 0
14, 163000, Note_on_c, 10, 91, 84
14, 163035, Note_on_c, 10, 91, 0
14, 163040, Note_on_c, 10, 91, 84
14, 163075, Note_on_c, 10, 91, 0
14, 163080, Note_on_c, 10, 91, 84
14, 163115, Note_on_c, 10, 91, 0
14, 163120, Note_on_c, 10, 91, 84
14, 163155, Note_on_c, 10, 91, 0
14, 163160, Note_on_c, 10, 91, 84
14, 163195, Note_on_c, 10, 91, 0
14, 163200, Note_on_c, 10, 91, 84
14, 163235, Note_on_c, 10, 91, 0
14, 163240, Note_on_c, 10, 91, 84
14, 163275, Note_on_c, 10, 91, 0
14, 163280, Note_on_c, 10, 91, 84
14, 163315, Note_on_c, 10, 91, 0
14, 163320, Note_on_c, 10, 91, 84
14, 163355, Note_on_c, 10, 91, 0
14, 163360, Note_on_c, 10, 91, 84
14, 163395, Note_on_c, 10, 91, 0
14, 163400, Note_on_c, 10, 91, 84
14, 163435, Note_on_c, 10, 91, 0
14, 163440, Note_on_c, 10, 89, 84
14, 163475, Note_on_c, 10, 89, 0
14, 163480, Note_on_c, 10, 89, 84
14, 163515, Note_on_c, 10, 89, 0
14, 163520, Note_on_c, 10, 89, 84
14, 163555, Note_on_c, 10, 89, 0
14, 163560, Note_on_c, 10, 89, 84
14, 163595, Note_on_c, 10, 89, 0
14, 163600, Note_on_c, 10, 89, 84
14, 163635, Note_on_c, 10, 89, 0
14, 163640, Note_on_c, 10, 89, 84
14, 163675, Note_on_c, 10, 89, 0
14, 163680, Note_on_c, 10, 89, 84
14, 163715, Note_on_c, 10, 89, 0
14, 163720, Note_on_c, 10, 89, 84
14, 163755, Note_on_c, 10, 89, 0
14, 163760, Note_on_c, 10, 89, 84
14, 163795, Note_on_c, 10, 89, 0
14, 163800, Note_on_c, 10, 89, 84
14, 163835, Note_on_c, 10, 89, 0
14, 163840, Note_on_c, 10, 89, 84
14, 163875, Note_on_c, 10, 89, 0
14, 163880, Note_on_c, 10, 89, 84
14, 163915, Note_on_c, 10, 89, 0
14, 163920, Note_on_c, 10, 89, 84
14, 163955, Note_on_c, 10, 89, 0
14, 163960, Note_on_c, 10, 89, 84
14, 163995, Note_on_c, 10, 89, 0
14, 164000, Note_on_c, 10, 89, 84
14, 164035, Note_on_c, 10, 89, 0
14, 164040, Note_on_c, 10, 89, 84
14, 164075, Note_on_c, 10, 89, 0
14, 164080, Note_on_c, 10, 89, 84
14, 164115, Note_on_c, 10, 89, 0
14, 164120, Note_on_c, 10, 89, 84
14, 164155, Note_on_c, 10, 89, 0
14, 164160, Note_on_c, 10, 87, 84
14, 164195, Note_on_c, 10, 87, 0
14, 164200, Note_on_c, 10, 87, 84
14, 164235, Note_on_c, 10, 87, 0
14, 164240, Note_on_c, 10, 87, 84
14, 164275, Note_on_c, 10, 87, 0
14, 164280, Note_on_c, 10, 87, 84
14, 164315, Note_on_c, 10, 87, 0
14, 164320, Note_on_c, 10, 87, 84
14, 164355, Note_on_c, 10, 87, 0
14, 164360, Note_on_c, 10, 87, 84
14, 164395, Note_on_c, 10, 87, 0
14, 164400, Note_on_c, 10, 87, 84
14, 164435, Note_on_c, 10, 87, 0
14, 164440, Note_on_c, 10, 87, 84
14, 164475, Note_on_c, 10, 87, 0
14, 164480, Note_on_c, 10, 87, 84
14, 164515, Note_on_c, 10, 87, 0
14, 164520, Note_on_c, 10, 86, 84
14, 164555, Note_on_c, 10, 86, 0
14, 164560, Note_on_c, 10, 86, 84
14, 164595, Note_on_c, 10, 86, 0
14, 164600, Note_on_c, 10, 86, 84
14, 164635, Note_on_c, 10, 86, 0
14, 164640, Note_on_c, 10, 86, 84
14, 164675, Note_on_c, 10, 86, 0
14, 164680, Note_on_c, 10, 86, 84
14, 164715, Note_on_c, 10, 86, 0
14, 164720, Note_on_c, 10, 86, 84
14, 164755, Note_on_c, 10, 86, 0
14, 164760, Note_on_c, 10, 86, 84
14, 164795, Note_on_c, 10, 86, 0
14, 164800, Note_on_c, 10, 86, 84
14, 164835, Note_on_c, 10, 86, 0
14, 164840, Note_on_c, 10, 86, 84
14, 164875, Note_on_c, 10, 86, 0
14, 164880, Note_on_c, 10, 84, 84
14, 164915, Note_on_c, 10, 84, 0
14, 164920, Note_on_c, 10, 84, 84
14, 164955, Note_on_c, 10, 84, 0
14, 164960, Note_on_c, 10, 84, 84
14, 164995, Note_on_c, 10, 84, 0
14, 165000, Note_on_c, 10, 84, 84
14, 165035, Note_on_c, 10, 84, 0
14, 165040, Note_on_c, 10, 84, 84
14, 165075, Note_on_c, 10, 84, 0
14, 165080, Note_on_c, 10, 84, 84
14, 165115, Note_on_c, 10, 84, 0
14, 165120, Note_on_c, 10, 84, 84
14, 165155, Note_on_c, 10, 84, 0
14, 165160, Note_on_c, 10, 84, 84
14, 165195, Note_on_c, 10, 84, 0
14, 165200, Note_on_c, 10, 84, 84
14, 165235, Note_on_c, 10, 84, 0
14, 165240, Note_on_c, 10, 82, 84
14, 165275, Note_on_c, 10, 82, 0
14, 165280, Note_on_c, 10, 82, 84
14, 165315, Note_on_c, 10, 82, 0
14, 165320, Note_on_c, 10, 82, 84
14, 165355, Note_on_c, 10, 82, 0
14, 165360, Note_on_c, 10, 82, 84
14, 165395, Note_on_c, 10, 82, 0
14, 165400, Note_on_c, 10, 82, 84
14, 165435, Note_on_c, 10, 82, 0
14, 165440, Note_on_c, 10, 82, 84
14, 165475, Note_on_c, 10, 82, 0
14, 165480, Note_on_c, 10, 82, 84
14, 165515, Note_on_c, 10, 82, 0
14, 165520, Note_on_c, 10, 82, 84
14, 165555, Note_on_c, 10, 82, 0
14, 165560, Note_on_c, 10, 82, 84
14, 165595, Note_on_c, 10, 82, 0
14, 165600, Note_on_c, 10, 81, 84
14, 165635, Note_on_c, 10, 81, 0
14, 165640, Note_on_c, 10, 81, 84
14, 165675, Note_on_c, 10, 81, 0
14, 165680, Note_on_c, 10, 81, 83
14, 165715, Note_on_c, 10, 81, 0
14, 165720, Note_on_c, 10, 81, 82
14, 165755, Note_on_c, 10, 81, 0
14, 165760, Note_on_c, 10, 81, 81
14, 165795, Note_on_c, 10, 81, 0
14, 165800, Note_on_c, 10, 81, 80
14, 165835, Note_on_c, 10, 81, 0
14, 165840, Note_on_c, 10, 81, 79
14, 165875, Note_on_c, 10, 81, 0
14, 165880, Note_on_c, 10, 81, 78
14, 165915, Note_on_c, 10, 81, 0
14, 165920, Note_on_c, 10, 81, 77
14, 165955, Note_on_c, 10, 81, 0
14, 165960, Note_on_c, 10, 79, 76
14, 165995, Note_on_c, 10, 79, 0
14, 166000, Note_on_c, 10, 79, 76
14, 166035, Note_on_c, 10, 79, 0
14, 166040, Note_on_c, 10, 79, 75
14, 166075, Note_on_c, 10, 79, 0
14, 166080, Note_on_c, 10, 79, 74
14, 166115, Note_on_c, 10, 79, 0
14, 166120, Note_on_c, 10, 79, 73
14, 166155, Note_on_c, 10, 79, 0
14, 166160, Note_on_c, 10, 79, 72
14, 166195, Note_on_c, 10, 79, 0
14, 166200, Note_on_c, 10, 79, 71
14, 166235, Note_on_c, 10, 79, 0
14, 166240, Note_on_c, 10, 79, 70
14, 166275, Note_on_c, 10, 79, 0
14, 166280, Note_on_c, 10, 79, 69
14, 166315, Note_on_c, 10, 79, 0
14, 166320, Note_on_c, 10, 77, 68
14, 166355, Note_on_c, 10, 77, 0
14, 166360, Note_on_c, 10, 77, 68
14, 166395, Note_on_c, 10, 77, 0
14, 166400, Note_on_c, 10, 77, 67
14, 166435, Note_on_c, 10, 77, 0
14, 166440, Note_on_c, 10, 77, 66
14, 166475, Note_on_c, 10, 77, 0
14, 166480, Note_on_c, 10, 77, 65
14, 166515, Note_on_c, 10, 77, 0
14, 166520, Note_on_c, 10, 77, 64
14, 166555, Note_on_c, 10, 77, 0
14, 166560, Note_on_c, 10, 77, 63
14, 166595, Note_on_c, 10, 77, 0
14, 166600, Note_on_c, 10, 77, 62
14, 166635, Note_on_c, 10, 77, 0
14, 166640, Note_on_c, 10, 77, 61
14, 166675, Note_on_c, 10, 77, 0
14, 166680, Note_on_c, 10, 76, 60
14, 166715, Note_on_c, 10, 76, 0
14, 166720, Note_on_c, 10, 76, 60
14, 166755, Note_on_c, 10, 76, 0
14, 166760, Note_on_c, 10, 76, 59
14, 166795, Note_on_c, 10, 76, 0
14, 166800, Note_on_c, 10, 76, 58
14, 166835, Note_on_c, 10, 76, 0
14, 166840, Note_on_c, 10, 76, 57
14, 166875, Note_on_c, 10, 76, 0
14, 166880, Note_on_c, 10, 76, 56
14, 166915, Note_on_c, 10, 76, 0
14, 166920, Note_on_c, 10, 76, 55
14, 166955, Note_on_c, 10, 76, 0
14, 166960, Note_on_c, 10, 76, 54
14, 166995, Note_on_c, 10, 76, 0
14, 167000, Note_on_c, 10, 76, 53
14, 167035, Note_on_c, 10, 76, 0
14, 167040, Note_on_c, 10, 74, 52
14, 167075, Note_on_c, 10, 74, 0
14, 167080, Note_on_c, 10, 74, 52
14, 167115, Note_on_c, 10, 74, 0
14, 167120, Note_on_c, 10, 74, 52
14, 167155, Note_on_c, 10, 74, 0
14, 167160, Note_on_c, 10, 74, 52
14, 167195, Note_on_c, 10, 74, 0
14, 167200, Note_on_c, 10, 74, 52
14, 167235, Note_on_c, 10, 74, 0
14, 167240, Note_on_c, 10, 74, 52
14, 167275, Note_on_c, 10, 74, 0
14, 167280, Note_on_c, 10, 74, 52
14, 167315, Note_on_c, 10, 74, 0
14, 167320, Note_on_c, 10, 74, 52
14, 167355, Note_on_c, 10, 74, 0
14, 167360, Note_on_c, 10, 74, 52
14, 167395, Note_on_c, 10, 74, 0
14, 167400, Note_on_c, 10, 72, 48
14, 167435, Note_on_c, 10, 72, 0
14, 167440, Note_on_c, 10, 72, 48
14, 167475, Note_on_c, 10, 72, 0
14, 167480, Note_on_c, 10, 72, 48
14, 167515, Note_on_c, 10, 72, 0
14, 167520, Note_on_c, 10, 72, 48
14, 167555, Note_on_c, 10, 72, 0
14, 167560, Note_on_c, 10, 72, 48
14, 167595, Note_on_c, 10, 72, 0
14, 167600, Note_on_c, 10, 72, 48
14, 167635, Note_on_c, 10, 72, 0
14, 167640, Note_on_c, 10, 72, 48
14, 167675, Note_on_c, 10, 72, 0
14, 167680, Note_on_c, 10, 72, 48
14, 167715, Note_on_c, 10, 72, 0
14, 167720, Note_on_c, 10, 72, 48
14, 167755, Note_on_c, 10, 72, 0
14, 167760, Note_on_c, 10, 72, 48
14, 167795, Note_on_c, 10, 72, 0
14, 167800, Note_on_c, 10, 72, 48
14, 167835, Note_on_c, 10, 72, 0
14, 167840, Note_on_c, 10, 72, 48
14, 167875, Note_on_c, 10, 72, 0
14, 167880, Note_on_c, 10, 72, 48
14, 167915, Note_on_c, 10, 72, 0
14, 167920, Note_on_c, 10, 72, 48
14, 167955, Note_on_c, 10, 72, 0
14, 167960, Note_on_c, 10, 72, 48
14, 167995, Note_on_c, 10, 72, 0
14, 168000, Note_on_c, 10, 72, 48
14, 168035, Note_on_c, 10, 72, 0
14, 168040, Note_on_c, 10, 72, 48
14, 168075, Note_on_c, 10, 72, 0
14, 168080, Note_on_c, 10, 72, 48
14, 168115, Note_on_c, 10, 72, 0
14, 168120, Note_on_c, 10, 70, 48
14, 168155, Note_on_c, 10, 70, 0
14, 168160, Note_on_c, 10, 70, 48
14, 168195, Note_on_c, 10, 70, 0
14, 168200, Note_on_c, 10, 70, 48
14, 168235, Note_on_c, 10, 70, 0
14, 168240, Note_on_c, 10, 70, 48
14, 168275, Note_on_c, 10, 70, 0
14, 168280, Note_on_c, 10, 70, 48
14, 168315, Note_on_c, 10, 70, 0
14, 168320, Note_on_c, 10, 70, 48
14, 168355, Note_on_c, 10, 70, 0
14, 168360, Note_on_c, 10, 70, 48
14, 168395, Note_on_c, 10, 70, 0
14, 168400, Note_on_c, 10, 70, 48
14, 168435, Note_on_c, 10, 70, 0
14, 168440, Note_on_c, 10, 70, 48
14, 168475, Note_on_c, 10, 70, 0
14, 168480, Note_on_c, 10, 70, 48
14, 168515, Note_on_c, 10, 70, 0
14, 168520, Note_on_c, 10, 70, 48
14, 168555, Note_on_c, 10, 70, 0
14, 168560, Note_on_c, 10, 70, 48
14, 168595, Note_on_c, 10, 70, 0
14, 168600, Note_on_c, 10, 70, 48
14, 168635, Note_on_c, 10, 70, 0
14, 168640, Note_on_c, 10, 70, 48
14, 168675, Note_on_c, 10, 70, 0
14, 168680, Note_on_c, 10, 70, 48
14, 168715, Note_on_c, 10, 70, 0
14, 168720, Note_on_c, 10, 70, 48
14, 168755, Note_on_c, 10, 70, 0
14, 168760, Note_on_c, 10, 70, 48
14, 168795, Note_on_c, 10, 70, 0
14, 168800, Note_on_c, 10, 70, 48
14, 168835, Note_on_c, 10, 70, 0
14, 168840, Note_on_c, 10, 67, 48
14, 168875, Note_on_c, 10, 67, 0
14, 168880, Note_on_c, 10, 67, 48
14, 168915, Note_on_c, 10, 67, 0
14, 168920, Note_on_c, 10, 67, 48
14, 168955, Note_on_c, 10, 67, 0
14, 168960, Note_on_c, 10, 67, 48
14, 168995, Note_on_c, 10, 67, 0
14, 169000, Note_on_c, 10, 67, 48
14, 169035, Note_on_c, 10, 67, 0
14, 169040, Note_on_c, 10, 67, 48
14, 169075, Note_on_c, 10, 67, 0
14, 169080, Note_on_c, 10, 67, 48
14, 169115, Note_on_c, 10, 67, 0
14, 169120, Note_on_c, 10, 67, 48
14, 169155, Note_on_c, 10, 67, 0
14, 169160, Note_on_c, 10, 67, 48
14, 169195, Note_on_c, 10, 67, 0
14, 169200, Note_on_c, 10, 67, 48
14, 169235, Note_on_c, 10, 67, 0
14, 169240, Note_on_c, 10, 67, 48
14, 169275, Note_on_c, 10, 67, 0
14, 169280, Note_on_c, 10, 67, 48
14, 169315, Note_on_c, 10, 67, 0
14, 169320, Note_on_c, 10, 67, 48
14, 169355, Note_on_c, 10, 67, 0
14, 169360, Note_on_c, 10, 67, 48
14, 169395, Note_on_c, 10, 67, 0
14, 169400, Note_on_c, 10, 67, 48
14, 169435, Note_on_c, 10, 67, 0
14, 169440, Note_on_c, 10, 67, 48
14, 169475, Note_on_c, 10, 67, 0
14, 169480, Note_on_c, 10, 67, 48
14, 169515, Note_on_c, 10, 67, 0
14, 169520, Note_on_c, 10, 67, 48
14, 169555, Note_on_c, 10, 67, 0
14, 169560, Note_on_c, 10, 64, 48
14, 169595, Note_on_c, 10, 64, 0
14, 169600, Note_on_c, 10, 64, 48
14, 169635, Note_on_c, 10, 64, 0
14, 169640, Note_on_c, 10, 64, 48
14, 169675, Note_on_c, 10, 64, 0
14, 169680, Note_on_c, 10, 64, 48
14, 169715, Note_on_c, 10, 64, 0
14, 169720, Note_on_c, 10, 64, 48
14, 169755, Note_on_c, 10, 64, 0
14, 169760, Note_on_c, 10, 64, 48
14, 169795, Note_on_c, 10, 64, 0
14, 169800, Note_on_c, 10, 64, 48
14, 169835, Note_on_c, 10, 64, 0
14, 169840, Note_on_c, 10, 64, 48
14, 169875, Note_on_c, 10, 64, 0
14, 169880, Note_on_c, 10, 64, 48
14, 169915, Note_on_c, 10, 64, 0
14, 169920, Note_on_c, 10, 65, 40
14, 170279, Note_on_c, 10, 65, 0
14, 170280, Note_on_c, 10, 60, 40
14, 170519, Note_on_c, 10, 60, 0
14, 170520, Note_on_c, 10, 69, 40
14, 170631, Note_on_c, 10, 69, 0
14, 170640, Note_on_c, 10, 67, 40
14, 171351, Note_on_c, 10, 67, 0
14, 171360, Note_on_c, 10, 67, 40
14, 171719, Note_on_c, 10, 67, 0
14, 171720, Note_on_c, 10, 60, 40
14, 171959, Note_on_c, 10, 60, 0
14, 171960, Note_on_c, 10, 70, 40
14, 172071, Note_on_c, 10, 70, 0
14, 172080, Note_on_c, 10, 69, 40
14, 172791, Note_on_c, 10, 69, 0
14, 172798, Control_c, 10, 11, 112
14, 172800, Note_on_c, 10, 69, 52
14, 172800, Control_c, 10, 11, 112
14, 172848, Control_c, 10, 11, 113
14, 172896, Control_c, 10, 11, 114
14, 172944, Control_c, 10, 11, 115
14, 172992, Control_c, 10, 11, 116
14, 173040, Control_c, 10, 11, 117
14, 173088, Control_c, 10, 11, 118
14, 173136, Control_c, 10, 11, 119
14, 173159, Note_on_c, 10, 69, 0
14, 173160, Note_on_c, 10, 70, 52
14, 173184, Control_c, 10, 11, 120
14, 173232, Control_c, 10, 11, 121
14, 173280, Control_c, 10, 11, 122
14, 173328, Control_c, 10, 11, 123
14, 173376, Control_c, 10, 11, 124
14, 173399, Note_on_c, 10, 70, 0
14, 173400, Note_on_c, 10, 72, 52
14, 173424, Control_c, 10, 11, 125
14, 173472, Control_c, 10, 11, 127
14, 173511, Note_on_c, 10, 72, 0
14, 173520, Note_on_c, 10, 74, 52
14, 174119, Note_on_c, 10, 74, 0
14, 174120, Note_on_c, 10, 67, 52
14, 174231, Note_on_c, 10, 67, 0
14, 174240, Note_on_c, 10, 67, 52
14, 174599, Note_on_c, 10, 67, 0
14, 174600, Note_on_c, 10, 67, 52
14, 174719, Note_on_c, 10, 67, 0
14, 174720, Note_on_c, 10, 69, 52
14, 174809, Note_on_c, 10, 69, 0
14, 174820, Note_on_c, 10, 72, 52
14, 174839, Note_on_c, 10, 72, 0
14, 174840, Note_on_c, 10, 70, 52
14, 174884, Note_on_c, 10, 70, 0
14, 174900, Note_on_c, 10, 69, 52
14, 174944, Note_on_c, 10, 69, 0
14, 174960, Note_on_c, 10, 69, 52
14, 175199, Note_on_c, 10, 69, 0
14, 175680, Note_on_c, 10, 81, 76
14, 176031, Note_on_c, 10, 81, 0
14, 176040, Note_on_c, 10, 82, 76
14, 176129, Note_on_c, 10, 82, 0
14, 176280, Note_on_c, 10, 84, 76
14, 176369, Note_on_c, 10, 84, 0
14, 176400, Note_on_c, 10, 86, 76
14, 176999, Note_on_c, 10, 86, 0
14, 178440, Note_on_c, 10, 69, 48
14, 178559, Note_on_c, 10, 69, 0
14, 178560, Note_on_c, 10, 70, 48
14, 179151, Note_on_c, 10, 70, 0
14, 179160, Note_on_c, 10, 70, 48
14, 179271, Note_on_c, 10, 70, 0
14, 179280, Note_on_c, 10, 69, 48
14, 179519, Note_on_c, 10, 69, 0
14, 181287, Control_c, 10, 11, 109
14, 181320, Note_on_c, 10, 69, 76
14, 181335, Control_c, 10, 11, 110
14, 181384, Control_c, 10, 11, 111
14, 181432, Control_c, 10, 11, 112
14, 181439, Note_on_c, 10, 69, 0
14, 181440, Note_on_c, 10, 70, 76
14, 181481, Control_c, 10, 11, 113
14, 181529, Control_c, 10, 11, 114
14, 181578, Control_c, 10, 11, 115
14, 181626, Control_c, 10, 11, 116
14, 181675, Control_c, 10, 11, 117
14, 181723, Control_c, 10, 11, 118
14, 181772, Control_c, 10, 11, 119
14, 181820, Control_c, 10, 11, 120
14, 181869, Control_c, 10, 11, 121
14, 181917, Control_c, 10, 11, 122
14, 181966, Control_c, 10, 11, 123
14, 182014, Control_c, 10, 11, 124
14, 182031, Note_on_c, 10, 70, 0
14, 182040, Note_on_c, 10, 70, 76
14, 182063, Control_c, 10, 11, 125
14, 182111, Control_c, 10, 11, 127
14, 182151, Note_on_c, 10, 70, 0
14, 182160, Note_on_c, 10, 76, 76
14, 182879, Note_on_c, 10, 76, 0
14, 182880, Note_on_c, 10, 76, 76
14, 183599, Note_on_c, 10, 76, 0
14, 183600, Note_on_c, 10, 76, 76
14, 183600, Control_c, 10, 11, 127
14, 183631, Control_c, 10, 11, 126
14, 183661, Control_c, 10, 11, 125
14, 183692, Control_c, 10, 11, 124
14, 183723, Control_c, 10, 11, 123
14, 183753, Control_c, 10, 11, 122
14, 183784, Control_c, 10, 11, 121
14, 183814, Control_c, 10, 11, 120
14, 183845, Control_c, 10, 11, 119
14, 183876, Control_c, 10, 11, 118
14, 183906, Control_c, 10, 11, 117
14, 183937, Control_c, 10, 11, 116
14, 183968, Control_c, 10, 11, 115
14, 183998, Control_c, 10, 11, 114
14, 184029, Control_c, 10, 11, 113
14, 184060, Control_c, 10, 11, 112
14, 184090, Control_c, 10, 11, 111
14, 184121, Control_c, 10, 11, 110
14, 184151, Control_c, 10, 11, 109
14, 184182, Control_c, 10, 11, 108
14, 184213, Control_c, 10, 11, 107
14, 184243, Control_c, 10, 11, 106
14, 184274, Control_c, 10, 11, 105
14, 184305, Control_c, 10, 11, 104
14, 184319, Note_on_c, 10, 76, 0
14, 184320, Note_on_c, 10, 76, 76
14, 184335, Control_c, 10, 11, 103
14, 184366, Control_c, 10, 11, 102
14, 184397, Control_c, 10, 11, 101
14, 184427, Control_c, 10, 11, 100
14, 184458, Control_c, 10, 11, 99
14, 184489, Control_c, 10, 11, 98
14, 184519, Control_c, 10, 11, 97
14, 184550, Control_c, 10, 11, 96
14, 184580, Control_c, 10, 11, 95
14, 184611, Control_c, 10, 11, 94
14, 184642, Control_c, 10, 11, 93
14, 184672, Control_c, 10, 11, 92
14, 184703, Control_c, 10, 11, 91
14, 184734, Control_c, 10, 11, 90
14, 184764, Control_c, 10, 11, 89
14, 184795, Control_c, 10, 11, 88
14, 184826, Control_c, 10, 11, 87
14, 184856, Control_c, 10, 11, 86
14, 184887, Control_c, 10, 11, 85
14, 184917, Control_c, 10, 11, 84
14, 184948, Control_c, 10, 11, 83
14, 184979, Control_c, 10, 11, 82
14, 185031, Note_on_c, 10, 76, 0
14, 185038, Control_c, 10, 11, 96
14, 185040, Note_on_c, 10, 77, 68
14, 185751, Note_on_c, 10, 77, 0
14, 185758, Control_c, 10, 11, 112
14, 185760, Note_on_c, 10, 77, 60
14, 186471, Note_on_c, 10, 77, 0
14, 186478, Control_c, 10, 11, 127
14, 186480, Note_on_c, 10, 77, 44
14, 186539, Note_on_c, 10, 77, 0
14, 186540, Note_on_c, 10, 79, 44
14, 186599, Note_on_c, 10, 79, 0
14, 186600, Note_on_c, 10, 81, 44
14, 186659, Note_on_c, 10, 81, 0
14, 186660, Note_on_c, 10, 82, 44
14, 186719, Note_on_c, 10, 82, 0
14, 186720, Note_on_c, 10, 84, 44
14, 186779, Note_on_c, 10, 84, 0
14, 186780, Note_on_c, 10, 83, 44
14, 186839, Note_on_c, 10, 83, 0
14, 186840, Note_on_c, 10, 86, 44
14, 186899, Note_on_c, 10, 86, 0
14, 186900, Note_on_c, 10, 84, 44
14, 186959, Note_on_c, 10, 84, 0
14, 186960, Note_on_c, 10, 82, 44
14, 187019, Note_on_c, 10, 82, 0
14, 187020, Note_on_c, 10, 81, 44
14, 187079, Note_on_c, 10, 81, 0
14, 187080, Note_on_c, 10, 79, 44
14, 187139, Note_on_c, 10, 79, 0
14, 187140, Note_on_c, 10, 77, 44
14, 187199, Note_on_c, 10, 77, 0
14, 189240, Note_on_c, 10, 81, 84
14, 189240, Note_on_c, 10, 69, 84
14, 189351, Note_on_c, 10, 81, 0
14, 189351, Note_on_c, 10, 69, 0
14, 189360, Note_on_c, 10, 77, 84
14, 189360, Note_on_c, 10, 69, 84
14, 189599, Note_on_c, 10, 77, 0
14, 189599, Note_on_c, 10, 69, 0
14, 189599, End_track
15, 0, Start_track
15, 0, Title_t, "Violin II"
15, 0, MIDI_port, 0
15, 0, Program_c, 11, 48
15, 0, Control_c, 11, 7, 96
15, 0, Control_c, 11, 10, 24
15, 0, Control_c, 11, 11, 127
15, 5400, Note_on_c, 11, 65, 68
15, 5400, Note_on_c, 11, 69, 68
15, 5459, Note_on_c, 11, 65, 0
15, 5459, Note_on_c, 11, 69, 0
15, 5460, Note_on_c, 11, 65, 60
15, 5460, Note_on_c, 11, 69, 60
15, 5759, Note_on_c, 11, 65, 0
15, 5759, Note_on_c, 11, 69, 0
15, 5760, Note_on_c, 11, 65, 52
15, 5760, Note_on_c, 11, 69, 52
15, 5879, Note_on_c, 11, 65, 0
15, 5879, Note_on_c, 11, 69, 0
15, 11400, Control_c, 11, 11, 64
15, 11520, Control_c, 11, 11, 64
15, 11520, Note_on_c, 11, 69, 84
15, 11611, Control_c, 11, 11, 65
15, 11703, Control_c, 11, 11, 66
15, 11794, Control_c, 11, 11, 67
15, 11879, Note_on_c, 11, 69, 0
15, 11880, Note_on_c, 11, 65, 84
15, 11886, Control_c, 11, 11, 68
15, 11977, Control_c, 11, 11, 69
15, 12069, Control_c, 11, 11, 70
15, 12119, Note_on_c, 11, 65, 0
15, 12120, Note_on_c, 11, 72, 84
15, 12160, Control_c, 11, 11, 71
15, 12231, Note_on_c, 11, 72, 0
15, 12240, Note_on_c, 11, 69, 84
15, 12251, Control_c, 11, 11, 72
15, 12343, Control_c, 11, 11, 73
15, 12434, Control_c, 11, 11, 74
15, 12526, Control_c, 11, 11, 75
15, 12599, Note_on_c, 11, 69, 0
15, 12600, Note_on_c, 11, 65, 84
15, 12617, Control_c, 11, 11, 76
15, 12709, Control_c, 11, 11, 77
15, 12800, Control_c, 11, 11, 78
15, 12831, Note_on_c, 11, 65, 0
15, 12840, Note_on_c, 11, 60, 84
15, 12891, Control_c, 11, 11, 79
15, 12959, Note_on_c, 11, 60, 0
15, 12960, Note_on_c, 11, 65, 84
15, 12983, Control_c, 11, 11, 80
15, 13074, Control_c, 11, 11, 81
15, 13166, Control_c, 11, 11, 82
15, 13199, Note_on_c, 11, 65, 0
15, 13200, Note_on_c, 11, 69, 84
15, 13257, Control_c, 11, 11, 83
15, 13319, Note_on_c, 11, 69, 0
15, 13320, Note_on_c, 11, 72, 84
15, 13349, Control_c, 11, 11, 84
15, 13440, Control_c, 11, 11, 85
15, 13531, Control_c, 11, 11, 86
15, 13559, Note_on_c, 11, 72, 0
15, 13560, Note_on_c, 11, 69, 84
15, 13623, Control_c, 11, 11, 87
15, 13671, Note_on_c, 11, 69, 0
15, 13680, Note_on_c, 11, 70, 84
15, 13714, Control_c, 11, 11, 88
15, 13806, Control_c, 11, 11, 89
15, 13897, Control_c, 11, 11, 90
15, 13989, Control_c, 11, 11, 91
15, 14039, Note_on_c, 11, 70, 0
15, 14040, Note_on_c, 11, 70, 84
15, 14080, Control_c, 11, 11, 92
15, 14171, Control_c, 11, 11, 93
15, 14263, Control_c, 11, 11, 94
15, 14271, Note_on_c, 11, 70, 0
15, 14280, Note_on_c, 11, 67, 84
15, 14354, Control_c, 11, 11, 95
15, 14399, Note_on_c, 11, 67, 0
15, 14400, Note_on_c, 11, 70, 84
15, 14446, Control_c, 11, 11, 96
15, 14537, Control_c, 11, 11, 97
15, 14629, Control_c, 11, 11, 98
15, 14720, Control_c, 11, 11, 99
15, 14759, Note_on_c, 11, 70, 0
15, 14760, Note_on_c, 11, 67, 84
15, 14811, Control_c, 11, 11, 100
15, 14903, Control_c, 11, 11, 101
15, 14994, Control_c, 11, 11, 102
15, 14999, Note_on_c, 11, 67, 0
15, 15000, Note_on_c, 11, 72, 84
15, 15086, Control_c, 11, 11, 103
15, 15111, Note_on_c, 11, 72, 0
15, 15120, Note_on_c, 11, 69, 84
15, 15177, Control_c, 11, 11, 104
15, 15269, Control_c, 11, 11, 105
15, 15360, Control_c, 11, 11, 106
15, 15451, Control_c, 11, 11, 107
15, 15479, Note_on_c, 11, 69, 0
15, 15480, Note_on_c, 11, 65, 84
15, 15543, Control_c, 11, 11, 108
15, 15634, Control_c, 11, 11, 109
15, 15711, Note_on_c, 11, 65, 0
15, 15720, Note_on_c, 11, 69, 84
15, 15726, Control_c, 11, 11, 110
15, 15817, Control_c, 11, 11, 111
15, 15839, Note_on_c, 11, 69, 0
15, 15840, Note_on_c, 11, 67, 84
15, 15909, Control_c, 11, 11, 112
15, 16000, Control_c, 11, 11, 113
15, 16079, Note_on_c, 11, 67, 0
15, 16080, Note_on_c, 11, 62, 84
15, 16091, Control_c, 11, 11, 114
15, 16183, Control_c, 11, 11, 115
15, 16199, Note_on_c, 11, 62, 0
15, 16200, Note_on_c, 11, 64, 84
15, 16274, Control_c, 11, 11, 116
15, 16366, Control_c, 11, 11, 117
15, 16439, Note_on_c, 11, 64, 0
15, 16440, Note_on_c, 11, 60, 84
15, 16457, Control_c, 11, 11, 118
15, 16549, Control_c, 11, 11, 119
15, 16551, Note_on_c, 11, 60, 0
15, 16560, Note_on_c, 11, 60, 84
15, 16640, Control_c, 11, 11, 120
15, 16679, Note_on_c, 11, 60, 0
15, 16680, Note_on_c, 11, 65, 84
15, 16731, Control_c, 11, 11, 121
15, 16823, Control_c, 11, 11, 122
15, 16914, Control_c, 11, 11, 123
15, 16919, Note_on_c, 11, 65, 0
15, 16920, Note_on_c, 11, 65, 84
15, 17006, Control_c, 11, 11, 124
15, 17097, Control_c, 11, 11, 125
15, 17151, Note_on_c, 11, 65, 0
15, 17160, Note_on_c, 11, 69, 84
15, 17189, Control_c, 11, 11, 127
15, 17271, Note_on_c, 11, 69, 0
15, 17280, Note_on_c, 11, 81, 84
15, 17280, Note_on_c, 11, 72, 84
15, 17315, Note_on_c, 11, 81, 0
15, 17315, Note_on_c, 11, 72, 0
15, 17320, Note_on_c, 11, 81, 84
15, 17320, Note_on_c, 11, 72, 84
15, 17355, Note_on_c, 11, 81, 0
15, 17355, Note_on_c, 11, 72, 0
15, 17360, Note_on_c, 11, 72, 84
15, 17360, Note_on_c, 11, 81, 84
15, 17395, Note_on_c, 11, 72, 0
15, 17395, Note_on_c, 11, 81, 0
15, 17400, Note_on_c, 11, 81, 84
15, 17400, Note_on_c, 11, 72, 84
15, 17435, Note_on_c, 11, 81, 0
15, 17435, Note_on_c, 11, 72, 0
15, 17440, Note_on_c, 11, 81, 84
15, 17440, Note_on_c, 11, 72, 84
15, 17475, Note_on_c, 11, 81, 0
15, 17475, Note_on_c, 11, 72, 0
15, 17480, Note_on_c, 11, 81, 84
15, 17480, Note_on_c, 11, 72, 84
15, 17515, Note_on_c, 11, 81, 0
15, 17515, Note_on_c, 11, 72, 0
15, 17520, Note_on_c, 11, 72, 84
15, 17520, Note_on_c, 11, 81, 84
15, 17555, Note_on_c, 11, 72, 0
15, 17555, Note_on_c, 11, 81, 0
15, 17560, Note_on_c, 11, 72, 84
15, 17560, Note_on_c, 11, 81, 84
15, 17595, Note_on_c, 11, 72, 0
15, 17595, Note_on_c, 11, 81, 0
15, 17600, Note_on_c, 11, 72, 84
15, 17600, Note_on_c, 11, 81, 84
15, 17635, Note_on_c, 11, 72, 0
15, 17635, Note_on_c, 11, 81, 0
15, 17640, Note_on_c, 11, 81, 84
15, 17640, Note_on_c, 11, 72, 84
15, 17675, Note_on_c, 11, 81, 0
15, 17675, Note_on_c, 11, 72, 0
15, 17680, Note_on_c, 11, 81, 84
15, 17680, Note_on_c, 11, 72, 84
15, 17715, Note_on_c, 11, 81, 0
15, 17715, Note_on_c, 11, 72, 0
15, 17720, Note_on_c, 11, 72, 84
15, 17720, Note_on_c, 11, 81, 84
15, 17755, Note_on_c, 11, 72, 0
15, 17755, Note_on_c, 11, 81, 0
15, 17760, Note_on_c, 11, 81, 84
15, 17760, Note_on_c, 11, 72, 84
15, 17795, Note_on_c, 11, 81, 0
15, 17795, Note_on_c, 11, 72, 0
15, 17800, Note_on_c, 11, 72, 84
15, 17800, Note_on_c, 11, 81, 84
15, 17835, Note_on_c, 11, 72, 0
15, 17835, Note_on_c, 11, 81, 0
15, 17840, Note_on_c, 11, 81, 84
15, 17840, Note_on_c, 11, 72, 84
15, 17875, Note_on_c, 11, 81, 0
15, 17875, Note_on_c, 11, 72, 0
15, 17880, Note_on_c, 11, 81, 84
15, 17880, Note_on_c, 11, 72, 84
15, 17915, Note_on_c, 11, 81, 0
15, 17915, Note_on_c, 11, 72, 0
15, 17920, Note_on_c, 11, 72, 84
15, 17920, Note_on_c, 11, 81, 84
15, 17955, Note_on_c, 11, 72, 0
15, 17955, Note_on_c, 11, 81, 0
15, 17960, Note_on_c, 11, 72, 84
15, 17960, Note_on_c, 11, 81, 84
15, 17995, Note_on_c, 11, 72, 0
15, 17995, Note_on_c, 11, 81, 0
15, 18000, Note_on_c, 11, 81, 84
15, 18000, Note_on_c, 11, 72, 84
15, 18035, Note_on_c, 11, 81, 0
15, 18035, Note_on_c, 11, 72, 0
15, 18040, Note_on_c, 11, 81, 84
15, 18040, Note_on_c, 11, 72, 84
15, 18075, Note_on_c, 11, 81, 0
15, 18075, Note_on_c, 11, 72, 0
15, 18080, Note_on_c, 11, 72, 84
15, 18080, Note_on_c, 11, 81, 84
15, 18115, Note_on_c, 11, 72, 0
15, 18115, Note_on_c, 11, 81, 0
15, 18120, Note_on_c, 11, 81, 84
15, 18120, Note_on_c, 11, 72, 84
15, 18155, Note_on_c, 11, 81, 0
15, 18155, Note_on_c, 11, 72, 0
15, 18160, Note_on_c, 11, 72, 84
15, 18160, Note_on_c, 11, 81, 84
15, 18195, Note_on_c, 11, 72, 0
15, 18195, Note_on_c, 11, 81, 0
15, 18200, Note_on_c, 11, 72, 84
15, 18200, Note_on_c, 11, 81, 84
15, 18235, Note_on_c, 11, 72, 0
15, 18235, Note_on_c, 11, 81, 0
15, 18240, Note_on_c, 11, 81, 84
15, 18240, Note_on_c, 11, 72, 84
15, 18275, Note_on_c, 11, 81, 0
15, 18275, Note_on_c, 11, 72, 0
15, 18280, Note_on_c, 11, 81, 84
15, 18280, Note_on_c, 11, 72, 84
15, 18315, Note_on_c, 11, 81, 0
15, 18315, Note_on_c, 11, 72, 0
15, 18320, Note_on_c, 11, 72, 84
15, 18320, Note_on_c, 11, 81, 84
15, 18355, Note_on_c, 11, 72, 0
15, 18355, Note_on_c, 11, 81, 0
15, 18360, Note_on_c, 11, 81, 84
15, 18360, Note_on_c, 11, 72, 84
15, 18395, Note_on_c, 11, 81, 0
15, 18395, Note_on_c, 11, 72, 0
15, 18400, Note_on_c, 11, 72, 84
15, 18400, Note_on_c, 11, 81, 84
15, 18435, Note_on_c, 11, 72, 0
15, 18435, Note_on_c, 11, 81, 0
15, 18440, Note_on_c, 11, 81, 84
15, 18440, Note_on_c, 11, 72, 84
15, 18475, Note_on_c, 11, 81, 0
15, 18475, Note_on_c, 11, 72, 0
15, 18480, Note_on_c, 11, 81, 84
15, 18480, Note_on_c, 11, 72, 84
15, 18515, Note_on_c, 11, 81, 0
15, 18515, Note_on_c, 11, 72, 0
15, 18520, Note_on_c, 11, 72, 84
15, 18520, Note_on_c, 11, 81, 84
15, 18555, Note_on_c, 11, 72, 0
15, 18555, Note_on_c, 11, 81, 0
15, 18560, Note_on_c, 11, 72, 84
15, 18560, Note_on_c, 11, 81, 84
15, 18595, Note_on_c, 11, 72, 0
15, 18595, Note_on_c, 11, 81, 0
15, 18600, Note_on_c, 11, 81, 84
15, 18600, Note_on_c, 11, 72, 84
15, 18635, Note_on_c, 11, 81, 0
15, 18635, Note_on_c, 11, 72, 0
15, 18640, Note_on_c, 11, 72, 84
15, 18640, Note_on_c, 11, 81, 84
15, 18675, Note_on_c, 11, 72, 0
15, 18675, Note_on_c, 11, 81, 0
15, 18680, Note_on_c, 11, 81, 84
15, 18680, Note_on_c, 11, 72, 84
15, 18715, Note_on_c, 11, 81, 0
15, 18715, Note_on_c, 11, 72, 0
15, 18720, Note_on_c, 11, 72, 84
15, 18720, Note_on_c, 11, 81, 84
15, 18755, Note_on_c, 11, 72, 0
15, 18755, Note_on_c, 11, 81, 0
15, 18760, Note_on_c, 11, 81, 84
15, 18760, Note_on_c, 11, 72, 84
15, 18795, Note_on_c, 11, 81, 0
15, 18795, Note_on_c, 11, 72, 0
15, 18800, Note_on_c, 11, 72, 84
15, 18800, Note_on_c, 11, 81, 84
15, 18835, Note_on_c, 11, 72, 0
15, 18835, Note_on_c, 11, 81, 0
15, 18840, Note_on_c, 11, 72, 84
15, 18840, Note_on_c, 11, 81, 84
15, 18875, Note_on_c, 11, 72, 0
15, 18875, Note_on_c, 11, 81, 0
15, 18880, Note_on_c, 11, 72, 84
15, 18880, Note_on_c, 11, 81, 84
15, 18915, Note_on_c, 11, 72, 0
15, 18915, Note_on_c, 11, 81, 0
15, 18920, Note_on_c, 11, 81, 84
15, 18920, Note_on_c, 11, 72, 84
15, 18955, Note_on_c, 11, 81, 0
15, 18955, Note_on_c, 11, 72, 0
15, 18960, Note_on_c, 11, 72, 84
15, 18960, Note_on_c, 11, 81, 84
15, 18995, Note_on_c, 11, 72, 0
15, 18995, Note_on_c, 11, 81, 0
15, 19000, Note_on_c, 11, 81, 84
15, 19000, Note_on_c, 11, 72, 84
15, 19035, Note_on_c, 11, 81, 0
15, 19035, Note_on_c, 11, 72, 0
15, 19040, Note_on_c, 11, 72, 84
15, 19040, Note_on_c, 11, 81, 84
15, 19075, Note_on_c, 11, 72, 0
15, 19075, Note_on_c, 11, 81, 0
15, 19080, Note_on_c, 11, 81, 84
15, 19080, Note_on_c, 11, 72, 84
15, 19115, Note_on_c, 11, 81, 0
15, 19115, Note_on_c, 11, 72, 0
15, 19120, Note_on_c, 11, 81, 84
15, 19120, Note_on_c, 11, 72, 84
15, 19155, Note_on_c, 11, 81, 0
15, 19155, Note_on_c, 11, 72, 0
15, 19160, Note_on_c, 11, 81, 84
15, 19160, Note_on_c, 11, 72, 84
15, 19195, Note_on_c, 11, 81, 0
15, 19195, Note_on_c, 11, 72, 0
15, 19200, Note_on_c, 11, 81, 84
15, 19200, Note_on_c, 11, 72, 84
15, 19235, Note_on_c, 11, 81, 0
15, 19235, Note_on_c, 11, 72, 0
15, 19240, Note_on_c, 11, 81, 84
15, 19240, Note_on_c, 11, 72, 84
15, 19275, Note_on_c, 11, 81, 0
15, 19275, Note_on_c, 11, 72, 0
15, 19280, Note_on_c, 11, 81, 84
15, 19280, Note_on_c, 11, 72, 84
15, 19315, Note_on_c, 11, 81, 0
15, 19315, Note_on_c, 11, 72, 0
15, 19320, Note_on_c, 11, 84, 84
15, 19355, Note_on_c, 11, 84, 0
15, 19360, Note_on_c, 11, 84, 84
15, 19395, Note_on_c, 11, 84, 0
15, 19400, Note_on_c, 11, 84, 84
15, 19435, Note_on_c, 11, 84, 0
15, 19440, Note_on_c, 11, 74, 84
15, 19440, Note_on_c, 11, 82, 84
15, 19475, Note_on_c, 11, 74, 0
15, 19475, Note_on_c, 11, 82, 0
15, 19480, Note_on_c, 11, 74, 84
15, 19480, Note_on_c, 11, 82, 84
15, 19515, Note_on_c, 11, 74, 0
15, 19515, Note_on_c, 11, 82, 0
15, 19520, Note_on_c, 11, 74, 84
15, 19520, Note_on_c, 11, 82, 84
15, 19555, Note_on_c, 11, 74, 0
15, 19555, Note_on_c, 11, 82, 0
15, 19560, Note_on_c, 11, 82, 84
15, 19560, Note_on_c, 11, 74, 84
15, 19595, Note_on_c, 11, 82, 0
15, 19595, Note_on_c, 11, 74, 0
15, 19600, Note_on_c, 11, 74, 84
15, 19600, Note_on_c, 11, 82, 84
15, 19635, Note_on_c, 11, 74, 0
15, 19635, Note_on_c, 11, 82, 0
15, 19640, Note_on_c, 11, 82, 84
15, 19640, Note_on_c, 11, 74, 84
15, 19675, Note_on_c, 11, 82, 0
15, 19675, Note_on_c, 11, 74, 0
15, 19680, Note_on_c, 11, 74, 84
15, 19680, Note_on_c, 11, 82, 84
15, 19715, Note_on_c, 11, 74, 0
15, 19715, Note_on_c, 11, 82, 0
15, 19720, Note_on_c, 11, 82, 84
15, 19720, Note_on_c, 11, 74, 84
15, 19755, Note_on_c, 11, 82, 0
15, 19755, Note_on_c, 11, 74, 0
15, 19760, Note_on_c, 11, 74, 84
15, 19760, Note_on_c, 11, 82, 84
15, 19795, Note_on_c, 11, 74, 0
15, 19795, Note_on_c, 11, 82, 0
15, 19800, Note_on_c, 11, 74, 84
15, 19800, Note_on_c, 11, 82, 84
15, 19835, Note_on_c, 11, 74, 0
15, 19835, Note_on_c, 11, 82, 0
15, 19840, Note_on_c, 11, 74, 84
15, 19840, Note_on_c, 11, 82, 84
15, 19875, Note_on_c, 11, 74, 0
15, 19875, Note_on_c, 11, 82, 0
15, 19880, Note_on_c, 11, 82, 84
15, 19880, Note_on_c, 11, 74, 84
15, 19915, Note_on_c, 11, 82, 0
15, 19915, Note_on_c, 11, 74, 0
15, 19920, Note_on_c, 11, 74, 84
15, 19920, Note_on_c, 11, 82, 84
15, 19955, Note_on_c, 11, 74, 0
15, 19955, Note_on_c, 11, 82, 0
15, 19960, Note_on_c, 11, 82, 84
15, 19960, Note_on_c, 11, 74, 84
15, 19995, Note_on_c, 11, 82, 0
15, 19995, Note_on_c, 11, 74, 0
15, 20000, Note_on_c, 11, 74, 84
15, 20000, Note_on_c, 11, 82, 84
15, 20035, Note_on_c, 11, 74, 0
15, 20035, Note_on_c, 11, 82, 0
15, 20040, Note_on_c, 11, 82, 84
15, 20040, Note_on_c, 11, 72, 84
15, 20075, Note_on_c, 11, 82, 0
15, 20075, Note_on_c, 11, 72, 0
15, 20080, Note_on_c, 11, 82, 84
15, 20080, Note_on_c, 11, 72, 84
15, 20115, Note_on_c, 11, 82, 0
15, 20115, Note_on_c, 11, 72, 0
15, 20120, Note_on_c, 11, 72, 84
15, 20120, Note_on_c, 11, 82, 84
15, 20155, Note_on_c, 11, 72, 0
15, 20155, Note_on_c, 11, 82, 0
15, 20160, Note_on_c, 11, 82, 84
15, 20160, Note_on_c, 11, 72, 84
15, 20195, Note_on_c, 11, 82, 0
15, 20195, Note_on_c, 11, 72, 0
15, 20200, Note_on_c, 11, 72, 84
15, 20200, Note_on_c, 11, 82, 84
15, 20235, Note_on_c, 11, 72, 0
15, 20235, Note_on_c, 11, 82, 0
15, 20240, Note_on_c, 11, 72, 84
15, 20240, Note_on_c, 11, 82, 84
15, 20275, Note_on_c, 11, 72, 0
15, 20275, Note_on_c, 11, 82, 0
15, 20280, Note_on_c, 11, 82, 84
15, 20280, Note_on_c, 11, 72, 84
15, 20315, Note_on_c, 11, 82, 0
15, 20315, Note_on_c, 11, 72, 0
15, 20320, Note_on_c, 11, 82, 84
15, 20320, Note_on_c, 11, 72, 84
15, 20355, Note_on_c, 11, 82, 0
15, 20355, Note_on_c, 11, 72, 0
15, 20360, Note_on_c, 11, 72, 84
15, 20360, Note_on_c, 11, 82, 84
15, 20395, Note_on_c, 11, 72, 0
15, 20395, Note_on_c, 11, 82, 0
15, 20400, Note_on_c, 11, 72, 84
15, 20400, Note_on_c, 11, 82, 84
15, 20435, Note_on_c, 11, 72, 0
15, 20435, Note_on_c, 11, 82, 0
15, 20440, Note_on_c, 11, 82, 84
15, 20440, Note_on_c, 11, 72, 84
15, 20475, Note_on_c, 11, 82, 0
15, 20475, Note_on_c, 11, 72, 0
15, 20480, Note_on_c, 11, 82, 84
15, 20480, Note_on_c, 11, 72, 84
15, 20515, Note_on_c, 11, 82, 0
15, 20515, Note_on_c, 11, 72, 0
15, 20520, Note_on_c, 11, 72, 84
15, 20520, Note_on_c, 11, 82, 84
15, 20555, Note_on_c, 11, 72, 0
15, 20555, Note_on_c, 11, 82, 0
15, 20560, Note_on_c, 11, 82, 84
15, 20560, Note_on_c, 11, 72, 84
15, 20595, Note_on_c, 11, 82, 0
15, 20595, Note_on_c, 11, 72, 0
15, 20600, Note_on_c, 11, 82, 84
15, 20600, Note_on_c, 11, 72, 84
15, 20635, Note_on_c, 11, 82, 0
15, 20635, Note_on_c, 11, 72, 0
15, 20640, Note_on_c, 11, 72, 84
15, 20640, Note_on_c, 11, 82, 84
15, 20675, Note_on_c, 11, 72, 0
15, 20675, Note_on_c, 11, 82, 0
15, 20680, Note_on_c, 11, 72, 84
15, 20680, Note_on_c, 11, 82, 84
15, 20715, Note_on_c, 11, 72, 0
15, 20715, Note_on_c, 11, 82, 0
15, 20720, Note_on_c, 11, 72, 84
15, 20720, Note_on_c, 11, 82, 84
15, 20755, Note_on_c, 11, 72, 0
15, 20755, Note_on_c, 11, 82, 0
15, 20760, Note_on_c, 11, 82, 84
15, 20760, Note_on_c, 11, 72, 84
15, 20795, Note_on_c, 11, 82, 0
15, 20795, Note_on_c, 11, 72, 0
15, 20800, Note_on_c, 11, 72, 84
15, 20800, Note_on_c, 11, 82, 84
15, 20835, Note_on_c, 11, 72, 0
15, 20835, Note_on_c, 11, 82, 0
15, 20840, Note_on_c, 11, 82, 84
15, 20840, Note_on_c, 11, 72, 84
15, 20875, Note_on_c, 11, 82, 0
15, 20875, Note_on_c, 11, 72, 0
15, 20880, Note_on_c, 11, 72, 84
15, 20880, Note_on_c, 11, 81, 84
15, 20915, Note_on_c, 11, 72, 0
15, 20915, Note_on_c, 11, 81, 0
15, 20920, Note_on_c, 11, 81, 84
15, 20920, Note_on_c, 11, 72, 84
15, 20955, Note_on_c, 11, 81, 0
15, 20955, Note_on_c, 11, 72, 0
15, 20960, Note_on_c, 11, 81, 84
15, 20960, Note_on_c, 11, 72, 84
15, 20995, Note_on_c, 11, 81, 0
15, 20995, Note_on_c, 11, 72, 0
15, 21000, Note_on_c, 11, 81, 84
15, 21000, Note_on_c, 11, 69, 84
15, 21035, Note_on_c, 11, 81, 0
15, 21035, Note_on_c, 11, 69, 0
15, 21040, Note_on_c, 11, 69, 84
15, 21040, Note_on_c, 11, 81, 84
15, 21075, Note_on_c, 11, 69, 0
15, 21075, Note_on_c, 11, 81, 0
15, 21080, Note_on_c, 11, 81, 84
15, 21080, Note_on_c, 11, 69, 84
15, 21115, Note_on_c, 11, 81, 0
15, 21115, Note_on_c, 11, 69, 0
15, 21120, Note_on_c, 11, 81, 84
15, 21120, Note_on_c, 11, 69, 84
15, 21155, Note_on_c, 11, 81, 0
15, 21155, Note_on_c, 11, 69, 0
15, 21160, Note_on_c, 11, 81, 84
15, 21160, Note_on_c, 11, 69, 84
15, 21195, Note_on_c, 11, 81, 0
15, 21195, Note_on_c, 11, 69, 0
15, 21200, Note_on_c, 11, 81, 84
15, 21200, Note_on_c, 11, 69, 84
15, 21235, Note_on_c, 11, 81, 0
15, 21235, Note_on_c, 11, 69, 0
15, 21240, Note_on_c, 11, 81, 84
15, 21240, Note_on_c, 11, 69, 84
15, 21275, Note_on_c, 11, 81, 0
15, 21275, Note_on_c, 11, 69, 0
15, 21280, Note_on_c, 11, 81, 84
15, 21280, Note_on_c, 11, 69, 84
15, 21315, Note_on_c, 11, 81, 0
15, 21315, Note_on_c, 11, 69, 0
15, 21320, Note_on_c, 11, 81, 84
15, 21320, Note_on_c, 11, 69, 84
15, 21355, Note_on_c, 11, 81, 0
15, 21355, Note_on_c, 11, 69, 0
15, 21360, Note_on_c, 11, 81, 84
15, 21360, Note_on_c, 11, 69, 84
15, 21395, Note_on_c, 11, 81, 0
15, 21395, Note_on_c, 11, 69, 0
15, 21400, Note_on_c, 11, 81, 84
15, 21400, Note_on_c, 11, 69, 84
15, 21435, Note_on_c, 11, 81, 0
15, 21435, Note_on_c, 11, 69, 0
15, 21440, Note_on_c, 11, 69, 84
15, 21440, Note_on_c, 11, 81, 84
15, 21475, Note_on_c, 11, 69, 0
15, 21475, Note_on_c, 11, 81, 0
15, 21480, Note_on_c, 11, 77, 84
15, 21480, Note_on_c, 11, 72, 84
15, 21515, Note_on_c, 11, 77, 0
15, 21515, Note_on_c, 11, 72, 0
15, 21520, Note_on_c, 11, 77, 84
15, 21520, Note_on_c, 11, 72, 84
15, 21555, Note_on_c, 11, 77, 0
15, 21555, Note_on_c, 11, 72, 0
15, 21560, Note_on_c, 11, 77, 84
15, 21560, Note_on_c, 11, 72, 84
15, 21595, Note_on_c, 11, 77, 0
15, 21595, Note_on_c, 11, 72, 0
15, 21600, Note_on_c, 11, 79, 84
15, 21600, Note_on_c, 11, 74, 84
15, 21635, Note_on_c, 11, 79, 0
15, 21635, Note_on_c, 11, 74, 0
15, 21640, Note_on_c, 11, 79, 84
15, 21640, Note_on_c, 11, 74, 84
15, 21675, Note_on_c, 11, 79, 0
15, 21675, Note_on_c, 11, 74, 0
15, 21680, Note_on_c, 11, 79, 84
15, 21680, Note_on_c, 11, 74, 84
15, 21715, Note_on_c, 11, 79, 0
15, 21715, Note_on_c, 11, 74, 0
15, 21720, Note_on_c, 11, 79, 84
15, 21720, Note_on_c, 11, 74, 84
15, 21755, Note_on_c, 11, 79, 0
15, 21755, Note_on_c, 11, 74, 0
15, 21760, Note_on_c, 11, 79, 84
15, 21760, Note_on_c, 11, 74, 84
15, 21795, Note_on_c, 11, 79, 0
15, 21795, Note_on_c, 11, 74, 0
15, 21800, Note_on_c, 11, 79, 84
15, 21800, Note_on_c, 11, 74, 84
15, 21835, Note_on_c, 11, 79, 0
15, 21835, Note_on_c, 11, 74, 0
15, 21840, Note_on_c, 11, 79, 84
15, 21840, Note_on_c, 11, 74, 84
15, 21875, Note_on_c, 11, 79, 0
15, 21875, Note_on_c, 11, 74, 0
15, 21880, Note_on_c, 11, 74, 84
15, 21880, Note_on_c, 11, 79, 84
15, 21915, Note_on_c, 11, 74, 0
15, 21915, Note_on_c, 11, 79, 0
15, 21920, Note_on_c, 11, 79, 84
15, 21920, Note_on_c, 11, 74, 84
15, 21955, Note_on_c, 11, 79, 0
15, 21955, Note_on_c, 11, 74, 0
15, 21960, Note_on_c, 11, 79, 84
15, 21960, Note_on_c, 11, 72, 84
15, 21995, Note_on_c, 11, 79, 0
15, 21995, Note_on_c, 11, 72, 0
15, 22000, Note_on_c, 11, 79, 84
15, 22000, Note_on_c, 11, 72, 84
15, 22035, Note_on_c, 11, 79, 0
15, 22035, Note_on_c, 11, 72, 0
15, 22040, Note_on_c, 11, 79, 84
15, 22040, Note_on_c, 11, 72, 84
15, 22075, Note_on_c, 11, 79, 0
15, 22075, Note_on_c, 11, 72, 0
15, 22080, Note_on_c, 11, 79, 84
15, 22080, Note_on_c, 11, 72, 84
15, 22115, Note_on_c, 11, 79, 0
15, 22115, Note_on_c, 11, 72, 0
15, 22120, Note_on_c, 11, 72, 84
15, 22120, Note_on_c, 11, 79, 84
15, 22155, Note_on_c, 11, 72, 0
15, 22155, Note_on_c, 11, 79, 0
15, 22160, Note_on_c, 11, 79, 84
15, 22160, Note_on_c, 11, 72, 84
15, 22195, Note_on_c, 11, 79, 0
15, 22195, Note_on_c, 11, 72, 0
15, 22200, Note_on_c, 11, 72, 84
15, 22200, Note_on_c, 11, 79, 84
15, 22235, Note_on_c, 11, 72, 0
15, 22235, Note_on_c, 11, 79, 0
15, 22240, Note_on_c, 11, 72, 84
15, 22240, Note_on_c, 11, 79, 84
15, 22275, Note_on_c, 11, 72, 0
15, 22275, Note_on_c, 11, 79, 0
15, 22280, Note_on_c, 11, 79, 84
15, 22280, Note_on_c, 11, 72, 84
15, 22315, Note_on_c, 11, 79, 0
15, 22315, Note_on_c, 11, 72, 0
15, 22320, Note_on_c, 11, 69, 84
15, 22320, Note_on_c, 11, 81, 84
15, 22375, Note_on_c, 11, 69, 0
15, 22375, Note_on_c, 11, 81, 0
15, 22380, Note_on_c, 11, 60, 84
15, 22439, Note_on_c, 11, 60, 0
15, 22440, Note_on_c, 11, 65, 84
15, 22499, Note_on_c, 11, 65, 0
15, 22500, Note_on_c, 11, 60, 84
15, 22559, Note_on_c, 11, 60, 0
15, 22560, Note_on_c, 11, 57, 84
15, 22619, Note_on_c, 11, 57, 0
15, 22620, Note_on_c, 11, 60, 84
15, 22675, Note_on_c, 11, 60, 0
15, 22680, Note_on_c, 11, 58, 84
15, 22739, Note_on_c, 11, 58, 0
15, 22740, Note_on_c, 11, 60, 84
15, 22799, Note_on_c, 11, 60, 0
15, 22800, Note_on_c, 11, 64, 84
15, 22859, Note_on_c, 11, 64, 0
15, 22860, Note_on_c, 11, 60, 84
15, 22919, Note_on_c, 11, 60, 0
15, 22920, Note_on_c, 11, 58, 84
15, 22979, Note_on_c, 11, 58, 0
15, 22980, Note_on_c, 11, 60, 84
15, 23035, Note_on_c, 11, 60, 0
15, 23040, Note_on_c, 11, 57, 84
15, 23099, Note_on_c, 11, 57, 0
15, 23100, Note_on_c, 11, 60, 84
15, 23159, Note_on_c, 11, 60, 0
15, 23160, Note_on_c, 11, 65, 84
15, 23219, Note_on_c, 11, 65, 0
15, 23220, Note_on_c, 11, 60, 84
15, 23279, Note_on_c, 11, 60, 0
15, 23280, Note_on_c, 11, 57, 84
15, 23339, Note_on_c, 11, 57, 0
15, 23340, Note_on_c, 11, 60, 84
15, 23395, Note_on_c, 11, 60, 0
15, 23400, Note_on_c, 11, 55, 84
15, 23459, Note_on_c, 11, 55, 0
15, 23460, Note_on_c, 11, 60, 84
15, 23519, Note_on_c, 11, 60, 0
15, 23520, Note_on_c, 11, 64, 84
15, 23579, Note_on_c, 11, 64, 0
15, 23580, Note_on_c, 11, 60, 84
15, 23639, Note_on_c, 11, 60, 0
15, 23640, Note_on_c, 11, 64, 84
15, 23699, Note_on_c, 11, 64, 0
15, 23700, Note_on_c, 11, 67, 84
15, 23755, Note_on_c, 11, 67, 0
15, 23760, Note_on_c, 11, 60, 84
15, 23760, Note_on_c, 11, 69, 84
15, 23999, Note_on_c, 11, 60, 0
15, 23999, Note_on_c, 11, 69, 0
15, 25080, Note_on_c, 11, 58, 84
15, 25139, Note_on_c, 11, 58, 0
15, 25140, Note_on_c, 11, 60, 84
15, 25195, Note_on_c, 11, 60, 0
15, 25200, Note_on_c, 11, 57, 84
15, 25259, Note_on_c, 11, 57, 0
15, 25260, Note_on_c, 11, 60, 84
15, 25319, Note_on_c, 11, 60, 0
15, 25320, Note_on_c, 11, 65, 84
15, 25379, Note_on_c, 11, 65, 0
15, 25380, Note_on_c, 11, 60, 84
15, 25439, Note_on_c, 11, 60, 0
15, 25440, Note_on_c, 11, 57, 84
15, 25499, Note_on_c, 11, 57, 0
15, 25500, Note_on_c, 11, 60, 84
15, 25555, Note_on_c, 11, 60, 0
15, 25560, Note_on_c, 11, 55, 84
15, 25619, Note_on_c, 11, 55, 0
15, 25620, Note_on_c, 11, 60, 84
15, 25679, Note_on_c, 11, 60, 0
15, 25680, Note_on_c, 11, 64, 84
15, 25739, Note_on_c, 11, 64, 0
15, 25740, Note_on_c, 11, 60, 84
15, 25799, Note_on_c, 11, 60, 0
15, 25800, Note_on_c, 11, 55, 84
15, 25859, Note_on_c, 11, 55, 0
15, 25860, Note_on_c, 11, 60, 84
15, 25915, Note_on_c, 11, 60, 0
15, 25920, Note_on_c, 11, 57, 84
15, 25979, Note_on_c, 11, 57, 0
15, 25980, Note_on_c, 11, 60, 84
15, 26039, Note_on_c, 11, 60, 0
15, 26040, Note_on_c, 11, 65, 84
15, 26099, Note_on_c, 11, 65, 0
15, 26100, Note_on_c, 11, 60, 84
15, 26159, Note_on_c, 11, 60, 0
15, 26160, Note_on_c, 11, 65, 84
15, 26219, Note_on_c, 11, 65, 0
15, 26220, Note_on_c, 11, 60, 84
15, 26275, Note_on_c, 11, 60, 0
15, 26280, Note_on_c, 11, 55, 84
15, 26339, Note_on_c, 11, 55, 0
15, 26340, Note_on_c, 11, 60, 84
15, 26399, Note_on_c, 11, 60, 0
15, 26400, Note_on_c, 11, 64, 84
15, 26459, Note_on_c, 11, 64, 0
15, 26460, Note_on_c, 11, 60, 84
15, 26519, Note_on_c, 11, 60, 0
15, 26520, Note_on_c, 11, 64, 84
15, 26579, Note_on_c, 11, 64, 0
15, 26580, Note_on_c, 11, 67, 84
15, 26635, Note_on_c, 11, 67, 0
15, 26640, Note_on_c, 11, 60, 84
15, 26640, Note_on_c, 11, 69, 84
15, 26879, Note_on_c, 11, 60, 0
15, 26879, Note_on_c, 11, 69, 0
15, 27960, Note_on_c, 11, 58, 84
15, 28019, Note_on_c, 11, 58, 0
15, 28020, Note_on_c, 11, 60, 84
15, 28075, Note_on_c, 11, 60, 0
15, 28080, Note_on_c, 11, 57, 92
15, 28139, Note_on_c, 11, 57, 0
15, 28140, Note_on_c, 11, 60, 84
15, 28199, Note_on_c, 11, 60, 0
15, 28200, Note_on_c, 11, 57, 84
15, 28259, Note_on_c, 11, 57, 0
15, 28260, Note_on_c, 11, 60, 84
15, 28319, Note_on_c, 11, 60, 0
15, 28320, Note_on_c, 11, 57, 84
15, 28379, Note_on_c, 11, 57, 0
15, 28380, Note_on_c, 11, 60, 84
15, 28435, Note_on_c, 11, 60, 0
15, 28440, Note_on_c, 11, 59, 92
15, 28499, Note_on_c, 11, 59, 0
15, 28500, Note_on_c, 11, 62, 84
15, 28559, Note_on_c, 11, 62, 0
15, 28560, Note_on_c, 11, 59, 84
15, 28619, Note_on_c, 11, 59, 0
15, 28620, Note_on_c, 11, 62, 84
15, 28679, Note_on_c, 11, 62, 0
15, 28680, Note_on_c, 11, 59, 84
15, 28739, Note_on_c, 11, 59, 0
15, 28740, Note_on_c, 11, 62, 84
15, 28795, Note_on_c, 11, 62, 0
15, 28800, Note_on_c, 11, 60, 92
15, 28859, Note_on_c, 11, 60, 0
15, 28860, Note_on_c, 11, 64, 84
15, 28919, Note_on_c, 11, 64, 0
15, 28920, Note_on_c, 11, 60, 84
15, 28979, Note_on_c, 11, 60, 0
15, 28980, Note_on_c, 11, 64, 84
15, 29039, Note_on_c, 11, 64, 0
15, 29040, Note_on_c, 11, 60, 84
15, 29099, Note_on_c, 11, 60, 0
15, 29100, Note_on_c, 11, 64, 84
15, 29155, Note_on_c, 11, 64, 0
15, 29160, Note_on_c, 11, 62, 92
15, 29219, Note_on_c, 11, 62, 0
15, 29220, Note_on_c, 11, 65, 84
15, 29279, Note_on_c, 11, 65, 0
15, 29280, Note_on_c, 11, 62, 84
15, 29339, Note_on_c, 11, 62, 0
15, 29340, Note_on_c, 11, 65, 84
15, 29399, Note_on_c, 11, 65, 0
15, 29400, Note_on_c, 11, 62, 84
15, 29459, Note_on_c, 11, 62, 0
15, 29460, Note_on_c, 11, 65, 84
15, 29515, Note_on_c, 11, 65, 0
15, 29520, Note_on_c, 11, 55, 84
15, 29520, Note_on_c, 11, 67, 84
15, 29871, Note_on_c, 11, 55, 0
15, 29871, Note_on_c, 11, 67, 0
15, 29880, Note_on_c, 11, 69, 84
15, 29999, Note_on_c, 11, 69, 0
15, 30000, Note_on_c, 11, 67, 84
15, 30111, Note_on_c, 11, 67, 0
15, 30120, Note_on_c, 11, 64, 84
15, 30164, Note_on_c, 11, 64, 0
15, 30180, Note_on_c, 11, 60, 84
15, 30224, Note_on_c, 11, 60, 0
15, 30240, Note_on_c, 11, 64, 84
15, 30240, Note_on_c, 11, 72, 84
15, 30471, Note_on_c, 11, 64, 0
15, 30471, Note_on_c, 11, 72, 0
15, 30480, Note_on_c, 11, 72, 84
15, 30591, Note_on_c, 11, 72, 0
15, 30600, Note_on_c, 11, 72, 84
15, 30711, Note_on_c, 11, 72, 0
15, 30720, Note_on_c, 11, 72, 84
15, 30831, Note_on_c, 11, 72, 0
15, 30840, Note_on_c, 11, 72, 84
15, 30859, Note_on_c, 11, 72, 0
15, 30860, Note_on_c, 11, 74, 84
15, 30879, Note_on_c, 11, 74, 0
15, 30880, Note_on_c, 11, 72, 84
15, 30899, Note_on_c, 11, 72, 0
15, 30900, Note_on_c, 11, 74, 84
15, 30919, Note_on_c, 11, 74, 0
15, 30920, Note_on_c, 11, 70, 84
15, 30939, Note_on_c, 11, 70, 0
15, 30940, Note_on_c, 11, 72, 84
15, 30959, Note_on_c, 11, 72, 0
15, 30960, Note_on_c, 11, 62, 84
15, 30960, Note_on_c, 11, 71, 84
15, 31311, Note_on_c, 11, 62, 0
15, 31311, Note_on_c, 11, 71, 0
15, 31320, Note_on_c, 11, 67, 84
15, 31439, Note_on_c, 11, 67, 0
15, 31440, Note_on_c, 11, 65, 84
15, 31551, Note_on_c, 11, 65, 0
15, 31560, Note_on_c, 11, 62, 84
15, 31604, Note_on_c, 11, 62, 0
15, 31620, Note_on_c, 11, 59, 84
15, 31664, Note_on_c, 11, 59, 0
15, 31680, Note_on_c, 11, 62, 84
15, 31680, Note_on_c, 11, 71, 84
15, 31911, Note_on_c, 11, 62, 0
15, 31911, Note_on_c, 11, 71, 0
15, 31920, Note_on_c, 11, 71, 84
15, 32031, Note_on_c, 11, 71, 0
15, 32040, Note_on_c, 11, 71, 84
15, 32151, Note_on_c, 11, 71, 0
15, 32160, Note_on_c, 11, 71, 84
15, 32271, Note_on_c, 11, 71, 0
15, 32280, Note_on_c, 11, 71, 84
15, 32299, Note_on_c, 11, 71, 0
15, 32300, Note_on_c, 11, 72, 84
15, 32319, Note_on_c, 11, 72, 0
15, 32320, Note_on_c, 11, 71, 84
15, 32339, Note_on_c, 11, 71, 0
15, 32340, Note_on_c, 11, 72, 84
15, 32359, Note_on_c, 11, 72, 0
15, 32360, Note_on_c, 11, 69, 84
15, 32379, Note_on_c, 11, 69, 0
15, 32380, Note_on_c, 11, 71, 84
15, 32399, Note_on_c, 11, 71, 0
15, 32400, Note_on_c, 11, 72, 84
15, 32400, Note_on_c, 11, 64, 84
15, 32751, Note_on_c, 11, 72, 0
15, 32751, Note_on_c, 11, 64, 0
15, 32760, Note_on_c, 11, 69, 84
15, 32819, Note_on_c, 11, 69, 0
15, 32820, Note_on_c, 11, 67, 84
15, 32875, Note_on_c, 11, 67, 0
15, 32880, Note_on_c, 11, 66, 84
15, 32924, Note_on_c, 11, 66, 0
15, 32940, Note_on_c, 11, 67, 84
15, 32984, Note_on_c, 11, 67, 0
15, 33000, Note_on_c, 11, 64, 84
15, 33044, Note_on_c, 11, 64, 0
15, 33060, Note_on_c, 11, 60, 84
15, 33104, Note_on_c, 11, 60, 0
15, 33120, Note_on_c, 11, 72, 84
15, 33351, Note_on_c, 11, 72, 0
15, 33360, Note_on_c, 11, 72, 84
15, 33471, Note_on_c, 11, 72, 0
15, 33480, Note_on_c, 11, 72, 84
15, 33591, Note_on_c, 11, 72, 0
15, 33600, Note_on_c, 11, 72, 84
15, 33711, Note_on_c, 11, 72, 0
15, 33720, Note_on_c, 11, 72, 84
15, 33739, Note_on_c, 11, 72, 0
15, 33740, Note_on_c, 11, 74, 84
15, 33759, Note_on_c, 11, 74, 0
15, 33760, Note_on_c, 11, 72, 84
15, 33779, Note_on_c, 11, 72, 0
15, 33780, Note_on_c, 11, 74, 84
15, 33799, Note_on_c, 11, 74, 0
15, 33800, Note_on_c, 11, 70, 84
15, 33819, Note_on_c, 11, 70, 0
15, 33820, Note_on_c, 11, 72, 84
15, 33839, Note_on_c, 11, 72, 0
15, 33840, Note_on_c, 11, 62, 84
15, 33840, Note_on_c, 11, 71, 84
15, 34191, Note_on_c, 11, 62, 0
15, 34191, Note_on_c, 11, 71, 0
15, 34200, Note_on_c, 11, 67, 84
15, 34259, Note_on_c, 11, 67, 0
15, 34260, Note_on_c, 11, 65, 84
15, 34315, Note_on_c, 11, 65, 0
15, 34320, Note_on_c, 11, 64, 84
15, 34364, Note_on_c, 11, 64, 0
15, 34380, Note_on_c, 11, 65, 84
15, 34424, Note_on_c, 11, 65, 0
15, 34440, Note_on_c, 11, 62, 84
15, 34484, Note_on_c, 11, 62, 0
15, 34500, Note_on_c, 11, 59, 84
15, 34544, Note_on_c, 11, 59, 0
15, 34560, Note_on_c, 11, 71, 84
15, 34791, Note_on_c, 11, 71, 0
15, 34800, Note_on_c, 11, 71, 84
15, 34911, Note_on_c, 11, 71, 0
15, 34920, Note_on_c, 11, 71, 84
15, 35031, Note_on_c, 11, 71, 0
15, 35040, Note_on_c, 11, 71, 84
15, 35151, Note_on_c, 11, 71, 0
15, 35160, Note_on_c, 11, 71, 84
15, 35179, Note_on_c, 11, 71, 0
15, 35180, Note_on_c, 11, 72, 84
15, 35199, Note_on_c, 11, 72, 0
15, 35200, Note_on_c, 11, 71, 84
15, 35219, Note_on_c, 11, 71, 0
15, 35220, Note_on_c, 11, 72, 84
15, 35239, Note_on_c, 11, 72, 0
15, 35240, Note_on_c, 11, 69, 84
15, 35259, Note_on_c, 11, 69, 0
15, 35260, Note_on_c, 11, 71, 84
15, 35279, Note_on_c, 11, 71, 0
15, 35280, Note_on_c, 11, 72, 84
15, 35519, Note_on_c, 11, 72, 0
15, 35640, Note_on_c, 11, 65, 52
15, 35759, Note_on_c, 11, 65, 0
15, 35760, Note_on_c, 11, 64, 56
15, 35879, Note_on_c, 11, 64, 0
15, 35880, Note_on_c, 11, 69, 60
15, 35999, Note_on_c, 11, 69, 0
15, 36000, Note_on_c, 11, 67, 64
15, 36119, Note_on_c, 11, 67, 0
15, 36120, Note_on_c, 11, 71, 68
15, 36239, Note_on_c, 11, 71, 0
15, 36240, Note_on_c, 11, 72, 72
15, 36351, Note_on_c, 11, 72, 0
15, 36360, Note_on_c, 11, 74, 76
15, 36360, Note_on_c, 11, 65, 76
15, 36599, Note_on_c, 11, 74, 0
15, 36599, Note_on_c, 11, 65, 0
15, 36600, Note_on_c, 11, 65, 76
15, 36600, Note_on_c, 11, 74, 76
15, 36719, Note_on_c, 11, 65, 0
15, 36719, Note_on_c, 11, 74, 0
15, 36720, Note_on_c, 11, 64, 76
15, 36720, Note_on_c, 11, 72, 76
15, 36839, Note_on_c, 11, 64, 0
15, 36839, Note_on_c, 11, 72, 0
15, 36960, Note_on_c, 11, 64, 55
15, 37079, Note_on_c, 11, 64, 0
15, 37080, Note_on_c, 11, 65, 58
15, 37199, Note_on_c, 11, 65, 0
15, 37200, Note_on_c, 11, 64, 61
15, 37319, Note_on_c, 11, 64, 0
15, 37320, Note_on_c, 11, 69, 64
15, 37439, Note_on_c, 11, 69, 0
15, 37440, Note_on_c, 11, 67, 67
15, 37559, Note_on_c, 11, 67, 0
15, 37560, Note_on_c, 11, 71, 70
15, 37679, Note_on_c, 11, 71, 0
15, 37680, Note_on_c, 11, 72, 73
15, 37791, Note_on_c, 11, 72, 0
15, 37800, Note_on_c, 11, 74, 76
15, 37800, Note_on_c, 11, 65, 76
15, 38039, Note_on_c, 11, 74, 0
15, 38039, Note_on_c, 11, 65, 0
15, 38040, Note_on_c, 11, 74, 76
15, 38040, Note_on_c, 11, 65, 76
15, 38129, Note_on_c, 11, 74, 0
15, 38129, Note_on_c, 11, 65, 0
15, 38160, Note_on_c, 11, 64, 84
15, 38160, Note_on_c, 11, 76, 84
15, 38519, Note_on_c, 11, 76, 0
15, 38520, Note_on_c, 11, 72, 84
15, 38639, Note_on_c, 11, 64, 0
15, 38639, Note_on_c, 11, 72, 0
15, 38760, Note_on_c, 11, 76, 84
15, 38849, Note_on_c, 11, 76, 0
15, 38880, Note_on_c, 11, 77, 84
15, 39239, Note_on_c, 11, 77, 0
15, 39240, Note_on_c, 11, 74, 84
15, 39359, Note_on_c, 11, 74, 0
15, 39480, Note_on_c, 11, 69, 84
15, 39569, Note_on_c, 11, 69, 0
15, 39600, Note_on_c, 11, 60, 76
15, 39600, Control_c, 11, 11, 127
15, 39600, Note_on_c, 11, 64, 76
15, 39620, Control_c, 11, 11, 124
15, 39640, Control_c, 11, 11, 122
15, 39660, Control_c, 11, 11, 119
15, 39680, Control_c, 11, 11, 117
15, 39700, Control_c, 11, 11, 114
15, 39720, Control_c, 11, 11, 111
15, 39740, Control_c, 11, 11, 109
15, 39760, Control_c, 11, 11, 106
15, 39780, Control_c, 11, 11, 104
15, 39800, Control_c, 11, 11, 101
15, 39820, Control_c, 11, 11, 98
15, 39840, Control_c, 11, 11, 96
15, 39860, Control_c, 11, 11, 93
15, 39880, Control_c, 11, 11, 90
15, 39900, Control_c, 11, 11, 88
15, 39920, Control_c, 11, 11, 85
15, 39940, Control_c, 11, 11, 80
15, 40319, Note_on_c, 11, 60, 0
15, 40319, Note_on_c, 11, 64, 0
15, 40320, Note_on_c, 11, 60, 76
15, 40320, Note_on_c, 11, 64, 76
15, 41039, Note_on_c, 11, 60, 0
15, 41039, Note_on_c, 11, 64, 0
15, 41040, Control_c, 11, 11, 80
15, 41040, Note_on_c, 11, 60, 76
15, 41040, Note_on_c, 11, 64, 76
15, 41108, Control_c, 11, 11, 79
15, 41175, Control_c, 11, 11, 78
15, 41243, Control_c, 11, 11, 77
15, 41310, Control_c, 11, 11, 76
15, 41378, Control_c, 11, 11, 75
15, 41445, Control_c, 11, 11, 74
15, 41513, Control_c, 11, 11, 73
15, 41580, Control_c, 11, 11, 72
15, 41648, Control_c, 11, 11, 71
15, 41715, Control_c, 11, 11, 70
15, 41759, Note_on_c, 11, 60, 0
15, 41759, Note_on_c, 11, 64, 0
15, 41760, Note_on_c, 11, 60, 76
15, 41760, Note_on_c, 11, 64, 76
15, 41783, Control_c, 11, 11, 69
15, 41850, Control_c, 11, 11, 68
15, 41918, Control_c, 11, 11, 67
15, 41985, Control_c, 11, 11, 66
15, 42053, Control_c, 11, 11, 64
15, 42479, Note_on_c, 11, 60, 0
15, 42479, Note_on_c, 11, 64, 0
15, 42480, Note_on_c, 11, 64, 76
15, 42480, Note_on_c, 11, 60, 76
15, 43199, Note_on_c, 11, 64, 0
15, 43199, Note_on_c, 11, 60, 0
15, 43200, Note_on_c, 11, 60, 76
15, 43200, Note_on_c, 11, 64, 76
15, 43919, Note_on_c, 11, 60, 0
15, 43919, Note_on_c, 11, 64, 0
15, 43920, Note_on_c, 11, 64, 76
15, 43920, Note_on_c, 11, 60, 76
15, 43920, Control_c, 11, 11, 64
15, 43950, Control_c, 11, 11, 65
15, 43980, Control_c, 11, 11, 66
15, 44010, Control_c, 11, 11, 67
15, 44040, Control_c, 11, 11, 68
15, 44070, Control_c, 11, 11, 69
15, 44100, Control_c, 11, 11, 70
15, 44130, Control_c, 11, 11, 71
15, 44160, Control_c, 11, 11, 72
15, 44190, Control_c, 11, 11, 73
15, 44220, Control_c, 11, 11, 74
15, 44250, Control_c, 11, 11, 75
15, 44280, Control_c, 11, 11, 76
15, 44310, Control_c, 11, 11, 77
15, 44340, Control_c, 11, 11, 78
15, 44370, Control_c, 11, 11, 79
15, 44400, Control_c, 11, 11, 80
15, 44430, Control_c, 11, 11, 81
15, 44460, Control_c, 11, 11, 82
15, 44490, Control_c, 11, 11, 83
15, 44520, Control_c, 11, 11, 84
15, 44550, Control_c, 11, 11, 85
15, 44580, Control_c, 11, 11, 86
15, 44610, Control_c, 11, 11, 87
15, 44639, Note_on_c, 11, 64, 0
15, 44639, Note_on_c, 11, 60, 0
15, 44640, Control_c, 11, 11, 88
15, 44640, Note_on_c, 11, 60, 76
15, 44640, Note_on_c, 11, 64, 76
15, 44670, Control_c, 11, 11, 89
15, 44700, Control_c, 11, 11, 90
15, 44730, Control_c, 11, 11, 91
15, 44760, Control_c, 11, 11, 92
15, 44790, Control_c, 11, 11, 93
15, 44820, Control_c, 11, 11, 94
15, 44850, Control_c, 11, 11, 95
15, 44880, Control_c, 11, 11, 96
15, 44910, Control_c, 11, 11, 97
15, 44940, Control_c, 11, 11, 98
15, 44970, Control_c, 11, 11, 99
15, 45000, Control_c, 11, 11, 100
15, 45030, Control_c, 11, 11, 101
15, 45060, Control_c, 11, 11, 102
15, 45090, Control_c, 11, 11, 103
15, 45120, Control_c, 11, 11, 104
15, 45150, Control_c, 11, 11, 105
15, 45180, Control_c, 11, 11, 106
15, 45210, Control_c, 11, 11, 107
15, 45240, Control_c, 11, 11, 108
15, 45270, Control_c, 11, 11, 109
15, 45300, Control_c, 11, 11, 110
15, 45330, Control_c, 11, 11, 111
15, 45351, Note_on_c, 11, 60, 0
15, 45351, Note_on_c, 11, 64, 0
15, 45358, Control_c, 11, 11, 127
15, 45360, Note_on_c, 11, 60, 52
15, 45360, Note_on_c, 11, 65, 52
15, 45599, Note_on_c, 11, 60, 0
15, 45599, Note_on_c, 11, 65, 0
15, 45780, Note_on_c, 11, 57, 52
15, 45839, Note_on_c, 11, 57, 0
15, 45840, Note_on_c, 11, 60, 52
15, 45899, Note_on_c, 11, 60, 0
15, 45900, Note_on_c, 11, 65, 52
15, 45959, Note_on_c, 11, 65, 0
15, 45960, Note_on_c, 11, 69, 52
15, 46019, Note_on_c, 11, 69, 0
15, 46020, Note_on_c, 11, 65, 52
15, 46079, Note_on_c, 11, 65, 0
15, 46500, Note_on_c, 11, 57, 52
15, 46559, Note_on_c, 11, 57, 0
15, 46560, Note_on_c, 11, 60, 52
15, 46619, Note_on_c, 11, 60, 0
15, 46620, Note_on_c, 11, 65, 52
15, 46679, Note_on_c, 11, 65, 0
15, 46680, Note_on_c, 11, 69, 52
15, 46739, Note_on_c, 11, 69, 0
15, 46740, Note_on_c, 11, 65, 52
15, 46799, Note_on_c, 11, 65, 0
15, 47220, Note_on_c, 11, 60, 52
15, 47279, Note_on_c, 11, 60, 0
15, 47280, Note_on_c, 11, 65, 52
15, 47339, Note_on_c, 11, 65, 0
15, 47340, Note_on_c, 11, 69, 52
15, 47399, Note_on_c, 11, 69, 0
15, 47400, Note_on_c, 11, 72, 52
15, 47459, Note_on_c, 11, 72, 0
15, 47460, Note_on_c, 11, 69, 52
15, 47519, Note_on_c, 11, 69, 0
15, 47940, Note_on_c, 11, 58, 52
15, 47999, Note_on_c, 11, 58, 0
15, 48000, Note_on_c, 11, 62, 52
15, 48059, Note_on_c, 11, 62, 0
15, 48060, Note_on_c, 11, 65, 52
15, 48119, Note_on_c, 11, 65, 0
15, 48120, Note_on_c, 11, 70, 52
15, 48179, Note_on_c, 11, 70, 0
15, 48180, Note_on_c, 11, 67, 52
15, 48239, Note_on_c, 11, 67, 0
15, 48660, Note_on_c, 11, 60, 52
15, 48719, Note_on_c, 11, 60, 0
15, 48720, Note_on_c, 11, 64, 52
15, 48779, Note_on_c, 11, 64, 0
15, 48780, Note_on_c, 11, 67, 52
15, 48839, Note_on_c, 11, 67, 0
15, 48840, Note_on_c, 11, 72, 52
15, 48899, Note_on_c, 11, 72, 0
15, 48900, Note_on_c, 11, 67, 52
15, 48959, Note_on_c, 11, 67, 0
15, 49380, Note_on_c, 11, 57, 52
15, 49439, Note_on_c, 11, 57, 0
15, 49440, Note_on_c, 11, 62, 52
15, 49499, Note_on_c, 11, 62, 0
15, 49500, Note_on_c, 11, 65, 52
15, 49559, Note_on_c, 11, 65, 0
15, 49560, Note_on_c, 11, 69, 52
15, 49619, Note_on_c, 11, 69, 0
15, 49620, Note_on_c, 11, 65, 52
15, 49679, Note_on_c, 11, 65, 0
15, 50100, Note_on_c, 11, 55, 52
15, 50159, Note_on_c, 11, 55, 0
15, 50160, Note_on_c, 11, 60, 52
15, 50219, Note_on_c, 11, 60, 0
15, 50220, Note_on_c, 11, 64, 52
15, 50279, Note_on_c, 11, 64, 0
15, 50280, Note_on_c, 11, 67, 52
15, 50339, Note_on_c, 11, 67, 0
15, 50340, Note_on_c, 11, 64, 52
15, 50399, Note_on_c, 11, 64, 0
15, 50783, Control_c, 11, 11, 85
15, 50820, Note_on_c, 11, 57, 76
15, 50860, Control_c, 11, 11, 86
15, 50879, Note_on_c, 11, 57, 0
15, 50880, Note_on_c, 11, 60, 76
15, 50936, Control_c, 11, 11, 87
15, 50939, Note_on_c, 11, 60, 0
15, 50940, Note_on_c, 11, 65, 76
15, 50999, Note_on_c, 11, 65, 0
15, 51000, Note_on_c, 11, 69, 76
15, 51013, Control_c, 11, 11, 88
15, 51059, Note_on_c, 11, 69, 0
15, 51060, Note_on_c, 11, 65, 76
15, 51089, Control_c, 11, 11, 89
15, 51115, Note_on_c, 11, 65, 0
15, 51120, Note_on_c, 11, 69, 76
15, 51166, Control_c, 11, 11, 90
15, 51243, Control_c, 11, 11, 91
15, 51319, Control_c, 11, 11, 92
15, 51396, Control_c, 11, 11, 93
15, 51472, Control_c, 11, 11, 94
15, 51479, Note_on_c, 11, 69, 0
15, 51480, Note_on_c, 11, 65, 76
15, 51549, Control_c, 11, 11, 95
15, 51626, Control_c, 11, 11, 96
15, 51702, Control_c, 11, 11, 97
15, 51719, Note_on_c, 11, 65, 0
15, 51720, Note_on_c, 11, 72, 76
15, 51779, Control_c, 11, 11, 98
15, 51831, Note_on_c, 11, 72, 0
15, 51840, Note_on_c, 11, 69, 76
15, 51855, Control_c, 11, 11, 99
15, 51932, Control_c, 11, 11, 100
15, 52009, Control_c, 11, 11, 101
15, 52085, Control_c, 11, 11, 102
15, 52162, Control_c, 11, 11, 103
15, 52199, Note_on_c, 11, 69, 0
15, 52200, Note_on_c, 11, 65, 76
15, 52238, Control_c, 11, 11, 104
15, 52315, Control_c, 11, 11, 105
15, 52391, Control_c, 11, 11, 106
15, 52431, Note_on_c, 11, 65, 0
15, 52440, Note_on_c, 11, 60, 76
15, 52468, Control_c, 11, 11, 107
15, 52545, Control_c, 11, 11, 108
15, 52559, Note_on_c, 11, 60, 0
15, 52560, Note_on_c, 11, 65, 76
15, 52621, Control_c, 11, 11, 109
15, 52698, Control_c, 11, 11, 110
15, 52774, Control_c, 11, 11, 111
15, 52799, Note_on_c, 11, 65, 0
15, 52800, Note_on_c, 11, 69, 76
15, 52851, Control_c, 11, 11, 112
15, 52919, Note_on_c, 11, 69, 0
15, 52920, Note_on_c, 11, 72, 76
15, 52928, Control_c, 11, 11, 113
15, 53004, Control_c, 11, 11, 114
15, 53081, Control_c, 11, 11, 115
15, 53157, Control_c, 11, 11, 116
15, 53159, Note_on_c, 11, 72, 0
15, 53160, Note_on_c, 11, 69, 76
15, 53234, Control_c, 11, 11, 117
15, 53271, Note_on_c, 11, 69, 0
15, 53280, Note_on_c, 11, 72, 76
15, 53311, Control_c, 11, 11, 118
15, 53387, Control_c, 11, 11, 119
15, 53464, Control_c, 11, 11, 120
15, 53540, Control_c, 11, 11, 121
15, 53617, Control_c, 11, 11, 122
15, 53639, Note_on_c, 11, 72, 0
15, 53640, Note_on_c, 11, 72, 76
15, 53694, Control_c, 11, 11, 123
15, 53770, Control_c, 11, 11, 124
15, 53847, Control_c, 11, 11, 125
15, 53871, Note_on_c, 11, 72, 0
15, 53880, Note_on_c, 11, 65, 76
15, 53923, Control_c, 11, 11, 127
15, 53999, Note_on_c, 11, 65, 0
15, 54000, Note_on_c, 11, 69, 76
15, 54239, Note_on_c, 11, 69, 0
15, 54240, Note_on_c, 11, 72, 76
15, 54359, Note_on_c, 11, 72, 0
15, 54360, Note_on_c, 11, 75, 76
15, 54599, Note_on_c, 11, 75, 0
15, 54600, Note_on_c, 11, 72, 76
15, 54711, Note_on_c, 11, 72, 0
15, 54720, Note_on_c, 11, 75, 76
15, 55079, Note_on_c, 11, 75, 0
15, 55080, Note_on_c, 11, 75, 76
15, 55311, Note_on_c, 11, 75, 0
15, 55320, Note_on_c, 11, 65, 84
15, 55320, Note_on_c, 11, 75, 84
15, 55355, Note_on_c, 11, 65, 0
15, 55355, Note_on_c, 11, 75, 0
15, 55360, Note_on_c, 11, 65, 84
15, 55360, Note_on_c, 11, 75, 84
15, 55395, Note_on_c, 11, 65, 0
15, 55395, Note_on_c, 11, 75, 0
15, 55400, Note_on_c, 11, 75, 84
15, 55400, Note_on_c, 11, 65, 84
15, 55435, Note_on_c, 11, 75, 0
15, 55435, Note_on_c, 11, 65, 0
15, 55440, Note_on_c, 11, 75, 84
15, 55440, Note_on_c, 11, 65, 84
15, 55475, Note_on_c, 11, 75, 0
15, 55475, Note_on_c, 11, 65, 0
15, 55480, Note_on_c, 11, 75, 84
15, 55480, Note_on_c, 11, 65, 84
15, 55515, Note_on_c, 11, 75, 0
15, 55515, Note_on_c, 11, 65, 0
15, 55520, Note_on_c, 11, 75, 84
15, 55520, Note_on_c, 11, 65, 84
15, 55555, Note_on_c, 11, 75, 0
15, 55555, Note_on_c, 11, 65, 0
15, 55560, Note_on_c, 11, 65, 84
15, 55560, Note_on_c, 11, 75, 84
15, 55595, Note_on_c, 11, 65, 0
15, 55595, Note_on_c, 11, 75, 0
15, 55600, Note_on_c, 11, 65, 84
15, 55600, Note_on_c, 11, 75, 84
15, 55635, Note_on_c, 11, 65, 0
15, 55635, Note_on_c, 11, 75, 0
15, 55640, Note_on_c, 11, 65, 84
15, 55640, Note_on_c, 11, 75, 84
15, 55675, Note_on_c, 11, 65, 0
15, 55675, Note_on_c, 11, 75, 0
15, 55680, Note_on_c, 11, 75, 84
15, 55680, Note_on_c, 11, 65, 84
15, 55715, Note_on_c, 11, 75, 0
15, 55715, Note_on_c, 11, 65, 0
15, 55720, Note_on_c, 11, 75, 84
15, 55720, Note_on_c, 11, 65, 84
15, 55755, Note_on_c, 11, 75, 0
15, 55755, Note_on_c, 11, 65, 0
15, 55760, Note_on_c, 11, 75, 84
15, 55760, Note_on_c, 11, 65, 84
15, 55795, Note_on_c, 11, 75, 0
15, 55795, Note_on_c, 11, 65, 0
15, 55800, Note_on_c, 11, 75, 84
15, 55800, Note_on_c, 11, 65, 84
15, 55835, Note_on_c, 11, 75, 0
15, 55835, Note_on_c, 11, 65, 0
15, 55840, Note_on_c, 11, 65, 84
15, 55840, Note_on_c, 11, 75, 84
15, 55875, Note_on_c, 11, 65, 0
15, 55875, Note_on_c, 11, 75, 0
15, 55880, Note_on_c, 11, 75, 84
15, 55880, Note_on_c, 11, 65, 84
15, 55915, Note_on_c, 11, 75, 0
15, 55915, Note_on_c, 11, 65, 0
15, 55920, Note_on_c, 11, 75, 84
15, 55920, Note_on_c, 11, 65, 84
15, 55955, Note_on_c, 11, 75, 0
15, 55955, Note_on_c, 11, 65, 0
15, 55960, Note_on_c, 11, 75, 84
15, 55960, Note_on_c, 11, 65, 84
15, 55995, Note_on_c, 11, 75, 0
15, 55995, Note_on_c, 11, 65, 0
15, 56000, Note_on_c, 11, 75, 84
15, 56000, Note_on_c, 11, 65, 84
15, 56035, Note_on_c, 11, 75, 0
15, 56035, Note_on_c, 11, 65, 0
15, 56040, Note_on_c, 11, 65, 84
15, 56040, Note_on_c, 11, 75, 84
15, 56075, Note_on_c, 11, 65, 0
15, 56075, Note_on_c, 11, 75, 0
15, 56080, Note_on_c, 11, 65, 84
15, 56080, Note_on_c, 11, 75, 84
15, 56115, Note_on_c, 11, 65, 0
15, 56115, Note_on_c, 11, 75, 0
15, 56120, Note_on_c, 11, 65, 84
15, 56120, Note_on_c, 11, 75, 84
15, 56155, Note_on_c, 11, 65, 0
15, 56155, Note_on_c, 11, 75, 0
15, 56160, Note_on_c, 11, 65, 84
15, 56160, Note_on_c, 11, 75, 84
15, 56195, Note_on_c, 11, 65, 0
15, 56195, Note_on_c, 11, 75, 0
15, 56200, Note_on_c, 11, 75, 84
15, 56200, Note_on_c, 11, 65, 84
15, 56235, Note_on_c, 11, 75, 0
15, 56235, Note_on_c, 11, 65, 0
15, 56240, Note_on_c, 11, 75, 84
15, 56240, Note_on_c, 11, 65, 84
15, 56275, Note_on_c, 11, 75, 0
15, 56275, Note_on_c, 11, 65, 0
15, 56280, Note_on_c, 11, 65, 84
15, 56280, Note_on_c, 11, 75, 84
15, 56315, Note_on_c, 11, 65, 0
15, 56315, Note_on_c, 11, 75, 0
15, 56320, Note_on_c, 11, 75, 84
15, 56320, Note_on_c, 11, 65, 84
15, 56355, Note_on_c, 11, 75, 0
15, 56355, Note_on_c, 11, 65, 0
15, 56360, Note_on_c, 11, 65, 84
15, 56360, Note_on_c, 11, 75, 84
15, 56395, Note_on_c, 11, 65, 0
15, 56395, Note_on_c, 11, 75, 0
15, 56400, Note_on_c, 11, 75, 84
15, 56400, Note_on_c, 11, 65, 84
15, 56435, Note_on_c, 11, 75, 0
15, 56435, Note_on_c, 11, 65, 0
15, 56440, Note_on_c, 11, 65, 84
15, 56440, Note_on_c, 11, 75, 84
15, 56475, Note_on_c, 11, 65, 0
15, 56475, Note_on_c, 11, 75, 0
15, 56480, Note_on_c, 11, 75, 84
15, 56480, Note_on_c, 11, 65, 84
15, 56515, Note_on_c, 11, 75, 0
15, 56515, Note_on_c, 11, 65, 0
15, 56520, Note_on_c, 11, 75, 84
15, 56520, Note_on_c, 11, 65, 84
15, 56555, Note_on_c, 11, 75, 0
15, 56555, Note_on_c, 11, 65, 0
15, 56560, Note_on_c, 11, 75, 84
15, 56560, Note_on_c, 11, 65, 84
15, 56595, Note_on_c, 11, 75, 0
15, 56595, Note_on_c, 11, 65, 0
15, 56600, Note_on_c, 11, 65, 84
15, 56600, Note_on_c, 11, 75, 84
15, 56635, Note_on_c, 11, 65, 0
15, 56635, Note_on_c, 11, 75, 0
15, 56640, Note_on_c, 11, 75, 84
15, 56640, Note_on_c, 11, 65, 84
15, 56675, Note_on_c, 11, 75, 0
15, 56675, Note_on_c, 11, 65, 0
15, 56680, Note_on_c, 11, 75, 84
15, 56680, Note_on_c, 11, 65, 84
15, 56715, Note_on_c, 11, 75, 0
15, 56715, Note_on_c, 11, 65, 0
15, 56720, Note_on_c, 11, 75, 84
15, 56720, Note_on_c, 11, 65, 84
15, 56755, Note_on_c, 11, 75, 0
15, 56755, Note_on_c, 11, 65, 0
15, 56760, Note_on_c, 11, 65, 84
15, 56760, Note_on_c, 11, 72, 84
15, 56795, Note_on_c, 11, 65, 0
15, 56795, Note_on_c, 11, 72, 0
15, 56800, Note_on_c, 11, 65, 84
15, 56800, Note_on_c, 11, 72, 84
15, 56835, Note_on_c, 11, 65, 0
15, 56835, Note_on_c, 11, 72, 0
15, 56840, Note_on_c, 11, 65, 84
15, 56840, Note_on_c, 11, 72, 84
15, 56875, Note_on_c, 11, 65, 0
15, 56875, Note_on_c, 11, 72, 0
15, 56880, Note_on_c, 11, 65, 84
15, 56880, Note_on_c, 11, 74, 84
15, 56880, Note_on_c, 11, 58, 84
15, 57119, Note_on_c, 11, 65, 0
15, 57119, Note_on_c, 11, 74, 0
15, 57119, Note_on_c, 11, 58, 0
15, 58200, Note_on_c, 11, 58, 76
15, 58311, Note_on_c, 11, 58, 0
15, 58320, Note_on_c, 11, 63, 84
15, 58379, Note_on_c, 11, 63, 0
15, 58380, Note_on_c, 11, 63, 76
15, 58559, Note_on_c, 11, 63, 0
15, 59640, Note_on_c, 11, 71, 76
15, 59751, Note_on_c, 11, 71, 0
15, 59760, Note_on_c, 11, 71, 84
15, 59819, Note_on_c, 11, 71, 0
15, 59820, Note_on_c, 11, 71, 76
15, 59999, Note_on_c, 11, 71, 0
15, 60000, Note_on_c, 11, 72, 76
15, 60119, Note_on_c, 11, 72, 0
15, 61080, Note_on_c, 11, 69, 76
15, 61199, Note_on_c, 11, 69, 0
15, 61200, Note_on_c, 11, 70, 76
15, 61439, Note_on_c, 11, 70, 0
15, 61800, Note_on_c, 11, 62, 76
15, 61800, Note_on_c, 11, 70, 76
15, 61911, Note_on_c, 11, 62, 0
15, 61911, Note_on_c, 11, 70, 0
15, 61920, Note_on_c, 11, 63, 76
15, 61920, Note_on_c, 11, 70, 76
15, 62159, Note_on_c, 11, 63, 0
15, 62159, Note_on_c, 11, 70, 0
15, 62520, Note_on_c, 11, 70, 76
15, 62520, Note_on_c, 11, 63, 76
15, 62631, Note_on_c, 11, 70, 0
15, 62631, Note_on_c, 11, 63, 0
15, 62640, Note_on_c, 11, 70, 76
15, 62640, Note_on_c, 11, 62, 76
15, 62879, Note_on_c, 11, 70, 0
15, 62879, Note_on_c, 11, 62, 0
15, 63240, Note_on_c, 11, 62, 76
15, 63359, Note_on_c, 11, 62, 0
15, 63360, Note_on_c, 11, 57, 76
15, 63599, Note_on_c, 11, 57, 0
15, 63960, Note_on_c, 11, 57, 76
15, 63960, Note_on_c, 11, 65, 76
15, 64071, Note_on_c, 11, 57, 0
15, 64071, Note_on_c, 11, 65, 0
15, 64080, Note_on_c, 11, 58, 76
15, 64135, Note_on_c, 11, 58, 0
15, 64140, Note_on_c, 11, 70, 76
15, 64199, Note_on_c, 11, 70, 0
15, 64200, Note_on_c, 11, 69, 76
15, 64259, Note_on_c, 11, 69, 0
15, 64260, Note_on_c, 11, 70, 76
15, 64319, Note_on_c, 11, 70, 0
15, 64320, Note_on_c, 11, 62, 76
15, 64379, Note_on_c, 11, 62, 0
15, 64380, Note_on_c, 11, 70, 76
15, 64439, Note_on_c, 11, 70, 0
15, 64440, Note_on_c, 11, 63, 76
15, 64499, Note_on_c, 11, 63, 0
15, 64500, Note_on_c, 11, 70, 76
15, 64559, Note_on_c, 11, 70, 0
15, 64560, Note_on_c, 11, 63, 76
15, 64619, Note_on_c, 11, 63, 0
15, 64620, Note_on_c, 11, 70, 76
15, 64679, Note_on_c, 11, 70, 0
15, 64680, Note_on_c, 11, 65, 76
15, 64739, Note_on_c, 11, 65, 0
15, 64740, Note_on_c, 11, 70, 76
15, 64795, Note_on_c, 11, 70, 0
15, 64800, Note_on_c, 11, 67, 80
15, 64859, Note_on_c, 11, 67, 0
15, 64860, Note_on_c, 11, 70, 80
15, 64919, Note_on_c, 11, 70, 0
15, 64920, Note_on_c, 11, 67, 80
15, 64979, Note_on_c, 11, 67, 0
15, 64980, Note_on_c, 11, 70, 80
15, 65039, Note_on_c, 11, 70, 0
15, 65040, Note_on_c, 11, 67, 80
15, 65099, Note_on_c, 11, 67, 0
15, 65100, Note_on_c, 11, 70, 80
15, 65155, Note_on_c, 11, 70, 0
15, 65160, Note_on_c, 11, 67, 80
15, 65219, Note_on_c, 11, 67, 0
15, 65220, Note_on_c, 11, 70, 80
15, 65279, Note_on_c, 11, 70, 0
15, 65280, Note_on_c, 11, 67, 80
15, 65339, Note_on_c, 11, 67, 0
15, 65340, Note_on_c, 11, 70, 80
15, 65399, Note_on_c, 11, 70, 0
15, 65400, Note_on_c, 11, 67, 80
15, 65459, Note_on_c, 11, 67, 0
15, 65460, Note_on_c, 11, 70, 80
15, 65515, Note_on_c, 11, 70, 0
15, 65520, Note_on_c, 11, 65, 80
15, 65579, Note_on_c, 11, 65, 0
15, 65580, Note_on_c, 11, 70, 80
15, 65639, Note_on_c, 11, 70, 0
15, 65640, Note_on_c, 11, 65, 80
15, 65699, Note_on_c, 11, 65, 0
15, 65700, Note_on_c, 11, 70, 80
15, 65759, Note_on_c, 11, 70, 0
15, 65760, Note_on_c, 11, 65, 80
15, 65819, Note_on_c, 11, 65, 0
15, 65820, Note_on_c, 11, 70, 80
15, 65875, Note_on_c, 11, 70, 0
15, 65880, Note_on_c, 11, 65, 80
15, 65939, Note_on_c, 11, 65, 0
15, 65940, Note_on_c, 11, 70, 80
15, 65999, Note_on_c, 11, 70, 0
15, 66000, Note_on_c, 11, 65, 80
15, 66059, Note_on_c, 11, 65, 0
15, 66060, Note_on_c, 11, 70, 80
15, 66119, Note_on_c, 11, 70, 0
15, 66120, Note_on_c, 11, 65, 80
15, 66179, Note_on_c, 11, 65, 0
15, 66180, Note_on_c, 11, 70, 80
15, 66235, Note_on_c, 11, 70, 0
15, 66240, Note_on_c, 11, 64, 84
15, 66299, Note_on_c, 11, 64, 0
15, 66300, Note_on_c, 11, 61, 84
15, 66359, Note_on_c, 11, 61, 0
15, 66360, Note_on_c, 11, 58, 84
15, 66419, Note_on_c, 11, 58, 0
15, 66420, Note_on_c, 11, 61, 84
15, 66479, Note_on_c, 11, 61, 0
15, 66480, Note_on_c, 11, 58, 84
15, 66539, Note_on_c, 11, 58, 0
15, 66540, Note_on_c, 11, 61, 84
15, 66595, Note_on_c, 11, 61, 0
15, 66600, Note_on_c, 11, 58, 84
15, 66659, Note_on_c, 11, 58, 0
15, 66660, Note_on_c, 11, 61, 84
15, 66719, Note_on_c, 11, 61, 0
15, 66720, Note_on_c, 11, 58, 84
15, 66779, Note_on_c, 11, 58, 0
15, 66780, Note_on_c, 11, 61, 84
15, 66839, Note_on_c, 11, 61, 0
15, 66840, Note_on_c, 11, 58, 84
15, 66899, Note_on_c, 11, 58, 0
15, 66900, Note_on_c, 11, 61, 84
15, 66955, Note_on_c, 11, 61, 0
15, 66960, Note_on_c, 11, 61, 84
15, 67019, Note_on_c, 11, 61, 0
15, 67020, Note_on_c, 11, 65, 81
15, 67079, Note_on_c, 11, 65, 0
15, 67080, Note_on_c, 11, 61, 78
15, 67139, Note_on_c, 11, 61, 0
15, 67140, Note_on_c, 11, 65, 74
15, 67199, Note_on_c, 11, 65, 0
15, 67200, Note_on_c, 11, 61, 71
15, 67259, Note_on_c, 11, 61, 0
15, 67260, Note_on_c, 11, 65, 68
15, 67315, Note_on_c, 11, 65, 0
15, 67320, Note_on_c, 11, 60, 64
15, 67379, Note_on_c, 11, 60, 0
15, 67380, Note_on_c, 11, 66, 61
15, 67439, Note_on_c, 11, 66, 0
15, 67440, Note_on_c, 11, 60, 58
15, 67499, Note_on_c, 11, 60, 0
15, 67500, Note_on_c, 11, 66, 54
15, 67559, Note_on_c, 11, 66, 0
15, 67560, Note_on_c, 11, 60, 51
15, 67619, Note_on_c, 11, 60, 0
15, 67620, Note_on_c, 11, 66, 48
15, 67675, Note_on_c, 11, 66, 0
15, 67680, Note_on_c, 11, 61, 44
15, 67739, Note_on_c, 11, 61, 0
15, 67740, Note_on_c, 11, 65, 44
15, 67799, Note_on_c, 11, 65, 0
15, 67800, Note_on_c, 11, 61, 44
15, 67859, Note_on_c, 11, 61, 0
15, 67860, Note_on_c, 11, 65, 44
15, 67919, Note_on_c, 11, 65, 0
15, 67920, Note_on_c, 11, 61, 44
15, 67979, Note_on_c, 11, 61, 0
15, 67980, Note_on_c, 11, 65, 44
15, 68039, Note_on_c, 11, 65, 0
15, 68040, Note_on_c, 11, 61, 44
15, 68099, Note_on_c, 11, 61, 0
15, 68100, Note_on_c, 11, 65, 44
15, 68159, Note_on_c, 11, 65, 0
15, 68160, Note_on_c, 11, 61, 44
15, 68219, Note_on_c, 11, 61, 0
15, 68220, Note_on_c, 11, 65, 44
15, 68279, Note_on_c, 11, 65, 0
15, 68280, Note_on_c, 11, 61, 44
15, 68339, Note_on_c, 11, 61, 0
15, 68340, Note_on_c, 11, 65, 44
15, 68395, Note_on_c, 11, 65, 0
15, 68400, Note_on_c, 11, 63, 44
15, 68459, Note_on_c, 11, 63, 0
15, 68460, Note_on_c, 11, 65, 44
15, 68519, Note_on_c, 11, 65, 0
15, 68520, Note_on_c, 11, 63, 44
15, 68579, Note_on_c, 11, 63, 0
15, 68580, Note_on_c, 11, 65, 44
15, 68639, Note_on_c, 11, 65, 0
15, 68640, Note_on_c, 11, 63, 44
15, 68699, Note_on_c, 11, 63, 0
15, 68700, Note_on_c, 11, 65, 44
15, 68759, Note_on_c, 11, 65, 0
15, 68760, Note_on_c, 11, 63, 44
15, 68819, Note_on_c, 11, 63, 0
15, 68820, Note_on_c, 11, 65, 44
15, 68879, Note_on_c, 11, 65, 0
15, 68880, Note_on_c, 11, 63, 44
15, 68939, Note_on_c, 11, 63, 0
15, 68940, Note_on_c, 11, 65, 44
15, 68999, Note_on_c, 11, 65, 0
15, 69000, Note_on_c, 11, 63, 44
15, 69059, Note_on_c, 11, 63, 0
15, 69060, Note_on_c, 11, 65, 44
15, 69115, Note_on_c, 11, 65, 0
15, 69120, Note_on_c, 11, 61, 44
15, 69179, Note_on_c, 11, 61, 0
15, 69180, Note_on_c, 11, 65, 44
15, 69239, Note_on_c, 11, 65, 0
15, 69240, Note_on_c, 11, 61, 44
15, 69299, Note_on_c, 11, 61, 0
15, 69300, Note_on_c, 11, 65, 44
15, 69359, Note_on_c, 11, 65, 0
15, 69360, Note_on_c, 11, 61, 44
15, 69419, Note_on_c, 11, 61, 0
15, 69420, Note_on_c, 11, 65, 44
15, 69479, Note_on_c, 11, 65, 0
15, 69480, Note_on_c, 11, 61, 44
15, 69539, Note_on_c, 11, 61, 0
15, 69540, Note_on_c, 11, 65, 44
15, 69599, Note_on_c, 11, 65, 0
15, 69600, Note_on_c, 11, 61, 44
15, 69659, Note_on_c, 11, 61, 0
15, 69660, Note_on_c, 11, 65, 44
15, 69719, Note_on_c, 11, 65, 0
15, 69720, Note_on_c, 11, 61, 44
15, 69779, Note_on_c, 11, 61, 0
15, 69780, Note_on_c, 11, 65, 44
15, 69835, Note_on_c, 11, 65, 0
15, 69840, Note_on_c, 11, 62, 44
15, 69899, Note_on_c, 11, 62, 0
15, 69900, Note_on_c, 11, 65, 44
15, 69959, Note_on_c, 11, 65, 0
15, 69960, Note_on_c, 11, 62, 44
15, 70019, Note_on_c, 11, 62, 0
15, 70020, Note_on_c, 11, 65, 44
15, 70079, Note_on_c, 11, 65, 0
15, 70080, Note_on_c, 11, 62, 44
15, 70139, Note_on_c, 11, 62, 0
15, 70140, Note_on_c, 11, 65, 44
15, 70199, Note_on_c, 11, 65, 0
15, 70200, Note_on_c, 11, 62, 44
15, 70259, Note_on_c, 11, 62, 0
15, 70260, Note_on_c, 11, 65, 44
15, 70319, Note_on_c, 11, 65, 0
15, 70320, Note_on_c, 11, 62, 44
15, 70379, Note_on_c, 11, 62, 0
15, 70380, Note_on_c, 11, 65, 44
15, 70439, Note_on_c, 11, 65, 0
15, 70440, Note_on_c, 11, 62, 44
15, 70499, Note_on_c, 11, 62, 0
15, 70500, Note_on_c, 11, 65, 44
15, 70555, Note_on_c, 11, 65, 0
15, 70560, Note_on_c, 11, 60, 52
15, 70619, Note_on_c, 11, 60, 0
15, 70620, Note_on_c, 11, 62, 52
15, 70675, Note_on_c, 11, 62, 0
15, 70680, Note_on_c, 11, 64, 52
15, 70724, Note_on_c, 11, 64, 0
15, 70740, Note_on_c, 11, 65, 52
15, 70784, Note_on_c, 11, 65, 0
15, 70800, Note_on_c, 11, 67, 52
15, 70844, Note_on_c, 11, 67, 0
15, 70860, Note_on_c, 11, 66, 52
15, 70904, Note_on_c, 11, 66, 0
15, 70920, Note_on_c, 11, 69, 52
15, 70964, Note_on_c, 11, 69, 0
15, 70980, Note_on_c, 11, 67, 52
15, 71024, Note_on_c, 11, 67, 0
15, 71040, Note_on_c, 11, 65, 52
15, 71084, Note_on_c, 11, 65, 0
15, 71100, Note_on_c, 11, 64, 52
15, 71144, Note_on_c, 11, 64, 0
15, 71160, Note_on_c, 11, 62, 52
15, 71204, Note_on_c, 11, 62, 0
15, 71220, Note_on_c, 11, 60, 52
15, 71264, Note_on_c, 11, 60, 0
15, 71280, Note_on_c, 11, 59, 52
15, 71339, Note_on_c, 11, 59, 0
15, 71340, Note_on_c, 11, 60, 52
15, 71395, Note_on_c, 11, 60, 0
15, 71400, Note_on_c, 11, 62, 52
15, 71444, Note_on_c, 11, 62, 0
15, 71460, Note_on_c, 11, 64, 52
15, 71504, Note_on_c, 11, 64, 0
15, 71520, Note_on_c, 11, 65, 52
15, 71564, Note_on_c, 11, 65, 0
15, 71580, Note_on_c, 11, 64, 52
15, 71624, Note_on_c, 11, 64, 0
15, 71640, Note_on_c, 11, 67, 52
15, 71684, Note_on_c, 11, 67, 0
15, 71700, Note_on_c, 11, 65, 52
15, 71744, Note_on_c, 11, 65, 0
15, 71760, Note_on_c, 11, 64, 52
15, 71804, Note_on_c, 11, 64, 0
15, 71820, Note_on_c, 11, 62, 52
15, 71864, Note_on_c, 11, 62, 0
15, 71880, Note_on_c, 11, 60, 52
15, 71924, Note_on_c, 11, 60, 0
15, 71940, Note_on_c, 11, 59, 52
15, 71984, Note_on_c, 11, 59, 0
15, 72000, Note_on_c, 11, 59, 76
15, 72059, Note_on_c, 11, 59, 0
15, 72060, Note_on_c, 11, 60, 76
15, 72119, Note_on_c, 11, 60, 0
15, 72120, Note_on_c, 11, 62, 76
15, 72164, Note_on_c, 11, 62, 0
15, 72180, Note_on_c, 11, 64, 76
15, 72224, Note_on_c, 11, 64, 0
15, 72240, Note_on_c, 11, 65, 76
15, 72284, Note_on_c, 11, 65, 0
15, 72300, Note_on_c, 11, 64, 76
15, 72344, Note_on_c, 11, 64, 0
15, 72360, Note_on_c, 11, 67, 84
15, 72404, Note_on_c, 11, 67, 0
15, 72420, Note_on_c, 11, 65, 76
15, 72464, Note_on_c, 11, 65, 0
15, 72480, Note_on_c, 11, 64, 76
15, 72524, Note_on_c, 11, 64, 0
15, 72540, Note_on_c, 11, 62, 76
15, 72584, Note_on_c, 11, 62, 0
15, 72600, Note_on_c, 11, 60, 76
15, 72644, Note_on_c, 11, 60, 0
15, 72660, Note_on_c, 11, 59, 76
15, 72704, Note_on_c, 11, 59, 0
15, 72720, Note_on_c, 11, 60, 76
15, 72779, Note_on_c, 11, 60, 0
15, 72780, Note_on_c, 11, 62, 76
15, 72839, Note_on_c, 11, 62, 0
15, 72840, Note_on_c, 11, 64, 76
15, 72884, Note_on_c, 11, 64, 0
15, 72900, Note_on_c, 11, 65, 76
15, 72944, Note_on_c, 11, 65, 0
15, 72960, Note_on_c, 11, 67, 76
15, 73004, Note_on_c, 11, 67, 0
15, 73020, Note_on_c, 11, 66, 76
15, 73064, Note_on_c, 11, 66, 0
15, 73080, Note_on_c, 11, 69, 84
15, 73124, Note_on_c, 11, 69, 0
15, 73140, Note_on_c, 11, 67, 76
15, 73184, Note_on_c, 11, 67, 0
15, 73200, Note_on_c, 11, 65, 76
15, 73244, Note_on_c, 11, 65, 0
15, 73260, Note_on_c, 11, 64, 76
15, 73304, Note_on_c, 11, 64, 0
15, 73320, Note_on_c, 11, 62, 76
15, 73364, Note_on_c, 11, 62, 0
15, 73380, Note_on_c, 11, 60, 76
15, 73424, Note_on_c, 11, 60, 0
15, 73440, Note_on_c, 11, 60, 52
15, 73499, Note_on_c, 11, 60, 0
15, 73500, Note_on_c, 11, 62, 52
15, 73555, Note_on_c, 11, 62, 0
15, 73560, Note_on_c, 11, 64, 52
15, 73604, Note_on_c, 11, 64, 0
15, 73620, Note_on_c, 11, 65, 52
15, 73664, Note_on_c, 11, 65, 0
15, 73680, Note_on_c, 11, 67, 52
15, 73724, Note_on_c, 11, 67, 0
15, 73740, Note_on_c, 11, 66, 52
15, 73784, Note_on_c, 11, 66, 0
15, 73800, Note_on_c, 11, 69, 52
15, 73844, Note_on_c, 11, 69, 0
15, 73860, Note_on_c, 11, 67, 52
15, 73904, Note_on_c, 11, 67, 0
15, 73920, Note_on_c, 11, 65, 52
15, 73964, Note_on_c, 11, 65, 0
15, 73980, Note_on_c, 11, 64, 52
15, 74024, Note_on_c, 11, 64, 0
15, 74040, Note_on_c, 11, 62, 52
15, 74084, Note_on_c, 11, 62, 0
15, 74100, Note_on_c, 11, 60, 52
15, 74144, Note_on_c, 11, 60, 0
15, 74160, Note_on_c, 11, 59, 52
15, 74219, Note_on_c, 11, 59, 0
15, 74220, Note_on_c, 11, 60, 52
15, 74275, Note_on_c, 11, 60, 0
15, 74280, Note_on_c, 11, 62, 52
15, 74324, Note_on_c, 11, 62, 0
15, 74340, Note_on_c, 11, 64, 52
15, 74384, Note_on_c, 11, 64, 0
15, 74400, Note_on_c, 11, 65, 52
15, 74444, Note_on_c, 11, 65, 0
15, 74460, Note_on_c, 11, 64, 52
15, 74504, Note_on_c, 11, 64, 0
15, 74520, Note_on_c, 11, 67, 52
15, 74564, Note_on_c, 11, 67, 0
15, 74580, Note_on_c, 11, 65, 52
15, 74624, Note_on_c, 11, 65, 0
15, 74640, Note_on_c, 11, 64, 52
15, 74684, Note_on_c, 11, 64, 0
15, 74700, Note_on_c, 11, 62, 52
15, 74744, Note_on_c, 11, 62, 0
15, 74760, Note_on_c, 11, 60, 52
15, 74804, Note_on_c, 11, 60, 0
15, 74820, Note_on_c, 11, 59, 52
15, 74864, Note_on_c, 11, 59, 0
15, 74880, Note_on_c, 11, 59, 76
15, 74939, Note_on_c, 11, 59, 0
15, 74940, Note_on_c, 11, 60, 76
15, 74999, Note_on_c, 11, 60, 0
15, 75000, Note_on_c, 11, 62, 76
15, 75044, Note_on_c, 11, 62, 0
15, 75060, Note_on_c, 11, 64, 76
15, 75104, Note_on_c, 11, 64, 0
15, 75120, Note_on_c, 11, 65, 76
15, 75164, Note_on_c, 11, 65, 0
15, 75180, Note_on_c, 11, 64, 76
15, 75224, Note_on_c, 11, 64, 0
15, 75240, Note_on_c, 11, 67, 84
15, 75284, Note_on_c, 11, 67, 0
15, 75300, Note_on_c, 11, 65, 76
15, 75344, Note_on_c, 11, 65, 0
15, 75360, Note_on_c, 11, 64, 76
15, 75404, Note_on_c, 11, 64, 0
15, 75420, Note_on_c, 11, 62, 76
15, 75464, Note_on_c, 11, 62, 0
15, 75480, Note_on_c, 11, 60, 76
15, 75524, Note_on_c, 11, 60, 0
15, 75540, Note_on_c, 11, 59, 76
15, 75584, Note_on_c, 11, 59, 0
15, 75600, Note_on_c, 11, 60, 76
15, 75659, Note_on_c, 11, 60, 0
15, 75660, Note_on_c, 11, 62, 76
15, 75719, Note_on_c, 11, 62, 0
15, 75720, Note_on_c, 11, 64, 76
15, 75764, Note_on_c, 11, 64, 0
15, 75780, Note_on_c, 11, 65, 76
15, 75824, Note_on_c, 11, 65, 0
15, 75840, Note_on_c, 11, 67, 76
15, 75884, Note_on_c, 11, 67, 0
15, 75900, Note_on_c, 11, 66, 76
15, 75944, Note_on_c, 11, 66, 0
15, 75960, Note_on_c, 11, 69, 84
15, 76004, Note_on_c, 11, 69, 0
15, 76020, Note_on_c, 11, 67, 76
15, 76064, Note_on_c, 11, 67, 0
15, 76080, Note_on_c, 11, 65, 76
15, 76124, Note_on_c, 11, 65, 0
15, 76140, Note_on_c, 11, 64, 76
15, 76184, Note_on_c, 11, 64, 0
15, 76200, Note_on_c, 11, 62, 76
15, 76244, Note_on_c, 11, 62, 0
15, 76260, Note_on_c, 11, 60, 76
15, 76304, Note_on_c, 11, 60, 0
15, 76320, Note_on_c, 11, 60, 84
15, 76379, Note_on_c, 11, 60, 0
15, 76380, Note_on_c, 11, 62, 84
15, 76435, Note_on_c, 11, 62, 0
15, 76440, Note_on_c, 11, 64, 84
15, 76484, Note_on_c, 11, 64, 0
15, 76500, Note_on_c, 11, 65, 84
15, 76544, Note_on_c, 11, 65, 0
15, 76560, Note_on_c, 11, 67, 84
15, 76604, Note_on_c, 11, 67, 0
15, 76620, Note_on_c, 11, 66, 84
15, 76664, Note_on_c, 11, 66, 0
15, 76680, Note_on_c, 11, 69, 92
15, 76724, Note_on_c, 11, 69, 0
15, 76740, Note_on_c, 11, 67, 84
15, 76784, Note_on_c, 11, 67, 0
15, 76800, Note_on_c, 11, 65, 84
15, 76844, Note_on_c, 11, 65, 0
15, 76860, Note_on_c, 11, 64, 84
15, 76904, Note_on_c, 11, 64, 0
15, 76920, Note_on_c, 11, 62, 84
15, 76964, Note_on_c, 11, 62, 0
15, 76980, Note_on_c, 11, 60, 84
15, 77024, Note_on_c, 11, 60, 0
15, 77040, Note_on_c, 11, 60, 84
15, 77099, Note_on_c, 11, 60, 0
15, 77100, Note_on_c, 11, 62, 84
15, 77155, Note_on_c, 11, 62, 0
15, 77160, Note_on_c, 11, 64, 84
15, 77204, Note_on_c, 11, 64, 0
15, 77220, Note_on_c, 11, 65, 84
15, 77264, Note_on_c, 11, 65, 0
15, 77280, Note_on_c, 11, 67, 84
15, 77324, Note_on_c, 11, 67, 0
15, 77340, Note_on_c, 11, 66, 84
15, 77384, Note_on_c, 11, 66, 0
15, 77400, Note_on_c, 11, 69, 92
15, 77444, Note_on_c, 11, 69, 0
15, 77460, Note_on_c, 11, 67, 84
15, 77504, Note_on_c, 11, 67, 0
15, 77520, Note_on_c, 11, 65, 84
15, 77564, Note_on_c, 11, 65, 0
15, 77580, Note_on_c, 11, 64, 84
15, 77624, Note_on_c, 11, 64, 0
15, 77640, Note_on_c, 11, 62, 84
15, 77684, Note_on_c, 11, 62, 0
15, 77700, Note_on_c, 11, 60, 84
15, 77744, Note_on_c, 11, 60, 0
15, 77760, Note_on_c, 11, 60, 84
15, 77819, Note_on_c, 11, 60, 0
15, 77820, Note_on_c, 11, 62, 83
15, 77875, Note_on_c, 11, 62, 0
15, 77880, Note_on_c, 11, 64, 82
15, 77924, Note_on_c, 11, 64, 0
15, 77940, Note_on_c, 11, 65, 80
15, 77984, Note_on_c, 11, 65, 0
15, 78000, Note_on_c, 11, 67, 79
15, 78044, Note_on_c, 11, 67, 0
15, 78060, Note_on_c, 11, 66, 78
15, 78104, Note_on_c, 11, 66, 0
15, 78120, Note_on_c, 11, 69, 76
15, 78164, Note_on_c, 11, 69, 0
15, 78180, Note_on_c, 11, 67, 75
15, 78224, Note_on_c, 11, 67, 0
15, 78240, Note_on_c, 11, 65, 74
15, 78284, Note_on_c, 11, 65, 0
15, 78300, Note_on_c, 11, 64, 72
15, 78344, Note_on_c, 11, 64, 0
15, 78360, Note_on_c, 11, 62, 71
15, 78404, Note_on_c, 11, 62, 0
15, 78420, Note_on_c, 11, 60, 70
15, 78464, Note_on_c, 11, 60, 0
15, 80280, Note_on_c, 11, 69, 48
15, 80339, Note_on_c, 11, 69, 0
15, 80340, Note_on_c, 11, 67, 48
15, 80399, Note_on_c, 11, 67, 0
15, 80400, Note_on_c, 11, 65, 47
15, 80459, Note_on_c, 11, 65, 0
15, 80460, Note_on_c, 11, 64, 46
15, 80519, Note_on_c, 11, 64, 0
15, 80520, Note_on_c, 11, 62, 46
15, 80579, Note_on_c, 11, 62, 0
15, 80580, Note_on_c, 11, 60, 45
15, 80635, Note_on_c, 11, 60, 0
15, 80640, Note_on_c, 11, 69, 44
15, 80699, Note_on_c, 11, 69, 0
15, 80700, Note_on_c, 11, 67, 44
15, 80759, Note_on_c, 11, 67, 0
15, 80760, Note_on_c, 11, 65, 44
15, 80819, Note_on_c, 11, 65, 0
15, 80820, Note_on_c, 11, 64, 44
15, 80879, Note_on_c, 11, 64, 0
15, 80880, Note_on_c, 11, 62, 44
15, 80939, Note_on_c, 11, 62, 0
15, 80940, Note_on_c, 11, 60, 44
15, 80995, Note_on_c, 11, 60, 0
15, 81000, Note_on_c, 11, 69, 44
15, 81059, Note_on_c, 11, 69, 0
15, 81060, Note_on_c, 11, 67, 44
15, 81119, Note_on_c, 11, 67, 0
15, 81120, Note_on_c, 11, 65, 44
15, 81179, Note_on_c, 11, 65, 0
15, 81180, Note_on_c, 11, 64, 44
15, 81239, Note_on_c, 11, 64, 0
15, 81240, Note_on_c, 11, 62, 44
15, 81299, Note_on_c, 11, 62, 0
15, 81300, Note_on_c, 11, 60, 44
15, 81355, Note_on_c, 11, 60, 0
15, 81360, Note_on_c, 11, 69, 44
15, 81419, Note_on_c, 11, 69, 0
15, 81420, Note_on_c, 11, 67, 44
15, 81479, Note_on_c, 11, 67, 0
15, 81480, Note_on_c, 11, 65, 44
15, 81539, Note_on_c, 11, 65, 0
15, 81540, Note_on_c, 11, 64, 44
15, 81599, Note_on_c, 11, 64, 0
15, 81600, Note_on_c, 11, 62, 44
15, 81659, Note_on_c, 11, 62, 0
15, 81660, Note_on_c, 11, 60, 44
15, 81715, Note_on_c, 11, 60, 0
15, 81720, Note_on_c, 11, 72, 44
15, 81779, Note_on_c, 11, 72, 0
15, 81780, Note_on_c, 11, 70, 44
15, 81839, Note_on_c, 11, 70, 0
15, 81840, Note_on_c, 11, 69, 45
15, 81899, Note_on_c, 11, 69, 0
15, 81900, Note_on_c, 11, 67, 46
15, 81959, Note_on_c, 11, 67, 0
15, 81960, Note_on_c, 11, 65, 47
15, 82019, Note_on_c, 11, 65, 0
15, 82020, Note_on_c, 11, 64, 48
15, 82079, Note_on_c, 11, 64, 0
15, 82320, Program_c, 11, 45
15, 82440, Note_on_c, 11, 55, 48
15, 82440, Note_on_c, 11, 64, 48
15, 82440, Note_on_c, 11, 70, 48
15, 82679, Note_on_c, 11, 55, 0
15, 82679, Note_on_c, 11, 64, 0
15, 82679, Note_on_c, 11, 70, 0
15, 82920, Note_on_c, 11, 55, 48
15, 83039, Note_on_c, 11, 55, 0
15, 83040, Note_on_c, 11, 58, 48
15, 83159, Note_on_c, 11, 58, 0
15, 83160, Note_on_c, 11, 64, 48
15, 83279, Note_on_c, 11, 64, 0
15, 83280, Note_on_c, 11, 67, 48
15, 83399, Note_on_c, 11, 67, 0
15, 83400, Note_on_c, 11, 70, 48
15, 83519, Note_on_c, 11, 70, 0
15, 83520, Note_on_c, 11, 69, 48
15, 83759, Note_on_c, 11, 69, 0
15, 83760, Note_on_c, 11, 69, 48
15, 83879, Note_on_c, 11, 69, 0
15, 83880, Note_on_c, 11, 69, 48
15, 83999, Note_on_c, 11, 69, 0
15, 84000, Note_on_c, 11, 65, 48
15, 84119, Note_on_c, 11, 65, 0
15, 84120, Note_on_c, 11, 72, 48
15, 84239, Note_on_c, 11, 72, 0
15, 84480, Note_on_c, 11, 69, 48
15, 84599, Note_on_c, 11, 69, 0
15, 84600, Note_on_c, 11, 69, 48
15, 84719, Note_on_c, 11, 69, 0
15, 84720, Note_on_c, 11, 60, 48
15, 84839, Note_on_c, 11, 60, 0
15, 84840, Note_on_c, 11, 65, 48
15, 84959, Note_on_c, 11, 65, 0
15, 85200, Note_on_c, 11, 69, 48
15, 85319, Note_on_c, 11, 69, 0
15, 85320, Note_on_c, 11, 69, 48
15, 85439, Note_on_c, 11, 69, 0
15, 85440, Note_on_c, 11, 65, 48
15, 85559, Note_on_c, 11, 65, 0
15, 85560, Note_on_c, 11, 72, 48
15, 85679, Note_on_c, 11, 72, 0
15, 85920, Note_on_c, 11, 70, 48
15, 86039, Note_on_c, 11, 70, 0
15, 86040, Note_on_c, 11, 70, 48
15, 86159, Note_on_c, 11, 70, 0
15, 86160, Note_on_c, 11, 65, 48
15, 86279, Note_on_c, 11, 65, 0
15, 86280, Note_on_c, 11, 67, 48
15, 86399, Note_on_c, 11, 67, 0
15, 86640, Note_on_c, 11, 70, 48
15, 86759, Note_on_c, 11, 70, 0
15, 86760, Note_on_c, 11, 70, 48
15, 86879, Note_on_c, 11, 70, 0
15, 86880, Note_on_c, 11, 67, 48
15, 86999, Note_on_c, 11, 67, 0
15, 87000, Note_on_c, 11, 72, 48
15, 87119, Note_on_c, 11, 72, 0
15, 87360, Note_on_c, 11, 69, 48
15, 87479, Note_on_c, 11, 69, 0
15, 87480, Note_on_c, 11, 69, 48
15, 87599, Note_on_c, 11, 69, 0
15, 87600, Note_on_c, 11, 65, 48
15, 87719, Note_on_c, 11, 65, 0
15, 87720, Note_on_c, 11, 72, 48
15, 87839, Note_on_c, 11, 72, 0
15, 88080, Note_on_c, 11, 67, 48
15, 88199, Note_on_c, 11, 67, 0
15, 88200, Note_on_c, 11, 67, 48
15, 88319, Note_on_c, 11, 67, 0
15, 88320, Note_on_c, 11, 60, 48
15, 88439, Note_on_c, 11, 60, 0
15, 88440, Note_on_c, 11, 72, 48
15, 88559, Note_on_c, 11, 72, 0
15, 88560, Note_on_c, 11, 69, 48
15, 88799, Note_on_c, 11, 69, 0
15, 88920, Program_c, 11, 48
15, 89160, Note_on_c, 11, 60, 54
15, 89219, Note_on_c, 11, 60, 0
15, 89220, Note_on_c, 11, 65, 55
15, 89279, Note_on_c, 11, 65, 0
15, 89280, Note_on_c, 11, 69, 55
15, 89339, Note_on_c, 11, 69, 0
15, 89340, Note_on_c, 11, 70, 55
15, 89399, Note_on_c, 11, 70, 0
15, 89400, Note_on_c, 11, 69, 56
15, 89459, Note_on_c, 11, 69, 0
15, 89460, Note_on_c, 11, 67, 56
15, 89519, Note_on_c, 11, 67, 0
15, 89520, Note_on_c, 11, 65, 56
15, 89579, Note_on_c, 11, 65, 0
15, 89580, Note_on_c, 11, 64, 57
15, 89639, Note_on_c, 11, 64, 0
15, 89640, Note_on_c, 11, 65, 57
15, 89699, Note_on_c, 11, 65, 0
15, 89700, Note_on_c, 11, 67, 57
15, 89759, Note_on_c, 11, 67, 0
15, 89760, Note_on_c, 11, 69, 57
15, 89819, Note_on_c, 11, 69, 0
15, 89820, Note_on_c, 11, 70, 58
15, 89879, Note_on_c, 11, 70, 0
15, 89880, Note_on_c, 11, 72, 58
15, 89939, Note_on_c, 11, 72, 0
15, 89940, Note_on_c, 11, 70, 58
15, 89999, Note_on_c, 11, 70, 0
15, 90000, Note_on_c, 11, 69, 59
15, 90059, Note_on_c, 11, 69, 0
15, 90060, Note_on_c, 11, 70, 59
15, 90119, Note_on_c, 11, 70, 0
15, 90120, Note_on_c, 11, 69, 59
15, 90179, Note_on_c, 11, 69, 0
15, 90180, Note_on_c, 11, 67, 60
15, 90239, Note_on_c, 11, 67, 0
15, 90240, Note_on_c, 11, 65, 60
15, 90299, Note_on_c, 11, 65, 0
15, 90300, Note_on_c, 11, 64, 60
15, 90359, Note_on_c, 11, 64, 0
15, 90360, Note_on_c, 11, 65, 60
15, 90419, Note_on_c, 11, 65, 0
15, 90420, Note_on_c, 11, 64, 61
15, 90479, Note_on_c, 11, 64, 0
15, 90480, Note_on_c, 11, 65, 61
15, 90539, Note_on_c, 11, 65, 0
15, 90540, Note_on_c, 11, 60, 61
15, 90599, Note_on_c, 11, 60, 0
15, 90600, Note_on_c, 11, 62, 62
15, 90659, Note_on_c, 11, 62, 0
15, 90660, Note_on_c, 11, 64, 62
15, 90715, Note_on_c, 11, 64, 0
15, 90720, Note_on_c, 11, 65, 62
15, 90779, Note_on_c, 11, 65, 0
15, 90780, Note_on_c, 11, 67, 62
15, 90839, Note_on_c, 11, 67, 0
15, 90840, Note_on_c, 11, 65, 63
15, 90899, Note_on_c, 11, 65, 0
15, 90900, Note_on_c, 11, 64, 63
15, 90959, Note_on_c, 11, 64, 0
15, 90960, Note_on_c, 11, 65, 63
15, 91019, Note_on_c, 11, 65, 0
15, 91020, Note_on_c, 11, 67, 64
15, 91079, Note_on_c, 11, 67, 0
15, 91080, Note_on_c, 11, 69, 64
15, 91139, Note_on_c, 11, 69, 0
15, 91140, Note_on_c, 11, 70, 64
15, 91199, Note_on_c, 11, 70, 0
15, 91200, Note_on_c, 11, 72, 65
15, 91259, Note_on_c, 11, 72, 0
15, 91260, Note_on_c, 11, 71, 65
15, 91319, Note_on_c, 11, 71, 0
15, 91320, Note_on_c, 11, 72, 65
15, 91379, Note_on_c, 11, 72, 0
15, 91380, Note_on_c, 11, 69, 65
15, 91439, Note_on_c, 11, 69, 0
15, 91440, Note_on_c, 11, 70, 66
15, 91499, Note_on_c, 11, 70, 0
15, 91500, Note_on_c, 11, 72, 66
15, 91559, Note_on_c, 11, 72, 0
15, 91560, Note_on_c, 11, 74, 66
15, 91619, Note_on_c, 11, 74, 0
15, 91620, Note_on_c, 11, 72, 67
15, 91679, Note_on_c, 11, 72, 0
15, 91680, Note_on_c, 11, 70, 67
15, 91739, Note_on_c, 11, 70, 0
15, 91740, Note_on_c, 11, 72, 67
15, 91799, Note_on_c, 11, 72, 0
15, 91800, Note_on_c, 11, 70, 68
15, 91859, Note_on_c, 11, 70, 0
15, 91860, Note_on_c, 11, 72, 68
15, 91919, Note_on_c, 11, 72, 0
15, 91920, Note_on_c, 11, 70, 68
15, 91979, Note_on_c, 11, 70, 0
15, 91980, Note_on_c, 11, 69, 68
15, 92039, Note_on_c, 11, 69, 0
15, 92040, Note_on_c, 11, 67, 69
15, 92099, Note_on_c, 11, 67, 0
15, 92100, Note_on_c, 11, 69, 69
15, 92155, Note_on_c, 11, 69, 0
15, 92160, Note_on_c, 11, 70, 69
15, 92219, Note_on_c, 11, 70, 0
15, 92220, Note_on_c, 11, 72, 70
15, 92279, Note_on_c, 11, 72, 0
15, 92280, Note_on_c, 11, 70, 70
15, 92339, Note_on_c, 11, 70, 0
15, 92340, Note_on_c, 11, 69, 70
15, 92399, Note_on_c, 11, 69, 0
15, 92400, Note_on_c, 11, 67, 70
15, 92459, Note_on_c, 11, 67, 0
15, 92460, Note_on_c, 11, 66, 71
15, 92519, Note_on_c, 11, 66, 0
15, 92520, Note_on_c, 11, 67, 71
15, 92579, Note_on_c, 11, 67, 0
15, 92580, Note_on_c, 11, 69, 71
15, 92639, Note_on_c, 11, 69, 0
15, 92640, Note_on_c, 11, 70, 72
15, 92699, Note_on_c, 11, 70, 0
15, 92700, Note_on_c, 11, 71, 72
15, 92759, Note_on_c, 11, 71, 0
15, 92760, Note_on_c, 11, 72, 72
15, 92819, Note_on_c, 11, 72, 0
15, 92820, Note_on_c, 11, 70, 73
15, 92879, Note_on_c, 11, 70, 0
15, 92880, Note_on_c, 11, 69, 73
15, 92939, Note_on_c, 11, 69, 0
15, 92940, Note_on_c, 11, 70, 73
15, 92999, Note_on_c, 11, 70, 0
15, 93000, Note_on_c, 11, 69, 73
15, 93059, Note_on_c, 11, 69, 0
15, 93060, Note_on_c, 11, 67, 74
15, 93119, Note_on_c, 11, 67, 0
15, 93120, Note_on_c, 11, 69, 74
15, 93179, Note_on_c, 11, 69, 0
15, 93180, Note_on_c, 11, 67, 74
15, 93239, Note_on_c, 11, 67, 0
15, 93240, Note_on_c, 11, 65, 75
15, 93299, Note_on_c, 11, 65, 0
15, 93300, Note_on_c, 11, 67, 75
15, 93359, Note_on_c, 11, 67, 0
15, 93360, Note_on_c, 11, 65, 75
15, 93419, Note_on_c, 11, 65, 0
15, 93420, Note_on_c, 11, 64, 76
15, 93479, Note_on_c, 11, 64, 0
15, 93480, Note_on_c, 11, 65, 76
15, 93539, Note_on_c, 11, 65, 0
15, 93540, Note_on_c, 11, 69, 76
15, 93595, Note_on_c, 11, 69, 0
15, 93600, Note_on_c, 11, 69, 76
15, 93659, Note_on_c, 11, 69, 0
15, 93660, Note_on_c, 11, 67, 77
15, 93719, Note_on_c, 11, 67, 0
15, 93720, Note_on_c, 11, 65, 77
15, 93779, Note_on_c, 11, 65, 0
15, 93780, Note_on_c, 11, 67, 77
15, 93839, Note_on_c, 11, 67, 0
15, 93840, Note_on_c, 11, 62, 78
15, 93899, Note_on_c, 11, 62, 0
15, 93900, Note_on_c, 11, 67, 78
15, 93955, Note_on_c, 11, 67, 0
15, 93960, Note_on_c, 11, 65, 78
15, 94019, Note_on_c, 11, 65, 0
15, 94020, Note_on_c, 11, 64, 78
15, 94079, Note_on_c, 11, 64, 0
15, 94080, Note_on_c, 11, 62, 79
15, 94139, Note_on_c, 11, 62, 0
15, 94140, Note_on_c, 11, 64, 79
15, 94199, Note_on_c, 11, 64, 0
15, 94200, Note_on_c, 11, 60, 79
15, 94259, Note_on_c, 11, 60, 0
15, 94260, Note_on_c, 11, 64, 80
15, 94315, Note_on_c, 11, 64, 0
15, 94320, Note_on_c, 11, 60, 80
15, 94379, Note_on_c, 11, 60, 0
15, 94380, Note_on_c, 11, 65, 80
15, 94439, Note_on_c, 11, 65, 0
15, 94440, Note_on_c, 11, 60, 81
15, 94499, Note_on_c, 11, 60, 0
15, 94500, Note_on_c, 11, 58, 81
15, 94559, Note_on_c, 11, 58, 0
15, 94560, Note_on_c, 11, 57, 81
15, 94619, Note_on_c, 11, 57, 0
15, 94620, Note_on_c, 11, 58, 81
15, 94679, Note_on_c, 11, 58, 0
15, 94680, Note_on_c, 11, 60, 82
15, 94739, Note_on_c, 11, 60, 0
15, 94740, Note_on_c, 11, 62, 82
15, 94799, Note_on_c, 11, 62, 0
15, 94800, Note_on_c, 11, 64, 82
15, 94859, Note_on_c, 11, 64, 0
15, 94860, Note_on_c, 11, 65, 83
15, 94919, Note_on_c, 11, 65, 0
15, 94920, Note_on_c, 11, 67, 83
15, 94979, Note_on_c, 11, 67, 0
15, 94980, Note_on_c, 11, 69, 83
15, 95035, Note_on_c, 11, 69, 0
15, 95040, Note_on_c, 11, 81, 84
15, 95040, Note_on_c, 11, 72, 84
15, 95075, Note_on_c, 11, 81, 0
15, 95075, Note_on_c, 11, 72, 0
15, 95080, Note_on_c, 11, 81, 84
15, 95080, Note_on_c, 11, 72, 84
15, 95115, Note_on_c, 11, 81, 0
15, 95115, Note_on_c, 11, 72, 0
15, 95120, Note_on_c, 11, 81, 84
15, 95120, Note_on_c, 11, 72, 84
15, 95155, Note_on_c, 11, 81, 0
15, 95155, Note_on_c, 11, 72, 0
15, 95160, Note_on_c, 11, 81, 84
15, 95160, Note_on_c, 11, 72, 84
15, 95195, Note_on_c, 11, 81, 0
15, 95195, Note_on_c, 11, 72, 0
15, 95200, Note_on_c, 11, 72, 84
15, 95200, Note_on_c, 11, 81, 84
15, 95235, Note_on_c, 11, 72, 0
15, 95235, Note_on_c, 11, 81, 0
15, 95240, Note_on_c, 11, 72, 84
15, 95240, Note_on_c, 11, 81, 84
15, 95275, Note_on_c, 11, 72, 0
15, 95275, Note_on_c, 11, 81, 0
15, 95280, Note_on_c, 11, 72, 84
15, 95280, Note_on_c, 11, 81, 84
15, 95315, Note_on_c, 11, 72, 0
15, 95315, Note_on_c, 11, 81, 0
15, 95320, Note_on_c, 11, 72, 84
15, 95320, Note_on_c, 11, 81, 84
15, 95355, Note_on_c, 11, 72, 0
15, 95355, Note_on_c, 11, 81, 0
15, 95360, Note_on_c, 11, 72, 84
15, 95360, Note_on_c, 11, 81, 84
15, 95395, Note_on_c, 11, 72, 0
15, 95395, Note_on_c, 11, 81, 0
15, 95400, Note_on_c, 11, 81, 84
15, 95400, Note_on_c, 11, 72, 84
15, 95435, Note_on_c, 11, 81, 0
15, 95435, Note_on_c, 11, 72, 0
15, 95440, Note_on_c, 11, 72, 84
15, 95440, Note_on_c, 11, 81, 84
15, 95475, Note_on_c, 11, 72, 0
15, 95475, Note_on_c, 11, 81, 0
15, 95480, Note_on_c, 11, 72, 84
15, 95480, Note_on_c, 11, 81, 84
15, 95515, Note_on_c, 11, 72, 0
15, 95515, Note_on_c, 11, 81, 0
15, 95520, Note_on_c, 11, 81, 84
15, 95520, Note_on_c, 11, 72, 84
15, 95555, Note_on_c, 11, 81, 0
15, 95555, Note_on_c, 11, 72, 0
15, 95560, Note_on_c, 11, 81, 84
15, 95560, Note_on_c, 11, 72, 84
15, 95595, Note_on_c, 11, 81, 0
15, 95595, Note_on_c, 11, 72, 0
15, 95600, Note_on_c, 11, 72, 84
15, 95600, Note_on_c, 11, 81, 84
15, 95635, Note_on_c, 11, 72, 0
15, 95635, Note_on_c, 11, 81, 0
15, 95640, Note_on_c, 11, 81, 84
15, 95640, Note_on_c, 11, 72, 84
15, 95675, Note_on_c, 11, 81, 0
15, 95675, Note_on_c, 11, 72, 0
15, 95680, Note_on_c, 11, 81, 84
15, 95680, Note_on_c, 11, 72, 84
15, 95715, Note_on_c, 11, 81, 0
15, 95715, Note_on_c, 11, 72, 0
15, 95720, Note_on_c, 11, 72, 84
15, 95720, Note_on_c, 11, 81, 84
15, 95755, Note_on_c, 11, 72, 0
15, 95755, Note_on_c, 11, 81, 0
15, 95760, Note_on_c, 11, 81, 84
15, 95760, Note_on_c, 11, 72, 84
15, 95795, Note_on_c, 11, 81, 0
15, 95795, Note_on_c, 11, 72, 0
15, 95800, Note_on_c, 11, 81, 84
15, 95800, Note_on_c, 11, 72, 84
15, 95835, Note_on_c, 11, 81, 0
15, 95835, Note_on_c, 11, 72, 0
15, 95840, Note_on_c, 11, 72, 84
15, 95840, Note_on_c, 11, 81, 84
15, 95875, Note_on_c, 11, 72, 0
15, 95875, Note_on_c, 11, 81, 0
15, 95880, Note_on_c, 11, 72, 84
15, 95880, Note_on_c, 11, 81, 84
15, 95915, Note_on_c, 11, 72, 0
15, 95915, Note_on_c, 11, 81, 0
15, 95920, Note_on_c, 11, 72, 84
15, 95920, Note_on_c, 11, 81, 84
15, 95955, Note_on_c, 11, 72, 0
15, 95955, Note_on_c, 11, 81, 0
15, 95960, Note_on_c, 11, 72, 84
15, 95960, Note_on_c, 11, 81, 84
15, 95995, Note_on_c, 11, 72, 0
15, 95995, Note_on_c, 11, 81, 0
15, 96000, Note_on_c, 11, 72, 84
15, 96000, Note_on_c, 11, 81, 84
15, 96035, Note_on_c, 11, 72, 0
15, 96035, Note_on_c, 11, 81, 0
15, 96040, Note_on_c, 11, 81, 84
15, 96040, Note_on_c, 11, 72, 84
15, 96075, Note_on_c, 11, 81, 0
15, 96075, Note_on_c, 11, 72, 0
15, 96080, Note_on_c, 11, 81, 84
15, 96080, Note_on_c, 11, 72, 84
15, 96115, Note_on_c, 11, 81, 0
15, 96115, Note_on_c, 11, 72, 0
15, 96120, Note_on_c, 11, 81, 84
15, 96120, Note_on_c, 11, 72, 84
15, 96155, Note_on_c, 11, 81, 0
15, 96155, Note_on_c, 11, 72, 0
15, 96160, Note_on_c, 11, 72, 84
15, 96160, Note_on_c, 11, 81, 84
15, 96195, Note_on_c, 11, 72, 0
15, 96195, Note_on_c, 11, 81, 0
15, 96200, Note_on_c, 11, 81, 84
15, 96200, Note_on_c, 11, 72, 84
15, 96235, Note_on_c, 11, 81, 0
15, 96235, Note_on_c, 11, 72, 0
15, 96240, Note_on_c, 11, 81, 84
15, 96240, Note_on_c, 11, 72, 84
15, 96275, Note_on_c, 11, 81, 0
15, 96275, Note_on_c, 11, 72, 0
15, 96280, Note_on_c, 11, 72, 84
15, 96280, Note_on_c, 11, 81, 84
15, 96315, Note_on_c, 11, 72, 0
15, 96315, Note_on_c, 11, 81, 0
15, 96320, Note_on_c, 11, 72, 84
15, 96320, Note_on_c, 11, 81, 84
15, 96355, Note_on_c, 11, 72, 0
15, 96355, Note_on_c, 11, 81, 0
15, 96360, Note_on_c, 11, 72, 84
15, 96360, Note_on_c, 11, 81, 84
15, 96395, Note_on_c, 11, 72, 0
15, 96395, Note_on_c, 11, 81, 0
15, 96400, Note_on_c, 11, 72, 84
15, 96400, Note_on_c, 11, 81, 84
15, 96435, Note_on_c, 11, 72, 0
15, 96435, Note_on_c, 11, 81, 0
15, 96440, Note_on_c, 11, 81, 84
15, 96440, Note_on_c, 11, 72, 84
15, 96475, Note_on_c, 11, 81, 0
15, 96475, Note_on_c, 11, 72, 0
15, 96480, Note_on_c, 11, 81, 84
15, 96480, Note_on_c, 11, 72, 84
15, 96515, Note_on_c, 11, 81, 0
15, 96515, Note_on_c, 11, 72, 0
15, 96520, Note_on_c, 11, 81, 84
15, 96520, Note_on_c, 11, 72, 84
15, 96555, Note_on_c, 11, 81, 0
15, 96555, Note_on_c, 11, 72, 0
15, 96560, Note_on_c, 11, 72, 84
15, 96560, Note_on_c, 11, 81, 84
15, 96595, Note_on_c, 11, 72, 0
15, 96595, Note_on_c, 11, 81, 0
15, 96600, Note_on_c, 11, 81, 84
15, 96600, Note_on_c, 11, 72, 84
15, 96635, Note_on_c, 11, 81, 0
15, 96635, Note_on_c, 11, 72, 0
15, 96640, Note_on_c, 11, 72, 84
15, 96640, Note_on_c, 11, 81, 84
15, 96675, Note_on_c, 11, 72, 0
15, 96675, Note_on_c, 11, 81, 0
15, 96680, Note_on_c, 11, 72, 84
15, 96680, Note_on_c, 11, 81, 84
15, 96715, Note_on_c, 11, 72, 0
15, 96715, Note_on_c, 11, 81, 0
15, 96720, Note_on_c, 11, 81, 84
15, 96720, Note_on_c, 11, 72, 84
15, 96755, Note_on_c, 11, 81, 0
15, 96755, Note_on_c, 11, 72, 0
15, 96760, Note_on_c, 11, 81, 84
15, 96760, Note_on_c, 11, 72, 84
15, 96795, Note_on_c, 11, 81, 0
15, 96795, Note_on_c, 11, 72, 0
15, 96800, Note_on_c, 11, 81, 84
15, 96800, Note_on_c, 11, 72, 84
15, 96835, Note_on_c, 11, 81, 0
15, 96835, Note_on_c, 11, 72, 0
15, 96840, Note_on_c, 11, 81, 84
15, 96840, Note_on_c, 11, 72, 84
15, 96875, Note_on_c, 11, 81, 0
15, 96875, Note_on_c, 11, 72, 0
15, 96880, Note_on_c, 11, 72, 84
15, 96880, Note_on_c, 11, 81, 84
15, 96915, Note_on_c, 11, 72, 0
15, 96915, Note_on_c, 11, 81, 0
15, 96920, Note_on_c, 11, 72, 84
15, 96920, Note_on_c, 11, 81, 84
15, 96955, Note_on_c, 11, 72, 0
15, 96955, Note_on_c, 11, 81, 0
15, 96960, Note_on_c, 11, 81, 84
15, 96960, Note_on_c, 11, 72, 84
15, 96995, Note_on_c, 11, 81, 0
15, 96995, Note_on_c, 11, 72, 0
15, 97000, Note_on_c, 11, 72, 84
15, 97000, Note_on_c, 11, 81, 84
15, 97035, Note_on_c, 11, 72, 0
15, 97035, Note_on_c, 11, 81, 0
15, 97040, Note_on_c, 11, 72, 84
15, 97040, Note_on_c, 11, 81, 84
15, 97075, Note_on_c, 11, 72, 0
15, 97075, Note_on_c, 11, 81, 0
15, 97080, Note_on_c, 11, 72, 84
15, 97115, Note_on_c, 11, 72, 0
15, 97120, Note_on_c, 11, 72, 84
15, 97155, Note_on_c, 11, 72, 0
15, 97160, Note_on_c, 11, 72, 84
15, 97195, Note_on_c, 11, 72, 0
15, 97200, Note_on_c, 11, 74, 84
15, 97235, Note_on_c, 11, 74, 0
15, 97240, Note_on_c, 11, 82, 84
15, 97240, Note_on_c, 11, 74, 84
15, 97275, Note_on_c, 11, 82, 0
15, 97275, Note_on_c, 11, 74, 0
15, 97280, Note_on_c, 11, 82, 84
15, 97280, Note_on_c, 11, 74, 84
15, 97315, Note_on_c, 11, 82, 0
15, 97315, Note_on_c, 11, 74, 0
15, 97320, Note_on_c, 11, 82, 84
15, 97320, Note_on_c, 11, 74, 84
15, 97355, Note_on_c, 11, 82, 0
15, 97355, Note_on_c, 11, 74, 0
15, 97360, Note_on_c, 11, 82, 84
15, 97360, Note_on_c, 11, 74, 84
15, 97395, Note_on_c, 11, 82, 0
15, 97395, Note_on_c, 11, 74, 0
15, 97400, Note_on_c, 11, 74, 84
15, 97400, Note_on_c, 11, 82, 84
15, 97435, Note_on_c, 11, 74, 0
15, 97435, Note_on_c, 11, 82, 0
15, 97440, Note_on_c, 11, 82, 84
15, 97440, Note_on_c, 11, 74, 84
15, 97475, Note_on_c, 11, 82, 0
15, 97475, Note_on_c, 11, 74, 0
15, 97480, Note_on_c, 11, 74, 84
15, 97480, Note_on_c, 11, 82, 84
15, 97515, Note_on_c, 11, 74, 0
15, 97515, Note_on_c, 11, 82, 0
15, 97520, Note_on_c, 11, 74, 84
15, 97520, Note_on_c, 11, 82, 84
15, 97555, Note_on_c, 11, 74, 0
15, 97555, Note_on_c, 11, 82, 0
15, 97560, Note_on_c, 11, 74, 84
15, 97560, Note_on_c, 11, 82, 84
15, 97595, Note_on_c, 11, 74, 0
15, 97595, Note_on_c, 11, 82, 0
15, 97600, Note_on_c, 11, 82, 84
15, 97600, Note_on_c, 11, 74, 84
15, 97635, Note_on_c, 11, 82, 0
15, 97635, Note_on_c, 11, 74, 0
15, 97640, Note_on_c, 11, 74, 84
15, 97640, Note_on_c, 11, 82, 84
15, 97675, Note_on_c, 11, 74, 0
15, 97675, Note_on_c, 11, 82, 0
15, 97680, Note_on_c, 11, 74, 84
15, 97680, Note_on_c, 11, 82, 84
15, 97715, Note_on_c, 11, 74, 0
15, 97715, Note_on_c, 11, 82, 0
15, 97720, Note_on_c, 11, 74, 84
15, 97720, Note_on_c, 11, 82, 84
15, 97755, Note_on_c, 11, 74, 0
15, 97755, Note_on_c, 11, 82, 0
15, 97760, Note_on_c, 11, 82, 84
15, 97760, Note_on_c, 11, 74, 84
15, 97795, Note_on_c, 11, 82, 0
15, 97795, Note_on_c, 11, 74, 0
15, 97800, Note_on_c, 11, 72, 84
15, 97800, Note_on_c, 11, 82, 84
15, 97835, Note_on_c, 11, 72, 0
15, 97835, Note_on_c, 11, 82, 0
15, 97840, Note_on_c, 11, 72, 84
15, 97840, Note_on_c, 11, 82, 84
15, 97875, Note_on_c, 11, 72, 0
15, 97875, Note_on_c, 11, 82, 0
15, 97880, Note_on_c, 11, 72, 84
15, 97880, Note_on_c, 11, 82, 84
15, 97915, Note_on_c, 11, 72, 0
15, 97915, Note_on_c, 11, 82, 0
15, 97920, Note_on_c, 11, 72, 84
15, 97920, Note_on_c, 11, 82, 84
15, 97955, Note_on_c, 11, 72, 0
15, 97955, Note_on_c, 11, 82, 0
15, 97960, Note_on_c, 11, 82, 84
15, 97960, Note_on_c, 11, 72, 84
15, 97995, Note_on_c, 11, 82, 0
15, 97995, Note_on_c, 11, 72, 0
15, 98000, Note_on_c, 11, 82, 84
15, 98000, Note_on_c, 11, 72, 84
15, 98035, Note_on_c, 11, 82, 0
15, 98035, Note_on_c, 11, 72, 0
15, 98040, Note_on_c, 11, 82, 84
15, 98040, Note_on_c, 11, 72, 84
15, 98075, Note_on_c, 11, 82, 0
15, 98075, Note_on_c, 11, 72, 0
15, 98080, Note_on_c, 11, 82, 84
15, 98080, Note_on_c, 11, 72, 84
15, 98115, Note_on_c, 11, 82, 0
15, 98115, Note_on_c, 11, 72, 0
15, 98120, Note_on_c, 11, 82, 84
15, 98120, Note_on_c, 11, 72, 84
15, 98155, Note_on_c, 11, 82, 0
15, 98155, Note_on_c, 11, 72, 0
15, 98160, Note_on_c, 11, 82, 84
15, 98160, Note_on_c, 11, 72, 84
15, 98195, Note_on_c, 11, 82, 0
15, 98195, Note_on_c, 11, 72, 0
15, 98200, Note_on_c, 11, 72, 84
15, 98200, Note_on_c, 11, 82, 84
15, 98235, Note_on_c, 11, 72, 0
15, 98235, Note_on_c, 11, 82, 0
15, 98240, Note_on_c, 11, 82, 84
15, 98240, Note_on_c, 11, 72, 84
15, 98275, Note_on_c, 11, 82, 0
15, 98275, Note_on_c, 11, 72, 0
15, 98280, Note_on_c, 11, 82, 84
15, 98280, Note_on_c, 11, 72, 84
15, 98315, Note_on_c, 11, 82, 0
15, 98315, Note_on_c, 11, 72, 0
15, 98320, Note_on_c, 11, 72, 84
15, 98320, Note_on_c, 11, 82, 84
15, 98355, Note_on_c, 11, 72, 0
15, 98355, Note_on_c, 11, 82, 0
15, 98360, Note_on_c, 11, 82, 84
15, 98360, Note_on_c, 11, 72, 84
15, 98395, Note_on_c, 11, 82, 0
15, 98395, Note_on_c, 11, 72, 0
15, 98400, Note_on_c, 11, 72, 84
15, 98400, Note_on_c, 11, 82, 84
15, 98435, Note_on_c, 11, 72, 0
15, 98435, Note_on_c, 11, 82, 0
15, 98440, Note_on_c, 11, 82, 84
15, 98440, Note_on_c, 11, 72, 84
15, 98475, Note_on_c, 11, 82, 0
15, 98475, Note_on_c, 11, 72, 0
15, 98480, Note_on_c, 11, 72, 84
15, 98480, Note_on_c, 11, 82, 84
15, 98515, Note_on_c, 11, 72, 0
15, 98515, Note_on_c, 11, 82, 0
15, 98520, Note_on_c, 11, 76, 84
15, 98555, Note_on_c, 11, 76, 0
15, 98560, Note_on_c, 11, 76, 84
15, 98595, Note_on_c, 11, 76, 0
15, 98600, Note_on_c, 11, 76, 84
15, 98635, Note_on_c, 11, 76, 0
15, 98640, Note_on_c, 11, 81, 84
15, 98640, Note_on_c, 11, 69, 84
15, 98675, Note_on_c, 11, 81, 0
15, 98675, Note_on_c, 11, 69, 0
15, 98680, Note_on_c, 11, 81, 84
15, 98680, Note_on_c, 11, 69, 84
15, 98715, Note_on_c, 11, 81, 0
15, 98715, Note_on_c, 11, 69, 0
15, 98720, Note_on_c, 11, 81, 84
15, 98720, Note_on_c, 11, 69, 84
15, 98755, Note_on_c, 11, 81, 0
15, 98755, Note_on_c, 11, 69, 0
15, 98760, Note_on_c, 11, 69, 84
15, 98760, Note_on_c, 11, 81, 84
15, 98795, Note_on_c, 11, 69, 0
15, 98795, Note_on_c, 11, 81, 0
15, 98800, Note_on_c, 11, 81, 84
15, 98800, Note_on_c, 11, 69, 84
15, 98835, Note_on_c, 11, 81, 0
15, 98835, Note_on_c, 11, 69, 0
15, 98840, Note_on_c, 11, 81, 84
15, 98840, Note_on_c, 11, 69, 84
15, 98875, Note_on_c, 11, 81, 0
15, 98875, Note_on_c, 11, 69, 0
15, 98880, Note_on_c, 11, 69, 84
15, 98880, Note_on_c, 11, 81, 84
15, 98915, Note_on_c, 11, 69, 0
15, 98915, Note_on_c, 11, 81, 0
15, 98920, Note_on_c, 11, 69, 84
15, 98920, Note_on_c, 11, 81, 84
15, 98955, Note_on_c, 11, 69, 0
15, 98955, Note_on_c, 11, 81, 0
15, 98960, Note_on_c, 11, 81, 84
15, 98960, Note_on_c, 11, 69, 84
15, 98995, Note_on_c, 11, 81, 0
15, 98995, Note_on_c, 11, 69, 0
15, 99000, Note_on_c, 11, 81, 84
15, 99000, Note_on_c, 11, 69, 84
15, 99035, Note_on_c, 11, 81, 0
15, 99035, Note_on_c, 11, 69, 0
15, 99040, Note_on_c, 11, 69, 84
15, 99040, Note_on_c, 11, 81, 84
15, 99075, Note_on_c, 11, 69, 0
15, 99075, Note_on_c, 11, 81, 0
15, 99080, Note_on_c, 11, 69, 84
15, 99080, Note_on_c, 11, 81, 84
15, 99115, Note_on_c, 11, 69, 0
15, 99115, Note_on_c, 11, 81, 0
15, 99120, Note_on_c, 11, 69, 84
15, 99120, Note_on_c, 11, 81, 84
15, 99155, Note_on_c, 11, 69, 0
15, 99155, Note_on_c, 11, 81, 0
15, 99160, Note_on_c, 11, 81, 84
15, 99160, Note_on_c, 11, 69, 84
15, 99195, Note_on_c, 11, 81, 0
15, 99195, Note_on_c, 11, 69, 0
15, 99200, Note_on_c, 11, 69, 84
15, 99200, Note_on_c, 11, 81, 84
15, 99235, Note_on_c, 11, 69, 0
15, 99235, Note_on_c, 11, 81, 0
15, 99240, Note_on_c, 11, 69, 84
15, 99240, Note_on_c, 11, 77, 84
15, 99275, Note_on_c, 11, 69, 0
15, 99275, Note_on_c, 11, 77, 0
15, 99280, Note_on_c, 11, 77, 84
15, 99280, Note_on_c, 11, 69, 84
15, 99315, Note_on_c, 11, 77, 0
15, 99315, Note_on_c, 11, 69, 0
15, 99320, Note_on_c, 11, 69, 84
15, 99320, Note_on_c, 11, 77, 84
15, 99355, Note_on_c, 11, 69, 0
15, 99355, Note_on_c, 11, 77, 0
15, 99360, Note_on_c, 11, 74, 84
15, 99360, Note_on_c, 11, 77, 84
15, 99395, Note_on_c, 11, 74, 0
15, 99395, Note_on_c, 11, 77, 0
15, 99400, Note_on_c, 11, 79, 84
15, 99435, Note_on_c, 11, 79, 0
15, 99440, Note_on_c, 11, 79, 84
15, 99475, Note_on_c, 11, 79, 0
15, 99480, Note_on_c, 11, 79, 84
15, 99515, Note_on_c, 11, 79, 0
15, 99520, Note_on_c, 11, 79, 84
15, 99555, Note_on_c, 11, 79, 0
15, 99560, Note_on_c, 11, 79, 84
15, 99595, Note_on_c, 11, 79, 0
15, 99600, Note_on_c, 11, 79, 84
15, 99635, Note_on_c, 11, 79, 0
15, 99640, Note_on_c, 11, 79, 84
15, 99675, Note_on_c, 11, 79, 0
15, 99680, Note_on_c, 11, 79, 84
15, 99715, Note_on_c, 11, 79, 0
15, 99720, Note_on_c, 11, 79, 84
15, 99720, Note_on_c, 11, 70, 84
15, 99755, Note_on_c, 11, 79, 0
15, 99755, Note_on_c, 11, 70, 0
15, 99760, Note_on_c, 11, 79, 84
15, 99760, Note_on_c, 11, 70, 84
15, 99795, Note_on_c, 11, 79, 0
15, 99795, Note_on_c, 11, 70, 0
15, 99800, Note_on_c, 11, 70, 84
15, 99800, Note_on_c, 11, 79, 84
15, 99835, Note_on_c, 11, 70, 0
15, 99835, Note_on_c, 11, 79, 0
15, 99840, Note_on_c, 11, 79, 84
15, 99840, Note_on_c, 11, 70, 84
15, 99875, Note_on_c, 11, 79, 0
15, 99875, Note_on_c, 11, 70, 0
15, 99880, Note_on_c, 11, 70, 84
15, 99880, Note_on_c, 11, 79, 84
15, 99915, Note_on_c, 11, 70, 0
15, 99915, Note_on_c, 11, 79, 0
15, 99920, Note_on_c, 11, 79, 84
15, 99920, Note_on_c, 11, 70, 84
15, 99955, Note_on_c, 11, 79, 0
15, 99955, Note_on_c, 11, 70, 0
15, 99960, Note_on_c, 11, 70, 84
15, 99960, Note_on_c, 11, 79, 84
15, 99995, Note_on_c, 11, 70, 0
15, 99995, Note_on_c, 11, 79, 0
15, 100000, Note_on_c, 11, 70, 84
15, 100000, Note_on_c, 11, 79, 84
15, 100035, Note_on_c, 11, 70, 0
15, 100035, Note_on_c, 11, 79, 0
15, 100040, Note_on_c, 11, 70, 84
15, 100040, Note_on_c, 11, 79, 84
15, 100075, Note_on_c, 11, 70, 0
15, 100075, Note_on_c, 11, 79, 0
15, 100080, Note_on_c, 11, 69, 84
15, 100080, Note_on_c, 11, 77, 84
15, 100135, Note_on_c, 11, 69, 0
15, 100135, Note_on_c, 11, 77, 0
15, 100140, Note_on_c, 11, 60, 84
15, 100199, Note_on_c, 11, 60, 0
15, 100200, Note_on_c, 11, 65, 84
15, 100259, Note_on_c, 11, 65, 0
15, 100260, Note_on_c, 11, 60, 84
15, 100319, Note_on_c, 11, 60, 0
15, 100320, Note_on_c, 11, 57, 84
15, 100379, Note_on_c, 11, 57, 0
15, 100380, Note_on_c, 11, 60, 84
15, 100435, Note_on_c, 11, 60, 0
15, 100440, Note_on_c, 11, 58, 84
15, 100499, Note_on_c, 11, 58, 0
15, 100500, Note_on_c, 11, 60, 84
15, 100559, Note_on_c, 11, 60, 0
15, 100560, Note_on_c, 11, 64, 84
15, 100619, Note_on_c, 11, 64, 0
15, 100620, Note_on_c, 11, 60, 84
15, 100679, Note_on_c, 11, 60, 0
15, 100680, Note_on_c, 11, 58, 84
15, 100739, Note_on_c, 11, 58, 0
15, 100740, Note_on_c, 11, 60, 84
15, 100795, Note_on_c, 11, 60, 0
15, 100800, Note_on_c, 11, 57, 84
15, 100859, Note_on_c, 11, 57, 0
15, 100860, Note_on_c, 11, 60, 84
15, 100919, Note_on_c, 11, 60, 0
15, 100920, Note_on_c, 11, 65, 84
15, 100979, Note_on_c, 11, 65, 0
15, 100980, Note_on_c, 11, 60, 84
15, 101039, Note_on_c, 11, 60, 0
15, 101040, Note_on_c, 11, 57, 84
15, 101099, Note_on_c, 11, 57, 0
15, 101100, Note_on_c, 11, 60, 84
15, 101155, Note_on_c, 11, 60, 0
15, 101160, Note_on_c, 11, 55, 84
15, 101219, Note_on_c, 11, 55, 0
15, 101220, Note_on_c, 11, 60, 84
15, 101279, Note_on_c, 11, 60, 0
15, 101280, Note_on_c, 11, 64, 84
15, 101339, Note_on_c, 11, 64, 0
15, 101340, Note_on_c, 11, 60, 84
15, 101399, Note_on_c, 11, 60, 0
15, 101400, Note_on_c, 11, 64, 84
15, 101459, Note_on_c, 11, 64, 0
15, 101460, Note_on_c, 11, 67, 84
15, 101515, Note_on_c, 11, 67, 0
15, 101520, Note_on_c, 11, 69, 84
15, 101520, Note_on_c, 11, 60, 84
15, 101759, Note_on_c, 11, 69, 0
15, 101759, Note_on_c, 11, 60, 0
15, 102720, Note_on_c, 11, 58, 84
15, 102779, Note_on_c, 11, 58, 0
15, 102780, Note_on_c, 11, 60, 84
15, 102839, Note_on_c, 11, 60, 0
15, 102840, Note_on_c, 11, 58, 84
15, 102899, Note_on_c, 11, 58, 0
15, 102900, Note_on_c, 11, 60, 84
15, 102955, Note_on_c, 11, 60, 0
15, 102960, Note_on_c, 11, 57, 84
15, 103019, Note_on_c, 11, 57, 0
15, 103020, Note_on_c, 11, 60, 84
15, 103079, Note_on_c, 11, 60, 0
15, 103080, Note_on_c, 11, 65, 84
15, 103139, Note_on_c, 11, 65, 0
15, 103140, Note_on_c, 11, 60, 84
15, 103199, Note_on_c, 11, 60, 0
15, 103200, Note_on_c, 11, 57, 84
15, 103259, Note_on_c, 11, 57, 0
15, 103260, Note_on_c, 11, 60, 84
15, 103315, Note_on_c, 11, 60, 0
15, 103320, Note_on_c, 11, 58, 84
15, 103379, Note_on_c, 11, 58, 0
15, 103380, Note_on_c, 11, 60, 84
15, 103439, Note_on_c, 11, 60, 0
15, 103440, Note_on_c, 11, 64, 84
15, 103499, Note_on_c, 11, 64, 0
15, 103500, Note_on_c, 11, 60, 84
15, 103559, Note_on_c, 11, 60, 0
15, 103560, Note_on_c, 11, 58, 84
15, 103619, Note_on_c, 11, 58, 0
15, 103620, Note_on_c, 11, 60, 84
15, 103675, Note_on_c, 11, 60, 0
15, 103680, Note_on_c, 11, 57, 84
15, 103739, Note_on_c, 11, 57, 0
15, 103740, Note_on_c, 11, 60, 84
15, 103799, Note_on_c, 11, 60, 0
15, 103800, Note_on_c, 11, 65, 84
15, 103859, Note_on_c, 11, 65, 0
15, 103860, Note_on_c, 11, 57, 84
15, 103919, Note_on_c, 11, 57, 0
15, 103920, Note_on_c, 11, 65, 84
15, 103979, Note_on_c, 11, 65, 0
15, 103980, Note_on_c, 11, 57, 84
15, 104035, Note_on_c, 11, 57, 0
15, 104040, Note_on_c, 11, 65, 84
15, 104099, Note_on_c, 11, 65, 0
15, 104100, Note_on_c, 11, 59, 84
15, 104159, Note_on_c, 11, 59, 0
15, 104160, Note_on_c, 11, 65, 84
15, 104219, Note_on_c, 11, 65, 0
15, 104220, Note_on_c, 11, 59, 84
15, 104279, Note_on_c, 11, 59, 0
15, 104280, Note_on_c, 11, 65, 84
15, 104339, Note_on_c, 11, 65, 0
15, 104340, Note_on_c, 11, 59, 84
15, 104395, Note_on_c, 11, 59, 0
15, 104400, Note_on_c, 11, 65, 84
15, 104459, Note_on_c, 11, 65, 0
15, 104460, Note_on_c, 11, 60, 84
15, 104519, Note_on_c, 11, 60, 0
15, 104520, Note_on_c, 11, 65, 84
15, 104579, Note_on_c, 11, 65, 0
15, 104580, Note_on_c, 11, 60, 84
15, 104639, Note_on_c, 11, 60, 0
15, 104640, Note_on_c, 11, 65, 84
15, 104699, Note_on_c, 11, 65, 0
15, 104700, Note_on_c, 11, 60, 84
15, 104755, Note_on_c, 11, 60, 0
15, 104760, Note_on_c, 11, 65, 84
15, 104819, Note_on_c, 11, 65, 0
15, 104820, Note_on_c, 11, 62, 84
15, 104879, Note_on_c, 11, 62, 0
15, 104880, Note_on_c, 11, 67, 84
15, 104939, Note_on_c, 11, 67, 0
15, 104940, Note_on_c, 11, 62, 84
15, 104999, Note_on_c, 11, 62, 0
15, 105000, Note_on_c, 11, 67, 84
15, 105059, Note_on_c, 11, 67, 0
15, 105060, Note_on_c, 11, 62, 84
15, 105115, Note_on_c, 11, 62, 0
15, 105120, Note_on_c, 11, 67, 84
15, 105179, Note_on_c, 11, 67, 0
15, 105180, Note_on_c, 11, 64, 84
15, 105239, Note_on_c, 11, 64, 0
15, 105240, Note_on_c, 11, 67, 84
15, 105299, Note_on_c, 11, 67, 0
15, 105300, Note_on_c, 11, 64, 84
15, 105359, Note_on_c, 11, 64, 0
15, 105360, Note_on_c, 11, 67, 84
15, 105419, Note_on_c, 11, 67, 0
15, 105420, Note_on_c, 11, 64, 84
15, 105475, Note_on_c, 11, 64, 0
15, 105480, Note_on_c, 11, 67, 84
15, 105539, Note_on_c, 11, 67, 0
15, 105540, Note_on_c, 11, 65, 84
15, 105599, Note_on_c, 11, 65, 0
15, 105600, Note_on_c, 11, 67, 84
15, 105659, Note_on_c, 11, 67, 0
15, 105660, Note_on_c, 11, 65, 84
15, 105719, Note_on_c, 11, 65, 0
15, 105720, Note_on_c, 11, 67, 84
15, 105779, Note_on_c, 11, 67, 0
15, 105780, Note_on_c, 11, 65, 84
15, 105835, Note_on_c, 11, 65, 0
15, 105840, Note_on_c, 11, 67, 88
15, 105899, Note_on_c, 11, 67, 0
15, 105900, Note_on_c, 11, 55, 88
15, 105959, Note_on_c, 11, 55, 0
15, 105960, Note_on_c, 11, 60, 88
15, 106019, Note_on_c, 11, 60, 0
15, 106020, Note_on_c, 11, 55, 88
15, 106079, Note_on_c, 11, 55, 0
15, 106080, Note_on_c, 11, 60, 88
15, 106139, Note_on_c, 11, 60, 0
15, 106140, Note_on_c, 11, 55, 88
15, 106195, Note_on_c, 11, 55, 0
15, 106200, Note_on_c, 11, 60, 88
15, 106259, Note_on_c, 11, 60, 0
15, 106260, Note_on_c, 11, 57, 88
15, 106319, Note_on_c, 11, 57, 0
15, 106320, Note_on_c, 11, 60, 88
15, 106379, Note_on_c, 11, 60, 0
15, 106380, Note_on_c, 11, 57, 88
15, 106439, Note_on_c, 11, 57, 0
15, 106440, Note_on_c, 11, 60, 88
15, 106499, Note_on_c, 11, 60, 0
15, 106500, Note_on_c, 11, 57, 88
15, 106555, Note_on_c, 11, 57, 0
15, 106560, Note_on_c, 11, 60, 88
15, 106619, Note_on_c, 11, 60, 0
15, 106620, Note_on_c, 11, 58, 88
15, 106679, Note_on_c, 11, 58, 0
15, 106680, Note_on_c, 11, 64, 88
15, 106739, Note_on_c, 11, 64, 0
15, 106740, Note_on_c, 11, 55, 88
15, 106799, Note_on_c, 11, 55, 0
15, 106800, Note_on_c, 11, 64, 88
15, 106859, Note_on_c, 11, 64, 0
15, 106860, Note_on_c, 11, 55, 88
15, 106915, Note_on_c, 11, 55, 0
15, 106920, Note_on_c, 11, 65, 88
15, 106979, Note_on_c, 11, 65, 0
15, 106980, Note_on_c, 11, 56, 88
15, 107039, Note_on_c, 11, 56, 0
15, 107040, Note_on_c, 11, 65, 88
15, 107099, Note_on_c, 11, 65, 0
15, 107100, Note_on_c, 11, 56, 88
15, 107159, Note_on_c, 11, 56, 0
15, 107160, Note_on_c, 11, 65, 88
15, 107219, Note_on_c, 11, 65, 0
15, 107220, Note_on_c, 11, 56, 88
15, 107275, Note_on_c, 11, 56, 0
15, 107280, Note_on_c, 11, 65, 96
15, 107280, Note_on_c, 11, 57, 96
15, 107339, Note_on_c, 11, 65, 0
15, 107339, Note_on_c, 11, 57, 0
15, 107340, Note_on_c, 11, 65, 88
15, 107340, Note_on_c, 11, 57, 88
15, 107631, Note_on_c, 11, 65, 0
15, 107631, Note_on_c, 11, 57, 0
15, 107640, Note_on_c, 11, 74, 88
15, 107759, Note_on_c, 11, 74, 0
15, 107760, Note_on_c, 11, 72, 88
15, 107871, Note_on_c, 11, 72, 0
15, 107880, Note_on_c, 11, 69, 88
15, 107924, Note_on_c, 11, 69, 0
15, 107940, Note_on_c, 11, 65, 88
15, 107984, Note_on_c, 11, 65, 0
15, 108000, Note_on_c, 11, 77, 88
15, 108231, Note_on_c, 11, 77, 0
15, 108240, Note_on_c, 11, 77, 88
15, 108351, Note_on_c, 11, 77, 0
15, 108360, Note_on_c, 11, 77, 88
15, 108471, Note_on_c, 11, 77, 0
15, 108480, Note_on_c, 11, 77, 88
15, 108591, Note_on_c, 11, 77, 0
15, 108600, Note_on_c, 11, 77, 88
15, 108619, Note_on_c, 11, 77, 0
15, 108620, Note_on_c, 11, 79, 88
15, 108639, Note_on_c, 11, 79, 0
15, 108640, Note_on_c, 11, 77, 88
15, 108659, Note_on_c, 11, 77, 0
15, 108660, Note_on_c, 11, 79, 88
15, 108679, Note_on_c, 11, 79, 0
15, 108680, Note_on_c, 11, 76, 88
15, 108699, Note_on_c, 11, 76, 0
15, 108700, Note_on_c, 11, 77, 88
15, 108719, Note_on_c, 11, 77, 0
15, 108720, Note_on_c, 11, 76, 88
15, 109071, Note_on_c, 11, 76, 0
15, 109080, Note_on_c, 11, 72, 88
15, 109199, Note_on_c, 11, 72, 0
15, 109200, Note_on_c, 11, 70, 88
15, 109311, Note_on_c, 11, 70, 0
15, 109320, Note_on_c, 11, 67, 88
15, 109364, Note_on_c, 11, 67, 0
15, 109380, Note_on_c, 11, 64, 88
15, 109424, Note_on_c, 11, 64, 0
15, 109440, Note_on_c, 11, 76, 88
15, 109671, Note_on_c, 11, 76, 0
15, 109680, Note_on_c, 11, 76, 88
15, 109791, Note_on_c, 11, 76, 0
15, 109800, Note_on_c, 11, 76, 88
15, 109911, Note_on_c, 11, 76, 0
15, 109920, Note_on_c, 11, 76, 88
15, 110031, Note_on_c, 11, 76, 0
15, 110040, Note_on_c, 11, 76, 88
15, 110059, Note_on_c, 11, 76, 0
15, 110060, Note_on_c, 11, 77, 88
15, 110079, Note_on_c, 11, 77, 0
15, 110080, Note_on_c, 11, 76, 88
15, 110099, Note_on_c, 11, 76, 0
15, 110100, Note_on_c, 11, 77, 88
15, 110119, Note_on_c, 11, 77, 0
15, 110120, Note_on_c, 11, 74, 88
15, 110139, Note_on_c, 11, 74, 0
15, 110140, Note_on_c, 11, 76, 88
15, 110159, Note_on_c, 11, 76, 0
15, 110160, Note_on_c, 11, 77, 88
15, 110160, Note_on_c, 11, 69, 88
15, 110511, Note_on_c, 11, 77, 0
15, 110511, Note_on_c, 11, 69, 0
15, 110520, Note_on_c, 11, 74, 88
15, 110579, Note_on_c, 11, 74, 0
15, 110580, Note_on_c, 11, 72, 88
15, 110635, Note_on_c, 11, 72, 0
15, 110640, Note_on_c, 11, 71, 88
15, 110684, Note_on_c, 11, 71, 0
15, 110700, Note_on_c, 11, 72, 88
15, 110744, Note_on_c, 11, 72, 0
15, 110760, Note_on_c, 11, 69, 88
15, 110804, Note_on_c, 11, 69, 0
15, 110820, Note_on_c, 11, 65, 88
15, 110864, Note_on_c, 11, 65, 0
15, 110880, Note_on_c, 11, 69, 88
15, 110880, Note_on_c, 11, 77, 88
15, 111111, Note_on_c, 11, 69, 0
15, 111111, Note_on_c, 11, 77, 0
15, 111120, Note_on_c, 11, 77, 88
15, 111231, Note_on_c, 11, 77, 0
15, 111240, Note_on_c, 11, 77, 88
15, 111351, Note_on_c, 11, 77, 0
15, 111360, Note_on_c, 11, 77, 88
15, 111471, Note_on_c, 11, 77, 0
15, 111480, Note_on_c, 11, 77, 88
15, 111499, Note_on_c, 11, 77, 0
15, 111500, Note_on_c, 11, 79, 88
15, 111519, Note_on_c, 11, 79, 0
15, 111520, Note_on_c, 11, 77, 88
15, 111539, Note_on_c, 11, 77, 0
15, 111540, Note_on_c, 11, 79, 88
15, 111559, Note_on_c, 11, 79, 0
15, 111560, Note_on_c, 11, 76, 88
15, 111579, Note_on_c, 11, 76, 0
15, 111580, Note_on_c, 11, 77, 88
15, 111599, Note_on_c, 11, 77, 0
15, 111600, Note_on_c, 11, 67, 88
15, 111600, Note_on_c, 11, 76, 88
15, 111951, Note_on_c, 11, 67, 0
15, 111951, Note_on_c, 11, 76, 0
15, 111960, Note_on_c, 11, 72, 88
15, 112019, Note_on_c, 11, 72, 0
15, 112020, Note_on_c, 11, 70, 88
15, 112075, Note_on_c, 11, 70, 0
15, 112080, Note_on_c, 11, 69, 88
15, 112124, Note_on_c, 11, 69, 0
15, 112140, Note_on_c, 11, 70, 88
15, 112184, Note_on_c, 11, 70, 0
15, 112200, Note_on_c, 11, 67, 88
15, 112244, Note_on_c, 11, 67, 0
15, 112260, Note_on_c, 11, 64, 88
15, 112304, Note_on_c, 11, 64, 0
15, 112320, Note_on_c, 11, 76, 88
15, 112320, Note_on_c, 11, 67, 88
15, 112551, Note_on_c, 11, 76, 0
15, 112551, Note_on_c, 11, 67, 0
15, 112560, Note_on_c, 11, 76, 88
15, 112671, Note_on_c, 11, 76, 0
15, 112680, Note_on_c, 11, 76, 88
15, 112791, Note_on_c, 11, 76, 0
15, 112800, Note_on_c, 11, 76, 88
15, 112911, Note_on_c, 11, 76, 0
15, 112920, Note_on_c, 11, 76, 88
15, 112939, Note_on_c, 11, 76, 0
15, 112940, Note_on_c, 11, 77, 88
15, 112959, Note_on_c, 11, 77, 0
15, 112960, Note_on_c, 11, 76, 88
15, 112979, Note_on_c, 11, 76, 0
15, 112980, Note_on_c, 11, 77, 88
15, 112999, Note_on_c, 11, 77, 0
15, 113000, Note_on_c, 11, 74, 88
15, 113019, Note_on_c, 11, 74, 0
15, 113020, Note_on_c, 11, 76, 88
15, 113039, Note_on_c, 11, 76, 0
15, 113040, Note_on_c, 11, 77, 88
15, 113040, Note_on_c, 11, 69, 88
15, 113279, Note_on_c, 11, 77, 0
15, 113279, Note_on_c, 11, 69, 0
15, 113610, Control_c, 11, 11, 94
15, 113640, Control_c, 11, 11, 96
15, 113640, Note_on_c, 11, 65, 76
15, 113670, Control_c, 11, 11, 98
15, 113700, Control_c, 11, 11, 100
15, 113730, Control_c, 11, 11, 102
15, 113760, Control_c, 11, 11, 104
15, 113790, Control_c, 11, 11, 105
15, 113820, Control_c, 11, 11, 107
15, 113850, Control_c, 11, 11, 109
15, 113879, Note_on_c, 11, 65, 0
15, 113880, Control_c, 11, 11, 111
15, 113880, Note_on_c, 11, 70, 76
15, 113910, Control_c, 11, 11, 113
15, 113940, Control_c, 11, 11, 115
15, 113970, Control_c, 11, 11, 117
15, 113999, Note_on_c, 11, 70, 0
15, 114000, Note_on_c, 11, 69, 76
15, 114000, Control_c, 11, 11, 119
15, 114030, Control_c, 11, 11, 121
15, 114060, Control_c, 11, 11, 123
15, 114090, Control_c, 11, 11, 127
15, 114111, Note_on_c, 11, 69, 0
15, 114120, Note_on_c, 11, 70, 76
15, 114120, Note_on_c, 11, 67, 76
15, 114351, Note_on_c, 11, 70, 0
15, 114351, Note_on_c, 11, 67, 0
15, 114360, Note_on_c, 11, 67, 76
15, 114360, Note_on_c, 11, 70, 76
15, 114471, Note_on_c, 11, 67, 0
15, 114471, Note_on_c, 11, 70, 0
15, 114480, Note_on_c, 11, 69, 76
15, 114480, Note_on_c, 11, 65, 76
15, 114711, Note_on_c, 11, 69, 0
15, 114711, Note_on_c, 11, 65, 0
15, 114720, Note_on_c, 11, 57, 52
15, 114839, Note_on_c, 11, 57, 0
15, 114840, Note_on_c, 11, 58, 56
15, 114959, Note_on_c, 11, 58, 0
15, 114960, Note_on_c, 11, 57, 60
15, 115079, Note_on_c, 11, 57, 0
15, 115080, Note_on_c, 11, 62, 64
15, 115199, Note_on_c, 11, 62, 0
15, 115200, Note_on_c, 11, 60, 68
15, 115319, Note_on_c, 11, 60, 0
15, 115320, Note_on_c, 11, 70, 72
15, 115439, Note_on_c, 11, 70, 0
15, 115440, Note_on_c, 11, 69, 76
15, 115551, Note_on_c, 11, 69, 0
15, 115560, Note_on_c, 11, 76, 76
15, 115560, Note_on_c, 11, 67, 76
15, 115791, Note_on_c, 11, 76, 0
15, 115791, Note_on_c, 11, 67, 0
15, 115800, Note_on_c, 11, 67, 76
15, 115800, Note_on_c, 11, 76, 76
15, 115889, Note_on_c, 11, 67, 0
15, 115889, Note_on_c, 11, 76, 0
15, 115920, Note_on_c, 11, 69, 84
15, 115920, Note_on_c, 11, 77, 84
15, 116279, Note_on_c, 11, 69, 0
15, 116279, Note_on_c, 11, 77, 0
15, 116280, Note_on_c, 11, 65, 84
15, 116280, Note_on_c, 11, 69, 84
15, 116399, Note_on_c, 11, 65, 0
15, 116399, Note_on_c, 11, 69, 0
15, 116520, Note_on_c, 11, 69, 84
15, 116609, Note_on_c, 11, 69, 0
15, 116640, Note_on_c, 11, 70, 84
15, 116640, Note_on_c, 11, 62, 84
15, 116999, Note_on_c, 11, 70, 0
15, 117000, Note_on_c, 11, 74, 84
15, 117119, Note_on_c, 11, 62, 0
15, 117119, Note_on_c, 11, 74, 0
15, 117240, Note_on_c, 11, 74, 84
15, 117240, Note_on_c, 11, 62, 84
15, 117329, Note_on_c, 11, 74, 0
15, 117329, Note_on_c, 11, 62, 0
15, 117360, Note_on_c, 11, 69, 84
15, 117360, Note_on_c, 11, 65, 84
15, 117599, Note_on_c, 11, 69, 0
15, 117599, Note_on_c, 11, 65, 0
15, 119160, Note_on_c, 11, 57, 44
15, 119871, Note_on_c, 11, 57, 0
15, 119880, Note_on_c, 11, 59, 44
15, 120239, Note_on_c, 11, 59, 0
15, 120240, Note_on_c, 11, 59, 44
15, 120951, Note_on_c, 11, 59, 0
15, 120960, Note_on_c, 11, 59, 44
15, 121319, Note_on_c, 11, 59, 0
15, 121320, Note_on_c, 11, 55, 44
15, 121559, Note_on_c, 11, 55, 0
15, 121560, Note_on_c, 11, 62, 44
15, 121671, Note_on_c, 11, 62, 0
15, 121680, Note_on_c, 11, 59, 44
15, 122039, Note_on_c, 11, 59, 0
15, 122040, Note_on_c, 11, 55, 44
15, 122279, Note_on_c, 11, 55, 0
15, 122280, Note_on_c, 11, 65, 44
15, 122391, Note_on_c, 11, 65, 0
15, 122398, Control_c, 11, 11, 64
15, 122400, Note_on_c, 11, 62, 76
15, 122400, Control_c, 11, 11, 64
15, 122444, Control_c, 11, 11, 65
15, 122488, Control_c, 11, 11, 66
15, 122519, Note_on_c, 11, 62, 0
15, 122520, Note_on_c, 11, 59, 76
15, 122531, Control_c, 11, 11, 67
15, 122575, Control_c, 11, 11, 68
15, 122619, Control_c, 11, 11, 69
15, 122639, Note_on_c, 11, 59, 0
15, 122640, Note_on_c, 11, 71, 76
15, 122663, Control_c, 11, 11, 70
15, 122707, Control_c, 11, 11, 71
15, 122750, Control_c, 11, 11, 72
15, 122759, Note_on_c, 11, 71, 0
15, 122760, Note_on_c, 11, 65, 76
15, 122794, Control_c, 11, 11, 73
15, 122838, Control_c, 11, 11, 74
15, 122879, Note_on_c, 11, 65, 0
15, 122880, Note_on_c, 11, 62, 76
15, 122882, Control_c, 11, 11, 75
15, 122926, Control_c, 11, 11, 76
15, 122970, Control_c, 11, 11, 77
15, 122999, Note_on_c, 11, 62, 0
15, 123000, Note_on_c, 11, 74, 76
15, 123013, Control_c, 11, 11, 78
15, 123057, Control_c, 11, 11, 79
15, 123101, Control_c, 11, 11, 80
15, 123111, Note_on_c, 11, 74, 0
15, 123120, Note_on_c, 11, 71, 76
15, 123145, Control_c, 11, 11, 81
15, 123189, Control_c, 11, 11, 82
15, 123232, Control_c, 11, 11, 83
15, 123239, Note_on_c, 11, 71, 0
15, 123240, Note_on_c, 11, 65, 76
15, 123276, Control_c, 11, 11, 84
15, 123320, Control_c, 11, 11, 85
15, 123359, Note_on_c, 11, 65, 0
15, 123360, Note_on_c, 11, 77, 76
15, 123364, Control_c, 11, 11, 86
15, 123408, Control_c, 11, 11, 87
15, 123451, Control_c, 11, 11, 88
15, 123471, Note_on_c, 11, 77, 0
15, 123480, Note_on_c, 11, 74, 76
15, 123495, Control_c, 11, 11, 89
15, 123539, Control_c, 11, 11, 90
15, 123583, Control_c, 11, 11, 91
15, 123599, Note_on_c, 11, 74, 0
15, 123600, Note_on_c, 11, 71, 76
15, 123627, Control_c, 11, 11, 92
15, 123670, Control_c, 11, 11, 93
15, 123714, Control_c, 11, 11, 94
15, 123719, Note_on_c, 11, 71, 0
15, 123720, Note_on_c, 11, 79, 76
15, 123758, Control_c, 11, 11, 95
15, 123802, Control_c, 11, 11, 96
15, 123831, Note_on_c, 11, 79, 0
15, 123840, Note_on_c, 11, 70, 76
15, 123840, Note_on_c, 11, 79, 76
15, 123846, Control_c, 11, 11, 97
15, 123890, Control_c, 11, 11, 98
15, 123933, Control_c, 11, 11, 99
15, 123977, Control_c, 11, 11, 100
15, 124021, Control_c, 11, 11, 101
15, 124065, Control_c, 11, 11, 102
15, 124109, Control_c, 11, 11, 103
15, 124152, Control_c, 11, 11, 104
15, 124196, Control_c, 11, 11, 105
15, 124240, Control_c, 11, 11, 106
15, 124284, Control_c, 11, 11, 107
15, 124328, Control_c, 11, 11, 108
15, 124371, Control_c, 11, 11, 109
15, 124415, Control_c, 11, 11, 110
15, 124459, Control_c, 11, 11, 111
15, 124503, Control_c, 11, 11, 112
15, 124547, Control_c, 11, 11, 113
15, 124559, Note_on_c, 11, 70, 0
15, 124559, Note_on_c, 11, 79, 0
15, 124560, Note_on_c, 11, 70, 76
15, 124560, Note_on_c, 11, 79, 76
15, 124590, Control_c, 11, 11, 114
15, 124634, Control_c, 11, 11, 115
15, 124678, Control_c, 11, 11, 116
15, 124722, Control_c, 11, 11, 117
15, 124766, Control_c, 11, 11, 118
15, 124810, Control_c, 11, 11, 119
15, 124853, Control_c, 11, 11, 120
15, 124897, Control_c, 11, 11, 121
15, 124941, Control_c, 11, 11, 122
15, 124985, Control_c, 11, 11, 123
15, 125029, Control_c, 11, 11, 124
15, 125072, Control_c, 11, 11, 125
15, 125116, Control_c, 11, 11, 127
15, 125151, Note_on_c, 11, 70, 0
15, 125151, Note_on_c, 11, 79, 0
15, 125160, Note_on_c, 11, 55, 76
15, 125160, Note_on_c, 11, 64, 76
15, 125195, Note_on_c, 11, 55, 0
15, 125195, Note_on_c, 11, 64, 0
15, 125200, Note_on_c, 11, 55, 76
15, 125200, Note_on_c, 11, 64, 76
15, 125235, Note_on_c, 11, 55, 0
15, 125235, Note_on_c, 11, 64, 0
15, 125240, Note_on_c, 11, 64, 76
15, 125240, Note_on_c, 11, 55, 76
15, 125275, Note_on_c, 11, 64, 0
15, 125275, Note_on_c, 11, 55, 0
15, 125280, Note_on_c, 11, 55, 76
15, 125280, Note_on_c, 11, 64, 76
15, 125315, Note_on_c, 11, 55, 0
15, 125315, Note_on_c, 11, 64, 0
15, 125320, Note_on_c, 11, 64, 76
15, 125320, Note_on_c, 11, 55, 76
15, 125355, Note_on_c, 11, 64, 0
15, 125355, Note_on_c, 11, 55, 0
15, 125360, Note_on_c, 11, 64, 76
15, 125360, Note_on_c, 11, 55, 76
15, 125395, Note_on_c, 11, 64, 0
15, 125395, Note_on_c, 11, 55, 0
15, 125400, Note_on_c, 11, 55, 76
15, 125400, Note_on_c, 11, 64, 76
15, 125435, Note_on_c, 11, 55, 0
15, 125435, Note_on_c, 11, 64, 0
15, 125440, Note_on_c, 11, 64, 76
15, 125440, Note_on_c, 11, 55, 76
15, 125475, Note_on_c, 11, 64, 0
15, 125475, Note_on_c, 11, 55, 0
15, 125480, Note_on_c, 11, 55, 76
15, 125480, Note_on_c, 11, 64, 76
15, 125515, Note_on_c, 11, 55, 0
15, 125515, Note_on_c, 11, 64, 0
15, 125520, Note_on_c, 11, 55, 76
15, 125520, Note_on_c, 11, 64, 76
15, 125555, Note_on_c, 11, 55, 0
15, 125555, Note_on_c, 11, 64, 0
15, 125560, Note_on_c, 11, 64, 76
15, 125560, Note_on_c, 11, 55, 76
15, 125595, Note_on_c, 11, 64, 0
15, 125595, Note_on_c, 11, 55, 0
15, 125600, Note_on_c, 11, 55, 76
15, 125600, Note_on_c, 11, 64, 76
15, 125635, Note_on_c, 11, 55, 0
15, 125635, Note_on_c, 11, 64, 0
15, 125640, Note_on_c, 11, 55, 76
15, 125640, Note_on_c, 11, 64, 76
15, 125675, Note_on_c, 11, 55, 0
15, 125675, Note_on_c, 11, 64, 0
15, 125680, Note_on_c, 11, 64, 76
15, 125680, Note_on_c, 11, 55, 76
15, 125715, Note_on_c, 11, 64, 0
15, 125715, Note_on_c, 11, 55, 0
15, 125720, Note_on_c, 11, 55, 76
15, 125720, Note_on_c, 11, 64, 76
15, 125755, Note_on_c, 11, 55, 0
15, 125755, Note_on_c, 11, 64, 0
15, 125760, Note_on_c, 11, 64, 76
15, 125760, Note_on_c, 11, 55, 76
15, 125795, Note_on_c, 11, 64, 0
15, 125795, Note_on_c, 11, 55, 0
15, 125800, Note_on_c, 11, 64, 76
15, 125800, Note_on_c, 11, 55, 76
15, 125835, Note_on_c, 11, 64, 0
15, 125835, Note_on_c, 11, 55, 0
15, 125840, Note_on_c, 11, 64, 76
15, 125840, Note_on_c, 11, 55, 76
15, 125875, Note_on_c, 11, 64, 0
15, 125875, Note_on_c, 11, 55, 0
15, 125880, Note_on_c, 11, 64, 76
15, 125880, Note_on_c, 11, 55, 76
15, 125915, Note_on_c, 11, 64, 0
15, 125915, Note_on_c, 11, 55, 0
15, 125920, Note_on_c, 11, 64, 76
15, 125920, Note_on_c, 11, 55, 76
15, 125955, Note_on_c, 11, 64, 0
15, 125955, Note_on_c, 11, 55, 0
15, 125960, Note_on_c, 11, 55, 76
15, 125960, Note_on_c, 11, 64, 76
15, 125995, Note_on_c, 11, 55, 0
15, 125995, Note_on_c, 11, 64, 0
15, 126000, Note_on_c, 11, 64, 76
15, 126000, Note_on_c, 11, 55, 76
15, 126035, Note_on_c, 11, 64, 0
15, 126035, Note_on_c, 11, 55, 0
15, 126040, Note_on_c, 11, 64, 76
15, 126040, Note_on_c, 11, 55, 76
15, 126075, Note_on_c, 11, 64, 0
15, 126075, Note_on_c, 11, 55, 0
15, 126080, Note_on_c, 11, 64, 76
15, 126080, Note_on_c, 11, 55, 76
15, 126115, Note_on_c, 11, 64, 0
15, 126115, Note_on_c, 11, 55, 0
15, 126120, Note_on_c, 11, 55, 76
15, 126120, Note_on_c, 11, 64, 76
15, 126155, Note_on_c, 11, 55, 0
15, 126155, Note_on_c, 11, 64, 0
15, 126160, Note_on_c, 11, 55, 76
15, 126160, Note_on_c, 11, 64, 76
15, 126195, Note_on_c, 11, 55, 0
15, 126195, Note_on_c, 11, 64, 0
15, 126200, Note_on_c, 11, 64, 76
15, 126200, Note_on_c, 11, 55, 76
15, 126235, Note_on_c, 11, 64, 0
15, 126235, Note_on_c, 11, 55, 0
15, 126240, Note_on_c, 11, 64, 76
15, 126240, Note_on_c, 11, 55, 76
15, 126275, Note_on_c, 11, 64, 0
15, 126275, Note_on_c, 11, 55, 0
15, 126280, Note_on_c, 11, 64, 76
15, 126280, Note_on_c, 11, 55, 76
15, 126315, Note_on_c, 11, 64, 0
15, 126315, Note_on_c, 11, 55, 0
15, 126320, Note_on_c, 11, 64, 76
15, 126320, Note_on_c, 11, 55, 76
15, 126355, Note_on_c, 11, 64, 0
15, 126355, Note_on_c, 11, 55, 0
15, 126360, Note_on_c, 11, 64, 76
15, 126360, Note_on_c, 11, 55, 76
15, 126395, Note_on_c, 11, 64, 0
15, 126395, Note_on_c, 11, 55, 0
15, 126400, Note_on_c, 11, 55, 76
15, 126400, Note_on_c, 11, 64, 76
15, 126435, Note_on_c, 11, 55, 0
15, 126435, Note_on_c, 11, 64, 0
15, 126440, Note_on_c, 11, 55, 76
15, 126440, Note_on_c, 11, 64, 76
15, 126475, Note_on_c, 11, 55, 0
15, 126475, Note_on_c, 11, 64, 0
15, 126480, Note_on_c, 11, 64, 76
15, 126480, Note_on_c, 11, 55, 76
15, 126515, Note_on_c, 11, 64, 0
15, 126515, Note_on_c, 11, 55, 0
15, 126520, Note_on_c, 11, 55, 76
15, 126520, Note_on_c, 11, 64, 76
15, 126555, Note_on_c, 11, 55, 0
15, 126555, Note_on_c, 11, 64, 0
15, 126560, Note_on_c, 11, 64, 76
15, 126560, Note_on_c, 11, 55, 76
15, 126595, Note_on_c, 11, 64, 0
15, 126595, Note_on_c, 11, 55, 0
15, 126600, Note_on_c, 11, 55, 76
15, 126600, Note_on_c, 11, 64, 76
15, 126635, Note_on_c, 11, 55, 0
15, 126635, Note_on_c, 11, 64, 0
15, 126640, Note_on_c, 11, 64, 76
15, 126640, Note_on_c, 11, 55, 76
15, 126675, Note_on_c, 11, 64, 0
15, 126675, Note_on_c, 11, 55, 0
15, 126680, Note_on_c, 11, 64, 76
15, 126680, Note_on_c, 11, 55, 76
15, 126715, Note_on_c, 11, 64, 0
15, 126715, Note_on_c, 11, 55, 0
15, 126720, Note_on_c, 11, 65, 84
15, 126720, Note_on_c, 11, 57, 84
15, 126839, Note_on_c, 11, 65, 0
15, 126839, Note_on_c, 11, 57, 0
15, 130680, Control_c, 11, 11, 64
15, 130920, Note_on_c, 11, 60, 84
15, 130920, Control_c, 11, 11, 64
15, 131002, Control_c, 11, 11, 65
15, 131039, Note_on_c, 11, 60, 0
15, 131040, Note_on_c, 11, 66, 84
15, 131084, Control_c, 11, 11, 66
15, 131166, Control_c, 11, 11, 67
15, 131248, Control_c, 11, 11, 68
15, 131279, Note_on_c, 11, 66, 0
15, 131280, Note_on_c, 11, 69, 84
15, 131330, Control_c, 11, 11, 69
15, 131399, Note_on_c, 11, 69, 0
15, 131400, Note_on_c, 11, 72, 84
15, 131411, Control_c, 11, 11, 70
15, 131493, Control_c, 11, 11, 71
15, 131575, Control_c, 11, 11, 72
15, 131639, Note_on_c, 11, 72, 0
15, 131640, Note_on_c, 11, 69, 84
15, 131657, Control_c, 11, 11, 73
15, 131739, Control_c, 11, 11, 74
15, 131751, Note_on_c, 11, 69, 0
15, 131760, Note_on_c, 11, 70, 84
15, 131821, Control_c, 11, 11, 75
15, 131903, Control_c, 11, 11, 76
15, 131985, Control_c, 11, 11, 77
15, 132067, Control_c, 11, 11, 78
15, 132149, Control_c, 11, 11, 79
15, 132230, Control_c, 11, 11, 80
15, 132312, Control_c, 11, 11, 81
15, 132351, Note_on_c, 11, 70, 0
15, 132360, Note_on_c, 11, 60, 84
15, 132394, Control_c, 11, 11, 82
15, 132476, Control_c, 11, 11, 83
15, 132479, Note_on_c, 11, 60, 0
15, 132480, Note_on_c, 11, 64, 84
15, 132558, Control_c, 11, 11, 84
15, 132640, Control_c, 11, 11, 85
15, 132719, Note_on_c, 11, 64, 0
15, 132720, Note_on_c, 11, 67, 84
15, 132722, Control_c, 11, 11, 86
15, 132804, Control_c, 11, 11, 87
15, 132839, Note_on_c, 11, 67, 0
15, 132840, Note_on_c, 11, 70, 84
15, 132886, Control_c, 11, 11, 88
15, 132968, Control_c, 11, 11, 89
15, 133050, Control_c, 11, 11, 90
15, 133079, Note_on_c, 11, 70, 0
15, 133080, Note_on_c, 11, 67, 84
15, 133131, Control_c, 11, 11, 91
15, 133191, Note_on_c, 11, 67, 0
15, 133200, Note_on_c, 11, 69, 84
15, 133213, Control_c, 11, 11, 92
15, 133295, Control_c, 11, 11, 93
15, 133311, Note_on_c, 11, 69, 0
15, 133320, Note_on_c, 11, 84, 84
15, 133377, Control_c, 11, 11, 94
15, 133431, Note_on_c, 11, 84, 0
15, 133440, Note_on_c, 11, 84, 84
15, 133459, Control_c, 11, 11, 95
15, 133541, Control_c, 11, 11, 96
15, 133551, Note_on_c, 11, 84, 0
15, 133560, Note_on_c, 11, 84, 84
15, 133623, Control_c, 11, 11, 97
15, 133679, Note_on_c, 11, 84, 0
15, 133680, Note_on_c, 11, 81, 84
15, 133705, Control_c, 11, 11, 98
15, 133787, Control_c, 11, 11, 99
15, 133791, Note_on_c, 11, 81, 0
15, 133800, Note_on_c, 11, 81, 84
15, 133869, Control_c, 11, 11, 100
15, 133889, Note_on_c, 11, 81, 0
15, 133920, Note_on_c, 11, 81, 84
15, 133950, Control_c, 11, 11, 101
15, 134032, Control_c, 11, 11, 102
15, 134039, Note_on_c, 11, 81, 0
15, 134040, Note_on_c, 11, 78, 84
15, 134114, Control_c, 11, 11, 103
15, 134151, Note_on_c, 11, 78, 0
15, 134160, Note_on_c, 11, 78, 84
15, 134196, Control_c, 11, 11, 104
15, 134249, Note_on_c, 11, 78, 0
15, 134278, Control_c, 11, 11, 105
15, 134280, Note_on_c, 11, 78, 84
15, 134360, Control_c, 11, 11, 106
15, 134399, Note_on_c, 11, 78, 0
15, 134400, Note_on_c, 11, 74, 84
15, 134442, Control_c, 11, 11, 107
15, 134511, Note_on_c, 11, 74, 0
15, 134520, Note_on_c, 11, 74, 84
15, 134524, Control_c, 11, 11, 108
15, 134606, Control_c, 11, 11, 109
15, 134609, Note_on_c, 11, 74, 0
15, 134640, Note_on_c, 11, 74, 84
15, 134688, Control_c, 11, 11, 110
15, 134759, Note_on_c, 11, 74, 0
15, 134760, Note_on_c, 11, 82, 84
15, 134770, Control_c, 11, 11, 111
15, 134851, Control_c, 11, 11, 112
15, 134871, Note_on_c, 11, 82, 0
15, 134880, Note_on_c, 11, 82, 84
15, 134933, Control_c, 11, 11, 113
15, 134969, Note_on_c, 11, 82, 0
15, 135000, Note_on_c, 11, 82, 84
15, 135015, Control_c, 11, 11, 114
15, 135097, Control_c, 11, 11, 115
15, 135119, Note_on_c, 11, 82, 0
15, 135120, Note_on_c, 11, 79, 84
15, 135179, Control_c, 11, 11, 116
15, 135231, Note_on_c, 11, 79, 0
15, 135240, Note_on_c, 11, 79, 84
15, 135261, Control_c, 11, 11, 117
15, 135329, Note_on_c, 11, 79, 0
15, 135343, Control_c, 11, 11, 118
15, 135360, Note_on_c, 11, 79, 84
15, 135425, Control_c, 11, 11, 119
15, 135479, Note_on_c, 11, 79, 0
15, 135480, Note_on_c, 11, 76, 84
15, 135507, Control_c, 11, 11, 120
15, 135589, Control_c, 11, 11, 121
15, 135591, Note_on_c, 11, 76, 0
15, 135600, Note_on_c, 11, 76, 84
15, 135670, Control_c, 11, 11, 122
15, 135689, Note_on_c, 11, 76, 0
15, 135720, Note_on_c, 11, 76, 84
15, 135752, Control_c, 11, 11, 123
15, 135834, Control_c, 11, 11, 124
15, 135839, Note_on_c, 11, 76, 0
15, 135840, Note_on_c, 11, 72, 84
15, 135916, Control_c, 11, 11, 125
15, 135959, Note_on_c, 11, 72, 0
15, 135960, Note_on_c, 11, 76, 84
15, 135998, Control_c, 11, 11, 127
15, 136071, Note_on_c, 11, 76, 0
15, 136080, Note_on_c, 11, 77, 84
15, 136115, Note_on_c, 11, 77, 0
15, 136120, Note_on_c, 11, 77, 84
15, 136155, Note_on_c, 11, 77, 0
15, 136160, Note_on_c, 11, 77, 84
15, 136195, Note_on_c, 11, 77, 0
15, 136200, Note_on_c, 11, 77, 84
15, 136235, Note_on_c, 11, 77, 0
15, 136240, Note_on_c, 11, 77, 84
15, 136275, Note_on_c, 11, 77, 0
15, 136280, Note_on_c, 11, 77, 84
15, 136315, Note_on_c, 11, 77, 0
15, 136320, Note_on_c, 11, 81, 84
15, 136355, Note_on_c, 11, 81, 0
15, 136360, Note_on_c, 11, 81, 84
15, 136395, Note_on_c, 11, 81, 0
15, 136400, Note_on_c, 11, 81, 84
15, 136435, Note_on_c, 11, 81, 0
15, 136440, Note_on_c, 11, 81, 84
15, 136475, Note_on_c, 11, 81, 0
15, 136480, Note_on_c, 11, 81, 84
15, 136515, Note_on_c, 11, 81, 0
15, 136520, Note_on_c, 11, 81, 84
15, 136555, Note_on_c, 11, 81, 0
15, 136560, Note_on_c, 11, 81, 84
15, 136595, Note_on_c, 11, 81, 0
15, 136600, Note_on_c, 11, 81, 84
15, 136635, Note_on_c, 11, 81, 0
15, 136640, Note_on_c, 11, 81, 84
15, 136675, Note_on_c, 11, 81, 0
15, 136680, Note_on_c, 11, 81, 84
15, 136715, Note_on_c, 11, 81, 0
15, 136720, Note_on_c, 11, 81, 84
15, 136755, Note_on_c, 11, 81, 0
15, 136760, Note_on_c, 11, 81, 84
15, 136795, Note_on_c, 11, 81, 0
15, 136800, Note_on_c, 11, 81, 84
15, 136835, Note_on_c, 11, 81, 0
15, 136840, Note_on_c, 11, 81, 84
15, 136875, Note_on_c, 11, 81, 0
15, 136880, Note_on_c, 11, 81, 84
15, 136915, Note_on_c, 11, 81, 0
15, 136920, Note_on_c, 11, 81, 84
15, 136955, Note_on_c, 11, 81, 0
15, 136960, Note_on_c, 11, 81, 84
15, 136995, Note_on_c, 11, 81, 0
15, 137000, Note_on_c, 11, 81, 84
15, 137035, Note_on_c, 11, 81, 0
15, 137040, Note_on_c, 11, 81, 84
15, 137075, Note_on_c, 11, 81, 0
15, 137080, Note_on_c, 11, 81, 84
15, 137115, Note_on_c, 11, 81, 0
15, 137120, Note_on_c, 11, 81, 84
15, 137155, Note_on_c, 11, 81, 0
15, 137160, Note_on_c, 11, 81, 84
15, 137195, Note_on_c, 11, 81, 0
15, 137200, Note_on_c, 11, 81, 84
15, 137235, Note_on_c, 11, 81, 0
15, 137240, Note_on_c, 11, 81, 84
15, 137275, Note_on_c, 11, 81, 0
15, 137280, Note_on_c, 11, 81, 84
15, 137315, Note_on_c, 11, 81, 0
15, 137320, Note_on_c, 11, 81, 84
15, 137355, Note_on_c, 11, 81, 0
15, 137360, Note_on_c, 11, 81, 84
15, 137395, Note_on_c, 11, 81, 0
15, 137400, Note_on_c, 11, 81, 84
15, 137435, Note_on_c, 11, 81, 0
15, 137440, Note_on_c, 11, 81, 84
15, 137475, Note_on_c, 11, 81, 0
15, 137480, Note_on_c, 11, 81, 84
15, 137515, Note_on_c, 11, 81, 0
15, 137520, Note_on_c, 11, 77, 84
15, 137555, Note_on_c, 11, 77, 0
15, 137560, Note_on_c, 11, 77, 84
15, 137595, Note_on_c, 11, 77, 0
15, 137600, Note_on_c, 11, 77, 84
15, 137635, Note_on_c, 11, 77, 0
15, 137640, Note_on_c, 11, 77, 84
15, 137675, Note_on_c, 11, 77, 0
15, 137680, Note_on_c, 11, 77, 84
15, 137715, Note_on_c, 11, 77, 0
15, 137720, Note_on_c, 11, 77, 84
15, 137755, Note_on_c, 11, 77, 0
15, 137760, Note_on_c, 11, 77, 84
15, 137795, Note_on_c, 11, 77, 0
15, 137800, Note_on_c, 11, 77, 84
15, 137835, Note_on_c, 11, 77, 0
15, 137840, Note_on_c, 11, 77, 84
15, 137875, Note_on_c, 11, 77, 0
15, 137880, Note_on_c, 11, 81, 84
15, 137915, Note_on_c, 11, 81, 0
15, 137920, Note_on_c, 11, 81, 84
15, 137955, Note_on_c, 11, 81, 0
15, 137960, Note_on_c, 11, 81, 84
15, 137995, Note_on_c, 11, 81, 0
15, 138000, Note_on_c, 11, 81, 84
15, 138035, Note_on_c, 11, 81, 0
15, 138040, Note_on_c, 11, 81, 84
15, 138075, Note_on_c, 11, 81, 0
15, 138080, Note_on_c, 11, 81, 84
15, 138115, Note_on_c, 11, 81, 0
15, 138120, Note_on_c, 11, 81, 84
15, 138155, Note_on_c, 11, 81, 0
15, 138160, Note_on_c, 11, 81, 84
15, 138195, Note_on_c, 11, 81, 0
15, 138200, Note_on_c, 11, 81, 84
15, 138235, Note_on_c, 11, 81, 0
15, 138240, Note_on_c, 11, 81, 84
15, 138275, Note_on_c, 11, 81, 0
15, 138280, Note_on_c, 11, 81, 84
15, 138315, Note_on_c, 11, 81, 0
15, 138320, Note_on_c, 11, 81, 84
15, 138355, Note_on_c, 11, 81, 0
15, 138360, Note_on_c, 11, 81, 84
15, 138395, Note_on_c, 11, 81, 0
15, 138400, Note_on_c, 11, 81, 84
15, 138435, Note_on_c, 11, 81, 0
15, 138440, Note_on_c, 11, 81, 84
15, 138475, Note_on_c, 11, 81, 0
15, 138480, Note_on_c, 11, 81, 84
15, 138515, Note_on_c, 11, 81, 0
15, 138520, Note_on_c, 11, 81, 84
15, 138555, Note_on_c, 11, 81, 0
15, 138560, Note_on_c, 11, 81, 84
15, 138595, Note_on_c, 11, 81, 0
15, 138600, Note_on_c, 11, 81, 84
15, 138635, Note_on_c, 11, 81, 0
15, 138640, Note_on_c, 11, 81, 84
15, 138675, Note_on_c, 11, 81, 0
15, 138680, Note_on_c, 11, 81, 84
15, 138715, Note_on_c, 11, 81, 0
15, 138720, Note_on_c, 11, 81, 84
15, 138755, Note_on_c, 11, 81, 0
15, 138760, Note_on_c, 11, 81, 84
15, 138795, Note_on_c, 11, 81, 0
15, 138800, Note_on_c, 11, 81, 84
15, 138835, Note_on_c, 11, 81, 0
15, 138840, Note_on_c, 11, 81, 84
15, 138875, Note_on_c, 11, 81, 0
15, 138880, Note_on_c, 11, 81, 84
15, 138915, Note_on_c, 11, 81, 0
15, 138920, Note_on_c, 11, 81, 84
15, 138955, Note_on_c, 11, 81, 0
15, 138960, Note_on_c, 11, 74, 84
15, 138995, Note_on_c, 11, 74, 0
15, 139000, Note_on_c, 11, 74, 84
15, 139035, Note_on_c, 11, 74, 0
15, 139040, Note_on_c, 11, 74, 84
15, 139075, Note_on_c, 11, 74, 0
15, 139080, Note_on_c, 11, 74, 84
15, 139115, Note_on_c, 11, 74, 0
15, 139120, Note_on_c, 11, 74, 84
15, 139155, Note_on_c, 11, 74, 0
15, 139160, Note_on_c, 11, 74, 84
15, 139195, Note_on_c, 11, 74, 0
15, 139200, Note_on_c, 11, 83, 84
15, 139235, Note_on_c, 11, 83, 0
15, 139240, Note_on_c, 11, 83, 84
15, 139275, Note_on_c, 11, 83, 0
15, 139280, Note_on_c, 11, 83, 84
15, 139315, Note_on_c, 11, 83, 0
15, 139320, Note_on_c, 11, 86, 84
15, 139355, Note_on_c, 11, 86, 0
15, 139360, Note_on_c, 11, 86, 84
15, 139395, Note_on_c, 11, 86, 0
15, 139400, Note_on_c, 11, 86, 84
15, 139435, Note_on_c, 11, 86, 0
15, 139440, Note_on_c, 11, 86, 84
15, 139475, Note_on_c, 11, 86, 0
15, 139480, Note_on_c, 11, 86, 84
15, 139515, Note_on_c, 11, 86, 0
15, 139520, Note_on_c, 11, 86, 84
15, 139555, Note_on_c, 11, 86, 0
15, 139560, Note_on_c, 11, 86, 84
15, 139595, Note_on_c, 11, 86, 0
15, 139600, Note_on_c, 11, 86, 84
15, 139635, Note_on_c, 11, 86, 0
15, 139640, Note_on_c, 11, 86, 84
15, 139675, Note_on_c, 11, 86, 0
15, 139680, Note_on_c, 11, 86, 84
15, 139715, Note_on_c, 11, 86, 0
15, 139720, Note_on_c, 11, 86, 82
15, 139755, Note_on_c, 11, 86, 0
15, 139760, Note_on_c, 11, 86, 80
15, 139795, Note_on_c, 11, 86, 0
15, 139800, Note_on_c, 11, 86, 78
15, 139835, Note_on_c, 11, 86, 0
15, 139840, Note_on_c, 11, 86, 76
15, 139875, Note_on_c, 11, 86, 0
15, 139880, Note_on_c, 11, 86, 73
15, 139915, Note_on_c, 11, 86, 0
15, 139920, Note_on_c, 11, 86, 71
15, 139955, Note_on_c, 11, 86, 0
15, 139960, Note_on_c, 11, 86, 69
15, 139995, Note_on_c, 11, 86, 0
15, 140000, Note_on_c, 11, 86, 67
15, 140035, Note_on_c, 11, 86, 0
15, 140040, Note_on_c, 11, 86, 64
15, 140075, Note_on_c, 11, 86, 0
15, 140080, Note_on_c, 11, 86, 62
15, 140115, Note_on_c, 11, 86, 0
15, 140120, Note_on_c, 11, 86, 60
15, 140155, Note_on_c, 11, 86, 0
15, 140160, Note_on_c, 11, 86, 58
15, 140195, Note_on_c, 11, 86, 0
15, 140200, Note_on_c, 11, 86, 56
15, 140235, Note_on_c, 11, 86, 0
15, 140240, Note_on_c, 11, 86, 53
15, 140275, Note_on_c, 11, 86, 0
15, 140280, Note_on_c, 11, 86, 51
15, 140315, Note_on_c, 11, 86, 0
15, 140320, Note_on_c, 11, 86, 49
15, 140355, Note_on_c, 11, 86, 0
15, 140360, Note_on_c, 11, 86, 47
15, 140395, Note_on_c, 11, 86, 0
15, 140400, Note_on_c, 11, 65, 44
15, 140459, Note_on_c, 11, 65, 0
15, 140460, Note_on_c, 11, 62, 44
15, 140519, Note_on_c, 11, 62, 0
15, 140520, Note_on_c, 11, 65, 44
15, 140579, Note_on_c, 11, 65, 0
15, 140580, Note_on_c, 11, 62, 44
15, 140639, Note_on_c, 11, 62, 0
15, 140640, Note_on_c, 11, 65, 44
15, 140699, Note_on_c, 11, 65, 0
15, 140700, Note_on_c, 11, 62, 44
15, 140759, Note_on_c, 11, 62, 0
15, 140760, Note_on_c, 11, 65, 44
15, 140819, Note_on_c, 11, 65, 0
15, 140820, Note_on_c, 11, 62, 44
15, 140879, Note_on_c, 11, 62, 0
15, 140880, Note_on_c, 11, 65, 44
15, 140939, Note_on_c, 11, 65, 0
15, 140940, Note_on_c, 11, 62, 44
15, 140999, Note_on_c, 11, 62, 0
15, 141000, Note_on_c, 11, 65, 44
15, 141059, Note_on_c, 11, 65, 0
15, 141060, Note_on_c, 11, 62, 44
15, 141115, Note_on_c, 11, 62, 0
15, 141120, Note_on_c, 11, 65, 44
15, 141179, Note_on_c, 11, 65, 0
15, 141180, Note_on_c, 11, 62, 44
15, 141239, Note_on_c, 11, 62, 0
15, 141240, Note_on_c, 11, 65, 44
15, 141299, Note_on_c, 11, 65, 0
15, 141300, Note_on_c, 11, 62, 44
15, 141359, Note_on_c, 11, 62, 0
15, 141360, Note_on_c, 11, 65, 44
15, 141419, Note_on_c, 11, 65, 0
15, 141420, Note_on_c, 11, 62, 44
15, 141479, Note_on_c, 11, 62, 0
15, 141480, Note_on_c, 11, 65, 44
15, 141539, Note_on_c, 11, 65, 0
15, 141540, Note_on_c, 11, 62, 44
15, 141599, Note_on_c, 11, 62, 0
15, 141600, Note_on_c, 11, 65, 44
15, 141659, Note_on_c, 11, 65, 0
15, 141660, Note_on_c, 11, 62, 44
15, 141719, Note_on_c, 11, 62, 0
15, 141720, Note_on_c, 11, 65, 44
15, 141779, Note_on_c, 11, 65, 0
15, 141780, Note_on_c, 11, 62, 44
15, 141835, Note_on_c, 11, 62, 0
15, 141840, Note_on_c, 11, 65, 44
15, 141899, Note_on_c, 11, 65, 0
15, 141900, Note_on_c, 11, 62, 44
15, 141959, Note_on_c, 11, 62, 0
15, 141960, Note_on_c, 11, 65, 44
15, 142019, Note_on_c, 11, 65, 0
15, 142020, Note_on_c, 11, 62, 45
15, 142079, Note_on_c, 11, 62, 0
15, 142080, Note_on_c, 11, 65, 45
15, 142139, Note_on_c, 11, 65, 0
15, 142140, Note_on_c, 11, 62, 46
15, 142199, Note_on_c, 11, 62, 0
15, 142200, Note_on_c, 11, 65, 46
15, 142259, Note_on_c, 11, 65, 0
15, 142260, Note_on_c, 11, 62, 47
15, 142319, Note_on_c, 11, 62, 0
15, 142320, Note_on_c, 11, 65, 47
15, 142379, Note_on_c, 11, 65, 0
15, 142380, Note_on_c, 11, 62, 48
15, 142439, Note_on_c, 11, 62, 0
15, 142440, Note_on_c, 11, 65, 48
15, 142499, Note_on_c, 11, 65, 0
15, 142500, Note_on_c, 11, 62, 49
15, 142555, Note_on_c, 11, 62, 0
15, 142560, Note_on_c, 11, 65, 49
15, 142619, Note_on_c, 11, 65, 0
15, 142620, Note_on_c, 11, 62, 49
15, 142679, Note_on_c, 11, 62, 0
15, 142680, Note_on_c, 11, 65, 50
15, 142739, Note_on_c, 11, 65, 0
15, 142740, Note_on_c, 11, 62, 50
15, 142799, Note_on_c, 11, 62, 0
15, 142800, Note_on_c, 11, 65, 51
15, 142859, Note_on_c, 11, 65, 0
15, 142860, Note_on_c, 11, 62, 51
15, 142919, Note_on_c, 11, 62, 0
15, 142920, Note_on_c, 11, 65, 52
15, 142979, Note_on_c, 11, 65, 0
15, 142980, Note_on_c, 11, 62, 52
15, 143039, Note_on_c, 11, 62, 0
15, 143040, Note_on_c, 11, 65, 53
15, 143099, Note_on_c, 11, 65, 0
15, 143100, Note_on_c, 11, 62, 53
15, 143159, Note_on_c, 11, 62, 0
15, 143160, Note_on_c, 11, 65, 54
15, 143219, Note_on_c, 11, 65, 0
15, 143220, Note_on_c, 11, 62, 54
15, 143275, Note_on_c, 11, 62, 0
15, 143280, Note_on_c, 11, 64, 54
15, 143339, Note_on_c, 11, 64, 0
15, 143340, Note_on_c, 11, 60, 55
15, 143399, Note_on_c, 11, 60, 0
15, 143400, Note_on_c, 11, 64, 55
15, 143459, Note_on_c, 11, 64, 0
15, 143460, Note_on_c, 11, 60, 56
15, 143519, Note_on_c, 11, 60, 0
15, 143520, Note_on_c, 11, 64, 56
15, 143579, Note_on_c, 11, 64, 0
15, 143580, Note_on_c, 11, 60, 57
15, 143639, Note_on_c, 11, 60, 0
15, 143640, Note_on_c, 11, 64, 57
15, 143699, Note_on_c, 11, 64, 0
15, 143700, Note_on_c, 11, 60, 58
15, 143759, Note_on_c, 11, 60, 0
15, 143760, Note_on_c, 11, 64, 58
15, 143819, Note_on_c, 11, 64, 0
15, 143820, Note_on_c, 11, 60, 59
15, 143879, Note_on_c, 11, 60, 0
15, 143880, Note_on_c, 11, 64, 59
15, 143939, Note_on_c, 11, 64, 0
15, 143940, Note_on_c, 11, 60, 60
15, 143995, Note_on_c, 11, 60, 0
15, 144000, Note_on_c, 11, 64, 60
15, 144059, Note_on_c, 11, 64, 0
15, 144060, Note_on_c, 11, 60, 60
15, 144119, Note_on_c, 11, 60, 0
15, 144120, Note_on_c, 11, 64, 61
15, 144179, Note_on_c, 11, 64, 0
15, 144180, Note_on_c, 11, 60, 61
15, 144239, Note_on_c, 11, 60, 0
15, 144240, Note_on_c, 11, 64, 62
15, 144299, Note_on_c, 11, 64, 0
15, 144300, Note_on_c, 11, 60, 62
15, 144359, Note_on_c, 11, 60, 0
15, 144360, Note_on_c, 11, 64, 63
15, 144419, Note_on_c, 11, 64, 0
15, 144420, Note_on_c, 11, 60, 63
15, 144479, Note_on_c, 11, 60, 0
15, 144480, Note_on_c, 11, 64, 64
15, 144539, Note_on_c, 11, 64, 0
15, 144540, Note_on_c, 11, 60, 64
15, 144599, Note_on_c, 11, 60, 0
15, 144600, Note_on_c, 11, 64, 65
15, 144659, Note_on_c, 11, 64, 0
15, 144660, Note_on_c, 11, 60, 65
15, 144715, Note_on_c, 11, 60, 0
15, 144720, Note_on_c, 11, 64, 65
15, 144779, Note_on_c, 11, 64, 0
15, 144780, Note_on_c, 11, 58, 66
15, 144839, Note_on_c, 11, 58, 0
15, 144840, Note_on_c, 11, 64, 66
15, 144899, Note_on_c, 11, 64, 0
15, 144900, Note_on_c, 11, 58, 67
15, 144959, Note_on_c, 11, 58, 0
15, 144960, Note_on_c, 11, 64, 67
15, 145019, Note_on_c, 11, 64, 0
15, 145020, Note_on_c, 11, 58, 68
15, 145079, Note_on_c, 11, 58, 0
15, 145080, Note_on_c, 11, 64, 68
15, 145139, Note_on_c, 11, 64, 0
15, 145140, Note_on_c, 11, 58, 69
15, 145199, Note_on_c, 11, 58, 0
15, 145200, Note_on_c, 11, 64, 69
15, 145259, Note_on_c, 11, 64, 0
15, 145260, Note_on_c, 11, 58, 70
15, 145319, Note_on_c, 11, 58, 0
15, 145320, Note_on_c, 11, 64, 70
15, 145379, Note_on_c, 11, 64, 0
15, 145380, Note_on_c, 11, 58, 70
15, 145435, Note_on_c, 11, 58, 0
15, 145440, Note_on_c, 11, 64, 71
15, 145499, Note_on_c, 11, 64, 0
15, 145500, Note_on_c, 11, 58, 71
15, 145559, Note_on_c, 11, 58, 0
15, 145560, Note_on_c, 11, 64, 72
15, 145619, Note_on_c, 11, 64, 0
15, 145620, Note_on_c, 11, 58, 72
15, 145679, Note_on_c, 11, 58, 0
15, 145680, Note_on_c, 11, 64, 73
15, 145739, Note_on_c, 11, 64, 0
15, 145740, Note_on_c, 11, 58, 73
15, 145795, Note_on_c, 11, 58, 0
15, 145800, Note_on_c, 11, 64, 74
15, 145859, Note_on_c, 11, 64, 0
15, 145860, Note_on_c, 11, 58, 74
15, 145919, Note_on_c, 11, 58, 0
15, 145920, Note_on_c, 11, 64, 75
15, 145979, Note_on_c, 11, 64, 0
15, 145980, Note_on_c, 11, 58, 75
15, 146035, Note_on_c, 11, 58, 0
15, 146040, Note_on_c, 11, 55, 76
15, 146040, Note_on_c, 11, 64, 76
15, 146075, Note_on_c, 11, 55, 0
15, 146075, Note_on_c, 11, 64, 0
15, 146080, Note_on_c, 11, 55, 76
15, 146080, Note_on_c, 11, 64, 76
15, 146115, Note_on_c, 11, 55, 0
15, 146115, Note_on_c, 11, 64, 0
15, 146120, Note_on_c, 11, 55, 76
15, 146120, Note_on_c, 11, 64, 76
15, 146155, Note_on_c, 11, 55, 0
15, 146155, Note_on_c, 11, 64, 0
15, 146160, Note_on_c, 11, 55, 76
15, 146160, Note_on_c, 11, 64, 76
15, 146195, Note_on_c, 11, 55, 0
15, 146195, Note_on_c, 11, 64, 0
15, 146200, Note_on_c, 11, 64, 76
15, 146200, Note_on_c, 11, 55, 76
15, 146235, Note_on_c, 11, 64, 0
15, 146235, Note_on_c, 11, 55, 0
15, 146240, Note_on_c, 11, 64, 76
15, 146240, Note_on_c, 11, 55, 76
15, 146275, Note_on_c, 11, 64, 0
15, 146275, Note_on_c, 11, 55, 0
15, 146280, Note_on_c, 11, 64, 76
15, 146280, Note_on_c, 11, 55, 76
15, 146315, Note_on_c, 11, 64, 0
15, 146315, Note_on_c, 11, 55, 0
15, 146320, Note_on_c, 11, 64, 76
15, 146320, Note_on_c, 11, 55, 76
15, 146355, Note_on_c, 11, 64, 0
15, 146355, Note_on_c, 11, 55, 0
15, 146360, Note_on_c, 11, 55, 76
15, 146360, Note_on_c, 11, 64, 76
15, 146395, Note_on_c, 11, 55, 0
15, 146395, Note_on_c, 11, 64, 0
15, 146400, Note_on_c, 11, 55, 76
15, 146400, Note_on_c, 11, 64, 76
15, 146435, Note_on_c, 11, 55, 0
15, 146435, Note_on_c, 11, 64, 0
15, 146440, Note_on_c, 11, 55, 76
15, 146440, Note_on_c, 11, 64, 76
15, 146475, Note_on_c, 11, 55, 0
15, 146475, Note_on_c, 11, 64, 0
15, 146480, Note_on_c, 11, 55, 76
15, 146480, Note_on_c, 11, 64, 76
15, 146515, Note_on_c, 11, 55, 0
15, 146515, Note_on_c, 11, 64, 0
15, 146520, Note_on_c, 11, 64, 76
15, 146520, Note_on_c, 11, 55, 76
15, 146555, Note_on_c, 11, 64, 0
15, 146555, Note_on_c, 11, 55, 0
15, 146560, Note_on_c, 11, 55, 76
15, 146560, Note_on_c, 11, 64, 76
15, 146595, Note_on_c, 11, 55, 0
15, 146595, Note_on_c, 11, 64, 0
15, 146600, Note_on_c, 11, 55, 76
15, 146600, Note_on_c, 11, 64, 76
15, 146635, Note_on_c, 11, 55, 0
15, 146635, Note_on_c, 11, 64, 0
15, 146640, Note_on_c, 11, 55, 76
15, 146640, Note_on_c, 11, 64, 76
15, 146675, Note_on_c, 11, 55, 0
15, 146675, Note_on_c, 11, 64, 0
15, 146680, Note_on_c, 11, 64, 76
15, 146680, Note_on_c, 11, 55, 76
15, 146715, Note_on_c, 11, 64, 0
15, 146715, Note_on_c, 11, 55, 0
15, 146720, Note_on_c, 11, 55, 76
15, 146720, Note_on_c, 11, 64, 76
15, 146755, Note_on_c, 11, 55, 0
15, 146755, Note_on_c, 11, 64, 0
15, 146760, Note_on_c, 11, 64, 76
15, 146760, Note_on_c, 11, 55, 76
15, 146795, Note_on_c, 11, 64, 0
15, 146795, Note_on_c, 11, 55, 0
15, 146800, Note_on_c, 11, 55, 76
15, 146800, Note_on_c, 11, 64, 76
15, 146835, Note_on_c, 11, 55, 0
15, 146835, Note_on_c, 11, 64, 0
15, 146840, Note_on_c, 11, 64, 76
15, 146840, Note_on_c, 11, 55, 76
15, 146875, Note_on_c, 11, 64, 0
15, 146875, Note_on_c, 11, 55, 0
15, 146880, Note_on_c, 11, 55, 76
15, 146880, Note_on_c, 11, 64, 76
15, 146915, Note_on_c, 11, 55, 0
15, 146915, Note_on_c, 11, 64, 0
15, 146920, Note_on_c, 11, 55, 76
15, 146920, Note_on_c, 11, 64, 76
15, 146955, Note_on_c, 11, 55, 0
15, 146955, Note_on_c, 11, 64, 0
15, 146960, Note_on_c, 11, 55, 76
15, 146960, Note_on_c, 11, 64, 76
15, 146995, Note_on_c, 11, 55, 0
15, 146995, Note_on_c, 11, 64, 0
15, 147000, Note_on_c, 11, 64, 76
15, 147000, Note_on_c, 11, 55, 76
15, 147035, Note_on_c, 11, 64, 0
15, 147035, Note_on_c, 11, 55, 0
15, 147040, Note_on_c, 11, 55, 76
15, 147040, Note_on_c, 11, 64, 76
15, 147075, Note_on_c, 11, 55, 0
15, 147075, Note_on_c, 11, 64, 0
15, 147080, Note_on_c, 11, 55, 76
15, 147080, Note_on_c, 11, 64, 76
15, 147115, Note_on_c, 11, 55, 0
15, 147115, Note_on_c, 11, 64, 0
15, 147120, Note_on_c, 11, 55, 76
15, 147120, Note_on_c, 11, 64, 76
15, 147155, Note_on_c, 11, 55, 0
15, 147155, Note_on_c, 11, 64, 0
15, 147160, Note_on_c, 11, 55, 76
15, 147160, Note_on_c, 11, 64, 76
15, 147195, Note_on_c, 11, 55, 0
15, 147195, Note_on_c, 11, 64, 0
15, 147200, Note_on_c, 11, 55, 76
15, 147200, Note_on_c, 11, 64, 76
15, 147235, Note_on_c, 11, 55, 0
15, 147235, Note_on_c, 11, 64, 0
15, 147240, Note_on_c, 11, 64, 76
15, 147240, Note_on_c, 11, 55, 76
15, 147275, Note_on_c, 11, 64, 0
15, 147275, Note_on_c, 11, 55, 0
15, 147280, Note_on_c, 11, 64, 76
15, 147280, Note_on_c, 11, 55, 76
15, 147315, Note_on_c, 11, 64, 0
15, 147315, Note_on_c, 11, 55, 0
15, 147320, Note_on_c, 11, 55, 76
15, 147320, Note_on_c, 11, 64, 76
15, 147355, Note_on_c, 11, 55, 0
15, 147355, Note_on_c, 11, 64, 0
15, 147360, Note_on_c, 11, 55, 76
15, 147360, Note_on_c, 11, 64, 76
15, 147395, Note_on_c, 11, 55, 0
15, 147395, Note_on_c, 11, 64, 0
15, 147400, Note_on_c, 11, 55, 76
15, 147400, Note_on_c, 11, 64, 76
15, 147435, Note_on_c, 11, 55, 0
15, 147435, Note_on_c, 11, 64, 0
15, 147440, Note_on_c, 11, 55, 76
15, 147440, Note_on_c, 11, 64, 76
15, 147475, Note_on_c, 11, 55, 0
15, 147475, Note_on_c, 11, 64, 0
15, 147480, Note_on_c, 11, 64, 76
15, 147480, Note_on_c, 11, 55, 76
15, 147515, Note_on_c, 11, 64, 0
15, 147515, Note_on_c, 11, 55, 0
15, 147520, Note_on_c, 11, 64, 76
15, 147520, Note_on_c, 11, 55, 76
15, 147555, Note_on_c, 11, 64, 0
15, 147555, Note_on_c, 11, 55, 0
15, 147560, Note_on_c, 11, 55, 76
15, 147560, Note_on_c, 11, 64, 76
15, 147595, Note_on_c, 11, 55, 0
15, 147595, Note_on_c, 11, 64, 0
15, 147600, Note_on_c, 11, 65, 84
15, 147600, Note_on_c, 11, 57, 84
15, 147839, Note_on_c, 11, 65, 0
15, 147839, Note_on_c, 11, 57, 0
15, 151740, Note_on_c, 11, 60, 52
15, 151799, Note_on_c, 11, 60, 0
15, 151800, Note_on_c, 11, 62, 52
15, 151859, Note_on_c, 11, 62, 0
15, 151860, Note_on_c, 11, 64, 52
15, 151919, Note_on_c, 11, 64, 0
15, 151920, Note_on_c, 11, 66, 52
15, 151979, Note_on_c, 11, 66, 0
15, 151980, Note_on_c, 11, 67, 52
15, 152039, Note_on_c, 11, 67, 0
15, 152040, Note_on_c, 11, 66, 52
15, 152099, Note_on_c, 11, 66, 0
15, 152100, Note_on_c, 11, 64, 53
15, 152159, Note_on_c, 11, 64, 0
15, 152160, Note_on_c, 11, 66, 53
15, 152219, Note_on_c, 11, 66, 0
15, 152220, Note_on_c, 11, 67, 53
15, 152279, Note_on_c, 11, 67, 0
15, 152280, Note_on_c, 11, 69, 54
15, 152339, Note_on_c, 11, 69, 0
15, 152340, Note_on_c, 11, 70, 54
15, 152399, Note_on_c, 11, 70, 0
15, 152400, Note_on_c, 11, 72, 55
15, 152459, Note_on_c, 11, 72, 0
15, 152460, Note_on_c, 11, 70, 55
15, 152519, Note_on_c, 11, 70, 0
15, 152520, Note_on_c, 11, 72, 55
15, 152579, Note_on_c, 11, 72, 0
15, 152580, Note_on_c, 11, 69, 56
15, 152635, Note_on_c, 11, 69, 0
15, 152640, Note_on_c, 11, 70, 56
15, 152699, Note_on_c, 11, 70, 0
15, 152700, Note_on_c, 11, 72, 56
15, 152759, Note_on_c, 11, 72, 0
15, 152760, Note_on_c, 11, 70, 57
15, 152819, Note_on_c, 11, 70, 0
15, 152820, Note_on_c, 11, 69, 57
15, 152879, Note_on_c, 11, 69, 0
15, 152880, Note_on_c, 11, 70, 58
15, 152939, Note_on_c, 11, 70, 0
15, 152940, Note_on_c, 11, 69, 58
15, 152999, Note_on_c, 11, 69, 0
15, 153000, Note_on_c, 11, 67, 58
15, 153059, Note_on_c, 11, 67, 0
15, 153060, Note_on_c, 11, 69, 59
15, 153119, Note_on_c, 11, 69, 0
15, 153120, Note_on_c, 11, 67, 59
15, 153179, Note_on_c, 11, 67, 0
15, 153180, Note_on_c, 11, 65, 60
15, 153239, Note_on_c, 11, 65, 0
15, 153240, Note_on_c, 11, 67, 60
15, 153299, Note_on_c, 11, 67, 0
15, 153300, Note_on_c, 11, 65, 60
15, 153355, Note_on_c, 11, 65, 0
15, 153360, Note_on_c, 11, 64, 61
15, 153419, Note_on_c, 11, 64, 0
15, 153420, Note_on_c, 11, 65, 61
15, 153479, Note_on_c, 11, 65, 0
15, 153480, Note_on_c, 11, 64, 61
15, 153539, Note_on_c, 11, 64, 0
15, 153540, Note_on_c, 11, 62, 62
15, 153599, Note_on_c, 11, 62, 0
15, 153600, Note_on_c, 11, 64, 62
15, 153659, Note_on_c, 11, 64, 0
15, 153660, Note_on_c, 11, 65, 63
15, 153719, Note_on_c, 11, 65, 0
15, 153720, Note_on_c, 11, 67, 63
15, 153779, Note_on_c, 11, 67, 0
15, 153780, Note_on_c, 11, 69, 63
15, 153839, Note_on_c, 11, 69, 0
15, 153840, Note_on_c, 11, 70, 64
15, 153899, Note_on_c, 11, 70, 0
15, 153900, Note_on_c, 11, 69, 64
15, 153959, Note_on_c, 11, 69, 0
15, 153960, Note_on_c, 11, 70, 64
15, 154019, Note_on_c, 11, 70, 0
15, 154020, Note_on_c, 11, 67, 65
15, 154075, Note_on_c, 11, 67, 0
15, 154080, Note_on_c, 11, 69, 65
15, 154139, Note_on_c, 11, 69, 0
15, 154140, Note_on_c, 11, 70, 66
15, 154199, Note_on_c, 11, 70, 0
15, 154200, Note_on_c, 11, 72, 66
15, 154259, Note_on_c, 11, 72, 0
15, 154260, Note_on_c, 11, 70, 66
15, 154319, Note_on_c, 11, 70, 0
15, 154320, Note_on_c, 11, 69, 67
15, 154379, Note_on_c, 11, 69, 0
15, 154380, Note_on_c, 11, 67, 67
15, 154435, Note_on_c, 11, 67, 0
15, 154440, Note_on_c, 11, 66, 68
15, 154499, Note_on_c, 11, 66, 0
15, 154500, Note_on_c, 11, 67, 68
15, 154559, Note_on_c, 11, 67, 0
15, 154560, Note_on_c, 11, 69, 68
15, 154619, Note_on_c, 11, 69, 0
15, 154620, Note_on_c, 11, 67, 69
15, 154679, Note_on_c, 11, 67, 0
15, 154680, Note_on_c, 11, 66, 69
15, 154739, Note_on_c, 11, 66, 0
15, 154740, Note_on_c, 11, 64, 69
15, 154795, Note_on_c, 11, 64, 0
15, 154800, Note_on_c, 11, 62, 70
15, 154859, Note_on_c, 11, 62, 0
15, 154860, Note_on_c, 11, 64, 70
15, 154919, Note_on_c, 11, 64, 0
15, 154920, Note_on_c, 11, 62, 71
15, 154979, Note_on_c, 11, 62, 0
15, 154980, Note_on_c, 11, 61, 71
15, 155039, Note_on_c, 11, 61, 0
15, 155040, Note_on_c, 11, 62, 71
15, 155099, Note_on_c, 11, 62, 0
15, 155100, Note_on_c, 11, 64, 72
15, 155159, Note_on_c, 11, 64, 0
15, 155160, Note_on_c, 11, 66, 72
15, 155219, Note_on_c, 11, 66, 0
15, 155220, Note_on_c, 11, 67, 72
15, 155279, Note_on_c, 11, 67, 0
15, 155280, Note_on_c, 11, 69, 73
15, 155339, Note_on_c, 11, 69, 0
15, 155340, Note_on_c, 11, 67, 73
15, 155399, Note_on_c, 11, 67, 0
15, 155400, Note_on_c, 11, 69, 74
15, 155459, Note_on_c, 11, 69, 0
15, 155460, Note_on_c, 11, 66, 74
15, 155515, Note_on_c, 11, 66, 0
15, 155520, Note_on_c, 11, 67, 74
15, 155579, Note_on_c, 11, 67, 0
15, 155580, Note_on_c, 11, 66, 75
15, 155639, Note_on_c, 11, 66, 0
15, 155640, Note_on_c, 11, 67, 75
15, 155699, Note_on_c, 11, 67, 0
15, 155700, Note_on_c, 11, 69, 76
15, 155759, Note_on_c, 11, 69, 0
15, 155760, Note_on_c, 11, 67, 76
15, 155819, Note_on_c, 11, 67, 0
15, 155820, Note_on_c, 11, 69, 76
15, 155879, Note_on_c, 11, 69, 0
15, 155880, Note_on_c, 11, 70, 77
15, 155939, Note_on_c, 11, 70, 0
15, 155940, Note_on_c, 11, 69, 77
15, 155999, Note_on_c, 11, 69, 0
15, 156000, Note_on_c, 11, 70, 77
15, 156059, Note_on_c, 11, 70, 0
15, 156060, Note_on_c, 11, 71, 78
15, 156119, Note_on_c, 11, 71, 0
15, 156120, Note_on_c, 11, 69, 78
15, 156179, Note_on_c, 11, 69, 0
15, 156180, Note_on_c, 11, 71, 79
15, 156235, Note_on_c, 11, 71, 0
15, 156240, Note_on_c, 11, 72, 79
15, 156299, Note_on_c, 11, 72, 0
15, 156300, Note_on_c, 11, 74, 79
15, 156359, Note_on_c, 11, 74, 0
15, 156360, Note_on_c, 11, 72, 80
15, 156419, Note_on_c, 11, 72, 0
15, 156420, Note_on_c, 11, 71, 80
15, 156479, Note_on_c, 11, 71, 0
15, 156480, Note_on_c, 11, 72, 80
15, 156539, Note_on_c, 11, 72, 0
15, 156540, Note_on_c, 11, 74, 81
15, 156599, Note_on_c, 11, 74, 0
15, 156600, Note_on_c, 11, 76, 81
15, 156659, Note_on_c, 11, 76, 0
15, 156660, Note_on_c, 11, 77, 82
15, 156719, Note_on_c, 11, 77, 0
15, 156720, Note_on_c, 11, 79, 82
15, 156779, Note_on_c, 11, 79, 0
15, 156780, Note_on_c, 11, 76, 82
15, 156839, Note_on_c, 11, 76, 0
15, 156840, Note_on_c, 11, 77, 83
15, 156899, Note_on_c, 11, 77, 0
15, 156900, Note_on_c, 11, 79, 83
15, 156955, Note_on_c, 11, 79, 0
15, 156960, Note_on_c, 11, 81, 84
15, 156995, Note_on_c, 11, 81, 0
15, 157000, Note_on_c, 11, 81, 84
15, 157035, Note_on_c, 11, 81, 0
15, 157040, Note_on_c, 11, 81, 84
15, 157075, Note_on_c, 11, 81, 0
15, 157080, Note_on_c, 11, 81, 84
15, 157115, Note_on_c, 11, 81, 0
15, 157120, Note_on_c, 11, 81, 84
15, 157155, Note_on_c, 11, 81, 0
15, 157160, Note_on_c, 11, 81, 84
15, 157195, Note_on_c, 11, 81, 0
15, 157200, Note_on_c, 11, 81, 84
15, 157235, Note_on_c, 11, 81, 0
15, 157240, Note_on_c, 11, 81, 84
15, 157275, Note_on_c, 11, 81, 0
15, 157280, Note_on_c, 11, 81, 84
15, 157315, Note_on_c, 11, 81, 0
15, 157320, Note_on_c, 11, 81, 84
15, 157355, Note_on_c, 11, 81, 0
15, 157360, Note_on_c, 11, 81, 84
15, 157395, Note_on_c, 11, 81, 0
15, 157400, Note_on_c, 11, 81, 84
15, 157435, Note_on_c, 11, 81, 0
15, 157440, Note_on_c, 11, 81, 84
15, 157475, Note_on_c, 11, 81, 0
15, 157480, Note_on_c, 11, 81, 84
15, 157515, Note_on_c, 11, 81, 0
15, 157520, Note_on_c, 11, 81, 84
15, 157555, Note_on_c, 11, 81, 0
15, 157560, Note_on_c, 11, 81, 84
15, 157595, Note_on_c, 11, 81, 0
15, 157600, Note_on_c, 11, 81, 84
15, 157635, Note_on_c, 11, 81, 0
15, 157640, Note_on_c, 11, 81, 84
15, 157675, Note_on_c, 11, 81, 0
15, 157680, Note_on_c, 11, 81, 84
15, 157715, Note_on_c, 11, 81, 0
15, 157720, Note_on_c, 11, 81, 84
15, 157755, Note_on_c, 11, 81, 0
15, 157760, Note_on_c, 11, 81, 84
15, 157795, Note_on_c, 11, 81, 0
15, 157800, Note_on_c, 11, 81, 84
15, 157835, Note_on_c, 11, 81, 0
15, 157840, Note_on_c, 11, 81, 84
15, 157875, Note_on_c, 11, 81, 0
15, 157880, Note_on_c, 11, 81, 84
15, 157915, Note_on_c, 11, 81, 0
15, 157920, Note_on_c, 11, 81, 84
15, 157955, Note_on_c, 11, 81, 0
15, 157960, Note_on_c, 11, 81, 84
15, 157995, Note_on_c, 11, 81, 0
15, 158000, Note_on_c, 11, 81, 84
15, 158035, Note_on_c, 11, 81, 0
15, 158040, Note_on_c, 11, 81, 84
15, 158075, Note_on_c, 11, 81, 0
15, 158080, Note_on_c, 11, 81, 84
15, 158115, Note_on_c, 11, 81, 0
15, 158120, Note_on_c, 11, 81, 84
15, 158155, Note_on_c, 11, 81, 0
15, 158160, Note_on_c, 11, 81, 84
15, 158195, Note_on_c, 11, 81, 0
15, 158200, Note_on_c, 11, 81, 84
15, 158235, Note_on_c, 11, 81, 0
15, 158240, Note_on_c, 11, 81, 84
15, 158275, Note_on_c, 11, 81, 0
15, 158280, Note_on_c, 11, 81, 84
15, 158315, Note_on_c, 11, 81, 0
15, 158320, Note_on_c, 11, 81, 84
15, 158355, Note_on_c, 11, 81, 0
15, 158360, Note_on_c, 11, 81, 84
15, 158395, Note_on_c, 11, 81, 0
15, 158400, Note_on_c, 11, 81, 84
15, 158435, Note_on_c, 11, 81, 0
15, 158440, Note_on_c, 11, 81, 84
15, 158475, Note_on_c, 11, 81, 0
15, 158480, Note_on_c, 11, 81, 84
15, 158515, Note_on_c, 11, 81, 0
15, 158520, Note_on_c, 11, 81, 84
15, 158555, Note_on_c, 11, 81, 0
15, 158560, Note_on_c, 11, 81, 84
15, 158595, Note_on_c, 11, 81, 0
15, 158600, Note_on_c, 11, 81, 84
15, 158635, Note_on_c, 11, 81, 0
15, 158640, Note_on_c, 11, 81, 84
15, 158675, Note_on_c, 11, 81, 0
15, 158680, Note_on_c, 11, 81, 84
15, 158715, Note_on_c, 11, 81, 0
15, 158720, Note_on_c, 11, 81, 84
15, 158755, Note_on_c, 11, 81, 0
15, 158760, Note_on_c, 11, 81, 84
15, 158795, Note_on_c, 11, 81, 0
15, 158800, Note_on_c, 11, 81, 84
15, 158835, Note_on_c, 11, 81, 0
15, 158840, Note_on_c, 11, 81, 84
15, 158875, Note_on_c, 11, 81, 0
15, 158880, Note_on_c, 11, 81, 84
15, 158915, Note_on_c, 11, 81, 0
15, 158920, Note_on_c, 11, 81, 84
15, 158955, Note_on_c, 11, 81, 0
15, 158960, Note_on_c, 11, 81, 84
15, 158995, Note_on_c, 11, 81, 0
15, 159000, Note_on_c, 11, 81, 84
15, 159035, Note_on_c, 11, 81, 0
15, 159040, Note_on_c, 11, 81, 84
15, 159075, Note_on_c, 11, 81, 0
15, 159080, Note_on_c, 11, 81, 84
15, 159115, Note_on_c, 11, 81, 0
15, 159120, Note_on_c, 11, 81, 84
15, 159155, Note_on_c, 11, 81, 0
15, 159160, Note_on_c, 11, 81, 84
15, 159195, Note_on_c, 11, 81, 0
15, 159200, Note_on_c, 11, 81, 84
15, 159235, Note_on_c, 11, 81, 0
15, 159240, Note_on_c, 11, 81, 84
15, 159275, Note_on_c, 11, 81, 0
15, 159280, Note_on_c, 11, 81, 84
15, 159315, Note_on_c, 11, 81, 0
15, 159320, Note_on_c, 11, 81, 84
15, 159355, Note_on_c, 11, 81, 0
15, 159360, Note_on_c, 11, 81, 84
15, 159395, Note_on_c, 11, 81, 0
15, 159400, Note_on_c, 11, 81, 84
15, 159435, Note_on_c, 11, 81, 0
15, 159440, Note_on_c, 11, 81, 84
15, 159475, Note_on_c, 11, 81, 0
15, 159480, Note_on_c, 11, 81, 84
15, 159515, Note_on_c, 11, 81, 0
15, 159520, Note_on_c, 11, 81, 84
15, 159555, Note_on_c, 11, 81, 0
15, 159560, Note_on_c, 11, 81, 84
15, 159595, Note_on_c, 11, 81, 0
15, 159600, Note_on_c, 11, 81, 84
15, 159635, Note_on_c, 11, 81, 0
15, 159640, Note_on_c, 11, 81, 84
15, 159675, Note_on_c, 11, 81, 0
15, 159680, Note_on_c, 11, 81, 84
15, 159715, Note_on_c, 11, 81, 0
15, 159720, Note_on_c, 11, 81, 84
15, 159755, Note_on_c, 11, 81, 0
15, 159760, Note_on_c, 11, 81, 84
15, 159795, Note_on_c, 11, 81, 0
15, 159800, Note_on_c, 11, 81, 84
15, 159835, Note_on_c, 11, 81, 0
15, 159840, Note_on_c, 11, 83, 84
15, 159875, Note_on_c, 11, 83, 0
15, 159880, Note_on_c, 11, 83, 84
15, 159915, Note_on_c, 11, 83, 0
15, 159920, Note_on_c, 11, 83, 84
15, 159955, Note_on_c, 11, 83, 0
15, 159960, Note_on_c, 11, 83, 84
15, 159995, Note_on_c, 11, 83, 0
15, 160000, Note_on_c, 11, 83, 84
15, 160035, Note_on_c, 11, 83, 0
15, 160040, Note_on_c, 11, 83, 84
15, 160075, Note_on_c, 11, 83, 0
15, 160080, Note_on_c, 11, 83, 84
15, 160115, Note_on_c, 11, 83, 0
15, 160120, Note_on_c, 11, 83, 84
15, 160155, Note_on_c, 11, 83, 0
15, 160160, Note_on_c, 11, 83, 84
15, 160195, Note_on_c, 11, 83, 0
15, 160200, Note_on_c, 11, 83, 84
15, 160235, Note_on_c, 11, 83, 0
15, 160240, Note_on_c, 11, 83, 84
15, 160275, Note_on_c, 11, 83, 0
15, 160280, Note_on_c, 11, 83, 84
15, 160315, Note_on_c, 11, 83, 0
15, 160320, Note_on_c, 11, 83, 84
15, 160355, Note_on_c, 11, 83, 0
15, 160360, Note_on_c, 11, 83, 84
15, 160395, Note_on_c, 11, 83, 0
15, 160400, Note_on_c, 11, 83, 84
15, 160435, Note_on_c, 11, 83, 0
15, 160440, Note_on_c, 11, 83, 84
15, 160475, Note_on_c, 11, 83, 0
15, 160480, Note_on_c, 11, 83, 84
15, 160515, Note_on_c, 11, 83, 0
15, 160520, Note_on_c, 11, 83, 84
15, 160555, Note_on_c, 11, 83, 0
15, 160560, Note_on_c, 11, 83, 84
15, 160595, Note_on_c, 11, 83, 0
15, 160600, Note_on_c, 11, 83, 84
15, 160635, Note_on_c, 11, 83, 0
15, 160640, Note_on_c, 11, 83, 84
15, 160675, Note_on_c, 11, 83, 0
15, 160680, Note_on_c, 11, 83, 84
15, 160715, Note_on_c, 11, 83, 0
15, 160720, Note_on_c, 11, 83, 84
15, 160755, Note_on_c, 11, 83, 0
15, 160760, Note_on_c, 11, 83, 84
15, 160795, Note_on_c, 11, 83, 0
15, 160800, Note_on_c, 11, 83, 84
15, 160835, Note_on_c, 11, 83, 0
15, 160840, Note_on_c, 11, 83, 84
15, 160875, Note_on_c, 11, 83, 0
15, 160880, Note_on_c, 11, 83, 84
15, 160915, Note_on_c, 11, 83, 0
15, 160920, Note_on_c, 11, 83, 84
15, 160955, Note_on_c, 11, 83, 0
15, 160960, Note_on_c, 11, 83, 84
15, 160995, Note_on_c, 11, 83, 0
15, 161000, Note_on_c, 11, 83, 84
15, 161035, Note_on_c, 11, 83, 0
15, 161040, Note_on_c, 11, 83, 84
15, 161075, Note_on_c, 11, 83, 0
15, 161080, Note_on_c, 11, 83, 84
15, 161115, Note_on_c, 11, 83, 0
15, 161120, Note_on_c, 11, 83, 84
15, 161155, Note_on_c, 11, 83, 0
15, 161160, Note_on_c, 11, 83, 84
15, 161195, Note_on_c, 11, 83, 0
15, 161200, Note_on_c, 11, 83, 84
15, 161235, Note_on_c, 11, 83, 0
15, 161240, Note_on_c, 11, 83, 84
15, 161275, Note_on_c, 11, 83, 0
15, 161280, Note_on_c, 11, 82, 84
15, 161315, Note_on_c, 11, 82, 0
15, 161320, Note_on_c, 11, 82, 84
15, 161355, Note_on_c, 11, 82, 0
15, 161360, Note_on_c, 11, 82, 84
15, 161395, Note_on_c, 11, 82, 0
15, 161400, Note_on_c, 11, 82, 84
15, 161435, Note_on_c, 11, 82, 0
15, 161440, Note_on_c, 11, 82, 84
15, 161475, Note_on_c, 11, 82, 0
15, 161480, Note_on_c, 11, 82, 84
15, 161515, Note_on_c, 11, 82, 0
15, 161520, Note_on_c, 11, 82, 84
15, 161555, Note_on_c, 11, 82, 0
15, 161560, Note_on_c, 11, 82, 84
15, 161595, Note_on_c, 11, 82, 0
15, 161600, Note_on_c, 11, 82, 84
15, 161635, Note_on_c, 11, 82, 0
15, 161640, Note_on_c, 11, 82, 84
15, 161675, Note_on_c, 11, 82, 0
15, 161680, Note_on_c, 11, 82, 84
15, 161715, Note_on_c, 11, 82, 0
15, 161720, Note_on_c, 11, 82, 84
15, 161755, Note_on_c, 11, 82, 0
15, 161760, Note_on_c, 11, 82, 84
15, 161795, Note_on_c, 11, 82, 0
15, 161800, Note_on_c, 11, 82, 84
15, 161835, Note_on_c, 11, 82, 0
15, 161840, Note_on_c, 11, 82, 84
15, 161875, Note_on_c, 11, 82, 0
15, 161880, Note_on_c, 11, 82, 84
15, 161915, Note_on_c, 11, 82, 0
15, 161920, Note_on_c, 11, 82, 84
15, 161955, Note_on_c, 11, 82, 0
15, 161960, Note_on_c, 11, 82, 84
15, 161995, Note_on_c, 11, 82, 0
15, 162000, Note_on_c, 11, 82, 84
15, 162035, Note_on_c, 11, 82, 0
15, 162040, Note_on_c, 11, 82, 84
15, 162075, Note_on_c, 11, 82, 0
15, 162080, Note_on_c, 11, 82, 84
15, 162115, Note_on_c, 11, 82, 0
15, 162120, Note_on_c, 11, 82, 84
15, 162155, Note_on_c, 11, 82, 0
15, 162160, Note_on_c, 11, 82, 84
15, 162195, Note_on_c, 11, 82, 0
15, 162200, Note_on_c, 11, 82, 84
15, 162235, Note_on_c, 11, 82, 0
15, 162240, Note_on_c, 11, 82, 84
15, 162275, Note_on_c, 11, 82, 0
15, 162280, Note_on_c, 11, 82, 84
15, 162315, Note_on_c, 11, 82, 0
15, 162320, Note_on_c, 11, 82, 84
15, 162355, Note_on_c, 11, 82, 0
15, 162360, Note_on_c, 11, 82, 84
15, 162395, Note_on_c, 11, 82, 0
15, 162400, Note_on_c, 11, 82, 84
15, 162435, Note_on_c, 11, 82, 0
15, 162440, Note_on_c, 11, 82, 84
15, 162475, Note_on_c, 11, 82, 0
15, 162480, Note_on_c, 11, 82, 84
15, 162515, Note_on_c, 11, 82, 0
15, 162520, Note_on_c, 11, 82, 84
15, 162555, Note_on_c, 11, 82, 0
15, 162560, Note_on_c, 11, 82, 84
15, 162595, Note_on_c, 11, 82, 0
15, 162600, Note_on_c, 11, 82, 84
15, 162635, Note_on_c, 11, 82, 0
15, 162640, Note_on_c, 11, 82, 84
15, 162675, Note_on_c, 11, 82, 0
15, 162680, Note_on_c, 11, 82, 84
15, 162715, Note_on_c, 11, 82, 0
15, 162720, Note_on_c, 11, 81, 84
15, 162755, Note_on_c, 11, 81, 0
15, 162760, Note_on_c, 11, 81, 84
15, 162795, Note_on_c, 11, 81, 0
15, 162800, Note_on_c, 11, 81, 84
15, 162835, Note_on_c, 11, 81, 0
15, 162840, Note_on_c, 11, 81, 84
15, 162875, Note_on_c, 11, 81, 0
15, 162880, Note_on_c, 11, 81, 84
15, 162915, Note_on_c, 11, 81, 0
15, 162920, Note_on_c, 11, 81, 84
15, 162955, Note_on_c, 11, 81, 0
15, 162960, Note_on_c, 11, 81, 84
15, 162995, Note_on_c, 11, 81, 0
15, 163000, Note_on_c, 11, 81, 84
15, 163035, Note_on_c, 11, 81, 0
15, 163040, Note_on_c, 11, 81, 84
15, 163075, Note_on_c, 11, 81, 0
15, 163080, Note_on_c, 11, 81, 84
15, 163115, Note_on_c, 11, 81, 0
15, 163120, Note_on_c, 11, 81, 84
15, 163155, Note_on_c, 11, 81, 0
15, 163160, Note_on_c, 11, 81, 84
15, 163195, Note_on_c, 11, 81, 0
15, 163200, Note_on_c, 11, 81, 84
15, 163235, Note_on_c, 11, 81, 0
15, 163240, Note_on_c, 11, 81, 84
15, 163275, Note_on_c, 11, 81, 0
15, 163280, Note_on_c, 11, 81, 84
15, 163315, Note_on_c, 11, 81, 0
15, 163320, Note_on_c, 11, 81, 84
15, 163355, Note_on_c, 11, 81, 0
15, 163360, Note_on_c, 11, 81, 84
15, 163395, Note_on_c, 11, 81, 0
15, 163400, Note_on_c, 11, 81, 84
15, 163435, Note_on_c, 11, 81, 0
15, 163440, Note_on_c, 11, 81, 84
15, 163475, Note_on_c, 11, 81, 0
15, 163480, Note_on_c, 11, 81, 84
15, 163515, Note_on_c, 11, 81, 0
15, 163520, Note_on_c, 11, 81, 84
15, 163555, Note_on_c, 11, 81, 0
15, 163560, Note_on_c, 11, 81, 84
15, 163595, Note_on_c, 11, 81, 0
15, 163600, Note_on_c, 11, 81, 84
15, 163635, Note_on_c, 11, 81, 0
15, 163640, Note_on_c, 11, 81, 84
15, 163675, Note_on_c, 11, 81, 0
15, 163680, Note_on_c, 11, 81, 84
15, 163715, Note_on_c, 11, 81, 0
15, 163720, Note_on_c, 11, 81, 84
15, 163755, Note_on_c, 11, 81, 0
15, 163760, Note_on_c, 11, 81, 84
15, 163795, Note_on_c, 11, 81, 0
15, 163800, Note_on_c, 11, 81, 84
15, 163835, Note_on_c, 11, 81, 0
15, 163840, Note_on_c, 11, 81, 84
15, 163875, Note_on_c, 11, 81, 0
15, 163880, Note_on_c, 11, 81, 84
15, 163915, Note_on_c, 11, 81, 0
15, 163920, Note_on_c, 11, 81, 84
15, 163955, Note_on_c, 11, 81, 0
15, 163960, Note_on_c, 11, 81, 84
15, 163995, Note_on_c, 11, 81, 0
15, 164000, Note_on_c, 11, 81, 84
15, 164035, Note_on_c, 11, 81, 0
15, 164040, Note_on_c, 11, 81, 84
15, 164075, Note_on_c, 11, 81, 0
15, 164080, Note_on_c, 11, 81, 84
15, 164115, Note_on_c, 11, 81, 0
15, 164120, Note_on_c, 11, 81, 84
15, 164155, Note_on_c, 11, 81, 0
15, 164160, Note_on_c, 11, 82, 84
15, 164195, Note_on_c, 11, 82, 0
15, 164200, Note_on_c, 11, 82, 84
15, 164235, Note_on_c, 11, 82, 0
15, 164240, Note_on_c, 11, 82, 84
15, 164275, Note_on_c, 11, 82, 0
15, 164280, Note_on_c, 11, 82, 84
15, 164315, Note_on_c, 11, 82, 0
15, 164320, Note_on_c, 11, 82, 84
15, 164355, Note_on_c, 11, 82, 0
15, 164360, Note_on_c, 11, 82, 84
15, 164395, Note_on_c, 11, 82, 0
15, 164400, Note_on_c, 11, 82, 84
15, 164435, Note_on_c, 11, 82, 0
15, 164440, Note_on_c, 11, 82, 84
15, 164475, Note_on_c, 11, 82, 0
15, 164480, Note_on_c, 11, 82, 84
15, 164515, Note_on_c, 11, 82, 0
15, 164520, Note_on_c, 11, 82, 84
15, 164555, Note_on_c, 11, 82, 0
15, 164560, Note_on_c, 11, 82, 84
15, 164595, Note_on_c, 11, 82, 0
15, 164600, Note_on_c, 11, 82, 84
15, 164635, Note_on_c, 11, 82, 0
15, 164640, Note_on_c, 11, 82, 84
15, 164675, Note_on_c, 11, 82, 0
15, 164680, Note_on_c, 11, 82, 84
15, 164715, Note_on_c, 11, 82, 0
15, 164720, Note_on_c, 11, 82, 84
15, 164755, Note_on_c, 11, 82, 0
15, 164760, Note_on_c, 11, 82, 84
15, 164795, Note_on_c, 11, 82, 0
15, 164800, Note_on_c, 11, 82, 84
15, 164835, Note_on_c, 11, 82, 0
15, 164840, Note_on_c, 11, 82, 84
15, 164875, Note_on_c, 11, 82, 0
15, 164880, Note_on_c, 11, 77, 84
15, 164915, Note_on_c, 11, 77, 0
15, 164920, Note_on_c, 11, 77, 84
15, 164955, Note_on_c, 11, 77, 0
15, 164960, Note_on_c, 11, 77, 84
15, 164995, Note_on_c, 11, 77, 0
15, 165000, Note_on_c, 11, 77, 84
15, 165035, Note_on_c, 11, 77, 0
15, 165040, Note_on_c, 11, 77, 84
15, 165075, Note_on_c, 11, 77, 0
15, 165080, Note_on_c, 11, 77, 84
15, 165115, Note_on_c, 11, 77, 0
15, 165120, Note_on_c, 11, 77, 84
15, 165155, Note_on_c, 11, 77, 0
15, 165160, Note_on_c, 11, 77, 84
15, 165195, Note_on_c, 11, 77, 0
15, 165200, Note_on_c, 11, 77, 84
15, 165235, Note_on_c, 11, 77, 0
15, 165240, Note_on_c, 11, 77, 84
15, 165275, Note_on_c, 11, 77, 0
15, 165280, Note_on_c, 11, 77, 84
15, 165315, Note_on_c, 11, 77, 0
15, 165320, Note_on_c, 11, 77, 84
15, 165355, Note_on_c, 11, 77, 0
15, 165360, Note_on_c, 11, 77, 84
15, 165395, Note_on_c, 11, 77, 0
15, 165400, Note_on_c, 11, 77, 84
15, 165435, Note_on_c, 11, 77, 0
15, 165440, Note_on_c, 11, 77, 84
15, 165475, Note_on_c, 11, 77, 0
15, 165480, Note_on_c, 11, 77, 84
15, 165515, Note_on_c, 11, 77, 0
15, 165520, Note_on_c, 11, 77, 84
15, 165555, Note_on_c, 11, 77, 0
15, 165560, Note_on_c, 11, 77, 84
15, 165595, Note_on_c, 11, 77, 0
15, 165600, Note_on_c, 11, 76, 84
15, 165635, Note_on_c, 11, 76, 0
15, 165640, Note_on_c, 11, 76, 84
15, 165675, Note_on_c, 11, 76, 0
15, 165680, Note_on_c, 11, 76, 83
15, 165715, Note_on_c, 11, 76, 0
15, 165720, Note_on_c, 11, 76, 82
15, 165755, Note_on_c, 11, 76, 0
15, 165760, Note_on_c, 11, 76, 81
15, 165795, Note_on_c, 11, 76, 0
15, 165800, Note_on_c, 11, 76, 80
15, 165835, Note_on_c, 11, 76, 0
15, 165840, Note_on_c, 11, 76, 79
15, 165875, Note_on_c, 11, 76, 0
15, 165880, Note_on_c, 11, 76, 78
15, 165915, Note_on_c, 11, 76, 0
15, 165920, Note_on_c, 11, 76, 77
15, 165955, Note_on_c, 11, 76, 0
15, 165960, Note_on_c, 11, 76, 76
15, 165995, Note_on_c, 11, 76, 0
15, 166000, Note_on_c, 11, 76, 76
15, 166035, Note_on_c, 11, 76, 0
15, 166040, Note_on_c, 11, 76, 75
15, 166075, Note_on_c, 11, 76, 0
15, 166080, Note_on_c, 11, 76, 74
15, 166115, Note_on_c, 11, 76, 0
15, 166120, Note_on_c, 11, 76, 73
15, 166155, Note_on_c, 11, 76, 0
15, 166160, Note_on_c, 11, 76, 72
15, 166195, Note_on_c, 11, 76, 0
15, 166200, Note_on_c, 11, 76, 71
15, 166235, Note_on_c, 11, 76, 0
15, 166240, Note_on_c, 11, 76, 70
15, 166275, Note_on_c, 11, 76, 0
15, 166280, Note_on_c, 11, 76, 69
15, 166315, Note_on_c, 11, 76, 0
15, 166320, Note_on_c, 11, 70, 68
15, 166355, Note_on_c, 11, 70, 0
15, 166360, Note_on_c, 11, 70, 68
15, 166395, Note_on_c, 11, 70, 0
15, 166400, Note_on_c, 11, 70, 67
15, 166435, Note_on_c, 11, 70, 0
15, 166440, Note_on_c, 11, 70, 66
15, 166475, Note_on_c, 11, 70, 0
15, 166480, Note_on_c, 11, 70, 65
15, 166515, Note_on_c, 11, 70, 0
15, 166520, Note_on_c, 11, 70, 64
15, 166555, Note_on_c, 11, 70, 0
15, 166560, Note_on_c, 11, 70, 63
15, 166595, Note_on_c, 11, 70, 0
15, 166600, Note_on_c, 11, 70, 62
15, 166635, Note_on_c, 11, 70, 0
15, 166640, Note_on_c, 11, 70, 61
15, 166675, Note_on_c, 11, 70, 0
15, 166680, Note_on_c, 11, 70, 60
15, 166715, Note_on_c, 11, 70, 0
15, 166720, Note_on_c, 11, 70, 60
15, 166755, Note_on_c, 11, 70, 0
15, 166760, Note_on_c, 11, 70, 59
15, 166795, Note_on_c, 11, 70, 0
15, 166800, Note_on_c, 11, 70, 58
15, 166835, Note_on_c, 11, 70, 0
15, 166840, Note_on_c, 11, 70, 57
15, 166875, Note_on_c, 11, 70, 0
15, 166880, Note_on_c, 11, 70, 56
15, 166915, Note_on_c, 11, 70, 0
15, 166920, Note_on_c, 11, 70, 55
15, 166955, Note_on_c, 11, 70, 0
15, 166960, Note_on_c, 11, 70, 54
15, 166995, Note_on_c, 11, 70, 0
15, 167000, Note_on_c, 11, 70, 53
15, 167035, Note_on_c, 11, 70, 0
15, 167040, Note_on_c, 11, 70, 52
15, 167075, Note_on_c, 11, 70, 0
15, 167080, Note_on_c, 11, 70, 52
15, 167115, Note_on_c, 11, 70, 0
15, 167120, Note_on_c, 11, 70, 52
15, 167155, Note_on_c, 11, 70, 0
15, 167160, Note_on_c, 11, 70, 52
15, 167195, Note_on_c, 11, 70, 0
15, 167200, Note_on_c, 11, 70, 52
15, 167235, Note_on_c, 11, 70, 0
15, 167240, Note_on_c, 11, 70, 52
15, 167275, Note_on_c, 11, 70, 0
15, 167280, Note_on_c, 11, 70, 52
15, 167315, Note_on_c, 11, 70, 0
15, 167320, Note_on_c, 11, 70, 52
15, 167355, Note_on_c, 11, 70, 0
15, 167360, Note_on_c, 11, 70, 52
15, 167395, Note_on_c, 11, 70, 0
15, 167400, Note_on_c, 11, 67, 48
15, 167435, Note_on_c, 11, 67, 0
15, 167440, Note_on_c, 11, 67, 48
15, 167475, Note_on_c, 11, 67, 0
15, 167480, Note_on_c, 11, 67, 48
15, 167515, Note_on_c, 11, 67, 0
15, 167520, Note_on_c, 11, 67, 48
15, 167555, Note_on_c, 11, 67, 0
15, 167560, Note_on_c, 11, 67, 48
15, 167595, Note_on_c, 11, 67, 0
15, 167600, Note_on_c, 11, 67, 48
15, 167635, Note_on_c, 11, 67, 0
15, 167640, Note_on_c, 11, 67, 48
15, 167675, Note_on_c, 11, 67, 0
15, 167680, Note_on_c, 11, 67, 48
15, 167715, Note_on_c, 11, 67, 0
15, 167720, Note_on_c, 11, 67, 48
15, 167755, Note_on_c, 11, 67, 0
15, 167760, Note_on_c, 11, 67, 48
15, 167795, Note_on_c, 11, 67, 0
15, 167800, Note_on_c, 11, 67, 48
15, 167835, Note_on_c, 11, 67, 0
15, 167840, Note_on_c, 11, 67, 48
15, 167875, Note_on_c, 11, 67, 0
15, 167880, Note_on_c, 11, 67, 48
15, 167915, Note_on_c, 11, 67, 0
15, 167920, Note_on_c, 11, 67, 48
15, 167955, Note_on_c, 11, 67, 0
15, 167960, Note_on_c, 11, 67, 48
15, 167995, Note_on_c, 11, 67, 0
15, 168000, Note_on_c, 11, 67, 48
15, 168035, Note_on_c, 11, 67, 0
15, 168040, Note_on_c, 11, 67, 48
15, 168075, Note_on_c, 11, 67, 0
15, 168080, Note_on_c, 11, 67, 48
15, 168115, Note_on_c, 11, 67, 0
15, 168120, Note_on_c, 11, 64, 48
15, 168155, Note_on_c, 11, 64, 0
15, 168160, Note_on_c, 11, 64, 48
15, 168195, Note_on_c, 11, 64, 0
15, 168200, Note_on_c, 11, 64, 48
15, 168235, Note_on_c, 11, 64, 0
15, 168240, Note_on_c, 11, 64, 48
15, 168275, Note_on_c, 11, 64, 0
15, 168280, Note_on_c, 11, 64, 48
15, 168315, Note_on_c, 11, 64, 0
15, 168320, Note_on_c, 11, 64, 48
15, 168355, Note_on_c, 11, 64, 0
15, 168360, Note_on_c, 11, 64, 48
15, 168395, Note_on_c, 11, 64, 0
15, 168400, Note_on_c, 11, 64, 48
15, 168435, Note_on_c, 11, 64, 0
15, 168440, Note_on_c, 11, 64, 48
15, 168475, Note_on_c, 11, 64, 0
15, 168480, Note_on_c, 11, 64, 48
15, 168515, Note_on_c, 11, 64, 0
15, 168520, Note_on_c, 11, 64, 48
15, 168555, Note_on_c, 11, 64, 0
15, 168560, Note_on_c, 11, 64, 48
15, 168595, Note_on_c, 11, 64, 0
15, 168600, Note_on_c, 11, 64, 48
15, 168635, Note_on_c, 11, 64, 0
15, 168640, Note_on_c, 11, 64, 48
15, 168675, Note_on_c, 11, 64, 0
15, 168680, Note_on_c, 11, 64, 48
15, 168715, Note_on_c, 11, 64, 0
15, 168720, Note_on_c, 11, 64, 48
15, 168755, Note_on_c, 11, 64, 0
15, 168760, Note_on_c, 11, 64, 48
15, 168795, Note_on_c, 11, 64, 0
15, 168800, Note_on_c, 11, 64, 48
15, 168835, Note_on_c, 11, 64, 0
15, 168840, Note_on_c, 11, 60, 48
15, 168875, Note_on_c, 11, 60, 0
15, 168880, Note_on_c, 11, 60, 48
15, 168915, Note_on_c, 11, 60, 0
15, 168920, Note_on_c, 11, 60, 48
15, 168955, Note_on_c, 11, 60, 0
15, 168960, Note_on_c, 11, 60, 48
15, 168995, Note_on_c, 11, 60, 0
15, 169000, Note_on_c, 11, 60, 48
15, 169035, Note_on_c, 11, 60, 0
15, 169040, Note_on_c, 11, 60, 48
15, 169075, Note_on_c, 11, 60, 0
15, 169080, Note_on_c, 11, 60, 48
15, 169115, Note_on_c, 11, 60, 0
15, 169120, Note_on_c, 11, 60, 48
15, 169155, Note_on_c, 11, 60, 0
15, 169160, Note_on_c, 11, 60, 48
15, 169195, Note_on_c, 11, 60, 0
15, 169200, Note_on_c, 11, 60, 48
15, 169235, Note_on_c, 11, 60, 0
15, 169240, Note_on_c, 11, 60, 48
15, 169275, Note_on_c, 11, 60, 0
15, 169280, Note_on_c, 11, 60, 48
15, 169315, Note_on_c, 11, 60, 0
15, 169320, Note_on_c, 11, 60, 48
15, 169355, Note_on_c, 11, 60, 0
15, 169360, Note_on_c, 11, 60, 48
15, 169395, Note_on_c, 11, 60, 0
15, 169400, Note_on_c, 11, 60, 48
15, 169435, Note_on_c, 11, 60, 0
15, 169440, Note_on_c, 11, 60, 48
15, 169475, Note_on_c, 11, 60, 0
15, 169480, Note_on_c, 11, 60, 48
15, 169515, Note_on_c, 11, 60, 0
15, 169520, Note_on_c, 11, 60, 48
15, 169555, Note_on_c, 11, 60, 0
15, 169560, Note_on_c, 11, 58, 48
15, 169595, Note_on_c, 11, 58, 0
15, 169600, Note_on_c, 11, 58, 48
15, 169635, Note_on_c, 11, 58, 0
15, 169640, Note_on_c, 11, 58, 48
15, 169675, Note_on_c, 11, 58, 0
15, 169680, Note_on_c, 11, 58, 48
15, 169715, Note_on_c, 11, 58, 0
15, 169720, Note_on_c, 11, 58, 48
15, 169755, Note_on_c, 11, 58, 0
15, 169760, Note_on_c, 11, 58, 48
15, 169795, Note_on_c, 11, 58, 0
15, 169800, Note_on_c, 11, 58, 48
15, 169835, Note_on_c, 11, 58, 0
15, 169840, Note_on_c, 11, 58, 48
15, 169875, Note_on_c, 11, 58, 0
15, 169880, Note_on_c, 11, 58, 48
15, 169915, Note_on_c, 11, 58, 0
15, 169920, Note_on_c, 11, 57, 40
15, 170279, Note_on_c, 11, 57, 0
15, 170280, Note_on_c, 11, 57, 40
15, 170511, Note_on_c, 11, 57, 0
15, 170520, Note_on_c, 11, 65, 40
15, 170631, Note_on_c, 11, 65, 0
15, 170640, Note_on_c, 11, 64, 40
15, 171351, Note_on_c, 11, 64, 0
15, 171360, Note_on_c, 11, 64, 40
15, 171719, Note_on_c, 11, 64, 0
15, 171720, Note_on_c, 11, 64, 40
15, 171951, Note_on_c, 11, 64, 0
15, 171960, Note_on_c, 11, 67, 40
15, 172071, Note_on_c, 11, 67, 0
15, 172078, Control_c, 11, 11, 112
15, 172080, Note_on_c, 11, 65, 52
15, 172791, Note_on_c, 11, 65, 0
15, 172800, Note_on_c, 11, 65, 52
15, 172800, Control_c, 11, 11, 112
15, 172848, Control_c, 11, 11, 113
15, 172896, Control_c, 11, 11, 114
15, 172944, Control_c, 11, 11, 115
15, 172992, Control_c, 11, 11, 116
15, 173040, Control_c, 11, 11, 117
15, 173088, Control_c, 11, 11, 118
15, 173136, Control_c, 11, 11, 119
15, 173151, Note_on_c, 11, 65, 0
15, 173160, Note_on_c, 11, 65, 52
15, 173184, Control_c, 11, 11, 120
15, 173232, Control_c, 11, 11, 121
15, 173280, Control_c, 11, 11, 122
15, 173328, Control_c, 11, 11, 123
15, 173376, Control_c, 11, 11, 124
15, 173391, Note_on_c, 11, 65, 0
15, 173400, Note_on_c, 11, 65, 52
15, 173424, Control_c, 11, 11, 125
15, 173472, Control_c, 11, 11, 127
15, 173511, Note_on_c, 11, 65, 0
15, 173520, Note_on_c, 11, 65, 52
15, 174231, Note_on_c, 11, 65, 0
15, 174240, Note_on_c, 11, 64, 52
15, 174951, Note_on_c, 11, 64, 0
15, 174960, Note_on_c, 11, 65, 52
15, 175199, Note_on_c, 11, 65, 0
15, 175680, Note_on_c, 11, 69, 76
15, 175680, Note_on_c, 11, 77, 76
15, 176031, Note_on_c, 11, 69, 0
15, 176031, Note_on_c, 11, 77, 0
15, 176040, Note_on_c, 11, 70, 76
15, 176040, Note_on_c, 11, 77, 76
15, 176129, Note_on_c, 11, 70, 0
15, 176129, Note_on_c, 11, 77, 0
15, 176280, Note_on_c, 11, 77, 76
15, 176280, Note_on_c, 11, 72, 76
15, 176369, Note_on_c, 11, 77, 0
15, 176369, Note_on_c, 11, 72, 0
15, 176400, Note_on_c, 11, 77, 76
15, 176400, Note_on_c, 11, 74, 76
15, 176999, Note_on_c, 11, 77, 0
15, 176999, Note_on_c, 11, 74, 0
15, 178440, Note_on_c, 11, 65, 48
15, 178440, Note_on_c, 11, 60, 48
15, 178559, Note_on_c, 11, 65, 0
15, 178559, Note_on_c, 11, 60, 0
15, 178560, Note_on_c, 11, 64, 48
15, 178560, Note_on_c, 11, 60, 48
15, 179151, Note_on_c, 11, 64, 0
15, 179151, Note_on_c, 11, 60, 0
15, 179160, Note_on_c, 11, 60, 48
15, 179160, Note_on_c, 11, 64, 48
15, 179271, Note_on_c, 11, 60, 0
15, 179271, Note_on_c, 11, 64, 0
15, 179280, Note_on_c, 11, 60, 48
15, 179280, Note_on_c, 11, 65, 48
15, 179519, Note_on_c, 11, 60, 0
15, 179519, Note_on_c, 11, 65, 0
15, 181080, Control_c, 11, 11, 80
15, 181320, Note_on_c, 11, 60, 76
15, 181320, Note_on_c, 11, 65, 76
15, 181439, Note_on_c, 11, 60, 0
15, 181439, Note_on_c, 11, 65, 0
15, 181440, Note_on_c, 11, 64, 76
15, 181440, Note_on_c, 11, 60, 76
15, 181440, Control_c, 11, 11, 80
15, 181470, Control_c, 11, 11, 82
15, 181500, Control_c, 11, 11, 84
15, 181530, Control_c, 11, 11, 86
15, 181560, Control_c, 11, 11, 88
15, 181590, Control_c, 11, 11, 90
15, 181620, Control_c, 11, 11, 92
15, 181650, Control_c, 11, 11, 94
15, 181680, Control_c, 11, 11, 96
15, 181710, Control_c, 11, 11, 98
15, 181740, Control_c, 11, 11, 100
15, 181770, Control_c, 11, 11, 102
15, 181800, Control_c, 11, 11, 104
15, 181830, Control_c, 11, 11, 105
15, 181860, Control_c, 11, 11, 107
15, 181890, Control_c, 11, 11, 109
15, 181920, Control_c, 11, 11, 111
15, 181950, Control_c, 11, 11, 113
15, 181980, Control_c, 11, 11, 115
15, 182010, Control_c, 11, 11, 117
15, 182031, Note_on_c, 11, 64, 0
15, 182031, Note_on_c, 11, 60, 0
15, 182040, Control_c, 11, 11, 119
15, 182040, Note_on_c, 11, 60, 76
15, 182040, Note_on_c, 11, 64, 76
15, 182070, Control_c, 11, 11, 121
15, 182100, Control_c, 11, 11, 123
15, 182130, Control_c, 11, 11, 125
15, 182151, Note_on_c, 11, 60, 0
15, 182151, Note_on_c, 11, 64, 0
15, 182158, Control_c, 11, 11, 127
15, 182160, Note_on_c, 11, 70, 76
15, 182160, Note_on_c, 11, 67, 76
15, 182879, Note_on_c, 11, 70, 0
15, 182879, Note_on_c, 11, 67, 0
15, 182880, Note_on_c, 11, 67, 76
15, 182880, Note_on_c, 11, 70, 76
15, 183599, Note_on_c, 11, 67, 0
15, 183599, Note_on_c, 11, 70, 0
15, 183600, Note_on_c, 11, 67, 76
15, 183600, Note_on_c, 11, 70, 76
15, 183631, Control_c, 11, 11, 126
15, 183661, Control_c, 11, 11, 125
15, 183692, Control_c, 11, 11, 124
15, 183723, Control_c, 11, 11, 123
15, 183753, Control_c, 11, 11, 122
15, 183784, Control_c, 11, 11, 121
15, 183814, Control_c, 11, 11, 120
15, 183845, Control_c, 11, 11, 119
15, 183876, Control_c, 11, 11, 118
15, 183906, Control_c, 11, 11, 117
15, 183937, Control_c, 11, 11, 116
15, 183968, Control_c, 11, 11, 115
15, 183998, Control_c, 11, 11, 114
15, 184029, Control_c, 11, 11, 113
15, 184060, Control_c, 11, 11, 112
15, 184090, Control_c, 11, 11, 111
15, 184121, Control_c, 11, 11, 110
15, 184151, Control_c, 11, 11, 109
15, 184182, Control_c, 11, 11, 108
15, 184213, Control_c, 11, 11, 107
15, 184243, Control_c, 11, 11, 106
15, 184274, Control_c, 11, 11, 105
15, 184305, Control_c, 11, 11, 104
15, 184319, Note_on_c, 11, 67, 0
15, 184319, Note_on_c, 11, 70, 0
15, 184320, Note_on_c, 11, 67, 76
15, 184320, Note_on_c, 11, 70, 76
15, 184335, Control_c, 11, 11, 103
15, 184366, Control_c, 11, 11, 102
15, 184397, Control_c, 11, 11, 101
15, 184427, Control_c, 11, 11, 100
15, 184458, Control_c, 11, 11, 99
15, 184489, Control_c, 11, 11, 98
15, 184519, Control_c, 11, 11, 97
15, 184550, Control_c, 11, 11, 96
15, 184580, Control_c, 11, 11, 95
15, 184611, Control_c, 11, 11, 94
15, 184642, Control_c, 11, 11, 93
15, 184672, Control_c, 11, 11, 92
15, 184703, Control_c, 11, 11, 91
15, 184734, Control_c, 11, 11, 90
15, 184764, Control_c, 11, 11, 89
15, 184795, Control_c, 11, 11, 88
15, 184826, Control_c, 11, 11, 87
15, 184856, Control_c, 11, 11, 86
15, 184887, Control_c, 11, 11, 85
15, 184917, Control_c, 11, 11, 84
15, 184948, Control_c, 11, 11, 83
15, 184979, Control_c, 11, 11, 82
15, 185031, Note_on_c, 11, 67, 0
15, 185031, Note_on_c, 11, 70, 0
15, 185038, Control_c, 11, 11, 96
15, 185040, Note_on_c, 11, 69, 68
15, 185040, Note_on_c, 11, 65, 68
15, 185751, Note_on_c, 11, 69, 0
15, 185751, Note_on_c, 11, 65, 0
15, 185758, Control_c, 11, 11, 112
15, 185760, Note_on_c, 11, 65, 60
15, 185760, Note_on_c, 11, 69, 60
15, 186471, Note_on_c, 11, 65, 0
15, 186471, Note_on_c, 11, 69, 0
15, 186478, Control_c, 11, 11, 127
15, 186480, Note_on_c, 11, 65, 44
15, 186480, Note_on_c, 11, 69, 44
15, 186719, Note_on_c, 11, 65, 0
15, 186719, Note_on_c, 11, 69, 0
15, 187200, Note_on_c, 11, 65, 44
15, 187259, Note_on_c, 11, 65, 0
15, 187260, Note_on_c, 11, 67, 44
15, 187319, Note_on_c, 11, 67, 0
15, 187320, Note_on_c, 11, 69, 44
15, 187379, Note_on_c, 11, 69, 0
15, 187380, Note_on_c, 11, 70, 44
15, 187439, Note_on_c, 11, 70, 0
15, 187440, Note_on_c, 11, 72, 44
15, 187499, Note_on_c, 11, 72, 0
15, 187500, Note_on_c, 11, 71, 44
15, 187559, Note_on_c, 11, 71, 0
15, 187560, Note_on_c, 11, 74, 44
15, 187619, Note_on_c, 11, 74, 0
15, 187620, Note_on_c, 11, 72, 44
15, 187679, Note_on_c, 11, 72, 0
15, 187680, Note_on_c, 11, 70, 44
15, 187739, Note_on_c, 11, 70, 0
15, 187740, Note_on_c, 11, 69, 44
15, 187799, Note_on_c, 11, 69, 0
15, 187800, Note_on_c, 11, 67, 44
15, 187859, Note_on_c, 11, 67, 0
15, 187860, Note_on_c, 11, 65, 44
15, 187919, Note_on_c, 11, 65, 0
15, 189240, Note_on_c, 11, 77, 84
15, 189240, Note_on_c, 11, 72, 84
15, 189240, Note_on_c, 11, 65, 84
15, 189351, Note_on_c, 11, 77, 0
15, 189351, Note_on_c, 11, 72, 0
15, 189351, Note_on_c, 11, 65, 0
15, 189360, Note_on_c, 11, 65, 84
15, 189360, Note_on_c, 11, 57, 84
15, 189599, Note_on_c, 11, 65, 0
15, 189599, Note_on_c, 11, 57, 0
15, 189599, End_track
16, 0, Start_track
16, 0, Title_t, "Viola "
16, 0, MIDI_port, 0
16, 0, Program_c, 12, 48
16, 0, Control_c, 12, 11, 127
16, 0, Control_c, 12, 10, 70
16, 0, Control_c, 12, 7, 96
16, 0, Note_on_c, 12, 55, 44
16, 0, Note_on_c, 12, 48, 44
16, 711, Note_on_c, 12, 55, 0
16, 711, Note_on_c, 12, 48, 0
16, 720, Note_on_c, 12, 48, 44
16, 720, Note_on_c, 12, 55, 44
16, 1431, Note_on_c, 12, 48, 0
16, 1431, Note_on_c, 12, 55, 0
16, 1440, Note_on_c, 12, 55, 44
16, 1440, Note_on_c, 12, 48, 44
16, 2159, Note_on_c, 12, 55, 0
16, 2159, Note_on_c, 12, 48, 0
16, 2160, Note_on_c, 12, 48, 44
16, 2160, Note_on_c, 12, 55, 44
16, 2879, Note_on_c, 12, 48, 0
16, 2879, Note_on_c, 12, 55, 0
16, 2880, Note_on_c, 12, 48, 44
16, 2880, Note_on_c, 12, 55, 44
16, 3599, Note_on_c, 12, 48, 0
16, 3599, Note_on_c, 12, 55, 0
16, 3600, Note_on_c, 12, 55, 44
16, 3600, Note_on_c, 12, 48, 44
16, 4199, Control_c, 12, 11, 96
16, 4317, Note_on_c, 12, 55, 0
16, 4317, Note_on_c, 12, 48, 0
16, 4320, Note_on_c, 12, 48, 60
16, 4320, Note_on_c, 12, 55, 60
16, 4355, Control_c, 12, 11, 97
16, 4390, Control_c, 12, 11, 98
16, 4425, Control_c, 12, 11, 99
16, 4459, Control_c, 12, 11, 100
16, 4494, Control_c, 12, 11, 101
16, 4529, Control_c, 12, 11, 102
16, 4564, Control_c, 12, 11, 103
16, 4599, Control_c, 12, 11, 104
16, 4634, Control_c, 12, 11, 105
16, 4668, Control_c, 12, 11, 106
16, 4703, Control_c, 12, 11, 107
16, 4738, Control_c, 12, 11, 108
16, 4773, Control_c, 12, 11, 109
16, 4808, Control_c, 12, 11, 110
16, 4843, Control_c, 12, 11, 111
16, 4877, Control_c, 12, 11, 112
16, 4912, Control_c, 12, 11, 113
16, 4947, Control_c, 12, 11, 114
16, 4982, Control_c, 12, 11, 115
16, 5017, Control_c, 12, 11, 116
16, 5039, Note_on_c, 12, 48, 0
16, 5039, Note_on_c, 12, 55, 0
16, 5040, Note_on_c, 12, 55, 60
16, 5040, Note_on_c, 12, 48, 60
16, 5052, Control_c, 12, 11, 117
16, 5086, Control_c, 12, 11, 118
16, 5121, Control_c, 12, 11, 119
16, 5156, Control_c, 12, 11, 120
16, 5191, Control_c, 12, 11, 121
16, 5226, Control_c, 12, 11, 122
16, 5261, Control_c, 12, 11, 123
16, 5295, Control_c, 12, 11, 124
16, 5330, Control_c, 12, 11, 125
16, 5365, Control_c, 12, 11, 127
16, 5399, Note_on_c, 12, 55, 0
16, 5399, Note_on_c, 12, 48, 0
16, 5400, Note_on_c, 12, 48, 68
16, 5400, Note_on_c, 12, 57, 68
16, 5459, Note_on_c, 12, 48, 0
16, 5459, Note_on_c, 12, 57, 0
16, 5460, Note_on_c, 12, 57, 60
16, 5460, Note_on_c, 12, 48, 60
16, 5751, Note_on_c, 12, 57, 0
16, 5751, Note_on_c, 12, 48, 0
16, 5760, Note_on_c, 12, 57, 52
16, 5760, Note_on_c, 12, 48, 52
16, 5879, Note_on_c, 12, 57, 0
16, 5879, Note_on_c, 12, 48, 0
16, 5880, Note_on_c, 12, 60, 52
16, 6479, Note_on_c, 12, 60, 0
16, 6480, Note_on_c, 12, 60, 52
16, 7199, Note_on_c, 12, 60, 0
16, 7200, Note_on_c, 12, 60, 52
16, 7911, Note_on_c, 12, 60, 0
16, 7920, Note_on_c, 12, 62, 52
16, 8519, Note_on_c, 12, 62, 0
16, 8520, Note_on_c, 12, 60, 52
16, 8631, Note_on_c, 12, 60, 0
16, 8640, Note_on_c, 12, 60, 52
16, 9359, Note_on_c, 12, 60, 0
16, 9360, Note_on_c, 12, 60, 52
16, 9711, Note_on_c, 12, 60, 0
16, 9720, Note_on_c, 12, 62, 52
16, 10079, Note_on_c, 12, 62, 0
16, 10080, Note_on_c, 12, 62, 52
16, 10439, Note_on_c, 12, 62, 0
16, 10440, Note_on_c, 12, 55, 52
16, 10679, Note_on_c, 12, 55, 0
16, 10680, Note_on_c, 12, 60, 52
16, 10791, Note_on_c, 12, 60, 0
16, 10800, Note_on_c, 12, 60, 52
16, 11400, Program_c, 12, 45
16, 11519, Note_on_c, 12, 60, 0
16, 11880, Note_on_c, 12, 65, 49
16, 11880, Note_on_c, 12, 57, 49
16, 12119, Note_on_c, 12, 65, 0
16, 12119, Note_on_c, 12, 57, 0
16, 12600, Note_on_c, 12, 57, 52
16, 12600, Note_on_c, 12, 65, 52
16, 12839, Note_on_c, 12, 57, 0
16, 12839, Note_on_c, 12, 65, 0
16, 13320, Note_on_c, 12, 57, 56
16, 13320, Note_on_c, 12, 65, 56
16, 13559, Note_on_c, 12, 57, 0
16, 13559, Note_on_c, 12, 65, 0
16, 14040, Note_on_c, 12, 58, 60
16, 14040, Note_on_c, 12, 62, 60
16, 14279, Note_on_c, 12, 58, 0
16, 14279, Note_on_c, 12, 62, 0
16, 14760, Note_on_c, 12, 52, 63
16, 14760, Note_on_c, 12, 60, 63
16, 14999, Note_on_c, 12, 52, 0
16, 14999, Note_on_c, 12, 60, 0
16, 15480, Note_on_c, 12, 53, 67
16, 15480, Note_on_c, 12, 57, 67
16, 15719, Note_on_c, 12, 53, 0
16, 15719, Note_on_c, 12, 57, 0
16, 16080, Note_on_c, 12, 53, 70
16, 16080, Note_on_c, 12, 55, 70
16, 16199, Note_on_c, 12, 53, 0
16, 16199, Note_on_c, 12, 55, 0
16, 16440, Note_on_c, 12, 60, 71
16, 16440, Note_on_c, 12, 48, 71
16, 16559, Note_on_c, 12, 60, 0
16, 16559, Note_on_c, 12, 48, 0
16, 16560, Program_c, 12, 48
16, 16680, Note_on_c, 12, 53, 81
16, 16680, Note_on_c, 12, 57, 81
16, 16791, Note_on_c, 12, 53, 0
16, 16791, Note_on_c, 12, 57, 0
16, 16800, Note_on_c, 12, 57, 81
16, 16800, Note_on_c, 12, 53, 81
16, 16911, Note_on_c, 12, 57, 0
16, 16911, Note_on_c, 12, 53, 0
16, 16920, Note_on_c, 12, 57, 82
16, 16920, Note_on_c, 12, 53, 82
16, 17031, Note_on_c, 12, 57, 0
16, 17031, Note_on_c, 12, 53, 0
16, 17040, Note_on_c, 12, 57, 82
16, 17040, Note_on_c, 12, 53, 82
16, 17151, Note_on_c, 12, 57, 0
16, 17151, Note_on_c, 12, 53, 0
16, 17160, Note_on_c, 12, 53, 83
16, 17160, Note_on_c, 12, 57, 83
16, 17271, Note_on_c, 12, 53, 0
16, 17271, Note_on_c, 12, 57, 0
16, 17280, Note_on_c, 12, 57, 84
16, 17639, Note_on_c, 12, 57, 0
16, 17640, Note_on_c, 12, 53, 84
16, 17879, Note_on_c, 12, 53, 0
16, 17880, Note_on_c, 12, 60, 84
16, 17991, Note_on_c, 12, 60, 0
16, 18000, Note_on_c, 12, 57, 84
16, 18359, Note_on_c, 12, 57, 0
16, 18360, Note_on_c, 12, 53, 84
16, 18591, Note_on_c, 12, 53, 0
16, 18600, Note_on_c, 12, 48, 84
16, 18689, Note_on_c, 12, 48, 0
16, 18720, Note_on_c, 12, 53, 84
16, 18959, Note_on_c, 12, 53, 0
16, 18960, Note_on_c, 12, 57, 84
16, 19079, Note_on_c, 12, 57, 0
16, 19080, Note_on_c, 12, 60, 84
16, 19319, Note_on_c, 12, 60, 0
16, 19320, Note_on_c, 12, 57, 84
16, 19431, Note_on_c, 12, 57, 0
16, 19440, Note_on_c, 12, 58, 84
16, 19799, Note_on_c, 12, 58, 0
16, 19800, Note_on_c, 12, 58, 84
16, 20031, Note_on_c, 12, 58, 0
16, 20040, Note_on_c, 12, 55, 84
16, 20129, Note_on_c, 12, 55, 0
16, 20160, Note_on_c, 12, 58, 84
16, 20519, Note_on_c, 12, 58, 0
16, 20520, Note_on_c, 12, 55, 84
16, 20759, Note_on_c, 12, 55, 0
16, 20760, Note_on_c, 12, 60, 84
16, 20871, Note_on_c, 12, 60, 0
16, 20880, Note_on_c, 12, 57, 84
16, 21239, Note_on_c, 12, 57, 0
16, 21240, Note_on_c, 12, 53, 84
16, 21471, Note_on_c, 12, 53, 0
16, 21480, Note_on_c, 12, 57, 84
16, 21569, Note_on_c, 12, 57, 0
16, 21600, Note_on_c, 12, 55, 84
16, 21839, Note_on_c, 12, 55, 0
16, 21840, Note_on_c, 12, 50, 84
16, 21959, Note_on_c, 12, 50, 0
16, 21960, Note_on_c, 12, 52, 84
16, 22199, Note_on_c, 12, 52, 0
16, 22200, Note_on_c, 12, 48, 84
16, 22311, Note_on_c, 12, 48, 0
16, 22320, Note_on_c, 12, 48, 84
16, 22439, Note_on_c, 12, 48, 0
16, 22440, Note_on_c, 12, 53, 84
16, 22675, Note_on_c, 12, 53, 0
16, 22680, Note_on_c, 12, 48, 84
16, 22799, Note_on_c, 12, 48, 0
16, 22800, Note_on_c, 12, 55, 84
16, 23031, Note_on_c, 12, 55, 0
16, 23040, Note_on_c, 12, 48, 84
16, 23159, Note_on_c, 12, 48, 0
16, 23160, Note_on_c, 12, 57, 84
16, 23391, Note_on_c, 12, 57, 0
16, 23400, Note_on_c, 12, 60, 84
16, 23519, Note_on_c, 12, 60, 0
16, 23520, Note_on_c, 12, 58, 84
16, 23631, Note_on_c, 12, 58, 0
16, 23640, Note_on_c, 12, 55, 84
16, 23684, Note_on_c, 12, 55, 0
16, 23700, Note_on_c, 12, 52, 84
16, 23744, Note_on_c, 12, 52, 0
16, 23760, Note_on_c, 12, 48, 84
16, 23819, Note_on_c, 12, 48, 0
16, 23820, Note_on_c, 12, 53, 84
16, 23879, Note_on_c, 12, 53, 0
16, 23880, Note_on_c, 12, 57, 84
16, 23939, Note_on_c, 12, 57, 0
16, 23940, Note_on_c, 12, 60, 84
16, 23999, Note_on_c, 12, 60, 0
16, 24000, Note_on_c, 12, 57, 84
16, 24059, Note_on_c, 12, 57, 0
16, 24060, Note_on_c, 12, 53, 84
16, 24115, Note_on_c, 12, 53, 0
16, 24120, Note_on_c, 12, 48, 84
16, 24179, Note_on_c, 12, 48, 0
16, 24180, Note_on_c, 12, 55, 84
16, 24239, Note_on_c, 12, 55, 0
16, 24240, Note_on_c, 12, 58, 84
16, 24299, Note_on_c, 12, 58, 0
16, 24300, Note_on_c, 12, 60, 84
16, 24359, Note_on_c, 12, 60, 0
16, 24360, Note_on_c, 12, 58, 84
16, 24419, Note_on_c, 12, 58, 0
16, 24420, Note_on_c, 12, 55, 84
16, 24475, Note_on_c, 12, 55, 0
16, 24480, Note_on_c, 12, 48, 84
16, 24539, Note_on_c, 12, 48, 0
16, 24540, Note_on_c, 12, 53, 84
16, 24599, Note_on_c, 12, 53, 0
16, 24600, Note_on_c, 12, 57, 84
16, 24659, Note_on_c, 12, 57, 0
16, 24660, Note_on_c, 12, 60, 84
16, 24719, Note_on_c, 12, 60, 0
16, 24720, Note_on_c, 12, 57, 84
16, 24779, Note_on_c, 12, 57, 0
16, 24780, Note_on_c, 12, 53, 84
16, 24835, Note_on_c, 12, 53, 0
16, 24840, Note_on_c, 12, 48, 84
16, 24899, Note_on_c, 12, 48, 0
16, 24900, Note_on_c, 12, 55, 84
16, 24959, Note_on_c, 12, 55, 0
16, 24960, Note_on_c, 12, 58, 84
16, 25019, Note_on_c, 12, 58, 0
16, 25020, Note_on_c, 12, 60, 84
16, 25075, Note_on_c, 12, 60, 0
16, 25080, Note_on_c, 12, 48, 84
16, 25191, Note_on_c, 12, 48, 0
16, 25200, Note_on_c, 12, 48, 84
16, 25319, Note_on_c, 12, 48, 0
16, 25320, Note_on_c, 12, 53, 84
16, 25431, Note_on_c, 12, 53, 0
16, 25440, Note_on_c, 12, 53, 84
16, 25459, Note_on_c, 12, 53, 0
16, 25460, Note_on_c, 12, 55, 84
16, 25479, Note_on_c, 12, 55, 0
16, 25480, Note_on_c, 12, 53, 84
16, 25499, Note_on_c, 12, 53, 0
16, 25500, Note_on_c, 12, 55, 84
16, 25519, Note_on_c, 12, 55, 0
16, 25520, Note_on_c, 12, 52, 84
16, 25539, Note_on_c, 12, 52, 0
16, 25540, Note_on_c, 12, 53, 84
16, 25559, Note_on_c, 12, 53, 0
16, 25560, Note_on_c, 12, 48, 84
16, 25679, Note_on_c, 12, 48, 0
16, 25680, Note_on_c, 12, 55, 84
16, 25791, Note_on_c, 12, 55, 0
16, 25800, Note_on_c, 12, 55, 84
16, 25819, Note_on_c, 12, 55, 0
16, 25820, Note_on_c, 12, 57, 84
16, 25839, Note_on_c, 12, 57, 0
16, 25840, Note_on_c, 12, 55, 84
16, 25859, Note_on_c, 12, 55, 0
16, 25860, Note_on_c, 12, 57, 84
16, 25879, Note_on_c, 12, 57, 0
16, 25880, Note_on_c, 12, 53, 84
16, 25899, Note_on_c, 12, 53, 0
16, 25900, Note_on_c, 12, 55, 84
16, 25919, Note_on_c, 12, 55, 0
16, 25920, Note_on_c, 12, 48, 84
16, 26039, Note_on_c, 12, 48, 0
16, 26040, Note_on_c, 12, 57, 84
16, 26151, Note_on_c, 12, 57, 0
16, 26160, Note_on_c, 12, 57, 84
16, 26179, Note_on_c, 12, 57, 0
16, 26180, Note_on_c, 12, 58, 84
16, 26199, Note_on_c, 12, 58, 0
16, 26200, Note_on_c, 12, 57, 84
16, 26219, Note_on_c, 12, 57, 0
16, 26220, Note_on_c, 12, 58, 84
16, 26239, Note_on_c, 12, 58, 0
16, 26240, Note_on_c, 12, 55, 84
16, 26259, Note_on_c, 12, 55, 0
16, 26260, Note_on_c, 12, 57, 84
16, 26279, Note_on_c, 12, 57, 0
16, 26280, Note_on_c, 12, 60, 84
16, 26399, Note_on_c, 12, 60, 0
16, 26400, Note_on_c, 12, 58, 84
16, 26511, Note_on_c, 12, 58, 0
16, 26520, Note_on_c, 12, 55, 84
16, 26564, Note_on_c, 12, 55, 0
16, 26580, Note_on_c, 12, 52, 84
16, 26624, Note_on_c, 12, 52, 0
16, 26640, Note_on_c, 12, 48, 84
16, 26699, Note_on_c, 12, 48, 0
16, 26700, Note_on_c, 12, 53, 84
16, 26759, Note_on_c, 12, 53, 0
16, 26760, Note_on_c, 12, 57, 84
16, 26819, Note_on_c, 12, 57, 0
16, 26820, Note_on_c, 12, 60, 84
16, 26879, Note_on_c, 12, 60, 0
16, 26880, Note_on_c, 12, 57, 84
16, 26939, Note_on_c, 12, 57, 0
16, 26940, Note_on_c, 12, 53, 84
16, 26995, Note_on_c, 12, 53, 0
16, 27000, Note_on_c, 12, 48, 84
16, 27059, Note_on_c, 12, 48, 0
16, 27060, Note_on_c, 12, 55, 84
16, 27119, Note_on_c, 12, 55, 0
16, 27120, Note_on_c, 12, 58, 84
16, 27179, Note_on_c, 12, 58, 0
16, 27180, Note_on_c, 12, 60, 84
16, 27239, Note_on_c, 12, 60, 0
16, 27240, Note_on_c, 12, 58, 84
16, 27299, Note_on_c, 12, 58, 0
16, 27300, Note_on_c, 12, 55, 84
16, 27355, Note_on_c, 12, 55, 0
16, 27360, Note_on_c, 12, 48, 84
16, 27419, Note_on_c, 12, 48, 0
16, 27420, Note_on_c, 12, 53, 84
16, 27479, Note_on_c, 12, 53, 0
16, 27480, Note_on_c, 12, 57, 84
16, 27539, Note_on_c, 12, 57, 0
16, 27540, Note_on_c, 12, 60, 84
16, 27599, Note_on_c, 12, 60, 0
16, 27600, Note_on_c, 12, 57, 84
16, 27659, Note_on_c, 12, 57, 0
16, 27660, Note_on_c, 12, 53, 84
16, 27715, Note_on_c, 12, 53, 0
16, 27720, Note_on_c, 12, 48, 84
16, 27779, Note_on_c, 12, 48, 0
16, 27780, Note_on_c, 12, 52, 84
16, 27839, Note_on_c, 12, 52, 0
16, 27840, Note_on_c, 12, 58, 84
16, 27899, Note_on_c, 12, 58, 0
16, 27900, Note_on_c, 12, 60, 84
16, 27959, Note_on_c, 12, 60, 0
16, 28080, Note_on_c, 12, 62, 92
16, 28139, Note_on_c, 12, 62, 0
16, 28140, Note_on_c, 12, 62, 84
16, 28199, Note_on_c, 12, 62, 0
16, 28200, Note_on_c, 12, 60, 84
16, 28311, Note_on_c, 12, 60, 0
16, 28320, Note_on_c, 12, 57, 84
16, 28364, Note_on_c, 12, 57, 0
16, 28380, Note_on_c, 12, 53, 84
16, 28424, Note_on_c, 12, 53, 0
16, 28800, Note_on_c, 12, 65, 92
16, 28859, Note_on_c, 12, 65, 0
16, 28860, Note_on_c, 12, 65, 84
16, 28919, Note_on_c, 12, 65, 0
16, 28920, Note_on_c, 12, 64, 84
16, 29031, Note_on_c, 12, 64, 0
16, 29040, Note_on_c, 12, 60, 84
16, 29084, Note_on_c, 12, 60, 0
16, 29100, Note_on_c, 12, 55, 84
16, 29144, Note_on_c, 12, 55, 0
16, 30240, Note_on_c, 12, 57, 84
16, 30359, Note_on_c, 12, 57, 0
16, 30360, Note_on_c, 12, 55, 84
16, 30471, Note_on_c, 12, 55, 0
16, 30480, Note_on_c, 12, 52, 84
16, 30524, Note_on_c, 12, 52, 0
16, 30540, Note_on_c, 12, 48, 84
16, 30584, Note_on_c, 12, 48, 0
16, 30660, Note_on_c, 12, 55, 84
16, 30715, Note_on_c, 12, 55, 0
16, 30720, Note_on_c, 12, 60, 84
16, 30775, Note_on_c, 12, 60, 0
16, 30780, Note_on_c, 12, 64, 84
16, 30835, Note_on_c, 12, 64, 0
16, 30840, Note_on_c, 12, 67, 84
16, 30895, Note_on_c, 12, 67, 0
16, 30900, Note_on_c, 12, 67, 84
16, 30955, Note_on_c, 12, 67, 0
16, 30960, Note_on_c, 12, 67, 84
16, 30960, Note_on_c, 12, 55, 84
16, 31671, Note_on_c, 12, 67, 0
16, 31671, Note_on_c, 12, 55, 0
16, 31680, Note_on_c, 12, 55, 84
16, 31799, Note_on_c, 12, 55, 0
16, 31800, Note_on_c, 12, 53, 84
16, 31911, Note_on_c, 12, 53, 0
16, 31920, Note_on_c, 12, 50, 84
16, 31964, Note_on_c, 12, 50, 0
16, 31980, Note_on_c, 12, 59, 84
16, 32024, Note_on_c, 12, 59, 0
16, 32100, Note_on_c, 12, 55, 84
16, 32155, Note_on_c, 12, 55, 0
16, 32160, Note_on_c, 12, 59, 84
16, 32215, Note_on_c, 12, 59, 0
16, 32220, Note_on_c, 12, 62, 84
16, 32275, Note_on_c, 12, 62, 0
16, 32280, Note_on_c, 12, 67, 84
16, 32335, Note_on_c, 12, 67, 0
16, 32340, Note_on_c, 12, 67, 84
16, 32395, Note_on_c, 12, 67, 0
16, 32400, Note_on_c, 12, 67, 84
16, 32400, Note_on_c, 12, 55, 84
16, 33111, Note_on_c, 12, 67, 0
16, 33111, Note_on_c, 12, 55, 0
16, 33120, Note_on_c, 12, 57, 84
16, 33179, Note_on_c, 12, 57, 0
16, 33180, Note_on_c, 12, 55, 84
16, 33235, Note_on_c, 12, 55, 0
16, 33240, Note_on_c, 12, 54, 84
16, 33284, Note_on_c, 12, 54, 0
16, 33300, Note_on_c, 12, 55, 84
16, 33344, Note_on_c, 12, 55, 0
16, 33360, Note_on_c, 12, 52, 84
16, 33404, Note_on_c, 12, 52, 0
16, 33420, Note_on_c, 12, 48, 84
16, 33464, Note_on_c, 12, 48, 0
16, 33540, Note_on_c, 12, 55, 84
16, 33595, Note_on_c, 12, 55, 0
16, 33600, Note_on_c, 12, 60, 84
16, 33655, Note_on_c, 12, 60, 0
16, 33660, Note_on_c, 12, 64, 84
16, 33715, Note_on_c, 12, 64, 0
16, 33720, Note_on_c, 12, 67, 84
16, 33775, Note_on_c, 12, 67, 0
16, 33780, Note_on_c, 12, 67, 84
16, 33835, Note_on_c, 12, 67, 0
16, 33840, Note_on_c, 12, 67, 84
16, 33840, Note_on_c, 12, 55, 84
16, 34551, Note_on_c, 12, 67, 0
16, 34551, Note_on_c, 12, 55, 0
16, 34560, Note_on_c, 12, 57, 84
16, 34619, Note_on_c, 12, 57, 0
16, 34620, Note_on_c, 12, 55, 84
16, 34675, Note_on_c, 12, 55, 0
16, 34680, Note_on_c, 12, 54, 84
16, 34724, Note_on_c, 12, 54, 0
16, 34740, Note_on_c, 12, 55, 84
16, 34784, Note_on_c, 12, 55, 0
16, 34800, Note_on_c, 12, 53, 84
16, 34844, Note_on_c, 12, 53, 0
16, 34860, Note_on_c, 12, 50, 84
16, 34904, Note_on_c, 12, 50, 0
16, 34980, Note_on_c, 12, 55, 84
16, 35035, Note_on_c, 12, 55, 0
16, 35040, Note_on_c, 12, 59, 84
16, 35095, Note_on_c, 12, 59, 0
16, 35100, Note_on_c, 12, 62, 84
16, 35155, Note_on_c, 12, 62, 0
16, 35160, Note_on_c, 12, 67, 84
16, 35215, Note_on_c, 12, 67, 0
16, 35220, Note_on_c, 12, 55, 84
16, 35275, Note_on_c, 12, 55, 0
16, 35280, Note_on_c, 12, 60, 76
16, 35519, Note_on_c, 12, 60, 0
16, 36220, Control_c, 12, 11, 118
16, 36240, Control_c, 12, 11, 119
16, 36240, Note_on_c, 12, 60, 76
16, 36260, Control_c, 12, 11, 120
16, 36280, Control_c, 12, 11, 122
16, 36300, Control_c, 12, 11, 123
16, 36320, Control_c, 12, 11, 124
16, 36340, Control_c, 12, 11, 127
16, 36359, Note_on_c, 12, 60, 0
16, 36360, Note_on_c, 12, 55, 76
16, 36591, Note_on_c, 12, 55, 0
16, 36600, Note_on_c, 12, 55, 76
16, 36711, Note_on_c, 12, 55, 0
16, 36720, Note_on_c, 12, 60, 76
16, 36839, Note_on_c, 12, 60, 0
16, 37320, Note_on_c, 12, 53, 60
16, 37379, Note_on_c, 12, 53, 0
16, 37380, Note_on_c, 12, 48, 62
16, 37435, Note_on_c, 12, 48, 0
16, 37440, Note_on_c, 12, 55, 64
16, 37499, Note_on_c, 12, 55, 0
16, 37500, Note_on_c, 12, 48, 66
16, 37559, Note_on_c, 12, 48, 0
16, 37560, Note_on_c, 12, 59, 68
16, 37619, Note_on_c, 12, 59, 0
16, 37620, Note_on_c, 12, 55, 70
16, 37679, Note_on_c, 12, 55, 0
16, 37680, Note_on_c, 12, 60, 72
16, 37739, Note_on_c, 12, 60, 0
16, 37740, Note_on_c, 12, 55, 74
16, 37795, Note_on_c, 12, 55, 0
16, 37800, Note_on_c, 12, 59, 76
16, 37859, Note_on_c, 12, 59, 0
16, 37860, Note_on_c, 12, 55, 76
16, 37919, Note_on_c, 12, 55, 0
16, 37920, Note_on_c, 12, 59, 76
16, 37979, Note_on_c, 12, 59, 0
16, 37980, Note_on_c, 12, 62, 76
16, 38039, Note_on_c, 12, 62, 0
16, 38040, Note_on_c, 12, 67, 76
16, 38095, Note_on_c, 12, 67, 0
16, 38100, Note_on_c, 12, 67, 76
16, 38144, Note_on_c, 12, 67, 0
16, 38160, Note_on_c, 12, 67, 84
16, 38519, Note_on_c, 12, 67, 0
16, 38520, Note_on_c, 12, 64, 84
16, 38639, Note_on_c, 12, 64, 0
16, 38760, Note_on_c, 12, 67, 84
16, 38849, Note_on_c, 12, 67, 0
16, 38880, Note_on_c, 12, 69, 84
16, 39239, Note_on_c, 12, 69, 0
16, 39240, Note_on_c, 12, 65, 84
16, 39359, Note_on_c, 12, 65, 0
16, 39480, Note_on_c, 12, 53, 84
16, 39569, Note_on_c, 12, 53, 0
16, 39600, Note_on_c, 12, 55, 76
16, 39600, Control_c, 12, 11, 127
16, 39620, Control_c, 12, 11, 124
16, 39640, Control_c, 12, 11, 122
16, 39660, Control_c, 12, 11, 119
16, 39680, Control_c, 12, 11, 117
16, 39700, Control_c, 12, 11, 114
16, 39720, Control_c, 12, 11, 111
16, 39740, Control_c, 12, 11, 109
16, 39760, Control_c, 12, 11, 106
16, 39780, Control_c, 12, 11, 104
16, 39800, Control_c, 12, 11, 101
16, 39820, Control_c, 12, 11, 98
16, 39840, Control_c, 12, 11, 96
16, 39860, Control_c, 12, 11, 93
16, 39880, Control_c, 12, 11, 90
16, 39900, Control_c, 12, 11, 88
16, 39920, Control_c, 12, 11, 85
16, 39940, Control_c, 12, 11, 80
16, 40319, Note_on_c, 12, 55, 0
16, 40320, Note_on_c, 12, 55, 76
16, 41039, Note_on_c, 12, 55, 0
16, 41040, Note_on_c, 12, 55, 76
16, 41040, Control_c, 12, 11, 80
16, 41108, Control_c, 12, 11, 79
16, 41175, Control_c, 12, 11, 78
16, 41243, Control_c, 12, 11, 77
16, 41310, Control_c, 12, 11, 76
16, 41378, Control_c, 12, 11, 75
16, 41445, Control_c, 12, 11, 74
16, 41513, Control_c, 12, 11, 73
16, 41580, Control_c, 12, 11, 72
16, 41648, Control_c, 12, 11, 71
16, 41715, Control_c, 12, 11, 70
16, 41759, Note_on_c, 12, 55, 0
16, 41760, Note_on_c, 12, 55, 76
16, 41783, Control_c, 12, 11, 69
16, 41850, Control_c, 12, 11, 68
16, 41918, Control_c, 12, 11, 67
16, 41985, Control_c, 12, 11, 66
16, 42053, Control_c, 12, 11, 64
16, 42479, Note_on_c, 12, 55, 0
16, 42480, Note_on_c, 12, 55, 76
16, 43199, Note_on_c, 12, 55, 0
16, 43200, Note_on_c, 12, 55, 76
16, 43911, Note_on_c, 12, 55, 0
16, 43920, Control_c, 12, 11, 64
16, 43920, Note_on_c, 12, 55, 76
16, 43920, Note_on_c, 12, 48, 76
16, 43950, Control_c, 12, 11, 65
16, 43980, Control_c, 12, 11, 66
16, 44010, Control_c, 12, 11, 67
16, 44040, Control_c, 12, 11, 68
16, 44070, Control_c, 12, 11, 69
16, 44100, Control_c, 12, 11, 70
16, 44130, Control_c, 12, 11, 71
16, 44160, Control_c, 12, 11, 72
16, 44190, Control_c, 12, 11, 73
16, 44220, Control_c, 12, 11, 74
16, 44250, Control_c, 12, 11, 75
16, 44280, Control_c, 12, 11, 76
16, 44310, Control_c, 12, 11, 77
16, 44340, Control_c, 12, 11, 78
16, 44370, Control_c, 12, 11, 79
16, 44400, Control_c, 12, 11, 80
16, 44430, Control_c, 12, 11, 81
16, 44460, Control_c, 12, 11, 82
16, 44490, Control_c, 12, 11, 83
16, 44520, Control_c, 12, 11, 84
16, 44550, Control_c, 12, 11, 85
16, 44580, Control_c, 12, 11, 86
16, 44610, Control_c, 12, 11, 87
16, 44639, Note_on_c, 12, 55, 0
16, 44639, Note_on_c, 12, 48, 0
16, 44640, Note_on_c, 12, 48, 76
16, 44640, Note_on_c, 12, 55, 76
16, 44640, Control_c, 12, 11, 88
16, 44670, Control_c, 12, 11, 89
16, 44700, Control_c, 12, 11, 90
16, 44730, Control_c, 12, 11, 91
16, 44760, Control_c, 12, 11, 92
16, 44790, Control_c, 12, 11, 93
16, 44820, Control_c, 12, 11, 94
16, 44850, Control_c, 12, 11, 95
16, 44880, Control_c, 12, 11, 96
16, 44910, Control_c, 12, 11, 97
16, 44940, Control_c, 12, 11, 98
16, 44970, Control_c, 12, 11, 99
16, 45000, Control_c, 12, 11, 100
16, 45030, Control_c, 12, 11, 101
16, 45060, Control_c, 12, 11, 102
16, 45090, Control_c, 12, 11, 103
16, 45120, Control_c, 12, 11, 104
16, 45150, Control_c, 12, 11, 105
16, 45180, Control_c, 12, 11, 106
16, 45210, Control_c, 12, 11, 107
16, 45231, Note_on_c, 12, 48, 0
16, 45231, Note_on_c, 12, 55, 0
16, 45240, Control_c, 12, 11, 108
16, 45240, Note_on_c, 12, 60, 76
16, 45270, Control_c, 12, 11, 109
16, 45300, Control_c, 12, 11, 110
16, 45330, Control_c, 12, 11, 111
16, 45351, Note_on_c, 12, 60, 0
16, 45358, Control_c, 12, 11, 127
16, 45360, Note_on_c, 12, 60, 52
16, 46079, Note_on_c, 12, 60, 0
16, 46080, Note_on_c, 12, 60, 52
16, 46799, Note_on_c, 12, 60, 0
16, 46800, Note_on_c, 12, 60, 52
16, 47511, Note_on_c, 12, 60, 0
16, 47520, Note_on_c, 12, 62, 52
16, 48111, Note_on_c, 12, 62, 0
16, 48120, Note_on_c, 12, 60, 52
16, 48231, Note_on_c, 12, 60, 0
16, 48240, Note_on_c, 12, 60, 52
16, 48959, Note_on_c, 12, 60, 0
16, 48960, Note_on_c, 12, 60, 52
16, 49311, Note_on_c, 12, 60, 0
16, 49320, Note_on_c, 12, 62, 52
16, 50039, Note_on_c, 12, 62, 0
16, 50040, Note_on_c, 12, 55, 52
16, 50279, Note_on_c, 12, 55, 0
16, 50280, Note_on_c, 12, 60, 52
16, 50391, Note_on_c, 12, 60, 0
16, 50398, Control_c, 12, 11, 80
16, 50400, Note_on_c, 12, 60, 76
16, 50400, Control_c, 12, 11, 80
16, 50492, Control_c, 12, 11, 81
16, 50584, Control_c, 12, 11, 82
16, 50676, Control_c, 12, 11, 83
16, 50768, Control_c, 12, 11, 84
16, 50860, Control_c, 12, 11, 85
16, 50951, Control_c, 12, 11, 86
16, 51043, Control_c, 12, 11, 87
16, 51119, Note_on_c, 12, 60, 0
16, 51503, Control_c, 12, 11, 92
16, 51540, Note_on_c, 12, 48, 76
16, 51595, Control_c, 12, 11, 93
16, 51599, Note_on_c, 12, 48, 0
16, 51600, Note_on_c, 12, 53, 76
16, 51659, Note_on_c, 12, 53, 0
16, 51660, Note_on_c, 12, 57, 76
16, 51687, Control_c, 12, 11, 94
16, 51719, Note_on_c, 12, 57, 0
16, 51720, Note_on_c, 12, 60, 76
16, 51779, Note_on_c, 12, 60, 0
16, 51779, Control_c, 12, 11, 95
16, 51780, Note_on_c, 12, 57, 76
16, 51839, Note_on_c, 12, 57, 0
16, 52238, Control_c, 12, 11, 100
16, 52260, Note_on_c, 12, 48, 76
16, 52319, Note_on_c, 12, 48, 0
16, 52320, Note_on_c, 12, 53, 76
16, 52330, Control_c, 12, 11, 101
16, 52379, Note_on_c, 12, 53, 0
16, 52380, Note_on_c, 12, 57, 76
16, 52422, Control_c, 12, 11, 102
16, 52439, Note_on_c, 12, 57, 0
16, 52440, Note_on_c, 12, 60, 76
16, 52499, Note_on_c, 12, 60, 0
16, 52500, Note_on_c, 12, 57, 76
16, 52514, Control_c, 12, 11, 103
16, 52559, Note_on_c, 12, 57, 0
16, 52974, Control_c, 12, 11, 108
16, 52980, Note_on_c, 12, 48, 76
16, 53039, Note_on_c, 12, 48, 0
16, 53040, Note_on_c, 12, 53, 76
16, 53066, Control_c, 12, 11, 109
16, 53099, Note_on_c, 12, 53, 0
16, 53100, Note_on_c, 12, 57, 76
16, 53157, Control_c, 12, 11, 110
16, 53159, Note_on_c, 12, 57, 0
16, 53160, Note_on_c, 12, 60, 76
16, 53219, Note_on_c, 12, 60, 0
16, 53220, Note_on_c, 12, 57, 76
16, 53249, Control_c, 12, 11, 111
16, 53279, Note_on_c, 12, 57, 0
16, 53617, Control_c, 12, 11, 115
16, 53700, Note_on_c, 12, 53, 76
16, 53709, Control_c, 12, 11, 116
16, 53759, Note_on_c, 12, 53, 0
16, 53760, Note_on_c, 12, 57, 76
16, 53801, Control_c, 12, 11, 117
16, 53819, Note_on_c, 12, 57, 0
16, 53820, Note_on_c, 12, 60, 76
16, 53879, Note_on_c, 12, 60, 0
16, 53880, Note_on_c, 12, 65, 76
16, 53893, Control_c, 12, 11, 118
16, 53939, Note_on_c, 12, 65, 0
16, 53940, Note_on_c, 12, 60, 76
16, 53985, Control_c, 12, 11, 119
16, 53999, Note_on_c, 12, 60, 0
16, 54060, Note_on_c, 12, 53, 76
16, 54077, Control_c, 12, 11, 120
16, 54119, Note_on_c, 12, 53, 0
16, 54120, Note_on_c, 12, 57, 76
16, 54169, Control_c, 12, 11, 121
16, 54179, Note_on_c, 12, 57, 0
16, 54180, Note_on_c, 12, 60, 76
16, 54239, Note_on_c, 12, 60, 0
16, 54240, Note_on_c, 12, 65, 76
16, 54260, Control_c, 12, 11, 122
16, 54299, Note_on_c, 12, 65, 0
16, 54300, Note_on_c, 12, 60, 76
16, 54352, Control_c, 12, 11, 123
16, 54359, Note_on_c, 12, 60, 0
16, 54420, Note_on_c, 12, 53, 76
16, 54444, Control_c, 12, 11, 124
16, 54479, Note_on_c, 12, 53, 0
16, 54480, Note_on_c, 12, 57, 76
16, 54536, Control_c, 12, 11, 125
16, 54539, Note_on_c, 12, 57, 0
16, 54540, Note_on_c, 12, 60, 76
16, 54599, Note_on_c, 12, 60, 0
16, 54600, Note_on_c, 12, 65, 76
16, 54628, Control_c, 12, 11, 127
16, 54655, Note_on_c, 12, 65, 0
16, 54660, Note_on_c, 12, 65, 76
16, 54715, Note_on_c, 12, 65, 0
16, 54720, Note_on_c, 12, 69, 76
16, 54959, Note_on_c, 12, 69, 0
16, 54960, Note_on_c, 12, 72, 76
16, 55079, Note_on_c, 12, 72, 0
16, 55080, Note_on_c, 12, 75, 76
16, 55311, Note_on_c, 12, 75, 0
16, 55320, Note_on_c, 12, 53, 84
16, 55409, Note_on_c, 12, 53, 0
16, 55440, Note_on_c, 12, 57, 84
16, 55649, Note_on_c, 12, 57, 0
16, 55680, Note_on_c, 12, 60, 84
16, 55769, Note_on_c, 12, 60, 0
16, 55800, Note_on_c, 12, 63, 84
16, 56009, Note_on_c, 12, 63, 0
16, 56040, Note_on_c, 12, 65, 84
16, 56129, Note_on_c, 12, 65, 0
16, 56160, Note_on_c, 12, 69, 84
16, 56369, Note_on_c, 12, 69, 0
16, 56400, Note_on_c, 12, 72, 84
16, 56489, Note_on_c, 12, 72, 0
16, 56520, Note_on_c, 12, 75, 84
16, 56729, Note_on_c, 12, 75, 0
16, 56760, Note_on_c, 12, 53, 84
16, 56849, Note_on_c, 12, 53, 0
16, 56880, Note_on_c, 12, 50, 52
16, 56939, Note_on_c, 12, 50, 0
16, 56940, Note_on_c, 12, 53, 52
16, 56999, Note_on_c, 12, 53, 0
16, 57000, Note_on_c, 12, 58, 52
16, 57059, Note_on_c, 12, 58, 0
16, 57060, Note_on_c, 12, 53, 52
16, 57119, Note_on_c, 12, 53, 0
16, 57120, Note_on_c, 12, 50, 52
16, 57179, Note_on_c, 12, 50, 0
16, 57180, Note_on_c, 12, 53, 52
16, 57235, Note_on_c, 12, 53, 0
16, 57240, Note_on_c, 12, 50, 52
16, 57299, Note_on_c, 12, 50, 0
16, 57300, Note_on_c, 12, 53, 52
16, 57359, Note_on_c, 12, 53, 0
16, 57360, Note_on_c, 12, 58, 52
16, 57419, Note_on_c, 12, 58, 0
16, 57420, Note_on_c, 12, 62, 52
16, 57479, Note_on_c, 12, 62, 0
16, 57480, Note_on_c, 12, 51, 52
16, 57539, Note_on_c, 12, 51, 0
16, 57540, Note_on_c, 12, 60, 52
16, 57595, Note_on_c, 12, 60, 0
16, 57600, Note_on_c, 12, 50, 52
16, 57659, Note_on_c, 12, 50, 0
16, 57660, Note_on_c, 12, 53, 52
16, 57719, Note_on_c, 12, 53, 0
16, 57720, Note_on_c, 12, 58, 52
16, 57779, Note_on_c, 12, 58, 0
16, 57780, Note_on_c, 12, 50, 52
16, 57839, Note_on_c, 12, 50, 0
16, 57840, Note_on_c, 12, 51, 52
16, 57899, Note_on_c, 12, 51, 0
16, 57900, Note_on_c, 12, 60, 52
16, 57955, Note_on_c, 12, 60, 0
16, 57960, Note_on_c, 12, 53, 52
16, 58019, Note_on_c, 12, 53, 0
16, 58020, Note_on_c, 12, 58, 52
16, 58079, Note_on_c, 12, 58, 0
16, 58080, Note_on_c, 12, 62, 52
16, 58139, Note_on_c, 12, 62, 0
16, 58140, Note_on_c, 12, 50, 52
16, 58199, Note_on_c, 12, 50, 0
16, 58200, Note_on_c, 12, 53, 76
16, 58259, Note_on_c, 12, 53, 0
16, 58260, Note_on_c, 12, 58, 76
16, 58315, Note_on_c, 12, 58, 0
16, 58320, Note_on_c, 12, 51, 84
16, 58379, Note_on_c, 12, 51, 0
16, 58380, Note_on_c, 12, 53, 76
16, 58439, Note_on_c, 12, 53, 0
16, 58440, Note_on_c, 12, 58, 76
16, 58499, Note_on_c, 12, 58, 0
16, 58500, Note_on_c, 12, 51, 76
16, 58559, Note_on_c, 12, 51, 0
16, 58560, Note_on_c, 12, 53, 76
16, 58619, Note_on_c, 12, 53, 0
16, 58620, Note_on_c, 12, 57, 76
16, 58675, Note_on_c, 12, 57, 0
16, 58680, Note_on_c, 12, 48, 52
16, 58739, Note_on_c, 12, 48, 0
16, 58740, Note_on_c, 12, 53, 52
16, 58799, Note_on_c, 12, 53, 0
16, 58800, Note_on_c, 12, 57, 52
16, 58859, Note_on_c, 12, 57, 0
16, 58860, Note_on_c, 12, 53, 52
16, 58919, Note_on_c, 12, 53, 0
16, 58920, Note_on_c, 12, 55, 52
16, 58979, Note_on_c, 12, 55, 0
16, 58980, Note_on_c, 12, 59, 52
16, 59035, Note_on_c, 12, 59, 0
16, 59040, Note_on_c, 12, 53, 52
16, 59099, Note_on_c, 12, 53, 0
16, 59100, Note_on_c, 12, 57, 52
16, 59159, Note_on_c, 12, 57, 0
16, 59160, Note_on_c, 12, 60, 52
16, 59219, Note_on_c, 12, 60, 0
16, 59220, Note_on_c, 12, 53, 52
16, 59279, Note_on_c, 12, 53, 0
16, 59280, Note_on_c, 12, 55, 52
16, 59339, Note_on_c, 12, 55, 0
16, 59340, Note_on_c, 12, 59, 52
16, 59395, Note_on_c, 12, 59, 0
16, 59400, Note_on_c, 12, 53, 52
16, 59459, Note_on_c, 12, 53, 0
16, 59460, Note_on_c, 12, 57, 52
16, 59519, Note_on_c, 12, 57, 0
16, 59520, Note_on_c, 12, 60, 52
16, 59579, Note_on_c, 12, 60, 0
16, 59580, Note_on_c, 12, 53, 52
16, 59639, Note_on_c, 12, 53, 0
16, 59640, Note_on_c, 12, 59, 76
16, 59699, Note_on_c, 12, 59, 0
16, 59700, Note_on_c, 12, 62, 76
16, 59755, Note_on_c, 12, 62, 0
16, 59760, Note_on_c, 12, 53, 84
16, 59819, Note_on_c, 12, 53, 0
16, 59820, Note_on_c, 12, 59, 76
16, 59879, Note_on_c, 12, 59, 0
16, 59880, Note_on_c, 12, 62, 76
16, 59939, Note_on_c, 12, 62, 0
16, 59940, Note_on_c, 12, 53, 76
16, 59999, Note_on_c, 12, 53, 0
16, 60000, Note_on_c, 12, 60, 76
16, 60059, Note_on_c, 12, 60, 0
16, 60060, Note_on_c, 12, 63, 76
16, 60115, Note_on_c, 12, 63, 0
16, 60120, Note_on_c, 12, 53, 52
16, 60179, Note_on_c, 12, 53, 0
16, 60180, Note_on_c, 12, 60, 52
16, 60239, Note_on_c, 12, 60, 0
16, 60240, Note_on_c, 12, 63, 52
16, 60299, Note_on_c, 12, 63, 0
16, 60300, Note_on_c, 12, 53, 52
16, 60359, Note_on_c, 12, 53, 0
16, 60360, Note_on_c, 12, 58, 52
16, 60419, Note_on_c, 12, 58, 0
16, 60420, Note_on_c, 12, 62, 52
16, 60475, Note_on_c, 12, 62, 0
16, 60480, Note_on_c, 12, 53, 52
16, 60539, Note_on_c, 12, 53, 0
16, 60540, Note_on_c, 12, 57, 52
16, 60599, Note_on_c, 12, 57, 0
16, 60600, Note_on_c, 12, 60, 52
16, 60659, Note_on_c, 12, 60, 0
16, 60660, Note_on_c, 12, 53, 52
16, 60719, Note_on_c, 12, 53, 0
16, 60720, Note_on_c, 12, 58, 52
16, 60779, Note_on_c, 12, 58, 0
16, 60780, Note_on_c, 12, 62, 52
16, 60835, Note_on_c, 12, 62, 0
16, 60840, Note_on_c, 12, 53, 52
16, 60899, Note_on_c, 12, 53, 0
16, 60900, Note_on_c, 12, 60, 52
16, 60959, Note_on_c, 12, 60, 0
16, 60960, Note_on_c, 12, 63, 52
16, 61019, Note_on_c, 12, 63, 0
16, 61020, Note_on_c, 12, 53, 52
16, 61079, Note_on_c, 12, 53, 0
16, 61080, Note_on_c, 12, 57, 76
16, 61139, Note_on_c, 12, 57, 0
16, 61140, Note_on_c, 12, 60, 76
16, 61195, Note_on_c, 12, 60, 0
16, 61200, Note_on_c, 12, 53, 76
16, 61259, Note_on_c, 12, 53, 0
16, 61260, Note_on_c, 12, 58, 76
16, 61319, Note_on_c, 12, 58, 0
16, 61320, Note_on_c, 12, 62, 76
16, 61379, Note_on_c, 12, 62, 0
16, 61380, Note_on_c, 12, 50, 52
16, 61439, Note_on_c, 12, 50, 0
16, 61440, Note_on_c, 12, 53, 52
16, 61499, Note_on_c, 12, 53, 0
16, 61500, Note_on_c, 12, 58, 52
16, 61555, Note_on_c, 12, 58, 0
16, 61560, Note_on_c, 12, 48, 52
16, 61619, Note_on_c, 12, 48, 0
16, 61620, Note_on_c, 12, 51, 52
16, 61679, Note_on_c, 12, 51, 0
16, 61680, Note_on_c, 12, 58, 52
16, 61739, Note_on_c, 12, 58, 0
16, 61740, Note_on_c, 12, 50, 52
16, 61799, Note_on_c, 12, 50, 0
16, 61800, Note_on_c, 12, 53, 76
16, 61859, Note_on_c, 12, 53, 0
16, 61860, Note_on_c, 12, 58, 76
16, 61915, Note_on_c, 12, 58, 0
16, 61920, Note_on_c, 12, 51, 76
16, 61979, Note_on_c, 12, 51, 0
16, 61980, Note_on_c, 12, 55, 76
16, 62039, Note_on_c, 12, 55, 0
16, 62040, Note_on_c, 12, 58, 76
16, 62099, Note_on_c, 12, 58, 0
16, 62100, Note_on_c, 12, 51, 76
16, 62159, Note_on_c, 12, 51, 0
16, 62160, Note_on_c, 12, 55, 76
16, 62219, Note_on_c, 12, 55, 0
16, 62220, Note_on_c, 12, 58, 76
16, 62275, Note_on_c, 12, 58, 0
16, 62280, Note_on_c, 12, 51, 76
16, 62339, Note_on_c, 12, 51, 0
16, 62340, Note_on_c, 12, 55, 76
16, 62399, Note_on_c, 12, 55, 0
16, 62400, Note_on_c, 12, 58, 76
16, 62459, Note_on_c, 12, 58, 0
16, 62460, Note_on_c, 12, 51, 76
16, 62519, Note_on_c, 12, 51, 0
16, 62520, Note_on_c, 12, 55, 76
16, 62579, Note_on_c, 12, 55, 0
16, 62580, Note_on_c, 12, 58, 76
16, 62635, Note_on_c, 12, 58, 0
16, 62640, Note_on_c, 12, 50, 76
16, 62699, Note_on_c, 12, 50, 0
16, 62700, Note_on_c, 12, 53, 76
16, 62759, Note_on_c, 12, 53, 0
16, 62760, Note_on_c, 12, 58, 76
16, 62819, Note_on_c, 12, 58, 0
16, 62820, Note_on_c, 12, 50, 76
16, 62879, Note_on_c, 12, 50, 0
16, 62880, Note_on_c, 12, 53, 76
16, 62939, Note_on_c, 12, 53, 0
16, 62940, Note_on_c, 12, 58, 76
16, 62995, Note_on_c, 12, 58, 0
16, 63000, Note_on_c, 12, 50, 76
16, 63059, Note_on_c, 12, 50, 0
16, 63060, Note_on_c, 12, 53, 76
16, 63119, Note_on_c, 12, 53, 0
16, 63120, Note_on_c, 12, 58, 76
16, 63179, Note_on_c, 12, 58, 0
16, 63180, Note_on_c, 12, 50, 76
16, 63239, Note_on_c, 12, 50, 0
16, 63240, Note_on_c, 12, 53, 76
16, 63299, Note_on_c, 12, 53, 0
16, 63300, Note_on_c, 12, 58, 76
16, 63355, Note_on_c, 12, 58, 0
16, 63360, Note_on_c, 12, 48, 76
16, 63419, Note_on_c, 12, 48, 0
16, 63420, Note_on_c, 12, 53, 76
16, 63479, Note_on_c, 12, 53, 0
16, 63480, Note_on_c, 12, 57, 76
16, 63539, Note_on_c, 12, 57, 0
16, 63540, Note_on_c, 12, 48, 76
16, 63599, Note_on_c, 12, 48, 0
16, 63600, Note_on_c, 12, 53, 76
16, 63659, Note_on_c, 12, 53, 0
16, 63660, Note_on_c, 12, 57, 76
16, 63715, Note_on_c, 12, 57, 0
16, 63720, Note_on_c, 12, 48, 76
16, 63779, Note_on_c, 12, 48, 0
16, 63780, Note_on_c, 12, 53, 76
16, 63839, Note_on_c, 12, 53, 0
16, 63840, Note_on_c, 12, 57, 76
16, 63899, Note_on_c, 12, 57, 0
16, 63900, Note_on_c, 12, 48, 76
16, 63959, Note_on_c, 12, 48, 0
16, 63960, Note_on_c, 12, 53, 76
16, 64019, Note_on_c, 12, 53, 0
16, 64020, Note_on_c, 12, 57, 76
16, 64075, Note_on_c, 12, 57, 0
16, 64080, Note_on_c, 12, 50, 76
16, 64135, Note_on_c, 12, 50, 0
16, 64140, Note_on_c, 12, 58, 76
16, 64199, Note_on_c, 12, 58, 0
16, 64200, Note_on_c, 12, 57, 76
16, 64259, Note_on_c, 12, 57, 0
16, 64260, Note_on_c, 12, 58, 76
16, 64319, Note_on_c, 12, 58, 0
16, 64320, Note_on_c, 12, 57, 76
16, 64379, Note_on_c, 12, 57, 0
16, 64380, Note_on_c, 12, 58, 76
16, 64439, Note_on_c, 12, 58, 0
16, 64440, Note_on_c, 12, 60, 76
16, 64499, Note_on_c, 12, 60, 0
16, 64500, Note_on_c, 12, 58, 76
16, 64559, Note_on_c, 12, 58, 0
16, 64560, Note_on_c, 12, 60, 76
16, 64619, Note_on_c, 12, 60, 0
16, 64620, Note_on_c, 12, 58, 76
16, 64679, Note_on_c, 12, 58, 0
16, 64680, Note_on_c, 12, 62, 76
16, 64739, Note_on_c, 12, 62, 0
16, 64740, Note_on_c, 12, 58, 76
16, 64795, Note_on_c, 12, 58, 0
16, 64800, Note_on_c, 12, 63, 80
16, 64859, Note_on_c, 12, 63, 0
16, 64860, Note_on_c, 12, 58, 80
16, 64919, Note_on_c, 12, 58, 0
16, 64920, Note_on_c, 12, 63, 80
16, 64979, Note_on_c, 12, 63, 0
16, 64980, Note_on_c, 12, 58, 80
16, 65039, Note_on_c, 12, 58, 0
16, 65040, Note_on_c, 12, 63, 80
16, 65099, Note_on_c, 12, 63, 0
16, 65100, Note_on_c, 12, 58, 80
16, 65155, Note_on_c, 12, 58, 0
16, 65160, Note_on_c, 12, 63, 80
16, 65219, Note_on_c, 12, 63, 0
16, 65220, Note_on_c, 12, 58, 80
16, 65279, Note_on_c, 12, 58, 0
16, 65280, Note_on_c, 12, 63, 80
16, 65339, Note_on_c, 12, 63, 0
16, 65340, Note_on_c, 12, 58, 80
16, 65399, Note_on_c, 12, 58, 0
16, 65400, Note_on_c, 12, 63, 80
16, 65459, Note_on_c, 12, 63, 0
16, 65460, Note_on_c, 12, 58, 80
16, 65515, Note_on_c, 12, 58, 0
16, 65520, Note_on_c, 12, 62, 80
16, 65579, Note_on_c, 12, 62, 0
16, 65580, Note_on_c, 12, 58, 80
16, 65639, Note_on_c, 12, 58, 0
16, 65640, Note_on_c, 12, 62, 80
16, 65699, Note_on_c, 12, 62, 0
16, 65700, Note_on_c, 12, 58, 80
16, 65759, Note_on_c, 12, 58, 0
16, 65760, Note_on_c, 12, 62, 80
16, 65819, Note_on_c, 12, 62, 0
16, 65820, Note_on_c, 12, 58, 80
16, 65875, Note_on_c, 12, 58, 0
16, 65880, Note_on_c, 12, 62, 80
16, 65939, Note_on_c, 12, 62, 0
16, 65940, Note_on_c, 12, 58, 80
16, 65999, Note_on_c, 12, 58, 0
16, 66000, Note_on_c, 12, 62, 80
16, 66059, Note_on_c, 12, 62, 0
16, 66060, Note_on_c, 12, 58, 80
16, 66119, Note_on_c, 12, 58, 0
16, 66120, Note_on_c, 12, 62, 80
16, 66179, Note_on_c, 12, 62, 0
16, 66180, Note_on_c, 12, 58, 80
16, 66235, Note_on_c, 12, 58, 0
16, 66240, Note_on_c, 12, 61, 84
16, 66299, Note_on_c, 12, 61, 0
16, 66300, Note_on_c, 12, 58, 84
16, 66359, Note_on_c, 12, 58, 0
16, 66360, Note_on_c, 12, 54, 84
16, 66419, Note_on_c, 12, 54, 0
16, 66420, Note_on_c, 12, 58, 84
16, 66479, Note_on_c, 12, 58, 0
16, 66480, Note_on_c, 12, 54, 84
16, 66539, Note_on_c, 12, 54, 0
16, 66540, Note_on_c, 12, 58, 84
16, 66595, Note_on_c, 12, 58, 0
16, 66600, Note_on_c, 12, 54, 84
16, 66659, Note_on_c, 12, 54, 0
16, 66660, Note_on_c, 12, 58, 84
16, 66719, Note_on_c, 12, 58, 0
16, 66720, Note_on_c, 12, 54, 84
16, 66779, Note_on_c, 12, 54, 0
16, 66780, Note_on_c, 12, 58, 84
16, 66839, Note_on_c, 12, 58, 0
16, 66840, Note_on_c, 12, 55, 84
16, 66899, Note_on_c, 12, 55, 0
16, 66900, Note_on_c, 12, 58, 84
16, 66955, Note_on_c, 12, 58, 0
16, 66960, Note_on_c, 12, 56, 84
16, 67019, Note_on_c, 12, 56, 0
16, 67020, Note_on_c, 12, 61, 81
16, 67079, Note_on_c, 12, 61, 0
16, 67080, Note_on_c, 12, 56, 78
16, 67139, Note_on_c, 12, 56, 0
16, 67140, Note_on_c, 12, 61, 74
16, 67199, Note_on_c, 12, 61, 0
16, 67200, Note_on_c, 12, 56, 71
16, 67259, Note_on_c, 12, 56, 0
16, 67260, Note_on_c, 12, 61, 68
16, 67315, Note_on_c, 12, 61, 0
16, 67320, Note_on_c, 12, 56, 64
16, 67379, Note_on_c, 12, 56, 0
16, 67380, Note_on_c, 12, 60, 61
16, 67439, Note_on_c, 12, 60, 0
16, 67440, Note_on_c, 12, 56, 58
16, 67499, Note_on_c, 12, 56, 0
16, 67500, Note_on_c, 12, 60, 54
16, 67559, Note_on_c, 12, 60, 0
16, 67560, Note_on_c, 12, 56, 51
16, 67619, Note_on_c, 12, 56, 0
16, 67620, Note_on_c, 12, 60, 48
16, 67675, Note_on_c, 12, 60, 0
16, 67680, Note_on_c, 12, 56, 44
16, 67739, Note_on_c, 12, 56, 0
16, 67740, Note_on_c, 12, 53, 44
16, 67799, Note_on_c, 12, 53, 0
16, 67800, Note_on_c, 12, 56, 44
16, 67859, Note_on_c, 12, 56, 0
16, 67860, Note_on_c, 12, 53, 44
16, 67919, Note_on_c, 12, 53, 0
16, 67920, Note_on_c, 12, 56, 44
16, 67979, Note_on_c, 12, 56, 0
16, 67980, Note_on_c, 12, 53, 44
16, 68039, Note_on_c, 12, 53, 0
16, 68040, Note_on_c, 12, 56, 44
16, 68099, Note_on_c, 12, 56, 0
16, 68100, Note_on_c, 12, 53, 44
16, 68159, Note_on_c, 12, 53, 0
16, 68160, Note_on_c, 12, 56, 44
16, 68219, Note_on_c, 12, 56, 0
16, 68220, Note_on_c, 12, 53, 44
16, 68279, Note_on_c, 12, 53, 0
16, 68280, Note_on_c, 12, 56, 44
16, 68339, Note_on_c, 12, 56, 0
16, 68340, Note_on_c, 12, 53, 44
16, 68395, Note_on_c, 12, 53, 0
16, 68400, Note_on_c, 12, 57, 44
16, 68459, Note_on_c, 12, 57, 0
16, 68460, Note_on_c, 12, 53, 44
16, 68519, Note_on_c, 12, 53, 0
16, 68520, Note_on_c, 12, 57, 44
16, 68579, Note_on_c, 12, 57, 0
16, 68580, Note_on_c, 12, 53, 44
16, 68639, Note_on_c, 12, 53, 0
16, 68640, Note_on_c, 12, 57, 44
16, 68699, Note_on_c, 12, 57, 0
16, 68700, Note_on_c, 12, 53, 44
16, 68759, Note_on_c, 12, 53, 0
16, 68760, Note_on_c, 12, 57, 44
16, 68819, Note_on_c, 12, 57, 0
16, 68820, Note_on_c, 12, 53, 44
16, 68879, Note_on_c, 12, 53, 0
16, 68880, Note_on_c, 12, 57, 44
16, 68939, Note_on_c, 12, 57, 0
16, 68940, Note_on_c, 12, 53, 44
16, 68999, Note_on_c, 12, 53, 0
16, 69000, Note_on_c, 12, 57, 44
16, 69059, Note_on_c, 12, 57, 0
16, 69060, Note_on_c, 12, 53, 44
16, 69115, Note_on_c, 12, 53, 0
16, 69120, Note_on_c, 12, 58, 44
16, 69179, Note_on_c, 12, 58, 0
16, 69180, Note_on_c, 12, 53, 44
16, 69239, Note_on_c, 12, 53, 0
16, 69240, Note_on_c, 12, 58, 44
16, 69299, Note_on_c, 12, 58, 0
16, 69300, Note_on_c, 12, 53, 44
16, 69359, Note_on_c, 12, 53, 0
16, 69360, Note_on_c, 12, 58, 44
16, 69419, Note_on_c, 12, 58, 0
16, 69420, Note_on_c, 12, 53, 44
16, 69479, Note_on_c, 12, 53, 0
16, 69480, Note_on_c, 12, 58, 44
16, 69539, Note_on_c, 12, 58, 0
16, 69540, Note_on_c, 12, 53, 44
16, 69599, Note_on_c, 12, 53, 0
16, 69600, Note_on_c, 12, 58, 44
16, 69659, Note_on_c, 12, 58, 0
16, 69660, Note_on_c, 12, 53, 44
16, 69719, Note_on_c, 12, 53, 0
16, 69720, Note_on_c, 12, 58, 44
16, 69779, Note_on_c, 12, 58, 0
16, 69780, Note_on_c, 12, 53, 44
16, 69835, Note_on_c, 12, 53, 0
16, 69840, Note_on_c, 12, 56, 44
16, 69899, Note_on_c, 12, 56, 0
16, 69900, Note_on_c, 12, 53, 44
16, 69959, Note_on_c, 12, 53, 0
16, 69960, Note_on_c, 12, 56, 44
16, 70019, Note_on_c, 12, 56, 0
16, 70020, Note_on_c, 12, 53, 44
16, 70079, Note_on_c, 12, 53, 0
16, 70080, Note_on_c, 12, 56, 44
16, 70139, Note_on_c, 12, 56, 0
16, 70140, Note_on_c, 12, 53, 44
16, 70199, Note_on_c, 12, 53, 0
16, 70200, Note_on_c, 12, 55, 44
16, 70259, Note_on_c, 12, 55, 0
16, 70260, Note_on_c, 12, 53, 44
16, 70319, Note_on_c, 12, 53, 0
16, 70320, Note_on_c, 12, 55, 44
16, 70379, Note_on_c, 12, 55, 0
16, 70380, Note_on_c, 12, 53, 44
16, 70439, Note_on_c, 12, 53, 0
16, 70440, Note_on_c, 12, 55, 44
16, 70499, Note_on_c, 12, 55, 0
16, 70500, Note_on_c, 12, 53, 44
16, 70555, Note_on_c, 12, 53, 0
16, 70560, Note_on_c, 12, 52, 52
16, 70560, Note_on_c, 12, 55, 52
16, 71271, Note_on_c, 12, 52, 0
16, 71271, Note_on_c, 12, 55, 0
16, 71280, Note_on_c, 12, 55, 52
16, 71280, Note_on_c, 12, 53, 52
16, 71871, Note_on_c, 12, 55, 0
16, 71871, Note_on_c, 12, 53, 0
16, 71880, Note_on_c, 12, 53, 76
16, 71880, Note_on_c, 12, 55, 76
16, 71969, Note_on_c, 12, 53, 0
16, 71969, Note_on_c, 12, 55, 0
16, 72000, Note_on_c, 12, 53, 76
16, 72000, Note_on_c, 12, 55, 76
16, 72479, Note_on_c, 12, 53, 0
16, 72479, Note_on_c, 12, 55, 0
16, 72600, Note_on_c, 12, 53, 76
16, 72600, Note_on_c, 12, 55, 76
16, 72689, Note_on_c, 12, 53, 0
16, 72689, Note_on_c, 12, 55, 0
16, 72720, Note_on_c, 12, 55, 76
16, 72720, Note_on_c, 12, 52, 76
16, 73199, Note_on_c, 12, 55, 0
16, 73199, Note_on_c, 12, 52, 0
16, 73320, Note_on_c, 12, 52, 76
16, 73320, Note_on_c, 12, 55, 76
16, 73431, Note_on_c, 12, 52, 0
16, 73431, Note_on_c, 12, 55, 0
16, 73440, Note_on_c, 12, 55, 52
16, 73440, Note_on_c, 12, 52, 52
16, 74151, Note_on_c, 12, 55, 0
16, 74151, Note_on_c, 12, 52, 0
16, 74160, Note_on_c, 12, 53, 52
16, 74160, Note_on_c, 12, 55, 52
16, 74751, Note_on_c, 12, 53, 0
16, 74751, Note_on_c, 12, 55, 0
16, 74760, Note_on_c, 12, 53, 76
16, 74760, Note_on_c, 12, 55, 76
16, 74849, Note_on_c, 12, 53, 0
16, 74849, Note_on_c, 12, 55, 0
16, 74880, Note_on_c, 12, 53, 76
16, 74880, Note_on_c, 12, 55, 76
16, 75359, Note_on_c, 12, 53, 0
16, 75359, Note_on_c, 12, 55, 0
16, 75480, Note_on_c, 12, 55, 76
16, 75480, Note_on_c, 12, 53, 76
16, 75569, Note_on_c, 12, 55, 0
16, 75569, Note_on_c, 12, 53, 0
16, 75600, Note_on_c, 12, 52, 76
16, 75600, Note_on_c, 12, 55, 76
16, 76079, Note_on_c, 12, 52, 0
16, 76079, Note_on_c, 12, 55, 0
16, 76200, Note_on_c, 12, 55, 76
16, 76200, Note_on_c, 12, 52, 76
16, 76311, Note_on_c, 12, 55, 0
16, 76311, Note_on_c, 12, 52, 0
16, 76320, Note_on_c, 12, 48, 84
16, 76379, Note_on_c, 12, 48, 0
16, 76380, Note_on_c, 12, 50, 84
16, 76435, Note_on_c, 12, 50, 0
16, 76440, Note_on_c, 12, 52, 84
16, 76484, Note_on_c, 12, 52, 0
16, 76500, Note_on_c, 12, 53, 84
16, 76544, Note_on_c, 12, 53, 0
16, 76560, Note_on_c, 12, 55, 84
16, 76604, Note_on_c, 12, 55, 0
16, 76620, Note_on_c, 12, 54, 84
16, 76664, Note_on_c, 12, 54, 0
16, 76680, Note_on_c, 12, 57, 92
16, 76724, Note_on_c, 12, 57, 0
16, 76740, Note_on_c, 12, 55, 84
16, 76784, Note_on_c, 12, 55, 0
16, 76800, Note_on_c, 12, 53, 84
16, 76844, Note_on_c, 12, 53, 0
16, 76860, Note_on_c, 12, 52, 84
16, 76904, Note_on_c, 12, 52, 0
16, 76920, Note_on_c, 12, 50, 84
16, 76964, Note_on_c, 12, 50, 0
16, 76980, Note_on_c, 12, 48, 84
16, 77024, Note_on_c, 12, 48, 0
16, 77040, Note_on_c, 12, 48, 84
16, 77099, Note_on_c, 12, 48, 0
16, 77100, Note_on_c, 12, 50, 84
16, 77155, Note_on_c, 12, 50, 0
16, 77160, Note_on_c, 12, 52, 84
16, 77204, Note_on_c, 12, 52, 0
16, 77220, Note_on_c, 12, 53, 84
16, 77264, Note_on_c, 12, 53, 0
16, 77280, Note_on_c, 12, 55, 84
16, 77324, Note_on_c, 12, 55, 0
16, 77340, Note_on_c, 12, 54, 84
16, 77384, Note_on_c, 12, 54, 0
16, 77400, Note_on_c, 12, 57, 92
16, 77444, Note_on_c, 12, 57, 0
16, 77460, Note_on_c, 12, 55, 84
16, 77504, Note_on_c, 12, 55, 0
16, 77520, Note_on_c, 12, 53, 84
16, 77564, Note_on_c, 12, 53, 0
16, 77580, Note_on_c, 12, 52, 84
16, 77624, Note_on_c, 12, 52, 0
16, 77640, Note_on_c, 12, 50, 84
16, 77684, Note_on_c, 12, 50, 0
16, 77700, Note_on_c, 12, 48, 84
16, 77744, Note_on_c, 12, 48, 0
16, 80640, Note_on_c, 12, 57, 44
16, 80699, Note_on_c, 12, 57, 0
16, 80700, Note_on_c, 12, 55, 44
16, 80759, Note_on_c, 12, 55, 0
16, 80760, Note_on_c, 12, 53, 44
16, 80819, Note_on_c, 12, 53, 0
16, 80820, Note_on_c, 12, 52, 44
16, 80879, Note_on_c, 12, 52, 0
16, 80880, Note_on_c, 12, 50, 44
16, 80939, Note_on_c, 12, 50, 0
16, 80940, Note_on_c, 12, 48, 44
16, 80995, Note_on_c, 12, 48, 0
16, 81000, Note_on_c, 12, 57, 44
16, 81059, Note_on_c, 12, 57, 0
16, 81060, Note_on_c, 12, 55, 44
16, 81119, Note_on_c, 12, 55, 0
16, 81120, Note_on_c, 12, 53, 44
16, 81179, Note_on_c, 12, 53, 0
16, 81180, Note_on_c, 12, 52, 44
16, 81239, Note_on_c, 12, 52, 0
16, 81240, Note_on_c, 12, 50, 44
16, 81299, Note_on_c, 12, 50, 0
16, 81300, Note_on_c, 12, 48, 44
16, 81355, Note_on_c, 12, 48, 0
16, 81360, Note_on_c, 12, 57, 44
16, 81419, Note_on_c, 12, 57, 0
16, 81420, Note_on_c, 12, 55, 44
16, 81479, Note_on_c, 12, 55, 0
16, 81480, Note_on_c, 12, 53, 44
16, 81539, Note_on_c, 12, 53, 0
16, 81540, Note_on_c, 12, 52, 44
16, 81599, Note_on_c, 12, 52, 0
16, 81600, Note_on_c, 12, 50, 44
16, 81659, Note_on_c, 12, 50, 0
16, 81660, Note_on_c, 12, 48, 44
16, 81715, Note_on_c, 12, 48, 0
16, 81718, Control_c, 12, 11, 80
16, 81720, Note_on_c, 12, 55, 68
16, 81720, Note_on_c, 12, 48, 68
16, 81720, Control_c, 12, 11, 80
16, 81758, Control_c, 12, 11, 81
16, 81797, Control_c, 12, 11, 82
16, 81835, Control_c, 12, 11, 83
16, 81873, Control_c, 12, 11, 84
16, 81911, Control_c, 12, 11, 85
16, 81950, Control_c, 12, 11, 86
16, 81988, Control_c, 12, 11, 87
16, 82026, Control_c, 12, 11, 88
16, 82065, Control_c, 12, 11, 89
16, 82079, Note_on_c, 12, 55, 0
16, 82079, Note_on_c, 12, 48, 0
16, 82080, Note_on_c, 12, 48, 68
16, 82080, Note_on_c, 12, 55, 68
16, 82103, Control_c, 12, 11, 90
16, 82141, Control_c, 12, 11, 91
16, 82180, Control_c, 12, 11, 92
16, 82218, Control_c, 12, 11, 93
16, 82256, Control_c, 12, 11, 94
16, 82294, Control_c, 12, 11, 95
16, 82333, Control_c, 12, 11, 96
16, 82371, Control_c, 12, 11, 97
16, 82409, Control_c, 12, 11, 98
16, 82448, Control_c, 12, 11, 99
16, 82486, Control_c, 12, 11, 100
16, 82524, Control_c, 12, 11, 101
16, 82563, Control_c, 12, 11, 102
16, 82601, Control_c, 12, 11, 103
16, 82639, Control_c, 12, 11, 104
16, 82677, Control_c, 12, 11, 105
16, 82716, Control_c, 12, 11, 106
16, 82754, Control_c, 12, 11, 107
16, 82792, Control_c, 12, 11, 108
16, 82799, Note_on_c, 12, 48, 0
16, 82799, Note_on_c, 12, 55, 0
16, 82800, Note_on_c, 12, 55, 68
16, 82800, Note_on_c, 12, 48, 68
16, 82831, Control_c, 12, 11, 109
16, 82869, Control_c, 12, 11, 110
16, 82907, Control_c, 12, 11, 111
16, 82946, Control_c, 12, 11, 112
16, 82984, Control_c, 12, 11, 113
16, 83022, Control_c, 12, 11, 114
16, 83060, Control_c, 12, 11, 115
16, 83099, Control_c, 12, 11, 116
16, 83137, Control_c, 12, 11, 117
16, 83175, Control_c, 12, 11, 118
16, 83214, Control_c, 12, 11, 119
16, 83252, Control_c, 12, 11, 120
16, 83290, Control_c, 12, 11, 121
16, 83329, Control_c, 12, 11, 122
16, 83367, Control_c, 12, 11, 123
16, 83399, Note_on_c, 12, 55, 0
16, 83400, Note_on_c, 12, 60, 68
16, 83405, Control_c, 12, 11, 124
16, 83443, Control_c, 12, 11, 125
16, 83482, Control_c, 12, 11, 127
16, 83511, Note_on_c, 12, 48, 0
16, 83511, Note_on_c, 12, 60, 0
16, 83520, Note_on_c, 12, 60, 52
16, 84239, Note_on_c, 12, 60, 0
16, 84240, Note_on_c, 12, 60, 52
16, 84959, Note_on_c, 12, 60, 0
16, 84960, Note_on_c, 12, 60, 52
16, 85551, Note_on_c, 12, 60, 0
16, 85560, Note_on_c, 12, 60, 52
16, 85671, Note_on_c, 12, 60, 0
16, 85680, Note_on_c, 12, 62, 52
16, 86279, Note_on_c, 12, 62, 0
16, 86280, Note_on_c, 12, 60, 52
16, 86391, Note_on_c, 12, 60, 0
16, 86400, Note_on_c, 12, 60, 52
16, 86991, Note_on_c, 12, 60, 0
16, 87000, Note_on_c, 12, 60, 52
16, 87111, Note_on_c, 12, 60, 0
16, 87120, Note_on_c, 12, 60, 52
16, 87479, Note_on_c, 12, 60, 0
16, 87480, Note_on_c, 12, 62, 52
16, 87711, Note_on_c, 12, 62, 0
16, 87720, Note_on_c, 12, 62, 52
16, 87831, Note_on_c, 12, 62, 0
16, 87840, Note_on_c, 12, 62, 52
16, 88199, Note_on_c, 12, 62, 0
16, 88200, Note_on_c, 12, 55, 52
16, 88439, Note_on_c, 12, 55, 0
16, 88440, Note_on_c, 12, 60, 52
16, 88551, Note_on_c, 12, 60, 0
16, 88558, Control_c, 12, 11, 64
16, 88560, Control_c, 12, 11, 64
16, 88560, Note_on_c, 12, 60, 84
16, 88663, Control_c, 12, 11, 65
16, 88766, Control_c, 12, 11, 66
16, 88869, Control_c, 12, 11, 67
16, 88971, Control_c, 12, 11, 68
16, 89074, Control_c, 12, 11, 69
16, 89177, Control_c, 12, 11, 70
16, 89271, Note_on_c, 12, 60, 0
16, 89280, Note_on_c, 12, 60, 84
16, 89280, Note_on_c, 12, 53, 84
16, 89280, Control_c, 12, 11, 71
16, 89383, Control_c, 12, 11, 72
16, 89486, Control_c, 12, 11, 73
16, 89519, Note_on_c, 12, 60, 0
16, 89519, Note_on_c, 12, 53, 0
16, 89589, Control_c, 12, 11, 74
16, 89640, Program_c, 12, 45
16, 89691, Control_c, 12, 11, 75
16, 89794, Control_c, 12, 11, 76
16, 89880, Note_on_c, 12, 69, 76
16, 89897, Control_c, 12, 11, 77
16, 89999, Note_on_c, 12, 69, 0
16, 90000, Control_c, 12, 11, 78
16, 90000, Note_on_c, 12, 69, 76
16, 90103, Control_c, 12, 11, 79
16, 90119, Note_on_c, 12, 69, 0
16, 90120, Note_on_c, 12, 65, 76
16, 90206, Control_c, 12, 11, 80
16, 90239, Note_on_c, 12, 65, 0
16, 90240, Note_on_c, 12, 72, 76
16, 90309, Control_c, 12, 11, 81
16, 90359, Note_on_c, 12, 72, 0
16, 90411, Control_c, 12, 11, 82
16, 90514, Control_c, 12, 11, 83
16, 90600, Note_on_c, 12, 65, 76
16, 90617, Control_c, 12, 11, 84
16, 90719, Note_on_c, 12, 65, 0
16, 90720, Note_on_c, 12, 65, 76
16, 90720, Control_c, 12, 11, 85
16, 90823, Control_c, 12, 11, 86
16, 90839, Note_on_c, 12, 65, 0
16, 90840, Note_on_c, 12, 60, 76
16, 90926, Control_c, 12, 11, 87
16, 90959, Note_on_c, 12, 60, 0
16, 90960, Note_on_c, 12, 69, 76
16, 91029, Control_c, 12, 11, 88
16, 91079, Note_on_c, 12, 69, 0
16, 91131, Control_c, 12, 11, 89
16, 91234, Control_c, 12, 11, 90
16, 91320, Note_on_c, 12, 65, 76
16, 91337, Control_c, 12, 11, 91
16, 91439, Note_on_c, 12, 65, 0
16, 91440, Note_on_c, 12, 65, 76
16, 91440, Control_c, 12, 11, 92
16, 91543, Control_c, 12, 11, 93
16, 91559, Note_on_c, 12, 65, 0
16, 91560, Note_on_c, 12, 62, 76
16, 91646, Control_c, 12, 11, 94
16, 91679, Note_on_c, 12, 62, 0
16, 91680, Note_on_c, 12, 70, 76
16, 91749, Control_c, 12, 11, 95
16, 91799, Note_on_c, 12, 70, 0
16, 91851, Control_c, 12, 11, 96
16, 91954, Control_c, 12, 11, 97
16, 92040, Note_on_c, 12, 58, 76
16, 92057, Control_c, 12, 11, 98
16, 92159, Note_on_c, 12, 58, 0
16, 92160, Control_c, 12, 11, 99
16, 92160, Note_on_c, 12, 55, 76
16, 92263, Control_c, 12, 11, 100
16, 92279, Note_on_c, 12, 55, 0
16, 92280, Note_on_c, 12, 48, 76
16, 92366, Control_c, 12, 11, 101
16, 92399, Note_on_c, 12, 48, 0
16, 92400, Note_on_c, 12, 60, 76
16, 92469, Control_c, 12, 11, 102
16, 92519, Note_on_c, 12, 60, 0
16, 92571, Control_c, 12, 11, 103
16, 92674, Control_c, 12, 11, 104
16, 92760, Note_on_c, 12, 67, 76
16, 92777, Control_c, 12, 11, 105
16, 92879, Note_on_c, 12, 67, 0
16, 92880, Note_on_c, 12, 69, 76
16, 92880, Control_c, 12, 11, 106
16, 92983, Control_c, 12, 11, 107
16, 92999, Note_on_c, 12, 69, 0
16, 93000, Note_on_c, 12, 65, 76
16, 93086, Control_c, 12, 11, 108
16, 93119, Note_on_c, 12, 65, 0
16, 93120, Note_on_c, 12, 72, 76
16, 93189, Control_c, 12, 11, 109
16, 93239, Note_on_c, 12, 72, 0
16, 93291, Control_c, 12, 11, 110
16, 93394, Control_c, 12, 11, 111
16, 93480, Note_on_c, 12, 60, 76
16, 93497, Control_c, 12, 11, 112
16, 93599, Note_on_c, 12, 60, 0
16, 93600, Control_c, 12, 11, 113
16, 93600, Note_on_c, 12, 62, 76
16, 93703, Control_c, 12, 11, 114
16, 93719, Note_on_c, 12, 62, 0
16, 93720, Note_on_c, 12, 58, 76
16, 93806, Control_c, 12, 11, 115
16, 93839, Note_on_c, 12, 58, 0
16, 93840, Note_on_c, 12, 67, 76
16, 93909, Control_c, 12, 11, 116
16, 93959, Note_on_c, 12, 67, 0
16, 94011, Control_c, 12, 11, 117
16, 94080, Program_c, 12, 48
16, 94114, Control_c, 12, 11, 118
16, 94200, Note_on_c, 12, 48, 84
16, 94217, Control_c, 12, 11, 119
16, 94311, Note_on_c, 12, 48, 0
16, 94320, Control_c, 12, 11, 120
16, 94320, Note_on_c, 12, 53, 84
16, 94320, Note_on_c, 12, 57, 84
16, 94355, Note_on_c, 12, 53, 0
16, 94355, Note_on_c, 12, 57, 0
16, 94360, Note_on_c, 12, 53, 84
16, 94360, Note_on_c, 12, 57, 84
16, 94395, Note_on_c, 12, 53, 0
16, 94395, Note_on_c, 12, 57, 0
16, 94400, Note_on_c, 12, 57, 84
16, 94400, Note_on_c, 12, 53, 84
16, 94423, Control_c, 12, 11, 121
16, 94435, Note_on_c, 12, 57, 0
16, 94435, Note_on_c, 12, 53, 0
16, 94440, Note_on_c, 12, 57, 84
16, 94440, Note_on_c, 12, 53, 84
16, 94475, Note_on_c, 12, 57, 0
16, 94475, Note_on_c, 12, 53, 0
16, 94480, Note_on_c, 12, 53, 84
16, 94480, Note_on_c, 12, 57, 84
16, 94515, Note_on_c, 12, 53, 0
16, 94515, Note_on_c, 12, 57, 0
16, 94520, Note_on_c, 12, 53, 84
16, 94520, Note_on_c, 12, 57, 84
16, 94526, Control_c, 12, 11, 122
16, 94555, Note_on_c, 12, 53, 0
16, 94555, Note_on_c, 12, 57, 0
16, 94560, Note_on_c, 12, 57, 84
16, 94560, Note_on_c, 12, 53, 84
16, 94595, Note_on_c, 12, 57, 0
16, 94595, Note_on_c, 12, 53, 0
16, 94600, Note_on_c, 12, 53, 84
16, 94600, Note_on_c, 12, 57, 84
16, 94629, Control_c, 12, 11, 123
16, 94635, Note_on_c, 12, 53, 0
16, 94635, Note_on_c, 12, 57, 0
16, 94640, Note_on_c, 12, 53, 84
16, 94640, Note_on_c, 12, 57, 84
16, 94675, Note_on_c, 12, 53, 0
16, 94675, Note_on_c, 12, 57, 0
16, 94680, Note_on_c, 12, 57, 84
16, 94680, Note_on_c, 12, 53, 84
16, 94715, Note_on_c, 12, 57, 0
16, 94715, Note_on_c, 12, 53, 0
16, 94720, Note_on_c, 12, 53, 84
16, 94720, Note_on_c, 12, 57, 84
16, 94731, Control_c, 12, 11, 124
16, 94755, Note_on_c, 12, 53, 0
16, 94755, Note_on_c, 12, 57, 0
16, 94760, Note_on_c, 12, 57, 84
16, 94760, Note_on_c, 12, 53, 84
16, 94795, Note_on_c, 12, 57, 0
16, 94795, Note_on_c, 12, 53, 0
16, 94800, Note_on_c, 12, 57, 84
16, 94800, Note_on_c, 12, 53, 84
16, 94834, Control_c, 12, 11, 125
16, 94835, Note_on_c, 12, 57, 0
16, 94835, Note_on_c, 12, 53, 0
16, 94840, Note_on_c, 12, 53, 84
16, 94840, Note_on_c, 12, 57, 84
16, 94875, Note_on_c, 12, 53, 0
16, 94875, Note_on_c, 12, 57, 0
16, 94880, Note_on_c, 12, 53, 84
16, 94880, Note_on_c, 12, 57, 84
16, 94915, Note_on_c, 12, 53, 0
16, 94915, Note_on_c, 12, 57, 0
16, 94920, Note_on_c, 12, 57, 84
16, 94920, Note_on_c, 12, 53, 84
16, 94937, Control_c, 12, 11, 127
16, 94955, Note_on_c, 12, 57, 0
16, 94955, Note_on_c, 12, 53, 0
16, 94960, Note_on_c, 12, 57, 84
16, 94960, Note_on_c, 12, 53, 84
16, 94995, Note_on_c, 12, 57, 0
16, 94995, Note_on_c, 12, 53, 0
16, 95000, Note_on_c, 12, 57, 84
16, 95000, Note_on_c, 12, 53, 84
16, 95035, Note_on_c, 12, 57, 0
16, 95035, Note_on_c, 12, 53, 0
16, 95040, Note_on_c, 12, 57, 84
16, 95099, Note_on_c, 12, 57, 0
16, 95100, Note_on_c, 12, 58, 84
16, 95159, Note_on_c, 12, 58, 0
16, 95160, Note_on_c, 12, 57, 84
16, 95219, Note_on_c, 12, 57, 0
16, 95220, Note_on_c, 12, 55, 84
16, 95279, Note_on_c, 12, 55, 0
16, 95280, Note_on_c, 12, 53, 84
16, 95339, Note_on_c, 12, 53, 0
16, 95340, Note_on_c, 12, 52, 84
16, 95399, Note_on_c, 12, 52, 0
16, 95400, Note_on_c, 12, 53, 84
16, 95459, Note_on_c, 12, 53, 0
16, 95460, Note_on_c, 12, 55, 84
16, 95519, Note_on_c, 12, 55, 0
16, 95520, Note_on_c, 12, 57, 84
16, 95579, Note_on_c, 12, 57, 0
16, 95580, Note_on_c, 12, 58, 84
16, 95639, Note_on_c, 12, 58, 0
16, 95640, Note_on_c, 12, 60, 84
16, 95699, Note_on_c, 12, 60, 0
16, 95700, Note_on_c, 12, 58, 84
16, 95755, Note_on_c, 12, 58, 0
16, 95760, Note_on_c, 12, 57, 84
16, 95819, Note_on_c, 12, 57, 0
16, 95820, Note_on_c, 12, 58, 84
16, 95879, Note_on_c, 12, 58, 0
16, 95880, Note_on_c, 12, 57, 84
16, 95939, Note_on_c, 12, 57, 0
16, 95940, Note_on_c, 12, 55, 84
16, 95999, Note_on_c, 12, 55, 0
16, 96000, Note_on_c, 12, 53, 84
16, 96059, Note_on_c, 12, 53, 0
16, 96060, Note_on_c, 12, 52, 84
16, 96119, Note_on_c, 12, 52, 0
16, 96120, Note_on_c, 12, 53, 84
16, 96179, Note_on_c, 12, 53, 0
16, 96180, Note_on_c, 12, 52, 84
16, 96239, Note_on_c, 12, 52, 0
16, 96240, Note_on_c, 12, 53, 84
16, 96299, Note_on_c, 12, 53, 0
16, 96300, Note_on_c, 12, 48, 84
16, 96359, Note_on_c, 12, 48, 0
16, 96360, Note_on_c, 12, 50, 84
16, 96419, Note_on_c, 12, 50, 0
16, 96420, Note_on_c, 12, 52, 84
16, 96475, Note_on_c, 12, 52, 0
16, 96480, Note_on_c, 12, 53, 84
16, 96539, Note_on_c, 12, 53, 0
16, 96540, Note_on_c, 12, 55, 84
16, 96599, Note_on_c, 12, 55, 0
16, 96600, Note_on_c, 12, 53, 84
16, 96659, Note_on_c, 12, 53, 0
16, 96660, Note_on_c, 12, 52, 84
16, 96719, Note_on_c, 12, 52, 0
16, 96720, Note_on_c, 12, 53, 84
16, 96779, Note_on_c, 12, 53, 0
16, 96780, Note_on_c, 12, 55, 84
16, 96839, Note_on_c, 12, 55, 0
16, 96840, Note_on_c, 12, 57, 84
16, 96899, Note_on_c, 12, 57, 0
16, 96900, Note_on_c, 12, 58, 84
16, 96959, Note_on_c, 12, 58, 0
16, 96960, Note_on_c, 12, 60, 84
16, 97019, Note_on_c, 12, 60, 0
16, 97020, Note_on_c, 12, 59, 84
16, 97079, Note_on_c, 12, 59, 0
16, 97080, Note_on_c, 12, 60, 84
16, 97139, Note_on_c, 12, 60, 0
16, 97140, Note_on_c, 12, 57, 84
16, 97195, Note_on_c, 12, 57, 0
16, 97200, Note_on_c, 12, 58, 84
16, 97259, Note_on_c, 12, 58, 0
16, 97260, Note_on_c, 12, 60, 84
16, 97319, Note_on_c, 12, 60, 0
16, 97320, Note_on_c, 12, 62, 84
16, 97379, Note_on_c, 12, 62, 0
16, 97380, Note_on_c, 12, 60, 84
16, 97439, Note_on_c, 12, 60, 0
16, 97440, Note_on_c, 12, 58, 84
16, 97499, Note_on_c, 12, 58, 0
16, 97500, Note_on_c, 12, 60, 84
16, 97559, Note_on_c, 12, 60, 0
16, 97560, Note_on_c, 12, 58, 84
16, 97619, Note_on_c, 12, 58, 0
16, 97620, Note_on_c, 12, 60, 84
16, 97679, Note_on_c, 12, 60, 0
16, 97680, Note_on_c, 12, 58, 84
16, 97739, Note_on_c, 12, 58, 0
16, 97740, Note_on_c, 12, 57, 84
16, 97799, Note_on_c, 12, 57, 0
16, 97800, Note_on_c, 12, 55, 84
16, 97859, Note_on_c, 12, 55, 0
16, 97860, Note_on_c, 12, 57, 84
16, 97915, Note_on_c, 12, 57, 0
16, 97920, Note_on_c, 12, 58, 84
16, 97979, Note_on_c, 12, 58, 0
16, 97980, Note_on_c, 12, 60, 84
16, 98039, Note_on_c, 12, 60, 0
16, 98040, Note_on_c, 12, 58, 84
16, 98099, Note_on_c, 12, 58, 0
16, 98100, Note_on_c, 12, 57, 84
16, 98159, Note_on_c, 12, 57, 0
16, 98160, Note_on_c, 12, 55, 84
16, 98219, Note_on_c, 12, 55, 0
16, 98220, Note_on_c, 12, 54, 84
16, 98279, Note_on_c, 12, 54, 0
16, 98280, Note_on_c, 12, 55, 84
16, 98339, Note_on_c, 12, 55, 0
16, 98340, Note_on_c, 12, 57, 84
16, 98399, Note_on_c, 12, 57, 0
16, 98400, Note_on_c, 12, 58, 84
16, 98459, Note_on_c, 12, 58, 0
16, 98460, Note_on_c, 12, 59, 84
16, 98519, Note_on_c, 12, 59, 0
16, 98520, Note_on_c, 12, 60, 84
16, 98579, Note_on_c, 12, 60, 0
16, 98580, Note_on_c, 12, 58, 84
16, 98635, Note_on_c, 12, 58, 0
16, 98640, Note_on_c, 12, 57, 84
16, 98699, Note_on_c, 12, 57, 0
16, 98700, Note_on_c, 12, 58, 84
16, 98759, Note_on_c, 12, 58, 0
16, 98760, Note_on_c, 12, 57, 84
16, 98819, Note_on_c, 12, 57, 0
16, 98820, Note_on_c, 12, 55, 84
16, 98879, Note_on_c, 12, 55, 0
16, 98880, Note_on_c, 12, 57, 84
16, 98939, Note_on_c, 12, 57, 0
16, 98940, Note_on_c, 12, 55, 84
16, 98999, Note_on_c, 12, 55, 0
16, 99000, Note_on_c, 12, 53, 84
16, 99059, Note_on_c, 12, 53, 0
16, 99060, Note_on_c, 12, 55, 84
16, 99119, Note_on_c, 12, 55, 0
16, 99120, Note_on_c, 12, 53, 84
16, 99179, Note_on_c, 12, 53, 0
16, 99180, Note_on_c, 12, 52, 84
16, 99239, Note_on_c, 12, 52, 0
16, 99240, Note_on_c, 12, 53, 84
16, 99299, Note_on_c, 12, 53, 0
16, 99300, Note_on_c, 12, 57, 84
16, 99355, Note_on_c, 12, 57, 0
16, 99360, Note_on_c, 12, 57, 84
16, 99419, Note_on_c, 12, 57, 0
16, 99420, Note_on_c, 12, 55, 84
16, 99479, Note_on_c, 12, 55, 0
16, 99480, Note_on_c, 12, 53, 84
16, 99539, Note_on_c, 12, 53, 0
16, 99540, Note_on_c, 12, 55, 84
16, 99599, Note_on_c, 12, 55, 0
16, 99600, Note_on_c, 12, 50, 84
16, 99659, Note_on_c, 12, 50, 0
16, 99660, Note_on_c, 12, 55, 84
16, 99719, Note_on_c, 12, 55, 0
16, 99720, Note_on_c, 12, 53, 84
16, 99779, Note_on_c, 12, 53, 0
16, 99780, Note_on_c, 12, 52, 84
16, 99839, Note_on_c, 12, 52, 0
16, 99840, Note_on_c, 12, 50, 84
16, 99899, Note_on_c, 12, 50, 0
16, 99900, Note_on_c, 12, 52, 84
16, 99959, Note_on_c, 12, 52, 0
16, 99960, Note_on_c, 12, 48, 84
16, 100019, Note_on_c, 12, 48, 0
16, 100020, Note_on_c, 12, 52, 84
16, 100075, Note_on_c, 12, 52, 0
16, 100080, Note_on_c, 12, 48, 84
16, 100199, Note_on_c, 12, 48, 0
16, 100200, Note_on_c, 12, 53, 84
16, 100435, Note_on_c, 12, 53, 0
16, 100440, Note_on_c, 12, 48, 84
16, 100559, Note_on_c, 12, 48, 0
16, 100560, Note_on_c, 12, 55, 84
16, 100795, Note_on_c, 12, 55, 0
16, 100800, Note_on_c, 12, 48, 84
16, 100919, Note_on_c, 12, 48, 0
16, 100920, Note_on_c, 12, 57, 84
16, 101151, Note_on_c, 12, 57, 0
16, 101160, Note_on_c, 12, 60, 84
16, 101279, Note_on_c, 12, 60, 0
16, 101280, Note_on_c, 12, 58, 84
16, 101391, Note_on_c, 12, 58, 0
16, 101400, Note_on_c, 12, 55, 84
16, 101444, Note_on_c, 12, 55, 0
16, 101460, Note_on_c, 12, 52, 84
16, 101504, Note_on_c, 12, 52, 0
16, 101520, Note_on_c, 12, 48, 84
16, 101579, Note_on_c, 12, 48, 0
16, 101580, Note_on_c, 12, 53, 84
16, 101639, Note_on_c, 12, 53, 0
16, 101640, Note_on_c, 12, 57, 84
16, 101699, Note_on_c, 12, 57, 0
16, 101700, Note_on_c, 12, 60, 84
16, 101759, Note_on_c, 12, 60, 0
16, 101760, Note_on_c, 12, 57, 84
16, 101819, Note_on_c, 12, 57, 0
16, 101820, Note_on_c, 12, 53, 84
16, 101875, Note_on_c, 12, 53, 0
16, 101880, Note_on_c, 12, 48, 84
16, 101939, Note_on_c, 12, 48, 0
16, 101940, Note_on_c, 12, 55, 84
16, 101999, Note_on_c, 12, 55, 0
16, 102000, Note_on_c, 12, 58, 84
16, 102059, Note_on_c, 12, 58, 0
16, 102060, Note_on_c, 12, 60, 84
16, 102119, Note_on_c, 12, 60, 0
16, 102120, Note_on_c, 12, 58, 84
16, 102179, Note_on_c, 12, 58, 0
16, 102180, Note_on_c, 12, 55, 84
16, 102235, Note_on_c, 12, 55, 0
16, 102240, Note_on_c, 12, 48, 84
16, 102299, Note_on_c, 12, 48, 0
16, 102300, Note_on_c, 12, 53, 84
16, 102359, Note_on_c, 12, 53, 0
16, 102360, Note_on_c, 12, 57, 84
16, 102419, Note_on_c, 12, 57, 0
16, 102420, Note_on_c, 12, 60, 84
16, 102479, Note_on_c, 12, 60, 0
16, 102480, Note_on_c, 12, 57, 84
16, 102539, Note_on_c, 12, 57, 0
16, 102540, Note_on_c, 12, 53, 84
16, 102595, Note_on_c, 12, 53, 0
16, 102600, Note_on_c, 12, 48, 84
16, 102659, Note_on_c, 12, 48, 0
16, 102660, Note_on_c, 12, 55, 84
16, 102719, Note_on_c, 12, 55, 0
16, 102720, Note_on_c, 12, 58, 84
16, 102779, Note_on_c, 12, 58, 0
16, 102780, Note_on_c, 12, 60, 84
16, 102835, Note_on_c, 12, 60, 0
16, 102840, Note_on_c, 12, 48, 84
16, 102951, Note_on_c, 12, 48, 0
16, 102960, Note_on_c, 12, 48, 84
16, 103079, Note_on_c, 12, 48, 0
16, 103080, Note_on_c, 12, 53, 84
16, 103191, Note_on_c, 12, 53, 0
16, 103200, Note_on_c, 12, 53, 84
16, 103219, Note_on_c, 12, 53, 0
16, 103220, Note_on_c, 12, 55, 84
16, 103239, Note_on_c, 12, 55, 0
16, 103240, Note_on_c, 12, 53, 84
16, 103259, Note_on_c, 12, 53, 0
16, 103260, Note_on_c, 12, 55, 84
16, 103279, Note_on_c, 12, 55, 0
16, 103280, Note_on_c, 12, 52, 84
16, 103299, Note_on_c, 12, 52, 0
16, 103300, Note_on_c, 12, 53, 84
16, 103319, Note_on_c, 12, 53, 0
16, 103320, Note_on_c, 12, 48, 84
16, 103439, Note_on_c, 12, 48, 0
16, 103440, Note_on_c, 12, 55, 84
16, 103551, Note_on_c, 12, 55, 0
16, 103560, Note_on_c, 12, 55, 84
16, 103579, Note_on_c, 12, 55, 0
16, 103580, Note_on_c, 12, 57, 84
16, 103599, Note_on_c, 12, 57, 0
16, 103600, Note_on_c, 12, 55, 84
16, 103619, Note_on_c, 12, 55, 0
16, 103620, Note_on_c, 12, 57, 84
16, 103639, Note_on_c, 12, 57, 0
16, 103640, Note_on_c, 12, 53, 84
16, 103659, Note_on_c, 12, 53, 0
16, 103660, Note_on_c, 12, 55, 84
16, 103679, Note_on_c, 12, 55, 0
16, 103680, Note_on_c, 12, 48, 84
16, 103799, Note_on_c, 12, 48, 0
16, 103800, Note_on_c, 12, 57, 84
16, 103911, Note_on_c, 12, 57, 0
16, 103920, Note_on_c, 12, 57, 84
16, 103939, Note_on_c, 12, 57, 0
16, 103940, Note_on_c, 12, 59, 84
16, 103959, Note_on_c, 12, 59, 0
16, 103960, Note_on_c, 12, 57, 84
16, 103979, Note_on_c, 12, 57, 0
16, 103980, Note_on_c, 12, 59, 84
16, 103999, Note_on_c, 12, 59, 0
16, 104000, Note_on_c, 12, 55, 84
16, 104019, Note_on_c, 12, 55, 0
16, 104020, Note_on_c, 12, 57, 84
16, 104039, Note_on_c, 12, 57, 0
16, 104040, Note_on_c, 12, 60, 92
16, 104099, Note_on_c, 12, 60, 0
16, 104100, Note_on_c, 12, 60, 84
16, 104159, Note_on_c, 12, 60, 0
16, 104160, Note_on_c, 12, 59, 84
16, 104271, Note_on_c, 12, 59, 0
16, 104280, Note_on_c, 12, 53, 84
16, 104324, Note_on_c, 12, 53, 0
16, 104340, Note_on_c, 12, 50, 84
16, 104384, Note_on_c, 12, 50, 0
16, 104760, Note_on_c, 12, 64, 92
16, 104819, Note_on_c, 12, 64, 0
16, 104820, Note_on_c, 12, 64, 84
16, 104879, Note_on_c, 12, 64, 0
16, 104880, Note_on_c, 12, 62, 84
16, 104991, Note_on_c, 12, 62, 0
16, 105000, Note_on_c, 12, 59, 84
16, 105044, Note_on_c, 12, 59, 0
16, 105060, Note_on_c, 12, 55, 84
16, 105104, Note_on_c, 12, 55, 0
16, 105480, Note_on_c, 12, 67, 92
16, 105539, Note_on_c, 12, 67, 0
16, 105540, Note_on_c, 12, 67, 84
16, 105599, Note_on_c, 12, 67, 0
16, 105600, Note_on_c, 12, 65, 84
16, 105711, Note_on_c, 12, 65, 0
16, 105720, Note_on_c, 12, 62, 84
16, 105764, Note_on_c, 12, 62, 0
16, 105780, Note_on_c, 12, 59, 84
16, 105824, Note_on_c, 12, 59, 0
16, 105840, Note_on_c, 12, 52, 88
16, 105899, Note_on_c, 12, 52, 0
16, 105900, Note_on_c, 12, 55, 88
16, 105959, Note_on_c, 12, 55, 0
16, 105960, Note_on_c, 12, 52, 88
16, 106019, Note_on_c, 12, 52, 0
16, 106020, Note_on_c, 12, 55, 88
16, 106079, Note_on_c, 12, 55, 0
16, 106080, Note_on_c, 12, 52, 88
16, 106139, Note_on_c, 12, 52, 0
16, 106140, Note_on_c, 12, 55, 88
16, 106195, Note_on_c, 12, 55, 0
16, 106200, Note_on_c, 12, 53, 88
16, 106259, Note_on_c, 12, 53, 0
16, 106260, Note_on_c, 12, 57, 88
16, 106319, Note_on_c, 12, 57, 0
16, 106320, Note_on_c, 12, 53, 88
16, 106379, Note_on_c, 12, 53, 0
16, 106380, Note_on_c, 12, 57, 88
16, 106439, Note_on_c, 12, 57, 0
16, 106440, Note_on_c, 12, 53, 88
16, 106499, Note_on_c, 12, 53, 0
16, 106500, Note_on_c, 12, 57, 88
16, 106555, Note_on_c, 12, 57, 0
16, 106560, Note_on_c, 12, 55, 88
16, 106619, Note_on_c, 12, 55, 0
16, 106620, Note_on_c, 12, 58, 88
16, 106679, Note_on_c, 12, 58, 0
16, 106680, Note_on_c, 12, 55, 88
16, 106739, Note_on_c, 12, 55, 0
16, 106740, Note_on_c, 12, 58, 88
16, 106799, Note_on_c, 12, 58, 0
16, 106800, Note_on_c, 12, 55, 88
16, 106859, Note_on_c, 12, 55, 0
16, 106860, Note_on_c, 12, 58, 88
16, 106919, Note_on_c, 12, 58, 0
16, 106920, Note_on_c, 12, 56, 88
16, 106979, Note_on_c, 12, 56, 0
16, 106980, Note_on_c, 12, 59, 88
16, 107039, Note_on_c, 12, 59, 0
16, 107040, Note_on_c, 12, 56, 88
16, 107099, Note_on_c, 12, 56, 0
16, 107100, Note_on_c, 12, 59, 88
16, 107159, Note_on_c, 12, 59, 0
16, 107160, Note_on_c, 12, 56, 88
16, 107219, Note_on_c, 12, 56, 0
16, 107220, Note_on_c, 12, 59, 88
16, 107275, Note_on_c, 12, 59, 0
16, 107280, Note_on_c, 12, 60, 96
16, 107280, Note_on_c, 12, 48, 96
16, 107339, Note_on_c, 12, 60, 0
16, 107339, Note_on_c, 12, 48, 0
16, 107340, Note_on_c, 12, 48, 88
16, 107340, Note_on_c, 12, 60, 88
16, 107991, Note_on_c, 12, 48, 0
16, 107991, Note_on_c, 12, 60, 0
16, 108000, Note_on_c, 12, 62, 88
16, 108119, Note_on_c, 12, 62, 0
16, 108120, Note_on_c, 12, 60, 88
16, 108231, Note_on_c, 12, 60, 0
16, 108240, Note_on_c, 12, 57, 88
16, 108284, Note_on_c, 12, 57, 0
16, 108300, Note_on_c, 12, 53, 88
16, 108344, Note_on_c, 12, 53, 0
16, 108420, Note_on_c, 12, 48, 88
16, 108475, Note_on_c, 12, 48, 0
16, 108480, Note_on_c, 12, 53, 88
16, 108535, Note_on_c, 12, 53, 0
16, 108540, Note_on_c, 12, 57, 88
16, 108595, Note_on_c, 12, 57, 0
16, 108600, Note_on_c, 12, 60, 88
16, 108655, Note_on_c, 12, 60, 0
16, 108660, Note_on_c, 12, 60, 88
16, 108715, Note_on_c, 12, 60, 0
16, 108720, Note_on_c, 12, 60, 88
16, 108720, Note_on_c, 12, 48, 88
16, 109431, Note_on_c, 12, 60, 0
16, 109431, Note_on_c, 12, 48, 0
16, 109440, Note_on_c, 12, 60, 88
16, 109559, Note_on_c, 12, 60, 0
16, 109560, Note_on_c, 12, 58, 88
16, 109671, Note_on_c, 12, 58, 0
16, 109680, Note_on_c, 12, 55, 88
16, 109724, Note_on_c, 12, 55, 0
16, 109740, Note_on_c, 12, 52, 88
16, 109784, Note_on_c, 12, 52, 0
16, 109860, Note_on_c, 12, 48, 88
16, 109915, Note_on_c, 12, 48, 0
16, 109920, Note_on_c, 12, 52, 88
16, 109975, Note_on_c, 12, 52, 0
16, 109980, Note_on_c, 12, 55, 88
16, 110035, Note_on_c, 12, 55, 0
16, 110040, Note_on_c, 12, 60, 88
16, 110095, Note_on_c, 12, 60, 0
16, 110100, Note_on_c, 12, 60, 88
16, 110155, Note_on_c, 12, 60, 0
16, 110160, Note_on_c, 12, 48, 88
16, 110160, Note_on_c, 12, 60, 88
16, 110871, Note_on_c, 12, 48, 0
16, 110871, Note_on_c, 12, 60, 0
16, 110880, Note_on_c, 12, 62, 88
16, 110939, Note_on_c, 12, 62, 0
16, 110940, Note_on_c, 12, 60, 88
16, 110995, Note_on_c, 12, 60, 0
16, 111000, Note_on_c, 12, 59, 88
16, 111044, Note_on_c, 12, 59, 0
16, 111060, Note_on_c, 12, 60, 88
16, 111104, Note_on_c, 12, 60, 0
16, 111120, Note_on_c, 12, 57, 88
16, 111164, Note_on_c, 12, 57, 0
16, 111180, Note_on_c, 12, 53, 88
16, 111224, Note_on_c, 12, 53, 0
16, 111300, Note_on_c, 12, 48, 88
16, 111355, Note_on_c, 12, 48, 0
16, 111360, Note_on_c, 12, 53, 88
16, 111415, Note_on_c, 12, 53, 0
16, 111420, Note_on_c, 12, 57, 88
16, 111475, Note_on_c, 12, 57, 0
16, 111480, Note_on_c, 12, 60, 88
16, 111535, Note_on_c, 12, 60, 0
16, 111540, Note_on_c, 12, 60, 88
16, 111595, Note_on_c, 12, 60, 0
16, 111600, Note_on_c, 12, 60, 88
16, 111600, Note_on_c, 12, 48, 88
16, 112311, Note_on_c, 12, 60, 0
16, 112311, Note_on_c, 12, 48, 0
16, 112320, Note_on_c, 12, 60, 88
16, 112379, Note_on_c, 12, 60, 0
16, 112380, Note_on_c, 12, 58, 88
16, 112435, Note_on_c, 12, 58, 0
16, 112440, Note_on_c, 12, 57, 88
16, 112484, Note_on_c, 12, 57, 0
16, 112500, Note_on_c, 12, 58, 88
16, 112544, Note_on_c, 12, 58, 0
16, 112560, Note_on_c, 12, 55, 88
16, 112604, Note_on_c, 12, 55, 0
16, 112620, Note_on_c, 12, 52, 88
16, 112664, Note_on_c, 12, 52, 0
16, 112680, Note_on_c, 12, 48, 88
16, 112739, Note_on_c, 12, 48, 0
16, 112740, Note_on_c, 12, 58, 88
16, 112795, Note_on_c, 12, 58, 0
16, 112800, Note_on_c, 12, 55, 88
16, 112844, Note_on_c, 12, 55, 0
16, 112860, Note_on_c, 12, 52, 88
16, 112904, Note_on_c, 12, 52, 0
16, 112920, Note_on_c, 12, 48, 88
16, 112964, Note_on_c, 12, 48, 0
16, 112980, Note_on_c, 12, 60, 88
16, 113024, Note_on_c, 12, 60, 0
16, 113040, Note_on_c, 12, 53, 88
16, 113279, Note_on_c, 12, 53, 0
16, 114480, Note_on_c, 12, 53, 76
16, 114535, Note_on_c, 12, 53, 0
16, 114540, Note_on_c, 12, 65, 52
16, 114599, Note_on_c, 12, 65, 0
16, 114600, Note_on_c, 12, 64, 52
16, 114659, Note_on_c, 12, 64, 0
16, 114660, Note_on_c, 12, 65, 52
16, 114719, Note_on_c, 12, 65, 0
16, 114720, Note_on_c, 12, 67, 52
16, 114779, Note_on_c, 12, 67, 0
16, 114780, Note_on_c, 12, 65, 52
16, 114835, Note_on_c, 12, 65, 0
16, 114840, Note_on_c, 12, 62, 52
16, 114899, Note_on_c, 12, 62, 0
16, 114900, Note_on_c, 12, 65, 54
16, 114959, Note_on_c, 12, 65, 0
16, 114960, Note_on_c, 12, 60, 56
16, 115019, Note_on_c, 12, 60, 0
16, 115020, Note_on_c, 12, 65, 58
16, 115079, Note_on_c, 12, 65, 0
16, 115080, Note_on_c, 12, 58, 60
16, 115139, Note_on_c, 12, 58, 0
16, 115140, Note_on_c, 12, 65, 62
16, 115195, Note_on_c, 12, 65, 0
16, 115200, Note_on_c, 12, 57, 64
16, 115259, Note_on_c, 12, 57, 0
16, 115260, Note_on_c, 12, 60, 66
16, 115319, Note_on_c, 12, 60, 0
16, 115320, Note_on_c, 12, 55, 68
16, 115379, Note_on_c, 12, 55, 0
16, 115380, Note_on_c, 12, 60, 70
16, 115439, Note_on_c, 12, 60, 0
16, 115440, Note_on_c, 12, 53, 72
16, 115499, Note_on_c, 12, 53, 0
16, 115500, Note_on_c, 12, 60, 74
16, 115555, Note_on_c, 12, 60, 0
16, 115560, Note_on_c, 12, 48, 76
16, 115619, Note_on_c, 12, 48, 0
16, 115620, Note_on_c, 12, 52, 76
16, 115679, Note_on_c, 12, 52, 0
16, 115680, Note_on_c, 12, 55, 76
16, 115739, Note_on_c, 12, 55, 0
16, 115740, Note_on_c, 12, 60, 76
16, 115799, Note_on_c, 12, 60, 0
16, 115800, Note_on_c, 12, 48, 76
16, 115859, Note_on_c, 12, 48, 0
16, 115860, Note_on_c, 12, 60, 76
16, 115915, Note_on_c, 12, 60, 0
16, 115920, Note_on_c, 12, 60, 84
16, 116279, Note_on_c, 12, 60, 0
16, 116280, Note_on_c, 12, 57, 84
16, 116399, Note_on_c, 12, 57, 0
16, 116520, Note_on_c, 12, 60, 84
16, 116609, Note_on_c, 12, 60, 0
16, 116640, Note_on_c, 12, 62, 84
16, 116999, Note_on_c, 12, 62, 0
16, 117000, Note_on_c, 12, 58, 84
16, 117119, Note_on_c, 12, 58, 0
16, 117240, Note_on_c, 12, 58, 84
16, 117329, Note_on_c, 12, 58, 0
16, 117360, Note_on_c, 12, 53, 84
16, 117360, Control_c, 12, 11, 127
16, 117390, Control_c, 12, 11, 124
16, 117420, Control_c, 12, 11, 122
16, 117450, Control_c, 12, 11, 119
16, 117480, Control_c, 12, 11, 117
16, 117510, Control_c, 12, 11, 114
16, 117540, Control_c, 12, 11, 111
16, 117570, Control_c, 12, 11, 109
16, 117600, Control_c, 12, 11, 106
16, 117630, Control_c, 12, 11, 103
16, 117660, Control_c, 12, 11, 101
16, 117690, Control_c, 12, 11, 98
16, 117720, Control_c, 12, 11, 96
16, 117750, Control_c, 12, 11, 93
16, 117780, Control_c, 12, 11, 90
16, 117810, Control_c, 12, 11, 88
16, 117840, Control_c, 12, 11, 85
16, 117870, Control_c, 12, 11, 82
16, 117900, Control_c, 12, 11, 80
16, 117930, Control_c, 12, 11, 77
16, 117960, Control_c, 12, 11, 75
16, 117990, Control_c, 12, 11, 72
16, 118020, Control_c, 12, 11, 69
16, 118050, Control_c, 12, 11, 67
16, 118079, Note_on_c, 12, 53, 0
16, 118080, Note_on_c, 12, 53, 84
16, 118080, Control_c, 12, 11, 64
16, 118125, Control_c, 12, 11, 63
16, 118170, Control_c, 12, 11, 62
16, 118215, Control_c, 12, 11, 61
16, 118260, Control_c, 12, 11, 60
16, 118305, Control_c, 12, 11, 59
16, 118350, Control_c, 12, 11, 58
16, 118395, Control_c, 12, 11, 57
16, 118440, Control_c, 12, 11, 56
16, 118485, Control_c, 12, 11, 55
16, 118530, Control_c, 12, 11, 54
16, 118575, Control_c, 12, 11, 53
16, 118620, Control_c, 12, 11, 52
16, 118665, Control_c, 12, 11, 51
16, 118710, Control_c, 12, 11, 50
16, 118755, Control_c, 12, 11, 48
16, 118799, Note_on_c, 12, 53, 0
16, 118800, Note_on_c, 12, 53, 84
16, 119519, Note_on_c, 12, 53, 0
16, 119520, Note_on_c, 12, 53, 84
16, 120239, Note_on_c, 12, 53, 0
16, 120240, Note_on_c, 12, 53, 84
16, 120959, Note_on_c, 12, 53, 0
16, 120960, Note_on_c, 12, 53, 84
16, 121199, Note_on_c, 12, 53, 0
16, 123720, Note_on_c, 12, 55, 59
16, 123831, Note_on_c, 12, 55, 0
16, 123840, Note_on_c, 12, 52, 60
16, 123959, Note_on_c, 12, 52, 0
16, 123960, Note_on_c, 12, 48, 62
16, 124079, Note_on_c, 12, 48, 0
16, 124080, Note_on_c, 12, 55, 63
16, 124191, Note_on_c, 12, 55, 0
16, 124200, Note_on_c, 12, 52, 64
16, 124319, Note_on_c, 12, 52, 0
16, 124320, Note_on_c, 12, 48, 66
16, 124439, Note_on_c, 12, 48, 0
16, 124440, Note_on_c, 12, 60, 67
16, 124551, Note_on_c, 12, 60, 0
16, 124560, Note_on_c, 12, 55, 69
16, 124679, Note_on_c, 12, 55, 0
16, 124680, Note_on_c, 12, 52, 70
16, 124799, Note_on_c, 12, 52, 0
16, 124800, Note_on_c, 12, 64, 71
16, 124911, Note_on_c, 12, 64, 0
16, 124920, Note_on_c, 12, 60, 73
16, 125039, Note_on_c, 12, 60, 0
16, 125040, Note_on_c, 12, 55, 74
16, 125151, Note_on_c, 12, 55, 0
16, 125160, Note_on_c, 12, 48, 76
16, 125160, Note_on_c, 12, 60, 76
16, 125195, Note_on_c, 12, 48, 0
16, 125195, Note_on_c, 12, 60, 0
16, 125200, Note_on_c, 12, 60, 76
16, 125200, Note_on_c, 12, 48, 76
16, 125235, Note_on_c, 12, 60, 0
16, 125235, Note_on_c, 12, 48, 0
16, 125240, Note_on_c, 12, 48, 76
16, 125240, Note_on_c, 12, 60, 76
16, 125275, Note_on_c, 12, 48, 0
16, 125275, Note_on_c, 12, 60, 0
16, 125280, Note_on_c, 12, 60, 76
16, 125280, Note_on_c, 12, 48, 76
16, 125315, Note_on_c, 12, 60, 0
16, 125315, Note_on_c, 12, 48, 0
16, 125320, Note_on_c, 12, 60, 76
16, 125320, Note_on_c, 12, 48, 76
16, 125355, Note_on_c, 12, 60, 0
16, 125355, Note_on_c, 12, 48, 0
16, 125360, Note_on_c, 12, 48, 76
16, 125360, Note_on_c, 12, 60, 76
16, 125395, Note_on_c, 12, 48, 0
16, 125395, Note_on_c, 12, 60, 0
16, 125400, Note_on_c, 12, 48, 76
16, 125400, Note_on_c, 12, 60, 76
16, 125435, Note_on_c, 12, 48, 0
16, 125435, Note_on_c, 12, 60, 0
16, 125440, Note_on_c, 12, 60, 76
16, 125440, Note_on_c, 12, 48, 76
16, 125475, Note_on_c, 12, 60, 0
16, 125475, Note_on_c, 12, 48, 0
16, 125480, Note_on_c, 12, 60, 76
16, 125480, Note_on_c, 12, 48, 76
16, 125515, Note_on_c, 12, 60, 0
16, 125515, Note_on_c, 12, 48, 0
16, 125520, Note_on_c, 12, 60, 76
16, 125520, Note_on_c, 12, 48, 76
16, 125555, Note_on_c, 12, 60, 0
16, 125555, Note_on_c, 12, 48, 0
16, 125560, Note_on_c, 12, 60, 76
16, 125560, Note_on_c, 12, 48, 76
16, 125595, Note_on_c, 12, 60, 0
16, 125595, Note_on_c, 12, 48, 0
16, 125600, Note_on_c, 12, 60, 76
16, 125600, Note_on_c, 12, 48, 76
16, 125635, Note_on_c, 12, 60, 0
16, 125635, Note_on_c, 12, 48, 0
16, 125640, Note_on_c, 12, 48, 76
16, 125640, Note_on_c, 12, 60, 76
16, 125675, Note_on_c, 12, 48, 0
16, 125675, Note_on_c, 12, 60, 0
16, 125680, Note_on_c, 12, 60, 76
16, 125680, Note_on_c, 12, 48, 76
16, 125715, Note_on_c, 12, 60, 0
16, 125715, Note_on_c, 12, 48, 0
16, 125720, Note_on_c, 12, 48, 76
16, 125720, Note_on_c, 12, 60, 76
16, 125755, Note_on_c, 12, 48, 0
16, 125755, Note_on_c, 12, 60, 0
16, 125760, Note_on_c, 12, 48, 76
16, 125760, Note_on_c, 12, 60, 76
16, 125795, Note_on_c, 12, 48, 0
16, 125795, Note_on_c, 12, 60, 0
16, 125800, Note_on_c, 12, 48, 76
16, 125800, Note_on_c, 12, 60, 76
16, 125835, Note_on_c, 12, 48, 0
16, 125835, Note_on_c, 12, 60, 0
16, 125840, Note_on_c, 12, 48, 76
16, 125840, Note_on_c, 12, 60, 76
16, 125875, Note_on_c, 12, 48, 0
16, 125875, Note_on_c, 12, 60, 0
16, 125880, Note_on_c, 12, 60, 76
16, 125880, Note_on_c, 12, 48, 76
16, 125915, Note_on_c, 12, 60, 0
16, 125915, Note_on_c, 12, 48, 0
16, 125920, Note_on_c, 12, 60, 76
16, 125920, Note_on_c, 12, 48, 76
16, 125955, Note_on_c, 12, 60, 0
16, 125955, Note_on_c, 12, 48, 0
16, 125960, Note_on_c, 12, 48, 76
16, 125960, Note_on_c, 12, 60, 76
16, 125995, Note_on_c, 12, 48, 0
16, 125995, Note_on_c, 12, 60, 0
16, 126000, Note_on_c, 12, 48, 76
16, 126000, Note_on_c, 12, 60, 76
16, 126035, Note_on_c, 12, 48, 0
16, 126035, Note_on_c, 12, 60, 0
16, 126040, Note_on_c, 12, 60, 76
16, 126040, Note_on_c, 12, 48, 76
16, 126075, Note_on_c, 12, 60, 0
16, 126075, Note_on_c, 12, 48, 0
16, 126080, Note_on_c, 12, 60, 76
16, 126080, Note_on_c, 12, 48, 76
16, 126115, Note_on_c, 12, 60, 0
16, 126115, Note_on_c, 12, 48, 0
16, 126120, Note_on_c, 12, 48, 76
16, 126120, Note_on_c, 12, 60, 76
16, 126155, Note_on_c, 12, 48, 0
16, 126155, Note_on_c, 12, 60, 0
16, 126160, Note_on_c, 12, 48, 76
16, 126160, Note_on_c, 12, 60, 76
16, 126195, Note_on_c, 12, 48, 0
16, 126195, Note_on_c, 12, 60, 0
16, 126200, Note_on_c, 12, 60, 76
16, 126200, Note_on_c, 12, 48, 76
16, 126235, Note_on_c, 12, 60, 0
16, 126235, Note_on_c, 12, 48, 0
16, 126240, Note_on_c, 12, 60, 76
16, 126240, Note_on_c, 12, 48, 76
16, 126275, Note_on_c, 12, 60, 0
16, 126275, Note_on_c, 12, 48, 0
16, 126280, Note_on_c, 12, 48, 76
16, 126280, Note_on_c, 12, 60, 76
16, 126315, Note_on_c, 12, 48, 0
16, 126315, Note_on_c, 12, 60, 0
16, 126320, Note_on_c, 12, 48, 76
16, 126320, Note_on_c, 12, 60, 76
16, 126355, Note_on_c, 12, 48, 0
16, 126355, Note_on_c, 12, 60, 0
16, 126360, Note_on_c, 12, 48, 76
16, 126360, Note_on_c, 12, 60, 76
16, 126395, Note_on_c, 12, 48, 0
16, 126395, Note_on_c, 12, 60, 0
16, 126400, Note_on_c, 12, 60, 76
16, 126400, Note_on_c, 12, 48, 76
16, 126435, Note_on_c, 12, 60, 0
16, 126435, Note_on_c, 12, 48, 0
16, 126440, Note_on_c, 12, 48, 76
16, 126440, Note_on_c, 12, 60, 76
16, 126475, Note_on_c, 12, 48, 0
16, 126475, Note_on_c, 12, 60, 0
16, 126480, Note_on_c, 12, 60, 76
16, 126480, Note_on_c, 12, 48, 76
16, 126515, Note_on_c, 12, 60, 0
16, 126515, Note_on_c, 12, 48, 0
16, 126520, Note_on_c, 12, 48, 76
16, 126520, Note_on_c, 12, 60, 76
16, 126555, Note_on_c, 12, 48, 0
16, 126555, Note_on_c, 12, 60, 0
16, 126560, Note_on_c, 12, 48, 76
16, 126560, Note_on_c, 12, 60, 76
16, 126595, Note_on_c, 12, 48, 0
16, 126595, Note_on_c, 12, 60, 0
16, 126600, Note_on_c, 12, 48, 76
16, 126600, Note_on_c, 12, 60, 76
16, 126635, Note_on_c, 12, 48, 0
16, 126635, Note_on_c, 12, 60, 0
16, 126640, Note_on_c, 12, 60, 76
16, 126640, Note_on_c, 12, 48, 76
16, 126675, Note_on_c, 12, 60, 0
16, 126675, Note_on_c, 12, 48, 0
16, 126680, Note_on_c, 12, 48, 76
16, 126680, Note_on_c, 12, 60, 76
16, 126715, Note_on_c, 12, 48, 0
16, 126715, Note_on_c, 12, 60, 0
16, 126720, Note_on_c, 12, 57, 84
16, 126839, Note_on_c, 12, 57, 0
16, 133200, Control_c, 12, 11, 80
16, 133261, Control_c, 12, 11, 81
16, 133320, Note_on_c, 12, 72, 84
16, 133323, Control_c, 12, 11, 82
16, 133384, Control_c, 12, 11, 83
16, 133431, Note_on_c, 12, 72, 0
16, 133440, Note_on_c, 12, 72, 84
16, 133445, Control_c, 12, 11, 84
16, 133506, Control_c, 12, 11, 85
16, 133551, Note_on_c, 12, 72, 0
16, 133560, Note_on_c, 12, 72, 84
16, 133568, Control_c, 12, 11, 86
16, 133629, Control_c, 12, 11, 87
16, 133679, Note_on_c, 12, 72, 0
16, 133680, Note_on_c, 12, 69, 84
16, 133690, Control_c, 12, 11, 88
16, 133751, Control_c, 12, 11, 89
16, 133791, Note_on_c, 12, 69, 0
16, 133800, Note_on_c, 12, 69, 84
16, 133813, Control_c, 12, 11, 90
16, 133874, Control_c, 12, 11, 91
16, 133889, Note_on_c, 12, 69, 0
16, 133920, Note_on_c, 12, 69, 84
16, 133935, Control_c, 12, 11, 92
16, 133997, Control_c, 12, 11, 93
16, 134039, Note_on_c, 12, 69, 0
16, 134040, Note_on_c, 12, 66, 84
16, 134058, Control_c, 12, 11, 94
16, 134119, Control_c, 12, 11, 95
16, 134151, Note_on_c, 12, 66, 0
16, 134160, Note_on_c, 12, 66, 84
16, 134180, Control_c, 12, 11, 96
16, 134242, Control_c, 12, 11, 97
16, 134249, Note_on_c, 12, 66, 0
16, 134280, Note_on_c, 12, 66, 84
16, 134303, Control_c, 12, 11, 98
16, 134364, Control_c, 12, 11, 99
16, 134399, Note_on_c, 12, 66, 0
16, 134400, Note_on_c, 12, 62, 84
16, 134426, Control_c, 12, 11, 100
16, 134487, Control_c, 12, 11, 101
16, 134511, Note_on_c, 12, 62, 0
16, 134520, Note_on_c, 12, 62, 84
16, 134548, Control_c, 12, 11, 102
16, 134609, Note_on_c, 12, 62, 0
16, 134609, Control_c, 12, 11, 103
16, 134640, Note_on_c, 12, 62, 84
16, 134671, Control_c, 12, 11, 104
16, 134732, Control_c, 12, 11, 105
16, 134759, Note_on_c, 12, 62, 0
16, 134760, Note_on_c, 12, 70, 84
16, 134793, Control_c, 12, 11, 106
16, 134854, Control_c, 12, 11, 107
16, 134871, Note_on_c, 12, 70, 0
16, 134880, Note_on_c, 12, 70, 84
16, 134916, Control_c, 12, 11, 108
16, 134969, Note_on_c, 12, 70, 0
16, 134977, Control_c, 12, 11, 109
16, 135000, Note_on_c, 12, 70, 84
16, 135038, Control_c, 12, 11, 110
16, 135100, Control_c, 12, 11, 111
16, 135119, Note_on_c, 12, 70, 0
16, 135120, Note_on_c, 12, 67, 84
16, 135161, Control_c, 12, 11, 112
16, 135222, Control_c, 12, 11, 113
16, 135231, Note_on_c, 12, 67, 0
16, 135240, Note_on_c, 12, 67, 84
16, 135283, Control_c, 12, 11, 114
16, 135329, Note_on_c, 12, 67, 0
16, 135345, Control_c, 12, 11, 115
16, 135360, Note_on_c, 12, 67, 84
16, 135406, Control_c, 12, 11, 116
16, 135467, Control_c, 12, 11, 117
16, 135479, Note_on_c, 12, 67, 0
16, 135480, Note_on_c, 12, 64, 84
16, 135529, Control_c, 12, 11, 118
16, 135590, Control_c, 12, 11, 119
16, 135591, Note_on_c, 12, 64, 0
16, 135600, Note_on_c, 12, 64, 84
16, 135651, Control_c, 12, 11, 120
16, 135689, Note_on_c, 12, 64, 0
16, 135712, Control_c, 12, 11, 121
16, 135720, Note_on_c, 12, 64, 84
16, 135774, Control_c, 12, 11, 122
16, 135835, Control_c, 12, 11, 123
16, 135839, Note_on_c, 12, 64, 0
16, 135840, Note_on_c, 12, 60, 84
16, 135896, Control_c, 12, 11, 124
16, 135951, Note_on_c, 12, 60, 0
16, 135957, Control_c, 12, 11, 125
16, 135960, Note_on_c, 12, 60, 84
16, 136019, Control_c, 12, 11, 127
16, 136049, Note_on_c, 12, 60, 0
16, 136080, Note_on_c, 12, 65, 84
16, 136080, Note_on_c, 12, 69, 84
16, 136115, Note_on_c, 12, 65, 0
16, 136115, Note_on_c, 12, 69, 0
16, 136120, Note_on_c, 12, 69, 84
16, 136120, Note_on_c, 12, 65, 84
16, 136155, Note_on_c, 12, 69, 0
16, 136155, Note_on_c, 12, 65, 0
16, 136160, Note_on_c, 12, 69, 84
16, 136160, Note_on_c, 12, 65, 84
16, 136195, Note_on_c, 12, 69, 0
16, 136195, Note_on_c, 12, 65, 0
16, 136200, Note_on_c, 12, 65, 84
16, 136200, Note_on_c, 12, 69, 84
16, 136235, Note_on_c, 12, 65, 0
16, 136235, Note_on_c, 12, 69, 0
16, 136240, Note_on_c, 12, 69, 84
16, 136240, Note_on_c, 12, 65, 84
16, 136275, Note_on_c, 12, 69, 0
16, 136275, Note_on_c, 12, 65, 0
16, 136280, Note_on_c, 12, 65, 84
16, 136280, Note_on_c, 12, 69, 84
16, 136315, Note_on_c, 12, 65, 0
16, 136315, Note_on_c, 12, 69, 0
16, 136320, Note_on_c, 12, 65, 84
16, 136320, Note_on_c, 12, 69, 84
16, 136355, Note_on_c, 12, 65, 0
16, 136355, Note_on_c, 12, 69, 0
16, 136360, Note_on_c, 12, 65, 84
16, 136360, Note_on_c, 12, 69, 84
16, 136395, Note_on_c, 12, 65, 0
16, 136395, Note_on_c, 12, 69, 0
16, 136400, Note_on_c, 12, 69, 84
16, 136400, Note_on_c, 12, 65, 84
16, 136435, Note_on_c, 12, 69, 0
16, 136435, Note_on_c, 12, 65, 0
16, 136440, Note_on_c, 12, 69, 84
16, 136440, Note_on_c, 12, 65, 84
16, 136475, Note_on_c, 12, 69, 0
16, 136475, Note_on_c, 12, 65, 0
16, 136480, Note_on_c, 12, 65, 84
16, 136480, Note_on_c, 12, 69, 84
16, 136515, Note_on_c, 12, 65, 0
16, 136515, Note_on_c, 12, 69, 0
16, 136520, Note_on_c, 12, 69, 84
16, 136520, Note_on_c, 12, 65, 84
16, 136555, Note_on_c, 12, 69, 0
16, 136555, Note_on_c, 12, 65, 0
16, 136560, Note_on_c, 12, 69, 84
16, 136560, Note_on_c, 12, 65, 84
16, 136595, Note_on_c, 12, 69, 0
16, 136595, Note_on_c, 12, 65, 0
16, 136600, Note_on_c, 12, 65, 84
16, 136600, Note_on_c, 12, 69, 84
16, 136635, Note_on_c, 12, 65, 0
16, 136635, Note_on_c, 12, 69, 0
16, 136640, Note_on_c, 12, 65, 84
16, 136640, Note_on_c, 12, 69, 84
16, 136675, Note_on_c, 12, 65, 0
16, 136675, Note_on_c, 12, 69, 0
16, 136680, Note_on_c, 12, 65, 84
16, 136680, Note_on_c, 12, 69, 84
16, 136715, Note_on_c, 12, 65, 0
16, 136715, Note_on_c, 12, 69, 0
16, 136720, Note_on_c, 12, 65, 84
16, 136720, Note_on_c, 12, 69, 84
16, 136755, Note_on_c, 12, 65, 0
16, 136755, Note_on_c, 12, 69, 0
16, 136760, Note_on_c, 12, 69, 84
16, 136760, Note_on_c, 12, 65, 84
16, 136795, Note_on_c, 12, 69, 0
16, 136795, Note_on_c, 12, 65, 0
16, 136800, Note_on_c, 12, 69, 84
16, 136800, Note_on_c, 12, 65, 84
16, 136835, Note_on_c, 12, 69, 0
16, 136835, Note_on_c, 12, 65, 0
16, 136840, Note_on_c, 12, 65, 84
16, 136840, Note_on_c, 12, 69, 84
16, 136875, Note_on_c, 12, 65, 0
16, 136875, Note_on_c, 12, 69, 0
16, 136880, Note_on_c, 12, 65, 84
16, 136880, Note_on_c, 12, 69, 84
16, 136915, Note_on_c, 12, 65, 0
16, 136915, Note_on_c, 12, 69, 0
16, 136920, Note_on_c, 12, 69, 84
16, 136920, Note_on_c, 12, 65, 84
16, 136955, Note_on_c, 12, 69, 0
16, 136955, Note_on_c, 12, 65, 0
16, 136960, Note_on_c, 12, 65, 84
16, 136960, Note_on_c, 12, 69, 84
16, 136995, Note_on_c, 12, 65, 0
16, 136995, Note_on_c, 12, 69, 0
16, 137000, Note_on_c, 12, 65, 84
16, 137000, Note_on_c, 12, 69, 84
16, 137035, Note_on_c, 12, 65, 0
16, 137035, Note_on_c, 12, 69, 0
16, 137040, Note_on_c, 12, 65, 84
16, 137040, Note_on_c, 12, 69, 84
16, 137075, Note_on_c, 12, 65, 0
16, 137075, Note_on_c, 12, 69, 0
16, 137080, Note_on_c, 12, 69, 84
16, 137080, Note_on_c, 12, 65, 84
16, 137115, Note_on_c, 12, 69, 0
16, 137115, Note_on_c, 12, 65, 0
16, 137120, Note_on_c, 12, 69, 84
16, 137120, Note_on_c, 12, 65, 84
16, 137155, Note_on_c, 12, 69, 0
16, 137155, Note_on_c, 12, 65, 0
16, 137160, Note_on_c, 12, 69, 84
16, 137160, Note_on_c, 12, 65, 84
16, 137195, Note_on_c, 12, 69, 0
16, 137195, Note_on_c, 12, 65, 0
16, 137200, Note_on_c, 12, 65, 84
16, 137200, Note_on_c, 12, 69, 84
16, 137235, Note_on_c, 12, 65, 0
16, 137235, Note_on_c, 12, 69, 0
16, 137240, Note_on_c, 12, 69, 84
16, 137240, Note_on_c, 12, 65, 84
16, 137275, Note_on_c, 12, 69, 0
16, 137275, Note_on_c, 12, 65, 0
16, 137280, Note_on_c, 12, 65, 84
16, 137280, Note_on_c, 12, 69, 84
16, 137315, Note_on_c, 12, 65, 0
16, 137315, Note_on_c, 12, 69, 0
16, 137320, Note_on_c, 12, 65, 84
16, 137320, Note_on_c, 12, 69, 84
16, 137355, Note_on_c, 12, 65, 0
16, 137355, Note_on_c, 12, 69, 0
16, 137360, Note_on_c, 12, 69, 84
16, 137360, Note_on_c, 12, 65, 84
16, 137395, Note_on_c, 12, 69, 0
16, 137395, Note_on_c, 12, 65, 0
16, 137400, Note_on_c, 12, 65, 84
16, 137400, Note_on_c, 12, 69, 84
16, 137435, Note_on_c, 12, 65, 0
16, 137435, Note_on_c, 12, 69, 0
16, 137440, Note_on_c, 12, 69, 84
16, 137440, Note_on_c, 12, 65, 84
16, 137475, Note_on_c, 12, 69, 0
16, 137475, Note_on_c, 12, 65, 0
16, 137480, Note_on_c, 12, 65, 84
16, 137480, Note_on_c, 12, 69, 84
16, 137515, Note_on_c, 12, 65, 0
16, 137515, Note_on_c, 12, 69, 0
16, 137520, Note_on_c, 12, 62, 84
16, 137555, Note_on_c, 12, 62, 0
16, 137560, Note_on_c, 12, 62, 84
16, 137595, Note_on_c, 12, 62, 0
16, 137600, Note_on_c, 12, 62, 84
16, 137635, Note_on_c, 12, 62, 0
16, 137640, Note_on_c, 12, 62, 84
16, 137675, Note_on_c, 12, 62, 0
16, 137680, Note_on_c, 12, 62, 84
16, 137715, Note_on_c, 12, 62, 0
16, 137720, Note_on_c, 12, 62, 84
16, 137755, Note_on_c, 12, 62, 0
16, 137760, Note_on_c, 12, 65, 84
16, 137795, Note_on_c, 12, 65, 0
16, 137800, Note_on_c, 12, 65, 84
16, 137835, Note_on_c, 12, 65, 0
16, 137840, Note_on_c, 12, 65, 84
16, 137875, Note_on_c, 12, 65, 0
16, 137880, Note_on_c, 12, 69, 84
16, 137880, Note_on_c, 12, 65, 84
16, 137915, Note_on_c, 12, 69, 0
16, 137915, Note_on_c, 12, 65, 0
16, 137920, Note_on_c, 12, 69, 84
16, 137920, Note_on_c, 12, 65, 84
16, 137955, Note_on_c, 12, 69, 0
16, 137955, Note_on_c, 12, 65, 0
16, 137960, Note_on_c, 12, 69, 84
16, 137960, Note_on_c, 12, 65, 84
16, 137995, Note_on_c, 12, 69, 0
16, 137995, Note_on_c, 12, 65, 0
16, 138000, Note_on_c, 12, 65, 84
16, 138000, Note_on_c, 12, 69, 84
16, 138035, Note_on_c, 12, 65, 0
16, 138035, Note_on_c, 12, 69, 0
16, 138040, Note_on_c, 12, 65, 84
16, 138040, Note_on_c, 12, 69, 84
16, 138075, Note_on_c, 12, 65, 0
16, 138075, Note_on_c, 12, 69, 0
16, 138080, Note_on_c, 12, 69, 84
16, 138080, Note_on_c, 12, 65, 84
16, 138115, Note_on_c, 12, 69, 0
16, 138115, Note_on_c, 12, 65, 0
16, 138120, Note_on_c, 12, 65, 84
16, 138120, Note_on_c, 12, 69, 84
16, 138155, Note_on_c, 12, 65, 0
16, 138155, Note_on_c, 12, 69, 0
16, 138160, Note_on_c, 12, 69, 84
16, 138160, Note_on_c, 12, 65, 84
16, 138195, Note_on_c, 12, 69, 0
16, 138195, Note_on_c, 12, 65, 0
16, 138200, Note_on_c, 12, 65, 84
16, 138200, Note_on_c, 12, 69, 84
16, 138235, Note_on_c, 12, 65, 0
16, 138235, Note_on_c, 12, 69, 0
16, 138240, Note_on_c, 12, 69, 84
16, 138240, Note_on_c, 12, 65, 84
16, 138275, Note_on_c, 12, 69, 0
16, 138275, Note_on_c, 12, 65, 0
16, 138280, Note_on_c, 12, 69, 84
16, 138280, Note_on_c, 12, 65, 84
16, 138315, Note_on_c, 12, 69, 0
16, 138315, Note_on_c, 12, 65, 0
16, 138320, Note_on_c, 12, 69, 84
16, 138320, Note_on_c, 12, 65, 84
16, 138355, Note_on_c, 12, 69, 0
16, 138355, Note_on_c, 12, 65, 0
16, 138360, Note_on_c, 12, 69, 84
16, 138360, Note_on_c, 12, 65, 84
16, 138395, Note_on_c, 12, 69, 0
16, 138395, Note_on_c, 12, 65, 0
16, 138400, Note_on_c, 12, 65, 84
16, 138400, Note_on_c, 12, 69, 84
16, 138435, Note_on_c, 12, 65, 0
16, 138435, Note_on_c, 12, 69, 0
16, 138440, Note_on_c, 12, 69, 84
16, 138440, Note_on_c, 12, 65, 84
16, 138475, Note_on_c, 12, 69, 0
16, 138475, Note_on_c, 12, 65, 0
16, 138480, Note_on_c, 12, 65, 84
16, 138480, Note_on_c, 12, 69, 84
16, 138515, Note_on_c, 12, 65, 0
16, 138515, Note_on_c, 12, 69, 0
16, 138520, Note_on_c, 12, 65, 84
16, 138520, Note_on_c, 12, 69, 84
16, 138555, Note_on_c, 12, 65, 0
16, 138555, Note_on_c, 12, 69, 0
16, 138560, Note_on_c, 12, 69, 84
16, 138560, Note_on_c, 12, 65, 84
16, 138595, Note_on_c, 12, 69, 0
16, 138595, Note_on_c, 12, 65, 0
16, 138600, Note_on_c, 12, 65, 84
16, 138600, Note_on_c, 12, 69, 84
16, 138635, Note_on_c, 12, 65, 0
16, 138635, Note_on_c, 12, 69, 0
16, 138640, Note_on_c, 12, 69, 84
16, 138640, Note_on_c, 12, 65, 84
16, 138675, Note_on_c, 12, 69, 0
16, 138675, Note_on_c, 12, 65, 0
16, 138680, Note_on_c, 12, 69, 84
16, 138680, Note_on_c, 12, 65, 84
16, 138715, Note_on_c, 12, 69, 0
16, 138715, Note_on_c, 12, 65, 0
16, 138720, Note_on_c, 12, 69, 84
16, 138720, Note_on_c, 12, 65, 84
16, 138755, Note_on_c, 12, 69, 0
16, 138755, Note_on_c, 12, 65, 0
16, 138760, Note_on_c, 12, 69, 84
16, 138760, Note_on_c, 12, 65, 84
16, 138795, Note_on_c, 12, 69, 0
16, 138795, Note_on_c, 12, 65, 0
16, 138800, Note_on_c, 12, 65, 84
16, 138800, Note_on_c, 12, 69, 84
16, 138835, Note_on_c, 12, 65, 0
16, 138835, Note_on_c, 12, 69, 0
16, 138840, Note_on_c, 12, 74, 84
16, 138840, Note_on_c, 12, 65, 84
16, 138875, Note_on_c, 12, 74, 0
16, 138875, Note_on_c, 12, 65, 0
16, 138880, Note_on_c, 12, 74, 84
16, 138880, Note_on_c, 12, 65, 84
16, 138915, Note_on_c, 12, 74, 0
16, 138915, Note_on_c, 12, 65, 0
16, 138920, Note_on_c, 12, 65, 84
16, 138920, Note_on_c, 12, 74, 84
16, 138955, Note_on_c, 12, 65, 0
16, 138955, Note_on_c, 12, 74, 0
16, 138960, Note_on_c, 12, 65, 84
16, 138960, Note_on_c, 12, 62, 84
16, 138995, Note_on_c, 12, 65, 0
16, 138995, Note_on_c, 12, 62, 0
16, 139000, Note_on_c, 12, 65, 84
16, 139000, Note_on_c, 12, 62, 84
16, 139035, Note_on_c, 12, 65, 0
16, 139035, Note_on_c, 12, 62, 0
16, 139040, Note_on_c, 12, 65, 84
16, 139040, Note_on_c, 12, 62, 84
16, 139075, Note_on_c, 12, 65, 0
16, 139075, Note_on_c, 12, 62, 0
16, 139080, Note_on_c, 12, 62, 84
16, 139080, Note_on_c, 12, 65, 84
16, 139115, Note_on_c, 12, 62, 0
16, 139115, Note_on_c, 12, 65, 0
16, 139120, Note_on_c, 12, 65, 84
16, 139120, Note_on_c, 12, 62, 84
16, 139155, Note_on_c, 12, 65, 0
16, 139155, Note_on_c, 12, 62, 0
16, 139160, Note_on_c, 12, 65, 84
16, 139160, Note_on_c, 12, 62, 84
16, 139195, Note_on_c, 12, 65, 0
16, 139195, Note_on_c, 12, 62, 0
16, 139200, Note_on_c, 12, 71, 84
16, 139200, Note_on_c, 12, 65, 84
16, 139235, Note_on_c, 12, 71, 0
16, 139235, Note_on_c, 12, 65, 0
16, 139240, Note_on_c, 12, 65, 84
16, 139240, Note_on_c, 12, 71, 84
16, 139275, Note_on_c, 12, 65, 0
16, 139275, Note_on_c, 12, 71, 0
16, 139280, Note_on_c, 12, 65, 84
16, 139280, Note_on_c, 12, 71, 84
16, 139315, Note_on_c, 12, 65, 0
16, 139315, Note_on_c, 12, 71, 0
16, 139320, Note_on_c, 12, 71, 84
16, 139320, Note_on_c, 12, 74, 84
16, 139355, Note_on_c, 12, 71, 0
16, 139355, Note_on_c, 12, 74, 0
16, 139360, Note_on_c, 12, 71, 84
16, 139360, Note_on_c, 12, 74, 84
16, 139395, Note_on_c, 12, 71, 0
16, 139395, Note_on_c, 12, 74, 0
16, 139400, Note_on_c, 12, 74, 84
16, 139400, Note_on_c, 12, 71, 84
16, 139435, Note_on_c, 12, 74, 0
16, 139435, Note_on_c, 12, 71, 0
16, 139440, Note_on_c, 12, 71, 84
16, 139440, Note_on_c, 12, 74, 84
16, 139475, Note_on_c, 12, 71, 0
16, 139475, Note_on_c, 12, 74, 0
16, 139480, Note_on_c, 12, 71, 84
16, 139480, Note_on_c, 12, 74, 84
16, 139515, Note_on_c, 12, 71, 0
16, 139515, Note_on_c, 12, 74, 0
16, 139520, Note_on_c, 12, 71, 84
16, 139520, Note_on_c, 12, 74, 84
16, 139555, Note_on_c, 12, 71, 0
16, 139555, Note_on_c, 12, 74, 0
16, 139560, Note_on_c, 12, 74, 84
16, 139560, Note_on_c, 12, 71, 84
16, 139595, Note_on_c, 12, 74, 0
16, 139595, Note_on_c, 12, 71, 0
16, 139600, Note_on_c, 12, 74, 84
16, 139600, Note_on_c, 12, 71, 84
16, 139635, Note_on_c, 12, 74, 0
16, 139635, Note_on_c, 12, 71, 0
16, 139640, Note_on_c, 12, 71, 84
16, 139640, Note_on_c, 12, 74, 84
16, 139675, Note_on_c, 12, 71, 0
16, 139675, Note_on_c, 12, 74, 0
16, 139680, Note_on_c, 12, 71, 84
16, 139680, Note_on_c, 12, 74, 84
16, 139715, Note_on_c, 12, 71, 0
16, 139715, Note_on_c, 12, 74, 0
16, 139720, Note_on_c, 12, 74, 82
16, 139720, Note_on_c, 12, 71, 82
16, 139755, Note_on_c, 12, 74, 0
16, 139755, Note_on_c, 12, 71, 0
16, 139760, Note_on_c, 12, 71, 80
16, 139760, Note_on_c, 12, 74, 80
16, 139795, Note_on_c, 12, 71, 0
16, 139795, Note_on_c, 12, 74, 0
16, 139800, Note_on_c, 12, 71, 78
16, 139800, Note_on_c, 12, 74, 78
16, 139835, Note_on_c, 12, 71, 0
16, 139835, Note_on_c, 12, 74, 0
16, 139840, Note_on_c, 12, 71, 76
16, 139840, Note_on_c, 12, 74, 76
16, 139875, Note_on_c, 12, 71, 0
16, 139875, Note_on_c, 12, 74, 0
16, 139880, Note_on_c, 12, 74, 73
16, 139880, Note_on_c, 12, 71, 73
16, 139915, Note_on_c, 12, 74, 0
16, 139915, Note_on_c, 12, 71, 0
16, 139920, Note_on_c, 12, 71, 71
16, 139920, Note_on_c, 12, 74, 71
16, 139955, Note_on_c, 12, 71, 0
16, 139955, Note_on_c, 12, 74, 0
16, 139960, Note_on_c, 12, 71, 69
16, 139960, Note_on_c, 12, 74, 69
16, 139995, Note_on_c, 12, 71, 0
16, 139995, Note_on_c, 12, 74, 0
16, 140000, Note_on_c, 12, 71, 67
16, 140000, Note_on_c, 12, 74, 67
16, 140035, Note_on_c, 12, 71, 0
16, 140035, Note_on_c, 12, 74, 0
16, 140040, Note_on_c, 12, 74, 64
16, 140040, Note_on_c, 12, 71, 64
16, 140075, Note_on_c, 12, 74, 0
16, 140075, Note_on_c, 12, 71, 0
16, 140080, Note_on_c, 12, 74, 62
16, 140080, Note_on_c, 12, 71, 62
16, 140115, Note_on_c, 12, 74, 0
16, 140115, Note_on_c, 12, 71, 0
16, 140120, Note_on_c, 12, 71, 60
16, 140120, Note_on_c, 12, 74, 60
16, 140155, Note_on_c, 12, 71, 0
16, 140155, Note_on_c, 12, 74, 0
16, 140160, Note_on_c, 12, 71, 58
16, 140160, Note_on_c, 12, 74, 58
16, 140195, Note_on_c, 12, 71, 0
16, 140195, Note_on_c, 12, 74, 0
16, 140200, Note_on_c, 12, 74, 56
16, 140200, Note_on_c, 12, 71, 56
16, 140235, Note_on_c, 12, 74, 0
16, 140235, Note_on_c, 12, 71, 0
16, 140240, Note_on_c, 12, 74, 53
16, 140240, Note_on_c, 12, 71, 53
16, 140275, Note_on_c, 12, 74, 0
16, 140275, Note_on_c, 12, 71, 0
16, 140280, Note_on_c, 12, 71, 51
16, 140280, Note_on_c, 12, 74, 51
16, 140315, Note_on_c, 12, 71, 0
16, 140315, Note_on_c, 12, 74, 0
16, 140320, Note_on_c, 12, 71, 49
16, 140320, Note_on_c, 12, 74, 49
16, 140355, Note_on_c, 12, 71, 0
16, 140355, Note_on_c, 12, 74, 0
16, 140360, Note_on_c, 12, 74, 47
16, 140360, Note_on_c, 12, 71, 47
16, 140395, Note_on_c, 12, 74, 0
16, 140395, Note_on_c, 12, 71, 0
16, 140400, Note_on_c, 12, 55, 44
16, 140459, Note_on_c, 12, 55, 0
16, 140460, Note_on_c, 12, 59, 44
16, 140519, Note_on_c, 12, 59, 0
16, 140520, Note_on_c, 12, 55, 44
16, 140579, Note_on_c, 12, 55, 0
16, 140580, Note_on_c, 12, 59, 44
16, 140639, Note_on_c, 12, 59, 0
16, 140640, Note_on_c, 12, 55, 44
16, 140699, Note_on_c, 12, 55, 0
16, 140700, Note_on_c, 12, 59, 44
16, 140759, Note_on_c, 12, 59, 0
16, 140760, Note_on_c, 12, 55, 44
16, 140819, Note_on_c, 12, 55, 0
16, 140820, Note_on_c, 12, 59, 44
16, 140879, Note_on_c, 12, 59, 0
16, 140880, Note_on_c, 12, 55, 44
16, 140939, Note_on_c, 12, 55, 0
16, 140940, Note_on_c, 12, 59, 44
16, 140999, Note_on_c, 12, 59, 0
16, 141000, Note_on_c, 12, 55, 44
16, 141059, Note_on_c, 12, 55, 0
16, 141060, Note_on_c, 12, 59, 44
16, 141115, Note_on_c, 12, 59, 0
16, 141120, Note_on_c, 12, 55, 44
16, 141179, Note_on_c, 12, 55, 0
16, 141180, Note_on_c, 12, 59, 44
16, 141239, Note_on_c, 12, 59, 0
16, 141240, Note_on_c, 12, 55, 44
16, 141299, Note_on_c, 12, 55, 0
16, 141300, Note_on_c, 12, 59, 44
16, 141359, Note_on_c, 12, 59, 0
16, 141360, Note_on_c, 12, 55, 44
16, 141419, Note_on_c, 12, 55, 0
16, 141420, Note_on_c, 12, 59, 44
16, 141479, Note_on_c, 12, 59, 0
16, 141480, Note_on_c, 12, 55, 44
16, 141539, Note_on_c, 12, 55, 0
16, 141540, Note_on_c, 12, 59, 44
16, 141599, Note_on_c, 12, 59, 0
16, 141600, Note_on_c, 12, 55, 44
16, 141659, Note_on_c, 12, 55, 0
16, 141660, Note_on_c, 12, 59, 44
16, 141719, Note_on_c, 12, 59, 0
16, 141720, Note_on_c, 12, 55, 44
16, 141779, Note_on_c, 12, 55, 0
16, 141780, Note_on_c, 12, 59, 44
16, 141835, Note_on_c, 12, 59, 0
16, 141840, Note_on_c, 12, 55, 44
16, 141899, Note_on_c, 12, 55, 0
16, 141900, Note_on_c, 12, 59, 44
16, 141959, Note_on_c, 12, 59, 0
16, 141960, Note_on_c, 12, 55, 44
16, 142019, Note_on_c, 12, 55, 0
16, 142020, Note_on_c, 12, 59, 45
16, 142079, Note_on_c, 12, 59, 0
16, 142080, Note_on_c, 12, 55, 45
16, 142139, Note_on_c, 12, 55, 0
16, 142140, Note_on_c, 12, 59, 46
16, 142199, Note_on_c, 12, 59, 0
16, 142200, Note_on_c, 12, 55, 46
16, 142259, Note_on_c, 12, 55, 0
16, 142260, Note_on_c, 12, 59, 47
16, 142319, Note_on_c, 12, 59, 0
16, 142320, Note_on_c, 12, 55, 47
16, 142379, Note_on_c, 12, 55, 0
16, 142380, Note_on_c, 12, 59, 48
16, 142439, Note_on_c, 12, 59, 0
16, 142440, Note_on_c, 12, 55, 48
16, 142499, Note_on_c, 12, 55, 0
16, 142500, Note_on_c, 12, 59, 49
16, 142555, Note_on_c, 12, 59, 0
16, 142560, Note_on_c, 12, 55, 49
16, 142619, Note_on_c, 12, 55, 0
16, 142620, Note_on_c, 12, 59, 49
16, 142679, Note_on_c, 12, 59, 0
16, 142680, Note_on_c, 12, 55, 50
16, 142739, Note_on_c, 12, 55, 0
16, 142740, Note_on_c, 12, 59, 50
16, 142799, Note_on_c, 12, 59, 0
16, 142800, Note_on_c, 12, 55, 51
16, 142859, Note_on_c, 12, 55, 0
16, 142860, Note_on_c, 12, 59, 51
16, 142919, Note_on_c, 12, 59, 0
16, 142920, Note_on_c, 12, 55, 52
16, 142979, Note_on_c, 12, 55, 0
16, 142980, Note_on_c, 12, 59, 52
16, 143039, Note_on_c, 12, 59, 0
16, 143040, Note_on_c, 12, 55, 53
16, 143099, Note_on_c, 12, 55, 0
16, 143100, Note_on_c, 12, 59, 53
16, 143159, Note_on_c, 12, 59, 0
16, 143160, Note_on_c, 12, 55, 54
16, 143219, Note_on_c, 12, 55, 0
16, 143220, Note_on_c, 12, 59, 54
16, 143275, Note_on_c, 12, 59, 0
16, 143280, Note_on_c, 12, 48, 54
16, 143339, Note_on_c, 12, 48, 0
16, 143340, Note_on_c, 12, 55, 55
16, 143399, Note_on_c, 12, 55, 0
16, 143400, Note_on_c, 12, 48, 55
16, 143459, Note_on_c, 12, 48, 0
16, 143460, Note_on_c, 12, 55, 56
16, 143519, Note_on_c, 12, 55, 0
16, 143520, Note_on_c, 12, 48, 56
16, 143579, Note_on_c, 12, 48, 0
16, 143580, Note_on_c, 12, 55, 57
16, 143639, Note_on_c, 12, 55, 0
16, 143640, Note_on_c, 12, 48, 57
16, 143699, Note_on_c, 12, 48, 0
16, 143700, Note_on_c, 12, 55, 58
16, 143759, Note_on_c, 12, 55, 0
16, 143760, Note_on_c, 12, 48, 58
16, 143819, Note_on_c, 12, 48, 0
16, 143820, Note_on_c, 12, 55, 59
16, 143879, Note_on_c, 12, 55, 0
16, 143880, Note_on_c, 12, 48, 59
16, 143939, Note_on_c, 12, 48, 0
16, 143940, Note_on_c, 12, 55, 60
16, 143995, Note_on_c, 12, 55, 0
16, 144000, Note_on_c, 12, 48, 60
16, 144059, Note_on_c, 12, 48, 0
16, 144060, Note_on_c, 12, 55, 60
16, 144119, Note_on_c, 12, 55, 0
16, 144120, Note_on_c, 12, 48, 61
16, 144179, Note_on_c, 12, 48, 0
16, 144180, Note_on_c, 12, 55, 61
16, 144239, Note_on_c, 12, 55, 0
16, 144240, Note_on_c, 12, 48, 62
16, 144299, Note_on_c, 12, 48, 0
16, 144300, Note_on_c, 12, 55, 62
16, 144359, Note_on_c, 12, 55, 0
16, 144360, Note_on_c, 12, 48, 63
16, 144419, Note_on_c, 12, 48, 0
16, 144420, Note_on_c, 12, 55, 63
16, 144479, Note_on_c, 12, 55, 0
16, 144480, Note_on_c, 12, 48, 64
16, 144539, Note_on_c, 12, 48, 0
16, 144540, Note_on_c, 12, 55, 64
16, 144599, Note_on_c, 12, 55, 0
16, 144600, Note_on_c, 12, 48, 65
16, 144659, Note_on_c, 12, 48, 0
16, 144660, Note_on_c, 12, 55, 65
16, 144715, Note_on_c, 12, 55, 0
16, 144720, Note_on_c, 12, 48, 65
16, 144779, Note_on_c, 12, 48, 0
16, 144780, Note_on_c, 12, 55, 66
16, 144839, Note_on_c, 12, 55, 0
16, 144840, Note_on_c, 12, 48, 66
16, 144899, Note_on_c, 12, 48, 0
16, 144900, Note_on_c, 12, 55, 67
16, 144959, Note_on_c, 12, 55, 0
16, 144960, Note_on_c, 12, 48, 67
16, 145019, Note_on_c, 12, 48, 0
16, 145020, Note_on_c, 12, 55, 68
16, 145079, Note_on_c, 12, 55, 0
16, 145080, Note_on_c, 12, 48, 68
16, 145139, Note_on_c, 12, 48, 0
16, 145140, Note_on_c, 12, 55, 69
16, 145199, Note_on_c, 12, 55, 0
16, 145200, Note_on_c, 12, 48, 69
16, 145259, Note_on_c, 12, 48, 0
16, 145260, Note_on_c, 12, 55, 70
16, 145319, Note_on_c, 12, 55, 0
16, 145320, Note_on_c, 12, 48, 70
16, 145379, Note_on_c, 12, 48, 0
16, 145380, Note_on_c, 12, 55, 70
16, 145435, Note_on_c, 12, 55, 0
16, 145440, Note_on_c, 12, 48, 71
16, 145499, Note_on_c, 12, 48, 0
16, 145500, Note_on_c, 12, 55, 71
16, 145559, Note_on_c, 12, 55, 0
16, 145560, Note_on_c, 12, 48, 72
16, 145619, Note_on_c, 12, 48, 0
16, 145620, Note_on_c, 12, 55, 72
16, 145679, Note_on_c, 12, 55, 0
16, 145680, Note_on_c, 12, 48, 73
16, 145739, Note_on_c, 12, 48, 0
16, 145740, Note_on_c, 12, 55, 73
16, 145795, Note_on_c, 12, 55, 0
16, 145800, Note_on_c, 12, 48, 74
16, 145859, Note_on_c, 12, 48, 0
16, 145860, Note_on_c, 12, 55, 74
16, 145919, Note_on_c, 12, 55, 0
16, 145920, Note_on_c, 12, 48, 75
16, 145979, Note_on_c, 12, 48, 0
16, 145980, Note_on_c, 12, 55, 75
16, 146035, Note_on_c, 12, 55, 0
16, 146040, Note_on_c, 12, 48, 76
16, 146040, Note_on_c, 12, 60, 76
16, 146075, Note_on_c, 12, 48, 0
16, 146075, Note_on_c, 12, 60, 0
16, 146080, Note_on_c, 12, 60, 76
16, 146080, Note_on_c, 12, 48, 76
16, 146115, Note_on_c, 12, 60, 0
16, 146115, Note_on_c, 12, 48, 0
16, 146120, Note_on_c, 12, 48, 76
16, 146120, Note_on_c, 12, 60, 76
16, 146155, Note_on_c, 12, 48, 0
16, 146155, Note_on_c, 12, 60, 0
16, 146160, Note_on_c, 12, 48, 76
16, 146160, Note_on_c, 12, 60, 76
16, 146195, Note_on_c, 12, 48, 0
16, 146195, Note_on_c, 12, 60, 0
16, 146200, Note_on_c, 12, 60, 76
16, 146200, Note_on_c, 12, 48, 76
16, 146235, Note_on_c, 12, 60, 0
16, 146235, Note_on_c, 12, 48, 0
16, 146240, Note_on_c, 12, 60, 76
16, 146240, Note_on_c, 12, 48, 76
16, 146275, Note_on_c, 12, 60, 0
16, 146275, Note_on_c, 12, 48, 0
16, 146280, Note_on_c, 12, 48, 76
16, 146280, Note_on_c, 12, 60, 76
16, 146315, Note_on_c, 12, 48, 0
16, 146315, Note_on_c, 12, 60, 0
16, 146320, Note_on_c, 12, 48, 76
16, 146320, Note_on_c, 12, 60, 76
16, 146355, Note_on_c, 12, 48, 0
16, 146355, Note_on_c, 12, 60, 0
16, 146360, Note_on_c, 12, 60, 76
16, 146360, Note_on_c, 12, 48, 76
16, 146395, Note_on_c, 12, 60, 0
16, 146395, Note_on_c, 12, 48, 0
16, 146400, Note_on_c, 12, 48, 76
16, 146400, Note_on_c, 12, 60, 76
16, 146435, Note_on_c, 12, 48, 0
16, 146435, Note_on_c, 12, 60, 0
16, 146440, Note_on_c, 12, 48, 76
16, 146440, Note_on_c, 12, 60, 76
16, 146475, Note_on_c, 12, 48, 0
16, 146475, Note_on_c, 12, 60, 0
16, 146480, Note_on_c, 12, 60, 76
16, 146480, Note_on_c, 12, 48, 76
16, 146515, Note_on_c, 12, 60, 0
16, 146515, Note_on_c, 12, 48, 0
16, 146520, Note_on_c, 12, 60, 76
16, 146520, Note_on_c, 12, 48, 76
16, 146555, Note_on_c, 12, 60, 0
16, 146555, Note_on_c, 12, 48, 0
16, 146560, Note_on_c, 12, 60, 76
16, 146560, Note_on_c, 12, 48, 76
16, 146595, Note_on_c, 12, 60, 0
16, 146595, Note_on_c, 12, 48, 0
16, 146600, Note_on_c, 12, 48, 76
16, 146600, Note_on_c, 12, 60, 76
16, 146635, Note_on_c, 12, 48, 0
16, 146635, Note_on_c, 12, 60, 0
16, 146640, Note_on_c, 12, 48, 76
16, 146640, Note_on_c, 12, 60, 76
16, 146675, Note_on_c, 12, 48, 0
16, 146675, Note_on_c, 12, 60, 0
16, 146680, Note_on_c, 12, 48, 76
16, 146680, Note_on_c, 12, 60, 76
16, 146715, Note_on_c, 12, 48, 0
16, 146715, Note_on_c, 12, 60, 0
16, 146720, Note_on_c, 12, 60, 76
16, 146720, Note_on_c, 12, 48, 76
16, 146755, Note_on_c, 12, 60, 0
16, 146755, Note_on_c, 12, 48, 0
16, 146760, Note_on_c, 12, 48, 76
16, 146760, Note_on_c, 12, 60, 76
16, 146795, Note_on_c, 12, 48, 0
16, 146795, Note_on_c, 12, 60, 0
16, 146800, Note_on_c, 12, 48, 76
16, 146800, Note_on_c, 12, 60, 76
16, 146835, Note_on_c, 12, 48, 0
16, 146835, Note_on_c, 12, 60, 0
16, 146840, Note_on_c, 12, 48, 76
16, 146840, Note_on_c, 12, 60, 76
16, 146875, Note_on_c, 12, 48, 0
16, 146875, Note_on_c, 12, 60, 0
16, 146880, Note_on_c, 12, 48, 76
16, 146880, Note_on_c, 12, 60, 76
16, 146915, Note_on_c, 12, 48, 0
16, 146915, Note_on_c, 12, 60, 0
16, 146920, Note_on_c, 12, 48, 76
16, 146920, Note_on_c, 12, 60, 76
16, 146955, Note_on_c, 12, 48, 0
16, 146955, Note_on_c, 12, 60, 0
16, 146960, Note_on_c, 12, 48, 76
16, 146960, Note_on_c, 12, 60, 76
16, 146995, Note_on_c, 12, 48, 0
16, 146995, Note_on_c, 12, 60, 0
16, 147000, Note_on_c, 12, 48, 76
16, 147000, Note_on_c, 12, 60, 76
16, 147035, Note_on_c, 12, 48, 0
16, 147035, Note_on_c, 12, 60, 0
16, 147040, Note_on_c, 12, 48, 76
16, 147040, Note_on_c, 12, 60, 76
16, 147075, Note_on_c, 12, 48, 0
16, 147075, Note_on_c, 12, 60, 0
16, 147080, Note_on_c, 12, 48, 76
16, 147080, Note_on_c, 12, 60, 76
16, 147115, Note_on_c, 12, 48, 0
16, 147115, Note_on_c, 12, 60, 0
16, 147120, Note_on_c, 12, 60, 76
16, 147120, Note_on_c, 12, 48, 76
16, 147155, Note_on_c, 12, 60, 0
16, 147155, Note_on_c, 12, 48, 0
16, 147160, Note_on_c, 12, 48, 76
16, 147160, Note_on_c, 12, 60, 76
16, 147195, Note_on_c, 12, 48, 0
16, 147195, Note_on_c, 12, 60, 0
16, 147200, Note_on_c, 12, 48, 76
16, 147200, Note_on_c, 12, 60, 76
16, 147235, Note_on_c, 12, 48, 0
16, 147235, Note_on_c, 12, 60, 0
16, 147240, Note_on_c, 12, 60, 76
16, 147240, Note_on_c, 12, 48, 76
16, 147275, Note_on_c, 12, 60, 0
16, 147275, Note_on_c, 12, 48, 0
16, 147280, Note_on_c, 12, 48, 76
16, 147280, Note_on_c, 12, 60, 76
16, 147315, Note_on_c, 12, 48, 0
16, 147315, Note_on_c, 12, 60, 0
16, 147320, Note_on_c, 12, 60, 76
16, 147320, Note_on_c, 12, 48, 76
16, 147355, Note_on_c, 12, 60, 0
16, 147355, Note_on_c, 12, 48, 0
16, 147360, Note_on_c, 12, 48, 76
16, 147360, Note_on_c, 12, 60, 76
16, 147395, Note_on_c, 12, 48, 0
16, 147395, Note_on_c, 12, 60, 0
16, 147400, Note_on_c, 12, 48, 76
16, 147400, Note_on_c, 12, 60, 76
16, 147435, Note_on_c, 12, 48, 0
16, 147435, Note_on_c, 12, 60, 0
16, 147440, Note_on_c, 12, 48, 76
16, 147440, Note_on_c, 12, 60, 76
16, 147475, Note_on_c, 12, 48, 0
16, 147475, Note_on_c, 12, 60, 0
16, 147480, Note_on_c, 12, 48, 76
16, 147480, Note_on_c, 12, 60, 76
16, 147515, Note_on_c, 12, 48, 0
16, 147515, Note_on_c, 12, 60, 0
16, 147520, Note_on_c, 12, 48, 76
16, 147520, Note_on_c, 12, 60, 76
16, 147555, Note_on_c, 12, 48, 0
16, 147555, Note_on_c, 12, 60, 0
16, 147560, Note_on_c, 12, 48, 76
16, 147560, Note_on_c, 12, 60, 76
16, 147595, Note_on_c, 12, 48, 0
16, 147595, Note_on_c, 12, 60, 0
16, 147600, Note_on_c, 12, 53, 84
16, 147839, Note_on_c, 12, 53, 0
16, 151020, Note_on_c, 12, 48, 52
16, 151079, Note_on_c, 12, 48, 0
16, 151080, Note_on_c, 12, 50, 52
16, 151139, Note_on_c, 12, 50, 0
16, 151140, Note_on_c, 12, 52, 52
16, 151199, Note_on_c, 12, 52, 0
16, 151200, Note_on_c, 12, 53, 52
16, 151259, Note_on_c, 12, 53, 0
16, 151260, Note_on_c, 12, 55, 52
16, 151319, Note_on_c, 12, 55, 0
16, 151320, Note_on_c, 12, 57, 52
16, 151379, Note_on_c, 12, 57, 0
16, 151380, Note_on_c, 12, 58, 53
16, 151439, Note_on_c, 12, 58, 0
16, 151440, Note_on_c, 12, 60, 53
16, 151499, Note_on_c, 12, 60, 0
16, 151500, Note_on_c, 12, 58, 53
16, 151559, Note_on_c, 12, 58, 0
16, 151560, Note_on_c, 12, 57, 54
16, 151619, Note_on_c, 12, 57, 0
16, 151620, Note_on_c, 12, 58, 54
16, 151679, Note_on_c, 12, 58, 0
16, 151680, Note_on_c, 12, 57, 54
16, 151739, Note_on_c, 12, 57, 0
16, 151740, Note_on_c, 12, 55, 55
16, 151799, Note_on_c, 12, 55, 0
16, 151800, Note_on_c, 12, 54, 55
16, 151859, Note_on_c, 12, 54, 0
16, 151860, Note_on_c, 12, 52, 55
16, 151915, Note_on_c, 12, 52, 0
16, 151920, Note_on_c, 12, 50, 56
16, 151979, Note_on_c, 12, 50, 0
16, 151980, Note_on_c, 12, 52, 56
16, 152039, Note_on_c, 12, 52, 0
16, 152040, Note_on_c, 12, 50, 56
16, 152099, Note_on_c, 12, 50, 0
16, 152100, Note_on_c, 12, 49, 57
16, 152159, Note_on_c, 12, 49, 0
16, 152160, Note_on_c, 12, 50, 57
16, 152219, Note_on_c, 12, 50, 0
16, 152220, Note_on_c, 12, 52, 57
16, 152279, Note_on_c, 12, 52, 0
16, 152280, Note_on_c, 12, 54, 58
16, 152339, Note_on_c, 12, 54, 0
16, 152340, Note_on_c, 12, 55, 58
16, 152399, Note_on_c, 12, 55, 0
16, 152400, Note_on_c, 12, 57, 58
16, 152459, Note_on_c, 12, 57, 0
16, 152460, Note_on_c, 12, 55, 59
16, 152519, Note_on_c, 12, 55, 0
16, 152520, Note_on_c, 12, 57, 59
16, 152579, Note_on_c, 12, 57, 0
16, 152580, Note_on_c, 12, 54, 59
16, 152635, Note_on_c, 12, 54, 0
16, 152640, Note_on_c, 12, 55, 60
16, 152699, Note_on_c, 12, 55, 0
16, 152700, Note_on_c, 12, 54, 60
16, 152759, Note_on_c, 12, 54, 0
16, 152760, Note_on_c, 12, 55, 60
16, 152819, Note_on_c, 12, 55, 0
16, 152820, Note_on_c, 12, 57, 61
16, 152879, Note_on_c, 12, 57, 0
16, 152880, Note_on_c, 12, 55, 61
16, 152939, Note_on_c, 12, 55, 0
16, 152940, Note_on_c, 12, 57, 61
16, 152999, Note_on_c, 12, 57, 0
16, 153000, Note_on_c, 12, 58, 62
16, 153059, Note_on_c, 12, 58, 0
16, 153060, Note_on_c, 12, 57, 62
16, 153119, Note_on_c, 12, 57, 0
16, 153120, Note_on_c, 12, 58, 62
16, 153179, Note_on_c, 12, 58, 0
16, 153180, Note_on_c, 12, 59, 63
16, 153239, Note_on_c, 12, 59, 0
16, 153240, Note_on_c, 12, 57, 63
16, 153299, Note_on_c, 12, 57, 0
16, 153300, Note_on_c, 12, 59, 63
16, 153355, Note_on_c, 12, 59, 0
16, 153360, Note_on_c, 12, 60, 64
16, 153419, Note_on_c, 12, 60, 0
16, 153420, Note_on_c, 12, 62, 64
16, 153479, Note_on_c, 12, 62, 0
16, 153480, Note_on_c, 12, 60, 64
16, 153539, Note_on_c, 12, 60, 0
16, 153540, Note_on_c, 12, 59, 65
16, 153599, Note_on_c, 12, 59, 0
16, 153600, Note_on_c, 12, 60, 65
16, 153659, Note_on_c, 12, 60, 0
16, 153660, Note_on_c, 12, 62, 65
16, 153719, Note_on_c, 12, 62, 0
16, 153720, Note_on_c, 12, 64, 66
16, 153779, Note_on_c, 12, 64, 0
16, 153780, Note_on_c, 12, 65, 66
16, 153839, Note_on_c, 12, 65, 0
16, 153840, Note_on_c, 12, 67, 66
16, 153899, Note_on_c, 12, 67, 0
16, 153900, Note_on_c, 12, 65, 67
16, 153959, Note_on_c, 12, 65, 0
16, 153960, Note_on_c, 12, 67, 67
16, 154019, Note_on_c, 12, 67, 0
16, 154020, Note_on_c, 12, 64, 67
16, 154075, Note_on_c, 12, 64, 0
16, 154080, Note_on_c, 12, 65, 68
16, 154135, Note_on_c, 12, 65, 0
16, 154140, Note_on_c, 12, 72, 68
16, 154195, Note_on_c, 12, 72, 0
16, 154200, Note_on_c, 12, 72, 68
16, 154255, Note_on_c, 12, 72, 0
16, 154260, Note_on_c, 12, 72, 69
16, 154315, Note_on_c, 12, 72, 0
16, 154320, Note_on_c, 12, 72, 69
16, 154375, Note_on_c, 12, 72, 0
16, 154380, Note_on_c, 12, 72, 69
16, 154435, Note_on_c, 12, 72, 0
16, 154440, Note_on_c, 12, 72, 70
16, 154495, Note_on_c, 12, 72, 0
16, 154500, Note_on_c, 12, 69, 70
16, 154555, Note_on_c, 12, 69, 0
16, 154560, Note_on_c, 12, 69, 70
16, 154615, Note_on_c, 12, 69, 0
16, 154620, Note_on_c, 12, 69, 71
16, 154675, Note_on_c, 12, 69, 0
16, 154680, Note_on_c, 12, 69, 71
16, 154735, Note_on_c, 12, 69, 0
16, 154740, Note_on_c, 12, 69, 71
16, 154795, Note_on_c, 12, 69, 0
16, 154800, Note_on_c, 12, 69, 72
16, 154855, Note_on_c, 12, 69, 0
16, 154860, Note_on_c, 12, 66, 72
16, 154915, Note_on_c, 12, 66, 0
16, 154920, Note_on_c, 12, 66, 72
16, 154975, Note_on_c, 12, 66, 0
16, 154980, Note_on_c, 12, 66, 73
16, 155035, Note_on_c, 12, 66, 0
16, 155040, Note_on_c, 12, 66, 73
16, 155095, Note_on_c, 12, 66, 0
16, 155100, Note_on_c, 12, 66, 73
16, 155155, Note_on_c, 12, 66, 0
16, 155160, Note_on_c, 12, 66, 74
16, 155215, Note_on_c, 12, 66, 0
16, 155220, Note_on_c, 12, 62, 74
16, 155275, Note_on_c, 12, 62, 0
16, 155280, Note_on_c, 12, 62, 74
16, 155335, Note_on_c, 12, 62, 0
16, 155340, Note_on_c, 12, 62, 75
16, 155395, Note_on_c, 12, 62, 0
16, 155400, Note_on_c, 12, 62, 75
16, 155455, Note_on_c, 12, 62, 0
16, 155460, Note_on_c, 12, 62, 75
16, 155515, Note_on_c, 12, 62, 0
16, 155520, Note_on_c, 12, 62, 76
16, 155575, Note_on_c, 12, 62, 0
16, 155580, Note_on_c, 12, 70, 76
16, 155635, Note_on_c, 12, 70, 0
16, 155640, Note_on_c, 12, 70, 76
16, 155695, Note_on_c, 12, 70, 0
16, 155700, Note_on_c, 12, 70, 77
16, 155755, Note_on_c, 12, 70, 0
16, 155760, Note_on_c, 12, 70, 77
16, 155815, Note_on_c, 12, 70, 0
16, 155820, Note_on_c, 12, 70, 77
16, 155875, Note_on_c, 12, 70, 0
16, 155880, Note_on_c, 12, 70, 78
16, 155935, Note_on_c, 12, 70, 0
16, 155940, Note_on_c, 12, 67, 78
16, 155995, Note_on_c, 12, 67, 0
16, 156000, Note_on_c, 12, 67, 78
16, 156055, Note_on_c, 12, 67, 0
16, 156060, Note_on_c, 12, 67, 79
16, 156115, Note_on_c, 12, 67, 0
16, 156120, Note_on_c, 12, 67, 79
16, 156175, Note_on_c, 12, 67, 0
16, 156180, Note_on_c, 12, 67, 79
16, 156235, Note_on_c, 12, 67, 0
16, 156240, Note_on_c, 12, 67, 80
16, 156295, Note_on_c, 12, 67, 0
16, 156300, Note_on_c, 12, 64, 80
16, 156355, Note_on_c, 12, 64, 0
16, 156360, Note_on_c, 12, 64, 80
16, 156415, Note_on_c, 12, 64, 0
16, 156420, Note_on_c, 12, 64, 81
16, 156475, Note_on_c, 12, 64, 0
16, 156480, Note_on_c, 12, 64, 81
16, 156535, Note_on_c, 12, 64, 0
16, 156540, Note_on_c, 12, 64, 81
16, 156595, Note_on_c, 12, 64, 0
16, 156600, Note_on_c, 12, 64, 82
16, 156655, Note_on_c, 12, 64, 0
16, 156660, Note_on_c, 12, 62, 82
16, 156715, Note_on_c, 12, 62, 0
16, 156720, Note_on_c, 12, 60, 82
16, 156775, Note_on_c, 12, 60, 0
16, 156780, Note_on_c, 12, 58, 83
16, 156835, Note_on_c, 12, 58, 0
16, 156840, Note_on_c, 12, 57, 83
16, 156895, Note_on_c, 12, 57, 0
16, 156900, Note_on_c, 12, 55, 83
16, 156955, Note_on_c, 12, 55, 0
16, 156960, Note_on_c, 12, 53, 84
16, 156995, Note_on_c, 12, 53, 0
16, 157000, Note_on_c, 12, 65, 84
16, 157035, Note_on_c, 12, 65, 0
16, 157040, Note_on_c, 12, 65, 84
16, 157075, Note_on_c, 12, 65, 0
16, 157080, Note_on_c, 12, 65, 84
16, 157115, Note_on_c, 12, 65, 0
16, 157120, Note_on_c, 12, 65, 84
16, 157155, Note_on_c, 12, 65, 0
16, 157160, Note_on_c, 12, 65, 84
16, 157195, Note_on_c, 12, 65, 0
16, 157200, Note_on_c, 12, 65, 84
16, 157235, Note_on_c, 12, 65, 0
16, 157240, Note_on_c, 12, 65, 84
16, 157275, Note_on_c, 12, 65, 0
16, 157280, Note_on_c, 12, 65, 84
16, 157315, Note_on_c, 12, 65, 0
16, 157320, Note_on_c, 12, 65, 84
16, 157355, Note_on_c, 12, 65, 0
16, 157360, Note_on_c, 12, 65, 84
16, 157395, Note_on_c, 12, 65, 0
16, 157400, Note_on_c, 12, 65, 84
16, 157435, Note_on_c, 12, 65, 0
16, 157440, Note_on_c, 12, 65, 84
16, 157475, Note_on_c, 12, 65, 0
16, 157480, Note_on_c, 12, 65, 84
16, 157515, Note_on_c, 12, 65, 0
16, 157520, Note_on_c, 12, 65, 84
16, 157555, Note_on_c, 12, 65, 0
16, 157560, Note_on_c, 12, 65, 84
16, 157595, Note_on_c, 12, 65, 0
16, 157600, Note_on_c, 12, 65, 84
16, 157635, Note_on_c, 12, 65, 0
16, 157640, Note_on_c, 12, 65, 84
16, 157675, Note_on_c, 12, 65, 0
16, 157680, Note_on_c, 12, 65, 84
16, 157715, Note_on_c, 12, 65, 0
16, 157720, Note_on_c, 12, 65, 84
16, 157755, Note_on_c, 12, 65, 0
16, 157760, Note_on_c, 12, 65, 84
16, 157795, Note_on_c, 12, 65, 0
16, 157800, Note_on_c, 12, 65, 84
16, 157835, Note_on_c, 12, 65, 0
16, 157840, Note_on_c, 12, 65, 84
16, 157875, Note_on_c, 12, 65, 0
16, 157880, Note_on_c, 12, 65, 84
16, 157915, Note_on_c, 12, 65, 0
16, 157920, Note_on_c, 12, 65, 84
16, 157955, Note_on_c, 12, 65, 0
16, 157960, Note_on_c, 12, 65, 84
16, 157995, Note_on_c, 12, 65, 0
16, 158000, Note_on_c, 12, 65, 84
16, 158035, Note_on_c, 12, 65, 0
16, 158040, Note_on_c, 12, 65, 84
16, 158075, Note_on_c, 12, 65, 0
16, 158080, Note_on_c, 12, 65, 84
16, 158115, Note_on_c, 12, 65, 0
16, 158120, Note_on_c, 12, 65, 84
16, 158155, Note_on_c, 12, 65, 0
16, 158160, Note_on_c, 12, 65, 84
16, 158195, Note_on_c, 12, 65, 0
16, 158200, Note_on_c, 12, 65, 84
16, 158235, Note_on_c, 12, 65, 0
16, 158240, Note_on_c, 12, 65, 84
16, 158275, Note_on_c, 12, 65, 0
16, 158280, Note_on_c, 12, 65, 84
16, 158315, Note_on_c, 12, 65, 0
16, 158320, Note_on_c, 12, 65, 84
16, 158355, Note_on_c, 12, 65, 0
16, 158360, Note_on_c, 12, 65, 84
16, 158395, Note_on_c, 12, 65, 0
16, 158400, Note_on_c, 12, 62, 84
16, 158400, Note_on_c, 12, 74, 84
16, 158435, Note_on_c, 12, 62, 0
16, 158435, Note_on_c, 12, 74, 0
16, 158440, Note_on_c, 12, 74, 84
16, 158440, Note_on_c, 12, 62, 84
16, 158475, Note_on_c, 12, 74, 0
16, 158475, Note_on_c, 12, 62, 0
16, 158480, Note_on_c, 12, 74, 84
16, 158480, Note_on_c, 12, 62, 84
16, 158515, Note_on_c, 12, 74, 0
16, 158515, Note_on_c, 12, 62, 0
16, 158520, Note_on_c, 12, 62, 84
16, 158520, Note_on_c, 12, 74, 84
16, 158555, Note_on_c, 12, 62, 0
16, 158555, Note_on_c, 12, 74, 0
16, 158560, Note_on_c, 12, 62, 84
16, 158560, Note_on_c, 12, 74, 84
16, 158595, Note_on_c, 12, 62, 0
16, 158595, Note_on_c, 12, 74, 0
16, 158600, Note_on_c, 12, 62, 84
16, 158600, Note_on_c, 12, 74, 84
16, 158635, Note_on_c, 12, 62, 0
16, 158635, Note_on_c, 12, 74, 0
16, 158640, Note_on_c, 12, 62, 84
16, 158640, Note_on_c, 12, 74, 84
16, 158675, Note_on_c, 12, 62, 0
16, 158675, Note_on_c, 12, 74, 0
16, 158680, Note_on_c, 12, 74, 84
16, 158680, Note_on_c, 12, 62, 84
16, 158715, Note_on_c, 12, 74, 0
16, 158715, Note_on_c, 12, 62, 0
16, 158720, Note_on_c, 12, 74, 84
16, 158720, Note_on_c, 12, 62, 84
16, 158755, Note_on_c, 12, 74, 0
16, 158755, Note_on_c, 12, 62, 0
16, 158760, Note_on_c, 12, 74, 84
16, 158760, Note_on_c, 12, 62, 84
16, 158795, Note_on_c, 12, 74, 0
16, 158795, Note_on_c, 12, 62, 0
16, 158800, Note_on_c, 12, 62, 84
16, 158800, Note_on_c, 12, 74, 84
16, 158835, Note_on_c, 12, 62, 0
16, 158835, Note_on_c, 12, 74, 0
16, 158840, Note_on_c, 12, 74, 84
16, 158840, Note_on_c, 12, 62, 84
16, 158875, Note_on_c, 12, 74, 0
16, 158875, Note_on_c, 12, 62, 0
16, 158880, Note_on_c, 12, 74, 84
16, 158880, Note_on_c, 12, 62, 84
16, 158915, Note_on_c, 12, 74, 0
16, 158915, Note_on_c, 12, 62, 0
16, 158920, Note_on_c, 12, 74, 84
16, 158920, Note_on_c, 12, 62, 84
16, 158955, Note_on_c, 12, 74, 0
16, 158955, Note_on_c, 12, 62, 0
16, 158960, Note_on_c, 12, 62, 84
16, 158960, Note_on_c, 12, 74, 84
16, 158995, Note_on_c, 12, 62, 0
16, 158995, Note_on_c, 12, 74, 0
16, 159000, Note_on_c, 12, 74, 84
16, 159000, Note_on_c, 12, 62, 84
16, 159035, Note_on_c, 12, 74, 0
16, 159035, Note_on_c, 12, 62, 0
16, 159040, Note_on_c, 12, 74, 84
16, 159040, Note_on_c, 12, 62, 84
16, 159075, Note_on_c, 12, 74, 0
16, 159075, Note_on_c, 12, 62, 0
16, 159080, Note_on_c, 12, 74, 84
16, 159080, Note_on_c, 12, 62, 84
16, 159115, Note_on_c, 12, 74, 0
16, 159115, Note_on_c, 12, 62, 0
16, 159120, Note_on_c, 12, 62, 84
16, 159120, Note_on_c, 12, 74, 84
16, 159155, Note_on_c, 12, 62, 0
16, 159155, Note_on_c, 12, 74, 0
16, 159160, Note_on_c, 12, 74, 84
16, 159160, Note_on_c, 12, 62, 84
16, 159195, Note_on_c, 12, 74, 0
16, 159195, Note_on_c, 12, 62, 0
16, 159200, Note_on_c, 12, 74, 84
16, 159200, Note_on_c, 12, 62, 84
16, 159235, Note_on_c, 12, 74, 0
16, 159235, Note_on_c, 12, 62, 0
16, 159240, Note_on_c, 12, 74, 84
16, 159240, Note_on_c, 12, 62, 84
16, 159275, Note_on_c, 12, 74, 0
16, 159275, Note_on_c, 12, 62, 0
16, 159280, Note_on_c, 12, 74, 84
16, 159280, Note_on_c, 12, 62, 84
16, 159315, Note_on_c, 12, 74, 0
16, 159315, Note_on_c, 12, 62, 0
16, 159320, Note_on_c, 12, 74, 84
16, 159320, Note_on_c, 12, 62, 84
16, 159355, Note_on_c, 12, 74, 0
16, 159355, Note_on_c, 12, 62, 0
16, 159360, Note_on_c, 12, 74, 84
16, 159360, Note_on_c, 12, 62, 84
16, 159395, Note_on_c, 12, 74, 0
16, 159395, Note_on_c, 12, 62, 0
16, 159400, Note_on_c, 12, 74, 84
16, 159400, Note_on_c, 12, 62, 84
16, 159435, Note_on_c, 12, 74, 0
16, 159435, Note_on_c, 12, 62, 0
16, 159440, Note_on_c, 12, 62, 84
16, 159440, Note_on_c, 12, 74, 84
16, 159475, Note_on_c, 12, 62, 0
16, 159475, Note_on_c, 12, 74, 0
16, 159480, Note_on_c, 12, 74, 84
16, 159480, Note_on_c, 12, 62, 84
16, 159515, Note_on_c, 12, 74, 0
16, 159515, Note_on_c, 12, 62, 0
16, 159520, Note_on_c, 12, 62, 84
16, 159520, Note_on_c, 12, 74, 84
16, 159555, Note_on_c, 12, 62, 0
16, 159555, Note_on_c, 12, 74, 0
16, 159560, Note_on_c, 12, 74, 84
16, 159560, Note_on_c, 12, 62, 84
16, 159595, Note_on_c, 12, 74, 0
16, 159595, Note_on_c, 12, 62, 0
16, 159600, Note_on_c, 12, 62, 84
16, 159600, Note_on_c, 12, 74, 84
16, 159635, Note_on_c, 12, 62, 0
16, 159635, Note_on_c, 12, 74, 0
16, 159640, Note_on_c, 12, 62, 84
16, 159640, Note_on_c, 12, 74, 84
16, 159675, Note_on_c, 12, 62, 0
16, 159675, Note_on_c, 12, 74, 0
16, 159680, Note_on_c, 12, 74, 84
16, 159680, Note_on_c, 12, 62, 84
16, 159715, Note_on_c, 12, 74, 0
16, 159715, Note_on_c, 12, 62, 0
16, 159720, Note_on_c, 12, 74, 84
16, 159720, Note_on_c, 12, 62, 84
16, 159755, Note_on_c, 12, 74, 0
16, 159755, Note_on_c, 12, 62, 0
16, 159760, Note_on_c, 12, 62, 84
16, 159760, Note_on_c, 12, 74, 84
16, 159795, Note_on_c, 12, 62, 0
16, 159795, Note_on_c, 12, 74, 0
16, 159800, Note_on_c, 12, 62, 84
16, 159800, Note_on_c, 12, 74, 84
16, 159835, Note_on_c, 12, 62, 0
16, 159835, Note_on_c, 12, 74, 0
16, 159840, Note_on_c, 12, 74, 84
16, 159875, Note_on_c, 12, 74, 0
16, 159880, Note_on_c, 12, 74, 84
16, 159915, Note_on_c, 12, 74, 0
16, 159920, Note_on_c, 12, 74, 84
16, 159955, Note_on_c, 12, 74, 0
16, 159960, Note_on_c, 12, 77, 84
16, 159995, Note_on_c, 12, 77, 0
16, 160000, Note_on_c, 12, 77, 84
16, 160035, Note_on_c, 12, 77, 0
16, 160040, Note_on_c, 12, 77, 84
16, 160075, Note_on_c, 12, 77, 0
16, 160080, Note_on_c, 12, 77, 84
16, 160115, Note_on_c, 12, 77, 0
16, 160120, Note_on_c, 12, 77, 84
16, 160155, Note_on_c, 12, 77, 0
16, 160160, Note_on_c, 12, 77, 84
16, 160195, Note_on_c, 12, 77, 0
16, 160200, Note_on_c, 12, 77, 84
16, 160235, Note_on_c, 12, 77, 0
16, 160240, Note_on_c, 12, 77, 84
16, 160275, Note_on_c, 12, 77, 0
16, 160280, Note_on_c, 12, 77, 84
16, 160315, Note_on_c, 12, 77, 0
16, 160320, Note_on_c, 12, 77, 84
16, 160355, Note_on_c, 12, 77, 0
16, 160360, Note_on_c, 12, 77, 84
16, 160395, Note_on_c, 12, 77, 0
16, 160400, Note_on_c, 12, 77, 84
16, 160435, Note_on_c, 12, 77, 0
16, 160440, Note_on_c, 12, 77, 84
16, 160475, Note_on_c, 12, 77, 0
16, 160480, Note_on_c, 12, 77, 84
16, 160515, Note_on_c, 12, 77, 0
16, 160520, Note_on_c, 12, 77, 84
16, 160555, Note_on_c, 12, 77, 0
16, 160560, Note_on_c, 12, 77, 84
16, 160595, Note_on_c, 12, 77, 0
16, 160600, Note_on_c, 12, 77, 84
16, 160635, Note_on_c, 12, 77, 0
16, 160640, Note_on_c, 12, 77, 84
16, 160675, Note_on_c, 12, 77, 0
16, 160680, Note_on_c, 12, 77, 84
16, 160715, Note_on_c, 12, 77, 0
16, 160720, Note_on_c, 12, 77, 84
16, 160755, Note_on_c, 12, 77, 0
16, 160760, Note_on_c, 12, 77, 84
16, 160795, Note_on_c, 12, 77, 0
16, 160800, Note_on_c, 12, 77, 84
16, 160835, Note_on_c, 12, 77, 0
16, 160840, Note_on_c, 12, 77, 84
16, 160875, Note_on_c, 12, 77, 0
16, 160880, Note_on_c, 12, 77, 84
16, 160915, Note_on_c, 12, 77, 0
16, 160920, Note_on_c, 12, 77, 84
16, 160955, Note_on_c, 12, 77, 0
16, 160960, Note_on_c, 12, 77, 84
16, 160995, Note_on_c, 12, 77, 0
16, 161000, Note_on_c, 12, 77, 84
16, 161035, Note_on_c, 12, 77, 0
16, 161040, Note_on_c, 12, 77, 84
16, 161075, Note_on_c, 12, 77, 0
16, 161080, Note_on_c, 12, 77, 84
16, 161115, Note_on_c, 12, 77, 0
16, 161120, Note_on_c, 12, 77, 84
16, 161155, Note_on_c, 12, 77, 0
16, 161160, Note_on_c, 12, 77, 84
16, 161195, Note_on_c, 12, 77, 0
16, 161200, Note_on_c, 12, 77, 84
16, 161235, Note_on_c, 12, 77, 0
16, 161240, Note_on_c, 12, 77, 84
16, 161275, Note_on_c, 12, 77, 0
16, 161280, Note_on_c, 12, 77, 84
16, 161315, Note_on_c, 12, 77, 0
16, 161320, Note_on_c, 12, 77, 84
16, 161355, Note_on_c, 12, 77, 0
16, 161360, Note_on_c, 12, 77, 84
16, 161395, Note_on_c, 12, 77, 0
16, 161400, Note_on_c, 12, 77, 84
16, 161435, Note_on_c, 12, 77, 0
16, 161440, Note_on_c, 12, 77, 84
16, 161475, Note_on_c, 12, 77, 0
16, 161480, Note_on_c, 12, 77, 84
16, 161515, Note_on_c, 12, 77, 0
16, 161520, Note_on_c, 12, 77, 84
16, 161555, Note_on_c, 12, 77, 0
16, 161560, Note_on_c, 12, 77, 84
16, 161595, Note_on_c, 12, 77, 0
16, 161600, Note_on_c, 12, 77, 84
16, 161635, Note_on_c, 12, 77, 0
16, 161640, Note_on_c, 12, 77, 84
16, 161675, Note_on_c, 12, 77, 0
16, 161680, Note_on_c, 12, 77, 84
16, 161715, Note_on_c, 12, 77, 0
16, 161720, Note_on_c, 12, 77, 84
16, 161755, Note_on_c, 12, 77, 0
16, 161760, Note_on_c, 12, 77, 84
16, 161795, Note_on_c, 12, 77, 0
16, 161800, Note_on_c, 12, 77, 84
16, 161835, Note_on_c, 12, 77, 0
16, 161840, Note_on_c, 12, 77, 84
16, 161875, Note_on_c, 12, 77, 0
16, 161880, Note_on_c, 12, 77, 84
16, 161915, Note_on_c, 12, 77, 0
16, 161920, Note_on_c, 12, 77, 84
16, 161955, Note_on_c, 12, 77, 0
16, 161960, Note_on_c, 12, 77, 84
16, 161995, Note_on_c, 12, 77, 0
16, 162000, Note_on_c, 12, 76, 84
16, 162035, Note_on_c, 12, 76, 0
16, 162040, Note_on_c, 12, 76, 84
16, 162075, Note_on_c, 12, 76, 0
16, 162080, Note_on_c, 12, 76, 84
16, 162115, Note_on_c, 12, 76, 0
16, 162120, Note_on_c, 12, 76, 84
16, 162155, Note_on_c, 12, 76, 0
16, 162160, Note_on_c, 12, 76, 84
16, 162195, Note_on_c, 12, 76, 0
16, 162200, Note_on_c, 12, 76, 84
16, 162235, Note_on_c, 12, 76, 0
16, 162240, Note_on_c, 12, 76, 84
16, 162275, Note_on_c, 12, 76, 0
16, 162280, Note_on_c, 12, 76, 84
16, 162315, Note_on_c, 12, 76, 0
16, 162320, Note_on_c, 12, 76, 84
16, 162355, Note_on_c, 12, 76, 0
16, 162360, Note_on_c, 12, 76, 84
16, 162395, Note_on_c, 12, 76, 0
16, 162400, Note_on_c, 12, 76, 84
16, 162435, Note_on_c, 12, 76, 0
16, 162440, Note_on_c, 12, 76, 84
16, 162475, Note_on_c, 12, 76, 0
16, 162480, Note_on_c, 12, 76, 84
16, 162515, Note_on_c, 12, 76, 0
16, 162520, Note_on_c, 12, 76, 84
16, 162555, Note_on_c, 12, 76, 0
16, 162560, Note_on_c, 12, 76, 84
16, 162595, Note_on_c, 12, 76, 0
16, 162600, Note_on_c, 12, 76, 84
16, 162635, Note_on_c, 12, 76, 0
16, 162640, Note_on_c, 12, 76, 84
16, 162675, Note_on_c, 12, 76, 0
16, 162680, Note_on_c, 12, 76, 84
16, 162715, Note_on_c, 12, 76, 0
16, 162720, Note_on_c, 12, 75, 84
16, 162755, Note_on_c, 12, 75, 0
16, 162760, Note_on_c, 12, 75, 84
16, 162795, Note_on_c, 12, 75, 0
16, 162800, Note_on_c, 12, 75, 84
16, 162835, Note_on_c, 12, 75, 0
16, 162840, Note_on_c, 12, 75, 84
16, 162875, Note_on_c, 12, 75, 0
16, 162880, Note_on_c, 12, 75, 84
16, 162915, Note_on_c, 12, 75, 0
16, 162920, Note_on_c, 12, 75, 84
16, 162955, Note_on_c, 12, 75, 0
16, 162960, Note_on_c, 12, 75, 84
16, 162995, Note_on_c, 12, 75, 0
16, 163000, Note_on_c, 12, 75, 84
16, 163035, Note_on_c, 12, 75, 0
16, 163040, Note_on_c, 12, 75, 84
16, 163075, Note_on_c, 12, 75, 0
16, 163080, Note_on_c, 12, 75, 84
16, 163115, Note_on_c, 12, 75, 0
16, 163120, Note_on_c, 12, 75, 84
16, 163155, Note_on_c, 12, 75, 0
16, 163160, Note_on_c, 12, 75, 84
16, 163195, Note_on_c, 12, 75, 0
16, 163200, Note_on_c, 12, 75, 84
16, 163235, Note_on_c, 12, 75, 0
16, 163240, Note_on_c, 12, 75, 84
16, 163275, Note_on_c, 12, 75, 0
16, 163280, Note_on_c, 12, 75, 84
16, 163315, Note_on_c, 12, 75, 0
16, 163320, Note_on_c, 12, 75, 84
16, 163355, Note_on_c, 12, 75, 0
16, 163360, Note_on_c, 12, 75, 84
16, 163395, Note_on_c, 12, 75, 0
16, 163400, Note_on_c, 12, 75, 84
16, 163435, Note_on_c, 12, 75, 0
16, 163440, Note_on_c, 12, 60, 84
16, 163475, Note_on_c, 12, 60, 0
16, 163480, Note_on_c, 12, 60, 84
16, 163515, Note_on_c, 12, 60, 0
16, 163520, Note_on_c, 12, 60, 84
16, 163555, Note_on_c, 12, 60, 0
16, 163560, Note_on_c, 12, 60, 84
16, 163595, Note_on_c, 12, 60, 0
16, 163600, Note_on_c, 12, 60, 84
16, 163635, Note_on_c, 12, 60, 0
16, 163640, Note_on_c, 12, 60, 84
16, 163675, Note_on_c, 12, 60, 0
16, 163680, Note_on_c, 12, 60, 84
16, 163715, Note_on_c, 12, 60, 0
16, 163720, Note_on_c, 12, 60, 84
16, 163755, Note_on_c, 12, 60, 0
16, 163760, Note_on_c, 12, 60, 84
16, 163795, Note_on_c, 12, 60, 0
16, 163800, Note_on_c, 12, 60, 84
16, 163835, Note_on_c, 12, 60, 0
16, 163840, Note_on_c, 12, 60, 84
16, 163875, Note_on_c, 12, 60, 0
16, 163880, Note_on_c, 12, 60, 84
16, 163915, Note_on_c, 12, 60, 0
16, 163920, Note_on_c, 12, 60, 84
16, 163955, Note_on_c, 12, 60, 0
16, 163960, Note_on_c, 12, 60, 84
16, 163995, Note_on_c, 12, 60, 0
16, 164000, Note_on_c, 12, 60, 84
16, 164035, Note_on_c, 12, 60, 0
16, 164040, Note_on_c, 12, 60, 84
16, 164075, Note_on_c, 12, 60, 0
16, 164080, Note_on_c, 12, 60, 84
16, 164115, Note_on_c, 12, 60, 0
16, 164120, Note_on_c, 12, 60, 84
16, 164155, Note_on_c, 12, 60, 0
16, 164160, Note_on_c, 12, 58, 84
16, 164195, Note_on_c, 12, 58, 0
16, 164200, Note_on_c, 12, 58, 84
16, 164235, Note_on_c, 12, 58, 0
16, 164240, Note_on_c, 12, 58, 84
16, 164275, Note_on_c, 12, 58, 0
16, 164280, Note_on_c, 12, 58, 84
16, 164315, Note_on_c, 12, 58, 0
16, 164320, Note_on_c, 12, 58, 84
16, 164355, Note_on_c, 12, 58, 0
16, 164360, Note_on_c, 12, 58, 84
16, 164395, Note_on_c, 12, 58, 0
16, 164400, Note_on_c, 12, 58, 84
16, 164435, Note_on_c, 12, 58, 0
16, 164440, Note_on_c, 12, 58, 84
16, 164475, Note_on_c, 12, 58, 0
16, 164480, Note_on_c, 12, 58, 84
16, 164515, Note_on_c, 12, 58, 0
16, 164520, Note_on_c, 12, 65, 84
16, 164555, Note_on_c, 12, 65, 0
16, 164560, Note_on_c, 12, 65, 84
16, 164595, Note_on_c, 12, 65, 0
16, 164600, Note_on_c, 12, 65, 84
16, 164635, Note_on_c, 12, 65, 0
16, 164640, Note_on_c, 12, 65, 84
16, 164675, Note_on_c, 12, 65, 0
16, 164680, Note_on_c, 12, 65, 84
16, 164715, Note_on_c, 12, 65, 0
16, 164720, Note_on_c, 12, 65, 84
16, 164755, Note_on_c, 12, 65, 0
16, 164760, Note_on_c, 12, 65, 84
16, 164795, Note_on_c, 12, 65, 0
16, 164800, Note_on_c, 12, 65, 84
16, 164835, Note_on_c, 12, 65, 0
16, 164840, Note_on_c, 12, 65, 84
16, 164875, Note_on_c, 12, 65, 0
16, 164880, Note_on_c, 12, 62, 84
16, 164915, Note_on_c, 12, 62, 0
16, 164920, Note_on_c, 12, 62, 84
16, 164955, Note_on_c, 12, 62, 0
16, 164960, Note_on_c, 12, 62, 84
16, 164995, Note_on_c, 12, 62, 0
16, 165000, Note_on_c, 12, 62, 84
16, 165035, Note_on_c, 12, 62, 0
16, 165040, Note_on_c, 12, 62, 84
16, 165075, Note_on_c, 12, 62, 0
16, 165080, Note_on_c, 12, 62, 84
16, 165115, Note_on_c, 12, 62, 0
16, 165120, Note_on_c, 12, 62, 84
16, 165155, Note_on_c, 12, 62, 0
16, 165160, Note_on_c, 12, 62, 84
16, 165195, Note_on_c, 12, 62, 0
16, 165200, Note_on_c, 12, 62, 84
16, 165235, Note_on_c, 12, 62, 0
16, 165240, Note_on_c, 12, 74, 84
16, 165275, Note_on_c, 12, 74, 0
16, 165280, Note_on_c, 12, 74, 84
16, 165315, Note_on_c, 12, 74, 0
16, 165320, Note_on_c, 12, 74, 84
16, 165355, Note_on_c, 12, 74, 0
16, 165360, Note_on_c, 12, 74, 84
16, 165395, Note_on_c, 12, 74, 0
16, 165400, Note_on_c, 12, 74, 84
16, 165435, Note_on_c, 12, 74, 0
16, 165440, Note_on_c, 12, 74, 84
16, 165475, Note_on_c, 12, 74, 0
16, 165480, Note_on_c, 12, 74, 84
16, 165515, Note_on_c, 12, 74, 0
16, 165520, Note_on_c, 12, 74, 84
16, 165555, Note_on_c, 12, 74, 0
16, 165560, Note_on_c, 12, 74, 84
16, 165595, Note_on_c, 12, 74, 0
16, 165600, Note_on_c, 12, 70, 84
16, 165635, Note_on_c, 12, 70, 0
16, 165640, Note_on_c, 12, 70, 84
16, 165675, Note_on_c, 12, 70, 0
16, 165680, Note_on_c, 12, 70, 83
16, 165715, Note_on_c, 12, 70, 0
16, 165720, Note_on_c, 12, 70, 82
16, 165755, Note_on_c, 12, 70, 0
16, 165760, Note_on_c, 12, 70, 81
16, 165795, Note_on_c, 12, 70, 0
16, 165800, Note_on_c, 12, 70, 80
16, 165835, Note_on_c, 12, 70, 0
16, 165840, Note_on_c, 12, 70, 79
16, 165875, Note_on_c, 12, 70, 0
16, 165880, Note_on_c, 12, 70, 78
16, 165915, Note_on_c, 12, 70, 0
16, 165920, Note_on_c, 12, 70, 77
16, 165955, Note_on_c, 12, 70, 0
16, 165960, Note_on_c, 12, 70, 76
16, 165995, Note_on_c, 12, 70, 0
16, 166000, Note_on_c, 12, 70, 76
16, 166035, Note_on_c, 12, 70, 0
16, 166040, Note_on_c, 12, 70, 75
16, 166075, Note_on_c, 12, 70, 0
16, 166080, Note_on_c, 12, 70, 74
16, 166115, Note_on_c, 12, 70, 0
16, 166120, Note_on_c, 12, 70, 73
16, 166155, Note_on_c, 12, 70, 0
16, 166160, Note_on_c, 12, 70, 72
16, 166195, Note_on_c, 12, 70, 0
16, 166200, Note_on_c, 12, 70, 71
16, 166235, Note_on_c, 12, 70, 0
16, 166240, Note_on_c, 12, 70, 70
16, 166275, Note_on_c, 12, 70, 0
16, 166280, Note_on_c, 12, 70, 69
16, 166315, Note_on_c, 12, 70, 0
16, 166320, Note_on_c, 12, 67, 68
16, 166355, Note_on_c, 12, 67, 0
16, 166360, Note_on_c, 12, 67, 68
16, 166395, Note_on_c, 12, 67, 0
16, 166400, Note_on_c, 12, 67, 67
16, 166435, Note_on_c, 12, 67, 0
16, 166440, Note_on_c, 12, 67, 66
16, 166475, Note_on_c, 12, 67, 0
16, 166480, Note_on_c, 12, 67, 65
16, 166515, Note_on_c, 12, 67, 0
16, 166520, Note_on_c, 12, 67, 64
16, 166555, Note_on_c, 12, 67, 0
16, 166560, Note_on_c, 12, 67, 63
16, 166595, Note_on_c, 12, 67, 0
16, 166600, Note_on_c, 12, 67, 62
16, 166635, Note_on_c, 12, 67, 0
16, 166640, Note_on_c, 12, 67, 61
16, 166675, Note_on_c, 12, 67, 0
16, 166680, Note_on_c, 12, 67, 60
16, 166715, Note_on_c, 12, 67, 0
16, 166720, Note_on_c, 12, 67, 60
16, 166755, Note_on_c, 12, 67, 0
16, 166760, Note_on_c, 12, 67, 59
16, 166795, Note_on_c, 12, 67, 0
16, 166800, Note_on_c, 12, 67, 58
16, 166835, Note_on_c, 12, 67, 0
16, 166840, Note_on_c, 12, 67, 57
16, 166875, Note_on_c, 12, 67, 0
16, 166880, Note_on_c, 12, 67, 56
16, 166915, Note_on_c, 12, 67, 0
16, 166920, Note_on_c, 12, 67, 55
16, 166955, Note_on_c, 12, 67, 0
16, 166960, Note_on_c, 12, 67, 54
16, 166995, Note_on_c, 12, 67, 0
16, 167000, Note_on_c, 12, 67, 53
16, 167035, Note_on_c, 12, 67, 0
16, 167040, Note_on_c, 12, 67, 52
16, 167075, Note_on_c, 12, 67, 0
16, 167080, Note_on_c, 12, 67, 52
16, 167115, Note_on_c, 12, 67, 0
16, 167120, Note_on_c, 12, 67, 52
16, 167155, Note_on_c, 12, 67, 0
16, 167160, Note_on_c, 12, 67, 52
16, 167195, Note_on_c, 12, 67, 0
16, 167200, Note_on_c, 12, 67, 52
16, 167235, Note_on_c, 12, 67, 0
16, 167240, Note_on_c, 12, 67, 52
16, 167275, Note_on_c, 12, 67, 0
16, 167280, Note_on_c, 12, 67, 52
16, 167315, Note_on_c, 12, 67, 0
16, 167320, Note_on_c, 12, 67, 52
16, 167355, Note_on_c, 12, 67, 0
16, 167360, Note_on_c, 12, 67, 52
16, 167395, Note_on_c, 12, 67, 0
16, 167400, Note_on_c, 12, 64, 48
16, 167435, Note_on_c, 12, 64, 0
16, 167440, Note_on_c, 12, 64, 48
16, 167475, Note_on_c, 12, 64, 0
16, 167480, Note_on_c, 12, 64, 48
16, 167515, Note_on_c, 12, 64, 0
16, 167520, Note_on_c, 12, 64, 48
16, 167555, Note_on_c, 12, 64, 0
16, 167560, Note_on_c, 12, 64, 48
16, 167595, Note_on_c, 12, 64, 0
16, 167600, Note_on_c, 12, 64, 48
16, 167635, Note_on_c, 12, 64, 0
16, 167640, Note_on_c, 12, 64, 48
16, 167675, Note_on_c, 12, 64, 0
16, 167680, Note_on_c, 12, 64, 48
16, 167715, Note_on_c, 12, 64, 0
16, 167720, Note_on_c, 12, 64, 48
16, 167755, Note_on_c, 12, 64, 0
16, 167760, Note_on_c, 12, 64, 48
16, 167795, Note_on_c, 12, 64, 0
16, 167800, Note_on_c, 12, 64, 48
16, 167835, Note_on_c, 12, 64, 0
16, 167840, Note_on_c, 12, 64, 48
16, 167875, Note_on_c, 12, 64, 0
16, 167880, Note_on_c, 12, 64, 48
16, 167915, Note_on_c, 12, 64, 0
16, 167920, Note_on_c, 12, 64, 48
16, 167955, Note_on_c, 12, 64, 0
16, 167960, Note_on_c, 12, 64, 48
16, 167995, Note_on_c, 12, 64, 0
16, 168000, Note_on_c, 12, 64, 48
16, 168035, Note_on_c, 12, 64, 0
16, 168040, Note_on_c, 12, 64, 48
16, 168075, Note_on_c, 12, 64, 0
16, 168080, Note_on_c, 12, 64, 48
16, 168115, Note_on_c, 12, 64, 0
16, 168120, Note_on_c, 12, 60, 48
16, 168155, Note_on_c, 12, 60, 0
16, 168160, Note_on_c, 12, 60, 48
16, 168195, Note_on_c, 12, 60, 0
16, 168200, Note_on_c, 12, 60, 48
16, 168235, Note_on_c, 12, 60, 0
16, 168240, Note_on_c, 12, 60, 48
16, 168275, Note_on_c, 12, 60, 0
16, 168280, Note_on_c, 12, 60, 48
16, 168315, Note_on_c, 12, 60, 0
16, 168320, Note_on_c, 12, 60, 48
16, 168355, Note_on_c, 12, 60, 0
16, 168360, Note_on_c, 12, 60, 48
16, 168395, Note_on_c, 12, 60, 0
16, 168400, Note_on_c, 12, 60, 48
16, 168435, Note_on_c, 12, 60, 0
16, 168440, Note_on_c, 12, 60, 48
16, 168475, Note_on_c, 12, 60, 0
16, 168480, Note_on_c, 12, 60, 48
16, 168515, Note_on_c, 12, 60, 0
16, 168520, Note_on_c, 12, 60, 48
16, 168555, Note_on_c, 12, 60, 0
16, 168560, Note_on_c, 12, 60, 48
16, 168595, Note_on_c, 12, 60, 0
16, 168600, Note_on_c, 12, 60, 48
16, 168635, Note_on_c, 12, 60, 0
16, 168640, Note_on_c, 12, 60, 48
16, 168675, Note_on_c, 12, 60, 0
16, 168680, Note_on_c, 12, 60, 48
16, 168715, Note_on_c, 12, 60, 0
16, 168720, Note_on_c, 12, 60, 48
16, 168755, Note_on_c, 12, 60, 0
16, 168760, Note_on_c, 12, 60, 48
16, 168795, Note_on_c, 12, 60, 0
16, 168800, Note_on_c, 12, 60, 48
16, 168835, Note_on_c, 12, 60, 0
16, 168840, Note_on_c, 12, 58, 48
16, 168875, Note_on_c, 12, 58, 0
16, 168880, Note_on_c, 12, 58, 48
16, 168915, Note_on_c, 12, 58, 0
16, 168920, Note_on_c, 12, 58, 48
16, 168955, Note_on_c, 12, 58, 0
16, 168960, Note_on_c, 12, 58, 48
16, 168995, Note_on_c, 12, 58, 0
16, 169000, Note_on_c, 12, 58, 48
16, 169035, Note_on_c, 12, 58, 0
16, 169040, Note_on_c, 12, 58, 48
16, 169075, Note_on_c, 12, 58, 0
16, 169080, Note_on_c, 12, 58, 48
16, 169115, Note_on_c, 12, 58, 0
16, 169120, Note_on_c, 12, 58, 48
16, 169155, Note_on_c, 12, 58, 0
16, 169160, Note_on_c, 12, 58, 48
16, 169195, Note_on_c, 12, 58, 0
16, 169200, Note_on_c, 12, 58, 48
16, 169235, Note_on_c, 12, 58, 0
16, 169240, Note_on_c, 12, 58, 48
16, 169275, Note_on_c, 12, 58, 0
16, 169280, Note_on_c, 12, 58, 48
16, 169315, Note_on_c, 12, 58, 0
16, 169320, Note_on_c, 12, 58, 48
16, 169355, Note_on_c, 12, 58, 0
16, 169360, Note_on_c, 12, 58, 48
16, 169395, Note_on_c, 12, 58, 0
16, 169400, Note_on_c, 12, 58, 48
16, 169435, Note_on_c, 12, 58, 0
16, 169440, Note_on_c, 12, 58, 48
16, 169475, Note_on_c, 12, 58, 0
16, 169480, Note_on_c, 12, 58, 48
16, 169515, Note_on_c, 12, 58, 0
16, 169520, Note_on_c, 12, 58, 48
16, 169555, Note_on_c, 12, 58, 0
16, 169560, Note_on_c, 12, 55, 48
16, 169595, Note_on_c, 12, 55, 0
16, 169600, Note_on_c, 12, 55, 48
16, 169635, Note_on_c, 12, 55, 0
16, 169640, Note_on_c, 12, 55, 48
16, 169675, Note_on_c, 12, 55, 0
16, 169680, Note_on_c, 12, 55, 48
16, 169715, Note_on_c, 12, 55, 0
16, 169720, Note_on_c, 12, 55, 48
16, 169755, Note_on_c, 12, 55, 0
16, 169760, Note_on_c, 12, 55, 48
16, 169795, Note_on_c, 12, 55, 0
16, 169800, Note_on_c, 12, 55, 48
16, 169835, Note_on_c, 12, 55, 0
16, 169840, Note_on_c, 12, 55, 48
16, 169875, Note_on_c, 12, 55, 0
16, 169880, Note_on_c, 12, 55, 48
16, 169915, Note_on_c, 12, 55, 0
16, 169920, Note_on_c, 12, 53, 40
16, 170639, Note_on_c, 12, 53, 0
16, 170640, Note_on_c, 12, 55, 40
16, 171351, Note_on_c, 12, 55, 0
16, 171360, Note_on_c, 12, 52, 40
16, 171360, Note_on_c, 12, 55, 40
16, 172079, Note_on_c, 12, 52, 0
16, 172079, Note_on_c, 12, 55, 0
16, 172080, Note_on_c, 12, 53, 40
16, 172080, Note_on_c, 12, 57, 40
16, 172791, Note_on_c, 12, 53, 0
16, 172791, Note_on_c, 12, 57, 0
16, 172798, Control_c, 12, 11, 112
16, 172800, Note_on_c, 12, 57, 52
16, 172800, Note_on_c, 12, 53, 52
16, 172848, Control_c, 12, 11, 113
16, 172896, Control_c, 12, 11, 114
16, 172944, Control_c, 12, 11, 115
16, 172992, Control_c, 12, 11, 116
16, 173040, Control_c, 12, 11, 117
16, 173088, Control_c, 12, 11, 118
16, 173136, Control_c, 12, 11, 119
16, 173159, Note_on_c, 12, 57, 0
16, 173159, Note_on_c, 12, 53, 0
16, 173160, Note_on_c, 12, 58, 52
16, 173160, Note_on_c, 12, 53, 52
16, 173184, Control_c, 12, 11, 120
16, 173232, Control_c, 12, 11, 121
16, 173280, Control_c, 12, 11, 122
16, 173328, Control_c, 12, 11, 123
16, 173376, Control_c, 12, 11, 124
16, 173391, Note_on_c, 12, 58, 0
16, 173391, Note_on_c, 12, 53, 0
16, 173400, Note_on_c, 12, 57, 52
16, 173400, Note_on_c, 12, 53, 52
16, 173424, Control_c, 12, 11, 125
16, 173472, Control_c, 12, 11, 127
16, 173511, Note_on_c, 12, 57, 0
16, 173511, Note_on_c, 12, 53, 0
16, 173520, Note_on_c, 12, 53, 52
16, 173520, Note_on_c, 12, 55, 52
16, 174231, Note_on_c, 12, 53, 0
16, 174231, Note_on_c, 12, 55, 0
16, 174240, Note_on_c, 12, 55, 52
16, 174240, Note_on_c, 12, 52, 52
16, 174951, Note_on_c, 12, 55, 0
16, 174951, Note_on_c, 12, 52, 0
16, 174960, Note_on_c, 12, 57, 52
16, 174960, Note_on_c, 12, 53, 52
16, 175199, Note_on_c, 12, 57, 0
16, 175199, Note_on_c, 12, 53, 0
16, 175680, Note_on_c, 12, 60, 76
16, 176031, Note_on_c, 12, 60, 0
16, 176040, Note_on_c, 12, 62, 76
16, 176159, Note_on_c, 12, 62, 0
16, 176280, Note_on_c, 12, 57, 76
16, 176391, Note_on_c, 12, 57, 0
16, 176400, Note_on_c, 12, 58, 76
16, 176999, Note_on_c, 12, 58, 0
16, 178440, Note_on_c, 12, 57, 48
16, 178440, Note_on_c, 12, 53, 48
16, 178559, Note_on_c, 12, 57, 0
16, 178559, Note_on_c, 12, 53, 0
16, 178560, Note_on_c, 12, 48, 48
16, 178560, Note_on_c, 12, 55, 48
16, 179151, Note_on_c, 12, 48, 0
16, 179151, Note_on_c, 12, 55, 0
16, 179160, Note_on_c, 12, 48, 48
16, 179160, Note_on_c, 12, 55, 48
16, 179271, Note_on_c, 12, 48, 0
16, 179271, Note_on_c, 12, 55, 0
16, 179280, Note_on_c, 12, 57, 48
16, 179280, Note_on_c, 12, 53, 48
16, 179519, Note_on_c, 12, 57, 0
16, 179519, Note_on_c, 12, 53, 0
16, 181080, Control_c, 12, 11, 80
16, 181320, Note_on_c, 12, 57, 76
16, 181320, Note_on_c, 12, 53, 76
16, 181439, Note_on_c, 12, 57, 0
16, 181439, Note_on_c, 12, 53, 0
16, 181440, Note_on_c, 12, 58, 76
16, 181440, Note_on_c, 12, 55, 76
16, 181440, Control_c, 12, 11, 80
16, 181470, Control_c, 12, 11, 82
16, 181500, Control_c, 12, 11, 84
16, 181530, Control_c, 12, 11, 86
16, 181560, Control_c, 12, 11, 88
16, 181590, Control_c, 12, 11, 90
16, 181620, Control_c, 12, 11, 92
16, 181650, Control_c, 12, 11, 94
16, 181680, Control_c, 12, 11, 96
16, 181710, Control_c, 12, 11, 98
16, 181740, Control_c, 12, 11, 100
16, 181770, Control_c, 12, 11, 102
16, 181800, Control_c, 12, 11, 104
16, 181830, Control_c, 12, 11, 105
16, 181860, Control_c, 12, 11, 107
16, 181890, Control_c, 12, 11, 109
16, 181920, Control_c, 12, 11, 111
16, 181950, Control_c, 12, 11, 113
16, 181980, Control_c, 12, 11, 115
16, 182010, Control_c, 12, 11, 117
16, 182031, Note_on_c, 12, 58, 0
16, 182031, Note_on_c, 12, 55, 0
16, 182040, Note_on_c, 12, 55, 76
16, 182040, Note_on_c, 12, 58, 76
16, 182040, Control_c, 12, 11, 119
16, 182070, Control_c, 12, 11, 121
16, 182100, Control_c, 12, 11, 123
16, 182130, Control_c, 12, 11, 125
16, 182151, Note_on_c, 12, 55, 0
16, 182151, Note_on_c, 12, 58, 0
16, 182158, Control_c, 12, 11, 127
16, 182160, Note_on_c, 12, 55, 76
16, 182160, Note_on_c, 12, 58, 76
16, 182879, Note_on_c, 12, 55, 0
16, 182879, Note_on_c, 12, 58, 0
16, 182880, Note_on_c, 12, 55, 76
16, 182880, Note_on_c, 12, 58, 76
16, 183599, Note_on_c, 12, 55, 0
16, 183599, Note_on_c, 12, 58, 0
16, 183600, Note_on_c, 12, 55, 76
16, 183600, Note_on_c, 12, 58, 76
16, 183631, Control_c, 12, 11, 126
16, 183661, Control_c, 12, 11, 125
16, 183692, Control_c, 12, 11, 124
16, 183723, Control_c, 12, 11, 123
16, 183753, Control_c, 12, 11, 122
16, 183784, Control_c, 12, 11, 121
16, 183814, Control_c, 12, 11, 120
16, 183845, Control_c, 12, 11, 119
16, 183876, Control_c, 12, 11, 118
16, 183906, Control_c, 12, 11, 117
16, 183937, Control_c, 12, 11, 116
16, 183968, Control_c, 12, 11, 115
16, 183998, Control_c, 12, 11, 114
16, 184029, Control_c, 12, 11, 113
16, 184060, Control_c, 12, 11, 112
16, 184090, Control_c, 12, 11, 111
16, 184121, Control_c, 12, 11, 110
16, 184151, Control_c, 12, 11, 109
16, 184182, Control_c, 12, 11, 108
16, 184213, Control_c, 12, 11, 107
16, 184243, Control_c, 12, 11, 106
16, 184274, Control_c, 12, 11, 105
16, 184305, Control_c, 12, 11, 104
16, 184319, Note_on_c, 12, 55, 0
16, 184319, Note_on_c, 12, 58, 0
16, 184320, Note_on_c, 12, 55, 76
16, 184320, Note_on_c, 12, 58, 76
16, 184335, Control_c, 12, 11, 103
16, 184366, Control_c, 12, 11, 102
16, 184397, Control_c, 12, 11, 101
16, 184427, Control_c, 12, 11, 100
16, 184458, Control_c, 12, 11, 99
16, 184489, Control_c, 12, 11, 98
16, 184519, Control_c, 12, 11, 97
16, 184550, Control_c, 12, 11, 96
16, 184580, Control_c, 12, 11, 95
16, 184611, Control_c, 12, 11, 94
16, 184642, Control_c, 12, 11, 93
16, 184672, Control_c, 12, 11, 92
16, 184703, Control_c, 12, 11, 91
16, 184734, Control_c, 12, 11, 90
16, 184764, Control_c, 12, 11, 89
16, 184795, Control_c, 12, 11, 88
16, 184826, Control_c, 12, 11, 87
16, 184856, Control_c, 12, 11, 86
16, 184887, Control_c, 12, 11, 85
16, 184917, Control_c, 12, 11, 84
16, 184948, Control_c, 12, 11, 83
16, 184979, Control_c, 12, 11, 82
16, 185031, Note_on_c, 12, 55, 0
16, 185031, Note_on_c, 12, 58, 0
16, 185038, Control_c, 12, 11, 96
16, 185040, Note_on_c, 12, 57, 68
16, 185040, Note_on_c, 12, 48, 68
16, 185751, Note_on_c, 12, 57, 0
16, 185751, Note_on_c, 12, 48, 0
16, 185758, Control_c, 12, 11, 112
16, 185760, Note_on_c, 12, 57, 60
16, 185760, Note_on_c, 12, 48, 60
16, 186471, Note_on_c, 12, 57, 0
16, 186471, Note_on_c, 12, 48, 0
16, 186478, Control_c, 12, 11, 127
16, 186480, Note_on_c, 12, 57, 44
16, 186480, Note_on_c, 12, 53, 44
16, 186719, Note_on_c, 12, 57, 0
16, 186719, Note_on_c, 12, 53, 0
16, 187920, Note_on_c, 12, 53, 44
16, 187979, Note_on_c, 12, 53, 0
16, 187980, Note_on_c, 12, 55, 44
16, 188039, Note_on_c, 12, 55, 0
16, 188040, Note_on_c, 12, 57, 44
16, 188099, Note_on_c, 12, 57, 0
16, 188100, Note_on_c, 12, 58, 44
16, 188159, Note_on_c, 12, 58, 0
16, 188160, Note_on_c, 12, 60, 44
16, 188219, Note_on_c, 12, 60, 0
16, 188220, Note_on_c, 12, 59, 44
16, 188279, Note_on_c, 12, 59, 0
16, 188280, Note_on_c, 12, 62, 44
16, 188339, Note_on_c, 12, 62, 0
16, 188340, Note_on_c, 12, 60, 44
16, 188399, Note_on_c, 12, 60, 0
16, 188400, Note_on_c, 12, 58, 44
16, 188459, Note_on_c, 12, 58, 0
16, 188460, Note_on_c, 12, 57, 44
16, 188519, Note_on_c, 12, 57, 0
16, 188520, Note_on_c, 12, 55, 44
16, 188579, Note_on_c, 12, 55, 0
16, 188580, Note_on_c, 12, 53, 44
16, 188639, Note_on_c, 12, 53, 0
16, 189240, Note_on_c, 12, 65, 84
16, 189351, Note_on_c, 12, 65, 0
16, 189360, Note_on_c, 12, 53, 84
16, 189599, Note_on_c, 12, 53, 0
16, 189599, End_track
17, 0, Start_track
17, 0, Title_t, "Cello"
17, 0, MIDI_port, 0
17, 0, Control_c, 14, 7, 96
17, 0, Control_c, 14, 10, 90
17, 0, Program_c, 14, 48
17, 0, Control_c, 14, 11, 127
17, 2880, Note_on_c, 14, 48, 44
17, 2880, Note_on_c, 14, 41, 44
17, 3591, Note_on_c, 14, 48, 0
17, 3591, Note_on_c, 14, 41, 0
17, 3600, Note_on_c, 14, 41, 44
17, 3600, Note_on_c, 14, 48, 44
17, 4199, Control_c, 14, 11, 96
17, 4311, Note_on_c, 14, 41, 0
17, 4311, Note_on_c, 14, 48, 0
17, 4320, Note_on_c, 14, 41, 60
17, 4320, Note_on_c, 14, 48, 60
17, 4355, Control_c, 14, 11, 97
17, 4390, Control_c, 14, 11, 98
17, 4425, Control_c, 14, 11, 99
17, 4459, Control_c, 14, 11, 100
17, 4494, Control_c, 14, 11, 101
17, 4529, Control_c, 14, 11, 102
17, 4564, Control_c, 14, 11, 103
17, 4599, Control_c, 14, 11, 104
17, 4634, Control_c, 14, 11, 105
17, 4668, Control_c, 14, 11, 106
17, 4703, Control_c, 14, 11, 107
17, 4738, Control_c, 14, 11, 108
17, 4773, Control_c, 14, 11, 109
17, 4808, Control_c, 14, 11, 110
17, 4843, Control_c, 14, 11, 111
17, 4877, Control_c, 14, 11, 112
17, 4912, Control_c, 14, 11, 113
17, 4947, Control_c, 14, 11, 114
17, 4982, Control_c, 14, 11, 115
17, 5017, Control_c, 14, 11, 116
17, 5039, Note_on_c, 14, 41, 0
17, 5039, Note_on_c, 14, 48, 0
17, 5040, Note_on_c, 14, 48, 60
17, 5040, Note_on_c, 14, 41, 60
17, 5052, Control_c, 14, 11, 117
17, 5086, Control_c, 14, 11, 118
17, 5121, Control_c, 14, 11, 119
17, 5156, Control_c, 14, 11, 120
17, 5191, Control_c, 14, 11, 121
17, 5226, Control_c, 14, 11, 122
17, 5261, Control_c, 14, 11, 123
17, 5295, Control_c, 14, 11, 124
17, 5330, Control_c, 14, 11, 125
17, 5365, Control_c, 14, 11, 127
17, 5399, Note_on_c, 14, 48, 0
17, 5399, Note_on_c, 14, 41, 0
17, 5400, Note_on_c, 14, 48, 68
17, 5400, Note_on_c, 14, 41, 68
17, 5459, Note_on_c, 14, 48, 0
17, 5459, Note_on_c, 14, 41, 0
17, 5460, Note_on_c, 14, 41, 60
17, 5460, Note_on_c, 14, 48, 60
17, 5751, Note_on_c, 14, 41, 0
17, 5751, Note_on_c, 14, 48, 0
17, 5760, Note_on_c, 14, 41, 52
17, 5760, Note_on_c, 14, 48, 52
17, 5879, Note_on_c, 14, 41, 0
17, 5879, Note_on_c, 14, 48, 0
17, 6240, Program_c, 14, 45
17, 6360, Note_on_c, 14, 53, 48
17, 6479, Note_on_c, 14, 53, 0
17, 6480, Note_on_c, 14, 53, 48
17, 6719, Note_on_c, 14, 53, 0
17, 7080, Note_on_c, 14, 53, 48
17, 7199, Note_on_c, 14, 53, 0
17, 7200, Note_on_c, 14, 53, 48
17, 7439, Note_on_c, 14, 53, 0
17, 7800, Note_on_c, 14, 53, 48
17, 7919, Note_on_c, 14, 53, 0
17, 7920, Note_on_c, 14, 50, 48
17, 8159, Note_on_c, 14, 50, 0
17, 8520, Note_on_c, 14, 52, 48
17, 8639, Note_on_c, 14, 52, 0
17, 8640, Note_on_c, 14, 52, 48
17, 8879, Note_on_c, 14, 52, 0
17, 9240, Note_on_c, 14, 48, 48
17, 9359, Note_on_c, 14, 48, 0
17, 9360, Note_on_c, 14, 53, 48
17, 9599, Note_on_c, 14, 53, 0
17, 9720, Note_on_c, 14, 50, 48
17, 9959, Note_on_c, 14, 50, 0
17, 9960, Note_on_c, 14, 45, 48
17, 10079, Note_on_c, 14, 45, 0
17, 10080, Note_on_c, 14, 46, 48
17, 10319, Note_on_c, 14, 46, 0
17, 10440, Note_on_c, 14, 48, 48
17, 10679, Note_on_c, 14, 48, 0
17, 10680, Note_on_c, 14, 36, 48
17, 10799, Note_on_c, 14, 36, 0
17, 10800, Note_on_c, 14, 41, 48
17, 11039, Note_on_c, 14, 41, 0
17, 11520, Note_on_c, 14, 53, 48
17, 11759, Note_on_c, 14, 53, 0
17, 12120, Note_on_c, 14, 53, 50
17, 12239, Note_on_c, 14, 53, 0
17, 12240, Note_on_c, 14, 53, 51
17, 12479, Note_on_c, 14, 53, 0
17, 12840, Note_on_c, 14, 53, 54
17, 12959, Note_on_c, 14, 53, 0
17, 12960, Note_on_c, 14, 53, 55
17, 13199, Note_on_c, 14, 53, 0
17, 13560, Note_on_c, 14, 53, 57
17, 13679, Note_on_c, 14, 53, 0
17, 13680, Note_on_c, 14, 50, 58
17, 13919, Note_on_c, 14, 50, 0
17, 14280, Note_on_c, 14, 52, 61
17, 14399, Note_on_c, 14, 52, 0
17, 14400, Note_on_c, 14, 52, 62
17, 14639, Note_on_c, 14, 52, 0
17, 15000, Note_on_c, 14, 48, 64
17, 15119, Note_on_c, 14, 48, 0
17, 15120, Note_on_c, 14, 53, 65
17, 15359, Note_on_c, 14, 53, 0
17, 15480, Note_on_c, 14, 50, 67
17, 15719, Note_on_c, 14, 50, 0
17, 15720, Note_on_c, 14, 45, 68
17, 15839, Note_on_c, 14, 45, 0
17, 15840, Note_on_c, 14, 46, 69
17, 16079, Note_on_c, 14, 46, 0
17, 16200, Note_on_c, 14, 48, 70
17, 16439, Note_on_c, 14, 48, 0
17, 16440, Note_on_c, 14, 48, 71
17, 16559, Note_on_c, 14, 48, 0
17, 16560, Note_on_c, 14, 53, 72
17, 16799, Note_on_c, 14, 53, 0
17, 17160, Program_c, 14, 48
17, 17280, Note_on_c, 14, 57, 84
17, 17639, Note_on_c, 14, 57, 0
17, 17640, Note_on_c, 14, 53, 84
17, 17879, Note_on_c, 14, 53, 0
17, 17880, Note_on_c, 14, 60, 84
17, 17991, Note_on_c, 14, 60, 0
17, 18000, Note_on_c, 14, 57, 84
17, 18359, Note_on_c, 14, 57, 0
17, 18360, Note_on_c, 14, 53, 84
17, 18591, Note_on_c, 14, 53, 0
17, 18600, Note_on_c, 14, 48, 84
17, 18689, Note_on_c, 14, 48, 0
17, 18720, Note_on_c, 14, 53, 84
17, 18959, Note_on_c, 14, 53, 0
17, 18960, Note_on_c, 14, 57, 84
17, 19079, Note_on_c, 14, 57, 0
17, 19080, Note_on_c, 14, 60, 84
17, 19319, Note_on_c, 14, 60, 0
17, 19320, Note_on_c, 14, 57, 84
17, 19431, Note_on_c, 14, 57, 0
17, 19440, Note_on_c, 14, 58, 84
17, 19799, Note_on_c, 14, 58, 0
17, 19800, Note_on_c, 14, 58, 84
17, 20031, Note_on_c, 14, 58, 0
17, 20040, Note_on_c, 14, 55, 84
17, 20129, Note_on_c, 14, 55, 0
17, 20160, Note_on_c, 14, 58, 84
17, 20519, Note_on_c, 14, 58, 0
17, 20520, Note_on_c, 14, 55, 84
17, 20759, Note_on_c, 14, 55, 0
17, 20760, Note_on_c, 14, 60, 84
17, 20871, Note_on_c, 14, 60, 0
17, 20880, Note_on_c, 14, 57, 84
17, 21239, Note_on_c, 14, 57, 0
17, 21240, Note_on_c, 14, 53, 84
17, 21471, Note_on_c, 14, 53, 0
17, 21480, Note_on_c, 14, 57, 84
17, 21569, Note_on_c, 14, 57, 0
17, 21600, Note_on_c, 14, 55, 84
17, 21839, Note_on_c, 14, 55, 0
17, 21840, Note_on_c, 14, 50, 84
17, 21959, Note_on_c, 14, 50, 0
17, 21960, Note_on_c, 14, 52, 84
17, 22199, Note_on_c, 14, 52, 0
17, 22200, Note_on_c, 14, 48, 84
17, 22311, Note_on_c, 14, 48, 0
17, 22320, Note_on_c, 14, 48, 84
17, 22439, Note_on_c, 14, 48, 0
17, 22440, Note_on_c, 14, 53, 84
17, 22675, Note_on_c, 14, 53, 0
17, 22680, Note_on_c, 14, 48, 84
17, 22799, Note_on_c, 14, 48, 0
17, 22800, Note_on_c, 14, 55, 84
17, 23031, Note_on_c, 14, 55, 0
17, 23040, Note_on_c, 14, 48, 84
17, 23159, Note_on_c, 14, 48, 0
17, 23160, Note_on_c, 14, 57, 84
17, 23391, Note_on_c, 14, 57, 0
17, 23400, Note_on_c, 14, 60, 84
17, 23519, Note_on_c, 14, 60, 0
17, 23520, Note_on_c, 14, 58, 84
17, 23631, Note_on_c, 14, 58, 0
17, 23640, Note_on_c, 14, 55, 84
17, 23684, Note_on_c, 14, 55, 0
17, 23700, Note_on_c, 14, 52, 84
17, 23744, Note_on_c, 14, 52, 0
17, 23760, Note_on_c, 14, 48, 84
17, 23819, Note_on_c, 14, 48, 0
17, 23820, Note_on_c, 14, 53, 84
17, 23879, Note_on_c, 14, 53, 0
17, 23880, Note_on_c, 14, 57, 84
17, 23939, Note_on_c, 14, 57, 0
17, 23940, Note_on_c, 14, 60, 84
17, 23999, Note_on_c, 14, 60, 0
17, 24000, Note_on_c, 14, 57, 84
17, 24059, Note_on_c, 14, 57, 0
17, 24060, Note_on_c, 14, 53, 84
17, 24115, Note_on_c, 14, 53, 0
17, 24120, Note_on_c, 14, 48, 84
17, 24179, Note_on_c, 14, 48, 0
17, 24180, Note_on_c, 14, 55, 84
17, 24239, Note_on_c, 14, 55, 0
17, 24240, Note_on_c, 14, 58, 84
17, 24299, Note_on_c, 14, 58, 0
17, 24300, Note_on_c, 14, 60, 84
17, 24359, Note_on_c, 14, 60, 0
17, 24360, Note_on_c, 14, 58, 84
17, 24419, Note_on_c, 14, 58, 0
17, 24420, Note_on_c, 14, 55, 84
17, 24475, Note_on_c, 14, 55, 0
17, 24480, Note_on_c, 14, 48, 84
17, 24539, Note_on_c, 14, 48, 0
17, 24540, Note_on_c, 14, 53, 84
17, 24599, Note_on_c, 14, 53, 0
17, 24600, Note_on_c, 14, 57, 84
17, 24659, Note_on_c, 14, 57, 0
17, 24660, Note_on_c, 14, 60, 84
17, 24719, Note_on_c, 14, 60, 0
17, 24720, Note_on_c, 14, 57, 84
17, 24779, Note_on_c, 14, 57, 0
17, 24780, Note_on_c, 14, 53, 84
17, 24835, Note_on_c, 14, 53, 0
17, 24840, Note_on_c, 14, 48, 84
17, 24899, Note_on_c, 14, 48, 0
17, 24900, Note_on_c, 14, 55, 84
17, 24959, Note_on_c, 14, 55, 0
17, 24960, Note_on_c, 14, 58, 84
17, 25019, Note_on_c, 14, 58, 0
17, 25020, Note_on_c, 14, 60, 84
17, 25075, Note_on_c, 14, 60, 0
17, 25080, Note_on_c, 14, 48, 84
17, 25191, Note_on_c, 14, 48, 0
17, 25200, Note_on_c, 14, 48, 84
17, 25319, Note_on_c, 14, 48, 0
17, 25320, Note_on_c, 14, 53, 84
17, 25431, Note_on_c, 14, 53, 0
17, 25440, Note_on_c, 14, 53, 84
17, 25459, Note_on_c, 14, 53, 0
17, 25460, Note_on_c, 14, 55, 84
17, 25479, Note_on_c, 14, 55, 0
17, 25480, Note_on_c, 14, 53, 84
17, 25499, Note_on_c, 14, 53, 0
17, 25500, Note_on_c, 14, 55, 84
17, 25519, Note_on_c, 14, 55, 0
17, 25520, Note_on_c, 14, 52, 84
17, 25539, Note_on_c, 14, 52, 0
17, 25540, Note_on_c, 14, 53, 84
17, 25559, Note_on_c, 14, 53, 0
17, 25560, Note_on_c, 14, 48, 84
17, 25679, Note_on_c, 14, 48, 0
17, 25680, Note_on_c, 14, 55, 84
17, 25791, Note_on_c, 14, 55, 0
17, 25800, Note_on_c, 14, 55, 84
17, 25819, Note_on_c, 14, 55, 0
17, 25820, Note_on_c, 14, 57, 84
17, 25839, Note_on_c, 14, 57, 0
17, 25840, Note_on_c, 14, 55, 84
17, 25859, Note_on_c, 14, 55, 0
17, 25860, Note_on_c, 14, 57, 84
17, 25879, Note_on_c, 14, 57, 0
17, 25880, Note_on_c, 14, 53, 84
17, 25899, Note_on_c, 14, 53, 0
17, 25900, Note_on_c, 14, 55, 84
17, 25919, Note_on_c, 14, 55, 0
17, 25920, Note_on_c, 14, 48, 84
17, 26039, Note_on_c, 14, 48, 0
17, 26040, Note_on_c, 14, 57, 84
17, 26151, Note_on_c, 14, 57, 0
17, 26160, Note_on_c, 14, 57, 84
17, 26179, Note_on_c, 14, 57, 0
17, 26180, Note_on_c, 14, 58, 84
17, 26199, Note_on_c, 14, 58, 0
17, 26200, Note_on_c, 14, 57, 84
17, 26219, Note_on_c, 14, 57, 0
17, 26220, Note_on_c, 14, 58, 84
17, 26239, Note_on_c, 14, 58, 0
17, 26240, Note_on_c, 14, 55, 84
17, 26259, Note_on_c, 14, 55, 0
17, 26260, Note_on_c, 14, 57, 84
17, 26279, Note_on_c, 14, 57, 0
17, 26280, Note_on_c, 14, 60, 84
17, 26399, Note_on_c, 14, 60, 0
17, 26400, Note_on_c, 14, 58, 84
17, 26511, Note_on_c, 14, 58, 0
17, 26520, Note_on_c, 14, 55, 84
17, 26564, Note_on_c, 14, 55, 0
17, 26580, Note_on_c, 14, 52, 84
17, 26624, Note_on_c, 14, 52, 0
17, 26640, Note_on_c, 14, 48, 84
17, 26699, Note_on_c, 14, 48, 0
17, 26700, Note_on_c, 14, 53, 84
17, 26759, Note_on_c, 14, 53, 0
17, 26760, Note_on_c, 14, 57, 84
17, 26819, Note_on_c, 14, 57, 0
17, 26820, Note_on_c, 14, 60, 84
17, 26879, Note_on_c, 14, 60, 0
17, 26880, Note_on_c, 14, 57, 84
17, 26939, Note_on_c, 14, 57, 0
17, 26940, Note_on_c, 14, 53, 84
17, 26995, Note_on_c, 14, 53, 0
17, 27000, Note_on_c, 14, 48, 84
17, 27059, Note_on_c, 14, 48, 0
17, 27060, Note_on_c, 14, 55, 84
17, 27119, Note_on_c, 14, 55, 0
17, 27120, Note_on_c, 14, 58, 84
17, 27179, Note_on_c, 14, 58, 0
17, 27180, Note_on_c, 14, 60, 84
17, 27239, Note_on_c, 14, 60, 0
17, 27240, Note_on_c, 14, 58, 84
17, 27299, Note_on_c, 14, 58, 0
17, 27300, Note_on_c, 14, 55, 84
17, 27355, Note_on_c, 14, 55, 0
17, 27360, Note_on_c, 14, 48, 84
17, 27419, Note_on_c, 14, 48, 0
17, 27420, Note_on_c, 14, 53, 84
17, 27479, Note_on_c, 14, 53, 0
17, 27480, Note_on_c, 14, 57, 84
17, 27539, Note_on_c, 14, 57, 0
17, 27540, Note_on_c, 14, 60, 84
17, 27599, Note_on_c, 14, 60, 0
17, 27600, Note_on_c, 14, 57, 84
17, 27659, Note_on_c, 14, 57, 0
17, 27660, Note_on_c, 14, 53, 84
17, 27715, Note_on_c, 14, 53, 0
17, 27720, Note_on_c, 14, 48, 84
17, 27779, Note_on_c, 14, 48, 0
17, 27780, Note_on_c, 14, 52, 84
17, 27839, Note_on_c, 14, 52, 0
17, 27840, Note_on_c, 14, 58, 84
17, 27899, Note_on_c, 14, 58, 0
17, 27900, Note_on_c, 14, 60, 84
17, 27959, Note_on_c, 14, 60, 0
17, 28080, Note_on_c, 14, 62, 92
17, 28139, Note_on_c, 14, 62, 0
17, 28140, Note_on_c, 14, 62, 84
17, 28199, Note_on_c, 14, 62, 0
17, 28200, Note_on_c, 14, 60, 84
17, 28311, Note_on_c, 14, 60, 0
17, 28320, Note_on_c, 14, 57, 84
17, 28364, Note_on_c, 14, 57, 0
17, 28380, Note_on_c, 14, 53, 84
17, 28424, Note_on_c, 14, 53, 0
17, 28800, Note_on_c, 14, 65, 92
17, 28859, Note_on_c, 14, 65, 0
17, 28860, Note_on_c, 14, 65, 84
17, 28919, Note_on_c, 14, 65, 0
17, 28920, Note_on_c, 14, 64, 84
17, 29031, Note_on_c, 14, 64, 0
17, 29040, Note_on_c, 14, 60, 84
17, 29084, Note_on_c, 14, 60, 0
17, 29100, Note_on_c, 14, 55, 84
17, 29144, Note_on_c, 14, 55, 0
17, 29400, Note_on_c, 14, 50, 84
17, 29519, Note_on_c, 14, 50, 0
17, 29520, Note_on_c, 14, 52, 84
17, 29759, Note_on_c, 14, 52, 0
17, 30240, Note_on_c, 14, 57, 84
17, 30359, Note_on_c, 14, 57, 0
17, 30360, Note_on_c, 14, 55, 84
17, 30471, Note_on_c, 14, 55, 0
17, 30480, Note_on_c, 14, 52, 84
17, 30524, Note_on_c, 14, 52, 0
17, 30540, Note_on_c, 14, 48, 84
17, 30584, Note_on_c, 14, 48, 0
17, 30600, Note_on_c, 14, 45, 84
17, 30719, Note_on_c, 14, 45, 0
17, 30720, Note_on_c, 14, 43, 84
17, 30831, Note_on_c, 14, 43, 0
17, 30840, Note_on_c, 14, 40, 84
17, 30884, Note_on_c, 14, 40, 0
17, 30900, Note_on_c, 14, 36, 84
17, 30944, Note_on_c, 14, 36, 0
17, 30960, Note_on_c, 14, 43, 84
17, 31671, Note_on_c, 14, 43, 0
17, 31680, Note_on_c, 14, 55, 84
17, 31799, Note_on_c, 14, 55, 0
17, 31800, Note_on_c, 14, 53, 84
17, 31911, Note_on_c, 14, 53, 0
17, 31920, Note_on_c, 14, 50, 84
17, 31964, Note_on_c, 14, 50, 0
17, 31980, Note_on_c, 14, 47, 84
17, 32024, Note_on_c, 14, 47, 0
17, 32040, Note_on_c, 14, 45, 84
17, 32159, Note_on_c, 14, 45, 0
17, 32160, Note_on_c, 14, 43, 84
17, 32271, Note_on_c, 14, 43, 0
17, 32280, Note_on_c, 14, 41, 84
17, 32324, Note_on_c, 14, 41, 0
17, 32340, Note_on_c, 14, 38, 84
17, 32384, Note_on_c, 14, 38, 0
17, 32400, Note_on_c, 14, 43, 84
17, 33111, Note_on_c, 14, 43, 0
17, 33120, Note_on_c, 14, 57, 84
17, 33179, Note_on_c, 14, 57, 0
17, 33180, Note_on_c, 14, 55, 84
17, 33235, Note_on_c, 14, 55, 0
17, 33240, Note_on_c, 14, 54, 84
17, 33284, Note_on_c, 14, 54, 0
17, 33300, Note_on_c, 14, 55, 84
17, 33344, Note_on_c, 14, 55, 0
17, 33360, Note_on_c, 14, 52, 84
17, 33404, Note_on_c, 14, 52, 0
17, 33420, Note_on_c, 14, 48, 84
17, 33464, Note_on_c, 14, 48, 0
17, 33480, Note_on_c, 14, 45, 84
17, 33539, Note_on_c, 14, 45, 0
17, 33540, Note_on_c, 14, 43, 84
17, 33595, Note_on_c, 14, 43, 0
17, 33600, Note_on_c, 14, 42, 84
17, 33644, Note_on_c, 14, 42, 0
17, 33660, Note_on_c, 14, 43, 84
17, 33704, Note_on_c, 14, 43, 0
17, 33720, Note_on_c, 14, 40, 84
17, 33764, Note_on_c, 14, 40, 0
17, 33780, Note_on_c, 14, 36, 84
17, 33824, Note_on_c, 14, 36, 0
17, 33840, Note_on_c, 14, 43, 84
17, 34551, Note_on_c, 14, 43, 0
17, 34560, Note_on_c, 14, 57, 84
17, 34619, Note_on_c, 14, 57, 0
17, 34620, Note_on_c, 14, 55, 84
17, 34675, Note_on_c, 14, 55, 0
17, 34680, Note_on_c, 14, 54, 84
17, 34724, Note_on_c, 14, 54, 0
17, 34740, Note_on_c, 14, 55, 84
17, 34784, Note_on_c, 14, 55, 0
17, 34800, Note_on_c, 14, 53, 84
17, 34844, Note_on_c, 14, 53, 0
17, 34860, Note_on_c, 14, 50, 84
17, 34904, Note_on_c, 14, 50, 0
17, 34920, Note_on_c, 14, 45, 84
17, 34979, Note_on_c, 14, 45, 0
17, 34980, Note_on_c, 14, 43, 84
17, 35035, Note_on_c, 14, 43, 0
17, 35040, Note_on_c, 14, 42, 84
17, 35084, Note_on_c, 14, 42, 0
17, 35100, Note_on_c, 14, 38, 84
17, 35144, Note_on_c, 14, 38, 0
17, 35160, Note_on_c, 14, 43, 84
17, 35204, Note_on_c, 14, 43, 0
17, 35220, Note_on_c, 14, 43, 84
17, 35264, Note_on_c, 14, 43, 0
17, 35280, Note_on_c, 14, 48, 76
17, 35335, Note_on_c, 14, 48, 0
17, 35340, Note_on_c, 14, 60, 52
17, 35399, Note_on_c, 14, 60, 0
17, 35400, Note_on_c, 14, 59, 52
17, 35459, Note_on_c, 14, 59, 0
17, 35460, Note_on_c, 14, 60, 52
17, 35519, Note_on_c, 14, 60, 0
17, 35520, Note_on_c, 14, 62, 52
17, 35579, Note_on_c, 14, 62, 0
17, 35580, Note_on_c, 14, 60, 52
17, 35639, Note_on_c, 14, 60, 0
17, 35640, Note_on_c, 14, 57, 52
17, 35699, Note_on_c, 14, 57, 0
17, 35700, Note_on_c, 14, 60, 54
17, 35759, Note_on_c, 14, 60, 0
17, 35760, Note_on_c, 14, 55, 56
17, 35819, Note_on_c, 14, 55, 0
17, 35820, Note_on_c, 14, 60, 58
17, 35879, Note_on_c, 14, 60, 0
17, 35880, Note_on_c, 14, 53, 60
17, 35939, Note_on_c, 14, 53, 0
17, 35940, Note_on_c, 14, 60, 62
17, 35995, Note_on_c, 14, 60, 0
17, 36000, Note_on_c, 14, 52, 64
17, 36059, Note_on_c, 14, 52, 0
17, 36060, Note_on_c, 14, 55, 66
17, 36119, Note_on_c, 14, 55, 0
17, 36120, Note_on_c, 14, 50, 68
17, 36179, Note_on_c, 14, 50, 0
17, 36180, Note_on_c, 14, 55, 70
17, 36239, Note_on_c, 14, 55, 0
17, 36240, Note_on_c, 14, 48, 72
17, 36299, Note_on_c, 14, 48, 0
17, 36300, Note_on_c, 14, 55, 74
17, 36355, Note_on_c, 14, 55, 0
17, 36360, Note_on_c, 14, 47, 76
17, 36419, Note_on_c, 14, 47, 0
17, 36420, Note_on_c, 14, 43, 76
17, 36479, Note_on_c, 14, 43, 0
17, 36480, Note_on_c, 14, 47, 76
17, 36539, Note_on_c, 14, 47, 0
17, 36540, Note_on_c, 14, 50, 76
17, 36599, Note_on_c, 14, 50, 0
17, 36600, Note_on_c, 14, 55, 76
17, 36659, Note_on_c, 14, 55, 0
17, 36660, Note_on_c, 14, 59, 76
17, 36715, Note_on_c, 14, 59, 0
17, 36720, Note_on_c, 14, 60, 76
17, 36779, Note_on_c, 14, 60, 0
17, 36780, Note_on_c, 14, 60, 52
17, 36839, Note_on_c, 14, 60, 0
17, 36840, Note_on_c, 14, 59, 52
17, 36899, Note_on_c, 14, 59, 0
17, 36900, Note_on_c, 14, 60, 52
17, 36959, Note_on_c, 14, 60, 0
17, 36960, Note_on_c, 14, 62, 52
17, 37019, Note_on_c, 14, 62, 0
17, 37020, Note_on_c, 14, 60, 52
17, 37079, Note_on_c, 14, 60, 0
17, 37080, Note_on_c, 14, 57, 52
17, 37139, Note_on_c, 14, 57, 0
17, 37140, Note_on_c, 14, 60, 54
17, 37199, Note_on_c, 14, 60, 0
17, 37200, Note_on_c, 14, 55, 56
17, 37259, Note_on_c, 14, 55, 0
17, 37260, Note_on_c, 14, 60, 58
17, 37319, Note_on_c, 14, 60, 0
17, 37320, Note_on_c, 14, 53, 60
17, 37379, Note_on_c, 14, 53, 0
17, 37380, Note_on_c, 14, 60, 62
17, 37435, Note_on_c, 14, 60, 0
17, 37440, Note_on_c, 14, 52, 64
17, 37499, Note_on_c, 14, 52, 0
17, 37500, Note_on_c, 14, 55, 66
17, 37559, Note_on_c, 14, 55, 0
17, 37560, Note_on_c, 14, 50, 68
17, 37619, Note_on_c, 14, 50, 0
17, 37620, Note_on_c, 14, 55, 70
17, 37679, Note_on_c, 14, 55, 0
17, 37680, Note_on_c, 14, 48, 72
17, 37739, Note_on_c, 14, 48, 0
17, 37740, Note_on_c, 14, 55, 74
17, 37795, Note_on_c, 14, 55, 0
17, 37800, Note_on_c, 14, 47, 76
17, 37859, Note_on_c, 14, 47, 0
17, 37860, Note_on_c, 14, 43, 76
17, 37919, Note_on_c, 14, 43, 0
17, 37920, Note_on_c, 14, 47, 76
17, 37979, Note_on_c, 14, 47, 0
17, 37980, Note_on_c, 14, 50, 76
17, 38039, Note_on_c, 14, 50, 0
17, 38040, Note_on_c, 14, 55, 76
17, 38099, Note_on_c, 14, 55, 0
17, 38100, Note_on_c, 14, 59, 76
17, 38155, Note_on_c, 14, 59, 0
17, 38160, Note_on_c, 14, 48, 84
17, 38639, Note_on_c, 14, 48, 0
17, 38760, Note_on_c, 14, 48, 84
17, 38849, Note_on_c, 14, 48, 0
17, 38880, Note_on_c, 14, 41, 84
17, 39359, Note_on_c, 14, 41, 0
17, 39480, Note_on_c, 14, 41, 84
17, 39569, Note_on_c, 14, 41, 0
17, 39600, Note_on_c, 14, 43, 84
17, 39779, Note_on_c, 14, 43, 0
17, 43440, Control_c, 14, 11, 96
17, 43560, Note_on_c, 14, 48, 68
17, 43560, Note_on_c, 14, 41, 68
17, 43919, Note_on_c, 14, 48, 0
17, 43919, Note_on_c, 14, 41, 0
17, 43920, Control_c, 14, 11, 96
17, 43920, Note_on_c, 14, 48, 68
17, 43920, Note_on_c, 14, 41, 68
17, 43966, Control_c, 14, 11, 97
17, 44013, Control_c, 14, 11, 98
17, 44059, Control_c, 14, 11, 99
17, 44106, Control_c, 14, 11, 100
17, 44152, Control_c, 14, 11, 101
17, 44199, Control_c, 14, 11, 102
17, 44245, Control_c, 14, 11, 103
17, 44292, Control_c, 14, 11, 104
17, 44338, Control_c, 14, 11, 105
17, 44385, Control_c, 14, 11, 106
17, 44431, Control_c, 14, 11, 107
17, 44477, Control_c, 14, 11, 108
17, 44524, Control_c, 14, 11, 109
17, 44570, Control_c, 14, 11, 110
17, 44617, Control_c, 14, 11, 111
17, 44639, Note_on_c, 14, 48, 0
17, 44639, Note_on_c, 14, 41, 0
17, 44640, Note_on_c, 14, 41, 68
17, 44640, Note_on_c, 14, 48, 68
17, 44663, Control_c, 14, 11, 112
17, 44710, Control_c, 14, 11, 113
17, 44756, Control_c, 14, 11, 114
17, 44803, Control_c, 14, 11, 115
17, 44849, Control_c, 14, 11, 116
17, 44895, Control_c, 14, 11, 117
17, 44942, Control_c, 14, 11, 118
17, 44988, Control_c, 14, 11, 119
17, 45035, Control_c, 14, 11, 120
17, 45081, Control_c, 14, 11, 121
17, 45128, Control_c, 14, 11, 122
17, 45174, Control_c, 14, 11, 123
17, 45221, Control_c, 14, 11, 124
17, 45267, Control_c, 14, 11, 125
17, 45314, Control_c, 14, 11, 127
17, 45351, Note_on_c, 14, 41, 0
17, 45351, Note_on_c, 14, 48, 0
17, 45360, Note_on_c, 14, 48, 52
17, 45360, Note_on_c, 14, 41, 52
17, 45599, Note_on_c, 14, 48, 0
17, 45599, Note_on_c, 14, 41, 0
17, 45840, Program_c, 14, 45
17, 45960, Note_on_c, 14, 53, 48
17, 46079, Note_on_c, 14, 53, 0
17, 46080, Note_on_c, 14, 53, 48
17, 46319, Note_on_c, 14, 53, 0
17, 46680, Note_on_c, 14, 53, 48
17, 46799, Note_on_c, 14, 53, 0
17, 46800, Note_on_c, 14, 53, 48
17, 47039, Note_on_c, 14, 53, 0
17, 47400, Note_on_c, 14, 53, 48
17, 47519, Note_on_c, 14, 53, 0
17, 47520, Note_on_c, 14, 50, 48
17, 47759, Note_on_c, 14, 50, 0
17, 48120, Note_on_c, 14, 52, 48
17, 48239, Note_on_c, 14, 52, 0
17, 48240, Note_on_c, 14, 52, 48
17, 48479, Note_on_c, 14, 52, 0
17, 48840, Note_on_c, 14, 48, 48
17, 48959, Note_on_c, 14, 48, 0
17, 48960, Note_on_c, 14, 53, 48
17, 49199, Note_on_c, 14, 53, 0
17, 49320, Note_on_c, 14, 50, 48
17, 49559, Note_on_c, 14, 50, 0
17, 49560, Note_on_c, 14, 45, 48
17, 49679, Note_on_c, 14, 45, 0
17, 49680, Note_on_c, 14, 46, 48
17, 49919, Note_on_c, 14, 46, 0
17, 50040, Note_on_c, 14, 48, 48
17, 50279, Note_on_c, 14, 48, 0
17, 50280, Note_on_c, 14, 36, 48
17, 50399, Note_on_c, 14, 36, 0
17, 50400, Note_on_c, 14, 41, 48
17, 50639, Note_on_c, 14, 41, 0
17, 51120, Note_on_c, 14, 53, 48
17, 51359, Note_on_c, 14, 53, 0
17, 51720, Note_on_c, 14, 53, 52
17, 51839, Note_on_c, 14, 53, 0
17, 51840, Note_on_c, 14, 53, 52
17, 52079, Note_on_c, 14, 53, 0
17, 52440, Note_on_c, 14, 53, 56
17, 52559, Note_on_c, 14, 53, 0
17, 52560, Note_on_c, 14, 53, 57
17, 52799, Note_on_c, 14, 53, 0
17, 53160, Note_on_c, 14, 53, 61
17, 53279, Note_on_c, 14, 53, 0
17, 53280, Note_on_c, 14, 53, 62
17, 53519, Note_on_c, 14, 53, 0
17, 53760, Program_c, 14, 48
17, 53880, Note_on_c, 14, 53, 70
17, 54239, Note_on_c, 14, 53, 0
17, 54600, Note_on_c, 14, 53, 75
17, 54719, Note_on_c, 14, 53, 0
17, 54720, Note_on_c, 14, 57, 76
17, 54959, Note_on_c, 14, 57, 0
17, 54960, Note_on_c, 14, 60, 76
17, 55079, Note_on_c, 14, 60, 0
17, 55080, Note_on_c, 14, 63, 76
17, 55311, Note_on_c, 14, 63, 0
17, 55320, Note_on_c, 14, 60, 84
17, 55409, Note_on_c, 14, 60, 0
17, 55440, Note_on_c, 14, 63, 84
17, 55649, Note_on_c, 14, 63, 0
17, 55680, Note_on_c, 14, 60, 84
17, 55769, Note_on_c, 14, 60, 0
17, 55800, Note_on_c, 14, 57, 84
17, 56009, Note_on_c, 14, 57, 0
17, 56040, Note_on_c, 14, 53, 84
17, 56129, Note_on_c, 14, 53, 0
17, 56160, Note_on_c, 14, 51, 84
17, 56369, Note_on_c, 14, 51, 0
17, 56400, Note_on_c, 14, 48, 84
17, 56489, Note_on_c, 14, 48, 0
17, 56520, Note_on_c, 14, 45, 84
17, 56729, Note_on_c, 14, 45, 0
17, 56760, Note_on_c, 14, 41, 84
17, 56849, Note_on_c, 14, 41, 0
17, 56880, Note_on_c, 14, 46, 84
17, 57119, Note_on_c, 14, 46, 0
17, 58200, Note_on_c, 14, 41, 76
17, 58311, Note_on_c, 14, 41, 0
17, 58320, Note_on_c, 14, 48, 84
17, 58379, Note_on_c, 14, 48, 0
17, 58380, Note_on_c, 14, 48, 76
17, 58559, Note_on_c, 14, 48, 0
17, 59640, Note_on_c, 14, 41, 76
17, 59751, Note_on_c, 14, 41, 0
17, 59760, Note_on_c, 14, 53, 84
17, 59819, Note_on_c, 14, 53, 0
17, 59820, Note_on_c, 14, 53, 76
17, 59999, Note_on_c, 14, 53, 0
17, 61080, Note_on_c, 14, 41, 76
17, 61199, Note_on_c, 14, 41, 0
17, 61200, Note_on_c, 14, 46, 76
17, 61439, Note_on_c, 14, 46, 0
17, 61800, Note_on_c, 14, 46, 76
17, 61919, Note_on_c, 14, 46, 0
17, 61920, Note_on_c, 14, 51, 76
17, 62159, Note_on_c, 14, 51, 0
17, 62520, Note_on_c, 14, 51, 76
17, 62639, Note_on_c, 14, 51, 0
17, 62640, Note_on_c, 14, 46, 76
17, 62879, Note_on_c, 14, 46, 0
17, 63240, Note_on_c, 14, 46, 76
17, 63359, Note_on_c, 14, 46, 0
17, 63360, Note_on_c, 14, 41, 76
17, 63599, Note_on_c, 14, 41, 0
17, 63960, Note_on_c, 14, 41, 76
17, 64079, Note_on_c, 14, 41, 0
17, 64080, Note_on_c, 14, 46, 76
17, 64319, Note_on_c, 14, 46, 0
17, 64680, Note_on_c, 14, 46, 76
17, 64799, Note_on_c, 14, 46, 0
17, 64800, Note_on_c, 14, 51, 80
17, 65039, Note_on_c, 14, 51, 0
17, 65400, Note_on_c, 14, 51, 80
17, 65519, Note_on_c, 14, 51, 0
17, 65520, Note_on_c, 14, 53, 80
17, 65759, Note_on_c, 14, 53, 0
17, 66120, Note_on_c, 14, 53, 80
17, 66239, Note_on_c, 14, 53, 0
17, 66240, Note_on_c, 14, 54, 84
17, 66831, Note_on_c, 14, 54, 0
17, 66840, Note_on_c, 14, 55, 84
17, 66951, Note_on_c, 14, 55, 0
17, 66960, Note_on_c, 14, 56, 84
17, 66960, Control_c, 14, 11, 127
17, 66990, Control_c, 14, 11, 124
17, 67020, Control_c, 14, 11, 120
17, 67050, Control_c, 14, 11, 117
17, 67080, Control_c, 14, 11, 114
17, 67110, Control_c, 14, 11, 111
17, 67140, Control_c, 14, 11, 107
17, 67170, Control_c, 14, 11, 104
17, 67200, Control_c, 14, 11, 101
17, 67230, Control_c, 14, 11, 97
17, 67260, Control_c, 14, 11, 94
17, 67290, Control_c, 14, 11, 91
17, 67320, Control_c, 14, 11, 88
17, 67350, Control_c, 14, 11, 84
17, 67380, Control_c, 14, 11, 81
17, 67410, Control_c, 14, 11, 78
17, 67440, Control_c, 14, 11, 74
17, 67470, Control_c, 14, 11, 71
17, 67500, Control_c, 14, 11, 68
17, 67530, Control_c, 14, 11, 64
17, 67560, Control_c, 14, 11, 61
17, 67590, Control_c, 14, 11, 58
17, 67620, Control_c, 14, 11, 55
17, 67650, Control_c, 14, 11, 51
17, 67678, Control_c, 14, 11, 48
17, 67919, Note_on_c, 14, 56, 0
17, 68160, Control_c, 14, 11, 127
17, 68160, Program_c, 14, 45
17, 68280, Note_on_c, 14, 44, 44
17, 68399, Note_on_c, 14, 44, 0
17, 68400, Note_on_c, 14, 45, 44
17, 68639, Note_on_c, 14, 45, 0
17, 69000, Note_on_c, 14, 45, 44
17, 69119, Note_on_c, 14, 45, 0
17, 69120, Note_on_c, 14, 46, 44
17, 69359, Note_on_c, 14, 46, 0
17, 69720, Note_on_c, 14, 46, 44
17, 69839, Note_on_c, 14, 46, 0
17, 69840, Note_on_c, 14, 47, 44
17, 70079, Note_on_c, 14, 47, 0
17, 70320, Program_c, 14, 48
17, 70440, Note_on_c, 14, 43, 44
17, 70551, Note_on_c, 14, 43, 0
17, 70560, Note_on_c, 14, 48, 52
17, 70919, Note_on_c, 14, 48, 0
17, 70920, Note_on_c, 14, 43, 52
17, 71159, Note_on_c, 14, 43, 0
17, 71160, Note_on_c, 14, 52, 52
17, 71271, Note_on_c, 14, 52, 0
17, 71280, Note_on_c, 14, 50, 52
17, 71639, Note_on_c, 14, 50, 0
17, 71640, Note_on_c, 14, 43, 52
17, 71871, Note_on_c, 14, 43, 0
17, 71880, Note_on_c, 14, 53, 76
17, 71969, Note_on_c, 14, 53, 0
17, 72000, Note_on_c, 14, 47, 76
17, 72359, Note_on_c, 14, 47, 0
17, 72360, Note_on_c, 14, 43, 76
17, 72479, Note_on_c, 14, 43, 0
17, 72600, Note_on_c, 14, 50, 76
17, 72689, Note_on_c, 14, 50, 0
17, 72720, Note_on_c, 14, 48, 76
17, 73079, Note_on_c, 14, 48, 0
17, 73080, Note_on_c, 14, 43, 76
17, 73199, Note_on_c, 14, 43, 0
17, 73320, Note_on_c, 14, 52, 76
17, 73409, Note_on_c, 14, 52, 0
17, 73440, Note_on_c, 14, 48, 52
17, 73799, Note_on_c, 14, 48, 0
17, 73800, Note_on_c, 14, 43, 52
17, 74039, Note_on_c, 14, 43, 0
17, 74040, Note_on_c, 14, 52, 52
17, 74151, Note_on_c, 14, 52, 0
17, 74160, Note_on_c, 14, 50, 52
17, 74519, Note_on_c, 14, 50, 0
17, 74520, Note_on_c, 14, 43, 52
17, 74751, Note_on_c, 14, 43, 0
17, 74760, Note_on_c, 14, 53, 76
17, 74849, Note_on_c, 14, 53, 0
17, 74880, Note_on_c, 14, 47, 76
17, 75239, Note_on_c, 14, 47, 0
17, 75240, Note_on_c, 14, 43, 76
17, 75359, Note_on_c, 14, 43, 0
17, 75480, Note_on_c, 14, 50, 76
17, 75569, Note_on_c, 14, 50, 0
17, 75600, Note_on_c, 14, 48, 76
17, 75959, Note_on_c, 14, 48, 0
17, 75960, Note_on_c, 14, 43, 76
17, 76079, Note_on_c, 14, 43, 0
17, 76200, Note_on_c, 14, 52, 76
17, 76289, Note_on_c, 14, 52, 0
17, 76320, Note_on_c, 14, 48, 84
17, 76679, Note_on_c, 14, 48, 0
17, 76680, Note_on_c, 14, 43, 84
17, 76799, Note_on_c, 14, 43, 0
17, 76920, Note_on_c, 14, 52, 84
17, 77009, Note_on_c, 14, 52, 0
17, 77040, Note_on_c, 14, 48, 84
17, 77399, Note_on_c, 14, 48, 0
17, 77400, Note_on_c, 14, 43, 84
17, 77519, Note_on_c, 14, 43, 0
17, 77640, Note_on_c, 14, 52, 84
17, 77729, Note_on_c, 14, 52, 0
17, 77760, Control_c, 14, 11, 127
17, 77760, Note_on_c, 14, 48, 84
17, 77790, Control_c, 14, 11, 126
17, 77820, Control_c, 14, 11, 124
17, 77850, Control_c, 14, 11, 123
17, 77880, Control_c, 14, 11, 122
17, 77910, Control_c, 14, 11, 120
17, 77940, Control_c, 14, 11, 119
17, 77970, Control_c, 14, 11, 118
17, 78000, Control_c, 14, 11, 117
17, 78030, Control_c, 14, 11, 115
17, 78060, Control_c, 14, 11, 114
17, 78090, Control_c, 14, 11, 113
17, 78120, Control_c, 14, 11, 111
17, 78150, Control_c, 14, 11, 110
17, 78180, Control_c, 14, 11, 109
17, 78210, Control_c, 14, 11, 107
17, 78240, Control_c, 14, 11, 106
17, 78270, Control_c, 14, 11, 105
17, 78300, Control_c, 14, 11, 103
17, 78330, Control_c, 14, 11, 102
17, 78360, Control_c, 14, 11, 101
17, 78390, Control_c, 14, 11, 99
17, 78420, Control_c, 14, 11, 98
17, 78450, Control_c, 14, 11, 97
17, 78479, Note_on_c, 14, 48, 0
17, 78480, Control_c, 14, 11, 96
17, 78480, Note_on_c, 14, 48, 84
17, 78510, Control_c, 14, 11, 94
17, 78540, Control_c, 14, 11, 93
17, 78570, Control_c, 14, 11, 92
17, 78600, Control_c, 14, 11, 90
17, 78630, Control_c, 14, 11, 89
17, 78660, Control_c, 14, 11, 88
17, 78690, Control_c, 14, 11, 86
17, 78720, Control_c, 14, 11, 85
17, 78750, Control_c, 14, 11, 84
17, 78780, Control_c, 14, 11, 82
17, 78810, Control_c, 14, 11, 81
17, 78840, Control_c, 14, 11, 80
17, 78870, Control_c, 14, 11, 78
17, 78900, Control_c, 14, 11, 77
17, 78930, Control_c, 14, 11, 76
17, 78960, Control_c, 14, 11, 75
17, 78990, Control_c, 14, 11, 73
17, 79020, Control_c, 14, 11, 72
17, 79050, Control_c, 14, 11, 71
17, 79080, Control_c, 14, 11, 69
17, 79110, Control_c, 14, 11, 68
17, 79140, Control_c, 14, 11, 67
17, 79170, Control_c, 14, 11, 64
17, 79199, Note_on_c, 14, 48, 0
17, 79200, Note_on_c, 14, 48, 84
17, 79919, Note_on_c, 14, 48, 0
17, 79920, Control_c, 14, 11, 64
17, 79920, Note_on_c, 14, 48, 84
17, 79965, Control_c, 14, 11, 63
17, 80010, Control_c, 14, 11, 62
17, 80055, Control_c, 14, 11, 61
17, 80100, Control_c, 14, 11, 60
17, 80145, Control_c, 14, 11, 59
17, 80190, Control_c, 14, 11, 58
17, 80235, Control_c, 14, 11, 57
17, 80280, Control_c, 14, 11, 56
17, 80325, Control_c, 14, 11, 55
17, 80370, Control_c, 14, 11, 54
17, 80415, Control_c, 14, 11, 53
17, 80460, Control_c, 14, 11, 52
17, 80505, Control_c, 14, 11, 51
17, 80550, Control_c, 14, 11, 50
17, 80595, Control_c, 14, 11, 48
17, 80639, Note_on_c, 14, 48, 0
17, 80640, Note_on_c, 14, 48, 84
17, 81359, Note_on_c, 14, 48, 0
17, 81360, Note_on_c, 14, 48, 84
17, 81711, Note_on_c, 14, 48, 0
17, 81718, Control_c, 14, 11, 64
17, 81720, Control_c, 14, 11, 64
17, 81720, Note_on_c, 14, 48, 76
17, 81720, Note_on_c, 14, 41, 76
17, 81758, Control_c, 14, 11, 65
17, 81795, Control_c, 14, 11, 66
17, 81833, Control_c, 14, 11, 67
17, 81870, Control_c, 14, 11, 68
17, 81908, Control_c, 14, 11, 69
17, 81945, Control_c, 14, 11, 70
17, 81983, Control_c, 14, 11, 71
17, 82020, Control_c, 14, 11, 72
17, 82058, Control_c, 14, 11, 73
17, 82079, Note_on_c, 14, 48, 0
17, 82079, Note_on_c, 14, 41, 0
17, 82080, Note_on_c, 14, 41, 76
17, 82080, Note_on_c, 14, 48, 76
17, 82095, Control_c, 14, 11, 74
17, 82133, Control_c, 14, 11, 75
17, 82170, Control_c, 14, 11, 76
17, 82208, Control_c, 14, 11, 77
17, 82245, Control_c, 14, 11, 78
17, 82283, Control_c, 14, 11, 79
17, 82320, Control_c, 14, 11, 80
17, 82358, Control_c, 14, 11, 81
17, 82395, Control_c, 14, 11, 82
17, 82433, Control_c, 14, 11, 83
17, 82470, Control_c, 14, 11, 84
17, 82508, Control_c, 14, 11, 85
17, 82545, Control_c, 14, 11, 86
17, 82583, Control_c, 14, 11, 87
17, 82620, Control_c, 14, 11, 88
17, 82658, Control_c, 14, 11, 89
17, 82695, Control_c, 14, 11, 90
17, 82733, Control_c, 14, 11, 91
17, 82770, Control_c, 14, 11, 92
17, 82799, Note_on_c, 14, 41, 0
17, 82799, Note_on_c, 14, 48, 0
17, 82800, Note_on_c, 14, 41, 76
17, 82800, Note_on_c, 14, 48, 76
17, 82808, Control_c, 14, 11, 93
17, 82845, Control_c, 14, 11, 94
17, 82883, Control_c, 14, 11, 95
17, 82920, Control_c, 14, 11, 96
17, 82958, Control_c, 14, 11, 97
17, 82995, Control_c, 14, 11, 98
17, 83033, Control_c, 14, 11, 99
17, 83070, Control_c, 14, 11, 100
17, 83108, Control_c, 14, 11, 101
17, 83145, Control_c, 14, 11, 102
17, 83183, Control_c, 14, 11, 103
17, 83220, Control_c, 14, 11, 104
17, 83258, Control_c, 14, 11, 105
17, 83295, Control_c, 14, 11, 106
17, 83333, Control_c, 14, 11, 107
17, 83370, Control_c, 14, 11, 108
17, 83408, Control_c, 14, 11, 109
17, 83445, Control_c, 14, 11, 110
17, 83483, Control_c, 14, 11, 112
17, 83511, Note_on_c, 14, 41, 0
17, 83511, Note_on_c, 14, 48, 0
17, 83520, Note_on_c, 14, 48, 60
17, 83520, Note_on_c, 14, 41, 60
17, 83759, Note_on_c, 14, 48, 0
17, 83759, Note_on_c, 14, 41, 0
17, 84000, Control_c, 14, 11, 127
17, 84000, Program_c, 14, 45
17, 84120, Note_on_c, 14, 53, 48
17, 84239, Note_on_c, 14, 53, 0
17, 84240, Note_on_c, 14, 53, 48
17, 84479, Note_on_c, 14, 53, 0
17, 84840, Note_on_c, 14, 53, 48
17, 84959, Note_on_c, 14, 53, 0
17, 84960, Note_on_c, 14, 53, 48
17, 85199, Note_on_c, 14, 53, 0
17, 85560, Note_on_c, 14, 53, 48
17, 85679, Note_on_c, 14, 53, 0
17, 85680, Note_on_c, 14, 50, 48
17, 85919, Note_on_c, 14, 50, 0
17, 86280, Note_on_c, 14, 52, 48
17, 86399, Note_on_c, 14, 52, 0
17, 86400, Note_on_c, 14, 52, 48
17, 86639, Note_on_c, 14, 52, 0
17, 87000, Note_on_c, 14, 48, 48
17, 87119, Note_on_c, 14, 48, 0
17, 87120, Note_on_c, 14, 53, 48
17, 87359, Note_on_c, 14, 53, 0
17, 87480, Note_on_c, 14, 50, 48
17, 87719, Note_on_c, 14, 50, 0
17, 87720, Note_on_c, 14, 45, 48
17, 87839, Note_on_c, 14, 45, 0
17, 87840, Note_on_c, 14, 46, 48
17, 88079, Note_on_c, 14, 46, 0
17, 88200, Note_on_c, 14, 48, 48
17, 88439, Note_on_c, 14, 48, 0
17, 88440, Note_on_c, 14, 36, 48
17, 88559, Note_on_c, 14, 36, 0
17, 88560, Note_on_c, 14, 41, 48
17, 88799, Note_on_c, 14, 41, 0
17, 89160, Note_on_c, 14, 53, 50
17, 89279, Note_on_c, 14, 53, 0
17, 89280, Note_on_c, 14, 53, 51
17, 89519, Note_on_c, 14, 53, 0
17, 89880, Note_on_c, 14, 53, 53
17, 89999, Note_on_c, 14, 53, 0
17, 90000, Note_on_c, 14, 53, 54
17, 90239, Note_on_c, 14, 53, 0
17, 90600, Note_on_c, 14, 53, 56
17, 90719, Note_on_c, 14, 53, 0
17, 90720, Note_on_c, 14, 53, 57
17, 90959, Note_on_c, 14, 53, 0
17, 91320, Note_on_c, 14, 53, 59
17, 91439, Note_on_c, 14, 53, 0
17, 91440, Note_on_c, 14, 50, 60
17, 91679, Note_on_c, 14, 50, 0
17, 92040, Note_on_c, 14, 52, 63
17, 92159, Note_on_c, 14, 52, 0
17, 92160, Note_on_c, 14, 52, 63
17, 92399, Note_on_c, 14, 52, 0
17, 92760, Note_on_c, 14, 48, 66
17, 92879, Note_on_c, 14, 48, 0
17, 92880, Note_on_c, 14, 53, 66
17, 93119, Note_on_c, 14, 53, 0
17, 93240, Note_on_c, 14, 50, 68
17, 93479, Note_on_c, 14, 50, 0
17, 93480, Note_on_c, 14, 45, 69
17, 93599, Note_on_c, 14, 45, 0
17, 93600, Note_on_c, 14, 46, 69
17, 93839, Note_on_c, 14, 46, 0
17, 93960, Note_on_c, 14, 48, 71
17, 94199, Note_on_c, 14, 48, 0
17, 94200, Note_on_c, 14, 48, 72
17, 94319, Note_on_c, 14, 48, 0
17, 94320, Note_on_c, 14, 53, 72
17, 94559, Note_on_c, 14, 53, 0
17, 94920, Program_c, 14, 48
17, 95040, Note_on_c, 14, 57, 84
17, 95099, Note_on_c, 14, 57, 0
17, 95100, Note_on_c, 14, 58, 84
17, 95159, Note_on_c, 14, 58, 0
17, 95160, Note_on_c, 14, 57, 84
17, 95219, Note_on_c, 14, 57, 0
17, 95220, Note_on_c, 14, 55, 84
17, 95279, Note_on_c, 14, 55, 0
17, 95280, Note_on_c, 14, 53, 84
17, 95339, Note_on_c, 14, 53, 0
17, 95340, Note_on_c, 14, 52, 84
17, 95399, Note_on_c, 14, 52, 0
17, 95400, Note_on_c, 14, 53, 84
17, 95459, Note_on_c, 14, 53, 0
17, 95460, Note_on_c, 14, 55, 84
17, 95519, Note_on_c, 14, 55, 0
17, 95520, Note_on_c, 14, 57, 84
17, 95579, Note_on_c, 14, 57, 0
17, 95580, Note_on_c, 14, 58, 84
17, 95639, Note_on_c, 14, 58, 0
17, 95640, Note_on_c, 14, 60, 84
17, 95699, Note_on_c, 14, 60, 0
17, 95700, Note_on_c, 14, 58, 84
17, 95755, Note_on_c, 14, 58, 0
17, 95760, Note_on_c, 14, 57, 84
17, 95819, Note_on_c, 14, 57, 0
17, 95820, Note_on_c, 14, 58, 84
17, 95879, Note_on_c, 14, 58, 0
17, 95880, Note_on_c, 14, 57, 84
17, 95939, Note_on_c, 14, 57, 0
17, 95940, Note_on_c, 14, 55, 84
17, 95999, Note_on_c, 14, 55, 0
17, 96000, Note_on_c, 14, 53, 84
17, 96059, Note_on_c, 14, 53, 0
17, 96060, Note_on_c, 14, 52, 84
17, 96119, Note_on_c, 14, 52, 0
17, 96120, Note_on_c, 14, 53, 84
17, 96179, Note_on_c, 14, 53, 0
17, 96180, Note_on_c, 14, 52, 84
17, 96239, Note_on_c, 14, 52, 0
17, 96240, Note_on_c, 14, 53, 84
17, 96299, Note_on_c, 14, 53, 0
17, 96300, Note_on_c, 14, 48, 84
17, 96359, Note_on_c, 14, 48, 0
17, 96360, Note_on_c, 14, 50, 84
17, 96419, Note_on_c, 14, 50, 0
17, 96420, Note_on_c, 14, 52, 84
17, 96475, Note_on_c, 14, 52, 0
17, 96480, Note_on_c, 14, 53, 84
17, 96539, Note_on_c, 14, 53, 0
17, 96540, Note_on_c, 14, 55, 84
17, 96599, Note_on_c, 14, 55, 0
17, 96600, Note_on_c, 14, 53, 84
17, 96659, Note_on_c, 14, 53, 0
17, 96660, Note_on_c, 14, 52, 84
17, 96719, Note_on_c, 14, 52, 0
17, 96720, Note_on_c, 14, 53, 84
17, 96779, Note_on_c, 14, 53, 0
17, 96780, Note_on_c, 14, 55, 84
17, 96839, Note_on_c, 14, 55, 0
17, 96840, Note_on_c, 14, 57, 84
17, 96899, Note_on_c, 14, 57, 0
17, 96900, Note_on_c, 14, 58, 84
17, 96959, Note_on_c, 14, 58, 0
17, 96960, Note_on_c, 14, 60, 84
17, 97019, Note_on_c, 14, 60, 0
17, 97020, Note_on_c, 14, 59, 84
17, 97079, Note_on_c, 14, 59, 0
17, 97080, Note_on_c, 14, 60, 84
17, 97139, Note_on_c, 14, 60, 0
17, 97140, Note_on_c, 14, 57, 84
17, 97195, Note_on_c, 14, 57, 0
17, 97200, Note_on_c, 14, 58, 84
17, 97259, Note_on_c, 14, 58, 0
17, 97260, Note_on_c, 14, 60, 84
17, 97319, Note_on_c, 14, 60, 0
17, 97320, Note_on_c, 14, 62, 84
17, 97379, Note_on_c, 14, 62, 0
17, 97380, Note_on_c, 14, 60, 84
17, 97439, Note_on_c, 14, 60, 0
17, 97440, Note_on_c, 14, 58, 84
17, 97499, Note_on_c, 14, 58, 0
17, 97500, Note_on_c, 14, 60, 84
17, 97559, Note_on_c, 14, 60, 0
17, 97560, Note_on_c, 14, 58, 84
17, 97619, Note_on_c, 14, 58, 0
17, 97620, Note_on_c, 14, 60, 84
17, 97679, Note_on_c, 14, 60, 0
17, 97680, Note_on_c, 14, 58, 84
17, 97739, Note_on_c, 14, 58, 0
17, 97740, Note_on_c, 14, 57, 84
17, 97799, Note_on_c, 14, 57, 0
17, 97800, Note_on_c, 14, 55, 84
17, 97859, Note_on_c, 14, 55, 0
17, 97860, Note_on_c, 14, 57, 84
17, 97915, Note_on_c, 14, 57, 0
17, 97920, Note_on_c, 14, 58, 84
17, 97979, Note_on_c, 14, 58, 0
17, 97980, Note_on_c, 14, 60, 84
17, 98039, Note_on_c, 14, 60, 0
17, 98040, Note_on_c, 14, 58, 84
17, 98099, Note_on_c, 14, 58, 0
17, 98100, Note_on_c, 14, 57, 84
17, 98159, Note_on_c, 14, 57, 0
17, 98160, Note_on_c, 14, 55, 84
17, 98219, Note_on_c, 14, 55, 0
17, 98220, Note_on_c, 14, 54, 84
17, 98279, Note_on_c, 14, 54, 0
17, 98280, Note_on_c, 14, 55, 84
17, 98339, Note_on_c, 14, 55, 0
17, 98340, Note_on_c, 14, 57, 84
17, 98399, Note_on_c, 14, 57, 0
17, 98400, Note_on_c, 14, 58, 84
17, 98459, Note_on_c, 14, 58, 0
17, 98460, Note_on_c, 14, 59, 84
17, 98519, Note_on_c, 14, 59, 0
17, 98520, Note_on_c, 14, 60, 84
17, 98579, Note_on_c, 14, 60, 0
17, 98580, Note_on_c, 14, 58, 84
17, 98635, Note_on_c, 14, 58, 0
17, 98640, Note_on_c, 14, 57, 84
17, 98699, Note_on_c, 14, 57, 0
17, 98700, Note_on_c, 14, 58, 84
17, 98759, Note_on_c, 14, 58, 0
17, 98760, Note_on_c, 14, 57, 84
17, 98819, Note_on_c, 14, 57, 0
17, 98820, Note_on_c, 14, 55, 84
17, 98879, Note_on_c, 14, 55, 0
17, 98880, Note_on_c, 14, 57, 84
17, 98939, Note_on_c, 14, 57, 0
17, 98940, Note_on_c, 14, 55, 84
17, 98999, Note_on_c, 14, 55, 0
17, 99000, Note_on_c, 14, 53, 84
17, 99059, Note_on_c, 14, 53, 0
17, 99060, Note_on_c, 14, 55, 84
17, 99119, Note_on_c, 14, 55, 0
17, 99120, Note_on_c, 14, 53, 84
17, 99179, Note_on_c, 14, 53, 0
17, 99180, Note_on_c, 14, 52, 84
17, 99239, Note_on_c, 14, 52, 0
17, 99240, Note_on_c, 14, 53, 84
17, 99299, Note_on_c, 14, 53, 0
17, 99300, Note_on_c, 14, 57, 84
17, 99355, Note_on_c, 14, 57, 0
17, 99360, Note_on_c, 14, 57, 84
17, 99419, Note_on_c, 14, 57, 0
17, 99420, Note_on_c, 14, 55, 84
17, 99479, Note_on_c, 14, 55, 0
17, 99480, Note_on_c, 14, 53, 84
17, 99539, Note_on_c, 14, 53, 0
17, 99540, Note_on_c, 14, 55, 84
17, 99599, Note_on_c, 14, 55, 0
17, 99600, Note_on_c, 14, 50, 84
17, 99659, Note_on_c, 14, 50, 0
17, 99660, Note_on_c, 14, 55, 84
17, 99719, Note_on_c, 14, 55, 0
17, 99720, Note_on_c, 14, 53, 84
17, 99779, Note_on_c, 14, 53, 0
17, 99780, Note_on_c, 14, 52, 84
17, 99839, Note_on_c, 14, 52, 0
17, 99840, Note_on_c, 14, 50, 84
17, 99899, Note_on_c, 14, 50, 0
17, 99900, Note_on_c, 14, 52, 84
17, 99959, Note_on_c, 14, 52, 0
17, 99960, Note_on_c, 14, 48, 84
17, 100019, Note_on_c, 14, 48, 0
17, 100020, Note_on_c, 14, 52, 84
17, 100075, Note_on_c, 14, 52, 0
17, 100080, Note_on_c, 14, 48, 84
17, 100199, Note_on_c, 14, 48, 0
17, 100200, Note_on_c, 14, 53, 84
17, 100435, Note_on_c, 14, 53, 0
17, 100440, Note_on_c, 14, 48, 84
17, 100559, Note_on_c, 14, 48, 0
17, 100560, Note_on_c, 14, 55, 84
17, 100795, Note_on_c, 14, 55, 0
17, 100800, Note_on_c, 14, 48, 84
17, 100919, Note_on_c, 14, 48, 0
17, 100920, Note_on_c, 14, 57, 84
17, 101151, Note_on_c, 14, 57, 0
17, 101160, Note_on_c, 14, 60, 84
17, 101279, Note_on_c, 14, 60, 0
17, 101280, Note_on_c, 14, 58, 84
17, 101391, Note_on_c, 14, 58, 0
17, 101400, Note_on_c, 14, 55, 84
17, 101444, Note_on_c, 14, 55, 0
17, 101460, Note_on_c, 14, 52, 84
17, 101504, Note_on_c, 14, 52, 0
17, 101520, Note_on_c, 14, 48, 84
17, 101579, Note_on_c, 14, 48, 0
17, 101580, Note_on_c, 14, 53, 84
17, 101639, Note_on_c, 14, 53, 0
17, 101640, Note_on_c, 14, 57, 84
17, 101699, Note_on_c, 14, 57, 0
17, 101700, Note_on_c, 14, 60, 84
17, 101759, Note_on_c, 14, 60, 0
17, 101760, Note_on_c, 14, 57, 84
17, 101819, Note_on_c, 14, 57, 0
17, 101820, Note_on_c, 14, 53, 84
17, 101875, Note_on_c, 14, 53, 0
17, 101880, Note_on_c, 14, 48, 84
17, 101939, Note_on_c, 14, 48, 0
17, 101940, Note_on_c, 14, 55, 84
17, 101999, Note_on_c, 14, 55, 0
17, 102000, Note_on_c, 14, 58, 84
17, 102059, Note_on_c, 14, 58, 0
17, 102060, Note_on_c, 14, 60, 84
17, 102119, Note_on_c, 14, 60, 0
17, 102120, Note_on_c, 14, 58, 84
17, 102179, Note_on_c, 14, 58, 0
17, 102180, Note_on_c, 14, 55, 84
17, 102235, Note_on_c, 14, 55, 0
17, 102240, Note_on_c, 14, 48, 84
17, 102299, Note_on_c, 14, 48, 0
17, 102300, Note_on_c, 14, 53, 84
17, 102359, Note_on_c, 14, 53, 0
17, 102360, Note_on_c, 14, 57, 84
17, 102419, Note_on_c, 14, 57, 0
17, 102420, Note_on_c, 14, 60, 84
17, 102479, Note_on_c, 14, 60, 0
17, 102480, Note_on_c, 14, 57, 84
17, 102539, Note_on_c, 14, 57, 0
17, 102540, Note_on_c, 14, 53, 84
17, 102595, Note_on_c, 14, 53, 0
17, 102600, Note_on_c, 14, 48, 84
17, 102659, Note_on_c, 14, 48, 0
17, 102660, Note_on_c, 14, 55, 84
17, 102719, Note_on_c, 14, 55, 0
17, 102720, Note_on_c, 14, 58, 84
17, 102779, Note_on_c, 14, 58, 0
17, 102780, Note_on_c, 14, 60, 84
17, 102835, Note_on_c, 14, 60, 0
17, 102840, Note_on_c, 14, 48, 84
17, 102951, Note_on_c, 14, 48, 0
17, 102960, Note_on_c, 14, 48, 84
17, 103079, Note_on_c, 14, 48, 0
17, 103080, Note_on_c, 14, 53, 84
17, 103191, Note_on_c, 14, 53, 0
17, 103200, Note_on_c, 14, 53, 84
17, 103219, Note_on_c, 14, 53, 0
17, 103220, Note_on_c, 14, 55, 84
17, 103239, Note_on_c, 14, 55, 0
17, 103240, Note_on_c, 14, 53, 84
17, 103259, Note_on_c, 14, 53, 0
17, 103260, Note_on_c, 14, 55, 84
17, 103279, Note_on_c, 14, 55, 0
17, 103280, Note_on_c, 14, 52, 84
17, 103299, Note_on_c, 14, 52, 0
17, 103300, Note_on_c, 14, 53, 84
17, 103319, Note_on_c, 14, 53, 0
17, 103320, Note_on_c, 14, 48, 84
17, 103439, Note_on_c, 14, 48, 0
17, 103440, Note_on_c, 14, 55, 84
17, 103551, Note_on_c, 14, 55, 0
17, 103560, Note_on_c, 14, 55, 84
17, 103579, Note_on_c, 14, 55, 0
17, 103580, Note_on_c, 14, 57, 84
17, 103599, Note_on_c, 14, 57, 0
17, 103600, Note_on_c, 14, 55, 84
17, 103619, Note_on_c, 14, 55, 0
17, 103620, Note_on_c, 14, 57, 84
17, 103639, Note_on_c, 14, 57, 0
17, 103640, Note_on_c, 14, 53, 84
17, 103659, Note_on_c, 14, 53, 0
17, 103660, Note_on_c, 14, 55, 84
17, 103679, Note_on_c, 14, 55, 0
17, 103680, Note_on_c, 14, 48, 84
17, 103799, Note_on_c, 14, 48, 0
17, 103800, Note_on_c, 14, 57, 84
17, 103911, Note_on_c, 14, 57, 0
17, 103920, Note_on_c, 14, 57, 84
17, 103939, Note_on_c, 14, 57, 0
17, 103940, Note_on_c, 14, 59, 84
17, 103959, Note_on_c, 14, 59, 0
17, 103960, Note_on_c, 14, 57, 84
17, 103979, Note_on_c, 14, 57, 0
17, 103980, Note_on_c, 14, 59, 84
17, 103999, Note_on_c, 14, 59, 0
17, 104000, Note_on_c, 14, 55, 84
17, 104019, Note_on_c, 14, 55, 0
17, 104020, Note_on_c, 14, 57, 84
17, 104039, Note_on_c, 14, 57, 0
17, 104040, Note_on_c, 14, 60, 92
17, 104099, Note_on_c, 14, 60, 0
17, 104100, Note_on_c, 14, 60, 84
17, 104159, Note_on_c, 14, 60, 0
17, 104160, Note_on_c, 14, 59, 84
17, 104271, Note_on_c, 14, 59, 0
17, 104280, Note_on_c, 14, 53, 84
17, 104324, Note_on_c, 14, 53, 0
17, 104340, Note_on_c, 14, 50, 84
17, 104384, Note_on_c, 14, 50, 0
17, 104760, Note_on_c, 14, 64, 92
17, 104819, Note_on_c, 14, 64, 0
17, 104820, Note_on_c, 14, 64, 84
17, 104879, Note_on_c, 14, 64, 0
17, 104880, Note_on_c, 14, 62, 84
17, 104991, Note_on_c, 14, 62, 0
17, 105000, Note_on_c, 14, 59, 84
17, 105044, Note_on_c, 14, 59, 0
17, 105060, Note_on_c, 14, 55, 84
17, 105104, Note_on_c, 14, 55, 0
17, 105480, Note_on_c, 14, 67, 92
17, 105539, Note_on_c, 14, 67, 0
17, 105540, Note_on_c, 14, 67, 84
17, 105599, Note_on_c, 14, 67, 0
17, 105600, Note_on_c, 14, 65, 84
17, 105711, Note_on_c, 14, 65, 0
17, 105720, Note_on_c, 14, 62, 84
17, 105764, Note_on_c, 14, 62, 0
17, 105780, Note_on_c, 14, 59, 84
17, 105824, Note_on_c, 14, 59, 0
17, 105840, Note_on_c, 14, 52, 88
17, 106079, Note_on_c, 14, 52, 0
17, 106440, Note_on_c, 14, 53, 88
17, 106551, Note_on_c, 14, 53, 0
17, 106560, Note_on_c, 14, 55, 88
17, 106791, Note_on_c, 14, 55, 0
17, 106800, Note_on_c, 14, 48, 88
17, 106911, Note_on_c, 14, 48, 0
17, 106920, Note_on_c, 14, 48, 88
17, 107151, Note_on_c, 14, 48, 0
17, 107160, Note_on_c, 14, 48, 88
17, 107271, Note_on_c, 14, 48, 0
17, 107280, Note_on_c, 14, 48, 96
17, 107339, Note_on_c, 14, 48, 0
17, 107340, Note_on_c, 14, 48, 88
17, 107991, Note_on_c, 14, 48, 0
17, 108000, Note_on_c, 14, 62, 88
17, 108119, Note_on_c, 14, 62, 0
17, 108120, Note_on_c, 14, 60, 88
17, 108231, Note_on_c, 14, 60, 0
17, 108240, Note_on_c, 14, 57, 88
17, 108284, Note_on_c, 14, 57, 0
17, 108300, Note_on_c, 14, 53, 88
17, 108344, Note_on_c, 14, 53, 0
17, 108360, Note_on_c, 14, 50, 88
17, 108479, Note_on_c, 14, 50, 0
17, 108480, Note_on_c, 14, 48, 88
17, 108591, Note_on_c, 14, 48, 0
17, 108600, Note_on_c, 14, 45, 88
17, 108644, Note_on_c, 14, 45, 0
17, 108660, Note_on_c, 14, 41, 88
17, 108704, Note_on_c, 14, 41, 0
17, 108720, Note_on_c, 14, 36, 88
17, 109431, Note_on_c, 14, 36, 0
17, 109440, Note_on_c, 14, 60, 88
17, 109559, Note_on_c, 14, 60, 0
17, 109560, Note_on_c, 14, 58, 88
17, 109671, Note_on_c, 14, 58, 0
17, 109680, Note_on_c, 14, 55, 88
17, 109724, Note_on_c, 14, 55, 0
17, 109740, Note_on_c, 14, 52, 88
17, 109784, Note_on_c, 14, 52, 0
17, 109800, Note_on_c, 14, 48, 88
17, 109919, Note_on_c, 14, 48, 0
17, 109920, Note_on_c, 14, 46, 88
17, 110031, Note_on_c, 14, 46, 0
17, 110040, Note_on_c, 14, 43, 88
17, 110084, Note_on_c, 14, 43, 0
17, 110100, Note_on_c, 14, 40, 88
17, 110144, Note_on_c, 14, 40, 0
17, 110160, Note_on_c, 14, 36, 88
17, 110871, Note_on_c, 14, 36, 0
17, 110880, Note_on_c, 14, 62, 88
17, 110939, Note_on_c, 14, 62, 0
17, 110940, Note_on_c, 14, 60, 88
17, 110995, Note_on_c, 14, 60, 0
17, 111000, Note_on_c, 14, 59, 88
17, 111044, Note_on_c, 14, 59, 0
17, 111060, Note_on_c, 14, 60, 88
17, 111104, Note_on_c, 14, 60, 0
17, 111120, Note_on_c, 14, 57, 88
17, 111164, Note_on_c, 14, 57, 0
17, 111180, Note_on_c, 14, 53, 88
17, 111224, Note_on_c, 14, 53, 0
17, 111240, Note_on_c, 14, 50, 88
17, 111299, Note_on_c, 14, 50, 0
17, 111300, Note_on_c, 14, 48, 88
17, 111355, Note_on_c, 14, 48, 0
17, 111360, Note_on_c, 14, 47, 88
17, 111404, Note_on_c, 14, 47, 0
17, 111420, Note_on_c, 14, 48, 88
17, 111464, Note_on_c, 14, 48, 0
17, 111480, Note_on_c, 14, 45, 88
17, 111524, Note_on_c, 14, 45, 0
17, 111540, Note_on_c, 14, 41, 88
17, 111584, Note_on_c, 14, 41, 0
17, 111600, Note_on_c, 14, 36, 88
17, 112311, Note_on_c, 14, 36, 0
17, 112320, Note_on_c, 14, 60, 88
17, 112379, Note_on_c, 14, 60, 0
17, 112380, Note_on_c, 14, 58, 88
17, 112435, Note_on_c, 14, 58, 0
17, 112440, Note_on_c, 14, 57, 88
17, 112484, Note_on_c, 14, 57, 0
17, 112500, Note_on_c, 14, 58, 88
17, 112544, Note_on_c, 14, 58, 0
17, 112560, Note_on_c, 14, 55, 88
17, 112604, Note_on_c, 14, 55, 0
17, 112620, Note_on_c, 14, 52, 88
17, 112664, Note_on_c, 14, 52, 0
17, 112680, Note_on_c, 14, 48, 88
17, 112739, Note_on_c, 14, 48, 0
17, 112740, Note_on_c, 14, 46, 88
17, 112795, Note_on_c, 14, 46, 0
17, 112800, Note_on_c, 14, 43, 88
17, 112844, Note_on_c, 14, 43, 0
17, 112860, Note_on_c, 14, 40, 88
17, 112904, Note_on_c, 14, 40, 0
17, 112920, Note_on_c, 14, 36, 88
17, 112964, Note_on_c, 14, 36, 0
17, 112980, Note_on_c, 14, 48, 88
17, 113024, Note_on_c, 14, 48, 0
17, 113040, Note_on_c, 14, 41, 76
17, 113099, Note_on_c, 14, 41, 0
17, 113100, Note_on_c, 14, 65, 52
17, 113159, Note_on_c, 14, 65, 0
17, 113160, Note_on_c, 14, 64, 52
17, 113219, Note_on_c, 14, 64, 0
17, 113220, Note_on_c, 14, 65, 52
17, 113279, Note_on_c, 14, 65, 0
17, 113280, Note_on_c, 14, 67, 52
17, 113339, Note_on_c, 14, 67, 0
17, 113340, Note_on_c, 14, 65, 52
17, 113395, Note_on_c, 14, 65, 0
17, 113400, Note_on_c, 14, 62, 52
17, 113459, Note_on_c, 14, 62, 0
17, 113460, Note_on_c, 14, 65, 53
17, 113519, Note_on_c, 14, 65, 0
17, 113520, Note_on_c, 14, 60, 54
17, 113579, Note_on_c, 14, 60, 0
17, 113580, Note_on_c, 14, 65, 56
17, 113639, Note_on_c, 14, 65, 0
17, 113640, Note_on_c, 14, 58, 57
17, 113699, Note_on_c, 14, 58, 0
17, 113700, Note_on_c, 14, 65, 58
17, 113755, Note_on_c, 14, 65, 0
17, 113760, Note_on_c, 14, 57, 60
17, 113819, Note_on_c, 14, 57, 0
17, 113820, Note_on_c, 14, 60, 61
17, 113879, Note_on_c, 14, 60, 0
17, 113880, Note_on_c, 14, 55, 62
17, 113939, Note_on_c, 14, 55, 0
17, 113940, Note_on_c, 14, 60, 64
17, 113999, Note_on_c, 14, 60, 0
17, 114000, Note_on_c, 14, 53, 65
17, 114059, Note_on_c, 14, 53, 0
17, 114060, Note_on_c, 14, 60, 66
17, 114115, Note_on_c, 14, 60, 0
17, 114120, Note_on_c, 14, 48, 68
17, 114179, Note_on_c, 14, 48, 0
17, 114180, Note_on_c, 14, 52, 69
17, 114239, Note_on_c, 14, 52, 0
17, 114240, Note_on_c, 14, 55, 70
17, 114299, Note_on_c, 14, 55, 0
17, 114300, Note_on_c, 14, 60, 72
17, 114359, Note_on_c, 14, 60, 0
17, 114360, Note_on_c, 14, 48, 73
17, 114419, Note_on_c, 14, 48, 0
17, 114420, Note_on_c, 14, 60, 74
17, 114475, Note_on_c, 14, 60, 0
17, 114480, Note_on_c, 14, 41, 76
17, 114539, Note_on_c, 14, 41, 0
17, 114540, Note_on_c, 14, 53, 52
17, 114599, Note_on_c, 14, 53, 0
17, 114600, Note_on_c, 14, 52, 52
17, 114659, Note_on_c, 14, 52, 0
17, 114660, Note_on_c, 14, 53, 52
17, 114719, Note_on_c, 14, 53, 0
17, 114720, Note_on_c, 14, 55, 52
17, 114779, Note_on_c, 14, 55, 0
17, 114780, Note_on_c, 14, 53, 52
17, 114835, Note_on_c, 14, 53, 0
17, 114840, Note_on_c, 14, 50, 52
17, 114899, Note_on_c, 14, 50, 0
17, 114900, Note_on_c, 14, 53, 54
17, 114959, Note_on_c, 14, 53, 0
17, 114960, Note_on_c, 14, 48, 56
17, 115019, Note_on_c, 14, 48, 0
17, 115020, Note_on_c, 14, 53, 58
17, 115079, Note_on_c, 14, 53, 0
17, 115080, Note_on_c, 14, 46, 60
17, 115139, Note_on_c, 14, 46, 0
17, 115140, Note_on_c, 14, 53, 62
17, 115195, Note_on_c, 14, 53, 0
17, 115200, Note_on_c, 14, 45, 64
17, 115259, Note_on_c, 14, 45, 0
17, 115260, Note_on_c, 14, 48, 66
17, 115319, Note_on_c, 14, 48, 0
17, 115320, Note_on_c, 14, 43, 68
17, 115379, Note_on_c, 14, 43, 0
17, 115380, Note_on_c, 14, 48, 70
17, 115439, Note_on_c, 14, 48, 0
17, 115440, Note_on_c, 14, 41, 72
17, 115499, Note_on_c, 14, 41, 0
17, 115500, Note_on_c, 14, 48, 74
17, 115555, Note_on_c, 14, 48, 0
17, 115560, Note_on_c, 14, 36, 76
17, 115619, Note_on_c, 14, 36, 0
17, 115620, Note_on_c, 14, 40, 76
17, 115679, Note_on_c, 14, 40, 0
17, 115680, Note_on_c, 14, 43, 76
17, 115739, Note_on_c, 14, 43, 0
17, 115740, Note_on_c, 14, 48, 76
17, 115799, Note_on_c, 14, 48, 0
17, 115800, Note_on_c, 14, 36, 76
17, 115859, Note_on_c, 14, 36, 0
17, 115860, Note_on_c, 14, 48, 76
17, 115915, Note_on_c, 14, 48, 0
17, 115920, Note_on_c, 14, 41, 84
17, 116399, Note_on_c, 14, 41, 0
17, 116520, Note_on_c, 14, 41, 84
17, 116609, Note_on_c, 14, 41, 0
17, 116640, Note_on_c, 14, 46, 84
17, 117119, Note_on_c, 14, 46, 0
17, 117240, Note_on_c, 14, 46, 84
17, 117329, Note_on_c, 14, 46, 0
17, 117360, Note_on_c, 14, 48, 84
17, 117360, Control_c, 14, 11, 127
17, 117390, Control_c, 14, 11, 124
17, 117420, Control_c, 14, 11, 122
17, 117450, Control_c, 14, 11, 119
17, 117480, Control_c, 14, 11, 117
17, 117510, Control_c, 14, 11, 114
17, 117540, Control_c, 14, 11, 111
17, 117570, Control_c, 14, 11, 109
17, 117600, Control_c, 14, 11, 106
17, 117630, Control_c, 14, 11, 103
17, 117660, Control_c, 14, 11, 101
17, 117690, Control_c, 14, 11, 98
17, 117720, Control_c, 14, 11, 96
17, 117750, Control_c, 14, 11, 93
17, 117780, Control_c, 14, 11, 90
17, 117810, Control_c, 14, 11, 88
17, 117840, Control_c, 14, 11, 85
17, 117870, Control_c, 14, 11, 82
17, 117900, Control_c, 14, 11, 80
17, 117930, Control_c, 14, 11, 77
17, 117960, Control_c, 14, 11, 75
17, 117990, Control_c, 14, 11, 72
17, 118020, Control_c, 14, 11, 69
17, 118050, Control_c, 14, 11, 64
17, 118079, Note_on_c, 14, 48, 0
17, 118080, Note_on_c, 14, 48, 84
17, 118125, Control_c, 14, 11, 63
17, 118170, Control_c, 14, 11, 62
17, 118215, Control_c, 14, 11, 61
17, 118260, Control_c, 14, 11, 60
17, 118305, Control_c, 14, 11, 59
17, 118350, Control_c, 14, 11, 58
17, 118395, Control_c, 14, 11, 57
17, 118440, Control_c, 14, 11, 56
17, 118485, Control_c, 14, 11, 55
17, 118530, Control_c, 14, 11, 54
17, 118575, Control_c, 14, 11, 53
17, 118620, Control_c, 14, 11, 52
17, 118665, Control_c, 14, 11, 51
17, 118710, Control_c, 14, 11, 50
17, 118755, Control_c, 14, 11, 48
17, 118799, Note_on_c, 14, 48, 0
17, 118800, Note_on_c, 14, 48, 84
17, 119151, Note_on_c, 14, 48, 0
17, 119160, Note_on_c, 14, 50, 84
17, 119871, Note_on_c, 14, 50, 0
17, 119880, Note_on_c, 14, 43, 84
17, 120239, Note_on_c, 14, 43, 0
17, 120240, Note_on_c, 14, 43, 84
17, 121199, Note_on_c, 14, 43, 0
17, 124560, Control_c, 14, 11, 127
17, 125160, Note_on_c, 14, 43, 76
17, 125271, Note_on_c, 14, 43, 0
17, 125280, Note_on_c, 14, 40, 76
17, 125399, Note_on_c, 14, 40, 0
17, 125400, Note_on_c, 14, 33, 76
17, 125519, Note_on_c, 14, 33, 0
17, 125520, Note_on_c, 14, 43, 76
17, 125631, Note_on_c, 14, 43, 0
17, 125640, Note_on_c, 14, 40, 76
17, 125759, Note_on_c, 14, 40, 0
17, 125760, Note_on_c, 14, 52, 76
17, 125879, Note_on_c, 14, 52, 0
17, 125880, Note_on_c, 14, 43, 76
17, 125991, Note_on_c, 14, 43, 0
17, 126000, Note_on_c, 14, 55, 76
17, 126119, Note_on_c, 14, 55, 0
17, 126120, Note_on_c, 14, 48, 76
17, 126231, Note_on_c, 14, 48, 0
17, 126240, Note_on_c, 14, 60, 76
17, 126351, Note_on_c, 14, 60, 0
17, 126360, Note_on_c, 14, 36, 76
17, 126471, Note_on_c, 14, 36, 0
17, 126480, Note_on_c, 14, 48, 76
17, 126591, Note_on_c, 14, 48, 0
17, 126600, Note_on_c, 14, 36, 76
17, 126711, Note_on_c, 14, 36, 0
17, 126720, Note_on_c, 14, 57, 84
17, 127071, Note_on_c, 14, 57, 0
17, 127080, Note_on_c, 14, 53, 84
17, 127169, Note_on_c, 14, 53, 0
17, 127320, Note_on_c, 14, 60, 84
17, 127409, Note_on_c, 14, 60, 0
17, 127440, Note_on_c, 14, 57, 84
17, 128031, Note_on_c, 14, 57, 0
17, 128040, Note_on_c, 14, 48, 52
17, 128159, Note_on_c, 14, 48, 0
17, 128160, Note_on_c, 14, 53, 52
17, 128399, Note_on_c, 14, 53, 0
17, 128400, Note_on_c, 14, 57, 52
17, 128519, Note_on_c, 14, 57, 0
17, 128520, Note_on_c, 14, 60, 52
17, 128759, Note_on_c, 14, 60, 0
17, 128760, Note_on_c, 14, 57, 52
17, 128871, Note_on_c, 14, 57, 0
17, 128880, Note_on_c, 14, 58, 52
17, 129471, Note_on_c, 14, 58, 0
17, 129480, Note_on_c, 14, 48, 52
17, 129599, Note_on_c, 14, 48, 0
17, 129600, Note_on_c, 14, 52, 52
17, 129839, Note_on_c, 14, 52, 0
17, 129840, Note_on_c, 14, 55, 52
17, 129959, Note_on_c, 14, 55, 0
17, 129960, Note_on_c, 14, 58, 52
17, 130199, Note_on_c, 14, 58, 0
17, 130200, Note_on_c, 14, 55, 52
17, 130319, Note_on_c, 14, 55, 0
17, 130320, Note_on_c, 14, 53, 52
17, 130439, Note_on_c, 14, 53, 0
17, 130440, Note_on_c, 14, 60, 52
17, 130551, Note_on_c, 14, 60, 0
17, 130558, Control_c, 14, 11, 64
17, 130560, Note_on_c, 14, 60, 84
17, 130648, Control_c, 14, 11, 65
17, 130649, Note_on_c, 14, 60, 0
17, 130680, Note_on_c, 14, 60, 84
17, 130735, Control_c, 14, 11, 66
17, 130799, Note_on_c, 14, 60, 0
17, 130800, Note_on_c, 14, 57, 84
17, 130823, Control_c, 14, 11, 67
17, 130910, Control_c, 14, 11, 68
17, 130911, Note_on_c, 14, 57, 0
17, 130920, Note_on_c, 14, 57, 84
17, 130998, Control_c, 14, 11, 69
17, 131009, Note_on_c, 14, 57, 0
17, 131040, Note_on_c, 14, 57, 84
17, 131086, Control_c, 14, 11, 70
17, 131159, Note_on_c, 14, 57, 0
17, 131160, Note_on_c, 14, 54, 84
17, 131173, Control_c, 14, 11, 71
17, 131261, Control_c, 14, 11, 72
17, 131271, Note_on_c, 14, 54, 0
17, 131280, Note_on_c, 14, 54, 84
17, 131349, Control_c, 14, 11, 73
17, 131369, Note_on_c, 14, 54, 0
17, 131400, Note_on_c, 14, 54, 84
17, 131436, Control_c, 14, 11, 74
17, 131519, Note_on_c, 14, 54, 0
17, 131520, Note_on_c, 14, 50, 84
17, 131524, Control_c, 14, 11, 75
17, 131611, Control_c, 14, 11, 76
17, 131631, Note_on_c, 14, 50, 0
17, 131640, Note_on_c, 14, 50, 84
17, 131699, Control_c, 14, 11, 77
17, 131729, Note_on_c, 14, 50, 0
17, 131760, Note_on_c, 14, 50, 84
17, 131787, Control_c, 14, 11, 78
17, 131874, Control_c, 14, 11, 79
17, 131879, Note_on_c, 14, 50, 0
17, 131880, Note_on_c, 14, 58, 84
17, 131962, Control_c, 14, 11, 80
17, 131991, Note_on_c, 14, 58, 0
17, 132000, Note_on_c, 14, 58, 84
17, 132050, Control_c, 14, 11, 81
17, 132089, Note_on_c, 14, 58, 0
17, 132120, Note_on_c, 14, 58, 84
17, 132137, Control_c, 14, 11, 82
17, 132225, Control_c, 14, 11, 83
17, 132239, Note_on_c, 14, 58, 0
17, 132240, Note_on_c, 14, 55, 84
17, 132312, Control_c, 14, 11, 84
17, 132351, Note_on_c, 14, 55, 0
17, 132360, Note_on_c, 14, 55, 84
17, 132400, Control_c, 14, 11, 85
17, 132449, Note_on_c, 14, 55, 0
17, 132480, Note_on_c, 14, 55, 84
17, 132488, Control_c, 14, 11, 86
17, 132575, Control_c, 14, 11, 87
17, 132599, Note_on_c, 14, 55, 0
17, 132600, Note_on_c, 14, 52, 84
17, 132663, Control_c, 14, 11, 88
17, 132711, Note_on_c, 14, 52, 0
17, 132720, Note_on_c, 14, 52, 84
17, 132750, Control_c, 14, 11, 89
17, 132809, Note_on_c, 14, 52, 0
17, 132838, Control_c, 14, 11, 90
17, 132840, Note_on_c, 14, 52, 84
17, 132926, Control_c, 14, 11, 91
17, 132959, Note_on_c, 14, 52, 0
17, 132960, Note_on_c, 14, 48, 84
17, 133013, Control_c, 14, 11, 92
17, 133071, Note_on_c, 14, 48, 0
17, 133080, Note_on_c, 14, 48, 84
17, 133101, Control_c, 14, 11, 93
17, 133169, Note_on_c, 14, 48, 0
17, 133189, Control_c, 14, 11, 94
17, 133200, Note_on_c, 14, 53, 84
17, 133276, Control_c, 14, 11, 95
17, 133364, Control_c, 14, 11, 96
17, 133431, Note_on_c, 14, 53, 0
17, 133440, Note_on_c, 14, 48, 84
17, 133451, Control_c, 14, 11, 97
17, 133539, Control_c, 14, 11, 98
17, 133559, Note_on_c, 14, 48, 0
17, 133560, Note_on_c, 14, 53, 84
17, 133627, Control_c, 14, 11, 99
17, 133714, Control_c, 14, 11, 100
17, 133799, Note_on_c, 14, 53, 0
17, 133800, Note_on_c, 14, 57, 84
17, 133802, Control_c, 14, 11, 101
17, 133890, Control_c, 14, 11, 102
17, 133911, Note_on_c, 14, 57, 0
17, 133920, Note_on_c, 14, 60, 84
17, 133977, Control_c, 14, 11, 103
17, 134065, Control_c, 14, 11, 104
17, 134152, Control_c, 14, 11, 105
17, 134240, Control_c, 14, 11, 106
17, 134328, Control_c, 14, 11, 107
17, 134415, Control_c, 14, 11, 108
17, 134503, Control_c, 14, 11, 109
17, 134590, Control_c, 14, 11, 110
17, 134631, Note_on_c, 14, 60, 0
17, 134640, Note_on_c, 14, 58, 84
17, 134678, Control_c, 14, 11, 111
17, 134766, Control_c, 14, 11, 112
17, 134853, Control_c, 14, 11, 113
17, 134871, Note_on_c, 14, 58, 0
17, 134880, Note_on_c, 14, 46, 84
17, 134941, Control_c, 14, 11, 114
17, 134999, Note_on_c, 14, 46, 0
17, 135000, Note_on_c, 14, 52, 84
17, 135029, Control_c, 14, 11, 115
17, 135116, Control_c, 14, 11, 116
17, 135204, Control_c, 14, 11, 117
17, 135239, Note_on_c, 14, 52, 0
17, 135240, Note_on_c, 14, 55, 84
17, 135291, Control_c, 14, 11, 118
17, 135351, Note_on_c, 14, 55, 0
17, 135360, Note_on_c, 14, 58, 84
17, 135379, Control_c, 14, 11, 119
17, 135467, Control_c, 14, 11, 120
17, 135554, Control_c, 14, 11, 121
17, 135642, Control_c, 14, 11, 122
17, 135730, Control_c, 14, 11, 123
17, 135817, Control_c, 14, 11, 124
17, 135905, Control_c, 14, 11, 125
17, 135951, Note_on_c, 14, 58, 0
17, 135960, Note_on_c, 14, 48, 84
17, 135992, Control_c, 14, 11, 127
17, 136071, Note_on_c, 14, 48, 0
17, 136080, Note_on_c, 14, 41, 84
17, 136671, Note_on_c, 14, 41, 0
17, 136680, Note_on_c, 14, 53, 84
17, 136799, Note_on_c, 14, 53, 0
17, 136800, Note_on_c, 14, 57, 84
17, 137039, Note_on_c, 14, 57, 0
17, 137040, Note_on_c, 14, 60, 84
17, 137159, Note_on_c, 14, 60, 0
17, 137160, Note_on_c, 14, 65, 84
17, 137391, Note_on_c, 14, 65, 0
17, 137400, Note_on_c, 14, 41, 84
17, 137489, Note_on_c, 14, 41, 0
17, 137520, Note_on_c, 14, 38, 92
17, 137579, Note_on_c, 14, 38, 0
17, 137580, Note_on_c, 14, 38, 84
17, 138111, Note_on_c, 14, 38, 0
17, 138120, Note_on_c, 14, 50, 84
17, 138239, Note_on_c, 14, 50, 0
17, 138240, Note_on_c, 14, 53, 84
17, 138479, Note_on_c, 14, 53, 0
17, 138480, Note_on_c, 14, 57, 84
17, 138599, Note_on_c, 14, 57, 0
17, 138600, Note_on_c, 14, 62, 84
17, 138831, Note_on_c, 14, 62, 0
17, 138840, Note_on_c, 14, 50, 84
17, 138929, Note_on_c, 14, 50, 0
17, 138960, Note_on_c, 14, 43, 92
17, 139019, Note_on_c, 14, 43, 0
17, 139020, Note_on_c, 14, 43, 84
17, 139551, Note_on_c, 14, 43, 0
17, 139560, Note_on_c, 14, 55, 84
17, 139679, Note_on_c, 14, 55, 0
17, 139680, Note_on_c, 14, 59, 84
17, 139680, Control_c, 14, 11, 127
17, 139710, Control_c, 14, 11, 124
17, 139740, Control_c, 14, 11, 120
17, 139770, Control_c, 14, 11, 117
17, 139800, Control_c, 14, 11, 114
17, 139830, Control_c, 14, 11, 111
17, 139860, Control_c, 14, 11, 107
17, 139890, Control_c, 14, 11, 104
17, 139919, Note_on_c, 14, 59, 0
17, 139920, Control_c, 14, 11, 101
17, 139920, Note_on_c, 14, 62, 84
17, 139950, Control_c, 14, 11, 97
17, 139980, Control_c, 14, 11, 94
17, 140010, Control_c, 14, 11, 91
17, 140039, Note_on_c, 14, 62, 0
17, 140040, Note_on_c, 14, 67, 84
17, 140040, Control_c, 14, 11, 88
17, 140070, Control_c, 14, 11, 84
17, 140100, Control_c, 14, 11, 81
17, 140130, Control_c, 14, 11, 78
17, 140160, Control_c, 14, 11, 74
17, 140190, Control_c, 14, 11, 71
17, 140220, Control_c, 14, 11, 68
17, 140250, Control_c, 14, 11, 64
17, 140271, Note_on_c, 14, 67, 0
17, 140280, Control_c, 14, 11, 61
17, 140280, Note_on_c, 14, 55, 84
17, 140310, Control_c, 14, 11, 58
17, 140340, Control_c, 14, 11, 55
17, 140370, Control_c, 14, 11, 51
17, 140391, Note_on_c, 14, 55, 0
17, 140398, Control_c, 14, 11, 64
17, 140400, Note_on_c, 14, 43, 76
17, 141119, Note_on_c, 14, 43, 0
17, 141120, Note_on_c, 14, 43, 76
17, 141839, Note_on_c, 14, 43, 0
17, 141840, Note_on_c, 14, 43, 76
17, 141840, Control_c, 14, 11, 64
17, 141907, Control_c, 14, 11, 65
17, 141973, Control_c, 14, 11, 66
17, 142040, Control_c, 14, 11, 67
17, 142107, Control_c, 14, 11, 68
17, 142173, Control_c, 14, 11, 69
17, 142240, Control_c, 14, 11, 70
17, 142307, Control_c, 14, 11, 71
17, 142373, Control_c, 14, 11, 72
17, 142440, Control_c, 14, 11, 73
17, 142507, Control_c, 14, 11, 74
17, 142559, Note_on_c, 14, 43, 0
17, 142560, Note_on_c, 14, 43, 76
17, 142573, Control_c, 14, 11, 75
17, 142640, Control_c, 14, 11, 76
17, 142707, Control_c, 14, 11, 77
17, 142773, Control_c, 14, 11, 78
17, 142840, Control_c, 14, 11, 79
17, 142907, Control_c, 14, 11, 80
17, 142973, Control_c, 14, 11, 81
17, 143040, Control_c, 14, 11, 82
17, 143107, Control_c, 14, 11, 83
17, 143173, Control_c, 14, 11, 84
17, 143240, Control_c, 14, 11, 85
17, 143271, Note_on_c, 14, 43, 0
17, 143280, Note_on_c, 14, 36, 76
17, 143307, Control_c, 14, 11, 86
17, 143373, Control_c, 14, 11, 87
17, 143440, Control_c, 14, 11, 88
17, 143507, Control_c, 14, 11, 89
17, 143573, Control_c, 14, 11, 90
17, 143640, Control_c, 14, 11, 91
17, 143707, Control_c, 14, 11, 92
17, 143773, Control_c, 14, 11, 93
17, 143840, Control_c, 14, 11, 94
17, 143907, Control_c, 14, 11, 95
17, 143973, Control_c, 14, 11, 96
17, 143999, Note_on_c, 14, 36, 0
17, 144000, Note_on_c, 14, 36, 76
17, 144040, Control_c, 14, 11, 97
17, 144107, Control_c, 14, 11, 98
17, 144173, Control_c, 14, 11, 99
17, 144240, Control_c, 14, 11, 100
17, 144307, Control_c, 14, 11, 101
17, 144351, Note_on_c, 14, 36, 0
17, 144360, Note_on_c, 14, 36, 76
17, 144373, Control_c, 14, 11, 102
17, 144440, Control_c, 14, 11, 103
17, 144507, Control_c, 14, 11, 104
17, 144573, Control_c, 14, 11, 105
17, 144591, Note_on_c, 14, 36, 0
17, 144600, Note_on_c, 14, 64, 76
17, 144640, Control_c, 14, 11, 106
17, 144707, Control_c, 14, 11, 107
17, 144719, Note_on_c, 14, 64, 0
17, 144720, Note_on_c, 14, 60, 76
17, 144773, Control_c, 14, 11, 108
17, 144839, Note_on_c, 14, 60, 0
17, 144840, Note_on_c, 14, 58, 76
17, 144840, Control_c, 14, 11, 109
17, 144907, Control_c, 14, 11, 110
17, 144959, Note_on_c, 14, 58, 0
17, 144960, Note_on_c, 14, 60, 76
17, 144973, Control_c, 14, 11, 111
17, 145040, Control_c, 14, 11, 112
17, 145079, Note_on_c, 14, 60, 0
17, 145080, Note_on_c, 14, 58, 76
17, 145107, Control_c, 14, 11, 113
17, 145173, Control_c, 14, 11, 114
17, 145199, Note_on_c, 14, 58, 0
17, 145200, Note_on_c, 14, 55, 76
17, 145240, Control_c, 14, 11, 115
17, 145307, Control_c, 14, 11, 116
17, 145319, Note_on_c, 14, 55, 0
17, 145320, Note_on_c, 14, 58, 76
17, 145373, Control_c, 14, 11, 117
17, 145439, Note_on_c, 14, 58, 0
17, 145440, Note_on_c, 14, 55, 76
17, 145440, Control_c, 14, 11, 118
17, 145507, Control_c, 14, 11, 119
17, 145559, Note_on_c, 14, 55, 0
17, 145560, Note_on_c, 14, 52, 76
17, 145573, Control_c, 14, 11, 120
17, 145640, Control_c, 14, 11, 121
17, 145679, Note_on_c, 14, 52, 0
17, 145680, Note_on_c, 14, 55, 76
17, 145707, Control_c, 14, 11, 122
17, 145773, Control_c, 14, 11, 123
17, 145799, Note_on_c, 14, 55, 0
17, 145800, Note_on_c, 14, 52, 76
17, 145840, Control_c, 14, 11, 124
17, 145907, Control_c, 14, 11, 125
17, 145919, Note_on_c, 14, 52, 0
17, 145920, Note_on_c, 14, 48, 76
17, 145973, Control_c, 14, 11, 127
17, 146039, Note_on_c, 14, 48, 0
17, 146040, Note_on_c, 14, 52, 76
17, 146151, Note_on_c, 14, 52, 0
17, 146160, Note_on_c, 14, 48, 76
17, 146279, Note_on_c, 14, 48, 0
17, 146280, Note_on_c, 14, 46, 76
17, 146399, Note_on_c, 14, 46, 0
17, 146400, Note_on_c, 14, 48, 76
17, 146519, Note_on_c, 14, 48, 0
17, 146520, Note_on_c, 14, 46, 76
17, 146639, Note_on_c, 14, 46, 0
17, 146640, Note_on_c, 14, 43, 76
17, 146751, Note_on_c, 14, 43, 0
17, 146760, Note_on_c, 14, 58, 76
17, 146849, Note_on_c, 14, 58, 0
17, 146880, Note_on_c, 14, 55, 76
17, 146969, Note_on_c, 14, 55, 0
17, 147000, Note_on_c, 14, 52, 76
17, 147089, Note_on_c, 14, 52, 0
17, 147120, Note_on_c, 14, 48, 76
17, 147209, Note_on_c, 14, 48, 0
17, 147240, Note_on_c, 14, 43, 76
17, 147329, Note_on_c, 14, 43, 0
17, 147360, Note_on_c, 14, 36, 76
17, 147449, Note_on_c, 14, 36, 0
17, 147480, Note_on_c, 14, 48, 76
17, 147569, Note_on_c, 14, 48, 0
17, 147600, Note_on_c, 14, 57, 84
17, 147659, Note_on_c, 14, 57, 0
17, 147660, Note_on_c, 14, 58, 84
17, 147719, Note_on_c, 14, 58, 0
17, 147720, Note_on_c, 14, 57, 84
17, 147779, Note_on_c, 14, 57, 0
17, 147780, Note_on_c, 14, 55, 84
17, 147839, Note_on_c, 14, 55, 0
17, 147840, Note_on_c, 14, 53, 84
17, 147899, Note_on_c, 14, 53, 0
17, 147900, Note_on_c, 14, 52, 84
17, 147959, Note_on_c, 14, 52, 0
17, 147960, Note_on_c, 14, 53, 84
17, 148019, Note_on_c, 14, 53, 0
17, 148020, Note_on_c, 14, 55, 84
17, 148079, Note_on_c, 14, 55, 0
17, 148080, Note_on_c, 14, 57, 84
17, 148139, Note_on_c, 14, 57, 0
17, 148140, Note_on_c, 14, 58, 84
17, 148199, Note_on_c, 14, 58, 0
17, 148200, Note_on_c, 14, 60, 84
17, 148259, Note_on_c, 14, 60, 0
17, 148260, Note_on_c, 14, 58, 84
17, 148315, Note_on_c, 14, 58, 0
17, 148320, Note_on_c, 14, 57, 84
17, 148379, Note_on_c, 14, 57, 0
17, 148380, Note_on_c, 14, 58, 84
17, 148439, Note_on_c, 14, 58, 0
17, 148440, Note_on_c, 14, 57, 84
17, 148499, Note_on_c, 14, 57, 0
17, 148500, Note_on_c, 14, 55, 84
17, 148559, Note_on_c, 14, 55, 0
17, 148560, Note_on_c, 14, 53, 84
17, 148619, Note_on_c, 14, 53, 0
17, 148620, Note_on_c, 14, 52, 84
17, 148679, Note_on_c, 14, 52, 0
17, 148680, Note_on_c, 14, 53, 84
17, 148739, Note_on_c, 14, 53, 0
17, 148740, Note_on_c, 14, 52, 84
17, 148799, Note_on_c, 14, 52, 0
17, 148800, Note_on_c, 14, 53, 84
17, 148859, Note_on_c, 14, 53, 0
17, 148860, Note_on_c, 14, 48, 52
17, 148919, Note_on_c, 14, 48, 0
17, 148920, Note_on_c, 14, 50, 52
17, 148979, Note_on_c, 14, 50, 0
17, 148980, Note_on_c, 14, 52, 52
17, 149035, Note_on_c, 14, 52, 0
17, 149040, Note_on_c, 14, 53, 52
17, 149099, Note_on_c, 14, 53, 0
17, 149100, Note_on_c, 14, 55, 52
17, 149159, Note_on_c, 14, 55, 0
17, 149160, Note_on_c, 14, 53, 52
17, 149219, Note_on_c, 14, 53, 0
17, 149220, Note_on_c, 14, 52, 52
17, 149279, Note_on_c, 14, 52, 0
17, 149280, Note_on_c, 14, 53, 52
17, 149339, Note_on_c, 14, 53, 0
17, 149340, Note_on_c, 14, 55, 52
17, 149399, Note_on_c, 14, 55, 0
17, 149400, Note_on_c, 14, 57, 52
17, 149459, Note_on_c, 14, 57, 0
17, 149460, Note_on_c, 14, 58, 52
17, 149519, Note_on_c, 14, 58, 0
17, 149520, Note_on_c, 14, 60, 52
17, 149579, Note_on_c, 14, 60, 0
17, 149580, Note_on_c, 14, 59, 52
17, 149639, Note_on_c, 14, 59, 0
17, 149640, Note_on_c, 14, 60, 52
17, 149699, Note_on_c, 14, 60, 0
17, 149700, Note_on_c, 14, 57, 52
17, 149755, Note_on_c, 14, 57, 0
17, 149760, Note_on_c, 14, 58, 52
17, 149819, Note_on_c, 14, 58, 0
17, 149820, Note_on_c, 14, 60, 52
17, 149879, Note_on_c, 14, 60, 0
17, 149880, Note_on_c, 14, 62, 52
17, 149939, Note_on_c, 14, 62, 0
17, 149940, Note_on_c, 14, 60, 52
17, 149999, Note_on_c, 14, 60, 0
17, 150000, Note_on_c, 14, 58, 52
17, 150059, Note_on_c, 14, 58, 0
17, 150060, Note_on_c, 14, 60, 52
17, 150119, Note_on_c, 14, 60, 0
17, 150120, Note_on_c, 14, 58, 52
17, 150179, Note_on_c, 14, 58, 0
17, 150180, Note_on_c, 14, 60, 52
17, 150239, Note_on_c, 14, 60, 0
17, 150240, Note_on_c, 14, 58, 52
17, 150299, Note_on_c, 14, 58, 0
17, 150300, Note_on_c, 14, 57, 52
17, 150359, Note_on_c, 14, 57, 0
17, 150360, Note_on_c, 14, 55, 52
17, 150419, Note_on_c, 14, 55, 0
17, 150420, Note_on_c, 14, 53, 52
17, 150475, Note_on_c, 14, 53, 0
17, 150480, Note_on_c, 14, 52, 52
17, 150539, Note_on_c, 14, 52, 0
17, 150540, Note_on_c, 14, 53, 52
17, 150599, Note_on_c, 14, 53, 0
17, 150600, Note_on_c, 14, 52, 52
17, 150659, Note_on_c, 14, 52, 0
17, 150660, Note_on_c, 14, 50, 52
17, 150719, Note_on_c, 14, 50, 0
17, 150720, Note_on_c, 14, 52, 52
17, 150779, Note_on_c, 14, 52, 0
17, 150780, Note_on_c, 14, 53, 52
17, 150839, Note_on_c, 14, 53, 0
17, 150840, Note_on_c, 14, 55, 52
17, 150899, Note_on_c, 14, 55, 0
17, 150900, Note_on_c, 14, 57, 52
17, 150959, Note_on_c, 14, 57, 0
17, 150960, Note_on_c, 14, 58, 52
17, 151019, Note_on_c, 14, 58, 0
17, 151020, Note_on_c, 14, 57, 52
17, 151079, Note_on_c, 14, 57, 0
17, 151080, Note_on_c, 14, 58, 52
17, 151139, Note_on_c, 14, 58, 0
17, 151140, Note_on_c, 14, 55, 52
17, 151195, Note_on_c, 14, 55, 0
17, 151200, Note_on_c, 14, 57, 52
17, 151255, Note_on_c, 14, 57, 0
17, 151260, Note_on_c, 14, 60, 52
17, 151315, Note_on_c, 14, 60, 0
17, 151320, Note_on_c, 14, 60, 52
17, 151375, Note_on_c, 14, 60, 0
17, 151380, Note_on_c, 14, 60, 53
17, 151435, Note_on_c, 14, 60, 0
17, 151440, Note_on_c, 14, 60, 53
17, 151495, Note_on_c, 14, 60, 0
17, 151500, Note_on_c, 14, 60, 53
17, 151555, Note_on_c, 14, 60, 0
17, 151560, Note_on_c, 14, 60, 54
17, 151615, Note_on_c, 14, 60, 0
17, 151620, Note_on_c, 14, 57, 54
17, 151675, Note_on_c, 14, 57, 0
17, 151680, Note_on_c, 14, 57, 54
17, 151735, Note_on_c, 14, 57, 0
17, 151740, Note_on_c, 14, 57, 55
17, 151795, Note_on_c, 14, 57, 0
17, 151800, Note_on_c, 14, 57, 55
17, 151855, Note_on_c, 14, 57, 0
17, 151860, Note_on_c, 14, 57, 55
17, 151915, Note_on_c, 14, 57, 0
17, 151920, Note_on_c, 14, 57, 56
17, 151975, Note_on_c, 14, 57, 0
17, 151980, Note_on_c, 14, 54, 56
17, 152035, Note_on_c, 14, 54, 0
17, 152040, Note_on_c, 14, 54, 56
17, 152095, Note_on_c, 14, 54, 0
17, 152100, Note_on_c, 14, 54, 57
17, 152155, Note_on_c, 14, 54, 0
17, 152160, Note_on_c, 14, 54, 57
17, 152215, Note_on_c, 14, 54, 0
17, 152220, Note_on_c, 14, 54, 57
17, 152275, Note_on_c, 14, 54, 0
17, 152280, Note_on_c, 14, 54, 58
17, 152335, Note_on_c, 14, 54, 0
17, 152340, Note_on_c, 14, 50, 58
17, 152395, Note_on_c, 14, 50, 0
17, 152400, Note_on_c, 14, 50, 58
17, 152455, Note_on_c, 14, 50, 0
17, 152460, Note_on_c, 14, 50, 59
17, 152515, Note_on_c, 14, 50, 0
17, 152520, Note_on_c, 14, 50, 59
17, 152575, Note_on_c, 14, 50, 0
17, 152580, Note_on_c, 14, 50, 59
17, 152635, Note_on_c, 14, 50, 0
17, 152640, Note_on_c, 14, 50, 60
17, 152695, Note_on_c, 14, 50, 0
17, 152700, Note_on_c, 14, 58, 60
17, 152755, Note_on_c, 14, 58, 0
17, 152760, Note_on_c, 14, 58, 60
17, 152815, Note_on_c, 14, 58, 0
17, 152820, Note_on_c, 14, 58, 61
17, 152875, Note_on_c, 14, 58, 0
17, 152880, Note_on_c, 14, 58, 61
17, 152935, Note_on_c, 14, 58, 0
17, 152940, Note_on_c, 14, 58, 61
17, 152995, Note_on_c, 14, 58, 0
17, 153000, Note_on_c, 14, 58, 62
17, 153055, Note_on_c, 14, 58, 0
17, 153060, Note_on_c, 14, 55, 62
17, 153115, Note_on_c, 14, 55, 0
17, 153120, Note_on_c, 14, 55, 62
17, 153175, Note_on_c, 14, 55, 0
17, 153180, Note_on_c, 14, 55, 63
17, 153235, Note_on_c, 14, 55, 0
17, 153240, Note_on_c, 14, 55, 63
17, 153295, Note_on_c, 14, 55, 0
17, 153300, Note_on_c, 14, 55, 63
17, 153355, Note_on_c, 14, 55, 0
17, 153360, Note_on_c, 14, 55, 64
17, 153415, Note_on_c, 14, 55, 0
17, 153420, Note_on_c, 14, 52, 64
17, 153475, Note_on_c, 14, 52, 0
17, 153480, Note_on_c, 14, 52, 64
17, 153535, Note_on_c, 14, 52, 0
17, 153540, Note_on_c, 14, 52, 65
17, 153595, Note_on_c, 14, 52, 0
17, 153600, Note_on_c, 14, 52, 65
17, 153655, Note_on_c, 14, 52, 0
17, 153660, Note_on_c, 14, 52, 65
17, 153715, Note_on_c, 14, 52, 0
17, 153720, Note_on_c, 14, 52, 66
17, 153775, Note_on_c, 14, 52, 0
17, 153780, Note_on_c, 14, 48, 66
17, 153835, Note_on_c, 14, 48, 0
17, 153840, Note_on_c, 14, 48, 66
17, 153895, Note_on_c, 14, 48, 0
17, 153900, Note_on_c, 14, 48, 67
17, 153955, Note_on_c, 14, 48, 0
17, 153960, Note_on_c, 14, 48, 67
17, 154015, Note_on_c, 14, 48, 0
17, 154020, Note_on_c, 14, 48, 67
17, 154075, Note_on_c, 14, 48, 0
17, 154080, Note_on_c, 14, 41, 68
17, 154135, Note_on_c, 14, 41, 0
17, 154140, Note_on_c, 14, 53, 68
17, 154195, Note_on_c, 14, 53, 0
17, 154200, Note_on_c, 14, 53, 68
17, 154255, Note_on_c, 14, 53, 0
17, 154260, Note_on_c, 14, 53, 69
17, 154315, Note_on_c, 14, 53, 0
17, 154320, Note_on_c, 14, 51, 69
17, 154375, Note_on_c, 14, 51, 0
17, 154380, Note_on_c, 14, 51, 69
17, 154435, Note_on_c, 14, 51, 0
17, 154440, Note_on_c, 14, 50, 70
17, 154495, Note_on_c, 14, 50, 0
17, 154500, Note_on_c, 14, 50, 70
17, 154555, Note_on_c, 14, 50, 0
17, 154560, Note_on_c, 14, 50, 70
17, 154615, Note_on_c, 14, 50, 0
17, 154620, Note_on_c, 14, 50, 71
17, 154675, Note_on_c, 14, 50, 0
17, 154680, Note_on_c, 14, 50, 71
17, 154735, Note_on_c, 14, 50, 0
17, 154740, Note_on_c, 14, 50, 71
17, 154795, Note_on_c, 14, 50, 0
17, 154800, Note_on_c, 14, 50, 72
17, 154855, Note_on_c, 14, 50, 0
17, 154860, Note_on_c, 14, 62, 72
17, 154915, Note_on_c, 14, 62, 0
17, 154920, Note_on_c, 14, 62, 72
17, 154975, Note_on_c, 14, 62, 0
17, 154980, Note_on_c, 14, 62, 73
17, 155035, Note_on_c, 14, 62, 0
17, 155040, Note_on_c, 14, 62, 73
17, 155095, Note_on_c, 14, 62, 0
17, 155100, Note_on_c, 14, 62, 73
17, 155155, Note_on_c, 14, 62, 0
17, 155160, Note_on_c, 14, 62, 74
17, 155215, Note_on_c, 14, 62, 0
17, 155220, Note_on_c, 14, 50, 74
17, 155275, Note_on_c, 14, 50, 0
17, 155280, Note_on_c, 14, 50, 74
17, 155335, Note_on_c, 14, 50, 0
17, 155340, Note_on_c, 14, 50, 75
17, 155395, Note_on_c, 14, 50, 0
17, 155400, Note_on_c, 14, 50, 75
17, 155455, Note_on_c, 14, 50, 0
17, 155460, Note_on_c, 14, 50, 75
17, 155515, Note_on_c, 14, 50, 0
17, 155520, Note_on_c, 14, 43, 76
17, 155575, Note_on_c, 14, 43, 0
17, 155580, Note_on_c, 14, 55, 76
17, 155635, Note_on_c, 14, 55, 0
17, 155640, Note_on_c, 14, 55, 76
17, 155695, Note_on_c, 14, 55, 0
17, 155700, Note_on_c, 14, 55, 77
17, 155755, Note_on_c, 14, 55, 0
17, 155760, Note_on_c, 14, 55, 77
17, 155815, Note_on_c, 14, 55, 0
17, 155820, Note_on_c, 14, 55, 77
17, 155875, Note_on_c, 14, 55, 0
17, 155880, Note_on_c, 14, 55, 78
17, 155935, Note_on_c, 14, 55, 0
17, 155940, Note_on_c, 14, 43, 78
17, 155995, Note_on_c, 14, 43, 0
17, 156000, Note_on_c, 14, 43, 78
17, 156055, Note_on_c, 14, 43, 0
17, 156060, Note_on_c, 14, 43, 79
17, 156115, Note_on_c, 14, 43, 0
17, 156120, Note_on_c, 14, 43, 79
17, 156175, Note_on_c, 14, 43, 0
17, 156180, Note_on_c, 14, 43, 79
17, 156235, Note_on_c, 14, 43, 0
17, 156240, Note_on_c, 14, 48, 80
17, 156295, Note_on_c, 14, 48, 0
17, 156300, Note_on_c, 14, 60, 80
17, 156355, Note_on_c, 14, 60, 0
17, 156360, Note_on_c, 14, 60, 80
17, 156415, Note_on_c, 14, 60, 0
17, 156420, Note_on_c, 14, 60, 81
17, 156475, Note_on_c, 14, 60, 0
17, 156480, Note_on_c, 14, 60, 81
17, 156535, Note_on_c, 14, 60, 0
17, 156540, Note_on_c, 14, 60, 81
17, 156595, Note_on_c, 14, 60, 0
17, 156600, Note_on_c, 14, 60, 82
17, 156655, Note_on_c, 14, 60, 0
17, 156660, Note_on_c, 14, 48, 82
17, 156715, Note_on_c, 14, 48, 0
17, 156720, Note_on_c, 14, 48, 82
17, 156775, Note_on_c, 14, 48, 0
17, 156780, Note_on_c, 14, 46, 83
17, 156835, Note_on_c, 14, 46, 0
17, 156840, Note_on_c, 14, 45, 83
17, 156895, Note_on_c, 14, 45, 0
17, 156900, Note_on_c, 14, 43, 83
17, 156955, Note_on_c, 14, 43, 0
17, 156960, Note_on_c, 14, 41, 84
17, 157199, Note_on_c, 14, 41, 0
17, 157200, Note_on_c, 14, 45, 84
17, 157319, Note_on_c, 14, 45, 0
17, 157320, Note_on_c, 14, 48, 84
17, 157559, Note_on_c, 14, 48, 0
17, 157560, Note_on_c, 14, 53, 84
17, 157679, Note_on_c, 14, 53, 0
17, 157680, Note_on_c, 14, 57, 84
17, 157919, Note_on_c, 14, 57, 0
17, 157920, Note_on_c, 14, 60, 84
17, 158039, Note_on_c, 14, 60, 0
17, 158040, Note_on_c, 14, 65, 84
17, 158129, Note_on_c, 14, 65, 0
17, 158280, Note_on_c, 14, 41, 84
17, 158369, Note_on_c, 14, 41, 0
17, 158400, Note_on_c, 14, 38, 92
17, 158459, Note_on_c, 14, 38, 0
17, 158460, Note_on_c, 14, 38, 84
17, 158639, Note_on_c, 14, 38, 0
17, 158640, Note_on_c, 14, 41, 84
17, 158759, Note_on_c, 14, 41, 0
17, 158760, Note_on_c, 14, 45, 84
17, 158999, Note_on_c, 14, 45, 0
17, 159000, Note_on_c, 14, 50, 84
17, 159119, Note_on_c, 14, 50, 0
17, 159120, Note_on_c, 14, 53, 84
17, 159359, Note_on_c, 14, 53, 0
17, 159360, Note_on_c, 14, 57, 84
17, 159479, Note_on_c, 14, 57, 0
17, 159480, Note_on_c, 14, 62, 84
17, 159569, Note_on_c, 14, 62, 0
17, 159720, Note_on_c, 14, 50, 84
17, 159809, Note_on_c, 14, 50, 0
17, 159840, Note_on_c, 14, 43, 92
17, 159899, Note_on_c, 14, 43, 0
17, 159900, Note_on_c, 14, 43, 84
17, 160079, Note_on_c, 14, 43, 0
17, 160080, Note_on_c, 14, 47, 84
17, 160199, Note_on_c, 14, 47, 0
17, 160200, Note_on_c, 14, 50, 84
17, 160439, Note_on_c, 14, 50, 0
17, 160440, Note_on_c, 14, 55, 84
17, 160559, Note_on_c, 14, 55, 0
17, 160560, Note_on_c, 14, 59, 84
17, 160799, Note_on_c, 14, 59, 0
17, 160800, Note_on_c, 14, 62, 84
17, 160919, Note_on_c, 14, 62, 0
17, 160920, Note_on_c, 14, 67, 84
17, 161009, Note_on_c, 14, 67, 0
17, 161160, Note_on_c, 14, 43, 84
17, 161249, Note_on_c, 14, 43, 0
17, 161280, Note_on_c, 14, 36, 92
17, 161339, Note_on_c, 14, 36, 0
17, 161340, Note_on_c, 14, 36, 84
17, 161519, Note_on_c, 14, 36, 0
17, 161520, Note_on_c, 14, 43, 84
17, 161639, Note_on_c, 14, 43, 0
17, 161640, Note_on_c, 14, 48, 84
17, 161879, Note_on_c, 14, 48, 0
17, 161880, Note_on_c, 14, 55, 84
17, 161999, Note_on_c, 14, 55, 0
17, 162000, Note_on_c, 14, 60, 84
17, 162239, Note_on_c, 14, 60, 0
17, 162240, Note_on_c, 14, 64, 84
17, 162359, Note_on_c, 14, 64, 0
17, 162360, Note_on_c, 14, 67, 84
17, 162449, Note_on_c, 14, 67, 0
17, 162600, Note_on_c, 14, 48, 84
17, 162689, Note_on_c, 14, 48, 0
17, 162720, Note_on_c, 14, 41, 84
17, 162959, Note_on_c, 14, 41, 0
17, 162960, Note_on_c, 14, 45, 84
17, 163079, Note_on_c, 14, 45, 0
17, 163080, Note_on_c, 14, 48, 84
17, 163319, Note_on_c, 14, 48, 0
17, 163320, Note_on_c, 14, 53, 84
17, 163439, Note_on_c, 14, 53, 0
17, 163440, Note_on_c, 14, 57, 84
17, 163679, Note_on_c, 14, 57, 0
17, 163680, Note_on_c, 14, 60, 84
17, 163799, Note_on_c, 14, 60, 0
17, 163800, Note_on_c, 14, 65, 84
17, 163889, Note_on_c, 14, 65, 0
17, 164040, Note_on_c, 14, 41, 84
17, 164129, Note_on_c, 14, 41, 0
17, 164160, Note_on_c, 14, 41, 92
17, 164219, Note_on_c, 14, 41, 0
17, 164220, Note_on_c, 14, 41, 84
17, 164399, Note_on_c, 14, 41, 0
17, 164400, Note_on_c, 14, 46, 84
17, 164519, Note_on_c, 14, 46, 0
17, 164520, Note_on_c, 14, 50, 84
17, 164759, Note_on_c, 14, 50, 0
17, 164760, Note_on_c, 14, 53, 84
17, 164879, Note_on_c, 14, 53, 0
17, 164880, Note_on_c, 14, 58, 84
17, 165119, Note_on_c, 14, 58, 0
17, 165120, Note_on_c, 14, 62, 84
17, 165239, Note_on_c, 14, 62, 0
17, 165240, Note_on_c, 14, 65, 84
17, 165329, Note_on_c, 14, 65, 0
17, 165480, Note_on_c, 14, 41, 84
17, 165569, Note_on_c, 14, 41, 0
17, 165600, Note_on_c, 14, 41, 84
17, 165600, Control_c, 14, 11, 127
17, 165623, Control_c, 14, 11, 126
17, 165646, Control_c, 14, 11, 125
17, 165669, Control_c, 14, 11, 124
17, 165691, Control_c, 14, 11, 123
17, 165714, Control_c, 14, 11, 122
17, 165737, Control_c, 14, 11, 121
17, 165760, Control_c, 14, 11, 120
17, 165783, Control_c, 14, 11, 119
17, 165806, Control_c, 14, 11, 118
17, 165829, Control_c, 14, 11, 117
17, 165839, Note_on_c, 14, 41, 0
17, 165840, Note_on_c, 14, 46, 84
17, 165851, Control_c, 14, 11, 116
17, 165874, Control_c, 14, 11, 115
17, 165897, Control_c, 14, 11, 114
17, 165920, Control_c, 14, 11, 113
17, 165943, Control_c, 14, 11, 112
17, 165959, Note_on_c, 14, 46, 0
17, 165960, Note_on_c, 14, 48, 84
17, 165966, Control_c, 14, 11, 111
17, 165989, Control_c, 14, 11, 110
17, 166011, Control_c, 14, 11, 109
17, 166034, Control_c, 14, 11, 108
17, 166057, Control_c, 14, 11, 107
17, 166080, Control_c, 14, 11, 106
17, 166103, Control_c, 14, 11, 105
17, 166126, Control_c, 14, 11, 104
17, 166149, Control_c, 14, 11, 103
17, 166171, Control_c, 14, 11, 102
17, 166194, Control_c, 14, 11, 101
17, 166199, Note_on_c, 14, 48, 0
17, 166200, Note_on_c, 14, 52, 84
17, 166217, Control_c, 14, 11, 100
17, 166240, Control_c, 14, 11, 99
17, 166263, Control_c, 14, 11, 98
17, 166286, Control_c, 14, 11, 97
17, 166309, Control_c, 14, 11, 96
17, 166319, Note_on_c, 14, 52, 0
17, 166320, Note_on_c, 14, 58, 84
17, 166331, Control_c, 14, 11, 95
17, 166354, Control_c, 14, 11, 94
17, 166377, Control_c, 14, 11, 93
17, 166400, Control_c, 14, 11, 92
17, 166423, Control_c, 14, 11, 91
17, 166446, Control_c, 14, 11, 90
17, 166469, Control_c, 14, 11, 89
17, 166491, Control_c, 14, 11, 88
17, 166514, Control_c, 14, 11, 87
17, 166537, Control_c, 14, 11, 86
17, 166559, Note_on_c, 14, 58, 0
17, 166560, Control_c, 14, 11, 85
17, 166560, Note_on_c, 14, 60, 84
17, 166583, Control_c, 14, 11, 84
17, 166606, Control_c, 14, 11, 83
17, 166629, Control_c, 14, 11, 82
17, 166651, Control_c, 14, 11, 81
17, 166674, Control_c, 14, 11, 80
17, 166679, Note_on_c, 14, 60, 0
17, 166680, Note_on_c, 14, 64, 84
17, 166697, Control_c, 14, 11, 79
17, 166720, Control_c, 14, 11, 78
17, 166743, Control_c, 14, 11, 77
17, 166766, Control_c, 14, 11, 76
17, 166789, Control_c, 14, 11, 75
17, 166811, Control_c, 14, 11, 74
17, 166834, Control_c, 14, 11, 73
17, 166857, Control_c, 14, 11, 72
17, 166880, Control_c, 14, 11, 71
17, 166903, Control_c, 14, 11, 70
17, 166911, Note_on_c, 14, 64, 0
17, 166920, Note_on_c, 14, 53, 84
17, 166926, Control_c, 14, 11, 69
17, 166949, Control_c, 14, 11, 68
17, 166971, Control_c, 14, 11, 67
17, 166994, Control_c, 14, 11, 66
17, 167017, Control_c, 14, 11, 64
17, 167039, Note_on_c, 14, 53, 0
17, 167040, Note_on_c, 14, 58, 84
17, 167279, Note_on_c, 14, 58, 0
17, 167280, Note_on_c, 14, 60, 84
17, 167399, Note_on_c, 14, 60, 0
17, 167400, Note_on_c, 14, 64, 80
17, 167631, Note_on_c, 14, 64, 0
17, 167638, Control_c, 14, 11, 80
17, 167640, Note_on_c, 14, 41, 72
17, 167759, Note_on_c, 14, 41, 0
17, 167760, Note_on_c, 14, 46, 72
17, 167999, Note_on_c, 14, 46, 0
17, 168000, Note_on_c, 14, 48, 72
17, 168119, Note_on_c, 14, 48, 0
17, 168120, Note_on_c, 14, 52, 72
17, 168239, Note_on_c, 14, 52, 0
17, 168240, Note_on_c, 14, 41, 72
17, 168359, Note_on_c, 14, 41, 0
17, 168360, Note_on_c, 14, 46, 72
17, 168475, Note_on_c, 14, 46, 0
17, 168478, Control_c, 14, 11, 96
17, 168480, Note_on_c, 14, 48, 64
17, 168599, Note_on_c, 14, 48, 0
17, 168600, Note_on_c, 14, 52, 64
17, 168719, Note_on_c, 14, 52, 0
17, 168720, Note_on_c, 14, 41, 64
17, 168839, Note_on_c, 14, 41, 0
17, 168840, Note_on_c, 14, 46, 64
17, 168959, Note_on_c, 14, 46, 0
17, 168960, Note_on_c, 14, 48, 64
17, 169079, Note_on_c, 14, 48, 0
17, 169080, Note_on_c, 14, 52, 64
17, 169195, Note_on_c, 14, 52, 0
17, 169198, Control_c, 14, 11, 112
17, 169200, Note_on_c, 14, 41, 56
17, 169319, Note_on_c, 14, 41, 0
17, 169320, Note_on_c, 14, 46, 56
17, 169439, Note_on_c, 14, 46, 0
17, 169440, Note_on_c, 14, 48, 56
17, 169559, Note_on_c, 14, 48, 0
17, 169560, Note_on_c, 14, 52, 56
17, 169679, Note_on_c, 14, 52, 0
17, 169680, Note_on_c, 14, 46, 56
17, 169799, Note_on_c, 14, 46, 0
17, 169800, Note_on_c, 14, 48, 56
17, 169911, Note_on_c, 14, 48, 0
17, 169920, Note_on_c, 14, 53, 48
17, 170631, Note_on_c, 14, 53, 0
17, 170640, Note_on_c, 14, 48, 48
17, 171351, Note_on_c, 14, 48, 0
17, 171360, Note_on_c, 14, 48, 48
17, 172071, Note_on_c, 14, 48, 0
17, 172080, Note_on_c, 14, 53, 48
17, 172791, Note_on_c, 14, 53, 0
17, 172800, Note_on_c, 14, 53, 52
17, 172800, Control_c, 14, 11, 112
17, 172848, Control_c, 14, 11, 113
17, 172896, Control_c, 14, 11, 114
17, 172944, Control_c, 14, 11, 115
17, 172992, Control_c, 14, 11, 116
17, 173040, Control_c, 14, 11, 117
17, 173088, Control_c, 14, 11, 118
17, 173136, Control_c, 14, 11, 119
17, 173159, Note_on_c, 14, 53, 0
17, 173160, Note_on_c, 14, 50, 52
17, 173184, Control_c, 14, 11, 120
17, 173232, Control_c, 14, 11, 121
17, 173280, Control_c, 14, 11, 122
17, 173328, Control_c, 14, 11, 123
17, 173376, Control_c, 14, 11, 124
17, 173399, Note_on_c, 14, 50, 0
17, 173400, Note_on_c, 14, 45, 52
17, 173424, Control_c, 14, 11, 125
17, 173472, Control_c, 14, 11, 127
17, 173511, Note_on_c, 14, 45, 0
17, 173520, Note_on_c, 14, 46, 52
17, 174231, Note_on_c, 14, 46, 0
17, 174240, Note_on_c, 14, 48, 52
17, 174951, Note_on_c, 14, 48, 0
17, 174960, Note_on_c, 14, 41, 52
17, 175199, Note_on_c, 14, 41, 0
17, 175680, Note_on_c, 14, 53, 76
17, 176031, Note_on_c, 14, 53, 0
17, 176040, Note_on_c, 14, 50, 76
17, 176129, Note_on_c, 14, 50, 0
17, 176280, Note_on_c, 14, 45, 76
17, 176369, Note_on_c, 14, 45, 0
17, 176400, Note_on_c, 14, 46, 76
17, 176999, Note_on_c, 14, 46, 0
17, 177720, Note_on_c, 14, 53, 48
17, 177839, Note_on_c, 14, 53, 0
17, 177840, Note_on_c, 14, 48, 48
17, 178431, Note_on_c, 14, 48, 0
17, 178440, Note_on_c, 14, 48, 48
17, 178559, Note_on_c, 14, 48, 0
17, 178560, Note_on_c, 14, 53, 48
17, 178799, Note_on_c, 14, 53, 0
17, 180720, Control_c, 14, 11, 80
17, 181320, Note_on_c, 14, 53, 76
17, 181439, Note_on_c, 14, 53, 0
17, 181440, Note_on_c, 14, 48, 76
17, 181470, Control_c, 14, 11, 82
17, 181500, Control_c, 14, 11, 84
17, 181530, Control_c, 14, 11, 86
17, 181560, Control_c, 14, 11, 88
17, 181590, Control_c, 14, 11, 90
17, 181620, Control_c, 14, 11, 92
17, 181650, Control_c, 14, 11, 94
17, 181680, Control_c, 14, 11, 96
17, 181710, Control_c, 14, 11, 98
17, 181740, Control_c, 14, 11, 100
17, 181770, Control_c, 14, 11, 102
17, 181800, Control_c, 14, 11, 104
17, 181830, Control_c, 14, 11, 105
17, 181860, Control_c, 14, 11, 107
17, 181890, Control_c, 14, 11, 109
17, 181920, Control_c, 14, 11, 111
17, 181950, Control_c, 14, 11, 113
17, 181980, Control_c, 14, 11, 115
17, 182010, Control_c, 14, 11, 117
17, 182031, Note_on_c, 14, 48, 0
17, 182040, Control_c, 14, 11, 119
17, 182040, Note_on_c, 14, 48, 76
17, 182070, Control_c, 14, 11, 121
17, 182100, Control_c, 14, 11, 123
17, 182130, Control_c, 14, 11, 127
17, 182159, Note_on_c, 14, 48, 0
17, 182160, Note_on_c, 14, 48, 76
17, 182369, Note_on_c, 14, 48, 0
17, 182400, Note_on_c, 14, 36, 76
17, 182489, Note_on_c, 14, 36, 0
17, 182520, Note_on_c, 14, 40, 76
17, 182729, Note_on_c, 14, 40, 0
17, 182760, Note_on_c, 14, 43, 76
17, 182849, Note_on_c, 14, 43, 0
17, 182880, Note_on_c, 14, 46, 76
17, 183089, Note_on_c, 14, 46, 0
17, 183120, Note_on_c, 14, 48, 76
17, 183209, Note_on_c, 14, 48, 0
17, 183240, Note_on_c, 14, 52, 76
17, 183449, Note_on_c, 14, 52, 0
17, 183480, Note_on_c, 14, 55, 76
17, 183569, Note_on_c, 14, 55, 0
17, 183600, Note_on_c, 14, 58, 76
17, 183809, Note_on_c, 14, 58, 0
17, 183840, Note_on_c, 14, 55, 72
17, 183929, Note_on_c, 14, 55, 0
17, 183960, Note_on_c, 14, 52, 70
17, 184169, Note_on_c, 14, 52, 0
17, 184200, Note_on_c, 14, 48, 66
17, 184289, Note_on_c, 14, 48, 0
17, 184320, Note_on_c, 14, 46, 64
17, 184529, Note_on_c, 14, 46, 0
17, 184560, Note_on_c, 14, 43, 60
17, 184649, Note_on_c, 14, 43, 0
17, 184680, Note_on_c, 14, 40, 58
17, 184889, Note_on_c, 14, 40, 0
17, 184920, Note_on_c, 14, 36, 54
17, 185009, Note_on_c, 14, 36, 0
17, 185040, Note_on_c, 14, 41, 52
17, 185751, Note_on_c, 14, 41, 0
17, 185760, Note_on_c, 14, 41, 52
17, 186471, Note_on_c, 14, 41, 0
17, 186480, Note_on_c, 14, 41, 44
17, 186719, Note_on_c, 14, 41, 0
17, 188640, Note_on_c, 14, 41, 44
17, 188699, Note_on_c, 14, 41, 0
17, 188700, Note_on_c, 14, 43, 44
17, 188759, Note_on_c, 14, 43, 0
17, 188760, Note_on_c, 14, 45, 44
17, 188819, Note_on_c, 14, 45, 0
17, 188820, Note_on_c, 14, 46, 44
17, 188879, Note_on_c, 14, 46, 0
17, 188880, Note_on_c, 14, 48, 44
17, 188939, Note_on_c, 14, 48, 0
17, 188940, Note_on_c, 14, 47, 44
17, 188999, Note_on_c, 14, 47, 0
17, 189000, Note_on_c, 14, 50, 44
17, 189059, Note_on_c, 14, 50, 0
17, 189060, Note_on_c, 14, 48, 44
17, 189119, Note_on_c, 14, 48, 0
17, 189120, Note_on_c, 14, 46, 44
17, 189179, Note_on_c, 14, 46, 0
17, 189180, Note_on_c, 14, 45, 44
17, 189239, Note_on_c, 14, 45, 0
17, 189240, Note_on_c, 14, 43, 84
17, 189299, Note_on_c, 14, 43, 0
17, 189300, Note_on_c, 14, 41, 84
17, 189355, Note_on_c, 14, 41, 0
17, 189360, Note_on_c, 14, 41, 84
17, 189599, Note_on_c, 14, 41, 0
17, 189599, End_track
18, 0, Start_track
18, 0, Title_t, "Contrabass"
18, 0, MIDI_port, 0
18, 0, Control_c, 15, 7, 96
18, 0, Control_c, 15, 10, 100
18, 0, Program_c, 15, 48
18, 0, Control_c, 15, 11, 127
18, 11400, Program_c, 15, 45
18, 11520, Note_on_c, 15, 41, 48
18, 11759, Note_on_c, 15, 41, 0
18, 12120, Note_on_c, 15, 41, 50
18, 12239, Note_on_c, 15, 41, 0
18, 12240, Note_on_c, 15, 41, 51
18, 12479, Note_on_c, 15, 41, 0
18, 12840, Note_on_c, 15, 41, 54
18, 12959, Note_on_c, 15, 41, 0
18, 12960, Note_on_c, 15, 41, 55
18, 13199, Note_on_c, 15, 41, 0
18, 13560, Note_on_c, 15, 41, 57
18, 13679, Note_on_c, 15, 41, 0
18, 13680, Note_on_c, 15, 38, 58
18, 13919, Note_on_c, 15, 38, 0
18, 14280, Note_on_c, 15, 40, 61
18, 14399, Note_on_c, 15, 40, 0
18, 14400, Note_on_c, 15, 40, 62
18, 14639, Note_on_c, 15, 40, 0
18, 15000, Note_on_c, 15, 36, 64
18, 15119, Note_on_c, 15, 36, 0
18, 15120, Note_on_c, 15, 41, 65
18, 15359, Note_on_c, 15, 41, 0
18, 15480, Note_on_c, 15, 38, 67
18, 15719, Note_on_c, 15, 38, 0
18, 15720, Note_on_c, 15, 33, 68
18, 15839, Note_on_c, 15, 33, 0
18, 15840, Note_on_c, 15, 34, 69
18, 16079, Note_on_c, 15, 34, 0
18, 16200, Note_on_c, 15, 36, 70
18, 16439, Note_on_c, 15, 36, 0
18, 16440, Note_on_c, 15, 36, 71
18, 16559, Note_on_c, 15, 36, 0
18, 16560, Note_on_c, 15, 41, 72
18, 16799, Note_on_c, 15, 41, 0
18, 17160, Program_c, 15, 48
18, 17280, Note_on_c, 15, 29, 84
18, 17391, Note_on_c, 15, 29, 0
18, 17400, Note_on_c, 15, 41, 84
18, 17511, Note_on_c, 15, 41, 0
18, 17520, Note_on_c, 15, 41, 84
18, 17631, Note_on_c, 15, 41, 0
18, 17640, Note_on_c, 15, 41, 84
18, 17751, Note_on_c, 15, 41, 0
18, 17760, Note_on_c, 15, 29, 84
18, 17871, Note_on_c, 15, 29, 0
18, 17880, Note_on_c, 15, 29, 84
18, 17991, Note_on_c, 15, 29, 0
18, 18000, Note_on_c, 15, 29, 84
18, 18111, Note_on_c, 15, 29, 0
18, 18120, Note_on_c, 15, 41, 84
18, 18231, Note_on_c, 15, 41, 0
18, 18240, Note_on_c, 15, 41, 84
18, 18351, Note_on_c, 15, 41, 0
18, 18360, Note_on_c, 15, 41, 84
18, 18471, Note_on_c, 15, 41, 0
18, 18480, Note_on_c, 15, 29, 84
18, 18591, Note_on_c, 15, 29, 0
18, 18600, Note_on_c, 15, 29, 84
18, 18711, Note_on_c, 15, 29, 0
18, 18720, Note_on_c, 15, 29, 84
18, 18831, Note_on_c, 15, 29, 0
18, 18840, Note_on_c, 15, 41, 84
18, 18951, Note_on_c, 15, 41, 0
18, 18960, Note_on_c, 15, 41, 84
18, 19071, Note_on_c, 15, 41, 0
18, 19080, Note_on_c, 15, 41, 84
18, 19191, Note_on_c, 15, 41, 0
18, 19200, Note_on_c, 15, 29, 84
18, 19311, Note_on_c, 15, 29, 0
18, 19320, Note_on_c, 15, 29, 84
18, 19431, Note_on_c, 15, 29, 0
18, 19440, Note_on_c, 15, 38, 84
18, 19551, Note_on_c, 15, 38, 0
18, 19560, Note_on_c, 15, 50, 84
18, 19671, Note_on_c, 15, 50, 0
18, 19680, Note_on_c, 15, 50, 84
18, 19791, Note_on_c, 15, 50, 0
18, 19800, Note_on_c, 15, 50, 84
18, 19911, Note_on_c, 15, 50, 0
18, 19920, Note_on_c, 15, 38, 84
18, 20031, Note_on_c, 15, 38, 0
18, 20040, Note_on_c, 15, 40, 84
18, 20151, Note_on_c, 15, 40, 0
18, 20160, Note_on_c, 15, 40, 84
18, 20271, Note_on_c, 15, 40, 0
18, 20280, Note_on_c, 15, 52, 84
18, 20391, Note_on_c, 15, 52, 0
18, 20400, Note_on_c, 15, 40, 84
18, 20511, Note_on_c, 15, 40, 0
18, 20520, Note_on_c, 15, 40, 84
18, 20631, Note_on_c, 15, 40, 0
18, 20640, Note_on_c, 15, 40, 84
18, 20751, Note_on_c, 15, 40, 0
18, 20760, Note_on_c, 15, 36, 84
18, 20871, Note_on_c, 15, 36, 0
18, 20880, Note_on_c, 15, 29, 84
18, 20991, Note_on_c, 15, 29, 0
18, 21000, Note_on_c, 15, 41, 84
18, 21111, Note_on_c, 15, 41, 0
18, 21120, Note_on_c, 15, 41, 84
18, 21231, Note_on_c, 15, 41, 0
18, 21240, Note_on_c, 15, 38, 84
18, 21351, Note_on_c, 15, 38, 0
18, 21360, Note_on_c, 15, 38, 84
18, 21471, Note_on_c, 15, 38, 0
18, 21480, Note_on_c, 15, 33, 84
18, 21591, Note_on_c, 15, 33, 0
18, 21600, Note_on_c, 15, 34, 84
18, 21711, Note_on_c, 15, 34, 0
18, 21720, Note_on_c, 15, 46, 84
18, 21831, Note_on_c, 15, 46, 0
18, 21840, Note_on_c, 15, 34, 84
18, 21951, Note_on_c, 15, 34, 0
18, 21960, Note_on_c, 15, 36, 84
18, 22071, Note_on_c, 15, 36, 0
18, 22080, Note_on_c, 15, 36, 84
18, 22191, Note_on_c, 15, 36, 0
18, 22200, Note_on_c, 15, 36, 84
18, 22311, Note_on_c, 15, 36, 0
18, 22320, Note_on_c, 15, 29, 84
18, 22439, Note_on_c, 15, 29, 0
18, 23640, Note_on_c, 15, 34, 84
18, 23751, Note_on_c, 15, 34, 0
18, 23760, Note_on_c, 15, 33, 84
18, 24111, Note_on_c, 15, 33, 0
18, 24120, Note_on_c, 15, 40, 84
18, 24471, Note_on_c, 15, 40, 0
18, 24480, Note_on_c, 15, 41, 84
18, 24831, Note_on_c, 15, 41, 0
18, 24840, Note_on_c, 15, 36, 84
18, 25071, Note_on_c, 15, 36, 0
18, 25080, Note_on_c, 15, 36, 84
18, 25199, Note_on_c, 15, 36, 0
18, 26520, Note_on_c, 15, 34, 84
18, 26631, Note_on_c, 15, 34, 0
18, 26640, Note_on_c, 15, 33, 84
18, 26991, Note_on_c, 15, 33, 0
18, 27000, Note_on_c, 15, 40, 84
18, 27351, Note_on_c, 15, 40, 0
18, 27360, Note_on_c, 15, 41, 84
18, 27711, Note_on_c, 15, 41, 0
18, 27720, Note_on_c, 15, 43, 84
18, 27951, Note_on_c, 15, 43, 0
18, 27960, Note_on_c, 15, 31, 84
18, 28071, Note_on_c, 15, 31, 0
18, 28080, Note_on_c, 15, 33, 92
18, 28139, Note_on_c, 15, 33, 0
18, 28140, Note_on_c, 15, 33, 84
18, 28319, Note_on_c, 15, 33, 0
18, 28680, Note_on_c, 15, 35, 84
18, 28799, Note_on_c, 15, 35, 0
18, 28800, Note_on_c, 15, 36, 92
18, 28859, Note_on_c, 15, 36, 0
18, 28860, Note_on_c, 15, 36, 84
18, 29039, Note_on_c, 15, 36, 0
18, 29400, Note_on_c, 15, 38, 84
18, 29519, Note_on_c, 15, 38, 0
18, 29520, Note_on_c, 15, 40, 84
18, 29759, Note_on_c, 15, 40, 0
18, 30600, Note_on_c, 15, 33, 84
18, 30719, Note_on_c, 15, 33, 0
18, 30720, Note_on_c, 15, 31, 84
18, 30831, Note_on_c, 15, 31, 0
18, 30840, Note_on_c, 15, 28, 84
18, 30884, Note_on_c, 15, 28, 0
18, 30900, Note_on_c, 15, 24, 84
18, 30944, Note_on_c, 15, 24, 0
18, 30960, Note_on_c, 15, 31, 84
18, 31679, Note_on_c, 15, 31, 0
18, 32040, Note_on_c, 15, 33, 84
18, 32159, Note_on_c, 15, 33, 0
18, 32160, Note_on_c, 15, 31, 84
18, 32271, Note_on_c, 15, 31, 0
18, 32280, Note_on_c, 15, 29, 84
18, 32324, Note_on_c, 15, 29, 0
18, 32340, Note_on_c, 15, 26, 84
18, 32384, Note_on_c, 15, 26, 0
18, 32400, Note_on_c, 15, 31, 84
18, 33119, Note_on_c, 15, 31, 0
18, 33480, Note_on_c, 15, 33, 84
18, 33539, Note_on_c, 15, 33, 0
18, 33540, Note_on_c, 15, 31, 84
18, 33595, Note_on_c, 15, 31, 0
18, 33600, Note_on_c, 15, 30, 84
18, 33644, Note_on_c, 15, 30, 0
18, 33660, Note_on_c, 15, 31, 84
18, 33704, Note_on_c, 15, 31, 0
18, 33720, Note_on_c, 15, 28, 84
18, 33764, Note_on_c, 15, 28, 0
18, 33780, Note_on_c, 15, 24, 84
18, 33824, Note_on_c, 15, 24, 0
18, 33840, Note_on_c, 15, 31, 84
18, 34559, Note_on_c, 15, 31, 0
18, 34920, Note_on_c, 15, 33, 84
18, 34979, Note_on_c, 15, 33, 0
18, 34980, Note_on_c, 15, 31, 84
18, 35035, Note_on_c, 15, 31, 0
18, 35040, Note_on_c, 15, 30, 84
18, 35084, Note_on_c, 15, 30, 0
18, 35100, Note_on_c, 15, 26, 84
18, 35144, Note_on_c, 15, 26, 0
18, 35160, Note_on_c, 15, 31, 84
18, 35204, Note_on_c, 15, 31, 0
18, 35220, Note_on_c, 15, 31, 84
18, 35264, Note_on_c, 15, 31, 0
18, 35280, Note_on_c, 15, 36, 76
18, 35519, Note_on_c, 15, 36, 0
18, 36220, Control_c, 15, 11, 118
18, 36240, Control_c, 15, 11, 119
18, 36240, Note_on_c, 15, 36, 76
18, 36260, Control_c, 15, 11, 120
18, 36280, Control_c, 15, 11, 122
18, 36300, Control_c, 15, 11, 123
18, 36320, Control_c, 15, 11, 124
18, 36340, Control_c, 15, 11, 127
18, 36359, Note_on_c, 15, 36, 0
18, 36360, Note_on_c, 15, 31, 76
18, 36591, Note_on_c, 15, 31, 0
18, 36600, Note_on_c, 15, 31, 76
18, 36711, Note_on_c, 15, 31, 0
18, 36720, Note_on_c, 15, 36, 76
18, 36959, Note_on_c, 15, 36, 0
18, 37660, Control_c, 15, 11, 118
18, 37680, Note_on_c, 15, 36, 76
18, 37680, Control_c, 15, 11, 119
18, 37700, Control_c, 15, 11, 120
18, 37720, Control_c, 15, 11, 122
18, 37740, Control_c, 15, 11, 123
18, 37760, Control_c, 15, 11, 124
18, 37780, Control_c, 15, 11, 127
18, 37799, Note_on_c, 15, 36, 0
18, 37800, Note_on_c, 15, 31, 76
18, 38031, Note_on_c, 15, 31, 0
18, 38040, Note_on_c, 15, 31, 76
18, 38129, Note_on_c, 15, 31, 0
18, 38160, Note_on_c, 15, 36, 84
18, 38639, Note_on_c, 15, 36, 0
18, 38760, Note_on_c, 15, 36, 84
18, 38849, Note_on_c, 15, 36, 0
18, 38880, Note_on_c, 15, 29, 84
18, 39359, Note_on_c, 15, 29, 0
18, 39480, Note_on_c, 15, 29, 84
18, 39569, Note_on_c, 15, 29, 0
18, 39600, Note_on_c, 15, 31, 84
18, 39779, Note_on_c, 15, 31, 0
18, 45240, Program_c, 15, 45
18, 45360, Note_on_c, 15, 29, 52
18, 45599, Note_on_c, 15, 29, 0
18, 51120, Note_on_c, 15, 41, 48
18, 51359, Note_on_c, 15, 41, 0
18, 51720, Note_on_c, 15, 41, 52
18, 51839, Note_on_c, 15, 41, 0
18, 51840, Note_on_c, 15, 41, 52
18, 52079, Note_on_c, 15, 41, 0
18, 52440, Note_on_c, 15, 41, 56
18, 52559, Note_on_c, 15, 41, 0
18, 52560, Note_on_c, 15, 41, 57
18, 52799, Note_on_c, 15, 41, 0
18, 53160, Note_on_c, 15, 41, 61
18, 53279, Note_on_c, 15, 41, 0
18, 53280, Note_on_c, 15, 41, 62
18, 53519, Note_on_c, 15, 41, 0
18, 53760, Program_c, 15, 48
18, 53880, Note_on_c, 15, 41, 70
18, 54239, Note_on_c, 15, 41, 0
18, 54600, Note_on_c, 15, 41, 75
18, 54719, Note_on_c, 15, 41, 0
18, 54720, Note_on_c, 15, 45, 76
18, 54959, Note_on_c, 15, 45, 0
18, 54960, Note_on_c, 15, 48, 76
18, 55079, Note_on_c, 15, 48, 0
18, 55080, Note_on_c, 15, 51, 76
18, 55311, Note_on_c, 15, 51, 0
18, 55320, Note_on_c, 15, 48, 84
18, 55409, Note_on_c, 15, 48, 0
18, 55440, Note_on_c, 15, 51, 84
18, 55649, Note_on_c, 15, 51, 0
18, 55680, Note_on_c, 15, 48, 84
18, 55769, Note_on_c, 15, 48, 0
18, 55800, Note_on_c, 15, 45, 84
18, 56009, Note_on_c, 15, 45, 0
18, 56040, Note_on_c, 15, 41, 84
18, 56129, Note_on_c, 15, 41, 0
18, 56160, Note_on_c, 15, 39, 84
18, 56369, Note_on_c, 15, 39, 0
18, 56400, Note_on_c, 15, 36, 84
18, 56489, Note_on_c, 15, 36, 0
18, 56520, Note_on_c, 15, 33, 84
18, 56729, Note_on_c, 15, 33, 0
18, 56760, Note_on_c, 15, 29, 84
18, 56849, Note_on_c, 15, 29, 0
18, 56880, Note_on_c, 15, 34, 84
18, 57119, Note_on_c, 15, 34, 0
18, 58200, Note_on_c, 15, 29, 76
18, 58311, Note_on_c, 15, 29, 0
18, 58320, Note_on_c, 15, 36, 84
18, 58379, Note_on_c, 15, 36, 0
18, 58380, Note_on_c, 15, 36, 76
18, 58559, Note_on_c, 15, 36, 0
18, 59640, Note_on_c, 15, 29, 76
18, 59751, Note_on_c, 15, 29, 0
18, 59760, Note_on_c, 15, 41, 84
18, 59819, Note_on_c, 15, 41, 0
18, 59820, Note_on_c, 15, 41, 76
18, 59999, Note_on_c, 15, 41, 0
18, 61080, Note_on_c, 15, 29, 76
18, 61199, Note_on_c, 15, 29, 0
18, 61200, Note_on_c, 15, 34, 76
18, 61439, Note_on_c, 15, 34, 0
18, 61800, Note_on_c, 15, 34, 76
18, 61919, Note_on_c, 15, 34, 0
18, 61920, Note_on_c, 15, 39, 76
18, 62159, Note_on_c, 15, 39, 0
18, 62520, Note_on_c, 15, 39, 76
18, 62639, Note_on_c, 15, 39, 0
18, 62640, Note_on_c, 15, 34, 76
18, 62879, Note_on_c, 15, 34, 0
18, 63240, Note_on_c, 15, 34, 76
18, 63359, Note_on_c, 15, 34, 0
18, 63360, Note_on_c, 15, 29, 76
18, 63599, Note_on_c, 15, 29, 0
18, 63960, Note_on_c, 15, 29, 76
18, 64079, Note_on_c, 15, 29, 0
18, 64080, Note_on_c, 15, 34, 76
18, 64319, Note_on_c, 15, 34, 0
18, 64680, Note_on_c, 15, 34, 76
18, 64799, Note_on_c, 15, 34, 0
18, 64800, Note_on_c, 15, 39, 80
18, 65039, Note_on_c, 15, 39, 0
18, 65400, Note_on_c, 15, 39, 80
18, 65519, Note_on_c, 15, 39, 0
18, 65520, Note_on_c, 15, 41, 80
18, 65759, Note_on_c, 15, 41, 0
18, 66120, Note_on_c, 15, 41, 80
18, 66239, Note_on_c, 15, 41, 0
18, 66240, Note_on_c, 15, 42, 84
18, 66831, Note_on_c, 15, 42, 0
18, 66840, Note_on_c, 15, 43, 84
18, 66951, Note_on_c, 15, 43, 0
18, 66960, Note_on_c, 15, 44, 84
18, 66960, Control_c, 15, 11, 127
18, 66990, Control_c, 15, 11, 124
18, 67020, Control_c, 15, 11, 120
18, 67050, Control_c, 15, 11, 117
18, 67080, Control_c, 15, 11, 114
18, 67110, Control_c, 15, 11, 111
18, 67140, Control_c, 15, 11, 107
18, 67170, Control_c, 15, 11, 104
18, 67200, Control_c, 15, 11, 101
18, 67230, Control_c, 15, 11, 97
18, 67260, Control_c, 15, 11, 94
18, 67290, Control_c, 15, 11, 91
18, 67320, Control_c, 15, 11, 88
18, 67350, Control_c, 15, 11, 84
18, 67380, Control_c, 15, 11, 81
18, 67410, Control_c, 15, 11, 78
18, 67440, Control_c, 15, 11, 74
18, 67470, Control_c, 15, 11, 71
18, 67500, Control_c, 15, 11, 68
18, 67530, Control_c, 15, 11, 64
18, 67560, Control_c, 15, 11, 61
18, 67590, Control_c, 15, 11, 58
18, 67620, Control_c, 15, 11, 55
18, 67650, Control_c, 15, 11, 51
18, 67678, Control_c, 15, 11, 48
18, 67919, Note_on_c, 15, 44, 0
18, 68160, Control_c, 15, 11, 127
18, 68160, Program_c, 15, 45
18, 68280, Note_on_c, 15, 32, 44
18, 68399, Note_on_c, 15, 32, 0
18, 68400, Note_on_c, 15, 33, 44
18, 68639, Note_on_c, 15, 33, 0
18, 69000, Note_on_c, 15, 33, 44
18, 69119, Note_on_c, 15, 33, 0
18, 69120, Note_on_c, 15, 34, 44
18, 69359, Note_on_c, 15, 34, 0
18, 69720, Note_on_c, 15, 34, 44
18, 69839, Note_on_c, 15, 34, 0
18, 69840, Note_on_c, 15, 35, 44
18, 70079, Note_on_c, 15, 35, 0
18, 70320, Program_c, 15, 48
18, 70440, Note_on_c, 15, 31, 44
18, 70551, Note_on_c, 15, 31, 0
18, 70560, Note_on_c, 15, 36, 52
18, 71151, Note_on_c, 15, 36, 0
18, 71160, Note_on_c, 15, 36, 52
18, 71271, Note_on_c, 15, 36, 0
18, 71280, Note_on_c, 15, 36, 52
18, 71871, Note_on_c, 15, 36, 0
18, 71880, Note_on_c, 15, 36, 76
18, 71969, Note_on_c, 15, 36, 0
18, 72000, Note_on_c, 15, 36, 76
18, 72479, Note_on_c, 15, 36, 0
18, 72600, Note_on_c, 15, 36, 76
18, 72689, Note_on_c, 15, 36, 0
18, 72720, Note_on_c, 15, 36, 76
18, 73199, Note_on_c, 15, 36, 0
18, 73320, Note_on_c, 15, 36, 76
18, 73409, Note_on_c, 15, 36, 0
18, 73440, Note_on_c, 15, 36, 52
18, 74031, Note_on_c, 15, 36, 0
18, 74040, Note_on_c, 15, 36, 52
18, 74151, Note_on_c, 15, 36, 0
18, 74160, Note_on_c, 15, 36, 52
18, 74751, Note_on_c, 15, 36, 0
18, 74760, Note_on_c, 15, 36, 76
18, 74849, Note_on_c, 15, 36, 0
18, 74880, Note_on_c, 15, 36, 76
18, 75359, Note_on_c, 15, 36, 0
18, 75480, Note_on_c, 15, 36, 76
18, 75569, Note_on_c, 15, 36, 0
18, 75600, Note_on_c, 15, 36, 76
18, 76079, Note_on_c, 15, 36, 0
18, 76200, Note_on_c, 15, 36, 76
18, 76289, Note_on_c, 15, 36, 0
18, 76320, Note_on_c, 15, 36, 84
18, 76799, Note_on_c, 15, 36, 0
18, 76920, Note_on_c, 15, 36, 84
18, 77009, Note_on_c, 15, 36, 0
18, 77040, Note_on_c, 15, 36, 84
18, 77519, Note_on_c, 15, 36, 0
18, 77640, Note_on_c, 15, 36, 84
18, 77729, Note_on_c, 15, 36, 0
18, 77760, Control_c, 15, 11, 127
18, 77760, Note_on_c, 15, 36, 84
18, 77790, Control_c, 15, 11, 126
18, 77820, Control_c, 15, 11, 124
18, 77850, Control_c, 15, 11, 123
18, 77880, Control_c, 15, 11, 122
18, 77910, Control_c, 15, 11, 120
18, 77940, Control_c, 15, 11, 119
18, 77970, Control_c, 15, 11, 118
18, 78000, Control_c, 15, 11, 117
18, 78030, Control_c, 15, 11, 115
18, 78060, Control_c, 15, 11, 114
18, 78090, Control_c, 15, 11, 113
18, 78120, Control_c, 15, 11, 111
18, 78150, Control_c, 15, 11, 110
18, 78180, Control_c, 15, 11, 109
18, 78210, Control_c, 15, 11, 107
18, 78240, Control_c, 15, 11, 106
18, 78270, Control_c, 15, 11, 105
18, 78300, Control_c, 15, 11, 103
18, 78330, Control_c, 15, 11, 102
18, 78360, Control_c, 15, 11, 101
18, 78390, Control_c, 15, 11, 99
18, 78420, Control_c, 15, 11, 98
18, 78450, Control_c, 15, 11, 97
18, 78479, Note_on_c, 15, 36, 0
18, 78480, Note_on_c, 15, 36, 84
18, 78480, Control_c, 15, 11, 96
18, 78510, Control_c, 15, 11, 94
18, 78540, Control_c, 15, 11, 93
18, 78570, Control_c, 15, 11, 92
18, 78600, Control_c, 15, 11, 90
18, 78630, Control_c, 15, 11, 89
18, 78660, Control_c, 15, 11, 88
18, 78690, Control_c, 15, 11, 86
18, 78720, Control_c, 15, 11, 85
18, 78750, Control_c, 15, 11, 84
18, 78780, Control_c, 15, 11, 82
18, 78810, Control_c, 15, 11, 81
18, 78840, Control_c, 15, 11, 80
18, 78870, Control_c, 15, 11, 78
18, 78900, Control_c, 15, 11, 77
18, 78930, Control_c, 15, 11, 76
18, 78960, Control_c, 15, 11, 75
18, 78990, Control_c, 15, 11, 73
18, 79020, Control_c, 15, 11, 72
18, 79050, Control_c, 15, 11, 71
18, 79080, Control_c, 15, 11, 69
18, 79110, Control_c, 15, 11, 68
18, 79140, Control_c, 15, 11, 67
18, 79170, Control_c, 15, 11, 64
18, 79199, Note_on_c, 15, 36, 0
18, 79200, Note_on_c, 15, 36, 84
18, 79919, Note_on_c, 15, 36, 0
18, 79920, Note_on_c, 15, 36, 84
18, 79920, Control_c, 15, 11, 64
18, 79965, Control_c, 15, 11, 63
18, 80010, Control_c, 15, 11, 62
18, 80055, Control_c, 15, 11, 61
18, 80100, Control_c, 15, 11, 60
18, 80145, Control_c, 15, 11, 59
18, 80190, Control_c, 15, 11, 58
18, 80235, Control_c, 15, 11, 57
18, 80280, Control_c, 15, 11, 56
18, 80325, Control_c, 15, 11, 55
18, 80370, Control_c, 15, 11, 54
18, 80415, Control_c, 15, 11, 53
18, 80460, Control_c, 15, 11, 52
18, 80505, Control_c, 15, 11, 51
18, 80550, Control_c, 15, 11, 50
18, 80595, Control_c, 15, 11, 48
18, 80639, Note_on_c, 15, 36, 0
18, 80640, Note_on_c, 15, 36, 84
18, 81359, Note_on_c, 15, 36, 0
18, 81360, Note_on_c, 15, 36, 84
18, 81711, Note_on_c, 15, 36, 0
18, 81718, Control_c, 15, 11, 64
18, 81720, Control_c, 15, 11, 64
18, 81720, Note_on_c, 15, 29, 76
18, 81758, Control_c, 15, 11, 65
18, 81795, Control_c, 15, 11, 66
18, 81833, Control_c, 15, 11, 67
18, 81870, Control_c, 15, 11, 68
18, 81908, Control_c, 15, 11, 69
18, 81945, Control_c, 15, 11, 70
18, 81983, Control_c, 15, 11, 71
18, 82020, Control_c, 15, 11, 72
18, 82058, Control_c, 15, 11, 73
18, 82079, Note_on_c, 15, 29, 0
18, 82080, Note_on_c, 15, 29, 76
18, 82095, Control_c, 15, 11, 74
18, 82133, Control_c, 15, 11, 75
18, 82170, Control_c, 15, 11, 76
18, 82208, Control_c, 15, 11, 77
18, 82245, Control_c, 15, 11, 78
18, 82283, Control_c, 15, 11, 79
18, 82320, Control_c, 15, 11, 80
18, 82358, Control_c, 15, 11, 81
18, 82395, Control_c, 15, 11, 82
18, 82433, Control_c, 15, 11, 83
18, 82470, Control_c, 15, 11, 84
18, 82508, Control_c, 15, 11, 85
18, 82545, Control_c, 15, 11, 86
18, 82583, Control_c, 15, 11, 87
18, 82620, Control_c, 15, 11, 88
18, 82658, Control_c, 15, 11, 89
18, 82695, Control_c, 15, 11, 90
18, 82733, Control_c, 15, 11, 91
18, 82770, Control_c, 15, 11, 92
18, 82791, Note_on_c, 15, 29, 0
18, 82800, Note_on_c, 15, 29, 76
18, 82808, Control_c, 15, 11, 93
18, 82845, Control_c, 15, 11, 94
18, 82883, Control_c, 15, 11, 95
18, 82920, Control_c, 15, 11, 96
18, 82958, Control_c, 15, 11, 97
18, 82995, Control_c, 15, 11, 98
18, 83033, Control_c, 15, 11, 99
18, 83070, Control_c, 15, 11, 100
18, 83108, Control_c, 15, 11, 101
18, 83145, Control_c, 15, 11, 102
18, 83183, Control_c, 15, 11, 103
18, 83220, Control_c, 15, 11, 104
18, 83258, Control_c, 15, 11, 105
18, 83295, Control_c, 15, 11, 106
18, 83333, Control_c, 15, 11, 107
18, 83370, Control_c, 15, 11, 108
18, 83408, Control_c, 15, 11, 109
18, 83445, Control_c, 15, 11, 110
18, 83483, Control_c, 15, 11, 112
18, 83511, Note_on_c, 15, 29, 0
18, 83520, Note_on_c, 15, 29, 60
18, 83759, Note_on_c, 15, 29, 0
18, 84000, Program_c, 15, 45
18, 84000, Control_c, 15, 11, 127
18, 89160, Note_on_c, 15, 41, 50
18, 89279, Note_on_c, 15, 41, 0
18, 89280, Note_on_c, 15, 41, 51
18, 89519, Note_on_c, 15, 41, 0
18, 89880, Note_on_c, 15, 41, 53
18, 89999, Note_on_c, 15, 41, 0
18, 90000, Note_on_c, 15, 41, 54
18, 90239, Note_on_c, 15, 41, 0
18, 90600, Note_on_c, 15, 41, 56
18, 90719, Note_on_c, 15, 41, 0
18, 90720, Note_on_c, 15, 41, 57
18, 90959, Note_on_c, 15, 41, 0
18, 91320, Note_on_c, 15, 41, 59
18, 91439, Note_on_c, 15, 41, 0
18, 91440, Note_on_c, 15, 38, 60
18, 91679, Note_on_c, 15, 38, 0
18, 92040, Note_on_c, 15, 40, 63
18, 92159, Note_on_c, 15, 40, 0
18, 92160, Note_on_c, 15, 40, 63
18, 92399, Note_on_c, 15, 40, 0
18, 92760, Note_on_c, 15, 36, 66
18, 92879, Note_on_c, 15, 36, 0
18, 92880, Note_on_c, 15, 41, 66
18, 93119, Note_on_c, 15, 41, 0
18, 93240, Note_on_c, 15, 38, 68
18, 93479, Note_on_c, 15, 38, 0
18, 93480, Note_on_c, 15, 33, 69
18, 93599, Note_on_c, 15, 33, 0
18, 93600, Note_on_c, 15, 34, 69
18, 93839, Note_on_c, 15, 34, 0
18, 93960, Note_on_c, 15, 36, 71
18, 94199, Note_on_c, 15, 36, 0
18, 94200, Note_on_c, 15, 36, 72
18, 94319, Note_on_c, 15, 36, 0
18, 94320, Note_on_c, 15, 41, 72
18, 94559, Note_on_c, 15, 41, 0
18, 94920, Program_c, 15, 48
18, 95040, Note_on_c, 15, 29, 84
18, 95151, Note_on_c, 15, 29, 0
18, 95160, Note_on_c, 15, 41, 84
18, 95271, Note_on_c, 15, 41, 0
18, 95280, Note_on_c, 15, 41, 84
18, 95391, Note_on_c, 15, 41, 0
18, 95400, Note_on_c, 15, 41, 84
18, 95511, Note_on_c, 15, 41, 0
18, 95520, Note_on_c, 15, 29, 84
18, 95631, Note_on_c, 15, 29, 0
18, 95640, Note_on_c, 15, 29, 84
18, 95751, Note_on_c, 15, 29, 0
18, 95760, Note_on_c, 15, 29, 84
18, 95871, Note_on_c, 15, 29, 0
18, 95880, Note_on_c, 15, 41, 84
18, 95991, Note_on_c, 15, 41, 0
18, 96000, Note_on_c, 15, 41, 84
18, 96111, Note_on_c, 15, 41, 0
18, 96120, Note_on_c, 15, 41, 84
18, 96231, Note_on_c, 15, 41, 0
18, 96240, Note_on_c, 15, 29, 84
18, 96351, Note_on_c, 15, 29, 0
18, 96360, Note_on_c, 15, 29, 84
18, 96471, Note_on_c, 15, 29, 0
18, 96480, Note_on_c, 15, 29, 84
18, 96591, Note_on_c, 15, 29, 0
18, 96600, Note_on_c, 15, 41, 84
18, 96711, Note_on_c, 15, 41, 0
18, 96720, Note_on_c, 15, 41, 84
18, 96831, Note_on_c, 15, 41, 0
18, 96840, Note_on_c, 15, 41, 84
18, 96951, Note_on_c, 15, 41, 0
18, 96960, Note_on_c, 15, 29, 84
18, 97071, Note_on_c, 15, 29, 0
18, 97080, Note_on_c, 15, 29, 84
18, 97191, Note_on_c, 15, 29, 0
18, 97200, Note_on_c, 15, 38, 84
18, 97311, Note_on_c, 15, 38, 0
18, 97320, Note_on_c, 15, 50, 84
18, 97431, Note_on_c, 15, 50, 0
18, 97440, Note_on_c, 15, 50, 84
18, 97551, Note_on_c, 15, 50, 0
18, 97560, Note_on_c, 15, 50, 84
18, 97671, Note_on_c, 15, 50, 0
18, 97680, Note_on_c, 15, 38, 84
18, 97791, Note_on_c, 15, 38, 0
18, 97800, Note_on_c, 15, 40, 84
18, 97911, Note_on_c, 15, 40, 0
18, 97920, Note_on_c, 15, 40, 84
18, 98031, Note_on_c, 15, 40, 0
18, 98040, Note_on_c, 15, 52, 84
18, 98151, Note_on_c, 15, 52, 0
18, 98160, Note_on_c, 15, 40, 84
18, 98271, Note_on_c, 15, 40, 0
18, 98280, Note_on_c, 15, 40, 84
18, 98391, Note_on_c, 15, 40, 0
18, 98400, Note_on_c, 15, 40, 84
18, 98511, Note_on_c, 15, 40, 0
18, 98520, Note_on_c, 15, 36, 84
18, 98631, Note_on_c, 15, 36, 0
18, 98640, Note_on_c, 15, 29, 84
18, 98751, Note_on_c, 15, 29, 0
18, 98760, Note_on_c, 15, 41, 84
18, 98871, Note_on_c, 15, 41, 0
18, 98880, Note_on_c, 15, 41, 84
18, 98991, Note_on_c, 15, 41, 0
18, 99000, Note_on_c, 15, 38, 84
18, 99111, Note_on_c, 15, 38, 0
18, 99120, Note_on_c, 15, 38, 84
18, 99231, Note_on_c, 15, 38, 0
18, 99240, Note_on_c, 15, 33, 84
18, 99351, Note_on_c, 15, 33, 0
18, 99360, Note_on_c, 15, 34, 84
18, 99471, Note_on_c, 15, 34, 0
18, 99480, Note_on_c, 15, 46, 84
18, 99591, Note_on_c, 15, 46, 0
18, 99600, Note_on_c, 15, 34, 84
18, 99711, Note_on_c, 15, 34, 0
18, 99720, Note_on_c, 15, 36, 84
18, 99831, Note_on_c, 15, 36, 0
18, 99840, Note_on_c, 15, 36, 84
18, 99951, Note_on_c, 15, 36, 0
18, 99960, Note_on_c, 15, 36, 84
18, 100071, Note_on_c, 15, 36, 0
18, 100080, Note_on_c, 15, 29, 84
18, 100319, Note_on_c, 15, 29, 0
18, 101400, Note_on_c, 15, 34, 84
18, 101511, Note_on_c, 15, 34, 0
18, 101520, Note_on_c, 15, 33, 84
18, 101871, Note_on_c, 15, 33, 0
18, 101880, Note_on_c, 15, 40, 84
18, 102231, Note_on_c, 15, 40, 0
18, 102240, Note_on_c, 15, 41, 84
18, 102591, Note_on_c, 15, 41, 0
18, 102600, Note_on_c, 15, 36, 84
18, 102831, Note_on_c, 15, 36, 0
18, 102840, Note_on_c, 15, 36, 84
18, 102959, Note_on_c, 15, 36, 0
18, 103560, Note_on_c, 15, 36, 84
18, 103671, Note_on_c, 15, 36, 0
18, 103680, Note_on_c, 15, 41, 84
18, 104031, Note_on_c, 15, 41, 0
18, 104040, Note_on_c, 15, 43, 84
18, 104271, Note_on_c, 15, 43, 0
18, 104280, Note_on_c, 15, 31, 84
18, 104391, Note_on_c, 15, 31, 0
18, 104400, Note_on_c, 15, 33, 84
18, 104639, Note_on_c, 15, 33, 0
18, 105000, Note_on_c, 15, 35, 84
18, 105111, Note_on_c, 15, 35, 0
18, 105120, Note_on_c, 15, 36, 84
18, 105359, Note_on_c, 15, 36, 0
18, 105720, Note_on_c, 15, 38, 84
18, 105831, Note_on_c, 15, 38, 0
18, 105840, Note_on_c, 15, 40, 88
18, 106079, Note_on_c, 15, 40, 0
18, 106440, Note_on_c, 15, 41, 88
18, 106551, Note_on_c, 15, 41, 0
18, 106560, Note_on_c, 15, 43, 88
18, 106791, Note_on_c, 15, 43, 0
18, 106800, Note_on_c, 15, 36, 88
18, 106911, Note_on_c, 15, 36, 0
18, 106920, Note_on_c, 15, 36, 88
18, 107151, Note_on_c, 15, 36, 0
18, 107160, Note_on_c, 15, 36, 88
18, 107271, Note_on_c, 15, 36, 0
18, 107280, Note_on_c, 15, 36, 96
18, 107339, Note_on_c, 15, 36, 0
18, 107340, Note_on_c, 15, 36, 88
18, 107999, Note_on_c, 15, 36, 0
18, 108360, Note_on_c, 15, 38, 88
18, 108479, Note_on_c, 15, 38, 0
18, 108480, Note_on_c, 15, 36, 88
18, 108591, Note_on_c, 15, 36, 0
18, 108600, Note_on_c, 15, 33, 88
18, 108644, Note_on_c, 15, 33, 0
18, 108660, Note_on_c, 15, 29, 88
18, 108704, Note_on_c, 15, 29, 0
18, 108720, Note_on_c, 15, 36, 88
18, 109439, Note_on_c, 15, 36, 0
18, 109800, Note_on_c, 15, 36, 88
18, 109919, Note_on_c, 15, 36, 0
18, 109920, Note_on_c, 15, 34, 88
18, 110031, Note_on_c, 15, 34, 0
18, 110040, Note_on_c, 15, 31, 88
18, 110084, Note_on_c, 15, 31, 0
18, 110100, Note_on_c, 15, 28, 88
18, 110144, Note_on_c, 15, 28, 0
18, 110160, Note_on_c, 15, 36, 88
18, 110879, Note_on_c, 15, 36, 0
18, 111240, Note_on_c, 15, 38, 88
18, 111299, Note_on_c, 15, 38, 0
18, 111300, Note_on_c, 15, 36, 88
18, 111355, Note_on_c, 15, 36, 0
18, 111360, Note_on_c, 15, 35, 88
18, 111404, Note_on_c, 15, 35, 0
18, 111420, Note_on_c, 15, 36, 88
18, 111464, Note_on_c, 15, 36, 0
18, 111480, Note_on_c, 15, 33, 88
18, 111524, Note_on_c, 15, 33, 0
18, 111540, Note_on_c, 15, 29, 88
18, 111584, Note_on_c, 15, 29, 0
18, 111600, Note_on_c, 15, 36, 88
18, 112319, Note_on_c, 15, 36, 0
18, 112680, Note_on_c, 15, 36, 88
18, 112739, Note_on_c, 15, 36, 0
18, 112740, Note_on_c, 15, 34, 88
18, 112795, Note_on_c, 15, 34, 0
18, 112800, Note_on_c, 15, 31, 88
18, 112844, Note_on_c, 15, 31, 0
18, 112860, Note_on_c, 15, 40, 88
18, 112904, Note_on_c, 15, 40, 0
18, 112920, Note_on_c, 15, 36, 88
18, 112964, Note_on_c, 15, 36, 0
18, 112980, Note_on_c, 15, 36, 88
18, 113024, Note_on_c, 15, 36, 0
18, 113040, Note_on_c, 15, 29, 76
18, 113279, Note_on_c, 15, 29, 0
18, 114000, Note_on_c, 15, 41, 74
18, 114119, Note_on_c, 15, 41, 0
18, 114120, Note_on_c, 15, 36, 76
18, 114351, Note_on_c, 15, 36, 0
18, 114360, Note_on_c, 15, 36, 76
18, 114471, Note_on_c, 15, 36, 0
18, 114480, Note_on_c, 15, 41, 76
18, 114719, Note_on_c, 15, 41, 0
18, 115440, Note_on_c, 15, 29, 72
18, 115559, Note_on_c, 15, 29, 0
18, 115560, Note_on_c, 15, 36, 76
18, 115791, Note_on_c, 15, 36, 0
18, 115800, Note_on_c, 15, 36, 76
18, 115889, Note_on_c, 15, 36, 0
18, 115920, Note_on_c, 15, 29, 84
18, 116399, Note_on_c, 15, 29, 0
18, 116520, Note_on_c, 15, 29, 84
18, 116609, Note_on_c, 15, 29, 0
18, 116640, Note_on_c, 15, 34, 84
18, 117119, Note_on_c, 15, 34, 0
18, 117240, Note_on_c, 15, 34, 84
18, 117329, Note_on_c, 15, 34, 0
18, 117360, Note_on_c, 15, 36, 84
18, 117599, Note_on_c, 15, 36, 0
18, 125160, Note_on_c, 15, 31, 76
18, 125271, Note_on_c, 15, 31, 0
18, 125280, Note_on_c, 15, 28, 76
18, 125399, Note_on_c, 15, 28, 0
18, 125400, Note_on_c, 15, 24, 76
18, 125519, Note_on_c, 15, 24, 0
18, 125520, Note_on_c, 15, 31, 76
18, 125631, Note_on_c, 15, 31, 0
18, 125640, Note_on_c, 15, 28, 76
18, 125759, Note_on_c, 15, 28, 0
18, 125760, Note_on_c, 15, 40, 76
18, 125879, Note_on_c, 15, 40, 0
18, 125880, Note_on_c, 15, 31, 76
18, 125991, Note_on_c, 15, 31, 0
18, 126000, Note_on_c, 15, 43, 76
18, 126119, Note_on_c, 15, 43, 0
18, 126120, Note_on_c, 15, 36, 76
18, 126231, Note_on_c, 15, 36, 0
18, 126240, Note_on_c, 15, 48, 76
18, 126351, Note_on_c, 15, 48, 0
18, 126360, Note_on_c, 15, 24, 76
18, 126471, Note_on_c, 15, 24, 0
18, 126480, Note_on_c, 15, 36, 76
18, 126591, Note_on_c, 15, 36, 0
18, 126600, Note_on_c, 15, 24, 76
18, 126711, Note_on_c, 15, 24, 0
18, 126720, Note_on_c, 15, 29, 84
18, 126959, Note_on_c, 15, 29, 0
18, 129600, Program_c, 15, 45
18, 130200, Note_on_c, 15, 36, 48
18, 130319, Note_on_c, 15, 36, 0
18, 130320, Note_on_c, 15, 41, 48
18, 130559, Note_on_c, 15, 41, 0
18, 130920, Note_on_c, 15, 41, 51
18, 131039, Note_on_c, 15, 41, 0
18, 131040, Note_on_c, 15, 38, 52
18, 131279, Note_on_c, 15, 38, 0
18, 131640, Note_on_c, 15, 38, 55
18, 131759, Note_on_c, 15, 38, 0
18, 131760, Note_on_c, 15, 31, 56
18, 131999, Note_on_c, 15, 31, 0
18, 132360, Note_on_c, 15, 31, 59
18, 132479, Note_on_c, 15, 31, 0
18, 132480, Note_on_c, 15, 36, 60
18, 132719, Note_on_c, 15, 36, 0
18, 132960, Program_c, 15, 48
18, 133080, Note_on_c, 15, 36, 67
18, 133191, Note_on_c, 15, 36, 0
18, 133200, Note_on_c, 15, 29, 68
18, 133311, Note_on_c, 15, 29, 0
18, 133320, Note_on_c, 15, 41, 68
18, 133431, Note_on_c, 15, 41, 0
18, 133440, Note_on_c, 15, 41, 69
18, 133551, Note_on_c, 15, 41, 0
18, 133560, Note_on_c, 15, 41, 70
18, 133671, Note_on_c, 15, 41, 0
18, 133680, Note_on_c, 15, 41, 70
18, 133791, Note_on_c, 15, 41, 0
18, 133800, Note_on_c, 15, 41, 71
18, 133911, Note_on_c, 15, 41, 0
18, 133920, Note_on_c, 15, 38, 72
18, 134031, Note_on_c, 15, 38, 0
18, 134040, Note_on_c, 15, 38, 72
18, 134151, Note_on_c, 15, 38, 0
18, 134160, Note_on_c, 15, 38, 73
18, 134271, Note_on_c, 15, 38, 0
18, 134280, Note_on_c, 15, 38, 74
18, 134391, Note_on_c, 15, 38, 0
18, 134400, Note_on_c, 15, 38, 74
18, 134511, Note_on_c, 15, 38, 0
18, 134520, Note_on_c, 15, 38, 75
18, 134631, Note_on_c, 15, 38, 0
18, 134640, Note_on_c, 15, 31, 76
18, 134751, Note_on_c, 15, 31, 0
18, 134760, Note_on_c, 15, 43, 76
18, 134871, Note_on_c, 15, 43, 0
18, 134880, Note_on_c, 15, 43, 77
18, 134991, Note_on_c, 15, 43, 0
18, 135000, Note_on_c, 15, 43, 78
18, 135111, Note_on_c, 15, 43, 0
18, 135120, Note_on_c, 15, 43, 78
18, 135231, Note_on_c, 15, 43, 0
18, 135240, Note_on_c, 15, 43, 79
18, 135351, Note_on_c, 15, 43, 0
18, 135360, Note_on_c, 15, 36, 80
18, 135471, Note_on_c, 15, 36, 0
18, 135480, Note_on_c, 15, 36, 80
18, 135591, Note_on_c, 15, 36, 0
18, 135600, Note_on_c, 15, 36, 81
18, 135711, Note_on_c, 15, 36, 0
18, 135720, Note_on_c, 15, 36, 82
18, 135831, Note_on_c, 15, 36, 0
18, 135840, Note_on_c, 15, 36, 82
18, 135951, Note_on_c, 15, 36, 0
18, 135960, Note_on_c, 15, 36, 83
18, 136071, Note_on_c, 15, 36, 0
18, 136080, Note_on_c, 15, 29, 84
18, 136671, Note_on_c, 15, 29, 0
18, 136680, Note_on_c, 15, 41, 84
18, 136799, Note_on_c, 15, 41, 0
18, 136800, Note_on_c, 15, 45, 84
18, 137039, Note_on_c, 15, 45, 0
18, 137040, Note_on_c, 15, 48, 84
18, 137159, Note_on_c, 15, 48, 0
18, 137160, Note_on_c, 15, 53, 84
18, 137391, Note_on_c, 15, 53, 0
18, 137400, Note_on_c, 15, 29, 84
18, 137489, Note_on_c, 15, 29, 0
18, 137520, Note_on_c, 15, 26, 92
18, 137579, Note_on_c, 15, 26, 0
18, 137580, Note_on_c, 15, 26, 84
18, 138111, Note_on_c, 15, 26, 0
18, 138120, Note_on_c, 15, 38, 84
18, 138239, Note_on_c, 15, 38, 0
18, 138240, Note_on_c, 15, 41, 84
18, 138479, Note_on_c, 15, 41, 0
18, 138480, Note_on_c, 15, 45, 84
18, 138599, Note_on_c, 15, 45, 0
18, 138600, Note_on_c, 15, 50, 84
18, 138831, Note_on_c, 15, 50, 0
18, 138840, Note_on_c, 15, 38, 84
18, 138929, Note_on_c, 15, 38, 0
18, 138960, Note_on_c, 15, 31, 92
18, 139019, Note_on_c, 15, 31, 0
18, 139020, Note_on_c, 15, 31, 84
18, 139551, Note_on_c, 15, 31, 0
18, 139560, Note_on_c, 15, 43, 84
18, 139679, Note_on_c, 15, 43, 0
18, 139680, Note_on_c, 15, 47, 84
18, 139680, Control_c, 15, 11, 127
18, 139710, Control_c, 15, 11, 124
18, 139740, Control_c, 15, 11, 120
18, 139770, Control_c, 15, 11, 117
18, 139800, Control_c, 15, 11, 114
18, 139830, Control_c, 15, 11, 111
18, 139860, Control_c, 15, 11, 107
18, 139890, Control_c, 15, 11, 104
18, 139919, Note_on_c, 15, 47, 0
18, 139920, Note_on_c, 15, 50, 84
18, 139920, Control_c, 15, 11, 101
18, 139950, Control_c, 15, 11, 97
18, 139980, Control_c, 15, 11, 94
18, 140010, Control_c, 15, 11, 91
18, 140039, Note_on_c, 15, 50, 0
18, 140040, Control_c, 15, 11, 88
18, 140040, Note_on_c, 15, 55, 84
18, 140070, Control_c, 15, 11, 84
18, 140100, Control_c, 15, 11, 81
18, 140130, Control_c, 15, 11, 78
18, 140160, Control_c, 15, 11, 74
18, 140190, Control_c, 15, 11, 71
18, 140220, Control_c, 15, 11, 68
18, 140250, Control_c, 15, 11, 64
18, 140271, Note_on_c, 15, 55, 0
18, 140280, Control_c, 15, 11, 61
18, 140280, Note_on_c, 15, 43, 84
18, 140310, Control_c, 15, 11, 58
18, 140340, Control_c, 15, 11, 55
18, 140370, Control_c, 15, 11, 51
18, 140391, Note_on_c, 15, 43, 0
18, 144480, Control_c, 15, 11, 105
18, 144600, Note_on_c, 15, 52, 76
18, 144640, Control_c, 15, 11, 106
18, 144707, Control_c, 15, 11, 107
18, 144719, Note_on_c, 15, 52, 0
18, 144720, Note_on_c, 15, 48, 76
18, 144773, Control_c, 15, 11, 108
18, 144839, Note_on_c, 15, 48, 0
18, 144840, Control_c, 15, 11, 109
18, 144840, Note_on_c, 15, 46, 76
18, 144907, Control_c, 15, 11, 110
18, 144959, Note_on_c, 15, 46, 0
18, 144960, Note_on_c, 15, 48, 76
18, 144973, Control_c, 15, 11, 111
18, 145040, Control_c, 15, 11, 112
18, 145079, Note_on_c, 15, 48, 0
18, 145080, Note_on_c, 15, 46, 76
18, 145107, Control_c, 15, 11, 113
18, 145173, Control_c, 15, 11, 114
18, 145199, Note_on_c, 15, 46, 0
18, 145200, Note_on_c, 15, 43, 76
18, 145240, Control_c, 15, 11, 115
18, 145307, Control_c, 15, 11, 116
18, 145319, Note_on_c, 15, 43, 0
18, 145320, Note_on_c, 15, 46, 76
18, 145373, Control_c, 15, 11, 117
18, 145439, Note_on_c, 15, 46, 0
18, 145440, Note_on_c, 15, 43, 76
18, 145440, Control_c, 15, 11, 118
18, 145507, Control_c, 15, 11, 119
18, 145559, Note_on_c, 15, 43, 0
18, 145560, Note_on_c, 15, 40, 76
18, 145573, Control_c, 15, 11, 120
18, 145640, Control_c, 15, 11, 121
18, 145679, Note_on_c, 15, 40, 0
18, 145680, Note_on_c, 15, 43, 76
18, 145707, Control_c, 15, 11, 122
18, 145773, Control_c, 15, 11, 123
18, 145799, Note_on_c, 15, 43, 0
18, 145800, Note_on_c, 15, 40, 76
18, 145840, Control_c, 15, 11, 124
18, 145907, Control_c, 15, 11, 125
18, 145919, Note_on_c, 15, 40, 0
18, 145920, Note_on_c, 15, 36, 76
18, 145973, Control_c, 15, 11, 127
18, 146039, Note_on_c, 15, 36, 0
18, 146040, Note_on_c, 15, 40, 76
18, 146151, Note_on_c, 15, 40, 0
18, 146160, Note_on_c, 15, 36, 76
18, 146279, Note_on_c, 15, 36, 0
18, 146280, Note_on_c, 15, 34, 76
18, 146399, Note_on_c, 15, 34, 0
18, 146400, Note_on_c, 15, 36, 76
18, 146519, Note_on_c, 15, 36, 0
18, 146520, Note_on_c, 15, 34, 76
18, 146639, Note_on_c, 15, 34, 0
18, 146640, Note_on_c, 15, 31, 76
18, 146751, Note_on_c, 15, 31, 0
18, 146760, Note_on_c, 15, 46, 76
18, 146849, Note_on_c, 15, 46, 0
18, 146880, Note_on_c, 15, 43, 76
18, 146969, Note_on_c, 15, 43, 0
18, 147000, Note_on_c, 15, 40, 76
18, 147089, Note_on_c, 15, 40, 0
18, 147120, Note_on_c, 15, 36, 76
18, 147209, Note_on_c, 15, 36, 0
18, 147240, Note_on_c, 15, 31, 76
18, 147329, Note_on_c, 15, 31, 0
18, 147360, Note_on_c, 15, 24, 76
18, 147449, Note_on_c, 15, 24, 0
18, 147480, Note_on_c, 15, 36, 76
18, 147569, Note_on_c, 15, 36, 0
18, 147600, Note_on_c, 15, 41, 84
18, 147839, Note_on_c, 15, 41, 0
18, 150480, Program_c, 15, 45
18, 151080, Note_on_c, 15, 36, 44
18, 151199, Note_on_c, 15, 36, 0
18, 151200, Note_on_c, 15, 41, 44
18, 151439, Note_on_c, 15, 41, 0
18, 151800, Note_on_c, 15, 38, 47
18, 151919, Note_on_c, 15, 38, 0
18, 151920, Note_on_c, 15, 38, 48
18, 152159, Note_on_c, 15, 38, 0
18, 152520, Note_on_c, 15, 38, 51
18, 152639, Note_on_c, 15, 38, 0
18, 152640, Note_on_c, 15, 43, 52
18, 152879, Note_on_c, 15, 43, 0
18, 153240, Note_on_c, 15, 43, 55
18, 153359, Note_on_c, 15, 43, 0
18, 153360, Note_on_c, 15, 36, 56
18, 153599, Note_on_c, 15, 36, 0
18, 153840, Program_c, 15, 48
18, 153960, Note_on_c, 15, 36, 67
18, 154079, Note_on_c, 15, 36, 0
18, 154080, Note_on_c, 15, 41, 68
18, 154135, Note_on_c, 15, 41, 0
18, 154140, Note_on_c, 15, 41, 68
18, 154195, Note_on_c, 15, 41, 0
18, 154200, Note_on_c, 15, 41, 68
18, 154255, Note_on_c, 15, 41, 0
18, 154260, Note_on_c, 15, 41, 69
18, 154315, Note_on_c, 15, 41, 0
18, 154320, Note_on_c, 15, 39, 69
18, 154375, Note_on_c, 15, 39, 0
18, 154380, Note_on_c, 15, 39, 69
18, 154435, Note_on_c, 15, 39, 0
18, 154440, Note_on_c, 15, 38, 70
18, 154495, Note_on_c, 15, 38, 0
18, 154500, Note_on_c, 15, 38, 70
18, 154555, Note_on_c, 15, 38, 0
18, 154560, Note_on_c, 15, 38, 70
18, 154615, Note_on_c, 15, 38, 0
18, 154620, Note_on_c, 15, 38, 71
18, 154675, Note_on_c, 15, 38, 0
18, 154680, Note_on_c, 15, 38, 71
18, 154735, Note_on_c, 15, 38, 0
18, 154740, Note_on_c, 15, 38, 71
18, 154795, Note_on_c, 15, 38, 0
18, 154800, Note_on_c, 15, 38, 72
18, 154855, Note_on_c, 15, 38, 0
18, 154860, Note_on_c, 15, 50, 72
18, 154915, Note_on_c, 15, 50, 0
18, 154920, Note_on_c, 15, 50, 72
18, 154975, Note_on_c, 15, 50, 0
18, 154980, Note_on_c, 15, 50, 73
18, 155035, Note_on_c, 15, 50, 0
18, 155040, Note_on_c, 15, 50, 73
18, 155095, Note_on_c, 15, 50, 0
18, 155100, Note_on_c, 15, 50, 73
18, 155155, Note_on_c, 15, 50, 0
18, 155160, Note_on_c, 15, 50, 74
18, 155215, Note_on_c, 15, 50, 0
18, 155220, Note_on_c, 15, 38, 74
18, 155275, Note_on_c, 15, 38, 0
18, 155280, Note_on_c, 15, 38, 74
18, 155335, Note_on_c, 15, 38, 0
18, 155340, Note_on_c, 15, 38, 75
18, 155395, Note_on_c, 15, 38, 0
18, 155400, Note_on_c, 15, 38, 75
18, 155455, Note_on_c, 15, 38, 0
18, 155460, Note_on_c, 15, 38, 75
18, 155515, Note_on_c, 15, 38, 0
18, 155520, Note_on_c, 15, 31, 76
18, 155575, Note_on_c, 15, 31, 0
18, 155580, Note_on_c, 15, 43, 76
18, 155635, Note_on_c, 15, 43, 0
18, 155640, Note_on_c, 15, 43, 76
18, 155695, Note_on_c, 15, 43, 0
18, 155700, Note_on_c, 15, 43, 77
18, 155755, Note_on_c, 15, 43, 0
18, 155760, Note_on_c, 15, 43, 77
18, 155815, Note_on_c, 15, 43, 0
18, 155820, Note_on_c, 15, 43, 77
18, 155875, Note_on_c, 15, 43, 0
18, 155880, Note_on_c, 15, 43, 78
18, 155935, Note_on_c, 15, 43, 0
18, 155940, Note_on_c, 15, 31, 78
18, 155995, Note_on_c, 15, 31, 0
18, 156000, Note_on_c, 15, 31, 78
18, 156055, Note_on_c, 15, 31, 0
18, 156060, Note_on_c, 15, 31, 79
18, 156115, Note_on_c, 15, 31, 0
18, 156120, Note_on_c, 15, 31, 79
18, 156175, Note_on_c, 15, 31, 0
18, 156180, Note_on_c, 15, 31, 79
18, 156235, Note_on_c, 15, 31, 0
18, 156240, Note_on_c, 15, 36, 80
18, 156295, Note_on_c, 15, 36, 0
18, 156300, Note_on_c, 15, 48, 80
18, 156355, Note_on_c, 15, 48, 0
18, 156360, Note_on_c, 15, 48, 80
18, 156415, Note_on_c, 15, 48, 0
18, 156420, Note_on_c, 15, 48, 81
18, 156475, Note_on_c, 15, 48, 0
18, 156480, Note_on_c, 15, 48, 81
18, 156535, Note_on_c, 15, 48, 0
18, 156540, Note_on_c, 15, 48, 81
18, 156595, Note_on_c, 15, 48, 0
18, 156600, Note_on_c, 15, 48, 82
18, 156655, Note_on_c, 15, 48, 0
18, 156660, Note_on_c, 15, 36, 82
18, 156715, Note_on_c, 15, 36, 0
18, 156720, Note_on_c, 15, 36, 82
18, 156775, Note_on_c, 15, 36, 0
18, 156780, Note_on_c, 15, 34, 83
18, 156835, Note_on_c, 15, 34, 0
18, 156840, Note_on_c, 15, 33, 83
18, 156895, Note_on_c, 15, 33, 0
18, 156900, Note_on_c, 15, 31, 83
18, 156955, Note_on_c, 15, 31, 0
18, 156960, Note_on_c, 15, 29, 84
18, 157199, Note_on_c, 15, 29, 0
18, 157200, Note_on_c, 15, 33, 84
18, 157319, Note_on_c, 15, 33, 0
18, 157320, Note_on_c, 15, 36, 84
18, 157559, Note_on_c, 15, 36, 0
18, 157560, Note_on_c, 15, 41, 84
18, 157679, Note_on_c, 15, 41, 0
18, 157680, Note_on_c, 15, 45, 84
18, 157919, Note_on_c, 15, 45, 0
18, 157920, Note_on_c, 15, 48, 84
18, 158039, Note_on_c, 15, 48, 0
18, 158040, Note_on_c, 15, 53, 84
18, 158129, Note_on_c, 15, 53, 0
18, 158280, Note_on_c, 15, 29, 84
18, 158369, Note_on_c, 15, 29, 0
18, 158400, Note_on_c, 15, 26, 92
18, 158459, Note_on_c, 15, 26, 0
18, 158460, Note_on_c, 15, 26, 84
18, 158639, Note_on_c, 15, 26, 0
18, 158640, Note_on_c, 15, 29, 84
18, 158759, Note_on_c, 15, 29, 0
18, 158760, Note_on_c, 15, 33, 84
18, 158999, Note_on_c, 15, 33, 0
18, 159000, Note_on_c, 15, 38, 84
18, 159119, Note_on_c, 15, 38, 0
18, 159120, Note_on_c, 15, 41, 84
18, 159359, Note_on_c, 15, 41, 0
18, 159360, Note_on_c, 15, 45, 84
18, 159479, Note_on_c, 15, 45, 0
18, 159480, Note_on_c, 15, 50, 84
18, 159569, Note_on_c, 15, 50, 0
18, 159720, Note_on_c, 15, 38, 84
18, 159809, Note_on_c, 15, 38, 0
18, 159840, Note_on_c, 15, 31, 92
18, 159899, Note_on_c, 15, 31, 0
18, 159900, Note_on_c, 15, 31, 84
18, 160079, Note_on_c, 15, 31, 0
18, 160080, Note_on_c, 15, 35, 84
18, 160199, Note_on_c, 15, 35, 0
18, 160200, Note_on_c, 15, 38, 84
18, 160439, Note_on_c, 15, 38, 0
18, 160440, Note_on_c, 15, 43, 84
18, 160559, Note_on_c, 15, 43, 0
18, 160560, Note_on_c, 15, 47, 84
18, 160799, Note_on_c, 15, 47, 0
18, 160800, Note_on_c, 15, 50, 84
18, 160919, Note_on_c, 15, 50, 0
18, 160920, Note_on_c, 15, 55, 84
18, 161009, Note_on_c, 15, 55, 0
18, 161160, Note_on_c, 15, 31, 84
18, 161249, Note_on_c, 15, 31, 0
18, 161280, Note_on_c, 15, 24, 92
18, 161339, Note_on_c, 15, 24, 0
18, 161340, Note_on_c, 15, 24, 84
18, 161519, Note_on_c, 15, 24, 0
18, 161520, Note_on_c, 15, 31, 84
18, 161639, Note_on_c, 15, 31, 0
18, 161640, Note_on_c, 15, 36, 84
18, 161879, Note_on_c, 15, 36, 0
18, 161880, Note_on_c, 15, 43, 84
18, 161999, Note_on_c, 15, 43, 0
18, 162000, Note_on_c, 15, 48, 84
18, 162239, Note_on_c, 15, 48, 0
18, 162240, Note_on_c, 15, 52, 84
18, 162359, Note_on_c, 15, 52, 0
18, 162360, Note_on_c, 15, 55, 84
18, 162449, Note_on_c, 15, 55, 0
18, 162600, Note_on_c, 15, 36, 84
18, 162689, Note_on_c, 15, 36, 0
18, 162720, Note_on_c, 15, 29, 84
18, 162959, Note_on_c, 15, 29, 0
18, 162960, Note_on_c, 15, 33, 84
18, 163079, Note_on_c, 15, 33, 0
18, 163080, Note_on_c, 15, 36, 84
18, 163319, Note_on_c, 15, 36, 0
18, 163320, Note_on_c, 15, 41, 84
18, 163439, Note_on_c, 15, 41, 0
18, 163440, Note_on_c, 15, 45, 84
18, 163679, Note_on_c, 15, 45, 0
18, 163680, Note_on_c, 15, 48, 84
18, 163799, Note_on_c, 15, 48, 0
18, 163800, Note_on_c, 15, 53, 84
18, 163889, Note_on_c, 15, 53, 0
18, 164040, Note_on_c, 15, 29, 84
18, 164129, Note_on_c, 15, 29, 0
18, 164160, Note_on_c, 15, 29, 92
18, 164219, Note_on_c, 15, 29, 0
18, 164220, Note_on_c, 15, 29, 84
18, 164399, Note_on_c, 15, 29, 0
18, 164400, Note_on_c, 15, 34, 84
18, 164519, Note_on_c, 15, 34, 0
18, 164520, Note_on_c, 15, 38, 84
18, 164759, Note_on_c, 15, 38, 0
18, 164760, Note_on_c, 15, 41, 84
18, 164879, Note_on_c, 15, 41, 0
18, 164880, Note_on_c, 15, 46, 84
18, 165119, Note_on_c, 15, 46, 0
18, 165120, Note_on_c, 15, 50, 84
18, 165239, Note_on_c, 15, 50, 0
18, 165240, Note_on_c, 15, 53, 84
18, 165329, Note_on_c, 15, 53, 0
18, 165480, Note_on_c, 15, 29, 84
18, 165569, Note_on_c, 15, 29, 0
18, 165600, Note_on_c, 15, 29, 84
18, 165600, Control_c, 15, 11, 127
18, 165623, Control_c, 15, 11, 126
18, 165646, Control_c, 15, 11, 125
18, 165669, Control_c, 15, 11, 124
18, 165691, Control_c, 15, 11, 123
18, 165714, Control_c, 15, 11, 122
18, 165737, Control_c, 15, 11, 121
18, 165760, Control_c, 15, 11, 120
18, 165783, Control_c, 15, 11, 119
18, 165806, Control_c, 15, 11, 118
18, 165829, Control_c, 15, 11, 117
18, 165839, Note_on_c, 15, 29, 0
18, 165840, Note_on_c, 15, 34, 84
18, 165851, Control_c, 15, 11, 116
18, 165874, Control_c, 15, 11, 115
18, 165897, Control_c, 15, 11, 114
18, 165920, Control_c, 15, 11, 113
18, 165943, Control_c, 15, 11, 112
18, 165959, Note_on_c, 15, 34, 0
18, 165960, Note_on_c, 15, 36, 84
18, 165966, Control_c, 15, 11, 111
18, 165989, Control_c, 15, 11, 110
18, 166011, Control_c, 15, 11, 109
18, 166034, Control_c, 15, 11, 108
18, 166057, Control_c, 15, 11, 107
18, 166080, Control_c, 15, 11, 106
18, 166103, Control_c, 15, 11, 105
18, 166126, Control_c, 15, 11, 104
18, 166149, Control_c, 15, 11, 103
18, 166171, Control_c, 15, 11, 102
18, 166194, Control_c, 15, 11, 101
18, 166199, Note_on_c, 15, 36, 0
18, 166200, Note_on_c, 15, 40, 84
18, 166217, Control_c, 15, 11, 100
18, 166240, Control_c, 15, 11, 99
18, 166263, Control_c, 15, 11, 98
18, 166286, Control_c, 15, 11, 97
18, 166309, Control_c, 15, 11, 96
18, 166319, Note_on_c, 15, 40, 0
18, 166320, Note_on_c, 15, 46, 84
18, 166331, Control_c, 15, 11, 95
18, 166354, Control_c, 15, 11, 94
18, 166377, Control_c, 15, 11, 93
18, 166400, Control_c, 15, 11, 92
18, 166423, Control_c, 15, 11, 91
18, 166446, Control_c, 15, 11, 90
18, 166469, Control_c, 15, 11, 89
18, 166491, Control_c, 15, 11, 88
18, 166514, Control_c, 15, 11, 87
18, 166537, Control_c, 15, 11, 86
18, 166559, Note_on_c, 15, 46, 0
18, 166560, Control_c, 15, 11, 85
18, 166560, Note_on_c, 15, 48, 84
18, 166583, Control_c, 15, 11, 84
18, 166606, Control_c, 15, 11, 83
18, 166629, Control_c, 15, 11, 82
18, 166651, Control_c, 15, 11, 81
18, 166674, Control_c, 15, 11, 80
18, 166679, Note_on_c, 15, 48, 0
18, 166680, Note_on_c, 15, 52, 84
18, 166697, Control_c, 15, 11, 79
18, 166720, Control_c, 15, 11, 78
18, 166743, Control_c, 15, 11, 77
18, 166766, Control_c, 15, 11, 76
18, 166789, Control_c, 15, 11, 75
18, 166811, Control_c, 15, 11, 74
18, 166834, Control_c, 15, 11, 73
18, 166857, Control_c, 15, 11, 72
18, 166880, Control_c, 15, 11, 71
18, 166903, Control_c, 15, 11, 70
18, 166911, Note_on_c, 15, 52, 0
18, 166920, Note_on_c, 15, 41, 84
18, 166926, Control_c, 15, 11, 69
18, 166949, Control_c, 15, 11, 68
18, 166971, Control_c, 15, 11, 67
18, 166994, Control_c, 15, 11, 66
18, 167017, Control_c, 15, 11, 64
18, 167039, Note_on_c, 15, 41, 0
18, 167040, Note_on_c, 15, 46, 84
18, 167279, Note_on_c, 15, 46, 0
18, 167280, Note_on_c, 15, 48, 84
18, 167399, Note_on_c, 15, 48, 0
18, 167400, Note_on_c, 15, 52, 80
18, 167631, Note_on_c, 15, 52, 0
18, 167638, Control_c, 15, 11, 80
18, 167640, Note_on_c, 15, 29, 72
18, 167759, Note_on_c, 15, 29, 0
18, 167760, Note_on_c, 15, 34, 72
18, 167999, Note_on_c, 15, 34, 0
18, 168000, Note_on_c, 15, 36, 72
18, 168119, Note_on_c, 15, 36, 0
18, 168120, Note_on_c, 15, 40, 72
18, 168239, Note_on_c, 15, 40, 0
18, 168240, Note_on_c, 15, 29, 72
18, 168359, Note_on_c, 15, 29, 0
18, 168360, Note_on_c, 15, 34, 72
18, 168475, Note_on_c, 15, 34, 0
18, 168478, Control_c, 15, 11, 96
18, 168480, Note_on_c, 15, 36, 64
18, 168599, Note_on_c, 15, 36, 0
18, 168600, Note_on_c, 15, 40, 64
18, 168719, Note_on_c, 15, 40, 0
18, 168720, Note_on_c, 15, 29, 64
18, 168839, Note_on_c, 15, 29, 0
18, 168840, Note_on_c, 15, 34, 64
18, 168959, Note_on_c, 15, 34, 0
18, 168960, Note_on_c, 15, 36, 64
18, 169079, Note_on_c, 15, 36, 0
18, 169080, Note_on_c, 15, 40, 64
18, 169195, Note_on_c, 15, 40, 0
18, 169198, Control_c, 15, 11, 112
18, 169200, Note_on_c, 15, 29, 56
18, 169319, Note_on_c, 15, 29, 0
18, 169320, Note_on_c, 15, 34, 56
18, 169439, Note_on_c, 15, 34, 0
18, 169440, Note_on_c, 15, 36, 56
18, 169559, Note_on_c, 15, 36, 0
18, 169560, Note_on_c, 15, 40, 56
18, 169679, Note_on_c, 15, 40, 0
18, 169680, Note_on_c, 15, 34, 56
18, 169799, Note_on_c, 15, 34, 0
18, 169800, Note_on_c, 15, 36, 56
18, 169911, Note_on_c, 15, 36, 0
18, 169920, Note_on_c, 15, 29, 48
18, 170159, Note_on_c, 15, 29, 0
18, 175680, Note_on_c, 15, 41, 76
18, 176031, Note_on_c, 15, 41, 0
18, 176040, Note_on_c, 15, 38, 76
18, 176129, Note_on_c, 15, 38, 0
18, 176280, Note_on_c, 15, 33, 76
18, 176369, Note_on_c, 15, 33, 0
18, 176400, Note_on_c, 15, 34, 76
18, 176999, Note_on_c, 15, 34, 0
18, 177720, Note_on_c, 15, 41, 48
18, 177839, Note_on_c, 15, 41, 0
18, 177840, Note_on_c, 15, 36, 48
18, 178431, Note_on_c, 15, 36, 0
18, 178440, Note_on_c, 15, 36, 48
18, 178559, Note_on_c, 15, 36, 0
18, 178560, Note_on_c, 15, 41, 48
18, 178799, Note_on_c, 15, 41, 0
18, 180720, Control_c, 15, 11, 80
18, 181320, Note_on_c, 15, 41, 76
18, 181439, Note_on_c, 15, 41, 0
18, 181440, Note_on_c, 15, 36, 76
18, 181470, Control_c, 15, 11, 82
18, 181500, Control_c, 15, 11, 84
18, 181530, Control_c, 15, 11, 86
18, 181560, Control_c, 15, 11, 88
18, 181590, Control_c, 15, 11, 90
18, 181620, Control_c, 15, 11, 92
18, 181650, Control_c, 15, 11, 94
18, 181680, Control_c, 15, 11, 96
18, 181710, Control_c, 15, 11, 98
18, 181740, Control_c, 15, 11, 100
18, 181770, Control_c, 15, 11, 102
18, 181800, Control_c, 15, 11, 104
18, 181830, Control_c, 15, 11, 105
18, 181860, Control_c, 15, 11, 107
18, 181890, Control_c, 15, 11, 109
18, 181920, Control_c, 15, 11, 111
18, 181950, Control_c, 15, 11, 113
18, 181980, Control_c, 15, 11, 115
18, 182010, Control_c, 15, 11, 117
18, 182031, Note_on_c, 15, 36, 0
18, 182040, Control_c, 15, 11, 119
18, 182040, Note_on_c, 15, 36, 76
18, 182070, Control_c, 15, 11, 121
18, 182100, Control_c, 15, 11, 123
18, 182130, Control_c, 15, 11, 127
18, 182159, Note_on_c, 15, 36, 0
18, 182160, Note_on_c, 15, 36, 76
18, 182369, Note_on_c, 15, 36, 0
18, 182400, Note_on_c, 15, 24, 76
18, 182489, Note_on_c, 15, 24, 0
18, 182520, Note_on_c, 15, 28, 76
18, 182729, Note_on_c, 15, 28, 0
18, 182760, Note_on_c, 15, 31, 76
18, 182849, Note_on_c, 15, 31, 0
18, 182880, Note_on_c, 15, 34, 76
18, 183089, Note_on_c, 15, 34, 0
18, 183120, Note_on_c, 15, 36, 76
18, 183209, Note_on_c, 15, 36, 0
18, 183240, Note_on_c, 15, 40, 76
18, 183449, Note_on_c, 15, 40, 0
18, 183480, Note_on_c, 15, 43, 76
18, 183569, Note_on_c, 15, 43, 0
18, 183600, Note_on_c, 15, 46, 76
18, 183809, Note_on_c, 15, 46, 0
18, 183840, Note_on_c, 15, 43, 72
18, 183929, Note_on_c, 15, 43, 0
18, 183960, Note_on_c, 15, 40, 70
18, 184169, Note_on_c, 15, 40, 0
18, 184200, Note_on_c, 15, 36, 66
18, 184289, Note_on_c, 15, 36, 0
18, 184320, Note_on_c, 15, 34, 64
18, 184529, Note_on_c, 15, 34, 0
18, 184560, Note_on_c, 15, 31, 60
18, 184649, Note_on_c, 15, 31, 0
18, 184680, Note_on_c, 15, 28, 58
18, 184889, Note_on_c, 15, 28, 0
18, 184920, Note_on_c, 15, 24, 54
18, 185009, Note_on_c, 15, 24, 0
18, 185040, Note_on_c, 15, 29, 52
18, 185751, Note_on_c, 15, 29, 0
18, 185760, Note_on_c, 15, 29, 52
18, 186471, Note_on_c, 15, 29, 0
18, 186480, Note_on_c, 15, 29, 44
18, 186719, Note_on_c, 15, 29, 0
18, 188640, Note_on_c, 15, 29, 44
18, 188699, Note_on_c, 15, 29, 0
18, 188700, Note_on_c, 15, 31, 44
18, 188759, Note_on_c, 15, 31, 0
18, 188760, Note_on_c, 15, 33, 44
18, 188819, Note_on_c, 15, 33, 0
18, 188820, Note_on_c, 15, 34, 44
18, 188879, Note_on_c, 15, 34, 0
18, 188880, Note_on_c, 15, 36, 44
18, 188939, Note_on_c, 15, 36, 0
18, 188940, Note_on_c, 15, 35, 44
18, 188999, Note_on_c, 15, 35, 0
18, 189000, Note_on_c, 15, 38, 44
18, 189059, Note_on_c, 15, 38, 0
18, 189060, Note_on_c, 15, 36, 44
18, 189119, Note_on_c, 15, 36, 0
18, 189120, Note_on_c, 15, 34, 44
18, 189179, Note_on_c, 15, 34, 0
18, 189180, Note_on_c, 15, 33, 44
18, 189239, Note_on_c, 15, 33, 0
18, 189240, Note_on_c, 15, 31, 84
18, 189299, Note_on_c, 15, 31, 0
18, 189300, Note_on_c, 15, 29, 84
18, 189355, Note_on_c, 15, 29, 0
18, 189360, Note_on_c, 15, 29, 84
18, 189599, Note_on_c, 15, 29, 0
18, 189599, End_track
19, 0, Start_track
19, 0, Title_t, "Ludwig van Beethoven - Symphony No. 6 in F Major, Op.68 - 5. Allegretto"
19, 0, MIDI_port, 0
19, 0, End_track
0, 0, End_of_file
