0, 0, Header, 1, 18, 240
1, 0, Start_track
1, 0, Sequencer_specific, 10, 0, 0, 91, 35, 1, 0, 5, 6, 42, 0
1, 0, Title_t, "Ludwig van Beethoven - Symphony No. 6 in F Major, Op.68"
1, 0, Instrument_name_t, "Conductor Track"
1, 0, SMPTE_offset, 96, 0, 3, 0, 0
1, 0, MIDI_port, 0
1, 0, Marker_t, "Originally Sequenced 1998"
1, 0, Key_signature, -2, "major"
1, 0, Tempo, 800000
1, 0, Time_signature, 12, 3, 36, 8
1, 186720, Tempo, 800000
1, 198720, Tempo, 800000
1, 198768, Tempo, 810810
1, 198816, Tempo, 821917
1, 198864, Tempo, 833333
1, 198912, Tempo, 845070
1, 198960, Tempo, 857142
1, 199008, Tempo, 869565
1, 199056, Tempo, 882352
1, 199104, Tempo, 895522
1, 199152, Tempo, 909090
1, 199200, Tempo, 923076
1, 199248, Tempo, 937500
1, 199296, Tempo, 952380
1, 199344, Tempo, 967741
1, 199392, Tempo, 983606
1, 199440, Tempo, 1000000
1, 201120, Tempo, 800000
1, 201120, End_track
2, 0, Start_track
2, 0, Title_t, "2nd Movement - Scene by the Brook"
2, 0, MIDI_port, 0
2, 0, End_track
3, 0, Start_track
3, 0, Title_t, "(Scene am Bach)"
3, 0, MIDI_port, 0
3, 0, End_track
4, 0, Start_track
4, 0, Title_t, "Sequenced by D. L. Viens 30 Jul 2000"
4, 0, MIDI_port, 0
4, 0, End_track
5, 0, Start_track
5, 0, Title_t, "dlviens@empire.net"
5, 0, MIDI_port, 0
5, 0, End_track
6, 0, Start_track
6, 0, MIDI_port, 0
6, 0, End_track
7, 0, Start_track
7, 0, Title_t, "Flute"
7, 0, MIDI_port, 0
7, 0, Program_c, 1, 73
7, 0, Control_c, 1, 7, 72
7, 0, Control_c, 1, 10, 60
7, 0, Control_c, 1, 11, 127
7, 7200, Control_c, 1, 11, 81
7, 7560, Note_on_c, 1, 82, 76
7, 7560, Note_on_c, 1, 77, 76
7, 7799, Note_on_c, 1, 82, 0
7, 7799, Note_on_c, 1, 77, 0
7, 7920, Note_on_c, 1, 82, 76
7, 7920, Control_c, 1, 11, 81
7, 7920, Note_on_c, 1, 77, 76
7, 7950, Control_c, 1, 11, 83
7, 7980, Control_c, 1, 11, 86
7, 8010, Control_c, 1, 11, 89
7, 8040, Control_c, 1, 11, 91
7, 8070, Control_c, 1, 11, 94
7, 8100, Control_c, 1, 11, 97
7, 8130, Control_c, 1, 11, 99
7, 8159, Note_on_c, 1, 82, 0
7, 8159, Note_on_c, 1, 77, 0
7, 8160, Control_c, 1, 11, 102
7, 8190, Control_c, 1, 11, 105
7, 8220, Control_c, 1, 11, 107
7, 8250, Control_c, 1, 11, 110
7, 8280, Note_on_c, 1, 77, 76
7, 8280, Control_c, 1, 11, 113
7, 8280, Note_on_c, 1, 81, 76
7, 8310, Control_c, 1, 11, 110
7, 8340, Control_c, 1, 11, 107
7, 8370, Control_c, 1, 11, 105
7, 8400, Control_c, 1, 11, 102
7, 8430, Control_c, 1, 11, 99
7, 8460, Control_c, 1, 11, 97
7, 8490, Control_c, 1, 11, 94
7, 8519, Note_on_c, 1, 77, 0
7, 8519, Note_on_c, 1, 81, 0
7, 8520, Control_c, 1, 11, 91
7, 8550, Control_c, 1, 11, 89
7, 8580, Control_c, 1, 11, 86
7, 8610, Control_c, 1, 11, 83
7, 8640, Note_on_c, 1, 77, 76
7, 8640, Note_on_c, 1, 82, 76
7, 8879, Note_on_c, 1, 77, 0
7, 8879, Note_on_c, 1, 82, 0
7, 9840, Control_c, 1, 11, 127
7, 10080, Note_on_c, 1, 74, 52
7, 10080, Note_on_c, 1, 82, 52
7, 10319, Note_on_c, 1, 74, 0
7, 10319, Note_on_c, 1, 82, 0
7, 11520, Note_on_c, 1, 81, 52
7, 11520, Note_on_c, 1, 84, 52
7, 11759, Note_on_c, 1, 81, 0
7, 11759, Note_on_c, 1, 84, 0
7, 12960, Note_on_c, 1, 81, 52
7, 12960, Note_on_c, 1, 84, 52
7, 13199, Note_on_c, 1, 81, 0
7, 13199, Note_on_c, 1, 84, 0
7, 14040, Control_c, 1, 11, 81
7, 14400, Note_on_c, 1, 86, 76
7, 14400, Note_on_c, 1, 82, 76
7, 14400, Control_c, 1, 11, 81
7, 14520, Control_c, 1, 11, 85
7, 14639, Note_on_c, 1, 86, 0
7, 14639, Note_on_c, 1, 82, 0
7, 14640, Control_c, 1, 11, 89
7, 15000, Control_c, 1, 11, 101
7, 15120, Control_c, 1, 11, 105
7, 15120, Note_on_c, 1, 84, 76
7, 15120, Note_on_c, 1, 82, 76
7, 15240, Control_c, 1, 11, 107
7, 15359, Note_on_c, 1, 84, 0
7, 15359, Note_on_c, 1, 82, 0
7, 15360, Control_c, 1, 11, 111
7, 15720, Control_c, 1, 11, 127
7, 15840, Note_on_c, 1, 82, 76
7, 15840, Note_on_c, 1, 86, 76
7, 15900, Control_c, 1, 11, 81
7, 16079, Note_on_c, 1, 82, 0
7, 16079, Note_on_c, 1, 86, 0
7, 16200, Note_on_c, 1, 82, 76
7, 16200, Note_on_c, 1, 77, 76
7, 16439, Note_on_c, 1, 82, 0
7, 16439, Note_on_c, 1, 77, 0
7, 16560, Note_on_c, 1, 82, 76
7, 16560, Control_c, 1, 11, 81
7, 16560, Note_on_c, 1, 77, 76
7, 16590, Control_c, 1, 11, 83
7, 16620, Control_c, 1, 11, 86
7, 16650, Control_c, 1, 11, 89
7, 16680, Control_c, 1, 11, 91
7, 16710, Control_c, 1, 11, 94
7, 16740, Control_c, 1, 11, 97
7, 16770, Control_c, 1, 11, 99
7, 16799, Note_on_c, 1, 82, 0
7, 16799, Note_on_c, 1, 77, 0
7, 16800, Control_c, 1, 11, 102
7, 16830, Control_c, 1, 11, 105
7, 16860, Control_c, 1, 11, 107
7, 16890, Control_c, 1, 11, 110
7, 16920, Note_on_c, 1, 77, 76
7, 16920, Control_c, 1, 11, 113
7, 16920, Note_on_c, 1, 84, 76
7, 16950, Control_c, 1, 11, 110
7, 16980, Control_c, 1, 11, 107
7, 17010, Control_c, 1, 11, 105
7, 17040, Control_c, 1, 11, 102
7, 17070, Control_c, 1, 11, 99
7, 17100, Control_c, 1, 11, 97
7, 17130, Control_c, 1, 11, 94
7, 17159, Note_on_c, 1, 77, 0
7, 17159, Note_on_c, 1, 84, 0
7, 17250, Control_c, 1, 11, 93
7, 17280, Note_on_c, 1, 82, 68
7, 17280, Note_on_c, 1, 77, 68
7, 17519, Note_on_c, 1, 82, 0
7, 17519, Note_on_c, 1, 77, 0
7, 21900, Control_c, 1, 11, 110
7, 21940, Note_on_c, 1, 84, 68
7, 21959, Note_on_c, 1, 84, 0
7, 21960, Note_on_c, 1, 82, 68
7, 21960, Control_c, 1, 11, 113
7, 22020, Control_c, 1, 11, 115
7, 22079, Note_on_c, 1, 82, 0
7, 22080, Control_c, 1, 11, 118
7, 22080, Note_on_c, 1, 81, 68
7, 22140, Control_c, 1, 11, 119
7, 22199, Note_on_c, 1, 81, 0
7, 22200, Note_on_c, 1, 79, 68
7, 22200, Control_c, 1, 11, 123
7, 22260, Control_c, 1, 11, 125
7, 22309, Note_on_c, 1, 79, 0
7, 22320, Control_c, 1, 11, 127
7, 22320, Note_on_c, 1, 77, 68
7, 22380, Control_c, 1, 11, 125
7, 22440, Control_c, 1, 11, 123
7, 22500, Control_c, 1, 11, 119
7, 22560, Control_c, 1, 11, 118
7, 22620, Control_c, 1, 11, 115
7, 22680, Control_c, 1, 11, 113
7, 22740, Control_c, 1, 11, 110
7, 22789, Note_on_c, 1, 77, 0
7, 22800, Note_on_c, 1, 79, 68
7, 22800, Control_c, 1, 11, 107
7, 22860, Control_c, 1, 11, 105
7, 22919, Note_on_c, 1, 79, 0
7, 22920, Note_on_c, 1, 81, 68
7, 22920, Control_c, 1, 11, 102
7, 22980, Control_c, 1, 11, 99
7, 23029, Note_on_c, 1, 81, 0
7, 23038, Control_c, 1, 11, 96
7, 23040, Note_on_c, 1, 82, 68
7, 24719, Note_on_c, 1, 82, 0
7, 24840, Note_on_c, 1, 74, 68
7, 25079, Note_on_c, 1, 74, 0
7, 25200, Note_on_c, 1, 74, 68
7, 25439, Note_on_c, 1, 74, 0
7, 34200, Control_c, 1, 11, 127
7, 34560, Note_on_c, 1, 77, 52
7, 35149, Note_on_c, 1, 77, 0
7, 35160, Note_on_c, 1, 77, 52
7, 35509, Note_on_c, 1, 77, 0
7, 35520, Note_on_c, 1, 77, 52
7, 35869, Note_on_c, 1, 77, 0
7, 35880, Note_on_c, 1, 77, 52
7, 35989, Note_on_c, 1, 77, 0
7, 36000, Note_on_c, 1, 83, 52
7, 36000, Note_on_c, 1, 77, 52
7, 36589, Note_on_c, 1, 83, 0
7, 36589, Note_on_c, 1, 77, 0
7, 36600, Note_on_c, 1, 77, 52
7, 36600, Note_on_c, 1, 83, 52
7, 36949, Note_on_c, 1, 77, 0
7, 36949, Note_on_c, 1, 83, 0
7, 36960, Note_on_c, 1, 83, 52
7, 36960, Note_on_c, 1, 77, 52
7, 37309, Note_on_c, 1, 83, 0
7, 37309, Note_on_c, 1, 77, 0
7, 37320, Note_on_c, 1, 77, 52
7, 37320, Note_on_c, 1, 83, 52
7, 37429, Note_on_c, 1, 77, 0
7, 37429, Note_on_c, 1, 83, 0
7, 37440, Note_on_c, 1, 76, 52
7, 37440, Note_on_c, 1, 84, 52
7, 37549, Note_on_c, 1, 84, 0
7, 37559, Note_on_c, 1, 76, 0
7, 37560, Note_on_c, 1, 79, 52
7, 37669, Note_on_c, 1, 79, 0
7, 37680, Note_on_c, 1, 79, 52
7, 37789, Note_on_c, 1, 79, 0
7, 37800, Note_on_c, 1, 79, 52
7, 37919, Note_on_c, 1, 79, 0
7, 38280, Note_on_c, 1, 81, 52
7, 38389, Note_on_c, 1, 81, 0
7, 38400, Note_on_c, 1, 81, 52
7, 38509, Note_on_c, 1, 81, 0
7, 38520, Note_on_c, 1, 81, 52
7, 38639, Note_on_c, 1, 81, 0
7, 39000, Note_on_c, 1, 82, 52
7, 39109, Note_on_c, 1, 82, 0
7, 39120, Note_on_c, 1, 82, 52
7, 39229, Note_on_c, 1, 82, 0
7, 39240, Note_on_c, 1, 82, 52
7, 39359, Note_on_c, 1, 82, 0
7, 39720, Note_on_c, 1, 81, 52
7, 39829, Note_on_c, 1, 81, 0
7, 39840, Note_on_c, 1, 81, 52
7, 39949, Note_on_c, 1, 81, 0
7, 39960, Note_on_c, 1, 81, 52
7, 40079, Note_on_c, 1, 81, 0
7, 40200, Control_c, 1, 11, 97
7, 40320, Note_on_c, 1, 79, 68
7, 40320, Note_on_c, 1, 84, 68
7, 40320, Control_c, 1, 11, 97
7, 40380, Control_c, 1, 11, 99
7, 40440, Control_c, 1, 11, 102
7, 40500, Control_c, 1, 11, 105
7, 40560, Control_c, 1, 11, 107
7, 40620, Control_c, 1, 11, 110
7, 40680, Control_c, 1, 11, 113
7, 40740, Control_c, 1, 11, 115
7, 40800, Control_c, 1, 11, 118
7, 40860, Control_c, 1, 11, 119
7, 40920, Control_c, 1, 11, 123
7, 40980, Control_c, 1, 11, 125
7, 41029, Note_on_c, 1, 79, 0
7, 41029, Note_on_c, 1, 84, 0
7, 41040, Control_c, 1, 11, 127
7, 41040, Note_on_c, 1, 82, 68
7, 41040, Note_on_c, 1, 72, 68
7, 41100, Control_c, 1, 11, 125
7, 41160, Control_c, 1, 11, 123
7, 41220, Control_c, 1, 11, 119
7, 41280, Control_c, 1, 11, 118
7, 41340, Control_c, 1, 11, 115
7, 41400, Control_c, 1, 11, 113
7, 41460, Control_c, 1, 11, 110
7, 41520, Control_c, 1, 11, 107
7, 41580, Control_c, 1, 11, 105
7, 41640, Control_c, 1, 11, 102
7, 41749, Note_on_c, 1, 82, 0
7, 41749, Note_on_c, 1, 72, 0
7, 41758, Control_c, 1, 11, 88
7, 41760, Note_on_c, 1, 81, 68
7, 41879, Note_on_c, 1, 81, 0
7, 41880, Note_on_c, 1, 77, 68
7, 41999, Note_on_c, 1, 77, 0
7, 42000, Note_on_c, 1, 76, 68
7, 42109, Note_on_c, 1, 76, 0
7, 42120, Note_on_c, 1, 74, 68
7, 42219, Note_on_c, 1, 74, 0
7, 42240, Note_on_c, 1, 82, 68
7, 42339, Note_on_c, 1, 82, 0
7, 42360, Note_on_c, 1, 86, 68
7, 42449, Note_on_c, 1, 86, 0
7, 42480, Note_on_c, 1, 77, 68
7, 42839, Note_on_c, 1, 77, 0
7, 42840, Note_on_c, 1, 81, 68
7, 43079, Note_on_c, 1, 81, 0
7, 43080, Note_on_c, 1, 79, 68
7, 43199, Note_on_c, 1, 79, 0
7, 43200, Control_c, 1, 11, 127
7, 43920, Control_c, 1, 11, 127
7, 43920, Note_on_c, 1, 84, 68
7, 43980, Control_c, 1, 11, 125
7, 44040, Control_c, 1, 11, 123
7, 44100, Control_c, 1, 11, 119
7, 44160, Control_c, 1, 11, 118
7, 44220, Control_c, 1, 11, 115
7, 44280, Control_c, 1, 11, 113
7, 44340, Control_c, 1, 11, 110
7, 44400, Control_c, 1, 11, 107
7, 44460, Control_c, 1, 11, 105
7, 44520, Control_c, 1, 11, 102
7, 44580, Control_c, 1, 11, 99
7, 44629, Note_on_c, 1, 84, 0
7, 44640, Note_on_c, 1, 84, 68
7, 44640, Control_c, 1, 11, 97
7, 44879, Note_on_c, 1, 84, 0
7, 44880, Control_c, 1, 11, 127
7, 45000, Note_on_c, 1, 86, 52
7, 45239, Note_on_c, 1, 86, 0
7, 45360, Note_on_c, 1, 81, 52
7, 45599, Note_on_c, 1, 81, 0
7, 45720, Note_on_c, 1, 79, 52
7, 45959, Note_on_c, 1, 79, 0
7, 46080, Note_on_c, 1, 81, 52
7, 46319, Note_on_c, 1, 81, 0
7, 52440, Control_c, 1, 11, 122
7, 52560, Note_on_c, 1, 84, 76
7, 52680, Control_c, 1, 11, 123
7, 52799, Note_on_c, 1, 84, 0
7, 52800, Note_on_c, 1, 81, 76
7, 52800, Control_c, 1, 11, 126
7, 52909, Note_on_c, 1, 81, 0
7, 52920, Note_on_c, 1, 72, 76
7, 52920, Control_c, 1, 11, 127
7, 52920, Note_on_c, 1, 84, 76
7, 53149, Note_on_c, 1, 72, 0
7, 53159, Note_on_c, 1, 84, 0
7, 53160, Note_on_c, 1, 72, 76
7, 53160, Note_on_c, 1, 79, 76
7, 53269, Note_on_c, 1, 72, 0
7, 53269, Note_on_c, 1, 79, 0
7, 53280, Note_on_c, 1, 72, 76
7, 53280, Note_on_c, 1, 81, 76
7, 53519, Note_on_c, 1, 81, 0
7, 53520, Note_on_c, 1, 77, 76
7, 53639, Note_on_c, 1, 77, 0
7, 53760, Note_on_c, 1, 77, 76
7, 53879, Note_on_c, 1, 77, 0
7, 53880, Note_on_c, 1, 81, 76
7, 53989, Note_on_c, 1, 81, 0
7, 54000, Note_on_c, 1, 84, 76
7, 54239, Note_on_c, 1, 84, 0
7, 54240, Note_on_c, 1, 81, 76
7, 54359, Note_on_c, 1, 81, 0
7, 54360, Note_on_c, 1, 77, 76
7, 54479, Note_on_c, 1, 77, 0
7, 54480, Note_on_c, 1, 81, 76
7, 54599, Note_on_c, 1, 81, 0
7, 54600, Note_on_c, 1, 84, 76
7, 54709, Note_on_c, 1, 72, 0
7, 54709, Note_on_c, 1, 84, 0
7, 54720, Note_on_c, 1, 72, 76
7, 54720, Note_on_c, 1, 89, 76
7, 54839, Note_on_c, 1, 89, 0
7, 54840, Note_on_c, 1, 84, 76
7, 54959, Note_on_c, 1, 72, 0
7, 54959, Note_on_c, 1, 84, 0
7, 55920, Note_on_c, 1, 82, 76
7, 56039, Note_on_c, 1, 82, 0
7, 56040, Note_on_c, 1, 79, 76
7, 56149, Note_on_c, 1, 79, 0
7, 56160, Note_on_c, 1, 79, 52
7, 56160, Note_on_c, 1, 72, 52
7, 56399, Note_on_c, 1, 79, 0
7, 56399, Note_on_c, 1, 72, 0
7, 56880, Note_on_c, 1, 84, 48
7, 56880, Note_on_c, 1, 72, 48
7, 57119, Note_on_c, 1, 84, 0
7, 57119, Note_on_c, 1, 72, 0
7, 57600, Note_on_c, 1, 81, 44
7, 58079, Note_on_c, 1, 81, 0
7, 58080, Note_on_c, 1, 79, 44
7, 58199, Note_on_c, 1, 79, 0
7, 58200, Note_on_c, 1, 81, 44
7, 58319, Note_on_c, 1, 81, 0
7, 58320, Note_on_c, 1, 83, 44
7, 58439, Note_on_c, 1, 83, 0
7, 58440, Note_on_c, 1, 81, 44
7, 58559, Note_on_c, 1, 81, 0
7, 58560, Note_on_c, 1, 83, 44
7, 58679, Note_on_c, 1, 83, 0
7, 58680, Note_on_c, 1, 84, 44
7, 58919, Note_on_c, 1, 84, 0
7, 58920, Note_on_c, 1, 79, 44
7, 59029, Note_on_c, 1, 79, 0
7, 59040, Note_on_c, 1, 81, 44
7, 59519, Note_on_c, 1, 81, 0
7, 59520, Note_on_c, 1, 79, 44
7, 59639, Note_on_c, 1, 79, 0
7, 59640, Note_on_c, 1, 81, 44
7, 59759, Note_on_c, 1, 81, 0
7, 59760, Note_on_c, 1, 83, 44
7, 59879, Note_on_c, 1, 83, 0
7, 59880, Note_on_c, 1, 81, 44
7, 59999, Note_on_c, 1, 81, 0
7, 60000, Note_on_c, 1, 83, 44
7, 60109, Note_on_c, 1, 83, 0
7, 60118, Control_c, 1, 11, 65
7, 60120, Note_on_c, 1, 84, 76
7, 60120, Control_c, 1, 11, 65
7, 60240, Control_c, 1, 11, 70
7, 60359, Note_on_c, 1, 84, 0
7, 60360, Note_on_c, 1, 79, 76
7, 60360, Control_c, 1, 11, 75
7, 60479, Note_on_c, 1, 79, 0
7, 60480, Control_c, 1, 11, 81
7, 60480, Note_on_c, 1, 81, 76
7, 60600, Control_c, 1, 11, 86
7, 60719, Note_on_c, 1, 81, 0
7, 60720, Note_on_c, 1, 77, 76
7, 60720, Control_c, 1, 11, 91
7, 60839, Note_on_c, 1, 77, 0
7, 60840, Control_c, 1, 11, 97
7, 60840, Note_on_c, 1, 72, 76
7, 60960, Control_c, 1, 11, 102
7, 61079, Note_on_c, 1, 72, 0
7, 61080, Note_on_c, 1, 76, 76
7, 61080, Control_c, 1, 11, 107
7, 61199, Note_on_c, 1, 76, 0
7, 61200, Control_c, 1, 11, 111
7, 61200, Note_on_c, 1, 77, 76
7, 61320, Control_c, 1, 11, 118
7, 61439, Note_on_c, 1, 77, 0
7, 61440, Note_on_c, 1, 81, 76
7, 61440, Control_c, 1, 11, 123
7, 61559, Note_on_c, 1, 81, 0
7, 61560, Note_on_c, 1, 84, 76
7, 61560, Control_c, 1, 11, 127
7, 61799, Note_on_c, 1, 84, 0
7, 61800, Note_on_c, 1, 79, 76
7, 61909, Note_on_c, 1, 79, 0
7, 61920, Note_on_c, 1, 81, 76
7, 62159, Note_on_c, 1, 81, 0
7, 62160, Note_on_c, 1, 77, 76
7, 62279, Note_on_c, 1, 77, 0
7, 62280, Note_on_c, 1, 72, 76
7, 62399, Note_on_c, 1, 72, 0
7, 62400, Note_on_c, 1, 77, 76
7, 62519, Note_on_c, 1, 77, 0
7, 62520, Note_on_c, 1, 81, 76
7, 62629, Note_on_c, 1, 81, 0
7, 62640, Note_on_c, 1, 84, 76
7, 62879, Note_on_c, 1, 84, 0
7, 62880, Note_on_c, 1, 81, 76
7, 62999, Note_on_c, 1, 81, 0
7, 63000, Note_on_c, 1, 77, 76
7, 63119, Note_on_c, 1, 77, 0
7, 63120, Note_on_c, 1, 81, 76
7, 63239, Note_on_c, 1, 81, 0
7, 63240, Note_on_c, 1, 84, 76
7, 63349, Note_on_c, 1, 84, 0
7, 63360, Note_on_c, 1, 89, 84
7, 63420, Control_c, 1, 11, 112
7, 63443, Control_c, 1, 11, 109
7, 63467, Control_c, 1, 11, 107
7, 63490, Control_c, 1, 11, 104
7, 63513, Control_c, 1, 11, 101
7, 63537, Control_c, 1, 11, 99
7, 63560, Control_c, 1, 11, 96
7, 63583, Control_c, 1, 11, 93
7, 63607, Control_c, 1, 11, 91
7, 63630, Control_c, 1, 11, 88
7, 63653, Control_c, 1, 11, 85
7, 63677, Control_c, 1, 11, 83
7, 63700, Control_c, 1, 11, 80
7, 63723, Control_c, 1, 11, 77
7, 63747, Control_c, 1, 11, 75
7, 63770, Control_c, 1, 11, 72
7, 63793, Control_c, 1, 11, 69
7, 63817, Control_c, 1, 11, 67
7, 63839, Note_on_c, 1, 89, 0
7, 63840, Control_c, 1, 11, 64
7, 64440, Control_c, 1, 11, 127
7, 64800, Note_on_c, 1, 77, 52
7, 64889, Note_on_c, 1, 77, 0
7, 64920, Note_on_c, 1, 72, 52
7, 65009, Note_on_c, 1, 72, 0
7, 65040, Note_on_c, 1, 69, 52
7, 65129, Note_on_c, 1, 69, 0
7, 65160, Note_on_c, 1, 65, 52
7, 65249, Note_on_c, 1, 65, 0
7, 65280, Note_on_c, 1, 69, 52
7, 65369, Note_on_c, 1, 69, 0
7, 65400, Note_on_c, 1, 72, 52
7, 65489, Note_on_c, 1, 72, 0
7, 65520, Note_on_c, 1, 77, 52
7, 65609, Note_on_c, 1, 77, 0
7, 65640, Note_on_c, 1, 81, 52
7, 65729, Note_on_c, 1, 81, 0
7, 65760, Note_on_c, 1, 84, 52
7, 65849, Note_on_c, 1, 84, 0
7, 65880, Note_on_c, 1, 89, 52
7, 65969, Note_on_c, 1, 89, 0
7, 66000, Note_on_c, 1, 77, 52
7, 66089, Note_on_c, 1, 77, 0
7, 66120, Note_on_c, 1, 82, 52
7, 66209, Note_on_c, 1, 82, 0
7, 66240, Note_on_c, 1, 79, 52
7, 66240, Note_on_c, 1, 70, 52
7, 66479, Note_on_c, 1, 79, 0
7, 66479, Note_on_c, 1, 70, 0
7, 66960, Note_on_c, 1, 84, 52
7, 66960, Note_on_c, 1, 70, 52
7, 67199, Note_on_c, 1, 84, 0
7, 67199, Note_on_c, 1, 70, 0
7, 67680, Note_on_c, 1, 77, 52
7, 67680, Note_on_c, 1, 69, 52
7, 67919, Note_on_c, 1, 77, 0
7, 67919, Note_on_c, 1, 69, 0
7, 69720, Note_on_c, 1, 89, 68
7, 69809, Note_on_c, 1, 89, 0
7, 69820, Note_on_c, 1, 89, 68
7, 69839, Note_on_c, 1, 89, 0
7, 69840, Note_on_c, 1, 88, 76
7, 69959, Note_on_c, 1, 88, 0
7, 69960, Note_on_c, 1, 86, 68
7, 70079, Note_on_c, 1, 86, 0
7, 70080, Note_on_c, 1, 84, 68
7, 70189, Note_on_c, 1, 84, 0
7, 70200, Control_c, 1, 11, 127
7, 70200, Note_on_c, 1, 84, 68
7, 70230, Control_c, 1, 11, 125
7, 70260, Control_c, 1, 11, 123
7, 70290, Control_c, 1, 11, 119
7, 70319, Note_on_c, 1, 84, 0
7, 70320, Note_on_c, 1, 86, 68
7, 70320, Control_c, 1, 11, 118
7, 70350, Control_c, 1, 11, 115
7, 70380, Control_c, 1, 11, 113
7, 70410, Control_c, 1, 11, 110
7, 70439, Note_on_c, 1, 86, 0
7, 70440, Note_on_c, 1, 88, 68
7, 70440, Control_c, 1, 11, 107
7, 70470, Control_c, 1, 11, 105
7, 70500, Control_c, 1, 11, 102
7, 70530, Control_c, 1, 11, 99
7, 70549, Note_on_c, 1, 88, 0
7, 70560, Note_on_c, 1, 89, 68
7, 70560, Control_c, 1, 11, 97
7, 70799, Note_on_c, 1, 89, 0
7, 71280, Control_c, 1, 11, 127
7, 71400, Note_on_c, 1, 83, 52
7, 71519, Note_on_c, 1, 83, 0
7, 71520, Note_on_c, 1, 84, 52
7, 71629, Note_on_c, 1, 84, 0
7, 71640, Note_on_c, 1, 84, 52
7, 71759, Note_on_c, 1, 84, 0
7, 72840, Note_on_c, 1, 83, 52
7, 72959, Note_on_c, 1, 83, 0
7, 72960, Note_on_c, 1, 84, 52
7, 73069, Note_on_c, 1, 84, 0
7, 73080, Note_on_c, 1, 84, 52
7, 73199, Note_on_c, 1, 84, 0
7, 74160, Note_on_c, 1, 84, 52
7, 74160, Note_on_c, 1, 81, 52
7, 74399, Note_on_c, 1, 84, 0
7, 74399, Note_on_c, 1, 81, 0
7, 74880, Note_on_c, 1, 77, 50
7, 74880, Note_on_c, 1, 81, 50
7, 75119, Note_on_c, 1, 77, 0
7, 75119, Note_on_c, 1, 81, 0
7, 75240, Note_on_c, 1, 81, 48
7, 75240, Note_on_c, 1, 77, 48
7, 75479, Note_on_c, 1, 81, 0
7, 75479, Note_on_c, 1, 77, 0
7, 75600, Note_on_c, 1, 81, 47
7, 75600, Note_on_c, 1, 77, 47
7, 75839, Note_on_c, 1, 81, 0
7, 75839, Note_on_c, 1, 77, 0
7, 75960, Note_on_c, 1, 81, 46
7, 75960, Note_on_c, 1, 77, 46
7, 76199, Note_on_c, 1, 81, 0
7, 76199, Note_on_c, 1, 77, 0
7, 76320, Note_on_c, 1, 77, 44
7, 76320, Note_on_c, 1, 81, 44
7, 76559, Note_on_c, 1, 77, 0
7, 76559, Note_on_c, 1, 81, 0
7, 77760, Note_on_c, 1, 72, 44
7, 78479, Note_on_c, 1, 72, 0
7, 78480, Note_on_c, 1, 82, 44
7, 79189, Note_on_c, 1, 82, 0
7, 79200, Note_on_c, 1, 81, 44
7, 79439, Note_on_c, 1, 81, 0
7, 80280, Control_c, 1, 11, 81
7, 80640, Note_on_c, 1, 84, 68
7, 80640, Control_c, 1, 11, 81
7, 80760, Control_c, 1, 11, 85
7, 80880, Control_c, 1, 11, 89
7, 81000, Control_c, 1, 11, 93
7, 81119, Note_on_c, 1, 84, 0
7, 81120, Control_c, 1, 11, 97
7, 81120, Note_on_c, 1, 81, 68
7, 81229, Note_on_c, 1, 81, 0
7, 81240, Note_on_c, 1, 79, 68
7, 81240, Control_c, 1, 11, 101
7, 81329, Note_on_c, 1, 79, 0
7, 81360, Control_c, 1, 11, 105
7, 81360, Note_on_c, 1, 78, 68
7, 81459, Note_on_c, 1, 78, 0
7, 81480, Control_c, 1, 11, 107
7, 81480, Note_on_c, 1, 81, 68
7, 81579, Note_on_c, 1, 81, 0
7, 81600, Note_on_c, 1, 78, 68
7, 81600, Control_c, 1, 11, 111
7, 81689, Note_on_c, 1, 78, 0
7, 81720, Control_c, 1, 11, 115
7, 81720, Note_on_c, 1, 74, 68
7, 81819, Note_on_c, 1, 74, 0
7, 81840, Control_c, 1, 11, 119
7, 81840, Note_on_c, 1, 86, 68
7, 81939, Note_on_c, 1, 86, 0
7, 81960, Control_c, 1, 11, 123
7, 81960, Note_on_c, 1, 81, 68
7, 82049, Note_on_c, 1, 81, 0
7, 82080, Control_c, 1, 11, 127
7, 82080, Note_on_c, 1, 83, 52
7, 82124, Note_on_c, 1, 83, 0
7, 82140, Note_on_c, 1, 71, 52
7, 82184, Note_on_c, 1, 71, 0
7, 82200, Note_on_c, 1, 74, 52
7, 82244, Note_on_c, 1, 74, 0
7, 82260, Note_on_c, 1, 79, 52
7, 82304, Note_on_c, 1, 79, 0
7, 82320, Note_on_c, 1, 83, 52
7, 82364, Note_on_c, 1, 83, 0
7, 82380, Note_on_c, 1, 86, 52
7, 82424, Note_on_c, 1, 86, 0
7, 82440, Note_on_c, 1, 91, 52
7, 82679, Note_on_c, 1, 91, 0
7, 83520, Note_on_c, 1, 67, 52
7, 83564, Note_on_c, 1, 67, 0
7, 83580, Note_on_c, 1, 71, 52
7, 83624, Note_on_c, 1, 71, 0
7, 83640, Note_on_c, 1, 74, 52
7, 83684, Note_on_c, 1, 74, 0
7, 83700, Note_on_c, 1, 79, 52
7, 83744, Note_on_c, 1, 79, 0
7, 83760, Note_on_c, 1, 83, 52
7, 83804, Note_on_c, 1, 83, 0
7, 83820, Note_on_c, 1, 86, 52
7, 83864, Note_on_c, 1, 86, 0
7, 83880, Note_on_c, 1, 91, 52
7, 84119, Note_on_c, 1, 91, 0
7, 84960, Note_on_c, 1, 62, 52
7, 85004, Note_on_c, 1, 62, 0
7, 85020, Note_on_c, 1, 69, 52
7, 85064, Note_on_c, 1, 69, 0
7, 85080, Note_on_c, 1, 72, 52
7, 85124, Note_on_c, 1, 72, 0
7, 85140, Note_on_c, 1, 74, 52
7, 85184, Note_on_c, 1, 74, 0
7, 85200, Note_on_c, 1, 81, 52
7, 85244, Note_on_c, 1, 81, 0
7, 85260, Note_on_c, 1, 84, 52
7, 85304, Note_on_c, 1, 84, 0
7, 85320, Note_on_c, 1, 86, 52
7, 85559, Note_on_c, 1, 86, 0
7, 86400, Note_on_c, 1, 62, 52
7, 86444, Note_on_c, 1, 62, 0
7, 86460, Note_on_c, 1, 69, 52
7, 86504, Note_on_c, 1, 69, 0
7, 86520, Note_on_c, 1, 72, 52
7, 86564, Note_on_c, 1, 72, 0
7, 86580, Note_on_c, 1, 74, 52
7, 86624, Note_on_c, 1, 74, 0
7, 86640, Note_on_c, 1, 81, 52
7, 86684, Note_on_c, 1, 81, 0
7, 86700, Note_on_c, 1, 84, 52
7, 86744, Note_on_c, 1, 84, 0
7, 86760, Note_on_c, 1, 86, 52
7, 86999, Note_on_c, 1, 86, 0
7, 87600, Note_on_c, 1, 81, 52
7, 87719, Note_on_c, 1, 81, 0
7, 87720, Note_on_c, 1, 83, 52
7, 87779, Note_on_c, 1, 83, 0
7, 87780, Note_on_c, 1, 84, 52
7, 87833, Note_on_c, 1, 84, 0
7, 87840, Note_on_c, 1, 86, 52
7, 88259, Note_on_c, 1, 86, 0
7, 88260, Note_on_c, 1, 79, 52
7, 88319, Note_on_c, 1, 79, 0
7, 88320, Note_on_c, 1, 83, 52
7, 88379, Note_on_c, 1, 83, 0
7, 88380, Note_on_c, 1, 86, 52
7, 88439, Note_on_c, 1, 86, 0
7, 88440, Note_on_c, 1, 91, 52
7, 88499, Note_on_c, 1, 91, 0
7, 88500, Note_on_c, 1, 86, 52
7, 88553, Note_on_c, 1, 86, 0
7, 88560, Note_on_c, 1, 88, 52
7, 88979, Note_on_c, 1, 88, 0
7, 88980, Note_on_c, 1, 79, 52
7, 89039, Note_on_c, 1, 79, 0
7, 89040, Note_on_c, 1, 84, 52
7, 89099, Note_on_c, 1, 84, 0
7, 89100, Note_on_c, 1, 88, 52
7, 89159, Note_on_c, 1, 88, 0
7, 89160, Note_on_c, 1, 91, 52
7, 89219, Note_on_c, 1, 91, 0
7, 89220, Note_on_c, 1, 88, 52
7, 89273, Note_on_c, 1, 88, 0
7, 89280, Note_on_c, 1, 86, 52
7, 89519, Note_on_c, 1, 86, 0
7, 90780, Note_on_c, 1, 79, 52
7, 90839, Note_on_c, 1, 79, 0
7, 90840, Note_on_c, 1, 83, 52
7, 90899, Note_on_c, 1, 83, 0
7, 90900, Note_on_c, 1, 86, 52
7, 90959, Note_on_c, 1, 86, 0
7, 90960, Note_on_c, 1, 83, 52
7, 91019, Note_on_c, 1, 83, 0
7, 91020, Note_on_c, 1, 79, 52
7, 91073, Note_on_c, 1, 79, 0
7, 91080, Note_on_c, 1, 85, 52
7, 91429, Note_on_c, 1, 85, 0
7, 91440, Note_on_c, 1, 84, 52
7, 91499, Note_on_c, 1, 84, 0
7, 91500, Note_on_c, 1, 78, 52
7, 91559, Note_on_c, 1, 78, 0
7, 91560, Note_on_c, 1, 81, 52
7, 91619, Note_on_c, 1, 81, 0
7, 91620, Note_on_c, 1, 84, 52
7, 91679, Note_on_c, 1, 84, 0
7, 91680, Note_on_c, 1, 81, 52
7, 91739, Note_on_c, 1, 81, 0
7, 91740, Note_on_c, 1, 78, 52
7, 91793, Note_on_c, 1, 78, 0
7, 91800, Note_on_c, 1, 83, 52
7, 92149, Note_on_c, 1, 83, 0
7, 92160, Note_on_c, 1, 81, 52
7, 92219, Note_on_c, 1, 81, 0
7, 92220, Note_on_c, 1, 80, 52
7, 92279, Note_on_c, 1, 80, 0
7, 92280, Note_on_c, 1, 81, 52
7, 92339, Note_on_c, 1, 81, 0
7, 92340, Note_on_c, 1, 83, 52
7, 92399, Note_on_c, 1, 83, 0
7, 92400, Note_on_c, 1, 84, 52
7, 92459, Note_on_c, 1, 84, 0
7, 92460, Note_on_c, 1, 83, 52
7, 92519, Note_on_c, 1, 83, 0
7, 92520, Note_on_c, 1, 84, 52
7, 92579, Note_on_c, 1, 84, 0
7, 92580, Note_on_c, 1, 83, 52
7, 92639, Note_on_c, 1, 83, 0
7, 92640, Note_on_c, 1, 84, 52
7, 92699, Note_on_c, 1, 84, 0
7, 92700, Note_on_c, 1, 86, 52
7, 92759, Note_on_c, 1, 86, 0
7, 92760, Note_on_c, 1, 88, 52
7, 92819, Note_on_c, 1, 88, 0
7, 92820, Note_on_c, 1, 86, 52
7, 92873, Note_on_c, 1, 86, 0
7, 92880, Note_on_c, 1, 88, 52
7, 92969, Note_on_c, 1, 88, 0
7, 93000, Note_on_c, 1, 86, 52
7, 93089, Note_on_c, 1, 86, 0
7, 93120, Note_on_c, 1, 84, 52
7, 93209, Note_on_c, 1, 84, 0
7, 93240, Note_on_c, 1, 88, 52
7, 93329, Note_on_c, 1, 88, 0
7, 93360, Note_on_c, 1, 84, 52
7, 93449, Note_on_c, 1, 84, 0
7, 93480, Note_on_c, 1, 83, 52
7, 93569, Note_on_c, 1, 83, 0
7, 93600, Note_on_c, 1, 81, 52
7, 93629, Note_on_c, 1, 81, 0
7, 93630, Note_on_c, 1, 83, 52
7, 93659, Note_on_c, 1, 83, 0
7, 93660, Note_on_c, 1, 81, 52
7, 93689, Note_on_c, 1, 81, 0
7, 93690, Note_on_c, 1, 83, 52
7, 93719, Note_on_c, 1, 83, 0
7, 93720, Note_on_c, 1, 81, 52
7, 93749, Note_on_c, 1, 81, 0
7, 93750, Note_on_c, 1, 83, 52
7, 93779, Note_on_c, 1, 83, 0
7, 93780, Note_on_c, 1, 81, 52
7, 93809, Note_on_c, 1, 81, 0
7, 93810, Note_on_c, 1, 83, 52
7, 93839, Note_on_c, 1, 83, 0
7, 93840, Note_on_c, 1, 81, 52
7, 93869, Note_on_c, 1, 81, 0
7, 93870, Note_on_c, 1, 83, 52
7, 93899, Note_on_c, 1, 83, 0
7, 93900, Note_on_c, 1, 81, 52
7, 93929, Note_on_c, 1, 81, 0
7, 93930, Note_on_c, 1, 83, 52
7, 93959, Note_on_c, 1, 83, 0
7, 93960, Note_on_c, 1, 81, 52
7, 93989, Note_on_c, 1, 81, 0
7, 93990, Note_on_c, 1, 83, 52
7, 94019, Note_on_c, 1, 83, 0
7, 94020, Note_on_c, 1, 81, 52
7, 94049, Note_on_c, 1, 81, 0
7, 94050, Note_on_c, 1, 83, 52
7, 94079, Note_on_c, 1, 83, 0
7, 94080, Note_on_c, 1, 81, 52
7, 94109, Note_on_c, 1, 81, 0
7, 94110, Note_on_c, 1, 83, 52
7, 94139, Note_on_c, 1, 83, 0
7, 94140, Note_on_c, 1, 81, 52
7, 94169, Note_on_c, 1, 81, 0
7, 94170, Note_on_c, 1, 83, 52
7, 94199, Note_on_c, 1, 83, 0
7, 94200, Note_on_c, 1, 81, 52
7, 94229, Note_on_c, 1, 81, 0
7, 94230, Note_on_c, 1, 83, 52
7, 94259, Note_on_c, 1, 83, 0
7, 94260, Note_on_c, 1, 81, 52
7, 94289, Note_on_c, 1, 81, 0
7, 94290, Note_on_c, 1, 83, 52
7, 94319, Note_on_c, 1, 83, 0
7, 94320, Note_on_c, 1, 81, 52
7, 94349, Note_on_c, 1, 81, 0
7, 94350, Note_on_c, 1, 83, 52
7, 94379, Note_on_c, 1, 83, 0
7, 94380, Note_on_c, 1, 81, 52
7, 94409, Note_on_c, 1, 81, 0
7, 94410, Note_on_c, 1, 83, 52
7, 94439, Note_on_c, 1, 83, 0
7, 94440, Note_on_c, 1, 81, 52
7, 94469, Note_on_c, 1, 81, 0
7, 94470, Note_on_c, 1, 83, 52
7, 94499, Note_on_c, 1, 83, 0
7, 94500, Note_on_c, 1, 81, 52
7, 94529, Note_on_c, 1, 81, 0
7, 94530, Note_on_c, 1, 83, 52
7, 94559, Note_on_c, 1, 83, 0
7, 94560, Note_on_c, 1, 81, 52
7, 94589, Note_on_c, 1, 81, 0
7, 94590, Note_on_c, 1, 83, 52
7, 94619, Note_on_c, 1, 83, 0
7, 94620, Note_on_c, 1, 81, 52
7, 94649, Note_on_c, 1, 81, 0
7, 94650, Note_on_c, 1, 83, 52
7, 94679, Note_on_c, 1, 83, 0
7, 94680, Note_on_c, 1, 81, 52
7, 94709, Note_on_c, 1, 81, 0
7, 94710, Note_on_c, 1, 83, 52
7, 94739, Note_on_c, 1, 83, 0
7, 94740, Note_on_c, 1, 81, 52
7, 94769, Note_on_c, 1, 81, 0
7, 94770, Note_on_c, 1, 83, 52
7, 94799, Note_on_c, 1, 83, 0
7, 94800, Note_on_c, 1, 81, 52
7, 94829, Note_on_c, 1, 81, 0
7, 94830, Note_on_c, 1, 83, 52
7, 94859, Note_on_c, 1, 83, 0
7, 94860, Note_on_c, 1, 81, 52
7, 94889, Note_on_c, 1, 81, 0
7, 94890, Note_on_c, 1, 83, 52
7, 94919, Note_on_c, 1, 83, 0
7, 94920, Note_on_c, 1, 81, 52
7, 94949, Note_on_c, 1, 81, 0
7, 94950, Note_on_c, 1, 83, 52
7, 94979, Note_on_c, 1, 83, 0
7, 94980, Note_on_c, 1, 79, 52
7, 95009, Note_on_c, 1, 79, 0
7, 95010, Note_on_c, 1, 81, 52
7, 95035, Note_on_c, 1, 81, 0
7, 95040, Note_on_c, 1, 79, 52
7, 95279, Note_on_c, 1, 79, 0
7, 97080, Note_on_c, 1, 87, 68
7, 97169, Note_on_c, 1, 87, 0
7, 97180, Note_on_c, 1, 87, 68
7, 97199, Note_on_c, 1, 87, 0
7, 97200, Control_c, 1, 11, 127
7, 97200, Note_on_c, 1, 86, 76
7, 97260, Control_c, 1, 11, 123
7, 97319, Note_on_c, 1, 86, 0
7, 97320, Control_c, 1, 11, 119
7, 97320, Note_on_c, 1, 84, 76
7, 97380, Control_c, 1, 11, 115
7, 97439, Note_on_c, 1, 84, 0
7, 97440, Control_c, 1, 11, 111
7, 97440, Note_on_c, 1, 82, 76
7, 97500, Control_c, 1, 11, 107
7, 97549, Note_on_c, 1, 82, 0
7, 97560, Control_c, 1, 11, 105
7, 97560, Note_on_c, 1, 82, 76
7, 97620, Control_c, 1, 11, 101
7, 97679, Note_on_c, 1, 82, 0
7, 97680, Note_on_c, 1, 84, 76
7, 97680, Control_c, 1, 11, 97
7, 97740, Control_c, 1, 11, 93
7, 97799, Note_on_c, 1, 84, 0
7, 97800, Control_c, 1, 11, 89
7, 97800, Note_on_c, 1, 86, 76
7, 97860, Control_c, 1, 11, 85
7, 97909, Note_on_c, 1, 86, 0
7, 97920, Note_on_c, 1, 87, 76
7, 98159, Note_on_c, 1, 87, 0
7, 106560, Control_c, 1, 11, 97
7, 107280, Note_on_c, 1, 80, 68
7, 107280, Note_on_c, 1, 77, 68
7, 107280, Control_c, 1, 11, 97
7, 107340, Control_c, 1, 11, 99
7, 107400, Control_c, 1, 11, 102
7, 107460, Control_c, 1, 11, 105
7, 107520, Control_c, 1, 11, 107
7, 107580, Control_c, 1, 11, 110
7, 107639, Note_on_c, 1, 80, 0
7, 107639, Note_on_c, 1, 77, 0
7, 107640, Control_c, 1, 11, 113
7, 107640, Note_on_c, 1, 75, 68
7, 107640, Note_on_c, 1, 79, 68
7, 107700, Control_c, 1, 11, 115
7, 107760, Control_c, 1, 11, 118
7, 107820, Control_c, 1, 11, 119
7, 107880, Control_c, 1, 11, 123
7, 107989, Note_on_c, 1, 75, 0
7, 107989, Note_on_c, 1, 79, 0
7, 107998, Control_c, 1, 11, 127
7, 108000, Note_on_c, 1, 84, 52
7, 108000, Note_on_c, 1, 80, 52
7, 108239, Note_on_c, 1, 84, 0
7, 108239, Note_on_c, 1, 80, 0
7, 109080, Control_c, 1, 11, 81
7, 109440, Note_on_c, 1, 80, 76
7, 109679, Note_on_c, 1, 80, 0
7, 110160, Note_on_c, 1, 80, 76
7, 110280, Control_c, 1, 11, 85
7, 110400, Control_c, 1, 11, 89
7, 110520, Control_c, 1, 11, 93
7, 110640, Control_c, 1, 11, 97
7, 110760, Control_c, 1, 11, 101
7, 110869, Note_on_c, 1, 80, 0
7, 110880, Control_c, 1, 11, 105
7, 110880, Note_on_c, 1, 78, 76
7, 111000, Control_c, 1, 11, 107
7, 111120, Control_c, 1, 11, 111
7, 111240, Control_c, 1, 11, 115
7, 111360, Control_c, 1, 11, 119
7, 111480, Control_c, 1, 11, 123
7, 111589, Note_on_c, 1, 78, 0
7, 111600, Control_c, 1, 11, 127
7, 111600, Note_on_c, 1, 80, 76
7, 111660, Control_c, 1, 11, 123
7, 111720, Control_c, 1, 11, 119
7, 111780, Control_c, 1, 11, 115
7, 111840, Control_c, 1, 11, 111
7, 111900, Control_c, 1, 11, 107
7, 111960, Control_c, 1, 11, 105
7, 112020, Control_c, 1, 11, 101
7, 112080, Control_c, 1, 11, 97
7, 112140, Control_c, 1, 11, 93
7, 112200, Control_c, 1, 11, 89
7, 112260, Control_c, 1, 11, 85
7, 112309, Note_on_c, 1, 80, 0
7, 112320, Control_c, 1, 11, 81
7, 112320, Note_on_c, 1, 82, 76
7, 112559, Note_on_c, 1, 82, 0
7, 112560, Control_c, 1, 11, 127
7, 112680, Note_on_c, 1, 78, 48
7, 113039, Note_on_c, 1, 78, 0
7, 113040, Note_on_c, 1, 73, 48
7, 113399, Note_on_c, 1, 73, 0
7, 113400, Note_on_c, 1, 70, 48
7, 113759, Note_on_c, 1, 70, 0
7, 114120, Note_on_c, 1, 78, 48
7, 114479, Note_on_c, 1, 78, 0
7, 114480, Note_on_c, 1, 73, 48
7, 114839, Note_on_c, 1, 73, 0
7, 114840, Note_on_c, 1, 70, 48
7, 115199, Note_on_c, 1, 70, 0
7, 115560, Note_on_c, 1, 78, 44
7, 115919, Note_on_c, 1, 78, 0
7, 115920, Note_on_c, 1, 75, 44
7, 116279, Note_on_c, 1, 75, 0
7, 116280, Note_on_c, 1, 71, 44
7, 116639, Note_on_c, 1, 71, 0
7, 117000, Note_on_c, 1, 78, 44
7, 117359, Note_on_c, 1, 78, 0
7, 117360, Note_on_c, 1, 76, 44
7, 117719, Note_on_c, 1, 76, 0
7, 117720, Note_on_c, 1, 73, 44
7, 118079, Note_on_c, 1, 73, 0
7, 120960, Note_on_c, 1, 81, 76
7, 120960, Note_on_c, 1, 84, 76
7, 121669, Note_on_c, 1, 81, 0
7, 121669, Note_on_c, 1, 84, 0
7, 121680, Note_on_c, 1, 82, 76
7, 121680, Note_on_c, 1, 86, 76
7, 122029, Note_on_c, 1, 86, 0
7, 122040, Note_on_c, 1, 84, 76
7, 122389, Note_on_c, 1, 82, 0
7, 122389, Note_on_c, 1, 84, 0
7, 122400, Note_on_c, 1, 84, 76
7, 122400, Note_on_c, 1, 81, 76
7, 122759, Note_on_c, 1, 84, 0
7, 122759, Note_on_c, 1, 81, 0
7, 123120, Note_on_c, 1, 86, 70
7, 123359, Note_on_c, 1, 86, 0
7, 123840, Note_on_c, 1, 84, 64
7, 124079, Note_on_c, 1, 84, 0
7, 124560, Note_on_c, 1, 82, 58
7, 124799, Note_on_c, 1, 82, 0
7, 125280, Note_on_c, 1, 81, 52
7, 125399, Note_on_c, 1, 81, 0
7, 125400, Note_on_c, 1, 82, 52
7, 125519, Note_on_c, 1, 82, 0
7, 125520, Note_on_c, 1, 79, 52
7, 125639, Note_on_c, 1, 79, 0
7, 126000, Note_on_c, 1, 75, 52
7, 126119, Note_on_c, 1, 75, 0
7, 126120, Note_on_c, 1, 77, 52
7, 126239, Note_on_c, 1, 77, 0
7, 126240, Note_on_c, 1, 74, 52
7, 126359, Note_on_c, 1, 74, 0
7, 126720, Note_on_c, 1, 75, 52
7, 126839, Note_on_c, 1, 75, 0
7, 126840, Note_on_c, 1, 77, 52
7, 126959, Note_on_c, 1, 77, 0
7, 126960, Note_on_c, 1, 79, 52
7, 127079, Note_on_c, 1, 79, 0
7, 127440, Note_on_c, 1, 72, 52
7, 127559, Note_on_c, 1, 72, 0
7, 127560, Note_on_c, 1, 74, 52
7, 127679, Note_on_c, 1, 74, 0
7, 127680, Note_on_c, 1, 75, 52
7, 127799, Note_on_c, 1, 75, 0
7, 128160, Note_on_c, 1, 77, 52
7, 128279, Note_on_c, 1, 77, 0
7, 128280, Note_on_c, 1, 74, 52
7, 128399, Note_on_c, 1, 74, 0
7, 128400, Note_on_c, 1, 75, 52
7, 128519, Note_on_c, 1, 75, 0
7, 128880, Note_on_c, 1, 86, 52
7, 128880, Note_on_c, 1, 89, 52
7, 128999, Note_on_c, 1, 86, 0
7, 128999, Note_on_c, 1, 89, 0
7, 129000, Note_on_c, 1, 86, 54
7, 129000, Note_on_c, 1, 82, 54
7, 129119, Note_on_c, 1, 86, 0
7, 129119, Note_on_c, 1, 82, 0
7, 129120, Note_on_c, 1, 87, 57
7, 129120, Note_on_c, 1, 84, 57
7, 129239, Note_on_c, 1, 87, 0
7, 129239, Note_on_c, 1, 84, 0
7, 129240, Note_on_c, 1, 84, 60
7, 129240, Note_on_c, 1, 81, 60
7, 129359, Note_on_c, 1, 84, 0
7, 129359, Note_on_c, 1, 81, 0
7, 129360, Note_on_c, 1, 86, 62
7, 129360, Note_on_c, 1, 82, 62
7, 129479, Note_on_c, 1, 86, 0
7, 129479, Note_on_c, 1, 82, 0
7, 129480, Note_on_c, 1, 84, 65
7, 129480, Note_on_c, 1, 81, 65
7, 129589, Note_on_c, 1, 84, 0
7, 129589, Note_on_c, 1, 81, 0
7, 129600, Note_on_c, 1, 82, 52
7, 130079, Note_on_c, 1, 82, 0
7, 130680, Note_on_c, 1, 65, 52
7, 130800, Note_on_c, 1, 82, 52
7, 130859, Note_on_c, 1, 82, 0
7, 130860, Note_on_c, 1, 84, 52
7, 130919, Note_on_c, 1, 84, 0
7, 130920, Note_on_c, 1, 86, 52
7, 130979, Note_on_c, 1, 86, 0
7, 130980, Note_on_c, 1, 84, 52
7, 131033, Note_on_c, 1, 84, 0
7, 131039, Note_on_c, 1, 65, 0
7, 131040, Note_on_c, 1, 84, 52
7, 131040, Note_on_c, 1, 70, 52
7, 131159, Note_on_c, 1, 84, 0
7, 131160, Note_on_c, 1, 82, 52
7, 131399, Note_on_c, 1, 70, 0
7, 131399, Note_on_c, 1, 82, 0
7, 131400, Note_on_c, 1, 74, 52
7, 131759, Note_on_c, 1, 74, 0
7, 132120, Note_on_c, 1, 65, 52
7, 132240, Note_on_c, 1, 82, 52
7, 132299, Note_on_c, 1, 82, 0
7, 132300, Note_on_c, 1, 84, 52
7, 132359, Note_on_c, 1, 84, 0
7, 132360, Note_on_c, 1, 86, 52
7, 132419, Note_on_c, 1, 86, 0
7, 132420, Note_on_c, 1, 82, 52
7, 132434, Note_on_c, 1, 82, 0
7, 132435, Note_on_c, 1, 81, 52
7, 132449, Note_on_c, 1, 81, 0
7, 132450, Note_on_c, 1, 82, 52
7, 132464, Note_on_c, 1, 82, 0
7, 132465, Note_on_c, 1, 84, 52
7, 132479, Note_on_c, 1, 65, 0
7, 132479, Note_on_c, 1, 84, 0
7, 132480, Note_on_c, 1, 72, 52
7, 132480, Note_on_c, 1, 82, 52
7, 132599, Note_on_c, 1, 82, 0
7, 132600, Note_on_c, 1, 81, 52
7, 132839, Note_on_c, 1, 72, 0
7, 132839, Note_on_c, 1, 81, 0
7, 132840, Note_on_c, 1, 75, 52
7, 133199, Note_on_c, 1, 75, 0
7, 133560, Note_on_c, 1, 65, 52
7, 133680, Note_on_c, 1, 84, 52
7, 133739, Note_on_c, 1, 84, 0
7, 133740, Note_on_c, 1, 86, 52
7, 133799, Note_on_c, 1, 86, 0
7, 133800, Note_on_c, 1, 87, 52
7, 133859, Note_on_c, 1, 87, 0
7, 133860, Note_on_c, 1, 86, 52
7, 133913, Note_on_c, 1, 86, 0
7, 133919, Note_on_c, 1, 65, 0
7, 133920, Note_on_c, 1, 86, 52
7, 133920, Note_on_c, 1, 72, 52
7, 134039, Note_on_c, 1, 86, 0
7, 134040, Note_on_c, 1, 84, 52
7, 134279, Note_on_c, 1, 72, 0
7, 134279, Note_on_c, 1, 84, 0
7, 134280, Note_on_c, 1, 75, 52
7, 134639, Note_on_c, 1, 75, 0
7, 135000, Control_c, 1, 11, 81
7, 135120, Note_on_c, 1, 72, 76
7, 135120, Note_on_c, 1, 84, 76
7, 135239, Note_on_c, 1, 72, 0
7, 135239, Note_on_c, 1, 84, 0
7, 135240, Note_on_c, 1, 74, 76
7, 135240, Note_on_c, 1, 86, 76
7, 135299, Note_on_c, 1, 74, 0
7, 135299, Note_on_c, 1, 86, 0
7, 135300, Note_on_c, 1, 87, 76
7, 135300, Note_on_c, 1, 75, 76
7, 135353, Note_on_c, 1, 87, 0
7, 135353, Note_on_c, 1, 75, 0
7, 135360, Note_on_c, 1, 77, 76
7, 135360, Note_on_c, 1, 89, 76
7, 135360, Control_c, 1, 11, 81
7, 135480, Control_c, 1, 11, 85
7, 135600, Control_c, 1, 11, 89
7, 135720, Control_c, 1, 11, 93
7, 135839, Note_on_c, 1, 77, 0
7, 135839, Note_on_c, 1, 89, 0
7, 135840, Note_on_c, 1, 87, 76
7, 135840, Note_on_c, 1, 75, 76
7, 135840, Control_c, 1, 11, 97
7, 135959, Note_on_c, 1, 87, 0
7, 135959, Note_on_c, 1, 75, 0
7, 135960, Note_on_c, 1, 74, 76
7, 135960, Control_c, 1, 11, 101
7, 135960, Note_on_c, 1, 86, 76
7, 136069, Note_on_c, 1, 74, 0
7, 136069, Note_on_c, 1, 86, 0
7, 136080, Note_on_c, 1, 84, 76
7, 136080, Control_c, 1, 11, 105
7, 136080, Note_on_c, 1, 72, 76
7, 136200, Control_c, 1, 11, 107
7, 136320, Control_c, 1, 11, 111
7, 136371, Note_on_c, 1, 84, 0
7, 136371, Note_on_c, 1, 72, 0
7, 136380, Note_on_c, 1, 74, 76
7, 136380, Note_on_c, 1, 86, 76
7, 136399, Note_on_c, 1, 74, 0
7, 136399, Note_on_c, 1, 86, 0
7, 136400, Note_on_c, 1, 84, 76
7, 136400, Note_on_c, 1, 72, 76
7, 136419, Note_on_c, 1, 84, 0
7, 136419, Note_on_c, 1, 72, 0
7, 136420, Note_on_c, 1, 83, 76
7, 136420, Note_on_c, 1, 71, 76
7, 136439, Note_on_c, 1, 83, 0
7, 136439, Note_on_c, 1, 71, 0
7, 136440, Control_c, 1, 11, 115
7, 136440, Note_on_c, 1, 84, 76
7, 136440, Note_on_c, 1, 72, 76
7, 136559, Note_on_c, 1, 84, 0
7, 136559, Note_on_c, 1, 72, 0
7, 136560, Note_on_c, 1, 75, 76
7, 136560, Note_on_c, 1, 87, 76
7, 136560, Control_c, 1, 11, 119
7, 136669, Note_on_c, 1, 75, 0
7, 136669, Note_on_c, 1, 87, 0
7, 136680, Note_on_c, 1, 91, 76
7, 136680, Note_on_c, 1, 79, 76
7, 136680, Control_c, 1, 11, 123
7, 136769, Note_on_c, 1, 91, 0
7, 136769, Note_on_c, 1, 79, 0
7, 136800, Note_on_c, 1, 65, 76
7, 136800, Note_on_c, 1, 77, 76
7, 136800, Control_c, 1, 11, 127
7, 136860, Control_c, 1, 11, 81
7, 137269, Note_on_c, 1, 65, 0
7, 137269, Note_on_c, 1, 77, 0
7, 137280, Note_on_c, 1, 67, 76
7, 137280, Note_on_c, 1, 79, 76
7, 137379, Note_on_c, 1, 67, 0
7, 137379, Note_on_c, 1, 79, 0
7, 137400, Note_on_c, 1, 81, 76
7, 137400, Note_on_c, 1, 69, 76
7, 137489, Note_on_c, 1, 81, 0
7, 137489, Note_on_c, 1, 69, 0
7, 137520, Note_on_c, 1, 82, 76
7, 137520, Control_c, 1, 11, 81
7, 137520, Note_on_c, 1, 70, 76
7, 137550, Control_c, 1, 11, 83
7, 137580, Control_c, 1, 11, 86
7, 137610, Control_c, 1, 11, 89
7, 137619, Note_on_c, 1, 82, 0
7, 137619, Note_on_c, 1, 70, 0
7, 137640, Control_c, 1, 11, 91
7, 137640, Note_on_c, 1, 84, 76
7, 137640, Note_on_c, 1, 72, 76
7, 137670, Control_c, 1, 11, 94
7, 137700, Control_c, 1, 11, 97
7, 137730, Control_c, 1, 11, 99
7, 137739, Note_on_c, 1, 84, 0
7, 137739, Note_on_c, 1, 72, 0
7, 137760, Note_on_c, 1, 74, 76
7, 137760, Control_c, 1, 11, 102
7, 137760, Note_on_c, 1, 86, 76
7, 137790, Control_c, 1, 11, 105
7, 137820, Control_c, 1, 11, 107
7, 137849, Note_on_c, 1, 74, 0
7, 137849, Note_on_c, 1, 86, 0
7, 137850, Control_c, 1, 11, 110
7, 137880, Note_on_c, 1, 77, 76
7, 137880, Control_c, 1, 11, 113
7, 137880, Note_on_c, 1, 89, 76
7, 137910, Control_c, 1, 11, 110
7, 137940, Control_c, 1, 11, 107
7, 137970, Control_c, 1, 11, 105
7, 137999, Note_on_c, 1, 77, 0
7, 137999, Note_on_c, 1, 89, 0
7, 138000, Note_on_c, 1, 87, 76
7, 138000, Control_c, 1, 11, 102
7, 138000, Note_on_c, 1, 75, 76
7, 138030, Control_c, 1, 11, 99
7, 138060, Control_c, 1, 11, 97
7, 138090, Control_c, 1, 11, 94
7, 138109, Note_on_c, 1, 87, 0
7, 138109, Note_on_c, 1, 75, 0
7, 138120, Note_on_c, 1, 72, 76
7, 138120, Control_c, 1, 11, 91
7, 138120, Note_on_c, 1, 84, 76
7, 138150, Control_c, 1, 11, 89
7, 138179, Note_on_c, 1, 72, 0
7, 138179, Note_on_c, 1, 84, 0
7, 138180, Note_on_c, 1, 86, 76
7, 138180, Note_on_c, 1, 74, 76
7, 138180, Control_c, 1, 11, 86
7, 138210, Control_c, 1, 11, 83
7, 138233, Note_on_c, 1, 86, 0
7, 138233, Note_on_c, 1, 74, 0
7, 138240, Control_c, 1, 11, 81
7, 138240, Note_on_c, 1, 70, 76
7, 138240, Note_on_c, 1, 82, 76
7, 138479, Note_on_c, 1, 70, 0
7, 138479, Note_on_c, 1, 82, 0
7, 138580, Control_c, 1, 11, 89
7, 138690, Control_c, 1, 11, 93
7, 138800, Control_c, 1, 11, 97
7, 138910, Control_c, 1, 11, 101
7, 138960, Note_on_c, 1, 79, 76
7, 138960, Note_on_c, 1, 82, 76
7, 139020, Control_c, 1, 11, 105
7, 139130, Control_c, 1, 11, 107
7, 139199, Note_on_c, 1, 79, 0
7, 139199, Note_on_c, 1, 82, 0
7, 139570, Control_c, 1, 11, 127
7, 139680, Note_on_c, 1, 82, 76
7, 139680, Note_on_c, 1, 79, 76
7, 140389, Note_on_c, 1, 82, 0
7, 140400, Control_c, 1, 11, 127
7, 140400, Note_on_c, 1, 88, 76
7, 140460, Control_c, 1, 11, 123
7, 140520, Control_c, 1, 11, 119
7, 140580, Control_c, 1, 11, 115
7, 140640, Control_c, 1, 11, 111
7, 140700, Control_c, 1, 11, 107
7, 140760, Control_c, 1, 11, 105
7, 140820, Control_c, 1, 11, 101
7, 140880, Control_c, 1, 11, 97
7, 140940, Control_c, 1, 11, 93
7, 141000, Control_c, 1, 11, 89
7, 141060, Control_c, 1, 11, 85
7, 141109, Note_on_c, 1, 79, 0
7, 141109, Note_on_c, 1, 88, 0
7, 141120, Note_on_c, 1, 81, 76
7, 141120, Note_on_c, 1, 89, 76
7, 141359, Note_on_c, 1, 81, 0
7, 141359, Note_on_c, 1, 89, 0
7, 141480, Control_c, 1, 11, 127
7, 141840, Note_on_c, 1, 82, 52
7, 141840, Note_on_c, 1, 86, 52
7, 142079, Note_on_c, 1, 82, 0
7, 142079, Note_on_c, 1, 86, 0
7, 142560, Note_on_c, 1, 77, 52
7, 142560, Note_on_c, 1, 84, 52
7, 142799, Note_on_c, 1, 77, 0
7, 142799, Note_on_c, 1, 84, 0
7, 143280, Note_on_c, 1, 82, 52
7, 143280, Note_on_c, 1, 74, 52
7, 143519, Note_on_c, 1, 82, 0
7, 143519, Note_on_c, 1, 74, 0
7, 143880, Control_c, 1, 11, 97
7, 144000, Note_on_c, 1, 81, 68
7, 144000, Note_on_c, 1, 84, 68
7, 144060, Control_c, 1, 11, 99
7, 144120, Control_c, 1, 11, 102
7, 144180, Control_c, 1, 11, 105
7, 144240, Control_c, 1, 11, 107
7, 144300, Control_c, 1, 11, 110
7, 144360, Control_c, 1, 11, 113
7, 144420, Control_c, 1, 11, 115
7, 144480, Control_c, 1, 11, 118
7, 144540, Control_c, 1, 11, 119
7, 144600, Control_c, 1, 11, 123
7, 144660, Control_c, 1, 11, 125
7, 144709, Note_on_c, 1, 81, 0
7, 144709, Note_on_c, 1, 84, 0
7, 144720, Note_on_c, 1, 84, 68
7, 144720, Control_c, 1, 11, 127
7, 144720, Note_on_c, 1, 87, 68
7, 144780, Control_c, 1, 11, 125
7, 144840, Control_c, 1, 11, 123
7, 144900, Control_c, 1, 11, 119
7, 144960, Control_c, 1, 11, 118
7, 145020, Control_c, 1, 11, 115
7, 145080, Control_c, 1, 11, 113
7, 145140, Control_c, 1, 11, 110
7, 145200, Control_c, 1, 11, 107
7, 145260, Control_c, 1, 11, 105
7, 145320, Control_c, 1, 11, 102
7, 145380, Control_c, 1, 11, 99
7, 145429, Note_on_c, 1, 84, 0
7, 145429, Note_on_c, 1, 87, 0
7, 145440, Note_on_c, 1, 86, 68
7, 145440, Control_c, 1, 11, 89
7, 145440, Note_on_c, 1, 82, 68
7, 145559, Note_on_c, 1, 86, 0
7, 145559, Note_on_c, 1, 82, 0
7, 145560, Note_on_c, 1, 82, 68
7, 145679, Note_on_c, 1, 82, 0
7, 145680, Note_on_c, 1, 81, 68
7, 145789, Note_on_c, 1, 81, 0
7, 145800, Note_on_c, 1, 79, 68
7, 145899, Note_on_c, 1, 79, 0
7, 145920, Note_on_c, 1, 87, 68
7, 146019, Note_on_c, 1, 87, 0
7, 146040, Note_on_c, 1, 91, 68
7, 146129, Note_on_c, 1, 91, 0
7, 146160, Note_on_c, 1, 82, 68
7, 146519, Note_on_c, 1, 82, 0
7, 146520, Note_on_c, 1, 86, 68
7, 146759, Note_on_c, 1, 86, 0
7, 146760, Note_on_c, 1, 84, 68
7, 146869, Note_on_c, 1, 84, 0
7, 146880, Note_on_c, 1, 81, 68
7, 146880, Note_on_c, 1, 77, 68
7, 146880, Control_c, 1, 11, 97
7, 146940, Control_c, 1, 11, 99
7, 147000, Control_c, 1, 11, 102
7, 147060, Control_c, 1, 11, 105
7, 147120, Control_c, 1, 11, 107
7, 147180, Control_c, 1, 11, 110
7, 147240, Control_c, 1, 11, 113
7, 147300, Control_c, 1, 11, 115
7, 147360, Control_c, 1, 11, 118
7, 147420, Control_c, 1, 11, 119
7, 147480, Control_c, 1, 11, 123
7, 147540, Control_c, 1, 11, 125
7, 147589, Note_on_c, 1, 81, 0
7, 147589, Note_on_c, 1, 77, 0
7, 147600, Note_on_c, 1, 84, 68
7, 147600, Control_c, 1, 11, 127
7, 147600, Note_on_c, 1, 81, 68
7, 147660, Control_c, 1, 11, 125
7, 147720, Control_c, 1, 11, 123
7, 147780, Control_c, 1, 11, 119
7, 147840, Control_c, 1, 11, 118
7, 147900, Control_c, 1, 11, 115
7, 147960, Control_c, 1, 11, 113
7, 148020, Control_c, 1, 11, 110
7, 148080, Control_c, 1, 11, 107
7, 148140, Control_c, 1, 11, 105
7, 148200, Control_c, 1, 11, 102
7, 148260, Control_c, 1, 11, 99
7, 148309, Note_on_c, 1, 84, 0
7, 148309, Note_on_c, 1, 81, 0
7, 148320, Note_on_c, 1, 82, 68
7, 148320, Note_on_c, 1, 86, 68
7, 148559, Note_on_c, 1, 82, 0
7, 148559, Note_on_c, 1, 86, 0
7, 148678, Control_c, 1, 11, 127
7, 148680, Note_on_c, 1, 82, 52
7, 148919, Note_on_c, 1, 82, 0
7, 149040, Note_on_c, 1, 82, 52
7, 149040, Note_on_c, 1, 77, 52
7, 149279, Note_on_c, 1, 82, 0
7, 149279, Note_on_c, 1, 77, 0
7, 149400, Note_on_c, 1, 77, 52
7, 149400, Note_on_c, 1, 81, 52
7, 149639, Note_on_c, 1, 77, 0
7, 149639, Note_on_c, 1, 81, 0
7, 149760, Note_on_c, 1, 78, 52
7, 149760, Note_on_c, 1, 81, 52
7, 149999, Note_on_c, 1, 78, 0
7, 149999, Note_on_c, 1, 81, 0
7, 156120, Control_c, 1, 11, 122
7, 156240, Note_on_c, 1, 86, 76
7, 156360, Control_c, 1, 11, 123
7, 156479, Note_on_c, 1, 86, 0
7, 156480, Note_on_c, 1, 82, 76
7, 156480, Control_c, 1, 11, 126
7, 156589, Note_on_c, 1, 82, 0
7, 156600, Note_on_c, 1, 89, 76
7, 156600, Note_on_c, 1, 84, 76
7, 156600, Control_c, 1, 11, 127
7, 156839, Note_on_c, 1, 89, 0
7, 156839, Note_on_c, 1, 84, 0
7, 156840, Note_on_c, 1, 84, 76
7, 156840, Note_on_c, 1, 81, 76
7, 156949, Note_on_c, 1, 84, 0
7, 156949, Note_on_c, 1, 81, 0
7, 156960, Note_on_c, 1, 82, 76
7, 156960, Note_on_c, 1, 86, 76
7, 158389, Note_on_c, 1, 82, 0
7, 158389, Note_on_c, 1, 86, 0
7, 158400, Note_on_c, 1, 82, 76
7, 158400, Note_on_c, 1, 86, 76
7, 158639, Note_on_c, 1, 82, 0
7, 158639, Note_on_c, 1, 86, 0
7, 159840, Note_on_c, 1, 72, 52
7, 159840, Note_on_c, 1, 84, 52
7, 160079, Note_on_c, 1, 72, 0
7, 160079, Note_on_c, 1, 84, 0
7, 160560, Note_on_c, 1, 77, 48
7, 160560, Note_on_c, 1, 84, 48
7, 160799, Note_on_c, 1, 77, 0
7, 160799, Note_on_c, 1, 84, 0
7, 161520, Note_on_c, 1, 78, 44
7, 161520, Note_on_c, 1, 81, 44
7, 161639, Note_on_c, 1, 78, 0
7, 161639, Note_on_c, 1, 81, 0
7, 161880, Note_on_c, 1, 82, 44
7, 161880, Note_on_c, 1, 79, 44
7, 161999, Note_on_c, 1, 82, 0
7, 161999, Note_on_c, 1, 79, 0
7, 162240, Note_on_c, 1, 82, 44
7, 162240, Note_on_c, 1, 79, 44
7, 162359, Note_on_c, 1, 82, 0
7, 162359, Note_on_c, 1, 79, 0
7, 162600, Note_on_c, 1, 77, 44
7, 162600, Note_on_c, 1, 81, 44
7, 162719, Note_on_c, 1, 77, 0
7, 162719, Note_on_c, 1, 81, 0
7, 162960, Note_on_c, 1, 78, 44
7, 162960, Note_on_c, 1, 81, 44
7, 163079, Note_on_c, 1, 78, 0
7, 163079, Note_on_c, 1, 81, 0
7, 163320, Note_on_c, 1, 79, 44
7, 163320, Note_on_c, 1, 82, 44
7, 163439, Note_on_c, 1, 79, 0
7, 163439, Note_on_c, 1, 82, 0
7, 163680, Note_on_c, 1, 82, 44
7, 163680, Note_on_c, 1, 79, 44
7, 163799, Note_on_c, 1, 82, 0
7, 163799, Note_on_c, 1, 79, 0
7, 164040, Note_on_c, 1, 77, 49
7, 164040, Note_on_c, 1, 81, 49
7, 164159, Note_on_c, 1, 77, 0
7, 164159, Note_on_c, 1, 81, 0
7, 164400, Note_on_c, 1, 77, 57
7, 164400, Note_on_c, 1, 82, 57
7, 164519, Note_on_c, 1, 77, 0
7, 164519, Note_on_c, 1, 82, 0
7, 164760, Note_on_c, 1, 81, 65
7, 164760, Note_on_c, 1, 77, 65
7, 164879, Note_on_c, 1, 81, 0
7, 164879, Note_on_c, 1, 77, 0
7, 165120, Note_on_c, 1, 77, 73
7, 165120, Note_on_c, 1, 82, 73
7, 165229, Note_on_c, 1, 77, 0
7, 165229, Note_on_c, 1, 82, 0
7, 165240, Note_on_c, 1, 84, 76
7, 165240, Note_on_c, 1, 81, 76
7, 165469, Note_on_c, 1, 84, 0
7, 165469, Note_on_c, 1, 81, 0
7, 165480, Note_on_c, 1, 81, 76
7, 165480, Note_on_c, 1, 84, 76
7, 165589, Note_on_c, 1, 81, 0
7, 165589, Note_on_c, 1, 84, 0
7, 165600, Note_on_c, 1, 86, 76
7, 165600, Note_on_c, 1, 82, 76
7, 167029, Note_on_c, 1, 86, 0
7, 167029, Note_on_c, 1, 82, 0
7, 167040, Note_on_c, 1, 86, 84
7, 167040, Note_on_c, 1, 82, 76
7, 167100, Control_c, 1, 11, 112
7, 167135, Control_c, 1, 11, 108
7, 167170, Control_c, 1, 11, 104
7, 167205, Control_c, 1, 11, 100
7, 167240, Control_c, 1, 11, 96
7, 167275, Control_c, 1, 11, 92
7, 167310, Control_c, 1, 11, 88
7, 167345, Control_c, 1, 11, 84
7, 167380, Control_c, 1, 11, 80
7, 167415, Control_c, 1, 11, 76
7, 167450, Control_c, 1, 11, 72
7, 167485, Control_c, 1, 11, 68
7, 167519, Note_on_c, 1, 86, 0
7, 167519, Note_on_c, 1, 82, 0
7, 167520, Control_c, 1, 11, 64
7, 168480, Control_c, 1, 11, 127
7, 168840, Note_on_c, 1, 65, 52
7, 168929, Note_on_c, 1, 65, 0
7, 168960, Note_on_c, 1, 70, 52
7, 169049, Note_on_c, 1, 70, 0
7, 169080, Note_on_c, 1, 74, 52
7, 169169, Note_on_c, 1, 74, 0
7, 169200, Note_on_c, 1, 77, 52
7, 169289, Note_on_c, 1, 77, 0
7, 169320, Note_on_c, 1, 82, 52
7, 169409, Note_on_c, 1, 82, 0
7, 169440, Note_on_c, 1, 86, 52
7, 169529, Note_on_c, 1, 86, 0
7, 169560, Note_on_c, 1, 89, 52
7, 169649, Note_on_c, 1, 89, 0
7, 169800, Note_on_c, 1, 84, 52
7, 169909, Note_on_c, 1, 84, 0
7, 169920, Note_on_c, 1, 84, 52
7, 170159, Note_on_c, 1, 84, 0
7, 170640, Note_on_c, 1, 84, 52
7, 170879, Note_on_c, 1, 84, 0
7, 171360, Note_on_c, 1, 82, 52
7, 171599, Note_on_c, 1, 82, 0
7, 173400, Note_on_c, 1, 77, 76
7, 173400, Note_on_c, 1, 65, 76
7, 173509, Note_on_c, 1, 77, 0
7, 173509, Note_on_c, 1, 65, 0
7, 173520, Note_on_c, 1, 77, 84
7, 173520, Note_on_c, 1, 65, 84
7, 173749, Note_on_c, 1, 77, 0
7, 173749, Note_on_c, 1, 65, 0
7, 173760, Note_on_c, 1, 77, 76
7, 173760, Note_on_c, 1, 65, 76
7, 173869, Note_on_c, 1, 77, 0
7, 173869, Note_on_c, 1, 65, 0
7, 173880, Note_on_c, 1, 77, 76
7, 173880, Note_on_c, 1, 65, 76
7, 173880, Control_c, 1, 11, 127
7, 173910, Control_c, 1, 11, 123
7, 173940, Control_c, 1, 11, 119
7, 173970, Control_c, 1, 11, 115
7, 173989, Note_on_c, 1, 77, 0
7, 173989, Note_on_c, 1, 65, 0
7, 174000, Note_on_c, 1, 65, 76
7, 174000, Control_c, 1, 11, 111
7, 174000, Note_on_c, 1, 77, 76
7, 174030, Control_c, 1, 11, 107
7, 174060, Control_c, 1, 11, 105
7, 174090, Control_c, 1, 11, 101
7, 174109, Note_on_c, 1, 65, 0
7, 174109, Note_on_c, 1, 77, 0
7, 174120, Note_on_c, 1, 65, 76
7, 174120, Note_on_c, 1, 77, 76
7, 174120, Control_c, 1, 11, 97
7, 174150, Control_c, 1, 11, 93
7, 174180, Control_c, 1, 11, 89
7, 174210, Control_c, 1, 11, 85
7, 174229, Note_on_c, 1, 65, 0
7, 174229, Note_on_c, 1, 77, 0
7, 174240, Control_c, 1, 11, 81
7, 174240, Note_on_c, 1, 70, 76
7, 174240, Note_on_c, 1, 74, 76
7, 174479, Note_on_c, 1, 70, 0
7, 174479, Note_on_c, 1, 74, 0
7, 175410, Control_c, 1, 11, 123
7, 175440, Control_c, 1, 11, 123
7, 175440, Note_on_c, 1, 84, 52
7, 175470, Control_c, 1, 11, 122
7, 175500, Control_c, 1, 11, 121
7, 175530, Control_c, 1, 11, 119
7, 175559, Note_on_c, 1, 84, 0
7, 175560, Control_c, 1, 11, 118
7, 175560, Note_on_c, 1, 81, 52
7, 175590, Control_c, 1, 11, 117
7, 175620, Control_c, 1, 11, 115
7, 175650, Control_c, 1, 11, 114
7, 175679, Note_on_c, 1, 81, 0
7, 175680, Note_on_c, 1, 82, 52
7, 175919, Note_on_c, 1, 82, 0
7, 176850, Control_c, 1, 11, 93
7, 176880, Note_on_c, 1, 84, 68
7, 176880, Control_c, 1, 11, 91
7, 176910, Control_c, 1, 11, 90
7, 176940, Control_c, 1, 11, 89
7, 176970, Control_c, 1, 11, 87
7, 176999, Note_on_c, 1, 84, 0
7, 177000, Control_c, 1, 11, 86
7, 177000, Note_on_c, 1, 81, 68
7, 177030, Control_c, 1, 11, 85
7, 177060, Control_c, 1, 11, 83
7, 177090, Control_c, 1, 11, 82
7, 177109, Note_on_c, 1, 81, 0
7, 177120, Control_c, 1, 11, 81
7, 177120, Note_on_c, 1, 82, 68
7, 178559, Note_on_c, 1, 82, 0
7, 178560, Control_c, 1, 11, 81
7, 178560, Note_on_c, 1, 82, 68
7, 178680, Control_c, 1, 11, 85
7, 178800, Control_c, 1, 11, 89
7, 178920, Control_c, 1, 11, 93
7, 179040, Control_c, 1, 11, 97
7, 179160, Control_c, 1, 11, 101
7, 179280, Control_c, 1, 11, 105
7, 179400, Control_c, 1, 11, 107
7, 179520, Control_c, 1, 11, 111
7, 179640, Control_c, 1, 11, 115
7, 179760, Control_c, 1, 11, 119
7, 179880, Control_c, 1, 11, 123
7, 179989, Note_on_c, 1, 82, 0
7, 180000, Control_c, 1, 11, 127
7, 180000, Note_on_c, 1, 82, 68
7, 180120, Control_c, 1, 11, 123
7, 180240, Control_c, 1, 11, 119
7, 180360, Control_c, 1, 11, 115
7, 180480, Control_c, 1, 11, 111
7, 180600, Control_c, 1, 11, 107
7, 180720, Control_c, 1, 11, 105
7, 180840, Control_c, 1, 11, 101
7, 180960, Control_c, 1, 11, 97
7, 181080, Control_c, 1, 11, 93
7, 181200, Control_c, 1, 11, 89
7, 181319, Note_on_c, 1, 82, 0
7, 181320, Control_c, 1, 11, 85
7, 181320, Note_on_c, 1, 79, 68
7, 181429, Note_on_c, 1, 79, 0
7, 181440, Control_c, 1, 11, 81
7, 181440, Note_on_c, 1, 77, 68
7, 181559, Note_on_c, 1, 77, 0
7, 181560, Control_c, 1, 11, 85
7, 181560, Note_on_c, 1, 82, 68
7, 181680, Control_c, 1, 11, 89
7, 181800, Control_c, 1, 11, 93
7, 181920, Control_c, 1, 11, 97
7, 182040, Control_c, 1, 11, 101
7, 182160, Control_c, 1, 11, 105
7, 182280, Control_c, 1, 11, 107
7, 182400, Control_c, 1, 11, 111
7, 182520, Control_c, 1, 11, 115
7, 182640, Control_c, 1, 11, 119
7, 182760, Control_c, 1, 11, 123
7, 182869, Note_on_c, 1, 82, 0
7, 182880, Control_c, 1, 11, 127
7, 182880, Note_on_c, 1, 82, 68
7, 183000, Control_c, 1, 11, 123
7, 183120, Control_c, 1, 11, 119
7, 183240, Control_c, 1, 11, 115
7, 183360, Control_c, 1, 11, 111
7, 183480, Control_c, 1, 11, 107
7, 183600, Control_c, 1, 11, 105
7, 183720, Control_c, 1, 11, 101
7, 183840, Control_c, 1, 11, 97
7, 183960, Control_c, 1, 11, 93
7, 184080, Control_c, 1, 11, 89
7, 184199, Note_on_c, 1, 82, 0
7, 184200, Control_c, 1, 11, 85
7, 184200, Note_on_c, 1, 79, 68
7, 184309, Note_on_c, 1, 79, 0
7, 184320, Note_on_c, 1, 77, 68
7, 184320, Control_c, 1, 11, 81
7, 184559, Note_on_c, 1, 77, 0
7, 184800, Control_c, 1, 11, 97
7, 184920, Note_on_c, 1, 77, 60
7, 184980, Control_c, 1, 11, 98
7, 185159, Note_on_c, 1, 77, 0
7, 185160, Control_c, 1, 11, 99
7, 185280, Note_on_c, 1, 77, 60
7, 185340, Control_c, 1, 11, 101
7, 185519, Note_on_c, 1, 77, 0
7, 185520, Control_c, 1, 11, 102
7, 185640, Note_on_c, 1, 77, 60
7, 185700, Control_c, 1, 11, 103
7, 185879, Note_on_c, 1, 77, 0
7, 185880, Control_c, 1, 11, 105
7, 185880, Note_on_c, 1, 74, 60
7, 185999, Note_on_c, 1, 74, 0
7, 186060, Control_c, 1, 11, 106
7, 186120, Note_on_c, 1, 79, 60
7, 186239, Note_on_c, 1, 79, 0
7, 186240, Note_on_c, 1, 77, 60
7, 186240, Control_c, 1, 11, 107
7, 186359, Note_on_c, 1, 77, 0
7, 186420, Control_c, 1, 11, 109
7, 186480, Note_on_c, 1, 79, 60
7, 186599, Note_on_c, 1, 79, 0
7, 186600, Control_c, 1, 11, 110
7, 186600, Note_on_c, 1, 77, 60
7, 186719, Note_on_c, 1, 77, 0
7, 186720, Note_on_c, 1, 79, 60
7, 186779, Note_on_c, 1, 79, 0
7, 186780, Control_c, 1, 11, 111
7, 186780, Note_on_c, 1, 77, 52
7, 186833, Note_on_c, 1, 77, 0
7, 186840, Note_on_c, 1, 79, 60
7, 186899, Note_on_c, 1, 79, 0
7, 186900, Note_on_c, 1, 77, 52
7, 186953, Note_on_c, 1, 77, 0
7, 186960, Control_c, 1, 11, 113
7, 186960, Note_on_c, 1, 79, 60
7, 187019, Note_on_c, 1, 79, 0
7, 187020, Note_on_c, 1, 77, 52
7, 187073, Note_on_c, 1, 77, 0
7, 187080, Note_on_c, 1, 79, 60
7, 187139, Note_on_c, 1, 79, 0
7, 187140, Note_on_c, 1, 77, 52
7, 187140, Control_c, 1, 11, 114
7, 187193, Note_on_c, 1, 77, 0
7, 187200, Note_on_c, 1, 77, 60
7, 187219, Note_on_c, 1, 77, 0
7, 187220, Note_on_c, 1, 79, 60
7, 187239, Note_on_c, 1, 79, 0
7, 187240, Note_on_c, 1, 77, 60
7, 187259, Note_on_c, 1, 77, 0
7, 187260, Note_on_c, 1, 79, 60
7, 187279, Note_on_c, 1, 79, 0
7, 187280, Note_on_c, 1, 77, 60
7, 187299, Note_on_c, 1, 77, 0
7, 187300, Note_on_c, 1, 79, 60
7, 187319, Note_on_c, 1, 79, 0
7, 187320, Note_on_c, 1, 77, 60
7, 187320, Control_c, 1, 11, 115
7, 187339, Note_on_c, 1, 77, 0
7, 187340, Note_on_c, 1, 79, 60
7, 187359, Note_on_c, 1, 79, 0
7, 187360, Note_on_c, 1, 77, 60
7, 187379, Note_on_c, 1, 77, 0
7, 187380, Note_on_c, 1, 79, 60
7, 187399, Note_on_c, 1, 79, 0
7, 187400, Note_on_c, 1, 77, 60
7, 187419, Note_on_c, 1, 77, 0
7, 187420, Note_on_c, 1, 79, 60
7, 187439, Note_on_c, 1, 79, 0
7, 187440, Note_on_c, 1, 77, 60
7, 187459, Note_on_c, 1, 77, 0
7, 187460, Note_on_c, 1, 79, 60
7, 187479, Note_on_c, 1, 79, 0
7, 187480, Note_on_c, 1, 77, 60
7, 187499, Note_on_c, 1, 77, 0
7, 187500, Control_c, 1, 11, 116
7, 187500, Note_on_c, 1, 79, 60
7, 187519, Note_on_c, 1, 79, 0
7, 187520, Note_on_c, 1, 77, 60
7, 187539, Note_on_c, 1, 77, 0
7, 187540, Note_on_c, 1, 79, 60
7, 187559, Note_on_c, 1, 79, 0
7, 187560, Note_on_c, 1, 77, 60
7, 187579, Note_on_c, 1, 77, 0
7, 187580, Note_on_c, 1, 79, 60
7, 187599, Note_on_c, 1, 79, 0
7, 187600, Note_on_c, 1, 77, 60
7, 187619, Note_on_c, 1, 77, 0
7, 187620, Note_on_c, 1, 79, 60
7, 187639, Note_on_c, 1, 79, 0
7, 187640, Note_on_c, 1, 77, 60
7, 187659, Note_on_c, 1, 77, 0
7, 187660, Note_on_c, 1, 79, 60
7, 187679, Note_on_c, 1, 79, 0
7, 187680, Note_on_c, 1, 77, 60
7, 187680, Control_c, 1, 11, 117
7, 187699, Note_on_c, 1, 77, 0
7, 187700, Note_on_c, 1, 79, 60
7, 187719, Note_on_c, 1, 79, 0
7, 187720, Note_on_c, 1, 77, 60
7, 187739, Note_on_c, 1, 77, 0
7, 187740, Note_on_c, 1, 79, 60
7, 187759, Note_on_c, 1, 79, 0
7, 187760, Note_on_c, 1, 77, 60
7, 187779, Note_on_c, 1, 77, 0
7, 187780, Note_on_c, 1, 79, 60
7, 187799, Note_on_c, 1, 79, 0
7, 187800, Note_on_c, 1, 77, 60
7, 187819, Note_on_c, 1, 77, 0
7, 187820, Note_on_c, 1, 79, 60
7, 187839, Note_on_c, 1, 79, 0
7, 187840, Note_on_c, 1, 77, 60
7, 187859, Note_on_c, 1, 77, 0
7, 187860, Control_c, 1, 11, 119
7, 187860, Note_on_c, 1, 79, 60
7, 187879, Note_on_c, 1, 79, 0
7, 187880, Note_on_c, 1, 77, 60
7, 187899, Note_on_c, 1, 77, 0
7, 187900, Note_on_c, 1, 79, 60
7, 187919, Note_on_c, 1, 79, 0
7, 187920, Note_on_c, 1, 77, 60
7, 187939, Note_on_c, 1, 77, 0
7, 187940, Note_on_c, 1, 79, 60
7, 187959, Note_on_c, 1, 79, 0
7, 187960, Note_on_c, 1, 77, 60
7, 187979, Note_on_c, 1, 77, 0
7, 187980, Note_on_c, 1, 79, 60
7, 187999, Note_on_c, 1, 79, 0
7, 188000, Note_on_c, 1, 77, 60
7, 188019, Note_on_c, 1, 77, 0
7, 188020, Note_on_c, 1, 79, 60
7, 188039, Note_on_c, 1, 79, 0
7, 188040, Control_c, 1, 11, 121
7, 188040, Note_on_c, 1, 77, 60
7, 188059, Note_on_c, 1, 77, 0
7, 188060, Note_on_c, 1, 79, 60
7, 188079, Note_on_c, 1, 79, 0
7, 188080, Note_on_c, 1, 77, 60
7, 188099, Note_on_c, 1, 77, 0
7, 188100, Note_on_c, 1, 79, 60
7, 188119, Note_on_c, 1, 79, 0
7, 188120, Note_on_c, 1, 77, 60
7, 188139, Note_on_c, 1, 77, 0
7, 188140, Note_on_c, 1, 79, 60
7, 188159, Note_on_c, 1, 79, 0
7, 188160, Note_on_c, 1, 77, 60
7, 188179, Note_on_c, 1, 77, 0
7, 188180, Note_on_c, 1, 79, 60
7, 188199, Note_on_c, 1, 79, 0
7, 188200, Note_on_c, 1, 77, 60
7, 188219, Note_on_c, 1, 77, 0
7, 188220, Note_on_c, 1, 79, 60
7, 188220, Control_c, 1, 11, 122
7, 188239, Note_on_c, 1, 79, 0
7, 188240, Note_on_c, 1, 77, 60
7, 188259, Note_on_c, 1, 77, 0
7, 188260, Note_on_c, 1, 79, 60
7, 188279, Note_on_c, 1, 79, 0
7, 188280, Note_on_c, 1, 77, 60
7, 188299, Note_on_c, 1, 77, 0
7, 188300, Note_on_c, 1, 79, 60
7, 188319, Note_on_c, 1, 79, 0
7, 188320, Note_on_c, 1, 77, 60
7, 188339, Note_on_c, 1, 77, 0
7, 188340, Note_on_c, 1, 79, 60
7, 188359, Note_on_c, 1, 79, 0
7, 188360, Note_on_c, 1, 77, 60
7, 188379, Note_on_c, 1, 77, 0
7, 188380, Note_on_c, 1, 79, 60
7, 188399, Note_on_c, 1, 79, 0
7, 188400, Control_c, 1, 11, 123
7, 188400, Note_on_c, 1, 77, 60
7, 188419, Note_on_c, 1, 77, 0
7, 188420, Note_on_c, 1, 79, 60
7, 188439, Note_on_c, 1, 79, 0
7, 188440, Note_on_c, 1, 77, 60
7, 188459, Note_on_c, 1, 77, 0
7, 188460, Note_on_c, 1, 79, 60
7, 188479, Note_on_c, 1, 79, 0
7, 188480, Note_on_c, 1, 77, 60
7, 188499, Note_on_c, 1, 77, 0
7, 188500, Note_on_c, 1, 79, 60
7, 188519, Note_on_c, 1, 79, 0
7, 188520, Note_on_c, 1, 77, 60
7, 188539, Note_on_c, 1, 77, 0
7, 188540, Note_on_c, 1, 79, 60
7, 188559, Note_on_c, 1, 79, 0
7, 188560, Note_on_c, 1, 77, 60
7, 188579, Note_on_c, 1, 77, 0
7, 188580, Control_c, 1, 11, 124
7, 188580, Note_on_c, 1, 79, 60
7, 188599, Note_on_c, 1, 79, 0
7, 188600, Note_on_c, 1, 77, 60
7, 188619, Note_on_c, 1, 77, 0
7, 188620, Note_on_c, 1, 79, 60
7, 188639, Note_on_c, 1, 79, 0
7, 188640, Note_on_c, 1, 77, 60
7, 188659, Note_on_c, 1, 77, 0
7, 188660, Note_on_c, 1, 79, 60
7, 188679, Note_on_c, 1, 79, 0
7, 188680, Note_on_c, 1, 77, 60
7, 188699, Note_on_c, 1, 77, 0
7, 188700, Note_on_c, 1, 79, 60
7, 188719, Note_on_c, 1, 79, 0
7, 188720, Note_on_c, 1, 77, 60
7, 188739, Note_on_c, 1, 77, 0
7, 188740, Note_on_c, 1, 79, 60
7, 188759, Note_on_c, 1, 79, 0
7, 188760, Note_on_c, 1, 77, 60
7, 188760, Control_c, 1, 11, 125
7, 188779, Note_on_c, 1, 77, 0
7, 188780, Note_on_c, 1, 79, 60
7, 188799, Note_on_c, 1, 79, 0
7, 188800, Note_on_c, 1, 77, 60
7, 188819, Note_on_c, 1, 77, 0
7, 188820, Note_on_c, 1, 79, 60
7, 188839, Note_on_c, 1, 79, 0
7, 188840, Note_on_c, 1, 77, 60
7, 188859, Note_on_c, 1, 77, 0
7, 188860, Note_on_c, 1, 79, 60
7, 188879, Note_on_c, 1, 79, 0
7, 188880, Note_on_c, 1, 77, 60
7, 188899, Note_on_c, 1, 77, 0
7, 188900, Note_on_c, 1, 79, 60
7, 188919, Note_on_c, 1, 79, 0
7, 188920, Note_on_c, 1, 77, 60
7, 188939, Note_on_c, 1, 77, 0
7, 188940, Note_on_c, 1, 79, 60
7, 188959, Note_on_c, 1, 79, 0
7, 188960, Note_on_c, 1, 77, 60
7, 188979, Note_on_c, 1, 77, 0
7, 188980, Note_on_c, 1, 79, 60
7, 188994, Note_on_c, 1, 79, 0
7, 189000, Note_on_c, 1, 77, 60
7, 189059, Note_on_c, 1, 77, 0
7, 189060, Note_on_c, 1, 76, 60
7, 189119, Note_on_c, 1, 76, 0
7, 189120, Note_on_c, 1, 77, 60
7, 189239, Note_on_c, 1, 77, 0
7, 190080, Control_c, 1, 11, 97
7, 190200, Control_c, 1, 11, 97
7, 190320, Note_on_c, 1, 77, 60
7, 190390, Control_c, 1, 11, 98
7, 190559, Note_on_c, 1, 77, 0
7, 190580, Control_c, 1, 11, 99
7, 190680, Note_on_c, 1, 77, 60
7, 190770, Control_c, 1, 11, 101
7, 190919, Note_on_c, 1, 77, 0
7, 190960, Control_c, 1, 11, 102
7, 191040, Note_on_c, 1, 77, 60
7, 191150, Control_c, 1, 11, 103
7, 191159, Note_on_c, 1, 77, 0
7, 191160, Note_on_c, 1, 79, 60
7, 191279, Note_on_c, 1, 79, 0
7, 191280, Note_on_c, 1, 77, 60
7, 191340, Control_c, 1, 11, 105
7, 191399, Note_on_c, 1, 77, 0
7, 191520, Note_on_c, 1, 79, 60
7, 191530, Control_c, 1, 11, 106
7, 191639, Note_on_c, 1, 79, 0
7, 191640, Note_on_c, 1, 77, 60
7, 191720, Control_c, 1, 11, 107
7, 191759, Note_on_c, 1, 77, 0
7, 191880, Note_on_c, 1, 79, 60
7, 191910, Control_c, 1, 11, 109
7, 191999, Note_on_c, 1, 79, 0
7, 192000, Note_on_c, 1, 77, 60
7, 192100, Control_c, 1, 11, 110
7, 192119, Note_on_c, 1, 77, 0
7, 192120, Note_on_c, 1, 79, 60
7, 192179, Note_on_c, 1, 79, 0
7, 192180, Note_on_c, 1, 77, 52
7, 192233, Note_on_c, 1, 77, 0
7, 192240, Note_on_c, 1, 79, 60
7, 192290, Control_c, 1, 11, 111
7, 192299, Note_on_c, 1, 79, 0
7, 192300, Note_on_c, 1, 77, 52
7, 192353, Note_on_c, 1, 77, 0
7, 192360, Note_on_c, 1, 79, 60
7, 192419, Note_on_c, 1, 79, 0
7, 192420, Note_on_c, 1, 77, 52
7, 192473, Note_on_c, 1, 77, 0
7, 192480, Note_on_c, 1, 79, 60
7, 192480, Control_c, 1, 11, 113
7, 192539, Note_on_c, 1, 79, 0
7, 192540, Note_on_c, 1, 77, 52
7, 192593, Note_on_c, 1, 77, 0
7, 192600, Note_on_c, 1, 79, 60
7, 192659, Note_on_c, 1, 79, 0
7, 192660, Note_on_c, 1, 77, 52
7, 192670, Control_c, 1, 11, 114
7, 192713, Note_on_c, 1, 77, 0
7, 192720, Note_on_c, 1, 79, 60
7, 192779, Note_on_c, 1, 79, 0
7, 192780, Note_on_c, 1, 77, 52
7, 192833, Note_on_c, 1, 77, 0
7, 192840, Note_on_c, 1, 79, 60
7, 192860, Control_c, 1, 11, 115
7, 192899, Note_on_c, 1, 79, 0
7, 192900, Note_on_c, 1, 77, 52
7, 192953, Note_on_c, 1, 77, 0
7, 192960, Note_on_c, 1, 77, 60
7, 192979, Note_on_c, 1, 77, 0
7, 192980, Note_on_c, 1, 79, 60
7, 192999, Note_on_c, 1, 79, 0
7, 193000, Note_on_c, 1, 77, 60
7, 193019, Note_on_c, 1, 77, 0
7, 193020, Note_on_c, 1, 79, 60
7, 193039, Note_on_c, 1, 79, 0
7, 193040, Note_on_c, 1, 77, 60
7, 193059, Note_on_c, 1, 77, 0
7, 193060, Note_on_c, 1, 79, 60
7, 193079, Note_on_c, 1, 79, 0
7, 193080, Control_c, 1, 11, 116
7, 193080, Note_on_c, 1, 77, 60
7, 193099, Note_on_c, 1, 77, 0
7, 193100, Note_on_c, 1, 79, 60
7, 193119, Note_on_c, 1, 79, 0
7, 193120, Note_on_c, 1, 77, 60
7, 193139, Note_on_c, 1, 77, 0
7, 193140, Note_on_c, 1, 79, 60
7, 193159, Note_on_c, 1, 79, 0
7, 193160, Note_on_c, 1, 77, 60
7, 193179, Note_on_c, 1, 77, 0
7, 193180, Note_on_c, 1, 79, 60
7, 193199, Note_on_c, 1, 79, 0
7, 193200, Note_on_c, 1, 77, 60
7, 193219, Note_on_c, 1, 77, 0
7, 193220, Note_on_c, 1, 79, 60
7, 193239, Note_on_c, 1, 79, 0
7, 193240, Note_on_c, 1, 77, 60
7, 193259, Note_on_c, 1, 77, 0
7, 193260, Note_on_c, 1, 79, 60
7, 193260, Control_c, 1, 11, 117
7, 193279, Note_on_c, 1, 79, 0
7, 193280, Note_on_c, 1, 77, 60
7, 193299, Note_on_c, 1, 77, 0
7, 193300, Note_on_c, 1, 79, 60
7, 193319, Note_on_c, 1, 79, 0
7, 193320, Note_on_c, 1, 77, 60
7, 193339, Note_on_c, 1, 77, 0
7, 193340, Note_on_c, 1, 79, 60
7, 193359, Note_on_c, 1, 79, 0
7, 193360, Note_on_c, 1, 77, 60
7, 193379, Note_on_c, 1, 77, 0
7, 193380, Note_on_c, 1, 79, 60
7, 193399, Note_on_c, 1, 79, 0
7, 193400, Note_on_c, 1, 77, 60
7, 193419, Note_on_c, 1, 77, 0
7, 193420, Note_on_c, 1, 79, 60
7, 193439, Note_on_c, 1, 79, 0
7, 193440, Control_c, 1, 11, 118
7, 193440, Note_on_c, 1, 77, 60
7, 193459, Note_on_c, 1, 77, 0
7, 193460, Note_on_c, 1, 79, 60
7, 193479, Note_on_c, 1, 79, 0
7, 193480, Note_on_c, 1, 77, 60
7, 193499, Note_on_c, 1, 77, 0
7, 193500, Note_on_c, 1, 79, 60
7, 193519, Note_on_c, 1, 79, 0
7, 193520, Note_on_c, 1, 77, 60
7, 193539, Note_on_c, 1, 77, 0
7, 193540, Note_on_c, 1, 79, 60
7, 193559, Note_on_c, 1, 79, 0
7, 193560, Note_on_c, 1, 77, 60
7, 193579, Note_on_c, 1, 77, 0
7, 193580, Note_on_c, 1, 79, 60
7, 193599, Note_on_c, 1, 79, 0
7, 193600, Note_on_c, 1, 77, 60
7, 193619, Note_on_c, 1, 77, 0
7, 193620, Note_on_c, 1, 79, 60
7, 193620, Control_c, 1, 11, 119
7, 193639, Note_on_c, 1, 79, 0
7, 193640, Note_on_c, 1, 77, 60
7, 193659, Note_on_c, 1, 77, 0
7, 193660, Note_on_c, 1, 79, 60
7, 193679, Note_on_c, 1, 79, 0
7, 193680, Note_on_c, 1, 77, 60
7, 193699, Note_on_c, 1, 77, 0
7, 193700, Note_on_c, 1, 79, 60
7, 193719, Note_on_c, 1, 79, 0
7, 193720, Note_on_c, 1, 77, 60
7, 193739, Note_on_c, 1, 77, 0
7, 193740, Note_on_c, 1, 79, 60
7, 193759, Note_on_c, 1, 79, 0
7, 193760, Note_on_c, 1, 77, 60
7, 193779, Note_on_c, 1, 77, 0
7, 193780, Note_on_c, 1, 79, 60
7, 193799, Note_on_c, 1, 79, 0
7, 193800, Note_on_c, 1, 77, 60
7, 193800, Control_c, 1, 11, 121
7, 193819, Note_on_c, 1, 77, 0
7, 193820, Note_on_c, 1, 79, 60
7, 193839, Note_on_c, 1, 79, 0
7, 193840, Note_on_c, 1, 77, 60
7, 193859, Note_on_c, 1, 77, 0
7, 193860, Note_on_c, 1, 79, 60
7, 193879, Note_on_c, 1, 79, 0
7, 193880, Note_on_c, 1, 77, 60
7, 193899, Note_on_c, 1, 77, 0
7, 193900, Note_on_c, 1, 79, 60
7, 193919, Note_on_c, 1, 79, 0
7, 193920, Note_on_c, 1, 77, 60
7, 193939, Note_on_c, 1, 77, 0
7, 193940, Note_on_c, 1, 79, 60
7, 193959, Note_on_c, 1, 79, 0
7, 193960, Note_on_c, 1, 77, 60
7, 193979, Note_on_c, 1, 77, 0
7, 193980, Control_c, 1, 11, 122
7, 193980, Note_on_c, 1, 79, 60
7, 193999, Note_on_c, 1, 79, 0
7, 194000, Note_on_c, 1, 77, 60
7, 194019, Note_on_c, 1, 77, 0
7, 194020, Note_on_c, 1, 79, 60
7, 194039, Note_on_c, 1, 79, 0
7, 194040, Note_on_c, 1, 77, 60
7, 194059, Note_on_c, 1, 77, 0
7, 194060, Note_on_c, 1, 79, 60
7, 194079, Note_on_c, 1, 79, 0
7, 194080, Note_on_c, 1, 77, 60
7, 194099, Note_on_c, 1, 77, 0
7, 194100, Note_on_c, 1, 79, 60
7, 194119, Note_on_c, 1, 79, 0
7, 194120, Note_on_c, 1, 77, 60
7, 194139, Note_on_c, 1, 77, 0
7, 194140, Note_on_c, 1, 79, 60
7, 194159, Note_on_c, 1, 79, 0
7, 194160, Control_c, 1, 11, 123
7, 194160, Note_on_c, 1, 77, 60
7, 194179, Note_on_c, 1, 77, 0
7, 194180, Note_on_c, 1, 79, 60
7, 194199, Note_on_c, 1, 79, 0
7, 194200, Note_on_c, 1, 77, 60
7, 194219, Note_on_c, 1, 77, 0
7, 194220, Note_on_c, 1, 79, 60
7, 194239, Note_on_c, 1, 79, 0
7, 194240, Note_on_c, 1, 77, 60
7, 194259, Note_on_c, 1, 77, 0
7, 194260, Note_on_c, 1, 79, 60
7, 194279, Note_on_c, 1, 79, 0
7, 194280, Note_on_c, 1, 77, 60
7, 194299, Note_on_c, 1, 77, 0
7, 194300, Note_on_c, 1, 79, 60
7, 194319, Note_on_c, 1, 79, 0
7, 194320, Note_on_c, 1, 77, 60
7, 194339, Note_on_c, 1, 77, 0
7, 194340, Note_on_c, 1, 79, 60
7, 194340, Control_c, 1, 11, 124
7, 194359, Note_on_c, 1, 79, 0
7, 194360, Note_on_c, 1, 77, 60
7, 194379, Note_on_c, 1, 77, 0
7, 194380, Note_on_c, 1, 79, 60
7, 194399, Note_on_c, 1, 79, 0
7, 194400, Note_on_c, 1, 77, 60
7, 194419, Note_on_c, 1, 77, 0
7, 194420, Note_on_c, 1, 79, 60
7, 194439, Note_on_c, 1, 79, 0
7, 194440, Note_on_c, 1, 77, 60
7, 194459, Note_on_c, 1, 77, 0
7, 194460, Note_on_c, 1, 79, 60
7, 194479, Note_on_c, 1, 79, 0
7, 194480, Note_on_c, 1, 77, 60
7, 194499, Note_on_c, 1, 77, 0
7, 194500, Note_on_c, 1, 79, 60
7, 194519, Note_on_c, 1, 79, 0
7, 194520, Control_c, 1, 11, 125
7, 194520, Note_on_c, 1, 77, 60
7, 194539, Note_on_c, 1, 77, 0
7, 194540, Note_on_c, 1, 79, 60
7, 194559, Note_on_c, 1, 79, 0
7, 194560, Note_on_c, 1, 77, 60
7, 194579, Note_on_c, 1, 77, 0
7, 194580, Note_on_c, 1, 79, 60
7, 194599, Note_on_c, 1, 79, 0
7, 194600, Note_on_c, 1, 77, 60
7, 194619, Note_on_c, 1, 77, 0
7, 194620, Note_on_c, 1, 79, 60
7, 194639, Note_on_c, 1, 79, 0
7, 194640, Note_on_c, 1, 77, 60
7, 194659, Note_on_c, 1, 77, 0
7, 194660, Note_on_c, 1, 79, 60
7, 194679, Note_on_c, 1, 79, 0
7, 194680, Note_on_c, 1, 77, 60
7, 194699, Note_on_c, 1, 77, 0
7, 194700, Note_on_c, 1, 79, 60
7, 194719, Note_on_c, 1, 79, 0
7, 194720, Note_on_c, 1, 77, 60
7, 194739, Note_on_c, 1, 77, 0
7, 194740, Note_on_c, 1, 79, 60
7, 194754, Note_on_c, 1, 79, 0
7, 194760, Note_on_c, 1, 77, 60
7, 194819, Note_on_c, 1, 77, 0
7, 194820, Note_on_c, 1, 76, 60
7, 194879, Note_on_c, 1, 76, 0
7, 194880, Note_on_c, 1, 77, 60
7, 194999, Note_on_c, 1, 77, 0
7, 197040, Control_c, 1, 11, 127
7, 197160, Note_on_c, 1, 87, 52
7, 197269, Note_on_c, 1, 87, 0
7, 197280, Note_on_c, 1, 87, 52
7, 197399, Note_on_c, 1, 87, 0
7, 197400, Note_on_c, 1, 86, 56
7, 197519, Note_on_c, 1, 86, 0
7, 197520, Note_on_c, 1, 84, 60
7, 197609, Note_on_c, 1, 84, 0
7, 197620, Note_on_c, 1, 86, 63
7, 197639, Note_on_c, 1, 86, 0
7, 197640, Note_on_c, 1, 84, 64
7, 197759, Note_on_c, 1, 84, 0
7, 197760, Note_on_c, 1, 82, 68
7, 197879, Note_on_c, 1, 82, 0
7, 197880, Note_on_c, 1, 77, 72
7, 197880, Note_on_c, 1, 81, 72
7, 197989, Note_on_c, 1, 77, 0
7, 197989, Note_on_c, 1, 81, 0
7, 198000, Note_on_c, 1, 82, 84
7, 198000, Note_on_c, 1, 77, 84
7, 198060, Control_c, 1, 11, 112
7, 198097, Control_c, 1, 11, 108
7, 198133, Control_c, 1, 11, 105
7, 198170, Control_c, 1, 11, 101
7, 198207, Control_c, 1, 11, 98
7, 198243, Control_c, 1, 11, 94
7, 198280, Control_c, 1, 11, 91
7, 198317, Control_c, 1, 11, 87
7, 198353, Control_c, 1, 11, 84
7, 198390, Control_c, 1, 11, 80
7, 198427, Control_c, 1, 11, 76
7, 198463, Control_c, 1, 11, 73
7, 198500, Control_c, 1, 11, 69
7, 198537, Control_c, 1, 11, 66
7, 198573, Control_c, 1, 11, 62
7, 198610, Control_c, 1, 11, 59
7, 198647, Control_c, 1, 11, 55
7, 198683, Control_c, 1, 11, 52
7, 198720, Control_c, 1, 11, 48
7, 198959, Note_on_c, 1, 82, 0
7, 198959, Note_on_c, 1, 77, 0
7, 199080, Note_on_c, 1, 77, 84
7, 199080, Note_on_c, 1, 65, 84
7, 199319, Note_on_c, 1, 77, 0
7, 199319, Note_on_c, 1, 65, 0
7, 199440, Note_on_c, 1, 65, 84
7, 199440, Note_on_c, 1, 74, 84
7, 199679, Note_on_c, 1, 65, 0
7, 199679, Note_on_c, 1, 74, 0
7, 200160, Control_c, 1, 11, 127
7, 200160, End_track
8, 0, Start_track
8, 0, Title_t, "Oboe"
8, 0, MIDI_port, 0
8, 0, Program_c, 2, 68
8, 0, Control_c, 2, 7, 80
8, 0, Control_c, 2, 10, 70
8, 0, Control_c, 2, 11, 127
8, 7200, Control_c, 2, 11, 81
8, 7560, Note_on_c, 2, 74, 76
8, 7560, Note_on_c, 2, 70, 76
8, 7799, Note_on_c, 2, 74, 0
8, 7799, Note_on_c, 2, 70, 0
8, 7920, Note_on_c, 2, 70, 76
8, 7920, Control_c, 2, 11, 81
8, 7920, Note_on_c, 2, 74, 76
8, 7950, Control_c, 2, 11, 83
8, 7980, Control_c, 2, 11, 86
8, 8010, Control_c, 2, 11, 89
8, 8040, Control_c, 2, 11, 91
8, 8070, Control_c, 2, 11, 94
8, 8100, Control_c, 2, 11, 97
8, 8130, Control_c, 2, 11, 99
8, 8159, Note_on_c, 2, 70, 0
8, 8159, Note_on_c, 2, 74, 0
8, 8160, Control_c, 2, 11, 102
8, 8190, Control_c, 2, 11, 105
8, 8220, Control_c, 2, 11, 107
8, 8250, Control_c, 2, 11, 110
8, 8280, Control_c, 2, 11, 113
8, 8280, Note_on_c, 2, 69, 76
8, 8280, Note_on_c, 2, 75, 76
8, 8310, Control_c, 2, 11, 110
8, 8340, Control_c, 2, 11, 107
8, 8370, Control_c, 2, 11, 105
8, 8400, Control_c, 2, 11, 102
8, 8430, Control_c, 2, 11, 99
8, 8460, Control_c, 2, 11, 97
8, 8490, Control_c, 2, 11, 94
8, 8519, Note_on_c, 2, 69, 0
8, 8519, Note_on_c, 2, 75, 0
8, 8520, Control_c, 2, 11, 91
8, 8550, Control_c, 2, 11, 89
8, 8580, Control_c, 2, 11, 86
8, 8610, Control_c, 2, 11, 81
8, 8640, Note_on_c, 2, 70, 76
8, 8640, Note_on_c, 2, 74, 76
8, 8879, Note_on_c, 2, 70, 0
8, 8879, Note_on_c, 2, 74, 0
8, 9960, Control_c, 2, 11, 127
8, 10080, Note_on_c, 2, 70, 52
8, 11509, Note_on_c, 2, 70, 0
8, 11520, Note_on_c, 2, 77, 52
8, 12949, Note_on_c, 2, 77, 0
8, 12960, Note_on_c, 2, 77, 52
8, 14389, Note_on_c, 2, 77, 0
8, 14400, Control_c, 2, 11, 81
8, 14400, Note_on_c, 2, 82, 76
8, 14400, Note_on_c, 2, 77, 76
8, 14520, Control_c, 2, 11, 85
8, 14640, Control_c, 2, 11, 89
8, 14760, Control_c, 2, 11, 93
8, 14880, Control_c, 2, 11, 97
8, 15000, Control_c, 2, 11, 101
8, 15109, Note_on_c, 2, 77, 0
8, 15120, Note_on_c, 2, 79, 76
8, 15120, Control_c, 2, 11, 105
8, 15240, Control_c, 2, 11, 107
8, 15360, Control_c, 2, 11, 111
8, 15480, Control_c, 2, 11, 115
8, 15600, Control_c, 2, 11, 119
8, 15720, Control_c, 2, 11, 123
8, 15829, Note_on_c, 2, 82, 0
8, 15829, Note_on_c, 2, 79, 0
8, 15840, Note_on_c, 2, 82, 76
8, 15840, Control_c, 2, 11, 127
8, 15840, Note_on_c, 2, 74, 76
8, 15900, Control_c, 2, 11, 81
8, 16079, Note_on_c, 2, 82, 0
8, 16079, Note_on_c, 2, 74, 0
8, 16200, Note_on_c, 2, 70, 76
8, 16200, Note_on_c, 2, 74, 76
8, 16439, Note_on_c, 2, 70, 0
8, 16439, Note_on_c, 2, 74, 0
8, 16560, Control_c, 2, 11, 81
8, 16560, Note_on_c, 2, 74, 76
8, 16560, Note_on_c, 2, 70, 76
8, 16590, Control_c, 2, 11, 83
8, 16620, Control_c, 2, 11, 86
8, 16650, Control_c, 2, 11, 89
8, 16680, Control_c, 2, 11, 91
8, 16710, Control_c, 2, 11, 94
8, 16740, Control_c, 2, 11, 97
8, 16770, Control_c, 2, 11, 99
8, 16799, Note_on_c, 2, 74, 0
8, 16799, Note_on_c, 2, 70, 0
8, 16800, Control_c, 2, 11, 102
8, 16830, Control_c, 2, 11, 105
8, 16860, Control_c, 2, 11, 107
8, 16890, Control_c, 2, 11, 110
8, 16920, Control_c, 2, 11, 113
8, 16920, Note_on_c, 2, 69, 76
8, 16920, Note_on_c, 2, 72, 76
8, 16950, Control_c, 2, 11, 110
8, 16980, Control_c, 2, 11, 107
8, 17010, Control_c, 2, 11, 105
8, 17040, Control_c, 2, 11, 102
8, 17070, Control_c, 2, 11, 99
8, 17100, Control_c, 2, 11, 97
8, 17130, Control_c, 2, 11, 94
8, 17159, Note_on_c, 2, 69, 0
8, 17159, Note_on_c, 2, 72, 0
8, 17250, Control_c, 2, 11, 80
8, 17280, Note_on_c, 2, 70, 76
8, 17280, Note_on_c, 2, 65, 76
8, 17519, Note_on_c, 2, 70, 0
8, 17519, Note_on_c, 2, 65, 0
8, 24720, Control_c, 2, 11, 127
8, 24840, Note_on_c, 2, 62, 52
8, 24840, Note_on_c, 2, 65, 52
8, 25079, Note_on_c, 2, 62, 0
8, 25079, Note_on_c, 2, 65, 0
8, 25200, Note_on_c, 2, 62, 52
8, 25200, Note_on_c, 2, 65, 52
8, 25439, Note_on_c, 2, 62, 0
8, 25439, Note_on_c, 2, 65, 0
8, 36000, Note_on_c, 2, 71, 52
8, 36000, Note_on_c, 2, 74, 52
8, 36589, Note_on_c, 2, 71, 0
8, 36589, Note_on_c, 2, 74, 0
8, 36600, Note_on_c, 2, 71, 52
8, 36600, Note_on_c, 2, 74, 52
8, 36949, Note_on_c, 2, 71, 0
8, 36949, Note_on_c, 2, 74, 0
8, 36960, Note_on_c, 2, 74, 52
8, 36960, Note_on_c, 2, 71, 52
8, 37309, Note_on_c, 2, 74, 0
8, 37309, Note_on_c, 2, 71, 0
8, 37320, Note_on_c, 2, 71, 52
8, 37320, Note_on_c, 2, 74, 52
8, 37429, Note_on_c, 2, 71, 0
8, 37429, Note_on_c, 2, 74, 0
8, 37440, Note_on_c, 2, 76, 52
8, 37440, Note_on_c, 2, 72, 52
8, 37549, Note_on_c, 2, 76, 0
8, 37559, Note_on_c, 2, 72, 0
8, 37560, Note_on_c, 2, 76, 52
8, 37669, Note_on_c, 2, 76, 0
8, 37680, Note_on_c, 2, 76, 52
8, 37789, Note_on_c, 2, 76, 0
8, 37800, Note_on_c, 2, 76, 52
8, 37919, Note_on_c, 2, 76, 0
8, 38280, Note_on_c, 2, 77, 52
8, 38389, Note_on_c, 2, 77, 0
8, 38400, Note_on_c, 2, 77, 52
8, 38509, Note_on_c, 2, 77, 0
8, 38520, Note_on_c, 2, 77, 52
8, 38639, Note_on_c, 2, 77, 0
8, 39000, Note_on_c, 2, 76, 52
8, 39109, Note_on_c, 2, 76, 0
8, 39120, Note_on_c, 2, 76, 52
8, 39229, Note_on_c, 2, 76, 0
8, 39240, Note_on_c, 2, 76, 52
8, 39359, Note_on_c, 2, 76, 0
8, 39720, Note_on_c, 2, 77, 52
8, 39829, Note_on_c, 2, 77, 0
8, 39840, Note_on_c, 2, 77, 52
8, 39949, Note_on_c, 2, 77, 0
8, 39960, Note_on_c, 2, 77, 52
8, 40079, Note_on_c, 2, 77, 0
8, 40200, Control_c, 2, 11, 97
8, 40320, Note_on_c, 2, 76, 68
8, 40320, Note_on_c, 2, 67, 68
8, 40380, Control_c, 2, 11, 99
8, 40440, Control_c, 2, 11, 102
8, 40500, Control_c, 2, 11, 105
8, 40560, Control_c, 2, 11, 107
8, 40620, Control_c, 2, 11, 110
8, 40680, Control_c, 2, 11, 113
8, 40740, Control_c, 2, 11, 115
8, 40800, Control_c, 2, 11, 118
8, 40860, Control_c, 2, 11, 119
8, 40920, Control_c, 2, 11, 123
8, 40980, Control_c, 2, 11, 125
8, 41029, Note_on_c, 2, 76, 0
8, 41029, Note_on_c, 2, 67, 0
8, 41040, Note_on_c, 2, 76, 68
8, 41040, Control_c, 2, 11, 127
8, 41040, Note_on_c, 2, 79, 68
8, 41100, Control_c, 2, 11, 125
8, 41160, Control_c, 2, 11, 123
8, 41220, Control_c, 2, 11, 119
8, 41280, Control_c, 2, 11, 118
8, 41340, Control_c, 2, 11, 115
8, 41400, Control_c, 2, 11, 113
8, 41460, Control_c, 2, 11, 110
8, 41520, Control_c, 2, 11, 107
8, 41580, Control_c, 2, 11, 105
8, 41640, Control_c, 2, 11, 102
8, 41700, Control_c, 2, 11, 99
8, 41749, Note_on_c, 2, 76, 0
8, 41749, Note_on_c, 2, 79, 0
8, 41760, Note_on_c, 2, 77, 68
8, 41760, Control_c, 2, 11, 97
8, 41760, Note_on_c, 2, 72, 68
8, 41999, Note_on_c, 2, 77, 0
8, 41999, Note_on_c, 2, 72, 0
8, 42120, Note_on_c, 2, 82, 68
8, 42120, Note_on_c, 2, 79, 68
8, 42359, Note_on_c, 2, 82, 0
8, 42359, Note_on_c, 2, 79, 0
8, 42480, Note_on_c, 2, 81, 68
8, 42480, Note_on_c, 2, 77, 68
8, 42719, Note_on_c, 2, 81, 0
8, 42719, Note_on_c, 2, 77, 0
8, 42840, Note_on_c, 2, 79, 68
8, 42840, Note_on_c, 2, 76, 68
8, 43079, Note_on_c, 2, 79, 0
8, 43079, Note_on_c, 2, 76, 0
8, 43200, Control_c, 2, 11, 97
8, 43200, Note_on_c, 2, 76, 68
8, 43200, Note_on_c, 2, 79, 68
8, 43260, Control_c, 2, 11, 99
8, 43320, Control_c, 2, 11, 102
8, 43380, Control_c, 2, 11, 105
8, 43440, Control_c, 2, 11, 107
8, 43500, Control_c, 2, 11, 110
8, 43560, Control_c, 2, 11, 113
8, 43620, Control_c, 2, 11, 115
8, 43680, Control_c, 2, 11, 118
8, 43740, Control_c, 2, 11, 119
8, 43800, Control_c, 2, 11, 123
8, 43860, Control_c, 2, 11, 125
8, 43909, Note_on_c, 2, 76, 0
8, 43909, Note_on_c, 2, 79, 0
8, 43920, Note_on_c, 2, 79, 68
8, 43920, Note_on_c, 2, 82, 68
8, 43920, Control_c, 2, 11, 127
8, 43980, Control_c, 2, 11, 125
8, 44040, Control_c, 2, 11, 123
8, 44100, Control_c, 2, 11, 119
8, 44160, Control_c, 2, 11, 118
8, 44220, Control_c, 2, 11, 115
8, 44280, Control_c, 2, 11, 113
8, 44340, Control_c, 2, 11, 110
8, 44400, Control_c, 2, 11, 107
8, 44460, Control_c, 2, 11, 105
8, 44519, Note_on_c, 2, 79, 0
8, 44519, Note_on_c, 2, 82, 0
8, 44520, Note_on_c, 2, 79, 68
8, 44520, Control_c, 2, 11, 102
8, 44520, Note_on_c, 2, 76, 68
8, 44580, Control_c, 2, 11, 99
8, 44629, Note_on_c, 2, 79, 0
8, 44629, Note_on_c, 2, 76, 0
8, 44640, Control_c, 2, 11, 97
8, 44640, Note_on_c, 2, 81, 68
8, 44640, Note_on_c, 2, 77, 68
8, 44879, Note_on_c, 2, 81, 0
8, 44879, Note_on_c, 2, 77, 0
8, 44998, Control_c, 2, 11, 127
8, 45000, Note_on_c, 2, 82, 52
8, 45239, Note_on_c, 2, 82, 0
8, 45360, Note_on_c, 2, 77, 52
8, 45599, Note_on_c, 2, 77, 0
8, 45720, Note_on_c, 2, 76, 52
8, 45959, Note_on_c, 2, 76, 0
8, 46080, Note_on_c, 2, 76, 52
8, 46319, Note_on_c, 2, 76, 0
8, 52080, Control_c, 2, 11, 114
8, 52200, Note_on_c, 2, 84, 76
8, 52200, Control_c, 2, 11, 115
8, 52320, Control_c, 2, 11, 118
8, 52439, Note_on_c, 2, 84, 0
8, 52440, Control_c, 2, 11, 119
8, 52440, Note_on_c, 2, 79, 76
8, 52559, Note_on_c, 2, 79, 0
8, 52560, Control_c, 2, 11, 122
8, 52560, Note_on_c, 2, 81, 76
8, 52680, Control_c, 2, 11, 123
8, 52799, Note_on_c, 2, 81, 0
8, 52800, Note_on_c, 2, 77, 76
8, 52800, Control_c, 2, 11, 126
8, 52909, Note_on_c, 2, 77, 0
8, 52920, Note_on_c, 2, 76, 76
8, 52920, Note_on_c, 2, 79, 76
8, 52920, Control_c, 2, 11, 127
8, 53149, Note_on_c, 2, 76, 0
8, 53149, Note_on_c, 2, 79, 0
8, 53160, Note_on_c, 2, 79, 76
8, 53160, Note_on_c, 2, 76, 76
8, 53269, Note_on_c, 2, 79, 0
8, 53269, Note_on_c, 2, 76, 0
8, 53280, Note_on_c, 2, 81, 76
8, 53280, Note_on_c, 2, 77, 76
8, 54709, Note_on_c, 2, 81, 0
8, 54709, Note_on_c, 2, 77, 0
8, 54720, Note_on_c, 2, 81, 76
8, 54720, Note_on_c, 2, 77, 76
8, 54959, Note_on_c, 2, 81, 0
8, 54959, Note_on_c, 2, 77, 0
8, 56160, Note_on_c, 2, 77, 52
8, 56160, Note_on_c, 2, 79, 52
8, 56399, Note_on_c, 2, 77, 0
8, 56399, Note_on_c, 2, 79, 0
8, 56880, Note_on_c, 2, 76, 52
8, 56880, Note_on_c, 2, 79, 52
8, 56940, Control_c, 2, 11, 127
8, 57000, Control_c, 2, 11, 126
8, 57060, Control_c, 2, 11, 123
8, 57119, Note_on_c, 2, 76, 0
8, 57119, Note_on_c, 2, 79, 0
8, 57540, Control_c, 2, 11, 113
8, 57600, Control_c, 2, 11, 113
8, 57600, Note_on_c, 2, 76, 52
8, 57600, Note_on_c, 2, 73, 52
8, 57959, Note_on_c, 2, 76, 0
8, 57959, Note_on_c, 2, 73, 0
8, 57960, Note_on_c, 2, 74, 52
8, 57960, Note_on_c, 2, 77, 52
8, 58559, Note_on_c, 2, 74, 0
8, 58559, Note_on_c, 2, 77, 0
8, 58560, Note_on_c, 2, 71, 52
8, 58560, Note_on_c, 2, 74, 52
8, 58679, Note_on_c, 2, 71, 0
8, 58679, Note_on_c, 2, 74, 0
8, 58680, Note_on_c, 2, 76, 52
8, 58680, Note_on_c, 2, 72, 52
8, 59029, Note_on_c, 2, 76, 0
8, 59029, Note_on_c, 2, 72, 0
8, 59038, Control_c, 2, 11, 65
8, 59040, Note_on_c, 2, 73, 76
8, 59040, Note_on_c, 2, 76, 76
8, 59399, Note_on_c, 2, 73, 0
8, 59399, Note_on_c, 2, 76, 0
8, 59400, Note_on_c, 2, 74, 76
8, 59400, Note_on_c, 2, 77, 76
8, 59999, Note_on_c, 2, 74, 0
8, 59999, Note_on_c, 2, 77, 0
8, 60000, Note_on_c, 2, 71, 76
8, 60000, Note_on_c, 2, 74, 76
8, 60119, Note_on_c, 2, 71, 0
8, 60119, Note_on_c, 2, 74, 0
8, 60120, Note_on_c, 2, 76, 76
8, 60120, Note_on_c, 2, 72, 76
8, 60240, Control_c, 2, 11, 70
8, 60360, Control_c, 2, 11, 75
8, 60469, Note_on_c, 2, 76, 0
8, 60480, Note_on_c, 2, 77, 76
8, 60480, Control_c, 2, 11, 81
8, 60600, Control_c, 2, 11, 86
8, 60720, Control_c, 2, 11, 91
8, 60839, Note_on_c, 2, 77, 0
8, 60840, Control_c, 2, 11, 97
8, 60840, Note_on_c, 2, 79, 76
8, 60960, Control_c, 2, 11, 102
8, 61080, Control_c, 2, 11, 107
8, 61199, Note_on_c, 2, 79, 0
8, 61200, Note_on_c, 2, 77, 76
8, 61200, Control_c, 2, 11, 111
8, 61320, Control_c, 2, 11, 118
8, 61440, Control_c, 2, 11, 123
8, 61549, Note_on_c, 2, 72, 0
8, 61549, Note_on_c, 2, 77, 0
8, 61560, Note_on_c, 2, 79, 76
8, 61560, Note_on_c, 2, 76, 76
8, 61560, Control_c, 2, 11, 127
8, 61789, Note_on_c, 2, 79, 0
8, 61789, Note_on_c, 2, 76, 0
8, 61800, Note_on_c, 2, 76, 76
8, 61800, Note_on_c, 2, 79, 76
8, 61919, Note_on_c, 2, 76, 0
8, 61919, Note_on_c, 2, 79, 0
8, 61920, Note_on_c, 2, 77, 76
8, 61920, Note_on_c, 2, 81, 76
8, 62629, Note_on_c, 2, 77, 0
8, 62629, Note_on_c, 2, 81, 0
8, 62640, Note_on_c, 2, 72, 76
8, 62879, Note_on_c, 2, 72, 0
8, 62880, Note_on_c, 2, 69, 76
8, 62999, Note_on_c, 2, 69, 0
8, 63000, Note_on_c, 2, 65, 76
8, 63119, Note_on_c, 2, 65, 0
8, 63120, Note_on_c, 2, 69, 76
8, 63239, Note_on_c, 2, 69, 0
8, 63240, Note_on_c, 2, 72, 76
8, 63349, Note_on_c, 2, 72, 0
8, 63360, Note_on_c, 2, 77, 84
8, 63360, Note_on_c, 2, 69, 84
8, 63469, Note_on_c, 2, 77, 0
8, 63469, Note_on_c, 2, 69, 0
8, 63480, Note_on_c, 2, 81, 76
8, 63480, Note_on_c, 2, 77, 76
8, 63589, Note_on_c, 2, 81, 0
8, 63589, Note_on_c, 2, 77, 0
8, 63600, Note_on_c, 2, 77, 64
8, 63600, Note_on_c, 2, 81, 64
8, 63709, Note_on_c, 2, 77, 0
8, 63709, Note_on_c, 2, 81, 0
8, 63720, Note_on_c, 2, 81, 52
8, 63720, Note_on_c, 2, 77, 52
8, 63839, Note_on_c, 2, 81, 0
8, 63839, Note_on_c, 2, 77, 0
8, 66000, Note_on_c, 2, 81, 52
8, 66000, Note_on_c, 2, 77, 52
8, 66089, Note_on_c, 2, 81, 0
8, 66089, Note_on_c, 2, 77, 0
8, 66120, Note_on_c, 2, 79, 52
8, 66120, Note_on_c, 2, 77, 52
8, 66209, Note_on_c, 2, 79, 0
8, 66209, Note_on_c, 2, 77, 0
8, 66240, Note_on_c, 2, 79, 52
8, 66240, Note_on_c, 2, 77, 52
8, 66479, Note_on_c, 2, 79, 0
8, 66479, Note_on_c, 2, 77, 0
8, 66960, Note_on_c, 2, 72, 52
8, 66960, Note_on_c, 2, 79, 52
8, 67199, Note_on_c, 2, 72, 0
8, 67199, Note_on_c, 2, 79, 0
8, 67680, Note_on_c, 2, 77, 52
8, 67680, Note_on_c, 2, 69, 52
8, 67919, Note_on_c, 2, 77, 0
8, 67919, Note_on_c, 2, 69, 0
8, 69720, Note_on_c, 2, 77, 68
8, 69720, Note_on_c, 2, 72, 68
8, 69809, Note_on_c, 2, 77, 0
8, 69820, Note_on_c, 2, 77, 68
8, 69829, Note_on_c, 2, 72, 0
8, 69839, Note_on_c, 2, 77, 0
8, 69840, Note_on_c, 2, 76, 76
8, 69840, Note_on_c, 2, 72, 76
8, 69900, Control_c, 2, 11, 112
8, 69959, Note_on_c, 2, 76, 0
8, 69960, Note_on_c, 2, 74, 76
8, 70079, Note_on_c, 2, 74, 0
8, 70080, Note_on_c, 2, 72, 76
8, 70189, Note_on_c, 2, 72, 0
8, 70189, Note_on_c, 2, 72, 0
8, 70198, Control_c, 2, 11, 127
8, 70200, Note_on_c, 2, 72, 68
8, 70319, Note_on_c, 2, 72, 0
8, 70320, Note_on_c, 2, 72, 60
8, 70320, Note_on_c, 2, 74, 60
8, 70429, Note_on_c, 2, 72, 0
8, 70439, Note_on_c, 2, 74, 0
8, 70440, Note_on_c, 2, 72, 52
8, 70440, Note_on_c, 2, 76, 52
8, 70549, Note_on_c, 2, 72, 0
8, 70549, Note_on_c, 2, 76, 0
8, 70560, Note_on_c, 2, 72, 52
8, 70560, Note_on_c, 2, 77, 52
8, 70799, Note_on_c, 2, 72, 0
8, 70799, Note_on_c, 2, 77, 0
8, 71040, Note_on_c, 2, 81, 52
8, 71149, Note_on_c, 2, 81, 0
8, 71160, Note_on_c, 2, 81, 52
8, 71269, Note_on_c, 2, 81, 0
8, 71280, Note_on_c, 2, 82, 52
8, 71399, Note_on_c, 2, 82, 0
8, 71760, Note_on_c, 2, 82, 52
8, 71760, Note_on_c, 2, 79, 52
8, 71760, Control_c, 2, 11, 127
8, 71800, Control_c, 2, 11, 126
8, 71840, Control_c, 2, 11, 123
8, 71879, Note_on_c, 2, 82, 0
8, 71879, Note_on_c, 2, 79, 0
8, 71880, Control_c, 2, 11, 121
8, 71880, Note_on_c, 2, 70, 52
8, 71880, Note_on_c, 2, 79, 52
8, 71920, Control_c, 2, 11, 118
8, 71960, Control_c, 2, 11, 115
8, 71989, Note_on_c, 2, 70, 0
8, 71989, Note_on_c, 2, 79, 0
8, 72000, Note_on_c, 2, 69, 52
8, 72000, Note_on_c, 2, 77, 52
8, 72000, Control_c, 2, 11, 113
8, 72239, Note_on_c, 2, 69, 0
8, 72239, Note_on_c, 2, 77, 0
8, 72480, Note_on_c, 2, 81, 52
8, 72589, Note_on_c, 2, 81, 0
8, 72600, Note_on_c, 2, 81, 52
8, 72709, Note_on_c, 2, 81, 0
8, 72720, Note_on_c, 2, 82, 52
8, 72839, Note_on_c, 2, 82, 0
8, 73080, Control_c, 2, 11, 127
8, 73140, Control_c, 2, 11, 126
8, 73200, Note_on_c, 2, 82, 52
8, 73200, Note_on_c, 2, 79, 52
8, 73200, Control_c, 2, 11, 123
8, 73260, Control_c, 2, 11, 121
8, 73319, Note_on_c, 2, 82, 0
8, 73319, Note_on_c, 2, 79, 0
8, 73320, Note_on_c, 2, 79, 52
8, 73320, Control_c, 2, 11, 118
8, 73320, Note_on_c, 2, 70, 52
8, 73380, Control_c, 2, 11, 115
8, 73429, Note_on_c, 2, 79, 0
8, 73429, Note_on_c, 2, 70, 0
8, 73440, Control_c, 2, 11, 113
8, 73440, Note_on_c, 2, 69, 52
8, 73440, Note_on_c, 2, 77, 52
8, 73679, Note_on_c, 2, 69, 0
8, 73679, Note_on_c, 2, 77, 0
8, 74040, Control_c, 2, 11, 127
8, 74160, Note_on_c, 2, 72, 51
8, 74160, Note_on_c, 2, 77, 51
8, 74399, Note_on_c, 2, 72, 0
8, 74399, Note_on_c, 2, 77, 0
8, 74880, Note_on_c, 2, 69, 49
8, 74880, Note_on_c, 2, 72, 49
8, 75119, Note_on_c, 2, 69, 0
8, 75119, Note_on_c, 2, 72, 0
8, 75240, Note_on_c, 2, 69, 48
8, 75240, Note_on_c, 2, 72, 48
8, 75479, Note_on_c, 2, 69, 0
8, 75479, Note_on_c, 2, 72, 0
8, 75600, Note_on_c, 2, 72, 47
8, 75600, Note_on_c, 2, 69, 47
8, 75839, Note_on_c, 2, 72, 0
8, 75839, Note_on_c, 2, 69, 0
8, 75960, Note_on_c, 2, 72, 46
8, 75960, Note_on_c, 2, 69, 46
8, 76199, Note_on_c, 2, 72, 0
8, 76199, Note_on_c, 2, 69, 0
8, 76320, Note_on_c, 2, 69, 44
8, 76320, Note_on_c, 2, 72, 44
8, 76559, Note_on_c, 2, 69, 0
8, 76559, Note_on_c, 2, 72, 0
8, 80280, Control_c, 2, 11, 81
8, 80640, Note_on_c, 2, 69, 68
8, 80640, Note_on_c, 2, 78, 68
8, 80640, Control_c, 2, 11, 81
8, 80760, Control_c, 2, 11, 85
8, 80880, Control_c, 2, 11, 89
8, 81000, Control_c, 2, 11, 93
8, 81120, Control_c, 2, 11, 97
8, 81240, Control_c, 2, 11, 101
8, 81359, Note_on_c, 2, 69, 0
8, 81359, Note_on_c, 2, 78, 0
8, 81360, Note_on_c, 2, 72, 68
8, 81360, Control_c, 2, 11, 105
8, 81360, Note_on_c, 2, 81, 68
8, 81480, Control_c, 2, 11, 107
8, 81600, Control_c, 2, 11, 111
8, 81720, Control_c, 2, 11, 115
8, 81840, Control_c, 2, 11, 119
8, 81960, Control_c, 2, 11, 123
8, 82069, Note_on_c, 2, 72, 0
8, 82069, Note_on_c, 2, 81, 0
8, 82080, Control_c, 2, 11, 127
8, 82080, Note_on_c, 2, 71, 52
8, 82080, Note_on_c, 2, 79, 52
8, 82319, Note_on_c, 2, 71, 0
8, 82439, Note_on_c, 2, 79, 0
8, 83280, Note_on_c, 2, 79, 52
8, 83339, Note_on_c, 2, 79, 0
8, 83340, Note_on_c, 2, 81, 52
8, 83399, Note_on_c, 2, 81, 0
8, 83400, Note_on_c, 2, 83, 52
8, 83459, Note_on_c, 2, 83, 0
8, 83460, Note_on_c, 2, 81, 52
8, 83513, Note_on_c, 2, 81, 0
8, 83520, Note_on_c, 2, 81, 52
8, 83639, Note_on_c, 2, 81, 0
8, 83640, Note_on_c, 2, 79, 52
8, 83879, Note_on_c, 2, 79, 0
8, 84720, Note_on_c, 2, 79, 52
8, 84779, Note_on_c, 2, 79, 0
8, 84780, Note_on_c, 2, 81, 52
8, 84839, Note_on_c, 2, 81, 0
8, 84840, Note_on_c, 2, 83, 52
8, 84899, Note_on_c, 2, 83, 0
8, 84900, Note_on_c, 2, 79, 52
8, 84914, Note_on_c, 2, 79, 0
8, 84915, Note_on_c, 2, 78, 52
8, 84929, Note_on_c, 2, 78, 0
8, 84930, Note_on_c, 2, 79, 52
8, 84944, Note_on_c, 2, 79, 0
8, 84945, Note_on_c, 2, 81, 52
8, 84959, Note_on_c, 2, 81, 0
8, 84960, Note_on_c, 2, 79, 52
8, 85079, Note_on_c, 2, 79, 0
8, 85080, Note_on_c, 2, 78, 52
8, 85319, Note_on_c, 2, 78, 0
8, 86160, Note_on_c, 2, 81, 52
8, 86219, Note_on_c, 2, 81, 0
8, 86220, Note_on_c, 2, 83, 52
8, 86279, Note_on_c, 2, 83, 0
8, 86280, Note_on_c, 2, 84, 52
8, 86339, Note_on_c, 2, 84, 0
8, 86340, Note_on_c, 2, 83, 52
8, 86393, Note_on_c, 2, 83, 0
8, 86400, Note_on_c, 2, 83, 52
8, 86519, Note_on_c, 2, 83, 0
8, 86520, Note_on_c, 2, 81, 52
8, 86759, Note_on_c, 2, 81, 0
8, 89280, Note_on_c, 2, 74, 52
8, 89699, Note_on_c, 2, 74, 0
8, 89700, Note_on_c, 2, 67, 52
8, 89759, Note_on_c, 2, 67, 0
8, 89760, Note_on_c, 2, 71, 52
8, 89819, Note_on_c, 2, 71, 0
8, 89820, Note_on_c, 2, 74, 52
8, 89879, Note_on_c, 2, 74, 0
8, 89880, Note_on_c, 2, 79, 52
8, 89939, Note_on_c, 2, 79, 0
8, 89940, Note_on_c, 2, 74, 52
8, 89993, Note_on_c, 2, 74, 0
8, 90000, Note_on_c, 2, 76, 52
8, 90419, Note_on_c, 2, 76, 0
8, 90420, Note_on_c, 2, 67, 52
8, 90479, Note_on_c, 2, 67, 0
8, 90480, Note_on_c, 2, 72, 52
8, 90539, Note_on_c, 2, 72, 0
8, 90540, Note_on_c, 2, 76, 52
8, 90599, Note_on_c, 2, 76, 0
8, 90600, Note_on_c, 2, 79, 52
8, 90659, Note_on_c, 2, 79, 0
8, 90660, Note_on_c, 2, 76, 52
8, 90713, Note_on_c, 2, 76, 0
8, 90720, Note_on_c, 2, 74, 52
8, 90959, Note_on_c, 2, 74, 0
8, 91140, Note_on_c, 2, 79, 52
8, 91199, Note_on_c, 2, 79, 0
8, 91200, Note_on_c, 2, 76, 52
8, 91259, Note_on_c, 2, 76, 0
8, 91260, Note_on_c, 2, 79, 52
8, 91319, Note_on_c, 2, 79, 0
8, 91320, Note_on_c, 2, 81, 52
8, 91379, Note_on_c, 2, 81, 0
8, 91380, Note_on_c, 2, 79, 52
8, 91433, Note_on_c, 2, 79, 0
8, 91440, Note_on_c, 2, 78, 52
8, 91799, Note_on_c, 2, 78, 0
8, 91860, Note_on_c, 2, 74, 52
8, 91919, Note_on_c, 2, 74, 0
8, 91920, Note_on_c, 2, 71, 52
8, 91979, Note_on_c, 2, 71, 0
8, 91980, Note_on_c, 2, 74, 52
8, 92039, Note_on_c, 2, 74, 0
8, 92040, Note_on_c, 2, 79, 52
8, 92099, Note_on_c, 2, 79, 0
8, 92100, Note_on_c, 2, 74, 52
8, 92153, Note_on_c, 2, 74, 0
8, 92160, Note_on_c, 2, 76, 52
8, 92389, Note_on_c, 2, 76, 0
8, 92400, Note_on_c, 2, 81, 52
8, 92459, Note_on_c, 2, 81, 0
8, 92460, Note_on_c, 2, 80, 52
8, 92519, Note_on_c, 2, 80, 0
8, 92520, Note_on_c, 2, 81, 52
8, 92579, Note_on_c, 2, 81, 0
8, 92580, Note_on_c, 2, 80, 52
8, 92639, Note_on_c, 2, 80, 0
8, 92640, Note_on_c, 2, 81, 52
8, 92699, Note_on_c, 2, 81, 0
8, 92700, Note_on_c, 2, 83, 52
8, 92759, Note_on_c, 2, 83, 0
8, 92760, Note_on_c, 2, 84, 52
8, 92819, Note_on_c, 2, 84, 0
8, 92820, Note_on_c, 2, 83, 52
8, 92873, Note_on_c, 2, 83, 0
8, 92880, Note_on_c, 2, 84, 52
8, 92969, Note_on_c, 2, 84, 0
8, 93000, Note_on_c, 2, 83, 52
8, 93089, Note_on_c, 2, 83, 0
8, 93120, Note_on_c, 2, 81, 52
8, 93209, Note_on_c, 2, 81, 0
8, 93240, Note_on_c, 2, 84, 52
8, 93329, Note_on_c, 2, 84, 0
8, 93360, Note_on_c, 2, 81, 52
8, 93449, Note_on_c, 2, 81, 0
8, 93480, Note_on_c, 2, 79, 52
8, 93569, Note_on_c, 2, 79, 0
8, 94320, Note_on_c, 2, 72, 52
8, 94349, Note_on_c, 2, 72, 0
8, 94350, Note_on_c, 2, 74, 52
8, 94379, Note_on_c, 2, 74, 0
8, 94380, Note_on_c, 2, 72, 52
8, 94409, Note_on_c, 2, 72, 0
8, 94410, Note_on_c, 2, 74, 52
8, 94439, Note_on_c, 2, 74, 0
8, 94440, Note_on_c, 2, 72, 52
8, 94469, Note_on_c, 2, 72, 0
8, 94470, Note_on_c, 2, 74, 52
8, 94499, Note_on_c, 2, 74, 0
8, 94500, Note_on_c, 2, 72, 52
8, 94529, Note_on_c, 2, 72, 0
8, 94530, Note_on_c, 2, 74, 52
8, 94559, Note_on_c, 2, 74, 0
8, 94560, Note_on_c, 2, 72, 52
8, 94589, Note_on_c, 2, 72, 0
8, 94590, Note_on_c, 2, 74, 52
8, 94619, Note_on_c, 2, 74, 0
8, 94620, Note_on_c, 2, 72, 52
8, 94649, Note_on_c, 2, 72, 0
8, 94650, Note_on_c, 2, 74, 52
8, 94679, Note_on_c, 2, 74, 0
8, 94680, Note_on_c, 2, 72, 52
8, 94709, Note_on_c, 2, 72, 0
8, 94710, Note_on_c, 2, 74, 52
8, 94739, Note_on_c, 2, 74, 0
8, 94740, Note_on_c, 2, 72, 52
8, 94769, Note_on_c, 2, 72, 0
8, 94770, Note_on_c, 2, 74, 52
8, 94799, Note_on_c, 2, 74, 0
8, 94800, Note_on_c, 2, 72, 52
8, 94829, Note_on_c, 2, 72, 0
8, 94830, Note_on_c, 2, 74, 52
8, 94859, Note_on_c, 2, 74, 0
8, 94860, Note_on_c, 2, 72, 52
8, 94889, Note_on_c, 2, 72, 0
8, 94890, Note_on_c, 2, 74, 52
8, 94919, Note_on_c, 2, 74, 0
8, 94920, Note_on_c, 2, 72, 52
8, 94949, Note_on_c, 2, 72, 0
8, 94950, Note_on_c, 2, 74, 52
8, 94979, Note_on_c, 2, 74, 0
8, 94980, Note_on_c, 2, 71, 52
8, 95009, Note_on_c, 2, 71, 0
8, 95010, Note_on_c, 2, 72, 52
8, 95035, Note_on_c, 2, 72, 0
8, 95040, Note_on_c, 2, 71, 52
8, 95279, Note_on_c, 2, 71, 0
8, 97200, Control_c, 2, 11, 127
8, 97200, Note_on_c, 2, 82, 76
8, 97200, Note_on_c, 2, 70, 76
8, 97260, Control_c, 2, 11, 123
8, 97320, Control_c, 2, 11, 119
8, 97380, Control_c, 2, 11, 115
8, 97440, Control_c, 2, 11, 111
8, 97500, Control_c, 2, 11, 107
8, 97560, Control_c, 2, 11, 105
8, 97620, Control_c, 2, 11, 101
8, 97680, Control_c, 2, 11, 97
8, 97740, Control_c, 2, 11, 93
8, 97789, Note_on_c, 2, 82, 0
8, 97800, Control_c, 2, 11, 89
8, 97800, Note_on_c, 2, 80, 76
8, 97860, Control_c, 2, 11, 85
8, 97909, Note_on_c, 2, 80, 0
8, 97920, Note_on_c, 2, 79, 76
8, 97920, Control_c, 2, 11, 81
8, 98159, Note_on_c, 2, 70, 0
8, 98159, Note_on_c, 2, 79, 0
8, 107160, Control_c, 2, 11, 110
8, 107280, Control_c, 2, 11, 113
8, 107280, Note_on_c, 2, 74, 68
8, 107400, Control_c, 2, 11, 115
8, 107520, Control_c, 2, 11, 118
8, 107639, Note_on_c, 2, 74, 0
8, 107640, Control_c, 2, 11, 119
8, 107640, Note_on_c, 2, 75, 68
8, 107760, Control_c, 2, 11, 123
8, 107880, Control_c, 2, 11, 125
8, 107989, Note_on_c, 2, 75, 0
8, 108000, Control_c, 2, 11, 127
8, 108000, Note_on_c, 2, 72, 52
8, 108239, Note_on_c, 2, 72, 0
8, 109320, Control_c, 2, 11, 81
8, 109440, Note_on_c, 2, 77, 76
8, 109679, Note_on_c, 2, 77, 0
8, 110160, Note_on_c, 2, 77, 76
8, 110280, Control_c, 2, 11, 85
8, 110400, Control_c, 2, 11, 89
8, 110520, Control_c, 2, 11, 93
8, 110640, Control_c, 2, 11, 97
8, 110760, Control_c, 2, 11, 101
8, 110869, Note_on_c, 2, 77, 0
8, 110880, Control_c, 2, 11, 105
8, 110880, Note_on_c, 2, 75, 76
8, 111000, Control_c, 2, 11, 107
8, 111120, Control_c, 2, 11, 111
8, 111240, Control_c, 2, 11, 115
8, 111360, Control_c, 2, 11, 119
8, 111480, Control_c, 2, 11, 123
8, 111589, Note_on_c, 2, 75, 0
8, 111600, Note_on_c, 2, 77, 76
8, 111600, Control_c, 2, 11, 127
8, 111660, Control_c, 2, 11, 123
8, 111720, Control_c, 2, 11, 119
8, 111780, Control_c, 2, 11, 115
8, 111840, Control_c, 2, 11, 111
8, 111900, Control_c, 2, 11, 107
8, 111960, Control_c, 2, 11, 105
8, 112020, Control_c, 2, 11, 101
8, 112080, Control_c, 2, 11, 97
8, 112140, Control_c, 2, 11, 93
8, 112200, Control_c, 2, 11, 89
8, 112260, Control_c, 2, 11, 85
8, 112309, Note_on_c, 2, 77, 0
8, 112320, Control_c, 2, 11, 81
8, 112320, Note_on_c, 2, 78, 76
8, 112559, Note_on_c, 2, 78, 0
8, 119160, Control_c, 2, 11, 65
8, 119520, Note_on_c, 2, 83, 76
8, 119520, Control_c, 2, 11, 65
8, 119640, Control_c, 2, 11, 70
8, 119760, Control_c, 2, 11, 75
8, 119880, Control_c, 2, 11, 81
8, 120000, Control_c, 2, 11, 86
8, 120120, Control_c, 2, 11, 91
8, 120229, Note_on_c, 2, 83, 0
8, 120240, Note_on_c, 2, 84, 76
8, 120240, Control_c, 2, 11, 97
8, 120360, Control_c, 2, 11, 102
8, 120480, Control_c, 2, 11, 107
8, 120600, Control_c, 2, 11, 111
8, 120600, Note_on_c, 2, 79, 76
8, 120720, Control_c, 2, 11, 118
8, 120840, Control_c, 2, 11, 123
8, 120949, Note_on_c, 2, 84, 0
8, 120949, Note_on_c, 2, 79, 0
8, 120960, Control_c, 2, 11, 127
8, 120960, Note_on_c, 2, 84, 76
8, 120960, Note_on_c, 2, 77, 76
8, 121679, Note_on_c, 2, 84, 0
8, 121680, Note_on_c, 2, 86, 76
8, 122029, Note_on_c, 2, 77, 0
8, 122029, Note_on_c, 2, 86, 0
8, 122040, Note_on_c, 2, 76, 76
8, 122040, Note_on_c, 2, 79, 76
8, 122389, Note_on_c, 2, 76, 0
8, 122389, Note_on_c, 2, 79, 0
8, 122400, Control_c, 2, 11, 127
8, 122400, Note_on_c, 2, 75, 76
8, 122400, Note_on_c, 2, 81, 76
8, 122639, Note_on_c, 2, 75, 0
8, 122639, Note_on_c, 2, 81, 0
8, 122640, Control_c, 2, 11, 123
8, 122880, Control_c, 2, 11, 119
8, 123120, Control_c, 2, 11, 115
8, 123120, Note_on_c, 2, 82, 76
8, 123359, Note_on_c, 2, 82, 0
8, 123360, Control_c, 2, 11, 111
8, 123600, Control_c, 2, 11, 107
8, 123840, Control_c, 2, 11, 105
8, 123840, Note_on_c, 2, 81, 76
8, 124079, Note_on_c, 2, 81, 0
8, 124080, Control_c, 2, 11, 101
8, 124320, Control_c, 2, 11, 97
8, 124560, Note_on_c, 2, 79, 76
8, 124560, Control_c, 2, 11, 93
8, 124799, Note_on_c, 2, 79, 0
8, 124800, Control_c, 2, 11, 89
8, 125040, Control_c, 2, 11, 85
8, 125280, Control_c, 2, 11, 127
8, 125640, Note_on_c, 2, 81, 52
8, 125759, Note_on_c, 2, 81, 0
8, 125760, Note_on_c, 2, 77, 52
8, 125879, Note_on_c, 2, 77, 0
8, 125880, Note_on_c, 2, 79, 52
8, 125999, Note_on_c, 2, 79, 0
8, 126360, Note_on_c, 2, 75, 52
8, 126479, Note_on_c, 2, 75, 0
8, 126480, Note_on_c, 2, 72, 52
8, 126599, Note_on_c, 2, 72, 0
8, 126600, Note_on_c, 2, 74, 52
8, 126719, Note_on_c, 2, 74, 0
8, 127080, Note_on_c, 2, 77, 52
8, 127199, Note_on_c, 2, 77, 0
8, 127200, Note_on_c, 2, 74, 52
8, 127319, Note_on_c, 2, 74, 0
8, 127320, Note_on_c, 2, 75, 52
8, 127439, Note_on_c, 2, 75, 0
8, 127800, Note_on_c, 2, 77, 52
8, 127919, Note_on_c, 2, 77, 0
8, 127920, Note_on_c, 2, 79, 52
8, 128039, Note_on_c, 2, 79, 0
8, 128040, Note_on_c, 2, 75, 52
8, 128159, Note_on_c, 2, 75, 0
8, 128160, Control_c, 2, 11, 97
8, 128520, Note_on_c, 2, 72, 68
8, 128639, Note_on_c, 2, 72, 0
8, 128640, Note_on_c, 2, 74, 68
8, 128759, Note_on_c, 2, 74, 0
8, 128760, Note_on_c, 2, 75, 68
8, 128869, Note_on_c, 2, 75, 0
8, 128880, Note_on_c, 2, 74, 68
8, 128880, Note_on_c, 2, 77, 68
8, 128880, Control_c, 2, 11, 97
8, 128940, Control_c, 2, 11, 99
8, 128999, Note_on_c, 2, 74, 0
8, 128999, Note_on_c, 2, 77, 0
8, 129000, Note_on_c, 2, 70, 68
8, 129000, Note_on_c, 2, 74, 68
8, 129000, Control_c, 2, 11, 102
8, 129060, Control_c, 2, 11, 105
8, 129119, Note_on_c, 2, 70, 0
8, 129119, Note_on_c, 2, 74, 0
8, 129120, Note_on_c, 2, 72, 68
8, 129120, Note_on_c, 2, 75, 68
8, 129120, Control_c, 2, 11, 107
8, 129180, Control_c, 2, 11, 110
8, 129239, Note_on_c, 2, 72, 0
8, 129239, Note_on_c, 2, 75, 0
8, 129240, Note_on_c, 2, 72, 68
8, 129240, Control_c, 2, 11, 113
8, 129240, Note_on_c, 2, 69, 68
8, 129300, Control_c, 2, 11, 115
8, 129359, Note_on_c, 2, 72, 0
8, 129359, Note_on_c, 2, 69, 0
8, 129360, Control_c, 2, 11, 118
8, 129360, Note_on_c, 2, 70, 68
8, 129360, Note_on_c, 2, 74, 68
8, 129420, Control_c, 2, 11, 119
8, 129479, Note_on_c, 2, 70, 0
8, 129479, Note_on_c, 2, 74, 0
8, 129480, Control_c, 2, 11, 123
8, 129480, Note_on_c, 2, 72, 68
8, 129480, Note_on_c, 2, 69, 68
8, 129540, Control_c, 2, 11, 125
8, 129589, Note_on_c, 2, 72, 0
8, 129589, Note_on_c, 2, 69, 0
8, 129600, Control_c, 2, 11, 127
8, 129600, Note_on_c, 2, 70, 52
8, 129839, Note_on_c, 2, 70, 0
8, 130320, Note_on_c, 2, 77, 52
8, 130320, Note_on_c, 2, 74, 52
8, 130429, Note_on_c, 2, 77, 0
8, 130429, Note_on_c, 2, 74, 0
8, 130440, Note_on_c, 2, 74, 52
8, 130440, Note_on_c, 2, 77, 52
8, 130549, Note_on_c, 2, 74, 0
8, 130549, Note_on_c, 2, 77, 0
8, 130560, Note_on_c, 2, 77, 52
8, 130560, Note_on_c, 2, 74, 52
8, 130669, Note_on_c, 2, 77, 0
8, 130669, Note_on_c, 2, 74, 0
8, 130680, Note_on_c, 2, 74, 52
8, 130680, Note_on_c, 2, 77, 52
8, 130789, Note_on_c, 2, 74, 0
8, 130789, Note_on_c, 2, 77, 0
8, 130800, Note_on_c, 2, 74, 52
8, 130800, Note_on_c, 2, 77, 52
8, 130909, Note_on_c, 2, 74, 0
8, 130909, Note_on_c, 2, 77, 0
8, 130920, Note_on_c, 2, 74, 52
8, 130920, Note_on_c, 2, 77, 52
8, 131029, Note_on_c, 2, 74, 0
8, 131029, Note_on_c, 2, 77, 0
8, 131040, Note_on_c, 2, 77, 52
8, 131040, Note_on_c, 2, 74, 52
8, 131279, Note_on_c, 2, 77, 0
8, 131279, Note_on_c, 2, 74, 0
8, 131760, Note_on_c, 2, 77, 52
8, 131760, Note_on_c, 2, 74, 52
8, 131869, Note_on_c, 2, 77, 0
8, 131869, Note_on_c, 2, 74, 0
8, 131880, Note_on_c, 2, 74, 52
8, 131880, Note_on_c, 2, 77, 52
8, 131989, Note_on_c, 2, 74, 0
8, 131989, Note_on_c, 2, 77, 0
8, 132000, Note_on_c, 2, 77, 52
8, 132000, Note_on_c, 2, 74, 52
8, 132109, Note_on_c, 2, 77, 0
8, 132109, Note_on_c, 2, 74, 0
8, 132120, Note_on_c, 2, 74, 52
8, 132120, Note_on_c, 2, 77, 52
8, 132229, Note_on_c, 2, 74, 0
8, 132229, Note_on_c, 2, 77, 0
8, 132240, Note_on_c, 2, 74, 52
8, 132240, Note_on_c, 2, 77, 52
8, 132349, Note_on_c, 2, 74, 0
8, 132349, Note_on_c, 2, 77, 0
8, 132360, Note_on_c, 2, 77, 52
8, 132360, Note_on_c, 2, 74, 52
8, 132469, Note_on_c, 2, 77, 0
8, 132469, Note_on_c, 2, 74, 0
8, 132480, Note_on_c, 2, 77, 52
8, 132480, Note_on_c, 2, 75, 52
8, 132719, Note_on_c, 2, 77, 0
8, 132719, Note_on_c, 2, 75, 0
8, 133200, Note_on_c, 2, 75, 52
8, 133200, Note_on_c, 2, 77, 52
8, 133309, Note_on_c, 2, 75, 0
8, 133309, Note_on_c, 2, 77, 0
8, 133320, Note_on_c, 2, 77, 52
8, 133320, Note_on_c, 2, 75, 52
8, 133429, Note_on_c, 2, 77, 0
8, 133429, Note_on_c, 2, 75, 0
8, 133440, Note_on_c, 2, 75, 52
8, 133440, Note_on_c, 2, 77, 52
8, 133549, Note_on_c, 2, 75, 0
8, 133549, Note_on_c, 2, 77, 0
8, 133560, Note_on_c, 2, 77, 52
8, 133560, Note_on_c, 2, 75, 52
8, 133669, Note_on_c, 2, 77, 0
8, 133669, Note_on_c, 2, 75, 0
8, 133680, Note_on_c, 2, 77, 52
8, 133680, Note_on_c, 2, 75, 52
8, 133789, Note_on_c, 2, 77, 0
8, 133789, Note_on_c, 2, 75, 0
8, 133800, Note_on_c, 2, 77, 52
8, 133800, Note_on_c, 2, 75, 52
8, 133909, Note_on_c, 2, 77, 0
8, 133909, Note_on_c, 2, 75, 0
8, 133920, Note_on_c, 2, 77, 52
8, 133920, Note_on_c, 2, 75, 52
8, 134159, Note_on_c, 2, 77, 0
8, 134159, Note_on_c, 2, 75, 0
8, 134640, Note_on_c, 2, 60, 52
8, 134640, Note_on_c, 2, 65, 52
8, 134749, Note_on_c, 2, 60, 0
8, 134749, Note_on_c, 2, 65, 0
8, 134760, Note_on_c, 2, 65, 52
8, 134760, Note_on_c, 2, 60, 52
8, 134869, Note_on_c, 2, 65, 0
8, 134869, Note_on_c, 2, 60, 0
8, 134880, Note_on_c, 2, 60, 52
8, 134880, Note_on_c, 2, 65, 52
8, 134989, Note_on_c, 2, 60, 0
8, 134989, Note_on_c, 2, 65, 0
8, 135000, Note_on_c, 2, 65, 52
8, 135000, Note_on_c, 2, 60, 52
8, 135109, Note_on_c, 2, 65, 0
8, 135109, Note_on_c, 2, 60, 0
8, 135120, Note_on_c, 2, 65, 52
8, 135120, Note_on_c, 2, 60, 52
8, 135229, Note_on_c, 2, 65, 0
8, 135229, Note_on_c, 2, 60, 0
8, 135240, Note_on_c, 2, 65, 52
8, 135240, Note_on_c, 2, 60, 52
8, 135349, Note_on_c, 2, 65, 0
8, 135349, Note_on_c, 2, 60, 0
8, 135360, Note_on_c, 2, 77, 52
8, 135360, Note_on_c, 2, 70, 52
8, 135479, Note_on_c, 2, 77, 0
8, 135479, Note_on_c, 2, 70, 0
8, 135480, Note_on_c, 2, 70, 54
8, 135480, Note_on_c, 2, 77, 54
8, 135599, Note_on_c, 2, 70, 0
8, 135599, Note_on_c, 2, 77, 0
8, 135600, Note_on_c, 2, 70, 56
8, 135600, Note_on_c, 2, 77, 56
8, 135719, Note_on_c, 2, 70, 0
8, 135719, Note_on_c, 2, 77, 0
8, 135720, Note_on_c, 2, 77, 58
8, 135720, Note_on_c, 2, 70, 58
8, 135839, Note_on_c, 2, 77, 0
8, 135839, Note_on_c, 2, 70, 0
8, 135840, Note_on_c, 2, 77, 60
8, 135840, Note_on_c, 2, 70, 60
8, 135959, Note_on_c, 2, 77, 0
8, 135959, Note_on_c, 2, 70, 0
8, 135960, Note_on_c, 2, 77, 62
8, 135960, Note_on_c, 2, 70, 62
8, 136079, Note_on_c, 2, 77, 0
8, 136079, Note_on_c, 2, 70, 0
8, 136080, Note_on_c, 2, 70, 64
8, 136080, Note_on_c, 2, 79, 64
8, 136199, Note_on_c, 2, 70, 0
8, 136199, Note_on_c, 2, 79, 0
8, 136200, Note_on_c, 2, 79, 66
8, 136200, Note_on_c, 2, 70, 66
8, 136319, Note_on_c, 2, 79, 0
8, 136319, Note_on_c, 2, 70, 0
8, 136320, Note_on_c, 2, 79, 68
8, 136320, Note_on_c, 2, 70, 68
8, 136439, Note_on_c, 2, 79, 0
8, 136439, Note_on_c, 2, 70, 0
8, 136440, Note_on_c, 2, 79, 70
8, 136440, Note_on_c, 2, 70, 70
8, 136559, Note_on_c, 2, 79, 0
8, 136559, Note_on_c, 2, 70, 0
8, 136560, Note_on_c, 2, 70, 72
8, 136560, Note_on_c, 2, 79, 72
8, 136679, Note_on_c, 2, 70, 0
8, 136679, Note_on_c, 2, 79, 0
8, 136680, Note_on_c, 2, 79, 74
8, 136680, Note_on_c, 2, 70, 74
8, 136799, Note_on_c, 2, 79, 0
8, 136799, Note_on_c, 2, 70, 0
8, 136800, Note_on_c, 2, 70, 76
8, 136800, Note_on_c, 2, 74, 76
8, 136909, Note_on_c, 2, 70, 0
8, 136909, Note_on_c, 2, 74, 0
8, 136920, Note_on_c, 2, 74, 52
8, 136920, Note_on_c, 2, 77, 52
8, 137029, Note_on_c, 2, 74, 0
8, 137029, Note_on_c, 2, 77, 0
8, 137040, Note_on_c, 2, 74, 52
8, 137040, Note_on_c, 2, 77, 52
8, 137149, Note_on_c, 2, 74, 0
8, 137149, Note_on_c, 2, 77, 0
8, 137160, Note_on_c, 2, 77, 52
8, 137160, Note_on_c, 2, 74, 52
8, 137269, Note_on_c, 2, 77, 0
8, 137269, Note_on_c, 2, 74, 0
8, 137280, Note_on_c, 2, 74, 52
8, 137280, Note_on_c, 2, 77, 52
8, 137389, Note_on_c, 2, 74, 0
8, 137389, Note_on_c, 2, 77, 0
8, 137400, Note_on_c, 2, 77, 52
8, 137400, Note_on_c, 2, 74, 52
8, 137509, Note_on_c, 2, 77, 0
8, 137509, Note_on_c, 2, 74, 0
8, 137520, Note_on_c, 2, 77, 52
8, 137520, Note_on_c, 2, 74, 52
8, 137629, Note_on_c, 2, 77, 0
8, 137629, Note_on_c, 2, 74, 0
8, 137640, Note_on_c, 2, 74, 60
8, 137640, Note_on_c, 2, 77, 60
8, 137749, Note_on_c, 2, 74, 0
8, 137749, Note_on_c, 2, 77, 0
8, 137760, Note_on_c, 2, 77, 68
8, 137760, Note_on_c, 2, 74, 68
8, 137869, Note_on_c, 2, 77, 0
8, 137869, Note_on_c, 2, 74, 0
8, 137880, Note_on_c, 2, 77, 76
8, 137880, Note_on_c, 2, 75, 76
8, 137989, Note_on_c, 2, 77, 0
8, 137989, Note_on_c, 2, 75, 0
8, 138000, Note_on_c, 2, 75, 68
8, 138000, Note_on_c, 2, 77, 68
8, 138109, Note_on_c, 2, 75, 0
8, 138109, Note_on_c, 2, 77, 0
8, 138120, Note_on_c, 2, 77, 60
8, 138120, Note_on_c, 2, 75, 60
8, 138229, Note_on_c, 2, 77, 0
8, 138229, Note_on_c, 2, 75, 0
8, 138240, Note_on_c, 2, 74, 52
8, 138240, Note_on_c, 2, 70, 52
8, 138479, Note_on_c, 2, 74, 0
8, 138479, Note_on_c, 2, 70, 0
8, 138910, Control_c, 2, 11, 101
8, 138960, Note_on_c, 2, 70, 76
8, 138960, Note_on_c, 2, 74, 76
8, 139020, Control_c, 2, 11, 105
8, 139130, Control_c, 2, 11, 107
8, 139199, Note_on_c, 2, 70, 0
8, 139199, Note_on_c, 2, 74, 0
8, 139240, Control_c, 2, 11, 111
8, 139350, Control_c, 2, 11, 115
8, 139460, Control_c, 2, 11, 119
8, 139570, Control_c, 2, 11, 123
8, 139680, Control_c, 2, 11, 127
8, 139800, Note_on_c, 2, 76, 76
8, 139800, Note_on_c, 2, 79, 76
8, 139909, Note_on_c, 2, 76, 0
8, 139909, Note_on_c, 2, 79, 0
8, 139920, Note_on_c, 2, 79, 76
8, 139920, Note_on_c, 2, 76, 76
8, 140039, Note_on_c, 2, 79, 0
8, 140039, Note_on_c, 2, 76, 0
8, 140040, Note_on_c, 2, 77, 76
8, 140040, Note_on_c, 2, 81, 76
8, 140159, Note_on_c, 2, 77, 0
8, 140159, Note_on_c, 2, 81, 0
8, 140160, Note_on_c, 2, 79, 76
8, 140160, Note_on_c, 2, 76, 76
8, 140269, Note_on_c, 2, 79, 0
8, 140269, Note_on_c, 2, 76, 0
8, 140280, Note_on_c, 2, 76, 76
8, 140280, Note_on_c, 2, 79, 76
8, 140399, Note_on_c, 2, 76, 0
8, 140399, Note_on_c, 2, 79, 0
8, 140400, Note_on_c, 2, 74, 76
8, 140400, Note_on_c, 2, 77, 76
8, 140519, Note_on_c, 2, 74, 0
8, 140519, Note_on_c, 2, 77, 0
8, 140520, Note_on_c, 2, 72, 76
8, 140520, Note_on_c, 2, 76, 76
8, 140629, Note_on_c, 2, 72, 0
8, 140629, Note_on_c, 2, 76, 0
8, 140640, Note_on_c, 2, 76, 76
8, 140640, Note_on_c, 2, 72, 76
8, 140759, Note_on_c, 2, 76, 0
8, 140759, Note_on_c, 2, 72, 0
8, 140760, Note_on_c, 2, 70, 70
8, 140760, Note_on_c, 2, 74, 70
8, 140879, Note_on_c, 2, 70, 0
8, 140879, Note_on_c, 2, 74, 0
8, 140880, Note_on_c, 2, 72, 64
8, 140880, Note_on_c, 2, 69, 64
8, 140999, Note_on_c, 2, 72, 0
8, 140999, Note_on_c, 2, 69, 0
8, 141000, Note_on_c, 2, 70, 58
8, 141000, Note_on_c, 2, 67, 58
8, 141109, Note_on_c, 2, 70, 0
8, 141109, Note_on_c, 2, 67, 0
8, 141120, Note_on_c, 2, 69, 52
8, 141120, Note_on_c, 2, 65, 52
8, 141229, Note_on_c, 2, 69, 0
8, 141229, Note_on_c, 2, 65, 0
8, 141240, Note_on_c, 2, 72, 52
8, 141240, Note_on_c, 2, 69, 52
8, 141349, Note_on_c, 2, 72, 0
8, 141349, Note_on_c, 2, 69, 0
8, 141360, Note_on_c, 2, 69, 52
8, 141360, Note_on_c, 2, 72, 52
8, 141469, Note_on_c, 2, 69, 0
8, 141469, Note_on_c, 2, 72, 0
8, 141480, Note_on_c, 2, 69, 52
8, 141480, Note_on_c, 2, 72, 52
8, 141719, Note_on_c, 2, 69, 0
8, 141719, Note_on_c, 2, 72, 0
8, 141960, Note_on_c, 2, 70, 52
8, 141960, Note_on_c, 2, 74, 52
8, 142069, Note_on_c, 2, 70, 0
8, 142069, Note_on_c, 2, 74, 0
8, 142080, Note_on_c, 2, 74, 52
8, 142080, Note_on_c, 2, 70, 52
8, 142189, Note_on_c, 2, 74, 0
8, 142189, Note_on_c, 2, 70, 0
8, 142200, Note_on_c, 2, 74, 52
8, 142200, Note_on_c, 2, 70, 52
8, 142439, Note_on_c, 2, 74, 0
8, 142439, Note_on_c, 2, 70, 0
8, 142680, Note_on_c, 2, 69, 52
8, 142680, Note_on_c, 2, 75, 52
8, 142789, Note_on_c, 2, 69, 0
8, 142789, Note_on_c, 2, 75, 0
8, 142800, Note_on_c, 2, 75, 52
8, 142800, Note_on_c, 2, 69, 52
8, 142909, Note_on_c, 2, 75, 0
8, 142909, Note_on_c, 2, 69, 0
8, 142920, Note_on_c, 2, 69, 52
8, 142920, Note_on_c, 2, 75, 52
8, 143159, Note_on_c, 2, 69, 0
8, 143159, Note_on_c, 2, 75, 0
8, 143400, Note_on_c, 2, 70, 52
8, 143400, Note_on_c, 2, 74, 52
8, 143509, Note_on_c, 2, 70, 0
8, 143509, Note_on_c, 2, 74, 0
8, 143520, Note_on_c, 2, 74, 52
8, 143520, Note_on_c, 2, 70, 52
8, 143629, Note_on_c, 2, 74, 0
8, 143629, Note_on_c, 2, 70, 0
8, 143640, Note_on_c, 2, 74, 52
8, 143640, Note_on_c, 2, 70, 52
8, 143879, Note_on_c, 2, 74, 0
8, 143879, Note_on_c, 2, 70, 0
8, 143998, Control_c, 2, 11, 96
8, 144000, Note_on_c, 2, 69, 68
8, 144000, Note_on_c, 2, 77, 68
8, 144000, Control_c, 2, 11, 97
8, 144060, Control_c, 2, 11, 99
8, 144120, Control_c, 2, 11, 102
8, 144180, Control_c, 2, 11, 105
8, 144240, Control_c, 2, 11, 107
8, 144300, Control_c, 2, 11, 110
8, 144360, Control_c, 2, 11, 113
8, 144420, Control_c, 2, 11, 115
8, 144480, Control_c, 2, 11, 118
8, 144540, Control_c, 2, 11, 119
8, 144600, Control_c, 2, 11, 123
8, 144660, Control_c, 2, 11, 125
8, 144709, Note_on_c, 2, 69, 0
8, 144709, Note_on_c, 2, 77, 0
8, 144720, Note_on_c, 2, 75, 68
8, 144720, Note_on_c, 2, 72, 68
8, 144720, Control_c, 2, 11, 127
8, 144780, Control_c, 2, 11, 125
8, 144840, Control_c, 2, 11, 123
8, 144900, Control_c, 2, 11, 119
8, 144960, Control_c, 2, 11, 118
8, 145020, Control_c, 2, 11, 115
8, 145080, Control_c, 2, 11, 113
8, 145140, Control_c, 2, 11, 110
8, 145200, Control_c, 2, 11, 107
8, 145260, Control_c, 2, 11, 105
8, 145320, Control_c, 2, 11, 102
8, 145380, Control_c, 2, 11, 99
8, 145429, Note_on_c, 2, 75, 0
8, 145429, Note_on_c, 2, 72, 0
8, 145440, Note_on_c, 2, 74, 68
8, 145440, Note_on_c, 2, 70, 68
8, 145440, Control_c, 2, 11, 89
8, 145559, Note_on_c, 2, 74, 0
8, 145559, Note_on_c, 2, 70, 0
8, 145560, Note_on_c, 2, 70, 68
8, 145679, Note_on_c, 2, 70, 0
8, 145680, Note_on_c, 2, 69, 68
8, 145789, Note_on_c, 2, 69, 0
8, 145800, Note_on_c, 2, 67, 68
8, 145899, Note_on_c, 2, 67, 0
8, 145920, Note_on_c, 2, 75, 68
8, 146019, Note_on_c, 2, 75, 0
8, 146040, Note_on_c, 2, 79, 68
8, 146129, Note_on_c, 2, 79, 0
8, 146160, Note_on_c, 2, 70, 68
8, 146519, Note_on_c, 2, 70, 0
8, 146520, Note_on_c, 2, 74, 68
8, 146759, Note_on_c, 2, 74, 0
8, 146760, Note_on_c, 2, 72, 68
8, 146869, Note_on_c, 2, 72, 0
8, 146880, Control_c, 2, 11, 97
8, 146880, Note_on_c, 2, 77, 68
8, 146880, Note_on_c, 2, 69, 68
8, 146940, Control_c, 2, 11, 99
8, 147000, Control_c, 2, 11, 102
8, 147060, Control_c, 2, 11, 105
8, 147120, Control_c, 2, 11, 107
8, 147180, Control_c, 2, 11, 110
8, 147240, Control_c, 2, 11, 113
8, 147300, Control_c, 2, 11, 115
8, 147360, Control_c, 2, 11, 118
8, 147420, Control_c, 2, 11, 119
8, 147480, Control_c, 2, 11, 123
8, 147540, Control_c, 2, 11, 125
8, 147589, Note_on_c, 2, 77, 0
8, 147589, Note_on_c, 2, 69, 0
8, 147600, Control_c, 2, 11, 127
8, 147600, Note_on_c, 2, 69, 68
8, 147600, Note_on_c, 2, 77, 68
8, 147660, Control_c, 2, 11, 125
8, 147720, Control_c, 2, 11, 123
8, 147780, Control_c, 2, 11, 119
8, 147840, Control_c, 2, 11, 118
8, 147900, Control_c, 2, 11, 115
8, 147960, Control_c, 2, 11, 113
8, 148020, Control_c, 2, 11, 110
8, 148080, Control_c, 2, 11, 107
8, 148140, Control_c, 2, 11, 105
8, 148200, Control_c, 2, 11, 102
8, 148260, Control_c, 2, 11, 99
8, 148309, Note_on_c, 2, 69, 0
8, 148309, Note_on_c, 2, 77, 0
8, 148320, Control_c, 2, 11, 97
8, 148320, Note_on_c, 2, 77, 68
8, 148320, Note_on_c, 2, 70, 68
8, 148559, Note_on_c, 2, 77, 0
8, 148559, Note_on_c, 2, 70, 0
8, 148678, Control_c, 2, 11, 127
8, 148680, Note_on_c, 2, 70, 52
8, 148680, Note_on_c, 2, 79, 52
8, 148919, Note_on_c, 2, 70, 0
8, 148919, Note_on_c, 2, 79, 0
8, 149040, Note_on_c, 2, 74, 52
8, 149040, Note_on_c, 2, 70, 52
8, 149279, Note_on_c, 2, 74, 0
8, 149279, Note_on_c, 2, 70, 0
8, 149400, Note_on_c, 2, 72, 52
8, 149400, Note_on_c, 2, 69, 52
8, 149639, Note_on_c, 2, 72, 0
8, 149639, Note_on_c, 2, 69, 0
8, 149760, Note_on_c, 2, 69, 52
8, 149760, Note_on_c, 2, 74, 52
8, 149999, Note_on_c, 2, 69, 0
8, 149999, Note_on_c, 2, 74, 0
8, 154980, Control_c, 2, 11, 93
8, 155160, Note_on_c, 2, 77, 76
8, 155160, Control_c, 2, 11, 97
8, 155340, Control_c, 2, 11, 101
8, 155399, Note_on_c, 2, 77, 0
8, 155400, Note_on_c, 2, 72, 76
8, 155509, Note_on_c, 2, 72, 0
8, 155520, Note_on_c, 2, 74, 76
8, 155520, Control_c, 2, 11, 105
8, 155700, Control_c, 2, 11, 107
8, 155759, Note_on_c, 2, 74, 0
8, 155760, Note_on_c, 2, 70, 76
8, 155879, Note_on_c, 2, 70, 0
8, 155880, Note_on_c, 2, 65, 76
8, 155880, Control_c, 2, 11, 111
8, 155880, Note_on_c, 2, 77, 76
8, 156060, Control_c, 2, 11, 115
8, 156119, Note_on_c, 2, 65, 0
8, 156119, Note_on_c, 2, 77, 0
8, 156120, Note_on_c, 2, 72, 76
8, 156120, Note_on_c, 2, 69, 76
8, 156239, Note_on_c, 2, 72, 0
8, 156239, Note_on_c, 2, 69, 0
8, 156240, Note_on_c, 2, 74, 76
8, 156240, Note_on_c, 2, 70, 76
8, 156240, Control_c, 2, 11, 119
8, 156420, Control_c, 2, 11, 123
8, 156479, Note_on_c, 2, 74, 0
8, 156479, Note_on_c, 2, 70, 0
8, 156480, Note_on_c, 2, 74, 76
8, 156480, Note_on_c, 2, 70, 76
8, 156589, Note_on_c, 2, 74, 0
8, 156589, Note_on_c, 2, 70, 0
8, 156600, Note_on_c, 2, 69, 76
8, 156600, Note_on_c, 2, 77, 76
8, 156600, Control_c, 2, 11, 127
8, 156829, Note_on_c, 2, 69, 0
8, 156839, Note_on_c, 2, 77, 0
8, 156840, Note_on_c, 2, 69, 76
8, 156840, Note_on_c, 2, 72, 76
8, 156949, Note_on_c, 2, 69, 0
8, 156949, Note_on_c, 2, 72, 0
8, 156960, Note_on_c, 2, 74, 76
8, 156960, Note_on_c, 2, 70, 76
8, 157669, Note_on_c, 2, 74, 0
8, 157669, Note_on_c, 2, 70, 0
8, 157680, Note_on_c, 2, 82, 76
8, 157680, Note_on_c, 2, 74, 76
8, 158389, Note_on_c, 2, 82, 0
8, 158389, Note_on_c, 2, 74, 0
8, 158400, Note_on_c, 2, 82, 76
8, 158400, Note_on_c, 2, 74, 76
8, 158639, Note_on_c, 2, 82, 0
8, 158639, Note_on_c, 2, 74, 0
8, 159480, Control_c, 2, 11, 81
8, 159840, Note_on_c, 2, 75, 76
8, 159840, Note_on_c, 2, 72, 76
8, 160079, Note_on_c, 2, 75, 0
8, 160079, Note_on_c, 2, 72, 0
8, 160560, Note_on_c, 2, 69, 76
8, 160560, Note_on_c, 2, 72, 76
8, 160560, Control_c, 2, 11, 81
8, 160620, Control_c, 2, 11, 79
8, 160680, Control_c, 2, 11, 78
8, 160740, Control_c, 2, 11, 77
8, 160799, Note_on_c, 2, 69, 0
8, 160799, Note_on_c, 2, 72, 0
8, 160800, Control_c, 2, 11, 75
8, 161220, Control_c, 2, 11, 65
8, 161280, Note_on_c, 2, 74, 76
8, 161759, Note_on_c, 2, 74, 0
8, 161760, Note_on_c, 2, 72, 76
8, 161879, Note_on_c, 2, 72, 0
8, 161880, Note_on_c, 2, 74, 76
8, 161969, Note_on_c, 2, 74, 0
8, 161980, Note_on_c, 2, 77, 76
8, 161999, Note_on_c, 2, 77, 0
8, 162000, Note_on_c, 2, 76, 76
8, 162119, Note_on_c, 2, 76, 0
8, 162120, Note_on_c, 2, 74, 76
8, 162239, Note_on_c, 2, 74, 0
8, 162240, Note_on_c, 2, 76, 76
8, 162359, Note_on_c, 2, 76, 0
8, 162360, Note_on_c, 2, 77, 76
8, 162599, Note_on_c, 2, 77, 0
8, 162600, Note_on_c, 2, 72, 76
8, 162709, Note_on_c, 2, 72, 0
8, 162720, Note_on_c, 2, 74, 76
8, 163199, Note_on_c, 2, 74, 0
8, 163200, Note_on_c, 2, 72, 76
8, 163319, Note_on_c, 2, 72, 0
8, 163320, Note_on_c, 2, 74, 76
8, 163409, Note_on_c, 2, 74, 0
8, 163420, Note_on_c, 2, 77, 76
8, 163439, Note_on_c, 2, 77, 0
8, 163440, Note_on_c, 2, 76, 76
8, 163559, Note_on_c, 2, 76, 0
8, 163560, Note_on_c, 2, 74, 76
8, 163679, Note_on_c, 2, 74, 0
8, 163680, Note_on_c, 2, 76, 76
8, 163789, Note_on_c, 2, 76, 0
8, 163800, Note_on_c, 2, 77, 76
8, 163800, Control_c, 2, 11, 65
8, 163920, Control_c, 2, 11, 70
8, 164039, Note_on_c, 2, 77, 0
8, 164040, Note_on_c, 2, 72, 76
8, 164040, Control_c, 2, 11, 75
8, 164159, Note_on_c, 2, 72, 0
8, 164160, Note_on_c, 2, 74, 76
8, 164160, Control_c, 2, 11, 81
8, 164280, Control_c, 2, 11, 86
8, 164399, Note_on_c, 2, 74, 0
8, 164400, Control_c, 2, 11, 91
8, 164400, Note_on_c, 2, 70, 76
8, 164519, Note_on_c, 2, 70, 0
8, 164520, Note_on_c, 2, 65, 76
8, 164520, Control_c, 2, 11, 97
8, 164640, Control_c, 2, 11, 102
8, 164759, Note_on_c, 2, 65, 0
8, 164760, Note_on_c, 2, 69, 76
8, 164760, Control_c, 2, 11, 107
8, 164879, Note_on_c, 2, 69, 0
8, 164880, Control_c, 2, 11, 111
8, 164880, Note_on_c, 2, 70, 76
8, 165000, Control_c, 2, 11, 118
8, 165119, Note_on_c, 2, 70, 0
8, 165120, Control_c, 2, 11, 123
8, 165120, Note_on_c, 2, 74, 76
8, 165239, Note_on_c, 2, 74, 0
8, 165240, Note_on_c, 2, 77, 76
8, 165240, Note_on_c, 2, 69, 76
8, 165240, Control_c, 2, 11, 127
8, 165469, Note_on_c, 2, 69, 0
8, 165479, Note_on_c, 2, 77, 0
8, 165480, Note_on_c, 2, 72, 76
8, 165480, Note_on_c, 2, 69, 76
8, 165589, Note_on_c, 2, 72, 0
8, 165589, Note_on_c, 2, 69, 0
8, 165600, Note_on_c, 2, 74, 76
8, 165600, Note_on_c, 2, 70, 76
8, 166309, Note_on_c, 2, 74, 0
8, 166309, Note_on_c, 2, 70, 0
8, 166320, Note_on_c, 2, 74, 76
8, 166320, Note_on_c, 2, 82, 76
8, 167029, Note_on_c, 2, 74, 0
8, 167029, Note_on_c, 2, 82, 0
8, 167040, Note_on_c, 2, 74, 84
8, 167040, Note_on_c, 2, 82, 84
8, 167100, Control_c, 2, 11, 112
8, 167123, Control_c, 2, 11, 109
8, 167147, Control_c, 2, 11, 107
8, 167170, Control_c, 2, 11, 104
8, 167193, Control_c, 2, 11, 101
8, 167217, Control_c, 2, 11, 99
8, 167240, Control_c, 2, 11, 96
8, 167263, Control_c, 2, 11, 93
8, 167287, Control_c, 2, 11, 91
8, 167310, Control_c, 2, 11, 88
8, 167333, Control_c, 2, 11, 85
8, 167357, Control_c, 2, 11, 83
8, 167380, Control_c, 2, 11, 80
8, 167403, Control_c, 2, 11, 77
8, 167427, Control_c, 2, 11, 75
8, 167450, Control_c, 2, 11, 72
8, 167473, Control_c, 2, 11, 69
8, 167497, Control_c, 2, 11, 67
8, 167519, Note_on_c, 2, 74, 0
8, 167519, Note_on_c, 2, 82, 0
8, 167520, Control_c, 2, 11, 64
8, 169680, Control_c, 2, 11, 127
8, 169800, Note_on_c, 2, 79, 52
8, 169800, Note_on_c, 2, 70, 52
8, 169909, Note_on_c, 2, 79, 0
8, 169909, Note_on_c, 2, 70, 0
8, 169920, Note_on_c, 2, 70, 52
8, 169920, Note_on_c, 2, 75, 52
8, 170159, Note_on_c, 2, 70, 0
8, 170159, Note_on_c, 2, 75, 0
8, 170640, Note_on_c, 2, 69, 52
8, 170640, Note_on_c, 2, 75, 52
8, 170879, Note_on_c, 2, 69, 0
8, 170879, Note_on_c, 2, 75, 0
8, 171360, Note_on_c, 2, 74, 52
8, 171360, Note_on_c, 2, 65, 52
8, 171599, Note_on_c, 2, 74, 0
8, 171599, Note_on_c, 2, 65, 0
8, 173400, Note_on_c, 2, 82, 76
8, 173489, Note_on_c, 2, 82, 0
8, 173500, Note_on_c, 2, 82, 76
8, 173519, Note_on_c, 2, 82, 0
8, 173520, Note_on_c, 2, 81, 84
8, 173639, Note_on_c, 2, 81, 0
8, 173640, Note_on_c, 2, 79, 76
8, 173759, Note_on_c, 2, 79, 0
8, 173760, Note_on_c, 2, 77, 76
8, 173869, Note_on_c, 2, 77, 0
8, 173880, Note_on_c, 2, 77, 76
8, 173880, Control_c, 2, 11, 127
8, 173910, Control_c, 2, 11, 123
8, 173940, Control_c, 2, 11, 119
8, 173970, Control_c, 2, 11, 115
8, 173999, Note_on_c, 2, 77, 0
8, 174000, Control_c, 2, 11, 111
8, 174000, Note_on_c, 2, 70, 76
8, 174000, Note_on_c, 2, 79, 76
8, 174030, Control_c, 2, 11, 107
8, 174060, Control_c, 2, 11, 105
8, 174090, Control_c, 2, 11, 101
8, 174119, Note_on_c, 2, 70, 0
8, 174119, Note_on_c, 2, 79, 0
8, 174120, Control_c, 2, 11, 97
8, 174120, Note_on_c, 2, 72, 76
8, 174120, Note_on_c, 2, 81, 76
8, 174150, Control_c, 2, 11, 93
8, 174180, Control_c, 2, 11, 89
8, 174210, Control_c, 2, 11, 85
8, 174229, Note_on_c, 2, 72, 0
8, 174229, Note_on_c, 2, 81, 0
8, 174238, Control_c, 2, 11, 81
8, 174240, Note_on_c, 2, 82, 76
8, 174240, Note_on_c, 2, 74, 76
8, 174359, Note_on_c, 2, 82, 0
8, 174359, Note_on_c, 2, 74, 0
8, 174960, Control_c, 2, 11, 127
8, 175080, Note_on_c, 2, 76, 52
8, 175199, Note_on_c, 2, 76, 0
8, 175200, Note_on_c, 2, 77, 52
8, 175309, Note_on_c, 2, 77, 0
8, 175320, Control_c, 2, 11, 127
8, 175320, Note_on_c, 2, 77, 52
8, 175350, Control_c, 2, 11, 127
8, 175380, Control_c, 2, 11, 126
8, 175410, Control_c, 2, 11, 123
8, 175439, Note_on_c, 2, 77, 0
8, 175440, Note_on_c, 2, 75, 52
8, 175440, Control_c, 2, 11, 123
8, 175470, Control_c, 2, 11, 122
8, 175500, Control_c, 2, 11, 121
8, 175530, Control_c, 2, 11, 119
8, 175559, Note_on_c, 2, 75, 0
8, 175560, Note_on_c, 2, 72, 52
8, 175560, Control_c, 2, 11, 118
8, 175590, Control_c, 2, 11, 117
8, 175620, Control_c, 2, 11, 115
8, 175650, Control_c, 2, 11, 113
8, 175669, Note_on_c, 2, 72, 0
8, 175680, Note_on_c, 2, 74, 52
8, 175919, Note_on_c, 2, 74, 0
8, 176400, Control_c, 2, 11, 97
8, 176520, Note_on_c, 2, 76, 68
8, 176639, Note_on_c, 2, 76, 0
8, 176640, Note_on_c, 2, 77, 68
8, 176749, Note_on_c, 2, 77, 0
8, 176760, Control_c, 2, 11, 97
8, 176760, Note_on_c, 2, 77, 68
8, 176790, Control_c, 2, 11, 95
8, 176820, Control_c, 2, 11, 94
8, 176850, Control_c, 2, 11, 93
8, 176879, Note_on_c, 2, 77, 0
8, 176880, Note_on_c, 2, 75, 68
8, 176880, Control_c, 2, 11, 91
8, 176910, Control_c, 2, 11, 90
8, 176940, Control_c, 2, 11, 89
8, 176970, Control_c, 2, 11, 87
8, 176999, Note_on_c, 2, 75, 0
8, 177000, Note_on_c, 2, 72, 68
8, 177000, Control_c, 2, 11, 86
8, 177030, Control_c, 2, 11, 85
8, 177060, Control_c, 2, 11, 83
8, 177090, Control_c, 2, 11, 81
8, 177109, Note_on_c, 2, 72, 0
8, 177120, Note_on_c, 2, 70, 68
8, 178559, Note_on_c, 2, 70, 0
8, 178560, Note_on_c, 2, 70, 68
8, 178560, Control_c, 2, 11, 81
8, 178680, Control_c, 2, 11, 85
8, 178800, Control_c, 2, 11, 89
8, 178920, Control_c, 2, 11, 93
8, 179040, Control_c, 2, 11, 97
8, 179160, Control_c, 2, 11, 101
8, 179280, Control_c, 2, 11, 105
8, 179400, Control_c, 2, 11, 107
8, 179520, Control_c, 2, 11, 111
8, 179640, Control_c, 2, 11, 115
8, 179760, Control_c, 2, 11, 119
8, 179880, Control_c, 2, 11, 123
8, 179989, Note_on_c, 2, 70, 0
8, 180000, Note_on_c, 2, 70, 68
8, 180000, Note_on_c, 2, 79, 68
8, 180000, Control_c, 2, 11, 127
8, 180120, Control_c, 2, 11, 123
8, 180240, Control_c, 2, 11, 119
8, 180360, Control_c, 2, 11, 115
8, 180480, Control_c, 2, 11, 111
8, 180600, Control_c, 2, 11, 107
8, 180720, Control_c, 2, 11, 105
8, 180840, Control_c, 2, 11, 101
8, 180960, Control_c, 2, 11, 97
8, 181080, Control_c, 2, 11, 93
8, 181200, Control_c, 2, 11, 89
8, 181319, Note_on_c, 2, 79, 0
8, 181320, Note_on_c, 2, 75, 68
8, 181320, Control_c, 2, 11, 85
8, 181429, Note_on_c, 2, 70, 0
8, 181429, Note_on_c, 2, 75, 0
8, 181440, Note_on_c, 2, 70, 68
8, 181440, Control_c, 2, 11, 81
8, 181440, Note_on_c, 2, 74, 68
8, 181559, Note_on_c, 2, 74, 0
8, 181560, Control_c, 2, 11, 85
8, 181680, Control_c, 2, 11, 89
8, 181800, Control_c, 2, 11, 93
8, 181920, Control_c, 2, 11, 97
8, 182040, Control_c, 2, 11, 101
8, 182160, Control_c, 2, 11, 105
8, 182280, Control_c, 2, 11, 107
8, 182400, Control_c, 2, 11, 111
8, 182520, Control_c, 2, 11, 115
8, 182640, Control_c, 2, 11, 119
8, 182760, Control_c, 2, 11, 123
8, 182869, Note_on_c, 2, 70, 0
8, 182880, Note_on_c, 2, 79, 68
8, 182880, Note_on_c, 2, 70, 68
8, 182880, Control_c, 2, 11, 127
8, 183000, Control_c, 2, 11, 123
8, 183120, Control_c, 2, 11, 119
8, 183240, Control_c, 2, 11, 115
8, 183360, Control_c, 2, 11, 111
8, 183480, Control_c, 2, 11, 107
8, 183600, Control_c, 2, 11, 105
8, 183720, Control_c, 2, 11, 101
8, 183840, Control_c, 2, 11, 97
8, 183960, Control_c, 2, 11, 93
8, 184080, Control_c, 2, 11, 89
8, 184199, Note_on_c, 2, 79, 0
8, 184200, Note_on_c, 2, 75, 68
8, 184309, Note_on_c, 2, 70, 0
8, 184309, Note_on_c, 2, 75, 0
8, 184318, Control_c, 2, 11, 81
8, 184320, Note_on_c, 2, 70, 68
8, 184320, Note_on_c, 2, 74, 68
8, 184559, Note_on_c, 2, 70, 0
8, 184559, Note_on_c, 2, 74, 0
8, 186840, Control_c, 2, 11, 127
8, 187080, Note_on_c, 2, 86, 44
8, 187165, Note_on_c, 2, 86, 0
8, 187170, Note_on_c, 2, 86, 44
8, 187195, Note_on_c, 2, 86, 0
8, 187200, Note_on_c, 2, 86, 44
8, 187319, Note_on_c, 2, 86, 0
8, 187800, Note_on_c, 2, 86, 44
8, 187885, Note_on_c, 2, 86, 0
8, 187890, Note_on_c, 2, 86, 44
8, 187915, Note_on_c, 2, 86, 0
8, 187920, Note_on_c, 2, 86, 44
8, 188039, Note_on_c, 2, 86, 0
8, 188520, Note_on_c, 2, 86, 44
8, 188605, Note_on_c, 2, 86, 0
8, 188610, Note_on_c, 2, 86, 44
8, 188635, Note_on_c, 2, 86, 0
8, 188640, Note_on_c, 2, 86, 44
8, 188759, Note_on_c, 2, 86, 0
8, 188880, Note_on_c, 2, 86, 44
8, 188965, Note_on_c, 2, 86, 0
8, 188970, Note_on_c, 2, 86, 44
8, 188995, Note_on_c, 2, 86, 0
8, 189000, Note_on_c, 2, 86, 44
8, 189119, Note_on_c, 2, 86, 0
8, 192840, Note_on_c, 2, 86, 44
8, 192925, Note_on_c, 2, 86, 0
8, 192930, Note_on_c, 2, 86, 44
8, 192955, Note_on_c, 2, 86, 0
8, 192960, Note_on_c, 2, 86, 44
8, 193079, Note_on_c, 2, 86, 0
8, 193560, Note_on_c, 2, 86, 44
8, 193645, Note_on_c, 2, 86, 0
8, 193650, Note_on_c, 2, 86, 44
8, 193675, Note_on_c, 2, 86, 0
8, 193680, Note_on_c, 2, 86, 44
8, 193799, Note_on_c, 2, 86, 0
8, 194280, Note_on_c, 2, 86, 44
8, 194365, Note_on_c, 2, 86, 0
8, 194370, Note_on_c, 2, 86, 44
8, 194395, Note_on_c, 2, 86, 0
8, 194400, Note_on_c, 2, 86, 44
8, 194519, Note_on_c, 2, 86, 0
8, 194640, Note_on_c, 2, 86, 44
8, 194725, Note_on_c, 2, 86, 0
8, 194730, Note_on_c, 2, 86, 44
8, 194755, Note_on_c, 2, 86, 0
8, 194760, Note_on_c, 2, 86, 44
8, 194879, Note_on_c, 2, 86, 0
8, 197460, Control_c, 2, 11, 93
8, 197520, Control_c, 2, 11, 97
8, 197520, Note_on_c, 2, 75, 76
8, 197520, Note_on_c, 2, 72, 76
8, 197580, Control_c, 2, 11, 101
8, 197629, Note_on_c, 2, 75, 0
8, 197629, Note_on_c, 2, 72, 0
8, 197640, Note_on_c, 2, 72, 76
8, 197640, Note_on_c, 2, 75, 76
8, 197640, Control_c, 2, 11, 105
8, 197700, Control_c, 2, 11, 107
8, 197759, Note_on_c, 2, 72, 0
8, 197759, Note_on_c, 2, 75, 0
8, 197760, Note_on_c, 2, 70, 76
8, 197760, Control_c, 2, 11, 111
8, 197760, Note_on_c, 2, 74, 76
8, 197820, Control_c, 2, 11, 115
8, 197879, Note_on_c, 2, 70, 0
8, 197879, Note_on_c, 2, 74, 0
8, 197880, Control_c, 2, 11, 119
8, 197880, Note_on_c, 2, 72, 76
8, 197880, Note_on_c, 2, 69, 76
8, 197940, Control_c, 2, 11, 123
8, 197989, Note_on_c, 2, 72, 0
8, 197989, Note_on_c, 2, 69, 0
8, 198000, Control_c, 2, 11, 127
8, 198000, Note_on_c, 2, 74, 84
8, 198000, Note_on_c, 2, 70, 84
8, 198060, Control_c, 2, 11, 112
8, 198097, Control_c, 2, 11, 108
8, 198133, Control_c, 2, 11, 105
8, 198170, Control_c, 2, 11, 101
8, 198207, Control_c, 2, 11, 98
8, 198243, Control_c, 2, 11, 94
8, 198280, Control_c, 2, 11, 91
8, 198317, Control_c, 2, 11, 87
8, 198353, Control_c, 2, 11, 84
8, 198390, Control_c, 2, 11, 80
8, 198427, Control_c, 2, 11, 76
8, 198463, Control_c, 2, 11, 73
8, 198500, Control_c, 2, 11, 69
8, 198537, Control_c, 2, 11, 66
8, 198573, Control_c, 2, 11, 62
8, 198610, Control_c, 2, 11, 59
8, 198647, Control_c, 2, 11, 55
8, 198683, Control_c, 2, 11, 52
8, 198720, Control_c, 2, 11, 48
8, 198959, Note_on_c, 2, 74, 0
8, 198959, Note_on_c, 2, 70, 0
8, 199080, Note_on_c, 2, 74, 84
8, 199080, Note_on_c, 2, 70, 84
8, 199319, Note_on_c, 2, 74, 0
8, 199319, Note_on_c, 2, 70, 0
8, 199440, Note_on_c, 2, 70, 84
8, 199679, Note_on_c, 2, 70, 0
8, 200160, Control_c, 2, 11, 127
8, 200160, End_track
9, 0, Start_track
9, 0, Title_t, "Clarinet in B-flat "
9, 0, MIDI_port, 0
9, 0, Program_c, 3, 71
9, 0, Control_c, 3, 7, 88
9, 0, Control_c, 3, 10, 75
9, 5640, Control_c, 3, 11, 81
9, 5760, Control_c, 3, 11, 81
9, 5760, Note_on_c, 3, 70, 76
9, 5880, Control_c, 3, 11, 85
9, 6000, Control_c, 3, 11, 89
9, 6120, Control_c, 3, 11, 93
9, 6240, Control_c, 3, 11, 97
9, 6360, Control_c, 3, 11, 101
9, 6480, Note_on_c, 3, 67, 76
9, 6480, Control_c, 3, 11, 105
9, 6600, Control_c, 3, 11, 107
9, 6720, Control_c, 3, 11, 111
9, 6840, Control_c, 3, 11, 115
9, 6960, Control_c, 3, 11, 119
9, 7080, Control_c, 3, 11, 123
9, 7189, Note_on_c, 3, 70, 0
9, 7189, Note_on_c, 3, 67, 0
9, 7200, Control_c, 3, 11, 127
9, 7200, Note_on_c, 3, 70, 76
9, 7200, Note_on_c, 3, 62, 76
9, 7260, Control_c, 3, 11, 81
9, 7549, Note_on_c, 3, 70, 0
9, 7560, Note_on_c, 3, 65, 76
9, 7920, Control_c, 3, 11, 81
9, 7950, Control_c, 3, 11, 83
9, 7980, Control_c, 3, 11, 86
9, 8010, Control_c, 3, 11, 89
9, 8040, Control_c, 3, 11, 91
9, 8070, Control_c, 3, 11, 94
9, 8100, Control_c, 3, 11, 97
9, 8130, Control_c, 3, 11, 99
9, 8160, Control_c, 3, 11, 102
9, 8190, Control_c, 3, 11, 105
9, 8220, Control_c, 3, 11, 107
9, 8250, Control_c, 3, 11, 110
9, 8269, Note_on_c, 3, 62, 0
9, 8280, Note_on_c, 3, 63, 76
9, 8280, Control_c, 3, 11, 113
9, 8310, Control_c, 3, 11, 110
9, 8340, Control_c, 3, 11, 107
9, 8370, Control_c, 3, 11, 105
9, 8400, Control_c, 3, 11, 102
9, 8430, Control_c, 3, 11, 99
9, 8460, Control_c, 3, 11, 97
9, 8490, Control_c, 3, 11, 94
9, 8520, Control_c, 3, 11, 91
9, 8550, Control_c, 3, 11, 89
9, 8580, Control_c, 3, 11, 86
9, 8610, Control_c, 3, 11, 81
9, 8629, Note_on_c, 3, 65, 0
9, 8629, Note_on_c, 3, 63, 0
9, 8640, Note_on_c, 3, 62, 76
9, 8640, Note_on_c, 3, 58, 76
9, 8879, Note_on_c, 3, 62, 0
9, 9840, Note_on_c, 3, 70, 76
9, 9899, Note_on_c, 3, 70, 0
9, 9900, Note_on_c, 3, 72, 76
9, 9959, Note_on_c, 3, 72, 0
9, 9960, Note_on_c, 3, 74, 76
9, 10019, Note_on_c, 3, 74, 0
9, 10020, Note_on_c, 3, 72, 76
9, 10069, Note_on_c, 3, 58, 0
9, 10073, Note_on_c, 3, 72, 0
9, 10080, Note_on_c, 3, 72, 76
9, 10080, Note_on_c, 3, 58, 76
9, 10199, Note_on_c, 3, 72, 0
9, 10200, Note_on_c, 3, 70, 76
9, 10439, Note_on_c, 3, 70, 0
9, 11280, Note_on_c, 3, 70, 76
9, 11339, Note_on_c, 3, 70, 0
9, 11340, Note_on_c, 3, 72, 76
9, 11399, Note_on_c, 3, 72, 0
9, 11400, Note_on_c, 3, 74, 76
9, 11459, Note_on_c, 3, 74, 0
9, 11460, Note_on_c, 3, 70, 76
9, 11474, Note_on_c, 3, 70, 0
9, 11475, Note_on_c, 3, 69, 76
9, 11489, Note_on_c, 3, 69, 0
9, 11490, Note_on_c, 3, 70, 76
9, 11504, Note_on_c, 3, 70, 0
9, 11505, Note_on_c, 3, 72, 76
9, 11509, Note_on_c, 3, 58, 0
9, 11519, Note_on_c, 3, 72, 0
9, 11520, Note_on_c, 3, 70, 76
9, 11520, Note_on_c, 3, 65, 76
9, 11639, Note_on_c, 3, 70, 0
9, 11640, Note_on_c, 3, 69, 76
9, 11879, Note_on_c, 3, 69, 0
9, 12720, Note_on_c, 3, 72, 76
9, 12779, Note_on_c, 3, 72, 0
9, 12780, Note_on_c, 3, 74, 76
9, 12839, Note_on_c, 3, 74, 0
9, 12840, Note_on_c, 3, 75, 76
9, 12899, Note_on_c, 3, 75, 0
9, 12900, Note_on_c, 3, 74, 76
9, 12949, Note_on_c, 3, 65, 0
9, 12953, Note_on_c, 3, 74, 0
9, 12960, Note_on_c, 3, 65, 76
9, 12960, Note_on_c, 3, 74, 76
9, 13079, Note_on_c, 3, 74, 0
9, 13080, Note_on_c, 3, 72, 76
9, 13319, Note_on_c, 3, 72, 0
9, 14160, Note_on_c, 3, 72, 76
9, 14279, Note_on_c, 3, 72, 0
9, 14280, Note_on_c, 3, 74, 76
9, 14339, Note_on_c, 3, 74, 0
9, 14340, Note_on_c, 3, 75, 76
9, 14389, Note_on_c, 3, 65, 0
9, 14393, Note_on_c, 3, 75, 0
9, 14400, Note_on_c, 3, 70, 76
9, 14400, Control_c, 3, 11, 81
9, 14400, Note_on_c, 3, 77, 76
9, 14520, Control_c, 3, 11, 85
9, 14640, Control_c, 3, 11, 89
9, 14760, Control_c, 3, 11, 93
9, 14879, Note_on_c, 3, 77, 0
9, 14880, Note_on_c, 3, 75, 76
9, 14880, Control_c, 3, 11, 97
9, 14999, Note_on_c, 3, 75, 0
9, 15000, Note_on_c, 3, 74, 76
9, 15000, Control_c, 3, 11, 101
9, 15109, Note_on_c, 3, 74, 0
9, 15120, Note_on_c, 3, 72, 76
9, 15120, Control_c, 3, 11, 105
9, 15240, Control_c, 3, 11, 107
9, 15360, Control_c, 3, 11, 111
9, 15409, Note_on_c, 3, 72, 0
9, 15420, Note_on_c, 3, 74, 76
9, 15439, Note_on_c, 3, 74, 0
9, 15440, Note_on_c, 3, 72, 76
9, 15459, Note_on_c, 3, 72, 0
9, 15460, Note_on_c, 3, 71, 76
9, 15479, Note_on_c, 3, 71, 0
9, 15480, Control_c, 3, 11, 115
9, 15480, Note_on_c, 3, 72, 76
9, 15599, Note_on_c, 3, 72, 0
9, 15600, Note_on_c, 3, 75, 76
9, 15600, Control_c, 3, 11, 119
9, 15709, Note_on_c, 3, 75, 0
9, 15720, Control_c, 3, 11, 123
9, 15720, Note_on_c, 3, 79, 76
9, 15809, Note_on_c, 3, 79, 0
9, 15829, Note_on_c, 3, 70, 0
9, 15840, Note_on_c, 3, 65, 76
9, 15840, Control_c, 3, 11, 127
9, 15900, Control_c, 3, 11, 81
9, 16309, Note_on_c, 3, 65, 0
9, 16320, Note_on_c, 3, 67, 76
9, 16419, Note_on_c, 3, 67, 0
9, 16440, Note_on_c, 3, 69, 76
9, 16529, Note_on_c, 3, 69, 0
9, 16560, Note_on_c, 3, 70, 76
9, 16560, Control_c, 3, 11, 81
9, 16590, Control_c, 3, 11, 83
9, 16620, Control_c, 3, 11, 86
9, 16650, Control_c, 3, 11, 89
9, 16659, Note_on_c, 3, 70, 0
9, 16680, Control_c, 3, 11, 91
9, 16680, Note_on_c, 3, 72, 76
9, 16710, Control_c, 3, 11, 94
9, 16740, Control_c, 3, 11, 97
9, 16770, Control_c, 3, 11, 99
9, 16779, Note_on_c, 3, 72, 0
9, 16800, Control_c, 3, 11, 102
9, 16800, Note_on_c, 3, 74, 76
9, 16830, Control_c, 3, 11, 105
9, 16860, Control_c, 3, 11, 107
9, 16889, Note_on_c, 3, 74, 0
9, 16890, Control_c, 3, 11, 110
9, 16920, Note_on_c, 3, 77, 76
9, 16920, Control_c, 3, 11, 113
9, 16950, Control_c, 3, 11, 110
9, 16980, Control_c, 3, 11, 107
9, 17010, Control_c, 3, 11, 105
9, 17039, Note_on_c, 3, 77, 0
9, 17040, Control_c, 3, 11, 102
9, 17040, Note_on_c, 3, 75, 76
9, 17070, Control_c, 3, 11, 99
9, 17100, Control_c, 3, 11, 97
9, 17130, Control_c, 3, 11, 94
9, 17149, Note_on_c, 3, 75, 0
9, 17160, Control_c, 3, 11, 91
9, 17160, Note_on_c, 3, 72, 76
9, 17190, Control_c, 3, 11, 89
9, 17219, Note_on_c, 3, 72, 0
9, 17220, Note_on_c, 3, 74, 76
9, 17220, Control_c, 3, 11, 86
9, 17250, Control_c, 3, 11, 81
9, 17273, Note_on_c, 3, 74, 0
9, 17280, Note_on_c, 3, 62, 76
9, 17280, Note_on_c, 3, 70, 76
9, 17519, Note_on_c, 3, 62, 0
9, 17519, Note_on_c, 3, 70, 0
9, 18360, Control_c, 3, 11, 97
9, 18720, Note_on_c, 3, 70, 68
9, 18780, Control_c, 3, 11, 99
9, 18840, Control_c, 3, 11, 102
9, 18900, Control_c, 3, 11, 105
9, 18960, Control_c, 3, 11, 107
9, 19020, Control_c, 3, 11, 110
9, 19080, Control_c, 3, 11, 113
9, 19140, Control_c, 3, 11, 115
9, 19199, Note_on_c, 3, 70, 0
9, 19200, Note_on_c, 3, 65, 68
9, 19200, Control_c, 3, 11, 118
9, 19260, Control_c, 3, 11, 119
9, 19319, Note_on_c, 3, 65, 0
9, 19320, Control_c, 3, 11, 123
9, 19320, Note_on_c, 3, 62, 68
9, 19380, Control_c, 3, 11, 125
9, 19429, Note_on_c, 3, 62, 0
9, 19440, Note_on_c, 3, 60, 68
9, 19440, Control_c, 3, 11, 127
9, 19500, Control_c, 3, 11, 125
9, 19560, Control_c, 3, 11, 123
9, 19620, Control_c, 3, 11, 119
9, 19680, Control_c, 3, 11, 118
9, 19740, Control_c, 3, 11, 115
9, 19799, Note_on_c, 3, 60, 0
9, 19800, Control_c, 3, 11, 113
9, 19800, Note_on_c, 3, 65, 68
9, 19860, Control_c, 3, 11, 110
9, 19920, Control_c, 3, 11, 107
9, 19980, Control_c, 3, 11, 105
9, 20040, Control_c, 3, 11, 102
9, 20100, Control_c, 3, 11, 99
9, 20149, Note_on_c, 3, 65, 0
9, 20160, Note_on_c, 3, 62, 68
9, 20160, Note_on_c, 3, 70, 68
9, 20160, Control_c, 3, 11, 97
9, 20399, Note_on_c, 3, 62, 0
9, 20749, Note_on_c, 3, 70, 0
9, 20760, Note_on_c, 3, 70, 68
9, 20849, Note_on_c, 3, 70, 0
9, 20860, Note_on_c, 3, 70, 68
9, 20879, Note_on_c, 3, 70, 0
9, 20880, Note_on_c, 3, 69, 68
9, 20999, Note_on_c, 3, 69, 0
9, 21000, Note_on_c, 3, 67, 68
9, 21119, Note_on_c, 3, 67, 0
9, 21120, Note_on_c, 3, 65, 68
9, 21229, Note_on_c, 3, 65, 0
9, 21240, Note_on_c, 3, 65, 68
9, 21339, Note_on_c, 3, 65, 0
9, 21360, Note_on_c, 3, 67, 68
9, 21459, Note_on_c, 3, 67, 0
9, 21480, Note_on_c, 3, 69, 68
9, 21569, Note_on_c, 3, 69, 0
9, 21600, Control_c, 3, 11, 97
9, 21600, Note_on_c, 3, 70, 68
9, 21660, Control_c, 3, 11, 99
9, 21720, Control_c, 3, 11, 102
9, 21780, Control_c, 3, 11, 105
9, 21840, Control_c, 3, 11, 107
9, 21900, Control_c, 3, 11, 110
9, 21960, Control_c, 3, 11, 113
9, 22020, Control_c, 3, 11, 115
9, 22079, Note_on_c, 3, 70, 0
9, 22080, Note_on_c, 3, 72, 68
9, 22080, Control_c, 3, 11, 118
9, 22140, Control_c, 3, 11, 119
9, 22199, Note_on_c, 3, 72, 0
9, 22200, Control_c, 3, 11, 123
9, 22200, Note_on_c, 3, 74, 68
9, 22260, Control_c, 3, 11, 125
9, 22309, Note_on_c, 3, 74, 0
9, 22320, Control_c, 3, 11, 127
9, 22320, Note_on_c, 3, 77, 68
9, 22380, Control_c, 3, 11, 125
9, 22439, Note_on_c, 3, 77, 0
9, 22440, Note_on_c, 3, 75, 68
9, 22440, Control_c, 3, 11, 123
9, 22500, Control_c, 3, 11, 119
9, 22549, Note_on_c, 3, 75, 0
9, 22560, Note_on_c, 3, 74, 68
9, 22560, Control_c, 3, 11, 118
9, 22620, Control_c, 3, 11, 115
9, 22649, Note_on_c, 3, 74, 0
9, 22680, Control_c, 3, 11, 113
9, 22680, Note_on_c, 3, 72, 68
9, 22740, Control_c, 3, 11, 110
9, 22800, Control_c, 3, 11, 107
9, 22860, Control_c, 3, 11, 105
9, 22919, Note_on_c, 3, 72, 0
9, 22920, Note_on_c, 3, 77, 68
9, 22920, Control_c, 3, 11, 102
9, 22980, Control_c, 3, 11, 99
9, 23029, Note_on_c, 3, 77, 0
9, 23040, Control_c, 3, 11, 97
9, 23040, Note_on_c, 3, 70, 68
9, 24229, Note_on_c, 3, 70, 0
9, 24240, Note_on_c, 3, 79, 76
9, 24240, Note_on_c, 3, 75, 76
9, 24359, Note_on_c, 3, 79, 0
9, 24359, Note_on_c, 3, 75, 0
9, 24360, Note_on_c, 3, 77, 68
9, 24360, Note_on_c, 3, 74, 68
9, 24469, Note_on_c, 3, 77, 0
9, 24469, Note_on_c, 3, 74, 0
9, 24480, Note_on_c, 3, 74, 68
9, 24480, Note_on_c, 3, 70, 68
9, 24719, Note_on_c, 3, 74, 0
9, 24719, Note_on_c, 3, 70, 0
9, 24840, Note_on_c, 3, 74, 68
9, 24840, Note_on_c, 3, 70, 68
9, 25079, Note_on_c, 3, 74, 0
9, 25079, Note_on_c, 3, 70, 0
9, 25200, Note_on_c, 3, 70, 68
9, 25200, Note_on_c, 3, 74, 68
9, 25439, Note_on_c, 3, 70, 0
9, 25439, Note_on_c, 3, 74, 0
9, 27360, Control_c, 3, 11, 127
9, 27720, Note_on_c, 3, 65, 44
9, 27720, Note_on_c, 3, 72, 44
9, 27773, Note_on_c, 3, 65, 0
9, 27773, Note_on_c, 3, 72, 0
9, 27780, Note_on_c, 3, 65, 44
9, 27780, Note_on_c, 3, 72, 44
9, 27833, Note_on_c, 3, 65, 0
9, 27833, Note_on_c, 3, 72, 0
9, 27840, Note_on_c, 3, 65, 44
9, 27840, Note_on_c, 3, 72, 44
9, 27893, Note_on_c, 3, 65, 0
9, 27893, Note_on_c, 3, 72, 0
9, 27900, Note_on_c, 3, 72, 44
9, 27900, Note_on_c, 3, 65, 44
9, 27953, Note_on_c, 3, 72, 0
9, 27953, Note_on_c, 3, 65, 0
9, 27960, Note_on_c, 3, 65, 44
9, 27960, Note_on_c, 3, 72, 44
9, 28013, Note_on_c, 3, 65, 0
9, 28013, Note_on_c, 3, 72, 0
9, 28020, Note_on_c, 3, 72, 44
9, 28020, Note_on_c, 3, 65, 44
9, 28073, Note_on_c, 3, 72, 0
9, 28073, Note_on_c, 3, 65, 0
9, 28080, Note_on_c, 3, 74, 44
9, 28080, Note_on_c, 3, 70, 44
9, 28319, Note_on_c, 3, 74, 0
9, 28319, Note_on_c, 3, 70, 0
9, 34560, Note_on_c, 3, 65, 52
9, 34560, Note_on_c, 3, 69, 52
9, 35149, Note_on_c, 3, 65, 0
9, 35149, Note_on_c, 3, 69, 0
9, 35160, Note_on_c, 3, 65, 52
9, 35160, Note_on_c, 3, 69, 52
9, 35509, Note_on_c, 3, 65, 0
9, 35509, Note_on_c, 3, 69, 0
9, 35520, Note_on_c, 3, 65, 52
9, 35520, Note_on_c, 3, 69, 52
9, 35869, Note_on_c, 3, 65, 0
9, 35869, Note_on_c, 3, 69, 0
9, 35880, Note_on_c, 3, 65, 52
9, 35880, Note_on_c, 3, 69, 52
9, 35989, Note_on_c, 3, 65, 0
9, 35989, Note_on_c, 3, 69, 0
9, 36000, Note_on_c, 3, 65, 52
9, 36000, Note_on_c, 3, 62, 52
9, 36589, Note_on_c, 3, 65, 0
9, 36589, Note_on_c, 3, 62, 0
9, 36600, Note_on_c, 3, 62, 52
9, 36600, Note_on_c, 3, 65, 52
9, 36949, Note_on_c, 3, 62, 0
9, 36949, Note_on_c, 3, 65, 0
9, 36960, Note_on_c, 3, 65, 52
9, 36960, Note_on_c, 3, 62, 52
9, 37309, Note_on_c, 3, 65, 0
9, 37309, Note_on_c, 3, 62, 0
9, 37320, Note_on_c, 3, 62, 52
9, 37320, Note_on_c, 3, 65, 52
9, 37429, Note_on_c, 3, 62, 0
9, 37429, Note_on_c, 3, 65, 0
9, 37440, Note_on_c, 3, 64, 52
9, 37440, Note_on_c, 3, 60, 52
9, 37679, Note_on_c, 3, 64, 0
9, 37679, Note_on_c, 3, 60, 0
9, 37920, Note_on_c, 3, 64, 52
9, 37920, Note_on_c, 3, 67, 52
9, 38029, Note_on_c, 3, 64, 0
9, 38029, Note_on_c, 3, 67, 0
9, 38040, Note_on_c, 3, 67, 52
9, 38040, Note_on_c, 3, 64, 52
9, 38149, Note_on_c, 3, 67, 0
9, 38149, Note_on_c, 3, 64, 0
9, 38160, Note_on_c, 3, 69, 52
9, 38160, Note_on_c, 3, 65, 52
9, 38399, Note_on_c, 3, 69, 0
9, 38399, Note_on_c, 3, 65, 0
9, 38640, Note_on_c, 3, 65, 52
9, 38640, Note_on_c, 3, 69, 52
9, 38749, Note_on_c, 3, 65, 0
9, 38749, Note_on_c, 3, 69, 0
9, 38760, Note_on_c, 3, 65, 52
9, 38760, Note_on_c, 3, 69, 52
9, 38869, Note_on_c, 3, 65, 0
9, 38869, Note_on_c, 3, 69, 0
9, 38880, Note_on_c, 3, 64, 52
9, 38880, Note_on_c, 3, 70, 52
9, 39119, Note_on_c, 3, 64, 0
9, 39119, Note_on_c, 3, 70, 0
9, 39360, Note_on_c, 3, 70, 52
9, 39360, Note_on_c, 3, 64, 52
9, 39469, Note_on_c, 3, 70, 0
9, 39469, Note_on_c, 3, 64, 0
9, 39480, Note_on_c, 3, 70, 52
9, 39480, Note_on_c, 3, 64, 52
9, 39589, Note_on_c, 3, 70, 0
9, 39589, Note_on_c, 3, 64, 0
9, 39600, Note_on_c, 3, 69, 52
9, 39600, Note_on_c, 3, 65, 52
9, 39839, Note_on_c, 3, 69, 0
9, 39839, Note_on_c, 3, 65, 0
9, 39960, Control_c, 3, 11, 97
9, 40080, Note_on_c, 3, 69, 68
9, 40080, Note_on_c, 3, 65, 68
9, 40189, Note_on_c, 3, 69, 0
9, 40189, Note_on_c, 3, 65, 0
9, 40200, Note_on_c, 3, 69, 68
9, 40200, Note_on_c, 3, 65, 68
9, 40309, Note_on_c, 3, 69, 0
9, 40309, Note_on_c, 3, 65, 0
9, 40320, Control_c, 3, 11, 97
9, 40320, Note_on_c, 3, 64, 68
9, 40320, Note_on_c, 3, 72, 68
9, 40380, Control_c, 3, 11, 99
9, 40440, Control_c, 3, 11, 102
9, 40500, Control_c, 3, 11, 105
9, 40560, Control_c, 3, 11, 107
9, 40620, Control_c, 3, 11, 110
9, 40680, Control_c, 3, 11, 113
9, 40740, Control_c, 3, 11, 115
9, 40800, Control_c, 3, 11, 118
9, 40860, Control_c, 3, 11, 119
9, 40920, Control_c, 3, 11, 123
9, 40980, Control_c, 3, 11, 125
9, 41029, Note_on_c, 3, 64, 0
9, 41029, Note_on_c, 3, 72, 0
9, 41040, Note_on_c, 3, 70, 68
9, 41040, Note_on_c, 3, 67, 68
9, 41040, Control_c, 3, 11, 127
9, 41100, Control_c, 3, 11, 125
9, 41160, Control_c, 3, 11, 123
9, 41220, Control_c, 3, 11, 119
9, 41280, Control_c, 3, 11, 118
9, 41340, Control_c, 3, 11, 115
9, 41400, Control_c, 3, 11, 113
9, 41460, Control_c, 3, 11, 110
9, 41520, Control_c, 3, 11, 107
9, 41580, Control_c, 3, 11, 105
9, 41640, Control_c, 3, 11, 102
9, 41700, Control_c, 3, 11, 99
9, 41749, Note_on_c, 3, 70, 0
9, 41749, Note_on_c, 3, 67, 0
9, 41760, Note_on_c, 3, 69, 68
9, 41760, Control_c, 3, 11, 97
9, 41760, Note_on_c, 3, 65, 68
9, 41999, Note_on_c, 3, 69, 0
9, 41999, Note_on_c, 3, 65, 0
9, 42120, Note_on_c, 3, 74, 68
9, 42120, Note_on_c, 3, 70, 68
9, 42359, Note_on_c, 3, 74, 0
9, 42359, Note_on_c, 3, 70, 0
9, 42480, Note_on_c, 3, 72, 68
9, 42480, Note_on_c, 3, 69, 68
9, 42719, Note_on_c, 3, 72, 0
9, 42719, Note_on_c, 3, 69, 0
9, 42840, Note_on_c, 3, 72, 68
9, 42840, Note_on_c, 3, 67, 68
9, 43079, Note_on_c, 3, 72, 0
9, 43079, Note_on_c, 3, 67, 0
9, 43200, Note_on_c, 3, 64, 68
9, 43200, Note_on_c, 3, 67, 68
9, 43260, Control_c, 3, 11, 99
9, 43320, Control_c, 3, 11, 102
9, 43380, Control_c, 3, 11, 105
9, 43440, Control_c, 3, 11, 107
9, 43500, Control_c, 3, 11, 110
9, 43560, Control_c, 3, 11, 113
9, 43620, Control_c, 3, 11, 115
9, 43680, Control_c, 3, 11, 118
9, 43740, Control_c, 3, 11, 119
9, 43800, Control_c, 3, 11, 123
9, 43860, Control_c, 3, 11, 125
9, 43909, Note_on_c, 3, 64, 0
9, 43909, Note_on_c, 3, 67, 0
9, 43920, Control_c, 3, 11, 127
9, 43920, Note_on_c, 3, 67, 68
9, 43920, Note_on_c, 3, 70, 68
9, 43980, Control_c, 3, 11, 125
9, 44040, Control_c, 3, 11, 123
9, 44100, Control_c, 3, 11, 119
9, 44160, Control_c, 3, 11, 118
9, 44220, Control_c, 3, 11, 115
9, 44280, Control_c, 3, 11, 113
9, 44340, Control_c, 3, 11, 110
9, 44400, Control_c, 3, 11, 107
9, 44460, Control_c, 3, 11, 105
9, 44519, Note_on_c, 3, 67, 0
9, 44519, Note_on_c, 3, 70, 0
9, 44520, Control_c, 3, 11, 102
9, 44520, Note_on_c, 3, 67, 68
9, 44520, Note_on_c, 3, 64, 68
9, 44580, Control_c, 3, 11, 97
9, 44629, Note_on_c, 3, 67, 0
9, 44629, Note_on_c, 3, 64, 0
9, 44640, Note_on_c, 3, 65, 68
9, 44640, Note_on_c, 3, 69, 68
9, 44879, Note_on_c, 3, 65, 0
9, 44879, Note_on_c, 3, 69, 0
9, 44880, Control_c, 3, 11, 127
9, 45000, Note_on_c, 3, 74, 52
9, 45000, Note_on_c, 3, 70, 52
9, 45239, Note_on_c, 3, 74, 0
9, 45239, Note_on_c, 3, 70, 0
9, 45360, Note_on_c, 3, 69, 52
9, 45360, Note_on_c, 3, 72, 52
9, 45599, Note_on_c, 3, 69, 0
9, 45599, Note_on_c, 3, 72, 0
9, 45720, Note_on_c, 3, 72, 52
9, 45720, Note_on_c, 3, 67, 52
9, 45959, Note_on_c, 3, 72, 0
9, 45959, Note_on_c, 3, 67, 0
9, 46080, Note_on_c, 3, 69, 52
9, 46080, Note_on_c, 3, 73, 52
9, 46319, Note_on_c, 3, 69, 0
9, 46319, Note_on_c, 3, 73, 0
9, 50640, Control_c, 3, 11, 93
9, 50760, Note_on_c, 3, 72, 76
9, 50880, Control_c, 3, 11, 95
9, 50999, Note_on_c, 3, 72, 0
9, 51000, Note_on_c, 3, 67, 76
9, 51000, Control_c, 3, 11, 97
9, 51119, Note_on_c, 3, 67, 0
9, 51120, Note_on_c, 3, 69, 76
9, 51120, Control_c, 3, 11, 99
9, 51240, Control_c, 3, 11, 101
9, 51359, Note_on_c, 3, 69, 0
9, 51360, Note_on_c, 3, 65, 76
9, 51360, Control_c, 3, 11, 103
9, 51479, Note_on_c, 3, 65, 0
9, 51480, Control_c, 3, 11, 105
9, 51480, Note_on_c, 3, 72, 76
9, 51480, Note_on_c, 3, 60, 76
9, 51600, Control_c, 3, 11, 106
9, 51719, Note_on_c, 3, 72, 0
9, 51719, Note_on_c, 3, 60, 0
9, 51720, Control_c, 3, 11, 107
9, 51720, Note_on_c, 3, 64, 76
9, 51720, Note_on_c, 3, 67, 76
9, 51839, Note_on_c, 3, 64, 0
9, 51839, Note_on_c, 3, 67, 0
9, 51840, Note_on_c, 3, 69, 76
9, 51840, Note_on_c, 3, 65, 76
9, 51840, Control_c, 3, 11, 110
9, 51960, Control_c, 3, 11, 111
9, 52079, Note_on_c, 3, 69, 0
9, 52079, Note_on_c, 3, 65, 0
9, 52080, Note_on_c, 3, 65, 76
9, 52080, Note_on_c, 3, 69, 76
9, 52080, Control_c, 3, 11, 114
9, 52199, Note_on_c, 3, 65, 0
9, 52199, Note_on_c, 3, 69, 0
9, 52200, Note_on_c, 3, 60, 76
9, 52200, Note_on_c, 3, 72, 76
9, 52200, Control_c, 3, 11, 115
9, 52320, Control_c, 3, 11, 118
9, 52439, Note_on_c, 3, 60, 0
9, 52439, Note_on_c, 3, 72, 0
9, 52440, Note_on_c, 3, 64, 76
9, 52440, Control_c, 3, 11, 119
9, 52440, Note_on_c, 3, 67, 76
9, 52559, Note_on_c, 3, 64, 0
9, 52559, Note_on_c, 3, 67, 0
9, 52560, Note_on_c, 3, 69, 76
9, 52560, Note_on_c, 3, 65, 76
9, 52560, Control_c, 3, 11, 122
9, 52680, Control_c, 3, 11, 123
9, 52799, Note_on_c, 3, 69, 0
9, 52799, Note_on_c, 3, 65, 0
9, 52800, Control_c, 3, 11, 127
9, 52800, Note_on_c, 3, 69, 76
9, 52800, Note_on_c, 3, 65, 76
9, 52909, Note_on_c, 3, 69, 0
9, 52909, Note_on_c, 3, 65, 0
9, 52920, Note_on_c, 3, 67, 76
9, 52920, Note_on_c, 3, 64, 76
9, 53149, Note_on_c, 3, 67, 0
9, 53149, Note_on_c, 3, 64, 0
9, 53160, Note_on_c, 3, 64, 76
9, 53160, Note_on_c, 3, 67, 76
9, 53269, Note_on_c, 3, 64, 0
9, 53269, Note_on_c, 3, 67, 0
9, 53280, Note_on_c, 3, 69, 76
9, 53280, Note_on_c, 3, 65, 76
9, 54709, Note_on_c, 3, 69, 0
9, 54709, Note_on_c, 3, 65, 0
9, 54720, Note_on_c, 3, 69, 76
9, 54720, Note_on_c, 3, 65, 76
9, 54959, Note_on_c, 3, 69, 0
9, 54959, Note_on_c, 3, 65, 0
9, 56160, Note_on_c, 3, 67, 52
9, 56160, Note_on_c, 3, 65, 52
9, 56399, Note_on_c, 3, 67, 0
9, 56399, Note_on_c, 3, 65, 0
9, 56880, Note_on_c, 3, 64, 52
9, 56880, Note_on_c, 3, 67, 52
9, 56940, Control_c, 3, 11, 127
9, 57000, Control_c, 3, 11, 126
9, 57060, Control_c, 3, 11, 123
9, 57119, Note_on_c, 3, 64, 0
9, 57119, Note_on_c, 3, 67, 0
9, 58440, Control_c, 3, 11, 127
9, 58560, Note_on_c, 3, 65, 44
9, 58560, Note_on_c, 3, 62, 44
9, 58679, Note_on_c, 3, 65, 0
9, 58679, Note_on_c, 3, 62, 0
9, 58920, Note_on_c, 3, 60, 44
9, 58920, Note_on_c, 3, 64, 44
9, 59039, Note_on_c, 3, 60, 0
9, 59039, Note_on_c, 3, 64, 0
9, 59280, Note_on_c, 3, 61, 44
9, 59280, Note_on_c, 3, 64, 44
9, 59399, Note_on_c, 3, 61, 0
9, 59399, Note_on_c, 3, 64, 0
9, 59640, Note_on_c, 3, 65, 44
9, 59640, Note_on_c, 3, 62, 44
9, 59759, Note_on_c, 3, 65, 0
9, 59759, Note_on_c, 3, 62, 0
9, 59998, Control_c, 3, 11, 65
9, 60000, Note_on_c, 3, 62, 76
9, 60000, Note_on_c, 3, 65, 76
9, 60119, Note_on_c, 3, 62, 0
9, 60119, Note_on_c, 3, 65, 0
9, 60120, Control_c, 3, 11, 65
9, 60240, Control_c, 3, 11, 70
9, 60360, Control_c, 3, 11, 75
9, 60360, Note_on_c, 3, 64, 76
9, 60360, Note_on_c, 3, 60, 76
9, 60479, Note_on_c, 3, 64, 0
9, 60479, Note_on_c, 3, 60, 0
9, 60480, Control_c, 3, 11, 81
9, 60600, Control_c, 3, 11, 86
9, 60720, Control_c, 3, 11, 91
9, 60720, Note_on_c, 3, 65, 76
9, 60720, Note_on_c, 3, 60, 76
9, 60839, Note_on_c, 3, 65, 0
9, 60839, Note_on_c, 3, 60, 0
9, 60840, Control_c, 3, 11, 97
9, 60960, Control_c, 3, 11, 102
9, 61080, Control_c, 3, 11, 107
9, 61080, Note_on_c, 3, 67, 76
9, 61080, Note_on_c, 3, 60, 76
9, 61199, Note_on_c, 3, 67, 0
9, 61199, Note_on_c, 3, 60, 0
9, 61200, Control_c, 3, 11, 111
9, 61320, Control_c, 3, 11, 118
9, 61440, Control_c, 3, 11, 123
9, 61440, Note_on_c, 3, 65, 76
9, 61440, Note_on_c, 3, 60, 76
9, 61549, Note_on_c, 3, 65, 0
9, 61549, Note_on_c, 3, 60, 0
9, 61560, Control_c, 3, 11, 127
9, 61560, Note_on_c, 3, 64, 76
9, 61560, Note_on_c, 3, 72, 76
9, 61789, Note_on_c, 3, 64, 0
9, 61789, Note_on_c, 3, 72, 0
9, 61800, Note_on_c, 3, 67, 76
9, 61800, Note_on_c, 3, 64, 76
9, 61919, Note_on_c, 3, 67, 0
9, 61919, Note_on_c, 3, 64, 0
9, 61920, Note_on_c, 3, 69, 76
9, 61920, Note_on_c, 3, 65, 76
9, 62149, Note_on_c, 3, 69, 0
9, 62149, Note_on_c, 3, 65, 0
9, 62160, Note_on_c, 3, 65, 76
9, 62279, Note_on_c, 3, 65, 0
9, 62280, Note_on_c, 3, 60, 76
9, 62399, Note_on_c, 3, 60, 0
9, 62400, Note_on_c, 3, 65, 76
9, 62519, Note_on_c, 3, 65, 0
9, 62520, Note_on_c, 3, 69, 76
9, 62629, Note_on_c, 3, 69, 0
9, 62640, Note_on_c, 3, 72, 76
9, 62879, Note_on_c, 3, 72, 0
9, 62880, Note_on_c, 3, 69, 76
9, 62999, Note_on_c, 3, 69, 0
9, 63000, Note_on_c, 3, 65, 76
9, 63119, Note_on_c, 3, 65, 0
9, 63120, Note_on_c, 3, 69, 76
9, 63239, Note_on_c, 3, 69, 0
9, 63240, Note_on_c, 3, 72, 76
9, 63349, Note_on_c, 3, 72, 0
9, 63360, Note_on_c, 3, 69, 84
9, 63360, Note_on_c, 3, 77, 84
9, 63420, Control_c, 3, 11, 112
9, 63443, Control_c, 3, 11, 109
9, 63467, Control_c, 3, 11, 107
9, 63490, Control_c, 3, 11, 104
9, 63513, Control_c, 3, 11, 101
9, 63537, Control_c, 3, 11, 99
9, 63560, Control_c, 3, 11, 96
9, 63583, Control_c, 3, 11, 93
9, 63607, Control_c, 3, 11, 91
9, 63630, Control_c, 3, 11, 88
9, 63653, Control_c, 3, 11, 85
9, 63677, Control_c, 3, 11, 83
9, 63700, Control_c, 3, 11, 80
9, 63723, Control_c, 3, 11, 77
9, 63747, Control_c, 3, 11, 75
9, 63770, Control_c, 3, 11, 72
9, 63793, Control_c, 3, 11, 69
9, 63817, Control_c, 3, 11, 67
9, 63839, Note_on_c, 3, 69, 0
9, 63839, Note_on_c, 3, 77, 0
9, 65880, Control_c, 3, 11, 127
9, 66000, Note_on_c, 3, 65, 52
9, 66000, Note_on_c, 3, 69, 52
9, 66089, Note_on_c, 3, 65, 0
9, 66089, Note_on_c, 3, 69, 0
9, 66120, Note_on_c, 3, 67, 52
9, 66120, Note_on_c, 3, 65, 52
9, 66209, Note_on_c, 3, 67, 0
9, 66209, Note_on_c, 3, 65, 0
9, 66240, Note_on_c, 3, 67, 52
9, 66240, Note_on_c, 3, 65, 52
9, 66479, Note_on_c, 3, 67, 0
9, 66479, Note_on_c, 3, 65, 0
9, 66960, Note_on_c, 3, 67, 52
9, 66960, Note_on_c, 3, 64, 52
9, 67199, Note_on_c, 3, 67, 0
9, 67199, Note_on_c, 3, 64, 0
9, 67680, Note_on_c, 3, 69, 52
9, 67680, Note_on_c, 3, 65, 52
9, 67919, Note_on_c, 3, 69, 0
9, 67919, Note_on_c, 3, 65, 0
9, 68040, Control_c, 3, 11, 97
9, 68400, Note_on_c, 3, 72, 68
9, 68400, Note_on_c, 3, 60, 68
9, 68520, Control_c, 3, 11, 99
9, 68640, Control_c, 3, 11, 102
9, 68760, Control_c, 3, 11, 105
9, 68880, Control_c, 3, 11, 107
9, 69000, Control_c, 3, 11, 110
9, 69120, Control_c, 3, 11, 113
9, 69240, Control_c, 3, 11, 115
9, 69360, Control_c, 3, 11, 118
9, 69480, Control_c, 3, 11, 119
9, 69600, Control_c, 3, 11, 123
9, 69709, Note_on_c, 3, 72, 0
9, 69709, Note_on_c, 3, 60, 0
9, 69718, Control_c, 3, 11, 127
9, 69720, Note_on_c, 3, 69, 68
9, 69720, Note_on_c, 3, 65, 68
9, 69829, Note_on_c, 3, 69, 0
9, 69829, Note_on_c, 3, 65, 0
9, 69840, Note_on_c, 3, 67, 76
9, 69840, Note_on_c, 3, 70, 76
9, 69959, Note_on_c, 3, 67, 0
9, 69959, Note_on_c, 3, 70, 0
9, 69960, Note_on_c, 3, 64, 68
9, 69960, Note_on_c, 3, 67, 68
9, 70079, Note_on_c, 3, 64, 0
9, 70079, Note_on_c, 3, 67, 0
9, 70080, Note_on_c, 3, 69, 68
9, 70080, Note_on_c, 3, 65, 68
9, 70199, Note_on_c, 3, 69, 0
9, 70199, Note_on_c, 3, 65, 0
9, 70200, Note_on_c, 3, 64, 68
9, 70200, Note_on_c, 3, 67, 68
9, 70200, Control_c, 3, 11, 127
9, 70230, Control_c, 3, 11, 125
9, 70260, Control_c, 3, 11, 123
9, 70290, Control_c, 3, 11, 119
9, 70319, Note_on_c, 3, 64, 0
9, 70319, Note_on_c, 3, 67, 0
9, 70320, Note_on_c, 3, 65, 68
9, 70320, Note_on_c, 3, 69, 68
9, 70320, Control_c, 3, 11, 118
9, 70350, Control_c, 3, 11, 115
9, 70380, Control_c, 3, 11, 113
9, 70410, Control_c, 3, 11, 110
9, 70439, Note_on_c, 3, 65, 0
9, 70439, Note_on_c, 3, 69, 0
9, 70440, Note_on_c, 3, 64, 68
9, 70440, Note_on_c, 3, 70, 68
9, 70440, Control_c, 3, 11, 107
9, 70470, Control_c, 3, 11, 105
9, 70500, Control_c, 3, 11, 102
9, 70530, Control_c, 3, 11, 97
9, 70549, Note_on_c, 3, 64, 0
9, 70549, Note_on_c, 3, 70, 0
9, 70560, Note_on_c, 3, 65, 68
9, 70560, Note_on_c, 3, 69, 68
9, 70679, Note_on_c, 3, 65, 0
9, 70679, Note_on_c, 3, 69, 0
9, 70680, Note_on_c, 3, 72, 68
9, 70680, Note_on_c, 3, 69, 68
9, 70789, Note_on_c, 3, 72, 0
9, 70789, Note_on_c, 3, 69, 0
9, 70800, Note_on_c, 3, 69, 68
9, 70800, Note_on_c, 3, 72, 68
9, 70919, Note_on_c, 3, 69, 0
9, 70919, Note_on_c, 3, 72, 0
9, 70920, Note_on_c, 3, 70, 68
9, 70920, Note_on_c, 3, 74, 68
9, 71039, Note_on_c, 3, 70, 0
9, 71039, Note_on_c, 3, 74, 0
9, 71040, Note_on_c, 3, 72, 68
9, 71040, Note_on_c, 3, 69, 68
9, 71149, Note_on_c, 3, 72, 0
9, 71149, Note_on_c, 3, 69, 0
9, 71160, Note_on_c, 3, 69, 68
9, 71160, Note_on_c, 3, 72, 68
9, 71279, Note_on_c, 3, 69, 0
9, 71279, Note_on_c, 3, 72, 0
9, 71280, Note_on_c, 3, 67, 68
9, 71280, Note_on_c, 3, 70, 68
9, 71399, Note_on_c, 3, 67, 0
9, 71399, Note_on_c, 3, 70, 0
9, 71400, Note_on_c, 3, 65, 68
9, 71400, Note_on_c, 3, 69, 68
9, 71509, Note_on_c, 3, 65, 0
9, 71509, Note_on_c, 3, 69, 0
9, 71520, Note_on_c, 3, 65, 68
9, 71520, Note_on_c, 3, 69, 68
9, 71639, Note_on_c, 3, 65, 0
9, 71639, Note_on_c, 3, 69, 0
9, 71640, Note_on_c, 3, 67, 68
9, 71640, Note_on_c, 3, 70, 68
9, 71759, Note_on_c, 3, 67, 0
9, 71759, Note_on_c, 3, 70, 0
9, 71760, Note_on_c, 3, 64, 68
9, 71760, Note_on_c, 3, 67, 68
9, 71800, Control_c, 3, 11, 94
9, 71840, Control_c, 3, 11, 91
9, 71869, Note_on_c, 3, 64, 0
9, 71869, Note_on_c, 3, 67, 0
9, 71880, Note_on_c, 3, 67, 68
9, 71880, Note_on_c, 3, 64, 68
9, 71880, Control_c, 3, 11, 89
9, 71920, Control_c, 3, 11, 86
9, 71960, Control_c, 3, 11, 83
9, 71997, Note_on_c, 3, 67, 0
9, 71997, Note_on_c, 3, 64, 0
9, 71999, Control_c, 3, 11, 97
9, 72000, Note_on_c, 3, 69, 68
9, 72000, Note_on_c, 3, 65, 68
9, 72119, Note_on_c, 3, 69, 0
9, 72119, Note_on_c, 3, 65, 0
9, 72120, Note_on_c, 3, 72, 68
9, 72120, Note_on_c, 3, 69, 68
9, 72229, Note_on_c, 3, 72, 0
9, 72229, Note_on_c, 3, 69, 0
9, 72240, Note_on_c, 3, 72, 68
9, 72240, Note_on_c, 3, 69, 68
9, 72359, Note_on_c, 3, 72, 0
9, 72359, Note_on_c, 3, 69, 0
9, 72360, Note_on_c, 3, 70, 68
9, 72360, Note_on_c, 3, 74, 68
9, 72479, Note_on_c, 3, 70, 0
9, 72479, Note_on_c, 3, 74, 0
9, 72480, Note_on_c, 3, 72, 68
9, 72480, Note_on_c, 3, 69, 68
9, 72589, Note_on_c, 3, 72, 0
9, 72589, Note_on_c, 3, 69, 0
9, 72600, Note_on_c, 3, 69, 68
9, 72600, Note_on_c, 3, 72, 68
9, 72719, Note_on_c, 3, 69, 0
9, 72719, Note_on_c, 3, 72, 0
9, 72720, Note_on_c, 3, 70, 68
9, 72720, Note_on_c, 3, 67, 68
9, 72839, Note_on_c, 3, 70, 0
9, 72839, Note_on_c, 3, 67, 0
9, 72840, Note_on_c, 3, 65, 68
9, 72840, Note_on_c, 3, 69, 68
9, 72949, Note_on_c, 3, 65, 0
9, 72949, Note_on_c, 3, 69, 0
9, 72960, Note_on_c, 3, 69, 68
9, 72960, Note_on_c, 3, 65, 68
9, 73079, Note_on_c, 3, 69, 0
9, 73079, Note_on_c, 3, 65, 0
9, 73080, Note_on_c, 3, 67, 68
9, 73080, Note_on_c, 3, 70, 68
9, 73199, Note_on_c, 3, 67, 0
9, 73199, Note_on_c, 3, 70, 0
9, 73200, Note_on_c, 3, 67, 68
9, 73200, Note_on_c, 3, 64, 68
9, 73200, Control_c, 3, 11, 97
9, 73240, Control_c, 3, 11, 94
9, 73280, Control_c, 3, 11, 91
9, 73309, Note_on_c, 3, 67, 0
9, 73309, Note_on_c, 3, 64, 0
9, 73320, Note_on_c, 3, 67, 68
9, 73320, Control_c, 3, 11, 89
9, 73320, Note_on_c, 3, 64, 68
9, 73360, Control_c, 3, 11, 86
9, 73400, Control_c, 3, 11, 83
9, 73437, Note_on_c, 3, 67, 0
9, 73437, Note_on_c, 3, 64, 0
9, 73439, Control_c, 3, 11, 97
9, 73440, Note_on_c, 3, 69, 68
9, 73440, Note_on_c, 3, 65, 68
9, 73559, Note_on_c, 3, 69, 0
9, 73559, Note_on_c, 3, 65, 0
9, 73560, Note_on_c, 3, 69, 68
9, 73560, Note_on_c, 3, 72, 68
9, 73669, Note_on_c, 3, 69, 0
9, 73669, Note_on_c, 3, 72, 0
9, 73680, Note_on_c, 3, 69, 68
9, 73680, Note_on_c, 3, 72, 68
9, 73799, Note_on_c, 3, 69, 0
9, 73799, Note_on_c, 3, 72, 0
9, 73800, Note_on_c, 3, 74, 68
9, 73800, Note_on_c, 3, 70, 68
9, 73919, Note_on_c, 3, 74, 0
9, 73919, Note_on_c, 3, 70, 0
9, 73920, Note_on_c, 3, 69, 68
9, 73920, Note_on_c, 3, 72, 68
9, 74010, Control_c, 3, 11, 95
9, 74029, Note_on_c, 3, 69, 0
9, 74029, Note_on_c, 3, 72, 0
9, 74040, Note_on_c, 3, 72, 68
9, 74040, Note_on_c, 3, 69, 68
9, 74159, Note_on_c, 3, 72, 0
9, 74159, Note_on_c, 3, 69, 0
9, 74220, Control_c, 3, 11, 94
9, 74280, Note_on_c, 3, 69, 68
9, 74280, Note_on_c, 3, 65, 68
9, 74389, Note_on_c, 3, 69, 0
9, 74389, Note_on_c, 3, 65, 0
9, 74400, Note_on_c, 3, 65, 68
9, 74400, Note_on_c, 3, 69, 68
9, 74430, Control_c, 3, 11, 93
9, 74519, Note_on_c, 3, 65, 0
9, 74519, Note_on_c, 3, 69, 0
9, 74520, Note_on_c, 3, 67, 68
9, 74520, Note_on_c, 3, 70, 68
9, 74639, Note_on_c, 3, 67, 0
9, 74639, Note_on_c, 3, 70, 0
9, 74640, Note_on_c, 3, 65, 68
9, 74640, Control_c, 3, 11, 91
9, 74640, Note_on_c, 3, 69, 68
9, 74749, Note_on_c, 3, 65, 0
9, 74749, Note_on_c, 3, 69, 0
9, 74760, Note_on_c, 3, 65, 68
9, 74760, Note_on_c, 3, 69, 68
9, 74850, Control_c, 3, 11, 90
9, 74879, Note_on_c, 3, 65, 0
9, 74879, Note_on_c, 3, 69, 0
9, 75000, Note_on_c, 3, 65, 68
9, 75000, Note_on_c, 3, 57, 68
9, 75060, Control_c, 3, 11, 89
9, 75109, Note_on_c, 3, 65, 0
9, 75109, Note_on_c, 3, 57, 0
9, 75120, Note_on_c, 3, 57, 68
9, 75120, Note_on_c, 3, 65, 68
9, 75239, Note_on_c, 3, 57, 0
9, 75239, Note_on_c, 3, 65, 0
9, 75240, Note_on_c, 3, 67, 68
9, 75240, Note_on_c, 3, 58, 68
9, 75270, Control_c, 3, 11, 87
9, 75359, Note_on_c, 3, 67, 0
9, 75359, Note_on_c, 3, 58, 0
9, 75360, Note_on_c, 3, 65, 68
9, 75360, Note_on_c, 3, 57, 68
9, 75469, Note_on_c, 3, 65, 0
9, 75469, Note_on_c, 3, 57, 0
9, 75480, Note_on_c, 3, 57, 68
9, 75480, Control_c, 3, 11, 86
9, 75480, Note_on_c, 3, 65, 68
9, 75599, Note_on_c, 3, 57, 0
9, 75599, Note_on_c, 3, 65, 0
9, 75600, Note_on_c, 3, 58, 68
9, 75600, Note_on_c, 3, 67, 68
9, 75690, Control_c, 3, 11, 85
9, 75719, Note_on_c, 3, 58, 0
9, 75719, Note_on_c, 3, 67, 0
9, 75720, Note_on_c, 3, 65, 68
9, 75720, Note_on_c, 3, 57, 68
9, 75829, Note_on_c, 3, 65, 0
9, 75829, Note_on_c, 3, 57, 0
9, 75840, Note_on_c, 3, 57, 68
9, 75840, Note_on_c, 3, 65, 68
9, 75900, Control_c, 3, 11, 83
9, 75959, Note_on_c, 3, 57, 0
9, 75959, Note_on_c, 3, 65, 0
9, 75960, Note_on_c, 3, 58, 68
9, 75960, Note_on_c, 3, 67, 68
9, 76079, Note_on_c, 3, 58, 0
9, 76079, Note_on_c, 3, 67, 0
9, 76080, Note_on_c, 3, 65, 68
9, 76080, Note_on_c, 3, 57, 68
9, 76110, Control_c, 3, 11, 82
9, 76189, Note_on_c, 3, 65, 0
9, 76189, Note_on_c, 3, 57, 0
9, 76200, Note_on_c, 3, 57, 68
9, 76200, Note_on_c, 3, 65, 68
9, 76309, Note_on_c, 3, 57, 0
9, 76309, Note_on_c, 3, 65, 0
9, 76318, Control_c, 3, 11, 89
9, 76320, Note_on_c, 3, 65, 68
9, 77040, Note_on_c, 3, 69, 68
9, 77749, Note_on_c, 3, 65, 0
9, 77749, Note_on_c, 3, 69, 0
9, 77760, Note_on_c, 3, 70, 68
9, 77760, Note_on_c, 3, 67, 68
9, 79189, Note_on_c, 3, 70, 0
9, 79189, Note_on_c, 3, 67, 0
9, 79200, Note_on_c, 3, 65, 68
9, 79920, Note_on_c, 3, 69, 68
9, 80629, Note_on_c, 3, 65, 0
9, 80629, Note_on_c, 3, 69, 0
9, 80638, Control_c, 3, 11, 81
9, 80640, Note_on_c, 3, 69, 68
9, 80640, Note_on_c, 3, 72, 68
9, 80760, Control_c, 3, 11, 85
9, 80880, Control_c, 3, 11, 89
9, 81000, Control_c, 3, 11, 93
9, 81120, Control_c, 3, 11, 97
9, 81240, Control_c, 3, 11, 101
9, 81360, Control_c, 3, 11, 105
9, 81480, Control_c, 3, 11, 107
9, 81600, Control_c, 3, 11, 111
9, 81720, Control_c, 3, 11, 115
9, 81840, Control_c, 3, 11, 119
9, 81960, Control_c, 3, 11, 127
9, 82069, Note_on_c, 3, 69, 0
9, 82069, Note_on_c, 3, 72, 0
9, 82080, Note_on_c, 3, 67, 52
9, 82080, Note_on_c, 3, 71, 52
9, 82319, Note_on_c, 3, 67, 0
9, 82319, Note_on_c, 3, 71, 0
9, 87840, Note_on_c, 3, 67, 52
9, 87840, Note_on_c, 3, 55, 52
9, 89279, Note_on_c, 3, 67, 0
9, 89279, Note_on_c, 3, 55, 0
9, 89280, Note_on_c, 3, 55, 52
9, 89280, Note_on_c, 3, 67, 52
9, 90959, Note_on_c, 3, 55, 0
9, 90959, Note_on_c, 3, 67, 0
9, 96720, Control_c, 3, 11, 121
9, 96840, Control_c, 3, 11, 122
9, 96840, Note_on_c, 3, 75, 76
9, 96840, Note_on_c, 3, 67, 76
9, 96960, Control_c, 3, 11, 123
9, 97080, Control_c, 3, 11, 126
9, 97199, Note_on_c, 3, 75, 0
9, 97199, Note_on_c, 3, 67, 0
9, 97200, Control_c, 3, 11, 127
9, 97200, Note_on_c, 3, 74, 76
9, 97200, Note_on_c, 3, 62, 76
9, 97260, Control_c, 3, 11, 123
9, 97320, Control_c, 3, 11, 119
9, 97380, Control_c, 3, 11, 115
9, 97440, Control_c, 3, 11, 111
9, 97500, Control_c, 3, 11, 107
9, 97559, Note_on_c, 3, 74, 0
9, 97559, Note_on_c, 3, 62, 0
9, 97560, Control_c, 3, 11, 105
9, 97560, Note_on_c, 3, 80, 76
9, 97560, Note_on_c, 3, 68, 76
9, 97620, Control_c, 3, 11, 101
9, 97680, Control_c, 3, 11, 97
9, 97740, Control_c, 3, 11, 93
9, 97799, Note_on_c, 3, 80, 0
9, 97799, Note_on_c, 3, 68, 0
9, 97800, Note_on_c, 3, 65, 76
9, 97800, Control_c, 3, 11, 89
9, 97800, Note_on_c, 3, 77, 76
9, 97860, Control_c, 3, 11, 85
9, 97909, Note_on_c, 3, 65, 0
9, 97909, Note_on_c, 3, 77, 0
9, 97920, Control_c, 3, 11, 81
9, 97920, Note_on_c, 3, 75, 76
9, 97920, Note_on_c, 3, 63, 76
9, 98159, Note_on_c, 3, 75, 0
9, 98159, Note_on_c, 3, 63, 0
9, 99000, Control_c, 3, 11, 127
9, 99120, Note_on_c, 3, 75, 52
9, 99179, Note_on_c, 3, 75, 0
9, 99180, Note_on_c, 3, 77, 52
9, 99239, Note_on_c, 3, 77, 0
9, 99240, Note_on_c, 3, 79, 52
9, 99299, Note_on_c, 3, 79, 0
9, 99300, Note_on_c, 3, 77, 52
9, 99353, Note_on_c, 3, 77, 0
9, 99360, Note_on_c, 3, 77, 52
9, 99479, Note_on_c, 3, 77, 0
9, 99480, Note_on_c, 3, 75, 52
9, 99719, Note_on_c, 3, 75, 0
9, 100560, Note_on_c, 3, 75, 52
9, 100619, Note_on_c, 3, 75, 0
9, 100620, Note_on_c, 3, 77, 52
9, 100679, Note_on_c, 3, 77, 0
9, 100680, Note_on_c, 3, 79, 52
9, 100739, Note_on_c, 3, 79, 0
9, 100740, Note_on_c, 3, 75, 52
9, 100754, Note_on_c, 3, 75, 0
9, 100755, Note_on_c, 3, 74, 52
9, 100769, Note_on_c, 3, 74, 0
9, 100770, Note_on_c, 3, 75, 52
9, 100784, Note_on_c, 3, 75, 0
9, 100785, Note_on_c, 3, 77, 52
9, 100799, Note_on_c, 3, 77, 0
9, 100800, Note_on_c, 3, 75, 52
9, 100919, Note_on_c, 3, 75, 0
9, 100920, Note_on_c, 3, 74, 52
9, 101159, Note_on_c, 3, 74, 0
9, 102000, Note_on_c, 3, 77, 52
9, 102059, Note_on_c, 3, 77, 0
9, 102060, Note_on_c, 3, 79, 52
9, 102119, Note_on_c, 3, 79, 0
9, 102120, Note_on_c, 3, 80, 52
9, 102179, Note_on_c, 3, 80, 0
9, 102180, Note_on_c, 3, 79, 52
9, 102233, Note_on_c, 3, 79, 0
9, 102240, Note_on_c, 3, 79, 52
9, 102359, Note_on_c, 3, 79, 0
9, 102360, Note_on_c, 3, 77, 52
9, 102599, Note_on_c, 3, 77, 0
9, 103440, Note_on_c, 3, 77, 52
9, 103559, Note_on_c, 3, 77, 0
9, 103560, Note_on_c, 3, 79, 52
9, 103619, Note_on_c, 3, 79, 0
9, 103620, Note_on_c, 3, 80, 52
9, 103673, Note_on_c, 3, 80, 0
9, 103680, Note_on_c, 3, 82, 52
9, 103680, Note_on_c, 3, 51, 52
9, 104159, Note_on_c, 3, 82, 0
9, 104160, Note_on_c, 3, 79, 52
9, 104279, Note_on_c, 3, 79, 0
9, 104280, Note_on_c, 3, 75, 52
9, 104389, Note_on_c, 3, 75, 0
9, 104400, Note_on_c, 3, 75, 52
9, 104689, Note_on_c, 3, 75, 0
9, 104700, Note_on_c, 3, 77, 52
9, 104719, Note_on_c, 3, 77, 0
9, 104720, Note_on_c, 3, 75, 52
9, 104739, Note_on_c, 3, 75, 0
9, 104740, Note_on_c, 3, 74, 52
9, 104759, Note_on_c, 3, 74, 0
9, 104760, Note_on_c, 3, 75, 52
9, 104879, Note_on_c, 3, 75, 0
9, 104880, Note_on_c, 3, 80, 52
9, 104999, Note_on_c, 3, 80, 0
9, 105000, Note_on_c, 3, 84, 52
9, 105059, Note_on_c, 3, 84, 0
9, 105060, Note_on_c, 3, 82, 52
9, 105113, Note_on_c, 3, 82, 0
9, 105119, Note_on_c, 3, 51, 0
9, 105120, Note_on_c, 3, 51, 52
9, 105120, Note_on_c, 3, 82, 52
9, 105539, Note_on_c, 3, 82, 0
9, 105540, Note_on_c, 3, 79, 52
9, 105599, Note_on_c, 3, 79, 0
9, 105600, Note_on_c, 3, 82, 52
9, 105659, Note_on_c, 3, 82, 0
9, 105660, Note_on_c, 3, 79, 52
9, 105719, Note_on_c, 3, 79, 0
9, 105720, Note_on_c, 3, 75, 52
9, 105773, Note_on_c, 3, 75, 0
9, 105780, Note_on_c, 3, 75, 52
9, 105833, Note_on_c, 3, 75, 0
9, 105840, Note_on_c, 3, 75, 52
9, 106169, Note_on_c, 3, 75, 0
9, 106180, Note_on_c, 3, 77, 52
9, 106199, Note_on_c, 3, 77, 0
9, 106200, Note_on_c, 3, 75, 52
9, 106259, Note_on_c, 3, 75, 0
9, 106260, Note_on_c, 3, 74, 52
9, 106319, Note_on_c, 3, 74, 0
9, 106320, Note_on_c, 3, 75, 52
9, 106379, Note_on_c, 3, 75, 0
9, 106380, Note_on_c, 3, 80, 52
9, 106439, Note_on_c, 3, 80, 0
9, 106440, Note_on_c, 3, 84, 52
9, 106499, Note_on_c, 3, 84, 0
9, 106500, Note_on_c, 3, 82, 52
9, 106553, Note_on_c, 3, 82, 0
9, 106559, Note_on_c, 3, 51, 0
9, 106560, Note_on_c, 3, 82, 52
9, 106604, Note_on_c, 3, 82, 0
9, 106620, Note_on_c, 3, 79, 52
9, 106664, Note_on_c, 3, 79, 0
9, 106680, Note_on_c, 3, 75, 52
9, 106724, Note_on_c, 3, 75, 0
9, 106740, Note_on_c, 3, 70, 52
9, 106784, Note_on_c, 3, 70, 0
9, 106800, Note_on_c, 3, 67, 53
9, 106844, Note_on_c, 3, 67, 0
9, 106860, Note_on_c, 3, 63, 54
9, 106904, Note_on_c, 3, 63, 0
9, 106920, Note_on_c, 3, 60, 54
9, 106964, Note_on_c, 3, 60, 0
9, 106980, Note_on_c, 3, 63, 55
9, 107024, Note_on_c, 3, 63, 0
9, 107040, Note_on_c, 3, 69, 56
9, 107084, Note_on_c, 3, 69, 0
9, 107100, Note_on_c, 3, 72, 57
9, 107144, Note_on_c, 3, 72, 0
9, 107160, Note_on_c, 3, 75, 57
9, 107204, Note_on_c, 3, 75, 0
9, 107220, Note_on_c, 3, 81, 58
9, 107264, Note_on_c, 3, 81, 0
9, 107280, Note_on_c, 3, 80, 59
9, 107324, Note_on_c, 3, 80, 0
9, 107340, Note_on_c, 3, 77, 60
9, 107384, Note_on_c, 3, 77, 0
9, 107400, Note_on_c, 3, 74, 60
9, 107444, Note_on_c, 3, 74, 0
9, 107460, Note_on_c, 3, 68, 61
9, 107504, Note_on_c, 3, 68, 0
9, 107520, Note_on_c, 3, 65, 62
9, 107564, Note_on_c, 3, 65, 0
9, 107580, Note_on_c, 3, 62, 62
9, 107624, Note_on_c, 3, 62, 0
9, 107640, Note_on_c, 3, 58, 63
9, 107684, Note_on_c, 3, 58, 0
9, 107700, Note_on_c, 3, 63, 64
9, 107744, Note_on_c, 3, 63, 0
9, 107760, Note_on_c, 3, 67, 65
9, 107804, Note_on_c, 3, 67, 0
9, 107820, Note_on_c, 3, 70, 65
9, 107864, Note_on_c, 3, 70, 0
9, 107880, Note_on_c, 3, 75, 66
9, 107924, Note_on_c, 3, 75, 0
9, 107940, Note_on_c, 3, 79, 67
9, 107984, Note_on_c, 3, 79, 0
9, 108000, Note_on_c, 3, 60, 52
9, 108044, Note_on_c, 3, 60, 0
9, 108060, Note_on_c, 3, 65, 52
9, 108104, Note_on_c, 3, 65, 0
9, 108120, Note_on_c, 3, 68, 52
9, 108164, Note_on_c, 3, 68, 0
9, 108180, Note_on_c, 3, 72, 52
9, 108224, Note_on_c, 3, 72, 0
9, 108240, Note_on_c, 3, 77, 52
9, 108284, Note_on_c, 3, 77, 0
9, 108300, Note_on_c, 3, 80, 52
9, 108344, Note_on_c, 3, 80, 0
9, 108360, Note_on_c, 3, 84, 52
9, 108404, Note_on_c, 3, 84, 0
9, 108420, Note_on_c, 3, 82, 52
9, 108464, Note_on_c, 3, 82, 0
9, 108480, Note_on_c, 3, 80, 52
9, 108524, Note_on_c, 3, 80, 0
9, 108540, Note_on_c, 3, 79, 52
9, 108584, Note_on_c, 3, 79, 0
9, 108600, Note_on_c, 3, 77, 52
9, 108644, Note_on_c, 3, 77, 0
9, 108660, Note_on_c, 3, 79, 52
9, 108704, Note_on_c, 3, 79, 0
9, 108720, Note_on_c, 3, 80, 52
9, 108809, Note_on_c, 3, 80, 0
9, 108840, Note_on_c, 3, 82, 52
9, 108929, Note_on_c, 3, 82, 0
9, 108960, Note_on_c, 3, 84, 52
9, 109049, Note_on_c, 3, 84, 0
9, 109080, Note_on_c, 3, 72, 52
9, 109169, Note_on_c, 3, 72, 0
9, 109200, Note_on_c, 3, 80, 52
9, 109289, Note_on_c, 3, 80, 0
9, 109320, Note_on_c, 3, 77, 52
9, 109409, Note_on_c, 3, 77, 0
9, 109440, Note_on_c, 3, 77, 52
9, 109469, Note_on_c, 3, 77, 0
9, 109470, Note_on_c, 3, 79, 52
9, 109499, Note_on_c, 3, 79, 0
9, 109500, Note_on_c, 3, 77, 52
9, 109529, Note_on_c, 3, 77, 0
9, 109530, Note_on_c, 3, 79, 52
9, 109559, Note_on_c, 3, 79, 0
9, 109560, Note_on_c, 3, 77, 52
9, 109589, Note_on_c, 3, 77, 0
9, 109590, Note_on_c, 3, 79, 52
9, 109619, Note_on_c, 3, 79, 0
9, 109620, Note_on_c, 3, 77, 52
9, 109649, Note_on_c, 3, 77, 0
9, 109650, Note_on_c, 3, 79, 52
9, 109679, Note_on_c, 3, 79, 0
9, 109680, Note_on_c, 3, 77, 52
9, 109709, Note_on_c, 3, 77, 0
9, 109710, Note_on_c, 3, 79, 52
9, 109739, Note_on_c, 3, 79, 0
9, 109740, Note_on_c, 3, 77, 52
9, 109769, Note_on_c, 3, 77, 0
9, 109770, Note_on_c, 3, 79, 52
9, 109799, Note_on_c, 3, 79, 0
9, 109800, Note_on_c, 3, 77, 52
9, 109829, Note_on_c, 3, 77, 0
9, 109830, Note_on_c, 3, 79, 52
9, 109859, Note_on_c, 3, 79, 0
9, 109860, Note_on_c, 3, 77, 52
9, 109889, Note_on_c, 3, 77, 0
9, 109890, Note_on_c, 3, 79, 52
9, 109919, Note_on_c, 3, 79, 0
9, 109920, Note_on_c, 3, 77, 52
9, 109949, Note_on_c, 3, 77, 0
9, 109950, Note_on_c, 3, 79, 52
9, 109979, Note_on_c, 3, 79, 0
9, 109980, Note_on_c, 3, 77, 52
9, 110009, Note_on_c, 3, 77, 0
9, 110010, Note_on_c, 3, 79, 52
9, 110039, Note_on_c, 3, 79, 0
9, 110040, Note_on_c, 3, 77, 52
9, 110069, Note_on_c, 3, 77, 0
9, 110070, Note_on_c, 3, 79, 52
9, 110099, Note_on_c, 3, 79, 0
9, 110100, Note_on_c, 3, 77, 52
9, 110129, Note_on_c, 3, 77, 0
9, 110130, Note_on_c, 3, 79, 52
9, 110159, Note_on_c, 3, 79, 0
9, 110160, Note_on_c, 3, 77, 52
9, 110189, Note_on_c, 3, 77, 0
9, 110190, Note_on_c, 3, 79, 52
9, 110219, Note_on_c, 3, 79, 0
9, 110220, Note_on_c, 3, 77, 52
9, 110249, Note_on_c, 3, 77, 0
9, 110250, Note_on_c, 3, 79, 52
9, 110279, Note_on_c, 3, 79, 0
9, 110280, Note_on_c, 3, 77, 52
9, 110309, Note_on_c, 3, 77, 0
9, 110310, Note_on_c, 3, 79, 52
9, 110339, Note_on_c, 3, 79, 0
9, 110340, Note_on_c, 3, 77, 52
9, 110369, Note_on_c, 3, 77, 0
9, 110370, Note_on_c, 3, 79, 52
9, 110399, Note_on_c, 3, 79, 0
9, 110400, Note_on_c, 3, 77, 52
9, 110429, Note_on_c, 3, 77, 0
9, 110430, Note_on_c, 3, 79, 52
9, 110459, Note_on_c, 3, 79, 0
9, 110460, Note_on_c, 3, 77, 52
9, 110489, Note_on_c, 3, 77, 0
9, 110490, Note_on_c, 3, 79, 52
9, 110519, Note_on_c, 3, 79, 0
9, 110520, Note_on_c, 3, 77, 52
9, 110549, Note_on_c, 3, 77, 0
9, 110550, Note_on_c, 3, 79, 52
9, 110579, Note_on_c, 3, 79, 0
9, 110580, Note_on_c, 3, 77, 52
9, 110609, Note_on_c, 3, 77, 0
9, 110610, Note_on_c, 3, 79, 52
9, 110639, Note_on_c, 3, 79, 0
9, 110640, Note_on_c, 3, 77, 52
9, 110669, Note_on_c, 3, 77, 0
9, 110670, Note_on_c, 3, 79, 52
9, 110699, Note_on_c, 3, 79, 0
9, 110700, Note_on_c, 3, 77, 52
9, 110729, Note_on_c, 3, 77, 0
9, 110730, Note_on_c, 3, 79, 52
9, 110759, Note_on_c, 3, 79, 0
9, 110760, Note_on_c, 3, 77, 52
9, 110789, Note_on_c, 3, 77, 0
9, 110790, Note_on_c, 3, 79, 52
9, 110819, Note_on_c, 3, 79, 0
9, 110820, Note_on_c, 3, 75, 52
9, 110849, Note_on_c, 3, 75, 0
9, 110850, Note_on_c, 3, 77, 52
9, 110879, Note_on_c, 3, 77, 0
9, 111840, Control_c, 3, 11, 127
9, 111960, Note_on_c, 3, 73, 76
9, 111960, Note_on_c, 3, 61, 76
9, 111990, Control_c, 3, 11, 123
9, 112020, Control_c, 3, 11, 119
9, 112050, Control_c, 3, 11, 115
9, 112080, Control_c, 3, 11, 111
9, 112110, Control_c, 3, 11, 107
9, 112140, Control_c, 3, 11, 105
9, 112170, Control_c, 3, 11, 101
9, 112200, Control_c, 3, 11, 97
9, 112230, Control_c, 3, 11, 93
9, 112260, Control_c, 3, 11, 89
9, 112290, Control_c, 3, 11, 85
9, 112320, Control_c, 3, 11, 81
9, 112429, Note_on_c, 3, 73, 0
9, 112439, Note_on_c, 3, 61, 0
9, 112440, Note_on_c, 3, 73, 72
9, 112549, Note_on_c, 3, 73, 0
9, 112560, Note_on_c, 3, 73, 72
9, 112679, Note_on_c, 3, 73, 0
9, 112680, Note_on_c, 3, 75, 72
9, 112799, Note_on_c, 3, 75, 0
9, 112800, Note_on_c, 3, 73, 72
9, 112909, Note_on_c, 3, 73, 0
9, 112920, Note_on_c, 3, 73, 72
9, 113039, Note_on_c, 3, 73, 0
9, 113040, Note_on_c, 3, 71, 72
9, 113159, Note_on_c, 3, 71, 0
9, 113160, Note_on_c, 3, 70, 72
9, 113269, Note_on_c, 3, 70, 0
9, 113280, Note_on_c, 3, 70, 72
9, 113399, Note_on_c, 3, 70, 0
9, 113400, Note_on_c, 3, 68, 72
9, 113519, Note_on_c, 3, 68, 0
9, 113520, Note_on_c, 3, 66, 72
9, 113629, Note_on_c, 3, 66, 0
9, 113640, Note_on_c, 3, 66, 72
9, 113759, Note_on_c, 3, 66, 0
9, 113760, Note_on_c, 3, 64, 72
9, 113999, Note_on_c, 3, 64, 0
9, 115200, Control_c, 3, 11, 127
9, 115320, Note_on_c, 3, 78, 48
9, 115429, Note_on_c, 3, 78, 0
9, 115440, Note_on_c, 3, 78, 48
9, 115559, Note_on_c, 3, 78, 0
9, 115560, Note_on_c, 3, 80, 48
9, 115679, Note_on_c, 3, 80, 0
9, 115680, Note_on_c, 3, 78, 48
9, 115789, Note_on_c, 3, 78, 0
9, 115800, Note_on_c, 3, 78, 48
9, 115919, Note_on_c, 3, 78, 0
9, 115920, Note_on_c, 3, 76, 48
9, 116039, Note_on_c, 3, 76, 0
9, 116040, Note_on_c, 3, 75, 48
9, 116149, Note_on_c, 3, 75, 0
9, 116160, Note_on_c, 3, 75, 48
9, 116279, Note_on_c, 3, 75, 0
9, 116280, Note_on_c, 3, 73, 48
9, 116399, Note_on_c, 3, 73, 0
9, 116400, Note_on_c, 3, 71, 48
9, 116509, Note_on_c, 3, 71, 0
9, 116520, Note_on_c, 3, 71, 48
9, 116639, Note_on_c, 3, 71, 0
9, 116640, Note_on_c, 3, 70, 48
9, 116759, Note_on_c, 3, 70, 0
9, 117720, Control_c, 3, 11, 81
9, 118080, Note_on_c, 3, 78, 76
9, 118799, Note_on_c, 3, 78, 0
9, 118800, Note_on_c, 3, 79, 76
9, 119520, Control_c, 3, 11, 81
9, 119640, Control_c, 3, 11, 85
9, 119760, Control_c, 3, 11, 89
9, 119880, Control_c, 3, 11, 93
9, 120000, Control_c, 3, 11, 97
9, 120120, Control_c, 3, 11, 101
9, 120240, Control_c, 3, 11, 105
9, 120240, Note_on_c, 3, 75, 76
9, 120360, Control_c, 3, 11, 107
9, 120480, Control_c, 3, 11, 111
9, 120589, Note_on_c, 3, 79, 0
9, 120589, Note_on_c, 3, 75, 0
9, 120600, Note_on_c, 3, 75, 76
9, 120600, Control_c, 3, 11, 115
9, 120600, Note_on_c, 3, 72, 76
9, 120720, Control_c, 3, 11, 119
9, 120840, Control_c, 3, 11, 123
9, 120949, Note_on_c, 3, 75, 0
9, 120949, Note_on_c, 3, 72, 0
9, 120960, Control_c, 3, 11, 127
9, 120960, Note_on_c, 3, 75, 76
9, 120960, Note_on_c, 3, 72, 76
9, 121309, Note_on_c, 3, 72, 0
9, 121320, Note_on_c, 3, 69, 76
9, 121669, Note_on_c, 3, 75, 0
9, 121669, Note_on_c, 3, 69, 0
9, 121680, Note_on_c, 3, 74, 76
9, 121680, Note_on_c, 3, 70, 76
9, 122029, Note_on_c, 3, 74, 0
9, 122029, Note_on_c, 3, 70, 0
9, 122040, Note_on_c, 3, 76, 76
9, 122040, Note_on_c, 3, 67, 76
9, 122389, Note_on_c, 3, 76, 0
9, 122389, Note_on_c, 3, 67, 0
9, 122400, Note_on_c, 3, 75, 76
9, 122400, Note_on_c, 3, 72, 76
9, 122400, Control_c, 3, 11, 127
9, 122640, Control_c, 3, 11, 123
9, 122879, Note_on_c, 3, 75, 0
9, 122879, Note_on_c, 3, 72, 0
9, 122880, Note_on_c, 3, 77, 76
9, 122880, Note_on_c, 3, 74, 76
9, 122880, Control_c, 3, 11, 119
9, 122999, Note_on_c, 3, 77, 0
9, 122999, Note_on_c, 3, 74, 0
9, 123000, Note_on_c, 3, 72, 76
9, 123000, Note_on_c, 3, 75, 76
9, 123109, Note_on_c, 3, 72, 0
9, 123109, Note_on_c, 3, 75, 0
9, 123120, Control_c, 3, 11, 115
9, 123120, Note_on_c, 3, 70, 76
9, 123120, Note_on_c, 3, 74, 76
9, 123360, Control_c, 3, 11, 111
9, 123599, Note_on_c, 3, 70, 0
9, 123599, Note_on_c, 3, 74, 0
9, 123600, Control_c, 3, 11, 107
9, 123600, Note_on_c, 3, 75, 76
9, 123600, Note_on_c, 3, 72, 76
9, 123719, Note_on_c, 3, 75, 0
9, 123719, Note_on_c, 3, 72, 0
9, 123720, Note_on_c, 3, 70, 76
9, 123720, Note_on_c, 3, 74, 76
9, 123829, Note_on_c, 3, 70, 0
9, 123829, Note_on_c, 3, 74, 0
9, 123840, Note_on_c, 3, 72, 76
9, 123840, Note_on_c, 3, 69, 76
9, 123840, Control_c, 3, 11, 105
9, 124080, Control_c, 3, 11, 101
9, 124319, Note_on_c, 3, 72, 0
9, 124319, Note_on_c, 3, 69, 0
9, 124320, Note_on_c, 3, 74, 76
9, 124320, Control_c, 3, 11, 97
9, 124320, Note_on_c, 3, 70, 76
9, 124439, Note_on_c, 3, 74, 0
9, 124439, Note_on_c, 3, 70, 0
9, 124440, Note_on_c, 3, 72, 76
9, 124440, Note_on_c, 3, 69, 76
9, 124549, Note_on_c, 3, 72, 0
9, 124549, Note_on_c, 3, 69, 0
9, 124560, Note_on_c, 3, 70, 76
9, 124560, Note_on_c, 3, 67, 76
9, 124560, Control_c, 3, 11, 93
9, 124800, Control_c, 3, 11, 89
9, 125039, Note_on_c, 3, 70, 0
9, 125039, Note_on_c, 3, 67, 0
9, 125040, Note_on_c, 3, 72, 76
9, 125040, Note_on_c, 3, 69, 76
9, 125040, Control_c, 3, 11, 85
9, 125159, Note_on_c, 3, 72, 0
9, 125159, Note_on_c, 3, 69, 0
9, 125160, Note_on_c, 3, 67, 76
9, 125160, Note_on_c, 3, 70, 76
9, 125269, Note_on_c, 3, 67, 0
9, 125269, Note_on_c, 3, 70, 0
9, 125278, Control_c, 3, 11, 81
9, 125280, Note_on_c, 3, 65, 76
9, 125280, Note_on_c, 3, 69, 76
9, 125399, Note_on_c, 3, 65, 0
9, 125399, Note_on_c, 3, 69, 0
9, 125400, Note_on_c, 3, 70, 76
9, 125400, Note_on_c, 3, 67, 76
9, 125519, Note_on_c, 3, 70, 0
9, 125519, Note_on_c, 3, 67, 0
9, 125520, Note_on_c, 3, 63, 76
9, 125520, Note_on_c, 3, 67, 76
9, 125639, Note_on_c, 3, 63, 0
9, 125639, Note_on_c, 3, 67, 0
9, 125640, Note_on_c, 3, 69, 76
9, 125640, Note_on_c, 3, 65, 76
9, 125759, Note_on_c, 3, 69, 0
9, 125759, Note_on_c, 3, 65, 0
9, 125760, Note_on_c, 3, 62, 76
9, 125760, Note_on_c, 3, 65, 76
9, 125879, Note_on_c, 3, 62, 0
9, 125879, Note_on_c, 3, 65, 0
9, 125880, Note_on_c, 3, 67, 76
9, 125880, Note_on_c, 3, 63, 76
9, 125999, Note_on_c, 3, 67, 0
9, 125999, Note_on_c, 3, 63, 0
9, 126000, Note_on_c, 3, 60, 76
9, 126000, Note_on_c, 3, 63, 76
9, 126119, Note_on_c, 3, 60, 0
9, 126119, Note_on_c, 3, 63, 0
9, 126120, Note_on_c, 3, 62, 76
9, 126120, Note_on_c, 3, 65, 76
9, 126239, Note_on_c, 3, 62, 0
9, 126239, Note_on_c, 3, 65, 0
9, 126240, Note_on_c, 3, 62, 76
9, 126240, Note_on_c, 3, 58, 76
9, 126359, Note_on_c, 3, 62, 0
9, 126359, Note_on_c, 3, 58, 0
9, 126360, Note_on_c, 3, 63, 76
9, 126360, Note_on_c, 3, 60, 76
9, 126479, Note_on_c, 3, 63, 0
9, 126479, Note_on_c, 3, 60, 0
9, 126480, Note_on_c, 3, 60, 76
9, 126480, Note_on_c, 3, 57, 76
9, 126599, Note_on_c, 3, 60, 0
9, 126599, Note_on_c, 3, 57, 0
9, 126600, Note_on_c, 3, 62, 76
9, 126600, Note_on_c, 3, 58, 76
9, 126709, Note_on_c, 3, 62, 0
9, 126709, Note_on_c, 3, 58, 0
9, 126720, Note_on_c, 3, 60, 76
9, 126720, Note_on_c, 3, 63, 76
9, 126839, Note_on_c, 3, 60, 0
9, 126839, Note_on_c, 3, 63, 0
9, 126840, Note_on_c, 3, 62, 76
9, 126840, Note_on_c, 3, 65, 76
9, 126959, Note_on_c, 3, 62, 0
9, 126959, Note_on_c, 3, 65, 0
9, 126960, Note_on_c, 3, 67, 76
9, 126960, Note_on_c, 3, 63, 76
9, 127079, Note_on_c, 3, 67, 0
9, 127079, Note_on_c, 3, 63, 0
9, 127080, Note_on_c, 3, 62, 76
9, 127080, Note_on_c, 3, 65, 76
9, 127199, Note_on_c, 3, 62, 0
9, 127199, Note_on_c, 3, 65, 0
9, 127200, Note_on_c, 3, 62, 76
9, 127200, Note_on_c, 3, 58, 76
9, 127319, Note_on_c, 3, 62, 0
9, 127319, Note_on_c, 3, 58, 0
9, 127320, Note_on_c, 3, 63, 76
9, 127320, Note_on_c, 3, 60, 76
9, 127439, Note_on_c, 3, 63, 0
9, 127439, Note_on_c, 3, 60, 0
9, 127440, Note_on_c, 3, 57, 76
9, 127440, Note_on_c, 3, 60, 76
9, 127559, Note_on_c, 3, 57, 0
9, 127559, Note_on_c, 3, 60, 0
9, 127560, Note_on_c, 3, 58, 76
9, 127560, Note_on_c, 3, 62, 76
9, 127679, Note_on_c, 3, 58, 0
9, 127679, Note_on_c, 3, 62, 0
9, 127680, Note_on_c, 3, 63, 76
9, 127680, Note_on_c, 3, 60, 76
9, 127799, Note_on_c, 3, 63, 0
9, 127799, Note_on_c, 3, 60, 0
9, 127800, Note_on_c, 3, 65, 76
9, 127800, Note_on_c, 3, 62, 76
9, 127919, Note_on_c, 3, 65, 0
9, 127919, Note_on_c, 3, 62, 0
9, 127920, Note_on_c, 3, 63, 76
9, 127920, Note_on_c, 3, 67, 76
9, 128039, Note_on_c, 3, 63, 0
9, 128039, Note_on_c, 3, 67, 0
9, 128040, Note_on_c, 3, 60, 76
9, 128040, Note_on_c, 3, 63, 76
9, 128149, Note_on_c, 3, 60, 0
9, 128149, Note_on_c, 3, 63, 0
9, 128160, Note_on_c, 3, 65, 76
9, 128160, Note_on_c, 3, 62, 76
9, 128279, Note_on_c, 3, 65, 0
9, 128279, Note_on_c, 3, 62, 0
9, 128280, Note_on_c, 3, 62, 76
9, 128280, Note_on_c, 3, 58, 76
9, 128399, Note_on_c, 3, 62, 0
9, 128399, Note_on_c, 3, 58, 0
9, 128400, Note_on_c, 3, 63, 76
9, 128400, Note_on_c, 3, 60, 76
9, 128519, Note_on_c, 3, 63, 0
9, 128519, Note_on_c, 3, 60, 0
9, 128520, Note_on_c, 3, 60, 76
9, 128520, Note_on_c, 3, 57, 76
9, 128639, Note_on_c, 3, 60, 0
9, 128639, Note_on_c, 3, 57, 0
9, 128640, Note_on_c, 3, 62, 76
9, 128640, Note_on_c, 3, 58, 76
9, 128759, Note_on_c, 3, 62, 0
9, 128759, Note_on_c, 3, 58, 0
9, 128760, Note_on_c, 3, 63, 76
9, 128760, Note_on_c, 3, 60, 76
9, 128879, Note_on_c, 3, 63, 0
9, 128879, Note_on_c, 3, 60, 0
9, 128880, Note_on_c, 3, 65, 76
9, 128880, Note_on_c, 3, 62, 76
9, 128880, Control_c, 3, 11, 81
9, 128940, Control_c, 3, 11, 83
9, 128999, Note_on_c, 3, 65, 0
9, 128999, Note_on_c, 3, 62, 0
9, 129000, Control_c, 3, 11, 86
9, 129000, Note_on_c, 3, 62, 76
9, 129000, Note_on_c, 3, 58, 76
9, 129060, Control_c, 3, 11, 89
9, 129119, Note_on_c, 3, 62, 0
9, 129119, Note_on_c, 3, 58, 0
9, 129120, Control_c, 3, 11, 91
9, 129120, Note_on_c, 3, 60, 76
9, 129120, Note_on_c, 3, 63, 76
9, 129180, Control_c, 3, 11, 94
9, 129239, Note_on_c, 3, 60, 0
9, 129239, Note_on_c, 3, 63, 0
9, 129240, Control_c, 3, 11, 97
9, 129240, Note_on_c, 3, 60, 76
9, 129240, Note_on_c, 3, 57, 76
9, 129300, Control_c, 3, 11, 99
9, 129359, Note_on_c, 3, 60, 0
9, 129359, Note_on_c, 3, 57, 0
9, 129360, Control_c, 3, 11, 102
9, 129360, Note_on_c, 3, 58, 76
9, 129360, Note_on_c, 3, 62, 76
9, 129420, Control_c, 3, 11, 105
9, 129479, Note_on_c, 3, 58, 0
9, 129479, Note_on_c, 3, 62, 0
9, 129480, Note_on_c, 3, 60, 76
9, 129480, Note_on_c, 3, 69, 76
9, 129480, Control_c, 3, 11, 107
9, 129540, Control_c, 3, 11, 110
9, 129589, Note_on_c, 3, 60, 0
9, 129589, Note_on_c, 3, 69, 0
9, 129600, Note_on_c, 3, 70, 76
9, 129600, Note_on_c, 3, 62, 76
9, 129600, Control_c, 3, 11, 113
9, 129839, Note_on_c, 3, 70, 0
9, 129839, Note_on_c, 3, 62, 0
9, 129958, Control_c, 3, 11, 127
9, 129960, Note_on_c, 3, 74, 52
9, 129960, Note_on_c, 3, 58, 52
9, 130013, Note_on_c, 3, 58, 0
9, 130020, Note_on_c, 3, 62, 52
9, 130073, Note_on_c, 3, 62, 0
9, 130080, Note_on_c, 3, 65, 52
9, 130133, Note_on_c, 3, 65, 0
9, 130140, Note_on_c, 3, 70, 52
9, 130193, Note_on_c, 3, 70, 0
9, 130200, Note_on_c, 3, 74, 52
9, 130259, Note_on_c, 3, 74, 0
9, 130260, Note_on_c, 3, 77, 52
9, 130313, Note_on_c, 3, 77, 0
9, 130319, Note_on_c, 3, 74, 0
9, 130320, Note_on_c, 3, 82, 52
9, 130320, Note_on_c, 3, 70, 52
9, 130559, Note_on_c, 3, 82, 0
9, 130679, Note_on_c, 3, 70, 0
9, 130680, Note_on_c, 3, 65, 52
9, 131039, Note_on_c, 3, 65, 0
9, 131400, Note_on_c, 3, 58, 52
9, 131400, Note_on_c, 3, 74, 52
9, 131453, Note_on_c, 3, 58, 0
9, 131460, Note_on_c, 3, 62, 52
9, 131513, Note_on_c, 3, 62, 0
9, 131520, Note_on_c, 3, 65, 52
9, 131573, Note_on_c, 3, 65, 0
9, 131580, Note_on_c, 3, 70, 52
9, 131633, Note_on_c, 3, 70, 0
9, 131640, Note_on_c, 3, 74, 52
9, 131699, Note_on_c, 3, 74, 0
9, 131700, Note_on_c, 3, 77, 52
9, 131753, Note_on_c, 3, 77, 0
9, 131759, Note_on_c, 3, 74, 0
9, 131760, Note_on_c, 3, 82, 52
9, 131760, Note_on_c, 3, 70, 52
9, 131999, Note_on_c, 3, 82, 0
9, 132119, Note_on_c, 3, 70, 0
9, 132120, Note_on_c, 3, 65, 52
9, 132479, Note_on_c, 3, 65, 0
9, 132840, Note_on_c, 3, 75, 52
9, 132840, Note_on_c, 3, 53, 52
9, 132893, Note_on_c, 3, 53, 0
9, 132900, Note_on_c, 3, 57, 52
9, 132953, Note_on_c, 3, 57, 0
9, 132960, Note_on_c, 3, 60, 52
9, 133013, Note_on_c, 3, 60, 0
9, 133020, Note_on_c, 3, 65, 52
9, 133073, Note_on_c, 3, 65, 0
9, 133080, Note_on_c, 3, 69, 52
9, 133133, Note_on_c, 3, 69, 0
9, 133140, Note_on_c, 3, 72, 52
9, 133193, Note_on_c, 3, 72, 0
9, 133199, Note_on_c, 3, 75, 0
9, 133200, Note_on_c, 3, 72, 52
9, 133200, Note_on_c, 3, 77, 52
9, 133439, Note_on_c, 3, 77, 0
9, 133559, Note_on_c, 3, 72, 0
9, 133560, Note_on_c, 3, 65, 52
9, 133919, Note_on_c, 3, 65, 0
9, 134280, Note_on_c, 3, 75, 52
9, 134280, Note_on_c, 3, 53, 52
9, 134333, Note_on_c, 3, 53, 0
9, 134340, Note_on_c, 3, 57, 52
9, 134393, Note_on_c, 3, 57, 0
9, 134400, Note_on_c, 3, 60, 52
9, 134453, Note_on_c, 3, 60, 0
9, 134460, Note_on_c, 3, 65, 52
9, 134513, Note_on_c, 3, 65, 0
9, 134520, Note_on_c, 3, 69, 52
9, 134573, Note_on_c, 3, 69, 0
9, 134580, Note_on_c, 3, 72, 52
9, 134633, Note_on_c, 3, 72, 0
9, 134639, Note_on_c, 3, 75, 0
9, 134640, Note_on_c, 3, 77, 52
9, 134640, Note_on_c, 3, 72, 52
9, 134879, Note_on_c, 3, 77, 0
9, 134999, Note_on_c, 3, 72, 0
9, 135000, Note_on_c, 3, 65, 52
9, 135359, Note_on_c, 3, 65, 0
9, 135360, Note_on_c, 3, 70, 52
9, 135360, Note_on_c, 3, 65, 52
9, 135469, Note_on_c, 3, 70, 0
9, 135469, Note_on_c, 3, 65, 0
9, 135480, Note_on_c, 3, 65, 54
9, 135480, Note_on_c, 3, 70, 54
9, 135589, Note_on_c, 3, 65, 0
9, 135589, Note_on_c, 3, 70, 0
9, 135600, Note_on_c, 3, 65, 56
9, 135600, Note_on_c, 3, 70, 56
9, 135709, Note_on_c, 3, 65, 0
9, 135709, Note_on_c, 3, 70, 0
9, 135720, Note_on_c, 3, 65, 58
9, 135720, Note_on_c, 3, 70, 58
9, 135829, Note_on_c, 3, 65, 0
9, 135829, Note_on_c, 3, 70, 0
9, 135840, Note_on_c, 3, 70, 60
9, 135840, Note_on_c, 3, 65, 60
9, 135949, Note_on_c, 3, 70, 0
9, 135949, Note_on_c, 3, 65, 0
9, 135960, Note_on_c, 3, 65, 62
9, 135960, Note_on_c, 3, 70, 62
9, 136069, Note_on_c, 3, 65, 0
9, 136069, Note_on_c, 3, 70, 0
9, 136080, Note_on_c, 3, 70, 64
9, 136080, Note_on_c, 3, 67, 64
9, 136189, Note_on_c, 3, 70, 0
9, 136189, Note_on_c, 3, 67, 0
9, 136200, Note_on_c, 3, 67, 66
9, 136200, Note_on_c, 3, 70, 66
9, 136309, Note_on_c, 3, 67, 0
9, 136309, Note_on_c, 3, 70, 0
9, 136320, Note_on_c, 3, 67, 68
9, 136320, Note_on_c, 3, 70, 68
9, 136429, Note_on_c, 3, 67, 0
9, 136429, Note_on_c, 3, 70, 0
9, 136440, Note_on_c, 3, 70, 70
9, 136440, Note_on_c, 3, 67, 70
9, 136549, Note_on_c, 3, 70, 0
9, 136549, Note_on_c, 3, 67, 0
9, 136560, Note_on_c, 3, 70, 72
9, 136560, Note_on_c, 3, 67, 72
9, 136669, Note_on_c, 3, 70, 0
9, 136669, Note_on_c, 3, 67, 0
9, 136680, Note_on_c, 3, 67, 74
9, 136680, Note_on_c, 3, 70, 74
9, 136789, Note_on_c, 3, 67, 0
9, 136789, Note_on_c, 3, 70, 0
9, 136800, Note_on_c, 3, 70, 76
9, 136800, Note_on_c, 3, 65, 76
9, 136860, Control_c, 3, 11, 81
9, 136909, Note_on_c, 3, 70, 0
9, 136909, Note_on_c, 3, 65, 0
9, 136920, Note_on_c, 3, 65, 76
9, 136920, Note_on_c, 3, 70, 76
9, 137029, Note_on_c, 3, 65, 0
9, 137029, Note_on_c, 3, 70, 0
9, 137040, Note_on_c, 3, 70, 76
9, 137040, Note_on_c, 3, 65, 76
9, 137149, Note_on_c, 3, 70, 0
9, 137149, Note_on_c, 3, 65, 0
9, 137160, Note_on_c, 3, 70, 76
9, 137160, Note_on_c, 3, 65, 76
9, 137269, Note_on_c, 3, 70, 0
9, 137269, Note_on_c, 3, 65, 0
9, 137280, Note_on_c, 3, 70, 76
9, 137280, Note_on_c, 3, 65, 76
9, 137389, Note_on_c, 3, 70, 0
9, 137389, Note_on_c, 3, 65, 0
9, 137400, Note_on_c, 3, 65, 76
9, 137400, Note_on_c, 3, 70, 76
9, 137509, Note_on_c, 3, 65, 0
9, 137509, Note_on_c, 3, 70, 0
9, 137520, Note_on_c, 3, 70, 76
9, 137520, Note_on_c, 3, 65, 76
9, 137520, Control_c, 3, 11, 81
9, 137550, Control_c, 3, 11, 83
9, 137580, Control_c, 3, 11, 86
9, 137610, Control_c, 3, 11, 89
9, 137629, Note_on_c, 3, 70, 0
9, 137629, Note_on_c, 3, 65, 0
9, 137640, Note_on_c, 3, 65, 76
9, 137640, Note_on_c, 3, 70, 76
9, 137640, Control_c, 3, 11, 91
9, 137670, Control_c, 3, 11, 94
9, 137700, Control_c, 3, 11, 97
9, 137730, Control_c, 3, 11, 99
9, 137749, Note_on_c, 3, 65, 0
9, 137749, Note_on_c, 3, 70, 0
9, 137760, Control_c, 3, 11, 102
9, 137760, Note_on_c, 3, 70, 76
9, 137760, Note_on_c, 3, 65, 76
9, 137790, Control_c, 3, 11, 105
9, 137820, Control_c, 3, 11, 107
9, 137850, Control_c, 3, 11, 110
9, 137869, Note_on_c, 3, 70, 0
9, 137869, Note_on_c, 3, 65, 0
9, 137880, Note_on_c, 3, 69, 76
9, 137880, Note_on_c, 3, 65, 76
9, 137880, Control_c, 3, 11, 113
9, 137910, Control_c, 3, 11, 110
9, 137940, Control_c, 3, 11, 107
9, 137970, Control_c, 3, 11, 105
9, 137989, Note_on_c, 3, 69, 0
9, 137989, Note_on_c, 3, 65, 0
9, 138000, Note_on_c, 3, 65, 76
9, 138000, Note_on_c, 3, 69, 76
9, 138000, Control_c, 3, 11, 102
9, 138030, Control_c, 3, 11, 99
9, 138060, Control_c, 3, 11, 97
9, 138090, Control_c, 3, 11, 94
9, 138109, Note_on_c, 3, 65, 0
9, 138109, Note_on_c, 3, 69, 0
9, 138120, Note_on_c, 3, 69, 76
9, 138120, Note_on_c, 3, 65, 76
9, 138120, Control_c, 3, 11, 91
9, 138150, Control_c, 3, 11, 89
9, 138180, Control_c, 3, 11, 86
9, 138210, Control_c, 3, 11, 83
9, 138229, Note_on_c, 3, 69, 0
9, 138229, Note_on_c, 3, 65, 0
9, 138240, Note_on_c, 3, 70, 76
9, 138240, Note_on_c, 3, 62, 76
9, 138240, Control_c, 3, 11, 81
9, 138360, Control_c, 3, 11, 81
9, 138470, Control_c, 3, 11, 85
9, 138479, Note_on_c, 3, 70, 0
9, 138479, Note_on_c, 3, 62, 0
9, 138580, Control_c, 3, 11, 89
9, 138690, Control_c, 3, 11, 93
9, 138720, Note_on_c, 3, 70, 76
9, 138720, Note_on_c, 3, 74, 76
9, 138800, Control_c, 3, 11, 97
9, 138829, Note_on_c, 3, 70, 0
9, 138829, Note_on_c, 3, 74, 0
9, 138840, Note_on_c, 3, 74, 76
9, 138840, Note_on_c, 3, 70, 76
9, 138910, Control_c, 3, 11, 101
9, 138959, Note_on_c, 3, 74, 0
9, 138959, Note_on_c, 3, 70, 0
9, 138960, Note_on_c, 3, 72, 76
9, 138960, Note_on_c, 3, 75, 76
9, 139020, Control_c, 3, 11, 105
9, 139079, Note_on_c, 3, 72, 0
9, 139079, Note_on_c, 3, 75, 0
9, 139080, Note_on_c, 3, 70, 76
9, 139080, Note_on_c, 3, 74, 76
9, 139130, Control_c, 3, 11, 107
9, 139199, Note_on_c, 3, 70, 0
9, 139199, Note_on_c, 3, 74, 0
9, 139240, Control_c, 3, 11, 111
9, 139350, Control_c, 3, 11, 115
9, 139440, Note_on_c, 3, 70, 76
9, 139440, Note_on_c, 3, 67, 76
9, 139460, Control_c, 3, 11, 119
9, 139549, Note_on_c, 3, 70, 0
9, 139549, Note_on_c, 3, 67, 0
9, 139560, Note_on_c, 3, 67, 76
9, 139560, Note_on_c, 3, 70, 76
9, 139570, Control_c, 3, 11, 123
9, 139679, Note_on_c, 3, 67, 0
9, 139679, Note_on_c, 3, 70, 0
9, 139680, Note_on_c, 3, 72, 76
9, 139680, Note_on_c, 3, 69, 76
9, 139680, Control_c, 3, 11, 127
9, 139799, Note_on_c, 3, 72, 0
9, 139799, Note_on_c, 3, 69, 0
9, 139800, Note_on_c, 3, 70, 76
9, 139800, Note_on_c, 3, 67, 76
9, 139919, Note_on_c, 3, 70, 0
9, 139919, Note_on_c, 3, 67, 0
9, 140640, Note_on_c, 3, 64, 76
9, 140640, Note_on_c, 3, 60, 76
9, 140759, Note_on_c, 3, 64, 0
9, 140759, Note_on_c, 3, 60, 0
9, 140760, Note_on_c, 3, 58, 76
9, 140760, Note_on_c, 3, 62, 76
9, 140760, Control_c, 3, 11, 127
9, 140790, Control_c, 3, 11, 123
9, 140820, Control_c, 3, 11, 119
9, 140850, Control_c, 3, 11, 115
9, 140879, Note_on_c, 3, 58, 0
9, 140879, Note_on_c, 3, 62, 0
9, 140880, Note_on_c, 3, 60, 76
9, 140880, Control_c, 3, 11, 111
9, 140880, Note_on_c, 3, 57, 76
9, 140910, Control_c, 3, 11, 107
9, 140940, Control_c, 3, 11, 105
9, 140970, Control_c, 3, 11, 101
9, 140999, Note_on_c, 3, 60, 0
9, 140999, Note_on_c, 3, 57, 0
9, 141000, Control_c, 3, 11, 97
9, 141000, Note_on_c, 3, 55, 76
9, 141000, Note_on_c, 3, 58, 76
9, 141030, Control_c, 3, 11, 93
9, 141060, Control_c, 3, 11, 89
9, 141090, Control_c, 3, 11, 85
9, 141109, Note_on_c, 3, 55, 0
9, 141109, Note_on_c, 3, 58, 0
9, 141120, Control_c, 3, 11, 81
9, 141120, Note_on_c, 3, 53, 76
9, 141120, Note_on_c, 3, 57, 76
9, 141359, Note_on_c, 3, 53, 0
9, 141359, Note_on_c, 3, 57, 0
9, 141598, Control_c, 3, 11, 127
9, 141600, Note_on_c, 3, 60, 52
9, 141600, Note_on_c, 3, 57, 52
9, 141709, Note_on_c, 3, 60, 0
9, 141709, Note_on_c, 3, 57, 0
9, 141720, Note_on_c, 3, 57, 52
9, 141720, Note_on_c, 3, 60, 52
9, 141829, Note_on_c, 3, 57, 0
9, 141829, Note_on_c, 3, 60, 0
9, 141840, Note_on_c, 3, 62, 52
9, 141840, Note_on_c, 3, 58, 52
9, 142079, Note_on_c, 3, 62, 0
9, 142079, Note_on_c, 3, 58, 0
9, 142320, Note_on_c, 3, 58, 52
9, 142320, Note_on_c, 3, 62, 52
9, 142429, Note_on_c, 3, 58, 0
9, 142429, Note_on_c, 3, 62, 0
9, 142440, Note_on_c, 3, 58, 52
9, 142440, Note_on_c, 3, 62, 52
9, 142549, Note_on_c, 3, 58, 0
9, 142549, Note_on_c, 3, 62, 0
9, 142560, Note_on_c, 3, 60, 52
9, 142560, Note_on_c, 3, 63, 52
9, 142799, Note_on_c, 3, 60, 0
9, 142799, Note_on_c, 3, 63, 0
9, 143040, Note_on_c, 3, 63, 52
9, 143040, Note_on_c, 3, 60, 52
9, 143149, Note_on_c, 3, 63, 0
9, 143149, Note_on_c, 3, 60, 0
9, 143160, Note_on_c, 3, 63, 52
9, 143160, Note_on_c, 3, 60, 52
9, 143269, Note_on_c, 3, 63, 0
9, 143269, Note_on_c, 3, 60, 0
9, 143280, Note_on_c, 3, 62, 52
9, 143280, Note_on_c, 3, 58, 52
9, 143519, Note_on_c, 3, 62, 0
9, 143519, Note_on_c, 3, 58, 0
9, 143640, Control_c, 3, 11, 97
9, 143760, Note_on_c, 3, 62, 68
9, 143760, Note_on_c, 3, 58, 68
9, 143869, Note_on_c, 3, 62, 0
9, 143869, Note_on_c, 3, 58, 0
9, 143880, Note_on_c, 3, 58, 68
9, 143880, Note_on_c, 3, 62, 68
9, 143989, Note_on_c, 3, 58, 0
9, 143989, Note_on_c, 3, 62, 0
9, 144000, Control_c, 3, 11, 97
9, 144000, Note_on_c, 3, 57, 68
9, 144000, Note_on_c, 3, 65, 68
9, 144060, Control_c, 3, 11, 99
9, 144120, Control_c, 3, 11, 102
9, 144180, Control_c, 3, 11, 105
9, 144240, Control_c, 3, 11, 107
9, 144300, Control_c, 3, 11, 110
9, 144360, Control_c, 3, 11, 113
9, 144420, Control_c, 3, 11, 115
9, 144480, Control_c, 3, 11, 118
9, 144540, Control_c, 3, 11, 119
9, 144600, Control_c, 3, 11, 123
9, 144660, Control_c, 3, 11, 125
9, 144709, Note_on_c, 3, 57, 0
9, 144709, Note_on_c, 3, 65, 0
9, 144718, Control_c, 3, 11, 127
9, 144720, Note_on_c, 3, 69, 68
9, 144720, Note_on_c, 3, 72, 68
9, 144780, Control_c, 3, 11, 125
9, 144840, Control_c, 3, 11, 123
9, 144900, Control_c, 3, 11, 119
9, 144960, Control_c, 3, 11, 118
9, 145020, Control_c, 3, 11, 115
9, 145080, Control_c, 3, 11, 113
9, 145140, Control_c, 3, 11, 110
9, 145200, Control_c, 3, 11, 107
9, 145260, Control_c, 3, 11, 105
9, 145320, Control_c, 3, 11, 102
9, 145380, Control_c, 3, 11, 99
9, 145429, Note_on_c, 3, 69, 0
9, 145429, Note_on_c, 3, 72, 0
9, 145438, Control_c, 3, 11, 97
9, 145440, Note_on_c, 3, 70, 68
9, 145440, Note_on_c, 3, 74, 68
9, 145679, Note_on_c, 3, 70, 0
9, 145679, Note_on_c, 3, 74, 0
9, 145800, Note_on_c, 3, 72, 68
9, 145800, Note_on_c, 3, 70, 68
9, 146039, Note_on_c, 3, 72, 0
9, 146039, Note_on_c, 3, 70, 0
9, 146160, Note_on_c, 3, 70, 68
9, 146160, Note_on_c, 3, 74, 68
9, 146399, Note_on_c, 3, 70, 0
9, 146399, Note_on_c, 3, 74, 0
9, 146520, Note_on_c, 3, 69, 68
9, 146520, Note_on_c, 3, 65, 68
9, 146759, Note_on_c, 3, 69, 0
9, 146759, Note_on_c, 3, 65, 0
9, 146880, Note_on_c, 3, 65, 68
9, 146880, Note_on_c, 3, 69, 68
9, 146940, Control_c, 3, 11, 99
9, 147000, Control_c, 3, 11, 102
9, 147060, Control_c, 3, 11, 105
9, 147120, Control_c, 3, 11, 107
9, 147180, Control_c, 3, 11, 110
9, 147240, Control_c, 3, 11, 113
9, 147300, Control_c, 3, 11, 115
9, 147360, Control_c, 3, 11, 118
9, 147420, Control_c, 3, 11, 119
9, 147480, Control_c, 3, 11, 123
9, 147540, Control_c, 3, 11, 125
9, 147589, Note_on_c, 3, 65, 0
9, 147589, Note_on_c, 3, 69, 0
9, 147598, Control_c, 3, 11, 127
9, 147600, Note_on_c, 3, 72, 68
9, 147600, Note_on_c, 3, 63, 68
9, 147660, Control_c, 3, 11, 125
9, 147720, Control_c, 3, 11, 123
9, 147780, Control_c, 3, 11, 119
9, 147840, Control_c, 3, 11, 118
9, 147900, Control_c, 3, 11, 115
9, 147960, Control_c, 3, 11, 113
9, 148020, Control_c, 3, 11, 110
9, 148080, Control_c, 3, 11, 107
9, 148140, Control_c, 3, 11, 105
9, 148200, Control_c, 3, 11, 102
9, 148260, Control_c, 3, 11, 99
9, 148309, Note_on_c, 3, 72, 0
9, 148309, Note_on_c, 3, 63, 0
9, 148318, Control_c, 3, 11, 97
9, 148320, Note_on_c, 3, 62, 68
9, 148320, Note_on_c, 3, 70, 68
9, 148559, Note_on_c, 3, 62, 0
9, 148559, Note_on_c, 3, 70, 0
9, 154080, Control_c, 3, 11, 81
9, 154440, Note_on_c, 3, 77, 76
9, 154620, Control_c, 3, 11, 85
9, 154679, Note_on_c, 3, 77, 0
9, 154680, Note_on_c, 3, 72, 76
9, 154799, Note_on_c, 3, 72, 0
9, 154800, Note_on_c, 3, 74, 76
9, 154800, Control_c, 3, 11, 89
9, 154980, Control_c, 3, 11, 93
9, 155039, Note_on_c, 3, 74, 0
9, 155040, Note_on_c, 3, 70, 76
9, 155159, Note_on_c, 3, 70, 0
9, 155160, Control_c, 3, 11, 97
9, 155160, Note_on_c, 3, 65, 76
9, 155340, Control_c, 3, 11, 101
9, 155399, Note_on_c, 3, 65, 0
9, 155400, Note_on_c, 3, 69, 76
9, 155509, Note_on_c, 3, 69, 0
9, 155520, Note_on_c, 3, 70, 76
9, 155520, Control_c, 3, 11, 105
9, 155700, Control_c, 3, 11, 107
9, 155759, Note_on_c, 3, 70, 0
9, 155760, Note_on_c, 3, 74, 76
9, 155879, Note_on_c, 3, 74, 0
9, 155880, Control_c, 3, 11, 111
9, 155880, Note_on_c, 3, 77, 76
9, 156060, Control_c, 3, 11, 115
9, 156119, Note_on_c, 3, 77, 0
9, 156120, Note_on_c, 3, 72, 76
9, 156239, Note_on_c, 3, 72, 0
9, 156240, Note_on_c, 3, 74, 76
9, 156240, Control_c, 3, 11, 119
9, 156420, Control_c, 3, 11, 123
9, 156479, Note_on_c, 3, 74, 0
9, 156480, Note_on_c, 3, 70, 76
9, 156589, Note_on_c, 3, 70, 0
9, 156600, Control_c, 3, 11, 127
9, 156600, Note_on_c, 3, 72, 76
9, 156600, Note_on_c, 3, 69, 76
9, 156829, Note_on_c, 3, 72, 0
9, 156829, Note_on_c, 3, 69, 0
9, 156840, Note_on_c, 3, 72, 76
9, 156840, Note_on_c, 3, 69, 76
9, 156949, Note_on_c, 3, 72, 0
9, 156949, Note_on_c, 3, 69, 0
9, 156960, Note_on_c, 3, 74, 76
9, 156960, Note_on_c, 3, 70, 76
9, 158389, Note_on_c, 3, 74, 0
9, 158389, Note_on_c, 3, 70, 0
9, 158400, Note_on_c, 3, 74, 76
9, 158400, Note_on_c, 3, 70, 76
9, 158639, Note_on_c, 3, 74, 0
9, 158639, Note_on_c, 3, 70, 0
9, 159840, Note_on_c, 3, 65, 52
9, 159840, Note_on_c, 3, 70, 52
9, 160079, Note_on_c, 3, 65, 0
9, 160079, Note_on_c, 3, 70, 0
9, 160560, Note_on_c, 3, 65, 52
9, 160560, Note_on_c, 3, 69, 52
9, 160560, Control_c, 3, 11, 127
9, 160620, Control_c, 3, 11, 127
9, 160680, Control_c, 3, 11, 126
9, 160740, Control_c, 3, 11, 123
9, 160799, Note_on_c, 3, 65, 0
9, 160799, Note_on_c, 3, 69, 0
9, 160800, Control_c, 3, 11, 123
9, 161220, Control_c, 3, 11, 65
9, 161280, Note_on_c, 3, 66, 76
9, 161280, Note_on_c, 3, 69, 76
9, 161509, Note_on_c, 3, 66, 0
9, 161509, Note_on_c, 3, 69, 0
9, 161640, Note_on_c, 3, 67, 76
9, 161640, Note_on_c, 3, 70, 76
9, 162239, Note_on_c, 3, 67, 0
9, 162239, Note_on_c, 3, 70, 0
9, 162240, Note_on_c, 3, 67, 76
9, 162240, Note_on_c, 3, 64, 76
9, 162359, Note_on_c, 3, 67, 0
9, 162359, Note_on_c, 3, 64, 0
9, 162360, Note_on_c, 3, 65, 76
9, 162360, Note_on_c, 3, 69, 76
9, 162589, Note_on_c, 3, 65, 0
9, 162589, Note_on_c, 3, 69, 0
9, 162600, Note_on_c, 3, 69, 76
9, 162600, Note_on_c, 3, 65, 76
9, 162709, Note_on_c, 3, 69, 0
9, 162709, Note_on_c, 3, 65, 0
9, 162720, Note_on_c, 3, 69, 76
9, 162720, Note_on_c, 3, 66, 76
9, 163069, Note_on_c, 3, 69, 0
9, 163069, Note_on_c, 3, 66, 0
9, 163080, Note_on_c, 3, 67, 76
9, 163080, Note_on_c, 3, 70, 76
9, 163679, Note_on_c, 3, 67, 0
9, 163679, Note_on_c, 3, 70, 0
9, 163680, Note_on_c, 3, 64, 76
9, 163680, Note_on_c, 3, 67, 76
9, 163799, Note_on_c, 3, 64, 0
9, 163799, Note_on_c, 3, 67, 0
9, 163800, Control_c, 3, 11, 65
9, 163800, Note_on_c, 3, 69, 76
9, 163800, Note_on_c, 3, 65, 76
9, 163920, Control_c, 3, 11, 70
9, 164029, Note_on_c, 3, 69, 0
9, 164029, Note_on_c, 3, 65, 0
9, 164040, Note_on_c, 3, 65, 76
9, 164040, Control_c, 3, 11, 75
9, 164040, Note_on_c, 3, 69, 76
9, 164149, Note_on_c, 3, 65, 0
9, 164149, Note_on_c, 3, 69, 0
9, 164160, Note_on_c, 3, 65, 76
9, 164160, Note_on_c, 3, 70, 76
9, 164160, Control_c, 3, 11, 81
9, 164280, Control_c, 3, 11, 86
9, 164400, Control_c, 3, 11, 91
9, 164509, Note_on_c, 3, 65, 0
9, 164509, Note_on_c, 3, 70, 0
9, 164520, Note_on_c, 3, 65, 76
9, 164520, Control_c, 3, 11, 97
9, 164520, Note_on_c, 3, 69, 76
9, 164640, Control_c, 3, 11, 102
9, 164749, Note_on_c, 3, 65, 0
9, 164749, Note_on_c, 3, 69, 0
9, 164760, Note_on_c, 3, 65, 76
9, 164760, Note_on_c, 3, 69, 76
9, 164760, Control_c, 3, 11, 107
9, 164869, Note_on_c, 3, 65, 0
9, 164869, Note_on_c, 3, 69, 0
9, 164880, Control_c, 3, 11, 111
9, 164880, Note_on_c, 3, 65, 76
9, 164880, Note_on_c, 3, 70, 76
9, 165000, Control_c, 3, 11, 118
9, 165120, Control_c, 3, 11, 123
9, 165229, Note_on_c, 3, 65, 0
9, 165229, Note_on_c, 3, 70, 0
9, 165240, Control_c, 3, 11, 127
9, 165240, Note_on_c, 3, 69, 76
9, 165240, Note_on_c, 3, 65, 76
9, 165469, Note_on_c, 3, 69, 0
9, 165469, Note_on_c, 3, 65, 0
9, 165480, Note_on_c, 3, 69, 76
9, 165480, Note_on_c, 3, 65, 76
9, 165589, Note_on_c, 3, 69, 0
9, 165589, Note_on_c, 3, 65, 0
9, 165600, Note_on_c, 3, 65, 76
9, 165600, Note_on_c, 3, 70, 76
9, 165839, Note_on_c, 3, 65, 0
9, 165839, Note_on_c, 3, 70, 0
9, 165840, Note_on_c, 3, 70, 76
9, 165840, Note_on_c, 3, 58, 76
9, 165959, Note_on_c, 3, 70, 0
9, 165959, Note_on_c, 3, 58, 0
9, 165960, Note_on_c, 3, 65, 76
9, 165960, Note_on_c, 3, 53, 76
9, 166079, Note_on_c, 3, 65, 0
9, 166079, Note_on_c, 3, 53, 0
9, 166080, Note_on_c, 3, 58, 76
9, 166080, Note_on_c, 3, 70, 76
9, 166199, Note_on_c, 3, 58, 0
9, 166199, Note_on_c, 3, 70, 0
9, 166200, Note_on_c, 3, 74, 76
9, 166200, Note_on_c, 3, 62, 76
9, 166309, Note_on_c, 3, 74, 0
9, 166309, Note_on_c, 3, 62, 0
9, 166320, Note_on_c, 3, 65, 76
9, 166320, Note_on_c, 3, 77, 76
9, 166559, Note_on_c, 3, 65, 0
9, 166559, Note_on_c, 3, 77, 0
9, 166560, Note_on_c, 3, 74, 76
9, 166560, Note_on_c, 3, 62, 76
9, 166679, Note_on_c, 3, 74, 0
9, 166679, Note_on_c, 3, 62, 0
9, 166680, Note_on_c, 3, 70, 76
9, 166680, Note_on_c, 3, 58, 76
9, 166799, Note_on_c, 3, 70, 0
9, 166799, Note_on_c, 3, 58, 0
9, 166800, Note_on_c, 3, 74, 76
9, 166800, Note_on_c, 3, 62, 76
9, 166919, Note_on_c, 3, 74, 0
9, 166919, Note_on_c, 3, 62, 0
9, 166920, Note_on_c, 3, 65, 76
9, 166920, Note_on_c, 3, 77, 76
9, 167029, Note_on_c, 3, 65, 0
9, 167029, Note_on_c, 3, 77, 0
9, 167040, Note_on_c, 3, 74, 84
9, 167040, Note_on_c, 3, 77, 84
9, 167100, Control_c, 3, 11, 112
9, 167123, Control_c, 3, 11, 109
9, 167147, Control_c, 3, 11, 107
9, 167170, Control_c, 3, 11, 104
9, 167193, Control_c, 3, 11, 101
9, 167217, Control_c, 3, 11, 99
9, 167240, Control_c, 3, 11, 96
9, 167263, Control_c, 3, 11, 93
9, 167287, Control_c, 3, 11, 91
9, 167310, Control_c, 3, 11, 88
9, 167333, Control_c, 3, 11, 85
9, 167357, Control_c, 3, 11, 83
9, 167380, Control_c, 3, 11, 80
9, 167403, Control_c, 3, 11, 77
9, 167427, Control_c, 3, 11, 75
9, 167450, Control_c, 3, 11, 72
9, 167473, Control_c, 3, 11, 69
9, 167497, Control_c, 3, 11, 67
9, 167519, Note_on_c, 3, 74, 0
9, 167519, Note_on_c, 3, 77, 0
9, 169080, Control_c, 3, 11, 127
9, 169200, Note_on_c, 3, 65, 52
9, 169289, Note_on_c, 3, 65, 0
9, 169320, Note_on_c, 3, 70, 52
9, 169409, Note_on_c, 3, 70, 0
9, 169440, Note_on_c, 3, 74, 52
9, 169529, Note_on_c, 3, 74, 0
9, 169560, Note_on_c, 3, 77, 52
9, 169649, Note_on_c, 3, 77, 0
9, 169800, Note_on_c, 3, 72, 52
9, 169800, Note_on_c, 3, 70, 52
9, 169909, Note_on_c, 3, 72, 0
9, 169909, Note_on_c, 3, 70, 0
9, 169920, Note_on_c, 3, 70, 52
9, 169920, Note_on_c, 3, 72, 52
9, 170159, Note_on_c, 3, 70, 0
9, 170159, Note_on_c, 3, 72, 0
9, 170640, Note_on_c, 3, 72, 52
9, 170640, Note_on_c, 3, 69, 52
9, 170879, Note_on_c, 3, 72, 0
9, 170879, Note_on_c, 3, 69, 0
9, 171360, Note_on_c, 3, 70, 52
9, 171360, Note_on_c, 3, 62, 52
9, 171599, Note_on_c, 3, 70, 0
9, 171599, Note_on_c, 3, 62, 0
9, 173400, Note_on_c, 3, 70, 76
9, 173400, Note_on_c, 3, 74, 76
9, 173519, Note_on_c, 3, 70, 0
9, 173519, Note_on_c, 3, 74, 0
9, 173520, Note_on_c, 3, 72, 84
9, 173520, Note_on_c, 3, 75, 84
9, 173639, Note_on_c, 3, 72, 0
9, 173639, Note_on_c, 3, 75, 0
9, 173640, Note_on_c, 3, 65, 76
9, 173640, Note_on_c, 3, 69, 76
9, 173759, Note_on_c, 3, 65, 0
9, 173759, Note_on_c, 3, 69, 0
9, 173760, Note_on_c, 3, 70, 76
9, 173760, Note_on_c, 3, 67, 76
9, 173879, Note_on_c, 3, 70, 0
9, 173879, Note_on_c, 3, 67, 0
9, 173880, Note_on_c, 3, 69, 76
9, 173880, Note_on_c, 3, 72, 76
9, 173880, Control_c, 3, 11, 127
9, 173910, Control_c, 3, 11, 123
9, 173940, Control_c, 3, 11, 119
9, 173970, Control_c, 3, 11, 115
9, 173999, Note_on_c, 3, 69, 0
9, 173999, Note_on_c, 3, 72, 0
9, 174000, Note_on_c, 3, 70, 76
9, 174000, Note_on_c, 3, 74, 76
9, 174000, Control_c, 3, 11, 111
9, 174030, Control_c, 3, 11, 107
9, 174060, Control_c, 3, 11, 105
9, 174090, Control_c, 3, 11, 101
9, 174119, Note_on_c, 3, 70, 0
9, 174119, Note_on_c, 3, 74, 0
9, 174120, Note_on_c, 3, 75, 76
9, 174120, Control_c, 3, 11, 97
9, 174120, Note_on_c, 3, 69, 76
9, 174150, Control_c, 3, 11, 93
9, 174180, Control_c, 3, 11, 89
9, 174210, Control_c, 3, 11, 85
9, 174229, Note_on_c, 3, 75, 0
9, 174229, Note_on_c, 3, 69, 0
9, 174240, Control_c, 3, 11, 81
9, 174240, Note_on_c, 3, 70, 76
9, 174240, Note_on_c, 3, 74, 76
9, 174359, Note_on_c, 3, 70, 0
9, 174359, Note_on_c, 3, 74, 0
9, 174600, Control_c, 3, 11, 127
9, 174720, Note_on_c, 3, 74, 52
9, 174829, Note_on_c, 3, 74, 0
9, 174840, Note_on_c, 3, 74, 52
9, 174949, Note_on_c, 3, 74, 0
9, 174960, Note_on_c, 3, 75, 52
9, 175079, Note_on_c, 3, 75, 0
9, 175560, Note_on_c, 3, 65, 52
9, 175560, Note_on_c, 3, 69, 52
9, 175560, Control_c, 3, 11, 127
9, 175580, Control_c, 3, 11, 127
9, 175600, Control_c, 3, 11, 126
9, 175620, Control_c, 3, 11, 123
9, 175640, Control_c, 3, 11, 123
9, 175660, Control_c, 3, 11, 122
9, 175679, Note_on_c, 3, 65, 0
9, 175679, Note_on_c, 3, 69, 0
9, 175680, Note_on_c, 3, 62, 52
9, 175680, Control_c, 3, 11, 121
9, 175680, Note_on_c, 3, 70, 52
9, 175700, Control_c, 3, 11, 119
9, 175720, Control_c, 3, 11, 118
9, 175740, Control_c, 3, 11, 117
9, 175760, Control_c, 3, 11, 115
9, 175780, Control_c, 3, 11, 114
9, 175799, Note_on_c, 3, 62, 0
9, 175799, Note_on_c, 3, 70, 0
9, 175800, Control_c, 3, 11, 97
9, 176160, Note_on_c, 3, 74, 68
9, 176269, Note_on_c, 3, 74, 0
9, 176280, Note_on_c, 3, 74, 68
9, 176389, Note_on_c, 3, 74, 0
9, 176400, Note_on_c, 3, 75, 68
9, 176519, Note_on_c, 3, 75, 0
9, 177000, Note_on_c, 3, 69, 68
9, 177000, Note_on_c, 3, 65, 68
9, 177000, Control_c, 3, 11, 97
9, 177020, Control_c, 3, 11, 95
9, 177040, Control_c, 3, 11, 94
9, 177060, Control_c, 3, 11, 93
9, 177080, Control_c, 3, 11, 91
9, 177100, Control_c, 3, 11, 90
9, 177119, Note_on_c, 3, 69, 0
9, 177119, Note_on_c, 3, 65, 0
9, 177120, Control_c, 3, 11, 89
9, 177120, Note_on_c, 3, 70, 68
9, 177120, Note_on_c, 3, 62, 68
9, 177140, Control_c, 3, 11, 87
9, 177160, Control_c, 3, 11, 86
9, 177180, Control_c, 3, 11, 85
9, 177200, Control_c, 3, 11, 83
9, 177220, Control_c, 3, 11, 82
9, 177240, Control_c, 3, 11, 81
9, 177359, Note_on_c, 3, 70, 0
9, 177359, Note_on_c, 3, 62, 0
9, 179640, Control_c, 3, 11, 127
9, 180000, Note_on_c, 3, 82, 68
9, 180000, Note_on_c, 3, 79, 68
9, 180000, Control_c, 3, 11, 127
9, 180120, Control_c, 3, 11, 123
9, 180240, Control_c, 3, 11, 119
9, 180360, Control_c, 3, 11, 115
9, 180480, Control_c, 3, 11, 111
9, 180600, Control_c, 3, 11, 107
9, 180720, Control_c, 3, 11, 105
9, 180840, Control_c, 3, 11, 101
9, 180960, Control_c, 3, 11, 97
9, 181080, Control_c, 3, 11, 93
9, 181200, Control_c, 3, 11, 89
9, 181319, Note_on_c, 3, 82, 0
9, 181319, Note_on_c, 3, 79, 0
9, 181320, Note_on_c, 3, 79, 68
9, 181320, Control_c, 3, 11, 85
9, 181320, Note_on_c, 3, 75, 68
9, 181439, Note_on_c, 3, 79, 0
9, 181439, Note_on_c, 3, 75, 0
9, 181440, Note_on_c, 3, 74, 68
9, 181440, Note_on_c, 3, 77, 68
9, 181440, Control_c, 3, 11, 81
9, 181560, Control_c, 3, 11, 85
9, 181669, Note_on_c, 3, 74, 0
9, 181669, Note_on_c, 3, 77, 0
9, 181680, Note_on_c, 3, 74, 68
9, 181680, Control_c, 3, 11, 89
9, 181680, Note_on_c, 3, 77, 68
9, 181799, Note_on_c, 3, 74, 0
9, 181799, Note_on_c, 3, 77, 0
9, 181800, Note_on_c, 3, 79, 68
9, 181800, Note_on_c, 3, 75, 68
9, 181800, Control_c, 3, 11, 93
9, 181920, Control_c, 3, 11, 97
9, 182039, Note_on_c, 3, 79, 0
9, 182039, Note_on_c, 3, 75, 0
9, 182040, Control_c, 3, 11, 101
9, 182040, Note_on_c, 3, 77, 68
9, 182040, Note_on_c, 3, 74, 68
9, 182159, Note_on_c, 3, 77, 0
9, 182159, Note_on_c, 3, 74, 0
9, 182160, Note_on_c, 3, 77, 68
9, 182160, Note_on_c, 3, 80, 68
9, 182160, Control_c, 3, 11, 105
9, 182280, Control_c, 3, 11, 107
9, 182399, Note_on_c, 3, 77, 0
9, 182399, Note_on_c, 3, 80, 0
9, 182400, Note_on_c, 3, 79, 68
9, 182400, Control_c, 3, 11, 111
9, 182400, Note_on_c, 3, 75, 68
9, 182519, Note_on_c, 3, 79, 0
9, 182519, Note_on_c, 3, 75, 0
9, 182520, Control_c, 3, 11, 115
9, 182520, Note_on_c, 3, 79, 68
9, 182520, Note_on_c, 3, 82, 68
9, 182640, Control_c, 3, 11, 119
9, 182759, Note_on_c, 3, 79, 0
9, 182759, Note_on_c, 3, 82, 0
9, 182760, Note_on_c, 3, 77, 68
9, 182760, Control_c, 3, 11, 123
9, 182760, Note_on_c, 3, 80, 68
9, 182869, Note_on_c, 3, 77, 0
9, 182869, Note_on_c, 3, 80, 0
9, 182878, Control_c, 3, 11, 127
9, 182880, Note_on_c, 3, 84, 68
9, 182880, Note_on_c, 3, 80, 68
9, 183000, Control_c, 3, 11, 123
9, 183119, Note_on_c, 3, 84, 0
9, 183119, Note_on_c, 3, 80, 0
9, 183120, Note_on_c, 3, 79, 68
9, 183120, Control_c, 3, 11, 119
9, 183120, Note_on_c, 3, 82, 68
9, 183239, Note_on_c, 3, 79, 0
9, 183239, Note_on_c, 3, 82, 0
9, 183240, Control_c, 3, 11, 115
9, 183240, Note_on_c, 3, 80, 68
9, 183240, Note_on_c, 3, 77, 68
9, 183360, Control_c, 3, 11, 111
9, 183479, Note_on_c, 3, 80, 0
9, 183479, Note_on_c, 3, 77, 0
9, 183480, Control_c, 3, 11, 107
9, 183480, Note_on_c, 3, 79, 68
9, 183480, Note_on_c, 3, 75, 68
9, 183599, Note_on_c, 3, 79, 0
9, 183599, Note_on_c, 3, 75, 0
9, 183600, Control_c, 3, 11, 105
9, 183600, Note_on_c, 3, 74, 68
9, 183600, Note_on_c, 3, 77, 68
9, 183720, Control_c, 3, 11, 101
9, 183839, Note_on_c, 3, 74, 0
9, 183839, Note_on_c, 3, 77, 0
9, 183840, Note_on_c, 3, 79, 68
9, 183840, Note_on_c, 3, 75, 68
9, 183840, Control_c, 3, 11, 97
9, 183959, Note_on_c, 3, 79, 0
9, 183959, Note_on_c, 3, 75, 0
9, 183960, Note_on_c, 3, 77, 68
9, 183960, Note_on_c, 3, 80, 68
9, 183960, Control_c, 3, 11, 93
9, 184080, Control_c, 3, 11, 89
9, 184199, Note_on_c, 3, 77, 0
9, 184199, Note_on_c, 3, 80, 0
9, 184200, Control_c, 3, 11, 85
9, 184200, Note_on_c, 3, 79, 68
9, 184200, Note_on_c, 3, 75, 68
9, 184309, Note_on_c, 3, 79, 0
9, 184309, Note_on_c, 3, 75, 0
9, 184320, Control_c, 3, 11, 81
9, 184320, Note_on_c, 3, 74, 68
9, 184320, Note_on_c, 3, 77, 68
9, 184559, Note_on_c, 3, 74, 0
9, 184559, Note_on_c, 3, 77, 0
9, 186840, Control_c, 3, 11, 127
9, 187200, Note_on_c, 3, 74, 44
9, 187309, Note_on_c, 3, 74, 0
9, 187320, Note_on_c, 3, 70, 44
9, 187439, Note_on_c, 3, 70, 0
9, 187920, Note_on_c, 3, 74, 44
9, 188029, Note_on_c, 3, 74, 0
9, 188040, Note_on_c, 3, 70, 44
9, 188159, Note_on_c, 3, 70, 0
9, 188640, Note_on_c, 3, 74, 44
9, 188749, Note_on_c, 3, 74, 0
9, 188760, Note_on_c, 3, 70, 44
9, 188879, Note_on_c, 3, 70, 0
9, 189000, Note_on_c, 3, 74, 44
9, 189109, Note_on_c, 3, 74, 0
9, 189120, Note_on_c, 3, 70, 44
9, 189239, Note_on_c, 3, 70, 0
9, 192960, Note_on_c, 3, 74, 44
9, 193069, Note_on_c, 3, 74, 0
9, 193080, Note_on_c, 3, 70, 44
9, 193199, Note_on_c, 3, 70, 0
9, 193680, Note_on_c, 3, 74, 44
9, 193789, Note_on_c, 3, 74, 0
9, 193800, Note_on_c, 3, 70, 44
9, 193919, Note_on_c, 3, 70, 0
9, 194400, Note_on_c, 3, 74, 44
9, 194509, Note_on_c, 3, 74, 0
9, 194520, Note_on_c, 3, 70, 44
9, 194639, Note_on_c, 3, 70, 0
9, 194760, Note_on_c, 3, 74, 44
9, 194869, Note_on_c, 3, 74, 0
9, 194880, Note_on_c, 3, 70, 44
9, 194999, Note_on_c, 3, 70, 0
9, 196440, Note_on_c, 3, 79, 52
9, 196549, Note_on_c, 3, 79, 0
9, 196560, Note_on_c, 3, 79, 52
9, 196679, Note_on_c, 3, 79, 0
9, 196680, Note_on_c, 3, 77, 52
9, 196799, Note_on_c, 3, 77, 0
9, 196800, Note_on_c, 3, 75, 52
9, 196889, Note_on_c, 3, 75, 0
9, 196900, Note_on_c, 3, 77, 52
9, 196919, Note_on_c, 3, 77, 0
9, 196920, Note_on_c, 3, 75, 52
9, 197039, Note_on_c, 3, 75, 0
9, 197040, Note_on_c, 3, 74, 52
9, 197159, Note_on_c, 3, 74, 0
9, 197160, Note_on_c, 3, 72, 52
9, 197279, Note_on_c, 3, 72, 0
9, 197880, Note_on_c, 3, 65, 76
9, 197880, Note_on_c, 3, 69, 76
9, 197989, Note_on_c, 3, 65, 0
9, 197989, Note_on_c, 3, 69, 0
9, 198000, Note_on_c, 3, 70, 84
9, 198000, Note_on_c, 3, 65, 84
9, 198060, Control_c, 3, 11, 112
9, 198097, Control_c, 3, 11, 108
9, 198133, Control_c, 3, 11, 105
9, 198170, Control_c, 3, 11, 101
9, 198207, Control_c, 3, 11, 98
9, 198243, Control_c, 3, 11, 94
9, 198280, Control_c, 3, 11, 91
9, 198317, Control_c, 3, 11, 87
9, 198353, Control_c, 3, 11, 84
9, 198390, Control_c, 3, 11, 80
9, 198427, Control_c, 3, 11, 76
9, 198463, Control_c, 3, 11, 73
9, 198500, Control_c, 3, 11, 69
9, 198537, Control_c, 3, 11, 66
9, 198573, Control_c, 3, 11, 62
9, 198610, Control_c, 3, 11, 59
9, 198647, Control_c, 3, 11, 55
9, 198683, Control_c, 3, 11, 48
9, 198959, Note_on_c, 3, 70, 0
9, 198959, Note_on_c, 3, 65, 0
9, 199080, Note_on_c, 3, 62, 84
9, 199080, Note_on_c, 3, 65, 84
9, 199319, Note_on_c, 3, 62, 0
9, 199319, Note_on_c, 3, 65, 0
9, 199440, Note_on_c, 3, 65, 84
9, 199440, Note_on_c, 3, 62, 84
9, 199679, Note_on_c, 3, 65, 0
9, 199679, Note_on_c, 3, 62, 0
9, 200160, Control_c, 3, 11, 127
9, 200160, End_track
10, 0, Start_track
10, 0, Title_t, "Bassoon"
10, 0, MIDI_port, 0
10, 0, Program_c, 4, 70
10, 0, Control_c, 4, 7, 96
10, 0, Control_c, 4, 10, 65
10, 7200, Control_c, 4, 11, 81
10, 7560, Note_on_c, 4, 58, 76
10, 7560, Note_on_c, 4, 53, 76
10, 7799, Note_on_c, 4, 58, 0
10, 7799, Note_on_c, 4, 53, 0
10, 7920, Note_on_c, 4, 58, 76
10, 7920, Note_on_c, 4, 53, 76
10, 7920, Control_c, 4, 11, 81
10, 7950, Control_c, 4, 11, 83
10, 7980, Control_c, 4, 11, 86
10, 8010, Control_c, 4, 11, 89
10, 8040, Control_c, 4, 11, 91
10, 8070, Control_c, 4, 11, 94
10, 8100, Control_c, 4, 11, 97
10, 8130, Control_c, 4, 11, 99
10, 8159, Note_on_c, 4, 58, 0
10, 8159, Note_on_c, 4, 53, 0
10, 8160, Control_c, 4, 11, 102
10, 8190, Control_c, 4, 11, 105
10, 8220, Control_c, 4, 11, 107
10, 8250, Control_c, 4, 11, 110
10, 8280, Note_on_c, 4, 60, 76
10, 8280, Note_on_c, 4, 53, 76
10, 8280, Control_c, 4, 11, 113
10, 8310, Control_c, 4, 11, 110
10, 8340, Control_c, 4, 11, 107
10, 8370, Control_c, 4, 11, 105
10, 8400, Control_c, 4, 11, 102
10, 8430, Control_c, 4, 11, 99
10, 8460, Control_c, 4, 11, 97
10, 8490, Control_c, 4, 11, 94
10, 8519, Note_on_c, 4, 60, 0
10, 8519, Note_on_c, 4, 53, 0
10, 8610, Control_c, 4, 11, 127
10, 8640, Note_on_c, 4, 46, 52
10, 8640, Note_on_c, 4, 58, 52
10, 8879, Note_on_c, 4, 58, 0
10, 9840, Note_on_c, 4, 58, 52
10, 9899, Note_on_c, 4, 58, 0
10, 9900, Note_on_c, 4, 60, 52
10, 9959, Note_on_c, 4, 60, 0
10, 9960, Note_on_c, 4, 62, 52
10, 10019, Note_on_c, 4, 62, 0
10, 10020, Note_on_c, 4, 60, 52
10, 10069, Note_on_c, 4, 46, 0
10, 10073, Note_on_c, 4, 60, 0
10, 10080, Note_on_c, 4, 60, 52
10, 10080, Note_on_c, 4, 46, 52
10, 10199, Note_on_c, 4, 60, 0
10, 10200, Note_on_c, 4, 58, 52
10, 10439, Note_on_c, 4, 58, 0
10, 11280, Note_on_c, 4, 58, 52
10, 11339, Note_on_c, 4, 58, 0
10, 11340, Note_on_c, 4, 60, 52
10, 11399, Note_on_c, 4, 60, 0
10, 11400, Note_on_c, 4, 62, 52
10, 11459, Note_on_c, 4, 62, 0
10, 11460, Note_on_c, 4, 58, 52
10, 11474, Note_on_c, 4, 58, 0
10, 11475, Note_on_c, 4, 57, 52
10, 11489, Note_on_c, 4, 57, 0
10, 11490, Note_on_c, 4, 58, 52
10, 11504, Note_on_c, 4, 58, 0
10, 11505, Note_on_c, 4, 60, 52
10, 11509, Note_on_c, 4, 46, 0
10, 11519, Note_on_c, 4, 60, 0
10, 11520, Note_on_c, 4, 58, 52
10, 11520, Note_on_c, 4, 53, 52
10, 11639, Note_on_c, 4, 58, 0
10, 11640, Note_on_c, 4, 57, 52
10, 11879, Note_on_c, 4, 57, 0
10, 12720, Note_on_c, 4, 60, 52
10, 12779, Note_on_c, 4, 60, 0
10, 12780, Note_on_c, 4, 62, 52
10, 12839, Note_on_c, 4, 62, 0
10, 12840, Note_on_c, 4, 63, 52
10, 12899, Note_on_c, 4, 63, 0
10, 12900, Note_on_c, 4, 62, 52
10, 12949, Note_on_c, 4, 53, 0
10, 12953, Note_on_c, 4, 62, 0
10, 12960, Note_on_c, 4, 53, 52
10, 12960, Note_on_c, 4, 62, 52
10, 13079, Note_on_c, 4, 62, 0
10, 13080, Note_on_c, 4, 60, 52
10, 13319, Note_on_c, 4, 60, 0
10, 14160, Note_on_c, 4, 60, 52
10, 14279, Note_on_c, 4, 60, 0
10, 14280, Note_on_c, 4, 62, 52
10, 14339, Note_on_c, 4, 62, 0
10, 14340, Note_on_c, 4, 63, 52
10, 14389, Note_on_c, 4, 53, 0
10, 14393, Note_on_c, 4, 63, 0
10, 14398, Control_c, 4, 11, 81
10, 14400, Note_on_c, 4, 58, 76
10, 14400, Note_on_c, 4, 65, 76
10, 14520, Control_c, 4, 11, 85
10, 14640, Control_c, 4, 11, 89
10, 14760, Control_c, 4, 11, 93
10, 14879, Note_on_c, 4, 65, 0
10, 14880, Control_c, 4, 11, 97
10, 14880, Note_on_c, 4, 63, 76
10, 14999, Note_on_c, 4, 63, 0
10, 15000, Control_c, 4, 11, 101
10, 15000, Note_on_c, 4, 62, 76
10, 15109, Note_on_c, 4, 62, 0
10, 15120, Control_c, 4, 11, 105
10, 15120, Note_on_c, 4, 60, 76
10, 15240, Control_c, 4, 11, 107
10, 15360, Control_c, 4, 11, 111
10, 15409, Note_on_c, 4, 60, 0
10, 15420, Note_on_c, 4, 62, 76
10, 15439, Note_on_c, 4, 62, 0
10, 15440, Note_on_c, 4, 60, 76
10, 15459, Note_on_c, 4, 60, 0
10, 15460, Note_on_c, 4, 59, 76
10, 15479, Note_on_c, 4, 59, 0
10, 15480, Note_on_c, 4, 60, 76
10, 15480, Control_c, 4, 11, 115
10, 15599, Note_on_c, 4, 60, 0
10, 15600, Note_on_c, 4, 63, 76
10, 15600, Control_c, 4, 11, 119
10, 15709, Note_on_c, 4, 63, 0
10, 15720, Note_on_c, 4, 67, 76
10, 15720, Control_c, 4, 11, 123
10, 15809, Note_on_c, 4, 67, 0
10, 15829, Note_on_c, 4, 58, 0
10, 15838, Control_c, 4, 11, 127
10, 15840, Note_on_c, 4, 53, 76
10, 15900, Control_c, 4, 11, 81
10, 16309, Note_on_c, 4, 53, 0
10, 16320, Note_on_c, 4, 55, 76
10, 16419, Note_on_c, 4, 55, 0
10, 16440, Note_on_c, 4, 57, 76
10, 16529, Note_on_c, 4, 57, 0
10, 16560, Note_on_c, 4, 58, 76
10, 16560, Control_c, 4, 11, 81
10, 16590, Control_c, 4, 11, 83
10, 16620, Control_c, 4, 11, 86
10, 16650, Control_c, 4, 11, 89
10, 16659, Note_on_c, 4, 58, 0
10, 16680, Note_on_c, 4, 60, 76
10, 16680, Control_c, 4, 11, 91
10, 16710, Control_c, 4, 11, 94
10, 16740, Control_c, 4, 11, 97
10, 16770, Control_c, 4, 11, 99
10, 16779, Note_on_c, 4, 60, 0
10, 16800, Control_c, 4, 11, 102
10, 16800, Note_on_c, 4, 62, 76
10, 16830, Control_c, 4, 11, 105
10, 16860, Control_c, 4, 11, 107
10, 16889, Note_on_c, 4, 62, 0
10, 16890, Control_c, 4, 11, 110
10, 16920, Note_on_c, 4, 65, 76
10, 16920, Control_c, 4, 11, 113
10, 16950, Control_c, 4, 11, 110
10, 16980, Control_c, 4, 11, 107
10, 17010, Control_c, 4, 11, 105
10, 17039, Note_on_c, 4, 65, 0
10, 17040, Note_on_c, 4, 63, 76
10, 17040, Control_c, 4, 11, 102
10, 17070, Control_c, 4, 11, 99
10, 17100, Control_c, 4, 11, 97
10, 17130, Control_c, 4, 11, 94
10, 17149, Note_on_c, 4, 63, 0
10, 17160, Note_on_c, 4, 60, 76
10, 17160, Control_c, 4, 11, 91
10, 17190, Control_c, 4, 11, 89
10, 17219, Note_on_c, 4, 60, 0
10, 17220, Note_on_c, 4, 62, 76
10, 17220, Control_c, 4, 11, 86
10, 17250, Control_c, 4, 11, 83
10, 17273, Note_on_c, 4, 62, 0
10, 17278, Control_c, 4, 11, 81
10, 17280, Note_on_c, 4, 58, 76
10, 17280, Note_on_c, 4, 46, 76
10, 17519, Note_on_c, 4, 58, 0
10, 17519, Note_on_c, 4, 46, 0
10, 18360, Control_c, 4, 11, 97
10, 18720, Note_on_c, 4, 58, 68
10, 18720, Control_c, 4, 11, 97
10, 18780, Control_c, 4, 11, 99
10, 18840, Control_c, 4, 11, 102
10, 18900, Control_c, 4, 11, 105
10, 18960, Control_c, 4, 11, 107
10, 19020, Control_c, 4, 11, 110
10, 19080, Control_c, 4, 11, 113
10, 19140, Control_c, 4, 11, 115
10, 19199, Note_on_c, 4, 58, 0
10, 19200, Control_c, 4, 11, 118
10, 19200, Note_on_c, 4, 53, 68
10, 19260, Control_c, 4, 11, 119
10, 19319, Note_on_c, 4, 53, 0
10, 19320, Note_on_c, 4, 50, 68
10, 19320, Control_c, 4, 11, 123
10, 19380, Control_c, 4, 11, 125
10, 19429, Note_on_c, 4, 50, 0
10, 19440, Note_on_c, 4, 48, 68
10, 19440, Control_c, 4, 11, 127
10, 19500, Control_c, 4, 11, 125
10, 19560, Control_c, 4, 11, 123
10, 19620, Control_c, 4, 11, 119
10, 19680, Control_c, 4, 11, 118
10, 19740, Control_c, 4, 11, 115
10, 19799, Note_on_c, 4, 48, 0
10, 19800, Note_on_c, 4, 53, 68
10, 19800, Control_c, 4, 11, 113
10, 19860, Control_c, 4, 11, 110
10, 19920, Control_c, 4, 11, 107
10, 19980, Control_c, 4, 11, 105
10, 20040, Control_c, 4, 11, 102
10, 20100, Control_c, 4, 11, 99
10, 20149, Note_on_c, 4, 53, 0
10, 20160, Control_c, 4, 11, 97
10, 20160, Note_on_c, 4, 46, 68
10, 20399, Note_on_c, 4, 46, 0
10, 20880, Note_on_c, 4, 65, 68
10, 21479, Note_on_c, 4, 65, 0
10, 21480, Note_on_c, 4, 63, 68
10, 21569, Note_on_c, 4, 63, 0
10, 21580, Note_on_c, 4, 63, 68
10, 21599, Note_on_c, 4, 63, 0
10, 21600, Note_on_c, 4, 62, 68
10, 21600, Control_c, 4, 11, 97
10, 21660, Control_c, 4, 11, 99
10, 21719, Note_on_c, 4, 62, 0
10, 21720, Note_on_c, 4, 60, 68
10, 21720, Control_c, 4, 11, 102
10, 21780, Control_c, 4, 11, 105
10, 21839, Note_on_c, 4, 60, 0
10, 21840, Control_c, 4, 11, 107
10, 21840, Note_on_c, 4, 58, 68
10, 21900, Control_c, 4, 11, 110
10, 21929, Note_on_c, 4, 58, 0
10, 21940, Note_on_c, 4, 60, 68
10, 21959, Note_on_c, 4, 60, 0
10, 21960, Note_on_c, 4, 58, 68
10, 21960, Control_c, 4, 11, 113
10, 22020, Control_c, 4, 11, 115
10, 22079, Note_on_c, 4, 58, 0
10, 22080, Control_c, 4, 11, 118
10, 22080, Note_on_c, 4, 57, 68
10, 22140, Control_c, 4, 11, 119
10, 22199, Note_on_c, 4, 57, 0
10, 22200, Note_on_c, 4, 55, 68
10, 22200, Control_c, 4, 11, 123
10, 22260, Control_c, 4, 11, 125
10, 22309, Note_on_c, 4, 55, 0
10, 22320, Note_on_c, 4, 53, 68
10, 22320, Control_c, 4, 11, 127
10, 22380, Control_c, 4, 11, 125
10, 22440, Control_c, 4, 11, 123
10, 22500, Control_c, 4, 11, 119
10, 22560, Control_c, 4, 11, 118
10, 22620, Control_c, 4, 11, 115
10, 22680, Control_c, 4, 11, 113
10, 22740, Control_c, 4, 11, 110
10, 22799, Note_on_c, 4, 53, 0
10, 22800, Control_c, 4, 11, 107
10, 22800, Note_on_c, 4, 55, 68
10, 22860, Control_c, 4, 11, 105
10, 22919, Note_on_c, 4, 55, 0
10, 22920, Note_on_c, 4, 57, 68
10, 22920, Control_c, 4, 11, 102
10, 22980, Control_c, 4, 11, 99
10, 23029, Note_on_c, 4, 57, 0
10, 23038, Control_c, 4, 11, 97
10, 23040, Note_on_c, 4, 58, 68
10, 24239, Note_on_c, 4, 58, 0
10, 24240, Note_on_c, 4, 67, 76
10, 24240, Note_on_c, 4, 63, 76
10, 24359, Note_on_c, 4, 67, 0
10, 24359, Note_on_c, 4, 63, 0
10, 24360, Note_on_c, 4, 62, 68
10, 24360, Note_on_c, 4, 65, 68
10, 24469, Note_on_c, 4, 62, 0
10, 24469, Note_on_c, 4, 65, 0
10, 24480, Note_on_c, 4, 58, 68
10, 24480, Note_on_c, 4, 62, 68
10, 24719, Note_on_c, 4, 58, 0
10, 24719, Note_on_c, 4, 62, 0
10, 24840, Note_on_c, 4, 46, 68
10, 25079, Note_on_c, 4, 46, 0
10, 25200, Note_on_c, 4, 46, 68
10, 25439, Note_on_c, 4, 46, 0
10, 31320, Control_c, 4, 11, 127
10, 31680, Note_on_c, 4, 58, 52
10, 31680, Note_on_c, 4, 60, 52
10, 32269, Note_on_c, 4, 58, 0
10, 32269, Note_on_c, 4, 60, 0
10, 32280, Note_on_c, 4, 58, 52
10, 32280, Note_on_c, 4, 60, 52
10, 32629, Note_on_c, 4, 58, 0
10, 32629, Note_on_c, 4, 60, 0
10, 32640, Note_on_c, 4, 58, 52
10, 32640, Note_on_c, 4, 60, 52
10, 32989, Note_on_c, 4, 58, 0
10, 32989, Note_on_c, 4, 60, 0
10, 33000, Note_on_c, 4, 58, 52
10, 33000, Note_on_c, 4, 60, 52
10, 33109, Note_on_c, 4, 58, 0
10, 33109, Note_on_c, 4, 60, 0
10, 33120, Note_on_c, 4, 58, 52
10, 33120, Note_on_c, 4, 60, 52
10, 33709, Note_on_c, 4, 58, 0
10, 33709, Note_on_c, 4, 60, 0
10, 33720, Note_on_c, 4, 60, 52
10, 33720, Note_on_c, 4, 58, 52
10, 34069, Note_on_c, 4, 60, 0
10, 34069, Note_on_c, 4, 58, 0
10, 34080, Note_on_c, 4, 60, 52
10, 34080, Note_on_c, 4, 58, 52
10, 34429, Note_on_c, 4, 60, 0
10, 34429, Note_on_c, 4, 58, 0
10, 34440, Note_on_c, 4, 60, 52
10, 34440, Note_on_c, 4, 58, 52
10, 34549, Note_on_c, 4, 60, 0
10, 34549, Note_on_c, 4, 58, 0
10, 34560, Note_on_c, 4, 57, 52
10, 34560, Note_on_c, 4, 60, 52
10, 34799, Note_on_c, 4, 57, 0
10, 34799, Note_on_c, 4, 60, 0
10, 35280, Note_on_c, 4, 41, 52
10, 35989, Note_on_c, 4, 41, 0
10, 36000, Note_on_c, 4, 43, 52
10, 36000, Note_on_c, 4, 67, 52
10, 36589, Note_on_c, 4, 67, 0
10, 36600, Note_on_c, 4, 67, 52
10, 36949, Note_on_c, 4, 67, 0
10, 36960, Note_on_c, 4, 67, 52
10, 37309, Note_on_c, 4, 67, 0
10, 37320, Note_on_c, 4, 67, 52
10, 37429, Note_on_c, 4, 43, 0
10, 37429, Note_on_c, 4, 67, 0
10, 37440, Note_on_c, 4, 48, 52
10, 38149, Note_on_c, 4, 48, 0
10, 38160, Note_on_c, 4, 53, 52
10, 38869, Note_on_c, 4, 53, 0
10, 38878, Control_c, 4, 11, 97
10, 38880, Note_on_c, 4, 55, 68
10, 39589, Note_on_c, 4, 55, 0
10, 39600, Note_on_c, 4, 53, 68
10, 40309, Note_on_c, 4, 53, 0
10, 40320, Note_on_c, 4, 55, 68
10, 40320, Note_on_c, 4, 48, 68
10, 40320, Control_c, 4, 11, 97
10, 40380, Control_c, 4, 11, 99
10, 40440, Control_c, 4, 11, 102
10, 40500, Control_c, 4, 11, 105
10, 40560, Control_c, 4, 11, 107
10, 40620, Control_c, 4, 11, 110
10, 40680, Control_c, 4, 11, 113
10, 40740, Control_c, 4, 11, 115
10, 40800, Control_c, 4, 11, 118
10, 40860, Control_c, 4, 11, 119
10, 40920, Control_c, 4, 11, 123
10, 40980, Control_c, 4, 11, 125
10, 41029, Note_on_c, 4, 55, 0
10, 41029, Note_on_c, 4, 48, 0
10, 41040, Note_on_c, 4, 55, 68
10, 41040, Note_on_c, 4, 48, 68
10, 41040, Control_c, 4, 11, 127
10, 41100, Control_c, 4, 11, 125
10, 41160, Control_c, 4, 11, 123
10, 41220, Control_c, 4, 11, 119
10, 41280, Control_c, 4, 11, 118
10, 41340, Control_c, 4, 11, 115
10, 41400, Control_c, 4, 11, 113
10, 41460, Control_c, 4, 11, 110
10, 41520, Control_c, 4, 11, 107
10, 41580, Control_c, 4, 11, 105
10, 41640, Control_c, 4, 11, 102
10, 41700, Control_c, 4, 11, 99
10, 41749, Note_on_c, 4, 55, 0
10, 41749, Note_on_c, 4, 48, 0
10, 41760, Control_c, 4, 11, 97
10, 41760, Note_on_c, 4, 57, 68
10, 41760, Note_on_c, 4, 53, 68
10, 41999, Note_on_c, 4, 57, 0
10, 41999, Note_on_c, 4, 53, 0
10, 42120, Note_on_c, 4, 62, 68
10, 42120, Note_on_c, 4, 58, 68
10, 42359, Note_on_c, 4, 62, 0
10, 42359, Note_on_c, 4, 58, 0
10, 42480, Note_on_c, 4, 57, 68
10, 42480, Note_on_c, 4, 53, 68
10, 42719, Note_on_c, 4, 57, 0
10, 42719, Note_on_c, 4, 53, 0
10, 42840, Note_on_c, 4, 58, 68
10, 42840, Note_on_c, 4, 55, 68
10, 43079, Note_on_c, 4, 58, 0
10, 43079, Note_on_c, 4, 55, 0
10, 43200, Note_on_c, 4, 48, 68
10, 43200, Note_on_c, 4, 60, 68
10, 43200, Control_c, 4, 11, 97
10, 43260, Control_c, 4, 11, 99
10, 43320, Control_c, 4, 11, 102
10, 43380, Control_c, 4, 11, 105
10, 43440, Control_c, 4, 11, 107
10, 43500, Control_c, 4, 11, 110
10, 43560, Control_c, 4, 11, 113
10, 43620, Control_c, 4, 11, 115
10, 43680, Control_c, 4, 11, 118
10, 43740, Control_c, 4, 11, 119
10, 43800, Control_c, 4, 11, 123
10, 43860, Control_c, 4, 11, 125
10, 43909, Note_on_c, 4, 48, 0
10, 43909, Note_on_c, 4, 60, 0
10, 43920, Note_on_c, 4, 48, 68
10, 43920, Note_on_c, 4, 58, 68
10, 43920, Control_c, 4, 11, 127
10, 43980, Control_c, 4, 11, 125
10, 44040, Control_c, 4, 11, 123
10, 44100, Control_c, 4, 11, 119
10, 44160, Control_c, 4, 11, 118
10, 44220, Control_c, 4, 11, 115
10, 44280, Control_c, 4, 11, 113
10, 44340, Control_c, 4, 11, 110
10, 44400, Control_c, 4, 11, 107
10, 44460, Control_c, 4, 11, 105
10, 44520, Control_c, 4, 11, 102
10, 44580, Control_c, 4, 11, 99
10, 44629, Note_on_c, 4, 48, 0
10, 44629, Note_on_c, 4, 58, 0
10, 44640, Control_c, 4, 11, 97
10, 44640, Note_on_c, 4, 57, 68
10, 44640, Note_on_c, 4, 41, 64
10, 44759, Note_on_c, 4, 57, 0
10, 44760, Note_on_c, 4, 53, 64
10, 44879, Note_on_c, 4, 41, 0
10, 44879, Note_on_c, 4, 53, 0
10, 44880, Note_on_c, 4, 52, 64
10, 44989, Note_on_c, 4, 52, 0
10, 45000, Note_on_c, 4, 50, 64
10, 45099, Note_on_c, 4, 50, 0
10, 45120, Note_on_c, 4, 58, 64
10, 45219, Note_on_c, 4, 58, 0
10, 45240, Note_on_c, 4, 62, 64
10, 45329, Note_on_c, 4, 62, 0
10, 45360, Note_on_c, 4, 53, 64
10, 45719, Note_on_c, 4, 53, 0
10, 45720, Note_on_c, 4, 57, 64
10, 45959, Note_on_c, 4, 57, 0
10, 45960, Note_on_c, 4, 55, 64
10, 46069, Note_on_c, 4, 55, 0
10, 46080, Note_on_c, 4, 57, 64
10, 46559, Note_on_c, 4, 57, 0
10, 46560, Note_on_c, 4, 55, 64
10, 46679, Note_on_c, 4, 55, 0
10, 46680, Note_on_c, 4, 57, 64
10, 46769, Note_on_c, 4, 57, 0
10, 46780, Note_on_c, 4, 60, 64
10, 46799, Note_on_c, 4, 60, 0
10, 46800, Note_on_c, 4, 59, 64
10, 46919, Note_on_c, 4, 59, 0
10, 46920, Note_on_c, 4, 57, 64
10, 47039, Note_on_c, 4, 57, 0
10, 47040, Note_on_c, 4, 59, 64
10, 47159, Note_on_c, 4, 59, 0
10, 47160, Note_on_c, 4, 60, 64
10, 47399, Note_on_c, 4, 60, 0
10, 47400, Note_on_c, 4, 55, 64
10, 47509, Note_on_c, 4, 55, 0
10, 47520, Note_on_c, 4, 57, 64
10, 47999, Note_on_c, 4, 57, 0
10, 48000, Note_on_c, 4, 55, 64
10, 48119, Note_on_c, 4, 55, 0
10, 48120, Note_on_c, 4, 57, 64
10, 48209, Note_on_c, 4, 57, 0
10, 48220, Note_on_c, 4, 60, 64
10, 48239, Note_on_c, 4, 60, 0
10, 48240, Note_on_c, 4, 59, 64
10, 48359, Note_on_c, 4, 59, 0
10, 48360, Note_on_c, 4, 57, 64
10, 48479, Note_on_c, 4, 57, 0
10, 48480, Note_on_c, 4, 59, 64
10, 48599, Note_on_c, 4, 59, 0
10, 48600, Note_on_c, 4, 60, 64
10, 48839, Note_on_c, 4, 60, 0
10, 48840, Note_on_c, 4, 55, 64
10, 48949, Note_on_c, 4, 55, 0
10, 48958, Control_c, 4, 11, 81
10, 48960, Note_on_c, 4, 57, 72
10, 49439, Note_on_c, 4, 57, 0
10, 49440, Note_on_c, 4, 55, 72
10, 49559, Note_on_c, 4, 55, 0
10, 49560, Note_on_c, 4, 57, 72
10, 49649, Note_on_c, 4, 57, 0
10, 49660, Note_on_c, 4, 60, 72
10, 49679, Note_on_c, 4, 60, 0
10, 49680, Note_on_c, 4, 59, 72
10, 49799, Note_on_c, 4, 59, 0
10, 49800, Note_on_c, 4, 57, 72
10, 49919, Note_on_c, 4, 57, 0
10, 49920, Note_on_c, 4, 59, 72
10, 50039, Note_on_c, 4, 59, 0
10, 50040, Note_on_c, 4, 60, 72
10, 50040, Control_c, 4, 11, 81
10, 50160, Control_c, 4, 11, 83
10, 50279, Note_on_c, 4, 60, 0
10, 50280, Note_on_c, 4, 55, 76
10, 50280, Control_c, 4, 11, 85
10, 50399, Note_on_c, 4, 55, 0
10, 50400, Control_c, 4, 11, 87
10, 50400, Note_on_c, 4, 57, 76
10, 50520, Control_c, 4, 11, 89
10, 50639, Note_on_c, 4, 57, 0
10, 50640, Control_c, 4, 11, 91
10, 50640, Note_on_c, 4, 53, 76
10, 50759, Note_on_c, 4, 53, 0
10, 50760, Control_c, 4, 11, 93
10, 50760, Note_on_c, 4, 48, 76
10, 50880, Control_c, 4, 11, 95
10, 50999, Note_on_c, 4, 48, 0
10, 51000, Note_on_c, 4, 52, 76
10, 51000, Control_c, 4, 11, 97
10, 51119, Note_on_c, 4, 52, 0
10, 51120, Control_c, 4, 11, 99
10, 51120, Note_on_c, 4, 53, 76
10, 51240, Control_c, 4, 11, 101
10, 51359, Note_on_c, 4, 53, 0
10, 51360, Control_c, 4, 11, 103
10, 51360, Note_on_c, 4, 57, 76
10, 51479, Note_on_c, 4, 57, 0
10, 51480, Note_on_c, 4, 60, 76
10, 51480, Control_c, 4, 11, 105
10, 51600, Control_c, 4, 11, 106
10, 51719, Note_on_c, 4, 60, 0
10, 51720, Note_on_c, 4, 55, 76
10, 51720, Control_c, 4, 11, 107
10, 51839, Note_on_c, 4, 55, 0
10, 51840, Note_on_c, 4, 57, 76
10, 51840, Control_c, 4, 11, 110
10, 51960, Control_c, 4, 11, 111
10, 52079, Note_on_c, 4, 57, 0
10, 52080, Note_on_c, 4, 53, 76
10, 52080, Control_c, 4, 11, 114
10, 52199, Note_on_c, 4, 53, 0
10, 52200, Control_c, 4, 11, 115
10, 52200, Note_on_c, 4, 48, 76
10, 52320, Control_c, 4, 11, 118
10, 52439, Note_on_c, 4, 48, 0
10, 52440, Control_c, 4, 11, 119
10, 52440, Note_on_c, 4, 52, 76
10, 52559, Note_on_c, 4, 52, 0
10, 52560, Note_on_c, 4, 53, 76
10, 52560, Control_c, 4, 11, 122
10, 52680, Control_c, 4, 11, 123
10, 52799, Note_on_c, 4, 53, 0
10, 52800, Note_on_c, 4, 57, 76
10, 52800, Control_c, 4, 11, 126
10, 52909, Note_on_c, 4, 57, 0
10, 52920, Control_c, 4, 11, 127
10, 52920, Note_on_c, 4, 55, 76
10, 52920, Note_on_c, 4, 52, 76
10, 53149, Note_on_c, 4, 55, 0
10, 53149, Note_on_c, 4, 52, 0
10, 53160, Note_on_c, 4, 55, 76
10, 53160, Note_on_c, 4, 52, 76
10, 53269, Note_on_c, 4, 55, 0
10, 53269, Note_on_c, 4, 52, 0
10, 53280, Note_on_c, 4, 53, 76
10, 53280, Note_on_c, 4, 57, 76
10, 54709, Note_on_c, 4, 53, 0
10, 54709, Note_on_c, 4, 57, 0
10, 54720, Note_on_c, 4, 53, 76
10, 54720, Note_on_c, 4, 57, 76
10, 54959, Note_on_c, 4, 53, 0
10, 54959, Note_on_c, 4, 57, 0
10, 56160, Note_on_c, 4, 60, 52
10, 56399, Note_on_c, 4, 60, 0
10, 56880, Note_on_c, 4, 60, 52
10, 56880, Note_on_c, 4, 48, 52
10, 56880, Control_c, 4, 11, 127
10, 56940, Control_c, 4, 11, 127
10, 57000, Control_c, 4, 11, 126
10, 57060, Control_c, 4, 11, 123
10, 57119, Note_on_c, 4, 60, 0
10, 57119, Note_on_c, 4, 48, 0
10, 57120, Control_c, 4, 11, 123
10, 57180, Control_c, 4, 11, 122
10, 60000, Control_c, 4, 11, 65
10, 60120, Note_on_c, 4, 52, 76
10, 60120, Note_on_c, 4, 55, 76
10, 60120, Control_c, 4, 11, 65
10, 60240, Control_c, 4, 11, 70
10, 60349, Note_on_c, 4, 52, 0
10, 60349, Note_on_c, 4, 55, 0
10, 60360, Control_c, 4, 11, 75
10, 60360, Note_on_c, 4, 52, 76
10, 60360, Note_on_c, 4, 55, 76
10, 60469, Note_on_c, 4, 52, 0
10, 60469, Note_on_c, 4, 55, 0
10, 60480, Note_on_c, 4, 53, 76
10, 60480, Note_on_c, 4, 57, 76
10, 60480, Control_c, 4, 11, 81
10, 60600, Control_c, 4, 11, 86
10, 60720, Control_c, 4, 11, 91
10, 60829, Note_on_c, 4, 53, 0
10, 60829, Note_on_c, 4, 57, 0
10, 60840, Control_c, 4, 11, 97
10, 60840, Note_on_c, 4, 58, 76
10, 60840, Note_on_c, 4, 55, 76
10, 60960, Control_c, 4, 11, 102
10, 61069, Note_on_c, 4, 58, 0
10, 61069, Note_on_c, 4, 55, 0
10, 61080, Note_on_c, 4, 55, 76
10, 61080, Control_c, 4, 11, 107
10, 61080, Note_on_c, 4, 58, 76
10, 61189, Note_on_c, 4, 55, 0
10, 61189, Note_on_c, 4, 58, 0
10, 61200, Note_on_c, 4, 53, 76
10, 61200, Control_c, 4, 11, 111
10, 61200, Note_on_c, 4, 57, 76
10, 61320, Control_c, 4, 11, 118
10, 61440, Control_c, 4, 11, 123
10, 61549, Note_on_c, 4, 53, 0
10, 61549, Note_on_c, 4, 57, 0
10, 61560, Control_c, 4, 11, 127
10, 61560, Note_on_c, 4, 55, 76
10, 61560, Note_on_c, 4, 52, 76
10, 61789, Note_on_c, 4, 55, 0
10, 61789, Note_on_c, 4, 52, 0
10, 61800, Note_on_c, 4, 52, 76
10, 61800, Note_on_c, 4, 55, 76
10, 61919, Note_on_c, 4, 52, 0
10, 61919, Note_on_c, 4, 55, 0
10, 61920, Note_on_c, 4, 57, 76
10, 61920, Note_on_c, 4, 53, 76
10, 62149, Note_on_c, 4, 57, 0
10, 62149, Note_on_c, 4, 53, 0
10, 62160, Note_on_c, 4, 53, 76
10, 62279, Note_on_c, 4, 53, 0
10, 62280, Note_on_c, 4, 48, 76
10, 62399, Note_on_c, 4, 48, 0
10, 62400, Note_on_c, 4, 53, 76
10, 62519, Note_on_c, 4, 53, 0
10, 62520, Note_on_c, 4, 57, 76
10, 62629, Note_on_c, 4, 57, 0
10, 62640, Note_on_c, 4, 60, 76
10, 62879, Note_on_c, 4, 60, 0
10, 62880, Note_on_c, 4, 57, 76
10, 62999, Note_on_c, 4, 57, 0
10, 63000, Note_on_c, 4, 53, 76
10, 63119, Note_on_c, 4, 53, 0
10, 63120, Note_on_c, 4, 57, 76
10, 63239, Note_on_c, 4, 57, 0
10, 63240, Note_on_c, 4, 60, 76
10, 63349, Note_on_c, 4, 60, 0
10, 63360, Note_on_c, 4, 48, 84
10, 63360, Note_on_c, 4, 65, 84
10, 63420, Control_c, 4, 11, 112
10, 63443, Control_c, 4, 11, 109
10, 63467, Control_c, 4, 11, 107
10, 63469, Note_on_c, 4, 48, 0
10, 63480, Note_on_c, 4, 48, 84
10, 63490, Control_c, 4, 11, 104
10, 63513, Control_c, 4, 11, 101
10, 63537, Control_c, 4, 11, 99
10, 63560, Control_c, 4, 11, 96
10, 63583, Control_c, 4, 11, 93
10, 63589, Note_on_c, 4, 48, 0
10, 63600, Note_on_c, 4, 48, 84
10, 63607, Control_c, 4, 11, 91
10, 63630, Control_c, 4, 11, 88
10, 63653, Control_c, 4, 11, 85
10, 63677, Control_c, 4, 11, 83
10, 63700, Control_c, 4, 11, 80
10, 63709, Note_on_c, 4, 48, 0
10, 63720, Note_on_c, 4, 48, 84
10, 63723, Control_c, 4, 11, 77
10, 63747, Control_c, 4, 11, 75
10, 63770, Control_c, 4, 11, 72
10, 63793, Control_c, 4, 11, 69
10, 63817, Control_c, 4, 11, 67
10, 63829, Note_on_c, 4, 65, 0
10, 63829, Note_on_c, 4, 48, 0
10, 63840, Note_on_c, 4, 60, 84
10, 63840, Control_c, 4, 11, 64
10, 63929, Note_on_c, 4, 60, 0
10, 63960, Note_on_c, 4, 57, 84
10, 64049, Note_on_c, 4, 57, 0
10, 64080, Note_on_c, 4, 60, 84
10, 64169, Note_on_c, 4, 60, 0
10, 64200, Note_on_c, 4, 57, 84
10, 64289, Note_on_c, 4, 57, 0
10, 64320, Note_on_c, 4, 53, 84
10, 64409, Note_on_c, 4, 53, 0
10, 64440, Note_on_c, 4, 48, 84
10, 64529, Note_on_c, 4, 48, 0
10, 64560, Note_on_c, 4, 53, 84
10, 64649, Note_on_c, 4, 53, 0
10, 64680, Note_on_c, 4, 57, 84
10, 64769, Note_on_c, 4, 57, 0
10, 64800, Note_on_c, 4, 53, 84
10, 64889, Note_on_c, 4, 53, 0
10, 64920, Note_on_c, 4, 48, 84
10, 65009, Note_on_c, 4, 48, 0
10, 65040, Note_on_c, 4, 45, 84
10, 65129, Note_on_c, 4, 45, 0
10, 65160, Note_on_c, 4, 41, 84
10, 65249, Note_on_c, 4, 41, 0
10, 65280, Note_on_c, 4, 45, 84
10, 65369, Note_on_c, 4, 45, 0
10, 65400, Note_on_c, 4, 48, 84
10, 65489, Note_on_c, 4, 48, 0
10, 65520, Note_on_c, 4, 53, 84
10, 65609, Note_on_c, 4, 53, 0
10, 65640, Note_on_c, 4, 57, 84
10, 65729, Note_on_c, 4, 57, 0
10, 65760, Note_on_c, 4, 60, 84
10, 65849, Note_on_c, 4, 60, 0
10, 65880, Note_on_c, 4, 65, 84
10, 65969, Note_on_c, 4, 65, 0
10, 66000, Note_on_c, 4, 53, 84
10, 66089, Note_on_c, 4, 53, 0
10, 66120, Note_on_c, 4, 58, 84
10, 66120, Note_on_c, 4, 46, 84
10, 66209, Note_on_c, 4, 58, 0
10, 66209, Note_on_c, 4, 46, 0
10, 66240, Note_on_c, 4, 48, 84
10, 66240, Note_on_c, 4, 55, 84
10, 66479, Note_on_c, 4, 48, 0
10, 66479, Note_on_c, 4, 55, 0
10, 66840, Control_c, 4, 11, 127
10, 66960, Note_on_c, 4, 55, 52
10, 66960, Note_on_c, 4, 36, 52
10, 67199, Note_on_c, 4, 55, 0
10, 67199, Note_on_c, 4, 36, 0
10, 67680, Note_on_c, 4, 53, 52
10, 67680, Note_on_c, 4, 41, 52
10, 67919, Note_on_c, 4, 53, 0
10, 67919, Note_on_c, 4, 41, 0
10, 69720, Note_on_c, 4, 60, 68
10, 69720, Note_on_c, 4, 48, 68
10, 69829, Note_on_c, 4, 60, 0
10, 69829, Note_on_c, 4, 48, 0
10, 69840, Note_on_c, 4, 60, 76
10, 69840, Note_on_c, 4, 48, 76
10, 70069, Note_on_c, 4, 60, 0
10, 70069, Note_on_c, 4, 48, 0
10, 70080, Note_on_c, 4, 60, 68
10, 70080, Note_on_c, 4, 48, 68
10, 70199, Note_on_c, 4, 60, 0
10, 70199, Note_on_c, 4, 48, 0
10, 70200, Note_on_c, 4, 46, 68
10, 70200, Control_c, 4, 11, 127
10, 70200, Note_on_c, 4, 58, 68
10, 70230, Control_c, 4, 11, 125
10, 70260, Control_c, 4, 11, 123
10, 70290, Control_c, 4, 11, 119
10, 70319, Note_on_c, 4, 46, 0
10, 70319, Note_on_c, 4, 58, 0
10, 70320, Note_on_c, 4, 45, 68
10, 70320, Control_c, 4, 11, 118
10, 70320, Note_on_c, 4, 57, 68
10, 70350, Control_c, 4, 11, 115
10, 70380, Control_c, 4, 11, 113
10, 70410, Control_c, 4, 11, 110
10, 70439, Note_on_c, 4, 45, 0
10, 70439, Note_on_c, 4, 57, 0
10, 70440, Control_c, 4, 11, 107
10, 70440, Note_on_c, 4, 55, 68
10, 70440, Note_on_c, 4, 43, 68
10, 70470, Control_c, 4, 11, 105
10, 70500, Control_c, 4, 11, 102
10, 70530, Control_c, 4, 11, 99
10, 70549, Note_on_c, 4, 55, 0
10, 70549, Note_on_c, 4, 43, 0
10, 70560, Note_on_c, 4, 41, 68
10, 70560, Control_c, 4, 11, 97
10, 70560, Note_on_c, 4, 53, 68
10, 70679, Note_on_c, 4, 41, 0
10, 70679, Note_on_c, 4, 53, 0
10, 70680, Note_on_c, 4, 60, 68
10, 70680, Note_on_c, 4, 57, 68
10, 70789, Note_on_c, 4, 60, 0
10, 70789, Note_on_c, 4, 57, 0
10, 70800, Note_on_c, 4, 57, 68
10, 70800, Note_on_c, 4, 60, 68
10, 70919, Note_on_c, 4, 57, 0
10, 70919, Note_on_c, 4, 60, 0
10, 70920, Note_on_c, 4, 62, 68
10, 70920, Note_on_c, 4, 58, 68
10, 71039, Note_on_c, 4, 62, 0
10, 71039, Note_on_c, 4, 58, 0
10, 71040, Note_on_c, 4, 57, 68
10, 71040, Note_on_c, 4, 60, 68
10, 71149, Note_on_c, 4, 57, 0
10, 71149, Note_on_c, 4, 60, 0
10, 71160, Note_on_c, 4, 57, 68
10, 71160, Note_on_c, 4, 60, 68
10, 71279, Note_on_c, 4, 57, 0
10, 71279, Note_on_c, 4, 60, 0
10, 71280, Note_on_c, 4, 55, 68
10, 71280, Note_on_c, 4, 58, 68
10, 71399, Note_on_c, 4, 55, 0
10, 71399, Note_on_c, 4, 58, 0
10, 71400, Note_on_c, 4, 57, 68
10, 71400, Note_on_c, 4, 53, 68
10, 71509, Note_on_c, 4, 57, 0
10, 71509, Note_on_c, 4, 53, 0
10, 71520, Note_on_c, 4, 53, 68
10, 71520, Note_on_c, 4, 57, 68
10, 71639, Note_on_c, 4, 53, 0
10, 71639, Note_on_c, 4, 57, 0
10, 71640, Note_on_c, 4, 55, 68
10, 71640, Note_on_c, 4, 58, 68
10, 71759, Note_on_c, 4, 55, 0
10, 71759, Note_on_c, 4, 58, 0
10, 71760, Note_on_c, 4, 52, 68
10, 71760, Control_c, 4, 11, 97
10, 71760, Note_on_c, 4, 55, 68
10, 71800, Control_c, 4, 11, 94
10, 71840, Control_c, 4, 11, 91
10, 71869, Note_on_c, 4, 52, 0
10, 71869, Note_on_c, 4, 55, 0
10, 71880, Control_c, 4, 11, 89
10, 71880, Note_on_c, 4, 52, 68
10, 71880, Note_on_c, 4, 55, 68
10, 71920, Control_c, 4, 11, 86
10, 71960, Control_c, 4, 11, 83
10, 71999, Note_on_c, 4, 52, 0
10, 71999, Note_on_c, 4, 55, 0
10, 72000, Control_c, 4, 11, 97
10, 72000, Note_on_c, 4, 57, 68
10, 72000, Note_on_c, 4, 53, 68
10, 72119, Note_on_c, 4, 57, 0
10, 72119, Note_on_c, 4, 53, 0
10, 72120, Note_on_c, 4, 60, 68
10, 72120, Note_on_c, 4, 57, 68
10, 72229, Note_on_c, 4, 60, 0
10, 72229, Note_on_c, 4, 57, 0
10, 72240, Note_on_c, 4, 60, 68
10, 72240, Note_on_c, 4, 57, 68
10, 72359, Note_on_c, 4, 60, 0
10, 72359, Note_on_c, 4, 57, 0
10, 72360, Note_on_c, 4, 62, 68
10, 72360, Note_on_c, 4, 58, 68
10, 72479, Note_on_c, 4, 62, 0
10, 72479, Note_on_c, 4, 58, 0
10, 72480, Note_on_c, 4, 57, 68
10, 72480, Note_on_c, 4, 60, 68
10, 72589, Note_on_c, 4, 57, 0
10, 72589, Note_on_c, 4, 60, 0
10, 72600, Note_on_c, 4, 57, 68
10, 72600, Note_on_c, 4, 60, 68
10, 72719, Note_on_c, 4, 57, 0
10, 72719, Note_on_c, 4, 60, 0
10, 72720, Note_on_c, 4, 58, 68
10, 72720, Note_on_c, 4, 55, 68
10, 72839, Note_on_c, 4, 58, 0
10, 72839, Note_on_c, 4, 55, 0
10, 72840, Note_on_c, 4, 57, 68
10, 72840, Note_on_c, 4, 53, 68
10, 72949, Note_on_c, 4, 57, 0
10, 72949, Note_on_c, 4, 53, 0
10, 72960, Note_on_c, 4, 53, 68
10, 72960, Note_on_c, 4, 57, 68
10, 73079, Note_on_c, 4, 53, 0
10, 73079, Note_on_c, 4, 57, 0
10, 73080, Note_on_c, 4, 58, 68
10, 73080, Note_on_c, 4, 55, 68
10, 73199, Note_on_c, 4, 58, 0
10, 73199, Note_on_c, 4, 55, 0
10, 73200, Note_on_c, 4, 52, 68
10, 73200, Note_on_c, 4, 55, 68
10, 73200, Control_c, 4, 11, 97
10, 73240, Control_c, 4, 11, 94
10, 73280, Control_c, 4, 11, 91
10, 73309, Note_on_c, 4, 52, 0
10, 73309, Note_on_c, 4, 55, 0
10, 73320, Note_on_c, 4, 55, 68
10, 73320, Note_on_c, 4, 52, 68
10, 73320, Control_c, 4, 11, 89
10, 73360, Control_c, 4, 11, 86
10, 73400, Control_c, 4, 11, 83
10, 73437, Note_on_c, 4, 55, 0
10, 73437, Note_on_c, 4, 52, 0
10, 73439, Control_c, 4, 11, 97
10, 73440, Note_on_c, 4, 57, 68
10, 73440, Note_on_c, 4, 53, 68
10, 73559, Note_on_c, 4, 57, 0
10, 73559, Note_on_c, 4, 53, 0
10, 73560, Note_on_c, 4, 57, 68
10, 73560, Note_on_c, 4, 60, 68
10, 73669, Note_on_c, 4, 57, 0
10, 73669, Note_on_c, 4, 60, 0
10, 73680, Note_on_c, 4, 57, 68
10, 73680, Note_on_c, 4, 60, 68
10, 73799, Note_on_c, 4, 57, 0
10, 73799, Note_on_c, 4, 60, 0
10, 73800, Control_c, 4, 11, 97
10, 73800, Note_on_c, 4, 58, 68
10, 73800, Note_on_c, 4, 62, 68
10, 73919, Note_on_c, 4, 58, 0
10, 73919, Note_on_c, 4, 62, 0
10, 73920, Note_on_c, 4, 60, 68
10, 73920, Note_on_c, 4, 57, 68
10, 74010, Control_c, 4, 11, 95
10, 74029, Note_on_c, 4, 60, 0
10, 74029, Note_on_c, 4, 57, 0
10, 74040, Note_on_c, 4, 57, 68
10, 74040, Note_on_c, 4, 60, 68
10, 74159, Note_on_c, 4, 57, 0
10, 74159, Note_on_c, 4, 60, 0
10, 74220, Control_c, 4, 11, 94
10, 74280, Note_on_c, 4, 53, 68
10, 74280, Note_on_c, 4, 57, 68
10, 74389, Note_on_c, 4, 53, 0
10, 74389, Note_on_c, 4, 57, 0
10, 74400, Note_on_c, 4, 53, 68
10, 74400, Note_on_c, 4, 57, 68
10, 74430, Control_c, 4, 11, 93
10, 74519, Note_on_c, 4, 53, 0
10, 74519, Note_on_c, 4, 57, 0
10, 74520, Note_on_c, 4, 55, 68
10, 74520, Note_on_c, 4, 58, 68
10, 74639, Note_on_c, 4, 55, 0
10, 74639, Note_on_c, 4, 58, 0
10, 74640, Control_c, 4, 11, 91
10, 74640, Note_on_c, 4, 57, 68
10, 74640, Note_on_c, 4, 53, 68
10, 74749, Note_on_c, 4, 57, 0
10, 74749, Note_on_c, 4, 53, 0
10, 74760, Note_on_c, 4, 57, 68
10, 74760, Note_on_c, 4, 53, 68
10, 74850, Control_c, 4, 11, 90
10, 74879, Note_on_c, 4, 57, 0
10, 74879, Note_on_c, 4, 53, 0
10, 75000, Note_on_c, 4, 45, 68
10, 75000, Note_on_c, 4, 53, 68
10, 75060, Control_c, 4, 11, 89
10, 75109, Note_on_c, 4, 45, 0
10, 75109, Note_on_c, 4, 53, 0
10, 75120, Note_on_c, 4, 45, 68
10, 75120, Note_on_c, 4, 53, 68
10, 75239, Note_on_c, 4, 45, 0
10, 75239, Note_on_c, 4, 53, 0
10, 75240, Note_on_c, 4, 46, 68
10, 75240, Note_on_c, 4, 55, 68
10, 75270, Control_c, 4, 11, 87
10, 75359, Note_on_c, 4, 46, 0
10, 75359, Note_on_c, 4, 55, 0
10, 75360, Note_on_c, 4, 45, 68
10, 75360, Note_on_c, 4, 53, 68
10, 75469, Note_on_c, 4, 45, 0
10, 75469, Note_on_c, 4, 53, 0
10, 75480, Control_c, 4, 11, 86
10, 75480, Note_on_c, 4, 45, 68
10, 75480, Note_on_c, 4, 53, 68
10, 75599, Note_on_c, 4, 45, 0
10, 75599, Note_on_c, 4, 53, 0
10, 75600, Note_on_c, 4, 46, 68
10, 75600, Note_on_c, 4, 55, 68
10, 75690, Control_c, 4, 11, 85
10, 75719, Note_on_c, 4, 46, 0
10, 75719, Note_on_c, 4, 55, 0
10, 75720, Note_on_c, 4, 45, 68
10, 75720, Note_on_c, 4, 53, 68
10, 75829, Note_on_c, 4, 45, 0
10, 75829, Note_on_c, 4, 53, 0
10, 75840, Note_on_c, 4, 45, 68
10, 75840, Note_on_c, 4, 53, 68
10, 75900, Control_c, 4, 11, 83
10, 75959, Note_on_c, 4, 45, 0
10, 75959, Note_on_c, 4, 53, 0
10, 75960, Note_on_c, 4, 46, 68
10, 75960, Note_on_c, 4, 55, 68
10, 76079, Note_on_c, 4, 46, 0
10, 76079, Note_on_c, 4, 55, 0
10, 76080, Note_on_c, 4, 53, 68
10, 76080, Note_on_c, 4, 45, 68
10, 76110, Control_c, 4, 11, 82
10, 76189, Note_on_c, 4, 53, 0
10, 76189, Note_on_c, 4, 45, 0
10, 76200, Note_on_c, 4, 45, 68
10, 76200, Note_on_c, 4, 53, 68
10, 76309, Note_on_c, 4, 45, 0
10, 76309, Note_on_c, 4, 53, 0
10, 76320, Control_c, 4, 11, 81
10, 76320, Note_on_c, 4, 53, 68
10, 76320, Note_on_c, 4, 45, 68
10, 76559, Note_on_c, 4, 53, 0
10, 76559, Note_on_c, 4, 45, 0
10, 77400, Control_c, 4, 11, 127
10, 77760, Note_on_c, 4, 58, 44
10, 77760, Note_on_c, 4, 55, 44
10, 78839, Note_on_c, 4, 58, 0
10, 78839, Note_on_c, 4, 55, 0
10, 78840, Note_on_c, 4, 52, 44
10, 78840, Note_on_c, 4, 55, 44
10, 79199, Note_on_c, 4, 52, 0
10, 79199, Note_on_c, 4, 55, 0
10, 79200, Note_on_c, 4, 53, 44
10, 79200, Note_on_c, 4, 57, 44
10, 79439, Note_on_c, 4, 53, 0
10, 79439, Note_on_c, 4, 57, 0
10, 80520, Control_c, 4, 11, 81
10, 80640, Note_on_c, 4, 57, 68
10, 80640, Note_on_c, 4, 60, 68
10, 80760, Control_c, 4, 11, 85
10, 80880, Control_c, 4, 11, 89
10, 81000, Control_c, 4, 11, 93
10, 81120, Control_c, 4, 11, 97
10, 81240, Control_c, 4, 11, 101
10, 81360, Control_c, 4, 11, 105
10, 81480, Control_c, 4, 11, 107
10, 81600, Control_c, 4, 11, 111
10, 81719, Note_on_c, 4, 57, 0
10, 81719, Note_on_c, 4, 60, 0
10, 81720, Control_c, 4, 11, 115
10, 81720, Note_on_c, 4, 54, 68
10, 81720, Note_on_c, 4, 57, 68
10, 81840, Control_c, 4, 11, 119
10, 81960, Control_c, 4, 11, 123
10, 82069, Note_on_c, 4, 54, 0
10, 82069, Note_on_c, 4, 57, 0
10, 82078, Control_c, 4, 11, 127
10, 82080, Note_on_c, 4, 59, 52
10, 82080, Note_on_c, 4, 55, 52
10, 82319, Note_on_c, 4, 59, 0
10, 82319, Note_on_c, 4, 55, 0
10, 87840, Note_on_c, 4, 50, 52
10, 87840, Note_on_c, 4, 47, 52
10, 88559, Note_on_c, 4, 50, 0
10, 88559, Note_on_c, 4, 47, 0
10, 88560, Note_on_c, 4, 52, 52
10, 88560, Note_on_c, 4, 48, 52
10, 89269, Note_on_c, 4, 52, 0
10, 89269, Note_on_c, 4, 48, 0
10, 89280, Note_on_c, 4, 50, 52
10, 89280, Note_on_c, 4, 47, 52
10, 89999, Note_on_c, 4, 50, 0
10, 89999, Note_on_c, 4, 47, 0
10, 90000, Note_on_c, 4, 48, 52
10, 90000, Note_on_c, 4, 52, 52
10, 90709, Note_on_c, 4, 48, 0
10, 90709, Note_on_c, 4, 52, 0
10, 90720, Note_on_c, 4, 47, 52
10, 90720, Note_on_c, 4, 50, 52
10, 90959, Note_on_c, 4, 47, 0
10, 90959, Note_on_c, 4, 50, 0
10, 96720, Control_c, 4, 11, 119
10, 96840, Note_on_c, 4, 63, 76
10, 96840, Control_c, 4, 11, 122
10, 96960, Control_c, 4, 11, 123
10, 97080, Control_c, 4, 11, 126
10, 97199, Note_on_c, 4, 63, 0
10, 97200, Control_c, 4, 11, 127
10, 97200, Note_on_c, 4, 62, 76
10, 97260, Control_c, 4, 11, 123
10, 97320, Control_c, 4, 11, 119
10, 97380, Control_c, 4, 11, 115
10, 97440, Control_c, 4, 11, 111
10, 97500, Control_c, 4, 11, 107
10, 97559, Note_on_c, 4, 62, 0
10, 97560, Note_on_c, 4, 65, 76
10, 97560, Control_c, 4, 11, 105
10, 97620, Control_c, 4, 11, 101
10, 97680, Control_c, 4, 11, 97
10, 97740, Control_c, 4, 11, 93
10, 97799, Note_on_c, 4, 65, 0
10, 97800, Note_on_c, 4, 62, 76
10, 97800, Control_c, 4, 11, 89
10, 97860, Control_c, 4, 11, 85
10, 97909, Note_on_c, 4, 62, 0
10, 97920, Control_c, 4, 11, 81
10, 97920, Note_on_c, 4, 63, 76
10, 98159, Note_on_c, 4, 63, 0
10, 98278, Control_c, 4, 11, 127
10, 98280, Note_on_c, 4, 55, 52
10, 98280, Note_on_c, 4, 67, 52
10, 98639, Note_on_c, 4, 55, 0
10, 98639, Note_on_c, 4, 67, 0
10, 98640, Note_on_c, 4, 63, 52
10, 98640, Note_on_c, 4, 51, 52
10, 98999, Note_on_c, 4, 63, 0
10, 98999, Note_on_c, 4, 51, 0
10, 99000, Note_on_c, 4, 58, 52
10, 99000, Note_on_c, 4, 46, 52
10, 99359, Note_on_c, 4, 58, 0
10, 99359, Note_on_c, 4, 46, 0
10, 99720, Note_on_c, 4, 67, 52
10, 99720, Note_on_c, 4, 55, 52
10, 100079, Note_on_c, 4, 67, 0
10, 100079, Note_on_c, 4, 55, 0
10, 100080, Note_on_c, 4, 51, 52
10, 100080, Note_on_c, 4, 63, 52
10, 100439, Note_on_c, 4, 51, 0
10, 100439, Note_on_c, 4, 63, 0
10, 100440, Note_on_c, 4, 58, 52
10, 100440, Note_on_c, 4, 46, 52
10, 100799, Note_on_c, 4, 58, 0
10, 100799, Note_on_c, 4, 46, 0
10, 101160, Note_on_c, 4, 68, 52
10, 101160, Note_on_c, 4, 56, 52
10, 101519, Note_on_c, 4, 68, 0
10, 101519, Note_on_c, 4, 56, 0
10, 101520, Note_on_c, 4, 53, 52
10, 101520, Note_on_c, 4, 65, 52
10, 101879, Note_on_c, 4, 53, 0
10, 101879, Note_on_c, 4, 65, 0
10, 101880, Note_on_c, 4, 58, 52
10, 101880, Note_on_c, 4, 46, 52
10, 102239, Note_on_c, 4, 58, 0
10, 102239, Note_on_c, 4, 46, 0
10, 102600, Note_on_c, 4, 68, 52
10, 102600, Note_on_c, 4, 56, 52
10, 102959, Note_on_c, 4, 68, 0
10, 102959, Note_on_c, 4, 56, 0
10, 102960, Note_on_c, 4, 53, 52
10, 102960, Note_on_c, 4, 65, 52
10, 103319, Note_on_c, 4, 53, 0
10, 103319, Note_on_c, 4, 65, 0
10, 103320, Note_on_c, 4, 58, 52
10, 103320, Note_on_c, 4, 46, 52
10, 103679, Note_on_c, 4, 58, 0
10, 103679, Note_on_c, 4, 46, 0
10, 104040, Note_on_c, 4, 58, 52
10, 104399, Note_on_c, 4, 58, 0
10, 104400, Note_on_c, 4, 51, 52
10, 104759, Note_on_c, 4, 51, 0
10, 104760, Note_on_c, 4, 60, 52
10, 105119, Note_on_c, 4, 60, 0
10, 105120, Control_c, 4, 11, 97
10, 105480, Note_on_c, 4, 58, 68
10, 105839, Note_on_c, 4, 58, 0
10, 105840, Note_on_c, 4, 51, 68
10, 106199, Note_on_c, 4, 51, 0
10, 106200, Note_on_c, 4, 60, 68
10, 106549, Note_on_c, 4, 60, 0
10, 106560, Control_c, 4, 11, 97
10, 106560, Note_on_c, 4, 58, 68
10, 106680, Control_c, 4, 11, 99
10, 106800, Control_c, 4, 11, 102
10, 106919, Note_on_c, 4, 58, 0
10, 106920, Note_on_c, 4, 60, 68
10, 106920, Control_c, 4, 11, 105
10, 107040, Control_c, 4, 11, 107
10, 107160, Control_c, 4, 11, 110
10, 107279, Note_on_c, 4, 60, 0
10, 107280, Control_c, 4, 11, 113
10, 107280, Note_on_c, 4, 62, 68
10, 107400, Control_c, 4, 11, 115
10, 107520, Control_c, 4, 11, 118
10, 107639, Note_on_c, 4, 62, 0
10, 107640, Note_on_c, 4, 63, 68
10, 107640, Control_c, 4, 11, 119
10, 107760, Control_c, 4, 11, 123
10, 107880, Control_c, 4, 11, 125
10, 107989, Note_on_c, 4, 63, 0
10, 107998, Control_c, 4, 11, 127
10, 108000, Note_on_c, 4, 60, 52
10, 108239, Note_on_c, 4, 60, 0
10, 111600, Note_on_c, 4, 61, 76
10, 111600, Note_on_c, 4, 49, 76
10, 111660, Control_c, 4, 11, 123
10, 111720, Control_c, 4, 11, 119
10, 111780, Control_c, 4, 11, 115
10, 111840, Control_c, 4, 11, 111
10, 111900, Control_c, 4, 11, 107
10, 111960, Control_c, 4, 11, 105
10, 112020, Control_c, 4, 11, 101
10, 112080, Control_c, 4, 11, 97
10, 112140, Control_c, 4, 11, 93
10, 112200, Control_c, 4, 11, 89
10, 112260, Control_c, 4, 11, 85
10, 112320, Control_c, 4, 11, 81
10, 112559, Note_on_c, 4, 61, 0
10, 112559, Note_on_c, 4, 49, 0
10, 113400, Control_c, 4, 11, 127
10, 113760, Note_on_c, 4, 42, 52
10, 113880, Note_on_c, 4, 64, 48
10, 113989, Note_on_c, 4, 64, 0
10, 114000, Note_on_c, 4, 64, 48
10, 114119, Note_on_c, 4, 64, 0
10, 114120, Note_on_c, 4, 66, 48
10, 114239, Note_on_c, 4, 66, 0
10, 114240, Note_on_c, 4, 64, 48
10, 114349, Note_on_c, 4, 64, 0
10, 114360, Note_on_c, 4, 64, 48
10, 114479, Note_on_c, 4, 64, 0
10, 114480, Note_on_c, 4, 63, 48
10, 114599, Note_on_c, 4, 63, 0
10, 114600, Note_on_c, 4, 61, 48
10, 114709, Note_on_c, 4, 61, 0
10, 114720, Note_on_c, 4, 61, 48
10, 114839, Note_on_c, 4, 61, 0
10, 114840, Note_on_c, 4, 59, 48
10, 114959, Note_on_c, 4, 59, 0
10, 114960, Note_on_c, 4, 58, 48
10, 115069, Note_on_c, 4, 58, 0
10, 115080, Note_on_c, 4, 58, 48
10, 115189, Note_on_c, 4, 42, 0
10, 115189, Note_on_c, 4, 58, 0
10, 115200, Note_on_c, 4, 59, 44
10, 115200, Note_on_c, 4, 47, 44
10, 115439, Note_on_c, 4, 59, 0
10, 116629, Note_on_c, 4, 47, 0
10, 116640, Note_on_c, 4, 42, 44
10, 116760, Note_on_c, 4, 64, 44
10, 116869, Note_on_c, 4, 64, 0
10, 116880, Note_on_c, 4, 64, 44
10, 116999, Note_on_c, 4, 64, 0
10, 117000, Note_on_c, 4, 66, 44
10, 117119, Note_on_c, 4, 66, 0
10, 117120, Note_on_c, 4, 64, 44
10, 117229, Note_on_c, 4, 64, 0
10, 117240, Note_on_c, 4, 64, 44
10, 117359, Note_on_c, 4, 64, 0
10, 117360, Note_on_c, 4, 63, 44
10, 117479, Note_on_c, 4, 63, 0
10, 117480, Note_on_c, 4, 61, 44
10, 117589, Note_on_c, 4, 61, 0
10, 117600, Note_on_c, 4, 61, 44
10, 117719, Note_on_c, 4, 61, 0
10, 117720, Note_on_c, 4, 59, 44
10, 117839, Note_on_c, 4, 59, 0
10, 117840, Note_on_c, 4, 58, 44
10, 117949, Note_on_c, 4, 58, 0
10, 117960, Note_on_c, 4, 58, 44
10, 118069, Note_on_c, 4, 42, 0
10, 118069, Note_on_c, 4, 58, 0
10, 118080, Note_on_c, 4, 59, 44
10, 118080, Note_on_c, 4, 47, 44
10, 118319, Note_on_c, 4, 59, 0
10, 118319, Note_on_c, 4, 47, 0
10, 120120, Control_c, 4, 11, 91
10, 120240, Note_on_c, 4, 60, 76
10, 120240, Note_on_c, 4, 48, 76
10, 120240, Control_c, 4, 11, 97
10, 120360, Control_c, 4, 11, 102
10, 120480, Control_c, 4, 11, 107
10, 120599, Note_on_c, 4, 60, 0
10, 120599, Note_on_c, 4, 48, 0
10, 120600, Note_on_c, 4, 46, 76
10, 120600, Control_c, 4, 11, 111
10, 120600, Note_on_c, 4, 58, 76
10, 120720, Control_c, 4, 11, 118
10, 120840, Control_c, 4, 11, 123
10, 120949, Note_on_c, 4, 46, 0
10, 120949, Note_on_c, 4, 58, 0
10, 120960, Control_c, 4, 11, 127
10, 120960, Note_on_c, 4, 57, 76
10, 120960, Note_on_c, 4, 45, 76
10, 121309, Note_on_c, 4, 57, 0
10, 121309, Note_on_c, 4, 45, 0
10, 121320, Note_on_c, 4, 53, 76
10, 121320, Note_on_c, 4, 41, 76
10, 121669, Note_on_c, 4, 53, 0
10, 121669, Note_on_c, 4, 41, 0
10, 121680, Note_on_c, 4, 58, 76
10, 121680, Note_on_c, 4, 46, 76
10, 122029, Note_on_c, 4, 58, 0
10, 122029, Note_on_c, 4, 46, 0
10, 122040, Note_on_c, 4, 60, 76
10, 122040, Note_on_c, 4, 48, 76
10, 122389, Note_on_c, 4, 60, 0
10, 122389, Note_on_c, 4, 48, 0
10, 122400, Note_on_c, 4, 41, 76
10, 122400, Note_on_c, 4, 53, 76
10, 122639, Note_on_c, 4, 41, 0
10, 122639, Note_on_c, 4, 53, 0
10, 122640, Control_c, 4, 11, 123
10, 123600, Control_c, 4, 11, 107
10, 123840, Control_c, 4, 11, 105
10, 123840, Note_on_c, 4, 57, 76
10, 123840, Note_on_c, 4, 60, 76
10, 124080, Control_c, 4, 11, 101
10, 124319, Note_on_c, 4, 57, 0
10, 124319, Note_on_c, 4, 60, 0
10, 124320, Note_on_c, 4, 58, 76
10, 124320, Note_on_c, 4, 62, 76
10, 124320, Control_c, 4, 11, 97
10, 124439, Note_on_c, 4, 58, 0
10, 124439, Note_on_c, 4, 62, 0
10, 124440, Note_on_c, 4, 60, 76
10, 124440, Note_on_c, 4, 57, 76
10, 124549, Note_on_c, 4, 60, 0
10, 124549, Note_on_c, 4, 57, 0
10, 124560, Note_on_c, 4, 58, 76
10, 124560, Control_c, 4, 11, 93
10, 124560, Note_on_c, 4, 55, 76
10, 124800, Control_c, 4, 11, 89
10, 125039, Note_on_c, 4, 58, 0
10, 125039, Note_on_c, 4, 55, 0
10, 125040, Control_c, 4, 11, 85
10, 125040, Note_on_c, 4, 57, 76
10, 125040, Note_on_c, 4, 60, 76
10, 125159, Note_on_c, 4, 57, 0
10, 125159, Note_on_c, 4, 60, 0
10, 125160, Note_on_c, 4, 58, 76
10, 125160, Note_on_c, 4, 55, 76
10, 125269, Note_on_c, 4, 58, 0
10, 125269, Note_on_c, 4, 55, 0
10, 125278, Control_c, 4, 11, 81
10, 125280, Note_on_c, 4, 57, 76
10, 125280, Note_on_c, 4, 53, 76
10, 125399, Note_on_c, 4, 57, 0
10, 125399, Note_on_c, 4, 53, 0
10, 125400, Note_on_c, 4, 58, 76
10, 125400, Note_on_c, 4, 55, 76
10, 125519, Note_on_c, 4, 58, 0
10, 125519, Note_on_c, 4, 55, 0
10, 125520, Note_on_c, 4, 55, 76
10, 125520, Note_on_c, 4, 51, 76
10, 125639, Note_on_c, 4, 55, 0
10, 125639, Note_on_c, 4, 51, 0
10, 125640, Note_on_c, 4, 53, 76
10, 125640, Note_on_c, 4, 57, 76
10, 125759, Note_on_c, 4, 53, 0
10, 125759, Note_on_c, 4, 57, 0
10, 125760, Note_on_c, 4, 53, 76
10, 125760, Note_on_c, 4, 50, 76
10, 125879, Note_on_c, 4, 53, 0
10, 125879, Note_on_c, 4, 50, 0
10, 125880, Note_on_c, 4, 51, 76
10, 125880, Note_on_c, 4, 55, 76
10, 125999, Note_on_c, 4, 51, 0
10, 125999, Note_on_c, 4, 55, 0
10, 126000, Note_on_c, 4, 51, 76
10, 126000, Note_on_c, 4, 48, 76
10, 126119, Note_on_c, 4, 51, 0
10, 126119, Note_on_c, 4, 48, 0
10, 126120, Note_on_c, 4, 53, 76
10, 126120, Note_on_c, 4, 50, 76
10, 126239, Note_on_c, 4, 53, 0
10, 126239, Note_on_c, 4, 50, 0
10, 126240, Note_on_c, 4, 50, 76
10, 126240, Note_on_c, 4, 46, 76
10, 126359, Note_on_c, 4, 50, 0
10, 126359, Note_on_c, 4, 46, 0
10, 126360, Note_on_c, 4, 48, 76
10, 126360, Note_on_c, 4, 51, 76
10, 126479, Note_on_c, 4, 48, 0
10, 126479, Note_on_c, 4, 51, 0
10, 126480, Note_on_c, 4, 48, 76
10, 126480, Note_on_c, 4, 45, 76
10, 126599, Note_on_c, 4, 48, 0
10, 126599, Note_on_c, 4, 45, 0
10, 126600, Note_on_c, 4, 46, 76
10, 126600, Note_on_c, 4, 50, 76
10, 126709, Note_on_c, 4, 46, 0
10, 126709, Note_on_c, 4, 50, 0
10, 126718, Control_c, 4, 11, 97
10, 126720, Note_on_c, 4, 48, 68
10, 126720, Note_on_c, 4, 51, 68
10, 126839, Note_on_c, 4, 48, 0
10, 126839, Note_on_c, 4, 51, 0
10, 126840, Note_on_c, 4, 53, 68
10, 126840, Note_on_c, 4, 50, 68
10, 126959, Note_on_c, 4, 53, 0
10, 126959, Note_on_c, 4, 50, 0
10, 126960, Note_on_c, 4, 55, 68
10, 126960, Note_on_c, 4, 51, 68
10, 127079, Note_on_c, 4, 55, 0
10, 127079, Note_on_c, 4, 51, 0
10, 127080, Note_on_c, 4, 53, 68
10, 127080, Note_on_c, 4, 50, 68
10, 127199, Note_on_c, 4, 53, 0
10, 127199, Note_on_c, 4, 50, 0
10, 127200, Note_on_c, 4, 46, 68
10, 127200, Note_on_c, 4, 50, 68
10, 127319, Note_on_c, 4, 46, 0
10, 127319, Note_on_c, 4, 50, 0
10, 127320, Note_on_c, 4, 48, 68
10, 127320, Note_on_c, 4, 51, 68
10, 127439, Note_on_c, 4, 48, 0
10, 127439, Note_on_c, 4, 51, 0
10, 127440, Note_on_c, 4, 45, 68
10, 127440, Note_on_c, 4, 48, 68
10, 127559, Note_on_c, 4, 45, 0
10, 127559, Note_on_c, 4, 48, 0
10, 127560, Note_on_c, 4, 50, 68
10, 127560, Note_on_c, 4, 46, 68
10, 127679, Note_on_c, 4, 50, 0
10, 127679, Note_on_c, 4, 46, 0
10, 127680, Note_on_c, 4, 48, 68
10, 127680, Note_on_c, 4, 51, 68
10, 127799, Note_on_c, 4, 48, 0
10, 127799, Note_on_c, 4, 51, 0
10, 127800, Note_on_c, 4, 50, 68
10, 127800, Note_on_c, 4, 53, 68
10, 127919, Note_on_c, 4, 50, 0
10, 127919, Note_on_c, 4, 53, 0
10, 127920, Note_on_c, 4, 51, 68
10, 127920, Note_on_c, 4, 55, 68
10, 128039, Note_on_c, 4, 51, 0
10, 128039, Note_on_c, 4, 55, 0
10, 128040, Note_on_c, 4, 48, 68
10, 128040, Note_on_c, 4, 51, 68
10, 128149, Note_on_c, 4, 48, 0
10, 128149, Note_on_c, 4, 51, 0
10, 128160, Note_on_c, 4, 53, 68
10, 128160, Note_on_c, 4, 50, 68
10, 128279, Note_on_c, 4, 53, 0
10, 128279, Note_on_c, 4, 50, 0
10, 128280, Note_on_c, 4, 46, 68
10, 128280, Note_on_c, 4, 50, 68
10, 128399, Note_on_c, 4, 46, 0
10, 128399, Note_on_c, 4, 50, 0
10, 128400, Note_on_c, 4, 51, 68
10, 128400, Note_on_c, 4, 48, 68
10, 128519, Note_on_c, 4, 51, 0
10, 128519, Note_on_c, 4, 48, 0
10, 128520, Note_on_c, 4, 41, 68
10, 128520, Note_on_c, 4, 48, 68
10, 128639, Note_on_c, 4, 41, 0
10, 128639, Note_on_c, 4, 48, 0
10, 128640, Note_on_c, 4, 46, 68
10, 128640, Note_on_c, 4, 50, 68
10, 128759, Note_on_c, 4, 46, 0
10, 128759, Note_on_c, 4, 50, 0
10, 128760, Note_on_c, 4, 48, 68
10, 128760, Note_on_c, 4, 51, 68
10, 128879, Note_on_c, 4, 48, 0
10, 128879, Note_on_c, 4, 51, 0
10, 128880, Note_on_c, 4, 53, 68
10, 128880, Control_c, 4, 11, 97
10, 128880, Note_on_c, 4, 50, 68
10, 128940, Control_c, 4, 11, 99
10, 128999, Note_on_c, 4, 53, 0
10, 128999, Note_on_c, 4, 50, 0
10, 129000, Note_on_c, 4, 46, 68
10, 129000, Control_c, 4, 11, 102
10, 129000, Note_on_c, 4, 50, 68
10, 129060, Control_c, 4, 11, 105
10, 129119, Note_on_c, 4, 46, 0
10, 129119, Note_on_c, 4, 50, 0
10, 129120, Note_on_c, 4, 48, 68
10, 129120, Control_c, 4, 11, 107
10, 129120, Note_on_c, 4, 51, 68
10, 129180, Control_c, 4, 11, 110
10, 129239, Note_on_c, 4, 48, 0
10, 129239, Note_on_c, 4, 51, 0
10, 129240, Note_on_c, 4, 41, 68
10, 129240, Note_on_c, 4, 48, 68
10, 129240, Control_c, 4, 11, 113
10, 129300, Control_c, 4, 11, 115
10, 129359, Note_on_c, 4, 41, 0
10, 129359, Note_on_c, 4, 48, 0
10, 129360, Note_on_c, 4, 50, 68
10, 129360, Control_c, 4, 11, 118
10, 129360, Note_on_c, 4, 46, 68
10, 129420, Control_c, 4, 11, 119
10, 129479, Note_on_c, 4, 50, 0
10, 129479, Note_on_c, 4, 46, 0
10, 129480, Note_on_c, 4, 41, 68
10, 129480, Note_on_c, 4, 48, 68
10, 129480, Control_c, 4, 11, 123
10, 129540, Control_c, 4, 11, 125
10, 129589, Note_on_c, 4, 41, 0
10, 129589, Note_on_c, 4, 48, 0
10, 129598, Control_c, 4, 11, 81
10, 129600, Note_on_c, 4, 46, 76
10, 129660, Note_on_c, 4, 50, 76
10, 129713, Note_on_c, 4, 50, 0
10, 129720, Note_on_c, 4, 53, 76
10, 129773, Note_on_c, 4, 53, 0
10, 129780, Note_on_c, 4, 58, 76
10, 129833, Note_on_c, 4, 58, 0
10, 129840, Note_on_c, 4, 62, 76
10, 129893, Note_on_c, 4, 62, 0
10, 129900, Note_on_c, 4, 65, 76
10, 129953, Note_on_c, 4, 65, 0
10, 129960, Note_on_c, 4, 58, 76
10, 130189, Note_on_c, 4, 46, 0
10, 130199, Note_on_c, 4, 58, 0
10, 130200, Note_on_c, 4, 46, 76
10, 130549, Note_on_c, 4, 46, 0
10, 130560, Note_on_c, 4, 46, 76
10, 130909, Note_on_c, 4, 46, 0
10, 130920, Note_on_c, 4, 46, 76
10, 131029, Note_on_c, 4, 46, 0
10, 131040, Note_on_c, 4, 46, 76
10, 131100, Note_on_c, 4, 50, 76
10, 131153, Note_on_c, 4, 50, 0
10, 131160, Note_on_c, 4, 53, 76
10, 131213, Note_on_c, 4, 53, 0
10, 131220, Note_on_c, 4, 58, 76
10, 131273, Note_on_c, 4, 58, 0
10, 131280, Note_on_c, 4, 62, 76
10, 131333, Note_on_c, 4, 62, 0
10, 131340, Note_on_c, 4, 65, 76
10, 131393, Note_on_c, 4, 65, 0
10, 131400, Note_on_c, 4, 58, 76
10, 131629, Note_on_c, 4, 46, 0
10, 131639, Note_on_c, 4, 58, 0
10, 131640, Note_on_c, 4, 46, 76
10, 131989, Note_on_c, 4, 46, 0
10, 132000, Note_on_c, 4, 46, 76
10, 132349, Note_on_c, 4, 46, 0
10, 132360, Note_on_c, 4, 46, 76
10, 132469, Note_on_c, 4, 46, 0
10, 132480, Note_on_c, 4, 41, 76
10, 132540, Note_on_c, 4, 45, 76
10, 132593, Note_on_c, 4, 45, 0
10, 132600, Note_on_c, 4, 48, 76
10, 132653, Note_on_c, 4, 48, 0
10, 132660, Note_on_c, 4, 53, 76
10, 132713, Note_on_c, 4, 53, 0
10, 132720, Note_on_c, 4, 57, 76
10, 132773, Note_on_c, 4, 57, 0
10, 132780, Note_on_c, 4, 60, 76
10, 132833, Note_on_c, 4, 60, 0
10, 132840, Note_on_c, 4, 65, 76
10, 133069, Note_on_c, 4, 41, 0
10, 133079, Note_on_c, 4, 65, 0
10, 133080, Note_on_c, 4, 41, 76
10, 133429, Note_on_c, 4, 41, 0
10, 133440, Note_on_c, 4, 41, 76
10, 133789, Note_on_c, 4, 41, 0
10, 133800, Note_on_c, 4, 41, 76
10, 133909, Note_on_c, 4, 41, 0
10, 133920, Note_on_c, 4, 41, 76
10, 133980, Note_on_c, 4, 45, 76
10, 134033, Note_on_c, 4, 45, 0
10, 134040, Note_on_c, 4, 48, 76
10, 134093, Note_on_c, 4, 48, 0
10, 134100, Note_on_c, 4, 53, 76
10, 134153, Note_on_c, 4, 53, 0
10, 134160, Note_on_c, 4, 57, 76
10, 134213, Note_on_c, 4, 57, 0
10, 134220, Note_on_c, 4, 60, 76
10, 134273, Note_on_c, 4, 60, 0
10, 134280, Note_on_c, 4, 65, 76
10, 134509, Note_on_c, 4, 41, 0
10, 134519, Note_on_c, 4, 65, 0
10, 134520, Note_on_c, 4, 41, 76
10, 134869, Note_on_c, 4, 41, 0
10, 134880, Note_on_c, 4, 41, 76
10, 135229, Note_on_c, 4, 41, 0
10, 135240, Note_on_c, 4, 41, 76
10, 135349, Note_on_c, 4, 41, 0
10, 135360, Note_on_c, 4, 50, 76
10, 135360, Control_c, 4, 11, 81
10, 135480, Control_c, 4, 11, 85
10, 135600, Control_c, 4, 11, 89
10, 135720, Control_c, 4, 11, 93
10, 135720, Note_on_c, 4, 58, 76
10, 135840, Control_c, 4, 11, 97
10, 135960, Control_c, 4, 11, 101
10, 136069, Note_on_c, 4, 50, 0
10, 136079, Note_on_c, 4, 58, 0
10, 136080, Note_on_c, 4, 55, 76
10, 136080, Note_on_c, 4, 51, 76
10, 136080, Control_c, 4, 11, 105
10, 136200, Control_c, 4, 11, 107
10, 136320, Control_c, 4, 11, 111
10, 136439, Note_on_c, 4, 55, 0
10, 136440, Control_c, 4, 11, 115
10, 136440, Note_on_c, 4, 63, 76
10, 136560, Control_c, 4, 11, 119
10, 136680, Control_c, 4, 11, 123
10, 136789, Note_on_c, 4, 51, 0
10, 136789, Note_on_c, 4, 63, 0
10, 136798, Control_c, 4, 11, 127
10, 136800, Note_on_c, 4, 53, 76
10, 136800, Note_on_c, 4, 65, 76
10, 136860, Control_c, 4, 11, 81
10, 137149, Note_on_c, 4, 53, 0
10, 137149, Note_on_c, 4, 65, 0
10, 137160, Note_on_c, 4, 41, 76
10, 137160, Note_on_c, 4, 53, 76
10, 137509, Note_on_c, 4, 41, 0
10, 137509, Note_on_c, 4, 53, 0
10, 137520, Note_on_c, 4, 53, 76
10, 137520, Note_on_c, 4, 41, 76
10, 137550, Control_c, 4, 11, 83
10, 137580, Control_c, 4, 11, 86
10, 137610, Control_c, 4, 11, 89
10, 137640, Control_c, 4, 11, 91
10, 137670, Control_c, 4, 11, 94
10, 137700, Control_c, 4, 11, 97
10, 137730, Control_c, 4, 11, 99
10, 137760, Control_c, 4, 11, 102
10, 137790, Control_c, 4, 11, 105
10, 137820, Control_c, 4, 11, 107
10, 137850, Control_c, 4, 11, 110
10, 137869, Note_on_c, 4, 53, 0
10, 137869, Note_on_c, 4, 41, 0
10, 137880, Note_on_c, 4, 41, 76
10, 137880, Control_c, 4, 11, 113
10, 137880, Note_on_c, 4, 53, 76
10, 137910, Control_c, 4, 11, 110
10, 137940, Control_c, 4, 11, 107
10, 137970, Control_c, 4, 11, 105
10, 138000, Control_c, 4, 11, 102
10, 138030, Control_c, 4, 11, 99
10, 138060, Control_c, 4, 11, 97
10, 138090, Control_c, 4, 11, 94
10, 138120, Control_c, 4, 11, 91
10, 138150, Control_c, 4, 11, 89
10, 138180, Control_c, 4, 11, 86
10, 138210, Control_c, 4, 11, 83
10, 138229, Note_on_c, 4, 41, 0
10, 138229, Note_on_c, 4, 53, 0
10, 138240, Control_c, 4, 11, 81
10, 138240, Note_on_c, 4, 43, 76
10, 138240, Note_on_c, 4, 55, 76
10, 138349, Note_on_c, 4, 43, 0
10, 138349, Note_on_c, 4, 55, 0
10, 138360, Note_on_c, 4, 62, 76
10, 138360, Note_on_c, 4, 58, 76
10, 138469, Note_on_c, 4, 62, 0
10, 138469, Note_on_c, 4, 58, 0
10, 138470, Control_c, 4, 11, 85
10, 138480, Note_on_c, 4, 62, 76
10, 138480, Note_on_c, 4, 58, 76
10, 138580, Control_c, 4, 11, 89
10, 138599, Note_on_c, 4, 62, 0
10, 138599, Note_on_c, 4, 58, 0
10, 138600, Note_on_c, 4, 60, 76
10, 138600, Note_on_c, 4, 63, 76
10, 138690, Control_c, 4, 11, 93
10, 138719, Note_on_c, 4, 60, 0
10, 138719, Note_on_c, 4, 63, 0
10, 138720, Note_on_c, 4, 58, 76
10, 138720, Note_on_c, 4, 62, 76
10, 138800, Control_c, 4, 11, 97
10, 138839, Note_on_c, 4, 58, 0
10, 138839, Note_on_c, 4, 62, 0
10, 138910, Control_c, 4, 11, 101
10, 139020, Control_c, 4, 11, 105
10, 139080, Note_on_c, 4, 58, 76
10, 139080, Note_on_c, 4, 55, 76
10, 139130, Control_c, 4, 11, 107
10, 139189, Note_on_c, 4, 58, 0
10, 139189, Note_on_c, 4, 55, 0
10, 139200, Note_on_c, 4, 58, 76
10, 139200, Note_on_c, 4, 55, 76
10, 139240, Control_c, 4, 11, 111
10, 139319, Note_on_c, 4, 58, 0
10, 139319, Note_on_c, 4, 55, 0
10, 139320, Note_on_c, 4, 60, 76
10, 139320, Note_on_c, 4, 57, 76
10, 139350, Control_c, 4, 11, 115
10, 139439, Note_on_c, 4, 60, 0
10, 139439, Note_on_c, 4, 57, 0
10, 139440, Note_on_c, 4, 58, 76
10, 139440, Note_on_c, 4, 55, 76
10, 139460, Control_c, 4, 11, 119
10, 139559, Note_on_c, 4, 58, 0
10, 139559, Note_on_c, 4, 55, 0
10, 139570, Control_c, 4, 11, 123
10, 139680, Control_c, 4, 11, 127
10, 139800, Note_on_c, 4, 52, 76
10, 139800, Note_on_c, 4, 55, 76
10, 139909, Note_on_c, 4, 52, 0
10, 139909, Note_on_c, 4, 55, 0
10, 139920, Note_on_c, 4, 52, 76
10, 139920, Note_on_c, 4, 55, 76
10, 140039, Note_on_c, 4, 52, 0
10, 140039, Note_on_c, 4, 55, 0
10, 140040, Note_on_c, 4, 57, 76
10, 140040, Note_on_c, 4, 53, 76
10, 140159, Note_on_c, 4, 57, 0
10, 140159, Note_on_c, 4, 53, 0
10, 140160, Note_on_c, 4, 52, 76
10, 140160, Note_on_c, 4, 55, 76
10, 140269, Note_on_c, 4, 52, 0
10, 140269, Note_on_c, 4, 55, 0
10, 140280, Note_on_c, 4, 52, 76
10, 140280, Note_on_c, 4, 55, 76
10, 140399, Note_on_c, 4, 52, 0
10, 140399, Note_on_c, 4, 55, 0
10, 140400, Note_on_c, 4, 53, 76
10, 140400, Note_on_c, 4, 50, 76
10, 140519, Note_on_c, 4, 53, 0
10, 140519, Note_on_c, 4, 50, 0
10, 140520, Note_on_c, 4, 48, 76
10, 140520, Note_on_c, 4, 52, 76
10, 140629, Note_on_c, 4, 48, 0
10, 140629, Note_on_c, 4, 52, 0
10, 140640, Note_on_c, 4, 52, 76
10, 140640, Note_on_c, 4, 48, 76
10, 140759, Note_on_c, 4, 52, 0
10, 140759, Note_on_c, 4, 48, 0
10, 140760, Note_on_c, 4, 50, 76
10, 140760, Note_on_c, 4, 46, 76
10, 140760, Control_c, 4, 11, 127
10, 140790, Control_c, 4, 11, 123
10, 140820, Control_c, 4, 11, 119
10, 140850, Control_c, 4, 11, 115
10, 140879, Note_on_c, 4, 50, 0
10, 140879, Note_on_c, 4, 46, 0
10, 140880, Note_on_c, 4, 48, 76
10, 140880, Note_on_c, 4, 45, 76
10, 140880, Control_c, 4, 11, 111
10, 140910, Control_c, 4, 11, 107
10, 140940, Control_c, 4, 11, 105
10, 140970, Control_c, 4, 11, 101
10, 140999, Note_on_c, 4, 48, 0
10, 140999, Note_on_c, 4, 45, 0
10, 141000, Note_on_c, 4, 46, 76
10, 141000, Note_on_c, 4, 43, 76
10, 141000, Control_c, 4, 11, 97
10, 141030, Control_c, 4, 11, 93
10, 141060, Control_c, 4, 11, 89
10, 141090, Control_c, 4, 11, 85
10, 141109, Note_on_c, 4, 46, 0
10, 141109, Note_on_c, 4, 43, 0
10, 141118, Control_c, 4, 11, 81
10, 141120, Note_on_c, 4, 41, 76
10, 141829, Note_on_c, 4, 41, 0
10, 141840, Note_on_c, 4, 46, 76
10, 142549, Note_on_c, 4, 46, 0
10, 142560, Note_on_c, 4, 48, 76
10, 143269, Note_on_c, 4, 48, 0
10, 143280, Note_on_c, 4, 46, 76
10, 143999, Note_on_c, 4, 46, 0
10, 144000, Control_c, 4, 11, 97
10, 144060, Control_c, 4, 11, 99
10, 144120, Control_c, 4, 11, 102
10, 144180, Control_c, 4, 11, 105
10, 144240, Control_c, 4, 11, 107
10, 144300, Control_c, 4, 11, 110
10, 144360, Note_on_c, 4, 60, 68
10, 144360, Note_on_c, 4, 57, 68
10, 144360, Control_c, 4, 11, 113
10, 144420, Control_c, 4, 11, 115
10, 144480, Control_c, 4, 11, 118
10, 144540, Control_c, 4, 11, 119
10, 144600, Control_c, 4, 11, 123
10, 144660, Control_c, 4, 11, 125
10, 144720, Control_c, 4, 11, 127
10, 144780, Control_c, 4, 11, 125
10, 144840, Control_c, 4, 11, 123
10, 144900, Control_c, 4, 11, 119
10, 144960, Control_c, 4, 11, 118
10, 145020, Control_c, 4, 11, 115
10, 145080, Control_c, 4, 11, 113
10, 145140, Control_c, 4, 11, 110
10, 145200, Control_c, 4, 11, 107
10, 145260, Control_c, 4, 11, 105
10, 145320, Control_c, 4, 11, 102
10, 145380, Control_c, 4, 11, 99
10, 145429, Note_on_c, 4, 60, 0
10, 145429, Note_on_c, 4, 57, 0
10, 145440, Control_c, 4, 11, 97
10, 145440, Note_on_c, 4, 58, 68
10, 145440, Note_on_c, 4, 62, 68
10, 145679, Note_on_c, 4, 58, 0
10, 145679, Note_on_c, 4, 62, 0
10, 146880, Note_on_c, 4, 65, 68
10, 146880, Control_c, 4, 11, 97
10, 146940, Control_c, 4, 11, 99
10, 147000, Control_c, 4, 11, 102
10, 147060, Control_c, 4, 11, 105
10, 147120, Control_c, 4, 11, 107
10, 147180, Control_c, 4, 11, 110
10, 147240, Control_c, 4, 11, 113
10, 147300, Control_c, 4, 11, 115
10, 147360, Control_c, 4, 11, 118
10, 147420, Control_c, 4, 11, 119
10, 147480, Control_c, 4, 11, 123
10, 147540, Control_c, 4, 11, 125
10, 147589, Note_on_c, 4, 65, 0
10, 147600, Control_c, 4, 11, 127
10, 147600, Note_on_c, 4, 63, 68
10, 147600, Note_on_c, 4, 41, 68
10, 147660, Control_c, 4, 11, 125
10, 147720, Control_c, 4, 11, 123
10, 147780, Control_c, 4, 11, 119
10, 147840, Control_c, 4, 11, 118
10, 147900, Control_c, 4, 11, 115
10, 147960, Control_c, 4, 11, 113
10, 148020, Control_c, 4, 11, 110
10, 148080, Control_c, 4, 11, 107
10, 148140, Control_c, 4, 11, 105
10, 148200, Control_c, 4, 11, 102
10, 148260, Control_c, 4, 11, 99
10, 148309, Note_on_c, 4, 63, 0
10, 148309, Note_on_c, 4, 41, 0
10, 148320, Control_c, 4, 11, 97
10, 148320, Note_on_c, 4, 46, 68
10, 148320, Note_on_c, 4, 62, 64
10, 148439, Note_on_c, 4, 62, 0
10, 148440, Note_on_c, 4, 58, 64
10, 148559, Note_on_c, 4, 46, 0
10, 148559, Note_on_c, 4, 58, 0
10, 148560, Note_on_c, 4, 57, 64
10, 148669, Note_on_c, 4, 57, 0
10, 148680, Note_on_c, 4, 55, 64
10, 148779, Note_on_c, 4, 55, 0
10, 148800, Note_on_c, 4, 63, 64
10, 148899, Note_on_c, 4, 63, 0
10, 148920, Note_on_c, 4, 67, 64
10, 149009, Note_on_c, 4, 67, 0
10, 149040, Note_on_c, 4, 58, 64
10, 149399, Note_on_c, 4, 58, 0
10, 149400, Note_on_c, 4, 62, 64
10, 149639, Note_on_c, 4, 62, 0
10, 149640, Note_on_c, 4, 60, 64
10, 149749, Note_on_c, 4, 60, 0
10, 149758, Control_c, 4, 11, 81
10, 149760, Note_on_c, 4, 62, 72
10, 150239, Note_on_c, 4, 62, 0
10, 150240, Note_on_c, 4, 60, 72
10, 150359, Note_on_c, 4, 60, 0
10, 150360, Note_on_c, 4, 62, 72
10, 150449, Note_on_c, 4, 62, 0
10, 150460, Note_on_c, 4, 65, 72
10, 150479, Note_on_c, 4, 65, 0
10, 150480, Note_on_c, 4, 64, 72
10, 150599, Note_on_c, 4, 64, 0
10, 150600, Note_on_c, 4, 62, 72
10, 150719, Note_on_c, 4, 62, 0
10, 150720, Note_on_c, 4, 64, 72
10, 150839, Note_on_c, 4, 64, 0
10, 150840, Note_on_c, 4, 65, 72
10, 151079, Note_on_c, 4, 65, 0
10, 151080, Note_on_c, 4, 60, 72
10, 151189, Note_on_c, 4, 60, 0
10, 151200, Note_on_c, 4, 62, 72
10, 151679, Note_on_c, 4, 62, 0
10, 151680, Note_on_c, 4, 60, 72
10, 151799, Note_on_c, 4, 60, 0
10, 151800, Note_on_c, 4, 62, 72
10, 151889, Note_on_c, 4, 62, 0
10, 151900, Note_on_c, 4, 65, 72
10, 151919, Note_on_c, 4, 65, 0
10, 151920, Note_on_c, 4, 64, 72
10, 152039, Note_on_c, 4, 64, 0
10, 152040, Note_on_c, 4, 62, 72
10, 152159, Note_on_c, 4, 62, 0
10, 152160, Note_on_c, 4, 64, 72
10, 152279, Note_on_c, 4, 64, 0
10, 152280, Note_on_c, 4, 65, 72
10, 152519, Note_on_c, 4, 65, 0
10, 152520, Note_on_c, 4, 60, 72
10, 152629, Note_on_c, 4, 60, 0
10, 152640, Note_on_c, 4, 62, 72
10, 153119, Note_on_c, 4, 62, 0
10, 153120, Note_on_c, 4, 60, 72
10, 153239, Note_on_c, 4, 60, 0
10, 153240, Note_on_c, 4, 62, 72
10, 153329, Note_on_c, 4, 62, 0
10, 153340, Note_on_c, 4, 65, 72
10, 153359, Note_on_c, 4, 65, 0
10, 153360, Note_on_c, 4, 64, 72
10, 153479, Note_on_c, 4, 64, 0
10, 153480, Note_on_c, 4, 62, 72
10, 153599, Note_on_c, 4, 62, 0
10, 153600, Note_on_c, 4, 64, 72
10, 153709, Note_on_c, 4, 64, 0
10, 153720, Note_on_c, 4, 65, 76
10, 153720, Control_c, 4, 11, 81
10, 153840, Control_c, 4, 11, 83
10, 153959, Note_on_c, 4, 65, 0
10, 153960, Note_on_c, 4, 60, 76
10, 153960, Control_c, 4, 11, 85
10, 154079, Note_on_c, 4, 60, 0
10, 154080, Control_c, 4, 11, 87
10, 154080, Note_on_c, 4, 62, 76
10, 154200, Control_c, 4, 11, 89
10, 154319, Note_on_c, 4, 62, 0
10, 154320, Control_c, 4, 11, 91
10, 154320, Note_on_c, 4, 58, 76
10, 154439, Note_on_c, 4, 58, 0
10, 154440, Control_c, 4, 11, 93
10, 154440, Note_on_c, 4, 53, 76
10, 154560, Control_c, 4, 11, 95
10, 154679, Note_on_c, 4, 53, 0
10, 154680, Note_on_c, 4, 57, 76
10, 154680, Control_c, 4, 11, 97
10, 154799, Note_on_c, 4, 57, 0
10, 154800, Control_c, 4, 11, 99
10, 154800, Note_on_c, 4, 58, 76
10, 154920, Control_c, 4, 11, 101
10, 155039, Note_on_c, 4, 58, 0
10, 155040, Control_c, 4, 11, 103
10, 155040, Note_on_c, 4, 62, 76
10, 155159, Note_on_c, 4, 62, 0
10, 155160, Control_c, 4, 11, 105
10, 155160, Note_on_c, 4, 65, 76
10, 155280, Control_c, 4, 11, 106
10, 155399, Note_on_c, 4, 65, 0
10, 155400, Note_on_c, 4, 60, 76
10, 155400, Control_c, 4, 11, 107
10, 155509, Note_on_c, 4, 60, 0
10, 155520, Note_on_c, 4, 62, 76
10, 155520, Control_c, 4, 11, 110
10, 155640, Control_c, 4, 11, 111
10, 155759, Note_on_c, 4, 62, 0
10, 155760, Control_c, 4, 11, 114
10, 155760, Note_on_c, 4, 58, 76
10, 155879, Note_on_c, 4, 58, 0
10, 155880, Note_on_c, 4, 53, 76
10, 155880, Control_c, 4, 11, 115
10, 156000, Control_c, 4, 11, 118
10, 156119, Note_on_c, 4, 53, 0
10, 156120, Note_on_c, 4, 57, 76
10, 156120, Control_c, 4, 11, 119
10, 156239, Note_on_c, 4, 57, 0
10, 156240, Note_on_c, 4, 58, 76
10, 156240, Control_c, 4, 11, 122
10, 156360, Control_c, 4, 11, 123
10, 156479, Note_on_c, 4, 58, 0
10, 156480, Control_c, 4, 11, 126
10, 156480, Note_on_c, 4, 62, 76
10, 156589, Note_on_c, 4, 62, 0
10, 156600, Control_c, 4, 11, 127
10, 156600, Note_on_c, 4, 60, 76
10, 156600, Note_on_c, 4, 57, 76
10, 156829, Note_on_c, 4, 60, 0
10, 156829, Note_on_c, 4, 57, 0
10, 156840, Note_on_c, 4, 60, 76
10, 156840, Note_on_c, 4, 57, 76
10, 156949, Note_on_c, 4, 60, 0
10, 156949, Note_on_c, 4, 57, 0
10, 156960, Note_on_c, 4, 62, 76
10, 156960, Note_on_c, 4, 58, 76
10, 157309, Note_on_c, 4, 62, 0
10, 157309, Note_on_c, 4, 58, 0
10, 157320, Note_on_c, 4, 50, 76
10, 157320, Note_on_c, 4, 46, 76
10, 158389, Note_on_c, 4, 50, 0
10, 158389, Note_on_c, 4, 46, 0
10, 158400, Note_on_c, 4, 46, 76
10, 158400, Note_on_c, 4, 50, 76
10, 158639, Note_on_c, 4, 46, 0
10, 158639, Note_on_c, 4, 50, 0
10, 160920, Control_c, 4, 11, 65
10, 161280, Note_on_c, 4, 54, 76
10, 161280, Note_on_c, 4, 57, 76
10, 161629, Note_on_c, 4, 54, 0
10, 161629, Note_on_c, 4, 57, 0
10, 161640, Note_on_c, 4, 58, 76
10, 161640, Note_on_c, 4, 55, 76
10, 162239, Note_on_c, 4, 58, 0
10, 162239, Note_on_c, 4, 55, 0
10, 162240, Note_on_c, 4, 52, 76
10, 162240, Note_on_c, 4, 55, 76
10, 162359, Note_on_c, 4, 52, 0
10, 162359, Note_on_c, 4, 55, 0
10, 162360, Note_on_c, 4, 53, 76
10, 162360, Note_on_c, 4, 57, 76
10, 162589, Note_on_c, 4, 53, 0
10, 162589, Note_on_c, 4, 57, 0
10, 162600, Note_on_c, 4, 57, 76
10, 162600, Note_on_c, 4, 53, 76
10, 162709, Note_on_c, 4, 57, 0
10, 162709, Note_on_c, 4, 53, 0
10, 162720, Note_on_c, 4, 57, 76
10, 162720, Note_on_c, 4, 54, 76
10, 163069, Note_on_c, 4, 57, 0
10, 163069, Note_on_c, 4, 54, 0
10, 163080, Note_on_c, 4, 58, 76
10, 163080, Note_on_c, 4, 55, 76
10, 163679, Note_on_c, 4, 58, 0
10, 163679, Note_on_c, 4, 55, 0
10, 163680, Note_on_c, 4, 55, 76
10, 163680, Note_on_c, 4, 52, 76
10, 163799, Note_on_c, 4, 55, 0
10, 163799, Note_on_c, 4, 52, 0
10, 163800, Note_on_c, 4, 53, 76
10, 163800, Control_c, 4, 11, 65
10, 163800, Note_on_c, 4, 45, 76
10, 163920, Control_c, 4, 11, 70
10, 164029, Note_on_c, 4, 53, 0
10, 164029, Note_on_c, 4, 45, 0
10, 164040, Control_c, 4, 11, 75
10, 164040, Note_on_c, 4, 48, 76
10, 164040, Note_on_c, 4, 45, 76
10, 164149, Note_on_c, 4, 48, 0
10, 164149, Note_on_c, 4, 45, 0
10, 164160, Note_on_c, 4, 50, 76
10, 164160, Control_c, 4, 11, 81
10, 164160, Note_on_c, 4, 46, 76
10, 164280, Control_c, 4, 11, 86
10, 164400, Control_c, 4, 11, 91
10, 164509, Note_on_c, 4, 50, 0
10, 164509, Note_on_c, 4, 46, 0
10, 164520, Control_c, 4, 11, 97
10, 164520, Note_on_c, 4, 48, 76
10, 164520, Note_on_c, 4, 51, 76
10, 164640, Control_c, 4, 11, 102
10, 164749, Note_on_c, 4, 48, 0
10, 164749, Note_on_c, 4, 51, 0
10, 164760, Note_on_c, 4, 51, 76
10, 164760, Control_c, 4, 11, 107
10, 164760, Note_on_c, 4, 48, 76
10, 164869, Note_on_c, 4, 51, 0
10, 164869, Note_on_c, 4, 48, 0
10, 164880, Control_c, 4, 11, 111
10, 164880, Note_on_c, 4, 50, 76
10, 164880, Note_on_c, 4, 46, 76
10, 165000, Control_c, 4, 11, 118
10, 165120, Control_c, 4, 11, 123
10, 165229, Note_on_c, 4, 50, 0
10, 165229, Note_on_c, 4, 46, 0
10, 165238, Control_c, 4, 11, 127
10, 165240, Note_on_c, 4, 45, 76
10, 165240, Note_on_c, 4, 48, 76
10, 165469, Note_on_c, 4, 45, 0
10, 165469, Note_on_c, 4, 48, 0
10, 165480, Note_on_c, 4, 45, 76
10, 165480, Note_on_c, 4, 48, 76
10, 165589, Note_on_c, 4, 45, 0
10, 165589, Note_on_c, 4, 48, 0
10, 165600, Note_on_c, 4, 46, 76
10, 165600, Note_on_c, 4, 50, 76
10, 165709, Note_on_c, 4, 46, 0
10, 165720, Note_on_c, 4, 41, 76
10, 165829, Note_on_c, 4, 41, 0
10, 165839, Note_on_c, 4, 50, 0
10, 165840, Note_on_c, 4, 41, 76
10, 165840, Note_on_c, 4, 46, 76
10, 165949, Note_on_c, 4, 41, 0
10, 165959, Note_on_c, 4, 46, 0
10, 165960, Note_on_c, 4, 41, 76
10, 166069, Note_on_c, 4, 41, 0
10, 166080, Note_on_c, 4, 46, 76
10, 166080, Note_on_c, 4, 41, 76
10, 166189, Note_on_c, 4, 41, 0
10, 166199, Note_on_c, 4, 46, 0
10, 166200, Note_on_c, 4, 41, 76
10, 166200, Note_on_c, 4, 50, 76
10, 166309, Note_on_c, 4, 41, 0
10, 166309, Note_on_c, 4, 50, 0
10, 166320, Note_on_c, 4, 53, 76
10, 166320, Note_on_c, 4, 41, 76
10, 166429, Note_on_c, 4, 41, 0
10, 166440, Note_on_c, 4, 41, 76
10, 166549, Note_on_c, 4, 41, 0
10, 166559, Note_on_c, 4, 53, 0
10, 166560, Note_on_c, 4, 41, 76
10, 166560, Note_on_c, 4, 50, 76
10, 166669, Note_on_c, 4, 41, 0
10, 166679, Note_on_c, 4, 50, 0
10, 166680, Note_on_c, 4, 41, 76
10, 166680, Note_on_c, 4, 46, 76
10, 166789, Note_on_c, 4, 41, 0
10, 166799, Note_on_c, 4, 46, 0
10, 166800, Note_on_c, 4, 50, 76
10, 166800, Note_on_c, 4, 41, 76
10, 166909, Note_on_c, 4, 41, 0
10, 166919, Note_on_c, 4, 50, 0
10, 166920, Note_on_c, 4, 41, 76
10, 166920, Note_on_c, 4, 53, 76
10, 167029, Note_on_c, 4, 41, 0
10, 167029, Note_on_c, 4, 53, 0
10, 167040, Note_on_c, 4, 41, 84
10, 167040, Note_on_c, 4, 58, 84
10, 167100, Control_c, 4, 11, 112
10, 167123, Control_c, 4, 11, 109
10, 167147, Control_c, 4, 11, 107
10, 167149, Note_on_c, 4, 41, 0
10, 167160, Note_on_c, 4, 41, 84
10, 167170, Control_c, 4, 11, 104
10, 167193, Control_c, 4, 11, 101
10, 167217, Control_c, 4, 11, 99
10, 167240, Control_c, 4, 11, 96
10, 167263, Control_c, 4, 11, 93
10, 167269, Note_on_c, 4, 41, 0
10, 167280, Note_on_c, 4, 41, 84
10, 167287, Control_c, 4, 11, 91
10, 167310, Control_c, 4, 11, 88
10, 167333, Control_c, 4, 11, 85
10, 167357, Control_c, 4, 11, 83
10, 167380, Control_c, 4, 11, 80
10, 167389, Note_on_c, 4, 41, 0
10, 167400, Note_on_c, 4, 41, 84
10, 167403, Control_c, 4, 11, 77
10, 167427, Control_c, 4, 11, 75
10, 167450, Control_c, 4, 11, 72
10, 167473, Control_c, 4, 11, 69
10, 167497, Control_c, 4, 11, 64
10, 167509, Note_on_c, 4, 58, 0
10, 167519, Note_on_c, 4, 41, 0
10, 167520, Note_on_c, 4, 53, 84
10, 167609, Note_on_c, 4, 53, 0
10, 167640, Note_on_c, 4, 50, 84
10, 167729, Note_on_c, 4, 50, 0
10, 167760, Note_on_c, 4, 53, 84
10, 167849, Note_on_c, 4, 53, 0
10, 167880, Note_on_c, 4, 50, 84
10, 167969, Note_on_c, 4, 50, 0
10, 168000, Note_on_c, 4, 46, 84
10, 168089, Note_on_c, 4, 46, 0
10, 168120, Note_on_c, 4, 41, 84
10, 168209, Note_on_c, 4, 41, 0
10, 168240, Note_on_c, 4, 46, 84
10, 168329, Note_on_c, 4, 46, 0
10, 168360, Note_on_c, 4, 50, 84
10, 168449, Note_on_c, 4, 50, 0
10, 168480, Note_on_c, 4, 53, 84
10, 168569, Note_on_c, 4, 53, 0
10, 168600, Note_on_c, 4, 50, 84
10, 168689, Note_on_c, 4, 50, 0
10, 168720, Note_on_c, 4, 46, 84
10, 168809, Note_on_c, 4, 46, 0
10, 168840, Note_on_c, 4, 41, 84
10, 168929, Note_on_c, 4, 41, 0
10, 168960, Note_on_c, 4, 46, 84
10, 169049, Note_on_c, 4, 46, 0
10, 169080, Note_on_c, 4, 50, 84
10, 169169, Note_on_c, 4, 50, 0
10, 169200, Note_on_c, 4, 53, 84
10, 169289, Note_on_c, 4, 53, 0
10, 169320, Note_on_c, 4, 58, 84
10, 169409, Note_on_c, 4, 58, 0
10, 169440, Note_on_c, 4, 62, 84
10, 169529, Note_on_c, 4, 62, 0
10, 169560, Note_on_c, 4, 65, 84
10, 169649, Note_on_c, 4, 65, 0
10, 169680, Note_on_c, 4, 46, 84
10, 169769, Note_on_c, 4, 46, 0
10, 169800, Note_on_c, 4, 51, 84
10, 169800, Note_on_c, 4, 39, 84
10, 169889, Note_on_c, 4, 51, 0
10, 169889, Note_on_c, 4, 39, 0
10, 169920, Note_on_c, 4, 41, 84
10, 169920, Note_on_c, 4, 48, 84
10, 170159, Note_on_c, 4, 41, 0
10, 170159, Note_on_c, 4, 48, 0
10, 170520, Control_c, 4, 11, 127
10, 170640, Note_on_c, 4, 41, 52
10, 170640, Note_on_c, 4, 53, 52
10, 170879, Note_on_c, 4, 41, 0
10, 170879, Note_on_c, 4, 53, 0
10, 171360, Note_on_c, 4, 46, 52
10, 171599, Note_on_c, 4, 46, 0
10, 173400, Note_on_c, 4, 58, 76
10, 173400, Note_on_c, 4, 62, 76
10, 173519, Note_on_c, 4, 58, 0
10, 173519, Note_on_c, 4, 62, 0
10, 173520, Note_on_c, 4, 60, 84
10, 173520, Note_on_c, 4, 63, 84
10, 173639, Note_on_c, 4, 60, 0
10, 173639, Note_on_c, 4, 63, 0
10, 173640, Note_on_c, 4, 53, 76
10, 173640, Note_on_c, 4, 57, 76
10, 173759, Note_on_c, 4, 53, 0
10, 173759, Note_on_c, 4, 57, 0
10, 173760, Note_on_c, 4, 58, 76
10, 173760, Note_on_c, 4, 55, 76
10, 173879, Note_on_c, 4, 58, 0
10, 173879, Note_on_c, 4, 55, 0
10, 173880, Note_on_c, 4, 60, 76
10, 173880, Note_on_c, 4, 57, 76
10, 173880, Control_c, 4, 11, 127
10, 173910, Control_c, 4, 11, 123
10, 173940, Control_c, 4, 11, 119
10, 173970, Control_c, 4, 11, 115
10, 173999, Note_on_c, 4, 60, 0
10, 173999, Note_on_c, 4, 57, 0
10, 174000, Control_c, 4, 11, 111
10, 174000, Note_on_c, 4, 58, 76
10, 174000, Note_on_c, 4, 62, 76
10, 174030, Control_c, 4, 11, 107
10, 174060, Control_c, 4, 11, 105
10, 174090, Control_c, 4, 11, 101
10, 174119, Note_on_c, 4, 58, 0
10, 174119, Note_on_c, 4, 62, 0
10, 174120, Control_c, 4, 11, 97
10, 174120, Note_on_c, 4, 63, 76
10, 174120, Note_on_c, 4, 57, 76
10, 174150, Control_c, 4, 11, 93
10, 174180, Control_c, 4, 11, 89
10, 174210, Control_c, 4, 11, 85
10, 174229, Note_on_c, 4, 63, 0
10, 174229, Note_on_c, 4, 57, 0
10, 174238, Control_c, 4, 11, 81
10, 174240, Note_on_c, 4, 58, 76
10, 174240, Note_on_c, 4, 62, 76
10, 174349, Note_on_c, 4, 58, 0
10, 174349, Note_on_c, 4, 62, 0
10, 174360, Note_on_c, 4, 50, 76
10, 174360, Note_on_c, 4, 53, 76
10, 174469, Note_on_c, 4, 50, 0
10, 174469, Note_on_c, 4, 53, 0
10, 174480, Note_on_c, 4, 50, 76
10, 174480, Note_on_c, 4, 53, 76
10, 174599, Note_on_c, 4, 50, 0
10, 174599, Note_on_c, 4, 53, 0
10, 174600, Note_on_c, 4, 51, 76
10, 174600, Note_on_c, 4, 55, 76
10, 174719, Note_on_c, 4, 51, 0
10, 174719, Note_on_c, 4, 55, 0
10, 174720, Note_on_c, 4, 50, 76
10, 174720, Note_on_c, 4, 53, 76
10, 174829, Note_on_c, 4, 50, 0
10, 174829, Note_on_c, 4, 53, 0
10, 174840, Note_on_c, 4, 53, 76
10, 174840, Note_on_c, 4, 50, 76
10, 174959, Note_on_c, 4, 53, 0
10, 174959, Note_on_c, 4, 50, 0
10, 174960, Note_on_c, 4, 51, 76
10, 174960, Note_on_c, 4, 48, 76
10, 175079, Note_on_c, 4, 51, 0
10, 175079, Note_on_c, 4, 48, 0
10, 175080, Note_on_c, 4, 50, 76
10, 175080, Note_on_c, 4, 46, 76
10, 175189, Note_on_c, 4, 50, 0
10, 175189, Note_on_c, 4, 46, 0
10, 175200, Note_on_c, 4, 46, 76
10, 175200, Note_on_c, 4, 50, 76
10, 175319, Note_on_c, 4, 46, 0
10, 175319, Note_on_c, 4, 50, 0
10, 175320, Note_on_c, 4, 48, 76
10, 175320, Control_c, 4, 11, 81
10, 175320, Note_on_c, 4, 51, 76
10, 175350, Control_c, 4, 11, 79
10, 175380, Control_c, 4, 11, 78
10, 175410, Control_c, 4, 11, 77
10, 175439, Note_on_c, 4, 48, 0
10, 175439, Note_on_c, 4, 51, 0
10, 175440, Note_on_c, 4, 41, 76
10, 175440, Note_on_c, 4, 48, 76
10, 175440, Control_c, 4, 11, 75
10, 175470, Control_c, 4, 11, 74
10, 175500, Control_c, 4, 11, 73
10, 175530, Control_c, 4, 11, 71
10, 175549, Note_on_c, 4, 41, 0
10, 175549, Note_on_c, 4, 48, 0
10, 175560, Note_on_c, 4, 48, 76
10, 175560, Note_on_c, 4, 41, 76
10, 175560, Control_c, 4, 11, 70
10, 175590, Control_c, 4, 11, 69
10, 175620, Control_c, 4, 11, 67
10, 175650, Control_c, 4, 11, 66
10, 175679, Note_on_c, 4, 48, 0
10, 175679, Note_on_c, 4, 41, 0
10, 175680, Control_c, 4, 11, 65
10, 175680, Note_on_c, 4, 50, 76
10, 175680, Note_on_c, 4, 46, 76
10, 175799, Note_on_c, 4, 50, 0
10, 175799, Note_on_c, 4, 46, 0
10, 175800, Note_on_c, 4, 53, 76
10, 175800, Note_on_c, 4, 50, 76
10, 175909, Note_on_c, 4, 53, 0
10, 175909, Note_on_c, 4, 50, 0
10, 175920, Note_on_c, 4, 53, 76
10, 175920, Note_on_c, 4, 50, 76
10, 176039, Note_on_c, 4, 53, 0
10, 176039, Note_on_c, 4, 50, 0
10, 176040, Note_on_c, 4, 51, 76
10, 176040, Note_on_c, 4, 55, 76
10, 176159, Note_on_c, 4, 51, 0
10, 176159, Note_on_c, 4, 55, 0
10, 176160, Note_on_c, 4, 53, 76
10, 176160, Note_on_c, 4, 50, 76
10, 176269, Note_on_c, 4, 53, 0
10, 176269, Note_on_c, 4, 50, 0
10, 176280, Note_on_c, 4, 50, 76
10, 176280, Note_on_c, 4, 53, 76
10, 176399, Note_on_c, 4, 50, 0
10, 176399, Note_on_c, 4, 53, 0
10, 176400, Note_on_c, 4, 48, 76
10, 176400, Note_on_c, 4, 51, 76
10, 176519, Note_on_c, 4, 48, 0
10, 176519, Note_on_c, 4, 51, 0
10, 176520, Note_on_c, 4, 50, 76
10, 176520, Note_on_c, 4, 46, 76
10, 176629, Note_on_c, 4, 50, 0
10, 176629, Note_on_c, 4, 46, 0
10, 176640, Note_on_c, 4, 46, 76
10, 176640, Note_on_c, 4, 50, 76
10, 176759, Note_on_c, 4, 46, 0
10, 176759, Note_on_c, 4, 50, 0
10, 176760, Note_on_c, 4, 48, 76
10, 176760, Control_c, 4, 11, 81
10, 176760, Note_on_c, 4, 51, 76
10, 176790, Control_c, 4, 11, 79
10, 176820, Control_c, 4, 11, 78
10, 176850, Control_c, 4, 11, 77
10, 176879, Note_on_c, 4, 48, 0
10, 176879, Note_on_c, 4, 51, 0
10, 176880, Note_on_c, 4, 48, 76
10, 176880, Note_on_c, 4, 41, 76
10, 176880, Control_c, 4, 11, 75
10, 176910, Control_c, 4, 11, 74
10, 176940, Control_c, 4, 11, 73
10, 176970, Control_c, 4, 11, 71
10, 176989, Note_on_c, 4, 48, 0
10, 176989, Note_on_c, 4, 41, 0
10, 177000, Control_c, 4, 11, 70
10, 177000, Note_on_c, 4, 41, 76
10, 177000, Note_on_c, 4, 48, 76
10, 177030, Control_c, 4, 11, 69
10, 177060, Control_c, 4, 11, 67
10, 177090, Control_c, 4, 11, 65
10, 177109, Note_on_c, 4, 41, 0
10, 177109, Note_on_c, 4, 48, 0
10, 177120, Note_on_c, 4, 46, 76
10, 177120, Note_on_c, 4, 50, 76
10, 177359, Note_on_c, 4, 46, 0
10, 177359, Note_on_c, 4, 50, 0
10, 179880, Control_c, 4, 11, 127
10, 180000, Note_on_c, 4, 55, 68
10, 180000, Note_on_c, 4, 58, 68
10, 180000, Control_c, 4, 11, 127
10, 180120, Control_c, 4, 11, 123
10, 180240, Control_c, 4, 11, 119
10, 180360, Control_c, 4, 11, 115
10, 180480, Control_c, 4, 11, 111
10, 180600, Control_c, 4, 11, 107
10, 180720, Control_c, 4, 11, 105
10, 180840, Control_c, 4, 11, 101
10, 180960, Control_c, 4, 11, 97
10, 181080, Control_c, 4, 11, 93
10, 181200, Control_c, 4, 11, 89
10, 181319, Note_on_c, 4, 55, 0
10, 181319, Note_on_c, 4, 58, 0
10, 181320, Note_on_c, 4, 51, 68
10, 181320, Control_c, 4, 11, 85
10, 181320, Note_on_c, 4, 55, 68
10, 181439, Note_on_c, 4, 51, 0
10, 181439, Note_on_c, 4, 55, 0
10, 181440, Note_on_c, 4, 53, 68
10, 181440, Control_c, 4, 11, 81
10, 181440, Note_on_c, 4, 50, 68
10, 181560, Control_c, 4, 11, 85
10, 181669, Note_on_c, 4, 53, 0
10, 181669, Note_on_c, 4, 50, 0
10, 181680, Note_on_c, 4, 53, 68
10, 181680, Control_c, 4, 11, 89
10, 181680, Note_on_c, 4, 50, 68
10, 181799, Note_on_c, 4, 53, 0
10, 181799, Note_on_c, 4, 50, 0
10, 181800, Control_c, 4, 11, 93
10, 181800, Note_on_c, 4, 51, 68
10, 181800, Note_on_c, 4, 55, 68
10, 181920, Control_c, 4, 11, 97
10, 182039, Note_on_c, 4, 51, 0
10, 182039, Note_on_c, 4, 55, 0
10, 182040, Control_c, 4, 11, 101
10, 182040, Note_on_c, 4, 53, 68
10, 182040, Note_on_c, 4, 50, 68
10, 182159, Note_on_c, 4, 53, 0
10, 182159, Note_on_c, 4, 50, 0
10, 182160, Note_on_c, 4, 56, 68
10, 182160, Control_c, 4, 11, 105
10, 182160, Note_on_c, 4, 53, 68
10, 182280, Control_c, 4, 11, 107
10, 182399, Note_on_c, 4, 56, 0
10, 182399, Note_on_c, 4, 53, 0
10, 182400, Control_c, 4, 11, 111
10, 182400, Note_on_c, 4, 51, 68
10, 182400, Note_on_c, 4, 55, 68
10, 182519, Note_on_c, 4, 51, 0
10, 182519, Note_on_c, 4, 55, 0
10, 182520, Note_on_c, 4, 58, 68
10, 182520, Note_on_c, 4, 55, 68
10, 182520, Control_c, 4, 11, 115
10, 182640, Control_c, 4, 11, 119
10, 182759, Note_on_c, 4, 58, 0
10, 182759, Note_on_c, 4, 55, 0
10, 182760, Control_c, 4, 11, 123
10, 182760, Note_on_c, 4, 53, 68
10, 182760, Note_on_c, 4, 56, 68
10, 182869, Note_on_c, 4, 53, 0
10, 182869, Note_on_c, 4, 56, 0
10, 182880, Note_on_c, 4, 60, 68
10, 182880, Control_c, 4, 11, 127
10, 182880, Note_on_c, 4, 56, 68
10, 183000, Control_c, 4, 11, 123
10, 183119, Note_on_c, 4, 60, 0
10, 183119, Note_on_c, 4, 56, 0
10, 183120, Control_c, 4, 11, 119
10, 183120, Note_on_c, 4, 58, 68
10, 183120, Note_on_c, 4, 55, 68
10, 183239, Note_on_c, 4, 58, 0
10, 183239, Note_on_c, 4, 55, 0
10, 183240, Note_on_c, 4, 56, 68
10, 183240, Control_c, 4, 11, 115
10, 183240, Note_on_c, 4, 53, 68
10, 183360, Control_c, 4, 11, 111
10, 183479, Note_on_c, 4, 56, 0
10, 183479, Note_on_c, 4, 53, 0
10, 183480, Note_on_c, 4, 51, 68
10, 183480, Control_c, 4, 11, 107
10, 183480, Note_on_c, 4, 55, 68
10, 183599, Note_on_c, 4, 51, 0
10, 183599, Note_on_c, 4, 55, 0
10, 183600, Note_on_c, 4, 50, 68
10, 183600, Note_on_c, 4, 53, 68
10, 183600, Control_c, 4, 11, 105
10, 183720, Control_c, 4, 11, 101
10, 183839, Note_on_c, 4, 50, 0
10, 183839, Note_on_c, 4, 53, 0
10, 183840, Control_c, 4, 11, 97
10, 183840, Note_on_c, 4, 51, 68
10, 183840, Note_on_c, 4, 55, 68
10, 183959, Note_on_c, 4, 51, 0
10, 183959, Note_on_c, 4, 55, 0
10, 183960, Control_c, 4, 11, 93
10, 183960, Note_on_c, 4, 56, 68
10, 183960, Note_on_c, 4, 53, 68
10, 184080, Control_c, 4, 11, 89
10, 184199, Note_on_c, 4, 56, 0
10, 184199, Note_on_c, 4, 53, 0
10, 184200, Control_c, 4, 11, 85
10, 184200, Note_on_c, 4, 51, 68
10, 184200, Note_on_c, 4, 55, 68
10, 184309, Note_on_c, 4, 51, 0
10, 184309, Note_on_c, 4, 55, 0
10, 184318, Control_c, 4, 11, 81
10, 184320, Note_on_c, 4, 50, 68
10, 184320, Note_on_c, 4, 53, 68
10, 184559, Note_on_c, 4, 50, 0
10, 184559, Note_on_c, 4, 53, 0
10, 189720, Control_c, 4, 11, 127
10, 189960, Note_on_c, 4, 53, 52
10, 189960, Note_on_c, 4, 65, 52
10, 190079, Note_on_c, 4, 53, 0
10, 190079, Note_on_c, 4, 65, 0
10, 190080, Note_on_c, 4, 58, 52
10, 190080, Note_on_c, 4, 62, 52
10, 190199, Note_on_c, 4, 58, 0
10, 190199, Note_on_c, 4, 62, 0
10, 195720, Note_on_c, 4, 63, 52
10, 195829, Note_on_c, 4, 63, 0
10, 195840, Note_on_c, 4, 62, 52
10, 195959, Note_on_c, 4, 62, 0
10, 195960, Note_on_c, 4, 60, 52
10, 196079, Note_on_c, 4, 60, 0
10, 196080, Note_on_c, 4, 58, 52
10, 196169, Note_on_c, 4, 58, 0
10, 196180, Note_on_c, 4, 60, 52
10, 196199, Note_on_c, 4, 60, 0
10, 196200, Note_on_c, 4, 58, 52
10, 196319, Note_on_c, 4, 58, 0
10, 196320, Note_on_c, 4, 57, 52
10, 196439, Note_on_c, 4, 57, 0
10, 196440, Note_on_c, 4, 55, 52
10, 196559, Note_on_c, 4, 55, 0
10, 197880, Note_on_c, 4, 53, 73
10, 197880, Note_on_c, 4, 41, 73
10, 197989, Note_on_c, 4, 53, 0
10, 197989, Note_on_c, 4, 41, 0
10, 198000, Note_on_c, 4, 53, 84
10, 198000, Note_on_c, 4, 46, 84
10, 198060, Control_c, 4, 11, 112
10, 198097, Control_c, 4, 11, 108
10, 198133, Control_c, 4, 11, 105
10, 198170, Control_c, 4, 11, 101
10, 198207, Control_c, 4, 11, 98
10, 198243, Control_c, 4, 11, 94
10, 198280, Control_c, 4, 11, 91
10, 198317, Control_c, 4, 11, 87
10, 198353, Control_c, 4, 11, 84
10, 198390, Control_c, 4, 11, 80
10, 198427, Control_c, 4, 11, 76
10, 198463, Control_c, 4, 11, 73
10, 198500, Control_c, 4, 11, 69
10, 198537, Control_c, 4, 11, 66
10, 198573, Control_c, 4, 11, 62
10, 198610, Control_c, 4, 11, 59
10, 198647, Control_c, 4, 11, 55
10, 198683, Control_c, 4, 11, 48
10, 198959, Note_on_c, 4, 53, 0
10, 198959, Note_on_c, 4, 46, 0
10, 199080, Note_on_c, 4, 46, 84
10, 199319, Note_on_c, 4, 46, 0
10, 199440, Note_on_c, 4, 46, 84
10, 199679, Note_on_c, 4, 46, 0
10, 200160, Control_c, 4, 11, 127
10, 200160, End_track
11, 0, Start_track
11, 0, Title_t, "French Horn in B-flat"
11, 0, MIDI_port, 0
11, 0, Program_c, 5, 60
11, 0, Control_c, 5, 7, 96
11, 0, Control_c, 5, 10, 45
11, 0, Control_c, 5, 11, 127
11, 0, Note_on_c, 5, 58, 52
11, 0, Note_on_c, 5, 46, 52
11, 1429, Note_on_c, 5, 58, 0
11, 1429, Note_on_c, 5, 46, 0
11, 1440, Note_on_c, 5, 58, 52
11, 1440, Note_on_c, 5, 46, 52
11, 2869, Note_on_c, 5, 58, 0
11, 2869, Note_on_c, 5, 46, 0
11, 2880, Note_on_c, 5, 53, 52
11, 2880, Note_on_c, 5, 41, 52
11, 4309, Note_on_c, 5, 53, 0
11, 4309, Note_on_c, 5, 41, 0
11, 4320, Note_on_c, 5, 53, 52
11, 4320, Note_on_c, 5, 41, 52
11, 5749, Note_on_c, 5, 53, 0
11, 5749, Note_on_c, 5, 41, 0
11, 5758, Control_c, 5, 11, 81
11, 5760, Note_on_c, 5, 46, 76
11, 5760, Note_on_c, 5, 58, 76
11, 5760, Control_c, 5, 11, 81
11, 5880, Control_c, 5, 11, 85
11, 6000, Control_c, 5, 11, 89
11, 6120, Control_c, 5, 11, 93
11, 6240, Control_c, 5, 11, 97
11, 6360, Control_c, 5, 11, 101
11, 6480, Control_c, 5, 11, 105
11, 6600, Control_c, 5, 11, 107
11, 6720, Control_c, 5, 11, 111
11, 6840, Control_c, 5, 11, 115
11, 6960, Control_c, 5, 11, 119
11, 7080, Control_c, 5, 11, 123
11, 7189, Note_on_c, 5, 46, 0
11, 7189, Note_on_c, 5, 58, 0
11, 7200, Note_on_c, 5, 41, 76
11, 7200, Note_on_c, 5, 53, 76
11, 7200, Control_c, 5, 11, 127
11, 7260, Control_c, 5, 11, 81
11, 7309, Note_on_c, 5, 41, 0
11, 7309, Note_on_c, 5, 53, 0
11, 7320, Note_on_c, 5, 53, 76
11, 7320, Note_on_c, 5, 41, 76
11, 7429, Note_on_c, 5, 53, 0
11, 7429, Note_on_c, 5, 41, 0
11, 7440, Note_on_c, 5, 53, 76
11, 7440, Note_on_c, 5, 41, 76
11, 7549, Note_on_c, 5, 53, 0
11, 7549, Note_on_c, 5, 41, 0
11, 7560, Note_on_c, 5, 53, 76
11, 7560, Note_on_c, 5, 41, 76
11, 7669, Note_on_c, 5, 53, 0
11, 7669, Note_on_c, 5, 41, 0
11, 7680, Note_on_c, 5, 53, 76
11, 7680, Note_on_c, 5, 41, 76
11, 7789, Note_on_c, 5, 53, 0
11, 7789, Note_on_c, 5, 41, 0
11, 7800, Note_on_c, 5, 41, 76
11, 7800, Note_on_c, 5, 53, 76
11, 7909, Note_on_c, 5, 41, 0
11, 7909, Note_on_c, 5, 53, 0
11, 7920, Note_on_c, 5, 53, 76
11, 7920, Control_c, 5, 11, 81
11, 7920, Note_on_c, 5, 41, 76
11, 7950, Control_c, 5, 11, 83
11, 7980, Control_c, 5, 11, 86
11, 8010, Control_c, 5, 11, 89
11, 8029, Note_on_c, 5, 53, 0
11, 8029, Note_on_c, 5, 41, 0
11, 8040, Note_on_c, 5, 53, 76
11, 8040, Note_on_c, 5, 41, 76
11, 8040, Control_c, 5, 11, 91
11, 8070, Control_c, 5, 11, 94
11, 8100, Control_c, 5, 11, 97
11, 8130, Control_c, 5, 11, 99
11, 8149, Note_on_c, 5, 53, 0
11, 8149, Note_on_c, 5, 41, 0
11, 8160, Control_c, 5, 11, 102
11, 8160, Note_on_c, 5, 41, 76
11, 8160, Note_on_c, 5, 53, 76
11, 8190, Control_c, 5, 11, 105
11, 8220, Control_c, 5, 11, 107
11, 8250, Control_c, 5, 11, 110
11, 8269, Note_on_c, 5, 41, 0
11, 8269, Note_on_c, 5, 53, 0
11, 8280, Control_c, 5, 11, 112
11, 8280, Note_on_c, 5, 41, 76
11, 8280, Note_on_c, 5, 53, 76
11, 8310, Control_c, 5, 11, 109
11, 8340, Control_c, 5, 11, 107
11, 8370, Control_c, 5, 11, 104
11, 8389, Note_on_c, 5, 41, 0
11, 8389, Note_on_c, 5, 53, 0
11, 8400, Control_c, 5, 11, 101
11, 8400, Note_on_c, 5, 41, 76
11, 8400, Note_on_c, 5, 53, 76
11, 8430, Control_c, 5, 11, 99
11, 8460, Control_c, 5, 11, 96
11, 8490, Control_c, 5, 11, 93
11, 8509, Note_on_c, 5, 41, 0
11, 8509, Note_on_c, 5, 53, 0
11, 8520, Note_on_c, 5, 41, 76
11, 8520, Control_c, 5, 11, 91
11, 8520, Note_on_c, 5, 53, 76
11, 8550, Control_c, 5, 11, 88
11, 8580, Control_c, 5, 11, 85
11, 8610, Control_c, 5, 11, 83
11, 8629, Note_on_c, 5, 41, 0
11, 8629, Note_on_c, 5, 53, 0
11, 8638, Control_c, 5, 11, 81
11, 8640, Note_on_c, 5, 58, 76
11, 8640, Note_on_c, 5, 46, 76
11, 9229, Note_on_c, 5, 58, 0
11, 9229, Note_on_c, 5, 46, 0
11, 9240, Note_on_c, 5, 46, 76
11, 9240, Note_on_c, 5, 58, 76
11, 9589, Note_on_c, 5, 46, 0
11, 9589, Note_on_c, 5, 58, 0
11, 9600, Note_on_c, 5, 46, 76
11, 9600, Note_on_c, 5, 58, 76
11, 9949, Note_on_c, 5, 46, 0
11, 9949, Note_on_c, 5, 58, 0
11, 9960, Note_on_c, 5, 58, 76
11, 9960, Note_on_c, 5, 46, 76
11, 10069, Note_on_c, 5, 58, 0
11, 10069, Note_on_c, 5, 46, 0
11, 10080, Note_on_c, 5, 46, 76
11, 10080, Note_on_c, 5, 58, 76
11, 10669, Note_on_c, 5, 46, 0
11, 10669, Note_on_c, 5, 58, 0
11, 10680, Note_on_c, 5, 58, 76
11, 10680, Note_on_c, 5, 46, 76
11, 11029, Note_on_c, 5, 58, 0
11, 11029, Note_on_c, 5, 46, 0
11, 11040, Note_on_c, 5, 58, 76
11, 11040, Note_on_c, 5, 46, 76
11, 11389, Note_on_c, 5, 58, 0
11, 11389, Note_on_c, 5, 46, 0
11, 11400, Note_on_c, 5, 58, 76
11, 11400, Note_on_c, 5, 46, 76
11, 11509, Note_on_c, 5, 58, 0
11, 11509, Note_on_c, 5, 46, 0
11, 11520, Note_on_c, 5, 53, 76
11, 11520, Note_on_c, 5, 41, 76
11, 12109, Note_on_c, 5, 53, 0
11, 12109, Note_on_c, 5, 41, 0
11, 12120, Note_on_c, 5, 53, 76
11, 12120, Note_on_c, 5, 41, 76
11, 12469, Note_on_c, 5, 53, 0
11, 12469, Note_on_c, 5, 41, 0
11, 12480, Note_on_c, 5, 41, 76
11, 12480, Note_on_c, 5, 53, 76
11, 12829, Note_on_c, 5, 41, 0
11, 12829, Note_on_c, 5, 53, 0
11, 12840, Note_on_c, 5, 41, 76
11, 12840, Note_on_c, 5, 53, 76
11, 12949, Note_on_c, 5, 41, 0
11, 12949, Note_on_c, 5, 53, 0
11, 12960, Note_on_c, 5, 41, 76
11, 12960, Note_on_c, 5, 53, 76
11, 13549, Note_on_c, 5, 41, 0
11, 13549, Note_on_c, 5, 53, 0
11, 13560, Note_on_c, 5, 53, 76
11, 13560, Note_on_c, 5, 41, 76
11, 13909, Note_on_c, 5, 53, 0
11, 13909, Note_on_c, 5, 41, 0
11, 13920, Note_on_c, 5, 53, 76
11, 13920, Note_on_c, 5, 41, 76
11, 14269, Note_on_c, 5, 53, 0
11, 14269, Note_on_c, 5, 41, 0
11, 14280, Note_on_c, 5, 41, 76
11, 14280, Note_on_c, 5, 53, 76
11, 14389, Note_on_c, 5, 41, 0
11, 14389, Note_on_c, 5, 53, 0
11, 14400, Note_on_c, 5, 58, 76
11, 14400, Note_on_c, 5, 46, 76
11, 14400, Control_c, 5, 11, 81
11, 14400, Control_c, 5, 11, 81
11, 14520, Control_c, 5, 11, 85
11, 14640, Control_c, 5, 11, 89
11, 14760, Control_c, 5, 11, 93
11, 14880, Control_c, 5, 11, 97
11, 14989, Note_on_c, 5, 58, 0
11, 14989, Note_on_c, 5, 46, 0
11, 15000, Note_on_c, 5, 58, 76
11, 15000, Note_on_c, 5, 46, 76
11, 15000, Control_c, 5, 11, 101
11, 15120, Control_c, 5, 11, 105
11, 15240, Control_c, 5, 11, 107
11, 15349, Note_on_c, 5, 58, 0
11, 15349, Note_on_c, 5, 46, 0
11, 15360, Note_on_c, 5, 58, 76
11, 15360, Note_on_c, 5, 46, 76
11, 15360, Control_c, 5, 11, 111
11, 15480, Control_c, 5, 11, 115
11, 15600, Control_c, 5, 11, 119
11, 15709, Note_on_c, 5, 58, 0
11, 15709, Note_on_c, 5, 46, 0
11, 15720, Note_on_c, 5, 46, 76
11, 15720, Control_c, 5, 11, 123
11, 15720, Note_on_c, 5, 58, 76
11, 15829, Note_on_c, 5, 46, 0
11, 15829, Note_on_c, 5, 58, 0
11, 15840, Note_on_c, 5, 53, 76
11, 15840, Note_on_c, 5, 41, 76
11, 15840, Control_c, 5, 11, 127
11, 15900, Control_c, 5, 11, 81
11, 16069, Note_on_c, 5, 53, 0
11, 16069, Note_on_c, 5, 41, 0
11, 16080, Note_on_c, 5, 41, 76
11, 16080, Note_on_c, 5, 53, 76
11, 16429, Note_on_c, 5, 41, 0
11, 16429, Note_on_c, 5, 53, 0
11, 16440, Note_on_c, 5, 41, 76
11, 16440, Note_on_c, 5, 53, 76
11, 16560, Control_c, 5, 11, 81
11, 16590, Control_c, 5, 11, 83
11, 16620, Control_c, 5, 11, 86
11, 16650, Control_c, 5, 11, 89
11, 16680, Control_c, 5, 11, 91
11, 16710, Control_c, 5, 11, 94
11, 16740, Control_c, 5, 11, 97
11, 16770, Control_c, 5, 11, 99
11, 16789, Note_on_c, 5, 41, 0
11, 16789, Note_on_c, 5, 53, 0
11, 16800, Control_c, 5, 11, 102
11, 16800, Note_on_c, 5, 53, 76
11, 16800, Note_on_c, 5, 41, 76
11, 16830, Control_c, 5, 11, 105
11, 16860, Control_c, 5, 11, 107
11, 16890, Control_c, 5, 11, 110
11, 17149, Note_on_c, 5, 53, 0
11, 17149, Note_on_c, 5, 41, 0
11, 17160, Note_on_c, 5, 41, 76
11, 17160, Control_c, 5, 11, 112
11, 17160, Note_on_c, 5, 53, 76
11, 17269, Note_on_c, 5, 41, 0
11, 17269, Note_on_c, 5, 53, 0
11, 17280, Note_on_c, 5, 46, 60
11, 17280, Note_on_c, 5, 53, 60
11, 17519, Note_on_c, 5, 46, 0
11, 17519, Note_on_c, 5, 53, 0
11, 19800, Control_c, 5, 11, 127
11, 20160, Note_on_c, 5, 46, 52
11, 20269, Note_on_c, 5, 46, 0
11, 20280, Note_on_c, 5, 46, 52
11, 20389, Note_on_c, 5, 46, 0
11, 20400, Note_on_c, 5, 46, 52
11, 20509, Note_on_c, 5, 46, 0
11, 20520, Note_on_c, 5, 46, 52
11, 20629, Note_on_c, 5, 46, 0
11, 20640, Note_on_c, 5, 46, 52
11, 20749, Note_on_c, 5, 46, 0
11, 20760, Note_on_c, 5, 46, 52
11, 20869, Note_on_c, 5, 46, 0
11, 20880, Note_on_c, 5, 53, 52
11, 20880, Note_on_c, 5, 46, 52
11, 20989, Note_on_c, 5, 53, 0
11, 20989, Note_on_c, 5, 46, 0
11, 21000, Note_on_c, 5, 53, 52
11, 21000, Note_on_c, 5, 46, 52
11, 21109, Note_on_c, 5, 53, 0
11, 21109, Note_on_c, 5, 46, 0
11, 21120, Note_on_c, 5, 53, 52
11, 21120, Note_on_c, 5, 46, 52
11, 21229, Note_on_c, 5, 53, 0
11, 21229, Note_on_c, 5, 46, 0
11, 21240, Note_on_c, 5, 53, 52
11, 21240, Note_on_c, 5, 46, 52
11, 21349, Note_on_c, 5, 53, 0
11, 21349, Note_on_c, 5, 46, 0
11, 21360, Note_on_c, 5, 53, 52
11, 21360, Note_on_c, 5, 46, 52
11, 21469, Note_on_c, 5, 53, 0
11, 21469, Note_on_c, 5, 46, 0
11, 21480, Note_on_c, 5, 46, 52
11, 21480, Note_on_c, 5, 53, 52
11, 21589, Note_on_c, 5, 46, 0
11, 21589, Note_on_c, 5, 53, 0
11, 21598, Control_c, 5, 11, 97
11, 21600, Note_on_c, 5, 53, 68
11, 21600, Note_on_c, 5, 46, 68
11, 21660, Control_c, 5, 11, 99
11, 21709, Note_on_c, 5, 53, 0
11, 21709, Note_on_c, 5, 46, 0
11, 21720, Note_on_c, 5, 46, 68
11, 21720, Note_on_c, 5, 53, 68
11, 21720, Control_c, 5, 11, 102
11, 21780, Control_c, 5, 11, 105
11, 21829, Note_on_c, 5, 46, 0
11, 21829, Note_on_c, 5, 53, 0
11, 21840, Note_on_c, 5, 53, 68
11, 21840, Control_c, 5, 11, 107
11, 21840, Note_on_c, 5, 46, 68
11, 21900, Control_c, 5, 11, 110
11, 21949, Note_on_c, 5, 53, 0
11, 21949, Note_on_c, 5, 46, 0
11, 21960, Note_on_c, 5, 46, 68
11, 21960, Control_c, 5, 11, 113
11, 21960, Note_on_c, 5, 53, 68
11, 22020, Control_c, 5, 11, 115
11, 22069, Note_on_c, 5, 46, 0
11, 22069, Note_on_c, 5, 53, 0
11, 22080, Control_c, 5, 11, 118
11, 22080, Note_on_c, 5, 53, 68
11, 22080, Note_on_c, 5, 46, 68
11, 22140, Control_c, 5, 11, 119
11, 22189, Note_on_c, 5, 53, 0
11, 22189, Note_on_c, 5, 46, 0
11, 22200, Note_on_c, 5, 53, 68
11, 22200, Note_on_c, 5, 46, 68
11, 22200, Control_c, 5, 11, 123
11, 22260, Control_c, 5, 11, 125
11, 22309, Note_on_c, 5, 53, 0
11, 22309, Note_on_c, 5, 46, 0
11, 22320, Note_on_c, 5, 46, 68
11, 22320, Control_c, 5, 11, 127
11, 22320, Note_on_c, 5, 53, 68
11, 22380, Control_c, 5, 11, 125
11, 22429, Note_on_c, 5, 46, 0
11, 22429, Note_on_c, 5, 53, 0
11, 22440, Note_on_c, 5, 46, 68
11, 22440, Control_c, 5, 11, 123
11, 22440, Note_on_c, 5, 53, 68
11, 22500, Control_c, 5, 11, 119
11, 22549, Note_on_c, 5, 46, 0
11, 22549, Note_on_c, 5, 53, 0
11, 22560, Note_on_c, 5, 53, 68
11, 22560, Note_on_c, 5, 46, 68
11, 22560, Control_c, 5, 11, 118
11, 22620, Control_c, 5, 11, 115
11, 22669, Note_on_c, 5, 53, 0
11, 22669, Note_on_c, 5, 46, 0
11, 22680, Control_c, 5, 11, 113
11, 22680, Note_on_c, 5, 46, 68
11, 22680, Note_on_c, 5, 53, 68
11, 22740, Control_c, 5, 11, 110
11, 22789, Note_on_c, 5, 46, 0
11, 22789, Note_on_c, 5, 53, 0
11, 22800, Note_on_c, 5, 53, 68
11, 22800, Note_on_c, 5, 46, 68
11, 22800, Control_c, 5, 11, 107
11, 22860, Control_c, 5, 11, 105
11, 22909, Note_on_c, 5, 53, 0
11, 22909, Note_on_c, 5, 46, 0
11, 22920, Note_on_c, 5, 53, 68
11, 22920, Control_c, 5, 11, 102
11, 22920, Note_on_c, 5, 46, 68
11, 23029, Note_on_c, 5, 53, 0
11, 23029, Note_on_c, 5, 46, 0
11, 23038, Control_c, 5, 11, 97
11, 23040, Note_on_c, 5, 58, 68
11, 23040, Note_on_c, 5, 46, 68
11, 24719, Note_on_c, 5, 58, 0
11, 24719, Note_on_c, 5, 46, 0
11, 24840, Note_on_c, 5, 58, 68
11, 24840, Note_on_c, 5, 50, 68
11, 25079, Note_on_c, 5, 58, 0
11, 25079, Note_on_c, 5, 50, 0
11, 25200, Note_on_c, 5, 58, 68
11, 25200, Note_on_c, 5, 50, 68
11, 25439, Note_on_c, 5, 58, 0
11, 25439, Note_on_c, 5, 50, 0
11, 27600, Control_c, 5, 11, 127
11, 27720, Note_on_c, 5, 53, 44
11, 27720, Note_on_c, 5, 60, 44
11, 27773, Note_on_c, 5, 53, 0
11, 27773, Note_on_c, 5, 60, 0
11, 27780, Note_on_c, 5, 53, 44
11, 27780, Note_on_c, 5, 60, 44
11, 27833, Note_on_c, 5, 53, 0
11, 27833, Note_on_c, 5, 60, 0
11, 27840, Note_on_c, 5, 53, 44
11, 27840, Note_on_c, 5, 60, 44
11, 27893, Note_on_c, 5, 53, 0
11, 27893, Note_on_c, 5, 60, 0
11, 27900, Note_on_c, 5, 60, 44
11, 27900, Note_on_c, 5, 53, 44
11, 27953, Note_on_c, 5, 60, 0
11, 27953, Note_on_c, 5, 53, 0
11, 27960, Note_on_c, 5, 53, 44
11, 27960, Note_on_c, 5, 60, 44
11, 28013, Note_on_c, 5, 53, 0
11, 28013, Note_on_c, 5, 60, 0
11, 28020, Note_on_c, 5, 53, 44
11, 28020, Note_on_c, 5, 60, 44
11, 28073, Note_on_c, 5, 53, 0
11, 28073, Note_on_c, 5, 60, 0
11, 28080, Note_on_c, 5, 58, 44
11, 28080, Note_on_c, 5, 62, 44
11, 28319, Note_on_c, 5, 58, 0
11, 28319, Note_on_c, 5, 62, 0
11, 28800, Note_on_c, 5, 58, 52
11, 28800, Note_on_c, 5, 46, 52
11, 29389, Note_on_c, 5, 58, 0
11, 29389, Note_on_c, 5, 46, 0
11, 29400, Note_on_c, 5, 58, 52
11, 29400, Note_on_c, 5, 46, 52
11, 29749, Note_on_c, 5, 58, 0
11, 29749, Note_on_c, 5, 46, 0
11, 29760, Note_on_c, 5, 46, 52
11, 29760, Note_on_c, 5, 58, 52
11, 30109, Note_on_c, 5, 46, 0
11, 30109, Note_on_c, 5, 58, 0
11, 30120, Note_on_c, 5, 58, 52
11, 30120, Note_on_c, 5, 46, 52
11, 30229, Note_on_c, 5, 58, 0
11, 30229, Note_on_c, 5, 46, 0
11, 30240, Note_on_c, 5, 46, 52
11, 30240, Note_on_c, 5, 58, 52
11, 30829, Note_on_c, 5, 46, 0
11, 30829, Note_on_c, 5, 58, 0
11, 30840, Note_on_c, 5, 58, 52
11, 30840, Note_on_c, 5, 46, 52
11, 31189, Note_on_c, 5, 58, 0
11, 31189, Note_on_c, 5, 46, 0
11, 31200, Note_on_c, 5, 46, 52
11, 31200, Note_on_c, 5, 58, 52
11, 31549, Note_on_c, 5, 46, 0
11, 31549, Note_on_c, 5, 58, 0
11, 31560, Note_on_c, 5, 46, 52
11, 31560, Note_on_c, 5, 58, 52
11, 31679, Note_on_c, 5, 46, 0
11, 31679, Note_on_c, 5, 58, 0
11, 38760, Control_c, 5, 11, 97
11, 38880, Note_on_c, 5, 60, 68
11, 39589, Note_on_c, 5, 60, 0
11, 39600, Note_on_c, 5, 65, 68
11, 40309, Note_on_c, 5, 65, 0
11, 40320, Control_c, 5, 11, 97
11, 40320, Note_on_c, 5, 60, 68
11, 40380, Control_c, 5, 11, 99
11, 40440, Control_c, 5, 11, 102
11, 40500, Control_c, 5, 11, 105
11, 40560, Control_c, 5, 11, 107
11, 40620, Control_c, 5, 11, 110
11, 40680, Control_c, 5, 11, 113
11, 40740, Control_c, 5, 11, 115
11, 40800, Control_c, 5, 11, 118
11, 40860, Control_c, 5, 11, 119
11, 40920, Control_c, 5, 11, 123
11, 40980, Control_c, 5, 11, 125
11, 41029, Note_on_c, 5, 60, 0
11, 41040, Note_on_c, 5, 60, 68
11, 41040, Control_c, 5, 11, 127
11, 41100, Control_c, 5, 11, 125
11, 41160, Control_c, 5, 11, 123
11, 41220, Control_c, 5, 11, 119
11, 41280, Control_c, 5, 11, 118
11, 41340, Control_c, 5, 11, 115
11, 41400, Control_c, 5, 11, 113
11, 41460, Control_c, 5, 11, 110
11, 41520, Control_c, 5, 11, 107
11, 41580, Control_c, 5, 11, 105
11, 41640, Control_c, 5, 11, 102
11, 41700, Control_c, 5, 11, 99
11, 41749, Note_on_c, 5, 60, 0
11, 41760, Note_on_c, 5, 60, 68
11, 41760, Control_c, 5, 11, 97
11, 41760, Note_on_c, 5, 53, 68
11, 41999, Note_on_c, 5, 60, 0
11, 41999, Note_on_c, 5, 53, 0
11, 43860, Control_c, 5, 11, 127
11, 43920, Note_on_c, 5, 60, 68
11, 43980, Control_c, 5, 11, 125
11, 44040, Control_c, 5, 11, 123
11, 44100, Control_c, 5, 11, 119
11, 44160, Control_c, 5, 11, 118
11, 44220, Control_c, 5, 11, 115
11, 44280, Control_c, 5, 11, 113
11, 44340, Control_c, 5, 11, 110
11, 44400, Control_c, 5, 11, 107
11, 44460, Control_c, 5, 11, 105
11, 44520, Control_c, 5, 11, 102
11, 44580, Control_c, 5, 11, 99
11, 44629, Note_on_c, 5, 60, 0
11, 44640, Note_on_c, 5, 53, 68
11, 44640, Note_on_c, 5, 60, 68
11, 44640, Control_c, 5, 11, 97
11, 44879, Note_on_c, 5, 53, 0
11, 44879, Note_on_c, 5, 60, 0
11, 52560, Control_c, 5, 11, 127
11, 52920, Note_on_c, 5, 60, 76
11, 53149, Note_on_c, 5, 60, 0
11, 53160, Note_on_c, 5, 60, 76
11, 53269, Note_on_c, 5, 60, 0
11, 53280, Note_on_c, 5, 60, 76
11, 54709, Note_on_c, 5, 60, 0
11, 54720, Note_on_c, 5, 60, 76
11, 54959, Note_on_c, 5, 60, 0
11, 61560, Note_on_c, 5, 60, 76
11, 61789, Note_on_c, 5, 60, 0
11, 61800, Note_on_c, 5, 60, 76
11, 61909, Note_on_c, 5, 60, 0
11, 61920, Note_on_c, 5, 60, 76
11, 63349, Note_on_c, 5, 60, 0
11, 63360, Note_on_c, 5, 60, 84
11, 63420, Control_c, 5, 11, 112
11, 63443, Control_c, 5, 11, 109
11, 63467, Control_c, 5, 11, 107
11, 63469, Note_on_c, 5, 60, 0
11, 63480, Note_on_c, 5, 60, 84
11, 63490, Control_c, 5, 11, 104
11, 63513, Control_c, 5, 11, 101
11, 63537, Control_c, 5, 11, 99
11, 63560, Control_c, 5, 11, 96
11, 63583, Control_c, 5, 11, 93
11, 63589, Note_on_c, 5, 60, 0
11, 63600, Note_on_c, 5, 60, 84
11, 63607, Control_c, 5, 11, 91
11, 63630, Control_c, 5, 11, 88
11, 63653, Control_c, 5, 11, 85
11, 63677, Control_c, 5, 11, 83
11, 63700, Control_c, 5, 11, 80
11, 63709, Note_on_c, 5, 60, 0
11, 63720, Note_on_c, 5, 60, 84
11, 63723, Control_c, 5, 11, 77
11, 63747, Control_c, 5, 11, 75
11, 63770, Control_c, 5, 11, 72
11, 63793, Control_c, 5, 11, 69
11, 63817, Control_c, 5, 11, 64
11, 63839, Note_on_c, 5, 60, 0
11, 65880, Control_c, 5, 11, 127
11, 66000, Note_on_c, 5, 65, 52
11, 66000, Note_on_c, 5, 53, 52
11, 66109, Note_on_c, 5, 65, 0
11, 66109, Note_on_c, 5, 53, 0
11, 66120, Note_on_c, 5, 53, 52
11, 66120, Note_on_c, 5, 65, 52
11, 66229, Note_on_c, 5, 53, 0
11, 66229, Note_on_c, 5, 65, 0
11, 66240, Note_on_c, 5, 60, 52
11, 66479, Note_on_c, 5, 60, 0
11, 66960, Note_on_c, 5, 60, 52
11, 67199, Note_on_c, 5, 60, 0
11, 67680, Note_on_c, 5, 53, 52
11, 67680, Note_on_c, 5, 60, 52
11, 67919, Note_on_c, 5, 53, 0
11, 67919, Note_on_c, 5, 60, 0
11, 68280, Control_c, 5, 11, 97
11, 68400, Note_on_c, 5, 60, 68
11, 68520, Control_c, 5, 11, 99
11, 68640, Control_c, 5, 11, 102
11, 68760, Control_c, 5, 11, 105
11, 68880, Control_c, 5, 11, 107
11, 69000, Control_c, 5, 11, 110
11, 69109, Note_on_c, 5, 60, 0
11, 69120, Control_c, 5, 11, 113
11, 69120, Note_on_c, 5, 60, 68
11, 69240, Control_c, 5, 11, 115
11, 69360, Control_c, 5, 11, 118
11, 69480, Control_c, 5, 11, 119
11, 69600, Control_c, 5, 11, 123
11, 69709, Note_on_c, 5, 60, 0
11, 69720, Control_c, 5, 11, 125
11, 69720, Note_on_c, 5, 60, 68
11, 69839, Note_on_c, 5, 60, 0
11, 69840, Control_c, 5, 11, 127
11, 69840, Note_on_c, 5, 60, 76
11, 70069, Note_on_c, 5, 60, 0
11, 70080, Note_on_c, 5, 60, 68
11, 70189, Note_on_c, 5, 60, 0
11, 70200, Note_on_c, 5, 60, 68
11, 70200, Control_c, 5, 11, 127
11, 70230, Control_c, 5, 11, 125
11, 70260, Control_c, 5, 11, 123
11, 70290, Control_c, 5, 11, 119
11, 70309, Note_on_c, 5, 60, 0
11, 70320, Note_on_c, 5, 60, 68
11, 70320, Control_c, 5, 11, 118
11, 70350, Control_c, 5, 11, 115
11, 70380, Control_c, 5, 11, 113
11, 70410, Control_c, 5, 11, 110
11, 70429, Note_on_c, 5, 60, 0
11, 70440, Note_on_c, 5, 60, 68
11, 70440, Control_c, 5, 11, 107
11, 70470, Control_c, 5, 11, 105
11, 70500, Control_c, 5, 11, 102
11, 70530, Control_c, 5, 11, 97
11, 70549, Note_on_c, 5, 60, 0
11, 70560, Note_on_c, 5, 53, 68
11, 70560, Note_on_c, 5, 65, 68
11, 71149, Note_on_c, 5, 53, 0
11, 71149, Note_on_c, 5, 65, 0
11, 71160, Note_on_c, 5, 60, 68
11, 71509, Note_on_c, 5, 60, 0
11, 71520, Note_on_c, 5, 60, 68
11, 71640, Control_c, 5, 11, 97
11, 71670, Control_c, 5, 11, 95
11, 71700, Control_c, 5, 11, 94
11, 71730, Control_c, 5, 11, 93
11, 71760, Control_c, 5, 11, 91
11, 71790, Control_c, 5, 11, 90
11, 71820, Control_c, 5, 11, 89
11, 71850, Control_c, 5, 11, 87
11, 71869, Note_on_c, 5, 60, 0
11, 71880, Note_on_c, 5, 60, 68
11, 71880, Control_c, 5, 11, 86
11, 71910, Control_c, 5, 11, 85
11, 71940, Control_c, 5, 11, 83
11, 71970, Control_c, 5, 11, 82
11, 71989, Note_on_c, 5, 60, 0
11, 71998, Control_c, 5, 11, 97
11, 72000, Note_on_c, 5, 53, 68
11, 72000, Note_on_c, 5, 65, 68
11, 72589, Note_on_c, 5, 53, 0
11, 72589, Note_on_c, 5, 65, 0
11, 72600, Note_on_c, 5, 60, 68
11, 72949, Note_on_c, 5, 60, 0
11, 72960, Note_on_c, 5, 60, 68
11, 73080, Control_c, 5, 11, 97
11, 73110, Control_c, 5, 11, 95
11, 73140, Control_c, 5, 11, 94
11, 73170, Control_c, 5, 11, 93
11, 73200, Control_c, 5, 11, 91
11, 73230, Control_c, 5, 11, 90
11, 73260, Control_c, 5, 11, 89
11, 73290, Control_c, 5, 11, 87
11, 73309, Note_on_c, 5, 60, 0
11, 73320, Note_on_c, 5, 60, 68
11, 73320, Control_c, 5, 11, 86
11, 73350, Control_c, 5, 11, 85
11, 73380, Control_c, 5, 11, 83
11, 73410, Control_c, 5, 11, 82
11, 73429, Note_on_c, 5, 60, 0
11, 73438, Control_c, 5, 11, 97
11, 73440, Note_on_c, 5, 60, 68
11, 73440, Note_on_c, 5, 53, 68
11, 73620, Control_c, 5, 11, 95
11, 73800, Control_c, 5, 11, 95
11, 73980, Control_c, 5, 11, 94
11, 74149, Note_on_c, 5, 60, 0
11, 74149, Note_on_c, 5, 53, 0
11, 74160, Note_on_c, 5, 53, 68
11, 74160, Control_c, 5, 11, 93
11, 74340, Control_c, 5, 11, 91
11, 74520, Control_c, 5, 11, 91
11, 74700, Control_c, 5, 11, 90
11, 74869, Note_on_c, 5, 53, 0
11, 74880, Note_on_c, 5, 53, 68
11, 74880, Control_c, 5, 11, 89
11, 74880, Note_on_c, 5, 41, 68
11, 75060, Control_c, 5, 11, 87
11, 75240, Control_c, 5, 11, 87
11, 75420, Control_c, 5, 11, 86
11, 75600, Control_c, 5, 11, 85
11, 75780, Control_c, 5, 11, 83
11, 75960, Control_c, 5, 11, 83
11, 76140, Control_c, 5, 11, 82
11, 76309, Note_on_c, 5, 53, 0
11, 76309, Note_on_c, 5, 41, 0
11, 76320, Control_c, 5, 11, 81
11, 76320, Note_on_c, 5, 53, 68
11, 76320, Note_on_c, 5, 41, 68
11, 76559, Note_on_c, 5, 53, 0
11, 76559, Note_on_c, 5, 41, 0
11, 81600, Control_c, 5, 11, 111
11, 81720, Note_on_c, 5, 50, 68
11, 81720, Note_on_c, 5, 62, 68
11, 81720, Control_c, 5, 11, 115
11, 81840, Control_c, 5, 11, 119
11, 81960, Control_c, 5, 11, 123
11, 82080, Control_c, 5, 11, 97
11, 82669, Note_on_c, 5, 50, 0
11, 82669, Note_on_c, 5, 62, 0
11, 82680, Note_on_c, 5, 62, 68
11, 82680, Note_on_c, 5, 50, 68
11, 83029, Note_on_c, 5, 62, 0
11, 83029, Note_on_c, 5, 50, 0
11, 83040, Note_on_c, 5, 50, 68
11, 83040, Note_on_c, 5, 62, 68
11, 83389, Note_on_c, 5, 50, 0
11, 83389, Note_on_c, 5, 62, 0
11, 83400, Note_on_c, 5, 62, 68
11, 83400, Note_on_c, 5, 50, 68
11, 83509, Note_on_c, 5, 62, 0
11, 83509, Note_on_c, 5, 50, 0
11, 83520, Note_on_c, 5, 62, 68
11, 83520, Note_on_c, 5, 50, 68
11, 84109, Note_on_c, 5, 62, 0
11, 84109, Note_on_c, 5, 50, 0
11, 84120, Note_on_c, 5, 62, 68
11, 84120, Note_on_c, 5, 50, 68
11, 84469, Note_on_c, 5, 62, 0
11, 84469, Note_on_c, 5, 50, 0
11, 84480, Note_on_c, 5, 50, 68
11, 84480, Note_on_c, 5, 62, 68
11, 84829, Note_on_c, 5, 50, 0
11, 84829, Note_on_c, 5, 62, 0
11, 84840, Note_on_c, 5, 62, 68
11, 84840, Note_on_c, 5, 50, 68
11, 84949, Note_on_c, 5, 62, 0
11, 84949, Note_on_c, 5, 50, 0
11, 84960, Note_on_c, 5, 50, 68
11, 84960, Note_on_c, 5, 62, 68
11, 85549, Note_on_c, 5, 50, 0
11, 85549, Note_on_c, 5, 62, 0
11, 85560, Note_on_c, 5, 50, 68
11, 85560, Note_on_c, 5, 62, 68
11, 85909, Note_on_c, 5, 50, 0
11, 85909, Note_on_c, 5, 62, 0
11, 85920, Note_on_c, 5, 50, 68
11, 85920, Note_on_c, 5, 62, 68
11, 86269, Note_on_c, 5, 50, 0
11, 86269, Note_on_c, 5, 62, 0
11, 86280, Note_on_c, 5, 50, 68
11, 86280, Note_on_c, 5, 62, 68
11, 86389, Note_on_c, 5, 50, 0
11, 86389, Note_on_c, 5, 62, 0
11, 86400, Note_on_c, 5, 62, 68
11, 86400, Note_on_c, 5, 50, 68
11, 86989, Note_on_c, 5, 62, 0
11, 86989, Note_on_c, 5, 50, 0
11, 87000, Note_on_c, 5, 50, 68
11, 87000, Note_on_c, 5, 62, 68
11, 87349, Note_on_c, 5, 50, 0
11, 87349, Note_on_c, 5, 62, 0
11, 87360, Note_on_c, 5, 50, 68
11, 87360, Note_on_c, 5, 62, 68
11, 87709, Note_on_c, 5, 50, 0
11, 87709, Note_on_c, 5, 62, 0
11, 87720, Note_on_c, 5, 62, 68
11, 87720, Note_on_c, 5, 50, 68
11, 87839, Note_on_c, 5, 62, 0
11, 87839, Note_on_c, 5, 50, 0
11, 91320, Control_c, 5, 11, 110
11, 91440, Control_c, 5, 11, 113
11, 91440, Note_on_c, 5, 62, 68
11, 91440, Note_on_c, 5, 50, 68
11, 91560, Control_c, 5, 11, 115
11, 91680, Control_c, 5, 11, 118
11, 91800, Control_c, 5, 11, 119
11, 91920, Control_c, 5, 11, 123
11, 92040, Control_c, 5, 11, 125
11, 92149, Note_on_c, 5, 62, 0
11, 92149, Note_on_c, 5, 50, 0
11, 92158, Control_c, 5, 11, 97
11, 92160, Note_on_c, 5, 60, 68
11, 92399, Note_on_c, 5, 60, 0
11, 95580, Control_c, 5, 11, 107
11, 95760, Note_on_c, 5, 50, 76
11, 95760, Note_on_c, 5, 62, 76
11, 95760, Control_c, 5, 11, 111
11, 95940, Control_c, 5, 11, 115
11, 96120, Control_c, 5, 11, 119
11, 96300, Control_c, 5, 11, 123
11, 96469, Note_on_c, 5, 50, 0
11, 96469, Note_on_c, 5, 62, 0
11, 96480, Note_on_c, 5, 46, 76
11, 96480, Control_c, 5, 11, 127
11, 96480, Note_on_c, 5, 58, 76
11, 97189, Note_on_c, 5, 46, 0
11, 97189, Note_on_c, 5, 58, 0
11, 97200, Control_c, 5, 11, 127
11, 97200, Note_on_c, 5, 46, 76
11, 97200, Note_on_c, 5, 58, 76
11, 97260, Control_c, 5, 11, 123
11, 97320, Control_c, 5, 11, 119
11, 97380, Control_c, 5, 11, 115
11, 97440, Control_c, 5, 11, 111
11, 97500, Control_c, 5, 11, 107
11, 97560, Control_c, 5, 11, 105
11, 97620, Control_c, 5, 11, 101
11, 97680, Control_c, 5, 11, 97
11, 97740, Control_c, 5, 11, 93
11, 97800, Control_c, 5, 11, 89
11, 97860, Control_c, 5, 11, 85
11, 97909, Note_on_c, 5, 46, 0
11, 97909, Note_on_c, 5, 58, 0
11, 97920, Control_c, 5, 11, 81
11, 97920, Note_on_c, 5, 63, 76
11, 98509, Note_on_c, 5, 63, 0
11, 98518, Control_c, 5, 11, 97
11, 98520, Note_on_c, 5, 63, 68
11, 98869, Note_on_c, 5, 63, 0
11, 98880, Note_on_c, 5, 63, 68
11, 99229, Note_on_c, 5, 63, 0
11, 99240, Note_on_c, 5, 63, 68
11, 99349, Note_on_c, 5, 63, 0
11, 99360, Note_on_c, 5, 63, 68
11, 99949, Note_on_c, 5, 63, 0
11, 99960, Note_on_c, 5, 63, 68
11, 100309, Note_on_c, 5, 63, 0
11, 100320, Note_on_c, 5, 63, 68
11, 100669, Note_on_c, 5, 63, 0
11, 100680, Note_on_c, 5, 63, 68
11, 100789, Note_on_c, 5, 63, 0
11, 100800, Note_on_c, 5, 58, 68
11, 100800, Note_on_c, 5, 65, 68
11, 101389, Note_on_c, 5, 58, 0
11, 101389, Note_on_c, 5, 65, 0
11, 101400, Note_on_c, 5, 65, 68
11, 101400, Note_on_c, 5, 58, 68
11, 101749, Note_on_c, 5, 65, 0
11, 101749, Note_on_c, 5, 58, 0
11, 101760, Note_on_c, 5, 58, 68
11, 101760, Note_on_c, 5, 65, 68
11, 102109, Note_on_c, 5, 58, 0
11, 102109, Note_on_c, 5, 65, 0
11, 102120, Note_on_c, 5, 58, 68
11, 102120, Note_on_c, 5, 65, 68
11, 102229, Note_on_c, 5, 58, 0
11, 102229, Note_on_c, 5, 65, 0
11, 102240, Note_on_c, 5, 65, 68
11, 102240, Note_on_c, 5, 58, 68
11, 102829, Note_on_c, 5, 65, 0
11, 102829, Note_on_c, 5, 58, 0
11, 102840, Note_on_c, 5, 65, 68
11, 102840, Note_on_c, 5, 58, 68
11, 103189, Note_on_c, 5, 65, 0
11, 103189, Note_on_c, 5, 58, 0
11, 103200, Note_on_c, 5, 65, 68
11, 103200, Note_on_c, 5, 58, 68
11, 103549, Note_on_c, 5, 65, 0
11, 103549, Note_on_c, 5, 58, 0
11, 103560, Note_on_c, 5, 58, 68
11, 103669, Note_on_c, 5, 58, 0
11, 103678, Control_c, 5, 11, 97
11, 103680, Note_on_c, 5, 63, 68
11, 105119, Note_on_c, 5, 63, 0
11, 105120, Note_on_c, 5, 63, 68
11, 106549, Note_on_c, 5, 63, 0
11, 106560, Control_c, 5, 11, 97
11, 106560, Note_on_c, 5, 63, 68
11, 106680, Control_c, 5, 11, 99
11, 106800, Control_c, 5, 11, 102
11, 106920, Control_c, 5, 11, 105
11, 107040, Control_c, 5, 11, 107
11, 107160, Control_c, 5, 11, 110
11, 107269, Note_on_c, 5, 63, 0
11, 107280, Note_on_c, 5, 46, 68
11, 107280, Control_c, 5, 11, 113
11, 107280, Note_on_c, 5, 58, 68
11, 107400, Control_c, 5, 11, 115
11, 107520, Control_c, 5, 11, 118
11, 107640, Control_c, 5, 11, 119
11, 107760, Control_c, 5, 11, 123
11, 107880, Control_c, 5, 11, 125
11, 107989, Note_on_c, 5, 46, 0
11, 107989, Note_on_c, 5, 58, 0
11, 108000, Control_c, 5, 11, 127
11, 108000, Note_on_c, 5, 60, 68
11, 108239, Note_on_c, 5, 60, 0
11, 109440, Control_c, 5, 11, 81
11, 110160, Note_on_c, 5, 58, 76
11, 110160, Note_on_c, 5, 46, 76
11, 110280, Control_c, 5, 11, 85
11, 110400, Control_c, 5, 11, 89
11, 110520, Control_c, 5, 11, 93
11, 110640, Control_c, 5, 11, 97
11, 110760, Control_c, 5, 11, 101
11, 110880, Control_c, 5, 11, 105
11, 111000, Control_c, 5, 11, 107
11, 111120, Control_c, 5, 11, 111
11, 111240, Control_c, 5, 11, 115
11, 111360, Control_c, 5, 11, 119
11, 111480, Control_c, 5, 11, 123
11, 111599, Note_on_c, 5, 58, 0
11, 111599, Note_on_c, 5, 46, 0
11, 111600, Control_c, 5, 11, 127
11, 120120, Control_c, 5, 11, 105
11, 120240, Note_on_c, 5, 60, 76
11, 120360, Control_c, 5, 11, 107
11, 120480, Control_c, 5, 11, 111
11, 120600, Control_c, 5, 11, 115
11, 120600, Note_on_c, 5, 63, 76
11, 120720, Control_c, 5, 11, 119
11, 120840, Control_c, 5, 11, 123
11, 120949, Note_on_c, 5, 60, 0
11, 120949, Note_on_c, 5, 63, 0
11, 120958, Control_c, 5, 11, 127
11, 120960, Note_on_c, 5, 63, 76
11, 120960, Note_on_c, 5, 60, 76
11, 121309, Note_on_c, 5, 63, 0
11, 121309, Note_on_c, 5, 60, 0
11, 121320, Note_on_c, 5, 60, 76
11, 121320, Note_on_c, 5, 53, 76
11, 121669, Note_on_c, 5, 60, 0
11, 121669, Note_on_c, 5, 53, 0
11, 121680, Note_on_c, 5, 62, 76
11, 121680, Note_on_c, 5, 58, 76
11, 122029, Note_on_c, 5, 62, 0
11, 122029, Note_on_c, 5, 58, 0
11, 122040, Note_on_c, 5, 60, 76
11, 122389, Note_on_c, 5, 60, 0
11, 122400, Control_c, 5, 11, 127
11, 122400, Note_on_c, 5, 60, 76
11, 122400, Note_on_c, 5, 53, 76
11, 122640, Control_c, 5, 11, 123
11, 122880, Control_c, 5, 11, 119
11, 123109, Note_on_c, 5, 60, 0
11, 123109, Note_on_c, 5, 53, 0
11, 123120, Control_c, 5, 11, 115
11, 123120, Note_on_c, 5, 53, 76
11, 123120, Note_on_c, 5, 41, 76
11, 123360, Control_c, 5, 11, 111
11, 123600, Control_c, 5, 11, 107
11, 123829, Note_on_c, 5, 53, 0
11, 123829, Note_on_c, 5, 41, 0
11, 123840, Note_on_c, 5, 41, 76
11, 123840, Control_c, 5, 11, 105
11, 123840, Note_on_c, 5, 53, 76
11, 124080, Control_c, 5, 11, 101
11, 124320, Control_c, 5, 11, 97
11, 124549, Note_on_c, 5, 41, 0
11, 124549, Note_on_c, 5, 53, 0
11, 124560, Control_c, 5, 11, 93
11, 124560, Note_on_c, 5, 41, 76
11, 124560, Note_on_c, 5, 53, 76
11, 124800, Control_c, 5, 11, 89
11, 125040, Control_c, 5, 11, 85
11, 125269, Note_on_c, 5, 41, 0
11, 125269, Note_on_c, 5, 53, 0
11, 125278, Control_c, 5, 11, 81
11, 125280, Note_on_c, 5, 41, 76
11, 125280, Note_on_c, 5, 53, 76
11, 126719, Note_on_c, 5, 41, 0
11, 126719, Note_on_c, 5, 53, 0
11, 126720, Note_on_c, 5, 53, 76
11, 126720, Note_on_c, 5, 41, 76
11, 127309, Note_on_c, 5, 53, 0
11, 127309, Note_on_c, 5, 41, 0
11, 127320, Note_on_c, 5, 53, 76
11, 127320, Note_on_c, 5, 41, 76
11, 128029, Note_on_c, 5, 53, 0
11, 128029, Note_on_c, 5, 41, 0
11, 128040, Note_on_c, 5, 41, 76
11, 128040, Note_on_c, 5, 53, 76
11, 128389, Note_on_c, 5, 41, 0
11, 128389, Note_on_c, 5, 53, 0
11, 128400, Note_on_c, 5, 53, 76
11, 128400, Note_on_c, 5, 41, 76
11, 128749, Note_on_c, 5, 53, 0
11, 128749, Note_on_c, 5, 41, 0
11, 128760, Note_on_c, 5, 41, 76
11, 128760, Note_on_c, 5, 53, 76
11, 128880, Control_c, 5, 11, 81
11, 128940, Control_c, 5, 11, 83
11, 129000, Control_c, 5, 11, 86
11, 129060, Control_c, 5, 11, 89
11, 129109, Note_on_c, 5, 41, 0
11, 129109, Note_on_c, 5, 53, 0
11, 129120, Control_c, 5, 11, 91
11, 129120, Note_on_c, 5, 41, 76
11, 129120, Note_on_c, 5, 53, 76
11, 129180, Control_c, 5, 11, 94
11, 129240, Control_c, 5, 11, 97
11, 129300, Control_c, 5, 11, 99
11, 129360, Control_c, 5, 11, 102
11, 129420, Control_c, 5, 11, 105
11, 129469, Note_on_c, 5, 41, 0
11, 129469, Note_on_c, 5, 53, 0
11, 129480, Note_on_c, 5, 53, 76
11, 129480, Control_c, 5, 11, 107
11, 129480, Note_on_c, 5, 41, 76
11, 129540, Control_c, 5, 11, 110
11, 129589, Note_on_c, 5, 53, 0
11, 129589, Note_on_c, 5, 41, 0
11, 129598, Control_c, 5, 11, 81
11, 129600, Note_on_c, 5, 58, 76
11, 129600, Note_on_c, 5, 46, 76
11, 129949, Note_on_c, 5, 58, 0
11, 129949, Note_on_c, 5, 46, 0
11, 129960, Note_on_c, 5, 50, 76
11, 129960, Note_on_c, 5, 62, 76
11, 130309, Note_on_c, 5, 50, 0
11, 130309, Note_on_c, 5, 62, 0
11, 130320, Note_on_c, 5, 46, 76
11, 130320, Note_on_c, 5, 58, 76
11, 130669, Note_on_c, 5, 46, 0
11, 130669, Note_on_c, 5, 58, 0
11, 130680, Note_on_c, 5, 53, 76
11, 130680, Note_on_c, 5, 41, 76
11, 131039, Note_on_c, 5, 53, 0
11, 131039, Note_on_c, 5, 41, 0
11, 131400, Note_on_c, 5, 62, 76
11, 131400, Note_on_c, 5, 50, 76
11, 131749, Note_on_c, 5, 62, 0
11, 131749, Note_on_c, 5, 50, 0
11, 131760, Note_on_c, 5, 58, 76
11, 131760, Note_on_c, 5, 46, 76
11, 132109, Note_on_c, 5, 58, 0
11, 132109, Note_on_c, 5, 46, 0
11, 132120, Note_on_c, 5, 41, 76
11, 132120, Note_on_c, 5, 53, 76
11, 132479, Note_on_c, 5, 41, 0
11, 132479, Note_on_c, 5, 53, 0
11, 132840, Note_on_c, 5, 63, 76
11, 133189, Note_on_c, 5, 63, 0
11, 133200, Note_on_c, 5, 60, 76
11, 133549, Note_on_c, 5, 60, 0
11, 133560, Note_on_c, 5, 53, 76
11, 133919, Note_on_c, 5, 53, 0
11, 134280, Note_on_c, 5, 63, 76
11, 134629, Note_on_c, 5, 63, 0
11, 134640, Note_on_c, 5, 60, 76
11, 134989, Note_on_c, 5, 60, 0
11, 135000, Note_on_c, 5, 53, 76
11, 135349, Note_on_c, 5, 53, 0
11, 135360, Note_on_c, 5, 58, 76
11, 135360, Control_c, 5, 11, 81
11, 135360, Note_on_c, 5, 46, 76
11, 135469, Note_on_c, 5, 58, 0
11, 135469, Note_on_c, 5, 46, 0
11, 135480, Note_on_c, 5, 46, 76
11, 135480, Control_c, 5, 11, 85
11, 135480, Note_on_c, 5, 58, 76
11, 135589, Note_on_c, 5, 46, 0
11, 135589, Note_on_c, 5, 58, 0
11, 135600, Note_on_c, 5, 58, 76
11, 135600, Control_c, 5, 11, 89
11, 135600, Note_on_c, 5, 46, 76
11, 135709, Note_on_c, 5, 58, 0
11, 135709, Note_on_c, 5, 46, 0
11, 135720, Note_on_c, 5, 46, 76
11, 135720, Note_on_c, 5, 58, 76
11, 135720, Control_c, 5, 11, 93
11, 135829, Note_on_c, 5, 46, 0
11, 135829, Note_on_c, 5, 58, 0
11, 135840, Note_on_c, 5, 46, 76
11, 135840, Note_on_c, 5, 58, 76
11, 135840, Control_c, 5, 11, 97
11, 135949, Note_on_c, 5, 46, 0
11, 135949, Note_on_c, 5, 58, 0
11, 135960, Note_on_c, 5, 46, 76
11, 135960, Control_c, 5, 11, 101
11, 135960, Note_on_c, 5, 58, 76
11, 136069, Note_on_c, 5, 46, 0
11, 136069, Note_on_c, 5, 58, 0
11, 136080, Control_c, 5, 11, 105
11, 136080, Note_on_c, 5, 58, 76
11, 136080, Note_on_c, 5, 46, 76
11, 136189, Note_on_c, 5, 58, 0
11, 136189, Note_on_c, 5, 46, 0
11, 136200, Note_on_c, 5, 58, 76
11, 136200, Note_on_c, 5, 46, 76
11, 136200, Control_c, 5, 11, 107
11, 136309, Note_on_c, 5, 58, 0
11, 136309, Note_on_c, 5, 46, 0
11, 136320, Control_c, 5, 11, 111
11, 136320, Note_on_c, 5, 46, 76
11, 136320, Note_on_c, 5, 58, 76
11, 136429, Note_on_c, 5, 46, 0
11, 136429, Note_on_c, 5, 58, 0
11, 136440, Control_c, 5, 11, 115
11, 136440, Note_on_c, 5, 46, 76
11, 136440, Note_on_c, 5, 58, 76
11, 136549, Note_on_c, 5, 46, 0
11, 136549, Note_on_c, 5, 58, 0
11, 136560, Note_on_c, 5, 46, 76
11, 136560, Note_on_c, 5, 58, 76
11, 136560, Control_c, 5, 11, 119
11, 136669, Note_on_c, 5, 46, 0
11, 136669, Note_on_c, 5, 58, 0
11, 136680, Note_on_c, 5, 46, 76
11, 136680, Note_on_c, 5, 58, 76
11, 136680, Control_c, 5, 11, 123
11, 136789, Note_on_c, 5, 46, 0
11, 136789, Note_on_c, 5, 58, 0
11, 136798, Control_c, 5, 11, 127
11, 136800, Note_on_c, 5, 53, 76
11, 136800, Note_on_c, 5, 41, 76
11, 136860, Control_c, 5, 11, 81
11, 136909, Note_on_c, 5, 53, 0
11, 136909, Note_on_c, 5, 41, 0
11, 136920, Note_on_c, 5, 50, 76
11, 136920, Note_on_c, 5, 58, 76
11, 137029, Note_on_c, 5, 50, 0
11, 137029, Note_on_c, 5, 58, 0
11, 137040, Note_on_c, 5, 58, 76
11, 137040, Note_on_c, 5, 50, 76
11, 137149, Note_on_c, 5, 58, 0
11, 137149, Note_on_c, 5, 50, 0
11, 137160, Note_on_c, 5, 50, 76
11, 137160, Note_on_c, 5, 58, 76
11, 137269, Note_on_c, 5, 50, 0
11, 137269, Note_on_c, 5, 58, 0
11, 137280, Note_on_c, 5, 50, 76
11, 137280, Note_on_c, 5, 58, 76
11, 137389, Note_on_c, 5, 50, 0
11, 137389, Note_on_c, 5, 58, 0
11, 137400, Note_on_c, 5, 58, 76
11, 137400, Note_on_c, 5, 50, 76
11, 137509, Note_on_c, 5, 58, 0
11, 137509, Note_on_c, 5, 50, 0
11, 137520, Note_on_c, 5, 58, 76
11, 137520, Note_on_c, 5, 50, 76
11, 137520, Control_c, 5, 11, 81
11, 137550, Control_c, 5, 11, 83
11, 137580, Control_c, 5, 11, 86
11, 137610, Control_c, 5, 11, 89
11, 137629, Note_on_c, 5, 58, 0
11, 137629, Note_on_c, 5, 50, 0
11, 137640, Note_on_c, 5, 50, 76
11, 137640, Note_on_c, 5, 58, 76
11, 137640, Control_c, 5, 11, 91
11, 137670, Control_c, 5, 11, 94
11, 137700, Control_c, 5, 11, 97
11, 137730, Control_c, 5, 11, 99
11, 137749, Note_on_c, 5, 50, 0
11, 137749, Note_on_c, 5, 58, 0
11, 137760, Note_on_c, 5, 50, 76
11, 137760, Note_on_c, 5, 58, 76
11, 137760, Control_c, 5, 11, 102
11, 137790, Control_c, 5, 11, 105
11, 137820, Control_c, 5, 11, 107
11, 137850, Control_c, 5, 11, 110
11, 137869, Note_on_c, 5, 50, 0
11, 137869, Note_on_c, 5, 58, 0
11, 137880, Control_c, 5, 11, 113
11, 137880, Note_on_c, 5, 60, 76
11, 137880, Note_on_c, 5, 53, 76
11, 137910, Control_c, 5, 11, 110
11, 137940, Control_c, 5, 11, 107
11, 137970, Control_c, 5, 11, 105
11, 137989, Note_on_c, 5, 60, 0
11, 137989, Note_on_c, 5, 53, 0
11, 138000, Control_c, 5, 11, 102
11, 138000, Note_on_c, 5, 53, 76
11, 138000, Note_on_c, 5, 60, 76
11, 138030, Control_c, 5, 11, 99
11, 138060, Control_c, 5, 11, 97
11, 138090, Control_c, 5, 11, 94
11, 138109, Note_on_c, 5, 53, 0
11, 138109, Note_on_c, 5, 60, 0
11, 138120, Control_c, 5, 11, 91
11, 138120, Note_on_c, 5, 53, 76
11, 138120, Note_on_c, 5, 60, 76
11, 138150, Control_c, 5, 11, 89
11, 138180, Control_c, 5, 11, 86
11, 138210, Control_c, 5, 11, 83
11, 138229, Note_on_c, 5, 53, 0
11, 138229, Note_on_c, 5, 60, 0
11, 138240, Note_on_c, 5, 58, 76
11, 138240, Note_on_c, 5, 50, 76
11, 138240, Control_c, 5, 11, 81
11, 138479, Note_on_c, 5, 58, 0
11, 138479, Note_on_c, 5, 50, 0
11, 139320, Control_c, 5, 11, 127
11, 139680, Note_on_c, 5, 60, 76
11, 140760, Control_c, 5, 11, 127
11, 140790, Control_c, 5, 11, 123
11, 140820, Control_c, 5, 11, 119
11, 140850, Control_c, 5, 11, 115
11, 140880, Control_c, 5, 11, 111
11, 140910, Control_c, 5, 11, 107
11, 140940, Control_c, 5, 11, 105
11, 140970, Control_c, 5, 11, 101
11, 141000, Control_c, 5, 11, 97
11, 141030, Control_c, 5, 11, 93
11, 141060, Control_c, 5, 11, 89
11, 141090, Control_c, 5, 11, 85
11, 141109, Note_on_c, 5, 60, 0
11, 141118, Control_c, 5, 11, 81
11, 141120, Note_on_c, 5, 53, 76
11, 141120, Note_on_c, 5, 60, 76
11, 141359, Note_on_c, 5, 53, 0
11, 141359, Note_on_c, 5, 60, 0
11, 141600, Note_on_c, 5, 53, 76
11, 141600, Note_on_c, 5, 41, 76
11, 141709, Note_on_c, 5, 53, 0
11, 141709, Note_on_c, 5, 41, 0
11, 141720, Note_on_c, 5, 53, 76
11, 141720, Note_on_c, 5, 41, 76
11, 141829, Note_on_c, 5, 53, 0
11, 141829, Note_on_c, 5, 41, 0
11, 141840, Note_on_c, 5, 41, 76
11, 141840, Note_on_c, 5, 53, 76
11, 142079, Note_on_c, 5, 41, 0
11, 142079, Note_on_c, 5, 53, 0
11, 142200, Control_c, 5, 11, 96
11, 142320, Note_on_c, 5, 41, 68
11, 142320, Note_on_c, 5, 53, 68
11, 142429, Note_on_c, 5, 41, 0
11, 142429, Note_on_c, 5, 53, 0
11, 142440, Note_on_c, 5, 41, 68
11, 142440, Note_on_c, 5, 53, 68
11, 142549, Note_on_c, 5, 41, 0
11, 142549, Note_on_c, 5, 53, 0
11, 142560, Note_on_c, 5, 53, 68
11, 142560, Note_on_c, 5, 41, 68
11, 143269, Note_on_c, 5, 53, 0
11, 143269, Note_on_c, 5, 41, 0
11, 143280, Note_on_c, 5, 46, 68
11, 143280, Note_on_c, 5, 58, 68
11, 143989, Note_on_c, 5, 46, 0
11, 143989, Note_on_c, 5, 58, 0
11, 144000, Control_c, 5, 11, 96
11, 144000, Note_on_c, 5, 41, 68
11, 144000, Note_on_c, 5, 53, 68
11, 144040, Control_c, 5, 11, 98
11, 144080, Control_c, 5, 11, 99
11, 144120, Control_c, 5, 11, 101
11, 144160, Control_c, 5, 11, 103
11, 144200, Control_c, 5, 11, 105
11, 144240, Control_c, 5, 11, 106
11, 144280, Control_c, 5, 11, 108
11, 144320, Control_c, 5, 11, 110
11, 144360, Control_c, 5, 11, 112
11, 144400, Control_c, 5, 11, 113
11, 144440, Control_c, 5, 11, 115
11, 144480, Control_c, 5, 11, 117
11, 144520, Control_c, 5, 11, 118
11, 144560, Control_c, 5, 11, 120
11, 144600, Control_c, 5, 11, 122
11, 144640, Control_c, 5, 11, 124
11, 144680, Control_c, 5, 11, 127
11, 144709, Note_on_c, 5, 41, 0
11, 144709, Note_on_c, 5, 53, 0
11, 144720, Note_on_c, 5, 60, 68
11, 144720, Note_on_c, 5, 53, 68
11, 144780, Control_c, 5, 11, 125
11, 144840, Control_c, 5, 11, 123
11, 144900, Control_c, 5, 11, 119
11, 144960, Control_c, 5, 11, 118
11, 145020, Control_c, 5, 11, 115
11, 145080, Control_c, 5, 11, 113
11, 145140, Control_c, 5, 11, 110
11, 145200, Control_c, 5, 11, 107
11, 145260, Control_c, 5, 11, 105
11, 145320, Control_c, 5, 11, 102
11, 145380, Control_c, 5, 11, 99
11, 145429, Note_on_c, 5, 60, 0
11, 145429, Note_on_c, 5, 53, 0
11, 145438, Control_c, 5, 11, 97
11, 145440, Note_on_c, 5, 62, 68
11, 145440, Note_on_c, 5, 58, 68
11, 145679, Note_on_c, 5, 62, 0
11, 145679, Note_on_c, 5, 58, 0
11, 145800, Note_on_c, 5, 60, 68
11, 145800, Note_on_c, 5, 58, 68
11, 146039, Note_on_c, 5, 60, 0
11, 146039, Note_on_c, 5, 58, 0
11, 146160, Note_on_c, 5, 62, 68
11, 146160, Note_on_c, 5, 58, 68
11, 146399, Note_on_c, 5, 62, 0
11, 146399, Note_on_c, 5, 58, 0
11, 146520, Note_on_c, 5, 60, 68
11, 146520, Note_on_c, 5, 53, 68
11, 146759, Note_on_c, 5, 60, 0
11, 146759, Note_on_c, 5, 53, 0
11, 146880, Note_on_c, 5, 53, 68
11, 146880, Note_on_c, 5, 41, 68
11, 146880, Control_c, 5, 11, 97
11, 146940, Control_c, 5, 11, 99
11, 147000, Control_c, 5, 11, 102
11, 147060, Control_c, 5, 11, 105
11, 147120, Control_c, 5, 11, 107
11, 147180, Control_c, 5, 11, 110
11, 147240, Control_c, 5, 11, 113
11, 147300, Control_c, 5, 11, 115
11, 147360, Control_c, 5, 11, 118
11, 147420, Control_c, 5, 11, 119
11, 147480, Control_c, 5, 11, 123
11, 147540, Control_c, 5, 11, 125
11, 147589, Note_on_c, 5, 53, 0
11, 147589, Note_on_c, 5, 41, 0
11, 147600, Note_on_c, 5, 60, 68
11, 147600, Control_c, 5, 11, 127
11, 147600, Note_on_c, 5, 53, 68
11, 147660, Control_c, 5, 11, 125
11, 147720, Control_c, 5, 11, 123
11, 147780, Control_c, 5, 11, 119
11, 147840, Control_c, 5, 11, 118
11, 147900, Control_c, 5, 11, 115
11, 147960, Control_c, 5, 11, 113
11, 148020, Control_c, 5, 11, 110
11, 148080, Control_c, 5, 11, 107
11, 148140, Control_c, 5, 11, 105
11, 148200, Control_c, 5, 11, 102
11, 148260, Control_c, 5, 11, 99
11, 148309, Note_on_c, 5, 60, 0
11, 148309, Note_on_c, 5, 53, 0
11, 148320, Control_c, 5, 11, 97
11, 148320, Note_on_c, 5, 62, 68
11, 148320, Note_on_c, 5, 58, 68
11, 148559, Note_on_c, 5, 62, 0
11, 148559, Note_on_c, 5, 58, 0
11, 148678, Control_c, 5, 11, 127
11, 148680, Note_on_c, 5, 58, 52
11, 148680, Note_on_c, 5, 60, 52
11, 148919, Note_on_c, 5, 58, 0
11, 148919, Note_on_c, 5, 60, 0
11, 149040, Note_on_c, 5, 58, 52
11, 149040, Note_on_c, 5, 62, 52
11, 149279, Note_on_c, 5, 58, 0
11, 149279, Note_on_c, 5, 62, 0
11, 149400, Note_on_c, 5, 53, 52
11, 149400, Note_on_c, 5, 60, 52
11, 149639, Note_on_c, 5, 53, 0
11, 149639, Note_on_c, 5, 60, 0
11, 149760, Note_on_c, 5, 62, 52
11, 149760, Note_on_c, 5, 50, 52
11, 149999, Note_on_c, 5, 62, 0
11, 149999, Note_on_c, 5, 50, 0
11, 156120, Control_c, 5, 11, 119
11, 156240, Note_on_c, 5, 65, 76
11, 156240, Note_on_c, 5, 62, 76
11, 156330, Control_c, 5, 11, 122
11, 156420, Control_c, 5, 11, 123
11, 156479, Note_on_c, 5, 65, 0
11, 156479, Note_on_c, 5, 62, 0
11, 156480, Note_on_c, 5, 62, 76
11, 156480, Note_on_c, 5, 58, 76
11, 156510, Control_c, 5, 11, 126
11, 156589, Note_on_c, 5, 62, 0
11, 156589, Note_on_c, 5, 58, 0
11, 156600, Note_on_c, 5, 60, 76
11, 156600, Control_c, 5, 11, 127
11, 156600, Note_on_c, 5, 53, 76
11, 156829, Note_on_c, 5, 60, 0
11, 156829, Note_on_c, 5, 53, 0
11, 156840, Note_on_c, 5, 60, 76
11, 156840, Note_on_c, 5, 53, 76
11, 156949, Note_on_c, 5, 60, 0
11, 156949, Note_on_c, 5, 53, 0
11, 156960, Note_on_c, 5, 62, 76
11, 156960, Note_on_c, 5, 58, 76
11, 157669, Note_on_c, 5, 62, 0
11, 157669, Note_on_c, 5, 58, 0
11, 157680, Note_on_c, 5, 50, 76
11, 157680, Note_on_c, 5, 62, 76
11, 157909, Note_on_c, 5, 50, 0
11, 157909, Note_on_c, 5, 62, 0
11, 157920, Note_on_c, 5, 58, 76
11, 157920, Note_on_c, 5, 46, 76
11, 158029, Note_on_c, 5, 58, 0
11, 158029, Note_on_c, 5, 46, 0
11, 158040, Note_on_c, 5, 41, 76
11, 158040, Note_on_c, 5, 53, 76
11, 158149, Note_on_c, 5, 41, 0
11, 158149, Note_on_c, 5, 53, 0
11, 158160, Note_on_c, 5, 58, 76
11, 158160, Note_on_c, 5, 46, 76
11, 158269, Note_on_c, 5, 58, 0
11, 158269, Note_on_c, 5, 46, 0
11, 158280, Note_on_c, 5, 50, 76
11, 158280, Note_on_c, 5, 62, 76
11, 158389, Note_on_c, 5, 50, 0
11, 158389, Note_on_c, 5, 62, 0
11, 158400, Note_on_c, 5, 53, 76
11, 158400, Note_on_c, 5, 65, 76
11, 158639, Note_on_c, 5, 53, 0
11, 158639, Note_on_c, 5, 65, 0
11, 159840, Note_on_c, 5, 60, 52
11, 159840, Note_on_c, 5, 53, 52
11, 160079, Note_on_c, 5, 60, 0
11, 160079, Note_on_c, 5, 53, 0
11, 160560, Note_on_c, 5, 65, 52
11, 160560, Note_on_c, 5, 53, 52
11, 160620, Control_c, 5, 11, 127
11, 160680, Control_c, 5, 11, 126
11, 160740, Control_c, 5, 11, 123
11, 160799, Note_on_c, 5, 65, 0
11, 160799, Note_on_c, 5, 53, 0
11, 160800, Control_c, 5, 11, 123
11, 162120, Control_c, 5, 11, 127
11, 162240, Note_on_c, 5, 60, 44
11, 162359, Note_on_c, 5, 60, 0
11, 162600, Note_on_c, 5, 60, 44
11, 162600, Note_on_c, 5, 53, 44
11, 162719, Note_on_c, 5, 60, 0
11, 162719, Note_on_c, 5, 53, 0
11, 163440, Control_c, 5, 11, 65
11, 163680, Note_on_c, 5, 60, 76
11, 163789, Note_on_c, 5, 60, 0
11, 163800, Note_on_c, 5, 60, 76
11, 163800, Note_on_c, 5, 53, 76
11, 163920, Control_c, 5, 11, 70
11, 164029, Note_on_c, 5, 60, 0
11, 164029, Note_on_c, 5, 53, 0
11, 164040, Note_on_c, 5, 53, 76
11, 164040, Note_on_c, 5, 41, 76
11, 164040, Control_c, 5, 11, 75
11, 164149, Note_on_c, 5, 53, 0
11, 164149, Note_on_c, 5, 41, 0
11, 164160, Note_on_c, 5, 53, 76
11, 164160, Control_c, 5, 11, 81
11, 164160, Note_on_c, 5, 41, 76
11, 164280, Control_c, 5, 11, 86
11, 164400, Control_c, 5, 11, 91
11, 164509, Note_on_c, 5, 53, 0
11, 164509, Note_on_c, 5, 41, 0
11, 164520, Note_on_c, 5, 53, 76
11, 164520, Note_on_c, 5, 41, 76
11, 164520, Control_c, 5, 11, 97
11, 164640, Control_c, 5, 11, 102
11, 164749, Note_on_c, 5, 53, 0
11, 164749, Note_on_c, 5, 41, 0
11, 164760, Note_on_c, 5, 41, 76
11, 164760, Note_on_c, 5, 53, 76
11, 164760, Control_c, 5, 11, 107
11, 164869, Note_on_c, 5, 41, 0
11, 164869, Note_on_c, 5, 53, 0
11, 164880, Note_on_c, 5, 53, 76
11, 164880, Control_c, 5, 11, 111
11, 164880, Note_on_c, 5, 41, 76
11, 165000, Control_c, 5, 11, 118
11, 165120, Control_c, 5, 11, 123
11, 165229, Note_on_c, 5, 53, 0
11, 165229, Note_on_c, 5, 41, 0
11, 165238, Control_c, 5, 11, 127
11, 165240, Note_on_c, 5, 65, 76
11, 165240, Note_on_c, 5, 53, 76
11, 165469, Note_on_c, 5, 65, 0
11, 165469, Note_on_c, 5, 53, 0
11, 165480, Note_on_c, 5, 53, 76
11, 165480, Note_on_c, 5, 60, 76
11, 165589, Note_on_c, 5, 53, 0
11, 165589, Note_on_c, 5, 60, 0
11, 165600, Note_on_c, 5, 62, 76
11, 165600, Note_on_c, 5, 58, 76
11, 165709, Note_on_c, 5, 62, 0
11, 165709, Note_on_c, 5, 58, 0
11, 165720, Note_on_c, 5, 50, 76
11, 165720, Note_on_c, 5, 58, 76
11, 165829, Note_on_c, 5, 50, 0
11, 165829, Note_on_c, 5, 58, 0
11, 165840, Note_on_c, 5, 50, 76
11, 165840, Note_on_c, 5, 58, 76
11, 165949, Note_on_c, 5, 50, 0
11, 165949, Note_on_c, 5, 58, 0
11, 165960, Note_on_c, 5, 50, 76
11, 165960, Note_on_c, 5, 58, 76
11, 166069, Note_on_c, 5, 50, 0
11, 166069, Note_on_c, 5, 58, 0
11, 166080, Note_on_c, 5, 58, 76
11, 166080, Note_on_c, 5, 50, 76
11, 166189, Note_on_c, 5, 58, 0
11, 166189, Note_on_c, 5, 50, 0
11, 166200, Note_on_c, 5, 50, 76
11, 166200, Note_on_c, 5, 58, 76
11, 166309, Note_on_c, 5, 50, 0
11, 166309, Note_on_c, 5, 58, 0
11, 166320, Note_on_c, 5, 58, 76
11, 166320, Note_on_c, 5, 50, 76
11, 166429, Note_on_c, 5, 58, 0
11, 166429, Note_on_c, 5, 50, 0
11, 166440, Note_on_c, 5, 50, 76
11, 166440, Note_on_c, 5, 58, 76
11, 166549, Note_on_c, 5, 50, 0
11, 166549, Note_on_c, 5, 58, 0
11, 166560, Note_on_c, 5, 58, 76
11, 166560, Note_on_c, 5, 50, 76
11, 166669, Note_on_c, 5, 58, 0
11, 166669, Note_on_c, 5, 50, 0
11, 166680, Note_on_c, 5, 58, 76
11, 166680, Note_on_c, 5, 50, 76
11, 166789, Note_on_c, 5, 58, 0
11, 166789, Note_on_c, 5, 50, 0
11, 166800, Note_on_c, 5, 50, 76
11, 166800, Note_on_c, 5, 58, 76
11, 166909, Note_on_c, 5, 50, 0
11, 166909, Note_on_c, 5, 58, 0
11, 166920, Note_on_c, 5, 58, 76
11, 166920, Note_on_c, 5, 50, 76
11, 167029, Note_on_c, 5, 58, 0
11, 167029, Note_on_c, 5, 50, 0
11, 167040, Note_on_c, 5, 58, 84
11, 167040, Note_on_c, 5, 50, 84
11, 167100, Control_c, 5, 11, 112
11, 167123, Control_c, 5, 11, 109
11, 167147, Control_c, 5, 11, 107
11, 167149, Note_on_c, 5, 58, 0
11, 167149, Note_on_c, 5, 50, 0
11, 167160, Note_on_c, 5, 50, 84
11, 167160, Note_on_c, 5, 58, 84
11, 167170, Control_c, 5, 11, 104
11, 167193, Control_c, 5, 11, 101
11, 167217, Control_c, 5, 11, 99
11, 167240, Control_c, 5, 11, 96
11, 167263, Control_c, 5, 11, 93
11, 167269, Note_on_c, 5, 50, 0
11, 167269, Note_on_c, 5, 58, 0
11, 167280, Note_on_c, 5, 58, 84
11, 167280, Note_on_c, 5, 50, 84
11, 167287, Control_c, 5, 11, 91
11, 167310, Control_c, 5, 11, 88
11, 167333, Control_c, 5, 11, 85
11, 167357, Control_c, 5, 11, 83
11, 167380, Control_c, 5, 11, 80
11, 167389, Note_on_c, 5, 50, 0
11, 167399, Note_on_c, 5, 58, 0
11, 167400, Note_on_c, 5, 58, 84
11, 167400, Note_on_c, 5, 50, 84
11, 167403, Control_c, 5, 11, 77
11, 167427, Control_c, 5, 11, 75
11, 167450, Control_c, 5, 11, 72
11, 167473, Control_c, 5, 11, 69
11, 167497, Control_c, 5, 11, 67
11, 167519, Note_on_c, 5, 58, 0
11, 167519, Note_on_c, 5, 50, 0
11, 167520, Control_c, 5, 11, 64
11, 169200, Control_c, 5, 11, 127
11, 169800, Note_on_c, 5, 58, 52
11, 169800, Note_on_c, 5, 60, 52
11, 169909, Note_on_c, 5, 58, 0
11, 169909, Note_on_c, 5, 60, 0
11, 169920, Note_on_c, 5, 60, 52
11, 169920, Note_on_c, 5, 58, 52
11, 170159, Note_on_c, 5, 60, 0
11, 170159, Note_on_c, 5, 58, 0
11, 170640, Note_on_c, 5, 60, 52
11, 170640, Note_on_c, 5, 53, 52
11, 170879, Note_on_c, 5, 60, 0
11, 170879, Note_on_c, 5, 53, 0
11, 171000, Control_c, 5, 11, 81
11, 171360, Note_on_c, 5, 50, 76
11, 171360, Note_on_c, 5, 58, 76
11, 171599, Note_on_c, 5, 50, 0
11, 171599, Note_on_c, 5, 58, 0
11, 172080, Note_on_c, 5, 65, 76
11, 172080, Control_c, 5, 11, 81
11, 172200, Control_c, 5, 11, 85
11, 172320, Control_c, 5, 11, 89
11, 172440, Control_c, 5, 11, 93
11, 172560, Control_c, 5, 11, 97
11, 172680, Control_c, 5, 11, 101
11, 172789, Note_on_c, 5, 65, 0
11, 172800, Note_on_c, 5, 53, 76
11, 172800, Note_on_c, 5, 65, 76
11, 172800, Control_c, 5, 11, 105
11, 172920, Control_c, 5, 11, 107
11, 173040, Control_c, 5, 11, 111
11, 173160, Control_c, 5, 11, 115
11, 173280, Control_c, 5, 11, 119
11, 173389, Note_on_c, 5, 53, 0
11, 173389, Note_on_c, 5, 65, 0
11, 173400, Control_c, 5, 11, 123
11, 173400, Note_on_c, 5, 65, 76
11, 173400, Note_on_c, 5, 53, 76
11, 173509, Note_on_c, 5, 65, 0
11, 173509, Note_on_c, 5, 53, 0
11, 173518, Control_c, 5, 11, 127
11, 173520, Note_on_c, 5, 65, 84
11, 173520, Note_on_c, 5, 53, 84
11, 173749, Note_on_c, 5, 65, 0
11, 173749, Note_on_c, 5, 53, 0
11, 173760, Note_on_c, 5, 65, 76
11, 173760, Note_on_c, 5, 53, 76
11, 173869, Note_on_c, 5, 65, 0
11, 173869, Note_on_c, 5, 53, 0
11, 173880, Control_c, 5, 11, 127
11, 173880, Note_on_c, 5, 53, 76
11, 173880, Note_on_c, 5, 65, 76
11, 173910, Control_c, 5, 11, 123
11, 173940, Control_c, 5, 11, 119
11, 173970, Control_c, 5, 11, 115
11, 173989, Note_on_c, 5, 53, 0
11, 173989, Note_on_c, 5, 65, 0
11, 174000, Note_on_c, 5, 65, 76
11, 174000, Note_on_c, 5, 53, 76
11, 174000, Control_c, 5, 11, 111
11, 174030, Control_c, 5, 11, 107
11, 174060, Control_c, 5, 11, 105
11, 174090, Control_c, 5, 11, 101
11, 174109, Note_on_c, 5, 65, 0
11, 174109, Note_on_c, 5, 53, 0
11, 174120, Note_on_c, 5, 53, 76
11, 174120, Note_on_c, 5, 65, 76
11, 174120, Control_c, 5, 11, 97
11, 174150, Control_c, 5, 11, 93
11, 174180, Control_c, 5, 11, 89
11, 174210, Control_c, 5, 11, 85
11, 174229, Note_on_c, 5, 53, 0
11, 174229, Note_on_c, 5, 65, 0
11, 174238, Control_c, 5, 11, 81
11, 174240, Note_on_c, 5, 65, 76
11, 174240, Note_on_c, 5, 53, 76
11, 174349, Note_on_c, 5, 65, 0
11, 174349, Note_on_c, 5, 53, 0
11, 174360, Note_on_c, 5, 62, 76
11, 174360, Note_on_c, 5, 65, 76
11, 174469, Note_on_c, 5, 62, 0
11, 174469, Note_on_c, 5, 65, 0
11, 174480, Note_on_c, 5, 62, 76
11, 174480, Note_on_c, 5, 65, 76
11, 174599, Note_on_c, 5, 62, 0
11, 174599, Note_on_c, 5, 65, 0
11, 174600, Note_on_c, 5, 63, 76
11, 174600, Note_on_c, 5, 67, 76
11, 174719, Note_on_c, 5, 63, 0
11, 174719, Note_on_c, 5, 67, 0
11, 174720, Note_on_c, 5, 65, 76
11, 174720, Note_on_c, 5, 62, 76
11, 174829, Note_on_c, 5, 65, 0
11, 174829, Note_on_c, 5, 62, 0
11, 174840, Note_on_c, 5, 62, 76
11, 174840, Note_on_c, 5, 65, 76
11, 174959, Note_on_c, 5, 62, 0
11, 174959, Note_on_c, 5, 65, 0
11, 174960, Note_on_c, 5, 60, 76
11, 174960, Note_on_c, 5, 63, 76
11, 175079, Note_on_c, 5, 60, 0
11, 175079, Note_on_c, 5, 63, 0
11, 175080, Note_on_c, 5, 58, 76
11, 175080, Note_on_c, 5, 62, 76
11, 175189, Note_on_c, 5, 58, 0
11, 175189, Note_on_c, 5, 62, 0
11, 175200, Note_on_c, 5, 58, 76
11, 175200, Note_on_c, 5, 62, 76
11, 175319, Note_on_c, 5, 58, 0
11, 175319, Note_on_c, 5, 62, 0
11, 175320, Note_on_c, 5, 63, 76
11, 175320, Note_on_c, 5, 60, 76
11, 175320, Control_c, 5, 11, 81
11, 175350, Control_c, 5, 11, 79
11, 175380, Control_c, 5, 11, 78
11, 175410, Control_c, 5, 11, 77
11, 175439, Note_on_c, 5, 63, 0
11, 175439, Note_on_c, 5, 60, 0
11, 175440, Note_on_c, 5, 53, 76
11, 175440, Note_on_c, 5, 60, 76
11, 175440, Control_c, 5, 11, 75
11, 175470, Control_c, 5, 11, 74
11, 175500, Control_c, 5, 11, 73
11, 175530, Control_c, 5, 11, 71
11, 175549, Note_on_c, 5, 53, 0
11, 175549, Note_on_c, 5, 60, 0
11, 175560, Note_on_c, 5, 60, 76
11, 175560, Note_on_c, 5, 53, 76
11, 175560, Control_c, 5, 11, 70
11, 175590, Control_c, 5, 11, 69
11, 175620, Control_c, 5, 11, 67
11, 175650, Control_c, 5, 11, 66
11, 175679, Note_on_c, 5, 60, 0
11, 175679, Note_on_c, 5, 53, 0
11, 175680, Control_c, 5, 11, 65
11, 175680, Note_on_c, 5, 62, 76
11, 175680, Note_on_c, 5, 58, 76
11, 175799, Note_on_c, 5, 62, 0
11, 175799, Note_on_c, 5, 58, 0
11, 175800, Note_on_c, 5, 65, 76
11, 175800, Note_on_c, 5, 62, 76
11, 175909, Note_on_c, 5, 65, 0
11, 175909, Note_on_c, 5, 62, 0
11, 175920, Note_on_c, 5, 62, 76
11, 175920, Note_on_c, 5, 65, 76
11, 176039, Note_on_c, 5, 62, 0
11, 176039, Note_on_c, 5, 65, 0
11, 176040, Note_on_c, 5, 63, 76
11, 176040, Note_on_c, 5, 67, 76
11, 176159, Note_on_c, 5, 63, 0
11, 176159, Note_on_c, 5, 67, 0
11, 176160, Note_on_c, 5, 65, 76
11, 176160, Note_on_c, 5, 62, 76
11, 176269, Note_on_c, 5, 65, 0
11, 176269, Note_on_c, 5, 62, 0
11, 176280, Note_on_c, 5, 62, 76
11, 176280, Note_on_c, 5, 65, 76
11, 176399, Note_on_c, 5, 62, 0
11, 176399, Note_on_c, 5, 65, 0
11, 176400, Note_on_c, 5, 63, 76
11, 176400, Note_on_c, 5, 60, 76
11, 176519, Note_on_c, 5, 63, 0
11, 176519, Note_on_c, 5, 60, 0
11, 176520, Note_on_c, 5, 58, 76
11, 176520, Note_on_c, 5, 62, 76
11, 176629, Note_on_c, 5, 58, 0
11, 176629, Note_on_c, 5, 62, 0
11, 176640, Note_on_c, 5, 58, 76
11, 176640, Note_on_c, 5, 62, 76
11, 176759, Note_on_c, 5, 58, 0
11, 176759, Note_on_c, 5, 62, 0
11, 176760, Control_c, 5, 11, 81
11, 176760, Note_on_c, 5, 60, 76
11, 176760, Note_on_c, 5, 63, 76
11, 176790, Control_c, 5, 11, 79
11, 176820, Control_c, 5, 11, 78
11, 176850, Control_c, 5, 11, 77
11, 176879, Note_on_c, 5, 60, 0
11, 176879, Note_on_c, 5, 63, 0
11, 176880, Control_c, 5, 11, 75
11, 176880, Note_on_c, 5, 60, 76
11, 176880, Note_on_c, 5, 53, 76
11, 176910, Control_c, 5, 11, 74
11, 176940, Control_c, 5, 11, 73
11, 176970, Control_c, 5, 11, 71
11, 176989, Note_on_c, 5, 60, 0
11, 176989, Note_on_c, 5, 53, 0
11, 177000, Note_on_c, 5, 53, 76
11, 177000, Control_c, 5, 11, 70
11, 177000, Note_on_c, 5, 60, 76
11, 177030, Control_c, 5, 11, 69
11, 177060, Control_c, 5, 11, 67
11, 177090, Control_c, 5, 11, 66
11, 177109, Note_on_c, 5, 53, 0
11, 177109, Note_on_c, 5, 60, 0
11, 177120, Note_on_c, 5, 46, 76
11, 177120, Control_c, 5, 11, 65
11, 177120, Note_on_c, 5, 58, 76
11, 178559, Note_on_c, 5, 46, 0
11, 178559, Note_on_c, 5, 58, 0
11, 178560, Note_on_c, 5, 58, 76
11, 178560, Note_on_c, 5, 46, 76
11, 178560, Control_c, 5, 11, 65
11, 178680, Control_c, 5, 11, 69
11, 178800, Control_c, 5, 11, 73
11, 178920, Control_c, 5, 11, 77
11, 179040, Control_c, 5, 11, 81
11, 179160, Control_c, 5, 11, 85
11, 179280, Control_c, 5, 11, 89
11, 179400, Control_c, 5, 11, 93
11, 179520, Control_c, 5, 11, 97
11, 179640, Control_c, 5, 11, 101
11, 179760, Control_c, 5, 11, 105
11, 179880, Control_c, 5, 11, 109
11, 179989, Note_on_c, 5, 58, 0
11, 179989, Note_on_c, 5, 46, 0
11, 179998, Control_c, 5, 11, 113
11, 180000, Note_on_c, 5, 46, 76
11, 180000, Note_on_c, 5, 58, 76
11, 180120, Control_c, 5, 11, 109
11, 180240, Control_c, 5, 11, 105
11, 180360, Control_c, 5, 11, 101
11, 180480, Control_c, 5, 11, 97
11, 180600, Control_c, 5, 11, 93
11, 180720, Control_c, 5, 11, 89
11, 180840, Control_c, 5, 11, 85
11, 180960, Control_c, 5, 11, 81
11, 181080, Control_c, 5, 11, 77
11, 181200, Control_c, 5, 11, 73
11, 181320, Control_c, 5, 11, 69
11, 181429, Note_on_c, 5, 46, 0
11, 181429, Note_on_c, 5, 58, 0
11, 181438, Control_c, 5, 11, 65
11, 181440, Note_on_c, 5, 58, 76
11, 181440, Note_on_c, 5, 46, 76
11, 181560, Control_c, 5, 11, 69
11, 181680, Control_c, 5, 11, 73
11, 181800, Control_c, 5, 11, 77
11, 181920, Control_c, 5, 11, 81
11, 182040, Control_c, 5, 11, 85
11, 182160, Control_c, 5, 11, 89
11, 182280, Control_c, 5, 11, 93
11, 182400, Control_c, 5, 11, 97
11, 182520, Control_c, 5, 11, 101
11, 182640, Control_c, 5, 11, 105
11, 182760, Control_c, 5, 11, 109
11, 182869, Note_on_c, 5, 58, 0
11, 182869, Note_on_c, 5, 46, 0
11, 182880, Note_on_c, 5, 58, 76
11, 182880, Note_on_c, 5, 46, 76
11, 182880, Control_c, 5, 11, 113
11, 183000, Control_c, 5, 11, 109
11, 183120, Control_c, 5, 11, 105
11, 183240, Control_c, 5, 11, 101
11, 183360, Control_c, 5, 11, 97
11, 183480, Control_c, 5, 11, 93
11, 183600, Control_c, 5, 11, 89
11, 183720, Control_c, 5, 11, 85
11, 183840, Control_c, 5, 11, 81
11, 183960, Control_c, 5, 11, 77
11, 184080, Control_c, 5, 11, 73
11, 184200, Control_c, 5, 11, 69
11, 184309, Note_on_c, 5, 58, 0
11, 184309, Note_on_c, 5, 46, 0
11, 184318, Control_c, 5, 11, 65
11, 184320, Note_on_c, 5, 46, 76
11, 184320, Note_on_c, 5, 58, 76
11, 184559, Note_on_c, 5, 46, 0
11, 184559, Note_on_c, 5, 58, 0
11, 189000, Control_c, 5, 11, 127
11, 189360, Note_on_c, 5, 53, 52
11, 189360, Note_on_c, 5, 60, 52
11, 190069, Note_on_c, 5, 53, 0
11, 190069, Note_on_c, 5, 60, 0
11, 190080, Note_on_c, 5, 50, 52
11, 190080, Note_on_c, 5, 58, 52
11, 190319, Note_on_c, 5, 50, 0
11, 190319, Note_on_c, 5, 58, 0
11, 195120, Note_on_c, 5, 53, 44
11, 195120, Note_on_c, 5, 60, 44
11, 195829, Note_on_c, 5, 53, 0
11, 195829, Note_on_c, 5, 60, 0
11, 195840, Note_on_c, 5, 50, 44
11, 195840, Note_on_c, 5, 58, 44
11, 196199, Note_on_c, 5, 50, 0
11, 196199, Note_on_c, 5, 58, 0
11, 197280, Control_c, 5, 11, 81
11, 197340, Control_c, 5, 11, 85
11, 197400, Control_c, 5, 11, 89
11, 197460, Control_c, 5, 11, 93
11, 197520, Note_on_c, 5, 60, 76
11, 197520, Note_on_c, 5, 63, 76
11, 197520, Control_c, 5, 11, 97
11, 197580, Control_c, 5, 11, 101
11, 197629, Note_on_c, 5, 60, 0
11, 197629, Note_on_c, 5, 63, 0
11, 197640, Note_on_c, 5, 60, 76
11, 197640, Control_c, 5, 11, 105
11, 197640, Note_on_c, 5, 63, 76
11, 197700, Control_c, 5, 11, 107
11, 197759, Note_on_c, 5, 60, 0
11, 197759, Note_on_c, 5, 63, 0
11, 197760, Note_on_c, 5, 58, 76
11, 197760, Note_on_c, 5, 62, 76
11, 197760, Control_c, 5, 11, 111
11, 197820, Control_c, 5, 11, 115
11, 197879, Note_on_c, 5, 58, 0
11, 197879, Note_on_c, 5, 62, 0
11, 197880, Control_c, 5, 11, 119
11, 197880, Note_on_c, 5, 53, 76
11, 197880, Note_on_c, 5, 60, 76
11, 197940, Control_c, 5, 11, 123
11, 197989, Note_on_c, 5, 53, 0
11, 197989, Note_on_c, 5, 60, 0
11, 198000, Note_on_c, 5, 50, 84
11, 198000, Note_on_c, 5, 58, 84
11, 198060, Control_c, 5, 11, 112
11, 198097, Control_c, 5, 11, 108
11, 198133, Control_c, 5, 11, 105
11, 198170, Control_c, 5, 11, 101
11, 198207, Control_c, 5, 11, 98
11, 198243, Control_c, 5, 11, 94
11, 198280, Control_c, 5, 11, 91
11, 198317, Control_c, 5, 11, 87
11, 198353, Control_c, 5, 11, 84
11, 198390, Control_c, 5, 11, 80
11, 198427, Control_c, 5, 11, 76
11, 198463, Control_c, 5, 11, 73
11, 198500, Control_c, 5, 11, 69
11, 198537, Control_c, 5, 11, 66
11, 198573, Control_c, 5, 11, 62
11, 198610, Control_c, 5, 11, 59
11, 198647, Control_c, 5, 11, 55
11, 198683, Control_c, 5, 11, 48
11, 198959, Note_on_c, 5, 50, 0
11, 198959, Note_on_c, 5, 58, 0
11, 199080, Note_on_c, 5, 62, 84
11, 199080, Note_on_c, 5, 58, 84
11, 199319, Note_on_c, 5, 62, 0
11, 199319, Note_on_c, 5, 58, 0
11, 199440, Note_on_c, 5, 58, 84
11, 199440, Note_on_c, 5, 50, 84
11, 199679, Note_on_c, 5, 58, 0
11, 199679, Note_on_c, 5, 50, 0
11, 200160, Control_c, 5, 11, 127
11, 200160, End_track
12, 0, Start_track
12, 0, Title_t, "Violin I"
12, 0, MIDI_port, 0
12, 0, Program_c, 10, 48
12, 0, Control_c, 10, 7, 96
12, 0, Control_c, 10, 10, 48
12, 0, Control_c, 10, 11, 127
12, 0, Note_on_c, 10, 70, 52
12, 239, Note_on_c, 10, 70, 0
12, 1200, Note_on_c, 10, 70, 52
12, 1259, Note_on_c, 10, 70, 0
12, 1260, Note_on_c, 10, 72, 52
12, 1319, Note_on_c, 10, 72, 0
12, 1320, Note_on_c, 10, 74, 52
12, 1379, Note_on_c, 10, 74, 0
12, 1380, Note_on_c, 10, 72, 52
12, 1433, Note_on_c, 10, 72, 0
12, 1440, Note_on_c, 10, 72, 52
12, 1559, Note_on_c, 10, 72, 0
12, 1560, Note_on_c, 10, 70, 52
12, 1799, Note_on_c, 10, 70, 0
12, 2640, Note_on_c, 10, 70, 52
12, 2699, Note_on_c, 10, 70, 0
12, 2700, Note_on_c, 10, 72, 52
12, 2759, Note_on_c, 10, 72, 0
12, 2760, Note_on_c, 10, 74, 52
12, 2819, Note_on_c, 10, 74, 0
12, 2820, Note_on_c, 10, 70, 52
12, 2834, Note_on_c, 10, 70, 0
12, 2835, Note_on_c, 10, 69, 52
12, 2849, Note_on_c, 10, 69, 0
12, 2850, Note_on_c, 10, 70, 52
12, 2864, Note_on_c, 10, 70, 0
12, 2865, Note_on_c, 10, 72, 52
12, 2879, Note_on_c, 10, 72, 0
12, 2880, Note_on_c, 10, 70, 52
12, 2999, Note_on_c, 10, 70, 0
12, 3000, Note_on_c, 10, 69, 52
12, 3239, Note_on_c, 10, 69, 0
12, 4080, Note_on_c, 10, 72, 52
12, 4139, Note_on_c, 10, 72, 0
12, 4140, Note_on_c, 10, 74, 52
12, 4199, Note_on_c, 10, 74, 0
12, 4200, Note_on_c, 10, 75, 52
12, 4259, Note_on_c, 10, 75, 0
12, 4260, Note_on_c, 10, 74, 52
12, 4313, Note_on_c, 10, 74, 0
12, 4320, Note_on_c, 10, 74, 52
12, 4439, Note_on_c, 10, 74, 0
12, 4440, Note_on_c, 10, 72, 52
12, 4679, Note_on_c, 10, 72, 0
12, 5400, Control_c, 10, 11, 81
12, 5520, Note_on_c, 10, 72, 76
12, 5639, Note_on_c, 10, 72, 0
12, 5640, Note_on_c, 10, 74, 76
12, 5699, Note_on_c, 10, 74, 0
12, 5700, Note_on_c, 10, 75, 76
12, 5753, Note_on_c, 10, 75, 0
12, 5760, Control_c, 10, 11, 81
12, 5760, Note_on_c, 10, 77, 76
12, 5880, Control_c, 10, 11, 85
12, 6000, Control_c, 10, 11, 89
12, 6120, Control_c, 10, 11, 93
12, 6239, Note_on_c, 10, 77, 0
12, 6240, Control_c, 10, 11, 97
12, 6240, Note_on_c, 10, 75, 76
12, 6359, Note_on_c, 10, 75, 0
12, 6360, Note_on_c, 10, 74, 76
12, 6360, Control_c, 10, 11, 101
12, 6469, Note_on_c, 10, 74, 0
12, 6480, Note_on_c, 10, 72, 76
12, 6480, Control_c, 10, 11, 105
12, 6600, Control_c, 10, 11, 107
12, 6720, Control_c, 10, 11, 111
12, 6769, Note_on_c, 10, 72, 0
12, 6780, Note_on_c, 10, 74, 76
12, 6799, Note_on_c, 10, 74, 0
12, 6800, Note_on_c, 10, 72, 76
12, 6819, Note_on_c, 10, 72, 0
12, 6820, Note_on_c, 10, 71, 76
12, 6839, Note_on_c, 10, 71, 0
12, 6840, Control_c, 10, 11, 115
12, 6840, Note_on_c, 10, 72, 76
12, 6959, Note_on_c, 10, 72, 0
12, 6960, Note_on_c, 10, 75, 76
12, 6960, Control_c, 10, 11, 119
12, 7069, Note_on_c, 10, 75, 0
12, 7080, Control_c, 10, 11, 123
12, 7080, Note_on_c, 10, 79, 76
12, 7169, Note_on_c, 10, 79, 0
12, 7198, Control_c, 10, 11, 127
12, 7200, Note_on_c, 10, 65, 76
12, 7260, Control_c, 10, 11, 81
12, 7679, Note_on_c, 10, 65, 0
12, 7680, Note_on_c, 10, 67, 76
12, 7779, Note_on_c, 10, 67, 0
12, 7800, Note_on_c, 10, 69, 76
12, 7889, Note_on_c, 10, 69, 0
12, 7920, Note_on_c, 10, 70, 76
12, 7920, Control_c, 10, 11, 81
12, 7950, Control_c, 10, 11, 83
12, 7980, Control_c, 10, 11, 86
12, 8010, Control_c, 10, 11, 89
12, 8019, Note_on_c, 10, 70, 0
12, 8040, Control_c, 10, 11, 91
12, 8040, Note_on_c, 10, 72, 76
12, 8070, Control_c, 10, 11, 94
12, 8100, Control_c, 10, 11, 97
12, 8130, Control_c, 10, 11, 99
12, 8139, Note_on_c, 10, 72, 0
12, 8160, Note_on_c, 10, 74, 76
12, 8160, Control_c, 10, 11, 102
12, 8190, Control_c, 10, 11, 105
12, 8220, Control_c, 10, 11, 107
12, 8249, Note_on_c, 10, 74, 0
12, 8250, Control_c, 10, 11, 110
12, 8280, Note_on_c, 10, 77, 76
12, 8280, Control_c, 10, 11, 113
12, 8310, Control_c, 10, 11, 110
12, 8340, Control_c, 10, 11, 107
12, 8370, Control_c, 10, 11, 105
12, 8399, Note_on_c, 10, 77, 0
12, 8400, Control_c, 10, 11, 102
12, 8400, Note_on_c, 10, 75, 76
12, 8430, Control_c, 10, 11, 99
12, 8460, Control_c, 10, 11, 97
12, 8490, Control_c, 10, 11, 94
12, 8509, Note_on_c, 10, 75, 0
12, 8520, Control_c, 10, 11, 91
12, 8520, Note_on_c, 10, 72, 76
12, 8550, Control_c, 10, 11, 89
12, 8579, Note_on_c, 10, 72, 0
12, 8580, Control_c, 10, 11, 86
12, 8580, Note_on_c, 10, 74, 76
12, 8633, Note_on_c, 10, 74, 0
12, 8638, Control_c, 10, 11, 81
12, 8640, Note_on_c, 10, 70, 76
12, 8879, Note_on_c, 10, 70, 0
12, 9000, Control_c, 10, 11, 127
12, 9360, Note_on_c, 10, 82, 52
12, 9389, Note_on_c, 10, 82, 0
12, 9390, Note_on_c, 10, 84, 52
12, 9419, Note_on_c, 10, 84, 0
12, 9420, Note_on_c, 10, 82, 52
12, 9449, Note_on_c, 10, 82, 0
12, 9450, Note_on_c, 10, 84, 52
12, 9479, Note_on_c, 10, 84, 0
12, 9480, Note_on_c, 10, 82, 52
12, 9509, Note_on_c, 10, 82, 0
12, 9510, Note_on_c, 10, 84, 52
12, 9539, Note_on_c, 10, 84, 0
12, 9540, Note_on_c, 10, 82, 52
12, 9569, Note_on_c, 10, 82, 0
12, 9570, Note_on_c, 10, 84, 52
12, 9599, Note_on_c, 10, 84, 0
12, 9600, Note_on_c, 10, 82, 52
12, 9629, Note_on_c, 10, 82, 0
12, 9630, Note_on_c, 10, 84, 52
12, 9659, Note_on_c, 10, 84, 0
12, 9660, Note_on_c, 10, 82, 52
12, 9689, Note_on_c, 10, 82, 0
12, 9690, Note_on_c, 10, 84, 52
12, 9719, Note_on_c, 10, 84, 0
12, 9720, Note_on_c, 10, 82, 52
12, 9749, Note_on_c, 10, 82, 0
12, 9750, Note_on_c, 10, 84, 52
12, 9779, Note_on_c, 10, 84, 0
12, 9780, Note_on_c, 10, 82, 52
12, 9809, Note_on_c, 10, 82, 0
12, 9810, Note_on_c, 10, 84, 52
12, 9839, Note_on_c, 10, 84, 0
12, 9840, Note_on_c, 10, 82, 52
12, 9869, Note_on_c, 10, 82, 0
12, 9870, Note_on_c, 10, 84, 52
12, 9899, Note_on_c, 10, 84, 0
12, 9900, Note_on_c, 10, 81, 52
12, 9929, Note_on_c, 10, 81, 0
12, 9930, Note_on_c, 10, 82, 52
12, 10049, Note_on_c, 10, 82, 0
12, 10050, Note_on_c, 10, 81, 52
12, 10075, Note_on_c, 10, 81, 0
12, 10080, Note_on_c, 10, 82, 52
12, 10319, Note_on_c, 10, 82, 0
12, 10800, Note_on_c, 10, 82, 52
12, 10829, Note_on_c, 10, 82, 0
12, 10830, Note_on_c, 10, 84, 52
12, 10859, Note_on_c, 10, 84, 0
12, 10860, Note_on_c, 10, 82, 52
12, 10889, Note_on_c, 10, 82, 0
12, 10890, Note_on_c, 10, 84, 52
12, 10919, Note_on_c, 10, 84, 0
12, 10920, Note_on_c, 10, 82, 52
12, 10949, Note_on_c, 10, 82, 0
12, 10950, Note_on_c, 10, 84, 52
12, 10979, Note_on_c, 10, 84, 0
12, 10980, Note_on_c, 10, 82, 52
12, 11009, Note_on_c, 10, 82, 0
12, 11010, Note_on_c, 10, 84, 52
12, 11039, Note_on_c, 10, 84, 0
12, 11040, Note_on_c, 10, 82, 52
12, 11069, Note_on_c, 10, 82, 0
12, 11070, Note_on_c, 10, 84, 52
12, 11099, Note_on_c, 10, 84, 0
12, 11100, Note_on_c, 10, 82, 52
12, 11129, Note_on_c, 10, 82, 0
12, 11130, Note_on_c, 10, 84, 52
12, 11159, Note_on_c, 10, 84, 0
12, 11160, Note_on_c, 10, 82, 52
12, 11189, Note_on_c, 10, 82, 0
12, 11190, Note_on_c, 10, 84, 52
12, 11219, Note_on_c, 10, 84, 0
12, 11220, Note_on_c, 10, 82, 52
12, 11249, Note_on_c, 10, 82, 0
12, 11250, Note_on_c, 10, 84, 52
12, 11279, Note_on_c, 10, 84, 0
12, 11280, Note_on_c, 10, 82, 52
12, 11309, Note_on_c, 10, 82, 0
12, 11310, Note_on_c, 10, 84, 52
12, 11339, Note_on_c, 10, 84, 0
12, 11340, Note_on_c, 10, 81, 52
12, 11369, Note_on_c, 10, 81, 0
12, 11370, Note_on_c, 10, 82, 52
12, 11459, Note_on_c, 10, 82, 0
12, 11460, Note_on_c, 10, 81, 52
12, 11489, Note_on_c, 10, 81, 0
12, 11490, Note_on_c, 10, 82, 52
12, 11515, Note_on_c, 10, 82, 0
12, 11520, Note_on_c, 10, 84, 52
12, 11759, Note_on_c, 10, 84, 0
12, 12240, Note_on_c, 10, 84, 52
12, 12269, Note_on_c, 10, 84, 0
12, 12270, Note_on_c, 10, 86, 52
12, 12299, Note_on_c, 10, 86, 0
12, 12300, Note_on_c, 10, 84, 52
12, 12329, Note_on_c, 10, 84, 0
12, 12330, Note_on_c, 10, 86, 52
12, 12359, Note_on_c, 10, 86, 0
12, 12360, Note_on_c, 10, 84, 52
12, 12389, Note_on_c, 10, 84, 0
12, 12390, Note_on_c, 10, 86, 52
12, 12419, Note_on_c, 10, 86, 0
12, 12420, Note_on_c, 10, 84, 52
12, 12449, Note_on_c, 10, 84, 0
12, 12450, Note_on_c, 10, 86, 52
12, 12479, Note_on_c, 10, 86, 0
12, 12480, Note_on_c, 10, 84, 52
12, 12509, Note_on_c, 10, 84, 0
12, 12510, Note_on_c, 10, 86, 52
12, 12539, Note_on_c, 10, 86, 0
12, 12540, Note_on_c, 10, 84, 52
12, 12569, Note_on_c, 10, 84, 0
12, 12570, Note_on_c, 10, 86, 52
12, 12599, Note_on_c, 10, 86, 0
12, 12600, Note_on_c, 10, 84, 52
12, 12629, Note_on_c, 10, 84, 0
12, 12630, Note_on_c, 10, 86, 52
12, 12659, Note_on_c, 10, 86, 0
12, 12660, Note_on_c, 10, 84, 52
12, 12689, Note_on_c, 10, 84, 0
12, 12690, Note_on_c, 10, 86, 52
12, 12719, Note_on_c, 10, 86, 0
12, 12720, Note_on_c, 10, 84, 52
12, 12749, Note_on_c, 10, 84, 0
12, 12750, Note_on_c, 10, 86, 52
12, 12779, Note_on_c, 10, 86, 0
12, 12780, Note_on_c, 10, 83, 52
12, 12809, Note_on_c, 10, 83, 0
12, 12810, Note_on_c, 10, 84, 52
12, 12929, Note_on_c, 10, 84, 0
12, 12930, Note_on_c, 10, 83, 52
12, 12955, Note_on_c, 10, 83, 0
12, 12960, Note_on_c, 10, 84, 52
12, 13199, Note_on_c, 10, 84, 0
12, 13320, Control_c, 10, 11, 81
12, 13680, Note_on_c, 10, 84, 76
12, 13709, Note_on_c, 10, 84, 0
12, 13710, Note_on_c, 10, 86, 76
12, 13739, Note_on_c, 10, 86, 0
12, 13740, Note_on_c, 10, 84, 76
12, 13769, Note_on_c, 10, 84, 0
12, 13770, Note_on_c, 10, 86, 76
12, 13799, Note_on_c, 10, 86, 0
12, 13800, Note_on_c, 10, 84, 76
12, 13829, Note_on_c, 10, 84, 0
12, 13830, Note_on_c, 10, 86, 76
12, 13859, Note_on_c, 10, 86, 0
12, 13860, Note_on_c, 10, 84, 76
12, 13889, Note_on_c, 10, 84, 0
12, 13890, Note_on_c, 10, 86, 76
12, 13919, Note_on_c, 10, 86, 0
12, 13920, Note_on_c, 10, 84, 76
12, 13949, Note_on_c, 10, 84, 0
12, 13950, Note_on_c, 10, 86, 76
12, 13979, Note_on_c, 10, 86, 0
12, 13980, Note_on_c, 10, 84, 76
12, 14009, Note_on_c, 10, 84, 0
12, 14010, Note_on_c, 10, 86, 76
12, 14039, Note_on_c, 10, 86, 0
12, 14040, Note_on_c, 10, 84, 76
12, 14069, Note_on_c, 10, 84, 0
12, 14070, Note_on_c, 10, 86, 76
12, 14099, Note_on_c, 10, 86, 0
12, 14100, Note_on_c, 10, 84, 76
12, 14129, Note_on_c, 10, 84, 0
12, 14130, Note_on_c, 10, 86, 76
12, 14159, Note_on_c, 10, 86, 0
12, 14160, Note_on_c, 10, 84, 76
12, 14189, Note_on_c, 10, 84, 0
12, 14190, Note_on_c, 10, 86, 76
12, 14219, Note_on_c, 10, 86, 0
12, 14220, Note_on_c, 10, 82, 76
12, 14249, Note_on_c, 10, 82, 0
12, 14250, Note_on_c, 10, 84, 76
12, 14339, Note_on_c, 10, 84, 0
12, 14340, Note_on_c, 10, 82, 76
12, 14369, Note_on_c, 10, 82, 0
12, 14370, Note_on_c, 10, 84, 76
12, 14395, Note_on_c, 10, 84, 0
12, 14400, Control_c, 10, 11, 81
12, 14400, Note_on_c, 10, 86, 76
12, 14520, Control_c, 10, 11, 85
12, 14639, Note_on_c, 10, 86, 0
12, 14640, Control_c, 10, 11, 89
12, 14760, Control_c, 10, 11, 93
12, 14760, Note_on_c, 10, 82, 76
12, 14789, Note_on_c, 10, 82, 0
12, 14790, Note_on_c, 10, 84, 76
12, 14819, Note_on_c, 10, 84, 0
12, 14820, Note_on_c, 10, 82, 76
12, 14849, Note_on_c, 10, 82, 0
12, 14850, Note_on_c, 10, 84, 76
12, 14879, Note_on_c, 10, 84, 0
12, 14880, Note_on_c, 10, 82, 76
12, 14880, Control_c, 10, 11, 97
12, 14909, Note_on_c, 10, 82, 0
12, 14910, Note_on_c, 10, 84, 76
12, 14939, Note_on_c, 10, 84, 0
12, 14940, Note_on_c, 10, 82, 76
12, 14969, Note_on_c, 10, 82, 0
12, 14970, Note_on_c, 10, 84, 76
12, 14999, Note_on_c, 10, 84, 0
12, 15000, Note_on_c, 10, 82, 76
12, 15000, Control_c, 10, 11, 101
12, 15029, Note_on_c, 10, 82, 0
12, 15030, Note_on_c, 10, 84, 76
12, 15059, Note_on_c, 10, 84, 0
12, 15060, Note_on_c, 10, 81, 76
12, 15089, Note_on_c, 10, 81, 0
12, 15090, Note_on_c, 10, 82, 76
12, 15119, Note_on_c, 10, 82, 0
12, 15120, Control_c, 10, 11, 105
12, 15240, Control_c, 10, 11, 107
12, 15360, Control_c, 10, 11, 111
12, 15480, Note_on_c, 10, 82, 76
12, 15480, Control_c, 10, 11, 115
12, 15509, Note_on_c, 10, 82, 0
12, 15510, Note_on_c, 10, 84, 76
12, 15539, Note_on_c, 10, 84, 0
12, 15540, Note_on_c, 10, 82, 76
12, 15569, Note_on_c, 10, 82, 0
12, 15570, Note_on_c, 10, 84, 76
12, 15599, Note_on_c, 10, 84, 0
12, 15600, Note_on_c, 10, 82, 76
12, 15600, Control_c, 10, 11, 119
12, 15629, Note_on_c, 10, 82, 0
12, 15630, Note_on_c, 10, 84, 76
12, 15659, Note_on_c, 10, 84, 0
12, 15660, Note_on_c, 10, 82, 76
12, 15689, Note_on_c, 10, 82, 0
12, 15690, Note_on_c, 10, 84, 76
12, 15719, Note_on_c, 10, 84, 0
12, 15720, Control_c, 10, 11, 123
12, 15720, Note_on_c, 10, 82, 76
12, 15749, Note_on_c, 10, 82, 0
12, 15750, Note_on_c, 10, 84, 76
12, 15779, Note_on_c, 10, 84, 0
12, 15780, Note_on_c, 10, 81, 76
12, 15809, Note_on_c, 10, 81, 0
12, 15810, Note_on_c, 10, 82, 76
12, 15839, Note_on_c, 10, 82, 0
12, 15840, Control_c, 10, 11, 81
12, 16200, Note_on_c, 10, 77, 76
12, 16229, Note_on_c, 10, 77, 0
12, 16230, Note_on_c, 10, 79, 76
12, 16259, Note_on_c, 10, 79, 0
12, 16260, Note_on_c, 10, 76, 76
12, 16289, Note_on_c, 10, 76, 0
12, 16290, Note_on_c, 10, 77, 76
12, 16319, Note_on_c, 10, 77, 0
12, 16440, Control_c, 10, 11, 81
12, 16560, Note_on_c, 10, 77, 76
12, 16589, Note_on_c, 10, 77, 0
12, 16590, Note_on_c, 10, 79, 76
12, 16590, Control_c, 10, 11, 83
12, 16619, Note_on_c, 10, 79, 0
12, 16620, Control_c, 10, 11, 86
12, 16620, Note_on_c, 10, 76, 76
12, 16649, Note_on_c, 10, 76, 0
12, 16650, Note_on_c, 10, 77, 76
12, 16650, Control_c, 10, 11, 89
12, 16679, Note_on_c, 10, 77, 0
12, 16680, Control_c, 10, 11, 91
12, 16710, Control_c, 10, 11, 94
12, 16740, Control_c, 10, 11, 97
12, 16770, Control_c, 10, 11, 99
12, 16800, Control_c, 10, 11, 102
12, 16830, Control_c, 10, 11, 105
12, 16860, Control_c, 10, 11, 107
12, 16890, Control_c, 10, 11, 110
12, 16920, Control_c, 10, 11, 113
12, 16920, Note_on_c, 10, 77, 76
12, 16949, Note_on_c, 10, 77, 0
12, 16950, Note_on_c, 10, 79, 76
12, 16950, Control_c, 10, 11, 110
12, 16979, Note_on_c, 10, 79, 0
12, 16980, Control_c, 10, 11, 107
12, 16980, Note_on_c, 10, 76, 76
12, 17009, Note_on_c, 10, 76, 0
12, 17010, Note_on_c, 10, 77, 76
12, 17010, Control_c, 10, 11, 105
12, 17039, Note_on_c, 10, 77, 0
12, 17040, Control_c, 10, 11, 102
12, 17070, Control_c, 10, 11, 99
12, 17100, Control_c, 10, 11, 97
12, 17130, Control_c, 10, 11, 94
12, 17160, Control_c, 10, 11, 89
12, 17280, Note_on_c, 10, 70, 68
12, 17869, Note_on_c, 10, 70, 0
12, 17880, Note_on_c, 10, 70, 68
12, 17969, Note_on_c, 10, 70, 0
12, 17980, Note_on_c, 10, 70, 68
12, 17999, Note_on_c, 10, 70, 0
12, 18000, Note_on_c, 10, 69, 68
12, 18119, Note_on_c, 10, 69, 0
12, 18120, Note_on_c, 10, 67, 68
12, 18239, Note_on_c, 10, 67, 0
12, 18240, Note_on_c, 10, 65, 68
12, 18349, Note_on_c, 10, 65, 0
12, 18360, Note_on_c, 10, 65, 68
12, 18459, Note_on_c, 10, 65, 0
12, 18480, Note_on_c, 10, 67, 68
12, 18579, Note_on_c, 10, 67, 0
12, 18600, Note_on_c, 10, 69, 68
12, 18689, Note_on_c, 10, 69, 0
12, 18720, Control_c, 10, 11, 97
12, 18720, Note_on_c, 10, 70, 68
12, 18780, Control_c, 10, 11, 99
12, 18840, Control_c, 10, 11, 102
12, 18900, Control_c, 10, 11, 105
12, 18960, Control_c, 10, 11, 107
12, 19020, Control_c, 10, 11, 110
12, 19080, Control_c, 10, 11, 113
12, 19140, Control_c, 10, 11, 115
12, 19199, Note_on_c, 10, 70, 0
12, 19200, Control_c, 10, 11, 118
12, 19200, Note_on_c, 10, 72, 68
12, 19260, Control_c, 10, 11, 119
12, 19319, Note_on_c, 10, 72, 0
12, 19320, Control_c, 10, 11, 123
12, 19320, Note_on_c, 10, 74, 68
12, 19380, Control_c, 10, 11, 125
12, 19429, Note_on_c, 10, 74, 0
12, 19440, Control_c, 10, 11, 127
12, 19440, Note_on_c, 10, 77, 68
12, 19500, Control_c, 10, 11, 125
12, 19559, Note_on_c, 10, 77, 0
12, 19560, Control_c, 10, 11, 123
12, 19560, Note_on_c, 10, 75, 68
12, 19620, Control_c, 10, 11, 119
12, 19669, Note_on_c, 10, 75, 0
12, 19680, Control_c, 10, 11, 118
12, 19680, Note_on_c, 10, 74, 68
12, 19740, Control_c, 10, 11, 115
12, 19769, Note_on_c, 10, 74, 0
12, 19800, Control_c, 10, 11, 113
12, 19800, Note_on_c, 10, 72, 68
12, 19860, Control_c, 10, 11, 110
12, 19920, Control_c, 10, 11, 107
12, 19980, Control_c, 10, 11, 105
12, 20039, Note_on_c, 10, 72, 0
12, 20040, Note_on_c, 10, 77, 68
12, 20040, Control_c, 10, 11, 102
12, 20100, Control_c, 10, 11, 99
12, 20149, Note_on_c, 10, 77, 0
12, 20160, Control_c, 10, 11, 97
12, 20160, Note_on_c, 10, 70, 68
12, 20399, Note_on_c, 10, 70, 0
12, 20880, Note_on_c, 10, 77, 68
12, 21479, Note_on_c, 10, 77, 0
12, 21480, Note_on_c, 10, 75, 68
12, 21569, Note_on_c, 10, 75, 0
12, 21580, Note_on_c, 10, 75, 68
12, 21599, Note_on_c, 10, 75, 0
12, 21600, Control_c, 10, 11, 97
12, 21600, Note_on_c, 10, 74, 68
12, 21660, Control_c, 10, 11, 99
12, 21719, Note_on_c, 10, 74, 0
12, 21720, Note_on_c, 10, 72, 68
12, 21720, Control_c, 10, 11, 102
12, 21780, Control_c, 10, 11, 105
12, 21839, Note_on_c, 10, 72, 0
12, 21840, Note_on_c, 10, 70, 68
12, 21840, Control_c, 10, 11, 107
12, 21900, Control_c, 10, 11, 110
12, 21929, Note_on_c, 10, 70, 0
12, 21940, Note_on_c, 10, 72, 68
12, 21959, Note_on_c, 10, 72, 0
12, 21960, Note_on_c, 10, 70, 68
12, 21960, Control_c, 10, 11, 113
12, 22020, Control_c, 10, 11, 115
12, 22079, Note_on_c, 10, 70, 0
12, 22080, Control_c, 10, 11, 118
12, 22080, Note_on_c, 10, 69, 68
12, 22140, Control_c, 10, 11, 119
12, 22199, Note_on_c, 10, 69, 0
12, 22200, Control_c, 10, 11, 123
12, 22200, Note_on_c, 10, 67, 68
12, 22260, Control_c, 10, 11, 125
12, 22309, Note_on_c, 10, 67, 0
12, 22320, Note_on_c, 10, 65, 68
12, 22320, Control_c, 10, 11, 127
12, 22380, Control_c, 10, 11, 125
12, 22440, Control_c, 10, 11, 123
12, 22500, Control_c, 10, 11, 119
12, 22560, Control_c, 10, 11, 118
12, 22620, Control_c, 10, 11, 115
12, 22680, Control_c, 10, 11, 113
12, 22740, Control_c, 10, 11, 110
12, 22799, Note_on_c, 10, 65, 0
12, 22800, Control_c, 10, 11, 107
12, 22800, Note_on_c, 10, 67, 68
12, 22860, Control_c, 10, 11, 105
12, 22919, Note_on_c, 10, 67, 0
12, 22920, Control_c, 10, 11, 102
12, 22920, Note_on_c, 10, 69, 68
12, 22980, Control_c, 10, 11, 99
12, 23029, Note_on_c, 10, 69, 0
12, 23040, Note_on_c, 10, 70, 68
12, 23040, Control_c, 10, 11, 97
12, 23759, Note_on_c, 10, 70, 0
12, 23760, Note_on_c, 10, 70, 68
12, 24479, Note_on_c, 10, 70, 0
12, 24480, Note_on_c, 10, 70, 68
12, 24719, Note_on_c, 10, 70, 0
12, 24838, Control_c, 10, 11, 127
12, 24840, Note_on_c, 10, 62, 52
12, 25079, Note_on_c, 10, 62, 0
12, 25200, Note_on_c, 10, 62, 52
12, 25439, Note_on_c, 10, 62, 0
12, 25920, Note_on_c, 10, 77, 52
12, 26039, Note_on_c, 10, 77, 0
12, 26040, Note_on_c, 10, 74, 52
12, 26159, Note_on_c, 10, 74, 0
12, 26160, Note_on_c, 10, 70, 52
12, 26279, Note_on_c, 10, 70, 0
12, 26580, Note_on_c, 10, 79, 52
12, 26599, Note_on_c, 10, 79, 0
12, 26600, Note_on_c, 10, 77, 52
12, 26619, Note_on_c, 10, 77, 0
12, 26620, Note_on_c, 10, 76, 52
12, 26639, Note_on_c, 10, 76, 0
12, 26640, Note_on_c, 10, 77, 52
12, 26759, Note_on_c, 10, 77, 0
12, 26760, Note_on_c, 10, 74, 52
12, 26879, Note_on_c, 10, 74, 0
12, 26880, Note_on_c, 10, 82, 52
12, 26999, Note_on_c, 10, 82, 0
12, 28440, Note_on_c, 10, 65, 44
12, 28493, Note_on_c, 10, 65, 0
12, 28500, Note_on_c, 10, 65, 44
12, 28553, Note_on_c, 10, 65, 0
12, 28560, Note_on_c, 10, 65, 44
12, 28613, Note_on_c, 10, 65, 0
12, 28620, Note_on_c, 10, 65, 44
12, 28673, Note_on_c, 10, 65, 0
12, 28680, Note_on_c, 10, 65, 44
12, 28733, Note_on_c, 10, 65, 0
12, 28740, Note_on_c, 10, 65, 44
12, 28793, Note_on_c, 10, 65, 0
12, 28800, Note_on_c, 10, 70, 52
12, 29159, Note_on_c, 10, 70, 0
12, 30000, Note_on_c, 10, 70, 52
12, 30059, Note_on_c, 10, 70, 0
12, 30060, Note_on_c, 10, 72, 52
12, 30119, Note_on_c, 10, 72, 0
12, 30120, Note_on_c, 10, 74, 52
12, 30179, Note_on_c, 10, 74, 0
12, 30180, Note_on_c, 10, 72, 52
12, 30233, Note_on_c, 10, 72, 0
12, 30240, Note_on_c, 10, 72, 52
12, 30359, Note_on_c, 10, 72, 0
12, 30360, Note_on_c, 10, 70, 52
12, 30599, Note_on_c, 10, 70, 0
12, 31440, Note_on_c, 10, 79, 52
12, 31499, Note_on_c, 10, 79, 0
12, 31500, Note_on_c, 10, 81, 52
12, 31559, Note_on_c, 10, 81, 0
12, 31560, Note_on_c, 10, 82, 52
12, 31619, Note_on_c, 10, 82, 0
12, 31620, Note_on_c, 10, 81, 52
12, 31673, Note_on_c, 10, 81, 0
12, 31680, Note_on_c, 10, 81, 52
12, 31799, Note_on_c, 10, 81, 0
12, 31800, Note_on_c, 10, 79, 52
12, 32279, Note_on_c, 10, 79, 0
12, 32880, Note_on_c, 10, 79, 52
12, 32939, Note_on_c, 10, 79, 0
12, 32940, Note_on_c, 10, 81, 52
12, 32999, Note_on_c, 10, 81, 0
12, 33000, Note_on_c, 10, 82, 52
12, 33059, Note_on_c, 10, 82, 0
12, 33060, Note_on_c, 10, 81, 52
12, 33113, Note_on_c, 10, 81, 0
12, 33120, Note_on_c, 10, 81, 52
12, 33239, Note_on_c, 10, 81, 0
12, 33240, Note_on_c, 10, 79, 52
12, 33719, Note_on_c, 10, 79, 0
12, 34320, Note_on_c, 10, 79, 52
12, 34439, Note_on_c, 10, 79, 0
12, 34440, Note_on_c, 10, 81, 52
12, 34499, Note_on_c, 10, 81, 0
12, 34500, Note_on_c, 10, 82, 52
12, 34553, Note_on_c, 10, 82, 0
12, 34560, Note_on_c, 10, 84, 52
12, 34799, Note_on_c, 10, 84, 0
12, 35760, Note_on_c, 10, 72, 52
12, 35879, Note_on_c, 10, 72, 0
12, 35880, Note_on_c, 10, 74, 52
12, 35939, Note_on_c, 10, 74, 0
12, 35940, Note_on_c, 10, 76, 52
12, 35993, Note_on_c, 10, 76, 0
12, 36000, Note_on_c, 10, 77, 52
12, 36239, Note_on_c, 10, 77, 0
12, 37200, Note_on_c, 10, 79, 52
12, 37319, Note_on_c, 10, 79, 0
12, 37320, Note_on_c, 10, 81, 52
12, 37379, Note_on_c, 10, 81, 0
12, 37380, Note_on_c, 10, 83, 52
12, 37433, Note_on_c, 10, 83, 0
12, 37440, Note_on_c, 10, 84, 52
12, 37909, Note_on_c, 10, 84, 0
12, 37920, Note_on_c, 10, 84, 52
12, 37979, Note_on_c, 10, 84, 0
12, 37980, Note_on_c, 10, 82, 52
12, 38039, Note_on_c, 10, 82, 0
12, 38040, Note_on_c, 10, 79, 52
12, 38099, Note_on_c, 10, 79, 0
12, 38100, Note_on_c, 10, 76, 52
12, 38153, Note_on_c, 10, 76, 0
12, 38160, Note_on_c, 10, 79, 52
12, 38399, Note_on_c, 10, 79, 0
12, 38400, Note_on_c, 10, 77, 52
12, 38629, Note_on_c, 10, 77, 0
12, 38640, Note_on_c, 10, 77, 52
12, 38699, Note_on_c, 10, 77, 0
12, 38700, Note_on_c, 10, 72, 52
12, 38759, Note_on_c, 10, 72, 0
12, 38760, Note_on_c, 10, 69, 52
12, 38819, Note_on_c, 10, 69, 0
12, 38820, Note_on_c, 10, 65, 52
12, 38834, Note_on_c, 10, 65, 0
12, 38835, Note_on_c, 10, 64, 52
12, 38849, Note_on_c, 10, 64, 0
12, 38850, Note_on_c, 10, 65, 52
12, 38864, Note_on_c, 10, 65, 0
12, 38865, Note_on_c, 10, 67, 52
12, 38879, Note_on_c, 10, 67, 0
12, 38880, Note_on_c, 10, 65, 52
12, 39119, Note_on_c, 10, 65, 0
12, 39120, Note_on_c, 10, 64, 52
12, 39349, Note_on_c, 10, 64, 0
12, 39360, Note_on_c, 10, 64, 52
12, 39419, Note_on_c, 10, 64, 0
12, 39420, Note_on_c, 10, 67, 52
12, 39479, Note_on_c, 10, 67, 0
12, 39480, Note_on_c, 10, 72, 52
12, 39539, Note_on_c, 10, 72, 0
12, 39540, Note_on_c, 10, 76, 52
12, 39593, Note_on_c, 10, 76, 0
12, 39600, Note_on_c, 10, 79, 52
12, 39839, Note_on_c, 10, 79, 0
12, 39840, Note_on_c, 10, 77, 52
12, 40049, Note_on_c, 10, 77, 0
12, 40060, Note_on_c, 10, 79, 52
12, 40079, Note_on_c, 10, 79, 0
12, 40080, Note_on_c, 10, 77, 52
12, 40139, Note_on_c, 10, 77, 0
12, 40140, Note_on_c, 10, 76, 52
12, 40199, Note_on_c, 10, 76, 0
12, 40200, Note_on_c, 10, 77, 52
12, 40259, Note_on_c, 10, 77, 0
12, 40260, Note_on_c, 10, 81, 52
12, 40313, Note_on_c, 10, 81, 0
12, 40320, Note_on_c, 10, 84, 52
12, 40379, Note_on_c, 10, 84, 0
12, 40380, Note_on_c, 10, 79, 53
12, 40439, Note_on_c, 10, 79, 0
12, 40440, Note_on_c, 10, 76, 54
12, 40499, Note_on_c, 10, 76, 0
12, 40500, Note_on_c, 10, 72, 56
12, 40559, Note_on_c, 10, 72, 0
12, 40560, Note_on_c, 10, 84, 57
12, 40619, Note_on_c, 10, 84, 0
12, 40620, Note_on_c, 10, 79, 58
12, 40679, Note_on_c, 10, 79, 0
12, 40680, Note_on_c, 10, 76, 60
12, 40739, Note_on_c, 10, 76, 0
12, 40740, Note_on_c, 10, 72, 61
12, 40799, Note_on_c, 10, 72, 0
12, 40800, Note_on_c, 10, 84, 62
12, 40859, Note_on_c, 10, 84, 0
12, 40860, Note_on_c, 10, 79, 64
12, 40919, Note_on_c, 10, 79, 0
12, 40920, Note_on_c, 10, 76, 65
12, 40979, Note_on_c, 10, 76, 0
12, 40980, Note_on_c, 10, 72, 66
12, 41039, Note_on_c, 10, 72, 0
12, 41040, Note_on_c, 10, 82, 68
12, 41099, Note_on_c, 10, 82, 0
12, 41100, Note_on_c, 10, 79, 67
12, 41159, Note_on_c, 10, 79, 0
12, 41160, Note_on_c, 10, 76, 66
12, 41219, Note_on_c, 10, 76, 0
12, 41220, Note_on_c, 10, 72, 64
12, 41279, Note_on_c, 10, 72, 0
12, 41280, Note_on_c, 10, 82, 63
12, 41339, Note_on_c, 10, 82, 0
12, 41340, Note_on_c, 10, 79, 62
12, 41399, Note_on_c, 10, 79, 0
12, 41400, Note_on_c, 10, 76, 60
12, 41459, Note_on_c, 10, 76, 0
12, 41460, Note_on_c, 10, 72, 59
12, 41519, Note_on_c, 10, 72, 0
12, 41520, Note_on_c, 10, 70, 58
12, 41579, Note_on_c, 10, 70, 0
12, 41580, Note_on_c, 10, 67, 56
12, 41639, Note_on_c, 10, 67, 0
12, 41640, Note_on_c, 10, 64, 55
12, 41699, Note_on_c, 10, 64, 0
12, 41700, Note_on_c, 10, 58, 54
12, 41753, Note_on_c, 10, 58, 0
12, 41760, Note_on_c, 10, 57, 52
12, 41804, Note_on_c, 10, 57, 0
12, 41820, Note_on_c, 10, 60, 52
12, 41864, Note_on_c, 10, 60, 0
12, 41880, Note_on_c, 10, 65, 52
12, 41924, Note_on_c, 10, 65, 0
12, 41940, Note_on_c, 10, 60, 52
12, 41984, Note_on_c, 10, 60, 0
12, 42000, Note_on_c, 10, 57, 52
12, 42044, Note_on_c, 10, 57, 0
12, 42060, Note_on_c, 10, 60, 52
12, 42104, Note_on_c, 10, 60, 0
12, 42120, Note_on_c, 10, 58, 52
12, 42164, Note_on_c, 10, 58, 0
12, 42180, Note_on_c, 10, 62, 52
12, 42224, Note_on_c, 10, 62, 0
12, 42240, Note_on_c, 10, 67, 52
12, 42284, Note_on_c, 10, 67, 0
12, 42300, Note_on_c, 10, 62, 52
12, 42344, Note_on_c, 10, 62, 0
12, 42360, Note_on_c, 10, 58, 52
12, 42404, Note_on_c, 10, 58, 0
12, 42420, Note_on_c, 10, 62, 52
12, 42464, Note_on_c, 10, 62, 0
12, 42480, Note_on_c, 10, 60, 52
12, 42524, Note_on_c, 10, 60, 0
12, 42540, Note_on_c, 10, 65, 52
12, 42584, Note_on_c, 10, 65, 0
12, 42600, Note_on_c, 10, 69, 52
12, 42644, Note_on_c, 10, 69, 0
12, 42660, Note_on_c, 10, 65, 52
12, 42704, Note_on_c, 10, 65, 0
12, 42720, Note_on_c, 10, 60, 52
12, 42764, Note_on_c, 10, 60, 0
12, 42780, Note_on_c, 10, 65, 52
12, 42824, Note_on_c, 10, 65, 0
12, 42840, Note_on_c, 10, 60, 52
12, 42884, Note_on_c, 10, 60, 0
12, 42900, Note_on_c, 10, 64, 52
12, 42944, Note_on_c, 10, 64, 0
12, 42960, Note_on_c, 10, 67, 52
12, 43004, Note_on_c, 10, 67, 0
12, 43020, Note_on_c, 10, 72, 52
12, 43064, Note_on_c, 10, 72, 0
12, 43080, Note_on_c, 10, 76, 52
12, 43124, Note_on_c, 10, 76, 0
12, 43140, Note_on_c, 10, 79, 52
12, 43184, Note_on_c, 10, 79, 0
12, 43200, Note_on_c, 10, 84, 52
12, 43259, Note_on_c, 10, 84, 0
12, 43260, Note_on_c, 10, 79, 53
12, 43319, Note_on_c, 10, 79, 0
12, 43320, Note_on_c, 10, 76, 54
12, 43379, Note_on_c, 10, 76, 0
12, 43380, Note_on_c, 10, 72, 56
12, 43439, Note_on_c, 10, 72, 0
12, 43440, Note_on_c, 10, 84, 57
12, 43499, Note_on_c, 10, 84, 0
12, 43500, Note_on_c, 10, 79, 58
12, 43559, Note_on_c, 10, 79, 0
12, 43560, Note_on_c, 10, 76, 60
12, 43619, Note_on_c, 10, 76, 0
12, 43620, Note_on_c, 10, 72, 61
12, 43679, Note_on_c, 10, 72, 0
12, 43680, Note_on_c, 10, 84, 62
12, 43739, Note_on_c, 10, 84, 0
12, 43740, Note_on_c, 10, 79, 64
12, 43799, Note_on_c, 10, 79, 0
12, 43800, Note_on_c, 10, 76, 65
12, 43859, Note_on_c, 10, 76, 0
12, 43860, Note_on_c, 10, 72, 66
12, 43919, Note_on_c, 10, 72, 0
12, 43920, Note_on_c, 10, 84, 68
12, 43979, Note_on_c, 10, 84, 0
12, 43980, Note_on_c, 10, 79, 67
12, 44039, Note_on_c, 10, 79, 0
12, 44040, Note_on_c, 10, 76, 66
12, 44099, Note_on_c, 10, 76, 0
12, 44100, Note_on_c, 10, 72, 64
12, 44159, Note_on_c, 10, 72, 0
12, 44160, Note_on_c, 10, 84, 63
12, 44219, Note_on_c, 10, 84, 0
12, 44220, Note_on_c, 10, 79, 62
12, 44279, Note_on_c, 10, 79, 0
12, 44280, Note_on_c, 10, 76, 60
12, 44339, Note_on_c, 10, 76, 0
12, 44340, Note_on_c, 10, 72, 59
12, 44399, Note_on_c, 10, 72, 0
12, 44400, Note_on_c, 10, 84, 58
12, 44459, Note_on_c, 10, 84, 0
12, 44460, Note_on_c, 10, 79, 56
12, 44519, Note_on_c, 10, 79, 0
12, 44520, Note_on_c, 10, 76, 55
12, 44579, Note_on_c, 10, 76, 0
12, 44580, Note_on_c, 10, 72, 54
12, 44633, Note_on_c, 10, 72, 0
12, 44640, Note_on_c, 10, 84, 52
12, 44699, Note_on_c, 10, 84, 0
12, 44700, Note_on_c, 10, 81, 52
12, 44759, Note_on_c, 10, 81, 0
12, 44760, Note_on_c, 10, 77, 52
12, 44819, Note_on_c, 10, 77, 0
12, 44820, Note_on_c, 10, 72, 52
12, 44879, Note_on_c, 10, 72, 0
12, 44880, Note_on_c, 10, 69, 52
12, 44939, Note_on_c, 10, 69, 0
12, 44940, Note_on_c, 10, 65, 52
12, 44993, Note_on_c, 10, 65, 0
12, 45000, Note_on_c, 10, 62, 52
12, 45044, Note_on_c, 10, 62, 0
12, 45060, Note_on_c, 10, 67, 52
12, 45104, Note_on_c, 10, 67, 0
12, 45120, Note_on_c, 10, 70, 52
12, 45164, Note_on_c, 10, 70, 0
12, 45180, Note_on_c, 10, 67, 52
12, 45224, Note_on_c, 10, 67, 0
12, 45240, Note_on_c, 10, 62, 52
12, 45284, Note_on_c, 10, 62, 0
12, 45300, Note_on_c, 10, 67, 52
12, 45344, Note_on_c, 10, 67, 0
12, 45360, Note_on_c, 10, 60, 52
12, 45404, Note_on_c, 10, 60, 0
12, 45420, Note_on_c, 10, 65, 52
12, 45464, Note_on_c, 10, 65, 0
12, 45480, Note_on_c, 10, 69, 52
12, 45524, Note_on_c, 10, 69, 0
12, 45540, Note_on_c, 10, 65, 52
12, 45584, Note_on_c, 10, 65, 0
12, 45600, Note_on_c, 10, 60, 52
12, 45644, Note_on_c, 10, 60, 0
12, 45660, Note_on_c, 10, 65, 52
12, 45704, Note_on_c, 10, 65, 0
12, 45720, Note_on_c, 10, 60, 52
12, 45764, Note_on_c, 10, 60, 0
12, 45780, Note_on_c, 10, 64, 52
12, 45824, Note_on_c, 10, 64, 0
12, 45840, Note_on_c, 10, 67, 52
12, 45884, Note_on_c, 10, 67, 0
12, 45900, Note_on_c, 10, 64, 52
12, 45944, Note_on_c, 10, 64, 0
12, 45960, Note_on_c, 10, 60, 52
12, 46004, Note_on_c, 10, 60, 0
12, 46020, Note_on_c, 10, 64, 52
12, 46064, Note_on_c, 10, 64, 0
12, 46080, Note_on_c, 10, 61, 52
12, 46124, Note_on_c, 10, 61, 0
12, 46140, Note_on_c, 10, 64, 52
12, 46184, Note_on_c, 10, 64, 0
12, 46200, Note_on_c, 10, 69, 52
12, 46244, Note_on_c, 10, 69, 0
12, 46260, Note_on_c, 10, 64, 52
12, 46304, Note_on_c, 10, 64, 0
12, 46320, Note_on_c, 10, 61, 52
12, 46364, Note_on_c, 10, 61, 0
12, 46380, Note_on_c, 10, 64, 52
12, 46424, Note_on_c, 10, 64, 0
12, 46440, Note_on_c, 10, 62, 52
12, 46484, Note_on_c, 10, 62, 0
12, 46500, Note_on_c, 10, 65, 52
12, 46544, Note_on_c, 10, 65, 0
12, 46560, Note_on_c, 10, 69, 52
12, 46604, Note_on_c, 10, 69, 0
12, 46620, Note_on_c, 10, 65, 52
12, 46664, Note_on_c, 10, 65, 0
12, 46680, Note_on_c, 10, 62, 52
12, 46724, Note_on_c, 10, 62, 0
12, 46740, Note_on_c, 10, 65, 52
12, 46784, Note_on_c, 10, 65, 0
12, 46800, Note_on_c, 10, 62, 52
12, 46844, Note_on_c, 10, 62, 0
12, 46860, Note_on_c, 10, 65, 52
12, 46904, Note_on_c, 10, 65, 0
12, 46920, Note_on_c, 10, 67, 52
12, 46964, Note_on_c, 10, 67, 0
12, 46980, Note_on_c, 10, 65, 52
12, 47024, Note_on_c, 10, 65, 0
12, 47040, Note_on_c, 10, 62, 52
12, 47084, Note_on_c, 10, 62, 0
12, 47100, Note_on_c, 10, 65, 52
12, 47144, Note_on_c, 10, 65, 0
12, 47160, Note_on_c, 10, 60, 52
12, 47204, Note_on_c, 10, 60, 0
12, 47220, Note_on_c, 10, 64, 52
12, 47264, Note_on_c, 10, 64, 0
12, 47280, Note_on_c, 10, 67, 52
12, 47324, Note_on_c, 10, 67, 0
12, 47340, Note_on_c, 10, 64, 52
12, 47384, Note_on_c, 10, 64, 0
12, 47400, Note_on_c, 10, 60, 52
12, 47444, Note_on_c, 10, 60, 0
12, 47460, Note_on_c, 10, 64, 52
12, 47504, Note_on_c, 10, 64, 0
12, 47520, Note_on_c, 10, 61, 52
12, 47564, Note_on_c, 10, 61, 0
12, 47580, Note_on_c, 10, 64, 52
12, 47624, Note_on_c, 10, 64, 0
12, 47640, Note_on_c, 10, 69, 52
12, 47684, Note_on_c, 10, 69, 0
12, 47700, Note_on_c, 10, 64, 52
12, 47744, Note_on_c, 10, 64, 0
12, 47760, Note_on_c, 10, 61, 52
12, 47804, Note_on_c, 10, 61, 0
12, 47820, Note_on_c, 10, 64, 52
12, 47864, Note_on_c, 10, 64, 0
12, 47880, Note_on_c, 10, 62, 52
12, 47924, Note_on_c, 10, 62, 0
12, 47940, Note_on_c, 10, 65, 52
12, 47984, Note_on_c, 10, 65, 0
12, 48000, Note_on_c, 10, 69, 52
12, 48044, Note_on_c, 10, 69, 0
12, 48060, Note_on_c, 10, 65, 52
12, 48104, Note_on_c, 10, 65, 0
12, 48120, Note_on_c, 10, 62, 52
12, 48164, Note_on_c, 10, 62, 0
12, 48180, Note_on_c, 10, 65, 52
12, 48224, Note_on_c, 10, 65, 0
12, 48240, Note_on_c, 10, 62, 52
12, 48284, Note_on_c, 10, 62, 0
12, 48300, Note_on_c, 10, 65, 52
12, 48344, Note_on_c, 10, 65, 0
12, 48360, Note_on_c, 10, 67, 52
12, 48404, Note_on_c, 10, 67, 0
12, 48420, Note_on_c, 10, 65, 52
12, 48464, Note_on_c, 10, 65, 0
12, 48480, Note_on_c, 10, 62, 52
12, 48524, Note_on_c, 10, 62, 0
12, 48540, Note_on_c, 10, 65, 52
12, 48584, Note_on_c, 10, 65, 0
12, 48600, Note_on_c, 10, 60, 52
12, 48644, Note_on_c, 10, 60, 0
12, 48660, Note_on_c, 10, 64, 52
12, 48704, Note_on_c, 10, 64, 0
12, 48720, Note_on_c, 10, 67, 52
12, 48764, Note_on_c, 10, 67, 0
12, 48780, Note_on_c, 10, 64, 52
12, 48824, Note_on_c, 10, 64, 0
12, 48840, Note_on_c, 10, 60, 52
12, 48884, Note_on_c, 10, 60, 0
12, 48900, Note_on_c, 10, 64, 52
12, 48944, Note_on_c, 10, 64, 0
12, 48960, Note_on_c, 10, 61, 52
12, 49004, Note_on_c, 10, 61, 0
12, 49020, Note_on_c, 10, 64, 52
12, 49064, Note_on_c, 10, 64, 0
12, 49080, Note_on_c, 10, 69, 52
12, 49124, Note_on_c, 10, 69, 0
12, 49140, Note_on_c, 10, 64, 52
12, 49184, Note_on_c, 10, 64, 0
12, 49200, Note_on_c, 10, 61, 52
12, 49244, Note_on_c, 10, 61, 0
12, 49260, Note_on_c, 10, 64, 52
12, 49304, Note_on_c, 10, 64, 0
12, 49320, Note_on_c, 10, 62, 52
12, 49364, Note_on_c, 10, 62, 0
12, 49380, Note_on_c, 10, 65, 52
12, 49424, Note_on_c, 10, 65, 0
12, 49440, Note_on_c, 10, 69, 52
12, 49484, Note_on_c, 10, 69, 0
12, 49500, Note_on_c, 10, 65, 52
12, 49544, Note_on_c, 10, 65, 0
12, 49560, Note_on_c, 10, 62, 52
12, 49604, Note_on_c, 10, 62, 0
12, 49620, Note_on_c, 10, 65, 52
12, 49664, Note_on_c, 10, 65, 0
12, 49680, Note_on_c, 10, 62, 52
12, 49724, Note_on_c, 10, 62, 0
12, 49740, Note_on_c, 10, 65, 52
12, 49784, Note_on_c, 10, 65, 0
12, 49800, Note_on_c, 10, 67, 52
12, 49844, Note_on_c, 10, 67, 0
12, 49860, Note_on_c, 10, 65, 52
12, 49904, Note_on_c, 10, 65, 0
12, 49920, Note_on_c, 10, 62, 52
12, 49964, Note_on_c, 10, 62, 0
12, 49980, Note_on_c, 10, 65, 52
12, 50024, Note_on_c, 10, 65, 0
12, 50040, Note_on_c, 10, 60, 52
12, 50084, Note_on_c, 10, 60, 0
12, 50100, Note_on_c, 10, 64, 52
12, 50144, Note_on_c, 10, 64, 0
12, 50160, Note_on_c, 10, 67, 53
12, 50204, Note_on_c, 10, 67, 0
12, 50220, Note_on_c, 10, 64, 53
12, 50264, Note_on_c, 10, 64, 0
12, 50280, Note_on_c, 10, 60, 54
12, 50324, Note_on_c, 10, 60, 0
12, 50340, Note_on_c, 10, 64, 54
12, 50384, Note_on_c, 10, 64, 0
12, 50400, Note_on_c, 10, 60, 55
12, 50444, Note_on_c, 10, 60, 0
12, 50460, Note_on_c, 10, 65, 55
12, 50504, Note_on_c, 10, 65, 0
12, 50520, Note_on_c, 10, 69, 56
12, 50564, Note_on_c, 10, 69, 0
12, 50580, Note_on_c, 10, 65, 56
12, 50624, Note_on_c, 10, 65, 0
12, 50640, Note_on_c, 10, 60, 57
12, 50684, Note_on_c, 10, 60, 0
12, 50700, Note_on_c, 10, 65, 57
12, 50744, Note_on_c, 10, 65, 0
12, 50760, Note_on_c, 10, 60, 58
12, 50804, Note_on_c, 10, 60, 0
12, 50820, Note_on_c, 10, 67, 58
12, 50864, Note_on_c, 10, 67, 0
12, 50880, Note_on_c, 10, 70, 59
12, 50924, Note_on_c, 10, 70, 0
12, 50940, Note_on_c, 10, 67, 59
12, 50984, Note_on_c, 10, 67, 0
12, 51000, Note_on_c, 10, 60, 60
12, 51044, Note_on_c, 10, 60, 0
12, 51060, Note_on_c, 10, 67, 60
12, 51104, Note_on_c, 10, 67, 0
12, 51120, Note_on_c, 10, 60, 61
12, 51164, Note_on_c, 10, 60, 0
12, 51180, Note_on_c, 10, 65, 61
12, 51224, Note_on_c, 10, 65, 0
12, 51240, Note_on_c, 10, 69, 62
12, 51284, Note_on_c, 10, 69, 0
12, 51300, Note_on_c, 10, 65, 62
12, 51344, Note_on_c, 10, 65, 0
12, 51360, Note_on_c, 10, 60, 63
12, 51404, Note_on_c, 10, 60, 0
12, 51420, Note_on_c, 10, 65, 63
12, 51464, Note_on_c, 10, 65, 0
12, 51480, Note_on_c, 10, 60, 64
12, 51524, Note_on_c, 10, 60, 0
12, 51540, Note_on_c, 10, 64, 64
12, 51584, Note_on_c, 10, 64, 0
12, 51600, Note_on_c, 10, 67, 65
12, 51644, Note_on_c, 10, 67, 0
12, 51660, Note_on_c, 10, 64, 65
12, 51704, Note_on_c, 10, 64, 0
12, 51720, Note_on_c, 10, 60, 66
12, 51764, Note_on_c, 10, 60, 0
12, 51780, Note_on_c, 10, 64, 66
12, 51824, Note_on_c, 10, 64, 0
12, 51840, Note_on_c, 10, 60, 67
12, 51884, Note_on_c, 10, 60, 0
12, 51900, Note_on_c, 10, 65, 67
12, 51944, Note_on_c, 10, 65, 0
12, 51960, Note_on_c, 10, 69, 68
12, 52004, Note_on_c, 10, 69, 0
12, 52020, Note_on_c, 10, 65, 68
12, 52064, Note_on_c, 10, 65, 0
12, 52080, Note_on_c, 10, 60, 69
12, 52124, Note_on_c, 10, 60, 0
12, 52140, Note_on_c, 10, 65, 69
12, 52184, Note_on_c, 10, 65, 0
12, 52200, Note_on_c, 10, 60, 70
12, 52244, Note_on_c, 10, 60, 0
12, 52260, Note_on_c, 10, 67, 70
12, 52304, Note_on_c, 10, 67, 0
12, 52320, Note_on_c, 10, 70, 71
12, 52364, Note_on_c, 10, 70, 0
12, 52380, Note_on_c, 10, 67, 71
12, 52424, Note_on_c, 10, 67, 0
12, 52440, Note_on_c, 10, 60, 72
12, 52484, Note_on_c, 10, 60, 0
12, 52500, Note_on_c, 10, 67, 72
12, 52544, Note_on_c, 10, 67, 0
12, 52560, Note_on_c, 10, 60, 73
12, 52604, Note_on_c, 10, 60, 0
12, 52620, Note_on_c, 10, 65, 73
12, 52664, Note_on_c, 10, 65, 0
12, 52680, Note_on_c, 10, 69, 74
12, 52724, Note_on_c, 10, 69, 0
12, 52740, Note_on_c, 10, 72, 74
12, 52784, Note_on_c, 10, 72, 0
12, 52800, Note_on_c, 10, 77, 75
12, 52844, Note_on_c, 10, 77, 0
12, 52860, Note_on_c, 10, 81, 75
12, 52904, Note_on_c, 10, 81, 0
12, 52920, Note_on_c, 10, 84, 76
12, 53159, Note_on_c, 10, 84, 0
12, 53160, Note_on_c, 10, 79, 76
12, 53269, Note_on_c, 10, 79, 0
12, 53280, Note_on_c, 10, 81, 76
12, 53519, Note_on_c, 10, 81, 0
12, 53520, Note_on_c, 10, 77, 76
12, 53639, Note_on_c, 10, 77, 0
12, 53640, Note_on_c, 10, 72, 76
12, 53759, Note_on_c, 10, 72, 0
12, 53760, Note_on_c, 10, 77, 76
12, 53879, Note_on_c, 10, 77, 0
12, 53880, Note_on_c, 10, 81, 76
12, 53989, Note_on_c, 10, 81, 0
12, 54000, Note_on_c, 10, 84, 76
12, 54239, Note_on_c, 10, 84, 0
12, 54240, Note_on_c, 10, 81, 76
12, 54359, Note_on_c, 10, 81, 0
12, 54360, Note_on_c, 10, 77, 76
12, 54479, Note_on_c, 10, 77, 0
12, 54480, Note_on_c, 10, 81, 76
12, 54599, Note_on_c, 10, 81, 0
12, 54600, Note_on_c, 10, 84, 76
12, 54709, Note_on_c, 10, 84, 0
12, 54720, Note_on_c, 10, 89, 76
12, 54839, Note_on_c, 10, 89, 0
12, 54840, Note_on_c, 10, 84, 74
12, 54949, Note_on_c, 10, 84, 0
12, 54960, Note_on_c, 10, 84, 72
12, 55079, Note_on_c, 10, 84, 0
12, 55080, Note_on_c, 10, 81, 70
12, 55189, Note_on_c, 10, 81, 0
12, 55200, Note_on_c, 10, 84, 68
12, 55319, Note_on_c, 10, 84, 0
12, 55320, Note_on_c, 10, 81, 66
12, 55429, Note_on_c, 10, 81, 0
12, 55440, Note_on_c, 10, 84, 64
12, 55559, Note_on_c, 10, 84, 0
12, 55560, Note_on_c, 10, 81, 62
12, 55669, Note_on_c, 10, 81, 0
12, 55680, Note_on_c, 10, 84, 60
12, 55799, Note_on_c, 10, 84, 0
12, 55800, Note_on_c, 10, 81, 58
12, 55909, Note_on_c, 10, 81, 0
12, 55920, Note_on_c, 10, 82, 56
12, 56039, Note_on_c, 10, 82, 0
12, 56040, Note_on_c, 10, 79, 54
12, 56149, Note_on_c, 10, 79, 0
12, 56160, Note_on_c, 10, 79, 52
12, 56189, Note_on_c, 10, 79, 0
12, 56190, Note_on_c, 10, 81, 52
12, 56219, Note_on_c, 10, 81, 0
12, 56220, Note_on_c, 10, 79, 52
12, 56249, Note_on_c, 10, 79, 0
12, 56250, Note_on_c, 10, 81, 52
12, 56279, Note_on_c, 10, 81, 0
12, 56280, Note_on_c, 10, 79, 52
12, 56309, Note_on_c, 10, 79, 0
12, 56310, Note_on_c, 10, 81, 52
12, 56339, Note_on_c, 10, 81, 0
12, 56340, Note_on_c, 10, 79, 51
12, 56369, Note_on_c, 10, 79, 0
12, 56370, Note_on_c, 10, 81, 51
12, 56399, Note_on_c, 10, 81, 0
12, 56400, Note_on_c, 10, 79, 51
12, 56429, Note_on_c, 10, 79, 0
12, 56430, Note_on_c, 10, 81, 51
12, 56459, Note_on_c, 10, 81, 0
12, 56460, Note_on_c, 10, 79, 51
12, 56489, Note_on_c, 10, 79, 0
12, 56490, Note_on_c, 10, 81, 51
12, 56519, Note_on_c, 10, 81, 0
12, 56520, Note_on_c, 10, 79, 50
12, 56549, Note_on_c, 10, 79, 0
12, 56550, Note_on_c, 10, 81, 50
12, 56579, Note_on_c, 10, 81, 0
12, 56580, Note_on_c, 10, 79, 50
12, 56609, Note_on_c, 10, 79, 0
12, 56610, Note_on_c, 10, 81, 50
12, 56639, Note_on_c, 10, 81, 0
12, 56640, Note_on_c, 10, 79, 50
12, 56669, Note_on_c, 10, 79, 0
12, 56670, Note_on_c, 10, 81, 50
12, 56699, Note_on_c, 10, 81, 0
12, 56700, Note_on_c, 10, 79, 49
12, 56729, Note_on_c, 10, 79, 0
12, 56730, Note_on_c, 10, 81, 49
12, 56759, Note_on_c, 10, 81, 0
12, 56760, Note_on_c, 10, 79, 49
12, 56789, Note_on_c, 10, 79, 0
12, 56790, Note_on_c, 10, 81, 49
12, 56819, Note_on_c, 10, 81, 0
12, 56820, Note_on_c, 10, 79, 49
12, 56849, Note_on_c, 10, 79, 0
12, 56850, Note_on_c, 10, 81, 49
12, 56879, Note_on_c, 10, 81, 0
12, 56880, Note_on_c, 10, 79, 48
12, 56909, Note_on_c, 10, 79, 0
12, 56910, Note_on_c, 10, 81, 48
12, 56939, Note_on_c, 10, 81, 0
12, 56940, Note_on_c, 10, 79, 48
12, 56969, Note_on_c, 10, 79, 0
12, 56970, Note_on_c, 10, 81, 48
12, 56999, Note_on_c, 10, 81, 0
12, 57000, Note_on_c, 10, 79, 48
12, 57029, Note_on_c, 10, 79, 0
12, 57030, Note_on_c, 10, 81, 48
12, 57059, Note_on_c, 10, 81, 0
12, 57060, Note_on_c, 10, 79, 47
12, 57089, Note_on_c, 10, 79, 0
12, 57090, Note_on_c, 10, 81, 47
12, 57119, Note_on_c, 10, 81, 0
12, 57120, Note_on_c, 10, 79, 47
12, 57149, Note_on_c, 10, 79, 0
12, 57150, Note_on_c, 10, 81, 47
12, 57179, Note_on_c, 10, 81, 0
12, 57180, Note_on_c, 10, 79, 47
12, 57209, Note_on_c, 10, 79, 0
12, 57210, Note_on_c, 10, 81, 47
12, 57239, Note_on_c, 10, 81, 0
12, 57240, Note_on_c, 10, 79, 46
12, 57269, Note_on_c, 10, 79, 0
12, 57270, Note_on_c, 10, 81, 46
12, 57299, Note_on_c, 10, 81, 0
12, 57300, Note_on_c, 10, 79, 46
12, 57329, Note_on_c, 10, 79, 0
12, 57330, Note_on_c, 10, 81, 46
12, 57359, Note_on_c, 10, 81, 0
12, 57360, Note_on_c, 10, 79, 46
12, 57389, Note_on_c, 10, 79, 0
12, 57390, Note_on_c, 10, 81, 46
12, 57419, Note_on_c, 10, 81, 0
12, 57420, Note_on_c, 10, 79, 45
12, 57449, Note_on_c, 10, 79, 0
12, 57450, Note_on_c, 10, 81, 45
12, 57479, Note_on_c, 10, 81, 0
12, 57480, Note_on_c, 10, 79, 45
12, 57509, Note_on_c, 10, 79, 0
12, 57510, Note_on_c, 10, 81, 45
12, 57539, Note_on_c, 10, 81, 0
12, 57540, Note_on_c, 10, 77, 45
12, 57569, Note_on_c, 10, 77, 0
12, 57570, Note_on_c, 10, 79, 45
12, 57595, Note_on_c, 10, 79, 0
12, 57600, Note_on_c, 10, 81, 44
12, 58079, Note_on_c, 10, 81, 0
12, 58080, Note_on_c, 10, 79, 44
12, 58199, Note_on_c, 10, 79, 0
12, 58200, Note_on_c, 10, 81, 44
12, 58319, Note_on_c, 10, 81, 0
12, 58320, Note_on_c, 10, 83, 44
12, 58439, Note_on_c, 10, 83, 0
12, 58440, Note_on_c, 10, 81, 44
12, 58559, Note_on_c, 10, 81, 0
12, 58560, Note_on_c, 10, 83, 44
12, 58679, Note_on_c, 10, 83, 0
12, 58680, Note_on_c, 10, 84, 44
12, 58919, Note_on_c, 10, 84, 0
12, 58920, Note_on_c, 10, 79, 44
12, 59029, Note_on_c, 10, 79, 0
12, 59040, Note_on_c, 10, 81, 44
12, 59519, Note_on_c, 10, 81, 0
12, 59520, Note_on_c, 10, 79, 44
12, 59639, Note_on_c, 10, 79, 0
12, 59640, Note_on_c, 10, 81, 44
12, 59759, Note_on_c, 10, 81, 0
12, 59760, Note_on_c, 10, 83, 44
12, 59879, Note_on_c, 10, 83, 0
12, 59880, Note_on_c, 10, 81, 44
12, 59999, Note_on_c, 10, 81, 0
12, 60000, Note_on_c, 10, 83, 44
12, 60109, Note_on_c, 10, 83, 0
12, 60118, Control_c, 10, 11, 65
12, 60120, Note_on_c, 10, 84, 76
12, 60240, Control_c, 10, 11, 70
12, 60359, Note_on_c, 10, 84, 0
12, 60360, Note_on_c, 10, 79, 76
12, 60360, Control_c, 10, 11, 75
12, 60479, Note_on_c, 10, 79, 0
12, 60480, Note_on_c, 10, 81, 76
12, 60480, Control_c, 10, 11, 81
12, 60600, Control_c, 10, 11, 86
12, 60719, Note_on_c, 10, 81, 0
12, 60720, Note_on_c, 10, 77, 76
12, 60720, Control_c, 10, 11, 91
12, 60839, Note_on_c, 10, 77, 0
12, 60840, Control_c, 10, 11, 97
12, 60840, Note_on_c, 10, 72, 76
12, 60960, Control_c, 10, 11, 102
12, 61079, Note_on_c, 10, 72, 0
12, 61080, Control_c, 10, 11, 107
12, 61080, Note_on_c, 10, 76, 76
12, 61199, Note_on_c, 10, 76, 0
12, 61200, Note_on_c, 10, 77, 76
12, 61200, Control_c, 10, 11, 111
12, 61320, Control_c, 10, 11, 118
12, 61439, Note_on_c, 10, 77, 0
12, 61440, Note_on_c, 10, 81, 76
12, 61440, Control_c, 10, 11, 123
12, 61559, Note_on_c, 10, 81, 0
12, 61560, Note_on_c, 10, 84, 76
12, 61560, Control_c, 10, 11, 127
12, 61799, Note_on_c, 10, 84, 0
12, 61800, Note_on_c, 10, 79, 76
12, 61909, Note_on_c, 10, 79, 0
12, 61920, Note_on_c, 10, 81, 76
12, 62159, Note_on_c, 10, 81, 0
12, 62160, Note_on_c, 10, 77, 76
12, 62279, Note_on_c, 10, 77, 0
12, 62280, Note_on_c, 10, 72, 76
12, 62399, Note_on_c, 10, 72, 0
12, 62400, Note_on_c, 10, 77, 76
12, 62519, Note_on_c, 10, 77, 0
12, 62520, Note_on_c, 10, 81, 76
12, 62629, Note_on_c, 10, 81, 0
12, 62640, Note_on_c, 10, 84, 76
12, 62879, Note_on_c, 10, 84, 0
12, 62880, Note_on_c, 10, 81, 76
12, 62999, Note_on_c, 10, 81, 0
12, 63000, Note_on_c, 10, 77, 76
12, 63119, Note_on_c, 10, 77, 0
12, 63120, Note_on_c, 10, 81, 76
12, 63239, Note_on_c, 10, 81, 0
12, 63240, Note_on_c, 10, 84, 76
12, 63349, Note_on_c, 10, 84, 0
12, 63360, Note_on_c, 10, 89, 84
12, 63420, Control_c, 10, 11, 112
12, 63443, Control_c, 10, 11, 109
12, 63467, Control_c, 10, 11, 107
12, 63490, Control_c, 10, 11, 104
12, 63513, Control_c, 10, 11, 101
12, 63537, Control_c, 10, 11, 99
12, 63560, Control_c, 10, 11, 96
12, 63583, Control_c, 10, 11, 93
12, 63607, Control_c, 10, 11, 91
12, 63630, Control_c, 10, 11, 88
12, 63653, Control_c, 10, 11, 85
12, 63677, Control_c, 10, 11, 83
12, 63700, Control_c, 10, 11, 80
12, 63723, Control_c, 10, 11, 77
12, 63747, Control_c, 10, 11, 75
12, 63770, Control_c, 10, 11, 72
12, 63793, Control_c, 10, 11, 69
12, 63817, Control_c, 10, 11, 64
12, 63829, Note_on_c, 10, 89, 0
12, 63840, Note_on_c, 10, 84, 84
12, 63929, Note_on_c, 10, 84, 0
12, 63960, Note_on_c, 10, 81, 84
12, 64049, Note_on_c, 10, 81, 0
12, 64080, Note_on_c, 10, 84, 84
12, 64169, Note_on_c, 10, 84, 0
12, 64200, Note_on_c, 10, 81, 84
12, 64289, Note_on_c, 10, 81, 0
12, 64320, Note_on_c, 10, 77, 84
12, 64409, Note_on_c, 10, 77, 0
12, 64440, Note_on_c, 10, 72, 84
12, 64529, Note_on_c, 10, 72, 0
12, 64560, Note_on_c, 10, 77, 84
12, 64649, Note_on_c, 10, 77, 0
12, 64680, Note_on_c, 10, 81, 84
12, 64769, Note_on_c, 10, 81, 0
12, 64800, Note_on_c, 10, 77, 84
12, 64889, Note_on_c, 10, 77, 0
12, 64920, Note_on_c, 10, 72, 84
12, 65009, Note_on_c, 10, 72, 0
12, 65040, Note_on_c, 10, 69, 84
12, 65129, Note_on_c, 10, 69, 0
12, 65160, Note_on_c, 10, 65, 84
12, 65249, Note_on_c, 10, 65, 0
12, 65280, Note_on_c, 10, 69, 84
12, 65369, Note_on_c, 10, 69, 0
12, 65400, Note_on_c, 10, 72, 84
12, 65489, Note_on_c, 10, 72, 0
12, 65520, Note_on_c, 10, 77, 84
12, 65609, Note_on_c, 10, 77, 0
12, 65640, Note_on_c, 10, 81, 84
12, 65729, Note_on_c, 10, 81, 0
12, 65760, Note_on_c, 10, 84, 84
12, 65849, Note_on_c, 10, 84, 0
12, 65880, Note_on_c, 10, 89, 84
12, 65969, Note_on_c, 10, 89, 0
12, 66000, Note_on_c, 10, 65, 84
12, 66089, Note_on_c, 10, 65, 0
12, 66120, Note_on_c, 10, 70, 84
12, 66209, Note_on_c, 10, 70, 0
12, 66240, Note_on_c, 10, 67, 84
12, 66269, Note_on_c, 10, 67, 0
12, 66270, Note_on_c, 10, 69, 84
12, 66299, Note_on_c, 10, 69, 0
12, 66300, Note_on_c, 10, 67, 84
12, 66329, Note_on_c, 10, 67, 0
12, 66330, Note_on_c, 10, 69, 84
12, 66359, Note_on_c, 10, 69, 0
12, 66360, Note_on_c, 10, 67, 84
12, 66389, Note_on_c, 10, 67, 0
12, 66390, Note_on_c, 10, 69, 84
12, 66419, Note_on_c, 10, 69, 0
12, 66420, Note_on_c, 10, 67, 84
12, 66449, Note_on_c, 10, 67, 0
12, 66450, Note_on_c, 10, 69, 84
12, 66479, Note_on_c, 10, 69, 0
12, 66480, Note_on_c, 10, 67, 84
12, 66509, Note_on_c, 10, 67, 0
12, 66510, Note_on_c, 10, 69, 84
12, 66539, Note_on_c, 10, 69, 0
12, 66540, Note_on_c, 10, 67, 84
12, 66569, Note_on_c, 10, 67, 0
12, 66570, Note_on_c, 10, 69, 84
12, 66599, Note_on_c, 10, 69, 0
12, 66600, Note_on_c, 10, 67, 84
12, 66629, Note_on_c, 10, 67, 0
12, 66630, Note_on_c, 10, 69, 84
12, 66659, Note_on_c, 10, 69, 0
12, 66660, Note_on_c, 10, 67, 84
12, 66689, Note_on_c, 10, 67, 0
12, 66690, Note_on_c, 10, 69, 84
12, 66719, Note_on_c, 10, 69, 0
12, 66720, Note_on_c, 10, 67, 84
12, 66749, Note_on_c, 10, 67, 0
12, 66750, Note_on_c, 10, 69, 84
12, 66779, Note_on_c, 10, 69, 0
12, 66780, Note_on_c, 10, 67, 84
12, 66809, Note_on_c, 10, 67, 0
12, 66810, Note_on_c, 10, 69, 84
12, 66839, Note_on_c, 10, 69, 0
12, 66840, Note_on_c, 10, 67, 84
12, 66869, Note_on_c, 10, 67, 0
12, 66870, Note_on_c, 10, 69, 84
12, 66899, Note_on_c, 10, 69, 0
12, 66900, Note_on_c, 10, 65, 84
12, 66929, Note_on_c, 10, 65, 0
12, 66930, Note_on_c, 10, 67, 84
12, 66955, Note_on_c, 10, 67, 0
12, 66958, Control_c, 10, 11, 81
12, 66960, Note_on_c, 10, 79, 76
12, 66989, Note_on_c, 10, 79, 0
12, 66990, Note_on_c, 10, 81, 76
12, 67019, Note_on_c, 10, 81, 0
12, 67020, Note_on_c, 10, 79, 76
12, 67049, Note_on_c, 10, 79, 0
12, 67050, Note_on_c, 10, 81, 76
12, 67053, Control_c, 10, 11, 82
12, 67079, Note_on_c, 10, 81, 0
12, 67080, Note_on_c, 10, 79, 76
12, 67109, Note_on_c, 10, 79, 0
12, 67110, Note_on_c, 10, 81, 76
12, 67139, Note_on_c, 10, 81, 0
12, 67140, Note_on_c, 10, 79, 76
12, 67146, Control_c, 10, 11, 83
12, 67169, Note_on_c, 10, 79, 0
12, 67170, Note_on_c, 10, 81, 76
12, 67199, Note_on_c, 10, 81, 0
12, 67200, Note_on_c, 10, 79, 76
12, 67229, Note_on_c, 10, 79, 0
12, 67230, Note_on_c, 10, 81, 76
12, 67239, Control_c, 10, 11, 84
12, 67259, Note_on_c, 10, 81, 0
12, 67260, Note_on_c, 10, 79, 76
12, 67289, Note_on_c, 10, 79, 0
12, 67290, Note_on_c, 10, 81, 76
12, 67319, Note_on_c, 10, 81, 0
12, 67320, Note_on_c, 10, 79, 76
12, 67332, Control_c, 10, 11, 85
12, 67349, Note_on_c, 10, 79, 0
12, 67350, Note_on_c, 10, 81, 76
12, 67379, Note_on_c, 10, 81, 0
12, 67380, Note_on_c, 10, 79, 76
12, 67409, Note_on_c, 10, 79, 0
12, 67410, Note_on_c, 10, 81, 76
12, 67425, Control_c, 10, 11, 86
12, 67439, Note_on_c, 10, 81, 0
12, 67440, Note_on_c, 10, 79, 76
12, 67469, Note_on_c, 10, 79, 0
12, 67470, Note_on_c, 10, 81, 76
12, 67499, Note_on_c, 10, 81, 0
12, 67500, Note_on_c, 10, 79, 76
12, 67517, Control_c, 10, 11, 87
12, 67529, Note_on_c, 10, 79, 0
12, 67530, Note_on_c, 10, 81, 76
12, 67559, Note_on_c, 10, 81, 0
12, 67560, Note_on_c, 10, 79, 76
12, 67589, Note_on_c, 10, 79, 0
12, 67590, Note_on_c, 10, 81, 76
12, 67610, Control_c, 10, 11, 88
12, 67619, Note_on_c, 10, 81, 0
12, 67620, Note_on_c, 10, 77, 76
12, 67649, Note_on_c, 10, 77, 0
12, 67650, Note_on_c, 10, 79, 76
12, 67675, Note_on_c, 10, 79, 0
12, 67680, Note_on_c, 10, 77, 76
12, 67703, Control_c, 10, 11, 89
12, 67796, Control_c, 10, 11, 90
12, 67889, Control_c, 10, 11, 91
12, 67919, Note_on_c, 10, 77, 0
12, 67982, Control_c, 10, 11, 92
12, 68075, Control_c, 10, 11, 93
12, 68168, Control_c, 10, 11, 94
12, 68261, Control_c, 10, 11, 95
12, 68280, Note_on_c, 10, 65, 76
12, 68354, Control_c, 10, 11, 96
12, 68369, Note_on_c, 10, 65, 0
12, 68380, Note_on_c, 10, 65, 76
12, 68399, Note_on_c, 10, 65, 0
12, 68400, Note_on_c, 10, 64, 76
12, 68446, Control_c, 10, 11, 97
12, 68519, Note_on_c, 10, 64, 0
12, 68520, Note_on_c, 10, 62, 76
12, 68539, Control_c, 10, 11, 98
12, 68632, Control_c, 10, 11, 99
12, 68639, Note_on_c, 10, 62, 0
12, 68640, Note_on_c, 10, 60, 76
12, 68725, Control_c, 10, 11, 100
12, 68749, Note_on_c, 10, 60, 0
12, 68760, Note_on_c, 10, 60, 76
12, 68818, Control_c, 10, 11, 101
12, 68879, Note_on_c, 10, 60, 0
12, 68880, Note_on_c, 10, 62, 76
12, 68911, Control_c, 10, 11, 102
12, 68999, Note_on_c, 10, 62, 0
12, 69000, Note_on_c, 10, 64, 76
12, 69004, Control_c, 10, 11, 103
12, 69097, Control_c, 10, 11, 104
12, 69109, Note_on_c, 10, 64, 0
12, 69120, Note_on_c, 10, 65, 76
12, 69190, Control_c, 10, 11, 105
12, 69283, Control_c, 10, 11, 106
12, 69375, Control_c, 10, 11, 107
12, 69468, Control_c, 10, 11, 108
12, 69561, Control_c, 10, 11, 109
12, 69599, Note_on_c, 10, 65, 0
12, 69600, Note_on_c, 10, 67, 76
12, 69654, Control_c, 10, 11, 110
12, 69719, Note_on_c, 10, 67, 0
12, 69720, Note_on_c, 10, 69, 76
12, 69747, Control_c, 10, 11, 111
12, 69809, Note_on_c, 10, 69, 0
12, 69820, Note_on_c, 10, 72, 76
12, 69839, Note_on_c, 10, 72, 0
12, 69840, Control_c, 10, 11, 112
12, 69840, Note_on_c, 10, 70, 76
12, 70079, Note_on_c, 10, 70, 0
12, 70080, Note_on_c, 10, 69, 76
12, 70199, Note_on_c, 10, 69, 0
12, 70200, Note_on_c, 10, 67, 76
12, 70230, Control_c, 10, 11, 110
12, 70260, Control_c, 10, 11, 107
12, 70290, Control_c, 10, 11, 105
12, 70320, Control_c, 10, 11, 102
12, 70350, Control_c, 10, 11, 99
12, 70380, Control_c, 10, 11, 97
12, 70410, Control_c, 10, 11, 94
12, 70439, Note_on_c, 10, 67, 0
12, 70440, Control_c, 10, 11, 91
12, 70440, Note_on_c, 10, 72, 76
12, 70470, Control_c, 10, 11, 89
12, 70500, Control_c, 10, 11, 86
12, 70530, Control_c, 10, 11, 83
12, 70549, Note_on_c, 10, 72, 0
12, 70560, Note_on_c, 10, 65, 76
12, 70799, Note_on_c, 10, 65, 0
12, 71520, Control_c, 10, 11, 127
12, 71640, Note_on_c, 10, 76, 52
12, 71699, Note_on_c, 10, 76, 0
12, 71700, Control_c, 10, 11, 126
12, 71700, Note_on_c, 10, 79, 52
12, 71730, Control_c, 10, 11, 123
12, 71759, Note_on_c, 10, 79, 0
12, 71760, Note_on_c, 10, 82, 52
12, 71760, Control_c, 10, 11, 123
12, 71790, Control_c, 10, 11, 122
12, 71819, Note_on_c, 10, 82, 0
12, 71820, Note_on_c, 10, 79, 52
12, 71820, Control_c, 10, 11, 121
12, 71850, Control_c, 10, 11, 119
12, 71879, Note_on_c, 10, 79, 0
12, 71880, Note_on_c, 10, 76, 52
12, 71880, Control_c, 10, 11, 118
12, 71910, Control_c, 10, 11, 117
12, 71939, Note_on_c, 10, 76, 0
12, 71940, Control_c, 10, 11, 115
12, 71940, Note_on_c, 10, 79, 52
12, 71970, Control_c, 10, 11, 114
12, 71993, Note_on_c, 10, 79, 0
12, 72000, Control_c, 10, 11, 127
12, 72000, Note_on_c, 10, 79, 52
12, 72119, Note_on_c, 10, 79, 0
12, 72120, Note_on_c, 10, 77, 52
12, 72359, Note_on_c, 10, 77, 0
12, 73080, Note_on_c, 10, 76, 52
12, 73110, Control_c, 10, 11, 127
12, 73139, Note_on_c, 10, 76, 0
12, 73140, Note_on_c, 10, 79, 52
12, 73140, Control_c, 10, 11, 126
12, 73170, Control_c, 10, 11, 123
12, 73199, Note_on_c, 10, 79, 0
12, 73200, Control_c, 10, 11, 123
12, 73200, Note_on_c, 10, 82, 52
12, 73230, Control_c, 10, 11, 122
12, 73259, Note_on_c, 10, 82, 0
12, 73260, Control_c, 10, 11, 121
12, 73260, Note_on_c, 10, 79, 52
12, 73290, Control_c, 10, 11, 119
12, 73319, Note_on_c, 10, 79, 0
12, 73320, Note_on_c, 10, 76, 52
12, 73320, Control_c, 10, 11, 118
12, 73350, Control_c, 10, 11, 117
12, 73379, Note_on_c, 10, 76, 0
12, 73380, Control_c, 10, 11, 115
12, 73380, Note_on_c, 10, 79, 52
12, 73433, Note_on_c, 10, 79, 0
12, 73438, Control_c, 10, 11, 127
12, 73440, Note_on_c, 10, 77, 52
12, 73679, Note_on_c, 10, 77, 0
12, 73740, Note_on_c, 10, 74, 52
12, 73759, Note_on_c, 10, 74, 0
12, 73760, Note_on_c, 10, 72, 52
12, 73779, Note_on_c, 10, 72, 0
12, 73780, Note_on_c, 10, 71, 52
12, 73799, Note_on_c, 10, 71, 0
12, 73800, Note_on_c, 10, 72, 52
12, 74039, Note_on_c, 10, 72, 0
12, 74344, Control_c, 10, 11, 125
12, 74460, Note_on_c, 10, 70, 52
12, 74479, Note_on_c, 10, 70, 0
12, 74480, Note_on_c, 10, 69, 52
12, 74496, Control_c, 10, 11, 124
12, 74499, Note_on_c, 10, 69, 0
12, 74500, Note_on_c, 10, 67, 52
12, 74519, Note_on_c, 10, 67, 0
12, 74520, Note_on_c, 10, 69, 52
12, 74648, Control_c, 10, 11, 123
12, 74759, Note_on_c, 10, 69, 0
12, 74800, Control_c, 10, 11, 122
12, 74952, Control_c, 10, 11, 121
12, 75104, Control_c, 10, 11, 120
12, 75180, Note_on_c, 10, 67, 52
12, 75199, Note_on_c, 10, 67, 0
12, 75200, Note_on_c, 10, 65, 52
12, 75219, Note_on_c, 10, 65, 0
12, 75220, Note_on_c, 10, 64, 52
12, 75239, Note_on_c, 10, 64, 0
12, 75240, Note_on_c, 10, 65, 52
12, 75256, Control_c, 10, 11, 119
12, 75408, Control_c, 10, 11, 118
12, 75479, Note_on_c, 10, 65, 0
12, 75540, Note_on_c, 10, 67, 52
12, 75559, Note_on_c, 10, 67, 0
12, 75560, Control_c, 10, 11, 117
12, 75560, Note_on_c, 10, 65, 52
12, 75579, Note_on_c, 10, 65, 0
12, 75580, Note_on_c, 10, 64, 52
12, 75599, Note_on_c, 10, 64, 0
12, 75600, Note_on_c, 10, 65, 52
12, 75712, Control_c, 10, 11, 116
12, 75839, Note_on_c, 10, 65, 0
12, 75864, Control_c, 10, 11, 115
12, 75900, Note_on_c, 10, 67, 52
12, 75919, Note_on_c, 10, 67, 0
12, 75920, Note_on_c, 10, 65, 52
12, 75939, Note_on_c, 10, 65, 0
12, 75940, Note_on_c, 10, 64, 52
12, 75959, Note_on_c, 10, 64, 0
12, 75960, Note_on_c, 10, 65, 52
12, 76016, Control_c, 10, 11, 114
12, 76168, Control_c, 10, 11, 127
12, 76199, Note_on_c, 10, 65, 0
12, 76320, Note_on_c, 10, 57, 44
12, 76364, Note_on_c, 10, 57, 0
12, 76380, Note_on_c, 10, 60, 44
12, 76424, Note_on_c, 10, 60, 0
12, 76440, Note_on_c, 10, 65, 44
12, 76484, Note_on_c, 10, 65, 0
12, 76500, Note_on_c, 10, 60, 44
12, 76544, Note_on_c, 10, 60, 0
12, 76560, Note_on_c, 10, 57, 44
12, 76604, Note_on_c, 10, 57, 0
12, 76620, Note_on_c, 10, 60, 44
12, 76664, Note_on_c, 10, 60, 0
12, 76680, Note_on_c, 10, 57, 44
12, 76724, Note_on_c, 10, 57, 0
12, 76740, Note_on_c, 10, 60, 44
12, 76784, Note_on_c, 10, 60, 0
12, 76800, Note_on_c, 10, 65, 44
12, 76844, Note_on_c, 10, 65, 0
12, 76860, Note_on_c, 10, 60, 44
12, 76904, Note_on_c, 10, 60, 0
12, 76920, Note_on_c, 10, 57, 44
12, 76964, Note_on_c, 10, 57, 0
12, 76980, Note_on_c, 10, 60, 44
12, 77024, Note_on_c, 10, 60, 0
12, 77040, Note_on_c, 10, 57, 44
12, 77084, Note_on_c, 10, 57, 0
12, 77100, Note_on_c, 10, 60, 44
12, 77144, Note_on_c, 10, 60, 0
12, 77160, Note_on_c, 10, 65, 44
12, 77204, Note_on_c, 10, 65, 0
12, 77220, Note_on_c, 10, 60, 44
12, 77264, Note_on_c, 10, 60, 0
12, 77280, Note_on_c, 10, 57, 44
12, 77324, Note_on_c, 10, 57, 0
12, 77340, Note_on_c, 10, 60, 44
12, 77384, Note_on_c, 10, 60, 0
12, 77400, Note_on_c, 10, 57, 44
12, 77444, Note_on_c, 10, 57, 0
12, 77460, Note_on_c, 10, 60, 44
12, 77504, Note_on_c, 10, 60, 0
12, 77520, Note_on_c, 10, 65, 44
12, 77564, Note_on_c, 10, 65, 0
12, 77580, Note_on_c, 10, 60, 44
12, 77624, Note_on_c, 10, 60, 0
12, 77640, Note_on_c, 10, 57, 44
12, 77684, Note_on_c, 10, 57, 0
12, 77700, Note_on_c, 10, 60, 44
12, 77744, Note_on_c, 10, 60, 0
12, 77760, Note_on_c, 10, 55, 44
12, 77804, Note_on_c, 10, 55, 0
12, 77820, Note_on_c, 10, 58, 44
12, 77864, Note_on_c, 10, 58, 0
12, 77880, Note_on_c, 10, 64, 44
12, 77924, Note_on_c, 10, 64, 0
12, 77940, Note_on_c, 10, 58, 44
12, 77984, Note_on_c, 10, 58, 0
12, 78000, Note_on_c, 10, 55, 44
12, 78044, Note_on_c, 10, 55, 0
12, 78060, Note_on_c, 10, 58, 44
12, 78104, Note_on_c, 10, 58, 0
12, 78120, Note_on_c, 10, 55, 44
12, 78164, Note_on_c, 10, 55, 0
12, 78180, Note_on_c, 10, 58, 44
12, 78224, Note_on_c, 10, 58, 0
12, 78240, Note_on_c, 10, 64, 44
12, 78284, Note_on_c, 10, 64, 0
12, 78300, Note_on_c, 10, 58, 44
12, 78344, Note_on_c, 10, 58, 0
12, 78360, Note_on_c, 10, 55, 44
12, 78404, Note_on_c, 10, 55, 0
12, 78420, Note_on_c, 10, 58, 44
12, 78464, Note_on_c, 10, 58, 0
12, 78480, Note_on_c, 10, 55, 44
12, 78524, Note_on_c, 10, 55, 0
12, 78540, Note_on_c, 10, 58, 44
12, 78584, Note_on_c, 10, 58, 0
12, 78600, Note_on_c, 10, 64, 44
12, 78644, Note_on_c, 10, 64, 0
12, 78660, Note_on_c, 10, 58, 44
12, 78704, Note_on_c, 10, 58, 0
12, 78720, Note_on_c, 10, 55, 44
12, 78764, Note_on_c, 10, 55, 0
12, 78780, Note_on_c, 10, 58, 44
12, 78824, Note_on_c, 10, 58, 0
12, 78840, Note_on_c, 10, 55, 44
12, 78884, Note_on_c, 10, 55, 0
12, 78900, Note_on_c, 10, 58, 44
12, 78944, Note_on_c, 10, 58, 0
12, 78960, Note_on_c, 10, 64, 44
12, 79004, Note_on_c, 10, 64, 0
12, 79020, Note_on_c, 10, 58, 44
12, 79064, Note_on_c, 10, 58, 0
12, 79080, Note_on_c, 10, 55, 44
12, 79124, Note_on_c, 10, 55, 0
12, 79140, Note_on_c, 10, 58, 44
12, 79184, Note_on_c, 10, 58, 0
12, 79200, Note_on_c, 10, 57, 44
12, 79244, Note_on_c, 10, 57, 0
12, 79260, Note_on_c, 10, 60, 44
12, 79304, Note_on_c, 10, 60, 0
12, 79320, Note_on_c, 10, 65, 44
12, 79364, Note_on_c, 10, 65, 0
12, 79380, Note_on_c, 10, 60, 44
12, 79424, Note_on_c, 10, 60, 0
12, 79440, Note_on_c, 10, 57, 44
12, 79484, Note_on_c, 10, 57, 0
12, 79500, Note_on_c, 10, 60, 44
12, 79544, Note_on_c, 10, 60, 0
12, 79560, Note_on_c, 10, 57, 44
12, 79604, Note_on_c, 10, 57, 0
12, 79620, Note_on_c, 10, 60, 44
12, 79664, Note_on_c, 10, 60, 0
12, 79680, Note_on_c, 10, 65, 44
12, 79724, Note_on_c, 10, 65, 0
12, 79740, Note_on_c, 10, 60, 44
12, 79784, Note_on_c, 10, 60, 0
12, 79800, Note_on_c, 10, 57, 44
12, 79844, Note_on_c, 10, 57, 0
12, 79860, Note_on_c, 10, 60, 44
12, 79904, Note_on_c, 10, 60, 0
12, 79920, Note_on_c, 10, 57, 44
12, 79964, Note_on_c, 10, 57, 0
12, 79980, Note_on_c, 10, 60, 44
12, 80024, Note_on_c, 10, 60, 0
12, 80040, Note_on_c, 10, 65, 44
12, 80084, Note_on_c, 10, 65, 0
12, 80100, Note_on_c, 10, 60, 44
12, 80144, Note_on_c, 10, 60, 0
12, 80160, Note_on_c, 10, 57, 44
12, 80204, Note_on_c, 10, 57, 0
12, 80220, Note_on_c, 10, 60, 44
12, 80264, Note_on_c, 10, 60, 0
12, 80280, Note_on_c, 10, 57, 44
12, 80324, Note_on_c, 10, 57, 0
12, 80340, Note_on_c, 10, 60, 44
12, 80384, Note_on_c, 10, 60, 0
12, 80400, Note_on_c, 10, 65, 44
12, 80444, Note_on_c, 10, 65, 0
12, 80460, Note_on_c, 10, 60, 44
12, 80504, Note_on_c, 10, 60, 0
12, 80520, Note_on_c, 10, 57, 44
12, 80564, Note_on_c, 10, 57, 0
12, 80580, Note_on_c, 10, 60, 44
12, 80624, Note_on_c, 10, 60, 0
12, 80640, Note_on_c, 10, 57, 44
12, 80684, Note_on_c, 10, 57, 0
12, 80700, Note_on_c, 10, 60, 45
12, 80744, Note_on_c, 10, 60, 0
12, 80760, Note_on_c, 10, 66, 46
12, 80804, Note_on_c, 10, 66, 0
12, 80820, Note_on_c, 10, 60, 47
12, 80864, Note_on_c, 10, 60, 0
12, 80880, Note_on_c, 10, 57, 48
12, 80924, Note_on_c, 10, 57, 0
12, 80940, Note_on_c, 10, 60, 49
12, 80984, Note_on_c, 10, 60, 0
12, 81000, Note_on_c, 10, 57, 50
12, 81044, Note_on_c, 10, 57, 0
12, 81060, Note_on_c, 10, 60, 51
12, 81104, Note_on_c, 10, 60, 0
12, 81120, Note_on_c, 10, 66, 52
12, 81164, Note_on_c, 10, 66, 0
12, 81180, Note_on_c, 10, 60, 53
12, 81224, Note_on_c, 10, 60, 0
12, 81240, Note_on_c, 10, 57, 54
12, 81284, Note_on_c, 10, 57, 0
12, 81300, Note_on_c, 10, 60, 55
12, 81344, Note_on_c, 10, 60, 0
12, 81360, Note_on_c, 10, 57, 56
12, 81404, Note_on_c, 10, 57, 0
12, 81420, Note_on_c, 10, 60, 57
12, 81464, Note_on_c, 10, 60, 0
12, 81480, Note_on_c, 10, 66, 58
12, 81524, Note_on_c, 10, 66, 0
12, 81540, Note_on_c, 10, 60, 59
12, 81584, Note_on_c, 10, 60, 0
12, 81600, Note_on_c, 10, 57, 60
12, 81644, Note_on_c, 10, 57, 0
12, 81660, Note_on_c, 10, 60, 61
12, 81704, Note_on_c, 10, 60, 0
12, 81720, Note_on_c, 10, 57, 62
12, 81764, Note_on_c, 10, 57, 0
12, 81780, Note_on_c, 10, 60, 63
12, 81824, Note_on_c, 10, 60, 0
12, 81840, Note_on_c, 10, 66, 64
12, 81884, Note_on_c, 10, 66, 0
12, 81900, Note_on_c, 10, 60, 65
12, 81944, Note_on_c, 10, 60, 0
12, 81960, Note_on_c, 10, 57, 66
12, 82004, Note_on_c, 10, 57, 0
12, 82020, Note_on_c, 10, 66, 67
12, 82064, Note_on_c, 10, 66, 0
12, 82080, Note_on_c, 10, 67, 68
12, 82319, Note_on_c, 10, 67, 0
12, 82440, Note_on_c, 10, 71, 52
12, 82799, Note_on_c, 10, 71, 0
12, 82800, Note_on_c, 10, 67, 52
12, 83159, Note_on_c, 10, 67, 0
12, 83160, Note_on_c, 10, 62, 52
12, 83519, Note_on_c, 10, 62, 0
12, 83880, Note_on_c, 10, 71, 52
12, 84239, Note_on_c, 10, 71, 0
12, 84240, Note_on_c, 10, 67, 52
12, 84599, Note_on_c, 10, 67, 0
12, 84600, Note_on_c, 10, 62, 52
12, 84959, Note_on_c, 10, 62, 0
12, 85320, Note_on_c, 10, 72, 52
12, 85679, Note_on_c, 10, 72, 0
12, 85680, Note_on_c, 10, 69, 52
12, 86039, Note_on_c, 10, 69, 0
12, 86040, Note_on_c, 10, 62, 52
12, 86399, Note_on_c, 10, 62, 0
12, 86760, Note_on_c, 10, 72, 52
12, 87119, Note_on_c, 10, 72, 0
12, 87120, Note_on_c, 10, 69, 52
12, 87479, Note_on_c, 10, 69, 0
12, 87480, Note_on_c, 10, 62, 52
12, 87839, Note_on_c, 10, 62, 0
12, 88200, Note_on_c, 10, 74, 52
12, 88559, Note_on_c, 10, 74, 0
12, 88560, Note_on_c, 10, 67, 52
12, 88919, Note_on_c, 10, 67, 0
12, 88920, Note_on_c, 10, 76, 52
12, 89279, Note_on_c, 10, 76, 0
12, 89520, Control_c, 10, 11, 97
12, 89640, Note_on_c, 10, 74, 68
12, 89999, Note_on_c, 10, 74, 0
12, 90000, Note_on_c, 10, 67, 68
12, 90359, Note_on_c, 10, 67, 0
12, 90360, Note_on_c, 10, 76, 68
12, 90709, Note_on_c, 10, 76, 0
12, 90720, Control_c, 10, 11, 97
12, 90720, Note_on_c, 10, 74, 68
12, 90840, Control_c, 10, 11, 99
12, 90960, Control_c, 10, 11, 102
12, 91079, Note_on_c, 10, 74, 0
12, 91080, Control_c, 10, 11, 105
12, 91080, Note_on_c, 10, 76, 68
12, 91200, Control_c, 10, 11, 107
12, 91320, Control_c, 10, 11, 110
12, 91439, Note_on_c, 10, 76, 0
12, 91440, Control_c, 10, 11, 113
12, 91440, Note_on_c, 10, 78, 68
12, 91560, Control_c, 10, 11, 115
12, 91680, Control_c, 10, 11, 118
12, 91799, Note_on_c, 10, 78, 0
12, 91800, Note_on_c, 10, 79, 68
12, 91800, Control_c, 10, 11, 119
12, 91920, Control_c, 10, 11, 123
12, 92040, Control_c, 10, 11, 125
12, 92149, Note_on_c, 10, 79, 0
12, 92158, Control_c, 10, 11, 127
12, 92160, Note_on_c, 10, 69, 52
12, 92399, Note_on_c, 10, 69, 0
12, 93360, Note_on_c, 10, 60, 52
12, 93469, Note_on_c, 10, 60, 0
12, 93480, Note_on_c, 10, 61, 52
12, 93589, Note_on_c, 10, 61, 0
12, 93600, Note_on_c, 10, 62, 52
12, 93839, Note_on_c, 10, 62, 0
12, 95580, Control_c, 10, 11, 107
12, 95640, Note_on_c, 10, 67, 76
12, 95729, Note_on_c, 10, 67, 0
12, 95740, Note_on_c, 10, 67, 76
12, 95759, Note_on_c, 10, 67, 0
12, 95760, Control_c, 10, 11, 111
12, 95760, Note_on_c, 10, 66, 76
12, 95879, Note_on_c, 10, 66, 0
12, 95880, Note_on_c, 10, 64, 76
12, 95940, Control_c, 10, 11, 115
12, 95999, Note_on_c, 10, 64, 0
12, 96000, Note_on_c, 10, 62, 76
12, 96109, Note_on_c, 10, 62, 0
12, 96120, Control_c, 10, 11, 119
12, 96120, Note_on_c, 10, 62, 76
12, 96239, Note_on_c, 10, 62, 0
12, 96240, Note_on_c, 10, 64, 76
12, 96300, Control_c, 10, 11, 123
12, 96359, Note_on_c, 10, 64, 0
12, 96360, Note_on_c, 10, 66, 76
12, 96469, Note_on_c, 10, 66, 0
12, 96478, Control_c, 10, 11, 127
12, 96480, Note_on_c, 10, 67, 76
12, 96829, Note_on_c, 10, 67, 0
12, 96840, Note_on_c, 10, 79, 76
12, 97189, Note_on_c, 10, 79, 0
12, 97200, Control_c, 10, 11, 127
12, 97200, Note_on_c, 10, 80, 76
12, 97260, Control_c, 10, 11, 123
12, 97320, Control_c, 10, 11, 119
12, 97380, Control_c, 10, 11, 115
12, 97440, Control_c, 10, 11, 111
12, 97500, Control_c, 10, 11, 107
12, 97560, Control_c, 10, 11, 105
12, 97619, Note_on_c, 10, 80, 0
12, 97620, Note_on_c, 10, 77, 76
12, 97620, Control_c, 10, 11, 101
12, 97679, Note_on_c, 10, 77, 0
12, 97680, Control_c, 10, 11, 97
12, 97680, Note_on_c, 10, 74, 76
12, 97739, Note_on_c, 10, 74, 0
12, 97740, Note_on_c, 10, 70, 76
12, 97740, Control_c, 10, 11, 93
12, 97799, Note_on_c, 10, 70, 0
12, 97800, Note_on_c, 10, 68, 76
12, 97800, Control_c, 10, 11, 89
12, 97859, Note_on_c, 10, 68, 0
12, 97860, Control_c, 10, 11, 85
12, 97860, Note_on_c, 10, 65, 76
12, 97913, Note_on_c, 10, 65, 0
12, 97918, Control_c, 10, 11, 81
12, 97920, Note_on_c, 10, 63, 76
12, 98159, Note_on_c, 10, 63, 0
12, 98640, Control_c, 10, 11, 127
12, 99000, Note_on_c, 10, 70, 52
12, 99359, Note_on_c, 10, 70, 0
12, 99360, Note_on_c, 10, 75, 52
12, 99719, Note_on_c, 10, 75, 0
12, 99720, Note_on_c, 10, 79, 52
12, 100079, Note_on_c, 10, 79, 0
12, 100440, Note_on_c, 10, 70, 52
12, 100799, Note_on_c, 10, 70, 0
12, 100800, Note_on_c, 10, 77, 52
12, 101159, Note_on_c, 10, 77, 0
12, 101160, Note_on_c, 10, 80, 52
12, 101519, Note_on_c, 10, 80, 0
12, 101880, Note_on_c, 10, 70, 52
12, 102239, Note_on_c, 10, 70, 0
12, 102240, Note_on_c, 10, 77, 52
12, 102599, Note_on_c, 10, 77, 0
12, 102600, Note_on_c, 10, 80, 52
12, 102959, Note_on_c, 10, 80, 0
12, 103320, Note_on_c, 10, 70, 52
12, 103679, Note_on_c, 10, 70, 0
12, 103680, Note_on_c, 10, 75, 52
12, 104039, Note_on_c, 10, 75, 0
12, 104040, Note_on_c, 10, 63, 52
12, 104399, Note_on_c, 10, 63, 0
12, 104760, Note_on_c, 10, 63, 52
12, 105119, Note_on_c, 10, 63, 0
12, 105120, Note_on_c, 10, 75, 52
12, 105479, Note_on_c, 10, 75, 0
12, 105480, Note_on_c, 10, 63, 52
12, 105839, Note_on_c, 10, 63, 0
12, 106080, Control_c, 10, 11, 97
12, 106200, Note_on_c, 10, 63, 68
12, 106559, Note_on_c, 10, 63, 0
12, 106560, Note_on_c, 10, 75, 68
12, 106680, Control_c, 10, 11, 99
12, 106800, Control_c, 10, 11, 102
12, 106919, Note_on_c, 10, 75, 0
12, 106920, Control_c, 10, 11, 105
12, 106920, Note_on_c, 10, 72, 68
12, 107040, Control_c, 10, 11, 107
12, 107160, Control_c, 10, 11, 110
12, 107279, Note_on_c, 10, 72, 0
12, 107280, Control_c, 10, 11, 113
12, 107280, Note_on_c, 10, 74, 68
12, 107400, Control_c, 10, 11, 115
12, 107520, Control_c, 10, 11, 118
12, 107639, Note_on_c, 10, 74, 0
12, 107640, Note_on_c, 10, 75, 68
12, 107640, Control_c, 10, 11, 119
12, 107760, Control_c, 10, 11, 123
12, 107880, Control_c, 10, 11, 125
12, 107989, Note_on_c, 10, 75, 0
12, 107998, Control_c, 10, 11, 127
12, 108000, Note_on_c, 10, 65, 52
12, 108239, Note_on_c, 10, 65, 0
12, 110040, Control_c, 10, 11, 81
12, 110160, Note_on_c, 10, 58, 76
12, 110160, Note_on_c, 10, 68, 76
12, 110280, Control_c, 10, 11, 85
12, 110400, Control_c, 10, 11, 89
12, 110520, Control_c, 10, 11, 93
12, 110640, Control_c, 10, 11, 97
12, 110760, Control_c, 10, 11, 101
12, 110869, Note_on_c, 10, 58, 0
12, 110869, Note_on_c, 10, 68, 0
12, 110880, Control_c, 10, 11, 105
12, 110880, Note_on_c, 10, 58, 76
12, 110880, Note_on_c, 10, 66, 76
12, 111000, Control_c, 10, 11, 107
12, 111120, Control_c, 10, 11, 111
12, 111240, Control_c, 10, 11, 115
12, 111360, Control_c, 10, 11, 119
12, 111469, Note_on_c, 10, 58, 0
12, 111469, Note_on_c, 10, 66, 0
12, 111480, Control_c, 10, 11, 123
12, 111480, Note_on_c, 10, 78, 76
12, 111569, Note_on_c, 10, 78, 0
12, 111580, Note_on_c, 10, 78, 76
12, 111599, Note_on_c, 10, 78, 0
12, 111600, Control_c, 10, 11, 127
12, 111600, Note_on_c, 10, 77, 76
12, 111660, Control_c, 10, 11, 123
12, 111719, Note_on_c, 10, 77, 0
12, 111720, Note_on_c, 10, 75, 76
12, 111720, Control_c, 10, 11, 119
12, 111780, Control_c, 10, 11, 115
12, 111839, Note_on_c, 10, 75, 0
12, 111840, Control_c, 10, 11, 111
12, 111840, Note_on_c, 10, 73, 76
12, 111900, Control_c, 10, 11, 107
12, 111949, Note_on_c, 10, 73, 0
12, 111960, Note_on_c, 10, 73, 76
12, 111960, Control_c, 10, 11, 105
12, 112020, Control_c, 10, 11, 101
12, 112079, Note_on_c, 10, 73, 0
12, 112080, Control_c, 10, 11, 97
12, 112080, Note_on_c, 10, 75, 76
12, 112140, Control_c, 10, 11, 93
12, 112199, Note_on_c, 10, 75, 0
12, 112200, Note_on_c, 10, 77, 76
12, 112200, Control_c, 10, 11, 89
12, 112260, Control_c, 10, 11, 85
12, 112309, Note_on_c, 10, 77, 0
12, 112318, Control_c, 10, 11, 81
12, 112320, Note_on_c, 10, 78, 76
12, 112559, Note_on_c, 10, 78, 0
12, 112800, Control_c, 10, 11, 127
12, 113000, Control_c, 10, 11, 127
12, 113200, Control_c, 10, 11, 126
12, 113400, Control_c, 10, 11, 123
12, 113520, Note_on_c, 10, 70, 52
12, 113579, Note_on_c, 10, 70, 0
12, 113580, Note_on_c, 10, 71, 52
12, 113600, Control_c, 10, 11, 123
12, 113639, Note_on_c, 10, 71, 0
12, 113640, Note_on_c, 10, 73, 52
12, 113699, Note_on_c, 10, 73, 0
12, 113700, Note_on_c, 10, 71, 52
12, 113753, Note_on_c, 10, 71, 0
12, 113760, Note_on_c, 10, 71, 52
12, 113800, Control_c, 10, 11, 122
12, 113879, Note_on_c, 10, 71, 0
12, 113880, Note_on_c, 10, 70, 52
12, 114000, Control_c, 10, 11, 121
12, 114119, Note_on_c, 10, 70, 0
12, 114200, Control_c, 10, 11, 119
12, 114400, Control_c, 10, 11, 118
12, 114600, Control_c, 10, 11, 117
12, 114800, Control_c, 10, 11, 115
12, 114960, Note_on_c, 10, 73, 52
12, 115000, Control_c, 10, 11, 114
12, 115019, Note_on_c, 10, 73, 0
12, 115020, Note_on_c, 10, 75, 52
12, 115079, Note_on_c, 10, 75, 0
12, 115080, Note_on_c, 10, 76, 52
12, 115139, Note_on_c, 10, 76, 0
12, 115140, Note_on_c, 10, 75, 52
12, 115193, Note_on_c, 10, 75, 0
12, 115198, Control_c, 10, 11, 112
12, 115200, Note_on_c, 10, 75, 52
12, 115559, Note_on_c, 10, 75, 0
12, 116400, Note_on_c, 10, 71, 52
12, 116459, Note_on_c, 10, 71, 0
12, 116460, Note_on_c, 10, 73, 52
12, 116519, Note_on_c, 10, 73, 0
12, 116520, Note_on_c, 10, 75, 52
12, 116579, Note_on_c, 10, 75, 0
12, 116580, Note_on_c, 10, 71, 52
12, 116594, Note_on_c, 10, 71, 0
12, 116595, Note_on_c, 10, 70, 52
12, 116609, Note_on_c, 10, 70, 0
12, 116610, Note_on_c, 10, 71, 52
12, 116624, Note_on_c, 10, 71, 0
12, 116625, Note_on_c, 10, 73, 52
12, 116639, Note_on_c, 10, 73, 0
12, 116640, Note_on_c, 10, 71, 52
12, 116759, Note_on_c, 10, 71, 0
12, 116760, Note_on_c, 10, 70, 52
12, 116999, Note_on_c, 10, 70, 0
12, 117720, Control_c, 10, 11, 65
12, 117840, Note_on_c, 10, 73, 76
12, 117959, Note_on_c, 10, 73, 0
12, 117960, Note_on_c, 10, 75, 76
12, 118019, Note_on_c, 10, 75, 0
12, 118020, Note_on_c, 10, 76, 76
12, 118073, Note_on_c, 10, 76, 0
12, 118080, Note_on_c, 10, 78, 76
12, 118559, Note_on_c, 10, 78, 0
12, 118560, Note_on_c, 10, 75, 76
12, 118679, Note_on_c, 10, 75, 0
12, 118680, Note_on_c, 10, 71, 76
12, 118789, Note_on_c, 10, 71, 0
12, 118800, Note_on_c, 10, 71, 76
12, 119089, Note_on_c, 10, 71, 0
12, 119100, Note_on_c, 10, 73, 76
12, 119119, Note_on_c, 10, 73, 0
12, 119120, Note_on_c, 10, 71, 76
12, 119139, Note_on_c, 10, 71, 0
12, 119140, Note_on_c, 10, 70, 76
12, 119159, Note_on_c, 10, 70, 0
12, 119160, Note_on_c, 10, 71, 76
12, 119279, Note_on_c, 10, 71, 0
12, 119280, Note_on_c, 10, 76, 76
12, 119399, Note_on_c, 10, 76, 0
12, 119400, Note_on_c, 10, 79, 76
12, 119459, Note_on_c, 10, 79, 0
12, 119460, Note_on_c, 10, 79, 76
12, 119513, Note_on_c, 10, 79, 0
12, 119520, Control_c, 10, 11, 65
12, 119520, Note_on_c, 10, 79, 76
12, 119640, Control_c, 10, 11, 70
12, 119760, Control_c, 10, 11, 75
12, 119880, Control_c, 10, 11, 81
12, 120000, Control_c, 10, 11, 86
12, 120120, Control_c, 10, 11, 91
12, 120239, Note_on_c, 10, 79, 0
12, 120240, Control_c, 10, 11, 97
12, 120240, Note_on_c, 10, 79, 76
12, 120360, Control_c, 10, 11, 102
12, 120480, Control_c, 10, 11, 107
12, 120600, Control_c, 10, 11, 111
12, 120720, Control_c, 10, 11, 118
12, 120840, Control_c, 10, 11, 123
12, 120949, Note_on_c, 10, 79, 0
12, 120958, Control_c, 10, 11, 127
12, 120960, Note_on_c, 10, 77, 76
12, 122029, Note_on_c, 10, 77, 0
12, 122040, Note_on_c, 10, 76, 76
12, 122389, Note_on_c, 10, 76, 0
12, 122400, Note_on_c, 10, 75, 76
12, 122639, Note_on_c, 10, 75, 0
12, 122640, Control_c, 10, 11, 123
12, 122880, Note_on_c, 10, 65, 76
12, 122880, Control_c, 10, 11, 119
12, 122989, Note_on_c, 10, 65, 0
12, 123000, Note_on_c, 10, 65, 76
12, 123029, Note_on_c, 10, 65, 0
12, 123030, Note_on_c, 10, 67, 76
12, 123059, Note_on_c, 10, 67, 0
12, 123060, Note_on_c, 10, 64, 76
12, 123089, Note_on_c, 10, 64, 0
12, 123090, Note_on_c, 10, 65, 76
12, 123119, Note_on_c, 10, 65, 0
12, 123120, Note_on_c, 10, 77, 76
12, 123120, Control_c, 10, 11, 115
12, 123359, Note_on_c, 10, 77, 0
12, 123360, Control_c, 10, 11, 111
12, 123600, Control_c, 10, 11, 107
12, 123600, Note_on_c, 10, 65, 76
12, 123709, Note_on_c, 10, 65, 0
12, 123720, Note_on_c, 10, 65, 76
12, 123749, Note_on_c, 10, 65, 0
12, 123750, Note_on_c, 10, 67, 76
12, 123779, Note_on_c, 10, 67, 0
12, 123780, Note_on_c, 10, 64, 76
12, 123809, Note_on_c, 10, 64, 0
12, 123810, Note_on_c, 10, 65, 76
12, 123839, Note_on_c, 10, 65, 0
12, 123840, Control_c, 10, 11, 105
12, 123840, Note_on_c, 10, 77, 76
12, 124079, Note_on_c, 10, 77, 0
12, 124080, Control_c, 10, 11, 101
12, 124320, Control_c, 10, 11, 97
12, 124320, Note_on_c, 10, 65, 76
12, 124429, Note_on_c, 10, 65, 0
12, 124440, Note_on_c, 10, 65, 76
12, 124469, Note_on_c, 10, 65, 0
12, 124470, Note_on_c, 10, 67, 76
12, 124499, Note_on_c, 10, 67, 0
12, 124500, Note_on_c, 10, 64, 76
12, 124529, Note_on_c, 10, 64, 0
12, 124530, Note_on_c, 10, 65, 76
12, 124559, Note_on_c, 10, 65, 0
12, 124560, Control_c, 10, 11, 93
12, 124560, Note_on_c, 10, 77, 76
12, 124799, Note_on_c, 10, 77, 0
12, 124800, Control_c, 10, 11, 89
12, 125040, Control_c, 10, 11, 85
12, 125040, Note_on_c, 10, 65, 76
12, 125149, Note_on_c, 10, 65, 0
12, 125160, Note_on_c, 10, 65, 76
12, 125189, Note_on_c, 10, 65, 0
12, 125190, Note_on_c, 10, 67, 76
12, 125219, Note_on_c, 10, 67, 0
12, 125220, Note_on_c, 10, 64, 76
12, 125249, Note_on_c, 10, 64, 0
12, 125250, Note_on_c, 10, 65, 76
12, 125279, Note_on_c, 10, 65, 0
12, 125280, Control_c, 10, 11, 97
12, 125400, Note_on_c, 10, 77, 68
12, 125509, Note_on_c, 10, 77, 0
12, 125520, Note_on_c, 10, 77, 68
12, 125549, Note_on_c, 10, 77, 0
12, 125550, Note_on_c, 10, 79, 68
12, 125579, Note_on_c, 10, 79, 0
12, 125580, Note_on_c, 10, 75, 68
12, 125609, Note_on_c, 10, 75, 0
12, 125610, Note_on_c, 10, 77, 68
12, 125639, Note_on_c, 10, 77, 0
12, 125760, Note_on_c, 10, 65, 68
12, 125869, Note_on_c, 10, 65, 0
12, 125880, Note_on_c, 10, 65, 68
12, 125909, Note_on_c, 10, 65, 0
12, 125910, Note_on_c, 10, 67, 68
12, 125939, Note_on_c, 10, 67, 0
12, 125940, Note_on_c, 10, 63, 68
12, 125969, Note_on_c, 10, 63, 0
12, 125970, Note_on_c, 10, 65, 68
12, 125999, Note_on_c, 10, 65, 0
12, 126120, Note_on_c, 10, 77, 68
12, 126229, Note_on_c, 10, 77, 0
12, 126240, Note_on_c, 10, 77, 68
12, 126269, Note_on_c, 10, 77, 0
12, 126270, Note_on_c, 10, 79, 68
12, 126299, Note_on_c, 10, 79, 0
12, 126300, Note_on_c, 10, 75, 68
12, 126329, Note_on_c, 10, 75, 0
12, 126330, Note_on_c, 10, 77, 68
12, 126359, Note_on_c, 10, 77, 0
12, 126480, Note_on_c, 10, 65, 68
12, 126589, Note_on_c, 10, 65, 0
12, 126600, Note_on_c, 10, 65, 68
12, 126629, Note_on_c, 10, 65, 0
12, 126630, Note_on_c, 10, 67, 68
12, 126659, Note_on_c, 10, 67, 0
12, 126660, Note_on_c, 10, 63, 68
12, 126689, Note_on_c, 10, 63, 0
12, 126690, Note_on_c, 10, 65, 68
12, 126719, Note_on_c, 10, 65, 0
12, 126840, Note_on_c, 10, 77, 68
12, 126949, Note_on_c, 10, 77, 0
12, 126960, Note_on_c, 10, 77, 68
12, 126989, Note_on_c, 10, 77, 0
12, 126990, Note_on_c, 10, 79, 68
12, 127019, Note_on_c, 10, 79, 0
12, 127020, Note_on_c, 10, 75, 68
12, 127049, Note_on_c, 10, 75, 0
12, 127050, Note_on_c, 10, 77, 68
12, 127079, Note_on_c, 10, 77, 0
12, 127200, Note_on_c, 10, 65, 68
12, 127309, Note_on_c, 10, 65, 0
12, 127320, Note_on_c, 10, 65, 68
12, 127349, Note_on_c, 10, 65, 0
12, 127350, Note_on_c, 10, 67, 68
12, 127379, Note_on_c, 10, 67, 0
12, 127380, Note_on_c, 10, 63, 68
12, 127409, Note_on_c, 10, 63, 0
12, 127410, Note_on_c, 10, 65, 68
12, 127439, Note_on_c, 10, 65, 0
12, 127560, Note_on_c, 10, 77, 68
12, 127669, Note_on_c, 10, 77, 0
12, 127680, Note_on_c, 10, 77, 68
12, 127709, Note_on_c, 10, 77, 0
12, 127710, Note_on_c, 10, 79, 68
12, 127739, Note_on_c, 10, 79, 0
12, 127740, Note_on_c, 10, 75, 68
12, 127769, Note_on_c, 10, 75, 0
12, 127770, Note_on_c, 10, 77, 68
12, 127799, Note_on_c, 10, 77, 0
12, 127920, Note_on_c, 10, 65, 68
12, 128029, Note_on_c, 10, 65, 0
12, 128040, Note_on_c, 10, 65, 68
12, 128069, Note_on_c, 10, 65, 0
12, 128070, Note_on_c, 10, 67, 68
12, 128099, Note_on_c, 10, 67, 0
12, 128100, Note_on_c, 10, 63, 68
12, 128129, Note_on_c, 10, 63, 0
12, 128130, Note_on_c, 10, 65, 68
12, 128159, Note_on_c, 10, 65, 0
12, 128220, Note_on_c, 10, 77, 68
12, 128273, Note_on_c, 10, 77, 0
12, 128280, Note_on_c, 10, 77, 68
12, 128333, Note_on_c, 10, 77, 0
12, 128340, Note_on_c, 10, 77, 68
12, 128393, Note_on_c, 10, 77, 0
12, 128400, Note_on_c, 10, 77, 68
12, 128453, Note_on_c, 10, 77, 0
12, 128460, Note_on_c, 10, 77, 68
12, 128513, Note_on_c, 10, 77, 0
12, 128520, Note_on_c, 10, 77, 68
12, 128573, Note_on_c, 10, 77, 0
12, 128580, Note_on_c, 10, 77, 68
12, 128633, Note_on_c, 10, 77, 0
12, 128640, Note_on_c, 10, 77, 68
12, 128693, Note_on_c, 10, 77, 0
12, 128700, Note_on_c, 10, 77, 68
12, 128753, Note_on_c, 10, 77, 0
12, 128760, Note_on_c, 10, 77, 68
12, 128813, Note_on_c, 10, 77, 0
12, 128820, Note_on_c, 10, 77, 68
12, 128873, Note_on_c, 10, 77, 0
12, 128880, Control_c, 10, 11, 97
12, 128880, Note_on_c, 10, 77, 68
12, 128933, Note_on_c, 10, 77, 0
12, 128940, Control_c, 10, 11, 99
12, 128940, Note_on_c, 10, 77, 68
12, 128993, Note_on_c, 10, 77, 0
12, 129000, Note_on_c, 10, 77, 68
12, 129000, Control_c, 10, 11, 102
12, 129053, Note_on_c, 10, 77, 0
12, 129060, Note_on_c, 10, 77, 68
12, 129060, Control_c, 10, 11, 105
12, 129113, Note_on_c, 10, 77, 0
12, 129120, Note_on_c, 10, 77, 68
12, 129120, Control_c, 10, 11, 107
12, 129173, Note_on_c, 10, 77, 0
12, 129180, Note_on_c, 10, 77, 68
12, 129180, Control_c, 10, 11, 110
12, 129233, Note_on_c, 10, 77, 0
12, 129240, Control_c, 10, 11, 113
12, 129240, Note_on_c, 10, 77, 68
12, 129293, Note_on_c, 10, 77, 0
12, 129300, Note_on_c, 10, 77, 68
12, 129300, Control_c, 10, 11, 115
12, 129353, Note_on_c, 10, 77, 0
12, 129360, Control_c, 10, 11, 118
12, 129360, Note_on_c, 10, 77, 68
12, 129413, Note_on_c, 10, 77, 0
12, 129420, Note_on_c, 10, 77, 68
12, 129420, Control_c, 10, 11, 119
12, 129473, Note_on_c, 10, 77, 0
12, 129480, Note_on_c, 10, 79, 68
12, 129480, Control_c, 10, 11, 123
12, 129533, Note_on_c, 10, 79, 0
12, 129540, Note_on_c, 10, 81, 68
12, 129540, Control_c, 10, 11, 127
12, 129593, Note_on_c, 10, 81, 0
12, 129600, Note_on_c, 10, 82, 52
12, 129839, Note_on_c, 10, 82, 0
12, 130320, Note_on_c, 10, 62, 52
12, 130373, Note_on_c, 10, 62, 0
12, 130380, Note_on_c, 10, 65, 52
12, 130433, Note_on_c, 10, 65, 0
12, 130440, Note_on_c, 10, 70, 52
12, 130493, Note_on_c, 10, 70, 0
12, 130500, Note_on_c, 10, 74, 52
12, 130553, Note_on_c, 10, 74, 0
12, 130560, Note_on_c, 10, 77, 52
12, 130613, Note_on_c, 10, 77, 0
12, 130620, Note_on_c, 10, 82, 52
12, 130673, Note_on_c, 10, 82, 0
12, 130680, Note_on_c, 10, 58, 52
12, 130919, Note_on_c, 10, 58, 0
12, 131760, Note_on_c, 10, 62, 52
12, 131813, Note_on_c, 10, 62, 0
12, 131820, Note_on_c, 10, 65, 52
12, 131873, Note_on_c, 10, 65, 0
12, 131880, Note_on_c, 10, 70, 52
12, 131933, Note_on_c, 10, 70, 0
12, 131940, Note_on_c, 10, 74, 52
12, 131993, Note_on_c, 10, 74, 0
12, 132000, Note_on_c, 10, 77, 52
12, 132053, Note_on_c, 10, 77, 0
12, 132060, Note_on_c, 10, 82, 52
12, 132113, Note_on_c, 10, 82, 0
12, 132120, Note_on_c, 10, 58, 52
12, 132359, Note_on_c, 10, 58, 0
12, 133200, Note_on_c, 10, 65, 52
12, 133253, Note_on_c, 10, 65, 0
12, 133260, Note_on_c, 10, 69, 52
12, 133313, Note_on_c, 10, 69, 0
12, 133320, Note_on_c, 10, 72, 52
12, 133373, Note_on_c, 10, 72, 0
12, 133380, Note_on_c, 10, 77, 52
12, 133433, Note_on_c, 10, 77, 0
12, 133440, Note_on_c, 10, 81, 52
12, 133493, Note_on_c, 10, 81, 0
12, 133500, Note_on_c, 10, 84, 52
12, 133553, Note_on_c, 10, 84, 0
12, 133560, Note_on_c, 10, 65, 52
12, 133799, Note_on_c, 10, 65, 0
12, 134280, Control_c, 10, 11, 81
12, 134640, Note_on_c, 10, 65, 76
12, 134693, Note_on_c, 10, 65, 0
12, 134700, Note_on_c, 10, 69, 76
12, 134753, Note_on_c, 10, 69, 0
12, 134760, Note_on_c, 10, 72, 76
12, 134813, Note_on_c, 10, 72, 0
12, 134820, Note_on_c, 10, 77, 76
12, 134873, Note_on_c, 10, 77, 0
12, 134880, Note_on_c, 10, 81, 76
12, 134933, Note_on_c, 10, 81, 0
12, 134940, Note_on_c, 10, 84, 76
12, 134993, Note_on_c, 10, 84, 0
12, 135000, Note_on_c, 10, 65, 76
12, 135109, Note_on_c, 10, 65, 0
12, 135120, Note_on_c, 10, 72, 76
12, 135239, Note_on_c, 10, 72, 0
12, 135240, Note_on_c, 10, 74, 76
12, 135299, Note_on_c, 10, 74, 0
12, 135300, Note_on_c, 10, 75, 76
12, 135353, Note_on_c, 10, 75, 0
12, 135360, Note_on_c, 10, 77, 76
12, 135480, Control_c, 10, 11, 85
12, 135600, Control_c, 10, 11, 89
12, 135720, Control_c, 10, 11, 93
12, 135839, Note_on_c, 10, 77, 0
12, 135840, Note_on_c, 10, 75, 76
12, 135840, Control_c, 10, 11, 97
12, 135959, Note_on_c, 10, 75, 0
12, 135960, Note_on_c, 10, 74, 76
12, 135960, Control_c, 10, 11, 101
12, 136069, Note_on_c, 10, 74, 0
12, 136080, Control_c, 10, 11, 105
12, 136080, Note_on_c, 10, 72, 76
12, 136200, Control_c, 10, 11, 107
12, 136320, Control_c, 10, 11, 111
12, 136369, Note_on_c, 10, 72, 0
12, 136380, Note_on_c, 10, 74, 76
12, 136399, Note_on_c, 10, 74, 0
12, 136400, Note_on_c, 10, 72, 76
12, 136419, Note_on_c, 10, 72, 0
12, 136420, Note_on_c, 10, 71, 76
12, 136439, Note_on_c, 10, 71, 0
12, 136440, Control_c, 10, 11, 115
12, 136440, Note_on_c, 10, 72, 76
12, 136559, Note_on_c, 10, 72, 0
12, 136560, Control_c, 10, 11, 119
12, 136560, Note_on_c, 10, 75, 76
12, 136669, Note_on_c, 10, 75, 0
12, 136680, Note_on_c, 10, 79, 76
12, 136680, Control_c, 10, 11, 123
12, 136769, Note_on_c, 10, 79, 0
12, 136800, Note_on_c, 10, 65, 76
12, 136800, Control_c, 10, 11, 127
12, 136860, Control_c, 10, 11, 81
12, 137269, Note_on_c, 10, 65, 0
12, 137280, Note_on_c, 10, 67, 76
12, 137379, Note_on_c, 10, 67, 0
12, 137400, Note_on_c, 10, 69, 76
12, 137489, Note_on_c, 10, 69, 0
12, 137520, Note_on_c, 10, 70, 76
12, 137520, Control_c, 10, 11, 81
12, 137550, Control_c, 10, 11, 83
12, 137580, Control_c, 10, 11, 86
12, 137610, Control_c, 10, 11, 89
12, 137619, Note_on_c, 10, 70, 0
12, 137640, Note_on_c, 10, 72, 76
12, 137640, Control_c, 10, 11, 91
12, 137670, Control_c, 10, 11, 94
12, 137700, Control_c, 10, 11, 97
12, 137730, Control_c, 10, 11, 99
12, 137739, Note_on_c, 10, 72, 0
12, 137760, Control_c, 10, 11, 102
12, 137760, Note_on_c, 10, 74, 76
12, 137790, Control_c, 10, 11, 105
12, 137820, Control_c, 10, 11, 107
12, 137849, Note_on_c, 10, 74, 0
12, 137850, Control_c, 10, 11, 110
12, 137880, Note_on_c, 10, 77, 76
12, 137880, Control_c, 10, 11, 113
12, 137910, Control_c, 10, 11, 110
12, 137940, Control_c, 10, 11, 107
12, 137970, Control_c, 10, 11, 105
12, 137999, Note_on_c, 10, 77, 0
12, 138000, Control_c, 10, 11, 102
12, 138000, Note_on_c, 10, 75, 76
12, 138030, Control_c, 10, 11, 99
12, 138060, Control_c, 10, 11, 97
12, 138090, Control_c, 10, 11, 94
12, 138109, Note_on_c, 10, 75, 0
12, 138120, Control_c, 10, 11, 91
12, 138120, Note_on_c, 10, 72, 76
12, 138150, Control_c, 10, 11, 89
12, 138179, Note_on_c, 10, 72, 0
12, 138180, Control_c, 10, 11, 86
12, 138180, Note_on_c, 10, 74, 76
12, 138210, Control_c, 10, 11, 83
12, 138233, Note_on_c, 10, 74, 0
12, 138240, Note_on_c, 10, 70, 76
12, 138240, Control_c, 10, 11, 81
12, 138360, Control_c, 10, 11, 81
12, 138470, Control_c, 10, 11, 85
12, 138479, Note_on_c, 10, 70, 0
12, 138580, Control_c, 10, 11, 89
12, 138690, Control_c, 10, 11, 93
12, 138720, Note_on_c, 10, 70, 76
12, 138779, Note_on_c, 10, 70, 0
12, 138780, Note_on_c, 10, 72, 76
12, 138800, Control_c, 10, 11, 97
12, 138839, Note_on_c, 10, 72, 0
12, 138840, Note_on_c, 10, 74, 76
12, 138899, Note_on_c, 10, 74, 0
12, 138900, Note_on_c, 10, 72, 76
12, 138910, Control_c, 10, 11, 101
12, 138953, Note_on_c, 10, 72, 0
12, 138960, Note_on_c, 10, 72, 76
12, 139020, Control_c, 10, 11, 105
12, 139079, Note_on_c, 10, 72, 0
12, 139080, Note_on_c, 10, 70, 76
12, 139130, Control_c, 10, 11, 107
12, 139240, Control_c, 10, 11, 111
12, 139319, Note_on_c, 10, 70, 0
12, 139350, Control_c, 10, 11, 115
12, 139440, Note_on_c, 10, 79, 76
12, 139460, Control_c, 10, 11, 119
12, 139499, Note_on_c, 10, 79, 0
12, 139500, Note_on_c, 10, 81, 76
12, 139559, Note_on_c, 10, 81, 0
12, 139560, Note_on_c, 10, 82, 76
12, 139570, Control_c, 10, 11, 123
12, 139619, Note_on_c, 10, 82, 0
12, 139620, Note_on_c, 10, 81, 76
12, 139673, Note_on_c, 10, 81, 0
12, 139680, Control_c, 10, 11, 127
12, 139680, Note_on_c, 10, 81, 76
12, 139799, Note_on_c, 10, 81, 0
12, 139800, Note_on_c, 10, 79, 76
12, 140149, Note_on_c, 10, 79, 0
12, 140160, Note_on_c, 10, 79, 76
12, 140219, Note_on_c, 10, 79, 0
12, 140220, Note_on_c, 10, 81, 76
12, 140279, Note_on_c, 10, 81, 0
12, 140280, Note_on_c, 10, 82, 76
12, 140339, Note_on_c, 10, 82, 0
12, 140340, Note_on_c, 10, 83, 76
12, 140393, Note_on_c, 10, 83, 0
12, 140400, Note_on_c, 10, 83, 76
12, 140519, Note_on_c, 10, 83, 0
12, 140520, Note_on_c, 10, 84, 76
12, 140760, Control_c, 10, 11, 127
12, 140790, Control_c, 10, 11, 123
12, 140820, Control_c, 10, 11, 119
12, 140850, Control_c, 10, 11, 115
12, 140869, Note_on_c, 10, 84, 0
12, 140880, Note_on_c, 10, 72, 76
12, 140880, Control_c, 10, 11, 111
12, 140910, Control_c, 10, 11, 107
12, 140940, Control_c, 10, 11, 105
12, 140970, Control_c, 10, 11, 101
12, 140999, Note_on_c, 10, 72, 0
12, 141000, Note_on_c, 10, 74, 76
12, 141000, Control_c, 10, 11, 97
12, 141030, Control_c, 10, 11, 93
12, 141059, Note_on_c, 10, 74, 0
12, 141060, Note_on_c, 10, 76, 76
12, 141060, Control_c, 10, 11, 89
12, 141090, Control_c, 10, 11, 85
12, 141113, Note_on_c, 10, 76, 0
12, 141118, Control_c, 10, 11, 81
12, 141120, Note_on_c, 10, 77, 76
12, 141589, Note_on_c, 10, 77, 0
12, 141600, Note_on_c, 10, 77, 76
12, 141659, Note_on_c, 10, 77, 0
12, 141660, Note_on_c, 10, 75, 76
12, 141719, Note_on_c, 10, 75, 0
12, 141720, Note_on_c, 10, 72, 76
12, 141779, Note_on_c, 10, 72, 0
12, 141780, Note_on_c, 10, 69, 76
12, 141833, Note_on_c, 10, 69, 0
12, 141840, Note_on_c, 10, 72, 76
12, 142079, Note_on_c, 10, 72, 0
12, 142080, Note_on_c, 10, 70, 76
12, 142309, Note_on_c, 10, 70, 0
12, 142320, Note_on_c, 10, 70, 76
12, 142379, Note_on_c, 10, 70, 0
12, 142380, Note_on_c, 10, 65, 76
12, 142439, Note_on_c, 10, 65, 0
12, 142440, Note_on_c, 10, 62, 76
12, 142499, Note_on_c, 10, 62, 0
12, 142500, Note_on_c, 10, 58, 76
12, 142514, Note_on_c, 10, 58, 0
12, 142515, Note_on_c, 10, 57, 76
12, 142529, Note_on_c, 10, 57, 0
12, 142530, Note_on_c, 10, 58, 76
12, 142544, Note_on_c, 10, 58, 0
12, 142545, Note_on_c, 10, 60, 76
12, 142559, Note_on_c, 10, 60, 0
12, 142560, Note_on_c, 10, 58, 76
12, 142799, Note_on_c, 10, 58, 0
12, 142800, Note_on_c, 10, 57, 76
12, 143029, Note_on_c, 10, 57, 0
12, 143040, Note_on_c, 10, 57, 76
12, 143099, Note_on_c, 10, 57, 0
12, 143100, Note_on_c, 10, 60, 76
12, 143159, Note_on_c, 10, 60, 0
12, 143160, Note_on_c, 10, 65, 76
12, 143219, Note_on_c, 10, 65, 0
12, 143220, Note_on_c, 10, 69, 76
12, 143273, Note_on_c, 10, 69, 0
12, 143278, Control_c, 10, 11, 97
12, 143280, Note_on_c, 10, 72, 68
12, 143519, Note_on_c, 10, 72, 0
12, 143520, Note_on_c, 10, 70, 68
12, 143729, Note_on_c, 10, 70, 0
12, 143740, Note_on_c, 10, 72, 68
12, 143759, Note_on_c, 10, 72, 0
12, 143760, Note_on_c, 10, 70, 68
12, 143819, Note_on_c, 10, 70, 0
12, 143820, Note_on_c, 10, 69, 68
12, 143879, Note_on_c, 10, 69, 0
12, 143880, Note_on_c, 10, 70, 68
12, 143939, Note_on_c, 10, 70, 0
12, 143940, Note_on_c, 10, 74, 68
12, 143993, Note_on_c, 10, 74, 0
12, 144000, Note_on_c, 10, 77, 68
12, 144059, Note_on_c, 10, 77, 0
12, 144060, Control_c, 10, 11, 99
12, 144060, Note_on_c, 10, 72, 68
12, 144119, Note_on_c, 10, 72, 0
12, 144120, Control_c, 10, 11, 102
12, 144120, Note_on_c, 10, 69, 68
12, 144179, Note_on_c, 10, 69, 0
12, 144180, Note_on_c, 10, 65, 68
12, 144180, Control_c, 10, 11, 105
12, 144239, Note_on_c, 10, 65, 0
12, 144240, Note_on_c, 10, 77, 68
12, 144240, Control_c, 10, 11, 107
12, 144299, Note_on_c, 10, 77, 0
12, 144300, Control_c, 10, 11, 110
12, 144300, Note_on_c, 10, 72, 68
12, 144359, Note_on_c, 10, 72, 0
12, 144360, Note_on_c, 10, 69, 68
12, 144360, Control_c, 10, 11, 113
12, 144419, Note_on_c, 10, 69, 0
12, 144420, Control_c, 10, 11, 115
12, 144420, Note_on_c, 10, 65, 68
12, 144479, Note_on_c, 10, 65, 0
12, 144480, Note_on_c, 10, 77, 68
12, 144480, Control_c, 10, 11, 118
12, 144539, Note_on_c, 10, 77, 0
12, 144540, Control_c, 10, 11, 119
12, 144540, Note_on_c, 10, 72, 68
12, 144599, Note_on_c, 10, 72, 0
12, 144600, Control_c, 10, 11, 123
12, 144600, Note_on_c, 10, 69, 68
12, 144659, Note_on_c, 10, 69, 0
12, 144660, Control_c, 10, 11, 127
12, 144660, Note_on_c, 10, 65, 68
12, 144719, Note_on_c, 10, 65, 0
12, 144720, Note_on_c, 10, 75, 68
12, 144779, Note_on_c, 10, 75, 0
12, 144780, Note_on_c, 10, 72, 67
12, 144839, Note_on_c, 10, 72, 0
12, 144840, Note_on_c, 10, 69, 66
12, 144899, Note_on_c, 10, 69, 0
12, 144900, Note_on_c, 10, 65, 64
12, 144959, Note_on_c, 10, 65, 0
12, 144960, Note_on_c, 10, 75, 63
12, 145019, Note_on_c, 10, 75, 0
12, 145020, Note_on_c, 10, 72, 62
12, 145079, Note_on_c, 10, 72, 0
12, 145080, Note_on_c, 10, 69, 60
12, 145139, Note_on_c, 10, 69, 0
12, 145140, Note_on_c, 10, 65, 59
12, 145199, Note_on_c, 10, 65, 0
12, 145200, Note_on_c, 10, 63, 58
12, 145259, Note_on_c, 10, 63, 0
12, 145260, Note_on_c, 10, 60, 56
12, 145319, Note_on_c, 10, 60, 0
12, 145320, Note_on_c, 10, 57, 55
12, 145379, Note_on_c, 10, 57, 0
12, 145380, Note_on_c, 10, 75, 54
12, 145433, Note_on_c, 10, 75, 0
12, 145440, Note_on_c, 10, 74, 52
12, 145484, Note_on_c, 10, 74, 0
12, 145500, Note_on_c, 10, 65, 52
12, 145544, Note_on_c, 10, 65, 0
12, 145560, Note_on_c, 10, 70, 52
12, 145604, Note_on_c, 10, 70, 0
12, 145620, Note_on_c, 10, 65, 52
12, 145664, Note_on_c, 10, 65, 0
12, 145680, Note_on_c, 10, 62, 52
12, 145724, Note_on_c, 10, 62, 0
12, 145740, Note_on_c, 10, 65, 52
12, 145784, Note_on_c, 10, 65, 0
12, 145800, Note_on_c, 10, 63, 52
12, 145844, Note_on_c, 10, 63, 0
12, 145860, Note_on_c, 10, 67, 52
12, 145904, Note_on_c, 10, 67, 0
12, 145920, Note_on_c, 10, 72, 52
12, 145964, Note_on_c, 10, 72, 0
12, 145980, Note_on_c, 10, 67, 52
12, 146024, Note_on_c, 10, 67, 0
12, 146040, Note_on_c, 10, 63, 52
12, 146084, Note_on_c, 10, 63, 0
12, 146100, Note_on_c, 10, 67, 52
12, 146144, Note_on_c, 10, 67, 0
12, 146160, Note_on_c, 10, 62, 52
12, 146204, Note_on_c, 10, 62, 0
12, 146220, Note_on_c, 10, 65, 52
12, 146264, Note_on_c, 10, 65, 0
12, 146280, Note_on_c, 10, 70, 52
12, 146324, Note_on_c, 10, 70, 0
12, 146340, Note_on_c, 10, 65, 52
12, 146384, Note_on_c, 10, 65, 0
12, 146400, Note_on_c, 10, 62, 52
12, 146444, Note_on_c, 10, 62, 0
12, 146460, Note_on_c, 10, 65, 52
12, 146504, Note_on_c, 10, 65, 0
12, 146520, Note_on_c, 10, 65, 52
12, 146564, Note_on_c, 10, 65, 0
12, 146580, Note_on_c, 10, 69, 52
12, 146624, Note_on_c, 10, 69, 0
12, 146640, Note_on_c, 10, 72, 52
12, 146684, Note_on_c, 10, 72, 0
12, 146700, Note_on_c, 10, 69, 52
12, 146744, Note_on_c, 10, 69, 0
12, 146760, Note_on_c, 10, 72, 52
12, 146804, Note_on_c, 10, 72, 0
12, 146820, Note_on_c, 10, 76, 52
12, 146864, Note_on_c, 10, 76, 0
12, 146880, Note_on_c, 10, 77, 52
12, 146924, Note_on_c, 10, 77, 0
12, 146940, Note_on_c, 10, 72, 53
12, 146984, Note_on_c, 10, 72, 0
12, 147000, Note_on_c, 10, 69, 54
12, 147044, Note_on_c, 10, 69, 0
12, 147060, Note_on_c, 10, 65, 56
12, 147104, Note_on_c, 10, 65, 0
12, 147120, Note_on_c, 10, 77, 57
12, 147164, Note_on_c, 10, 77, 0
12, 147180, Note_on_c, 10, 72, 58
12, 147224, Note_on_c, 10, 72, 0
12, 147240, Note_on_c, 10, 69, 60
12, 147284, Note_on_c, 10, 69, 0
12, 147300, Note_on_c, 10, 65, 61
12, 147344, Note_on_c, 10, 65, 0
12, 147360, Note_on_c, 10, 77, 62
12, 147404, Note_on_c, 10, 77, 0
12, 147420, Note_on_c, 10, 72, 64
12, 147464, Note_on_c, 10, 72, 0
12, 147480, Note_on_c, 10, 69, 65
12, 147524, Note_on_c, 10, 69, 0
12, 147540, Note_on_c, 10, 65, 66
12, 147584, Note_on_c, 10, 65, 0
12, 147600, Note_on_c, 10, 77, 68
12, 147644, Note_on_c, 10, 77, 0
12, 147660, Note_on_c, 10, 72, 67
12, 147704, Note_on_c, 10, 72, 0
12, 147720, Note_on_c, 10, 69, 66
12, 147764, Note_on_c, 10, 69, 0
12, 147780, Note_on_c, 10, 65, 64
12, 147824, Note_on_c, 10, 65, 0
12, 147840, Note_on_c, 10, 77, 63
12, 147884, Note_on_c, 10, 77, 0
12, 147900, Note_on_c, 10, 72, 62
12, 147944, Note_on_c, 10, 72, 0
12, 147960, Note_on_c, 10, 69, 60
12, 148004, Note_on_c, 10, 69, 0
12, 148020, Note_on_c, 10, 65, 59
12, 148064, Note_on_c, 10, 65, 0
12, 148080, Note_on_c, 10, 77, 58
12, 148124, Note_on_c, 10, 77, 0
12, 148140, Note_on_c, 10, 72, 56
12, 148184, Note_on_c, 10, 72, 0
12, 148200, Note_on_c, 10, 69, 55
12, 148244, Note_on_c, 10, 69, 0
12, 148260, Note_on_c, 10, 65, 54
12, 148304, Note_on_c, 10, 65, 0
12, 148320, Note_on_c, 10, 77, 52
12, 148379, Note_on_c, 10, 77, 0
12, 148380, Note_on_c, 10, 74, 52
12, 148439, Note_on_c, 10, 74, 0
12, 148440, Note_on_c, 10, 70, 52
12, 148499, Note_on_c, 10, 70, 0
12, 148500, Note_on_c, 10, 65, 52
12, 148559, Note_on_c, 10, 65, 0
12, 148560, Note_on_c, 10, 62, 52
12, 148619, Note_on_c, 10, 62, 0
12, 148620, Note_on_c, 10, 58, 52
12, 148673, Note_on_c, 10, 58, 0
12, 148680, Note_on_c, 10, 55, 52
12, 148724, Note_on_c, 10, 55, 0
12, 148740, Note_on_c, 10, 70, 52
12, 148784, Note_on_c, 10, 70, 0
12, 148800, Note_on_c, 10, 75, 52
12, 148844, Note_on_c, 10, 75, 0
12, 148860, Note_on_c, 10, 70, 52
12, 148904, Note_on_c, 10, 70, 0
12, 148920, Note_on_c, 10, 67, 52
12, 148964, Note_on_c, 10, 67, 0
12, 148980, Note_on_c, 10, 70, 52
12, 149024, Note_on_c, 10, 70, 0
12, 149040, Note_on_c, 10, 65, 52
12, 149084, Note_on_c, 10, 65, 0
12, 149100, Note_on_c, 10, 70, 52
12, 149144, Note_on_c, 10, 70, 0
12, 149160, Note_on_c, 10, 74, 52
12, 149204, Note_on_c, 10, 74, 0
12, 149220, Note_on_c, 10, 70, 52
12, 149264, Note_on_c, 10, 70, 0
12, 149280, Note_on_c, 10, 65, 52
12, 149324, Note_on_c, 10, 65, 0
12, 149340, Note_on_c, 10, 70, 52
12, 149384, Note_on_c, 10, 70, 0
12, 149400, Note_on_c, 10, 65, 52
12, 149444, Note_on_c, 10, 65, 0
12, 149460, Note_on_c, 10, 69, 52
12, 149504, Note_on_c, 10, 69, 0
12, 149520, Note_on_c, 10, 72, 52
12, 149564, Note_on_c, 10, 72, 0
12, 149580, Note_on_c, 10, 69, 52
12, 149624, Note_on_c, 10, 69, 0
12, 149640, Note_on_c, 10, 65, 52
12, 149684, Note_on_c, 10, 65, 0
12, 149700, Note_on_c, 10, 69, 52
12, 149744, Note_on_c, 10, 69, 0
12, 149760, Note_on_c, 10, 66, 52
12, 149804, Note_on_c, 10, 66, 0
12, 149820, Note_on_c, 10, 69, 52
12, 149864, Note_on_c, 10, 69, 0
12, 149880, Note_on_c, 10, 74, 52
12, 149924, Note_on_c, 10, 74, 0
12, 149940, Note_on_c, 10, 69, 52
12, 149984, Note_on_c, 10, 69, 0
12, 150000, Note_on_c, 10, 66, 52
12, 150044, Note_on_c, 10, 66, 0
12, 150060, Note_on_c, 10, 69, 52
12, 150104, Note_on_c, 10, 69, 0
12, 150120, Note_on_c, 10, 67, 52
12, 150164, Note_on_c, 10, 67, 0
12, 150180, Note_on_c, 10, 70, 52
12, 150224, Note_on_c, 10, 70, 0
12, 150240, Note_on_c, 10, 74, 52
12, 150284, Note_on_c, 10, 74, 0
12, 150300, Note_on_c, 10, 70, 52
12, 150344, Note_on_c, 10, 70, 0
12, 150360, Note_on_c, 10, 67, 52
12, 150404, Note_on_c, 10, 67, 0
12, 150420, Note_on_c, 10, 70, 52
12, 150464, Note_on_c, 10, 70, 0
12, 150480, Note_on_c, 10, 67, 52
12, 150524, Note_on_c, 10, 67, 0
12, 150540, Note_on_c, 10, 70, 52
12, 150584, Note_on_c, 10, 70, 0
12, 150600, Note_on_c, 10, 72, 52
12, 150644, Note_on_c, 10, 72, 0
12, 150660, Note_on_c, 10, 70, 52
12, 150704, Note_on_c, 10, 70, 0
12, 150720, Note_on_c, 10, 67, 52
12, 150764, Note_on_c, 10, 67, 0
12, 150780, Note_on_c, 10, 70, 52
12, 150824, Note_on_c, 10, 70, 0
12, 150840, Note_on_c, 10, 65, 52
12, 150884, Note_on_c, 10, 65, 0
12, 150900, Note_on_c, 10, 69, 52
12, 150944, Note_on_c, 10, 69, 0
12, 150960, Note_on_c, 10, 72, 52
12, 151004, Note_on_c, 10, 72, 0
12, 151020, Note_on_c, 10, 69, 52
12, 151064, Note_on_c, 10, 69, 0
12, 151080, Note_on_c, 10, 65, 52
12, 151124, Note_on_c, 10, 65, 0
12, 151140, Note_on_c, 10, 69, 52
12, 151184, Note_on_c, 10, 69, 0
12, 151200, Note_on_c, 10, 66, 52
12, 151244, Note_on_c, 10, 66, 0
12, 151260, Note_on_c, 10, 69, 52
12, 151304, Note_on_c, 10, 69, 0
12, 151320, Note_on_c, 10, 74, 52
12, 151364, Note_on_c, 10, 74, 0
12, 151380, Note_on_c, 10, 69, 52
12, 151424, Note_on_c, 10, 69, 0
12, 151440, Note_on_c, 10, 66, 52
12, 151484, Note_on_c, 10, 66, 0
12, 151500, Note_on_c, 10, 69, 52
12, 151544, Note_on_c, 10, 69, 0
12, 151560, Note_on_c, 10, 67, 52
12, 151604, Note_on_c, 10, 67, 0
12, 151620, Note_on_c, 10, 70, 52
12, 151664, Note_on_c, 10, 70, 0
12, 151680, Note_on_c, 10, 74, 52
12, 151724, Note_on_c, 10, 74, 0
12, 151740, Note_on_c, 10, 70, 52
12, 151784, Note_on_c, 10, 70, 0
12, 151800, Note_on_c, 10, 67, 52
12, 151844, Note_on_c, 10, 67, 0
12, 151860, Note_on_c, 10, 70, 52
12, 151904, Note_on_c, 10, 70, 0
12, 151920, Note_on_c, 10, 67, 52
12, 151964, Note_on_c, 10, 67, 0
12, 151980, Note_on_c, 10, 70, 52
12, 152024, Note_on_c, 10, 70, 0
12, 152040, Note_on_c, 10, 72, 52
12, 152084, Note_on_c, 10, 72, 0
12, 152100, Note_on_c, 10, 70, 52
12, 152144, Note_on_c, 10, 70, 0
12, 152160, Note_on_c, 10, 67, 52
12, 152204, Note_on_c, 10, 67, 0
12, 152220, Note_on_c, 10, 70, 52
12, 152264, Note_on_c, 10, 70, 0
12, 152280, Note_on_c, 10, 65, 52
12, 152324, Note_on_c, 10, 65, 0
12, 152340, Note_on_c, 10, 69, 52
12, 152384, Note_on_c, 10, 69, 0
12, 152400, Note_on_c, 10, 72, 52
12, 152444, Note_on_c, 10, 72, 0
12, 152460, Note_on_c, 10, 69, 52
12, 152504, Note_on_c, 10, 69, 0
12, 152520, Note_on_c, 10, 65, 52
12, 152564, Note_on_c, 10, 65, 0
12, 152580, Note_on_c, 10, 69, 52
12, 152624, Note_on_c, 10, 69, 0
12, 152640, Note_on_c, 10, 66, 52
12, 152684, Note_on_c, 10, 66, 0
12, 152700, Note_on_c, 10, 69, 52
12, 152744, Note_on_c, 10, 69, 0
12, 152760, Note_on_c, 10, 74, 52
12, 152804, Note_on_c, 10, 74, 0
12, 152820, Note_on_c, 10, 69, 52
12, 152864, Note_on_c, 10, 69, 0
12, 152880, Note_on_c, 10, 66, 52
12, 152924, Note_on_c, 10, 66, 0
12, 152940, Note_on_c, 10, 69, 52
12, 152984, Note_on_c, 10, 69, 0
12, 153000, Note_on_c, 10, 67, 52
12, 153044, Note_on_c, 10, 67, 0
12, 153060, Note_on_c, 10, 70, 52
12, 153104, Note_on_c, 10, 70, 0
12, 153120, Note_on_c, 10, 74, 52
12, 153164, Note_on_c, 10, 74, 0
12, 153180, Note_on_c, 10, 70, 52
12, 153224, Note_on_c, 10, 70, 0
12, 153240, Note_on_c, 10, 67, 52
12, 153284, Note_on_c, 10, 67, 0
12, 153300, Note_on_c, 10, 70, 52
12, 153344, Note_on_c, 10, 70, 0
12, 153360, Note_on_c, 10, 67, 52
12, 153404, Note_on_c, 10, 67, 0
12, 153420, Note_on_c, 10, 70, 52
12, 153464, Note_on_c, 10, 70, 0
12, 153480, Note_on_c, 10, 72, 52
12, 153524, Note_on_c, 10, 72, 0
12, 153540, Note_on_c, 10, 70, 52
12, 153584, Note_on_c, 10, 70, 0
12, 153600, Note_on_c, 10, 67, 52
12, 153644, Note_on_c, 10, 67, 0
12, 153660, Note_on_c, 10, 70, 52
12, 153704, Note_on_c, 10, 70, 0
12, 153720, Note_on_c, 10, 65, 52
12, 153764, Note_on_c, 10, 65, 0
12, 153780, Note_on_c, 10, 69, 52
12, 153824, Note_on_c, 10, 69, 0
12, 153840, Note_on_c, 10, 72, 53
12, 153884, Note_on_c, 10, 72, 0
12, 153900, Note_on_c, 10, 69, 53
12, 153944, Note_on_c, 10, 69, 0
12, 153960, Note_on_c, 10, 65, 54
12, 154004, Note_on_c, 10, 65, 0
12, 154020, Note_on_c, 10, 69, 54
12, 154064, Note_on_c, 10, 69, 0
12, 154080, Note_on_c, 10, 65, 55
12, 154124, Note_on_c, 10, 65, 0
12, 154140, Note_on_c, 10, 70, 55
12, 154184, Note_on_c, 10, 70, 0
12, 154200, Note_on_c, 10, 74, 56
12, 154244, Note_on_c, 10, 74, 0
12, 154260, Note_on_c, 10, 70, 56
12, 154304, Note_on_c, 10, 70, 0
12, 154320, Note_on_c, 10, 65, 57
12, 154364, Note_on_c, 10, 65, 0
12, 154380, Note_on_c, 10, 70, 57
12, 154424, Note_on_c, 10, 70, 0
12, 154440, Note_on_c, 10, 65, 58
12, 154484, Note_on_c, 10, 65, 0
12, 154500, Note_on_c, 10, 72, 58
12, 154544, Note_on_c, 10, 72, 0
12, 154560, Note_on_c, 10, 75, 59
12, 154604, Note_on_c, 10, 75, 0
12, 154620, Note_on_c, 10, 72, 59
12, 154664, Note_on_c, 10, 72, 0
12, 154680, Note_on_c, 10, 65, 60
12, 154724, Note_on_c, 10, 65, 0
12, 154740, Note_on_c, 10, 72, 60
12, 154784, Note_on_c, 10, 72, 0
12, 154800, Note_on_c, 10, 65, 61
12, 154844, Note_on_c, 10, 65, 0
12, 154860, Note_on_c, 10, 70, 61
12, 154904, Note_on_c, 10, 70, 0
12, 154920, Note_on_c, 10, 74, 62
12, 154964, Note_on_c, 10, 74, 0
12, 154980, Note_on_c, 10, 70, 62
12, 155024, Note_on_c, 10, 70, 0
12, 155040, Note_on_c, 10, 65, 63
12, 155084, Note_on_c, 10, 65, 0
12, 155100, Note_on_c, 10, 70, 63
12, 155144, Note_on_c, 10, 70, 0
12, 155160, Note_on_c, 10, 65, 64
12, 155204, Note_on_c, 10, 65, 0
12, 155220, Note_on_c, 10, 69, 64
12, 155264, Note_on_c, 10, 69, 0
12, 155280, Note_on_c, 10, 72, 65
12, 155324, Note_on_c, 10, 72, 0
12, 155340, Note_on_c, 10, 69, 65
12, 155384, Note_on_c, 10, 69, 0
12, 155400, Note_on_c, 10, 65, 66
12, 155444, Note_on_c, 10, 65, 0
12, 155460, Note_on_c, 10, 69, 66
12, 155504, Note_on_c, 10, 69, 0
12, 155520, Note_on_c, 10, 65, 67
12, 155564, Note_on_c, 10, 65, 0
12, 155580, Note_on_c, 10, 70, 67
12, 155624, Note_on_c, 10, 70, 0
12, 155640, Note_on_c, 10, 74, 68
12, 155684, Note_on_c, 10, 74, 0
12, 155700, Note_on_c, 10, 70, 68
12, 155744, Note_on_c, 10, 70, 0
12, 155760, Note_on_c, 10, 65, 69
12, 155804, Note_on_c, 10, 65, 0
12, 155820, Note_on_c, 10, 70, 69
12, 155864, Note_on_c, 10, 70, 0
12, 155880, Note_on_c, 10, 65, 70
12, 155924, Note_on_c, 10, 65, 0
12, 155940, Note_on_c, 10, 72, 70
12, 155984, Note_on_c, 10, 72, 0
12, 156000, Note_on_c, 10, 75, 71
12, 156044, Note_on_c, 10, 75, 0
12, 156060, Note_on_c, 10, 72, 71
12, 156104, Note_on_c, 10, 72, 0
12, 156120, Note_on_c, 10, 65, 72
12, 156164, Note_on_c, 10, 65, 0
12, 156180, Note_on_c, 10, 72, 72
12, 156224, Note_on_c, 10, 72, 0
12, 156240, Note_on_c, 10, 65, 73
12, 156284, Note_on_c, 10, 65, 0
12, 156300, Note_on_c, 10, 70, 73
12, 156344, Note_on_c, 10, 70, 0
12, 156360, Note_on_c, 10, 74, 74
12, 156404, Note_on_c, 10, 74, 0
12, 156420, Note_on_c, 10, 65, 74
12, 156464, Note_on_c, 10, 65, 0
12, 156480, Note_on_c, 10, 70, 75
12, 156524, Note_on_c, 10, 70, 0
12, 156540, Note_on_c, 10, 74, 75
12, 156584, Note_on_c, 10, 74, 0
12, 156600, Note_on_c, 10, 77, 76
12, 156839, Note_on_c, 10, 77, 0
12, 156840, Note_on_c, 10, 72, 76
12, 156949, Note_on_c, 10, 72, 0
12, 156960, Note_on_c, 10, 74, 76
12, 157199, Note_on_c, 10, 74, 0
12, 157200, Note_on_c, 10, 70, 76
12, 157319, Note_on_c, 10, 70, 0
12, 157320, Note_on_c, 10, 65, 76
12, 157439, Note_on_c, 10, 65, 0
12, 157440, Note_on_c, 10, 70, 76
12, 157559, Note_on_c, 10, 70, 0
12, 157560, Note_on_c, 10, 74, 76
12, 157669, Note_on_c, 10, 74, 0
12, 157680, Note_on_c, 10, 77, 76
12, 157919, Note_on_c, 10, 77, 0
12, 157920, Note_on_c, 10, 74, 76
12, 158039, Note_on_c, 10, 74, 0
12, 158040, Note_on_c, 10, 70, 76
12, 158159, Note_on_c, 10, 70, 0
12, 158160, Note_on_c, 10, 74, 76
12, 158279, Note_on_c, 10, 74, 0
12, 158280, Note_on_c, 10, 77, 76
12, 158389, Note_on_c, 10, 77, 0
12, 158400, Note_on_c, 10, 82, 76
12, 158519, Note_on_c, 10, 82, 0
12, 158520, Note_on_c, 10, 77, 74
12, 158629, Note_on_c, 10, 77, 0
12, 158640, Note_on_c, 10, 77, 72
12, 158759, Note_on_c, 10, 77, 0
12, 158760, Note_on_c, 10, 74, 70
12, 158869, Note_on_c, 10, 74, 0
12, 158880, Note_on_c, 10, 77, 68
12, 158999, Note_on_c, 10, 77, 0
12, 159000, Note_on_c, 10, 74, 66
12, 159109, Note_on_c, 10, 74, 0
12, 159120, Note_on_c, 10, 77, 64
12, 159239, Note_on_c, 10, 77, 0
12, 159240, Note_on_c, 10, 74, 62
12, 159349, Note_on_c, 10, 74, 0
12, 159360, Note_on_c, 10, 77, 60
12, 159479, Note_on_c, 10, 77, 0
12, 159480, Note_on_c, 10, 74, 58
12, 159589, Note_on_c, 10, 74, 0
12, 159600, Note_on_c, 10, 75, 56
12, 159719, Note_on_c, 10, 75, 0
12, 159720, Note_on_c, 10, 72, 54
12, 159829, Note_on_c, 10, 72, 0
12, 159840, Note_on_c, 10, 72, 52
12, 159869, Note_on_c, 10, 72, 0
12, 159870, Note_on_c, 10, 74, 52
12, 159899, Note_on_c, 10, 74, 0
12, 159900, Note_on_c, 10, 72, 52
12, 159929, Note_on_c, 10, 72, 0
12, 159930, Note_on_c, 10, 74, 52
12, 159959, Note_on_c, 10, 74, 0
12, 159960, Note_on_c, 10, 72, 52
12, 159989, Note_on_c, 10, 72, 0
12, 159990, Note_on_c, 10, 74, 52
12, 160019, Note_on_c, 10, 74, 0
12, 160020, Note_on_c, 10, 72, 51
12, 160049, Note_on_c, 10, 72, 0
12, 160050, Note_on_c, 10, 74, 51
12, 160079, Note_on_c, 10, 74, 0
12, 160080, Note_on_c, 10, 72, 51
12, 160109, Note_on_c, 10, 72, 0
12, 160110, Note_on_c, 10, 74, 51
12, 160139, Note_on_c, 10, 74, 0
12, 160140, Note_on_c, 10, 72, 51
12, 160169, Note_on_c, 10, 72, 0
12, 160170, Note_on_c, 10, 74, 51
12, 160199, Note_on_c, 10, 74, 0
12, 160200, Note_on_c, 10, 72, 50
12, 160229, Note_on_c, 10, 72, 0
12, 160230, Note_on_c, 10, 74, 50
12, 160259, Note_on_c, 10, 74, 0
12, 160260, Note_on_c, 10, 72, 50
12, 160289, Note_on_c, 10, 72, 0
12, 160290, Note_on_c, 10, 74, 50
12, 160319, Note_on_c, 10, 74, 0
12, 160320, Note_on_c, 10, 72, 50
12, 160349, Note_on_c, 10, 72, 0
12, 160350, Note_on_c, 10, 74, 50
12, 160379, Note_on_c, 10, 74, 0
12, 160380, Note_on_c, 10, 72, 49
12, 160409, Note_on_c, 10, 72, 0
12, 160410, Note_on_c, 10, 74, 49
12, 160439, Note_on_c, 10, 74, 0
12, 160440, Note_on_c, 10, 72, 49
12, 160469, Note_on_c, 10, 72, 0
12, 160470, Note_on_c, 10, 74, 49
12, 160499, Note_on_c, 10, 74, 0
12, 160500, Note_on_c, 10, 72, 49
12, 160529, Note_on_c, 10, 72, 0
12, 160530, Note_on_c, 10, 74, 49
12, 160559, Note_on_c, 10, 74, 0
12, 160560, Note_on_c, 10, 72, 48
12, 160589, Note_on_c, 10, 72, 0
12, 160590, Note_on_c, 10, 74, 48
12, 160619, Note_on_c, 10, 74, 0
12, 160620, Note_on_c, 10, 72, 48
12, 160649, Note_on_c, 10, 72, 0
12, 160650, Note_on_c, 10, 74, 48
12, 160679, Note_on_c, 10, 74, 0
12, 160680, Note_on_c, 10, 72, 48
12, 160709, Note_on_c, 10, 72, 0
12, 160710, Note_on_c, 10, 74, 48
12, 160739, Note_on_c, 10, 74, 0
12, 160740, Note_on_c, 10, 72, 47
12, 160769, Note_on_c, 10, 72, 0
12, 160770, Note_on_c, 10, 74, 47
12, 160799, Note_on_c, 10, 74, 0
12, 160800, Note_on_c, 10, 72, 47
12, 160829, Note_on_c, 10, 72, 0
12, 160830, Note_on_c, 10, 74, 47
12, 160859, Note_on_c, 10, 74, 0
12, 160860, Note_on_c, 10, 72, 47
12, 160889, Note_on_c, 10, 72, 0
12, 160890, Note_on_c, 10, 74, 47
12, 160919, Note_on_c, 10, 74, 0
12, 160920, Note_on_c, 10, 72, 46
12, 160949, Note_on_c, 10, 72, 0
12, 160950, Note_on_c, 10, 74, 46
12, 160979, Note_on_c, 10, 74, 0
12, 160980, Note_on_c, 10, 72, 46
12, 161009, Note_on_c, 10, 72, 0
12, 161010, Note_on_c, 10, 74, 46
12, 161039, Note_on_c, 10, 74, 0
12, 161040, Note_on_c, 10, 72, 46
12, 161069, Note_on_c, 10, 72, 0
12, 161070, Note_on_c, 10, 74, 46
12, 161099, Note_on_c, 10, 74, 0
12, 161100, Note_on_c, 10, 72, 45
12, 161129, Note_on_c, 10, 72, 0
12, 161130, Note_on_c, 10, 74, 45
12, 161159, Note_on_c, 10, 74, 0
12, 161160, Note_on_c, 10, 72, 45
12, 161189, Note_on_c, 10, 72, 0
12, 161190, Note_on_c, 10, 74, 45
12, 161219, Note_on_c, 10, 74, 0
12, 161220, Note_on_c, 10, 70, 45
12, 161249, Note_on_c, 10, 70, 0
12, 161250, Note_on_c, 10, 72, 45
12, 161275, Note_on_c, 10, 72, 0
12, 161280, Note_on_c, 10, 74, 44
12, 161759, Note_on_c, 10, 74, 0
12, 161760, Note_on_c, 10, 72, 44
12, 161879, Note_on_c, 10, 72, 0
12, 161880, Note_on_c, 10, 74, 44
12, 161969, Note_on_c, 10, 74, 0
12, 161980, Note_on_c, 10, 77, 44
12, 161999, Note_on_c, 10, 77, 0
12, 162000, Note_on_c, 10, 76, 44
12, 162119, Note_on_c, 10, 76, 0
12, 162120, Note_on_c, 10, 74, 44
12, 162239, Note_on_c, 10, 74, 0
12, 162240, Note_on_c, 10, 76, 44
12, 162359, Note_on_c, 10, 76, 0
12, 162360, Note_on_c, 10, 77, 44
12, 162599, Note_on_c, 10, 77, 0
12, 162600, Note_on_c, 10, 72, 44
12, 162709, Note_on_c, 10, 72, 0
12, 162720, Note_on_c, 10, 74, 44
12, 163199, Note_on_c, 10, 74, 0
12, 163200, Note_on_c, 10, 72, 44
12, 163319, Note_on_c, 10, 72, 0
12, 163320, Note_on_c, 10, 74, 44
12, 163409, Note_on_c, 10, 74, 0
12, 163420, Note_on_c, 10, 77, 44
12, 163439, Note_on_c, 10, 77, 0
12, 163440, Note_on_c, 10, 76, 44
12, 163559, Note_on_c, 10, 76, 0
12, 163560, Note_on_c, 10, 74, 44
12, 163679, Note_on_c, 10, 74, 0
12, 163680, Note_on_c, 10, 76, 44
12, 163789, Note_on_c, 10, 76, 0
12, 163798, Control_c, 10, 11, 64
12, 163800, Note_on_c, 10, 77, 76
12, 163860, Control_c, 10, 11, 67
12, 163920, Control_c, 10, 11, 69
12, 163980, Control_c, 10, 11, 72
12, 164039, Note_on_c, 10, 77, 0
12, 164040, Note_on_c, 10, 72, 76
12, 164040, Control_c, 10, 11, 75
12, 164100, Control_c, 10, 11, 77
12, 164159, Note_on_c, 10, 72, 0
12, 164160, Note_on_c, 10, 74, 76
12, 164160, Control_c, 10, 11, 80
12, 164220, Control_c, 10, 11, 82
12, 164280, Control_c, 10, 11, 85
12, 164340, Control_c, 10, 11, 88
12, 164399, Note_on_c, 10, 74, 0
12, 164400, Control_c, 10, 11, 90
12, 164400, Note_on_c, 10, 70, 76
12, 164460, Control_c, 10, 11, 93
12, 164519, Note_on_c, 10, 70, 0
12, 164520, Note_on_c, 10, 65, 76
12, 164520, Control_c, 10, 11, 96
12, 164580, Control_c, 10, 11, 98
12, 164640, Control_c, 10, 11, 101
12, 164700, Control_c, 10, 11, 103
12, 164759, Note_on_c, 10, 65, 0
12, 164760, Note_on_c, 10, 69, 76
12, 164760, Control_c, 10, 11, 106
12, 164820, Control_c, 10, 11, 109
12, 164879, Note_on_c, 10, 69, 0
12, 164880, Control_c, 10, 11, 111
12, 164880, Note_on_c, 10, 70, 76
12, 164940, Control_c, 10, 11, 114
12, 165000, Control_c, 10, 11, 117
12, 165060, Control_c, 10, 11, 119
12, 165119, Note_on_c, 10, 70, 0
12, 165120, Note_on_c, 10, 74, 76
12, 165120, Control_c, 10, 11, 122
12, 165180, Control_c, 10, 11, 124
12, 165238, Control_c, 10, 11, 127
12, 165239, Note_on_c, 10, 74, 0
12, 165240, Note_on_c, 10, 77, 76
12, 165479, Note_on_c, 10, 77, 0
12, 165480, Note_on_c, 10, 72, 76
12, 165589, Note_on_c, 10, 72, 0
12, 165600, Note_on_c, 10, 74, 76
12, 165839, Note_on_c, 10, 74, 0
12, 165840, Note_on_c, 10, 70, 76
12, 165959, Note_on_c, 10, 70, 0
12, 165960, Note_on_c, 10, 65, 76
12, 166079, Note_on_c, 10, 65, 0
12, 166080, Note_on_c, 10, 70, 76
12, 166199, Note_on_c, 10, 70, 0
12, 166200, Note_on_c, 10, 74, 76
12, 166309, Note_on_c, 10, 74, 0
12, 166320, Note_on_c, 10, 77, 76
12, 166559, Note_on_c, 10, 77, 0
12, 166560, Note_on_c, 10, 74, 76
12, 166679, Note_on_c, 10, 74, 0
12, 166680, Note_on_c, 10, 70, 76
12, 166799, Note_on_c, 10, 70, 0
12, 166800, Note_on_c, 10, 74, 76
12, 166919, Note_on_c, 10, 74, 0
12, 166920, Note_on_c, 10, 77, 76
12, 167029, Note_on_c, 10, 77, 0
12, 167040, Note_on_c, 10, 82, 84
12, 167100, Control_c, 10, 11, 112
12, 167123, Control_c, 10, 11, 109
12, 167147, Control_c, 10, 11, 107
12, 167170, Control_c, 10, 11, 104
12, 167193, Control_c, 10, 11, 101
12, 167217, Control_c, 10, 11, 99
12, 167240, Control_c, 10, 11, 96
12, 167263, Control_c, 10, 11, 93
12, 167287, Control_c, 10, 11, 91
12, 167310, Control_c, 10, 11, 88
12, 167333, Control_c, 10, 11, 85
12, 167357, Control_c, 10, 11, 83
12, 167380, Control_c, 10, 11, 80
12, 167403, Control_c, 10, 11, 77
12, 167427, Control_c, 10, 11, 75
12, 167450, Control_c, 10, 11, 72
12, 167473, Control_c, 10, 11, 69
12, 167497, Control_c, 10, 11, 64
12, 167509, Note_on_c, 10, 82, 0
12, 167520, Note_on_c, 10, 77, 84
12, 167609, Note_on_c, 10, 77, 0
12, 167640, Note_on_c, 10, 74, 84
12, 167729, Note_on_c, 10, 74, 0
12, 167760, Note_on_c, 10, 77, 84
12, 167849, Note_on_c, 10, 77, 0
12, 167880, Note_on_c, 10, 74, 84
12, 167969, Note_on_c, 10, 74, 0
12, 168000, Note_on_c, 10, 70, 84
12, 168089, Note_on_c, 10, 70, 0
12, 168120, Note_on_c, 10, 65, 84
12, 168209, Note_on_c, 10, 65, 0
12, 168240, Note_on_c, 10, 70, 84
12, 168329, Note_on_c, 10, 70, 0
12, 168360, Note_on_c, 10, 74, 84
12, 168449, Note_on_c, 10, 74, 0
12, 168480, Note_on_c, 10, 77, 84
12, 168569, Note_on_c, 10, 77, 0
12, 168600, Note_on_c, 10, 74, 84
12, 168689, Note_on_c, 10, 74, 0
12, 168720, Note_on_c, 10, 70, 84
12, 168809, Note_on_c, 10, 70, 0
12, 168840, Note_on_c, 10, 65, 84
12, 168929, Note_on_c, 10, 65, 0
12, 168960, Note_on_c, 10, 70, 84
12, 169049, Note_on_c, 10, 70, 0
12, 169080, Note_on_c, 10, 74, 84
12, 169169, Note_on_c, 10, 74, 0
12, 169200, Note_on_c, 10, 77, 84
12, 169289, Note_on_c, 10, 77, 0
12, 169320, Note_on_c, 10, 82, 84
12, 169409, Note_on_c, 10, 82, 0
12, 169440, Note_on_c, 10, 86, 84
12, 169529, Note_on_c, 10, 86, 0
12, 169560, Note_on_c, 10, 89, 84
12, 169649, Note_on_c, 10, 89, 0
12, 169680, Note_on_c, 10, 58, 84
12, 169769, Note_on_c, 10, 58, 0
12, 169800, Note_on_c, 10, 63, 84
12, 169889, Note_on_c, 10, 63, 0
12, 169920, Note_on_c, 10, 60, 84
12, 169949, Note_on_c, 10, 60, 0
12, 169950, Note_on_c, 10, 62, 84
12, 169979, Note_on_c, 10, 62, 0
12, 169980, Note_on_c, 10, 60, 84
12, 170009, Note_on_c, 10, 60, 0
12, 170010, Note_on_c, 10, 62, 84
12, 170039, Note_on_c, 10, 62, 0
12, 170040, Note_on_c, 10, 60, 84
12, 170069, Note_on_c, 10, 60, 0
12, 170070, Note_on_c, 10, 62, 84
12, 170099, Note_on_c, 10, 62, 0
12, 170100, Note_on_c, 10, 60, 84
12, 170129, Note_on_c, 10, 60, 0
12, 170130, Note_on_c, 10, 62, 84
12, 170159, Note_on_c, 10, 62, 0
12, 170160, Note_on_c, 10, 60, 84
12, 170189, Note_on_c, 10, 60, 0
12, 170190, Note_on_c, 10, 62, 84
12, 170219, Note_on_c, 10, 62, 0
12, 170220, Note_on_c, 10, 58, 84
12, 170249, Note_on_c, 10, 58, 0
12, 170250, Note_on_c, 10, 60, 84
12, 170275, Note_on_c, 10, 60, 0
12, 170280, Note_on_c, 10, 72, 84
12, 170309, Note_on_c, 10, 72, 0
12, 170310, Note_on_c, 10, 74, 84
12, 170339, Note_on_c, 10, 74, 0
12, 170340, Note_on_c, 10, 72, 84
12, 170369, Note_on_c, 10, 72, 0
12, 170370, Note_on_c, 10, 74, 84
12, 170399, Note_on_c, 10, 74, 0
12, 170400, Note_on_c, 10, 72, 84
12, 170429, Note_on_c, 10, 72, 0
12, 170430, Note_on_c, 10, 74, 84
12, 170459, Note_on_c, 10, 74, 0
12, 170460, Note_on_c, 10, 72, 84
12, 170489, Note_on_c, 10, 72, 0
12, 170490, Note_on_c, 10, 74, 84
12, 170519, Note_on_c, 10, 74, 0
12, 170520, Note_on_c, 10, 72, 84
12, 170549, Note_on_c, 10, 72, 0
12, 170550, Note_on_c, 10, 74, 84
12, 170579, Note_on_c, 10, 74, 0
12, 170580, Note_on_c, 10, 70, 84
12, 170609, Note_on_c, 10, 70, 0
12, 170610, Note_on_c, 10, 72, 84
12, 170635, Note_on_c, 10, 72, 0
12, 170640, Control_c, 10, 11, 64
12, 170640, Note_on_c, 10, 72, 84
12, 170669, Note_on_c, 10, 72, 0
12, 170670, Note_on_c, 10, 74, 84
12, 170699, Note_on_c, 10, 74, 0
12, 170700, Note_on_c, 10, 72, 84
12, 170729, Note_on_c, 10, 72, 0
12, 170730, Note_on_c, 10, 74, 84
12, 170759, Note_on_c, 10, 74, 0
12, 170760, Note_on_c, 10, 72, 84
12, 170760, Control_c, 10, 11, 66
12, 170789, Note_on_c, 10, 72, 0
12, 170790, Note_on_c, 10, 74, 84
12, 170819, Note_on_c, 10, 74, 0
12, 170820, Note_on_c, 10, 72, 84
12, 170849, Note_on_c, 10, 72, 0
12, 170850, Note_on_c, 10, 74, 84
12, 170879, Note_on_c, 10, 74, 0
12, 170880, Control_c, 10, 11, 68
12, 170880, Note_on_c, 10, 72, 84
12, 170909, Note_on_c, 10, 72, 0
12, 170910, Note_on_c, 10, 74, 84
12, 170939, Note_on_c, 10, 74, 0
12, 170940, Note_on_c, 10, 72, 84
12, 170969, Note_on_c, 10, 72, 0
12, 170970, Note_on_c, 10, 74, 84
12, 170999, Note_on_c, 10, 74, 0
12, 171000, Note_on_c, 10, 72, 84
12, 171000, Control_c, 10, 11, 70
12, 171029, Note_on_c, 10, 72, 0
12, 171030, Note_on_c, 10, 74, 84
12, 171059, Note_on_c, 10, 74, 0
12, 171060, Note_on_c, 10, 72, 84
12, 171089, Note_on_c, 10, 72, 0
12, 171090, Note_on_c, 10, 74, 84
12, 171119, Note_on_c, 10, 74, 0
12, 171120, Control_c, 10, 11, 72
12, 171120, Note_on_c, 10, 72, 84
12, 171149, Note_on_c, 10, 72, 0
12, 171150, Note_on_c, 10, 74, 84
12, 171179, Note_on_c, 10, 74, 0
12, 171180, Note_on_c, 10, 72, 84
12, 171209, Note_on_c, 10, 72, 0
12, 171210, Note_on_c, 10, 74, 84
12, 171239, Note_on_c, 10, 74, 0
12, 171240, Note_on_c, 10, 72, 84
12, 171240, Control_c, 10, 11, 74
12, 171269, Note_on_c, 10, 72, 0
12, 171270, Note_on_c, 10, 74, 84
12, 171299, Note_on_c, 10, 74, 0
12, 171300, Note_on_c, 10, 70, 84
12, 171329, Note_on_c, 10, 70, 0
12, 171330, Note_on_c, 10, 72, 84
12, 171355, Note_on_c, 10, 72, 0
12, 171360, Note_on_c, 10, 70, 84
12, 171360, Control_c, 10, 11, 76
12, 171480, Control_c, 10, 11, 78
12, 171599, Note_on_c, 10, 70, 0
12, 171600, Control_c, 10, 11, 80
12, 171720, Control_c, 10, 11, 82
12, 171840, Control_c, 10, 11, 84
12, 171960, Note_on_c, 10, 70, 84
12, 171960, Control_c, 10, 11, 86
12, 172049, Note_on_c, 10, 70, 0
12, 172060, Note_on_c, 10, 72, 84
12, 172079, Note_on_c, 10, 72, 0
12, 172080, Control_c, 10, 11, 88
12, 172080, Note_on_c, 10, 69, 84
12, 172199, Note_on_c, 10, 69, 0
12, 172200, Note_on_c, 10, 67, 84
12, 172200, Control_c, 10, 11, 90
12, 172319, Note_on_c, 10, 67, 0
12, 172320, Note_on_c, 10, 65, 84
12, 172320, Control_c, 10, 11, 92
12, 172429, Note_on_c, 10, 65, 0
12, 172440, Note_on_c, 10, 65, 84
12, 172440, Control_c, 10, 11, 94
12, 172559, Note_on_c, 10, 65, 0
12, 172560, Note_on_c, 10, 67, 84
12, 172560, Control_c, 10, 11, 96
12, 172679, Note_on_c, 10, 67, 0
12, 172680, Control_c, 10, 11, 98
12, 172680, Note_on_c, 10, 69, 84
12, 172789, Note_on_c, 10, 69, 0
12, 172800, Note_on_c, 10, 70, 84
12, 172800, Control_c, 10, 11, 100
12, 172920, Control_c, 10, 11, 102
12, 173040, Control_c, 10, 11, 104
12, 173089, Note_on_c, 10, 70, 0
12, 173100, Note_on_c, 10, 72, 84
12, 173119, Note_on_c, 10, 72, 0
12, 173120, Note_on_c, 10, 70, 84
12, 173139, Note_on_c, 10, 70, 0
12, 173140, Note_on_c, 10, 69, 84
12, 173159, Note_on_c, 10, 69, 0
12, 173160, Note_on_c, 10, 70, 84
12, 173160, Control_c, 10, 11, 106
12, 173279, Note_on_c, 10, 70, 0
12, 173280, Note_on_c, 10, 72, 84
12, 173280, Control_c, 10, 11, 108
12, 173399, Note_on_c, 10, 72, 0
12, 173400, Note_on_c, 10, 74, 84
12, 173400, Control_c, 10, 11, 110
12, 173489, Note_on_c, 10, 74, 0
12, 173500, Note_on_c, 10, 77, 84
12, 173517, Note_on_c, 10, 77, 0
12, 173519, Control_c, 10, 11, 127
12, 173520, Note_on_c, 10, 75, 84
12, 173580, Control_c, 10, 11, 112
12, 173759, Note_on_c, 10, 75, 0
12, 173760, Note_on_c, 10, 74, 84
12, 173787, Control_c, 10, 11, 109
12, 173813, Control_c, 10, 11, 107
12, 173840, Control_c, 10, 11, 104
12, 173867, Control_c, 10, 11, 101
12, 173879, Note_on_c, 10, 74, 0
12, 173880, Note_on_c, 10, 72, 84
12, 173893, Control_c, 10, 11, 99
12, 173920, Control_c, 10, 11, 96
12, 173947, Control_c, 10, 11, 93
12, 173973, Control_c, 10, 11, 91
12, 174000, Control_c, 10, 11, 88
12, 174027, Control_c, 10, 11, 85
12, 174053, Control_c, 10, 11, 83
12, 174080, Control_c, 10, 11, 80
12, 174107, Control_c, 10, 11, 77
12, 174119, Note_on_c, 10, 72, 0
12, 174120, Note_on_c, 10, 77, 84
12, 174133, Control_c, 10, 11, 75
12, 174160, Control_c, 10, 11, 72
12, 174187, Control_c, 10, 11, 69
12, 174213, Control_c, 10, 11, 67
12, 174229, Note_on_c, 10, 77, 0
12, 174238, Control_c, 10, 11, 64
12, 174240, Note_on_c, 10, 70, 84
12, 174479, Note_on_c, 10, 70, 0
12, 175200, Control_c, 10, 11, 127
12, 175320, Note_on_c, 10, 69, 52
12, 175379, Note_on_c, 10, 69, 0
12, 175380, Note_on_c, 10, 72, 51
12, 175439, Note_on_c, 10, 72, 0
12, 175440, Note_on_c, 10, 75, 50
12, 175499, Note_on_c, 10, 75, 0
12, 175500, Note_on_c, 10, 72, 48
12, 175559, Note_on_c, 10, 72, 0
12, 175560, Note_on_c, 10, 69, 47
12, 175619, Note_on_c, 10, 69, 0
12, 175620, Note_on_c, 10, 72, 46
12, 175673, Note_on_c, 10, 72, 0
12, 175680, Note_on_c, 10, 72, 52
12, 175799, Note_on_c, 10, 72, 0
12, 175800, Note_on_c, 10, 70, 52
12, 176039, Note_on_c, 10, 70, 0
12, 176760, Note_on_c, 10, 69, 52
12, 176819, Note_on_c, 10, 69, 0
12, 176820, Note_on_c, 10, 72, 51
12, 176879, Note_on_c, 10, 72, 0
12, 176880, Note_on_c, 10, 75, 50
12, 176939, Note_on_c, 10, 75, 0
12, 176940, Note_on_c, 10, 72, 48
12, 176999, Note_on_c, 10, 72, 0
12, 177000, Note_on_c, 10, 69, 47
12, 177059, Note_on_c, 10, 69, 0
12, 177060, Note_on_c, 10, 72, 46
12, 177113, Note_on_c, 10, 72, 0
12, 177120, Note_on_c, 10, 70, 44
12, 177839, Note_on_c, 10, 70, 0
12, 177840, Note_on_c, 10, 70, 44
12, 178549, Note_on_c, 10, 70, 0
12, 178558, Control_c, 10, 11, 80
12, 178560, Note_on_c, 10, 82, 68
12, 178620, Control_c, 10, 11, 82
12, 178680, Control_c, 10, 11, 84
12, 178740, Control_c, 10, 11, 86
12, 178800, Control_c, 10, 11, 88
12, 178860, Control_c, 10, 11, 90
12, 178920, Control_c, 10, 11, 92
12, 178980, Control_c, 10, 11, 94
12, 179040, Control_c, 10, 11, 96
12, 179100, Control_c, 10, 11, 98
12, 179160, Control_c, 10, 11, 100
12, 179220, Control_c, 10, 11, 102
12, 179279, Note_on_c, 10, 82, 0
12, 179280, Note_on_c, 10, 82, 68
12, 179280, Control_c, 10, 11, 104
12, 179340, Control_c, 10, 11, 105
12, 179400, Control_c, 10, 11, 107
12, 179460, Control_c, 10, 11, 109
12, 179520, Control_c, 10, 11, 111
12, 179580, Control_c, 10, 11, 113
12, 179640, Control_c, 10, 11, 115
12, 179700, Control_c, 10, 11, 117
12, 179760, Control_c, 10, 11, 119
12, 179820, Control_c, 10, 11, 121
12, 179869, Note_on_c, 10, 82, 0
12, 179880, Note_on_c, 10, 80, 68
12, 179880, Control_c, 10, 11, 123
12, 179929, Note_on_c, 10, 80, 0
12, 179940, Control_c, 10, 11, 127
12, 179940, Note_on_c, 10, 79, 68
12, 179959, Note_on_c, 10, 79, 0
12, 179960, Note_on_c, 10, 80, 68
12, 179979, Note_on_c, 10, 80, 0
12, 179980, Note_on_c, 10, 82, 68
12, 179999, Note_on_c, 10, 82, 0
12, 180000, Note_on_c, 10, 80, 68
12, 180000, Control_c, 10, 11, 127
12, 180060, Control_c, 10, 11, 125
12, 180120, Control_c, 10, 11, 123
12, 180180, Control_c, 10, 11, 121
12, 180239, Note_on_c, 10, 80, 0
12, 180240, Control_c, 10, 11, 119
12, 180240, Note_on_c, 10, 79, 68
12, 180300, Control_c, 10, 11, 117
12, 180360, Control_c, 10, 11, 115
12, 180420, Control_c, 10, 11, 113
12, 180480, Control_c, 10, 11, 111
12, 180540, Control_c, 10, 11, 109
12, 180600, Control_c, 10, 11, 107
12, 180660, Control_c, 10, 11, 105
12, 180720, Control_c, 10, 11, 104
12, 180780, Control_c, 10, 11, 102
12, 180840, Control_c, 10, 11, 100
12, 180900, Control_c, 10, 11, 98
12, 180960, Control_c, 10, 11, 96
12, 181020, Control_c, 10, 11, 94
12, 181080, Control_c, 10, 11, 92
12, 181140, Control_c, 10, 11, 90
12, 181189, Note_on_c, 10, 79, 0
12, 181200, Control_c, 10, 11, 88
12, 181200, Note_on_c, 10, 79, 68
12, 181259, Note_on_c, 10, 79, 0
12, 181260, Note_on_c, 10, 80, 68
12, 181260, Control_c, 10, 11, 86
12, 181319, Note_on_c, 10, 80, 0
12, 181320, Control_c, 10, 11, 84
12, 181320, Note_on_c, 10, 82, 68
12, 181379, Note_on_c, 10, 82, 0
12, 181380, Note_on_c, 10, 79, 68
12, 181380, Control_c, 10, 11, 82
12, 181433, Note_on_c, 10, 79, 0
12, 181440, Control_c, 10, 11, 80
12, 181440, Note_on_c, 10, 77, 68
12, 181560, Control_c, 10, 11, 85
12, 181679, Note_on_c, 10, 77, 0
12, 181680, Note_on_c, 10, 70, 68
12, 181680, Control_c, 10, 11, 89
12, 181789, Note_on_c, 10, 70, 0
12, 181800, Note_on_c, 10, 82, 68
12, 181800, Control_c, 10, 11, 93
12, 181920, Control_c, 10, 11, 97
12, 182040, Control_c, 10, 11, 101
12, 182160, Control_c, 10, 11, 105
12, 182280, Control_c, 10, 11, 107
12, 182400, Control_c, 10, 11, 111
12, 182520, Control_c, 10, 11, 115
12, 182640, Control_c, 10, 11, 119
12, 182749, Note_on_c, 10, 82, 0
12, 182760, Control_c, 10, 11, 127
12, 182760, Note_on_c, 10, 80, 68
12, 182809, Note_on_c, 10, 80, 0
12, 182820, Note_on_c, 10, 79, 68
12, 182839, Note_on_c, 10, 79, 0
12, 182840, Note_on_c, 10, 80, 68
12, 182859, Note_on_c, 10, 80, 0
12, 182860, Note_on_c, 10, 82, 68
12, 182879, Note_on_c, 10, 82, 0
12, 182880, Note_on_c, 10, 80, 68
12, 182880, Control_c, 10, 11, 127
12, 183000, Control_c, 10, 11, 123
12, 183119, Note_on_c, 10, 80, 0
12, 183120, Control_c, 10, 11, 119
12, 183120, Note_on_c, 10, 79, 68
12, 183240, Control_c, 10, 11, 115
12, 183360, Control_c, 10, 11, 111
12, 183480, Control_c, 10, 11, 107
12, 183600, Control_c, 10, 11, 105
12, 183720, Control_c, 10, 11, 101
12, 183840, Control_c, 10, 11, 97
12, 183960, Control_c, 10, 11, 93
12, 184069, Note_on_c, 10, 79, 0
12, 184080, Note_on_c, 10, 79, 68
12, 184080, Control_c, 10, 11, 89
12, 184139, Note_on_c, 10, 79, 0
12, 184140, Note_on_c, 10, 80, 68
12, 184199, Note_on_c, 10, 80, 0
12, 184200, Control_c, 10, 11, 85
12, 184200, Note_on_c, 10, 82, 68
12, 184259, Note_on_c, 10, 82, 0
12, 184260, Note_on_c, 10, 79, 68
12, 184313, Note_on_c, 10, 79, 0
12, 184320, Note_on_c, 10, 77, 68
12, 184320, Control_c, 10, 11, 81
12, 184559, Note_on_c, 10, 77, 0
12, 189120, Control_c, 10, 11, 127
12, 189240, Note_on_c, 10, 70, 52
12, 189329, Note_on_c, 10, 70, 0
12, 189340, Note_on_c, 10, 70, 52
12, 189359, Note_on_c, 10, 70, 0
12, 189360, Note_on_c, 10, 69, 52
12, 189479, Note_on_c, 10, 69, 0
12, 189480, Note_on_c, 10, 67, 52
12, 189599, Note_on_c, 10, 67, 0
12, 189600, Note_on_c, 10, 65, 52
12, 189709, Note_on_c, 10, 65, 0
12, 189720, Note_on_c, 10, 65, 52
12, 189839, Note_on_c, 10, 65, 0
12, 189840, Note_on_c, 10, 67, 52
12, 189959, Note_on_c, 10, 67, 0
12, 189960, Note_on_c, 10, 69, 52
12, 190069, Note_on_c, 10, 69, 0
12, 190080, Note_on_c, 10, 70, 52
12, 190319, Note_on_c, 10, 70, 0
12, 195000, Note_on_c, 10, 70, 44
12, 195089, Note_on_c, 10, 70, 0
12, 195100, Note_on_c, 10, 70, 44
12, 195119, Note_on_c, 10, 70, 0
12, 195120, Note_on_c, 10, 69, 44
12, 195239, Note_on_c, 10, 69, 0
12, 195240, Note_on_c, 10, 67, 44
12, 195359, Note_on_c, 10, 67, 0
12, 195360, Note_on_c, 10, 65, 44
12, 195469, Note_on_c, 10, 65, 0
12, 195480, Note_on_c, 10, 65, 44
12, 195599, Note_on_c, 10, 65, 0
12, 195600, Note_on_c, 10, 67, 44
12, 195719, Note_on_c, 10, 67, 0
12, 195720, Note_on_c, 10, 69, 44
12, 195829, Note_on_c, 10, 69, 0
12, 195840, Note_on_c, 10, 70, 44
12, 196199, Note_on_c, 10, 70, 0
12, 196560, Note_on_c, 10, 72, 44
12, 196919, Note_on_c, 10, 72, 0
12, 196920, Control_c, 10, 11, 64
12, 197280, Note_on_c, 10, 69, 76
12, 197320, Control_c, 10, 11, 68
12, 197360, Control_c, 10, 11, 71
12, 197400, Control_c, 10, 11, 75
12, 197440, Control_c, 10, 11, 78
12, 197480, Control_c, 10, 11, 82
12, 197520, Control_c, 10, 11, 85
12, 197560, Control_c, 10, 11, 89
12, 197600, Control_c, 10, 11, 92
12, 197640, Control_c, 10, 11, 96
12, 197680, Control_c, 10, 11, 99
12, 197720, Control_c, 10, 11, 103
12, 197760, Control_c, 10, 11, 106
12, 197800, Control_c, 10, 11, 110
12, 197840, Control_c, 10, 11, 113
12, 197880, Control_c, 10, 11, 117
12, 197920, Control_c, 10, 11, 120
12, 197960, Control_c, 10, 11, 124
12, 197989, Note_on_c, 10, 69, 0
12, 198000, Note_on_c, 10, 70, 84
12, 198060, Control_c, 10, 11, 112
12, 198239, Note_on_c, 10, 70, 0
12, 198360, Control_c, 10, 11, 127
12, 198600, Program_c, 10, 45
12, 198720, Note_on_c, 10, 62, 44
12, 198959, Note_on_c, 10, 62, 0
12, 199080, Note_on_c, 10, 62, 44
12, 199319, Note_on_c, 10, 62, 0
12, 199440, Note_on_c, 10, 62, 44
12, 199679, Note_on_c, 10, 62, 0
12, 200160, Program_c, 10, 48
12, 200160, End_track
13, 0, Start_track
13, 0, Title_t, "Violin II"
13, 0, MIDI_port, 0
13, 0, Program_c, 11, 48
13, 0, Control_c, 11, 7, 96
13, 0, Control_c, 11, 10, 24
13, 0, Control_c, 11, 11, 127
13, 0, Note_on_c, 11, 58, 52
13, 119, Note_on_c, 11, 58, 0
13, 120, Note_on_c, 11, 65, 52
13, 229, Note_on_c, 11, 65, 0
13, 240, Note_on_c, 11, 65, 52
13, 359, Note_on_c, 11, 65, 0
13, 360, Note_on_c, 11, 67, 52
13, 479, Note_on_c, 11, 67, 0
13, 480, Note_on_c, 11, 65, 52
13, 589, Note_on_c, 11, 65, 0
13, 600, Note_on_c, 11, 65, 52
13, 719, Note_on_c, 11, 65, 0
13, 720, Note_on_c, 11, 63, 52
13, 839, Note_on_c, 11, 63, 0
13, 840, Note_on_c, 11, 62, 52
13, 949, Note_on_c, 11, 62, 0
13, 960, Note_on_c, 11, 62, 52
13, 1079, Note_on_c, 11, 62, 0
13, 1080, Note_on_c, 11, 60, 52
13, 1199, Note_on_c, 11, 60, 0
13, 1200, Note_on_c, 11, 58, 52
13, 1309, Note_on_c, 11, 58, 0
13, 1320, Note_on_c, 11, 58, 52
13, 1429, Note_on_c, 11, 58, 0
13, 1440, Note_on_c, 11, 58, 52
13, 1559, Note_on_c, 11, 58, 0
13, 1560, Note_on_c, 11, 65, 52
13, 1669, Note_on_c, 11, 65, 0
13, 1680, Note_on_c, 11, 65, 52
13, 1799, Note_on_c, 11, 65, 0
13, 1800, Note_on_c, 11, 67, 52
13, 1919, Note_on_c, 11, 67, 0
13, 1920, Note_on_c, 11, 65, 52
13, 2029, Note_on_c, 11, 65, 0
13, 2040, Note_on_c, 11, 65, 52
13, 2159, Note_on_c, 11, 65, 0
13, 2160, Note_on_c, 11, 63, 52
13, 2279, Note_on_c, 11, 63, 0
13, 2280, Note_on_c, 11, 62, 52
13, 2389, Note_on_c, 11, 62, 0
13, 2400, Note_on_c, 11, 62, 52
13, 2519, Note_on_c, 11, 62, 0
13, 2520, Note_on_c, 11, 60, 52
13, 2639, Note_on_c, 11, 60, 0
13, 2640, Note_on_c, 11, 62, 52
13, 2749, Note_on_c, 11, 62, 0
13, 2760, Note_on_c, 11, 62, 52
13, 2879, Note_on_c, 11, 62, 0
13, 2880, Note_on_c, 11, 63, 52
13, 2989, Note_on_c, 11, 63, 0
13, 3000, Note_on_c, 11, 63, 52
13, 3109, Note_on_c, 11, 63, 0
13, 3120, Note_on_c, 11, 63, 52
13, 3239, Note_on_c, 11, 63, 0
13, 3240, Note_on_c, 11, 65, 52
13, 3359, Note_on_c, 11, 65, 0
13, 3360, Note_on_c, 11, 63, 52
13, 3469, Note_on_c, 11, 63, 0
13, 3480, Note_on_c, 11, 63, 52
13, 3599, Note_on_c, 11, 63, 0
13, 3600, Note_on_c, 11, 62, 52
13, 3719, Note_on_c, 11, 62, 0
13, 3720, Note_on_c, 11, 60, 52
13, 3829, Note_on_c, 11, 60, 0
13, 3840, Note_on_c, 11, 60, 52
13, 3959, Note_on_c, 11, 60, 0
13, 3960, Note_on_c, 11, 58, 52
13, 4079, Note_on_c, 11, 58, 0
13, 4080, Note_on_c, 11, 60, 52
13, 4189, Note_on_c, 11, 60, 0
13, 4200, Note_on_c, 11, 60, 52
13, 4309, Note_on_c, 11, 60, 0
13, 4320, Note_on_c, 11, 60, 52
13, 4439, Note_on_c, 11, 60, 0
13, 4440, Note_on_c, 11, 63, 52
13, 4549, Note_on_c, 11, 63, 0
13, 4560, Note_on_c, 11, 63, 52
13, 4679, Note_on_c, 11, 63, 0
13, 4680, Note_on_c, 11, 65, 52
13, 4799, Note_on_c, 11, 65, 0
13, 4800, Note_on_c, 11, 63, 52
13, 4909, Note_on_c, 11, 63, 0
13, 4920, Note_on_c, 11, 63, 52
13, 5039, Note_on_c, 11, 63, 0
13, 5040, Note_on_c, 11, 62, 52
13, 5159, Note_on_c, 11, 62, 0
13, 5160, Note_on_c, 11, 60, 52
13, 5269, Note_on_c, 11, 60, 0
13, 5280, Note_on_c, 11, 60, 52
13, 5399, Note_on_c, 11, 60, 0
13, 5400, Note_on_c, 11, 58, 52
13, 5519, Note_on_c, 11, 58, 0
13, 5520, Note_on_c, 11, 60, 52
13, 5629, Note_on_c, 11, 60, 0
13, 5640, Note_on_c, 11, 60, 52
13, 5749, Note_on_c, 11, 60, 0
13, 5760, Note_on_c, 11, 62, 52
13, 5819, Note_on_c, 11, 62, 0
13, 5820, Note_on_c, 11, 58, 53
13, 5879, Note_on_c, 11, 58, 0
13, 5880, Note_on_c, 11, 62, 54
13, 5939, Note_on_c, 11, 62, 0
13, 5940, Note_on_c, 11, 58, 55
13, 5999, Note_on_c, 11, 58, 0
13, 6000, Note_on_c, 11, 62, 56
13, 6059, Note_on_c, 11, 62, 0
13, 6060, Note_on_c, 11, 58, 57
13, 6119, Note_on_c, 11, 58, 0
13, 6120, Note_on_c, 11, 62, 58
13, 6179, Note_on_c, 11, 62, 0
13, 6180, Note_on_c, 11, 58, 59
13, 6239, Note_on_c, 11, 58, 0
13, 6240, Note_on_c, 11, 62, 60
13, 6299, Note_on_c, 11, 62, 0
13, 6300, Note_on_c, 11, 58, 61
13, 6359, Note_on_c, 11, 58, 0
13, 6360, Note_on_c, 11, 62, 62
13, 6419, Note_on_c, 11, 62, 0
13, 6420, Note_on_c, 11, 58, 63
13, 6473, Note_on_c, 11, 58, 0
13, 6480, Note_on_c, 11, 60, 64
13, 6539, Note_on_c, 11, 60, 0
13, 6540, Note_on_c, 11, 58, 65
13, 6599, Note_on_c, 11, 58, 0
13, 6600, Note_on_c, 11, 60, 66
13, 6659, Note_on_c, 11, 60, 0
13, 6660, Note_on_c, 11, 58, 67
13, 6719, Note_on_c, 11, 58, 0
13, 6720, Note_on_c, 11, 60, 68
13, 6779, Note_on_c, 11, 60, 0
13, 6780, Note_on_c, 11, 58, 69
13, 6839, Note_on_c, 11, 58, 0
13, 6840, Note_on_c, 11, 60, 70
13, 6899, Note_on_c, 11, 60, 0
13, 6900, Note_on_c, 11, 58, 71
13, 6959, Note_on_c, 11, 58, 0
13, 6960, Note_on_c, 11, 60, 72
13, 7019, Note_on_c, 11, 60, 0
13, 7020, Note_on_c, 11, 58, 73
13, 7079, Note_on_c, 11, 58, 0
13, 7080, Note_on_c, 11, 60, 74
13, 7139, Note_on_c, 11, 60, 0
13, 7140, Note_on_c, 11, 58, 75
13, 7193, Note_on_c, 11, 58, 0
13, 7200, Note_on_c, 11, 62, 76
13, 7259, Note_on_c, 11, 62, 0
13, 7260, Note_on_c, 11, 58, 52
13, 7319, Note_on_c, 11, 58, 0
13, 7320, Note_on_c, 11, 62, 52
13, 7379, Note_on_c, 11, 62, 0
13, 7380, Note_on_c, 11, 58, 52
13, 7439, Note_on_c, 11, 58, 0
13, 7440, Note_on_c, 11, 62, 52
13, 7499, Note_on_c, 11, 62, 0
13, 7500, Note_on_c, 11, 58, 52
13, 7559, Note_on_c, 11, 58, 0
13, 7560, Note_on_c, 11, 62, 52
13, 7619, Note_on_c, 11, 62, 0
13, 7620, Note_on_c, 11, 58, 52
13, 7679, Note_on_c, 11, 58, 0
13, 7680, Note_on_c, 11, 62, 52
13, 7739, Note_on_c, 11, 62, 0
13, 7740, Note_on_c, 11, 58, 52
13, 7799, Note_on_c, 11, 58, 0
13, 7800, Note_on_c, 11, 62, 52
13, 7859, Note_on_c, 11, 62, 0
13, 7860, Note_on_c, 11, 58, 52
13, 7913, Note_on_c, 11, 58, 0
13, 7920, Note_on_c, 11, 62, 52
13, 7979, Note_on_c, 11, 62, 0
13, 7980, Note_on_c, 11, 58, 54
13, 8039, Note_on_c, 11, 58, 0
13, 8040, Note_on_c, 11, 62, 57
13, 8099, Note_on_c, 11, 62, 0
13, 8100, Note_on_c, 11, 58, 60
13, 8159, Note_on_c, 11, 58, 0
13, 8160, Note_on_c, 11, 62, 62
13, 8219, Note_on_c, 11, 62, 0
13, 8220, Note_on_c, 11, 58, 65
13, 8273, Note_on_c, 11, 58, 0
13, 8280, Note_on_c, 11, 63, 68
13, 8339, Note_on_c, 11, 63, 0
13, 8340, Note_on_c, 11, 57, 66
13, 8399, Note_on_c, 11, 57, 0
13, 8400, Note_on_c, 11, 63, 63
13, 8459, Note_on_c, 11, 63, 0
13, 8460, Note_on_c, 11, 57, 60
13, 8519, Note_on_c, 11, 57, 0
13, 8520, Note_on_c, 11, 63, 58
13, 8579, Note_on_c, 11, 63, 0
13, 8580, Note_on_c, 11, 57, 55
13, 8633, Note_on_c, 11, 57, 0
13, 8640, Note_on_c, 11, 62, 52
13, 8699, Note_on_c, 11, 62, 0
13, 8700, Note_on_c, 11, 58, 52
13, 8759, Note_on_c, 11, 58, 0
13, 8760, Note_on_c, 11, 65, 52
13, 8819, Note_on_c, 11, 65, 0
13, 8820, Note_on_c, 11, 62, 52
13, 8879, Note_on_c, 11, 62, 0
13, 8880, Note_on_c, 11, 65, 52
13, 8939, Note_on_c, 11, 65, 0
13, 8940, Note_on_c, 11, 62, 52
13, 8999, Note_on_c, 11, 62, 0
13, 9000, Note_on_c, 11, 67, 52
13, 9059, Note_on_c, 11, 67, 0
13, 9060, Note_on_c, 11, 63, 52
13, 9119, Note_on_c, 11, 63, 0
13, 9120, Note_on_c, 11, 65, 52
13, 9179, Note_on_c, 11, 65, 0
13, 9180, Note_on_c, 11, 62, 52
13, 9239, Note_on_c, 11, 62, 0
13, 9240, Note_on_c, 11, 65, 52
13, 9299, Note_on_c, 11, 65, 0
13, 9300, Note_on_c, 11, 62, 52
13, 9359, Note_on_c, 11, 62, 0
13, 9360, Note_on_c, 11, 63, 52
13, 9419, Note_on_c, 11, 63, 0
13, 9420, Note_on_c, 11, 60, 52
13, 9479, Note_on_c, 11, 60, 0
13, 9480, Note_on_c, 11, 62, 52
13, 9539, Note_on_c, 11, 62, 0
13, 9540, Note_on_c, 11, 58, 52
13, 9599, Note_on_c, 11, 58, 0
13, 9600, Note_on_c, 11, 62, 52
13, 9659, Note_on_c, 11, 62, 0
13, 9660, Note_on_c, 11, 58, 52
13, 9719, Note_on_c, 11, 58, 0
13, 9720, Note_on_c, 11, 60, 52
13, 9779, Note_on_c, 11, 60, 0
13, 9780, Note_on_c, 11, 57, 52
13, 9839, Note_on_c, 11, 57, 0
13, 9840, Note_on_c, 11, 62, 52
13, 9899, Note_on_c, 11, 62, 0
13, 9900, Note_on_c, 11, 58, 52
13, 9959, Note_on_c, 11, 58, 0
13, 9960, Note_on_c, 11, 62, 52
13, 10019, Note_on_c, 11, 62, 0
13, 10020, Note_on_c, 11, 58, 52
13, 10073, Note_on_c, 11, 58, 0
13, 10080, Note_on_c, 11, 62, 52
13, 10139, Note_on_c, 11, 62, 0
13, 10140, Note_on_c, 11, 58, 52
13, 10199, Note_on_c, 11, 58, 0
13, 10200, Note_on_c, 11, 65, 52
13, 10259, Note_on_c, 11, 65, 0
13, 10260, Note_on_c, 11, 62, 52
13, 10319, Note_on_c, 11, 62, 0
13, 10320, Note_on_c, 11, 65, 52
13, 10379, Note_on_c, 11, 65, 0
13, 10380, Note_on_c, 11, 62, 52
13, 10439, Note_on_c, 11, 62, 0
13, 10440, Note_on_c, 11, 67, 52
13, 10499, Note_on_c, 11, 67, 0
13, 10500, Note_on_c, 11, 63, 52
13, 10559, Note_on_c, 11, 63, 0
13, 10560, Note_on_c, 11, 65, 52
13, 10619, Note_on_c, 11, 65, 0
13, 10620, Note_on_c, 11, 62, 52
13, 10679, Note_on_c, 11, 62, 0
13, 10680, Note_on_c, 11, 65, 52
13, 10739, Note_on_c, 11, 65, 0
13, 10740, Note_on_c, 11, 62, 52
13, 10799, Note_on_c, 11, 62, 0
13, 10800, Note_on_c, 11, 63, 52
13, 10859, Note_on_c, 11, 63, 0
13, 10860, Note_on_c, 11, 60, 52
13, 10919, Note_on_c, 11, 60, 0
13, 10920, Note_on_c, 11, 62, 52
13, 10979, Note_on_c, 11, 62, 0
13, 10980, Note_on_c, 11, 58, 52
13, 11039, Note_on_c, 11, 58, 0
13, 11040, Note_on_c, 11, 62, 52
13, 11099, Note_on_c, 11, 62, 0
13, 11100, Note_on_c, 11, 58, 52
13, 11159, Note_on_c, 11, 58, 0
13, 11160, Note_on_c, 11, 60, 52
13, 11219, Note_on_c, 11, 60, 0
13, 11220, Note_on_c, 11, 57, 52
13, 11279, Note_on_c, 11, 57, 0
13, 11280, Note_on_c, 11, 62, 52
13, 11339, Note_on_c, 11, 62, 0
13, 11340, Note_on_c, 11, 58, 52
13, 11399, Note_on_c, 11, 58, 0
13, 11400, Note_on_c, 11, 62, 52
13, 11459, Note_on_c, 11, 62, 0
13, 11460, Note_on_c, 11, 58, 52
13, 11513, Note_on_c, 11, 58, 0
13, 11520, Note_on_c, 11, 63, 52
13, 11579, Note_on_c, 11, 63, 0
13, 11580, Note_on_c, 11, 57, 52
13, 11639, Note_on_c, 11, 57, 0
13, 11640, Note_on_c, 11, 63, 52
13, 11699, Note_on_c, 11, 63, 0
13, 11700, Note_on_c, 11, 60, 52
13, 11759, Note_on_c, 11, 60, 0
13, 11760, Note_on_c, 11, 63, 52
13, 11819, Note_on_c, 11, 63, 0
13, 11820, Note_on_c, 11, 60, 52
13, 11879, Note_on_c, 11, 60, 0
13, 11880, Note_on_c, 11, 65, 52
13, 11939, Note_on_c, 11, 65, 0
13, 11940, Note_on_c, 11, 62, 52
13, 11999, Note_on_c, 11, 62, 0
13, 12000, Note_on_c, 11, 63, 52
13, 12059, Note_on_c, 11, 63, 0
13, 12060, Note_on_c, 11, 60, 52
13, 12119, Note_on_c, 11, 60, 0
13, 12120, Note_on_c, 11, 63, 52
13, 12179, Note_on_c, 11, 63, 0
13, 12180, Note_on_c, 11, 60, 52
13, 12239, Note_on_c, 11, 60, 0
13, 12240, Note_on_c, 11, 62, 52
13, 12299, Note_on_c, 11, 62, 0
13, 12300, Note_on_c, 11, 58, 52
13, 12359, Note_on_c, 11, 58, 0
13, 12360, Note_on_c, 11, 60, 52
13, 12419, Note_on_c, 11, 60, 0
13, 12420, Note_on_c, 11, 57, 52
13, 12479, Note_on_c, 11, 57, 0
13, 12480, Note_on_c, 11, 60, 52
13, 12539, Note_on_c, 11, 60, 0
13, 12540, Note_on_c, 11, 57, 52
13, 12599, Note_on_c, 11, 57, 0
13, 12600, Note_on_c, 11, 58, 52
13, 12659, Note_on_c, 11, 58, 0
13, 12660, Note_on_c, 11, 55, 52
13, 12719, Note_on_c, 11, 55, 0
13, 12720, Note_on_c, 11, 60, 52
13, 12779, Note_on_c, 11, 60, 0
13, 12780, Note_on_c, 11, 57, 52
13, 12839, Note_on_c, 11, 57, 0
13, 12840, Note_on_c, 11, 60, 52
13, 12899, Note_on_c, 11, 60, 0
13, 12900, Note_on_c, 11, 57, 52
13, 12953, Note_on_c, 11, 57, 0
13, 12960, Note_on_c, 11, 60, 52
13, 13019, Note_on_c, 11, 60, 0
13, 13020, Note_on_c, 11, 57, 52
13, 13079, Note_on_c, 11, 57, 0
13, 13080, Note_on_c, 11, 63, 52
13, 13139, Note_on_c, 11, 63, 0
13, 13140, Note_on_c, 11, 60, 52
13, 13199, Note_on_c, 11, 60, 0
13, 13200, Note_on_c, 11, 63, 52
13, 13259, Note_on_c, 11, 63, 0
13, 13260, Note_on_c, 11, 60, 52
13, 13319, Note_on_c, 11, 60, 0
13, 13320, Note_on_c, 11, 65, 52
13, 13379, Note_on_c, 11, 65, 0
13, 13380, Note_on_c, 11, 62, 52
13, 13439, Note_on_c, 11, 62, 0
13, 13440, Note_on_c, 11, 63, 52
13, 13499, Note_on_c, 11, 63, 0
13, 13500, Note_on_c, 11, 60, 52
13, 13559, Note_on_c, 11, 60, 0
13, 13560, Note_on_c, 11, 63, 52
13, 13619, Note_on_c, 11, 63, 0
13, 13620, Note_on_c, 11, 60, 52
13, 13679, Note_on_c, 11, 60, 0
13, 13680, Note_on_c, 11, 62, 52
13, 13739, Note_on_c, 11, 62, 0
13, 13740, Note_on_c, 11, 58, 52
13, 13799, Note_on_c, 11, 58, 0
13, 13800, Note_on_c, 11, 60, 52
13, 13859, Note_on_c, 11, 60, 0
13, 13860, Note_on_c, 11, 57, 52
13, 13919, Note_on_c, 11, 57, 0
13, 13920, Note_on_c, 11, 60, 52
13, 13979, Note_on_c, 11, 60, 0
13, 13980, Note_on_c, 11, 57, 52
13, 14039, Note_on_c, 11, 57, 0
13, 14040, Note_on_c, 11, 58, 52
13, 14099, Note_on_c, 11, 58, 0
13, 14100, Note_on_c, 11, 55, 52
13, 14159, Note_on_c, 11, 55, 0
13, 14160, Note_on_c, 11, 60, 52
13, 14219, Note_on_c, 11, 60, 0
13, 14220, Note_on_c, 11, 57, 52
13, 14279, Note_on_c, 11, 57, 0
13, 14280, Note_on_c, 11, 60, 52
13, 14339, Note_on_c, 11, 60, 0
13, 14340, Note_on_c, 11, 57, 52
13, 14393, Note_on_c, 11, 57, 0
13, 14400, Note_on_c, 11, 62, 52
13, 14459, Note_on_c, 11, 62, 0
13, 14460, Note_on_c, 11, 58, 53
13, 14519, Note_on_c, 11, 58, 0
13, 14520, Note_on_c, 11, 62, 54
13, 14579, Note_on_c, 11, 62, 0
13, 14580, Note_on_c, 11, 58, 55
13, 14639, Note_on_c, 11, 58, 0
13, 14640, Note_on_c, 11, 62, 56
13, 14699, Note_on_c, 11, 62, 0
13, 14700, Note_on_c, 11, 58, 57
13, 14759, Note_on_c, 11, 58, 0
13, 14760, Note_on_c, 11, 62, 58
13, 14819, Note_on_c, 11, 62, 0
13, 14820, Note_on_c, 11, 58, 59
13, 14879, Note_on_c, 11, 58, 0
13, 14880, Note_on_c, 11, 62, 60
13, 14939, Note_on_c, 11, 62, 0
13, 14940, Note_on_c, 11, 58, 61
13, 14999, Note_on_c, 11, 58, 0
13, 15000, Note_on_c, 11, 62, 62
13, 15059, Note_on_c, 11, 62, 0
13, 15060, Note_on_c, 11, 58, 63
13, 15119, Note_on_c, 11, 58, 0
13, 15120, Note_on_c, 11, 60, 64
13, 15179, Note_on_c, 11, 60, 0
13, 15180, Note_on_c, 11, 58, 65
13, 15239, Note_on_c, 11, 58, 0
13, 15240, Note_on_c, 11, 60, 66
13, 15299, Note_on_c, 11, 60, 0
13, 15300, Note_on_c, 11, 58, 67
13, 15359, Note_on_c, 11, 58, 0
13, 15360, Note_on_c, 11, 60, 68
13, 15419, Note_on_c, 11, 60, 0
13, 15420, Note_on_c, 11, 58, 69
13, 15479, Note_on_c, 11, 58, 0
13, 15480, Note_on_c, 11, 60, 70
13, 15539, Note_on_c, 11, 60, 0
13, 15540, Note_on_c, 11, 58, 71
13, 15599, Note_on_c, 11, 58, 0
13, 15600, Note_on_c, 11, 60, 72
13, 15659, Note_on_c, 11, 60, 0
13, 15660, Note_on_c, 11, 58, 73
13, 15719, Note_on_c, 11, 58, 0
13, 15720, Note_on_c, 11, 60, 74
13, 15779, Note_on_c, 11, 60, 0
13, 15780, Note_on_c, 11, 58, 75
13, 15833, Note_on_c, 11, 58, 0
13, 15840, Note_on_c, 11, 62, 76
13, 15899, Note_on_c, 11, 62, 0
13, 15900, Note_on_c, 11, 58, 52
13, 15959, Note_on_c, 11, 58, 0
13, 15960, Note_on_c, 11, 62, 52
13, 16019, Note_on_c, 11, 62, 0
13, 16020, Note_on_c, 11, 58, 52
13, 16079, Note_on_c, 11, 58, 0
13, 16080, Note_on_c, 11, 62, 52
13, 16139, Note_on_c, 11, 62, 0
13, 16140, Note_on_c, 11, 58, 52
13, 16199, Note_on_c, 11, 58, 0
13, 16200, Note_on_c, 11, 62, 52
13, 16259, Note_on_c, 11, 62, 0
13, 16260, Note_on_c, 11, 58, 52
13, 16319, Note_on_c, 11, 58, 0
13, 16320, Note_on_c, 11, 62, 52
13, 16379, Note_on_c, 11, 62, 0
13, 16380, Note_on_c, 11, 58, 52
13, 16439, Note_on_c, 11, 58, 0
13, 16440, Note_on_c, 11, 62, 52
13, 16499, Note_on_c, 11, 62, 0
13, 16500, Note_on_c, 11, 58, 52
13, 16553, Note_on_c, 11, 58, 0
13, 16560, Note_on_c, 11, 62, 52
13, 16619, Note_on_c, 11, 62, 0
13, 16620, Note_on_c, 11, 58, 54
13, 16679, Note_on_c, 11, 58, 0
13, 16680, Note_on_c, 11, 62, 57
13, 16739, Note_on_c, 11, 62, 0
13, 16740, Note_on_c, 11, 58, 60
13, 16799, Note_on_c, 11, 58, 0
13, 16800, Note_on_c, 11, 62, 62
13, 16859, Note_on_c, 11, 62, 0
13, 16860, Note_on_c, 11, 58, 65
13, 16913, Note_on_c, 11, 58, 0
13, 16920, Note_on_c, 11, 63, 68
13, 16979, Note_on_c, 11, 63, 0
13, 16980, Note_on_c, 11, 57, 66
13, 17039, Note_on_c, 11, 57, 0
13, 17040, Note_on_c, 11, 63, 63
13, 17099, Note_on_c, 11, 63, 0
13, 17100, Note_on_c, 11, 57, 60
13, 17159, Note_on_c, 11, 57, 0
13, 17160, Note_on_c, 11, 63, 58
13, 17219, Note_on_c, 11, 63, 0
13, 17220, Note_on_c, 11, 57, 55
13, 17273, Note_on_c, 11, 57, 0
13, 17280, Note_on_c, 11, 62, 52
13, 17339, Note_on_c, 11, 62, 0
13, 17340, Note_on_c, 11, 58, 52
13, 17399, Note_on_c, 11, 58, 0
13, 17400, Note_on_c, 11, 62, 52
13, 17459, Note_on_c, 11, 62, 0
13, 17460, Note_on_c, 11, 58, 52
13, 17519, Note_on_c, 11, 58, 0
13, 17520, Note_on_c, 11, 62, 52
13, 17579, Note_on_c, 11, 62, 0
13, 17580, Note_on_c, 11, 58, 52
13, 17639, Note_on_c, 11, 58, 0
13, 17640, Note_on_c, 11, 62, 52
13, 17699, Note_on_c, 11, 62, 0
13, 17700, Note_on_c, 11, 58, 52
13, 17759, Note_on_c, 11, 58, 0
13, 17760, Note_on_c, 11, 62, 52
13, 17819, Note_on_c, 11, 62, 0
13, 17820, Note_on_c, 11, 58, 52
13, 17879, Note_on_c, 11, 58, 0
13, 17880, Note_on_c, 11, 62, 52
13, 17939, Note_on_c, 11, 62, 0
13, 17940, Note_on_c, 11, 58, 52
13, 17993, Note_on_c, 11, 58, 0
13, 18000, Note_on_c, 11, 60, 52
13, 18059, Note_on_c, 11, 60, 0
13, 18060, Note_on_c, 11, 57, 52
13, 18119, Note_on_c, 11, 57, 0
13, 18120, Note_on_c, 11, 60, 52
13, 18179, Note_on_c, 11, 60, 0
13, 18180, Note_on_c, 11, 57, 52
13, 18239, Note_on_c, 11, 57, 0
13, 18240, Note_on_c, 11, 60, 52
13, 18299, Note_on_c, 11, 60, 0
13, 18300, Note_on_c, 11, 57, 52
13, 18359, Note_on_c, 11, 57, 0
13, 18360, Note_on_c, 11, 60, 52
13, 18419, Note_on_c, 11, 60, 0
13, 18420, Note_on_c, 11, 57, 52
13, 18479, Note_on_c, 11, 57, 0
13, 18480, Note_on_c, 11, 60, 52
13, 18539, Note_on_c, 11, 60, 0
13, 18540, Note_on_c, 11, 57, 52
13, 18599, Note_on_c, 11, 57, 0
13, 18600, Note_on_c, 11, 60, 52
13, 18659, Note_on_c, 11, 60, 0
13, 18660, Note_on_c, 11, 57, 52
13, 18713, Note_on_c, 11, 57, 0
13, 18720, Note_on_c, 11, 62, 52
13, 18779, Note_on_c, 11, 62, 0
13, 18780, Note_on_c, 11, 58, 53
13, 18839, Note_on_c, 11, 58, 0
13, 18840, Note_on_c, 11, 62, 54
13, 18899, Note_on_c, 11, 62, 0
13, 18900, Note_on_c, 11, 58, 56
13, 18959, Note_on_c, 11, 58, 0
13, 18960, Note_on_c, 11, 62, 57
13, 19019, Note_on_c, 11, 62, 0
13, 19020, Note_on_c, 11, 58, 58
13, 19079, Note_on_c, 11, 58, 0
13, 19080, Note_on_c, 11, 62, 60
13, 19139, Note_on_c, 11, 62, 0
13, 19140, Note_on_c, 11, 58, 61
13, 19199, Note_on_c, 11, 58, 0
13, 19200, Note_on_c, 11, 62, 62
13, 19259, Note_on_c, 11, 62, 0
13, 19260, Note_on_c, 11, 58, 64
13, 19319, Note_on_c, 11, 58, 0
13, 19320, Note_on_c, 11, 62, 65
13, 19379, Note_on_c, 11, 62, 0
13, 19380, Note_on_c, 11, 58, 66
13, 19433, Note_on_c, 11, 58, 0
13, 19440, Note_on_c, 11, 63, 68
13, 19499, Note_on_c, 11, 63, 0
13, 19500, Note_on_c, 11, 58, 67
13, 19559, Note_on_c, 11, 58, 0
13, 19560, Note_on_c, 11, 63, 66
13, 19619, Note_on_c, 11, 63, 0
13, 19620, Note_on_c, 11, 58, 64
13, 19679, Note_on_c, 11, 58, 0
13, 19680, Note_on_c, 11, 63, 63
13, 19739, Note_on_c, 11, 63, 0
13, 19740, Note_on_c, 11, 58, 62
13, 19799, Note_on_c, 11, 58, 0
13, 19800, Note_on_c, 11, 63, 60
13, 19859, Note_on_c, 11, 63, 0
13, 19860, Note_on_c, 11, 60, 59
13, 19919, Note_on_c, 11, 60, 0
13, 19920, Note_on_c, 11, 63, 58
13, 19979, Note_on_c, 11, 63, 0
13, 19980, Note_on_c, 11, 60, 56
13, 20039, Note_on_c, 11, 60, 0
13, 20040, Note_on_c, 11, 63, 55
13, 20099, Note_on_c, 11, 63, 0
13, 20100, Note_on_c, 11, 60, 54
13, 20153, Note_on_c, 11, 60, 0
13, 20160, Note_on_c, 11, 62, 52
13, 20219, Note_on_c, 11, 62, 0
13, 20220, Note_on_c, 11, 58, 52
13, 20279, Note_on_c, 11, 58, 0
13, 20280, Note_on_c, 11, 62, 52
13, 20339, Note_on_c, 11, 62, 0
13, 20340, Note_on_c, 11, 58, 52
13, 20399, Note_on_c, 11, 58, 0
13, 20400, Note_on_c, 11, 62, 52
13, 20459, Note_on_c, 11, 62, 0
13, 20460, Note_on_c, 11, 58, 52
13, 20519, Note_on_c, 11, 58, 0
13, 20520, Note_on_c, 11, 62, 52
13, 20579, Note_on_c, 11, 62, 0
13, 20580, Note_on_c, 11, 58, 52
13, 20639, Note_on_c, 11, 58, 0
13, 20640, Note_on_c, 11, 62, 52
13, 20699, Note_on_c, 11, 62, 0
13, 20700, Note_on_c, 11, 58, 52
13, 20759, Note_on_c, 11, 58, 0
13, 20760, Note_on_c, 11, 62, 52
13, 20819, Note_on_c, 11, 62, 0
13, 20820, Note_on_c, 11, 58, 52
13, 20873, Note_on_c, 11, 58, 0
13, 20880, Note_on_c, 11, 63, 52
13, 20939, Note_on_c, 11, 63, 0
13, 20940, Note_on_c, 11, 60, 52
13, 20999, Note_on_c, 11, 60, 0
13, 21000, Note_on_c, 11, 63, 52
13, 21059, Note_on_c, 11, 63, 0
13, 21060, Note_on_c, 11, 60, 52
13, 21119, Note_on_c, 11, 60, 0
13, 21120, Note_on_c, 11, 63, 52
13, 21179, Note_on_c, 11, 63, 0
13, 21180, Note_on_c, 11, 60, 52
13, 21239, Note_on_c, 11, 60, 0
13, 21240, Note_on_c, 11, 63, 52
13, 21299, Note_on_c, 11, 63, 0
13, 21300, Note_on_c, 11, 60, 52
13, 21359, Note_on_c, 11, 60, 0
13, 21360, Note_on_c, 11, 63, 52
13, 21419, Note_on_c, 11, 63, 0
13, 21420, Note_on_c, 11, 60, 52
13, 21479, Note_on_c, 11, 60, 0
13, 21480, Note_on_c, 11, 63, 52
13, 21539, Note_on_c, 11, 63, 0
13, 21540, Note_on_c, 11, 60, 52
13, 21593, Note_on_c, 11, 60, 0
13, 21600, Note_on_c, 11, 62, 52
13, 21659, Note_on_c, 11, 62, 0
13, 21660, Note_on_c, 11, 58, 53
13, 21719, Note_on_c, 11, 58, 0
13, 21720, Note_on_c, 11, 62, 54
13, 21779, Note_on_c, 11, 62, 0
13, 21780, Note_on_c, 11, 58, 56
13, 21839, Note_on_c, 11, 58, 0
13, 21840, Note_on_c, 11, 62, 57
13, 21899, Note_on_c, 11, 62, 0
13, 21900, Note_on_c, 11, 58, 58
13, 21959, Note_on_c, 11, 58, 0
13, 21960, Note_on_c, 11, 62, 60
13, 22019, Note_on_c, 11, 62, 0
13, 22020, Note_on_c, 11, 58, 61
13, 22079, Note_on_c, 11, 58, 0
13, 22080, Note_on_c, 11, 62, 62
13, 22139, Note_on_c, 11, 62, 0
13, 22140, Note_on_c, 11, 58, 64
13, 22199, Note_on_c, 11, 58, 0
13, 22200, Note_on_c, 11, 62, 65
13, 22259, Note_on_c, 11, 62, 0
13, 22260, Note_on_c, 11, 58, 66
13, 22313, Note_on_c, 11, 58, 0
13, 22320, Note_on_c, 11, 60, 68
13, 22379, Note_on_c, 11, 60, 0
13, 22380, Note_on_c, 11, 57, 67
13, 22439, Note_on_c, 11, 57, 0
13, 22440, Note_on_c, 11, 60, 66
13, 22499, Note_on_c, 11, 60, 0
13, 22500, Note_on_c, 11, 57, 64
13, 22559, Note_on_c, 11, 57, 0
13, 22560, Note_on_c, 11, 62, 63
13, 22619, Note_on_c, 11, 62, 0
13, 22620, Note_on_c, 11, 58, 62
13, 22673, Note_on_c, 11, 58, 0
13, 22680, Note_on_c, 11, 63, 60
13, 22739, Note_on_c, 11, 63, 0
13, 22740, Note_on_c, 11, 57, 59
13, 22799, Note_on_c, 11, 57, 0
13, 22800, Note_on_c, 11, 63, 58
13, 22859, Note_on_c, 11, 63, 0
13, 22860, Note_on_c, 11, 57, 56
13, 22919, Note_on_c, 11, 57, 0
13, 22920, Note_on_c, 11, 63, 55
13, 22979, Note_on_c, 11, 63, 0
13, 22980, Note_on_c, 11, 57, 54
13, 23033, Note_on_c, 11, 57, 0
13, 23040, Note_on_c, 11, 62, 52
13, 23519, Note_on_c, 11, 62, 0
13, 23520, Note_on_c, 11, 67, 60
13, 23639, Note_on_c, 11, 67, 0
13, 23640, Note_on_c, 11, 65, 52
13, 23749, Note_on_c, 11, 65, 0
13, 23760, Note_on_c, 11, 62, 52
13, 23879, Note_on_c, 11, 62, 0
13, 23880, Note_on_c, 11, 67, 60
13, 23999, Note_on_c, 11, 67, 0
13, 24000, Note_on_c, 11, 65, 52
13, 24109, Note_on_c, 11, 65, 0
13, 24120, Note_on_c, 11, 62, 52
13, 24239, Note_on_c, 11, 62, 0
13, 24240, Note_on_c, 11, 67, 60
13, 24359, Note_on_c, 11, 67, 0
13, 24360, Note_on_c, 11, 65, 52
13, 24469, Note_on_c, 11, 65, 0
13, 24480, Note_on_c, 11, 62, 52
13, 24719, Note_on_c, 11, 62, 0
13, 24840, Note_on_c, 11, 58, 52
13, 25079, Note_on_c, 11, 58, 0
13, 25200, Note_on_c, 11, 58, 52
13, 25439, Note_on_c, 11, 58, 0
13, 25560, Note_on_c, 11, 58, 44
13, 25613, Note_on_c, 11, 58, 0
13, 25620, Note_on_c, 11, 58, 44
13, 25673, Note_on_c, 11, 58, 0
13, 25680, Note_on_c, 11, 58, 44
13, 25733, Note_on_c, 11, 58, 0
13, 25740, Note_on_c, 11, 58, 44
13, 25793, Note_on_c, 11, 58, 0
13, 25800, Note_on_c, 11, 58, 44
13, 25853, Note_on_c, 11, 58, 0
13, 25860, Note_on_c, 11, 58, 44
13, 25913, Note_on_c, 11, 58, 0
13, 25920, Note_on_c, 11, 58, 44
13, 26159, Note_on_c, 11, 58, 0
13, 26280, Note_on_c, 11, 60, 44
13, 26333, Note_on_c, 11, 60, 0
13, 26340, Note_on_c, 11, 60, 44
13, 26393, Note_on_c, 11, 60, 0
13, 26400, Note_on_c, 11, 60, 44
13, 26453, Note_on_c, 11, 60, 0
13, 26460, Note_on_c, 11, 60, 44
13, 26513, Note_on_c, 11, 60, 0
13, 26520, Note_on_c, 11, 60, 44
13, 26573, Note_on_c, 11, 60, 0
13, 26580, Note_on_c, 11, 60, 44
13, 26633, Note_on_c, 11, 60, 0
13, 26640, Note_on_c, 11, 62, 44
13, 26879, Note_on_c, 11, 62, 0
13, 27000, Note_on_c, 11, 58, 44
13, 27053, Note_on_c, 11, 58, 0
13, 27060, Note_on_c, 11, 58, 44
13, 27113, Note_on_c, 11, 58, 0
13, 27120, Note_on_c, 11, 58, 44
13, 27173, Note_on_c, 11, 58, 0
13, 27180, Note_on_c, 11, 58, 44
13, 27233, Note_on_c, 11, 58, 0
13, 27240, Note_on_c, 11, 58, 44
13, 27293, Note_on_c, 11, 58, 0
13, 27300, Note_on_c, 11, 58, 44
13, 27353, Note_on_c, 11, 58, 0
13, 27360, Note_on_c, 11, 60, 44
13, 27599, Note_on_c, 11, 60, 0
13, 28440, Note_on_c, 11, 65, 44
13, 28493, Note_on_c, 11, 65, 0
13, 28500, Note_on_c, 11, 65, 44
13, 28553, Note_on_c, 11, 65, 0
13, 28560, Note_on_c, 11, 65, 44
13, 28613, Note_on_c, 11, 65, 0
13, 28620, Note_on_c, 11, 65, 44
13, 28673, Note_on_c, 11, 65, 0
13, 28680, Note_on_c, 11, 65, 44
13, 28733, Note_on_c, 11, 65, 0
13, 28740, Note_on_c, 11, 65, 44
13, 28793, Note_on_c, 11, 65, 0
13, 28800, Note_on_c, 11, 62, 52
13, 28859, Note_on_c, 11, 62, 0
13, 28860, Note_on_c, 11, 58, 52
13, 28919, Note_on_c, 11, 58, 0
13, 28920, Note_on_c, 11, 65, 52
13, 28979, Note_on_c, 11, 65, 0
13, 28980, Note_on_c, 11, 62, 52
13, 29039, Note_on_c, 11, 62, 0
13, 29040, Note_on_c, 11, 65, 52
13, 29099, Note_on_c, 11, 65, 0
13, 29100, Note_on_c, 11, 62, 52
13, 29159, Note_on_c, 11, 62, 0
13, 29160, Note_on_c, 11, 67, 52
13, 29219, Note_on_c, 11, 67, 0
13, 29220, Note_on_c, 11, 63, 52
13, 29279, Note_on_c, 11, 63, 0
13, 29280, Note_on_c, 11, 65, 52
13, 29339, Note_on_c, 11, 65, 0
13, 29340, Note_on_c, 11, 62, 52
13, 29399, Note_on_c, 11, 62, 0
13, 29400, Note_on_c, 11, 65, 52
13, 29459, Note_on_c, 11, 65, 0
13, 29460, Note_on_c, 11, 62, 52
13, 29519, Note_on_c, 11, 62, 0
13, 29520, Note_on_c, 11, 63, 52
13, 29579, Note_on_c, 11, 63, 0
13, 29580, Note_on_c, 11, 60, 52
13, 29639, Note_on_c, 11, 60, 0
13, 29640, Note_on_c, 11, 62, 52
13, 29699, Note_on_c, 11, 62, 0
13, 29700, Note_on_c, 11, 58, 52
13, 29759, Note_on_c, 11, 58, 0
13, 29760, Note_on_c, 11, 62, 52
13, 29819, Note_on_c, 11, 62, 0
13, 29820, Note_on_c, 11, 58, 52
13, 29879, Note_on_c, 11, 58, 0
13, 29880, Note_on_c, 11, 60, 52
13, 29939, Note_on_c, 11, 60, 0
13, 29940, Note_on_c, 11, 57, 52
13, 29999, Note_on_c, 11, 57, 0
13, 30000, Note_on_c, 11, 62, 52
13, 30059, Note_on_c, 11, 62, 0
13, 30060, Note_on_c, 11, 58, 52
13, 30119, Note_on_c, 11, 58, 0
13, 30120, Note_on_c, 11, 62, 52
13, 30179, Note_on_c, 11, 62, 0
13, 30180, Note_on_c, 11, 58, 52
13, 30233, Note_on_c, 11, 58, 0
13, 30240, Note_on_c, 11, 62, 52
13, 30299, Note_on_c, 11, 62, 0
13, 30300, Note_on_c, 11, 58, 52
13, 30359, Note_on_c, 11, 58, 0
13, 30360, Note_on_c, 11, 65, 52
13, 30419, Note_on_c, 11, 65, 0
13, 30420, Note_on_c, 11, 62, 52
13, 30479, Note_on_c, 11, 62, 0
13, 30480, Note_on_c, 11, 65, 52
13, 30539, Note_on_c, 11, 65, 0
13, 30540, Note_on_c, 11, 62, 52
13, 30599, Note_on_c, 11, 62, 0
13, 30600, Note_on_c, 11, 67, 52
13, 30659, Note_on_c, 11, 67, 0
13, 30660, Note_on_c, 11, 63, 52
13, 30719, Note_on_c, 11, 63, 0
13, 30720, Note_on_c, 11, 65, 52
13, 30779, Note_on_c, 11, 65, 0
13, 30780, Note_on_c, 11, 62, 52
13, 30839, Note_on_c, 11, 62, 0
13, 30840, Note_on_c, 11, 65, 52
13, 30899, Note_on_c, 11, 65, 0
13, 30900, Note_on_c, 11, 62, 52
13, 30959, Note_on_c, 11, 62, 0
13, 30960, Note_on_c, 11, 63, 52
13, 31019, Note_on_c, 11, 63, 0
13, 31020, Note_on_c, 11, 60, 52
13, 31079, Note_on_c, 11, 60, 0
13, 31080, Note_on_c, 11, 62, 52
13, 31139, Note_on_c, 11, 62, 0
13, 31140, Note_on_c, 11, 58, 52
13, 31199, Note_on_c, 11, 58, 0
13, 31200, Note_on_c, 11, 62, 52
13, 31259, Note_on_c, 11, 62, 0
13, 31260, Note_on_c, 11, 58, 52
13, 31319, Note_on_c, 11, 58, 0
13, 31320, Note_on_c, 11, 60, 52
13, 31379, Note_on_c, 11, 60, 0
13, 31380, Note_on_c, 11, 57, 52
13, 31439, Note_on_c, 11, 57, 0
13, 31440, Note_on_c, 11, 58, 52
13, 31499, Note_on_c, 11, 58, 0
13, 31500, Note_on_c, 11, 55, 52
13, 31559, Note_on_c, 11, 55, 0
13, 31560, Note_on_c, 11, 69, 52
13, 31619, Note_on_c, 11, 69, 0
13, 31620, Note_on_c, 11, 65, 52
13, 31673, Note_on_c, 11, 65, 0
13, 31680, Note_on_c, 11, 67, 52
13, 31739, Note_on_c, 11, 67, 0
13, 31740, Note_on_c, 11, 64, 52
13, 31799, Note_on_c, 11, 64, 0
13, 31800, Note_on_c, 11, 70, 52
13, 31859, Note_on_c, 11, 70, 0
13, 31860, Note_on_c, 11, 67, 52
13, 31919, Note_on_c, 11, 67, 0
13, 31920, Note_on_c, 11, 70, 52
13, 31979, Note_on_c, 11, 70, 0
13, 31980, Note_on_c, 11, 67, 52
13, 32039, Note_on_c, 11, 67, 0
13, 32040, Note_on_c, 11, 72, 52
13, 32099, Note_on_c, 11, 72, 0
13, 32100, Note_on_c, 11, 69, 52
13, 32159, Note_on_c, 11, 69, 0
13, 32160, Note_on_c, 11, 70, 52
13, 32219, Note_on_c, 11, 70, 0
13, 32220, Note_on_c, 11, 67, 52
13, 32279, Note_on_c, 11, 67, 0
13, 32280, Note_on_c, 11, 70, 52
13, 32339, Note_on_c, 11, 70, 0
13, 32340, Note_on_c, 11, 67, 52
13, 32399, Note_on_c, 11, 67, 0
13, 32400, Note_on_c, 11, 69, 52
13, 32459, Note_on_c, 11, 69, 0
13, 32460, Note_on_c, 11, 65, 52
13, 32519, Note_on_c, 11, 65, 0
13, 32520, Note_on_c, 11, 67, 52
13, 32579, Note_on_c, 11, 67, 0
13, 32580, Note_on_c, 11, 64, 52
13, 32639, Note_on_c, 11, 64, 0
13, 32640, Note_on_c, 11, 67, 52
13, 32699, Note_on_c, 11, 67, 0
13, 32700, Note_on_c, 11, 64, 52
13, 32759, Note_on_c, 11, 64, 0
13, 32760, Note_on_c, 11, 65, 52
13, 32819, Note_on_c, 11, 65, 0
13, 32820, Note_on_c, 11, 62, 52
13, 32879, Note_on_c, 11, 62, 0
13, 32880, Note_on_c, 11, 64, 52
13, 32939, Note_on_c, 11, 64, 0
13, 32940, Note_on_c, 11, 60, 52
13, 32999, Note_on_c, 11, 60, 0
13, 33000, Note_on_c, 11, 64, 52
13, 33059, Note_on_c, 11, 64, 0
13, 33060, Note_on_c, 11, 60, 52
13, 33113, Note_on_c, 11, 60, 0
13, 33120, Note_on_c, 11, 64, 52
13, 33179, Note_on_c, 11, 64, 0
13, 33180, Note_on_c, 11, 60, 52
13, 33239, Note_on_c, 11, 60, 0
13, 33240, Note_on_c, 11, 70, 52
13, 33299, Note_on_c, 11, 70, 0
13, 33300, Note_on_c, 11, 67, 52
13, 33359, Note_on_c, 11, 67, 0
13, 33360, Note_on_c, 11, 70, 52
13, 33419, Note_on_c, 11, 70, 0
13, 33420, Note_on_c, 11, 67, 52
13, 33479, Note_on_c, 11, 67, 0
13, 33480, Note_on_c, 11, 72, 52
13, 33539, Note_on_c, 11, 72, 0
13, 33540, Note_on_c, 11, 69, 52
13, 33599, Note_on_c, 11, 69, 0
13, 33600, Note_on_c, 11, 70, 52
13, 33659, Note_on_c, 11, 70, 0
13, 33660, Note_on_c, 11, 67, 52
13, 33719, Note_on_c, 11, 67, 0
13, 33720, Note_on_c, 11, 69, 52
13, 33779, Note_on_c, 11, 69, 0
13, 33780, Note_on_c, 11, 65, 52
13, 33839, Note_on_c, 11, 65, 0
13, 33840, Note_on_c, 11, 67, 52
13, 33899, Note_on_c, 11, 67, 0
13, 33900, Note_on_c, 11, 64, 52
13, 33959, Note_on_c, 11, 64, 0
13, 33960, Note_on_c, 11, 65, 52
13, 34019, Note_on_c, 11, 65, 0
13, 34020, Note_on_c, 11, 62, 52
13, 34079, Note_on_c, 11, 62, 0
13, 34080, Note_on_c, 11, 64, 52
13, 34139, Note_on_c, 11, 64, 0
13, 34140, Note_on_c, 11, 60, 52
13, 34199, Note_on_c, 11, 60, 0
13, 34200, Note_on_c, 11, 62, 52
13, 34259, Note_on_c, 11, 62, 0
13, 34260, Note_on_c, 11, 58, 52
13, 34319, Note_on_c, 11, 58, 0
13, 34320, Note_on_c, 11, 60, 52
13, 34379, Note_on_c, 11, 60, 0
13, 34380, Note_on_c, 11, 57, 52
13, 34439, Note_on_c, 11, 57, 0
13, 34440, Note_on_c, 11, 58, 52
13, 34499, Note_on_c, 11, 58, 0
13, 34500, Note_on_c, 11, 55, 52
13, 34553, Note_on_c, 11, 55, 0
13, 34560, Note_on_c, 11, 57, 52
13, 34619, Note_on_c, 11, 57, 0
13, 34620, Note_on_c, 11, 69, 52
13, 34679, Note_on_c, 11, 69, 0
13, 34680, Note_on_c, 11, 72, 52
13, 34739, Note_on_c, 11, 72, 0
13, 34740, Note_on_c, 11, 69, 52
13, 34799, Note_on_c, 11, 69, 0
13, 34800, Note_on_c, 11, 72, 52
13, 34859, Note_on_c, 11, 72, 0
13, 34860, Note_on_c, 11, 69, 52
13, 34919, Note_on_c, 11, 69, 0
13, 34920, Note_on_c, 11, 74, 52
13, 34979, Note_on_c, 11, 74, 0
13, 34980, Note_on_c, 11, 70, 52
13, 35039, Note_on_c, 11, 70, 0
13, 35040, Note_on_c, 11, 72, 52
13, 35099, Note_on_c, 11, 72, 0
13, 35100, Note_on_c, 11, 69, 52
13, 35159, Note_on_c, 11, 69, 0
13, 35160, Note_on_c, 11, 72, 52
13, 35219, Note_on_c, 11, 72, 0
13, 35220, Note_on_c, 11, 69, 52
13, 35279, Note_on_c, 11, 69, 0
13, 35280, Note_on_c, 11, 70, 52
13, 35339, Note_on_c, 11, 70, 0
13, 35340, Note_on_c, 11, 67, 52
13, 35399, Note_on_c, 11, 67, 0
13, 35400, Note_on_c, 11, 69, 52
13, 35459, Note_on_c, 11, 69, 0
13, 35460, Note_on_c, 11, 65, 52
13, 35519, Note_on_c, 11, 65, 0
13, 35520, Note_on_c, 11, 69, 52
13, 35579, Note_on_c, 11, 69, 0
13, 35580, Note_on_c, 11, 65, 52
13, 35639, Note_on_c, 11, 65, 0
13, 35640, Note_on_c, 11, 67, 52
13, 35699, Note_on_c, 11, 67, 0
13, 35700, Note_on_c, 11, 64, 52
13, 35759, Note_on_c, 11, 64, 0
13, 35760, Note_on_c, 11, 65, 52
13, 35819, Note_on_c, 11, 65, 0
13, 35820, Note_on_c, 11, 62, 52
13, 35879, Note_on_c, 11, 62, 0
13, 35880, Note_on_c, 11, 64, 52
13, 35939, Note_on_c, 11, 64, 0
13, 35940, Note_on_c, 11, 60, 52
13, 35999, Note_on_c, 11, 60, 0
13, 36000, Note_on_c, 11, 62, 52
13, 36059, Note_on_c, 11, 62, 0
13, 36060, Note_on_c, 11, 59, 52
13, 36119, Note_on_c, 11, 59, 0
13, 36120, Note_on_c, 11, 74, 52
13, 36173, Note_on_c, 11, 74, 0
13, 36180, Note_on_c, 11, 71, 52
13, 36239, Note_on_c, 11, 71, 0
13, 36240, Note_on_c, 11, 74, 52
13, 36299, Note_on_c, 11, 74, 0
13, 36300, Note_on_c, 11, 71, 52
13, 36359, Note_on_c, 11, 71, 0
13, 36360, Note_on_c, 11, 76, 52
13, 36419, Note_on_c, 11, 76, 0
13, 36420, Note_on_c, 11, 72, 52
13, 36479, Note_on_c, 11, 72, 0
13, 36480, Note_on_c, 11, 74, 52
13, 36539, Note_on_c, 11, 74, 0
13, 36540, Note_on_c, 11, 71, 52
13, 36599, Note_on_c, 11, 71, 0
13, 36600, Note_on_c, 11, 74, 52
13, 36659, Note_on_c, 11, 74, 0
13, 36660, Note_on_c, 11, 71, 52
13, 36719, Note_on_c, 11, 71, 0
13, 36720, Note_on_c, 11, 72, 52
13, 36779, Note_on_c, 11, 72, 0
13, 36780, Note_on_c, 11, 69, 52
13, 36839, Note_on_c, 11, 69, 0
13, 36840, Note_on_c, 11, 71, 52
13, 36899, Note_on_c, 11, 71, 0
13, 36900, Note_on_c, 11, 67, 52
13, 36959, Note_on_c, 11, 67, 0
13, 36960, Note_on_c, 11, 71, 52
13, 37019, Note_on_c, 11, 71, 0
13, 37020, Note_on_c, 11, 67, 52
13, 37079, Note_on_c, 11, 67, 0
13, 37080, Note_on_c, 11, 69, 52
13, 37139, Note_on_c, 11, 69, 0
13, 37140, Note_on_c, 11, 65, 52
13, 37199, Note_on_c, 11, 65, 0
13, 37200, Note_on_c, 11, 67, 52
13, 37259, Note_on_c, 11, 67, 0
13, 37260, Note_on_c, 11, 64, 52
13, 37319, Note_on_c, 11, 64, 0
13, 37320, Note_on_c, 11, 65, 52
13, 37379, Note_on_c, 11, 65, 0
13, 37380, Note_on_c, 11, 62, 52
13, 37433, Note_on_c, 11, 62, 0
13, 37440, Note_on_c, 11, 64, 52
13, 37499, Note_on_c, 11, 64, 0
13, 37500, Note_on_c, 11, 60, 52
13, 37559, Note_on_c, 11, 60, 0
13, 37560, Note_on_c, 11, 67, 52
13, 37619, Note_on_c, 11, 67, 0
13, 37620, Note_on_c, 11, 64, 52
13, 37679, Note_on_c, 11, 64, 0
13, 37680, Note_on_c, 11, 67, 52
13, 37739, Note_on_c, 11, 67, 0
13, 37740, Note_on_c, 11, 64, 52
13, 37799, Note_on_c, 11, 64, 0
13, 37800, Note_on_c, 11, 67, 52
13, 37859, Note_on_c, 11, 67, 0
13, 37860, Note_on_c, 11, 64, 52
13, 37919, Note_on_c, 11, 64, 0
13, 37920, Note_on_c, 11, 67, 52
13, 37979, Note_on_c, 11, 67, 0
13, 37980, Note_on_c, 11, 64, 52
13, 38039, Note_on_c, 11, 64, 0
13, 38040, Note_on_c, 11, 67, 52
13, 38099, Note_on_c, 11, 67, 0
13, 38100, Note_on_c, 11, 64, 52
13, 38153, Note_on_c, 11, 64, 0
13, 38160, Note_on_c, 11, 69, 52
13, 38219, Note_on_c, 11, 69, 0
13, 38220, Note_on_c, 11, 65, 52
13, 38279, Note_on_c, 11, 65, 0
13, 38280, Note_on_c, 11, 69, 52
13, 38339, Note_on_c, 11, 69, 0
13, 38340, Note_on_c, 11, 65, 52
13, 38399, Note_on_c, 11, 65, 0
13, 38400, Note_on_c, 11, 69, 52
13, 38459, Note_on_c, 11, 69, 0
13, 38460, Note_on_c, 11, 65, 52
13, 38519, Note_on_c, 11, 65, 0
13, 38520, Note_on_c, 11, 69, 52
13, 38579, Note_on_c, 11, 69, 0
13, 38580, Note_on_c, 11, 65, 52
13, 38639, Note_on_c, 11, 65, 0
13, 38640, Note_on_c, 11, 69, 52
13, 38699, Note_on_c, 11, 69, 0
13, 38700, Note_on_c, 11, 65, 52
13, 38759, Note_on_c, 11, 65, 0
13, 38760, Note_on_c, 11, 69, 52
13, 38819, Note_on_c, 11, 69, 0
13, 38820, Note_on_c, 11, 65, 52
13, 38873, Note_on_c, 11, 65, 0
13, 38880, Note_on_c, 11, 70, 52
13, 38939, Note_on_c, 11, 70, 0
13, 38940, Note_on_c, 11, 67, 52
13, 38999, Note_on_c, 11, 67, 0
13, 39000, Note_on_c, 11, 70, 52
13, 39059, Note_on_c, 11, 70, 0
13, 39060, Note_on_c, 11, 67, 52
13, 39119, Note_on_c, 11, 67, 0
13, 39120, Note_on_c, 11, 70, 52
13, 39179, Note_on_c, 11, 70, 0
13, 39180, Note_on_c, 11, 67, 52
13, 39239, Note_on_c, 11, 67, 0
13, 39240, Note_on_c, 11, 70, 52
13, 39299, Note_on_c, 11, 70, 0
13, 39300, Note_on_c, 11, 67, 52
13, 39359, Note_on_c, 11, 67, 0
13, 39360, Note_on_c, 11, 70, 52
13, 39419, Note_on_c, 11, 70, 0
13, 39420, Note_on_c, 11, 67, 52
13, 39479, Note_on_c, 11, 67, 0
13, 39480, Note_on_c, 11, 70, 52
13, 39539, Note_on_c, 11, 70, 0
13, 39540, Note_on_c, 11, 67, 52
13, 39593, Note_on_c, 11, 67, 0
13, 39600, Note_on_c, 11, 69, 52
13, 39659, Note_on_c, 11, 69, 0
13, 39660, Note_on_c, 11, 65, 52
13, 39719, Note_on_c, 11, 65, 0
13, 39720, Note_on_c, 11, 69, 52
13, 39779, Note_on_c, 11, 69, 0
13, 39780, Note_on_c, 11, 65, 52
13, 39839, Note_on_c, 11, 65, 0
13, 39840, Note_on_c, 11, 69, 52
13, 39899, Note_on_c, 11, 69, 0
13, 39900, Note_on_c, 11, 65, 52
13, 39959, Note_on_c, 11, 65, 0
13, 39960, Note_on_c, 11, 69, 52
13, 40019, Note_on_c, 11, 69, 0
13, 40020, Note_on_c, 11, 65, 52
13, 40079, Note_on_c, 11, 65, 0
13, 40080, Note_on_c, 11, 69, 52
13, 40139, Note_on_c, 11, 69, 0
13, 40140, Note_on_c, 11, 65, 52
13, 40199, Note_on_c, 11, 65, 0
13, 40200, Note_on_c, 11, 69, 52
13, 40259, Note_on_c, 11, 69, 0
13, 40260, Note_on_c, 11, 65, 52
13, 40313, Note_on_c, 11, 65, 0
13, 40320, Note_on_c, 11, 67, 52
13, 40379, Note_on_c, 11, 67, 0
13, 40380, Note_on_c, 11, 64, 53
13, 40439, Note_on_c, 11, 64, 0
13, 40440, Note_on_c, 11, 67, 54
13, 40499, Note_on_c, 11, 67, 0
13, 40500, Note_on_c, 11, 64, 56
13, 40559, Note_on_c, 11, 64, 0
13, 40560, Note_on_c, 11, 67, 57
13, 40619, Note_on_c, 11, 67, 0
13, 40620, Note_on_c, 11, 64, 58
13, 40679, Note_on_c, 11, 64, 0
13, 40680, Note_on_c, 11, 67, 60
13, 40739, Note_on_c, 11, 67, 0
13, 40740, Note_on_c, 11, 64, 61
13, 40799, Note_on_c, 11, 64, 0
13, 40800, Note_on_c, 11, 67, 62
13, 40859, Note_on_c, 11, 67, 0
13, 40860, Note_on_c, 11, 64, 64
13, 40919, Note_on_c, 11, 64, 0
13, 40920, Note_on_c, 11, 67, 65
13, 40979, Note_on_c, 11, 67, 0
13, 40980, Note_on_c, 11, 64, 66
13, 41033, Note_on_c, 11, 64, 0
13, 41040, Note_on_c, 11, 67, 68
13, 41099, Note_on_c, 11, 67, 0
13, 41100, Note_on_c, 11, 64, 67
13, 41159, Note_on_c, 11, 64, 0
13, 41160, Note_on_c, 11, 67, 66
13, 41219, Note_on_c, 11, 67, 0
13, 41220, Note_on_c, 11, 64, 64
13, 41279, Note_on_c, 11, 64, 0
13, 41280, Note_on_c, 11, 67, 63
13, 41339, Note_on_c, 11, 67, 0
13, 41340, Note_on_c, 11, 64, 62
13, 41399, Note_on_c, 11, 64, 0
13, 41400, Note_on_c, 11, 67, 60
13, 41459, Note_on_c, 11, 67, 0
13, 41460, Note_on_c, 11, 64, 59
13, 41519, Note_on_c, 11, 64, 0
13, 41520, Note_on_c, 11, 67, 58
13, 41579, Note_on_c, 11, 67, 0
13, 41580, Note_on_c, 11, 64, 56
13, 41639, Note_on_c, 11, 64, 0
13, 41640, Note_on_c, 11, 67, 55
13, 41699, Note_on_c, 11, 67, 0
13, 41700, Note_on_c, 11, 64, 54
13, 41753, Note_on_c, 11, 64, 0
13, 41760, Note_on_c, 11, 69, 52
13, 41999, Note_on_c, 11, 69, 0
13, 42000, Program_c, 11, 45
13, 42120, Note_on_c, 11, 62, 48
13, 42359, Note_on_c, 11, 62, 0
13, 42480, Note_on_c, 11, 60, 48
13, 42719, Note_on_c, 11, 60, 0
13, 42840, Note_on_c, 11, 64, 48
13, 43079, Note_on_c, 11, 64, 0
13, 43080, Program_c, 11, 48
13, 43200, Note_on_c, 11, 67, 52
13, 43259, Note_on_c, 11, 67, 0
13, 43260, Note_on_c, 11, 64, 53
13, 43319, Note_on_c, 11, 64, 0
13, 43320, Note_on_c, 11, 67, 54
13, 43379, Note_on_c, 11, 67, 0
13, 43380, Note_on_c, 11, 64, 56
13, 43439, Note_on_c, 11, 64, 0
13, 43440, Note_on_c, 11, 67, 57
13, 43499, Note_on_c, 11, 67, 0
13, 43500, Note_on_c, 11, 64, 58
13, 43559, Note_on_c, 11, 64, 0
13, 43560, Note_on_c, 11, 67, 60
13, 43619, Note_on_c, 11, 67, 0
13, 43620, Note_on_c, 11, 64, 61
13, 43679, Note_on_c, 11, 64, 0
13, 43680, Note_on_c, 11, 67, 62
13, 43739, Note_on_c, 11, 67, 0
13, 43740, Note_on_c, 11, 64, 64
13, 43799, Note_on_c, 11, 64, 0
13, 43800, Note_on_c, 11, 67, 65
13, 43859, Note_on_c, 11, 67, 0
13, 43860, Note_on_c, 11, 64, 66
13, 43913, Note_on_c, 11, 64, 0
13, 43920, Note_on_c, 11, 67, 68
13, 43979, Note_on_c, 11, 67, 0
13, 43980, Note_on_c, 11, 64, 67
13, 44039, Note_on_c, 11, 64, 0
13, 44040, Note_on_c, 11, 67, 66
13, 44099, Note_on_c, 11, 67, 0
13, 44100, Note_on_c, 11, 64, 64
13, 44159, Note_on_c, 11, 64, 0
13, 44160, Note_on_c, 11, 67, 63
13, 44219, Note_on_c, 11, 67, 0
13, 44220, Note_on_c, 11, 64, 62
13, 44279, Note_on_c, 11, 64, 0
13, 44280, Note_on_c, 11, 67, 60
13, 44339, Note_on_c, 11, 67, 0
13, 44340, Note_on_c, 11, 64, 59
13, 44399, Note_on_c, 11, 64, 0
13, 44400, Note_on_c, 11, 67, 58
13, 44459, Note_on_c, 11, 67, 0
13, 44460, Note_on_c, 11, 64, 56
13, 44519, Note_on_c, 11, 64, 0
13, 44520, Note_on_c, 11, 67, 55
13, 44579, Note_on_c, 11, 67, 0
13, 44580, Note_on_c, 11, 64, 54
13, 44633, Note_on_c, 11, 64, 0
13, 44640, Note_on_c, 11, 69, 52
13, 44879, Note_on_c, 11, 69, 0
13, 44880, Program_c, 11, 45
13, 45000, Note_on_c, 11, 62, 48
13, 45239, Note_on_c, 11, 62, 0
13, 45360, Note_on_c, 11, 60, 48
13, 45599, Note_on_c, 11, 60, 0
13, 45720, Note_on_c, 11, 64, 48
13, 45959, Note_on_c, 11, 64, 0
13, 46080, Note_on_c, 11, 64, 48
13, 46319, Note_on_c, 11, 64, 0
13, 46440, Program_c, 11, 48
13, 46800, Note_on_c, 11, 77, 52
13, 46829, Note_on_c, 11, 77, 0
13, 46830, Note_on_c, 11, 79, 52
13, 46859, Note_on_c, 11, 79, 0
13, 46860, Note_on_c, 11, 77, 52
13, 46889, Note_on_c, 11, 77, 0
13, 46890, Note_on_c, 11, 79, 52
13, 46919, Note_on_c, 11, 79, 0
13, 46920, Note_on_c, 11, 77, 52
13, 46949, Note_on_c, 11, 77, 0
13, 46950, Note_on_c, 11, 79, 52
13, 46979, Note_on_c, 11, 79, 0
13, 46980, Note_on_c, 11, 76, 52
13, 47009, Note_on_c, 11, 76, 0
13, 47010, Note_on_c, 11, 77, 52
13, 47039, Note_on_c, 11, 77, 0
13, 47160, Note_on_c, 11, 76, 52
13, 47189, Note_on_c, 11, 76, 0
13, 47190, Note_on_c, 11, 77, 52
13, 47219, Note_on_c, 11, 77, 0
13, 47220, Note_on_c, 11, 76, 52
13, 47249, Note_on_c, 11, 76, 0
13, 47250, Note_on_c, 11, 77, 52
13, 47279, Note_on_c, 11, 77, 0
13, 47280, Note_on_c, 11, 76, 52
13, 47309, Note_on_c, 11, 76, 0
13, 47310, Note_on_c, 11, 77, 52
13, 47339, Note_on_c, 11, 77, 0
13, 47340, Note_on_c, 11, 74, 52
13, 47369, Note_on_c, 11, 74, 0
13, 47370, Note_on_c, 11, 76, 52
13, 47399, Note_on_c, 11, 76, 0
13, 48240, Note_on_c, 11, 77, 52
13, 48269, Note_on_c, 11, 77, 0
13, 48270, Note_on_c, 11, 79, 52
13, 48299, Note_on_c, 11, 79, 0
13, 48300, Note_on_c, 11, 77, 52
13, 48329, Note_on_c, 11, 77, 0
13, 48330, Note_on_c, 11, 79, 52
13, 48359, Note_on_c, 11, 79, 0
13, 48360, Note_on_c, 11, 77, 52
13, 48389, Note_on_c, 11, 77, 0
13, 48390, Note_on_c, 11, 79, 52
13, 48419, Note_on_c, 11, 79, 0
13, 48420, Note_on_c, 11, 76, 52
13, 48449, Note_on_c, 11, 76, 0
13, 48450, Note_on_c, 11, 77, 52
13, 48479, Note_on_c, 11, 77, 0
13, 48600, Note_on_c, 11, 76, 52
13, 48629, Note_on_c, 11, 76, 0
13, 48630, Note_on_c, 11, 77, 52
13, 48659, Note_on_c, 11, 77, 0
13, 48660, Note_on_c, 11, 76, 52
13, 48689, Note_on_c, 11, 76, 0
13, 48690, Note_on_c, 11, 77, 52
13, 48719, Note_on_c, 11, 77, 0
13, 48720, Note_on_c, 11, 76, 52
13, 48749, Note_on_c, 11, 76, 0
13, 48750, Note_on_c, 11, 77, 52
13, 48779, Note_on_c, 11, 77, 0
13, 48780, Note_on_c, 11, 74, 52
13, 48809, Note_on_c, 11, 74, 0
13, 48810, Note_on_c, 11, 76, 52
13, 48839, Note_on_c, 11, 76, 0
13, 49680, Note_on_c, 11, 77, 52
13, 49709, Note_on_c, 11, 77, 0
13, 49710, Note_on_c, 11, 79, 52
13, 49739, Note_on_c, 11, 79, 0
13, 49740, Note_on_c, 11, 77, 52
13, 49769, Note_on_c, 11, 77, 0
13, 49770, Note_on_c, 11, 79, 52
13, 49799, Note_on_c, 11, 79, 0
13, 49800, Note_on_c, 11, 77, 52
13, 49829, Note_on_c, 11, 77, 0
13, 49830, Note_on_c, 11, 79, 52
13, 49859, Note_on_c, 11, 79, 0
13, 49860, Note_on_c, 11, 76, 52
13, 49889, Note_on_c, 11, 76, 0
13, 49890, Note_on_c, 11, 77, 52
13, 49919, Note_on_c, 11, 77, 0
13, 50040, Note_on_c, 11, 76, 52
13, 50069, Note_on_c, 11, 76, 0
13, 50070, Note_on_c, 11, 77, 52
13, 50099, Note_on_c, 11, 77, 0
13, 50100, Note_on_c, 11, 76, 52
13, 50129, Note_on_c, 11, 76, 0
13, 50130, Note_on_c, 11, 77, 52
13, 50159, Note_on_c, 11, 77, 0
13, 50160, Note_on_c, 11, 76, 53
13, 50189, Note_on_c, 11, 76, 0
13, 50190, Note_on_c, 11, 77, 53
13, 50219, Note_on_c, 11, 77, 0
13, 50220, Note_on_c, 11, 74, 53
13, 50249, Note_on_c, 11, 74, 0
13, 50250, Note_on_c, 11, 76, 53
13, 50279, Note_on_c, 11, 76, 0
13, 50400, Note_on_c, 11, 77, 55
13, 50429, Note_on_c, 11, 77, 0
13, 50430, Note_on_c, 11, 79, 55
13, 50459, Note_on_c, 11, 79, 0
13, 50460, Note_on_c, 11, 77, 55
13, 50489, Note_on_c, 11, 77, 0
13, 50490, Note_on_c, 11, 79, 55
13, 50519, Note_on_c, 11, 79, 0
13, 50520, Note_on_c, 11, 77, 56
13, 50549, Note_on_c, 11, 77, 0
13, 50550, Note_on_c, 11, 79, 56
13, 50579, Note_on_c, 11, 79, 0
13, 50580, Note_on_c, 11, 76, 56
13, 50609, Note_on_c, 11, 76, 0
13, 50610, Note_on_c, 11, 77, 56
13, 50639, Note_on_c, 11, 77, 0
13, 50760, Note_on_c, 11, 79, 58
13, 50789, Note_on_c, 11, 79, 0
13, 50790, Note_on_c, 11, 81, 58
13, 50819, Note_on_c, 11, 81, 0
13, 50820, Note_on_c, 11, 79, 58
13, 50849, Note_on_c, 11, 79, 0
13, 50850, Note_on_c, 11, 81, 58
13, 50879, Note_on_c, 11, 81, 0
13, 50880, Note_on_c, 11, 79, 59
13, 50909, Note_on_c, 11, 79, 0
13, 50910, Note_on_c, 11, 81, 59
13, 50939, Note_on_c, 11, 81, 0
13, 50940, Note_on_c, 11, 77, 59
13, 50969, Note_on_c, 11, 77, 0
13, 50970, Note_on_c, 11, 79, 59
13, 50999, Note_on_c, 11, 79, 0
13, 51120, Note_on_c, 11, 77, 61
13, 51149, Note_on_c, 11, 77, 0
13, 51150, Note_on_c, 11, 79, 61
13, 51179, Note_on_c, 11, 79, 0
13, 51180, Note_on_c, 11, 77, 61
13, 51209, Note_on_c, 11, 77, 0
13, 51210, Note_on_c, 11, 79, 61
13, 51239, Note_on_c, 11, 79, 0
13, 51240, Note_on_c, 11, 77, 62
13, 51269, Note_on_c, 11, 77, 0
13, 51270, Note_on_c, 11, 79, 62
13, 51299, Note_on_c, 11, 79, 0
13, 51300, Note_on_c, 11, 76, 62
13, 51329, Note_on_c, 11, 76, 0
13, 51330, Note_on_c, 11, 77, 62
13, 51359, Note_on_c, 11, 77, 0
13, 51480, Note_on_c, 11, 76, 64
13, 51509, Note_on_c, 11, 76, 0
13, 51510, Note_on_c, 11, 77, 64
13, 51539, Note_on_c, 11, 77, 0
13, 51540, Note_on_c, 11, 76, 64
13, 51569, Note_on_c, 11, 76, 0
13, 51570, Note_on_c, 11, 77, 64
13, 51599, Note_on_c, 11, 77, 0
13, 51600, Note_on_c, 11, 76, 65
13, 51629, Note_on_c, 11, 76, 0
13, 51630, Note_on_c, 11, 77, 65
13, 51659, Note_on_c, 11, 77, 0
13, 51660, Note_on_c, 11, 74, 65
13, 51689, Note_on_c, 11, 74, 0
13, 51690, Note_on_c, 11, 76, 65
13, 51719, Note_on_c, 11, 76, 0
13, 51840, Note_on_c, 11, 77, 67
13, 51869, Note_on_c, 11, 77, 0
13, 51870, Note_on_c, 11, 79, 67
13, 51899, Note_on_c, 11, 79, 0
13, 51900, Note_on_c, 11, 77, 67
13, 51929, Note_on_c, 11, 77, 0
13, 51930, Note_on_c, 11, 79, 67
13, 51959, Note_on_c, 11, 79, 0
13, 51960, Note_on_c, 11, 77, 68
13, 51989, Note_on_c, 11, 77, 0
13, 51990, Note_on_c, 11, 79, 68
13, 52019, Note_on_c, 11, 79, 0
13, 52020, Note_on_c, 11, 76, 68
13, 52049, Note_on_c, 11, 76, 0
13, 52050, Note_on_c, 11, 77, 68
13, 52079, Note_on_c, 11, 77, 0
13, 52200, Note_on_c, 11, 79, 70
13, 52229, Note_on_c, 11, 79, 0
13, 52230, Note_on_c, 11, 81, 70
13, 52259, Note_on_c, 11, 81, 0
13, 52260, Note_on_c, 11, 79, 70
13, 52289, Note_on_c, 11, 79, 0
13, 52290, Note_on_c, 11, 81, 70
13, 52319, Note_on_c, 11, 81, 0
13, 52320, Note_on_c, 11, 79, 71
13, 52349, Note_on_c, 11, 79, 0
13, 52350, Note_on_c, 11, 81, 71
13, 52379, Note_on_c, 11, 81, 0
13, 52380, Note_on_c, 11, 77, 71
13, 52409, Note_on_c, 11, 77, 0
13, 52410, Note_on_c, 11, 79, 71
13, 52439, Note_on_c, 11, 79, 0
13, 52560, Note_on_c, 11, 77, 73
13, 52589, Note_on_c, 11, 77, 0
13, 52590, Note_on_c, 11, 79, 73
13, 52619, Note_on_c, 11, 79, 0
13, 52620, Note_on_c, 11, 77, 73
13, 52649, Note_on_c, 11, 77, 0
13, 52650, Note_on_c, 11, 79, 73
13, 52679, Note_on_c, 11, 79, 0
13, 52680, Note_on_c, 11, 77, 74
13, 52709, Note_on_c, 11, 77, 0
13, 52710, Note_on_c, 11, 79, 74
13, 52739, Note_on_c, 11, 79, 0
13, 52740, Note_on_c, 11, 76, 74
13, 52769, Note_on_c, 11, 76, 0
13, 52770, Note_on_c, 11, 77, 74
13, 52799, Note_on_c, 11, 77, 0
13, 52920, Note_on_c, 11, 67, 76
13, 52979, Note_on_c, 11, 67, 0
13, 52980, Note_on_c, 11, 64, 76
13, 53039, Note_on_c, 11, 64, 0
13, 53040, Note_on_c, 11, 67, 76
13, 53099, Note_on_c, 11, 67, 0
13, 53100, Note_on_c, 11, 64, 76
13, 53159, Note_on_c, 11, 64, 0
13, 53160, Note_on_c, 11, 67, 76
13, 53219, Note_on_c, 11, 67, 0
13, 53220, Note_on_c, 11, 64, 76
13, 53273, Note_on_c, 11, 64, 0
13, 53280, Note_on_c, 11, 69, 76
13, 53339, Note_on_c, 11, 69, 0
13, 53340, Note_on_c, 11, 65, 76
13, 53399, Note_on_c, 11, 65, 0
13, 53400, Note_on_c, 11, 69, 76
13, 53459, Note_on_c, 11, 69, 0
13, 53460, Note_on_c, 11, 65, 76
13, 53519, Note_on_c, 11, 65, 0
13, 53520, Note_on_c, 11, 69, 76
13, 53579, Note_on_c, 11, 69, 0
13, 53580, Note_on_c, 11, 65, 76
13, 53639, Note_on_c, 11, 65, 0
13, 53640, Note_on_c, 11, 69, 76
13, 53699, Note_on_c, 11, 69, 0
13, 53700, Note_on_c, 11, 65, 76
13, 53759, Note_on_c, 11, 65, 0
13, 53760, Note_on_c, 11, 69, 76
13, 53819, Note_on_c, 11, 69, 0
13, 53820, Note_on_c, 11, 65, 76
13, 53879, Note_on_c, 11, 65, 0
13, 53880, Note_on_c, 11, 69, 76
13, 53939, Note_on_c, 11, 69, 0
13, 53940, Note_on_c, 11, 65, 76
13, 53993, Note_on_c, 11, 65, 0
13, 54000, Note_on_c, 11, 69, 76
13, 54059, Note_on_c, 11, 69, 0
13, 54060, Note_on_c, 11, 65, 76
13, 54119, Note_on_c, 11, 65, 0
13, 54120, Note_on_c, 11, 69, 76
13, 54179, Note_on_c, 11, 69, 0
13, 54180, Note_on_c, 11, 65, 76
13, 54239, Note_on_c, 11, 65, 0
13, 54240, Note_on_c, 11, 69, 76
13, 54299, Note_on_c, 11, 69, 0
13, 54300, Note_on_c, 11, 65, 76
13, 54359, Note_on_c, 11, 65, 0
13, 54360, Note_on_c, 11, 69, 76
13, 54419, Note_on_c, 11, 69, 0
13, 54420, Note_on_c, 11, 65, 76
13, 54479, Note_on_c, 11, 65, 0
13, 54480, Note_on_c, 11, 69, 76
13, 54539, Note_on_c, 11, 69, 0
13, 54540, Note_on_c, 11, 65, 76
13, 54599, Note_on_c, 11, 65, 0
13, 54600, Note_on_c, 11, 69, 76
13, 54659, Note_on_c, 11, 69, 0
13, 54660, Note_on_c, 11, 65, 76
13, 54713, Note_on_c, 11, 65, 0
13, 54720, Note_on_c, 11, 69, 76
13, 54839, Note_on_c, 11, 69, 0
13, 54840, Note_on_c, 11, 65, 74
13, 54949, Note_on_c, 11, 65, 0
13, 54960, Note_on_c, 11, 69, 72
13, 55079, Note_on_c, 11, 69, 0
13, 55080, Note_on_c, 11, 65, 70
13, 55189, Note_on_c, 11, 65, 0
13, 55200, Note_on_c, 11, 69, 68
13, 55319, Note_on_c, 11, 69, 0
13, 55320, Note_on_c, 11, 65, 66
13, 55429, Note_on_c, 11, 65, 0
13, 55440, Note_on_c, 11, 69, 64
13, 55559, Note_on_c, 11, 69, 0
13, 55560, Note_on_c, 11, 65, 62
13, 55669, Note_on_c, 11, 65, 0
13, 55680, Note_on_c, 11, 69, 60
13, 55799, Note_on_c, 11, 69, 0
13, 55800, Note_on_c, 11, 65, 58
13, 55909, Note_on_c, 11, 65, 0
13, 55920, Note_on_c, 11, 67, 56
13, 56039, Note_on_c, 11, 67, 0
13, 56040, Note_on_c, 11, 65, 54
13, 56149, Note_on_c, 11, 65, 0
13, 56160, Note_on_c, 11, 65, 52
13, 56399, Note_on_c, 11, 65, 0
13, 56880, Note_on_c, 11, 64, 48
13, 57119, Note_on_c, 11, 64, 0
13, 58440, Note_on_c, 11, 71, 44
13, 58499, Note_on_c, 11, 71, 0
13, 58500, Note_on_c, 11, 72, 44
13, 58559, Note_on_c, 11, 72, 0
13, 58560, Note_on_c, 11, 74, 44
13, 58619, Note_on_c, 11, 74, 0
13, 58620, Note_on_c, 11, 71, 44
13, 58679, Note_on_c, 11, 71, 0
13, 58800, Note_on_c, 11, 72, 44
13, 58859, Note_on_c, 11, 72, 0
13, 58860, Note_on_c, 11, 74, 44
13, 58919, Note_on_c, 11, 74, 0
13, 58920, Note_on_c, 11, 76, 44
13, 58979, Note_on_c, 11, 76, 0
13, 58980, Note_on_c, 11, 72, 44
13, 59039, Note_on_c, 11, 72, 0
13, 59760, Control_c, 11, 11, 64
13, 59880, Note_on_c, 11, 71, 76
13, 59939, Note_on_c, 11, 71, 0
13, 59940, Note_on_c, 11, 72, 76
13, 59999, Note_on_c, 11, 72, 0
13, 60000, Note_on_c, 11, 74, 76
13, 60059, Note_on_c, 11, 74, 0
13, 60060, Note_on_c, 11, 71, 76
13, 60113, Note_on_c, 11, 71, 0
13, 60120, Note_on_c, 11, 72, 76
13, 60120, Control_c, 11, 11, 65
13, 60240, Control_c, 11, 11, 70
13, 60359, Note_on_c, 11, 72, 0
13, 60360, Control_c, 11, 11, 75
13, 60360, Note_on_c, 11, 67, 76
13, 60479, Note_on_c, 11, 67, 0
13, 60480, Control_c, 11, 11, 81
13, 60480, Note_on_c, 11, 69, 76
13, 60600, Control_c, 11, 11, 86
13, 60719, Note_on_c, 11, 69, 0
13, 60720, Note_on_c, 11, 65, 76
13, 60720, Control_c, 11, 11, 91
13, 60839, Note_on_c, 11, 65, 0
13, 60840, Note_on_c, 11, 60, 76
13, 60840, Control_c, 11, 11, 97
13, 60960, Control_c, 11, 11, 102
13, 61079, Note_on_c, 11, 60, 0
13, 61080, Control_c, 11, 11, 107
13, 61080, Note_on_c, 11, 64, 76
13, 61199, Note_on_c, 11, 64, 0
13, 61200, Control_c, 11, 11, 111
13, 61200, Note_on_c, 11, 65, 76
13, 61320, Control_c, 11, 11, 118
13, 61439, Note_on_c, 11, 65, 0
13, 61440, Control_c, 11, 11, 123
13, 61440, Note_on_c, 11, 69, 76
13, 61549, Note_on_c, 11, 69, 0
13, 61558, Control_c, 11, 11, 127
13, 61560, Note_on_c, 11, 67, 76
13, 61619, Note_on_c, 11, 67, 0
13, 61620, Note_on_c, 11, 64, 76
13, 61679, Note_on_c, 11, 64, 0
13, 61680, Note_on_c, 11, 67, 76
13, 61739, Note_on_c, 11, 67, 0
13, 61740, Note_on_c, 11, 64, 76
13, 61799, Note_on_c, 11, 64, 0
13, 61800, Note_on_c, 11, 67, 76
13, 61859, Note_on_c, 11, 67, 0
13, 61860, Note_on_c, 11, 64, 76
13, 61913, Note_on_c, 11, 64, 0
13, 61920, Note_on_c, 11, 69, 76
13, 61979, Note_on_c, 11, 69, 0
13, 61980, Note_on_c, 11, 65, 76
13, 62039, Note_on_c, 11, 65, 0
13, 62040, Note_on_c, 11, 69, 76
13, 62099, Note_on_c, 11, 69, 0
13, 62100, Note_on_c, 11, 65, 76
13, 62159, Note_on_c, 11, 65, 0
13, 62160, Note_on_c, 11, 69, 76
13, 62219, Note_on_c, 11, 69, 0
13, 62220, Note_on_c, 11, 65, 76
13, 62279, Note_on_c, 11, 65, 0
13, 62280, Note_on_c, 11, 69, 76
13, 62339, Note_on_c, 11, 69, 0
13, 62340, Note_on_c, 11, 65, 76
13, 62399, Note_on_c, 11, 65, 0
13, 62400, Note_on_c, 11, 69, 76
13, 62459, Note_on_c, 11, 69, 0
13, 62460, Note_on_c, 11, 65, 76
13, 62519, Note_on_c, 11, 65, 0
13, 62520, Note_on_c, 11, 69, 76
13, 62579, Note_on_c, 11, 69, 0
13, 62580, Note_on_c, 11, 65, 76
13, 62633, Note_on_c, 11, 65, 0
13, 62640, Note_on_c, 11, 72, 76
13, 62699, Note_on_c, 11, 72, 0
13, 62700, Note_on_c, 11, 69, 76
13, 62759, Note_on_c, 11, 69, 0
13, 62760, Note_on_c, 11, 72, 76
13, 62819, Note_on_c, 11, 72, 0
13, 62820, Note_on_c, 11, 69, 76
13, 62879, Note_on_c, 11, 69, 0
13, 62880, Note_on_c, 11, 72, 76
13, 62939, Note_on_c, 11, 72, 0
13, 62940, Note_on_c, 11, 69, 76
13, 62999, Note_on_c, 11, 69, 0
13, 63000, Note_on_c, 11, 72, 76
13, 63059, Note_on_c, 11, 72, 0
13, 63060, Note_on_c, 11, 69, 76
13, 63119, Note_on_c, 11, 69, 0
13, 63120, Note_on_c, 11, 72, 76
13, 63179, Note_on_c, 11, 72, 0
13, 63180, Note_on_c, 11, 69, 76
13, 63239, Note_on_c, 11, 69, 0
13, 63240, Note_on_c, 11, 72, 76
13, 63299, Note_on_c, 11, 72, 0
13, 63300, Note_on_c, 11, 69, 76
13, 63353, Note_on_c, 11, 69, 0
13, 63360, Note_on_c, 11, 77, 84
13, 63419, Note_on_c, 11, 77, 0
13, 63420, Note_on_c, 11, 69, 76
13, 63479, Note_on_c, 11, 69, 0
13, 63480, Note_on_c, 11, 77, 72
13, 63539, Note_on_c, 11, 77, 0
13, 63540, Note_on_c, 11, 69, 67
13, 63599, Note_on_c, 11, 69, 0
13, 63600, Note_on_c, 11, 77, 62
13, 63659, Note_on_c, 11, 77, 0
13, 63660, Note_on_c, 11, 69, 57
13, 63713, Note_on_c, 11, 69, 0
13, 63720, Note_on_c, 11, 77, 52
13, 63720, Note_on_c, 11, 69, 52
13, 63839, Note_on_c, 11, 77, 0
13, 63839, Note_on_c, 11, 69, 0
13, 66000, Note_on_c, 11, 69, 52
13, 66089, Note_on_c, 11, 69, 0
13, 66120, Note_on_c, 11, 74, 52
13, 66209, Note_on_c, 11, 74, 0
13, 66240, Note_on_c, 11, 70, 52
13, 66479, Note_on_c, 11, 70, 0
13, 66600, Program_c, 11, 45
13, 66960, Note_on_c, 11, 58, 48
13, 67199, Note_on_c, 11, 58, 0
13, 67680, Note_on_c, 11, 57, 48
13, 67919, Note_on_c, 11, 57, 0
13, 68760, Program_c, 11, 48
13, 69000, Note_on_c, 11, 72, 52
13, 69089, Note_on_c, 11, 72, 0
13, 69100, Note_on_c, 11, 74, 52
13, 69119, Note_on_c, 11, 74, 0
13, 69120, Note_on_c, 11, 72, 52
13, 69239, Note_on_c, 11, 72, 0
13, 69240, Note_on_c, 11, 70, 54
13, 69359, Note_on_c, 11, 70, 0
13, 69360, Note_on_c, 11, 69, 57
13, 69449, Note_on_c, 11, 69, 0
13, 69460, Note_on_c, 11, 70, 59
13, 69479, Note_on_c, 11, 70, 0
13, 69480, Note_on_c, 11, 69, 60
13, 69599, Note_on_c, 11, 69, 0
13, 69600, Note_on_c, 11, 67, 62
13, 69719, Note_on_c, 11, 67, 0
13, 69720, Note_on_c, 11, 65, 65
13, 69829, Note_on_c, 11, 65, 0
13, 69840, Note_on_c, 11, 67, 76
13, 69899, Note_on_c, 11, 67, 0
13, 69900, Note_on_c, 11, 60, 68
13, 69959, Note_on_c, 11, 60, 0
13, 69960, Note_on_c, 11, 67, 68
13, 70019, Note_on_c, 11, 67, 0
13, 70020, Note_on_c, 11, 60, 68
13, 70079, Note_on_c, 11, 60, 0
13, 70080, Note_on_c, 11, 65, 68
13, 70139, Note_on_c, 11, 65, 0
13, 70140, Note_on_c, 11, 60, 68
13, 70199, Note_on_c, 11, 60, 0
13, 70200, Note_on_c, 11, 64, 68
13, 70259, Note_on_c, 11, 64, 0
13, 70260, Note_on_c, 11, 60, 66
13, 70319, Note_on_c, 11, 60, 0
13, 70320, Note_on_c, 11, 65, 63
13, 70379, Note_on_c, 11, 65, 0
13, 70380, Note_on_c, 11, 60, 60
13, 70439, Note_on_c, 11, 60, 0
13, 70440, Note_on_c, 11, 67, 58
13, 70499, Note_on_c, 11, 67, 0
13, 70500, Note_on_c, 11, 60, 55
13, 70553, Note_on_c, 11, 60, 0
13, 70560, Note_on_c, 11, 69, 52
13, 70619, Note_on_c, 11, 69, 0
13, 70620, Note_on_c, 11, 65, 52
13, 70679, Note_on_c, 11, 65, 0
13, 70680, Note_on_c, 11, 72, 52
13, 70739, Note_on_c, 11, 72, 0
13, 70740, Note_on_c, 11, 69, 52
13, 70799, Note_on_c, 11, 69, 0
13, 70800, Note_on_c, 11, 72, 52
13, 70859, Note_on_c, 11, 72, 0
13, 70860, Note_on_c, 11, 69, 52
13, 70919, Note_on_c, 11, 69, 0
13, 70920, Note_on_c, 11, 74, 52
13, 70979, Note_on_c, 11, 74, 0
13, 70980, Note_on_c, 11, 70, 52
13, 71039, Note_on_c, 11, 70, 0
13, 71040, Note_on_c, 11, 72, 52
13, 71099, Note_on_c, 11, 72, 0
13, 71100, Note_on_c, 11, 69, 52
13, 71159, Note_on_c, 11, 69, 0
13, 71160, Note_on_c, 11, 72, 52
13, 71219, Note_on_c, 11, 72, 0
13, 71220, Note_on_c, 11, 69, 52
13, 71279, Note_on_c, 11, 69, 0
13, 71280, Note_on_c, 11, 70, 52
13, 71339, Note_on_c, 11, 70, 0
13, 71340, Note_on_c, 11, 67, 52
13, 71399, Note_on_c, 11, 67, 0
13, 71400, Note_on_c, 11, 69, 52
13, 71459, Note_on_c, 11, 69, 0
13, 71460, Note_on_c, 11, 65, 52
13, 71519, Note_on_c, 11, 65, 0
13, 71520, Note_on_c, 11, 69, 52
13, 71579, Note_on_c, 11, 69, 0
13, 71580, Note_on_c, 11, 65, 52
13, 71639, Note_on_c, 11, 65, 0
13, 71640, Note_on_c, 11, 70, 52
13, 71699, Note_on_c, 11, 70, 0
13, 71700, Note_on_c, 11, 67, 51
13, 71759, Note_on_c, 11, 67, 0
13, 71760, Note_on_c, 11, 67, 50
13, 71819, Note_on_c, 11, 67, 0
13, 71820, Note_on_c, 11, 64, 48
13, 71879, Note_on_c, 11, 64, 0
13, 71880, Note_on_c, 11, 67, 47
13, 71939, Note_on_c, 11, 67, 0
13, 71940, Note_on_c, 11, 64, 46
13, 71993, Note_on_c, 11, 64, 0
13, 72000, Note_on_c, 11, 69, 52
13, 72059, Note_on_c, 11, 69, 0
13, 72060, Note_on_c, 11, 65, 52
13, 72119, Note_on_c, 11, 65, 0
13, 72120, Note_on_c, 11, 72, 52
13, 72179, Note_on_c, 11, 72, 0
13, 72180, Note_on_c, 11, 69, 52
13, 72239, Note_on_c, 11, 69, 0
13, 72240, Note_on_c, 11, 72, 52
13, 72299, Note_on_c, 11, 72, 0
13, 72300, Note_on_c, 11, 69, 52
13, 72359, Note_on_c, 11, 69, 0
13, 72360, Note_on_c, 11, 74, 52
13, 72419, Note_on_c, 11, 74, 0
13, 72420, Note_on_c, 11, 70, 52
13, 72479, Note_on_c, 11, 70, 0
13, 72480, Note_on_c, 11, 72, 52
13, 72539, Note_on_c, 11, 72, 0
13, 72540, Note_on_c, 11, 69, 52
13, 72599, Note_on_c, 11, 69, 0
13, 72600, Note_on_c, 11, 72, 52
13, 72659, Note_on_c, 11, 72, 0
13, 72660, Note_on_c, 11, 69, 52
13, 72719, Note_on_c, 11, 69, 0
13, 72720, Note_on_c, 11, 70, 52
13, 72779, Note_on_c, 11, 70, 0
13, 72780, Note_on_c, 11, 67, 52
13, 72839, Note_on_c, 11, 67, 0
13, 72840, Note_on_c, 11, 69, 52
13, 72899, Note_on_c, 11, 69, 0
13, 72900, Note_on_c, 11, 65, 52
13, 72959, Note_on_c, 11, 65, 0
13, 72960, Note_on_c, 11, 69, 52
13, 73019, Note_on_c, 11, 69, 0
13, 73020, Note_on_c, 11, 65, 52
13, 73079, Note_on_c, 11, 65, 0
13, 73080, Note_on_c, 11, 70, 52
13, 73139, Note_on_c, 11, 70, 0
13, 73140, Note_on_c, 11, 67, 51
13, 73199, Note_on_c, 11, 67, 0
13, 73200, Note_on_c, 11, 67, 50
13, 73259, Note_on_c, 11, 67, 0
13, 73260, Note_on_c, 11, 64, 48
13, 73319, Note_on_c, 11, 64, 0
13, 73320, Note_on_c, 11, 67, 47
13, 73379, Note_on_c, 11, 67, 0
13, 73380, Note_on_c, 11, 64, 46
13, 73433, Note_on_c, 11, 64, 0
13, 73440, Note_on_c, 11, 69, 52
13, 73499, Note_on_c, 11, 69, 0
13, 73500, Note_on_c, 11, 65, 52
13, 73559, Note_on_c, 11, 65, 0
13, 73560, Note_on_c, 11, 72, 52
13, 73619, Note_on_c, 11, 72, 0
13, 73620, Note_on_c, 11, 69, 52
13, 73679, Note_on_c, 11, 69, 0
13, 73680, Note_on_c, 11, 72, 52
13, 73739, Note_on_c, 11, 72, 0
13, 73740, Note_on_c, 11, 69, 52
13, 73799, Note_on_c, 11, 69, 0
13, 73800, Note_on_c, 11, 74, 52
13, 73859, Note_on_c, 11, 74, 0
13, 73860, Note_on_c, 11, 70, 52
13, 73919, Note_on_c, 11, 70, 0
13, 73920, Note_on_c, 11, 72, 52
13, 73979, Note_on_c, 11, 72, 0
13, 73980, Note_on_c, 11, 69, 52
13, 74039, Note_on_c, 11, 69, 0
13, 74040, Note_on_c, 11, 72, 52
13, 74099, Note_on_c, 11, 72, 0
13, 74100, Note_on_c, 11, 69, 52
13, 74153, Note_on_c, 11, 69, 0
13, 74160, Note_on_c, 11, 69, 52
13, 74219, Note_on_c, 11, 69, 0
13, 74220, Note_on_c, 11, 65, 51
13, 74279, Note_on_c, 11, 65, 0
13, 74280, Note_on_c, 11, 69, 51
13, 74339, Note_on_c, 11, 69, 0
13, 74340, Note_on_c, 11, 65, 51
13, 74399, Note_on_c, 11, 65, 0
13, 74400, Note_on_c, 11, 69, 51
13, 74459, Note_on_c, 11, 69, 0
13, 74460, Note_on_c, 11, 65, 51
13, 74519, Note_on_c, 11, 65, 0
13, 74520, Note_on_c, 11, 70, 50
13, 74579, Note_on_c, 11, 70, 0
13, 74580, Note_on_c, 11, 67, 50
13, 74639, Note_on_c, 11, 67, 0
13, 74640, Note_on_c, 11, 69, 50
13, 74699, Note_on_c, 11, 69, 0
13, 74700, Note_on_c, 11, 65, 50
13, 74759, Note_on_c, 11, 65, 0
13, 74760, Note_on_c, 11, 69, 50
13, 74819, Note_on_c, 11, 69, 0
13, 74820, Note_on_c, 11, 65, 49
13, 74873, Note_on_c, 11, 65, 0
13, 74880, Note_on_c, 11, 65, 49
13, 74939, Note_on_c, 11, 65, 0
13, 74940, Note_on_c, 11, 57, 49
13, 74999, Note_on_c, 11, 57, 0
13, 75000, Note_on_c, 11, 65, 49
13, 75059, Note_on_c, 11, 65, 0
13, 75060, Note_on_c, 11, 57, 49
13, 75119, Note_on_c, 11, 57, 0
13, 75120, Note_on_c, 11, 65, 48
13, 75179, Note_on_c, 11, 65, 0
13, 75180, Note_on_c, 11, 57, 48
13, 75239, Note_on_c, 11, 57, 0
13, 75240, Note_on_c, 11, 67, 48
13, 75299, Note_on_c, 11, 67, 0
13, 75300, Note_on_c, 11, 58, 48
13, 75359, Note_on_c, 11, 58, 0
13, 75360, Note_on_c, 11, 65, 48
13, 75419, Note_on_c, 11, 65, 0
13, 75420, Note_on_c, 11, 57, 47
13, 75479, Note_on_c, 11, 57, 0
13, 75480, Note_on_c, 11, 65, 47
13, 75539, Note_on_c, 11, 65, 0
13, 75540, Note_on_c, 11, 57, 47
13, 75599, Note_on_c, 11, 57, 0
13, 75600, Note_on_c, 11, 67, 47
13, 75659, Note_on_c, 11, 67, 0
13, 75660, Note_on_c, 11, 58, 47
13, 75719, Note_on_c, 11, 58, 0
13, 75720, Note_on_c, 11, 65, 46
13, 75779, Note_on_c, 11, 65, 0
13, 75780, Note_on_c, 11, 57, 46
13, 75839, Note_on_c, 11, 57, 0
13, 75840, Note_on_c, 11, 65, 46
13, 75899, Note_on_c, 11, 65, 0
13, 75900, Note_on_c, 11, 57, 46
13, 75959, Note_on_c, 11, 57, 0
13, 75960, Note_on_c, 11, 67, 46
13, 76019, Note_on_c, 11, 67, 0
13, 76020, Note_on_c, 11, 58, 45
13, 76079, Note_on_c, 11, 58, 0
13, 76080, Note_on_c, 11, 65, 45
13, 76139, Note_on_c, 11, 65, 0
13, 76140, Note_on_c, 11, 57, 45
13, 76199, Note_on_c, 11, 57, 0
13, 76200, Note_on_c, 11, 65, 45
13, 76259, Note_on_c, 11, 65, 0
13, 76260, Note_on_c, 11, 57, 45
13, 76313, Note_on_c, 11, 57, 0
13, 76320, Note_on_c, 11, 65, 44
13, 76559, Note_on_c, 11, 65, 0
13, 77760, Note_on_c, 11, 70, 44
13, 78239, Note_on_c, 11, 70, 0
13, 78240, Note_on_c, 11, 67, 44
13, 78349, Note_on_c, 11, 67, 0
13, 78360, Note_on_c, 11, 65, 44
13, 78449, Note_on_c, 11, 65, 0
13, 78480, Note_on_c, 11, 64, 44
13, 78579, Note_on_c, 11, 64, 0
13, 78600, Note_on_c, 11, 67, 44
13, 78699, Note_on_c, 11, 67, 0
13, 78720, Note_on_c, 11, 64, 44
13, 78809, Note_on_c, 11, 64, 0
13, 78840, Note_on_c, 11, 60, 44
13, 78939, Note_on_c, 11, 60, 0
13, 78960, Note_on_c, 11, 72, 44
13, 79059, Note_on_c, 11, 72, 0
13, 79080, Note_on_c, 11, 67, 44
13, 79169, Note_on_c, 11, 67, 0
13, 79200, Note_on_c, 11, 69, 44
13, 79439, Note_on_c, 11, 69, 0
13, 82080, Note_on_c, 11, 55, 52
13, 82139, Note_on_c, 11, 55, 0
13, 82140, Note_on_c, 11, 71, 52
13, 82199, Note_on_c, 11, 71, 0
13, 82200, Note_on_c, 11, 74, 52
13, 82259, Note_on_c, 11, 74, 0
13, 82260, Note_on_c, 11, 71, 52
13, 82319, Note_on_c, 11, 71, 0
13, 82320, Note_on_c, 11, 74, 52
13, 82379, Note_on_c, 11, 74, 0
13, 82380, Note_on_c, 11, 71, 52
13, 82439, Note_on_c, 11, 71, 0
13, 82440, Note_on_c, 11, 76, 52
13, 82499, Note_on_c, 11, 76, 0
13, 82500, Note_on_c, 11, 72, 52
13, 82559, Note_on_c, 11, 72, 0
13, 82560, Note_on_c, 11, 74, 52
13, 82619, Note_on_c, 11, 74, 0
13, 82620, Note_on_c, 11, 71, 52
13, 82679, Note_on_c, 11, 71, 0
13, 82680, Note_on_c, 11, 74, 52
13, 82739, Note_on_c, 11, 74, 0
13, 82740, Note_on_c, 11, 71, 52
13, 82799, Note_on_c, 11, 71, 0
13, 82800, Note_on_c, 11, 72, 52
13, 82859, Note_on_c, 11, 72, 0
13, 82860, Note_on_c, 11, 69, 52
13, 82919, Note_on_c, 11, 69, 0
13, 82920, Note_on_c, 11, 71, 52
13, 82979, Note_on_c, 11, 71, 0
13, 82980, Note_on_c, 11, 67, 52
13, 83039, Note_on_c, 11, 67, 0
13, 83040, Note_on_c, 11, 71, 52
13, 83099, Note_on_c, 11, 71, 0
13, 83100, Note_on_c, 11, 67, 52
13, 83159, Note_on_c, 11, 67, 0
13, 83160, Note_on_c, 11, 69, 52
13, 83219, Note_on_c, 11, 69, 0
13, 83220, Note_on_c, 11, 66, 52
13, 83279, Note_on_c, 11, 66, 0
13, 83280, Note_on_c, 11, 71, 52
13, 83339, Note_on_c, 11, 71, 0
13, 83340, Note_on_c, 11, 67, 52
13, 83399, Note_on_c, 11, 67, 0
13, 83400, Note_on_c, 11, 71, 52
13, 83459, Note_on_c, 11, 71, 0
13, 83460, Note_on_c, 11, 67, 52
13, 83513, Note_on_c, 11, 67, 0
13, 83520, Note_on_c, 11, 71, 52
13, 83579, Note_on_c, 11, 71, 0
13, 83580, Note_on_c, 11, 67, 52
13, 83639, Note_on_c, 11, 67, 0
13, 83640, Note_on_c, 11, 74, 52
13, 83699, Note_on_c, 11, 74, 0
13, 83700, Note_on_c, 11, 71, 52
13, 83759, Note_on_c, 11, 71, 0
13, 83760, Note_on_c, 11, 74, 52
13, 83819, Note_on_c, 11, 74, 0
13, 83820, Note_on_c, 11, 71, 52
13, 83879, Note_on_c, 11, 71, 0
13, 83880, Note_on_c, 11, 76, 52
13, 83939, Note_on_c, 11, 76, 0
13, 83940, Note_on_c, 11, 72, 52
13, 83999, Note_on_c, 11, 72, 0
13, 84000, Note_on_c, 11, 74, 52
13, 84059, Note_on_c, 11, 74, 0
13, 84060, Note_on_c, 11, 71, 52
13, 84119, Note_on_c, 11, 71, 0
13, 84120, Note_on_c, 11, 74, 52
13, 84179, Note_on_c, 11, 74, 0
13, 84180, Note_on_c, 11, 71, 52
13, 84239, Note_on_c, 11, 71, 0
13, 84240, Note_on_c, 11, 72, 52
13, 84299, Note_on_c, 11, 72, 0
13, 84300, Note_on_c, 11, 69, 52
13, 84359, Note_on_c, 11, 69, 0
13, 84360, Note_on_c, 11, 71, 52
13, 84419, Note_on_c, 11, 71, 0
13, 84420, Note_on_c, 11, 67, 52
13, 84479, Note_on_c, 11, 67, 0
13, 84480, Note_on_c, 11, 71, 52
13, 84539, Note_on_c, 11, 71, 0
13, 84540, Note_on_c, 11, 67, 52
13, 84599, Note_on_c, 11, 67, 0
13, 84600, Note_on_c, 11, 69, 52
13, 84659, Note_on_c, 11, 69, 0
13, 84660, Note_on_c, 11, 66, 52
13, 84719, Note_on_c, 11, 66, 0
13, 84720, Note_on_c, 11, 71, 52
13, 84779, Note_on_c, 11, 71, 0
13, 84780, Note_on_c, 11, 67, 52
13, 84839, Note_on_c, 11, 67, 0
13, 84840, Note_on_c, 11, 71, 52
13, 84899, Note_on_c, 11, 71, 0
13, 84900, Note_on_c, 11, 67, 52
13, 84953, Note_on_c, 11, 67, 0
13, 84960, Note_on_c, 11, 72, 52
13, 85019, Note_on_c, 11, 72, 0
13, 85020, Note_on_c, 11, 69, 52
13, 85079, Note_on_c, 11, 69, 0
13, 85080, Note_on_c, 11, 72, 52
13, 85139, Note_on_c, 11, 72, 0
13, 85140, Note_on_c, 11, 69, 52
13, 85199, Note_on_c, 11, 69, 0
13, 85200, Note_on_c, 11, 72, 52
13, 85259, Note_on_c, 11, 72, 0
13, 85260, Note_on_c, 11, 69, 52
13, 85319, Note_on_c, 11, 69, 0
13, 85320, Note_on_c, 11, 74, 52
13, 85379, Note_on_c, 11, 74, 0
13, 85380, Note_on_c, 11, 71, 52
13, 85439, Note_on_c, 11, 71, 0
13, 85440, Note_on_c, 11, 72, 52
13, 85499, Note_on_c, 11, 72, 0
13, 85500, Note_on_c, 11, 69, 52
13, 85559, Note_on_c, 11, 69, 0
13, 85560, Note_on_c, 11, 72, 52
13, 85619, Note_on_c, 11, 72, 0
13, 85620, Note_on_c, 11, 69, 52
13, 85679, Note_on_c, 11, 69, 0
13, 85680, Note_on_c, 11, 71, 52
13, 85739, Note_on_c, 11, 71, 0
13, 85740, Note_on_c, 11, 67, 52
13, 85799, Note_on_c, 11, 67, 0
13, 85800, Note_on_c, 11, 69, 52
13, 85859, Note_on_c, 11, 69, 0
13, 85860, Note_on_c, 11, 66, 52
13, 85919, Note_on_c, 11, 66, 0
13, 85920, Note_on_c, 11, 69, 52
13, 85979, Note_on_c, 11, 69, 0
13, 85980, Note_on_c, 11, 66, 52
13, 86039, Note_on_c, 11, 66, 0
13, 86040, Note_on_c, 11, 67, 52
13, 86099, Note_on_c, 11, 67, 0
13, 86100, Note_on_c, 11, 64, 52
13, 86159, Note_on_c, 11, 64, 0
13, 86160, Note_on_c, 11, 69, 52
13, 86219, Note_on_c, 11, 69, 0
13, 86220, Note_on_c, 11, 66, 52
13, 86279, Note_on_c, 11, 66, 0
13, 86280, Note_on_c, 11, 69, 52
13, 86339, Note_on_c, 11, 69, 0
13, 86340, Note_on_c, 11, 66, 52
13, 86393, Note_on_c, 11, 66, 0
13, 86400, Note_on_c, 11, 69, 52
13, 86459, Note_on_c, 11, 69, 0
13, 86460, Note_on_c, 11, 66, 52
13, 86519, Note_on_c, 11, 66, 0
13, 86520, Note_on_c, 11, 72, 52
13, 86579, Note_on_c, 11, 72, 0
13, 86580, Note_on_c, 11, 69, 52
13, 86639, Note_on_c, 11, 69, 0
13, 86640, Note_on_c, 11, 72, 52
13, 86699, Note_on_c, 11, 72, 0
13, 86700, Note_on_c, 11, 69, 52
13, 86759, Note_on_c, 11, 69, 0
13, 86760, Note_on_c, 11, 74, 52
13, 86819, Note_on_c, 11, 74, 0
13, 86820, Note_on_c, 11, 71, 52
13, 86879, Note_on_c, 11, 71, 0
13, 86880, Note_on_c, 11, 72, 52
13, 86939, Note_on_c, 11, 72, 0
13, 86940, Note_on_c, 11, 69, 52
13, 86999, Note_on_c, 11, 69, 0
13, 87000, Note_on_c, 11, 71, 52
13, 87059, Note_on_c, 11, 71, 0
13, 87060, Note_on_c, 11, 67, 52
13, 87119, Note_on_c, 11, 67, 0
13, 87120, Note_on_c, 11, 69, 52
13, 87179, Note_on_c, 11, 69, 0
13, 87180, Note_on_c, 11, 66, 52
13, 87239, Note_on_c, 11, 66, 0
13, 87240, Note_on_c, 11, 67, 52
13, 87299, Note_on_c, 11, 67, 0
13, 87300, Note_on_c, 11, 64, 52
13, 87359, Note_on_c, 11, 64, 0
13, 87360, Note_on_c, 11, 66, 52
13, 87419, Note_on_c, 11, 66, 0
13, 87420, Note_on_c, 11, 62, 52
13, 87479, Note_on_c, 11, 62, 0
13, 87480, Note_on_c, 11, 64, 52
13, 87539, Note_on_c, 11, 64, 0
13, 87540, Note_on_c, 11, 60, 52
13, 87599, Note_on_c, 11, 60, 0
13, 87600, Note_on_c, 11, 62, 52
13, 87659, Note_on_c, 11, 62, 0
13, 87660, Note_on_c, 11, 59, 52
13, 87719, Note_on_c, 11, 59, 0
13, 87720, Note_on_c, 11, 60, 52
13, 87779, Note_on_c, 11, 60, 0
13, 87780, Note_on_c, 11, 57, 52
13, 87833, Note_on_c, 11, 57, 0
13, 87840, Note_on_c, 11, 62, 52
13, 87899, Note_on_c, 11, 62, 0
13, 87900, Note_on_c, 11, 59, 52
13, 87959, Note_on_c, 11, 59, 0
13, 87960, Note_on_c, 11, 62, 52
13, 88019, Note_on_c, 11, 62, 0
13, 88020, Note_on_c, 11, 59, 52
13, 88079, Note_on_c, 11, 59, 0
13, 88080, Note_on_c, 11, 62, 52
13, 88139, Note_on_c, 11, 62, 0
13, 88140, Note_on_c, 11, 59, 52
13, 88199, Note_on_c, 11, 59, 0
13, 88200, Note_on_c, 11, 62, 52
13, 88259, Note_on_c, 11, 62, 0
13, 88260, Note_on_c, 11, 59, 52
13, 88319, Note_on_c, 11, 59, 0
13, 88320, Note_on_c, 11, 62, 52
13, 88379, Note_on_c, 11, 62, 0
13, 88380, Note_on_c, 11, 59, 52
13, 88439, Note_on_c, 11, 59, 0
13, 88440, Note_on_c, 11, 62, 52
13, 88499, Note_on_c, 11, 62, 0
13, 88500, Note_on_c, 11, 59, 52
13, 88553, Note_on_c, 11, 59, 0
13, 88560, Note_on_c, 11, 64, 52
13, 88619, Note_on_c, 11, 64, 0
13, 88620, Note_on_c, 11, 60, 52
13, 88679, Note_on_c, 11, 60, 0
13, 88680, Note_on_c, 11, 64, 52
13, 88739, Note_on_c, 11, 64, 0
13, 88740, Note_on_c, 11, 60, 52
13, 88799, Note_on_c, 11, 60, 0
13, 88800, Note_on_c, 11, 64, 52
13, 88859, Note_on_c, 11, 64, 0
13, 88860, Note_on_c, 11, 60, 52
13, 88919, Note_on_c, 11, 60, 0
13, 88920, Note_on_c, 11, 64, 52
13, 88979, Note_on_c, 11, 64, 0
13, 88980, Note_on_c, 11, 60, 52
13, 89039, Note_on_c, 11, 60, 0
13, 89040, Note_on_c, 11, 64, 52
13, 89099, Note_on_c, 11, 64, 0
13, 89100, Note_on_c, 11, 60, 52
13, 89159, Note_on_c, 11, 60, 0
13, 89160, Note_on_c, 11, 64, 52
13, 89219, Note_on_c, 11, 64, 0
13, 89220, Note_on_c, 11, 60, 52
13, 89273, Note_on_c, 11, 60, 0
13, 89280, Note_on_c, 11, 62, 52
13, 89339, Note_on_c, 11, 62, 0
13, 89340, Note_on_c, 11, 59, 52
13, 89399, Note_on_c, 11, 59, 0
13, 89400, Note_on_c, 11, 62, 52
13, 89459, Note_on_c, 11, 62, 0
13, 89460, Note_on_c, 11, 59, 52
13, 89519, Note_on_c, 11, 59, 0
13, 89520, Note_on_c, 11, 62, 52
13, 89579, Note_on_c, 11, 62, 0
13, 89580, Note_on_c, 11, 59, 52
13, 89639, Note_on_c, 11, 59, 0
13, 89640, Note_on_c, 11, 62, 52
13, 89699, Note_on_c, 11, 62, 0
13, 89700, Note_on_c, 11, 59, 52
13, 89759, Note_on_c, 11, 59, 0
13, 89760, Note_on_c, 11, 62, 52
13, 89819, Note_on_c, 11, 62, 0
13, 89820, Note_on_c, 11, 59, 52
13, 89879, Note_on_c, 11, 59, 0
13, 89880, Note_on_c, 11, 62, 52
13, 89939, Note_on_c, 11, 62, 0
13, 89940, Note_on_c, 11, 59, 52
13, 89993, Note_on_c, 11, 59, 0
13, 90000, Note_on_c, 11, 64, 52
13, 90059, Note_on_c, 11, 64, 0
13, 90060, Note_on_c, 11, 60, 52
13, 90119, Note_on_c, 11, 60, 0
13, 90120, Note_on_c, 11, 64, 52
13, 90179, Note_on_c, 11, 64, 0
13, 90180, Note_on_c, 11, 60, 52
13, 90239, Note_on_c, 11, 60, 0
13, 90240, Note_on_c, 11, 64, 52
13, 90299, Note_on_c, 11, 64, 0
13, 90300, Note_on_c, 11, 60, 52
13, 90359, Note_on_c, 11, 60, 0
13, 90360, Note_on_c, 11, 64, 52
13, 90419, Note_on_c, 11, 64, 0
13, 90420, Note_on_c, 11, 60, 52
13, 90479, Note_on_c, 11, 60, 0
13, 90480, Note_on_c, 11, 64, 52
13, 90539, Note_on_c, 11, 64, 0
13, 90540, Note_on_c, 11, 60, 52
13, 90599, Note_on_c, 11, 60, 0
13, 90600, Note_on_c, 11, 64, 52
13, 90659, Note_on_c, 11, 64, 0
13, 90660, Note_on_c, 11, 60, 52
13, 90713, Note_on_c, 11, 60, 0
13, 90718, Control_c, 11, 11, 97
13, 90720, Note_on_c, 11, 62, 68
13, 90840, Control_c, 11, 11, 99
13, 90960, Control_c, 11, 11, 102
13, 91079, Note_on_c, 11, 62, 0
13, 91080, Control_c, 11, 11, 105
13, 91080, Note_on_c, 11, 64, 68
13, 91200, Control_c, 11, 11, 107
13, 91320, Control_c, 11, 11, 110
13, 91439, Note_on_c, 11, 64, 0
13, 91440, Note_on_c, 11, 66, 68
13, 91440, Control_c, 11, 11, 113
13, 91560, Control_c, 11, 11, 115
13, 91680, Control_c, 11, 11, 118
13, 91799, Note_on_c, 11, 66, 0
13, 91800, Control_c, 11, 11, 119
13, 91800, Note_on_c, 11, 67, 68
13, 91920, Control_c, 11, 11, 123
13, 92040, Control_c, 11, 11, 125
13, 92149, Note_on_c, 11, 67, 0
13, 92158, Control_c, 11, 11, 127
13, 92160, Note_on_c, 11, 64, 52
13, 92399, Note_on_c, 11, 64, 0
13, 93240, Control_c, 11, 11, 81
13, 93360, Note_on_c, 11, 55, 76
13, 93360, Note_on_c, 11, 67, 76
13, 93469, Note_on_c, 11, 55, 0
13, 93469, Note_on_c, 11, 67, 0
13, 93480, Note_on_c, 11, 67, 76
13, 93480, Note_on_c, 11, 55, 76
13, 93589, Note_on_c, 11, 67, 0
13, 93589, Note_on_c, 11, 55, 0
13, 93600, Note_on_c, 11, 67, 76
13, 93600, Note_on_c, 11, 55, 76
13, 93839, Note_on_c, 11, 67, 0
13, 93839, Note_on_c, 11, 55, 0
13, 94320, Note_on_c, 11, 62, 76
13, 94320, Note_on_c, 11, 60, 76
13, 94320, Control_c, 11, 11, 81
13, 94500, Control_c, 11, 11, 85
13, 94680, Control_c, 11, 11, 89
13, 94860, Control_c, 11, 11, 93
13, 95029, Note_on_c, 11, 62, 0
13, 95029, Note_on_c, 11, 60, 0
13, 95040, Control_c, 11, 11, 97
13, 95040, Note_on_c, 11, 62, 76
13, 95040, Note_on_c, 11, 59, 76
13, 95220, Control_c, 11, 11, 101
13, 95400, Control_c, 11, 11, 105
13, 95580, Control_c, 11, 11, 107
13, 95749, Note_on_c, 11, 62, 0
13, 95749, Note_on_c, 11, 59, 0
13, 95760, Control_c, 11, 11, 111
13, 95760, Note_on_c, 11, 62, 76
13, 95760, Note_on_c, 11, 60, 76
13, 95940, Control_c, 11, 11, 115
13, 96120, Control_c, 11, 11, 119
13, 96300, Control_c, 11, 11, 123
13, 96349, Note_on_c, 11, 62, 0
13, 96349, Note_on_c, 11, 60, 0
13, 96360, Note_on_c, 11, 74, 76
13, 96449, Note_on_c, 11, 74, 0
13, 96460, Note_on_c, 11, 75, 76
13, 96479, Note_on_c, 11, 75, 0
13, 96480, Control_c, 11, 11, 127
13, 96480, Note_on_c, 11, 74, 76
13, 96599, Note_on_c, 11, 74, 0
13, 96600, Note_on_c, 11, 72, 76
13, 96719, Note_on_c, 11, 72, 0
13, 96720, Note_on_c, 11, 70, 76
13, 96809, Note_on_c, 11, 70, 0
13, 96820, Note_on_c, 11, 72, 76
13, 96839, Note_on_c, 11, 72, 0
13, 96840, Note_on_c, 11, 70, 76
13, 96959, Note_on_c, 11, 70, 0
13, 96960, Note_on_c, 11, 69, 76
13, 97079, Note_on_c, 11, 69, 0
13, 97080, Note_on_c, 11, 67, 76
13, 97189, Note_on_c, 11, 67, 0
13, 97200, Control_c, 11, 11, 127
13, 97200, Note_on_c, 11, 68, 76
13, 97260, Control_c, 11, 11, 123
13, 97320, Control_c, 11, 11, 119
13, 97380, Control_c, 11, 11, 115
13, 97440, Control_c, 11, 11, 111
13, 97500, Control_c, 11, 11, 107
13, 97560, Control_c, 11, 11, 105
13, 97560, Note_on_c, 11, 58, 76
13, 97620, Control_c, 11, 11, 101
13, 97680, Control_c, 11, 11, 97
13, 97740, Control_c, 11, 11, 93
13, 97800, Control_c, 11, 11, 89
13, 97860, Control_c, 11, 11, 85
13, 97918, Control_c, 11, 11, 81
13, 97919, Note_on_c, 11, 68, 0
13, 97920, Note_on_c, 11, 67, 76
13, 97973, Note_on_c, 11, 58, 0
13, 97973, Note_on_c, 11, 67, 0
13, 97980, Note_on_c, 11, 67, 76
13, 98039, Note_on_c, 11, 67, 0
13, 98040, Note_on_c, 11, 70, 76
13, 98099, Note_on_c, 11, 70, 0
13, 98100, Note_on_c, 11, 67, 76
13, 98159, Note_on_c, 11, 67, 0
13, 98160, Note_on_c, 11, 70, 76
13, 98219, Note_on_c, 11, 70, 0
13, 98220, Note_on_c, 11, 67, 76
13, 98279, Note_on_c, 11, 67, 0
13, 98280, Note_on_c, 11, 72, 76
13, 98339, Note_on_c, 11, 72, 0
13, 98340, Note_on_c, 11, 68, 76
13, 98399, Note_on_c, 11, 68, 0
13, 98400, Note_on_c, 11, 70, 76
13, 98459, Note_on_c, 11, 70, 0
13, 98460, Note_on_c, 11, 67, 76
13, 98519, Note_on_c, 11, 67, 0
13, 98520, Note_on_c, 11, 70, 76
13, 98579, Note_on_c, 11, 70, 0
13, 98580, Note_on_c, 11, 67, 76
13, 98639, Note_on_c, 11, 67, 0
13, 98640, Note_on_c, 11, 68, 76
13, 98699, Note_on_c, 11, 68, 0
13, 98700, Note_on_c, 11, 65, 76
13, 98759, Note_on_c, 11, 65, 0
13, 98760, Note_on_c, 11, 67, 76
13, 98819, Note_on_c, 11, 67, 0
13, 98820, Note_on_c, 11, 63, 76
13, 98879, Note_on_c, 11, 63, 0
13, 98880, Note_on_c, 11, 67, 76
13, 98939, Note_on_c, 11, 67, 0
13, 98940, Note_on_c, 11, 63, 76
13, 98999, Note_on_c, 11, 63, 0
13, 99000, Note_on_c, 11, 65, 76
13, 99059, Note_on_c, 11, 65, 0
13, 99060, Note_on_c, 11, 62, 76
13, 99119, Note_on_c, 11, 62, 0
13, 99120, Note_on_c, 11, 67, 76
13, 99179, Note_on_c, 11, 67, 0
13, 99180, Note_on_c, 11, 63, 76
13, 99239, Note_on_c, 11, 63, 0
13, 99240, Note_on_c, 11, 67, 76
13, 99299, Note_on_c, 11, 67, 0
13, 99300, Note_on_c, 11, 63, 76
13, 99353, Note_on_c, 11, 63, 0
13, 99360, Note_on_c, 11, 67, 76
13, 99419, Note_on_c, 11, 67, 0
13, 99420, Note_on_c, 11, 63, 76
13, 99479, Note_on_c, 11, 63, 0
13, 99480, Note_on_c, 11, 70, 76
13, 99539, Note_on_c, 11, 70, 0
13, 99540, Note_on_c, 11, 67, 76
13, 99599, Note_on_c, 11, 67, 0
13, 99600, Note_on_c, 11, 70, 76
13, 99659, Note_on_c, 11, 70, 0
13, 99660, Note_on_c, 11, 67, 76
13, 99719, Note_on_c, 11, 67, 0
13, 99720, Note_on_c, 11, 72, 76
13, 99779, Note_on_c, 11, 72, 0
13, 99780, Note_on_c, 11, 68, 76
13, 99839, Note_on_c, 11, 68, 0
13, 99840, Note_on_c, 11, 70, 76
13, 99899, Note_on_c, 11, 70, 0
13, 99900, Note_on_c, 11, 67, 76
13, 99959, Note_on_c, 11, 67, 0
13, 99960, Note_on_c, 11, 70, 76
13, 100019, Note_on_c, 11, 70, 0
13, 100020, Note_on_c, 11, 67, 76
13, 100079, Note_on_c, 11, 67, 0
13, 100080, Note_on_c, 11, 68, 76
13, 100139, Note_on_c, 11, 68, 0
13, 100140, Note_on_c, 11, 65, 76
13, 100199, Note_on_c, 11, 65, 0
13, 100200, Note_on_c, 11, 67, 76
13, 100259, Note_on_c, 11, 67, 0
13, 100260, Note_on_c, 11, 63, 76
13, 100319, Note_on_c, 11, 63, 0
13, 100320, Note_on_c, 11, 67, 76
13, 100379, Note_on_c, 11, 67, 0
13, 100380, Note_on_c, 11, 63, 76
13, 100439, Note_on_c, 11, 63, 0
13, 100440, Note_on_c, 11, 65, 76
13, 100499, Note_on_c, 11, 65, 0
13, 100500, Note_on_c, 11, 62, 76
13, 100559, Note_on_c, 11, 62, 0
13, 100560, Note_on_c, 11, 67, 76
13, 100619, Note_on_c, 11, 67, 0
13, 100620, Note_on_c, 11, 63, 76
13, 100679, Note_on_c, 11, 63, 0
13, 100680, Note_on_c, 11, 67, 76
13, 100739, Note_on_c, 11, 67, 0
13, 100740, Note_on_c, 11, 63, 76
13, 100793, Note_on_c, 11, 63, 0
13, 100800, Note_on_c, 11, 68, 76
13, 100859, Note_on_c, 11, 68, 0
13, 100860, Note_on_c, 11, 65, 76
13, 100919, Note_on_c, 11, 65, 0
13, 100920, Note_on_c, 11, 68, 76
13, 100979, Note_on_c, 11, 68, 0
13, 100980, Note_on_c, 11, 65, 76
13, 101039, Note_on_c, 11, 65, 0
13, 101040, Note_on_c, 11, 68, 76
13, 101099, Note_on_c, 11, 68, 0
13, 101100, Note_on_c, 11, 65, 76
13, 101159, Note_on_c, 11, 65, 0
13, 101160, Note_on_c, 11, 70, 76
13, 101219, Note_on_c, 11, 70, 0
13, 101220, Note_on_c, 11, 67, 76
13, 101279, Note_on_c, 11, 67, 0
13, 101280, Note_on_c, 11, 68, 76
13, 101339, Note_on_c, 11, 68, 0
13, 101340, Note_on_c, 11, 65, 76
13, 101399, Note_on_c, 11, 65, 0
13, 101400, Note_on_c, 11, 68, 76
13, 101459, Note_on_c, 11, 68, 0
13, 101460, Note_on_c, 11, 65, 76
13, 101519, Note_on_c, 11, 65, 0
13, 101520, Note_on_c, 11, 67, 76
13, 101579, Note_on_c, 11, 67, 0
13, 101580, Note_on_c, 11, 63, 76
13, 101639, Note_on_c, 11, 63, 0
13, 101640, Note_on_c, 11, 65, 76
13, 101699, Note_on_c, 11, 65, 0
13, 101700, Note_on_c, 11, 62, 76
13, 101759, Note_on_c, 11, 62, 0
13, 101760, Note_on_c, 11, 65, 76
13, 101819, Note_on_c, 11, 65, 0
13, 101820, Note_on_c, 11, 62, 76
13, 101879, Note_on_c, 11, 62, 0
13, 101880, Note_on_c, 11, 63, 76
13, 101939, Note_on_c, 11, 63, 0
13, 101940, Note_on_c, 11, 60, 76
13, 101999, Note_on_c, 11, 60, 0
13, 102000, Note_on_c, 11, 65, 76
13, 102059, Note_on_c, 11, 65, 0
13, 102060, Note_on_c, 11, 62, 76
13, 102119, Note_on_c, 11, 62, 0
13, 102120, Note_on_c, 11, 65, 76
13, 102179, Note_on_c, 11, 65, 0
13, 102180, Note_on_c, 11, 62, 76
13, 102233, Note_on_c, 11, 62, 0
13, 102240, Note_on_c, 11, 65, 76
13, 102299, Note_on_c, 11, 65, 0
13, 102300, Note_on_c, 11, 62, 76
13, 102359, Note_on_c, 11, 62, 0
13, 102360, Note_on_c, 11, 68, 76
13, 102419, Note_on_c, 11, 68, 0
13, 102420, Note_on_c, 11, 65, 76
13, 102479, Note_on_c, 11, 65, 0
13, 102480, Note_on_c, 11, 68, 76
13, 102539, Note_on_c, 11, 68, 0
13, 102540, Note_on_c, 11, 65, 76
13, 102599, Note_on_c, 11, 65, 0
13, 102600, Note_on_c, 11, 70, 76
13, 102659, Note_on_c, 11, 70, 0
13, 102660, Note_on_c, 11, 67, 76
13, 102719, Note_on_c, 11, 67, 0
13, 102720, Note_on_c, 11, 68, 76
13, 102779, Note_on_c, 11, 68, 0
13, 102780, Note_on_c, 11, 65, 76
13, 102839, Note_on_c, 11, 65, 0
13, 102840, Note_on_c, 11, 67, 76
13, 102899, Note_on_c, 11, 67, 0
13, 102900, Note_on_c, 11, 63, 76
13, 102959, Note_on_c, 11, 63, 0
13, 102960, Note_on_c, 11, 65, 76
13, 103019, Note_on_c, 11, 65, 0
13, 103020, Note_on_c, 11, 62, 76
13, 103079, Note_on_c, 11, 62, 0
13, 103080, Note_on_c, 11, 63, 76
13, 103139, Note_on_c, 11, 63, 0
13, 103140, Note_on_c, 11, 60, 76
13, 103199, Note_on_c, 11, 60, 0
13, 103200, Note_on_c, 11, 62, 76
13, 103259, Note_on_c, 11, 62, 0
13, 103260, Note_on_c, 11, 58, 76
13, 103319, Note_on_c, 11, 58, 0
13, 103320, Note_on_c, 11, 60, 76
13, 103379, Note_on_c, 11, 60, 0
13, 103380, Note_on_c, 11, 56, 76
13, 103439, Note_on_c, 11, 56, 0
13, 103440, Note_on_c, 11, 58, 76
13, 103499, Note_on_c, 11, 58, 0
13, 103500, Note_on_c, 11, 55, 76
13, 103559, Note_on_c, 11, 55, 0
13, 103560, Note_on_c, 11, 58, 76
13, 103619, Note_on_c, 11, 58, 0
13, 103620, Note_on_c, 11, 56, 76
13, 103673, Note_on_c, 11, 56, 0
13, 103678, Control_c, 11, 11, 96
13, 103680, Note_on_c, 11, 58, 68
13, 103739, Note_on_c, 11, 58, 0
13, 103740, Note_on_c, 11, 55, 68
13, 103799, Note_on_c, 11, 55, 0
13, 103800, Note_on_c, 11, 58, 68
13, 103859, Note_on_c, 11, 58, 0
13, 103860, Note_on_c, 11, 55, 68
13, 103919, Note_on_c, 11, 55, 0
13, 103920, Note_on_c, 11, 58, 68
13, 103979, Note_on_c, 11, 58, 0
13, 103980, Note_on_c, 11, 55, 68
13, 104039, Note_on_c, 11, 55, 0
13, 104040, Note_on_c, 11, 58, 68
13, 104099, Note_on_c, 11, 58, 0
13, 104100, Note_on_c, 11, 55, 68
13, 104159, Note_on_c, 11, 55, 0
13, 104160, Note_on_c, 11, 58, 68
13, 104219, Note_on_c, 11, 58, 0
13, 104220, Note_on_c, 11, 55, 68
13, 104279, Note_on_c, 11, 55, 0
13, 104280, Note_on_c, 11, 58, 68
13, 104339, Note_on_c, 11, 58, 0
13, 104340, Note_on_c, 11, 55, 68
13, 104399, Note_on_c, 11, 55, 0
13, 104400, Note_on_c, 11, 60, 68
13, 104459, Note_on_c, 11, 60, 0
13, 104460, Note_on_c, 11, 56, 68
13, 104519, Note_on_c, 11, 56, 0
13, 104520, Note_on_c, 11, 60, 68
13, 104579, Note_on_c, 11, 60, 0
13, 104580, Note_on_c, 11, 56, 68
13, 104639, Note_on_c, 11, 56, 0
13, 104640, Note_on_c, 11, 60, 68
13, 104699, Note_on_c, 11, 60, 0
13, 104700, Note_on_c, 11, 56, 68
13, 104759, Note_on_c, 11, 56, 0
13, 104760, Note_on_c, 11, 60, 68
13, 104819, Note_on_c, 11, 60, 0
13, 104820, Note_on_c, 11, 56, 68
13, 104879, Note_on_c, 11, 56, 0
13, 104880, Note_on_c, 11, 60, 68
13, 104939, Note_on_c, 11, 60, 0
13, 104940, Note_on_c, 11, 56, 68
13, 104999, Note_on_c, 11, 56, 0
13, 105000, Note_on_c, 11, 60, 68
13, 105059, Note_on_c, 11, 60, 0
13, 105060, Note_on_c, 11, 56, 68
13, 105113, Note_on_c, 11, 56, 0
13, 105120, Note_on_c, 11, 58, 68
13, 105179, Note_on_c, 11, 58, 0
13, 105180, Note_on_c, 11, 55, 68
13, 105239, Note_on_c, 11, 55, 0
13, 105240, Note_on_c, 11, 58, 68
13, 105299, Note_on_c, 11, 58, 0
13, 105300, Note_on_c, 11, 55, 68
13, 105359, Note_on_c, 11, 55, 0
13, 105360, Note_on_c, 11, 58, 68
13, 105419, Note_on_c, 11, 58, 0
13, 105420, Note_on_c, 11, 55, 68
13, 105479, Note_on_c, 11, 55, 0
13, 105480, Note_on_c, 11, 58, 68
13, 105539, Note_on_c, 11, 58, 0
13, 105540, Note_on_c, 11, 55, 68
13, 105599, Note_on_c, 11, 55, 0
13, 105600, Note_on_c, 11, 58, 68
13, 105659, Note_on_c, 11, 58, 0
13, 105660, Note_on_c, 11, 55, 68
13, 105719, Note_on_c, 11, 55, 0
13, 105720, Note_on_c, 11, 58, 68
13, 105779, Note_on_c, 11, 58, 0
13, 105780, Note_on_c, 11, 55, 68
13, 105839, Note_on_c, 11, 55, 0
13, 105840, Note_on_c, 11, 60, 68
13, 105899, Note_on_c, 11, 60, 0
13, 105900, Note_on_c, 11, 56, 68
13, 105959, Note_on_c, 11, 56, 0
13, 105960, Note_on_c, 11, 60, 68
13, 106019, Note_on_c, 11, 60, 0
13, 106020, Note_on_c, 11, 56, 68
13, 106079, Note_on_c, 11, 56, 0
13, 106080, Note_on_c, 11, 60, 68
13, 106139, Note_on_c, 11, 60, 0
13, 106140, Note_on_c, 11, 56, 68
13, 106199, Note_on_c, 11, 56, 0
13, 106200, Note_on_c, 11, 60, 68
13, 106259, Note_on_c, 11, 60, 0
13, 106260, Note_on_c, 11, 56, 68
13, 106319, Note_on_c, 11, 56, 0
13, 106320, Note_on_c, 11, 60, 68
13, 106379, Note_on_c, 11, 60, 0
13, 106380, Note_on_c, 11, 56, 68
13, 106439, Note_on_c, 11, 56, 0
13, 106440, Note_on_c, 11, 60, 68
13, 106499, Note_on_c, 11, 60, 0
13, 106500, Note_on_c, 11, 56, 68
13, 106553, Note_on_c, 11, 56, 0
13, 106558, Control_c, 11, 11, 97
13, 106560, Note_on_c, 11, 58, 68
13, 106680, Control_c, 11, 11, 99
13, 106800, Control_c, 11, 11, 102
13, 106919, Note_on_c, 11, 58, 0
13, 106920, Note_on_c, 11, 60, 68
13, 106920, Control_c, 11, 11, 105
13, 107040, Control_c, 11, 11, 107
13, 107160, Control_c, 11, 11, 110
13, 107279, Note_on_c, 11, 60, 0
13, 107280, Note_on_c, 11, 62, 68
13, 107280, Control_c, 11, 11, 113
13, 107400, Control_c, 11, 11, 115
13, 107520, Control_c, 11, 11, 118
13, 107639, Note_on_c, 11, 62, 0
13, 107640, Note_on_c, 11, 63, 68
13, 107640, Control_c, 11, 11, 119
13, 107760, Control_c, 11, 11, 123
13, 107880, Control_c, 11, 11, 125
13, 107989, Note_on_c, 11, 63, 0
13, 108000, Note_on_c, 11, 60, 52
13, 108000, Control_c, 11, 11, 127
13, 108239, Note_on_c, 11, 60, 0
13, 110640, Control_c, 11, 11, 97
13, 110760, Note_on_c, 11, 70, 76
13, 110760, Control_c, 11, 11, 101
13, 110849, Note_on_c, 11, 70, 0
13, 110860, Note_on_c, 11, 71, 76
13, 110879, Note_on_c, 11, 71, 0
13, 110880, Control_c, 11, 11, 105
13, 110880, Note_on_c, 11, 70, 76
13, 110999, Note_on_c, 11, 70, 0
13, 111000, Control_c, 11, 11, 107
13, 111000, Note_on_c, 11, 68, 76
13, 111119, Note_on_c, 11, 68, 0
13, 111120, Note_on_c, 11, 66, 76
13, 111120, Control_c, 11, 11, 111
13, 111209, Note_on_c, 11, 66, 0
13, 111220, Note_on_c, 11, 68, 76
13, 111239, Note_on_c, 11, 68, 0
13, 111240, Control_c, 11, 11, 115
13, 111240, Note_on_c, 11, 66, 76
13, 111359, Note_on_c, 11, 66, 0
13, 111360, Note_on_c, 11, 65, 76
13, 111360, Control_c, 11, 11, 119
13, 111479, Note_on_c, 11, 65, 0
13, 111480, Note_on_c, 11, 66, 76
13, 111480, Control_c, 11, 11, 123
13, 111589, Note_on_c, 11, 66, 0
13, 111600, Note_on_c, 11, 68, 76
13, 111600, Control_c, 11, 11, 127
13, 111660, Control_c, 11, 11, 123
13, 111720, Control_c, 11, 11, 119
13, 111780, Control_c, 11, 11, 115
13, 111840, Control_c, 11, 11, 111
13, 111900, Control_c, 11, 11, 107
13, 111959, Note_on_c, 11, 68, 0
13, 111960, Control_c, 11, 11, 105
13, 111960, Note_on_c, 11, 71, 76
13, 112020, Control_c, 11, 11, 101
13, 112080, Control_c, 11, 11, 97
13, 112140, Control_c, 11, 11, 93
13, 112199, Note_on_c, 11, 71, 0
13, 112200, Note_on_c, 11, 68, 76
13, 112200, Control_c, 11, 11, 89
13, 112260, Control_c, 11, 11, 85
13, 112309, Note_on_c, 11, 68, 0
13, 112320, Note_on_c, 11, 70, 76
13, 112320, Control_c, 11, 11, 81
13, 112379, Note_on_c, 11, 70, 0
13, 112380, Note_on_c, 11, 61, 76
13, 112439, Note_on_c, 11, 61, 0
13, 112440, Note_on_c, 11, 58, 76
13, 112499, Note_on_c, 11, 58, 0
13, 112500, Note_on_c, 11, 61, 76
13, 112559, Note_on_c, 11, 61, 0
13, 112560, Note_on_c, 11, 58, 76
13, 112619, Note_on_c, 11, 58, 0
13, 112620, Note_on_c, 11, 61, 76
13, 112679, Note_on_c, 11, 61, 0
13, 112680, Control_c, 11, 11, 81
13, 112680, Note_on_c, 11, 58, 76
13, 112739, Note_on_c, 11, 58, 0
13, 112740, Note_on_c, 11, 61, 76
13, 112799, Note_on_c, 11, 61, 0
13, 112800, Note_on_c, 11, 58, 76
13, 112859, Note_on_c, 11, 58, 0
13, 112860, Note_on_c, 11, 61, 76
13, 112890, Control_c, 11, 11, 79
13, 112919, Note_on_c, 11, 61, 0
13, 112920, Note_on_c, 11, 58, 76
13, 112979, Note_on_c, 11, 58, 0
13, 112980, Note_on_c, 11, 61, 76
13, 113039, Note_on_c, 11, 61, 0
13, 113040, Note_on_c, 11, 58, 76
13, 113099, Note_on_c, 11, 58, 0
13, 113100, Control_c, 11, 11, 78
13, 113100, Note_on_c, 11, 61, 76
13, 113159, Note_on_c, 11, 61, 0
13, 113160, Note_on_c, 11, 58, 76
13, 113219, Note_on_c, 11, 58, 0
13, 113220, Note_on_c, 11, 61, 76
13, 113279, Note_on_c, 11, 61, 0
13, 113280, Note_on_c, 11, 58, 76
13, 113310, Control_c, 11, 11, 77
13, 113339, Note_on_c, 11, 58, 0
13, 113340, Note_on_c, 11, 61, 76
13, 113399, Note_on_c, 11, 61, 0
13, 113400, Note_on_c, 11, 58, 76
13, 113459, Note_on_c, 11, 58, 0
13, 113460, Note_on_c, 11, 61, 76
13, 113519, Note_on_c, 11, 61, 0
13, 113520, Control_c, 11, 11, 75
13, 113520, Note_on_c, 11, 58, 76
13, 113579, Note_on_c, 11, 58, 0
13, 113580, Note_on_c, 11, 61, 76
13, 113639, Note_on_c, 11, 61, 0
13, 113640, Note_on_c, 11, 58, 76
13, 113699, Note_on_c, 11, 58, 0
13, 113700, Note_on_c, 11, 61, 76
13, 113730, Control_c, 11, 11, 74
13, 113753, Note_on_c, 11, 61, 0
13, 113760, Note_on_c, 11, 58, 76
13, 113819, Note_on_c, 11, 58, 0
13, 113820, Note_on_c, 11, 61, 76
13, 113879, Note_on_c, 11, 61, 0
13, 113880, Note_on_c, 11, 58, 76
13, 113939, Note_on_c, 11, 58, 0
13, 113940, Note_on_c, 11, 61, 76
13, 113940, Control_c, 11, 11, 73
13, 113999, Note_on_c, 11, 61, 0
13, 114000, Note_on_c, 11, 58, 76
13, 114059, Note_on_c, 11, 58, 0
13, 114060, Note_on_c, 11, 61, 76
13, 114119, Note_on_c, 11, 61, 0
13, 114120, Note_on_c, 11, 58, 76
13, 114150, Control_c, 11, 11, 71
13, 114179, Note_on_c, 11, 58, 0
13, 114180, Note_on_c, 11, 61, 76
13, 114239, Note_on_c, 11, 61, 0
13, 114240, Note_on_c, 11, 58, 76
13, 114299, Note_on_c, 11, 58, 0
13, 114300, Note_on_c, 11, 61, 76
13, 114359, Note_on_c, 11, 61, 0
13, 114360, Control_c, 11, 11, 70
13, 114360, Note_on_c, 11, 58, 76
13, 114419, Note_on_c, 11, 58, 0
13, 114420, Note_on_c, 11, 61, 76
13, 114479, Note_on_c, 11, 61, 0
13, 114480, Note_on_c, 11, 58, 76
13, 114539, Note_on_c, 11, 58, 0
13, 114540, Note_on_c, 11, 61, 76
13, 114570, Control_c, 11, 11, 69
13, 114599, Note_on_c, 11, 61, 0
13, 114600, Note_on_c, 11, 58, 76
13, 114659, Note_on_c, 11, 58, 0
13, 114660, Note_on_c, 11, 61, 76
13, 114719, Note_on_c, 11, 61, 0
13, 114720, Note_on_c, 11, 58, 76
13, 114779, Note_on_c, 11, 58, 0
13, 114780, Control_c, 11, 11, 67
13, 114780, Note_on_c, 11, 61, 76
13, 114839, Note_on_c, 11, 61, 0
13, 114840, Note_on_c, 11, 58, 76
13, 114899, Note_on_c, 11, 58, 0
13, 114900, Note_on_c, 11, 61, 76
13, 114959, Note_on_c, 11, 61, 0
13, 114960, Note_on_c, 11, 58, 76
13, 114990, Control_c, 11, 11, 66
13, 115019, Note_on_c, 11, 58, 0
13, 115020, Note_on_c, 11, 61, 76
13, 115079, Note_on_c, 11, 61, 0
13, 115080, Note_on_c, 11, 58, 76
13, 115139, Note_on_c, 11, 58, 0
13, 115140, Note_on_c, 11, 61, 76
13, 115193, Note_on_c, 11, 61, 0
13, 115200, Control_c, 11, 11, 65
13, 115200, Note_on_c, 11, 59, 76
13, 115259, Note_on_c, 11, 59, 0
13, 115260, Note_on_c, 11, 63, 76
13, 115319, Note_on_c, 11, 63, 0
13, 115320, Note_on_c, 11, 59, 76
13, 115379, Note_on_c, 11, 59, 0
13, 115380, Note_on_c, 11, 63, 76
13, 115439, Note_on_c, 11, 63, 0
13, 115440, Note_on_c, 11, 59, 76
13, 115499, Note_on_c, 11, 59, 0
13, 115500, Note_on_c, 11, 63, 76
13, 115559, Note_on_c, 11, 63, 0
13, 115560, Note_on_c, 11, 59, 76
13, 115619, Note_on_c, 11, 59, 0
13, 115620, Note_on_c, 11, 63, 76
13, 115679, Note_on_c, 11, 63, 0
13, 115680, Note_on_c, 11, 59, 76
13, 115739, Note_on_c, 11, 59, 0
13, 115740, Note_on_c, 11, 63, 76
13, 115799, Note_on_c, 11, 63, 0
13, 115800, Note_on_c, 11, 59, 76
13, 115859, Note_on_c, 11, 59, 0
13, 115860, Note_on_c, 11, 63, 76
13, 115919, Note_on_c, 11, 63, 0
13, 115920, Note_on_c, 11, 59, 76
13, 115979, Note_on_c, 11, 59, 0
13, 115980, Note_on_c, 11, 63, 76
13, 116039, Note_on_c, 11, 63, 0
13, 116040, Note_on_c, 11, 59, 76
13, 116099, Note_on_c, 11, 59, 0
13, 116100, Note_on_c, 11, 63, 76
13, 116159, Note_on_c, 11, 63, 0
13, 116160, Note_on_c, 11, 59, 76
13, 116219, Note_on_c, 11, 59, 0
13, 116220, Note_on_c, 11, 63, 76
13, 116279, Note_on_c, 11, 63, 0
13, 116280, Note_on_c, 11, 59, 76
13, 116339, Note_on_c, 11, 59, 0
13, 116340, Note_on_c, 11, 63, 76
13, 116399, Note_on_c, 11, 63, 0
13, 116400, Note_on_c, 11, 59, 76
13, 116459, Note_on_c, 11, 59, 0
13, 116460, Note_on_c, 11, 63, 76
13, 116519, Note_on_c, 11, 63, 0
13, 116520, Note_on_c, 11, 59, 76
13, 116579, Note_on_c, 11, 59, 0
13, 116580, Note_on_c, 11, 63, 76
13, 116633, Note_on_c, 11, 63, 0
13, 116640, Note_on_c, 11, 61, 76
13, 116699, Note_on_c, 11, 61, 0
13, 116700, Note_on_c, 11, 64, 76
13, 116759, Note_on_c, 11, 64, 0
13, 116760, Note_on_c, 11, 61, 76
13, 116819, Note_on_c, 11, 61, 0
13, 116820, Note_on_c, 11, 64, 76
13, 116879, Note_on_c, 11, 64, 0
13, 116880, Note_on_c, 11, 61, 76
13, 116939, Note_on_c, 11, 61, 0
13, 116940, Note_on_c, 11, 64, 76
13, 116999, Note_on_c, 11, 64, 0
13, 117000, Note_on_c, 11, 61, 76
13, 117059, Note_on_c, 11, 61, 0
13, 117060, Note_on_c, 11, 64, 76
13, 117119, Note_on_c, 11, 64, 0
13, 117120, Note_on_c, 11, 61, 76
13, 117179, Note_on_c, 11, 61, 0
13, 117180, Note_on_c, 11, 64, 76
13, 117239, Note_on_c, 11, 64, 0
13, 117240, Note_on_c, 11, 61, 76
13, 117299, Note_on_c, 11, 61, 0
13, 117300, Note_on_c, 11, 64, 76
13, 117359, Note_on_c, 11, 64, 0
13, 117360, Note_on_c, 11, 61, 76
13, 117419, Note_on_c, 11, 61, 0
13, 117420, Note_on_c, 11, 64, 76
13, 117479, Note_on_c, 11, 64, 0
13, 117480, Note_on_c, 11, 61, 76
13, 117539, Note_on_c, 11, 61, 0
13, 117540, Note_on_c, 11, 64, 76
13, 117599, Note_on_c, 11, 64, 0
13, 117600, Note_on_c, 11, 61, 76
13, 117659, Note_on_c, 11, 61, 0
13, 117660, Note_on_c, 11, 64, 76
13, 117719, Note_on_c, 11, 64, 0
13, 117720, Note_on_c, 11, 61, 76
13, 117779, Note_on_c, 11, 61, 0
13, 117780, Note_on_c, 11, 64, 76
13, 117839, Note_on_c, 11, 64, 0
13, 117840, Note_on_c, 11, 61, 76
13, 117899, Note_on_c, 11, 61, 0
13, 117900, Note_on_c, 11, 64, 76
13, 117959, Note_on_c, 11, 64, 0
13, 117960, Note_on_c, 11, 61, 76
13, 118019, Note_on_c, 11, 61, 0
13, 118020, Note_on_c, 11, 64, 76
13, 118073, Note_on_c, 11, 64, 0
13, 118080, Note_on_c, 11, 59, 76
13, 118139, Note_on_c, 11, 59, 0
13, 118140, Note_on_c, 11, 66, 76
13, 118199, Note_on_c, 11, 66, 0
13, 118200, Note_on_c, 11, 59, 76
13, 118259, Note_on_c, 11, 59, 0
13, 118260, Note_on_c, 11, 66, 76
13, 118319, Note_on_c, 11, 66, 0
13, 118320, Note_on_c, 11, 59, 76
13, 118379, Note_on_c, 11, 59, 0
13, 118380, Note_on_c, 11, 66, 76
13, 118439, Note_on_c, 11, 66, 0
13, 118440, Note_on_c, 11, 59, 76
13, 118499, Note_on_c, 11, 59, 0
13, 118500, Note_on_c, 11, 66, 76
13, 118559, Note_on_c, 11, 66, 0
13, 118560, Note_on_c, 11, 59, 76
13, 118619, Note_on_c, 11, 59, 0
13, 118620, Note_on_c, 11, 66, 76
13, 118679, Note_on_c, 11, 66, 0
13, 118680, Note_on_c, 11, 59, 76
13, 118739, Note_on_c, 11, 59, 0
13, 118740, Note_on_c, 11, 66, 76
13, 118793, Note_on_c, 11, 66, 0
13, 118800, Note_on_c, 11, 59, 76
13, 118859, Note_on_c, 11, 59, 0
13, 118860, Note_on_c, 11, 67, 76
13, 118919, Note_on_c, 11, 67, 0
13, 118920, Note_on_c, 11, 59, 76
13, 118979, Note_on_c, 11, 59, 0
13, 118980, Note_on_c, 11, 67, 76
13, 119039, Note_on_c, 11, 67, 0
13, 119040, Note_on_c, 11, 59, 76
13, 119099, Note_on_c, 11, 59, 0
13, 119100, Note_on_c, 11, 67, 76
13, 119159, Note_on_c, 11, 67, 0
13, 119160, Note_on_c, 11, 59, 76
13, 119219, Note_on_c, 11, 59, 0
13, 119220, Note_on_c, 11, 67, 76
13, 119279, Note_on_c, 11, 67, 0
13, 119280, Note_on_c, 11, 59, 76
13, 119339, Note_on_c, 11, 59, 0
13, 119340, Note_on_c, 11, 67, 76
13, 119399, Note_on_c, 11, 67, 0
13, 119400, Note_on_c, 11, 59, 76
13, 119459, Note_on_c, 11, 59, 0
13, 119460, Note_on_c, 11, 67, 76
13, 119513, Note_on_c, 11, 67, 0
13, 119520, Control_c, 11, 11, 65
13, 119520, Note_on_c, 11, 59, 76
13, 119579, Note_on_c, 11, 59, 0
13, 119580, Note_on_c, 11, 67, 76
13, 119639, Note_on_c, 11, 67, 0
13, 119640, Control_c, 11, 11, 70
13, 119640, Note_on_c, 11, 59, 76
13, 119699, Note_on_c, 11, 59, 0
13, 119700, Note_on_c, 11, 67, 76
13, 119759, Note_on_c, 11, 67, 0
13, 119760, Note_on_c, 11, 59, 76
13, 119760, Control_c, 11, 11, 75
13, 119819, Note_on_c, 11, 59, 0
13, 119820, Note_on_c, 11, 67, 76
13, 119879, Note_on_c, 11, 67, 0
13, 119880, Note_on_c, 11, 59, 76
13, 119880, Control_c, 11, 11, 81
13, 119939, Note_on_c, 11, 59, 0
13, 119940, Note_on_c, 11, 67, 76
13, 119999, Note_on_c, 11, 67, 0
13, 120000, Note_on_c, 11, 59, 76
13, 120000, Control_c, 11, 11, 86
13, 120059, Note_on_c, 11, 59, 0
13, 120060, Note_on_c, 11, 67, 76
13, 120119, Note_on_c, 11, 67, 0
13, 120120, Note_on_c, 11, 59, 76
13, 120120, Control_c, 11, 11, 91
13, 120179, Note_on_c, 11, 59, 0
13, 120180, Note_on_c, 11, 67, 76
13, 120233, Note_on_c, 11, 67, 0
13, 120240, Note_on_c, 11, 60, 76
13, 120240, Control_c, 11, 11, 97
13, 120299, Note_on_c, 11, 60, 0
13, 120300, Note_on_c, 11, 67, 76
13, 120359, Note_on_c, 11, 67, 0
13, 120360, Control_c, 11, 11, 102
13, 120360, Note_on_c, 11, 60, 76
13, 120419, Note_on_c, 11, 60, 0
13, 120420, Note_on_c, 11, 67, 76
13, 120479, Note_on_c, 11, 67, 0
13, 120480, Control_c, 11, 11, 107
13, 120480, Note_on_c, 11, 60, 76
13, 120539, Note_on_c, 11, 60, 0
13, 120540, Note_on_c, 11, 67, 76
13, 120599, Note_on_c, 11, 67, 0
13, 120600, Control_c, 11, 11, 111
13, 120600, Note_on_c, 11, 60, 76
13, 120659, Note_on_c, 11, 60, 0
13, 120660, Note_on_c, 11, 67, 76
13, 120719, Note_on_c, 11, 67, 0
13, 120720, Control_c, 11, 11, 118
13, 120720, Note_on_c, 11, 60, 76
13, 120779, Note_on_c, 11, 60, 0
13, 120780, Note_on_c, 11, 67, 76
13, 120839, Note_on_c, 11, 67, 0
13, 120840, Note_on_c, 11, 60, 76
13, 120840, Control_c, 11, 11, 123
13, 120899, Note_on_c, 11, 60, 0
13, 120900, Note_on_c, 11, 67, 76
13, 120953, Note_on_c, 11, 67, 0
13, 120958, Control_c, 11, 11, 127
13, 120960, Note_on_c, 11, 60, 76
13, 121019, Note_on_c, 11, 60, 0
13, 121020, Note_on_c, 11, 65, 76
13, 121079, Note_on_c, 11, 65, 0
13, 121080, Note_on_c, 11, 60, 76
13, 121139, Note_on_c, 11, 60, 0
13, 121140, Note_on_c, 11, 65, 76
13, 121199, Note_on_c, 11, 65, 0
13, 121200, Note_on_c, 11, 60, 76
13, 121259, Note_on_c, 11, 60, 0
13, 121260, Note_on_c, 11, 65, 76
13, 121319, Note_on_c, 11, 65, 0
13, 121320, Note_on_c, 11, 60, 76
13, 121379, Note_on_c, 11, 60, 0
13, 121380, Note_on_c, 11, 65, 76
13, 121439, Note_on_c, 11, 65, 0
13, 121440, Note_on_c, 11, 60, 76
13, 121499, Note_on_c, 11, 60, 0
13, 121500, Note_on_c, 11, 65, 76
13, 121559, Note_on_c, 11, 65, 0
13, 121560, Note_on_c, 11, 60, 76
13, 121619, Note_on_c, 11, 60, 0
13, 121620, Note_on_c, 11, 65, 76
13, 121673, Note_on_c, 11, 65, 0
13, 121680, Note_on_c, 11, 58, 76
13, 121739, Note_on_c, 11, 58, 0
13, 121740, Note_on_c, 11, 65, 76
13, 121799, Note_on_c, 11, 65, 0
13, 121800, Note_on_c, 11, 58, 76
13, 121859, Note_on_c, 11, 58, 0
13, 121860, Note_on_c, 11, 67, 76
13, 121919, Note_on_c, 11, 67, 0
13, 121920, Note_on_c, 11, 58, 76
13, 121979, Note_on_c, 11, 58, 0
13, 121980, Note_on_c, 11, 67, 76
13, 122033, Note_on_c, 11, 67, 0
13, 122040, Note_on_c, 11, 67, 76
13, 122099, Note_on_c, 11, 67, 0
13, 122100, Note_on_c, 11, 70, 76
13, 122159, Note_on_c, 11, 70, 0
13, 122160, Note_on_c, 11, 67, 76
13, 122219, Note_on_c, 11, 67, 0
13, 122220, Note_on_c, 11, 70, 76
13, 122279, Note_on_c, 11, 70, 0
13, 122280, Note_on_c, 11, 67, 76
13, 122339, Note_on_c, 11, 67, 0
13, 122340, Note_on_c, 11, 70, 76
13, 122393, Note_on_c, 11, 70, 0
13, 122400, Note_on_c, 11, 69, 76
13, 122459, Note_on_c, 11, 69, 0
13, 122460, Note_on_c, 11, 72, 76
13, 122519, Note_on_c, 11, 72, 0
13, 122520, Note_on_c, 11, 75, 75
13, 122579, Note_on_c, 11, 75, 0
13, 122580, Note_on_c, 11, 72, 75
13, 122639, Note_on_c, 11, 72, 0
13, 122640, Note_on_c, 11, 75, 74
13, 122699, Note_on_c, 11, 75, 0
13, 122700, Note_on_c, 11, 72, 74
13, 122759, Note_on_c, 11, 72, 0
13, 122760, Note_on_c, 11, 75, 73
13, 122819, Note_on_c, 11, 75, 0
13, 122820, Note_on_c, 11, 72, 73
13, 122879, Note_on_c, 11, 72, 0
13, 122880, Note_on_c, 11, 77, 72
13, 122939, Note_on_c, 11, 77, 0
13, 122940, Note_on_c, 11, 74, 72
13, 122999, Note_on_c, 11, 74, 0
13, 123000, Note_on_c, 11, 75, 71
13, 123059, Note_on_c, 11, 75, 0
13, 123060, Note_on_c, 11, 72, 71
13, 123119, Note_on_c, 11, 72, 0
13, 123120, Note_on_c, 11, 74, 70
13, 123179, Note_on_c, 11, 74, 0
13, 123180, Note_on_c, 11, 70, 70
13, 123239, Note_on_c, 11, 70, 0
13, 123240, Note_on_c, 11, 74, 69
13, 123299, Note_on_c, 11, 74, 0
13, 123300, Note_on_c, 11, 70, 69
13, 123359, Note_on_c, 11, 70, 0
13, 123360, Note_on_c, 11, 74, 68
13, 123419, Note_on_c, 11, 74, 0
13, 123420, Note_on_c, 11, 70, 68
13, 123479, Note_on_c, 11, 70, 0
13, 123480, Note_on_c, 11, 74, 67
13, 123539, Note_on_c, 11, 74, 0
13, 123540, Note_on_c, 11, 70, 67
13, 123599, Note_on_c, 11, 70, 0
13, 123600, Note_on_c, 11, 75, 66
13, 123659, Note_on_c, 11, 75, 0
13, 123660, Note_on_c, 11, 72, 66
13, 123719, Note_on_c, 11, 72, 0
13, 123720, Note_on_c, 11, 74, 65
13, 123779, Note_on_c, 11, 74, 0
13, 123780, Note_on_c, 11, 70, 65
13, 123833, Note_on_c, 11, 70, 0
13, 123840, Note_on_c, 11, 72, 64
13, 123899, Note_on_c, 11, 72, 0
13, 123900, Note_on_c, 11, 69, 64
13, 123959, Note_on_c, 11, 69, 0
13, 123960, Note_on_c, 11, 72, 63
13, 124019, Note_on_c, 11, 72, 0
13, 124020, Note_on_c, 11, 69, 63
13, 124079, Note_on_c, 11, 69, 0
13, 124080, Note_on_c, 11, 72, 62
13, 124139, Note_on_c, 11, 72, 0
13, 124140, Note_on_c, 11, 69, 62
13, 124199, Note_on_c, 11, 69, 0
13, 124200, Note_on_c, 11, 72, 61
13, 124259, Note_on_c, 11, 72, 0
13, 124260, Note_on_c, 11, 69, 61
13, 124319, Note_on_c, 11, 69, 0
13, 124320, Note_on_c, 11, 74, 60
13, 124379, Note_on_c, 11, 74, 0
13, 124380, Note_on_c, 11, 70, 60
13, 124439, Note_on_c, 11, 70, 0
13, 124440, Note_on_c, 11, 72, 59
13, 124499, Note_on_c, 11, 72, 0
13, 124500, Note_on_c, 11, 69, 59
13, 124559, Note_on_c, 11, 69, 0
13, 124560, Note_on_c, 11, 70, 58
13, 124619, Note_on_c, 11, 70, 0
13, 124620, Note_on_c, 11, 67, 58
13, 124679, Note_on_c, 11, 67, 0
13, 124680, Note_on_c, 11, 70, 57
13, 124739, Note_on_c, 11, 70, 0
13, 124740, Note_on_c, 11, 67, 57
13, 124799, Note_on_c, 11, 67, 0
13, 124800, Note_on_c, 11, 70, 56
13, 124859, Note_on_c, 11, 70, 0
13, 124860, Note_on_c, 11, 67, 56
13, 124919, Note_on_c, 11, 67, 0
13, 124920, Note_on_c, 11, 70, 55
13, 124979, Note_on_c, 11, 70, 0
13, 124980, Note_on_c, 11, 67, 55
13, 125039, Note_on_c, 11, 67, 0
13, 125040, Note_on_c, 11, 72, 54
13, 125099, Note_on_c, 11, 72, 0
13, 125100, Note_on_c, 11, 69, 54
13, 125159, Note_on_c, 11, 69, 0
13, 125160, Note_on_c, 11, 70, 53
13, 125219, Note_on_c, 11, 70, 0
13, 125220, Note_on_c, 11, 67, 53
13, 125273, Note_on_c, 11, 67, 0
13, 125280, Note_on_c, 11, 69, 52
13, 125339, Note_on_c, 11, 69, 0
13, 125340, Note_on_c, 11, 65, 52
13, 125399, Note_on_c, 11, 65, 0
13, 125400, Note_on_c, 11, 70, 52
13, 125459, Note_on_c, 11, 70, 0
13, 125460, Note_on_c, 11, 67, 52
13, 125519, Note_on_c, 11, 67, 0
13, 125520, Note_on_c, 11, 67, 52
13, 125579, Note_on_c, 11, 67, 0
13, 125580, Note_on_c, 11, 63, 52
13, 125639, Note_on_c, 11, 63, 0
13, 125640, Note_on_c, 11, 69, 52
13, 125699, Note_on_c, 11, 69, 0
13, 125700, Note_on_c, 11, 65, 52
13, 125759, Note_on_c, 11, 65, 0
13, 125760, Note_on_c, 11, 65, 52
13, 125819, Note_on_c, 11, 65, 0
13, 125820, Note_on_c, 11, 62, 52
13, 125879, Note_on_c, 11, 62, 0
13, 125880, Note_on_c, 11, 67, 52
13, 125939, Note_on_c, 11, 67, 0
13, 125940, Note_on_c, 11, 63, 52
13, 125999, Note_on_c, 11, 63, 0
13, 126000, Note_on_c, 11, 63, 52
13, 126059, Note_on_c, 11, 63, 0
13, 126060, Note_on_c, 11, 60, 52
13, 126119, Note_on_c, 11, 60, 0
13, 126120, Note_on_c, 11, 65, 52
13, 126179, Note_on_c, 11, 65, 0
13, 126180, Note_on_c, 11, 62, 52
13, 126239, Note_on_c, 11, 62, 0
13, 126240, Note_on_c, 11, 62, 52
13, 126299, Note_on_c, 11, 62, 0
13, 126300, Note_on_c, 11, 58, 52
13, 126359, Note_on_c, 11, 58, 0
13, 126360, Note_on_c, 11, 63, 52
13, 126419, Note_on_c, 11, 63, 0
13, 126420, Note_on_c, 11, 60, 52
13, 126479, Note_on_c, 11, 60, 0
13, 126480, Note_on_c, 11, 60, 52
13, 126539, Note_on_c, 11, 60, 0
13, 126540, Note_on_c, 11, 57, 52
13, 126599, Note_on_c, 11, 57, 0
13, 126600, Note_on_c, 11, 62, 52
13, 126659, Note_on_c, 11, 62, 0
13, 126660, Note_on_c, 11, 58, 52
13, 126713, Note_on_c, 11, 58, 0
13, 126720, Note_on_c, 11, 63, 52
13, 126779, Note_on_c, 11, 63, 0
13, 126780, Note_on_c, 11, 60, 52
13, 126839, Note_on_c, 11, 60, 0
13, 126840, Note_on_c, 11, 65, 52
13, 126899, Note_on_c, 11, 65, 0
13, 126900, Note_on_c, 11, 62, 52
13, 126959, Note_on_c, 11, 62, 0
13, 126960, Note_on_c, 11, 67, 52
13, 127019, Note_on_c, 11, 67, 0
13, 127020, Note_on_c, 11, 63, 52
13, 127079, Note_on_c, 11, 63, 0
13, 127080, Note_on_c, 11, 65, 52
13, 127139, Note_on_c, 11, 65, 0
13, 127140, Note_on_c, 11, 62, 52
13, 127199, Note_on_c, 11, 62, 0
13, 127200, Note_on_c, 11, 62, 52
13, 127259, Note_on_c, 11, 62, 0
13, 127260, Note_on_c, 11, 58, 52
13, 127319, Note_on_c, 11, 58, 0
13, 127320, Note_on_c, 11, 63, 52
13, 127379, Note_on_c, 11, 63, 0
13, 127380, Note_on_c, 11, 60, 52
13, 127439, Note_on_c, 11, 60, 0
13, 127440, Note_on_c, 11, 60, 52
13, 127499, Note_on_c, 11, 60, 0
13, 127500, Note_on_c, 11, 57, 52
13, 127559, Note_on_c, 11, 57, 0
13, 127560, Note_on_c, 11, 62, 52
13, 127619, Note_on_c, 11, 62, 0
13, 127620, Note_on_c, 11, 58, 52
13, 127679, Note_on_c, 11, 58, 0
13, 127680, Note_on_c, 11, 63, 52
13, 127739, Note_on_c, 11, 63, 0
13, 127740, Note_on_c, 11, 60, 52
13, 127799, Note_on_c, 11, 60, 0
13, 127800, Note_on_c, 11, 65, 52
13, 127859, Note_on_c, 11, 65, 0
13, 127860, Note_on_c, 11, 62, 52
13, 127919, Note_on_c, 11, 62, 0
13, 127920, Note_on_c, 11, 67, 52
13, 127979, Note_on_c, 11, 67, 0
13, 127980, Note_on_c, 11, 63, 52
13, 128039, Note_on_c, 11, 63, 0
13, 128040, Note_on_c, 11, 63, 52
13, 128099, Note_on_c, 11, 63, 0
13, 128100, Note_on_c, 11, 60, 52
13, 128153, Note_on_c, 11, 60, 0
13, 128160, Note_on_c, 11, 65, 52
13, 128219, Note_on_c, 11, 65, 0
13, 128220, Note_on_c, 11, 62, 52
13, 128279, Note_on_c, 11, 62, 0
13, 128280, Note_on_c, 11, 62, 52
13, 128339, Note_on_c, 11, 62, 0
13, 128340, Note_on_c, 11, 58, 52
13, 128399, Note_on_c, 11, 58, 0
13, 128400, Note_on_c, 11, 63, 52
13, 128459, Note_on_c, 11, 63, 0
13, 128460, Note_on_c, 11, 60, 52
13, 128519, Note_on_c, 11, 60, 0
13, 128520, Note_on_c, 11, 60, 52
13, 128579, Note_on_c, 11, 60, 0
13, 128580, Note_on_c, 11, 57, 52
13, 128639, Note_on_c, 11, 57, 0
13, 128640, Note_on_c, 11, 62, 52
13, 128699, Note_on_c, 11, 62, 0
13, 128700, Note_on_c, 11, 58, 52
13, 128759, Note_on_c, 11, 58, 0
13, 128760, Note_on_c, 11, 63, 52
13, 128819, Note_on_c, 11, 63, 0
13, 128820, Note_on_c, 11, 60, 52
13, 128879, Note_on_c, 11, 60, 0
13, 128880, Note_on_c, 11, 65, 52
13, 128939, Note_on_c, 11, 65, 0
13, 128940, Note_on_c, 11, 62, 53
13, 128999, Note_on_c, 11, 62, 0
13, 129000, Note_on_c, 11, 62, 54
13, 129059, Note_on_c, 11, 62, 0
13, 129060, Note_on_c, 11, 58, 56
13, 129119, Note_on_c, 11, 58, 0
13, 129120, Note_on_c, 11, 63, 57
13, 129179, Note_on_c, 11, 63, 0
13, 129180, Note_on_c, 11, 60, 58
13, 129239, Note_on_c, 11, 60, 0
13, 129240, Note_on_c, 11, 60, 60
13, 129299, Note_on_c, 11, 60, 0
13, 129300, Note_on_c, 11, 57, 61
13, 129359, Note_on_c, 11, 57, 0
13, 129360, Note_on_c, 11, 62, 62
13, 129419, Note_on_c, 11, 62, 0
13, 129420, Note_on_c, 11, 58, 64
13, 129479, Note_on_c, 11, 58, 0
13, 129480, Note_on_c, 11, 60, 65
13, 129539, Note_on_c, 11, 60, 0
13, 129540, Note_on_c, 11, 57, 66
13, 129593, Note_on_c, 11, 57, 0
13, 129600, Note_on_c, 11, 62, 52
13, 129653, Note_on_c, 11, 62, 0
13, 129660, Note_on_c, 11, 62, 52
13, 129719, Note_on_c, 11, 62, 0
13, 129720, Note_on_c, 11, 65, 52
13, 129779, Note_on_c, 11, 65, 0
13, 129780, Note_on_c, 11, 62, 52
13, 129839, Note_on_c, 11, 62, 0
13, 129840, Note_on_c, 11, 65, 52
13, 129899, Note_on_c, 11, 65, 0
13, 129900, Note_on_c, 11, 62, 52
13, 129959, Note_on_c, 11, 62, 0
13, 129960, Note_on_c, 11, 67, 52
13, 130019, Note_on_c, 11, 67, 0
13, 130020, Note_on_c, 11, 63, 52
13, 130079, Note_on_c, 11, 63, 0
13, 130080, Note_on_c, 11, 65, 52
13, 130139, Note_on_c, 11, 65, 0
13, 130140, Note_on_c, 11, 62, 52
13, 130199, Note_on_c, 11, 62, 0
13, 130200, Note_on_c, 11, 65, 52
13, 130259, Note_on_c, 11, 65, 0
13, 130260, Note_on_c, 11, 62, 52
13, 130319, Note_on_c, 11, 62, 0
13, 130320, Note_on_c, 11, 63, 52
13, 130379, Note_on_c, 11, 63, 0
13, 130380, Note_on_c, 11, 60, 52
13, 130439, Note_on_c, 11, 60, 0
13, 130440, Note_on_c, 11, 62, 52
13, 130499, Note_on_c, 11, 62, 0
13, 130500, Note_on_c, 11, 58, 52
13, 130559, Note_on_c, 11, 58, 0
13, 130560, Note_on_c, 11, 62, 52
13, 130619, Note_on_c, 11, 62, 0
13, 130620, Note_on_c, 11, 58, 52
13, 130679, Note_on_c, 11, 58, 0
13, 130680, Note_on_c, 11, 60, 52
13, 130739, Note_on_c, 11, 60, 0
13, 130740, Note_on_c, 11, 57, 52
13, 130799, Note_on_c, 11, 57, 0
13, 130800, Note_on_c, 11, 62, 52
13, 130859, Note_on_c, 11, 62, 0
13, 130860, Note_on_c, 11, 58, 52
13, 130919, Note_on_c, 11, 58, 0
13, 130920, Note_on_c, 11, 62, 52
13, 130979, Note_on_c, 11, 62, 0
13, 130980, Note_on_c, 11, 58, 52
13, 131033, Note_on_c, 11, 58, 0
13, 131040, Note_on_c, 11, 62, 52
13, 131099, Note_on_c, 11, 62, 0
13, 131100, Note_on_c, 11, 58, 52
13, 131159, Note_on_c, 11, 58, 0
13, 131160, Note_on_c, 11, 65, 52
13, 131219, Note_on_c, 11, 65, 0
13, 131220, Note_on_c, 11, 62, 52
13, 131279, Note_on_c, 11, 62, 0
13, 131280, Note_on_c, 11, 65, 52
13, 131339, Note_on_c, 11, 65, 0
13, 131340, Note_on_c, 11, 62, 52
13, 131399, Note_on_c, 11, 62, 0
13, 131400, Note_on_c, 11, 67, 52
13, 131459, Note_on_c, 11, 67, 0
13, 131460, Note_on_c, 11, 63, 52
13, 131519, Note_on_c, 11, 63, 0
13, 131520, Note_on_c, 11, 65, 52
13, 131579, Note_on_c, 11, 65, 0
13, 131580, Note_on_c, 11, 62, 52
13, 131639, Note_on_c, 11, 62, 0
13, 131640, Note_on_c, 11, 65, 52
13, 131699, Note_on_c, 11, 65, 0
13, 131700, Note_on_c, 11, 62, 52
13, 131759, Note_on_c, 11, 62, 0
13, 131760, Note_on_c, 11, 63, 52
13, 131819, Note_on_c, 11, 63, 0
13, 131820, Note_on_c, 11, 60, 52
13, 131879, Note_on_c, 11, 60, 0
13, 131880, Note_on_c, 11, 62, 52
13, 131939, Note_on_c, 11, 62, 0
13, 131940, Note_on_c, 11, 58, 52
13, 131999, Note_on_c, 11, 58, 0
13, 132000, Note_on_c, 11, 62, 52
13, 132059, Note_on_c, 11, 62, 0
13, 132060, Note_on_c, 11, 58, 52
13, 132119, Note_on_c, 11, 58, 0
13, 132120, Note_on_c, 11, 60, 52
13, 132179, Note_on_c, 11, 60, 0
13, 132180, Note_on_c, 11, 57, 52
13, 132239, Note_on_c, 11, 57, 0
13, 132240, Note_on_c, 11, 62, 52
13, 132299, Note_on_c, 11, 62, 0
13, 132300, Note_on_c, 11, 58, 52
13, 132359, Note_on_c, 11, 58, 0
13, 132360, Note_on_c, 11, 62, 52
13, 132419, Note_on_c, 11, 62, 0
13, 132420, Note_on_c, 11, 58, 52
13, 132473, Note_on_c, 11, 58, 0
13, 132480, Note_on_c, 11, 63, 52
13, 132539, Note_on_c, 11, 63, 0
13, 132540, Note_on_c, 11, 57, 52
13, 132599, Note_on_c, 11, 57, 0
13, 132600, Note_on_c, 11, 63, 52
13, 132659, Note_on_c, 11, 63, 0
13, 132660, Note_on_c, 11, 60, 52
13, 132719, Note_on_c, 11, 60, 0
13, 132720, Note_on_c, 11, 63, 52
13, 132779, Note_on_c, 11, 63, 0
13, 132780, Note_on_c, 11, 60, 52
13, 132839, Note_on_c, 11, 60, 0
13, 132840, Note_on_c, 11, 65, 52
13, 132899, Note_on_c, 11, 65, 0
13, 132900, Note_on_c, 11, 62, 52
13, 132959, Note_on_c, 11, 62, 0
13, 132960, Note_on_c, 11, 63, 52
13, 133019, Note_on_c, 11, 63, 0
13, 133020, Note_on_c, 11, 60, 52
13, 133079, Note_on_c, 11, 60, 0
13, 133080, Note_on_c, 11, 63, 52
13, 133139, Note_on_c, 11, 63, 0
13, 133140, Note_on_c, 11, 60, 52
13, 133199, Note_on_c, 11, 60, 0
13, 133200, Note_on_c, 11, 62, 52
13, 133259, Note_on_c, 11, 62, 0
13, 133260, Note_on_c, 11, 58, 52
13, 133319, Note_on_c, 11, 58, 0
13, 133320, Note_on_c, 11, 60, 52
13, 133379, Note_on_c, 11, 60, 0
13, 133380, Note_on_c, 11, 57, 52
13, 133439, Note_on_c, 11, 57, 0
13, 133440, Note_on_c, 11, 60, 52
13, 133499, Note_on_c, 11, 60, 0
13, 133500, Note_on_c, 11, 57, 52
13, 133559, Note_on_c, 11, 57, 0
13, 133560, Note_on_c, 11, 58, 52
13, 133619, Note_on_c, 11, 58, 0
13, 133620, Note_on_c, 11, 55, 52
13, 133679, Note_on_c, 11, 55, 0
13, 133680, Note_on_c, 11, 60, 52
13, 133739, Note_on_c, 11, 60, 0
13, 133740, Note_on_c, 11, 57, 52
13, 133799, Note_on_c, 11, 57, 0
13, 133800, Note_on_c, 11, 60, 52
13, 133859, Note_on_c, 11, 60, 0
13, 133860, Note_on_c, 11, 57, 52
13, 133913, Note_on_c, 11, 57, 0
13, 133920, Note_on_c, 11, 60, 52
13, 133979, Note_on_c, 11, 60, 0
13, 133980, Note_on_c, 11, 57, 52
13, 134039, Note_on_c, 11, 57, 0
13, 134040, Note_on_c, 11, 63, 52
13, 134099, Note_on_c, 11, 63, 0
13, 134100, Note_on_c, 11, 60, 52
13, 134159, Note_on_c, 11, 60, 0
13, 134160, Note_on_c, 11, 63, 52
13, 134219, Note_on_c, 11, 63, 0
13, 134220, Note_on_c, 11, 60, 52
13, 134279, Note_on_c, 11, 60, 0
13, 134280, Note_on_c, 11, 65, 52
13, 134339, Note_on_c, 11, 65, 0
13, 134340, Note_on_c, 11, 62, 52
13, 134399, Note_on_c, 11, 62, 0
13, 134400, Note_on_c, 11, 63, 52
13, 134459, Note_on_c, 11, 63, 0
13, 134460, Note_on_c, 11, 60, 52
13, 134519, Note_on_c, 11, 60, 0
13, 134520, Note_on_c, 11, 63, 52
13, 134579, Note_on_c, 11, 63, 0
13, 134580, Note_on_c, 11, 60, 52
13, 134639, Note_on_c, 11, 60, 0
13, 134640, Note_on_c, 11, 62, 52
13, 134699, Note_on_c, 11, 62, 0
13, 134700, Note_on_c, 11, 58, 52
13, 134759, Note_on_c, 11, 58, 0
13, 134760, Note_on_c, 11, 60, 52
13, 134819, Note_on_c, 11, 60, 0
13, 134820, Note_on_c, 11, 57, 52
13, 134879, Note_on_c, 11, 57, 0
13, 134880, Note_on_c, 11, 60, 52
13, 134939, Note_on_c, 11, 60, 0
13, 134940, Note_on_c, 11, 57, 52
13, 134999, Note_on_c, 11, 57, 0
13, 135000, Note_on_c, 11, 58, 52
13, 135059, Note_on_c, 11, 58, 0
13, 135060, Note_on_c, 11, 55, 52
13, 135119, Note_on_c, 11, 55, 0
13, 135120, Note_on_c, 11, 60, 52
13, 135179, Note_on_c, 11, 60, 0
13, 135180, Note_on_c, 11, 57, 52
13, 135239, Note_on_c, 11, 57, 0
13, 135240, Note_on_c, 11, 60, 52
13, 135299, Note_on_c, 11, 60, 0
13, 135300, Note_on_c, 11, 57, 52
13, 135353, Note_on_c, 11, 57, 0
13, 135360, Note_on_c, 11, 62, 52
13, 135419, Note_on_c, 11, 62, 0
13, 135420, Note_on_c, 11, 58, 53
13, 135479, Note_on_c, 11, 58, 0
13, 135480, Note_on_c, 11, 62, 54
13, 135539, Note_on_c, 11, 62, 0
13, 135540, Note_on_c, 11, 58, 55
13, 135599, Note_on_c, 11, 58, 0
13, 135600, Note_on_c, 11, 62, 56
13, 135659, Note_on_c, 11, 62, 0
13, 135660, Note_on_c, 11, 58, 57
13, 135719, Note_on_c, 11, 58, 0
13, 135720, Note_on_c, 11, 62, 58
13, 135779, Note_on_c, 11, 62, 0
13, 135780, Note_on_c, 11, 58, 59
13, 135839, Note_on_c, 11, 58, 0
13, 135840, Note_on_c, 11, 62, 60
13, 135899, Note_on_c, 11, 62, 0
13, 135900, Note_on_c, 11, 58, 61
13, 135959, Note_on_c, 11, 58, 0
13, 135960, Note_on_c, 11, 62, 62
13, 136019, Note_on_c, 11, 62, 0
13, 136020, Note_on_c, 11, 58, 63
13, 136073, Note_on_c, 11, 58, 0
13, 136080, Note_on_c, 11, 67, 64
13, 136139, Note_on_c, 11, 67, 0
13, 136140, Note_on_c, 11, 58, 65
13, 136199, Note_on_c, 11, 58, 0
13, 136200, Note_on_c, 11, 67, 66
13, 136259, Note_on_c, 11, 67, 0
13, 136260, Note_on_c, 11, 58, 67
13, 136319, Note_on_c, 11, 58, 0
13, 136320, Note_on_c, 11, 67, 68
13, 136379, Note_on_c, 11, 67, 0
13, 136380, Note_on_c, 11, 58, 69
13, 136439, Note_on_c, 11, 58, 0
13, 136440, Note_on_c, 11, 67, 70
13, 136499, Note_on_c, 11, 67, 0
13, 136500, Note_on_c, 11, 58, 71
13, 136559, Note_on_c, 11, 58, 0
13, 136560, Note_on_c, 11, 67, 72
13, 136619, Note_on_c, 11, 67, 0
13, 136620, Note_on_c, 11, 58, 73
13, 136679, Note_on_c, 11, 58, 0
13, 136680, Note_on_c, 11, 67, 74
13, 136739, Note_on_c, 11, 67, 0
13, 136740, Note_on_c, 11, 58, 75
13, 136793, Note_on_c, 11, 58, 0
13, 136800, Note_on_c, 11, 62, 76
13, 136859, Note_on_c, 11, 62, 0
13, 136860, Note_on_c, 11, 58, 52
13, 136919, Note_on_c, 11, 58, 0
13, 136920, Note_on_c, 11, 62, 52
13, 136979, Note_on_c, 11, 62, 0
13, 136980, Note_on_c, 11, 58, 52
13, 137039, Note_on_c, 11, 58, 0
13, 137040, Note_on_c, 11, 62, 52
13, 137099, Note_on_c, 11, 62, 0
13, 137100, Note_on_c, 11, 58, 52
13, 137159, Note_on_c, 11, 58, 0
13, 137160, Note_on_c, 11, 62, 52
13, 137219, Note_on_c, 11, 62, 0
13, 137220, Note_on_c, 11, 58, 52
13, 137279, Note_on_c, 11, 58, 0
13, 137280, Note_on_c, 11, 62, 52
13, 137339, Note_on_c, 11, 62, 0
13, 137340, Note_on_c, 11, 58, 52
13, 137399, Note_on_c, 11, 58, 0
13, 137400, Note_on_c, 11, 62, 52
13, 137459, Note_on_c, 11, 62, 0
13, 137460, Note_on_c, 11, 58, 52
13, 137513, Note_on_c, 11, 58, 0
13, 137520, Note_on_c, 11, 62, 52
13, 137579, Note_on_c, 11, 62, 0
13, 137580, Note_on_c, 11, 58, 54
13, 137639, Note_on_c, 11, 58, 0
13, 137640, Note_on_c, 11, 62, 57
13, 137699, Note_on_c, 11, 62, 0
13, 137700, Note_on_c, 11, 58, 60
13, 137759, Note_on_c, 11, 58, 0
13, 137760, Note_on_c, 11, 62, 62
13, 137819, Note_on_c, 11, 62, 0
13, 137820, Note_on_c, 11, 58, 65
13, 137873, Note_on_c, 11, 58, 0
13, 137880, Note_on_c, 11, 63, 68
13, 137939, Note_on_c, 11, 63, 0
13, 137940, Note_on_c, 11, 57, 66
13, 137999, Note_on_c, 11, 57, 0
13, 138000, Note_on_c, 11, 63, 63
13, 138059, Note_on_c, 11, 63, 0
13, 138060, Note_on_c, 11, 57, 60
13, 138119, Note_on_c, 11, 57, 0
13, 138120, Note_on_c, 11, 63, 58
13, 138179, Note_on_c, 11, 63, 0
13, 138180, Note_on_c, 11, 57, 55
13, 138233, Note_on_c, 11, 57, 0
13, 138240, Note_on_c, 11, 62, 52
13, 138299, Note_on_c, 11, 62, 0
13, 138300, Note_on_c, 11, 58, 52
13, 138359, Note_on_c, 11, 58, 0
13, 138360, Note_on_c, 11, 74, 52
13, 138419, Note_on_c, 11, 74, 0
13, 138420, Note_on_c, 11, 70, 53
13, 138479, Note_on_c, 11, 70, 0
13, 138480, Note_on_c, 11, 74, 54
13, 138539, Note_on_c, 11, 74, 0
13, 138540, Note_on_c, 11, 70, 55
13, 138599, Note_on_c, 11, 70, 0
13, 138600, Note_on_c, 11, 75, 56
13, 138659, Note_on_c, 11, 75, 0
13, 138660, Note_on_c, 11, 72, 57
13, 138719, Note_on_c, 11, 72, 0
13, 138720, Note_on_c, 11, 74, 58
13, 138779, Note_on_c, 11, 74, 0
13, 138780, Note_on_c, 11, 70, 59
13, 138839, Note_on_c, 11, 70, 0
13, 138840, Note_on_c, 11, 74, 60
13, 138899, Note_on_c, 11, 74, 0
13, 138900, Note_on_c, 11, 70, 61
13, 138959, Note_on_c, 11, 70, 0
13, 139080, Note_on_c, 11, 70, 65
13, 139139, Note_on_c, 11, 70, 0
13, 139140, Note_on_c, 11, 67, 66
13, 139199, Note_on_c, 11, 67, 0
13, 139200, Note_on_c, 11, 70, 67
13, 139259, Note_on_c, 11, 70, 0
13, 139260, Note_on_c, 11, 67, 68
13, 139319, Note_on_c, 11, 67, 0
13, 139320, Note_on_c, 11, 72, 69
13, 139379, Note_on_c, 11, 72, 0
13, 139380, Note_on_c, 11, 69, 70
13, 139439, Note_on_c, 11, 69, 0
13, 139440, Note_on_c, 11, 70, 71
13, 139499, Note_on_c, 11, 70, 0
13, 139500, Note_on_c, 11, 67, 72
13, 139559, Note_on_c, 11, 67, 0
13, 139560, Note_on_c, 11, 70, 73
13, 139619, Note_on_c, 11, 70, 0
13, 139620, Note_on_c, 11, 67, 74
13, 139679, Note_on_c, 11, 67, 0
13, 139800, Note_on_c, 11, 67, 76
13, 139859, Note_on_c, 11, 67, 0
13, 139860, Note_on_c, 11, 64, 76
13, 139919, Note_on_c, 11, 64, 0
13, 139920, Note_on_c, 11, 67, 76
13, 139979, Note_on_c, 11, 67, 0
13, 139980, Note_on_c, 11, 64, 76
13, 140039, Note_on_c, 11, 64, 0
13, 140040, Note_on_c, 11, 69, 76
13, 140099, Note_on_c, 11, 69, 0
13, 140100, Note_on_c, 11, 65, 76
13, 140159, Note_on_c, 11, 65, 0
13, 140160, Note_on_c, 11, 67, 76
13, 140219, Note_on_c, 11, 67, 0
13, 140220, Note_on_c, 11, 64, 76
13, 140279, Note_on_c, 11, 64, 0
13, 140280, Note_on_c, 11, 67, 76
13, 140339, Note_on_c, 11, 67, 0
13, 140340, Note_on_c, 11, 64, 76
13, 140399, Note_on_c, 11, 64, 0
13, 140400, Note_on_c, 11, 65, 76
13, 140459, Note_on_c, 11, 65, 0
13, 140460, Note_on_c, 11, 62, 76
13, 140519, Note_on_c, 11, 62, 0
13, 140520, Note_on_c, 11, 64, 76
13, 140579, Note_on_c, 11, 64, 0
13, 140580, Note_on_c, 11, 60, 76
13, 140639, Note_on_c, 11, 60, 0
13, 140640, Note_on_c, 11, 64, 76
13, 140699, Note_on_c, 11, 64, 0
13, 140700, Note_on_c, 11, 60, 76
13, 140759, Note_on_c, 11, 60, 0
13, 140760, Note_on_c, 11, 62, 76
13, 140819, Note_on_c, 11, 62, 0
13, 140820, Note_on_c, 11, 58, 72
13, 140879, Note_on_c, 11, 58, 0
13, 140880, Note_on_c, 11, 60, 68
13, 140939, Note_on_c, 11, 60, 0
13, 140940, Note_on_c, 11, 57, 64
13, 140999, Note_on_c, 11, 57, 0
13, 141000, Note_on_c, 11, 58, 60
13, 141059, Note_on_c, 11, 58, 0
13, 141060, Note_on_c, 11, 55, 56
13, 141113, Note_on_c, 11, 55, 0
13, 141120, Note_on_c, 11, 60, 52
13, 141179, Note_on_c, 11, 60, 0
13, 141180, Note_on_c, 11, 57, 52
13, 141239, Note_on_c, 11, 57, 0
13, 141240, Note_on_c, 11, 60, 52
13, 141299, Note_on_c, 11, 60, 0
13, 141300, Note_on_c, 11, 57, 52
13, 141359, Note_on_c, 11, 57, 0
13, 141360, Note_on_c, 11, 60, 52
13, 141419, Note_on_c, 11, 60, 0
13, 141420, Note_on_c, 11, 57, 52
13, 141479, Note_on_c, 11, 57, 0
13, 141480, Note_on_c, 11, 60, 52
13, 141539, Note_on_c, 11, 60, 0
13, 141540, Note_on_c, 11, 57, 52
13, 141599, Note_on_c, 11, 57, 0
13, 141600, Note_on_c, 11, 60, 52
13, 141659, Note_on_c, 11, 60, 0
13, 141660, Note_on_c, 11, 57, 52
13, 141719, Note_on_c, 11, 57, 0
13, 141720, Note_on_c, 11, 60, 52
13, 141779, Note_on_c, 11, 60, 0
13, 141780, Note_on_c, 11, 57, 52
13, 141833, Note_on_c, 11, 57, 0
13, 141840, Note_on_c, 11, 62, 52
13, 141899, Note_on_c, 11, 62, 0
13, 141900, Note_on_c, 11, 58, 52
13, 141959, Note_on_c, 11, 58, 0
13, 141960, Note_on_c, 11, 62, 52
13, 142019, Note_on_c, 11, 62, 0
13, 142020, Note_on_c, 11, 58, 52
13, 142079, Note_on_c, 11, 58, 0
13, 142080, Note_on_c, 11, 62, 52
13, 142139, Note_on_c, 11, 62, 0
13, 142140, Note_on_c, 11, 58, 52
13, 142199, Note_on_c, 11, 58, 0
13, 142200, Note_on_c, 11, 62, 52
13, 142259, Note_on_c, 11, 62, 0
13, 142260, Note_on_c, 11, 58, 52
13, 142319, Note_on_c, 11, 58, 0
13, 142320, Note_on_c, 11, 62, 52
13, 142379, Note_on_c, 11, 62, 0
13, 142380, Note_on_c, 11, 58, 52
13, 142439, Note_on_c, 11, 58, 0
13, 142440, Note_on_c, 11, 62, 52
13, 142499, Note_on_c, 11, 62, 0
13, 142500, Note_on_c, 11, 58, 52
13, 142553, Note_on_c, 11, 58, 0
13, 142560, Note_on_c, 11, 63, 52
13, 142619, Note_on_c, 11, 63, 0
13, 142620, Note_on_c, 11, 60, 52
13, 142679, Note_on_c, 11, 60, 0
13, 142680, Note_on_c, 11, 63, 52
13, 142739, Note_on_c, 11, 63, 0
13, 142740, Note_on_c, 11, 60, 52
13, 142799, Note_on_c, 11, 60, 0
13, 142800, Note_on_c, 11, 63, 52
13, 142859, Note_on_c, 11, 63, 0
13, 142860, Note_on_c, 11, 60, 52
13, 142919, Note_on_c, 11, 60, 0
13, 142920, Note_on_c, 11, 63, 52
13, 142979, Note_on_c, 11, 63, 0
13, 142980, Note_on_c, 11, 60, 52
13, 143039, Note_on_c, 11, 60, 0
13, 143040, Note_on_c, 11, 63, 52
13, 143099, Note_on_c, 11, 63, 0
13, 143100, Note_on_c, 11, 60, 52
13, 143159, Note_on_c, 11, 60, 0
13, 143160, Note_on_c, 11, 63, 52
13, 143219, Note_on_c, 11, 63, 0
13, 143220, Note_on_c, 11, 60, 52
13, 143273, Note_on_c, 11, 60, 0
13, 143280, Note_on_c, 11, 62, 52
13, 143339, Note_on_c, 11, 62, 0
13, 143340, Note_on_c, 11, 58, 52
13, 143399, Note_on_c, 11, 58, 0
13, 143400, Note_on_c, 11, 62, 52
13, 143459, Note_on_c, 11, 62, 0
13, 143460, Note_on_c, 11, 58, 52
13, 143519, Note_on_c, 11, 58, 0
13, 143520, Note_on_c, 11, 62, 52
13, 143579, Note_on_c, 11, 62, 0
13, 143580, Note_on_c, 11, 58, 52
13, 143639, Note_on_c, 11, 58, 0
13, 143640, Note_on_c, 11, 62, 52
13, 143699, Note_on_c, 11, 62, 0
13, 143700, Note_on_c, 11, 58, 52
13, 143759, Note_on_c, 11, 58, 0
13, 143760, Note_on_c, 11, 62, 52
13, 143819, Note_on_c, 11, 62, 0
13, 143820, Note_on_c, 11, 58, 52
13, 143879, Note_on_c, 11, 58, 0
13, 143880, Note_on_c, 11, 62, 52
13, 143939, Note_on_c, 11, 62, 0
13, 143940, Note_on_c, 11, 58, 52
13, 143993, Note_on_c, 11, 58, 0
13, 144000, Note_on_c, 11, 60, 52
13, 144059, Note_on_c, 11, 60, 0
13, 144060, Note_on_c, 11, 57, 53
13, 144119, Note_on_c, 11, 57, 0
13, 144120, Note_on_c, 11, 60, 54
13, 144179, Note_on_c, 11, 60, 0
13, 144180, Note_on_c, 11, 57, 56
13, 144239, Note_on_c, 11, 57, 0
13, 144240, Note_on_c, 11, 60, 57
13, 144299, Note_on_c, 11, 60, 0
13, 144300, Note_on_c, 11, 57, 58
13, 144359, Note_on_c, 11, 57, 0
13, 144360, Note_on_c, 11, 60, 60
13, 144419, Note_on_c, 11, 60, 0
13, 144420, Note_on_c, 11, 57, 61
13, 144479, Note_on_c, 11, 57, 0
13, 144480, Note_on_c, 11, 60, 62
13, 144539, Note_on_c, 11, 60, 0
13, 144540, Note_on_c, 11, 57, 64
13, 144599, Note_on_c, 11, 57, 0
13, 144600, Note_on_c, 11, 60, 65
13, 144659, Note_on_c, 11, 60, 0
13, 144660, Note_on_c, 11, 57, 66
13, 144713, Note_on_c, 11, 57, 0
13, 144720, Note_on_c, 11, 60, 68
13, 144779, Note_on_c, 11, 60, 0
13, 144780, Note_on_c, 11, 57, 67
13, 144839, Note_on_c, 11, 57, 0
13, 144840, Note_on_c, 11, 60, 66
13, 144899, Note_on_c, 11, 60, 0
13, 144900, Note_on_c, 11, 57, 64
13, 144959, Note_on_c, 11, 57, 0
13, 144960, Note_on_c, 11, 60, 63
13, 145019, Note_on_c, 11, 60, 0
13, 145020, Note_on_c, 11, 57, 62
13, 145079, Note_on_c, 11, 57, 0
13, 145080, Note_on_c, 11, 60, 60
13, 145139, Note_on_c, 11, 60, 0
13, 145140, Note_on_c, 11, 57, 59
13, 145199, Note_on_c, 11, 57, 0
13, 145200, Note_on_c, 11, 60, 58
13, 145259, Note_on_c, 11, 60, 0
13, 145260, Note_on_c, 11, 57, 56
13, 145319, Note_on_c, 11, 57, 0
13, 145320, Note_on_c, 11, 60, 55
13, 145379, Note_on_c, 11, 60, 0
13, 145380, Note_on_c, 11, 57, 54
13, 145433, Note_on_c, 11, 57, 0
13, 145440, Note_on_c, 11, 62, 52
13, 145679, Note_on_c, 11, 62, 0
13, 145798, Program_c, 11, 45
13, 145800, Note_on_c, 11, 67, 48
13, 146039, Note_on_c, 11, 67, 0
13, 146160, Note_on_c, 11, 65, 48
13, 146399, Note_on_c, 11, 65, 0
13, 146520, Note_on_c, 11, 65, 48
13, 146759, Note_on_c, 11, 65, 0
13, 146878, Program_c, 11, 48
13, 146880, Note_on_c, 11, 60, 52
13, 146939, Note_on_c, 11, 60, 0
13, 146940, Note_on_c, 11, 57, 53
13, 146999, Note_on_c, 11, 57, 0
13, 147000, Note_on_c, 11, 60, 54
13, 147059, Note_on_c, 11, 60, 0
13, 147060, Note_on_c, 11, 57, 56
13, 147119, Note_on_c, 11, 57, 0
13, 147120, Note_on_c, 11, 60, 57
13, 147179, Note_on_c, 11, 60, 0
13, 147180, Note_on_c, 11, 57, 58
13, 147239, Note_on_c, 11, 57, 0
13, 147240, Note_on_c, 11, 60, 60
13, 147299, Note_on_c, 11, 60, 0
13, 147300, Note_on_c, 11, 57, 61
13, 147359, Note_on_c, 11, 57, 0
13, 147360, Note_on_c, 11, 60, 62
13, 147419, Note_on_c, 11, 60, 0
13, 147420, Note_on_c, 11, 57, 64
13, 147479, Note_on_c, 11, 57, 0
13, 147480, Note_on_c, 11, 60, 65
13, 147539, Note_on_c, 11, 60, 0
13, 147540, Note_on_c, 11, 57, 66
13, 147593, Note_on_c, 11, 57, 0
13, 147600, Note_on_c, 11, 63, 68
13, 147659, Note_on_c, 11, 63, 0
13, 147660, Note_on_c, 11, 60, 67
13, 147719, Note_on_c, 11, 60, 0
13, 147720, Note_on_c, 11, 63, 66
13, 147779, Note_on_c, 11, 63, 0
13, 147780, Note_on_c, 11, 60, 64
13, 147839, Note_on_c, 11, 60, 0
13, 147840, Note_on_c, 11, 63, 63
13, 147899, Note_on_c, 11, 63, 0
13, 147900, Note_on_c, 11, 60, 62
13, 147959, Note_on_c, 11, 60, 0
13, 147960, Note_on_c, 11, 63, 60
13, 148019, Note_on_c, 11, 63, 0
13, 148020, Note_on_c, 11, 60, 59
13, 148079, Note_on_c, 11, 60, 0
13, 148080, Note_on_c, 11, 63, 58
13, 148139, Note_on_c, 11, 63, 0
13, 148140, Note_on_c, 11, 60, 56
13, 148199, Note_on_c, 11, 60, 0
13, 148200, Note_on_c, 11, 63, 55
13, 148259, Note_on_c, 11, 63, 0
13, 148260, Note_on_c, 11, 60, 54
13, 148313, Note_on_c, 11, 60, 0
13, 148320, Note_on_c, 11, 62, 52
13, 148559, Note_on_c, 11, 62, 0
13, 148560, Program_c, 11, 45
13, 148680, Note_on_c, 11, 67, 48
13, 148919, Note_on_c, 11, 67, 0
13, 149040, Note_on_c, 11, 62, 48
13, 149279, Note_on_c, 11, 62, 0
13, 149400, Note_on_c, 11, 65, 48
13, 149639, Note_on_c, 11, 65, 0
13, 149760, Note_on_c, 11, 57, 48
13, 149760, Note_on_c, 11, 66, 48
13, 149999, Note_on_c, 11, 57, 0
13, 149999, Note_on_c, 11, 66, 0
13, 150120, Program_c, 11, 48
13, 150480, Note_on_c, 11, 82, 52
13, 150509, Note_on_c, 11, 82, 0
13, 150510, Note_on_c, 11, 84, 52
13, 150539, Note_on_c, 11, 84, 0
13, 150540, Note_on_c, 11, 81, 52
13, 150569, Note_on_c, 11, 81, 0
13, 150570, Note_on_c, 11, 82, 52
13, 150599, Note_on_c, 11, 82, 0
13, 150840, Note_on_c, 11, 81, 52
13, 150869, Note_on_c, 11, 81, 0
13, 150870, Note_on_c, 11, 82, 52
13, 150899, Note_on_c, 11, 82, 0
13, 150900, Note_on_c, 11, 79, 52
13, 150929, Note_on_c, 11, 79, 0
13, 150930, Note_on_c, 11, 81, 52
13, 150959, Note_on_c, 11, 81, 0
13, 151920, Note_on_c, 11, 82, 52
13, 151949, Note_on_c, 11, 82, 0
13, 151950, Note_on_c, 11, 84, 52
13, 151979, Note_on_c, 11, 84, 0
13, 151980, Note_on_c, 11, 81, 52
13, 152009, Note_on_c, 11, 81, 0
13, 152010, Note_on_c, 11, 82, 52
13, 152039, Note_on_c, 11, 82, 0
13, 152280, Note_on_c, 11, 81, 52
13, 152309, Note_on_c, 11, 81, 0
13, 152310, Note_on_c, 11, 82, 52
13, 152339, Note_on_c, 11, 82, 0
13, 152340, Note_on_c, 11, 79, 52
13, 152369, Note_on_c, 11, 79, 0
13, 152370, Note_on_c, 11, 81, 52
13, 152399, Note_on_c, 11, 81, 0
13, 153000, Note_on_c, 11, 82, 52
13, 153029, Note_on_c, 11, 82, 0
13, 153030, Note_on_c, 11, 84, 52
13, 153059, Note_on_c, 11, 84, 0
13, 153060, Note_on_c, 11, 81, 52
13, 153089, Note_on_c, 11, 81, 0
13, 153090, Note_on_c, 11, 82, 52
13, 153119, Note_on_c, 11, 82, 0
13, 153360, Note_on_c, 11, 82, 52
13, 153389, Note_on_c, 11, 82, 0
13, 153390, Note_on_c, 11, 84, 52
13, 153419, Note_on_c, 11, 84, 0
13, 153420, Note_on_c, 11, 81, 52
13, 153449, Note_on_c, 11, 81, 0
13, 153450, Note_on_c, 11, 82, 52
13, 153479, Note_on_c, 11, 82, 0
13, 153720, Note_on_c, 11, 81, 52
13, 153749, Note_on_c, 11, 81, 0
13, 153750, Note_on_c, 11, 82, 52
13, 153779, Note_on_c, 11, 82, 0
13, 153780, Note_on_c, 11, 79, 52
13, 153809, Note_on_c, 11, 79, 0
13, 153810, Note_on_c, 11, 81, 52
13, 153839, Note_on_c, 11, 81, 0
13, 154080, Note_on_c, 11, 82, 55
13, 154109, Note_on_c, 11, 82, 0
13, 154110, Note_on_c, 11, 84, 55
13, 154139, Note_on_c, 11, 84, 0
13, 154140, Note_on_c, 11, 81, 55
13, 154169, Note_on_c, 11, 81, 0
13, 154170, Note_on_c, 11, 82, 55
13, 154199, Note_on_c, 11, 82, 0
13, 154440, Note_on_c, 11, 84, 58
13, 154469, Note_on_c, 11, 84, 0
13, 154470, Note_on_c, 11, 86, 58
13, 154499, Note_on_c, 11, 86, 0
13, 154500, Note_on_c, 11, 82, 58
13, 154529, Note_on_c, 11, 82, 0
13, 154530, Note_on_c, 11, 84, 58
13, 154559, Note_on_c, 11, 84, 0
13, 154800, Note_on_c, 11, 82, 61
13, 154829, Note_on_c, 11, 82, 0
13, 154830, Note_on_c, 11, 84, 61
13, 154859, Note_on_c, 11, 84, 0
13, 154860, Note_on_c, 11, 81, 61
13, 154889, Note_on_c, 11, 81, 0
13, 154890, Note_on_c, 11, 82, 61
13, 154919, Note_on_c, 11, 82, 0
13, 155160, Note_on_c, 11, 81, 64
13, 155189, Note_on_c, 11, 81, 0
13, 155190, Note_on_c, 11, 82, 64
13, 155219, Note_on_c, 11, 82, 0
13, 155220, Note_on_c, 11, 79, 64
13, 155249, Note_on_c, 11, 79, 0
13, 155250, Note_on_c, 11, 81, 64
13, 155279, Note_on_c, 11, 81, 0
13, 155520, Note_on_c, 11, 82, 67
13, 155549, Note_on_c, 11, 82, 0
13, 155550, Note_on_c, 11, 84, 67
13, 155579, Note_on_c, 11, 84, 0
13, 155580, Note_on_c, 11, 81, 67
13, 155609, Note_on_c, 11, 81, 0
13, 155610, Note_on_c, 11, 82, 67
13, 155639, Note_on_c, 11, 82, 0
13, 155880, Note_on_c, 11, 84, 70
13, 155909, Note_on_c, 11, 84, 0
13, 155910, Note_on_c, 11, 86, 70
13, 155939, Note_on_c, 11, 86, 0
13, 155940, Note_on_c, 11, 82, 70
13, 155969, Note_on_c, 11, 82, 0
13, 155970, Note_on_c, 11, 84, 70
13, 155999, Note_on_c, 11, 84, 0
13, 156240, Note_on_c, 11, 82, 73
13, 156269, Note_on_c, 11, 82, 0
13, 156270, Note_on_c, 11, 84, 73
13, 156299, Note_on_c, 11, 84, 0
13, 156300, Note_on_c, 11, 81, 73
13, 156329, Note_on_c, 11, 81, 0
13, 156330, Note_on_c, 11, 82, 73
13, 156359, Note_on_c, 11, 82, 0
13, 156600, Note_on_c, 11, 65, 76
13, 156659, Note_on_c, 11, 65, 0
13, 156660, Note_on_c, 11, 60, 76
13, 156719, Note_on_c, 11, 60, 0
13, 156720, Note_on_c, 11, 65, 76
13, 156779, Note_on_c, 11, 65, 0
13, 156780, Note_on_c, 11, 60, 76
13, 156839, Note_on_c, 11, 60, 0
13, 156840, Note_on_c, 11, 65, 76
13, 156899, Note_on_c, 11, 65, 0
13, 156900, Note_on_c, 11, 60, 76
13, 156953, Note_on_c, 11, 60, 0
13, 156960, Note_on_c, 11, 65, 76
13, 157019, Note_on_c, 11, 65, 0
13, 157020, Note_on_c, 11, 62, 76
13, 157079, Note_on_c, 11, 62, 0
13, 157080, Note_on_c, 11, 65, 76
13, 157139, Note_on_c, 11, 65, 0
13, 157140, Note_on_c, 11, 62, 76
13, 157199, Note_on_c, 11, 62, 0
13, 157200, Note_on_c, 11, 65, 76
13, 157259, Note_on_c, 11, 65, 0
13, 157260, Note_on_c, 11, 62, 76
13, 157319, Note_on_c, 11, 62, 0
13, 157320, Note_on_c, 11, 65, 76
13, 157379, Note_on_c, 11, 65, 0
13, 157380, Note_on_c, 11, 62, 76
13, 157439, Note_on_c, 11, 62, 0
13, 157440, Note_on_c, 11, 65, 76
13, 157499, Note_on_c, 11, 65, 0
13, 157500, Note_on_c, 11, 62, 76
13, 157559, Note_on_c, 11, 62, 0
13, 157560, Note_on_c, 11, 65, 76
13, 157619, Note_on_c, 11, 65, 0
13, 157620, Note_on_c, 11, 62, 76
13, 157673, Note_on_c, 11, 62, 0
13, 157680, Note_on_c, 11, 65, 76
13, 157739, Note_on_c, 11, 65, 0
13, 157740, Note_on_c, 11, 62, 76
13, 157799, Note_on_c, 11, 62, 0
13, 157800, Note_on_c, 11, 65, 76
13, 157859, Note_on_c, 11, 65, 0
13, 157860, Note_on_c, 11, 62, 76
13, 157919, Note_on_c, 11, 62, 0
13, 157920, Note_on_c, 11, 65, 76
13, 157979, Note_on_c, 11, 65, 0
13, 157980, Note_on_c, 11, 62, 76
13, 158039, Note_on_c, 11, 62, 0
13, 158040, Note_on_c, 11, 65, 76
13, 158099, Note_on_c, 11, 65, 0
13, 158100, Note_on_c, 11, 62, 76
13, 158159, Note_on_c, 11, 62, 0
13, 158160, Note_on_c, 11, 65, 76
13, 158219, Note_on_c, 11, 65, 0
13, 158220, Note_on_c, 11, 62, 76
13, 158279, Note_on_c, 11, 62, 0
13, 158280, Note_on_c, 11, 65, 76
13, 158339, Note_on_c, 11, 65, 0
13, 158340, Note_on_c, 11, 62, 76
13, 158393, Note_on_c, 11, 62, 0
13, 158400, Note_on_c, 11, 65, 76
13, 158519, Note_on_c, 11, 65, 0
13, 158520, Note_on_c, 11, 62, 74
13, 158629, Note_on_c, 11, 62, 0
13, 158640, Note_on_c, 11, 65, 72
13, 158759, Note_on_c, 11, 65, 0
13, 158760, Note_on_c, 11, 62, 70
13, 158869, Note_on_c, 11, 62, 0
13, 158880, Note_on_c, 11, 65, 68
13, 158999, Note_on_c, 11, 65, 0
13, 159000, Note_on_c, 11, 62, 66
13, 159109, Note_on_c, 11, 62, 0
13, 159120, Note_on_c, 11, 65, 64
13, 159239, Note_on_c, 11, 65, 0
13, 159240, Note_on_c, 11, 62, 62
13, 159349, Note_on_c, 11, 62, 0
13, 159360, Note_on_c, 11, 65, 60
13, 159479, Note_on_c, 11, 65, 0
13, 159480, Note_on_c, 11, 62, 58
13, 159589, Note_on_c, 11, 62, 0
13, 159600, Note_on_c, 11, 63, 56
13, 159719, Note_on_c, 11, 63, 0
13, 159720, Note_on_c, 11, 60, 54
13, 159829, Note_on_c, 11, 60, 0
13, 159840, Note_on_c, 11, 60, 52
13, 160079, Note_on_c, 11, 60, 0
13, 160560, Note_on_c, 11, 60, 48
13, 160799, Note_on_c, 11, 60, 0
13, 161400, Note_on_c, 11, 66, 44
13, 161459, Note_on_c, 11, 66, 0
13, 161460, Note_on_c, 11, 67, 44
13, 161519, Note_on_c, 11, 67, 0
13, 161520, Note_on_c, 11, 69, 44
13, 161579, Note_on_c, 11, 69, 0
13, 161580, Note_on_c, 11, 66, 44
13, 161639, Note_on_c, 11, 66, 0
13, 161760, Note_on_c, 11, 67, 44
13, 161819, Note_on_c, 11, 67, 0
13, 161820, Note_on_c, 11, 69, 44
13, 161879, Note_on_c, 11, 69, 0
13, 161880, Note_on_c, 11, 70, 44
13, 161939, Note_on_c, 11, 70, 0
13, 161940, Note_on_c, 11, 67, 44
13, 161999, Note_on_c, 11, 67, 0
13, 162840, Note_on_c, 11, 66, 44
13, 162899, Note_on_c, 11, 66, 0
13, 162900, Note_on_c, 11, 67, 44
13, 162959, Note_on_c, 11, 67, 0
13, 162960, Note_on_c, 11, 69, 44
13, 163019, Note_on_c, 11, 69, 0
13, 163020, Note_on_c, 11, 66, 44
13, 163079, Note_on_c, 11, 66, 0
13, 163200, Note_on_c, 11, 67, 44
13, 163259, Note_on_c, 11, 67, 0
13, 163260, Note_on_c, 11, 69, 44
13, 163319, Note_on_c, 11, 69, 0
13, 163320, Note_on_c, 11, 70, 44
13, 163379, Note_on_c, 11, 70, 0
13, 163380, Note_on_c, 11, 67, 44
13, 163439, Note_on_c, 11, 67, 0
13, 164400, Control_c, 11, 11, 91
13, 164520, Note_on_c, 11, 77, 76
13, 164520, Control_c, 11, 11, 97
13, 164640, Control_c, 11, 11, 102
13, 164759, Note_on_c, 11, 77, 0
13, 164760, Control_c, 11, 11, 107
13, 164760, Note_on_c, 11, 72, 76
13, 164879, Note_on_c, 11, 72, 0
13, 164880, Note_on_c, 11, 74, 76
13, 164880, Control_c, 11, 11, 111
13, 165000, Control_c, 11, 11, 118
13, 165119, Note_on_c, 11, 74, 0
13, 165120, Note_on_c, 11, 70, 76
13, 165120, Control_c, 11, 11, 123
13, 165229, Note_on_c, 11, 70, 0
13, 165240, Control_c, 11, 11, 127
13, 165240, Note_on_c, 11, 65, 76
13, 165299, Note_on_c, 11, 65, 0
13, 165300, Note_on_c, 11, 60, 76
13, 165359, Note_on_c, 11, 60, 0
13, 165360, Note_on_c, 11, 65, 76
13, 165419, Note_on_c, 11, 65, 0
13, 165420, Note_on_c, 11, 60, 76
13, 165479, Note_on_c, 11, 60, 0
13, 165480, Note_on_c, 11, 65, 76
13, 165539, Note_on_c, 11, 65, 0
13, 165540, Note_on_c, 11, 60, 76
13, 165593, Note_on_c, 11, 60, 0
13, 165600, Note_on_c, 11, 65, 76
13, 165659, Note_on_c, 11, 65, 0
13, 165660, Note_on_c, 11, 62, 76
13, 165719, Note_on_c, 11, 62, 0
13, 165720, Note_on_c, 11, 65, 76
13, 165779, Note_on_c, 11, 65, 0
13, 165780, Note_on_c, 11, 62, 76
13, 165839, Note_on_c, 11, 62, 0
13, 165840, Note_on_c, 11, 65, 76
13, 165899, Note_on_c, 11, 65, 0
13, 165900, Note_on_c, 11, 62, 76
13, 165959, Note_on_c, 11, 62, 0
13, 165960, Note_on_c, 11, 65, 76
13, 166019, Note_on_c, 11, 65, 0
13, 166020, Note_on_c, 11, 62, 76
13, 166079, Note_on_c, 11, 62, 0
13, 166080, Note_on_c, 11, 65, 76
13, 166139, Note_on_c, 11, 65, 0
13, 166140, Note_on_c, 11, 62, 76
13, 166199, Note_on_c, 11, 62, 0
13, 166200, Note_on_c, 11, 65, 76
13, 166259, Note_on_c, 11, 65, 0
13, 166260, Note_on_c, 11, 62, 76
13, 166313, Note_on_c, 11, 62, 0
13, 166320, Note_on_c, 11, 65, 76
13, 166379, Note_on_c, 11, 65, 0
13, 166380, Note_on_c, 11, 62, 76
13, 166439, Note_on_c, 11, 62, 0
13, 166440, Note_on_c, 11, 65, 76
13, 166499, Note_on_c, 11, 65, 0
13, 166500, Note_on_c, 11, 62, 76
13, 166559, Note_on_c, 11, 62, 0
13, 166560, Note_on_c, 11, 65, 76
13, 166619, Note_on_c, 11, 65, 0
13, 166620, Note_on_c, 11, 62, 76
13, 166679, Note_on_c, 11, 62, 0
13, 166680, Note_on_c, 11, 65, 76
13, 166739, Note_on_c, 11, 65, 0
13, 166740, Note_on_c, 11, 62, 76
13, 166799, Note_on_c, 11, 62, 0
13, 166800, Note_on_c, 11, 65, 76
13, 166859, Note_on_c, 11, 65, 0
13, 166860, Note_on_c, 11, 62, 76
13, 166919, Note_on_c, 11, 62, 0
13, 166920, Note_on_c, 11, 65, 76
13, 166979, Note_on_c, 11, 65, 0
13, 166980, Note_on_c, 11, 62, 76
13, 167033, Note_on_c, 11, 62, 0
13, 167040, Note_on_c, 11, 65, 84
13, 167099, Note_on_c, 11, 65, 0
13, 167100, Note_on_c, 11, 62, 76
13, 167159, Note_on_c, 11, 62, 0
13, 167160, Note_on_c, 11, 65, 72
13, 167219, Note_on_c, 11, 65, 0
13, 167220, Note_on_c, 11, 62, 67
13, 167279, Note_on_c, 11, 62, 0
13, 167280, Note_on_c, 11, 65, 62
13, 167339, Note_on_c, 11, 65, 0
13, 167340, Note_on_c, 11, 62, 57
13, 167399, Note_on_c, 11, 62, 0
13, 167400, Note_on_c, 11, 70, 52
13, 167400, Note_on_c, 11, 62, 52
13, 167519, Note_on_c, 11, 70, 0
13, 167519, Note_on_c, 11, 62, 0
13, 169680, Note_on_c, 11, 74, 52
13, 169769, Note_on_c, 11, 74, 0
13, 169800, Note_on_c, 11, 79, 52
13, 169889, Note_on_c, 11, 79, 0
13, 169920, Note_on_c, 11, 60, 52
13, 170159, Note_on_c, 11, 60, 0
13, 170280, Program_c, 11, 45
13, 170640, Note_on_c, 11, 65, 48
13, 170640, Note_on_c, 11, 57, 48
13, 170879, Note_on_c, 11, 65, 0
13, 170879, Note_on_c, 11, 57, 0
13, 171360, Note_on_c, 11, 58, 48
13, 171360, Note_on_c, 11, 62, 48
13, 171599, Note_on_c, 11, 58, 0
13, 171599, Note_on_c, 11, 62, 0
13, 172440, Program_c, 11, 48
13, 172440, Control_c, 11, 11, 81
13, 172620, Control_c, 11, 11, 89
13, 172680, Note_on_c, 11, 77, 76
13, 172710, Control_c, 11, 11, 93
13, 172769, Note_on_c, 11, 77, 0
13, 172780, Note_on_c, 11, 79, 76
13, 172799, Note_on_c, 11, 79, 0
13, 172800, Control_c, 11, 11, 97
13, 172800, Note_on_c, 11, 77, 76
13, 172890, Control_c, 11, 11, 101
13, 172919, Note_on_c, 11, 77, 0
13, 172920, Note_on_c, 11, 75, 76
13, 172980, Control_c, 11, 11, 105
13, 173039, Note_on_c, 11, 75, 0
13, 173040, Note_on_c, 11, 74, 76
13, 173070, Control_c, 11, 11, 107
13, 173129, Note_on_c, 11, 74, 0
13, 173140, Note_on_c, 11, 75, 76
13, 173159, Note_on_c, 11, 75, 0
13, 173160, Note_on_c, 11, 74, 76
13, 173160, Control_c, 11, 11, 111
13, 173250, Control_c, 11, 11, 115
13, 173279, Note_on_c, 11, 74, 0
13, 173280, Note_on_c, 11, 72, 76
13, 173340, Control_c, 11, 11, 119
13, 173399, Note_on_c, 11, 72, 0
13, 173400, Note_on_c, 11, 70, 76
13, 173430, Control_c, 11, 11, 123
13, 173509, Note_on_c, 11, 70, 0
13, 173520, Control_c, 11, 11, 127
13, 173520, Note_on_c, 11, 75, 84
13, 173629, Note_on_c, 11, 75, 0
13, 173640, Note_on_c, 11, 57, 76
13, 173699, Note_on_c, 11, 57, 0
13, 173700, Note_on_c, 11, 65, 76
13, 173759, Note_on_c, 11, 65, 0
13, 173760, Note_on_c, 11, 58, 76
13, 173819, Note_on_c, 11, 58, 0
13, 173820, Note_on_c, 11, 65, 76
13, 173879, Note_on_c, 11, 65, 0
13, 173880, Note_on_c, 11, 60, 76
13, 173939, Note_on_c, 11, 60, 0
13, 173940, Note_on_c, 11, 65, 72
13, 173999, Note_on_c, 11, 65, 0
13, 174000, Note_on_c, 11, 62, 68
13, 174059, Note_on_c, 11, 62, 0
13, 174060, Note_on_c, 11, 65, 64
13, 174119, Note_on_c, 11, 65, 0
13, 174120, Note_on_c, 11, 63, 60
13, 174179, Note_on_c, 11, 63, 0
13, 174180, Note_on_c, 11, 65, 56
13, 174233, Note_on_c, 11, 65, 0
13, 174240, Note_on_c, 11, 62, 52
13, 174299, Note_on_c, 11, 62, 0
13, 174300, Note_on_c, 11, 62, 52
13, 174359, Note_on_c, 11, 62, 0
13, 174360, Note_on_c, 11, 65, 52
13, 174419, Note_on_c, 11, 65, 0
13, 174420, Note_on_c, 11, 62, 52
13, 174479, Note_on_c, 11, 62, 0
13, 174480, Note_on_c, 11, 65, 52
13, 174539, Note_on_c, 11, 65, 0
13, 174540, Note_on_c, 11, 62, 52
13, 174599, Note_on_c, 11, 62, 0
13, 174600, Note_on_c, 11, 67, 52
13, 174659, Note_on_c, 11, 67, 0
13, 174660, Note_on_c, 11, 63, 52
13, 174719, Note_on_c, 11, 63, 0
13, 174720, Note_on_c, 11, 65, 52
13, 174779, Note_on_c, 11, 65, 0
13, 174780, Note_on_c, 11, 62, 52
13, 174839, Note_on_c, 11, 62, 0
13, 174840, Note_on_c, 11, 65, 52
13, 174899, Note_on_c, 11, 65, 0
13, 174900, Note_on_c, 11, 62, 52
13, 174959, Note_on_c, 11, 62, 0
13, 174960, Note_on_c, 11, 63, 52
13, 175019, Note_on_c, 11, 63, 0
13, 175020, Note_on_c, 11, 60, 52
13, 175079, Note_on_c, 11, 60, 0
13, 175080, Note_on_c, 11, 62, 52
13, 175139, Note_on_c, 11, 62, 0
13, 175140, Note_on_c, 11, 58, 52
13, 175199, Note_on_c, 11, 58, 0
13, 175200, Note_on_c, 11, 62, 52
13, 175259, Note_on_c, 11, 62, 0
13, 175260, Note_on_c, 11, 58, 52
13, 175319, Note_on_c, 11, 58, 0
13, 175320, Note_on_c, 11, 63, 52
13, 175379, Note_on_c, 11, 63, 0
13, 175380, Note_on_c, 11, 60, 51
13, 175439, Note_on_c, 11, 60, 0
13, 175440, Note_on_c, 11, 60, 50
13, 175499, Note_on_c, 11, 60, 0
13, 175500, Note_on_c, 11, 57, 48
13, 175559, Note_on_c, 11, 57, 0
13, 175560, Note_on_c, 11, 60, 47
13, 175619, Note_on_c, 11, 60, 0
13, 175620, Note_on_c, 11, 57, 46
13, 175673, Note_on_c, 11, 57, 0
13, 175680, Note_on_c, 11, 62, 52
13, 175739, Note_on_c, 11, 62, 0
13, 175740, Note_on_c, 11, 58, 52
13, 175799, Note_on_c, 11, 58, 0
13, 175800, Note_on_c, 11, 65, 52
13, 175859, Note_on_c, 11, 65, 0
13, 175860, Note_on_c, 11, 62, 52
13, 175919, Note_on_c, 11, 62, 0
13, 175920, Note_on_c, 11, 65, 52
13, 175979, Note_on_c, 11, 65, 0
13, 175980, Note_on_c, 11, 62, 52
13, 176039, Note_on_c, 11, 62, 0
13, 176040, Note_on_c, 11, 67, 52
13, 176099, Note_on_c, 11, 67, 0
13, 176100, Note_on_c, 11, 63, 52
13, 176159, Note_on_c, 11, 63, 0
13, 176160, Note_on_c, 11, 65, 52
13, 176219, Note_on_c, 11, 65, 0
13, 176220, Note_on_c, 11, 62, 52
13, 176279, Note_on_c, 11, 62, 0
13, 176280, Note_on_c, 11, 65, 52
13, 176339, Note_on_c, 11, 65, 0
13, 176340, Note_on_c, 11, 62, 52
13, 176399, Note_on_c, 11, 62, 0
13, 176400, Note_on_c, 11, 63, 52
13, 176459, Note_on_c, 11, 63, 0
13, 176460, Note_on_c, 11, 60, 52
13, 176519, Note_on_c, 11, 60, 0
13, 176520, Note_on_c, 11, 62, 52
13, 176579, Note_on_c, 11, 62, 0
13, 176580, Note_on_c, 11, 58, 52
13, 176639, Note_on_c, 11, 58, 0
13, 176640, Note_on_c, 11, 62, 52
13, 176699, Note_on_c, 11, 62, 0
13, 176700, Note_on_c, 11, 58, 52
13, 176759, Note_on_c, 11, 58, 0
13, 176760, Note_on_c, 11, 63, 52
13, 176819, Note_on_c, 11, 63, 0
13, 176820, Note_on_c, 11, 60, 51
13, 176879, Note_on_c, 11, 60, 0
13, 176880, Note_on_c, 11, 60, 50
13, 176939, Note_on_c, 11, 60, 0
13, 176940, Note_on_c, 11, 57, 48
13, 176999, Note_on_c, 11, 57, 0
13, 177000, Note_on_c, 11, 60, 47
13, 177059, Note_on_c, 11, 60, 0
13, 177060, Note_on_c, 11, 57, 46
13, 177113, Note_on_c, 11, 57, 0
13, 177120, Note_on_c, 11, 62, 44
13, 177179, Note_on_c, 11, 62, 0
13, 177180, Note_on_c, 11, 58, 44
13, 177239, Note_on_c, 11, 58, 0
13, 177240, Note_on_c, 11, 62, 44
13, 177299, Note_on_c, 11, 62, 0
13, 177300, Note_on_c, 11, 58, 44
13, 177359, Note_on_c, 11, 58, 0
13, 177360, Note_on_c, 11, 62, 44
13, 177419, Note_on_c, 11, 62, 0
13, 177420, Note_on_c, 11, 58, 44
13, 177479, Note_on_c, 11, 58, 0
13, 177480, Note_on_c, 11, 63, 44
13, 177539, Note_on_c, 11, 63, 0
13, 177540, Note_on_c, 11, 60, 44
13, 177599, Note_on_c, 11, 60, 0
13, 177600, Note_on_c, 11, 63, 44
13, 177659, Note_on_c, 11, 63, 0
13, 177660, Note_on_c, 11, 60, 44
13, 177719, Note_on_c, 11, 60, 0
13, 177720, Note_on_c, 11, 62, 44
13, 177779, Note_on_c, 11, 62, 0
13, 177780, Note_on_c, 11, 58, 44
13, 177839, Note_on_c, 11, 58, 0
13, 177840, Note_on_c, 11, 60, 44
13, 177899, Note_on_c, 11, 60, 0
13, 177900, Note_on_c, 11, 57, 44
13, 177959, Note_on_c, 11, 57, 0
13, 177960, Note_on_c, 11, 63, 44
13, 178019, Note_on_c, 11, 63, 0
13, 178020, Note_on_c, 11, 60, 44
13, 178079, Note_on_c, 11, 60, 0
13, 178080, Note_on_c, 11, 63, 44
13, 178139, Note_on_c, 11, 63, 0
13, 178140, Note_on_c, 11, 60, 44
13, 178199, Note_on_c, 11, 60, 0
13, 178200, Note_on_c, 11, 65, 44
13, 178259, Note_on_c, 11, 65, 0
13, 178260, Note_on_c, 11, 62, 44
13, 178319, Note_on_c, 11, 62, 0
13, 178320, Note_on_c, 11, 65, 44
13, 178379, Note_on_c, 11, 65, 0
13, 178380, Note_on_c, 11, 62, 44
13, 178439, Note_on_c, 11, 62, 0
13, 178440, Note_on_c, 11, 63, 44
13, 178499, Note_on_c, 11, 63, 0
13, 178500, Note_on_c, 11, 60, 44
13, 178553, Note_on_c, 11, 60, 0
13, 178560, Note_on_c, 11, 62, 44
13, 178619, Note_on_c, 11, 62, 0
13, 178620, Note_on_c, 11, 58, 45
13, 178679, Note_on_c, 11, 58, 0
13, 178680, Note_on_c, 11, 65, 46
13, 178739, Note_on_c, 11, 65, 0
13, 178740, Note_on_c, 11, 62, 47
13, 178799, Note_on_c, 11, 62, 0
13, 178800, Note_on_c, 11, 65, 48
13, 178859, Note_on_c, 11, 65, 0
13, 178860, Note_on_c, 11, 62, 49
13, 178919, Note_on_c, 11, 62, 0
13, 178920, Note_on_c, 11, 67, 50
13, 178979, Note_on_c, 11, 67, 0
13, 178980, Note_on_c, 11, 63, 51
13, 179039, Note_on_c, 11, 63, 0
13, 179040, Note_on_c, 11, 67, 52
13, 179099, Note_on_c, 11, 67, 0
13, 179100, Note_on_c, 11, 63, 53
13, 179159, Note_on_c, 11, 63, 0
13, 179160, Note_on_c, 11, 65, 54
13, 179219, Note_on_c, 11, 65, 0
13, 179220, Note_on_c, 11, 62, 55
13, 179279, Note_on_c, 11, 62, 0
13, 179280, Note_on_c, 11, 68, 56
13, 179339, Note_on_c, 11, 68, 0
13, 179340, Note_on_c, 11, 65, 57
13, 179399, Note_on_c, 11, 65, 0
13, 179400, Note_on_c, 11, 68, 58
13, 179459, Note_on_c, 11, 68, 0
13, 179460, Note_on_c, 11, 65, 59
13, 179519, Note_on_c, 11, 65, 0
13, 179520, Note_on_c, 11, 67, 60
13, 179579, Note_on_c, 11, 67, 0
13, 179580, Note_on_c, 11, 63, 61
13, 179639, Note_on_c, 11, 63, 0
13, 179640, Note_on_c, 11, 70, 62
13, 179699, Note_on_c, 11, 70, 0
13, 179700, Note_on_c, 11, 67, 63
13, 179759, Note_on_c, 11, 67, 0
13, 179760, Note_on_c, 11, 70, 64
13, 179819, Note_on_c, 11, 70, 0
13, 179820, Note_on_c, 11, 67, 65
13, 179879, Note_on_c, 11, 67, 0
13, 179880, Note_on_c, 11, 68, 66
13, 179939, Note_on_c, 11, 68, 0
13, 179940, Note_on_c, 11, 65, 67
13, 179993, Note_on_c, 11, 65, 0
13, 180000, Note_on_c, 11, 72, 68
13, 180059, Note_on_c, 11, 72, 0
13, 180060, Note_on_c, 11, 68, 67
13, 180119, Note_on_c, 11, 68, 0
13, 180120, Note_on_c, 11, 72, 66
13, 180179, Note_on_c, 11, 72, 0
13, 180180, Note_on_c, 11, 68, 65
13, 180239, Note_on_c, 11, 68, 0
13, 180240, Note_on_c, 11, 70, 64
13, 180299, Note_on_c, 11, 70, 0
13, 180300, Note_on_c, 11, 67, 63
13, 180359, Note_on_c, 11, 67, 0
13, 180360, Note_on_c, 11, 68, 62
13, 180419, Note_on_c, 11, 68, 0
13, 180420, Note_on_c, 11, 65, 61
13, 180479, Note_on_c, 11, 65, 0
13, 180480, Note_on_c, 11, 68, 60
13, 180539, Note_on_c, 11, 68, 0
13, 180540, Note_on_c, 11, 65, 59
13, 180599, Note_on_c, 11, 65, 0
13, 180600, Note_on_c, 11, 67, 58
13, 180659, Note_on_c, 11, 67, 0
13, 180660, Note_on_c, 11, 63, 57
13, 180719, Note_on_c, 11, 63, 0
13, 180720, Note_on_c, 11, 65, 56
13, 180779, Note_on_c, 11, 65, 0
13, 180780, Note_on_c, 11, 62, 55
13, 180839, Note_on_c, 11, 62, 0
13, 180840, Note_on_c, 11, 65, 54
13, 180899, Note_on_c, 11, 65, 0
13, 180900, Note_on_c, 11, 62, 53
13, 180959, Note_on_c, 11, 62, 0
13, 180960, Note_on_c, 11, 67, 52
13, 181019, Note_on_c, 11, 67, 0
13, 181020, Note_on_c, 11, 63, 51
13, 181079, Note_on_c, 11, 63, 0
13, 181080, Note_on_c, 11, 68, 50
13, 181139, Note_on_c, 11, 68, 0
13, 181140, Note_on_c, 11, 65, 49
13, 181199, Note_on_c, 11, 65, 0
13, 181200, Note_on_c, 11, 68, 48
13, 181259, Note_on_c, 11, 68, 0
13, 181260, Note_on_c, 11, 65, 47
13, 181319, Note_on_c, 11, 65, 0
13, 181320, Note_on_c, 11, 67, 46
13, 181379, Note_on_c, 11, 67, 0
13, 181380, Note_on_c, 11, 63, 45
13, 181433, Note_on_c, 11, 63, 0
13, 181440, Note_on_c, 11, 65, 44
13, 181499, Note_on_c, 11, 65, 0
13, 181500, Note_on_c, 11, 62, 45
13, 181559, Note_on_c, 11, 62, 0
13, 181560, Note_on_c, 11, 65, 46
13, 181619, Note_on_c, 11, 65, 0
13, 181620, Note_on_c, 11, 62, 47
13, 181679, Note_on_c, 11, 62, 0
13, 181680, Note_on_c, 11, 65, 48
13, 181739, Note_on_c, 11, 65, 0
13, 181740, Note_on_c, 11, 62, 49
13, 181799, Note_on_c, 11, 62, 0
13, 181800, Note_on_c, 11, 67, 50
13, 181859, Note_on_c, 11, 67, 0
13, 181860, Note_on_c, 11, 63, 51
13, 181919, Note_on_c, 11, 63, 0
13, 181920, Note_on_c, 11, 67, 52
13, 181979, Note_on_c, 11, 67, 0
13, 181980, Note_on_c, 11, 63, 53
13, 182039, Note_on_c, 11, 63, 0
13, 182040, Note_on_c, 11, 65, 54
13, 182099, Note_on_c, 11, 65, 0
13, 182100, Note_on_c, 11, 62, 55
13, 182159, Note_on_c, 11, 62, 0
13, 182160, Note_on_c, 11, 68, 56
13, 182219, Note_on_c, 11, 68, 0
13, 182220, Note_on_c, 11, 65, 57
13, 182279, Note_on_c, 11, 65, 0
13, 182280, Note_on_c, 11, 68, 58
13, 182339, Note_on_c, 11, 68, 0
13, 182340, Note_on_c, 11, 65, 59
13, 182399, Note_on_c, 11, 65, 0
13, 182400, Note_on_c, 11, 67, 60
13, 182459, Note_on_c, 11, 67, 0
13, 182460, Note_on_c, 11, 63, 61
13, 182519, Note_on_c, 11, 63, 0
13, 182520, Note_on_c, 11, 70, 62
13, 182579, Note_on_c, 11, 70, 0
13, 182580, Note_on_c, 11, 67, 63
13, 182639, Note_on_c, 11, 67, 0
13, 182640, Note_on_c, 11, 70, 64
13, 182699, Note_on_c, 11, 70, 0
13, 182700, Note_on_c, 11, 67, 65
13, 182759, Note_on_c, 11, 67, 0
13, 182760, Note_on_c, 11, 68, 66
13, 182819, Note_on_c, 11, 68, 0
13, 182820, Note_on_c, 11, 65, 67
13, 182873, Note_on_c, 11, 65, 0
13, 182880, Note_on_c, 11, 72, 68
13, 182939, Note_on_c, 11, 72, 0
13, 182940, Note_on_c, 11, 68, 67
13, 182999, Note_on_c, 11, 68, 0
13, 183000, Note_on_c, 11, 72, 66
13, 183059, Note_on_c, 11, 72, 0
13, 183060, Note_on_c, 11, 68, 65
13, 183119, Note_on_c, 11, 68, 0
13, 183120, Note_on_c, 11, 70, 64
13, 183179, Note_on_c, 11, 70, 0
13, 183180, Note_on_c, 11, 67, 63
13, 183239, Note_on_c, 11, 67, 0
13, 183240, Note_on_c, 11, 68, 62
13, 183299, Note_on_c, 11, 68, 0
13, 183300, Note_on_c, 11, 65, 61
13, 183359, Note_on_c, 11, 65, 0
13, 183360, Note_on_c, 11, 68, 60
13, 183419, Note_on_c, 11, 68, 0
13, 183420, Note_on_c, 11, 65, 59
13, 183479, Note_on_c, 11, 65, 0
13, 183480, Note_on_c, 11, 67, 58
13, 183539, Note_on_c, 11, 67, 0
13, 183540, Note_on_c, 11, 63, 57
13, 183599, Note_on_c, 11, 63, 0
13, 183600, Note_on_c, 11, 65, 56
13, 183659, Note_on_c, 11, 65, 0
13, 183660, Note_on_c, 11, 62, 55
13, 183719, Note_on_c, 11, 62, 0
13, 183720, Note_on_c, 11, 65, 54
13, 183779, Note_on_c, 11, 65, 0
13, 183780, Note_on_c, 11, 62, 53
13, 183839, Note_on_c, 11, 62, 0
13, 183840, Note_on_c, 11, 67, 52
13, 183899, Note_on_c, 11, 67, 0
13, 183900, Note_on_c, 11, 63, 51
13, 183959, Note_on_c, 11, 63, 0
13, 183960, Note_on_c, 11, 68, 50
13, 184019, Note_on_c, 11, 68, 0
13, 184020, Note_on_c, 11, 65, 49
13, 184079, Note_on_c, 11, 65, 0
13, 184080, Note_on_c, 11, 68, 48
13, 184139, Note_on_c, 11, 68, 0
13, 184140, Note_on_c, 11, 65, 47
13, 184199, Note_on_c, 11, 65, 0
13, 184200, Note_on_c, 11, 67, 46
13, 184259, Note_on_c, 11, 67, 0
13, 184260, Note_on_c, 11, 63, 45
13, 184313, Note_on_c, 11, 63, 0
13, 184320, Note_on_c, 11, 65, 44
13, 184559, Note_on_c, 11, 65, 0
13, 189360, Note_on_c, 11, 63, 52
13, 189360, Note_on_c, 11, 60, 52
13, 190069, Note_on_c, 11, 63, 0
13, 190069, Note_on_c, 11, 60, 0
13, 190080, Note_on_c, 11, 62, 52
13, 190080, Note_on_c, 11, 58, 52
13, 190319, Note_on_c, 11, 62, 0
13, 190319, Note_on_c, 11, 58, 0
13, 195120, Note_on_c, 11, 63, 44
13, 195120, Note_on_c, 11, 60, 44
13, 195829, Note_on_c, 11, 63, 0
13, 195829, Note_on_c, 11, 60, 0
13, 195840, Note_on_c, 11, 58, 44
13, 195840, Note_on_c, 11, 62, 44
13, 196199, Note_on_c, 11, 58, 0
13, 196199, Note_on_c, 11, 62, 0
13, 196560, Note_on_c, 11, 67, 44
13, 196919, Note_on_c, 11, 67, 0
13, 196920, Control_c, 11, 11, 65
13, 197280, Note_on_c, 11, 63, 76
13, 197280, Note_on_c, 11, 60, 76
13, 197280, Control_c, 11, 11, 65
13, 197340, Control_c, 11, 11, 70
13, 197400, Control_c, 11, 11, 75
13, 197460, Control_c, 11, 11, 81
13, 197520, Control_c, 11, 11, 86
13, 197580, Control_c, 11, 11, 91
13, 197640, Control_c, 11, 11, 97
13, 197700, Control_c, 11, 11, 102
13, 197760, Control_c, 11, 11, 107
13, 197820, Control_c, 11, 11, 111
13, 197880, Control_c, 11, 11, 118
13, 197940, Control_c, 11, 11, 123
13, 197989, Note_on_c, 11, 63, 0
13, 197989, Note_on_c, 11, 60, 0
13, 198000, Control_c, 11, 11, 127
13, 198000, Note_on_c, 11, 62, 84
13, 198000, Note_on_c, 11, 58, 84
13, 198239, Note_on_c, 11, 62, 0
13, 198239, Note_on_c, 11, 58, 0
13, 198360, Program_c, 11, 45
13, 198720, Note_on_c, 11, 58, 44
13, 198959, Note_on_c, 11, 58, 0
13, 199080, Note_on_c, 11, 58, 44
13, 199319, Note_on_c, 11, 58, 0
13, 199440, Note_on_c, 11, 58, 44
13, 199679, Note_on_c, 11, 58, 0
13, 200160, Program_c, 11, 48
13, 200160, End_track
14, 0, Start_track
14, 0, Title_t, "Viola "
14, 0, MIDI_port, 0
14, 0, Program_c, 12, 48
14, 0, Control_c, 12, 11, 127
14, 0, Control_c, 12, 10, 70
14, 0, Control_c, 12, 7, 96
14, 0, Note_on_c, 12, 58, 52
14, 119, Note_on_c, 12, 58, 0
14, 120, Note_on_c, 12, 62, 52
14, 229, Note_on_c, 12, 62, 0
14, 240, Note_on_c, 12, 62, 52
14, 359, Note_on_c, 12, 62, 0
14, 360, Note_on_c, 12, 63, 52
14, 479, Note_on_c, 12, 63, 0
14, 480, Note_on_c, 12, 62, 52
14, 589, Note_on_c, 12, 62, 0
14, 600, Note_on_c, 12, 62, 52
14, 719, Note_on_c, 12, 62, 0
14, 720, Note_on_c, 12, 60, 52
14, 839, Note_on_c, 12, 60, 0
14, 840, Note_on_c, 12, 58, 52
14, 949, Note_on_c, 12, 58, 0
14, 960, Note_on_c, 12, 58, 52
14, 1079, Note_on_c, 12, 58, 0
14, 1080, Note_on_c, 12, 57, 52
14, 1199, Note_on_c, 12, 57, 0
14, 1200, Note_on_c, 12, 58, 52
14, 1309, Note_on_c, 12, 58, 0
14, 1320, Note_on_c, 12, 58, 52
14, 1429, Note_on_c, 12, 58, 0
14, 1440, Note_on_c, 12, 58, 52
14, 1559, Note_on_c, 12, 58, 0
14, 1560, Note_on_c, 12, 62, 52
14, 1669, Note_on_c, 12, 62, 0
14, 1680, Note_on_c, 12, 62, 52
14, 1799, Note_on_c, 12, 62, 0
14, 1800, Note_on_c, 12, 63, 52
14, 1919, Note_on_c, 12, 63, 0
14, 1920, Note_on_c, 12, 62, 52
14, 2029, Note_on_c, 12, 62, 0
14, 2040, Note_on_c, 12, 62, 52
14, 2159, Note_on_c, 12, 62, 0
14, 2160, Note_on_c, 12, 60, 52
14, 2279, Note_on_c, 12, 60, 0
14, 2280, Note_on_c, 12, 58, 52
14, 2389, Note_on_c, 12, 58, 0
14, 2400, Note_on_c, 12, 58, 52
14, 2519, Note_on_c, 12, 58, 0
14, 2520, Note_on_c, 12, 57, 52
14, 2639, Note_on_c, 12, 57, 0
14, 2640, Note_on_c, 12, 58, 52
14, 2749, Note_on_c, 12, 58, 0
14, 2760, Note_on_c, 12, 58, 52
14, 2879, Note_on_c, 12, 58, 0
14, 2880, Note_on_c, 12, 57, 52
14, 2999, Note_on_c, 12, 57, 0
14, 3000, Note_on_c, 12, 60, 52
14, 3109, Note_on_c, 12, 60, 0
14, 3120, Note_on_c, 12, 60, 52
14, 3239, Note_on_c, 12, 60, 0
14, 3240, Note_on_c, 12, 62, 52
14, 3359, Note_on_c, 12, 62, 0
14, 3360, Note_on_c, 12, 60, 52
14, 3469, Note_on_c, 12, 60, 0
14, 3480, Note_on_c, 12, 60, 52
14, 3599, Note_on_c, 12, 60, 0
14, 3600, Note_on_c, 12, 58, 52
14, 3719, Note_on_c, 12, 58, 0
14, 3720, Note_on_c, 12, 57, 52
14, 3829, Note_on_c, 12, 57, 0
14, 3840, Note_on_c, 12, 57, 52
14, 3959, Note_on_c, 12, 57, 0
14, 3960, Note_on_c, 12, 55, 52
14, 4079, Note_on_c, 12, 55, 0
14, 4080, Note_on_c, 12, 57, 52
14, 4189, Note_on_c, 12, 57, 0
14, 4200, Note_on_c, 12, 57, 52
14, 4309, Note_on_c, 12, 57, 0
14, 4320, Note_on_c, 12, 57, 52
14, 4439, Note_on_c, 12, 57, 0
14, 4440, Note_on_c, 12, 60, 52
14, 4549, Note_on_c, 12, 60, 0
14, 4560, Note_on_c, 12, 60, 52
14, 4679, Note_on_c, 12, 60, 0
14, 4680, Note_on_c, 12, 62, 52
14, 4799, Note_on_c, 12, 62, 0
14, 4800, Note_on_c, 12, 60, 52
14, 4909, Note_on_c, 12, 60, 0
14, 4920, Note_on_c, 12, 60, 52
14, 5039, Note_on_c, 12, 60, 0
14, 5040, Note_on_c, 12, 58, 52
14, 5159, Note_on_c, 12, 58, 0
14, 5160, Note_on_c, 12, 57, 52
14, 5269, Note_on_c, 12, 57, 0
14, 5280, Note_on_c, 12, 57, 52
14, 5399, Note_on_c, 12, 57, 0
14, 5400, Note_on_c, 12, 55, 52
14, 5519, Note_on_c, 12, 55, 0
14, 5520, Note_on_c, 12, 57, 52
14, 5629, Note_on_c, 12, 57, 0
14, 5640, Note_on_c, 12, 57, 52
14, 5749, Note_on_c, 12, 57, 0
14, 5760, Note_on_c, 12, 58, 52
14, 5819, Note_on_c, 12, 58, 0
14, 5820, Note_on_c, 12, 53, 53
14, 5879, Note_on_c, 12, 53, 0
14, 5880, Note_on_c, 12, 58, 54
14, 5939, Note_on_c, 12, 58, 0
14, 5940, Note_on_c, 12, 53, 55
14, 5999, Note_on_c, 12, 53, 0
14, 6000, Note_on_c, 12, 58, 56
14, 6059, Note_on_c, 12, 58, 0
14, 6060, Note_on_c, 12, 53, 57
14, 6119, Note_on_c, 12, 53, 0
14, 6120, Note_on_c, 12, 58, 58
14, 6179, Note_on_c, 12, 58, 0
14, 6180, Note_on_c, 12, 53, 59
14, 6239, Note_on_c, 12, 53, 0
14, 6240, Note_on_c, 12, 58, 60
14, 6299, Note_on_c, 12, 58, 0
14, 6300, Note_on_c, 12, 53, 61
14, 6359, Note_on_c, 12, 53, 0
14, 6360, Note_on_c, 12, 58, 62
14, 6419, Note_on_c, 12, 58, 0
14, 6420, Note_on_c, 12, 53, 63
14, 6473, Note_on_c, 12, 53, 0
14, 6480, Note_on_c, 12, 58, 64
14, 6539, Note_on_c, 12, 58, 0
14, 6540, Note_on_c, 12, 55, 65
14, 6599, Note_on_c, 12, 55, 0
14, 6600, Note_on_c, 12, 58, 66
14, 6659, Note_on_c, 12, 58, 0
14, 6660, Note_on_c, 12, 55, 67
14, 6719, Note_on_c, 12, 55, 0
14, 6720, Note_on_c, 12, 58, 68
14, 6779, Note_on_c, 12, 58, 0
14, 6780, Note_on_c, 12, 55, 69
14, 6839, Note_on_c, 12, 55, 0
14, 6840, Note_on_c, 12, 58, 70
14, 6899, Note_on_c, 12, 58, 0
14, 6900, Note_on_c, 12, 55, 71
14, 6959, Note_on_c, 12, 55, 0
14, 6960, Note_on_c, 12, 58, 72
14, 7019, Note_on_c, 12, 58, 0
14, 7020, Note_on_c, 12, 55, 73
14, 7079, Note_on_c, 12, 55, 0
14, 7080, Note_on_c, 12, 58, 74
14, 7139, Note_on_c, 12, 58, 0
14, 7140, Note_on_c, 12, 55, 75
14, 7193, Note_on_c, 12, 55, 0
14, 7200, Note_on_c, 12, 58, 76
14, 7259, Note_on_c, 12, 58, 0
14, 7260, Note_on_c, 12, 53, 52
14, 7319, Note_on_c, 12, 53, 0
14, 7320, Note_on_c, 12, 58, 52
14, 7379, Note_on_c, 12, 58, 0
14, 7380, Note_on_c, 12, 53, 52
14, 7439, Note_on_c, 12, 53, 0
14, 7440, Note_on_c, 12, 58, 52
14, 7499, Note_on_c, 12, 58, 0
14, 7500, Note_on_c, 12, 53, 52
14, 7559, Note_on_c, 12, 53, 0
14, 7560, Note_on_c, 12, 58, 52
14, 7619, Note_on_c, 12, 58, 0
14, 7620, Note_on_c, 12, 53, 52
14, 7679, Note_on_c, 12, 53, 0
14, 7680, Note_on_c, 12, 58, 52
14, 7739, Note_on_c, 12, 58, 0
14, 7740, Note_on_c, 12, 53, 52
14, 7799, Note_on_c, 12, 53, 0
14, 7800, Note_on_c, 12, 58, 52
14, 7859, Note_on_c, 12, 58, 0
14, 7860, Note_on_c, 12, 53, 52
14, 7913, Note_on_c, 12, 53, 0
14, 7920, Note_on_c, 12, 58, 52
14, 7979, Note_on_c, 12, 58, 0
14, 7980, Note_on_c, 12, 53, 54
14, 8039, Note_on_c, 12, 53, 0
14, 8040, Note_on_c, 12, 58, 57
14, 8099, Note_on_c, 12, 58, 0
14, 8100, Note_on_c, 12, 53, 60
14, 8159, Note_on_c, 12, 53, 0
14, 8160, Note_on_c, 12, 58, 62
14, 8219, Note_on_c, 12, 58, 0
14, 8220, Note_on_c, 12, 53, 65
14, 8273, Note_on_c, 12, 53, 0
14, 8280, Note_on_c, 12, 57, 68
14, 8339, Note_on_c, 12, 57, 0
14, 8340, Note_on_c, 12, 53, 66
14, 8399, Note_on_c, 12, 53, 0
14, 8400, Note_on_c, 12, 57, 63
14, 8459, Note_on_c, 12, 57, 0
14, 8460, Note_on_c, 12, 53, 60
14, 8519, Note_on_c, 12, 53, 0
14, 8520, Note_on_c, 12, 57, 58
14, 8579, Note_on_c, 12, 57, 0
14, 8580, Note_on_c, 12, 53, 55
14, 8633, Note_on_c, 12, 53, 0
14, 8640, Note_on_c, 12, 58, 52
14, 8699, Note_on_c, 12, 58, 0
14, 8700, Note_on_c, 12, 62, 52
14, 8759, Note_on_c, 12, 62, 0
14, 8760, Note_on_c, 12, 65, 52
14, 8819, Note_on_c, 12, 65, 0
14, 8820, Note_on_c, 12, 62, 52
14, 8879, Note_on_c, 12, 62, 0
14, 8880, Note_on_c, 12, 65, 52
14, 8939, Note_on_c, 12, 65, 0
14, 8940, Note_on_c, 12, 62, 52
14, 8999, Note_on_c, 12, 62, 0
14, 9000, Note_on_c, 12, 67, 52
14, 9059, Note_on_c, 12, 67, 0
14, 9060, Note_on_c, 12, 63, 52
14, 9119, Note_on_c, 12, 63, 0
14, 9120, Note_on_c, 12, 65, 52
14, 9179, Note_on_c, 12, 65, 0
14, 9180, Note_on_c, 12, 62, 52
14, 9239, Note_on_c, 12, 62, 0
14, 9240, Note_on_c, 12, 65, 52
14, 9299, Note_on_c, 12, 65, 0
14, 9300, Note_on_c, 12, 62, 52
14, 9359, Note_on_c, 12, 62, 0
14, 9360, Note_on_c, 12, 63, 52
14, 9419, Note_on_c, 12, 63, 0
14, 9420, Note_on_c, 12, 60, 52
14, 9479, Note_on_c, 12, 60, 0
14, 9480, Note_on_c, 12, 62, 52
14, 9539, Note_on_c, 12, 62, 0
14, 9540, Note_on_c, 12, 58, 52
14, 9599, Note_on_c, 12, 58, 0
14, 9600, Note_on_c, 12, 62, 52
14, 9659, Note_on_c, 12, 62, 0
14, 9660, Note_on_c, 12, 58, 52
14, 9719, Note_on_c, 12, 58, 0
14, 9720, Note_on_c, 12, 60, 52
14, 9779, Note_on_c, 12, 60, 0
14, 9780, Note_on_c, 12, 57, 52
14, 9839, Note_on_c, 12, 57, 0
14, 9840, Note_on_c, 12, 62, 52
14, 9899, Note_on_c, 12, 62, 0
14, 9900, Note_on_c, 12, 58, 52
14, 9959, Note_on_c, 12, 58, 0
14, 9960, Note_on_c, 12, 62, 52
14, 10019, Note_on_c, 12, 62, 0
14, 10020, Note_on_c, 12, 58, 52
14, 10073, Note_on_c, 12, 58, 0
14, 10080, Note_on_c, 12, 62, 52
14, 10139, Note_on_c, 12, 62, 0
14, 10140, Note_on_c, 12, 58, 52
14, 10199, Note_on_c, 12, 58, 0
14, 10200, Note_on_c, 12, 65, 52
14, 10259, Note_on_c, 12, 65, 0
14, 10260, Note_on_c, 12, 62, 52
14, 10319, Note_on_c, 12, 62, 0
14, 10320, Note_on_c, 12, 65, 52
14, 10379, Note_on_c, 12, 65, 0
14, 10380, Note_on_c, 12, 62, 52
14, 10439, Note_on_c, 12, 62, 0
14, 10440, Note_on_c, 12, 67, 52
14, 10499, Note_on_c, 12, 67, 0
14, 10500, Note_on_c, 12, 63, 52
14, 10559, Note_on_c, 12, 63, 0
14, 10560, Note_on_c, 12, 65, 52
14, 10619, Note_on_c, 12, 65, 0
14, 10620, Note_on_c, 12, 62, 52
14, 10679, Note_on_c, 12, 62, 0
14, 10680, Note_on_c, 12, 65, 52
14, 10739, Note_on_c, 12, 65, 0
14, 10740, Note_on_c, 12, 62, 52
14, 10799, Note_on_c, 12, 62, 0
14, 10800, Note_on_c, 12, 63, 52
14, 10859, Note_on_c, 12, 63, 0
14, 10860, Note_on_c, 12, 60, 52
14, 10919, Note_on_c, 12, 60, 0
14, 10920, Note_on_c, 12, 62, 52
14, 10979, Note_on_c, 12, 62, 0
14, 10980, Note_on_c, 12, 58, 52
14, 11039, Note_on_c, 12, 58, 0
14, 11040, Note_on_c, 12, 62, 52
14, 11099, Note_on_c, 12, 62, 0
14, 11100, Note_on_c, 12, 58, 52
14, 11159, Note_on_c, 12, 58, 0
14, 11160, Note_on_c, 12, 60, 52
14, 11219, Note_on_c, 12, 60, 0
14, 11220, Note_on_c, 12, 57, 52
14, 11279, Note_on_c, 12, 57, 0
14, 11280, Note_on_c, 12, 62, 52
14, 11339, Note_on_c, 12, 62, 0
14, 11340, Note_on_c, 12, 58, 52
14, 11399, Note_on_c, 12, 58, 0
14, 11400, Note_on_c, 12, 62, 52
14, 11459, Note_on_c, 12, 62, 0
14, 11460, Note_on_c, 12, 58, 52
14, 11513, Note_on_c, 12, 58, 0
14, 11520, Note_on_c, 12, 63, 52
14, 11579, Note_on_c, 12, 63, 0
14, 11580, Note_on_c, 12, 57, 52
14, 11639, Note_on_c, 12, 57, 0
14, 11640, Note_on_c, 12, 63, 52
14, 11699, Note_on_c, 12, 63, 0
14, 11700, Note_on_c, 12, 60, 52
14, 11759, Note_on_c, 12, 60, 0
14, 11760, Note_on_c, 12, 63, 52
14, 11819, Note_on_c, 12, 63, 0
14, 11820, Note_on_c, 12, 60, 52
14, 11879, Note_on_c, 12, 60, 0
14, 11880, Note_on_c, 12, 65, 52
14, 11939, Note_on_c, 12, 65, 0
14, 11940, Note_on_c, 12, 62, 52
14, 11999, Note_on_c, 12, 62, 0
14, 12000, Note_on_c, 12, 63, 52
14, 12059, Note_on_c, 12, 63, 0
14, 12060, Note_on_c, 12, 60, 52
14, 12119, Note_on_c, 12, 60, 0
14, 12120, Note_on_c, 12, 63, 52
14, 12179, Note_on_c, 12, 63, 0
14, 12180, Note_on_c, 12, 60, 52
14, 12239, Note_on_c, 12, 60, 0
14, 12240, Note_on_c, 12, 62, 52
14, 12299, Note_on_c, 12, 62, 0
14, 12300, Note_on_c, 12, 58, 52
14, 12359, Note_on_c, 12, 58, 0
14, 12360, Note_on_c, 12, 60, 52
14, 12419, Note_on_c, 12, 60, 0
14, 12420, Note_on_c, 12, 57, 52
14, 12479, Note_on_c, 12, 57, 0
14, 12480, Note_on_c, 12, 60, 52
14, 12539, Note_on_c, 12, 60, 0
14, 12540, Note_on_c, 12, 57, 52
14, 12599, Note_on_c, 12, 57, 0
14, 12600, Note_on_c, 12, 58, 52
14, 12659, Note_on_c, 12, 58, 0
14, 12660, Note_on_c, 12, 55, 52
14, 12719, Note_on_c, 12, 55, 0
14, 12720, Note_on_c, 12, 60, 52
14, 12779, Note_on_c, 12, 60, 0
14, 12780, Note_on_c, 12, 57, 52
14, 12839, Note_on_c, 12, 57, 0
14, 12840, Note_on_c, 12, 60, 52
14, 12899, Note_on_c, 12, 60, 0
14, 12900, Note_on_c, 12, 57, 52
14, 12953, Note_on_c, 12, 57, 0
14, 12960, Note_on_c, 12, 60, 52
14, 13019, Note_on_c, 12, 60, 0
14, 13020, Note_on_c, 12, 57, 52
14, 13079, Note_on_c, 12, 57, 0
14, 13080, Note_on_c, 12, 63, 52
14, 13139, Note_on_c, 12, 63, 0
14, 13140, Note_on_c, 12, 60, 52
14, 13199, Note_on_c, 12, 60, 0
14, 13200, Note_on_c, 12, 63, 52
14, 13259, Note_on_c, 12, 63, 0
14, 13260, Note_on_c, 12, 60, 52
14, 13319, Note_on_c, 12, 60, 0
14, 13320, Note_on_c, 12, 65, 52
14, 13379, Note_on_c, 12, 65, 0
14, 13380, Note_on_c, 12, 62, 52
14, 13439, Note_on_c, 12, 62, 0
14, 13440, Note_on_c, 12, 63, 52
14, 13499, Note_on_c, 12, 63, 0
14, 13500, Note_on_c, 12, 60, 52
14, 13559, Note_on_c, 12, 60, 0
14, 13560, Note_on_c, 12, 63, 52
14, 13619, Note_on_c, 12, 63, 0
14, 13620, Note_on_c, 12, 60, 52
14, 13679, Note_on_c, 12, 60, 0
14, 13680, Note_on_c, 12, 62, 52
14, 13739, Note_on_c, 12, 62, 0
14, 13740, Note_on_c, 12, 58, 52
14, 13799, Note_on_c, 12, 58, 0
14, 13800, Note_on_c, 12, 60, 52
14, 13859, Note_on_c, 12, 60, 0
14, 13860, Note_on_c, 12, 57, 52
14, 13919, Note_on_c, 12, 57, 0
14, 13920, Note_on_c, 12, 60, 52
14, 13979, Note_on_c, 12, 60, 0
14, 13980, Note_on_c, 12, 57, 52
14, 14039, Note_on_c, 12, 57, 0
14, 14040, Note_on_c, 12, 58, 52
14, 14099, Note_on_c, 12, 58, 0
14, 14100, Note_on_c, 12, 55, 52
14, 14159, Note_on_c, 12, 55, 0
14, 14160, Note_on_c, 12, 60, 52
14, 14219, Note_on_c, 12, 60, 0
14, 14220, Note_on_c, 12, 57, 52
14, 14279, Note_on_c, 12, 57, 0
14, 14280, Note_on_c, 12, 60, 52
14, 14339, Note_on_c, 12, 60, 0
14, 14340, Note_on_c, 12, 57, 52
14, 14393, Note_on_c, 12, 57, 0
14, 14400, Note_on_c, 12, 58, 52
14, 14459, Note_on_c, 12, 58, 0
14, 14460, Note_on_c, 12, 53, 53
14, 14519, Note_on_c, 12, 53, 0
14, 14520, Note_on_c, 12, 58, 54
14, 14579, Note_on_c, 12, 58, 0
14, 14580, Note_on_c, 12, 53, 55
14, 14639, Note_on_c, 12, 53, 0
14, 14640, Note_on_c, 12, 58, 56
14, 14699, Note_on_c, 12, 58, 0
14, 14700, Note_on_c, 12, 53, 57
14, 14759, Note_on_c, 12, 53, 0
14, 14760, Note_on_c, 12, 58, 58
14, 14819, Note_on_c, 12, 58, 0
14, 14820, Note_on_c, 12, 53, 59
14, 14879, Note_on_c, 12, 53, 0
14, 14880, Note_on_c, 12, 58, 60
14, 14939, Note_on_c, 12, 58, 0
14, 14940, Note_on_c, 12, 53, 61
14, 14999, Note_on_c, 12, 53, 0
14, 15000, Note_on_c, 12, 58, 62
14, 15059, Note_on_c, 12, 58, 0
14, 15060, Note_on_c, 12, 53, 63
14, 15119, Note_on_c, 12, 53, 0
14, 15120, Note_on_c, 12, 58, 64
14, 15179, Note_on_c, 12, 58, 0
14, 15180, Note_on_c, 12, 55, 65
14, 15239, Note_on_c, 12, 55, 0
14, 15240, Note_on_c, 12, 58, 66
14, 15299, Note_on_c, 12, 58, 0
14, 15300, Note_on_c, 12, 55, 67
14, 15359, Note_on_c, 12, 55, 0
14, 15360, Note_on_c, 12, 58, 68
14, 15419, Note_on_c, 12, 58, 0
14, 15420, Note_on_c, 12, 55, 69
14, 15479, Note_on_c, 12, 55, 0
14, 15480, Note_on_c, 12, 58, 70
14, 15539, Note_on_c, 12, 58, 0
14, 15540, Note_on_c, 12, 55, 71
14, 15599, Note_on_c, 12, 55, 0
14, 15600, Note_on_c, 12, 58, 72
14, 15659, Note_on_c, 12, 58, 0
14, 15660, Note_on_c, 12, 55, 73
14, 15719, Note_on_c, 12, 55, 0
14, 15720, Note_on_c, 12, 58, 74
14, 15779, Note_on_c, 12, 58, 0
14, 15780, Note_on_c, 12, 55, 75
14, 15833, Note_on_c, 12, 55, 0
14, 15840, Note_on_c, 12, 58, 76
14, 15899, Note_on_c, 12, 58, 0
14, 15900, Note_on_c, 12, 53, 52
14, 15959, Note_on_c, 12, 53, 0
14, 15960, Note_on_c, 12, 58, 52
14, 16019, Note_on_c, 12, 58, 0
14, 16020, Note_on_c, 12, 53, 52
14, 16079, Note_on_c, 12, 53, 0
14, 16080, Note_on_c, 12, 58, 52
14, 16139, Note_on_c, 12, 58, 0
14, 16140, Note_on_c, 12, 53, 52
14, 16199, Note_on_c, 12, 53, 0
14, 16200, Note_on_c, 12, 58, 52
14, 16259, Note_on_c, 12, 58, 0
14, 16260, Note_on_c, 12, 53, 52
14, 16319, Note_on_c, 12, 53, 0
14, 16320, Note_on_c, 12, 58, 52
14, 16379, Note_on_c, 12, 58, 0
14, 16380, Note_on_c, 12, 53, 52
14, 16439, Note_on_c, 12, 53, 0
14, 16440, Note_on_c, 12, 58, 52
14, 16499, Note_on_c, 12, 58, 0
14, 16500, Note_on_c, 12, 53, 52
14, 16553, Note_on_c, 12, 53, 0
14, 16560, Note_on_c, 12, 58, 52
14, 16619, Note_on_c, 12, 58, 0
14, 16620, Note_on_c, 12, 53, 54
14, 16679, Note_on_c, 12, 53, 0
14, 16680, Note_on_c, 12, 58, 57
14, 16739, Note_on_c, 12, 58, 0
14, 16740, Note_on_c, 12, 53, 60
14, 16799, Note_on_c, 12, 53, 0
14, 16800, Note_on_c, 12, 58, 62
14, 16859, Note_on_c, 12, 58, 0
14, 16860, Note_on_c, 12, 53, 65
14, 16913, Note_on_c, 12, 53, 0
14, 16920, Note_on_c, 12, 57, 68
14, 16979, Note_on_c, 12, 57, 0
14, 16980, Note_on_c, 12, 53, 66
14, 17039, Note_on_c, 12, 53, 0
14, 17040, Note_on_c, 12, 57, 63
14, 17099, Note_on_c, 12, 57, 0
14, 17100, Note_on_c, 12, 53, 60
14, 17159, Note_on_c, 12, 53, 0
14, 17160, Note_on_c, 12, 57, 58
14, 17219, Note_on_c, 12, 57, 0
14, 17220, Note_on_c, 12, 53, 55
14, 17273, Note_on_c, 12, 53, 0
14, 17280, Note_on_c, 12, 58, 52
14, 17339, Note_on_c, 12, 58, 0
14, 17340, Note_on_c, 12, 53, 52
14, 17399, Note_on_c, 12, 53, 0
14, 17400, Note_on_c, 12, 58, 52
14, 17459, Note_on_c, 12, 58, 0
14, 17460, Note_on_c, 12, 53, 52
14, 17519, Note_on_c, 12, 53, 0
14, 17520, Note_on_c, 12, 58, 52
14, 17579, Note_on_c, 12, 58, 0
14, 17580, Note_on_c, 12, 53, 52
14, 17639, Note_on_c, 12, 53, 0
14, 17640, Note_on_c, 12, 58, 52
14, 17699, Note_on_c, 12, 58, 0
14, 17700, Note_on_c, 12, 53, 52
14, 17759, Note_on_c, 12, 53, 0
14, 17760, Note_on_c, 12, 58, 52
14, 17819, Note_on_c, 12, 58, 0
14, 17820, Note_on_c, 12, 53, 52
14, 17879, Note_on_c, 12, 53, 0
14, 17880, Note_on_c, 12, 58, 52
14, 17939, Note_on_c, 12, 58, 0
14, 17940, Note_on_c, 12, 53, 52
14, 17993, Note_on_c, 12, 53, 0
14, 18000, Note_on_c, 12, 57, 52
14, 18059, Note_on_c, 12, 57, 0
14, 18060, Note_on_c, 12, 53, 52
14, 18119, Note_on_c, 12, 53, 0
14, 18120, Note_on_c, 12, 57, 52
14, 18179, Note_on_c, 12, 57, 0
14, 18180, Note_on_c, 12, 53, 52
14, 18239, Note_on_c, 12, 53, 0
14, 18240, Note_on_c, 12, 57, 52
14, 18299, Note_on_c, 12, 57, 0
14, 18300, Note_on_c, 12, 53, 52
14, 18359, Note_on_c, 12, 53, 0
14, 18360, Note_on_c, 12, 57, 52
14, 18419, Note_on_c, 12, 57, 0
14, 18420, Note_on_c, 12, 53, 52
14, 18479, Note_on_c, 12, 53, 0
14, 18480, Note_on_c, 12, 57, 52
14, 18539, Note_on_c, 12, 57, 0
14, 18540, Note_on_c, 12, 53, 52
14, 18599, Note_on_c, 12, 53, 0
14, 18600, Note_on_c, 12, 57, 52
14, 18659, Note_on_c, 12, 57, 0
14, 18660, Note_on_c, 12, 53, 52
14, 18713, Note_on_c, 12, 53, 0
14, 18720, Note_on_c, 12, 58, 52
14, 18779, Note_on_c, 12, 58, 0
14, 18780, Note_on_c, 12, 53, 53
14, 18839, Note_on_c, 12, 53, 0
14, 18840, Note_on_c, 12, 58, 54
14, 18899, Note_on_c, 12, 58, 0
14, 18900, Note_on_c, 12, 53, 56
14, 18959, Note_on_c, 12, 53, 0
14, 18960, Note_on_c, 12, 58, 57
14, 19019, Note_on_c, 12, 58, 0
14, 19020, Note_on_c, 12, 53, 58
14, 19079, Note_on_c, 12, 53, 0
14, 19080, Note_on_c, 12, 58, 60
14, 19139, Note_on_c, 12, 58, 0
14, 19140, Note_on_c, 12, 53, 61
14, 19199, Note_on_c, 12, 53, 0
14, 19200, Note_on_c, 12, 58, 62
14, 19259, Note_on_c, 12, 58, 0
14, 19260, Note_on_c, 12, 53, 64
14, 19319, Note_on_c, 12, 53, 0
14, 19320, Note_on_c, 12, 58, 65
14, 19379, Note_on_c, 12, 58, 0
14, 19380, Note_on_c, 12, 53, 66
14, 19433, Note_on_c, 12, 53, 0
14, 19440, Note_on_c, 12, 58, 68
14, 19499, Note_on_c, 12, 58, 0
14, 19500, Note_on_c, 12, 55, 67
14, 19559, Note_on_c, 12, 55, 0
14, 19560, Note_on_c, 12, 58, 66
14, 19619, Note_on_c, 12, 58, 0
14, 19620, Note_on_c, 12, 55, 64
14, 19679, Note_on_c, 12, 55, 0
14, 19680, Note_on_c, 12, 58, 63
14, 19739, Note_on_c, 12, 58, 0
14, 19740, Note_on_c, 12, 55, 62
14, 19793, Note_on_c, 12, 55, 0
14, 19800, Note_on_c, 12, 60, 60
14, 19859, Note_on_c, 12, 60, 0
14, 19860, Note_on_c, 12, 57, 59
14, 19919, Note_on_c, 12, 57, 0
14, 19920, Note_on_c, 12, 60, 58
14, 19979, Note_on_c, 12, 60, 0
14, 19980, Note_on_c, 12, 57, 56
14, 20039, Note_on_c, 12, 57, 0
14, 20040, Note_on_c, 12, 60, 55
14, 20099, Note_on_c, 12, 60, 0
14, 20100, Note_on_c, 12, 57, 54
14, 20153, Note_on_c, 12, 57, 0
14, 20160, Note_on_c, 12, 50, 52
14, 20160, Note_on_c, 12, 58, 52
14, 20219, Note_on_c, 12, 50, 0
14, 20219, Note_on_c, 12, 58, 0
14, 20220, Note_on_c, 12, 53, 52
14, 20279, Note_on_c, 12, 53, 0
14, 20280, Note_on_c, 12, 58, 52
14, 20280, Note_on_c, 12, 50, 52
14, 20339, Note_on_c, 12, 58, 0
14, 20339, Note_on_c, 12, 50, 0
14, 20340, Note_on_c, 12, 53, 52
14, 20399, Note_on_c, 12, 53, 0
14, 20400, Note_on_c, 12, 58, 52
14, 20400, Note_on_c, 12, 50, 52
14, 20459, Note_on_c, 12, 58, 0
14, 20459, Note_on_c, 12, 50, 0
14, 20460, Note_on_c, 12, 53, 52
14, 20519, Note_on_c, 12, 53, 0
14, 20520, Note_on_c, 12, 50, 52
14, 20520, Note_on_c, 12, 58, 52
14, 20579, Note_on_c, 12, 50, 0
14, 20579, Note_on_c, 12, 58, 0
14, 20580, Note_on_c, 12, 53, 52
14, 20639, Note_on_c, 12, 53, 0
14, 20640, Note_on_c, 12, 58, 52
14, 20640, Note_on_c, 12, 50, 52
14, 20699, Note_on_c, 12, 58, 0
14, 20699, Note_on_c, 12, 50, 0
14, 20700, Note_on_c, 12, 53, 52
14, 20759, Note_on_c, 12, 53, 0
14, 20760, Note_on_c, 12, 58, 52
14, 20760, Note_on_c, 12, 50, 52
14, 20819, Note_on_c, 12, 58, 0
14, 20819, Note_on_c, 12, 50, 0
14, 20820, Note_on_c, 12, 53, 52
14, 20873, Note_on_c, 12, 53, 0
14, 20880, Note_on_c, 12, 48, 52
14, 20880, Note_on_c, 12, 60, 52
14, 20939, Note_on_c, 12, 48, 0
14, 20939, Note_on_c, 12, 60, 0
14, 20940, Note_on_c, 12, 53, 52
14, 20999, Note_on_c, 12, 53, 0
14, 21000, Note_on_c, 12, 60, 52
14, 21000, Note_on_c, 12, 48, 52
14, 21059, Note_on_c, 12, 60, 0
14, 21059, Note_on_c, 12, 48, 0
14, 21060, Note_on_c, 12, 53, 52
14, 21119, Note_on_c, 12, 53, 0
14, 21120, Note_on_c, 12, 60, 52
14, 21120, Note_on_c, 12, 48, 52
14, 21179, Note_on_c, 12, 60, 0
14, 21179, Note_on_c, 12, 48, 0
14, 21180, Note_on_c, 12, 53, 52
14, 21239, Note_on_c, 12, 53, 0
14, 21240, Note_on_c, 12, 48, 52
14, 21240, Note_on_c, 12, 60, 52
14, 21299, Note_on_c, 12, 48, 0
14, 21299, Note_on_c, 12, 60, 0
14, 21300, Note_on_c, 12, 53, 52
14, 21359, Note_on_c, 12, 53, 0
14, 21360, Note_on_c, 12, 60, 52
14, 21360, Note_on_c, 12, 48, 52
14, 21419, Note_on_c, 12, 60, 0
14, 21419, Note_on_c, 12, 48, 0
14, 21420, Note_on_c, 12, 53, 52
14, 21479, Note_on_c, 12, 53, 0
14, 21480, Note_on_c, 12, 60, 52
14, 21480, Note_on_c, 12, 48, 52
14, 21539, Note_on_c, 12, 60, 0
14, 21539, Note_on_c, 12, 48, 0
14, 21540, Note_on_c, 12, 53, 52
14, 21593, Note_on_c, 12, 53, 0
14, 21600, Note_on_c, 12, 50, 52
14, 21600, Note_on_c, 12, 58, 52
14, 21659, Note_on_c, 12, 50, 0
14, 21659, Note_on_c, 12, 58, 0
14, 21660, Note_on_c, 12, 53, 53
14, 21719, Note_on_c, 12, 53, 0
14, 21720, Note_on_c, 12, 58, 54
14, 21720, Note_on_c, 12, 50, 54
14, 21779, Note_on_c, 12, 58, 0
14, 21779, Note_on_c, 12, 50, 0
14, 21780, Note_on_c, 12, 53, 56
14, 21839, Note_on_c, 12, 53, 0
14, 21840, Note_on_c, 12, 58, 57
14, 21840, Note_on_c, 12, 50, 57
14, 21899, Note_on_c, 12, 58, 0
14, 21899, Note_on_c, 12, 50, 0
14, 21900, Note_on_c, 12, 53, 58
14, 21959, Note_on_c, 12, 53, 0
14, 21960, Note_on_c, 12, 50, 60
14, 21960, Note_on_c, 12, 58, 60
14, 22019, Note_on_c, 12, 50, 0
14, 22019, Note_on_c, 12, 58, 0
14, 22020, Note_on_c, 12, 53, 61
14, 22079, Note_on_c, 12, 53, 0
14, 22080, Note_on_c, 12, 50, 62
14, 22080, Note_on_c, 12, 58, 62
14, 22139, Note_on_c, 12, 50, 0
14, 22139, Note_on_c, 12, 58, 0
14, 22140, Note_on_c, 12, 53, 64
14, 22199, Note_on_c, 12, 53, 0
14, 22200, Note_on_c, 12, 58, 65
14, 22200, Note_on_c, 12, 50, 65
14, 22259, Note_on_c, 12, 58, 0
14, 22259, Note_on_c, 12, 50, 0
14, 22260, Note_on_c, 12, 53, 66
14, 22313, Note_on_c, 12, 53, 0
14, 22320, Note_on_c, 12, 51, 68
14, 22320, Note_on_c, 12, 57, 68
14, 22379, Note_on_c, 12, 51, 0
14, 22379, Note_on_c, 12, 57, 0
14, 22380, Note_on_c, 12, 53, 67
14, 22439, Note_on_c, 12, 53, 0
14, 22440, Note_on_c, 12, 57, 66
14, 22440, Note_on_c, 12, 51, 66
14, 22499, Note_on_c, 12, 57, 0
14, 22499, Note_on_c, 12, 51, 0
14, 22500, Note_on_c, 12, 53, 64
14, 22559, Note_on_c, 12, 53, 0
14, 22560, Note_on_c, 12, 50, 63
14, 22560, Note_on_c, 12, 58, 63
14, 22619, Note_on_c, 12, 50, 0
14, 22619, Note_on_c, 12, 58, 0
14, 22620, Note_on_c, 12, 53, 62
14, 22679, Note_on_c, 12, 53, 0
14, 22680, Note_on_c, 12, 48, 60
14, 22680, Note_on_c, 12, 60, 60
14, 22739, Note_on_c, 12, 48, 0
14, 22739, Note_on_c, 12, 60, 0
14, 22740, Note_on_c, 12, 53, 59
14, 22799, Note_on_c, 12, 53, 0
14, 22800, Note_on_c, 12, 57, 58
14, 22800, Note_on_c, 12, 48, 58
14, 22859, Note_on_c, 12, 57, 0
14, 22859, Note_on_c, 12, 48, 0
14, 22860, Note_on_c, 12, 53, 56
14, 22919, Note_on_c, 12, 53, 0
14, 22920, Note_on_c, 12, 57, 55
14, 22920, Note_on_c, 12, 48, 55
14, 22979, Note_on_c, 12, 57, 0
14, 22979, Note_on_c, 12, 48, 0
14, 22980, Note_on_c, 12, 53, 54
14, 23033, Note_on_c, 12, 53, 0
14, 23040, Note_on_c, 12, 58, 52
14, 23519, Note_on_c, 12, 58, 0
14, 23520, Note_on_c, 12, 63, 60
14, 23639, Note_on_c, 12, 63, 0
14, 23640, Note_on_c, 12, 62, 52
14, 23749, Note_on_c, 12, 62, 0
14, 23760, Note_on_c, 12, 58, 52
14, 23879, Note_on_c, 12, 58, 0
14, 23880, Note_on_c, 12, 63, 60
14, 23999, Note_on_c, 12, 63, 0
14, 24000, Note_on_c, 12, 62, 52
14, 24109, Note_on_c, 12, 62, 0
14, 24120, Note_on_c, 12, 58, 52
14, 24239, Note_on_c, 12, 58, 0
14, 24240, Note_on_c, 12, 63, 60
14, 24359, Note_on_c, 12, 63, 0
14, 24360, Note_on_c, 12, 62, 52
14, 24469, Note_on_c, 12, 62, 0
14, 24480, Note_on_c, 12, 58, 52
14, 24719, Note_on_c, 12, 58, 0
14, 24840, Note_on_c, 12, 58, 52
14, 25079, Note_on_c, 12, 58, 0
14, 25200, Note_on_c, 12, 58, 52
14, 25439, Note_on_c, 12, 58, 0
14, 25560, Note_on_c, 12, 53, 44
14, 25560, Note_on_c, 12, 50, 44
14, 25613, Note_on_c, 12, 53, 0
14, 25613, Note_on_c, 12, 50, 0
14, 25620, Note_on_c, 12, 53, 44
14, 25620, Note_on_c, 12, 50, 44
14, 25673, Note_on_c, 12, 53, 0
14, 25673, Note_on_c, 12, 50, 0
14, 25680, Note_on_c, 12, 50, 44
14, 25680, Note_on_c, 12, 53, 44
14, 25733, Note_on_c, 12, 50, 0
14, 25733, Note_on_c, 12, 53, 0
14, 25740, Note_on_c, 12, 50, 44
14, 25740, Note_on_c, 12, 53, 44
14, 25793, Note_on_c, 12, 50, 0
14, 25793, Note_on_c, 12, 53, 0
14, 25800, Note_on_c, 12, 53, 44
14, 25800, Note_on_c, 12, 50, 44
14, 25853, Note_on_c, 12, 53, 0
14, 25853, Note_on_c, 12, 50, 0
14, 25860, Note_on_c, 12, 50, 44
14, 25860, Note_on_c, 12, 53, 44
14, 25913, Note_on_c, 12, 50, 0
14, 25913, Note_on_c, 12, 53, 0
14, 25920, Note_on_c, 12, 53, 44
14, 25920, Note_on_c, 12, 50, 44
14, 26159, Note_on_c, 12, 53, 0
14, 26159, Note_on_c, 12, 50, 0
14, 26280, Note_on_c, 12, 53, 44
14, 26280, Note_on_c, 12, 57, 44
14, 26333, Note_on_c, 12, 53, 0
14, 26333, Note_on_c, 12, 57, 0
14, 26340, Note_on_c, 12, 53, 44
14, 26340, Note_on_c, 12, 57, 44
14, 26393, Note_on_c, 12, 53, 0
14, 26393, Note_on_c, 12, 57, 0
14, 26400, Note_on_c, 12, 57, 44
14, 26400, Note_on_c, 12, 53, 44
14, 26453, Note_on_c, 12, 57, 0
14, 26453, Note_on_c, 12, 53, 0
14, 26460, Note_on_c, 12, 57, 44
14, 26460, Note_on_c, 12, 53, 44
14, 26513, Note_on_c, 12, 57, 0
14, 26513, Note_on_c, 12, 53, 0
14, 26520, Note_on_c, 12, 53, 44
14, 26520, Note_on_c, 12, 57, 44
14, 26573, Note_on_c, 12, 53, 0
14, 26573, Note_on_c, 12, 57, 0
14, 26580, Note_on_c, 12, 57, 44
14, 26580, Note_on_c, 12, 53, 44
14, 26633, Note_on_c, 12, 57, 0
14, 26633, Note_on_c, 12, 53, 0
14, 26640, Note_on_c, 12, 53, 44
14, 26640, Note_on_c, 12, 58, 44
14, 26879, Note_on_c, 12, 53, 0
14, 26879, Note_on_c, 12, 58, 0
14, 27000, Note_on_c, 12, 50, 44
14, 27053, Note_on_c, 12, 50, 0
14, 27060, Note_on_c, 12, 50, 44
14, 27113, Note_on_c, 12, 50, 0
14, 27120, Note_on_c, 12, 50, 44
14, 27173, Note_on_c, 12, 50, 0
14, 27180, Note_on_c, 12, 50, 44
14, 27233, Note_on_c, 12, 50, 0
14, 27240, Note_on_c, 12, 50, 44
14, 27293, Note_on_c, 12, 50, 0
14, 27300, Note_on_c, 12, 50, 44
14, 27353, Note_on_c, 12, 50, 0
14, 27360, Note_on_c, 12, 53, 44
14, 27599, Note_on_c, 12, 53, 0
14, 28440, Note_on_c, 12, 53, 44
14, 28493, Note_on_c, 12, 53, 0
14, 28500, Note_on_c, 12, 53, 44
14, 28553, Note_on_c, 12, 53, 0
14, 28560, Note_on_c, 12, 53, 44
14, 28613, Note_on_c, 12, 53, 0
14, 28620, Note_on_c, 12, 53, 44
14, 28673, Note_on_c, 12, 53, 0
14, 28680, Note_on_c, 12, 53, 44
14, 28733, Note_on_c, 12, 53, 0
14, 28740, Note_on_c, 12, 53, 44
14, 28793, Note_on_c, 12, 53, 0
14, 28800, Note_on_c, 12, 58, 52
14, 28859, Note_on_c, 12, 58, 0
14, 28860, Note_on_c, 12, 62, 52
14, 28919, Note_on_c, 12, 62, 0
14, 28920, Note_on_c, 12, 65, 52
14, 28979, Note_on_c, 12, 65, 0
14, 28980, Note_on_c, 12, 62, 52
14, 29039, Note_on_c, 12, 62, 0
14, 29040, Note_on_c, 12, 65, 52
14, 29099, Note_on_c, 12, 65, 0
14, 29100, Note_on_c, 12, 62, 52
14, 29159, Note_on_c, 12, 62, 0
14, 29160, Note_on_c, 12, 67, 52
14, 29219, Note_on_c, 12, 67, 0
14, 29220, Note_on_c, 12, 63, 52
14, 29279, Note_on_c, 12, 63, 0
14, 29280, Note_on_c, 12, 65, 52
14, 29339, Note_on_c, 12, 65, 0
14, 29340, Note_on_c, 12, 62, 52
14, 29399, Note_on_c, 12, 62, 0
14, 29400, Note_on_c, 12, 65, 52
14, 29459, Note_on_c, 12, 65, 0
14, 29460, Note_on_c, 12, 62, 52
14, 29519, Note_on_c, 12, 62, 0
14, 29520, Note_on_c, 12, 63, 52
14, 29579, Note_on_c, 12, 63, 0
14, 29580, Note_on_c, 12, 60, 52
14, 29639, Note_on_c, 12, 60, 0
14, 29640, Note_on_c, 12, 62, 52
14, 29699, Note_on_c, 12, 62, 0
14, 29700, Note_on_c, 12, 58, 52
14, 29759, Note_on_c, 12, 58, 0
14, 29760, Note_on_c, 12, 62, 52
14, 29819, Note_on_c, 12, 62, 0
14, 29820, Note_on_c, 12, 58, 52
14, 29879, Note_on_c, 12, 58, 0
14, 29880, Note_on_c, 12, 60, 52
14, 29939, Note_on_c, 12, 60, 0
14, 29940, Note_on_c, 12, 57, 52
14, 29999, Note_on_c, 12, 57, 0
14, 30000, Note_on_c, 12, 62, 52
14, 30059, Note_on_c, 12, 62, 0
14, 30060, Note_on_c, 12, 58, 52
14, 30119, Note_on_c, 12, 58, 0
14, 30120, Note_on_c, 12, 62, 52
14, 30179, Note_on_c, 12, 62, 0
14, 30180, Note_on_c, 12, 58, 52
14, 30233, Note_on_c, 12, 58, 0
14, 30240, Note_on_c, 12, 62, 52
14, 30299, Note_on_c, 12, 62, 0
14, 30300, Note_on_c, 12, 58, 52
14, 30359, Note_on_c, 12, 58, 0
14, 30360, Note_on_c, 12, 65, 52
14, 30419, Note_on_c, 12, 65, 0
14, 30420, Note_on_c, 12, 62, 52
14, 30479, Note_on_c, 12, 62, 0
14, 30480, Note_on_c, 12, 65, 52
14, 30539, Note_on_c, 12, 65, 0
14, 30540, Note_on_c, 12, 62, 52
14, 30599, Note_on_c, 12, 62, 0
14, 30600, Note_on_c, 12, 67, 52
14, 30659, Note_on_c, 12, 67, 0
14, 30660, Note_on_c, 12, 63, 52
14, 30719, Note_on_c, 12, 63, 0
14, 30720, Note_on_c, 12, 65, 52
14, 30779, Note_on_c, 12, 65, 0
14, 30780, Note_on_c, 12, 62, 52
14, 30839, Note_on_c, 12, 62, 0
14, 30840, Note_on_c, 12, 65, 52
14, 30899, Note_on_c, 12, 65, 0
14, 30900, Note_on_c, 12, 62, 52
14, 30959, Note_on_c, 12, 62, 0
14, 30960, Note_on_c, 12, 63, 52
14, 31019, Note_on_c, 12, 63, 0
14, 31020, Note_on_c, 12, 60, 52
14, 31079, Note_on_c, 12, 60, 0
14, 31080, Note_on_c, 12, 62, 52
14, 31139, Note_on_c, 12, 62, 0
14, 31140, Note_on_c, 12, 58, 52
14, 31199, Note_on_c, 12, 58, 0
14, 31200, Note_on_c, 12, 62, 52
14, 31259, Note_on_c, 12, 62, 0
14, 31260, Note_on_c, 12, 58, 52
14, 31319, Note_on_c, 12, 58, 0
14, 31320, Note_on_c, 12, 60, 52
14, 31379, Note_on_c, 12, 60, 0
14, 31380, Note_on_c, 12, 57, 52
14, 31439, Note_on_c, 12, 57, 0
14, 31440, Note_on_c, 12, 58, 52
14, 31499, Note_on_c, 12, 58, 0
14, 31500, Note_on_c, 12, 55, 52
14, 31559, Note_on_c, 12, 55, 0
14, 31560, Note_on_c, 12, 53, 52
14, 31619, Note_on_c, 12, 53, 0
14, 31620, Note_on_c, 12, 57, 52
14, 31679, Note_on_c, 12, 57, 0
14, 31680, Note_on_c, 12, 52, 52
14, 31739, Note_on_c, 12, 52, 0
14, 31740, Note_on_c, 12, 55, 52
14, 31793, Note_on_c, 12, 55, 0
14, 31800, Note_on_c, 12, 70, 52
14, 31859, Note_on_c, 12, 70, 0
14, 31860, Note_on_c, 12, 67, 52
14, 31919, Note_on_c, 12, 67, 0
14, 31920, Note_on_c, 12, 70, 52
14, 31979, Note_on_c, 12, 70, 0
14, 31980, Note_on_c, 12, 67, 52
14, 32039, Note_on_c, 12, 67, 0
14, 32040, Note_on_c, 12, 72, 52
14, 32099, Note_on_c, 12, 72, 0
14, 32100, Note_on_c, 12, 69, 52
14, 32159, Note_on_c, 12, 69, 0
14, 32160, Note_on_c, 12, 70, 52
14, 32219, Note_on_c, 12, 70, 0
14, 32220, Note_on_c, 12, 67, 52
14, 32279, Note_on_c, 12, 67, 0
14, 32280, Note_on_c, 12, 70, 52
14, 32339, Note_on_c, 12, 70, 0
14, 32340, Note_on_c, 12, 67, 52
14, 32399, Note_on_c, 12, 67, 0
14, 32400, Note_on_c, 12, 69, 52
14, 32459, Note_on_c, 12, 69, 0
14, 32460, Note_on_c, 12, 65, 52
14, 32519, Note_on_c, 12, 65, 0
14, 32520, Note_on_c, 12, 67, 52
14, 32579, Note_on_c, 12, 67, 0
14, 32580, Note_on_c, 12, 64, 52
14, 32639, Note_on_c, 12, 64, 0
14, 32640, Note_on_c, 12, 67, 52
14, 32699, Note_on_c, 12, 67, 0
14, 32700, Note_on_c, 12, 64, 52
14, 32759, Note_on_c, 12, 64, 0
14, 32760, Note_on_c, 12, 65, 52
14, 32819, Note_on_c, 12, 65, 0
14, 32820, Note_on_c, 12, 62, 52
14, 32879, Note_on_c, 12, 62, 0
14, 32880, Note_on_c, 12, 64, 52
14, 32939, Note_on_c, 12, 64, 0
14, 32940, Note_on_c, 12, 60, 52
14, 32999, Note_on_c, 12, 60, 0
14, 33000, Note_on_c, 12, 64, 52
14, 33059, Note_on_c, 12, 64, 0
14, 33060, Note_on_c, 12, 60, 52
14, 33113, Note_on_c, 12, 60, 0
14, 33120, Note_on_c, 12, 64, 52
14, 33179, Note_on_c, 12, 64, 0
14, 33180, Note_on_c, 12, 60, 52
14, 33239, Note_on_c, 12, 60, 0
14, 33240, Note_on_c, 12, 70, 52
14, 33299, Note_on_c, 12, 70, 0
14, 33300, Note_on_c, 12, 67, 52
14, 33359, Note_on_c, 12, 67, 0
14, 33360, Note_on_c, 12, 70, 52
14, 33419, Note_on_c, 12, 70, 0
14, 33420, Note_on_c, 12, 67, 52
14, 33479, Note_on_c, 12, 67, 0
14, 33480, Note_on_c, 12, 72, 52
14, 33539, Note_on_c, 12, 72, 0
14, 33540, Note_on_c, 12, 69, 52
14, 33599, Note_on_c, 12, 69, 0
14, 33600, Note_on_c, 12, 70, 52
14, 33659, Note_on_c, 12, 70, 0
14, 33660, Note_on_c, 12, 67, 52
14, 33719, Note_on_c, 12, 67, 0
14, 33720, Note_on_c, 12, 69, 52
14, 33779, Note_on_c, 12, 69, 0
14, 33780, Note_on_c, 12, 65, 52
14, 33839, Note_on_c, 12, 65, 0
14, 33840, Note_on_c, 12, 67, 52
14, 33899, Note_on_c, 12, 67, 0
14, 33900, Note_on_c, 12, 64, 52
14, 33959, Note_on_c, 12, 64, 0
14, 33960, Note_on_c, 12, 65, 52
14, 34019, Note_on_c, 12, 65, 0
14, 34020, Note_on_c, 12, 62, 52
14, 34079, Note_on_c, 12, 62, 0
14, 34080, Note_on_c, 12, 64, 52
14, 34139, Note_on_c, 12, 64, 0
14, 34140, Note_on_c, 12, 60, 52
14, 34199, Note_on_c, 12, 60, 0
14, 34200, Note_on_c, 12, 62, 52
14, 34259, Note_on_c, 12, 62, 0
14, 34260, Note_on_c, 12, 58, 52
14, 34319, Note_on_c, 12, 58, 0
14, 34320, Note_on_c, 12, 60, 52
14, 34379, Note_on_c, 12, 60, 0
14, 34380, Note_on_c, 12, 57, 52
14, 34439, Note_on_c, 12, 57, 0
14, 34440, Note_on_c, 12, 58, 52
14, 34499, Note_on_c, 12, 58, 0
14, 34500, Note_on_c, 12, 55, 52
14, 34553, Note_on_c, 12, 55, 0
14, 34560, Note_on_c, 12, 53, 52
14, 34619, Note_on_c, 12, 53, 0
14, 34620, Note_on_c, 12, 69, 52
14, 34679, Note_on_c, 12, 69, 0
14, 34680, Note_on_c, 12, 72, 52
14, 34739, Note_on_c, 12, 72, 0
14, 34740, Note_on_c, 12, 69, 52
14, 34799, Note_on_c, 12, 69, 0
14, 34800, Note_on_c, 12, 72, 52
14, 34859, Note_on_c, 12, 72, 0
14, 34860, Note_on_c, 12, 69, 52
14, 34919, Note_on_c, 12, 69, 0
14, 34920, Note_on_c, 12, 74, 52
14, 34979, Note_on_c, 12, 74, 0
14, 34980, Note_on_c, 12, 70, 52
14, 35039, Note_on_c, 12, 70, 0
14, 35040, Note_on_c, 12, 72, 52
14, 35099, Note_on_c, 12, 72, 0
14, 35100, Note_on_c, 12, 69, 52
14, 35159, Note_on_c, 12, 69, 0
14, 35160, Note_on_c, 12, 72, 52
14, 35219, Note_on_c, 12, 72, 0
14, 35220, Note_on_c, 12, 69, 52
14, 35279, Note_on_c, 12, 69, 0
14, 35280, Note_on_c, 12, 70, 52
14, 35339, Note_on_c, 12, 70, 0
14, 35340, Note_on_c, 12, 67, 52
14, 35399, Note_on_c, 12, 67, 0
14, 35400, Note_on_c, 12, 69, 52
14, 35459, Note_on_c, 12, 69, 0
14, 35460, Note_on_c, 12, 65, 52
14, 35519, Note_on_c, 12, 65, 0
14, 35520, Note_on_c, 12, 69, 52
14, 35579, Note_on_c, 12, 69, 0
14, 35580, Note_on_c, 12, 65, 52
14, 35639, Note_on_c, 12, 65, 0
14, 35640, Note_on_c, 12, 67, 52
14, 35699, Note_on_c, 12, 67, 0
14, 35700, Note_on_c, 12, 64, 52
14, 35759, Note_on_c, 12, 64, 0
14, 35760, Note_on_c, 12, 65, 52
14, 35819, Note_on_c, 12, 65, 0
14, 35820, Note_on_c, 12, 62, 52
14, 35879, Note_on_c, 12, 62, 0
14, 35880, Note_on_c, 12, 64, 52
14, 35939, Note_on_c, 12, 64, 0
14, 35940, Note_on_c, 12, 60, 52
14, 35993, Note_on_c, 12, 60, 0
14, 36000, Note_on_c, 12, 62, 52
14, 36059, Note_on_c, 12, 62, 0
14, 36060, Note_on_c, 12, 59, 52
14, 36119, Note_on_c, 12, 59, 0
14, 36120, Note_on_c, 12, 62, 52
14, 36179, Note_on_c, 12, 62, 0
14, 36180, Note_on_c, 12, 59, 52
14, 36239, Note_on_c, 12, 59, 0
14, 36240, Note_on_c, 12, 62, 52
14, 36299, Note_on_c, 12, 62, 0
14, 36300, Note_on_c, 12, 59, 52
14, 36359, Note_on_c, 12, 59, 0
14, 36360, Note_on_c, 12, 64, 52
14, 36419, Note_on_c, 12, 64, 0
14, 36420, Note_on_c, 12, 60, 52
14, 36479, Note_on_c, 12, 60, 0
14, 36480, Note_on_c, 12, 62, 52
14, 36539, Note_on_c, 12, 62, 0
14, 36540, Note_on_c, 12, 59, 52
14, 36599, Note_on_c, 12, 59, 0
14, 36600, Note_on_c, 12, 62, 52
14, 36659, Note_on_c, 12, 62, 0
14, 36660, Note_on_c, 12, 59, 52
14, 36719, Note_on_c, 12, 59, 0
14, 36720, Note_on_c, 12, 60, 52
14, 36779, Note_on_c, 12, 60, 0
14, 36780, Note_on_c, 12, 57, 52
14, 36839, Note_on_c, 12, 57, 0
14, 36840, Note_on_c, 12, 59, 52
14, 36899, Note_on_c, 12, 59, 0
14, 36900, Note_on_c, 12, 55, 52
14, 36959, Note_on_c, 12, 55, 0
14, 36960, Note_on_c, 12, 71, 52
14, 37019, Note_on_c, 12, 71, 0
14, 37020, Note_on_c, 12, 67, 52
14, 37079, Note_on_c, 12, 67, 0
14, 37080, Note_on_c, 12, 69, 52
14, 37139, Note_on_c, 12, 69, 0
14, 37140, Note_on_c, 12, 65, 52
14, 37199, Note_on_c, 12, 65, 0
14, 37200, Note_on_c, 12, 67, 52
14, 37259, Note_on_c, 12, 67, 0
14, 37260, Note_on_c, 12, 64, 52
14, 37319, Note_on_c, 12, 64, 0
14, 37320, Note_on_c, 12, 65, 52
14, 37379, Note_on_c, 12, 65, 0
14, 37380, Note_on_c, 12, 62, 52
14, 37433, Note_on_c, 12, 62, 0
14, 37440, Note_on_c, 12, 64, 52
14, 37499, Note_on_c, 12, 64, 0
14, 37500, Note_on_c, 12, 55, 52
14, 37559, Note_on_c, 12, 55, 0
14, 37560, Note_on_c, 12, 52, 52
14, 37619, Note_on_c, 12, 52, 0
14, 37620, Note_on_c, 12, 55, 52
14, 37679, Note_on_c, 12, 55, 0
14, 37680, Note_on_c, 12, 52, 52
14, 37739, Note_on_c, 12, 52, 0
14, 37740, Note_on_c, 12, 55, 52
14, 37799, Note_on_c, 12, 55, 0
14, 37800, Note_on_c, 12, 52, 52
14, 37859, Note_on_c, 12, 52, 0
14, 37860, Note_on_c, 12, 55, 52
14, 37919, Note_on_c, 12, 55, 0
14, 37920, Note_on_c, 12, 52, 52
14, 37979, Note_on_c, 12, 52, 0
14, 37980, Note_on_c, 12, 55, 52
14, 38039, Note_on_c, 12, 55, 0
14, 38040, Note_on_c, 12, 52, 52
14, 38099, Note_on_c, 12, 52, 0
14, 38100, Note_on_c, 12, 55, 52
14, 38153, Note_on_c, 12, 55, 0
14, 38160, Note_on_c, 12, 53, 52
14, 38219, Note_on_c, 12, 53, 0
14, 38220, Note_on_c, 12, 57, 52
14, 38279, Note_on_c, 12, 57, 0
14, 38280, Note_on_c, 12, 53, 52
14, 38339, Note_on_c, 12, 53, 0
14, 38340, Note_on_c, 12, 57, 52
14, 38399, Note_on_c, 12, 57, 0
14, 38400, Note_on_c, 12, 53, 52
14, 38459, Note_on_c, 12, 53, 0
14, 38460, Note_on_c, 12, 57, 52
14, 38519, Note_on_c, 12, 57, 0
14, 38520, Note_on_c, 12, 53, 52
14, 38579, Note_on_c, 12, 53, 0
14, 38580, Note_on_c, 12, 57, 52
14, 38639, Note_on_c, 12, 57, 0
14, 38640, Note_on_c, 12, 53, 52
14, 38699, Note_on_c, 12, 53, 0
14, 38700, Note_on_c, 12, 57, 52
14, 38759, Note_on_c, 12, 57, 0
14, 38760, Note_on_c, 12, 53, 52
14, 38819, Note_on_c, 12, 53, 0
14, 38820, Note_on_c, 12, 57, 52
14, 38873, Note_on_c, 12, 57, 0
14, 38880, Note_on_c, 12, 55, 52
14, 38939, Note_on_c, 12, 55, 0
14, 38940, Note_on_c, 12, 58, 52
14, 38999, Note_on_c, 12, 58, 0
14, 39000, Note_on_c, 12, 55, 52
14, 39059, Note_on_c, 12, 55, 0
14, 39060, Note_on_c, 12, 58, 52
14, 39119, Note_on_c, 12, 58, 0
14, 39120, Note_on_c, 12, 55, 52
14, 39179, Note_on_c, 12, 55, 0
14, 39180, Note_on_c, 12, 58, 52
14, 39239, Note_on_c, 12, 58, 0
14, 39240, Note_on_c, 12, 55, 52
14, 39299, Note_on_c, 12, 55, 0
14, 39300, Note_on_c, 12, 58, 52
14, 39359, Note_on_c, 12, 58, 0
14, 39360, Note_on_c, 12, 55, 52
14, 39419, Note_on_c, 12, 55, 0
14, 39420, Note_on_c, 12, 58, 52
14, 39479, Note_on_c, 12, 58, 0
14, 39480, Note_on_c, 12, 55, 52
14, 39539, Note_on_c, 12, 55, 0
14, 39540, Note_on_c, 12, 58, 52
14, 39593, Note_on_c, 12, 58, 0
14, 39600, Note_on_c, 12, 53, 52
14, 39659, Note_on_c, 12, 53, 0
14, 39660, Note_on_c, 12, 57, 52
14, 39719, Note_on_c, 12, 57, 0
14, 39720, Note_on_c, 12, 53, 52
14, 39779, Note_on_c, 12, 53, 0
14, 39780, Note_on_c, 12, 57, 52
14, 39839, Note_on_c, 12, 57, 0
14, 39840, Note_on_c, 12, 53, 52
14, 39899, Note_on_c, 12, 53, 0
14, 39900, Note_on_c, 12, 57, 52
14, 39959, Note_on_c, 12, 57, 0
14, 39960, Note_on_c, 12, 53, 52
14, 40019, Note_on_c, 12, 53, 0
14, 40020, Note_on_c, 12, 57, 52
14, 40079, Note_on_c, 12, 57, 0
14, 40080, Note_on_c, 12, 53, 52
14, 40139, Note_on_c, 12, 53, 0
14, 40140, Note_on_c, 12, 57, 52
14, 40199, Note_on_c, 12, 57, 0
14, 40200, Note_on_c, 12, 53, 52
14, 40259, Note_on_c, 12, 53, 0
14, 40260, Note_on_c, 12, 57, 52
14, 40313, Note_on_c, 12, 57, 0
14, 40320, Note_on_c, 12, 52, 52
14, 40379, Note_on_c, 12, 52, 0
14, 40380, Note_on_c, 12, 55, 53
14, 40439, Note_on_c, 12, 55, 0
14, 40440, Note_on_c, 12, 52, 54
14, 40499, Note_on_c, 12, 52, 0
14, 40500, Note_on_c, 12, 55, 56
14, 40559, Note_on_c, 12, 55, 0
14, 40560, Note_on_c, 12, 52, 57
14, 40619, Note_on_c, 12, 52, 0
14, 40620, Note_on_c, 12, 55, 58
14, 40679, Note_on_c, 12, 55, 0
14, 40680, Note_on_c, 12, 52, 60
14, 40739, Note_on_c, 12, 52, 0
14, 40740, Note_on_c, 12, 55, 61
14, 40799, Note_on_c, 12, 55, 0
14, 40800, Note_on_c, 12, 52, 62
14, 40859, Note_on_c, 12, 52, 0
14, 40860, Note_on_c, 12, 55, 64
14, 40919, Note_on_c, 12, 55, 0
14, 40920, Note_on_c, 12, 52, 65
14, 40979, Note_on_c, 12, 52, 0
14, 40980, Note_on_c, 12, 55, 66
14, 41033, Note_on_c, 12, 55, 0
14, 41040, Note_on_c, 12, 52, 68
14, 41099, Note_on_c, 12, 52, 0
14, 41100, Note_on_c, 12, 55, 67
14, 41159, Note_on_c, 12, 55, 0
14, 41160, Note_on_c, 12, 52, 66
14, 41219, Note_on_c, 12, 52, 0
14, 41220, Note_on_c, 12, 55, 64
14, 41279, Note_on_c, 12, 55, 0
14, 41280, Note_on_c, 12, 52, 63
14, 41339, Note_on_c, 12, 52, 0
14, 41340, Note_on_c, 12, 55, 62
14, 41399, Note_on_c, 12, 55, 0
14, 41400, Note_on_c, 12, 52, 60
14, 41459, Note_on_c, 12, 52, 0
14, 41460, Note_on_c, 12, 55, 59
14, 41519, Note_on_c, 12, 55, 0
14, 41520, Note_on_c, 12, 52, 58
14, 41579, Note_on_c, 12, 52, 0
14, 41580, Note_on_c, 12, 55, 56
14, 41639, Note_on_c, 12, 55, 0
14, 41640, Note_on_c, 12, 52, 55
14, 41699, Note_on_c, 12, 52, 0
14, 41700, Note_on_c, 12, 55, 54
14, 41753, Note_on_c, 12, 55, 0
14, 41760, Note_on_c, 12, 57, 52
14, 41999, Note_on_c, 12, 57, 0
14, 42118, Program_c, 12, 45
14, 42120, Note_on_c, 12, 58, 48
14, 42359, Note_on_c, 12, 58, 0
14, 42480, Note_on_c, 12, 57, 48
14, 42719, Note_on_c, 12, 57, 0
14, 42840, Note_on_c, 12, 58, 48
14, 43079, Note_on_c, 12, 58, 0
14, 43198, Program_c, 12, 48
14, 43200, Note_on_c, 12, 52, 52
14, 43259, Note_on_c, 12, 52, 0
14, 43260, Note_on_c, 12, 55, 53
14, 43319, Note_on_c, 12, 55, 0
14, 43320, Note_on_c, 12, 52, 54
14, 43379, Note_on_c, 12, 52, 0
14, 43380, Note_on_c, 12, 55, 56
14, 43439, Note_on_c, 12, 55, 0
14, 43440, Note_on_c, 12, 52, 57
14, 43499, Note_on_c, 12, 52, 0
14, 43500, Note_on_c, 12, 55, 58
14, 43559, Note_on_c, 12, 55, 0
14, 43560, Note_on_c, 12, 52, 60
14, 43619, Note_on_c, 12, 52, 0
14, 43620, Note_on_c, 12, 55, 61
14, 43679, Note_on_c, 12, 55, 0
14, 43680, Note_on_c, 12, 52, 62
14, 43739, Note_on_c, 12, 52, 0
14, 43740, Note_on_c, 12, 55, 64
14, 43799, Note_on_c, 12, 55, 0
14, 43800, Note_on_c, 12, 52, 65
14, 43859, Note_on_c, 12, 52, 0
14, 43860, Note_on_c, 12, 55, 66
14, 43913, Note_on_c, 12, 55, 0
14, 43920, Note_on_c, 12, 52, 68
14, 43979, Note_on_c, 12, 52, 0
14, 43980, Note_on_c, 12, 55, 67
14, 44039, Note_on_c, 12, 55, 0
14, 44040, Note_on_c, 12, 52, 66
14, 44099, Note_on_c, 12, 52, 0
14, 44100, Note_on_c, 12, 55, 64
14, 44159, Note_on_c, 12, 55, 0
14, 44160, Note_on_c, 12, 52, 63
14, 44219, Note_on_c, 12, 52, 0
14, 44220, Note_on_c, 12, 55, 62
14, 44279, Note_on_c, 12, 55, 0
14, 44280, Note_on_c, 12, 52, 60
14, 44339, Note_on_c, 12, 52, 0
14, 44340, Note_on_c, 12, 55, 59
14, 44399, Note_on_c, 12, 55, 0
14, 44400, Note_on_c, 12, 52, 58
14, 44459, Note_on_c, 12, 52, 0
14, 44460, Note_on_c, 12, 55, 56
14, 44519, Note_on_c, 12, 55, 0
14, 44520, Note_on_c, 12, 52, 55
14, 44579, Note_on_c, 12, 52, 0
14, 44580, Note_on_c, 12, 55, 54
14, 44633, Note_on_c, 12, 55, 0
14, 44640, Note_on_c, 12, 57, 52
14, 44879, Note_on_c, 12, 57, 0
14, 44880, Program_c, 12, 45
14, 45000, Note_on_c, 12, 58, 48
14, 45239, Note_on_c, 12, 58, 0
14, 45360, Note_on_c, 12, 57, 48
14, 45599, Note_on_c, 12, 57, 0
14, 45720, Note_on_c, 12, 60, 48
14, 45959, Note_on_c, 12, 60, 0
14, 46080, Note_on_c, 12, 61, 48
14, 46319, Note_on_c, 12, 61, 0
14, 47160, Program_c, 12, 48
14, 47520, Note_on_c, 12, 57, 52
14, 47999, Note_on_c, 12, 57, 0
14, 48000, Note_on_c, 12, 55, 52
14, 48119, Note_on_c, 12, 55, 0
14, 48120, Note_on_c, 12, 57, 52
14, 48209, Note_on_c, 12, 57, 0
14, 48220, Note_on_c, 12, 60, 52
14, 48239, Note_on_c, 12, 60, 0
14, 48240, Note_on_c, 12, 59, 52
14, 48359, Note_on_c, 12, 59, 0
14, 48360, Note_on_c, 12, 57, 52
14, 48479, Note_on_c, 12, 57, 0
14, 48480, Note_on_c, 12, 59, 52
14, 48599, Note_on_c, 12, 59, 0
14, 48600, Note_on_c, 12, 60, 52
14, 48839, Note_on_c, 12, 60, 0
14, 48840, Note_on_c, 12, 55, 52
14, 48949, Note_on_c, 12, 55, 0
14, 48958, Control_c, 12, 11, 81
14, 48960, Note_on_c, 12, 57, 76
14, 49439, Note_on_c, 12, 57, 0
14, 49440, Note_on_c, 12, 55, 76
14, 49559, Note_on_c, 12, 55, 0
14, 49560, Note_on_c, 12, 57, 76
14, 49649, Note_on_c, 12, 57, 0
14, 49660, Note_on_c, 12, 60, 76
14, 49679, Note_on_c, 12, 60, 0
14, 49680, Note_on_c, 12, 59, 76
14, 49799, Note_on_c, 12, 59, 0
14, 49800, Note_on_c, 12, 57, 76
14, 49919, Note_on_c, 12, 57, 0
14, 49920, Note_on_c, 12, 59, 76
14, 50039, Note_on_c, 12, 59, 0
14, 50040, Control_c, 12, 11, 81
14, 50040, Note_on_c, 12, 60, 76
14, 50160, Control_c, 12, 11, 83
14, 50279, Note_on_c, 12, 60, 0
14, 50280, Note_on_c, 12, 55, 76
14, 50280, Control_c, 12, 11, 85
14, 50389, Note_on_c, 12, 55, 0
14, 50400, Control_c, 12, 11, 87
14, 50400, Note_on_c, 12, 57, 76
14, 50520, Control_c, 12, 11, 89
14, 50639, Note_on_c, 12, 57, 0
14, 50640, Control_c, 12, 11, 91
14, 50640, Note_on_c, 12, 53, 76
14, 50759, Note_on_c, 12, 53, 0
14, 50760, Control_c, 12, 11, 93
14, 50760, Note_on_c, 12, 48, 76
14, 50880, Control_c, 12, 11, 95
14, 50999, Note_on_c, 12, 48, 0
14, 51000, Note_on_c, 12, 52, 76
14, 51000, Control_c, 12, 11, 97
14, 51119, Note_on_c, 12, 52, 0
14, 51120, Note_on_c, 12, 53, 76
14, 51120, Control_c, 12, 11, 99
14, 51240, Control_c, 12, 11, 101
14, 51359, Note_on_c, 12, 53, 0
14, 51360, Control_c, 12, 11, 103
14, 51360, Note_on_c, 12, 57, 76
14, 51479, Note_on_c, 12, 57, 0
14, 51480, Control_c, 12, 11, 105
14, 51480, Note_on_c, 12, 60, 76
14, 51600, Control_c, 12, 11, 106
14, 51719, Note_on_c, 12, 60, 0
14, 51720, Note_on_c, 12, 55, 76
14, 51720, Control_c, 12, 11, 107
14, 51829, Note_on_c, 12, 55, 0
14, 51840, Note_on_c, 12, 57, 76
14, 51840, Control_c, 12, 11, 110
14, 51960, Control_c, 12, 11, 111
14, 52079, Note_on_c, 12, 57, 0
14, 52080, Note_on_c, 12, 53, 76
14, 52080, Control_c, 12, 11, 114
14, 52199, Note_on_c, 12, 53, 0
14, 52200, Control_c, 12, 11, 115
14, 52200, Note_on_c, 12, 48, 76
14, 52320, Control_c, 12, 11, 118
14, 52439, Note_on_c, 12, 48, 0
14, 52440, Control_c, 12, 11, 119
14, 52440, Note_on_c, 12, 52, 76
14, 52559, Note_on_c, 12, 52, 0
14, 52560, Control_c, 12, 11, 122
14, 52560, Note_on_c, 12, 53, 76
14, 52680, Control_c, 12, 11, 123
14, 52799, Note_on_c, 12, 53, 0
14, 52800, Note_on_c, 12, 57, 76
14, 52909, Note_on_c, 12, 57, 0
14, 52918, Control_c, 12, 11, 127
14, 52920, Note_on_c, 12, 64, 76
14, 52979, Note_on_c, 12, 64, 0
14, 52980, Note_on_c, 12, 60, 76
14, 53039, Note_on_c, 12, 60, 0
14, 53040, Note_on_c, 12, 64, 76
14, 53099, Note_on_c, 12, 64, 0
14, 53100, Note_on_c, 12, 60, 76
14, 53159, Note_on_c, 12, 60, 0
14, 53160, Note_on_c, 12, 64, 76
14, 53219, Note_on_c, 12, 64, 0
14, 53220, Note_on_c, 12, 60, 76
14, 53273, Note_on_c, 12, 60, 0
14, 53280, Note_on_c, 12, 65, 76
14, 53339, Note_on_c, 12, 65, 0
14, 53340, Note_on_c, 12, 60, 76
14, 53399, Note_on_c, 12, 60, 0
14, 53400, Note_on_c, 12, 65, 76
14, 53459, Note_on_c, 12, 65, 0
14, 53460, Note_on_c, 12, 60, 76
14, 53519, Note_on_c, 12, 60, 0
14, 53520, Note_on_c, 12, 65, 76
14, 53579, Note_on_c, 12, 65, 0
14, 53580, Note_on_c, 12, 60, 76
14, 53639, Note_on_c, 12, 60, 0
14, 53640, Note_on_c, 12, 65, 76
14, 53699, Note_on_c, 12, 65, 0
14, 53700, Note_on_c, 12, 60, 76
14, 53759, Note_on_c, 12, 60, 0
14, 53760, Note_on_c, 12, 65, 76
14, 53819, Note_on_c, 12, 65, 0
14, 53820, Note_on_c, 12, 60, 76
14, 53879, Note_on_c, 12, 60, 0
14, 53880, Note_on_c, 12, 65, 76
14, 53939, Note_on_c, 12, 65, 0
14, 53940, Note_on_c, 12, 60, 76
14, 53993, Note_on_c, 12, 60, 0
14, 54000, Note_on_c, 12, 65, 76
14, 54059, Note_on_c, 12, 65, 0
14, 54060, Note_on_c, 12, 60, 76
14, 54119, Note_on_c, 12, 60, 0
14, 54120, Note_on_c, 12, 65, 76
14, 54179, Note_on_c, 12, 65, 0
14, 54180, Note_on_c, 12, 60, 76
14, 54239, Note_on_c, 12, 60, 0
14, 54240, Note_on_c, 12, 65, 76
14, 54299, Note_on_c, 12, 65, 0
14, 54300, Note_on_c, 12, 60, 76
14, 54359, Note_on_c, 12, 60, 0
14, 54360, Note_on_c, 12, 65, 76
14, 54419, Note_on_c, 12, 65, 0
14, 54420, Note_on_c, 12, 60, 76
14, 54479, Note_on_c, 12, 60, 0
14, 54480, Note_on_c, 12, 65, 76
14, 54539, Note_on_c, 12, 65, 0
14, 54540, Note_on_c, 12, 60, 76
14, 54599, Note_on_c, 12, 60, 0
14, 54600, Note_on_c, 12, 65, 76
14, 54659, Note_on_c, 12, 65, 0
14, 54660, Note_on_c, 12, 60, 76
14, 54713, Note_on_c, 12, 60, 0
14, 54720, Note_on_c, 12, 65, 76
14, 54839, Note_on_c, 12, 65, 0
14, 54840, Note_on_c, 12, 60, 74
14, 54949, Note_on_c, 12, 60, 0
14, 54960, Note_on_c, 12, 65, 72
14, 55079, Note_on_c, 12, 65, 0
14, 55080, Note_on_c, 12, 60, 70
14, 55189, Note_on_c, 12, 60, 0
14, 55200, Note_on_c, 12, 65, 68
14, 55319, Note_on_c, 12, 65, 0
14, 55320, Note_on_c, 12, 60, 66
14, 55429, Note_on_c, 12, 60, 0
14, 55440, Note_on_c, 12, 65, 64
14, 55559, Note_on_c, 12, 65, 0
14, 55560, Note_on_c, 12, 60, 62
14, 55669, Note_on_c, 12, 60, 0
14, 55680, Note_on_c, 12, 65, 60
14, 55799, Note_on_c, 12, 65, 0
14, 55800, Note_on_c, 12, 60, 58
14, 55909, Note_on_c, 12, 60, 0
14, 55920, Note_on_c, 12, 65, 56
14, 56039, Note_on_c, 12, 65, 0
14, 56040, Note_on_c, 12, 60, 54
14, 56149, Note_on_c, 12, 60, 0
14, 56160, Note_on_c, 12, 60, 52
14, 56399, Note_on_c, 12, 60, 0
14, 56880, Note_on_c, 12, 60, 48
14, 57119, Note_on_c, 12, 60, 0
14, 57720, Note_on_c, 12, 61, 44
14, 57779, Note_on_c, 12, 61, 0
14, 57780, Note_on_c, 12, 62, 44
14, 57839, Note_on_c, 12, 62, 0
14, 57840, Note_on_c, 12, 64, 44
14, 57899, Note_on_c, 12, 64, 0
14, 57900, Note_on_c, 12, 61, 44
14, 57959, Note_on_c, 12, 61, 0
14, 58080, Note_on_c, 12, 62, 44
14, 58139, Note_on_c, 12, 62, 0
14, 58140, Note_on_c, 12, 64, 44
14, 58199, Note_on_c, 12, 64, 0
14, 58200, Note_on_c, 12, 65, 44
14, 58259, Note_on_c, 12, 65, 0
14, 58260, Note_on_c, 12, 62, 44
14, 58319, Note_on_c, 12, 62, 0
14, 59160, Note_on_c, 12, 61, 44
14, 59219, Note_on_c, 12, 61, 0
14, 59220, Note_on_c, 12, 62, 44
14, 59279, Note_on_c, 12, 62, 0
14, 59280, Note_on_c, 12, 64, 44
14, 59339, Note_on_c, 12, 64, 0
14, 59340, Note_on_c, 12, 61, 44
14, 59399, Note_on_c, 12, 61, 0
14, 59520, Note_on_c, 12, 62, 44
14, 59579, Note_on_c, 12, 62, 0
14, 59580, Note_on_c, 12, 64, 44
14, 59639, Note_on_c, 12, 64, 0
14, 59640, Note_on_c, 12, 65, 44
14, 59699, Note_on_c, 12, 65, 0
14, 59700, Note_on_c, 12, 62, 44
14, 59759, Note_on_c, 12, 62, 0
14, 60480, Control_c, 12, 11, 81
14, 60600, Control_c, 12, 11, 86
14, 60720, Control_c, 12, 11, 91
14, 60840, Note_on_c, 12, 60, 76
14, 60840, Control_c, 12, 11, 97
14, 60960, Control_c, 12, 11, 102
14, 61079, Note_on_c, 12, 60, 0
14, 61080, Note_on_c, 12, 55, 76
14, 61080, Control_c, 12, 11, 107
14, 61199, Note_on_c, 12, 55, 0
14, 61200, Note_on_c, 12, 57, 76
14, 61200, Control_c, 12, 11, 111
14, 61320, Control_c, 12, 11, 118
14, 61439, Note_on_c, 12, 57, 0
14, 61440, Control_c, 12, 11, 123
14, 61440, Note_on_c, 12, 53, 76
14, 61549, Note_on_c, 12, 53, 0
14, 61558, Control_c, 12, 11, 127
14, 61560, Note_on_c, 12, 64, 76
14, 61619, Note_on_c, 12, 64, 0
14, 61620, Note_on_c, 12, 60, 76
14, 61679, Note_on_c, 12, 60, 0
14, 61680, Note_on_c, 12, 64, 76
14, 61739, Note_on_c, 12, 64, 0
14, 61740, Note_on_c, 12, 60, 76
14, 61799, Note_on_c, 12, 60, 0
14, 61800, Note_on_c, 12, 64, 76
14, 61859, Note_on_c, 12, 64, 0
14, 61860, Note_on_c, 12, 60, 76
14, 61913, Note_on_c, 12, 60, 0
14, 61920, Note_on_c, 12, 65, 76
14, 61979, Note_on_c, 12, 65, 0
14, 61980, Note_on_c, 12, 60, 76
14, 62039, Note_on_c, 12, 60, 0
14, 62040, Note_on_c, 12, 65, 76
14, 62099, Note_on_c, 12, 65, 0
14, 62100, Note_on_c, 12, 60, 76
14, 62159, Note_on_c, 12, 60, 0
14, 62160, Note_on_c, 12, 65, 76
14, 62219, Note_on_c, 12, 65, 0
14, 62220, Note_on_c, 12, 60, 76
14, 62279, Note_on_c, 12, 60, 0
14, 62280, Note_on_c, 12, 65, 76
14, 62339, Note_on_c, 12, 65, 0
14, 62340, Note_on_c, 12, 60, 76
14, 62399, Note_on_c, 12, 60, 0
14, 62400, Note_on_c, 12, 65, 76
14, 62459, Note_on_c, 12, 65, 0
14, 62460, Note_on_c, 12, 60, 76
14, 62519, Note_on_c, 12, 60, 0
14, 62520, Note_on_c, 12, 65, 76
14, 62579, Note_on_c, 12, 65, 0
14, 62580, Note_on_c, 12, 60, 76
14, 62633, Note_on_c, 12, 60, 0
14, 62640, Note_on_c, 12, 69, 76
14, 62699, Note_on_c, 12, 69, 0
14, 62700, Note_on_c, 12, 65, 76
14, 62759, Note_on_c, 12, 65, 0
14, 62760, Note_on_c, 12, 69, 76
14, 62819, Note_on_c, 12, 69, 0
14, 62820, Note_on_c, 12, 65, 76
14, 62879, Note_on_c, 12, 65, 0
14, 62880, Note_on_c, 12, 69, 76
14, 62939, Note_on_c, 12, 69, 0
14, 62940, Note_on_c, 12, 65, 76
14, 62999, Note_on_c, 12, 65, 0
14, 63000, Note_on_c, 12, 69, 76
14, 63059, Note_on_c, 12, 69, 0
14, 63060, Note_on_c, 12, 65, 76
14, 63119, Note_on_c, 12, 65, 0
14, 63120, Note_on_c, 12, 69, 76
14, 63179, Note_on_c, 12, 69, 0
14, 63180, Note_on_c, 12, 65, 76
14, 63239, Note_on_c, 12, 65, 0
14, 63240, Note_on_c, 12, 69, 76
14, 63299, Note_on_c, 12, 69, 0
14, 63300, Note_on_c, 12, 65, 76
14, 63353, Note_on_c, 12, 65, 0
14, 63360, Note_on_c, 12, 69, 84
14, 63419, Note_on_c, 12, 69, 0
14, 63420, Note_on_c, 12, 65, 76
14, 63479, Note_on_c, 12, 65, 0
14, 63480, Note_on_c, 12, 69, 72
14, 63539, Note_on_c, 12, 69, 0
14, 63540, Note_on_c, 12, 65, 67
14, 63599, Note_on_c, 12, 65, 0
14, 63600, Note_on_c, 12, 69, 62
14, 63659, Note_on_c, 12, 69, 0
14, 63660, Note_on_c, 12, 65, 57
14, 63713, Note_on_c, 12, 65, 0
14, 63720, Note_on_c, 12, 69, 52
14, 63720, Note_on_c, 12, 60, 52
14, 63839, Note_on_c, 12, 69, 0
14, 63839, Note_on_c, 12, 60, 0
14, 65880, Control_c, 12, 11, 97
14, 66000, Note_on_c, 12, 57, 68
14, 66089, Note_on_c, 12, 57, 0
14, 66120, Note_on_c, 12, 50, 68
14, 66209, Note_on_c, 12, 50, 0
14, 66240, Note_on_c, 12, 65, 68
14, 66479, Note_on_c, 12, 65, 0
14, 66840, Note_on_c, 12, 53, 68
14, 66840, Control_c, 12, 11, 97
14, 66929, Note_on_c, 12, 53, 0
14, 66940, Note_on_c, 12, 53, 68
14, 66959, Note_on_c, 12, 53, 0
14, 66960, Note_on_c, 12, 52, 68
14, 67079, Note_on_c, 12, 52, 0
14, 67080, Note_on_c, 12, 50, 68
14, 67090, Control_c, 12, 11, 99
14, 67199, Note_on_c, 12, 50, 0
14, 67200, Note_on_c, 12, 48, 68
14, 67309, Note_on_c, 12, 48, 0
14, 67320, Note_on_c, 12, 48, 68
14, 67340, Control_c, 12, 11, 102
14, 67439, Note_on_c, 12, 48, 0
14, 67440, Note_on_c, 12, 50, 68
14, 67559, Note_on_c, 12, 50, 0
14, 67560, Note_on_c, 12, 52, 68
14, 67590, Control_c, 12, 11, 105
14, 67669, Note_on_c, 12, 52, 0
14, 67680, Note_on_c, 12, 53, 68
14, 67840, Control_c, 12, 11, 107
14, 68090, Control_c, 12, 11, 110
14, 68159, Note_on_c, 12, 53, 0
14, 68160, Note_on_c, 12, 55, 68
14, 68279, Note_on_c, 12, 55, 0
14, 68280, Note_on_c, 12, 57, 68
14, 68340, Control_c, 12, 11, 113
14, 68369, Note_on_c, 12, 57, 0
14, 68380, Note_on_c, 12, 60, 68
14, 68399, Note_on_c, 12, 60, 0
14, 68400, Note_on_c, 12, 58, 68
14, 68590, Control_c, 12, 11, 115
14, 68639, Note_on_c, 12, 58, 0
14, 68640, Note_on_c, 12, 57, 68
14, 68759, Note_on_c, 12, 57, 0
14, 68760, Note_on_c, 12, 55, 68
14, 68840, Control_c, 12, 11, 118
14, 68999, Note_on_c, 12, 55, 0
14, 69000, Note_on_c, 12, 60, 68
14, 69090, Control_c, 12, 11, 119
14, 69109, Note_on_c, 12, 60, 0
14, 69120, Note_on_c, 12, 57, 68
14, 69340, Control_c, 12, 11, 123
14, 69590, Control_c, 12, 11, 125
14, 69599, Note_on_c, 12, 57, 0
14, 69600, Note_on_c, 12, 55, 68
14, 69719, Note_on_c, 12, 55, 0
14, 69720, Note_on_c, 12, 53, 68
14, 69829, Note_on_c, 12, 53, 0
14, 69838, Control_c, 12, 11, 127
14, 69840, Note_on_c, 12, 55, 76
14, 69899, Note_on_c, 12, 55, 0
14, 69900, Note_on_c, 12, 48, 68
14, 69959, Note_on_c, 12, 48, 0
14, 69960, Note_on_c, 12, 55, 68
14, 70019, Note_on_c, 12, 55, 0
14, 70020, Note_on_c, 12, 48, 68
14, 70079, Note_on_c, 12, 48, 0
14, 70080, Note_on_c, 12, 53, 68
14, 70139, Note_on_c, 12, 53, 0
14, 70140, Note_on_c, 12, 48, 68
14, 70199, Note_on_c, 12, 48, 0
14, 70200, Note_on_c, 12, 52, 68
14, 70259, Note_on_c, 12, 52, 0
14, 70260, Note_on_c, 12, 48, 66
14, 70319, Note_on_c, 12, 48, 0
14, 70320, Note_on_c, 12, 53, 63
14, 70379, Note_on_c, 12, 53, 0
14, 70380, Note_on_c, 12, 48, 60
14, 70439, Note_on_c, 12, 48, 0
14, 70440, Note_on_c, 12, 55, 58
14, 70499, Note_on_c, 12, 55, 0
14, 70500, Note_on_c, 12, 48, 55
14, 70553, Note_on_c, 12, 48, 0
14, 70560, Note_on_c, 12, 57, 52
14, 70619, Note_on_c, 12, 57, 0
14, 70620, Note_on_c, 12, 60, 52
14, 70679, Note_on_c, 12, 60, 0
14, 70680, Note_on_c, 12, 57, 52
14, 70739, Note_on_c, 12, 57, 0
14, 70740, Note_on_c, 12, 60, 52
14, 70799, Note_on_c, 12, 60, 0
14, 70800, Note_on_c, 12, 57, 52
14, 70859, Note_on_c, 12, 57, 0
14, 70860, Note_on_c, 12, 60, 52
14, 70919, Note_on_c, 12, 60, 0
14, 70920, Note_on_c, 12, 58, 52
14, 70979, Note_on_c, 12, 58, 0
14, 70980, Note_on_c, 12, 62, 52
14, 71039, Note_on_c, 12, 62, 0
14, 71040, Note_on_c, 12, 57, 52
14, 71099, Note_on_c, 12, 57, 0
14, 71100, Note_on_c, 12, 60, 52
14, 71159, Note_on_c, 12, 60, 0
14, 71160, Note_on_c, 12, 57, 52
14, 71219, Note_on_c, 12, 57, 0
14, 71220, Note_on_c, 12, 60, 52
14, 71279, Note_on_c, 12, 60, 0
14, 71280, Note_on_c, 12, 55, 52
14, 71339, Note_on_c, 12, 55, 0
14, 71340, Note_on_c, 12, 58, 52
14, 71399, Note_on_c, 12, 58, 0
14, 71400, Note_on_c, 12, 53, 52
14, 71459, Note_on_c, 12, 53, 0
14, 71460, Note_on_c, 12, 57, 52
14, 71519, Note_on_c, 12, 57, 0
14, 71520, Note_on_c, 12, 53, 52
14, 71579, Note_on_c, 12, 53, 0
14, 71580, Note_on_c, 12, 57, 52
14, 71639, Note_on_c, 12, 57, 0
14, 71640, Note_on_c, 12, 55, 52
14, 71699, Note_on_c, 12, 55, 0
14, 71700, Note_on_c, 12, 58, 51
14, 71759, Note_on_c, 12, 58, 0
14, 71760, Note_on_c, 12, 52, 50
14, 71819, Note_on_c, 12, 52, 0
14, 71820, Note_on_c, 12, 55, 48
14, 71879, Note_on_c, 12, 55, 0
14, 71880, Note_on_c, 12, 55, 47
14, 71939, Note_on_c, 12, 55, 0
14, 71940, Note_on_c, 12, 58, 46
14, 71993, Note_on_c, 12, 58, 0
14, 72000, Note_on_c, 12, 53, 52
14, 72059, Note_on_c, 12, 53, 0
14, 72060, Note_on_c, 12, 57, 52
14, 72119, Note_on_c, 12, 57, 0
14, 72120, Note_on_c, 12, 57, 52
14, 72179, Note_on_c, 12, 57, 0
14, 72180, Note_on_c, 12, 60, 52
14, 72239, Note_on_c, 12, 60, 0
14, 72240, Note_on_c, 12, 57, 52
14, 72299, Note_on_c, 12, 57, 0
14, 72300, Note_on_c, 12, 60, 52
14, 72359, Note_on_c, 12, 60, 0
14, 72360, Note_on_c, 12, 58, 52
14, 72419, Note_on_c, 12, 58, 0
14, 72420, Note_on_c, 12, 62, 52
14, 72479, Note_on_c, 12, 62, 0
14, 72480, Note_on_c, 12, 57, 52
14, 72539, Note_on_c, 12, 57, 0
14, 72540, Note_on_c, 12, 60, 52
14, 72599, Note_on_c, 12, 60, 0
14, 72600, Note_on_c, 12, 57, 52
14, 72659, Note_on_c, 12, 57, 0
14, 72660, Note_on_c, 12, 60, 52
14, 72719, Note_on_c, 12, 60, 0
14, 72720, Note_on_c, 12, 55, 52
14, 72779, Note_on_c, 12, 55, 0
14, 72780, Note_on_c, 12, 58, 52
14, 72839, Note_on_c, 12, 58, 0
14, 72840, Note_on_c, 12, 53, 52
14, 72899, Note_on_c, 12, 53, 0
14, 72900, Note_on_c, 12, 57, 52
14, 72959, Note_on_c, 12, 57, 0
14, 72960, Note_on_c, 12, 53, 52
14, 73019, Note_on_c, 12, 53, 0
14, 73020, Note_on_c, 12, 57, 52
14, 73079, Note_on_c, 12, 57, 0
14, 73080, Note_on_c, 12, 55, 52
14, 73139, Note_on_c, 12, 55, 0
14, 73140, Note_on_c, 12, 58, 51
14, 73199, Note_on_c, 12, 58, 0
14, 73200, Note_on_c, 12, 52, 50
14, 73259, Note_on_c, 12, 52, 0
14, 73260, Note_on_c, 12, 55, 48
14, 73319, Note_on_c, 12, 55, 0
14, 73320, Note_on_c, 12, 52, 47
14, 73379, Note_on_c, 12, 52, 0
14, 73380, Note_on_c, 12, 55, 46
14, 73439, Note_on_c, 12, 55, 0
14, 73440, Note_on_c, 12, 53, 52
14, 73499, Note_on_c, 12, 53, 0
14, 73500, Note_on_c, 12, 57, 52
14, 73559, Note_on_c, 12, 57, 0
14, 73560, Note_on_c, 12, 57, 52
14, 73619, Note_on_c, 12, 57, 0
14, 73620, Note_on_c, 12, 60, 52
14, 73679, Note_on_c, 12, 60, 0
14, 73680, Note_on_c, 12, 57, 52
14, 73739, Note_on_c, 12, 57, 0
14, 73740, Note_on_c, 12, 60, 52
14, 73799, Note_on_c, 12, 60, 0
14, 73800, Note_on_c, 12, 58, 52
14, 73859, Note_on_c, 12, 58, 0
14, 73860, Note_on_c, 12, 62, 52
14, 73919, Note_on_c, 12, 62, 0
14, 73920, Note_on_c, 12, 57, 52
14, 73979, Note_on_c, 12, 57, 0
14, 73980, Note_on_c, 12, 60, 52
14, 74039, Note_on_c, 12, 60, 0
14, 74040, Note_on_c, 12, 57, 52
14, 74099, Note_on_c, 12, 57, 0
14, 74100, Note_on_c, 12, 60, 52
14, 74153, Note_on_c, 12, 60, 0
14, 74160, Note_on_c, 12, 53, 52
14, 74219, Note_on_c, 12, 53, 0
14, 74220, Note_on_c, 12, 57, 51
14, 74279, Note_on_c, 12, 57, 0
14, 74280, Note_on_c, 12, 53, 51
14, 74339, Note_on_c, 12, 53, 0
14, 74340, Note_on_c, 12, 57, 51
14, 74399, Note_on_c, 12, 57, 0
14, 74400, Note_on_c, 12, 53, 51
14, 74459, Note_on_c, 12, 53, 0
14, 74460, Note_on_c, 12, 57, 51
14, 74519, Note_on_c, 12, 57, 0
14, 74520, Note_on_c, 12, 55, 50
14, 74579, Note_on_c, 12, 55, 0
14, 74580, Note_on_c, 12, 58, 50
14, 74639, Note_on_c, 12, 58, 0
14, 74640, Note_on_c, 12, 53, 50
14, 74699, Note_on_c, 12, 53, 0
14, 74700, Note_on_c, 12, 57, 50
14, 74759, Note_on_c, 12, 57, 0
14, 74760, Note_on_c, 12, 53, 50
14, 74819, Note_on_c, 12, 53, 0
14, 74820, Note_on_c, 12, 57, 49
14, 74873, Note_on_c, 12, 57, 0
14, 74880, Note_on_c, 12, 57, 49
14, 74939, Note_on_c, 12, 57, 0
14, 74940, Note_on_c, 12, 53, 49
14, 74999, Note_on_c, 12, 53, 0
14, 75000, Note_on_c, 12, 57, 49
14, 75059, Note_on_c, 12, 57, 0
14, 75060, Note_on_c, 12, 53, 49
14, 75119, Note_on_c, 12, 53, 0
14, 75120, Note_on_c, 12, 57, 48
14, 75179, Note_on_c, 12, 57, 0
14, 75180, Note_on_c, 12, 53, 48
14, 75239, Note_on_c, 12, 53, 0
14, 75240, Note_on_c, 12, 58, 48
14, 75299, Note_on_c, 12, 58, 0
14, 75300, Note_on_c, 12, 55, 48
14, 75359, Note_on_c, 12, 55, 0
14, 75360, Note_on_c, 12, 57, 48
14, 75419, Note_on_c, 12, 57, 0
14, 75420, Note_on_c, 12, 53, 47
14, 75479, Note_on_c, 12, 53, 0
14, 75480, Note_on_c, 12, 57, 47
14, 75539, Note_on_c, 12, 57, 0
14, 75540, Note_on_c, 12, 53, 47
14, 75599, Note_on_c, 12, 53, 0
14, 75600, Note_on_c, 12, 58, 47
14, 75659, Note_on_c, 12, 58, 0
14, 75660, Note_on_c, 12, 55, 47
14, 75719, Note_on_c, 12, 55, 0
14, 75720, Note_on_c, 12, 57, 46
14, 75779, Note_on_c, 12, 57, 0
14, 75780, Note_on_c, 12, 53, 46
14, 75839, Note_on_c, 12, 53, 0
14, 75840, Note_on_c, 12, 57, 46
14, 75899, Note_on_c, 12, 57, 0
14, 75900, Note_on_c, 12, 53, 46
14, 75959, Note_on_c, 12, 53, 0
14, 75960, Note_on_c, 12, 58, 46
14, 76019, Note_on_c, 12, 58, 0
14, 76020, Note_on_c, 12, 55, 45
14, 76079, Note_on_c, 12, 55, 0
14, 76080, Note_on_c, 12, 57, 45
14, 76139, Note_on_c, 12, 57, 0
14, 76140, Note_on_c, 12, 53, 45
14, 76199, Note_on_c, 12, 53, 0
14, 76200, Note_on_c, 12, 57, 45
14, 76259, Note_on_c, 12, 57, 0
14, 76260, Note_on_c, 12, 53, 45
14, 76313, Note_on_c, 12, 53, 0
14, 76320, Note_on_c, 12, 57, 44
14, 76559, Note_on_c, 12, 57, 0
14, 77760, Note_on_c, 12, 58, 44
14, 78239, Note_on_c, 12, 58, 0
14, 78240, Note_on_c, 12, 55, 44
14, 78349, Note_on_c, 12, 55, 0
14, 78360, Note_on_c, 12, 53, 44
14, 78449, Note_on_c, 12, 53, 0
14, 78480, Note_on_c, 12, 52, 44
14, 78579, Note_on_c, 12, 52, 0
14, 78600, Note_on_c, 12, 55, 44
14, 78699, Note_on_c, 12, 55, 0
14, 78720, Note_on_c, 12, 52, 44
14, 78809, Note_on_c, 12, 52, 0
14, 78840, Note_on_c, 12, 48, 44
14, 78939, Note_on_c, 12, 48, 0
14, 78960, Note_on_c, 12, 60, 44
14, 79059, Note_on_c, 12, 60, 0
14, 79080, Note_on_c, 12, 55, 44
14, 79169, Note_on_c, 12, 55, 0
14, 79200, Note_on_c, 12, 57, 44
14, 79439, Note_on_c, 12, 57, 0
14, 82440, Note_on_c, 12, 59, 52
14, 82799, Note_on_c, 12, 59, 0
14, 82800, Note_on_c, 12, 55, 52
14, 83159, Note_on_c, 12, 55, 0
14, 83160, Note_on_c, 12, 50, 52
14, 83519, Note_on_c, 12, 50, 0
14, 83880, Note_on_c, 12, 59, 52
14, 84239, Note_on_c, 12, 59, 0
14, 84240, Note_on_c, 12, 55, 52
14, 84599, Note_on_c, 12, 55, 0
14, 84600, Note_on_c, 12, 50, 52
14, 84959, Note_on_c, 12, 50, 0
14, 85320, Note_on_c, 12, 60, 52
14, 85679, Note_on_c, 12, 60, 0
14, 85680, Note_on_c, 12, 57, 52
14, 86039, Note_on_c, 12, 57, 0
14, 86040, Note_on_c, 12, 50, 52
14, 86399, Note_on_c, 12, 50, 0
14, 86760, Note_on_c, 12, 60, 52
14, 87119, Note_on_c, 12, 60, 0
14, 87120, Note_on_c, 12, 57, 52
14, 87479, Note_on_c, 12, 57, 0
14, 87480, Note_on_c, 12, 50, 52
14, 87839, Note_on_c, 12, 50, 0
14, 88200, Note_on_c, 12, 62, 52
14, 88559, Note_on_c, 12, 62, 0
14, 88560, Note_on_c, 12, 55, 52
14, 88919, Note_on_c, 12, 55, 0
14, 88920, Note_on_c, 12, 64, 52
14, 89279, Note_on_c, 12, 64, 0
14, 89280, Control_c, 12, 11, 97
14, 89640, Note_on_c, 12, 62, 68
14, 89999, Note_on_c, 12, 62, 0
14, 90000, Note_on_c, 12, 55, 68
14, 90359, Note_on_c, 12, 55, 0
14, 90360, Note_on_c, 12, 64, 68
14, 90709, Note_on_c, 12, 64, 0
14, 90720, Control_c, 12, 11, 97
14, 90720, Note_on_c, 12, 55, 68
14, 90840, Control_c, 12, 11, 99
14, 90960, Control_c, 12, 11, 102
14, 91080, Control_c, 12, 11, 105
14, 91200, Control_c, 12, 11, 107
14, 91320, Control_c, 12, 11, 110
14, 91439, Note_on_c, 12, 55, 0
14, 91440, Control_c, 12, 11, 113
14, 91440, Note_on_c, 12, 57, 68
14, 91560, Control_c, 12, 11, 115
14, 91680, Control_c, 12, 11, 118
14, 91799, Note_on_c, 12, 57, 0
14, 91800, Note_on_c, 12, 59, 68
14, 91800, Control_c, 12, 11, 119
14, 91920, Control_c, 12, 11, 123
14, 92040, Control_c, 12, 11, 125
14, 92149, Note_on_c, 12, 59, 0
14, 92160, Control_c, 12, 11, 127
14, 92160, Note_on_c, 12, 60, 52
14, 92399, Note_on_c, 12, 60, 0
14, 93240, Control_c, 12, 11, 81
14, 93360, Note_on_c, 12, 48, 76
14, 93469, Note_on_c, 12, 48, 0
14, 93480, Note_on_c, 12, 49, 76
14, 93589, Note_on_c, 12, 49, 0
14, 93600, Note_on_c, 12, 50, 76
14, 93839, Note_on_c, 12, 50, 0
14, 94200, Note_on_c, 12, 55, 76
14, 94200, Control_c, 12, 11, 81
14, 94289, Note_on_c, 12, 55, 0
14, 94300, Note_on_c, 12, 55, 76
14, 94319, Note_on_c, 12, 55, 0
14, 94320, Note_on_c, 12, 54, 76
14, 94390, Control_c, 12, 11, 85
14, 94439, Note_on_c, 12, 54, 0
14, 94440, Note_on_c, 12, 52, 76
14, 94559, Note_on_c, 12, 52, 0
14, 94560, Note_on_c, 12, 50, 76
14, 94580, Control_c, 12, 11, 89
14, 94669, Note_on_c, 12, 50, 0
14, 94680, Note_on_c, 12, 50, 76
14, 94770, Control_c, 12, 11, 93
14, 94799, Note_on_c, 12, 50, 0
14, 94800, Note_on_c, 12, 52, 76
14, 94919, Note_on_c, 12, 52, 0
14, 94920, Note_on_c, 12, 54, 76
14, 94960, Control_c, 12, 11, 97
14, 95029, Note_on_c, 12, 54, 0
14, 95040, Note_on_c, 12, 55, 76
14, 95150, Control_c, 12, 11, 101
14, 95340, Control_c, 12, 11, 105
14, 95519, Note_on_c, 12, 55, 0
14, 95520, Note_on_c, 12, 57, 76
14, 95530, Control_c, 12, 11, 107
14, 95639, Note_on_c, 12, 57, 0
14, 95640, Note_on_c, 12, 59, 76
14, 95720, Control_c, 12, 11, 111
14, 95729, Note_on_c, 12, 59, 0
14, 95740, Note_on_c, 12, 62, 76
14, 95759, Note_on_c, 12, 62, 0
14, 95760, Note_on_c, 12, 60, 76
14, 95910, Control_c, 12, 11, 115
14, 95999, Note_on_c, 12, 60, 0
14, 96000, Note_on_c, 12, 59, 76
14, 96100, Control_c, 12, 11, 119
14, 96119, Note_on_c, 12, 59, 0
14, 96120, Note_on_c, 12, 57, 76
14, 96290, Control_c, 12, 11, 123
14, 96359, Note_on_c, 12, 57, 0
14, 96360, Note_on_c, 12, 62, 76
14, 96469, Note_on_c, 12, 62, 0
14, 96478, Control_c, 12, 11, 127
14, 96480, Note_on_c, 12, 58, 76
14, 96839, Note_on_c, 12, 58, 0
14, 96840, Note_on_c, 12, 55, 76
14, 97199, Note_on_c, 12, 55, 0
14, 97200, Control_c, 12, 11, 127
14, 97200, Note_on_c, 12, 53, 76
14, 97260, Control_c, 12, 11, 123
14, 97320, Control_c, 12, 11, 119
14, 97380, Control_c, 12, 11, 115
14, 97440, Control_c, 12, 11, 111
14, 97500, Control_c, 12, 11, 107
14, 97559, Note_on_c, 12, 53, 0
14, 97560, Control_c, 12, 11, 105
14, 97560, Note_on_c, 12, 58, 76
14, 97620, Control_c, 12, 11, 101
14, 97680, Control_c, 12, 11, 97
14, 97740, Control_c, 12, 11, 93
14, 97800, Control_c, 12, 11, 89
14, 97860, Control_c, 12, 11, 85
14, 97909, Note_on_c, 12, 58, 0
14, 97920, Note_on_c, 12, 51, 76
14, 97920, Control_c, 12, 11, 81
14, 97964, Note_on_c, 12, 51, 0
14, 97980, Note_on_c, 12, 55, 76
14, 98024, Note_on_c, 12, 55, 0
14, 98040, Note_on_c, 12, 58, 76
14, 98084, Note_on_c, 12, 58, 0
14, 98100, Note_on_c, 12, 63, 76
14, 98144, Note_on_c, 12, 63, 0
14, 98160, Note_on_c, 12, 67, 76
14, 98204, Note_on_c, 12, 67, 0
14, 98220, Note_on_c, 12, 70, 76
14, 98264, Note_on_c, 12, 70, 0
14, 98280, Note_on_c, 12, 75, 76
14, 98519, Note_on_c, 12, 75, 0
14, 99000, Control_c, 12, 11, 127
14, 99360, Note_on_c, 12, 51, 52
14, 99404, Note_on_c, 12, 51, 0
14, 99420, Note_on_c, 12, 55, 52
14, 99464, Note_on_c, 12, 55, 0
14, 99480, Note_on_c, 12, 58, 52
14, 99524, Note_on_c, 12, 58, 0
14, 99540, Note_on_c, 12, 63, 52
14, 99584, Note_on_c, 12, 63, 0
14, 99600, Note_on_c, 12, 67, 52
14, 99644, Note_on_c, 12, 67, 0
14, 99660, Note_on_c, 12, 70, 52
14, 99704, Note_on_c, 12, 70, 0
14, 99720, Note_on_c, 12, 75, 52
14, 99959, Note_on_c, 12, 75, 0
14, 100800, Note_on_c, 12, 58, 52
14, 100844, Note_on_c, 12, 58, 0
14, 100860, Note_on_c, 12, 62, 52
14, 100904, Note_on_c, 12, 62, 0
14, 100920, Note_on_c, 12, 65, 52
14, 100964, Note_on_c, 12, 65, 0
14, 100980, Note_on_c, 12, 68, 52
14, 101024, Note_on_c, 12, 68, 0
14, 101040, Note_on_c, 12, 70, 52
14, 101084, Note_on_c, 12, 70, 0
14, 101100, Note_on_c, 12, 74, 52
14, 101144, Note_on_c, 12, 74, 0
14, 101160, Note_on_c, 12, 77, 52
14, 101399, Note_on_c, 12, 77, 0
14, 102240, Note_on_c, 12, 58, 52
14, 102284, Note_on_c, 12, 58, 0
14, 102300, Note_on_c, 12, 62, 52
14, 102344, Note_on_c, 12, 62, 0
14, 102360, Note_on_c, 12, 65, 52
14, 102404, Note_on_c, 12, 65, 0
14, 102420, Note_on_c, 12, 68, 52
14, 102464, Note_on_c, 12, 68, 0
14, 102480, Note_on_c, 12, 70, 52
14, 102524, Note_on_c, 12, 70, 0
14, 102540, Note_on_c, 12, 74, 52
14, 102584, Note_on_c, 12, 74, 0
14, 102600, Note_on_c, 12, 77, 52
14, 102839, Note_on_c, 12, 77, 0
14, 103680, Note_on_c, 12, 55, 52
14, 103739, Note_on_c, 12, 55, 0
14, 103740, Note_on_c, 12, 51, 52
14, 103799, Note_on_c, 12, 51, 0
14, 103800, Note_on_c, 12, 55, 52
14, 103859, Note_on_c, 12, 55, 0
14, 103860, Note_on_c, 12, 51, 52
14, 103919, Note_on_c, 12, 51, 0
14, 103920, Note_on_c, 12, 55, 52
14, 103979, Note_on_c, 12, 55, 0
14, 103980, Note_on_c, 12, 51, 52
14, 104039, Note_on_c, 12, 51, 0
14, 104040, Note_on_c, 12, 55, 52
14, 104099, Note_on_c, 12, 55, 0
14, 104100, Note_on_c, 12, 51, 52
14, 104159, Note_on_c, 12, 51, 0
14, 104160, Note_on_c, 12, 55, 52
14, 104219, Note_on_c, 12, 55, 0
14, 104220, Note_on_c, 12, 51, 52
14, 104279, Note_on_c, 12, 51, 0
14, 104280, Note_on_c, 12, 55, 52
14, 104339, Note_on_c, 12, 55, 0
14, 104340, Note_on_c, 12, 51, 52
14, 104399, Note_on_c, 12, 51, 0
14, 104400, Note_on_c, 12, 56, 52
14, 104459, Note_on_c, 12, 56, 0
14, 104460, Note_on_c, 12, 51, 52
14, 104519, Note_on_c, 12, 51, 0
14, 104520, Note_on_c, 12, 56, 52
14, 104579, Note_on_c, 12, 56, 0
14, 104580, Note_on_c, 12, 51, 52
14, 104639, Note_on_c, 12, 51, 0
14, 104640, Note_on_c, 12, 56, 52
14, 104699, Note_on_c, 12, 56, 0
14, 104700, Note_on_c, 12, 51, 52
14, 104759, Note_on_c, 12, 51, 0
14, 104760, Note_on_c, 12, 56, 52
14, 104819, Note_on_c, 12, 56, 0
14, 104820, Note_on_c, 12, 51, 52
14, 104879, Note_on_c, 12, 51, 0
14, 104880, Note_on_c, 12, 56, 52
14, 104939, Note_on_c, 12, 56, 0
14, 104940, Note_on_c, 12, 51, 52
14, 104999, Note_on_c, 12, 51, 0
14, 105000, Note_on_c, 12, 56, 52
14, 105059, Note_on_c, 12, 56, 0
14, 105060, Note_on_c, 12, 51, 52
14, 105113, Note_on_c, 12, 51, 0
14, 105118, Control_c, 12, 11, 97
14, 105120, Note_on_c, 12, 55, 68
14, 105179, Note_on_c, 12, 55, 0
14, 105180, Note_on_c, 12, 51, 68
14, 105239, Note_on_c, 12, 51, 0
14, 105240, Note_on_c, 12, 55, 68
14, 105299, Note_on_c, 12, 55, 0
14, 105300, Note_on_c, 12, 51, 68
14, 105359, Note_on_c, 12, 51, 0
14, 105360, Note_on_c, 12, 55, 68
14, 105419, Note_on_c, 12, 55, 0
14, 105420, Note_on_c, 12, 51, 68
14, 105479, Note_on_c, 12, 51, 0
14, 105480, Note_on_c, 12, 55, 68
14, 105539, Note_on_c, 12, 55, 0
14, 105540, Note_on_c, 12, 51, 68
14, 105599, Note_on_c, 12, 51, 0
14, 105600, Note_on_c, 12, 55, 68
14, 105659, Note_on_c, 12, 55, 0
14, 105660, Note_on_c, 12, 51, 68
14, 105719, Note_on_c, 12, 51, 0
14, 105720, Note_on_c, 12, 55, 68
14, 105779, Note_on_c, 12, 55, 0
14, 105780, Note_on_c, 12, 51, 68
14, 105839, Note_on_c, 12, 51, 0
14, 105840, Note_on_c, 12, 56, 68
14, 105899, Note_on_c, 12, 56, 0
14, 105900, Note_on_c, 12, 51, 68
14, 105959, Note_on_c, 12, 51, 0
14, 105960, Note_on_c, 12, 56, 68
14, 106019, Note_on_c, 12, 56, 0
14, 106020, Note_on_c, 12, 51, 68
14, 106079, Note_on_c, 12, 51, 0
14, 106080, Note_on_c, 12, 56, 68
14, 106139, Note_on_c, 12, 56, 0
14, 106140, Note_on_c, 12, 51, 68
14, 106199, Note_on_c, 12, 51, 0
14, 106200, Note_on_c, 12, 56, 68
14, 106259, Note_on_c, 12, 56, 0
14, 106260, Note_on_c, 12, 51, 68
14, 106319, Note_on_c, 12, 51, 0
14, 106320, Note_on_c, 12, 56, 68
14, 106379, Note_on_c, 12, 56, 0
14, 106380, Note_on_c, 12, 51, 68
14, 106439, Note_on_c, 12, 51, 0
14, 106440, Note_on_c, 12, 56, 68
14, 106499, Note_on_c, 12, 56, 0
14, 106500, Note_on_c, 12, 51, 68
14, 106553, Note_on_c, 12, 51, 0
14, 106560, Control_c, 12, 11, 97
14, 106560, Note_on_c, 12, 51, 68
14, 106680, Control_c, 12, 11, 99
14, 106800, Control_c, 12, 11, 102
14, 106920, Control_c, 12, 11, 105
14, 107040, Control_c, 12, 11, 107
14, 107160, Control_c, 12, 11, 110
14, 107279, Note_on_c, 12, 51, 0
14, 107280, Control_c, 12, 11, 113
14, 107280, Note_on_c, 12, 53, 68
14, 107400, Control_c, 12, 11, 115
14, 107520, Control_c, 12, 11, 118
14, 107639, Note_on_c, 12, 53, 0
14, 107640, Control_c, 12, 11, 119
14, 107640, Note_on_c, 12, 55, 68
14, 107760, Control_c, 12, 11, 123
14, 107880, Control_c, 12, 11, 125
14, 107989, Note_on_c, 12, 55, 0
14, 107998, Control_c, 12, 11, 127
14, 108000, Note_on_c, 12, 56, 52
14, 108239, Note_on_c, 12, 56, 0
14, 109440, Control_c, 12, 11, 81
14, 110040, Note_on_c, 12, 63, 76
14, 110129, Note_on_c, 12, 63, 0
14, 110140, Note_on_c, 12, 63, 76
14, 110159, Note_on_c, 12, 63, 0
14, 110160, Control_c, 12, 11, 81
14, 110160, Note_on_c, 12, 62, 76
14, 110279, Note_on_c, 12, 62, 0
14, 110280, Note_on_c, 12, 60, 76
14, 110280, Control_c, 12, 11, 85
14, 110399, Note_on_c, 12, 60, 0
14, 110400, Control_c, 12, 11, 89
14, 110400, Note_on_c, 12, 58, 76
14, 110509, Note_on_c, 12, 58, 0
14, 110520, Note_on_c, 12, 58, 76
14, 110520, Control_c, 12, 11, 93
14, 110639, Note_on_c, 12, 58, 0
14, 110640, Note_on_c, 12, 60, 76
14, 110640, Control_c, 12, 11, 97
14, 110759, Note_on_c, 12, 60, 0
14, 110760, Note_on_c, 12, 62, 76
14, 110760, Control_c, 12, 11, 101
14, 110869, Note_on_c, 12, 62, 0
14, 110880, Note_on_c, 12, 63, 76
14, 110880, Control_c, 12, 11, 105
14, 111000, Control_c, 12, 11, 107
14, 111120, Control_c, 12, 11, 111
14, 111239, Note_on_c, 12, 63, 0
14, 111240, Note_on_c, 12, 58, 76
14, 111240, Control_c, 12, 11, 115
14, 111360, Control_c, 12, 11, 119
14, 111480, Control_c, 12, 11, 123
14, 111599, Note_on_c, 12, 58, 0
14, 111600, Note_on_c, 12, 59, 76
14, 111600, Control_c, 12, 11, 127
14, 111660, Control_c, 12, 11, 123
14, 111720, Control_c, 12, 11, 119
14, 111780, Control_c, 12, 11, 115
14, 111840, Control_c, 12, 11, 111
14, 111900, Control_c, 12, 11, 107
14, 111959, Note_on_c, 12, 59, 0
14, 111960, Note_on_c, 12, 56, 76
14, 111960, Control_c, 12, 11, 105
14, 112020, Control_c, 12, 11, 101
14, 112080, Control_c, 12, 11, 97
14, 112140, Control_c, 12, 11, 93
14, 112199, Note_on_c, 12, 56, 0
14, 112200, Note_on_c, 12, 59, 76
14, 112200, Control_c, 12, 11, 89
14, 112260, Control_c, 12, 11, 85
14, 112309, Note_on_c, 12, 59, 0
14, 112318, Control_c, 12, 11, 81
14, 112320, Note_on_c, 12, 58, 76
14, 112379, Note_on_c, 12, 58, 0
14, 112380, Note_on_c, 12, 49, 76
14, 112439, Note_on_c, 12, 49, 0
14, 112440, Note_on_c, 12, 54, 76
14, 112499, Note_on_c, 12, 54, 0
14, 112500, Note_on_c, 12, 49, 76
14, 112559, Note_on_c, 12, 49, 0
14, 112560, Note_on_c, 12, 54, 76
14, 112619, Note_on_c, 12, 54, 0
14, 112620, Note_on_c, 12, 49, 76
14, 112679, Note_on_c, 12, 49, 0
14, 112680, Control_c, 12, 11, 81
14, 112680, Note_on_c, 12, 54, 76
14, 112739, Note_on_c, 12, 54, 0
14, 112740, Note_on_c, 12, 49, 76
14, 112799, Note_on_c, 12, 49, 0
14, 112800, Note_on_c, 12, 54, 76
14, 112859, Note_on_c, 12, 54, 0
14, 112860, Note_on_c, 12, 49, 76
14, 112890, Control_c, 12, 11, 79
14, 112919, Note_on_c, 12, 49, 0
14, 112920, Note_on_c, 12, 54, 76
14, 112979, Note_on_c, 12, 54, 0
14, 112980, Note_on_c, 12, 49, 76
14, 113039, Note_on_c, 12, 49, 0
14, 113040, Note_on_c, 12, 54, 76
14, 113099, Note_on_c, 12, 54, 0
14, 113100, Control_c, 12, 11, 78
14, 113100, Note_on_c, 12, 49, 76
14, 113159, Note_on_c, 12, 49, 0
14, 113160, Note_on_c, 12, 54, 76
14, 113219, Note_on_c, 12, 54, 0
14, 113220, Note_on_c, 12, 49, 76
14, 113279, Note_on_c, 12, 49, 0
14, 113280, Note_on_c, 12, 54, 76
14, 113310, Control_c, 12, 11, 77
14, 113339, Note_on_c, 12, 54, 0
14, 113340, Note_on_c, 12, 49, 76
14, 113399, Note_on_c, 12, 49, 0
14, 113400, Note_on_c, 12, 54, 76
14, 113459, Note_on_c, 12, 54, 0
14, 113460, Note_on_c, 12, 49, 76
14, 113519, Note_on_c, 12, 49, 0
14, 113520, Control_c, 12, 11, 75
14, 113520, Note_on_c, 12, 54, 76
14, 113579, Note_on_c, 12, 54, 0
14, 113580, Note_on_c, 12, 49, 76
14, 113639, Note_on_c, 12, 49, 0
14, 113640, Note_on_c, 12, 54, 76
14, 113699, Note_on_c, 12, 54, 0
14, 113700, Note_on_c, 12, 49, 76
14, 113730, Control_c, 12, 11, 74
14, 113753, Note_on_c, 12, 49, 0
14, 113760, Note_on_c, 12, 54, 76
14, 113819, Note_on_c, 12, 54, 0
14, 113820, Note_on_c, 12, 49, 76
14, 113879, Note_on_c, 12, 49, 0
14, 113880, Note_on_c, 12, 54, 76
14, 113939, Note_on_c, 12, 54, 0
14, 113940, Control_c, 12, 11, 73
14, 113940, Note_on_c, 12, 49, 76
14, 113999, Note_on_c, 12, 49, 0
14, 114000, Note_on_c, 12, 54, 76
14, 114059, Note_on_c, 12, 54, 0
14, 114060, Note_on_c, 12, 49, 76
14, 114119, Note_on_c, 12, 49, 0
14, 114120, Note_on_c, 12, 54, 76
14, 114150, Control_c, 12, 11, 71
14, 114179, Note_on_c, 12, 54, 0
14, 114180, Note_on_c, 12, 49, 76
14, 114239, Note_on_c, 12, 49, 0
14, 114240, Note_on_c, 12, 54, 76
14, 114299, Note_on_c, 12, 54, 0
14, 114300, Note_on_c, 12, 49, 76
14, 114359, Note_on_c, 12, 49, 0
14, 114360, Control_c, 12, 11, 70
14, 114360, Note_on_c, 12, 54, 76
14, 114419, Note_on_c, 12, 54, 0
14, 114420, Note_on_c, 12, 49, 76
14, 114479, Note_on_c, 12, 49, 0
14, 114480, Note_on_c, 12, 54, 76
14, 114539, Note_on_c, 12, 54, 0
14, 114540, Note_on_c, 12, 49, 76
14, 114570, Control_c, 12, 11, 69
14, 114599, Note_on_c, 12, 49, 0
14, 114600, Note_on_c, 12, 54, 76
14, 114659, Note_on_c, 12, 54, 0
14, 114660, Note_on_c, 12, 49, 76
14, 114719, Note_on_c, 12, 49, 0
14, 114720, Note_on_c, 12, 54, 76
14, 114779, Note_on_c, 12, 54, 0
14, 114780, Control_c, 12, 11, 67
14, 114780, Note_on_c, 12, 49, 76
14, 114839, Note_on_c, 12, 49, 0
14, 114840, Note_on_c, 12, 54, 76
14, 114899, Note_on_c, 12, 54, 0
14, 114900, Note_on_c, 12, 49, 76
14, 114959, Note_on_c, 12, 49, 0
14, 114960, Note_on_c, 12, 54, 76
14, 114990, Control_c, 12, 11, 66
14, 115019, Note_on_c, 12, 54, 0
14, 115020, Note_on_c, 12, 49, 76
14, 115079, Note_on_c, 12, 49, 0
14, 115080, Note_on_c, 12, 54, 76
14, 115139, Note_on_c, 12, 54, 0
14, 115140, Note_on_c, 12, 49, 76
14, 115193, Note_on_c, 12, 49, 0
14, 115200, Note_on_c, 12, 54, 76
14, 115200, Control_c, 12, 11, 65
14, 115259, Note_on_c, 12, 54, 0
14, 115260, Note_on_c, 12, 51, 76
14, 115319, Note_on_c, 12, 51, 0
14, 115320, Note_on_c, 12, 54, 76
14, 115379, Note_on_c, 12, 54, 0
14, 115380, Note_on_c, 12, 51, 76
14, 115439, Note_on_c, 12, 51, 0
14, 115440, Note_on_c, 12, 54, 76
14, 115499, Note_on_c, 12, 54, 0
14, 115500, Note_on_c, 12, 51, 76
14, 115559, Note_on_c, 12, 51, 0
14, 115560, Note_on_c, 12, 54, 76
14, 115619, Note_on_c, 12, 54, 0
14, 115620, Note_on_c, 12, 51, 76
14, 115679, Note_on_c, 12, 51, 0
14, 115680, Note_on_c, 12, 54, 76
14, 115739, Note_on_c, 12, 54, 0
14, 115740, Note_on_c, 12, 51, 76
14, 115799, Note_on_c, 12, 51, 0
14, 115800, Note_on_c, 12, 54, 76
14, 115859, Note_on_c, 12, 54, 0
14, 115860, Note_on_c, 12, 51, 76
14, 115919, Note_on_c, 12, 51, 0
14, 115920, Note_on_c, 12, 54, 76
14, 115979, Note_on_c, 12, 54, 0
14, 115980, Note_on_c, 12, 51, 76
14, 116039, Note_on_c, 12, 51, 0
14, 116040, Note_on_c, 12, 54, 76
14, 116099, Note_on_c, 12, 54, 0
14, 116100, Note_on_c, 12, 51, 76
14, 116159, Note_on_c, 12, 51, 0
14, 116160, Note_on_c, 12, 54, 76
14, 116219, Note_on_c, 12, 54, 0
14, 116220, Note_on_c, 12, 51, 76
14, 116279, Note_on_c, 12, 51, 0
14, 116280, Note_on_c, 12, 54, 76
14, 116339, Note_on_c, 12, 54, 0
14, 116340, Note_on_c, 12, 51, 76
14, 116399, Note_on_c, 12, 51, 0
14, 116400, Note_on_c, 12, 54, 76
14, 116459, Note_on_c, 12, 54, 0
14, 116460, Note_on_c, 12, 51, 76
14, 116519, Note_on_c, 12, 51, 0
14, 116520, Note_on_c, 12, 54, 76
14, 116579, Note_on_c, 12, 54, 0
14, 116580, Note_on_c, 12, 51, 76
14, 116633, Note_on_c, 12, 51, 0
14, 116640, Note_on_c, 12, 54, 76
14, 116699, Note_on_c, 12, 54, 0
14, 116700, Note_on_c, 12, 52, 76
14, 116759, Note_on_c, 12, 52, 0
14, 116760, Note_on_c, 12, 54, 76
14, 116819, Note_on_c, 12, 54, 0
14, 116820, Note_on_c, 12, 52, 76
14, 116879, Note_on_c, 12, 52, 0
14, 116880, Note_on_c, 12, 54, 76
14, 116939, Note_on_c, 12, 54, 0
14, 116940, Note_on_c, 12, 52, 76
14, 116999, Note_on_c, 12, 52, 0
14, 117000, Note_on_c, 12, 54, 76
14, 117059, Note_on_c, 12, 54, 0
14, 117060, Note_on_c, 12, 52, 76
14, 117119, Note_on_c, 12, 52, 0
14, 117120, Note_on_c, 12, 54, 76
14, 117179, Note_on_c, 12, 54, 0
14, 117180, Note_on_c, 12, 52, 76
14, 117239, Note_on_c, 12, 52, 0
14, 117240, Note_on_c, 12, 54, 76
14, 117299, Note_on_c, 12, 54, 0
14, 117300, Note_on_c, 12, 52, 76
14, 117359, Note_on_c, 12, 52, 0
14, 117360, Note_on_c, 12, 54, 76
14, 117419, Note_on_c, 12, 54, 0
14, 117420, Note_on_c, 12, 52, 76
14, 117479, Note_on_c, 12, 52, 0
14, 117480, Note_on_c, 12, 54, 76
14, 117539, Note_on_c, 12, 54, 0
14, 117540, Note_on_c, 12, 52, 76
14, 117599, Note_on_c, 12, 52, 0
14, 117600, Note_on_c, 12, 54, 76
14, 117659, Note_on_c, 12, 54, 0
14, 117660, Note_on_c, 12, 52, 76
14, 117719, Note_on_c, 12, 52, 0
14, 117720, Note_on_c, 12, 54, 76
14, 117779, Note_on_c, 12, 54, 0
14, 117780, Note_on_c, 12, 52, 76
14, 117839, Note_on_c, 12, 52, 0
14, 117840, Note_on_c, 12, 54, 76
14, 117899, Note_on_c, 12, 54, 0
14, 117900, Note_on_c, 12, 52, 76
14, 117959, Note_on_c, 12, 52, 0
14, 117960, Note_on_c, 12, 54, 76
14, 118019, Note_on_c, 12, 54, 0
14, 118020, Note_on_c, 12, 52, 76
14, 118073, Note_on_c, 12, 52, 0
14, 118080, Note_on_c, 12, 54, 76
14, 118080, Note_on_c, 12, 59, 76
14, 118139, Note_on_c, 12, 54, 0
14, 118139, Note_on_c, 12, 59, 0
14, 118140, Note_on_c, 12, 54, 76
14, 118140, Note_on_c, 12, 51, 76
14, 118199, Note_on_c, 12, 54, 0
14, 118199, Note_on_c, 12, 51, 0
14, 118200, Note_on_c, 12, 59, 76
14, 118200, Note_on_c, 12, 54, 76
14, 118259, Note_on_c, 12, 59, 0
14, 118259, Note_on_c, 12, 54, 0
14, 118260, Note_on_c, 12, 51, 76
14, 118260, Note_on_c, 12, 54, 76
14, 118319, Note_on_c, 12, 51, 0
14, 118319, Note_on_c, 12, 54, 0
14, 118320, Note_on_c, 12, 59, 76
14, 118320, Note_on_c, 12, 54, 76
14, 118379, Note_on_c, 12, 59, 0
14, 118379, Note_on_c, 12, 54, 0
14, 118380, Note_on_c, 12, 54, 76
14, 118380, Note_on_c, 12, 51, 76
14, 118439, Note_on_c, 12, 54, 0
14, 118439, Note_on_c, 12, 51, 0
14, 118440, Note_on_c, 12, 54, 76
14, 118440, Note_on_c, 12, 59, 76
14, 118499, Note_on_c, 12, 54, 0
14, 118499, Note_on_c, 12, 59, 0
14, 118500, Note_on_c, 12, 51, 76
14, 118500, Note_on_c, 12, 54, 76
14, 118559, Note_on_c, 12, 51, 0
14, 118559, Note_on_c, 12, 54, 0
14, 118560, Note_on_c, 12, 54, 76
14, 118560, Note_on_c, 12, 59, 76
14, 118619, Note_on_c, 12, 54, 0
14, 118619, Note_on_c, 12, 59, 0
14, 118620, Note_on_c, 12, 54, 76
14, 118620, Note_on_c, 12, 51, 76
14, 118679, Note_on_c, 12, 54, 0
14, 118679, Note_on_c, 12, 51, 0
14, 118680, Note_on_c, 12, 54, 76
14, 118680, Note_on_c, 12, 59, 76
14, 118739, Note_on_c, 12, 54, 0
14, 118739, Note_on_c, 12, 59, 0
14, 118740, Note_on_c, 12, 51, 76
14, 118740, Note_on_c, 12, 54, 76
14, 118793, Note_on_c, 12, 51, 0
14, 118793, Note_on_c, 12, 54, 0
14, 118800, Note_on_c, 12, 55, 76
14, 118800, Note_on_c, 12, 59, 76
14, 118859, Note_on_c, 12, 55, 0
14, 118859, Note_on_c, 12, 59, 0
14, 118860, Note_on_c, 12, 55, 76
14, 118860, Note_on_c, 12, 52, 76
14, 118919, Note_on_c, 12, 55, 0
14, 118919, Note_on_c, 12, 52, 0
14, 118920, Note_on_c, 12, 59, 76
14, 118920, Note_on_c, 12, 55, 76
14, 118979, Note_on_c, 12, 59, 0
14, 118979, Note_on_c, 12, 55, 0
14, 118980, Note_on_c, 12, 52, 76
14, 118980, Note_on_c, 12, 55, 76
14, 119039, Note_on_c, 12, 52, 0
14, 119039, Note_on_c, 12, 55, 0
14, 119040, Note_on_c, 12, 55, 76
14, 119040, Note_on_c, 12, 59, 76
14, 119099, Note_on_c, 12, 55, 0
14, 119099, Note_on_c, 12, 59, 0
14, 119100, Note_on_c, 12, 52, 76
14, 119100, Note_on_c, 12, 55, 76
14, 119159, Note_on_c, 12, 52, 0
14, 119159, Note_on_c, 12, 55, 0
14, 119160, Note_on_c, 12, 55, 76
14, 119160, Note_on_c, 12, 59, 76
14, 119219, Note_on_c, 12, 55, 0
14, 119219, Note_on_c, 12, 59, 0
14, 119220, Note_on_c, 12, 55, 76
14, 119220, Note_on_c, 12, 52, 76
14, 119279, Note_on_c, 12, 55, 0
14, 119279, Note_on_c, 12, 52, 0
14, 119280, Note_on_c, 12, 55, 76
14, 119280, Note_on_c, 12, 59, 76
14, 119339, Note_on_c, 12, 55, 0
14, 119339, Note_on_c, 12, 59, 0
14, 119340, Note_on_c, 12, 55, 76
14, 119340, Note_on_c, 12, 52, 76
14, 119399, Note_on_c, 12, 55, 0
14, 119399, Note_on_c, 12, 52, 0
14, 119400, Note_on_c, 12, 55, 76
14, 119400, Note_on_c, 12, 59, 76
14, 119459, Note_on_c, 12, 55, 0
14, 119459, Note_on_c, 12, 59, 0
14, 119460, Note_on_c, 12, 55, 76
14, 119460, Note_on_c, 12, 52, 76
14, 119513, Note_on_c, 12, 55, 0
14, 119513, Note_on_c, 12, 52, 0
14, 119520, Note_on_c, 12, 55, 76
14, 119520, Note_on_c, 12, 53, 76
14, 119520, Control_c, 12, 11, 64
14, 119579, Note_on_c, 12, 55, 0
14, 119579, Note_on_c, 12, 53, 0
14, 119580, Note_on_c, 12, 50, 76
14, 119580, Control_c, 12, 11, 67
14, 119580, Note_on_c, 12, 53, 76
14, 119639, Note_on_c, 12, 50, 0
14, 119639, Note_on_c, 12, 53, 0
14, 119640, Note_on_c, 12, 55, 76
14, 119640, Note_on_c, 12, 53, 76
14, 119640, Control_c, 12, 11, 69
14, 119699, Note_on_c, 12, 55, 0
14, 119699, Note_on_c, 12, 53, 0
14, 119700, Note_on_c, 12, 53, 76
14, 119700, Control_c, 12, 11, 72
14, 119700, Note_on_c, 12, 50, 76
14, 119759, Note_on_c, 12, 53, 0
14, 119759, Note_on_c, 12, 50, 0
14, 119760, Control_c, 12, 11, 75
14, 119760, Note_on_c, 12, 53, 76
14, 119760, Note_on_c, 12, 55, 76
14, 119819, Note_on_c, 12, 53, 0
14, 119819, Note_on_c, 12, 55, 0
14, 119820, Note_on_c, 12, 53, 76
14, 119820, Note_on_c, 12, 50, 76
14, 119820, Control_c, 12, 11, 77
14, 119879, Note_on_c, 12, 53, 0
14, 119879, Note_on_c, 12, 50, 0
14, 119880, Control_c, 12, 11, 80
14, 119880, Note_on_c, 12, 53, 76
14, 119880, Note_on_c, 12, 55, 76
14, 119939, Note_on_c, 12, 53, 0
14, 119939, Note_on_c, 12, 55, 0
14, 119940, Control_c, 12, 11, 82
14, 119940, Note_on_c, 12, 50, 76
14, 119940, Note_on_c, 12, 53, 76
14, 119999, Note_on_c, 12, 50, 0
14, 119999, Note_on_c, 12, 53, 0
14, 120000, Note_on_c, 12, 53, 76
14, 120000, Control_c, 12, 11, 85
14, 120000, Note_on_c, 12, 55, 76
14, 120059, Note_on_c, 12, 53, 0
14, 120059, Note_on_c, 12, 55, 0
14, 120060, Control_c, 12, 11, 88
14, 120060, Note_on_c, 12, 53, 76
14, 120060, Note_on_c, 12, 50, 76
14, 120119, Note_on_c, 12, 53, 0
14, 120119, Note_on_c, 12, 50, 0
14, 120120, Note_on_c, 12, 53, 76
14, 120120, Note_on_c, 12, 55, 76
14, 120120, Control_c, 12, 11, 90
14, 120179, Note_on_c, 12, 53, 0
14, 120179, Note_on_c, 12, 55, 0
14, 120180, Control_c, 12, 11, 93
14, 120180, Note_on_c, 12, 53, 76
14, 120180, Note_on_c, 12, 50, 76
14, 120233, Note_on_c, 12, 53, 0
14, 120233, Note_on_c, 12, 50, 0
14, 120240, Control_c, 12, 11, 96
14, 120240, Note_on_c, 12, 51, 76
14, 120240, Note_on_c, 12, 55, 76
14, 120299, Note_on_c, 12, 51, 0
14, 120299, Note_on_c, 12, 55, 0
14, 120300, Note_on_c, 12, 48, 76
14, 120300, Control_c, 12, 11, 98
14, 120300, Note_on_c, 12, 51, 76
14, 120359, Note_on_c, 12, 48, 0
14, 120359, Note_on_c, 12, 51, 0
14, 120360, Control_c, 12, 11, 101
14, 120360, Note_on_c, 12, 55, 76
14, 120360, Note_on_c, 12, 51, 76
14, 120419, Note_on_c, 12, 55, 0
14, 120419, Note_on_c, 12, 51, 0
14, 120420, Note_on_c, 12, 48, 76
14, 120420, Note_on_c, 12, 51, 76
14, 120420, Control_c, 12, 11, 103
14, 120479, Note_on_c, 12, 48, 0
14, 120479, Note_on_c, 12, 51, 0
14, 120480, Control_c, 12, 11, 106
14, 120480, Note_on_c, 12, 55, 76
14, 120480, Note_on_c, 12, 51, 76
14, 120539, Note_on_c, 12, 55, 0
14, 120539, Note_on_c, 12, 51, 0
14, 120540, Control_c, 12, 11, 109
14, 120540, Note_on_c, 12, 51, 76
14, 120540, Note_on_c, 12, 48, 76
14, 120599, Note_on_c, 12, 51, 0
14, 120599, Note_on_c, 12, 48, 0
14, 120600, Note_on_c, 12, 55, 76
14, 120600, Control_c, 12, 11, 111
14, 120600, Note_on_c, 12, 51, 76
14, 120659, Note_on_c, 12, 55, 0
14, 120659, Note_on_c, 12, 51, 0
14, 120660, Control_c, 12, 11, 114
14, 120660, Note_on_c, 12, 48, 76
14, 120660, Note_on_c, 12, 51, 76
14, 120719, Note_on_c, 12, 48, 0
14, 120719, Note_on_c, 12, 51, 0
14, 120720, Note_on_c, 12, 51, 76
14, 120720, Note_on_c, 12, 55, 76
14, 120720, Control_c, 12, 11, 117
14, 120779, Note_on_c, 12, 51, 0
14, 120779, Note_on_c, 12, 55, 0
14, 120780, Note_on_c, 12, 48, 76
14, 120780, Control_c, 12, 11, 119
14, 120780, Note_on_c, 12, 51, 76
14, 120839, Note_on_c, 12, 48, 0
14, 120839, Note_on_c, 12, 51, 0
14, 120840, Note_on_c, 12, 55, 76
14, 120840, Note_on_c, 12, 51, 76
14, 120840, Control_c, 12, 11, 122
14, 120899, Note_on_c, 12, 55, 0
14, 120899, Note_on_c, 12, 51, 0
14, 120900, Note_on_c, 12, 48, 76
14, 120900, Control_c, 12, 11, 124
14, 120900, Note_on_c, 12, 51, 76
14, 120953, Note_on_c, 12, 48, 0
14, 120953, Note_on_c, 12, 51, 0
14, 120958, Control_c, 12, 11, 127
14, 120960, Note_on_c, 12, 51, 76
14, 120960, Note_on_c, 12, 53, 76
14, 121019, Note_on_c, 12, 51, 0
14, 121019, Note_on_c, 12, 53, 0
14, 121020, Note_on_c, 12, 48, 76
14, 121020, Note_on_c, 12, 51, 76
14, 121079, Note_on_c, 12, 48, 0
14, 121079, Note_on_c, 12, 51, 0
14, 121080, Note_on_c, 12, 53, 76
14, 121080, Note_on_c, 12, 51, 76
14, 121139, Note_on_c, 12, 53, 0
14, 121139, Note_on_c, 12, 51, 0
14, 121140, Note_on_c, 12, 48, 76
14, 121140, Note_on_c, 12, 51, 76
14, 121199, Note_on_c, 12, 48, 0
14, 121199, Note_on_c, 12, 51, 0
14, 121200, Note_on_c, 12, 53, 76
14, 121200, Note_on_c, 12, 51, 76
14, 121259, Note_on_c, 12, 53, 0
14, 121259, Note_on_c, 12, 51, 0
14, 121260, Note_on_c, 12, 48, 76
14, 121260, Note_on_c, 12, 51, 76
14, 121319, Note_on_c, 12, 48, 0
14, 121319, Note_on_c, 12, 51, 0
14, 121320, Note_on_c, 12, 51, 76
14, 121320, Note_on_c, 12, 53, 76
14, 121379, Note_on_c, 12, 51, 0
14, 121379, Note_on_c, 12, 53, 0
14, 121380, Note_on_c, 12, 48, 76
14, 121380, Note_on_c, 12, 51, 76
14, 121439, Note_on_c, 12, 48, 0
14, 121439, Note_on_c, 12, 51, 0
14, 121440, Note_on_c, 12, 51, 76
14, 121440, Note_on_c, 12, 53, 76
14, 121499, Note_on_c, 12, 51, 0
14, 121499, Note_on_c, 12, 53, 0
14, 121500, Note_on_c, 12, 51, 76
14, 121500, Note_on_c, 12, 48, 76
14, 121559, Note_on_c, 12, 51, 0
14, 121559, Note_on_c, 12, 48, 0
14, 121560, Note_on_c, 12, 51, 76
14, 121560, Note_on_c, 12, 53, 76
14, 121619, Note_on_c, 12, 51, 0
14, 121619, Note_on_c, 12, 53, 0
14, 121620, Note_on_c, 12, 48, 76
14, 121620, Note_on_c, 12, 51, 76
14, 121673, Note_on_c, 12, 48, 0
14, 121673, Note_on_c, 12, 51, 0
14, 121680, Note_on_c, 12, 53, 76
14, 121739, Note_on_c, 12, 53, 0
14, 121740, Note_on_c, 12, 50, 76
14, 121799, Note_on_c, 12, 50, 0
14, 121800, Note_on_c, 12, 55, 76
14, 121859, Note_on_c, 12, 55, 0
14, 121860, Note_on_c, 12, 50, 76
14, 121919, Note_on_c, 12, 50, 0
14, 121920, Note_on_c, 12, 55, 76
14, 121979, Note_on_c, 12, 55, 0
14, 121980, Note_on_c, 12, 50, 76
14, 122033, Note_on_c, 12, 50, 0
14, 122040, Note_on_c, 12, 55, 76
14, 122040, Note_on_c, 12, 58, 76
14, 122099, Note_on_c, 12, 55, 0
14, 122099, Note_on_c, 12, 58, 0
14, 122100, Note_on_c, 12, 48, 76
14, 122100, Note_on_c, 12, 55, 76
14, 122159, Note_on_c, 12, 48, 0
14, 122159, Note_on_c, 12, 55, 0
14, 122160, Note_on_c, 12, 58, 76
14, 122160, Note_on_c, 12, 55, 76
14, 122219, Note_on_c, 12, 58, 0
14, 122219, Note_on_c, 12, 55, 0
14, 122220, Note_on_c, 12, 48, 76
14, 122220, Note_on_c, 12, 55, 76
14, 122279, Note_on_c, 12, 48, 0
14, 122279, Note_on_c, 12, 55, 0
14, 122280, Note_on_c, 12, 58, 76
14, 122280, Note_on_c, 12, 55, 76
14, 122339, Note_on_c, 12, 58, 0
14, 122339, Note_on_c, 12, 55, 0
14, 122340, Note_on_c, 12, 55, 76
14, 122340, Note_on_c, 12, 48, 76
14, 122393, Note_on_c, 12, 55, 0
14, 122393, Note_on_c, 12, 48, 0
14, 122400, Note_on_c, 12, 57, 76
14, 122459, Note_on_c, 12, 57, 0
14, 122460, Note_on_c, 12, 60, 76
14, 122519, Note_on_c, 12, 60, 0
14, 122520, Note_on_c, 12, 60, 75
14, 122579, Note_on_c, 12, 60, 0
14, 122580, Note_on_c, 12, 63, 75
14, 122639, Note_on_c, 12, 63, 0
14, 122640, Note_on_c, 12, 60, 74
14, 122699, Note_on_c, 12, 60, 0
14, 122700, Note_on_c, 12, 63, 74
14, 122759, Note_on_c, 12, 63, 0
14, 122760, Note_on_c, 12, 60, 73
14, 122819, Note_on_c, 12, 60, 0
14, 122820, Note_on_c, 12, 63, 73
14, 122879, Note_on_c, 12, 63, 0
14, 122880, Note_on_c, 12, 62, 72
14, 122939, Note_on_c, 12, 62, 0
14, 122940, Note_on_c, 12, 65, 72
14, 122999, Note_on_c, 12, 65, 0
14, 123000, Note_on_c, 12, 60, 71
14, 123059, Note_on_c, 12, 60, 0
14, 123060, Note_on_c, 12, 63, 71
14, 123119, Note_on_c, 12, 63, 0
14, 123120, Note_on_c, 12, 58, 70
14, 123179, Note_on_c, 12, 58, 0
14, 123180, Note_on_c, 12, 62, 70
14, 123239, Note_on_c, 12, 62, 0
14, 123240, Note_on_c, 12, 58, 69
14, 123299, Note_on_c, 12, 58, 0
14, 123300, Note_on_c, 12, 62, 69
14, 123359, Note_on_c, 12, 62, 0
14, 123360, Note_on_c, 12, 58, 68
14, 123419, Note_on_c, 12, 58, 0
14, 123420, Note_on_c, 12, 62, 68
14, 123479, Note_on_c, 12, 62, 0
14, 123480, Note_on_c, 12, 58, 67
14, 123539, Note_on_c, 12, 58, 0
14, 123540, Note_on_c, 12, 62, 67
14, 123599, Note_on_c, 12, 62, 0
14, 123600, Note_on_c, 12, 60, 66
14, 123659, Note_on_c, 12, 60, 0
14, 123660, Note_on_c, 12, 63, 66
14, 123719, Note_on_c, 12, 63, 0
14, 123720, Note_on_c, 12, 58, 65
14, 123779, Note_on_c, 12, 58, 0
14, 123780, Note_on_c, 12, 62, 65
14, 123839, Note_on_c, 12, 62, 0
14, 123840, Note_on_c, 12, 57, 64
14, 123899, Note_on_c, 12, 57, 0
14, 123900, Note_on_c, 12, 60, 64
14, 123953, Note_on_c, 12, 60, 0
14, 123960, Note_on_c, 12, 72, 63
14, 124019, Note_on_c, 12, 72, 0
14, 124020, Note_on_c, 12, 69, 63
14, 124079, Note_on_c, 12, 69, 0
14, 124080, Note_on_c, 12, 72, 62
14, 124139, Note_on_c, 12, 72, 0
14, 124140, Note_on_c, 12, 69, 62
14, 124199, Note_on_c, 12, 69, 0
14, 124200, Note_on_c, 12, 72, 61
14, 124259, Note_on_c, 12, 72, 0
14, 124260, Note_on_c, 12, 69, 61
14, 124319, Note_on_c, 12, 69, 0
14, 124320, Note_on_c, 12, 74, 60
14, 124379, Note_on_c, 12, 74, 0
14, 124380, Note_on_c, 12, 70, 60
14, 124439, Note_on_c, 12, 70, 0
14, 124440, Note_on_c, 12, 72, 59
14, 124499, Note_on_c, 12, 72, 0
14, 124500, Note_on_c, 12, 69, 59
14, 124559, Note_on_c, 12, 69, 0
14, 124560, Note_on_c, 12, 70, 58
14, 124619, Note_on_c, 12, 70, 0
14, 124620, Note_on_c, 12, 67, 58
14, 124679, Note_on_c, 12, 67, 0
14, 124680, Note_on_c, 12, 70, 57
14, 124739, Note_on_c, 12, 70, 0
14, 124740, Note_on_c, 12, 67, 57
14, 124799, Note_on_c, 12, 67, 0
14, 124800, Note_on_c, 12, 70, 56
14, 124859, Note_on_c, 12, 70, 0
14, 124860, Note_on_c, 12, 67, 56
14, 124919, Note_on_c, 12, 67, 0
14, 124920, Note_on_c, 12, 70, 55
14, 124979, Note_on_c, 12, 70, 0
14, 124980, Note_on_c, 12, 67, 55
14, 125039, Note_on_c, 12, 67, 0
14, 125040, Note_on_c, 12, 72, 54
14, 125099, Note_on_c, 12, 72, 0
14, 125100, Note_on_c, 12, 69, 54
14, 125159, Note_on_c, 12, 69, 0
14, 125160, Note_on_c, 12, 70, 53
14, 125219, Note_on_c, 12, 70, 0
14, 125220, Note_on_c, 12, 67, 53
14, 125273, Note_on_c, 12, 67, 0
14, 125280, Note_on_c, 12, 69, 52
14, 125339, Note_on_c, 12, 69, 0
14, 125340, Note_on_c, 12, 65, 52
14, 125399, Note_on_c, 12, 65, 0
14, 125400, Note_on_c, 12, 70, 52
14, 125459, Note_on_c, 12, 70, 0
14, 125460, Note_on_c, 12, 67, 52
14, 125519, Note_on_c, 12, 67, 0
14, 125520, Note_on_c, 12, 67, 52
14, 125579, Note_on_c, 12, 67, 0
14, 125580, Note_on_c, 12, 63, 52
14, 125639, Note_on_c, 12, 63, 0
14, 125640, Note_on_c, 12, 69, 52
14, 125699, Note_on_c, 12, 69, 0
14, 125700, Note_on_c, 12, 65, 52
14, 125759, Note_on_c, 12, 65, 0
14, 125760, Note_on_c, 12, 65, 52
14, 125819, Note_on_c, 12, 65, 0
14, 125820, Note_on_c, 12, 62, 52
14, 125879, Note_on_c, 12, 62, 0
14, 125880, Note_on_c, 12, 67, 52
14, 125939, Note_on_c, 12, 67, 0
14, 125940, Note_on_c, 12, 63, 52
14, 125999, Note_on_c, 12, 63, 0
14, 126000, Note_on_c, 12, 63, 52
14, 126059, Note_on_c, 12, 63, 0
14, 126060, Note_on_c, 12, 60, 52
14, 126119, Note_on_c, 12, 60, 0
14, 126120, Note_on_c, 12, 65, 52
14, 126179, Note_on_c, 12, 65, 0
14, 126180, Note_on_c, 12, 62, 52
14, 126239, Note_on_c, 12, 62, 0
14, 126240, Note_on_c, 12, 62, 52
14, 126299, Note_on_c, 12, 62, 0
14, 126300, Note_on_c, 12, 58, 52
14, 126359, Note_on_c, 12, 58, 0
14, 126360, Note_on_c, 12, 63, 52
14, 126419, Note_on_c, 12, 63, 0
14, 126420, Note_on_c, 12, 60, 52
14, 126479, Note_on_c, 12, 60, 0
14, 126480, Note_on_c, 12, 60, 52
14, 126539, Note_on_c, 12, 60, 0
14, 126540, Note_on_c, 12, 57, 52
14, 126599, Note_on_c, 12, 57, 0
14, 126600, Note_on_c, 12, 62, 52
14, 126659, Note_on_c, 12, 62, 0
14, 126660, Note_on_c, 12, 58, 52
14, 126713, Note_on_c, 12, 58, 0
14, 126720, Note_on_c, 12, 63, 52
14, 126779, Note_on_c, 12, 63, 0
14, 126780, Note_on_c, 12, 60, 52
14, 126839, Note_on_c, 12, 60, 0
14, 126840, Note_on_c, 12, 65, 52
14, 126899, Note_on_c, 12, 65, 0
14, 126900, Note_on_c, 12, 62, 52
14, 126959, Note_on_c, 12, 62, 0
14, 126960, Note_on_c, 12, 67, 52
14, 127019, Note_on_c, 12, 67, 0
14, 127020, Note_on_c, 12, 63, 52
14, 127079, Note_on_c, 12, 63, 0
14, 127080, Note_on_c, 12, 65, 52
14, 127139, Note_on_c, 12, 65, 0
14, 127140, Note_on_c, 12, 62, 52
14, 127199, Note_on_c, 12, 62, 0
14, 127200, Note_on_c, 12, 62, 52
14, 127259, Note_on_c, 12, 62, 0
14, 127260, Note_on_c, 12, 58, 52
14, 127319, Note_on_c, 12, 58, 0
14, 127320, Note_on_c, 12, 63, 52
14, 127379, Note_on_c, 12, 63, 0
14, 127380, Note_on_c, 12, 60, 52
14, 127439, Note_on_c, 12, 60, 0
14, 127440, Note_on_c, 12, 60, 52
14, 127499, Note_on_c, 12, 60, 0
14, 127500, Note_on_c, 12, 57, 52
14, 127559, Note_on_c, 12, 57, 0
14, 127560, Note_on_c, 12, 62, 52
14, 127619, Note_on_c, 12, 62, 0
14, 127620, Note_on_c, 12, 58, 52
14, 127679, Note_on_c, 12, 58, 0
14, 127680, Note_on_c, 12, 63, 52
14, 127739, Note_on_c, 12, 63, 0
14, 127740, Note_on_c, 12, 60, 52
14, 127799, Note_on_c, 12, 60, 0
14, 127800, Note_on_c, 12, 65, 52
14, 127859, Note_on_c, 12, 65, 0
14, 127860, Note_on_c, 12, 62, 52
14, 127919, Note_on_c, 12, 62, 0
14, 127920, Note_on_c, 12, 67, 52
14, 127979, Note_on_c, 12, 67, 0
14, 127980, Note_on_c, 12, 63, 52
14, 128039, Note_on_c, 12, 63, 0
14, 128040, Note_on_c, 12, 63, 52
14, 128099, Note_on_c, 12, 63, 0
14, 128100, Note_on_c, 12, 60, 52
14, 128153, Note_on_c, 12, 60, 0
14, 128160, Note_on_c, 12, 65, 52
14, 128219, Note_on_c, 12, 65, 0
14, 128220, Note_on_c, 12, 62, 52
14, 128279, Note_on_c, 12, 62, 0
14, 128280, Note_on_c, 12, 62, 52
14, 128339, Note_on_c, 12, 62, 0
14, 128340, Note_on_c, 12, 58, 52
14, 128399, Note_on_c, 12, 58, 0
14, 128400, Note_on_c, 12, 63, 52
14, 128459, Note_on_c, 12, 63, 0
14, 128460, Note_on_c, 12, 60, 52
14, 128519, Note_on_c, 12, 60, 0
14, 128520, Note_on_c, 12, 60, 52
14, 128579, Note_on_c, 12, 60, 0
14, 128580, Note_on_c, 12, 57, 52
14, 128639, Note_on_c, 12, 57, 0
14, 128640, Note_on_c, 12, 62, 52
14, 128699, Note_on_c, 12, 62, 0
14, 128700, Note_on_c, 12, 58, 52
14, 128759, Note_on_c, 12, 58, 0
14, 128760, Note_on_c, 12, 63, 52
14, 128819, Note_on_c, 12, 63, 0
14, 128820, Note_on_c, 12, 60, 52
14, 128879, Note_on_c, 12, 60, 0
14, 128880, Note_on_c, 12, 65, 52
14, 128939, Note_on_c, 12, 65, 0
14, 128940, Note_on_c, 12, 62, 53
14, 128999, Note_on_c, 12, 62, 0
14, 129000, Note_on_c, 12, 62, 54
14, 129059, Note_on_c, 12, 62, 0
14, 129060, Note_on_c, 12, 58, 56
14, 129119, Note_on_c, 12, 58, 0
14, 129120, Note_on_c, 12, 63, 57
14, 129179, Note_on_c, 12, 63, 0
14, 129180, Note_on_c, 12, 60, 58
14, 129239, Note_on_c, 12, 60, 0
14, 129240, Note_on_c, 12, 60, 60
14, 129299, Note_on_c, 12, 60, 0
14, 129300, Note_on_c, 12, 57, 61
14, 129359, Note_on_c, 12, 57, 0
14, 129360, Note_on_c, 12, 62, 62
14, 129419, Note_on_c, 12, 62, 0
14, 129420, Note_on_c, 12, 58, 64
14, 129479, Note_on_c, 12, 58, 0
14, 129480, Note_on_c, 12, 60, 65
14, 129539, Note_on_c, 12, 60, 0
14, 129540, Note_on_c, 12, 57, 66
14, 129593, Note_on_c, 12, 57, 0
14, 129600, Note_on_c, 12, 58, 52
14, 129659, Note_on_c, 12, 58, 0
14, 129660, Note_on_c, 12, 62, 52
14, 129719, Note_on_c, 12, 62, 0
14, 129720, Note_on_c, 12, 65, 52
14, 129779, Note_on_c, 12, 65, 0
14, 129780, Note_on_c, 12, 62, 52
14, 129839, Note_on_c, 12, 62, 0
14, 129840, Note_on_c, 12, 65, 52
14, 129899, Note_on_c, 12, 65, 0
14, 129900, Note_on_c, 12, 62, 52
14, 129959, Note_on_c, 12, 62, 0
14, 129960, Note_on_c, 12, 67, 52
14, 130019, Note_on_c, 12, 67, 0
14, 130020, Note_on_c, 12, 63, 52
14, 130079, Note_on_c, 12, 63, 0
14, 130080, Note_on_c, 12, 65, 52
14, 130139, Note_on_c, 12, 65, 0
14, 130140, Note_on_c, 12, 62, 52
14, 130199, Note_on_c, 12, 62, 0
14, 130200, Note_on_c, 12, 65, 52
14, 130259, Note_on_c, 12, 65, 0
14, 130260, Note_on_c, 12, 62, 52
14, 130319, Note_on_c, 12, 62, 0
14, 130320, Note_on_c, 12, 63, 52
14, 130379, Note_on_c, 12, 63, 0
14, 130380, Note_on_c, 12, 60, 52
14, 130439, Note_on_c, 12, 60, 0
14, 130440, Note_on_c, 12, 62, 52
14, 130499, Note_on_c, 12, 62, 0
14, 130500, Note_on_c, 12, 58, 52
14, 130559, Note_on_c, 12, 58, 0
14, 130560, Note_on_c, 12, 62, 52
14, 130619, Note_on_c, 12, 62, 0
14, 130620, Note_on_c, 12, 58, 52
14, 130679, Note_on_c, 12, 58, 0
14, 130680, Note_on_c, 12, 60, 52
14, 130739, Note_on_c, 12, 60, 0
14, 130740, Note_on_c, 12, 57, 52
14, 130799, Note_on_c, 12, 57, 0
14, 130800, Note_on_c, 12, 62, 52
14, 130859, Note_on_c, 12, 62, 0
14, 130860, Note_on_c, 12, 58, 52
14, 130919, Note_on_c, 12, 58, 0
14, 130920, Note_on_c, 12, 62, 52
14, 130979, Note_on_c, 12, 62, 0
14, 130980, Note_on_c, 12, 58, 52
14, 131033, Note_on_c, 12, 58, 0
14, 131040, Note_on_c, 12, 62, 52
14, 131099, Note_on_c, 12, 62, 0
14, 131100, Note_on_c, 12, 58, 52
14, 131159, Note_on_c, 12, 58, 0
14, 131160, Note_on_c, 12, 65, 52
14, 131219, Note_on_c, 12, 65, 0
14, 131220, Note_on_c, 12, 62, 52
14, 131279, Note_on_c, 12, 62, 0
14, 131280, Note_on_c, 12, 65, 52
14, 131339, Note_on_c, 12, 65, 0
14, 131340, Note_on_c, 12, 62, 52
14, 131399, Note_on_c, 12, 62, 0
14, 131400, Note_on_c, 12, 67, 52
14, 131459, Note_on_c, 12, 67, 0
14, 131460, Note_on_c, 12, 63, 52
14, 131519, Note_on_c, 12, 63, 0
14, 131520, Note_on_c, 12, 65, 52
14, 131579, Note_on_c, 12, 65, 0
14, 131580, Note_on_c, 12, 62, 52
14, 131639, Note_on_c, 12, 62, 0
14, 131640, Note_on_c, 12, 65, 52
14, 131699, Note_on_c, 12, 65, 0
14, 131700, Note_on_c, 12, 62, 52
14, 131759, Note_on_c, 12, 62, 0
14, 131760, Note_on_c, 12, 63, 52
14, 131819, Note_on_c, 12, 63, 0
14, 131820, Note_on_c, 12, 60, 52
14, 131879, Note_on_c, 12, 60, 0
14, 131880, Note_on_c, 12, 62, 52
14, 131939, Note_on_c, 12, 62, 0
14, 131940, Note_on_c, 12, 58, 52
14, 131999, Note_on_c, 12, 58, 0
14, 132000, Note_on_c, 12, 62, 52
14, 132059, Note_on_c, 12, 62, 0
14, 132060, Note_on_c, 12, 58, 52
14, 132119, Note_on_c, 12, 58, 0
14, 132120, Note_on_c, 12, 60, 52
14, 132179, Note_on_c, 12, 60, 0
14, 132180, Note_on_c, 12, 57, 52
14, 132239, Note_on_c, 12, 57, 0
14, 132240, Note_on_c, 12, 62, 52
14, 132299, Note_on_c, 12, 62, 0
14, 132300, Note_on_c, 12, 58, 52
14, 132359, Note_on_c, 12, 58, 0
14, 132360, Note_on_c, 12, 62, 52
14, 132419, Note_on_c, 12, 62, 0
14, 132420, Note_on_c, 12, 58, 52
14, 132473, Note_on_c, 12, 58, 0
14, 132480, Note_on_c, 12, 63, 52
14, 132539, Note_on_c, 12, 63, 0
14, 132540, Note_on_c, 12, 57, 52
14, 132599, Note_on_c, 12, 57, 0
14, 132600, Note_on_c, 12, 63, 52
14, 132659, Note_on_c, 12, 63, 0
14, 132660, Note_on_c, 12, 60, 52
14, 132719, Note_on_c, 12, 60, 0
14, 132720, Note_on_c, 12, 63, 52
14, 132779, Note_on_c, 12, 63, 0
14, 132780, Note_on_c, 12, 60, 52
14, 132839, Note_on_c, 12, 60, 0
14, 132840, Note_on_c, 12, 65, 52
14, 132899, Note_on_c, 12, 65, 0
14, 132900, Note_on_c, 12, 62, 52
14, 132959, Note_on_c, 12, 62, 0
14, 132960, Note_on_c, 12, 63, 52
14, 133019, Note_on_c, 12, 63, 0
14, 133020, Note_on_c, 12, 60, 52
14, 133079, Note_on_c, 12, 60, 0
14, 133080, Note_on_c, 12, 63, 52
14, 133139, Note_on_c, 12, 63, 0
14, 133140, Note_on_c, 12, 60, 52
14, 133199, Note_on_c, 12, 60, 0
14, 133200, Note_on_c, 12, 62, 52
14, 133259, Note_on_c, 12, 62, 0
14, 133260, Note_on_c, 12, 58, 52
14, 133319, Note_on_c, 12, 58, 0
14, 133320, Note_on_c, 12, 60, 52
14, 133379, Note_on_c, 12, 60, 0
14, 133380, Note_on_c, 12, 57, 52
14, 133439, Note_on_c, 12, 57, 0
14, 133440, Note_on_c, 12, 60, 52
14, 133499, Note_on_c, 12, 60, 0
14, 133500, Note_on_c, 12, 57, 52
14, 133559, Note_on_c, 12, 57, 0
14, 133560, Note_on_c, 12, 58, 52
14, 133619, Note_on_c, 12, 58, 0
14, 133620, Note_on_c, 12, 55, 52
14, 133679, Note_on_c, 12, 55, 0
14, 133680, Note_on_c, 12, 60, 52
14, 133739, Note_on_c, 12, 60, 0
14, 133740, Note_on_c, 12, 57, 52
14, 133799, Note_on_c, 12, 57, 0
14, 133800, Note_on_c, 12, 60, 52
14, 133859, Note_on_c, 12, 60, 0
14, 133860, Note_on_c, 12, 57, 52
14, 133913, Note_on_c, 12, 57, 0
14, 133920, Note_on_c, 12, 60, 52
14, 133979, Note_on_c, 12, 60, 0
14, 133980, Note_on_c, 12, 57, 52
14, 134039, Note_on_c, 12, 57, 0
14, 134040, Note_on_c, 12, 63, 52
14, 134099, Note_on_c, 12, 63, 0
14, 134100, Note_on_c, 12, 60, 52
14, 134159, Note_on_c, 12, 60, 0
14, 134160, Note_on_c, 12, 63, 52
14, 134219, Note_on_c, 12, 63, 0
14, 134220, Note_on_c, 12, 60, 52
14, 134279, Note_on_c, 12, 60, 0
14, 134280, Note_on_c, 12, 65, 52
14, 134339, Note_on_c, 12, 65, 0
14, 134340, Note_on_c, 12, 62, 52
14, 134399, Note_on_c, 12, 62, 0
14, 134400, Note_on_c, 12, 63, 52
14, 134459, Note_on_c, 12, 63, 0
14, 134460, Note_on_c, 12, 60, 52
14, 134519, Note_on_c, 12, 60, 0
14, 134520, Note_on_c, 12, 63, 52
14, 134579, Note_on_c, 12, 63, 0
14, 134580, Note_on_c, 12, 60, 52
14, 134639, Note_on_c, 12, 60, 0
14, 134640, Note_on_c, 12, 62, 52
14, 134699, Note_on_c, 12, 62, 0
14, 134700, Note_on_c, 12, 58, 52
14, 134759, Note_on_c, 12, 58, 0
14, 134760, Note_on_c, 12, 60, 52
14, 134819, Note_on_c, 12, 60, 0
14, 134820, Note_on_c, 12, 57, 52
14, 134879, Note_on_c, 12, 57, 0
14, 134880, Note_on_c, 12, 60, 52
14, 134939, Note_on_c, 12, 60, 0
14, 134940, Note_on_c, 12, 57, 52
14, 134999, Note_on_c, 12, 57, 0
14, 135000, Note_on_c, 12, 58, 52
14, 135059, Note_on_c, 12, 58, 0
14, 135060, Note_on_c, 12, 55, 52
14, 135119, Note_on_c, 12, 55, 0
14, 135120, Note_on_c, 12, 57, 52
14, 135179, Note_on_c, 12, 57, 0
14, 135180, Note_on_c, 12, 53, 52
14, 135239, Note_on_c, 12, 53, 0
14, 135240, Note_on_c, 12, 57, 52
14, 135299, Note_on_c, 12, 57, 0
14, 135300, Note_on_c, 12, 53, 52
14, 135353, Note_on_c, 12, 53, 0
14, 135360, Note_on_c, 12, 58, 52
14, 135419, Note_on_c, 12, 58, 0
14, 135420, Note_on_c, 12, 53, 53
14, 135479, Note_on_c, 12, 53, 0
14, 135480, Note_on_c, 12, 58, 54
14, 135539, Note_on_c, 12, 58, 0
14, 135540, Note_on_c, 12, 53, 55
14, 135599, Note_on_c, 12, 53, 0
14, 135600, Note_on_c, 12, 58, 56
14, 135659, Note_on_c, 12, 58, 0
14, 135660, Note_on_c, 12, 53, 57
14, 135719, Note_on_c, 12, 53, 0
14, 135720, Note_on_c, 12, 58, 58
14, 135779, Note_on_c, 12, 58, 0
14, 135780, Note_on_c, 12, 53, 59
14, 135839, Note_on_c, 12, 53, 0
14, 135840, Note_on_c, 12, 58, 60
14, 135899, Note_on_c, 12, 58, 0
14, 135900, Note_on_c, 12, 53, 61
14, 135959, Note_on_c, 12, 53, 0
14, 135960, Note_on_c, 12, 58, 62
14, 136019, Note_on_c, 12, 58, 0
14, 136020, Note_on_c, 12, 53, 63
14, 136073, Note_on_c, 12, 53, 0
14, 136080, Note_on_c, 12, 58, 64
14, 136139, Note_on_c, 12, 58, 0
14, 136140, Note_on_c, 12, 55, 65
14, 136199, Note_on_c, 12, 55, 0
14, 136200, Note_on_c, 12, 58, 66
14, 136259, Note_on_c, 12, 58, 0
14, 136260, Note_on_c, 12, 55, 67
14, 136319, Note_on_c, 12, 55, 0
14, 136320, Note_on_c, 12, 58, 68
14, 136379, Note_on_c, 12, 58, 0
14, 136380, Note_on_c, 12, 55, 69
14, 136439, Note_on_c, 12, 55, 0
14, 136440, Note_on_c, 12, 58, 70
14, 136499, Note_on_c, 12, 58, 0
14, 136500, Note_on_c, 12, 55, 71
14, 136559, Note_on_c, 12, 55, 0
14, 136560, Note_on_c, 12, 58, 72
14, 136619, Note_on_c, 12, 58, 0
14, 136620, Note_on_c, 12, 55, 73
14, 136679, Note_on_c, 12, 55, 0
14, 136680, Note_on_c, 12, 58, 74
14, 136739, Note_on_c, 12, 58, 0
14, 136740, Note_on_c, 12, 55, 75
14, 136793, Note_on_c, 12, 55, 0
14, 136800, Note_on_c, 12, 58, 76
14, 136859, Note_on_c, 12, 58, 0
14, 136860, Note_on_c, 12, 53, 52
14, 136919, Note_on_c, 12, 53, 0
14, 136920, Note_on_c, 12, 58, 52
14, 136979, Note_on_c, 12, 58, 0
14, 136980, Note_on_c, 12, 53, 52
14, 137039, Note_on_c, 12, 53, 0
14, 137040, Note_on_c, 12, 58, 52
14, 137099, Note_on_c, 12, 58, 0
14, 137100, Note_on_c, 12, 53, 52
14, 137159, Note_on_c, 12, 53, 0
14, 137160, Note_on_c, 12, 58, 52
14, 137219, Note_on_c, 12, 58, 0
14, 137220, Note_on_c, 12, 53, 52
14, 137279, Note_on_c, 12, 53, 0
14, 137280, Note_on_c, 12, 58, 52
14, 137339, Note_on_c, 12, 58, 0
14, 137340, Note_on_c, 12, 53, 52
14, 137399, Note_on_c, 12, 53, 0
14, 137400, Note_on_c, 12, 58, 52
14, 137459, Note_on_c, 12, 58, 0
14, 137460, Note_on_c, 12, 53, 52
14, 137513, Note_on_c, 12, 53, 0
14, 137520, Note_on_c, 12, 58, 52
14, 137579, Note_on_c, 12, 58, 0
14, 137580, Note_on_c, 12, 53, 54
14, 137639, Note_on_c, 12, 53, 0
14, 137640, Note_on_c, 12, 58, 57
14, 137699, Note_on_c, 12, 58, 0
14, 137700, Note_on_c, 12, 53, 60
14, 137759, Note_on_c, 12, 53, 0
14, 137760, Note_on_c, 12, 58, 62
14, 137819, Note_on_c, 12, 58, 0
14, 137820, Note_on_c, 12, 53, 65
14, 137873, Note_on_c, 12, 53, 0
14, 137880, Note_on_c, 12, 57, 68
14, 137939, Note_on_c, 12, 57, 0
14, 137940, Note_on_c, 12, 53, 66
14, 137999, Note_on_c, 12, 53, 0
14, 138000, Note_on_c, 12, 57, 63
14, 138059, Note_on_c, 12, 57, 0
14, 138060, Note_on_c, 12, 53, 60
14, 138119, Note_on_c, 12, 53, 0
14, 138120, Note_on_c, 12, 57, 58
14, 138179, Note_on_c, 12, 57, 0
14, 138180, Note_on_c, 12, 53, 55
14, 138233, Note_on_c, 12, 53, 0
14, 138240, Note_on_c, 12, 58, 52
14, 138299, Note_on_c, 12, 58, 0
14, 138300, Note_on_c, 12, 55, 53
14, 138359, Note_on_c, 12, 55, 0
14, 138360, Note_on_c, 12, 62, 54
14, 138419, Note_on_c, 12, 62, 0
14, 138420, Note_on_c, 12, 58, 55
14, 138479, Note_on_c, 12, 58, 0
14, 138480, Note_on_c, 12, 62, 56
14, 138539, Note_on_c, 12, 62, 0
14, 138540, Note_on_c, 12, 58, 57
14, 138599, Note_on_c, 12, 58, 0
14, 138600, Note_on_c, 12, 63, 58
14, 138659, Note_on_c, 12, 63, 0
14, 138660, Note_on_c, 12, 60, 59
14, 138719, Note_on_c, 12, 60, 0
14, 138720, Note_on_c, 12, 62, 60
14, 138779, Note_on_c, 12, 62, 0
14, 138780, Note_on_c, 12, 58, 61
14, 138839, Note_on_c, 12, 58, 0
14, 138840, Note_on_c, 12, 62, 62
14, 138899, Note_on_c, 12, 62, 0
14, 138900, Note_on_c, 12, 58, 63
14, 138959, Note_on_c, 12, 58, 0
14, 139080, Note_on_c, 12, 70, 66
14, 139139, Note_on_c, 12, 70, 0
14, 139140, Note_on_c, 12, 67, 67
14, 139199, Note_on_c, 12, 67, 0
14, 139200, Note_on_c, 12, 70, 68
14, 139259, Note_on_c, 12, 70, 0
14, 139260, Note_on_c, 12, 67, 69
14, 139319, Note_on_c, 12, 67, 0
14, 139320, Note_on_c, 12, 72, 70
14, 139379, Note_on_c, 12, 72, 0
14, 139380, Note_on_c, 12, 69, 71
14, 139439, Note_on_c, 12, 69, 0
14, 139440, Note_on_c, 12, 70, 72
14, 139499, Note_on_c, 12, 70, 0
14, 139500, Note_on_c, 12, 67, 73
14, 139559, Note_on_c, 12, 67, 0
14, 139560, Note_on_c, 12, 70, 74
14, 139619, Note_on_c, 12, 70, 0
14, 139620, Note_on_c, 12, 67, 75
14, 139679, Note_on_c, 12, 67, 0
14, 139800, Note_on_c, 12, 67, 76
14, 139859, Note_on_c, 12, 67, 0
14, 139860, Note_on_c, 12, 64, 76
14, 139919, Note_on_c, 12, 64, 0
14, 139920, Note_on_c, 12, 67, 76
14, 139979, Note_on_c, 12, 67, 0
14, 139980, Note_on_c, 12, 64, 76
14, 140039, Note_on_c, 12, 64, 0
14, 140040, Note_on_c, 12, 69, 76
14, 140099, Note_on_c, 12, 69, 0
14, 140100, Note_on_c, 12, 65, 76
14, 140159, Note_on_c, 12, 65, 0
14, 140160, Note_on_c, 12, 67, 76
14, 140219, Note_on_c, 12, 67, 0
14, 140220, Note_on_c, 12, 64, 76
14, 140279, Note_on_c, 12, 64, 0
14, 140280, Note_on_c, 12, 67, 76
14, 140339, Note_on_c, 12, 67, 0
14, 140340, Note_on_c, 12, 64, 76
14, 140399, Note_on_c, 12, 64, 0
14, 140400, Note_on_c, 12, 65, 76
14, 140459, Note_on_c, 12, 65, 0
14, 140460, Note_on_c, 12, 62, 76
14, 140519, Note_on_c, 12, 62, 0
14, 140520, Note_on_c, 12, 64, 76
14, 140579, Note_on_c, 12, 64, 0
14, 140580, Note_on_c, 12, 60, 76
14, 140639, Note_on_c, 12, 60, 0
14, 140640, Note_on_c, 12, 64, 76
14, 140699, Note_on_c, 12, 64, 0
14, 140700, Note_on_c, 12, 60, 76
14, 140759, Note_on_c, 12, 60, 0
14, 140760, Note_on_c, 12, 62, 76
14, 140819, Note_on_c, 12, 62, 0
14, 140820, Note_on_c, 12, 58, 72
14, 140879, Note_on_c, 12, 58, 0
14, 140880, Note_on_c, 12, 60, 68
14, 140939, Note_on_c, 12, 60, 0
14, 140940, Note_on_c, 12, 57, 64
14, 140999, Note_on_c, 12, 57, 0
14, 141000, Note_on_c, 12, 58, 60
14, 141059, Note_on_c, 12, 58, 0
14, 141060, Note_on_c, 12, 55, 56
14, 141113, Note_on_c, 12, 55, 0
14, 141120, Note_on_c, 12, 57, 52
14, 141179, Note_on_c, 12, 57, 0
14, 141180, Note_on_c, 12, 53, 52
14, 141239, Note_on_c, 12, 53, 0
14, 141240, Note_on_c, 12, 57, 52
14, 141299, Note_on_c, 12, 57, 0
14, 141300, Note_on_c, 12, 53, 52
14, 141359, Note_on_c, 12, 53, 0
14, 141360, Note_on_c, 12, 57, 52
14, 141419, Note_on_c, 12, 57, 0
14, 141420, Note_on_c, 12, 53, 52
14, 141479, Note_on_c, 12, 53, 0
14, 141480, Note_on_c, 12, 57, 52
14, 141539, Note_on_c, 12, 57, 0
14, 141540, Note_on_c, 12, 53, 52
14, 141599, Note_on_c, 12, 53, 0
14, 141600, Note_on_c, 12, 57, 52
14, 141659, Note_on_c, 12, 57, 0
14, 141660, Note_on_c, 12, 53, 52
14, 141719, Note_on_c, 12, 53, 0
14, 141720, Note_on_c, 12, 57, 52
14, 141779, Note_on_c, 12, 57, 0
14, 141780, Note_on_c, 12, 53, 52
14, 141833, Note_on_c, 12, 53, 0
14, 141840, Note_on_c, 12, 58, 52
14, 141899, Note_on_c, 12, 58, 0
14, 141900, Note_on_c, 12, 53, 52
14, 141959, Note_on_c, 12, 53, 0
14, 141960, Note_on_c, 12, 58, 52
14, 142019, Note_on_c, 12, 58, 0
14, 142020, Note_on_c, 12, 53, 52
14, 142079, Note_on_c, 12, 53, 0
14, 142080, Note_on_c, 12, 58, 52
14, 142139, Note_on_c, 12, 58, 0
14, 142140, Note_on_c, 12, 53, 52
14, 142199, Note_on_c, 12, 53, 0
14, 142200, Note_on_c, 12, 58, 52
14, 142259, Note_on_c, 12, 58, 0
14, 142260, Note_on_c, 12, 53, 52
14, 142319, Note_on_c, 12, 53, 0
14, 142320, Note_on_c, 12, 58, 52
14, 142379, Note_on_c, 12, 58, 0
14, 142380, Note_on_c, 12, 53, 52
14, 142439, Note_on_c, 12, 53, 0
14, 142440, Note_on_c, 12, 58, 52
14, 142499, Note_on_c, 12, 58, 0
14, 142500, Note_on_c, 12, 53, 52
14, 142553, Note_on_c, 12, 53, 0
14, 142560, Note_on_c, 12, 60, 52
14, 142619, Note_on_c, 12, 60, 0
14, 142620, Note_on_c, 12, 53, 52
14, 142679, Note_on_c, 12, 53, 0
14, 142680, Note_on_c, 12, 60, 52
14, 142739, Note_on_c, 12, 60, 0
14, 142740, Note_on_c, 12, 53, 52
14, 142799, Note_on_c, 12, 53, 0
14, 142800, Note_on_c, 12, 60, 52
14, 142859, Note_on_c, 12, 60, 0
14, 142860, Note_on_c, 12, 53, 52
14, 142919, Note_on_c, 12, 53, 0
14, 142920, Note_on_c, 12, 60, 52
14, 142979, Note_on_c, 12, 60, 0
14, 142980, Note_on_c, 12, 53, 52
14, 143039, Note_on_c, 12, 53, 0
14, 143040, Note_on_c, 12, 60, 52
14, 143099, Note_on_c, 12, 60, 0
14, 143100, Note_on_c, 12, 53, 52
14, 143159, Note_on_c, 12, 53, 0
14, 143160, Note_on_c, 12, 60, 52
14, 143219, Note_on_c, 12, 60, 0
14, 143220, Note_on_c, 12, 53, 52
14, 143273, Note_on_c, 12, 53, 0
14, 143280, Note_on_c, 12, 58, 52
14, 143339, Note_on_c, 12, 58, 0
14, 143340, Note_on_c, 12, 53, 52
14, 143399, Note_on_c, 12, 53, 0
14, 143400, Note_on_c, 12, 58, 52
14, 143459, Note_on_c, 12, 58, 0
14, 143460, Note_on_c, 12, 53, 52
14, 143519, Note_on_c, 12, 53, 0
14, 143520, Note_on_c, 12, 58, 52
14, 143579, Note_on_c, 12, 58, 0
14, 143580, Note_on_c, 12, 53, 52
14, 143639, Note_on_c, 12, 53, 0
14, 143640, Note_on_c, 12, 58, 52
14, 143699, Note_on_c, 12, 58, 0
14, 143700, Note_on_c, 12, 53, 52
14, 143759, Note_on_c, 12, 53, 0
14, 143760, Note_on_c, 12, 58, 52
14, 143819, Note_on_c, 12, 58, 0
14, 143820, Note_on_c, 12, 53, 52
14, 143879, Note_on_c, 12, 53, 0
14, 143880, Note_on_c, 12, 58, 52
14, 143939, Note_on_c, 12, 58, 0
14, 143940, Note_on_c, 12, 53, 52
14, 143993, Note_on_c, 12, 53, 0
14, 144000, Note_on_c, 12, 57, 52
14, 144059, Note_on_c, 12, 57, 0
14, 144060, Note_on_c, 12, 53, 53
14, 144119, Note_on_c, 12, 53, 0
14, 144120, Note_on_c, 12, 57, 54
14, 144179, Note_on_c, 12, 57, 0
14, 144180, Note_on_c, 12, 53, 56
14, 144239, Note_on_c, 12, 53, 0
14, 144240, Note_on_c, 12, 57, 57
14, 144299, Note_on_c, 12, 57, 0
14, 144300, Note_on_c, 12, 53, 58
14, 144359, Note_on_c, 12, 53, 0
14, 144360, Note_on_c, 12, 57, 60
14, 144419, Note_on_c, 12, 57, 0
14, 144420, Note_on_c, 12, 53, 61
14, 144479, Note_on_c, 12, 53, 0
14, 144480, Note_on_c, 12, 57, 62
14, 144539, Note_on_c, 12, 57, 0
14, 144540, Note_on_c, 12, 53, 64
14, 144599, Note_on_c, 12, 53, 0
14, 144600, Note_on_c, 12, 57, 65
14, 144659, Note_on_c, 12, 57, 0
14, 144660, Note_on_c, 12, 53, 66
14, 144713, Note_on_c, 12, 53, 0
14, 144720, Note_on_c, 12, 57, 68
14, 144779, Note_on_c, 12, 57, 0
14, 144780, Note_on_c, 12, 53, 67
14, 144839, Note_on_c, 12, 53, 0
14, 144840, Note_on_c, 12, 57, 66
14, 144899, Note_on_c, 12, 57, 0
14, 144900, Note_on_c, 12, 53, 64
14, 144959, Note_on_c, 12, 53, 0
14, 144960, Note_on_c, 12, 57, 63
14, 145019, Note_on_c, 12, 57, 0
14, 145020, Note_on_c, 12, 53, 62
14, 145079, Note_on_c, 12, 53, 0
14, 145080, Note_on_c, 12, 57, 60
14, 145139, Note_on_c, 12, 57, 0
14, 145140, Note_on_c, 12, 53, 59
14, 145199, Note_on_c, 12, 53, 0
14, 145200, Note_on_c, 12, 57, 58
14, 145259, Note_on_c, 12, 57, 0
14, 145260, Note_on_c, 12, 53, 56
14, 145319, Note_on_c, 12, 53, 0
14, 145320, Note_on_c, 12, 57, 55
14, 145379, Note_on_c, 12, 57, 0
14, 145380, Note_on_c, 12, 53, 54
14, 145433, Note_on_c, 12, 53, 0
14, 145440, Note_on_c, 12, 58, 52
14, 145679, Note_on_c, 12, 58, 0
14, 145680, Program_c, 12, 45
14, 145800, Note_on_c, 12, 63, 48
14, 146039, Note_on_c, 12, 63, 0
14, 146160, Note_on_c, 12, 62, 48
14, 146399, Note_on_c, 12, 62, 0
14, 146520, Note_on_c, 12, 57, 48
14, 146759, Note_on_c, 12, 57, 0
14, 146760, Program_c, 12, 48
14, 146880, Note_on_c, 12, 57, 52
14, 146939, Note_on_c, 12, 57, 0
14, 146940, Note_on_c, 12, 53, 53
14, 146999, Note_on_c, 12, 53, 0
14, 147000, Note_on_c, 12, 57, 54
14, 147059, Note_on_c, 12, 57, 0
14, 147060, Note_on_c, 12, 53, 56
14, 147119, Note_on_c, 12, 53, 0
14, 147120, Note_on_c, 12, 57, 57
14, 147179, Note_on_c, 12, 57, 0
14, 147180, Note_on_c, 12, 53, 58
14, 147239, Note_on_c, 12, 53, 0
14, 147240, Note_on_c, 12, 57, 60
14, 147299, Note_on_c, 12, 57, 0
14, 147300, Note_on_c, 12, 53, 61
14, 147359, Note_on_c, 12, 53, 0
14, 147360, Note_on_c, 12, 57, 62
14, 147419, Note_on_c, 12, 57, 0
14, 147420, Note_on_c, 12, 53, 64
14, 147479, Note_on_c, 12, 53, 0
14, 147480, Note_on_c, 12, 57, 65
14, 147539, Note_on_c, 12, 57, 0
14, 147540, Note_on_c, 12, 53, 66
14, 147593, Note_on_c, 12, 53, 0
14, 147600, Note_on_c, 12, 60, 68
14, 147659, Note_on_c, 12, 60, 0
14, 147660, Note_on_c, 12, 57, 67
14, 147719, Note_on_c, 12, 57, 0
14, 147720, Note_on_c, 12, 60, 66
14, 147779, Note_on_c, 12, 60, 0
14, 147780, Note_on_c, 12, 57, 64
14, 147839, Note_on_c, 12, 57, 0
14, 147840, Note_on_c, 12, 60, 63
14, 147899, Note_on_c, 12, 60, 0
14, 147900, Note_on_c, 12, 57, 62
14, 147959, Note_on_c, 12, 57, 0
14, 147960, Note_on_c, 12, 60, 60
14, 148019, Note_on_c, 12, 60, 0
14, 148020, Note_on_c, 12, 57, 59
14, 148079, Note_on_c, 12, 57, 0
14, 148080, Note_on_c, 12, 60, 58
14, 148139, Note_on_c, 12, 60, 0
14, 148140, Note_on_c, 12, 57, 56
14, 148199, Note_on_c, 12, 57, 0
14, 148200, Note_on_c, 12, 60, 55
14, 148259, Note_on_c, 12, 60, 0
14, 148260, Note_on_c, 12, 57, 54
14, 148313, Note_on_c, 12, 57, 0
14, 148320, Note_on_c, 12, 58, 52
14, 148559, Note_on_c, 12, 58, 0
14, 148560, Program_c, 12, 45
14, 148680, Note_on_c, 12, 63, 48
14, 148919, Note_on_c, 12, 63, 0
14, 149040, Note_on_c, 12, 58, 48
14, 149279, Note_on_c, 12, 58, 0
14, 149400, Note_on_c, 12, 53, 48
14, 149639, Note_on_c, 12, 53, 0
14, 149760, Note_on_c, 12, 62, 48
14, 149999, Note_on_c, 12, 62, 0
14, 150840, Control_c, 12, 11, 81
14, 150840, Program_c, 12, 48
14, 151200, Note_on_c, 12, 62, 76
14, 151679, Note_on_c, 12, 62, 0
14, 151680, Note_on_c, 12, 60, 76
14, 151799, Note_on_c, 12, 60, 0
14, 151800, Note_on_c, 12, 62, 76
14, 151889, Note_on_c, 12, 62, 0
14, 151900, Note_on_c, 12, 65, 76
14, 151919, Note_on_c, 12, 65, 0
14, 151920, Note_on_c, 12, 64, 76
14, 152039, Note_on_c, 12, 64, 0
14, 152040, Note_on_c, 12, 62, 76
14, 152159, Note_on_c, 12, 62, 0
14, 152160, Note_on_c, 12, 64, 76
14, 152279, Note_on_c, 12, 64, 0
14, 152280, Note_on_c, 12, 65, 76
14, 152519, Note_on_c, 12, 65, 0
14, 152520, Note_on_c, 12, 60, 76
14, 152629, Note_on_c, 12, 60, 0
14, 152640, Note_on_c, 12, 62, 76
14, 153119, Note_on_c, 12, 62, 0
14, 153120, Note_on_c, 12, 60, 76
14, 153239, Note_on_c, 12, 60, 0
14, 153240, Note_on_c, 12, 62, 76
14, 153329, Note_on_c, 12, 62, 0
14, 153340, Note_on_c, 12, 65, 76
14, 153359, Note_on_c, 12, 65, 0
14, 153360, Note_on_c, 12, 64, 76
14, 153479, Note_on_c, 12, 64, 0
14, 153480, Note_on_c, 12, 62, 76
14, 153599, Note_on_c, 12, 62, 0
14, 153600, Note_on_c, 12, 64, 76
14, 153709, Note_on_c, 12, 64, 0
14, 153720, Note_on_c, 12, 65, 76
14, 153720, Control_c, 12, 11, 81
14, 153840, Control_c, 12, 11, 83
14, 153959, Note_on_c, 12, 65, 0
14, 153960, Note_on_c, 12, 60, 76
14, 153960, Control_c, 12, 11, 85
14, 154079, Note_on_c, 12, 60, 0
14, 154080, Control_c, 12, 11, 87
14, 154080, Note_on_c, 12, 62, 76
14, 154200, Control_c, 12, 11, 89
14, 154319, Note_on_c, 12, 62, 0
14, 154320, Note_on_c, 12, 58, 76
14, 154320, Control_c, 12, 11, 91
14, 154439, Note_on_c, 12, 58, 0
14, 154440, Control_c, 12, 11, 93
14, 154440, Note_on_c, 12, 53, 76
14, 154560, Control_c, 12, 11, 95
14, 154679, Note_on_c, 12, 53, 0
14, 154680, Control_c, 12, 11, 97
14, 154680, Note_on_c, 12, 57, 76
14, 154799, Note_on_c, 12, 57, 0
14, 154800, Note_on_c, 12, 58, 76
14, 154800, Control_c, 12, 11, 99
14, 154920, Control_c, 12, 11, 101
14, 155039, Note_on_c, 12, 58, 0
14, 155040, Control_c, 12, 11, 103
14, 155040, Note_on_c, 12, 62, 76
14, 155159, Note_on_c, 12, 62, 0
14, 155160, Note_on_c, 12, 65, 76
14, 155160, Control_c, 12, 11, 105
14, 155280, Control_c, 12, 11, 106
14, 155399, Note_on_c, 12, 65, 0
14, 155400, Note_on_c, 12, 60, 76
14, 155400, Control_c, 12, 11, 107
14, 155509, Note_on_c, 12, 60, 0
14, 155520, Control_c, 12, 11, 110
14, 155520, Note_on_c, 12, 62, 76
14, 155640, Control_c, 12, 11, 111
14, 155759, Note_on_c, 12, 62, 0
14, 155760, Note_on_c, 12, 58, 76
14, 155760, Control_c, 12, 11, 114
14, 155879, Note_on_c, 12, 58, 0
14, 155880, Control_c, 12, 11, 115
14, 155880, Note_on_c, 12, 53, 76
14, 156000, Control_c, 12, 11, 118
14, 156119, Note_on_c, 12, 53, 0
14, 156120, Control_c, 12, 11, 119
14, 156120, Note_on_c, 12, 57, 76
14, 156239, Note_on_c, 12, 57, 0
14, 156240, Note_on_c, 12, 58, 76
14, 156240, Control_c, 12, 11, 122
14, 156360, Control_c, 12, 11, 123
14, 156479, Note_on_c, 12, 58, 0
14, 156480, Control_c, 12, 11, 126
14, 156480, Note_on_c, 12, 62, 76
14, 156589, Note_on_c, 12, 62, 0
14, 156600, Control_c, 12, 11, 127
14, 156600, Note_on_c, 12, 60, 76
14, 156659, Note_on_c, 12, 60, 0
14, 156660, Note_on_c, 12, 57, 76
14, 156719, Note_on_c, 12, 57, 0
14, 156720, Note_on_c, 12, 60, 76
14, 156779, Note_on_c, 12, 60, 0
14, 156780, Note_on_c, 12, 57, 76
14, 156839, Note_on_c, 12, 57, 0
14, 156840, Note_on_c, 12, 60, 76
14, 156899, Note_on_c, 12, 60, 0
14, 156900, Note_on_c, 12, 57, 76
14, 156953, Note_on_c, 12, 57, 0
14, 156960, Note_on_c, 12, 62, 76
14, 157019, Note_on_c, 12, 62, 0
14, 157020, Note_on_c, 12, 58, 76
14, 157079, Note_on_c, 12, 58, 0
14, 157080, Note_on_c, 12, 62, 76
14, 157139, Note_on_c, 12, 62, 0
14, 157140, Note_on_c, 12, 58, 76
14, 157199, Note_on_c, 12, 58, 0
14, 157200, Note_on_c, 12, 62, 76
14, 157259, Note_on_c, 12, 62, 0
14, 157260, Note_on_c, 12, 58, 76
14, 157319, Note_on_c, 12, 58, 0
14, 157320, Note_on_c, 12, 62, 76
14, 157379, Note_on_c, 12, 62, 0
14, 157380, Note_on_c, 12, 58, 76
14, 157439, Note_on_c, 12, 58, 0
14, 157440, Note_on_c, 12, 62, 76
14, 157499, Note_on_c, 12, 62, 0
14, 157500, Note_on_c, 12, 58, 76
14, 157559, Note_on_c, 12, 58, 0
14, 157560, Note_on_c, 12, 62, 76
14, 157619, Note_on_c, 12, 62, 0
14, 157620, Note_on_c, 12, 58, 76
14, 157673, Note_on_c, 12, 58, 0
14, 157680, Note_on_c, 12, 62, 76
14, 157739, Note_on_c, 12, 62, 0
14, 157740, Note_on_c, 12, 58, 76
14, 157799, Note_on_c, 12, 58, 0
14, 157800, Note_on_c, 12, 62, 76
14, 157859, Note_on_c, 12, 62, 0
14, 157860, Note_on_c, 12, 58, 76
14, 157919, Note_on_c, 12, 58, 0
14, 157920, Note_on_c, 12, 62, 76
14, 157979, Note_on_c, 12, 62, 0
14, 157980, Note_on_c, 12, 58, 76
14, 158039, Note_on_c, 12, 58, 0
14, 158040, Note_on_c, 12, 62, 76
14, 158099, Note_on_c, 12, 62, 0
14, 158100, Note_on_c, 12, 58, 76
14, 158159, Note_on_c, 12, 58, 0
14, 158160, Note_on_c, 12, 62, 76
14, 158219, Note_on_c, 12, 62, 0
14, 158220, Note_on_c, 12, 58, 76
14, 158279, Note_on_c, 12, 58, 0
14, 158280, Note_on_c, 12, 62, 76
14, 158339, Note_on_c, 12, 62, 0
14, 158340, Note_on_c, 12, 58, 76
14, 158393, Note_on_c, 12, 58, 0
14, 158400, Note_on_c, 12, 62, 76
14, 158519, Note_on_c, 12, 62, 0
14, 158520, Note_on_c, 12, 58, 74
14, 158629, Note_on_c, 12, 58, 0
14, 158640, Note_on_c, 12, 62, 72
14, 158759, Note_on_c, 12, 62, 0
14, 158760, Note_on_c, 12, 58, 70
14, 158869, Note_on_c, 12, 58, 0
14, 158880, Note_on_c, 12, 62, 68
14, 158999, Note_on_c, 12, 62, 0
14, 159000, Note_on_c, 12, 58, 66
14, 159109, Note_on_c, 12, 58, 0
14, 159120, Note_on_c, 12, 62, 64
14, 159239, Note_on_c, 12, 62, 0
14, 159240, Note_on_c, 12, 58, 62
14, 159349, Note_on_c, 12, 58, 0
14, 159360, Note_on_c, 12, 62, 60
14, 159479, Note_on_c, 12, 62, 0
14, 159480, Note_on_c, 12, 58, 58
14, 159589, Note_on_c, 12, 58, 0
14, 159600, Note_on_c, 12, 60, 56
14, 159719, Note_on_c, 12, 60, 0
14, 159720, Note_on_c, 12, 58, 54
14, 159829, Note_on_c, 12, 58, 0
14, 159840, Note_on_c, 12, 58, 52
14, 160079, Note_on_c, 12, 58, 0
14, 160560, Note_on_c, 12, 57, 48
14, 160560, Note_on_c, 12, 53, 48
14, 160799, Note_on_c, 12, 57, 0
14, 160799, Note_on_c, 12, 53, 0
14, 162120, Note_on_c, 12, 55, 44
14, 162179, Note_on_c, 12, 55, 0
14, 162180, Note_on_c, 12, 57, 44
14, 162239, Note_on_c, 12, 57, 0
14, 162240, Note_on_c, 12, 58, 44
14, 162299, Note_on_c, 12, 58, 0
14, 162300, Note_on_c, 12, 55, 44
14, 162359, Note_on_c, 12, 55, 0
14, 162480, Note_on_c, 12, 57, 44
14, 162539, Note_on_c, 12, 57, 0
14, 162540, Note_on_c, 12, 58, 44
14, 162599, Note_on_c, 12, 58, 0
14, 162600, Note_on_c, 12, 60, 44
14, 162659, Note_on_c, 12, 60, 0
14, 162660, Note_on_c, 12, 57, 44
14, 162719, Note_on_c, 12, 57, 0
14, 163440, Control_c, 12, 11, 65
14, 163560, Note_on_c, 12, 55, 76
14, 163619, Note_on_c, 12, 55, 0
14, 163620, Note_on_c, 12, 57, 76
14, 163679, Note_on_c, 12, 57, 0
14, 163680, Note_on_c, 12, 58, 76
14, 163739, Note_on_c, 12, 58, 0
14, 163740, Note_on_c, 12, 55, 76
14, 163793, Note_on_c, 12, 55, 0
14, 163800, Note_on_c, 12, 65, 76
14, 163800, Control_c, 12, 11, 65
14, 163920, Control_c, 12, 11, 70
14, 164039, Note_on_c, 12, 65, 0
14, 164040, Note_on_c, 12, 60, 76
14, 164040, Control_c, 12, 11, 75
14, 164159, Note_on_c, 12, 60, 0
14, 164160, Control_c, 12, 11, 81
14, 164160, Note_on_c, 12, 62, 76
14, 164280, Control_c, 12, 11, 86
14, 164399, Note_on_c, 12, 62, 0
14, 164400, Note_on_c, 12, 58, 76
14, 164400, Control_c, 12, 11, 91
14, 164519, Note_on_c, 12, 58, 0
14, 164520, Note_on_c, 12, 53, 76
14, 164520, Control_c, 12, 11, 97
14, 164640, Control_c, 12, 11, 102
14, 164759, Note_on_c, 12, 53, 0
14, 164760, Control_c, 12, 11, 107
14, 164760, Note_on_c, 12, 57, 76
14, 164879, Note_on_c, 12, 57, 0
14, 164880, Note_on_c, 12, 58, 76
14, 164880, Control_c, 12, 11, 111
14, 165000, Control_c, 12, 11, 118
14, 165119, Note_on_c, 12, 58, 0
14, 165120, Control_c, 12, 11, 123
14, 165120, Note_on_c, 12, 62, 76
14, 165229, Note_on_c, 12, 62, 0
14, 165238, Control_c, 12, 11, 127
14, 165240, Note_on_c, 12, 60, 76
14, 165299, Note_on_c, 12, 60, 0
14, 165300, Note_on_c, 12, 57, 76
14, 165359, Note_on_c, 12, 57, 0
14, 165360, Note_on_c, 12, 60, 76
14, 165419, Note_on_c, 12, 60, 0
14, 165420, Note_on_c, 12, 57, 76
14, 165479, Note_on_c, 12, 57, 0
14, 165480, Note_on_c, 12, 60, 76
14, 165539, Note_on_c, 12, 60, 0
14, 165540, Note_on_c, 12, 57, 76
14, 165593, Note_on_c, 12, 57, 0
14, 165600, Note_on_c, 12, 62, 76
14, 165659, Note_on_c, 12, 62, 0
14, 165660, Note_on_c, 12, 58, 76
14, 165719, Note_on_c, 12, 58, 0
14, 165720, Note_on_c, 12, 62, 76
14, 165779, Note_on_c, 12, 62, 0
14, 165780, Note_on_c, 12, 58, 76
14, 165839, Note_on_c, 12, 58, 0
14, 165840, Note_on_c, 12, 62, 76
14, 165899, Note_on_c, 12, 62, 0
14, 165900, Note_on_c, 12, 58, 76
14, 165959, Note_on_c, 12, 58, 0
14, 165960, Note_on_c, 12, 62, 76
14, 166019, Note_on_c, 12, 62, 0
14, 166020, Note_on_c, 12, 58, 76
14, 166079, Note_on_c, 12, 58, 0
14, 166080, Note_on_c, 12, 62, 76
14, 166139, Note_on_c, 12, 62, 0
14, 166140, Note_on_c, 12, 58, 76
14, 166199, Note_on_c, 12, 58, 0
14, 166200, Note_on_c, 12, 62, 76
14, 166259, Note_on_c, 12, 62, 0
14, 166260, Note_on_c, 12, 58, 76
14, 166313, Note_on_c, 12, 58, 0
14, 166320, Note_on_c, 12, 62, 76
14, 166379, Note_on_c, 12, 62, 0
14, 166380, Note_on_c, 12, 58, 76
14, 166439, Note_on_c, 12, 58, 0
14, 166440, Note_on_c, 12, 62, 76
14, 166499, Note_on_c, 12, 62, 0
14, 166500, Note_on_c, 12, 58, 76
14, 166559, Note_on_c, 12, 58, 0
14, 166560, Note_on_c, 12, 62, 76
14, 166619, Note_on_c, 12, 62, 0
14, 166620, Note_on_c, 12, 58, 76
14, 166679, Note_on_c, 12, 58, 0
14, 166680, Note_on_c, 12, 62, 76
14, 166739, Note_on_c, 12, 62, 0
14, 166740, Note_on_c, 12, 58, 76
14, 166799, Note_on_c, 12, 58, 0
14, 166800, Note_on_c, 12, 62, 76
14, 166859, Note_on_c, 12, 62, 0
14, 166860, Note_on_c, 12, 58, 76
14, 166919, Note_on_c, 12, 58, 0
14, 166920, Note_on_c, 12, 62, 76
14, 166979, Note_on_c, 12, 62, 0
14, 166980, Note_on_c, 12, 58, 76
14, 167033, Note_on_c, 12, 58, 0
14, 167040, Note_on_c, 12, 62, 84
14, 167099, Note_on_c, 12, 62, 0
14, 167100, Note_on_c, 12, 58, 76
14, 167159, Note_on_c, 12, 58, 0
14, 167160, Note_on_c, 12, 62, 72
14, 167219, Note_on_c, 12, 62, 0
14, 167220, Note_on_c, 12, 58, 67
14, 167279, Note_on_c, 12, 58, 0
14, 167280, Note_on_c, 12, 62, 62
14, 167339, Note_on_c, 12, 62, 0
14, 167340, Note_on_c, 12, 58, 57
14, 167393, Note_on_c, 12, 58, 0
14, 167400, Note_on_c, 12, 65, 52
14, 167519, Note_on_c, 12, 65, 0
14, 169680, Note_on_c, 12, 62, 52
14, 169769, Note_on_c, 12, 62, 0
14, 169800, Note_on_c, 12, 67, 52
14, 169889, Note_on_c, 12, 67, 0
14, 169920, Note_on_c, 12, 58, 52
14, 170159, Note_on_c, 12, 58, 0
14, 170400, Control_c, 12, 11, 81
14, 170520, Note_on_c, 12, 58, 76
14, 170609, Note_on_c, 12, 58, 0
14, 170620, Note_on_c, 12, 58, 76
14, 170639, Note_on_c, 12, 58, 0
14, 170640, Note_on_c, 12, 57, 76
14, 170759, Note_on_c, 12, 57, 0
14, 170760, Note_on_c, 12, 55, 76
14, 170879, Note_on_c, 12, 55, 0
14, 170880, Note_on_c, 12, 53, 76
14, 170880, Control_c, 12, 11, 85
14, 170989, Note_on_c, 12, 53, 0
14, 171000, Note_on_c, 12, 53, 76
14, 171119, Note_on_c, 12, 53, 0
14, 171120, Control_c, 12, 11, 89
14, 171120, Note_on_c, 12, 55, 76
14, 171239, Note_on_c, 12, 55, 0
14, 171240, Note_on_c, 12, 57, 76
14, 171349, Note_on_c, 12, 57, 0
14, 171360, Control_c, 12, 11, 93
14, 171360, Note_on_c, 12, 58, 76
14, 171600, Control_c, 12, 11, 97
14, 171839, Note_on_c, 12, 58, 0
14, 171840, Control_c, 12, 11, 101
14, 171840, Note_on_c, 12, 60, 76
14, 171959, Note_on_c, 12, 60, 0
14, 171960, Note_on_c, 12, 62, 76
14, 172049, Note_on_c, 12, 62, 0
14, 172060, Note_on_c, 12, 65, 76
14, 172079, Note_on_c, 12, 65, 0
14, 172080, Note_on_c, 12, 63, 76
14, 172080, Control_c, 12, 11, 105
14, 172319, Note_on_c, 12, 63, 0
14, 172320, Control_c, 12, 11, 107
14, 172320, Note_on_c, 12, 62, 76
14, 172439, Note_on_c, 12, 62, 0
14, 172440, Note_on_c, 12, 60, 76
14, 172560, Control_c, 12, 11, 111
14, 172679, Note_on_c, 12, 60, 0
14, 172680, Note_on_c, 12, 65, 76
14, 172789, Note_on_c, 12, 65, 0
14, 172800, Control_c, 12, 11, 115
14, 172800, Note_on_c, 12, 62, 76
14, 173040, Control_c, 12, 11, 119
14, 173279, Note_on_c, 12, 62, 0
14, 173280, Note_on_c, 12, 60, 76
14, 173280, Control_c, 12, 11, 123
14, 173399, Note_on_c, 12, 60, 0
14, 173400, Note_on_c, 12, 58, 76
14, 173509, Note_on_c, 12, 58, 0
14, 173518, Control_c, 12, 11, 127
14, 173520, Note_on_c, 12, 63, 84
14, 173629, Note_on_c, 12, 63, 0
14, 173640, Note_on_c, 12, 57, 76
14, 173699, Note_on_c, 12, 57, 0
14, 173700, Note_on_c, 12, 53, 76
14, 173759, Note_on_c, 12, 53, 0
14, 173760, Note_on_c, 12, 55, 76
14, 173819, Note_on_c, 12, 55, 0
14, 173820, Note_on_c, 12, 53, 76
14, 173879, Note_on_c, 12, 53, 0
14, 173880, Note_on_c, 12, 57, 76
14, 173939, Note_on_c, 12, 57, 0
14, 173940, Note_on_c, 12, 53, 72
14, 173999, Note_on_c, 12, 53, 0
14, 174000, Note_on_c, 12, 58, 68
14, 174059, Note_on_c, 12, 58, 0
14, 174060, Note_on_c, 12, 53, 64
14, 174119, Note_on_c, 12, 53, 0
14, 174120, Note_on_c, 12, 57, 60
14, 174179, Note_on_c, 12, 57, 0
14, 174180, Note_on_c, 12, 53, 56
14, 174233, Note_on_c, 12, 53, 0
14, 174240, Note_on_c, 12, 58, 52
14, 174299, Note_on_c, 12, 58, 0
14, 174300, Note_on_c, 12, 62, 52
14, 174359, Note_on_c, 12, 62, 0
14, 174360, Note_on_c, 12, 65, 52
14, 174419, Note_on_c, 12, 65, 0
14, 174420, Note_on_c, 12, 62, 52
14, 174479, Note_on_c, 12, 62, 0
14, 174480, Note_on_c, 12, 65, 52
14, 174539, Note_on_c, 12, 65, 0
14, 174540, Note_on_c, 12, 62, 52
14, 174599, Note_on_c, 12, 62, 0
14, 174600, Note_on_c, 12, 67, 52
14, 174659, Note_on_c, 12, 67, 0
14, 174660, Note_on_c, 12, 63, 52
14, 174719, Note_on_c, 12, 63, 0
14, 174720, Note_on_c, 12, 65, 52
14, 174779, Note_on_c, 12, 65, 0
14, 174780, Note_on_c, 12, 62, 52
14, 174839, Note_on_c, 12, 62, 0
14, 174840, Note_on_c, 12, 65, 52
14, 174899, Note_on_c, 12, 65, 0
14, 174900, Note_on_c, 12, 62, 52
14, 174959, Note_on_c, 12, 62, 0
14, 174960, Note_on_c, 12, 63, 52
14, 175019, Note_on_c, 12, 63, 0
14, 175020, Note_on_c, 12, 60, 52
14, 175079, Note_on_c, 12, 60, 0
14, 175080, Note_on_c, 12, 62, 52
14, 175139, Note_on_c, 12, 62, 0
14, 175140, Note_on_c, 12, 58, 52
14, 175199, Note_on_c, 12, 58, 0
14, 175200, Note_on_c, 12, 62, 52
14, 175259, Note_on_c, 12, 62, 0
14, 175260, Note_on_c, 12, 58, 52
14, 175319, Note_on_c, 12, 58, 0
14, 175320, Note_on_c, 12, 63, 52
14, 175379, Note_on_c, 12, 63, 0
14, 175380, Note_on_c, 12, 60, 51
14, 175439, Note_on_c, 12, 60, 0
14, 175440, Note_on_c, 12, 60, 50
14, 175499, Note_on_c, 12, 60, 0
14, 175500, Note_on_c, 12, 57, 48
14, 175559, Note_on_c, 12, 57, 0
14, 175560, Note_on_c, 12, 60, 47
14, 175619, Note_on_c, 12, 60, 0
14, 175620, Note_on_c, 12, 57, 46
14, 175673, Note_on_c, 12, 57, 0
14, 175680, Note_on_c, 12, 62, 52
14, 175739, Note_on_c, 12, 62, 0
14, 175740, Note_on_c, 12, 58, 52
14, 175799, Note_on_c, 12, 58, 0
14, 175800, Note_on_c, 12, 65, 52
14, 175859, Note_on_c, 12, 65, 0
14, 175860, Note_on_c, 12, 62, 52
14, 175919, Note_on_c, 12, 62, 0
14, 175920, Note_on_c, 12, 65, 52
14, 175979, Note_on_c, 12, 65, 0
14, 175980, Note_on_c, 12, 62, 52
14, 176039, Note_on_c, 12, 62, 0
14, 176040, Note_on_c, 12, 67, 52
14, 176099, Note_on_c, 12, 67, 0
14, 176100, Note_on_c, 12, 63, 52
14, 176159, Note_on_c, 12, 63, 0
14, 176160, Note_on_c, 12, 65, 52
14, 176219, Note_on_c, 12, 65, 0
14, 176220, Note_on_c, 12, 62, 52
14, 176279, Note_on_c, 12, 62, 0
14, 176280, Note_on_c, 12, 65, 52
14, 176339, Note_on_c, 12, 65, 0
14, 176340, Note_on_c, 12, 62, 52
14, 176399, Note_on_c, 12, 62, 0
14, 176400, Note_on_c, 12, 63, 52
14, 176459, Note_on_c, 12, 63, 0
14, 176460, Note_on_c, 12, 60, 52
14, 176519, Note_on_c, 12, 60, 0
14, 176520, Note_on_c, 12, 62, 52
14, 176579, Note_on_c, 12, 62, 0
14, 176580, Note_on_c, 12, 58, 52
14, 176639, Note_on_c, 12, 58, 0
14, 176640, Note_on_c, 12, 62, 52
14, 176699, Note_on_c, 12, 62, 0
14, 176700, Note_on_c, 12, 58, 52
14, 176759, Note_on_c, 12, 58, 0
14, 176760, Note_on_c, 12, 63, 52
14, 176819, Note_on_c, 12, 63, 0
14, 176820, Note_on_c, 12, 60, 51
14, 176879, Note_on_c, 12, 60, 0
14, 176880, Note_on_c, 12, 60, 50
14, 176939, Note_on_c, 12, 60, 0
14, 176940, Note_on_c, 12, 57, 48
14, 176999, Note_on_c, 12, 57, 0
14, 177000, Note_on_c, 12, 60, 47
14, 177059, Note_on_c, 12, 60, 0
14, 177060, Note_on_c, 12, 57, 46
14, 177113, Note_on_c, 12, 57, 0
14, 177120, Note_on_c, 12, 62, 44
14, 177179, Note_on_c, 12, 62, 0
14, 177180, Note_on_c, 12, 58, 44
14, 177239, Note_on_c, 12, 58, 0
14, 177240, Note_on_c, 12, 62, 44
14, 177299, Note_on_c, 12, 62, 0
14, 177300, Note_on_c, 12, 58, 44
14, 177359, Note_on_c, 12, 58, 0
14, 177360, Note_on_c, 12, 62, 44
14, 177419, Note_on_c, 12, 62, 0
14, 177420, Note_on_c, 12, 58, 44
14, 177479, Note_on_c, 12, 58, 0
14, 177480, Note_on_c, 12, 63, 44
14, 177539, Note_on_c, 12, 63, 0
14, 177540, Note_on_c, 12, 60, 44
14, 177599, Note_on_c, 12, 60, 0
14, 177600, Note_on_c, 12, 63, 44
14, 177659, Note_on_c, 12, 63, 0
14, 177660, Note_on_c, 12, 60, 44
14, 177719, Note_on_c, 12, 60, 0
14, 177720, Note_on_c, 12, 62, 44
14, 177779, Note_on_c, 12, 62, 0
14, 177780, Note_on_c, 12, 58, 44
14, 177839, Note_on_c, 12, 58, 0
14, 177840, Note_on_c, 12, 60, 44
14, 177899, Note_on_c, 12, 60, 0
14, 177900, Note_on_c, 12, 57, 44
14, 177959, Note_on_c, 12, 57, 0
14, 177960, Note_on_c, 12, 63, 44
14, 178019, Note_on_c, 12, 63, 0
14, 178020, Note_on_c, 12, 60, 44
14, 178079, Note_on_c, 12, 60, 0
14, 178080, Note_on_c, 12, 63, 44
14, 178139, Note_on_c, 12, 63, 0
14, 178140, Note_on_c, 12, 60, 44
14, 178199, Note_on_c, 12, 60, 0
14, 178200, Note_on_c, 12, 65, 44
14, 178259, Note_on_c, 12, 65, 0
14, 178260, Note_on_c, 12, 62, 44
14, 178319, Note_on_c, 12, 62, 0
14, 178320, Note_on_c, 12, 65, 44
14, 178379, Note_on_c, 12, 65, 0
14, 178380, Note_on_c, 12, 62, 44
14, 178439, Note_on_c, 12, 62, 0
14, 178440, Note_on_c, 12, 63, 44
14, 178499, Note_on_c, 12, 63, 0
14, 178500, Note_on_c, 12, 60, 44
14, 178553, Note_on_c, 12, 60, 0
14, 178560, Note_on_c, 12, 62, 44
14, 178619, Note_on_c, 12, 62, 0
14, 178620, Note_on_c, 12, 58, 45
14, 178679, Note_on_c, 12, 58, 0
14, 178680, Note_on_c, 12, 65, 46
14, 178739, Note_on_c, 12, 65, 0
14, 178740, Note_on_c, 12, 62, 47
14, 178799, Note_on_c, 12, 62, 0
14, 178800, Note_on_c, 12, 65, 48
14, 178859, Note_on_c, 12, 65, 0
14, 178860, Note_on_c, 12, 62, 49
14, 178919, Note_on_c, 12, 62, 0
14, 178920, Note_on_c, 12, 67, 50
14, 178979, Note_on_c, 12, 67, 0
14, 178980, Note_on_c, 12, 63, 51
14, 179039, Note_on_c, 12, 63, 0
14, 179040, Note_on_c, 12, 67, 52
14, 179099, Note_on_c, 12, 67, 0
14, 179100, Note_on_c, 12, 63, 53
14, 179159, Note_on_c, 12, 63, 0
14, 179160, Note_on_c, 12, 65, 54
14, 179219, Note_on_c, 12, 65, 0
14, 179220, Note_on_c, 12, 62, 55
14, 179279, Note_on_c, 12, 62, 0
14, 179280, Note_on_c, 12, 68, 56
14, 179339, Note_on_c, 12, 68, 0
14, 179340, Note_on_c, 12, 65, 57
14, 179399, Note_on_c, 12, 65, 0
14, 179400, Note_on_c, 12, 68, 58
14, 179459, Note_on_c, 12, 68, 0
14, 179460, Note_on_c, 12, 65, 59
14, 179519, Note_on_c, 12, 65, 0
14, 179520, Note_on_c, 12, 67, 60
14, 179579, Note_on_c, 12, 67, 0
14, 179580, Note_on_c, 12, 63, 61
14, 179639, Note_on_c, 12, 63, 0
14, 179640, Note_on_c, 12, 70, 62
14, 179699, Note_on_c, 12, 70, 0
14, 179700, Note_on_c, 12, 67, 63
14, 179759, Note_on_c, 12, 67, 0
14, 179760, Note_on_c, 12, 70, 64
14, 179819, Note_on_c, 12, 70, 0
14, 179820, Note_on_c, 12, 67, 65
14, 179879, Note_on_c, 12, 67, 0
14, 179880, Note_on_c, 12, 68, 66
14, 179939, Note_on_c, 12, 68, 0
14, 179940, Note_on_c, 12, 65, 67
14, 179993, Note_on_c, 12, 65, 0
14, 180000, Note_on_c, 12, 72, 68
14, 180059, Note_on_c, 12, 72, 0
14, 180060, Note_on_c, 12, 68, 67
14, 180119, Note_on_c, 12, 68, 0
14, 180120, Note_on_c, 12, 72, 66
14, 180179, Note_on_c, 12, 72, 0
14, 180180, Note_on_c, 12, 68, 65
14, 180239, Note_on_c, 12, 68, 0
14, 180240, Note_on_c, 12, 70, 64
14, 180299, Note_on_c, 12, 70, 0
14, 180300, Note_on_c, 12, 67, 63
14, 180359, Note_on_c, 12, 67, 0
14, 180360, Note_on_c, 12, 68, 62
14, 180419, Note_on_c, 12, 68, 0
14, 180420, Note_on_c, 12, 65, 61
14, 180479, Note_on_c, 12, 65, 0
14, 180480, Note_on_c, 12, 68, 60
14, 180539, Note_on_c, 12, 68, 0
14, 180540, Note_on_c, 12, 65, 59
14, 180599, Note_on_c, 12, 65, 0
14, 180600, Note_on_c, 12, 67, 58
14, 180659, Note_on_c, 12, 67, 0
14, 180660, Note_on_c, 12, 63, 57
14, 180719, Note_on_c, 12, 63, 0
14, 180720, Note_on_c, 12, 65, 56
14, 180779, Note_on_c, 12, 65, 0
14, 180780, Note_on_c, 12, 62, 55
14, 180839, Note_on_c, 12, 62, 0
14, 180840, Note_on_c, 12, 65, 54
14, 180899, Note_on_c, 12, 65, 0
14, 180900, Note_on_c, 12, 62, 53
14, 180959, Note_on_c, 12, 62, 0
14, 180960, Note_on_c, 12, 67, 52
14, 181019, Note_on_c, 12, 67, 0
14, 181020, Note_on_c, 12, 63, 51
14, 181079, Note_on_c, 12, 63, 0
14, 181080, Note_on_c, 12, 68, 50
14, 181139, Note_on_c, 12, 68, 0
14, 181140, Note_on_c, 12, 65, 49
14, 181199, Note_on_c, 12, 65, 0
14, 181200, Note_on_c, 12, 68, 48
14, 181259, Note_on_c, 12, 68, 0
14, 181260, Note_on_c, 12, 65, 47
14, 181319, Note_on_c, 12, 65, 0
14, 181320, Note_on_c, 12, 67, 46
14, 181379, Note_on_c, 12, 67, 0
14, 181380, Note_on_c, 12, 63, 45
14, 181433, Note_on_c, 12, 63, 0
14, 181440, Note_on_c, 12, 65, 44
14, 181499, Note_on_c, 12, 65, 0
14, 181500, Note_on_c, 12, 62, 45
14, 181559, Note_on_c, 12, 62, 0
14, 181560, Note_on_c, 12, 65, 46
14, 181619, Note_on_c, 12, 65, 0
14, 181620, Note_on_c, 12, 62, 47
14, 181679, Note_on_c, 12, 62, 0
14, 181680, Note_on_c, 12, 65, 48
14, 181739, Note_on_c, 12, 65, 0
14, 181740, Note_on_c, 12, 62, 49
14, 181799, Note_on_c, 12, 62, 0
14, 181800, Note_on_c, 12, 67, 50
14, 181859, Note_on_c, 12, 67, 0
14, 181860, Note_on_c, 12, 63, 51
14, 181919, Note_on_c, 12, 63, 0
14, 181920, Note_on_c, 12, 67, 52
14, 181979, Note_on_c, 12, 67, 0
14, 181980, Note_on_c, 12, 63, 53
14, 182039, Note_on_c, 12, 63, 0
14, 182040, Note_on_c, 12, 65, 54
14, 182099, Note_on_c, 12, 65, 0
14, 182100, Note_on_c, 12, 62, 55
14, 182159, Note_on_c, 12, 62, 0
14, 182160, Note_on_c, 12, 68, 56
14, 182219, Note_on_c, 12, 68, 0
14, 182220, Note_on_c, 12, 65, 57
14, 182279, Note_on_c, 12, 65, 0
14, 182280, Note_on_c, 12, 68, 58
14, 182339, Note_on_c, 12, 68, 0
14, 182340, Note_on_c, 12, 65, 59
14, 182399, Note_on_c, 12, 65, 0
14, 182400, Note_on_c, 12, 67, 60
14, 182459, Note_on_c, 12, 67, 0
14, 182460, Note_on_c, 12, 63, 61
14, 182519, Note_on_c, 12, 63, 0
14, 182520, Note_on_c, 12, 70, 62
14, 182579, Note_on_c, 12, 70, 0
14, 182580, Note_on_c, 12, 67, 63
14, 182639, Note_on_c, 12, 67, 0
14, 182640, Note_on_c, 12, 70, 64
14, 182699, Note_on_c, 12, 70, 0
14, 182700, Note_on_c, 12, 67, 65
14, 182759, Note_on_c, 12, 67, 0
14, 182760, Note_on_c, 12, 68, 66
14, 182819, Note_on_c, 12, 68, 0
14, 182820, Note_on_c, 12, 65, 67
14, 182873, Note_on_c, 12, 65, 0
14, 182880, Note_on_c, 12, 72, 68
14, 182939, Note_on_c, 12, 72, 0
14, 182940, Note_on_c, 12, 68, 67
14, 182999, Note_on_c, 12, 68, 0
14, 183000, Note_on_c, 12, 72, 66
14, 183059, Note_on_c, 12, 72, 0
14, 183060, Note_on_c, 12, 68, 65
14, 183119, Note_on_c, 12, 68, 0
14, 183120, Note_on_c, 12, 70, 64
14, 183179, Note_on_c, 12, 70, 0
14, 183180, Note_on_c, 12, 67, 63
14, 183239, Note_on_c, 12, 67, 0
14, 183240, Note_on_c, 12, 68, 62
14, 183299, Note_on_c, 12, 68, 0
14, 183300, Note_on_c, 12, 65, 61
14, 183359, Note_on_c, 12, 65, 0
14, 183360, Note_on_c, 12, 68, 60
14, 183419, Note_on_c, 12, 68, 0
14, 183420, Note_on_c, 12, 65, 59
14, 183479, Note_on_c, 12, 65, 0
14, 183480, Note_on_c, 12, 67, 58
14, 183539, Note_on_c, 12, 67, 0
14, 183540, Note_on_c, 12, 63, 57
14, 183599, Note_on_c, 12, 63, 0
14, 183600, Note_on_c, 12, 65, 56
14, 183659, Note_on_c, 12, 65, 0
14, 183660, Note_on_c, 12, 62, 55
14, 183719, Note_on_c, 12, 62, 0
14, 183720, Note_on_c, 12, 65, 54
14, 183779, Note_on_c, 12, 65, 0
14, 183780, Note_on_c, 12, 62, 53
14, 183839, Note_on_c, 12, 62, 0
14, 183840, Note_on_c, 12, 67, 52
14, 183899, Note_on_c, 12, 67, 0
14, 183900, Note_on_c, 12, 63, 51
14, 183959, Note_on_c, 12, 63, 0
14, 183960, Note_on_c, 12, 68, 50
14, 184019, Note_on_c, 12, 68, 0
14, 184020, Note_on_c, 12, 65, 49
14, 184079, Note_on_c, 12, 65, 0
14, 184080, Note_on_c, 12, 68, 48
14, 184139, Note_on_c, 12, 68, 0
14, 184140, Note_on_c, 12, 65, 47
14, 184199, Note_on_c, 12, 65, 0
14, 184200, Note_on_c, 12, 67, 46
14, 184259, Note_on_c, 12, 67, 0
14, 184260, Note_on_c, 12, 63, 45
14, 184313, Note_on_c, 12, 63, 0
14, 184320, Note_on_c, 12, 62, 44
14, 184559, Note_on_c, 12, 62, 0
14, 189360, Note_on_c, 12, 51, 52
14, 190069, Note_on_c, 12, 51, 0
14, 190080, Note_on_c, 12, 50, 52
14, 190319, Note_on_c, 12, 50, 0
14, 195120, Note_on_c, 12, 51, 44
14, 195829, Note_on_c, 12, 51, 0
14, 195840, Note_on_c, 12, 50, 44
14, 196199, Note_on_c, 12, 50, 0
14, 196560, Note_on_c, 12, 63, 44
14, 196919, Note_on_c, 12, 63, 0
14, 196920, Control_c, 12, 11, 65
14, 197280, Note_on_c, 12, 53, 76
14, 197280, Control_c, 12, 11, 65
14, 197340, Control_c, 12, 11, 70
14, 197400, Control_c, 12, 11, 75
14, 197460, Control_c, 12, 11, 81
14, 197520, Control_c, 12, 11, 86
14, 197580, Control_c, 12, 11, 91
14, 197640, Control_c, 12, 11, 97
14, 197700, Control_c, 12, 11, 102
14, 197760, Control_c, 12, 11, 107
14, 197820, Control_c, 12, 11, 111
14, 197880, Control_c, 12, 11, 118
14, 197940, Control_c, 12, 11, 123
14, 197989, Note_on_c, 12, 53, 0
14, 197998, Control_c, 12, 11, 127
14, 198000, Note_on_c, 12, 53, 84
14, 198239, Note_on_c, 12, 53, 0
14, 198360, Program_c, 12, 45
14, 198720, Note_on_c, 12, 50, 44
14, 198720, Note_on_c, 12, 53, 44
14, 198959, Note_on_c, 12, 50, 0
14, 198959, Note_on_c, 12, 53, 0
14, 199080, Note_on_c, 12, 53, 44
14, 199080, Note_on_c, 12, 50, 44
14, 199319, Note_on_c, 12, 53, 0
14, 199319, Note_on_c, 12, 50, 0
14, 199440, Note_on_c, 12, 50, 44
14, 199440, Note_on_c, 12, 53, 44
14, 199679, Note_on_c, 12, 50, 0
14, 199679, Note_on_c, 12, 53, 0
14, 200160, Program_c, 12, 48
14, 200160, End_track
15, 0, Start_track
15, 0, Title_t, "Solo Cello I and II"
15, 0, MIDI_port, 0
15, 0, Program_c, 13, 42
15, 0, Control_c, 13, 7, 96
15, 0, Control_c, 13, 10, 85
15, 0, Control_c, 13, 11, 127
15, 0, Note_on_c, 13, 46, 52
15, 119, Note_on_c, 13, 46, 0
15, 120, Note_on_c, 13, 53, 52
15, 120, Note_on_c, 13, 50, 52
15, 229, Note_on_c, 13, 53, 0
15, 229, Note_on_c, 13, 50, 0
15, 240, Note_on_c, 13, 50, 52
15, 240, Note_on_c, 13, 53, 52
15, 359, Note_on_c, 13, 50, 0
15, 359, Note_on_c, 13, 53, 0
15, 360, Note_on_c, 13, 51, 52
15, 360, Note_on_c, 13, 55, 52
15, 479, Note_on_c, 13, 51, 0
15, 479, Note_on_c, 13, 55, 0
15, 480, Note_on_c, 13, 53, 52
15, 480, Note_on_c, 13, 50, 52
15, 589, Note_on_c, 13, 53, 0
15, 589, Note_on_c, 13, 50, 0
15, 600, Note_on_c, 13, 50, 52
15, 600, Note_on_c, 13, 53, 52
15, 719, Note_on_c, 13, 50, 0
15, 719, Note_on_c, 13, 53, 0
15, 720, Note_on_c, 13, 48, 52
15, 720, Note_on_c, 13, 51, 52
15, 839, Note_on_c, 13, 48, 0
15, 839, Note_on_c, 13, 51, 0
15, 840, Note_on_c, 13, 46, 52
15, 840, Note_on_c, 13, 50, 52
15, 949, Note_on_c, 13, 46, 0
15, 949, Note_on_c, 13, 50, 0
15, 960, Note_on_c, 13, 46, 52
15, 960, Note_on_c, 13, 50, 52
15, 1079, Note_on_c, 13, 46, 0
15, 1079, Note_on_c, 13, 50, 0
15, 1080, Note_on_c, 13, 48, 52
15, 1080, Note_on_c, 13, 41, 52
15, 1199, Note_on_c, 13, 48, 0
15, 1199, Note_on_c, 13, 41, 0
15, 1200, Note_on_c, 13, 46, 52
15, 1200, Note_on_c, 13, 50, 52
15, 1309, Note_on_c, 13, 46, 0
15, 1309, Note_on_c, 13, 50, 0
15, 1320, Note_on_c, 13, 50, 52
15, 1320, Note_on_c, 13, 46, 52
15, 1429, Note_on_c, 13, 50, 0
15, 1429, Note_on_c, 13, 46, 0
15, 1440, Note_on_c, 13, 46, 52
15, 1440, Note_on_c, 13, 50, 52
15, 1559, Note_on_c, 13, 46, 0
15, 1559, Note_on_c, 13, 50, 0
15, 1560, Note_on_c, 13, 53, 52
15, 1560, Note_on_c, 13, 50, 52
15, 1669, Note_on_c, 13, 53, 0
15, 1669, Note_on_c, 13, 50, 0
15, 1680, Note_on_c, 13, 50, 52
15, 1680, Note_on_c, 13, 53, 52
15, 1799, Note_on_c, 13, 50, 0
15, 1799, Note_on_c, 13, 53, 0
15, 1800, Note_on_c, 13, 55, 52
15, 1800, Note_on_c, 13, 51, 52
15, 1919, Note_on_c, 13, 55, 0
15, 1919, Note_on_c, 13, 51, 0
15, 1920, Note_on_c, 13, 53, 52
15, 1920, Note_on_c, 13, 50, 52
15, 2029, Note_on_c, 13, 53, 0
15, 2029, Note_on_c, 13, 50, 0
15, 2040, Note_on_c, 13, 50, 52
15, 2040, Note_on_c, 13, 53, 52
15, 2159, Note_on_c, 13, 50, 0
15, 2159, Note_on_c, 13, 53, 0
15, 2160, Note_on_c, 13, 48, 52
15, 2160, Note_on_c, 13, 51, 52
15, 2279, Note_on_c, 13, 48, 0
15, 2279, Note_on_c, 13, 51, 0
15, 2280, Note_on_c, 13, 50, 52
15, 2280, Note_on_c, 13, 46, 52
15, 2389, Note_on_c, 13, 50, 0
15, 2389, Note_on_c, 13, 46, 0
15, 2400, Note_on_c, 13, 50, 52
15, 2400, Note_on_c, 13, 46, 52
15, 2519, Note_on_c, 13, 50, 0
15, 2519, Note_on_c, 13, 46, 0
15, 2520, Note_on_c, 13, 48, 52
15, 2520, Note_on_c, 13, 41, 52
15, 2639, Note_on_c, 13, 48, 0
15, 2639, Note_on_c, 13, 41, 0
15, 2640, Note_on_c, 13, 46, 52
15, 2640, Note_on_c, 13, 50, 52
15, 2749, Note_on_c, 13, 46, 0
15, 2749, Note_on_c, 13, 50, 0
15, 2760, Note_on_c, 13, 46, 52
15, 2760, Note_on_c, 13, 50, 52
15, 2879, Note_on_c, 13, 46, 0
15, 2879, Note_on_c, 13, 50, 0
15, 2880, Note_on_c, 13, 48, 52
15, 2880, Note_on_c, 13, 41, 52
15, 2999, Note_on_c, 13, 48, 0
15, 2999, Note_on_c, 13, 41, 0
15, 3000, Note_on_c, 13, 48, 52
15, 3000, Note_on_c, 13, 51, 52
15, 3109, Note_on_c, 13, 48, 0
15, 3109, Note_on_c, 13, 51, 0
15, 3120, Note_on_c, 13, 51, 52
15, 3120, Note_on_c, 13, 48, 52
15, 3239, Note_on_c, 13, 51, 0
15, 3239, Note_on_c, 13, 48, 0
15, 3240, Note_on_c, 13, 50, 52
15, 3240, Note_on_c, 13, 53, 52
15, 3359, Note_on_c, 13, 50, 0
15, 3359, Note_on_c, 13, 53, 0
15, 3360, Note_on_c, 13, 51, 52
15, 3360, Note_on_c, 13, 48, 52
15, 3469, Note_on_c, 13, 51, 0
15, 3469, Note_on_c, 13, 48, 0
15, 3480, Note_on_c, 13, 51, 52
15, 3480, Note_on_c, 13, 48, 52
15, 3599, Note_on_c, 13, 51, 0
15, 3599, Note_on_c, 13, 48, 0
15, 3600, Note_on_c, 13, 46, 52
15, 3600, Note_on_c, 13, 50, 52
15, 3719, Note_on_c, 13, 46, 0
15, 3719, Note_on_c, 13, 50, 0
15, 3720, Note_on_c, 13, 48, 52
15, 3720, Note_on_c, 13, 45, 52
15, 3829, Note_on_c, 13, 48, 0
15, 3829, Note_on_c, 13, 45, 0
15, 3840, Note_on_c, 13, 48, 52
15, 3840, Note_on_c, 13, 45, 52
15, 3959, Note_on_c, 13, 48, 0
15, 3959, Note_on_c, 13, 45, 0
15, 3960, Note_on_c, 13, 46, 52
15, 3960, Note_on_c, 13, 43, 52
15, 4079, Note_on_c, 13, 46, 0
15, 4079, Note_on_c, 13, 43, 0
15, 4080, Note_on_c, 13, 41, 52
15, 4080, Note_on_c, 13, 48, 52
15, 4189, Note_on_c, 13, 41, 0
15, 4189, Note_on_c, 13, 48, 0
15, 4200, Note_on_c, 13, 41, 52
15, 4200, Note_on_c, 13, 48, 52
15, 4309, Note_on_c, 13, 41, 0
15, 4309, Note_on_c, 13, 48, 0
15, 4320, Note_on_c, 13, 41, 52
15, 4320, Note_on_c, 13, 48, 52
15, 4439, Note_on_c, 13, 41, 0
15, 4439, Note_on_c, 13, 48, 0
15, 4440, Note_on_c, 13, 51, 52
15, 4440, Note_on_c, 13, 48, 52
15, 4549, Note_on_c, 13, 51, 0
15, 4549, Note_on_c, 13, 48, 0
15, 4560, Note_on_c, 13, 51, 52
15, 4560, Note_on_c, 13, 48, 52
15, 4679, Note_on_c, 13, 51, 0
15, 4679, Note_on_c, 13, 48, 0
15, 4680, Note_on_c, 13, 53, 52
15, 4680, Note_on_c, 13, 50, 52
15, 4799, Note_on_c, 13, 53, 0
15, 4799, Note_on_c, 13, 50, 0
15, 4800, Note_on_c, 13, 48, 52
15, 4800, Note_on_c, 13, 51, 52
15, 4909, Note_on_c, 13, 48, 0
15, 4909, Note_on_c, 13, 51, 0
15, 4920, Note_on_c, 13, 48, 52
15, 4920, Note_on_c, 13, 51, 52
15, 5039, Note_on_c, 13, 48, 0
15, 5039, Note_on_c, 13, 51, 0
15, 5040, Note_on_c, 13, 50, 52
15, 5040, Note_on_c, 13, 46, 52
15, 5159, Note_on_c, 13, 50, 0
15, 5159, Note_on_c, 13, 46, 0
15, 5160, Note_on_c, 13, 48, 52
15, 5160, Note_on_c, 13, 45, 52
15, 5269, Note_on_c, 13, 48, 0
15, 5269, Note_on_c, 13, 45, 0
15, 5280, Note_on_c, 13, 48, 52
15, 5280, Note_on_c, 13, 45, 52
15, 5399, Note_on_c, 13, 48, 0
15, 5399, Note_on_c, 13, 45, 0
15, 5400, Note_on_c, 13, 46, 52
15, 5400, Note_on_c, 13, 43, 52
15, 5519, Note_on_c, 13, 46, 0
15, 5519, Note_on_c, 13, 43, 0
15, 5520, Note_on_c, 13, 48, 52
15, 5520, Note_on_c, 13, 41, 52
15, 5629, Note_on_c, 13, 48, 0
15, 5629, Note_on_c, 13, 41, 0
15, 5640, Note_on_c, 13, 51, 52
15, 5640, Note_on_c, 13, 48, 52
15, 5749, Note_on_c, 13, 51, 0
15, 5749, Note_on_c, 13, 48, 0
15, 5760, Note_on_c, 13, 46, 52
15, 5760, Note_on_c, 13, 50, 52
15, 5819, Note_on_c, 13, 46, 0
15, 5819, Note_on_c, 13, 50, 0
15, 5820, Note_on_c, 13, 46, 53
15, 5820, Note_on_c, 13, 38, 53
15, 5879, Note_on_c, 13, 46, 0
15, 5879, Note_on_c, 13, 38, 0
15, 5880, Note_on_c, 13, 46, 54
15, 5880, Note_on_c, 13, 50, 54
15, 5939, Note_on_c, 13, 46, 0
15, 5939, Note_on_c, 13, 50, 0
15, 5940, Note_on_c, 13, 46, 55
15, 5940, Note_on_c, 13, 38, 55
15, 5999, Note_on_c, 13, 46, 0
15, 5999, Note_on_c, 13, 38, 0
15, 6000, Note_on_c, 13, 50, 56
15, 6000, Note_on_c, 13, 46, 56
15, 6059, Note_on_c, 13, 50, 0
15, 6059, Note_on_c, 13, 46, 0
15, 6060, Note_on_c, 13, 38, 57
15, 6060, Note_on_c, 13, 46, 57
15, 6119, Note_on_c, 13, 38, 0
15, 6119, Note_on_c, 13, 46, 0
15, 6120, Note_on_c, 13, 50, 58
15, 6120, Note_on_c, 13, 46, 58
15, 6179, Note_on_c, 13, 50, 0
15, 6179, Note_on_c, 13, 46, 0
15, 6180, Note_on_c, 13, 46, 59
15, 6180, Note_on_c, 13, 38, 59
15, 6239, Note_on_c, 13, 46, 0
15, 6239, Note_on_c, 13, 38, 0
15, 6240, Note_on_c, 13, 46, 60
15, 6240, Note_on_c, 13, 50, 60
15, 6299, Note_on_c, 13, 46, 0
15, 6299, Note_on_c, 13, 50, 0
15, 6300, Note_on_c, 13, 38, 61
15, 6300, Note_on_c, 13, 46, 61
15, 6359, Note_on_c, 13, 38, 0
15, 6359, Note_on_c, 13, 46, 0
15, 6360, Note_on_c, 13, 50, 62
15, 6360, Note_on_c, 13, 46, 62
15, 6419, Note_on_c, 13, 50, 0
15, 6419, Note_on_c, 13, 46, 0
15, 6420, Note_on_c, 13, 46, 63
15, 6420, Note_on_c, 13, 38, 63
15, 6473, Note_on_c, 13, 46, 0
15, 6473, Note_on_c, 13, 38, 0
15, 6480, Note_on_c, 13, 48, 64
15, 6480, Note_on_c, 13, 46, 64
15, 6539, Note_on_c, 13, 48, 0
15, 6539, Note_on_c, 13, 46, 0
15, 6540, Note_on_c, 13, 46, 65
15, 6540, Note_on_c, 13, 39, 65
15, 6599, Note_on_c, 13, 46, 0
15, 6599, Note_on_c, 13, 39, 0
15, 6600, Note_on_c, 13, 48, 66
15, 6600, Note_on_c, 13, 46, 66
15, 6659, Note_on_c, 13, 48, 0
15, 6659, Note_on_c, 13, 46, 0
15, 6660, Note_on_c, 13, 46, 67
15, 6660, Note_on_c, 13, 39, 67
15, 6719, Note_on_c, 13, 46, 0
15, 6719, Note_on_c, 13, 39, 0
15, 6720, Note_on_c, 13, 46, 68
15, 6720, Note_on_c, 13, 48, 68
15, 6779, Note_on_c, 13, 46, 0
15, 6779, Note_on_c, 13, 48, 0
15, 6780, Note_on_c, 13, 39, 69
15, 6780, Note_on_c, 13, 46, 69
15, 6839, Note_on_c, 13, 39, 0
15, 6839, Note_on_c, 13, 46, 0
15, 6840, Note_on_c, 13, 46, 70
15, 6840, Note_on_c, 13, 48, 70
15, 6899, Note_on_c, 13, 46, 0
15, 6899, Note_on_c, 13, 48, 0
15, 6900, Note_on_c, 13, 46, 71
15, 6900, Note_on_c, 13, 39, 71
15, 6959, Note_on_c, 13, 46, 0
15, 6959, Note_on_c, 13, 39, 0
15, 6960, Note_on_c, 13, 48, 72
15, 6960, Note_on_c, 13, 46, 72
15, 7019, Note_on_c, 13, 48, 0
15, 7019, Note_on_c, 13, 46, 0
15, 7020, Note_on_c, 13, 39, 73
15, 7020, Note_on_c, 13, 46, 73
15, 7079, Note_on_c, 13, 39, 0
15, 7079, Note_on_c, 13, 46, 0
15, 7080, Note_on_c, 13, 48, 74
15, 7080, Note_on_c, 13, 46, 74
15, 7139, Note_on_c, 13, 48, 0
15, 7139, Note_on_c, 13, 46, 0
15, 7140, Note_on_c, 13, 39, 75
15, 7140, Note_on_c, 13, 46, 75
15, 7193, Note_on_c, 13, 39, 0
15, 7193, Note_on_c, 13, 46, 0
15, 7200, Note_on_c, 13, 50, 76
15, 7200, Note_on_c, 13, 46, 76
15, 7259, Note_on_c, 13, 50, 0
15, 7259, Note_on_c, 13, 46, 0
15, 7260, Note_on_c, 13, 41, 52
15, 7260, Note_on_c, 13, 46, 52
15, 7319, Note_on_c, 13, 41, 0
15, 7319, Note_on_c, 13, 46, 0
15, 7320, Note_on_c, 13, 50, 52
15, 7320, Note_on_c, 13, 46, 52
15, 7379, Note_on_c, 13, 50, 0
15, 7379, Note_on_c, 13, 46, 0
15, 7380, Note_on_c, 13, 41, 52
15, 7380, Note_on_c, 13, 46, 52
15, 7439, Note_on_c, 13, 41, 0
15, 7439, Note_on_c, 13, 46, 0
15, 7440, Note_on_c, 13, 46, 52
15, 7440, Note_on_c, 13, 50, 52
15, 7499, Note_on_c, 13, 46, 0
15, 7499, Note_on_c, 13, 50, 0
15, 7500, Note_on_c, 13, 46, 52
15, 7500, Note_on_c, 13, 41, 52
15, 7559, Note_on_c, 13, 46, 0
15, 7559, Note_on_c, 13, 41, 0
15, 7560, Note_on_c, 13, 46, 52
15, 7560, Note_on_c, 13, 50, 52
15, 7619, Note_on_c, 13, 46, 0
15, 7619, Note_on_c, 13, 50, 0
15, 7620, Note_on_c, 13, 41, 52
15, 7620, Note_on_c, 13, 46, 52
15, 7679, Note_on_c, 13, 41, 0
15, 7679, Note_on_c, 13, 46, 0
15, 7680, Note_on_c, 13, 46, 52
15, 7680, Note_on_c, 13, 50, 52
15, 7739, Note_on_c, 13, 46, 0
15, 7739, Note_on_c, 13, 50, 0
15, 7740, Note_on_c, 13, 41, 52
15, 7740, Note_on_c, 13, 46, 52
15, 7799, Note_on_c, 13, 41, 0
15, 7799, Note_on_c, 13, 46, 0
15, 7800, Note_on_c, 13, 50, 52
15, 7800, Note_on_c, 13, 46, 52
15, 7859, Note_on_c, 13, 50, 0
15, 7859, Note_on_c, 13, 46, 0
15, 7860, Note_on_c, 13, 46, 52
15, 7860, Note_on_c, 13, 41, 52
15, 7913, Note_on_c, 13, 46, 0
15, 7913, Note_on_c, 13, 41, 0
15, 7920, Note_on_c, 13, 50, 52
15, 7920, Note_on_c, 13, 46, 52
15, 7979, Note_on_c, 13, 50, 0
15, 7979, Note_on_c, 13, 46, 0
15, 7980, Note_on_c, 13, 41, 54
15, 7980, Note_on_c, 13, 46, 54
15, 8039, Note_on_c, 13, 41, 0
15, 8039, Note_on_c, 13, 46, 0
15, 8040, Note_on_c, 13, 50, 57
15, 8040, Note_on_c, 13, 46, 57
15, 8099, Note_on_c, 13, 50, 0
15, 8099, Note_on_c, 13, 46, 0
15, 8100, Note_on_c, 13, 41, 60
15, 8100, Note_on_c, 13, 46, 60
15, 8159, Note_on_c, 13, 41, 0
15, 8159, Note_on_c, 13, 46, 0
15, 8160, Note_on_c, 13, 46, 62
15, 8160, Note_on_c, 13, 50, 62
15, 8219, Note_on_c, 13, 46, 0
15, 8219, Note_on_c, 13, 50, 0
15, 8220, Note_on_c, 13, 46, 65
15, 8220, Note_on_c, 13, 41, 65
15, 8273, Note_on_c, 13, 46, 0
15, 8273, Note_on_c, 13, 41, 0
15, 8280, Note_on_c, 13, 51, 68
15, 8280, Note_on_c, 13, 48, 68
15, 8339, Note_on_c, 13, 51, 0
15, 8339, Note_on_c, 13, 48, 0
15, 8340, Note_on_c, 13, 41, 66
15, 8340, Note_on_c, 13, 48, 66
15, 8399, Note_on_c, 13, 41, 0
15, 8399, Note_on_c, 13, 48, 0
15, 8400, Note_on_c, 13, 48, 63
15, 8400, Note_on_c, 13, 51, 63
15, 8459, Note_on_c, 13, 48, 0
15, 8459, Note_on_c, 13, 51, 0
15, 8460, Note_on_c, 13, 41, 60
15, 8460, Note_on_c, 13, 48, 60
15, 8519, Note_on_c, 13, 41, 0
15, 8519, Note_on_c, 13, 48, 0
15, 8520, Note_on_c, 13, 48, 58
15, 8520, Note_on_c, 13, 51, 58
15, 8579, Note_on_c, 13, 48, 0
15, 8579, Note_on_c, 13, 51, 0
15, 8580, Note_on_c, 13, 48, 55
15, 8580, Note_on_c, 13, 41, 55
15, 8633, Note_on_c, 13, 48, 0
15, 8633, Note_on_c, 13, 41, 0
15, 8640, Note_on_c, 13, 50, 52
15, 8699, Note_on_c, 13, 50, 0
15, 8700, Note_on_c, 13, 53, 52
15, 8759, Note_on_c, 13, 53, 0
15, 8760, Note_on_c, 13, 50, 52
15, 8819, Note_on_c, 13, 50, 0
15, 8820, Note_on_c, 13, 53, 52
15, 8879, Note_on_c, 13, 53, 0
15, 8880, Note_on_c, 13, 50, 52
15, 8939, Note_on_c, 13, 50, 0
15, 8940, Note_on_c, 13, 53, 52
15, 8999, Note_on_c, 13, 53, 0
15, 9000, Note_on_c, 13, 51, 52
15, 9059, Note_on_c, 13, 51, 0
15, 9060, Note_on_c, 13, 55, 52
15, 9119, Note_on_c, 13, 55, 0
15, 9120, Note_on_c, 13, 50, 52
15, 9179, Note_on_c, 13, 50, 0
15, 9180, Note_on_c, 13, 53, 52
15, 9239, Note_on_c, 13, 53, 0
15, 9240, Note_on_c, 13, 50, 52
15, 9299, Note_on_c, 13, 50, 0
15, 9300, Note_on_c, 13, 53, 52
15, 9359, Note_on_c, 13, 53, 0
15, 9360, Note_on_c, 13, 48, 52
15, 9419, Note_on_c, 13, 48, 0
15, 9420, Note_on_c, 13, 51, 52
15, 9479, Note_on_c, 13, 51, 0
15, 9480, Note_on_c, 13, 46, 52
15, 9539, Note_on_c, 13, 46, 0
15, 9540, Note_on_c, 13, 50, 52
15, 9599, Note_on_c, 13, 50, 0
15, 9600, Note_on_c, 13, 46, 52
15, 9659, Note_on_c, 13, 46, 0
15, 9660, Note_on_c, 13, 50, 52
15, 9719, Note_on_c, 13, 50, 0
15, 9720, Note_on_c, 13, 41, 52
15, 9779, Note_on_c, 13, 41, 0
15, 9780, Note_on_c, 13, 48, 52
15, 9839, Note_on_c, 13, 48, 0
15, 9840, Note_on_c, 13, 46, 52
15, 9899, Note_on_c, 13, 46, 0
15, 9900, Note_on_c, 13, 50, 52
15, 9959, Note_on_c, 13, 50, 0
15, 9960, Note_on_c, 13, 46, 52
15, 10013, Note_on_c, 13, 46, 0
15, 10020, Note_on_c, 13, 50, 52
15, 10073, Note_on_c, 13, 50, 0
15, 10080, Note_on_c, 13, 46, 52
15, 10139, Note_on_c, 13, 46, 0
15, 10140, Note_on_c, 13, 53, 52
15, 10199, Note_on_c, 13, 53, 0
15, 10200, Note_on_c, 13, 50, 52
15, 10259, Note_on_c, 13, 50, 0
15, 10260, Note_on_c, 13, 53, 52
15, 10319, Note_on_c, 13, 53, 0
15, 10320, Note_on_c, 13, 50, 52
15, 10379, Note_on_c, 13, 50, 0
15, 10380, Note_on_c, 13, 53, 52
15, 10439, Note_on_c, 13, 53, 0
15, 10440, Note_on_c, 13, 51, 52
15, 10499, Note_on_c, 13, 51, 0
15, 10500, Note_on_c, 13, 55, 52
15, 10559, Note_on_c, 13, 55, 0
15, 10560, Note_on_c, 13, 50, 52
15, 10619, Note_on_c, 13, 50, 0
15, 10620, Note_on_c, 13, 53, 52
15, 10679, Note_on_c, 13, 53, 0
15, 10680, Note_on_c, 13, 50, 52
15, 10739, Note_on_c, 13, 50, 0
15, 10740, Note_on_c, 13, 53, 52
15, 10799, Note_on_c, 13, 53, 0
15, 10800, Note_on_c, 13, 48, 52
15, 10859, Note_on_c, 13, 48, 0
15, 10860, Note_on_c, 13, 51, 52
15, 10919, Note_on_c, 13, 51, 0
15, 10920, Note_on_c, 13, 46, 52
15, 10979, Note_on_c, 13, 46, 0
15, 10980, Note_on_c, 13, 50, 52
15, 11039, Note_on_c, 13, 50, 0
15, 11040, Note_on_c, 13, 46, 52
15, 11099, Note_on_c, 13, 46, 0
15, 11100, Note_on_c, 13, 50, 52
15, 11159, Note_on_c, 13, 50, 0
15, 11160, Note_on_c, 13, 41, 52
15, 11219, Note_on_c, 13, 41, 0
15, 11220, Note_on_c, 13, 48, 52
15, 11279, Note_on_c, 13, 48, 0
15, 11280, Note_on_c, 13, 46, 52
15, 11339, Note_on_c, 13, 46, 0
15, 11340, Note_on_c, 13, 50, 52
15, 11399, Note_on_c, 13, 50, 0
15, 11400, Note_on_c, 13, 46, 52
15, 11459, Note_on_c, 13, 46, 0
15, 11460, Note_on_c, 13, 50, 52
15, 11513, Note_on_c, 13, 50, 0
15, 11520, Note_on_c, 13, 41, 52
15, 11579, Note_on_c, 13, 41, 0
15, 11580, Note_on_c, 13, 48, 52
15, 11639, Note_on_c, 13, 48, 0
15, 11640, Note_on_c, 13, 48, 52
15, 11699, Note_on_c, 13, 48, 0
15, 11700, Note_on_c, 13, 51, 52
15, 11759, Note_on_c, 13, 51, 0
15, 11760, Note_on_c, 13, 48, 52
15, 11819, Note_on_c, 13, 48, 0
15, 11820, Note_on_c, 13, 51, 52
15, 11879, Note_on_c, 13, 51, 0
15, 11880, Note_on_c, 13, 50, 52
15, 11939, Note_on_c, 13, 50, 0
15, 11940, Note_on_c, 13, 53, 52
15, 11999, Note_on_c, 13, 53, 0
15, 12000, Note_on_c, 13, 48, 52
15, 12059, Note_on_c, 13, 48, 0
15, 12060, Note_on_c, 13, 51, 52
15, 12119, Note_on_c, 13, 51, 0
15, 12120, Note_on_c, 13, 48, 52
15, 12179, Note_on_c, 13, 48, 0
15, 12180, Note_on_c, 13, 51, 52
15, 12239, Note_on_c, 13, 51, 0
15, 12240, Note_on_c, 13, 46, 52
15, 12299, Note_on_c, 13, 46, 0
15, 12300, Note_on_c, 13, 50, 52
15, 12359, Note_on_c, 13, 50, 0
15, 12360, Note_on_c, 13, 45, 52
15, 12419, Note_on_c, 13, 45, 0
15, 12420, Note_on_c, 13, 48, 52
15, 12479, Note_on_c, 13, 48, 0
15, 12480, Note_on_c, 13, 45, 52
15, 12539, Note_on_c, 13, 45, 0
15, 12540, Note_on_c, 13, 48, 52
15, 12599, Note_on_c, 13, 48, 0
15, 12600, Note_on_c, 13, 43, 52
15, 12659, Note_on_c, 13, 43, 0
15, 12660, Note_on_c, 13, 46, 52
15, 12719, Note_on_c, 13, 46, 0
15, 12720, Note_on_c, 13, 41, 52
15, 12779, Note_on_c, 13, 41, 0
15, 12780, Note_on_c, 13, 48, 52
15, 12839, Note_on_c, 13, 48, 0
15, 12840, Note_on_c, 13, 41, 52
15, 12899, Note_on_c, 13, 41, 0
15, 12900, Note_on_c, 13, 48, 52
15, 12953, Note_on_c, 13, 48, 0
15, 12960, Note_on_c, 13, 41, 52
15, 13019, Note_on_c, 13, 41, 0
15, 13020, Note_on_c, 13, 48, 52
15, 13079, Note_on_c, 13, 48, 0
15, 13080, Note_on_c, 13, 48, 52
15, 13139, Note_on_c, 13, 48, 0
15, 13140, Note_on_c, 13, 51, 52
15, 13199, Note_on_c, 13, 51, 0
15, 13200, Note_on_c, 13, 48, 52
15, 13259, Note_on_c, 13, 48, 0
15, 13260, Note_on_c, 13, 51, 52
15, 13319, Note_on_c, 13, 51, 0
15, 13320, Note_on_c, 13, 50, 52
15, 13379, Note_on_c, 13, 50, 0
15, 13380, Note_on_c, 13, 53, 52
15, 13439, Note_on_c, 13, 53, 0
15, 13440, Note_on_c, 13, 48, 52
15, 13499, Note_on_c, 13, 48, 0
15, 13500, Note_on_c, 13, 51, 52
15, 13559, Note_on_c, 13, 51, 0
15, 13560, Note_on_c, 13, 48, 52
15, 13619, Note_on_c, 13, 48, 0
15, 13620, Note_on_c, 13, 51, 52
15, 13679, Note_on_c, 13, 51, 0
15, 13680, Note_on_c, 13, 46, 52
15, 13739, Note_on_c, 13, 46, 0
15, 13740, Note_on_c, 13, 50, 52
15, 13799, Note_on_c, 13, 50, 0
15, 13800, Note_on_c, 13, 45, 52
15, 13859, Note_on_c, 13, 45, 0
15, 13860, Note_on_c, 13, 48, 52
15, 13919, Note_on_c, 13, 48, 0
15, 13920, Note_on_c, 13, 45, 52
15, 13979, Note_on_c, 13, 45, 0
15, 13980, Note_on_c, 13, 48, 52
15, 14039, Note_on_c, 13, 48, 0
15, 14040, Note_on_c, 13, 43, 52
15, 14099, Note_on_c, 13, 43, 0
15, 14100, Note_on_c, 13, 46, 52
15, 14159, Note_on_c, 13, 46, 0
15, 14160, Note_on_c, 13, 41, 52
15, 14219, Note_on_c, 13, 41, 0
15, 14220, Note_on_c, 13, 48, 52
15, 14279, Note_on_c, 13, 48, 0
15, 14280, Note_on_c, 13, 41, 52
15, 14339, Note_on_c, 13, 41, 0
15, 14340, Note_on_c, 13, 48, 52
15, 14393, Note_on_c, 13, 48, 0
15, 14400, Note_on_c, 13, 50, 52
15, 14400, Note_on_c, 13, 46, 52
15, 14459, Note_on_c, 13, 50, 0
15, 14459, Note_on_c, 13, 46, 0
15, 14460, Note_on_c, 13, 38, 53
15, 14460, Note_on_c, 13, 46, 53
15, 14519, Note_on_c, 13, 38, 0
15, 14519, Note_on_c, 13, 46, 0
15, 14520, Note_on_c, 13, 46, 54
15, 14520, Note_on_c, 13, 50, 54
15, 14579, Note_on_c, 13, 46, 0
15, 14579, Note_on_c, 13, 50, 0
15, 14580, Note_on_c, 13, 38, 55
15, 14580, Note_on_c, 13, 46, 55
15, 14639, Note_on_c, 13, 38, 0
15, 14639, Note_on_c, 13, 46, 0
15, 14640, Note_on_c, 13, 50, 56
15, 14640, Note_on_c, 13, 46, 56
15, 14699, Note_on_c, 13, 50, 0
15, 14699, Note_on_c, 13, 46, 0
15, 14700, Note_on_c, 13, 46, 57
15, 14700, Note_on_c, 13, 38, 57
15, 14759, Note_on_c, 13, 46, 0
15, 14759, Note_on_c, 13, 38, 0
15, 14760, Note_on_c, 13, 50, 58
15, 14760, Note_on_c, 13, 46, 58
15, 14819, Note_on_c, 13, 50, 0
15, 14819, Note_on_c, 13, 46, 0
15, 14820, Note_on_c, 13, 38, 59
15, 14820, Note_on_c, 13, 46, 59
15, 14879, Note_on_c, 13, 38, 0
15, 14879, Note_on_c, 13, 46, 0
15, 14880, Note_on_c, 13, 46, 60
15, 14880, Note_on_c, 13, 50, 60
15, 14939, Note_on_c, 13, 46, 0
15, 14939, Note_on_c, 13, 50, 0
15, 14940, Note_on_c, 13, 38, 61
15, 14940, Note_on_c, 13, 46, 61
15, 14999, Note_on_c, 13, 38, 0
15, 14999, Note_on_c, 13, 46, 0
15, 15000, Note_on_c, 13, 46, 62
15, 15000, Note_on_c, 13, 50, 62
15, 15059, Note_on_c, 13, 46, 0
15, 15059, Note_on_c, 13, 50, 0
15, 15060, Note_on_c, 13, 38, 63
15, 15060, Note_on_c, 13, 46, 63
15, 15119, Note_on_c, 13, 38, 0
15, 15119, Note_on_c, 13, 46, 0
15, 15120, Note_on_c, 13, 46, 64
15, 15120, Note_on_c, 13, 48, 64
15, 15179, Note_on_c, 13, 46, 0
15, 15179, Note_on_c, 13, 48, 0
15, 15180, Note_on_c, 13, 46, 65
15, 15180, Note_on_c, 13, 39, 65
15, 15239, Note_on_c, 13, 46, 0
15, 15239, Note_on_c, 13, 39, 0
15, 15240, Note_on_c, 13, 46, 66
15, 15240, Note_on_c, 13, 48, 66
15, 15299, Note_on_c, 13, 46, 0
15, 15299, Note_on_c, 13, 48, 0
15, 15300, Note_on_c, 13, 39, 67
15, 15300, Note_on_c, 13, 46, 67
15, 15359, Note_on_c, 13, 39, 0
15, 15359, Note_on_c, 13, 46, 0
15, 15360, Note_on_c, 13, 48, 68
15, 15360, Note_on_c, 13, 46, 68
15, 15419, Note_on_c, 13, 48, 0
15, 15419, Note_on_c, 13, 46, 0
15, 15420, Note_on_c, 13, 39, 69
15, 15420, Note_on_c, 13, 46, 69
15, 15479, Note_on_c, 13, 39, 0
15, 15479, Note_on_c, 13, 46, 0
15, 15480, Note_on_c, 13, 48, 70
15, 15480, Note_on_c, 13, 46, 70
15, 15539, Note_on_c, 13, 48, 0
15, 15539, Note_on_c, 13, 46, 0
15, 15540, Note_on_c, 13, 46, 71
15, 15540, Note_on_c, 13, 39, 71
15, 15599, Note_on_c, 13, 46, 0
15, 15599, Note_on_c, 13, 39, 0
15, 15600, Note_on_c, 13, 48, 72
15, 15600, Note_on_c, 13, 46, 72
15, 15659, Note_on_c, 13, 48, 0
15, 15659, Note_on_c, 13, 46, 0
15, 15660, Note_on_c, 13, 46, 73
15, 15660, Note_on_c, 13, 39, 73
15, 15719, Note_on_c, 13, 46, 0
15, 15719, Note_on_c, 13, 39, 0
15, 15720, Note_on_c, 13, 48, 74
15, 15720, Note_on_c, 13, 46, 74
15, 15779, Note_on_c, 13, 48, 0
15, 15779, Note_on_c, 13, 46, 0
15, 15780, Note_on_c, 13, 46, 75
15, 15780, Note_on_c, 13, 39, 75
15, 15833, Note_on_c, 13, 46, 0
15, 15833, Note_on_c, 13, 39, 0
15, 15840, Note_on_c, 13, 46, 76
15, 15840, Note_on_c, 13, 50, 76
15, 15899, Note_on_c, 13, 46, 0
15, 15899, Note_on_c, 13, 50, 0
15, 15900, Note_on_c, 13, 41, 52
15, 15900, Note_on_c, 13, 46, 52
15, 15959, Note_on_c, 13, 41, 0
15, 15959, Note_on_c, 13, 46, 0
15, 15960, Note_on_c, 13, 50, 52
15, 15960, Note_on_c, 13, 46, 52
15, 16019, Note_on_c, 13, 50, 0
15, 16019, Note_on_c, 13, 46, 0
15, 16020, Note_on_c, 13, 46, 52
15, 16020, Note_on_c, 13, 41, 52
15, 16079, Note_on_c, 13, 46, 0
15, 16079, Note_on_c, 13, 41, 0
15, 16080, Note_on_c, 13, 50, 52
15, 16080, Note_on_c, 13, 46, 52
15, 16139, Note_on_c, 13, 50, 0
15, 16139, Note_on_c, 13, 46, 0
15, 16140, Note_on_c, 13, 46, 52
15, 16140, Note_on_c, 13, 41, 52
15, 16199, Note_on_c, 13, 46, 0
15, 16199, Note_on_c, 13, 41, 0
15, 16200, Note_on_c, 13, 46, 52
15, 16200, Note_on_c, 13, 50, 52
15, 16259, Note_on_c, 13, 46, 0
15, 16259, Note_on_c, 13, 50, 0
15, 16260, Note_on_c, 13, 46, 52
15, 16260, Note_on_c, 13, 41, 52
15, 16319, Note_on_c, 13, 46, 0
15, 16319, Note_on_c, 13, 41, 0
15, 16320, Note_on_c, 13, 46, 52
15, 16320, Note_on_c, 13, 50, 52
15, 16379, Note_on_c, 13, 46, 0
15, 16379, Note_on_c, 13, 50, 0
15, 16380, Note_on_c, 13, 46, 52
15, 16380, Note_on_c, 13, 41, 52
15, 16439, Note_on_c, 13, 46, 0
15, 16439, Note_on_c, 13, 41, 0
15, 16440, Note_on_c, 13, 46, 52
15, 16440, Note_on_c, 13, 50, 52
15, 16499, Note_on_c, 13, 46, 0
15, 16499, Note_on_c, 13, 50, 0
15, 16500, Note_on_c, 13, 41, 52
15, 16500, Note_on_c, 13, 46, 52
15, 16553, Note_on_c, 13, 41, 0
15, 16553, Note_on_c, 13, 46, 0
15, 16560, Note_on_c, 13, 50, 52
15, 16560, Note_on_c, 13, 46, 52
15, 16619, Note_on_c, 13, 50, 0
15, 16619, Note_on_c, 13, 46, 0
15, 16620, Note_on_c, 13, 41, 54
15, 16620, Note_on_c, 13, 46, 54
15, 16679, Note_on_c, 13, 41, 0
15, 16679, Note_on_c, 13, 46, 0
15, 16680, Note_on_c, 13, 50, 57
15, 16680, Note_on_c, 13, 46, 57
15, 16739, Note_on_c, 13, 50, 0
15, 16739, Note_on_c, 13, 46, 0
15, 16740, Note_on_c, 13, 41, 60
15, 16740, Note_on_c, 13, 46, 60
15, 16799, Note_on_c, 13, 41, 0
15, 16799, Note_on_c, 13, 46, 0
15, 16800, Note_on_c, 13, 50, 62
15, 16800, Note_on_c, 13, 46, 62
15, 16859, Note_on_c, 13, 50, 0
15, 16859, Note_on_c, 13, 46, 0
15, 16860, Note_on_c, 13, 41, 65
15, 16860, Note_on_c, 13, 46, 65
15, 16913, Note_on_c, 13, 41, 0
15, 16913, Note_on_c, 13, 46, 0
15, 16920, Note_on_c, 13, 48, 68
15, 16920, Note_on_c, 13, 51, 68
15, 16979, Note_on_c, 13, 48, 0
15, 16979, Note_on_c, 13, 51, 0
15, 16980, Note_on_c, 13, 41, 66
15, 16980, Note_on_c, 13, 48, 66
15, 17039, Note_on_c, 13, 41, 0
15, 17039, Note_on_c, 13, 48, 0
15, 17040, Note_on_c, 13, 51, 63
15, 17040, Note_on_c, 13, 48, 63
15, 17099, Note_on_c, 13, 51, 0
15, 17099, Note_on_c, 13, 48, 0
15, 17100, Note_on_c, 13, 48, 60
15, 17100, Note_on_c, 13, 41, 60
15, 17159, Note_on_c, 13, 48, 0
15, 17159, Note_on_c, 13, 41, 0
15, 17160, Note_on_c, 13, 48, 58
15, 17160, Note_on_c, 13, 51, 58
15, 17219, Note_on_c, 13, 48, 0
15, 17219, Note_on_c, 13, 51, 0
15, 17220, Note_on_c, 13, 41, 55
15, 17220, Note_on_c, 13, 48, 55
15, 17273, Note_on_c, 13, 41, 0
15, 17273, Note_on_c, 13, 48, 0
15, 17280, Note_on_c, 13, 46, 52
15, 17339, Note_on_c, 13, 46, 0
15, 17340, Note_on_c, 13, 50, 52
15, 17399, Note_on_c, 13, 50, 0
15, 17400, Note_on_c, 13, 46, 52
15, 17459, Note_on_c, 13, 46, 0
15, 17460, Note_on_c, 13, 50, 52
15, 17519, Note_on_c, 13, 50, 0
15, 17520, Note_on_c, 13, 46, 52
15, 17579, Note_on_c, 13, 46, 0
15, 17580, Note_on_c, 13, 50, 52
15, 17639, Note_on_c, 13, 50, 0
15, 17640, Note_on_c, 13, 46, 52
15, 17699, Note_on_c, 13, 46, 0
15, 17700, Note_on_c, 13, 50, 52
15, 17759, Note_on_c, 13, 50, 0
15, 17760, Note_on_c, 13, 46, 52
15, 17819, Note_on_c, 13, 46, 0
15, 17820, Note_on_c, 13, 50, 52
15, 17879, Note_on_c, 13, 50, 0
15, 17880, Note_on_c, 13, 46, 52
15, 17939, Note_on_c, 13, 46, 0
15, 17940, Note_on_c, 13, 50, 52
15, 17993, Note_on_c, 13, 50, 0
15, 18000, Note_on_c, 13, 46, 52
15, 18059, Note_on_c, 13, 46, 0
15, 18060, Note_on_c, 13, 51, 52
15, 18119, Note_on_c, 13, 51, 0
15, 18120, Note_on_c, 13, 46, 52
15, 18179, Note_on_c, 13, 46, 0
15, 18180, Note_on_c, 13, 51, 52
15, 18239, Note_on_c, 13, 51, 0
15, 18240, Note_on_c, 13, 46, 52
15, 18299, Note_on_c, 13, 46, 0
15, 18300, Note_on_c, 13, 51, 52
15, 18359, Note_on_c, 13, 51, 0
15, 18360, Note_on_c, 13, 46, 52
15, 18419, Note_on_c, 13, 46, 0
15, 18420, Note_on_c, 13, 51, 52
15, 18479, Note_on_c, 13, 51, 0
15, 18480, Note_on_c, 13, 46, 52
15, 18539, Note_on_c, 13, 46, 0
15, 18540, Note_on_c, 13, 51, 52
15, 18599, Note_on_c, 13, 51, 0
15, 18600, Note_on_c, 13, 46, 52
15, 18659, Note_on_c, 13, 46, 0
15, 18660, Note_on_c, 13, 51, 52
15, 18713, Note_on_c, 13, 51, 0
15, 18720, Note_on_c, 13, 46, 52
15, 18779, Note_on_c, 13, 46, 0
15, 18780, Note_on_c, 13, 50, 53
15, 18839, Note_on_c, 13, 50, 0
15, 18840, Note_on_c, 13, 46, 54
15, 18899, Note_on_c, 13, 46, 0
15, 18900, Note_on_c, 13, 50, 56
15, 18959, Note_on_c, 13, 50, 0
15, 18960, Note_on_c, 13, 46, 57
15, 19019, Note_on_c, 13, 46, 0
15, 19020, Note_on_c, 13, 50, 58
15, 19079, Note_on_c, 13, 50, 0
15, 19080, Note_on_c, 13, 46, 60
15, 19139, Note_on_c, 13, 46, 0
15, 19140, Note_on_c, 13, 50, 61
15, 19199, Note_on_c, 13, 50, 0
15, 19200, Note_on_c, 13, 46, 62
15, 19259, Note_on_c, 13, 46, 0
15, 19260, Note_on_c, 13, 50, 64
15, 19319, Note_on_c, 13, 50, 0
15, 19320, Note_on_c, 13, 46, 65
15, 19379, Note_on_c, 13, 46, 0
15, 19380, Note_on_c, 13, 50, 66
15, 19433, Note_on_c, 13, 50, 0
15, 19440, Note_on_c, 13, 46, 68
15, 19499, Note_on_c, 13, 46, 0
15, 19500, Note_on_c, 13, 48, 67
15, 19559, Note_on_c, 13, 48, 0
15, 19560, Note_on_c, 13, 46, 66
15, 19619, Note_on_c, 13, 46, 0
15, 19620, Note_on_c, 13, 48, 64
15, 19679, Note_on_c, 13, 48, 0
15, 19680, Note_on_c, 13, 46, 63
15, 19739, Note_on_c, 13, 46, 0
15, 19740, Note_on_c, 13, 48, 62
15, 19793, Note_on_c, 13, 48, 0
15, 19800, Note_on_c, 13, 46, 60
15, 19859, Note_on_c, 13, 46, 0
15, 19860, Note_on_c, 13, 53, 59
15, 19919, Note_on_c, 13, 53, 0
15, 19920, Note_on_c, 13, 46, 58
15, 19979, Note_on_c, 13, 46, 0
15, 19980, Note_on_c, 13, 53, 56
15, 20039, Note_on_c, 13, 53, 0
15, 20040, Note_on_c, 13, 46, 55
15, 20099, Note_on_c, 13, 46, 0
15, 20100, Note_on_c, 13, 53, 54
15, 20153, Note_on_c, 13, 53, 0
15, 20160, Note_on_c, 13, 46, 52
15, 20749, Note_on_c, 13, 46, 0
15, 20760, Note_on_c, 13, 46, 52
15, 20849, Note_on_c, 13, 46, 0
15, 20860, Note_on_c, 13, 46, 52
15, 20879, Note_on_c, 13, 46, 0
15, 20880, Note_on_c, 13, 45, 52
15, 20999, Note_on_c, 13, 45, 0
15, 21000, Note_on_c, 13, 43, 52
15, 21119, Note_on_c, 13, 43, 0
15, 21120, Note_on_c, 13, 41, 52
15, 21229, Note_on_c, 13, 41, 0
15, 21240, Note_on_c, 13, 41, 52
15, 21339, Note_on_c, 13, 41, 0
15, 21360, Note_on_c, 13, 43, 52
15, 21459, Note_on_c, 13, 43, 0
15, 21480, Note_on_c, 13, 45, 52
15, 21569, Note_on_c, 13, 45, 0
15, 21598, Control_c, 13, 11, 97
15, 21600, Note_on_c, 13, 46, 68
15, 21660, Control_c, 13, 11, 99
15, 21720, Control_c, 13, 11, 102
15, 21780, Control_c, 13, 11, 105
15, 21840, Control_c, 13, 11, 107
15, 21900, Control_c, 13, 11, 110
15, 21960, Control_c, 13, 11, 113
15, 22020, Control_c, 13, 11, 115
15, 22079, Note_on_c, 13, 46, 0
15, 22080, Note_on_c, 13, 48, 68
15, 22080, Control_c, 13, 11, 118
15, 22140, Control_c, 13, 11, 119
15, 22199, Note_on_c, 13, 48, 0
15, 22200, Control_c, 13, 11, 123
15, 22200, Note_on_c, 13, 50, 68
15, 22260, Control_c, 13, 11, 125
15, 22309, Note_on_c, 13, 50, 0
15, 22320, Control_c, 13, 11, 127
15, 22320, Note_on_c, 13, 53, 68
15, 22380, Control_c, 13, 11, 125
15, 22439, Note_on_c, 13, 53, 0
15, 22440, Note_on_c, 13, 51, 68
15, 22440, Control_c, 13, 11, 123
15, 22500, Control_c, 13, 11, 119
15, 22549, Note_on_c, 13, 51, 0
15, 22560, Note_on_c, 13, 50, 68
15, 22560, Control_c, 13, 11, 118
15, 22620, Control_c, 13, 11, 115
15, 22649, Note_on_c, 13, 50, 0
15, 22680, Note_on_c, 13, 48, 68
15, 22680, Control_c, 13, 11, 113
15, 22740, Control_c, 13, 11, 110
15, 22800, Control_c, 13, 11, 107
15, 22860, Control_c, 13, 11, 105
15, 22919, Note_on_c, 13, 48, 0
15, 22920, Note_on_c, 13, 53, 68
15, 22920, Control_c, 13, 11, 102
15, 22980, Control_c, 13, 11, 99
15, 23029, Note_on_c, 13, 53, 0
15, 23038, Control_c, 13, 11, 97
15, 23040, Note_on_c, 13, 46, 68
15, 23040, Note_on_c, 13, 50, 68
15, 23519, Note_on_c, 13, 46, 0
15, 23519, Note_on_c, 13, 50, 0
15, 23520, Note_on_c, 13, 55, 76
15, 23520, Note_on_c, 13, 51, 76
15, 23639, Note_on_c, 13, 55, 0
15, 23639, Note_on_c, 13, 51, 0
15, 23640, Note_on_c, 13, 50, 68
15, 23640, Note_on_c, 13, 53, 68
15, 23749, Note_on_c, 13, 50, 0
15, 23749, Note_on_c, 13, 53, 0
15, 23760, Note_on_c, 13, 50, 68
15, 23760, Note_on_c, 13, 46, 68
15, 23879, Note_on_c, 13, 50, 0
15, 23879, Note_on_c, 13, 46, 0
15, 23880, Note_on_c, 13, 55, 76
15, 23880, Note_on_c, 13, 51, 76
15, 23999, Note_on_c, 13, 55, 0
15, 23999, Note_on_c, 13, 51, 0
15, 24000, Note_on_c, 13, 53, 68
15, 24000, Note_on_c, 13, 50, 68
15, 24109, Note_on_c, 13, 53, 0
15, 24109, Note_on_c, 13, 50, 0
15, 24120, Note_on_c, 13, 46, 68
15, 24120, Note_on_c, 13, 50, 68
15, 24239, Note_on_c, 13, 46, 0
15, 24239, Note_on_c, 13, 50, 0
15, 24240, Note_on_c, 13, 55, 76
15, 24240, Note_on_c, 13, 51, 76
15, 24359, Note_on_c, 13, 55, 0
15, 24359, Note_on_c, 13, 51, 0
15, 24360, Note_on_c, 13, 50, 68
15, 24360, Note_on_c, 13, 53, 68
15, 24469, Note_on_c, 13, 50, 0
15, 24469, Note_on_c, 13, 53, 0
15, 24480, Note_on_c, 13, 50, 68
15, 24480, Note_on_c, 13, 46, 68
15, 24719, Note_on_c, 13, 50, 0
15, 24719, Note_on_c, 13, 46, 0
15, 24838, Control_c, 13, 11, 127
15, 24838, Program_c, 13, 45
15, 24840, Note_on_c, 13, 46, 48
15, 25079, Note_on_c, 13, 46, 0
15, 25200, Note_on_c, 13, 46, 48
15, 25438, Program_c, 13, 42
15, 25439, Note_on_c, 13, 46, 0
15, 25560, Note_on_c, 13, 50, 44
15, 25613, Note_on_c, 13, 50, 0
15, 25620, Note_on_c, 13, 50, 44
15, 25673, Note_on_c, 13, 50, 0
15, 25680, Note_on_c, 13, 50, 44
15, 25733, Note_on_c, 13, 50, 0
15, 25740, Note_on_c, 13, 50, 44
15, 25793, Note_on_c, 13, 50, 0
15, 25800, Note_on_c, 13, 50, 44
15, 25853, Note_on_c, 13, 50, 0
15, 25860, Note_on_c, 13, 50, 44
15, 25913, Note_on_c, 13, 50, 0
15, 25920, Note_on_c, 13, 50, 44
15, 26159, Note_on_c, 13, 50, 0
15, 26280, Note_on_c, 13, 51, 44
15, 26333, Note_on_c, 13, 51, 0
15, 26340, Note_on_c, 13, 51, 44
15, 26393, Note_on_c, 13, 51, 0
15, 26400, Note_on_c, 13, 51, 44
15, 26453, Note_on_c, 13, 51, 0
15, 26460, Note_on_c, 13, 51, 44
15, 26513, Note_on_c, 13, 51, 0
15, 26520, Note_on_c, 13, 51, 44
15, 26573, Note_on_c, 13, 51, 0
15, 26580, Note_on_c, 13, 51, 44
15, 26633, Note_on_c, 13, 51, 0
15, 26640, Note_on_c, 13, 50, 44
15, 26879, Note_on_c, 13, 50, 0
15, 28440, Note_on_c, 13, 53, 44
15, 28493, Note_on_c, 13, 53, 0
15, 28500, Note_on_c, 13, 53, 44
15, 28553, Note_on_c, 13, 53, 0
15, 28560, Note_on_c, 13, 53, 44
15, 28613, Note_on_c, 13, 53, 0
15, 28620, Note_on_c, 13, 53, 44
15, 28673, Note_on_c, 13, 53, 0
15, 28680, Note_on_c, 13, 53, 44
15, 28733, Note_on_c, 13, 53, 0
15, 28740, Note_on_c, 13, 53, 44
15, 28793, Note_on_c, 13, 53, 0
15, 28800, Note_on_c, 13, 46, 52
15, 28859, Note_on_c, 13, 46, 0
15, 28860, Note_on_c, 13, 53, 52
15, 28919, Note_on_c, 13, 53, 0
15, 28920, Note_on_c, 13, 50, 52
15, 28979, Note_on_c, 13, 50, 0
15, 28980, Note_on_c, 13, 53, 52
15, 29039, Note_on_c, 13, 53, 0
15, 29040, Note_on_c, 13, 50, 52
15, 29099, Note_on_c, 13, 50, 0
15, 29100, Note_on_c, 13, 53, 52
15, 29159, Note_on_c, 13, 53, 0
15, 29160, Note_on_c, 13, 51, 52
15, 29219, Note_on_c, 13, 51, 0
15, 29220, Note_on_c, 13, 55, 52
15, 29279, Note_on_c, 13, 55, 0
15, 29280, Note_on_c, 13, 50, 52
15, 29339, Note_on_c, 13, 50, 0
15, 29340, Note_on_c, 13, 53, 52
15, 29399, Note_on_c, 13, 53, 0
15, 29400, Note_on_c, 13, 50, 52
15, 29459, Note_on_c, 13, 50, 0
15, 29460, Note_on_c, 13, 53, 52
15, 29519, Note_on_c, 13, 53, 0
15, 29520, Note_on_c, 13, 48, 52
15, 29579, Note_on_c, 13, 48, 0
15, 29580, Note_on_c, 13, 51, 52
15, 29639, Note_on_c, 13, 51, 0
15, 29640, Note_on_c, 13, 46, 52
15, 29699, Note_on_c, 13, 46, 0
15, 29700, Note_on_c, 13, 50, 52
15, 29759, Note_on_c, 13, 50, 0
15, 29760, Note_on_c, 13, 46, 52
15, 29819, Note_on_c, 13, 46, 0
15, 29820, Note_on_c, 13, 50, 52
15, 29879, Note_on_c, 13, 50, 0
15, 29880, Note_on_c, 13, 41, 52
15, 29939, Note_on_c, 13, 41, 0
15, 29940, Note_on_c, 13, 48, 52
15, 29999, Note_on_c, 13, 48, 0
15, 30000, Note_on_c, 13, 46, 52
15, 30059, Note_on_c, 13, 46, 0
15, 30060, Note_on_c, 13, 50, 52
15, 30119, Note_on_c, 13, 50, 0
15, 30120, Note_on_c, 13, 46, 52
15, 30179, Note_on_c, 13, 46, 0
15, 30180, Note_on_c, 13, 50, 52
15, 30233, Note_on_c, 13, 50, 0
15, 30240, Note_on_c, 13, 46, 52
15, 30299, Note_on_c, 13, 46, 0
15, 30300, Note_on_c, 13, 50, 52
15, 30359, Note_on_c, 13, 50, 0
15, 30360, Note_on_c, 13, 50, 52
15, 30419, Note_on_c, 13, 50, 0
15, 30420, Note_on_c, 13, 53, 52
15, 30479, Note_on_c, 13, 53, 0
15, 30480, Note_on_c, 13, 50, 52
15, 30539, Note_on_c, 13, 50, 0
15, 30540, Note_on_c, 13, 53, 52
15, 30599, Note_on_c, 13, 53, 0
15, 30600, Note_on_c, 13, 51, 52
15, 30659, Note_on_c, 13, 51, 0
15, 30660, Note_on_c, 13, 55, 52
15, 30719, Note_on_c, 13, 55, 0
15, 30720, Note_on_c, 13, 50, 52
15, 30779, Note_on_c, 13, 50, 0
15, 30780, Note_on_c, 13, 53, 52
15, 30839, Note_on_c, 13, 53, 0
15, 30840, Note_on_c, 13, 50, 52
15, 30899, Note_on_c, 13, 50, 0
15, 30900, Note_on_c, 13, 53, 52
15, 30959, Note_on_c, 13, 53, 0
15, 30960, Note_on_c, 13, 48, 52
15, 31019, Note_on_c, 13, 48, 0
15, 31020, Note_on_c, 13, 51, 52
15, 31079, Note_on_c, 13, 51, 0
15, 31080, Note_on_c, 13, 46, 52
15, 31139, Note_on_c, 13, 46, 0
15, 31140, Note_on_c, 13, 50, 52
15, 31199, Note_on_c, 13, 50, 0
15, 31200, Note_on_c, 13, 46, 52
15, 31259, Note_on_c, 13, 46, 0
15, 31260, Note_on_c, 13, 50, 52
15, 31319, Note_on_c, 13, 50, 0
15, 31320, Note_on_c, 13, 45, 52
15, 31379, Note_on_c, 13, 45, 0
15, 31380, Note_on_c, 13, 48, 52
15, 31439, Note_on_c, 13, 48, 0
15, 31440, Note_on_c, 13, 43, 52
15, 31499, Note_on_c, 13, 43, 0
15, 31500, Note_on_c, 13, 46, 52
15, 31559, Note_on_c, 13, 46, 0
15, 31560, Note_on_c, 13, 41, 52
15, 31619, Note_on_c, 13, 41, 0
15, 31620, Note_on_c, 13, 45, 52
15, 31679, Note_on_c, 13, 45, 0
15, 31680, Note_on_c, 13, 40, 52
15, 31739, Note_on_c, 13, 40, 0
15, 31740, Note_on_c, 13, 43, 52
15, 31793, Note_on_c, 13, 43, 0
15, 31800, Note_on_c, 13, 55, 52
15, 31859, Note_on_c, 13, 55, 0
15, 31860, Note_on_c, 13, 58, 52
15, 31919, Note_on_c, 13, 58, 0
15, 31920, Note_on_c, 13, 55, 52
15, 31979, Note_on_c, 13, 55, 0
15, 31980, Note_on_c, 13, 58, 52
15, 32039, Note_on_c, 13, 58, 0
15, 32040, Note_on_c, 13, 57, 52
15, 32099, Note_on_c, 13, 57, 0
15, 32100, Note_on_c, 13, 60, 52
15, 32159, Note_on_c, 13, 60, 0
15, 32160, Note_on_c, 13, 55, 52
15, 32219, Note_on_c, 13, 55, 0
15, 32220, Note_on_c, 13, 58, 52
15, 32279, Note_on_c, 13, 58, 0
15, 32280, Note_on_c, 13, 55, 52
15, 32339, Note_on_c, 13, 55, 0
15, 32340, Note_on_c, 13, 58, 52
15, 32399, Note_on_c, 13, 58, 0
15, 32400, Note_on_c, 13, 53, 52
15, 32459, Note_on_c, 13, 53, 0
15, 32460, Note_on_c, 13, 57, 52
15, 32519, Note_on_c, 13, 57, 0
15, 32520, Note_on_c, 13, 52, 52
15, 32579, Note_on_c, 13, 52, 0
15, 32580, Note_on_c, 13, 55, 52
15, 32639, Note_on_c, 13, 55, 0
15, 32640, Note_on_c, 13, 52, 52
15, 32699, Note_on_c, 13, 52, 0
15, 32700, Note_on_c, 13, 55, 52
15, 32759, Note_on_c, 13, 55, 0
15, 32760, Note_on_c, 13, 50, 52
15, 32819, Note_on_c, 13, 50, 0
15, 32820, Note_on_c, 13, 53, 52
15, 32879, Note_on_c, 13, 53, 0
15, 32880, Note_on_c, 13, 48, 52
15, 32939, Note_on_c, 13, 48, 0
15, 32940, Note_on_c, 13, 52, 52
15, 32999, Note_on_c, 13, 52, 0
15, 33000, Note_on_c, 13, 48, 52
15, 33059, Note_on_c, 13, 48, 0
15, 33060, Note_on_c, 13, 52, 52
15, 33113, Note_on_c, 13, 52, 0
15, 33120, Note_on_c, 13, 48, 52
15, 33179, Note_on_c, 13, 48, 0
15, 33180, Note_on_c, 13, 52, 52
15, 33239, Note_on_c, 13, 52, 0
15, 33240, Note_on_c, 13, 55, 52
15, 33299, Note_on_c, 13, 55, 0
15, 33300, Note_on_c, 13, 58, 52
15, 33359, Note_on_c, 13, 58, 0
15, 33360, Note_on_c, 13, 55, 52
15, 33419, Note_on_c, 13, 55, 0
15, 33420, Note_on_c, 13, 58, 52
15, 33479, Note_on_c, 13, 58, 0
15, 33480, Note_on_c, 13, 57, 52
15, 33539, Note_on_c, 13, 57, 0
15, 33540, Note_on_c, 13, 60, 52
15, 33599, Note_on_c, 13, 60, 0
15, 33600, Note_on_c, 13, 55, 52
15, 33659, Note_on_c, 13, 55, 0
15, 33660, Note_on_c, 13, 58, 52
15, 33719, Note_on_c, 13, 58, 0
15, 33720, Note_on_c, 13, 53, 52
15, 33779, Note_on_c, 13, 53, 0
15, 33780, Note_on_c, 13, 57, 52
15, 33839, Note_on_c, 13, 57, 0
15, 33840, Note_on_c, 13, 52, 52
15, 33899, Note_on_c, 13, 52, 0
15, 33900, Note_on_c, 13, 55, 52
15, 33959, Note_on_c, 13, 55, 0
15, 33960, Note_on_c, 13, 50, 52
15, 34019, Note_on_c, 13, 50, 0
15, 34020, Note_on_c, 13, 53, 52
15, 34079, Note_on_c, 13, 53, 0
15, 34080, Note_on_c, 13, 48, 52
15, 34139, Note_on_c, 13, 48, 0
15, 34140, Note_on_c, 13, 52, 52
15, 34199, Note_on_c, 13, 52, 0
15, 34200, Note_on_c, 13, 46, 52
15, 34259, Note_on_c, 13, 46, 0
15, 34260, Note_on_c, 13, 50, 52
15, 34319, Note_on_c, 13, 50, 0
15, 34320, Note_on_c, 13, 45, 52
15, 34379, Note_on_c, 13, 45, 0
15, 34380, Note_on_c, 13, 48, 52
15, 34439, Note_on_c, 13, 48, 0
15, 34440, Note_on_c, 13, 43, 52
15, 34499, Note_on_c, 13, 43, 0
15, 34500, Note_on_c, 13, 46, 52
15, 34559, Note_on_c, 13, 46, 0
15, 34560, Note_on_c, 13, 41, 52
15, 34619, Note_on_c, 13, 41, 0
15, 34620, Note_on_c, 13, 60, 52
15, 34679, Note_on_c, 13, 60, 0
15, 34680, Note_on_c, 13, 57, 52
15, 34739, Note_on_c, 13, 57, 0
15, 34740, Note_on_c, 13, 60, 52
15, 34799, Note_on_c, 13, 60, 0
15, 34800, Note_on_c, 13, 57, 52
15, 34859, Note_on_c, 13, 57, 0
15, 34860, Note_on_c, 13, 60, 52
15, 34919, Note_on_c, 13, 60, 0
15, 34920, Note_on_c, 13, 58, 52
15, 34979, Note_on_c, 13, 58, 0
15, 34980, Note_on_c, 13, 62, 52
15, 35039, Note_on_c, 13, 62, 0
15, 35040, Note_on_c, 13, 57, 52
15, 35099, Note_on_c, 13, 57, 0
15, 35100, Note_on_c, 13, 60, 52
15, 35159, Note_on_c, 13, 60, 0
15, 35160, Note_on_c, 13, 57, 52
15, 35219, Note_on_c, 13, 57, 0
15, 35220, Note_on_c, 13, 60, 52
15, 35279, Note_on_c, 13, 60, 0
15, 35280, Note_on_c, 13, 55, 52
15, 35339, Note_on_c, 13, 55, 0
15, 35340, Note_on_c, 13, 58, 52
15, 35399, Note_on_c, 13, 58, 0
15, 35400, Note_on_c, 13, 53, 52
15, 35459, Note_on_c, 13, 53, 0
15, 35460, Note_on_c, 13, 57, 52
15, 35519, Note_on_c, 13, 57, 0
15, 35520, Note_on_c, 13, 53, 52
15, 35579, Note_on_c, 13, 53, 0
15, 35580, Note_on_c, 13, 57, 52
15, 35639, Note_on_c, 13, 57, 0
15, 35640, Note_on_c, 13, 52, 52
15, 35699, Note_on_c, 13, 52, 0
15, 35700, Note_on_c, 13, 55, 52
15, 35759, Note_on_c, 13, 55, 0
15, 35760, Note_on_c, 13, 50, 52
15, 35819, Note_on_c, 13, 50, 0
15, 35820, Note_on_c, 13, 53, 52
15, 35879, Note_on_c, 13, 53, 0
15, 35880, Note_on_c, 13, 48, 52
15, 35939, Note_on_c, 13, 48, 0
15, 35940, Note_on_c, 13, 52, 52
15, 35993, Note_on_c, 13, 52, 0
15, 36000, Note_on_c, 13, 47, 52
15, 36059, Note_on_c, 13, 47, 0
15, 36060, Note_on_c, 13, 50, 52
15, 36119, Note_on_c, 13, 50, 0
15, 36120, Note_on_c, 13, 59, 52
15, 36179, Note_on_c, 13, 59, 0
15, 36180, Note_on_c, 13, 62, 52
15, 36239, Note_on_c, 13, 62, 0
15, 36240, Note_on_c, 13, 59, 52
15, 36299, Note_on_c, 13, 59, 0
15, 36300, Note_on_c, 13, 62, 52
15, 36359, Note_on_c, 13, 62, 0
15, 36360, Note_on_c, 13, 60, 52
15, 36419, Note_on_c, 13, 60, 0
15, 36420, Note_on_c, 13, 64, 52
15, 36479, Note_on_c, 13, 64, 0
15, 36480, Note_on_c, 13, 59, 52
15, 36539, Note_on_c, 13, 59, 0
15, 36540, Note_on_c, 13, 62, 52
15, 36599, Note_on_c, 13, 62, 0
15, 36600, Note_on_c, 13, 59, 52
15, 36659, Note_on_c, 13, 59, 0
15, 36660, Note_on_c, 13, 62, 52
15, 36719, Note_on_c, 13, 62, 0
15, 36720, Note_on_c, 13, 57, 52
15, 36779, Note_on_c, 13, 57, 0
15, 36780, Note_on_c, 13, 60, 52
15, 36839, Note_on_c, 13, 60, 0
15, 36840, Note_on_c, 13, 55, 52
15, 36899, Note_on_c, 13, 55, 0
15, 36900, Note_on_c, 13, 59, 52
15, 36959, Note_on_c, 13, 59, 0
15, 36960, Note_on_c, 13, 55, 52
15, 37019, Note_on_c, 13, 55, 0
15, 37020, Note_on_c, 13, 59, 52
15, 37079, Note_on_c, 13, 59, 0
15, 37080, Note_on_c, 13, 53, 52
15, 37139, Note_on_c, 13, 53, 0
15, 37140, Note_on_c, 13, 57, 52
15, 37199, Note_on_c, 13, 57, 0
15, 37200, Note_on_c, 13, 52, 52
15, 37259, Note_on_c, 13, 52, 0
15, 37260, Note_on_c, 13, 55, 52
15, 37319, Note_on_c, 13, 55, 0
15, 37320, Note_on_c, 13, 50, 52
15, 37379, Note_on_c, 13, 50, 0
15, 37380, Note_on_c, 13, 53, 52
15, 37433, Note_on_c, 13, 53, 0
15, 37440, Note_on_c, 13, 48, 52
15, 37549, Note_on_c, 13, 48, 0
15, 37560, Note_on_c, 13, 48, 52
15, 37679, Note_on_c, 13, 48, 0
15, 37680, Note_on_c, 13, 47, 52
15, 37799, Note_on_c, 13, 47, 0
15, 37800, Note_on_c, 13, 48, 52
15, 38269, Note_on_c, 13, 48, 0
15, 38280, Note_on_c, 13, 48, 52
15, 38399, Note_on_c, 13, 48, 0
15, 38400, Note_on_c, 13, 47, 52
15, 38519, Note_on_c, 13, 47, 0
15, 38520, Note_on_c, 13, 48, 52
15, 38989, Note_on_c, 13, 48, 0
15, 39000, Note_on_c, 13, 48, 52
15, 39119, Note_on_c, 13, 48, 0
15, 39120, Note_on_c, 13, 47, 52
15, 39239, Note_on_c, 13, 47, 0
15, 39240, Note_on_c, 13, 48, 52
15, 39709, Note_on_c, 13, 48, 0
15, 39720, Note_on_c, 13, 48, 52
15, 39839, Note_on_c, 13, 48, 0
15, 39840, Note_on_c, 13, 47, 52
15, 39959, Note_on_c, 13, 47, 0
15, 39960, Note_on_c, 13, 48, 52
15, 40309, Note_on_c, 13, 48, 0
15, 40320, Note_on_c, 13, 48, 52
15, 40379, Note_on_c, 13, 48, 0
15, 40380, Note_on_c, 13, 52, 53
15, 40439, Note_on_c, 13, 52, 0
15, 40440, Note_on_c, 13, 48, 54
15, 40499, Note_on_c, 13, 48, 0
15, 40500, Note_on_c, 13, 52, 56
15, 40559, Note_on_c, 13, 52, 0
15, 40560, Note_on_c, 13, 48, 57
15, 40619, Note_on_c, 13, 48, 0
15, 40620, Note_on_c, 13, 52, 58
15, 40679, Note_on_c, 13, 52, 0
15, 40680, Note_on_c, 13, 48, 60
15, 40739, Note_on_c, 13, 48, 0
15, 40740, Note_on_c, 13, 52, 61
15, 40799, Note_on_c, 13, 52, 0
15, 40800, Note_on_c, 13, 48, 62
15, 40859, Note_on_c, 13, 48, 0
15, 40860, Note_on_c, 13, 52, 64
15, 40919, Note_on_c, 13, 52, 0
15, 40920, Note_on_c, 13, 48, 65
15, 40979, Note_on_c, 13, 48, 0
15, 40980, Note_on_c, 13, 52, 66
15, 41033, Note_on_c, 13, 52, 0
15, 41040, Note_on_c, 13, 48, 68
15, 41099, Note_on_c, 13, 48, 0
15, 41100, Note_on_c, 13, 52, 67
15, 41159, Note_on_c, 13, 52, 0
15, 41160, Note_on_c, 13, 48, 66
15, 41219, Note_on_c, 13, 48, 0
15, 41220, Note_on_c, 13, 52, 64
15, 41279, Note_on_c, 13, 52, 0
15, 41280, Note_on_c, 13, 48, 63
15, 41339, Note_on_c, 13, 48, 0
15, 41340, Note_on_c, 13, 52, 62
15, 41399, Note_on_c, 13, 52, 0
15, 41400, Note_on_c, 13, 48, 60
15, 41459, Note_on_c, 13, 48, 0
15, 41460, Note_on_c, 13, 52, 59
15, 41519, Note_on_c, 13, 52, 0
15, 41520, Note_on_c, 13, 48, 58
15, 41579, Note_on_c, 13, 48, 0
15, 41580, Note_on_c, 13, 52, 56
15, 41639, Note_on_c, 13, 52, 0
15, 41640, Note_on_c, 13, 48, 55
15, 41699, Note_on_c, 13, 48, 0
15, 41700, Note_on_c, 13, 52, 54
15, 41753, Note_on_c, 13, 52, 0
15, 41760, Note_on_c, 13, 53, 52
15, 41999, Note_on_c, 13, 53, 0
15, 42118, Program_c, 13, 45
15, 42120, Note_on_c, 13, 46, 48
15, 42359, Note_on_c, 13, 46, 0
15, 42480, Note_on_c, 13, 48, 48
15, 42719, Note_on_c, 13, 48, 0
15, 42840, Note_on_c, 13, 48, 48
15, 43079, Note_on_c, 13, 48, 0
15, 43198, Program_c, 13, 42
15, 43200, Note_on_c, 13, 48, 52
15, 43259, Note_on_c, 13, 48, 0
15, 43260, Note_on_c, 13, 52, 53
15, 43319, Note_on_c, 13, 52, 0
15, 43320, Note_on_c, 13, 48, 54
15, 43379, Note_on_c, 13, 48, 0
15, 43380, Note_on_c, 13, 52, 56
15, 43439, Note_on_c, 13, 52, 0
15, 43440, Note_on_c, 13, 48, 57
15, 43499, Note_on_c, 13, 48, 0
15, 43500, Note_on_c, 13, 52, 58
15, 43559, Note_on_c, 13, 52, 0
15, 43560, Note_on_c, 13, 48, 60
15, 43619, Note_on_c, 13, 48, 0
15, 43620, Note_on_c, 13, 52, 61
15, 43679, Note_on_c, 13, 52, 0
15, 43680, Note_on_c, 13, 48, 62
15, 43739, Note_on_c, 13, 48, 0
15, 43740, Note_on_c, 13, 52, 64
15, 43799, Note_on_c, 13, 52, 0
15, 43800, Note_on_c, 13, 48, 65
15, 43859, Note_on_c, 13, 48, 0
15, 43860, Note_on_c, 13, 52, 66
15, 43913, Note_on_c, 13, 52, 0
15, 43920, Note_on_c, 13, 48, 68
15, 43979, Note_on_c, 13, 48, 0
15, 43980, Note_on_c, 13, 52, 67
15, 44039, Note_on_c, 13, 52, 0
15, 44040, Note_on_c, 13, 48, 66
15, 44099, Note_on_c, 13, 48, 0
15, 44100, Note_on_c, 13, 52, 64
15, 44159, Note_on_c, 13, 52, 0
15, 44160, Note_on_c, 13, 48, 63
15, 44219, Note_on_c, 13, 48, 0
15, 44220, Note_on_c, 13, 52, 62
15, 44279, Note_on_c, 13, 52, 0
15, 44280, Note_on_c, 13, 48, 60
15, 44339, Note_on_c, 13, 48, 0
15, 44340, Note_on_c, 13, 52, 59
15, 44399, Note_on_c, 13, 52, 0
15, 44400, Note_on_c, 13, 48, 58
15, 44459, Note_on_c, 13, 48, 0
15, 44460, Note_on_c, 13, 52, 56
15, 44519, Note_on_c, 13, 52, 0
15, 44520, Note_on_c, 13, 48, 55
15, 44579, Note_on_c, 13, 48, 0
15, 44580, Note_on_c, 13, 52, 54
15, 44633, Note_on_c, 13, 52, 0
15, 44640, Note_on_c, 13, 41, 52
15, 44879, Note_on_c, 13, 41, 0
15, 44998, Program_c, 13, 45
15, 45000, Note_on_c, 13, 46, 48
15, 45239, Note_on_c, 13, 46, 0
15, 45360, Note_on_c, 13, 48, 48
15, 45599, Note_on_c, 13, 48, 0
15, 45720, Note_on_c, 13, 48, 48
15, 45959, Note_on_c, 13, 48, 0
15, 46080, Note_on_c, 13, 57, 48
15, 46319, Note_on_c, 13, 57, 0
15, 46440, Note_on_c, 13, 50, 48
15, 46679, Note_on_c, 13, 50, 0
15, 46800, Note_on_c, 13, 43, 48
15, 47039, Note_on_c, 13, 43, 0
15, 47160, Note_on_c, 13, 48, 48
15, 47399, Note_on_c, 13, 48, 0
15, 47400, Program_c, 13, 42
15, 47520, Note_on_c, 13, 57, 52
15, 47999, Note_on_c, 13, 57, 0
15, 48000, Note_on_c, 13, 55, 52
15, 48119, Note_on_c, 13, 55, 0
15, 48120, Note_on_c, 13, 57, 52
15, 48209, Note_on_c, 13, 57, 0
15, 48220, Note_on_c, 13, 60, 52
15, 48239, Note_on_c, 13, 60, 0
15, 48240, Note_on_c, 13, 59, 52
15, 48359, Note_on_c, 13, 59, 0
15, 48360, Note_on_c, 13, 57, 52
15, 48479, Note_on_c, 13, 57, 0
15, 48480, Note_on_c, 13, 59, 52
15, 48599, Note_on_c, 13, 59, 0
15, 48600, Note_on_c, 13, 60, 52
15, 48839, Note_on_c, 13, 60, 0
15, 48840, Note_on_c, 13, 55, 52
15, 48949, Note_on_c, 13, 55, 0
15, 48958, Control_c, 13, 11, 81
15, 48960, Note_on_c, 13, 57, 76
15, 49439, Note_on_c, 13, 57, 0
15, 49440, Note_on_c, 13, 55, 76
15, 49559, Note_on_c, 13, 55, 0
15, 49560, Note_on_c, 13, 57, 76
15, 49649, Note_on_c, 13, 57, 0
15, 49660, Note_on_c, 13, 60, 76
15, 49679, Note_on_c, 13, 60, 0
15, 49680, Note_on_c, 13, 59, 76
15, 49799, Note_on_c, 13, 59, 0
15, 49800, Note_on_c, 13, 57, 76
15, 49919, Note_on_c, 13, 57, 0
15, 49920, Note_on_c, 13, 59, 76
15, 50039, Note_on_c, 13, 59, 0
15, 50040, Control_c, 13, 11, 81
15, 50040, Note_on_c, 13, 60, 76
15, 50160, Control_c, 13, 11, 83
15, 50279, Note_on_c, 13, 60, 0
15, 50280, Note_on_c, 13, 55, 76
15, 50280, Control_c, 13, 11, 85
15, 50389, Note_on_c, 13, 55, 0
15, 50400, Note_on_c, 13, 57, 76
15, 50400, Control_c, 13, 11, 87
15, 50520, Control_c, 13, 11, 89
15, 50639, Note_on_c, 13, 57, 0
15, 50640, Note_on_c, 13, 53, 76
15, 50640, Control_c, 13, 11, 91
15, 50759, Note_on_c, 13, 53, 0
15, 50760, Control_c, 13, 11, 93
15, 50760, Note_on_c, 13, 48, 76
15, 50880, Control_c, 13, 11, 95
15, 50999, Note_on_c, 13, 48, 0
15, 51000, Note_on_c, 13, 52, 76
15, 51000, Control_c, 13, 11, 97
15, 51119, Note_on_c, 13, 52, 0
15, 51120, Note_on_c, 13, 53, 76
15, 51120, Control_c, 13, 11, 99
15, 51240, Control_c, 13, 11, 101
15, 51359, Note_on_c, 13, 53, 0
15, 51360, Note_on_c, 13, 57, 76
15, 51360, Control_c, 13, 11, 103
15, 51479, Note_on_c, 13, 57, 0
15, 51480, Control_c, 13, 11, 105
15, 51480, Note_on_c, 13, 60, 76
15, 51600, Control_c, 13, 11, 106
15, 51719, Note_on_c, 13, 60, 0
15, 51720, Note_on_c, 13, 55, 76
15, 51720, Control_c, 13, 11, 107
15, 51829, Note_on_c, 13, 55, 0
15, 51840, Note_on_c, 13, 57, 76
15, 51840, Control_c, 13, 11, 110
15, 51960, Control_c, 13, 11, 111
15, 52079, Note_on_c, 13, 57, 0
15, 52080, Note_on_c, 13, 53, 76
15, 52080, Control_c, 13, 11, 114
15, 52199, Note_on_c, 13, 53, 0
15, 52200, Control_c, 13, 11, 115
15, 52200, Note_on_c, 13, 48, 76
15, 52320, Control_c, 13, 11, 118
15, 52439, Note_on_c, 13, 48, 0
15, 52440, Note_on_c, 13, 52, 76
15, 52440, Control_c, 13, 11, 119
15, 52559, Note_on_c, 13, 52, 0
15, 52560, Note_on_c, 13, 53, 76
15, 52560, Control_c, 13, 11, 122
15, 52680, Control_c, 13, 11, 123
15, 52799, Note_on_c, 13, 53, 0
15, 52800, Note_on_c, 13, 57, 76
15, 52800, Control_c, 13, 11, 126
15, 52909, Note_on_c, 13, 57, 0
15, 52920, Control_c, 13, 11, 127
15, 52920, Note_on_c, 13, 52, 76
15, 52920, Note_on_c, 13, 48, 76
15, 52979, Note_on_c, 13, 52, 0
15, 52979, Note_on_c, 13, 48, 0
15, 52980, Note_on_c, 13, 55, 76
15, 52980, Note_on_c, 13, 52, 76
15, 53039, Note_on_c, 13, 55, 0
15, 53039, Note_on_c, 13, 52, 0
15, 53040, Note_on_c, 13, 48, 76
15, 53040, Note_on_c, 13, 52, 76
15, 53099, Note_on_c, 13, 48, 0
15, 53099, Note_on_c, 13, 52, 0
15, 53100, Note_on_c, 13, 52, 76
15, 53100, Note_on_c, 13, 55, 76
15, 53159, Note_on_c, 13, 52, 0
15, 53159, Note_on_c, 13, 55, 0
15, 53160, Note_on_c, 13, 52, 76
15, 53160, Note_on_c, 13, 48, 76
15, 53219, Note_on_c, 13, 52, 0
15, 53219, Note_on_c, 13, 48, 0
15, 53220, Note_on_c, 13, 55, 76
15, 53220, Note_on_c, 13, 52, 76
15, 53273, Note_on_c, 13, 55, 0
15, 53273, Note_on_c, 13, 52, 0
15, 53280, Note_on_c, 13, 48, 76
15, 53280, Note_on_c, 13, 53, 76
15, 53339, Note_on_c, 13, 48, 0
15, 53339, Note_on_c, 13, 53, 0
15, 53340, Note_on_c, 13, 57, 76
15, 53340, Note_on_c, 13, 53, 76
15, 53399, Note_on_c, 13, 57, 0
15, 53399, Note_on_c, 13, 53, 0
15, 53400, Note_on_c, 13, 53, 76
15, 53400, Note_on_c, 13, 48, 76
15, 53459, Note_on_c, 13, 53, 0
15, 53459, Note_on_c, 13, 48, 0
15, 53460, Note_on_c, 13, 53, 76
15, 53460, Note_on_c, 13, 57, 76
15, 53519, Note_on_c, 13, 53, 0
15, 53519, Note_on_c, 13, 57, 0
15, 53520, Note_on_c, 13, 48, 76
15, 53520, Note_on_c, 13, 53, 76
15, 53579, Note_on_c, 13, 48, 0
15, 53579, Note_on_c, 13, 53, 0
15, 53580, Note_on_c, 13, 57, 76
15, 53580, Note_on_c, 13, 53, 76
15, 53639, Note_on_c, 13, 57, 0
15, 53639, Note_on_c, 13, 53, 0
15, 53640, Note_on_c, 13, 48, 76
15, 53640, Note_on_c, 13, 53, 76
15, 53699, Note_on_c, 13, 48, 0
15, 53699, Note_on_c, 13, 53, 0
15, 53700, Note_on_c, 13, 53, 76
15, 53700, Note_on_c, 13, 57, 76
15, 53759, Note_on_c, 13, 53, 0
15, 53759, Note_on_c, 13, 57, 0
15, 53760, Note_on_c, 13, 53, 76
15, 53760, Note_on_c, 13, 48, 76
15, 53819, Note_on_c, 13, 53, 0
15, 53819, Note_on_c, 13, 48, 0
15, 53820, Note_on_c, 13, 57, 76
15, 53820, Note_on_c, 13, 53, 76
15, 53879, Note_on_c, 13, 57, 0
15, 53879, Note_on_c, 13, 53, 0
15, 53880, Note_on_c, 13, 53, 76
15, 53880, Note_on_c, 13, 48, 76
15, 53939, Note_on_c, 13, 53, 0
15, 53939, Note_on_c, 13, 48, 0
15, 53940, Note_on_c, 13, 57, 76
15, 53940, Note_on_c, 13, 53, 76
15, 53993, Note_on_c, 13, 57, 0
15, 53993, Note_on_c, 13, 53, 0
15, 54000, Note_on_c, 13, 53, 76
15, 54000, Note_on_c, 13, 48, 76
15, 54059, Note_on_c, 13, 53, 0
15, 54059, Note_on_c, 13, 48, 0
15, 54060, Note_on_c, 13, 53, 76
15, 54060, Note_on_c, 13, 57, 76
15, 54119, Note_on_c, 13, 53, 0
15, 54119, Note_on_c, 13, 57, 0
15, 54120, Note_on_c, 13, 53, 76
15, 54120, Note_on_c, 13, 48, 76
15, 54179, Note_on_c, 13, 53, 0
15, 54179, Note_on_c, 13, 48, 0
15, 54180, Note_on_c, 13, 53, 76
15, 54180, Note_on_c, 13, 57, 76
15, 54239, Note_on_c, 13, 53, 0
15, 54239, Note_on_c, 13, 57, 0
15, 54240, Note_on_c, 13, 53, 76
15, 54240, Note_on_c, 13, 48, 76
15, 54299, Note_on_c, 13, 53, 0
15, 54299, Note_on_c, 13, 48, 0
15, 54300, Note_on_c, 13, 53, 76
15, 54300, Note_on_c, 13, 57, 76
15, 54359, Note_on_c, 13, 53, 0
15, 54359, Note_on_c, 13, 57, 0
15, 54360, Note_on_c, 13, 48, 76
15, 54360, Note_on_c, 13, 53, 76
15, 54419, Note_on_c, 13, 48, 0
15, 54419, Note_on_c, 13, 53, 0
15, 54420, Note_on_c, 13, 57, 76
15, 54420, Note_on_c, 13, 53, 76
15, 54479, Note_on_c, 13, 57, 0
15, 54479, Note_on_c, 13, 53, 0
15, 54480, Note_on_c, 13, 48, 76
15, 54480, Note_on_c, 13, 53, 76
15, 54539, Note_on_c, 13, 48, 0
15, 54539, Note_on_c, 13, 53, 0
15, 54540, Note_on_c, 13, 53, 76
15, 54540, Note_on_c, 13, 57, 76
15, 54599, Note_on_c, 13, 53, 0
15, 54599, Note_on_c, 13, 57, 0
15, 54600, Note_on_c, 13, 48, 76
15, 54600, Note_on_c, 13, 53, 76
15, 54659, Note_on_c, 13, 48, 0
15, 54659, Note_on_c, 13, 53, 0
15, 54660, Note_on_c, 13, 57, 76
15, 54660, Note_on_c, 13, 53, 76
15, 54713, Note_on_c, 13, 57, 0
15, 54713, Note_on_c, 13, 53, 0
15, 54720, Note_on_c, 13, 48, 76
15, 54720, Note_on_c, 13, 53, 76
15, 54839, Note_on_c, 13, 48, 0
15, 54839, Note_on_c, 13, 53, 0
15, 54840, Note_on_c, 13, 57, 74
15, 54840, Note_on_c, 13, 53, 74
15, 54949, Note_on_c, 13, 57, 0
15, 54949, Note_on_c, 13, 53, 0
15, 54960, Note_on_c, 13, 53, 72
15, 54960, Note_on_c, 13, 48, 72
15, 55079, Note_on_c, 13, 53, 0
15, 55079, Note_on_c, 13, 48, 0
15, 55080, Note_on_c, 13, 53, 70
15, 55080, Note_on_c, 13, 57, 70
15, 55189, Note_on_c, 13, 53, 0
15, 55189, Note_on_c, 13, 57, 0
15, 55200, Note_on_c, 13, 53, 68
15, 55200, Note_on_c, 13, 48, 68
15, 55319, Note_on_c, 13, 53, 0
15, 55319, Note_on_c, 13, 48, 0
15, 55320, Note_on_c, 13, 57, 66
15, 55320, Note_on_c, 13, 53, 66
15, 55429, Note_on_c, 13, 57, 0
15, 55429, Note_on_c, 13, 53, 0
15, 55440, Note_on_c, 13, 53, 64
15, 55440, Note_on_c, 13, 48, 64
15, 55559, Note_on_c, 13, 53, 0
15, 55559, Note_on_c, 13, 48, 0
15, 55560, Note_on_c, 13, 57, 62
15, 55560, Note_on_c, 13, 53, 62
15, 55669, Note_on_c, 13, 57, 0
15, 55669, Note_on_c, 13, 53, 0
15, 55680, Note_on_c, 13, 48, 60
15, 55680, Note_on_c, 13, 53, 60
15, 55799, Note_on_c, 13, 48, 0
15, 55799, Note_on_c, 13, 53, 0
15, 55800, Note_on_c, 13, 53, 58
15, 55800, Note_on_c, 13, 57, 58
15, 55909, Note_on_c, 13, 53, 0
15, 55909, Note_on_c, 13, 57, 0
15, 55920, Note_on_c, 13, 48, 56
15, 55920, Note_on_c, 13, 53, 56
15, 56039, Note_on_c, 13, 48, 0
15, 56039, Note_on_c, 13, 53, 0
15, 56040, Note_on_c, 13, 55, 54
15, 56040, Note_on_c, 13, 53, 54
15, 56149, Note_on_c, 13, 55, 0
15, 56149, Note_on_c, 13, 53, 0
15, 56160, Note_on_c, 13, 48, 52
15, 56399, Note_on_c, 13, 48, 0
15, 56760, Control_c, 13, 11, 127
15, 56880, Note_on_c, 13, 60, 52
15, 56940, Control_c, 13, 11, 125
15, 57000, Control_c, 13, 11, 124
15, 57060, Control_c, 13, 11, 123
15, 57119, Note_on_c, 13, 60, 0
15, 57120, Control_c, 13, 11, 121
15, 57180, Control_c, 13, 11, 120
15, 57240, Control_c, 13, 11, 119
15, 57480, Program_c, 13, 45
15, 57540, Control_c, 13, 11, 127
15, 57600, Note_on_c, 13, 57, 48
15, 57719, Note_on_c, 13, 57, 0
15, 57720, Note_on_c, 13, 69, 48
15, 57839, Note_on_c, 13, 69, 0
15, 57840, Note_on_c, 13, 67, 48
15, 57959, Note_on_c, 13, 67, 0
15, 57960, Note_on_c, 13, 65, 48
15, 58079, Note_on_c, 13, 65, 0
15, 58080, Note_on_c, 13, 62, 48
15, 58199, Note_on_c, 13, 62, 0
15, 58200, Note_on_c, 13, 60, 48
15, 58319, Note_on_c, 13, 60, 0
15, 58320, Note_on_c, 13, 59, 48
15, 58439, Note_on_c, 13, 59, 0
15, 58440, Note_on_c, 13, 55, 48
15, 58559, Note_on_c, 13, 55, 0
15, 58560, Note_on_c, 13, 53, 48
15, 58679, Note_on_c, 13, 53, 0
15, 58680, Note_on_c, 13, 52, 48
15, 58799, Note_on_c, 13, 52, 0
15, 58800, Note_on_c, 13, 48, 48
15, 58919, Note_on_c, 13, 48, 0
15, 58920, Note_on_c, 13, 46, 48
15, 59039, Note_on_c, 13, 46, 0
15, 59040, Note_on_c, 13, 45, 48
15, 59159, Note_on_c, 13, 45, 0
15, 59160, Note_on_c, 13, 69, 48
15, 59279, Note_on_c, 13, 69, 0
15, 59280, Note_on_c, 13, 67, 48
15, 59399, Note_on_c, 13, 67, 0
15, 59400, Note_on_c, 13, 65, 48
15, 59519, Note_on_c, 13, 65, 0
15, 59520, Note_on_c, 13, 62, 48
15, 59639, Note_on_c, 13, 62, 0
15, 59640, Note_on_c, 13, 60, 48
15, 59759, Note_on_c, 13, 60, 0
15, 59760, Note_on_c, 13, 59, 48
15, 59879, Note_on_c, 13, 59, 0
15, 59880, Note_on_c, 13, 55, 48
15, 59999, Note_on_c, 13, 55, 0
15, 60000, Note_on_c, 13, 53, 48
15, 60119, Note_on_c, 13, 53, 0
15, 60120, Note_on_c, 13, 52, 48
15, 60239, Note_on_c, 13, 52, 0
15, 60240, Note_on_c, 13, 48, 49
15, 60359, Note_on_c, 13, 48, 0
15, 60360, Note_on_c, 13, 55, 51
15, 60479, Note_on_c, 13, 55, 0
15, 60480, Note_on_c, 13, 48, 53
15, 60599, Note_on_c, 13, 48, 0
15, 60600, Note_on_c, 13, 53, 54
15, 60719, Note_on_c, 13, 53, 0
15, 60720, Note_on_c, 13, 57, 56
15, 60839, Note_on_c, 13, 57, 0
15, 60840, Note_on_c, 13, 48, 58
15, 60959, Note_on_c, 13, 48, 0
15, 60960, Note_on_c, 13, 55, 59
15, 61079, Note_on_c, 13, 55, 0
15, 61080, Note_on_c, 13, 58, 61
15, 61199, Note_on_c, 13, 58, 0
15, 61200, Note_on_c, 13, 48, 63
15, 61319, Note_on_c, 13, 48, 0
15, 61320, Note_on_c, 13, 53, 64
15, 61439, Note_on_c, 13, 53, 0
15, 61440, Note_on_c, 13, 57, 66
15, 61549, Note_on_c, 13, 57, 0
15, 61558, Program_c, 13, 42
15, 61560, Note_on_c, 13, 52, 76
15, 61560, Note_on_c, 13, 48, 76
15, 61619, Note_on_c, 13, 52, 0
15, 61619, Note_on_c, 13, 48, 0
15, 61620, Note_on_c, 13, 52, 76
15, 61620, Note_on_c, 13, 55, 76
15, 61679, Note_on_c, 13, 52, 0
15, 61679, Note_on_c, 13, 55, 0
15, 61680, Note_on_c, 13, 52, 76
15, 61680, Note_on_c, 13, 48, 76
15, 61739, Note_on_c, 13, 52, 0
15, 61739, Note_on_c, 13, 48, 0
15, 61740, Note_on_c, 13, 55, 76
15, 61740, Note_on_c, 13, 52, 76
15, 61799, Note_on_c, 13, 55, 0
15, 61799, Note_on_c, 13, 52, 0
15, 61800, Note_on_c, 13, 48, 76
15, 61800, Note_on_c, 13, 52, 76
15, 61859, Note_on_c, 13, 48, 0
15, 61859, Note_on_c, 13, 52, 0
15, 61860, Note_on_c, 13, 52, 76
15, 61860, Note_on_c, 13, 55, 76
15, 61913, Note_on_c, 13, 52, 0
15, 61913, Note_on_c, 13, 55, 0
15, 61920, Note_on_c, 13, 53, 76
15, 61920, Note_on_c, 13, 48, 76
15, 61979, Note_on_c, 13, 53, 0
15, 61979, Note_on_c, 13, 48, 0
15, 61980, Note_on_c, 13, 53, 76
15, 61980, Note_on_c, 13, 57, 76
15, 62039, Note_on_c, 13, 53, 0
15, 62039, Note_on_c, 13, 57, 0
15, 62040, Note_on_c, 13, 53, 76
15, 62040, Note_on_c, 13, 48, 76
15, 62099, Note_on_c, 13, 53, 0
15, 62099, Note_on_c, 13, 48, 0
15, 62100, Note_on_c, 13, 53, 76
15, 62100, Note_on_c, 13, 57, 76
15, 62159, Note_on_c, 13, 53, 0
15, 62159, Note_on_c, 13, 57, 0
15, 62160, Note_on_c, 13, 53, 76
15, 62160, Note_on_c, 13, 48, 76
15, 62219, Note_on_c, 13, 53, 0
15, 62219, Note_on_c, 13, 48, 0
15, 62220, Note_on_c, 13, 57, 76
15, 62220, Note_on_c, 13, 53, 76
15, 62279, Note_on_c, 13, 57, 0
15, 62279, Note_on_c, 13, 53, 0
15, 62280, Note_on_c, 13, 53, 76
15, 62280, Note_on_c, 13, 48, 76
15, 62339, Note_on_c, 13, 53, 0
15, 62339, Note_on_c, 13, 48, 0
15, 62340, Note_on_c, 13, 57, 76
15, 62340, Note_on_c, 13, 53, 76
15, 62399, Note_on_c, 13, 57, 0
15, 62399, Note_on_c, 13, 53, 0
15, 62400, Note_on_c, 13, 53, 76
15, 62400, Note_on_c, 13, 48, 76
15, 62459, Note_on_c, 13, 53, 0
15, 62459, Note_on_c, 13, 48, 0
15, 62460, Note_on_c, 13, 53, 76
15, 62460, Note_on_c, 13, 57, 76
15, 62519, Note_on_c, 13, 53, 0
15, 62519, Note_on_c, 13, 57, 0
15, 62520, Note_on_c, 13, 48, 76
15, 62520, Note_on_c, 13, 53, 76
15, 62579, Note_on_c, 13, 48, 0
15, 62579, Note_on_c, 13, 53, 0
15, 62580, Note_on_c, 13, 53, 76
15, 62580, Note_on_c, 13, 57, 76
15, 62633, Note_on_c, 13, 53, 0
15, 62633, Note_on_c, 13, 57, 0
15, 62640, Note_on_c, 13, 53, 76
15, 62640, Note_on_c, 13, 48, 76
15, 62699, Note_on_c, 13, 53, 0
15, 62699, Note_on_c, 13, 48, 0
15, 62700, Note_on_c, 13, 53, 76
15, 62700, Note_on_c, 13, 57, 76
15, 62759, Note_on_c, 13, 53, 0
15, 62759, Note_on_c, 13, 57, 0
15, 62760, Note_on_c, 13, 53, 76
15, 62760, Note_on_c, 13, 48, 76
15, 62819, Note_on_c, 13, 53, 0
15, 62819, Note_on_c, 13, 48, 0
15, 62820, Note_on_c, 13, 57, 76
15, 62820, Note_on_c, 13, 53, 76
15, 62879, Note_on_c, 13, 57, 0
15, 62879, Note_on_c, 13, 53, 0
15, 62880, Note_on_c, 13, 48, 76
15, 62880, Note_on_c, 13, 53, 76
15, 62939, Note_on_c, 13, 48, 0
15, 62939, Note_on_c, 13, 53, 0
15, 62940, Note_on_c, 13, 57, 76
15, 62940, Note_on_c, 13, 53, 76
15, 62999, Note_on_c, 13, 57, 0
15, 62999, Note_on_c, 13, 53, 0
15, 63000, Note_on_c, 13, 53, 76
15, 63000, Note_on_c, 13, 48, 76
15, 63059, Note_on_c, 13, 53, 0
15, 63059, Note_on_c, 13, 48, 0
15, 63060, Note_on_c, 13, 57, 76
15, 63060, Note_on_c, 13, 53, 76
15, 63119, Note_on_c, 13, 57, 0
15, 63119, Note_on_c, 13, 53, 0
15, 63120, Note_on_c, 13, 53, 76
15, 63120, Note_on_c, 13, 48, 76
15, 63179, Note_on_c, 13, 53, 0
15, 63179, Note_on_c, 13, 48, 0
15, 63180, Note_on_c, 13, 57, 76
15, 63180, Note_on_c, 13, 53, 76
15, 63239, Note_on_c, 13, 57, 0
15, 63239, Note_on_c, 13, 53, 0
15, 63240, Note_on_c, 13, 48, 76
15, 63240, Note_on_c, 13, 53, 76
15, 63299, Note_on_c, 13, 48, 0
15, 63299, Note_on_c, 13, 53, 0
15, 63300, Note_on_c, 13, 53, 76
15, 63300, Note_on_c, 13, 57, 76
15, 63353, Note_on_c, 13, 53, 0
15, 63353, Note_on_c, 13, 57, 0
15, 63360, Note_on_c, 13, 53, 84
15, 63360, Note_on_c, 13, 48, 84
15, 63419, Note_on_c, 13, 53, 0
15, 63419, Note_on_c, 13, 48, 0
15, 63420, Note_on_c, 13, 53, 76
15, 63420, Note_on_c, 13, 57, 76
15, 63479, Note_on_c, 13, 53, 0
15, 63479, Note_on_c, 13, 57, 0
15, 63480, Note_on_c, 13, 48, 72
15, 63480, Note_on_c, 13, 53, 72
15, 63539, Note_on_c, 13, 48, 0
15, 63539, Note_on_c, 13, 53, 0
15, 63540, Note_on_c, 13, 57, 67
15, 63540, Note_on_c, 13, 53, 67
15, 63599, Note_on_c, 13, 57, 0
15, 63599, Note_on_c, 13, 53, 0
15, 63600, Note_on_c, 13, 53, 62
15, 63600, Note_on_c, 13, 48, 62
15, 63659, Note_on_c, 13, 53, 0
15, 63659, Note_on_c, 13, 48, 0
15, 63660, Note_on_c, 13, 57, 57
15, 63660, Note_on_c, 13, 53, 57
15, 63713, Note_on_c, 13, 57, 0
15, 63713, Note_on_c, 13, 53, 0
15, 63720, Note_on_c, 13, 48, 52
15, 63839, Note_on_c, 13, 48, 0
15, 65880, Program_c, 13, 45
15, 66000, Note_on_c, 13, 53, 48
15, 66119, Note_on_c, 13, 53, 0
15, 66120, Note_on_c, 13, 46, 48
15, 66239, Note_on_c, 13, 46, 0
15, 66240, Note_on_c, 13, 48, 48
15, 66479, Note_on_c, 13, 48, 0
15, 66720, Program_c, 13, 42
15, 66840, Note_on_c, 13, 53, 68
15, 66929, Note_on_c, 13, 53, 0
15, 66940, Note_on_c, 13, 53, 68
15, 66959, Note_on_c, 13, 53, 0
15, 66960, Note_on_c, 13, 52, 68
15, 67079, Note_on_c, 13, 52, 0
15, 67080, Note_on_c, 13, 50, 68
15, 67199, Note_on_c, 13, 50, 0
15, 67200, Note_on_c, 13, 48, 68
15, 67309, Note_on_c, 13, 48, 0
15, 67320, Note_on_c, 13, 48, 68
15, 67439, Note_on_c, 13, 48, 0
15, 67440, Note_on_c, 13, 50, 68
15, 67559, Note_on_c, 13, 50, 0
15, 67560, Note_on_c, 13, 52, 68
15, 67669, Note_on_c, 13, 52, 0
15, 67680, Note_on_c, 13, 53, 68
15, 68159, Note_on_c, 13, 53, 0
15, 68160, Note_on_c, 13, 55, 68
15, 68279, Note_on_c, 13, 55, 0
15, 68280, Note_on_c, 13, 57, 68
15, 68369, Note_on_c, 13, 57, 0
15, 68380, Note_on_c, 13, 60, 68
15, 68399, Note_on_c, 13, 60, 0
15, 68400, Note_on_c, 13, 58, 68
15, 68639, Note_on_c, 13, 58, 0
15, 68640, Note_on_c, 13, 57, 68
15, 68759, Note_on_c, 13, 57, 0
15, 68760, Note_on_c, 13, 55, 68
15, 68999, Note_on_c, 13, 55, 0
15, 69000, Note_on_c, 13, 60, 68
15, 69109, Note_on_c, 13, 60, 0
15, 69120, Note_on_c, 13, 57, 68
15, 69599, Note_on_c, 13, 57, 0
15, 69600, Note_on_c, 13, 55, 68
15, 69719, Note_on_c, 13, 55, 0
15, 69720, Note_on_c, 13, 53, 68
15, 69829, Note_on_c, 13, 53, 0
15, 69840, Note_on_c, 13, 48, 76
15, 69900, Control_c, 13, 11, 112
15, 70079, Note_on_c, 13, 48, 0
15, 70080, Note_on_c, 13, 48, 76
15, 70199, Note_on_c, 13, 48, 0
15, 70200, Control_c, 13, 11, 112
15, 70200, Note_on_c, 13, 46, 76
15, 70220, Control_c, 13, 11, 110
15, 70240, Control_c, 13, 11, 108
15, 70260, Control_c, 13, 11, 107
15, 70280, Control_c, 13, 11, 105
15, 70300, Control_c, 13, 11, 103
15, 70319, Note_on_c, 13, 46, 0
15, 70320, Control_c, 13, 11, 101
15, 70320, Note_on_c, 13, 45, 76
15, 70340, Control_c, 13, 11, 100
15, 70360, Control_c, 13, 11, 98
15, 70380, Control_c, 13, 11, 96
15, 70400, Control_c, 13, 11, 94
15, 70420, Control_c, 13, 11, 92
15, 70439, Note_on_c, 13, 45, 0
15, 70440, Control_c, 13, 11, 91
15, 70440, Note_on_c, 13, 43, 76
15, 70460, Control_c, 13, 11, 89
15, 70480, Control_c, 13, 11, 87
15, 70500, Control_c, 13, 11, 85
15, 70520, Control_c, 13, 11, 84
15, 70540, Control_c, 13, 11, 82
15, 70549, Note_on_c, 13, 43, 0
15, 70558, Control_c, 13, 11, 96
15, 70560, Note_on_c, 13, 41, 68
15, 70619, Note_on_c, 13, 41, 0
15, 70620, Note_on_c, 13, 60, 68
15, 70679, Note_on_c, 13, 60, 0
15, 70680, Note_on_c, 13, 57, 68
15, 70739, Note_on_c, 13, 57, 0
15, 70740, Note_on_c, 13, 60, 68
15, 70799, Note_on_c, 13, 60, 0
15, 70800, Note_on_c, 13, 57, 68
15, 70859, Note_on_c, 13, 57, 0
15, 70860, Note_on_c, 13, 60, 68
15, 70919, Note_on_c, 13, 60, 0
15, 70920, Note_on_c, 13, 58, 68
15, 70979, Note_on_c, 13, 58, 0
15, 70980, Note_on_c, 13, 62, 68
15, 71039, Note_on_c, 13, 62, 0
15, 71040, Note_on_c, 13, 57, 68
15, 71099, Note_on_c, 13, 57, 0
15, 71100, Note_on_c, 13, 60, 68
15, 71159, Note_on_c, 13, 60, 0
15, 71160, Note_on_c, 13, 57, 68
15, 71219, Note_on_c, 13, 57, 0
15, 71220, Note_on_c, 13, 60, 68
15, 71279, Note_on_c, 13, 60, 0
15, 71280, Note_on_c, 13, 55, 68
15, 71339, Note_on_c, 13, 55, 0
15, 71340, Note_on_c, 13, 58, 68
15, 71399, Note_on_c, 13, 58, 0
15, 71400, Note_on_c, 13, 53, 68
15, 71459, Note_on_c, 13, 53, 0
15, 71460, Note_on_c, 13, 57, 68
15, 71519, Note_on_c, 13, 57, 0
15, 71520, Note_on_c, 13, 53, 68
15, 71579, Note_on_c, 13, 53, 0
15, 71580, Note_on_c, 13, 57, 68
15, 71639, Note_on_c, 13, 57, 0
15, 71640, Note_on_c, 13, 55, 68
15, 71699, Note_on_c, 13, 55, 0
15, 71700, Note_on_c, 13, 58, 67
15, 71759, Note_on_c, 13, 58, 0
15, 71760, Note_on_c, 13, 52, 66
15, 71819, Note_on_c, 13, 52, 0
15, 71820, Note_on_c, 13, 55, 64
15, 71879, Note_on_c, 13, 55, 0
15, 71880, Note_on_c, 13, 55, 63
15, 71939, Note_on_c, 13, 55, 0
15, 71940, Note_on_c, 13, 58, 62
15, 71993, Note_on_c, 13, 58, 0
15, 72000, Note_on_c, 13, 53, 68
15, 72059, Note_on_c, 13, 53, 0
15, 72060, Note_on_c, 13, 57, 68
15, 72119, Note_on_c, 13, 57, 0
15, 72120, Note_on_c, 13, 57, 68
15, 72179, Note_on_c, 13, 57, 0
15, 72180, Note_on_c, 13, 60, 68
15, 72239, Note_on_c, 13, 60, 0
15, 72240, Note_on_c, 13, 57, 68
15, 72299, Note_on_c, 13, 57, 0
15, 72300, Note_on_c, 13, 60, 68
15, 72359, Note_on_c, 13, 60, 0
15, 72360, Note_on_c, 13, 58, 68
15, 72419, Note_on_c, 13, 58, 0
15, 72420, Note_on_c, 13, 62, 68
15, 72479, Note_on_c, 13, 62, 0
15, 72480, Note_on_c, 13, 57, 68
15, 72539, Note_on_c, 13, 57, 0
15, 72540, Note_on_c, 13, 60, 68
15, 72599, Note_on_c, 13, 60, 0
15, 72600, Note_on_c, 13, 57, 68
15, 72659, Note_on_c, 13, 57, 0
15, 72660, Note_on_c, 13, 60, 68
15, 72719, Note_on_c, 13, 60, 0
15, 72720, Note_on_c, 13, 55, 68
15, 72779, Note_on_c, 13, 55, 0
15, 72780, Note_on_c, 13, 58, 68
15, 72839, Note_on_c, 13, 58, 0
15, 72840, Note_on_c, 13, 53, 68
15, 72899, Note_on_c, 13, 53, 0
15, 72900, Note_on_c, 13, 57, 68
15, 72959, Note_on_c, 13, 57, 0
15, 72960, Note_on_c, 13, 53, 68
15, 73019, Note_on_c, 13, 53, 0
15, 73020, Note_on_c, 13, 57, 68
15, 73079, Note_on_c, 13, 57, 0
15, 73080, Note_on_c, 13, 55, 68
15, 73139, Note_on_c, 13, 55, 0
15, 73140, Note_on_c, 13, 58, 67
15, 73199, Note_on_c, 13, 58, 0
15, 73200, Note_on_c, 13, 52, 66
15, 73259, Note_on_c, 13, 52, 0
15, 73260, Note_on_c, 13, 55, 64
15, 73319, Note_on_c, 13, 55, 0
15, 73320, Note_on_c, 13, 52, 63
15, 73379, Note_on_c, 13, 52, 0
15, 73380, Note_on_c, 13, 55, 62
15, 73433, Note_on_c, 13, 55, 0
15, 73440, Note_on_c, 13, 53, 68
15, 73499, Note_on_c, 13, 53, 0
15, 73500, Note_on_c, 13, 57, 68
15, 73559, Note_on_c, 13, 57, 0
15, 73560, Note_on_c, 13, 57, 68
15, 73619, Note_on_c, 13, 57, 0
15, 73620, Note_on_c, 13, 60, 68
15, 73679, Note_on_c, 13, 60, 0
15, 73680, Note_on_c, 13, 57, 68
15, 73739, Note_on_c, 13, 57, 0
15, 73740, Note_on_c, 13, 60, 68
15, 73799, Note_on_c, 13, 60, 0
15, 73800, Note_on_c, 13, 58, 68
15, 73859, Note_on_c, 13, 58, 0
15, 73860, Note_on_c, 13, 62, 68
15, 73919, Note_on_c, 13, 62, 0
15, 73920, Note_on_c, 13, 57, 68
15, 73979, Note_on_c, 13, 57, 0
15, 73980, Note_on_c, 13, 60, 68
15, 74039, Note_on_c, 13, 60, 0
15, 74040, Note_on_c, 13, 57, 68
15, 74099, Note_on_c, 13, 57, 0
15, 74100, Note_on_c, 13, 60, 68
15, 74153, Note_on_c, 13, 60, 0
15, 74160, Note_on_c, 13, 53, 67
15, 74219, Note_on_c, 13, 53, 0
15, 74220, Note_on_c, 13, 57, 67
15, 74279, Note_on_c, 13, 57, 0
15, 74280, Note_on_c, 13, 53, 67
15, 74339, Note_on_c, 13, 53, 0
15, 74340, Note_on_c, 13, 57, 67
15, 74399, Note_on_c, 13, 57, 0
15, 74400, Note_on_c, 13, 53, 67
15, 74459, Note_on_c, 13, 53, 0
15, 74460, Note_on_c, 13, 57, 66
15, 74519, Note_on_c, 13, 57, 0
15, 74520, Note_on_c, 13, 55, 66
15, 74579, Note_on_c, 13, 55, 0
15, 74580, Note_on_c, 13, 58, 66
15, 74639, Note_on_c, 13, 58, 0
15, 74640, Note_on_c, 13, 53, 66
15, 74699, Note_on_c, 13, 53, 0
15, 74700, Note_on_c, 13, 57, 66
15, 74759, Note_on_c, 13, 57, 0
15, 74760, Note_on_c, 13, 53, 65
15, 74819, Note_on_c, 13, 53, 0
15, 74820, Note_on_c, 13, 57, 65
15, 74873, Note_on_c, 13, 57, 0
15, 74880, Note_on_c, 13, 45, 65
15, 74939, Note_on_c, 13, 45, 0
15, 74940, Note_on_c, 13, 53, 65
15, 74999, Note_on_c, 13, 53, 0
15, 75000, Note_on_c, 13, 45, 65
15, 75059, Note_on_c, 13, 45, 0
15, 75060, Note_on_c, 13, 53, 64
15, 75119, Note_on_c, 13, 53, 0
15, 75120, Note_on_c, 13, 45, 64
15, 75179, Note_on_c, 13, 45, 0
15, 75180, Note_on_c, 13, 53, 64
15, 75239, Note_on_c, 13, 53, 0
15, 75240, Note_on_c, 13, 46, 64
15, 75299, Note_on_c, 13, 46, 0
15, 75300, Note_on_c, 13, 55, 64
15, 75359, Note_on_c, 13, 55, 0
15, 75360, Note_on_c, 13, 45, 64
15, 75419, Note_on_c, 13, 45, 0
15, 75420, Note_on_c, 13, 53, 63
15, 75479, Note_on_c, 13, 53, 0
15, 75480, Note_on_c, 13, 45, 63
15, 75539, Note_on_c, 13, 45, 0
15, 75540, Note_on_c, 13, 53, 63
15, 75599, Note_on_c, 13, 53, 0
15, 75600, Note_on_c, 13, 46, 63
15, 75659, Note_on_c, 13, 46, 0
15, 75660, Note_on_c, 13, 55, 63
15, 75719, Note_on_c, 13, 55, 0
15, 75720, Note_on_c, 13, 45, 62
15, 75779, Note_on_c, 13, 45, 0
15, 75780, Note_on_c, 13, 53, 62
15, 75839, Note_on_c, 13, 53, 0
15, 75840, Note_on_c, 13, 45, 62
15, 75899, Note_on_c, 13, 45, 0
15, 75900, Note_on_c, 13, 53, 62
15, 75959, Note_on_c, 13, 53, 0
15, 75960, Note_on_c, 13, 46, 62
15, 76019, Note_on_c, 13, 46, 0
15, 76020, Note_on_c, 13, 55, 61
15, 76079, Note_on_c, 13, 55, 0
15, 76080, Note_on_c, 13, 45, 61
15, 76139, Note_on_c, 13, 45, 0
15, 76140, Note_on_c, 13, 53, 61
15, 76199, Note_on_c, 13, 53, 0
15, 76200, Note_on_c, 13, 45, 61
15, 76259, Note_on_c, 13, 45, 0
15, 76260, Note_on_c, 13, 53, 61
15, 76313, Note_on_c, 13, 53, 0
15, 76320, Note_on_c, 13, 41, 60
15, 76559, Note_on_c, 13, 41, 0
15, 76678, Control_c, 13, 11, 127
15, 76678, Program_c, 13, 45
15, 76680, Note_on_c, 13, 53, 44
15, 76919, Note_on_c, 13, 53, 0
15, 77040, Note_on_c, 13, 53, 44
15, 77279, Note_on_c, 13, 53, 0
15, 77400, Note_on_c, 13, 53, 44
15, 77639, Note_on_c, 13, 53, 0
15, 77760, Note_on_c, 13, 48, 44
15, 77999, Note_on_c, 13, 48, 0
15, 78120, Note_on_c, 13, 48, 44
15, 78359, Note_on_c, 13, 48, 0
15, 78480, Note_on_c, 13, 48, 44
15, 78719, Note_on_c, 13, 48, 0
15, 78840, Note_on_c, 13, 48, 44
15, 79079, Note_on_c, 13, 48, 0
15, 79200, Note_on_c, 13, 53, 44
15, 79439, Note_on_c, 13, 53, 0
15, 79560, Note_on_c, 13, 53, 44
15, 79799, Note_on_c, 13, 53, 0
15, 79920, Note_on_c, 13, 53, 44
15, 80159, Note_on_c, 13, 53, 0
15, 80280, Note_on_c, 13, 53, 44
15, 80519, Note_on_c, 13, 53, 0
15, 80640, Note_on_c, 13, 50, 44
15, 80879, Note_on_c, 13, 50, 0
15, 81000, Note_on_c, 13, 50, 50
15, 81239, Note_on_c, 13, 50, 0
15, 81360, Note_on_c, 13, 50, 56
15, 81599, Note_on_c, 13, 50, 0
15, 81720, Note_on_c, 13, 50, 62
15, 81959, Note_on_c, 13, 50, 0
15, 82078, Program_c, 13, 42
15, 82080, Note_on_c, 13, 55, 52
15, 82139, Note_on_c, 13, 55, 0
15, 82140, Note_on_c, 13, 59, 52
15, 82199, Note_on_c, 13, 59, 0
15, 82200, Note_on_c, 13, 62, 52
15, 82259, Note_on_c, 13, 62, 0
15, 82260, Note_on_c, 13, 59, 52
15, 82319, Note_on_c, 13, 59, 0
15, 82320, Note_on_c, 13, 62, 52
15, 82379, Note_on_c, 13, 62, 0
15, 82380, Note_on_c, 13, 59, 52
15, 82439, Note_on_c, 13, 59, 0
15, 82440, Note_on_c, 13, 60, 52
15, 82499, Note_on_c, 13, 60, 0
15, 82500, Note_on_c, 13, 64, 52
15, 82559, Note_on_c, 13, 64, 0
15, 82560, Note_on_c, 13, 59, 52
15, 82619, Note_on_c, 13, 59, 0
15, 82620, Note_on_c, 13, 62, 52
15, 82679, Note_on_c, 13, 62, 0
15, 82680, Note_on_c, 13, 59, 52
15, 82739, Note_on_c, 13, 59, 0
15, 82740, Note_on_c, 13, 62, 52
15, 82799, Note_on_c, 13, 62, 0
15, 82800, Note_on_c, 13, 57, 52
15, 82859, Note_on_c, 13, 57, 0
15, 82860, Note_on_c, 13, 60, 52
15, 82919, Note_on_c, 13, 60, 0
15, 82920, Note_on_c, 13, 55, 52
15, 82979, Note_on_c, 13, 55, 0
15, 82980, Note_on_c, 13, 59, 52
15, 83039, Note_on_c, 13, 59, 0
15, 83040, Note_on_c, 13, 55, 52
15, 83099, Note_on_c, 13, 55, 0
15, 83100, Note_on_c, 13, 59, 52
15, 83159, Note_on_c, 13, 59, 0
15, 83160, Note_on_c, 13, 54, 52
15, 83219, Note_on_c, 13, 54, 0
15, 83220, Note_on_c, 13, 57, 52
15, 83279, Note_on_c, 13, 57, 0
15, 83280, Note_on_c, 13, 55, 52
15, 83339, Note_on_c, 13, 55, 0
15, 83340, Note_on_c, 13, 59, 52
15, 83399, Note_on_c, 13, 59, 0
15, 83400, Note_on_c, 13, 55, 52
15, 83459, Note_on_c, 13, 55, 0
15, 83460, Note_on_c, 13, 59, 52
15, 83513, Note_on_c, 13, 59, 0
15, 83520, Note_on_c, 13, 55, 52
15, 83579, Note_on_c, 13, 55, 0
15, 83580, Note_on_c, 13, 59, 52
15, 83639, Note_on_c, 13, 59, 0
15, 83640, Note_on_c, 13, 59, 52
15, 83699, Note_on_c, 13, 59, 0
15, 83700, Note_on_c, 13, 62, 52
15, 83759, Note_on_c, 13, 62, 0
15, 83760, Note_on_c, 13, 59, 52
15, 83819, Note_on_c, 13, 59, 0
15, 83820, Note_on_c, 13, 62, 52
15, 83879, Note_on_c, 13, 62, 0
15, 83880, Note_on_c, 13, 60, 52
15, 83939, Note_on_c, 13, 60, 0
15, 83940, Note_on_c, 13, 64, 52
15, 83999, Note_on_c, 13, 64, 0
15, 84000, Note_on_c, 13, 59, 52
15, 84059, Note_on_c, 13, 59, 0
15, 84060, Note_on_c, 13, 62, 52
15, 84119, Note_on_c, 13, 62, 0
15, 84120, Note_on_c, 13, 59, 52
15, 84179, Note_on_c, 13, 59, 0
15, 84180, Note_on_c, 13, 62, 52
15, 84239, Note_on_c, 13, 62, 0
15, 84240, Note_on_c, 13, 57, 52
15, 84299, Note_on_c, 13, 57, 0
15, 84300, Note_on_c, 13, 60, 52
15, 84359, Note_on_c, 13, 60, 0
15, 84360, Note_on_c, 13, 55, 52
15, 84419, Note_on_c, 13, 55, 0
15, 84420, Note_on_c, 13, 59, 52
15, 84479, Note_on_c, 13, 59, 0
15, 84480, Note_on_c, 13, 55, 52
15, 84539, Note_on_c, 13, 55, 0
15, 84540, Note_on_c, 13, 59, 52
15, 84599, Note_on_c, 13, 59, 0
15, 84600, Note_on_c, 13, 54, 52
15, 84659, Note_on_c, 13, 54, 0
15, 84660, Note_on_c, 13, 57, 52
15, 84719, Note_on_c, 13, 57, 0
15, 84720, Note_on_c, 13, 55, 52
15, 84779, Note_on_c, 13, 55, 0
15, 84780, Note_on_c, 13, 59, 52
15, 84839, Note_on_c, 13, 59, 0
15, 84840, Note_on_c, 13, 55, 52
15, 84899, Note_on_c, 13, 55, 0
15, 84900, Note_on_c, 13, 59, 52
15, 84953, Note_on_c, 13, 59, 0
15, 84960, Note_on_c, 13, 57, 52
15, 85019, Note_on_c, 13, 57, 0
15, 85020, Note_on_c, 13, 60, 52
15, 85079, Note_on_c, 13, 60, 0
15, 85080, Note_on_c, 13, 57, 52
15, 85139, Note_on_c, 13, 57, 0
15, 85140, Note_on_c, 13, 60, 52
15, 85199, Note_on_c, 13, 60, 0
15, 85200, Note_on_c, 13, 57, 52
15, 85259, Note_on_c, 13, 57, 0
15, 85260, Note_on_c, 13, 60, 52
15, 85319, Note_on_c, 13, 60, 0
15, 85320, Note_on_c, 13, 59, 52
15, 85379, Note_on_c, 13, 59, 0
15, 85380, Note_on_c, 13, 62, 52
15, 85439, Note_on_c, 13, 62, 0
15, 85440, Note_on_c, 13, 57, 52
15, 85499, Note_on_c, 13, 57, 0
15, 85500, Note_on_c, 13, 60, 52
15, 85559, Note_on_c, 13, 60, 0
15, 85560, Note_on_c, 13, 57, 52
15, 85619, Note_on_c, 13, 57, 0
15, 85620, Note_on_c, 13, 60, 52
15, 85679, Note_on_c, 13, 60, 0
15, 85680, Note_on_c, 13, 55, 52
15, 85739, Note_on_c, 13, 55, 0
15, 85740, Note_on_c, 13, 59, 52
15, 85799, Note_on_c, 13, 59, 0
15, 85800, Note_on_c, 13, 54, 52
15, 85859, Note_on_c, 13, 54, 0
15, 85860, Note_on_c, 13, 57, 52
15, 85919, Note_on_c, 13, 57, 0
15, 85920, Note_on_c, 13, 54, 52
15, 85979, Note_on_c, 13, 54, 0
15, 85980, Note_on_c, 13, 57, 52
15, 86039, Note_on_c, 13, 57, 0
15, 86040, Note_on_c, 13, 52, 52
15, 86099, Note_on_c, 13, 52, 0
15, 86100, Note_on_c, 13, 55, 52
15, 86159, Note_on_c, 13, 55, 0
15, 86160, Note_on_c, 13, 54, 52
15, 86219, Note_on_c, 13, 54, 0
15, 86220, Note_on_c, 13, 57, 52
15, 86279, Note_on_c, 13, 57, 0
15, 86280, Note_on_c, 13, 54, 52
15, 86339, Note_on_c, 13, 54, 0
15, 86340, Note_on_c, 13, 57, 52
15, 86393, Note_on_c, 13, 57, 0
15, 86400, Note_on_c, 13, 54, 52
15, 86459, Note_on_c, 13, 54, 0
15, 86460, Note_on_c, 13, 57, 52
15, 86519, Note_on_c, 13, 57, 0
15, 86520, Note_on_c, 13, 57, 52
15, 86579, Note_on_c, 13, 57, 0
15, 86580, Note_on_c, 13, 60, 52
15, 86639, Note_on_c, 13, 60, 0
15, 86640, Note_on_c, 13, 57, 52
15, 86699, Note_on_c, 13, 57, 0
15, 86700, Note_on_c, 13, 60, 52
15, 86759, Note_on_c, 13, 60, 0
15, 86760, Note_on_c, 13, 59, 52
15, 86819, Note_on_c, 13, 59, 0
15, 86820, Note_on_c, 13, 62, 52
15, 86879, Note_on_c, 13, 62, 0
15, 86880, Note_on_c, 13, 57, 52
15, 86939, Note_on_c, 13, 57, 0
15, 86940, Note_on_c, 13, 60, 52
15, 86999, Note_on_c, 13, 60, 0
15, 87000, Note_on_c, 13, 55, 52
15, 87059, Note_on_c, 13, 55, 0
15, 87060, Note_on_c, 13, 59, 52
15, 87119, Note_on_c, 13, 59, 0
15, 87120, Note_on_c, 13, 54, 52
15, 87179, Note_on_c, 13, 54, 0
15, 87180, Note_on_c, 13, 57, 52
15, 87239, Note_on_c, 13, 57, 0
15, 87240, Note_on_c, 13, 52, 52
15, 87299, Note_on_c, 13, 52, 0
15, 87300, Note_on_c, 13, 55, 52
15, 87359, Note_on_c, 13, 55, 0
15, 87360, Note_on_c, 13, 50, 52
15, 87419, Note_on_c, 13, 50, 0
15, 87420, Note_on_c, 13, 54, 52
15, 87479, Note_on_c, 13, 54, 0
15, 87480, Note_on_c, 13, 48, 52
15, 87539, Note_on_c, 13, 48, 0
15, 87540, Note_on_c, 13, 52, 52
15, 87599, Note_on_c, 13, 52, 0
15, 87600, Note_on_c, 13, 47, 52
15, 87659, Note_on_c, 13, 47, 0
15, 87660, Note_on_c, 13, 50, 52
15, 87719, Note_on_c, 13, 50, 0
15, 87720, Note_on_c, 13, 45, 52
15, 87779, Note_on_c, 13, 45, 0
15, 87780, Note_on_c, 13, 48, 52
15, 87833, Note_on_c, 13, 48, 0
15, 87840, Note_on_c, 13, 47, 52
15, 87899, Note_on_c, 13, 47, 0
15, 87900, Note_on_c, 13, 43, 52
15, 87959, Note_on_c, 13, 43, 0
15, 87960, Note_on_c, 13, 47, 52
15, 88019, Note_on_c, 13, 47, 0
15, 88020, Note_on_c, 13, 43, 52
15, 88079, Note_on_c, 13, 43, 0
15, 88080, Note_on_c, 13, 47, 52
15, 88139, Note_on_c, 13, 47, 0
15, 88140, Note_on_c, 13, 43, 52
15, 88199, Note_on_c, 13, 43, 0
15, 88200, Note_on_c, 13, 47, 52
15, 88259, Note_on_c, 13, 47, 0
15, 88260, Note_on_c, 13, 43, 52
15, 88319, Note_on_c, 13, 43, 0
15, 88320, Note_on_c, 13, 47, 52
15, 88379, Note_on_c, 13, 47, 0
15, 88380, Note_on_c, 13, 43, 52
15, 88439, Note_on_c, 13, 43, 0
15, 88440, Note_on_c, 13, 47, 52
15, 88499, Note_on_c, 13, 47, 0
15, 88500, Note_on_c, 13, 43, 52
15, 88553, Note_on_c, 13, 43, 0
15, 88560, Note_on_c, 13, 48, 52
15, 88619, Note_on_c, 13, 48, 0
15, 88620, Note_on_c, 13, 43, 52
15, 88679, Note_on_c, 13, 43, 0
15, 88680, Note_on_c, 13, 48, 52
15, 88739, Note_on_c, 13, 48, 0
15, 88740, Note_on_c, 13, 43, 52
15, 88799, Note_on_c, 13, 43, 0
15, 88800, Note_on_c, 13, 48, 52
15, 88859, Note_on_c, 13, 48, 0
15, 88860, Note_on_c, 13, 43, 52
15, 88919, Note_on_c, 13, 43, 0
15, 88920, Note_on_c, 13, 48, 52
15, 88979, Note_on_c, 13, 48, 0
15, 88980, Note_on_c, 13, 43, 52
15, 89039, Note_on_c, 13, 43, 0
15, 89040, Note_on_c, 13, 48, 52
15, 89099, Note_on_c, 13, 48, 0
15, 89100, Note_on_c, 13, 43, 52
15, 89159, Note_on_c, 13, 43, 0
15, 89160, Note_on_c, 13, 48, 52
15, 89219, Note_on_c, 13, 48, 0
15, 89220, Note_on_c, 13, 43, 52
15, 89273, Note_on_c, 13, 43, 0
15, 89280, Note_on_c, 13, 47, 52
15, 89339, Note_on_c, 13, 47, 0
15, 89340, Note_on_c, 13, 43, 52
15, 89399, Note_on_c, 13, 43, 0
15, 89400, Note_on_c, 13, 47, 52
15, 89459, Note_on_c, 13, 47, 0
15, 89460, Note_on_c, 13, 43, 52
15, 89519, Note_on_c, 13, 43, 0
15, 89520, Note_on_c, 13, 47, 52
15, 89579, Note_on_c, 13, 47, 0
15, 89580, Note_on_c, 13, 43, 52
15, 89639, Note_on_c, 13, 43, 0
15, 89640, Note_on_c, 13, 47, 52
15, 89699, Note_on_c, 13, 47, 0
15, 89700, Note_on_c, 13, 43, 52
15, 89759, Note_on_c, 13, 43, 0
15, 89760, Note_on_c, 13, 47, 52
15, 89819, Note_on_c, 13, 47, 0
15, 89820, Note_on_c, 13, 43, 52
15, 89879, Note_on_c, 13, 43, 0
15, 89880, Note_on_c, 13, 47, 52
15, 89939, Note_on_c, 13, 47, 0
15, 89940, Note_on_c, 13, 43, 52
15, 89993, Note_on_c, 13, 43, 0
15, 90000, Note_on_c, 13, 48, 52
15, 90059, Note_on_c, 13, 48, 0
15, 90060, Note_on_c, 13, 43, 52
15, 90119, Note_on_c, 13, 43, 0
15, 90120, Note_on_c, 13, 48, 52
15, 90179, Note_on_c, 13, 48, 0
15, 90180, Note_on_c, 13, 43, 52
15, 90239, Note_on_c, 13, 43, 0
15, 90240, Note_on_c, 13, 48, 52
15, 90299, Note_on_c, 13, 48, 0
15, 90300, Note_on_c, 13, 43, 52
15, 90359, Note_on_c, 13, 43, 0
15, 90360, Note_on_c, 13, 48, 52
15, 90419, Note_on_c, 13, 48, 0
15, 90420, Note_on_c, 13, 43, 52
15, 90479, Note_on_c, 13, 43, 0
15, 90480, Note_on_c, 13, 48, 52
15, 90539, Note_on_c, 13, 48, 0
15, 90540, Note_on_c, 13, 43, 52
15, 90599, Note_on_c, 13, 43, 0
15, 90600, Note_on_c, 13, 48, 52
15, 90659, Note_on_c, 13, 48, 0
15, 90660, Note_on_c, 13, 43, 52
15, 90713, Note_on_c, 13, 43, 0
15, 90720, Note_on_c, 13, 47, 52
15, 90959, Note_on_c, 13, 47, 0
15, 91078, Program_c, 13, 45
15, 91080, Note_on_c, 13, 45, 48
15, 91319, Note_on_c, 13, 45, 0
15, 91440, Note_on_c, 13, 50, 48
15, 91679, Note_on_c, 13, 50, 0
15, 91800, Note_on_c, 13, 43, 48
15, 92039, Note_on_c, 13, 43, 0
15, 92160, Note_on_c, 13, 48, 48
15, 92399, Note_on_c, 13, 48, 0
15, 93360, Note_on_c, 13, 48, 48
15, 93479, Note_on_c, 13, 48, 0
15, 93480, Note_on_c, 13, 49, 48
15, 93599, Note_on_c, 13, 49, 0
15, 93600, Note_on_c, 13, 50, 48
15, 93839, Note_on_c, 13, 50, 0
15, 94078, Program_c, 13, 42
15, 94080, Control_c, 13, 11, 81
15, 94200, Note_on_c, 13, 55, 76
15, 94280, Control_c, 13, 11, 85
15, 94289, Note_on_c, 13, 55, 0
15, 94300, Note_on_c, 13, 55, 76
15, 94319, Note_on_c, 13, 55, 0
15, 94320, Note_on_c, 13, 54, 76
15, 94439, Note_on_c, 13, 54, 0
15, 94440, Note_on_c, 13, 52, 76
15, 94480, Control_c, 13, 11, 89
15, 94559, Note_on_c, 13, 52, 0
15, 94560, Note_on_c, 13, 50, 76
15, 94669, Note_on_c, 13, 50, 0
15, 94680, Control_c, 13, 11, 93
15, 94680, Note_on_c, 13, 50, 76
15, 94799, Note_on_c, 13, 50, 0
15, 94800, Note_on_c, 13, 52, 76
15, 94880, Control_c, 13, 11, 97
15, 94919, Note_on_c, 13, 52, 0
15, 94920, Note_on_c, 13, 54, 76
15, 95029, Note_on_c, 13, 54, 0
15, 95040, Note_on_c, 13, 55, 76
15, 95080, Control_c, 13, 11, 101
15, 95280, Control_c, 13, 11, 105
15, 95480, Control_c, 13, 11, 107
15, 95519, Note_on_c, 13, 55, 0
15, 95520, Note_on_c, 13, 57, 76
15, 95639, Note_on_c, 13, 57, 0
15, 95640, Note_on_c, 13, 59, 76
15, 95680, Control_c, 13, 11, 111
15, 95729, Note_on_c, 13, 59, 0
15, 95740, Note_on_c, 13, 62, 76
15, 95759, Note_on_c, 13, 62, 0
15, 95760, Note_on_c, 13, 60, 76
15, 95880, Control_c, 13, 11, 115
15, 95999, Note_on_c, 13, 60, 0
15, 96000, Note_on_c, 13, 59, 76
15, 96080, Control_c, 13, 11, 119
15, 96119, Note_on_c, 13, 59, 0
15, 96120, Note_on_c, 13, 57, 76
15, 96280, Control_c, 13, 11, 123
15, 96359, Note_on_c, 13, 57, 0
15, 96360, Note_on_c, 13, 62, 76
15, 96469, Note_on_c, 13, 62, 0
15, 96478, Control_c, 13, 11, 127
15, 96480, Note_on_c, 13, 58, 76
15, 96839, Note_on_c, 13, 58, 0
15, 96840, Note_on_c, 13, 55, 76
15, 97199, Note_on_c, 13, 55, 0
15, 97200, Control_c, 13, 11, 127
15, 97200, Note_on_c, 13, 53, 76
15, 97260, Control_c, 13, 11, 123
15, 97320, Control_c, 13, 11, 119
15, 97380, Control_c, 13, 11, 115
15, 97440, Control_c, 13, 11, 111
15, 97500, Control_c, 13, 11, 107
15, 97559, Note_on_c, 13, 53, 0
15, 97560, Control_c, 13, 11, 105
15, 97560, Note_on_c, 13, 46, 76
15, 97620, Control_c, 13, 11, 101
15, 97680, Control_c, 13, 11, 97
15, 97740, Control_c, 13, 11, 93
15, 97800, Control_c, 13, 11, 89
15, 97860, Control_c, 13, 11, 85
15, 97909, Note_on_c, 13, 46, 0
15, 97918, Control_c, 13, 11, 81
15, 97920, Note_on_c, 13, 51, 76
15, 97979, Note_on_c, 13, 51, 0
15, 97980, Note_on_c, 13, 58, 76
15, 98039, Note_on_c, 13, 58, 0
15, 98040, Note_on_c, 13, 55, 76
15, 98099, Note_on_c, 13, 55, 0
15, 98100, Note_on_c, 13, 58, 76
15, 98159, Note_on_c, 13, 58, 0
15, 98160, Note_on_c, 13, 55, 76
15, 98219, Note_on_c, 13, 55, 0
15, 98220, Note_on_c, 13, 58, 76
15, 98279, Note_on_c, 13, 58, 0
15, 98280, Note_on_c, 13, 56, 76
15, 98339, Note_on_c, 13, 56, 0
15, 98340, Note_on_c, 13, 60, 76
15, 98399, Note_on_c, 13, 60, 0
15, 98400, Note_on_c, 13, 55, 76
15, 98459, Note_on_c, 13, 55, 0
15, 98460, Note_on_c, 13, 58, 76
15, 98519, Note_on_c, 13, 58, 0
15, 98520, Note_on_c, 13, 55, 76
15, 98579, Note_on_c, 13, 55, 0
15, 98580, Note_on_c, 13, 58, 76
15, 98639, Note_on_c, 13, 58, 0
15, 98640, Note_on_c, 13, 53, 76
15, 98699, Note_on_c, 13, 53, 0
15, 98700, Note_on_c, 13, 56, 76
15, 98759, Note_on_c, 13, 56, 0
15, 98760, Note_on_c, 13, 51, 76
15, 98819, Note_on_c, 13, 51, 0
15, 98820, Note_on_c, 13, 55, 76
15, 98879, Note_on_c, 13, 55, 0
15, 98880, Note_on_c, 13, 51, 76
15, 98939, Note_on_c, 13, 51, 0
15, 98940, Note_on_c, 13, 55, 76
15, 98999, Note_on_c, 13, 55, 0
15, 99000, Note_on_c, 13, 50, 76
15, 99059, Note_on_c, 13, 50, 0
15, 99060, Note_on_c, 13, 53, 76
15, 99119, Note_on_c, 13, 53, 0
15, 99120, Note_on_c, 13, 51, 76
15, 99179, Note_on_c, 13, 51, 0
15, 99180, Note_on_c, 13, 55, 76
15, 99239, Note_on_c, 13, 55, 0
15, 99240, Note_on_c, 13, 51, 76
15, 99299, Note_on_c, 13, 51, 0
15, 99300, Note_on_c, 13, 55, 76
15, 99353, Note_on_c, 13, 55, 0
15, 99358, Control_c, 13, 11, 96
15, 99360, Note_on_c, 13, 51, 68
15, 99419, Note_on_c, 13, 51, 0
15, 99420, Note_on_c, 13, 55, 68
15, 99479, Note_on_c, 13, 55, 0
15, 99480, Note_on_c, 13, 55, 68
15, 99539, Note_on_c, 13, 55, 0
15, 99540, Note_on_c, 13, 58, 68
15, 99599, Note_on_c, 13, 58, 0
15, 99600, Note_on_c, 13, 55, 68
15, 99659, Note_on_c, 13, 55, 0
15, 99660, Note_on_c, 13, 58, 68
15, 99719, Note_on_c, 13, 58, 0
15, 99720, Note_on_c, 13, 56, 68
15, 99779, Note_on_c, 13, 56, 0
15, 99780, Note_on_c, 13, 60, 68
15, 99839, Note_on_c, 13, 60, 0
15, 99840, Note_on_c, 13, 55, 68
15, 99899, Note_on_c, 13, 55, 0
15, 99900, Note_on_c, 13, 58, 68
15, 99959, Note_on_c, 13, 58, 0
15, 99960, Note_on_c, 13, 55, 68
15, 100019, Note_on_c, 13, 55, 0
15, 100020, Note_on_c, 13, 58, 68
15, 100079, Note_on_c, 13, 58, 0
15, 100080, Note_on_c, 13, 53, 68
15, 100139, Note_on_c, 13, 53, 0
15, 100140, Note_on_c, 13, 56, 68
15, 100199, Note_on_c, 13, 56, 0
15, 100200, Note_on_c, 13, 51, 68
15, 100259, Note_on_c, 13, 51, 0
15, 100260, Note_on_c, 13, 55, 68
15, 100319, Note_on_c, 13, 55, 0
15, 100320, Note_on_c, 13, 51, 68
15, 100379, Note_on_c, 13, 51, 0
15, 100380, Note_on_c, 13, 55, 68
15, 100439, Note_on_c, 13, 55, 0
15, 100440, Note_on_c, 13, 50, 68
15, 100499, Note_on_c, 13, 50, 0
15, 100500, Note_on_c, 13, 53, 68
15, 100559, Note_on_c, 13, 53, 0
15, 100560, Note_on_c, 13, 51, 68
15, 100619, Note_on_c, 13, 51, 0
15, 100620, Note_on_c, 13, 55, 68
15, 100679, Note_on_c, 13, 55, 0
15, 100680, Note_on_c, 13, 51, 68
15, 100739, Note_on_c, 13, 51, 0
15, 100740, Note_on_c, 13, 55, 68
15, 100793, Note_on_c, 13, 55, 0
15, 100800, Note_on_c, 13, 53, 68
15, 100859, Note_on_c, 13, 53, 0
15, 100860, Note_on_c, 13, 56, 68
15, 100919, Note_on_c, 13, 56, 0
15, 100920, Note_on_c, 13, 53, 68
15, 100979, Note_on_c, 13, 53, 0
15, 100980, Note_on_c, 13, 56, 68
15, 101039, Note_on_c, 13, 56, 0
15, 101040, Note_on_c, 13, 53, 68
15, 101099, Note_on_c, 13, 53, 0
15, 101100, Note_on_c, 13, 56, 68
15, 101159, Note_on_c, 13, 56, 0
15, 101160, Note_on_c, 13, 55, 68
15, 101219, Note_on_c, 13, 55, 0
15, 101220, Note_on_c, 13, 58, 68
15, 101279, Note_on_c, 13, 58, 0
15, 101280, Note_on_c, 13, 53, 68
15, 101339, Note_on_c, 13, 53, 0
15, 101340, Note_on_c, 13, 56, 68
15, 101399, Note_on_c, 13, 56, 0
15, 101400, Note_on_c, 13, 53, 68
15, 101459, Note_on_c, 13, 53, 0
15, 101460, Note_on_c, 13, 56, 68
15, 101519, Note_on_c, 13, 56, 0
15, 101520, Note_on_c, 13, 51, 68
15, 101579, Note_on_c, 13, 51, 0
15, 101580, Note_on_c, 13, 55, 68
15, 101639, Note_on_c, 13, 55, 0
15, 101640, Note_on_c, 13, 50, 68
15, 101699, Note_on_c, 13, 50, 0
15, 101700, Note_on_c, 13, 53, 68
15, 101759, Note_on_c, 13, 53, 0
15, 101760, Note_on_c, 13, 50, 68
15, 101819, Note_on_c, 13, 50, 0
15, 101820, Note_on_c, 13, 53, 68
15, 101879, Note_on_c, 13, 53, 0
15, 101880, Note_on_c, 13, 48, 68
15, 101939, Note_on_c, 13, 48, 0
15, 101940, Note_on_c, 13, 51, 68
15, 101999, Note_on_c, 13, 51, 0
15, 102000, Note_on_c, 13, 50, 68
15, 102059, Note_on_c, 13, 50, 0
15, 102060, Note_on_c, 13, 53, 68
15, 102119, Note_on_c, 13, 53, 0
15, 102120, Note_on_c, 13, 50, 68
15, 102179, Note_on_c, 13, 50, 0
15, 102180, Note_on_c, 13, 53, 68
15, 102233, Note_on_c, 13, 53, 0
15, 102240, Note_on_c, 13, 50, 68
15, 102299, Note_on_c, 13, 50, 0
15, 102300, Note_on_c, 13, 53, 68
15, 102359, Note_on_c, 13, 53, 0
15, 102360, Note_on_c, 13, 53, 68
15, 102419, Note_on_c, 13, 53, 0
15, 102420, Note_on_c, 13, 56, 68
15, 102479, Note_on_c, 13, 56, 0
15, 102480, Note_on_c, 13, 53, 68
15, 102539, Note_on_c, 13, 53, 0
15, 102540, Note_on_c, 13, 56, 68
15, 102599, Note_on_c, 13, 56, 0
15, 102600, Note_on_c, 13, 55, 68
15, 102659, Note_on_c, 13, 55, 0
15, 102660, Note_on_c, 13, 58, 68
15, 102719, Note_on_c, 13, 58, 0
15, 102720, Note_on_c, 13, 53, 68
15, 102779, Note_on_c, 13, 53, 0
15, 102780, Note_on_c, 13, 56, 68
15, 102839, Note_on_c, 13, 56, 0
15, 102840, Note_on_c, 13, 51, 68
15, 102899, Note_on_c, 13, 51, 0
15, 102900, Note_on_c, 13, 55, 68
15, 102959, Note_on_c, 13, 55, 0
15, 102960, Note_on_c, 13, 50, 68
15, 103019, Note_on_c, 13, 50, 0
15, 103020, Note_on_c, 13, 53, 68
15, 103079, Note_on_c, 13, 53, 0
15, 103080, Note_on_c, 13, 48, 68
15, 103139, Note_on_c, 13, 48, 0
15, 103140, Note_on_c, 13, 51, 68
15, 103199, Note_on_c, 13, 51, 0
15, 103200, Note_on_c, 13, 46, 68
15, 103259, Note_on_c, 13, 46, 0
15, 103260, Note_on_c, 13, 50, 68
15, 103319, Note_on_c, 13, 50, 0
15, 103320, Note_on_c, 13, 44, 68
15, 103379, Note_on_c, 13, 44, 0
15, 103380, Note_on_c, 13, 48, 68
15, 103439, Note_on_c, 13, 48, 0
15, 103440, Note_on_c, 13, 43, 68
15, 103499, Note_on_c, 13, 43, 0
15, 103500, Note_on_c, 13, 46, 68
15, 103559, Note_on_c, 13, 46, 0
15, 103560, Note_on_c, 13, 41, 68
15, 103619, Note_on_c, 13, 41, 0
15, 103620, Note_on_c, 13, 44, 68
15, 103673, Note_on_c, 13, 44, 0
15, 103680, Note_on_c, 13, 46, 68
15, 103680, Note_on_c, 13, 43, 68
15, 103739, Note_on_c, 13, 46, 0
15, 103739, Note_on_c, 13, 43, 0
15, 103740, Note_on_c, 13, 43, 68
15, 103740, Note_on_c, 13, 39, 68
15, 103799, Note_on_c, 13, 43, 0
15, 103799, Note_on_c, 13, 39, 0
15, 103800, Note_on_c, 13, 43, 68
15, 103800, Note_on_c, 13, 46, 68
15, 103859, Note_on_c, 13, 43, 0
15, 103859, Note_on_c, 13, 46, 0
15, 103860, Note_on_c, 13, 39, 68
15, 103860, Note_on_c, 13, 43, 68
15, 103919, Note_on_c, 13, 39, 0
15, 103919, Note_on_c, 13, 43, 0
15, 103920, Note_on_c, 13, 43, 68
15, 103920, Note_on_c, 13, 46, 68
15, 103979, Note_on_c, 13, 43, 0
15, 103979, Note_on_c, 13, 46, 0
15, 103980, Note_on_c, 13, 43, 68
15, 103980, Note_on_c, 13, 39, 68
15, 104039, Note_on_c, 13, 43, 0
15, 104039, Note_on_c, 13, 39, 0
15, 104040, Note_on_c, 13, 46, 68
15, 104040, Note_on_c, 13, 43, 68
15, 104099, Note_on_c, 13, 46, 0
15, 104099, Note_on_c, 13, 43, 0
15, 104100, Note_on_c, 13, 43, 68
15, 104100, Note_on_c, 13, 39, 68
15, 104159, Note_on_c, 13, 43, 0
15, 104159, Note_on_c, 13, 39, 0
15, 104160, Note_on_c, 13, 43, 68
15, 104160, Note_on_c, 13, 46, 68
15, 104219, Note_on_c, 13, 43, 0
15, 104219, Note_on_c, 13, 46, 0
15, 104220, Note_on_c, 13, 39, 68
15, 104220, Note_on_c, 13, 43, 68
15, 104279, Note_on_c, 13, 39, 0
15, 104279, Note_on_c, 13, 43, 0
15, 104280, Note_on_c, 13, 46, 68
15, 104280, Note_on_c, 13, 43, 68
15, 104339, Note_on_c, 13, 46, 0
15, 104339, Note_on_c, 13, 43, 0
15, 104340, Note_on_c, 13, 43, 68
15, 104340, Note_on_c, 13, 39, 68
15, 104393, Note_on_c, 13, 43, 0
15, 104393, Note_on_c, 13, 39, 0
15, 104400, Note_on_c, 13, 48, 68
15, 104400, Note_on_c, 13, 44, 68
15, 104459, Note_on_c, 13, 48, 0
15, 104459, Note_on_c, 13, 44, 0
15, 104460, Note_on_c, 13, 44, 68
15, 104460, Note_on_c, 13, 39, 68
15, 104519, Note_on_c, 13, 44, 0
15, 104519, Note_on_c, 13, 39, 0
15, 104520, Note_on_c, 13, 48, 68
15, 104520, Note_on_c, 13, 44, 68
15, 104579, Note_on_c, 13, 48, 0
15, 104579, Note_on_c, 13, 44, 0
15, 104580, Note_on_c, 13, 44, 68
15, 104580, Note_on_c, 13, 39, 68
15, 104639, Note_on_c, 13, 44, 0
15, 104639, Note_on_c, 13, 39, 0
15, 104640, Note_on_c, 13, 48, 68
15, 104640, Note_on_c, 13, 44, 68
15, 104699, Note_on_c, 13, 48, 0
15, 104699, Note_on_c, 13, 44, 0
15, 104700, Note_on_c, 13, 39, 68
15, 104700, Note_on_c, 13, 44, 68
15, 104759, Note_on_c, 13, 39, 0
15, 104759, Note_on_c, 13, 44, 0
15, 104760, Note_on_c, 13, 48, 68
15, 104760, Note_on_c, 13, 44, 68
15, 104819, Note_on_c, 13, 48, 0
15, 104819, Note_on_c, 13, 44, 0
15, 104820, Note_on_c, 13, 44, 68
15, 104820, Note_on_c, 13, 39, 68
15, 104879, Note_on_c, 13, 44, 0
15, 104879, Note_on_c, 13, 39, 0
15, 104880, Note_on_c, 13, 48, 68
15, 104880, Note_on_c, 13, 44, 68
15, 104939, Note_on_c, 13, 48, 0
15, 104939, Note_on_c, 13, 44, 0
15, 104940, Note_on_c, 13, 39, 68
15, 104940, Note_on_c, 13, 44, 68
15, 104999, Note_on_c, 13, 39, 0
15, 104999, Note_on_c, 13, 44, 0
15, 105000, Note_on_c, 13, 48, 68
15, 105000, Note_on_c, 13, 44, 68
15, 105059, Note_on_c, 13, 48, 0
15, 105059, Note_on_c, 13, 44, 0
15, 105060, Note_on_c, 13, 44, 68
15, 105060, Note_on_c, 13, 39, 68
15, 105113, Note_on_c, 13, 44, 0
15, 105113, Note_on_c, 13, 39, 0
15, 105120, Note_on_c, 13, 43, 68
15, 105120, Note_on_c, 13, 46, 68
15, 105179, Note_on_c, 13, 43, 0
15, 105179, Note_on_c, 13, 46, 0
15, 105180, Note_on_c, 13, 39, 68
15, 105180, Note_on_c, 13, 43, 68
15, 105239, Note_on_c, 13, 39, 0
15, 105239, Note_on_c, 13, 43, 0
15, 105240, Note_on_c, 13, 46, 68
15, 105240, Note_on_c, 13, 43, 68
15, 105299, Note_on_c, 13, 46, 0
15, 105299, Note_on_c, 13, 43, 0
15, 105300, Note_on_c, 13, 39, 68
15, 105300, Note_on_c, 13, 43, 68
15, 105359, Note_on_c, 13, 39, 0
15, 105359, Note_on_c, 13, 43, 0
15, 105360, Note_on_c, 13, 43, 68
15, 105360, Note_on_c, 13, 46, 68
15, 105419, Note_on_c, 13, 43, 0
15, 105419, Note_on_c, 13, 46, 0
15, 105420, Note_on_c, 13, 39, 68
15, 105420, Note_on_c, 13, 43, 68
15, 105479, Note_on_c, 13, 39, 0
15, 105479, Note_on_c, 13, 43, 0
15, 105480, Note_on_c, 13, 43, 68
15, 105480, Note_on_c, 13, 46, 68
15, 105539, Note_on_c, 13, 43, 0
15, 105539, Note_on_c, 13, 46, 0
15, 105540, Note_on_c, 13, 43, 68
15, 105540, Note_on_c, 13, 39, 68
15, 105599, Note_on_c, 13, 43, 0
15, 105599, Note_on_c, 13, 39, 0
15, 105600, Note_on_c, 13, 46, 68
15, 105600, Note_on_c, 13, 43, 68
15, 105659, Note_on_c, 13, 46, 0
15, 105659, Note_on_c, 13, 43, 0
15, 105660, Note_on_c, 13, 43, 68
15, 105660, Note_on_c, 13, 39, 68
15, 105719, Note_on_c, 13, 43, 0
15, 105719, Note_on_c, 13, 39, 0
15, 105720, Note_on_c, 13, 43, 68
15, 105720, Note_on_c, 13, 46, 68
15, 105779, Note_on_c, 13, 43, 0
15, 105779, Note_on_c, 13, 46, 0
15, 105780, Note_on_c, 13, 39, 68
15, 105780, Note_on_c, 13, 43, 68
15, 105833, Note_on_c, 13, 39, 0
15, 105833, Note_on_c, 13, 43, 0
15, 105840, Note_on_c, 13, 48, 68
15, 105840, Note_on_c, 13, 44, 68
15, 105899, Note_on_c, 13, 48, 0
15, 105899, Note_on_c, 13, 44, 0
15, 105900, Note_on_c, 13, 44, 68
15, 105900, Note_on_c, 13, 39, 68
15, 105959, Note_on_c, 13, 44, 0
15, 105959, Note_on_c, 13, 39, 0
15, 105960, Note_on_c, 13, 48, 68
15, 105960, Note_on_c, 13, 44, 68
15, 106019, Note_on_c, 13, 48, 0
15, 106019, Note_on_c, 13, 44, 0
15, 106020, Note_on_c, 13, 44, 68
15, 106020, Note_on_c, 13, 39, 68
15, 106079, Note_on_c, 13, 44, 0
15, 106079, Note_on_c, 13, 39, 0
15, 106080, Note_on_c, 13, 48, 68
15, 106080, Note_on_c, 13, 44, 68
15, 106139, Note_on_c, 13, 48, 0
15, 106139, Note_on_c, 13, 44, 0
15, 106140, Note_on_c, 13, 39, 68
15, 106140, Note_on_c, 13, 44, 68
15, 106199, Note_on_c, 13, 39, 0
15, 106199, Note_on_c, 13, 44, 0
15, 106200, Note_on_c, 13, 44, 68
15, 106200, Note_on_c, 13, 48, 68
15, 106259, Note_on_c, 13, 44, 0
15, 106259, Note_on_c, 13, 48, 0
15, 106260, Note_on_c, 13, 44, 68
15, 106260, Note_on_c, 13, 39, 68
15, 106319, Note_on_c, 13, 44, 0
15, 106319, Note_on_c, 13, 39, 0
15, 106320, Note_on_c, 13, 48, 68
15, 106320, Note_on_c, 13, 44, 68
15, 106379, Note_on_c, 13, 48, 0
15, 106379, Note_on_c, 13, 44, 0
15, 106380, Note_on_c, 13, 39, 68
15, 106380, Note_on_c, 13, 44, 68
15, 106439, Note_on_c, 13, 39, 0
15, 106439, Note_on_c, 13, 44, 0
15, 106440, Note_on_c, 13, 48, 68
15, 106440, Note_on_c, 13, 44, 68
15, 106499, Note_on_c, 13, 48, 0
15, 106499, Note_on_c, 13, 44, 0
15, 106500, Note_on_c, 13, 44, 68
15, 106500, Note_on_c, 13, 39, 68
15, 106553, Note_on_c, 13, 44, 0
15, 106553, Note_on_c, 13, 39, 0
15, 106560, Control_c, 13, 11, 97
15, 106560, Note_on_c, 13, 43, 68
15, 106680, Control_c, 13, 11, 99
15, 106800, Control_c, 13, 11, 102
15, 106919, Note_on_c, 13, 43, 0
15, 106920, Control_c, 13, 11, 105
15, 106920, Note_on_c, 13, 41, 68
15, 107040, Control_c, 13, 11, 107
15, 107160, Control_c, 13, 11, 110
15, 107279, Note_on_c, 13, 41, 0
15, 107280, Note_on_c, 13, 46, 68
15, 107280, Control_c, 13, 11, 113
15, 107400, Control_c, 13, 11, 115
15, 107520, Control_c, 13, 11, 118
15, 107639, Note_on_c, 13, 46, 0
15, 107640, Control_c, 13, 11, 119
15, 107640, Note_on_c, 13, 51, 68
15, 107760, Control_c, 13, 11, 123
15, 107880, Control_c, 13, 11, 125
15, 107989, Note_on_c, 13, 51, 0
15, 107998, Control_c, 13, 11, 127
15, 108000, Note_on_c, 13, 44, 52
15, 108239, Note_on_c, 13, 44, 0
15, 109080, Program_c, 13, 45
15, 109200, Note_on_c, 13, 53, 48
15, 109319, Note_on_c, 13, 53, 0
15, 109320, Note_on_c, 13, 56, 48
15, 109439, Note_on_c, 13, 56, 0
15, 109440, Note_on_c, 13, 46, 48
15, 109679, Note_on_c, 13, 46, 0
15, 109800, Program_c, 13, 42
15, 109800, Control_c, 13, 11, 81
15, 110040, Note_on_c, 13, 63, 76
15, 110129, Note_on_c, 13, 63, 0
15, 110140, Note_on_c, 13, 63, 76
15, 110159, Note_on_c, 13, 63, 0
15, 110160, Note_on_c, 13, 62, 76
15, 110160, Control_c, 13, 11, 81
15, 110279, Note_on_c, 13, 62, 0
15, 110280, Note_on_c, 13, 60, 76
15, 110280, Control_c, 13, 11, 85
15, 110399, Note_on_c, 13, 60, 0
15, 110400, Control_c, 13, 11, 89
15, 110400, Note_on_c, 13, 58, 76
15, 110509, Note_on_c, 13, 58, 0
15, 110520, Control_c, 13, 11, 93
15, 110520, Note_on_c, 13, 58, 76
15, 110639, Note_on_c, 13, 58, 0
15, 110640, Control_c, 13, 11, 97
15, 110640, Note_on_c, 13, 60, 76
15, 110759, Note_on_c, 13, 60, 0
15, 110760, Note_on_c, 13, 62, 76
15, 110760, Control_c, 13, 11, 101
15, 110869, Note_on_c, 13, 62, 0
15, 110880, Control_c, 13, 11, 105
15, 110880, Note_on_c, 13, 63, 76
15, 111000, Control_c, 13, 11, 107
15, 111120, Control_c, 13, 11, 111
15, 111239, Note_on_c, 13, 63, 0
15, 111240, Control_c, 13, 11, 115
15, 111240, Note_on_c, 13, 58, 76
15, 111360, Control_c, 13, 11, 119
15, 111480, Control_c, 13, 11, 123
15, 111599, Note_on_c, 13, 58, 0
15, 111600, Note_on_c, 13, 59, 76
15, 111600, Control_c, 13, 11, 127
15, 111660, Control_c, 13, 11, 123
15, 111720, Control_c, 13, 11, 119
15, 111780, Control_c, 13, 11, 115
15, 111840, Control_c, 13, 11, 111
15, 111900, Control_c, 13, 11, 107
15, 111959, Note_on_c, 13, 59, 0
15, 111960, Control_c, 13, 11, 105
15, 111960, Note_on_c, 13, 56, 76
15, 112020, Control_c, 13, 11, 101
15, 112080, Control_c, 13, 11, 97
15, 112140, Control_c, 13, 11, 93
15, 112199, Note_on_c, 13, 56, 0
15, 112200, Note_on_c, 13, 59, 76
15, 112200, Control_c, 13, 11, 89
15, 112260, Control_c, 13, 11, 85
15, 112309, Note_on_c, 13, 59, 0
15, 112318, Control_c, 13, 11, 81
15, 112320, Note_on_c, 13, 58, 76
15, 112559, Note_on_c, 13, 58, 0
15, 113400, Program_c, 13, 45
15, 113400, Control_c, 13, 11, 127
15, 113760, Note_on_c, 13, 42, 48
15, 113999, Note_on_c, 13, 42, 0
15, 114840, Program_c, 13, 42
15, 115200, Note_on_c, 13, 47, 44
15, 115259, Note_on_c, 13, 47, 0
15, 115260, Note_on_c, 13, 42, 44
15, 115319, Note_on_c, 13, 42, 0
15, 115320, Note_on_c, 13, 47, 44
15, 115379, Note_on_c, 13, 47, 0
15, 115380, Note_on_c, 13, 42, 44
15, 115439, Note_on_c, 13, 42, 0
15, 115440, Note_on_c, 13, 47, 44
15, 115499, Note_on_c, 13, 47, 0
15, 115500, Note_on_c, 13, 42, 44
15, 115559, Note_on_c, 13, 42, 0
15, 115560, Note_on_c, 13, 47, 44
15, 115619, Note_on_c, 13, 47, 0
15, 115620, Note_on_c, 13, 42, 44
15, 115679, Note_on_c, 13, 42, 0
15, 115680, Note_on_c, 13, 47, 44
15, 115739, Note_on_c, 13, 47, 0
15, 115740, Note_on_c, 13, 42, 44
15, 115799, Note_on_c, 13, 42, 0
15, 115800, Note_on_c, 13, 47, 44
15, 115859, Note_on_c, 13, 47, 0
15, 115860, Note_on_c, 13, 42, 44
15, 115919, Note_on_c, 13, 42, 0
15, 115920, Note_on_c, 13, 47, 44
15, 115979, Note_on_c, 13, 47, 0
15, 115980, Note_on_c, 13, 42, 44
15, 116039, Note_on_c, 13, 42, 0
15, 116040, Note_on_c, 13, 47, 44
15, 116099, Note_on_c, 13, 47, 0
15, 116100, Note_on_c, 13, 42, 44
15, 116159, Note_on_c, 13, 42, 0
15, 116160, Note_on_c, 13, 47, 44
15, 116219, Note_on_c, 13, 47, 0
15, 116220, Note_on_c, 13, 42, 44
15, 116279, Note_on_c, 13, 42, 0
15, 116280, Note_on_c, 13, 47, 44
15, 116339, Note_on_c, 13, 47, 0
15, 116340, Note_on_c, 13, 42, 44
15, 116399, Note_on_c, 13, 42, 0
15, 116400, Note_on_c, 13, 47, 44
15, 116459, Note_on_c, 13, 47, 0
15, 116460, Note_on_c, 13, 42, 44
15, 116519, Note_on_c, 13, 42, 0
15, 116520, Note_on_c, 13, 47, 44
15, 116579, Note_on_c, 13, 47, 0
15, 116580, Note_on_c, 13, 42, 44
15, 116633, Note_on_c, 13, 42, 0
15, 116640, Note_on_c, 13, 46, 44
15, 116699, Note_on_c, 13, 46, 0
15, 116700, Note_on_c, 13, 42, 44
15, 116759, Note_on_c, 13, 42, 0
15, 116760, Note_on_c, 13, 46, 44
15, 116819, Note_on_c, 13, 46, 0
15, 116820, Note_on_c, 13, 42, 44
15, 116879, Note_on_c, 13, 42, 0
15, 116880, Note_on_c, 13, 46, 44
15, 116939, Note_on_c, 13, 46, 0
15, 116940, Note_on_c, 13, 42, 44
15, 116999, Note_on_c, 13, 42, 0
15, 117000, Note_on_c, 13, 46, 44
15, 117059, Note_on_c, 13, 46, 0
15, 117060, Note_on_c, 13, 42, 44
15, 117119, Note_on_c, 13, 42, 0
15, 117120, Note_on_c, 13, 46, 44
15, 117179, Note_on_c, 13, 46, 0
15, 117180, Note_on_c, 13, 42, 44
15, 117239, Note_on_c, 13, 42, 0
15, 117240, Note_on_c, 13, 46, 44
15, 117299, Note_on_c, 13, 46, 0
15, 117300, Note_on_c, 13, 42, 44
15, 117359, Note_on_c, 13, 42, 0
15, 117360, Note_on_c, 13, 46, 44
15, 117419, Note_on_c, 13, 46, 0
15, 117420, Note_on_c, 13, 42, 44
15, 117479, Note_on_c, 13, 42, 0
15, 117480, Note_on_c, 13, 46, 44
15, 117539, Note_on_c, 13, 46, 0
15, 117540, Note_on_c, 13, 42, 44
15, 117599, Note_on_c, 13, 42, 0
15, 117600, Note_on_c, 13, 46, 44
15, 117659, Note_on_c, 13, 46, 0
15, 117660, Note_on_c, 13, 42, 44
15, 117719, Note_on_c, 13, 42, 0
15, 117720, Note_on_c, 13, 46, 44
15, 117779, Note_on_c, 13, 46, 0
15, 117780, Note_on_c, 13, 42, 44
15, 117839, Note_on_c, 13, 42, 0
15, 117840, Note_on_c, 13, 46, 44
15, 117899, Note_on_c, 13, 46, 0
15, 117900, Note_on_c, 13, 42, 44
15, 117959, Note_on_c, 13, 42, 0
15, 117960, Note_on_c, 13, 46, 44
15, 118019, Note_on_c, 13, 46, 0
15, 118020, Note_on_c, 13, 42, 44
15, 118073, Note_on_c, 13, 42, 0
15, 118080, Note_on_c, 13, 51, 44
15, 118139, Note_on_c, 13, 51, 0
15, 118140, Note_on_c, 13, 47, 44
15, 118199, Note_on_c, 13, 47, 0
15, 118200, Note_on_c, 13, 51, 44
15, 118259, Note_on_c, 13, 51, 0
15, 118260, Note_on_c, 13, 47, 44
15, 118319, Note_on_c, 13, 47, 0
15, 118320, Note_on_c, 13, 51, 44
15, 118379, Note_on_c, 13, 51, 0
15, 118380, Note_on_c, 13, 47, 44
15, 118439, Note_on_c, 13, 47, 0
15, 118440, Note_on_c, 13, 51, 44
15, 118499, Note_on_c, 13, 51, 0
15, 118500, Note_on_c, 13, 47, 44
15, 118559, Note_on_c, 13, 47, 0
15, 118560, Note_on_c, 13, 51, 44
15, 118619, Note_on_c, 13, 51, 0
15, 118620, Note_on_c, 13, 47, 44
15, 118679, Note_on_c, 13, 47, 0
15, 118680, Note_on_c, 13, 51, 44
15, 118739, Note_on_c, 13, 51, 0
15, 118740, Note_on_c, 13, 47, 44
15, 118793, Note_on_c, 13, 47, 0
15, 118800, Note_on_c, 13, 52, 44
15, 118859, Note_on_c, 13, 52, 0
15, 118860, Note_on_c, 13, 47, 44
15, 118919, Note_on_c, 13, 47, 0
15, 118920, Note_on_c, 13, 52, 44
15, 118979, Note_on_c, 13, 52, 0
15, 118980, Note_on_c, 13, 47, 44
15, 119039, Note_on_c, 13, 47, 0
15, 119040, Note_on_c, 13, 52, 44
15, 119099, Note_on_c, 13, 52, 0
15, 119100, Note_on_c, 13, 47, 44
15, 119159, Note_on_c, 13, 47, 0
15, 119160, Note_on_c, 13, 52, 44
15, 119219, Note_on_c, 13, 52, 0
15, 119220, Note_on_c, 13, 47, 44
15, 119279, Note_on_c, 13, 47, 0
15, 119280, Note_on_c, 13, 52, 44
15, 119339, Note_on_c, 13, 52, 0
15, 119340, Note_on_c, 13, 47, 44
15, 119399, Note_on_c, 13, 47, 0
15, 119400, Note_on_c, 13, 52, 44
15, 119459, Note_on_c, 13, 52, 0
15, 119460, Note_on_c, 13, 47, 44
15, 119513, Note_on_c, 13, 47, 0
15, 119520, Note_on_c, 13, 50, 44
15, 119579, Note_on_c, 13, 50, 0
15, 119580, Note_on_c, 13, 47, 45
15, 119639, Note_on_c, 13, 47, 0
15, 119640, Note_on_c, 13, 50, 46
15, 119699, Note_on_c, 13, 50, 0
15, 119700, Note_on_c, 13, 47, 48
15, 119759, Note_on_c, 13, 47, 0
15, 119760, Note_on_c, 13, 50, 49
15, 119819, Note_on_c, 13, 50, 0
15, 119820, Note_on_c, 13, 47, 50
15, 119873, Note_on_c, 13, 47, 0
15, 119880, Note_on_c, 13, 47, 52
15, 119939, Note_on_c, 13, 47, 0
15, 119940, Note_on_c, 13, 43, 53
15, 119999, Note_on_c, 13, 43, 0
15, 120000, Note_on_c, 13, 47, 54
15, 120059, Note_on_c, 13, 47, 0
15, 120060, Note_on_c, 13, 43, 56
15, 120119, Note_on_c, 13, 43, 0
15, 120120, Note_on_c, 13, 55, 57
15, 120179, Note_on_c, 13, 55, 0
15, 120180, Note_on_c, 13, 43, 58
15, 120233, Note_on_c, 13, 43, 0
15, 120240, Note_on_c, 13, 48, 60
15, 120599, Note_on_c, 13, 48, 0
15, 120600, Note_on_c, 13, 46, 68
15, 120949, Note_on_c, 13, 46, 0
15, 120960, Note_on_c, 13, 45, 76
15, 121309, Note_on_c, 13, 45, 0
15, 121320, Note_on_c, 13, 41, 76
15, 121669, Note_on_c, 13, 41, 0
15, 121680, Note_on_c, 13, 46, 84
15, 122029, Note_on_c, 13, 46, 0
15, 122040, Note_on_c, 13, 48, 84
15, 122389, Note_on_c, 13, 48, 0
15, 122400, Note_on_c, 13, 41, 76
15, 122509, Note_on_c, 13, 41, 0
15, 122520, Note_on_c, 13, 60, 75
15, 122579, Note_on_c, 13, 60, 0
15, 122580, Note_on_c, 13, 63, 75
15, 122639, Note_on_c, 13, 63, 0
15, 122640, Note_on_c, 13, 60, 74
15, 122699, Note_on_c, 13, 60, 0
15, 122700, Note_on_c, 13, 63, 74
15, 122759, Note_on_c, 13, 63, 0
15, 122760, Note_on_c, 13, 60, 73
15, 122819, Note_on_c, 13, 60, 0
15, 122820, Note_on_c, 13, 63, 73
15, 122879, Note_on_c, 13, 63, 0
15, 122880, Note_on_c, 13, 62, 72
15, 122939, Note_on_c, 13, 62, 0
15, 122940, Note_on_c, 13, 65, 72
15, 122999, Note_on_c, 13, 65, 0
15, 123000, Note_on_c, 13, 60, 71
15, 123059, Note_on_c, 13, 60, 0
15, 123060, Note_on_c, 13, 63, 71
15, 123119, Note_on_c, 13, 63, 0
15, 123120, Note_on_c, 13, 58, 70
15, 123179, Note_on_c, 13, 58, 0
15, 123180, Note_on_c, 13, 62, 70
15, 123239, Note_on_c, 13, 62, 0
15, 123240, Note_on_c, 13, 58, 69
15, 123299, Note_on_c, 13, 58, 0
15, 123300, Note_on_c, 13, 62, 69
15, 123359, Note_on_c, 13, 62, 0
15, 123360, Note_on_c, 13, 58, 68
15, 123419, Note_on_c, 13, 58, 0
15, 123420, Note_on_c, 13, 62, 68
15, 123479, Note_on_c, 13, 62, 0
15, 123480, Note_on_c, 13, 58, 67
15, 123539, Note_on_c, 13, 58, 0
15, 123540, Note_on_c, 13, 62, 67
15, 123599, Note_on_c, 13, 62, 0
15, 123600, Note_on_c, 13, 60, 66
15, 123659, Note_on_c, 13, 60, 0
15, 123660, Note_on_c, 13, 63, 66
15, 123719, Note_on_c, 13, 63, 0
15, 123720, Note_on_c, 13, 58, 65
15, 123779, Note_on_c, 13, 58, 0
15, 123780, Note_on_c, 13, 62, 65
15, 123833, Note_on_c, 13, 62, 0
15, 123840, Note_on_c, 13, 57, 64
15, 123899, Note_on_c, 13, 57, 0
15, 123900, Note_on_c, 13, 60, 64
15, 123959, Note_on_c, 13, 60, 0
15, 123960, Note_on_c, 13, 57, 63
15, 124019, Note_on_c, 13, 57, 0
15, 124020, Note_on_c, 13, 60, 63
15, 124079, Note_on_c, 13, 60, 0
15, 124080, Note_on_c, 13, 57, 62
15, 124139, Note_on_c, 13, 57, 0
15, 124140, Note_on_c, 13, 60, 62
15, 124199, Note_on_c, 13, 60, 0
15, 124200, Note_on_c, 13, 57, 61
15, 124259, Note_on_c, 13, 57, 0
15, 124260, Note_on_c, 13, 60, 61
15, 124319, Note_on_c, 13, 60, 0
15, 124320, Note_on_c, 13, 58, 60
15, 124379, Note_on_c, 13, 58, 0
15, 124380, Note_on_c, 13, 62, 60
15, 124439, Note_on_c, 13, 62, 0
15, 124440, Note_on_c, 13, 57, 59
15, 124499, Note_on_c, 13, 57, 0
15, 124500, Note_on_c, 13, 60, 59
15, 124559, Note_on_c, 13, 60, 0
15, 124560, Note_on_c, 13, 55, 58
15, 124619, Note_on_c, 13, 55, 0
15, 124620, Note_on_c, 13, 58, 58
15, 124679, Note_on_c, 13, 58, 0
15, 124680, Note_on_c, 13, 55, 57
15, 124739, Note_on_c, 13, 55, 0
15, 124740, Note_on_c, 13, 58, 57
15, 124799, Note_on_c, 13, 58, 0
15, 124800, Note_on_c, 13, 55, 56
15, 124859, Note_on_c, 13, 55, 0
15, 124860, Note_on_c, 13, 58, 56
15, 124919, Note_on_c, 13, 58, 0
15, 124920, Note_on_c, 13, 55, 55
15, 124979, Note_on_c, 13, 55, 0
15, 124980, Note_on_c, 13, 58, 55
15, 125039, Note_on_c, 13, 58, 0
15, 125040, Note_on_c, 13, 57, 54
15, 125099, Note_on_c, 13, 57, 0
15, 125100, Note_on_c, 13, 60, 54
15, 125159, Note_on_c, 13, 60, 0
15, 125160, Note_on_c, 13, 55, 53
15, 125219, Note_on_c, 13, 55, 0
15, 125220, Note_on_c, 13, 58, 53
15, 125273, Note_on_c, 13, 58, 0
15, 125280, Note_on_c, 13, 53, 52
15, 125339, Note_on_c, 13, 53, 0
15, 125340, Note_on_c, 13, 57, 52
15, 125399, Note_on_c, 13, 57, 0
15, 125400, Note_on_c, 13, 55, 52
15, 125459, Note_on_c, 13, 55, 0
15, 125460, Note_on_c, 13, 58, 52
15, 125519, Note_on_c, 13, 58, 0
15, 125520, Note_on_c, 13, 51, 52
15, 125579, Note_on_c, 13, 51, 0
15, 125580, Note_on_c, 13, 55, 52
15, 125639, Note_on_c, 13, 55, 0
15, 125640, Note_on_c, 13, 53, 52
15, 125699, Note_on_c, 13, 53, 0
15, 125700, Note_on_c, 13, 57, 52
15, 125759, Note_on_c, 13, 57, 0
15, 125760, Note_on_c, 13, 50, 52
15, 125819, Note_on_c, 13, 50, 0
15, 125820, Note_on_c, 13, 53, 52
15, 125879, Note_on_c, 13, 53, 0
15, 125880, Note_on_c, 13, 51, 52
15, 125939, Note_on_c, 13, 51, 0
15, 125940, Note_on_c, 13, 55, 52
15, 125999, Note_on_c, 13, 55, 0
15, 126000, Note_on_c, 13, 48, 52
15, 126059, Note_on_c, 13, 48, 0
15, 126060, Note_on_c, 13, 51, 52
15, 126119, Note_on_c, 13, 51, 0
15, 126120, Note_on_c, 13, 50, 52
15, 126179, Note_on_c, 13, 50, 0
15, 126180, Note_on_c, 13, 53, 52
15, 126239, Note_on_c, 13, 53, 0
15, 126240, Note_on_c, 13, 46, 52
15, 126299, Note_on_c, 13, 46, 0
15, 126300, Note_on_c, 13, 50, 52
15, 126359, Note_on_c, 13, 50, 0
15, 126360, Note_on_c, 13, 48, 52
15, 126419, Note_on_c, 13, 48, 0
15, 126420, Note_on_c, 13, 51, 52
15, 126479, Note_on_c, 13, 51, 0
15, 126480, Note_on_c, 13, 45, 52
15, 126539, Note_on_c, 13, 45, 0
15, 126540, Note_on_c, 13, 48, 52
15, 126599, Note_on_c, 13, 48, 0
15, 126600, Note_on_c, 13, 46, 52
15, 126659, Note_on_c, 13, 46, 0
15, 126660, Note_on_c, 13, 50, 52
15, 126713, Note_on_c, 13, 50, 0
15, 126720, Note_on_c, 13, 48, 52
15, 126779, Note_on_c, 13, 48, 0
15, 126780, Note_on_c, 13, 51, 52
15, 126839, Note_on_c, 13, 51, 0
15, 126840, Note_on_c, 13, 50, 52
15, 126899, Note_on_c, 13, 50, 0
15, 126900, Note_on_c, 13, 53, 52
15, 126959, Note_on_c, 13, 53, 0
15, 126960, Note_on_c, 13, 51, 52
15, 127019, Note_on_c, 13, 51, 0
15, 127020, Note_on_c, 13, 55, 52
15, 127079, Note_on_c, 13, 55, 0
15, 127080, Note_on_c, 13, 50, 52
15, 127139, Note_on_c, 13, 50, 0
15, 127140, Note_on_c, 13, 53, 52
15, 127199, Note_on_c, 13, 53, 0
15, 127200, Note_on_c, 13, 46, 52
15, 127259, Note_on_c, 13, 46, 0
15, 127260, Note_on_c, 13, 50, 52
15, 127319, Note_on_c, 13, 50, 0
15, 127320, Note_on_c, 13, 48, 52
15, 127379, Note_on_c, 13, 48, 0
15, 127380, Note_on_c, 13, 51, 52
15, 127439, Note_on_c, 13, 51, 0
15, 127440, Note_on_c, 13, 45, 52
15, 127499, Note_on_c, 13, 45, 0
15, 127500, Note_on_c, 13, 48, 52
15, 127559, Note_on_c, 13, 48, 0
15, 127560, Note_on_c, 13, 46, 52
15, 127619, Note_on_c, 13, 46, 0
15, 127620, Note_on_c, 13, 50, 52
15, 127679, Note_on_c, 13, 50, 0
15, 127680, Note_on_c, 13, 48, 52
15, 127739, Note_on_c, 13, 48, 0
15, 127740, Note_on_c, 13, 51, 52
15, 127799, Note_on_c, 13, 51, 0
15, 127800, Note_on_c, 13, 50, 52
15, 127859, Note_on_c, 13, 50, 0
15, 127860, Note_on_c, 13, 53, 52
15, 127919, Note_on_c, 13, 53, 0
15, 127920, Note_on_c, 13, 51, 52
15, 127979, Note_on_c, 13, 51, 0
15, 127980, Note_on_c, 13, 55, 52
15, 128039, Note_on_c, 13, 55, 0
15, 128040, Note_on_c, 13, 48, 52
15, 128099, Note_on_c, 13, 48, 0
15, 128100, Note_on_c, 13, 51, 52
15, 128153, Note_on_c, 13, 51, 0
15, 128160, Note_on_c, 13, 50, 52
15, 128219, Note_on_c, 13, 50, 0
15, 128220, Note_on_c, 13, 53, 52
15, 128279, Note_on_c, 13, 53, 0
15, 128280, Note_on_c, 13, 46, 52
15, 128339, Note_on_c, 13, 46, 0
15, 128340, Note_on_c, 13, 50, 52
15, 128399, Note_on_c, 13, 50, 0
15, 128400, Note_on_c, 13, 48, 52
15, 128459, Note_on_c, 13, 48, 0
15, 128460, Note_on_c, 13, 51, 52
15, 128519, Note_on_c, 13, 51, 0
15, 128520, Note_on_c, 13, 45, 52
15, 128579, Note_on_c, 13, 45, 0
15, 128580, Note_on_c, 13, 48, 52
15, 128639, Note_on_c, 13, 48, 0
15, 128640, Note_on_c, 13, 46, 52
15, 128699, Note_on_c, 13, 46, 0
15, 128700, Note_on_c, 13, 50, 52
15, 128759, Note_on_c, 13, 50, 0
15, 128760, Note_on_c, 13, 48, 52
15, 128819, Note_on_c, 13, 48, 0
15, 128820, Note_on_c, 13, 51, 52
15, 128879, Note_on_c, 13, 51, 0
15, 128880, Note_on_c, 13, 50, 52
15, 128939, Note_on_c, 13, 50, 0
15, 128940, Note_on_c, 13, 53, 53
15, 128999, Note_on_c, 13, 53, 0
15, 129000, Note_on_c, 13, 46, 54
15, 129059, Note_on_c, 13, 46, 0
15, 129060, Note_on_c, 13, 50, 56
15, 129119, Note_on_c, 13, 50, 0
15, 129120, Note_on_c, 13, 48, 57
15, 129179, Note_on_c, 13, 48, 0
15, 129180, Note_on_c, 13, 51, 58
15, 129239, Note_on_c, 13, 51, 0
15, 129240, Note_on_c, 13, 41, 60
15, 129299, Note_on_c, 13, 41, 0
15, 129300, Note_on_c, 13, 48, 61
15, 129359, Note_on_c, 13, 48, 0
15, 129360, Note_on_c, 13, 46, 62
15, 129419, Note_on_c, 13, 46, 0
15, 129420, Note_on_c, 13, 50, 64
15, 129479, Note_on_c, 13, 50, 0
15, 129480, Note_on_c, 13, 41, 65
15, 129539, Note_on_c, 13, 41, 0
15, 129540, Note_on_c, 13, 48, 66
15, 129593, Note_on_c, 13, 48, 0
15, 129600, Note_on_c, 13, 46, 52
15, 129659, Note_on_c, 13, 46, 0
15, 129660, Note_on_c, 13, 53, 52
15, 129719, Note_on_c, 13, 53, 0
15, 129720, Note_on_c, 13, 50, 52
15, 129779, Note_on_c, 13, 50, 0
15, 129780, Note_on_c, 13, 53, 52
15, 129839, Note_on_c, 13, 53, 0
15, 129840, Note_on_c, 13, 50, 52
15, 129899, Note_on_c, 13, 50, 0
15, 129900, Note_on_c, 13, 53, 52
15, 129959, Note_on_c, 13, 53, 0
15, 129960, Note_on_c, 13, 51, 52
15, 130019, Note_on_c, 13, 51, 0
15, 130020, Note_on_c, 13, 55, 52
15, 130079, Note_on_c, 13, 55, 0
15, 130080, Note_on_c, 13, 50, 52
15, 130139, Note_on_c, 13, 50, 0
15, 130140, Note_on_c, 13, 53, 52
15, 130199, Note_on_c, 13, 53, 0
15, 130200, Note_on_c, 13, 50, 52
15, 130259, Note_on_c, 13, 50, 0
15, 130260, Note_on_c, 13, 53, 52
15, 130319, Note_on_c, 13, 53, 0
15, 130320, Note_on_c, 13, 48, 52
15, 130379, Note_on_c, 13, 48, 0
15, 130380, Note_on_c, 13, 51, 52
15, 130439, Note_on_c, 13, 51, 0
15, 130440, Note_on_c, 13, 46, 52
15, 130499, Note_on_c, 13, 46, 0
15, 130500, Note_on_c, 13, 50, 52
15, 130559, Note_on_c, 13, 50, 0
15, 130560, Note_on_c, 13, 46, 52
15, 130619, Note_on_c, 13, 46, 0
15, 130620, Note_on_c, 13, 50, 52
15, 130679, Note_on_c, 13, 50, 0
15, 130680, Note_on_c, 13, 41, 52
15, 130739, Note_on_c, 13, 41, 0
15, 130740, Note_on_c, 13, 48, 52
15, 130799, Note_on_c, 13, 48, 0
15, 130800, Note_on_c, 13, 46, 52
15, 130859, Note_on_c, 13, 46, 0
15, 130860, Note_on_c, 13, 50, 52
15, 130919, Note_on_c, 13, 50, 0
15, 130920, Note_on_c, 13, 46, 52
15, 130979, Note_on_c, 13, 46, 0
15, 130980, Note_on_c, 13, 50, 52
15, 131033, Note_on_c, 13, 50, 0
15, 131040, Note_on_c, 13, 46, 52
15, 131099, Note_on_c, 13, 46, 0
15, 131100, Note_on_c, 13, 50, 52
15, 131159, Note_on_c, 13, 50, 0
15, 131160, Note_on_c, 13, 50, 52
15, 131219, Note_on_c, 13, 50, 0
15, 131220, Note_on_c, 13, 53, 52
15, 131279, Note_on_c, 13, 53, 0
15, 131280, Note_on_c, 13, 50, 52
15, 131339, Note_on_c, 13, 50, 0
15, 131340, Note_on_c, 13, 53, 52
15, 131399, Note_on_c, 13, 53, 0
15, 131400, Note_on_c, 13, 51, 52
15, 131459, Note_on_c, 13, 51, 0
15, 131460, Note_on_c, 13, 55, 52
15, 131519, Note_on_c, 13, 55, 0
15, 131520, Note_on_c, 13, 50, 52
15, 131579, Note_on_c, 13, 50, 0
15, 131580, Note_on_c, 13, 53, 52
15, 131639, Note_on_c, 13, 53, 0
15, 131640, Note_on_c, 13, 50, 52
15, 131699, Note_on_c, 13, 50, 0
15, 131700, Note_on_c, 13, 53, 52
15, 131759, Note_on_c, 13, 53, 0
15, 131760, Note_on_c, 13, 48, 52
15, 131819, Note_on_c, 13, 48, 0
15, 131820, Note_on_c, 13, 51, 52
15, 131879, Note_on_c, 13, 51, 0
15, 131880, Note_on_c, 13, 46, 52
15, 131939, Note_on_c, 13, 46, 0
15, 131940, Note_on_c, 13, 50, 52
15, 131999, Note_on_c, 13, 50, 0
15, 132000, Note_on_c, 13, 46, 52
15, 132059, Note_on_c, 13, 46, 0
15, 132060, Note_on_c, 13, 50, 52
15, 132119, Note_on_c, 13, 50, 0
15, 132120, Note_on_c, 13, 41, 52
15, 132179, Note_on_c, 13, 41, 0
15, 132180, Note_on_c, 13, 48, 52
15, 132239, Note_on_c, 13, 48, 0
15, 132240, Note_on_c, 13, 46, 52
15, 132299, Note_on_c, 13, 46, 0
15, 132300, Note_on_c, 13, 50, 52
15, 132359, Note_on_c, 13, 50, 0
15, 132360, Note_on_c, 13, 46, 52
15, 132419, Note_on_c, 13, 46, 0
15, 132420, Note_on_c, 13, 50, 52
15, 132473, Note_on_c, 13, 50, 0
15, 132480, Note_on_c, 13, 41, 52
15, 132539, Note_on_c, 13, 41, 0
15, 132540, Note_on_c, 13, 48, 52
15, 132599, Note_on_c, 13, 48, 0
15, 132600, Note_on_c, 13, 48, 52
15, 132659, Note_on_c, 13, 48, 0
15, 132660, Note_on_c, 13, 51, 52
15, 132719, Note_on_c, 13, 51, 0
15, 132720, Note_on_c, 13, 48, 52
15, 132779, Note_on_c, 13, 48, 0
15, 132780, Note_on_c, 13, 51, 52
15, 132839, Note_on_c, 13, 51, 0
15, 132840, Note_on_c, 13, 50, 52
15, 132899, Note_on_c, 13, 50, 0
15, 132900, Note_on_c, 13, 53, 52
15, 132959, Note_on_c, 13, 53, 0
15, 132960, Note_on_c, 13, 48, 52
15, 133019, Note_on_c, 13, 48, 0
15, 133020, Note_on_c, 13, 51, 52
15, 133079, Note_on_c, 13, 51, 0
15, 133080, Note_on_c, 13, 48, 52
15, 133139, Note_on_c, 13, 48, 0
15, 133140, Note_on_c, 13, 51, 52
15, 133199, Note_on_c, 13, 51, 0
15, 133200, Note_on_c, 13, 46, 52
15, 133259, Note_on_c, 13, 46, 0
15, 133260, Note_on_c, 13, 50, 52
15, 133319, Note_on_c, 13, 50, 0
15, 133320, Note_on_c, 13, 45, 52
15, 133379, Note_on_c, 13, 45, 0
15, 133380, Note_on_c, 13, 48, 52
15, 133439, Note_on_c, 13, 48, 0
15, 133440, Note_on_c, 13, 45, 52
15, 133499, Note_on_c, 13, 45, 0
15, 133500, Note_on_c, 13, 48, 52
15, 133559, Note_on_c, 13, 48, 0
15, 133560, Note_on_c, 13, 43, 52
15, 133619, Note_on_c, 13, 43, 0
15, 133620, Note_on_c, 13, 46, 52
15, 133679, Note_on_c, 13, 46, 0
15, 133680, Note_on_c, 13, 45, 52
15, 133739, Note_on_c, 13, 45, 0
15, 133740, Note_on_c, 13, 48, 52
15, 133799, Note_on_c, 13, 48, 0
15, 133800, Note_on_c, 13, 45, 52
15, 133859, Note_on_c, 13, 45, 0
15, 133860, Note_on_c, 13, 48, 52
15, 133913, Note_on_c, 13, 48, 0
15, 133920, Note_on_c, 13, 45, 52
15, 133979, Note_on_c, 13, 45, 0
15, 133980, Note_on_c, 13, 48, 52
15, 134039, Note_on_c, 13, 48, 0
15, 134040, Note_on_c, 13, 48, 52
15, 134099, Note_on_c, 13, 48, 0
15, 134100, Note_on_c, 13, 51, 52
15, 134159, Note_on_c, 13, 51, 0
15, 134160, Note_on_c, 13, 48, 52
15, 134219, Note_on_c, 13, 48, 0
15, 134220, Note_on_c, 13, 51, 52
15, 134279, Note_on_c, 13, 51, 0
15, 134280, Note_on_c, 13, 50, 52
15, 134339, Note_on_c, 13, 50, 0
15, 134340, Note_on_c, 13, 53, 52
15, 134399, Note_on_c, 13, 53, 0
15, 134400, Note_on_c, 13, 48, 52
15, 134459, Note_on_c, 13, 48, 0
15, 134460, Note_on_c, 13, 51, 52
15, 134519, Note_on_c, 13, 51, 0
15, 134520, Note_on_c, 13, 48, 52
15, 134579, Note_on_c, 13, 48, 0
15, 134580, Note_on_c, 13, 51, 52
15, 134639, Note_on_c, 13, 51, 0
15, 134640, Note_on_c, 13, 46, 52
15, 134699, Note_on_c, 13, 46, 0
15, 134700, Note_on_c, 13, 50, 52
15, 134759, Note_on_c, 13, 50, 0
15, 134760, Note_on_c, 13, 45, 52
15, 134819, Note_on_c, 13, 45, 0
15, 134820, Note_on_c, 13, 48, 52
15, 134879, Note_on_c, 13, 48, 0
15, 134880, Note_on_c, 13, 45, 52
15, 134939, Note_on_c, 13, 45, 0
15, 134940, Note_on_c, 13, 48, 52
15, 134999, Note_on_c, 13, 48, 0
15, 135000, Note_on_c, 13, 43, 52
15, 135059, Note_on_c, 13, 43, 0
15, 135060, Note_on_c, 13, 46, 52
15, 135119, Note_on_c, 13, 46, 0
15, 135120, Note_on_c, 13, 41, 52
15, 135179, Note_on_c, 13, 41, 0
15, 135180, Note_on_c, 13, 48, 52
15, 135239, Note_on_c, 13, 48, 0
15, 135240, Note_on_c, 13, 41, 52
15, 135299, Note_on_c, 13, 41, 0
15, 135300, Note_on_c, 13, 48, 52
15, 135353, Note_on_c, 13, 48, 0
15, 135360, Note_on_c, 13, 50, 52
15, 135360, Note_on_c, 13, 46, 52
15, 135419, Note_on_c, 13, 50, 0
15, 135419, Note_on_c, 13, 46, 0
15, 135420, Note_on_c, 13, 46, 53
15, 135420, Note_on_c, 13, 38, 53
15, 135479, Note_on_c, 13, 46, 0
15, 135479, Note_on_c, 13, 38, 0
15, 135480, Note_on_c, 13, 46, 54
15, 135480, Note_on_c, 13, 50, 54
15, 135539, Note_on_c, 13, 46, 0
15, 135539, Note_on_c, 13, 50, 0
15, 135540, Note_on_c, 13, 46, 55
15, 135540, Note_on_c, 13, 38, 55
15, 135599, Note_on_c, 13, 46, 0
15, 135599, Note_on_c, 13, 38, 0
15, 135600, Note_on_c, 13, 46, 56
15, 135600, Note_on_c, 13, 50, 56
15, 135659, Note_on_c, 13, 46, 0
15, 135659, Note_on_c, 13, 50, 0
15, 135660, Note_on_c, 13, 38, 57
15, 135660, Note_on_c, 13, 46, 57
15, 135719, Note_on_c, 13, 38, 0
15, 135719, Note_on_c, 13, 46, 0
15, 135720, Note_on_c, 13, 46, 58
15, 135720, Note_on_c, 13, 50, 58
15, 135779, Note_on_c, 13, 46, 0
15, 135779, Note_on_c, 13, 50, 0
15, 135780, Note_on_c, 13, 38, 59
15, 135780, Note_on_c, 13, 46, 59
15, 135839, Note_on_c, 13, 38, 0
15, 135839, Note_on_c, 13, 46, 0
15, 135840, Note_on_c, 13, 46, 60
15, 135840, Note_on_c, 13, 50, 60
15, 135899, Note_on_c, 13, 46, 0
15, 135899, Note_on_c, 13, 50, 0
15, 135900, Note_on_c, 13, 38, 61
15, 135900, Note_on_c, 13, 46, 61
15, 135959, Note_on_c, 13, 38, 0
15, 135959, Note_on_c, 13, 46, 0
15, 135960, Note_on_c, 13, 50, 62
15, 135960, Note_on_c, 13, 46, 62
15, 136019, Note_on_c, 13, 50, 0
15, 136019, Note_on_c, 13, 46, 0
15, 136020, Note_on_c, 13, 46, 63
15, 136020, Note_on_c, 13, 38, 63
15, 136073, Note_on_c, 13, 46, 0
15, 136073, Note_on_c, 13, 38, 0
15, 136080, Note_on_c, 13, 46, 64
15, 136080, Note_on_c, 13, 48, 64
15, 136139, Note_on_c, 13, 46, 0
15, 136139, Note_on_c, 13, 48, 0
15, 136140, Note_on_c, 13, 46, 65
15, 136140, Note_on_c, 13, 39, 65
15, 136199, Note_on_c, 13, 46, 0
15, 136199, Note_on_c, 13, 39, 0
15, 136200, Note_on_c, 13, 48, 66
15, 136200, Note_on_c, 13, 46, 66
15, 136259, Note_on_c, 13, 48, 0
15, 136259, Note_on_c, 13, 46, 0
15, 136260, Note_on_c, 13, 46, 67
15, 136260, Note_on_c, 13, 39, 67
15, 136319, Note_on_c, 13, 46, 0
15, 136319, Note_on_c, 13, 39, 0
15, 136320, Note_on_c, 13, 46, 68
15, 136320, Note_on_c, 13, 48, 68
15, 136379, Note_on_c, 13, 46, 0
15, 136379, Note_on_c, 13, 48, 0
15, 136380, Note_on_c, 13, 46, 69
15, 136380, Note_on_c, 13, 39, 69
15, 136439, Note_on_c, 13, 46, 0
15, 136439, Note_on_c, 13, 39, 0
15, 136440, Note_on_c, 13, 48, 70
15, 136440, Note_on_c, 13, 46, 70
15, 136499, Note_on_c, 13, 48, 0
15, 136499, Note_on_c, 13, 46, 0
15, 136500, Note_on_c, 13, 39, 71
15, 136500, Note_on_c, 13, 46, 71
15, 136559, Note_on_c, 13, 39, 0
15, 136559, Note_on_c, 13, 46, 0
15, 136560, Note_on_c, 13, 48, 72
15, 136560, Note_on_c, 13, 46, 72
15, 136619, Note_on_c, 13, 48, 0
15, 136619, Note_on_c, 13, 46, 0
15, 136620, Note_on_c, 13, 39, 73
15, 136620, Note_on_c, 13, 46, 73
15, 136679, Note_on_c, 13, 39, 0
15, 136679, Note_on_c, 13, 46, 0
15, 136680, Note_on_c, 13, 46, 74
15, 136680, Note_on_c, 13, 48, 74
15, 136739, Note_on_c, 13, 46, 0
15, 136739, Note_on_c, 13, 48, 0
15, 136740, Note_on_c, 13, 46, 75
15, 136740, Note_on_c, 13, 39, 75
15, 136793, Note_on_c, 13, 46, 0
15, 136793, Note_on_c, 13, 39, 0
15, 136800, Note_on_c, 13, 50, 76
15, 136800, Note_on_c, 13, 46, 76
15, 136859, Note_on_c, 13, 50, 0
15, 136859, Note_on_c, 13, 46, 0
15, 136860, Note_on_c, 13, 41, 52
15, 136860, Note_on_c, 13, 46, 52
15, 136919, Note_on_c, 13, 41, 0
15, 136919, Note_on_c, 13, 46, 0
15, 136920, Note_on_c, 13, 46, 52
15, 136920, Note_on_c, 13, 50, 52
15, 136979, Note_on_c, 13, 46, 0
15, 136979, Note_on_c, 13, 50, 0
15, 136980, Note_on_c, 13, 46, 52
15, 136980, Note_on_c, 13, 41, 52
15, 137039, Note_on_c, 13, 46, 0
15, 137039, Note_on_c, 13, 41, 0
15, 137040, Note_on_c, 13, 50, 52
15, 137040, Note_on_c, 13, 46, 52
15, 137099, Note_on_c, 13, 50, 0
15, 137099, Note_on_c, 13, 46, 0
15, 137100, Note_on_c, 13, 41, 52
15, 137100, Note_on_c, 13, 46, 52
15, 137159, Note_on_c, 13, 41, 0
15, 137159, Note_on_c, 13, 46, 0
15, 137160, Note_on_c, 13, 50, 52
15, 137160, Note_on_c, 13, 46, 52
15, 137219, Note_on_c, 13, 50, 0
15, 137219, Note_on_c, 13, 46, 0
15, 137220, Note_on_c, 13, 41, 52
15, 137220, Note_on_c, 13, 46, 52
15, 137279, Note_on_c, 13, 41, 0
15, 137279, Note_on_c, 13, 46, 0
15, 137280, Note_on_c, 13, 46, 52
15, 137280, Note_on_c, 13, 50, 52
15, 137339, Note_on_c, 13, 46, 0
15, 137339, Note_on_c, 13, 50, 0
15, 137340, Note_on_c, 13, 41, 52
15, 137340, Note_on_c, 13, 46, 52
15, 137399, Note_on_c, 13, 41, 0
15, 137399, Note_on_c, 13, 46, 0
15, 137400, Note_on_c, 13, 50, 52
15, 137400, Note_on_c, 13, 46, 52
15, 137459, Note_on_c, 13, 50, 0
15, 137459, Note_on_c, 13, 46, 0
15, 137460, Note_on_c, 13, 41, 52
15, 137460, Note_on_c, 13, 46, 52
15, 137513, Note_on_c, 13, 41, 0
15, 137513, Note_on_c, 13, 46, 0
15, 137520, Note_on_c, 13, 50, 52
15, 137520, Note_on_c, 13, 46, 52
15, 137579, Note_on_c, 13, 50, 0
15, 137579, Note_on_c, 13, 46, 0
15, 137580, Note_on_c, 13, 41, 54
15, 137580, Note_on_c, 13, 46, 54
15, 137639, Note_on_c, 13, 41, 0
15, 137639, Note_on_c, 13, 46, 0
15, 137640, Note_on_c, 13, 50, 57
15, 137640, Note_on_c, 13, 46, 57
15, 137699, Note_on_c, 13, 50, 0
15, 137699, Note_on_c, 13, 46, 0
15, 137700, Note_on_c, 13, 46, 60
15, 137700, Note_on_c, 13, 41, 60
15, 137759, Note_on_c, 13, 46, 0
15, 137759, Note_on_c, 13, 41, 0
15, 137760, Note_on_c, 13, 50, 62
15, 137760, Note_on_c, 13, 46, 62
15, 137819, Note_on_c, 13, 50, 0
15, 137819, Note_on_c, 13, 46, 0
15, 137820, Note_on_c, 13, 46, 65
15, 137820, Note_on_c, 13, 41, 65
15, 137873, Note_on_c, 13, 46, 0
15, 137873, Note_on_c, 13, 41, 0
15, 137880, Note_on_c, 13, 51, 68
15, 137880, Note_on_c, 13, 48, 68
15, 137939, Note_on_c, 13, 51, 0
15, 137939, Note_on_c, 13, 48, 0
15, 137940, Note_on_c, 13, 48, 66
15, 137940, Note_on_c, 13, 41, 66
15, 137999, Note_on_c, 13, 48, 0
15, 137999, Note_on_c, 13, 41, 0
15, 138000, Note_on_c, 13, 48, 63
15, 138000, Note_on_c, 13, 51, 63
15, 138059, Note_on_c, 13, 48, 0
15, 138059, Note_on_c, 13, 51, 0
15, 138060, Note_on_c, 13, 41, 60
15, 138060, Note_on_c, 13, 48, 60
15, 138119, Note_on_c, 13, 41, 0
15, 138119, Note_on_c, 13, 48, 0
15, 138120, Note_on_c, 13, 51, 58
15, 138120, Note_on_c, 13, 48, 58
15, 138179, Note_on_c, 13, 51, 0
15, 138179, Note_on_c, 13, 48, 0
15, 138180, Note_on_c, 13, 41, 55
15, 138180, Note_on_c, 13, 48, 55
15, 138233, Note_on_c, 13, 41, 0
15, 138233, Note_on_c, 13, 48, 0
15, 138240, Note_on_c, 13, 43, 52
15, 138299, Note_on_c, 13, 43, 0
15, 138300, Note_on_c, 13, 62, 52
15, 138359, Note_on_c, 13, 62, 0
15, 138360, Note_on_c, 13, 58, 52
15, 138419, Note_on_c, 13, 58, 0
15, 138420, Note_on_c, 13, 62, 53
15, 138479, Note_on_c, 13, 62, 0
15, 138480, Note_on_c, 13, 58, 54
15, 138539, Note_on_c, 13, 58, 0
15, 138540, Note_on_c, 13, 62, 55
15, 138599, Note_on_c, 13, 62, 0
15, 138600, Note_on_c, 13, 60, 56
15, 138659, Note_on_c, 13, 60, 0
15, 138660, Note_on_c, 13, 63, 57
15, 138719, Note_on_c, 13, 63, 0
15, 138720, Note_on_c, 13, 58, 58
15, 138779, Note_on_c, 13, 58, 0
15, 138780, Note_on_c, 13, 62, 59
15, 138839, Note_on_c, 13, 62, 0
15, 138840, Note_on_c, 13, 58, 60
15, 138899, Note_on_c, 13, 58, 0
15, 138900, Note_on_c, 13, 62, 61
15, 138959, Note_on_c, 13, 62, 0
15, 139080, Note_on_c, 13, 55, 65
15, 139139, Note_on_c, 13, 55, 0
15, 139140, Note_on_c, 13, 58, 66
15, 139199, Note_on_c, 13, 58, 0
15, 139200, Note_on_c, 13, 55, 67
15, 139259, Note_on_c, 13, 55, 0
15, 139260, Note_on_c, 13, 58, 68
15, 139319, Note_on_c, 13, 58, 0
15, 139320, Note_on_c, 13, 57, 69
15, 139379, Note_on_c, 13, 57, 0
15, 139380, Note_on_c, 13, 60, 70
15, 139439, Note_on_c, 13, 60, 0
15, 139440, Note_on_c, 13, 55, 71
15, 139499, Note_on_c, 13, 55, 0
15, 139500, Note_on_c, 13, 58, 72
15, 139559, Note_on_c, 13, 58, 0
15, 139560, Note_on_c, 13, 55, 73
15, 139619, Note_on_c, 13, 55, 0
15, 139620, Note_on_c, 13, 58, 74
15, 139679, Note_on_c, 13, 58, 0
15, 139800, Note_on_c, 13, 55, 76
15, 139859, Note_on_c, 13, 55, 0
15, 139860, Note_on_c, 13, 52, 76
15, 139919, Note_on_c, 13, 52, 0
15, 139920, Note_on_c, 13, 55, 76
15, 139979, Note_on_c, 13, 55, 0
15, 139980, Note_on_c, 13, 52, 76
15, 140039, Note_on_c, 13, 52, 0
15, 140040, Note_on_c, 13, 57, 76
15, 140099, Note_on_c, 13, 57, 0
15, 140100, Note_on_c, 13, 53, 76
15, 140159, Note_on_c, 13, 53, 0
15, 140160, Note_on_c, 13, 55, 76
15, 140219, Note_on_c, 13, 55, 0
15, 140220, Note_on_c, 13, 52, 76
15, 140279, Note_on_c, 13, 52, 0
15, 140280, Note_on_c, 13, 55, 76
15, 140339, Note_on_c, 13, 55, 0
15, 140340, Note_on_c, 13, 52, 76
15, 140399, Note_on_c, 13, 52, 0
15, 140400, Note_on_c, 13, 53, 76
15, 140459, Note_on_c, 13, 53, 0
15, 140460, Note_on_c, 13, 50, 76
15, 140519, Note_on_c, 13, 50, 0
15, 140520, Note_on_c, 13, 52, 76
15, 140579, Note_on_c, 13, 52, 0
15, 140580, Note_on_c, 13, 48, 76
15, 140639, Note_on_c, 13, 48, 0
15, 140640, Note_on_c, 13, 52, 76
15, 140699, Note_on_c, 13, 52, 0
15, 140700, Note_on_c, 13, 48, 76
15, 140759, Note_on_c, 13, 48, 0
15, 140760, Note_on_c, 13, 50, 76
15, 140819, Note_on_c, 13, 50, 0
15, 140820, Note_on_c, 13, 46, 72
15, 140879, Note_on_c, 13, 46, 0
15, 140880, Note_on_c, 13, 48, 68
15, 140939, Note_on_c, 13, 48, 0
15, 140940, Note_on_c, 13, 45, 64
15, 140999, Note_on_c, 13, 45, 0
15, 141000, Note_on_c, 13, 46, 60
15, 141059, Note_on_c, 13, 46, 0
15, 141060, Note_on_c, 13, 43, 56
15, 141113, Note_on_c, 13, 43, 0
15, 141120, Note_on_c, 13, 41, 52
15, 141180, Note_on_c, 13, 48, 52
15, 141229, Note_on_c, 13, 41, 0
15, 141239, Note_on_c, 13, 48, 0
15, 141240, Note_on_c, 13, 41, 52
15, 141240, Note_on_c, 13, 45, 52
15, 141299, Note_on_c, 13, 45, 0
15, 141300, Note_on_c, 13, 48, 52
15, 141359, Note_on_c, 13, 41, 0
15, 141359, Note_on_c, 13, 48, 0
15, 141360, Note_on_c, 13, 45, 52
15, 141360, Note_on_c, 13, 40, 52
15, 141419, Note_on_c, 13, 45, 0
15, 141420, Note_on_c, 13, 48, 52
15, 141479, Note_on_c, 13, 40, 0
15, 141479, Note_on_c, 13, 48, 0
15, 141480, Note_on_c, 13, 41, 52
15, 141480, Note_on_c, 13, 45, 52
15, 141539, Note_on_c, 13, 45, 0
15, 141540, Note_on_c, 13, 48, 52
15, 141599, Note_on_c, 13, 48, 0
15, 141600, Note_on_c, 13, 45, 52
15, 141659, Note_on_c, 13, 45, 0
15, 141660, Note_on_c, 13, 48, 52
15, 141719, Note_on_c, 13, 48, 0
15, 141720, Note_on_c, 13, 45, 52
15, 141779, Note_on_c, 13, 45, 0
15, 141780, Note_on_c, 13, 48, 52
15, 141833, Note_on_c, 13, 48, 0
15, 141840, Note_on_c, 13, 46, 52
15, 141899, Note_on_c, 13, 46, 0
15, 141900, Note_on_c, 13, 50, 52
15, 141949, Note_on_c, 13, 41, 0
15, 141959, Note_on_c, 13, 50, 0
15, 141960, Note_on_c, 13, 46, 52
15, 141960, Note_on_c, 13, 41, 52
15, 142019, Note_on_c, 13, 46, 0
15, 142020, Note_on_c, 13, 50, 52
15, 142079, Note_on_c, 13, 41, 0
15, 142079, Note_on_c, 13, 50, 0
15, 142080, Note_on_c, 13, 40, 52
15, 142080, Note_on_c, 13, 46, 52
15, 142139, Note_on_c, 13, 46, 0
15, 142140, Note_on_c, 13, 50, 52
15, 142199, Note_on_c, 13, 40, 0
15, 142199, Note_on_c, 13, 50, 0
15, 142200, Note_on_c, 13, 41, 52
15, 142200, Note_on_c, 13, 46, 52
15, 142259, Note_on_c, 13, 46, 0
15, 142260, Note_on_c, 13, 50, 52
15, 142319, Note_on_c, 13, 50, 0
15, 142320, Note_on_c, 13, 46, 52
15, 142379, Note_on_c, 13, 46, 0
15, 142380, Note_on_c, 13, 50, 52
15, 142439, Note_on_c, 13, 50, 0
15, 142440, Note_on_c, 13, 46, 52
15, 142499, Note_on_c, 13, 46, 0
15, 142500, Note_on_c, 13, 50, 52
15, 142553, Note_on_c, 13, 50, 0
15, 142560, Note_on_c, 13, 48, 52
15, 142619, Note_on_c, 13, 48, 0
15, 142620, Note_on_c, 13, 51, 52
15, 142669, Note_on_c, 13, 41, 0
15, 142679, Note_on_c, 13, 51, 0
15, 142680, Note_on_c, 13, 41, 52
15, 142680, Note_on_c, 13, 48, 52
15, 142739, Note_on_c, 13, 48, 0
15, 142740, Note_on_c, 13, 51, 52
15, 142799, Note_on_c, 13, 41, 0
15, 142799, Note_on_c, 13, 51, 0
15, 142800, Note_on_c, 13, 40, 52
15, 142800, Note_on_c, 13, 48, 52
15, 142859, Note_on_c, 13, 48, 0
15, 142860, Note_on_c, 13, 51, 52
15, 142919, Note_on_c, 13, 40, 0
15, 142919, Note_on_c, 13, 51, 0
15, 142920, Note_on_c, 13, 48, 52
15, 142920, Note_on_c, 13, 41, 52
15, 142979, Note_on_c, 13, 48, 0
15, 142980, Note_on_c, 13, 51, 52
15, 143039, Note_on_c, 13, 51, 0
15, 143040, Note_on_c, 13, 48, 52
15, 143099, Note_on_c, 13, 48, 0
15, 143100, Note_on_c, 13, 51, 52
15, 143159, Note_on_c, 13, 51, 0
15, 143160, Note_on_c, 13, 48, 52
15, 143219, Note_on_c, 13, 48, 0
15, 143220, Note_on_c, 13, 51, 52
15, 143273, Note_on_c, 13, 51, 0
15, 143280, Note_on_c, 13, 46, 52
15, 143339, Note_on_c, 13, 46, 0
15, 143340, Note_on_c, 13, 50, 52
15, 143389, Note_on_c, 13, 41, 0
15, 143399, Note_on_c, 13, 50, 0
15, 143400, Note_on_c, 13, 46, 52
15, 143400, Note_on_c, 13, 41, 52
15, 143459, Note_on_c, 13, 46, 0
15, 143460, Note_on_c, 13, 50, 52
15, 143519, Note_on_c, 13, 41, 0
15, 143519, Note_on_c, 13, 50, 0
15, 143520, Note_on_c, 13, 40, 52
15, 143520, Note_on_c, 13, 46, 52
15, 143579, Note_on_c, 13, 46, 0
15, 143580, Note_on_c, 13, 50, 52
15, 143639, Note_on_c, 13, 40, 0
15, 143639, Note_on_c, 13, 50, 0
15, 143640, Note_on_c, 13, 46, 52
15, 143640, Note_on_c, 13, 41, 52
15, 143699, Note_on_c, 13, 46, 0
15, 143700, Note_on_c, 13, 50, 52
15, 143759, Note_on_c, 13, 50, 0
15, 143760, Note_on_c, 13, 46, 52
15, 143819, Note_on_c, 13, 46, 0
15, 143820, Note_on_c, 13, 50, 52
15, 143879, Note_on_c, 13, 50, 0
15, 143880, Note_on_c, 13, 46, 52
15, 143939, Note_on_c, 13, 46, 0
15, 143940, Note_on_c, 13, 50, 52
15, 143989, Note_on_c, 13, 41, 0
15, 143993, Note_on_c, 13, 50, 0
15, 144000, Note_on_c, 13, 41, 52
15, 144000, Note_on_c, 13, 45, 52
15, 144059, Note_on_c, 13, 41, 0
15, 144059, Note_on_c, 13, 45, 0
15, 144060, Note_on_c, 13, 45, 53
15, 144060, Note_on_c, 13, 48, 53
15, 144119, Note_on_c, 13, 45, 0
15, 144119, Note_on_c, 13, 48, 0
15, 144120, Note_on_c, 13, 41, 54
15, 144120, Note_on_c, 13, 45, 54
15, 144179, Note_on_c, 13, 41, 0
15, 144179, Note_on_c, 13, 45, 0
15, 144180, Note_on_c, 13, 48, 56
15, 144180, Note_on_c, 13, 45, 56
15, 144239, Note_on_c, 13, 48, 0
15, 144239, Note_on_c, 13, 45, 0
15, 144240, Note_on_c, 13, 41, 57
15, 144240, Note_on_c, 13, 45, 57
15, 144299, Note_on_c, 13, 41, 0
15, 144299, Note_on_c, 13, 45, 0
15, 144300, Note_on_c, 13, 45, 58
15, 144300, Note_on_c, 13, 48, 58
15, 144359, Note_on_c, 13, 45, 0
15, 144359, Note_on_c, 13, 48, 0
15, 144360, Note_on_c, 13, 45, 60
15, 144360, Note_on_c, 13, 41, 60
15, 144419, Note_on_c, 13, 45, 0
15, 144419, Note_on_c, 13, 41, 0
15, 144420, Note_on_c, 13, 48, 61
15, 144420, Note_on_c, 13, 45, 61
15, 144479, Note_on_c, 13, 48, 0
15, 144479, Note_on_c, 13, 45, 0
15, 144480, Note_on_c, 13, 45, 62
15, 144480, Note_on_c, 13, 41, 62
15, 144539, Note_on_c, 13, 45, 0
15, 144539, Note_on_c, 13, 41, 0
15, 144540, Note_on_c, 13, 48, 64
15, 144540, Note_on_c, 13, 45, 64
15, 144599, Note_on_c, 13, 48, 0
15, 144599, Note_on_c, 13, 45, 0
15, 144600, Note_on_c, 13, 41, 65
15, 144600, Note_on_c, 13, 45, 65
15, 144659, Note_on_c, 13, 41, 0
15, 144659, Note_on_c, 13, 45, 0
15, 144660, Note_on_c, 13, 48, 66
15, 144660, Note_on_c, 13, 45, 66
15, 144713, Note_on_c, 13, 48, 0
15, 144713, Note_on_c, 13, 45, 0
15, 144720, Note_on_c, 13, 48, 68
15, 144720, Note_on_c, 13, 41, 68
15, 144779, Note_on_c, 13, 48, 0
15, 144779, Note_on_c, 13, 41, 0
15, 144780, Note_on_c, 13, 51, 67
15, 144780, Note_on_c, 13, 48, 67
15, 144839, Note_on_c, 13, 51, 0
15, 144839, Note_on_c, 13, 48, 0
15, 144840, Note_on_c, 13, 41, 66
15, 144840, Note_on_c, 13, 48, 66
15, 144899, Note_on_c, 13, 41, 0
15, 144899, Note_on_c, 13, 48, 0
15, 144900, Note_on_c, 13, 48, 64
15, 144900, Note_on_c, 13, 51, 64
15, 144959, Note_on_c, 13, 48, 0
15, 144959, Note_on_c, 13, 51, 0
15, 144960, Note_on_c, 13, 48, 63
15, 144960, Note_on_c, 13, 41, 63
15, 145019, Note_on_c, 13, 48, 0
15, 145019, Note_on_c, 13, 41, 0
15, 145020, Note_on_c, 13, 48, 62
15, 145020, Note_on_c, 13, 51, 62
15, 145079, Note_on_c, 13, 48, 0
15, 145079, Note_on_c, 13, 51, 0
15, 145080, Note_on_c, 13, 48, 60
15, 145080, Note_on_c, 13, 41, 60
15, 145139, Note_on_c, 13, 48, 0
15, 145139, Note_on_c, 13, 41, 0
15, 145140, Note_on_c, 13, 48, 59
15, 145140, Note_on_c, 13, 51, 59
15, 145199, Note_on_c, 13, 48, 0
15, 145199, Note_on_c, 13, 51, 0
15, 145200, Note_on_c, 13, 48, 58
15, 145200, Note_on_c, 13, 41, 58
15, 145259, Note_on_c, 13, 48, 0
15, 145259, Note_on_c, 13, 41, 0
15, 145260, Note_on_c, 13, 51, 56
15, 145260, Note_on_c, 13, 48, 56
15, 145319, Note_on_c, 13, 51, 0
15, 145319, Note_on_c, 13, 48, 0
15, 145320, Note_on_c, 13, 41, 55
15, 145320, Note_on_c, 13, 48, 55
15, 145379, Note_on_c, 13, 41, 0
15, 145379, Note_on_c, 13, 48, 0
15, 145380, Note_on_c, 13, 48, 54
15, 145380, Note_on_c, 13, 51, 54
15, 145433, Note_on_c, 13, 48, 0
15, 145433, Note_on_c, 13, 51, 0
15, 145440, Note_on_c, 13, 46, 52
15, 145679, Note_on_c, 13, 46, 0
15, 145798, Program_c, 13, 45
15, 145800, Note_on_c, 13, 51, 48
15, 146039, Note_on_c, 13, 51, 0
15, 146160, Note_on_c, 13, 53, 48
15, 146399, Note_on_c, 13, 53, 0
15, 146520, Note_on_c, 13, 41, 48
15, 146759, Note_on_c, 13, 41, 0
15, 146878, Program_c, 13, 42
15, 146880, Note_on_c, 13, 45, 52
15, 146880, Note_on_c, 13, 41, 52
15, 146939, Note_on_c, 13, 45, 0
15, 146939, Note_on_c, 13, 41, 0
15, 146940, Note_on_c, 13, 45, 53
15, 146940, Note_on_c, 13, 48, 53
15, 146999, Note_on_c, 13, 45, 0
15, 146999, Note_on_c, 13, 48, 0
15, 147000, Note_on_c, 13, 41, 54
15, 147000, Note_on_c, 13, 45, 54
15, 147059, Note_on_c, 13, 41, 0
15, 147059, Note_on_c, 13, 45, 0
15, 147060, Note_on_c, 13, 48, 56
15, 147060, Note_on_c, 13, 45, 56
15, 147119, Note_on_c, 13, 48, 0
15, 147119, Note_on_c, 13, 45, 0
15, 147120, Note_on_c, 13, 41, 57
15, 147120, Note_on_c, 13, 45, 57
15, 147179, Note_on_c, 13, 41, 0
15, 147179, Note_on_c, 13, 45, 0
15, 147180, Note_on_c, 13, 48, 58
15, 147180, Note_on_c, 13, 45, 58
15, 147239, Note_on_c, 13, 48, 0
15, 147239, Note_on_c, 13, 45, 0
15, 147240, Note_on_c, 13, 41, 60
15, 147240, Note_on_c, 13, 45, 60
15, 147299, Note_on_c, 13, 41, 0
15, 147299, Note_on_c, 13, 45, 0
15, 147300, Note_on_c, 13, 48, 61
15, 147300, Note_on_c, 13, 45, 61
15, 147359, Note_on_c, 13, 48, 0
15, 147359, Note_on_c, 13, 45, 0
15, 147360, Note_on_c, 13, 41, 62
15, 147360, Note_on_c, 13, 45, 62
15, 147419, Note_on_c, 13, 41, 0
15, 147419, Note_on_c, 13, 45, 0
15, 147420, Note_on_c, 13, 45, 64
15, 147420, Note_on_c, 13, 48, 64
15, 147479, Note_on_c, 13, 45, 0
15, 147479, Note_on_c, 13, 48, 0
15, 147480, Note_on_c, 13, 45, 65
15, 147480, Note_on_c, 13, 41, 65
15, 147539, Note_on_c, 13, 45, 0
15, 147539, Note_on_c, 13, 41, 0
15, 147540, Note_on_c, 13, 45, 66
15, 147540, Note_on_c, 13, 48, 66
15, 147593, Note_on_c, 13, 45, 0
15, 147593, Note_on_c, 13, 48, 0
15, 147600, Note_on_c, 13, 41, 68
15, 147600, Note_on_c, 13, 48, 68
15, 147659, Note_on_c, 13, 41, 0
15, 147659, Note_on_c, 13, 48, 0
15, 147660, Note_on_c, 13, 51, 67
15, 147660, Note_on_c, 13, 48, 67
15, 147719, Note_on_c, 13, 51, 0
15, 147719, Note_on_c, 13, 48, 0
15, 147720, Note_on_c, 13, 41, 66
15, 147720, Note_on_c, 13, 48, 66
15, 147779, Note_on_c, 13, 41, 0
15, 147779, Note_on_c, 13, 48, 0
15, 147780, Note_on_c, 13, 48, 64
15, 147780, Note_on_c, 13, 51, 64
15, 147839, Note_on_c, 13, 48, 0
15, 147839, Note_on_c, 13, 51, 0
15, 147840, Note_on_c, 13, 41, 63
15, 147840, Note_on_c, 13, 48, 63
15, 147899, Note_on_c, 13, 41, 0
15, 147899, Note_on_c, 13, 48, 0
15, 147900, Note_on_c, 13, 48, 62
15, 147900, Note_on_c, 13, 51, 62
15, 147959, Note_on_c, 13, 48, 0
15, 147959, Note_on_c, 13, 51, 0
15, 147960, Note_on_c, 13, 41, 60
15, 147960, Note_on_c, 13, 48, 60
15, 148019, Note_on_c, 13, 41, 0
15, 148019, Note_on_c, 13, 48, 0
15, 148020, Note_on_c, 13, 51, 59
15, 148020, Note_on_c, 13, 48, 59
15, 148079, Note_on_c, 13, 51, 0
15, 148079, Note_on_c, 13, 48, 0
15, 148080, Note_on_c, 13, 48, 58
15, 148080, Note_on_c, 13, 41, 58
15, 148139, Note_on_c, 13, 48, 0
15, 148139, Note_on_c, 13, 41, 0
15, 148140, Note_on_c, 13, 48, 56
15, 148140, Note_on_c, 13, 51, 56
15, 148199, Note_on_c, 13, 48, 0
15, 148199, Note_on_c, 13, 51, 0
15, 148200, Note_on_c, 13, 48, 55
15, 148200, Note_on_c, 13, 41, 55
15, 148259, Note_on_c, 13, 48, 0
15, 148259, Note_on_c, 13, 41, 0
15, 148260, Note_on_c, 13, 48, 54
15, 148260, Note_on_c, 13, 51, 54
15, 148313, Note_on_c, 13, 48, 0
15, 148313, Note_on_c, 13, 51, 0
15, 148320, Note_on_c, 13, 46, 52
15, 148559, Note_on_c, 13, 46, 0
15, 148678, Program_c, 13, 45
15, 148680, Note_on_c, 13, 51, 48
15, 148919, Note_on_c, 13, 51, 0
15, 149040, Note_on_c, 13, 53, 48
15, 149279, Note_on_c, 13, 53, 0
15, 149400, Note_on_c, 13, 53, 48
15, 149639, Note_on_c, 13, 53, 0
15, 149760, Note_on_c, 13, 62, 48
15, 149999, Note_on_c, 13, 62, 0
15, 150120, Note_on_c, 13, 55, 48
15, 150359, Note_on_c, 13, 55, 0
15, 150480, Note_on_c, 13, 48, 48
15, 150719, Note_on_c, 13, 48, 0
15, 150840, Note_on_c, 13, 41, 48
15, 151079, Note_on_c, 13, 41, 0
15, 151198, Program_c, 13, 42
15, 151198, Control_c, 13, 11, 81
15, 151200, Note_on_c, 13, 62, 76
15, 151679, Note_on_c, 13, 62, 0
15, 151680, Note_on_c, 13, 60, 76
15, 151799, Note_on_c, 13, 60, 0
15, 151800, Note_on_c, 13, 62, 76
15, 151889, Note_on_c, 13, 62, 0
15, 151900, Note_on_c, 13, 65, 76
15, 151919, Note_on_c, 13, 65, 0
15, 151920, Note_on_c, 13, 64, 76
15, 152039, Note_on_c, 13, 64, 0
15, 152040, Note_on_c, 13, 62, 76
15, 152159, Note_on_c, 13, 62, 0
15, 152160, Note_on_c, 13, 64, 76
15, 152279, Note_on_c, 13, 64, 0
15, 152280, Note_on_c, 13, 65, 76
15, 152519, Note_on_c, 13, 65, 0
15, 152520, Note_on_c, 13, 60, 76
15, 152629, Note_on_c, 13, 60, 0
15, 152640, Note_on_c, 13, 62, 76
15, 153119, Note_on_c, 13, 62, 0
15, 153120, Note_on_c, 13, 60, 76
15, 153239, Note_on_c, 13, 60, 0
15, 153240, Note_on_c, 13, 62, 76
15, 153329, Note_on_c, 13, 62, 0
15, 153340, Note_on_c, 13, 65, 76
15, 153359, Note_on_c, 13, 65, 0
15, 153360, Note_on_c, 13, 64, 76
15, 153479, Note_on_c, 13, 64, 0
15, 153480, Note_on_c, 13, 62, 76
15, 153599, Note_on_c, 13, 62, 0
15, 153600, Note_on_c, 13, 64, 76
15, 153709, Note_on_c, 13, 64, 0
15, 153720, Control_c, 13, 11, 81
15, 153720, Note_on_c, 13, 65, 76
15, 153840, Control_c, 13, 11, 83
15, 153959, Note_on_c, 13, 65, 0
15, 153960, Note_on_c, 13, 60, 76
15, 153960, Control_c, 13, 11, 85
15, 154079, Note_on_c, 13, 60, 0
15, 154080, Control_c, 13, 11, 87
15, 154080, Note_on_c, 13, 62, 76
15, 154200, Control_c, 13, 11, 89
15, 154319, Note_on_c, 13, 62, 0
15, 154320, Control_c, 13, 11, 91
15, 154320, Note_on_c, 13, 58, 76
15, 154439, Note_on_c, 13, 58, 0
15, 154440, Control_c, 13, 11, 93
15, 154440, Note_on_c, 13, 53, 76
15, 154560, Control_c, 13, 11, 95
15, 154679, Note_on_c, 13, 53, 0
15, 154680, Note_on_c, 13, 57, 76
15, 154680, Control_c, 13, 11, 97
15, 154799, Note_on_c, 13, 57, 0
15, 154800, Control_c, 13, 11, 99
15, 154800, Note_on_c, 13, 58, 76
15, 154920, Control_c, 13, 11, 101
15, 155039, Note_on_c, 13, 58, 0
15, 155040, Control_c, 13, 11, 103
15, 155040, Note_on_c, 13, 62, 76
15, 155159, Note_on_c, 13, 62, 0
15, 155160, Note_on_c, 13, 65, 76
15, 155160, Control_c, 13, 11, 105
15, 155280, Control_c, 13, 11, 106
15, 155399, Note_on_c, 13, 65, 0
15, 155400, Note_on_c, 13, 60, 76
15, 155400, Control_c, 13, 11, 107
15, 155509, Note_on_c, 13, 60, 0
15, 155520, Control_c, 13, 11, 110
15, 155520, Note_on_c, 13, 62, 76
15, 155640, Control_c, 13, 11, 111
15, 155759, Note_on_c, 13, 62, 0
15, 155760, Control_c, 13, 11, 114
15, 155760, Note_on_c, 13, 58, 76
15, 155879, Note_on_c, 13, 58, 0
15, 155880, Note_on_c, 13, 53, 76
15, 155880, Control_c, 13, 11, 115
15, 156000, Control_c, 13, 11, 118
15, 156119, Note_on_c, 13, 53, 0
15, 156120, Control_c, 13, 11, 119
15, 156120, Note_on_c, 13, 57, 76
15, 156239, Note_on_c, 13, 57, 0
15, 156240, Note_on_c, 13, 58, 76
15, 156240, Control_c, 13, 11, 122
15, 156360, Control_c, 13, 11, 123
15, 156479, Note_on_c, 13, 58, 0
15, 156480, Note_on_c, 13, 62, 76
15, 156480, Control_c, 13, 11, 126
15, 156589, Note_on_c, 13, 62, 0
15, 156598, Control_c, 13, 11, 127
15, 156600, Note_on_c, 13, 45, 76
15, 156600, Note_on_c, 13, 41, 76
15, 156659, Note_on_c, 13, 45, 0
15, 156659, Note_on_c, 13, 41, 0
15, 156660, Note_on_c, 13, 45, 76
15, 156660, Note_on_c, 13, 48, 76
15, 156719, Note_on_c, 13, 45, 0
15, 156719, Note_on_c, 13, 48, 0
15, 156720, Note_on_c, 13, 41, 76
15, 156720, Note_on_c, 13, 45, 76
15, 156779, Note_on_c, 13, 41, 0
15, 156779, Note_on_c, 13, 45, 0
15, 156780, Note_on_c, 13, 48, 76
15, 156780, Note_on_c, 13, 45, 76
15, 156839, Note_on_c, 13, 48, 0
15, 156839, Note_on_c, 13, 45, 0
15, 156840, Note_on_c, 13, 45, 76
15, 156840, Note_on_c, 13, 41, 76
15, 156899, Note_on_c, 13, 45, 0
15, 156899, Note_on_c, 13, 41, 0
15, 156900, Note_on_c, 13, 48, 76
15, 156900, Note_on_c, 13, 45, 76
15, 156953, Note_on_c, 13, 48, 0
15, 156953, Note_on_c, 13, 45, 0
15, 156960, Note_on_c, 13, 46, 76
15, 156960, Note_on_c, 13, 41, 76
15, 157019, Note_on_c, 13, 46, 0
15, 157019, Note_on_c, 13, 41, 0
15, 157020, Note_on_c, 13, 46, 76
15, 157020, Note_on_c, 13, 50, 76
15, 157079, Note_on_c, 13, 46, 0
15, 157079, Note_on_c, 13, 50, 0
15, 157080, Note_on_c, 13, 46, 76
15, 157080, Note_on_c, 13, 41, 76
15, 157139, Note_on_c, 13, 46, 0
15, 157139, Note_on_c, 13, 41, 0
15, 157140, Note_on_c, 13, 50, 76
15, 157140, Note_on_c, 13, 46, 76
15, 157199, Note_on_c, 13, 50, 0
15, 157199, Note_on_c, 13, 46, 0
15, 157200, Note_on_c, 13, 46, 76
15, 157200, Note_on_c, 13, 41, 76
15, 157259, Note_on_c, 13, 46, 0
15, 157259, Note_on_c, 13, 41, 0
15, 157260, Note_on_c, 13, 50, 76
15, 157260, Note_on_c, 13, 46, 76
15, 157319, Note_on_c, 13, 50, 0
15, 157319, Note_on_c, 13, 46, 0
15, 157320, Note_on_c, 13, 46, 76
15, 157320, Note_on_c, 13, 41, 76
15, 157379, Note_on_c, 13, 46, 0
15, 157379, Note_on_c, 13, 41, 0
15, 157380, Note_on_c, 13, 46, 76
15, 157380, Note_on_c, 13, 50, 76
15, 157439, Note_on_c, 13, 46, 0
15, 157439, Note_on_c, 13, 50, 0
15, 157440, Note_on_c, 13, 46, 76
15, 157440, Note_on_c, 13, 41, 76
15, 157499, Note_on_c, 13, 46, 0
15, 157499, Note_on_c, 13, 41, 0
15, 157500, Note_on_c, 13, 50, 76
15, 157500, Note_on_c, 13, 46, 76
15, 157559, Note_on_c, 13, 50, 0
15, 157559, Note_on_c, 13, 46, 0
15, 157560, Note_on_c, 13, 46, 76
15, 157560, Note_on_c, 13, 41, 76
15, 157619, Note_on_c, 13, 46, 0
15, 157619, Note_on_c, 13, 41, 0
15, 157620, Note_on_c, 13, 46, 76
15, 157620, Note_on_c, 13, 50, 76
15, 157673, Note_on_c, 13, 46, 0
15, 157673, Note_on_c, 13, 50, 0
15, 157680, Note_on_c, 13, 41, 76
15, 157680, Note_on_c, 13, 46, 76
15, 157739, Note_on_c, 13, 41, 0
15, 157739, Note_on_c, 13, 46, 0
15, 157740, Note_on_c, 13, 46, 76
15, 157740, Note_on_c, 13, 50, 76
15, 157799, Note_on_c, 13, 46, 0
15, 157799, Note_on_c, 13, 50, 0
15, 157800, Note_on_c, 13, 46, 76
15, 157800, Note_on_c, 13, 41, 76
15, 157859, Note_on_c, 13, 46, 0
15, 157859, Note_on_c, 13, 41, 0
15, 157860, Note_on_c, 13, 46, 76
15, 157860, Note_on_c, 13, 50, 76
15, 157919, Note_on_c, 13, 46, 0
15, 157919, Note_on_c, 13, 50, 0
15, 157920, Note_on_c, 13, 41, 76
15, 157920, Note_on_c, 13, 46, 76
15, 157979, Note_on_c, 13, 41, 0
15, 157979, Note_on_c, 13, 46, 0
15, 157980, Note_on_c, 13, 46, 76
15, 157980, Note_on_c, 13, 50, 76
15, 158039, Note_on_c, 13, 46, 0
15, 158039, Note_on_c, 13, 50, 0
15, 158040, Note_on_c, 13, 46, 76
15, 158040, Note_on_c, 13, 41, 76
15, 158099, Note_on_c, 13, 46, 0
15, 158099, Note_on_c, 13, 41, 0
15, 158100, Note_on_c, 13, 50, 76
15, 158100, Note_on_c, 13, 46, 76
15, 158159, Note_on_c, 13, 50, 0
15, 158159, Note_on_c, 13, 46, 0
15, 158160, Note_on_c, 13, 46, 76
15, 158160, Note_on_c, 13, 41, 76
15, 158219, Note_on_c, 13, 46, 0
15, 158219, Note_on_c, 13, 41, 0
15, 158220, Note_on_c, 13, 46, 76
15, 158220, Note_on_c, 13, 50, 76
15, 158279, Note_on_c, 13, 46, 0
15, 158279, Note_on_c, 13, 50, 0
15, 158280, Note_on_c, 13, 41, 76
15, 158280, Note_on_c, 13, 46, 76
15, 158339, Note_on_c, 13, 41, 0
15, 158339, Note_on_c, 13, 46, 0
15, 158340, Note_on_c, 13, 50, 76
15, 158340, Note_on_c, 13, 46, 76
15, 158393, Note_on_c, 13, 50, 0
15, 158393, Note_on_c, 13, 46, 0
15, 158400, Note_on_c, 13, 41, 76
15, 158400, Note_on_c, 13, 46, 76
15, 158519, Note_on_c, 13, 41, 0
15, 158519, Note_on_c, 13, 46, 0
15, 158520, Note_on_c, 13, 50, 74
15, 158520, Note_on_c, 13, 46, 74
15, 158629, Note_on_c, 13, 50, 0
15, 158629, Note_on_c, 13, 46, 0
15, 158640, Note_on_c, 13, 41, 72
15, 158640, Note_on_c, 13, 46, 72
15, 158759, Note_on_c, 13, 41, 0
15, 158759, Note_on_c, 13, 46, 0
15, 158760, Note_on_c, 13, 46, 70
15, 158760, Note_on_c, 13, 50, 70
15, 158869, Note_on_c, 13, 46, 0
15, 158869, Note_on_c, 13, 50, 0
15, 158880, Note_on_c, 13, 41, 68
15, 158880, Note_on_c, 13, 46, 68
15, 158999, Note_on_c, 13, 41, 0
15, 158999, Note_on_c, 13, 46, 0
15, 159000, Note_on_c, 13, 46, 66
15, 159000, Note_on_c, 13, 50, 66
15, 159109, Note_on_c, 13, 46, 0
15, 159109, Note_on_c, 13, 50, 0
15, 159120, Note_on_c, 13, 41, 64
15, 159120, Note_on_c, 13, 46, 64
15, 159239, Note_on_c, 13, 41, 0
15, 159239, Note_on_c, 13, 46, 0
15, 159240, Note_on_c, 13, 50, 62
15, 159240, Note_on_c, 13, 46, 62
15, 159349, Note_on_c, 13, 50, 0
15, 159349, Note_on_c, 13, 46, 0
15, 159360, Note_on_c, 13, 46, 60
15, 159360, Note_on_c, 13, 41, 60
15, 159479, Note_on_c, 13, 46, 0
15, 159479, Note_on_c, 13, 41, 0
15, 159480, Note_on_c, 13, 50, 58
15, 159480, Note_on_c, 13, 46, 58
15, 159589, Note_on_c, 13, 50, 0
15, 159589, Note_on_c, 13, 46, 0
15, 159600, Note_on_c, 13, 46, 56
15, 159600, Note_on_c, 13, 41, 56
15, 159719, Note_on_c, 13, 46, 0
15, 159719, Note_on_c, 13, 41, 0
15, 159720, Note_on_c, 13, 48, 54
15, 159720, Note_on_c, 13, 46, 54
15, 159829, Note_on_c, 13, 48, 0
15, 159829, Note_on_c, 13, 46, 0
15, 159840, Note_on_c, 13, 41, 52
15, 160079, Note_on_c, 13, 41, 0
15, 160440, Control_c, 13, 11, 127
15, 160560, Note_on_c, 13, 53, 52
15, 160620, Control_c, 13, 11, 125
15, 160680, Control_c, 13, 11, 124
15, 160740, Control_c, 13, 11, 123
15, 160799, Note_on_c, 13, 53, 0
15, 160800, Control_c, 13, 11, 121
15, 160860, Control_c, 13, 11, 120
15, 161220, Program_c, 13, 45
15, 161220, Control_c, 13, 11, 127
15, 161280, Note_on_c, 13, 50, 48
15, 161399, Note_on_c, 13, 50, 0
15, 161400, Note_on_c, 13, 62, 48
15, 161519, Note_on_c, 13, 62, 0
15, 161520, Note_on_c, 13, 60, 48
15, 161639, Note_on_c, 13, 60, 0
15, 161640, Note_on_c, 13, 58, 48
15, 161759, Note_on_c, 13, 58, 0
15, 161760, Note_on_c, 13, 55, 48
15, 161879, Note_on_c, 13, 55, 0
15, 161880, Note_on_c, 13, 53, 48
15, 161999, Note_on_c, 13, 53, 0
15, 162000, Note_on_c, 13, 52, 48
15, 162119, Note_on_c, 13, 52, 0
15, 162120, Note_on_c, 13, 48, 48
15, 162239, Note_on_c, 13, 48, 0
15, 162240, Note_on_c, 13, 46, 48
15, 162359, Note_on_c, 13, 46, 0
15, 162360, Note_on_c, 13, 45, 48
15, 162479, Note_on_c, 13, 45, 0
15, 162480, Note_on_c, 13, 41, 48
15, 162599, Note_on_c, 13, 41, 0
15, 162600, Note_on_c, 13, 39, 48
15, 162719, Note_on_c, 13, 39, 0
15, 162720, Note_on_c, 13, 38, 48
15, 162839, Note_on_c, 13, 38, 0
15, 162840, Note_on_c, 13, 62, 48
15, 162959, Note_on_c, 13, 62, 0
15, 162960, Note_on_c, 13, 60, 48
15, 163079, Note_on_c, 13, 60, 0
15, 163080, Note_on_c, 13, 58, 48
15, 163199, Note_on_c, 13, 58, 0
15, 163200, Note_on_c, 13, 55, 48
15, 163319, Note_on_c, 13, 55, 0
15, 163320, Note_on_c, 13, 53, 48
15, 163439, Note_on_c, 13, 53, 0
15, 163440, Note_on_c, 13, 52, 48
15, 163559, Note_on_c, 13, 52, 0
15, 163560, Note_on_c, 13, 48, 48
15, 163679, Note_on_c, 13, 48, 0
15, 163680, Note_on_c, 13, 46, 48
15, 163799, Note_on_c, 13, 46, 0
15, 163800, Note_on_c, 13, 45, 48
15, 163919, Note_on_c, 13, 45, 0
15, 163920, Note_on_c, 13, 41, 49
15, 164039, Note_on_c, 13, 41, 0
15, 164040, Note_on_c, 13, 48, 51
15, 164159, Note_on_c, 13, 48, 0
15, 164160, Note_on_c, 13, 41, 53
15, 164279, Note_on_c, 13, 41, 0
15, 164280, Note_on_c, 13, 46, 54
15, 164399, Note_on_c, 13, 46, 0
15, 164400, Note_on_c, 13, 50, 56
15, 164519, Note_on_c, 13, 50, 0
15, 164520, Note_on_c, 13, 41, 58
15, 164639, Note_on_c, 13, 41, 0
15, 164640, Note_on_c, 13, 48, 59
15, 164759, Note_on_c, 13, 48, 0
15, 164760, Note_on_c, 13, 51, 61
15, 164879, Note_on_c, 13, 51, 0
15, 164880, Note_on_c, 13, 41, 63
15, 164999, Note_on_c, 13, 41, 0
15, 165000, Note_on_c, 13, 46, 64
15, 165119, Note_on_c, 13, 46, 0
15, 165120, Note_on_c, 13, 50, 66
15, 165229, Note_on_c, 13, 50, 0
15, 165238, Program_c, 13, 42
15, 165240, Note_on_c, 13, 45, 76
15, 165240, Note_on_c, 13, 41, 76
15, 165299, Note_on_c, 13, 45, 0
15, 165299, Note_on_c, 13, 41, 0
15, 165300, Note_on_c, 13, 48, 76
15, 165300, Note_on_c, 13, 45, 76
15, 165359, Note_on_c, 13, 48, 0
15, 165359, Note_on_c, 13, 45, 0
15, 165360, Note_on_c, 13, 41, 76
15, 165360, Note_on_c, 13, 45, 76
15, 165419, Note_on_c, 13, 41, 0
15, 165419, Note_on_c, 13, 45, 0
15, 165420, Note_on_c, 13, 45, 76
15, 165420, Note_on_c, 13, 48, 76
15, 165479, Note_on_c, 13, 45, 0
15, 165479, Note_on_c, 13, 48, 0
15, 165480, Note_on_c, 13, 41, 76
15, 165480, Note_on_c, 13, 45, 76
15, 165539, Note_on_c, 13, 41, 0
15, 165539, Note_on_c, 13, 45, 0
15, 165540, Note_on_c, 13, 48, 76
15, 165540, Note_on_c, 13, 45, 76
15, 165593, Note_on_c, 13, 48, 0
15, 165593, Note_on_c, 13, 45, 0
15, 165600, Note_on_c, 13, 46, 76
15, 165600, Note_on_c, 13, 50, 76
15, 165659, Note_on_c, 13, 46, 0
15, 165659, Note_on_c, 13, 50, 0
15, 165660, Note_on_c, 13, 46, 76
15, 165660, Note_on_c, 13, 41, 76
15, 165719, Note_on_c, 13, 46, 0
15, 165719, Note_on_c, 13, 41, 0
15, 165720, Note_on_c, 13, 46, 76
15, 165720, Note_on_c, 13, 50, 76
15, 165779, Note_on_c, 13, 46, 0
15, 165779, Note_on_c, 13, 50, 0
15, 165780, Note_on_c, 13, 41, 76
15, 165780, Note_on_c, 13, 46, 76
15, 165839, Note_on_c, 13, 41, 0
15, 165839, Note_on_c, 13, 46, 0
15, 165840, Note_on_c, 13, 50, 76
15, 165840, Note_on_c, 13, 46, 76
15, 165899, Note_on_c, 13, 50, 0
15, 165899, Note_on_c, 13, 46, 0
15, 165900, Note_on_c, 13, 41, 76
15, 165900, Note_on_c, 13, 46, 76
15, 165959, Note_on_c, 13, 41, 0
15, 165959, Note_on_c, 13, 46, 0
15, 165960, Note_on_c, 13, 46, 76
15, 165960, Note_on_c, 13, 50, 76
15, 166019, Note_on_c, 13, 46, 0
15, 166019, Note_on_c, 13, 50, 0
15, 166020, Note_on_c, 13, 41, 76
15, 166020, Note_on_c, 13, 46, 76
15, 166079, Note_on_c, 13, 41, 0
15, 166079, Note_on_c, 13, 46, 0
15, 166080, Note_on_c, 13, 50, 76
15, 166080, Note_on_c, 13, 46, 76
15, 166139, Note_on_c, 13, 50, 0
15, 166139, Note_on_c, 13, 46, 0
15, 166140, Note_on_c, 13, 41, 76
15, 166140, Note_on_c, 13, 46, 76
15, 166199, Note_on_c, 13, 41, 0
15, 166199, Note_on_c, 13, 46, 0
15, 166200, Note_on_c, 13, 50, 76
15, 166200, Note_on_c, 13, 46, 76
15, 166259, Note_on_c, 13, 50, 0
15, 166259, Note_on_c, 13, 46, 0
15, 166260, Note_on_c, 13, 46, 76
15, 166260, Note_on_c, 13, 41, 76
15, 166313, Note_on_c, 13, 46, 0
15, 166313, Note_on_c, 13, 41, 0
15, 166320, Note_on_c, 13, 50, 76
15, 166320, Note_on_c, 13, 46, 76
15, 166379, Note_on_c, 13, 50, 0
15, 166379, Note_on_c, 13, 46, 0
15, 166380, Note_on_c, 13, 41, 76
15, 166380, Note_on_c, 13, 46, 76
15, 166439, Note_on_c, 13, 41, 0
15, 166439, Note_on_c, 13, 46, 0
15, 166440, Note_on_c, 13, 50, 76
15, 166440, Note_on_c, 13, 46, 76
15, 166499, Note_on_c, 13, 50, 0
15, 166499, Note_on_c, 13, 46, 0
15, 166500, Note_on_c, 13, 41, 76
15, 166500, Note_on_c, 13, 46, 76
15, 166559, Note_on_c, 13, 41, 0
15, 166559, Note_on_c, 13, 46, 0
15, 166560, Note_on_c, 13, 50, 76
15, 166560, Note_on_c, 13, 46, 76
15, 166619, Note_on_c, 13, 50, 0
15, 166619, Note_on_c, 13, 46, 0
15, 166620, Note_on_c, 13, 41, 76
15, 166620, Note_on_c, 13, 46, 76
15, 166679, Note_on_c, 13, 41, 0
15, 166679, Note_on_c, 13, 46, 0
15, 166680, Note_on_c, 13, 46, 76
15, 166680, Note_on_c, 13, 50, 76
15, 166739, Note_on_c, 13, 46, 0
15, 166739, Note_on_c, 13, 50, 0
15, 166740, Note_on_c, 13, 41, 76
15, 166740, Note_on_c, 13, 46, 76
15, 166799, Note_on_c, 13, 41, 0
15, 166799, Note_on_c, 13, 46, 0
15, 166800, Note_on_c, 13, 46, 76
15, 166800, Note_on_c, 13, 50, 76
15, 166859, Note_on_c, 13, 46, 0
15, 166859, Note_on_c, 13, 50, 0
15, 166860, Note_on_c, 13, 41, 76
15, 166860, Note_on_c, 13, 46, 76
15, 166919, Note_on_c, 13, 41, 0
15, 166919, Note_on_c, 13, 46, 0
15, 166920, Note_on_c, 13, 50, 76
15, 166920, Note_on_c, 13, 46, 76
15, 166979, Note_on_c, 13, 50, 0
15, 166979, Note_on_c, 13, 46, 0
15, 166980, Note_on_c, 13, 41, 76
15, 166980, Note_on_c, 13, 46, 76
15, 167033, Note_on_c, 13, 41, 0
15, 167033, Note_on_c, 13, 46, 0
15, 167040, Note_on_c, 13, 46, 84
15, 167040, Note_on_c, 13, 50, 84
15, 167099, Note_on_c, 13, 46, 0
15, 167099, Note_on_c, 13, 50, 0
15, 167100, Note_on_c, 13, 46, 76
15, 167100, Note_on_c, 13, 41, 76
15, 167159, Note_on_c, 13, 46, 0
15, 167159, Note_on_c, 13, 41, 0
15, 167160, Note_on_c, 13, 50, 72
15, 167160, Note_on_c, 13, 46, 72
15, 167219, Note_on_c, 13, 50, 0
15, 167219, Note_on_c, 13, 46, 0
15, 167220, Note_on_c, 13, 46, 67
15, 167220, Note_on_c, 13, 41, 67
15, 167279, Note_on_c, 13, 46, 0
15, 167279, Note_on_c, 13, 41, 0
15, 167280, Note_on_c, 13, 46, 62
15, 167280, Note_on_c, 13, 50, 62
15, 167339, Note_on_c, 13, 46, 0
15, 167339, Note_on_c, 13, 50, 0
15, 167340, Note_on_c, 13, 41, 57
15, 167340, Note_on_c, 13, 46, 57
15, 167393, Note_on_c, 13, 41, 0
15, 167393, Note_on_c, 13, 46, 0
15, 167400, Note_on_c, 13, 41, 52
15, 167400, Note_on_c, 13, 53, 52
15, 167519, Note_on_c, 13, 41, 0
15, 167519, Note_on_c, 13, 53, 0
15, 169560, Program_c, 13, 45
15, 169680, Note_on_c, 13, 46, 48
15, 169799, Note_on_c, 13, 46, 0
15, 169800, Note_on_c, 13, 39, 48
15, 169919, Note_on_c, 13, 39, 0
15, 169920, Note_on_c, 13, 41, 48
15, 170159, Note_on_c, 13, 41, 0
15, 170280, Control_c, 13, 11, 81
15, 170280, Program_c, 13, 42
15, 170520, Note_on_c, 13, 58, 76
15, 170609, Note_on_c, 13, 58, 0
15, 170620, Note_on_c, 13, 58, 76
15, 170639, Note_on_c, 13, 58, 0
15, 170640, Note_on_c, 13, 57, 76
15, 170759, Note_on_c, 13, 57, 0
15, 170760, Note_on_c, 13, 55, 76
15, 170879, Note_on_c, 13, 55, 0
15, 170880, Note_on_c, 13, 53, 76
15, 170880, Control_c, 13, 11, 85
15, 170989, Note_on_c, 13, 53, 0
15, 171000, Note_on_c, 13, 53, 76
15, 171119, Note_on_c, 13, 53, 0
15, 171120, Note_on_c, 13, 55, 76
15, 171120, Control_c, 13, 11, 89
15, 171239, Note_on_c, 13, 55, 0
15, 171240, Note_on_c, 13, 57, 76
15, 171349, Note_on_c, 13, 57, 0
15, 171360, Note_on_c, 13, 58, 76
15, 171360, Control_c, 13, 11, 93
15, 171600, Control_c, 13, 11, 97
15, 171839, Note_on_c, 13, 58, 0
15, 171840, Control_c, 13, 11, 101
15, 171840, Note_on_c, 13, 60, 76
15, 171959, Note_on_c, 13, 60, 0
15, 171960, Note_on_c, 13, 62, 76
15, 172049, Note_on_c, 13, 62, 0
15, 172060, Note_on_c, 13, 65, 76
15, 172079, Note_on_c, 13, 65, 0
15, 172080, Note_on_c, 13, 63, 76
15, 172080, Control_c, 13, 11, 105
15, 172319, Note_on_c, 13, 63, 0
15, 172320, Note_on_c, 13, 62, 76
15, 172320, Control_c, 13, 11, 107
15, 172439, Note_on_c, 13, 62, 0
15, 172440, Note_on_c, 13, 60, 76
15, 172560, Control_c, 13, 11, 111
15, 172679, Note_on_c, 13, 60, 0
15, 172680, Note_on_c, 13, 65, 76
15, 172789, Note_on_c, 13, 65, 0
15, 172800, Control_c, 13, 11, 115
15, 172800, Note_on_c, 13, 62, 76
15, 173040, Control_c, 13, 11, 119
15, 173279, Note_on_c, 13, 62, 0
15, 173280, Control_c, 13, 11, 123
15, 173280, Note_on_c, 13, 60, 76
15, 173399, Note_on_c, 13, 60, 0
15, 173400, Note_on_c, 13, 58, 76
15, 173509, Note_on_c, 13, 58, 0
15, 173520, Control_c, 13, 11, 127
15, 173520, Note_on_c, 13, 53, 84
15, 173749, Note_on_c, 13, 53, 0
15, 173760, Note_on_c, 13, 53, 76
15, 173879, Note_on_c, 13, 53, 0
15, 173880, Note_on_c, 13, 51, 76
15, 173999, Note_on_c, 13, 51, 0
15, 174000, Note_on_c, 13, 50, 68
15, 174119, Note_on_c, 13, 50, 0
15, 174120, Note_on_c, 13, 48, 60
15, 174229, Note_on_c, 13, 48, 0
15, 174240, Note_on_c, 13, 46, 52
15, 174299, Note_on_c, 13, 46, 0
15, 174300, Note_on_c, 13, 53, 52
15, 174359, Note_on_c, 13, 53, 0
15, 174360, Note_on_c, 13, 50, 52
15, 174419, Note_on_c, 13, 50, 0
15, 174420, Note_on_c, 13, 53, 52
15, 174479, Note_on_c, 13, 53, 0
15, 174480, Note_on_c, 13, 50, 52
15, 174539, Note_on_c, 13, 50, 0
15, 174540, Note_on_c, 13, 53, 52
15, 174599, Note_on_c, 13, 53, 0
15, 174600, Note_on_c, 13, 51, 52
15, 174659, Note_on_c, 13, 51, 0
15, 174660, Note_on_c, 13, 55, 52
15, 174719, Note_on_c, 13, 55, 0
15, 174720, Note_on_c, 13, 50, 52
15, 174779, Note_on_c, 13, 50, 0
15, 174780, Note_on_c, 13, 53, 52
15, 174839, Note_on_c, 13, 53, 0
15, 174840, Note_on_c, 13, 50, 52
15, 174899, Note_on_c, 13, 50, 0
15, 174900, Note_on_c, 13, 53, 52
15, 174959, Note_on_c, 13, 53, 0
15, 174960, Note_on_c, 13, 48, 52
15, 175019, Note_on_c, 13, 48, 0
15, 175020, Note_on_c, 13, 51, 52
15, 175079, Note_on_c, 13, 51, 0
15, 175080, Note_on_c, 13, 46, 52
15, 175139, Note_on_c, 13, 46, 0
15, 175140, Note_on_c, 13, 50, 52
15, 175199, Note_on_c, 13, 50, 0
15, 175200, Note_on_c, 13, 46, 52
15, 175259, Note_on_c, 13, 46, 0
15, 175260, Note_on_c, 13, 50, 52
15, 175319, Note_on_c, 13, 50, 0
15, 175320, Note_on_c, 13, 48, 52
15, 175379, Note_on_c, 13, 48, 0
15, 175380, Note_on_c, 13, 51, 51
15, 175439, Note_on_c, 13, 51, 0
15, 175440, Note_on_c, 13, 41, 50
15, 175499, Note_on_c, 13, 41, 0
15, 175500, Note_on_c, 13, 48, 48
15, 175559, Note_on_c, 13, 48, 0
15, 175560, Note_on_c, 13, 41, 47
15, 175619, Note_on_c, 13, 41, 0
15, 175620, Note_on_c, 13, 48, 46
15, 175673, Note_on_c, 13, 48, 0
15, 175680, Note_on_c, 13, 46, 52
15, 175739, Note_on_c, 13, 46, 0
15, 175740, Note_on_c, 13, 50, 52
15, 175799, Note_on_c, 13, 50, 0
15, 175800, Note_on_c, 13, 50, 52
15, 175859, Note_on_c, 13, 50, 0
15, 175860, Note_on_c, 13, 53, 52
15, 175919, Note_on_c, 13, 53, 0
15, 175920, Note_on_c, 13, 50, 52
15, 175979, Note_on_c, 13, 50, 0
15, 175980, Note_on_c, 13, 53, 52
15, 176039, Note_on_c, 13, 53, 0
15, 176040, Note_on_c, 13, 51, 52
15, 176099, Note_on_c, 13, 51, 0
15, 176100, Note_on_c, 13, 55, 52
15, 176159, Note_on_c, 13, 55, 0
15, 176160, Note_on_c, 13, 50, 52
15, 176219, Note_on_c, 13, 50, 0
15, 176220, Note_on_c, 13, 53, 52
15, 176279, Note_on_c, 13, 53, 0
15, 176280, Note_on_c, 13, 50, 52
15, 176339, Note_on_c, 13, 50, 0
15, 176340, Note_on_c, 13, 53, 52
15, 176399, Note_on_c, 13, 53, 0
15, 176400, Note_on_c, 13, 48, 52
15, 176459, Note_on_c, 13, 48, 0
15, 176460, Note_on_c, 13, 51, 52
15, 176519, Note_on_c, 13, 51, 0
15, 176520, Note_on_c, 13, 46, 52
15, 176579, Note_on_c, 13, 46, 0
15, 176580, Note_on_c, 13, 50, 52
15, 176639, Note_on_c, 13, 50, 0
15, 176640, Note_on_c, 13, 46, 52
15, 176699, Note_on_c, 13, 46, 0
15, 176700, Note_on_c, 13, 50, 52
15, 176759, Note_on_c, 13, 50, 0
15, 176760, Note_on_c, 13, 48, 52
15, 176819, Note_on_c, 13, 48, 0
15, 176820, Note_on_c, 13, 51, 51
15, 176879, Note_on_c, 13, 51, 0
15, 176880, Note_on_c, 13, 41, 50
15, 176939, Note_on_c, 13, 41, 0
15, 176940, Note_on_c, 13, 48, 48
15, 176999, Note_on_c, 13, 48, 0
15, 177000, Note_on_c, 13, 41, 47
15, 177059, Note_on_c, 13, 41, 0
15, 177060, Note_on_c, 13, 48, 46
15, 177113, Note_on_c, 13, 48, 0
15, 177120, Note_on_c, 13, 46, 44
15, 177179, Note_on_c, 13, 46, 0
15, 177180, Note_on_c, 13, 50, 44
15, 177239, Note_on_c, 13, 50, 0
15, 177240, Note_on_c, 13, 46, 44
15, 177299, Note_on_c, 13, 46, 0
15, 177300, Note_on_c, 13, 50, 44
15, 177359, Note_on_c, 13, 50, 0
15, 177360, Note_on_c, 13, 46, 44
15, 177419, Note_on_c, 13, 46, 0
15, 177420, Note_on_c, 13, 50, 44
15, 177479, Note_on_c, 13, 50, 0
15, 177480, Note_on_c, 13, 48, 44
15, 177539, Note_on_c, 13, 48, 0
15, 177540, Note_on_c, 13, 51, 44
15, 177599, Note_on_c, 13, 51, 0
15, 177600, Note_on_c, 13, 48, 44
15, 177659, Note_on_c, 13, 48, 0
15, 177660, Note_on_c, 13, 51, 44
15, 177719, Note_on_c, 13, 51, 0
15, 177720, Note_on_c, 13, 46, 44
15, 177779, Note_on_c, 13, 46, 0
15, 177780, Note_on_c, 13, 50, 44
15, 177839, Note_on_c, 13, 50, 0
15, 177840, Note_on_c, 13, 45, 44
15, 177899, Note_on_c, 13, 45, 0
15, 177900, Note_on_c, 13, 48, 44
15, 177959, Note_on_c, 13, 48, 0
15, 177960, Note_on_c, 13, 48, 44
15, 178019, Note_on_c, 13, 48, 0
15, 178020, Note_on_c, 13, 51, 44
15, 178079, Note_on_c, 13, 51, 0
15, 178080, Note_on_c, 13, 48, 44
15, 178139, Note_on_c, 13, 48, 0
15, 178140, Note_on_c, 13, 51, 44
15, 178199, Note_on_c, 13, 51, 0
15, 178200, Note_on_c, 13, 50, 44
15, 178259, Note_on_c, 13, 50, 0
15, 178260, Note_on_c, 13, 53, 44
15, 178319, Note_on_c, 13, 53, 0
15, 178320, Note_on_c, 13, 50, 44
15, 178379, Note_on_c, 13, 50, 0
15, 178380, Note_on_c, 13, 53, 44
15, 178439, Note_on_c, 13, 53, 0
15, 178440, Note_on_c, 13, 48, 44
15, 178499, Note_on_c, 13, 48, 0
15, 178500, Note_on_c, 13, 51, 44
15, 178553, Note_on_c, 13, 51, 0
15, 178560, Note_on_c, 13, 46, 44
15, 178619, Note_on_c, 13, 46, 0
15, 178620, Note_on_c, 13, 50, 45
15, 178679, Note_on_c, 13, 50, 0
15, 178680, Note_on_c, 13, 50, 46
15, 178739, Note_on_c, 13, 50, 0
15, 178740, Note_on_c, 13, 53, 47
15, 178799, Note_on_c, 13, 53, 0
15, 178800, Note_on_c, 13, 50, 48
15, 178859, Note_on_c, 13, 50, 0
15, 178860, Note_on_c, 13, 53, 49
15, 178919, Note_on_c, 13, 53, 0
15, 178920, Note_on_c, 13, 51, 50
15, 178979, Note_on_c, 13, 51, 0
15, 178980, Note_on_c, 13, 55, 51
15, 179039, Note_on_c, 13, 55, 0
15, 179040, Note_on_c, 13, 51, 52
15, 179099, Note_on_c, 13, 51, 0
15, 179100, Note_on_c, 13, 55, 53
15, 179159, Note_on_c, 13, 55, 0
15, 179160, Note_on_c, 13, 50, 54
15, 179219, Note_on_c, 13, 50, 0
15, 179220, Note_on_c, 13, 53, 55
15, 179279, Note_on_c, 13, 53, 0
15, 179280, Note_on_c, 13, 53, 56
15, 179339, Note_on_c, 13, 53, 0
15, 179340, Note_on_c, 13, 56, 57
15, 179399, Note_on_c, 13, 56, 0
15, 179400, Note_on_c, 13, 53, 58
15, 179459, Note_on_c, 13, 53, 0
15, 179460, Note_on_c, 13, 56, 59
15, 179519, Note_on_c, 13, 56, 0
15, 179520, Note_on_c, 13, 51, 60
15, 179579, Note_on_c, 13, 51, 0
15, 179580, Note_on_c, 13, 55, 61
15, 179639, Note_on_c, 13, 55, 0
15, 179640, Note_on_c, 13, 55, 62
15, 179699, Note_on_c, 13, 55, 0
15, 179700, Note_on_c, 13, 58, 63
15, 179759, Note_on_c, 13, 58, 0
15, 179760, Note_on_c, 13, 55, 64
15, 179819, Note_on_c, 13, 55, 0
15, 179820, Note_on_c, 13, 58, 65
15, 179879, Note_on_c, 13, 58, 0
15, 179880, Note_on_c, 13, 53, 66
15, 179939, Note_on_c, 13, 53, 0
15, 179940, Note_on_c, 13, 56, 67
15, 179993, Note_on_c, 13, 56, 0
15, 180000, Note_on_c, 13, 56, 68
15, 180059, Note_on_c, 13, 56, 0
15, 180060, Note_on_c, 13, 60, 67
15, 180119, Note_on_c, 13, 60, 0
15, 180120, Note_on_c, 13, 56, 66
15, 180179, Note_on_c, 13, 56, 0
15, 180180, Note_on_c, 13, 60, 65
15, 180239, Note_on_c, 13, 60, 0
15, 180240, Note_on_c, 13, 55, 64
15, 180299, Note_on_c, 13, 55, 0
15, 180300, Note_on_c, 13, 58, 63
15, 180359, Note_on_c, 13, 58, 0
15, 180360, Note_on_c, 13, 53, 62
15, 180419, Note_on_c, 13, 53, 0
15, 180420, Note_on_c, 13, 56, 61
15, 180479, Note_on_c, 13, 56, 0
15, 180480, Note_on_c, 13, 53, 60
15, 180539, Note_on_c, 13, 53, 0
15, 180540, Note_on_c, 13, 56, 59
15, 180599, Note_on_c, 13, 56, 0
15, 180600, Note_on_c, 13, 51, 58
15, 180659, Note_on_c, 13, 51, 0
15, 180660, Note_on_c, 13, 55, 57
15, 180719, Note_on_c, 13, 55, 0
15, 180720, Note_on_c, 13, 50, 56
15, 180779, Note_on_c, 13, 50, 0
15, 180780, Note_on_c, 13, 53, 55
15, 180839, Note_on_c, 13, 53, 0
15, 180840, Note_on_c, 13, 50, 54
15, 180899, Note_on_c, 13, 50, 0
15, 180900, Note_on_c, 13, 53, 53
15, 180959, Note_on_c, 13, 53, 0
15, 180960, Note_on_c, 13, 51, 52
15, 181019, Note_on_c, 13, 51, 0
15, 181020, Note_on_c, 13, 55, 51
15, 181079, Note_on_c, 13, 55, 0
15, 181080, Note_on_c, 13, 53, 50
15, 181139, Note_on_c, 13, 53, 0
15, 181140, Note_on_c, 13, 56, 49
15, 181199, Note_on_c, 13, 56, 0
15, 181200, Note_on_c, 13, 53, 48
15, 181259, Note_on_c, 13, 53, 0
15, 181260, Note_on_c, 13, 56, 47
15, 181319, Note_on_c, 13, 56, 0
15, 181320, Note_on_c, 13, 51, 46
15, 181379, Note_on_c, 13, 51, 0
15, 181380, Note_on_c, 13, 55, 45
15, 181433, Note_on_c, 13, 55, 0
15, 181440, Note_on_c, 13, 50, 44
15, 181499, Note_on_c, 13, 50, 0
15, 181500, Note_on_c, 13, 53, 45
15, 181559, Note_on_c, 13, 53, 0
15, 181560, Note_on_c, 13, 50, 46
15, 181619, Note_on_c, 13, 50, 0
15, 181620, Note_on_c, 13, 53, 47
15, 181679, Note_on_c, 13, 53, 0
15, 181680, Note_on_c, 13, 50, 48
15, 181739, Note_on_c, 13, 50, 0
15, 181740, Note_on_c, 13, 53, 49
15, 181799, Note_on_c, 13, 53, 0
15, 181800, Note_on_c, 13, 51, 50
15, 181859, Note_on_c, 13, 51, 0
15, 181860, Note_on_c, 13, 55, 51
15, 181919, Note_on_c, 13, 55, 0
15, 181920, Note_on_c, 13, 51, 52
15, 181979, Note_on_c, 13, 51, 0
15, 181980, Note_on_c, 13, 55, 53
15, 182039, Note_on_c, 13, 55, 0
15, 182040, Note_on_c, 13, 50, 54
15, 182099, Note_on_c, 13, 50, 0
15, 182100, Note_on_c, 13, 53, 55
15, 182159, Note_on_c, 13, 53, 0
15, 182160, Note_on_c, 13, 53, 56
15, 182219, Note_on_c, 13, 53, 0
15, 182220, Note_on_c, 13, 56, 57
15, 182279, Note_on_c, 13, 56, 0
15, 182280, Note_on_c, 13, 53, 58
15, 182339, Note_on_c, 13, 53, 0
15, 182340, Note_on_c, 13, 56, 59
15, 182399, Note_on_c, 13, 56, 0
15, 182400, Note_on_c, 13, 51, 60
15, 182459, Note_on_c, 13, 51, 0
15, 182460, Note_on_c, 13, 55, 61
15, 182519, Note_on_c, 13, 55, 0
15, 182520, Note_on_c, 13, 55, 62
15, 182579, Note_on_c, 13, 55, 0
15, 182580, Note_on_c, 13, 58, 63
15, 182639, Note_on_c, 13, 58, 0
15, 182640, Note_on_c, 13, 55, 64
15, 182699, Note_on_c, 13, 55, 0
15, 182700, Note_on_c, 13, 58, 65
15, 182759, Note_on_c, 13, 58, 0
15, 182760, Note_on_c, 13, 53, 66
15, 182819, Note_on_c, 13, 53, 0
15, 182820, Note_on_c, 13, 56, 67
15, 182873, Note_on_c, 13, 56, 0
15, 182880, Note_on_c, 13, 56, 68
15, 182939, Note_on_c, 13, 56, 0
15, 182940, Note_on_c, 13, 60, 67
15, 182999, Note_on_c, 13, 60, 0
15, 183000, Note_on_c, 13, 56, 66
15, 183059, Note_on_c, 13, 56, 0
15, 183060, Note_on_c, 13, 60, 65
15, 183119, Note_on_c, 13, 60, 0
15, 183120, Note_on_c, 13, 55, 64
15, 183179, Note_on_c, 13, 55, 0
15, 183180, Note_on_c, 13, 58, 63
15, 183239, Note_on_c, 13, 58, 0
15, 183240, Note_on_c, 13, 53, 62
15, 183299, Note_on_c, 13, 53, 0
15, 183300, Note_on_c, 13, 56, 61
15, 183359, Note_on_c, 13, 56, 0
15, 183360, Note_on_c, 13, 53, 60
15, 183419, Note_on_c, 13, 53, 0
15, 183420, Note_on_c, 13, 56, 59
15, 183479, Note_on_c, 13, 56, 0
15, 183480, Note_on_c, 13, 51, 58
15, 183539, Note_on_c, 13, 51, 0
15, 183540, Note_on_c, 13, 55, 57
15, 183599, Note_on_c, 13, 55, 0
15, 183600, Note_on_c, 13, 50, 56
15, 183659, Note_on_c, 13, 50, 0
15, 183660, Note_on_c, 13, 53, 55
15, 183719, Note_on_c, 13, 53, 0
15, 183720, Note_on_c, 13, 50, 54
15, 183779, Note_on_c, 13, 50, 0
15, 183780, Note_on_c, 13, 53, 53
15, 183839, Note_on_c, 13, 53, 0
15, 183840, Note_on_c, 13, 51, 52
15, 183899, Note_on_c, 13, 51, 0
15, 183900, Note_on_c, 13, 55, 51
15, 183959, Note_on_c, 13, 55, 0
15, 183960, Note_on_c, 13, 53, 50
15, 184019, Note_on_c, 13, 53, 0
15, 184020, Note_on_c, 13, 56, 49
15, 184079, Note_on_c, 13, 56, 0
15, 184080, Note_on_c, 13, 53, 48
15, 184139, Note_on_c, 13, 53, 0
15, 184140, Note_on_c, 13, 56, 47
15, 184199, Note_on_c, 13, 56, 0
15, 184200, Note_on_c, 13, 51, 46
15, 184259, Note_on_c, 13, 51, 0
15, 184260, Note_on_c, 13, 55, 45
15, 184313, Note_on_c, 13, 55, 0
15, 184320, Note_on_c, 13, 46, 44
15, 184559, Note_on_c, 13, 46, 0
15, 189360, Note_on_c, 13, 41, 52
15, 190069, Note_on_c, 13, 41, 0
15, 190080, Note_on_c, 13, 46, 52
15, 190319, Note_on_c, 13, 46, 0
15, 195120, Note_on_c, 13, 41, 44
15, 195829, Note_on_c, 13, 41, 0
15, 195840, Note_on_c, 13, 43, 44
15, 196199, Note_on_c, 13, 43, 0
15, 196560, Note_on_c, 13, 51, 44
15, 196919, Note_on_c, 13, 51, 0
15, 197160, Control_c, 13, 11, 65
15, 197280, Note_on_c, 13, 53, 76
15, 197340, Control_c, 13, 11, 70
15, 197400, Control_c, 13, 11, 75
15, 197460, Control_c, 13, 11, 81
15, 197520, Control_c, 13, 11, 86
15, 197580, Control_c, 13, 11, 91
15, 197640, Control_c, 13, 11, 97
15, 197700, Control_c, 13, 11, 102
15, 197760, Control_c, 13, 11, 107
15, 197820, Control_c, 13, 11, 111
15, 197880, Control_c, 13, 11, 118
15, 197940, Control_c, 13, 11, 123
15, 197989, Note_on_c, 13, 53, 0
15, 197998, Control_c, 13, 11, 127
15, 198000, Note_on_c, 13, 46, 84
15, 198239, Note_on_c, 13, 46, 0
15, 198360, Program_c, 13, 45
15, 198720, Note_on_c, 13, 46, 44
15, 198959, Note_on_c, 13, 46, 0
15, 199080, Note_on_c, 13, 46, 44
15, 199319, Note_on_c, 13, 46, 0
15, 199440, Note_on_c, 13, 46, 44
15, 199679, Note_on_c, 13, 46, 0
15, 200160, Program_c, 13, 42
15, 200160, End_track
16, 0, Start_track
16, 0, Title_t, "Tutti Celli"
16, 0, MIDI_port, 0
16, 0, Control_c, 14, 7, 96
16, 0, Control_c, 14, 10, 90
16, 0, Program_c, 14, 45
16, 0, Control_c, 14, 11, 127
16, 0, Note_on_c, 14, 46, 48
16, 239, Note_on_c, 14, 46, 0
16, 1440, Note_on_c, 14, 46, 48
16, 1679, Note_on_c, 14, 46, 0
16, 2880, Note_on_c, 14, 41, 48
16, 3119, Note_on_c, 14, 41, 0
16, 4320, Note_on_c, 14, 41, 48
16, 4559, Note_on_c, 14, 41, 0
16, 5520, Note_on_c, 14, 53, 48
16, 5639, Note_on_c, 14, 53, 0
16, 5640, Note_on_c, 14, 51, 48
16, 5759, Note_on_c, 14, 51, 0
16, 5760, Note_on_c, 14, 50, 48
16, 5999, Note_on_c, 14, 50, 0
16, 6480, Note_on_c, 14, 39, 58
16, 6719, Note_on_c, 14, 39, 0
16, 7200, Note_on_c, 14, 41, 68
16, 7260, Control_c, 14, 11, 81
16, 7439, Note_on_c, 14, 41, 0
16, 7920, Note_on_c, 14, 41, 78
16, 8159, Note_on_c, 14, 41, 0
16, 8280, Note_on_c, 14, 41, 78
16, 8519, Note_on_c, 14, 41, 0
16, 8638, Control_c, 14, 11, 127
16, 8640, Note_on_c, 14, 46, 48
16, 8879, Note_on_c, 14, 46, 0
16, 10080, Note_on_c, 14, 46, 48
16, 10319, Note_on_c, 14, 46, 0
16, 11520, Note_on_c, 14, 41, 48
16, 11759, Note_on_c, 14, 41, 0
16, 12960, Note_on_c, 14, 41, 48
16, 13199, Note_on_c, 14, 41, 0
16, 14160, Note_on_c, 14, 53, 48
16, 14279, Note_on_c, 14, 53, 0
16, 14280, Note_on_c, 14, 51, 48
16, 14399, Note_on_c, 14, 51, 0
16, 14400, Note_on_c, 14, 50, 48
16, 14639, Note_on_c, 14, 50, 0
16, 15120, Note_on_c, 14, 51, 58
16, 15359, Note_on_c, 14, 51, 0
16, 15840, Note_on_c, 14, 53, 68
16, 15900, Control_c, 14, 11, 81
16, 16079, Note_on_c, 14, 53, 0
16, 16560, Note_on_c, 14, 41, 78
16, 16799, Note_on_c, 14, 41, 0
16, 16920, Note_on_c, 14, 41, 78
16, 17159, Note_on_c, 14, 41, 0
16, 17250, Control_c, 14, 11, 127
16, 17280, Note_on_c, 14, 46, 48
16, 17519, Note_on_c, 14, 46, 0
16, 20160, Note_on_c, 14, 46, 48
16, 20399, Note_on_c, 14, 46, 0
16, 21600, Note_on_c, 14, 46, 48
16, 21839, Note_on_c, 14, 46, 0
16, 23040, Note_on_c, 14, 46, 48
16, 23279, Note_on_c, 14, 46, 0
16, 23760, Note_on_c, 14, 46, 48
16, 23999, Note_on_c, 14, 46, 0
16, 24480, Note_on_c, 14, 46, 48
16, 24719, Note_on_c, 14, 46, 0
16, 24840, Note_on_c, 14, 46, 48
16, 25079, Note_on_c, 14, 46, 0
16, 25200, Note_on_c, 14, 46, 48
16, 25439, Note_on_c, 14, 46, 0
16, 28800, Note_on_c, 14, 46, 48
16, 29039, Note_on_c, 14, 46, 0
16, 30240, Note_on_c, 14, 46, 48
16, 30479, Note_on_c, 14, 46, 0
16, 31680, Note_on_c, 14, 48, 48
16, 31919, Note_on_c, 14, 48, 0
16, 33120, Note_on_c, 14, 48, 48
16, 33359, Note_on_c, 14, 48, 0
16, 34560, Note_on_c, 14, 41, 48
16, 34799, Note_on_c, 14, 41, 0
16, 36000, Note_on_c, 14, 43, 48
16, 36239, Note_on_c, 14, 43, 0
16, 37440, Note_on_c, 14, 48, 48
16, 37679, Note_on_c, 14, 48, 0
16, 38160, Note_on_c, 14, 48, 48
16, 38399, Note_on_c, 14, 48, 0
16, 38880, Note_on_c, 14, 48, 48
16, 39119, Note_on_c, 14, 48, 0
16, 39600, Note_on_c, 14, 48, 48
16, 39839, Note_on_c, 14, 48, 0
16, 40320, Note_on_c, 14, 48, 48
16, 40559, Note_on_c, 14, 48, 0
16, 40680, Note_on_c, 14, 48, 58
16, 40919, Note_on_c, 14, 48, 0
16, 41040, Note_on_c, 14, 48, 68
16, 41279, Note_on_c, 14, 48, 0
16, 41400, Note_on_c, 14, 48, 58
16, 41639, Note_on_c, 14, 48, 0
16, 41760, Note_on_c, 14, 53, 48
16, 41999, Note_on_c, 14, 53, 0
16, 42120, Note_on_c, 14, 46, 48
16, 42359, Note_on_c, 14, 46, 0
16, 42480, Note_on_c, 14, 48, 48
16, 42719, Note_on_c, 14, 48, 0
16, 42840, Note_on_c, 14, 48, 48
16, 43079, Note_on_c, 14, 48, 0
16, 43200, Note_on_c, 14, 48, 48
16, 43439, Note_on_c, 14, 48, 0
16, 43560, Note_on_c, 14, 48, 58
16, 43799, Note_on_c, 14, 48, 0
16, 43920, Note_on_c, 14, 48, 68
16, 44159, Note_on_c, 14, 48, 0
16, 44280, Note_on_c, 14, 48, 58
16, 44519, Note_on_c, 14, 48, 0
16, 44640, Note_on_c, 14, 53, 48
16, 44879, Note_on_c, 14, 53, 0
16, 45000, Note_on_c, 14, 46, 48
16, 45239, Note_on_c, 14, 46, 0
16, 45360, Note_on_c, 14, 48, 48
16, 45599, Note_on_c, 14, 48, 0
16, 45720, Note_on_c, 14, 48, 48
16, 45959, Note_on_c, 14, 48, 0
16, 46080, Note_on_c, 14, 57, 48
16, 46319, Note_on_c, 14, 57, 0
16, 46440, Note_on_c, 14, 50, 48
16, 46679, Note_on_c, 14, 50, 0
16, 46800, Note_on_c, 14, 43, 48
16, 47039, Note_on_c, 14, 43, 0
16, 47160, Note_on_c, 14, 48, 48
16, 47399, Note_on_c, 14, 48, 0
16, 47520, Note_on_c, 14, 57, 48
16, 47759, Note_on_c, 14, 57, 0
16, 47880, Note_on_c, 14, 50, 48
16, 48119, Note_on_c, 14, 50, 0
16, 48240, Note_on_c, 14, 43, 48
16, 48479, Note_on_c, 14, 43, 0
16, 48600, Note_on_c, 14, 48, 48
16, 48839, Note_on_c, 14, 48, 0
16, 48960, Note_on_c, 14, 57, 48
16, 49199, Note_on_c, 14, 57, 0
16, 49320, Note_on_c, 14, 50, 48
16, 49559, Note_on_c, 14, 50, 0
16, 49680, Note_on_c, 14, 43, 48
16, 49919, Note_on_c, 14, 43, 0
16, 50040, Note_on_c, 14, 48, 48
16, 50279, Note_on_c, 14, 48, 0
16, 50400, Note_on_c, 14, 48, 50
16, 50639, Note_on_c, 14, 48, 0
16, 50760, Note_on_c, 14, 48, 53
16, 50999, Note_on_c, 14, 48, 0
16, 51120, Note_on_c, 14, 48, 55
16, 51359, Note_on_c, 14, 48, 0
16, 51480, Note_on_c, 14, 48, 58
16, 51719, Note_on_c, 14, 48, 0
16, 51840, Note_on_c, 14, 48, 60
16, 52079, Note_on_c, 14, 48, 0
16, 52200, Note_on_c, 14, 48, 63
16, 52439, Note_on_c, 14, 48, 0
16, 52560, Note_on_c, 14, 48, 65
16, 52799, Note_on_c, 14, 48, 0
16, 52920, Note_on_c, 14, 48, 68
16, 53159, Note_on_c, 14, 48, 0
16, 53160, Program_c, 14, 48
16, 53280, Note_on_c, 14, 48, 76
16, 53389, Note_on_c, 14, 48, 0
16, 53400, Note_on_c, 14, 48, 76
16, 53509, Note_on_c, 14, 48, 0
16, 53520, Note_on_c, 14, 48, 76
16, 53629, Note_on_c, 14, 48, 0
16, 53640, Note_on_c, 14, 48, 76
16, 53749, Note_on_c, 14, 48, 0
16, 53760, Note_on_c, 14, 48, 76
16, 53869, Note_on_c, 14, 48, 0
16, 53880, Note_on_c, 14, 48, 76
16, 53989, Note_on_c, 14, 48, 0
16, 54000, Note_on_c, 14, 48, 76
16, 54109, Note_on_c, 14, 48, 0
16, 54120, Note_on_c, 14, 48, 76
16, 54229, Note_on_c, 14, 48, 0
16, 54240, Note_on_c, 14, 48, 76
16, 54349, Note_on_c, 14, 48, 0
16, 54360, Note_on_c, 14, 48, 76
16, 54469, Note_on_c, 14, 48, 0
16, 54480, Note_on_c, 14, 48, 76
16, 54589, Note_on_c, 14, 48, 0
16, 54600, Note_on_c, 14, 48, 76
16, 54709, Note_on_c, 14, 48, 0
16, 54718, Control_c, 14, 11, 127
16, 54720, Note_on_c, 14, 48, 76
16, 54840, Control_c, 14, 11, 123
16, 54949, Note_on_c, 14, 48, 0
16, 54960, Control_c, 14, 11, 119
16, 54960, Note_on_c, 14, 48, 76
16, 55080, Control_c, 14, 11, 115
16, 55189, Note_on_c, 14, 48, 0
16, 55200, Note_on_c, 14, 48, 76
16, 55200, Control_c, 14, 11, 111
16, 55320, Control_c, 14, 11, 107
16, 55429, Note_on_c, 14, 48, 0
16, 55440, Control_c, 14, 11, 105
16, 55440, Note_on_c, 14, 48, 76
16, 55560, Control_c, 14, 11, 101
16, 55669, Note_on_c, 14, 48, 0
16, 55680, Note_on_c, 14, 48, 76
16, 55680, Control_c, 14, 11, 97
16, 55800, Control_c, 14, 11, 93
16, 55909, Note_on_c, 14, 48, 0
16, 55920, Note_on_c, 14, 48, 76
16, 55920, Control_c, 14, 11, 89
16, 56040, Control_c, 14, 11, 85
16, 56149, Note_on_c, 14, 48, 0
16, 56160, Note_on_c, 14, 48, 76
16, 56399, Note_on_c, 14, 48, 0
16, 56880, Control_c, 14, 11, 81
16, 56880, Note_on_c, 14, 48, 76
16, 56940, Control_c, 14, 11, 79
16, 57000, Control_c, 14, 11, 78
16, 57060, Control_c, 14, 11, 77
16, 57119, Note_on_c, 14, 48, 0
16, 57120, Control_c, 14, 11, 75
16, 57180, Control_c, 14, 11, 74
16, 57240, Control_c, 14, 11, 127
16, 57240, Program_c, 14, 45
16, 57600, Note_on_c, 14, 57, 44
16, 57839, Note_on_c, 14, 57, 0
16, 57960, Note_on_c, 14, 50, 44
16, 58199, Note_on_c, 14, 50, 0
16, 58320, Note_on_c, 14, 43, 44
16, 58559, Note_on_c, 14, 43, 0
16, 58680, Note_on_c, 14, 48, 44
16, 58919, Note_on_c, 14, 48, 0
16, 59040, Note_on_c, 14, 57, 44
16, 59279, Note_on_c, 14, 57, 0
16, 59400, Note_on_c, 14, 50, 44
16, 59639, Note_on_c, 14, 50, 0
16, 59760, Note_on_c, 14, 43, 44
16, 59999, Note_on_c, 14, 43, 0
16, 60120, Note_on_c, 14, 48, 44
16, 60359, Note_on_c, 14, 48, 0
16, 60480, Note_on_c, 14, 48, 50
16, 60719, Note_on_c, 14, 48, 0
16, 60840, Note_on_c, 14, 48, 56
16, 61079, Note_on_c, 14, 48, 0
16, 61200, Note_on_c, 14, 48, 62
16, 61439, Note_on_c, 14, 48, 0
16, 61560, Note_on_c, 14, 48, 68
16, 61799, Note_on_c, 14, 48, 0
16, 61918, Program_c, 14, 48
16, 61920, Note_on_c, 14, 48, 76
16, 62029, Note_on_c, 14, 48, 0
16, 62040, Note_on_c, 14, 48, 76
16, 62149, Note_on_c, 14, 48, 0
16, 62160, Note_on_c, 14, 48, 76
16, 62269, Note_on_c, 14, 48, 0
16, 62280, Note_on_c, 14, 48, 76
16, 62389, Note_on_c, 14, 48, 0
16, 62400, Note_on_c, 14, 48, 76
16, 62509, Note_on_c, 14, 48, 0
16, 62520, Note_on_c, 14, 48, 76
16, 62629, Note_on_c, 14, 48, 0
16, 62640, Note_on_c, 14, 48, 76
16, 62749, Note_on_c, 14, 48, 0
16, 62760, Note_on_c, 14, 48, 76
16, 62869, Note_on_c, 14, 48, 0
16, 62880, Note_on_c, 14, 48, 76
16, 62989, Note_on_c, 14, 48, 0
16, 63000, Note_on_c, 14, 48, 76
16, 63109, Note_on_c, 14, 48, 0
16, 63120, Note_on_c, 14, 48, 76
16, 63229, Note_on_c, 14, 48, 0
16, 63240, Note_on_c, 14, 48, 76
16, 63349, Note_on_c, 14, 48, 0
16, 63360, Note_on_c, 14, 48, 84
16, 63479, Note_on_c, 14, 48, 0
16, 63480, Note_on_c, 14, 48, 76
16, 63599, Note_on_c, 14, 48, 0
16, 63600, Note_on_c, 14, 48, 64
16, 63719, Note_on_c, 14, 48, 0
16, 63720, Note_on_c, 14, 48, 52
16, 63839, Note_on_c, 14, 48, 0
16, 65880, Program_c, 14, 45
16, 66000, Note_on_c, 14, 53, 48
16, 66119, Note_on_c, 14, 53, 0
16, 66120, Note_on_c, 14, 46, 48
16, 66239, Note_on_c, 14, 46, 0
16, 66240, Note_on_c, 14, 48, 48
16, 66479, Note_on_c, 14, 48, 0
16, 66600, Program_c, 14, 48
16, 66960, Note_on_c, 14, 48, 68
16, 67669, Note_on_c, 14, 48, 0
16, 67680, Note_on_c, 14, 53, 68
16, 68389, Note_on_c, 14, 53, 0
16, 68400, Note_on_c, 14, 48, 68
16, 68400, Control_c, 14, 11, 97
16, 68520, Control_c, 14, 11, 99
16, 68640, Control_c, 14, 11, 102
16, 68760, Control_c, 14, 11, 105
16, 68880, Control_c, 14, 11, 107
16, 69000, Control_c, 14, 11, 110
16, 69109, Note_on_c, 14, 48, 0
16, 69120, Note_on_c, 14, 53, 68
16, 69120, Control_c, 14, 11, 113
16, 69240, Control_c, 14, 11, 115
16, 69360, Control_c, 14, 11, 118
16, 69480, Control_c, 14, 11, 119
16, 69600, Control_c, 14, 11, 123
16, 69709, Note_on_c, 14, 53, 0
16, 69720, Note_on_c, 14, 48, 68
16, 69720, Control_c, 14, 11, 125
16, 69829, Note_on_c, 14, 48, 0
16, 69838, Control_c, 14, 11, 127
16, 69840, Note_on_c, 14, 48, 76
16, 69900, Control_c, 14, 11, 112
16, 70069, Note_on_c, 14, 48, 0
16, 70080, Note_on_c, 14, 48, 76
16, 70080, Control_c, 14, 11, 112
16, 70107, Control_c, 14, 11, 110
16, 70133, Control_c, 14, 11, 108
16, 70160, Control_c, 14, 11, 107
16, 70187, Control_c, 14, 11, 105
16, 70199, Note_on_c, 14, 48, 0
16, 70200, Note_on_c, 14, 46, 76
16, 70213, Control_c, 14, 11, 103
16, 70240, Control_c, 14, 11, 101
16, 70267, Control_c, 14, 11, 100
16, 70293, Control_c, 14, 11, 98
16, 70319, Note_on_c, 14, 46, 0
16, 70320, Note_on_c, 14, 45, 76
16, 70320, Control_c, 14, 11, 96
16, 70347, Control_c, 14, 11, 94
16, 70373, Control_c, 14, 11, 92
16, 70400, Control_c, 14, 11, 91
16, 70427, Control_c, 14, 11, 89
16, 70439, Note_on_c, 14, 45, 0
16, 70440, Note_on_c, 14, 43, 76
16, 70453, Control_c, 14, 11, 87
16, 70480, Control_c, 14, 11, 85
16, 70507, Control_c, 14, 11, 84
16, 70533, Control_c, 14, 11, 80
16, 70559, Note_on_c, 14, 43, 0
16, 70560, Note_on_c, 14, 41, 76
16, 70799, Note_on_c, 14, 41, 0
16, 71280, Control_c, 14, 11, 127
16, 71640, Note_on_c, 14, 48, 52
16, 71670, Control_c, 14, 11, 127
16, 71700, Control_c, 14, 11, 126
16, 71730, Control_c, 14, 11, 123
16, 71760, Control_c, 14, 11, 123
16, 71790, Control_c, 14, 11, 122
16, 71820, Control_c, 14, 11, 121
16, 71850, Control_c, 14, 11, 119
16, 71880, Control_c, 14, 11, 118
16, 71910, Control_c, 14, 11, 117
16, 71940, Control_c, 14, 11, 115
16, 71970, Control_c, 14, 11, 114
16, 71989, Note_on_c, 14, 48, 0
16, 72000, Note_on_c, 14, 41, 52
16, 72000, Control_c, 14, 11, 127
16, 72239, Note_on_c, 14, 41, 0
16, 73080, Note_on_c, 14, 48, 52
16, 73080, Control_c, 14, 11, 127
16, 73110, Control_c, 14, 11, 127
16, 73140, Control_c, 14, 11, 126
16, 73170, Control_c, 14, 11, 123
16, 73200, Control_c, 14, 11, 123
16, 73230, Control_c, 14, 11, 122
16, 73260, Control_c, 14, 11, 121
16, 73290, Control_c, 14, 11, 119
16, 73320, Control_c, 14, 11, 118
16, 73350, Control_c, 14, 11, 117
16, 73380, Control_c, 14, 11, 115
16, 73410, Control_c, 14, 11, 114
16, 73429, Note_on_c, 14, 48, 0
16, 73438, Control_c, 14, 11, 127
16, 73440, Note_on_c, 14, 41, 52
16, 73679, Note_on_c, 14, 41, 0
16, 74040, Program_c, 14, 45
16, 74160, Note_on_c, 14, 41, 48
16, 74399, Note_on_c, 14, 41, 0
16, 74880, Note_on_c, 14, 41, 47
16, 75119, Note_on_c, 14, 41, 0
16, 75240, Note_on_c, 14, 41, 46
16, 75479, Note_on_c, 14, 41, 0
16, 75600, Note_on_c, 14, 41, 46
16, 75839, Note_on_c, 14, 41, 0
16, 75960, Note_on_c, 14, 41, 45
16, 76199, Note_on_c, 14, 41, 0
16, 76320, Note_on_c, 14, 41, 44
16, 76559, Note_on_c, 14, 41, 0
16, 77760, Note_on_c, 14, 48, 44
16, 77999, Note_on_c, 14, 48, 0
16, 78120, Note_on_c, 14, 48, 44
16, 78359, Note_on_c, 14, 48, 0
16, 78480, Note_on_c, 14, 48, 44
16, 78719, Note_on_c, 14, 48, 0
16, 78840, Note_on_c, 14, 48, 44
16, 79079, Note_on_c, 14, 48, 0
16, 79200, Note_on_c, 14, 53, 44
16, 79439, Note_on_c, 14, 53, 0
16, 80640, Note_on_c, 14, 50, 44
16, 80879, Note_on_c, 14, 50, 0
16, 81000, Note_on_c, 14, 50, 45
16, 81239, Note_on_c, 14, 50, 0
16, 81360, Note_on_c, 14, 50, 46
16, 81599, Note_on_c, 14, 50, 0
16, 81720, Note_on_c, 14, 50, 47
16, 81959, Note_on_c, 14, 50, 0
16, 82080, Note_on_c, 14, 43, 48
16, 82319, Note_on_c, 14, 43, 0
16, 83520, Note_on_c, 14, 43, 48
16, 83759, Note_on_c, 14, 43, 0
16, 84960, Note_on_c, 14, 50, 48
16, 85199, Note_on_c, 14, 50, 0
16, 86400, Note_on_c, 14, 50, 48
16, 86639, Note_on_c, 14, 50, 0
16, 90720, Note_on_c, 14, 47, 48
16, 90959, Note_on_c, 14, 47, 0
16, 91080, Note_on_c, 14, 45, 48
16, 91319, Note_on_c, 14, 45, 0
16, 91440, Note_on_c, 14, 50, 48
16, 91679, Note_on_c, 14, 50, 0
16, 91800, Note_on_c, 14, 43, 48
16, 92039, Note_on_c, 14, 43, 0
16, 92160, Note_on_c, 14, 48, 48
16, 92399, Note_on_c, 14, 48, 0
16, 93360, Note_on_c, 14, 48, 48
16, 93479, Note_on_c, 14, 48, 0
16, 93480, Note_on_c, 14, 49, 48
16, 93599, Note_on_c, 14, 49, 0
16, 93600, Note_on_c, 14, 50, 48
16, 93839, Note_on_c, 14, 50, 0
16, 93960, Control_c, 14, 11, 81
16, 93960, Program_c, 14, 48
16, 94320, Note_on_c, 14, 50, 76
16, 94500, Control_c, 14, 11, 85
16, 94680, Control_c, 14, 11, 89
16, 94860, Control_c, 14, 11, 93
16, 95029, Note_on_c, 14, 50, 0
16, 95040, Control_c, 14, 11, 97
16, 95040, Note_on_c, 14, 55, 76
16, 95220, Control_c, 14, 11, 101
16, 95400, Control_c, 14, 11, 105
16, 95580, Control_c, 14, 11, 107
16, 95749, Note_on_c, 14, 55, 0
16, 95760, Control_c, 14, 11, 111
16, 95760, Note_on_c, 14, 50, 76
16, 95940, Control_c, 14, 11, 115
16, 96120, Control_c, 14, 11, 119
16, 96300, Control_c, 14, 11, 123
16, 96469, Note_on_c, 14, 50, 0
16, 96480, Note_on_c, 14, 55, 76
16, 96480, Control_c, 14, 11, 127
16, 97189, Note_on_c, 14, 55, 0
16, 97200, Control_c, 14, 11, 127
16, 97200, Note_on_c, 14, 53, 76
16, 97260, Control_c, 14, 11, 123
16, 97320, Control_c, 14, 11, 119
16, 97380, Control_c, 14, 11, 115
16, 97440, Control_c, 14, 11, 111
16, 97500, Control_c, 14, 11, 107
16, 97549, Note_on_c, 14, 53, 0
16, 97560, Note_on_c, 14, 46, 76
16, 97560, Control_c, 14, 11, 105
16, 97620, Control_c, 14, 11, 101
16, 97680, Control_c, 14, 11, 97
16, 97740, Control_c, 14, 11, 93
16, 97800, Control_c, 14, 11, 89
16, 97860, Control_c, 14, 11, 85
16, 97909, Note_on_c, 14, 46, 0
16, 97920, Note_on_c, 14, 51, 76
16, 97920, Control_c, 14, 11, 81
16, 98159, Note_on_c, 14, 51, 0
16, 99000, Control_c, 14, 11, 127
16, 99360, Note_on_c, 14, 51, 52
16, 99599, Note_on_c, 14, 51, 0
16, 100800, Note_on_c, 14, 46, 52
16, 101039, Note_on_c, 14, 46, 0
16, 102240, Note_on_c, 14, 46, 52
16, 102479, Note_on_c, 14, 46, 0
16, 106200, Program_c, 14, 45
16, 106560, Note_on_c, 14, 43, 48
16, 106799, Note_on_c, 14, 43, 0
16, 106920, Note_on_c, 14, 41, 48
16, 107159, Note_on_c, 14, 41, 0
16, 107280, Note_on_c, 14, 46, 48
16, 107519, Note_on_c, 14, 46, 0
16, 107640, Note_on_c, 14, 51, 48
16, 107879, Note_on_c, 14, 51, 0
16, 108000, Note_on_c, 14, 44, 48
16, 108239, Note_on_c, 14, 44, 0
16, 109200, Note_on_c, 14, 53, 48
16, 109319, Note_on_c, 14, 53, 0
16, 109320, Note_on_c, 14, 56, 48
16, 109439, Note_on_c, 14, 56, 0
16, 109440, Note_on_c, 14, 46, 48
16, 109679, Note_on_c, 14, 46, 0
16, 109800, Program_c, 14, 48
16, 109800, Control_c, 14, 11, 81
16, 110160, Note_on_c, 14, 46, 76
16, 110280, Control_c, 14, 11, 85
16, 110400, Control_c, 14, 11, 89
16, 110520, Control_c, 14, 11, 93
16, 110640, Control_c, 14, 11, 97
16, 110760, Control_c, 14, 11, 101
16, 110869, Note_on_c, 14, 46, 0
16, 110880, Note_on_c, 14, 51, 76
16, 110880, Control_c, 14, 11, 105
16, 111000, Control_c, 14, 11, 107
16, 111120, Control_c, 14, 11, 111
16, 111240, Control_c, 14, 11, 115
16, 111360, Control_c, 14, 11, 119
16, 111480, Control_c, 14, 11, 123
16, 111589, Note_on_c, 14, 51, 0
16, 111600, Control_c, 14, 11, 127
16, 111600, Note_on_c, 14, 49, 76
16, 111660, Control_c, 14, 11, 123
16, 111720, Control_c, 14, 11, 119
16, 111780, Control_c, 14, 11, 115
16, 111840, Control_c, 14, 11, 111
16, 111900, Control_c, 14, 11, 107
16, 111960, Control_c, 14, 11, 105
16, 112020, Control_c, 14, 11, 101
16, 112080, Control_c, 14, 11, 97
16, 112140, Control_c, 14, 11, 93
16, 112200, Control_c, 14, 11, 89
16, 112260, Control_c, 14, 11, 85
16, 112309, Note_on_c, 14, 49, 0
16, 112318, Control_c, 14, 11, 81
16, 112320, Note_on_c, 14, 42, 76
16, 112559, Note_on_c, 14, 42, 0
16, 113400, Program_c, 14, 45
16, 113400, Control_c, 14, 11, 127
16, 113760, Note_on_c, 14, 42, 48
16, 113999, Note_on_c, 14, 42, 0
16, 115200, Note_on_c, 14, 47, 48
16, 115439, Note_on_c, 14, 47, 0
16, 116640, Note_on_c, 14, 42, 48
16, 116879, Note_on_c, 14, 42, 0
16, 118080, Note_on_c, 14, 47, 48
16, 118319, Note_on_c, 14, 47, 0
16, 118800, Note_on_c, 14, 47, 48
16, 119039, Note_on_c, 14, 47, 0
16, 119160, Program_c, 14, 48
16, 119160, Control_c, 14, 11, 81
16, 119520, Note_on_c, 14, 47, 76
16, 119520, Control_c, 14, 11, 81
16, 119640, Control_c, 14, 11, 85
16, 119760, Control_c, 14, 11, 89
16, 119879, Note_on_c, 14, 47, 0
16, 119880, Control_c, 14, 11, 93
16, 119880, Note_on_c, 14, 43, 76
16, 120000, Control_c, 14, 11, 97
16, 120120, Control_c, 14, 11, 101
16, 120239, Note_on_c, 14, 43, 0
16, 120240, Control_c, 14, 11, 105
16, 120240, Note_on_c, 14, 48, 76
16, 120360, Control_c, 14, 11, 107
16, 120480, Control_c, 14, 11, 111
16, 120599, Note_on_c, 14, 48, 0
16, 120600, Control_c, 14, 11, 115
16, 120600, Note_on_c, 14, 46, 76
16, 120720, Control_c, 14, 11, 119
16, 120840, Control_c, 14, 11, 123
16, 120949, Note_on_c, 14, 46, 0
16, 120960, Control_c, 14, 11, 127
16, 120960, Note_on_c, 14, 45, 76
16, 121309, Note_on_c, 14, 45, 0
16, 121320, Note_on_c, 14, 41, 76
16, 121669, Note_on_c, 14, 41, 0
16, 121680, Note_on_c, 14, 46, 84
16, 122029, Note_on_c, 14, 46, 0
16, 122040, Note_on_c, 14, 48, 84
16, 122389, Note_on_c, 14, 48, 0
16, 122400, Control_c, 14, 11, 127
16, 122400, Note_on_c, 14, 41, 76
16, 122639, Note_on_c, 14, 41, 0
16, 123480, Program_c, 14, 45
16, 123840, Note_on_c, 14, 41, 58
16, 124079, Note_on_c, 14, 41, 0
16, 125280, Note_on_c, 14, 41, 48
16, 125519, Note_on_c, 14, 41, 0
16, 126000, Note_on_c, 14, 41, 48
16, 126239, Note_on_c, 14, 41, 0
16, 126720, Note_on_c, 14, 41, 48
16, 126959, Note_on_c, 14, 41, 0
16, 127440, Note_on_c, 14, 41, 48
16, 127679, Note_on_c, 14, 41, 0
16, 128160, Note_on_c, 14, 41, 48
16, 128399, Note_on_c, 14, 41, 0
16, 128520, Note_on_c, 14, 41, 48
16, 128759, Note_on_c, 14, 41, 0
16, 128880, Note_on_c, 14, 41, 48
16, 129119, Note_on_c, 14, 41, 0
16, 129240, Note_on_c, 14, 41, 58
16, 129479, Note_on_c, 14, 41, 0
16, 129480, Note_on_c, 14, 41, 64
16, 129599, Note_on_c, 14, 41, 0
16, 129600, Note_on_c, 14, 46, 48
16, 129839, Note_on_c, 14, 46, 0
16, 131040, Note_on_c, 14, 46, 48
16, 131279, Note_on_c, 14, 46, 0
16, 132480, Note_on_c, 14, 41, 48
16, 132719, Note_on_c, 14, 41, 0
16, 133920, Note_on_c, 14, 41, 48
16, 134159, Note_on_c, 14, 41, 0
16, 135120, Note_on_c, 14, 53, 48
16, 135239, Note_on_c, 14, 53, 0
16, 135240, Note_on_c, 14, 51, 48
16, 135359, Note_on_c, 14, 51, 0
16, 135360, Note_on_c, 14, 50, 48
16, 135599, Note_on_c, 14, 50, 0
16, 136080, Note_on_c, 14, 51, 58
16, 136319, Note_on_c, 14, 51, 0
16, 136800, Note_on_c, 14, 53, 68
16, 136860, Control_c, 14, 11, 81
16, 137039, Note_on_c, 14, 53, 0
16, 137520, Note_on_c, 14, 41, 78
16, 137759, Note_on_c, 14, 41, 0
16, 137880, Note_on_c, 14, 41, 78
16, 138119, Note_on_c, 14, 41, 0
16, 138240, Note_on_c, 14, 43, 68
16, 138479, Note_on_c, 14, 43, 0
16, 138840, Control_c, 14, 11, 127
16, 138960, Note_on_c, 14, 55, 48
16, 139199, Note_on_c, 14, 55, 0
16, 139320, Program_c, 14, 48
16, 139680, Note_on_c, 14, 48, 76
16, 139680, Control_c, 14, 11, 127
16, 139800, Control_c, 14, 11, 127
16, 139910, Control_c, 14, 11, 123
16, 140020, Control_c, 14, 11, 119
16, 140130, Control_c, 14, 11, 115
16, 140240, Control_c, 14, 11, 111
16, 140350, Control_c, 14, 11, 107
16, 140460, Control_c, 14, 11, 105
16, 140570, Control_c, 14, 11, 101
16, 140680, Control_c, 14, 11, 97
16, 140790, Control_c, 14, 11, 93
16, 140900, Control_c, 14, 11, 89
16, 141010, Control_c, 14, 11, 85
16, 141109, Note_on_c, 14, 48, 0
16, 141120, Control_c, 14, 11, 81
16, 141120, Note_on_c, 14, 41, 76
16, 141359, Note_on_c, 14, 41, 0
16, 141480, Control_c, 14, 11, 127
16, 141720, Program_c, 14, 45
16, 141840, Note_on_c, 14, 41, 48
16, 142079, Note_on_c, 14, 41, 0
16, 142560, Note_on_c, 14, 41, 48
16, 142799, Note_on_c, 14, 41, 0
16, 143280, Note_on_c, 14, 41, 48
16, 143519, Note_on_c, 14, 41, 0
16, 144000, Note_on_c, 14, 41, 48
16, 144239, Note_on_c, 14, 41, 0
16, 144360, Note_on_c, 14, 53, 58
16, 144599, Note_on_c, 14, 53, 0
16, 144720, Note_on_c, 14, 53, 68
16, 144959, Note_on_c, 14, 53, 0
16, 145080, Note_on_c, 14, 53, 58
16, 145319, Note_on_c, 14, 53, 0
16, 145440, Note_on_c, 14, 46, 48
16, 145679, Note_on_c, 14, 46, 0
16, 145800, Note_on_c, 14, 51, 48
16, 146039, Note_on_c, 14, 51, 0
16, 146160, Note_on_c, 14, 53, 48
16, 146399, Note_on_c, 14, 53, 0
16, 146520, Note_on_c, 14, 41, 48
16, 146759, Note_on_c, 14, 41, 0
16, 146880, Note_on_c, 14, 41, 48
16, 147119, Note_on_c, 14, 41, 0
16, 147240, Note_on_c, 14, 41, 58
16, 147479, Note_on_c, 14, 41, 0
16, 147600, Note_on_c, 14, 41, 68
16, 147839, Note_on_c, 14, 41, 0
16, 147960, Note_on_c, 14, 41, 58
16, 148199, Note_on_c, 14, 41, 0
16, 148320, Note_on_c, 14, 46, 48
16, 148559, Note_on_c, 14, 46, 0
16, 148680, Note_on_c, 14, 51, 48
16, 148919, Note_on_c, 14, 51, 0
16, 149040, Note_on_c, 14, 53, 48
16, 149279, Note_on_c, 14, 53, 0
16, 149400, Note_on_c, 14, 53, 48
16, 149639, Note_on_c, 14, 53, 0
16, 149760, Note_on_c, 14, 62, 48
16, 149999, Note_on_c, 14, 62, 0
16, 150120, Note_on_c, 14, 55, 48
16, 150359, Note_on_c, 14, 55, 0
16, 150480, Note_on_c, 14, 48, 48
16, 150719, Note_on_c, 14, 48, 0
16, 150840, Note_on_c, 14, 41, 48
16, 151079, Note_on_c, 14, 41, 0
16, 151200, Note_on_c, 14, 62, 48
16, 151439, Note_on_c, 14, 62, 0
16, 151560, Note_on_c, 14, 55, 48
16, 151799, Note_on_c, 14, 55, 0
16, 151920, Note_on_c, 14, 48, 48
16, 152159, Note_on_c, 14, 48, 0
16, 152280, Note_on_c, 14, 41, 48
16, 152519, Note_on_c, 14, 41, 0
16, 152640, Note_on_c, 14, 62, 48
16, 152879, Note_on_c, 14, 62, 0
16, 153000, Note_on_c, 14, 55, 48
16, 153239, Note_on_c, 14, 55, 0
16, 153360, Note_on_c, 14, 48, 48
16, 153599, Note_on_c, 14, 48, 0
16, 153720, Note_on_c, 14, 41, 48
16, 153959, Note_on_c, 14, 41, 0
16, 154080, Note_on_c, 14, 53, 50
16, 154319, Note_on_c, 14, 53, 0
16, 154440, Note_on_c, 14, 53, 53
16, 154679, Note_on_c, 14, 53, 0
16, 154800, Note_on_c, 14, 53, 55
16, 155039, Note_on_c, 14, 53, 0
16, 155160, Note_on_c, 14, 53, 58
16, 155399, Note_on_c, 14, 53, 0
16, 155520, Note_on_c, 14, 53, 60
16, 155759, Note_on_c, 14, 53, 0
16, 155880, Note_on_c, 14, 53, 63
16, 156119, Note_on_c, 14, 53, 0
16, 156240, Note_on_c, 14, 53, 65
16, 156479, Note_on_c, 14, 53, 0
16, 156600, Note_on_c, 14, 41, 68
16, 156839, Note_on_c, 14, 41, 0
16, 156958, Program_c, 14, 48
16, 156960, Note_on_c, 14, 41, 76
16, 157069, Note_on_c, 14, 41, 0
16, 157080, Note_on_c, 14, 41, 76
16, 157189, Note_on_c, 14, 41, 0
16, 157200, Note_on_c, 14, 41, 76
16, 157309, Note_on_c, 14, 41, 0
16, 157320, Note_on_c, 14, 41, 76
16, 157429, Note_on_c, 14, 41, 0
16, 157440, Note_on_c, 14, 41, 76
16, 157549, Note_on_c, 14, 41, 0
16, 157560, Note_on_c, 14, 41, 76
16, 157669, Note_on_c, 14, 41, 0
16, 157680, Note_on_c, 14, 41, 76
16, 157789, Note_on_c, 14, 41, 0
16, 157800, Note_on_c, 14, 41, 76
16, 157909, Note_on_c, 14, 41, 0
16, 157920, Note_on_c, 14, 41, 76
16, 158029, Note_on_c, 14, 41, 0
16, 158040, Note_on_c, 14, 41, 76
16, 158149, Note_on_c, 14, 41, 0
16, 158160, Note_on_c, 14, 41, 76
16, 158269, Note_on_c, 14, 41, 0
16, 158280, Note_on_c, 14, 41, 76
16, 158389, Note_on_c, 14, 41, 0
16, 158400, Note_on_c, 14, 41, 76
16, 158400, Control_c, 14, 11, 127
16, 158520, Control_c, 14, 11, 123
16, 158629, Note_on_c, 14, 41, 0
16, 158640, Control_c, 14, 11, 119
16, 158640, Note_on_c, 14, 41, 76
16, 158760, Control_c, 14, 11, 115
16, 158869, Note_on_c, 14, 41, 0
16, 158880, Note_on_c, 14, 41, 76
16, 158880, Control_c, 14, 11, 111
16, 159000, Control_c, 14, 11, 107
16, 159109, Note_on_c, 14, 41, 0
16, 159120, Note_on_c, 14, 41, 76
16, 159120, Control_c, 14, 11, 105
16, 159240, Control_c, 14, 11, 101
16, 159349, Note_on_c, 14, 41, 0
16, 159360, Control_c, 14, 11, 97
16, 159360, Note_on_c, 14, 41, 76
16, 159480, Control_c, 14, 11, 93
16, 159589, Note_on_c, 14, 41, 0
16, 159600, Control_c, 14, 11, 89
16, 159600, Note_on_c, 14, 41, 76
16, 159720, Control_c, 14, 11, 85
16, 159829, Note_on_c, 14, 41, 0
16, 159840, Control_c, 14, 11, 81
16, 159840, Note_on_c, 14, 41, 76
16, 160079, Note_on_c, 14, 41, 0
16, 160560, Control_c, 14, 11, 81
16, 160560, Note_on_c, 14, 53, 76
16, 160620, Control_c, 14, 11, 79
16, 160680, Control_c, 14, 11, 78
16, 160740, Control_c, 14, 11, 77
16, 160799, Note_on_c, 14, 53, 0
16, 160920, Program_c, 14, 45
16, 161220, Control_c, 14, 11, 127
16, 161280, Note_on_c, 14, 50, 44
16, 161519, Note_on_c, 14, 50, 0
16, 161640, Note_on_c, 14, 43, 44
16, 161879, Note_on_c, 14, 43, 0
16, 162000, Note_on_c, 14, 48, 44
16, 162239, Note_on_c, 14, 48, 0
16, 162360, Note_on_c, 14, 41, 44
16, 162599, Note_on_c, 14, 41, 0
16, 162720, Note_on_c, 14, 50, 44
16, 162959, Note_on_c, 14, 50, 0
16, 163080, Note_on_c, 14, 43, 44
16, 163319, Note_on_c, 14, 43, 0
16, 163440, Note_on_c, 14, 48, 44
16, 163679, Note_on_c, 14, 48, 0
16, 163800, Note_on_c, 14, 41, 44
16, 164039, Note_on_c, 14, 41, 0
16, 164160, Note_on_c, 14, 41, 50
16, 164399, Note_on_c, 14, 41, 0
16, 164520, Note_on_c, 14, 41, 56
16, 164759, Note_on_c, 14, 41, 0
16, 164880, Note_on_c, 14, 41, 62
16, 165119, Note_on_c, 14, 41, 0
16, 165240, Note_on_c, 14, 41, 68
16, 165479, Note_on_c, 14, 41, 0
16, 165598, Program_c, 14, 48
16, 165600, Note_on_c, 14, 41, 76
16, 165709, Note_on_c, 14, 41, 0
16, 165720, Note_on_c, 14, 41, 76
16, 165829, Note_on_c, 14, 41, 0
16, 165840, Note_on_c, 14, 41, 76
16, 165949, Note_on_c, 14, 41, 0
16, 165960, Note_on_c, 14, 41, 76
16, 166069, Note_on_c, 14, 41, 0
16, 166080, Note_on_c, 14, 41, 76
16, 166189, Note_on_c, 14, 41, 0
16, 166200, Note_on_c, 14, 41, 76
16, 166309, Note_on_c, 14, 41, 0
16, 166320, Note_on_c, 14, 41, 76
16, 166429, Note_on_c, 14, 41, 0
16, 166440, Note_on_c, 14, 41, 76
16, 166549, Note_on_c, 14, 41, 0
16, 166560, Note_on_c, 14, 41, 76
16, 166669, Note_on_c, 14, 41, 0
16, 166680, Note_on_c, 14, 41, 76
16, 166789, Note_on_c, 14, 41, 0
16, 166800, Note_on_c, 14, 41, 76
16, 166909, Note_on_c, 14, 41, 0
16, 166920, Note_on_c, 14, 41, 76
16, 167029, Note_on_c, 14, 41, 0
16, 167040, Note_on_c, 14, 41, 84
16, 167159, Note_on_c, 14, 41, 0
16, 167160, Note_on_c, 14, 41, 76
16, 167279, Note_on_c, 14, 41, 0
16, 167280, Note_on_c, 14, 41, 64
16, 167399, Note_on_c, 14, 41, 0
16, 167400, Note_on_c, 14, 41, 52
16, 167519, Note_on_c, 14, 41, 0
16, 169560, Program_c, 14, 45
16, 169680, Note_on_c, 14, 46, 48
16, 169799, Note_on_c, 14, 46, 0
16, 169800, Note_on_c, 14, 39, 48
16, 169919, Note_on_c, 14, 39, 0
16, 169920, Note_on_c, 14, 41, 48
16, 170159, Note_on_c, 14, 41, 0
16, 170280, Program_c, 14, 48
16, 170280, Control_c, 14, 11, 81
16, 170640, Note_on_c, 14, 53, 76
16, 170880, Control_c, 14, 11, 85
16, 171120, Control_c, 14, 11, 89
16, 171349, Note_on_c, 14, 53, 0
16, 171360, Note_on_c, 14, 58, 76
16, 171360, Control_c, 14, 11, 93
16, 171600, Control_c, 14, 11, 97
16, 171840, Control_c, 14, 11, 101
16, 172069, Note_on_c, 14, 58, 0
16, 172080, Control_c, 14, 11, 105
16, 172080, Note_on_c, 14, 53, 76
16, 172320, Control_c, 14, 11, 107
16, 172560, Control_c, 14, 11, 111
16, 172789, Note_on_c, 14, 53, 0
16, 172800, Control_c, 14, 11, 115
16, 172800, Note_on_c, 14, 46, 76
16, 173040, Control_c, 14, 11, 119
16, 173280, Control_c, 14, 11, 123
16, 173389, Note_on_c, 14, 46, 0
16, 173400, Note_on_c, 14, 53, 76
16, 173509, Note_on_c, 14, 53, 0
16, 173520, Control_c, 14, 11, 127
16, 173520, Note_on_c, 14, 41, 84
16, 173749, Note_on_c, 14, 41, 0
16, 173760, Note_on_c, 14, 53, 76
16, 173879, Note_on_c, 14, 53, 0
16, 173880, Control_c, 14, 11, 127
16, 173880, Note_on_c, 14, 51, 76
16, 173910, Control_c, 14, 11, 123
16, 173940, Control_c, 14, 11, 119
16, 173970, Control_c, 14, 11, 115
16, 173999, Note_on_c, 14, 51, 0
16, 174000, Control_c, 14, 11, 111
16, 174000, Note_on_c, 14, 50, 76
16, 174030, Control_c, 14, 11, 107
16, 174060, Control_c, 14, 11, 105
16, 174090, Control_c, 14, 11, 101
16, 174119, Note_on_c, 14, 50, 0
16, 174120, Note_on_c, 14, 48, 76
16, 174120, Control_c, 14, 11, 97
16, 174150, Control_c, 14, 11, 93
16, 174180, Control_c, 14, 11, 89
16, 174210, Control_c, 14, 11, 85
16, 174229, Note_on_c, 14, 48, 0
16, 174238, Control_c, 14, 11, 81
16, 174240, Note_on_c, 14, 46, 76
16, 174479, Note_on_c, 14, 46, 0
16, 174960, Control_c, 14, 11, 127
16, 175320, Note_on_c, 14, 41, 52
16, 175320, Control_c, 14, 11, 127
16, 175350, Control_c, 14, 11, 127
16, 175380, Control_c, 14, 11, 126
16, 175410, Control_c, 14, 11, 123
16, 175440, Control_c, 14, 11, 123
16, 175470, Control_c, 14, 11, 122
16, 175500, Control_c, 14, 11, 121
16, 175530, Control_c, 14, 11, 119
16, 175560, Control_c, 14, 11, 118
16, 175590, Control_c, 14, 11, 117
16, 175620, Control_c, 14, 11, 115
16, 175650, Control_c, 14, 11, 114
16, 175669, Note_on_c, 14, 41, 0
16, 175678, Control_c, 14, 11, 127
16, 175680, Note_on_c, 14, 46, 52
16, 175919, Note_on_c, 14, 46, 0
16, 176760, Note_on_c, 14, 41, 52
16, 176760, Control_c, 14, 11, 127
16, 176790, Control_c, 14, 11, 127
16, 176820, Control_c, 14, 11, 126
16, 176850, Control_c, 14, 11, 123
16, 176880, Control_c, 14, 11, 123
16, 176910, Control_c, 14, 11, 122
16, 176940, Control_c, 14, 11, 121
16, 176970, Control_c, 14, 11, 119
16, 177000, Control_c, 14, 11, 118
16, 177030, Control_c, 14, 11, 117
16, 177060, Control_c, 14, 11, 115
16, 177090, Control_c, 14, 11, 114
16, 177109, Note_on_c, 14, 41, 0
16, 177118, Control_c, 14, 11, 127
16, 177120, Note_on_c, 14, 46, 52
16, 177359, Note_on_c, 14, 46, 0
16, 177480, Program_c, 14, 45
16, 177840, Note_on_c, 14, 46, 48
16, 178079, Note_on_c, 14, 46, 0
16, 178560, Note_on_c, 14, 46, 48
16, 178799, Note_on_c, 14, 46, 0
16, 179640, Note_on_c, 14, 58, 48
16, 179879, Note_on_c, 14, 58, 0
16, 180000, Note_on_c, 14, 51, 48
16, 180239, Note_on_c, 14, 51, 0
16, 181080, Note_on_c, 14, 51, 48
16, 181319, Note_on_c, 14, 51, 0
16, 181440, Note_on_c, 14, 46, 48
16, 181679, Note_on_c, 14, 46, 0
16, 182520, Note_on_c, 14, 58, 48
16, 182759, Note_on_c, 14, 58, 0
16, 182880, Note_on_c, 14, 51, 48
16, 183119, Note_on_c, 14, 51, 0
16, 183960, Note_on_c, 14, 51, 48
16, 184199, Note_on_c, 14, 51, 0
16, 184320, Note_on_c, 14, 46, 48
16, 184559, Note_on_c, 14, 46, 0
16, 189240, Program_c, 14, 48
16, 189360, Note_on_c, 14, 41, 52
16, 190069, Note_on_c, 14, 41, 0
16, 190080, Note_on_c, 14, 46, 52
16, 190319, Note_on_c, 14, 46, 0
16, 195120, Note_on_c, 14, 41, 44
16, 195829, Note_on_c, 14, 41, 0
16, 195840, Note_on_c, 14, 43, 44
16, 196199, Note_on_c, 14, 43, 0
16, 196560, Note_on_c, 14, 51, 44
16, 196919, Note_on_c, 14, 51, 0
16, 196920, Control_c, 14, 11, 65
16, 197280, Note_on_c, 14, 53, 76
16, 197340, Control_c, 14, 11, 70
16, 197400, Control_c, 14, 11, 75
16, 197460, Control_c, 14, 11, 81
16, 197520, Control_c, 14, 11, 86
16, 197580, Control_c, 14, 11, 91
16, 197640, Control_c, 14, 11, 97
16, 197700, Control_c, 14, 11, 102
16, 197760, Control_c, 14, 11, 107
16, 197820, Control_c, 14, 11, 111
16, 197880, Control_c, 14, 11, 118
16, 197940, Control_c, 14, 11, 123
16, 197989, Note_on_c, 14, 53, 0
16, 197998, Control_c, 14, 11, 127
16, 198000, Note_on_c, 14, 46, 84
16, 198239, Note_on_c, 14, 46, 0
16, 198360, Program_c, 14, 45
16, 198720, Note_on_c, 14, 46, 44
16, 198959, Note_on_c, 14, 46, 0
16, 199080, Note_on_c, 14, 46, 44
16, 199319, Note_on_c, 14, 46, 0
16, 199440, Note_on_c, 14, 46, 44
16, 199679, Note_on_c, 14, 46, 0
16, 200160, Program_c, 14, 48
16, 200160, End_track
17, 0, Start_track
17, 0, Title_t, "Contrabass"
17, 0, MIDI_port, 0
17, 0, Control_c, 15, 7, 96
17, 0, Control_c, 15, 10, 100
17, 0, Program_c, 15, 45
17, 0, Control_c, 15, 11, 127
17, 0, Note_on_c, 15, 34, 48
17, 239, Note_on_c, 15, 34, 0
17, 1440, Note_on_c, 15, 34, 48
17, 1679, Note_on_c, 15, 34, 0
17, 2880, Note_on_c, 15, 29, 48
17, 3119, Note_on_c, 15, 29, 0
17, 4320, Note_on_c, 15, 29, 48
17, 4559, Note_on_c, 15, 29, 0
17, 5520, Note_on_c, 15, 41, 48
17, 5639, Note_on_c, 15, 41, 0
17, 5640, Note_on_c, 15, 39, 48
17, 5759, Note_on_c, 15, 39, 0
17, 5760, Note_on_c, 15, 38, 48
17, 5999, Note_on_c, 15, 38, 0
17, 6480, Note_on_c, 15, 27, 58
17, 6719, Note_on_c, 15, 27, 0
17, 7200, Note_on_c, 15, 29, 68
17, 7260, Control_c, 15, 11, 81
17, 7439, Note_on_c, 15, 29, 0
17, 7920, Note_on_c, 15, 29, 78
17, 8159, Note_on_c, 15, 29, 0
17, 8280, Note_on_c, 15, 29, 78
17, 8519, Note_on_c, 15, 29, 0
17, 8638, Control_c, 15, 11, 127
17, 8640, Note_on_c, 15, 34, 48
17, 8879, Note_on_c, 15, 34, 0
17, 10080, Note_on_c, 15, 34, 48
17, 10319, Note_on_c, 15, 34, 0
17, 11520, Note_on_c, 15, 29, 48
17, 11759, Note_on_c, 15, 29, 0
17, 12960, Note_on_c, 15, 29, 48
17, 13199, Note_on_c, 15, 29, 0
17, 14160, Note_on_c, 15, 41, 48
17, 14279, Note_on_c, 15, 41, 0
17, 14280, Note_on_c, 15, 39, 48
17, 14399, Note_on_c, 15, 39, 0
17, 14400, Note_on_c, 15, 38, 48
17, 14639, Note_on_c, 15, 38, 0
17, 15120, Note_on_c, 15, 39, 58
17, 15359, Note_on_c, 15, 39, 0
17, 15840, Note_on_c, 15, 41, 68
17, 15900, Control_c, 15, 11, 81
17, 16079, Note_on_c, 15, 41, 0
17, 16560, Note_on_c, 15, 29, 78
17, 16799, Note_on_c, 15, 29, 0
17, 16920, Note_on_c, 15, 29, 78
17, 17159, Note_on_c, 15, 29, 0
17, 17250, Control_c, 15, 11, 127
17, 17280, Note_on_c, 15, 34, 48
17, 17519, Note_on_c, 15, 34, 0
17, 20160, Note_on_c, 15, 34, 48
17, 20399, Note_on_c, 15, 34, 0
17, 21600, Note_on_c, 15, 34, 48
17, 21839, Note_on_c, 15, 34, 0
17, 23040, Note_on_c, 15, 34, 48
17, 23279, Note_on_c, 15, 34, 0
17, 23760, Note_on_c, 15, 34, 48
17, 23999, Note_on_c, 15, 34, 0
17, 24480, Note_on_c, 15, 34, 48
17, 24719, Note_on_c, 15, 34, 0
17, 24840, Note_on_c, 15, 34, 48
17, 25079, Note_on_c, 15, 34, 0
17, 25200, Note_on_c, 15, 34, 48
17, 25439, Note_on_c, 15, 34, 0
17, 28800, Note_on_c, 15, 34, 48
17, 29039, Note_on_c, 15, 34, 0
17, 30240, Note_on_c, 15, 34, 48
17, 30479, Note_on_c, 15, 34, 0
17, 31680, Note_on_c, 15, 36, 48
17, 31919, Note_on_c, 15, 36, 0
17, 33120, Note_on_c, 15, 36, 48
17, 33359, Note_on_c, 15, 36, 0
17, 34560, Note_on_c, 15, 29, 48
17, 34799, Note_on_c, 15, 29, 0
17, 36000, Note_on_c, 15, 31, 48
17, 36239, Note_on_c, 15, 31, 0
17, 37440, Note_on_c, 15, 36, 48
17, 37679, Note_on_c, 15, 36, 0
17, 38160, Note_on_c, 15, 36, 48
17, 38399, Note_on_c, 15, 36, 0
17, 38880, Note_on_c, 15, 36, 48
17, 39119, Note_on_c, 15, 36, 0
17, 39600, Note_on_c, 15, 36, 48
17, 39839, Note_on_c, 15, 36, 0
17, 40320, Note_on_c, 15, 36, 48
17, 40559, Note_on_c, 15, 36, 0
17, 40680, Note_on_c, 15, 36, 58
17, 40919, Note_on_c, 15, 36, 0
17, 41040, Note_on_c, 15, 36, 68
17, 41279, Note_on_c, 15, 36, 0
17, 41400, Note_on_c, 15, 36, 58
17, 41639, Note_on_c, 15, 36, 0
17, 41760, Note_on_c, 15, 41, 48
17, 41999, Note_on_c, 15, 41, 0
17, 42120, Note_on_c, 15, 34, 48
17, 42359, Note_on_c, 15, 34, 0
17, 42480, Note_on_c, 15, 36, 48
17, 42719, Note_on_c, 15, 36, 0
17, 42840, Note_on_c, 15, 36, 48
17, 43079, Note_on_c, 15, 36, 0
17, 43200, Note_on_c, 15, 36, 48
17, 43439, Note_on_c, 15, 36, 0
17, 43560, Note_on_c, 15, 36, 58
17, 43799, Note_on_c, 15, 36, 0
17, 43920, Note_on_c, 15, 36, 68
17, 44159, Note_on_c, 15, 36, 0
17, 44280, Note_on_c, 15, 36, 58
17, 44519, Note_on_c, 15, 36, 0
17, 44640, Note_on_c, 15, 41, 48
17, 44879, Note_on_c, 15, 41, 0
17, 45000, Note_on_c, 15, 34, 48
17, 45239, Note_on_c, 15, 34, 0
17, 45360, Note_on_c, 15, 36, 48
17, 45599, Note_on_c, 15, 36, 0
17, 45720, Note_on_c, 15, 36, 48
17, 45959, Note_on_c, 15, 36, 0
17, 46080, Note_on_c, 15, 45, 48
17, 46319, Note_on_c, 15, 45, 0
17, 46440, Note_on_c, 15, 38, 48
17, 46679, Note_on_c, 15, 38, 0
17, 46800, Note_on_c, 15, 31, 48
17, 47039, Note_on_c, 15, 31, 0
17, 47160, Note_on_c, 15, 36, 48
17, 47399, Note_on_c, 15, 36, 0
17, 47520, Note_on_c, 15, 45, 48
17, 47759, Note_on_c, 15, 45, 0
17, 47880, Note_on_c, 15, 38, 48
17, 48119, Note_on_c, 15, 38, 0
17, 48240, Note_on_c, 15, 31, 48
17, 48479, Note_on_c, 15, 31, 0
17, 48600, Note_on_c, 15, 36, 48
17, 48839, Note_on_c, 15, 36, 0
17, 48960, Note_on_c, 15, 45, 48
17, 49199, Note_on_c, 15, 45, 0
17, 49320, Note_on_c, 15, 38, 48
17, 49559, Note_on_c, 15, 38, 0
17, 49680, Note_on_c, 15, 31, 48
17, 49919, Note_on_c, 15, 31, 0
17, 50040, Note_on_c, 15, 36, 48
17, 50279, Note_on_c, 15, 36, 0
17, 50400, Note_on_c, 15, 36, 50
17, 50639, Note_on_c, 15, 36, 0
17, 50760, Note_on_c, 15, 36, 53
17, 50999, Note_on_c, 15, 36, 0
17, 51120, Note_on_c, 15, 36, 55
17, 51359, Note_on_c, 15, 36, 0
17, 51480, Note_on_c, 15, 36, 58
17, 51719, Note_on_c, 15, 36, 0
17, 51840, Note_on_c, 15, 36, 60
17, 52079, Note_on_c, 15, 36, 0
17, 52200, Note_on_c, 15, 36, 63
17, 52439, Note_on_c, 15, 36, 0
17, 52560, Note_on_c, 15, 36, 65
17, 52799, Note_on_c, 15, 36, 0
17, 52920, Note_on_c, 15, 36, 68
17, 53159, Note_on_c, 15, 36, 0
17, 53160, Program_c, 15, 48
17, 53280, Note_on_c, 15, 36, 76
17, 53389, Note_on_c, 15, 36, 0
17, 53400, Note_on_c, 15, 36, 76
17, 53509, Note_on_c, 15, 36, 0
17, 53520, Note_on_c, 15, 36, 76
17, 53629, Note_on_c, 15, 36, 0
17, 53640, Note_on_c, 15, 36, 76
17, 53749, Note_on_c, 15, 36, 0
17, 53760, Note_on_c, 15, 36, 76
17, 53869, Note_on_c, 15, 36, 0
17, 53880, Note_on_c, 15, 36, 76
17, 53989, Note_on_c, 15, 36, 0
17, 54000, Note_on_c, 15, 36, 76
17, 54109, Note_on_c, 15, 36, 0
17, 54120, Note_on_c, 15, 36, 76
17, 54229, Note_on_c, 15, 36, 0
17, 54240, Note_on_c, 15, 36, 76
17, 54349, Note_on_c, 15, 36, 0
17, 54360, Note_on_c, 15, 36, 76
17, 54469, Note_on_c, 15, 36, 0
17, 54480, Note_on_c, 15, 36, 76
17, 54589, Note_on_c, 15, 36, 0
17, 54600, Note_on_c, 15, 36, 76
17, 54709, Note_on_c, 15, 36, 0
17, 54718, Control_c, 15, 11, 127
17, 54720, Note_on_c, 15, 36, 76
17, 54840, Control_c, 15, 11, 123
17, 54949, Note_on_c, 15, 36, 0
17, 54960, Control_c, 15, 11, 119
17, 54960, Note_on_c, 15, 36, 76
17, 55080, Control_c, 15, 11, 115
17, 55189, Note_on_c, 15, 36, 0
17, 55200, Note_on_c, 15, 36, 76
17, 55200, Control_c, 15, 11, 111
17, 55320, Control_c, 15, 11, 107
17, 55429, Note_on_c, 15, 36, 0
17, 55440, Control_c, 15, 11, 105
17, 55440, Note_on_c, 15, 36, 76
17, 55560, Control_c, 15, 11, 101
17, 55669, Note_on_c, 15, 36, 0
17, 55680, Note_on_c, 15, 36, 76
17, 55680, Control_c, 15, 11, 97
17, 55800, Control_c, 15, 11, 93
17, 55909, Note_on_c, 15, 36, 0
17, 55920, Note_on_c, 15, 36, 76
17, 55920, Control_c, 15, 11, 89
17, 56040, Control_c, 15, 11, 85
17, 56149, Note_on_c, 15, 36, 0
17, 56160, Note_on_c, 15, 36, 76
17, 56399, Note_on_c, 15, 36, 0
17, 56880, Control_c, 15, 11, 81
17, 56880, Note_on_c, 15, 36, 76
17, 56940, Control_c, 15, 11, 79
17, 57000, Control_c, 15, 11, 78
17, 57060, Control_c, 15, 11, 77
17, 57119, Note_on_c, 15, 36, 0
17, 57120, Control_c, 15, 11, 75
17, 57180, Control_c, 15, 11, 74
17, 57240, Control_c, 15, 11, 127
17, 57240, Program_c, 15, 45
17, 57600, Note_on_c, 15, 45, 44
17, 57839, Note_on_c, 15, 45, 0
17, 57960, Note_on_c, 15, 38, 44
17, 58199, Note_on_c, 15, 38, 0
17, 58320, Note_on_c, 15, 31, 44
17, 58559, Note_on_c, 15, 31, 0
17, 58680, Note_on_c, 15, 36, 44
17, 58919, Note_on_c, 15, 36, 0
17, 59040, Note_on_c, 15, 45, 44
17, 59279, Note_on_c, 15, 45, 0
17, 59400, Note_on_c, 15, 38, 44
17, 59639, Note_on_c, 15, 38, 0
17, 59760, Note_on_c, 15, 31, 44
17, 59999, Note_on_c, 15, 31, 0
17, 60120, Note_on_c, 15, 36, 44
17, 60359, Note_on_c, 15, 36, 0
17, 60480, Note_on_c, 15, 36, 50
17, 60719, Note_on_c, 15, 36, 0
17, 60840, Note_on_c, 15, 36, 56
17, 61079, Note_on_c, 15, 36, 0
17, 61200, Note_on_c, 15, 36, 62
17, 61439, Note_on_c, 15, 36, 0
17, 61560, Note_on_c, 15, 36, 68
17, 61799, Note_on_c, 15, 36, 0
17, 61918, Program_c, 15, 48
17, 61920, Note_on_c, 15, 36, 76
17, 62029, Note_on_c, 15, 36, 0
17, 62040, Note_on_c, 15, 36, 76
17, 62149, Note_on_c, 15, 36, 0
17, 62160, Note_on_c, 15, 36, 76
17, 62269, Note_on_c, 15, 36, 0
17, 62280, Note_on_c, 15, 36, 76
17, 62389, Note_on_c, 15, 36, 0
17, 62400, Note_on_c, 15, 36, 76
17, 62509, Note_on_c, 15, 36, 0
17, 62520, Note_on_c, 15, 36, 76
17, 62629, Note_on_c, 15, 36, 0
17, 62640, Note_on_c, 15, 36, 76
17, 62749, Note_on_c, 15, 36, 0
17, 62760, Note_on_c, 15, 36, 76
17, 62869, Note_on_c, 15, 36, 0
17, 62880, Note_on_c, 15, 36, 76
17, 62989, Note_on_c, 15, 36, 0
17, 63000, Note_on_c, 15, 36, 76
17, 63109, Note_on_c, 15, 36, 0
17, 63120, Note_on_c, 15, 36, 76
17, 63229, Note_on_c, 15, 36, 0
17, 63240, Note_on_c, 15, 36, 76
17, 63349, Note_on_c, 15, 36, 0
17, 63360, Note_on_c, 15, 36, 84
17, 63479, Note_on_c, 15, 36, 0
17, 63480, Note_on_c, 15, 36, 76
17, 63599, Note_on_c, 15, 36, 0
17, 63600, Note_on_c, 15, 36, 64
17, 63719, Note_on_c, 15, 36, 0
17, 63720, Note_on_c, 15, 36, 52
17, 63839, Note_on_c, 15, 36, 0
17, 65880, Program_c, 15, 45
17, 66000, Note_on_c, 15, 41, 48
17, 66119, Note_on_c, 15, 41, 0
17, 66120, Note_on_c, 15, 34, 48
17, 66239, Note_on_c, 15, 34, 0
17, 66240, Note_on_c, 15, 36, 48
17, 66479, Note_on_c, 15, 36, 0
17, 66600, Program_c, 15, 48
17, 66960, Note_on_c, 15, 36, 68
17, 67669, Note_on_c, 15, 36, 0
17, 67680, Note_on_c, 15, 41, 68
17, 68389, Note_on_c, 15, 41, 0
17, 68400, Note_on_c, 15, 36, 68
17, 68400, Control_c, 15, 11, 97
17, 68520, Control_c, 15, 11, 99
17, 68640, Control_c, 15, 11, 102
17, 68760, Control_c, 15, 11, 105
17, 68880, Control_c, 15, 11, 107
17, 69000, Control_c, 15, 11, 110
17, 69109, Note_on_c, 15, 36, 0
17, 69120, Note_on_c, 15, 41, 68
17, 69120, Control_c, 15, 11, 113
17, 69240, Control_c, 15, 11, 115
17, 69360, Control_c, 15, 11, 118
17, 69480, Control_c, 15, 11, 119
17, 69600, Control_c, 15, 11, 123
17, 69709, Note_on_c, 15, 41, 0
17, 69720, Note_on_c, 15, 36, 68
17, 69720, Control_c, 15, 11, 125
17, 69829, Note_on_c, 15, 36, 0
17, 69838, Control_c, 15, 11, 127
17, 69840, Note_on_c, 15, 36, 76
17, 69900, Control_c, 15, 11, 112
17, 70069, Note_on_c, 15, 36, 0
17, 70080, Note_on_c, 15, 36, 76
17, 70080, Control_c, 15, 11, 112
17, 70107, Control_c, 15, 11, 110
17, 70133, Control_c, 15, 11, 108
17, 70160, Control_c, 15, 11, 107
17, 70187, Control_c, 15, 11, 105
17, 70199, Note_on_c, 15, 36, 0
17, 70200, Note_on_c, 15, 34, 76
17, 70213, Control_c, 15, 11, 103
17, 70240, Control_c, 15, 11, 101
17, 70267, Control_c, 15, 11, 100
17, 70293, Control_c, 15, 11, 98
17, 70319, Note_on_c, 15, 34, 0
17, 70320, Note_on_c, 15, 33, 76
17, 70320, Control_c, 15, 11, 96
17, 70347, Control_c, 15, 11, 94
17, 70373, Control_c, 15, 11, 92
17, 70400, Control_c, 15, 11, 91
17, 70427, Control_c, 15, 11, 89
17, 70439, Note_on_c, 15, 33, 0
17, 70440, Note_on_c, 15, 31, 76
17, 70453, Control_c, 15, 11, 87
17, 70480, Control_c, 15, 11, 85
17, 70507, Control_c, 15, 11, 84
17, 70533, Control_c, 15, 11, 80
17, 70559, Note_on_c, 15, 31, 0
17, 70560, Note_on_c, 15, 29, 76
17, 70799, Note_on_c, 15, 29, 0
17, 71280, Control_c, 15, 11, 127
17, 71640, Note_on_c, 15, 36, 52
17, 71670, Control_c, 15, 11, 127
17, 71700, Control_c, 15, 11, 126
17, 71730, Control_c, 15, 11, 123
17, 71760, Control_c, 15, 11, 123
17, 71790, Control_c, 15, 11, 122
17, 71820, Control_c, 15, 11, 121
17, 71850, Control_c, 15, 11, 119
17, 71880, Control_c, 15, 11, 118
17, 71910, Control_c, 15, 11, 117
17, 71940, Control_c, 15, 11, 115
17, 71970, Control_c, 15, 11, 114
17, 71989, Note_on_c, 15, 36, 0
17, 72000, Note_on_c, 15, 29, 52
17, 72000, Control_c, 15, 11, 127
17, 72239, Note_on_c, 15, 29, 0
17, 73080, Note_on_c, 15, 36, 52
17, 73080, Control_c, 15, 11, 127
17, 73110, Control_c, 15, 11, 127
17, 73140, Control_c, 15, 11, 126
17, 73170, Control_c, 15, 11, 123
17, 73200, Control_c, 15, 11, 123
17, 73230, Control_c, 15, 11, 122
17, 73260, Control_c, 15, 11, 121
17, 73290, Control_c, 15, 11, 119
17, 73320, Control_c, 15, 11, 118
17, 73350, Control_c, 15, 11, 117
17, 73380, Control_c, 15, 11, 115
17, 73410, Control_c, 15, 11, 114
17, 73429, Note_on_c, 15, 36, 0
17, 73438, Control_c, 15, 11, 127
17, 73440, Note_on_c, 15, 29, 52
17, 73679, Note_on_c, 15, 29, 0
17, 74040, Program_c, 15, 45
17, 74160, Note_on_c, 15, 29, 48
17, 74399, Note_on_c, 15, 29, 0
17, 74880, Note_on_c, 15, 29, 47
17, 75119, Note_on_c, 15, 29, 0
17, 75240, Note_on_c, 15, 29, 46
17, 75479, Note_on_c, 15, 29, 0
17, 75600, Note_on_c, 15, 29, 46
17, 75839, Note_on_c, 15, 29, 0
17, 75960, Note_on_c, 15, 29, 45
17, 76199, Note_on_c, 15, 29, 0
17, 76320, Note_on_c, 15, 29, 44
17, 76559, Note_on_c, 15, 29, 0
17, 77760, Note_on_c, 15, 36, 44
17, 77999, Note_on_c, 15, 36, 0
17, 78120, Note_on_c, 15, 36, 44
17, 78359, Note_on_c, 15, 36, 0
17, 78480, Note_on_c, 15, 36, 44
17, 78719, Note_on_c, 15, 36, 0
17, 78840, Note_on_c, 15, 36, 44
17, 79079, Note_on_c, 15, 36, 0
17, 79200, Note_on_c, 15, 41, 44
17, 79439, Note_on_c, 15, 41, 0
17, 80640, Note_on_c, 15, 38, 44
17, 80879, Note_on_c, 15, 38, 0
17, 81000, Note_on_c, 15, 38, 45
17, 81239, Note_on_c, 15, 38, 0
17, 81360, Note_on_c, 15, 38, 46
17, 81599, Note_on_c, 15, 38, 0
17, 81720, Note_on_c, 15, 38, 47
17, 81959, Note_on_c, 15, 38, 0
17, 82080, Note_on_c, 15, 31, 48
17, 82319, Note_on_c, 15, 31, 0
17, 83520, Note_on_c, 15, 31, 48
17, 83759, Note_on_c, 15, 31, 0
17, 84960, Note_on_c, 15, 38, 48
17, 85199, Note_on_c, 15, 38, 0
17, 86400, Note_on_c, 15, 38, 48
17, 86639, Note_on_c, 15, 38, 0
17, 90720, Note_on_c, 15, 35, 48
17, 90959, Note_on_c, 15, 35, 0
17, 91080, Note_on_c, 15, 33, 48
17, 91319, Note_on_c, 15, 33, 0
17, 91440, Note_on_c, 15, 38, 48
17, 91679, Note_on_c, 15, 38, 0
17, 91800, Note_on_c, 15, 31, 48
17, 92039, Note_on_c, 15, 31, 0
17, 92160, Note_on_c, 15, 36, 48
17, 92399, Note_on_c, 15, 36, 0
17, 93360, Note_on_c, 15, 36, 48
17, 93479, Note_on_c, 15, 36, 0
17, 93480, Note_on_c, 15, 37, 48
17, 93599, Note_on_c, 15, 37, 0
17, 93600, Note_on_c, 15, 38, 48
17, 93839, Note_on_c, 15, 38, 0
17, 93960, Control_c, 15, 11, 81
17, 93960, Program_c, 15, 48
17, 94320, Note_on_c, 15, 38, 76
17, 94500, Control_c, 15, 11, 85
17, 94680, Control_c, 15, 11, 89
17, 94860, Control_c, 15, 11, 93
17, 95029, Note_on_c, 15, 38, 0
17, 95040, Control_c, 15, 11, 97
17, 95040, Note_on_c, 15, 43, 76
17, 95220, Control_c, 15, 11, 101
17, 95400, Control_c, 15, 11, 105
17, 95580, Control_c, 15, 11, 107
17, 95749, Note_on_c, 15, 43, 0
17, 95760, Control_c, 15, 11, 111
17, 95760, Note_on_c, 15, 38, 76
17, 95940, Control_c, 15, 11, 115
17, 96120, Control_c, 15, 11, 119
17, 96300, Control_c, 15, 11, 123
17, 96469, Note_on_c, 15, 38, 0
17, 96480, Note_on_c, 15, 43, 76
17, 96480, Control_c, 15, 11, 127
17, 97189, Note_on_c, 15, 43, 0
17, 97200, Control_c, 15, 11, 127
17, 97200, Note_on_c, 15, 41, 76
17, 97260, Control_c, 15, 11, 123
17, 97320, Control_c, 15, 11, 119
17, 97380, Control_c, 15, 11, 115
17, 97440, Control_c, 15, 11, 111
17, 97500, Control_c, 15, 11, 107
17, 97549, Note_on_c, 15, 41, 0
17, 97560, Note_on_c, 15, 34, 76
17, 97560, Control_c, 15, 11, 105
17, 97620, Control_c, 15, 11, 101
17, 97680, Control_c, 15, 11, 97
17, 97740, Control_c, 15, 11, 93
17, 97800, Control_c, 15, 11, 89
17, 97860, Control_c, 15, 11, 85
17, 97909, Note_on_c, 15, 34, 0
17, 97920, Note_on_c, 15, 39, 76
17, 97920, Control_c, 15, 11, 81
17, 98159, Note_on_c, 15, 39, 0
17, 99000, Control_c, 15, 11, 127
17, 99360, Note_on_c, 15, 39, 52
17, 99599, Note_on_c, 15, 39, 0
17, 100800, Note_on_c, 15, 34, 52
17, 101039, Note_on_c, 15, 34, 0
17, 102240, Note_on_c, 15, 34, 52
17, 102479, Note_on_c, 15, 34, 0
17, 106200, Program_c, 15, 45
17, 106560, Note_on_c, 15, 31, 48
17, 106799, Note_on_c, 15, 31, 0
17, 106920, Note_on_c, 15, 29, 48
17, 107159, Note_on_c, 15, 29, 0
17, 107280, Note_on_c, 15, 34, 48
17, 107519, Note_on_c, 15, 34, 0
17, 107640, Note_on_c, 15, 39, 48
17, 107879, Note_on_c, 15, 39, 0
17, 108000, Note_on_c, 15, 32, 48
17, 108239, Note_on_c, 15, 32, 0
17, 109200, Note_on_c, 15, 41, 48
17, 109319, Note_on_c, 15, 41, 0
17, 109320, Note_on_c, 15, 44, 48
17, 109439, Note_on_c, 15, 44, 0
17, 109440, Note_on_c, 15, 34, 48
17, 109679, Note_on_c, 15, 34, 0
17, 109800, Program_c, 15, 48
17, 109800, Control_c, 15, 11, 81
17, 110160, Note_on_c, 15, 34, 76
17, 110280, Control_c, 15, 11, 85
17, 110400, Control_c, 15, 11, 89
17, 110520, Control_c, 15, 11, 93
17, 110640, Control_c, 15, 11, 97
17, 110760, Control_c, 15, 11, 101
17, 110869, Note_on_c, 15, 34, 0
17, 110880, Note_on_c, 15, 39, 76
17, 110880, Control_c, 15, 11, 105
17, 111000, Control_c, 15, 11, 107
17, 111120, Control_c, 15, 11, 111
17, 111240, Control_c, 15, 11, 115
17, 111360, Control_c, 15, 11, 119
17, 111480, Control_c, 15, 11, 123
17, 111589, Note_on_c, 15, 39, 0
17, 111600, Control_c, 15, 11, 127
17, 111600, Note_on_c, 15, 37, 76
17, 111660, Control_c, 15, 11, 123
17, 111720, Control_c, 15, 11, 119
17, 111780, Control_c, 15, 11, 115
17, 111840, Control_c, 15, 11, 111
17, 111900, Control_c, 15, 11, 107
17, 111960, Control_c, 15, 11, 105
17, 112020, Control_c, 15, 11, 101
17, 112080, Control_c, 15, 11, 97
17, 112140, Control_c, 15, 11, 93
17, 112200, Control_c, 15, 11, 89
17, 112260, Control_c, 15, 11, 85
17, 112309, Note_on_c, 15, 37, 0
17, 112318, Control_c, 15, 11, 81
17, 112320, Note_on_c, 15, 30, 76
17, 112559, Note_on_c, 15, 30, 0
17, 113400, Program_c, 15, 45
17, 113400, Control_c, 15, 11, 127
17, 113760, Note_on_c, 15, 30, 48
17, 113999, Note_on_c, 15, 30, 0
17, 115200, Note_on_c, 15, 35, 48
17, 115439, Note_on_c, 15, 35, 0
17, 116640, Note_on_c, 15, 30, 48
17, 116879, Note_on_c, 15, 30, 0
17, 118080, Note_on_c, 15, 35, 48
17, 118319, Note_on_c, 15, 35, 0
17, 118800, Note_on_c, 15, 35, 48
17, 119039, Note_on_c, 15, 35, 0
17, 119160, Program_c, 15, 48
17, 119160, Control_c, 15, 11, 81
17, 119520, Note_on_c, 15, 35, 76
17, 119520, Control_c, 15, 11, 81
17, 119640, Control_c, 15, 11, 85
17, 119760, Control_c, 15, 11, 89
17, 119879, Note_on_c, 15, 35, 0
17, 119880, Control_c, 15, 11, 93
17, 119880, Note_on_c, 15, 31, 76
17, 120000, Control_c, 15, 11, 97
17, 120120, Control_c, 15, 11, 101
17, 120239, Note_on_c, 15, 31, 0
17, 120240, Control_c, 15, 11, 105
17, 120240, Note_on_c, 15, 36, 76
17, 120360, Control_c, 15, 11, 107
17, 120480, Control_c, 15, 11, 111
17, 120599, Note_on_c, 15, 36, 0
17, 120600, Control_c, 15, 11, 115
17, 120600, Note_on_c, 15, 34, 76
17, 120720, Control_c, 15, 11, 119
17, 120840, Control_c, 15, 11, 123
17, 120949, Note_on_c, 15, 34, 0
17, 120960, Control_c, 15, 11, 127
17, 120960, Note_on_c, 15, 33, 76
17, 121309, Note_on_c, 15, 33, 0
17, 121320, Note_on_c, 15, 29, 76
17, 121669, Note_on_c, 15, 29, 0
17, 121680, Note_on_c, 15, 34, 84
17, 122029, Note_on_c, 15, 34, 0
17, 122040, Note_on_c, 15, 36, 84
17, 122389, Note_on_c, 15, 36, 0
17, 122400, Control_c, 15, 11, 127
17, 122400, Note_on_c, 15, 29, 76
17, 122639, Note_on_c, 15, 29, 0
17, 123480, Program_c, 15, 45
17, 123840, Note_on_c, 15, 29, 58
17, 124079, Note_on_c, 15, 29, 0
17, 125280, Note_on_c, 15, 29, 48
17, 125519, Note_on_c, 15, 29, 0
17, 126000, Note_on_c, 15, 29, 48
17, 126239, Note_on_c, 15, 29, 0
17, 126720, Note_on_c, 15, 29, 48
17, 126959, Note_on_c, 15, 29, 0
17, 127440, Note_on_c, 15, 29, 48
17, 127679, Note_on_c, 15, 29, 0
17, 128160, Note_on_c, 15, 29, 48
17, 128399, Note_on_c, 15, 29, 0
17, 128520, Note_on_c, 15, 29, 48
17, 128759, Note_on_c, 15, 29, 0
17, 128880, Note_on_c, 15, 29, 48
17, 129119, Note_on_c, 15, 29, 0
17, 129240, Note_on_c, 15, 29, 58
17, 129479, Note_on_c, 15, 29, 0
17, 129480, Note_on_c, 15, 29, 64
17, 129599, Note_on_c, 15, 29, 0
17, 129600, Note_on_c, 15, 34, 48
17, 129839, Note_on_c, 15, 34, 0
17, 131040, Note_on_c, 15, 34, 48
17, 131279, Note_on_c, 15, 34, 0
17, 132480, Note_on_c, 15, 29, 48
17, 132719, Note_on_c, 15, 29, 0
17, 133920, Note_on_c, 15, 29, 48
17, 134159, Note_on_c, 15, 29, 0
17, 135120, Note_on_c, 15, 41, 48
17, 135239, Note_on_c, 15, 41, 0
17, 135240, Note_on_c, 15, 39, 48
17, 135359, Note_on_c, 15, 39, 0
17, 135360, Note_on_c, 15, 38, 48
17, 135599, Note_on_c, 15, 38, 0
17, 136080, Note_on_c, 15, 39, 58
17, 136319, Note_on_c, 15, 39, 0
17, 136800, Note_on_c, 15, 41, 68
17, 136860, Control_c, 15, 11, 81
17, 137039, Note_on_c, 15, 41, 0
17, 137520, Note_on_c, 15, 29, 78
17, 137759, Note_on_c, 15, 29, 0
17, 137880, Note_on_c, 15, 29, 78
17, 138119, Note_on_c, 15, 29, 0
17, 138240, Note_on_c, 15, 31, 68
17, 138479, Note_on_c, 15, 31, 0
17, 138840, Control_c, 15, 11, 127
17, 138960, Note_on_c, 15, 43, 48
17, 139199, Note_on_c, 15, 43, 0
17, 139320, Program_c, 15, 48
17, 139680, Note_on_c, 15, 36, 76
17, 139680, Control_c, 15, 11, 127
17, 139800, Control_c, 15, 11, 127
17, 139910, Control_c, 15, 11, 123
17, 140020, Control_c, 15, 11, 119
17, 140130, Control_c, 15, 11, 115
17, 140240, Control_c, 15, 11, 111
17, 140350, Control_c, 15, 11, 107
17, 140460, Control_c, 15, 11, 105
17, 140570, Control_c, 15, 11, 101
17, 140680, Control_c, 15, 11, 97
17, 140790, Control_c, 15, 11, 93
17, 140900, Control_c, 15, 11, 89
17, 141010, Control_c, 15, 11, 85
17, 141109, Note_on_c, 15, 36, 0
17, 141120, Control_c, 15, 11, 81
17, 141120, Note_on_c, 15, 29, 76
17, 141359, Note_on_c, 15, 29, 0
17, 141480, Control_c, 15, 11, 127
17, 141720, Program_c, 15, 45
17, 141840, Note_on_c, 15, 29, 48
17, 142079, Note_on_c, 15, 29, 0
17, 142560, Note_on_c, 15, 29, 48
17, 142799, Note_on_c, 15, 29, 0
17, 143280, Note_on_c, 15, 29, 48
17, 143519, Note_on_c, 15, 29, 0
17, 144000, Note_on_c, 15, 29, 48
17, 144239, Note_on_c, 15, 29, 0
17, 144360, Note_on_c, 15, 41, 58
17, 144599, Note_on_c, 15, 41, 0
17, 144720, Note_on_c, 15, 41, 68
17, 144959, Note_on_c, 15, 41, 0
17, 145080, Note_on_c, 15, 41, 58
17, 145319, Note_on_c, 15, 41, 0
17, 145440, Note_on_c, 15, 34, 48
17, 145679, Note_on_c, 15, 34, 0
17, 145800, Note_on_c, 15, 39, 48
17, 146039, Note_on_c, 15, 39, 0
17, 146160, Note_on_c, 15, 41, 48
17, 146399, Note_on_c, 15, 41, 0
17, 146520, Note_on_c, 15, 29, 48
17, 146759, Note_on_c, 15, 29, 0
17, 146880, Note_on_c, 15, 29, 48
17, 147119, Note_on_c, 15, 29, 0
17, 147240, Note_on_c, 15, 29, 58
17, 147479, Note_on_c, 15, 29, 0
17, 147600, Note_on_c, 15, 29, 68
17, 147839, Note_on_c, 15, 29, 0
17, 147960, Note_on_c, 15, 29, 58
17, 148199, Note_on_c, 15, 29, 0
17, 148320, Note_on_c, 15, 34, 48
17, 148559, Note_on_c, 15, 34, 0
17, 148680, Note_on_c, 15, 39, 48
17, 148919, Note_on_c, 15, 39, 0
17, 149040, Note_on_c, 15, 41, 48
17, 149279, Note_on_c, 15, 41, 0
17, 149400, Note_on_c, 15, 41, 48
17, 149639, Note_on_c, 15, 41, 0
17, 149760, Note_on_c, 15, 50, 48
17, 149999, Note_on_c, 15, 50, 0
17, 150120, Note_on_c, 15, 43, 48
17, 150359, Note_on_c, 15, 43, 0
17, 150480, Note_on_c, 15, 36, 48
17, 150719, Note_on_c, 15, 36, 0
17, 150840, Note_on_c, 15, 29, 48
17, 151079, Note_on_c, 15, 29, 0
17, 151200, Note_on_c, 15, 50, 48
17, 151439, Note_on_c, 15, 50, 0
17, 151560, Note_on_c, 15, 43, 48
17, 151799, Note_on_c, 15, 43, 0
17, 151920, Note_on_c, 15, 36, 48
17, 152159, Note_on_c, 15, 36, 0
17, 152280, Note_on_c, 15, 29, 48
17, 152519, Note_on_c, 15, 29, 0
17, 152640, Note_on_c, 15, 50, 48
17, 152879, Note_on_c, 15, 50, 0
17, 153000, Note_on_c, 15, 43, 48
17, 153239, Note_on_c, 15, 43, 0
17, 153360, Note_on_c, 15, 36, 48
17, 153599, Note_on_c, 15, 36, 0
17, 153720, Note_on_c, 15, 29, 48
17, 153959, Note_on_c, 15, 29, 0
17, 154080, Note_on_c, 15, 41, 50
17, 154319, Note_on_c, 15, 41, 0
17, 154440, Note_on_c, 15, 41, 53
17, 154679, Note_on_c, 15, 41, 0
17, 154800, Note_on_c, 15, 41, 55
17, 155039, Note_on_c, 15, 41, 0
17, 155160, Note_on_c, 15, 41, 58
17, 155399, Note_on_c, 15, 41, 0
17, 155520, Note_on_c, 15, 41, 60
17, 155759, Note_on_c, 15, 41, 0
17, 155880, Note_on_c, 15, 41, 63
17, 156119, Note_on_c, 15, 41, 0
17, 156240, Note_on_c, 15, 41, 65
17, 156479, Note_on_c, 15, 41, 0
17, 156600, Note_on_c, 15, 29, 68
17, 156839, Note_on_c, 15, 29, 0
17, 156958, Program_c, 15, 48
17, 156960, Note_on_c, 15, 29, 76
17, 157069, Note_on_c, 15, 29, 0
17, 157080, Note_on_c, 15, 29, 76
17, 157189, Note_on_c, 15, 29, 0
17, 157200, Note_on_c, 15, 29, 76
17, 157309, Note_on_c, 15, 29, 0
17, 157320, Note_on_c, 15, 29, 76
17, 157429, Note_on_c, 15, 29, 0
17, 157440, Note_on_c, 15, 29, 76
17, 157549, Note_on_c, 15, 29, 0
17, 157560, Note_on_c, 15, 29, 76
17, 157669, Note_on_c, 15, 29, 0
17, 157680, Note_on_c, 15, 29, 76
17, 157789, Note_on_c, 15, 29, 0
17, 157800, Note_on_c, 15, 29, 76
17, 157909, Note_on_c, 15, 29, 0
17, 157920, Note_on_c, 15, 29, 76
17, 158029, Note_on_c, 15, 29, 0
17, 158040, Note_on_c, 15, 29, 76
17, 158149, Note_on_c, 15, 29, 0
17, 158160, Note_on_c, 15, 29, 76
17, 158269, Note_on_c, 15, 29, 0
17, 158280, Note_on_c, 15, 29, 76
17, 158389, Note_on_c, 15, 29, 0
17, 158400, Note_on_c, 15, 29, 76
17, 158400, Control_c, 15, 11, 127
17, 158520, Control_c, 15, 11, 123
17, 158629, Note_on_c, 15, 29, 0
17, 158640, Control_c, 15, 11, 119
17, 158640, Note_on_c, 15, 29, 76
17, 158760, Control_c, 15, 11, 115
17, 158869, Note_on_c, 15, 29, 0
17, 158880, Note_on_c, 15, 29, 76
17, 158880, Control_c, 15, 11, 111
17, 159000, Control_c, 15, 11, 107
17, 159109, Note_on_c, 15, 29, 0
17, 159120, Note_on_c, 15, 29, 76
17, 159120, Control_c, 15, 11, 105
17, 159240, Control_c, 15, 11, 101
17, 159349, Note_on_c, 15, 29, 0
17, 159360, Control_c, 15, 11, 97
17, 159360, Note_on_c, 15, 29, 76
17, 159480, Control_c, 15, 11, 93
17, 159589, Note_on_c, 15, 29, 0
17, 159600, Control_c, 15, 11, 89
17, 159600, Note_on_c, 15, 29, 76
17, 159720, Control_c, 15, 11, 85
17, 159829, Note_on_c, 15, 29, 0
17, 159840, Control_c, 15, 11, 81
17, 159840, Note_on_c, 15, 29, 76
17, 160079, Note_on_c, 15, 29, 0
17, 160560, Control_c, 15, 11, 81
17, 160560, Note_on_c, 15, 41, 76
17, 160620, Control_c, 15, 11, 79
17, 160680, Control_c, 15, 11, 78
17, 160740, Control_c, 15, 11, 77
17, 160799, Note_on_c, 15, 41, 0
17, 160920, Program_c, 15, 45
17, 161220, Control_c, 15, 11, 127
17, 161280, Note_on_c, 15, 38, 44
17, 161519, Note_on_c, 15, 38, 0
17, 161640, Note_on_c, 15, 31, 44
17, 161879, Note_on_c, 15, 31, 0
17, 162000, Note_on_c, 15, 36, 44
17, 162239, Note_on_c, 15, 36, 0
17, 162360, Note_on_c, 15, 29, 44
17, 162599, Note_on_c, 15, 29, 0
17, 162720, Note_on_c, 15, 38, 44
17, 162959, Note_on_c, 15, 38, 0
17, 163080, Note_on_c, 15, 31, 44
17, 163319, Note_on_c, 15, 31, 0
17, 163440, Note_on_c, 15, 36, 44
17, 163679, Note_on_c, 15, 36, 0
17, 163800, Note_on_c, 15, 29, 44
17, 164039, Note_on_c, 15, 29, 0
17, 164160, Note_on_c, 15, 29, 50
17, 164399, Note_on_c, 15, 29, 0
17, 164520, Note_on_c, 15, 29, 56
17, 164759, Note_on_c, 15, 29, 0
17, 164880, Note_on_c, 15, 29, 62
17, 165119, Note_on_c, 15, 29, 0
17, 165240, Note_on_c, 15, 29, 68
17, 165479, Note_on_c, 15, 29, 0
17, 165598, Program_c, 15, 48
17, 165600, Note_on_c, 15, 29, 76
17, 165709, Note_on_c, 15, 29, 0
17, 165720, Note_on_c, 15, 29, 76
17, 165829, Note_on_c, 15, 29, 0
17, 165840, Note_on_c, 15, 29, 76
17, 165949, Note_on_c, 15, 29, 0
17, 165960, Note_on_c, 15, 29, 76
17, 166069, Note_on_c, 15, 29, 0
17, 166080, Note_on_c, 15, 29, 76
17, 166189, Note_on_c, 15, 29, 0
17, 166200, Note_on_c, 15, 29, 76
17, 166309, Note_on_c, 15, 29, 0
17, 166320, Note_on_c, 15, 29, 76
17, 166429, Note_on_c, 15, 29, 0
17, 166440, Note_on_c, 15, 29, 76
17, 166549, Note_on_c, 15, 29, 0
17, 166560, Note_on_c, 15, 29, 76
17, 166669, Note_on_c, 15, 29, 0
17, 166680, Note_on_c, 15, 29, 76
17, 166789, Note_on_c, 15, 29, 0
17, 166800, Note_on_c, 15, 29, 76
17, 166909, Note_on_c, 15, 29, 0
17, 166920, Note_on_c, 15, 29, 76
17, 167029, Note_on_c, 15, 29, 0
17, 167040, Note_on_c, 15, 29, 84
17, 167159, Note_on_c, 15, 29, 0
17, 167160, Note_on_c, 15, 29, 76
17, 167279, Note_on_c, 15, 29, 0
17, 167280, Note_on_c, 15, 29, 64
17, 167399, Note_on_c, 15, 29, 0
17, 167400, Note_on_c, 15, 29, 52
17, 167519, Note_on_c, 15, 29, 0
17, 169560, Program_c, 15, 45
17, 169680, Note_on_c, 15, 34, 48
17, 169799, Note_on_c, 15, 34, 0
17, 169800, Note_on_c, 15, 27, 48
17, 169919, Note_on_c, 15, 27, 0
17, 169920, Note_on_c, 15, 29, 48
17, 170159, Note_on_c, 15, 29, 0
17, 170280, Program_c, 15, 48
17, 170280, Control_c, 15, 11, 81
17, 170640, Note_on_c, 15, 41, 76
17, 170880, Control_c, 15, 11, 85
17, 171120, Control_c, 15, 11, 89
17, 171349, Note_on_c, 15, 41, 0
17, 171360, Note_on_c, 15, 46, 76
17, 171360, Control_c, 15, 11, 93
17, 171600, Control_c, 15, 11, 97
17, 171840, Control_c, 15, 11, 101
17, 172069, Note_on_c, 15, 46, 0
17, 172080, Control_c, 15, 11, 105
17, 172080, Note_on_c, 15, 41, 76
17, 172320, Control_c, 15, 11, 107
17, 172560, Control_c, 15, 11, 111
17, 172789, Note_on_c, 15, 41, 0
17, 172800, Control_c, 15, 11, 115
17, 172800, Note_on_c, 15, 34, 76
17, 173040, Control_c, 15, 11, 119
17, 173280, Control_c, 15, 11, 123
17, 173389, Note_on_c, 15, 34, 0
17, 173400, Note_on_c, 15, 41, 76
17, 173509, Note_on_c, 15, 41, 0
17, 173520, Control_c, 15, 11, 127
17, 173520, Note_on_c, 15, 29, 84
17, 173749, Note_on_c, 15, 29, 0
17, 173760, Note_on_c, 15, 41, 76
17, 173879, Note_on_c, 15, 41, 0
17, 173880, Control_c, 15, 11, 127
17, 173880, Note_on_c, 15, 39, 76
17, 173910, Control_c, 15, 11, 123
17, 173940, Control_c, 15, 11, 119
17, 173970, Control_c, 15, 11, 115
17, 173999, Note_on_c, 15, 39, 0
17, 174000, Control_c, 15, 11, 111
17, 174000, Note_on_c, 15, 38, 76
17, 174030, Control_c, 15, 11, 107
17, 174060, Control_c, 15, 11, 105
17, 174090, Control_c, 15, 11, 101
17, 174119, Note_on_c, 15, 38, 0
17, 174120, Note_on_c, 15, 36, 76
17, 174120, Control_c, 15, 11, 97
17, 174150, Control_c, 15, 11, 93
17, 174180, Control_c, 15, 11, 89
17, 174210, Control_c, 15, 11, 85
17, 174229, Note_on_c, 15, 36, 0
17, 174238, Control_c, 15, 11, 81
17, 174240, Note_on_c, 15, 34, 76
17, 174479, Note_on_c, 15, 34, 0
17, 174960, Control_c, 15, 11, 127
17, 175320, Note_on_c, 15, 29, 52
17, 175320, Control_c, 15, 11, 127
17, 175350, Control_c, 15, 11, 127
17, 175380, Control_c, 15, 11, 126
17, 175410, Control_c, 15, 11, 123
17, 175440, Control_c, 15, 11, 123
17, 175470, Control_c, 15, 11, 122
17, 175500, Control_c, 15, 11, 121
17, 175530, Control_c, 15, 11, 119
17, 175560, Control_c, 15, 11, 118
17, 175590, Control_c, 15, 11, 117
17, 175620, Control_c, 15, 11, 115
17, 175650, Control_c, 15, 11, 114
17, 175669, Note_on_c, 15, 29, 0
17, 175678, Control_c, 15, 11, 127
17, 175680, Note_on_c, 15, 34, 52
17, 175919, Note_on_c, 15, 34, 0
17, 176760, Note_on_c, 15, 29, 52
17, 176760, Control_c, 15, 11, 127
17, 176790, Control_c, 15, 11, 127
17, 176820, Control_c, 15, 11, 126
17, 176850, Control_c, 15, 11, 123
17, 176880, Control_c, 15, 11, 123
17, 176910, Control_c, 15, 11, 122
17, 176940, Control_c, 15, 11, 121
17, 176970, Control_c, 15, 11, 119
17, 177000, Control_c, 15, 11, 118
17, 177030, Control_c, 15, 11, 117
17, 177060, Control_c, 15, 11, 115
17, 177090, Control_c, 15, 11, 114
17, 177109, Note_on_c, 15, 29, 0
17, 177118, Control_c, 15, 11, 127
17, 177120, Note_on_c, 15, 34, 52
17, 177359, Note_on_c, 15, 34, 0
17, 177480, Program_c, 15, 45
17, 177840, Note_on_c, 15, 34, 48
17, 178079, Note_on_c, 15, 34, 0
17, 178560, Note_on_c, 15, 34, 48
17, 178799, Note_on_c, 15, 34, 0
17, 179640, Note_on_c, 15, 46, 48
17, 179879, Note_on_c, 15, 46, 0
17, 180000, Note_on_c, 15, 39, 48
17, 180239, Note_on_c, 15, 39, 0
17, 181080, Note_on_c, 15, 39, 48
17, 181319, Note_on_c, 15, 39, 0
17, 181440, Note_on_c, 15, 34, 48
17, 181679, Note_on_c, 15, 34, 0
17, 182520, Note_on_c, 15, 46, 48
17, 182759, Note_on_c, 15, 46, 0
17, 182880, Note_on_c, 15, 39, 48
17, 183119, Note_on_c, 15, 39, 0
17, 183960, Note_on_c, 15, 39, 48
17, 184199, Note_on_c, 15, 39, 0
17, 184320, Note_on_c, 15, 34, 48
17, 184559, Note_on_c, 15, 34, 0
17, 189240, Program_c, 15, 48
17, 189360, Note_on_c, 15, 29, 52
17, 190069, Note_on_c, 15, 29, 0
17, 190080, Note_on_c, 15, 34, 52
17, 190319, Note_on_c, 15, 34, 0
17, 195120, Note_on_c, 15, 29, 44
17, 195829, Note_on_c, 15, 29, 0
17, 195840, Note_on_c, 15, 31, 44
17, 196199, Note_on_c, 15, 31, 0
17, 196560, Note_on_c, 15, 39, 44
17, 196919, Note_on_c, 15, 39, 0
17, 196920, Control_c, 15, 11, 65
17, 197280, Note_on_c, 15, 41, 76
17, 197340, Control_c, 15, 11, 70
17, 197400, Control_c, 15, 11, 75
17, 197460, Control_c, 15, 11, 81
17, 197520, Control_c, 15, 11, 86
17, 197580, Control_c, 15, 11, 91
17, 197640, Control_c, 15, 11, 97
17, 197700, Control_c, 15, 11, 102
17, 197760, Control_c, 15, 11, 107
17, 197820, Control_c, 15, 11, 111
17, 197880, Control_c, 15, 11, 118
17, 197940, Control_c, 15, 11, 123
17, 197989, Note_on_c, 15, 41, 0
17, 197998, Control_c, 15, 11, 127
17, 198000, Note_on_c, 15, 34, 84
17, 198239, Note_on_c, 15, 34, 0
17, 198360, Program_c, 15, 45
17, 198720, Note_on_c, 15, 34, 44
17, 198959, Note_on_c, 15, 34, 0
17, 199080, Note_on_c, 15, 34, 44
17, 199319, Note_on_c, 15, 34, 0
17, 199440, Note_on_c, 15, 34, 44
17, 199679, Note_on_c, 15, 34, 0
17, 200160, Program_c, 15, 48
17, 200160, End_track
18, 0, Start_track
18, 0, Title_t, "Ludwig van Beethoven - Symphony No. 6 in F Major, Op.68 - 2. Andante molto moto"
18, 0, MIDI_port, 0
18, 0, End_track
0, 0, End_of_file
