0, 0, Header, 1, 21, 240
1, 0, Start_track
1, 0, Sequencer_specific, 10, 0, 0, 91, 35, 1, 0, 5, 6, 42, 0
1, 0, Title_t, "Ludwig van Beethoven - Symphony No. 6 in F Major, Op.68"
1, 0, Instrument_name_t, "Conductor Track"
1, 0, SMPTE_offset, 96, 0, 3, 0, 0
1, 0, MIDI_port, 0
1, 0, Key_signature, -4, "minor"
1, 0, Tempo, 375000
1, 0, Time_signature, 4, 2, 24, 8
1, 0, End_track
2, 0, Start_track
2, 0, Title_t, "4th Movement - Thunderstorm"
2, 0, MIDI_port, 0
2, 0, End_track
3, 0, Start_track
3, 0, Title_t, "(Gewitter. Sturm)"
3, 0, MIDI_port, 0
3, 0, End_track
4, 0, Start_track
4, 0, Title_t, "Sequenced by D. L. Viens 8 Aug 2000"
4, 0, MIDI_port, 0
4, 0, End_track
5, 0, Start_track
5, 0, Title_t, "dlviens@empire.net"
5, 0, MIDI_port, 0
5, 0, End_track
6, 0, Start_track
6, 0, MIDI_port, 0
6, 0, End_track
7, 0, Start_track
7, 0, Title_t, "Piccolo"
7, 0, MIDI_port, 0
7, 0, Program_c, 0, 72
7, 0, Control_c, 0, 7, 72
7, 0, Control_c, 0, 10, 55
7, 0, Control_c, 0, 11, 127
7, 77760, Note_on_c, 0, 92, 76
7, 78959, Note_on_c, 0, 92, 0
7, 80640, Note_on_c, 0, 94, 92
7, 80700, Control_c, 0, 11, 112
7, 81839, Note_on_c, 0, 94, 0
7, 82560, Control_c, 0, 11, 127
7, 83520, Note_on_c, 0, 94, 84
7, 83984, Note_on_c, 0, 94, 0
7, 84000, Note_on_c, 0, 96, 84
7, 84464, Note_on_c, 0, 96, 0
7, 84480, Note_on_c, 0, 97, 84
7, 85679, Note_on_c, 0, 97, 0
7, 86400, Note_on_c, 0, 94, 84
7, 87599, Note_on_c, 0, 94, 0
7, 88320, Note_on_c, 0, 102, 84
7, 90119, Note_on_c, 0, 102, 0
7, 90120, Note_on_c, 0, 103, 84
7, 90224, Note_on_c, 0, 103, 0
7, 90240, Note_on_c, 0, 103, 84
7, 90479, Note_on_c, 0, 103, 0
7, 91920, Control_c, 0, 11, 80
7, 92160, Note_on_c, 0, 91, 76
7, 92213, Control_c, 0, 11, 81
7, 92267, Control_c, 0, 11, 83
7, 92320, Control_c, 0, 11, 84
7, 92373, Control_c, 0, 11, 85
7, 92427, Control_c, 0, 11, 87
7, 92480, Control_c, 0, 11, 88
7, 92533, Control_c, 0, 11, 89
7, 92587, Control_c, 0, 11, 90
7, 92640, Control_c, 0, 11, 92
7, 92693, Control_c, 0, 11, 93
7, 92747, Control_c, 0, 11, 94
7, 92800, Control_c, 0, 11, 96
7, 92853, Control_c, 0, 11, 97
7, 92907, Control_c, 0, 11, 98
7, 92960, Control_c, 0, 11, 100
7, 93013, Control_c, 0, 11, 101
7, 93067, Control_c, 0, 11, 102
7, 93120, Control_c, 0, 11, 104
7, 93173, Control_c, 0, 11, 105
7, 93227, Control_c, 0, 11, 106
7, 93280, Control_c, 0, 11, 107
7, 93333, Control_c, 0, 11, 109
7, 93387, Control_c, 0, 11, 110
7, 93440, Control_c, 0, 11, 111
7, 93493, Control_c, 0, 11, 113
7, 93547, Control_c, 0, 11, 114
7, 93600, Control_c, 0, 11, 115
7, 93653, Control_c, 0, 11, 117
7, 93707, Control_c, 0, 11, 118
7, 93760, Control_c, 0, 11, 119
7, 93813, Control_c, 0, 11, 120
7, 93867, Control_c, 0, 11, 122
7, 93920, Control_c, 0, 11, 123
7, 93973, Control_c, 0, 11, 124
7, 94027, Control_c, 0, 11, 126
7, 94080, Control_c, 0, 11, 127
7, 94319, Note_on_c, 0, 91, 0
7, 95760, Control_c, 0, 11, 80
7, 96000, Note_on_c, 0, 91, 76
7, 96053, Control_c, 0, 11, 81
7, 96107, Control_c, 0, 11, 83
7, 96160, Control_c, 0, 11, 84
7, 96213, Control_c, 0, 11, 85
7, 96267, Control_c, 0, 11, 87
7, 96320, Control_c, 0, 11, 88
7, 96373, Control_c, 0, 11, 89
7, 96427, Control_c, 0, 11, 90
7, 96480, Control_c, 0, 11, 92
7, 96533, Control_c, 0, 11, 93
7, 96587, Control_c, 0, 11, 94
7, 96640, Control_c, 0, 11, 96
7, 96693, Control_c, 0, 11, 97
7, 96747, Control_c, 0, 11, 98
7, 96800, Control_c, 0, 11, 100
7, 96853, Control_c, 0, 11, 101
7, 96907, Control_c, 0, 11, 102
7, 96960, Control_c, 0, 11, 104
7, 97013, Control_c, 0, 11, 105
7, 97067, Control_c, 0, 11, 106
7, 97120, Control_c, 0, 11, 107
7, 97173, Control_c, 0, 11, 109
7, 97227, Control_c, 0, 11, 110
7, 97280, Control_c, 0, 11, 111
7, 97333, Control_c, 0, 11, 113
7, 97387, Control_c, 0, 11, 114
7, 97440, Control_c, 0, 11, 115
7, 97493, Control_c, 0, 11, 117
7, 97547, Control_c, 0, 11, 118
7, 97600, Control_c, 0, 11, 119
7, 97653, Control_c, 0, 11, 120
7, 97707, Control_c, 0, 11, 122
7, 97760, Control_c, 0, 11, 123
7, 97813, Control_c, 0, 11, 124
7, 97867, Control_c, 0, 11, 126
7, 97920, Control_c, 0, 11, 127
7, 98159, Note_on_c, 0, 91, 0
7, 101400, Note_on_c, 0, 95, 76
7, 101504, Note_on_c, 0, 95, 0
7, 101520, Note_on_c, 0, 96, 84
7, 103679, Note_on_c, 0, 96, 0
7, 103680, Note_on_c, 0, 96, 84
7, 106799, Note_on_c, 0, 96, 0
7, 110400, Note_on_c, 0, 89, 92
7, 110460, Control_c, 0, 11, 112
7, 112304, Note_on_c, 0, 89, 0
7, 112318, Control_c, 0, 11, 127
7, 112320, Note_on_c, 0, 91, 92
7, 112380, Control_c, 0, 11, 112
7, 112430, Control_c, 0, 11, 108
7, 112480, Control_c, 0, 11, 105
7, 112530, Control_c, 0, 11, 101
7, 112580, Control_c, 0, 11, 98
7, 112630, Control_c, 0, 11, 94
7, 112680, Control_c, 0, 11, 91
7, 112730, Control_c, 0, 11, 87
7, 112780, Control_c, 0, 11, 84
7, 112830, Control_c, 0, 11, 80
7, 112880, Control_c, 0, 11, 76
7, 112930, Control_c, 0, 11, 73
7, 112980, Control_c, 0, 11, 69
7, 113030, Control_c, 0, 11, 66
7, 113080, Control_c, 0, 11, 62
7, 113130, Control_c, 0, 11, 59
7, 113180, Control_c, 0, 11, 55
7, 113230, Control_c, 0, 11, 48
7, 113264, Note_on_c, 0, 91, 0
7, 113280, Note_on_c, 0, 89, 92
7, 113519, Note_on_c, 0, 89, 0
7, 113519, End_track
8, 0, Start_track
8, 0, Title_t, "Flute"
8, 0, MIDI_port, 0
8, 0, Program_c, 1, 73
8, 0, Control_c, 1, 7, 72
8, 0, Control_c, 1, 10, 60
8, 0, Control_c, 1, 11, 127
8, 8640, Note_on_c, 1, 77, 52
8, 9599, Note_on_c, 1, 77, 0
8, 18187, Control_c, 1, 11, 94
8, 18240, Note_on_c, 1, 82, 84
8, 18240, Control_c, 1, 11, 96
8, 18293, Control_c, 1, 11, 97
8, 18347, Control_c, 1, 11, 99
8, 18400, Control_c, 1, 11, 101
8, 18453, Control_c, 1, 11, 103
8, 18507, Control_c, 1, 11, 104
8, 18560, Control_c, 1, 11, 106
8, 18613, Control_c, 1, 11, 108
8, 18667, Control_c, 1, 11, 110
8, 18720, Control_c, 1, 11, 111
8, 18773, Control_c, 1, 11, 113
8, 18827, Control_c, 1, 11, 115
8, 18880, Control_c, 1, 11, 117
8, 18933, Control_c, 1, 11, 118
8, 18987, Control_c, 1, 11, 120
8, 19040, Control_c, 1, 11, 122
8, 19093, Control_c, 1, 11, 124
8, 19147, Control_c, 1, 11, 127
8, 19184, Note_on_c, 1, 82, 0
8, 19200, Note_on_c, 1, 77, 84
8, 19200, Note_on_c, 1, 89, 84
8, 21104, Note_on_c, 1, 77, 0
8, 21104, Note_on_c, 1, 89, 0
8, 21120, Note_on_c, 1, 77, 84
8, 21120, Note_on_c, 1, 89, 84
8, 23024, Note_on_c, 1, 77, 0
8, 23024, Note_on_c, 1, 89, 0
8, 23040, Note_on_c, 1, 85, 84
8, 23040, Note_on_c, 1, 88, 84
8, 24944, Note_on_c, 1, 85, 0
8, 24944, Note_on_c, 1, 88, 0
8, 24960, Note_on_c, 1, 88, 84
8, 24960, Note_on_c, 1, 85, 84
8, 26864, Note_on_c, 1, 88, 0
8, 26864, Note_on_c, 1, 85, 0
8, 26880, Note_on_c, 1, 90, 84
8, 26880, Note_on_c, 1, 84, 84
8, 27104, Note_on_c, 1, 84, 0
8, 27120, Note_on_c, 1, 87, 84
8, 28784, Note_on_c, 1, 90, 0
8, 28784, Note_on_c, 1, 87, 0
8, 28800, Note_on_c, 1, 87, 84
8, 28800, Note_on_c, 1, 90, 84
8, 30704, Note_on_c, 1, 87, 0
8, 30704, Note_on_c, 1, 90, 0
8, 30720, Note_on_c, 1, 85, 92
8, 30839, Note_on_c, 1, 85, 0
8, 30960, Note_on_c, 1, 82, 84
8, 30960, Note_on_c, 1, 85, 84
8, 31079, Note_on_c, 1, 82, 0
8, 31079, Note_on_c, 1, 85, 0
8, 31680, Note_on_c, 1, 86, 92
8, 31680, Note_on_c, 1, 80, 92
8, 31799, Note_on_c, 1, 86, 0
8, 31799, Note_on_c, 1, 80, 0
8, 31920, Note_on_c, 1, 89, 84
8, 31920, Note_on_c, 1, 86, 84
8, 32039, Note_on_c, 1, 89, 0
8, 32039, Note_on_c, 1, 86, 0
8, 32640, Note_on_c, 1, 84, 84
8, 32640, Note_on_c, 1, 88, 84
8, 32879, Note_on_c, 1, 84, 0
8, 32879, Note_on_c, 1, 88, 0
8, 33120, Note_on_c, 1, 84, 92
8, 33120, Note_on_c, 1, 72, 92
8, 33180, Control_c, 1, 11, 112
8, 33839, Note_on_c, 1, 84, 0
8, 33839, Note_on_c, 1, 72, 0
8, 34320, Control_c, 1, 11, 127
8, 34560, Note_on_c, 1, 80, 84
8, 34799, Note_on_c, 1, 80, 0
8, 35040, Note_on_c, 1, 80, 92
8, 35040, Note_on_c, 1, 92, 92
8, 35100, Control_c, 1, 11, 112
8, 35759, Note_on_c, 1, 80, 0
8, 35759, Note_on_c, 1, 92, 0
8, 36240, Control_c, 1, 11, 127
8, 36480, Note_on_c, 1, 65, 84
8, 36480, Note_on_c, 1, 77, 84
8, 36719, Note_on_c, 1, 65, 0
8, 36719, Note_on_c, 1, 77, 0
8, 36960, Note_on_c, 1, 77, 92
8, 36960, Note_on_c, 1, 89, 92
8, 37020, Control_c, 1, 11, 112
8, 37304, Note_on_c, 1, 77, 0
8, 37304, Note_on_c, 1, 89, 0
8, 37320, Note_on_c, 1, 72, 92
8, 37320, Note_on_c, 1, 84, 92
8, 37424, Note_on_c, 1, 72, 0
8, 37424, Note_on_c, 1, 84, 0
8, 37438, Control_c, 1, 11, 127
8, 37440, Note_on_c, 1, 85, 84
8, 37440, Note_on_c, 1, 73, 84
8, 37544, Note_on_c, 1, 85, 0
8, 37544, Note_on_c, 1, 73, 0
8, 37560, Note_on_c, 1, 80, 84
8, 37664, Note_on_c, 1, 80, 0
8, 37680, Note_on_c, 1, 82, 84
8, 37784, Note_on_c, 1, 82, 0
8, 37800, Note_on_c, 1, 77, 84
8, 37904, Note_on_c, 1, 77, 0
8, 37920, Note_on_c, 1, 78, 84
8, 38024, Note_on_c, 1, 78, 0
8, 38040, Note_on_c, 1, 77, 84
8, 38144, Note_on_c, 1, 77, 0
8, 38160, Note_on_c, 1, 77, 84
8, 38264, Note_on_c, 1, 77, 0
8, 38280, Note_on_c, 1, 75, 84
8, 38384, Note_on_c, 1, 75, 0
8, 38400, Note_on_c, 1, 73, 52
8, 38639, Note_on_c, 1, 73, 0
8, 40560, Note_on_c, 1, 89, 84
8, 40560, Note_on_c, 1, 85, 84
8, 40679, Note_on_c, 1, 89, 0
8, 40679, Note_on_c, 1, 85, 0
8, 44400, Note_on_c, 1, 86, 84
8, 44400, Note_on_c, 1, 89, 84
8, 44519, Note_on_c, 1, 86, 0
8, 44519, Note_on_c, 1, 89, 0
8, 48240, Note_on_c, 1, 87, 76
8, 48240, Note_on_c, 1, 84, 76
8, 48359, Note_on_c, 1, 87, 0
8, 48359, Note_on_c, 1, 84, 0
8, 49200, Note_on_c, 1, 84, 76
8, 49200, Note_on_c, 1, 87, 76
8, 49319, Note_on_c, 1, 84, 0
8, 49319, Note_on_c, 1, 87, 0
8, 50160, Note_on_c, 1, 82, 84
8, 50160, Note_on_c, 1, 85, 84
8, 50279, Note_on_c, 1, 82, 0
8, 50279, Note_on_c, 1, 85, 0
8, 51120, Note_on_c, 1, 83, 76
8, 51120, Note_on_c, 1, 86, 76
8, 51239, Note_on_c, 1, 83, 0
8, 51239, Note_on_c, 1, 86, 0
8, 52080, Note_on_c, 1, 87, 80
8, 52080, Note_on_c, 1, 84, 80
8, 52199, Note_on_c, 1, 87, 0
8, 52199, Note_on_c, 1, 84, 0
8, 52560, Note_on_c, 1, 88, 80
8, 52560, Note_on_c, 1, 84, 80
8, 52679, Note_on_c, 1, 88, 0
8, 52679, Note_on_c, 1, 84, 0
8, 52800, Note_on_c, 1, 85, 80
8, 52800, Note_on_c, 1, 88, 80
8, 52919, Note_on_c, 1, 85, 0
8, 52919, Note_on_c, 1, 88, 0
8, 56640, Note_on_c, 1, 85, 52
8, 56640, Note_on_c, 1, 88, 52
8, 58559, Note_on_c, 1, 85, 0
8, 58559, Note_on_c, 1, 88, 0
8, 64320, Note_on_c, 1, 72, 44
8, 64320, Note_on_c, 1, 84, 44
8, 66479, Note_on_c, 1, 72, 0
8, 66479, Note_on_c, 1, 84, 0
8, 67320, Note_on_c, 1, 87, 44
8, 67409, Note_on_c, 1, 87, 0
8, 67440, Note_on_c, 1, 89, 44
8, 67529, Note_on_c, 1, 89, 0
8, 67560, Note_on_c, 1, 87, 44
8, 67649, Note_on_c, 1, 87, 0
8, 67680, Note_on_c, 1, 85, 44
8, 67769, Note_on_c, 1, 85, 0
8, 67800, Note_on_c, 1, 84, 44
8, 67889, Note_on_c, 1, 84, 0
8, 67920, Note_on_c, 1, 82, 44
8, 68009, Note_on_c, 1, 82, 0
8, 68040, Note_on_c, 1, 81, 44
8, 68129, Note_on_c, 1, 81, 0
8, 69240, Note_on_c, 1, 87, 52
8, 69329, Note_on_c, 1, 87, 0
8, 69360, Note_on_c, 1, 89, 53
8, 69449, Note_on_c, 1, 89, 0
8, 69480, Note_on_c, 1, 87, 54
8, 69569, Note_on_c, 1, 87, 0
8, 69600, Note_on_c, 1, 85, 55
8, 69689, Note_on_c, 1, 85, 0
8, 69720, Note_on_c, 1, 84, 56
8, 69809, Note_on_c, 1, 84, 0
8, 69840, Note_on_c, 1, 82, 56
8, 69929, Note_on_c, 1, 82, 0
8, 69960, Note_on_c, 1, 81, 57
8, 70049, Note_on_c, 1, 81, 0
8, 71160, Note_on_c, 1, 89, 65
8, 71264, Note_on_c, 1, 89, 0
8, 71280, Note_on_c, 1, 90, 66
8, 71384, Note_on_c, 1, 90, 0
8, 71400, Note_on_c, 1, 89, 67
8, 71504, Note_on_c, 1, 89, 0
8, 71520, Note_on_c, 1, 87, 68
8, 71624, Note_on_c, 1, 87, 0
8, 71640, Note_on_c, 1, 85, 68
8, 71744, Note_on_c, 1, 85, 0
8, 71760, Note_on_c, 1, 84, 69
8, 71864, Note_on_c, 1, 84, 0
8, 71880, Note_on_c, 1, 82, 70
8, 71999, Note_on_c, 1, 82, 0
8, 73080, Note_on_c, 1, 89, 78
8, 73184, Note_on_c, 1, 89, 0
8, 73200, Note_on_c, 1, 91, 79
8, 73304, Note_on_c, 1, 91, 0
8, 73320, Note_on_c, 1, 89, 80
8, 73424, Note_on_c, 1, 89, 0
8, 73440, Note_on_c, 1, 87, 80
8, 73544, Note_on_c, 1, 87, 0
8, 73560, Note_on_c, 1, 86, 81
8, 73664, Note_on_c, 1, 86, 0
8, 73680, Note_on_c, 1, 84, 82
8, 73784, Note_on_c, 1, 84, 0
8, 73800, Note_on_c, 1, 83, 83
8, 73904, Note_on_c, 1, 83, 0
8, 73920, Note_on_c, 1, 91, 84
8, 73920, Note_on_c, 1, 79, 84
8, 74144, Note_on_c, 1, 91, 0
8, 74144, Note_on_c, 1, 79, 0
8, 74160, Note_on_c, 1, 91, 92
8, 74160, Note_on_c, 1, 79, 92
8, 74220, Control_c, 1, 11, 112
8, 75104, Note_on_c, 1, 91, 0
8, 75104, Note_on_c, 1, 79, 0
8, 75118, Control_c, 1, 11, 127
8, 75120, Note_on_c, 1, 91, 92
8, 75120, Note_on_c, 1, 79, 92
8, 75180, Control_c, 1, 11, 112
8, 76064, Note_on_c, 1, 91, 0
8, 76064, Note_on_c, 1, 79, 0
8, 76078, Control_c, 1, 11, 127
8, 76080, Note_on_c, 1, 91, 92
8, 76080, Note_on_c, 1, 79, 92
8, 76140, Control_c, 1, 11, 112
8, 76784, Note_on_c, 1, 91, 0
8, 76784, Note_on_c, 1, 79, 0
8, 76798, Control_c, 1, 11, 127
8, 76800, Note_on_c, 1, 80, 84
8, 76800, Note_on_c, 1, 92, 84
8, 77024, Note_on_c, 1, 80, 0
8, 77024, Note_on_c, 1, 92, 0
8, 77040, Note_on_c, 1, 80, 92
8, 77040, Note_on_c, 1, 92, 92
8, 77100, Control_c, 1, 11, 112
8, 77984, Note_on_c, 1, 80, 0
8, 77984, Note_on_c, 1, 92, 0
8, 77998, Control_c, 1, 11, 127
8, 78000, Note_on_c, 1, 80, 92
8, 78000, Note_on_c, 1, 92, 92
8, 78060, Control_c, 1, 11, 112
8, 78944, Note_on_c, 1, 80, 0
8, 78944, Note_on_c, 1, 92, 0
8, 78958, Control_c, 1, 11, 127
8, 78960, Note_on_c, 1, 80, 92
8, 78960, Note_on_c, 1, 92, 92
8, 79020, Control_c, 1, 11, 112
8, 79904, Note_on_c, 1, 80, 0
8, 79904, Note_on_c, 1, 92, 0
8, 79918, Control_c, 1, 11, 127
8, 79920, Note_on_c, 1, 80, 92
8, 79920, Note_on_c, 1, 92, 92
8, 79980, Control_c, 1, 11, 112
8, 80384, Note_on_c, 1, 80, 0
8, 80384, Note_on_c, 1, 92, 0
8, 80400, Note_on_c, 1, 93, 92
8, 80400, Note_on_c, 1, 81, 92
8, 80639, Note_on_c, 1, 93, 0
8, 80639, Note_on_c, 1, 81, 0
8, 80880, Note_on_c, 1, 86, 92
8, 80880, Note_on_c, 1, 89, 92
8, 80940, Control_c, 1, 11, 112
8, 81824, Note_on_c, 1, 86, 0
8, 81824, Note_on_c, 1, 89, 0
8, 81838, Control_c, 1, 11, 127
8, 81840, Note_on_c, 1, 89, 92
8, 81840, Note_on_c, 1, 86, 92
8, 81900, Control_c, 1, 11, 112
8, 82559, Note_on_c, 1, 89, 0
8, 82559, Note_on_c, 1, 86, 0
8, 82560, Control_c, 1, 11, 127
8, 82800, Note_on_c, 1, 87, 92
8, 82800, Note_on_c, 1, 90, 92
8, 82860, Control_c, 1, 11, 112
8, 83264, Note_on_c, 1, 87, 0
8, 83264, Note_on_c, 1, 90, 0
8, 83280, Note_on_c, 1, 92, 92
8, 83280, Note_on_c, 1, 86, 92
8, 83519, Note_on_c, 1, 92, 0
8, 83519, Note_on_c, 1, 86, 0
8, 83520, Control_c, 1, 11, 127
8, 83760, Note_on_c, 1, 87, 92
8, 83760, Note_on_c, 1, 90, 92
8, 83820, Control_c, 1, 11, 112
8, 84224, Note_on_c, 1, 87, 0
8, 84224, Note_on_c, 1, 90, 0
8, 84240, Note_on_c, 1, 92, 92
8, 84240, Note_on_c, 1, 90, 92
8, 84464, Note_on_c, 1, 92, 0
8, 84464, Note_on_c, 1, 90, 0
8, 84480, Note_on_c, 1, 92, 92
8, 84480, Note_on_c, 1, 89, 92
8, 84824, Note_on_c, 1, 92, 0
8, 84824, Note_on_c, 1, 89, 0
8, 84840, Note_on_c, 1, 89, 92
8, 84840, Note_on_c, 1, 85, 92
8, 84944, Note_on_c, 1, 89, 0
8, 84944, Note_on_c, 1, 85, 0
8, 84958, Control_c, 1, 11, 127
8, 84960, Note_on_c, 1, 89, 92
8, 84960, Note_on_c, 1, 85, 92
8, 85020, Control_c, 1, 11, 112
8, 85679, Note_on_c, 1, 89, 0
8, 85679, Note_on_c, 1, 85, 0
8, 86400, Note_on_c, 1, 89, 92
8, 86400, Note_on_c, 1, 85, 92
8, 86744, Note_on_c, 1, 89, 0
8, 86744, Note_on_c, 1, 85, 0
8, 86760, Note_on_c, 1, 82, 92
8, 86760, Note_on_c, 1, 85, 92
8, 86864, Note_on_c, 1, 82, 0
8, 86864, Note_on_c, 1, 85, 0
8, 86878, Control_c, 1, 11, 127
8, 86880, Note_on_c, 1, 85, 92
8, 86880, Note_on_c, 1, 82, 92
8, 86940, Control_c, 1, 11, 112
8, 87599, Note_on_c, 1, 85, 0
8, 87599, Note_on_c, 1, 82, 0
8, 88320, Note_on_c, 1, 85, 92
8, 88320, Note_on_c, 1, 82, 92
8, 88664, Note_on_c, 1, 85, 0
8, 88664, Note_on_c, 1, 82, 0
8, 88680, Note_on_c, 1, 90, 92
8, 88680, Note_on_c, 1, 78, 92
8, 88784, Note_on_c, 1, 90, 0
8, 88784, Note_on_c, 1, 78, 0
8, 88798, Control_c, 1, 11, 127
8, 88800, Note_on_c, 1, 78, 92
8, 88800, Note_on_c, 1, 90, 92
8, 88860, Control_c, 1, 11, 112
8, 90119, Note_on_c, 1, 78, 0
8, 90119, Note_on_c, 1, 90, 0
8, 90120, Note_on_c, 1, 79, 92
8, 90120, Note_on_c, 1, 91, 92
8, 90224, Note_on_c, 1, 79, 0
8, 90224, Note_on_c, 1, 91, 0
8, 90238, Control_c, 1, 11, 127
8, 90240, Note_on_c, 1, 79, 84
8, 90240, Note_on_c, 1, 91, 84
8, 90359, Note_on_c, 1, 79, 0
8, 90359, Note_on_c, 1, 91, 0
8, 90360, Note_on_c, 1, 78, 84
8, 90360, Note_on_c, 1, 90, 84
8, 90479, Note_on_c, 1, 78, 0
8, 90479, Note_on_c, 1, 90, 0
8, 90480, Note_on_c, 1, 79, 76
8, 90480, Note_on_c, 1, 91, 76
8, 90540, Control_c, 1, 11, 80
8, 91680, Control_c, 1, 11, 80
8, 91747, Control_c, 1, 11, 81
8, 91813, Control_c, 1, 11, 83
8, 91880, Control_c, 1, 11, 84
8, 91947, Control_c, 1, 11, 85
8, 92013, Control_c, 1, 11, 87
8, 92080, Control_c, 1, 11, 88
8, 92147, Control_c, 1, 11, 89
8, 92159, Note_on_c, 1, 79, 0
8, 92159, Note_on_c, 1, 91, 0
8, 92160, Note_on_c, 1, 79, 76
8, 92160, Note_on_c, 1, 91, 76
8, 92213, Control_c, 1, 11, 90
8, 92280, Control_c, 1, 11, 92
8, 92347, Control_c, 1, 11, 93
8, 92413, Control_c, 1, 11, 94
8, 92480, Control_c, 1, 11, 96
8, 92547, Control_c, 1, 11, 97
8, 92613, Control_c, 1, 11, 98
8, 92680, Control_c, 1, 11, 100
8, 92747, Control_c, 1, 11, 101
8, 92813, Control_c, 1, 11, 102
8, 92880, Control_c, 1, 11, 104
8, 92947, Control_c, 1, 11, 105
8, 93013, Control_c, 1, 11, 106
8, 93080, Control_c, 1, 11, 107
8, 93147, Control_c, 1, 11, 109
8, 93213, Control_c, 1, 11, 110
8, 93280, Control_c, 1, 11, 111
8, 93347, Control_c, 1, 11, 113
8, 93413, Control_c, 1, 11, 114
8, 93480, Control_c, 1, 11, 115
8, 93547, Control_c, 1, 11, 117
8, 93613, Control_c, 1, 11, 118
8, 93680, Control_c, 1, 11, 119
8, 93747, Control_c, 1, 11, 120
8, 93813, Control_c, 1, 11, 122
8, 93880, Control_c, 1, 11, 123
8, 93947, Control_c, 1, 11, 124
8, 94013, Control_c, 1, 11, 127
8, 94184, Note_on_c, 1, 79, 0
8, 94184, Note_on_c, 1, 91, 0
8, 94200, Note_on_c, 1, 90, 76
8, 94200, Note_on_c, 1, 78, 76
8, 94319, Note_on_c, 1, 90, 0
8, 94319, Note_on_c, 1, 78, 0
8, 94320, Note_on_c, 1, 91, 76
8, 94320, Note_on_c, 1, 79, 76
8, 94380, Control_c, 1, 11, 80
8, 95520, Control_c, 1, 11, 80
8, 95587, Control_c, 1, 11, 81
8, 95653, Control_c, 1, 11, 83
8, 95720, Control_c, 1, 11, 84
8, 95787, Control_c, 1, 11, 85
8, 95853, Control_c, 1, 11, 87
8, 95920, Control_c, 1, 11, 88
8, 95987, Control_c, 1, 11, 89
8, 95999, Note_on_c, 1, 91, 0
8, 95999, Note_on_c, 1, 79, 0
8, 96000, Note_on_c, 1, 91, 76
8, 96000, Note_on_c, 1, 79, 76
8, 96053, Control_c, 1, 11, 90
8, 96120, Control_c, 1, 11, 92
8, 96187, Control_c, 1, 11, 93
8, 96253, Control_c, 1, 11, 94
8, 96320, Control_c, 1, 11, 96
8, 96387, Control_c, 1, 11, 97
8, 96453, Control_c, 1, 11, 98
8, 96520, Control_c, 1, 11, 100
8, 96587, Control_c, 1, 11, 101
8, 96653, Control_c, 1, 11, 102
8, 96720, Control_c, 1, 11, 104
8, 96787, Control_c, 1, 11, 105
8, 96853, Control_c, 1, 11, 106
8, 96920, Control_c, 1, 11, 107
8, 96987, Control_c, 1, 11, 109
8, 97053, Control_c, 1, 11, 110
8, 97120, Control_c, 1, 11, 111
8, 97187, Control_c, 1, 11, 113
8, 97253, Control_c, 1, 11, 114
8, 97320, Control_c, 1, 11, 115
8, 97387, Control_c, 1, 11, 117
8, 97453, Control_c, 1, 11, 118
8, 97520, Control_c, 1, 11, 119
8, 97587, Control_c, 1, 11, 120
8, 97653, Control_c, 1, 11, 122
8, 97720, Control_c, 1, 11, 123
8, 97787, Control_c, 1, 11, 124
8, 97853, Control_c, 1, 11, 127
8, 98024, Note_on_c, 1, 91, 0
8, 98024, Note_on_c, 1, 79, 0
8, 98038, Control_c, 1, 11, 112
8, 98040, Note_on_c, 1, 90, 84
8, 98040, Note_on_c, 1, 78, 84
8, 98159, Note_on_c, 1, 90, 0
8, 98159, Note_on_c, 1, 78, 0
8, 98160, Note_on_c, 1, 79, 84
8, 98160, Note_on_c, 1, 91, 84
8, 98272, Control_c, 1, 11, 113
8, 98504, Control_c, 1, 11, 114
8, 98736, Control_c, 1, 11, 115
8, 98968, Control_c, 1, 11, 116
8, 98984, Note_on_c, 1, 79, 0
8, 98984, Note_on_c, 1, 91, 0
8, 99000, Note_on_c, 1, 78, 84
8, 99000, Note_on_c, 1, 90, 84
8, 99119, Note_on_c, 1, 78, 0
8, 99119, Note_on_c, 1, 90, 0
8, 99120, Note_on_c, 1, 79, 84
8, 99120, Note_on_c, 1, 91, 84
8, 99200, Control_c, 1, 11, 117
8, 99432, Control_c, 1, 11, 118
8, 99664, Control_c, 1, 11, 119
8, 99896, Control_c, 1, 11, 120
8, 99944, Note_on_c, 1, 79, 0
8, 99944, Note_on_c, 1, 91, 0
8, 99960, Note_on_c, 1, 91, 84
8, 99960, Note_on_c, 1, 79, 84
8, 100079, Note_on_c, 1, 91, 0
8, 100079, Note_on_c, 1, 79, 0
8, 100080, Note_on_c, 1, 80, 84
8, 100080, Note_on_c, 1, 92, 84
8, 100128, Control_c, 1, 11, 121
8, 100360, Control_c, 1, 11, 122
8, 100592, Control_c, 1, 11, 123
8, 100824, Control_c, 1, 11, 124
8, 100904, Note_on_c, 1, 80, 0
8, 100904, Note_on_c, 1, 92, 0
8, 100920, Note_on_c, 1, 79, 84
8, 100920, Note_on_c, 1, 91, 84
8, 101039, Note_on_c, 1, 79, 0
8, 101039, Note_on_c, 1, 91, 0
8, 101040, Note_on_c, 1, 80, 84
8, 101040, Note_on_c, 1, 92, 84
8, 101056, Control_c, 1, 11, 125
8, 101264, Note_on_c, 1, 80, 0
8, 101264, Note_on_c, 1, 92, 0
8, 101280, Note_on_c, 1, 81, 84
8, 101280, Note_on_c, 1, 93, 84
8, 101288, Control_c, 1, 11, 126
8, 101384, Note_on_c, 1, 93, 0
8, 101400, Note_on_c, 1, 92, 84
8, 101504, Note_on_c, 1, 81, 0
8, 101504, Note_on_c, 1, 92, 0
8, 101518, Control_c, 1, 11, 127
8, 101520, Note_on_c, 1, 87, 84
8, 101520, Note_on_c, 1, 93, 84
8, 103679, Note_on_c, 1, 87, 0
8, 103679, Note_on_c, 1, 93, 0
8, 103680, Note_on_c, 1, 87, 84
8, 103680, Note_on_c, 1, 93, 84
8, 105584, Note_on_c, 1, 87, 0
8, 105584, Note_on_c, 1, 93, 0
8, 105600, Note_on_c, 1, 93, 84
8, 105600, Note_on_c, 1, 87, 84
8, 106544, Note_on_c, 1, 93, 0
8, 106544, Note_on_c, 1, 87, 0
8, 106560, Note_on_c, 1, 90, 92
8, 106560, Note_on_c, 1, 87, 92
8, 106620, Control_c, 1, 11, 112
8, 107504, Note_on_c, 1, 90, 0
8, 107504, Note_on_c, 1, 87, 0
8, 107520, Note_on_c, 1, 89, 92
8, 107520, Note_on_c, 1, 85, 92
8, 108464, Note_on_c, 1, 89, 0
8, 108464, Note_on_c, 1, 85, 0
8, 108478, Control_c, 1, 11, 127
8, 108480, Note_on_c, 1, 88, 92
8, 108480, Note_on_c, 1, 85, 92
8, 108540, Control_c, 1, 11, 112
8, 109424, Note_on_c, 1, 88, 0
8, 109424, Note_on_c, 1, 85, 0
8, 109440, Note_on_c, 1, 87, 92
8, 109440, Note_on_c, 1, 84, 92
8, 110384, Note_on_c, 1, 87, 0
8, 110384, Note_on_c, 1, 84, 0
8, 110398, Control_c, 1, 11, 127
8, 110400, Note_on_c, 1, 84, 92
8, 110400, Note_on_c, 1, 87, 92
8, 110460, Control_c, 1, 11, 112
8, 111344, Note_on_c, 1, 84, 0
8, 111344, Note_on_c, 1, 87, 0
8, 111360, Note_on_c, 1, 85, 92
8, 111360, Note_on_c, 1, 82, 92
8, 112320, Control_c, 1, 11, 127
8, 112380, Control_c, 1, 11, 112
8, 112430, Control_c, 1, 11, 108
8, 112480, Control_c, 1, 11, 105
8, 112530, Control_c, 1, 11, 101
8, 112580, Control_c, 1, 11, 98
8, 112630, Control_c, 1, 11, 94
8, 112680, Control_c, 1, 11, 91
8, 112730, Control_c, 1, 11, 87
8, 112780, Control_c, 1, 11, 84
8, 112830, Control_c, 1, 11, 80
8, 112880, Control_c, 1, 11, 76
8, 112930, Control_c, 1, 11, 73
8, 112980, Control_c, 1, 11, 69
8, 113030, Control_c, 1, 11, 66
8, 113080, Control_c, 1, 11, 62
8, 113130, Control_c, 1, 11, 59
8, 113180, Control_c, 1, 11, 55
8, 113230, Control_c, 1, 11, 48
8, 113264, Note_on_c, 1, 85, 0
8, 113264, Note_on_c, 1, 82, 0
8, 113280, Note_on_c, 1, 84, 92
8, 113280, Note_on_c, 1, 81, 92
8, 113519, Note_on_c, 1, 84, 0
8, 113519, Note_on_c, 1, 81, 0
8, 146880, Control_c, 1, 11, 127
8, 147000, Note_on_c, 1, 71, 48
8, 147089, Note_on_c, 1, 71, 0
8, 147120, Note_on_c, 1, 72, 48
8, 147209, Note_on_c, 1, 72, 0
8, 147240, Note_on_c, 1, 74, 48
8, 147329, Note_on_c, 1, 74, 0
8, 147360, Note_on_c, 1, 76, 48
8, 147449, Note_on_c, 1, 76, 0
8, 147480, Note_on_c, 1, 77, 48
8, 147569, Note_on_c, 1, 77, 0
8, 147600, Note_on_c, 1, 79, 48
8, 147689, Note_on_c, 1, 79, 0
8, 147720, Note_on_c, 1, 81, 48
8, 147809, Note_on_c, 1, 81, 0
8, 147840, Note_on_c, 1, 83, 48
8, 147929, Note_on_c, 1, 83, 0
8, 147960, Note_on_c, 1, 84, 48
8, 148049, Note_on_c, 1, 84, 0
8, 148080, Note_on_c, 1, 86, 48
8, 148169, Note_on_c, 1, 86, 0
8, 148200, Note_on_c, 1, 88, 48
8, 148289, Note_on_c, 1, 88, 0
8, 148320, Note_on_c, 1, 89, 48
8, 148409, Note_on_c, 1, 89, 0
8, 148440, Note_on_c, 1, 91, 48
8, 148529, Note_on_c, 1, 91, 0
8, 148560, Note_on_c, 1, 93, 48
8, 148649, Note_on_c, 1, 93, 0
8, 148680, Note_on_c, 1, 83, 48
8, 148769, Note_on_c, 1, 83, 0
8, 148769, End_track
9, 0, Start_track
9, 0, Title_t, "Oboe"
9, 0, MIDI_port, 0
9, 0, Program_c, 2, 68
9, 0, Control_c, 2, 7, 80
9, 0, Control_c, 2, 10, 70
9, 0, Control_c, 2, 11, 127
9, 7680, Note_on_c, 2, 71, 52
9, 9599, Note_on_c, 2, 71, 0
9, 17040, Control_c, 2, 11, 64
9, 17280, Note_on_c, 2, 73, 84
9, 17280, Control_c, 2, 11, 64
9, 17333, Control_c, 2, 11, 66
9, 17387, Control_c, 2, 11, 68
9, 17440, Control_c, 2, 11, 69
9, 17493, Control_c, 2, 11, 71
9, 17547, Control_c, 2, 11, 73
9, 17600, Control_c, 2, 11, 75
9, 17653, Control_c, 2, 11, 76
9, 17707, Control_c, 2, 11, 78
9, 17760, Control_c, 2, 11, 80
9, 17813, Control_c, 2, 11, 82
9, 17867, Control_c, 2, 11, 83
9, 17920, Control_c, 2, 11, 85
9, 17973, Control_c, 2, 11, 87
9, 18027, Control_c, 2, 11, 89
9, 18080, Control_c, 2, 11, 90
9, 18133, Control_c, 2, 11, 92
9, 18187, Control_c, 2, 11, 94
9, 18240, Control_c, 2, 11, 96
9, 18293, Control_c, 2, 11, 97
9, 18347, Control_c, 2, 11, 99
9, 18400, Control_c, 2, 11, 101
9, 18453, Control_c, 2, 11, 103
9, 18507, Control_c, 2, 11, 104
9, 18560, Control_c, 2, 11, 106
9, 18613, Control_c, 2, 11, 108
9, 18667, Control_c, 2, 11, 110
9, 18720, Control_c, 2, 11, 111
9, 18773, Control_c, 2, 11, 113
9, 18827, Control_c, 2, 11, 115
9, 18880, Control_c, 2, 11, 117
9, 18933, Control_c, 2, 11, 118
9, 18987, Control_c, 2, 11, 120
9, 19040, Control_c, 2, 11, 122
9, 19093, Control_c, 2, 11, 124
9, 19147, Control_c, 2, 11, 127
9, 19184, Note_on_c, 2, 73, 0
9, 19200, Note_on_c, 2, 80, 84
9, 19200, Note_on_c, 2, 84, 84
9, 21104, Note_on_c, 2, 80, 0
9, 21104, Note_on_c, 2, 84, 0
9, 21120, Note_on_c, 2, 80, 84
9, 21120, Note_on_c, 2, 84, 84
9, 23024, Note_on_c, 2, 80, 0
9, 23024, Note_on_c, 2, 84, 0
9, 23040, Note_on_c, 2, 82, 84
9, 23040, Note_on_c, 2, 73, 84
9, 24944, Note_on_c, 2, 82, 0
9, 24944, Note_on_c, 2, 73, 0
9, 24960, Note_on_c, 2, 82, 84
9, 24960, Note_on_c, 2, 73, 84
9, 26864, Note_on_c, 2, 82, 0
9, 26864, Note_on_c, 2, 73, 0
9, 26880, Note_on_c, 2, 72, 84
9, 26880, Note_on_c, 2, 84, 84
9, 27104, Note_on_c, 2, 72, 0
9, 27120, Note_on_c, 2, 75, 84
9, 28784, Note_on_c, 2, 84, 0
9, 28784, Note_on_c, 2, 75, 0
9, 28800, Note_on_c, 2, 84, 84
9, 28800, Note_on_c, 2, 75, 84
9, 30704, Note_on_c, 2, 84, 0
9, 30704, Note_on_c, 2, 75, 0
9, 30720, Note_on_c, 2, 85, 92
9, 30720, Note_on_c, 2, 73, 92
9, 30839, Note_on_c, 2, 85, 0
9, 30839, Note_on_c, 2, 73, 0
9, 30960, Note_on_c, 2, 77, 84
9, 30960, Note_on_c, 2, 73, 84
9, 31079, Note_on_c, 2, 77, 0
9, 31079, Note_on_c, 2, 73, 0
9, 31680, Note_on_c, 2, 77, 92
9, 31680, Note_on_c, 2, 80, 92
9, 31799, Note_on_c, 2, 77, 0
9, 31799, Note_on_c, 2, 80, 0
9, 31920, Note_on_c, 2, 80, 84
9, 31920, Note_on_c, 2, 77, 84
9, 32039, Note_on_c, 2, 80, 0
9, 32039, Note_on_c, 2, 77, 0
9, 32640, Note_on_c, 2, 76, 84
9, 32640, Note_on_c, 2, 79, 84
9, 32879, Note_on_c, 2, 76, 0
9, 32879, Note_on_c, 2, 79, 0
9, 33120, Note_on_c, 2, 84, 92
9, 33120, Note_on_c, 2, 72, 92
9, 33180, Control_c, 2, 11, 112
9, 33839, Note_on_c, 2, 84, 0
9, 33839, Note_on_c, 2, 72, 0
9, 34320, Control_c, 2, 11, 127
9, 34560, Note_on_c, 2, 80, 84
9, 34560, Note_on_c, 2, 68, 84
9, 34799, Note_on_c, 2, 80, 0
9, 34799, Note_on_c, 2, 68, 0
9, 35040, Note_on_c, 2, 80, 92
9, 35040, Note_on_c, 2, 68, 92
9, 35100, Control_c, 2, 11, 112
9, 35759, Note_on_c, 2, 80, 0
9, 35759, Note_on_c, 2, 68, 0
9, 36240, Control_c, 2, 11, 127
9, 36480, Note_on_c, 2, 65, 84
9, 36480, Note_on_c, 2, 77, 84
9, 36719, Note_on_c, 2, 65, 0
9, 36719, Note_on_c, 2, 77, 0
9, 36960, Note_on_c, 2, 77, 92
9, 37020, Control_c, 2, 11, 112
9, 37304, Note_on_c, 2, 77, 0
9, 37320, Note_on_c, 2, 72, 92
9, 37424, Note_on_c, 2, 72, 0
9, 37438, Control_c, 2, 11, 127
9, 37440, Note_on_c, 2, 73, 84
9, 37544, Note_on_c, 2, 73, 0
9, 37560, Note_on_c, 2, 80, 84
9, 37664, Note_on_c, 2, 80, 0
9, 37680, Note_on_c, 2, 82, 84
9, 37784, Note_on_c, 2, 82, 0
9, 37800, Note_on_c, 2, 77, 84
9, 37904, Note_on_c, 2, 77, 0
9, 37920, Note_on_c, 2, 78, 84
9, 38024, Note_on_c, 2, 78, 0
9, 38040, Note_on_c, 2, 77, 84
9, 38144, Note_on_c, 2, 77, 0
9, 38160, Note_on_c, 2, 77, 84
9, 38264, Note_on_c, 2, 77, 0
9, 38280, Note_on_c, 2, 75, 84
9, 38384, Note_on_c, 2, 75, 0
9, 38400, Note_on_c, 2, 73, 52
9, 38639, Note_on_c, 2, 73, 0
9, 40560, Note_on_c, 2, 77, 84
9, 40560, Note_on_c, 2, 80, 84
9, 40679, Note_on_c, 2, 77, 0
9, 40679, Note_on_c, 2, 80, 0
9, 44400, Note_on_c, 2, 77, 84
9, 44400, Note_on_c, 2, 74, 84
9, 44519, Note_on_c, 2, 77, 0
9, 44519, Note_on_c, 2, 74, 0
9, 48240, Note_on_c, 2, 75, 76
9, 48240, Note_on_c, 2, 81, 76
9, 48359, Note_on_c, 2, 75, 0
9, 48359, Note_on_c, 2, 81, 0
9, 49200, Note_on_c, 2, 81, 76
9, 49200, Note_on_c, 2, 75, 76
9, 49319, Note_on_c, 2, 81, 0
9, 49319, Note_on_c, 2, 75, 0
9, 50160, Note_on_c, 2, 73, 76
9, 50160, Note_on_c, 2, 77, 76
9, 50279, Note_on_c, 2, 73, 0
9, 50279, Note_on_c, 2, 77, 0
9, 51120, Note_on_c, 2, 77, 76
9, 51120, Note_on_c, 2, 74, 76
9, 51239, Note_on_c, 2, 77, 0
9, 51239, Note_on_c, 2, 74, 0
9, 52080, Note_on_c, 2, 79, 80
9, 52080, Note_on_c, 2, 75, 80
9, 52199, Note_on_c, 2, 79, 0
9, 52199, Note_on_c, 2, 75, 0
9, 52560, Note_on_c, 2, 76, 80
9, 52560, Note_on_c, 2, 79, 80
9, 52679, Note_on_c, 2, 76, 0
9, 52679, Note_on_c, 2, 79, 0
9, 52800, Note_on_c, 2, 76, 80
9, 52800, Note_on_c, 2, 79, 80
9, 52919, Note_on_c, 2, 76, 0
9, 52919, Note_on_c, 2, 79, 0
9, 55680, Note_on_c, 2, 82, 52
9, 58559, Note_on_c, 2, 82, 0
9, 62640, Note_on_c, 2, 81, 44
9, 62640, Note_on_c, 2, 78, 44
9, 62744, Note_on_c, 2, 81, 0
9, 62744, Note_on_c, 2, 78, 0
9, 62760, Note_on_c, 2, 78, 44
9, 62760, Note_on_c, 2, 81, 44
9, 62864, Note_on_c, 2, 78, 0
9, 62864, Note_on_c, 2, 81, 0
9, 62880, Note_on_c, 2, 78, 44
9, 62880, Note_on_c, 2, 81, 44
9, 63104, Note_on_c, 2, 78, 0
9, 63104, Note_on_c, 2, 81, 0
9, 63120, Note_on_c, 2, 78, 44
9, 63120, Note_on_c, 2, 81, 44
9, 63359, Note_on_c, 2, 78, 0
9, 63359, Note_on_c, 2, 81, 0
9, 63600, Note_on_c, 2, 78, 44
9, 63600, Note_on_c, 2, 81, 44
9, 63704, Note_on_c, 2, 78, 0
9, 63704, Note_on_c, 2, 81, 0
9, 63720, Note_on_c, 2, 78, 44
9, 63720, Note_on_c, 2, 81, 44
9, 63824, Note_on_c, 2, 78, 0
9, 63824, Note_on_c, 2, 81, 0
9, 63840, Note_on_c, 2, 81, 44
9, 63840, Note_on_c, 2, 78, 44
9, 64064, Note_on_c, 2, 81, 0
9, 64064, Note_on_c, 2, 78, 0
9, 64080, Note_on_c, 2, 81, 44
9, 64080, Note_on_c, 2, 78, 44
9, 64319, Note_on_c, 2, 81, 0
9, 64319, Note_on_c, 2, 78, 0
9, 66480, Note_on_c, 2, 81, 44
9, 66480, Note_on_c, 2, 84, 44
9, 66584, Note_on_c, 2, 81, 0
9, 66584, Note_on_c, 2, 84, 0
9, 66600, Note_on_c, 2, 81, 44
9, 66600, Note_on_c, 2, 84, 44
9, 66704, Note_on_c, 2, 81, 0
9, 66704, Note_on_c, 2, 84, 0
9, 66720, Note_on_c, 2, 84, 44
9, 66720, Note_on_c, 2, 81, 44
9, 66824, Note_on_c, 2, 84, 0
9, 66824, Note_on_c, 2, 81, 0
9, 66840, Note_on_c, 2, 84, 44
9, 66840, Note_on_c, 2, 81, 44
9, 66944, Note_on_c, 2, 84, 0
9, 66944, Note_on_c, 2, 81, 0
9, 66960, Note_on_c, 2, 81, 44
9, 66960, Note_on_c, 2, 84, 44
9, 67199, Note_on_c, 2, 81, 0
9, 67199, Note_on_c, 2, 84, 0
9, 67440, Note_on_c, 2, 84, 44
9, 67440, Note_on_c, 2, 81, 44
9, 67544, Note_on_c, 2, 84, 0
9, 67544, Note_on_c, 2, 81, 0
9, 67560, Note_on_c, 2, 81, 44
9, 67560, Note_on_c, 2, 84, 44
9, 67664, Note_on_c, 2, 81, 0
9, 67664, Note_on_c, 2, 84, 0
9, 67680, Note_on_c, 2, 81, 44
9, 67680, Note_on_c, 2, 84, 44
9, 67784, Note_on_c, 2, 81, 0
9, 67784, Note_on_c, 2, 84, 0
9, 67800, Note_on_c, 2, 84, 44
9, 67800, Note_on_c, 2, 81, 44
9, 67904, Note_on_c, 2, 84, 0
9, 67904, Note_on_c, 2, 81, 0
9, 67920, Note_on_c, 2, 81, 44
9, 67920, Note_on_c, 2, 84, 44
9, 68159, Note_on_c, 2, 81, 0
9, 68159, Note_on_c, 2, 84, 0
9, 69349, Control_c, 2, 11, 67
9, 69360, Note_on_c, 2, 78, 84
9, 69425, Control_c, 2, 11, 68
9, 69501, Control_c, 2, 11, 69
9, 69577, Control_c, 2, 11, 70
9, 69599, Note_on_c, 2, 78, 0
9, 69600, Note_on_c, 2, 81, 84
9, 69653, Control_c, 2, 11, 71
9, 69730, Control_c, 2, 11, 72
9, 69806, Control_c, 2, 11, 73
9, 69840, Note_on_c, 2, 75, 84
9, 69882, Control_c, 2, 11, 74
9, 69958, Control_c, 2, 11, 75
9, 70034, Control_c, 2, 11, 76
9, 70079, Note_on_c, 2, 81, 0
9, 70079, Note_on_c, 2, 75, 0
9, 71253, Control_c, 2, 11, 92
9, 71280, Note_on_c, 2, 78, 84
9, 71330, Control_c, 2, 11, 93
9, 71406, Control_c, 2, 11, 94
9, 71482, Control_c, 2, 11, 95
9, 71519, Note_on_c, 2, 78, 0
9, 71520, Note_on_c, 2, 82, 84
9, 71558, Control_c, 2, 11, 96
9, 71634, Control_c, 2, 11, 97
9, 71710, Control_c, 2, 11, 98
9, 71760, Note_on_c, 2, 73, 84
9, 71787, Control_c, 2, 11, 99
9, 71863, Control_c, 2, 11, 100
9, 71939, Control_c, 2, 11, 101
9, 71999, Note_on_c, 2, 82, 0
9, 71999, Note_on_c, 2, 73, 0
9, 73158, Control_c, 2, 11, 117
9, 73200, Note_on_c, 2, 81, 84
9, 73234, Control_c, 2, 11, 118
9, 73310, Control_c, 2, 11, 119
9, 73387, Control_c, 2, 11, 120
9, 73439, Note_on_c, 2, 81, 0
9, 73440, Note_on_c, 2, 83, 84
9, 73463, Control_c, 2, 11, 121
9, 73539, Control_c, 2, 11, 122
9, 73615, Control_c, 2, 11, 123
9, 73680, Note_on_c, 2, 74, 84
9, 73691, Control_c, 2, 11, 124
9, 73768, Control_c, 2, 11, 125
9, 73844, Control_c, 2, 11, 127
9, 73904, Note_on_c, 2, 83, 0
9, 73904, Note_on_c, 2, 74, 0
9, 73920, Note_on_c, 2, 79, 84
9, 73920, Note_on_c, 2, 67, 84
9, 74144, Note_on_c, 2, 79, 0
9, 74144, Note_on_c, 2, 67, 0
9, 74160, Note_on_c, 2, 67, 92
9, 74160, Note_on_c, 2, 79, 92
9, 74220, Control_c, 2, 11, 112
9, 75104, Note_on_c, 2, 67, 0
9, 75104, Note_on_c, 2, 79, 0
9, 75118, Control_c, 2, 11, 127
9, 75120, Note_on_c, 2, 79, 92
9, 75120, Note_on_c, 2, 67, 92
9, 75180, Control_c, 2, 11, 112
9, 76064, Note_on_c, 2, 79, 0
9, 76064, Note_on_c, 2, 67, 0
9, 76078, Control_c, 2, 11, 127
9, 76080, Note_on_c, 2, 67, 92
9, 76080, Note_on_c, 2, 79, 92
9, 76140, Control_c, 2, 11, 112
9, 76784, Note_on_c, 2, 67, 0
9, 76784, Note_on_c, 2, 79, 0
9, 76798, Control_c, 2, 11, 127
9, 76800, Note_on_c, 2, 68, 84
9, 76800, Note_on_c, 2, 80, 84
9, 77024, Note_on_c, 2, 68, 0
9, 77024, Note_on_c, 2, 80, 0
9, 77040, Note_on_c, 2, 80, 92
9, 77040, Note_on_c, 2, 68, 92
9, 77100, Control_c, 2, 11, 112
9, 77984, Note_on_c, 2, 80, 0
9, 77984, Note_on_c, 2, 68, 0
9, 77998, Control_c, 2, 11, 127
9, 78000, Note_on_c, 2, 80, 92
9, 78000, Note_on_c, 2, 68, 92
9, 78060, Control_c, 2, 11, 112
9, 78944, Note_on_c, 2, 80, 0
9, 78944, Note_on_c, 2, 68, 0
9, 78958, Control_c, 2, 11, 127
9, 78960, Note_on_c, 2, 68, 92
9, 78960, Note_on_c, 2, 80, 92
9, 79020, Control_c, 2, 11, 112
9, 79904, Note_on_c, 2, 68, 0
9, 79904, Note_on_c, 2, 80, 0
9, 79918, Control_c, 2, 11, 127
9, 79920, Note_on_c, 2, 80, 92
9, 79920, Note_on_c, 2, 68, 92
9, 79980, Control_c, 2, 11, 112
9, 80384, Note_on_c, 2, 80, 0
9, 80384, Note_on_c, 2, 68, 0
9, 80400, Note_on_c, 2, 69, 92
9, 80400, Note_on_c, 2, 81, 92
9, 80639, Note_on_c, 2, 69, 0
9, 80639, Note_on_c, 2, 81, 0
9, 80640, Note_on_c, 2, 82, 92
9, 80640, Note_on_c, 2, 70, 92
9, 80864, Note_on_c, 2, 82, 0
9, 80864, Note_on_c, 2, 70, 0
9, 80878, Control_c, 2, 11, 127
9, 80880, Note_on_c, 2, 70, 92
9, 80880, Note_on_c, 2, 82, 92
9, 80940, Control_c, 2, 11, 112
9, 81824, Note_on_c, 2, 70, 0
9, 81824, Note_on_c, 2, 82, 0
9, 81838, Control_c, 2, 11, 127
9, 81840, Note_on_c, 2, 70, 92
9, 81840, Note_on_c, 2, 82, 92
9, 81900, Control_c, 2, 11, 112
9, 82784, Note_on_c, 2, 70, 0
9, 82784, Note_on_c, 2, 82, 0
9, 82798, Control_c, 2, 11, 127
9, 82800, Note_on_c, 2, 82, 92
9, 82800, Note_on_c, 2, 70, 92
9, 82860, Control_c, 2, 11, 112
9, 83744, Note_on_c, 2, 82, 0
9, 83744, Note_on_c, 2, 70, 0
9, 83758, Control_c, 2, 11, 127
9, 83760, Note_on_c, 2, 70, 92
9, 83760, Note_on_c, 2, 82, 92
9, 83820, Control_c, 2, 11, 112
9, 84224, Note_on_c, 2, 70, 0
9, 84224, Note_on_c, 2, 82, 0
9, 84240, Note_on_c, 2, 72, 92
9, 84240, Note_on_c, 2, 84, 92
9, 84464, Note_on_c, 2, 72, 0
9, 84464, Note_on_c, 2, 84, 0
9, 84480, Note_on_c, 2, 85, 92
9, 84480, Note_on_c, 2, 73, 92
9, 84824, Note_on_c, 2, 85, 0
9, 84824, Note_on_c, 2, 73, 0
9, 84840, Note_on_c, 2, 73, 92
9, 84840, Note_on_c, 2, 77, 92
9, 84944, Note_on_c, 2, 73, 0
9, 84944, Note_on_c, 2, 77, 0
9, 84958, Control_c, 2, 11, 127
9, 84960, Note_on_c, 2, 77, 92
9, 84960, Note_on_c, 2, 73, 92
9, 85020, Control_c, 2, 11, 112
9, 85679, Note_on_c, 2, 77, 0
9, 85679, Note_on_c, 2, 73, 0
9, 86400, Note_on_c, 2, 77, 92
9, 86400, Note_on_c, 2, 85, 92
9, 86744, Note_on_c, 2, 77, 0
9, 86744, Note_on_c, 2, 85, 0
9, 86760, Note_on_c, 2, 82, 92
9, 86760, Note_on_c, 2, 73, 92
9, 86864, Note_on_c, 2, 82, 0
9, 86864, Note_on_c, 2, 73, 0
9, 86878, Control_c, 2, 11, 127
9, 86880, Note_on_c, 2, 73, 92
9, 86880, Note_on_c, 2, 82, 92
9, 86940, Control_c, 2, 11, 112
9, 87599, Note_on_c, 2, 73, 0
9, 87599, Note_on_c, 2, 82, 0
9, 88320, Note_on_c, 2, 78, 92
9, 88320, Note_on_c, 2, 82, 92
9, 88664, Note_on_c, 2, 78, 0
9, 88664, Note_on_c, 2, 82, 0
9, 88680, Note_on_c, 2, 66, 92
9, 88680, Note_on_c, 2, 78, 92
9, 88784, Note_on_c, 2, 66, 0
9, 88784, Note_on_c, 2, 78, 0
9, 88798, Control_c, 2, 11, 127
9, 88800, Note_on_c, 2, 78, 92
9, 88800, Note_on_c, 2, 66, 92
9, 88860, Control_c, 2, 11, 112
9, 90119, Note_on_c, 2, 78, 0
9, 90119, Note_on_c, 2, 66, 0
9, 90120, Note_on_c, 2, 79, 92
9, 90120, Note_on_c, 2, 67, 92
9, 90224, Note_on_c, 2, 79, 0
9, 90224, Note_on_c, 2, 67, 0
9, 90238, Control_c, 2, 11, 127
9, 90240, Note_on_c, 2, 79, 84
9, 90240, Note_on_c, 2, 67, 84
9, 90359, Note_on_c, 2, 79, 0
9, 90359, Note_on_c, 2, 67, 0
9, 90360, Note_on_c, 2, 78, 84
9, 90360, Note_on_c, 2, 66, 84
9, 90479, Note_on_c, 2, 78, 0
9, 90479, Note_on_c, 2, 66, 0
9, 90480, Note_on_c, 2, 67, 76
9, 90480, Note_on_c, 2, 79, 76
9, 90540, Control_c, 2, 11, 80
9, 91680, Control_c, 2, 11, 80
9, 91747, Control_c, 2, 11, 81
9, 91813, Control_c, 2, 11, 83
9, 91880, Control_c, 2, 11, 84
9, 91947, Control_c, 2, 11, 85
9, 92013, Control_c, 2, 11, 87
9, 92080, Control_c, 2, 11, 88
9, 92147, Control_c, 2, 11, 89
9, 92159, Note_on_c, 2, 67, 0
9, 92159, Note_on_c, 2, 79, 0
9, 92160, Note_on_c, 2, 79, 76
9, 92160, Note_on_c, 2, 67, 76
9, 92213, Control_c, 2, 11, 90
9, 92280, Control_c, 2, 11, 92
9, 92347, Control_c, 2, 11, 93
9, 92413, Control_c, 2, 11, 94
9, 92480, Control_c, 2, 11, 96
9, 92547, Control_c, 2, 11, 97
9, 92613, Control_c, 2, 11, 98
9, 92680, Control_c, 2, 11, 100
9, 92747, Control_c, 2, 11, 101
9, 92813, Control_c, 2, 11, 102
9, 92880, Control_c, 2, 11, 104
9, 92947, Control_c, 2, 11, 105
9, 93013, Control_c, 2, 11, 106
9, 93080, Control_c, 2, 11, 107
9, 93147, Control_c, 2, 11, 109
9, 93213, Control_c, 2, 11, 110
9, 93280, Control_c, 2, 11, 111
9, 93347, Control_c, 2, 11, 113
9, 93413, Control_c, 2, 11, 114
9, 93480, Control_c, 2, 11, 115
9, 93547, Control_c, 2, 11, 117
9, 93613, Control_c, 2, 11, 118
9, 93680, Control_c, 2, 11, 119
9, 93747, Control_c, 2, 11, 120
9, 93813, Control_c, 2, 11, 122
9, 93880, Control_c, 2, 11, 123
9, 93947, Control_c, 2, 11, 124
9, 94013, Control_c, 2, 11, 127
9, 94184, Note_on_c, 2, 79, 0
9, 94184, Note_on_c, 2, 67, 0
9, 94200, Note_on_c, 2, 78, 76
9, 94200, Note_on_c, 2, 66, 76
9, 94319, Note_on_c, 2, 78, 0
9, 94319, Note_on_c, 2, 66, 0
9, 94320, Note_on_c, 2, 79, 76
9, 94320, Note_on_c, 2, 67, 76
9, 94380, Control_c, 2, 11, 80
9, 95520, Control_c, 2, 11, 80
9, 95587, Control_c, 2, 11, 81
9, 95653, Control_c, 2, 11, 83
9, 95720, Control_c, 2, 11, 84
9, 95787, Control_c, 2, 11, 85
9, 95853, Control_c, 2, 11, 87
9, 95920, Control_c, 2, 11, 88
9, 95987, Control_c, 2, 11, 89
9, 95999, Note_on_c, 2, 79, 0
9, 95999, Note_on_c, 2, 67, 0
9, 96000, Note_on_c, 2, 67, 76
9, 96000, Note_on_c, 2, 79, 76
9, 96053, Control_c, 2, 11, 90
9, 96120, Control_c, 2, 11, 92
9, 96187, Control_c, 2, 11, 93
9, 96253, Control_c, 2, 11, 94
9, 96320, Control_c, 2, 11, 96
9, 96387, Control_c, 2, 11, 97
9, 96453, Control_c, 2, 11, 98
9, 96520, Control_c, 2, 11, 100
9, 96587, Control_c, 2, 11, 101
9, 96653, Control_c, 2, 11, 102
9, 96720, Control_c, 2, 11, 104
9, 96787, Control_c, 2, 11, 105
9, 96853, Control_c, 2, 11, 106
9, 96920, Control_c, 2, 11, 107
9, 96987, Control_c, 2, 11, 109
9, 97053, Control_c, 2, 11, 110
9, 97120, Control_c, 2, 11, 111
9, 97187, Control_c, 2, 11, 113
9, 97253, Control_c, 2, 11, 114
9, 97320, Control_c, 2, 11, 115
9, 97387, Control_c, 2, 11, 117
9, 97453, Control_c, 2, 11, 118
9, 97520, Control_c, 2, 11, 119
9, 97587, Control_c, 2, 11, 120
9, 97653, Control_c, 2, 11, 122
9, 97720, Control_c, 2, 11, 123
9, 97787, Control_c, 2, 11, 124
9, 97853, Control_c, 2, 11, 127
9, 98024, Note_on_c, 2, 67, 0
9, 98024, Note_on_c, 2, 79, 0
9, 98038, Control_c, 2, 11, 112
9, 98040, Note_on_c, 2, 78, 84
9, 98040, Note_on_c, 2, 66, 84
9, 98159, Note_on_c, 2, 78, 0
9, 98159, Note_on_c, 2, 66, 0
9, 98160, Note_on_c, 2, 67, 84
9, 98160, Note_on_c, 2, 79, 84
9, 98272, Control_c, 2, 11, 113
9, 98504, Control_c, 2, 11, 114
9, 98736, Control_c, 2, 11, 115
9, 98968, Control_c, 2, 11, 116
9, 98984, Note_on_c, 2, 67, 0
9, 98984, Note_on_c, 2, 79, 0
9, 99000, Note_on_c, 2, 66, 84
9, 99000, Note_on_c, 2, 78, 84
9, 99119, Note_on_c, 2, 66, 0
9, 99119, Note_on_c, 2, 78, 0
9, 99120, Note_on_c, 2, 79, 84
9, 99120, Note_on_c, 2, 67, 84
9, 99200, Control_c, 2, 11, 117
9, 99432, Control_c, 2, 11, 118
9, 99664, Control_c, 2, 11, 119
9, 99896, Control_c, 2, 11, 120
9, 99944, Note_on_c, 2, 79, 0
9, 99944, Note_on_c, 2, 67, 0
9, 99960, Note_on_c, 2, 67, 84
9, 99960, Note_on_c, 2, 79, 84
9, 100079, Note_on_c, 2, 67, 0
9, 100079, Note_on_c, 2, 79, 0
9, 100080, Note_on_c, 2, 68, 84
9, 100080, Note_on_c, 2, 80, 84
9, 100128, Control_c, 2, 11, 121
9, 100360, Control_c, 2, 11, 122
9, 100592, Control_c, 2, 11, 123
9, 100824, Control_c, 2, 11, 124
9, 100904, Note_on_c, 2, 68, 0
9, 100904, Note_on_c, 2, 80, 0
9, 100920, Note_on_c, 2, 67, 84
9, 100920, Note_on_c, 2, 79, 84
9, 101039, Note_on_c, 2, 67, 0
9, 101039, Note_on_c, 2, 79, 0
9, 101040, Note_on_c, 2, 80, 84
9, 101040, Note_on_c, 2, 68, 84
9, 101056, Control_c, 2, 11, 125
9, 101264, Note_on_c, 2, 80, 0
9, 101264, Note_on_c, 2, 68, 0
9, 101280, Note_on_c, 2, 81, 84
9, 101280, Note_on_c, 2, 69, 84
9, 101288, Control_c, 2, 11, 126
9, 101384, Note_on_c, 2, 81, 0
9, 101384, Note_on_c, 2, 69, 0
9, 101400, Note_on_c, 2, 83, 84
9, 101400, Note_on_c, 2, 80, 84
9, 101504, Note_on_c, 2, 83, 0
9, 101504, Note_on_c, 2, 80, 0
9, 101518, Control_c, 2, 11, 127
9, 101520, Note_on_c, 2, 84, 84
9, 101520, Note_on_c, 2, 81, 84
9, 103679, Note_on_c, 2, 84, 0
9, 103679, Note_on_c, 2, 81, 0
9, 103680, Note_on_c, 2, 81, 84
9, 103680, Note_on_c, 2, 84, 84
9, 105584, Note_on_c, 2, 81, 0
9, 105584, Note_on_c, 2, 84, 0
9, 105600, Note_on_c, 2, 84, 84
9, 105600, Note_on_c, 2, 81, 84
9, 106544, Note_on_c, 2, 84, 0
9, 106544, Note_on_c, 2, 81, 0
9, 106560, Note_on_c, 2, 75, 92
9, 106560, Note_on_c, 2, 84, 92
9, 106620, Control_c, 2, 11, 112
9, 107504, Note_on_c, 2, 75, 0
9, 107504, Note_on_c, 2, 84, 0
9, 107520, Note_on_c, 2, 73, 92
9, 107520, Note_on_c, 2, 77, 92
9, 108464, Note_on_c, 2, 73, 0
9, 108464, Note_on_c, 2, 77, 0
9, 108478, Control_c, 2, 11, 127
9, 108480, Note_on_c, 2, 82, 92
9, 108480, Note_on_c, 2, 73, 92
9, 108540, Control_c, 2, 11, 112
9, 109424, Note_on_c, 2, 82, 0
9, 109424, Note_on_c, 2, 73, 0
9, 109440, Note_on_c, 2, 72, 92
9, 109440, Note_on_c, 2, 81, 92
9, 110384, Note_on_c, 2, 72, 0
9, 110384, Note_on_c, 2, 81, 0
9, 110398, Control_c, 2, 11, 127
9, 110400, Note_on_c, 2, 77, 92
9, 110400, Note_on_c, 2, 75, 92
9, 110460, Control_c, 2, 11, 112
9, 111344, Note_on_c, 2, 77, 0
9, 111344, Note_on_c, 2, 75, 0
9, 111360, Note_on_c, 2, 73, 92
9, 111360, Note_on_c, 2, 77, 92
9, 112304, Note_on_c, 2, 73, 0
9, 112304, Note_on_c, 2, 77, 0
9, 112318, Control_c, 2, 11, 127
9, 112320, Note_on_c, 2, 79, 92
9, 112320, Note_on_c, 2, 76, 92
9, 112380, Control_c, 2, 11, 112
9, 112430, Control_c, 2, 11, 108
9, 112480, Control_c, 2, 11, 105
9, 112530, Control_c, 2, 11, 101
9, 112580, Control_c, 2, 11, 98
9, 112630, Control_c, 2, 11, 94
9, 112680, Control_c, 2, 11, 91
9, 112730, Control_c, 2, 11, 87
9, 112780, Control_c, 2, 11, 84
9, 112830, Control_c, 2, 11, 80
9, 112880, Control_c, 2, 11, 76
9, 112930, Control_c, 2, 11, 73
9, 112980, Control_c, 2, 11, 69
9, 113030, Control_c, 2, 11, 66
9, 113080, Control_c, 2, 11, 62
9, 113130, Control_c, 2, 11, 59
9, 113180, Control_c, 2, 11, 55
9, 113230, Control_c, 2, 11, 48
9, 113264, Note_on_c, 2, 79, 0
9, 113264, Note_on_c, 2, 76, 0
9, 113280, Note_on_c, 2, 77, 92
9, 113519, Note_on_c, 2, 77, 0
9, 119712, Control_c, 2, 11, 118
9, 120240, Note_on_c, 2, 80, 60
9, 120400, Control_c, 2, 11, 117
9, 121088, Control_c, 2, 11, 116
9, 121184, Note_on_c, 2, 80, 0
9, 121200, Note_on_c, 2, 80, 60
9, 121776, Control_c, 2, 11, 115
9, 122144, Note_on_c, 2, 80, 0
9, 122160, Note_on_c, 2, 80, 60
9, 122160, Note_on_c, 2, 77, 60
9, 122464, Control_c, 2, 11, 114
9, 123104, Note_on_c, 2, 80, 0
9, 123104, Note_on_c, 2, 77, 0
9, 123120, Note_on_c, 2, 80, 60
9, 123120, Note_on_c, 2, 77, 60
9, 123152, Control_c, 2, 11, 113
9, 125744, Note_on_c, 2, 80, 0
9, 125744, Note_on_c, 2, 77, 0
9, 125760, Control_c, 2, 11, 112
9, 125760, Note_on_c, 2, 77, 60
9, 125760, Note_on_c, 2, 79, 60
9, 126000, Control_c, 2, 11, 111
9, 126240, Control_c, 2, 11, 110
9, 126480, Control_c, 2, 11, 109
9, 126720, Control_c, 2, 11, 108
9, 126960, Control_c, 2, 11, 107
9, 127200, Control_c, 2, 11, 106
9, 127440, Control_c, 2, 11, 105
9, 127680, Control_c, 2, 11, 104
9, 127920, Control_c, 2, 11, 103
9, 128160, Control_c, 2, 11, 102
9, 128400, Control_c, 2, 11, 101
9, 128640, Control_c, 2, 11, 100
9, 128880, Control_c, 2, 11, 99
9, 129120, Control_c, 2, 11, 98
9, 129360, Control_c, 2, 11, 96
9, 129584, Note_on_c, 2, 77, 0
9, 129584, Note_on_c, 2, 79, 0
9, 129600, Note_on_c, 2, 79, 60
9, 129600, Note_on_c, 2, 76, 60
9, 129839, Note_on_c, 2, 79, 0
9, 129839, Note_on_c, 2, 76, 0
9, 139200, Control_c, 2, 11, 127
9, 139680, Note_on_c, 2, 79, 48
9, 140159, Note_on_c, 2, 79, 0
9, 140160, Note_on_c, 2, 81, 48
9, 140639, Note_on_c, 2, 81, 0
9, 140640, Note_on_c, 2, 79, 48
9, 141119, Note_on_c, 2, 79, 0
9, 141120, Note_on_c, 2, 77, 48
9, 141599, Note_on_c, 2, 77, 0
9, 141600, Note_on_c, 2, 76, 48
9, 142079, Note_on_c, 2, 76, 0
9, 142080, Note_on_c, 2, 74, 48
9, 143024, Note_on_c, 2, 74, 0
9, 143040, Note_on_c, 2, 72, 48
9, 143519, Note_on_c, 2, 72, 0
9, 143520, Note_on_c, 2, 79, 48
9, 143520, Note_on_c, 2, 76, 48
9, 143999, Note_on_c, 2, 79, 0
9, 143999, Note_on_c, 2, 76, 0
9, 144000, Note_on_c, 2, 81, 48
9, 144000, Note_on_c, 2, 77, 48
9, 144479, Note_on_c, 2, 81, 0
9, 144479, Note_on_c, 2, 77, 0
9, 144480, Note_on_c, 2, 79, 48
9, 144480, Note_on_c, 2, 76, 48
9, 144959, Note_on_c, 2, 79, 0
9, 144959, Note_on_c, 2, 76, 0
9, 144960, Note_on_c, 2, 72, 48
9, 144960, Note_on_c, 2, 77, 48
9, 145424, Note_on_c, 2, 72, 0
9, 145439, Note_on_c, 2, 77, 0
9, 145440, Note_on_c, 2, 76, 48
9, 145440, Note_on_c, 2, 72, 48
9, 145919, Note_on_c, 2, 76, 0
9, 145919, Note_on_c, 2, 72, 0
9, 145920, Note_on_c, 2, 74, 48
9, 146399, Note_on_c, 2, 74, 0
9, 146400, Note_on_c, 2, 72, 48
9, 146400, Note_on_c, 2, 67, 48
9, 146864, Note_on_c, 2, 72, 0
9, 146864, Note_on_c, 2, 67, 0
9, 146880, Note_on_c, 2, 65, 48
9, 146880, Note_on_c, 2, 71, 48
9, 148784, Note_on_c, 2, 65, 0
9, 148784, Note_on_c, 2, 71, 0
9, 148784, End_track
10, 0, Start_track
10, 0, Title_t, "Clarinet in B-flat "
10, 0, MIDI_port, 0
10, 0, Program_c, 3, 71
10, 0, Control_c, 3, 7, 88
10, 0, Control_c, 3, 11, 127
10, 0, Control_c, 3, 10, 75
10, 19200, Note_on_c, 3, 68, 84
10, 19200, Note_on_c, 3, 80, 84
10, 21104, Note_on_c, 3, 68, 0
10, 21104, Note_on_c, 3, 80, 0
10, 21120, Note_on_c, 3, 80, 84
10, 21120, Note_on_c, 3, 68, 84
10, 23024, Note_on_c, 3, 80, 0
10, 23024, Note_on_c, 3, 68, 0
10, 23040, Note_on_c, 3, 61, 84
10, 23040, Note_on_c, 3, 73, 84
10, 24944, Note_on_c, 3, 61, 0
10, 24944, Note_on_c, 3, 73, 0
10, 24960, Note_on_c, 3, 73, 84
10, 24960, Note_on_c, 3, 61, 84
10, 26864, Note_on_c, 3, 73, 0
10, 26864, Note_on_c, 3, 61, 0
10, 26880, Note_on_c, 3, 66, 84
10, 26880, Note_on_c, 3, 78, 84
10, 28784, Note_on_c, 3, 66, 0
10, 28784, Note_on_c, 3, 78, 0
10, 28800, Note_on_c, 3, 66, 84
10, 28800, Note_on_c, 3, 78, 84
10, 30704, Note_on_c, 3, 66, 0
10, 30704, Note_on_c, 3, 78, 0
10, 30720, Note_on_c, 3, 65, 92
10, 30720, Note_on_c, 3, 77, 92
10, 30839, Note_on_c, 3, 65, 0
10, 30839, Note_on_c, 3, 77, 0
10, 30960, Note_on_c, 3, 65, 84
10, 30960, Note_on_c, 3, 73, 84
10, 31079, Note_on_c, 3, 65, 0
10, 31079, Note_on_c, 3, 73, 0
10, 31680, Note_on_c, 3, 68, 92
10, 31680, Note_on_c, 3, 77, 92
10, 31799, Note_on_c, 3, 68, 0
10, 31799, Note_on_c, 3, 77, 0
10, 31920, Note_on_c, 3, 68, 84
10, 31920, Note_on_c, 3, 77, 84
10, 32039, Note_on_c, 3, 68, 0
10, 32039, Note_on_c, 3, 77, 0
10, 32640, Note_on_c, 3, 76, 84
10, 32640, Note_on_c, 3, 67, 84
10, 32879, Note_on_c, 3, 76, 0
10, 32879, Note_on_c, 3, 67, 0
10, 33120, Note_on_c, 3, 84, 92
10, 33120, Note_on_c, 3, 72, 92
10, 33180, Control_c, 3, 11, 112
10, 33839, Note_on_c, 3, 84, 0
10, 33839, Note_on_c, 3, 72, 0
10, 34320, Control_c, 3, 11, 127
10, 34560, Note_on_c, 3, 68, 84
10, 34560, Note_on_c, 3, 56, 84
10, 34799, Note_on_c, 3, 68, 0
10, 34799, Note_on_c, 3, 56, 0
10, 35040, Note_on_c, 3, 80, 92
10, 35040, Note_on_c, 3, 68, 92
10, 35100, Control_c, 3, 11, 112
10, 35759, Note_on_c, 3, 80, 0
10, 35759, Note_on_c, 3, 68, 0
10, 36240, Control_c, 3, 11, 127
10, 36480, Note_on_c, 3, 77, 84
10, 36480, Note_on_c, 3, 65, 84
10, 36719, Note_on_c, 3, 77, 0
10, 36719, Note_on_c, 3, 65, 0
10, 36960, Note_on_c, 3, 77, 92
10, 36960, Note_on_c, 3, 65, 92
10, 37020, Control_c, 3, 11, 112
10, 37438, Control_c, 3, 11, 127
10, 37679, Note_on_c, 3, 77, 0
10, 37679, Note_on_c, 3, 65, 0
10, 40560, Note_on_c, 3, 68, 84
10, 40560, Note_on_c, 3, 73, 84
10, 40679, Note_on_c, 3, 68, 0
10, 40679, Note_on_c, 3, 73, 0
10, 44400, Note_on_c, 3, 74, 84
10, 44400, Note_on_c, 3, 65, 84
10, 44519, Note_on_c, 3, 74, 0
10, 44519, Note_on_c, 3, 65, 0
10, 48240, Note_on_c, 3, 69, 76
10, 48240, Note_on_c, 3, 72, 76
10, 48359, Note_on_c, 3, 69, 0
10, 48359, Note_on_c, 3, 72, 0
10, 49200, Note_on_c, 3, 72, 76
10, 49200, Note_on_c, 3, 69, 76
10, 49319, Note_on_c, 3, 72, 0
10, 49319, Note_on_c, 3, 69, 0
10, 50160, Note_on_c, 3, 70, 76
10, 50160, Note_on_c, 3, 61, 76
10, 50279, Note_on_c, 3, 70, 0
10, 50279, Note_on_c, 3, 61, 0
10, 51120, Note_on_c, 3, 71, 76
10, 51120, Note_on_c, 3, 62, 76
10, 51239, Note_on_c, 3, 71, 0
10, 51239, Note_on_c, 3, 62, 0
10, 52080, Note_on_c, 3, 63, 80
10, 52080, Note_on_c, 3, 72, 80
10, 52199, Note_on_c, 3, 63, 0
10, 52199, Note_on_c, 3, 72, 0
10, 52560, Note_on_c, 3, 72, 80
10, 52560, Note_on_c, 3, 64, 80
10, 52679, Note_on_c, 3, 72, 0
10, 52679, Note_on_c, 3, 64, 0
10, 52800, Note_on_c, 3, 64, 80
10, 52800, Note_on_c, 3, 73, 80
10, 52919, Note_on_c, 3, 64, 0
10, 52919, Note_on_c, 3, 73, 0
10, 55680, Note_on_c, 3, 73, 52
10, 58559, Note_on_c, 3, 73, 0
10, 63120, Note_on_c, 3, 74, 52
10, 63359, Note_on_c, 3, 74, 0
10, 63360, Note_on_c, 3, 79, 52
10, 63599, Note_on_c, 3, 79, 0
10, 63600, Note_on_c, 3, 78, 52
10, 63839, Note_on_c, 3, 78, 0
10, 64080, Note_on_c, 3, 74, 52
10, 64319, Note_on_c, 3, 74, 0
10, 64320, Note_on_c, 3, 82, 52
10, 64559, Note_on_c, 3, 82, 0
10, 64560, Note_on_c, 3, 81, 52
10, 64799, Note_on_c, 3, 81, 0
10, 68816, Control_c, 3, 11, 57
10, 68880, Note_on_c, 3, 66, 84
10, 68889, Control_c, 3, 11, 58
10, 68962, Control_c, 3, 11, 59
10, 69035, Control_c, 3, 11, 60
10, 69108, Control_c, 3, 11, 61
10, 69119, Note_on_c, 3, 66, 0
10, 69120, Note_on_c, 3, 69, 84
10, 69181, Control_c, 3, 11, 62
10, 69254, Control_c, 3, 11, 63
10, 69327, Control_c, 3, 11, 64
10, 69399, Control_c, 3, 11, 65
10, 69472, Control_c, 3, 11, 66
10, 69545, Control_c, 3, 11, 67
10, 69599, Note_on_c, 3, 69, 0
10, 70785, Control_c, 3, 11, 84
10, 70800, Note_on_c, 3, 66, 84
10, 70858, Control_c, 3, 11, 85
10, 70931, Control_c, 3, 11, 86
10, 71004, Control_c, 3, 11, 87
10, 71039, Note_on_c, 3, 66, 0
10, 71040, Note_on_c, 3, 70, 84
10, 71076, Control_c, 3, 11, 88
10, 71149, Control_c, 3, 11, 89
10, 71222, Control_c, 3, 11, 90
10, 71295, Control_c, 3, 11, 91
10, 71368, Control_c, 3, 11, 92
10, 71441, Control_c, 3, 11, 93
10, 71514, Control_c, 3, 11, 94
10, 71519, Note_on_c, 3, 70, 0
10, 72681, Control_c, 3, 11, 110
10, 72720, Note_on_c, 3, 68, 84
10, 72753, Control_c, 3, 11, 111
10, 72826, Control_c, 3, 11, 112
10, 72899, Control_c, 3, 11, 113
10, 72959, Note_on_c, 3, 68, 0
10, 72960, Note_on_c, 3, 71, 84
10, 72972, Control_c, 3, 11, 114
10, 73045, Control_c, 3, 11, 115
10, 73118, Control_c, 3, 11, 116
10, 73191, Control_c, 3, 11, 117
10, 73264, Control_c, 3, 11, 118
10, 73337, Control_c, 3, 11, 119
10, 73410, Control_c, 3, 11, 120
10, 73439, Note_on_c, 3, 71, 0
10, 73847, Control_c, 3, 11, 127
10, 73920, Note_on_c, 3, 67, 84
10, 73920, Note_on_c, 3, 79, 84
10, 74144, Note_on_c, 3, 67, 0
10, 74144, Note_on_c, 3, 79, 0
10, 74160, Note_on_c, 3, 67, 92
10, 74160, Note_on_c, 3, 79, 92
10, 74220, Control_c, 3, 11, 112
10, 75104, Note_on_c, 3, 67, 0
10, 75104, Note_on_c, 3, 79, 0
10, 75118, Control_c, 3, 11, 127
10, 75120, Note_on_c, 3, 79, 92
10, 75120, Note_on_c, 3, 67, 92
10, 75180, Control_c, 3, 11, 112
10, 76064, Note_on_c, 3, 79, 0
10, 76064, Note_on_c, 3, 67, 0
10, 76078, Control_c, 3, 11, 127
10, 76080, Note_on_c, 3, 79, 92
10, 76080, Note_on_c, 3, 67, 92
10, 76140, Control_c, 3, 11, 112
10, 76784, Note_on_c, 3, 79, 0
10, 76784, Note_on_c, 3, 67, 0
10, 76798, Control_c, 3, 11, 127
10, 76800, Note_on_c, 3, 68, 84
10, 76800, Note_on_c, 3, 80, 84
10, 77024, Note_on_c, 3, 68, 0
10, 77024, Note_on_c, 3, 80, 0
10, 77040, Note_on_c, 3, 68, 92
10, 77040, Note_on_c, 3, 80, 92
10, 77100, Control_c, 3, 11, 112
10, 77984, Note_on_c, 3, 68, 0
10, 77984, Note_on_c, 3, 80, 0
10, 77998, Control_c, 3, 11, 127
10, 78000, Note_on_c, 3, 68, 92
10, 78000, Note_on_c, 3, 80, 92
10, 78060, Control_c, 3, 11, 112
10, 78944, Note_on_c, 3, 68, 0
10, 78944, Note_on_c, 3, 80, 0
10, 78958, Control_c, 3, 11, 127
10, 78960, Note_on_c, 3, 80, 92
10, 78960, Note_on_c, 3, 68, 92
10, 79020, Control_c, 3, 11, 112
10, 79904, Note_on_c, 3, 80, 0
10, 79904, Note_on_c, 3, 68, 0
10, 79918, Control_c, 3, 11, 127
10, 79920, Note_on_c, 3, 68, 92
10, 79920, Note_on_c, 3, 80, 92
10, 79980, Control_c, 3, 11, 112
10, 80384, Note_on_c, 3, 68, 0
10, 80384, Note_on_c, 3, 80, 0
10, 80400, Note_on_c, 3, 81, 92
10, 80400, Note_on_c, 3, 69, 92
10, 80639, Note_on_c, 3, 81, 0
10, 80639, Note_on_c, 3, 69, 0
10, 80640, Note_on_c, 3, 82, 92
10, 80640, Note_on_c, 3, 70, 92
10, 80864, Note_on_c, 3, 82, 0
10, 80864, Note_on_c, 3, 70, 0
10, 80878, Control_c, 3, 11, 127
10, 80880, Note_on_c, 3, 82, 92
10, 80880, Note_on_c, 3, 70, 92
10, 80940, Control_c, 3, 11, 112
10, 81824, Note_on_c, 3, 82, 0
10, 81824, Note_on_c, 3, 70, 0
10, 81838, Control_c, 3, 11, 127
10, 81840, Note_on_c, 3, 70, 92
10, 81840, Note_on_c, 3, 82, 92
10, 81900, Control_c, 3, 11, 112
10, 82784, Note_on_c, 3, 70, 0
10, 82784, Note_on_c, 3, 82, 0
10, 82798, Control_c, 3, 11, 127
10, 82800, Note_on_c, 3, 82, 92
10, 82800, Note_on_c, 3, 70, 92
10, 82860, Control_c, 3, 11, 112
10, 83744, Note_on_c, 3, 82, 0
10, 83744, Note_on_c, 3, 70, 0
10, 83758, Control_c, 3, 11, 127
10, 83760, Note_on_c, 3, 82, 92
10, 83760, Note_on_c, 3, 70, 92
10, 83820, Control_c, 3, 11, 112
10, 84224, Note_on_c, 3, 82, 0
10, 84224, Note_on_c, 3, 70, 0
10, 84240, Note_on_c, 3, 84, 92
10, 84240, Note_on_c, 3, 72, 92
10, 84464, Note_on_c, 3, 84, 0
10, 84464, Note_on_c, 3, 72, 0
10, 84480, Note_on_c, 3, 80, 92
10, 84480, Note_on_c, 3, 77, 92
10, 84824, Note_on_c, 3, 80, 0
10, 84824, Note_on_c, 3, 77, 0
10, 84840, Note_on_c, 3, 77, 92
10, 84840, Note_on_c, 3, 73, 92
10, 84944, Note_on_c, 3, 77, 0
10, 84944, Note_on_c, 3, 73, 0
10, 84958, Control_c, 3, 11, 127
10, 84960, Note_on_c, 3, 77, 92
10, 84960, Note_on_c, 3, 73, 92
10, 85020, Control_c, 3, 11, 112
10, 85679, Note_on_c, 3, 77, 0
10, 85679, Note_on_c, 3, 73, 0
10, 86400, Note_on_c, 3, 77, 92
10, 86400, Note_on_c, 3, 73, 92
10, 86744, Note_on_c, 3, 77, 0
10, 86744, Note_on_c, 3, 73, 0
10, 86760, Note_on_c, 3, 73, 92
10, 86760, Note_on_c, 3, 70, 92
10, 86864, Note_on_c, 3, 73, 0
10, 86864, Note_on_c, 3, 70, 0
10, 86878, Control_c, 3, 11, 127
10, 86880, Note_on_c, 3, 70, 92
10, 86880, Note_on_c, 3, 73, 92
10, 86940, Control_c, 3, 11, 112
10, 87599, Note_on_c, 3, 70, 0
10, 87599, Note_on_c, 3, 73, 0
10, 88080, Control_c, 3, 11, 127
10, 88320, Note_on_c, 3, 70, 84
10, 88320, Note_on_c, 3, 73, 84
10, 88664, Note_on_c, 3, 70, 0
10, 88664, Note_on_c, 3, 73, 0
10, 88680, Note_on_c, 3, 66, 84
10, 88680, Note_on_c, 3, 78, 84
10, 88784, Note_on_c, 3, 66, 0
10, 88784, Note_on_c, 3, 78, 0
10, 88800, Note_on_c, 3, 66, 84
10, 88800, Note_on_c, 3, 78, 84
10, 89039, Note_on_c, 3, 66, 0
10, 89039, Note_on_c, 3, 78, 0
10, 91920, Control_c, 3, 11, 80
10, 92160, Note_on_c, 3, 73, 76
10, 92160, Note_on_c, 3, 70, 76
10, 92213, Control_c, 3, 11, 81
10, 92267, Control_c, 3, 11, 83
10, 92320, Control_c, 3, 11, 84
10, 92373, Control_c, 3, 11, 85
10, 92427, Control_c, 3, 11, 87
10, 92480, Control_c, 3, 11, 88
10, 92533, Control_c, 3, 11, 89
10, 92587, Control_c, 3, 11, 90
10, 92640, Control_c, 3, 11, 92
10, 92693, Control_c, 3, 11, 93
10, 92747, Control_c, 3, 11, 94
10, 92800, Control_c, 3, 11, 96
10, 92853, Control_c, 3, 11, 97
10, 92907, Control_c, 3, 11, 98
10, 92960, Control_c, 3, 11, 100
10, 93013, Control_c, 3, 11, 101
10, 93067, Control_c, 3, 11, 102
10, 93120, Control_c, 3, 11, 104
10, 93173, Control_c, 3, 11, 105
10, 93227, Control_c, 3, 11, 106
10, 93280, Control_c, 3, 11, 107
10, 93333, Control_c, 3, 11, 109
10, 93387, Control_c, 3, 11, 110
10, 93440, Control_c, 3, 11, 111
10, 93493, Control_c, 3, 11, 113
10, 93547, Control_c, 3, 11, 114
10, 93600, Control_c, 3, 11, 115
10, 93653, Control_c, 3, 11, 117
10, 93707, Control_c, 3, 11, 118
10, 93760, Control_c, 3, 11, 119
10, 93813, Control_c, 3, 11, 120
10, 93867, Control_c, 3, 11, 122
10, 93920, Control_c, 3, 11, 123
10, 93973, Control_c, 3, 11, 124
10, 94027, Control_c, 3, 11, 127
10, 94064, Note_on_c, 3, 73, 0
10, 94064, Note_on_c, 3, 70, 0
10, 94080, Note_on_c, 3, 73, 76
10, 94080, Note_on_c, 3, 70, 76
10, 94319, Note_on_c, 3, 73, 0
10, 94319, Note_on_c, 3, 70, 0
10, 95760, Control_c, 3, 11, 80
10, 96000, Note_on_c, 3, 73, 76
10, 96000, Note_on_c, 3, 70, 76
10, 96053, Control_c, 3, 11, 81
10, 96107, Control_c, 3, 11, 83
10, 96160, Control_c, 3, 11, 84
10, 96213, Control_c, 3, 11, 85
10, 96267, Control_c, 3, 11, 87
10, 96320, Control_c, 3, 11, 88
10, 96373, Control_c, 3, 11, 89
10, 96427, Control_c, 3, 11, 90
10, 96480, Control_c, 3, 11, 92
10, 96533, Control_c, 3, 11, 93
10, 96587, Control_c, 3, 11, 94
10, 96640, Control_c, 3, 11, 96
10, 96693, Control_c, 3, 11, 97
10, 96747, Control_c, 3, 11, 98
10, 96800, Control_c, 3, 11, 100
10, 96853, Control_c, 3, 11, 101
10, 96907, Control_c, 3, 11, 102
10, 96960, Control_c, 3, 11, 104
10, 97013, Control_c, 3, 11, 105
10, 97067, Control_c, 3, 11, 106
10, 97120, Control_c, 3, 11, 107
10, 97173, Control_c, 3, 11, 109
10, 97227, Control_c, 3, 11, 110
10, 97280, Control_c, 3, 11, 111
10, 97333, Control_c, 3, 11, 113
10, 97387, Control_c, 3, 11, 114
10, 97440, Control_c, 3, 11, 115
10, 97493, Control_c, 3, 11, 117
10, 97547, Control_c, 3, 11, 118
10, 97600, Control_c, 3, 11, 119
10, 97653, Control_c, 3, 11, 120
10, 97707, Control_c, 3, 11, 122
10, 97760, Control_c, 3, 11, 123
10, 97813, Control_c, 3, 11, 124
10, 97867, Control_c, 3, 11, 127
10, 98159, Note_on_c, 3, 73, 0
10, 98159, Note_on_c, 3, 70, 0
10, 98880, Note_on_c, 3, 73, 76
10, 98880, Note_on_c, 3, 70, 76
10, 99119, Note_on_c, 3, 73, 0
10, 99119, Note_on_c, 3, 70, 0
10, 100080, Note_on_c, 3, 68, 76
10, 100080, Note_on_c, 3, 77, 76
10, 100319, Note_on_c, 3, 68, 0
10, 100319, Note_on_c, 3, 77, 0
10, 101040, Note_on_c, 3, 68, 76
10, 101040, Note_on_c, 3, 77, 76
10, 101279, Note_on_c, 3, 68, 0
10, 101279, Note_on_c, 3, 77, 0
10, 101520, Note_on_c, 3, 81, 84
10, 101520, Note_on_c, 3, 72, 84
10, 103679, Note_on_c, 3, 81, 0
10, 103679, Note_on_c, 3, 72, 0
10, 103680, Note_on_c, 3, 81, 84
10, 103680, Note_on_c, 3, 72, 84
10, 105584, Note_on_c, 3, 81, 0
10, 105584, Note_on_c, 3, 72, 0
10, 105600, Note_on_c, 3, 72, 84
10, 105600, Note_on_c, 3, 81, 84
10, 106544, Note_on_c, 3, 72, 0
10, 106544, Note_on_c, 3, 81, 0
10, 106560, Note_on_c, 3, 69, 92
10, 106560, Note_on_c, 3, 72, 92
10, 106620, Control_c, 3, 11, 112
10, 107504, Note_on_c, 3, 69, 0
10, 107504, Note_on_c, 3, 72, 0
10, 107520, Note_on_c, 3, 70, 92
10, 107520, Note_on_c, 3, 65, 92
10, 108464, Note_on_c, 3, 70, 0
10, 108464, Note_on_c, 3, 65, 0
10, 108478, Control_c, 3, 11, 127
10, 108480, Note_on_c, 3, 67, 92
10, 108480, Note_on_c, 3, 70, 92
10, 108540, Control_c, 3, 11, 112
10, 109424, Note_on_c, 3, 67, 0
10, 109424, Note_on_c, 3, 70, 0
10, 109440, Note_on_c, 3, 72, 92
10, 109440, Note_on_c, 3, 60, 92
10, 110384, Note_on_c, 3, 72, 0
10, 110384, Note_on_c, 3, 60, 0
10, 110398, Control_c, 3, 11, 127
10, 110400, Note_on_c, 3, 63, 92
10, 110400, Note_on_c, 3, 65, 92
10, 110460, Control_c, 3, 11, 112
10, 111344, Note_on_c, 3, 63, 0
10, 111344, Note_on_c, 3, 65, 0
10, 111360, Note_on_c, 3, 65, 92
10, 111360, Note_on_c, 3, 61, 92
10, 112304, Note_on_c, 3, 65, 0
10, 112304, Note_on_c, 3, 61, 0
10, 112318, Control_c, 3, 11, 127
10, 112320, Note_on_c, 3, 67, 92
10, 112320, Note_on_c, 3, 64, 92
10, 112380, Control_c, 3, 11, 112
10, 112430, Control_c, 3, 11, 108
10, 112480, Control_c, 3, 11, 105
10, 112530, Control_c, 3, 11, 101
10, 112580, Control_c, 3, 11, 98
10, 112630, Control_c, 3, 11, 94
10, 112680, Control_c, 3, 11, 91
10, 112730, Control_c, 3, 11, 87
10, 112780, Control_c, 3, 11, 84
10, 112830, Control_c, 3, 11, 80
10, 112880, Control_c, 3, 11, 76
10, 112930, Control_c, 3, 11, 73
10, 112980, Control_c, 3, 11, 69
10, 113030, Control_c, 3, 11, 66
10, 113080, Control_c, 3, 11, 62
10, 113130, Control_c, 3, 11, 59
10, 113180, Control_c, 3, 11, 55
10, 113230, Control_c, 3, 11, 48
10, 113264, Note_on_c, 3, 67, 0
10, 113264, Note_on_c, 3, 64, 0
10, 113280, Note_on_c, 3, 65, 92
10, 113280, Note_on_c, 3, 69, 92
10, 113519, Note_on_c, 3, 65, 0
10, 113519, Note_on_c, 3, 69, 0
10, 116272, Control_c, 3, 11, 123
10, 116400, Note_on_c, 3, 67, 60
10, 116400, Note_on_c, 3, 79, 60
10, 116960, Control_c, 3, 11, 122
10, 117344, Note_on_c, 3, 67, 0
10, 117344, Note_on_c, 3, 79, 0
10, 117360, Note_on_c, 3, 79, 60
10, 117360, Note_on_c, 3, 67, 60
10, 117648, Control_c, 3, 11, 121
10, 118304, Note_on_c, 3, 79, 0
10, 118304, Note_on_c, 3, 67, 0
10, 118320, Note_on_c, 3, 67, 60
10, 118320, Note_on_c, 3, 79, 60
10, 118336, Control_c, 3, 11, 120
10, 119024, Control_c, 3, 11, 119
10, 119264, Note_on_c, 3, 67, 0
10, 119264, Note_on_c, 3, 79, 0
10, 119280, Note_on_c, 3, 79, 60
10, 119280, Note_on_c, 3, 67, 60
10, 119712, Control_c, 3, 11, 118
10, 119984, Note_on_c, 3, 79, 0
10, 119984, Note_on_c, 3, 67, 0
10, 120000, Note_on_c, 3, 68, 60
10, 120000, Note_on_c, 3, 80, 60
10, 120224, Note_on_c, 3, 68, 0
10, 120224, Note_on_c, 3, 80, 0
10, 120240, Note_on_c, 3, 68, 60
10, 120400, Control_c, 3, 11, 117
10, 121088, Control_c, 3, 11, 116
10, 121184, Note_on_c, 3, 68, 0
10, 121200, Note_on_c, 3, 68, 60
10, 121776, Control_c, 3, 11, 115
10, 122144, Note_on_c, 3, 68, 0
10, 122160, Note_on_c, 3, 68, 60
10, 122160, Note_on_c, 3, 65, 60
10, 122464, Control_c, 3, 11, 114
10, 123104, Note_on_c, 3, 68, 0
10, 123104, Note_on_c, 3, 65, 0
10, 123120, Note_on_c, 3, 68, 60
10, 123120, Note_on_c, 3, 65, 60
10, 123152, Control_c, 3, 11, 113
10, 123840, Control_c, 3, 11, 112
10, 125744, Note_on_c, 3, 68, 0
10, 125744, Note_on_c, 3, 65, 0
10, 125760, Note_on_c, 3, 67, 60
10, 125760, Note_on_c, 3, 65, 60
10, 125760, Control_c, 3, 11, 112
10, 126000, Control_c, 3, 11, 111
10, 126240, Control_c, 3, 11, 110
10, 126480, Control_c, 3, 11, 109
10, 126720, Control_c, 3, 11, 108
10, 126960, Control_c, 3, 11, 107
10, 127200, Control_c, 3, 11, 106
10, 127440, Control_c, 3, 11, 105
10, 127680, Control_c, 3, 11, 104
10, 127920, Control_c, 3, 11, 103
10, 128160, Control_c, 3, 11, 102
10, 128400, Control_c, 3, 11, 101
10, 128640, Control_c, 3, 11, 100
10, 128880, Control_c, 3, 11, 99
10, 129120, Control_c, 3, 11, 98
10, 129360, Control_c, 3, 11, 96
10, 129584, Note_on_c, 3, 67, 0
10, 129584, Note_on_c, 3, 65, 0
10, 129600, Note_on_c, 3, 67, 60
10, 129600, Note_on_c, 3, 64, 60
10, 129839, Note_on_c, 3, 67, 0
10, 129839, Note_on_c, 3, 64, 0
10, 141840, Control_c, 3, 11, 127
10, 142080, Note_on_c, 3, 72, 44
10, 142080, Note_on_c, 3, 60, 44
10, 144479, Note_on_c, 3, 72, 0
10, 144479, Note_on_c, 3, 60, 0
10, 144479, End_track
11, 0, Start_track
11, 0, Title_t, "Bassoon"
11, 0, MIDI_port, 0
11, 0, Program_c, 4, 70
11, 0, Control_c, 4, 7, 96
11, 0, Control_c, 4, 11, 127
11, 0, Control_c, 4, 10, 65
11, 7680, Note_on_c, 4, 59, 52
11, 9599, Note_on_c, 4, 59, 0
11, 17040, Control_c, 4, 11, 64
11, 17280, Note_on_c, 4, 61, 84
11, 17280, Control_c, 4, 11, 64
11, 17333, Control_c, 4, 11, 66
11, 17387, Control_c, 4, 11, 68
11, 17440, Control_c, 4, 11, 69
11, 17493, Control_c, 4, 11, 71
11, 17547, Control_c, 4, 11, 73
11, 17600, Control_c, 4, 11, 75
11, 17653, Control_c, 4, 11, 76
11, 17707, Control_c, 4, 11, 78
11, 17760, Control_c, 4, 11, 80
11, 17813, Control_c, 4, 11, 82
11, 17867, Control_c, 4, 11, 83
11, 17920, Control_c, 4, 11, 85
11, 17973, Control_c, 4, 11, 87
11, 18027, Control_c, 4, 11, 89
11, 18080, Control_c, 4, 11, 90
11, 18133, Control_c, 4, 11, 92
11, 18187, Control_c, 4, 11, 94
11, 18240, Control_c, 4, 11, 96
11, 18293, Control_c, 4, 11, 97
11, 18347, Control_c, 4, 11, 99
11, 18400, Control_c, 4, 11, 101
11, 18453, Control_c, 4, 11, 103
11, 18507, Control_c, 4, 11, 104
11, 18560, Control_c, 4, 11, 106
11, 18613, Control_c, 4, 11, 108
11, 18667, Control_c, 4, 11, 110
11, 18720, Control_c, 4, 11, 111
11, 18773, Control_c, 4, 11, 113
11, 18827, Control_c, 4, 11, 115
11, 18880, Control_c, 4, 11, 117
11, 18933, Control_c, 4, 11, 118
11, 18987, Control_c, 4, 11, 120
11, 19040, Control_c, 4, 11, 122
11, 19093, Control_c, 4, 11, 124
11, 19147, Control_c, 4, 11, 127
11, 19184, Note_on_c, 4, 61, 0
11, 19200, Note_on_c, 4, 56, 84
11, 19200, Note_on_c, 4, 60, 84
11, 21104, Note_on_c, 4, 56, 0
11, 21104, Note_on_c, 4, 60, 0
11, 21120, Note_on_c, 4, 60, 84
11, 21120, Note_on_c, 4, 56, 84
11, 23024, Note_on_c, 4, 60, 0
11, 23024, Note_on_c, 4, 56, 0
11, 23040, Note_on_c, 4, 43, 84
11, 23040, Note_on_c, 4, 55, 84
11, 24944, Note_on_c, 4, 43, 0
11, 24944, Note_on_c, 4, 55, 0
11, 24960, Note_on_c, 4, 43, 84
11, 24960, Note_on_c, 4, 55, 84
11, 26864, Note_on_c, 4, 43, 0
11, 26864, Note_on_c, 4, 55, 0
11, 26880, Note_on_c, 4, 60, 84
11, 26880, Note_on_c, 4, 57, 84
11, 28784, Note_on_c, 4, 60, 0
11, 28784, Note_on_c, 4, 57, 0
11, 28800, Note_on_c, 4, 45, 84
11, 28800, Note_on_c, 4, 57, 84
11, 30704, Note_on_c, 4, 45, 0
11, 30704, Note_on_c, 4, 57, 0
11, 30720, Note_on_c, 4, 61, 92
11, 30720, Note_on_c, 4, 58, 92
11, 30839, Note_on_c, 4, 61, 0
11, 30839, Note_on_c, 4, 58, 0
11, 30960, Note_on_c, 4, 61, 84
11, 30960, Note_on_c, 4, 58, 84
11, 31079, Note_on_c, 4, 61, 0
11, 31079, Note_on_c, 4, 58, 0
11, 31680, Note_on_c, 4, 59, 92
11, 31680, Note_on_c, 4, 62, 92
11, 31799, Note_on_c, 4, 59, 0
11, 31799, Note_on_c, 4, 62, 0
11, 31920, Note_on_c, 4, 62, 84
11, 31920, Note_on_c, 4, 59, 84
11, 32039, Note_on_c, 4, 62, 0
11, 32039, Note_on_c, 4, 59, 0
11, 32640, Note_on_c, 4, 64, 84
11, 32640, Note_on_c, 4, 60, 84
11, 32879, Note_on_c, 4, 64, 0
11, 32879, Note_on_c, 4, 60, 0
11, 33120, Note_on_c, 4, 60, 92
11, 33180, Control_c, 4, 11, 112
11, 33464, Note_on_c, 4, 60, 0
11, 33480, Note_on_c, 4, 55, 92
11, 33584, Note_on_c, 4, 55, 0
11, 33598, Control_c, 4, 11, 127
11, 33600, Note_on_c, 4, 56, 84
11, 33704, Note_on_c, 4, 56, 0
11, 33720, Note_on_c, 4, 52, 84
11, 33824, Note_on_c, 4, 52, 0
11, 33840, Note_on_c, 4, 53, 84
11, 33944, Note_on_c, 4, 53, 0
11, 33960, Note_on_c, 4, 48, 84
11, 34064, Note_on_c, 4, 48, 0
11, 34080, Note_on_c, 4, 49, 84
11, 34184, Note_on_c, 4, 49, 0
11, 34200, Note_on_c, 4, 48, 84
11, 34304, Note_on_c, 4, 48, 0
11, 34320, Note_on_c, 4, 48, 84
11, 34424, Note_on_c, 4, 48, 0
11, 34440, Note_on_c, 4, 46, 84
11, 34544, Note_on_c, 4, 46, 0
11, 34560, Note_on_c, 4, 44, 84
11, 34799, Note_on_c, 4, 44, 0
11, 35040, Note_on_c, 4, 68, 92
11, 35040, Note_on_c, 4, 56, 92
11, 35100, Control_c, 4, 11, 112
11, 35759, Note_on_c, 4, 68, 0
11, 35759, Note_on_c, 4, 56, 0
11, 36240, Control_c, 4, 11, 127
11, 36480, Note_on_c, 4, 65, 84
11, 36480, Note_on_c, 4, 53, 84
11, 36719, Note_on_c, 4, 65, 0
11, 36719, Note_on_c, 4, 53, 0
11, 36960, Note_on_c, 4, 65, 92
11, 36960, Note_on_c, 4, 53, 92
11, 37020, Control_c, 4, 11, 112
11, 37304, Note_on_c, 4, 65, 0
11, 37304, Note_on_c, 4, 53, 0
11, 37320, Note_on_c, 4, 60, 92
11, 37320, Note_on_c, 4, 48, 92
11, 37424, Note_on_c, 4, 60, 0
11, 37424, Note_on_c, 4, 48, 0
11, 37438, Control_c, 4, 11, 127
11, 37440, Note_on_c, 4, 61, 84
11, 37440, Note_on_c, 4, 49, 84
11, 37544, Note_on_c, 4, 61, 0
11, 37544, Note_on_c, 4, 49, 0
11, 37560, Note_on_c, 4, 56, 84
11, 37560, Note_on_c, 4, 44, 84
11, 37664, Note_on_c, 4, 56, 0
11, 37664, Note_on_c, 4, 44, 0
11, 37680, Note_on_c, 4, 46, 84
11, 37680, Note_on_c, 4, 58, 84
11, 37784, Note_on_c, 4, 46, 0
11, 37784, Note_on_c, 4, 58, 0
11, 37800, Note_on_c, 4, 53, 84
11, 37904, Note_on_c, 4, 53, 0
11, 37920, Note_on_c, 4, 54, 84
11, 38024, Note_on_c, 4, 54, 0
11, 38040, Note_on_c, 4, 53, 84
11, 38144, Note_on_c, 4, 53, 0
11, 38160, Note_on_c, 4, 53, 84
11, 38264, Note_on_c, 4, 53, 0
11, 38280, Note_on_c, 4, 51, 84
11, 38384, Note_on_c, 4, 51, 0
11, 38400, Note_on_c, 4, 49, 52
11, 38639, Note_on_c, 4, 49, 0
11, 40560, Note_on_c, 4, 65, 84
11, 40560, Note_on_c, 4, 61, 84
11, 40679, Note_on_c, 4, 65, 0
11, 40679, Note_on_c, 4, 61, 0
11, 44400, Note_on_c, 4, 62, 84
11, 44400, Note_on_c, 4, 59, 84
11, 44519, Note_on_c, 4, 62, 0
11, 44519, Note_on_c, 4, 59, 0
11, 48240, Note_on_c, 4, 60, 76
11, 48240, Note_on_c, 4, 57, 76
11, 48359, Note_on_c, 4, 60, 0
11, 48359, Note_on_c, 4, 57, 0
11, 49200, Note_on_c, 4, 60, 76
11, 49200, Note_on_c, 4, 57, 76
11, 49319, Note_on_c, 4, 60, 0
11, 49319, Note_on_c, 4, 57, 0
11, 49920, Note_on_c, 4, 46, 76
11, 50160, Note_on_c, 4, 58, 76
11, 50279, Note_on_c, 4, 58, 0
11, 50864, Note_on_c, 4, 46, 0
11, 50880, Note_on_c, 4, 47, 76
11, 51120, Note_on_c, 4, 59, 76
11, 51239, Note_on_c, 4, 59, 0
11, 51824, Note_on_c, 4, 47, 0
11, 51840, Note_on_c, 4, 48, 80
11, 52080, Note_on_c, 4, 60, 80
11, 52304, Note_on_c, 4, 48, 0
11, 52319, Note_on_c, 4, 60, 0
11, 52320, Note_on_c, 4, 46, 80
11, 52560, Note_on_c, 4, 58, 80
11, 52784, Note_on_c, 4, 46, 0
11, 52784, Note_on_c, 4, 58, 0
11, 52800, Note_on_c, 4, 45, 76
11, 52800, Note_on_c, 4, 57, 76
11, 52860, Control_c, 4, 11, 80
11, 53039, Note_on_c, 4, 57, 0
11, 54704, Note_on_c, 4, 45, 0
11, 54720, Note_on_c, 4, 58, 76
11, 54720, Note_on_c, 4, 43, 76
11, 56624, Note_on_c, 4, 58, 0
11, 56624, Note_on_c, 4, 43, 0
11, 56640, Note_on_c, 4, 55, 76
11, 56640, Note_on_c, 4, 40, 76
11, 58559, Note_on_c, 4, 55, 0
11, 58559, Note_on_c, 4, 40, 0
11, 62400, Control_c, 4, 11, 127
11, 62640, Note_on_c, 4, 54, 44
11, 62640, Note_on_c, 4, 57, 44
11, 62744, Note_on_c, 4, 54, 0
11, 62744, Note_on_c, 4, 57, 0
11, 62760, Note_on_c, 4, 57, 44
11, 62760, Note_on_c, 4, 54, 44
11, 62864, Note_on_c, 4, 57, 0
11, 62864, Note_on_c, 4, 54, 0
11, 62880, Note_on_c, 4, 54, 44
11, 62880, Note_on_c, 4, 57, 44
11, 63104, Note_on_c, 4, 54, 0
11, 63104, Note_on_c, 4, 57, 0
11, 63120, Note_on_c, 4, 54, 44
11, 63120, Note_on_c, 4, 57, 44
11, 63359, Note_on_c, 4, 54, 0
11, 63359, Note_on_c, 4, 57, 0
11, 63600, Note_on_c, 4, 57, 44
11, 63600, Note_on_c, 4, 54, 44
11, 63704, Note_on_c, 4, 57, 0
11, 63704, Note_on_c, 4, 54, 0
11, 63720, Note_on_c, 4, 54, 44
11, 63720, Note_on_c, 4, 57, 44
11, 63824, Note_on_c, 4, 54, 0
11, 63824, Note_on_c, 4, 57, 0
11, 63840, Note_on_c, 4, 54, 44
11, 63840, Note_on_c, 4, 57, 44
11, 64064, Note_on_c, 4, 54, 0
11, 64064, Note_on_c, 4, 57, 0
11, 64080, Note_on_c, 4, 57, 44
11, 64080, Note_on_c, 4, 54, 44
11, 64304, Note_on_c, 4, 57, 0
11, 64304, Note_on_c, 4, 54, 0
11, 64320, Note_on_c, 4, 48, 44
11, 66239, Note_on_c, 4, 48, 0
11, 66480, Note_on_c, 4, 60, 44
11, 66480, Note_on_c, 4, 63, 44
11, 66584, Note_on_c, 4, 60, 0
11, 66584, Note_on_c, 4, 63, 0
11, 66600, Note_on_c, 4, 60, 44
11, 66600, Note_on_c, 4, 63, 44
11, 66704, Note_on_c, 4, 60, 0
11, 66704, Note_on_c, 4, 63, 0
11, 66720, Note_on_c, 4, 60, 44
11, 66720, Note_on_c, 4, 63, 44
11, 66824, Note_on_c, 4, 60, 0
11, 66824, Note_on_c, 4, 63, 0
11, 66840, Note_on_c, 4, 60, 44
11, 66840, Note_on_c, 4, 63, 44
11, 66944, Note_on_c, 4, 60, 0
11, 66944, Note_on_c, 4, 63, 0
11, 66960, Note_on_c, 4, 60, 44
11, 66960, Note_on_c, 4, 63, 44
11, 67199, Note_on_c, 4, 60, 0
11, 67199, Note_on_c, 4, 63, 0
11, 67440, Note_on_c, 4, 63, 44
11, 67440, Note_on_c, 4, 60, 44
11, 67544, Note_on_c, 4, 63, 0
11, 67544, Note_on_c, 4, 60, 0
11, 67560, Note_on_c, 4, 63, 44
11, 67560, Note_on_c, 4, 60, 44
11, 67664, Note_on_c, 4, 63, 0
11, 67664, Note_on_c, 4, 60, 0
11, 67680, Note_on_c, 4, 63, 44
11, 67680, Note_on_c, 4, 60, 44
11, 67784, Note_on_c, 4, 63, 0
11, 67784, Note_on_c, 4, 60, 0
11, 67800, Note_on_c, 4, 60, 44
11, 67800, Note_on_c, 4, 63, 44
11, 67904, Note_on_c, 4, 60, 0
11, 67904, Note_on_c, 4, 63, 0
11, 67920, Note_on_c, 4, 63, 44
11, 67920, Note_on_c, 4, 60, 44
11, 68159, Note_on_c, 4, 63, 0
11, 68159, Note_on_c, 4, 60, 0
11, 68379, Control_c, 4, 11, 51
11, 68400, Note_on_c, 4, 54, 84
11, 68452, Control_c, 4, 11, 52
11, 68525, Control_c, 4, 11, 53
11, 68597, Control_c, 4, 11, 54
11, 68639, Note_on_c, 4, 54, 0
11, 68640, Note_on_c, 4, 57, 84
11, 68670, Control_c, 4, 11, 55
11, 68743, Control_c, 4, 11, 56
11, 68816, Control_c, 4, 11, 57
11, 68889, Control_c, 4, 11, 58
11, 68962, Control_c, 4, 11, 59
11, 69035, Control_c, 4, 11, 60
11, 69108, Control_c, 4, 11, 61
11, 69119, Note_on_c, 4, 57, 0
11, 70274, Control_c, 4, 11, 77
11, 70320, Note_on_c, 4, 54, 84
11, 70347, Control_c, 4, 11, 78
11, 70420, Control_c, 4, 11, 79
11, 70493, Control_c, 4, 11, 80
11, 70559, Note_on_c, 4, 54, 0
11, 70560, Note_on_c, 4, 58, 84
11, 70566, Control_c, 4, 11, 81
11, 70639, Control_c, 4, 11, 82
11, 70712, Control_c, 4, 11, 83
11, 70785, Control_c, 4, 11, 84
11, 70858, Control_c, 4, 11, 85
11, 70931, Control_c, 4, 11, 86
11, 71004, Control_c, 4, 11, 87
11, 71039, Note_on_c, 4, 58, 0
11, 72170, Control_c, 4, 11, 103
11, 72240, Note_on_c, 4, 56, 84
11, 72243, Control_c, 4, 11, 104
11, 72316, Control_c, 4, 11, 105
11, 72389, Control_c, 4, 11, 106
11, 72462, Control_c, 4, 11, 107
11, 72479, Note_on_c, 4, 56, 0
11, 72480, Note_on_c, 4, 59, 84
11, 72535, Control_c, 4, 11, 108
11, 72608, Control_c, 4, 11, 109
11, 72681, Control_c, 4, 11, 110
11, 72753, Control_c, 4, 11, 111
11, 72826, Control_c, 4, 11, 112
11, 72899, Control_c, 4, 11, 113
11, 72959, Note_on_c, 4, 59, 0
11, 73847, Control_c, 4, 11, 127
11, 73920, Note_on_c, 4, 55, 84
11, 73920, Note_on_c, 4, 67, 84
11, 74144, Note_on_c, 4, 55, 0
11, 74144, Note_on_c, 4, 67, 0
11, 74160, Note_on_c, 4, 67, 92
11, 74160, Note_on_c, 4, 55, 92
11, 74220, Control_c, 4, 11, 112
11, 75104, Note_on_c, 4, 67, 0
11, 75104, Note_on_c, 4, 55, 0
11, 75118, Control_c, 4, 11, 127
11, 75120, Note_on_c, 4, 67, 92
11, 75120, Note_on_c, 4, 55, 92
11, 75180, Control_c, 4, 11, 112
11, 76064, Note_on_c, 4, 67, 0
11, 76064, Note_on_c, 4, 55, 0
11, 76078, Control_c, 4, 11, 127
11, 76080, Note_on_c, 4, 55, 92
11, 76080, Note_on_c, 4, 67, 92
11, 76140, Control_c, 4, 11, 112
11, 76784, Note_on_c, 4, 55, 0
11, 76784, Note_on_c, 4, 67, 0
11, 76798, Control_c, 4, 11, 127
11, 76800, Note_on_c, 4, 68, 84
11, 76800, Note_on_c, 4, 56, 84
11, 77024, Note_on_c, 4, 68, 0
11, 77024, Note_on_c, 4, 56, 0
11, 77040, Note_on_c, 4, 68, 92
11, 77040, Note_on_c, 4, 56, 92
11, 77100, Control_c, 4, 11, 112
11, 77984, Note_on_c, 4, 68, 0
11, 77984, Note_on_c, 4, 56, 0
11, 77998, Control_c, 4, 11, 127
11, 78000, Note_on_c, 4, 56, 92
11, 78000, Note_on_c, 4, 68, 92
11, 78060, Control_c, 4, 11, 112
11, 78944, Note_on_c, 4, 56, 0
11, 78944, Note_on_c, 4, 68, 0
11, 78958, Control_c, 4, 11, 127
11, 78960, Note_on_c, 4, 68, 92
11, 78960, Note_on_c, 4, 56, 92
11, 79020, Control_c, 4, 11, 112
11, 79904, Note_on_c, 4, 68, 0
11, 79904, Note_on_c, 4, 56, 0
11, 79918, Control_c, 4, 11, 127
11, 79920, Note_on_c, 4, 56, 92
11, 79920, Note_on_c, 4, 68, 92
11, 79980, Control_c, 4, 11, 112
11, 80384, Note_on_c, 4, 56, 0
11, 80384, Note_on_c, 4, 68, 0
11, 80400, Note_on_c, 4, 57, 92
11, 80624, Note_on_c, 4, 57, 0
11, 80640, Note_on_c, 4, 46, 92
11, 80640, Note_on_c, 4, 58, 92
11, 80864, Note_on_c, 4, 46, 0
11, 80864, Note_on_c, 4, 58, 0
11, 80878, Control_c, 4, 11, 127
11, 80880, Note_on_c, 4, 46, 92
11, 80880, Note_on_c, 4, 58, 92
11, 80940, Control_c, 4, 11, 112
11, 81824, Note_on_c, 4, 46, 0
11, 81824, Note_on_c, 4, 58, 0
11, 81838, Control_c, 4, 11, 127
11, 81840, Note_on_c, 4, 58, 92
11, 81840, Note_on_c, 4, 46, 92
11, 81900, Control_c, 4, 11, 112
11, 82784, Note_on_c, 4, 58, 0
11, 82784, Note_on_c, 4, 46, 0
11, 82798, Control_c, 4, 11, 127
11, 82800, Note_on_c, 4, 46, 92
11, 82800, Note_on_c, 4, 58, 92
11, 82860, Control_c, 4, 11, 112
11, 83744, Note_on_c, 4, 46, 0
11, 83744, Note_on_c, 4, 58, 0
11, 83758, Control_c, 4, 11, 127
11, 83760, Note_on_c, 4, 58, 92
11, 83820, Control_c, 4, 11, 112
11, 84224, Note_on_c, 4, 58, 0
11, 84240, Note_on_c, 4, 60, 92
11, 84464, Note_on_c, 4, 60, 0
11, 84480, Note_on_c, 4, 61, 92
11, 84824, Note_on_c, 4, 61, 0
11, 84840, Note_on_c, 4, 61, 92
11, 84840, Note_on_c, 4, 65, 92
11, 84944, Note_on_c, 4, 61, 0
11, 84944, Note_on_c, 4, 65, 0
11, 84958, Control_c, 4, 11, 127
11, 84960, Note_on_c, 4, 61, 92
11, 84960, Note_on_c, 4, 65, 92
11, 85020, Control_c, 4, 11, 112
11, 85679, Note_on_c, 4, 61, 0
11, 85679, Note_on_c, 4, 65, 0
11, 86400, Note_on_c, 4, 61, 92
11, 86400, Note_on_c, 4, 58, 92
11, 86744, Note_on_c, 4, 61, 0
11, 86744, Note_on_c, 4, 58, 0
11, 86760, Note_on_c, 4, 61, 92
11, 86760, Note_on_c, 4, 58, 92
11, 86864, Note_on_c, 4, 61, 0
11, 86864, Note_on_c, 4, 58, 0
11, 86878, Control_c, 4, 11, 127
11, 86880, Note_on_c, 4, 58, 92
11, 86880, Note_on_c, 4, 61, 92
11, 86940, Control_c, 4, 11, 112
11, 87599, Note_on_c, 4, 58, 0
11, 87599, Note_on_c, 4, 61, 0
11, 88320, Note_on_c, 4, 58, 92
11, 88320, Note_on_c, 4, 61, 92
11, 88664, Note_on_c, 4, 58, 0
11, 88664, Note_on_c, 4, 61, 0
11, 88680, Note_on_c, 4, 66, 92
11, 88680, Note_on_c, 4, 54, 92
11, 88784, Note_on_c, 4, 66, 0
11, 88784, Note_on_c, 4, 54, 0
11, 88798, Control_c, 4, 11, 127
11, 88800, Note_on_c, 4, 66, 92
11, 88800, Note_on_c, 4, 54, 92
11, 88860, Control_c, 4, 11, 112
11, 90119, Note_on_c, 4, 66, 0
11, 90119, Note_on_c, 4, 54, 0
11, 90120, Note_on_c, 4, 67, 92
11, 90120, Note_on_c, 4, 55, 92
11, 90224, Note_on_c, 4, 67, 0
11, 90224, Note_on_c, 4, 55, 0
11, 90238, Control_c, 4, 11, 127
11, 90240, Note_on_c, 4, 67, 84
11, 90240, Note_on_c, 4, 55, 84
11, 90359, Note_on_c, 4, 67, 0
11, 90360, Note_on_c, 4, 66, 84
11, 90479, Note_on_c, 4, 55, 0
11, 90479, Note_on_c, 4, 66, 0
11, 90480, Note_on_c, 4, 67, 76
11, 90540, Control_c, 4, 11, 80
11, 91680, Control_c, 4, 11, 80
11, 91747, Control_c, 4, 11, 81
11, 91813, Control_c, 4, 11, 83
11, 91880, Control_c, 4, 11, 84
11, 91947, Control_c, 4, 11, 85
11, 92013, Control_c, 4, 11, 87
11, 92080, Control_c, 4, 11, 88
11, 92147, Control_c, 4, 11, 89
11, 92159, Note_on_c, 4, 67, 0
11, 92160, Note_on_c, 4, 67, 76
11, 92160, Note_on_c, 4, 40, 76
11, 92213, Control_c, 4, 11, 90
11, 92280, Control_c, 4, 11, 92
11, 92347, Control_c, 4, 11, 93
11, 92413, Control_c, 4, 11, 94
11, 92480, Control_c, 4, 11, 96
11, 92547, Control_c, 4, 11, 97
11, 92613, Control_c, 4, 11, 98
11, 92680, Control_c, 4, 11, 100
11, 92747, Control_c, 4, 11, 101
11, 92813, Control_c, 4, 11, 102
11, 92880, Control_c, 4, 11, 104
11, 92947, Control_c, 4, 11, 105
11, 93013, Control_c, 4, 11, 106
11, 93080, Control_c, 4, 11, 107
11, 93147, Control_c, 4, 11, 109
11, 93213, Control_c, 4, 11, 110
11, 93280, Control_c, 4, 11, 111
11, 93347, Control_c, 4, 11, 113
11, 93413, Control_c, 4, 11, 114
11, 93480, Control_c, 4, 11, 115
11, 93547, Control_c, 4, 11, 117
11, 93613, Control_c, 4, 11, 118
11, 93680, Control_c, 4, 11, 119
11, 93747, Control_c, 4, 11, 120
11, 93813, Control_c, 4, 11, 122
11, 93880, Control_c, 4, 11, 123
11, 93947, Control_c, 4, 11, 124
11, 94013, Control_c, 4, 11, 127
11, 94064, Note_on_c, 4, 40, 0
11, 94080, Note_on_c, 4, 40, 76
11, 94184, Note_on_c, 4, 67, 0
11, 94200, Note_on_c, 4, 66, 76
11, 94319, Note_on_c, 4, 40, 0
11, 94319, Note_on_c, 4, 66, 0
11, 94320, Note_on_c, 4, 67, 76
11, 94380, Control_c, 4, 11, 80
11, 95520, Control_c, 4, 11, 80
11, 95587, Control_c, 4, 11, 81
11, 95653, Control_c, 4, 11, 83
11, 95720, Control_c, 4, 11, 84
11, 95787, Control_c, 4, 11, 85
11, 95853, Control_c, 4, 11, 87
11, 95920, Control_c, 4, 11, 88
11, 95987, Control_c, 4, 11, 89
11, 95999, Note_on_c, 4, 67, 0
11, 96000, Note_on_c, 4, 40, 76
11, 96000, Note_on_c, 4, 67, 76
11, 96053, Control_c, 4, 11, 90
11, 96120, Control_c, 4, 11, 92
11, 96187, Control_c, 4, 11, 93
11, 96253, Control_c, 4, 11, 94
11, 96320, Control_c, 4, 11, 96
11, 96387, Control_c, 4, 11, 97
11, 96453, Control_c, 4, 11, 98
11, 96520, Control_c, 4, 11, 100
11, 96587, Control_c, 4, 11, 101
11, 96653, Control_c, 4, 11, 102
11, 96720, Control_c, 4, 11, 104
11, 96787, Control_c, 4, 11, 105
11, 96853, Control_c, 4, 11, 106
11, 96920, Control_c, 4, 11, 107
11, 96987, Control_c, 4, 11, 109
11, 97053, Control_c, 4, 11, 110
11, 97120, Control_c, 4, 11, 111
11, 97187, Control_c, 4, 11, 113
11, 97253, Control_c, 4, 11, 114
11, 97320, Control_c, 4, 11, 115
11, 97387, Control_c, 4, 11, 117
11, 97453, Control_c, 4, 11, 118
11, 97520, Control_c, 4, 11, 119
11, 97587, Control_c, 4, 11, 120
11, 97653, Control_c, 4, 11, 122
11, 97720, Control_c, 4, 11, 123
11, 97787, Control_c, 4, 11, 124
11, 97853, Control_c, 4, 11, 127
11, 97904, Note_on_c, 4, 40, 0
11, 97920, Note_on_c, 4, 40, 76
11, 98024, Note_on_c, 4, 67, 0
11, 98038, Control_c, 4, 11, 112
11, 98040, Note_on_c, 4, 66, 84
11, 98159, Note_on_c, 4, 40, 0
11, 98159, Note_on_c, 4, 66, 0
11, 98160, Note_on_c, 4, 67, 84
11, 98272, Control_c, 4, 11, 113
11, 98504, Control_c, 4, 11, 114
11, 98736, Control_c, 4, 11, 115
11, 98880, Note_on_c, 4, 51, 84
11, 98968, Control_c, 4, 11, 116
11, 98984, Note_on_c, 4, 67, 0
11, 99000, Note_on_c, 4, 66, 84
11, 99119, Note_on_c, 4, 51, 0
11, 99119, Note_on_c, 4, 66, 0
11, 99120, Note_on_c, 4, 67, 84
11, 99200, Control_c, 4, 11, 117
11, 99432, Control_c, 4, 11, 118
11, 99664, Control_c, 4, 11, 119
11, 99840, Note_on_c, 4, 50, 84
11, 99896, Control_c, 4, 11, 120
11, 99944, Note_on_c, 4, 67, 0
11, 99960, Note_on_c, 4, 67, 84
11, 100079, Note_on_c, 4, 50, 0
11, 100079, Note_on_c, 4, 67, 0
11, 100080, Note_on_c, 4, 68, 84
11, 100128, Control_c, 4, 11, 121
11, 100360, Control_c, 4, 11, 122
11, 100592, Control_c, 4, 11, 123
11, 100800, Note_on_c, 4, 49, 84
11, 100824, Control_c, 4, 11, 124
11, 100904, Note_on_c, 4, 68, 0
11, 100920, Note_on_c, 4, 67, 84
11, 101039, Note_on_c, 4, 49, 0
11, 101039, Note_on_c, 4, 67, 0
11, 101040, Note_on_c, 4, 68, 84
11, 101056, Control_c, 4, 11, 125
11, 101264, Note_on_c, 4, 68, 0
11, 101280, Note_on_c, 4, 69, 84
11, 101280, Note_on_c, 4, 48, 84
11, 101288, Control_c, 4, 11, 126
11, 101504, Note_on_c, 4, 69, 0
11, 101504, Note_on_c, 4, 48, 0
11, 101518, Control_c, 4, 11, 127
11, 101520, Note_on_c, 4, 54, 84
11, 101520, Note_on_c, 4, 66, 84
11, 103679, Note_on_c, 4, 54, 0
11, 103679, Note_on_c, 4, 66, 0
11, 103680, Note_on_c, 4, 54, 84
11, 103680, Note_on_c, 4, 66, 84
11, 105584, Note_on_c, 4, 54, 0
11, 105584, Note_on_c, 4, 66, 0
11, 105600, Note_on_c, 4, 60, 84
11, 105600, Note_on_c, 4, 57, 84
11, 106544, Note_on_c, 4, 60, 0
11, 106544, Note_on_c, 4, 57, 0
11, 106560, Note_on_c, 4, 57, 92
11, 106560, Note_on_c, 4, 60, 92
11, 106620, Control_c, 4, 11, 112
11, 107504, Note_on_c, 4, 57, 0
11, 107504, Note_on_c, 4, 60, 0
11, 107520, Note_on_c, 4, 58, 92
11, 107520, Note_on_c, 4, 61, 92
11, 108464, Note_on_c, 4, 58, 0
11, 108464, Note_on_c, 4, 61, 0
11, 108478, Control_c, 4, 11, 127
11, 108480, Note_on_c, 4, 58, 92
11, 108480, Note_on_c, 4, 55, 92
11, 108540, Control_c, 4, 11, 112
11, 109424, Note_on_c, 4, 58, 0
11, 109424, Note_on_c, 4, 55, 0
11, 109440, Note_on_c, 4, 60, 92
11, 109440, Note_on_c, 4, 57, 92
11, 109904, Note_on_c, 4, 60, 0
11, 109904, Note_on_c, 4, 57, 0
11, 109920, Note_on_c, 4, 45, 92
11, 109920, Note_on_c, 4, 57, 92
11, 110400, Control_c, 4, 11, 127
11, 110460, Control_c, 4, 11, 112
11, 111344, Note_on_c, 4, 45, 0
11, 111344, Note_on_c, 4, 57, 0
11, 111360, Note_on_c, 4, 46, 92
11, 111360, Note_on_c, 4, 58, 92
11, 112320, Control_c, 4, 11, 127
11, 112380, Control_c, 4, 11, 112
11, 112430, Control_c, 4, 11, 108
11, 112480, Control_c, 4, 11, 105
11, 112530, Control_c, 4, 11, 101
11, 112580, Control_c, 4, 11, 98
11, 112630, Control_c, 4, 11, 94
11, 112680, Control_c, 4, 11, 91
11, 112730, Control_c, 4, 11, 87
11, 112780, Control_c, 4, 11, 84
11, 112830, Control_c, 4, 11, 80
11, 112880, Control_c, 4, 11, 76
11, 112930, Control_c, 4, 11, 73
11, 112980, Control_c, 4, 11, 69
11, 113030, Control_c, 4, 11, 66
11, 113080, Control_c, 4, 11, 62
11, 113130, Control_c, 4, 11, 59
11, 113180, Control_c, 4, 11, 55
11, 113230, Control_c, 4, 11, 48
11, 113264, Note_on_c, 4, 46, 0
11, 113264, Note_on_c, 4, 58, 0
11, 113278, Control_c, 4, 11, 80
11, 113280, Note_on_c, 4, 41, 76
11, 113280, Note_on_c, 4, 53, 76
11, 113504, Note_on_c, 4, 41, 0
11, 113504, Note_on_c, 4, 53, 0
11, 113518, Control_c, 4, 11, 96
11, 113520, Note_on_c, 4, 65, 76
11, 113520, Note_on_c, 4, 53, 76
11, 114165, Control_c, 4, 11, 95
11, 114464, Note_on_c, 4, 65, 0
11, 114464, Note_on_c, 4, 53, 0
11, 114480, Note_on_c, 4, 53, 76
11, 114480, Note_on_c, 4, 65, 76
11, 114810, Control_c, 4, 11, 94
11, 115424, Note_on_c, 4, 53, 0
11, 115424, Note_on_c, 4, 65, 0
11, 115440, Note_on_c, 4, 65, 76
11, 115440, Note_on_c, 4, 53, 76
11, 115455, Control_c, 4, 11, 93
11, 115904, Note_on_c, 4, 65, 0
11, 115904, Note_on_c, 4, 53, 0
11, 115920, Note_on_c, 4, 54, 76
11, 115920, Note_on_c, 4, 66, 76
11, 116100, Control_c, 4, 11, 92
11, 116144, Note_on_c, 4, 54, 0
11, 116144, Note_on_c, 4, 66, 0
11, 116160, Note_on_c, 4, 55, 76
11, 116160, Note_on_c, 4, 67, 76
11, 116399, Note_on_c, 4, 55, 0
11, 116399, Note_on_c, 4, 67, 0
11, 137040, Control_c, 4, 11, 127
11, 137280, Note_on_c, 4, 60, 44
11, 137280, Note_on_c, 4, 48, 44
11, 139199, Note_on_c, 4, 60, 0
11, 139199, Note_on_c, 4, 48, 0
11, 139200, Note_on_c, 4, 48, 48
11, 139200, Note_on_c, 4, 60, 48
11, 141584, Note_on_c, 4, 48, 0
11, 141584, Note_on_c, 4, 60, 0
11, 141600, Note_on_c, 4, 48, 48
11, 141600, Note_on_c, 4, 60, 48
11, 142064, Note_on_c, 4, 48, 0
11, 142064, Note_on_c, 4, 60, 0
11, 142080, Note_on_c, 4, 59, 48
11, 142080, Note_on_c, 4, 47, 48
11, 143024, Note_on_c, 4, 59, 0
11, 143024, Note_on_c, 4, 47, 0
11, 143040, Note_on_c, 4, 60, 44
11, 143040, Note_on_c, 4, 48, 44
11, 144944, Note_on_c, 4, 60, 0
11, 144944, Note_on_c, 4, 48, 0
11, 144960, Note_on_c, 4, 60, 44
11, 144960, Note_on_c, 4, 48, 44
11, 145424, Note_on_c, 4, 60, 0
11, 145424, Note_on_c, 4, 48, 0
11, 145440, Note_on_c, 4, 60, 44
11, 145440, Note_on_c, 4, 48, 44
11, 145904, Note_on_c, 4, 60, 0
11, 145904, Note_on_c, 4, 48, 0
11, 145920, Note_on_c, 4, 60, 44
11, 145920, Note_on_c, 4, 48, 44
11, 146384, Note_on_c, 4, 60, 0
11, 146384, Note_on_c, 4, 48, 0
11, 146400, Note_on_c, 4, 60, 44
11, 146400, Note_on_c, 4, 48, 44
11, 146864, Note_on_c, 4, 60, 0
11, 146864, Note_on_c, 4, 48, 0
11, 146880, Note_on_c, 4, 55, 44
11, 146880, Note_on_c, 4, 43, 44
11, 148784, Note_on_c, 4, 55, 0
11, 148784, Note_on_c, 4, 43, 0
11, 148784, End_track
12, 0, Start_track
12, 0, Title_t, "French Horn in F"
12, 0, MIDI_port, 0
12, 0, Program_c, 5, 60
12, 0, Control_c, 5, 7, 96
12, 0, Control_c, 5, 10, 45
12, 0, Control_c, 5, 11, 127
12, 19200, Note_on_c, 5, 65, 84
12, 19200, Note_on_c, 5, 53, 84
12, 21104, Note_on_c, 5, 65, 0
12, 21104, Note_on_c, 5, 53, 0
12, 21120, Note_on_c, 5, 53, 84
12, 21120, Note_on_c, 5, 65, 84
12, 23024, Note_on_c, 5, 53, 0
12, 23024, Note_on_c, 5, 65, 0
12, 23040, Note_on_c, 5, 67, 84
12, 24944, Note_on_c, 5, 67, 0
12, 24960, Note_on_c, 5, 67, 84
12, 26864, Note_on_c, 5, 67, 0
12, 26880, Note_on_c, 5, 60, 84
12, 26880, Note_on_c, 5, 48, 84
12, 28784, Note_on_c, 5, 60, 0
12, 28784, Note_on_c, 5, 48, 0
12, 28800, Note_on_c, 5, 48, 84
12, 28800, Note_on_c, 5, 60, 84
12, 30704, Note_on_c, 5, 48, 0
12, 30704, Note_on_c, 5, 60, 0
12, 30720, Note_on_c, 5, 65, 92
12, 30720, Note_on_c, 5, 53, 92
12, 30839, Note_on_c, 5, 65, 0
12, 30839, Note_on_c, 5, 53, 0
12, 30960, Note_on_c, 5, 65, 84
12, 30960, Note_on_c, 5, 53, 84
12, 31079, Note_on_c, 5, 65, 0
12, 31079, Note_on_c, 5, 53, 0
12, 31680, Note_on_c, 5, 65, 92
12, 31680, Note_on_c, 5, 53, 92
12, 31799, Note_on_c, 5, 65, 0
12, 31799, Note_on_c, 5, 53, 0
12, 31920, Note_on_c, 5, 65, 84
12, 31920, Note_on_c, 5, 53, 84
12, 32039, Note_on_c, 5, 65, 0
12, 32039, Note_on_c, 5, 53, 0
12, 32640, Note_on_c, 5, 60, 84
12, 32640, Note_on_c, 5, 48, 84
12, 32879, Note_on_c, 5, 60, 0
12, 32879, Note_on_c, 5, 48, 0
12, 33120, Note_on_c, 5, 48, 92
12, 33120, Note_on_c, 5, 60, 92
12, 33180, Control_c, 5, 11, 112
12, 33839, Note_on_c, 5, 48, 0
12, 33839, Note_on_c, 5, 60, 0
12, 34320, Control_c, 5, 11, 127
12, 34560, Note_on_c, 5, 60, 84
12, 34560, Note_on_c, 5, 48, 84
12, 34799, Note_on_c, 5, 60, 0
12, 34799, Note_on_c, 5, 48, 0
12, 35040, Note_on_c, 5, 60, 92
12, 35040, Note_on_c, 5, 72, 92
12, 35100, Control_c, 5, 11, 112
12, 35759, Note_on_c, 5, 60, 0
12, 35759, Note_on_c, 5, 72, 0
12, 36240, Control_c, 5, 11, 127
12, 36480, Note_on_c, 5, 53, 84
12, 36719, Note_on_c, 5, 53, 0
12, 36960, Note_on_c, 5, 65, 92
12, 36960, Note_on_c, 5, 53, 92
12, 37020, Control_c, 5, 11, 112
12, 37438, Control_c, 5, 11, 127
12, 37679, Note_on_c, 5, 65, 0
12, 37679, Note_on_c, 5, 53, 0
12, 40560, Note_on_c, 5, 65, 84
12, 40679, Note_on_c, 5, 65, 0
12, 44400, Note_on_c, 5, 65, 84
12, 44400, Note_on_c, 5, 67, 84
12, 44519, Note_on_c, 5, 65, 0
12, 44519, Note_on_c, 5, 67, 0
12, 48240, Note_on_c, 5, 57, 76
12, 48240, Note_on_c, 5, 69, 76
12, 48359, Note_on_c, 5, 57, 0
12, 48359, Note_on_c, 5, 69, 0
12, 49200, Note_on_c, 5, 69, 76
12, 49200, Note_on_c, 5, 57, 76
12, 49319, Note_on_c, 5, 69, 0
12, 49319, Note_on_c, 5, 57, 0
12, 50160, Note_on_c, 5, 65, 76
12, 50160, Note_on_c, 5, 53, 76
12, 50279, Note_on_c, 5, 65, 0
12, 50279, Note_on_c, 5, 53, 0
12, 51120, Note_on_c, 5, 65, 76
12, 51120, Note_on_c, 5, 67, 76
12, 51239, Note_on_c, 5, 65, 0
12, 51239, Note_on_c, 5, 67, 0
12, 52080, Note_on_c, 5, 67, 80
12, 52080, Note_on_c, 5, 60, 80
12, 52199, Note_on_c, 5, 67, 0
12, 52199, Note_on_c, 5, 60, 0
12, 52560, Note_on_c, 5, 67, 80
12, 52679, Note_on_c, 5, 67, 0
12, 52800, Note_on_c, 5, 57, 80
12, 52800, Note_on_c, 5, 69, 80
12, 52919, Note_on_c, 5, 57, 0
12, 52919, Note_on_c, 5, 69, 0
12, 62400, Note_on_c, 5, 57, 44
12, 62400, Note_on_c, 5, 69, 44
12, 64319, Note_on_c, 5, 57, 0
12, 64319, Note_on_c, 5, 69, 0
12, 73920, Note_on_c, 5, 67, 84
12, 75119, Note_on_c, 5, 67, 0
12, 76800, Note_on_c, 5, 60, 84
12, 76800, Note_on_c, 5, 48, 84
12, 77039, Note_on_c, 5, 60, 0
12, 77039, Note_on_c, 5, 48, 0
12, 77760, Note_on_c, 5, 60, 84
12, 77760, Note_on_c, 5, 48, 84
12, 77999, Note_on_c, 5, 60, 0
12, 77999, Note_on_c, 5, 48, 0
12, 78720, Note_on_c, 5, 65, 84
12, 78720, Note_on_c, 5, 53, 84
12, 78959, Note_on_c, 5, 65, 0
12, 78959, Note_on_c, 5, 53, 0
12, 79680, Note_on_c, 5, 65, 84
12, 79680, Note_on_c, 5, 53, 84
12, 80879, Note_on_c, 5, 65, 0
12, 80879, Note_on_c, 5, 53, 0
12, 84480, Note_on_c, 5, 65, 84
12, 84824, Note_on_c, 5, 65, 0
12, 84840, Note_on_c, 5, 65, 84
12, 84944, Note_on_c, 5, 65, 0
12, 84960, Note_on_c, 5, 65, 92
12, 85020, Control_c, 5, 11, 112
12, 85679, Note_on_c, 5, 65, 0
12, 97680, Control_c, 5, 11, 127
12, 97920, Note_on_c, 5, 67, 76
12, 98159, Note_on_c, 5, 67, 0
12, 98880, Note_on_c, 5, 67, 77
12, 99119, Note_on_c, 5, 67, 0
12, 100080, Note_on_c, 5, 65, 79
12, 100080, Note_on_c, 5, 53, 79
12, 100319, Note_on_c, 5, 65, 0
12, 100319, Note_on_c, 5, 53, 0
12, 101040, Note_on_c, 5, 65, 81
12, 101040, Note_on_c, 5, 53, 81
12, 101279, Note_on_c, 5, 65, 0
12, 101279, Note_on_c, 5, 53, 0
12, 101520, Note_on_c, 5, 57, 84
12, 101520, Note_on_c, 5, 69, 84
12, 103679, Note_on_c, 5, 57, 0
12, 103679, Note_on_c, 5, 69, 0
12, 103680, Note_on_c, 5, 57, 84
12, 103680, Note_on_c, 5, 69, 84
12, 105584, Note_on_c, 5, 57, 0
12, 105584, Note_on_c, 5, 69, 0
12, 105600, Note_on_c, 5, 69, 84
12, 105600, Note_on_c, 5, 57, 84
12, 106544, Note_on_c, 5, 69, 0
12, 106544, Note_on_c, 5, 57, 0
12, 106560, Note_on_c, 5, 69, 92
12, 106560, Note_on_c, 5, 57, 92
12, 106620, Control_c, 5, 11, 112
12, 107504, Note_on_c, 5, 69, 0
12, 107504, Note_on_c, 5, 57, 0
12, 107520, Note_on_c, 5, 65, 92
12, 107520, Note_on_c, 5, 53, 92
12, 108464, Note_on_c, 5, 65, 0
12, 108464, Note_on_c, 5, 53, 0
12, 108478, Control_c, 5, 11, 127
12, 108480, Note_on_c, 5, 65, 92
12, 108480, Note_on_c, 5, 53, 92
12, 108540, Control_c, 5, 11, 112
12, 109424, Note_on_c, 5, 65, 0
12, 109424, Note_on_c, 5, 53, 0
12, 109440, Note_on_c, 5, 41, 92
12, 109440, Note_on_c, 5, 53, 92
12, 110384, Note_on_c, 5, 41, 0
12, 110384, Note_on_c, 5, 53, 0
12, 110398, Control_c, 5, 11, 127
12, 110400, Note_on_c, 5, 41, 92
12, 110400, Note_on_c, 5, 53, 92
12, 110460, Control_c, 5, 11, 112
12, 111344, Note_on_c, 5, 41, 0
12, 111344, Note_on_c, 5, 53, 0
12, 111360, Note_on_c, 5, 53, 92
12, 111360, Note_on_c, 5, 41, 92
12, 112304, Note_on_c, 5, 53, 0
12, 112304, Note_on_c, 5, 41, 0
12, 112318, Control_c, 5, 11, 127
12, 112320, Note_on_c, 5, 53, 92
12, 112320, Note_on_c, 5, 41, 92
12, 112380, Control_c, 5, 11, 112
12, 112430, Control_c, 5, 11, 108
12, 112480, Control_c, 5, 11, 105
12, 112530, Control_c, 5, 11, 101
12, 112580, Control_c, 5, 11, 98
12, 112630, Control_c, 5, 11, 94
12, 112680, Control_c, 5, 11, 91
12, 112730, Control_c, 5, 11, 87
12, 112780, Control_c, 5, 11, 84
12, 112830, Control_c, 5, 11, 80
12, 112880, Control_c, 5, 11, 76
12, 112930, Control_c, 5, 11, 73
12, 112980, Control_c, 5, 11, 69
12, 113030, Control_c, 5, 11, 66
12, 113080, Control_c, 5, 11, 62
12, 113130, Control_c, 5, 11, 59
12, 113180, Control_c, 5, 11, 55
12, 113230, Control_c, 5, 11, 48
12, 113264, Note_on_c, 5, 53, 0
12, 113264, Note_on_c, 5, 41, 0
12, 113280, Note_on_c, 5, 53, 92
12, 113280, Note_on_c, 5, 41, 92
12, 113519, Note_on_c, 5, 53, 0
12, 113519, Note_on_c, 5, 41, 0
12, 114240, Control_c, 5, 11, 127
12, 114240, End_track
13, 0, Start_track
13, 0, Title_t, "Trumpet in E-flat"
13, 0, MIDI_port, 0
13, 0, Program_c, 6, 56
13, 0, Control_c, 6, 7, 96
13, 0, Control_c, 6, 10, 60
13, 0, Control_c, 6, 11, 127
13, 19200, Note_on_c, 6, 77, 84
13, 21104, Note_on_c, 6, 77, 0
13, 21120, Note_on_c, 6, 77, 84
13, 23024, Note_on_c, 6, 77, 0
13, 23040, Note_on_c, 6, 70, 84
13, 23040, Note_on_c, 6, 58, 84
13, 24944, Note_on_c, 6, 70, 0
13, 24944, Note_on_c, 6, 58, 0
13, 24960, Note_on_c, 6, 70, 84
13, 24960, Note_on_c, 6, 58, 84
13, 26864, Note_on_c, 6, 70, 0
13, 26864, Note_on_c, 6, 58, 0
13, 26880, Note_on_c, 6, 63, 84
13, 26880, Note_on_c, 6, 75, 84
13, 28784, Note_on_c, 6, 63, 0
13, 28784, Note_on_c, 6, 75, 0
13, 28800, Note_on_c, 6, 75, 84
13, 28800, Note_on_c, 6, 63, 84
13, 30704, Note_on_c, 6, 75, 0
13, 30704, Note_on_c, 6, 63, 0
13, 30720, Note_on_c, 6, 70, 92
13, 30720, Note_on_c, 6, 58, 92
13, 30839, Note_on_c, 6, 70, 0
13, 30839, Note_on_c, 6, 58, 0
13, 30960, Note_on_c, 6, 58, 84
13, 30960, Note_on_c, 6, 70, 84
13, 31079, Note_on_c, 6, 58, 0
13, 31079, Note_on_c, 6, 70, 0
13, 36960, Note_on_c, 6, 77, 92
13, 37020, Control_c, 6, 11, 112
13, 37679, Note_on_c, 6, 77, 0
13, 44160, Control_c, 6, 11, 127
13, 44400, Note_on_c, 6, 67, 84
13, 44400, Note_on_c, 6, 79, 84
13, 44519, Note_on_c, 6, 67, 0
13, 44519, Note_on_c, 6, 79, 0
13, 48240, Note_on_c, 6, 63, 76
13, 48240, Note_on_c, 6, 75, 76
13, 48359, Note_on_c, 6, 63, 0
13, 48359, Note_on_c, 6, 75, 0
13, 49200, Note_on_c, 6, 63, 76
13, 49200, Note_on_c, 6, 75, 76
13, 49319, Note_on_c, 6, 63, 0
13, 49319, Note_on_c, 6, 75, 0
13, 50160, Note_on_c, 6, 70, 76
13, 50160, Note_on_c, 6, 58, 76
13, 50279, Note_on_c, 6, 70, 0
13, 50279, Note_on_c, 6, 58, 0
13, 51120, Note_on_c, 6, 79, 76
13, 51120, Note_on_c, 6, 67, 76
13, 51239, Note_on_c, 6, 79, 0
13, 51239, Note_on_c, 6, 67, 0
13, 52080, Note_on_c, 6, 79, 80
13, 52080, Note_on_c, 6, 67, 80
13, 52199, Note_on_c, 6, 79, 0
13, 52199, Note_on_c, 6, 67, 0
13, 52560, Note_on_c, 6, 79, 80
13, 52560, Note_on_c, 6, 67, 80
13, 52679, Note_on_c, 6, 79, 0
13, 52679, Note_on_c, 6, 67, 0
13, 56640, Note_on_c, 6, 70, 44
13, 56640, Note_on_c, 6, 58, 44
13, 58559, Note_on_c, 6, 70, 0
13, 58559, Note_on_c, 6, 58, 0
13, 73920, Note_on_c, 6, 79, 84
13, 73920, Note_on_c, 6, 67, 84
13, 75119, Note_on_c, 6, 79, 0
13, 75119, Note_on_c, 6, 67, 0
13, 80400, Note_on_c, 6, 63, 92
13, 80400, Note_on_c, 6, 75, 92
13, 80609, Note_on_c, 6, 63, 0
13, 80609, Note_on_c, 6, 75, 0
13, 80640, Note_on_c, 6, 82, 84
13, 80640, Note_on_c, 6, 70, 84
13, 81839, Note_on_c, 6, 82, 0
13, 81839, Note_on_c, 6, 70, 0
13, 82800, Note_on_c, 6, 58, 92
13, 82800, Note_on_c, 6, 70, 92
13, 82860, Control_c, 6, 11, 112
13, 83744, Note_on_c, 6, 58, 0
13, 83744, Note_on_c, 6, 70, 0
13, 83758, Control_c, 6, 11, 127
13, 83760, Note_on_c, 6, 70, 92
13, 83760, Note_on_c, 6, 58, 92
13, 83820, Control_c, 6, 11, 112
13, 84239, Note_on_c, 6, 70, 0
13, 84239, Note_on_c, 6, 58, 0
13, 84480, Note_on_c, 6, 73, 92
13, 85679, Note_on_c, 6, 73, 0
13, 86400, Note_on_c, 6, 70, 92
13, 86400, Note_on_c, 6, 58, 92
13, 86744, Note_on_c, 6, 70, 0
13, 86744, Note_on_c, 6, 58, 0
13, 86760, Note_on_c, 6, 70, 92
13, 86760, Note_on_c, 6, 58, 92
13, 86864, Note_on_c, 6, 70, 0
13, 86864, Note_on_c, 6, 58, 0
13, 86878, Control_c, 6, 11, 127
13, 86880, Note_on_c, 6, 58, 92
13, 86880, Note_on_c, 6, 70, 92
13, 86940, Control_c, 6, 11, 112
13, 87599, Note_on_c, 6, 58, 0
13, 87599, Note_on_c, 6, 70, 0
13, 101280, Control_c, 6, 11, 127
13, 101520, Note_on_c, 6, 63, 84
13, 101520, Note_on_c, 6, 75, 84
13, 103679, Note_on_c, 6, 63, 0
13, 103679, Note_on_c, 6, 75, 0
13, 103680, Note_on_c, 6, 75, 84
13, 103680, Note_on_c, 6, 63, 84
13, 105584, Note_on_c, 6, 75, 0
13, 105584, Note_on_c, 6, 63, 0
13, 105600, Note_on_c, 6, 63, 84
13, 105600, Note_on_c, 6, 75, 84
13, 106544, Note_on_c, 6, 63, 0
13, 106544, Note_on_c, 6, 75, 0
13, 106560, Note_on_c, 6, 75, 92
13, 106560, Note_on_c, 6, 63, 92
13, 106620, Control_c, 6, 11, 112
13, 107504, Note_on_c, 6, 75, 0
13, 107504, Note_on_c, 6, 63, 0
13, 108478, Control_c, 6, 11, 127
13, 108480, Note_on_c, 6, 58, 92
13, 108480, Note_on_c, 6, 70, 92
13, 108540, Control_c, 6, 11, 112
13, 109424, Note_on_c, 6, 58, 0
13, 109424, Note_on_c, 6, 70, 0
13, 110398, Control_c, 6, 11, 127
13, 110400, Note_on_c, 6, 63, 92
13, 110400, Note_on_c, 6, 75, 92
13, 110460, Control_c, 6, 11, 112
13, 111344, Note_on_c, 6, 63, 0
13, 111344, Note_on_c, 6, 75, 0
13, 112318, Control_c, 6, 11, 127
13, 112320, Note_on_c, 6, 70, 92
13, 112320, Note_on_c, 6, 58, 92
13, 112380, Control_c, 6, 11, 112
13, 112430, Control_c, 6, 11, 108
13, 112480, Control_c, 6, 11, 105
13, 112530, Control_c, 6, 11, 101
13, 112580, Control_c, 6, 11, 98
13, 112630, Control_c, 6, 11, 94
13, 112680, Control_c, 6, 11, 91
13, 112730, Control_c, 6, 11, 87
13, 112780, Control_c, 6, 11, 84
13, 112830, Control_c, 6, 11, 80
13, 112880, Control_c, 6, 11, 76
13, 112930, Control_c, 6, 11, 73
13, 112980, Control_c, 6, 11, 69
13, 113030, Control_c, 6, 11, 66
13, 113080, Control_c, 6, 11, 62
13, 113130, Control_c, 6, 11, 59
13, 113180, Control_c, 6, 11, 55
13, 113230, Control_c, 6, 11, 48
13, 113264, Note_on_c, 6, 70, 0
13, 113264, Note_on_c, 6, 58, 0
13, 114240, Control_c, 6, 11, 127
13, 114240, End_track
14, 0, Start_track
14, 0, Title_t, "Timpani"
14, 0, MIDI_port, 0
14, 0, Program_c, 7, 47
14, 0, Control_c, 7, 7, 96
14, 0, Control_c, 7, 10, 25
14, 0, Control_c, 7, 11, 127
14, 19200, Note_on_c, 7, 41, 80
14, 19229, Note_on_c, 7, 41, 0
14, 19230, Note_on_c, 7, 41, 84
14, 19259, Note_on_c, 7, 41, 0
14, 19260, Note_on_c, 7, 41, 81
14, 19289, Note_on_c, 7, 41, 0
14, 19290, Note_on_c, 7, 41, 86
14, 19319, Note_on_c, 7, 41, 0
14, 19320, Note_on_c, 7, 41, 84
14, 19349, Note_on_c, 7, 41, 0
14, 19350, Note_on_c, 7, 41, 83
14, 19379, Note_on_c, 7, 41, 0
14, 19380, Note_on_c, 7, 41, 82
14, 19409, Note_on_c, 7, 41, 0
14, 19410, Note_on_c, 7, 41, 87
14, 19439, Note_on_c, 7, 41, 0
14, 19440, Note_on_c, 7, 41, 86
14, 19469, Note_on_c, 7, 41, 0
14, 19470, Note_on_c, 7, 41, 85
14, 19499, Note_on_c, 7, 41, 0
14, 19500, Note_on_c, 7, 41, 81
14, 19529, Note_on_c, 7, 41, 0
14, 19530, Note_on_c, 7, 41, 86
14, 19559, Note_on_c, 7, 41, 0
14, 19560, Note_on_c, 7, 41, 85
14, 19589, Note_on_c, 7, 41, 0
14, 19590, Note_on_c, 7, 41, 84
14, 19619, Note_on_c, 7, 41, 0
14, 19620, Note_on_c, 7, 41, 82
14, 19649, Note_on_c, 7, 41, 0
14, 19650, Note_on_c, 7, 41, 80
14, 19679, Note_on_c, 7, 41, 0
14, 19680, Note_on_c, 7, 41, 80
14, 19709, Note_on_c, 7, 41, 0
14, 19710, Note_on_c, 7, 41, 82
14, 19739, Note_on_c, 7, 41, 0
14, 19740, Note_on_c, 7, 41, 81
14, 19769, Note_on_c, 7, 41, 0
14, 19770, Note_on_c, 7, 41, 81
14, 19799, Note_on_c, 7, 41, 0
14, 19800, Note_on_c, 7, 41, 87
14, 19829, Note_on_c, 7, 41, 0
14, 19830, Note_on_c, 7, 41, 83
14, 19859, Note_on_c, 7, 41, 0
14, 19860, Note_on_c, 7, 41, 80
14, 19889, Note_on_c, 7, 41, 0
14, 19890, Note_on_c, 7, 41, 80
14, 19919, Note_on_c, 7, 41, 0
14, 19920, Note_on_c, 7, 41, 80
14, 19949, Note_on_c, 7, 41, 0
14, 19950, Note_on_c, 7, 41, 83
14, 19979, Note_on_c, 7, 41, 0
14, 19980, Note_on_c, 7, 41, 84
14, 20009, Note_on_c, 7, 41, 0
14, 20010, Note_on_c, 7, 41, 84
14, 20039, Note_on_c, 7, 41, 0
14, 20040, Note_on_c, 7, 41, 84
14, 20069, Note_on_c, 7, 41, 0
14, 20070, Note_on_c, 7, 41, 84
14, 20099, Note_on_c, 7, 41, 0
14, 20100, Note_on_c, 7, 41, 81
14, 20129, Note_on_c, 7, 41, 0
14, 20130, Note_on_c, 7, 41, 85
14, 20159, Note_on_c, 7, 41, 0
14, 20160, Note_on_c, 7, 41, 83
14, 20189, Note_on_c, 7, 41, 0
14, 20190, Note_on_c, 7, 41, 82
14, 20219, Note_on_c, 7, 41, 0
14, 20220, Note_on_c, 7, 41, 80
14, 20249, Note_on_c, 7, 41, 0
14, 20250, Note_on_c, 7, 41, 84
14, 20279, Note_on_c, 7, 41, 0
14, 20280, Note_on_c, 7, 41, 86
14, 20309, Note_on_c, 7, 41, 0
14, 20310, Note_on_c, 7, 41, 86
14, 20339, Note_on_c, 7, 41, 0
14, 20340, Note_on_c, 7, 41, 84
14, 20369, Note_on_c, 7, 41, 0
14, 20370, Note_on_c, 7, 41, 82
14, 20399, Note_on_c, 7, 41, 0
14, 20400, Note_on_c, 7, 41, 87
14, 20429, Note_on_c, 7, 41, 0
14, 20430, Note_on_c, 7, 41, 85
14, 20459, Note_on_c, 7, 41, 0
14, 20460, Note_on_c, 7, 41, 87
14, 20489, Note_on_c, 7, 41, 0
14, 20490, Note_on_c, 7, 41, 87
14, 20519, Note_on_c, 7, 41, 0
14, 20520, Note_on_c, 7, 41, 84
14, 20549, Note_on_c, 7, 41, 0
14, 20550, Note_on_c, 7, 41, 81
14, 20579, Note_on_c, 7, 41, 0
14, 20580, Note_on_c, 7, 41, 83
14, 20609, Note_on_c, 7, 41, 0
14, 20610, Note_on_c, 7, 41, 81
14, 20639, Note_on_c, 7, 41, 0
14, 20640, Note_on_c, 7, 41, 86
14, 20669, Note_on_c, 7, 41, 0
14, 20670, Note_on_c, 7, 41, 81
14, 20699, Note_on_c, 7, 41, 0
14, 20700, Note_on_c, 7, 41, 86
14, 20729, Note_on_c, 7, 41, 0
14, 20730, Note_on_c, 7, 41, 86
14, 20759, Note_on_c, 7, 41, 0
14, 20760, Note_on_c, 7, 41, 87
14, 20789, Note_on_c, 7, 41, 0
14, 20790, Note_on_c, 7, 41, 87
14, 20819, Note_on_c, 7, 41, 0
14, 20820, Note_on_c, 7, 41, 84
14, 20849, Note_on_c, 7, 41, 0
14, 20850, Note_on_c, 7, 41, 83
14, 20879, Note_on_c, 7, 41, 0
14, 20880, Note_on_c, 7, 41, 82
14, 20909, Note_on_c, 7, 41, 0
14, 20910, Note_on_c, 7, 41, 82
14, 20939, Note_on_c, 7, 41, 0
14, 20940, Note_on_c, 7, 41, 86
14, 20969, Note_on_c, 7, 41, 0
14, 20970, Note_on_c, 7, 41, 80
14, 20999, Note_on_c, 7, 41, 0
14, 21000, Note_on_c, 7, 41, 83
14, 21029, Note_on_c, 7, 41, 0
14, 21030, Note_on_c, 7, 41, 80
14, 21059, Note_on_c, 7, 41, 0
14, 21060, Note_on_c, 7, 41, 85
14, 21089, Note_on_c, 7, 41, 0
14, 21090, Note_on_c, 7, 41, 80
14, 21119, Note_on_c, 7, 41, 0
14, 21120, Note_on_c, 7, 41, 80
14, 21149, Note_on_c, 7, 41, 0
14, 21150, Note_on_c, 7, 41, 87
14, 21179, Note_on_c, 7, 41, 0
14, 21180, Note_on_c, 7, 41, 82
14, 21209, Note_on_c, 7, 41, 0
14, 21210, Note_on_c, 7, 41, 82
14, 21239, Note_on_c, 7, 41, 0
14, 21240, Note_on_c, 7, 41, 84
14, 21269, Note_on_c, 7, 41, 0
14, 21270, Note_on_c, 7, 41, 85
14, 21299, Note_on_c, 7, 41, 0
14, 21300, Note_on_c, 7, 41, 86
14, 21329, Note_on_c, 7, 41, 0
14, 21330, Note_on_c, 7, 41, 85
14, 21359, Note_on_c, 7, 41, 0
14, 21360, Note_on_c, 7, 41, 83
14, 21389, Note_on_c, 7, 41, 0
14, 21390, Note_on_c, 7, 41, 81
14, 21419, Note_on_c, 7, 41, 0
14, 21420, Note_on_c, 7, 41, 85
14, 21449, Note_on_c, 7, 41, 0
14, 21450, Note_on_c, 7, 41, 83
14, 21479, Note_on_c, 7, 41, 0
14, 21480, Note_on_c, 7, 41, 83
14, 21509, Note_on_c, 7, 41, 0
14, 21510, Note_on_c, 7, 41, 87
14, 21539, Note_on_c, 7, 41, 0
14, 21540, Note_on_c, 7, 41, 85
14, 21569, Note_on_c, 7, 41, 0
14, 21570, Note_on_c, 7, 41, 80
14, 21599, Note_on_c, 7, 41, 0
14, 21600, Note_on_c, 7, 41, 84
14, 21629, Note_on_c, 7, 41, 0
14, 21630, Note_on_c, 7, 41, 83
14, 21659, Note_on_c, 7, 41, 0
14, 21660, Note_on_c, 7, 41, 85
14, 21689, Note_on_c, 7, 41, 0
14, 21690, Note_on_c, 7, 41, 84
14, 21719, Note_on_c, 7, 41, 0
14, 21720, Note_on_c, 7, 41, 84
14, 21749, Note_on_c, 7, 41, 0
14, 21750, Note_on_c, 7, 41, 82
14, 21779, Note_on_c, 7, 41, 0
14, 21780, Note_on_c, 7, 41, 81
14, 21809, Note_on_c, 7, 41, 0
14, 21810, Note_on_c, 7, 41, 81
14, 21839, Note_on_c, 7, 41, 0
14, 21840, Note_on_c, 7, 41, 83
14, 21869, Note_on_c, 7, 41, 0
14, 21870, Note_on_c, 7, 41, 86
14, 21899, Note_on_c, 7, 41, 0
14, 21900, Note_on_c, 7, 41, 84
14, 21929, Note_on_c, 7, 41, 0
14, 21930, Note_on_c, 7, 41, 87
14, 21959, Note_on_c, 7, 41, 0
14, 21960, Note_on_c, 7, 41, 86
14, 21989, Note_on_c, 7, 41, 0
14, 21990, Note_on_c, 7, 41, 82
14, 22019, Note_on_c, 7, 41, 0
14, 22020, Note_on_c, 7, 41, 81
14, 22049, Note_on_c, 7, 41, 0
14, 22050, Note_on_c, 7, 41, 85
14, 22079, Note_on_c, 7, 41, 0
14, 22080, Note_on_c, 7, 41, 83
14, 22109, Note_on_c, 7, 41, 0
14, 22110, Note_on_c, 7, 41, 80
14, 22139, Note_on_c, 7, 41, 0
14, 22140, Note_on_c, 7, 41, 85
14, 22169, Note_on_c, 7, 41, 0
14, 22170, Note_on_c, 7, 41, 84
14, 22199, Note_on_c, 7, 41, 0
14, 22200, Note_on_c, 7, 41, 81
14, 22229, Note_on_c, 7, 41, 0
14, 22230, Note_on_c, 7, 41, 87
14, 22259, Note_on_c, 7, 41, 0
14, 22260, Note_on_c, 7, 41, 81
14, 22289, Note_on_c, 7, 41, 0
14, 22290, Note_on_c, 7, 41, 87
14, 22319, Note_on_c, 7, 41, 0
14, 22320, Note_on_c, 7, 41, 85
14, 22349, Note_on_c, 7, 41, 0
14, 22350, Note_on_c, 7, 41, 82
14, 22379, Note_on_c, 7, 41, 0
14, 22380, Note_on_c, 7, 41, 83
14, 22409, Note_on_c, 7, 41, 0
14, 22410, Note_on_c, 7, 41, 80
14, 22439, Note_on_c, 7, 41, 0
14, 22440, Note_on_c, 7, 41, 87
14, 22469, Note_on_c, 7, 41, 0
14, 22470, Note_on_c, 7, 41, 85
14, 22499, Note_on_c, 7, 41, 0
14, 22500, Note_on_c, 7, 41, 81
14, 22529, Note_on_c, 7, 41, 0
14, 22530, Note_on_c, 7, 41, 87
14, 22559, Note_on_c, 7, 41, 0
14, 22560, Note_on_c, 7, 41, 86
14, 22589, Note_on_c, 7, 41, 0
14, 22590, Note_on_c, 7, 41, 84
14, 22619, Note_on_c, 7, 41, 0
14, 22620, Note_on_c, 7, 41, 81
14, 22649, Note_on_c, 7, 41, 0
14, 22650, Note_on_c, 7, 41, 81
14, 22679, Note_on_c, 7, 41, 0
14, 22680, Note_on_c, 7, 41, 86
14, 22709, Note_on_c, 7, 41, 0
14, 22710, Note_on_c, 7, 41, 83
14, 22739, Note_on_c, 7, 41, 0
14, 22740, Note_on_c, 7, 41, 81
14, 22769, Note_on_c, 7, 41, 0
14, 22770, Note_on_c, 7, 41, 84
14, 22799, Note_on_c, 7, 41, 0
14, 22800, Note_on_c, 7, 41, 85
14, 22829, Note_on_c, 7, 41, 0
14, 22830, Note_on_c, 7, 41, 83
14, 22859, Note_on_c, 7, 41, 0
14, 22860, Note_on_c, 7, 41, 82
14, 22889, Note_on_c, 7, 41, 0
14, 22890, Note_on_c, 7, 41, 84
14, 22919, Note_on_c, 7, 41, 0
14, 22920, Note_on_c, 7, 41, 85
14, 22949, Note_on_c, 7, 41, 0
14, 22950, Note_on_c, 7, 41, 86
14, 22979, Note_on_c, 7, 41, 0
14, 22980, Note_on_c, 7, 41, 85
14, 23009, Note_on_c, 7, 41, 0
14, 23010, Note_on_c, 7, 41, 83
14, 23039, Note_on_c, 7, 41, 0
14, 26880, Note_on_c, 7, 41, 80
14, 26909, Note_on_c, 7, 41, 0
14, 26910, Note_on_c, 7, 41, 82
14, 26939, Note_on_c, 7, 41, 0
14, 26940, Note_on_c, 7, 41, 86
14, 26969, Note_on_c, 7, 41, 0
14, 26970, Note_on_c, 7, 41, 80
14, 26999, Note_on_c, 7, 41, 0
14, 27000, Note_on_c, 7, 41, 84
14, 27029, Note_on_c, 7, 41, 0
14, 27030, Note_on_c, 7, 41, 85
14, 27059, Note_on_c, 7, 41, 0
14, 27060, Note_on_c, 7, 41, 83
14, 27089, Note_on_c, 7, 41, 0
14, 27090, Note_on_c, 7, 41, 80
14, 27119, Note_on_c, 7, 41, 0
14, 27120, Note_on_c, 7, 41, 87
14, 27149, Note_on_c, 7, 41, 0
14, 27150, Note_on_c, 7, 41, 87
14, 27179, Note_on_c, 7, 41, 0
14, 27180, Note_on_c, 7, 41, 84
14, 27209, Note_on_c, 7, 41, 0
14, 27210, Note_on_c, 7, 41, 82
14, 27239, Note_on_c, 7, 41, 0
14, 27240, Note_on_c, 7, 41, 83
14, 27269, Note_on_c, 7, 41, 0
14, 27270, Note_on_c, 7, 41, 82
14, 27299, Note_on_c, 7, 41, 0
14, 27300, Note_on_c, 7, 41, 86
14, 27329, Note_on_c, 7, 41, 0
14, 27330, Note_on_c, 7, 41, 82
14, 27359, Note_on_c, 7, 41, 0
14, 27360, Note_on_c, 7, 41, 83
14, 27389, Note_on_c, 7, 41, 0
14, 27390, Note_on_c, 7, 41, 82
14, 27419, Note_on_c, 7, 41, 0
14, 27420, Note_on_c, 7, 41, 87
14, 27449, Note_on_c, 7, 41, 0
14, 27450, Note_on_c, 7, 41, 82
14, 27479, Note_on_c, 7, 41, 0
14, 27480, Note_on_c, 7, 41, 85
14, 27509, Note_on_c, 7, 41, 0
14, 27510, Note_on_c, 7, 41, 84
14, 27539, Note_on_c, 7, 41, 0
14, 27540, Note_on_c, 7, 41, 81
14, 27569, Note_on_c, 7, 41, 0
14, 27570, Note_on_c, 7, 41, 86
14, 27599, Note_on_c, 7, 41, 0
14, 27600, Note_on_c, 7, 41, 86
14, 27629, Note_on_c, 7, 41, 0
14, 27630, Note_on_c, 7, 41, 83
14, 27659, Note_on_c, 7, 41, 0
14, 27660, Note_on_c, 7, 41, 84
14, 27689, Note_on_c, 7, 41, 0
14, 27690, Note_on_c, 7, 41, 87
14, 27719, Note_on_c, 7, 41, 0
14, 27720, Note_on_c, 7, 41, 80
14, 27749, Note_on_c, 7, 41, 0
14, 27750, Note_on_c, 7, 41, 87
14, 27779, Note_on_c, 7, 41, 0
14, 27780, Note_on_c, 7, 41, 84
14, 27809, Note_on_c, 7, 41, 0
14, 27810, Note_on_c, 7, 41, 80
14, 27839, Note_on_c, 7, 41, 0
14, 27840, Note_on_c, 7, 41, 84
14, 27869, Note_on_c, 7, 41, 0
14, 27870, Note_on_c, 7, 41, 81
14, 27899, Note_on_c, 7, 41, 0
14, 27900, Note_on_c, 7, 41, 86
14, 27929, Note_on_c, 7, 41, 0
14, 27930, Note_on_c, 7, 41, 85
14, 27959, Note_on_c, 7, 41, 0
14, 27960, Note_on_c, 7, 41, 85
14, 27989, Note_on_c, 7, 41, 0
14, 27990, Note_on_c, 7, 41, 81
14, 28019, Note_on_c, 7, 41, 0
14, 28020, Note_on_c, 7, 41, 86
14, 28049, Note_on_c, 7, 41, 0
14, 28050, Note_on_c, 7, 41, 80
14, 28079, Note_on_c, 7, 41, 0
14, 28080, Note_on_c, 7, 41, 80
14, 28109, Note_on_c, 7, 41, 0
14, 28110, Note_on_c, 7, 41, 85
14, 28139, Note_on_c, 7, 41, 0
14, 28140, Note_on_c, 7, 41, 82
14, 28169, Note_on_c, 7, 41, 0
14, 28170, Note_on_c, 7, 41, 87
14, 28199, Note_on_c, 7, 41, 0
14, 28200, Note_on_c, 7, 41, 82
14, 28229, Note_on_c, 7, 41, 0
14, 28230, Note_on_c, 7, 41, 82
14, 28259, Note_on_c, 7, 41, 0
14, 28260, Note_on_c, 7, 41, 81
14, 28289, Note_on_c, 7, 41, 0
14, 28290, Note_on_c, 7, 41, 85
14, 28319, Note_on_c, 7, 41, 0
14, 28320, Note_on_c, 7, 41, 86
14, 28349, Note_on_c, 7, 41, 0
14, 28350, Note_on_c, 7, 41, 85
14, 28379, Note_on_c, 7, 41, 0
14, 28380, Note_on_c, 7, 41, 84
14, 28409, Note_on_c, 7, 41, 0
14, 28410, Note_on_c, 7, 41, 85
14, 28439, Note_on_c, 7, 41, 0
14, 28440, Note_on_c, 7, 41, 82
14, 28469, Note_on_c, 7, 41, 0
14, 28470, Note_on_c, 7, 41, 81
14, 28499, Note_on_c, 7, 41, 0
14, 28500, Note_on_c, 7, 41, 80
14, 28529, Note_on_c, 7, 41, 0
14, 28530, Note_on_c, 7, 41, 80
14, 28559, Note_on_c, 7, 41, 0
14, 28560, Note_on_c, 7, 41, 86
14, 28589, Note_on_c, 7, 41, 0
14, 28590, Note_on_c, 7, 41, 86
14, 28619, Note_on_c, 7, 41, 0
14, 28620, Note_on_c, 7, 41, 81
14, 28649, Note_on_c, 7, 41, 0
14, 28650, Note_on_c, 7, 41, 80
14, 28679, Note_on_c, 7, 41, 0
14, 28680, Note_on_c, 7, 41, 84
14, 28709, Note_on_c, 7, 41, 0
14, 28710, Note_on_c, 7, 41, 80
14, 28739, Note_on_c, 7, 41, 0
14, 28740, Note_on_c, 7, 41, 80
14, 28769, Note_on_c, 7, 41, 0
14, 28770, Note_on_c, 7, 41, 83
14, 28799, Note_on_c, 7, 41, 0
14, 28800, Note_on_c, 7, 41, 86
14, 28829, Note_on_c, 7, 41, 0
14, 28830, Note_on_c, 7, 41, 85
14, 28859, Note_on_c, 7, 41, 0
14, 28860, Note_on_c, 7, 41, 84
14, 28889, Note_on_c, 7, 41, 0
14, 28890, Note_on_c, 7, 41, 80
14, 28919, Note_on_c, 7, 41, 0
14, 28920, Note_on_c, 7, 41, 83
14, 28949, Note_on_c, 7, 41, 0
14, 28950, Note_on_c, 7, 41, 81
14, 28979, Note_on_c, 7, 41, 0
14, 28980, Note_on_c, 7, 41, 85
14, 29009, Note_on_c, 7, 41, 0
14, 29010, Note_on_c, 7, 41, 82
14, 29039, Note_on_c, 7, 41, 0
14, 29040, Note_on_c, 7, 41, 83
14, 29069, Note_on_c, 7, 41, 0
14, 29070, Note_on_c, 7, 41, 81
14, 29099, Note_on_c, 7, 41, 0
14, 29100, Note_on_c, 7, 41, 84
14, 29129, Note_on_c, 7, 41, 0
14, 29130, Note_on_c, 7, 41, 84
14, 29159, Note_on_c, 7, 41, 0
14, 29160, Note_on_c, 7, 41, 85
14, 29189, Note_on_c, 7, 41, 0
14, 29190, Note_on_c, 7, 41, 81
14, 29219, Note_on_c, 7, 41, 0
14, 29220, Note_on_c, 7, 41, 84
14, 29249, Note_on_c, 7, 41, 0
14, 29250, Note_on_c, 7, 41, 87
14, 29279, Note_on_c, 7, 41, 0
14, 29280, Note_on_c, 7, 41, 85
14, 29309, Note_on_c, 7, 41, 0
14, 29310, Note_on_c, 7, 41, 87
14, 29339, Note_on_c, 7, 41, 0
14, 29340, Note_on_c, 7, 41, 81
14, 29369, Note_on_c, 7, 41, 0
14, 29370, Note_on_c, 7, 41, 82
14, 29399, Note_on_c, 7, 41, 0
14, 29400, Note_on_c, 7, 41, 81
14, 29429, Note_on_c, 7, 41, 0
14, 29430, Note_on_c, 7, 41, 87
14, 29459, Note_on_c, 7, 41, 0
14, 29460, Note_on_c, 7, 41, 83
14, 29489, Note_on_c, 7, 41, 0
14, 29490, Note_on_c, 7, 41, 87
14, 29519, Note_on_c, 7, 41, 0
14, 29520, Note_on_c, 7, 41, 80
14, 29549, Note_on_c, 7, 41, 0
14, 29550, Note_on_c, 7, 41, 85
14, 29579, Note_on_c, 7, 41, 0
14, 29580, Note_on_c, 7, 41, 80
14, 29609, Note_on_c, 7, 41, 0
14, 29610, Note_on_c, 7, 41, 83
14, 29639, Note_on_c, 7, 41, 0
14, 29640, Note_on_c, 7, 41, 87
14, 29669, Note_on_c, 7, 41, 0
14, 29670, Note_on_c, 7, 41, 80
14, 29699, Note_on_c, 7, 41, 0
14, 29700, Note_on_c, 7, 41, 87
14, 29729, Note_on_c, 7, 41, 0
14, 29730, Note_on_c, 7, 41, 82
14, 29759, Note_on_c, 7, 41, 0
14, 29760, Note_on_c, 7, 41, 81
14, 29789, Note_on_c, 7, 41, 0
14, 29790, Note_on_c, 7, 41, 86
14, 29819, Note_on_c, 7, 41, 0
14, 29820, Note_on_c, 7, 41, 83
14, 29849, Note_on_c, 7, 41, 0
14, 29850, Note_on_c, 7, 41, 81
14, 29879, Note_on_c, 7, 41, 0
14, 29880, Note_on_c, 7, 41, 85
14, 29909, Note_on_c, 7, 41, 0
14, 29910, Note_on_c, 7, 41, 84
14, 29939, Note_on_c, 7, 41, 0
14, 29940, Note_on_c, 7, 41, 83
14, 29969, Note_on_c, 7, 41, 0
14, 29970, Note_on_c, 7, 41, 83
14, 29999, Note_on_c, 7, 41, 0
14, 30000, Note_on_c, 7, 41, 84
14, 30029, Note_on_c, 7, 41, 0
14, 30030, Note_on_c, 7, 41, 85
14, 30059, Note_on_c, 7, 41, 0
14, 30060, Note_on_c, 7, 41, 86
14, 30089, Note_on_c, 7, 41, 0
14, 30090, Note_on_c, 7, 41, 86
14, 30119, Note_on_c, 7, 41, 0
14, 30120, Note_on_c, 7, 41, 84
14, 30149, Note_on_c, 7, 41, 0
14, 30150, Note_on_c, 7, 41, 85
14, 30179, Note_on_c, 7, 41, 0
14, 30180, Note_on_c, 7, 41, 84
14, 30209, Note_on_c, 7, 41, 0
14, 30210, Note_on_c, 7, 41, 83
14, 30239, Note_on_c, 7, 41, 0
14, 30240, Note_on_c, 7, 41, 81
14, 30269, Note_on_c, 7, 41, 0
14, 30270, Note_on_c, 7, 41, 85
14, 30299, Note_on_c, 7, 41, 0
14, 30300, Note_on_c, 7, 41, 84
14, 30329, Note_on_c, 7, 41, 0
14, 30330, Note_on_c, 7, 41, 87
14, 30359, Note_on_c, 7, 41, 0
14, 30360, Note_on_c, 7, 41, 81
14, 30389, Note_on_c, 7, 41, 0
14, 30390, Note_on_c, 7, 41, 81
14, 30419, Note_on_c, 7, 41, 0
14, 30420, Note_on_c, 7, 41, 84
14, 30449, Note_on_c, 7, 41, 0
14, 30450, Note_on_c, 7, 41, 85
14, 30479, Note_on_c, 7, 41, 0
14, 30480, Note_on_c, 7, 41, 84
14, 30509, Note_on_c, 7, 41, 0
14, 30510, Note_on_c, 7, 41, 82
14, 30539, Note_on_c, 7, 41, 0
14, 30540, Note_on_c, 7, 41, 83
14, 30569, Note_on_c, 7, 41, 0
14, 30570, Note_on_c, 7, 41, 80
14, 30599, Note_on_c, 7, 41, 0
14, 30600, Note_on_c, 7, 41, 85
14, 30629, Note_on_c, 7, 41, 0
14, 30630, Note_on_c, 7, 41, 84
14, 30659, Note_on_c, 7, 41, 0
14, 30660, Note_on_c, 7, 41, 84
14, 30689, Note_on_c, 7, 41, 0
14, 30690, Note_on_c, 7, 41, 85
14, 30719, Note_on_c, 7, 41, 0
14, 30720, Note_on_c, 7, 41, 92
14, 30959, Note_on_c, 7, 41, 0
14, 31680, Note_on_c, 7, 41, 92
14, 31919, Note_on_c, 7, 41, 0
14, 32640, Note_on_c, 7, 48, 84
14, 32879, Note_on_c, 7, 48, 0
14, 33120, Note_on_c, 7, 48, 92
14, 33179, Note_on_c, 7, 48, 0
14, 33180, Note_on_c, 7, 48, 84
14, 33239, Note_on_c, 7, 48, 0
14, 33240, Note_on_c, 7, 48, 84
14, 33299, Note_on_c, 7, 48, 0
14, 33300, Note_on_c, 7, 48, 84
14, 33359, Note_on_c, 7, 48, 0
14, 33360, Note_on_c, 7, 48, 84
14, 33419, Note_on_c, 7, 48, 0
14, 33420, Note_on_c, 7, 48, 84
14, 33479, Note_on_c, 7, 48, 0
14, 33480, Note_on_c, 7, 48, 84
14, 33539, Note_on_c, 7, 48, 0
14, 33540, Note_on_c, 7, 48, 84
14, 33599, Note_on_c, 7, 48, 0
14, 33600, Note_on_c, 7, 48, 84
14, 33839, Note_on_c, 7, 48, 0
14, 34560, Note_on_c, 7, 48, 84
14, 34799, Note_on_c, 7, 48, 0
14, 35040, Note_on_c, 7, 48, 92
14, 35099, Note_on_c, 7, 48, 0
14, 35100, Note_on_c, 7, 48, 84
14, 35159, Note_on_c, 7, 48, 0
14, 35160, Note_on_c, 7, 48, 84
14, 35219, Note_on_c, 7, 48, 0
14, 35220, Note_on_c, 7, 48, 84
14, 35279, Note_on_c, 7, 48, 0
14, 35280, Note_on_c, 7, 48, 84
14, 35339, Note_on_c, 7, 48, 0
14, 35340, Note_on_c, 7, 48, 84
14, 35399, Note_on_c, 7, 48, 0
14, 35400, Note_on_c, 7, 48, 84
14, 35459, Note_on_c, 7, 48, 0
14, 35460, Note_on_c, 7, 48, 84
14, 35519, Note_on_c, 7, 48, 0
14, 35520, Note_on_c, 7, 48, 84
14, 35759, Note_on_c, 7, 48, 0
14, 36480, Note_on_c, 7, 41, 84
14, 36719, Note_on_c, 7, 41, 0
14, 36960, Note_on_c, 7, 41, 92
14, 37019, Note_on_c, 7, 41, 0
14, 37020, Note_on_c, 7, 41, 84
14, 37079, Note_on_c, 7, 41, 0
14, 37080, Note_on_c, 7, 41, 84
14, 37139, Note_on_c, 7, 41, 0
14, 37140, Note_on_c, 7, 41, 84
14, 37199, Note_on_c, 7, 41, 0
14, 37200, Note_on_c, 7, 41, 84
14, 37259, Note_on_c, 7, 41, 0
14, 37260, Note_on_c, 7, 41, 84
14, 37319, Note_on_c, 7, 41, 0
14, 37320, Note_on_c, 7, 41, 84
14, 37379, Note_on_c, 7, 41, 0
14, 37380, Note_on_c, 7, 41, 84
14, 37439, Note_on_c, 7, 41, 0
14, 37440, Note_on_c, 7, 41, 84
14, 37679, Note_on_c, 7, 41, 0
14, 40320, Note_on_c, 7, 41, 84
14, 40439, Note_on_c, 7, 41, 0
14, 44160, Note_on_c, 7, 41, 84
14, 44279, Note_on_c, 7, 41, 0
14, 46080, Note_on_c, 7, 48, 52
14, 46139, Note_on_c, 7, 48, 0
14, 46140, Note_on_c, 7, 48, 52
14, 46199, Note_on_c, 7, 48, 0
14, 46200, Note_on_c, 7, 48, 53
14, 46259, Note_on_c, 7, 48, 0
14, 46260, Note_on_c, 7, 48, 54
14, 46319, Note_on_c, 7, 48, 0
14, 46320, Note_on_c, 7, 48, 55
14, 46379, Note_on_c, 7, 48, 0
14, 46380, Note_on_c, 7, 48, 55
14, 46439, Note_on_c, 7, 48, 0
14, 46440, Note_on_c, 7, 48, 56
14, 46499, Note_on_c, 7, 48, 0
14, 46500, Note_on_c, 7, 48, 57
14, 46559, Note_on_c, 7, 48, 0
14, 46560, Note_on_c, 7, 48, 58
14, 46619, Note_on_c, 7, 48, 0
14, 46620, Note_on_c, 7, 48, 58
14, 46679, Note_on_c, 7, 48, 0
14, 46680, Note_on_c, 7, 48, 59
14, 46739, Note_on_c, 7, 48, 0
14, 46740, Note_on_c, 7, 48, 60
14, 46799, Note_on_c, 7, 48, 0
14, 46800, Note_on_c, 7, 48, 61
14, 46859, Note_on_c, 7, 48, 0
14, 46860, Note_on_c, 7, 48, 61
14, 46919, Note_on_c, 7, 48, 0
14, 46920, Note_on_c, 7, 48, 62
14, 46979, Note_on_c, 7, 48, 0
14, 46980, Note_on_c, 7, 48, 63
14, 47039, Note_on_c, 7, 48, 0
14, 47040, Note_on_c, 7, 48, 64
14, 47099, Note_on_c, 7, 48, 0
14, 47100, Note_on_c, 7, 48, 64
14, 47159, Note_on_c, 7, 48, 0
14, 47160, Note_on_c, 7, 48, 65
14, 47219, Note_on_c, 7, 48, 0
14, 47220, Note_on_c, 7, 48, 66
14, 47279, Note_on_c, 7, 48, 0
14, 47280, Note_on_c, 7, 48, 67
14, 47339, Note_on_c, 7, 48, 0
14, 47340, Note_on_c, 7, 48, 67
14, 47399, Note_on_c, 7, 48, 0
14, 47400, Note_on_c, 7, 48, 68
14, 47459, Note_on_c, 7, 48, 0
14, 47460, Note_on_c, 7, 48, 69
14, 47519, Note_on_c, 7, 48, 0
14, 47520, Note_on_c, 7, 48, 70
14, 47579, Note_on_c, 7, 48, 0
14, 47580, Note_on_c, 7, 48, 70
14, 47639, Note_on_c, 7, 48, 0
14, 47640, Note_on_c, 7, 48, 71
14, 47699, Note_on_c, 7, 48, 0
14, 47700, Note_on_c, 7, 48, 72
14, 47759, Note_on_c, 7, 48, 0
14, 47760, Note_on_c, 7, 48, 73
14, 47819, Note_on_c, 7, 48, 0
14, 47820, Note_on_c, 7, 48, 73
14, 47879, Note_on_c, 7, 48, 0
14, 47880, Note_on_c, 7, 48, 74
14, 47939, Note_on_c, 7, 48, 0
14, 47940, Note_on_c, 7, 48, 75
14, 47999, Note_on_c, 7, 48, 0
14, 48000, Note_on_c, 7, 48, 76
14, 48239, Note_on_c, 7, 48, 0
14, 48960, Note_on_c, 7, 41, 76
14, 49199, Note_on_c, 7, 41, 0
14, 51840, Note_on_c, 7, 48, 80
14, 52079, Note_on_c, 7, 48, 0
14, 52320, Note_on_c, 7, 48, 80
14, 52559, Note_on_c, 7, 48, 0
14, 75840, Note_on_c, 7, 48, 84
14, 76079, Note_on_c, 7, 48, 0
14, 76800, Note_on_c, 7, 48, 84
14, 77039, Note_on_c, 7, 48, 0
14, 77760, Note_on_c, 7, 48, 84
14, 77999, Note_on_c, 7, 48, 0
14, 78720, Note_on_c, 7, 41, 84
14, 78959, Note_on_c, 7, 41, 0
14, 101520, Note_on_c, 7, 48, 84
14, 101579, Note_on_c, 7, 48, 0
14, 101580, Note_on_c, 7, 48, 84
14, 101639, Note_on_c, 7, 48, 0
14, 101640, Note_on_c, 7, 48, 84
14, 101699, Note_on_c, 7, 48, 0
14, 101700, Note_on_c, 7, 48, 84
14, 101759, Note_on_c, 7, 48, 0
14, 101760, Note_on_c, 7, 48, 80
14, 101789, Note_on_c, 7, 48, 0
14, 101790, Note_on_c, 7, 48, 84
14, 101819, Note_on_c, 7, 48, 0
14, 101820, Note_on_c, 7, 48, 81
14, 101849, Note_on_c, 7, 48, 0
14, 101850, Note_on_c, 7, 48, 86
14, 101879, Note_on_c, 7, 48, 0
14, 101880, Note_on_c, 7, 48, 84
14, 101909, Note_on_c, 7, 48, 0
14, 101910, Note_on_c, 7, 48, 83
14, 101939, Note_on_c, 7, 48, 0
14, 101940, Note_on_c, 7, 48, 82
14, 101969, Note_on_c, 7, 48, 0
14, 101970, Note_on_c, 7, 48, 87
14, 101999, Note_on_c, 7, 48, 0
14, 102000, Note_on_c, 7, 48, 86
14, 102029, Note_on_c, 7, 48, 0
14, 102030, Note_on_c, 7, 48, 85
14, 102059, Note_on_c, 7, 48, 0
14, 102060, Note_on_c, 7, 48, 81
14, 102089, Note_on_c, 7, 48, 0
14, 102090, Note_on_c, 7, 48, 86
14, 102119, Note_on_c, 7, 48, 0
14, 102120, Note_on_c, 7, 48, 85
14, 102149, Note_on_c, 7, 48, 0
14, 102150, Note_on_c, 7, 48, 84
14, 102179, Note_on_c, 7, 48, 0
14, 102180, Note_on_c, 7, 48, 82
14, 102209, Note_on_c, 7, 48, 0
14, 102210, Note_on_c, 7, 48, 80
14, 102239, Note_on_c, 7, 48, 0
14, 102240, Note_on_c, 7, 48, 80
14, 102269, Note_on_c, 7, 48, 0
14, 102270, Note_on_c, 7, 48, 82
14, 102299, Note_on_c, 7, 48, 0
14, 102300, Note_on_c, 7, 48, 81
14, 102329, Note_on_c, 7, 48, 0
14, 102330, Note_on_c, 7, 48, 81
14, 102359, Note_on_c, 7, 48, 0
14, 102360, Note_on_c, 7, 48, 87
14, 102389, Note_on_c, 7, 48, 0
14, 102390, Note_on_c, 7, 48, 83
14, 102419, Note_on_c, 7, 48, 0
14, 102420, Note_on_c, 7, 48, 80
14, 102449, Note_on_c, 7, 48, 0
14, 102450, Note_on_c, 7, 48, 80
14, 102479, Note_on_c, 7, 48, 0
14, 102480, Note_on_c, 7, 48, 80
14, 102509, Note_on_c, 7, 48, 0
14, 102510, Note_on_c, 7, 48, 83
14, 102539, Note_on_c, 7, 48, 0
14, 102540, Note_on_c, 7, 48, 84
14, 102569, Note_on_c, 7, 48, 0
14, 102570, Note_on_c, 7, 48, 84
14, 102599, Note_on_c, 7, 48, 0
14, 102600, Note_on_c, 7, 48, 84
14, 102629, Note_on_c, 7, 48, 0
14, 102630, Note_on_c, 7, 48, 84
14, 102659, Note_on_c, 7, 48, 0
14, 102660, Note_on_c, 7, 48, 81
14, 102689, Note_on_c, 7, 48, 0
14, 102690, Note_on_c, 7, 48, 85
14, 102719, Note_on_c, 7, 48, 0
14, 102720, Note_on_c, 7, 48, 83
14, 102749, Note_on_c, 7, 48, 0
14, 102750, Note_on_c, 7, 48, 82
14, 102779, Note_on_c, 7, 48, 0
14, 102780, Note_on_c, 7, 48, 80
14, 102809, Note_on_c, 7, 48, 0
14, 102810, Note_on_c, 7, 48, 84
14, 102839, Note_on_c, 7, 48, 0
14, 102840, Note_on_c, 7, 48, 86
14, 102869, Note_on_c, 7, 48, 0
14, 102870, Note_on_c, 7, 48, 86
14, 102899, Note_on_c, 7, 48, 0
14, 102900, Note_on_c, 7, 48, 84
14, 102929, Note_on_c, 7, 48, 0
14, 102930, Note_on_c, 7, 48, 82
14, 102959, Note_on_c, 7, 48, 0
14, 102960, Note_on_c, 7, 48, 87
14, 102989, Note_on_c, 7, 48, 0
14, 102990, Note_on_c, 7, 48, 85
14, 103019, Note_on_c, 7, 48, 0
14, 103020, Note_on_c, 7, 48, 87
14, 103049, Note_on_c, 7, 48, 0
14, 103050, Note_on_c, 7, 48, 87
14, 103079, Note_on_c, 7, 48, 0
14, 103080, Note_on_c, 7, 48, 84
14, 103109, Note_on_c, 7, 48, 0
14, 103110, Note_on_c, 7, 48, 81
14, 103139, Note_on_c, 7, 48, 0
14, 103140, Note_on_c, 7, 48, 83
14, 103169, Note_on_c, 7, 48, 0
14, 103170, Note_on_c, 7, 48, 81
14, 103199, Note_on_c, 7, 48, 0
14, 103200, Note_on_c, 7, 48, 86
14, 103229, Note_on_c, 7, 48, 0
14, 103230, Note_on_c, 7, 48, 81
14, 103259, Note_on_c, 7, 48, 0
14, 103260, Note_on_c, 7, 48, 86
14, 103289, Note_on_c, 7, 48, 0
14, 103290, Note_on_c, 7, 48, 86
14, 103319, Note_on_c, 7, 48, 0
14, 103320, Note_on_c, 7, 48, 87
14, 103349, Note_on_c, 7, 48, 0
14, 103350, Note_on_c, 7, 48, 87
14, 103379, Note_on_c, 7, 48, 0
14, 103380, Note_on_c, 7, 48, 84
14, 103409, Note_on_c, 7, 48, 0
14, 103410, Note_on_c, 7, 48, 83
14, 103439, Note_on_c, 7, 48, 0
14, 103440, Note_on_c, 7, 48, 82
14, 103469, Note_on_c, 7, 48, 0
14, 103470, Note_on_c, 7, 48, 82
14, 103499, Note_on_c, 7, 48, 0
14, 103500, Note_on_c, 7, 48, 86
14, 103529, Note_on_c, 7, 48, 0
14, 103530, Note_on_c, 7, 48, 80
14, 103559, Note_on_c, 7, 48, 0
14, 103560, Note_on_c, 7, 48, 83
14, 103589, Note_on_c, 7, 48, 0
14, 103590, Note_on_c, 7, 48, 80
14, 103619, Note_on_c, 7, 48, 0
14, 103620, Note_on_c, 7, 48, 85
14, 103649, Note_on_c, 7, 48, 0
14, 103650, Note_on_c, 7, 48, 80
14, 103679, Note_on_c, 7, 48, 0
14, 103680, Note_on_c, 7, 48, 80
14, 103709, Note_on_c, 7, 48, 0
14, 103710, Note_on_c, 7, 48, 87
14, 103739, Note_on_c, 7, 48, 0
14, 103740, Note_on_c, 7, 48, 82
14, 103769, Note_on_c, 7, 48, 0
14, 103770, Note_on_c, 7, 48, 82
14, 103799, Note_on_c, 7, 48, 0
14, 103800, Note_on_c, 7, 48, 84
14, 103829, Note_on_c, 7, 48, 0
14, 103830, Note_on_c, 7, 48, 85
14, 103859, Note_on_c, 7, 48, 0
14, 103860, Note_on_c, 7, 48, 86
14, 103889, Note_on_c, 7, 48, 0
14, 103890, Note_on_c, 7, 48, 85
14, 103919, Note_on_c, 7, 48, 0
14, 103920, Note_on_c, 7, 48, 83
14, 103949, Note_on_c, 7, 48, 0
14, 103950, Note_on_c, 7, 48, 81
14, 103979, Note_on_c, 7, 48, 0
14, 103980, Note_on_c, 7, 48, 85
14, 104009, Note_on_c, 7, 48, 0
14, 104010, Note_on_c, 7, 48, 83
14, 104039, Note_on_c, 7, 48, 0
14, 104040, Note_on_c, 7, 48, 83
14, 104069, Note_on_c, 7, 48, 0
14, 104070, Note_on_c, 7, 48, 87
14, 104099, Note_on_c, 7, 48, 0
14, 104100, Note_on_c, 7, 48, 85
14, 104129, Note_on_c, 7, 48, 0
14, 104130, Note_on_c, 7, 48, 80
14, 104159, Note_on_c, 7, 48, 0
14, 104160, Note_on_c, 7, 48, 84
14, 104189, Note_on_c, 7, 48, 0
14, 104190, Note_on_c, 7, 48, 83
14, 104219, Note_on_c, 7, 48, 0
14, 104220, Note_on_c, 7, 48, 85
14, 104249, Note_on_c, 7, 48, 0
14, 104250, Note_on_c, 7, 48, 84
14, 104279, Note_on_c, 7, 48, 0
14, 104280, Note_on_c, 7, 48, 84
14, 104309, Note_on_c, 7, 48, 0
14, 104310, Note_on_c, 7, 48, 82
14, 104339, Note_on_c, 7, 48, 0
14, 104340, Note_on_c, 7, 48, 81
14, 104369, Note_on_c, 7, 48, 0
14, 104370, Note_on_c, 7, 48, 81
14, 104399, Note_on_c, 7, 48, 0
14, 104400, Note_on_c, 7, 48, 83
14, 104429, Note_on_c, 7, 48, 0
14, 104430, Note_on_c, 7, 48, 86
14, 104459, Note_on_c, 7, 48, 0
14, 104460, Note_on_c, 7, 48, 84
14, 104489, Note_on_c, 7, 48, 0
14, 104490, Note_on_c, 7, 48, 87
14, 104519, Note_on_c, 7, 48, 0
14, 104520, Note_on_c, 7, 48, 86
14, 104549, Note_on_c, 7, 48, 0
14, 104550, Note_on_c, 7, 48, 82
14, 104579, Note_on_c, 7, 48, 0
14, 104580, Note_on_c, 7, 48, 81
14, 104609, Note_on_c, 7, 48, 0
14, 104610, Note_on_c, 7, 48, 85
14, 104639, Note_on_c, 7, 48, 0
14, 104640, Note_on_c, 7, 48, 83
14, 104669, Note_on_c, 7, 48, 0
14, 104670, Note_on_c, 7, 48, 80
14, 104699, Note_on_c, 7, 48, 0
14, 104700, Note_on_c, 7, 48, 85
14, 104729, Note_on_c, 7, 48, 0
14, 104730, Note_on_c, 7, 48, 84
14, 104759, Note_on_c, 7, 48, 0
14, 104760, Note_on_c, 7, 48, 81
14, 104789, Note_on_c, 7, 48, 0
14, 104790, Note_on_c, 7, 48, 87
14, 104819, Note_on_c, 7, 48, 0
14, 104820, Note_on_c, 7, 48, 81
14, 104849, Note_on_c, 7, 48, 0
14, 104850, Note_on_c, 7, 48, 87
14, 104879, Note_on_c, 7, 48, 0
14, 104880, Note_on_c, 7, 48, 85
14, 104909, Note_on_c, 7, 48, 0
14, 104910, Note_on_c, 7, 48, 82
14, 104939, Note_on_c, 7, 48, 0
14, 104940, Note_on_c, 7, 48, 83
14, 104969, Note_on_c, 7, 48, 0
14, 104970, Note_on_c, 7, 48, 80
14, 104999, Note_on_c, 7, 48, 0
14, 105000, Note_on_c, 7, 48, 87
14, 105029, Note_on_c, 7, 48, 0
14, 105030, Note_on_c, 7, 48, 85
14, 105059, Note_on_c, 7, 48, 0
14, 105060, Note_on_c, 7, 48, 81
14, 105089, Note_on_c, 7, 48, 0
14, 105090, Note_on_c, 7, 48, 87
14, 105119, Note_on_c, 7, 48, 0
14, 105120, Note_on_c, 7, 48, 86
14, 105149, Note_on_c, 7, 48, 0
14, 105150, Note_on_c, 7, 48, 84
14, 105179, Note_on_c, 7, 48, 0
14, 105180, Note_on_c, 7, 48, 81
14, 105209, Note_on_c, 7, 48, 0
14, 105210, Note_on_c, 7, 48, 81
14, 105239, Note_on_c, 7, 48, 0
14, 105240, Note_on_c, 7, 48, 86
14, 105269, Note_on_c, 7, 48, 0
14, 105270, Note_on_c, 7, 48, 83
14, 105299, Note_on_c, 7, 48, 0
14, 105300, Note_on_c, 7, 48, 81
14, 105329, Note_on_c, 7, 48, 0
14, 105330, Note_on_c, 7, 48, 84
14, 105359, Note_on_c, 7, 48, 0
14, 105360, Note_on_c, 7, 48, 85
14, 105389, Note_on_c, 7, 48, 0
14, 105390, Note_on_c, 7, 48, 83
14, 105419, Note_on_c, 7, 48, 0
14, 105420, Note_on_c, 7, 48, 82
14, 105449, Note_on_c, 7, 48, 0
14, 105450, Note_on_c, 7, 48, 84
14, 105479, Note_on_c, 7, 48, 0
14, 105480, Note_on_c, 7, 48, 85
14, 105509, Note_on_c, 7, 48, 0
14, 105510, Note_on_c, 7, 48, 86
14, 105539, Note_on_c, 7, 48, 0
14, 105540, Note_on_c, 7, 48, 85
14, 105569, Note_on_c, 7, 48, 0
14, 105570, Note_on_c, 7, 48, 83
14, 105599, Note_on_c, 7, 48, 0
14, 105600, Note_on_c, 7, 48, 84
14, 105839, Note_on_c, 7, 48, 0
14, 106560, Note_on_c, 7, 41, 92
14, 106589, Note_on_c, 7, 41, 0
14, 106590, Note_on_c, 7, 41, 80
14, 106619, Note_on_c, 7, 41, 0
14, 106620, Note_on_c, 7, 41, 82
14, 106649, Note_on_c, 7, 41, 0
14, 106650, Note_on_c, 7, 41, 86
14, 106679, Note_on_c, 7, 41, 0
14, 106680, Note_on_c, 7, 41, 80
14, 106709, Note_on_c, 7, 41, 0
14, 106710, Note_on_c, 7, 41, 84
14, 106739, Note_on_c, 7, 41, 0
14, 106740, Note_on_c, 7, 41, 85
14, 106769, Note_on_c, 7, 41, 0
14, 106770, Note_on_c, 7, 41, 83
14, 106799, Note_on_c, 7, 41, 0
14, 106800, Note_on_c, 7, 41, 80
14, 106829, Note_on_c, 7, 41, 0
14, 106830, Note_on_c, 7, 41, 87
14, 106859, Note_on_c, 7, 41, 0
14, 106860, Note_on_c, 7, 41, 87
14, 106889, Note_on_c, 7, 41, 0
14, 106890, Note_on_c, 7, 41, 84
14, 106919, Note_on_c, 7, 41, 0
14, 106920, Note_on_c, 7, 41, 82
14, 106949, Note_on_c, 7, 41, 0
14, 106950, Note_on_c, 7, 41, 83
14, 106979, Note_on_c, 7, 41, 0
14, 106980, Note_on_c, 7, 41, 82
14, 107009, Note_on_c, 7, 41, 0
14, 107010, Note_on_c, 7, 41, 86
14, 107039, Note_on_c, 7, 41, 0
14, 107040, Note_on_c, 7, 41, 82
14, 107069, Note_on_c, 7, 41, 0
14, 107070, Note_on_c, 7, 41, 83
14, 107099, Note_on_c, 7, 41, 0
14, 107100, Note_on_c, 7, 41, 82
14, 107129, Note_on_c, 7, 41, 0
14, 107130, Note_on_c, 7, 41, 87
14, 107159, Note_on_c, 7, 41, 0
14, 107160, Note_on_c, 7, 41, 82
14, 107189, Note_on_c, 7, 41, 0
14, 107190, Note_on_c, 7, 41, 85
14, 107219, Note_on_c, 7, 41, 0
14, 107220, Note_on_c, 7, 41, 84
14, 107249, Note_on_c, 7, 41, 0
14, 107250, Note_on_c, 7, 41, 81
14, 107279, Note_on_c, 7, 41, 0
14, 107280, Note_on_c, 7, 41, 86
14, 107309, Note_on_c, 7, 41, 0
14, 107310, Note_on_c, 7, 41, 86
14, 107339, Note_on_c, 7, 41, 0
14, 107340, Note_on_c, 7, 41, 83
14, 107369, Note_on_c, 7, 41, 0
14, 107370, Note_on_c, 7, 41, 84
14, 107399, Note_on_c, 7, 41, 0
14, 107400, Note_on_c, 7, 41, 87
14, 107429, Note_on_c, 7, 41, 0
14, 107430, Note_on_c, 7, 41, 80
14, 107459, Note_on_c, 7, 41, 0
14, 107460, Note_on_c, 7, 41, 87
14, 107489, Note_on_c, 7, 41, 0
14, 107490, Note_on_c, 7, 41, 84
14, 107519, Note_on_c, 7, 41, 0
14, 107520, Note_on_c, 7, 41, 84
14, 107759, Note_on_c, 7, 41, 0
14, 108480, Note_on_c, 7, 41, 92
14, 108509, Note_on_c, 7, 41, 0
14, 108510, Note_on_c, 7, 41, 84
14, 108539, Note_on_c, 7, 41, 0
14, 108540, Note_on_c, 7, 41, 81
14, 108569, Note_on_c, 7, 41, 0
14, 108570, Note_on_c, 7, 41, 86
14, 108599, Note_on_c, 7, 41, 0
14, 108600, Note_on_c, 7, 41, 85
14, 108629, Note_on_c, 7, 41, 0
14, 108630, Note_on_c, 7, 41, 85
14, 108659, Note_on_c, 7, 41, 0
14, 108660, Note_on_c, 7, 41, 81
14, 108689, Note_on_c, 7, 41, 0
14, 108690, Note_on_c, 7, 41, 86
14, 108719, Note_on_c, 7, 41, 0
14, 108720, Note_on_c, 7, 41, 80
14, 108749, Note_on_c, 7, 41, 0
14, 108750, Note_on_c, 7, 41, 80
14, 108779, Note_on_c, 7, 41, 0
14, 108780, Note_on_c, 7, 41, 85
14, 108809, Note_on_c, 7, 41, 0
14, 108810, Note_on_c, 7, 41, 82
14, 108839, Note_on_c, 7, 41, 0
14, 108840, Note_on_c, 7, 41, 87
14, 108869, Note_on_c, 7, 41, 0
14, 108870, Note_on_c, 7, 41, 82
14, 108899, Note_on_c, 7, 41, 0
14, 108900, Note_on_c, 7, 41, 82
14, 108929, Note_on_c, 7, 41, 0
14, 108930, Note_on_c, 7, 41, 81
14, 108959, Note_on_c, 7, 41, 0
14, 108960, Note_on_c, 7, 41, 85
14, 108989, Note_on_c, 7, 41, 0
14, 108990, Note_on_c, 7, 41, 86
14, 109019, Note_on_c, 7, 41, 0
14, 109020, Note_on_c, 7, 41, 85
14, 109049, Note_on_c, 7, 41, 0
14, 109050, Note_on_c, 7, 41, 84
14, 109079, Note_on_c, 7, 41, 0
14, 109080, Note_on_c, 7, 41, 85
14, 109109, Note_on_c, 7, 41, 0
14, 109110, Note_on_c, 7, 41, 82
14, 109139, Note_on_c, 7, 41, 0
14, 109140, Note_on_c, 7, 41, 81
14, 109169, Note_on_c, 7, 41, 0
14, 109170, Note_on_c, 7, 41, 80
14, 109199, Note_on_c, 7, 41, 0
14, 109200, Note_on_c, 7, 41, 80
14, 109229, Note_on_c, 7, 41, 0
14, 109230, Note_on_c, 7, 41, 86
14, 109259, Note_on_c, 7, 41, 0
14, 109260, Note_on_c, 7, 41, 86
14, 109289, Note_on_c, 7, 41, 0
14, 109290, Note_on_c, 7, 41, 81
14, 109319, Note_on_c, 7, 41, 0
14, 109320, Note_on_c, 7, 41, 80
14, 109349, Note_on_c, 7, 41, 0
14, 109350, Note_on_c, 7, 41, 84
14, 109379, Note_on_c, 7, 41, 0
14, 109380, Note_on_c, 7, 41, 80
14, 109409, Note_on_c, 7, 41, 0
14, 109410, Note_on_c, 7, 41, 80
14, 109439, Note_on_c, 7, 41, 0
14, 109440, Note_on_c, 7, 41, 84
14, 109679, Note_on_c, 7, 41, 0
14, 110400, Note_on_c, 7, 41, 92
14, 110429, Note_on_c, 7, 41, 0
14, 110430, Note_on_c, 7, 41, 86
14, 110459, Note_on_c, 7, 41, 0
14, 110460, Note_on_c, 7, 41, 85
14, 110489, Note_on_c, 7, 41, 0
14, 110490, Note_on_c, 7, 41, 84
14, 110519, Note_on_c, 7, 41, 0
14, 110520, Note_on_c, 7, 41, 80
14, 110549, Note_on_c, 7, 41, 0
14, 110550, Note_on_c, 7, 41, 83
14, 110579, Note_on_c, 7, 41, 0
14, 110580, Note_on_c, 7, 41, 81
14, 110609, Note_on_c, 7, 41, 0
14, 110610, Note_on_c, 7, 41, 85
14, 110639, Note_on_c, 7, 41, 0
14, 110640, Note_on_c, 7, 41, 82
14, 110669, Note_on_c, 7, 41, 0
14, 110670, Note_on_c, 7, 41, 83
14, 110699, Note_on_c, 7, 41, 0
14, 110700, Note_on_c, 7, 41, 81
14, 110729, Note_on_c, 7, 41, 0
14, 110730, Note_on_c, 7, 41, 84
14, 110759, Note_on_c, 7, 41, 0
14, 110760, Note_on_c, 7, 41, 84
14, 110789, Note_on_c, 7, 41, 0
14, 110790, Note_on_c, 7, 41, 85
14, 110819, Note_on_c, 7, 41, 0
14, 110820, Note_on_c, 7, 41, 81
14, 110849, Note_on_c, 7, 41, 0
14, 110850, Note_on_c, 7, 41, 84
14, 110879, Note_on_c, 7, 41, 0
14, 110880, Note_on_c, 7, 41, 87
14, 110909, Note_on_c, 7, 41, 0
14, 110910, Note_on_c, 7, 41, 85
14, 110939, Note_on_c, 7, 41, 0
14, 110940, Note_on_c, 7, 41, 87
14, 110969, Note_on_c, 7, 41, 0
14, 110970, Note_on_c, 7, 41, 81
14, 110999, Note_on_c, 7, 41, 0
14, 111000, Note_on_c, 7, 41, 82
14, 111029, Note_on_c, 7, 41, 0
14, 111030, Note_on_c, 7, 41, 81
14, 111059, Note_on_c, 7, 41, 0
14, 111060, Note_on_c, 7, 41, 87
14, 111089, Note_on_c, 7, 41, 0
14, 111090, Note_on_c, 7, 41, 83
14, 111119, Note_on_c, 7, 41, 0
14, 111120, Note_on_c, 7, 41, 87
14, 111149, Note_on_c, 7, 41, 0
14, 111150, Note_on_c, 7, 41, 80
14, 111179, Note_on_c, 7, 41, 0
14, 111180, Note_on_c, 7, 41, 85
14, 111209, Note_on_c, 7, 41, 0
14, 111210, Note_on_c, 7, 41, 80
14, 111239, Note_on_c, 7, 41, 0
14, 111240, Note_on_c, 7, 41, 83
14, 111269, Note_on_c, 7, 41, 0
14, 111270, Note_on_c, 7, 41, 87
14, 111299, Note_on_c, 7, 41, 0
14, 111300, Note_on_c, 7, 41, 80
14, 111329, Note_on_c, 7, 41, 0
14, 111330, Note_on_c, 7, 41, 87
14, 111359, Note_on_c, 7, 41, 0
14, 111360, Note_on_c, 7, 41, 84
14, 111599, Note_on_c, 7, 41, 0
14, 112320, Note_on_c, 7, 41, 92
14, 112349, Note_on_c, 7, 41, 0
14, 112350, Note_on_c, 7, 41, 84
14, 112379, Note_on_c, 7, 41, 0
14, 112380, Note_on_c, 7, 41, 84
14, 112409, Note_on_c, 7, 41, 0
14, 112410, Note_on_c, 7, 41, 83
14, 112439, Note_on_c, 7, 41, 0
14, 112440, Note_on_c, 7, 41, 82
14, 112469, Note_on_c, 7, 41, 0
14, 112470, Note_on_c, 7, 41, 81
14, 112499, Note_on_c, 7, 41, 0
14, 112500, Note_on_c, 7, 41, 80
14, 112529, Note_on_c, 7, 41, 0
14, 112530, Note_on_c, 7, 41, 79
14, 112559, Note_on_c, 7, 41, 0
14, 112560, Note_on_c, 7, 41, 78
14, 112589, Note_on_c, 7, 41, 0
14, 112590, Note_on_c, 7, 41, 77
14, 112619, Note_on_c, 7, 41, 0
14, 112620, Note_on_c, 7, 41, 76
14, 112649, Note_on_c, 7, 41, 0
14, 112650, Note_on_c, 7, 41, 75
14, 112679, Note_on_c, 7, 41, 0
14, 112680, Note_on_c, 7, 41, 74
14, 112709, Note_on_c, 7, 41, 0
14, 112710, Note_on_c, 7, 41, 73
14, 112739, Note_on_c, 7, 41, 0
14, 112740, Note_on_c, 7, 41, 72
14, 112769, Note_on_c, 7, 41, 0
14, 112770, Note_on_c, 7, 41, 71
14, 112799, Note_on_c, 7, 41, 0
14, 112800, Note_on_c, 7, 41, 70
14, 112829, Note_on_c, 7, 41, 0
14, 112830, Note_on_c, 7, 41, 68
14, 112859, Note_on_c, 7, 41, 0
14, 112860, Note_on_c, 7, 41, 67
14, 112889, Note_on_c, 7, 41, 0
14, 112890, Note_on_c, 7, 41, 66
14, 112919, Note_on_c, 7, 41, 0
14, 112920, Note_on_c, 7, 41, 65
14, 112949, Note_on_c, 7, 41, 0
14, 112950, Note_on_c, 7, 41, 64
14, 112979, Note_on_c, 7, 41, 0
14, 112980, Note_on_c, 7, 41, 63
14, 113009, Note_on_c, 7, 41, 0
14, 113010, Note_on_c, 7, 41, 62
14, 113039, Note_on_c, 7, 41, 0
14, 113040, Note_on_c, 7, 41, 61
14, 113069, Note_on_c, 7, 41, 0
14, 113070, Note_on_c, 7, 41, 60
14, 113099, Note_on_c, 7, 41, 0
14, 113100, Note_on_c, 7, 41, 59
14, 113129, Note_on_c, 7, 41, 0
14, 113130, Note_on_c, 7, 41, 58
14, 113159, Note_on_c, 7, 41, 0
14, 113160, Note_on_c, 7, 41, 57
14, 113189, Note_on_c, 7, 41, 0
14, 113190, Note_on_c, 7, 41, 56
14, 113219, Note_on_c, 7, 41, 0
14, 113220, Note_on_c, 7, 41, 55
14, 113249, Note_on_c, 7, 41, 0
14, 113250, Note_on_c, 7, 41, 54
14, 113279, Note_on_c, 7, 41, 0
14, 113280, Note_on_c, 7, 41, 52
14, 113519, Note_on_c, 7, 41, 0
14, 130560, Note_on_c, 7, 48, 76
14, 130619, Note_on_c, 7, 48, 0
14, 130620, Note_on_c, 7, 48, 76
14, 130679, Note_on_c, 7, 48, 0
14, 130680, Note_on_c, 7, 48, 76
14, 130739, Note_on_c, 7, 48, 0
14, 130740, Note_on_c, 7, 48, 76
14, 130799, Note_on_c, 7, 48, 0
14, 130800, Note_on_c, 7, 48, 76
14, 130859, Note_on_c, 7, 48, 0
14, 130860, Note_on_c, 7, 48, 76
14, 130919, Note_on_c, 7, 48, 0
14, 130920, Note_on_c, 7, 48, 76
14, 130979, Note_on_c, 7, 48, 0
14, 130980, Note_on_c, 7, 48, 76
14, 131039, Note_on_c, 7, 48, 0
14, 131040, Note_on_c, 7, 48, 76
14, 131099, Note_on_c, 7, 48, 0
14, 131100, Note_on_c, 7, 48, 76
14, 131159, Note_on_c, 7, 48, 0
14, 131160, Note_on_c, 7, 48, 76
14, 131219, Note_on_c, 7, 48, 0
14, 131220, Note_on_c, 7, 48, 76
14, 131279, Note_on_c, 7, 48, 0
14, 131280, Note_on_c, 7, 48, 76
14, 131339, Note_on_c, 7, 48, 0
14, 131340, Note_on_c, 7, 48, 76
14, 131399, Note_on_c, 7, 48, 0
14, 131400, Note_on_c, 7, 48, 76
14, 131459, Note_on_c, 7, 48, 0
14, 131460, Note_on_c, 7, 48, 76
14, 131519, Note_on_c, 7, 48, 0
14, 132480, Note_on_c, 7, 41, 76
14, 132539, Note_on_c, 7, 41, 0
14, 132540, Note_on_c, 7, 41, 76
14, 132599, Note_on_c, 7, 41, 0
14, 132600, Note_on_c, 7, 41, 76
14, 132659, Note_on_c, 7, 41, 0
14, 132660, Note_on_c, 7, 41, 76
14, 132719, Note_on_c, 7, 41, 0
14, 132720, Note_on_c, 7, 41, 76
14, 132779, Note_on_c, 7, 41, 0
14, 132780, Note_on_c, 7, 41, 76
14, 132839, Note_on_c, 7, 41, 0
14, 132840, Note_on_c, 7, 41, 76
14, 132899, Note_on_c, 7, 41, 0
14, 132900, Note_on_c, 7, 41, 76
14, 132959, Note_on_c, 7, 41, 0
14, 132960, Note_on_c, 7, 41, 76
14, 133019, Note_on_c, 7, 41, 0
14, 133020, Note_on_c, 7, 41, 76
14, 133079, Note_on_c, 7, 41, 0
14, 133080, Note_on_c, 7, 41, 76
14, 133139, Note_on_c, 7, 41, 0
14, 133140, Note_on_c, 7, 41, 76
14, 133199, Note_on_c, 7, 41, 0
14, 133200, Note_on_c, 7, 41, 76
14, 133259, Note_on_c, 7, 41, 0
14, 133260, Note_on_c, 7, 41, 76
14, 133319, Note_on_c, 7, 41, 0
14, 133320, Note_on_c, 7, 41, 76
14, 133379, Note_on_c, 7, 41, 0
14, 133380, Note_on_c, 7, 41, 76
14, 133439, Note_on_c, 7, 41, 0
14, 134400, Note_on_c, 7, 48, 52
14, 134459, Note_on_c, 7, 48, 0
14, 134460, Note_on_c, 7, 48, 52
14, 134519, Note_on_c, 7, 48, 0
14, 134520, Note_on_c, 7, 48, 52
14, 134579, Note_on_c, 7, 48, 0
14, 134580, Note_on_c, 7, 48, 52
14, 134639, Note_on_c, 7, 48, 0
14, 134640, Note_on_c, 7, 48, 52
14, 134699, Note_on_c, 7, 48, 0
14, 134700, Note_on_c, 7, 48, 52
14, 134759, Note_on_c, 7, 48, 0
14, 134760, Note_on_c, 7, 48, 51
14, 134819, Note_on_c, 7, 48, 0
14, 134820, Note_on_c, 7, 48, 51
14, 134879, Note_on_c, 7, 48, 0
14, 134880, Note_on_c, 7, 48, 51
14, 134939, Note_on_c, 7, 48, 0
14, 134940, Note_on_c, 7, 48, 51
14, 134999, Note_on_c, 7, 48, 0
14, 135000, Note_on_c, 7, 48, 51
14, 135059, Note_on_c, 7, 48, 0
14, 135060, Note_on_c, 7, 48, 51
14, 135119, Note_on_c, 7, 48, 0
14, 135120, Note_on_c, 7, 48, 50
14, 135179, Note_on_c, 7, 48, 0
14, 135180, Note_on_c, 7, 48, 50
14, 135239, Note_on_c, 7, 48, 0
14, 135240, Note_on_c, 7, 48, 50
14, 135299, Note_on_c, 7, 48, 0
14, 135300, Note_on_c, 7, 48, 50
14, 135359, Note_on_c, 7, 48, 0
14, 136320, Note_on_c, 7, 41, 47
14, 136379, Note_on_c, 7, 41, 0
14, 136380, Note_on_c, 7, 41, 47
14, 136439, Note_on_c, 7, 41, 0
14, 136440, Note_on_c, 7, 41, 47
14, 136499, Note_on_c, 7, 41, 0
14, 136500, Note_on_c, 7, 41, 47
14, 136559, Note_on_c, 7, 41, 0
14, 136560, Note_on_c, 7, 41, 46
14, 136619, Note_on_c, 7, 41, 0
14, 136620, Note_on_c, 7, 41, 46
14, 136679, Note_on_c, 7, 41, 0
14, 136680, Note_on_c, 7, 41, 46
14, 136739, Note_on_c, 7, 41, 0
14, 136740, Note_on_c, 7, 41, 46
14, 136799, Note_on_c, 7, 41, 0
14, 136800, Note_on_c, 7, 41, 46
14, 136859, Note_on_c, 7, 41, 0
14, 136860, Note_on_c, 7, 41, 46
14, 136919, Note_on_c, 7, 41, 0
14, 136920, Note_on_c, 7, 41, 45
14, 136979, Note_on_c, 7, 41, 0
14, 136980, Note_on_c, 7, 41, 45
14, 137039, Note_on_c, 7, 41, 0
14, 137040, Note_on_c, 7, 41, 45
14, 137099, Note_on_c, 7, 41, 0
14, 137100, Note_on_c, 7, 41, 45
14, 137159, Note_on_c, 7, 41, 0
14, 137160, Note_on_c, 7, 41, 45
14, 137219, Note_on_c, 7, 41, 0
14, 137220, Note_on_c, 7, 41, 45
14, 137279, Note_on_c, 7, 41, 0
14, 137279, End_track
15, 0, Start_track
15, 0, Title_t, "Trombone"
15, 0, MIDI_port, 0
15, 0, Program_c, 8, 57
15, 0, Control_c, 8, 7, 96
15, 0, Control_c, 8, 10, 80
15, 0, Control_c, 8, 11, 127
15, 101520, Note_on_c, 8, 60, 84
15, 101520, Note_on_c, 8, 72, 84
15, 103679, Note_on_c, 8, 60, 0
15, 103679, Note_on_c, 8, 72, 0
15, 103680, Note_on_c, 8, 60, 84
15, 103680, Note_on_c, 8, 72, 84
15, 105584, Note_on_c, 8, 60, 0
15, 105584, Note_on_c, 8, 72, 0
15, 105600, Note_on_c, 8, 60, 84
15, 105600, Note_on_c, 8, 72, 84
15, 106544, Note_on_c, 8, 60, 0
15, 106544, Note_on_c, 8, 72, 0
15, 106560, Note_on_c, 8, 53, 92
15, 106560, Note_on_c, 8, 65, 92
15, 106620, Control_c, 8, 11, 112
15, 107504, Note_on_c, 8, 53, 0
15, 107504, Note_on_c, 8, 65, 0
15, 107520, Note_on_c, 8, 65, 92
15, 107520, Note_on_c, 8, 53, 92
15, 108464, Note_on_c, 8, 65, 0
15, 108464, Note_on_c, 8, 53, 0
15, 108478, Control_c, 8, 11, 127
15, 108480, Note_on_c, 8, 55, 92
15, 108480, Note_on_c, 8, 67, 92
15, 108540, Control_c, 8, 11, 112
15, 109439, Note_on_c, 8, 55, 0
15, 109439, Note_on_c, 8, 67, 0
15, 110398, Control_c, 8, 11, 127
15, 110400, Note_on_c, 8, 72, 92
15, 110400, Note_on_c, 8, 60, 92
15, 110460, Control_c, 8, 11, 112
15, 111344, Note_on_c, 8, 72, 0
15, 111344, Note_on_c, 8, 60, 0
15, 111360, Note_on_c, 8, 65, 92
15, 111360, Note_on_c, 8, 53, 92
15, 112304, Note_on_c, 8, 65, 0
15, 112304, Note_on_c, 8, 53, 0
15, 112318, Control_c, 8, 11, 127
15, 112320, Note_on_c, 8, 67, 92
15, 112320, Note_on_c, 8, 55, 92
15, 112380, Control_c, 8, 11, 112
15, 112430, Control_c, 8, 11, 108
15, 112480, Control_c, 8, 11, 105
15, 112530, Control_c, 8, 11, 101
15, 112580, Control_c, 8, 11, 98
15, 112630, Control_c, 8, 11, 94
15, 112680, Control_c, 8, 11, 91
15, 112730, Control_c, 8, 11, 87
15, 112780, Control_c, 8, 11, 84
15, 112830, Control_c, 8, 11, 80
15, 112880, Control_c, 8, 11, 76
15, 112930, Control_c, 8, 11, 73
15, 112980, Control_c, 8, 11, 69
15, 113030, Control_c, 8, 11, 66
15, 113080, Control_c, 8, 11, 62
15, 113130, Control_c, 8, 11, 59
15, 113180, Control_c, 8, 11, 55
15, 113230, Control_c, 8, 11, 48
15, 113264, Note_on_c, 8, 67, 0
15, 113264, Note_on_c, 8, 55, 0
15, 113280, Note_on_c, 8, 69, 92
15, 113280, Note_on_c, 8, 57, 92
15, 113519, Note_on_c, 8, 69, 0
15, 113519, Note_on_c, 8, 57, 0
15, 113519, End_track
16, 0, Start_track
16, 0, Title_t, "Violin I"
16, 0, MIDI_port, 0
16, 0, Program_c, 10, 48
16, 0, Control_c, 10, 7, 96
16, 0, Control_c, 10, 10, 48
16, 0, Control_c, 10, 11, 127
16, 4080, Note_on_c, 10, 72, 44
16, 4319, Note_on_c, 10, 72, 0
16, 4320, Note_on_c, 10, 78, 44
16, 4559, Note_on_c, 10, 78, 0
16, 4560, Note_on_c, 10, 77, 44
16, 4799, Note_on_c, 10, 77, 0
16, 5040, Note_on_c, 10, 72, 44
16, 5279, Note_on_c, 10, 72, 0
16, 5280, Note_on_c, 10, 78, 44
16, 5519, Note_on_c, 10, 78, 0
16, 5520, Note_on_c, 10, 77, 44
16, 5759, Note_on_c, 10, 77, 0
16, 6000, Note_on_c, 10, 74, 44
16, 6089, Note_on_c, 10, 74, 0
16, 6120, Note_on_c, 10, 75, 44
16, 6209, Note_on_c, 10, 75, 0
16, 6240, Note_on_c, 10, 77, 44
16, 6329, Note_on_c, 10, 77, 0
16, 6360, Note_on_c, 10, 78, 44
16, 6449, Note_on_c, 10, 78, 0
16, 6480, Note_on_c, 10, 80, 44
16, 6569, Note_on_c, 10, 80, 0
16, 6600, Note_on_c, 10, 82, 44
16, 6689, Note_on_c, 10, 82, 0
16, 6720, Note_on_c, 10, 83, 44
16, 6959, Note_on_c, 10, 83, 0
16, 13680, Note_on_c, 10, 74, 52
16, 13919, Note_on_c, 10, 74, 0
16, 13920, Note_on_c, 10, 80, 52
16, 14159, Note_on_c, 10, 80, 0
16, 14160, Note_on_c, 10, 78, 52
16, 14399, Note_on_c, 10, 78, 0
16, 14640, Note_on_c, 10, 74, 52
16, 14879, Note_on_c, 10, 74, 0
16, 14880, Note_on_c, 10, 80, 52
16, 15119, Note_on_c, 10, 80, 0
16, 15120, Note_on_c, 10, 78, 52
16, 15359, Note_on_c, 10, 78, 0
16, 15600, Note_on_c, 10, 76, 52
16, 15689, Note_on_c, 10, 76, 0
16, 15720, Note_on_c, 10, 77, 52
16, 15809, Note_on_c, 10, 77, 0
16, 15840, Note_on_c, 10, 79, 52
16, 15929, Note_on_c, 10, 79, 0
16, 15960, Note_on_c, 10, 80, 52
16, 16049, Note_on_c, 10, 80, 0
16, 16080, Note_on_c, 10, 82, 52
16, 16169, Note_on_c, 10, 82, 0
16, 16200, Note_on_c, 10, 84, 52
16, 16289, Note_on_c, 10, 84, 0
16, 16320, Note_on_c, 10, 85, 52
16, 16559, Note_on_c, 10, 85, 0
16, 19200, Note_on_c, 10, 77, 84
16, 19200, Note_on_c, 10, 89, 84
16, 19251, Note_on_c, 10, 77, 0
16, 19251, Note_on_c, 10, 89, 0
16, 19260, Note_on_c, 10, 77, 84
16, 19260, Note_on_c, 10, 89, 84
16, 19311, Note_on_c, 10, 77, 0
16, 19311, Note_on_c, 10, 89, 0
16, 19320, Note_on_c, 10, 77, 84
16, 19320, Note_on_c, 10, 89, 84
16, 19371, Note_on_c, 10, 77, 0
16, 19371, Note_on_c, 10, 89, 0
16, 19380, Note_on_c, 10, 77, 84
16, 19380, Note_on_c, 10, 89, 84
16, 19431, Note_on_c, 10, 77, 0
16, 19431, Note_on_c, 10, 89, 0
16, 19440, Note_on_c, 10, 89, 84
16, 19440, Note_on_c, 10, 77, 84
16, 19491, Note_on_c, 10, 89, 0
16, 19491, Note_on_c, 10, 77, 0
16, 19500, Note_on_c, 10, 89, 84
16, 19500, Note_on_c, 10, 77, 84
16, 19551, Note_on_c, 10, 89, 0
16, 19551, Note_on_c, 10, 77, 0
16, 19560, Note_on_c, 10, 89, 84
16, 19560, Note_on_c, 10, 77, 84
16, 19611, Note_on_c, 10, 89, 0
16, 19611, Note_on_c, 10, 77, 0
16, 19620, Note_on_c, 10, 89, 84
16, 19620, Note_on_c, 10, 77, 84
16, 19671, Note_on_c, 10, 89, 0
16, 19671, Note_on_c, 10, 77, 0
16, 19680, Note_on_c, 10, 77, 84
16, 19680, Note_on_c, 10, 89, 84
16, 19731, Note_on_c, 10, 77, 0
16, 19731, Note_on_c, 10, 89, 0
16, 19740, Note_on_c, 10, 77, 84
16, 19740, Note_on_c, 10, 89, 84
16, 19791, Note_on_c, 10, 77, 0
16, 19791, Note_on_c, 10, 89, 0
16, 19800, Note_on_c, 10, 77, 84
16, 19800, Note_on_c, 10, 89, 84
16, 19851, Note_on_c, 10, 77, 0
16, 19851, Note_on_c, 10, 89, 0
16, 19860, Note_on_c, 10, 77, 84
16, 19860, Note_on_c, 10, 89, 84
16, 19911, Note_on_c, 10, 77, 0
16, 19911, Note_on_c, 10, 89, 0
16, 19920, Note_on_c, 10, 77, 84
16, 19920, Note_on_c, 10, 89, 84
16, 19971, Note_on_c, 10, 77, 0
16, 19971, Note_on_c, 10, 89, 0
16, 19980, Note_on_c, 10, 89, 84
16, 19980, Note_on_c, 10, 77, 84
16, 20031, Note_on_c, 10, 89, 0
16, 20031, Note_on_c, 10, 77, 0
16, 20040, Note_on_c, 10, 77, 84
16, 20040, Note_on_c, 10, 89, 84
16, 20091, Note_on_c, 10, 77, 0
16, 20091, Note_on_c, 10, 89, 0
16, 20100, Note_on_c, 10, 89, 84
16, 20100, Note_on_c, 10, 77, 84
16, 20151, Note_on_c, 10, 89, 0
16, 20151, Note_on_c, 10, 77, 0
16, 20160, Note_on_c, 10, 89, 84
16, 20160, Note_on_c, 10, 77, 84
16, 20211, Note_on_c, 10, 89, 0
16, 20211, Note_on_c, 10, 77, 0
16, 20220, Note_on_c, 10, 77, 84
16, 20220, Note_on_c, 10, 89, 84
16, 20271, Note_on_c, 10, 77, 0
16, 20271, Note_on_c, 10, 89, 0
16, 20280, Note_on_c, 10, 89, 84
16, 20280, Note_on_c, 10, 77, 84
16, 20331, Note_on_c, 10, 89, 0
16, 20331, Note_on_c, 10, 77, 0
16, 20340, Note_on_c, 10, 77, 84
16, 20340, Note_on_c, 10, 89, 84
16, 20391, Note_on_c, 10, 77, 0
16, 20391, Note_on_c, 10, 89, 0
16, 20400, Note_on_c, 10, 89, 84
16, 20400, Note_on_c, 10, 77, 84
16, 20451, Note_on_c, 10, 89, 0
16, 20451, Note_on_c, 10, 77, 0
16, 20460, Note_on_c, 10, 77, 84
16, 20460, Note_on_c, 10, 89, 84
16, 20511, Note_on_c, 10, 77, 0
16, 20511, Note_on_c, 10, 89, 0
16, 20520, Note_on_c, 10, 77, 84
16, 20520, Note_on_c, 10, 89, 84
16, 20571, Note_on_c, 10, 77, 0
16, 20571, Note_on_c, 10, 89, 0
16, 20580, Note_on_c, 10, 89, 84
16, 20580, Note_on_c, 10, 77, 84
16, 20631, Note_on_c, 10, 89, 0
16, 20631, Note_on_c, 10, 77, 0
16, 20640, Note_on_c, 10, 77, 84
16, 20640, Note_on_c, 10, 89, 84
16, 20691, Note_on_c, 10, 77, 0
16, 20691, Note_on_c, 10, 89, 0
16, 20700, Note_on_c, 10, 89, 84
16, 20700, Note_on_c, 10, 77, 84
16, 20751, Note_on_c, 10, 89, 0
16, 20751, Note_on_c, 10, 77, 0
16, 20760, Note_on_c, 10, 89, 84
16, 20760, Note_on_c, 10, 77, 84
16, 20811, Note_on_c, 10, 89, 0
16, 20811, Note_on_c, 10, 77, 0
16, 20820, Note_on_c, 10, 89, 84
16, 20820, Note_on_c, 10, 77, 84
16, 20871, Note_on_c, 10, 89, 0
16, 20871, Note_on_c, 10, 77, 0
16, 20880, Note_on_c, 10, 89, 84
16, 20880, Note_on_c, 10, 77, 84
16, 20931, Note_on_c, 10, 89, 0
16, 20931, Note_on_c, 10, 77, 0
16, 20940, Note_on_c, 10, 77, 84
16, 20940, Note_on_c, 10, 89, 84
16, 20991, Note_on_c, 10, 77, 0
16, 20991, Note_on_c, 10, 89, 0
16, 21000, Note_on_c, 10, 77, 84
16, 21000, Note_on_c, 10, 89, 84
16, 21051, Note_on_c, 10, 77, 0
16, 21051, Note_on_c, 10, 89, 0
16, 21060, Note_on_c, 10, 77, 84
16, 21060, Note_on_c, 10, 89, 84
16, 21111, Note_on_c, 10, 77, 0
16, 21111, Note_on_c, 10, 89, 0
16, 21120, Note_on_c, 10, 77, 84
16, 21120, Note_on_c, 10, 89, 84
16, 21171, Note_on_c, 10, 77, 0
16, 21171, Note_on_c, 10, 89, 0
16, 21180, Note_on_c, 10, 89, 84
16, 21180, Note_on_c, 10, 77, 84
16, 21231, Note_on_c, 10, 89, 0
16, 21231, Note_on_c, 10, 77, 0
16, 21240, Note_on_c, 10, 89, 84
16, 21240, Note_on_c, 10, 77, 84
16, 21291, Note_on_c, 10, 89, 0
16, 21291, Note_on_c, 10, 77, 0
16, 21300, Note_on_c, 10, 89, 84
16, 21300, Note_on_c, 10, 77, 84
16, 21351, Note_on_c, 10, 89, 0
16, 21351, Note_on_c, 10, 77, 0
16, 21360, Note_on_c, 10, 89, 84
16, 21360, Note_on_c, 10, 77, 84
16, 21411, Note_on_c, 10, 89, 0
16, 21411, Note_on_c, 10, 77, 0
16, 21420, Note_on_c, 10, 77, 84
16, 21420, Note_on_c, 10, 89, 84
16, 21471, Note_on_c, 10, 77, 0
16, 21471, Note_on_c, 10, 89, 0
16, 21480, Note_on_c, 10, 89, 84
16, 21480, Note_on_c, 10, 77, 84
16, 21531, Note_on_c, 10, 89, 0
16, 21531, Note_on_c, 10, 77, 0
16, 21540, Note_on_c, 10, 77, 84
16, 21540, Note_on_c, 10, 89, 84
16, 21591, Note_on_c, 10, 77, 0
16, 21591, Note_on_c, 10, 89, 0
16, 21600, Note_on_c, 10, 77, 84
16, 21600, Note_on_c, 10, 89, 84
16, 21651, Note_on_c, 10, 77, 0
16, 21651, Note_on_c, 10, 89, 0
16, 21660, Note_on_c, 10, 89, 84
16, 21660, Note_on_c, 10, 77, 84
16, 21711, Note_on_c, 10, 89, 0
16, 21711, Note_on_c, 10, 77, 0
16, 21720, Note_on_c, 10, 77, 84
16, 21720, Note_on_c, 10, 89, 84
16, 21771, Note_on_c, 10, 77, 0
16, 21771, Note_on_c, 10, 89, 0
16, 21780, Note_on_c, 10, 77, 84
16, 21780, Note_on_c, 10, 89, 84
16, 21831, Note_on_c, 10, 77, 0
16, 21831, Note_on_c, 10, 89, 0
16, 21840, Note_on_c, 10, 84, 84
16, 22011, Note_on_c, 10, 84, 0
16, 22020, Note_on_c, 10, 80, 84
16, 22071, Note_on_c, 10, 80, 0
16, 22080, Note_on_c, 10, 77, 84
16, 22304, Note_on_c, 10, 77, 0
16, 22320, Note_on_c, 10, 72, 84
16, 22491, Note_on_c, 10, 72, 0
16, 22500, Note_on_c, 10, 68, 84
16, 22551, Note_on_c, 10, 68, 0
16, 22560, Note_on_c, 10, 65, 84
16, 22784, Note_on_c, 10, 65, 0
16, 22800, Note_on_c, 10, 65, 84
16, 23024, Note_on_c, 10, 65, 0
16, 23040, Note_on_c, 10, 88, 84
16, 23040, Note_on_c, 10, 76, 84
16, 23091, Note_on_c, 10, 88, 0
16, 23091, Note_on_c, 10, 76, 0
16, 23100, Note_on_c, 10, 88, 84
16, 23100, Note_on_c, 10, 76, 84
16, 23151, Note_on_c, 10, 88, 0
16, 23151, Note_on_c, 10, 76, 0
16, 23160, Note_on_c, 10, 76, 84
16, 23160, Note_on_c, 10, 88, 84
16, 23211, Note_on_c, 10, 76, 0
16, 23211, Note_on_c, 10, 88, 0
16, 23220, Note_on_c, 10, 88, 84
16, 23220, Note_on_c, 10, 76, 84
16, 23271, Note_on_c, 10, 88, 0
16, 23271, Note_on_c, 10, 76, 0
16, 23280, Note_on_c, 10, 88, 84
16, 23280, Note_on_c, 10, 76, 84
16, 23331, Note_on_c, 10, 88, 0
16, 23331, Note_on_c, 10, 76, 0
16, 23340, Note_on_c, 10, 88, 84
16, 23340, Note_on_c, 10, 76, 84
16, 23391, Note_on_c, 10, 88, 0
16, 23391, Note_on_c, 10, 76, 0
16, 23400, Note_on_c, 10, 88, 84
16, 23400, Note_on_c, 10, 76, 84
16, 23451, Note_on_c, 10, 88, 0
16, 23451, Note_on_c, 10, 76, 0
16, 23460, Note_on_c, 10, 76, 84
16, 23460, Note_on_c, 10, 88, 84
16, 23511, Note_on_c, 10, 76, 0
16, 23511, Note_on_c, 10, 88, 0
16, 23520, Note_on_c, 10, 88, 84
16, 23520, Note_on_c, 10, 76, 84
16, 23571, Note_on_c, 10, 88, 0
16, 23571, Note_on_c, 10, 76, 0
16, 23580, Note_on_c, 10, 88, 84
16, 23580, Note_on_c, 10, 76, 84
16, 23631, Note_on_c, 10, 88, 0
16, 23631, Note_on_c, 10, 76, 0
16, 23640, Note_on_c, 10, 76, 84
16, 23640, Note_on_c, 10, 88, 84
16, 23691, Note_on_c, 10, 76, 0
16, 23691, Note_on_c, 10, 88, 0
16, 23700, Note_on_c, 10, 88, 84
16, 23700, Note_on_c, 10, 76, 84
16, 23751, Note_on_c, 10, 88, 0
16, 23751, Note_on_c, 10, 76, 0
16, 23760, Note_on_c, 10, 88, 84
16, 23760, Note_on_c, 10, 76, 84
16, 23811, Note_on_c, 10, 88, 0
16, 23811, Note_on_c, 10, 76, 0
16, 23820, Note_on_c, 10, 88, 84
16, 23820, Note_on_c, 10, 76, 84
16, 23871, Note_on_c, 10, 88, 0
16, 23871, Note_on_c, 10, 76, 0
16, 23880, Note_on_c, 10, 88, 84
16, 23880, Note_on_c, 10, 76, 84
16, 23931, Note_on_c, 10, 88, 0
16, 23931, Note_on_c, 10, 76, 0
16, 23940, Note_on_c, 10, 88, 84
16, 23940, Note_on_c, 10, 76, 84
16, 23991, Note_on_c, 10, 88, 0
16, 23991, Note_on_c, 10, 76, 0
16, 24000, Note_on_c, 10, 76, 84
16, 24000, Note_on_c, 10, 88, 84
16, 24051, Note_on_c, 10, 76, 0
16, 24051, Note_on_c, 10, 88, 0
16, 24060, Note_on_c, 10, 88, 84
16, 24060, Note_on_c, 10, 76, 84
16, 24111, Note_on_c, 10, 88, 0
16, 24111, Note_on_c, 10, 76, 0
16, 24120, Note_on_c, 10, 76, 84
16, 24120, Note_on_c, 10, 88, 84
16, 24171, Note_on_c, 10, 76, 0
16, 24171, Note_on_c, 10, 88, 0
16, 24180, Note_on_c, 10, 88, 84
16, 24180, Note_on_c, 10, 76, 84
16, 24231, Note_on_c, 10, 88, 0
16, 24231, Note_on_c, 10, 76, 0
16, 24240, Note_on_c, 10, 88, 84
16, 24240, Note_on_c, 10, 76, 84
16, 24291, Note_on_c, 10, 88, 0
16, 24291, Note_on_c, 10, 76, 0
16, 24300, Note_on_c, 10, 88, 84
16, 24300, Note_on_c, 10, 76, 84
16, 24351, Note_on_c, 10, 88, 0
16, 24351, Note_on_c, 10, 76, 0
16, 24360, Note_on_c, 10, 88, 84
16, 24360, Note_on_c, 10, 76, 84
16, 24411, Note_on_c, 10, 88, 0
16, 24411, Note_on_c, 10, 76, 0
16, 24420, Note_on_c, 10, 76, 84
16, 24420, Note_on_c, 10, 88, 84
16, 24471, Note_on_c, 10, 76, 0
16, 24471, Note_on_c, 10, 88, 0
16, 24480, Note_on_c, 10, 76, 84
16, 24480, Note_on_c, 10, 88, 84
16, 24531, Note_on_c, 10, 76, 0
16, 24531, Note_on_c, 10, 88, 0
16, 24540, Note_on_c, 10, 88, 84
16, 24540, Note_on_c, 10, 76, 84
16, 24591, Note_on_c, 10, 88, 0
16, 24591, Note_on_c, 10, 76, 0
16, 24600, Note_on_c, 10, 76, 84
16, 24600, Note_on_c, 10, 88, 84
16, 24651, Note_on_c, 10, 76, 0
16, 24651, Note_on_c, 10, 88, 0
16, 24660, Note_on_c, 10, 88, 84
16, 24660, Note_on_c, 10, 76, 84
16, 24711, Note_on_c, 10, 88, 0
16, 24711, Note_on_c, 10, 76, 0
16, 24720, Note_on_c, 10, 76, 84
16, 24720, Note_on_c, 10, 88, 84
16, 24771, Note_on_c, 10, 76, 0
16, 24771, Note_on_c, 10, 88, 0
16, 24780, Note_on_c, 10, 88, 84
16, 24780, Note_on_c, 10, 76, 84
16, 24831, Note_on_c, 10, 88, 0
16, 24831, Note_on_c, 10, 76, 0
16, 24840, Note_on_c, 10, 76, 84
16, 24840, Note_on_c, 10, 88, 84
16, 24891, Note_on_c, 10, 76, 0
16, 24891, Note_on_c, 10, 88, 0
16, 24900, Note_on_c, 10, 76, 84
16, 24900, Note_on_c, 10, 88, 84
16, 24951, Note_on_c, 10, 76, 0
16, 24951, Note_on_c, 10, 88, 0
16, 24960, Note_on_c, 10, 76, 84
16, 24960, Note_on_c, 10, 88, 84
16, 25011, Note_on_c, 10, 76, 0
16, 25011, Note_on_c, 10, 88, 0
16, 25020, Note_on_c, 10, 88, 84
16, 25020, Note_on_c, 10, 76, 84
16, 25071, Note_on_c, 10, 88, 0
16, 25071, Note_on_c, 10, 76, 0
16, 25080, Note_on_c, 10, 76, 84
16, 25080, Note_on_c, 10, 88, 84
16, 25131, Note_on_c, 10, 76, 0
16, 25131, Note_on_c, 10, 88, 0
16, 25140, Note_on_c, 10, 76, 84
16, 25140, Note_on_c, 10, 88, 84
16, 25191, Note_on_c, 10, 76, 0
16, 25191, Note_on_c, 10, 88, 0
16, 25200, Note_on_c, 10, 88, 84
16, 25200, Note_on_c, 10, 76, 84
16, 25251, Note_on_c, 10, 88, 0
16, 25251, Note_on_c, 10, 76, 0
16, 25260, Note_on_c, 10, 76, 84
16, 25260, Note_on_c, 10, 88, 84
16, 25311, Note_on_c, 10, 76, 0
16, 25311, Note_on_c, 10, 88, 0
16, 25320, Note_on_c, 10, 76, 84
16, 25320, Note_on_c, 10, 88, 84
16, 25371, Note_on_c, 10, 76, 0
16, 25371, Note_on_c, 10, 88, 0
16, 25380, Note_on_c, 10, 88, 84
16, 25380, Note_on_c, 10, 76, 84
16, 25431, Note_on_c, 10, 88, 0
16, 25431, Note_on_c, 10, 76, 0
16, 25440, Note_on_c, 10, 76, 84
16, 25440, Note_on_c, 10, 88, 84
16, 25491, Note_on_c, 10, 76, 0
16, 25491, Note_on_c, 10, 88, 0
16, 25500, Note_on_c, 10, 88, 84
16, 25500, Note_on_c, 10, 76, 84
16, 25551, Note_on_c, 10, 88, 0
16, 25551, Note_on_c, 10, 76, 0
16, 25560, Note_on_c, 10, 76, 84
16, 25560, Note_on_c, 10, 88, 84
16, 25611, Note_on_c, 10, 76, 0
16, 25611, Note_on_c, 10, 88, 0
16, 25620, Note_on_c, 10, 88, 84
16, 25620, Note_on_c, 10, 76, 84
16, 25671, Note_on_c, 10, 88, 0
16, 25671, Note_on_c, 10, 76, 0
16, 25680, Note_on_c, 10, 82, 84
16, 25851, Note_on_c, 10, 82, 0
16, 25860, Note_on_c, 10, 79, 84
16, 25911, Note_on_c, 10, 79, 0
16, 25920, Note_on_c, 10, 76, 84
16, 26144, Note_on_c, 10, 76, 0
16, 26160, Note_on_c, 10, 73, 84
16, 26331, Note_on_c, 10, 73, 0
16, 26340, Note_on_c, 10, 70, 84
16, 26391, Note_on_c, 10, 70, 0
16, 26400, Note_on_c, 10, 67, 84
16, 26624, Note_on_c, 10, 67, 0
16, 26640, Note_on_c, 10, 64, 84
16, 26864, Note_on_c, 10, 64, 0
16, 26880, Note_on_c, 10, 63, 84
16, 26931, Note_on_c, 10, 63, 0
16, 26940, Note_on_c, 10, 75, 84
16, 26940, Note_on_c, 10, 87, 84
16, 26991, Note_on_c, 10, 75, 0
16, 26991, Note_on_c, 10, 87, 0
16, 27000, Note_on_c, 10, 87, 84
16, 27000, Note_on_c, 10, 75, 84
16, 27051, Note_on_c, 10, 87, 0
16, 27051, Note_on_c, 10, 75, 0
16, 27060, Note_on_c, 10, 75, 84
16, 27060, Note_on_c, 10, 87, 84
16, 27111, Note_on_c, 10, 75, 0
16, 27111, Note_on_c, 10, 87, 0
16, 27120, Note_on_c, 10, 87, 84
16, 27120, Note_on_c, 10, 75, 84
16, 27171, Note_on_c, 10, 87, 0
16, 27171, Note_on_c, 10, 75, 0
16, 27180, Note_on_c, 10, 75, 84
16, 27180, Note_on_c, 10, 87, 84
16, 27231, Note_on_c, 10, 75, 0
16, 27231, Note_on_c, 10, 87, 0
16, 27240, Note_on_c, 10, 87, 84
16, 27240, Note_on_c, 10, 75, 84
16, 27291, Note_on_c, 10, 87, 0
16, 27291, Note_on_c, 10, 75, 0
16, 27300, Note_on_c, 10, 87, 84
16, 27300, Note_on_c, 10, 75, 84
16, 27351, Note_on_c, 10, 87, 0
16, 27351, Note_on_c, 10, 75, 0
16, 27360, Note_on_c, 10, 87, 84
16, 27360, Note_on_c, 10, 75, 84
16, 27411, Note_on_c, 10, 87, 0
16, 27411, Note_on_c, 10, 75, 0
16, 27420, Note_on_c, 10, 78, 84
16, 27420, Note_on_c, 10, 90, 84
16, 27471, Note_on_c, 10, 78, 0
16, 27471, Note_on_c, 10, 90, 0
16, 27480, Note_on_c, 10, 78, 84
16, 27480, Note_on_c, 10, 90, 84
16, 27531, Note_on_c, 10, 78, 0
16, 27531, Note_on_c, 10, 90, 0
16, 27540, Note_on_c, 10, 90, 84
16, 27540, Note_on_c, 10, 78, 84
16, 27591, Note_on_c, 10, 90, 0
16, 27591, Note_on_c, 10, 78, 0
16, 27600, Note_on_c, 10, 78, 84
16, 27600, Note_on_c, 10, 90, 84
16, 27651, Note_on_c, 10, 78, 0
16, 27651, Note_on_c, 10, 90, 0
16, 27660, Note_on_c, 10, 90, 84
16, 27660, Note_on_c, 10, 78, 84
16, 27711, Note_on_c, 10, 90, 0
16, 27711, Note_on_c, 10, 78, 0
16, 27720, Note_on_c, 10, 90, 84
16, 27720, Note_on_c, 10, 78, 84
16, 27771, Note_on_c, 10, 90, 0
16, 27771, Note_on_c, 10, 78, 0
16, 27780, Note_on_c, 10, 90, 84
16, 27780, Note_on_c, 10, 78, 84
16, 27831, Note_on_c, 10, 90, 0
16, 27831, Note_on_c, 10, 78, 0
16, 27840, Note_on_c, 10, 78, 84
16, 27840, Note_on_c, 10, 90, 84
16, 27891, Note_on_c, 10, 78, 0
16, 27891, Note_on_c, 10, 90, 0
16, 27900, Note_on_c, 10, 90, 84
16, 27900, Note_on_c, 10, 78, 84
16, 27951, Note_on_c, 10, 90, 0
16, 27951, Note_on_c, 10, 78, 0
16, 27960, Note_on_c, 10, 78, 84
16, 27960, Note_on_c, 10, 90, 84
16, 28011, Note_on_c, 10, 78, 0
16, 28011, Note_on_c, 10, 90, 0
16, 28020, Note_on_c, 10, 78, 84
16, 28020, Note_on_c, 10, 90, 84
16, 28071, Note_on_c, 10, 78, 0
16, 28071, Note_on_c, 10, 90, 0
16, 28080, Note_on_c, 10, 90, 84
16, 28080, Note_on_c, 10, 78, 84
16, 28131, Note_on_c, 10, 90, 0
16, 28131, Note_on_c, 10, 78, 0
16, 28140, Note_on_c, 10, 78, 84
16, 28140, Note_on_c, 10, 90, 84
16, 28191, Note_on_c, 10, 78, 0
16, 28191, Note_on_c, 10, 90, 0
16, 28200, Note_on_c, 10, 90, 84
16, 28200, Note_on_c, 10, 78, 84
16, 28251, Note_on_c, 10, 90, 0
16, 28251, Note_on_c, 10, 78, 0
16, 28260, Note_on_c, 10, 90, 84
16, 28260, Note_on_c, 10, 78, 84
16, 28311, Note_on_c, 10, 90, 0
16, 28311, Note_on_c, 10, 78, 0
16, 28320, Note_on_c, 10, 90, 84
16, 28320, Note_on_c, 10, 78, 84
16, 28371, Note_on_c, 10, 90, 0
16, 28371, Note_on_c, 10, 78, 0
16, 28380, Note_on_c, 10, 90, 84
16, 28380, Note_on_c, 10, 78, 84
16, 28431, Note_on_c, 10, 90, 0
16, 28431, Note_on_c, 10, 78, 0
16, 28440, Note_on_c, 10, 90, 84
16, 28440, Note_on_c, 10, 78, 84
16, 28491, Note_on_c, 10, 90, 0
16, 28491, Note_on_c, 10, 78, 0
16, 28500, Note_on_c, 10, 78, 84
16, 28500, Note_on_c, 10, 90, 84
16, 28551, Note_on_c, 10, 78, 0
16, 28551, Note_on_c, 10, 90, 0
16, 28560, Note_on_c, 10, 78, 84
16, 28560, Note_on_c, 10, 90, 84
16, 28611, Note_on_c, 10, 78, 0
16, 28611, Note_on_c, 10, 90, 0
16, 28620, Note_on_c, 10, 90, 84
16, 28620, Note_on_c, 10, 78, 84
16, 28671, Note_on_c, 10, 90, 0
16, 28671, Note_on_c, 10, 78, 0
16, 28680, Note_on_c, 10, 78, 84
16, 28680, Note_on_c, 10, 90, 84
16, 28731, Note_on_c, 10, 78, 0
16, 28731, Note_on_c, 10, 90, 0
16, 28740, Note_on_c, 10, 90, 84
16, 28740, Note_on_c, 10, 78, 84
16, 28791, Note_on_c, 10, 90, 0
16, 28791, Note_on_c, 10, 78, 0
16, 28800, Note_on_c, 10, 90, 84
16, 28800, Note_on_c, 10, 78, 84
16, 29504, Note_on_c, 10, 90, 0
16, 29504, Note_on_c, 10, 78, 0
16, 29520, Note_on_c, 10, 87, 84
16, 29691, Note_on_c, 10, 87, 0
16, 29700, Note_on_c, 10, 84, 84
16, 29751, Note_on_c, 10, 84, 0
16, 29760, Note_on_c, 10, 78, 84
16, 29984, Note_on_c, 10, 78, 0
16, 30000, Note_on_c, 10, 75, 84
16, 30171, Note_on_c, 10, 75, 0
16, 30180, Note_on_c, 10, 72, 84
16, 30231, Note_on_c, 10, 72, 0
16, 30240, Note_on_c, 10, 66, 84
16, 30464, Note_on_c, 10, 66, 0
16, 30480, Note_on_c, 10, 63, 84
16, 30651, Note_on_c, 10, 63, 0
16, 30660, Note_on_c, 10, 60, 84
16, 30711, Note_on_c, 10, 60, 0
16, 30720, Note_on_c, 10, 61, 92
16, 30824, Note_on_c, 10, 61, 0
16, 30840, Note_on_c, 10, 77, 84
16, 30899, Note_on_c, 10, 77, 0
16, 30900, Note_on_c, 10, 82, 84
16, 30959, Note_on_c, 10, 82, 0
16, 30960, Note_on_c, 10, 85, 84
16, 31049, Note_on_c, 10, 85, 0
16, 31680, Note_on_c, 10, 59, 92
16, 31784, Note_on_c, 10, 59, 0
16, 31800, Note_on_c, 10, 77, 84
16, 31859, Note_on_c, 10, 77, 0
16, 31860, Note_on_c, 10, 80, 84
16, 31919, Note_on_c, 10, 80, 0
16, 31920, Note_on_c, 10, 86, 84
16, 32009, Note_on_c, 10, 86, 0
16, 32640, Note_on_c, 10, 60, 84
16, 32879, Note_on_c, 10, 60, 0
16, 33120, Note_on_c, 10, 84, 92
16, 33179, Note_on_c, 10, 84, 0
16, 33180, Note_on_c, 10, 84, 84
16, 33464, Note_on_c, 10, 84, 0
16, 33480, Note_on_c, 10, 79, 84
16, 33584, Note_on_c, 10, 79, 0
16, 33600, Note_on_c, 10, 80, 84
16, 33704, Note_on_c, 10, 80, 0
16, 33720, Note_on_c, 10, 76, 84
16, 33824, Note_on_c, 10, 76, 0
16, 33840, Note_on_c, 10, 77, 84
16, 33944, Note_on_c, 10, 77, 0
16, 33960, Note_on_c, 10, 72, 84
16, 34064, Note_on_c, 10, 72, 0
16, 34080, Note_on_c, 10, 73, 84
16, 34184, Note_on_c, 10, 73, 0
16, 34200, Note_on_c, 10, 72, 84
16, 34304, Note_on_c, 10, 72, 0
16, 34320, Note_on_c, 10, 72, 84
16, 34424, Note_on_c, 10, 72, 0
16, 34440, Note_on_c, 10, 70, 84
16, 34544, Note_on_c, 10, 70, 0
16, 34560, Note_on_c, 10, 68, 84
16, 34799, Note_on_c, 10, 68, 0
16, 35040, Note_on_c, 10, 80, 92
16, 35099, Note_on_c, 10, 80, 0
16, 35100, Note_on_c, 10, 80, 84
16, 35384, Note_on_c, 10, 80, 0
16, 35400, Note_on_c, 10, 76, 84
16, 35504, Note_on_c, 10, 76, 0
16, 35520, Note_on_c, 10, 77, 84
16, 35624, Note_on_c, 10, 77, 0
16, 35640, Note_on_c, 10, 72, 84
16, 35744, Note_on_c, 10, 72, 0
16, 35760, Note_on_c, 10, 73, 84
16, 35864, Note_on_c, 10, 73, 0
16, 35880, Note_on_c, 10, 68, 84
16, 35984, Note_on_c, 10, 68, 0
16, 36000, Note_on_c, 10, 70, 84
16, 36104, Note_on_c, 10, 70, 0
16, 36120, Note_on_c, 10, 68, 84
16, 36224, Note_on_c, 10, 68, 0
16, 36240, Note_on_c, 10, 68, 84
16, 36344, Note_on_c, 10, 68, 0
16, 36360, Note_on_c, 10, 67, 84
16, 36464, Note_on_c, 10, 67, 0
16, 36480, Note_on_c, 10, 65, 84
16, 36719, Note_on_c, 10, 65, 0
16, 36960, Note_on_c, 10, 77, 92
16, 37019, Note_on_c, 10, 77, 0
16, 37020, Note_on_c, 10, 77, 84
16, 37304, Note_on_c, 10, 77, 0
16, 37320, Note_on_c, 10, 72, 84
16, 37424, Note_on_c, 10, 72, 0
16, 37440, Note_on_c, 10, 73, 84
16, 37544, Note_on_c, 10, 73, 0
16, 37560, Note_on_c, 10, 68, 84
16, 37664, Note_on_c, 10, 68, 0
16, 37680, Note_on_c, 10, 70, 84
16, 37784, Note_on_c, 10, 70, 0
16, 37800, Note_on_c, 10, 65, 84
16, 37904, Note_on_c, 10, 65, 0
16, 37920, Note_on_c, 10, 66, 84
16, 38024, Note_on_c, 10, 66, 0
16, 38040, Note_on_c, 10, 65, 84
16, 38144, Note_on_c, 10, 65, 0
16, 38160, Note_on_c, 10, 65, 84
16, 38264, Note_on_c, 10, 65, 0
16, 38280, Note_on_c, 10, 63, 84
16, 38384, Note_on_c, 10, 63, 0
16, 38400, Note_on_c, 10, 61, 44
16, 38639, Note_on_c, 10, 61, 0
16, 40320, Note_on_c, 10, 61, 76
16, 40409, Note_on_c, 10, 61, 0
16, 40440, Note_on_c, 10, 73, 76
16, 40499, Note_on_c, 10, 73, 0
16, 40500, Note_on_c, 10, 77, 76
16, 40559, Note_on_c, 10, 77, 0
16, 40560, Note_on_c, 10, 80, 84
16, 40649, Note_on_c, 10, 80, 0
16, 44160, Note_on_c, 10, 65, 76
16, 44160, Note_on_c, 10, 55, 76
16, 44249, Note_on_c, 10, 65, 0
16, 44249, Note_on_c, 10, 55, 0
16, 44280, Note_on_c, 10, 74, 76
16, 44339, Note_on_c, 10, 74, 0
16, 44340, Note_on_c, 10, 77, 76
16, 44399, Note_on_c, 10, 77, 0
16, 44400, Note_on_c, 10, 79, 84
16, 44489, Note_on_c, 10, 79, 0
16, 48000, Note_on_c, 10, 57, 76
16, 48089, Note_on_c, 10, 57, 0
16, 48120, Note_on_c, 10, 72, 76
16, 48179, Note_on_c, 10, 72, 0
16, 48180, Note_on_c, 10, 75, 76
16, 48239, Note_on_c, 10, 75, 0
16, 48240, Note_on_c, 10, 81, 84
16, 48329, Note_on_c, 10, 81, 0
16, 48960, Note_on_c, 10, 57, 76
16, 49049, Note_on_c, 10, 57, 0
16, 49080, Note_on_c, 10, 72, 76
16, 49139, Note_on_c, 10, 72, 0
16, 49140, Note_on_c, 10, 75, 76
16, 49199, Note_on_c, 10, 75, 0
16, 49200, Note_on_c, 10, 81, 84
16, 49289, Note_on_c, 10, 81, 0
16, 49920, Note_on_c, 10, 58, 76
16, 50009, Note_on_c, 10, 58, 0
16, 50040, Note_on_c, 10, 73, 76
16, 50099, Note_on_c, 10, 73, 0
16, 50100, Note_on_c, 10, 77, 76
16, 50159, Note_on_c, 10, 77, 0
16, 50160, Note_on_c, 10, 82, 84
16, 50249, Note_on_c, 10, 82, 0
16, 50880, Note_on_c, 10, 55, 76
16, 50969, Note_on_c, 10, 55, 0
16, 51000, Note_on_c, 10, 74, 76
16, 51059, Note_on_c, 10, 74, 0
16, 51060, Note_on_c, 10, 77, 76
16, 51119, Note_on_c, 10, 77, 0
16, 51120, Note_on_c, 10, 83, 84
16, 51209, Note_on_c, 10, 83, 0
16, 51840, Note_on_c, 10, 60, 80
16, 51929, Note_on_c, 10, 60, 0
16, 51960, Note_on_c, 10, 75, 80
16, 52019, Note_on_c, 10, 75, 0
16, 52020, Note_on_c, 10, 79, 80
16, 52079, Note_on_c, 10, 79, 0
16, 52080, Note_on_c, 10, 84, 80
16, 52169, Note_on_c, 10, 84, 0
16, 52320, Note_on_c, 10, 58, 80
16, 52409, Note_on_c, 10, 58, 0
16, 52440, Note_on_c, 10, 76, 80
16, 52499, Note_on_c, 10, 76, 0
16, 52500, Note_on_c, 10, 79, 80
16, 52559, Note_on_c, 10, 79, 0
16, 52560, Note_on_c, 10, 84, 80
16, 52649, Note_on_c, 10, 84, 0
16, 52800, Note_on_c, 10, 85, 76
16, 52889, Note_on_c, 10, 85, 0
16, 52920, Note_on_c, 10, 73, 52
16, 53009, Note_on_c, 10, 73, 0
16, 53040, Note_on_c, 10, 76, 52
16, 53129, Note_on_c, 10, 76, 0
16, 53160, Note_on_c, 10, 74, 52
16, 53249, Note_on_c, 10, 74, 0
16, 53280, Note_on_c, 10, 73, 52
16, 53369, Note_on_c, 10, 73, 0
16, 53400, Note_on_c, 10, 71, 52
16, 53489, Note_on_c, 10, 71, 0
16, 53520, Note_on_c, 10, 69, 52
16, 53609, Note_on_c, 10, 69, 0
16, 53640, Note_on_c, 10, 68, 52
16, 53729, Note_on_c, 10, 68, 0
16, 53760, Note_on_c, 10, 69, 52
16, 53849, Note_on_c, 10, 69, 0
16, 53880, Note_on_c, 10, 76, 52
16, 53969, Note_on_c, 10, 76, 0
16, 54000, Note_on_c, 10, 79, 52
16, 54089, Note_on_c, 10, 79, 0
16, 54120, Note_on_c, 10, 77, 52
16, 54209, Note_on_c, 10, 77, 0
16, 54240, Note_on_c, 10, 76, 52
16, 54329, Note_on_c, 10, 76, 0
16, 54360, Note_on_c, 10, 74, 52
16, 54449, Note_on_c, 10, 74, 0
16, 54480, Note_on_c, 10, 73, 52
16, 54569, Note_on_c, 10, 73, 0
16, 54600, Note_on_c, 10, 71, 52
16, 54689, Note_on_c, 10, 71, 0
16, 54720, Note_on_c, 10, 73, 52
16, 54809, Note_on_c, 10, 73, 0
16, 54840, Note_on_c, 10, 79, 52
16, 54929, Note_on_c, 10, 79, 0
16, 54960, Note_on_c, 10, 82, 52
16, 55049, Note_on_c, 10, 82, 0
16, 55080, Note_on_c, 10, 81, 52
16, 55169, Note_on_c, 10, 81, 0
16, 55200, Note_on_c, 10, 79, 52
16, 55289, Note_on_c, 10, 79, 0
16, 55320, Note_on_c, 10, 77, 52
16, 55409, Note_on_c, 10, 77, 0
16, 55440, Note_on_c, 10, 76, 52
16, 55529, Note_on_c, 10, 76, 0
16, 55560, Note_on_c, 10, 74, 52
16, 55649, Note_on_c, 10, 74, 0
16, 55680, Note_on_c, 10, 73, 52
16, 55769, Note_on_c, 10, 73, 0
16, 55800, Note_on_c, 10, 85, 52
16, 55889, Note_on_c, 10, 85, 0
16, 55920, Note_on_c, 10, 88, 52
16, 56009, Note_on_c, 10, 88, 0
16, 56040, Note_on_c, 10, 86, 52
16, 56129, Note_on_c, 10, 86, 0
16, 56160, Note_on_c, 10, 85, 52
16, 56249, Note_on_c, 10, 85, 0
16, 56280, Note_on_c, 10, 82, 52
16, 56369, Note_on_c, 10, 82, 0
16, 56400, Note_on_c, 10, 81, 52
16, 56489, Note_on_c, 10, 81, 0
16, 56520, Note_on_c, 10, 79, 52
16, 56609, Note_on_c, 10, 79, 0
16, 56640, Note_on_c, 10, 88, 52
16, 56729, Note_on_c, 10, 88, 0
16, 56760, Note_on_c, 10, 82, 52
16, 56849, Note_on_c, 10, 82, 0
16, 56880, Note_on_c, 10, 81, 52
16, 56969, Note_on_c, 10, 81, 0
16, 57000, Note_on_c, 10, 79, 52
16, 57089, Note_on_c, 10, 79, 0
16, 57120, Note_on_c, 10, 77, 52
16, 57209, Note_on_c, 10, 77, 0
16, 57240, Note_on_c, 10, 76, 52
16, 57329, Note_on_c, 10, 76, 0
16, 57360, Note_on_c, 10, 74, 52
16, 57449, Note_on_c, 10, 74, 0
16, 57480, Note_on_c, 10, 73, 52
16, 57569, Note_on_c, 10, 73, 0
16, 57600, Note_on_c, 10, 70, 52
16, 57689, Note_on_c, 10, 70, 0
16, 57720, Note_on_c, 10, 69, 52
16, 57809, Note_on_c, 10, 69, 0
16, 57840, Note_on_c, 10, 67, 52
16, 57929, Note_on_c, 10, 67, 0
16, 57960, Note_on_c, 10, 65, 52
16, 58049, Note_on_c, 10, 65, 0
16, 58080, Note_on_c, 10, 64, 52
16, 58169, Note_on_c, 10, 64, 0
16, 58200, Note_on_c, 10, 62, 52
16, 58289, Note_on_c, 10, 62, 0
16, 58320, Note_on_c, 10, 61, 52
16, 58409, Note_on_c, 10, 61, 0
16, 58440, Note_on_c, 10, 58, 52
16, 58529, Note_on_c, 10, 58, 0
16, 62520, Note_on_c, 10, 81, 44
16, 62624, Note_on_c, 10, 81, 0
16, 62640, Note_on_c, 10, 83, 44
16, 62744, Note_on_c, 10, 83, 0
16, 62760, Note_on_c, 10, 81, 44
16, 62864, Note_on_c, 10, 81, 0
16, 62880, Note_on_c, 10, 79, 44
16, 62984, Note_on_c, 10, 79, 0
16, 63000, Note_on_c, 10, 78, 44
16, 63104, Note_on_c, 10, 78, 0
16, 63120, Note_on_c, 10, 76, 44
16, 63224, Note_on_c, 10, 76, 0
16, 63240, Note_on_c, 10, 74, 44
16, 63359, Note_on_c, 10, 74, 0
16, 63480, Note_on_c, 10, 81, 44
16, 63584, Note_on_c, 10, 81, 0
16, 63600, Note_on_c, 10, 83, 44
16, 63704, Note_on_c, 10, 83, 0
16, 63720, Note_on_c, 10, 81, 44
16, 63824, Note_on_c, 10, 81, 0
16, 63840, Note_on_c, 10, 79, 44
16, 63944, Note_on_c, 10, 79, 0
16, 63960, Note_on_c, 10, 78, 44
16, 64064, Note_on_c, 10, 78, 0
16, 64080, Note_on_c, 10, 76, 44
16, 64184, Note_on_c, 10, 76, 0
16, 64200, Note_on_c, 10, 74, 44
16, 64304, Note_on_c, 10, 74, 0
16, 64320, Note_on_c, 10, 75, 44
16, 64559, Note_on_c, 10, 75, 0
16, 66360, Note_on_c, 10, 75, 44
16, 66464, Note_on_c, 10, 75, 0
16, 66480, Note_on_c, 10, 77, 44
16, 66584, Note_on_c, 10, 77, 0
16, 66600, Note_on_c, 10, 75, 44
16, 66704, Note_on_c, 10, 75, 0
16, 66720, Note_on_c, 10, 74, 44
16, 66824, Note_on_c, 10, 74, 0
16, 66840, Note_on_c, 10, 72, 44
16, 66944, Note_on_c, 10, 72, 0
16, 66960, Note_on_c, 10, 70, 44
16, 67064, Note_on_c, 10, 70, 0
16, 67080, Note_on_c, 10, 69, 44
16, 67199, Note_on_c, 10, 69, 0
16, 67320, Note_on_c, 10, 75, 44
16, 67424, Note_on_c, 10, 75, 0
16, 67440, Note_on_c, 10, 77, 44
16, 67544, Note_on_c, 10, 77, 0
16, 67560, Note_on_c, 10, 75, 44
16, 67664, Note_on_c, 10, 75, 0
16, 67680, Note_on_c, 10, 73, 44
16, 67784, Note_on_c, 10, 73, 0
16, 67800, Note_on_c, 10, 72, 44
16, 67904, Note_on_c, 10, 72, 0
16, 67920, Note_on_c, 10, 70, 44
16, 68024, Note_on_c, 10, 70, 0
16, 68040, Note_on_c, 10, 69, 44
16, 68159, Note_on_c, 10, 69, 0
16, 68280, Note_on_c, 10, 75, 44
16, 68384, Note_on_c, 10, 75, 0
16, 68400, Note_on_c, 10, 77, 45
16, 68504, Note_on_c, 10, 77, 0
16, 68520, Note_on_c, 10, 75, 46
16, 68624, Note_on_c, 10, 75, 0
16, 68640, Note_on_c, 10, 73, 47
16, 68744, Note_on_c, 10, 73, 0
16, 68760, Note_on_c, 10, 72, 48
16, 68864, Note_on_c, 10, 72, 0
16, 68880, Note_on_c, 10, 70, 49
16, 68984, Note_on_c, 10, 70, 0
16, 69000, Note_on_c, 10, 69, 49
16, 69119, Note_on_c, 10, 69, 0
16, 69240, Note_on_c, 10, 75, 51
16, 69344, Note_on_c, 10, 75, 0
16, 69360, Note_on_c, 10, 77, 52
16, 69464, Note_on_c, 10, 77, 0
16, 69480, Note_on_c, 10, 75, 53
16, 69584, Note_on_c, 10, 75, 0
16, 69600, Note_on_c, 10, 73, 54
16, 69704, Note_on_c, 10, 73, 0
16, 69720, Note_on_c, 10, 72, 54
16, 69824, Note_on_c, 10, 72, 0
16, 69840, Note_on_c, 10, 70, 55
16, 69944, Note_on_c, 10, 70, 0
16, 69960, Note_on_c, 10, 69, 56
16, 70079, Note_on_c, 10, 69, 0
16, 70200, Note_on_c, 10, 77, 58
16, 70304, Note_on_c, 10, 77, 0
16, 70320, Note_on_c, 10, 78, 59
16, 70424, Note_on_c, 10, 78, 0
16, 70440, Note_on_c, 10, 77, 59
16, 70544, Note_on_c, 10, 77, 0
16, 70560, Note_on_c, 10, 75, 60
16, 70664, Note_on_c, 10, 75, 0
16, 70680, Note_on_c, 10, 73, 61
16, 70784, Note_on_c, 10, 73, 0
16, 70800, Note_on_c, 10, 72, 62
16, 70904, Note_on_c, 10, 72, 0
16, 70920, Note_on_c, 10, 70, 63
16, 71039, Note_on_c, 10, 70, 0
16, 71160, Note_on_c, 10, 77, 64
16, 71264, Note_on_c, 10, 77, 0
16, 71280, Note_on_c, 10, 78, 65
16, 71384, Note_on_c, 10, 78, 0
16, 71400, Note_on_c, 10, 77, 66
16, 71504, Note_on_c, 10, 77, 0
16, 71520, Note_on_c, 10, 75, 67
16, 71624, Note_on_c, 10, 75, 0
16, 71640, Note_on_c, 10, 73, 68
16, 71744, Note_on_c, 10, 73, 0
16, 71760, Note_on_c, 10, 72, 69
16, 71864, Note_on_c, 10, 72, 0
16, 71880, Note_on_c, 10, 70, 69
16, 71999, Note_on_c, 10, 70, 0
16, 72120, Note_on_c, 10, 77, 71
16, 72224, Note_on_c, 10, 77, 0
16, 72240, Note_on_c, 10, 79, 72
16, 72344, Note_on_c, 10, 79, 0
16, 72360, Note_on_c, 10, 77, 73
16, 72464, Note_on_c, 10, 77, 0
16, 72480, Note_on_c, 10, 75, 74
16, 72584, Note_on_c, 10, 75, 0
16, 72600, Note_on_c, 10, 74, 74
16, 72704, Note_on_c, 10, 74, 0
16, 72720, Note_on_c, 10, 72, 75
16, 72824, Note_on_c, 10, 72, 0
16, 72840, Note_on_c, 10, 71, 76
16, 72959, Note_on_c, 10, 71, 0
16, 73080, Note_on_c, 10, 77, 78
16, 73184, Note_on_c, 10, 77, 0
16, 73200, Note_on_c, 10, 79, 79
16, 73304, Note_on_c, 10, 79, 0
16, 73320, Note_on_c, 10, 77, 79
16, 73424, Note_on_c, 10, 77, 0
16, 73440, Note_on_c, 10, 75, 80
16, 73544, Note_on_c, 10, 75, 0
16, 73560, Note_on_c, 10, 74, 81
16, 73664, Note_on_c, 10, 74, 0
16, 73680, Note_on_c, 10, 72, 82
16, 73784, Note_on_c, 10, 72, 0
16, 73800, Note_on_c, 10, 71, 83
16, 73904, Note_on_c, 10, 71, 0
16, 73920, Note_on_c, 10, 79, 84
16, 73971, Note_on_c, 10, 79, 0
16, 73980, Note_on_c, 10, 79, 84
16, 74031, Note_on_c, 10, 79, 0
16, 74040, Note_on_c, 10, 74, 84
16, 74091, Note_on_c, 10, 74, 0
16, 74100, Note_on_c, 10, 74, 84
16, 74151, Note_on_c, 10, 74, 0
16, 74160, Note_on_c, 10, 71, 84
16, 74211, Note_on_c, 10, 71, 0
16, 74220, Note_on_c, 10, 71, 84
16, 74271, Note_on_c, 10, 71, 0
16, 74280, Note_on_c, 10, 67, 84
16, 74331, Note_on_c, 10, 67, 0
16, 74340, Note_on_c, 10, 67, 84
16, 74391, Note_on_c, 10, 67, 0
16, 74400, Note_on_c, 10, 62, 84
16, 74451, Note_on_c, 10, 62, 0
16, 74460, Note_on_c, 10, 62, 84
16, 74511, Note_on_c, 10, 62, 0
16, 74520, Note_on_c, 10, 59, 84
16, 74571, Note_on_c, 10, 59, 0
16, 74580, Note_on_c, 10, 59, 84
16, 74631, Note_on_c, 10, 59, 0
16, 74640, Note_on_c, 10, 55, 92
16, 74691, Note_on_c, 10, 55, 0
16, 74700, Note_on_c, 10, 55, 84
16, 74751, Note_on_c, 10, 55, 0
16, 74760, Note_on_c, 10, 79, 84
16, 74811, Note_on_c, 10, 79, 0
16, 74820, Note_on_c, 10, 79, 84
16, 74871, Note_on_c, 10, 79, 0
16, 74880, Note_on_c, 10, 79, 84
16, 74931, Note_on_c, 10, 79, 0
16, 74940, Note_on_c, 10, 79, 84
16, 74991, Note_on_c, 10, 79, 0
16, 75000, Note_on_c, 10, 75, 84
16, 75051, Note_on_c, 10, 75, 0
16, 75060, Note_on_c, 10, 75, 84
16, 75111, Note_on_c, 10, 75, 0
16, 75120, Note_on_c, 10, 72, 84
16, 75171, Note_on_c, 10, 72, 0
16, 75180, Note_on_c, 10, 72, 84
16, 75231, Note_on_c, 10, 72, 0
16, 75240, Note_on_c, 10, 67, 84
16, 75291, Note_on_c, 10, 67, 0
16, 75300, Note_on_c, 10, 67, 84
16, 75351, Note_on_c, 10, 67, 0
16, 75360, Note_on_c, 10, 63, 84
16, 75411, Note_on_c, 10, 63, 0
16, 75420, Note_on_c, 10, 63, 84
16, 75471, Note_on_c, 10, 63, 0
16, 75480, Note_on_c, 10, 60, 84
16, 75531, Note_on_c, 10, 60, 0
16, 75540, Note_on_c, 10, 60, 84
16, 75591, Note_on_c, 10, 60, 0
16, 75600, Note_on_c, 10, 55, 92
16, 75651, Note_on_c, 10, 55, 0
16, 75660, Note_on_c, 10, 55, 84
16, 75711, Note_on_c, 10, 55, 0
16, 75720, Note_on_c, 10, 79, 84
16, 75771, Note_on_c, 10, 79, 0
16, 75780, Note_on_c, 10, 79, 84
16, 75831, Note_on_c, 10, 79, 0
16, 75840, Note_on_c, 10, 79, 84
16, 75891, Note_on_c, 10, 79, 0
16, 75900, Note_on_c, 10, 79, 84
16, 75951, Note_on_c, 10, 79, 0
16, 75960, Note_on_c, 10, 75, 84
16, 76011, Note_on_c, 10, 75, 0
16, 76020, Note_on_c, 10, 75, 84
16, 76071, Note_on_c, 10, 75, 0
16, 76080, Note_on_c, 10, 72, 84
16, 76131, Note_on_c, 10, 72, 0
16, 76140, Note_on_c, 10, 72, 84
16, 76191, Note_on_c, 10, 72, 0
16, 76200, Note_on_c, 10, 67, 84
16, 76251, Note_on_c, 10, 67, 0
16, 76260, Note_on_c, 10, 67, 84
16, 76311, Note_on_c, 10, 67, 0
16, 76320, Note_on_c, 10, 63, 84
16, 76371, Note_on_c, 10, 63, 0
16, 76380, Note_on_c, 10, 63, 84
16, 76431, Note_on_c, 10, 63, 0
16, 76440, Note_on_c, 10, 60, 84
16, 76491, Note_on_c, 10, 60, 0
16, 76500, Note_on_c, 10, 60, 84
16, 76551, Note_on_c, 10, 60, 0
16, 76560, Note_on_c, 10, 55, 92
16, 76611, Note_on_c, 10, 55, 0
16, 76620, Note_on_c, 10, 55, 84
16, 76671, Note_on_c, 10, 55, 0
16, 76680, Note_on_c, 10, 79, 84
16, 76731, Note_on_c, 10, 79, 0
16, 76740, Note_on_c, 10, 79, 84
16, 76791, Note_on_c, 10, 79, 0
16, 76800, Note_on_c, 10, 80, 84
16, 76851, Note_on_c, 10, 80, 0
16, 76860, Note_on_c, 10, 80, 84
16, 76911, Note_on_c, 10, 80, 0
16, 76920, Note_on_c, 10, 75, 84
16, 76971, Note_on_c, 10, 75, 0
16, 76980, Note_on_c, 10, 75, 84
16, 77031, Note_on_c, 10, 75, 0
16, 77040, Note_on_c, 10, 72, 84
16, 77091, Note_on_c, 10, 72, 0
16, 77100, Note_on_c, 10, 72, 84
16, 77151, Note_on_c, 10, 72, 0
16, 77160, Note_on_c, 10, 68, 84
16, 77211, Note_on_c, 10, 68, 0
16, 77220, Note_on_c, 10, 68, 84
16, 77271, Note_on_c, 10, 68, 0
16, 77280, Note_on_c, 10, 63, 84
16, 77331, Note_on_c, 10, 63, 0
16, 77340, Note_on_c, 10, 63, 84
16, 77391, Note_on_c, 10, 63, 0
16, 77400, Note_on_c, 10, 60, 84
16, 77451, Note_on_c, 10, 60, 0
16, 77460, Note_on_c, 10, 60, 84
16, 77511, Note_on_c, 10, 60, 0
16, 77520, Note_on_c, 10, 56, 92
16, 77571, Note_on_c, 10, 56, 0
16, 77580, Note_on_c, 10, 56, 84
16, 77631, Note_on_c, 10, 56, 0
16, 77640, Note_on_c, 10, 80, 84
16, 77691, Note_on_c, 10, 80, 0
16, 77700, Note_on_c, 10, 80, 84
16, 77751, Note_on_c, 10, 80, 0
16, 77760, Note_on_c, 10, 80, 84
16, 77811, Note_on_c, 10, 80, 0
16, 77820, Note_on_c, 10, 80, 84
16, 77871, Note_on_c, 10, 80, 0
16, 77880, Note_on_c, 10, 75, 84
16, 77931, Note_on_c, 10, 75, 0
16, 77940, Note_on_c, 10, 75, 84
16, 77991, Note_on_c, 10, 75, 0
16, 78000, Note_on_c, 10, 72, 84
16, 78051, Note_on_c, 10, 72, 0
16, 78060, Note_on_c, 10, 72, 84
16, 78111, Note_on_c, 10, 72, 0
16, 78120, Note_on_c, 10, 68, 84
16, 78171, Note_on_c, 10, 68, 0
16, 78180, Note_on_c, 10, 68, 84
16, 78231, Note_on_c, 10, 68, 0
16, 78240, Note_on_c, 10, 63, 84
16, 78291, Note_on_c, 10, 63, 0
16, 78300, Note_on_c, 10, 63, 84
16, 78351, Note_on_c, 10, 63, 0
16, 78360, Note_on_c, 10, 60, 84
16, 78411, Note_on_c, 10, 60, 0
16, 78420, Note_on_c, 10, 60, 84
16, 78471, Note_on_c, 10, 60, 0
16, 78480, Note_on_c, 10, 56, 92
16, 78531, Note_on_c, 10, 56, 0
16, 78540, Note_on_c, 10, 56, 84
16, 78591, Note_on_c, 10, 56, 0
16, 78600, Note_on_c, 10, 80, 84
16, 78651, Note_on_c, 10, 80, 0
16, 78660, Note_on_c, 10, 80, 84
16, 78711, Note_on_c, 10, 80, 0
16, 78720, Note_on_c, 10, 80, 84
16, 78771, Note_on_c, 10, 80, 0
16, 78780, Note_on_c, 10, 80, 84
16, 78831, Note_on_c, 10, 80, 0
16, 78840, Note_on_c, 10, 77, 84
16, 78891, Note_on_c, 10, 77, 0
16, 78900, Note_on_c, 10, 77, 84
16, 78951, Note_on_c, 10, 77, 0
16, 78960, Note_on_c, 10, 73, 84
16, 79011, Note_on_c, 10, 73, 0
16, 79020, Note_on_c, 10, 73, 84
16, 79071, Note_on_c, 10, 73, 0
16, 79080, Note_on_c, 10, 68, 84
16, 79131, Note_on_c, 10, 68, 0
16, 79140, Note_on_c, 10, 68, 84
16, 79191, Note_on_c, 10, 68, 0
16, 79200, Note_on_c, 10, 65, 84
16, 79251, Note_on_c, 10, 65, 0
16, 79260, Note_on_c, 10, 65, 84
16, 79311, Note_on_c, 10, 65, 0
16, 79320, Note_on_c, 10, 61, 84
16, 79371, Note_on_c, 10, 61, 0
16, 79380, Note_on_c, 10, 61, 84
16, 79431, Note_on_c, 10, 61, 0
16, 79440, Note_on_c, 10, 56, 92
16, 79491, Note_on_c, 10, 56, 0
16, 79500, Note_on_c, 10, 56, 84
16, 79551, Note_on_c, 10, 56, 0
16, 79560, Note_on_c, 10, 80, 84
16, 79611, Note_on_c, 10, 80, 0
16, 79620, Note_on_c, 10, 80, 84
16, 79671, Note_on_c, 10, 80, 0
16, 79680, Note_on_c, 10, 80, 84
16, 79731, Note_on_c, 10, 80, 0
16, 79740, Note_on_c, 10, 80, 84
16, 79791, Note_on_c, 10, 80, 0
16, 79800, Note_on_c, 10, 77, 84
16, 79851, Note_on_c, 10, 77, 0
16, 79860, Note_on_c, 10, 77, 84
16, 79911, Note_on_c, 10, 77, 0
16, 79920, Note_on_c, 10, 73, 84
16, 79971, Note_on_c, 10, 73, 0
16, 79980, Note_on_c, 10, 73, 84
16, 80031, Note_on_c, 10, 73, 0
16, 80040, Note_on_c, 10, 68, 84
16, 80091, Note_on_c, 10, 68, 0
16, 80100, Note_on_c, 10, 68, 84
16, 80151, Note_on_c, 10, 68, 0
16, 80160, Note_on_c, 10, 65, 84
16, 80211, Note_on_c, 10, 65, 0
16, 80220, Note_on_c, 10, 65, 84
16, 80271, Note_on_c, 10, 65, 0
16, 80280, Note_on_c, 10, 61, 84
16, 80331, Note_on_c, 10, 61, 0
16, 80340, Note_on_c, 10, 61, 84
16, 80391, Note_on_c, 10, 61, 0
16, 80400, Note_on_c, 10, 57, 92
16, 80451, Note_on_c, 10, 57, 0
16, 80460, Note_on_c, 10, 57, 84
16, 80511, Note_on_c, 10, 57, 0
16, 80520, Note_on_c, 10, 81, 84
16, 80571, Note_on_c, 10, 81, 0
16, 80580, Note_on_c, 10, 81, 84
16, 80631, Note_on_c, 10, 81, 0
16, 80640, Note_on_c, 10, 82, 84
16, 80691, Note_on_c, 10, 82, 0
16, 80700, Note_on_c, 10, 82, 84
16, 80751, Note_on_c, 10, 82, 0
16, 80760, Note_on_c, 10, 77, 84
16, 80811, Note_on_c, 10, 77, 0
16, 80820, Note_on_c, 10, 77, 84
16, 80871, Note_on_c, 10, 77, 0
16, 80880, Note_on_c, 10, 74, 84
16, 80931, Note_on_c, 10, 74, 0
16, 80940, Note_on_c, 10, 74, 84
16, 80991, Note_on_c, 10, 74, 0
16, 81000, Note_on_c, 10, 70, 84
16, 81051, Note_on_c, 10, 70, 0
16, 81060, Note_on_c, 10, 70, 84
16, 81111, Note_on_c, 10, 70, 0
16, 81120, Note_on_c, 10, 65, 84
16, 81171, Note_on_c, 10, 65, 0
16, 81180, Note_on_c, 10, 65, 84
16, 81231, Note_on_c, 10, 65, 0
16, 81240, Note_on_c, 10, 62, 84
16, 81291, Note_on_c, 10, 62, 0
16, 81300, Note_on_c, 10, 62, 84
16, 81351, Note_on_c, 10, 62, 0
16, 81360, Note_on_c, 10, 58, 92
16, 81411, Note_on_c, 10, 58, 0
16, 81420, Note_on_c, 10, 58, 84
16, 81471, Note_on_c, 10, 58, 0
16, 81480, Note_on_c, 10, 82, 84
16, 81531, Note_on_c, 10, 82, 0
16, 81540, Note_on_c, 10, 82, 84
16, 81591, Note_on_c, 10, 82, 0
16, 81600, Note_on_c, 10, 82, 84
16, 81651, Note_on_c, 10, 82, 0
16, 81660, Note_on_c, 10, 82, 84
16, 81711, Note_on_c, 10, 82, 0
16, 81720, Note_on_c, 10, 77, 84
16, 81771, Note_on_c, 10, 77, 0
16, 81780, Note_on_c, 10, 77, 84
16, 81831, Note_on_c, 10, 77, 0
16, 81840, Note_on_c, 10, 74, 84
16, 81891, Note_on_c, 10, 74, 0
16, 81900, Note_on_c, 10, 74, 84
16, 81951, Note_on_c, 10, 74, 0
16, 81960, Note_on_c, 10, 70, 84
16, 82011, Note_on_c, 10, 70, 0
16, 82020, Note_on_c, 10, 70, 84
16, 82071, Note_on_c, 10, 70, 0
16, 82080, Note_on_c, 10, 65, 84
16, 82131, Note_on_c, 10, 65, 0
16, 82140, Note_on_c, 10, 65, 84
16, 82191, Note_on_c, 10, 65, 0
16, 82200, Note_on_c, 10, 62, 84
16, 82251, Note_on_c, 10, 62, 0
16, 82260, Note_on_c, 10, 62, 84
16, 82311, Note_on_c, 10, 62, 0
16, 82320, Note_on_c, 10, 58, 92
16, 82371, Note_on_c, 10, 58, 0
16, 82380, Note_on_c, 10, 58, 84
16, 82431, Note_on_c, 10, 58, 0
16, 82440, Note_on_c, 10, 82, 84
16, 82491, Note_on_c, 10, 82, 0
16, 82500, Note_on_c, 10, 82, 84
16, 82551, Note_on_c, 10, 82, 0
16, 82560, Note_on_c, 10, 82, 84
16, 82611, Note_on_c, 10, 82, 0
16, 82620, Note_on_c, 10, 82, 84
16, 82671, Note_on_c, 10, 82, 0
16, 82680, Note_on_c, 10, 78, 84
16, 82731, Note_on_c, 10, 78, 0
16, 82740, Note_on_c, 10, 78, 84
16, 82791, Note_on_c, 10, 78, 0
16, 82800, Note_on_c, 10, 75, 84
16, 82851, Note_on_c, 10, 75, 0
16, 82860, Note_on_c, 10, 75, 84
16, 82911, Note_on_c, 10, 75, 0
16, 82920, Note_on_c, 10, 70, 84
16, 82971, Note_on_c, 10, 70, 0
16, 82980, Note_on_c, 10, 70, 84
16, 83031, Note_on_c, 10, 70, 0
16, 83040, Note_on_c, 10, 66, 84
16, 83091, Note_on_c, 10, 66, 0
16, 83100, Note_on_c, 10, 66, 84
16, 83151, Note_on_c, 10, 66, 0
16, 83160, Note_on_c, 10, 63, 84
16, 83211, Note_on_c, 10, 63, 0
16, 83220, Note_on_c, 10, 63, 84
16, 83271, Note_on_c, 10, 63, 0
16, 83280, Note_on_c, 10, 58, 92
16, 83331, Note_on_c, 10, 58, 0
16, 83340, Note_on_c, 10, 58, 84
16, 83391, Note_on_c, 10, 58, 0
16, 83400, Note_on_c, 10, 82, 84
16, 83451, Note_on_c, 10, 82, 0
16, 83460, Note_on_c, 10, 82, 84
16, 83511, Note_on_c, 10, 82, 0
16, 83520, Note_on_c, 10, 82, 84
16, 83571, Note_on_c, 10, 82, 0
16, 83580, Note_on_c, 10, 82, 84
16, 83631, Note_on_c, 10, 82, 0
16, 83640, Note_on_c, 10, 78, 84
16, 83691, Note_on_c, 10, 78, 0
16, 83700, Note_on_c, 10, 78, 84
16, 83751, Note_on_c, 10, 78, 0
16, 83760, Note_on_c, 10, 75, 84
16, 83811, Note_on_c, 10, 75, 0
16, 83820, Note_on_c, 10, 75, 84
16, 83871, Note_on_c, 10, 75, 0
16, 83880, Note_on_c, 10, 70, 84
16, 83931, Note_on_c, 10, 70, 0
16, 83940, Note_on_c, 10, 70, 84
16, 83991, Note_on_c, 10, 70, 0
16, 84000, Note_on_c, 10, 66, 84
16, 84051, Note_on_c, 10, 66, 0
16, 84060, Note_on_c, 10, 66, 84
16, 84111, Note_on_c, 10, 66, 0
16, 84120, Note_on_c, 10, 63, 84
16, 84171, Note_on_c, 10, 63, 0
16, 84180, Note_on_c, 10, 63, 84
16, 84231, Note_on_c, 10, 63, 0
16, 84240, Note_on_c, 10, 60, 92
16, 84291, Note_on_c, 10, 60, 0
16, 84300, Note_on_c, 10, 60, 84
16, 84351, Note_on_c, 10, 60, 0
16, 84360, Note_on_c, 10, 84, 84
16, 84411, Note_on_c, 10, 84, 0
16, 84420, Note_on_c, 10, 84, 84
16, 84471, Note_on_c, 10, 84, 0
16, 84480, Note_on_c, 10, 73, 84
16, 84719, Note_on_c, 10, 73, 0
16, 84960, Note_on_c, 10, 85, 92
16, 85019, Note_on_c, 10, 85, 0
16, 85020, Note_on_c, 10, 85, 84
16, 85304, Note_on_c, 10, 85, 0
16, 85320, Note_on_c, 10, 80, 84
16, 85424, Note_on_c, 10, 80, 0
16, 85440, Note_on_c, 10, 82, 84
16, 85544, Note_on_c, 10, 82, 0
16, 85560, Note_on_c, 10, 77, 84
16, 85664, Note_on_c, 10, 77, 0
16, 85680, Note_on_c, 10, 78, 84
16, 85784, Note_on_c, 10, 78, 0
16, 85800, Note_on_c, 10, 77, 84
16, 85904, Note_on_c, 10, 77, 0
16, 85920, Note_on_c, 10, 75, 84
16, 86024, Note_on_c, 10, 75, 0
16, 86040, Note_on_c, 10, 73, 84
16, 86144, Note_on_c, 10, 73, 0
16, 86160, Note_on_c, 10, 73, 84
16, 86264, Note_on_c, 10, 73, 0
16, 86280, Note_on_c, 10, 72, 84
16, 86384, Note_on_c, 10, 72, 0
16, 86400, Note_on_c, 10, 70, 84
16, 86639, Note_on_c, 10, 70, 0
16, 86880, Note_on_c, 10, 82, 92
16, 86939, Note_on_c, 10, 82, 0
16, 86940, Note_on_c, 10, 82, 84
16, 87224, Note_on_c, 10, 82, 0
16, 87240, Note_on_c, 10, 77, 84
16, 87344, Note_on_c, 10, 77, 0
16, 87360, Note_on_c, 10, 78, 84
16, 87464, Note_on_c, 10, 78, 0
16, 87480, Note_on_c, 10, 73, 84
16, 87584, Note_on_c, 10, 73, 0
16, 87600, Note_on_c, 10, 75, 84
16, 87704, Note_on_c, 10, 75, 0
16, 87720, Note_on_c, 10, 73, 84
16, 87824, Note_on_c, 10, 73, 0
16, 87840, Note_on_c, 10, 71, 84
16, 87944, Note_on_c, 10, 71, 0
16, 87960, Note_on_c, 10, 70, 84
16, 88064, Note_on_c, 10, 70, 0
16, 88080, Note_on_c, 10, 70, 84
16, 88184, Note_on_c, 10, 70, 0
16, 88200, Note_on_c, 10, 68, 84
16, 88304, Note_on_c, 10, 68, 0
16, 88320, Note_on_c, 10, 66, 84
16, 88559, Note_on_c, 10, 66, 0
16, 88800, Note_on_c, 10, 78, 92
16, 88859, Note_on_c, 10, 78, 0
16, 88860, Note_on_c, 10, 78, 84
16, 89144, Note_on_c, 10, 78, 0
16, 89160, Note_on_c, 10, 73, 84
16, 89264, Note_on_c, 10, 73, 0
16, 89280, Note_on_c, 10, 75, 84
16, 89384, Note_on_c, 10, 75, 0
16, 89400, Note_on_c, 10, 70, 84
16, 89504, Note_on_c, 10, 70, 0
16, 89520, Note_on_c, 10, 71, 84
16, 89624, Note_on_c, 10, 71, 0
16, 89640, Note_on_c, 10, 70, 84
16, 89744, Note_on_c, 10, 70, 0
16, 89760, Note_on_c, 10, 68, 84
16, 89864, Note_on_c, 10, 68, 0
16, 89880, Note_on_c, 10, 66, 84
16, 89984, Note_on_c, 10, 66, 0
16, 90000, Note_on_c, 10, 66, 84
16, 90104, Note_on_c, 10, 66, 0
16, 90120, Note_on_c, 10, 67, 84
16, 90120, Note_on_c, 10, 55, 84
16, 90224, Note_on_c, 10, 67, 0
16, 90224, Note_on_c, 10, 55, 0
16, 90240, Note_on_c, 10, 55, 84
16, 90240, Note_on_c, 10, 67, 84
16, 90344, Note_on_c, 10, 55, 0
16, 90344, Note_on_c, 10, 67, 0
16, 90360, Note_on_c, 10, 78, 84
16, 90479, Note_on_c, 10, 78, 0
16, 90480, Note_on_c, 10, 79, 76
16, 90599, Note_on_c, 10, 79, 0
16, 90600, Note_on_c, 10, 79, 52
16, 90839, Note_on_c, 10, 79, 0
16, 90840, Note_on_c, 10, 78, 52
16, 90959, Note_on_c, 10, 78, 0
16, 90960, Note_on_c, 10, 77, 52
16, 91079, Note_on_c, 10, 77, 0
16, 91080, Note_on_c, 10, 76, 52
16, 91199, Note_on_c, 10, 76, 0
16, 91200, Note_on_c, 10, 74, 52
16, 91319, Note_on_c, 10, 74, 0
16, 91320, Note_on_c, 10, 73, 52
16, 91439, Note_on_c, 10, 73, 0
16, 91440, Note_on_c, 10, 72, 52
16, 91559, Note_on_c, 10, 72, 0
16, 91560, Note_on_c, 10, 71, 52
16, 91679, Note_on_c, 10, 71, 0
16, 91680, Note_on_c, 10, 70, 52
16, 91799, Note_on_c, 10, 70, 0
16, 91800, Note_on_c, 10, 69, 53
16, 91919, Note_on_c, 10, 69, 0
16, 91920, Note_on_c, 10, 68, 54
16, 92039, Note_on_c, 10, 68, 0
16, 92040, Note_on_c, 10, 67, 55
16, 92144, Note_on_c, 10, 67, 0
16, 92160, Note_on_c, 10, 66, 56
16, 92279, Note_on_c, 10, 66, 0
16, 92280, Note_on_c, 10, 65, 58
16, 92399, Note_on_c, 10, 65, 0
16, 92400, Note_on_c, 10, 64, 59
16, 92519, Note_on_c, 10, 64, 0
16, 92520, Note_on_c, 10, 63, 60
16, 92639, Note_on_c, 10, 63, 0
16, 92640, Note_on_c, 10, 62, 61
16, 92759, Note_on_c, 10, 62, 0
16, 92760, Note_on_c, 10, 61, 62
16, 92879, Note_on_c, 10, 61, 0
16, 92880, Note_on_c, 10, 60, 64
16, 92999, Note_on_c, 10, 60, 0
16, 93000, Note_on_c, 10, 59, 65
16, 93119, Note_on_c, 10, 59, 0
16, 93120, Note_on_c, 10, 58, 66
16, 93239, Note_on_c, 10, 58, 0
16, 93240, Note_on_c, 10, 59, 67
16, 93359, Note_on_c, 10, 59, 0
16, 93360, Note_on_c, 10, 60, 68
16, 93479, Note_on_c, 10, 60, 0
16, 93480, Note_on_c, 10, 61, 70
16, 93599, Note_on_c, 10, 61, 0
16, 93600, Note_on_c, 10, 62, 71
16, 93719, Note_on_c, 10, 62, 0
16, 93720, Note_on_c, 10, 63, 72
16, 93839, Note_on_c, 10, 63, 0
16, 93840, Note_on_c, 10, 64, 73
16, 93959, Note_on_c, 10, 64, 0
16, 93960, Note_on_c, 10, 63, 74
16, 94064, Note_on_c, 10, 63, 0
16, 94080, Note_on_c, 10, 64, 76
16, 94184, Note_on_c, 10, 64, 0
16, 94200, Note_on_c, 10, 78, 76
16, 94319, Note_on_c, 10, 78, 0
16, 94320, Note_on_c, 10, 79, 84
16, 94439, Note_on_c, 10, 79, 0
16, 94440, Note_on_c, 10, 79, 52
16, 94679, Note_on_c, 10, 79, 0
16, 94680, Note_on_c, 10, 78, 52
16, 94799, Note_on_c, 10, 78, 0
16, 94800, Note_on_c, 10, 77, 52
16, 94919, Note_on_c, 10, 77, 0
16, 94920, Note_on_c, 10, 76, 52
16, 95039, Note_on_c, 10, 76, 0
16, 95040, Note_on_c, 10, 74, 52
16, 95159, Note_on_c, 10, 74, 0
16, 95160, Note_on_c, 10, 73, 52
16, 95279, Note_on_c, 10, 73, 0
16, 95280, Note_on_c, 10, 72, 52
16, 95399, Note_on_c, 10, 72, 0
16, 95400, Note_on_c, 10, 71, 52
16, 95519, Note_on_c, 10, 71, 0
16, 95520, Note_on_c, 10, 70, 52
16, 95639, Note_on_c, 10, 70, 0
16, 95640, Note_on_c, 10, 69, 53
16, 95759, Note_on_c, 10, 69, 0
16, 95760, Note_on_c, 10, 68, 54
16, 95879, Note_on_c, 10, 68, 0
16, 95880, Note_on_c, 10, 67, 55
16, 95984, Note_on_c, 10, 67, 0
16, 96000, Note_on_c, 10, 66, 56
16, 96119, Note_on_c, 10, 66, 0
16, 96120, Note_on_c, 10, 65, 58
16, 96239, Note_on_c, 10, 65, 0
16, 96240, Note_on_c, 10, 64, 59
16, 96359, Note_on_c, 10, 64, 0
16, 96360, Note_on_c, 10, 63, 60
16, 96479, Note_on_c, 10, 63, 0
16, 96480, Note_on_c, 10, 62, 61
16, 96599, Note_on_c, 10, 62, 0
16, 96600, Note_on_c, 10, 61, 62
16, 96719, Note_on_c, 10, 61, 0
16, 96720, Note_on_c, 10, 60, 64
16, 96839, Note_on_c, 10, 60, 0
16, 96840, Note_on_c, 10, 59, 65
16, 96959, Note_on_c, 10, 59, 0
16, 96960, Note_on_c, 10, 58, 66
16, 97079, Note_on_c, 10, 58, 0
16, 97080, Note_on_c, 10, 59, 67
16, 97199, Note_on_c, 10, 59, 0
16, 97200, Note_on_c, 10, 60, 68
16, 97319, Note_on_c, 10, 60, 0
16, 97320, Note_on_c, 10, 61, 70
16, 97439, Note_on_c, 10, 61, 0
16, 97440, Note_on_c, 10, 62, 71
16, 97559, Note_on_c, 10, 62, 0
16, 97560, Note_on_c, 10, 63, 72
16, 97679, Note_on_c, 10, 63, 0
16, 97680, Note_on_c, 10, 64, 73
16, 97799, Note_on_c, 10, 64, 0
16, 97800, Note_on_c, 10, 63, 74
16, 97904, Note_on_c, 10, 63, 0
16, 97920, Note_on_c, 10, 64, 76
16, 98024, Note_on_c, 10, 64, 0
16, 98038, Control_c, 10, 11, 112
16, 98040, Note_on_c, 10, 78, 84
16, 98159, Note_on_c, 10, 78, 0
16, 98160, Note_on_c, 10, 79, 84
16, 98272, Control_c, 10, 11, 113
16, 98504, Control_c, 10, 11, 114
16, 98736, Control_c, 10, 11, 115
16, 98968, Control_c, 10, 11, 116
16, 98984, Note_on_c, 10, 79, 0
16, 99000, Note_on_c, 10, 78, 84
16, 99119, Note_on_c, 10, 78, 0
16, 99120, Note_on_c, 10, 79, 84
16, 99200, Control_c, 10, 11, 117
16, 99432, Control_c, 10, 11, 118
16, 99664, Control_c, 10, 11, 119
16, 99896, Control_c, 10, 11, 120
16, 99944, Note_on_c, 10, 79, 0
16, 99960, Note_on_c, 10, 79, 84
16, 100079, Note_on_c, 10, 79, 0
16, 100080, Note_on_c, 10, 80, 84
16, 100128, Control_c, 10, 11, 121
16, 100360, Control_c, 10, 11, 122
16, 100592, Control_c, 10, 11, 123
16, 100824, Control_c, 10, 11, 124
16, 100904, Note_on_c, 10, 80, 0
16, 100920, Note_on_c, 10, 79, 84
16, 101039, Note_on_c, 10, 79, 0
16, 101040, Note_on_c, 10, 80, 84
16, 101056, Control_c, 10, 11, 125
16, 101264, Note_on_c, 10, 80, 0
16, 101280, Note_on_c, 10, 69, 84
16, 101280, Note_on_c, 10, 81, 84
16, 101288, Control_c, 10, 11, 127
16, 101384, Note_on_c, 10, 69, 0
16, 101384, Note_on_c, 10, 81, 0
16, 101400, Note_on_c, 10, 83, 84
16, 101504, Note_on_c, 10, 83, 0
16, 101520, Note_on_c, 10, 69, 84
16, 101520, Note_on_c, 10, 84, 84
16, 101571, Note_on_c, 10, 69, 0
16, 101571, Note_on_c, 10, 84, 0
16, 101580, Note_on_c, 10, 84, 84
16, 101580, Note_on_c, 10, 69, 84
16, 101631, Note_on_c, 10, 84, 0
16, 101631, Note_on_c, 10, 69, 0
16, 101640, Note_on_c, 10, 84, 84
16, 101640, Note_on_c, 10, 69, 84
16, 101691, Note_on_c, 10, 84, 0
16, 101691, Note_on_c, 10, 69, 0
16, 101700, Note_on_c, 10, 69, 84
16, 101700, Note_on_c, 10, 84, 84
16, 101751, Note_on_c, 10, 69, 0
16, 101751, Note_on_c, 10, 84, 0
16, 101760, Note_on_c, 10, 69, 84
16, 101760, Note_on_c, 10, 84, 84
16, 101811, Note_on_c, 10, 69, 0
16, 101811, Note_on_c, 10, 84, 0
16, 101820, Note_on_c, 10, 69, 84
16, 101820, Note_on_c, 10, 84, 84
16, 101871, Note_on_c, 10, 69, 0
16, 101871, Note_on_c, 10, 84, 0
16, 101880, Note_on_c, 10, 84, 84
16, 101880, Note_on_c, 10, 69, 84
16, 101931, Note_on_c, 10, 84, 0
16, 101931, Note_on_c, 10, 69, 0
16, 101940, Note_on_c, 10, 69, 84
16, 101940, Note_on_c, 10, 84, 84
16, 101991, Note_on_c, 10, 69, 0
16, 101991, Note_on_c, 10, 84, 0
16, 102000, Note_on_c, 10, 84, 84
16, 102000, Note_on_c, 10, 69, 84
16, 102051, Note_on_c, 10, 84, 0
16, 102051, Note_on_c, 10, 69, 0
16, 102060, Note_on_c, 10, 69, 84
16, 102060, Note_on_c, 10, 84, 84
16, 102111, Note_on_c, 10, 69, 0
16, 102111, Note_on_c, 10, 84, 0
16, 102120, Note_on_c, 10, 69, 84
16, 102120, Note_on_c, 10, 84, 84
16, 102171, Note_on_c, 10, 69, 0
16, 102171, Note_on_c, 10, 84, 0
16, 102180, Note_on_c, 10, 69, 84
16, 102180, Note_on_c, 10, 84, 84
16, 102231, Note_on_c, 10, 69, 0
16, 102231, Note_on_c, 10, 84, 0
16, 102240, Note_on_c, 10, 84, 84
16, 102240, Note_on_c, 10, 69, 84
16, 102291, Note_on_c, 10, 84, 0
16, 102291, Note_on_c, 10, 69, 0
16, 102300, Note_on_c, 10, 84, 84
16, 102300, Note_on_c, 10, 69, 84
16, 102351, Note_on_c, 10, 84, 0
16, 102351, Note_on_c, 10, 69, 0
16, 102360, Note_on_c, 10, 84, 84
16, 102360, Note_on_c, 10, 69, 84
16, 102411, Note_on_c, 10, 84, 0
16, 102411, Note_on_c, 10, 69, 0
16, 102420, Note_on_c, 10, 69, 84
16, 102420, Note_on_c, 10, 84, 84
16, 102471, Note_on_c, 10, 69, 0
16, 102471, Note_on_c, 10, 84, 0
16, 102480, Note_on_c, 10, 69, 84
16, 102480, Note_on_c, 10, 84, 84
16, 102531, Note_on_c, 10, 69, 0
16, 102531, Note_on_c, 10, 84, 0
16, 102540, Note_on_c, 10, 69, 84
16, 102540, Note_on_c, 10, 84, 84
16, 102591, Note_on_c, 10, 69, 0
16, 102591, Note_on_c, 10, 84, 0
16, 102600, Note_on_c, 10, 69, 84
16, 102600, Note_on_c, 10, 84, 84
16, 102651, Note_on_c, 10, 69, 0
16, 102651, Note_on_c, 10, 84, 0
16, 102660, Note_on_c, 10, 84, 84
16, 102660, Note_on_c, 10, 69, 84
16, 102711, Note_on_c, 10, 84, 0
16, 102711, Note_on_c, 10, 69, 0
16, 102720, Note_on_c, 10, 69, 84
16, 102720, Note_on_c, 10, 84, 84
16, 102771, Note_on_c, 10, 69, 0
16, 102771, Note_on_c, 10, 84, 0
16, 102780, Note_on_c, 10, 84, 84
16, 102780, Note_on_c, 10, 69, 84
16, 102831, Note_on_c, 10, 84, 0
16, 102831, Note_on_c, 10, 69, 0
16, 102840, Note_on_c, 10, 69, 84
16, 102840, Note_on_c, 10, 84, 84
16, 102891, Note_on_c, 10, 69, 0
16, 102891, Note_on_c, 10, 84, 0
16, 102900, Note_on_c, 10, 84, 84
16, 102900, Note_on_c, 10, 69, 84
16, 102951, Note_on_c, 10, 84, 0
16, 102951, Note_on_c, 10, 69, 0
16, 102960, Note_on_c, 10, 84, 84
16, 102960, Note_on_c, 10, 69, 84
16, 103011, Note_on_c, 10, 84, 0
16, 103011, Note_on_c, 10, 69, 0
16, 103020, Note_on_c, 10, 84, 84
16, 103020, Note_on_c, 10, 69, 84
16, 103071, Note_on_c, 10, 84, 0
16, 103071, Note_on_c, 10, 69, 0
16, 103080, Note_on_c, 10, 69, 84
16, 103080, Note_on_c, 10, 84, 84
16, 103131, Note_on_c, 10, 69, 0
16, 103131, Note_on_c, 10, 84, 0
16, 103140, Note_on_c, 10, 69, 84
16, 103140, Note_on_c, 10, 84, 84
16, 103191, Note_on_c, 10, 69, 0
16, 103191, Note_on_c, 10, 84, 0
16, 103200, Note_on_c, 10, 69, 84
16, 103200, Note_on_c, 10, 84, 84
16, 103251, Note_on_c, 10, 69, 0
16, 103251, Note_on_c, 10, 84, 0
16, 103260, Note_on_c, 10, 69, 84
16, 103260, Note_on_c, 10, 84, 84
16, 103311, Note_on_c, 10, 69, 0
16, 103311, Note_on_c, 10, 84, 0
16, 103320, Note_on_c, 10, 84, 84
16, 103320, Note_on_c, 10, 69, 84
16, 103371, Note_on_c, 10, 84, 0
16, 103371, Note_on_c, 10, 69, 0
16, 103380, Note_on_c, 10, 84, 84
16, 103380, Note_on_c, 10, 69, 84
16, 103431, Note_on_c, 10, 84, 0
16, 103431, Note_on_c, 10, 69, 0
16, 103440, Note_on_c, 10, 69, 84
16, 103440, Note_on_c, 10, 84, 84
16, 103491, Note_on_c, 10, 69, 0
16, 103491, Note_on_c, 10, 84, 0
16, 103500, Note_on_c, 10, 69, 84
16, 103500, Note_on_c, 10, 84, 84
16, 103551, Note_on_c, 10, 69, 0
16, 103551, Note_on_c, 10, 84, 0
16, 103560, Note_on_c, 10, 84, 84
16, 103560, Note_on_c, 10, 69, 84
16, 103611, Note_on_c, 10, 84, 0
16, 103611, Note_on_c, 10, 69, 0
16, 103620, Note_on_c, 10, 84, 84
16, 103620, Note_on_c, 10, 69, 84
16, 103671, Note_on_c, 10, 84, 0
16, 103671, Note_on_c, 10, 69, 0
16, 103680, Note_on_c, 10, 69, 84
16, 103680, Note_on_c, 10, 84, 84
16, 103731, Note_on_c, 10, 69, 0
16, 103731, Note_on_c, 10, 84, 0
16, 103740, Note_on_c, 10, 84, 84
16, 103740, Note_on_c, 10, 69, 84
16, 103791, Note_on_c, 10, 84, 0
16, 103791, Note_on_c, 10, 69, 0
16, 103800, Note_on_c, 10, 69, 84
16, 103800, Note_on_c, 10, 84, 84
16, 103851, Note_on_c, 10, 69, 0
16, 103851, Note_on_c, 10, 84, 0
16, 103860, Note_on_c, 10, 84, 84
16, 103860, Note_on_c, 10, 69, 84
16, 103911, Note_on_c, 10, 84, 0
16, 103911, Note_on_c, 10, 69, 0
16, 103920, Note_on_c, 10, 84, 84
16, 103920, Note_on_c, 10, 69, 84
16, 103971, Note_on_c, 10, 84, 0
16, 103971, Note_on_c, 10, 69, 0
16, 103980, Note_on_c, 10, 84, 84
16, 103980, Note_on_c, 10, 69, 84
16, 104031, Note_on_c, 10, 84, 0
16, 104031, Note_on_c, 10, 69, 0
16, 104040, Note_on_c, 10, 69, 84
16, 104040, Note_on_c, 10, 84, 84
16, 104091, Note_on_c, 10, 69, 0
16, 104091, Note_on_c, 10, 84, 0
16, 104100, Note_on_c, 10, 84, 84
16, 104100, Note_on_c, 10, 69, 84
16, 104151, Note_on_c, 10, 84, 0
16, 104151, Note_on_c, 10, 69, 0
16, 104160, Note_on_c, 10, 69, 84
16, 104160, Note_on_c, 10, 84, 84
16, 104211, Note_on_c, 10, 69, 0
16, 104211, Note_on_c, 10, 84, 0
16, 104220, Note_on_c, 10, 84, 84
16, 104220, Note_on_c, 10, 69, 84
16, 104271, Note_on_c, 10, 84, 0
16, 104271, Note_on_c, 10, 69, 0
16, 104280, Note_on_c, 10, 84, 84
16, 104280, Note_on_c, 10, 69, 84
16, 104331, Note_on_c, 10, 84, 0
16, 104331, Note_on_c, 10, 69, 0
16, 104340, Note_on_c, 10, 84, 84
16, 104340, Note_on_c, 10, 69, 84
16, 104391, Note_on_c, 10, 84, 0
16, 104391, Note_on_c, 10, 69, 0
16, 104400, Note_on_c, 10, 69, 84
16, 104400, Note_on_c, 10, 84, 84
16, 104451, Note_on_c, 10, 69, 0
16, 104451, Note_on_c, 10, 84, 0
16, 104460, Note_on_c, 10, 84, 84
16, 104460, Note_on_c, 10, 69, 84
16, 104511, Note_on_c, 10, 84, 0
16, 104511, Note_on_c, 10, 69, 0
16, 104520, Note_on_c, 10, 84, 84
16, 104520, Note_on_c, 10, 69, 84
16, 104571, Note_on_c, 10, 84, 0
16, 104571, Note_on_c, 10, 69, 0
16, 104580, Note_on_c, 10, 84, 84
16, 104580, Note_on_c, 10, 69, 84
16, 104631, Note_on_c, 10, 84, 0
16, 104631, Note_on_c, 10, 69, 0
16, 104640, Note_on_c, 10, 84, 84
16, 104640, Note_on_c, 10, 69, 84
16, 104691, Note_on_c, 10, 84, 0
16, 104691, Note_on_c, 10, 69, 0
16, 104700, Note_on_c, 10, 84, 84
16, 104700, Note_on_c, 10, 69, 84
16, 104751, Note_on_c, 10, 84, 0
16, 104751, Note_on_c, 10, 69, 0
16, 104760, Note_on_c, 10, 69, 84
16, 104760, Note_on_c, 10, 84, 84
16, 104811, Note_on_c, 10, 69, 0
16, 104811, Note_on_c, 10, 84, 0
16, 104820, Note_on_c, 10, 84, 84
16, 104820, Note_on_c, 10, 69, 84
16, 104871, Note_on_c, 10, 84, 0
16, 104871, Note_on_c, 10, 69, 0
16, 104880, Note_on_c, 10, 69, 84
16, 104880, Note_on_c, 10, 84, 84
16, 104931, Note_on_c, 10, 69, 0
16, 104931, Note_on_c, 10, 84, 0
16, 104940, Note_on_c, 10, 84, 84
16, 104940, Note_on_c, 10, 69, 84
16, 104991, Note_on_c, 10, 84, 0
16, 104991, Note_on_c, 10, 69, 0
16, 105000, Note_on_c, 10, 84, 84
16, 105000, Note_on_c, 10, 69, 84
16, 105051, Note_on_c, 10, 84, 0
16, 105051, Note_on_c, 10, 69, 0
16, 105060, Note_on_c, 10, 69, 84
16, 105060, Note_on_c, 10, 84, 84
16, 105111, Note_on_c, 10, 69, 0
16, 105111, Note_on_c, 10, 84, 0
16, 105120, Note_on_c, 10, 69, 84
16, 105120, Note_on_c, 10, 84, 84
16, 105171, Note_on_c, 10, 69, 0
16, 105171, Note_on_c, 10, 84, 0
16, 105180, Note_on_c, 10, 69, 84
16, 105180, Note_on_c, 10, 84, 84
16, 105231, Note_on_c, 10, 69, 0
16, 105231, Note_on_c, 10, 84, 0
16, 105240, Note_on_c, 10, 84, 84
16, 105240, Note_on_c, 10, 69, 84
16, 105291, Note_on_c, 10, 84, 0
16, 105291, Note_on_c, 10, 69, 0
16, 105300, Note_on_c, 10, 84, 84
16, 105300, Note_on_c, 10, 69, 84
16, 105351, Note_on_c, 10, 84, 0
16, 105351, Note_on_c, 10, 69, 0
16, 105360, Note_on_c, 10, 69, 84
16, 105360, Note_on_c, 10, 84, 84
16, 105411, Note_on_c, 10, 69, 0
16, 105411, Note_on_c, 10, 84, 0
16, 105420, Note_on_c, 10, 69, 84
16, 105420, Note_on_c, 10, 84, 84
16, 105471, Note_on_c, 10, 69, 0
16, 105471, Note_on_c, 10, 84, 0
16, 105480, Note_on_c, 10, 84, 84
16, 105480, Note_on_c, 10, 69, 84
16, 105531, Note_on_c, 10, 84, 0
16, 105531, Note_on_c, 10, 69, 0
16, 105540, Note_on_c, 10, 84, 84
16, 105540, Note_on_c, 10, 69, 84
16, 105591, Note_on_c, 10, 84, 0
16, 105591, Note_on_c, 10, 69, 0
16, 105600, Note_on_c, 10, 84, 84
16, 105600, Note_on_c, 10, 69, 84
16, 105651, Note_on_c, 10, 84, 0
16, 105651, Note_on_c, 10, 69, 0
16, 105660, Note_on_c, 10, 78, 84
16, 105711, Note_on_c, 10, 78, 0
16, 105720, Note_on_c, 10, 78, 84
16, 105771, Note_on_c, 10, 78, 0
16, 105780, Note_on_c, 10, 78, 84
16, 105831, Note_on_c, 10, 78, 0
16, 105840, Note_on_c, 10, 78, 84
16, 105891, Note_on_c, 10, 78, 0
16, 105900, Note_on_c, 10, 78, 84
16, 105951, Note_on_c, 10, 78, 0
16, 105960, Note_on_c, 10, 78, 84
16, 106011, Note_on_c, 10, 78, 0
16, 106020, Note_on_c, 10, 78, 84
16, 106071, Note_on_c, 10, 78, 0
16, 106080, Note_on_c, 10, 78, 84
16, 106131, Note_on_c, 10, 78, 0
16, 106140, Note_on_c, 10, 78, 84
16, 106191, Note_on_c, 10, 78, 0
16, 106200, Note_on_c, 10, 78, 84
16, 106251, Note_on_c, 10, 78, 0
16, 106260, Note_on_c, 10, 78, 84
16, 106311, Note_on_c, 10, 78, 0
16, 106320, Note_on_c, 10, 78, 84
16, 106371, Note_on_c, 10, 78, 0
16, 106380, Note_on_c, 10, 78, 84
16, 106431, Note_on_c, 10, 78, 0
16, 106440, Note_on_c, 10, 78, 84
16, 106491, Note_on_c, 10, 78, 0
16, 106500, Note_on_c, 10, 78, 84
16, 106551, Note_on_c, 10, 78, 0
16, 106560, Note_on_c, 10, 78, 92
16, 106611, Note_on_c, 10, 78, 0
16, 106620, Note_on_c, 10, 78, 84
16, 106671, Note_on_c, 10, 78, 0
16, 106680, Note_on_c, 10, 78, 84
16, 106731, Note_on_c, 10, 78, 0
16, 106740, Note_on_c, 10, 78, 84
16, 106791, Note_on_c, 10, 78, 0
16, 106800, Note_on_c, 10, 78, 84
16, 106851, Note_on_c, 10, 78, 0
16, 106860, Note_on_c, 10, 78, 84
16, 106911, Note_on_c, 10, 78, 0
16, 106920, Note_on_c, 10, 78, 84
16, 106971, Note_on_c, 10, 78, 0
16, 106980, Note_on_c, 10, 78, 84
16, 107031, Note_on_c, 10, 78, 0
16, 107040, Note_on_c, 10, 78, 84
16, 107091, Note_on_c, 10, 78, 0
16, 107100, Note_on_c, 10, 78, 84
16, 107151, Note_on_c, 10, 78, 0
16, 107160, Note_on_c, 10, 78, 84
16, 107211, Note_on_c, 10, 78, 0
16, 107220, Note_on_c, 10, 78, 84
16, 107271, Note_on_c, 10, 78, 0
16, 107280, Note_on_c, 10, 78, 84
16, 107331, Note_on_c, 10, 78, 0
16, 107340, Note_on_c, 10, 78, 84
16, 107391, Note_on_c, 10, 78, 0
16, 107400, Note_on_c, 10, 78, 84
16, 107451, Note_on_c, 10, 78, 0
16, 107460, Note_on_c, 10, 78, 84
16, 107511, Note_on_c, 10, 78, 0
16, 107520, Note_on_c, 10, 77, 84
16, 107571, Note_on_c, 10, 77, 0
16, 107580, Note_on_c, 10, 77, 84
16, 107631, Note_on_c, 10, 77, 0
16, 107640, Note_on_c, 10, 77, 84
16, 107691, Note_on_c, 10, 77, 0
16, 107700, Note_on_c, 10, 77, 84
16, 107751, Note_on_c, 10, 77, 0
16, 107760, Note_on_c, 10, 77, 84
16, 107811, Note_on_c, 10, 77, 0
16, 107820, Note_on_c, 10, 77, 84
16, 107871, Note_on_c, 10, 77, 0
16, 107880, Note_on_c, 10, 77, 84
16, 107931, Note_on_c, 10, 77, 0
16, 107940, Note_on_c, 10, 77, 84
16, 107991, Note_on_c, 10, 77, 0
16, 108000, Note_on_c, 10, 77, 84
16, 108051, Note_on_c, 10, 77, 0
16, 108060, Note_on_c, 10, 77, 84
16, 108111, Note_on_c, 10, 77, 0
16, 108120, Note_on_c, 10, 77, 84
16, 108171, Note_on_c, 10, 77, 0
16, 108180, Note_on_c, 10, 77, 84
16, 108231, Note_on_c, 10, 77, 0
16, 108240, Note_on_c, 10, 77, 84
16, 108291, Note_on_c, 10, 77, 0
16, 108300, Note_on_c, 10, 77, 84
16, 108351, Note_on_c, 10, 77, 0
16, 108360, Note_on_c, 10, 77, 84
16, 108411, Note_on_c, 10, 77, 0
16, 108420, Note_on_c, 10, 77, 84
16, 108471, Note_on_c, 10, 77, 0
16, 108480, Note_on_c, 10, 76, 92
16, 108531, Note_on_c, 10, 76, 0
16, 108540, Note_on_c, 10, 76, 84
16, 108591, Note_on_c, 10, 76, 0
16, 108600, Note_on_c, 10, 76, 84
16, 108651, Note_on_c, 10, 76, 0
16, 108660, Note_on_c, 10, 76, 84
16, 108711, Note_on_c, 10, 76, 0
16, 108720, Note_on_c, 10, 76, 84
16, 108771, Note_on_c, 10, 76, 0
16, 108780, Note_on_c, 10, 76, 84
16, 108831, Note_on_c, 10, 76, 0
16, 108840, Note_on_c, 10, 76, 84
16, 108891, Note_on_c, 10, 76, 0
16, 108900, Note_on_c, 10, 76, 84
16, 108951, Note_on_c, 10, 76, 0
16, 108960, Note_on_c, 10, 76, 84
16, 109011, Note_on_c, 10, 76, 0
16, 109020, Note_on_c, 10, 76, 84
16, 109071, Note_on_c, 10, 76, 0
16, 109080, Note_on_c, 10, 76, 84
16, 109131, Note_on_c, 10, 76, 0
16, 109140, Note_on_c, 10, 76, 84
16, 109191, Note_on_c, 10, 76, 0
16, 109200, Note_on_c, 10, 76, 84
16, 109251, Note_on_c, 10, 76, 0
16, 109260, Note_on_c, 10, 76, 84
16, 109311, Note_on_c, 10, 76, 0
16, 109320, Note_on_c, 10, 76, 84
16, 109371, Note_on_c, 10, 76, 0
16, 109380, Note_on_c, 10, 76, 84
16, 109431, Note_on_c, 10, 76, 0
16, 109440, Note_on_c, 10, 75, 84
16, 109491, Note_on_c, 10, 75, 0
16, 109500, Note_on_c, 10, 75, 84
16, 109551, Note_on_c, 10, 75, 0
16, 109560, Note_on_c, 10, 75, 84
16, 109611, Note_on_c, 10, 75, 0
16, 109620, Note_on_c, 10, 75, 84
16, 109671, Note_on_c, 10, 75, 0
16, 109680, Note_on_c, 10, 75, 84
16, 109731, Note_on_c, 10, 75, 0
16, 109740, Note_on_c, 10, 75, 84
16, 109791, Note_on_c, 10, 75, 0
16, 109800, Note_on_c, 10, 75, 84
16, 109851, Note_on_c, 10, 75, 0
16, 109860, Note_on_c, 10, 75, 84
16, 109911, Note_on_c, 10, 75, 0
16, 109920, Note_on_c, 10, 75, 84
16, 109971, Note_on_c, 10, 75, 0
16, 109980, Note_on_c, 10, 75, 84
16, 110031, Note_on_c, 10, 75, 0
16, 110040, Note_on_c, 10, 75, 84
16, 110091, Note_on_c, 10, 75, 0
16, 110100, Note_on_c, 10, 75, 84
16, 110151, Note_on_c, 10, 75, 0
16, 110160, Note_on_c, 10, 75, 84
16, 110211, Note_on_c, 10, 75, 0
16, 110220, Note_on_c, 10, 75, 84
16, 110271, Note_on_c, 10, 75, 0
16, 110280, Note_on_c, 10, 75, 84
16, 110331, Note_on_c, 10, 75, 0
16, 110340, Note_on_c, 10, 75, 84
16, 110391, Note_on_c, 10, 75, 0
16, 110400, Note_on_c, 10, 75, 92
16, 110451, Note_on_c, 10, 75, 0
16, 110460, Note_on_c, 10, 75, 84
16, 110511, Note_on_c, 10, 75, 0
16, 110520, Note_on_c, 10, 75, 84
16, 110571, Note_on_c, 10, 75, 0
16, 110580, Note_on_c, 10, 75, 84
16, 110631, Note_on_c, 10, 75, 0
16, 110640, Note_on_c, 10, 75, 84
16, 110691, Note_on_c, 10, 75, 0
16, 110700, Note_on_c, 10, 75, 84
16, 110751, Note_on_c, 10, 75, 0
16, 110760, Note_on_c, 10, 75, 84
16, 110811, Note_on_c, 10, 75, 0
16, 110820, Note_on_c, 10, 75, 84
16, 110871, Note_on_c, 10, 75, 0
16, 110880, Note_on_c, 10, 75, 84
16, 110931, Note_on_c, 10, 75, 0
16, 110940, Note_on_c, 10, 75, 84
16, 110991, Note_on_c, 10, 75, 0
16, 111000, Note_on_c, 10, 75, 84
16, 111051, Note_on_c, 10, 75, 0
16, 111060, Note_on_c, 10, 75, 84
16, 111111, Note_on_c, 10, 75, 0
16, 111120, Note_on_c, 10, 75, 84
16, 111171, Note_on_c, 10, 75, 0
16, 111180, Note_on_c, 10, 75, 84
16, 111231, Note_on_c, 10, 75, 0
16, 111240, Note_on_c, 10, 75, 84
16, 111291, Note_on_c, 10, 75, 0
16, 111300, Note_on_c, 10, 75, 84
16, 111351, Note_on_c, 10, 75, 0
16, 111360, Note_on_c, 10, 73, 84
16, 111411, Note_on_c, 10, 73, 0
16, 111420, Note_on_c, 10, 73, 84
16, 111471, Note_on_c, 10, 73, 0
16, 111480, Note_on_c, 10, 73, 84
16, 111531, Note_on_c, 10, 73, 0
16, 111540, Note_on_c, 10, 73, 84
16, 111591, Note_on_c, 10, 73, 0
16, 111600, Note_on_c, 10, 73, 84
16, 111651, Note_on_c, 10, 73, 0
16, 111660, Note_on_c, 10, 73, 84
16, 111711, Note_on_c, 10, 73, 0
16, 111720, Note_on_c, 10, 73, 84
16, 111771, Note_on_c, 10, 73, 0
16, 111780, Note_on_c, 10, 73, 84
16, 111831, Note_on_c, 10, 73, 0
16, 111840, Note_on_c, 10, 73, 84
16, 111891, Note_on_c, 10, 73, 0
16, 111900, Note_on_c, 10, 73, 84
16, 111951, Note_on_c, 10, 73, 0
16, 111960, Note_on_c, 10, 73, 84
16, 112011, Note_on_c, 10, 73, 0
16, 112020, Note_on_c, 10, 73, 84
16, 112071, Note_on_c, 10, 73, 0
16, 112080, Note_on_c, 10, 73, 84
16, 112131, Note_on_c, 10, 73, 0
16, 112140, Note_on_c, 10, 73, 84
16, 112191, Note_on_c, 10, 73, 0
16, 112200, Note_on_c, 10, 73, 84
16, 112251, Note_on_c, 10, 73, 0
16, 112260, Note_on_c, 10, 73, 84
16, 112311, Note_on_c, 10, 73, 0
16, 112320, Note_on_c, 10, 73, 92
16, 112371, Note_on_c, 10, 73, 0
16, 112380, Note_on_c, 10, 73, 84
16, 112431, Note_on_c, 10, 73, 0
16, 112440, Note_on_c, 10, 73, 83
16, 112491, Note_on_c, 10, 73, 0
16, 112500, Note_on_c, 10, 73, 81
16, 112551, Note_on_c, 10, 73, 0
16, 112560, Note_on_c, 10, 73, 80
16, 112611, Note_on_c, 10, 73, 0
16, 112620, Note_on_c, 10, 73, 78
16, 112671, Note_on_c, 10, 73, 0
16, 112680, Note_on_c, 10, 73, 76
16, 112731, Note_on_c, 10, 73, 0
16, 112740, Note_on_c, 10, 73, 75
16, 112791, Note_on_c, 10, 73, 0
16, 112800, Note_on_c, 10, 73, 73
16, 112851, Note_on_c, 10, 73, 0
16, 112860, Note_on_c, 10, 73, 72
16, 112911, Note_on_c, 10, 73, 0
16, 112920, Note_on_c, 10, 73, 70
16, 112971, Note_on_c, 10, 73, 0
16, 112980, Note_on_c, 10, 73, 68
16, 113031, Note_on_c, 10, 73, 0
16, 113040, Note_on_c, 10, 73, 67
16, 113091, Note_on_c, 10, 73, 0
16, 113100, Note_on_c, 10, 73, 65
16, 113151, Note_on_c, 10, 73, 0
16, 113160, Note_on_c, 10, 73, 64
16, 113211, Note_on_c, 10, 73, 0
16, 113220, Note_on_c, 10, 73, 62
16, 113271, Note_on_c, 10, 73, 0
16, 113280, Note_on_c, 10, 77, 60
16, 113331, Note_on_c, 10, 77, 0
16, 113340, Note_on_c, 10, 77, 60
16, 113391, Note_on_c, 10, 77, 0
16, 113400, Note_on_c, 10, 72, 60
16, 113451, Note_on_c, 10, 72, 0
16, 113460, Note_on_c, 10, 72, 60
16, 113511, Note_on_c, 10, 72, 0
16, 113520, Note_on_c, 10, 69, 60
16, 113571, Note_on_c, 10, 69, 0
16, 113580, Note_on_c, 10, 69, 60
16, 113631, Note_on_c, 10, 69, 0
16, 113640, Note_on_c, 10, 65, 60
16, 113691, Note_on_c, 10, 65, 0
16, 113700, Note_on_c, 10, 65, 60
16, 113751, Note_on_c, 10, 65, 0
16, 113760, Note_on_c, 10, 60, 60
16, 113811, Note_on_c, 10, 60, 0
16, 113820, Note_on_c, 10, 60, 60
16, 113871, Note_on_c, 10, 60, 0
16, 113880, Note_on_c, 10, 57, 60
16, 113931, Note_on_c, 10, 57, 0
16, 113940, Note_on_c, 10, 57, 60
16, 113991, Note_on_c, 10, 57, 0
16, 114000, Note_on_c, 10, 65, 60
16, 114051, Note_on_c, 10, 65, 0
16, 114060, Note_on_c, 10, 65, 60
16, 114111, Note_on_c, 10, 65, 0
16, 114120, Note_on_c, 10, 77, 60
16, 114171, Note_on_c, 10, 77, 0
16, 114180, Note_on_c, 10, 77, 60
16, 114231, Note_on_c, 10, 77, 0
16, 114240, Note_on_c, 10, 77, 60
16, 114291, Note_on_c, 10, 77, 0
16, 114300, Note_on_c, 10, 77, 60
16, 114351, Note_on_c, 10, 77, 0
16, 114360, Note_on_c, 10, 73, 60
16, 114411, Note_on_c, 10, 73, 0
16, 114420, Note_on_c, 10, 73, 60
16, 114471, Note_on_c, 10, 73, 0
16, 114480, Note_on_c, 10, 70, 60
16, 114531, Note_on_c, 10, 70, 0
16, 114540, Note_on_c, 10, 70, 60
16, 114591, Note_on_c, 10, 70, 0
16, 114600, Note_on_c, 10, 65, 59
16, 114651, Note_on_c, 10, 65, 0
16, 114660, Note_on_c, 10, 65, 59
16, 114711, Note_on_c, 10, 65, 0
16, 114720, Note_on_c, 10, 61, 59
16, 114771, Note_on_c, 10, 61, 0
16, 114780, Note_on_c, 10, 61, 59
16, 114831, Note_on_c, 10, 61, 0
16, 114840, Note_on_c, 10, 58, 59
16, 114891, Note_on_c, 10, 58, 0
16, 114900, Note_on_c, 10, 58, 59
16, 114951, Note_on_c, 10, 58, 0
16, 114960, Note_on_c, 10, 65, 59
16, 115011, Note_on_c, 10, 65, 0
16, 115020, Note_on_c, 10, 65, 59
16, 115071, Note_on_c, 10, 65, 0
16, 115080, Note_on_c, 10, 77, 59
16, 115131, Note_on_c, 10, 77, 0
16, 115140, Note_on_c, 10, 77, 59
16, 115191, Note_on_c, 10, 77, 0
16, 115200, Note_on_c, 10, 77, 59
16, 115251, Note_on_c, 10, 77, 0
16, 115260, Note_on_c, 10, 77, 59
16, 115311, Note_on_c, 10, 77, 0
16, 115320, Note_on_c, 10, 73, 59
16, 115371, Note_on_c, 10, 73, 0
16, 115380, Note_on_c, 10, 73, 59
16, 115431, Note_on_c, 10, 73, 0
16, 115440, Note_on_c, 10, 70, 59
16, 115491, Note_on_c, 10, 70, 0
16, 115500, Note_on_c, 10, 70, 59
16, 115551, Note_on_c, 10, 70, 0
16, 115560, Note_on_c, 10, 65, 59
16, 115611, Note_on_c, 10, 65, 0
16, 115620, Note_on_c, 10, 65, 59
16, 115671, Note_on_c, 10, 65, 0
16, 115680, Note_on_c, 10, 61, 59
16, 115731, Note_on_c, 10, 61, 0
16, 115740, Note_on_c, 10, 61, 59
16, 115791, Note_on_c, 10, 61, 0
16, 115800, Note_on_c, 10, 58, 59
16, 115851, Note_on_c, 10, 58, 0
16, 115860, Note_on_c, 10, 58, 59
16, 115911, Note_on_c, 10, 58, 0
16, 115920, Note_on_c, 10, 60, 58
16, 115971, Note_on_c, 10, 60, 0
16, 115980, Note_on_c, 10, 60, 58
16, 116031, Note_on_c, 10, 60, 0
16, 116040, Note_on_c, 10, 78, 58
16, 116091, Note_on_c, 10, 78, 0
16, 116100, Note_on_c, 10, 78, 58
16, 116151, Note_on_c, 10, 78, 0
16, 116160, Note_on_c, 10, 79, 58
16, 116211, Note_on_c, 10, 79, 0
16, 116220, Note_on_c, 10, 79, 58
16, 116271, Note_on_c, 10, 79, 0
16, 116280, Note_on_c, 10, 74, 58
16, 116331, Note_on_c, 10, 74, 0
16, 116340, Note_on_c, 10, 74, 58
16, 116391, Note_on_c, 10, 74, 0
16, 116400, Note_on_c, 10, 71, 58
16, 116451, Note_on_c, 10, 71, 0
16, 116460, Note_on_c, 10, 71, 58
16, 116511, Note_on_c, 10, 71, 0
16, 116520, Note_on_c, 10, 67, 58
16, 116571, Note_on_c, 10, 67, 0
16, 116580, Note_on_c, 10, 67, 58
16, 116631, Note_on_c, 10, 67, 0
16, 116640, Note_on_c, 10, 62, 58
16, 116691, Note_on_c, 10, 62, 0
16, 116700, Note_on_c, 10, 62, 58
16, 116751, Note_on_c, 10, 62, 0
16, 116760, Note_on_c, 10, 59, 58
16, 116811, Note_on_c, 10, 59, 0
16, 116820, Note_on_c, 10, 59, 58
16, 116871, Note_on_c, 10, 59, 0
16, 116880, Note_on_c, 10, 55, 58
16, 116931, Note_on_c, 10, 55, 0
16, 116940, Note_on_c, 10, 55, 58
16, 116991, Note_on_c, 10, 55, 0
16, 117000, Note_on_c, 10, 79, 58
16, 117051, Note_on_c, 10, 79, 0
16, 117060, Note_on_c, 10, 79, 58
16, 117111, Note_on_c, 10, 79, 0
16, 117120, Note_on_c, 10, 79, 58
16, 117171, Note_on_c, 10, 79, 0
16, 117180, Note_on_c, 10, 79, 58
16, 117231, Note_on_c, 10, 79, 0
16, 117240, Note_on_c, 10, 74, 57
16, 117291, Note_on_c, 10, 74, 0
16, 117300, Note_on_c, 10, 74, 57
16, 117351, Note_on_c, 10, 74, 0
16, 117360, Note_on_c, 10, 71, 57
16, 117411, Note_on_c, 10, 71, 0
16, 117420, Note_on_c, 10, 71, 57
16, 117471, Note_on_c, 10, 71, 0
16, 117480, Note_on_c, 10, 67, 57
16, 117531, Note_on_c, 10, 67, 0
16, 117540, Note_on_c, 10, 67, 57
16, 117591, Note_on_c, 10, 67, 0
16, 117600, Note_on_c, 10, 62, 57
16, 117651, Note_on_c, 10, 62, 0
16, 117660, Note_on_c, 10, 62, 57
16, 117711, Note_on_c, 10, 62, 0
16, 117720, Note_on_c, 10, 59, 57
16, 117771, Note_on_c, 10, 59, 0
16, 117780, Note_on_c, 10, 59, 57
16, 117831, Note_on_c, 10, 59, 0
16, 117840, Note_on_c, 10, 55, 57
16, 117891, Note_on_c, 10, 55, 0
16, 117900, Note_on_c, 10, 55, 57
16, 117951, Note_on_c, 10, 55, 0
16, 117960, Note_on_c, 10, 79, 57
16, 118011, Note_on_c, 10, 79, 0
16, 118020, Note_on_c, 10, 79, 57
16, 118071, Note_on_c, 10, 79, 0
16, 118080, Note_on_c, 10, 79, 57
16, 118131, Note_on_c, 10, 79, 0
16, 118140, Note_on_c, 10, 79, 57
16, 118191, Note_on_c, 10, 79, 0
16, 118200, Note_on_c, 10, 75, 57
16, 118251, Note_on_c, 10, 75, 0
16, 118260, Note_on_c, 10, 75, 57
16, 118311, Note_on_c, 10, 75, 0
16, 118320, Note_on_c, 10, 72, 57
16, 118371, Note_on_c, 10, 72, 0
16, 118380, Note_on_c, 10, 72, 57
16, 118431, Note_on_c, 10, 72, 0
16, 118440, Note_on_c, 10, 67, 57
16, 118491, Note_on_c, 10, 67, 0
16, 118500, Note_on_c, 10, 67, 57
16, 118551, Note_on_c, 10, 67, 0
16, 118560, Note_on_c, 10, 63, 56
16, 118611, Note_on_c, 10, 63, 0
16, 118620, Note_on_c, 10, 63, 56
16, 118671, Note_on_c, 10, 63, 0
16, 118680, Note_on_c, 10, 60, 56
16, 118731, Note_on_c, 10, 60, 0
16, 118740, Note_on_c, 10, 60, 56
16, 118791, Note_on_c, 10, 60, 0
16, 118800, Note_on_c, 10, 55, 56
16, 118851, Note_on_c, 10, 55, 0
16, 118860, Note_on_c, 10, 55, 56
16, 118911, Note_on_c, 10, 55, 0
16, 118920, Note_on_c, 10, 79, 56
16, 118971, Note_on_c, 10, 79, 0
16, 118980, Note_on_c, 10, 79, 56
16, 119031, Note_on_c, 10, 79, 0
16, 119040, Note_on_c, 10, 79, 56
16, 119091, Note_on_c, 10, 79, 0
16, 119100, Note_on_c, 10, 79, 56
16, 119151, Note_on_c, 10, 79, 0
16, 119160, Note_on_c, 10, 75, 56
16, 119211, Note_on_c, 10, 75, 0
16, 119220, Note_on_c, 10, 75, 56
16, 119271, Note_on_c, 10, 75, 0
16, 119280, Note_on_c, 10, 72, 56
16, 119331, Note_on_c, 10, 72, 0
16, 119340, Note_on_c, 10, 72, 56
16, 119391, Note_on_c, 10, 72, 0
16, 119400, Note_on_c, 10, 67, 56
16, 119451, Note_on_c, 10, 67, 0
16, 119460, Note_on_c, 10, 67, 56
16, 119511, Note_on_c, 10, 67, 0
16, 119520, Note_on_c, 10, 63, 56
16, 119571, Note_on_c, 10, 63, 0
16, 119580, Note_on_c, 10, 63, 56
16, 119631, Note_on_c, 10, 63, 0
16, 119640, Note_on_c, 10, 60, 56
16, 119691, Note_on_c, 10, 60, 0
16, 119700, Note_on_c, 10, 60, 56
16, 119751, Note_on_c, 10, 60, 0
16, 119760, Note_on_c, 10, 55, 56
16, 119811, Note_on_c, 10, 55, 0
16, 119820, Note_on_c, 10, 55, 56
16, 119871, Note_on_c, 10, 55, 0
16, 119880, Note_on_c, 10, 79, 55
16, 119931, Note_on_c, 10, 79, 0
16, 119940, Note_on_c, 10, 79, 55
16, 119991, Note_on_c, 10, 79, 0
16, 120000, Note_on_c, 10, 80, 55
16, 120051, Note_on_c, 10, 80, 0
16, 120060, Note_on_c, 10, 80, 55
16, 120111, Note_on_c, 10, 80, 0
16, 120120, Note_on_c, 10, 75, 55
16, 120171, Note_on_c, 10, 75, 0
16, 120180, Note_on_c, 10, 75, 55
16, 120231, Note_on_c, 10, 75, 0
16, 120240, Note_on_c, 10, 72, 55
16, 120291, Note_on_c, 10, 72, 0
16, 120300, Note_on_c, 10, 72, 55
16, 120351, Note_on_c, 10, 72, 0
16, 120360, Note_on_c, 10, 68, 55
16, 120411, Note_on_c, 10, 68, 0
16, 120420, Note_on_c, 10, 68, 55
16, 120471, Note_on_c, 10, 68, 0
16, 120480, Note_on_c, 10, 63, 55
16, 120531, Note_on_c, 10, 63, 0
16, 120540, Note_on_c, 10, 63, 55
16, 120591, Note_on_c, 10, 63, 0
16, 120600, Note_on_c, 10, 60, 55
16, 120651, Note_on_c, 10, 60, 0
16, 120660, Note_on_c, 10, 60, 55
16, 120711, Note_on_c, 10, 60, 0
16, 120720, Note_on_c, 10, 56, 55
16, 120771, Note_on_c, 10, 56, 0
16, 120780, Note_on_c, 10, 56, 55
16, 120831, Note_on_c, 10, 56, 0
16, 120840, Note_on_c, 10, 80, 55
16, 120891, Note_on_c, 10, 80, 0
16, 120900, Note_on_c, 10, 80, 55
16, 120951, Note_on_c, 10, 80, 0
16, 120960, Note_on_c, 10, 80, 55
16, 121011, Note_on_c, 10, 80, 0
16, 121020, Note_on_c, 10, 80, 55
16, 121071, Note_on_c, 10, 80, 0
16, 121080, Note_on_c, 10, 75, 55
16, 121131, Note_on_c, 10, 75, 0
16, 121140, Note_on_c, 10, 75, 55
16, 121191, Note_on_c, 10, 75, 0
16, 121200, Note_on_c, 10, 72, 54
16, 121251, Note_on_c, 10, 72, 0
16, 121260, Note_on_c, 10, 72, 54
16, 121311, Note_on_c, 10, 72, 0
16, 121320, Note_on_c, 10, 68, 54
16, 121371, Note_on_c, 10, 68, 0
16, 121380, Note_on_c, 10, 68, 54
16, 121431, Note_on_c, 10, 68, 0
16, 121440, Note_on_c, 10, 63, 54
16, 121491, Note_on_c, 10, 63, 0
16, 121500, Note_on_c, 10, 63, 54
16, 121551, Note_on_c, 10, 63, 0
16, 121560, Note_on_c, 10, 60, 54
16, 121611, Note_on_c, 10, 60, 0
16, 121620, Note_on_c, 10, 60, 54
16, 121671, Note_on_c, 10, 60, 0
16, 121680, Note_on_c, 10, 56, 54
16, 121731, Note_on_c, 10, 56, 0
16, 121740, Note_on_c, 10, 56, 54
16, 121791, Note_on_c, 10, 56, 0
16, 121800, Note_on_c, 10, 80, 54
16, 121851, Note_on_c, 10, 80, 0
16, 121860, Note_on_c, 10, 80, 54
16, 121911, Note_on_c, 10, 80, 0
16, 121920, Note_on_c, 10, 80, 54
16, 121971, Note_on_c, 10, 80, 0
16, 121980, Note_on_c, 10, 80, 54
16, 122031, Note_on_c, 10, 80, 0
16, 122040, Note_on_c, 10, 77, 54
16, 122091, Note_on_c, 10, 77, 0
16, 122100, Note_on_c, 10, 77, 54
16, 122151, Note_on_c, 10, 77, 0
16, 122160, Note_on_c, 10, 73, 54
16, 122211, Note_on_c, 10, 73, 0
16, 122220, Note_on_c, 10, 73, 54
16, 122271, Note_on_c, 10, 73, 0
16, 122280, Note_on_c, 10, 68, 54
16, 122331, Note_on_c, 10, 68, 0
16, 122340, Note_on_c, 10, 68, 54
16, 122391, Note_on_c, 10, 68, 0
16, 122400, Note_on_c, 10, 65, 54
16, 122451, Note_on_c, 10, 65, 0
16, 122460, Note_on_c, 10, 65, 54
16, 122511, Note_on_c, 10, 65, 0
16, 122520, Note_on_c, 10, 61, 53
16, 122571, Note_on_c, 10, 61, 0
16, 122580, Note_on_c, 10, 61, 53
16, 122631, Note_on_c, 10, 61, 0
16, 122640, Note_on_c, 10, 56, 53
16, 122691, Note_on_c, 10, 56, 0
16, 122700, Note_on_c, 10, 56, 53
16, 122751, Note_on_c, 10, 56, 0
16, 122760, Note_on_c, 10, 80, 53
16, 122811, Note_on_c, 10, 80, 0
16, 122820, Note_on_c, 10, 80, 53
16, 122871, Note_on_c, 10, 80, 0
16, 122880, Note_on_c, 10, 80, 53
16, 122931, Note_on_c, 10, 80, 0
16, 122940, Note_on_c, 10, 80, 53
16, 122991, Note_on_c, 10, 80, 0
16, 123000, Note_on_c, 10, 77, 53
16, 123051, Note_on_c, 10, 77, 0
16, 123060, Note_on_c, 10, 77, 53
16, 123111, Note_on_c, 10, 77, 0
16, 123120, Note_on_c, 10, 73, 53
16, 123171, Note_on_c, 10, 73, 0
16, 123180, Note_on_c, 10, 73, 53
16, 123231, Note_on_c, 10, 73, 0
16, 123240, Note_on_c, 10, 68, 53
16, 123291, Note_on_c, 10, 68, 0
16, 123300, Note_on_c, 10, 68, 53
16, 123351, Note_on_c, 10, 68, 0
16, 123360, Note_on_c, 10, 65, 53
16, 123411, Note_on_c, 10, 65, 0
16, 123420, Note_on_c, 10, 65, 53
16, 123471, Note_on_c, 10, 65, 0
16, 123480, Note_on_c, 10, 61, 53
16, 123531, Note_on_c, 10, 61, 0
16, 123540, Note_on_c, 10, 61, 53
16, 123591, Note_on_c, 10, 61, 0
16, 123600, Note_on_c, 10, 56, 53
16, 123651, Note_on_c, 10, 56, 0
16, 123660, Note_on_c, 10, 56, 53
16, 123711, Note_on_c, 10, 56, 0
16, 123720, Note_on_c, 10, 80, 53
16, 123771, Note_on_c, 10, 80, 0
16, 123780, Note_on_c, 10, 80, 53
16, 123831, Note_on_c, 10, 80, 0
16, 123840, Note_on_c, 10, 80, 52
16, 123891, Note_on_c, 10, 80, 0
16, 123900, Note_on_c, 10, 80, 52
16, 123951, Note_on_c, 10, 80, 0
16, 123960, Note_on_c, 10, 80, 52
16, 124011, Note_on_c, 10, 80, 0
16, 124020, Note_on_c, 10, 80, 52
16, 124071, Note_on_c, 10, 80, 0
16, 124080, Note_on_c, 10, 80, 52
16, 124131, Note_on_c, 10, 80, 0
16, 124140, Note_on_c, 10, 80, 52
16, 124191, Note_on_c, 10, 80, 0
16, 124200, Note_on_c, 10, 80, 52
16, 124251, Note_on_c, 10, 80, 0
16, 124260, Note_on_c, 10, 80, 52
16, 124311, Note_on_c, 10, 80, 0
16, 124320, Note_on_c, 10, 80, 52
16, 124371, Note_on_c, 10, 80, 0
16, 124380, Note_on_c, 10, 80, 52
16, 124431, Note_on_c, 10, 80, 0
16, 124440, Note_on_c, 10, 80, 52
16, 124491, Note_on_c, 10, 80, 0
16, 124500, Note_on_c, 10, 80, 52
16, 124551, Note_on_c, 10, 80, 0
16, 124560, Note_on_c, 10, 80, 52
16, 124611, Note_on_c, 10, 80, 0
16, 124620, Note_on_c, 10, 80, 52
16, 124671, Note_on_c, 10, 80, 0
16, 124680, Note_on_c, 10, 80, 52
16, 124731, Note_on_c, 10, 80, 0
16, 124740, Note_on_c, 10, 80, 52
16, 124791, Note_on_c, 10, 80, 0
16, 124800, Note_on_c, 10, 80, 52
16, 124851, Note_on_c, 10, 80, 0
16, 124860, Note_on_c, 10, 80, 52
16, 124911, Note_on_c, 10, 80, 0
16, 124920, Note_on_c, 10, 80, 52
16, 124971, Note_on_c, 10, 80, 0
16, 124980, Note_on_c, 10, 80, 52
16, 125031, Note_on_c, 10, 80, 0
16, 125040, Note_on_c, 10, 80, 52
16, 125091, Note_on_c, 10, 80, 0
16, 125100, Note_on_c, 10, 80, 52
16, 125151, Note_on_c, 10, 80, 0
16, 125160, Note_on_c, 10, 80, 52
16, 125211, Note_on_c, 10, 80, 0
16, 125220, Note_on_c, 10, 80, 52
16, 125271, Note_on_c, 10, 80, 0
16, 125280, Note_on_c, 10, 80, 52
16, 125331, Note_on_c, 10, 80, 0
16, 125340, Note_on_c, 10, 80, 52
16, 125391, Note_on_c, 10, 80, 0
16, 125400, Note_on_c, 10, 80, 52
16, 125451, Note_on_c, 10, 80, 0
16, 125460, Note_on_c, 10, 80, 52
16, 125511, Note_on_c, 10, 80, 0
16, 125520, Note_on_c, 10, 80, 52
16, 125571, Note_on_c, 10, 80, 0
16, 125580, Note_on_c, 10, 80, 52
16, 125631, Note_on_c, 10, 80, 0
16, 125640, Note_on_c, 10, 80, 52
16, 125691, Note_on_c, 10, 80, 0
16, 125700, Note_on_c, 10, 80, 52
16, 125751, Note_on_c, 10, 80, 0
16, 125760, Note_on_c, 10, 79, 52
16, 125811, Note_on_c, 10, 79, 0
16, 125820, Note_on_c, 10, 79, 52
16, 125871, Note_on_c, 10, 79, 0
16, 125880, Note_on_c, 10, 79, 52
16, 125931, Note_on_c, 10, 79, 0
16, 125940, Note_on_c, 10, 79, 52
16, 125991, Note_on_c, 10, 79, 0
16, 126000, Note_on_c, 10, 79, 52
16, 126051, Note_on_c, 10, 79, 0
16, 126060, Note_on_c, 10, 79, 52
16, 126111, Note_on_c, 10, 79, 0
16, 126120, Note_on_c, 10, 79, 52
16, 126171, Note_on_c, 10, 79, 0
16, 126180, Note_on_c, 10, 79, 52
16, 126231, Note_on_c, 10, 79, 0
16, 126240, Note_on_c, 10, 79, 51
16, 126291, Note_on_c, 10, 79, 0
16, 126300, Note_on_c, 10, 79, 51
16, 126351, Note_on_c, 10, 79, 0
16, 126360, Note_on_c, 10, 79, 51
16, 126411, Note_on_c, 10, 79, 0
16, 126420, Note_on_c, 10, 79, 51
16, 126471, Note_on_c, 10, 79, 0
16, 126480, Note_on_c, 10, 79, 51
16, 126531, Note_on_c, 10, 79, 0
16, 126540, Note_on_c, 10, 79, 51
16, 126591, Note_on_c, 10, 79, 0
16, 126600, Note_on_c, 10, 79, 51
16, 126651, Note_on_c, 10, 79, 0
16, 126660, Note_on_c, 10, 79, 51
16, 126711, Note_on_c, 10, 79, 0
16, 126720, Note_on_c, 10, 79, 50
16, 126771, Note_on_c, 10, 79, 0
16, 126780, Note_on_c, 10, 79, 50
16, 126831, Note_on_c, 10, 79, 0
16, 126840, Note_on_c, 10, 79, 50
16, 126891, Note_on_c, 10, 79, 0
16, 126900, Note_on_c, 10, 79, 50
16, 126951, Note_on_c, 10, 79, 0
16, 126960, Note_on_c, 10, 79, 50
16, 127011, Note_on_c, 10, 79, 0
16, 127020, Note_on_c, 10, 79, 50
16, 127071, Note_on_c, 10, 79, 0
16, 127080, Note_on_c, 10, 79, 50
16, 127131, Note_on_c, 10, 79, 0
16, 127140, Note_on_c, 10, 79, 50
16, 127191, Note_on_c, 10, 79, 0
16, 127200, Note_on_c, 10, 79, 49
16, 127251, Note_on_c, 10, 79, 0
16, 127260, Note_on_c, 10, 79, 49
16, 127311, Note_on_c, 10, 79, 0
16, 127320, Note_on_c, 10, 79, 49
16, 127371, Note_on_c, 10, 79, 0
16, 127380, Note_on_c, 10, 79, 49
16, 127431, Note_on_c, 10, 79, 0
16, 127440, Note_on_c, 10, 79, 49
16, 127491, Note_on_c, 10, 79, 0
16, 127500, Note_on_c, 10, 79, 49
16, 127551, Note_on_c, 10, 79, 0
16, 127560, Note_on_c, 10, 79, 49
16, 127611, Note_on_c, 10, 79, 0
16, 127620, Note_on_c, 10, 79, 49
16, 127671, Note_on_c, 10, 79, 0
16, 127680, Note_on_c, 10, 79, 48
16, 127731, Note_on_c, 10, 79, 0
16, 127740, Note_on_c, 10, 79, 48
16, 127791, Note_on_c, 10, 79, 0
16, 127800, Note_on_c, 10, 79, 48
16, 127851, Note_on_c, 10, 79, 0
16, 127860, Note_on_c, 10, 79, 48
16, 127911, Note_on_c, 10, 79, 0
16, 127920, Note_on_c, 10, 79, 48
16, 127971, Note_on_c, 10, 79, 0
16, 127980, Note_on_c, 10, 79, 48
16, 128031, Note_on_c, 10, 79, 0
16, 128040, Note_on_c, 10, 79, 48
16, 128091, Note_on_c, 10, 79, 0
16, 128100, Note_on_c, 10, 79, 48
16, 128151, Note_on_c, 10, 79, 0
16, 128160, Note_on_c, 10, 79, 47
16, 128211, Note_on_c, 10, 79, 0
16, 128220, Note_on_c, 10, 79, 47
16, 128271, Note_on_c, 10, 79, 0
16, 128280, Note_on_c, 10, 79, 47
16, 128331, Note_on_c, 10, 79, 0
16, 128340, Note_on_c, 10, 79, 47
16, 128391, Note_on_c, 10, 79, 0
16, 128400, Note_on_c, 10, 79, 47
16, 128451, Note_on_c, 10, 79, 0
16, 128460, Note_on_c, 10, 79, 47
16, 128511, Note_on_c, 10, 79, 0
16, 128520, Note_on_c, 10, 79, 47
16, 128571, Note_on_c, 10, 79, 0
16, 128580, Note_on_c, 10, 79, 47
16, 128631, Note_on_c, 10, 79, 0
16, 128640, Note_on_c, 10, 79, 46
16, 128691, Note_on_c, 10, 79, 0
16, 128700, Note_on_c, 10, 79, 46
16, 128751, Note_on_c, 10, 79, 0
16, 128760, Note_on_c, 10, 79, 46
16, 128811, Note_on_c, 10, 79, 0
16, 128820, Note_on_c, 10, 79, 46
16, 128871, Note_on_c, 10, 79, 0
16, 128880, Note_on_c, 10, 79, 46
16, 128931, Note_on_c, 10, 79, 0
16, 128940, Note_on_c, 10, 79, 46
16, 128991, Note_on_c, 10, 79, 0
16, 129000, Note_on_c, 10, 79, 46
16, 129051, Note_on_c, 10, 79, 0
16, 129060, Note_on_c, 10, 79, 46
16, 129111, Note_on_c, 10, 79, 0
16, 129120, Note_on_c, 10, 79, 45
16, 129171, Note_on_c, 10, 79, 0
16, 129180, Note_on_c, 10, 79, 45
16, 129231, Note_on_c, 10, 79, 0
16, 129240, Note_on_c, 10, 79, 45
16, 129291, Note_on_c, 10, 79, 0
16, 129300, Note_on_c, 10, 79, 45
16, 129351, Note_on_c, 10, 79, 0
16, 129360, Note_on_c, 10, 79, 45
16, 129411, Note_on_c, 10, 79, 0
16, 129420, Note_on_c, 10, 79, 45
16, 129471, Note_on_c, 10, 79, 0
16, 129480, Note_on_c, 10, 79, 45
16, 129531, Note_on_c, 10, 79, 0
16, 129540, Note_on_c, 10, 79, 45
16, 129591, Note_on_c, 10, 79, 0
16, 129600, Note_on_c, 10, 79, 44
16, 129839, Note_on_c, 10, 79, 0
16, 130560, Note_on_c, 10, 70, 76
16, 131504, Note_on_c, 10, 70, 0
16, 131520, Note_on_c, 10, 71, 52
16, 131759, Note_on_c, 10, 71, 0
16, 132480, Note_on_c, 10, 71, 76
16, 133424, Note_on_c, 10, 71, 0
16, 133440, Note_on_c, 10, 72, 52
16, 133679, Note_on_c, 10, 72, 0
16, 133800, Note_on_c, 10, 76, 52
16, 133859, Note_on_c, 10, 76, 0
16, 133860, Note_on_c, 10, 79, 52
16, 133919, Note_on_c, 10, 79, 0
16, 133920, Note_on_c, 10, 84, 52
16, 134009, Note_on_c, 10, 84, 0
16, 134784, Control_c, 10, 11, 124
16, 134880, Note_on_c, 10, 70, 52
16, 134912, Control_c, 10, 11, 123
16, 135040, Control_c, 10, 11, 122
16, 135168, Control_c, 10, 11, 121
16, 135296, Control_c, 10, 11, 120
16, 135344, Note_on_c, 10, 70, 0
16, 135360, Note_on_c, 10, 71, 52
16, 135424, Control_c, 10, 11, 119
16, 135552, Control_c, 10, 11, 118
16, 135599, Note_on_c, 10, 71, 0
16, 136320, Control_c, 10, 11, 127
16, 136800, Note_on_c, 10, 71, 44
16, 137264, Note_on_c, 10, 71, 0
16, 137280, Note_on_c, 10, 72, 44
16, 138239, Note_on_c, 10, 72, 0
16, 138240, Note_on_c, 10, 72, 44
16, 139199, Note_on_c, 10, 72, 0
16, 139200, Note_on_c, 10, 72, 48
16, 140159, Note_on_c, 10, 72, 0
16, 140160, Note_on_c, 10, 72, 48
16, 141584, Note_on_c, 10, 72, 0
16, 141600, Note_on_c, 10, 72, 48
16, 142079, Note_on_c, 10, 72, 0
16, 142080, Note_on_c, 10, 74, 48
16, 143024, Note_on_c, 10, 74, 0
16, 143040, Note_on_c, 10, 72, 48
16, 143519, Note_on_c, 10, 72, 0
16, 143520, Note_on_c, 10, 67, 48
16, 143999, Note_on_c, 10, 67, 0
16, 144000, Note_on_c, 10, 69, 48
16, 144479, Note_on_c, 10, 69, 0
16, 144480, Note_on_c, 10, 67, 48
16, 144959, Note_on_c, 10, 67, 0
16, 144960, Note_on_c, 10, 65, 48
16, 145439, Note_on_c, 10, 65, 0
16, 145440, Note_on_c, 10, 64, 48
16, 145919, Note_on_c, 10, 64, 0
16, 145920, Note_on_c, 10, 62, 48
16, 146399, Note_on_c, 10, 62, 0
16, 146400, Note_on_c, 10, 60, 48
16, 146864, Note_on_c, 10, 60, 0
16, 146880, Note_on_c, 10, 59, 48
16, 148784, Note_on_c, 10, 59, 0
16, 148784, End_track
17, 0, Start_track
17, 0, Title_t, "Violin II"
17, 0, MIDI_port, 0
17, 0, Program_c, 11, 48
17, 0, Control_c, 11, 7, 96
17, 0, Control_c, 11, 10, 24
17, 0, Control_c, 11, 11, 127
17, 2040, Note_on_c, 11, 68, 44
17, 2129, Note_on_c, 11, 68, 0
17, 2160, Note_on_c, 11, 70, 44
17, 2249, Note_on_c, 11, 70, 0
17, 2280, Note_on_c, 11, 68, 44
17, 2369, Note_on_c, 11, 68, 0
17, 2400, Note_on_c, 11, 66, 44
17, 2489, Note_on_c, 11, 66, 0
17, 2520, Note_on_c, 11, 65, 44
17, 2609, Note_on_c, 11, 65, 0
17, 2640, Note_on_c, 11, 63, 44
17, 2729, Note_on_c, 11, 63, 0
17, 2760, Note_on_c, 11, 61, 44
17, 2849, Note_on_c, 11, 61, 0
17, 2880, Note_on_c, 11, 60, 44
17, 2969, Note_on_c, 11, 60, 0
17, 3000, Note_on_c, 11, 61, 44
17, 3089, Note_on_c, 11, 61, 0
17, 3120, Note_on_c, 11, 63, 44
17, 3209, Note_on_c, 11, 63, 0
17, 3240, Note_on_c, 11, 65, 44
17, 3329, Note_on_c, 11, 65, 0
17, 3360, Note_on_c, 11, 66, 44
17, 3449, Note_on_c, 11, 66, 0
17, 3480, Note_on_c, 11, 68, 44
17, 3569, Note_on_c, 11, 68, 0
17, 3600, Note_on_c, 11, 66, 44
17, 3689, Note_on_c, 11, 66, 0
17, 3720, Note_on_c, 11, 65, 44
17, 3809, Note_on_c, 11, 65, 0
17, 3840, Note_on_c, 11, 63, 44
17, 3929, Note_on_c, 11, 63, 0
17, 3960, Note_on_c, 11, 65, 44
17, 4049, Note_on_c, 11, 65, 0
17, 4080, Note_on_c, 11, 63, 44
17, 4169, Note_on_c, 11, 63, 0
17, 4200, Note_on_c, 11, 61, 44
17, 4289, Note_on_c, 11, 61, 0
17, 4320, Note_on_c, 11, 60, 44
17, 4409, Note_on_c, 11, 60, 0
17, 4440, Note_on_c, 11, 63, 44
17, 4529, Note_on_c, 11, 63, 0
17, 4560, Note_on_c, 11, 61, 44
17, 4649, Note_on_c, 11, 61, 0
17, 4680, Note_on_c, 11, 68, 44
17, 4769, Note_on_c, 11, 68, 0
17, 4800, Note_on_c, 11, 63, 44
17, 4889, Note_on_c, 11, 63, 0
17, 4920, Note_on_c, 11, 65, 44
17, 5009, Note_on_c, 11, 65, 0
17, 5040, Note_on_c, 11, 63, 44
17, 5129, Note_on_c, 11, 63, 0
17, 5160, Note_on_c, 11, 61, 44
17, 5249, Note_on_c, 11, 61, 0
17, 5280, Note_on_c, 11, 60, 44
17, 5369, Note_on_c, 11, 60, 0
17, 5400, Note_on_c, 11, 63, 44
17, 5489, Note_on_c, 11, 63, 0
17, 5520, Note_on_c, 11, 61, 44
17, 5609, Note_on_c, 11, 61, 0
17, 5640, Note_on_c, 11, 68, 44
17, 5729, Note_on_c, 11, 68, 0
17, 5760, Note_on_c, 11, 62, 44
17, 5849, Note_on_c, 11, 62, 0
17, 5880, Note_on_c, 11, 68, 44
17, 5969, Note_on_c, 11, 68, 0
17, 6000, Note_on_c, 11, 71, 44
17, 6089, Note_on_c, 11, 71, 0
17, 6120, Note_on_c, 11, 70, 44
17, 6209, Note_on_c, 11, 70, 0
17, 6240, Note_on_c, 11, 68, 44
17, 6329, Note_on_c, 11, 68, 0
17, 6360, Note_on_c, 11, 66, 44
17, 6449, Note_on_c, 11, 66, 0
17, 6480, Note_on_c, 11, 65, 44
17, 6569, Note_on_c, 11, 65, 0
17, 6600, Note_on_c, 11, 63, 44
17, 6689, Note_on_c, 11, 63, 0
17, 6720, Note_on_c, 11, 62, 44
17, 6944, Note_on_c, 11, 62, 0
17, 6960, Note_on_c, 11, 62, 44
17, 7049, Note_on_c, 11, 62, 0
17, 7080, Note_on_c, 11, 63, 44
17, 7169, Note_on_c, 11, 63, 0
17, 7200, Note_on_c, 11, 65, 44
17, 7289, Note_on_c, 11, 65, 0
17, 7320, Note_on_c, 11, 66, 44
17, 7409, Note_on_c, 11, 66, 0
17, 7440, Note_on_c, 11, 68, 44
17, 7529, Note_on_c, 11, 68, 0
17, 7560, Note_on_c, 11, 70, 44
17, 7649, Note_on_c, 11, 70, 0
17, 7680, Note_on_c, 11, 71, 44
17, 7919, Note_on_c, 11, 71, 0
17, 11640, Note_on_c, 11, 70, 52
17, 11729, Note_on_c, 11, 70, 0
17, 11760, Note_on_c, 11, 71, 52
17, 11849, Note_on_c, 11, 71, 0
17, 11880, Note_on_c, 11, 70, 52
17, 11969, Note_on_c, 11, 70, 0
17, 12000, Note_on_c, 11, 68, 52
17, 12089, Note_on_c, 11, 68, 0
17, 12120, Note_on_c, 11, 66, 52
17, 12209, Note_on_c, 11, 66, 0
17, 12240, Note_on_c, 11, 65, 52
17, 12329, Note_on_c, 11, 65, 0
17, 12360, Note_on_c, 11, 63, 52
17, 12449, Note_on_c, 11, 63, 0
17, 12480, Note_on_c, 11, 62, 52
17, 12569, Note_on_c, 11, 62, 0
17, 12600, Note_on_c, 11, 63, 52
17, 12689, Note_on_c, 11, 63, 0
17, 12720, Note_on_c, 11, 65, 52
17, 12809, Note_on_c, 11, 65, 0
17, 12840, Note_on_c, 11, 66, 52
17, 12929, Note_on_c, 11, 66, 0
17, 12960, Note_on_c, 11, 68, 52
17, 13049, Note_on_c, 11, 68, 0
17, 13080, Note_on_c, 11, 70, 52
17, 13169, Note_on_c, 11, 70, 0
17, 13200, Note_on_c, 11, 68, 52
17, 13289, Note_on_c, 11, 68, 0
17, 13320, Note_on_c, 11, 66, 52
17, 13409, Note_on_c, 11, 66, 0
17, 13440, Note_on_c, 11, 65, 52
17, 13529, Note_on_c, 11, 65, 0
17, 13560, Note_on_c, 11, 66, 52
17, 13649, Note_on_c, 11, 66, 0
17, 13680, Note_on_c, 11, 65, 52
17, 13769, Note_on_c, 11, 65, 0
17, 13800, Note_on_c, 11, 63, 52
17, 13889, Note_on_c, 11, 63, 0
17, 13920, Note_on_c, 11, 62, 52
17, 14009, Note_on_c, 11, 62, 0
17, 14040, Note_on_c, 11, 65, 52
17, 14129, Note_on_c, 11, 65, 0
17, 14160, Note_on_c, 11, 63, 52
17, 14249, Note_on_c, 11, 63, 0
17, 14280, Note_on_c, 11, 70, 52
17, 14369, Note_on_c, 11, 70, 0
17, 14400, Note_on_c, 11, 65, 52
17, 14489, Note_on_c, 11, 65, 0
17, 14520, Note_on_c, 11, 66, 52
17, 14609, Note_on_c, 11, 66, 0
17, 14640, Note_on_c, 11, 65, 52
17, 14729, Note_on_c, 11, 65, 0
17, 14760, Note_on_c, 11, 63, 52
17, 14849, Note_on_c, 11, 63, 0
17, 14880, Note_on_c, 11, 62, 52
17, 14969, Note_on_c, 11, 62, 0
17, 15000, Note_on_c, 11, 65, 52
17, 15089, Note_on_c, 11, 65, 0
17, 15120, Note_on_c, 11, 63, 52
17, 15209, Note_on_c, 11, 63, 0
17, 15240, Note_on_c, 11, 70, 52
17, 15329, Note_on_c, 11, 70, 0
17, 15360, Note_on_c, 11, 64, 52
17, 15449, Note_on_c, 11, 64, 0
17, 15480, Note_on_c, 11, 70, 52
17, 15569, Note_on_c, 11, 70, 0
17, 15600, Note_on_c, 11, 73, 52
17, 15689, Note_on_c, 11, 73, 0
17, 15720, Note_on_c, 11, 72, 52
17, 15809, Note_on_c, 11, 72, 0
17, 15840, Note_on_c, 11, 70, 52
17, 15929, Note_on_c, 11, 70, 0
17, 15960, Note_on_c, 11, 68, 52
17, 16049, Note_on_c, 11, 68, 0
17, 16080, Note_on_c, 11, 67, 52
17, 16169, Note_on_c, 11, 67, 0
17, 16200, Note_on_c, 11, 65, 52
17, 16289, Note_on_c, 11, 65, 0
17, 16320, Note_on_c, 11, 64, 52
17, 16544, Note_on_c, 11, 64, 0
17, 16560, Note_on_c, 11, 64, 52
17, 16649, Note_on_c, 11, 64, 0
17, 16680, Note_on_c, 11, 65, 52
17, 16769, Note_on_c, 11, 65, 0
17, 16800, Note_on_c, 11, 67, 52
17, 16889, Note_on_c, 11, 67, 0
17, 16920, Note_on_c, 11, 68, 52
17, 17009, Note_on_c, 11, 68, 0
17, 17040, Note_on_c, 11, 70, 52
17, 17129, Note_on_c, 11, 70, 0
17, 17160, Note_on_c, 11, 72, 52
17, 17249, Note_on_c, 11, 72, 0
17, 17280, Note_on_c, 11, 73, 52
17, 17519, Note_on_c, 11, 73, 0
17, 19200, Note_on_c, 11, 65, 84
17, 19251, Note_on_c, 11, 65, 0
17, 19260, Note_on_c, 11, 72, 84
17, 19260, Note_on_c, 11, 80, 84
17, 19311, Note_on_c, 11, 72, 0
17, 19311, Note_on_c, 11, 80, 0
17, 19320, Note_on_c, 11, 72, 84
17, 19320, Note_on_c, 11, 80, 84
17, 19371, Note_on_c, 11, 72, 0
17, 19371, Note_on_c, 11, 80, 0
17, 19380, Note_on_c, 11, 72, 84
17, 19380, Note_on_c, 11, 80, 84
17, 19431, Note_on_c, 11, 72, 0
17, 19431, Note_on_c, 11, 80, 0
17, 19440, Note_on_c, 11, 72, 84
17, 19440, Note_on_c, 11, 80, 84
17, 19491, Note_on_c, 11, 72, 0
17, 19491, Note_on_c, 11, 80, 0
17, 19500, Note_on_c, 11, 80, 84
17, 19500, Note_on_c, 11, 72, 84
17, 19551, Note_on_c, 11, 80, 0
17, 19551, Note_on_c, 11, 72, 0
17, 19560, Note_on_c, 11, 80, 84
17, 19560, Note_on_c, 11, 72, 84
17, 19611, Note_on_c, 11, 80, 0
17, 19611, Note_on_c, 11, 72, 0
17, 19620, Note_on_c, 11, 72, 84
17, 19620, Note_on_c, 11, 80, 84
17, 19671, Note_on_c, 11, 72, 0
17, 19671, Note_on_c, 11, 80, 0
17, 19680, Note_on_c, 11, 80, 84
17, 19680, Note_on_c, 11, 72, 84
17, 19731, Note_on_c, 11, 80, 0
17, 19731, Note_on_c, 11, 72, 0
17, 19740, Note_on_c, 11, 72, 84
17, 19740, Note_on_c, 11, 80, 84
17, 19791, Note_on_c, 11, 72, 0
17, 19791, Note_on_c, 11, 80, 0
17, 19800, Note_on_c, 11, 80, 84
17, 19800, Note_on_c, 11, 72, 84
17, 19851, Note_on_c, 11, 80, 0
17, 19851, Note_on_c, 11, 72, 0
17, 19860, Note_on_c, 11, 80, 84
17, 19860, Note_on_c, 11, 72, 84
17, 19911, Note_on_c, 11, 80, 0
17, 19911, Note_on_c, 11, 72, 0
17, 19920, Note_on_c, 11, 72, 84
17, 19920, Note_on_c, 11, 80, 84
17, 19971, Note_on_c, 11, 72, 0
17, 19971, Note_on_c, 11, 80, 0
17, 19980, Note_on_c, 11, 80, 84
17, 19980, Note_on_c, 11, 72, 84
17, 20031, Note_on_c, 11, 80, 0
17, 20031, Note_on_c, 11, 72, 0
17, 20040, Note_on_c, 11, 72, 84
17, 20040, Note_on_c, 11, 80, 84
17, 20091, Note_on_c, 11, 72, 0
17, 20091, Note_on_c, 11, 80, 0
17, 20100, Note_on_c, 11, 72, 84
17, 20100, Note_on_c, 11, 80, 84
17, 20151, Note_on_c, 11, 72, 0
17, 20151, Note_on_c, 11, 80, 0
17, 20160, Note_on_c, 11, 72, 84
17, 20160, Note_on_c, 11, 80, 84
17, 20211, Note_on_c, 11, 72, 0
17, 20211, Note_on_c, 11, 80, 0
17, 20220, Note_on_c, 11, 72, 84
17, 20220, Note_on_c, 11, 80, 84
17, 20271, Note_on_c, 11, 72, 0
17, 20271, Note_on_c, 11, 80, 0
17, 20280, Note_on_c, 11, 72, 84
17, 20280, Note_on_c, 11, 80, 84
17, 20331, Note_on_c, 11, 72, 0
17, 20331, Note_on_c, 11, 80, 0
17, 20340, Note_on_c, 11, 80, 84
17, 20340, Note_on_c, 11, 72, 84
17, 20391, Note_on_c, 11, 80, 0
17, 20391, Note_on_c, 11, 72, 0
17, 20400, Note_on_c, 11, 80, 84
17, 20400, Note_on_c, 11, 72, 84
17, 20451, Note_on_c, 11, 80, 0
17, 20451, Note_on_c, 11, 72, 0
17, 20460, Note_on_c, 11, 80, 84
17, 20460, Note_on_c, 11, 72, 84
17, 20511, Note_on_c, 11, 80, 0
17, 20511, Note_on_c, 11, 72, 0
17, 20520, Note_on_c, 11, 80, 84
17, 20520, Note_on_c, 11, 72, 84
17, 20571, Note_on_c, 11, 80, 0
17, 20571, Note_on_c, 11, 72, 0
17, 20580, Note_on_c, 11, 72, 84
17, 20580, Note_on_c, 11, 80, 84
17, 20631, Note_on_c, 11, 72, 0
17, 20631, Note_on_c, 11, 80, 0
17, 20640, Note_on_c, 11, 72, 84
17, 20640, Note_on_c, 11, 80, 84
17, 20691, Note_on_c, 11, 72, 0
17, 20691, Note_on_c, 11, 80, 0
17, 20700, Note_on_c, 11, 72, 84
17, 20700, Note_on_c, 11, 80, 84
17, 20751, Note_on_c, 11, 72, 0
17, 20751, Note_on_c, 11, 80, 0
17, 20760, Note_on_c, 11, 72, 84
17, 20760, Note_on_c, 11, 80, 84
17, 20811, Note_on_c, 11, 72, 0
17, 20811, Note_on_c, 11, 80, 0
17, 20820, Note_on_c, 11, 72, 84
17, 20820, Note_on_c, 11, 80, 84
17, 20871, Note_on_c, 11, 72, 0
17, 20871, Note_on_c, 11, 80, 0
17, 20880, Note_on_c, 11, 72, 84
17, 20880, Note_on_c, 11, 80, 84
17, 20931, Note_on_c, 11, 72, 0
17, 20931, Note_on_c, 11, 80, 0
17, 20940, Note_on_c, 11, 72, 84
17, 20940, Note_on_c, 11, 80, 84
17, 20991, Note_on_c, 11, 72, 0
17, 20991, Note_on_c, 11, 80, 0
17, 21000, Note_on_c, 11, 80, 84
17, 21000, Note_on_c, 11, 72, 84
17, 21051, Note_on_c, 11, 80, 0
17, 21051, Note_on_c, 11, 72, 0
17, 21060, Note_on_c, 11, 80, 84
17, 21060, Note_on_c, 11, 72, 84
17, 21111, Note_on_c, 11, 80, 0
17, 21111, Note_on_c, 11, 72, 0
17, 21120, Note_on_c, 11, 72, 84
17, 21120, Note_on_c, 11, 80, 84
17, 21171, Note_on_c, 11, 72, 0
17, 21171, Note_on_c, 11, 80, 0
17, 21180, Note_on_c, 11, 72, 84
17, 21180, Note_on_c, 11, 80, 84
17, 21231, Note_on_c, 11, 72, 0
17, 21231, Note_on_c, 11, 80, 0
17, 21240, Note_on_c, 11, 72, 84
17, 21240, Note_on_c, 11, 80, 84
17, 21291, Note_on_c, 11, 72, 0
17, 21291, Note_on_c, 11, 80, 0
17, 21300, Note_on_c, 11, 72, 84
17, 21300, Note_on_c, 11, 80, 84
17, 21351, Note_on_c, 11, 72, 0
17, 21351, Note_on_c, 11, 80, 0
17, 21360, Note_on_c, 11, 72, 84
17, 21360, Note_on_c, 11, 80, 84
17, 21411, Note_on_c, 11, 72, 0
17, 21411, Note_on_c, 11, 80, 0
17, 21420, Note_on_c, 11, 72, 84
17, 21420, Note_on_c, 11, 80, 84
17, 21471, Note_on_c, 11, 72, 0
17, 21471, Note_on_c, 11, 80, 0
17, 21480, Note_on_c, 11, 72, 84
17, 21480, Note_on_c, 11, 80, 84
17, 21531, Note_on_c, 11, 72, 0
17, 21531, Note_on_c, 11, 80, 0
17, 21540, Note_on_c, 11, 72, 84
17, 21540, Note_on_c, 11, 80, 84
17, 21591, Note_on_c, 11, 72, 0
17, 21591, Note_on_c, 11, 80, 0
17, 21600, Note_on_c, 11, 72, 84
17, 21600, Note_on_c, 11, 80, 84
17, 21651, Note_on_c, 11, 72, 0
17, 21651, Note_on_c, 11, 80, 0
17, 21660, Note_on_c, 11, 72, 84
17, 21660, Note_on_c, 11, 80, 84
17, 21711, Note_on_c, 11, 72, 0
17, 21711, Note_on_c, 11, 80, 0
17, 21720, Note_on_c, 11, 72, 84
17, 21720, Note_on_c, 11, 80, 84
17, 21771, Note_on_c, 11, 72, 0
17, 21771, Note_on_c, 11, 80, 0
17, 21780, Note_on_c, 11, 80, 84
17, 21780, Note_on_c, 11, 72, 84
17, 21831, Note_on_c, 11, 80, 0
17, 21831, Note_on_c, 11, 72, 0
17, 21840, Note_on_c, 11, 80, 84
17, 21840, Note_on_c, 11, 72, 84
17, 21891, Note_on_c, 11, 80, 0
17, 21891, Note_on_c, 11, 72, 0
17, 21900, Note_on_c, 11, 80, 84
17, 21900, Note_on_c, 11, 72, 84
17, 21951, Note_on_c, 11, 80, 0
17, 21951, Note_on_c, 11, 72, 0
17, 21960, Note_on_c, 11, 80, 84
17, 21960, Note_on_c, 11, 72, 84
17, 22011, Note_on_c, 11, 80, 0
17, 22011, Note_on_c, 11, 72, 0
17, 22020, Note_on_c, 11, 80, 84
17, 22020, Note_on_c, 11, 72, 84
17, 22071, Note_on_c, 11, 80, 0
17, 22071, Note_on_c, 11, 72, 0
17, 22080, Note_on_c, 11, 72, 84
17, 22080, Note_on_c, 11, 80, 84
17, 22131, Note_on_c, 11, 72, 0
17, 22131, Note_on_c, 11, 80, 0
17, 22140, Note_on_c, 11, 68, 84
17, 22191, Note_on_c, 11, 68, 0
17, 22200, Note_on_c, 11, 68, 84
17, 22251, Note_on_c, 11, 68, 0
17, 22260, Note_on_c, 11, 68, 84
17, 22311, Note_on_c, 11, 68, 0
17, 22320, Note_on_c, 11, 68, 84
17, 22371, Note_on_c, 11, 68, 0
17, 22380, Note_on_c, 11, 68, 84
17, 22431, Note_on_c, 11, 68, 0
17, 22440, Note_on_c, 11, 68, 84
17, 22491, Note_on_c, 11, 68, 0
17, 22500, Note_on_c, 11, 68, 84
17, 22551, Note_on_c, 11, 68, 0
17, 22560, Note_on_c, 11, 68, 84
17, 22611, Note_on_c, 11, 68, 0
17, 22620, Note_on_c, 11, 68, 84
17, 22671, Note_on_c, 11, 68, 0
17, 22680, Note_on_c, 11, 68, 84
17, 22731, Note_on_c, 11, 68, 0
17, 22740, Note_on_c, 11, 68, 84
17, 22791, Note_on_c, 11, 68, 0
17, 22800, Note_on_c, 11, 68, 84
17, 22851, Note_on_c, 11, 68, 0
17, 22860, Note_on_c, 11, 68, 84
17, 22911, Note_on_c, 11, 68, 0
17, 22920, Note_on_c, 11, 68, 84
17, 22971, Note_on_c, 11, 68, 0
17, 22980, Note_on_c, 11, 68, 84
17, 23031, Note_on_c, 11, 68, 0
17, 23040, Note_on_c, 11, 76, 84
17, 23040, Note_on_c, 11, 64, 84
17, 23091, Note_on_c, 11, 76, 0
17, 23091, Note_on_c, 11, 64, 0
17, 23100, Note_on_c, 11, 76, 84
17, 23100, Note_on_c, 11, 64, 84
17, 23151, Note_on_c, 11, 76, 0
17, 23151, Note_on_c, 11, 64, 0
17, 23160, Note_on_c, 11, 76, 84
17, 23160, Note_on_c, 11, 64, 84
17, 23211, Note_on_c, 11, 76, 0
17, 23211, Note_on_c, 11, 64, 0
17, 23220, Note_on_c, 11, 64, 84
17, 23220, Note_on_c, 11, 76, 84
17, 23271, Note_on_c, 11, 64, 0
17, 23271, Note_on_c, 11, 76, 0
17, 23280, Note_on_c, 11, 76, 84
17, 23280, Note_on_c, 11, 64, 84
17, 23331, Note_on_c, 11, 76, 0
17, 23331, Note_on_c, 11, 64, 0
17, 23340, Note_on_c, 11, 64, 84
17, 23340, Note_on_c, 11, 76, 84
17, 23391, Note_on_c, 11, 64, 0
17, 23391, Note_on_c, 11, 76, 0
17, 23400, Note_on_c, 11, 76, 84
17, 23400, Note_on_c, 11, 64, 84
17, 23451, Note_on_c, 11, 76, 0
17, 23451, Note_on_c, 11, 64, 0
17, 23460, Note_on_c, 11, 76, 84
17, 23460, Note_on_c, 11, 64, 84
17, 23511, Note_on_c, 11, 76, 0
17, 23511, Note_on_c, 11, 64, 0
17, 23520, Note_on_c, 11, 76, 84
17, 23520, Note_on_c, 11, 64, 84
17, 23571, Note_on_c, 11, 76, 0
17, 23571, Note_on_c, 11, 64, 0
17, 23580, Note_on_c, 11, 76, 84
17, 23580, Note_on_c, 11, 64, 84
17, 23631, Note_on_c, 11, 76, 0
17, 23631, Note_on_c, 11, 64, 0
17, 23640, Note_on_c, 11, 76, 84
17, 23640, Note_on_c, 11, 64, 84
17, 23691, Note_on_c, 11, 76, 0
17, 23691, Note_on_c, 11, 64, 0
17, 23700, Note_on_c, 11, 64, 84
17, 23700, Note_on_c, 11, 76, 84
17, 23751, Note_on_c, 11, 64, 0
17, 23751, Note_on_c, 11, 76, 0
17, 23760, Note_on_c, 11, 64, 84
17, 23760, Note_on_c, 11, 76, 84
17, 23811, Note_on_c, 11, 64, 0
17, 23811, Note_on_c, 11, 76, 0
17, 23820, Note_on_c, 11, 76, 84
17, 23820, Note_on_c, 11, 64, 84
17, 23871, Note_on_c, 11, 76, 0
17, 23871, Note_on_c, 11, 64, 0
17, 23880, Note_on_c, 11, 76, 84
17, 23880, Note_on_c, 11, 64, 84
17, 23931, Note_on_c, 11, 76, 0
17, 23931, Note_on_c, 11, 64, 0
17, 23940, Note_on_c, 11, 76, 84
17, 23940, Note_on_c, 11, 64, 84
17, 23991, Note_on_c, 11, 76, 0
17, 23991, Note_on_c, 11, 64, 0
17, 24000, Note_on_c, 11, 76, 84
17, 24051, Note_on_c, 11, 76, 0
17, 24060, Note_on_c, 11, 85, 84
17, 24060, Note_on_c, 11, 76, 84
17, 24111, Note_on_c, 11, 85, 0
17, 24111, Note_on_c, 11, 76, 0
17, 24120, Note_on_c, 11, 85, 84
17, 24120, Note_on_c, 11, 76, 84
17, 24171, Note_on_c, 11, 85, 0
17, 24171, Note_on_c, 11, 76, 0
17, 24180, Note_on_c, 11, 85, 84
17, 24180, Note_on_c, 11, 76, 84
17, 24231, Note_on_c, 11, 85, 0
17, 24231, Note_on_c, 11, 76, 0
17, 24240, Note_on_c, 11, 85, 84
17, 24240, Note_on_c, 11, 76, 84
17, 24291, Note_on_c, 11, 85, 0
17, 24291, Note_on_c, 11, 76, 0
17, 24300, Note_on_c, 11, 85, 84
17, 24300, Note_on_c, 11, 76, 84
17, 24351, Note_on_c, 11, 85, 0
17, 24351, Note_on_c, 11, 76, 0
17, 24360, Note_on_c, 11, 85, 84
17, 24360, Note_on_c, 11, 76, 84
17, 24411, Note_on_c, 11, 85, 0
17, 24411, Note_on_c, 11, 76, 0
17, 24420, Note_on_c, 11, 85, 84
17, 24420, Note_on_c, 11, 76, 84
17, 24471, Note_on_c, 11, 85, 0
17, 24471, Note_on_c, 11, 76, 0
17, 24480, Note_on_c, 11, 76, 84
17, 24480, Note_on_c, 11, 85, 84
17, 24531, Note_on_c, 11, 76, 0
17, 24531, Note_on_c, 11, 85, 0
17, 24540, Note_on_c, 11, 85, 84
17, 24540, Note_on_c, 11, 76, 84
17, 24591, Note_on_c, 11, 85, 0
17, 24591, Note_on_c, 11, 76, 0
17, 24600, Note_on_c, 11, 85, 84
17, 24600, Note_on_c, 11, 76, 84
17, 24651, Note_on_c, 11, 85, 0
17, 24651, Note_on_c, 11, 76, 0
17, 24660, Note_on_c, 11, 76, 84
17, 24660, Note_on_c, 11, 85, 84
17, 24711, Note_on_c, 11, 76, 0
17, 24711, Note_on_c, 11, 85, 0
17, 24720, Note_on_c, 11, 85, 84
17, 24720, Note_on_c, 11, 76, 84
17, 24771, Note_on_c, 11, 85, 0
17, 24771, Note_on_c, 11, 76, 0
17, 24780, Note_on_c, 11, 85, 84
17, 24780, Note_on_c, 11, 76, 84
17, 24831, Note_on_c, 11, 85, 0
17, 24831, Note_on_c, 11, 76, 0
17, 24840, Note_on_c, 11, 76, 84
17, 24840, Note_on_c, 11, 85, 84
17, 24891, Note_on_c, 11, 76, 0
17, 24891, Note_on_c, 11, 85, 0
17, 24900, Note_on_c, 11, 76, 84
17, 24900, Note_on_c, 11, 85, 84
17, 24951, Note_on_c, 11, 76, 0
17, 24951, Note_on_c, 11, 85, 0
17, 24960, Note_on_c, 11, 85, 84
17, 24960, Note_on_c, 11, 76, 84
17, 25011, Note_on_c, 11, 85, 0
17, 25011, Note_on_c, 11, 76, 0
17, 25020, Note_on_c, 11, 85, 84
17, 25020, Note_on_c, 11, 76, 84
17, 25071, Note_on_c, 11, 85, 0
17, 25071, Note_on_c, 11, 76, 0
17, 25080, Note_on_c, 11, 85, 84
17, 25080, Note_on_c, 11, 76, 84
17, 25131, Note_on_c, 11, 85, 0
17, 25131, Note_on_c, 11, 76, 0
17, 25140, Note_on_c, 11, 85, 84
17, 25140, Note_on_c, 11, 76, 84
17, 25191, Note_on_c, 11, 85, 0
17, 25191, Note_on_c, 11, 76, 0
17, 25200, Note_on_c, 11, 76, 84
17, 25200, Note_on_c, 11, 85, 84
17, 25251, Note_on_c, 11, 76, 0
17, 25251, Note_on_c, 11, 85, 0
17, 25260, Note_on_c, 11, 85, 84
17, 25260, Note_on_c, 11, 76, 84
17, 25311, Note_on_c, 11, 85, 0
17, 25311, Note_on_c, 11, 76, 0
17, 25320, Note_on_c, 11, 76, 84
17, 25320, Note_on_c, 11, 85, 84
17, 25371, Note_on_c, 11, 76, 0
17, 25371, Note_on_c, 11, 85, 0
17, 25380, Note_on_c, 11, 76, 84
17, 25380, Note_on_c, 11, 85, 84
17, 25431, Note_on_c, 11, 76, 0
17, 25431, Note_on_c, 11, 85, 0
17, 25440, Note_on_c, 11, 85, 84
17, 25440, Note_on_c, 11, 76, 84
17, 25491, Note_on_c, 11, 85, 0
17, 25491, Note_on_c, 11, 76, 0
17, 25500, Note_on_c, 11, 85, 84
17, 25500, Note_on_c, 11, 76, 84
17, 25551, Note_on_c, 11, 85, 0
17, 25551, Note_on_c, 11, 76, 0
17, 25560, Note_on_c, 11, 76, 84
17, 25560, Note_on_c, 11, 85, 84
17, 25611, Note_on_c, 11, 76, 0
17, 25611, Note_on_c, 11, 85, 0
17, 25620, Note_on_c, 11, 76, 84
17, 25620, Note_on_c, 11, 85, 84
17, 25671, Note_on_c, 11, 76, 0
17, 25671, Note_on_c, 11, 85, 0
17, 25680, Note_on_c, 11, 85, 84
17, 25680, Note_on_c, 11, 76, 84
17, 25731, Note_on_c, 11, 85, 0
17, 25731, Note_on_c, 11, 76, 0
17, 25740, Note_on_c, 11, 76, 84
17, 25740, Note_on_c, 11, 85, 84
17, 25791, Note_on_c, 11, 76, 0
17, 25791, Note_on_c, 11, 85, 0
17, 25800, Note_on_c, 11, 76, 84
17, 25800, Note_on_c, 11, 85, 84
17, 25851, Note_on_c, 11, 76, 0
17, 25851, Note_on_c, 11, 85, 0
17, 25860, Note_on_c, 11, 85, 84
17, 25860, Note_on_c, 11, 76, 84
17, 25911, Note_on_c, 11, 85, 0
17, 25911, Note_on_c, 11, 76, 0
17, 25920, Note_on_c, 11, 76, 84
17, 25920, Note_on_c, 11, 85, 84
17, 25971, Note_on_c, 11, 76, 0
17, 25971, Note_on_c, 11, 85, 0
17, 25980, Note_on_c, 11, 76, 84
17, 25980, Note_on_c, 11, 85, 84
17, 26031, Note_on_c, 11, 76, 0
17, 26031, Note_on_c, 11, 85, 0
17, 26040, Note_on_c, 11, 76, 84
17, 26040, Note_on_c, 11, 85, 84
17, 26091, Note_on_c, 11, 76, 0
17, 26091, Note_on_c, 11, 85, 0
17, 26100, Note_on_c, 11, 76, 84
17, 26100, Note_on_c, 11, 85, 84
17, 26151, Note_on_c, 11, 76, 0
17, 26151, Note_on_c, 11, 85, 0
17, 26160, Note_on_c, 11, 76, 84
17, 26160, Note_on_c, 11, 85, 84
17, 26211, Note_on_c, 11, 76, 0
17, 26211, Note_on_c, 11, 85, 0
17, 26220, Note_on_c, 11, 85, 84
17, 26220, Note_on_c, 11, 76, 84
17, 26271, Note_on_c, 11, 85, 0
17, 26271, Note_on_c, 11, 76, 0
17, 26280, Note_on_c, 11, 76, 84
17, 26280, Note_on_c, 11, 85, 84
17, 26331, Note_on_c, 11, 76, 0
17, 26331, Note_on_c, 11, 85, 0
17, 26340, Note_on_c, 11, 85, 84
17, 26340, Note_on_c, 11, 76, 84
17, 26391, Note_on_c, 11, 85, 0
17, 26391, Note_on_c, 11, 76, 0
17, 26400, Note_on_c, 11, 76, 84
17, 26400, Note_on_c, 11, 85, 84
17, 26451, Note_on_c, 11, 76, 0
17, 26451, Note_on_c, 11, 85, 0
17, 26460, Note_on_c, 11, 85, 84
17, 26460, Note_on_c, 11, 76, 84
17, 26511, Note_on_c, 11, 85, 0
17, 26511, Note_on_c, 11, 76, 0
17, 26520, Note_on_c, 11, 85, 84
17, 26520, Note_on_c, 11, 76, 84
17, 26571, Note_on_c, 11, 85, 0
17, 26571, Note_on_c, 11, 76, 0
17, 26580, Note_on_c, 11, 85, 84
17, 26580, Note_on_c, 11, 76, 84
17, 26631, Note_on_c, 11, 85, 0
17, 26631, Note_on_c, 11, 76, 0
17, 26640, Note_on_c, 11, 76, 84
17, 26640, Note_on_c, 11, 85, 84
17, 26691, Note_on_c, 11, 76, 0
17, 26691, Note_on_c, 11, 85, 0
17, 26700, Note_on_c, 11, 85, 84
17, 26700, Note_on_c, 11, 76, 84
17, 26751, Note_on_c, 11, 85, 0
17, 26751, Note_on_c, 11, 76, 0
17, 26760, Note_on_c, 11, 85, 84
17, 26760, Note_on_c, 11, 76, 84
17, 26811, Note_on_c, 11, 85, 0
17, 26811, Note_on_c, 11, 76, 0
17, 26820, Note_on_c, 11, 76, 84
17, 26820, Note_on_c, 11, 85, 84
17, 26871, Note_on_c, 11, 76, 0
17, 26871, Note_on_c, 11, 85, 0
17, 26880, Note_on_c, 11, 75, 84
17, 26880, Note_on_c, 11, 84, 84
17, 26931, Note_on_c, 11, 75, 0
17, 26931, Note_on_c, 11, 84, 0
17, 26940, Note_on_c, 11, 84, 84
17, 26940, Note_on_c, 11, 75, 84
17, 26991, Note_on_c, 11, 84, 0
17, 26991, Note_on_c, 11, 75, 0
17, 27000, Note_on_c, 11, 75, 84
17, 27000, Note_on_c, 11, 84, 84
17, 27051, Note_on_c, 11, 75, 0
17, 27051, Note_on_c, 11, 84, 0
17, 27060, Note_on_c, 11, 75, 84
17, 27060, Note_on_c, 11, 84, 84
17, 27111, Note_on_c, 11, 75, 0
17, 27111, Note_on_c, 11, 84, 0
17, 27120, Note_on_c, 11, 75, 84
17, 27120, Note_on_c, 11, 84, 84
17, 27171, Note_on_c, 11, 75, 0
17, 27171, Note_on_c, 11, 84, 0
17, 27180, Note_on_c, 11, 84, 84
17, 27180, Note_on_c, 11, 75, 84
17, 27231, Note_on_c, 11, 84, 0
17, 27231, Note_on_c, 11, 75, 0
17, 27240, Note_on_c, 11, 75, 84
17, 27240, Note_on_c, 11, 84, 84
17, 27291, Note_on_c, 11, 75, 0
17, 27291, Note_on_c, 11, 84, 0
17, 27300, Note_on_c, 11, 84, 84
17, 27300, Note_on_c, 11, 75, 84
17, 27351, Note_on_c, 11, 84, 0
17, 27351, Note_on_c, 11, 75, 0
17, 27360, Note_on_c, 11, 75, 84
17, 27360, Note_on_c, 11, 84, 84
17, 27411, Note_on_c, 11, 75, 0
17, 27411, Note_on_c, 11, 84, 0
17, 27420, Note_on_c, 11, 87, 84
17, 27420, Note_on_c, 11, 75, 84
17, 27471, Note_on_c, 11, 87, 0
17, 27471, Note_on_c, 11, 75, 0
17, 27480, Note_on_c, 11, 75, 84
17, 27480, Note_on_c, 11, 87, 84
17, 27531, Note_on_c, 11, 75, 0
17, 27531, Note_on_c, 11, 87, 0
17, 27540, Note_on_c, 11, 75, 84
17, 27540, Note_on_c, 11, 87, 84
17, 27591, Note_on_c, 11, 75, 0
17, 27591, Note_on_c, 11, 87, 0
17, 27600, Note_on_c, 11, 75, 84
17, 27600, Note_on_c, 11, 87, 84
17, 27651, Note_on_c, 11, 75, 0
17, 27651, Note_on_c, 11, 87, 0
17, 27660, Note_on_c, 11, 87, 84
17, 27660, Note_on_c, 11, 75, 84
17, 27711, Note_on_c, 11, 87, 0
17, 27711, Note_on_c, 11, 75, 0
17, 27720, Note_on_c, 11, 87, 84
17, 27720, Note_on_c, 11, 75, 84
17, 27771, Note_on_c, 11, 87, 0
17, 27771, Note_on_c, 11, 75, 0
17, 27780, Note_on_c, 11, 87, 84
17, 27780, Note_on_c, 11, 75, 84
17, 27831, Note_on_c, 11, 87, 0
17, 27831, Note_on_c, 11, 75, 0
17, 27840, Note_on_c, 11, 75, 84
17, 27840, Note_on_c, 11, 87, 84
17, 27891, Note_on_c, 11, 75, 0
17, 27891, Note_on_c, 11, 87, 0
17, 27900, Note_on_c, 11, 87, 84
17, 27900, Note_on_c, 11, 75, 84
17, 27951, Note_on_c, 11, 87, 0
17, 27951, Note_on_c, 11, 75, 0
17, 27960, Note_on_c, 11, 75, 84
17, 27960, Note_on_c, 11, 87, 84
17, 28011, Note_on_c, 11, 75, 0
17, 28011, Note_on_c, 11, 87, 0
17, 28020, Note_on_c, 11, 75, 84
17, 28020, Note_on_c, 11, 87, 84
17, 28071, Note_on_c, 11, 75, 0
17, 28071, Note_on_c, 11, 87, 0
17, 28080, Note_on_c, 11, 75, 84
17, 28080, Note_on_c, 11, 87, 84
17, 28131, Note_on_c, 11, 75, 0
17, 28131, Note_on_c, 11, 87, 0
17, 28140, Note_on_c, 11, 75, 84
17, 28140, Note_on_c, 11, 87, 84
17, 28191, Note_on_c, 11, 75, 0
17, 28191, Note_on_c, 11, 87, 0
17, 28200, Note_on_c, 11, 75, 84
17, 28200, Note_on_c, 11, 87, 84
17, 28251, Note_on_c, 11, 75, 0
17, 28251, Note_on_c, 11, 87, 0
17, 28260, Note_on_c, 11, 87, 84
17, 28260, Note_on_c, 11, 75, 84
17, 28311, Note_on_c, 11, 87, 0
17, 28311, Note_on_c, 11, 75, 0
17, 28320, Note_on_c, 11, 75, 84
17, 28320, Note_on_c, 11, 87, 84
17, 28371, Note_on_c, 11, 75, 0
17, 28371, Note_on_c, 11, 87, 0
17, 28380, Note_on_c, 11, 87, 84
17, 28380, Note_on_c, 11, 75, 84
17, 28431, Note_on_c, 11, 87, 0
17, 28431, Note_on_c, 11, 75, 0
17, 28440, Note_on_c, 11, 87, 84
17, 28440, Note_on_c, 11, 75, 84
17, 28491, Note_on_c, 11, 87, 0
17, 28491, Note_on_c, 11, 75, 0
17, 28500, Note_on_c, 11, 75, 84
17, 28500, Note_on_c, 11, 87, 84
17, 28551, Note_on_c, 11, 75, 0
17, 28551, Note_on_c, 11, 87, 0
17, 28560, Note_on_c, 11, 75, 84
17, 28560, Note_on_c, 11, 87, 84
17, 28611, Note_on_c, 11, 75, 0
17, 28611, Note_on_c, 11, 87, 0
17, 28620, Note_on_c, 11, 75, 84
17, 28620, Note_on_c, 11, 87, 84
17, 28671, Note_on_c, 11, 75, 0
17, 28671, Note_on_c, 11, 87, 0
17, 28680, Note_on_c, 11, 75, 84
17, 28680, Note_on_c, 11, 87, 84
17, 28731, Note_on_c, 11, 75, 0
17, 28731, Note_on_c, 11, 87, 0
17, 28740, Note_on_c, 11, 87, 84
17, 28740, Note_on_c, 11, 75, 84
17, 28791, Note_on_c, 11, 87, 0
17, 28791, Note_on_c, 11, 75, 0
17, 28800, Note_on_c, 11, 75, 84
17, 28800, Note_on_c, 11, 87, 84
17, 28851, Note_on_c, 11, 75, 0
17, 28851, Note_on_c, 11, 87, 0
17, 28860, Note_on_c, 11, 87, 84
17, 28860, Note_on_c, 11, 75, 84
17, 28911, Note_on_c, 11, 87, 0
17, 28911, Note_on_c, 11, 75, 0
17, 28920, Note_on_c, 11, 75, 84
17, 28920, Note_on_c, 11, 87, 84
17, 28971, Note_on_c, 11, 75, 0
17, 28971, Note_on_c, 11, 87, 0
17, 28980, Note_on_c, 11, 75, 84
17, 28980, Note_on_c, 11, 87, 84
17, 29031, Note_on_c, 11, 75, 0
17, 29031, Note_on_c, 11, 87, 0
17, 29040, Note_on_c, 11, 75, 84
17, 29040, Note_on_c, 11, 87, 84
17, 29091, Note_on_c, 11, 75, 0
17, 29091, Note_on_c, 11, 87, 0
17, 29100, Note_on_c, 11, 75, 84
17, 29100, Note_on_c, 11, 87, 84
17, 29151, Note_on_c, 11, 75, 0
17, 29151, Note_on_c, 11, 87, 0
17, 29160, Note_on_c, 11, 87, 84
17, 29160, Note_on_c, 11, 75, 84
17, 29211, Note_on_c, 11, 87, 0
17, 29211, Note_on_c, 11, 75, 0
17, 29220, Note_on_c, 11, 75, 84
17, 29220, Note_on_c, 11, 87, 84
17, 29271, Note_on_c, 11, 75, 0
17, 29271, Note_on_c, 11, 87, 0
17, 29280, Note_on_c, 11, 75, 84
17, 29280, Note_on_c, 11, 87, 84
17, 29331, Note_on_c, 11, 75, 0
17, 29331, Note_on_c, 11, 87, 0
17, 29340, Note_on_c, 11, 87, 84
17, 29340, Note_on_c, 11, 75, 84
17, 29391, Note_on_c, 11, 87, 0
17, 29391, Note_on_c, 11, 75, 0
17, 29400, Note_on_c, 11, 87, 84
17, 29400, Note_on_c, 11, 75, 84
17, 29451, Note_on_c, 11, 87, 0
17, 29451, Note_on_c, 11, 75, 0
17, 29460, Note_on_c, 11, 87, 84
17, 29460, Note_on_c, 11, 75, 84
17, 29511, Note_on_c, 11, 87, 0
17, 29511, Note_on_c, 11, 75, 0
17, 29520, Note_on_c, 11, 87, 84
17, 29520, Note_on_c, 11, 75, 84
17, 29571, Note_on_c, 11, 87, 0
17, 29571, Note_on_c, 11, 75, 0
17, 29580, Note_on_c, 11, 87, 84
17, 29580, Note_on_c, 11, 75, 84
17, 29631, Note_on_c, 11, 87, 0
17, 29631, Note_on_c, 11, 75, 0
17, 29640, Note_on_c, 11, 75, 84
17, 29640, Note_on_c, 11, 87, 84
17, 29691, Note_on_c, 11, 75, 0
17, 29691, Note_on_c, 11, 87, 0
17, 29700, Note_on_c, 11, 87, 84
17, 29700, Note_on_c, 11, 75, 84
17, 29751, Note_on_c, 11, 87, 0
17, 29751, Note_on_c, 11, 75, 0
17, 29760, Note_on_c, 11, 75, 84
17, 29760, Note_on_c, 11, 87, 84
17, 29811, Note_on_c, 11, 75, 0
17, 29811, Note_on_c, 11, 87, 0
17, 29820, Note_on_c, 11, 75, 84
17, 29820, Note_on_c, 11, 87, 84
17, 29871, Note_on_c, 11, 75, 0
17, 29871, Note_on_c, 11, 87, 0
17, 29880, Note_on_c, 11, 75, 84
17, 29880, Note_on_c, 11, 87, 84
17, 29931, Note_on_c, 11, 75, 0
17, 29931, Note_on_c, 11, 87, 0
17, 29940, Note_on_c, 11, 75, 84
17, 29940, Note_on_c, 11, 87, 84
17, 29991, Note_on_c, 11, 75, 0
17, 29991, Note_on_c, 11, 87, 0
17, 30000, Note_on_c, 11, 87, 84
17, 30000, Note_on_c, 11, 75, 84
17, 30051, Note_on_c, 11, 87, 0
17, 30051, Note_on_c, 11, 75, 0
17, 30060, Note_on_c, 11, 87, 84
17, 30060, Note_on_c, 11, 75, 84
17, 30111, Note_on_c, 11, 87, 0
17, 30111, Note_on_c, 11, 75, 0
17, 30120, Note_on_c, 11, 87, 84
17, 30120, Note_on_c, 11, 75, 84
17, 30171, Note_on_c, 11, 87, 0
17, 30171, Note_on_c, 11, 75, 0
17, 30180, Note_on_c, 11, 87, 84
17, 30180, Note_on_c, 11, 75, 84
17, 30231, Note_on_c, 11, 87, 0
17, 30231, Note_on_c, 11, 75, 0
17, 30240, Note_on_c, 11, 75, 84
17, 30240, Note_on_c, 11, 87, 84
17, 30291, Note_on_c, 11, 75, 0
17, 30291, Note_on_c, 11, 87, 0
17, 30300, Note_on_c, 11, 84, 84
17, 30300, Note_on_c, 11, 75, 84
17, 30351, Note_on_c, 11, 84, 0
17, 30351, Note_on_c, 11, 75, 0
17, 30360, Note_on_c, 11, 84, 84
17, 30360, Note_on_c, 11, 75, 84
17, 30411, Note_on_c, 11, 84, 0
17, 30411, Note_on_c, 11, 75, 0
17, 30420, Note_on_c, 11, 75, 84
17, 30420, Note_on_c, 11, 84, 84
17, 30471, Note_on_c, 11, 75, 0
17, 30471, Note_on_c, 11, 84, 0
17, 30480, Note_on_c, 11, 75, 84
17, 30480, Note_on_c, 11, 84, 84
17, 30531, Note_on_c, 11, 75, 0
17, 30531, Note_on_c, 11, 84, 0
17, 30540, Note_on_c, 11, 84, 84
17, 30540, Note_on_c, 11, 75, 84
17, 30591, Note_on_c, 11, 84, 0
17, 30591, Note_on_c, 11, 75, 0
17, 30600, Note_on_c, 11, 84, 84
17, 30600, Note_on_c, 11, 75, 84
17, 30651, Note_on_c, 11, 84, 0
17, 30651, Note_on_c, 11, 75, 0
17, 30660, Note_on_c, 11, 84, 84
17, 30660, Note_on_c, 11, 75, 84
17, 30711, Note_on_c, 11, 84, 0
17, 30711, Note_on_c, 11, 75, 0
17, 30720, Note_on_c, 11, 73, 92
17, 30720, Note_on_c, 11, 85, 92
17, 30771, Note_on_c, 11, 73, 0
17, 30771, Note_on_c, 11, 85, 0
17, 30780, Note_on_c, 11, 65, 84
17, 30831, Note_on_c, 11, 65, 0
17, 30840, Note_on_c, 11, 65, 84
17, 30891, Note_on_c, 11, 65, 0
17, 30900, Note_on_c, 11, 65, 84
17, 30951, Note_on_c, 11, 65, 0
17, 30960, Note_on_c, 11, 65, 84
17, 31011, Note_on_c, 11, 65, 0
17, 31020, Note_on_c, 11, 65, 84
17, 31071, Note_on_c, 11, 65, 0
17, 31080, Note_on_c, 11, 65, 84
17, 31131, Note_on_c, 11, 65, 0
17, 31140, Note_on_c, 11, 65, 84
17, 31191, Note_on_c, 11, 65, 0
17, 31200, Note_on_c, 11, 65, 84
17, 31251, Note_on_c, 11, 65, 0
17, 31260, Note_on_c, 11, 65, 84
17, 31311, Note_on_c, 11, 65, 0
17, 31320, Note_on_c, 11, 65, 84
17, 31371, Note_on_c, 11, 65, 0
17, 31380, Note_on_c, 11, 65, 84
17, 31431, Note_on_c, 11, 65, 0
17, 31440, Note_on_c, 11, 65, 84
17, 31491, Note_on_c, 11, 65, 0
17, 31500, Note_on_c, 11, 65, 84
17, 31551, Note_on_c, 11, 65, 0
17, 31560, Note_on_c, 11, 65, 84
17, 31611, Note_on_c, 11, 65, 0
17, 31620, Note_on_c, 11, 65, 84
17, 31671, Note_on_c, 11, 65, 0
17, 31680, Note_on_c, 11, 80, 92
17, 31731, Note_on_c, 11, 80, 0
17, 31740, Note_on_c, 11, 59, 84
17, 31740, Note_on_c, 11, 68, 84
17, 31791, Note_on_c, 11, 59, 0
17, 31791, Note_on_c, 11, 68, 0
17, 31800, Note_on_c, 11, 59, 84
17, 31800, Note_on_c, 11, 68, 84
17, 31851, Note_on_c, 11, 59, 0
17, 31851, Note_on_c, 11, 68, 0
17, 31860, Note_on_c, 11, 68, 84
17, 31860, Note_on_c, 11, 59, 84
17, 31911, Note_on_c, 11, 68, 0
17, 31911, Note_on_c, 11, 59, 0
17, 31920, Note_on_c, 11, 59, 84
17, 31920, Note_on_c, 11, 68, 84
17, 31971, Note_on_c, 11, 59, 0
17, 31971, Note_on_c, 11, 68, 0
17, 31980, Note_on_c, 11, 68, 84
17, 31980, Note_on_c, 11, 59, 84
17, 32031, Note_on_c, 11, 68, 0
17, 32031, Note_on_c, 11, 59, 0
17, 32040, Note_on_c, 11, 68, 84
17, 32040, Note_on_c, 11, 59, 84
17, 32091, Note_on_c, 11, 68, 0
17, 32091, Note_on_c, 11, 59, 0
17, 32100, Note_on_c, 11, 68, 84
17, 32100, Note_on_c, 11, 59, 84
17, 32151, Note_on_c, 11, 68, 0
17, 32151, Note_on_c, 11, 59, 0
17, 32160, Note_on_c, 11, 68, 84
17, 32160, Note_on_c, 11, 59, 84
17, 32211, Note_on_c, 11, 68, 0
17, 32211, Note_on_c, 11, 59, 0
17, 32220, Note_on_c, 11, 59, 84
17, 32220, Note_on_c, 11, 68, 84
17, 32271, Note_on_c, 11, 59, 0
17, 32271, Note_on_c, 11, 68, 0
17, 32280, Note_on_c, 11, 68, 84
17, 32280, Note_on_c, 11, 59, 84
17, 32331, Note_on_c, 11, 68, 0
17, 32331, Note_on_c, 11, 59, 0
17, 32340, Note_on_c, 11, 68, 84
17, 32340, Note_on_c, 11, 59, 84
17, 32391, Note_on_c, 11, 68, 0
17, 32391, Note_on_c, 11, 59, 0
17, 32400, Note_on_c, 11, 68, 84
17, 32400, Note_on_c, 11, 59, 84
17, 32451, Note_on_c, 11, 68, 0
17, 32451, Note_on_c, 11, 59, 0
17, 32460, Note_on_c, 11, 59, 84
17, 32460, Note_on_c, 11, 68, 84
17, 32511, Note_on_c, 11, 59, 0
17, 32511, Note_on_c, 11, 68, 0
17, 32520, Note_on_c, 11, 59, 84
17, 32520, Note_on_c, 11, 68, 84
17, 32571, Note_on_c, 11, 59, 0
17, 32571, Note_on_c, 11, 68, 0
17, 32580, Note_on_c, 11, 68, 84
17, 32580, Note_on_c, 11, 59, 84
17, 32631, Note_on_c, 11, 68, 0
17, 32631, Note_on_c, 11, 59, 0
17, 32640, Note_on_c, 11, 60, 84
17, 32640, Note_on_c, 11, 67, 84
17, 32879, Note_on_c, 11, 60, 0
17, 32879, Note_on_c, 11, 67, 0
17, 33120, Note_on_c, 11, 84, 92
17, 33179, Note_on_c, 11, 84, 0
17, 33180, Note_on_c, 11, 84, 84
17, 33464, Note_on_c, 11, 84, 0
17, 33480, Note_on_c, 11, 79, 84
17, 33584, Note_on_c, 11, 79, 0
17, 33600, Note_on_c, 11, 80, 84
17, 33704, Note_on_c, 11, 80, 0
17, 33720, Note_on_c, 11, 76, 84
17, 33824, Note_on_c, 11, 76, 0
17, 33840, Note_on_c, 11, 77, 84
17, 33944, Note_on_c, 11, 77, 0
17, 33960, Note_on_c, 11, 72, 84
17, 34064, Note_on_c, 11, 72, 0
17, 34080, Note_on_c, 11, 73, 84
17, 34184, Note_on_c, 11, 73, 0
17, 34200, Note_on_c, 11, 72, 84
17, 34304, Note_on_c, 11, 72, 0
17, 34320, Note_on_c, 11, 72, 84
17, 34424, Note_on_c, 11, 72, 0
17, 34440, Note_on_c, 11, 70, 84
17, 34544, Note_on_c, 11, 70, 0
17, 34560, Note_on_c, 11, 68, 84
17, 34799, Note_on_c, 11, 68, 0
17, 35040, Note_on_c, 11, 80, 92
17, 35099, Note_on_c, 11, 80, 0
17, 35100, Note_on_c, 11, 80, 84
17, 35384, Note_on_c, 11, 80, 0
17, 35400, Note_on_c, 11, 76, 84
17, 35504, Note_on_c, 11, 76, 0
17, 35520, Note_on_c, 11, 77, 84
17, 35624, Note_on_c, 11, 77, 0
17, 35640, Note_on_c, 11, 72, 84
17, 35744, Note_on_c, 11, 72, 0
17, 35760, Note_on_c, 11, 73, 84
17, 35864, Note_on_c, 11, 73, 0
17, 35880, Note_on_c, 11, 68, 84
17, 35984, Note_on_c, 11, 68, 0
17, 36000, Note_on_c, 11, 70, 84
17, 36104, Note_on_c, 11, 70, 0
17, 36120, Note_on_c, 11, 68, 84
17, 36224, Note_on_c, 11, 68, 0
17, 36240, Note_on_c, 11, 68, 84
17, 36344, Note_on_c, 11, 68, 0
17, 36360, Note_on_c, 11, 67, 84
17, 36464, Note_on_c, 11, 67, 0
17, 36480, Note_on_c, 11, 65, 84
17, 36719, Note_on_c, 11, 65, 0
17, 36960, Note_on_c, 11, 77, 92
17, 37019, Note_on_c, 11, 77, 0
17, 37020, Note_on_c, 11, 77, 84
17, 37304, Note_on_c, 11, 77, 0
17, 37320, Note_on_c, 11, 72, 84
17, 37424, Note_on_c, 11, 72, 0
17, 37440, Note_on_c, 11, 73, 84
17, 37544, Note_on_c, 11, 73, 0
17, 37560, Note_on_c, 11, 68, 84
17, 37664, Note_on_c, 11, 68, 0
17, 37680, Note_on_c, 11, 70, 84
17, 37784, Note_on_c, 11, 70, 0
17, 37800, Note_on_c, 11, 65, 84
17, 37904, Note_on_c, 11, 65, 0
17, 37920, Note_on_c, 11, 66, 84
17, 38024, Note_on_c, 11, 66, 0
17, 38040, Note_on_c, 11, 65, 84
17, 38144, Note_on_c, 11, 65, 0
17, 38160, Note_on_c, 11, 65, 84
17, 38264, Note_on_c, 11, 65, 0
17, 38280, Note_on_c, 11, 63, 84
17, 38384, Note_on_c, 11, 63, 0
17, 38400, Note_on_c, 11, 61, 44
17, 38451, Note_on_c, 11, 61, 0
17, 38460, Note_on_c, 11, 56, 44
17, 38511, Note_on_c, 11, 56, 0
17, 38520, Note_on_c, 11, 56, 44
17, 38571, Note_on_c, 11, 56, 0
17, 38580, Note_on_c, 11, 56, 44
17, 38631, Note_on_c, 11, 56, 0
17, 38640, Note_on_c, 11, 56, 44
17, 38691, Note_on_c, 11, 56, 0
17, 38700, Note_on_c, 11, 56, 44
17, 38751, Note_on_c, 11, 56, 0
17, 38760, Note_on_c, 11, 56, 44
17, 38811, Note_on_c, 11, 56, 0
17, 38820, Note_on_c, 11, 56, 44
17, 38871, Note_on_c, 11, 56, 0
17, 38880, Note_on_c, 11, 56, 44
17, 38931, Note_on_c, 11, 56, 0
17, 38940, Note_on_c, 11, 56, 44
17, 38991, Note_on_c, 11, 56, 0
17, 39000, Note_on_c, 11, 56, 44
17, 39051, Note_on_c, 11, 56, 0
17, 39060, Note_on_c, 11, 56, 44
17, 39111, Note_on_c, 11, 56, 0
17, 39120, Note_on_c, 11, 56, 44
17, 39171, Note_on_c, 11, 56, 0
17, 39180, Note_on_c, 11, 56, 44
17, 39231, Note_on_c, 11, 56, 0
17, 39240, Note_on_c, 11, 56, 44
17, 39291, Note_on_c, 11, 56, 0
17, 39300, Note_on_c, 11, 56, 44
17, 39351, Note_on_c, 11, 56, 0
17, 39360, Note_on_c, 11, 56, 44
17, 39411, Note_on_c, 11, 56, 0
17, 39420, Note_on_c, 11, 56, 44
17, 39471, Note_on_c, 11, 56, 0
17, 39480, Note_on_c, 11, 56, 44
17, 39531, Note_on_c, 11, 56, 0
17, 39540, Note_on_c, 11, 56, 44
17, 39591, Note_on_c, 11, 56, 0
17, 39600, Note_on_c, 11, 56, 44
17, 39651, Note_on_c, 11, 56, 0
17, 39660, Note_on_c, 11, 56, 44
17, 39711, Note_on_c, 11, 56, 0
17, 39720, Note_on_c, 11, 56, 44
17, 39771, Note_on_c, 11, 56, 0
17, 39780, Note_on_c, 11, 56, 44
17, 39831, Note_on_c, 11, 56, 0
17, 39840, Note_on_c, 11, 56, 44
17, 39891, Note_on_c, 11, 56, 0
17, 39900, Note_on_c, 11, 56, 44
17, 39951, Note_on_c, 11, 56, 0
17, 39960, Note_on_c, 11, 56, 44
17, 40011, Note_on_c, 11, 56, 0
17, 40020, Note_on_c, 11, 56, 44
17, 40071, Note_on_c, 11, 56, 0
17, 40080, Note_on_c, 11, 56, 44
17, 40131, Note_on_c, 11, 56, 0
17, 40140, Note_on_c, 11, 56, 44
17, 40191, Note_on_c, 11, 56, 0
17, 40200, Note_on_c, 11, 56, 44
17, 40251, Note_on_c, 11, 56, 0
17, 40260, Note_on_c, 11, 56, 44
17, 40311, Note_on_c, 11, 56, 0
17, 40320, Note_on_c, 11, 61, 76
17, 40320, Note_on_c, 11, 65, 76
17, 40371, Note_on_c, 11, 61, 0
17, 40371, Note_on_c, 11, 65, 0
17, 40380, Note_on_c, 11, 61, 52
17, 40380, Note_on_c, 11, 65, 52
17, 40431, Note_on_c, 11, 61, 0
17, 40431, Note_on_c, 11, 65, 0
17, 40440, Note_on_c, 11, 65, 52
17, 40440, Note_on_c, 11, 61, 52
17, 40491, Note_on_c, 11, 65, 0
17, 40491, Note_on_c, 11, 61, 0
17, 40500, Note_on_c, 11, 65, 52
17, 40500, Note_on_c, 11, 61, 52
17, 40551, Note_on_c, 11, 65, 0
17, 40551, Note_on_c, 11, 61, 0
17, 40560, Note_on_c, 11, 61, 52
17, 40560, Note_on_c, 11, 65, 52
17, 40611, Note_on_c, 11, 61, 0
17, 40611, Note_on_c, 11, 65, 0
17, 40620, Note_on_c, 11, 65, 52
17, 40620, Note_on_c, 11, 61, 52
17, 40671, Note_on_c, 11, 65, 0
17, 40671, Note_on_c, 11, 61, 0
17, 40680, Note_on_c, 11, 65, 52
17, 40680, Note_on_c, 11, 61, 52
17, 40731, Note_on_c, 11, 65, 0
17, 40731, Note_on_c, 11, 61, 0
17, 40740, Note_on_c, 11, 65, 52
17, 40740, Note_on_c, 11, 61, 52
17, 40791, Note_on_c, 11, 65, 0
17, 40791, Note_on_c, 11, 61, 0
17, 40800, Note_on_c, 11, 61, 52
17, 40800, Note_on_c, 11, 65, 52
17, 40851, Note_on_c, 11, 61, 0
17, 40851, Note_on_c, 11, 65, 0
17, 40860, Note_on_c, 11, 65, 52
17, 40860, Note_on_c, 11, 61, 52
17, 40911, Note_on_c, 11, 65, 0
17, 40911, Note_on_c, 11, 61, 0
17, 40920, Note_on_c, 11, 65, 52
17, 40920, Note_on_c, 11, 61, 52
17, 40971, Note_on_c, 11, 65, 0
17, 40971, Note_on_c, 11, 61, 0
17, 40980, Note_on_c, 11, 65, 52
17, 40980, Note_on_c, 11, 61, 52
17, 41031, Note_on_c, 11, 65, 0
17, 41031, Note_on_c, 11, 61, 0
17, 41040, Note_on_c, 11, 61, 52
17, 41040, Note_on_c, 11, 65, 52
17, 41091, Note_on_c, 11, 61, 0
17, 41091, Note_on_c, 11, 65, 0
17, 41100, Note_on_c, 11, 65, 52
17, 41100, Note_on_c, 11, 61, 52
17, 41151, Note_on_c, 11, 65, 0
17, 41151, Note_on_c, 11, 61, 0
17, 41160, Note_on_c, 11, 65, 52
17, 41160, Note_on_c, 11, 61, 52
17, 41211, Note_on_c, 11, 65, 0
17, 41211, Note_on_c, 11, 61, 0
17, 41220, Note_on_c, 11, 61, 52
17, 41220, Note_on_c, 11, 65, 52
17, 41271, Note_on_c, 11, 61, 0
17, 41271, Note_on_c, 11, 65, 0
17, 41280, Note_on_c, 11, 65, 52
17, 41280, Note_on_c, 11, 61, 52
17, 41331, Note_on_c, 11, 65, 0
17, 41331, Note_on_c, 11, 61, 0
17, 41340, Note_on_c, 11, 61, 52
17, 41340, Note_on_c, 11, 65, 52
17, 41391, Note_on_c, 11, 61, 0
17, 41391, Note_on_c, 11, 65, 0
17, 41400, Note_on_c, 11, 61, 52
17, 41400, Note_on_c, 11, 65, 52
17, 41451, Note_on_c, 11, 61, 0
17, 41451, Note_on_c, 11, 65, 0
17, 41460, Note_on_c, 11, 65, 52
17, 41460, Note_on_c, 11, 61, 52
17, 41511, Note_on_c, 11, 65, 0
17, 41511, Note_on_c, 11, 61, 0
17, 41520, Note_on_c, 11, 65, 52
17, 41520, Note_on_c, 11, 61, 52
17, 41571, Note_on_c, 11, 65, 0
17, 41571, Note_on_c, 11, 61, 0
17, 41580, Note_on_c, 11, 65, 52
17, 41580, Note_on_c, 11, 61, 52
17, 41631, Note_on_c, 11, 65, 0
17, 41631, Note_on_c, 11, 61, 0
17, 41640, Note_on_c, 11, 65, 52
17, 41640, Note_on_c, 11, 61, 52
17, 41691, Note_on_c, 11, 65, 0
17, 41691, Note_on_c, 11, 61, 0
17, 41700, Note_on_c, 11, 61, 52
17, 41700, Note_on_c, 11, 65, 52
17, 41751, Note_on_c, 11, 61, 0
17, 41751, Note_on_c, 11, 65, 0
17, 41760, Note_on_c, 11, 61, 52
17, 41760, Note_on_c, 11, 65, 52
17, 41811, Note_on_c, 11, 61, 0
17, 41811, Note_on_c, 11, 65, 0
17, 41820, Note_on_c, 11, 65, 52
17, 41820, Note_on_c, 11, 61, 52
17, 41871, Note_on_c, 11, 65, 0
17, 41871, Note_on_c, 11, 61, 0
17, 41880, Note_on_c, 11, 61, 52
17, 41880, Note_on_c, 11, 65, 52
17, 41931, Note_on_c, 11, 61, 0
17, 41931, Note_on_c, 11, 65, 0
17, 41940, Note_on_c, 11, 65, 52
17, 41940, Note_on_c, 11, 61, 52
17, 41991, Note_on_c, 11, 65, 0
17, 41991, Note_on_c, 11, 61, 0
17, 42000, Note_on_c, 11, 65, 52
17, 42000, Note_on_c, 11, 61, 52
17, 42051, Note_on_c, 11, 65, 0
17, 42051, Note_on_c, 11, 61, 0
17, 42060, Note_on_c, 11, 61, 52
17, 42060, Note_on_c, 11, 65, 52
17, 42111, Note_on_c, 11, 61, 0
17, 42111, Note_on_c, 11, 65, 0
17, 42120, Note_on_c, 11, 61, 52
17, 42120, Note_on_c, 11, 65, 52
17, 42171, Note_on_c, 11, 61, 0
17, 42171, Note_on_c, 11, 65, 0
17, 42180, Note_on_c, 11, 61, 52
17, 42180, Note_on_c, 11, 65, 52
17, 42231, Note_on_c, 11, 61, 0
17, 42231, Note_on_c, 11, 65, 0
17, 42240, Note_on_c, 11, 56, 44
17, 42291, Note_on_c, 11, 56, 0
17, 42300, Note_on_c, 11, 56, 44
17, 42351, Note_on_c, 11, 56, 0
17, 42360, Note_on_c, 11, 56, 44
17, 42411, Note_on_c, 11, 56, 0
17, 42420, Note_on_c, 11, 56, 44
17, 42471, Note_on_c, 11, 56, 0
17, 42480, Note_on_c, 11, 56, 44
17, 42531, Note_on_c, 11, 56, 0
17, 42540, Note_on_c, 11, 56, 44
17, 42591, Note_on_c, 11, 56, 0
17, 42600, Note_on_c, 11, 56, 44
17, 42651, Note_on_c, 11, 56, 0
17, 42660, Note_on_c, 11, 56, 44
17, 42711, Note_on_c, 11, 56, 0
17, 42720, Note_on_c, 11, 56, 44
17, 42771, Note_on_c, 11, 56, 0
17, 42780, Note_on_c, 11, 56, 44
17, 42831, Note_on_c, 11, 56, 0
17, 42840, Note_on_c, 11, 56, 44
17, 42891, Note_on_c, 11, 56, 0
17, 42900, Note_on_c, 11, 56, 44
17, 42951, Note_on_c, 11, 56, 0
17, 42960, Note_on_c, 11, 56, 44
17, 43011, Note_on_c, 11, 56, 0
17, 43020, Note_on_c, 11, 56, 44
17, 43071, Note_on_c, 11, 56, 0
17, 43080, Note_on_c, 11, 56, 44
17, 43131, Note_on_c, 11, 56, 0
17, 43140, Note_on_c, 11, 56, 44
17, 43191, Note_on_c, 11, 56, 0
17, 43200, Note_on_c, 11, 56, 44
17, 43251, Note_on_c, 11, 56, 0
17, 43260, Note_on_c, 11, 56, 44
17, 43311, Note_on_c, 11, 56, 0
17, 43320, Note_on_c, 11, 56, 44
17, 43371, Note_on_c, 11, 56, 0
17, 43380, Note_on_c, 11, 56, 44
17, 43431, Note_on_c, 11, 56, 0
17, 43440, Note_on_c, 11, 56, 44
17, 43491, Note_on_c, 11, 56, 0
17, 43500, Note_on_c, 11, 56, 44
17, 43551, Note_on_c, 11, 56, 0
17, 43560, Note_on_c, 11, 56, 44
17, 43611, Note_on_c, 11, 56, 0
17, 43620, Note_on_c, 11, 56, 44
17, 43671, Note_on_c, 11, 56, 0
17, 43680, Note_on_c, 11, 56, 44
17, 43731, Note_on_c, 11, 56, 0
17, 43740, Note_on_c, 11, 56, 44
17, 43791, Note_on_c, 11, 56, 0
17, 43800, Note_on_c, 11, 56, 44
17, 43851, Note_on_c, 11, 56, 0
17, 43860, Note_on_c, 11, 56, 44
17, 43911, Note_on_c, 11, 56, 0
17, 43920, Note_on_c, 11, 56, 44
17, 43971, Note_on_c, 11, 56, 0
17, 43980, Note_on_c, 11, 56, 44
17, 44031, Note_on_c, 11, 56, 0
17, 44040, Note_on_c, 11, 56, 44
17, 44091, Note_on_c, 11, 56, 0
17, 44100, Note_on_c, 11, 56, 44
17, 44151, Note_on_c, 11, 56, 0
17, 44160, Note_on_c, 11, 67, 76
17, 44160, Note_on_c, 11, 59, 76
17, 44211, Note_on_c, 11, 67, 0
17, 44211, Note_on_c, 11, 59, 0
17, 44220, Note_on_c, 11, 59, 52
17, 44220, Note_on_c, 11, 67, 52
17, 44271, Note_on_c, 11, 59, 0
17, 44271, Note_on_c, 11, 67, 0
17, 44280, Note_on_c, 11, 59, 52
17, 44280, Note_on_c, 11, 67, 52
17, 44331, Note_on_c, 11, 59, 0
17, 44331, Note_on_c, 11, 67, 0
17, 44340, Note_on_c, 11, 67, 52
17, 44340, Note_on_c, 11, 59, 52
17, 44391, Note_on_c, 11, 67, 0
17, 44391, Note_on_c, 11, 59, 0
17, 44400, Note_on_c, 11, 67, 52
17, 44400, Note_on_c, 11, 59, 52
17, 44451, Note_on_c, 11, 67, 0
17, 44451, Note_on_c, 11, 59, 0
17, 44460, Note_on_c, 11, 67, 52
17, 44460, Note_on_c, 11, 59, 52
17, 44511, Note_on_c, 11, 67, 0
17, 44511, Note_on_c, 11, 59, 0
17, 44520, Note_on_c, 11, 59, 52
17, 44520, Note_on_c, 11, 67, 52
17, 44571, Note_on_c, 11, 59, 0
17, 44571, Note_on_c, 11, 67, 0
17, 44580, Note_on_c, 11, 67, 52
17, 44580, Note_on_c, 11, 59, 52
17, 44631, Note_on_c, 11, 67, 0
17, 44631, Note_on_c, 11, 59, 0
17, 44640, Note_on_c, 11, 59, 52
17, 44640, Note_on_c, 11, 67, 52
17, 44691, Note_on_c, 11, 59, 0
17, 44691, Note_on_c, 11, 67, 0
17, 44700, Note_on_c, 11, 59, 52
17, 44700, Note_on_c, 11, 67, 52
17, 44751, Note_on_c, 11, 59, 0
17, 44751, Note_on_c, 11, 67, 0
17, 44760, Note_on_c, 11, 67, 52
17, 44760, Note_on_c, 11, 59, 52
17, 44811, Note_on_c, 11, 67, 0
17, 44811, Note_on_c, 11, 59, 0
17, 44820, Note_on_c, 11, 67, 52
17, 44820, Note_on_c, 11, 59, 52
17, 44871, Note_on_c, 11, 67, 0
17, 44871, Note_on_c, 11, 59, 0
17, 44880, Note_on_c, 11, 59, 52
17, 44880, Note_on_c, 11, 67, 52
17, 44931, Note_on_c, 11, 59, 0
17, 44931, Note_on_c, 11, 67, 0
17, 44940, Note_on_c, 11, 59, 52
17, 44940, Note_on_c, 11, 67, 52
17, 44991, Note_on_c, 11, 59, 0
17, 44991, Note_on_c, 11, 67, 0
17, 45000, Note_on_c, 11, 59, 52
17, 45000, Note_on_c, 11, 67, 52
17, 45051, Note_on_c, 11, 59, 0
17, 45051, Note_on_c, 11, 67, 0
17, 45060, Note_on_c, 11, 59, 52
17, 45060, Note_on_c, 11, 67, 52
17, 45111, Note_on_c, 11, 59, 0
17, 45111, Note_on_c, 11, 67, 0
17, 45120, Note_on_c, 11, 59, 52
17, 45120, Note_on_c, 11, 67, 52
17, 45171, Note_on_c, 11, 59, 0
17, 45171, Note_on_c, 11, 67, 0
17, 45180, Note_on_c, 11, 67, 52
17, 45180, Note_on_c, 11, 59, 52
17, 45231, Note_on_c, 11, 67, 0
17, 45231, Note_on_c, 11, 59, 0
17, 45240, Note_on_c, 11, 59, 52
17, 45240, Note_on_c, 11, 67, 52
17, 45291, Note_on_c, 11, 59, 0
17, 45291, Note_on_c, 11, 67, 0
17, 45300, Note_on_c, 11, 67, 52
17, 45300, Note_on_c, 11, 59, 52
17, 45351, Note_on_c, 11, 67, 0
17, 45351, Note_on_c, 11, 59, 0
17, 45360, Note_on_c, 11, 59, 52
17, 45360, Note_on_c, 11, 67, 52
17, 45411, Note_on_c, 11, 59, 0
17, 45411, Note_on_c, 11, 67, 0
17, 45420, Note_on_c, 11, 67, 52
17, 45420, Note_on_c, 11, 59, 52
17, 45471, Note_on_c, 11, 67, 0
17, 45471, Note_on_c, 11, 59, 0
17, 45480, Note_on_c, 11, 59, 52
17, 45480, Note_on_c, 11, 67, 52
17, 45531, Note_on_c, 11, 59, 0
17, 45531, Note_on_c, 11, 67, 0
17, 45540, Note_on_c, 11, 67, 52
17, 45540, Note_on_c, 11, 59, 52
17, 45591, Note_on_c, 11, 67, 0
17, 45591, Note_on_c, 11, 59, 0
17, 45600, Note_on_c, 11, 67, 52
17, 45600, Note_on_c, 11, 59, 52
17, 45651, Note_on_c, 11, 67, 0
17, 45651, Note_on_c, 11, 59, 0
17, 45660, Note_on_c, 11, 59, 52
17, 45660, Note_on_c, 11, 67, 52
17, 45711, Note_on_c, 11, 59, 0
17, 45711, Note_on_c, 11, 67, 0
17, 45720, Note_on_c, 11, 59, 52
17, 45720, Note_on_c, 11, 67, 52
17, 45771, Note_on_c, 11, 59, 0
17, 45771, Note_on_c, 11, 67, 0
17, 45780, Note_on_c, 11, 59, 52
17, 45780, Note_on_c, 11, 67, 52
17, 45831, Note_on_c, 11, 59, 0
17, 45831, Note_on_c, 11, 67, 0
17, 45840, Note_on_c, 11, 67, 52
17, 45840, Note_on_c, 11, 59, 52
17, 45891, Note_on_c, 11, 67, 0
17, 45891, Note_on_c, 11, 59, 0
17, 45900, Note_on_c, 11, 59, 52
17, 45900, Note_on_c, 11, 67, 52
17, 45951, Note_on_c, 11, 59, 0
17, 45951, Note_on_c, 11, 67, 0
17, 45960, Note_on_c, 11, 67, 52
17, 45960, Note_on_c, 11, 59, 52
17, 46011, Note_on_c, 11, 67, 0
17, 46011, Note_on_c, 11, 59, 0
17, 46020, Note_on_c, 11, 59, 52
17, 46020, Note_on_c, 11, 67, 52
17, 46071, Note_on_c, 11, 59, 0
17, 46071, Note_on_c, 11, 67, 0
17, 46080, Note_on_c, 11, 60, 52
17, 46080, Note_on_c, 11, 67, 52
17, 46131, Note_on_c, 11, 60, 0
17, 46131, Note_on_c, 11, 67, 0
17, 46140, Note_on_c, 11, 67, 52
17, 46140, Note_on_c, 11, 60, 52
17, 46191, Note_on_c, 11, 67, 0
17, 46191, Note_on_c, 11, 60, 0
17, 46200, Note_on_c, 11, 67, 53
17, 46200, Note_on_c, 11, 60, 53
17, 46251, Note_on_c, 11, 67, 0
17, 46251, Note_on_c, 11, 60, 0
17, 46260, Note_on_c, 11, 67, 54
17, 46260, Note_on_c, 11, 60, 54
17, 46311, Note_on_c, 11, 67, 0
17, 46311, Note_on_c, 11, 60, 0
17, 46320, Note_on_c, 11, 67, 55
17, 46320, Note_on_c, 11, 60, 55
17, 46371, Note_on_c, 11, 67, 0
17, 46371, Note_on_c, 11, 60, 0
17, 46380, Note_on_c, 11, 60, 55
17, 46380, Note_on_c, 11, 67, 55
17, 46431, Note_on_c, 11, 60, 0
17, 46431, Note_on_c, 11, 67, 0
17, 46440, Note_on_c, 11, 67, 56
17, 46440, Note_on_c, 11, 60, 56
17, 46491, Note_on_c, 11, 67, 0
17, 46491, Note_on_c, 11, 60, 0
17, 46500, Note_on_c, 11, 67, 57
17, 46500, Note_on_c, 11, 60, 57
17, 46551, Note_on_c, 11, 67, 0
17, 46551, Note_on_c, 11, 60, 0
17, 46560, Note_on_c, 11, 67, 58
17, 46560, Note_on_c, 11, 60, 58
17, 46611, Note_on_c, 11, 67, 0
17, 46611, Note_on_c, 11, 60, 0
17, 46620, Note_on_c, 11, 67, 58
17, 46620, Note_on_c, 11, 60, 58
17, 46671, Note_on_c, 11, 67, 0
17, 46671, Note_on_c, 11, 60, 0
17, 46680, Note_on_c, 11, 67, 59
17, 46680, Note_on_c, 11, 60, 59
17, 46731, Note_on_c, 11, 67, 0
17, 46731, Note_on_c, 11, 60, 0
17, 46740, Note_on_c, 11, 67, 60
17, 46740, Note_on_c, 11, 60, 60
17, 46791, Note_on_c, 11, 67, 0
17, 46791, Note_on_c, 11, 60, 0
17, 46800, Note_on_c, 11, 67, 61
17, 46800, Note_on_c, 11, 60, 61
17, 46851, Note_on_c, 11, 67, 0
17, 46851, Note_on_c, 11, 60, 0
17, 46860, Note_on_c, 11, 67, 61
17, 46860, Note_on_c, 11, 60, 61
17, 46911, Note_on_c, 11, 67, 0
17, 46911, Note_on_c, 11, 60, 0
17, 46920, Note_on_c, 11, 67, 62
17, 46920, Note_on_c, 11, 60, 62
17, 46971, Note_on_c, 11, 67, 0
17, 46971, Note_on_c, 11, 60, 0
17, 46980, Note_on_c, 11, 67, 63
17, 46980, Note_on_c, 11, 60, 63
17, 47031, Note_on_c, 11, 67, 0
17, 47031, Note_on_c, 11, 60, 0
17, 47040, Note_on_c, 11, 60, 64
17, 47040, Note_on_c, 11, 67, 64
17, 47091, Note_on_c, 11, 60, 0
17, 47091, Note_on_c, 11, 67, 0
17, 47100, Note_on_c, 11, 67, 64
17, 47100, Note_on_c, 11, 60, 64
17, 47151, Note_on_c, 11, 67, 0
17, 47151, Note_on_c, 11, 60, 0
17, 47160, Note_on_c, 11, 60, 65
17, 47160, Note_on_c, 11, 67, 65
17, 47211, Note_on_c, 11, 60, 0
17, 47211, Note_on_c, 11, 67, 0
17, 47220, Note_on_c, 11, 67, 66
17, 47220, Note_on_c, 11, 60, 66
17, 47271, Note_on_c, 11, 67, 0
17, 47271, Note_on_c, 11, 60, 0
17, 47280, Note_on_c, 11, 67, 67
17, 47280, Note_on_c, 11, 60, 67
17, 47331, Note_on_c, 11, 67, 0
17, 47331, Note_on_c, 11, 60, 0
17, 47340, Note_on_c, 11, 60, 67
17, 47340, Note_on_c, 11, 67, 67
17, 47391, Note_on_c, 11, 60, 0
17, 47391, Note_on_c, 11, 67, 0
17, 47400, Note_on_c, 11, 67, 68
17, 47400, Note_on_c, 11, 60, 68
17, 47451, Note_on_c, 11, 67, 0
17, 47451, Note_on_c, 11, 60, 0
17, 47460, Note_on_c, 11, 60, 69
17, 47460, Note_on_c, 11, 67, 69
17, 47511, Note_on_c, 11, 60, 0
17, 47511, Note_on_c, 11, 67, 0
17, 47520, Note_on_c, 11, 60, 70
17, 47520, Note_on_c, 11, 67, 70
17, 47571, Note_on_c, 11, 60, 0
17, 47571, Note_on_c, 11, 67, 0
17, 47580, Note_on_c, 11, 67, 70
17, 47580, Note_on_c, 11, 60, 70
17, 47631, Note_on_c, 11, 67, 0
17, 47631, Note_on_c, 11, 60, 0
17, 47640, Note_on_c, 11, 67, 71
17, 47640, Note_on_c, 11, 60, 71
17, 47691, Note_on_c, 11, 67, 0
17, 47691, Note_on_c, 11, 60, 0
17, 47700, Note_on_c, 11, 67, 72
17, 47700, Note_on_c, 11, 60, 72
17, 47751, Note_on_c, 11, 67, 0
17, 47751, Note_on_c, 11, 60, 0
17, 47760, Note_on_c, 11, 60, 73
17, 47760, Note_on_c, 11, 67, 73
17, 47811, Note_on_c, 11, 60, 0
17, 47811, Note_on_c, 11, 67, 0
17, 47820, Note_on_c, 11, 67, 73
17, 47820, Note_on_c, 11, 60, 73
17, 47871, Note_on_c, 11, 67, 0
17, 47871, Note_on_c, 11, 60, 0
17, 47880, Note_on_c, 11, 60, 74
17, 47880, Note_on_c, 11, 67, 74
17, 47931, Note_on_c, 11, 60, 0
17, 47931, Note_on_c, 11, 67, 0
17, 47940, Note_on_c, 11, 60, 75
17, 47940, Note_on_c, 11, 67, 75
17, 47991, Note_on_c, 11, 60, 0
17, 47991, Note_on_c, 11, 67, 0
17, 48000, Note_on_c, 11, 60, 84
17, 48000, Note_on_c, 11, 69, 84
17, 48051, Note_on_c, 11, 60, 0
17, 48051, Note_on_c, 11, 69, 0
17, 48060, Note_on_c, 11, 69, 76
17, 48060, Note_on_c, 11, 60, 76
17, 48111, Note_on_c, 11, 69, 0
17, 48111, Note_on_c, 11, 60, 0
17, 48120, Note_on_c, 11, 60, 76
17, 48120, Note_on_c, 11, 69, 76
17, 48171, Note_on_c, 11, 60, 0
17, 48171, Note_on_c, 11, 69, 0
17, 48180, Note_on_c, 11, 69, 76
17, 48180, Note_on_c, 11, 60, 76
17, 48231, Note_on_c, 11, 69, 0
17, 48231, Note_on_c, 11, 60, 0
17, 48240, Note_on_c, 11, 60, 76
17, 48240, Note_on_c, 11, 69, 76
17, 48291, Note_on_c, 11, 60, 0
17, 48291, Note_on_c, 11, 69, 0
17, 48300, Note_on_c, 11, 69, 76
17, 48300, Note_on_c, 11, 60, 76
17, 48351, Note_on_c, 11, 69, 0
17, 48351, Note_on_c, 11, 60, 0
17, 48360, Note_on_c, 11, 60, 76
17, 48360, Note_on_c, 11, 69, 76
17, 48411, Note_on_c, 11, 60, 0
17, 48411, Note_on_c, 11, 69, 0
17, 48420, Note_on_c, 11, 60, 76
17, 48420, Note_on_c, 11, 69, 76
17, 48471, Note_on_c, 11, 60, 0
17, 48471, Note_on_c, 11, 69, 0
17, 48480, Note_on_c, 11, 60, 76
17, 48480, Note_on_c, 11, 69, 76
17, 48531, Note_on_c, 11, 60, 0
17, 48531, Note_on_c, 11, 69, 0
17, 48540, Note_on_c, 11, 60, 76
17, 48540, Note_on_c, 11, 69, 76
17, 48591, Note_on_c, 11, 60, 0
17, 48591, Note_on_c, 11, 69, 0
17, 48600, Note_on_c, 11, 60, 76
17, 48600, Note_on_c, 11, 69, 76
17, 48651, Note_on_c, 11, 60, 0
17, 48651, Note_on_c, 11, 69, 0
17, 48660, Note_on_c, 11, 69, 76
17, 48660, Note_on_c, 11, 60, 76
17, 48711, Note_on_c, 11, 69, 0
17, 48711, Note_on_c, 11, 60, 0
17, 48720, Note_on_c, 11, 60, 76
17, 48720, Note_on_c, 11, 69, 76
17, 48771, Note_on_c, 11, 60, 0
17, 48771, Note_on_c, 11, 69, 0
17, 48780, Note_on_c, 11, 69, 76
17, 48780, Note_on_c, 11, 60, 76
17, 48831, Note_on_c, 11, 69, 0
17, 48831, Note_on_c, 11, 60, 0
17, 48840, Note_on_c, 11, 69, 76
17, 48840, Note_on_c, 11, 60, 76
17, 48891, Note_on_c, 11, 69, 0
17, 48891, Note_on_c, 11, 60, 0
17, 48900, Note_on_c, 11, 60, 76
17, 48900, Note_on_c, 11, 69, 76
17, 48951, Note_on_c, 11, 60, 0
17, 48951, Note_on_c, 11, 69, 0
17, 48960, Note_on_c, 11, 60, 84
17, 48960, Note_on_c, 11, 69, 84
17, 49011, Note_on_c, 11, 60, 0
17, 49011, Note_on_c, 11, 69, 0
17, 49020, Note_on_c, 11, 60, 76
17, 49020, Note_on_c, 11, 69, 76
17, 49071, Note_on_c, 11, 60, 0
17, 49071, Note_on_c, 11, 69, 0
17, 49080, Note_on_c, 11, 60, 76
17, 49080, Note_on_c, 11, 69, 76
17, 49131, Note_on_c, 11, 60, 0
17, 49131, Note_on_c, 11, 69, 0
17, 49140, Note_on_c, 11, 69, 76
17, 49140, Note_on_c, 11, 60, 76
17, 49191, Note_on_c, 11, 69, 0
17, 49191, Note_on_c, 11, 60, 0
17, 49200, Note_on_c, 11, 69, 76
17, 49200, Note_on_c, 11, 60, 76
17, 49251, Note_on_c, 11, 69, 0
17, 49251, Note_on_c, 11, 60, 0
17, 49260, Note_on_c, 11, 69, 76
17, 49260, Note_on_c, 11, 60, 76
17, 49311, Note_on_c, 11, 69, 0
17, 49311, Note_on_c, 11, 60, 0
17, 49320, Note_on_c, 11, 69, 76
17, 49320, Note_on_c, 11, 60, 76
17, 49371, Note_on_c, 11, 69, 0
17, 49371, Note_on_c, 11, 60, 0
17, 49380, Note_on_c, 11, 60, 76
17, 49380, Note_on_c, 11, 69, 76
17, 49431, Note_on_c, 11, 60, 0
17, 49431, Note_on_c, 11, 69, 0
17, 49440, Note_on_c, 11, 60, 76
17, 49440, Note_on_c, 11, 69, 76
17, 49491, Note_on_c, 11, 60, 0
17, 49491, Note_on_c, 11, 69, 0
17, 49500, Note_on_c, 11, 69, 76
17, 49500, Note_on_c, 11, 60, 76
17, 49551, Note_on_c, 11, 69, 0
17, 49551, Note_on_c, 11, 60, 0
17, 49560, Note_on_c, 11, 60, 76
17, 49560, Note_on_c, 11, 69, 76
17, 49611, Note_on_c, 11, 60, 0
17, 49611, Note_on_c, 11, 69, 0
17, 49620, Note_on_c, 11, 69, 76
17, 49620, Note_on_c, 11, 60, 76
17, 49671, Note_on_c, 11, 69, 0
17, 49671, Note_on_c, 11, 60, 0
17, 49680, Note_on_c, 11, 60, 76
17, 49680, Note_on_c, 11, 69, 76
17, 49731, Note_on_c, 11, 60, 0
17, 49731, Note_on_c, 11, 69, 0
17, 49740, Note_on_c, 11, 69, 76
17, 49740, Note_on_c, 11, 60, 76
17, 49791, Note_on_c, 11, 69, 0
17, 49791, Note_on_c, 11, 60, 0
17, 49800, Note_on_c, 11, 60, 76
17, 49800, Note_on_c, 11, 69, 76
17, 49851, Note_on_c, 11, 60, 0
17, 49851, Note_on_c, 11, 69, 0
17, 49860, Note_on_c, 11, 69, 76
17, 49860, Note_on_c, 11, 60, 76
17, 49911, Note_on_c, 11, 69, 0
17, 49911, Note_on_c, 11, 60, 0
17, 49920, Note_on_c, 11, 70, 84
17, 49971, Note_on_c, 11, 70, 0
17, 49980, Note_on_c, 11, 70, 76
17, 50031, Note_on_c, 11, 70, 0
17, 50040, Note_on_c, 11, 70, 76
17, 50091, Note_on_c, 11, 70, 0
17, 50100, Note_on_c, 11, 70, 76
17, 50151, Note_on_c, 11, 70, 0
17, 50160, Note_on_c, 11, 70, 76
17, 50211, Note_on_c, 11, 70, 0
17, 50220, Note_on_c, 11, 70, 76
17, 50271, Note_on_c, 11, 70, 0
17, 50280, Note_on_c, 11, 70, 76
17, 50331, Note_on_c, 11, 70, 0
17, 50340, Note_on_c, 11, 70, 76
17, 50391, Note_on_c, 11, 70, 0
17, 50400, Note_on_c, 11, 70, 76
17, 50451, Note_on_c, 11, 70, 0
17, 50460, Note_on_c, 11, 70, 76
17, 50511, Note_on_c, 11, 70, 0
17, 50520, Note_on_c, 11, 70, 76
17, 50571, Note_on_c, 11, 70, 0
17, 50580, Note_on_c, 11, 70, 76
17, 50631, Note_on_c, 11, 70, 0
17, 50640, Note_on_c, 11, 70, 76
17, 50691, Note_on_c, 11, 70, 0
17, 50700, Note_on_c, 11, 70, 76
17, 50751, Note_on_c, 11, 70, 0
17, 50760, Note_on_c, 11, 70, 76
17, 50811, Note_on_c, 11, 70, 0
17, 50820, Note_on_c, 11, 70, 76
17, 50871, Note_on_c, 11, 70, 0
17, 50880, Note_on_c, 11, 71, 84
17, 50880, Note_on_c, 11, 62, 84
17, 50931, Note_on_c, 11, 71, 0
17, 50931, Note_on_c, 11, 62, 0
17, 50940, Note_on_c, 11, 62, 76
17, 50940, Note_on_c, 11, 71, 76
17, 50991, Note_on_c, 11, 62, 0
17, 50991, Note_on_c, 11, 71, 0
17, 51000, Note_on_c, 11, 71, 76
17, 51000, Note_on_c, 11, 62, 76
17, 51051, Note_on_c, 11, 71, 0
17, 51051, Note_on_c, 11, 62, 0
17, 51060, Note_on_c, 11, 62, 76
17, 51060, Note_on_c, 11, 71, 76
17, 51111, Note_on_c, 11, 62, 0
17, 51111, Note_on_c, 11, 71, 0
17, 51120, Note_on_c, 11, 62, 76
17, 51120, Note_on_c, 11, 71, 76
17, 51171, Note_on_c, 11, 62, 0
17, 51171, Note_on_c, 11, 71, 0
17, 51180, Note_on_c, 11, 62, 76
17, 51180, Note_on_c, 11, 71, 76
17, 51231, Note_on_c, 11, 62, 0
17, 51231, Note_on_c, 11, 71, 0
17, 51240, Note_on_c, 11, 62, 76
17, 51240, Note_on_c, 11, 71, 76
17, 51291, Note_on_c, 11, 62, 0
17, 51291, Note_on_c, 11, 71, 0
17, 51300, Note_on_c, 11, 71, 76
17, 51300, Note_on_c, 11, 62, 76
17, 51351, Note_on_c, 11, 71, 0
17, 51351, Note_on_c, 11, 62, 0
17, 51360, Note_on_c, 11, 62, 76
17, 51360, Note_on_c, 11, 71, 76
17, 51411, Note_on_c, 11, 62, 0
17, 51411, Note_on_c, 11, 71, 0
17, 51420, Note_on_c, 11, 71, 76
17, 51420, Note_on_c, 11, 62, 76
17, 51471, Note_on_c, 11, 71, 0
17, 51471, Note_on_c, 11, 62, 0
17, 51480, Note_on_c, 11, 62, 76
17, 51480, Note_on_c, 11, 71, 76
17, 51531, Note_on_c, 11, 62, 0
17, 51531, Note_on_c, 11, 71, 0
17, 51540, Note_on_c, 11, 71, 76
17, 51540, Note_on_c, 11, 62, 76
17, 51591, Note_on_c, 11, 71, 0
17, 51591, Note_on_c, 11, 62, 0
17, 51600, Note_on_c, 11, 71, 76
17, 51600, Note_on_c, 11, 62, 76
17, 51651, Note_on_c, 11, 71, 0
17, 51651, Note_on_c, 11, 62, 0
17, 51660, Note_on_c, 11, 62, 76
17, 51660, Note_on_c, 11, 71, 76
17, 51711, Note_on_c, 11, 62, 0
17, 51711, Note_on_c, 11, 71, 0
17, 51720, Note_on_c, 11, 62, 76
17, 51720, Note_on_c, 11, 71, 76
17, 51771, Note_on_c, 11, 62, 0
17, 51771, Note_on_c, 11, 71, 0
17, 51780, Note_on_c, 11, 71, 76
17, 51780, Note_on_c, 11, 62, 76
17, 51831, Note_on_c, 11, 71, 0
17, 51831, Note_on_c, 11, 62, 0
17, 51840, Note_on_c, 11, 72, 80
17, 51840, Note_on_c, 11, 63, 80
17, 51891, Note_on_c, 11, 72, 0
17, 51891, Note_on_c, 11, 63, 0
17, 51900, Note_on_c, 11, 63, 80
17, 51900, Note_on_c, 11, 72, 80
17, 51951, Note_on_c, 11, 63, 0
17, 51951, Note_on_c, 11, 72, 0
17, 51960, Note_on_c, 11, 63, 80
17, 51960, Note_on_c, 11, 72, 80
17, 52011, Note_on_c, 11, 63, 0
17, 52011, Note_on_c, 11, 72, 0
17, 52020, Note_on_c, 11, 63, 80
17, 52020, Note_on_c, 11, 72, 80
17, 52071, Note_on_c, 11, 63, 0
17, 52071, Note_on_c, 11, 72, 0
17, 52080, Note_on_c, 11, 72, 80
17, 52080, Note_on_c, 11, 63, 80
17, 52131, Note_on_c, 11, 72, 0
17, 52131, Note_on_c, 11, 63, 0
17, 52140, Note_on_c, 11, 63, 80
17, 52140, Note_on_c, 11, 72, 80
17, 52191, Note_on_c, 11, 63, 0
17, 52191, Note_on_c, 11, 72, 0
17, 52200, Note_on_c, 11, 72, 80
17, 52200, Note_on_c, 11, 63, 80
17, 52251, Note_on_c, 11, 72, 0
17, 52251, Note_on_c, 11, 63, 0
17, 52260, Note_on_c, 11, 72, 80
17, 52260, Note_on_c, 11, 63, 80
17, 52311, Note_on_c, 11, 72, 0
17, 52311, Note_on_c, 11, 63, 0
17, 52320, Note_on_c, 11, 72, 80
17, 52320, Note_on_c, 11, 64, 80
17, 52371, Note_on_c, 11, 72, 0
17, 52371, Note_on_c, 11, 64, 0
17, 52380, Note_on_c, 11, 72, 80
17, 52380, Note_on_c, 11, 64, 80
17, 52431, Note_on_c, 11, 72, 0
17, 52431, Note_on_c, 11, 64, 0
17, 52440, Note_on_c, 11, 72, 80
17, 52440, Note_on_c, 11, 64, 80
17, 52491, Note_on_c, 11, 72, 0
17, 52491, Note_on_c, 11, 64, 0
17, 52500, Note_on_c, 11, 72, 80
17, 52500, Note_on_c, 11, 64, 80
17, 52551, Note_on_c, 11, 72, 0
17, 52551, Note_on_c, 11, 64, 0
17, 52560, Note_on_c, 11, 72, 80
17, 52560, Note_on_c, 11, 64, 80
17, 52611, Note_on_c, 11, 72, 0
17, 52611, Note_on_c, 11, 64, 0
17, 52620, Note_on_c, 11, 64, 80
17, 52620, Note_on_c, 11, 72, 80
17, 52671, Note_on_c, 11, 64, 0
17, 52671, Note_on_c, 11, 72, 0
17, 52680, Note_on_c, 11, 64, 80
17, 52680, Note_on_c, 11, 72, 80
17, 52731, Note_on_c, 11, 64, 0
17, 52731, Note_on_c, 11, 72, 0
17, 52740, Note_on_c, 11, 72, 80
17, 52740, Note_on_c, 11, 64, 80
17, 52791, Note_on_c, 11, 72, 0
17, 52791, Note_on_c, 11, 64, 0
17, 52800, Note_on_c, 11, 73, 76
17, 52800, Note_on_c, 11, 64, 76
17, 52851, Note_on_c, 11, 73, 0
17, 52851, Note_on_c, 11, 64, 0
17, 52860, Note_on_c, 11, 64, 52
17, 52860, Note_on_c, 11, 61, 52
17, 52911, Note_on_c, 11, 64, 0
17, 52911, Note_on_c, 11, 61, 0
17, 52920, Note_on_c, 11, 61, 52
17, 52920, Note_on_c, 11, 64, 52
17, 52971, Note_on_c, 11, 61, 0
17, 52971, Note_on_c, 11, 64, 0
17, 52980, Note_on_c, 11, 61, 52
17, 52980, Note_on_c, 11, 64, 52
17, 53031, Note_on_c, 11, 61, 0
17, 53031, Note_on_c, 11, 64, 0
17, 53040, Note_on_c, 11, 61, 52
17, 53040, Note_on_c, 11, 64, 52
17, 53091, Note_on_c, 11, 61, 0
17, 53091, Note_on_c, 11, 64, 0
17, 53100, Note_on_c, 11, 61, 52
17, 53100, Note_on_c, 11, 64, 52
17, 53151, Note_on_c, 11, 61, 0
17, 53151, Note_on_c, 11, 64, 0
17, 53160, Note_on_c, 11, 61, 52
17, 53160, Note_on_c, 11, 64, 52
17, 53211, Note_on_c, 11, 61, 0
17, 53211, Note_on_c, 11, 64, 0
17, 53220, Note_on_c, 11, 64, 52
17, 53220, Note_on_c, 11, 61, 52
17, 53271, Note_on_c, 11, 64, 0
17, 53271, Note_on_c, 11, 61, 0
17, 53280, Note_on_c, 11, 61, 52
17, 53280, Note_on_c, 11, 64, 52
17, 53331, Note_on_c, 11, 61, 0
17, 53331, Note_on_c, 11, 64, 0
17, 53340, Note_on_c, 11, 64, 52
17, 53340, Note_on_c, 11, 61, 52
17, 53391, Note_on_c, 11, 64, 0
17, 53391, Note_on_c, 11, 61, 0
17, 53400, Note_on_c, 11, 61, 52
17, 53400, Note_on_c, 11, 64, 52
17, 53451, Note_on_c, 11, 61, 0
17, 53451, Note_on_c, 11, 64, 0
17, 53460, Note_on_c, 11, 64, 52
17, 53460, Note_on_c, 11, 61, 52
17, 53511, Note_on_c, 11, 64, 0
17, 53511, Note_on_c, 11, 61, 0
17, 53520, Note_on_c, 11, 61, 52
17, 53520, Note_on_c, 11, 64, 52
17, 53571, Note_on_c, 11, 61, 0
17, 53571, Note_on_c, 11, 64, 0
17, 53580, Note_on_c, 11, 61, 52
17, 53580, Note_on_c, 11, 64, 52
17, 53631, Note_on_c, 11, 61, 0
17, 53631, Note_on_c, 11, 64, 0
17, 53640, Note_on_c, 11, 61, 52
17, 53640, Note_on_c, 11, 64, 52
17, 53691, Note_on_c, 11, 61, 0
17, 53691, Note_on_c, 11, 64, 0
17, 53700, Note_on_c, 11, 64, 52
17, 53700, Note_on_c, 11, 61, 52
17, 53751, Note_on_c, 11, 64, 0
17, 53751, Note_on_c, 11, 61, 0
17, 53760, Note_on_c, 11, 64, 52
17, 53760, Note_on_c, 11, 61, 52
17, 53811, Note_on_c, 11, 64, 0
17, 53811, Note_on_c, 11, 61, 0
17, 53820, Note_on_c, 11, 61, 52
17, 53820, Note_on_c, 11, 64, 52
17, 53871, Note_on_c, 11, 61, 0
17, 53871, Note_on_c, 11, 64, 0
17, 53880, Note_on_c, 11, 64, 52
17, 53880, Note_on_c, 11, 61, 52
17, 53931, Note_on_c, 11, 64, 0
17, 53931, Note_on_c, 11, 61, 0
17, 53940, Note_on_c, 11, 64, 52
17, 53940, Note_on_c, 11, 61, 52
17, 53991, Note_on_c, 11, 64, 0
17, 53991, Note_on_c, 11, 61, 0
17, 54000, Note_on_c, 11, 61, 52
17, 54000, Note_on_c, 11, 64, 52
17, 54051, Note_on_c, 11, 61, 0
17, 54051, Note_on_c, 11, 64, 0
17, 54060, Note_on_c, 11, 61, 52
17, 54060, Note_on_c, 11, 64, 52
17, 54111, Note_on_c, 11, 61, 0
17, 54111, Note_on_c, 11, 64, 0
17, 54120, Note_on_c, 11, 61, 52
17, 54120, Note_on_c, 11, 64, 52
17, 54171, Note_on_c, 11, 61, 0
17, 54171, Note_on_c, 11, 64, 0
17, 54180, Note_on_c, 11, 61, 52
17, 54180, Note_on_c, 11, 64, 52
17, 54231, Note_on_c, 11, 61, 0
17, 54231, Note_on_c, 11, 64, 0
17, 54240, Note_on_c, 11, 64, 52
17, 54240, Note_on_c, 11, 61, 52
17, 54291, Note_on_c, 11, 64, 0
17, 54291, Note_on_c, 11, 61, 0
17, 54300, Note_on_c, 11, 64, 52
17, 54300, Note_on_c, 11, 61, 52
17, 54351, Note_on_c, 11, 64, 0
17, 54351, Note_on_c, 11, 61, 0
17, 54360, Note_on_c, 11, 61, 52
17, 54360, Note_on_c, 11, 64, 52
17, 54411, Note_on_c, 11, 61, 0
17, 54411, Note_on_c, 11, 64, 0
17, 54420, Note_on_c, 11, 64, 52
17, 54420, Note_on_c, 11, 61, 52
17, 54471, Note_on_c, 11, 64, 0
17, 54471, Note_on_c, 11, 61, 0
17, 54480, Note_on_c, 11, 64, 52
17, 54480, Note_on_c, 11, 61, 52
17, 54531, Note_on_c, 11, 64, 0
17, 54531, Note_on_c, 11, 61, 0
17, 54540, Note_on_c, 11, 61, 52
17, 54540, Note_on_c, 11, 64, 52
17, 54591, Note_on_c, 11, 61, 0
17, 54591, Note_on_c, 11, 64, 0
17, 54600, Note_on_c, 11, 64, 52
17, 54600, Note_on_c, 11, 61, 52
17, 54651, Note_on_c, 11, 64, 0
17, 54651, Note_on_c, 11, 61, 0
17, 54660, Note_on_c, 11, 64, 52
17, 54660, Note_on_c, 11, 61, 52
17, 54711, Note_on_c, 11, 64, 0
17, 54711, Note_on_c, 11, 61, 0
17, 54720, Note_on_c, 11, 64, 52
17, 54720, Note_on_c, 11, 61, 52
17, 54771, Note_on_c, 11, 64, 0
17, 54771, Note_on_c, 11, 61, 0
17, 54780, Note_on_c, 11, 64, 52
17, 54780, Note_on_c, 11, 61, 52
17, 54831, Note_on_c, 11, 64, 0
17, 54831, Note_on_c, 11, 61, 0
17, 54840, Note_on_c, 11, 61, 52
17, 54840, Note_on_c, 11, 64, 52
17, 54891, Note_on_c, 11, 61, 0
17, 54891, Note_on_c, 11, 64, 0
17, 54900, Note_on_c, 11, 64, 52
17, 54900, Note_on_c, 11, 61, 52
17, 54951, Note_on_c, 11, 64, 0
17, 54951, Note_on_c, 11, 61, 0
17, 54960, Note_on_c, 11, 61, 52
17, 54960, Note_on_c, 11, 64, 52
17, 55011, Note_on_c, 11, 61, 0
17, 55011, Note_on_c, 11, 64, 0
17, 55020, Note_on_c, 11, 61, 52
17, 55020, Note_on_c, 11, 64, 52
17, 55071, Note_on_c, 11, 61, 0
17, 55071, Note_on_c, 11, 64, 0
17, 55080, Note_on_c, 11, 61, 52
17, 55080, Note_on_c, 11, 64, 52
17, 55131, Note_on_c, 11, 61, 0
17, 55131, Note_on_c, 11, 64, 0
17, 55140, Note_on_c, 11, 61, 52
17, 55140, Note_on_c, 11, 64, 52
17, 55191, Note_on_c, 11, 61, 0
17, 55191, Note_on_c, 11, 64, 0
17, 55200, Note_on_c, 11, 61, 52
17, 55200, Note_on_c, 11, 64, 52
17, 55251, Note_on_c, 11, 61, 0
17, 55251, Note_on_c, 11, 64, 0
17, 55260, Note_on_c, 11, 64, 52
17, 55260, Note_on_c, 11, 61, 52
17, 55311, Note_on_c, 11, 64, 0
17, 55311, Note_on_c, 11, 61, 0
17, 55320, Note_on_c, 11, 61, 52
17, 55320, Note_on_c, 11, 64, 52
17, 55371, Note_on_c, 11, 61, 0
17, 55371, Note_on_c, 11, 64, 0
17, 55380, Note_on_c, 11, 64, 52
17, 55380, Note_on_c, 11, 61, 52
17, 55431, Note_on_c, 11, 64, 0
17, 55431, Note_on_c, 11, 61, 0
17, 55440, Note_on_c, 11, 64, 52
17, 55440, Note_on_c, 11, 61, 52
17, 55491, Note_on_c, 11, 64, 0
17, 55491, Note_on_c, 11, 61, 0
17, 55500, Note_on_c, 11, 64, 52
17, 55500, Note_on_c, 11, 61, 52
17, 55551, Note_on_c, 11, 64, 0
17, 55551, Note_on_c, 11, 61, 0
17, 55560, Note_on_c, 11, 61, 52
17, 55560, Note_on_c, 11, 64, 52
17, 55611, Note_on_c, 11, 61, 0
17, 55611, Note_on_c, 11, 64, 0
17, 55620, Note_on_c, 11, 64, 52
17, 55620, Note_on_c, 11, 61, 52
17, 55671, Note_on_c, 11, 64, 0
17, 55671, Note_on_c, 11, 61, 0
17, 55680, Note_on_c, 11, 61, 52
17, 55680, Note_on_c, 11, 64, 52
17, 55731, Note_on_c, 11, 61, 0
17, 55731, Note_on_c, 11, 64, 0
17, 55740, Note_on_c, 11, 61, 52
17, 55740, Note_on_c, 11, 64, 52
17, 55791, Note_on_c, 11, 61, 0
17, 55791, Note_on_c, 11, 64, 0
17, 55800, Note_on_c, 11, 64, 52
17, 55800, Note_on_c, 11, 61, 52
17, 55851, Note_on_c, 11, 64, 0
17, 55851, Note_on_c, 11, 61, 0
17, 55860, Note_on_c, 11, 61, 52
17, 55860, Note_on_c, 11, 64, 52
17, 55911, Note_on_c, 11, 61, 0
17, 55911, Note_on_c, 11, 64, 0
17, 55920, Note_on_c, 11, 64, 52
17, 55920, Note_on_c, 11, 61, 52
17, 55971, Note_on_c, 11, 64, 0
17, 55971, Note_on_c, 11, 61, 0
17, 55980, Note_on_c, 11, 61, 52
17, 55980, Note_on_c, 11, 64, 52
17, 56031, Note_on_c, 11, 61, 0
17, 56031, Note_on_c, 11, 64, 0
17, 56040, Note_on_c, 11, 64, 52
17, 56040, Note_on_c, 11, 61, 52
17, 56091, Note_on_c, 11, 64, 0
17, 56091, Note_on_c, 11, 61, 0
17, 56100, Note_on_c, 11, 61, 52
17, 56100, Note_on_c, 11, 64, 52
17, 56151, Note_on_c, 11, 61, 0
17, 56151, Note_on_c, 11, 64, 0
17, 56160, Note_on_c, 11, 64, 52
17, 56160, Note_on_c, 11, 61, 52
17, 56211, Note_on_c, 11, 64, 0
17, 56211, Note_on_c, 11, 61, 0
17, 56220, Note_on_c, 11, 61, 52
17, 56220, Note_on_c, 11, 64, 52
17, 56271, Note_on_c, 11, 61, 0
17, 56271, Note_on_c, 11, 64, 0
17, 56280, Note_on_c, 11, 61, 52
17, 56280, Note_on_c, 11, 64, 52
17, 56331, Note_on_c, 11, 61, 0
17, 56331, Note_on_c, 11, 64, 0
17, 56340, Note_on_c, 11, 64, 52
17, 56340, Note_on_c, 11, 61, 52
17, 56391, Note_on_c, 11, 64, 0
17, 56391, Note_on_c, 11, 61, 0
17, 56400, Note_on_c, 11, 64, 52
17, 56400, Note_on_c, 11, 61, 52
17, 56451, Note_on_c, 11, 64, 0
17, 56451, Note_on_c, 11, 61, 0
17, 56460, Note_on_c, 11, 64, 52
17, 56460, Note_on_c, 11, 61, 52
17, 56511, Note_on_c, 11, 64, 0
17, 56511, Note_on_c, 11, 61, 0
17, 56520, Note_on_c, 11, 61, 52
17, 56520, Note_on_c, 11, 64, 52
17, 56571, Note_on_c, 11, 61, 0
17, 56571, Note_on_c, 11, 64, 0
17, 56580, Note_on_c, 11, 64, 52
17, 56580, Note_on_c, 11, 61, 52
17, 56631, Note_on_c, 11, 64, 0
17, 56631, Note_on_c, 11, 61, 0
17, 56640, Note_on_c, 11, 61, 52
17, 56640, Note_on_c, 11, 64, 52
17, 56691, Note_on_c, 11, 61, 0
17, 56691, Note_on_c, 11, 64, 0
17, 56700, Note_on_c, 11, 64, 52
17, 56700, Note_on_c, 11, 61, 52
17, 56751, Note_on_c, 11, 64, 0
17, 56751, Note_on_c, 11, 61, 0
17, 56760, Note_on_c, 11, 61, 52
17, 56760, Note_on_c, 11, 64, 52
17, 56811, Note_on_c, 11, 61, 0
17, 56811, Note_on_c, 11, 64, 0
17, 56820, Note_on_c, 11, 61, 52
17, 56820, Note_on_c, 11, 64, 52
17, 56871, Note_on_c, 11, 61, 0
17, 56871, Note_on_c, 11, 64, 0
17, 56880, Note_on_c, 11, 61, 52
17, 56880, Note_on_c, 11, 64, 52
17, 56931, Note_on_c, 11, 61, 0
17, 56931, Note_on_c, 11, 64, 0
17, 56940, Note_on_c, 11, 64, 52
17, 56940, Note_on_c, 11, 61, 52
17, 56991, Note_on_c, 11, 64, 0
17, 56991, Note_on_c, 11, 61, 0
17, 57000, Note_on_c, 11, 64, 52
17, 57000, Note_on_c, 11, 61, 52
17, 57051, Note_on_c, 11, 64, 0
17, 57051, Note_on_c, 11, 61, 0
17, 57060, Note_on_c, 11, 61, 52
17, 57060, Note_on_c, 11, 64, 52
17, 57111, Note_on_c, 11, 61, 0
17, 57111, Note_on_c, 11, 64, 0
17, 57120, Note_on_c, 11, 64, 52
17, 57120, Note_on_c, 11, 61, 52
17, 57171, Note_on_c, 11, 64, 0
17, 57171, Note_on_c, 11, 61, 0
17, 57180, Note_on_c, 11, 61, 52
17, 57180, Note_on_c, 11, 64, 52
17, 57231, Note_on_c, 11, 61, 0
17, 57231, Note_on_c, 11, 64, 0
17, 57240, Note_on_c, 11, 64, 52
17, 57240, Note_on_c, 11, 61, 52
17, 57291, Note_on_c, 11, 64, 0
17, 57291, Note_on_c, 11, 61, 0
17, 57300, Note_on_c, 11, 64, 52
17, 57300, Note_on_c, 11, 61, 52
17, 57351, Note_on_c, 11, 64, 0
17, 57351, Note_on_c, 11, 61, 0
17, 57360, Note_on_c, 11, 61, 52
17, 57360, Note_on_c, 11, 64, 52
17, 57411, Note_on_c, 11, 61, 0
17, 57411, Note_on_c, 11, 64, 0
17, 57420, Note_on_c, 11, 61, 52
17, 57420, Note_on_c, 11, 64, 52
17, 57471, Note_on_c, 11, 61, 0
17, 57471, Note_on_c, 11, 64, 0
17, 57480, Note_on_c, 11, 64, 52
17, 57480, Note_on_c, 11, 61, 52
17, 57531, Note_on_c, 11, 64, 0
17, 57531, Note_on_c, 11, 61, 0
17, 57540, Note_on_c, 11, 64, 52
17, 57540, Note_on_c, 11, 61, 52
17, 57591, Note_on_c, 11, 64, 0
17, 57591, Note_on_c, 11, 61, 0
17, 57600, Note_on_c, 11, 64, 52
17, 57600, Note_on_c, 11, 61, 52
17, 57651, Note_on_c, 11, 64, 0
17, 57651, Note_on_c, 11, 61, 0
17, 57660, Note_on_c, 11, 64, 52
17, 57660, Note_on_c, 11, 61, 52
17, 57711, Note_on_c, 11, 64, 0
17, 57711, Note_on_c, 11, 61, 0
17, 57720, Note_on_c, 11, 64, 52
17, 57720, Note_on_c, 11, 61, 52
17, 57771, Note_on_c, 11, 64, 0
17, 57771, Note_on_c, 11, 61, 0
17, 57780, Note_on_c, 11, 64, 52
17, 57780, Note_on_c, 11, 61, 52
17, 57831, Note_on_c, 11, 64, 0
17, 57831, Note_on_c, 11, 61, 0
17, 57840, Note_on_c, 11, 64, 52
17, 57840, Note_on_c, 11, 61, 52
17, 57891, Note_on_c, 11, 64, 0
17, 57891, Note_on_c, 11, 61, 0
17, 57900, Note_on_c, 11, 64, 52
17, 57900, Note_on_c, 11, 61, 52
17, 57951, Note_on_c, 11, 64, 0
17, 57951, Note_on_c, 11, 61, 0
17, 57960, Note_on_c, 11, 61, 52
17, 57960, Note_on_c, 11, 64, 52
17, 58011, Note_on_c, 11, 61, 0
17, 58011, Note_on_c, 11, 64, 0
17, 58020, Note_on_c, 11, 61, 52
17, 58020, Note_on_c, 11, 64, 52
17, 58071, Note_on_c, 11, 61, 0
17, 58071, Note_on_c, 11, 64, 0
17, 58080, Note_on_c, 11, 64, 52
17, 58080, Note_on_c, 11, 61, 52
17, 58131, Note_on_c, 11, 64, 0
17, 58131, Note_on_c, 11, 61, 0
17, 58140, Note_on_c, 11, 61, 52
17, 58140, Note_on_c, 11, 64, 52
17, 58191, Note_on_c, 11, 61, 0
17, 58191, Note_on_c, 11, 64, 0
17, 58200, Note_on_c, 11, 61, 52
17, 58200, Note_on_c, 11, 64, 52
17, 58251, Note_on_c, 11, 61, 0
17, 58251, Note_on_c, 11, 64, 0
17, 58260, Note_on_c, 11, 64, 52
17, 58260, Note_on_c, 11, 61, 52
17, 58311, Note_on_c, 11, 64, 0
17, 58311, Note_on_c, 11, 61, 0
17, 58320, Note_on_c, 11, 61, 52
17, 58320, Note_on_c, 11, 64, 52
17, 58371, Note_on_c, 11, 61, 0
17, 58371, Note_on_c, 11, 64, 0
17, 58380, Note_on_c, 11, 61, 52
17, 58380, Note_on_c, 11, 64, 52
17, 58431, Note_on_c, 11, 61, 0
17, 58431, Note_on_c, 11, 64, 0
17, 58440, Note_on_c, 11, 64, 52
17, 58440, Note_on_c, 11, 61, 52
17, 58491, Note_on_c, 11, 64, 0
17, 58491, Note_on_c, 11, 61, 0
17, 58500, Note_on_c, 11, 61, 52
17, 58500, Note_on_c, 11, 64, 52
17, 58551, Note_on_c, 11, 61, 0
17, 58551, Note_on_c, 11, 64, 0
17, 58560, Note_on_c, 11, 57, 44
17, 58611, Note_on_c, 11, 57, 0
17, 58620, Note_on_c, 11, 57, 44
17, 58671, Note_on_c, 11, 57, 0
17, 58680, Note_on_c, 11, 57, 44
17, 58731, Note_on_c, 11, 57, 0
17, 58740, Note_on_c, 11, 57, 44
17, 58791, Note_on_c, 11, 57, 0
17, 58800, Note_on_c, 11, 57, 44
17, 58851, Note_on_c, 11, 57, 0
17, 58860, Note_on_c, 11, 57, 44
17, 58911, Note_on_c, 11, 57, 0
17, 58920, Note_on_c, 11, 57, 44
17, 58971, Note_on_c, 11, 57, 0
17, 58980, Note_on_c, 11, 57, 44
17, 59031, Note_on_c, 11, 57, 0
17, 59040, Note_on_c, 11, 57, 44
17, 59091, Note_on_c, 11, 57, 0
17, 59100, Note_on_c, 11, 57, 44
17, 59151, Note_on_c, 11, 57, 0
17, 59160, Note_on_c, 11, 57, 44
17, 59211, Note_on_c, 11, 57, 0
17, 59220, Note_on_c, 11, 57, 44
17, 59271, Note_on_c, 11, 57, 0
17, 59280, Note_on_c, 11, 57, 44
17, 59331, Note_on_c, 11, 57, 0
17, 59340, Note_on_c, 11, 57, 44
17, 59391, Note_on_c, 11, 57, 0
17, 59400, Note_on_c, 11, 57, 44
17, 59451, Note_on_c, 11, 57, 0
17, 59460, Note_on_c, 11, 57, 44
17, 59511, Note_on_c, 11, 57, 0
17, 59520, Note_on_c, 11, 57, 44
17, 59571, Note_on_c, 11, 57, 0
17, 59580, Note_on_c, 11, 57, 44
17, 59631, Note_on_c, 11, 57, 0
17, 59640, Note_on_c, 11, 57, 44
17, 59691, Note_on_c, 11, 57, 0
17, 59700, Note_on_c, 11, 57, 44
17, 59751, Note_on_c, 11, 57, 0
17, 59760, Note_on_c, 11, 57, 44
17, 59811, Note_on_c, 11, 57, 0
17, 59820, Note_on_c, 11, 57, 44
17, 59871, Note_on_c, 11, 57, 0
17, 59880, Note_on_c, 11, 57, 44
17, 59931, Note_on_c, 11, 57, 0
17, 59940, Note_on_c, 11, 57, 44
17, 59991, Note_on_c, 11, 57, 0
17, 60000, Note_on_c, 11, 57, 44
17, 60051, Note_on_c, 11, 57, 0
17, 60060, Note_on_c, 11, 57, 44
17, 60111, Note_on_c, 11, 57, 0
17, 60120, Note_on_c, 11, 57, 44
17, 60171, Note_on_c, 11, 57, 0
17, 60180, Note_on_c, 11, 57, 44
17, 60231, Note_on_c, 11, 57, 0
17, 60240, Note_on_c, 11, 57, 44
17, 60291, Note_on_c, 11, 57, 0
17, 60300, Note_on_c, 11, 57, 44
17, 60351, Note_on_c, 11, 57, 0
17, 60360, Note_on_c, 11, 57, 44
17, 60411, Note_on_c, 11, 57, 0
17, 60420, Note_on_c, 11, 57, 44
17, 60471, Note_on_c, 11, 57, 0
17, 60480, Note_on_c, 11, 57, 44
17, 60531, Note_on_c, 11, 57, 0
17, 60540, Note_on_c, 11, 57, 44
17, 60591, Note_on_c, 11, 57, 0
17, 60600, Note_on_c, 11, 57, 44
17, 60651, Note_on_c, 11, 57, 0
17, 60660, Note_on_c, 11, 57, 44
17, 60711, Note_on_c, 11, 57, 0
17, 60720, Note_on_c, 11, 57, 44
17, 60771, Note_on_c, 11, 57, 0
17, 60780, Note_on_c, 11, 57, 44
17, 60831, Note_on_c, 11, 57, 0
17, 60840, Note_on_c, 11, 57, 44
17, 60891, Note_on_c, 11, 57, 0
17, 60900, Note_on_c, 11, 57, 44
17, 60951, Note_on_c, 11, 57, 0
17, 60960, Note_on_c, 11, 57, 44
17, 61011, Note_on_c, 11, 57, 0
17, 61020, Note_on_c, 11, 57, 44
17, 61071, Note_on_c, 11, 57, 0
17, 61080, Note_on_c, 11, 57, 44
17, 61131, Note_on_c, 11, 57, 0
17, 61140, Note_on_c, 11, 57, 44
17, 61191, Note_on_c, 11, 57, 0
17, 61200, Note_on_c, 11, 57, 44
17, 61251, Note_on_c, 11, 57, 0
17, 61260, Note_on_c, 11, 57, 44
17, 61311, Note_on_c, 11, 57, 0
17, 61320, Note_on_c, 11, 57, 44
17, 61371, Note_on_c, 11, 57, 0
17, 61380, Note_on_c, 11, 57, 44
17, 61431, Note_on_c, 11, 57, 0
17, 61440, Note_on_c, 11, 57, 44
17, 61491, Note_on_c, 11, 57, 0
17, 61500, Note_on_c, 11, 57, 44
17, 61551, Note_on_c, 11, 57, 0
17, 61560, Note_on_c, 11, 57, 44
17, 61611, Note_on_c, 11, 57, 0
17, 61620, Note_on_c, 11, 57, 44
17, 61671, Note_on_c, 11, 57, 0
17, 61680, Note_on_c, 11, 57, 44
17, 61731, Note_on_c, 11, 57, 0
17, 61740, Note_on_c, 11, 57, 44
17, 61791, Note_on_c, 11, 57, 0
17, 61800, Note_on_c, 11, 57, 44
17, 61851, Note_on_c, 11, 57, 0
17, 61860, Note_on_c, 11, 57, 44
17, 61911, Note_on_c, 11, 57, 0
17, 61920, Note_on_c, 11, 57, 44
17, 61971, Note_on_c, 11, 57, 0
17, 61980, Note_on_c, 11, 57, 44
17, 62031, Note_on_c, 11, 57, 0
17, 62040, Note_on_c, 11, 57, 44
17, 62091, Note_on_c, 11, 57, 0
17, 62100, Note_on_c, 11, 57, 44
17, 62151, Note_on_c, 11, 57, 0
17, 62160, Note_on_c, 11, 57, 44
17, 62211, Note_on_c, 11, 57, 0
17, 62220, Note_on_c, 11, 57, 44
17, 62271, Note_on_c, 11, 57, 0
17, 62280, Note_on_c, 11, 57, 44
17, 62331, Note_on_c, 11, 57, 0
17, 62340, Note_on_c, 11, 57, 44
17, 62391, Note_on_c, 11, 57, 0
17, 62400, Note_on_c, 11, 62, 44
17, 62451, Note_on_c, 11, 62, 0
17, 62460, Note_on_c, 11, 62, 44
17, 62511, Note_on_c, 11, 62, 0
17, 62520, Note_on_c, 11, 62, 44
17, 62571, Note_on_c, 11, 62, 0
17, 62580, Note_on_c, 11, 62, 44
17, 62631, Note_on_c, 11, 62, 0
17, 62640, Note_on_c, 11, 62, 44
17, 62691, Note_on_c, 11, 62, 0
17, 62700, Note_on_c, 11, 62, 44
17, 62751, Note_on_c, 11, 62, 0
17, 62760, Note_on_c, 11, 62, 44
17, 62811, Note_on_c, 11, 62, 0
17, 62820, Note_on_c, 11, 62, 44
17, 62871, Note_on_c, 11, 62, 0
17, 62880, Note_on_c, 11, 62, 44
17, 62931, Note_on_c, 11, 62, 0
17, 62940, Note_on_c, 11, 62, 44
17, 62991, Note_on_c, 11, 62, 0
17, 63000, Note_on_c, 11, 62, 44
17, 63051, Note_on_c, 11, 62, 0
17, 63060, Note_on_c, 11, 62, 44
17, 63111, Note_on_c, 11, 62, 0
17, 63120, Note_on_c, 11, 62, 44
17, 63171, Note_on_c, 11, 62, 0
17, 63180, Note_on_c, 11, 62, 44
17, 63231, Note_on_c, 11, 62, 0
17, 63240, Note_on_c, 11, 62, 44
17, 63291, Note_on_c, 11, 62, 0
17, 63300, Note_on_c, 11, 62, 44
17, 63351, Note_on_c, 11, 62, 0
17, 63360, Note_on_c, 11, 62, 44
17, 63411, Note_on_c, 11, 62, 0
17, 63420, Note_on_c, 11, 62, 44
17, 63471, Note_on_c, 11, 62, 0
17, 63480, Note_on_c, 11, 62, 44
17, 63531, Note_on_c, 11, 62, 0
17, 63540, Note_on_c, 11, 62, 44
17, 63591, Note_on_c, 11, 62, 0
17, 63600, Note_on_c, 11, 62, 44
17, 63651, Note_on_c, 11, 62, 0
17, 63660, Note_on_c, 11, 62, 44
17, 63711, Note_on_c, 11, 62, 0
17, 63720, Note_on_c, 11, 62, 44
17, 63771, Note_on_c, 11, 62, 0
17, 63780, Note_on_c, 11, 62, 44
17, 63831, Note_on_c, 11, 62, 0
17, 63840, Note_on_c, 11, 62, 44
17, 63891, Note_on_c, 11, 62, 0
17, 63900, Note_on_c, 11, 62, 44
17, 63951, Note_on_c, 11, 62, 0
17, 63960, Note_on_c, 11, 62, 44
17, 64011, Note_on_c, 11, 62, 0
17, 64020, Note_on_c, 11, 62, 44
17, 64071, Note_on_c, 11, 62, 0
17, 64080, Note_on_c, 11, 62, 44
17, 64131, Note_on_c, 11, 62, 0
17, 64140, Note_on_c, 11, 62, 44
17, 64191, Note_on_c, 11, 62, 0
17, 64200, Note_on_c, 11, 62, 44
17, 64251, Note_on_c, 11, 62, 0
17, 64260, Note_on_c, 11, 62, 44
17, 64311, Note_on_c, 11, 62, 0
17, 64320, Note_on_c, 11, 63, 44
17, 64320, Note_on_c, 11, 60, 44
17, 64371, Note_on_c, 11, 63, 0
17, 64371, Note_on_c, 11, 60, 0
17, 64380, Note_on_c, 11, 63, 44
17, 64380, Note_on_c, 11, 60, 44
17, 64431, Note_on_c, 11, 63, 0
17, 64431, Note_on_c, 11, 60, 0
17, 64440, Note_on_c, 11, 63, 44
17, 64440, Note_on_c, 11, 60, 44
17, 64491, Note_on_c, 11, 63, 0
17, 64491, Note_on_c, 11, 60, 0
17, 64500, Note_on_c, 11, 63, 44
17, 64500, Note_on_c, 11, 60, 44
17, 64551, Note_on_c, 11, 63, 0
17, 64551, Note_on_c, 11, 60, 0
17, 64560, Note_on_c, 11, 63, 44
17, 64560, Note_on_c, 11, 60, 44
17, 64611, Note_on_c, 11, 63, 0
17, 64611, Note_on_c, 11, 60, 0
17, 64620, Note_on_c, 11, 63, 44
17, 64620, Note_on_c, 11, 60, 44
17, 64671, Note_on_c, 11, 63, 0
17, 64671, Note_on_c, 11, 60, 0
17, 64680, Note_on_c, 11, 63, 44
17, 64680, Note_on_c, 11, 60, 44
17, 64731, Note_on_c, 11, 63, 0
17, 64731, Note_on_c, 11, 60, 0
17, 64740, Note_on_c, 11, 60, 44
17, 64740, Note_on_c, 11, 63, 44
17, 64791, Note_on_c, 11, 60, 0
17, 64791, Note_on_c, 11, 63, 0
17, 64800, Note_on_c, 11, 60, 44
17, 64800, Note_on_c, 11, 63, 44
17, 64851, Note_on_c, 11, 60, 0
17, 64851, Note_on_c, 11, 63, 0
17, 64860, Note_on_c, 11, 63, 44
17, 64860, Note_on_c, 11, 60, 44
17, 64911, Note_on_c, 11, 63, 0
17, 64911, Note_on_c, 11, 60, 0
17, 64920, Note_on_c, 11, 60, 44
17, 64920, Note_on_c, 11, 63, 44
17, 64971, Note_on_c, 11, 60, 0
17, 64971, Note_on_c, 11, 63, 0
17, 64980, Note_on_c, 11, 60, 44
17, 64980, Note_on_c, 11, 63, 44
17, 65031, Note_on_c, 11, 60, 0
17, 65031, Note_on_c, 11, 63, 0
17, 65040, Note_on_c, 11, 63, 44
17, 65040, Note_on_c, 11, 60, 44
17, 65091, Note_on_c, 11, 63, 0
17, 65091, Note_on_c, 11, 60, 0
17, 65100, Note_on_c, 11, 63, 44
17, 65100, Note_on_c, 11, 60, 44
17, 65151, Note_on_c, 11, 63, 0
17, 65151, Note_on_c, 11, 60, 0
17, 65160, Note_on_c, 11, 60, 44
17, 65160, Note_on_c, 11, 63, 44
17, 65211, Note_on_c, 11, 60, 0
17, 65211, Note_on_c, 11, 63, 0
17, 65220, Note_on_c, 11, 63, 44
17, 65220, Note_on_c, 11, 60, 44
17, 65271, Note_on_c, 11, 63, 0
17, 65271, Note_on_c, 11, 60, 0
17, 65280, Note_on_c, 11, 60, 44
17, 65280, Note_on_c, 11, 63, 44
17, 65331, Note_on_c, 11, 60, 0
17, 65331, Note_on_c, 11, 63, 0
17, 65340, Note_on_c, 11, 63, 44
17, 65340, Note_on_c, 11, 60, 44
17, 65391, Note_on_c, 11, 63, 0
17, 65391, Note_on_c, 11, 60, 0
17, 65400, Note_on_c, 11, 63, 44
17, 65400, Note_on_c, 11, 60, 44
17, 65451, Note_on_c, 11, 63, 0
17, 65451, Note_on_c, 11, 60, 0
17, 65460, Note_on_c, 11, 60, 44
17, 65460, Note_on_c, 11, 63, 44
17, 65511, Note_on_c, 11, 60, 0
17, 65511, Note_on_c, 11, 63, 0
17, 65520, Note_on_c, 11, 63, 44
17, 65520, Note_on_c, 11, 60, 44
17, 65571, Note_on_c, 11, 63, 0
17, 65571, Note_on_c, 11, 60, 0
17, 65580, Note_on_c, 11, 60, 44
17, 65580, Note_on_c, 11, 63, 44
17, 65631, Note_on_c, 11, 60, 0
17, 65631, Note_on_c, 11, 63, 0
17, 65640, Note_on_c, 11, 63, 44
17, 65640, Note_on_c, 11, 60, 44
17, 65691, Note_on_c, 11, 63, 0
17, 65691, Note_on_c, 11, 60, 0
17, 65700, Note_on_c, 11, 63, 44
17, 65700, Note_on_c, 11, 60, 44
17, 65751, Note_on_c, 11, 63, 0
17, 65751, Note_on_c, 11, 60, 0
17, 65760, Note_on_c, 11, 63, 44
17, 65760, Note_on_c, 11, 60, 44
17, 65811, Note_on_c, 11, 63, 0
17, 65811, Note_on_c, 11, 60, 0
17, 65820, Note_on_c, 11, 63, 44
17, 65820, Note_on_c, 11, 60, 44
17, 65871, Note_on_c, 11, 63, 0
17, 65871, Note_on_c, 11, 60, 0
17, 65880, Note_on_c, 11, 60, 44
17, 65880, Note_on_c, 11, 63, 44
17, 65931, Note_on_c, 11, 60, 0
17, 65931, Note_on_c, 11, 63, 0
17, 65940, Note_on_c, 11, 60, 44
17, 65940, Note_on_c, 11, 63, 44
17, 65991, Note_on_c, 11, 60, 0
17, 65991, Note_on_c, 11, 63, 0
17, 66000, Note_on_c, 11, 63, 44
17, 66000, Note_on_c, 11, 60, 44
17, 66051, Note_on_c, 11, 63, 0
17, 66051, Note_on_c, 11, 60, 0
17, 66060, Note_on_c, 11, 63, 44
17, 66060, Note_on_c, 11, 60, 44
17, 66111, Note_on_c, 11, 63, 0
17, 66111, Note_on_c, 11, 60, 0
17, 66120, Note_on_c, 11, 60, 44
17, 66120, Note_on_c, 11, 63, 44
17, 66171, Note_on_c, 11, 60, 0
17, 66171, Note_on_c, 11, 63, 0
17, 66180, Note_on_c, 11, 63, 44
17, 66180, Note_on_c, 11, 60, 44
17, 66231, Note_on_c, 11, 63, 0
17, 66231, Note_on_c, 11, 60, 0
17, 66240, Note_on_c, 11, 60, 44
17, 66240, Note_on_c, 11, 63, 44
17, 66291, Note_on_c, 11, 60, 0
17, 66291, Note_on_c, 11, 63, 0
17, 66300, Note_on_c, 11, 63, 44
17, 66300, Note_on_c, 11, 60, 44
17, 66351, Note_on_c, 11, 63, 0
17, 66351, Note_on_c, 11, 60, 0
17, 66360, Note_on_c, 11, 60, 44
17, 66360, Note_on_c, 11, 63, 44
17, 66411, Note_on_c, 11, 60, 0
17, 66411, Note_on_c, 11, 63, 0
17, 66420, Note_on_c, 11, 63, 44
17, 66420, Note_on_c, 11, 60, 44
17, 66471, Note_on_c, 11, 63, 0
17, 66471, Note_on_c, 11, 60, 0
17, 66480, Note_on_c, 11, 63, 44
17, 66480, Note_on_c, 11, 60, 44
17, 66531, Note_on_c, 11, 63, 0
17, 66531, Note_on_c, 11, 60, 0
17, 66540, Note_on_c, 11, 60, 44
17, 66540, Note_on_c, 11, 63, 44
17, 66591, Note_on_c, 11, 60, 0
17, 66591, Note_on_c, 11, 63, 0
17, 66600, Note_on_c, 11, 63, 44
17, 66600, Note_on_c, 11, 60, 44
17, 66651, Note_on_c, 11, 63, 0
17, 66651, Note_on_c, 11, 60, 0
17, 66660, Note_on_c, 11, 63, 44
17, 66660, Note_on_c, 11, 60, 44
17, 66711, Note_on_c, 11, 63, 0
17, 66711, Note_on_c, 11, 60, 0
17, 66720, Note_on_c, 11, 60, 44
17, 66720, Note_on_c, 11, 63, 44
17, 66771, Note_on_c, 11, 60, 0
17, 66771, Note_on_c, 11, 63, 0
17, 66780, Note_on_c, 11, 63, 44
17, 66780, Note_on_c, 11, 60, 44
17, 66831, Note_on_c, 11, 63, 0
17, 66831, Note_on_c, 11, 60, 0
17, 66840, Note_on_c, 11, 63, 44
17, 66840, Note_on_c, 11, 60, 44
17, 66891, Note_on_c, 11, 63, 0
17, 66891, Note_on_c, 11, 60, 0
17, 66900, Note_on_c, 11, 60, 44
17, 66900, Note_on_c, 11, 63, 44
17, 66951, Note_on_c, 11, 60, 0
17, 66951, Note_on_c, 11, 63, 0
17, 66960, Note_on_c, 11, 60, 44
17, 66960, Note_on_c, 11, 63, 44
17, 67011, Note_on_c, 11, 60, 0
17, 67011, Note_on_c, 11, 63, 0
17, 67020, Note_on_c, 11, 60, 44
17, 67020, Note_on_c, 11, 63, 44
17, 67071, Note_on_c, 11, 60, 0
17, 67071, Note_on_c, 11, 63, 0
17, 67080, Note_on_c, 11, 60, 44
17, 67080, Note_on_c, 11, 63, 44
17, 67131, Note_on_c, 11, 60, 0
17, 67131, Note_on_c, 11, 63, 0
17, 67140, Note_on_c, 11, 63, 44
17, 67140, Note_on_c, 11, 60, 44
17, 67191, Note_on_c, 11, 63, 0
17, 67191, Note_on_c, 11, 60, 0
17, 67200, Note_on_c, 11, 60, 44
17, 67200, Note_on_c, 11, 63, 44
17, 67251, Note_on_c, 11, 60, 0
17, 67251, Note_on_c, 11, 63, 0
17, 67260, Note_on_c, 11, 63, 44
17, 67260, Note_on_c, 11, 60, 44
17, 67311, Note_on_c, 11, 63, 0
17, 67311, Note_on_c, 11, 60, 0
17, 67320, Note_on_c, 11, 60, 44
17, 67320, Note_on_c, 11, 63, 44
17, 67371, Note_on_c, 11, 60, 0
17, 67371, Note_on_c, 11, 63, 0
17, 67380, Note_on_c, 11, 63, 44
17, 67380, Note_on_c, 11, 60, 44
17, 67431, Note_on_c, 11, 63, 0
17, 67431, Note_on_c, 11, 60, 0
17, 67440, Note_on_c, 11, 63, 44
17, 67440, Note_on_c, 11, 60, 44
17, 67491, Note_on_c, 11, 63, 0
17, 67491, Note_on_c, 11, 60, 0
17, 67500, Note_on_c, 11, 63, 44
17, 67500, Note_on_c, 11, 60, 44
17, 67551, Note_on_c, 11, 63, 0
17, 67551, Note_on_c, 11, 60, 0
17, 67560, Note_on_c, 11, 60, 44
17, 67560, Note_on_c, 11, 63, 44
17, 67611, Note_on_c, 11, 60, 0
17, 67611, Note_on_c, 11, 63, 0
17, 67620, Note_on_c, 11, 60, 44
17, 67620, Note_on_c, 11, 63, 44
17, 67671, Note_on_c, 11, 60, 0
17, 67671, Note_on_c, 11, 63, 0
17, 67680, Note_on_c, 11, 60, 44
17, 67680, Note_on_c, 11, 63, 44
17, 67731, Note_on_c, 11, 60, 0
17, 67731, Note_on_c, 11, 63, 0
17, 67740, Note_on_c, 11, 60, 44
17, 67740, Note_on_c, 11, 63, 44
17, 67791, Note_on_c, 11, 60, 0
17, 67791, Note_on_c, 11, 63, 0
17, 67800, Note_on_c, 11, 63, 44
17, 67800, Note_on_c, 11, 60, 44
17, 67851, Note_on_c, 11, 63, 0
17, 67851, Note_on_c, 11, 60, 0
17, 67860, Note_on_c, 11, 63, 44
17, 67860, Note_on_c, 11, 60, 44
17, 67911, Note_on_c, 11, 63, 0
17, 67911, Note_on_c, 11, 60, 0
17, 67920, Note_on_c, 11, 63, 44
17, 67920, Note_on_c, 11, 60, 44
17, 67971, Note_on_c, 11, 63, 0
17, 67971, Note_on_c, 11, 60, 0
17, 67980, Note_on_c, 11, 63, 44
17, 67980, Note_on_c, 11, 60, 44
17, 68031, Note_on_c, 11, 63, 0
17, 68031, Note_on_c, 11, 60, 0
17, 68040, Note_on_c, 11, 63, 44
17, 68040, Note_on_c, 11, 60, 44
17, 68091, Note_on_c, 11, 63, 0
17, 68091, Note_on_c, 11, 60, 0
17, 68100, Note_on_c, 11, 60, 44
17, 68100, Note_on_c, 11, 63, 44
17, 68151, Note_on_c, 11, 60, 0
17, 68151, Note_on_c, 11, 63, 0
17, 68160, Note_on_c, 11, 63, 44
17, 68160, Note_on_c, 11, 60, 44
17, 68211, Note_on_c, 11, 63, 0
17, 68211, Note_on_c, 11, 60, 0
17, 68220, Note_on_c, 11, 63, 44
17, 68220, Note_on_c, 11, 60, 44
17, 68271, Note_on_c, 11, 63, 0
17, 68271, Note_on_c, 11, 60, 0
17, 68280, Note_on_c, 11, 63, 44
17, 68280, Note_on_c, 11, 60, 44
17, 68331, Note_on_c, 11, 63, 0
17, 68331, Note_on_c, 11, 60, 0
17, 68340, Note_on_c, 11, 60, 45
17, 68340, Note_on_c, 11, 63, 45
17, 68391, Note_on_c, 11, 60, 0
17, 68391, Note_on_c, 11, 63, 0
17, 68400, Note_on_c, 11, 63, 45
17, 68400, Note_on_c, 11, 60, 45
17, 68451, Note_on_c, 11, 63, 0
17, 68451, Note_on_c, 11, 60, 0
17, 68460, Note_on_c, 11, 60, 46
17, 68460, Note_on_c, 11, 63, 46
17, 68511, Note_on_c, 11, 60, 0
17, 68511, Note_on_c, 11, 63, 0
17, 68520, Note_on_c, 11, 63, 46
17, 68520, Note_on_c, 11, 60, 46
17, 68571, Note_on_c, 11, 63, 0
17, 68571, Note_on_c, 11, 60, 0
17, 68580, Note_on_c, 11, 63, 46
17, 68580, Note_on_c, 11, 60, 46
17, 68631, Note_on_c, 11, 63, 0
17, 68631, Note_on_c, 11, 60, 0
17, 68640, Note_on_c, 11, 63, 47
17, 68640, Note_on_c, 11, 60, 47
17, 68691, Note_on_c, 11, 63, 0
17, 68691, Note_on_c, 11, 60, 0
17, 68700, Note_on_c, 11, 63, 47
17, 68700, Note_on_c, 11, 60, 47
17, 68751, Note_on_c, 11, 63, 0
17, 68751, Note_on_c, 11, 60, 0
17, 68760, Note_on_c, 11, 63, 48
17, 68760, Note_on_c, 11, 60, 48
17, 68811, Note_on_c, 11, 63, 0
17, 68811, Note_on_c, 11, 60, 0
17, 68820, Note_on_c, 11, 60, 48
17, 68820, Note_on_c, 11, 63, 48
17, 68871, Note_on_c, 11, 60, 0
17, 68871, Note_on_c, 11, 63, 0
17, 68880, Note_on_c, 11, 63, 49
17, 68880, Note_on_c, 11, 60, 49
17, 68931, Note_on_c, 11, 63, 0
17, 68931, Note_on_c, 11, 60, 0
17, 68940, Note_on_c, 11, 60, 49
17, 68940, Note_on_c, 11, 63, 49
17, 68991, Note_on_c, 11, 60, 0
17, 68991, Note_on_c, 11, 63, 0
17, 69000, Note_on_c, 11, 63, 49
17, 69000, Note_on_c, 11, 60, 49
17, 69051, Note_on_c, 11, 63, 0
17, 69051, Note_on_c, 11, 60, 0
17, 69060, Note_on_c, 11, 63, 50
17, 69060, Note_on_c, 11, 60, 50
17, 69111, Note_on_c, 11, 63, 0
17, 69111, Note_on_c, 11, 60, 0
17, 69120, Note_on_c, 11, 60, 50
17, 69120, Note_on_c, 11, 63, 50
17, 69171, Note_on_c, 11, 60, 0
17, 69171, Note_on_c, 11, 63, 0
17, 69180, Note_on_c, 11, 63, 51
17, 69180, Note_on_c, 11, 60, 51
17, 69231, Note_on_c, 11, 63, 0
17, 69231, Note_on_c, 11, 60, 0
17, 69240, Note_on_c, 11, 63, 51
17, 69240, Note_on_c, 11, 60, 51
17, 69291, Note_on_c, 11, 63, 0
17, 69291, Note_on_c, 11, 60, 0
17, 69300, Note_on_c, 11, 63, 51
17, 69300, Note_on_c, 11, 60, 51
17, 69351, Note_on_c, 11, 63, 0
17, 69351, Note_on_c, 11, 60, 0
17, 69360, Note_on_c, 11, 63, 52
17, 69360, Note_on_c, 11, 60, 52
17, 69411, Note_on_c, 11, 63, 0
17, 69411, Note_on_c, 11, 60, 0
17, 69420, Note_on_c, 11, 63, 52
17, 69420, Note_on_c, 11, 60, 52
17, 69471, Note_on_c, 11, 63, 0
17, 69471, Note_on_c, 11, 60, 0
17, 69480, Note_on_c, 11, 60, 53
17, 69480, Note_on_c, 11, 63, 53
17, 69531, Note_on_c, 11, 60, 0
17, 69531, Note_on_c, 11, 63, 0
17, 69540, Note_on_c, 11, 63, 53
17, 69540, Note_on_c, 11, 60, 53
17, 69591, Note_on_c, 11, 63, 0
17, 69591, Note_on_c, 11, 60, 0
17, 69600, Note_on_c, 11, 60, 54
17, 69600, Note_on_c, 11, 63, 54
17, 69651, Note_on_c, 11, 60, 0
17, 69651, Note_on_c, 11, 63, 0
17, 69660, Note_on_c, 11, 63, 54
17, 69660, Note_on_c, 11, 60, 54
17, 69711, Note_on_c, 11, 63, 0
17, 69711, Note_on_c, 11, 60, 0
17, 69720, Note_on_c, 11, 60, 54
17, 69720, Note_on_c, 11, 63, 54
17, 69771, Note_on_c, 11, 60, 0
17, 69771, Note_on_c, 11, 63, 0
17, 69780, Note_on_c, 11, 63, 55
17, 69780, Note_on_c, 11, 60, 55
17, 69831, Note_on_c, 11, 63, 0
17, 69831, Note_on_c, 11, 60, 0
17, 69840, Note_on_c, 11, 60, 55
17, 69840, Note_on_c, 11, 63, 55
17, 69891, Note_on_c, 11, 60, 0
17, 69891, Note_on_c, 11, 63, 0
17, 69900, Note_on_c, 11, 63, 56
17, 69900, Note_on_c, 11, 60, 56
17, 69951, Note_on_c, 11, 63, 0
17, 69951, Note_on_c, 11, 60, 0
17, 69960, Note_on_c, 11, 60, 56
17, 69960, Note_on_c, 11, 63, 56
17, 70011, Note_on_c, 11, 60, 0
17, 70011, Note_on_c, 11, 63, 0
17, 70020, Note_on_c, 11, 60, 56
17, 70020, Note_on_c, 11, 63, 56
17, 70071, Note_on_c, 11, 60, 0
17, 70071, Note_on_c, 11, 63, 0
17, 70080, Note_on_c, 11, 61, 57
17, 70131, Note_on_c, 11, 61, 0
17, 70140, Note_on_c, 11, 61, 57
17, 70191, Note_on_c, 11, 61, 0
17, 70200, Note_on_c, 11, 61, 58
17, 70251, Note_on_c, 11, 61, 0
17, 70260, Note_on_c, 11, 61, 58
17, 70311, Note_on_c, 11, 61, 0
17, 70320, Note_on_c, 11, 61, 59
17, 70371, Note_on_c, 11, 61, 0
17, 70380, Note_on_c, 11, 61, 59
17, 70431, Note_on_c, 11, 61, 0
17, 70440, Note_on_c, 11, 61, 59
17, 70491, Note_on_c, 11, 61, 0
17, 70500, Note_on_c, 11, 61, 60
17, 70551, Note_on_c, 11, 61, 0
17, 70560, Note_on_c, 11, 61, 60
17, 70611, Note_on_c, 11, 61, 0
17, 70620, Note_on_c, 11, 61, 61
17, 70671, Note_on_c, 11, 61, 0
17, 70680, Note_on_c, 11, 61, 61
17, 70731, Note_on_c, 11, 61, 0
17, 70740, Note_on_c, 11, 61, 61
17, 70791, Note_on_c, 11, 61, 0
17, 70800, Note_on_c, 11, 61, 62
17, 70851, Note_on_c, 11, 61, 0
17, 70860, Note_on_c, 11, 61, 62
17, 70911, Note_on_c, 11, 61, 0
17, 70920, Note_on_c, 11, 61, 63
17, 70971, Note_on_c, 11, 61, 0
17, 70980, Note_on_c, 11, 61, 63
17, 71031, Note_on_c, 11, 61, 0
17, 71040, Note_on_c, 11, 61, 64
17, 71091, Note_on_c, 11, 61, 0
17, 71100, Note_on_c, 11, 61, 64
17, 71151, Note_on_c, 11, 61, 0
17, 71160, Note_on_c, 11, 61, 64
17, 71211, Note_on_c, 11, 61, 0
17, 71220, Note_on_c, 11, 61, 65
17, 71271, Note_on_c, 11, 61, 0
17, 71280, Note_on_c, 11, 61, 65
17, 71331, Note_on_c, 11, 61, 0
17, 71340, Note_on_c, 11, 61, 66
17, 71391, Note_on_c, 11, 61, 0
17, 71400, Note_on_c, 11, 61, 66
17, 71451, Note_on_c, 11, 61, 0
17, 71460, Note_on_c, 11, 61, 66
17, 71511, Note_on_c, 11, 61, 0
17, 71520, Note_on_c, 11, 61, 67
17, 71571, Note_on_c, 11, 61, 0
17, 71580, Note_on_c, 11, 61, 67
17, 71631, Note_on_c, 11, 61, 0
17, 71640, Note_on_c, 11, 61, 68
17, 71691, Note_on_c, 11, 61, 0
17, 71700, Note_on_c, 11, 61, 68
17, 71751, Note_on_c, 11, 61, 0
17, 71760, Note_on_c, 11, 61, 69
17, 71811, Note_on_c, 11, 61, 0
17, 71820, Note_on_c, 11, 61, 69
17, 71871, Note_on_c, 11, 61, 0
17, 71880, Note_on_c, 11, 61, 69
17, 71931, Note_on_c, 11, 61, 0
17, 71940, Note_on_c, 11, 61, 70
17, 71991, Note_on_c, 11, 61, 0
17, 72000, Note_on_c, 11, 65, 70
17, 72000, Note_on_c, 11, 55, 70
17, 72051, Note_on_c, 11, 65, 0
17, 72051, Note_on_c, 11, 55, 0
17, 72060, Note_on_c, 11, 55, 71
17, 72060, Note_on_c, 11, 65, 71
17, 72111, Note_on_c, 11, 55, 0
17, 72111, Note_on_c, 11, 65, 0
17, 72120, Note_on_c, 11, 65, 71
17, 72120, Note_on_c, 11, 55, 71
17, 72171, Note_on_c, 11, 65, 0
17, 72171, Note_on_c, 11, 55, 0
17, 72180, Note_on_c, 11, 65, 71
17, 72180, Note_on_c, 11, 55, 71
17, 72231, Note_on_c, 11, 65, 0
17, 72231, Note_on_c, 11, 55, 0
17, 72240, Note_on_c, 11, 65, 72
17, 72240, Note_on_c, 11, 55, 72
17, 72291, Note_on_c, 11, 65, 0
17, 72291, Note_on_c, 11, 55, 0
17, 72300, Note_on_c, 11, 65, 72
17, 72300, Note_on_c, 11, 55, 72
17, 72351, Note_on_c, 11, 65, 0
17, 72351, Note_on_c, 11, 55, 0
17, 72360, Note_on_c, 11, 65, 73
17, 72360, Note_on_c, 11, 55, 73
17, 72411, Note_on_c, 11, 65, 0
17, 72411, Note_on_c, 11, 55, 0
17, 72420, Note_on_c, 11, 55, 73
17, 72420, Note_on_c, 11, 65, 73
17, 72471, Note_on_c, 11, 55, 0
17, 72471, Note_on_c, 11, 65, 0
17, 72480, Note_on_c, 11, 55, 74
17, 72480, Note_on_c, 11, 65, 74
17, 72531, Note_on_c, 11, 55, 0
17, 72531, Note_on_c, 11, 65, 0
17, 72540, Note_on_c, 11, 55, 74
17, 72540, Note_on_c, 11, 65, 74
17, 72591, Note_on_c, 11, 55, 0
17, 72591, Note_on_c, 11, 65, 0
17, 72600, Note_on_c, 11, 65, 74
17, 72600, Note_on_c, 11, 55, 74
17, 72651, Note_on_c, 11, 65, 0
17, 72651, Note_on_c, 11, 55, 0
17, 72660, Note_on_c, 11, 65, 75
17, 72660, Note_on_c, 11, 55, 75
17, 72711, Note_on_c, 11, 65, 0
17, 72711, Note_on_c, 11, 55, 0
17, 72720, Note_on_c, 11, 65, 75
17, 72720, Note_on_c, 11, 55, 75
17, 72771, Note_on_c, 11, 65, 0
17, 72771, Note_on_c, 11, 55, 0
17, 72780, Note_on_c, 11, 55, 76
17, 72780, Note_on_c, 11, 65, 76
17, 72831, Note_on_c, 11, 55, 0
17, 72831, Note_on_c, 11, 65, 0
17, 72840, Note_on_c, 11, 55, 76
17, 72840, Note_on_c, 11, 65, 76
17, 72891, Note_on_c, 11, 55, 0
17, 72891, Note_on_c, 11, 65, 0
17, 72900, Note_on_c, 11, 65, 76
17, 72900, Note_on_c, 11, 55, 76
17, 72951, Note_on_c, 11, 65, 0
17, 72951, Note_on_c, 11, 55, 0
17, 72960, Note_on_c, 11, 55, 77
17, 72960, Note_on_c, 11, 65, 77
17, 73011, Note_on_c, 11, 55, 0
17, 73011, Note_on_c, 11, 65, 0
17, 73020, Note_on_c, 11, 65, 77
17, 73020, Note_on_c, 11, 55, 77
17, 73071, Note_on_c, 11, 65, 0
17, 73071, Note_on_c, 11, 55, 0
17, 73080, Note_on_c, 11, 65, 78
17, 73080, Note_on_c, 11, 55, 78
17, 73131, Note_on_c, 11, 65, 0
17, 73131, Note_on_c, 11, 55, 0
17, 73140, Note_on_c, 11, 55, 78
17, 73140, Note_on_c, 11, 65, 78
17, 73191, Note_on_c, 11, 55, 0
17, 73191, Note_on_c, 11, 65, 0
17, 73200, Note_on_c, 11, 55, 79
17, 73200, Note_on_c, 11, 65, 79
17, 73251, Note_on_c, 11, 55, 0
17, 73251, Note_on_c, 11, 65, 0
17, 73260, Note_on_c, 11, 55, 79
17, 73260, Note_on_c, 11, 65, 79
17, 73311, Note_on_c, 11, 55, 0
17, 73311, Note_on_c, 11, 65, 0
17, 73320, Note_on_c, 11, 55, 79
17, 73320, Note_on_c, 11, 65, 79
17, 73371, Note_on_c, 11, 55, 0
17, 73371, Note_on_c, 11, 65, 0
17, 73380, Note_on_c, 11, 55, 80
17, 73380, Note_on_c, 11, 65, 80
17, 73431, Note_on_c, 11, 55, 0
17, 73431, Note_on_c, 11, 65, 0
17, 73440, Note_on_c, 11, 65, 80
17, 73440, Note_on_c, 11, 55, 80
17, 73491, Note_on_c, 11, 65, 0
17, 73491, Note_on_c, 11, 55, 0
17, 73500, Note_on_c, 11, 55, 81
17, 73500, Note_on_c, 11, 65, 81
17, 73551, Note_on_c, 11, 55, 0
17, 73551, Note_on_c, 11, 65, 0
17, 73560, Note_on_c, 11, 55, 81
17, 73560, Note_on_c, 11, 65, 81
17, 73611, Note_on_c, 11, 55, 0
17, 73611, Note_on_c, 11, 65, 0
17, 73620, Note_on_c, 11, 55, 81
17, 73620, Note_on_c, 11, 65, 81
17, 73671, Note_on_c, 11, 55, 0
17, 73671, Note_on_c, 11, 65, 0
17, 73680, Note_on_c, 11, 65, 82
17, 73680, Note_on_c, 11, 55, 82
17, 73731, Note_on_c, 11, 65, 0
17, 73731, Note_on_c, 11, 55, 0
17, 73740, Note_on_c, 11, 65, 82
17, 73740, Note_on_c, 11, 55, 82
17, 73791, Note_on_c, 11, 65, 0
17, 73791, Note_on_c, 11, 55, 0
17, 73800, Note_on_c, 11, 65, 83
17, 73800, Note_on_c, 11, 55, 83
17, 73851, Note_on_c, 11, 65, 0
17, 73851, Note_on_c, 11, 55, 0
17, 73860, Note_on_c, 11, 65, 83
17, 73860, Note_on_c, 11, 55, 83
17, 73911, Note_on_c, 11, 65, 0
17, 73911, Note_on_c, 11, 55, 0
17, 73920, Note_on_c, 11, 79, 84
17, 73920, Note_on_c, 11, 62, 84
17, 73920, Note_on_c, 11, 71, 84
17, 73920, Note_on_c, 11, 55, 84
17, 74024, Note_on_c, 11, 79, 0
17, 74024, Note_on_c, 11, 62, 0
17, 74024, Note_on_c, 11, 71, 0
17, 74024, Note_on_c, 11, 55, 0
17, 74040, Note_on_c, 11, 74, 84
17, 74091, Note_on_c, 11, 74, 0
17, 74100, Note_on_c, 11, 74, 84
17, 74151, Note_on_c, 11, 74, 0
17, 74160, Note_on_c, 11, 71, 84
17, 74211, Note_on_c, 11, 71, 0
17, 74220, Note_on_c, 11, 71, 84
17, 74271, Note_on_c, 11, 71, 0
17, 74280, Note_on_c, 11, 67, 84
17, 74331, Note_on_c, 11, 67, 0
17, 74340, Note_on_c, 11, 67, 84
17, 74391, Note_on_c, 11, 67, 0
17, 74400, Note_on_c, 11, 62, 84
17, 74451, Note_on_c, 11, 62, 0
17, 74460, Note_on_c, 11, 62, 84
17, 74511, Note_on_c, 11, 62, 0
17, 74520, Note_on_c, 11, 59, 84
17, 74571, Note_on_c, 11, 59, 0
17, 74580, Note_on_c, 11, 59, 84
17, 74631, Note_on_c, 11, 59, 0
17, 74640, Note_on_c, 11, 55, 92
17, 74691, Note_on_c, 11, 55, 0
17, 74700, Note_on_c, 11, 55, 84
17, 74751, Note_on_c, 11, 55, 0
17, 74760, Note_on_c, 11, 79, 84
17, 74811, Note_on_c, 11, 79, 0
17, 74820, Note_on_c, 11, 79, 84
17, 74871, Note_on_c, 11, 79, 0
17, 74880, Note_on_c, 11, 79, 84
17, 74931, Note_on_c, 11, 79, 0
17, 74940, Note_on_c, 11, 79, 84
17, 74991, Note_on_c, 11, 79, 0
17, 75000, Note_on_c, 11, 75, 84
17, 75051, Note_on_c, 11, 75, 0
17, 75060, Note_on_c, 11, 75, 84
17, 75111, Note_on_c, 11, 75, 0
17, 75120, Note_on_c, 11, 72, 84
17, 75171, Note_on_c, 11, 72, 0
17, 75180, Note_on_c, 11, 72, 84
17, 75231, Note_on_c, 11, 72, 0
17, 75240, Note_on_c, 11, 67, 84
17, 75291, Note_on_c, 11, 67, 0
17, 75300, Note_on_c, 11, 67, 84
17, 75351, Note_on_c, 11, 67, 0
17, 75360, Note_on_c, 11, 63, 84
17, 75411, Note_on_c, 11, 63, 0
17, 75420, Note_on_c, 11, 63, 84
17, 75471, Note_on_c, 11, 63, 0
17, 75480, Note_on_c, 11, 60, 84
17, 75531, Note_on_c, 11, 60, 0
17, 75540, Note_on_c, 11, 60, 84
17, 75591, Note_on_c, 11, 60, 0
17, 75600, Note_on_c, 11, 55, 92
17, 75651, Note_on_c, 11, 55, 0
17, 75660, Note_on_c, 11, 55, 84
17, 75711, Note_on_c, 11, 55, 0
17, 75720, Note_on_c, 11, 79, 84
17, 75771, Note_on_c, 11, 79, 0
17, 75780, Note_on_c, 11, 79, 84
17, 75831, Note_on_c, 11, 79, 0
17, 75840, Note_on_c, 11, 79, 84
17, 75891, Note_on_c, 11, 79, 0
17, 75900, Note_on_c, 11, 79, 84
17, 75951, Note_on_c, 11, 79, 0
17, 75960, Note_on_c, 11, 75, 84
17, 76011, Note_on_c, 11, 75, 0
17, 76020, Note_on_c, 11, 75, 84
17, 76071, Note_on_c, 11, 75, 0
17, 76080, Note_on_c, 11, 72, 84
17, 76131, Note_on_c, 11, 72, 0
17, 76140, Note_on_c, 11, 72, 84
17, 76191, Note_on_c, 11, 72, 0
17, 76200, Note_on_c, 11, 67, 84
17, 76251, Note_on_c, 11, 67, 0
17, 76260, Note_on_c, 11, 67, 84
17, 76311, Note_on_c, 11, 67, 0
17, 76320, Note_on_c, 11, 63, 84
17, 76371, Note_on_c, 11, 63, 0
17, 76380, Note_on_c, 11, 63, 84
17, 76431, Note_on_c, 11, 63, 0
17, 76440, Note_on_c, 11, 60, 84
17, 76491, Note_on_c, 11, 60, 0
17, 76500, Note_on_c, 11, 60, 84
17, 76551, Note_on_c, 11, 60, 0
17, 76560, Note_on_c, 11, 55, 92
17, 76611, Note_on_c, 11, 55, 0
17, 76620, Note_on_c, 11, 55, 84
17, 76671, Note_on_c, 11, 55, 0
17, 76680, Note_on_c, 11, 79, 84
17, 76731, Note_on_c, 11, 79, 0
17, 76740, Note_on_c, 11, 79, 84
17, 76791, Note_on_c, 11, 79, 0
17, 76800, Note_on_c, 11, 80, 84
17, 76851, Note_on_c, 11, 80, 0
17, 76860, Note_on_c, 11, 80, 84
17, 76911, Note_on_c, 11, 80, 0
17, 76920, Note_on_c, 11, 75, 84
17, 76971, Note_on_c, 11, 75, 0
17, 76980, Note_on_c, 11, 75, 84
17, 77031, Note_on_c, 11, 75, 0
17, 77040, Note_on_c, 11, 72, 84
17, 77091, Note_on_c, 11, 72, 0
17, 77100, Note_on_c, 11, 72, 84
17, 77151, Note_on_c, 11, 72, 0
17, 77160, Note_on_c, 11, 68, 84
17, 77211, Note_on_c, 11, 68, 0
17, 77220, Note_on_c, 11, 68, 84
17, 77271, Note_on_c, 11, 68, 0
17, 77280, Note_on_c, 11, 63, 84
17, 77331, Note_on_c, 11, 63, 0
17, 77340, Note_on_c, 11, 63, 84
17, 77391, Note_on_c, 11, 63, 0
17, 77400, Note_on_c, 11, 60, 84
17, 77451, Note_on_c, 11, 60, 0
17, 77460, Note_on_c, 11, 60, 84
17, 77511, Note_on_c, 11, 60, 0
17, 77520, Note_on_c, 11, 56, 92
17, 77571, Note_on_c, 11, 56, 0
17, 77580, Note_on_c, 11, 56, 84
17, 77631, Note_on_c, 11, 56, 0
17, 77640, Note_on_c, 11, 80, 84
17, 77691, Note_on_c, 11, 80, 0
17, 77700, Note_on_c, 11, 80, 84
17, 77751, Note_on_c, 11, 80, 0
17, 77760, Note_on_c, 11, 80, 84
17, 77811, Note_on_c, 11, 80, 0
17, 77820, Note_on_c, 11, 80, 84
17, 77871, Note_on_c, 11, 80, 0
17, 77880, Note_on_c, 11, 75, 84
17, 77931, Note_on_c, 11, 75, 0
17, 77940, Note_on_c, 11, 75, 84
17, 77991, Note_on_c, 11, 75, 0
17, 78000, Note_on_c, 11, 72, 84
17, 78051, Note_on_c, 11, 72, 0
17, 78060, Note_on_c, 11, 72, 84
17, 78111, Note_on_c, 11, 72, 0
17, 78120, Note_on_c, 11, 68, 84
17, 78171, Note_on_c, 11, 68, 0
17, 78180, Note_on_c, 11, 68, 84
17, 78231, Note_on_c, 11, 68, 0
17, 78240, Note_on_c, 11, 63, 84
17, 78291, Note_on_c, 11, 63, 0
17, 78300, Note_on_c, 11, 63, 84
17, 78351, Note_on_c, 11, 63, 0
17, 78360, Note_on_c, 11, 60, 84
17, 78411, Note_on_c, 11, 60, 0
17, 78420, Note_on_c, 11, 60, 84
17, 78471, Note_on_c, 11, 60, 0
17, 78480, Note_on_c, 11, 56, 92
17, 78531, Note_on_c, 11, 56, 0
17, 78540, Note_on_c, 11, 56, 84
17, 78591, Note_on_c, 11, 56, 0
17, 78600, Note_on_c, 11, 80, 84
17, 78651, Note_on_c, 11, 80, 0
17, 78660, Note_on_c, 11, 80, 84
17, 78711, Note_on_c, 11, 80, 0
17, 78720, Note_on_c, 11, 80, 84
17, 78771, Note_on_c, 11, 80, 0
17, 78780, Note_on_c, 11, 80, 84
17, 78831, Note_on_c, 11, 80, 0
17, 78840, Note_on_c, 11, 77, 84
17, 78891, Note_on_c, 11, 77, 0
17, 78900, Note_on_c, 11, 77, 84
17, 78951, Note_on_c, 11, 77, 0
17, 78960, Note_on_c, 11, 73, 84
17, 79011, Note_on_c, 11, 73, 0
17, 79020, Note_on_c, 11, 73, 84
17, 79071, Note_on_c, 11, 73, 0
17, 79080, Note_on_c, 11, 68, 84
17, 79131, Note_on_c, 11, 68, 0
17, 79140, Note_on_c, 11, 68, 84
17, 79191, Note_on_c, 11, 68, 0
17, 79200, Note_on_c, 11, 65, 84
17, 79251, Note_on_c, 11, 65, 0
17, 79260, Note_on_c, 11, 65, 84
17, 79311, Note_on_c, 11, 65, 0
17, 79320, Note_on_c, 11, 61, 84
17, 79371, Note_on_c, 11, 61, 0
17, 79380, Note_on_c, 11, 61, 84
17, 79431, Note_on_c, 11, 61, 0
17, 79440, Note_on_c, 11, 56, 92
17, 79491, Note_on_c, 11, 56, 0
17, 79500, Note_on_c, 11, 56, 84
17, 79551, Note_on_c, 11, 56, 0
17, 79560, Note_on_c, 11, 80, 84
17, 79611, Note_on_c, 11, 80, 0
17, 79620, Note_on_c, 11, 80, 84
17, 79671, Note_on_c, 11, 80, 0
17, 79680, Note_on_c, 11, 80, 84
17, 79731, Note_on_c, 11, 80, 0
17, 79740, Note_on_c, 11, 80, 84
17, 79791, Note_on_c, 11, 80, 0
17, 79800, Note_on_c, 11, 77, 84
17, 79851, Note_on_c, 11, 77, 0
17, 79860, Note_on_c, 11, 77, 84
17, 79911, Note_on_c, 11, 77, 0
17, 79920, Note_on_c, 11, 73, 84
17, 79971, Note_on_c, 11, 73, 0
17, 79980, Note_on_c, 11, 73, 84
17, 80031, Note_on_c, 11, 73, 0
17, 80040, Note_on_c, 11, 68, 84
17, 80091, Note_on_c, 11, 68, 0
17, 80100, Note_on_c, 11, 68, 84
17, 80151, Note_on_c, 11, 68, 0
17, 80160, Note_on_c, 11, 65, 84
17, 80211, Note_on_c, 11, 65, 0
17, 80220, Note_on_c, 11, 65, 84
17, 80271, Note_on_c, 11, 65, 0
17, 80280, Note_on_c, 11, 61, 84
17, 80331, Note_on_c, 11, 61, 0
17, 80340, Note_on_c, 11, 61, 84
17, 80391, Note_on_c, 11, 61, 0
17, 80400, Note_on_c, 11, 57, 92
17, 80451, Note_on_c, 11, 57, 0
17, 80460, Note_on_c, 11, 57, 84
17, 80511, Note_on_c, 11, 57, 0
17, 80520, Note_on_c, 11, 81, 84
17, 80571, Note_on_c, 11, 81, 0
17, 80580, Note_on_c, 11, 81, 84
17, 80631, Note_on_c, 11, 81, 0
17, 80640, Note_on_c, 11, 82, 84
17, 80691, Note_on_c, 11, 82, 0
17, 80700, Note_on_c, 11, 82, 84
17, 80751, Note_on_c, 11, 82, 0
17, 80760, Note_on_c, 11, 77, 84
17, 80811, Note_on_c, 11, 77, 0
17, 80820, Note_on_c, 11, 77, 84
17, 80871, Note_on_c, 11, 77, 0
17, 80880, Note_on_c, 11, 74, 84
17, 80931, Note_on_c, 11, 74, 0
17, 80940, Note_on_c, 11, 74, 84
17, 80991, Note_on_c, 11, 74, 0
17, 81000, Note_on_c, 11, 70, 84
17, 81051, Note_on_c, 11, 70, 0
17, 81060, Note_on_c, 11, 70, 84
17, 81111, Note_on_c, 11, 70, 0
17, 81120, Note_on_c, 11, 65, 84
17, 81171, Note_on_c, 11, 65, 0
17, 81180, Note_on_c, 11, 65, 84
17, 81231, Note_on_c, 11, 65, 0
17, 81240, Note_on_c, 11, 62, 84
17, 81291, Note_on_c, 11, 62, 0
17, 81300, Note_on_c, 11, 62, 84
17, 81351, Note_on_c, 11, 62, 0
17, 81360, Note_on_c, 11, 58, 92
17, 81411, Note_on_c, 11, 58, 0
17, 81420, Note_on_c, 11, 58, 84
17, 81471, Note_on_c, 11, 58, 0
17, 81480, Note_on_c, 11, 82, 84
17, 81531, Note_on_c, 11, 82, 0
17, 81540, Note_on_c, 11, 82, 84
17, 81591, Note_on_c, 11, 82, 0
17, 81600, Note_on_c, 11, 82, 84
17, 81651, Note_on_c, 11, 82, 0
17, 81660, Note_on_c, 11, 82, 84
17, 81711, Note_on_c, 11, 82, 0
17, 81720, Note_on_c, 11, 77, 84
17, 81771, Note_on_c, 11, 77, 0
17, 81780, Note_on_c, 11, 77, 84
17, 81831, Note_on_c, 11, 77, 0
17, 81840, Note_on_c, 11, 74, 84
17, 81891, Note_on_c, 11, 74, 0
17, 81900, Note_on_c, 11, 74, 84
17, 81951, Note_on_c, 11, 74, 0
17, 81960, Note_on_c, 11, 70, 84
17, 82011, Note_on_c, 11, 70, 0
17, 82020, Note_on_c, 11, 70, 84
17, 82071, Note_on_c, 11, 70, 0
17, 82080, Note_on_c, 11, 65, 84
17, 82131, Note_on_c, 11, 65, 0
17, 82140, Note_on_c, 11, 65, 84
17, 82191, Note_on_c, 11, 65, 0
17, 82200, Note_on_c, 11, 62, 84
17, 82251, Note_on_c, 11, 62, 0
17, 82260, Note_on_c, 11, 62, 84
17, 82311, Note_on_c, 11, 62, 0
17, 82320, Note_on_c, 11, 58, 92
17, 82371, Note_on_c, 11, 58, 0
17, 82380, Note_on_c, 11, 58, 84
17, 82431, Note_on_c, 11, 58, 0
17, 82440, Note_on_c, 11, 82, 84
17, 82491, Note_on_c, 11, 82, 0
17, 82500, Note_on_c, 11, 82, 84
17, 82551, Note_on_c, 11, 82, 0
17, 82560, Note_on_c, 11, 82, 84
17, 82611, Note_on_c, 11, 82, 0
17, 82620, Note_on_c, 11, 82, 84
17, 82671, Note_on_c, 11, 82, 0
17, 82680, Note_on_c, 11, 78, 84
17, 82731, Note_on_c, 11, 78, 0
17, 82740, Note_on_c, 11, 78, 84
17, 82791, Note_on_c, 11, 78, 0
17, 82800, Note_on_c, 11, 75, 84
17, 82851, Note_on_c, 11, 75, 0
17, 82860, Note_on_c, 11, 75, 84
17, 82911, Note_on_c, 11, 75, 0
17, 82920, Note_on_c, 11, 70, 84
17, 82971, Note_on_c, 11, 70, 0
17, 82980, Note_on_c, 11, 70, 84
17, 83031, Note_on_c, 11, 70, 0
17, 83040, Note_on_c, 11, 66, 84
17, 83091, Note_on_c, 11, 66, 0
17, 83100, Note_on_c, 11, 66, 84
17, 83151, Note_on_c, 11, 66, 0
17, 83160, Note_on_c, 11, 63, 84
17, 83211, Note_on_c, 11, 63, 0
17, 83220, Note_on_c, 11, 63, 84
17, 83271, Note_on_c, 11, 63, 0
17, 83280, Note_on_c, 11, 58, 92
17, 83331, Note_on_c, 11, 58, 0
17, 83340, Note_on_c, 11, 58, 84
17, 83391, Note_on_c, 11, 58, 0
17, 83400, Note_on_c, 11, 82, 84
17, 83451, Note_on_c, 11, 82, 0
17, 83460, Note_on_c, 11, 82, 84
17, 83511, Note_on_c, 11, 82, 0
17, 83520, Note_on_c, 11, 82, 84
17, 83571, Note_on_c, 11, 82, 0
17, 83580, Note_on_c, 11, 82, 84
17, 83631, Note_on_c, 11, 82, 0
17, 83640, Note_on_c, 11, 78, 84
17, 83691, Note_on_c, 11, 78, 0
17, 83700, Note_on_c, 11, 78, 84
17, 83751, Note_on_c, 11, 78, 0
17, 83760, Note_on_c, 11, 75, 84
17, 83811, Note_on_c, 11, 75, 0
17, 83820, Note_on_c, 11, 75, 84
17, 83871, Note_on_c, 11, 75, 0
17, 83880, Note_on_c, 11, 70, 84
17, 83931, Note_on_c, 11, 70, 0
17, 83940, Note_on_c, 11, 70, 84
17, 83991, Note_on_c, 11, 70, 0
17, 84000, Note_on_c, 11, 66, 84
17, 84051, Note_on_c, 11, 66, 0
17, 84060, Note_on_c, 11, 66, 84
17, 84111, Note_on_c, 11, 66, 0
17, 84120, Note_on_c, 11, 63, 84
17, 84171, Note_on_c, 11, 63, 0
17, 84180, Note_on_c, 11, 63, 84
17, 84231, Note_on_c, 11, 63, 0
17, 84240, Note_on_c, 11, 60, 92
17, 84291, Note_on_c, 11, 60, 0
17, 84300, Note_on_c, 11, 60, 84
17, 84351, Note_on_c, 11, 60, 0
17, 84360, Note_on_c, 11, 84, 84
17, 84411, Note_on_c, 11, 84, 0
17, 84420, Note_on_c, 11, 84, 84
17, 84471, Note_on_c, 11, 84, 0
17, 84480, Note_on_c, 11, 73, 84
17, 84719, Note_on_c, 11, 73, 0
17, 84960, Note_on_c, 11, 73, 92
17, 85019, Note_on_c, 11, 73, 0
17, 85020, Note_on_c, 11, 73, 84
17, 85304, Note_on_c, 11, 73, 0
17, 85320, Note_on_c, 11, 68, 84
17, 85424, Note_on_c, 11, 68, 0
17, 85440, Note_on_c, 11, 70, 84
17, 85544, Note_on_c, 11, 70, 0
17, 85560, Note_on_c, 11, 65, 84
17, 85664, Note_on_c, 11, 65, 0
17, 85680, Note_on_c, 11, 66, 84
17, 85784, Note_on_c, 11, 66, 0
17, 85800, Note_on_c, 11, 65, 84
17, 85904, Note_on_c, 11, 65, 0
17, 85920, Note_on_c, 11, 63, 84
17, 86024, Note_on_c, 11, 63, 0
17, 86040, Note_on_c, 11, 61, 84
17, 86144, Note_on_c, 11, 61, 0
17, 86160, Note_on_c, 11, 61, 84
17, 86264, Note_on_c, 11, 61, 0
17, 86280, Note_on_c, 11, 60, 84
17, 86384, Note_on_c, 11, 60, 0
17, 86400, Note_on_c, 11, 58, 84
17, 86639, Note_on_c, 11, 58, 0
17, 86880, Note_on_c, 11, 82, 92
17, 86939, Note_on_c, 11, 82, 0
17, 86940, Note_on_c, 11, 82, 84
17, 87224, Note_on_c, 11, 82, 0
17, 87240, Note_on_c, 11, 77, 84
17, 87344, Note_on_c, 11, 77, 0
17, 87360, Note_on_c, 11, 78, 84
17, 87464, Note_on_c, 11, 78, 0
17, 87480, Note_on_c, 11, 73, 84
17, 87584, Note_on_c, 11, 73, 0
17, 87600, Note_on_c, 11, 75, 84
17, 87704, Note_on_c, 11, 75, 0
17, 87720, Note_on_c, 11, 73, 84
17, 87824, Note_on_c, 11, 73, 0
17, 87840, Note_on_c, 11, 71, 84
17, 87944, Note_on_c, 11, 71, 0
17, 87960, Note_on_c, 11, 70, 84
17, 88064, Note_on_c, 11, 70, 0
17, 88080, Note_on_c, 11, 70, 84
17, 88184, Note_on_c, 11, 70, 0
17, 88200, Note_on_c, 11, 68, 84
17, 88304, Note_on_c, 11, 68, 0
17, 88320, Note_on_c, 11, 66, 84
17, 88559, Note_on_c, 11, 66, 0
17, 88800, Note_on_c, 11, 78, 92
17, 88859, Note_on_c, 11, 78, 0
17, 88860, Note_on_c, 11, 78, 84
17, 89144, Note_on_c, 11, 78, 0
17, 89160, Note_on_c, 11, 73, 84
17, 89264, Note_on_c, 11, 73, 0
17, 89280, Note_on_c, 11, 75, 84
17, 89384, Note_on_c, 11, 75, 0
17, 89400, Note_on_c, 11, 70, 84
17, 89504, Note_on_c, 11, 70, 0
17, 89520, Note_on_c, 11, 71, 84
17, 89624, Note_on_c, 11, 71, 0
17, 89640, Note_on_c, 11, 70, 84
17, 89744, Note_on_c, 11, 70, 0
17, 89760, Note_on_c, 11, 68, 84
17, 89864, Note_on_c, 11, 68, 0
17, 89880, Note_on_c, 11, 66, 84
17, 89984, Note_on_c, 11, 66, 0
17, 90000, Note_on_c, 11, 66, 84
17, 90104, Note_on_c, 11, 66, 0
17, 90120, Note_on_c, 11, 67, 84
17, 90120, Note_on_c, 11, 55, 84
17, 90224, Note_on_c, 11, 67, 0
17, 90224, Note_on_c, 11, 55, 0
17, 90240, Note_on_c, 11, 55, 84
17, 90240, Note_on_c, 11, 67, 84
17, 90291, Note_on_c, 11, 55, 0
17, 90291, Note_on_c, 11, 67, 0
17, 90300, Note_on_c, 11, 55, 84
17, 90300, Note_on_c, 11, 67, 84
17, 90351, Note_on_c, 11, 55, 0
17, 90351, Note_on_c, 11, 67, 0
17, 90360, Note_on_c, 11, 55, 84
17, 90360, Note_on_c, 11, 67, 84
17, 90411, Note_on_c, 11, 55, 0
17, 90411, Note_on_c, 11, 67, 0
17, 90420, Note_on_c, 11, 55, 84
17, 90420, Note_on_c, 11, 67, 84
17, 90471, Note_on_c, 11, 55, 0
17, 90471, Note_on_c, 11, 67, 0
17, 90480, Note_on_c, 11, 67, 76
17, 90480, Note_on_c, 11, 55, 76
17, 90531, Note_on_c, 11, 67, 0
17, 90531, Note_on_c, 11, 55, 0
17, 90540, Note_on_c, 11, 67, 52
17, 90540, Note_on_c, 11, 55, 52
17, 90591, Note_on_c, 11, 67, 0
17, 90591, Note_on_c, 11, 55, 0
17, 90600, Note_on_c, 11, 67, 52
17, 90600, Note_on_c, 11, 55, 52
17, 90651, Note_on_c, 11, 67, 0
17, 90651, Note_on_c, 11, 55, 0
17, 90660, Note_on_c, 11, 55, 52
17, 90660, Note_on_c, 11, 67, 52
17, 90711, Note_on_c, 11, 55, 0
17, 90711, Note_on_c, 11, 67, 0
17, 90720, Note_on_c, 11, 67, 52
17, 90720, Note_on_c, 11, 55, 52
17, 90771, Note_on_c, 11, 67, 0
17, 90771, Note_on_c, 11, 55, 0
17, 90780, Note_on_c, 11, 67, 52
17, 90780, Note_on_c, 11, 55, 52
17, 90831, Note_on_c, 11, 67, 0
17, 90831, Note_on_c, 11, 55, 0
17, 90840, Note_on_c, 11, 55, 52
17, 90840, Note_on_c, 11, 67, 52
17, 90891, Note_on_c, 11, 55, 0
17, 90891, Note_on_c, 11, 67, 0
17, 90900, Note_on_c, 11, 55, 52
17, 90900, Note_on_c, 11, 67, 52
17, 90951, Note_on_c, 11, 55, 0
17, 90951, Note_on_c, 11, 67, 0
17, 90960, Note_on_c, 11, 55, 52
17, 90960, Note_on_c, 11, 67, 52
17, 91011, Note_on_c, 11, 55, 0
17, 91011, Note_on_c, 11, 67, 0
17, 91020, Note_on_c, 11, 67, 52
17, 91020, Note_on_c, 11, 55, 52
17, 91071, Note_on_c, 11, 67, 0
17, 91071, Note_on_c, 11, 55, 0
17, 91080, Note_on_c, 11, 55, 52
17, 91080, Note_on_c, 11, 67, 52
17, 91131, Note_on_c, 11, 55, 0
17, 91131, Note_on_c, 11, 67, 0
17, 91140, Note_on_c, 11, 67, 52
17, 91140, Note_on_c, 11, 55, 52
17, 91191, Note_on_c, 11, 67, 0
17, 91191, Note_on_c, 11, 55, 0
17, 91200, Note_on_c, 11, 67, 52
17, 91200, Note_on_c, 11, 55, 52
17, 91251, Note_on_c, 11, 67, 0
17, 91251, Note_on_c, 11, 55, 0
17, 91260, Note_on_c, 11, 67, 52
17, 91260, Note_on_c, 11, 55, 52
17, 91311, Note_on_c, 11, 67, 0
17, 91311, Note_on_c, 11, 55, 0
17, 91320, Note_on_c, 11, 55, 52
17, 91320, Note_on_c, 11, 67, 52
17, 91371, Note_on_c, 11, 55, 0
17, 91371, Note_on_c, 11, 67, 0
17, 91380, Note_on_c, 11, 67, 52
17, 91380, Note_on_c, 11, 55, 52
17, 91431, Note_on_c, 11, 67, 0
17, 91431, Note_on_c, 11, 55, 0
17, 91440, Note_on_c, 11, 67, 52
17, 91440, Note_on_c, 11, 55, 52
17, 91491, Note_on_c, 11, 67, 0
17, 91491, Note_on_c, 11, 55, 0
17, 91500, Note_on_c, 11, 55, 52
17, 91500, Note_on_c, 11, 67, 52
17, 91551, Note_on_c, 11, 55, 0
17, 91551, Note_on_c, 11, 67, 0
17, 91560, Note_on_c, 11, 67, 52
17, 91560, Note_on_c, 11, 55, 52
17, 91611, Note_on_c, 11, 67, 0
17, 91611, Note_on_c, 11, 55, 0
17, 91620, Note_on_c, 11, 67, 52
17, 91620, Note_on_c, 11, 55, 52
17, 91671, Note_on_c, 11, 67, 0
17, 91671, Note_on_c, 11, 55, 0
17, 91680, Note_on_c, 11, 55, 52
17, 91680, Note_on_c, 11, 67, 52
17, 91731, Note_on_c, 11, 55, 0
17, 91731, Note_on_c, 11, 67, 0
17, 91740, Note_on_c, 11, 67, 52
17, 91740, Note_on_c, 11, 55, 52
17, 91791, Note_on_c, 11, 67, 0
17, 91791, Note_on_c, 11, 55, 0
17, 91800, Note_on_c, 11, 55, 53
17, 91800, Note_on_c, 11, 67, 53
17, 91851, Note_on_c, 11, 55, 0
17, 91851, Note_on_c, 11, 67, 0
17, 91860, Note_on_c, 11, 67, 53
17, 91860, Note_on_c, 11, 55, 53
17, 91911, Note_on_c, 11, 67, 0
17, 91911, Note_on_c, 11, 55, 0
17, 91920, Note_on_c, 11, 67, 54
17, 91920, Note_on_c, 11, 55, 54
17, 91971, Note_on_c, 11, 67, 0
17, 91971, Note_on_c, 11, 55, 0
17, 91980, Note_on_c, 11, 67, 55
17, 91980, Note_on_c, 11, 55, 55
17, 92031, Note_on_c, 11, 67, 0
17, 92031, Note_on_c, 11, 55, 0
17, 92040, Note_on_c, 11, 55, 55
17, 92040, Note_on_c, 11, 67, 55
17, 92091, Note_on_c, 11, 55, 0
17, 92091, Note_on_c, 11, 67, 0
17, 92100, Note_on_c, 11, 67, 56
17, 92100, Note_on_c, 11, 55, 56
17, 92151, Note_on_c, 11, 67, 0
17, 92151, Note_on_c, 11, 55, 0
17, 92160, Note_on_c, 11, 67, 56
17, 92160, Note_on_c, 11, 55, 56
17, 92211, Note_on_c, 11, 67, 0
17, 92211, Note_on_c, 11, 55, 0
17, 92220, Note_on_c, 11, 67, 57
17, 92220, Note_on_c, 11, 55, 57
17, 92271, Note_on_c, 11, 67, 0
17, 92271, Note_on_c, 11, 55, 0
17, 92280, Note_on_c, 11, 67, 58
17, 92280, Note_on_c, 11, 55, 58
17, 92331, Note_on_c, 11, 67, 0
17, 92331, Note_on_c, 11, 55, 0
17, 92340, Note_on_c, 11, 55, 58
17, 92340, Note_on_c, 11, 67, 58
17, 92391, Note_on_c, 11, 55, 0
17, 92391, Note_on_c, 11, 67, 0
17, 92400, Note_on_c, 11, 55, 59
17, 92400, Note_on_c, 11, 67, 59
17, 92451, Note_on_c, 11, 55, 0
17, 92451, Note_on_c, 11, 67, 0
17, 92460, Note_on_c, 11, 55, 59
17, 92460, Note_on_c, 11, 67, 59
17, 92511, Note_on_c, 11, 55, 0
17, 92511, Note_on_c, 11, 67, 0
17, 92520, Note_on_c, 11, 67, 60
17, 92520, Note_on_c, 11, 55, 60
17, 92571, Note_on_c, 11, 67, 0
17, 92571, Note_on_c, 11, 55, 0
17, 92580, Note_on_c, 11, 55, 61
17, 92580, Note_on_c, 11, 67, 61
17, 92631, Note_on_c, 11, 55, 0
17, 92631, Note_on_c, 11, 67, 0
17, 92640, Note_on_c, 11, 55, 61
17, 92640, Note_on_c, 11, 67, 61
17, 92691, Note_on_c, 11, 55, 0
17, 92691, Note_on_c, 11, 67, 0
17, 92700, Note_on_c, 11, 67, 62
17, 92700, Note_on_c, 11, 55, 62
17, 92751, Note_on_c, 11, 67, 0
17, 92751, Note_on_c, 11, 55, 0
17, 92760, Note_on_c, 11, 67, 62
17, 92760, Note_on_c, 11, 55, 62
17, 92811, Note_on_c, 11, 67, 0
17, 92811, Note_on_c, 11, 55, 0
17, 92820, Note_on_c, 11, 55, 63
17, 92820, Note_on_c, 11, 67, 63
17, 92871, Note_on_c, 11, 55, 0
17, 92871, Note_on_c, 11, 67, 0
17, 92880, Note_on_c, 11, 55, 64
17, 92880, Note_on_c, 11, 67, 64
17, 92931, Note_on_c, 11, 55, 0
17, 92931, Note_on_c, 11, 67, 0
17, 92940, Note_on_c, 11, 55, 64
17, 92940, Note_on_c, 11, 67, 64
17, 92991, Note_on_c, 11, 55, 0
17, 92991, Note_on_c, 11, 67, 0
17, 93000, Note_on_c, 11, 67, 65
17, 93000, Note_on_c, 11, 55, 65
17, 93051, Note_on_c, 11, 67, 0
17, 93051, Note_on_c, 11, 55, 0
17, 93060, Note_on_c, 11, 67, 65
17, 93060, Note_on_c, 11, 55, 65
17, 93111, Note_on_c, 11, 67, 0
17, 93111, Note_on_c, 11, 55, 0
17, 93120, Note_on_c, 11, 67, 66
17, 93120, Note_on_c, 11, 55, 66
17, 93171, Note_on_c, 11, 67, 0
17, 93171, Note_on_c, 11, 55, 0
17, 93180, Note_on_c, 11, 67, 67
17, 93180, Note_on_c, 11, 55, 67
17, 93231, Note_on_c, 11, 67, 0
17, 93231, Note_on_c, 11, 55, 0
17, 93240, Note_on_c, 11, 67, 67
17, 93240, Note_on_c, 11, 55, 67
17, 93291, Note_on_c, 11, 67, 0
17, 93291, Note_on_c, 11, 55, 0
17, 93300, Note_on_c, 11, 67, 68
17, 93300, Note_on_c, 11, 55, 68
17, 93351, Note_on_c, 11, 67, 0
17, 93351, Note_on_c, 11, 55, 0
17, 93360, Note_on_c, 11, 55, 68
17, 93360, Note_on_c, 11, 67, 68
17, 93411, Note_on_c, 11, 55, 0
17, 93411, Note_on_c, 11, 67, 0
17, 93420, Note_on_c, 11, 55, 69
17, 93420, Note_on_c, 11, 67, 69
17, 93471, Note_on_c, 11, 55, 0
17, 93471, Note_on_c, 11, 67, 0
17, 93480, Note_on_c, 11, 67, 70
17, 93480, Note_on_c, 11, 55, 70
17, 93531, Note_on_c, 11, 67, 0
17, 93531, Note_on_c, 11, 55, 0
17, 93540, Note_on_c, 11, 55, 70
17, 93540, Note_on_c, 11, 67, 70
17, 93591, Note_on_c, 11, 55, 0
17, 93591, Note_on_c, 11, 67, 0
17, 93600, Note_on_c, 11, 55, 71
17, 93600, Note_on_c, 11, 67, 71
17, 93651, Note_on_c, 11, 55, 0
17, 93651, Note_on_c, 11, 67, 0
17, 93660, Note_on_c, 11, 67, 71
17, 93660, Note_on_c, 11, 55, 71
17, 93711, Note_on_c, 11, 67, 0
17, 93711, Note_on_c, 11, 55, 0
17, 93720, Note_on_c, 11, 55, 72
17, 93720, Note_on_c, 11, 67, 72
17, 93771, Note_on_c, 11, 55, 0
17, 93771, Note_on_c, 11, 67, 0
17, 93780, Note_on_c, 11, 67, 73
17, 93780, Note_on_c, 11, 55, 73
17, 93831, Note_on_c, 11, 67, 0
17, 93831, Note_on_c, 11, 55, 0
17, 93840, Note_on_c, 11, 67, 73
17, 93840, Note_on_c, 11, 55, 73
17, 93891, Note_on_c, 11, 67, 0
17, 93891, Note_on_c, 11, 55, 0
17, 93900, Note_on_c, 11, 55, 74
17, 93900, Note_on_c, 11, 67, 74
17, 93951, Note_on_c, 11, 55, 0
17, 93951, Note_on_c, 11, 67, 0
17, 93960, Note_on_c, 11, 67, 74
17, 93960, Note_on_c, 11, 55, 74
17, 94011, Note_on_c, 11, 67, 0
17, 94011, Note_on_c, 11, 55, 0
17, 94020, Note_on_c, 11, 67, 75
17, 94020, Note_on_c, 11, 55, 75
17, 94071, Note_on_c, 11, 67, 0
17, 94071, Note_on_c, 11, 55, 0
17, 94080, Note_on_c, 11, 67, 76
17, 94080, Note_on_c, 11, 55, 76
17, 94131, Note_on_c, 11, 67, 0
17, 94131, Note_on_c, 11, 55, 0
17, 94140, Note_on_c, 11, 67, 76
17, 94140, Note_on_c, 11, 55, 76
17, 94191, Note_on_c, 11, 67, 0
17, 94191, Note_on_c, 11, 55, 0
17, 94200, Note_on_c, 11, 67, 76
17, 94200, Note_on_c, 11, 55, 76
17, 94251, Note_on_c, 11, 67, 0
17, 94251, Note_on_c, 11, 55, 0
17, 94260, Note_on_c, 11, 67, 76
17, 94260, Note_on_c, 11, 55, 76
17, 94311, Note_on_c, 11, 67, 0
17, 94311, Note_on_c, 11, 55, 0
17, 94320, Note_on_c, 11, 67, 84
17, 94320, Note_on_c, 11, 55, 84
17, 94371, Note_on_c, 11, 67, 0
17, 94371, Note_on_c, 11, 55, 0
17, 94380, Note_on_c, 11, 55, 76
17, 94380, Note_on_c, 11, 67, 76
17, 94431, Note_on_c, 11, 55, 0
17, 94431, Note_on_c, 11, 67, 0
17, 94440, Note_on_c, 11, 67, 76
17, 94440, Note_on_c, 11, 55, 76
17, 94491, Note_on_c, 11, 67, 0
17, 94491, Note_on_c, 11, 55, 0
17, 94500, Note_on_c, 11, 55, 76
17, 94500, Note_on_c, 11, 67, 76
17, 94551, Note_on_c, 11, 55, 0
17, 94551, Note_on_c, 11, 67, 0
17, 94560, Note_on_c, 11, 67, 52
17, 94560, Note_on_c, 11, 55, 52
17, 94611, Note_on_c, 11, 67, 0
17, 94611, Note_on_c, 11, 55, 0
17, 94620, Note_on_c, 11, 55, 52
17, 94620, Note_on_c, 11, 67, 52
17, 94671, Note_on_c, 11, 55, 0
17, 94671, Note_on_c, 11, 67, 0
17, 94680, Note_on_c, 11, 55, 52
17, 94680, Note_on_c, 11, 67, 52
17, 94731, Note_on_c, 11, 55, 0
17, 94731, Note_on_c, 11, 67, 0
17, 94740, Note_on_c, 11, 67, 52
17, 94740, Note_on_c, 11, 55, 52
17, 94791, Note_on_c, 11, 67, 0
17, 94791, Note_on_c, 11, 55, 0
17, 94800, Note_on_c, 11, 67, 52
17, 94800, Note_on_c, 11, 55, 52
17, 94851, Note_on_c, 11, 67, 0
17, 94851, Note_on_c, 11, 55, 0
17, 94860, Note_on_c, 11, 67, 52
17, 94860, Note_on_c, 11, 55, 52
17, 94911, Note_on_c, 11, 67, 0
17, 94911, Note_on_c, 11, 55, 0
17, 94920, Note_on_c, 11, 55, 52
17, 94920, Note_on_c, 11, 67, 52
17, 94971, Note_on_c, 11, 55, 0
17, 94971, Note_on_c, 11, 67, 0
17, 94980, Note_on_c, 11, 67, 52
17, 94980, Note_on_c, 11, 55, 52
17, 95031, Note_on_c, 11, 67, 0
17, 95031, Note_on_c, 11, 55, 0
17, 95040, Note_on_c, 11, 67, 52
17, 95040, Note_on_c, 11, 55, 52
17, 95091, Note_on_c, 11, 67, 0
17, 95091, Note_on_c, 11, 55, 0
17, 95100, Note_on_c, 11, 67, 52
17, 95100, Note_on_c, 11, 55, 52
17, 95151, Note_on_c, 11, 67, 0
17, 95151, Note_on_c, 11, 55, 0
17, 95160, Note_on_c, 11, 55, 52
17, 95160, Note_on_c, 11, 67, 52
17, 95211, Note_on_c, 11, 55, 0
17, 95211, Note_on_c, 11, 67, 0
17, 95220, Note_on_c, 11, 67, 52
17, 95220, Note_on_c, 11, 55, 52
17, 95271, Note_on_c, 11, 67, 0
17, 95271, Note_on_c, 11, 55, 0
17, 95280, Note_on_c, 11, 67, 52
17, 95280, Note_on_c, 11, 55, 52
17, 95331, Note_on_c, 11, 67, 0
17, 95331, Note_on_c, 11, 55, 0
17, 95340, Note_on_c, 11, 55, 52
17, 95340, Note_on_c, 11, 67, 52
17, 95391, Note_on_c, 11, 55, 0
17, 95391, Note_on_c, 11, 67, 0
17, 95400, Note_on_c, 11, 55, 52
17, 95400, Note_on_c, 11, 67, 52
17, 95451, Note_on_c, 11, 55, 0
17, 95451, Note_on_c, 11, 67, 0
17, 95460, Note_on_c, 11, 55, 52
17, 95460, Note_on_c, 11, 67, 52
17, 95511, Note_on_c, 11, 55, 0
17, 95511, Note_on_c, 11, 67, 0
17, 95520, Note_on_c, 11, 67, 52
17, 95520, Note_on_c, 11, 55, 52
17, 95571, Note_on_c, 11, 67, 0
17, 95571, Note_on_c, 11, 55, 0
17, 95580, Note_on_c, 11, 67, 52
17, 95580, Note_on_c, 11, 55, 52
17, 95631, Note_on_c, 11, 67, 0
17, 95631, Note_on_c, 11, 55, 0
17, 95640, Note_on_c, 11, 67, 53
17, 95640, Note_on_c, 11, 55, 53
17, 95691, Note_on_c, 11, 67, 0
17, 95691, Note_on_c, 11, 55, 0
17, 95700, Note_on_c, 11, 67, 53
17, 95700, Note_on_c, 11, 55, 53
17, 95751, Note_on_c, 11, 67, 0
17, 95751, Note_on_c, 11, 55, 0
17, 95760, Note_on_c, 11, 55, 54
17, 95760, Note_on_c, 11, 67, 54
17, 95811, Note_on_c, 11, 55, 0
17, 95811, Note_on_c, 11, 67, 0
17, 95820, Note_on_c, 11, 67, 55
17, 95820, Note_on_c, 11, 55, 55
17, 95871, Note_on_c, 11, 67, 0
17, 95871, Note_on_c, 11, 55, 0
17, 95880, Note_on_c, 11, 55, 55
17, 95880, Note_on_c, 11, 67, 55
17, 95931, Note_on_c, 11, 55, 0
17, 95931, Note_on_c, 11, 67, 0
17, 95940, Note_on_c, 11, 67, 56
17, 95940, Note_on_c, 11, 55, 56
17, 95991, Note_on_c, 11, 67, 0
17, 95991, Note_on_c, 11, 55, 0
17, 96000, Note_on_c, 11, 67, 56
17, 96000, Note_on_c, 11, 55, 56
17, 96051, Note_on_c, 11, 67, 0
17, 96051, Note_on_c, 11, 55, 0
17, 96060, Note_on_c, 11, 55, 57
17, 96060, Note_on_c, 11, 67, 57
17, 96111, Note_on_c, 11, 55, 0
17, 96111, Note_on_c, 11, 67, 0
17, 96120, Note_on_c, 11, 67, 58
17, 96120, Note_on_c, 11, 55, 58
17, 96171, Note_on_c, 11, 67, 0
17, 96171, Note_on_c, 11, 55, 0
17, 96180, Note_on_c, 11, 55, 58
17, 96180, Note_on_c, 11, 67, 58
17, 96231, Note_on_c, 11, 55, 0
17, 96231, Note_on_c, 11, 67, 0
17, 96240, Note_on_c, 11, 67, 59
17, 96240, Note_on_c, 11, 55, 59
17, 96291, Note_on_c, 11, 67, 0
17, 96291, Note_on_c, 11, 55, 0
17, 96300, Note_on_c, 11, 67, 59
17, 96300, Note_on_c, 11, 55, 59
17, 96351, Note_on_c, 11, 67, 0
17, 96351, Note_on_c, 11, 55, 0
17, 96360, Note_on_c, 11, 55, 60
17, 96360, Note_on_c, 11, 67, 60
17, 96411, Note_on_c, 11, 55, 0
17, 96411, Note_on_c, 11, 67, 0
17, 96420, Note_on_c, 11, 55, 61
17, 96420, Note_on_c, 11, 67, 61
17, 96471, Note_on_c, 11, 55, 0
17, 96471, Note_on_c, 11, 67, 0
17, 96480, Note_on_c, 11, 67, 61
17, 96480, Note_on_c, 11, 55, 61
17, 96531, Note_on_c, 11, 67, 0
17, 96531, Note_on_c, 11, 55, 0
17, 96540, Note_on_c, 11, 67, 62
17, 96540, Note_on_c, 11, 55, 62
17, 96591, Note_on_c, 11, 67, 0
17, 96591, Note_on_c, 11, 55, 0
17, 96600, Note_on_c, 11, 67, 62
17, 96600, Note_on_c, 11, 55, 62
17, 96651, Note_on_c, 11, 67, 0
17, 96651, Note_on_c, 11, 55, 0
17, 96660, Note_on_c, 11, 67, 63
17, 96660, Note_on_c, 11, 55, 63
17, 96711, Note_on_c, 11, 67, 0
17, 96711, Note_on_c, 11, 55, 0
17, 96720, Note_on_c, 11, 67, 64
17, 96720, Note_on_c, 11, 55, 64
17, 96771, Note_on_c, 11, 67, 0
17, 96771, Note_on_c, 11, 55, 0
17, 96780, Note_on_c, 11, 67, 64
17, 96780, Note_on_c, 11, 55, 64
17, 96831, Note_on_c, 11, 67, 0
17, 96831, Note_on_c, 11, 55, 0
17, 96840, Note_on_c, 11, 55, 65
17, 96840, Note_on_c, 11, 67, 65
17, 96891, Note_on_c, 11, 55, 0
17, 96891, Note_on_c, 11, 67, 0
17, 96900, Note_on_c, 11, 55, 65
17, 96900, Note_on_c, 11, 67, 65
17, 96951, Note_on_c, 11, 55, 0
17, 96951, Note_on_c, 11, 67, 0
17, 96960, Note_on_c, 11, 55, 66
17, 96960, Note_on_c, 11, 67, 66
17, 97011, Note_on_c, 11, 55, 0
17, 97011, Note_on_c, 11, 67, 0
17, 97020, Note_on_c, 11, 67, 67
17, 97020, Note_on_c, 11, 55, 67
17, 97071, Note_on_c, 11, 67, 0
17, 97071, Note_on_c, 11, 55, 0
17, 97080, Note_on_c, 11, 55, 67
17, 97080, Note_on_c, 11, 67, 67
17, 97131, Note_on_c, 11, 55, 0
17, 97131, Note_on_c, 11, 67, 0
17, 97140, Note_on_c, 11, 55, 68
17, 97140, Note_on_c, 11, 67, 68
17, 97191, Note_on_c, 11, 55, 0
17, 97191, Note_on_c, 11, 67, 0
17, 97200, Note_on_c, 11, 55, 68
17, 97200, Note_on_c, 11, 67, 68
17, 97251, Note_on_c, 11, 55, 0
17, 97251, Note_on_c, 11, 67, 0
17, 97260, Note_on_c, 11, 55, 69
17, 97260, Note_on_c, 11, 67, 69
17, 97311, Note_on_c, 11, 55, 0
17, 97311, Note_on_c, 11, 67, 0
17, 97320, Note_on_c, 11, 67, 70
17, 97320, Note_on_c, 11, 55, 70
17, 97371, Note_on_c, 11, 67, 0
17, 97371, Note_on_c, 11, 55, 0
17, 97380, Note_on_c, 11, 55, 70
17, 97380, Note_on_c, 11, 67, 70
17, 97431, Note_on_c, 11, 55, 0
17, 97431, Note_on_c, 11, 67, 0
17, 97440, Note_on_c, 11, 67, 71
17, 97440, Note_on_c, 11, 55, 71
17, 97491, Note_on_c, 11, 67, 0
17, 97491, Note_on_c, 11, 55, 0
17, 97500, Note_on_c, 11, 55, 71
17, 97500, Note_on_c, 11, 67, 71
17, 97551, Note_on_c, 11, 55, 0
17, 97551, Note_on_c, 11, 67, 0
17, 97560, Note_on_c, 11, 67, 72
17, 97560, Note_on_c, 11, 55, 72
17, 97611, Note_on_c, 11, 67, 0
17, 97611, Note_on_c, 11, 55, 0
17, 97620, Note_on_c, 11, 55, 73
17, 97620, Note_on_c, 11, 67, 73
17, 97671, Note_on_c, 11, 55, 0
17, 97671, Note_on_c, 11, 67, 0
17, 97680, Note_on_c, 11, 55, 73
17, 97680, Note_on_c, 11, 67, 73
17, 97731, Note_on_c, 11, 55, 0
17, 97731, Note_on_c, 11, 67, 0
17, 97740, Note_on_c, 11, 67, 74
17, 97740, Note_on_c, 11, 55, 74
17, 97791, Note_on_c, 11, 67, 0
17, 97791, Note_on_c, 11, 55, 0
17, 97800, Note_on_c, 11, 67, 74
17, 97800, Note_on_c, 11, 55, 74
17, 97851, Note_on_c, 11, 67, 0
17, 97851, Note_on_c, 11, 55, 0
17, 97860, Note_on_c, 11, 55, 75
17, 97860, Note_on_c, 11, 67, 75
17, 97911, Note_on_c, 11, 55, 0
17, 97911, Note_on_c, 11, 67, 0
17, 97920, Note_on_c, 11, 58, 76
17, 97971, Note_on_c, 11, 58, 0
17, 97980, Note_on_c, 11, 67, 76
17, 97980, Note_on_c, 11, 58, 76
17, 98031, Note_on_c, 11, 67, 0
17, 98031, Note_on_c, 11, 58, 0
17, 98040, Note_on_c, 11, 67, 76
17, 98040, Note_on_c, 11, 58, 76
17, 98091, Note_on_c, 11, 67, 0
17, 98091, Note_on_c, 11, 58, 0
17, 98100, Note_on_c, 11, 58, 76
17, 98100, Note_on_c, 11, 67, 76
17, 98151, Note_on_c, 11, 58, 0
17, 98151, Note_on_c, 11, 67, 0
17, 98160, Note_on_c, 11, 58, 76
17, 98160, Note_on_c, 11, 67, 76
17, 98211, Note_on_c, 11, 58, 0
17, 98211, Note_on_c, 11, 67, 0
17, 98220, Note_on_c, 11, 58, 76
17, 98220, Note_on_c, 11, 67, 76
17, 98271, Note_on_c, 11, 58, 0
17, 98271, Note_on_c, 11, 67, 0
17, 98280, Note_on_c, 11, 67, 76
17, 98280, Note_on_c, 11, 58, 76
17, 98331, Note_on_c, 11, 67, 0
17, 98331, Note_on_c, 11, 58, 0
17, 98340, Note_on_c, 11, 58, 76
17, 98340, Note_on_c, 11, 67, 76
17, 98391, Note_on_c, 11, 58, 0
17, 98391, Note_on_c, 11, 67, 0
17, 98400, Note_on_c, 11, 58, 77
17, 98400, Note_on_c, 11, 67, 77
17, 98451, Note_on_c, 11, 58, 0
17, 98451, Note_on_c, 11, 67, 0
17, 98460, Note_on_c, 11, 58, 77
17, 98460, Note_on_c, 11, 67, 77
17, 98511, Note_on_c, 11, 58, 0
17, 98511, Note_on_c, 11, 67, 0
17, 98520, Note_on_c, 11, 58, 77
17, 98520, Note_on_c, 11, 67, 77
17, 98571, Note_on_c, 11, 58, 0
17, 98571, Note_on_c, 11, 67, 0
17, 98580, Note_on_c, 11, 58, 77
17, 98580, Note_on_c, 11, 67, 77
17, 98631, Note_on_c, 11, 58, 0
17, 98631, Note_on_c, 11, 67, 0
17, 98640, Note_on_c, 11, 67, 77
17, 98640, Note_on_c, 11, 58, 77
17, 98691, Note_on_c, 11, 67, 0
17, 98691, Note_on_c, 11, 58, 0
17, 98700, Note_on_c, 11, 58, 77
17, 98700, Note_on_c, 11, 67, 77
17, 98751, Note_on_c, 11, 58, 0
17, 98751, Note_on_c, 11, 67, 0
17, 98760, Note_on_c, 11, 67, 77
17, 98760, Note_on_c, 11, 58, 77
17, 98811, Note_on_c, 11, 67, 0
17, 98811, Note_on_c, 11, 58, 0
17, 98820, Note_on_c, 11, 67, 78
17, 98820, Note_on_c, 11, 58, 78
17, 98871, Note_on_c, 11, 67, 0
17, 98871, Note_on_c, 11, 58, 0
17, 98880, Note_on_c, 11, 58, 78
17, 98931, Note_on_c, 11, 58, 0
17, 98940, Note_on_c, 11, 58, 78
17, 98940, Note_on_c, 11, 67, 78
17, 98991, Note_on_c, 11, 58, 0
17, 98991, Note_on_c, 11, 67, 0
17, 99000, Note_on_c, 11, 58, 78
17, 99000, Note_on_c, 11, 67, 78
17, 99051, Note_on_c, 11, 58, 0
17, 99051, Note_on_c, 11, 67, 0
17, 99060, Note_on_c, 11, 67, 78
17, 99060, Note_on_c, 11, 58, 78
17, 99111, Note_on_c, 11, 67, 0
17, 99111, Note_on_c, 11, 58, 0
17, 99120, Note_on_c, 11, 67, 78
17, 99120, Note_on_c, 11, 58, 78
17, 99171, Note_on_c, 11, 67, 0
17, 99171, Note_on_c, 11, 58, 0
17, 99180, Note_on_c, 11, 67, 78
17, 99180, Note_on_c, 11, 58, 78
17, 99231, Note_on_c, 11, 67, 0
17, 99231, Note_on_c, 11, 58, 0
17, 99240, Note_on_c, 11, 58, 78
17, 99240, Note_on_c, 11, 67, 78
17, 99291, Note_on_c, 11, 58, 0
17, 99291, Note_on_c, 11, 67, 0
17, 99300, Note_on_c, 11, 67, 79
17, 99300, Note_on_c, 11, 58, 79
17, 99351, Note_on_c, 11, 67, 0
17, 99351, Note_on_c, 11, 58, 0
17, 99360, Note_on_c, 11, 67, 79
17, 99360, Note_on_c, 11, 58, 79
17, 99411, Note_on_c, 11, 67, 0
17, 99411, Note_on_c, 11, 58, 0
17, 99420, Note_on_c, 11, 58, 79
17, 99420, Note_on_c, 11, 67, 79
17, 99471, Note_on_c, 11, 58, 0
17, 99471, Note_on_c, 11, 67, 0
17, 99480, Note_on_c, 11, 58, 79
17, 99480, Note_on_c, 11, 67, 79
17, 99531, Note_on_c, 11, 58, 0
17, 99531, Note_on_c, 11, 67, 0
17, 99540, Note_on_c, 11, 58, 79
17, 99540, Note_on_c, 11, 67, 79
17, 99591, Note_on_c, 11, 58, 0
17, 99591, Note_on_c, 11, 67, 0
17, 99600, Note_on_c, 11, 58, 79
17, 99600, Note_on_c, 11, 67, 79
17, 99651, Note_on_c, 11, 58, 0
17, 99651, Note_on_c, 11, 67, 0
17, 99660, Note_on_c, 11, 58, 79
17, 99660, Note_on_c, 11, 67, 79
17, 99711, Note_on_c, 11, 58, 0
17, 99711, Note_on_c, 11, 67, 0
17, 99720, Note_on_c, 11, 58, 80
17, 99720, Note_on_c, 11, 67, 80
17, 99771, Note_on_c, 11, 58, 0
17, 99771, Note_on_c, 11, 67, 0
17, 99780, Note_on_c, 11, 58, 80
17, 99780, Note_on_c, 11, 67, 80
17, 99831, Note_on_c, 11, 58, 0
17, 99831, Note_on_c, 11, 67, 0
17, 99840, Note_on_c, 11, 59, 80
17, 99891, Note_on_c, 11, 59, 0
17, 99900, Note_on_c, 11, 68, 80
17, 99900, Note_on_c, 11, 59, 80
17, 99951, Note_on_c, 11, 68, 0
17, 99951, Note_on_c, 11, 59, 0
17, 99960, Note_on_c, 11, 68, 80
17, 99960, Note_on_c, 11, 59, 80
17, 100011, Note_on_c, 11, 68, 0
17, 100011, Note_on_c, 11, 59, 0
17, 100020, Note_on_c, 11, 68, 80
17, 100020, Note_on_c, 11, 59, 80
17, 100071, Note_on_c, 11, 68, 0
17, 100071, Note_on_c, 11, 59, 0
17, 100080, Note_on_c, 11, 68, 80
17, 100080, Note_on_c, 11, 59, 80
17, 100131, Note_on_c, 11, 68, 0
17, 100131, Note_on_c, 11, 59, 0
17, 100140, Note_on_c, 11, 59, 80
17, 100140, Note_on_c, 11, 68, 80
17, 100191, Note_on_c, 11, 59, 0
17, 100191, Note_on_c, 11, 68, 0
17, 100200, Note_on_c, 11, 59, 81
17, 100200, Note_on_c, 11, 68, 81
17, 100251, Note_on_c, 11, 59, 0
17, 100251, Note_on_c, 11, 68, 0
17, 100260, Note_on_c, 11, 68, 81
17, 100260, Note_on_c, 11, 59, 81
17, 100311, Note_on_c, 11, 68, 0
17, 100311, Note_on_c, 11, 59, 0
17, 100320, Note_on_c, 11, 68, 81
17, 100320, Note_on_c, 11, 59, 81
17, 100371, Note_on_c, 11, 68, 0
17, 100371, Note_on_c, 11, 59, 0
17, 100380, Note_on_c, 11, 59, 81
17, 100380, Note_on_c, 11, 68, 81
17, 100431, Note_on_c, 11, 59, 0
17, 100431, Note_on_c, 11, 68, 0
17, 100440, Note_on_c, 11, 68, 81
17, 100440, Note_on_c, 11, 59, 81
17, 100491, Note_on_c, 11, 68, 0
17, 100491, Note_on_c, 11, 59, 0
17, 100500, Note_on_c, 11, 59, 81
17, 100500, Note_on_c, 11, 68, 81
17, 100551, Note_on_c, 11, 59, 0
17, 100551, Note_on_c, 11, 68, 0
17, 100560, Note_on_c, 11, 59, 81
17, 100560, Note_on_c, 11, 68, 81
17, 100611, Note_on_c, 11, 59, 0
17, 100611, Note_on_c, 11, 68, 0
17, 100620, Note_on_c, 11, 59, 82
17, 100620, Note_on_c, 11, 68, 82
17, 100671, Note_on_c, 11, 59, 0
17, 100671, Note_on_c, 11, 68, 0
17, 100680, Note_on_c, 11, 59, 82
17, 100680, Note_on_c, 11, 68, 82
17, 100731, Note_on_c, 11, 59, 0
17, 100731, Note_on_c, 11, 68, 0
17, 100740, Note_on_c, 11, 68, 82
17, 100740, Note_on_c, 11, 59, 82
17, 100791, Note_on_c, 11, 68, 0
17, 100791, Note_on_c, 11, 59, 0
17, 100800, Note_on_c, 11, 59, 82
17, 100851, Note_on_c, 11, 59, 0
17, 100860, Note_on_c, 11, 59, 82
17, 100860, Note_on_c, 11, 68, 82
17, 100911, Note_on_c, 11, 59, 0
17, 100911, Note_on_c, 11, 68, 0
17, 100920, Note_on_c, 11, 59, 82
17, 100920, Note_on_c, 11, 68, 82
17, 100971, Note_on_c, 11, 59, 0
17, 100971, Note_on_c, 11, 68, 0
17, 100980, Note_on_c, 11, 68, 82
17, 100980, Note_on_c, 11, 59, 82
17, 101031, Note_on_c, 11, 68, 0
17, 101031, Note_on_c, 11, 59, 0
17, 101040, Note_on_c, 11, 59, 82
17, 101040, Note_on_c, 11, 68, 82
17, 101091, Note_on_c, 11, 59, 0
17, 101091, Note_on_c, 11, 68, 0
17, 101100, Note_on_c, 11, 68, 83
17, 101100, Note_on_c, 11, 59, 83
17, 101151, Note_on_c, 11, 68, 0
17, 101151, Note_on_c, 11, 59, 0
17, 101160, Note_on_c, 11, 68, 83
17, 101160, Note_on_c, 11, 59, 83
17, 101211, Note_on_c, 11, 68, 0
17, 101211, Note_on_c, 11, 59, 0
17, 101220, Note_on_c, 11, 59, 83
17, 101220, Note_on_c, 11, 68, 83
17, 101271, Note_on_c, 11, 59, 0
17, 101271, Note_on_c, 11, 68, 0
17, 101280, Note_on_c, 11, 69, 83
17, 101280, Note_on_c, 11, 60, 83
17, 101331, Note_on_c, 11, 69, 0
17, 101331, Note_on_c, 11, 60, 0
17, 101340, Note_on_c, 11, 60, 83
17, 101340, Note_on_c, 11, 69, 83
17, 101391, Note_on_c, 11, 60, 0
17, 101391, Note_on_c, 11, 69, 0
17, 101400, Note_on_c, 11, 60, 83
17, 101400, Note_on_c, 11, 69, 83
17, 101451, Note_on_c, 11, 60, 0
17, 101451, Note_on_c, 11, 69, 0
17, 101460, Note_on_c, 11, 69, 83
17, 101460, Note_on_c, 11, 60, 83
17, 101511, Note_on_c, 11, 69, 0
17, 101511, Note_on_c, 11, 60, 0
17, 101520, Note_on_c, 11, 81, 84
17, 101520, Note_on_c, 11, 69, 84
17, 101571, Note_on_c, 11, 81, 0
17, 101571, Note_on_c, 11, 69, 0
17, 101580, Note_on_c, 11, 69, 84
17, 101580, Note_on_c, 11, 81, 84
17, 101631, Note_on_c, 11, 69, 0
17, 101631, Note_on_c, 11, 81, 0
17, 101640, Note_on_c, 11, 69, 84
17, 101640, Note_on_c, 11, 81, 84
17, 101691, Note_on_c, 11, 69, 0
17, 101691, Note_on_c, 11, 81, 0
17, 101700, Note_on_c, 11, 81, 84
17, 101700, Note_on_c, 11, 69, 84
17, 101751, Note_on_c, 11, 81, 0
17, 101751, Note_on_c, 11, 69, 0
17, 101760, Note_on_c, 11, 81, 84
17, 101760, Note_on_c, 11, 69, 84
17, 101811, Note_on_c, 11, 81, 0
17, 101811, Note_on_c, 11, 69, 0
17, 101820, Note_on_c, 11, 81, 84
17, 101820, Note_on_c, 11, 69, 84
17, 101871, Note_on_c, 11, 81, 0
17, 101871, Note_on_c, 11, 69, 0
17, 101880, Note_on_c, 11, 81, 84
17, 101880, Note_on_c, 11, 69, 84
17, 101931, Note_on_c, 11, 81, 0
17, 101931, Note_on_c, 11, 69, 0
17, 101940, Note_on_c, 11, 69, 84
17, 101940, Note_on_c, 11, 81, 84
17, 101991, Note_on_c, 11, 69, 0
17, 101991, Note_on_c, 11, 81, 0
17, 102000, Note_on_c, 11, 81, 84
17, 102000, Note_on_c, 11, 69, 84
17, 102051, Note_on_c, 11, 81, 0
17, 102051, Note_on_c, 11, 69, 0
17, 102060, Note_on_c, 11, 69, 84
17, 102060, Note_on_c, 11, 81, 84
17, 102111, Note_on_c, 11, 69, 0
17, 102111, Note_on_c, 11, 81, 0
17, 102120, Note_on_c, 11, 81, 84
17, 102120, Note_on_c, 11, 69, 84
17, 102171, Note_on_c, 11, 81, 0
17, 102171, Note_on_c, 11, 69, 0
17, 102180, Note_on_c, 11, 69, 84
17, 102180, Note_on_c, 11, 81, 84
17, 102231, Note_on_c, 11, 69, 0
17, 102231, Note_on_c, 11, 81, 0
17, 102240, Note_on_c, 11, 69, 84
17, 102240, Note_on_c, 11, 81, 84
17, 102291, Note_on_c, 11, 69, 0
17, 102291, Note_on_c, 11, 81, 0
17, 102300, Note_on_c, 11, 81, 84
17, 102300, Note_on_c, 11, 69, 84
17, 102351, Note_on_c, 11, 81, 0
17, 102351, Note_on_c, 11, 69, 0
17, 102360, Note_on_c, 11, 69, 84
17, 102360, Note_on_c, 11, 81, 84
17, 102411, Note_on_c, 11, 69, 0
17, 102411, Note_on_c, 11, 81, 0
17, 102420, Note_on_c, 11, 81, 84
17, 102420, Note_on_c, 11, 69, 84
17, 102471, Note_on_c, 11, 81, 0
17, 102471, Note_on_c, 11, 69, 0
17, 102480, Note_on_c, 11, 69, 84
17, 102480, Note_on_c, 11, 81, 84
17, 102531, Note_on_c, 11, 69, 0
17, 102531, Note_on_c, 11, 81, 0
17, 102540, Note_on_c, 11, 69, 84
17, 102540, Note_on_c, 11, 81, 84
17, 102591, Note_on_c, 11, 69, 0
17, 102591, Note_on_c, 11, 81, 0
17, 102600, Note_on_c, 11, 69, 84
17, 102600, Note_on_c, 11, 81, 84
17, 102651, Note_on_c, 11, 69, 0
17, 102651, Note_on_c, 11, 81, 0
17, 102660, Note_on_c, 11, 69, 84
17, 102660, Note_on_c, 11, 81, 84
17, 102711, Note_on_c, 11, 69, 0
17, 102711, Note_on_c, 11, 81, 0
17, 102720, Note_on_c, 11, 69, 84
17, 102720, Note_on_c, 11, 81, 84
17, 102771, Note_on_c, 11, 69, 0
17, 102771, Note_on_c, 11, 81, 0
17, 102780, Note_on_c, 11, 81, 84
17, 102780, Note_on_c, 11, 69, 84
17, 102831, Note_on_c, 11, 81, 0
17, 102831, Note_on_c, 11, 69, 0
17, 102840, Note_on_c, 11, 69, 84
17, 102840, Note_on_c, 11, 81, 84
17, 102891, Note_on_c, 11, 69, 0
17, 102891, Note_on_c, 11, 81, 0
17, 102900, Note_on_c, 11, 69, 84
17, 102900, Note_on_c, 11, 81, 84
17, 102951, Note_on_c, 11, 69, 0
17, 102951, Note_on_c, 11, 81, 0
17, 102960, Note_on_c, 11, 69, 84
17, 102960, Note_on_c, 11, 81, 84
17, 103011, Note_on_c, 11, 69, 0
17, 103011, Note_on_c, 11, 81, 0
17, 103020, Note_on_c, 11, 69, 84
17, 103020, Note_on_c, 11, 81, 84
17, 103071, Note_on_c, 11, 69, 0
17, 103071, Note_on_c, 11, 81, 0
17, 103080, Note_on_c, 11, 69, 84
17, 103080, Note_on_c, 11, 81, 84
17, 103131, Note_on_c, 11, 69, 0
17, 103131, Note_on_c, 11, 81, 0
17, 103140, Note_on_c, 11, 81, 84
17, 103140, Note_on_c, 11, 69, 84
17, 103191, Note_on_c, 11, 81, 0
17, 103191, Note_on_c, 11, 69, 0
17, 103200, Note_on_c, 11, 81, 84
17, 103200, Note_on_c, 11, 69, 84
17, 103251, Note_on_c, 11, 81, 0
17, 103251, Note_on_c, 11, 69, 0
17, 103260, Note_on_c, 11, 81, 84
17, 103260, Note_on_c, 11, 69, 84
17, 103311, Note_on_c, 11, 81, 0
17, 103311, Note_on_c, 11, 69, 0
17, 103320, Note_on_c, 11, 81, 84
17, 103320, Note_on_c, 11, 69, 84
17, 103371, Note_on_c, 11, 81, 0
17, 103371, Note_on_c, 11, 69, 0
17, 103380, Note_on_c, 11, 81, 84
17, 103380, Note_on_c, 11, 69, 84
17, 103431, Note_on_c, 11, 81, 0
17, 103431, Note_on_c, 11, 69, 0
17, 103440, Note_on_c, 11, 81, 84
17, 103440, Note_on_c, 11, 69, 84
17, 103491, Note_on_c, 11, 81, 0
17, 103491, Note_on_c, 11, 69, 0
17, 103500, Note_on_c, 11, 69, 84
17, 103500, Note_on_c, 11, 81, 84
17, 103551, Note_on_c, 11, 69, 0
17, 103551, Note_on_c, 11, 81, 0
17, 103560, Note_on_c, 11, 69, 84
17, 103560, Note_on_c, 11, 81, 84
17, 103611, Note_on_c, 11, 69, 0
17, 103611, Note_on_c, 11, 81, 0
17, 103620, Note_on_c, 11, 81, 84
17, 103620, Note_on_c, 11, 69, 84
17, 103671, Note_on_c, 11, 81, 0
17, 103671, Note_on_c, 11, 69, 0
17, 103680, Note_on_c, 11, 69, 84
17, 103680, Note_on_c, 11, 81, 84
17, 103731, Note_on_c, 11, 69, 0
17, 103731, Note_on_c, 11, 81, 0
17, 103740, Note_on_c, 11, 69, 84
17, 103740, Note_on_c, 11, 81, 84
17, 103791, Note_on_c, 11, 69, 0
17, 103791, Note_on_c, 11, 81, 0
17, 103800, Note_on_c, 11, 69, 84
17, 103800, Note_on_c, 11, 81, 84
17, 103851, Note_on_c, 11, 69, 0
17, 103851, Note_on_c, 11, 81, 0
17, 103860, Note_on_c, 11, 69, 84
17, 103860, Note_on_c, 11, 81, 84
17, 103911, Note_on_c, 11, 69, 0
17, 103911, Note_on_c, 11, 81, 0
17, 103920, Note_on_c, 11, 81, 84
17, 103920, Note_on_c, 11, 69, 84
17, 103971, Note_on_c, 11, 81, 0
17, 103971, Note_on_c, 11, 69, 0
17, 103980, Note_on_c, 11, 69, 84
17, 103980, Note_on_c, 11, 81, 84
17, 104031, Note_on_c, 11, 69, 0
17, 104031, Note_on_c, 11, 81, 0
17, 104040, Note_on_c, 11, 81, 84
17, 104040, Note_on_c, 11, 69, 84
17, 104091, Note_on_c, 11, 81, 0
17, 104091, Note_on_c, 11, 69, 0
17, 104100, Note_on_c, 11, 81, 84
17, 104100, Note_on_c, 11, 69, 84
17, 104151, Note_on_c, 11, 81, 0
17, 104151, Note_on_c, 11, 69, 0
17, 104160, Note_on_c, 11, 81, 84
17, 104160, Note_on_c, 11, 69, 84
17, 104211, Note_on_c, 11, 81, 0
17, 104211, Note_on_c, 11, 69, 0
17, 104220, Note_on_c, 11, 81, 84
17, 104220, Note_on_c, 11, 69, 84
17, 104271, Note_on_c, 11, 81, 0
17, 104271, Note_on_c, 11, 69, 0
17, 104280, Note_on_c, 11, 81, 84
17, 104280, Note_on_c, 11, 69, 84
17, 104331, Note_on_c, 11, 81, 0
17, 104331, Note_on_c, 11, 69, 0
17, 104340, Note_on_c, 11, 81, 84
17, 104340, Note_on_c, 11, 69, 84
17, 104391, Note_on_c, 11, 81, 0
17, 104391, Note_on_c, 11, 69, 0
17, 104400, Note_on_c, 11, 81, 84
17, 104400, Note_on_c, 11, 69, 84
17, 104451, Note_on_c, 11, 81, 0
17, 104451, Note_on_c, 11, 69, 0
17, 104460, Note_on_c, 11, 69, 84
17, 104460, Note_on_c, 11, 81, 84
17, 104511, Note_on_c, 11, 69, 0
17, 104511, Note_on_c, 11, 81, 0
17, 104520, Note_on_c, 11, 81, 84
17, 104520, Note_on_c, 11, 69, 84
17, 104571, Note_on_c, 11, 81, 0
17, 104571, Note_on_c, 11, 69, 0
17, 104580, Note_on_c, 11, 69, 84
17, 104580, Note_on_c, 11, 81, 84
17, 104631, Note_on_c, 11, 69, 0
17, 104631, Note_on_c, 11, 81, 0
17, 104640, Note_on_c, 11, 81, 84
17, 104640, Note_on_c, 11, 69, 84
17, 104691, Note_on_c, 11, 81, 0
17, 104691, Note_on_c, 11, 69, 0
17, 104700, Note_on_c, 11, 81, 84
17, 104700, Note_on_c, 11, 69, 84
17, 104751, Note_on_c, 11, 81, 0
17, 104751, Note_on_c, 11, 69, 0
17, 104760, Note_on_c, 11, 69, 84
17, 104760, Note_on_c, 11, 81, 84
17, 104811, Note_on_c, 11, 69, 0
17, 104811, Note_on_c, 11, 81, 0
17, 104820, Note_on_c, 11, 81, 84
17, 104820, Note_on_c, 11, 69, 84
17, 104871, Note_on_c, 11, 81, 0
17, 104871, Note_on_c, 11, 69, 0
17, 104880, Note_on_c, 11, 69, 84
17, 104880, Note_on_c, 11, 81, 84
17, 104931, Note_on_c, 11, 69, 0
17, 104931, Note_on_c, 11, 81, 0
17, 104940, Note_on_c, 11, 81, 84
17, 104940, Note_on_c, 11, 69, 84
17, 104991, Note_on_c, 11, 81, 0
17, 104991, Note_on_c, 11, 69, 0
17, 105000, Note_on_c, 11, 69, 84
17, 105000, Note_on_c, 11, 81, 84
17, 105051, Note_on_c, 11, 69, 0
17, 105051, Note_on_c, 11, 81, 0
17, 105060, Note_on_c, 11, 81, 84
17, 105060, Note_on_c, 11, 69, 84
17, 105111, Note_on_c, 11, 81, 0
17, 105111, Note_on_c, 11, 69, 0
17, 105120, Note_on_c, 11, 69, 84
17, 105120, Note_on_c, 11, 81, 84
17, 105171, Note_on_c, 11, 69, 0
17, 105171, Note_on_c, 11, 81, 0
17, 105180, Note_on_c, 11, 69, 84
17, 105180, Note_on_c, 11, 81, 84
17, 105231, Note_on_c, 11, 69, 0
17, 105231, Note_on_c, 11, 81, 0
17, 105240, Note_on_c, 11, 69, 84
17, 105240, Note_on_c, 11, 81, 84
17, 105291, Note_on_c, 11, 69, 0
17, 105291, Note_on_c, 11, 81, 0
17, 105300, Note_on_c, 11, 69, 84
17, 105300, Note_on_c, 11, 81, 84
17, 105351, Note_on_c, 11, 69, 0
17, 105351, Note_on_c, 11, 81, 0
17, 105360, Note_on_c, 11, 69, 84
17, 105360, Note_on_c, 11, 81, 84
17, 105411, Note_on_c, 11, 69, 0
17, 105411, Note_on_c, 11, 81, 0
17, 105420, Note_on_c, 11, 81, 84
17, 105420, Note_on_c, 11, 69, 84
17, 105471, Note_on_c, 11, 81, 0
17, 105471, Note_on_c, 11, 69, 0
17, 105480, Note_on_c, 11, 69, 84
17, 105480, Note_on_c, 11, 81, 84
17, 105531, Note_on_c, 11, 69, 0
17, 105531, Note_on_c, 11, 81, 0
17, 105540, Note_on_c, 11, 69, 84
17, 105540, Note_on_c, 11, 81, 84
17, 105591, Note_on_c, 11, 69, 0
17, 105591, Note_on_c, 11, 81, 0
17, 105600, Note_on_c, 11, 81, 84
17, 105600, Note_on_c, 11, 69, 84
17, 105651, Note_on_c, 11, 81, 0
17, 105651, Note_on_c, 11, 69, 0
17, 105660, Note_on_c, 11, 75, 84
17, 105711, Note_on_c, 11, 75, 0
17, 105720, Note_on_c, 11, 75, 84
17, 105771, Note_on_c, 11, 75, 0
17, 105780, Note_on_c, 11, 75, 84
17, 105831, Note_on_c, 11, 75, 0
17, 105840, Note_on_c, 11, 75, 84
17, 105891, Note_on_c, 11, 75, 0
17, 105900, Note_on_c, 11, 75, 84
17, 105951, Note_on_c, 11, 75, 0
17, 105960, Note_on_c, 11, 75, 84
17, 106011, Note_on_c, 11, 75, 0
17, 106020, Note_on_c, 11, 75, 84
17, 106071, Note_on_c, 11, 75, 0
17, 106080, Note_on_c, 11, 75, 84
17, 106131, Note_on_c, 11, 75, 0
17, 106140, Note_on_c, 11, 75, 84
17, 106191, Note_on_c, 11, 75, 0
17, 106200, Note_on_c, 11, 75, 84
17, 106251, Note_on_c, 11, 75, 0
17, 106260, Note_on_c, 11, 75, 84
17, 106311, Note_on_c, 11, 75, 0
17, 106320, Note_on_c, 11, 75, 84
17, 106371, Note_on_c, 11, 75, 0
17, 106380, Note_on_c, 11, 75, 84
17, 106431, Note_on_c, 11, 75, 0
17, 106440, Note_on_c, 11, 75, 84
17, 106491, Note_on_c, 11, 75, 0
17, 106500, Note_on_c, 11, 75, 84
17, 106551, Note_on_c, 11, 75, 0
17, 106560, Note_on_c, 11, 75, 92
17, 106611, Note_on_c, 11, 75, 0
17, 106620, Note_on_c, 11, 75, 84
17, 106671, Note_on_c, 11, 75, 0
17, 106680, Note_on_c, 11, 75, 84
17, 106731, Note_on_c, 11, 75, 0
17, 106740, Note_on_c, 11, 75, 84
17, 106791, Note_on_c, 11, 75, 0
17, 106800, Note_on_c, 11, 75, 84
17, 106851, Note_on_c, 11, 75, 0
17, 106860, Note_on_c, 11, 75, 84
17, 106911, Note_on_c, 11, 75, 0
17, 106920, Note_on_c, 11, 75, 84
17, 106971, Note_on_c, 11, 75, 0
17, 106980, Note_on_c, 11, 75, 84
17, 107031, Note_on_c, 11, 75, 0
17, 107040, Note_on_c, 11, 75, 84
17, 107091, Note_on_c, 11, 75, 0
17, 107100, Note_on_c, 11, 75, 84
17, 107151, Note_on_c, 11, 75, 0
17, 107160, Note_on_c, 11, 75, 84
17, 107211, Note_on_c, 11, 75, 0
17, 107220, Note_on_c, 11, 75, 84
17, 107271, Note_on_c, 11, 75, 0
17, 107280, Note_on_c, 11, 75, 84
17, 107331, Note_on_c, 11, 75, 0
17, 107340, Note_on_c, 11, 75, 84
17, 107391, Note_on_c, 11, 75, 0
17, 107400, Note_on_c, 11, 75, 84
17, 107451, Note_on_c, 11, 75, 0
17, 107460, Note_on_c, 11, 75, 84
17, 107511, Note_on_c, 11, 75, 0
17, 107520, Note_on_c, 11, 73, 84
17, 107571, Note_on_c, 11, 73, 0
17, 107580, Note_on_c, 11, 73, 84
17, 107631, Note_on_c, 11, 73, 0
17, 107640, Note_on_c, 11, 73, 84
17, 107691, Note_on_c, 11, 73, 0
17, 107700, Note_on_c, 11, 73, 84
17, 107751, Note_on_c, 11, 73, 0
17, 107760, Note_on_c, 11, 73, 84
17, 107811, Note_on_c, 11, 73, 0
17, 107820, Note_on_c, 11, 73, 84
17, 107871, Note_on_c, 11, 73, 0
17, 107880, Note_on_c, 11, 73, 84
17, 107931, Note_on_c, 11, 73, 0
17, 107940, Note_on_c, 11, 73, 84
17, 107991, Note_on_c, 11, 73, 0
17, 108000, Note_on_c, 11, 73, 84
17, 108051, Note_on_c, 11, 73, 0
17, 108060, Note_on_c, 11, 73, 84
17, 108111, Note_on_c, 11, 73, 0
17, 108120, Note_on_c, 11, 73, 84
17, 108171, Note_on_c, 11, 73, 0
17, 108180, Note_on_c, 11, 73, 84
17, 108231, Note_on_c, 11, 73, 0
17, 108240, Note_on_c, 11, 73, 84
17, 108291, Note_on_c, 11, 73, 0
17, 108300, Note_on_c, 11, 73, 84
17, 108351, Note_on_c, 11, 73, 0
17, 108360, Note_on_c, 11, 73, 84
17, 108411, Note_on_c, 11, 73, 0
17, 108420, Note_on_c, 11, 73, 84
17, 108471, Note_on_c, 11, 73, 0
17, 108480, Note_on_c, 11, 73, 92
17, 108531, Note_on_c, 11, 73, 0
17, 108540, Note_on_c, 11, 73, 84
17, 108591, Note_on_c, 11, 73, 0
17, 108600, Note_on_c, 11, 73, 84
17, 108651, Note_on_c, 11, 73, 0
17, 108660, Note_on_c, 11, 73, 84
17, 108711, Note_on_c, 11, 73, 0
17, 108720, Note_on_c, 11, 73, 84
17, 108771, Note_on_c, 11, 73, 0
17, 108780, Note_on_c, 11, 73, 84
17, 108831, Note_on_c, 11, 73, 0
17, 108840, Note_on_c, 11, 73, 84
17, 108891, Note_on_c, 11, 73, 0
17, 108900, Note_on_c, 11, 73, 84
17, 108951, Note_on_c, 11, 73, 0
17, 108960, Note_on_c, 11, 73, 84
17, 109011, Note_on_c, 11, 73, 0
17, 109020, Note_on_c, 11, 73, 84
17, 109071, Note_on_c, 11, 73, 0
17, 109080, Note_on_c, 11, 73, 84
17, 109131, Note_on_c, 11, 73, 0
17, 109140, Note_on_c, 11, 73, 84
17, 109191, Note_on_c, 11, 73, 0
17, 109200, Note_on_c, 11, 73, 84
17, 109251, Note_on_c, 11, 73, 0
17, 109260, Note_on_c, 11, 73, 84
17, 109311, Note_on_c, 11, 73, 0
17, 109320, Note_on_c, 11, 73, 84
17, 109371, Note_on_c, 11, 73, 0
17, 109380, Note_on_c, 11, 73, 84
17, 109431, Note_on_c, 11, 73, 0
17, 109440, Note_on_c, 11, 72, 84
17, 109440, Note_on_c, 11, 69, 84
17, 109491, Note_on_c, 11, 72, 0
17, 109491, Note_on_c, 11, 69, 0
17, 109500, Note_on_c, 11, 72, 84
17, 109500, Note_on_c, 11, 69, 84
17, 109551, Note_on_c, 11, 72, 0
17, 109551, Note_on_c, 11, 69, 0
17, 109560, Note_on_c, 11, 69, 84
17, 109560, Note_on_c, 11, 72, 84
17, 109611, Note_on_c, 11, 69, 0
17, 109611, Note_on_c, 11, 72, 0
17, 109620, Note_on_c, 11, 69, 84
17, 109620, Note_on_c, 11, 72, 84
17, 109671, Note_on_c, 11, 69, 0
17, 109671, Note_on_c, 11, 72, 0
17, 109680, Note_on_c, 11, 69, 84
17, 109680, Note_on_c, 11, 72, 84
17, 109731, Note_on_c, 11, 69, 0
17, 109731, Note_on_c, 11, 72, 0
17, 109740, Note_on_c, 11, 69, 84
17, 109740, Note_on_c, 11, 72, 84
17, 109791, Note_on_c, 11, 69, 0
17, 109791, Note_on_c, 11, 72, 0
17, 109800, Note_on_c, 11, 69, 84
17, 109800, Note_on_c, 11, 72, 84
17, 109851, Note_on_c, 11, 69, 0
17, 109851, Note_on_c, 11, 72, 0
17, 109860, Note_on_c, 11, 69, 84
17, 109860, Note_on_c, 11, 72, 84
17, 109911, Note_on_c, 11, 69, 0
17, 109911, Note_on_c, 11, 72, 0
17, 109920, Note_on_c, 11, 72, 84
17, 109920, Note_on_c, 11, 69, 84
17, 109971, Note_on_c, 11, 72, 0
17, 109971, Note_on_c, 11, 69, 0
17, 109980, Note_on_c, 11, 69, 84
17, 109980, Note_on_c, 11, 72, 84
17, 110031, Note_on_c, 11, 69, 0
17, 110031, Note_on_c, 11, 72, 0
17, 110040, Note_on_c, 11, 72, 84
17, 110040, Note_on_c, 11, 69, 84
17, 110091, Note_on_c, 11, 72, 0
17, 110091, Note_on_c, 11, 69, 0
17, 110100, Note_on_c, 11, 69, 84
17, 110100, Note_on_c, 11, 72, 84
17, 110151, Note_on_c, 11, 69, 0
17, 110151, Note_on_c, 11, 72, 0
17, 110160, Note_on_c, 11, 72, 84
17, 110160, Note_on_c, 11, 69, 84
17, 110211, Note_on_c, 11, 72, 0
17, 110211, Note_on_c, 11, 69, 0
17, 110220, Note_on_c, 11, 72, 84
17, 110220, Note_on_c, 11, 69, 84
17, 110271, Note_on_c, 11, 72, 0
17, 110271, Note_on_c, 11, 69, 0
17, 110280, Note_on_c, 11, 72, 84
17, 110280, Note_on_c, 11, 69, 84
17, 110331, Note_on_c, 11, 72, 0
17, 110331, Note_on_c, 11, 69, 0
17, 110340, Note_on_c, 11, 69, 84
17, 110340, Note_on_c, 11, 72, 84
17, 110391, Note_on_c, 11, 69, 0
17, 110391, Note_on_c, 11, 72, 0
17, 110400, Note_on_c, 11, 69, 92
17, 110400, Note_on_c, 11, 72, 92
17, 110451, Note_on_c, 11, 69, 0
17, 110451, Note_on_c, 11, 72, 0
17, 110460, Note_on_c, 11, 69, 84
17, 110460, Note_on_c, 11, 72, 84
17, 110511, Note_on_c, 11, 69, 0
17, 110511, Note_on_c, 11, 72, 0
17, 110520, Note_on_c, 11, 69, 84
17, 110520, Note_on_c, 11, 72, 84
17, 110571, Note_on_c, 11, 69, 0
17, 110571, Note_on_c, 11, 72, 0
17, 110580, Note_on_c, 11, 72, 84
17, 110580, Note_on_c, 11, 69, 84
17, 110631, Note_on_c, 11, 72, 0
17, 110631, Note_on_c, 11, 69, 0
17, 110640, Note_on_c, 11, 72, 84
17, 110640, Note_on_c, 11, 69, 84
17, 110691, Note_on_c, 11, 72, 0
17, 110691, Note_on_c, 11, 69, 0
17, 110700, Note_on_c, 11, 72, 84
17, 110700, Note_on_c, 11, 69, 84
17, 110751, Note_on_c, 11, 72, 0
17, 110751, Note_on_c, 11, 69, 0
17, 110760, Note_on_c, 11, 72, 84
17, 110760, Note_on_c, 11, 69, 84
17, 110811, Note_on_c, 11, 72, 0
17, 110811, Note_on_c, 11, 69, 0
17, 110820, Note_on_c, 11, 72, 84
17, 110820, Note_on_c, 11, 69, 84
17, 110871, Note_on_c, 11, 72, 0
17, 110871, Note_on_c, 11, 69, 0
17, 110880, Note_on_c, 11, 69, 84
17, 110880, Note_on_c, 11, 72, 84
17, 110931, Note_on_c, 11, 69, 0
17, 110931, Note_on_c, 11, 72, 0
17, 110940, Note_on_c, 11, 69, 84
17, 110940, Note_on_c, 11, 72, 84
17, 110991, Note_on_c, 11, 69, 0
17, 110991, Note_on_c, 11, 72, 0
17, 111000, Note_on_c, 11, 69, 84
17, 111000, Note_on_c, 11, 72, 84
17, 111051, Note_on_c, 11, 69, 0
17, 111051, Note_on_c, 11, 72, 0
17, 111060, Note_on_c, 11, 72, 84
17, 111060, Note_on_c, 11, 69, 84
17, 111111, Note_on_c, 11, 72, 0
17, 111111, Note_on_c, 11, 69, 0
17, 111120, Note_on_c, 11, 69, 84
17, 111120, Note_on_c, 11, 72, 84
17, 111171, Note_on_c, 11, 69, 0
17, 111171, Note_on_c, 11, 72, 0
17, 111180, Note_on_c, 11, 69, 84
17, 111180, Note_on_c, 11, 72, 84
17, 111231, Note_on_c, 11, 69, 0
17, 111231, Note_on_c, 11, 72, 0
17, 111240, Note_on_c, 11, 72, 84
17, 111240, Note_on_c, 11, 69, 84
17, 111291, Note_on_c, 11, 72, 0
17, 111291, Note_on_c, 11, 69, 0
17, 111300, Note_on_c, 11, 72, 84
17, 111300, Note_on_c, 11, 69, 84
17, 111351, Note_on_c, 11, 72, 0
17, 111351, Note_on_c, 11, 69, 0
17, 111360, Note_on_c, 11, 70, 92
17, 111411, Note_on_c, 11, 70, 0
17, 111420, Note_on_c, 11, 70, 84
17, 111471, Note_on_c, 11, 70, 0
17, 111480, Note_on_c, 11, 70, 84
17, 111531, Note_on_c, 11, 70, 0
17, 111540, Note_on_c, 11, 70, 84
17, 111591, Note_on_c, 11, 70, 0
17, 111600, Note_on_c, 11, 70, 84
17, 111651, Note_on_c, 11, 70, 0
17, 111660, Note_on_c, 11, 70, 84
17, 111711, Note_on_c, 11, 70, 0
17, 111720, Note_on_c, 11, 70, 84
17, 111771, Note_on_c, 11, 70, 0
17, 111780, Note_on_c, 11, 70, 84
17, 111831, Note_on_c, 11, 70, 0
17, 111840, Note_on_c, 11, 70, 84
17, 111891, Note_on_c, 11, 70, 0
17, 111900, Note_on_c, 11, 70, 84
17, 111951, Note_on_c, 11, 70, 0
17, 111960, Note_on_c, 11, 70, 84
17, 112011, Note_on_c, 11, 70, 0
17, 112020, Note_on_c, 11, 70, 84
17, 112071, Note_on_c, 11, 70, 0
17, 112080, Note_on_c, 11, 70, 84
17, 112131, Note_on_c, 11, 70, 0
17, 112140, Note_on_c, 11, 70, 84
17, 112191, Note_on_c, 11, 70, 0
17, 112200, Note_on_c, 11, 70, 84
17, 112251, Note_on_c, 11, 70, 0
17, 112260, Note_on_c, 11, 70, 84
17, 112311, Note_on_c, 11, 70, 0
17, 112320, Note_on_c, 11, 70, 92
17, 112320, Note_on_c, 11, 67, 92
17, 112371, Note_on_c, 11, 70, 0
17, 112371, Note_on_c, 11, 67, 0
17, 112380, Note_on_c, 11, 70, 84
17, 112380, Note_on_c, 11, 67, 84
17, 112431, Note_on_c, 11, 70, 0
17, 112431, Note_on_c, 11, 67, 0
17, 112440, Note_on_c, 11, 70, 84
17, 112440, Note_on_c, 11, 67, 84
17, 112491, Note_on_c, 11, 70, 0
17, 112491, Note_on_c, 11, 67, 0
17, 112500, Note_on_c, 11, 67, 83
17, 112500, Note_on_c, 11, 70, 83
17, 112551, Note_on_c, 11, 67, 0
17, 112551, Note_on_c, 11, 70, 0
17, 112560, Note_on_c, 11, 70, 81
17, 112560, Note_on_c, 11, 67, 81
17, 112611, Note_on_c, 11, 70, 0
17, 112611, Note_on_c, 11, 67, 0
17, 112620, Note_on_c, 11, 67, 79
17, 112620, Note_on_c, 11, 70, 79
17, 112671, Note_on_c, 11, 67, 0
17, 112671, Note_on_c, 11, 70, 0
17, 112680, Note_on_c, 11, 70, 78
17, 112680, Note_on_c, 11, 67, 78
17, 112731, Note_on_c, 11, 70, 0
17, 112731, Note_on_c, 11, 67, 0
17, 112740, Note_on_c, 11, 67, 76
17, 112740, Note_on_c, 11, 70, 76
17, 112791, Note_on_c, 11, 67, 0
17, 112791, Note_on_c, 11, 70, 0
17, 112800, Note_on_c, 11, 70, 74
17, 112800, Note_on_c, 11, 67, 74
17, 112851, Note_on_c, 11, 70, 0
17, 112851, Note_on_c, 11, 67, 0
17, 112860, Note_on_c, 11, 70, 72
17, 112860, Note_on_c, 11, 67, 72
17, 112911, Note_on_c, 11, 70, 0
17, 112911, Note_on_c, 11, 67, 0
17, 112920, Note_on_c, 11, 67, 71
17, 112920, Note_on_c, 11, 70, 71
17, 112971, Note_on_c, 11, 67, 0
17, 112971, Note_on_c, 11, 70, 0
17, 112980, Note_on_c, 11, 70, 69
17, 112980, Note_on_c, 11, 67, 69
17, 113031, Note_on_c, 11, 70, 0
17, 113031, Note_on_c, 11, 67, 0
17, 113040, Note_on_c, 11, 70, 67
17, 113040, Note_on_c, 11, 67, 67
17, 113091, Note_on_c, 11, 70, 0
17, 113091, Note_on_c, 11, 67, 0
17, 113100, Note_on_c, 11, 67, 66
17, 113100, Note_on_c, 11, 70, 66
17, 113151, Note_on_c, 11, 67, 0
17, 113151, Note_on_c, 11, 70, 0
17, 113160, Note_on_c, 11, 70, 64
17, 113160, Note_on_c, 11, 67, 64
17, 113211, Note_on_c, 11, 70, 0
17, 113211, Note_on_c, 11, 67, 0
17, 113220, Note_on_c, 11, 70, 62
17, 113220, Note_on_c, 11, 67, 62
17, 113271, Note_on_c, 11, 70, 0
17, 113271, Note_on_c, 11, 67, 0
17, 113280, Note_on_c, 11, 57, 60
17, 113331, Note_on_c, 11, 57, 0
17, 113340, Note_on_c, 11, 57, 60
17, 113391, Note_on_c, 11, 57, 0
17, 113400, Note_on_c, 11, 60, 60
17, 113451, Note_on_c, 11, 60, 0
17, 113460, Note_on_c, 11, 60, 60
17, 113511, Note_on_c, 11, 60, 0
17, 113520, Note_on_c, 11, 57, 60
17, 113571, Note_on_c, 11, 57, 0
17, 113580, Note_on_c, 11, 57, 60
17, 113631, Note_on_c, 11, 57, 0
17, 113640, Note_on_c, 11, 60, 60
17, 113691, Note_on_c, 11, 60, 0
17, 113700, Note_on_c, 11, 60, 60
17, 113751, Note_on_c, 11, 60, 0
17, 113760, Note_on_c, 11, 57, 60
17, 113811, Note_on_c, 11, 57, 0
17, 113820, Note_on_c, 11, 57, 60
17, 113871, Note_on_c, 11, 57, 0
17, 113880, Note_on_c, 11, 60, 60
17, 113931, Note_on_c, 11, 60, 0
17, 113940, Note_on_c, 11, 60, 60
17, 113991, Note_on_c, 11, 60, 0
17, 114000, Note_on_c, 11, 57, 60
17, 114051, Note_on_c, 11, 57, 0
17, 114060, Note_on_c, 11, 57, 60
17, 114111, Note_on_c, 11, 57, 0
17, 114120, Note_on_c, 11, 60, 60
17, 114171, Note_on_c, 11, 60, 0
17, 114180, Note_on_c, 11, 60, 60
17, 114231, Note_on_c, 11, 60, 0
17, 114240, Note_on_c, 11, 58, 60
17, 114291, Note_on_c, 11, 58, 0
17, 114300, Note_on_c, 11, 58, 60
17, 114351, Note_on_c, 11, 58, 0
17, 114360, Note_on_c, 11, 61, 60
17, 114411, Note_on_c, 11, 61, 0
17, 114420, Note_on_c, 11, 61, 60
17, 114471, Note_on_c, 11, 61, 0
17, 114480, Note_on_c, 11, 58, 60
17, 114531, Note_on_c, 11, 58, 0
17, 114540, Note_on_c, 11, 58, 60
17, 114591, Note_on_c, 11, 58, 0
17, 114600, Note_on_c, 11, 61, 59
17, 114651, Note_on_c, 11, 61, 0
17, 114660, Note_on_c, 11, 61, 59
17, 114711, Note_on_c, 11, 61, 0
17, 114720, Note_on_c, 11, 58, 59
17, 114771, Note_on_c, 11, 58, 0
17, 114780, Note_on_c, 11, 58, 59
17, 114831, Note_on_c, 11, 58, 0
17, 114840, Note_on_c, 11, 61, 59
17, 114891, Note_on_c, 11, 61, 0
17, 114900, Note_on_c, 11, 61, 59
17, 114951, Note_on_c, 11, 61, 0
17, 114960, Note_on_c, 11, 57, 59
17, 115011, Note_on_c, 11, 57, 0
17, 115020, Note_on_c, 11, 57, 59
17, 115071, Note_on_c, 11, 57, 0
17, 115080, Note_on_c, 11, 63, 59
17, 115131, Note_on_c, 11, 63, 0
17, 115140, Note_on_c, 11, 63, 59
17, 115191, Note_on_c, 11, 63, 0
17, 115200, Note_on_c, 11, 61, 59
17, 115251, Note_on_c, 11, 61, 0
17, 115260, Note_on_c, 11, 61, 59
17, 115311, Note_on_c, 11, 61, 0
17, 115320, Note_on_c, 11, 65, 59
17, 115371, Note_on_c, 11, 65, 0
17, 115380, Note_on_c, 11, 65, 59
17, 115431, Note_on_c, 11, 65, 0
17, 115440, Note_on_c, 11, 61, 59
17, 115491, Note_on_c, 11, 61, 0
17, 115500, Note_on_c, 11, 61, 59
17, 115551, Note_on_c, 11, 61, 0
17, 115560, Note_on_c, 11, 65, 59
17, 115611, Note_on_c, 11, 65, 0
17, 115620, Note_on_c, 11, 65, 59
17, 115671, Note_on_c, 11, 65, 0
17, 115680, Note_on_c, 11, 61, 59
17, 115731, Note_on_c, 11, 61, 0
17, 115740, Note_on_c, 11, 61, 59
17, 115791, Note_on_c, 11, 61, 0
17, 115800, Note_on_c, 11, 65, 59
17, 115851, Note_on_c, 11, 65, 0
17, 115860, Note_on_c, 11, 65, 59
17, 115911, Note_on_c, 11, 65, 0
17, 115920, Note_on_c, 11, 60, 58
17, 115971, Note_on_c, 11, 60, 0
17, 115980, Note_on_c, 11, 60, 58
17, 116031, Note_on_c, 11, 60, 0
17, 116040, Note_on_c, 11, 62, 58
17, 116091, Note_on_c, 11, 62, 0
17, 116100, Note_on_c, 11, 62, 58
17, 116151, Note_on_c, 11, 62, 0
17, 116160, Note_on_c, 11, 59, 58
17, 116211, Note_on_c, 11, 59, 0
17, 116220, Note_on_c, 11, 59, 58
17, 116271, Note_on_c, 11, 59, 0
17, 116280, Note_on_c, 11, 62, 58
17, 116331, Note_on_c, 11, 62, 0
17, 116340, Note_on_c, 11, 62, 58
17, 116391, Note_on_c, 11, 62, 0
17, 116400, Note_on_c, 11, 59, 58
17, 116451, Note_on_c, 11, 59, 0
17, 116460, Note_on_c, 11, 59, 58
17, 116511, Note_on_c, 11, 59, 0
17, 116520, Note_on_c, 11, 62, 58
17, 116571, Note_on_c, 11, 62, 0
17, 116580, Note_on_c, 11, 62, 58
17, 116631, Note_on_c, 11, 62, 0
17, 116640, Note_on_c, 11, 59, 58
17, 116691, Note_on_c, 11, 59, 0
17, 116700, Note_on_c, 11, 59, 58
17, 116751, Note_on_c, 11, 59, 0
17, 116760, Note_on_c, 11, 62, 58
17, 116811, Note_on_c, 11, 62, 0
17, 116820, Note_on_c, 11, 62, 58
17, 116871, Note_on_c, 11, 62, 0
17, 116880, Note_on_c, 11, 59, 58
17, 116931, Note_on_c, 11, 59, 0
17, 116940, Note_on_c, 11, 59, 58
17, 116991, Note_on_c, 11, 59, 0
17, 117000, Note_on_c, 11, 62, 58
17, 117051, Note_on_c, 11, 62, 0
17, 117060, Note_on_c, 11, 62, 58
17, 117111, Note_on_c, 11, 62, 0
17, 117120, Note_on_c, 11, 59, 58
17, 117171, Note_on_c, 11, 59, 0
17, 117180, Note_on_c, 11, 59, 58
17, 117231, Note_on_c, 11, 59, 0
17, 117240, Note_on_c, 11, 62, 57
17, 117291, Note_on_c, 11, 62, 0
17, 117300, Note_on_c, 11, 62, 57
17, 117351, Note_on_c, 11, 62, 0
17, 117360, Note_on_c, 11, 59, 57
17, 117411, Note_on_c, 11, 59, 0
17, 117420, Note_on_c, 11, 59, 57
17, 117471, Note_on_c, 11, 59, 0
17, 117480, Note_on_c, 11, 62, 57
17, 117531, Note_on_c, 11, 62, 0
17, 117540, Note_on_c, 11, 62, 57
17, 117591, Note_on_c, 11, 62, 0
17, 117600, Note_on_c, 11, 59, 57
17, 117651, Note_on_c, 11, 59, 0
17, 117660, Note_on_c, 11, 59, 57
17, 117711, Note_on_c, 11, 59, 0
17, 117720, Note_on_c, 11, 62, 57
17, 117771, Note_on_c, 11, 62, 0
17, 117780, Note_on_c, 11, 62, 57
17, 117831, Note_on_c, 11, 62, 0
17, 117840, Note_on_c, 11, 59, 57
17, 117891, Note_on_c, 11, 59, 0
17, 117900, Note_on_c, 11, 59, 57
17, 117951, Note_on_c, 11, 59, 0
17, 117960, Note_on_c, 11, 62, 57
17, 118011, Note_on_c, 11, 62, 0
17, 118020, Note_on_c, 11, 62, 57
17, 118071, Note_on_c, 11, 62, 0
17, 118080, Note_on_c, 11, 60, 57
17, 118131, Note_on_c, 11, 60, 0
17, 118140, Note_on_c, 11, 60, 57
17, 118191, Note_on_c, 11, 60, 0
17, 118200, Note_on_c, 11, 63, 57
17, 118251, Note_on_c, 11, 63, 0
17, 118260, Note_on_c, 11, 63, 57
17, 118311, Note_on_c, 11, 63, 0
17, 118320, Note_on_c, 11, 60, 57
17, 118371, Note_on_c, 11, 60, 0
17, 118380, Note_on_c, 11, 60, 57
17, 118431, Note_on_c, 11, 60, 0
17, 118440, Note_on_c, 11, 63, 57
17, 118491, Note_on_c, 11, 63, 0
17, 118500, Note_on_c, 11, 63, 57
17, 118551, Note_on_c, 11, 63, 0
17, 118560, Note_on_c, 11, 60, 56
17, 118611, Note_on_c, 11, 60, 0
17, 118620, Note_on_c, 11, 60, 56
17, 118671, Note_on_c, 11, 60, 0
17, 118680, Note_on_c, 11, 63, 56
17, 118731, Note_on_c, 11, 63, 0
17, 118740, Note_on_c, 11, 63, 56
17, 118791, Note_on_c, 11, 63, 0
17, 118800, Note_on_c, 11, 59, 56
17, 118851, Note_on_c, 11, 59, 0
17, 118860, Note_on_c, 11, 59, 56
17, 118911, Note_on_c, 11, 59, 0
17, 118920, Note_on_c, 11, 65, 56
17, 118971, Note_on_c, 11, 65, 0
17, 118980, Note_on_c, 11, 65, 56
17, 119031, Note_on_c, 11, 65, 0
17, 119040, Note_on_c, 11, 60, 56
17, 119091, Note_on_c, 11, 60, 0
17, 119100, Note_on_c, 11, 60, 56
17, 119151, Note_on_c, 11, 60, 0
17, 119160, Note_on_c, 11, 63, 56
17, 119211, Note_on_c, 11, 63, 0
17, 119220, Note_on_c, 11, 63, 56
17, 119271, Note_on_c, 11, 63, 0
17, 119280, Note_on_c, 11, 60, 56
17, 119331, Note_on_c, 11, 60, 0
17, 119340, Note_on_c, 11, 60, 56
17, 119391, Note_on_c, 11, 60, 0
17, 119400, Note_on_c, 11, 63, 56
17, 119451, Note_on_c, 11, 63, 0
17, 119460, Note_on_c, 11, 63, 56
17, 119511, Note_on_c, 11, 63, 0
17, 119520, Note_on_c, 11, 60, 56
17, 119571, Note_on_c, 11, 60, 0
17, 119580, Note_on_c, 11, 60, 56
17, 119631, Note_on_c, 11, 60, 0
17, 119640, Note_on_c, 11, 63, 56
17, 119691, Note_on_c, 11, 63, 0
17, 119700, Note_on_c, 11, 63, 56
17, 119751, Note_on_c, 11, 63, 0
17, 119760, Note_on_c, 11, 61, 56
17, 119811, Note_on_c, 11, 61, 0
17, 119820, Note_on_c, 11, 61, 56
17, 119871, Note_on_c, 11, 61, 0
17, 119880, Note_on_c, 11, 63, 55
17, 119931, Note_on_c, 11, 63, 0
17, 119940, Note_on_c, 11, 63, 55
17, 119991, Note_on_c, 11, 63, 0
17, 120000, Note_on_c, 11, 60, 55
17, 120051, Note_on_c, 11, 60, 0
17, 120060, Note_on_c, 11, 60, 55
17, 120111, Note_on_c, 11, 60, 0
17, 120120, Note_on_c, 11, 63, 55
17, 120171, Note_on_c, 11, 63, 0
17, 120180, Note_on_c, 11, 63, 55
17, 120231, Note_on_c, 11, 63, 0
17, 120240, Note_on_c, 11, 60, 55
17, 120291, Note_on_c, 11, 60, 0
17, 120300, Note_on_c, 11, 60, 55
17, 120351, Note_on_c, 11, 60, 0
17, 120360, Note_on_c, 11, 63, 55
17, 120411, Note_on_c, 11, 63, 0
17, 120420, Note_on_c, 11, 63, 55
17, 120471, Note_on_c, 11, 63, 0
17, 120480, Note_on_c, 11, 60, 55
17, 120531, Note_on_c, 11, 60, 0
17, 120540, Note_on_c, 11, 60, 55
17, 120591, Note_on_c, 11, 60, 0
17, 120600, Note_on_c, 11, 63, 55
17, 120651, Note_on_c, 11, 63, 0
17, 120660, Note_on_c, 11, 63, 55
17, 120711, Note_on_c, 11, 63, 0
17, 120720, Note_on_c, 11, 60, 55
17, 120771, Note_on_c, 11, 60, 0
17, 120780, Note_on_c, 11, 60, 55
17, 120831, Note_on_c, 11, 60, 0
17, 120840, Note_on_c, 11, 63, 55
17, 120891, Note_on_c, 11, 63, 0
17, 120900, Note_on_c, 11, 63, 55
17, 120951, Note_on_c, 11, 63, 0
17, 120960, Note_on_c, 11, 60, 55
17, 121011, Note_on_c, 11, 60, 0
17, 121020, Note_on_c, 11, 60, 55
17, 121071, Note_on_c, 11, 60, 0
17, 121080, Note_on_c, 11, 63, 55
17, 121131, Note_on_c, 11, 63, 0
17, 121140, Note_on_c, 11, 63, 55
17, 121191, Note_on_c, 11, 63, 0
17, 121200, Note_on_c, 11, 60, 54
17, 121251, Note_on_c, 11, 60, 0
17, 121260, Note_on_c, 11, 60, 54
17, 121311, Note_on_c, 11, 60, 0
17, 121320, Note_on_c, 11, 63, 54
17, 121371, Note_on_c, 11, 63, 0
17, 121380, Note_on_c, 11, 63, 54
17, 121431, Note_on_c, 11, 63, 0
17, 121440, Note_on_c, 11, 60, 54
17, 121491, Note_on_c, 11, 60, 0
17, 121500, Note_on_c, 11, 60, 54
17, 121551, Note_on_c, 11, 60, 0
17, 121560, Note_on_c, 11, 63, 54
17, 121611, Note_on_c, 11, 63, 0
17, 121620, Note_on_c, 11, 63, 54
17, 121671, Note_on_c, 11, 63, 0
17, 121680, Note_on_c, 11, 60, 54
17, 121731, Note_on_c, 11, 60, 0
17, 121740, Note_on_c, 11, 60, 54
17, 121791, Note_on_c, 11, 60, 0
17, 121800, Note_on_c, 11, 63, 54
17, 121851, Note_on_c, 11, 63, 0
17, 121860, Note_on_c, 11, 63, 54
17, 121911, Note_on_c, 11, 63, 0
17, 121920, Note_on_c, 11, 61, 54
17, 121971, Note_on_c, 11, 61, 0
17, 121980, Note_on_c, 11, 61, 54
17, 122031, Note_on_c, 11, 61, 0
17, 122040, Note_on_c, 11, 65, 54
17, 122091, Note_on_c, 11, 65, 0
17, 122100, Note_on_c, 11, 65, 54
17, 122151, Note_on_c, 11, 65, 0
17, 122160, Note_on_c, 11, 61, 54
17, 122211, Note_on_c, 11, 61, 0
17, 122220, Note_on_c, 11, 61, 54
17, 122271, Note_on_c, 11, 61, 0
17, 122280, Note_on_c, 11, 65, 54
17, 122331, Note_on_c, 11, 65, 0
17, 122340, Note_on_c, 11, 65, 54
17, 122391, Note_on_c, 11, 65, 0
17, 122400, Note_on_c, 11, 61, 54
17, 122451, Note_on_c, 11, 61, 0
17, 122460, Note_on_c, 11, 61, 54
17, 122511, Note_on_c, 11, 61, 0
17, 122520, Note_on_c, 11, 65, 53
17, 122571, Note_on_c, 11, 65, 0
17, 122580, Note_on_c, 11, 65, 53
17, 122631, Note_on_c, 11, 65, 0
17, 122640, Note_on_c, 11, 60, 53
17, 122691, Note_on_c, 11, 60, 0
17, 122700, Note_on_c, 11, 60, 53
17, 122751, Note_on_c, 11, 60, 0
17, 122760, Note_on_c, 11, 66, 53
17, 122811, Note_on_c, 11, 66, 0
17, 122820, Note_on_c, 11, 66, 53
17, 122871, Note_on_c, 11, 66, 0
17, 122880, Note_on_c, 11, 65, 53
17, 122931, Note_on_c, 11, 65, 0
17, 122940, Note_on_c, 11, 65, 53
17, 122991, Note_on_c, 11, 65, 0
17, 123000, Note_on_c, 11, 68, 53
17, 123051, Note_on_c, 11, 68, 0
17, 123060, Note_on_c, 11, 68, 53
17, 123111, Note_on_c, 11, 68, 0
17, 123120, Note_on_c, 11, 65, 53
17, 123171, Note_on_c, 11, 65, 0
17, 123180, Note_on_c, 11, 65, 53
17, 123231, Note_on_c, 11, 65, 0
17, 123240, Note_on_c, 11, 68, 53
17, 123291, Note_on_c, 11, 68, 0
17, 123300, Note_on_c, 11, 68, 53
17, 123351, Note_on_c, 11, 68, 0
17, 123360, Note_on_c, 11, 65, 53
17, 123411, Note_on_c, 11, 65, 0
17, 123420, Note_on_c, 11, 65, 53
17, 123471, Note_on_c, 11, 65, 0
17, 123480, Note_on_c, 11, 68, 53
17, 123531, Note_on_c, 11, 68, 0
17, 123540, Note_on_c, 11, 68, 53
17, 123591, Note_on_c, 11, 68, 0
17, 123600, Note_on_c, 11, 65, 53
17, 123651, Note_on_c, 11, 65, 0
17, 123660, Note_on_c, 11, 65, 53
17, 123711, Note_on_c, 11, 65, 0
17, 123720, Note_on_c, 11, 77, 53
17, 123771, Note_on_c, 11, 77, 0
17, 123780, Note_on_c, 11, 77, 53
17, 123831, Note_on_c, 11, 77, 0
17, 123840, Note_on_c, 11, 77, 52
17, 123891, Note_on_c, 11, 77, 0
17, 123900, Note_on_c, 11, 77, 52
17, 123951, Note_on_c, 11, 77, 0
17, 123960, Note_on_c, 11, 77, 52
17, 124011, Note_on_c, 11, 77, 0
17, 124020, Note_on_c, 11, 77, 52
17, 124071, Note_on_c, 11, 77, 0
17, 124080, Note_on_c, 11, 77, 52
17, 124131, Note_on_c, 11, 77, 0
17, 124140, Note_on_c, 11, 77, 52
17, 124191, Note_on_c, 11, 77, 0
17, 124200, Note_on_c, 11, 77, 52
17, 124251, Note_on_c, 11, 77, 0
17, 124260, Note_on_c, 11, 77, 52
17, 124311, Note_on_c, 11, 77, 0
17, 124320, Note_on_c, 11, 77, 52
17, 124371, Note_on_c, 11, 77, 0
17, 124380, Note_on_c, 11, 77, 52
17, 124431, Note_on_c, 11, 77, 0
17, 124440, Note_on_c, 11, 77, 52
17, 124491, Note_on_c, 11, 77, 0
17, 124500, Note_on_c, 11, 77, 52
17, 124551, Note_on_c, 11, 77, 0
17, 124560, Note_on_c, 11, 77, 52
17, 124611, Note_on_c, 11, 77, 0
17, 124620, Note_on_c, 11, 77, 52
17, 124671, Note_on_c, 11, 77, 0
17, 124680, Note_on_c, 11, 77, 52
17, 124731, Note_on_c, 11, 77, 0
17, 124740, Note_on_c, 11, 77, 52
17, 124791, Note_on_c, 11, 77, 0
17, 124800, Note_on_c, 11, 77, 52
17, 124851, Note_on_c, 11, 77, 0
17, 124860, Note_on_c, 11, 77, 52
17, 124911, Note_on_c, 11, 77, 0
17, 124920, Note_on_c, 11, 77, 52
17, 124971, Note_on_c, 11, 77, 0
17, 124980, Note_on_c, 11, 77, 52
17, 125031, Note_on_c, 11, 77, 0
17, 125040, Note_on_c, 11, 77, 52
17, 125091, Note_on_c, 11, 77, 0
17, 125100, Note_on_c, 11, 77, 52
17, 125151, Note_on_c, 11, 77, 0
17, 125160, Note_on_c, 11, 77, 52
17, 125211, Note_on_c, 11, 77, 0
17, 125220, Note_on_c, 11, 77, 52
17, 125271, Note_on_c, 11, 77, 0
17, 125280, Note_on_c, 11, 77, 52
17, 125331, Note_on_c, 11, 77, 0
17, 125340, Note_on_c, 11, 77, 52
17, 125391, Note_on_c, 11, 77, 0
17, 125400, Note_on_c, 11, 77, 52
17, 125451, Note_on_c, 11, 77, 0
17, 125460, Note_on_c, 11, 77, 52
17, 125511, Note_on_c, 11, 77, 0
17, 125520, Note_on_c, 11, 77, 52
17, 125571, Note_on_c, 11, 77, 0
17, 125580, Note_on_c, 11, 77, 52
17, 125631, Note_on_c, 11, 77, 0
17, 125640, Note_on_c, 11, 77, 52
17, 125691, Note_on_c, 11, 77, 0
17, 125700, Note_on_c, 11, 77, 52
17, 125751, Note_on_c, 11, 77, 0
17, 125760, Note_on_c, 11, 77, 52
17, 125811, Note_on_c, 11, 77, 0
17, 125820, Note_on_c, 11, 77, 52
17, 125871, Note_on_c, 11, 77, 0
17, 125880, Note_on_c, 11, 77, 52
17, 125931, Note_on_c, 11, 77, 0
17, 125940, Note_on_c, 11, 77, 52
17, 125991, Note_on_c, 11, 77, 0
17, 126000, Note_on_c, 11, 77, 52
17, 126051, Note_on_c, 11, 77, 0
17, 126060, Note_on_c, 11, 77, 52
17, 126111, Note_on_c, 11, 77, 0
17, 126120, Note_on_c, 11, 77, 52
17, 126171, Note_on_c, 11, 77, 0
17, 126180, Note_on_c, 11, 77, 52
17, 126231, Note_on_c, 11, 77, 0
17, 126240, Note_on_c, 11, 77, 51
17, 126291, Note_on_c, 11, 77, 0
17, 126300, Note_on_c, 11, 77, 51
17, 126351, Note_on_c, 11, 77, 0
17, 126360, Note_on_c, 11, 77, 51
17, 126411, Note_on_c, 11, 77, 0
17, 126420, Note_on_c, 11, 77, 51
17, 126471, Note_on_c, 11, 77, 0
17, 126480, Note_on_c, 11, 77, 51
17, 126531, Note_on_c, 11, 77, 0
17, 126540, Note_on_c, 11, 77, 51
17, 126591, Note_on_c, 11, 77, 0
17, 126600, Note_on_c, 11, 77, 51
17, 126651, Note_on_c, 11, 77, 0
17, 126660, Note_on_c, 11, 77, 51
17, 126711, Note_on_c, 11, 77, 0
17, 126720, Note_on_c, 11, 77, 50
17, 126771, Note_on_c, 11, 77, 0
17, 126780, Note_on_c, 11, 77, 50
17, 126831, Note_on_c, 11, 77, 0
17, 126840, Note_on_c, 11, 77, 50
17, 126891, Note_on_c, 11, 77, 0
17, 126900, Note_on_c, 11, 77, 50
17, 126951, Note_on_c, 11, 77, 0
17, 126960, Note_on_c, 11, 77, 50
17, 127011, Note_on_c, 11, 77, 0
17, 127020, Note_on_c, 11, 77, 50
17, 127071, Note_on_c, 11, 77, 0
17, 127080, Note_on_c, 11, 77, 50
17, 127131, Note_on_c, 11, 77, 0
17, 127140, Note_on_c, 11, 77, 50
17, 127191, Note_on_c, 11, 77, 0
17, 127200, Note_on_c, 11, 77, 49
17, 127251, Note_on_c, 11, 77, 0
17, 127260, Note_on_c, 11, 77, 49
17, 127311, Note_on_c, 11, 77, 0
17, 127320, Note_on_c, 11, 77, 49
17, 127371, Note_on_c, 11, 77, 0
17, 127380, Note_on_c, 11, 77, 49
17, 127431, Note_on_c, 11, 77, 0
17, 127440, Note_on_c, 11, 77, 49
17, 127491, Note_on_c, 11, 77, 0
17, 127500, Note_on_c, 11, 77, 49
17, 127551, Note_on_c, 11, 77, 0
17, 127560, Note_on_c, 11, 77, 49
17, 127611, Note_on_c, 11, 77, 0
17, 127620, Note_on_c, 11, 77, 49
17, 127671, Note_on_c, 11, 77, 0
17, 127680, Note_on_c, 11, 77, 48
17, 127731, Note_on_c, 11, 77, 0
17, 127740, Note_on_c, 11, 77, 48
17, 127791, Note_on_c, 11, 77, 0
17, 127800, Note_on_c, 11, 77, 48
17, 127851, Note_on_c, 11, 77, 0
17, 127860, Note_on_c, 11, 77, 48
17, 127911, Note_on_c, 11, 77, 0
17, 127920, Note_on_c, 11, 77, 48
17, 127971, Note_on_c, 11, 77, 0
17, 127980, Note_on_c, 11, 77, 48
17, 128031, Note_on_c, 11, 77, 0
17, 128040, Note_on_c, 11, 77, 48
17, 128091, Note_on_c, 11, 77, 0
17, 128100, Note_on_c, 11, 77, 48
17, 128151, Note_on_c, 11, 77, 0
17, 128160, Note_on_c, 11, 77, 47
17, 128211, Note_on_c, 11, 77, 0
17, 128220, Note_on_c, 11, 77, 47
17, 128271, Note_on_c, 11, 77, 0
17, 128280, Note_on_c, 11, 77, 47
17, 128331, Note_on_c, 11, 77, 0
17, 128340, Note_on_c, 11, 77, 47
17, 128391, Note_on_c, 11, 77, 0
17, 128400, Note_on_c, 11, 77, 47
17, 128451, Note_on_c, 11, 77, 0
17, 128460, Note_on_c, 11, 77, 47
17, 128511, Note_on_c, 11, 77, 0
17, 128520, Note_on_c, 11, 77, 47
17, 128571, Note_on_c, 11, 77, 0
17, 128580, Note_on_c, 11, 77, 47
17, 128631, Note_on_c, 11, 77, 0
17, 128640, Note_on_c, 11, 77, 46
17, 128691, Note_on_c, 11, 77, 0
17, 128700, Note_on_c, 11, 77, 46
17, 128751, Note_on_c, 11, 77, 0
17, 128760, Note_on_c, 11, 77, 46
17, 128811, Note_on_c, 11, 77, 0
17, 128820, Note_on_c, 11, 77, 46
17, 128871, Note_on_c, 11, 77, 0
17, 128880, Note_on_c, 11, 77, 46
17, 128931, Note_on_c, 11, 77, 0
17, 128940, Note_on_c, 11, 77, 46
17, 128991, Note_on_c, 11, 77, 0
17, 129000, Note_on_c, 11, 77, 46
17, 129051, Note_on_c, 11, 77, 0
17, 129060, Note_on_c, 11, 77, 46
17, 129111, Note_on_c, 11, 77, 0
17, 129120, Note_on_c, 11, 77, 45
17, 129171, Note_on_c, 11, 77, 0
17, 129180, Note_on_c, 11, 77, 45
17, 129231, Note_on_c, 11, 77, 0
17, 129240, Note_on_c, 11, 77, 45
17, 129291, Note_on_c, 11, 77, 0
17, 129300, Note_on_c, 11, 77, 45
17, 129351, Note_on_c, 11, 77, 0
17, 129360, Note_on_c, 11, 77, 45
17, 129411, Note_on_c, 11, 77, 0
17, 129420, Note_on_c, 11, 77, 45
17, 129471, Note_on_c, 11, 77, 0
17, 129480, Note_on_c, 11, 77, 45
17, 129531, Note_on_c, 11, 77, 0
17, 129540, Note_on_c, 11, 77, 45
17, 129591, Note_on_c, 11, 77, 0
17, 129600, Note_on_c, 11, 76, 44
17, 129839, Note_on_c, 11, 76, 0
17, 130560, Note_on_c, 11, 67, 76
17, 131504, Note_on_c, 11, 67, 0
17, 131520, Note_on_c, 11, 68, 52
17, 131759, Note_on_c, 11, 68, 0
17, 132480, Note_on_c, 11, 68, 76
17, 133424, Note_on_c, 11, 68, 0
17, 133440, Note_on_c, 11, 67, 52
17, 133679, Note_on_c, 11, 67, 0
17, 134784, Control_c, 11, 11, 124
17, 134880, Note_on_c, 11, 67, 52
17, 134912, Control_c, 11, 11, 123
17, 135040, Control_c, 11, 11, 122
17, 135168, Control_c, 11, 11, 121
17, 135296, Control_c, 11, 11, 120
17, 135344, Note_on_c, 11, 67, 0
17, 135360, Note_on_c, 11, 68, 52
17, 135424, Control_c, 11, 11, 119
17, 135552, Control_c, 11, 11, 118
17, 135599, Note_on_c, 11, 68, 0
17, 136320, Control_c, 11, 11, 127
17, 136800, Note_on_c, 11, 68, 44
17, 137264, Note_on_c, 11, 68, 0
17, 137280, Note_on_c, 11, 64, 44
17, 138239, Note_on_c, 11, 64, 0
17, 138240, Note_on_c, 11, 64, 44
17, 139199, Note_on_c, 11, 64, 0
17, 139200, Note_on_c, 11, 64, 48
17, 139664, Note_on_c, 11, 64, 0
17, 139680, Note_on_c, 11, 67, 48
17, 140159, Note_on_c, 11, 67, 0
17, 140160, Note_on_c, 11, 69, 48
17, 140639, Note_on_c, 11, 69, 0
17, 140640, Note_on_c, 11, 67, 48
17, 141119, Note_on_c, 11, 67, 0
17, 141120, Note_on_c, 11, 65, 48
17, 141599, Note_on_c, 11, 65, 0
17, 141600, Note_on_c, 11, 64, 48
17, 142079, Note_on_c, 11, 64, 0
17, 142080, Note_on_c, 11, 62, 48
17, 142559, Note_on_c, 11, 62, 0
17, 142560, Note_on_c, 11, 65, 48
17, 143024, Note_on_c, 11, 65, 0
17, 143040, Note_on_c, 11, 60, 48
17, 143519, Note_on_c, 11, 60, 0
17, 143520, Note_on_c, 11, 64, 48
17, 143999, Note_on_c, 11, 64, 0
17, 144000, Note_on_c, 11, 65, 48
17, 144479, Note_on_c, 11, 65, 0
17, 144480, Note_on_c, 11, 64, 48
17, 144959, Note_on_c, 11, 64, 0
17, 144960, Note_on_c, 11, 60, 48
17, 145424, Note_on_c, 11, 60, 0
17, 145440, Note_on_c, 11, 60, 48
17, 145919, Note_on_c, 11, 60, 0
17, 145920, Note_on_c, 11, 57, 48
17, 146399, Note_on_c, 11, 57, 0
17, 146400, Note_on_c, 11, 55, 48
17, 146864, Note_on_c, 11, 55, 0
17, 146880, Note_on_c, 11, 59, 48
17, 147119, Note_on_c, 11, 59, 0
17, 147119, End_track
18, 0, Start_track
18, 0, Title_t, "Viola "
18, 0, MIDI_port, 0
18, 0, Program_c, 12, 48
18, 0, Control_c, 12, 11, 127
18, 0, Control_c, 12, 10, 70
18, 0, Control_c, 12, 7, 96
18, 6840, Note_on_c, 12, 56, 44
18, 6929, Note_on_c, 12, 56, 0
18, 6960, Note_on_c, 12, 59, 44
18, 7049, Note_on_c, 12, 59, 0
18, 7080, Note_on_c, 12, 58, 44
18, 7169, Note_on_c, 12, 58, 0
18, 7200, Note_on_c, 12, 56, 44
18, 7289, Note_on_c, 12, 56, 0
18, 7320, Note_on_c, 12, 54, 44
18, 7409, Note_on_c, 12, 54, 0
18, 7440, Note_on_c, 12, 53, 44
18, 7529, Note_on_c, 12, 53, 0
18, 7560, Note_on_c, 12, 51, 44
18, 7649, Note_on_c, 12, 51, 0
18, 7680, Note_on_c, 12, 50, 44
18, 7919, Note_on_c, 12, 50, 0
18, 16440, Note_on_c, 12, 58, 52
18, 16529, Note_on_c, 12, 58, 0
18, 16560, Note_on_c, 12, 61, 52
18, 16649, Note_on_c, 12, 61, 0
18, 16680, Note_on_c, 12, 60, 52
18, 16769, Note_on_c, 12, 60, 0
18, 16800, Note_on_c, 12, 58, 52
18, 16889, Note_on_c, 12, 58, 0
18, 16920, Note_on_c, 12, 56, 52
18, 17009, Note_on_c, 12, 56, 0
18, 17040, Note_on_c, 12, 55, 52
18, 17129, Note_on_c, 12, 55, 0
18, 17160, Note_on_c, 12, 53, 52
18, 17249, Note_on_c, 12, 53, 0
18, 17280, Note_on_c, 12, 52, 52
18, 17519, Note_on_c, 12, 52, 0
18, 19200, Note_on_c, 12, 53, 84
18, 19251, Note_on_c, 12, 53, 0
18, 19260, Note_on_c, 12, 53, 84
18, 19260, Note_on_c, 12, 65, 84
18, 19260, Note_on_c, 12, 56, 84
18, 19311, Note_on_c, 12, 53, 0
18, 19311, Note_on_c, 12, 65, 0
18, 19311, Note_on_c, 12, 56, 0
18, 19320, Note_on_c, 12, 56, 84
18, 19320, Note_on_c, 12, 65, 84
18, 19320, Note_on_c, 12, 53, 84
18, 19371, Note_on_c, 12, 56, 0
18, 19371, Note_on_c, 12, 65, 0
18, 19371, Note_on_c, 12, 53, 0
18, 19380, Note_on_c, 12, 53, 84
18, 19380, Note_on_c, 12, 56, 84
18, 19380, Note_on_c, 12, 65, 84
18, 19431, Note_on_c, 12, 53, 0
18, 19431, Note_on_c, 12, 56, 0
18, 19431, Note_on_c, 12, 65, 0
18, 19440, Note_on_c, 12, 53, 84
18, 19440, Note_on_c, 12, 56, 84
18, 19440, Note_on_c, 12, 65, 84
18, 19491, Note_on_c, 12, 53, 0
18, 19491, Note_on_c, 12, 56, 0
18, 19491, Note_on_c, 12, 65, 0
18, 19500, Note_on_c, 12, 56, 84
18, 19500, Note_on_c, 12, 53, 84
18, 19500, Note_on_c, 12, 65, 84
18, 19551, Note_on_c, 12, 56, 0
18, 19551, Note_on_c, 12, 53, 0
18, 19551, Note_on_c, 12, 65, 0
18, 19560, Note_on_c, 12, 65, 84
18, 19560, Note_on_c, 12, 56, 84
18, 19560, Note_on_c, 12, 53, 84
18, 19611, Note_on_c, 12, 65, 0
18, 19611, Note_on_c, 12, 56, 0
18, 19611, Note_on_c, 12, 53, 0
18, 19620, Note_on_c, 12, 53, 84
18, 19620, Note_on_c, 12, 65, 84
18, 19620, Note_on_c, 12, 56, 84
18, 19671, Note_on_c, 12, 53, 0
18, 19671, Note_on_c, 12, 65, 0
18, 19671, Note_on_c, 12, 56, 0
18, 19680, Note_on_c, 12, 56, 84
18, 19680, Note_on_c, 12, 53, 84
18, 19680, Note_on_c, 12, 65, 84
18, 19731, Note_on_c, 12, 56, 0
18, 19731, Note_on_c, 12, 53, 0
18, 19731, Note_on_c, 12, 65, 0
18, 19740, Note_on_c, 12, 53, 84
18, 19740, Note_on_c, 12, 65, 84
18, 19740, Note_on_c, 12, 56, 84
18, 19791, Note_on_c, 12, 53, 0
18, 19791, Note_on_c, 12, 65, 0
18, 19791, Note_on_c, 12, 56, 0
18, 19800, Note_on_c, 12, 56, 84
18, 19800, Note_on_c, 12, 65, 84
18, 19800, Note_on_c, 12, 53, 84
18, 19851, Note_on_c, 12, 56, 0
18, 19851, Note_on_c, 12, 65, 0
18, 19851, Note_on_c, 12, 53, 0
18, 19860, Note_on_c, 12, 56, 84
18, 19860, Note_on_c, 12, 65, 84
18, 19860, Note_on_c, 12, 53, 84
18, 19911, Note_on_c, 12, 56, 0
18, 19911, Note_on_c, 12, 65, 0
18, 19911, Note_on_c, 12, 53, 0
18, 19920, Note_on_c, 12, 56, 84
18, 19920, Note_on_c, 12, 53, 84
18, 19920, Note_on_c, 12, 65, 84
18, 19971, Note_on_c, 12, 56, 0
18, 19971, Note_on_c, 12, 53, 0
18, 19971, Note_on_c, 12, 65, 0
18, 19980, Note_on_c, 12, 53, 84
18, 19980, Note_on_c, 12, 56, 84
18, 19980, Note_on_c, 12, 65, 84
18, 20031, Note_on_c, 12, 53, 0
18, 20031, Note_on_c, 12, 56, 0
18, 20031, Note_on_c, 12, 65, 0
18, 20040, Note_on_c, 12, 56, 84
18, 20040, Note_on_c, 12, 53, 84
18, 20040, Note_on_c, 12, 65, 84
18, 20091, Note_on_c, 12, 56, 0
18, 20091, Note_on_c, 12, 53, 0
18, 20091, Note_on_c, 12, 65, 0
18, 20100, Note_on_c, 12, 56, 84
18, 20100, Note_on_c, 12, 53, 84
18, 20100, Note_on_c, 12, 65, 84
18, 20151, Note_on_c, 12, 56, 0
18, 20151, Note_on_c, 12, 53, 0
18, 20151, Note_on_c, 12, 65, 0
18, 20160, Note_on_c, 12, 65, 84
18, 20160, Note_on_c, 12, 53, 84
18, 20160, Note_on_c, 12, 56, 84
18, 20211, Note_on_c, 12, 65, 0
18, 20211, Note_on_c, 12, 53, 0
18, 20211, Note_on_c, 12, 56, 0
18, 20220, Note_on_c, 12, 53, 84
18, 20220, Note_on_c, 12, 56, 84
18, 20220, Note_on_c, 12, 65, 84
18, 20271, Note_on_c, 12, 53, 0
18, 20271, Note_on_c, 12, 56, 0
18, 20271, Note_on_c, 12, 65, 0
18, 20280, Note_on_c, 12, 56, 84
18, 20280, Note_on_c, 12, 53, 84
18, 20280, Note_on_c, 12, 65, 84
18, 20331, Note_on_c, 12, 56, 0
18, 20331, Note_on_c, 12, 53, 0
18, 20331, Note_on_c, 12, 65, 0
18, 20340, Note_on_c, 12, 53, 84
18, 20340, Note_on_c, 12, 56, 84
18, 20340, Note_on_c, 12, 65, 84
18, 20391, Note_on_c, 12, 53, 0
18, 20391, Note_on_c, 12, 56, 0
18, 20391, Note_on_c, 12, 65, 0
18, 20400, Note_on_c, 12, 56, 84
18, 20400, Note_on_c, 12, 53, 84
18, 20400, Note_on_c, 12, 65, 84
18, 20451, Note_on_c, 12, 56, 0
18, 20451, Note_on_c, 12, 53, 0
18, 20451, Note_on_c, 12, 65, 0
18, 20460, Note_on_c, 12, 56, 84
18, 20460, Note_on_c, 12, 53, 84
18, 20460, Note_on_c, 12, 65, 84
18, 20511, Note_on_c, 12, 56, 0
18, 20511, Note_on_c, 12, 53, 0
18, 20511, Note_on_c, 12, 65, 0
18, 20520, Note_on_c, 12, 56, 84
18, 20520, Note_on_c, 12, 65, 84
18, 20520, Note_on_c, 12, 53, 84
18, 20571, Note_on_c, 12, 56, 0
18, 20571, Note_on_c, 12, 65, 0
18, 20571, Note_on_c, 12, 53, 0
18, 20580, Note_on_c, 12, 53, 84
18, 20580, Note_on_c, 12, 65, 84
18, 20580, Note_on_c, 12, 56, 84
18, 20631, Note_on_c, 12, 53, 0
18, 20631, Note_on_c, 12, 65, 0
18, 20631, Note_on_c, 12, 56, 0
18, 20640, Note_on_c, 12, 65, 84
18, 20640, Note_on_c, 12, 56, 84
18, 20640, Note_on_c, 12, 53, 84
18, 20691, Note_on_c, 12, 65, 0
18, 20691, Note_on_c, 12, 56, 0
18, 20691, Note_on_c, 12, 53, 0
18, 20700, Note_on_c, 12, 65, 84
18, 20700, Note_on_c, 12, 53, 84
18, 20700, Note_on_c, 12, 56, 84
18, 20751, Note_on_c, 12, 65, 0
18, 20751, Note_on_c, 12, 53, 0
18, 20751, Note_on_c, 12, 56, 0
18, 20760, Note_on_c, 12, 56, 84
18, 20760, Note_on_c, 12, 53, 84
18, 20760, Note_on_c, 12, 65, 84
18, 20811, Note_on_c, 12, 56, 0
18, 20811, Note_on_c, 12, 53, 0
18, 20811, Note_on_c, 12, 65, 0
18, 20820, Note_on_c, 12, 56, 84
18, 20820, Note_on_c, 12, 53, 84
18, 20820, Note_on_c, 12, 65, 84
18, 20871, Note_on_c, 12, 56, 0
18, 20871, Note_on_c, 12, 53, 0
18, 20871, Note_on_c, 12, 65, 0
18, 20880, Note_on_c, 12, 65, 84
18, 20880, Note_on_c, 12, 56, 84
18, 20880, Note_on_c, 12, 53, 84
18, 20931, Note_on_c, 12, 65, 0
18, 20931, Note_on_c, 12, 56, 0
18, 20931, Note_on_c, 12, 53, 0
18, 20940, Note_on_c, 12, 53, 84
18, 20940, Note_on_c, 12, 65, 84
18, 20940, Note_on_c, 12, 56, 84
18, 20991, Note_on_c, 12, 53, 0
18, 20991, Note_on_c, 12, 65, 0
18, 20991, Note_on_c, 12, 56, 0
18, 21000, Note_on_c, 12, 56, 84
18, 21000, Note_on_c, 12, 53, 84
18, 21000, Note_on_c, 12, 65, 84
18, 21051, Note_on_c, 12, 56, 0
18, 21051, Note_on_c, 12, 53, 0
18, 21051, Note_on_c, 12, 65, 0
18, 21060, Note_on_c, 12, 56, 84
18, 21060, Note_on_c, 12, 53, 84
18, 21060, Note_on_c, 12, 65, 84
18, 21111, Note_on_c, 12, 56, 0
18, 21111, Note_on_c, 12, 53, 0
18, 21111, Note_on_c, 12, 65, 0
18, 21120, Note_on_c, 12, 65, 84
18, 21120, Note_on_c, 12, 53, 84
18, 21120, Note_on_c, 12, 56, 84
18, 21824, Note_on_c, 12, 65, 0
18, 21824, Note_on_c, 12, 53, 0
18, 21824, Note_on_c, 12, 56, 0
18, 21840, Note_on_c, 12, 72, 84
18, 22011, Note_on_c, 12, 72, 0
18, 22020, Note_on_c, 12, 68, 84
18, 22071, Note_on_c, 12, 68, 0
18, 22080, Note_on_c, 12, 65, 84
18, 22304, Note_on_c, 12, 65, 0
18, 22320, Note_on_c, 12, 60, 84
18, 22491, Note_on_c, 12, 60, 0
18, 22500, Note_on_c, 12, 56, 84
18, 22551, Note_on_c, 12, 56, 0
18, 22560, Note_on_c, 12, 53, 84
18, 22784, Note_on_c, 12, 53, 0
18, 22800, Note_on_c, 12, 53, 84
18, 23024, Note_on_c, 12, 53, 0
18, 23040, Note_on_c, 12, 58, 84
18, 23040, Note_on_c, 12, 61, 84
18, 23091, Note_on_c, 12, 58, 0
18, 23091, Note_on_c, 12, 61, 0
18, 23100, Note_on_c, 12, 58, 84
18, 23100, Note_on_c, 12, 61, 84
18, 23151, Note_on_c, 12, 58, 0
18, 23151, Note_on_c, 12, 61, 0
18, 23160, Note_on_c, 12, 61, 84
18, 23160, Note_on_c, 12, 58, 84
18, 23211, Note_on_c, 12, 61, 0
18, 23211, Note_on_c, 12, 58, 0
18, 23220, Note_on_c, 12, 58, 84
18, 23220, Note_on_c, 12, 61, 84
18, 23271, Note_on_c, 12, 58, 0
18, 23271, Note_on_c, 12, 61, 0
18, 23280, Note_on_c, 12, 58, 84
18, 23280, Note_on_c, 12, 61, 84
18, 23331, Note_on_c, 12, 58, 0
18, 23331, Note_on_c, 12, 61, 0
18, 23340, Note_on_c, 12, 58, 84
18, 23340, Note_on_c, 12, 61, 84
18, 23391, Note_on_c, 12, 58, 0
18, 23391, Note_on_c, 12, 61, 0
18, 23400, Note_on_c, 12, 61, 84
18, 23400, Note_on_c, 12, 58, 84
18, 23451, Note_on_c, 12, 61, 0
18, 23451, Note_on_c, 12, 58, 0
18, 23460, Note_on_c, 12, 58, 84
18, 23460, Note_on_c, 12, 61, 84
18, 23511, Note_on_c, 12, 58, 0
18, 23511, Note_on_c, 12, 61, 0
18, 23520, Note_on_c, 12, 58, 84
18, 23520, Note_on_c, 12, 61, 84
18, 23571, Note_on_c, 12, 58, 0
18, 23571, Note_on_c, 12, 61, 0
18, 23580, Note_on_c, 12, 61, 84
18, 23580, Note_on_c, 12, 58, 84
18, 23631, Note_on_c, 12, 61, 0
18, 23631, Note_on_c, 12, 58, 0
18, 23640, Note_on_c, 12, 58, 84
18, 23640, Note_on_c, 12, 61, 84
18, 23691, Note_on_c, 12, 58, 0
18, 23691, Note_on_c, 12, 61, 0
18, 23700, Note_on_c, 12, 61, 84
18, 23700, Note_on_c, 12, 58, 84
18, 23751, Note_on_c, 12, 61, 0
18, 23751, Note_on_c, 12, 58, 0
18, 23760, Note_on_c, 12, 61, 84
18, 23760, Note_on_c, 12, 58, 84
18, 23811, Note_on_c, 12, 61, 0
18, 23811, Note_on_c, 12, 58, 0
18, 23820, Note_on_c, 12, 58, 84
18, 23820, Note_on_c, 12, 61, 84
18, 23871, Note_on_c, 12, 58, 0
18, 23871, Note_on_c, 12, 61, 0
18, 23880, Note_on_c, 12, 58, 84
18, 23880, Note_on_c, 12, 61, 84
18, 23931, Note_on_c, 12, 58, 0
18, 23931, Note_on_c, 12, 61, 0
18, 23940, Note_on_c, 12, 61, 84
18, 23940, Note_on_c, 12, 58, 84
18, 23991, Note_on_c, 12, 61, 0
18, 23991, Note_on_c, 12, 58, 0
18, 24000, Note_on_c, 12, 58, 84
18, 24000, Note_on_c, 12, 61, 84
18, 24051, Note_on_c, 12, 58, 0
18, 24051, Note_on_c, 12, 61, 0
18, 24060, Note_on_c, 12, 61, 84
18, 24060, Note_on_c, 12, 58, 84
18, 24111, Note_on_c, 12, 61, 0
18, 24111, Note_on_c, 12, 58, 0
18, 24120, Note_on_c, 12, 61, 84
18, 24120, Note_on_c, 12, 58, 84
18, 24171, Note_on_c, 12, 61, 0
18, 24171, Note_on_c, 12, 58, 0
18, 24180, Note_on_c, 12, 58, 84
18, 24180, Note_on_c, 12, 61, 84
18, 24231, Note_on_c, 12, 58, 0
18, 24231, Note_on_c, 12, 61, 0
18, 24240, Note_on_c, 12, 61, 84
18, 24240, Note_on_c, 12, 58, 84
18, 24291, Note_on_c, 12, 61, 0
18, 24291, Note_on_c, 12, 58, 0
18, 24300, Note_on_c, 12, 61, 84
18, 24300, Note_on_c, 12, 58, 84
18, 24351, Note_on_c, 12, 61, 0
18, 24351, Note_on_c, 12, 58, 0
18, 24360, Note_on_c, 12, 58, 84
18, 24360, Note_on_c, 12, 61, 84
18, 24411, Note_on_c, 12, 58, 0
18, 24411, Note_on_c, 12, 61, 0
18, 24420, Note_on_c, 12, 61, 84
18, 24420, Note_on_c, 12, 58, 84
18, 24471, Note_on_c, 12, 61, 0
18, 24471, Note_on_c, 12, 58, 0
18, 24480, Note_on_c, 12, 61, 84
18, 24480, Note_on_c, 12, 58, 84
18, 24531, Note_on_c, 12, 61, 0
18, 24531, Note_on_c, 12, 58, 0
18, 24540, Note_on_c, 12, 61, 84
18, 24540, Note_on_c, 12, 58, 84
18, 24591, Note_on_c, 12, 61, 0
18, 24591, Note_on_c, 12, 58, 0
18, 24600, Note_on_c, 12, 61, 84
18, 24600, Note_on_c, 12, 58, 84
18, 24651, Note_on_c, 12, 61, 0
18, 24651, Note_on_c, 12, 58, 0
18, 24660, Note_on_c, 12, 61, 84
18, 24660, Note_on_c, 12, 58, 84
18, 24711, Note_on_c, 12, 61, 0
18, 24711, Note_on_c, 12, 58, 0
18, 24720, Note_on_c, 12, 61, 84
18, 24720, Note_on_c, 12, 58, 84
18, 24771, Note_on_c, 12, 61, 0
18, 24771, Note_on_c, 12, 58, 0
18, 24780, Note_on_c, 12, 61, 84
18, 24780, Note_on_c, 12, 58, 84
18, 24831, Note_on_c, 12, 61, 0
18, 24831, Note_on_c, 12, 58, 0
18, 24840, Note_on_c, 12, 61, 84
18, 24840, Note_on_c, 12, 58, 84
18, 24891, Note_on_c, 12, 61, 0
18, 24891, Note_on_c, 12, 58, 0
18, 24900, Note_on_c, 12, 61, 84
18, 24900, Note_on_c, 12, 58, 84
18, 24951, Note_on_c, 12, 61, 0
18, 24951, Note_on_c, 12, 58, 0
18, 24960, Note_on_c, 12, 58, 84
18, 24960, Note_on_c, 12, 61, 84
18, 25664, Note_on_c, 12, 58, 0
18, 25664, Note_on_c, 12, 61, 0
18, 25680, Note_on_c, 12, 70, 84
18, 25851, Note_on_c, 12, 70, 0
18, 25860, Note_on_c, 12, 67, 84
18, 25911, Note_on_c, 12, 67, 0
18, 25920, Note_on_c, 12, 64, 84
18, 26144, Note_on_c, 12, 64, 0
18, 26160, Note_on_c, 12, 61, 84
18, 26331, Note_on_c, 12, 61, 0
18, 26340, Note_on_c, 12, 58, 84
18, 26391, Note_on_c, 12, 58, 0
18, 26400, Note_on_c, 12, 55, 84
18, 26624, Note_on_c, 12, 55, 0
18, 26640, Note_on_c, 12, 52, 84
18, 26864, Note_on_c, 12, 52, 0
18, 26880, Note_on_c, 12, 57, 84
18, 26880, Note_on_c, 12, 60, 84
18, 26931, Note_on_c, 12, 57, 0
18, 26931, Note_on_c, 12, 60, 0
18, 26940, Note_on_c, 12, 72, 84
18, 26940, Note_on_c, 12, 69, 84
18, 26991, Note_on_c, 12, 72, 0
18, 26991, Note_on_c, 12, 69, 0
18, 27000, Note_on_c, 12, 72, 84
18, 27000, Note_on_c, 12, 69, 84
18, 27051, Note_on_c, 12, 72, 0
18, 27051, Note_on_c, 12, 69, 0
18, 27060, Note_on_c, 12, 72, 84
18, 27060, Note_on_c, 12, 69, 84
18, 27111, Note_on_c, 12, 72, 0
18, 27111, Note_on_c, 12, 69, 0
18, 27120, Note_on_c, 12, 69, 84
18, 27120, Note_on_c, 12, 72, 84
18, 27171, Note_on_c, 12, 69, 0
18, 27171, Note_on_c, 12, 72, 0
18, 27180, Note_on_c, 12, 69, 84
18, 27180, Note_on_c, 12, 72, 84
18, 27231, Note_on_c, 12, 69, 0
18, 27231, Note_on_c, 12, 72, 0
18, 27240, Note_on_c, 12, 69, 84
18, 27240, Note_on_c, 12, 72, 84
18, 27291, Note_on_c, 12, 69, 0
18, 27291, Note_on_c, 12, 72, 0
18, 27300, Note_on_c, 12, 69, 84
18, 27300, Note_on_c, 12, 72, 84
18, 27351, Note_on_c, 12, 69, 0
18, 27351, Note_on_c, 12, 72, 0
18, 27360, Note_on_c, 12, 72, 84
18, 27360, Note_on_c, 12, 69, 84
18, 27411, Note_on_c, 12, 72, 0
18, 27411, Note_on_c, 12, 69, 0
18, 27420, Note_on_c, 12, 72, 84
18, 27420, Note_on_c, 12, 69, 84
18, 27471, Note_on_c, 12, 72, 0
18, 27471, Note_on_c, 12, 69, 0
18, 27480, Note_on_c, 12, 69, 84
18, 27480, Note_on_c, 12, 72, 84
18, 27531, Note_on_c, 12, 69, 0
18, 27531, Note_on_c, 12, 72, 0
18, 27540, Note_on_c, 12, 69, 84
18, 27540, Note_on_c, 12, 72, 84
18, 27591, Note_on_c, 12, 69, 0
18, 27591, Note_on_c, 12, 72, 0
18, 27600, Note_on_c, 12, 72, 84
18, 27600, Note_on_c, 12, 69, 84
18, 27651, Note_on_c, 12, 72, 0
18, 27651, Note_on_c, 12, 69, 0
18, 27660, Note_on_c, 12, 72, 84
18, 27660, Note_on_c, 12, 69, 84
18, 27711, Note_on_c, 12, 72, 0
18, 27711, Note_on_c, 12, 69, 0
18, 27720, Note_on_c, 12, 72, 84
18, 27720, Note_on_c, 12, 69, 84
18, 27771, Note_on_c, 12, 72, 0
18, 27771, Note_on_c, 12, 69, 0
18, 27780, Note_on_c, 12, 72, 84
18, 27780, Note_on_c, 12, 69, 84
18, 27831, Note_on_c, 12, 72, 0
18, 27831, Note_on_c, 12, 69, 0
18, 27840, Note_on_c, 12, 69, 84
18, 27840, Note_on_c, 12, 72, 84
18, 27891, Note_on_c, 12, 69, 0
18, 27891, Note_on_c, 12, 72, 0
18, 27900, Note_on_c, 12, 69, 84
18, 27900, Note_on_c, 12, 72, 84
18, 27951, Note_on_c, 12, 69, 0
18, 27951, Note_on_c, 12, 72, 0
18, 27960, Note_on_c, 12, 72, 84
18, 27960, Note_on_c, 12, 69, 84
18, 28011, Note_on_c, 12, 72, 0
18, 28011, Note_on_c, 12, 69, 0
18, 28020, Note_on_c, 12, 72, 84
18, 28020, Note_on_c, 12, 69, 84
18, 28071, Note_on_c, 12, 72, 0
18, 28071, Note_on_c, 12, 69, 0
18, 28080, Note_on_c, 12, 69, 84
18, 28080, Note_on_c, 12, 72, 84
18, 28131, Note_on_c, 12, 69, 0
18, 28131, Note_on_c, 12, 72, 0
18, 28140, Note_on_c, 12, 72, 84
18, 28140, Note_on_c, 12, 69, 84
18, 28191, Note_on_c, 12, 72, 0
18, 28191, Note_on_c, 12, 69, 0
18, 28200, Note_on_c, 12, 72, 84
18, 28200, Note_on_c, 12, 69, 84
18, 28251, Note_on_c, 12, 72, 0
18, 28251, Note_on_c, 12, 69, 0
18, 28260, Note_on_c, 12, 72, 84
18, 28260, Note_on_c, 12, 69, 84
18, 28311, Note_on_c, 12, 72, 0
18, 28311, Note_on_c, 12, 69, 0
18, 28320, Note_on_c, 12, 69, 84
18, 28320, Note_on_c, 12, 72, 84
18, 28371, Note_on_c, 12, 69, 0
18, 28371, Note_on_c, 12, 72, 0
18, 28380, Note_on_c, 12, 72, 84
18, 28380, Note_on_c, 12, 69, 84
18, 28431, Note_on_c, 12, 72, 0
18, 28431, Note_on_c, 12, 69, 0
18, 28440, Note_on_c, 12, 69, 84
18, 28440, Note_on_c, 12, 72, 84
18, 28491, Note_on_c, 12, 69, 0
18, 28491, Note_on_c, 12, 72, 0
18, 28500, Note_on_c, 12, 69, 84
18, 28500, Note_on_c, 12, 72, 84
18, 28551, Note_on_c, 12, 69, 0
18, 28551, Note_on_c, 12, 72, 0
18, 28560, Note_on_c, 12, 69, 84
18, 28560, Note_on_c, 12, 72, 84
18, 28611, Note_on_c, 12, 69, 0
18, 28611, Note_on_c, 12, 72, 0
18, 28620, Note_on_c, 12, 69, 84
18, 28620, Note_on_c, 12, 72, 84
18, 28671, Note_on_c, 12, 69, 0
18, 28671, Note_on_c, 12, 72, 0
18, 28680, Note_on_c, 12, 69, 84
18, 28680, Note_on_c, 12, 72, 84
18, 28731, Note_on_c, 12, 69, 0
18, 28731, Note_on_c, 12, 72, 0
18, 28740, Note_on_c, 12, 69, 84
18, 28740, Note_on_c, 12, 72, 84
18, 28791, Note_on_c, 12, 69, 0
18, 28791, Note_on_c, 12, 72, 0
18, 28800, Note_on_c, 12, 72, 84
18, 28800, Note_on_c, 12, 69, 84
18, 29504, Note_on_c, 12, 72, 0
18, 29504, Note_on_c, 12, 69, 0
18, 29520, Note_on_c, 12, 75, 84
18, 29691, Note_on_c, 12, 75, 0
18, 29700, Note_on_c, 12, 72, 84
18, 29751, Note_on_c, 12, 72, 0
18, 29760, Note_on_c, 12, 66, 84
18, 29984, Note_on_c, 12, 66, 0
18, 30000, Note_on_c, 12, 63, 84
18, 30171, Note_on_c, 12, 63, 0
18, 30180, Note_on_c, 12, 60, 84
18, 30231, Note_on_c, 12, 60, 0
18, 30240, Note_on_c, 12, 54, 84
18, 30464, Note_on_c, 12, 54, 0
18, 30480, Note_on_c, 12, 51, 84
18, 30651, Note_on_c, 12, 51, 0
18, 30660, Note_on_c, 12, 48, 84
18, 30711, Note_on_c, 12, 48, 0
18, 30720, Note_on_c, 12, 49, 92
18, 30771, Note_on_c, 12, 49, 0
18, 30780, Note_on_c, 12, 58, 84
18, 30780, Note_on_c, 12, 61, 84
18, 30831, Note_on_c, 12, 58, 0
18, 30831, Note_on_c, 12, 61, 0
18, 30840, Note_on_c, 12, 58, 84
18, 30840, Note_on_c, 12, 61, 84
18, 30891, Note_on_c, 12, 58, 0
18, 30891, Note_on_c, 12, 61, 0
18, 30900, Note_on_c, 12, 58, 84
18, 30900, Note_on_c, 12, 61, 84
18, 30951, Note_on_c, 12, 58, 0
18, 30951, Note_on_c, 12, 61, 0
18, 30960, Note_on_c, 12, 61, 84
18, 30960, Note_on_c, 12, 58, 84
18, 31011, Note_on_c, 12, 61, 0
18, 31011, Note_on_c, 12, 58, 0
18, 31020, Note_on_c, 12, 58, 84
18, 31020, Note_on_c, 12, 61, 84
18, 31071, Note_on_c, 12, 58, 0
18, 31071, Note_on_c, 12, 61, 0
18, 31080, Note_on_c, 12, 58, 84
18, 31080, Note_on_c, 12, 61, 84
18, 31131, Note_on_c, 12, 58, 0
18, 31131, Note_on_c, 12, 61, 0
18, 31140, Note_on_c, 12, 61, 84
18, 31140, Note_on_c, 12, 58, 84
18, 31191, Note_on_c, 12, 61, 0
18, 31191, Note_on_c, 12, 58, 0
18, 31200, Note_on_c, 12, 61, 84
18, 31200, Note_on_c, 12, 58, 84
18, 31251, Note_on_c, 12, 61, 0
18, 31251, Note_on_c, 12, 58, 0
18, 31260, Note_on_c, 12, 61, 84
18, 31260, Note_on_c, 12, 58, 84
18, 31311, Note_on_c, 12, 61, 0
18, 31311, Note_on_c, 12, 58, 0
18, 31320, Note_on_c, 12, 61, 84
18, 31320, Note_on_c, 12, 58, 84
18, 31371, Note_on_c, 12, 61, 0
18, 31371, Note_on_c, 12, 58, 0
18, 31380, Note_on_c, 12, 61, 84
18, 31380, Note_on_c, 12, 58, 84
18, 31431, Note_on_c, 12, 61, 0
18, 31431, Note_on_c, 12, 58, 0
18, 31440, Note_on_c, 12, 61, 84
18, 31440, Note_on_c, 12, 58, 84
18, 31491, Note_on_c, 12, 61, 0
18, 31491, Note_on_c, 12, 58, 0
18, 31500, Note_on_c, 12, 58, 84
18, 31500, Note_on_c, 12, 61, 84
18, 31551, Note_on_c, 12, 58, 0
18, 31551, Note_on_c, 12, 61, 0
18, 31560, Note_on_c, 12, 61, 84
18, 31560, Note_on_c, 12, 58, 84
18, 31611, Note_on_c, 12, 61, 0
18, 31611, Note_on_c, 12, 58, 0
18, 31620, Note_on_c, 12, 61, 84
18, 31620, Note_on_c, 12, 58, 84
18, 31671, Note_on_c, 12, 61, 0
18, 31671, Note_on_c, 12, 58, 0
18, 31680, Note_on_c, 12, 62, 92
18, 31680, Note_on_c, 12, 59, 92
18, 31731, Note_on_c, 12, 62, 0
18, 31731, Note_on_c, 12, 59, 0
18, 31740, Note_on_c, 12, 62, 84
18, 31740, Note_on_c, 12, 65, 84
18, 31791, Note_on_c, 12, 62, 0
18, 31791, Note_on_c, 12, 65, 0
18, 31800, Note_on_c, 12, 62, 84
18, 31800, Note_on_c, 12, 65, 84
18, 31851, Note_on_c, 12, 62, 0
18, 31851, Note_on_c, 12, 65, 0
18, 31860, Note_on_c, 12, 62, 84
18, 31860, Note_on_c, 12, 65, 84
18, 31911, Note_on_c, 12, 62, 0
18, 31911, Note_on_c, 12, 65, 0
18, 31920, Note_on_c, 12, 62, 84
18, 31920, Note_on_c, 12, 65, 84
18, 31971, Note_on_c, 12, 62, 0
18, 31971, Note_on_c, 12, 65, 0
18, 31980, Note_on_c, 12, 62, 84
18, 31980, Note_on_c, 12, 65, 84
18, 32031, Note_on_c, 12, 62, 0
18, 32031, Note_on_c, 12, 65, 0
18, 32040, Note_on_c, 12, 65, 84
18, 32040, Note_on_c, 12, 62, 84
18, 32091, Note_on_c, 12, 65, 0
18, 32091, Note_on_c, 12, 62, 0
18, 32100, Note_on_c, 12, 62, 84
18, 32100, Note_on_c, 12, 65, 84
18, 32151, Note_on_c, 12, 62, 0
18, 32151, Note_on_c, 12, 65, 0
18, 32160, Note_on_c, 12, 65, 84
18, 32160, Note_on_c, 12, 62, 84
18, 32211, Note_on_c, 12, 65, 0
18, 32211, Note_on_c, 12, 62, 0
18, 32220, Note_on_c, 12, 65, 84
18, 32220, Note_on_c, 12, 62, 84
18, 32271, Note_on_c, 12, 65, 0
18, 32271, Note_on_c, 12, 62, 0
18, 32280, Note_on_c, 12, 65, 84
18, 32280, Note_on_c, 12, 62, 84
18, 32331, Note_on_c, 12, 65, 0
18, 32331, Note_on_c, 12, 62, 0
18, 32340, Note_on_c, 12, 65, 84
18, 32340, Note_on_c, 12, 62, 84
18, 32391, Note_on_c, 12, 65, 0
18, 32391, Note_on_c, 12, 62, 0
18, 32400, Note_on_c, 12, 65, 84
18, 32400, Note_on_c, 12, 62, 84
18, 32451, Note_on_c, 12, 65, 0
18, 32451, Note_on_c, 12, 62, 0
18, 32460, Note_on_c, 12, 62, 84
18, 32460, Note_on_c, 12, 65, 84
18, 32511, Note_on_c, 12, 62, 0
18, 32511, Note_on_c, 12, 65, 0
18, 32520, Note_on_c, 12, 65, 84
18, 32520, Note_on_c, 12, 62, 84
18, 32571, Note_on_c, 12, 65, 0
18, 32571, Note_on_c, 12, 62, 0
18, 32580, Note_on_c, 12, 62, 84
18, 32580, Note_on_c, 12, 65, 84
18, 32631, Note_on_c, 12, 62, 0
18, 32631, Note_on_c, 12, 65, 0
18, 32640, Note_on_c, 12, 64, 84
18, 32879, Note_on_c, 12, 64, 0
18, 33120, Note_on_c, 12, 72, 92
18, 33179, Note_on_c, 12, 72, 0
18, 33180, Note_on_c, 12, 72, 84
18, 33464, Note_on_c, 12, 72, 0
18, 33480, Note_on_c, 12, 67, 84
18, 33584, Note_on_c, 12, 67, 0
18, 33600, Note_on_c, 12, 68, 84
18, 33704, Note_on_c, 12, 68, 0
18, 33720, Note_on_c, 12, 64, 84
18, 33824, Note_on_c, 12, 64, 0
18, 33840, Note_on_c, 12, 65, 84
18, 33944, Note_on_c, 12, 65, 0
18, 33960, Note_on_c, 12, 60, 84
18, 34064, Note_on_c, 12, 60, 0
18, 34080, Note_on_c, 12, 61, 84
18, 34184, Note_on_c, 12, 61, 0
18, 34200, Note_on_c, 12, 60, 84
18, 34304, Note_on_c, 12, 60, 0
18, 34320, Note_on_c, 12, 60, 84
18, 34424, Note_on_c, 12, 60, 0
18, 34440, Note_on_c, 12, 58, 84
18, 34544, Note_on_c, 12, 58, 0
18, 34560, Note_on_c, 12, 56, 84
18, 34799, Note_on_c, 12, 56, 0
18, 35040, Note_on_c, 12, 68, 92
18, 35099, Note_on_c, 12, 68, 0
18, 35100, Note_on_c, 12, 68, 84
18, 35384, Note_on_c, 12, 68, 0
18, 35400, Note_on_c, 12, 64, 84
18, 35504, Note_on_c, 12, 64, 0
18, 35520, Note_on_c, 12, 65, 84
18, 35624, Note_on_c, 12, 65, 0
18, 35640, Note_on_c, 12, 60, 84
18, 35744, Note_on_c, 12, 60, 0
18, 35760, Note_on_c, 12, 61, 84
18, 35864, Note_on_c, 12, 61, 0
18, 35880, Note_on_c, 12, 56, 84
18, 35984, Note_on_c, 12, 56, 0
18, 36000, Note_on_c, 12, 58, 84
18, 36104, Note_on_c, 12, 58, 0
18, 36120, Note_on_c, 12, 56, 84
18, 36224, Note_on_c, 12, 56, 0
18, 36240, Note_on_c, 12, 56, 84
18, 36344, Note_on_c, 12, 56, 0
18, 36360, Note_on_c, 12, 55, 84
18, 36464, Note_on_c, 12, 55, 0
18, 36480, Note_on_c, 12, 53, 84
18, 36719, Note_on_c, 12, 53, 0
18, 36960, Note_on_c, 12, 65, 92
18, 37019, Note_on_c, 12, 65, 0
18, 37020, Note_on_c, 12, 65, 84
18, 37304, Note_on_c, 12, 65, 0
18, 37320, Note_on_c, 12, 60, 84
18, 37424, Note_on_c, 12, 60, 0
18, 37440, Note_on_c, 12, 61, 84
18, 37544, Note_on_c, 12, 61, 0
18, 37560, Note_on_c, 12, 56, 84
18, 37664, Note_on_c, 12, 56, 0
18, 37680, Note_on_c, 12, 58, 84
18, 37784, Note_on_c, 12, 58, 0
18, 37800, Note_on_c, 12, 53, 84
18, 37904, Note_on_c, 12, 53, 0
18, 37920, Note_on_c, 12, 54, 84
18, 38024, Note_on_c, 12, 54, 0
18, 38040, Note_on_c, 12, 53, 84
18, 38144, Note_on_c, 12, 53, 0
18, 38160, Note_on_c, 12, 53, 84
18, 38264, Note_on_c, 12, 53, 0
18, 38280, Note_on_c, 12, 51, 84
18, 38384, Note_on_c, 12, 51, 0
18, 38400, Note_on_c, 12, 49, 44
18, 38451, Note_on_c, 12, 49, 0
18, 38460, Note_on_c, 12, 53, 44
18, 38511, Note_on_c, 12, 53, 0
18, 38520, Note_on_c, 12, 53, 44
18, 38571, Note_on_c, 12, 53, 0
18, 38580, Note_on_c, 12, 53, 44
18, 38631, Note_on_c, 12, 53, 0
18, 38640, Note_on_c, 12, 53, 44
18, 38691, Note_on_c, 12, 53, 0
18, 38700, Note_on_c, 12, 53, 44
18, 38751, Note_on_c, 12, 53, 0
18, 38760, Note_on_c, 12, 53, 44
18, 38811, Note_on_c, 12, 53, 0
18, 38820, Note_on_c, 12, 53, 44
18, 38871, Note_on_c, 12, 53, 0
18, 38880, Note_on_c, 12, 53, 44
18, 38931, Note_on_c, 12, 53, 0
18, 38940, Note_on_c, 12, 53, 44
18, 38991, Note_on_c, 12, 53, 0
18, 39000, Note_on_c, 12, 53, 44
18, 39051, Note_on_c, 12, 53, 0
18, 39060, Note_on_c, 12, 53, 44
18, 39111, Note_on_c, 12, 53, 0
18, 39120, Note_on_c, 12, 53, 44
18, 39171, Note_on_c, 12, 53, 0
18, 39180, Note_on_c, 12, 53, 44
18, 39231, Note_on_c, 12, 53, 0
18, 39240, Note_on_c, 12, 53, 44
18, 39291, Note_on_c, 12, 53, 0
18, 39300, Note_on_c, 12, 53, 44
18, 39351, Note_on_c, 12, 53, 0
18, 39360, Note_on_c, 12, 53, 44
18, 39411, Note_on_c, 12, 53, 0
18, 39420, Note_on_c, 12, 53, 44
18, 39471, Note_on_c, 12, 53, 0
18, 39480, Note_on_c, 12, 53, 44
18, 39531, Note_on_c, 12, 53, 0
18, 39540, Note_on_c, 12, 53, 44
18, 39591, Note_on_c, 12, 53, 0
18, 39600, Note_on_c, 12, 53, 44
18, 39651, Note_on_c, 12, 53, 0
18, 39660, Note_on_c, 12, 53, 44
18, 39711, Note_on_c, 12, 53, 0
18, 39720, Note_on_c, 12, 53, 44
18, 39771, Note_on_c, 12, 53, 0
18, 39780, Note_on_c, 12, 53, 44
18, 39831, Note_on_c, 12, 53, 0
18, 39840, Note_on_c, 12, 53, 44
18, 39891, Note_on_c, 12, 53, 0
18, 39900, Note_on_c, 12, 53, 44
18, 39951, Note_on_c, 12, 53, 0
18, 39960, Note_on_c, 12, 53, 44
18, 40011, Note_on_c, 12, 53, 0
18, 40020, Note_on_c, 12, 53, 44
18, 40071, Note_on_c, 12, 53, 0
18, 40080, Note_on_c, 12, 53, 44
18, 40131, Note_on_c, 12, 53, 0
18, 40140, Note_on_c, 12, 53, 44
18, 40191, Note_on_c, 12, 53, 0
18, 40200, Note_on_c, 12, 53, 44
18, 40251, Note_on_c, 12, 53, 0
18, 40260, Note_on_c, 12, 53, 44
18, 40311, Note_on_c, 12, 53, 0
18, 40320, Note_on_c, 12, 56, 76
18, 40320, Note_on_c, 12, 53, 76
18, 40371, Note_on_c, 12, 56, 0
18, 40371, Note_on_c, 12, 53, 0
18, 40380, Note_on_c, 12, 56, 52
18, 40380, Note_on_c, 12, 53, 52
18, 40431, Note_on_c, 12, 56, 0
18, 40431, Note_on_c, 12, 53, 0
18, 40440, Note_on_c, 12, 56, 52
18, 40440, Note_on_c, 12, 53, 52
18, 40491, Note_on_c, 12, 56, 0
18, 40491, Note_on_c, 12, 53, 0
18, 40500, Note_on_c, 12, 56, 52
18, 40500, Note_on_c, 12, 53, 52
18, 40551, Note_on_c, 12, 56, 0
18, 40551, Note_on_c, 12, 53, 0
18, 40560, Note_on_c, 12, 56, 52
18, 40560, Note_on_c, 12, 53, 52
18, 40611, Note_on_c, 12, 56, 0
18, 40611, Note_on_c, 12, 53, 0
18, 40620, Note_on_c, 12, 56, 52
18, 40620, Note_on_c, 12, 53, 52
18, 40671, Note_on_c, 12, 56, 0
18, 40671, Note_on_c, 12, 53, 0
18, 40680, Note_on_c, 12, 56, 52
18, 40680, Note_on_c, 12, 53, 52
18, 40731, Note_on_c, 12, 56, 0
18, 40731, Note_on_c, 12, 53, 0
18, 40740, Note_on_c, 12, 53, 52
18, 40740, Note_on_c, 12, 56, 52
18, 40791, Note_on_c, 12, 53, 0
18, 40791, Note_on_c, 12, 56, 0
18, 40800, Note_on_c, 12, 53, 52
18, 40800, Note_on_c, 12, 56, 52
18, 40851, Note_on_c, 12, 53, 0
18, 40851, Note_on_c, 12, 56, 0
18, 40860, Note_on_c, 12, 53, 52
18, 40860, Note_on_c, 12, 56, 52
18, 40911, Note_on_c, 12, 53, 0
18, 40911, Note_on_c, 12, 56, 0
18, 40920, Note_on_c, 12, 53, 52
18, 40920, Note_on_c, 12, 56, 52
18, 40971, Note_on_c, 12, 53, 0
18, 40971, Note_on_c, 12, 56, 0
18, 40980, Note_on_c, 12, 53, 52
18, 40980, Note_on_c, 12, 56, 52
18, 41031, Note_on_c, 12, 53, 0
18, 41031, Note_on_c, 12, 56, 0
18, 41040, Note_on_c, 12, 53, 52
18, 41040, Note_on_c, 12, 56, 52
18, 41091, Note_on_c, 12, 53, 0
18, 41091, Note_on_c, 12, 56, 0
18, 41100, Note_on_c, 12, 56, 52
18, 41100, Note_on_c, 12, 53, 52
18, 41151, Note_on_c, 12, 56, 0
18, 41151, Note_on_c, 12, 53, 0
18, 41160, Note_on_c, 12, 53, 52
18, 41160, Note_on_c, 12, 56, 52
18, 41211, Note_on_c, 12, 53, 0
18, 41211, Note_on_c, 12, 56, 0
18, 41220, Note_on_c, 12, 56, 52
18, 41220, Note_on_c, 12, 53, 52
18, 41271, Note_on_c, 12, 56, 0
18, 41271, Note_on_c, 12, 53, 0
18, 41280, Note_on_c, 12, 56, 52
18, 41280, Note_on_c, 12, 53, 52
18, 41331, Note_on_c, 12, 56, 0
18, 41331, Note_on_c, 12, 53, 0
18, 41340, Note_on_c, 12, 53, 52
18, 41340, Note_on_c, 12, 56, 52
18, 41391, Note_on_c, 12, 53, 0
18, 41391, Note_on_c, 12, 56, 0
18, 41400, Note_on_c, 12, 56, 52
18, 41400, Note_on_c, 12, 53, 52
18, 41451, Note_on_c, 12, 56, 0
18, 41451, Note_on_c, 12, 53, 0
18, 41460, Note_on_c, 12, 56, 52
18, 41460, Note_on_c, 12, 53, 52
18, 41511, Note_on_c, 12, 56, 0
18, 41511, Note_on_c, 12, 53, 0
18, 41520, Note_on_c, 12, 53, 52
18, 41520, Note_on_c, 12, 56, 52
18, 41571, Note_on_c, 12, 53, 0
18, 41571, Note_on_c, 12, 56, 0
18, 41580, Note_on_c, 12, 53, 52
18, 41580, Note_on_c, 12, 56, 52
18, 41631, Note_on_c, 12, 53, 0
18, 41631, Note_on_c, 12, 56, 0
18, 41640, Note_on_c, 12, 53, 52
18, 41640, Note_on_c, 12, 56, 52
18, 41691, Note_on_c, 12, 53, 0
18, 41691, Note_on_c, 12, 56, 0
18, 41700, Note_on_c, 12, 53, 52
18, 41700, Note_on_c, 12, 56, 52
18, 41751, Note_on_c, 12, 53, 0
18, 41751, Note_on_c, 12, 56, 0
18, 41760, Note_on_c, 12, 53, 52
18, 41760, Note_on_c, 12, 56, 52
18, 41811, Note_on_c, 12, 53, 0
18, 41811, Note_on_c, 12, 56, 0
18, 41820, Note_on_c, 12, 53, 52
18, 41820, Note_on_c, 12, 56, 52
18, 41871, Note_on_c, 12, 53, 0
18, 41871, Note_on_c, 12, 56, 0
18, 41880, Note_on_c, 12, 53, 52
18, 41880, Note_on_c, 12, 56, 52
18, 41931, Note_on_c, 12, 53, 0
18, 41931, Note_on_c, 12, 56, 0
18, 41940, Note_on_c, 12, 53, 52
18, 41940, Note_on_c, 12, 56, 52
18, 41991, Note_on_c, 12, 53, 0
18, 41991, Note_on_c, 12, 56, 0
18, 42000, Note_on_c, 12, 53, 52
18, 42000, Note_on_c, 12, 56, 52
18, 42051, Note_on_c, 12, 53, 0
18, 42051, Note_on_c, 12, 56, 0
18, 42060, Note_on_c, 12, 56, 52
18, 42060, Note_on_c, 12, 53, 52
18, 42111, Note_on_c, 12, 56, 0
18, 42111, Note_on_c, 12, 53, 0
18, 42120, Note_on_c, 12, 53, 52
18, 42120, Note_on_c, 12, 56, 52
18, 42171, Note_on_c, 12, 53, 0
18, 42171, Note_on_c, 12, 56, 0
18, 42180, Note_on_c, 12, 53, 52
18, 42180, Note_on_c, 12, 56, 52
18, 42231, Note_on_c, 12, 53, 0
18, 42231, Note_on_c, 12, 56, 0
18, 42240, Note_on_c, 12, 53, 44
18, 42291, Note_on_c, 12, 53, 0
18, 42300, Note_on_c, 12, 53, 44
18, 42351, Note_on_c, 12, 53, 0
18, 42360, Note_on_c, 12, 53, 44
18, 42411, Note_on_c, 12, 53, 0
18, 42420, Note_on_c, 12, 53, 44
18, 42471, Note_on_c, 12, 53, 0
18, 42480, Note_on_c, 12, 53, 44
18, 42531, Note_on_c, 12, 53, 0
18, 42540, Note_on_c, 12, 53, 44
18, 42591, Note_on_c, 12, 53, 0
18, 42600, Note_on_c, 12, 53, 44
18, 42651, Note_on_c, 12, 53, 0
18, 42660, Note_on_c, 12, 53, 44
18, 42711, Note_on_c, 12, 53, 0
18, 42720, Note_on_c, 12, 53, 44
18, 42771, Note_on_c, 12, 53, 0
18, 42780, Note_on_c, 12, 53, 44
18, 42831, Note_on_c, 12, 53, 0
18, 42840, Note_on_c, 12, 53, 44
18, 42891, Note_on_c, 12, 53, 0
18, 42900, Note_on_c, 12, 53, 44
18, 42951, Note_on_c, 12, 53, 0
18, 42960, Note_on_c, 12, 53, 44
18, 43011, Note_on_c, 12, 53, 0
18, 43020, Note_on_c, 12, 53, 44
18, 43071, Note_on_c, 12, 53, 0
18, 43080, Note_on_c, 12, 53, 44
18, 43131, Note_on_c, 12, 53, 0
18, 43140, Note_on_c, 12, 53, 44
18, 43191, Note_on_c, 12, 53, 0
18, 43200, Note_on_c, 12, 53, 44
18, 43251, Note_on_c, 12, 53, 0
18, 43260, Note_on_c, 12, 53, 44
18, 43311, Note_on_c, 12, 53, 0
18, 43320, Note_on_c, 12, 53, 44
18, 43371, Note_on_c, 12, 53, 0
18, 43380, Note_on_c, 12, 53, 44
18, 43431, Note_on_c, 12, 53, 0
18, 43440, Note_on_c, 12, 53, 44
18, 43491, Note_on_c, 12, 53, 0
18, 43500, Note_on_c, 12, 53, 44
18, 43551, Note_on_c, 12, 53, 0
18, 43560, Note_on_c, 12, 53, 44
18, 43611, Note_on_c, 12, 53, 0
18, 43620, Note_on_c, 12, 53, 44
18, 43671, Note_on_c, 12, 53, 0
18, 43680, Note_on_c, 12, 53, 44
18, 43731, Note_on_c, 12, 53, 0
18, 43740, Note_on_c, 12, 53, 44
18, 43791, Note_on_c, 12, 53, 0
18, 43800, Note_on_c, 12, 53, 44
18, 43851, Note_on_c, 12, 53, 0
18, 43860, Note_on_c, 12, 53, 44
18, 43911, Note_on_c, 12, 53, 0
18, 43920, Note_on_c, 12, 53, 44
18, 43971, Note_on_c, 12, 53, 0
18, 43980, Note_on_c, 12, 53, 44
18, 44031, Note_on_c, 12, 53, 0
18, 44040, Note_on_c, 12, 53, 44
18, 44091, Note_on_c, 12, 53, 0
18, 44100, Note_on_c, 12, 53, 44
18, 44151, Note_on_c, 12, 53, 0
18, 44160, Note_on_c, 12, 53, 76
18, 44160, Note_on_c, 12, 55, 76
18, 44211, Note_on_c, 12, 53, 0
18, 44211, Note_on_c, 12, 55, 0
18, 44220, Note_on_c, 12, 53, 52
18, 44220, Note_on_c, 12, 55, 52
18, 44271, Note_on_c, 12, 53, 0
18, 44271, Note_on_c, 12, 55, 0
18, 44280, Note_on_c, 12, 55, 52
18, 44280, Note_on_c, 12, 53, 52
18, 44331, Note_on_c, 12, 55, 0
18, 44331, Note_on_c, 12, 53, 0
18, 44340, Note_on_c, 12, 53, 52
18, 44340, Note_on_c, 12, 55, 52
18, 44391, Note_on_c, 12, 53, 0
18, 44391, Note_on_c, 12, 55, 0
18, 44400, Note_on_c, 12, 53, 52
18, 44400, Note_on_c, 12, 55, 52
18, 44451, Note_on_c, 12, 53, 0
18, 44451, Note_on_c, 12, 55, 0
18, 44460, Note_on_c, 12, 53, 52
18, 44460, Note_on_c, 12, 55, 52
18, 44511, Note_on_c, 12, 53, 0
18, 44511, Note_on_c, 12, 55, 0
18, 44520, Note_on_c, 12, 53, 52
18, 44520, Note_on_c, 12, 55, 52
18, 44571, Note_on_c, 12, 53, 0
18, 44571, Note_on_c, 12, 55, 0
18, 44580, Note_on_c, 12, 53, 52
18, 44580, Note_on_c, 12, 55, 52
18, 44631, Note_on_c, 12, 53, 0
18, 44631, Note_on_c, 12, 55, 0
18, 44640, Note_on_c, 12, 55, 52
18, 44640, Note_on_c, 12, 53, 52
18, 44691, Note_on_c, 12, 55, 0
18, 44691, Note_on_c, 12, 53, 0
18, 44700, Note_on_c, 12, 55, 52
18, 44700, Note_on_c, 12, 53, 52
18, 44751, Note_on_c, 12, 55, 0
18, 44751, Note_on_c, 12, 53, 0
18, 44760, Note_on_c, 12, 53, 52
18, 44760, Note_on_c, 12, 55, 52
18, 44811, Note_on_c, 12, 53, 0
18, 44811, Note_on_c, 12, 55, 0
18, 44820, Note_on_c, 12, 53, 52
18, 44820, Note_on_c, 12, 55, 52
18, 44871, Note_on_c, 12, 53, 0
18, 44871, Note_on_c, 12, 55, 0
18, 44880, Note_on_c, 12, 53, 52
18, 44880, Note_on_c, 12, 55, 52
18, 44931, Note_on_c, 12, 53, 0
18, 44931, Note_on_c, 12, 55, 0
18, 44940, Note_on_c, 12, 55, 52
18, 44940, Note_on_c, 12, 53, 52
18, 44991, Note_on_c, 12, 55, 0
18, 44991, Note_on_c, 12, 53, 0
18, 45000, Note_on_c, 12, 55, 52
18, 45000, Note_on_c, 12, 53, 52
18, 45051, Note_on_c, 12, 55, 0
18, 45051, Note_on_c, 12, 53, 0
18, 45060, Note_on_c, 12, 53, 52
18, 45060, Note_on_c, 12, 55, 52
18, 45111, Note_on_c, 12, 53, 0
18, 45111, Note_on_c, 12, 55, 0
18, 45120, Note_on_c, 12, 55, 52
18, 45120, Note_on_c, 12, 53, 52
18, 45171, Note_on_c, 12, 55, 0
18, 45171, Note_on_c, 12, 53, 0
18, 45180, Note_on_c, 12, 55, 52
18, 45180, Note_on_c, 12, 53, 52
18, 45231, Note_on_c, 12, 55, 0
18, 45231, Note_on_c, 12, 53, 0
18, 45240, Note_on_c, 12, 55, 52
18, 45240, Note_on_c, 12, 53, 52
18, 45291, Note_on_c, 12, 55, 0
18, 45291, Note_on_c, 12, 53, 0
18, 45300, Note_on_c, 12, 55, 52
18, 45300, Note_on_c, 12, 53, 52
18, 45351, Note_on_c, 12, 55, 0
18, 45351, Note_on_c, 12, 53, 0
18, 45360, Note_on_c, 12, 55, 52
18, 45360, Note_on_c, 12, 53, 52
18, 45411, Note_on_c, 12, 55, 0
18, 45411, Note_on_c, 12, 53, 0
18, 45420, Note_on_c, 12, 53, 52
18, 45420, Note_on_c, 12, 55, 52
18, 45471, Note_on_c, 12, 53, 0
18, 45471, Note_on_c, 12, 55, 0
18, 45480, Note_on_c, 12, 55, 52
18, 45480, Note_on_c, 12, 53, 52
18, 45531, Note_on_c, 12, 55, 0
18, 45531, Note_on_c, 12, 53, 0
18, 45540, Note_on_c, 12, 55, 52
18, 45540, Note_on_c, 12, 53, 52
18, 45591, Note_on_c, 12, 55, 0
18, 45591, Note_on_c, 12, 53, 0
18, 45600, Note_on_c, 12, 53, 52
18, 45600, Note_on_c, 12, 55, 52
18, 45651, Note_on_c, 12, 53, 0
18, 45651, Note_on_c, 12, 55, 0
18, 45660, Note_on_c, 12, 55, 52
18, 45660, Note_on_c, 12, 53, 52
18, 45711, Note_on_c, 12, 55, 0
18, 45711, Note_on_c, 12, 53, 0
18, 45720, Note_on_c, 12, 53, 52
18, 45720, Note_on_c, 12, 55, 52
18, 45771, Note_on_c, 12, 53, 0
18, 45771, Note_on_c, 12, 55, 0
18, 45780, Note_on_c, 12, 55, 52
18, 45780, Note_on_c, 12, 53, 52
18, 45831, Note_on_c, 12, 55, 0
18, 45831, Note_on_c, 12, 53, 0
18, 45840, Note_on_c, 12, 53, 52
18, 45840, Note_on_c, 12, 55, 52
18, 45891, Note_on_c, 12, 53, 0
18, 45891, Note_on_c, 12, 55, 0
18, 45900, Note_on_c, 12, 53, 52
18, 45900, Note_on_c, 12, 55, 52
18, 45951, Note_on_c, 12, 53, 0
18, 45951, Note_on_c, 12, 55, 0
18, 45960, Note_on_c, 12, 53, 52
18, 45960, Note_on_c, 12, 55, 52
18, 46011, Note_on_c, 12, 53, 0
18, 46011, Note_on_c, 12, 55, 0
18, 46020, Note_on_c, 12, 55, 52
18, 46020, Note_on_c, 12, 53, 52
18, 46071, Note_on_c, 12, 55, 0
18, 46071, Note_on_c, 12, 53, 0
18, 46080, Note_on_c, 12, 51, 52
18, 46080, Note_on_c, 12, 55, 52
18, 46131, Note_on_c, 12, 51, 0
18, 46131, Note_on_c, 12, 55, 0
18, 46140, Note_on_c, 12, 51, 52
18, 46140, Note_on_c, 12, 55, 52
18, 46191, Note_on_c, 12, 51, 0
18, 46191, Note_on_c, 12, 55, 0
18, 46200, Note_on_c, 12, 55, 53
18, 46200, Note_on_c, 12, 51, 53
18, 46251, Note_on_c, 12, 55, 0
18, 46251, Note_on_c, 12, 51, 0
18, 46260, Note_on_c, 12, 55, 54
18, 46260, Note_on_c, 12, 51, 54
18, 46311, Note_on_c, 12, 55, 0
18, 46311, Note_on_c, 12, 51, 0
18, 46320, Note_on_c, 12, 51, 55
18, 46320, Note_on_c, 12, 55, 55
18, 46371, Note_on_c, 12, 51, 0
18, 46371, Note_on_c, 12, 55, 0
18, 46380, Note_on_c, 12, 51, 55
18, 46380, Note_on_c, 12, 55, 55
18, 46431, Note_on_c, 12, 51, 0
18, 46431, Note_on_c, 12, 55, 0
18, 46440, Note_on_c, 12, 51, 56
18, 46440, Note_on_c, 12, 55, 56
18, 46491, Note_on_c, 12, 51, 0
18, 46491, Note_on_c, 12, 55, 0
18, 46500, Note_on_c, 12, 55, 57
18, 46500, Note_on_c, 12, 51, 57
18, 46551, Note_on_c, 12, 55, 0
18, 46551, Note_on_c, 12, 51, 0
18, 46560, Note_on_c, 12, 55, 58
18, 46560, Note_on_c, 12, 51, 58
18, 46611, Note_on_c, 12, 55, 0
18, 46611, Note_on_c, 12, 51, 0
18, 46620, Note_on_c, 12, 55, 58
18, 46620, Note_on_c, 12, 51, 58
18, 46671, Note_on_c, 12, 55, 0
18, 46671, Note_on_c, 12, 51, 0
18, 46680, Note_on_c, 12, 55, 59
18, 46680, Note_on_c, 12, 51, 59
18, 46731, Note_on_c, 12, 55, 0
18, 46731, Note_on_c, 12, 51, 0
18, 46740, Note_on_c, 12, 55, 60
18, 46740, Note_on_c, 12, 51, 60
18, 46791, Note_on_c, 12, 55, 0
18, 46791, Note_on_c, 12, 51, 0
18, 46800, Note_on_c, 12, 51, 61
18, 46800, Note_on_c, 12, 55, 61
18, 46851, Note_on_c, 12, 51, 0
18, 46851, Note_on_c, 12, 55, 0
18, 46860, Note_on_c, 12, 55, 61
18, 46860, Note_on_c, 12, 51, 61
18, 46911, Note_on_c, 12, 55, 0
18, 46911, Note_on_c, 12, 51, 0
18, 46920, Note_on_c, 12, 51, 62
18, 46920, Note_on_c, 12, 55, 62
18, 46971, Note_on_c, 12, 51, 0
18, 46971, Note_on_c, 12, 55, 0
18, 46980, Note_on_c, 12, 55, 63
18, 46980, Note_on_c, 12, 51, 63
18, 47031, Note_on_c, 12, 55, 0
18, 47031, Note_on_c, 12, 51, 0
18, 47040, Note_on_c, 12, 55, 64
18, 47040, Note_on_c, 12, 51, 64
18, 47091, Note_on_c, 12, 55, 0
18, 47091, Note_on_c, 12, 51, 0
18, 47100, Note_on_c, 12, 55, 64
18, 47100, Note_on_c, 12, 51, 64
18, 47151, Note_on_c, 12, 55, 0
18, 47151, Note_on_c, 12, 51, 0
18, 47160, Note_on_c, 12, 51, 65
18, 47160, Note_on_c, 12, 55, 65
18, 47211, Note_on_c, 12, 51, 0
18, 47211, Note_on_c, 12, 55, 0
18, 47220, Note_on_c, 12, 55, 66
18, 47220, Note_on_c, 12, 51, 66
18, 47271, Note_on_c, 12, 55, 0
18, 47271, Note_on_c, 12, 51, 0
18, 47280, Note_on_c, 12, 55, 67
18, 47280, Note_on_c, 12, 51, 67
18, 47331, Note_on_c, 12, 55, 0
18, 47331, Note_on_c, 12, 51, 0
18, 47340, Note_on_c, 12, 55, 67
18, 47340, Note_on_c, 12, 51, 67
18, 47391, Note_on_c, 12, 55, 0
18, 47391, Note_on_c, 12, 51, 0
18, 47400, Note_on_c, 12, 55, 68
18, 47400, Note_on_c, 12, 51, 68
18, 47451, Note_on_c, 12, 55, 0
18, 47451, Note_on_c, 12, 51, 0
18, 47460, Note_on_c, 12, 55, 69
18, 47460, Note_on_c, 12, 51, 69
18, 47511, Note_on_c, 12, 55, 0
18, 47511, Note_on_c, 12, 51, 0
18, 47520, Note_on_c, 12, 51, 70
18, 47520, Note_on_c, 12, 55, 70
18, 47571, Note_on_c, 12, 51, 0
18, 47571, Note_on_c, 12, 55, 0
18, 47580, Note_on_c, 12, 55, 70
18, 47580, Note_on_c, 12, 51, 70
18, 47631, Note_on_c, 12, 55, 0
18, 47631, Note_on_c, 12, 51, 0
18, 47640, Note_on_c, 12, 55, 71
18, 47640, Note_on_c, 12, 51, 71
18, 47691, Note_on_c, 12, 55, 0
18, 47691, Note_on_c, 12, 51, 0
18, 47700, Note_on_c, 12, 55, 72
18, 47700, Note_on_c, 12, 51, 72
18, 47751, Note_on_c, 12, 55, 0
18, 47751, Note_on_c, 12, 51, 0
18, 47760, Note_on_c, 12, 51, 73
18, 47760, Note_on_c, 12, 55, 73
18, 47811, Note_on_c, 12, 51, 0
18, 47811, Note_on_c, 12, 55, 0
18, 47820, Note_on_c, 12, 55, 73
18, 47820, Note_on_c, 12, 51, 73
18, 47871, Note_on_c, 12, 55, 0
18, 47871, Note_on_c, 12, 51, 0
18, 47880, Note_on_c, 12, 55, 74
18, 47880, Note_on_c, 12, 51, 74
18, 47931, Note_on_c, 12, 55, 0
18, 47931, Note_on_c, 12, 51, 0
18, 47940, Note_on_c, 12, 55, 75
18, 47940, Note_on_c, 12, 51, 75
18, 47991, Note_on_c, 12, 55, 0
18, 47991, Note_on_c, 12, 51, 0
18, 48000, Note_on_c, 12, 63, 76
18, 48000, Note_on_c, 12, 54, 76
18, 48051, Note_on_c, 12, 63, 0
18, 48051, Note_on_c, 12, 54, 0
18, 48060, Note_on_c, 12, 54, 76
18, 48060, Note_on_c, 12, 63, 76
18, 48111, Note_on_c, 12, 54, 0
18, 48111, Note_on_c, 12, 63, 0
18, 48120, Note_on_c, 12, 54, 76
18, 48120, Note_on_c, 12, 63, 76
18, 48171, Note_on_c, 12, 54, 0
18, 48171, Note_on_c, 12, 63, 0
18, 48180, Note_on_c, 12, 54, 76
18, 48180, Note_on_c, 12, 63, 76
18, 48231, Note_on_c, 12, 54, 0
18, 48231, Note_on_c, 12, 63, 0
18, 48240, Note_on_c, 12, 63, 76
18, 48240, Note_on_c, 12, 54, 76
18, 48291, Note_on_c, 12, 63, 0
18, 48291, Note_on_c, 12, 54, 0
18, 48300, Note_on_c, 12, 54, 76
18, 48300, Note_on_c, 12, 63, 76
18, 48351, Note_on_c, 12, 54, 0
18, 48351, Note_on_c, 12, 63, 0
18, 48360, Note_on_c, 12, 63, 76
18, 48360, Note_on_c, 12, 54, 76
18, 48411, Note_on_c, 12, 63, 0
18, 48411, Note_on_c, 12, 54, 0
18, 48420, Note_on_c, 12, 63, 76
18, 48420, Note_on_c, 12, 54, 76
18, 48471, Note_on_c, 12, 63, 0
18, 48471, Note_on_c, 12, 54, 0
18, 48480, Note_on_c, 12, 63, 76
18, 48480, Note_on_c, 12, 54, 76
18, 48531, Note_on_c, 12, 63, 0
18, 48531, Note_on_c, 12, 54, 0
18, 48540, Note_on_c, 12, 54, 76
18, 48540, Note_on_c, 12, 63, 76
18, 48591, Note_on_c, 12, 54, 0
18, 48591, Note_on_c, 12, 63, 0
18, 48600, Note_on_c, 12, 54, 76
18, 48600, Note_on_c, 12, 63, 76
18, 48651, Note_on_c, 12, 54, 0
18, 48651, Note_on_c, 12, 63, 0
18, 48660, Note_on_c, 12, 63, 76
18, 48660, Note_on_c, 12, 54, 76
18, 48711, Note_on_c, 12, 63, 0
18, 48711, Note_on_c, 12, 54, 0
18, 48720, Note_on_c, 12, 63, 76
18, 48720, Note_on_c, 12, 54, 76
18, 48771, Note_on_c, 12, 63, 0
18, 48771, Note_on_c, 12, 54, 0
18, 48780, Note_on_c, 12, 63, 76
18, 48780, Note_on_c, 12, 54, 76
18, 48831, Note_on_c, 12, 63, 0
18, 48831, Note_on_c, 12, 54, 0
18, 48840, Note_on_c, 12, 63, 76
18, 48840, Note_on_c, 12, 54, 76
18, 48891, Note_on_c, 12, 63, 0
18, 48891, Note_on_c, 12, 54, 0
18, 48900, Note_on_c, 12, 63, 76
18, 48900, Note_on_c, 12, 54, 76
18, 48951, Note_on_c, 12, 63, 0
18, 48951, Note_on_c, 12, 54, 0
18, 48960, Note_on_c, 12, 63, 84
18, 48960, Note_on_c, 12, 53, 84
18, 49011, Note_on_c, 12, 63, 0
18, 49011, Note_on_c, 12, 53, 0
18, 49020, Note_on_c, 12, 53, 76
18, 49020, Note_on_c, 12, 63, 76
18, 49071, Note_on_c, 12, 53, 0
18, 49071, Note_on_c, 12, 63, 0
18, 49080, Note_on_c, 12, 63, 76
18, 49080, Note_on_c, 12, 53, 76
18, 49131, Note_on_c, 12, 63, 0
18, 49131, Note_on_c, 12, 53, 0
18, 49140, Note_on_c, 12, 63, 76
18, 49140, Note_on_c, 12, 53, 76
18, 49191, Note_on_c, 12, 63, 0
18, 49191, Note_on_c, 12, 53, 0
18, 49200, Note_on_c, 12, 53, 76
18, 49200, Note_on_c, 12, 63, 76
18, 49251, Note_on_c, 12, 53, 0
18, 49251, Note_on_c, 12, 63, 0
18, 49260, Note_on_c, 12, 63, 76
18, 49260, Note_on_c, 12, 53, 76
18, 49311, Note_on_c, 12, 63, 0
18, 49311, Note_on_c, 12, 53, 0
18, 49320, Note_on_c, 12, 63, 76
18, 49320, Note_on_c, 12, 53, 76
18, 49371, Note_on_c, 12, 63, 0
18, 49371, Note_on_c, 12, 53, 0
18, 49380, Note_on_c, 12, 53, 76
18, 49380, Note_on_c, 12, 63, 76
18, 49431, Note_on_c, 12, 53, 0
18, 49431, Note_on_c, 12, 63, 0
18, 49440, Note_on_c, 12, 53, 76
18, 49440, Note_on_c, 12, 63, 76
18, 49491, Note_on_c, 12, 53, 0
18, 49491, Note_on_c, 12, 63, 0
18, 49500, Note_on_c, 12, 53, 76
18, 49500, Note_on_c, 12, 63, 76
18, 49551, Note_on_c, 12, 53, 0
18, 49551, Note_on_c, 12, 63, 0
18, 49560, Note_on_c, 12, 63, 76
18, 49560, Note_on_c, 12, 53, 76
18, 49611, Note_on_c, 12, 63, 0
18, 49611, Note_on_c, 12, 53, 0
18, 49620, Note_on_c, 12, 63, 76
18, 49620, Note_on_c, 12, 53, 76
18, 49671, Note_on_c, 12, 63, 0
18, 49671, Note_on_c, 12, 53, 0
18, 49680, Note_on_c, 12, 53, 76
18, 49680, Note_on_c, 12, 63, 76
18, 49731, Note_on_c, 12, 53, 0
18, 49731, Note_on_c, 12, 63, 0
18, 49740, Note_on_c, 12, 63, 76
18, 49740, Note_on_c, 12, 53, 76
18, 49791, Note_on_c, 12, 63, 0
18, 49791, Note_on_c, 12, 53, 0
18, 49800, Note_on_c, 12, 53, 76
18, 49800, Note_on_c, 12, 63, 76
18, 49851, Note_on_c, 12, 53, 0
18, 49851, Note_on_c, 12, 63, 0
18, 49860, Note_on_c, 12, 53, 76
18, 49860, Note_on_c, 12, 63, 76
18, 49911, Note_on_c, 12, 53, 0
18, 49911, Note_on_c, 12, 63, 0
18, 49920, Note_on_c, 12, 53, 84
18, 49920, Note_on_c, 12, 61, 84
18, 49971, Note_on_c, 12, 53, 0
18, 49971, Note_on_c, 12, 61, 0
18, 49980, Note_on_c, 12, 53, 76
18, 49980, Note_on_c, 12, 61, 76
18, 50031, Note_on_c, 12, 53, 0
18, 50031, Note_on_c, 12, 61, 0
18, 50040, Note_on_c, 12, 61, 76
18, 50040, Note_on_c, 12, 53, 76
18, 50091, Note_on_c, 12, 61, 0
18, 50091, Note_on_c, 12, 53, 0
18, 50100, Note_on_c, 12, 61, 76
18, 50100, Note_on_c, 12, 53, 76
18, 50151, Note_on_c, 12, 61, 0
18, 50151, Note_on_c, 12, 53, 0
18, 50160, Note_on_c, 12, 53, 76
18, 50160, Note_on_c, 12, 61, 76
18, 50211, Note_on_c, 12, 53, 0
18, 50211, Note_on_c, 12, 61, 0
18, 50220, Note_on_c, 12, 53, 76
18, 50220, Note_on_c, 12, 61, 76
18, 50271, Note_on_c, 12, 53, 0
18, 50271, Note_on_c, 12, 61, 0
18, 50280, Note_on_c, 12, 53, 76
18, 50280, Note_on_c, 12, 61, 76
18, 50331, Note_on_c, 12, 53, 0
18, 50331, Note_on_c, 12, 61, 0
18, 50340, Note_on_c, 12, 53, 76
18, 50340, Note_on_c, 12, 61, 76
18, 50391, Note_on_c, 12, 53, 0
18, 50391, Note_on_c, 12, 61, 0
18, 50400, Note_on_c, 12, 61, 76
18, 50400, Note_on_c, 12, 53, 76
18, 50451, Note_on_c, 12, 61, 0
18, 50451, Note_on_c, 12, 53, 0
18, 50460, Note_on_c, 12, 53, 76
18, 50460, Note_on_c, 12, 61, 76
18, 50511, Note_on_c, 12, 53, 0
18, 50511, Note_on_c, 12, 61, 0
18, 50520, Note_on_c, 12, 53, 76
18, 50520, Note_on_c, 12, 61, 76
18, 50571, Note_on_c, 12, 53, 0
18, 50571, Note_on_c, 12, 61, 0
18, 50580, Note_on_c, 12, 53, 76
18, 50580, Note_on_c, 12, 61, 76
18, 50631, Note_on_c, 12, 53, 0
18, 50631, Note_on_c, 12, 61, 0
18, 50640, Note_on_c, 12, 61, 76
18, 50640, Note_on_c, 12, 53, 76
18, 50691, Note_on_c, 12, 61, 0
18, 50691, Note_on_c, 12, 53, 0
18, 50700, Note_on_c, 12, 61, 76
18, 50700, Note_on_c, 12, 53, 76
18, 50751, Note_on_c, 12, 61, 0
18, 50751, Note_on_c, 12, 53, 0
18, 50760, Note_on_c, 12, 61, 76
18, 50760, Note_on_c, 12, 53, 76
18, 50811, Note_on_c, 12, 61, 0
18, 50811, Note_on_c, 12, 53, 0
18, 50820, Note_on_c, 12, 61, 76
18, 50820, Note_on_c, 12, 53, 76
18, 50871, Note_on_c, 12, 61, 0
18, 50871, Note_on_c, 12, 53, 0
18, 50880, Note_on_c, 12, 55, 84
18, 50880, Note_on_c, 12, 65, 84
18, 50931, Note_on_c, 12, 55, 0
18, 50931, Note_on_c, 12, 65, 0
18, 50940, Note_on_c, 12, 65, 76
18, 50940, Note_on_c, 12, 55, 76
18, 50991, Note_on_c, 12, 65, 0
18, 50991, Note_on_c, 12, 55, 0
18, 51000, Note_on_c, 12, 55, 76
18, 51000, Note_on_c, 12, 65, 76
18, 51051, Note_on_c, 12, 55, 0
18, 51051, Note_on_c, 12, 65, 0
18, 51060, Note_on_c, 12, 55, 76
18, 51060, Note_on_c, 12, 65, 76
18, 51111, Note_on_c, 12, 55, 0
18, 51111, Note_on_c, 12, 65, 0
18, 51120, Note_on_c, 12, 65, 76
18, 51120, Note_on_c, 12, 55, 76
18, 51171, Note_on_c, 12, 65, 0
18, 51171, Note_on_c, 12, 55, 0
18, 51180, Note_on_c, 12, 65, 76
18, 51180, Note_on_c, 12, 55, 76
18, 51231, Note_on_c, 12, 65, 0
18, 51231, Note_on_c, 12, 55, 0
18, 51240, Note_on_c, 12, 55, 76
18, 51240, Note_on_c, 12, 65, 76
18, 51291, Note_on_c, 12, 55, 0
18, 51291, Note_on_c, 12, 65, 0
18, 51300, Note_on_c, 12, 65, 76
18, 51300, Note_on_c, 12, 55, 76
18, 51351, Note_on_c, 12, 65, 0
18, 51351, Note_on_c, 12, 55, 0
18, 51360, Note_on_c, 12, 65, 76
18, 51360, Note_on_c, 12, 55, 76
18, 51411, Note_on_c, 12, 65, 0
18, 51411, Note_on_c, 12, 55, 0
18, 51420, Note_on_c, 12, 65, 76
18, 51420, Note_on_c, 12, 55, 76
18, 51471, Note_on_c, 12, 65, 0
18, 51471, Note_on_c, 12, 55, 0
18, 51480, Note_on_c, 12, 55, 76
18, 51480, Note_on_c, 12, 65, 76
18, 51531, Note_on_c, 12, 55, 0
18, 51531, Note_on_c, 12, 65, 0
18, 51540, Note_on_c, 12, 65, 76
18, 51540, Note_on_c, 12, 55, 76
18, 51591, Note_on_c, 12, 65, 0
18, 51591, Note_on_c, 12, 55, 0
18, 51600, Note_on_c, 12, 65, 76
18, 51600, Note_on_c, 12, 55, 76
18, 51651, Note_on_c, 12, 65, 0
18, 51651, Note_on_c, 12, 55, 0
18, 51660, Note_on_c, 12, 65, 76
18, 51660, Note_on_c, 12, 55, 76
18, 51711, Note_on_c, 12, 65, 0
18, 51711, Note_on_c, 12, 55, 0
18, 51720, Note_on_c, 12, 65, 76
18, 51720, Note_on_c, 12, 55, 76
18, 51771, Note_on_c, 12, 65, 0
18, 51771, Note_on_c, 12, 55, 0
18, 51780, Note_on_c, 12, 55, 76
18, 51780, Note_on_c, 12, 65, 76
18, 51831, Note_on_c, 12, 55, 0
18, 51831, Note_on_c, 12, 65, 0
18, 51840, Note_on_c, 12, 67, 80
18, 51840, Note_on_c, 12, 60, 80
18, 51891, Note_on_c, 12, 67, 0
18, 51891, Note_on_c, 12, 60, 0
18, 51900, Note_on_c, 12, 67, 80
18, 51900, Note_on_c, 12, 60, 80
18, 51951, Note_on_c, 12, 67, 0
18, 51951, Note_on_c, 12, 60, 0
18, 51960, Note_on_c, 12, 60, 80
18, 51960, Note_on_c, 12, 67, 80
18, 52011, Note_on_c, 12, 60, 0
18, 52011, Note_on_c, 12, 67, 0
18, 52020, Note_on_c, 12, 67, 80
18, 52020, Note_on_c, 12, 60, 80
18, 52071, Note_on_c, 12, 67, 0
18, 52071, Note_on_c, 12, 60, 0
18, 52080, Note_on_c, 12, 67, 80
18, 52080, Note_on_c, 12, 60, 80
18, 52131, Note_on_c, 12, 67, 0
18, 52131, Note_on_c, 12, 60, 0
18, 52140, Note_on_c, 12, 60, 80
18, 52140, Note_on_c, 12, 67, 80
18, 52191, Note_on_c, 12, 60, 0
18, 52191, Note_on_c, 12, 67, 0
18, 52200, Note_on_c, 12, 60, 80
18, 52200, Note_on_c, 12, 67, 80
18, 52251, Note_on_c, 12, 60, 0
18, 52251, Note_on_c, 12, 67, 0
18, 52260, Note_on_c, 12, 67, 80
18, 52260, Note_on_c, 12, 60, 80
18, 52311, Note_on_c, 12, 67, 0
18, 52311, Note_on_c, 12, 60, 0
18, 52320, Note_on_c, 12, 67, 80
18, 52320, Note_on_c, 12, 58, 80
18, 52371, Note_on_c, 12, 67, 0
18, 52371, Note_on_c, 12, 58, 0
18, 52380, Note_on_c, 12, 67, 80
18, 52380, Note_on_c, 12, 58, 80
18, 52431, Note_on_c, 12, 67, 0
18, 52431, Note_on_c, 12, 58, 0
18, 52440, Note_on_c, 12, 58, 80
18, 52440, Note_on_c, 12, 67, 80
18, 52491, Note_on_c, 12, 58, 0
18, 52491, Note_on_c, 12, 67, 0
18, 52500, Note_on_c, 12, 67, 80
18, 52500, Note_on_c, 12, 58, 80
18, 52551, Note_on_c, 12, 67, 0
18, 52551, Note_on_c, 12, 58, 0
18, 52560, Note_on_c, 12, 58, 80
18, 52560, Note_on_c, 12, 67, 80
18, 52611, Note_on_c, 12, 58, 0
18, 52611, Note_on_c, 12, 67, 0
18, 52620, Note_on_c, 12, 58, 80
18, 52620, Note_on_c, 12, 67, 80
18, 52671, Note_on_c, 12, 58, 0
18, 52671, Note_on_c, 12, 67, 0
18, 52680, Note_on_c, 12, 58, 80
18, 52680, Note_on_c, 12, 67, 80
18, 52731, Note_on_c, 12, 58, 0
18, 52731, Note_on_c, 12, 67, 0
18, 52740, Note_on_c, 12, 67, 80
18, 52740, Note_on_c, 12, 58, 80
18, 52791, Note_on_c, 12, 67, 0
18, 52791, Note_on_c, 12, 58, 0
18, 52800, Note_on_c, 12, 57, 76
18, 52851, Note_on_c, 12, 57, 0
18, 52860, Note_on_c, 12, 57, 52
18, 52911, Note_on_c, 12, 57, 0
18, 52920, Note_on_c, 12, 57, 52
18, 52971, Note_on_c, 12, 57, 0
18, 52980, Note_on_c, 12, 57, 52
18, 53031, Note_on_c, 12, 57, 0
18, 53040, Note_on_c, 12, 57, 52
18, 53091, Note_on_c, 12, 57, 0
18, 53100, Note_on_c, 12, 57, 52
18, 53151, Note_on_c, 12, 57, 0
18, 53160, Note_on_c, 12, 57, 52
18, 53211, Note_on_c, 12, 57, 0
18, 53220, Note_on_c, 12, 57, 52
18, 53271, Note_on_c, 12, 57, 0
18, 53280, Note_on_c, 12, 57, 52
18, 53331, Note_on_c, 12, 57, 0
18, 53340, Note_on_c, 12, 57, 52
18, 53391, Note_on_c, 12, 57, 0
18, 53400, Note_on_c, 12, 57, 52
18, 53451, Note_on_c, 12, 57, 0
18, 53460, Note_on_c, 12, 57, 52
18, 53511, Note_on_c, 12, 57, 0
18, 53520, Note_on_c, 12, 57, 52
18, 53571, Note_on_c, 12, 57, 0
18, 53580, Note_on_c, 12, 57, 52
18, 53631, Note_on_c, 12, 57, 0
18, 53640, Note_on_c, 12, 57, 52
18, 53691, Note_on_c, 12, 57, 0
18, 53700, Note_on_c, 12, 57, 52
18, 53751, Note_on_c, 12, 57, 0
18, 53760, Note_on_c, 12, 57, 52
18, 53811, Note_on_c, 12, 57, 0
18, 53820, Note_on_c, 12, 57, 52
18, 53871, Note_on_c, 12, 57, 0
18, 53880, Note_on_c, 12, 57, 52
18, 53931, Note_on_c, 12, 57, 0
18, 53940, Note_on_c, 12, 57, 52
18, 53991, Note_on_c, 12, 57, 0
18, 54000, Note_on_c, 12, 57, 52
18, 54051, Note_on_c, 12, 57, 0
18, 54060, Note_on_c, 12, 57, 52
18, 54111, Note_on_c, 12, 57, 0
18, 54120, Note_on_c, 12, 57, 52
18, 54171, Note_on_c, 12, 57, 0
18, 54180, Note_on_c, 12, 57, 52
18, 54231, Note_on_c, 12, 57, 0
18, 54240, Note_on_c, 12, 57, 52
18, 54291, Note_on_c, 12, 57, 0
18, 54300, Note_on_c, 12, 57, 52
18, 54351, Note_on_c, 12, 57, 0
18, 54360, Note_on_c, 12, 57, 52
18, 54411, Note_on_c, 12, 57, 0
18, 54420, Note_on_c, 12, 57, 52
18, 54471, Note_on_c, 12, 57, 0
18, 54480, Note_on_c, 12, 57, 52
18, 54531, Note_on_c, 12, 57, 0
18, 54540, Note_on_c, 12, 57, 52
18, 54591, Note_on_c, 12, 57, 0
18, 54600, Note_on_c, 12, 57, 52
18, 54651, Note_on_c, 12, 57, 0
18, 54660, Note_on_c, 12, 57, 52
18, 54711, Note_on_c, 12, 57, 0
18, 54720, Note_on_c, 12, 58, 52
18, 54720, Note_on_c, 12, 55, 52
18, 54771, Note_on_c, 12, 58, 0
18, 54771, Note_on_c, 12, 55, 0
18, 54780, Note_on_c, 12, 58, 52
18, 54780, Note_on_c, 12, 55, 52
18, 54831, Note_on_c, 12, 58, 0
18, 54831, Note_on_c, 12, 55, 0
18, 54840, Note_on_c, 12, 58, 52
18, 54840, Note_on_c, 12, 55, 52
18, 54891, Note_on_c, 12, 58, 0
18, 54891, Note_on_c, 12, 55, 0
18, 54900, Note_on_c, 12, 58, 52
18, 54900, Note_on_c, 12, 55, 52
18, 54951, Note_on_c, 12, 58, 0
18, 54951, Note_on_c, 12, 55, 0
18, 54960, Note_on_c, 12, 58, 52
18, 54960, Note_on_c, 12, 55, 52
18, 55011, Note_on_c, 12, 58, 0
18, 55011, Note_on_c, 12, 55, 0
18, 55020, Note_on_c, 12, 55, 52
18, 55020, Note_on_c, 12, 58, 52
18, 55071, Note_on_c, 12, 55, 0
18, 55071, Note_on_c, 12, 58, 0
18, 55080, Note_on_c, 12, 55, 52
18, 55080, Note_on_c, 12, 58, 52
18, 55131, Note_on_c, 12, 55, 0
18, 55131, Note_on_c, 12, 58, 0
18, 55140, Note_on_c, 12, 58, 52
18, 55140, Note_on_c, 12, 55, 52
18, 55191, Note_on_c, 12, 58, 0
18, 55191, Note_on_c, 12, 55, 0
18, 55200, Note_on_c, 12, 55, 52
18, 55200, Note_on_c, 12, 58, 52
18, 55251, Note_on_c, 12, 55, 0
18, 55251, Note_on_c, 12, 58, 0
18, 55260, Note_on_c, 12, 55, 52
18, 55260, Note_on_c, 12, 58, 52
18, 55311, Note_on_c, 12, 55, 0
18, 55311, Note_on_c, 12, 58, 0
18, 55320, Note_on_c, 12, 55, 52
18, 55320, Note_on_c, 12, 58, 52
18, 55371, Note_on_c, 12, 55, 0
18, 55371, Note_on_c, 12, 58, 0
18, 55380, Note_on_c, 12, 58, 52
18, 55380, Note_on_c, 12, 55, 52
18, 55431, Note_on_c, 12, 58, 0
18, 55431, Note_on_c, 12, 55, 0
18, 55440, Note_on_c, 12, 58, 52
18, 55440, Note_on_c, 12, 55, 52
18, 55491, Note_on_c, 12, 58, 0
18, 55491, Note_on_c, 12, 55, 0
18, 55500, Note_on_c, 12, 58, 52
18, 55500, Note_on_c, 12, 55, 52
18, 55551, Note_on_c, 12, 58, 0
18, 55551, Note_on_c, 12, 55, 0
18, 55560, Note_on_c, 12, 58, 52
18, 55560, Note_on_c, 12, 55, 52
18, 55611, Note_on_c, 12, 58, 0
18, 55611, Note_on_c, 12, 55, 0
18, 55620, Note_on_c, 12, 58, 52
18, 55620, Note_on_c, 12, 55, 52
18, 55671, Note_on_c, 12, 58, 0
18, 55671, Note_on_c, 12, 55, 0
18, 55680, Note_on_c, 12, 55, 52
18, 55680, Note_on_c, 12, 58, 52
18, 55731, Note_on_c, 12, 55, 0
18, 55731, Note_on_c, 12, 58, 0
18, 55740, Note_on_c, 12, 55, 52
18, 55740, Note_on_c, 12, 58, 52
18, 55791, Note_on_c, 12, 55, 0
18, 55791, Note_on_c, 12, 58, 0
18, 55800, Note_on_c, 12, 55, 52
18, 55800, Note_on_c, 12, 58, 52
18, 55851, Note_on_c, 12, 55, 0
18, 55851, Note_on_c, 12, 58, 0
18, 55860, Note_on_c, 12, 58, 52
18, 55860, Note_on_c, 12, 55, 52
18, 55911, Note_on_c, 12, 58, 0
18, 55911, Note_on_c, 12, 55, 0
18, 55920, Note_on_c, 12, 58, 52
18, 55920, Note_on_c, 12, 55, 52
18, 55971, Note_on_c, 12, 58, 0
18, 55971, Note_on_c, 12, 55, 0
18, 55980, Note_on_c, 12, 55, 52
18, 55980, Note_on_c, 12, 58, 52
18, 56031, Note_on_c, 12, 55, 0
18, 56031, Note_on_c, 12, 58, 0
18, 56040, Note_on_c, 12, 55, 52
18, 56040, Note_on_c, 12, 58, 52
18, 56091, Note_on_c, 12, 55, 0
18, 56091, Note_on_c, 12, 58, 0
18, 56100, Note_on_c, 12, 58, 52
18, 56100, Note_on_c, 12, 55, 52
18, 56151, Note_on_c, 12, 58, 0
18, 56151, Note_on_c, 12, 55, 0
18, 56160, Note_on_c, 12, 58, 52
18, 56160, Note_on_c, 12, 55, 52
18, 56211, Note_on_c, 12, 58, 0
18, 56211, Note_on_c, 12, 55, 0
18, 56220, Note_on_c, 12, 58, 52
18, 56220, Note_on_c, 12, 55, 52
18, 56271, Note_on_c, 12, 58, 0
18, 56271, Note_on_c, 12, 55, 0
18, 56280, Note_on_c, 12, 55, 52
18, 56280, Note_on_c, 12, 58, 52
18, 56331, Note_on_c, 12, 55, 0
18, 56331, Note_on_c, 12, 58, 0
18, 56340, Note_on_c, 12, 58, 52
18, 56340, Note_on_c, 12, 55, 52
18, 56391, Note_on_c, 12, 58, 0
18, 56391, Note_on_c, 12, 55, 0
18, 56400, Note_on_c, 12, 55, 52
18, 56400, Note_on_c, 12, 58, 52
18, 56451, Note_on_c, 12, 55, 0
18, 56451, Note_on_c, 12, 58, 0
18, 56460, Note_on_c, 12, 58, 52
18, 56460, Note_on_c, 12, 55, 52
18, 56511, Note_on_c, 12, 58, 0
18, 56511, Note_on_c, 12, 55, 0
18, 56520, Note_on_c, 12, 55, 52
18, 56520, Note_on_c, 12, 58, 52
18, 56571, Note_on_c, 12, 55, 0
18, 56571, Note_on_c, 12, 58, 0
18, 56580, Note_on_c, 12, 55, 52
18, 56580, Note_on_c, 12, 58, 52
18, 56631, Note_on_c, 12, 55, 0
18, 56631, Note_on_c, 12, 58, 0
18, 56640, Note_on_c, 12, 58, 52
18, 56640, Note_on_c, 12, 55, 52
18, 56691, Note_on_c, 12, 58, 0
18, 56691, Note_on_c, 12, 55, 0
18, 56700, Note_on_c, 12, 58, 52
18, 56700, Note_on_c, 12, 55, 52
18, 56751, Note_on_c, 12, 58, 0
18, 56751, Note_on_c, 12, 55, 0
18, 56760, Note_on_c, 12, 55, 52
18, 56760, Note_on_c, 12, 58, 52
18, 56811, Note_on_c, 12, 55, 0
18, 56811, Note_on_c, 12, 58, 0
18, 56820, Note_on_c, 12, 58, 52
18, 56820, Note_on_c, 12, 55, 52
18, 56871, Note_on_c, 12, 58, 0
18, 56871, Note_on_c, 12, 55, 0
18, 56880, Note_on_c, 12, 55, 52
18, 56880, Note_on_c, 12, 58, 52
18, 56931, Note_on_c, 12, 55, 0
18, 56931, Note_on_c, 12, 58, 0
18, 56940, Note_on_c, 12, 58, 52
18, 56940, Note_on_c, 12, 55, 52
18, 56991, Note_on_c, 12, 58, 0
18, 56991, Note_on_c, 12, 55, 0
18, 57000, Note_on_c, 12, 58, 52
18, 57000, Note_on_c, 12, 55, 52
18, 57051, Note_on_c, 12, 58, 0
18, 57051, Note_on_c, 12, 55, 0
18, 57060, Note_on_c, 12, 58, 52
18, 57060, Note_on_c, 12, 55, 52
18, 57111, Note_on_c, 12, 58, 0
18, 57111, Note_on_c, 12, 55, 0
18, 57120, Note_on_c, 12, 58, 52
18, 57120, Note_on_c, 12, 55, 52
18, 57171, Note_on_c, 12, 58, 0
18, 57171, Note_on_c, 12, 55, 0
18, 57180, Note_on_c, 12, 55, 52
18, 57180, Note_on_c, 12, 58, 52
18, 57231, Note_on_c, 12, 55, 0
18, 57231, Note_on_c, 12, 58, 0
18, 57240, Note_on_c, 12, 55, 52
18, 57240, Note_on_c, 12, 58, 52
18, 57291, Note_on_c, 12, 55, 0
18, 57291, Note_on_c, 12, 58, 0
18, 57300, Note_on_c, 12, 58, 52
18, 57300, Note_on_c, 12, 55, 52
18, 57351, Note_on_c, 12, 58, 0
18, 57351, Note_on_c, 12, 55, 0
18, 57360, Note_on_c, 12, 58, 52
18, 57360, Note_on_c, 12, 55, 52
18, 57411, Note_on_c, 12, 58, 0
18, 57411, Note_on_c, 12, 55, 0
18, 57420, Note_on_c, 12, 58, 52
18, 57420, Note_on_c, 12, 55, 52
18, 57471, Note_on_c, 12, 58, 0
18, 57471, Note_on_c, 12, 55, 0
18, 57480, Note_on_c, 12, 55, 52
18, 57480, Note_on_c, 12, 58, 52
18, 57531, Note_on_c, 12, 55, 0
18, 57531, Note_on_c, 12, 58, 0
18, 57540, Note_on_c, 12, 55, 52
18, 57540, Note_on_c, 12, 58, 52
18, 57591, Note_on_c, 12, 55, 0
18, 57591, Note_on_c, 12, 58, 0
18, 57600, Note_on_c, 12, 58, 52
18, 57600, Note_on_c, 12, 55, 52
18, 57651, Note_on_c, 12, 58, 0
18, 57651, Note_on_c, 12, 55, 0
18, 57660, Note_on_c, 12, 55, 52
18, 57660, Note_on_c, 12, 58, 52
18, 57711, Note_on_c, 12, 55, 0
18, 57711, Note_on_c, 12, 58, 0
18, 57720, Note_on_c, 12, 58, 52
18, 57720, Note_on_c, 12, 55, 52
18, 57771, Note_on_c, 12, 58, 0
18, 57771, Note_on_c, 12, 55, 0
18, 57780, Note_on_c, 12, 55, 52
18, 57780, Note_on_c, 12, 58, 52
18, 57831, Note_on_c, 12, 55, 0
18, 57831, Note_on_c, 12, 58, 0
18, 57840, Note_on_c, 12, 58, 52
18, 57840, Note_on_c, 12, 55, 52
18, 57891, Note_on_c, 12, 58, 0
18, 57891, Note_on_c, 12, 55, 0
18, 57900, Note_on_c, 12, 55, 52
18, 57900, Note_on_c, 12, 58, 52
18, 57951, Note_on_c, 12, 55, 0
18, 57951, Note_on_c, 12, 58, 0
18, 57960, Note_on_c, 12, 58, 52
18, 57960, Note_on_c, 12, 55, 52
18, 58011, Note_on_c, 12, 58, 0
18, 58011, Note_on_c, 12, 55, 0
18, 58020, Note_on_c, 12, 55, 52
18, 58020, Note_on_c, 12, 58, 52
18, 58071, Note_on_c, 12, 55, 0
18, 58071, Note_on_c, 12, 58, 0
18, 58080, Note_on_c, 12, 55, 52
18, 58080, Note_on_c, 12, 58, 52
18, 58131, Note_on_c, 12, 55, 0
18, 58131, Note_on_c, 12, 58, 0
18, 58140, Note_on_c, 12, 58, 52
18, 58140, Note_on_c, 12, 55, 52
18, 58191, Note_on_c, 12, 58, 0
18, 58191, Note_on_c, 12, 55, 0
18, 58200, Note_on_c, 12, 55, 52
18, 58200, Note_on_c, 12, 58, 52
18, 58251, Note_on_c, 12, 55, 0
18, 58251, Note_on_c, 12, 58, 0
18, 58260, Note_on_c, 12, 58, 52
18, 58260, Note_on_c, 12, 55, 52
18, 58311, Note_on_c, 12, 58, 0
18, 58311, Note_on_c, 12, 55, 0
18, 58320, Note_on_c, 12, 58, 52
18, 58320, Note_on_c, 12, 55, 52
18, 58371, Note_on_c, 12, 58, 0
18, 58371, Note_on_c, 12, 55, 0
18, 58380, Note_on_c, 12, 58, 52
18, 58380, Note_on_c, 12, 55, 52
18, 58431, Note_on_c, 12, 58, 0
18, 58431, Note_on_c, 12, 55, 0
18, 58440, Note_on_c, 12, 58, 52
18, 58440, Note_on_c, 12, 55, 52
18, 58491, Note_on_c, 12, 58, 0
18, 58491, Note_on_c, 12, 55, 0
18, 58500, Note_on_c, 12, 55, 52
18, 58500, Note_on_c, 12, 58, 52
18, 58551, Note_on_c, 12, 55, 0
18, 58551, Note_on_c, 12, 58, 0
18, 58560, Note_on_c, 12, 55, 44
18, 58611, Note_on_c, 12, 55, 0
18, 58620, Note_on_c, 12, 55, 44
18, 58671, Note_on_c, 12, 55, 0
18, 58680, Note_on_c, 12, 55, 44
18, 58731, Note_on_c, 12, 55, 0
18, 58740, Note_on_c, 12, 55, 44
18, 58791, Note_on_c, 12, 55, 0
18, 58800, Note_on_c, 12, 55, 44
18, 58851, Note_on_c, 12, 55, 0
18, 58860, Note_on_c, 12, 55, 44
18, 58911, Note_on_c, 12, 55, 0
18, 58920, Note_on_c, 12, 55, 44
18, 58971, Note_on_c, 12, 55, 0
18, 58980, Note_on_c, 12, 55, 44
18, 59031, Note_on_c, 12, 55, 0
18, 59040, Note_on_c, 12, 55, 44
18, 59091, Note_on_c, 12, 55, 0
18, 59100, Note_on_c, 12, 55, 44
18, 59151, Note_on_c, 12, 55, 0
18, 59160, Note_on_c, 12, 55, 44
18, 59211, Note_on_c, 12, 55, 0
18, 59220, Note_on_c, 12, 55, 44
18, 59271, Note_on_c, 12, 55, 0
18, 59280, Note_on_c, 12, 55, 44
18, 59331, Note_on_c, 12, 55, 0
18, 59340, Note_on_c, 12, 55, 44
18, 59391, Note_on_c, 12, 55, 0
18, 59400, Note_on_c, 12, 55, 44
18, 59451, Note_on_c, 12, 55, 0
18, 59460, Note_on_c, 12, 55, 44
18, 59511, Note_on_c, 12, 55, 0
18, 59520, Note_on_c, 12, 55, 44
18, 59571, Note_on_c, 12, 55, 0
18, 59580, Note_on_c, 12, 55, 44
18, 59631, Note_on_c, 12, 55, 0
18, 59640, Note_on_c, 12, 55, 44
18, 59691, Note_on_c, 12, 55, 0
18, 59700, Note_on_c, 12, 55, 44
18, 59751, Note_on_c, 12, 55, 0
18, 59760, Note_on_c, 12, 55, 44
18, 59811, Note_on_c, 12, 55, 0
18, 59820, Note_on_c, 12, 55, 44
18, 59871, Note_on_c, 12, 55, 0
18, 59880, Note_on_c, 12, 55, 44
18, 59931, Note_on_c, 12, 55, 0
18, 59940, Note_on_c, 12, 55, 44
18, 59991, Note_on_c, 12, 55, 0
18, 60000, Note_on_c, 12, 55, 44
18, 60051, Note_on_c, 12, 55, 0
18, 60060, Note_on_c, 12, 55, 44
18, 60111, Note_on_c, 12, 55, 0
18, 60120, Note_on_c, 12, 55, 44
18, 60171, Note_on_c, 12, 55, 0
18, 60180, Note_on_c, 12, 55, 44
18, 60231, Note_on_c, 12, 55, 0
18, 60240, Note_on_c, 12, 55, 44
18, 60291, Note_on_c, 12, 55, 0
18, 60300, Note_on_c, 12, 55, 44
18, 60351, Note_on_c, 12, 55, 0
18, 60360, Note_on_c, 12, 55, 44
18, 60411, Note_on_c, 12, 55, 0
18, 60420, Note_on_c, 12, 55, 44
18, 60471, Note_on_c, 12, 55, 0
18, 60480, Note_on_c, 12, 54, 44
18, 60531, Note_on_c, 12, 54, 0
18, 60540, Note_on_c, 12, 54, 44
18, 60591, Note_on_c, 12, 54, 0
18, 60600, Note_on_c, 12, 54, 44
18, 60651, Note_on_c, 12, 54, 0
18, 60660, Note_on_c, 12, 54, 44
18, 60711, Note_on_c, 12, 54, 0
18, 60720, Note_on_c, 12, 54, 44
18, 60771, Note_on_c, 12, 54, 0
18, 60780, Note_on_c, 12, 54, 44
18, 60831, Note_on_c, 12, 54, 0
18, 60840, Note_on_c, 12, 54, 44
18, 60891, Note_on_c, 12, 54, 0
18, 60900, Note_on_c, 12, 54, 44
18, 60951, Note_on_c, 12, 54, 0
18, 60960, Note_on_c, 12, 54, 44
18, 61011, Note_on_c, 12, 54, 0
18, 61020, Note_on_c, 12, 54, 44
18, 61071, Note_on_c, 12, 54, 0
18, 61080, Note_on_c, 12, 54, 44
18, 61131, Note_on_c, 12, 54, 0
18, 61140, Note_on_c, 12, 54, 44
18, 61191, Note_on_c, 12, 54, 0
18, 61200, Note_on_c, 12, 54, 44
18, 61251, Note_on_c, 12, 54, 0
18, 61260, Note_on_c, 12, 54, 44
18, 61311, Note_on_c, 12, 54, 0
18, 61320, Note_on_c, 12, 54, 44
18, 61371, Note_on_c, 12, 54, 0
18, 61380, Note_on_c, 12, 54, 44
18, 61431, Note_on_c, 12, 54, 0
18, 61440, Note_on_c, 12, 54, 44
18, 61491, Note_on_c, 12, 54, 0
18, 61500, Note_on_c, 12, 54, 44
18, 61551, Note_on_c, 12, 54, 0
18, 61560, Note_on_c, 12, 54, 44
18, 61611, Note_on_c, 12, 54, 0
18, 61620, Note_on_c, 12, 54, 44
18, 61671, Note_on_c, 12, 54, 0
18, 61680, Note_on_c, 12, 54, 44
18, 61731, Note_on_c, 12, 54, 0
18, 61740, Note_on_c, 12, 54, 44
18, 61791, Note_on_c, 12, 54, 0
18, 61800, Note_on_c, 12, 54, 44
18, 61851, Note_on_c, 12, 54, 0
18, 61860, Note_on_c, 12, 54, 44
18, 61911, Note_on_c, 12, 54, 0
18, 61920, Note_on_c, 12, 54, 44
18, 61971, Note_on_c, 12, 54, 0
18, 61980, Note_on_c, 12, 54, 44
18, 62031, Note_on_c, 12, 54, 0
18, 62040, Note_on_c, 12, 54, 44
18, 62091, Note_on_c, 12, 54, 0
18, 62100, Note_on_c, 12, 54, 44
18, 62151, Note_on_c, 12, 54, 0
18, 62160, Note_on_c, 12, 54, 44
18, 62211, Note_on_c, 12, 54, 0
18, 62220, Note_on_c, 12, 54, 44
18, 62271, Note_on_c, 12, 54, 0
18, 62280, Note_on_c, 12, 54, 44
18, 62331, Note_on_c, 12, 54, 0
18, 62340, Note_on_c, 12, 54, 44
18, 62391, Note_on_c, 12, 54, 0
18, 62400, Note_on_c, 12, 54, 44
18, 62400, Note_on_c, 12, 57, 44
18, 62451, Note_on_c, 12, 54, 0
18, 62451, Note_on_c, 12, 57, 0
18, 62460, Note_on_c, 12, 54, 44
18, 62460, Note_on_c, 12, 57, 44
18, 62511, Note_on_c, 12, 54, 0
18, 62511, Note_on_c, 12, 57, 0
18, 62520, Note_on_c, 12, 57, 44
18, 62520, Note_on_c, 12, 54, 44
18, 62571, Note_on_c, 12, 57, 0
18, 62571, Note_on_c, 12, 54, 0
18, 62580, Note_on_c, 12, 54, 44
18, 62580, Note_on_c, 12, 57, 44
18, 62631, Note_on_c, 12, 54, 0
18, 62631, Note_on_c, 12, 57, 0
18, 62640, Note_on_c, 12, 57, 44
18, 62640, Note_on_c, 12, 54, 44
18, 62691, Note_on_c, 12, 57, 0
18, 62691, Note_on_c, 12, 54, 0
18, 62700, Note_on_c, 12, 54, 44
18, 62700, Note_on_c, 12, 57, 44
18, 62751, Note_on_c, 12, 54, 0
18, 62751, Note_on_c, 12, 57, 0
18, 62760, Note_on_c, 12, 54, 44
18, 62760, Note_on_c, 12, 57, 44
18, 62811, Note_on_c, 12, 54, 0
18, 62811, Note_on_c, 12, 57, 0
18, 62820, Note_on_c, 12, 54, 44
18, 62820, Note_on_c, 12, 57, 44
18, 62871, Note_on_c, 12, 54, 0
18, 62871, Note_on_c, 12, 57, 0
18, 62880, Note_on_c, 12, 54, 44
18, 62880, Note_on_c, 12, 57, 44
18, 62931, Note_on_c, 12, 54, 0
18, 62931, Note_on_c, 12, 57, 0
18, 62940, Note_on_c, 12, 54, 44
18, 62940, Note_on_c, 12, 57, 44
18, 62991, Note_on_c, 12, 54, 0
18, 62991, Note_on_c, 12, 57, 0
18, 63000, Note_on_c, 12, 54, 44
18, 63000, Note_on_c, 12, 57, 44
18, 63051, Note_on_c, 12, 54, 0
18, 63051, Note_on_c, 12, 57, 0
18, 63060, Note_on_c, 12, 57, 44
18, 63060, Note_on_c, 12, 54, 44
18, 63111, Note_on_c, 12, 57, 0
18, 63111, Note_on_c, 12, 54, 0
18, 63120, Note_on_c, 12, 54, 44
18, 63120, Note_on_c, 12, 57, 44
18, 63171, Note_on_c, 12, 54, 0
18, 63171, Note_on_c, 12, 57, 0
18, 63180, Note_on_c, 12, 57, 44
18, 63180, Note_on_c, 12, 54, 44
18, 63231, Note_on_c, 12, 57, 0
18, 63231, Note_on_c, 12, 54, 0
18, 63240, Note_on_c, 12, 57, 44
18, 63240, Note_on_c, 12, 54, 44
18, 63291, Note_on_c, 12, 57, 0
18, 63291, Note_on_c, 12, 54, 0
18, 63300, Note_on_c, 12, 54, 44
18, 63300, Note_on_c, 12, 57, 44
18, 63351, Note_on_c, 12, 54, 0
18, 63351, Note_on_c, 12, 57, 0
18, 63360, Note_on_c, 12, 57, 44
18, 63360, Note_on_c, 12, 54, 44
18, 63411, Note_on_c, 12, 57, 0
18, 63411, Note_on_c, 12, 54, 0
18, 63420, Note_on_c, 12, 54, 44
18, 63420, Note_on_c, 12, 57, 44
18, 63471, Note_on_c, 12, 54, 0
18, 63471, Note_on_c, 12, 57, 0
18, 63480, Note_on_c, 12, 54, 44
18, 63480, Note_on_c, 12, 57, 44
18, 63531, Note_on_c, 12, 54, 0
18, 63531, Note_on_c, 12, 57, 0
18, 63540, Note_on_c, 12, 57, 44
18, 63540, Note_on_c, 12, 54, 44
18, 63591, Note_on_c, 12, 57, 0
18, 63591, Note_on_c, 12, 54, 0
18, 63600, Note_on_c, 12, 57, 44
18, 63600, Note_on_c, 12, 54, 44
18, 63651, Note_on_c, 12, 57, 0
18, 63651, Note_on_c, 12, 54, 0
18, 63660, Note_on_c, 12, 57, 44
18, 63660, Note_on_c, 12, 54, 44
18, 63711, Note_on_c, 12, 57, 0
18, 63711, Note_on_c, 12, 54, 0
18, 63720, Note_on_c, 12, 54, 44
18, 63720, Note_on_c, 12, 57, 44
18, 63771, Note_on_c, 12, 54, 0
18, 63771, Note_on_c, 12, 57, 0
18, 63780, Note_on_c, 12, 57, 44
18, 63780, Note_on_c, 12, 54, 44
18, 63831, Note_on_c, 12, 57, 0
18, 63831, Note_on_c, 12, 54, 0
18, 63840, Note_on_c, 12, 54, 44
18, 63840, Note_on_c, 12, 57, 44
18, 63891, Note_on_c, 12, 54, 0
18, 63891, Note_on_c, 12, 57, 0
18, 63900, Note_on_c, 12, 54, 44
18, 63900, Note_on_c, 12, 57, 44
18, 63951, Note_on_c, 12, 54, 0
18, 63951, Note_on_c, 12, 57, 0
18, 63960, Note_on_c, 12, 57, 44
18, 63960, Note_on_c, 12, 54, 44
18, 64011, Note_on_c, 12, 57, 0
18, 64011, Note_on_c, 12, 54, 0
18, 64020, Note_on_c, 12, 54, 44
18, 64020, Note_on_c, 12, 57, 44
18, 64071, Note_on_c, 12, 54, 0
18, 64071, Note_on_c, 12, 57, 0
18, 64080, Note_on_c, 12, 54, 44
18, 64080, Note_on_c, 12, 57, 44
18, 64131, Note_on_c, 12, 54, 0
18, 64131, Note_on_c, 12, 57, 0
18, 64140, Note_on_c, 12, 54, 44
18, 64140, Note_on_c, 12, 57, 44
18, 64191, Note_on_c, 12, 54, 0
18, 64191, Note_on_c, 12, 57, 0
18, 64200, Note_on_c, 12, 57, 44
18, 64200, Note_on_c, 12, 54, 44
18, 64251, Note_on_c, 12, 57, 0
18, 64251, Note_on_c, 12, 54, 0
18, 64260, Note_on_c, 12, 57, 44
18, 64260, Note_on_c, 12, 54, 44
18, 64311, Note_on_c, 12, 57, 0
18, 64311, Note_on_c, 12, 54, 0
18, 64320, Note_on_c, 12, 54, 44
18, 64320, Note_on_c, 12, 57, 44
18, 64371, Note_on_c, 12, 54, 0
18, 64371, Note_on_c, 12, 57, 0
18, 64380, Note_on_c, 12, 57, 44
18, 64380, Note_on_c, 12, 54, 44
18, 64431, Note_on_c, 12, 57, 0
18, 64431, Note_on_c, 12, 54, 0
18, 64440, Note_on_c, 12, 54, 44
18, 64440, Note_on_c, 12, 57, 44
18, 64491, Note_on_c, 12, 54, 0
18, 64491, Note_on_c, 12, 57, 0
18, 64500, Note_on_c, 12, 57, 44
18, 64500, Note_on_c, 12, 54, 44
18, 64551, Note_on_c, 12, 57, 0
18, 64551, Note_on_c, 12, 54, 0
18, 64560, Note_on_c, 12, 57, 44
18, 64560, Note_on_c, 12, 54, 44
18, 64611, Note_on_c, 12, 57, 0
18, 64611, Note_on_c, 12, 54, 0
18, 64620, Note_on_c, 12, 54, 44
18, 64620, Note_on_c, 12, 57, 44
18, 64671, Note_on_c, 12, 54, 0
18, 64671, Note_on_c, 12, 57, 0
18, 64680, Note_on_c, 12, 57, 44
18, 64680, Note_on_c, 12, 54, 44
18, 64731, Note_on_c, 12, 57, 0
18, 64731, Note_on_c, 12, 54, 0
18, 64740, Note_on_c, 12, 57, 44
18, 64740, Note_on_c, 12, 54, 44
18, 64791, Note_on_c, 12, 57, 0
18, 64791, Note_on_c, 12, 54, 0
18, 64800, Note_on_c, 12, 57, 44
18, 64800, Note_on_c, 12, 54, 44
18, 64851, Note_on_c, 12, 57, 0
18, 64851, Note_on_c, 12, 54, 0
18, 64860, Note_on_c, 12, 54, 44
18, 64860, Note_on_c, 12, 57, 44
18, 64911, Note_on_c, 12, 54, 0
18, 64911, Note_on_c, 12, 57, 0
18, 64920, Note_on_c, 12, 57, 44
18, 64920, Note_on_c, 12, 54, 44
18, 64971, Note_on_c, 12, 57, 0
18, 64971, Note_on_c, 12, 54, 0
18, 64980, Note_on_c, 12, 54, 44
18, 64980, Note_on_c, 12, 57, 44
18, 65031, Note_on_c, 12, 54, 0
18, 65031, Note_on_c, 12, 57, 0
18, 65040, Note_on_c, 12, 57, 44
18, 65040, Note_on_c, 12, 54, 44
18, 65091, Note_on_c, 12, 57, 0
18, 65091, Note_on_c, 12, 54, 0
18, 65100, Note_on_c, 12, 54, 44
18, 65100, Note_on_c, 12, 57, 44
18, 65151, Note_on_c, 12, 54, 0
18, 65151, Note_on_c, 12, 57, 0
18, 65160, Note_on_c, 12, 57, 44
18, 65160, Note_on_c, 12, 54, 44
18, 65211, Note_on_c, 12, 57, 0
18, 65211, Note_on_c, 12, 54, 0
18, 65220, Note_on_c, 12, 57, 44
18, 65220, Note_on_c, 12, 54, 44
18, 65271, Note_on_c, 12, 57, 0
18, 65271, Note_on_c, 12, 54, 0
18, 65280, Note_on_c, 12, 57, 44
18, 65280, Note_on_c, 12, 54, 44
18, 65331, Note_on_c, 12, 57, 0
18, 65331, Note_on_c, 12, 54, 0
18, 65340, Note_on_c, 12, 54, 44
18, 65340, Note_on_c, 12, 57, 44
18, 65391, Note_on_c, 12, 54, 0
18, 65391, Note_on_c, 12, 57, 0
18, 65400, Note_on_c, 12, 57, 44
18, 65400, Note_on_c, 12, 54, 44
18, 65451, Note_on_c, 12, 57, 0
18, 65451, Note_on_c, 12, 54, 0
18, 65460, Note_on_c, 12, 54, 44
18, 65460, Note_on_c, 12, 57, 44
18, 65511, Note_on_c, 12, 54, 0
18, 65511, Note_on_c, 12, 57, 0
18, 65520, Note_on_c, 12, 57, 44
18, 65520, Note_on_c, 12, 54, 44
18, 65571, Note_on_c, 12, 57, 0
18, 65571, Note_on_c, 12, 54, 0
18, 65580, Note_on_c, 12, 57, 44
18, 65580, Note_on_c, 12, 54, 44
18, 65631, Note_on_c, 12, 57, 0
18, 65631, Note_on_c, 12, 54, 0
18, 65640, Note_on_c, 12, 57, 44
18, 65640, Note_on_c, 12, 54, 44
18, 65691, Note_on_c, 12, 57, 0
18, 65691, Note_on_c, 12, 54, 0
18, 65700, Note_on_c, 12, 54, 44
18, 65700, Note_on_c, 12, 57, 44
18, 65751, Note_on_c, 12, 54, 0
18, 65751, Note_on_c, 12, 57, 0
18, 65760, Note_on_c, 12, 57, 44
18, 65760, Note_on_c, 12, 54, 44
18, 65811, Note_on_c, 12, 57, 0
18, 65811, Note_on_c, 12, 54, 0
18, 65820, Note_on_c, 12, 57, 44
18, 65820, Note_on_c, 12, 54, 44
18, 65871, Note_on_c, 12, 57, 0
18, 65871, Note_on_c, 12, 54, 0
18, 65880, Note_on_c, 12, 57, 44
18, 65880, Note_on_c, 12, 54, 44
18, 65931, Note_on_c, 12, 57, 0
18, 65931, Note_on_c, 12, 54, 0
18, 65940, Note_on_c, 12, 57, 44
18, 65940, Note_on_c, 12, 54, 44
18, 65991, Note_on_c, 12, 57, 0
18, 65991, Note_on_c, 12, 54, 0
18, 66000, Note_on_c, 12, 57, 44
18, 66000, Note_on_c, 12, 54, 44
18, 66051, Note_on_c, 12, 57, 0
18, 66051, Note_on_c, 12, 54, 0
18, 66060, Note_on_c, 12, 57, 44
18, 66060, Note_on_c, 12, 54, 44
18, 66111, Note_on_c, 12, 57, 0
18, 66111, Note_on_c, 12, 54, 0
18, 66120, Note_on_c, 12, 57, 44
18, 66120, Note_on_c, 12, 54, 44
18, 66171, Note_on_c, 12, 57, 0
18, 66171, Note_on_c, 12, 54, 0
18, 66180, Note_on_c, 12, 57, 44
18, 66180, Note_on_c, 12, 54, 44
18, 66231, Note_on_c, 12, 57, 0
18, 66231, Note_on_c, 12, 54, 0
18, 66240, Note_on_c, 12, 54, 44
18, 66240, Note_on_c, 12, 57, 44
18, 66291, Note_on_c, 12, 54, 0
18, 66291, Note_on_c, 12, 57, 0
18, 66300, Note_on_c, 12, 57, 44
18, 66300, Note_on_c, 12, 54, 44
18, 66351, Note_on_c, 12, 57, 0
18, 66351, Note_on_c, 12, 54, 0
18, 66360, Note_on_c, 12, 54, 44
18, 66360, Note_on_c, 12, 57, 44
18, 66411, Note_on_c, 12, 54, 0
18, 66411, Note_on_c, 12, 57, 0
18, 66420, Note_on_c, 12, 54, 44
18, 66420, Note_on_c, 12, 57, 44
18, 66471, Note_on_c, 12, 54, 0
18, 66471, Note_on_c, 12, 57, 0
18, 66480, Note_on_c, 12, 54, 44
18, 66480, Note_on_c, 12, 57, 44
18, 66531, Note_on_c, 12, 54, 0
18, 66531, Note_on_c, 12, 57, 0
18, 66540, Note_on_c, 12, 54, 44
18, 66540, Note_on_c, 12, 57, 44
18, 66591, Note_on_c, 12, 54, 0
18, 66591, Note_on_c, 12, 57, 0
18, 66600, Note_on_c, 12, 54, 44
18, 66600, Note_on_c, 12, 57, 44
18, 66651, Note_on_c, 12, 54, 0
18, 66651, Note_on_c, 12, 57, 0
18, 66660, Note_on_c, 12, 57, 44
18, 66660, Note_on_c, 12, 54, 44
18, 66711, Note_on_c, 12, 57, 0
18, 66711, Note_on_c, 12, 54, 0
18, 66720, Note_on_c, 12, 54, 44
18, 66720, Note_on_c, 12, 57, 44
18, 66771, Note_on_c, 12, 54, 0
18, 66771, Note_on_c, 12, 57, 0
18, 66780, Note_on_c, 12, 57, 44
18, 66780, Note_on_c, 12, 54, 44
18, 66831, Note_on_c, 12, 57, 0
18, 66831, Note_on_c, 12, 54, 0
18, 66840, Note_on_c, 12, 57, 44
18, 66840, Note_on_c, 12, 54, 44
18, 66891, Note_on_c, 12, 57, 0
18, 66891, Note_on_c, 12, 54, 0
18, 66900, Note_on_c, 12, 54, 44
18, 66900, Note_on_c, 12, 57, 44
18, 66951, Note_on_c, 12, 54, 0
18, 66951, Note_on_c, 12, 57, 0
18, 66960, Note_on_c, 12, 57, 44
18, 66960, Note_on_c, 12, 54, 44
18, 67011, Note_on_c, 12, 57, 0
18, 67011, Note_on_c, 12, 54, 0
18, 67020, Note_on_c, 12, 54, 44
18, 67020, Note_on_c, 12, 57, 44
18, 67071, Note_on_c, 12, 54, 0
18, 67071, Note_on_c, 12, 57, 0
18, 67080, Note_on_c, 12, 57, 44
18, 67080, Note_on_c, 12, 54, 44
18, 67131, Note_on_c, 12, 57, 0
18, 67131, Note_on_c, 12, 54, 0
18, 67140, Note_on_c, 12, 57, 44
18, 67140, Note_on_c, 12, 54, 44
18, 67191, Note_on_c, 12, 57, 0
18, 67191, Note_on_c, 12, 54, 0
18, 67200, Note_on_c, 12, 57, 44
18, 67200, Note_on_c, 12, 54, 44
18, 67251, Note_on_c, 12, 57, 0
18, 67251, Note_on_c, 12, 54, 0
18, 67260, Note_on_c, 12, 57, 44
18, 67260, Note_on_c, 12, 54, 44
18, 67311, Note_on_c, 12, 57, 0
18, 67311, Note_on_c, 12, 54, 0
18, 67320, Note_on_c, 12, 54, 44
18, 67320, Note_on_c, 12, 57, 44
18, 67371, Note_on_c, 12, 54, 0
18, 67371, Note_on_c, 12, 57, 0
18, 67380, Note_on_c, 12, 54, 44
18, 67380, Note_on_c, 12, 57, 44
18, 67431, Note_on_c, 12, 54, 0
18, 67431, Note_on_c, 12, 57, 0
18, 67440, Note_on_c, 12, 54, 44
18, 67440, Note_on_c, 12, 57, 44
18, 67491, Note_on_c, 12, 54, 0
18, 67491, Note_on_c, 12, 57, 0
18, 67500, Note_on_c, 12, 57, 44
18, 67500, Note_on_c, 12, 54, 44
18, 67551, Note_on_c, 12, 57, 0
18, 67551, Note_on_c, 12, 54, 0
18, 67560, Note_on_c, 12, 54, 44
18, 67560, Note_on_c, 12, 57, 44
18, 67611, Note_on_c, 12, 54, 0
18, 67611, Note_on_c, 12, 57, 0
18, 67620, Note_on_c, 12, 54, 44
18, 67620, Note_on_c, 12, 57, 44
18, 67671, Note_on_c, 12, 54, 0
18, 67671, Note_on_c, 12, 57, 0
18, 67680, Note_on_c, 12, 54, 44
18, 67680, Note_on_c, 12, 57, 44
18, 67731, Note_on_c, 12, 54, 0
18, 67731, Note_on_c, 12, 57, 0
18, 67740, Note_on_c, 12, 54, 44
18, 67740, Note_on_c, 12, 57, 44
18, 67791, Note_on_c, 12, 54, 0
18, 67791, Note_on_c, 12, 57, 0
18, 67800, Note_on_c, 12, 54, 44
18, 67800, Note_on_c, 12, 57, 44
18, 67851, Note_on_c, 12, 54, 0
18, 67851, Note_on_c, 12, 57, 0
18, 67860, Note_on_c, 12, 54, 44
18, 67860, Note_on_c, 12, 57, 44
18, 67911, Note_on_c, 12, 54, 0
18, 67911, Note_on_c, 12, 57, 0
18, 67920, Note_on_c, 12, 57, 44
18, 67920, Note_on_c, 12, 54, 44
18, 67971, Note_on_c, 12, 57, 0
18, 67971, Note_on_c, 12, 54, 0
18, 67980, Note_on_c, 12, 54, 44
18, 67980, Note_on_c, 12, 57, 44
18, 68031, Note_on_c, 12, 54, 0
18, 68031, Note_on_c, 12, 57, 0
18, 68040, Note_on_c, 12, 54, 44
18, 68040, Note_on_c, 12, 57, 44
18, 68091, Note_on_c, 12, 54, 0
18, 68091, Note_on_c, 12, 57, 0
18, 68100, Note_on_c, 12, 57, 44
18, 68100, Note_on_c, 12, 54, 44
18, 68151, Note_on_c, 12, 57, 0
18, 68151, Note_on_c, 12, 54, 0
18, 68160, Note_on_c, 12, 57, 44
18, 68160, Note_on_c, 12, 53, 44
18, 68211, Note_on_c, 12, 57, 0
18, 68211, Note_on_c, 12, 53, 0
18, 68220, Note_on_c, 12, 53, 44
18, 68220, Note_on_c, 12, 57, 44
18, 68271, Note_on_c, 12, 53, 0
18, 68271, Note_on_c, 12, 57, 0
18, 68280, Note_on_c, 12, 57, 44
18, 68280, Note_on_c, 12, 53, 44
18, 68331, Note_on_c, 12, 57, 0
18, 68331, Note_on_c, 12, 53, 0
18, 68340, Note_on_c, 12, 53, 45
18, 68340, Note_on_c, 12, 57, 45
18, 68391, Note_on_c, 12, 53, 0
18, 68391, Note_on_c, 12, 57, 0
18, 68400, Note_on_c, 12, 53, 45
18, 68400, Note_on_c, 12, 57, 45
18, 68451, Note_on_c, 12, 53, 0
18, 68451, Note_on_c, 12, 57, 0
18, 68460, Note_on_c, 12, 53, 46
18, 68460, Note_on_c, 12, 57, 46
18, 68511, Note_on_c, 12, 53, 0
18, 68511, Note_on_c, 12, 57, 0
18, 68520, Note_on_c, 12, 53, 46
18, 68520, Note_on_c, 12, 57, 46
18, 68571, Note_on_c, 12, 53, 0
18, 68571, Note_on_c, 12, 57, 0
18, 68580, Note_on_c, 12, 53, 46
18, 68580, Note_on_c, 12, 57, 46
18, 68631, Note_on_c, 12, 53, 0
18, 68631, Note_on_c, 12, 57, 0
18, 68640, Note_on_c, 12, 57, 47
18, 68640, Note_on_c, 12, 53, 47
18, 68691, Note_on_c, 12, 57, 0
18, 68691, Note_on_c, 12, 53, 0
18, 68700, Note_on_c, 12, 53, 47
18, 68700, Note_on_c, 12, 57, 47
18, 68751, Note_on_c, 12, 53, 0
18, 68751, Note_on_c, 12, 57, 0
18, 68760, Note_on_c, 12, 53, 48
18, 68760, Note_on_c, 12, 57, 48
18, 68811, Note_on_c, 12, 53, 0
18, 68811, Note_on_c, 12, 57, 0
18, 68820, Note_on_c, 12, 57, 48
18, 68820, Note_on_c, 12, 53, 48
18, 68871, Note_on_c, 12, 57, 0
18, 68871, Note_on_c, 12, 53, 0
18, 68880, Note_on_c, 12, 53, 49
18, 68880, Note_on_c, 12, 57, 49
18, 68931, Note_on_c, 12, 53, 0
18, 68931, Note_on_c, 12, 57, 0
18, 68940, Note_on_c, 12, 57, 49
18, 68940, Note_on_c, 12, 53, 49
18, 68991, Note_on_c, 12, 57, 0
18, 68991, Note_on_c, 12, 53, 0
18, 69000, Note_on_c, 12, 53, 49
18, 69000, Note_on_c, 12, 57, 49
18, 69051, Note_on_c, 12, 53, 0
18, 69051, Note_on_c, 12, 57, 0
18, 69060, Note_on_c, 12, 57, 50
18, 69060, Note_on_c, 12, 53, 50
18, 69111, Note_on_c, 12, 57, 0
18, 69111, Note_on_c, 12, 53, 0
18, 69120, Note_on_c, 12, 53, 50
18, 69120, Note_on_c, 12, 57, 50
18, 69171, Note_on_c, 12, 53, 0
18, 69171, Note_on_c, 12, 57, 0
18, 69180, Note_on_c, 12, 53, 51
18, 69180, Note_on_c, 12, 57, 51
18, 69231, Note_on_c, 12, 53, 0
18, 69231, Note_on_c, 12, 57, 0
18, 69240, Note_on_c, 12, 57, 51
18, 69240, Note_on_c, 12, 53, 51
18, 69291, Note_on_c, 12, 57, 0
18, 69291, Note_on_c, 12, 53, 0
18, 69300, Note_on_c, 12, 53, 51
18, 69300, Note_on_c, 12, 57, 51
18, 69351, Note_on_c, 12, 53, 0
18, 69351, Note_on_c, 12, 57, 0
18, 69360, Note_on_c, 12, 57, 52
18, 69360, Note_on_c, 12, 53, 52
18, 69411, Note_on_c, 12, 57, 0
18, 69411, Note_on_c, 12, 53, 0
18, 69420, Note_on_c, 12, 53, 52
18, 69420, Note_on_c, 12, 57, 52
18, 69471, Note_on_c, 12, 53, 0
18, 69471, Note_on_c, 12, 57, 0
18, 69480, Note_on_c, 12, 53, 53
18, 69480, Note_on_c, 12, 57, 53
18, 69531, Note_on_c, 12, 53, 0
18, 69531, Note_on_c, 12, 57, 0
18, 69540, Note_on_c, 12, 53, 53
18, 69540, Note_on_c, 12, 57, 53
18, 69591, Note_on_c, 12, 53, 0
18, 69591, Note_on_c, 12, 57, 0
18, 69600, Note_on_c, 12, 53, 54
18, 69600, Note_on_c, 12, 57, 54
18, 69651, Note_on_c, 12, 53, 0
18, 69651, Note_on_c, 12, 57, 0
18, 69660, Note_on_c, 12, 53, 54
18, 69660, Note_on_c, 12, 57, 54
18, 69711, Note_on_c, 12, 53, 0
18, 69711, Note_on_c, 12, 57, 0
18, 69720, Note_on_c, 12, 57, 54
18, 69720, Note_on_c, 12, 53, 54
18, 69771, Note_on_c, 12, 57, 0
18, 69771, Note_on_c, 12, 53, 0
18, 69780, Note_on_c, 12, 53, 55
18, 69780, Note_on_c, 12, 57, 55
18, 69831, Note_on_c, 12, 53, 0
18, 69831, Note_on_c, 12, 57, 0
18, 69840, Note_on_c, 12, 57, 55
18, 69840, Note_on_c, 12, 53, 55
18, 69891, Note_on_c, 12, 57, 0
18, 69891, Note_on_c, 12, 53, 0
18, 69900, Note_on_c, 12, 57, 56
18, 69900, Note_on_c, 12, 53, 56
18, 69951, Note_on_c, 12, 57, 0
18, 69951, Note_on_c, 12, 53, 0
18, 69960, Note_on_c, 12, 53, 56
18, 69960, Note_on_c, 12, 57, 56
18, 70011, Note_on_c, 12, 53, 0
18, 70011, Note_on_c, 12, 57, 0
18, 70020, Note_on_c, 12, 57, 56
18, 70020, Note_on_c, 12, 53, 56
18, 70071, Note_on_c, 12, 57, 0
18, 70071, Note_on_c, 12, 53, 0
18, 70080, Note_on_c, 12, 58, 57
18, 70080, Note_on_c, 12, 53, 57
18, 70131, Note_on_c, 12, 58, 0
18, 70131, Note_on_c, 12, 53, 0
18, 70140, Note_on_c, 12, 53, 57
18, 70140, Note_on_c, 12, 58, 57
18, 70191, Note_on_c, 12, 53, 0
18, 70191, Note_on_c, 12, 58, 0
18, 70200, Note_on_c, 12, 58, 58
18, 70200, Note_on_c, 12, 53, 58
18, 70251, Note_on_c, 12, 58, 0
18, 70251, Note_on_c, 12, 53, 0
18, 70260, Note_on_c, 12, 58, 58
18, 70260, Note_on_c, 12, 53, 58
18, 70311, Note_on_c, 12, 58, 0
18, 70311, Note_on_c, 12, 53, 0
18, 70320, Note_on_c, 12, 53, 59
18, 70320, Note_on_c, 12, 58, 59
18, 70371, Note_on_c, 12, 53, 0
18, 70371, Note_on_c, 12, 58, 0
18, 70380, Note_on_c, 12, 53, 59
18, 70380, Note_on_c, 12, 58, 59
18, 70431, Note_on_c, 12, 53, 0
18, 70431, Note_on_c, 12, 58, 0
18, 70440, Note_on_c, 12, 53, 59
18, 70440, Note_on_c, 12, 58, 59
18, 70491, Note_on_c, 12, 53, 0
18, 70491, Note_on_c, 12, 58, 0
18, 70500, Note_on_c, 12, 58, 60
18, 70500, Note_on_c, 12, 53, 60
18, 70551, Note_on_c, 12, 58, 0
18, 70551, Note_on_c, 12, 53, 0
18, 70560, Note_on_c, 12, 58, 60
18, 70560, Note_on_c, 12, 53, 60
18, 70611, Note_on_c, 12, 58, 0
18, 70611, Note_on_c, 12, 53, 0
18, 70620, Note_on_c, 12, 53, 61
18, 70620, Note_on_c, 12, 58, 61
18, 70671, Note_on_c, 12, 53, 0
18, 70671, Note_on_c, 12, 58, 0
18, 70680, Note_on_c, 12, 58, 61
18, 70680, Note_on_c, 12, 53, 61
18, 70731, Note_on_c, 12, 58, 0
18, 70731, Note_on_c, 12, 53, 0
18, 70740, Note_on_c, 12, 58, 61
18, 70740, Note_on_c, 12, 53, 61
18, 70791, Note_on_c, 12, 58, 0
18, 70791, Note_on_c, 12, 53, 0
18, 70800, Note_on_c, 12, 53, 62
18, 70800, Note_on_c, 12, 58, 62
18, 70851, Note_on_c, 12, 53, 0
18, 70851, Note_on_c, 12, 58, 0
18, 70860, Note_on_c, 12, 58, 62
18, 70860, Note_on_c, 12, 53, 62
18, 70911, Note_on_c, 12, 58, 0
18, 70911, Note_on_c, 12, 53, 0
18, 70920, Note_on_c, 12, 58, 63
18, 70920, Note_on_c, 12, 53, 63
18, 70971, Note_on_c, 12, 58, 0
18, 70971, Note_on_c, 12, 53, 0
18, 70980, Note_on_c, 12, 58, 63
18, 70980, Note_on_c, 12, 53, 63
18, 71031, Note_on_c, 12, 58, 0
18, 71031, Note_on_c, 12, 53, 0
18, 71040, Note_on_c, 12, 53, 64
18, 71040, Note_on_c, 12, 58, 64
18, 71091, Note_on_c, 12, 53, 0
18, 71091, Note_on_c, 12, 58, 0
18, 71100, Note_on_c, 12, 58, 64
18, 71100, Note_on_c, 12, 53, 64
18, 71151, Note_on_c, 12, 58, 0
18, 71151, Note_on_c, 12, 53, 0
18, 71160, Note_on_c, 12, 58, 64
18, 71160, Note_on_c, 12, 53, 64
18, 71211, Note_on_c, 12, 58, 0
18, 71211, Note_on_c, 12, 53, 0
18, 71220, Note_on_c, 12, 53, 65
18, 71220, Note_on_c, 12, 58, 65
18, 71271, Note_on_c, 12, 53, 0
18, 71271, Note_on_c, 12, 58, 0
18, 71280, Note_on_c, 12, 58, 65
18, 71280, Note_on_c, 12, 53, 65
18, 71331, Note_on_c, 12, 58, 0
18, 71331, Note_on_c, 12, 53, 0
18, 71340, Note_on_c, 12, 53, 66
18, 71340, Note_on_c, 12, 58, 66
18, 71391, Note_on_c, 12, 53, 0
18, 71391, Note_on_c, 12, 58, 0
18, 71400, Note_on_c, 12, 58, 66
18, 71400, Note_on_c, 12, 53, 66
18, 71451, Note_on_c, 12, 58, 0
18, 71451, Note_on_c, 12, 53, 0
18, 71460, Note_on_c, 12, 58, 66
18, 71460, Note_on_c, 12, 53, 66
18, 71511, Note_on_c, 12, 58, 0
18, 71511, Note_on_c, 12, 53, 0
18, 71520, Note_on_c, 12, 58, 67
18, 71520, Note_on_c, 12, 53, 67
18, 71571, Note_on_c, 12, 58, 0
18, 71571, Note_on_c, 12, 53, 0
18, 71580, Note_on_c, 12, 58, 67
18, 71580, Note_on_c, 12, 53, 67
18, 71631, Note_on_c, 12, 58, 0
18, 71631, Note_on_c, 12, 53, 0
18, 71640, Note_on_c, 12, 58, 68
18, 71640, Note_on_c, 12, 53, 68
18, 71691, Note_on_c, 12, 58, 0
18, 71691, Note_on_c, 12, 53, 0
18, 71700, Note_on_c, 12, 58, 68
18, 71700, Note_on_c, 12, 53, 68
18, 71751, Note_on_c, 12, 58, 0
18, 71751, Note_on_c, 12, 53, 0
18, 71760, Note_on_c, 12, 53, 69
18, 71760, Note_on_c, 12, 58, 69
18, 71811, Note_on_c, 12, 53, 0
18, 71811, Note_on_c, 12, 58, 0
18, 71820, Note_on_c, 12, 53, 69
18, 71820, Note_on_c, 12, 58, 69
18, 71871, Note_on_c, 12, 53, 0
18, 71871, Note_on_c, 12, 58, 0
18, 71880, Note_on_c, 12, 58, 69
18, 71880, Note_on_c, 12, 53, 69
18, 71931, Note_on_c, 12, 58, 0
18, 71931, Note_on_c, 12, 53, 0
18, 71940, Note_on_c, 12, 58, 70
18, 71940, Note_on_c, 12, 53, 70
18, 71991, Note_on_c, 12, 58, 0
18, 71991, Note_on_c, 12, 53, 0
18, 72000, Note_on_c, 12, 62, 70
18, 72000, Note_on_c, 12, 59, 70
18, 72051, Note_on_c, 12, 62, 0
18, 72051, Note_on_c, 12, 59, 0
18, 72060, Note_on_c, 12, 59, 71
18, 72060, Note_on_c, 12, 62, 71
18, 72111, Note_on_c, 12, 59, 0
18, 72111, Note_on_c, 12, 62, 0
18, 72120, Note_on_c, 12, 62, 71
18, 72120, Note_on_c, 12, 59, 71
18, 72171, Note_on_c, 12, 62, 0
18, 72171, Note_on_c, 12, 59, 0
18, 72180, Note_on_c, 12, 62, 71
18, 72180, Note_on_c, 12, 59, 71
18, 72231, Note_on_c, 12, 62, 0
18, 72231, Note_on_c, 12, 59, 0
18, 72240, Note_on_c, 12, 59, 72
18, 72240, Note_on_c, 12, 62, 72
18, 72291, Note_on_c, 12, 59, 0
18, 72291, Note_on_c, 12, 62, 0
18, 72300, Note_on_c, 12, 62, 72
18, 72300, Note_on_c, 12, 59, 72
18, 72351, Note_on_c, 12, 62, 0
18, 72351, Note_on_c, 12, 59, 0
18, 72360, Note_on_c, 12, 62, 73
18, 72360, Note_on_c, 12, 59, 73
18, 72411, Note_on_c, 12, 62, 0
18, 72411, Note_on_c, 12, 59, 0
18, 72420, Note_on_c, 12, 62, 73
18, 72420, Note_on_c, 12, 59, 73
18, 72471, Note_on_c, 12, 62, 0
18, 72471, Note_on_c, 12, 59, 0
18, 72480, Note_on_c, 12, 62, 74
18, 72480, Note_on_c, 12, 59, 74
18, 72531, Note_on_c, 12, 62, 0
18, 72531, Note_on_c, 12, 59, 0
18, 72540, Note_on_c, 12, 59, 74
18, 72540, Note_on_c, 12, 62, 74
18, 72591, Note_on_c, 12, 59, 0
18, 72591, Note_on_c, 12, 62, 0
18, 72600, Note_on_c, 12, 62, 74
18, 72600, Note_on_c, 12, 59, 74
18, 72651, Note_on_c, 12, 62, 0
18, 72651, Note_on_c, 12, 59, 0
18, 72660, Note_on_c, 12, 59, 75
18, 72660, Note_on_c, 12, 62, 75
18, 72711, Note_on_c, 12, 59, 0
18, 72711, Note_on_c, 12, 62, 0
18, 72720, Note_on_c, 12, 62, 75
18, 72720, Note_on_c, 12, 59, 75
18, 72771, Note_on_c, 12, 62, 0
18, 72771, Note_on_c, 12, 59, 0
18, 72780, Note_on_c, 12, 62, 76
18, 72780, Note_on_c, 12, 59, 76
18, 72831, Note_on_c, 12, 62, 0
18, 72831, Note_on_c, 12, 59, 0
18, 72840, Note_on_c, 12, 59, 76
18, 72840, Note_on_c, 12, 62, 76
18, 72891, Note_on_c, 12, 59, 0
18, 72891, Note_on_c, 12, 62, 0
18, 72900, Note_on_c, 12, 62, 76
18, 72900, Note_on_c, 12, 59, 76
18, 72951, Note_on_c, 12, 62, 0
18, 72951, Note_on_c, 12, 59, 0
18, 72960, Note_on_c, 12, 62, 77
18, 72960, Note_on_c, 12, 59, 77
18, 73011, Note_on_c, 12, 62, 0
18, 73011, Note_on_c, 12, 59, 0
18, 73020, Note_on_c, 12, 59, 77
18, 73020, Note_on_c, 12, 62, 77
18, 73071, Note_on_c, 12, 59, 0
18, 73071, Note_on_c, 12, 62, 0
18, 73080, Note_on_c, 12, 62, 78
18, 73080, Note_on_c, 12, 59, 78
18, 73131, Note_on_c, 12, 62, 0
18, 73131, Note_on_c, 12, 59, 0
18, 73140, Note_on_c, 12, 59, 78
18, 73140, Note_on_c, 12, 62, 78
18, 73191, Note_on_c, 12, 59, 0
18, 73191, Note_on_c, 12, 62, 0
18, 73200, Note_on_c, 12, 59, 79
18, 73200, Note_on_c, 12, 62, 79
18, 73251, Note_on_c, 12, 59, 0
18, 73251, Note_on_c, 12, 62, 0
18, 73260, Note_on_c, 12, 59, 79
18, 73260, Note_on_c, 12, 62, 79
18, 73311, Note_on_c, 12, 59, 0
18, 73311, Note_on_c, 12, 62, 0
18, 73320, Note_on_c, 12, 62, 79
18, 73320, Note_on_c, 12, 59, 79
18, 73371, Note_on_c, 12, 62, 0
18, 73371, Note_on_c, 12, 59, 0
18, 73380, Note_on_c, 12, 62, 80
18, 73380, Note_on_c, 12, 59, 80
18, 73431, Note_on_c, 12, 62, 0
18, 73431, Note_on_c, 12, 59, 0
18, 73440, Note_on_c, 12, 59, 80
18, 73440, Note_on_c, 12, 62, 80
18, 73491, Note_on_c, 12, 59, 0
18, 73491, Note_on_c, 12, 62, 0
18, 73500, Note_on_c, 12, 59, 81
18, 73500, Note_on_c, 12, 62, 81
18, 73551, Note_on_c, 12, 59, 0
18, 73551, Note_on_c, 12, 62, 0
18, 73560, Note_on_c, 12, 59, 81
18, 73560, Note_on_c, 12, 62, 81
18, 73611, Note_on_c, 12, 59, 0
18, 73611, Note_on_c, 12, 62, 0
18, 73620, Note_on_c, 12, 59, 81
18, 73620, Note_on_c, 12, 62, 81
18, 73671, Note_on_c, 12, 59, 0
18, 73671, Note_on_c, 12, 62, 0
18, 73680, Note_on_c, 12, 59, 82
18, 73680, Note_on_c, 12, 62, 82
18, 73731, Note_on_c, 12, 59, 0
18, 73731, Note_on_c, 12, 62, 0
18, 73740, Note_on_c, 12, 62, 82
18, 73740, Note_on_c, 12, 59, 82
18, 73791, Note_on_c, 12, 62, 0
18, 73791, Note_on_c, 12, 59, 0
18, 73800, Note_on_c, 12, 62, 83
18, 73800, Note_on_c, 12, 59, 83
18, 73851, Note_on_c, 12, 62, 0
18, 73851, Note_on_c, 12, 59, 0
18, 73860, Note_on_c, 12, 62, 83
18, 73860, Note_on_c, 12, 59, 83
18, 73911, Note_on_c, 12, 62, 0
18, 73911, Note_on_c, 12, 59, 0
18, 73920, Note_on_c, 12, 55, 84
18, 74024, Note_on_c, 12, 55, 0
18, 74040, Note_on_c, 12, 59, 84
18, 74091, Note_on_c, 12, 59, 0
18, 74100, Note_on_c, 12, 59, 84
18, 74151, Note_on_c, 12, 59, 0
18, 74160, Note_on_c, 12, 50, 84
18, 74211, Note_on_c, 12, 50, 0
18, 74220, Note_on_c, 12, 50, 84
18, 74271, Note_on_c, 12, 50, 0
18, 74280, Note_on_c, 12, 59, 84
18, 74331, Note_on_c, 12, 59, 0
18, 74340, Note_on_c, 12, 59, 84
18, 74391, Note_on_c, 12, 59, 0
18, 74400, Note_on_c, 12, 50, 84
18, 74451, Note_on_c, 12, 50, 0
18, 74460, Note_on_c, 12, 50, 84
18, 74511, Note_on_c, 12, 50, 0
18, 74520, Note_on_c, 12, 59, 84
18, 74571, Note_on_c, 12, 59, 0
18, 74580, Note_on_c, 12, 59, 84
18, 74631, Note_on_c, 12, 59, 0
18, 74640, Note_on_c, 12, 50, 92
18, 74691, Note_on_c, 12, 50, 0
18, 74700, Note_on_c, 12, 50, 84
18, 74751, Note_on_c, 12, 50, 0
18, 74760, Note_on_c, 12, 59, 84
18, 74811, Note_on_c, 12, 59, 0
18, 74820, Note_on_c, 12, 59, 84
18, 74871, Note_on_c, 12, 59, 0
18, 74880, Note_on_c, 12, 51, 84
18, 74931, Note_on_c, 12, 51, 0
18, 74940, Note_on_c, 12, 51, 84
18, 74991, Note_on_c, 12, 51, 0
18, 75000, Note_on_c, 12, 60, 84
18, 75051, Note_on_c, 12, 60, 0
18, 75060, Note_on_c, 12, 60, 84
18, 75111, Note_on_c, 12, 60, 0
18, 75120, Note_on_c, 12, 51, 84
18, 75171, Note_on_c, 12, 51, 0
18, 75180, Note_on_c, 12, 51, 84
18, 75231, Note_on_c, 12, 51, 0
18, 75240, Note_on_c, 12, 60, 84
18, 75291, Note_on_c, 12, 60, 0
18, 75300, Note_on_c, 12, 60, 84
18, 75351, Note_on_c, 12, 60, 0
18, 75360, Note_on_c, 12, 51, 84
18, 75411, Note_on_c, 12, 51, 0
18, 75420, Note_on_c, 12, 51, 84
18, 75471, Note_on_c, 12, 51, 0
18, 75480, Note_on_c, 12, 60, 84
18, 75531, Note_on_c, 12, 60, 0
18, 75540, Note_on_c, 12, 60, 84
18, 75591, Note_on_c, 12, 60, 0
18, 75600, Note_on_c, 12, 53, 92
18, 75651, Note_on_c, 12, 53, 0
18, 75660, Note_on_c, 12, 53, 84
18, 75711, Note_on_c, 12, 53, 0
18, 75720, Note_on_c, 12, 59, 84
18, 75771, Note_on_c, 12, 59, 0
18, 75780, Note_on_c, 12, 59, 84
18, 75831, Note_on_c, 12, 59, 0
18, 75840, Note_on_c, 12, 51, 84
18, 75891, Note_on_c, 12, 51, 0
18, 75900, Note_on_c, 12, 51, 84
18, 75951, Note_on_c, 12, 51, 0
18, 75960, Note_on_c, 12, 60, 84
18, 76011, Note_on_c, 12, 60, 0
18, 76020, Note_on_c, 12, 60, 84
18, 76071, Note_on_c, 12, 60, 0
18, 76080, Note_on_c, 12, 51, 84
18, 76131, Note_on_c, 12, 51, 0
18, 76140, Note_on_c, 12, 51, 84
18, 76191, Note_on_c, 12, 51, 0
18, 76200, Note_on_c, 12, 60, 84
18, 76251, Note_on_c, 12, 60, 0
18, 76260, Note_on_c, 12, 60, 84
18, 76311, Note_on_c, 12, 60, 0
18, 76320, Note_on_c, 12, 51, 84
18, 76371, Note_on_c, 12, 51, 0
18, 76380, Note_on_c, 12, 51, 84
18, 76431, Note_on_c, 12, 51, 0
18, 76440, Note_on_c, 12, 60, 84
18, 76491, Note_on_c, 12, 60, 0
18, 76500, Note_on_c, 12, 60, 84
18, 76551, Note_on_c, 12, 60, 0
18, 76560, Note_on_c, 12, 51, 92
18, 76611, Note_on_c, 12, 51, 0
18, 76620, Note_on_c, 12, 51, 84
18, 76671, Note_on_c, 12, 51, 0
18, 76680, Note_on_c, 12, 61, 84
18, 76731, Note_on_c, 12, 61, 0
18, 76740, Note_on_c, 12, 61, 84
18, 76791, Note_on_c, 12, 61, 0
18, 76800, Note_on_c, 12, 51, 84
18, 76851, Note_on_c, 12, 51, 0
18, 76860, Note_on_c, 12, 51, 84
18, 76911, Note_on_c, 12, 51, 0
18, 76920, Note_on_c, 12, 60, 84
18, 76971, Note_on_c, 12, 60, 0
18, 76980, Note_on_c, 12, 60, 84
18, 77031, Note_on_c, 12, 60, 0
18, 77040, Note_on_c, 12, 51, 84
18, 77091, Note_on_c, 12, 51, 0
18, 77100, Note_on_c, 12, 51, 84
18, 77151, Note_on_c, 12, 51, 0
18, 77160, Note_on_c, 12, 60, 84
18, 77211, Note_on_c, 12, 60, 0
18, 77220, Note_on_c, 12, 60, 84
18, 77271, Note_on_c, 12, 60, 0
18, 77280, Note_on_c, 12, 51, 84
18, 77331, Note_on_c, 12, 51, 0
18, 77340, Note_on_c, 12, 51, 84
18, 77391, Note_on_c, 12, 51, 0
18, 77400, Note_on_c, 12, 60, 84
18, 77451, Note_on_c, 12, 60, 0
18, 77460, Note_on_c, 12, 60, 84
18, 77511, Note_on_c, 12, 60, 0
18, 77520, Note_on_c, 12, 51, 92
18, 77571, Note_on_c, 12, 51, 0
18, 77580, Note_on_c, 12, 51, 84
18, 77631, Note_on_c, 12, 51, 0
18, 77640, Note_on_c, 12, 60, 84
18, 77691, Note_on_c, 12, 60, 0
18, 77700, Note_on_c, 12, 60, 84
18, 77751, Note_on_c, 12, 60, 0
18, 77760, Note_on_c, 12, 48, 84
18, 77811, Note_on_c, 12, 48, 0
18, 77820, Note_on_c, 12, 48, 84
18, 77871, Note_on_c, 12, 48, 0
18, 77880, Note_on_c, 12, 60, 84
18, 77931, Note_on_c, 12, 60, 0
18, 77940, Note_on_c, 12, 60, 84
18, 77991, Note_on_c, 12, 60, 0
18, 78000, Note_on_c, 12, 48, 84
18, 78051, Note_on_c, 12, 48, 0
18, 78060, Note_on_c, 12, 48, 84
18, 78111, Note_on_c, 12, 48, 0
18, 78120, Note_on_c, 12, 60, 84
18, 78171, Note_on_c, 12, 60, 0
18, 78180, Note_on_c, 12, 60, 84
18, 78231, Note_on_c, 12, 60, 0
18, 78240, Note_on_c, 12, 48, 84
18, 78291, Note_on_c, 12, 48, 0
18, 78300, Note_on_c, 12, 48, 84
18, 78351, Note_on_c, 12, 48, 0
18, 78360, Note_on_c, 12, 60, 84
18, 78411, Note_on_c, 12, 60, 0
18, 78420, Note_on_c, 12, 60, 84
18, 78471, Note_on_c, 12, 60, 0
18, 78480, Note_on_c, 12, 51, 92
18, 78531, Note_on_c, 12, 51, 0
18, 78540, Note_on_c, 12, 51, 84
18, 78591, Note_on_c, 12, 51, 0
18, 78600, Note_on_c, 12, 60, 84
18, 78651, Note_on_c, 12, 60, 0
18, 78660, Note_on_c, 12, 60, 84
18, 78711, Note_on_c, 12, 60, 0
18, 78720, Note_on_c, 12, 53, 84
18, 78771, Note_on_c, 12, 53, 0
18, 78780, Note_on_c, 12, 53, 84
18, 78831, Note_on_c, 12, 53, 0
18, 78840, Note_on_c, 12, 61, 84
18, 78891, Note_on_c, 12, 61, 0
18, 78900, Note_on_c, 12, 61, 84
18, 78951, Note_on_c, 12, 61, 0
18, 78960, Note_on_c, 12, 53, 84
18, 79011, Note_on_c, 12, 53, 0
18, 79020, Note_on_c, 12, 53, 84
18, 79071, Note_on_c, 12, 53, 0
18, 79080, Note_on_c, 12, 61, 84
18, 79131, Note_on_c, 12, 61, 0
18, 79140, Note_on_c, 12, 61, 84
18, 79191, Note_on_c, 12, 61, 0
18, 79200, Note_on_c, 12, 53, 84
18, 79251, Note_on_c, 12, 53, 0
18, 79260, Note_on_c, 12, 53, 84
18, 79311, Note_on_c, 12, 53, 0
18, 79320, Note_on_c, 12, 61, 84
18, 79371, Note_on_c, 12, 61, 0
18, 79380, Note_on_c, 12, 61, 84
18, 79431, Note_on_c, 12, 61, 0
18, 79440, Note_on_c, 12, 54, 92
18, 79491, Note_on_c, 12, 54, 0
18, 79500, Note_on_c, 12, 54, 84
18, 79551, Note_on_c, 12, 54, 0
18, 79560, Note_on_c, 12, 60, 84
18, 79611, Note_on_c, 12, 60, 0
18, 79620, Note_on_c, 12, 60, 84
18, 79671, Note_on_c, 12, 60, 0
18, 79680, Note_on_c, 12, 53, 84
18, 79731, Note_on_c, 12, 53, 0
18, 79740, Note_on_c, 12, 53, 84
18, 79791, Note_on_c, 12, 53, 0
18, 79800, Note_on_c, 12, 61, 84
18, 79851, Note_on_c, 12, 61, 0
18, 79860, Note_on_c, 12, 61, 84
18, 79911, Note_on_c, 12, 61, 0
18, 79920, Note_on_c, 12, 53, 84
18, 79971, Note_on_c, 12, 53, 0
18, 79980, Note_on_c, 12, 53, 84
18, 80031, Note_on_c, 12, 53, 0
18, 80040, Note_on_c, 12, 61, 84
18, 80091, Note_on_c, 12, 61, 0
18, 80100, Note_on_c, 12, 61, 84
18, 80151, Note_on_c, 12, 61, 0
18, 80160, Note_on_c, 12, 53, 84
18, 80211, Note_on_c, 12, 53, 0
18, 80220, Note_on_c, 12, 53, 84
18, 80271, Note_on_c, 12, 53, 0
18, 80280, Note_on_c, 12, 61, 84
18, 80331, Note_on_c, 12, 61, 0
18, 80340, Note_on_c, 12, 61, 84
18, 80391, Note_on_c, 12, 61, 0
18, 80400, Note_on_c, 12, 51, 92
18, 80451, Note_on_c, 12, 51, 0
18, 80460, Note_on_c, 12, 51, 84
18, 80511, Note_on_c, 12, 51, 0
18, 80520, Note_on_c, 12, 59, 84
18, 80571, Note_on_c, 12, 59, 0
18, 80580, Note_on_c, 12, 59, 84
18, 80631, Note_on_c, 12, 59, 0
18, 80640, Note_on_c, 12, 50, 84
18, 80691, Note_on_c, 12, 50, 0
18, 80700, Note_on_c, 12, 50, 84
18, 80751, Note_on_c, 12, 50, 0
18, 80760, Note_on_c, 12, 58, 84
18, 80811, Note_on_c, 12, 58, 0
18, 80820, Note_on_c, 12, 58, 84
18, 80871, Note_on_c, 12, 58, 0
18, 80880, Note_on_c, 12, 50, 84
18, 80931, Note_on_c, 12, 50, 0
18, 80940, Note_on_c, 12, 50, 84
18, 80991, Note_on_c, 12, 50, 0
18, 81000, Note_on_c, 12, 58, 84
18, 81051, Note_on_c, 12, 58, 0
18, 81060, Note_on_c, 12, 58, 84
18, 81111, Note_on_c, 12, 58, 0
18, 81120, Note_on_c, 12, 50, 84
18, 81171, Note_on_c, 12, 50, 0
18, 81180, Note_on_c, 12, 50, 84
18, 81231, Note_on_c, 12, 50, 0
18, 81240, Note_on_c, 12, 58, 84
18, 81291, Note_on_c, 12, 58, 0
18, 81300, Note_on_c, 12, 58, 84
18, 81351, Note_on_c, 12, 58, 0
18, 81360, Note_on_c, 12, 50, 92
18, 81411, Note_on_c, 12, 50, 0
18, 81420, Note_on_c, 12, 50, 84
18, 81471, Note_on_c, 12, 50, 0
18, 81480, Note_on_c, 12, 58, 84
18, 81531, Note_on_c, 12, 58, 0
18, 81540, Note_on_c, 12, 58, 84
18, 81591, Note_on_c, 12, 58, 0
18, 81600, Note_on_c, 12, 50, 84
18, 81651, Note_on_c, 12, 50, 0
18, 81660, Note_on_c, 12, 50, 84
18, 81711, Note_on_c, 12, 50, 0
18, 81720, Note_on_c, 12, 58, 84
18, 81771, Note_on_c, 12, 58, 0
18, 81780, Note_on_c, 12, 58, 84
18, 81831, Note_on_c, 12, 58, 0
18, 81840, Note_on_c, 12, 50, 84
18, 81891, Note_on_c, 12, 50, 0
18, 81900, Note_on_c, 12, 50, 84
18, 81951, Note_on_c, 12, 50, 0
18, 81960, Note_on_c, 12, 58, 84
18, 82011, Note_on_c, 12, 58, 0
18, 82020, Note_on_c, 12, 58, 84
18, 82071, Note_on_c, 12, 58, 0
18, 82080, Note_on_c, 12, 50, 84
18, 82131, Note_on_c, 12, 50, 0
18, 82140, Note_on_c, 12, 50, 84
18, 82191, Note_on_c, 12, 50, 0
18, 82200, Note_on_c, 12, 58, 84
18, 82251, Note_on_c, 12, 58, 0
18, 82260, Note_on_c, 12, 58, 84
18, 82311, Note_on_c, 12, 58, 0
18, 82320, Note_on_c, 12, 50, 92
18, 82371, Note_on_c, 12, 50, 0
18, 82380, Note_on_c, 12, 50, 84
18, 82431, Note_on_c, 12, 50, 0
18, 82440, Note_on_c, 12, 58, 84
18, 82491, Note_on_c, 12, 58, 0
18, 82500, Note_on_c, 12, 58, 84
18, 82551, Note_on_c, 12, 58, 0
18, 82560, Note_on_c, 12, 54, 84
18, 82611, Note_on_c, 12, 54, 0
18, 82620, Note_on_c, 12, 54, 84
18, 82671, Note_on_c, 12, 54, 0
18, 82680, Note_on_c, 12, 63, 84
18, 82731, Note_on_c, 12, 63, 0
18, 82740, Note_on_c, 12, 63, 84
18, 82791, Note_on_c, 12, 63, 0
18, 82800, Note_on_c, 12, 54, 84
18, 82851, Note_on_c, 12, 54, 0
18, 82860, Note_on_c, 12, 54, 84
18, 82911, Note_on_c, 12, 54, 0
18, 82920, Note_on_c, 12, 63, 84
18, 82971, Note_on_c, 12, 63, 0
18, 82980, Note_on_c, 12, 63, 84
18, 83031, Note_on_c, 12, 63, 0
18, 83040, Note_on_c, 12, 54, 84
18, 83091, Note_on_c, 12, 54, 0
18, 83100, Note_on_c, 12, 54, 84
18, 83151, Note_on_c, 12, 54, 0
18, 83160, Note_on_c, 12, 63, 84
18, 83211, Note_on_c, 12, 63, 0
18, 83220, Note_on_c, 12, 63, 84
18, 83271, Note_on_c, 12, 63, 0
18, 83280, Note_on_c, 12, 56, 92
18, 83331, Note_on_c, 12, 56, 0
18, 83340, Note_on_c, 12, 56, 84
18, 83391, Note_on_c, 12, 56, 0
18, 83400, Note_on_c, 12, 65, 84
18, 83451, Note_on_c, 12, 65, 0
18, 83460, Note_on_c, 12, 65, 84
18, 83511, Note_on_c, 12, 65, 0
18, 83520, Note_on_c, 12, 54, 84
18, 83571, Note_on_c, 12, 54, 0
18, 83580, Note_on_c, 12, 54, 84
18, 83631, Note_on_c, 12, 54, 0
18, 83640, Note_on_c, 12, 63, 84
18, 83691, Note_on_c, 12, 63, 0
18, 83700, Note_on_c, 12, 63, 84
18, 83751, Note_on_c, 12, 63, 0
18, 83760, Note_on_c, 12, 54, 84
18, 83811, Note_on_c, 12, 54, 0
18, 83820, Note_on_c, 12, 54, 84
18, 83871, Note_on_c, 12, 54, 0
18, 83880, Note_on_c, 12, 63, 84
18, 83931, Note_on_c, 12, 63, 0
18, 83940, Note_on_c, 12, 63, 84
18, 83991, Note_on_c, 12, 63, 0
18, 84000, Note_on_c, 12, 54, 84
18, 84051, Note_on_c, 12, 54, 0
18, 84060, Note_on_c, 12, 54, 84
18, 84111, Note_on_c, 12, 54, 0
18, 84120, Note_on_c, 12, 63, 84
18, 84171, Note_on_c, 12, 63, 0
18, 84180, Note_on_c, 12, 63, 84
18, 84231, Note_on_c, 12, 63, 0
18, 84240, Note_on_c, 12, 51, 92
18, 84240, Note_on_c, 12, 54, 92
18, 84291, Note_on_c, 12, 51, 0
18, 84291, Note_on_c, 12, 54, 0
18, 84300, Note_on_c, 12, 51, 84
18, 84300, Note_on_c, 12, 54, 84
18, 84351, Note_on_c, 12, 51, 0
18, 84351, Note_on_c, 12, 54, 0
18, 84360, Note_on_c, 12, 51, 84
18, 84360, Note_on_c, 12, 54, 84
18, 84411, Note_on_c, 12, 51, 0
18, 84411, Note_on_c, 12, 54, 0
18, 84420, Note_on_c, 12, 54, 84
18, 84420, Note_on_c, 12, 51, 84
18, 84471, Note_on_c, 12, 54, 0
18, 84471, Note_on_c, 12, 51, 0
18, 84480, Note_on_c, 12, 49, 84
18, 84480, Note_on_c, 12, 53, 84
18, 84719, Note_on_c, 12, 49, 0
18, 84719, Note_on_c, 12, 53, 0
18, 84960, Note_on_c, 12, 61, 92
18, 85019, Note_on_c, 12, 61, 0
18, 85020, Note_on_c, 12, 61, 84
18, 85304, Note_on_c, 12, 61, 0
18, 85320, Note_on_c, 12, 56, 84
18, 85424, Note_on_c, 12, 56, 0
18, 85440, Note_on_c, 12, 58, 84
18, 85544, Note_on_c, 12, 58, 0
18, 85560, Note_on_c, 12, 53, 84
18, 85664, Note_on_c, 12, 53, 0
18, 85680, Note_on_c, 12, 54, 84
18, 85784, Note_on_c, 12, 54, 0
18, 85800, Note_on_c, 12, 53, 84
18, 85904, Note_on_c, 12, 53, 0
18, 85920, Note_on_c, 12, 51, 84
18, 86024, Note_on_c, 12, 51, 0
18, 86040, Note_on_c, 12, 49, 84
18, 86144, Note_on_c, 12, 49, 0
18, 86160, Note_on_c, 12, 49, 84
18, 86264, Note_on_c, 12, 49, 0
18, 86280, Note_on_c, 12, 48, 84
18, 86384, Note_on_c, 12, 48, 0
18, 86400, Note_on_c, 12, 58, 84
18, 86639, Note_on_c, 12, 58, 0
18, 86880, Note_on_c, 12, 70, 92
18, 86939, Note_on_c, 12, 70, 0
18, 86940, Note_on_c, 12, 70, 84
18, 87224, Note_on_c, 12, 70, 0
18, 87240, Note_on_c, 12, 65, 84
18, 87344, Note_on_c, 12, 65, 0
18, 87360, Note_on_c, 12, 66, 84
18, 87464, Note_on_c, 12, 66, 0
18, 87480, Note_on_c, 12, 61, 84
18, 87584, Note_on_c, 12, 61, 0
18, 87600, Note_on_c, 12, 63, 84
18, 87704, Note_on_c, 12, 63, 0
18, 87720, Note_on_c, 12, 61, 84
18, 87824, Note_on_c, 12, 61, 0
18, 87840, Note_on_c, 12, 59, 84
18, 87944, Note_on_c, 12, 59, 0
18, 87960, Note_on_c, 12, 58, 84
18, 88064, Note_on_c, 12, 58, 0
18, 88080, Note_on_c, 12, 58, 84
18, 88184, Note_on_c, 12, 58, 0
18, 88200, Note_on_c, 12, 56, 84
18, 88304, Note_on_c, 12, 56, 0
18, 88320, Note_on_c, 12, 54, 84
18, 88559, Note_on_c, 12, 54, 0
18, 88800, Note_on_c, 12, 66, 92
18, 88859, Note_on_c, 12, 66, 0
18, 88860, Note_on_c, 12, 66, 84
18, 89144, Note_on_c, 12, 66, 0
18, 89160, Note_on_c, 12, 61, 84
18, 89264, Note_on_c, 12, 61, 0
18, 89280, Note_on_c, 12, 63, 84
18, 89384, Note_on_c, 12, 63, 0
18, 89400, Note_on_c, 12, 58, 84
18, 89504, Note_on_c, 12, 58, 0
18, 89520, Note_on_c, 12, 59, 84
18, 89624, Note_on_c, 12, 59, 0
18, 89640, Note_on_c, 12, 58, 84
18, 89744, Note_on_c, 12, 58, 0
18, 89760, Note_on_c, 12, 56, 84
18, 89864, Note_on_c, 12, 56, 0
18, 89880, Note_on_c, 12, 54, 84
18, 89984, Note_on_c, 12, 54, 0
18, 90000, Note_on_c, 12, 54, 84
18, 90104, Note_on_c, 12, 54, 0
18, 90120, Note_on_c, 12, 64, 84
18, 90224, Note_on_c, 12, 64, 0
18, 90240, Note_on_c, 12, 61, 84
18, 90240, Note_on_c, 12, 58, 84
18, 90291, Note_on_c, 12, 61, 0
18, 90291, Note_on_c, 12, 58, 0
18, 90300, Note_on_c, 12, 61, 84
18, 90300, Note_on_c, 12, 58, 84
18, 90351, Note_on_c, 12, 61, 0
18, 90351, Note_on_c, 12, 58, 0
18, 90360, Note_on_c, 12, 58, 84
18, 90360, Note_on_c, 12, 61, 84
18, 90411, Note_on_c, 12, 58, 0
18, 90411, Note_on_c, 12, 61, 0
18, 90420, Note_on_c, 12, 58, 84
18, 90420, Note_on_c, 12, 61, 84
18, 90471, Note_on_c, 12, 58, 0
18, 90471, Note_on_c, 12, 61, 0
18, 90480, Note_on_c, 12, 61, 76
18, 90480, Note_on_c, 12, 58, 76
18, 90531, Note_on_c, 12, 61, 0
18, 90531, Note_on_c, 12, 58, 0
18, 90540, Note_on_c, 12, 61, 52
18, 90540, Note_on_c, 12, 58, 52
18, 90591, Note_on_c, 12, 61, 0
18, 90591, Note_on_c, 12, 58, 0
18, 90600, Note_on_c, 12, 58, 52
18, 90600, Note_on_c, 12, 61, 52
18, 90651, Note_on_c, 12, 58, 0
18, 90651, Note_on_c, 12, 61, 0
18, 90660, Note_on_c, 12, 61, 52
18, 90660, Note_on_c, 12, 58, 52
18, 90711, Note_on_c, 12, 61, 0
18, 90711, Note_on_c, 12, 58, 0
18, 90720, Note_on_c, 12, 61, 52
18, 90720, Note_on_c, 12, 58, 52
18, 90771, Note_on_c, 12, 61, 0
18, 90771, Note_on_c, 12, 58, 0
18, 90780, Note_on_c, 12, 58, 52
18, 90780, Note_on_c, 12, 61, 52
18, 90831, Note_on_c, 12, 58, 0
18, 90831, Note_on_c, 12, 61, 0
18, 90840, Note_on_c, 12, 61, 52
18, 90840, Note_on_c, 12, 58, 52
18, 90891, Note_on_c, 12, 61, 0
18, 90891, Note_on_c, 12, 58, 0
18, 90900, Note_on_c, 12, 61, 52
18, 90900, Note_on_c, 12, 58, 52
18, 90951, Note_on_c, 12, 61, 0
18, 90951, Note_on_c, 12, 58, 0
18, 90960, Note_on_c, 12, 58, 52
18, 90960, Note_on_c, 12, 61, 52
18, 91011, Note_on_c, 12, 58, 0
18, 91011, Note_on_c, 12, 61, 0
18, 91020, Note_on_c, 12, 58, 52
18, 91020, Note_on_c, 12, 61, 52
18, 91071, Note_on_c, 12, 58, 0
18, 91071, Note_on_c, 12, 61, 0
18, 91080, Note_on_c, 12, 58, 52
18, 91080, Note_on_c, 12, 61, 52
18, 91131, Note_on_c, 12, 58, 0
18, 91131, Note_on_c, 12, 61, 0
18, 91140, Note_on_c, 12, 58, 52
18, 91140, Note_on_c, 12, 61, 52
18, 91191, Note_on_c, 12, 58, 0
18, 91191, Note_on_c, 12, 61, 0
18, 91200, Note_on_c, 12, 58, 52
18, 91200, Note_on_c, 12, 61, 52
18, 91251, Note_on_c, 12, 58, 0
18, 91251, Note_on_c, 12, 61, 0
18, 91260, Note_on_c, 12, 61, 52
18, 91260, Note_on_c, 12, 58, 52
18, 91311, Note_on_c, 12, 61, 0
18, 91311, Note_on_c, 12, 58, 0
18, 91320, Note_on_c, 12, 58, 52
18, 91320, Note_on_c, 12, 61, 52
18, 91371, Note_on_c, 12, 58, 0
18, 91371, Note_on_c, 12, 61, 0
18, 91380, Note_on_c, 12, 61, 52
18, 91380, Note_on_c, 12, 58, 52
18, 91431, Note_on_c, 12, 61, 0
18, 91431, Note_on_c, 12, 58, 0
18, 91440, Note_on_c, 12, 58, 52
18, 91440, Note_on_c, 12, 61, 52
18, 91491, Note_on_c, 12, 58, 0
18, 91491, Note_on_c, 12, 61, 0
18, 91500, Note_on_c, 12, 58, 52
18, 91500, Note_on_c, 12, 61, 52
18, 91551, Note_on_c, 12, 58, 0
18, 91551, Note_on_c, 12, 61, 0
18, 91560, Note_on_c, 12, 61, 52
18, 91560, Note_on_c, 12, 58, 52
18, 91611, Note_on_c, 12, 61, 0
18, 91611, Note_on_c, 12, 58, 0
18, 91620, Note_on_c, 12, 58, 52
18, 91620, Note_on_c, 12, 61, 52
18, 91671, Note_on_c, 12, 58, 0
18, 91671, Note_on_c, 12, 61, 0
18, 91680, Note_on_c, 12, 61, 52
18, 91680, Note_on_c, 12, 58, 52
18, 91731, Note_on_c, 12, 61, 0
18, 91731, Note_on_c, 12, 58, 0
18, 91740, Note_on_c, 12, 61, 52
18, 91740, Note_on_c, 12, 58, 52
18, 91791, Note_on_c, 12, 61, 0
18, 91791, Note_on_c, 12, 58, 0
18, 91800, Note_on_c, 12, 61, 53
18, 91800, Note_on_c, 12, 58, 53
18, 91851, Note_on_c, 12, 61, 0
18, 91851, Note_on_c, 12, 58, 0
18, 91860, Note_on_c, 12, 61, 53
18, 91860, Note_on_c, 12, 58, 53
18, 91911, Note_on_c, 12, 61, 0
18, 91911, Note_on_c, 12, 58, 0
18, 91920, Note_on_c, 12, 58, 54
18, 91920, Note_on_c, 12, 61, 54
18, 91971, Note_on_c, 12, 58, 0
18, 91971, Note_on_c, 12, 61, 0
18, 91980, Note_on_c, 12, 58, 55
18, 91980, Note_on_c, 12, 61, 55
18, 92031, Note_on_c, 12, 58, 0
18, 92031, Note_on_c, 12, 61, 0
18, 92040, Note_on_c, 12, 61, 55
18, 92040, Note_on_c, 12, 58, 55
18, 92091, Note_on_c, 12, 61, 0
18, 92091, Note_on_c, 12, 58, 0
18, 92100, Note_on_c, 12, 61, 56
18, 92100, Note_on_c, 12, 58, 56
18, 92151, Note_on_c, 12, 61, 0
18, 92151, Note_on_c, 12, 58, 0
18, 92160, Note_on_c, 12, 61, 56
18, 92160, Note_on_c, 12, 58, 56
18, 92211, Note_on_c, 12, 61, 0
18, 92211, Note_on_c, 12, 58, 0
18, 92220, Note_on_c, 12, 58, 57
18, 92220, Note_on_c, 12, 61, 57
18, 92271, Note_on_c, 12, 58, 0
18, 92271, Note_on_c, 12, 61, 0
18, 92280, Note_on_c, 12, 58, 58
18, 92280, Note_on_c, 12, 61, 58
18, 92331, Note_on_c, 12, 58, 0
18, 92331, Note_on_c, 12, 61, 0
18, 92340, Note_on_c, 12, 61, 58
18, 92340, Note_on_c, 12, 58, 58
18, 92391, Note_on_c, 12, 61, 0
18, 92391, Note_on_c, 12, 58, 0
18, 92400, Note_on_c, 12, 61, 59
18, 92400, Note_on_c, 12, 58, 59
18, 92451, Note_on_c, 12, 61, 0
18, 92451, Note_on_c, 12, 58, 0
18, 92460, Note_on_c, 12, 58, 59
18, 92460, Note_on_c, 12, 61, 59
18, 92511, Note_on_c, 12, 58, 0
18, 92511, Note_on_c, 12, 61, 0
18, 92520, Note_on_c, 12, 58, 60
18, 92520, Note_on_c, 12, 61, 60
18, 92571, Note_on_c, 12, 58, 0
18, 92571, Note_on_c, 12, 61, 0
18, 92580, Note_on_c, 12, 58, 61
18, 92580, Note_on_c, 12, 61, 61
18, 92631, Note_on_c, 12, 58, 0
18, 92631, Note_on_c, 12, 61, 0
18, 92640, Note_on_c, 12, 58, 61
18, 92640, Note_on_c, 12, 61, 61
18, 92691, Note_on_c, 12, 58, 0
18, 92691, Note_on_c, 12, 61, 0
18, 92700, Note_on_c, 12, 58, 62
18, 92700, Note_on_c, 12, 61, 62
18, 92751, Note_on_c, 12, 58, 0
18, 92751, Note_on_c, 12, 61, 0
18, 92760, Note_on_c, 12, 58, 62
18, 92760, Note_on_c, 12, 61, 62
18, 92811, Note_on_c, 12, 58, 0
18, 92811, Note_on_c, 12, 61, 0
18, 92820, Note_on_c, 12, 58, 63
18, 92820, Note_on_c, 12, 61, 63
18, 92871, Note_on_c, 12, 58, 0
18, 92871, Note_on_c, 12, 61, 0
18, 92880, Note_on_c, 12, 58, 64
18, 92880, Note_on_c, 12, 61, 64
18, 92931, Note_on_c, 12, 58, 0
18, 92931, Note_on_c, 12, 61, 0
18, 92940, Note_on_c, 12, 61, 64
18, 92940, Note_on_c, 12, 58, 64
18, 92991, Note_on_c, 12, 61, 0
18, 92991, Note_on_c, 12, 58, 0
18, 93000, Note_on_c, 12, 61, 65
18, 93000, Note_on_c, 12, 58, 65
18, 93051, Note_on_c, 12, 61, 0
18, 93051, Note_on_c, 12, 58, 0
18, 93060, Note_on_c, 12, 61, 65
18, 93060, Note_on_c, 12, 58, 65
18, 93111, Note_on_c, 12, 61, 0
18, 93111, Note_on_c, 12, 58, 0
18, 93120, Note_on_c, 12, 61, 66
18, 93120, Note_on_c, 12, 58, 66
18, 93171, Note_on_c, 12, 61, 0
18, 93171, Note_on_c, 12, 58, 0
18, 93180, Note_on_c, 12, 58, 67
18, 93180, Note_on_c, 12, 61, 67
18, 93231, Note_on_c, 12, 58, 0
18, 93231, Note_on_c, 12, 61, 0
18, 93240, Note_on_c, 12, 58, 67
18, 93240, Note_on_c, 12, 61, 67
18, 93291, Note_on_c, 12, 58, 0
18, 93291, Note_on_c, 12, 61, 0
18, 93300, Note_on_c, 12, 58, 68
18, 93300, Note_on_c, 12, 61, 68
18, 93351, Note_on_c, 12, 58, 0
18, 93351, Note_on_c, 12, 61, 0
18, 93360, Note_on_c, 12, 58, 68
18, 93360, Note_on_c, 12, 61, 68
18, 93411, Note_on_c, 12, 58, 0
18, 93411, Note_on_c, 12, 61, 0
18, 93420, Note_on_c, 12, 61, 69
18, 93420, Note_on_c, 12, 58, 69
18, 93471, Note_on_c, 12, 61, 0
18, 93471, Note_on_c, 12, 58, 0
18, 93480, Note_on_c, 12, 61, 70
18, 93480, Note_on_c, 12, 58, 70
18, 93531, Note_on_c, 12, 61, 0
18, 93531, Note_on_c, 12, 58, 0
18, 93540, Note_on_c, 12, 61, 70
18, 93540, Note_on_c, 12, 58, 70
18, 93591, Note_on_c, 12, 61, 0
18, 93591, Note_on_c, 12, 58, 0
18, 93600, Note_on_c, 12, 61, 71
18, 93600, Note_on_c, 12, 58, 71
18, 93651, Note_on_c, 12, 61, 0
18, 93651, Note_on_c, 12, 58, 0
18, 93660, Note_on_c, 12, 58, 71
18, 93660, Note_on_c, 12, 61, 71
18, 93711, Note_on_c, 12, 58, 0
18, 93711, Note_on_c, 12, 61, 0
18, 93720, Note_on_c, 12, 61, 72
18, 93720, Note_on_c, 12, 58, 72
18, 93771, Note_on_c, 12, 61, 0
18, 93771, Note_on_c, 12, 58, 0
18, 93780, Note_on_c, 12, 61, 73
18, 93780, Note_on_c, 12, 58, 73
18, 93831, Note_on_c, 12, 61, 0
18, 93831, Note_on_c, 12, 58, 0
18, 93840, Note_on_c, 12, 58, 73
18, 93840, Note_on_c, 12, 61, 73
18, 93891, Note_on_c, 12, 58, 0
18, 93891, Note_on_c, 12, 61, 0
18, 93900, Note_on_c, 12, 58, 74
18, 93900, Note_on_c, 12, 61, 74
18, 93951, Note_on_c, 12, 58, 0
18, 93951, Note_on_c, 12, 61, 0
18, 93960, Note_on_c, 12, 58, 74
18, 93960, Note_on_c, 12, 61, 74
18, 94011, Note_on_c, 12, 58, 0
18, 94011, Note_on_c, 12, 61, 0
18, 94020, Note_on_c, 12, 61, 75
18, 94020, Note_on_c, 12, 58, 75
18, 94071, Note_on_c, 12, 61, 0
18, 94071, Note_on_c, 12, 58, 0
18, 94080, Note_on_c, 12, 61, 76
18, 94080, Note_on_c, 12, 58, 76
18, 94131, Note_on_c, 12, 61, 0
18, 94131, Note_on_c, 12, 58, 0
18, 94140, Note_on_c, 12, 58, 76
18, 94140, Note_on_c, 12, 61, 76
18, 94191, Note_on_c, 12, 58, 0
18, 94191, Note_on_c, 12, 61, 0
18, 94200, Note_on_c, 12, 61, 76
18, 94200, Note_on_c, 12, 58, 76
18, 94251, Note_on_c, 12, 61, 0
18, 94251, Note_on_c, 12, 58, 0
18, 94260, Note_on_c, 12, 58, 76
18, 94260, Note_on_c, 12, 61, 76
18, 94311, Note_on_c, 12, 58, 0
18, 94311, Note_on_c, 12, 61, 0
18, 94320, Note_on_c, 12, 58, 84
18, 94320, Note_on_c, 12, 61, 84
18, 94371, Note_on_c, 12, 58, 0
18, 94371, Note_on_c, 12, 61, 0
18, 94380, Note_on_c, 12, 58, 76
18, 94380, Note_on_c, 12, 61, 76
18, 94431, Note_on_c, 12, 58, 0
18, 94431, Note_on_c, 12, 61, 0
18, 94440, Note_on_c, 12, 58, 76
18, 94440, Note_on_c, 12, 61, 76
18, 94491, Note_on_c, 12, 58, 0
18, 94491, Note_on_c, 12, 61, 0
18, 94500, Note_on_c, 12, 61, 76
18, 94500, Note_on_c, 12, 58, 76
18, 94551, Note_on_c, 12, 61, 0
18, 94551, Note_on_c, 12, 58, 0
18, 94560, Note_on_c, 12, 61, 52
18, 94560, Note_on_c, 12, 58, 52
18, 94611, Note_on_c, 12, 61, 0
18, 94611, Note_on_c, 12, 58, 0
18, 94620, Note_on_c, 12, 58, 52
18, 94620, Note_on_c, 12, 61, 52
18, 94671, Note_on_c, 12, 58, 0
18, 94671, Note_on_c, 12, 61, 0
18, 94680, Note_on_c, 12, 58, 52
18, 94680, Note_on_c, 12, 61, 52
18, 94731, Note_on_c, 12, 58, 0
18, 94731, Note_on_c, 12, 61, 0
18, 94740, Note_on_c, 12, 58, 52
18, 94740, Note_on_c, 12, 61, 52
18, 94791, Note_on_c, 12, 58, 0
18, 94791, Note_on_c, 12, 61, 0
18, 94800, Note_on_c, 12, 58, 52
18, 94800, Note_on_c, 12, 61, 52
18, 94851, Note_on_c, 12, 58, 0
18, 94851, Note_on_c, 12, 61, 0
18, 94860, Note_on_c, 12, 61, 52
18, 94860, Note_on_c, 12, 58, 52
18, 94911, Note_on_c, 12, 61, 0
18, 94911, Note_on_c, 12, 58, 0
18, 94920, Note_on_c, 12, 61, 52
18, 94920, Note_on_c, 12, 58, 52
18, 94971, Note_on_c, 12, 61, 0
18, 94971, Note_on_c, 12, 58, 0
18, 94980, Note_on_c, 12, 61, 52
18, 94980, Note_on_c, 12, 58, 52
18, 95031, Note_on_c, 12, 61, 0
18, 95031, Note_on_c, 12, 58, 0
18, 95040, Note_on_c, 12, 61, 52
18, 95040, Note_on_c, 12, 58, 52
18, 95091, Note_on_c, 12, 61, 0
18, 95091, Note_on_c, 12, 58, 0
18, 95100, Note_on_c, 12, 58, 52
18, 95100, Note_on_c, 12, 61, 52
18, 95151, Note_on_c, 12, 58, 0
18, 95151, Note_on_c, 12, 61, 0
18, 95160, Note_on_c, 12, 61, 52
18, 95160, Note_on_c, 12, 58, 52
18, 95211, Note_on_c, 12, 61, 0
18, 95211, Note_on_c, 12, 58, 0
18, 95220, Note_on_c, 12, 58, 52
18, 95220, Note_on_c, 12, 61, 52
18, 95271, Note_on_c, 12, 58, 0
18, 95271, Note_on_c, 12, 61, 0
18, 95280, Note_on_c, 12, 58, 52
18, 95280, Note_on_c, 12, 61, 52
18, 95331, Note_on_c, 12, 58, 0
18, 95331, Note_on_c, 12, 61, 0
18, 95340, Note_on_c, 12, 61, 52
18, 95340, Note_on_c, 12, 58, 52
18, 95391, Note_on_c, 12, 61, 0
18, 95391, Note_on_c, 12, 58, 0
18, 95400, Note_on_c, 12, 58, 52
18, 95400, Note_on_c, 12, 61, 52
18, 95451, Note_on_c, 12, 58, 0
18, 95451, Note_on_c, 12, 61, 0
18, 95460, Note_on_c, 12, 61, 52
18, 95460, Note_on_c, 12, 58, 52
18, 95511, Note_on_c, 12, 61, 0
18, 95511, Note_on_c, 12, 58, 0
18, 95520, Note_on_c, 12, 61, 52
18, 95520, Note_on_c, 12, 58, 52
18, 95571, Note_on_c, 12, 61, 0
18, 95571, Note_on_c, 12, 58, 0
18, 95580, Note_on_c, 12, 61, 52
18, 95580, Note_on_c, 12, 58, 52
18, 95631, Note_on_c, 12, 61, 0
18, 95631, Note_on_c, 12, 58, 0
18, 95640, Note_on_c, 12, 58, 53
18, 95640, Note_on_c, 12, 61, 53
18, 95691, Note_on_c, 12, 58, 0
18, 95691, Note_on_c, 12, 61, 0
18, 95700, Note_on_c, 12, 58, 53
18, 95700, Note_on_c, 12, 61, 53
18, 95751, Note_on_c, 12, 58, 0
18, 95751, Note_on_c, 12, 61, 0
18, 95760, Note_on_c, 12, 58, 54
18, 95760, Note_on_c, 12, 61, 54
18, 95811, Note_on_c, 12, 58, 0
18, 95811, Note_on_c, 12, 61, 0
18, 95820, Note_on_c, 12, 58, 55
18, 95820, Note_on_c, 12, 61, 55
18, 95871, Note_on_c, 12, 58, 0
18, 95871, Note_on_c, 12, 61, 0
18, 95880, Note_on_c, 12, 58, 55
18, 95880, Note_on_c, 12, 61, 55
18, 95931, Note_on_c, 12, 58, 0
18, 95931, Note_on_c, 12, 61, 0
18, 95940, Note_on_c, 12, 61, 56
18, 95940, Note_on_c, 12, 58, 56
18, 95991, Note_on_c, 12, 61, 0
18, 95991, Note_on_c, 12, 58, 0
18, 96000, Note_on_c, 12, 58, 56
18, 96000, Note_on_c, 12, 61, 56
18, 96051, Note_on_c, 12, 58, 0
18, 96051, Note_on_c, 12, 61, 0
18, 96060, Note_on_c, 12, 61, 57
18, 96060, Note_on_c, 12, 58, 57
18, 96111, Note_on_c, 12, 61, 0
18, 96111, Note_on_c, 12, 58, 0
18, 96120, Note_on_c, 12, 58, 58
18, 96120, Note_on_c, 12, 61, 58
18, 96171, Note_on_c, 12, 58, 0
18, 96171, Note_on_c, 12, 61, 0
18, 96180, Note_on_c, 12, 58, 58
18, 96180, Note_on_c, 12, 61, 58
18, 96231, Note_on_c, 12, 58, 0
18, 96231, Note_on_c, 12, 61, 0
18, 96240, Note_on_c, 12, 61, 59
18, 96240, Note_on_c, 12, 58, 59
18, 96291, Note_on_c, 12, 61, 0
18, 96291, Note_on_c, 12, 58, 0
18, 96300, Note_on_c, 12, 58, 59
18, 96300, Note_on_c, 12, 61, 59
18, 96351, Note_on_c, 12, 58, 0
18, 96351, Note_on_c, 12, 61, 0
18, 96360, Note_on_c, 12, 61, 60
18, 96360, Note_on_c, 12, 58, 60
18, 96411, Note_on_c, 12, 61, 0
18, 96411, Note_on_c, 12, 58, 0
18, 96420, Note_on_c, 12, 61, 61
18, 96420, Note_on_c, 12, 58, 61
18, 96471, Note_on_c, 12, 61, 0
18, 96471, Note_on_c, 12, 58, 0
18, 96480, Note_on_c, 12, 61, 61
18, 96480, Note_on_c, 12, 58, 61
18, 96531, Note_on_c, 12, 61, 0
18, 96531, Note_on_c, 12, 58, 0
18, 96540, Note_on_c, 12, 58, 62
18, 96540, Note_on_c, 12, 61, 62
18, 96591, Note_on_c, 12, 58, 0
18, 96591, Note_on_c, 12, 61, 0
18, 96600, Note_on_c, 12, 61, 62
18, 96600, Note_on_c, 12, 58, 62
18, 96651, Note_on_c, 12, 61, 0
18, 96651, Note_on_c, 12, 58, 0
18, 96660, Note_on_c, 12, 61, 63
18, 96660, Note_on_c, 12, 58, 63
18, 96711, Note_on_c, 12, 61, 0
18, 96711, Note_on_c, 12, 58, 0
18, 96720, Note_on_c, 12, 58, 64
18, 96720, Note_on_c, 12, 61, 64
18, 96771, Note_on_c, 12, 58, 0
18, 96771, Note_on_c, 12, 61, 0
18, 96780, Note_on_c, 12, 58, 64
18, 96780, Note_on_c, 12, 61, 64
18, 96831, Note_on_c, 12, 58, 0
18, 96831, Note_on_c, 12, 61, 0
18, 96840, Note_on_c, 12, 61, 65
18, 96840, Note_on_c, 12, 58, 65
18, 96891, Note_on_c, 12, 61, 0
18, 96891, Note_on_c, 12, 58, 0
18, 96900, Note_on_c, 12, 61, 65
18, 96900, Note_on_c, 12, 58, 65
18, 96951, Note_on_c, 12, 61, 0
18, 96951, Note_on_c, 12, 58, 0
18, 96960, Note_on_c, 12, 58, 66
18, 96960, Note_on_c, 12, 61, 66
18, 97011, Note_on_c, 12, 58, 0
18, 97011, Note_on_c, 12, 61, 0
18, 97020, Note_on_c, 12, 61, 67
18, 97020, Note_on_c, 12, 58, 67
18, 97071, Note_on_c, 12, 61, 0
18, 97071, Note_on_c, 12, 58, 0
18, 97080, Note_on_c, 12, 61, 67
18, 97080, Note_on_c, 12, 58, 67
18, 97131, Note_on_c, 12, 61, 0
18, 97131, Note_on_c, 12, 58, 0
18, 97140, Note_on_c, 12, 58, 68
18, 97140, Note_on_c, 12, 61, 68
18, 97191, Note_on_c, 12, 58, 0
18, 97191, Note_on_c, 12, 61, 0
18, 97200, Note_on_c, 12, 61, 68
18, 97200, Note_on_c, 12, 58, 68
18, 97251, Note_on_c, 12, 61, 0
18, 97251, Note_on_c, 12, 58, 0
18, 97260, Note_on_c, 12, 61, 69
18, 97260, Note_on_c, 12, 58, 69
18, 97311, Note_on_c, 12, 61, 0
18, 97311, Note_on_c, 12, 58, 0
18, 97320, Note_on_c, 12, 58, 70
18, 97320, Note_on_c, 12, 61, 70
18, 97371, Note_on_c, 12, 58, 0
18, 97371, Note_on_c, 12, 61, 0
18, 97380, Note_on_c, 12, 58, 70
18, 97380, Note_on_c, 12, 61, 70
18, 97431, Note_on_c, 12, 58, 0
18, 97431, Note_on_c, 12, 61, 0
18, 97440, Note_on_c, 12, 61, 71
18, 97440, Note_on_c, 12, 58, 71
18, 97491, Note_on_c, 12, 61, 0
18, 97491, Note_on_c, 12, 58, 0
18, 97500, Note_on_c, 12, 58, 71
18, 97500, Note_on_c, 12, 61, 71
18, 97551, Note_on_c, 12, 58, 0
18, 97551, Note_on_c, 12, 61, 0
18, 97560, Note_on_c, 12, 58, 72
18, 97560, Note_on_c, 12, 61, 72
18, 97611, Note_on_c, 12, 58, 0
18, 97611, Note_on_c, 12, 61, 0
18, 97620, Note_on_c, 12, 61, 73
18, 97620, Note_on_c, 12, 58, 73
18, 97671, Note_on_c, 12, 61, 0
18, 97671, Note_on_c, 12, 58, 0
18, 97680, Note_on_c, 12, 58, 73
18, 97680, Note_on_c, 12, 61, 73
18, 97731, Note_on_c, 12, 58, 0
18, 97731, Note_on_c, 12, 61, 0
18, 97740, Note_on_c, 12, 61, 74
18, 97740, Note_on_c, 12, 58, 74
18, 97791, Note_on_c, 12, 61, 0
18, 97791, Note_on_c, 12, 58, 0
18, 97800, Note_on_c, 12, 58, 74
18, 97800, Note_on_c, 12, 61, 74
18, 97851, Note_on_c, 12, 58, 0
18, 97851, Note_on_c, 12, 61, 0
18, 97860, Note_on_c, 12, 61, 75
18, 97860, Note_on_c, 12, 58, 75
18, 97911, Note_on_c, 12, 61, 0
18, 97911, Note_on_c, 12, 58, 0
18, 97920, Note_on_c, 12, 49, 76
18, 97971, Note_on_c, 12, 49, 0
18, 97980, Note_on_c, 12, 61, 76
18, 98031, Note_on_c, 12, 61, 0
18, 98040, Note_on_c, 12, 61, 76
18, 98091, Note_on_c, 12, 61, 0
18, 98100, Note_on_c, 12, 61, 76
18, 98151, Note_on_c, 12, 61, 0
18, 98160, Note_on_c, 12, 61, 76
18, 98211, Note_on_c, 12, 61, 0
18, 98220, Note_on_c, 12, 61, 76
18, 98271, Note_on_c, 12, 61, 0
18, 98280, Note_on_c, 12, 61, 76
18, 98331, Note_on_c, 12, 61, 0
18, 98340, Note_on_c, 12, 61, 76
18, 98391, Note_on_c, 12, 61, 0
18, 98400, Note_on_c, 12, 61, 77
18, 98451, Note_on_c, 12, 61, 0
18, 98460, Note_on_c, 12, 61, 77
18, 98511, Note_on_c, 12, 61, 0
18, 98520, Note_on_c, 12, 61, 77
18, 98571, Note_on_c, 12, 61, 0
18, 98580, Note_on_c, 12, 61, 77
18, 98631, Note_on_c, 12, 61, 0
18, 98640, Note_on_c, 12, 61, 77
18, 98691, Note_on_c, 12, 61, 0
18, 98700, Note_on_c, 12, 61, 77
18, 98751, Note_on_c, 12, 61, 0
18, 98760, Note_on_c, 12, 61, 77
18, 98811, Note_on_c, 12, 61, 0
18, 98820, Note_on_c, 12, 61, 78
18, 98871, Note_on_c, 12, 61, 0
18, 98880, Note_on_c, 12, 49, 78
18, 98931, Note_on_c, 12, 49, 0
18, 98940, Note_on_c, 12, 61, 78
18, 98991, Note_on_c, 12, 61, 0
18, 99000, Note_on_c, 12, 61, 78
18, 99051, Note_on_c, 12, 61, 0
18, 99060, Note_on_c, 12, 61, 78
18, 99111, Note_on_c, 12, 61, 0
18, 99120, Note_on_c, 12, 61, 78
18, 99171, Note_on_c, 12, 61, 0
18, 99180, Note_on_c, 12, 61, 78
18, 99231, Note_on_c, 12, 61, 0
18, 99240, Note_on_c, 12, 61, 78
18, 99291, Note_on_c, 12, 61, 0
18, 99300, Note_on_c, 12, 61, 79
18, 99351, Note_on_c, 12, 61, 0
18, 99360, Note_on_c, 12, 61, 79
18, 99411, Note_on_c, 12, 61, 0
18, 99420, Note_on_c, 12, 61, 79
18, 99471, Note_on_c, 12, 61, 0
18, 99480, Note_on_c, 12, 61, 79
18, 99531, Note_on_c, 12, 61, 0
18, 99540, Note_on_c, 12, 61, 79
18, 99591, Note_on_c, 12, 61, 0
18, 99600, Note_on_c, 12, 61, 79
18, 99651, Note_on_c, 12, 61, 0
18, 99660, Note_on_c, 12, 61, 79
18, 99711, Note_on_c, 12, 61, 0
18, 99720, Note_on_c, 12, 61, 80
18, 99771, Note_on_c, 12, 61, 0
18, 99780, Note_on_c, 12, 61, 80
18, 99831, Note_on_c, 12, 61, 0
18, 99840, Note_on_c, 12, 53, 80
18, 99891, Note_on_c, 12, 53, 0
18, 99900, Note_on_c, 12, 65, 80
18, 99951, Note_on_c, 12, 65, 0
18, 99960, Note_on_c, 12, 65, 80
18, 100011, Note_on_c, 12, 65, 0
18, 100020, Note_on_c, 12, 65, 80
18, 100071, Note_on_c, 12, 65, 0
18, 100080, Note_on_c, 12, 65, 80
18, 100131, Note_on_c, 12, 65, 0
18, 100140, Note_on_c, 12, 65, 80
18, 100191, Note_on_c, 12, 65, 0
18, 100200, Note_on_c, 12, 65, 81
18, 100251, Note_on_c, 12, 65, 0
18, 100260, Note_on_c, 12, 65, 81
18, 100311, Note_on_c, 12, 65, 0
18, 100320, Note_on_c, 12, 65, 81
18, 100371, Note_on_c, 12, 65, 0
18, 100380, Note_on_c, 12, 65, 81
18, 100431, Note_on_c, 12, 65, 0
18, 100440, Note_on_c, 12, 65, 81
18, 100491, Note_on_c, 12, 65, 0
18, 100500, Note_on_c, 12, 65, 81
18, 100551, Note_on_c, 12, 65, 0
18, 100560, Note_on_c, 12, 65, 81
18, 100611, Note_on_c, 12, 65, 0
18, 100620, Note_on_c, 12, 65, 82
18, 100671, Note_on_c, 12, 65, 0
18, 100680, Note_on_c, 12, 65, 82
18, 100731, Note_on_c, 12, 65, 0
18, 100740, Note_on_c, 12, 65, 82
18, 100791, Note_on_c, 12, 65, 0
18, 100800, Note_on_c, 12, 53, 82
18, 100851, Note_on_c, 12, 53, 0
18, 100860, Note_on_c, 12, 65, 82
18, 100911, Note_on_c, 12, 65, 0
18, 100920, Note_on_c, 12, 65, 82
18, 100971, Note_on_c, 12, 65, 0
18, 100980, Note_on_c, 12, 65, 82
18, 101031, Note_on_c, 12, 65, 0
18, 101040, Note_on_c, 12, 65, 82
18, 101091, Note_on_c, 12, 65, 0
18, 101100, Note_on_c, 12, 65, 83
18, 101151, Note_on_c, 12, 65, 0
18, 101160, Note_on_c, 12, 65, 83
18, 101211, Note_on_c, 12, 65, 0
18, 101220, Note_on_c, 12, 65, 83
18, 101271, Note_on_c, 12, 65, 0
18, 101280, Note_on_c, 12, 66, 83
18, 101280, Note_on_c, 12, 63, 83
18, 101331, Note_on_c, 12, 66, 0
18, 101331, Note_on_c, 12, 63, 0
18, 101340, Note_on_c, 12, 66, 83
18, 101340, Note_on_c, 12, 63, 83
18, 101391, Note_on_c, 12, 66, 0
18, 101391, Note_on_c, 12, 63, 0
18, 101400, Note_on_c, 12, 66, 83
18, 101400, Note_on_c, 12, 63, 83
18, 101451, Note_on_c, 12, 66, 0
18, 101451, Note_on_c, 12, 63, 0
18, 101460, Note_on_c, 12, 66, 83
18, 101460, Note_on_c, 12, 63, 83
18, 101511, Note_on_c, 12, 66, 0
18, 101511, Note_on_c, 12, 63, 0
18, 101520, Note_on_c, 12, 54, 84
18, 101520, Note_on_c, 12, 57, 84
18, 101571, Note_on_c, 12, 54, 0
18, 101571, Note_on_c, 12, 57, 0
18, 101580, Note_on_c, 12, 57, 84
18, 101580, Note_on_c, 12, 54, 84
18, 101631, Note_on_c, 12, 57, 0
18, 101631, Note_on_c, 12, 54, 0
18, 101640, Note_on_c, 12, 57, 84
18, 101640, Note_on_c, 12, 54, 84
18, 101691, Note_on_c, 12, 57, 0
18, 101691, Note_on_c, 12, 54, 0
18, 101700, Note_on_c, 12, 54, 84
18, 101700, Note_on_c, 12, 57, 84
18, 101751, Note_on_c, 12, 54, 0
18, 101751, Note_on_c, 12, 57, 0
18, 101760, Note_on_c, 12, 57, 84
18, 101760, Note_on_c, 12, 54, 84
18, 101811, Note_on_c, 12, 57, 0
18, 101811, Note_on_c, 12, 54, 0
18, 101820, Note_on_c, 12, 54, 84
18, 101820, Note_on_c, 12, 57, 84
18, 101871, Note_on_c, 12, 54, 0
18, 101871, Note_on_c, 12, 57, 0
18, 101880, Note_on_c, 12, 54, 84
18, 101880, Note_on_c, 12, 57, 84
18, 101931, Note_on_c, 12, 54, 0
18, 101931, Note_on_c, 12, 57, 0
18, 101940, Note_on_c, 12, 57, 84
18, 101940, Note_on_c, 12, 54, 84
18, 101991, Note_on_c, 12, 57, 0
18, 101991, Note_on_c, 12, 54, 0
18, 102000, Note_on_c, 12, 54, 84
18, 102000, Note_on_c, 12, 57, 84
18, 102051, Note_on_c, 12, 54, 0
18, 102051, Note_on_c, 12, 57, 0
18, 102060, Note_on_c, 12, 57, 84
18, 102060, Note_on_c, 12, 54, 84
18, 102111, Note_on_c, 12, 57, 0
18, 102111, Note_on_c, 12, 54, 0
18, 102120, Note_on_c, 12, 54, 84
18, 102120, Note_on_c, 12, 57, 84
18, 102171, Note_on_c, 12, 54, 0
18, 102171, Note_on_c, 12, 57, 0
18, 102180, Note_on_c, 12, 57, 84
18, 102180, Note_on_c, 12, 54, 84
18, 102231, Note_on_c, 12, 57, 0
18, 102231, Note_on_c, 12, 54, 0
18, 102240, Note_on_c, 12, 54, 84
18, 102240, Note_on_c, 12, 57, 84
18, 102291, Note_on_c, 12, 54, 0
18, 102291, Note_on_c, 12, 57, 0
18, 102300, Note_on_c, 12, 57, 84
18, 102300, Note_on_c, 12, 54, 84
18, 102351, Note_on_c, 12, 57, 0
18, 102351, Note_on_c, 12, 54, 0
18, 102360, Note_on_c, 12, 57, 84
18, 102360, Note_on_c, 12, 54, 84
18, 102411, Note_on_c, 12, 57, 0
18, 102411, Note_on_c, 12, 54, 0
18, 102420, Note_on_c, 12, 57, 84
18, 102420, Note_on_c, 12, 54, 84
18, 102471, Note_on_c, 12, 57, 0
18, 102471, Note_on_c, 12, 54, 0
18, 102480, Note_on_c, 12, 54, 84
18, 102480, Note_on_c, 12, 57, 84
18, 102531, Note_on_c, 12, 54, 0
18, 102531, Note_on_c, 12, 57, 0
18, 102540, Note_on_c, 12, 54, 84
18, 102540, Note_on_c, 12, 57, 84
18, 102591, Note_on_c, 12, 54, 0
18, 102591, Note_on_c, 12, 57, 0
18, 102600, Note_on_c, 12, 54, 84
18, 102600, Note_on_c, 12, 57, 84
18, 102651, Note_on_c, 12, 54, 0
18, 102651, Note_on_c, 12, 57, 0
18, 102660, Note_on_c, 12, 57, 84
18, 102660, Note_on_c, 12, 54, 84
18, 102711, Note_on_c, 12, 57, 0
18, 102711, Note_on_c, 12, 54, 0
18, 102720, Note_on_c, 12, 54, 84
18, 102720, Note_on_c, 12, 57, 84
18, 102771, Note_on_c, 12, 54, 0
18, 102771, Note_on_c, 12, 57, 0
18, 102780, Note_on_c, 12, 54, 84
18, 102780, Note_on_c, 12, 57, 84
18, 102831, Note_on_c, 12, 54, 0
18, 102831, Note_on_c, 12, 57, 0
18, 102840, Note_on_c, 12, 57, 84
18, 102840, Note_on_c, 12, 54, 84
18, 102891, Note_on_c, 12, 57, 0
18, 102891, Note_on_c, 12, 54, 0
18, 102900, Note_on_c, 12, 57, 84
18, 102900, Note_on_c, 12, 54, 84
18, 102951, Note_on_c, 12, 57, 0
18, 102951, Note_on_c, 12, 54, 0
18, 102960, Note_on_c, 12, 57, 84
18, 102960, Note_on_c, 12, 54, 84
18, 103011, Note_on_c, 12, 57, 0
18, 103011, Note_on_c, 12, 54, 0
18, 103020, Note_on_c, 12, 57, 84
18, 103020, Note_on_c, 12, 54, 84
18, 103071, Note_on_c, 12, 57, 0
18, 103071, Note_on_c, 12, 54, 0
18, 103080, Note_on_c, 12, 54, 84
18, 103080, Note_on_c, 12, 57, 84
18, 103131, Note_on_c, 12, 54, 0
18, 103131, Note_on_c, 12, 57, 0
18, 103140, Note_on_c, 12, 54, 84
18, 103140, Note_on_c, 12, 57, 84
18, 103191, Note_on_c, 12, 54, 0
18, 103191, Note_on_c, 12, 57, 0
18, 103200, Note_on_c, 12, 57, 84
18, 103200, Note_on_c, 12, 54, 84
18, 103251, Note_on_c, 12, 57, 0
18, 103251, Note_on_c, 12, 54, 0
18, 103260, Note_on_c, 12, 54, 84
18, 103260, Note_on_c, 12, 57, 84
18, 103311, Note_on_c, 12, 54, 0
18, 103311, Note_on_c, 12, 57, 0
18, 103320, Note_on_c, 12, 54, 84
18, 103320, Note_on_c, 12, 57, 84
18, 103371, Note_on_c, 12, 54, 0
18, 103371, Note_on_c, 12, 57, 0
18, 103380, Note_on_c, 12, 57, 84
18, 103380, Note_on_c, 12, 54, 84
18, 103431, Note_on_c, 12, 57, 0
18, 103431, Note_on_c, 12, 54, 0
18, 103440, Note_on_c, 12, 54, 84
18, 103440, Note_on_c, 12, 57, 84
18, 103491, Note_on_c, 12, 54, 0
18, 103491, Note_on_c, 12, 57, 0
18, 103500, Note_on_c, 12, 54, 84
18, 103500, Note_on_c, 12, 57, 84
18, 103551, Note_on_c, 12, 54, 0
18, 103551, Note_on_c, 12, 57, 0
18, 103560, Note_on_c, 12, 57, 84
18, 103560, Note_on_c, 12, 54, 84
18, 103611, Note_on_c, 12, 57, 0
18, 103611, Note_on_c, 12, 54, 0
18, 103620, Note_on_c, 12, 54, 84
18, 103620, Note_on_c, 12, 57, 84
18, 103671, Note_on_c, 12, 54, 0
18, 103671, Note_on_c, 12, 57, 0
18, 103680, Note_on_c, 12, 54, 84
18, 103680, Note_on_c, 12, 57, 84
18, 103731, Note_on_c, 12, 54, 0
18, 103731, Note_on_c, 12, 57, 0
18, 103740, Note_on_c, 12, 54, 84
18, 103740, Note_on_c, 12, 57, 84
18, 103791, Note_on_c, 12, 54, 0
18, 103791, Note_on_c, 12, 57, 0
18, 103800, Note_on_c, 12, 54, 84
18, 103800, Note_on_c, 12, 57, 84
18, 103851, Note_on_c, 12, 54, 0
18, 103851, Note_on_c, 12, 57, 0
18, 103860, Note_on_c, 12, 54, 84
18, 103860, Note_on_c, 12, 57, 84
18, 103911, Note_on_c, 12, 54, 0
18, 103911, Note_on_c, 12, 57, 0
18, 103920, Note_on_c, 12, 54, 84
18, 103920, Note_on_c, 12, 57, 84
18, 103971, Note_on_c, 12, 54, 0
18, 103971, Note_on_c, 12, 57, 0
18, 103980, Note_on_c, 12, 57, 84
18, 103980, Note_on_c, 12, 54, 84
18, 104031, Note_on_c, 12, 57, 0
18, 104031, Note_on_c, 12, 54, 0
18, 104040, Note_on_c, 12, 57, 84
18, 104040, Note_on_c, 12, 54, 84
18, 104091, Note_on_c, 12, 57, 0
18, 104091, Note_on_c, 12, 54, 0
18, 104100, Note_on_c, 12, 54, 84
18, 104100, Note_on_c, 12, 57, 84
18, 104151, Note_on_c, 12, 54, 0
18, 104151, Note_on_c, 12, 57, 0
18, 104160, Note_on_c, 12, 54, 84
18, 104160, Note_on_c, 12, 57, 84
18, 104211, Note_on_c, 12, 54, 0
18, 104211, Note_on_c, 12, 57, 0
18, 104220, Note_on_c, 12, 54, 84
18, 104220, Note_on_c, 12, 57, 84
18, 104271, Note_on_c, 12, 54, 0
18, 104271, Note_on_c, 12, 57, 0
18, 104280, Note_on_c, 12, 57, 84
18, 104280, Note_on_c, 12, 54, 84
18, 104331, Note_on_c, 12, 57, 0
18, 104331, Note_on_c, 12, 54, 0
18, 104340, Note_on_c, 12, 54, 84
18, 104340, Note_on_c, 12, 57, 84
18, 104391, Note_on_c, 12, 54, 0
18, 104391, Note_on_c, 12, 57, 0
18, 104400, Note_on_c, 12, 54, 84
18, 104400, Note_on_c, 12, 57, 84
18, 104451, Note_on_c, 12, 54, 0
18, 104451, Note_on_c, 12, 57, 0
18, 104460, Note_on_c, 12, 54, 84
18, 104460, Note_on_c, 12, 57, 84
18, 104511, Note_on_c, 12, 54, 0
18, 104511, Note_on_c, 12, 57, 0
18, 104520, Note_on_c, 12, 54, 84
18, 104520, Note_on_c, 12, 57, 84
18, 104571, Note_on_c, 12, 54, 0
18, 104571, Note_on_c, 12, 57, 0
18, 104580, Note_on_c, 12, 57, 84
18, 104580, Note_on_c, 12, 54, 84
18, 104631, Note_on_c, 12, 57, 0
18, 104631, Note_on_c, 12, 54, 0
18, 104640, Note_on_c, 12, 54, 84
18, 104640, Note_on_c, 12, 57, 84
18, 104691, Note_on_c, 12, 54, 0
18, 104691, Note_on_c, 12, 57, 0
18, 104700, Note_on_c, 12, 54, 84
18, 104700, Note_on_c, 12, 57, 84
18, 104751, Note_on_c, 12, 54, 0
18, 104751, Note_on_c, 12, 57, 0
18, 104760, Note_on_c, 12, 57, 84
18, 104760, Note_on_c, 12, 54, 84
18, 104811, Note_on_c, 12, 57, 0
18, 104811, Note_on_c, 12, 54, 0
18, 104820, Note_on_c, 12, 54, 84
18, 104820, Note_on_c, 12, 57, 84
18, 104871, Note_on_c, 12, 54, 0
18, 104871, Note_on_c, 12, 57, 0
18, 104880, Note_on_c, 12, 54, 84
18, 104880, Note_on_c, 12, 57, 84
18, 104931, Note_on_c, 12, 54, 0
18, 104931, Note_on_c, 12, 57, 0
18, 104940, Note_on_c, 12, 57, 84
18, 104940, Note_on_c, 12, 54, 84
18, 104991, Note_on_c, 12, 57, 0
18, 104991, Note_on_c, 12, 54, 0
18, 105000, Note_on_c, 12, 57, 84
18, 105000, Note_on_c, 12, 54, 84
18, 105051, Note_on_c, 12, 57, 0
18, 105051, Note_on_c, 12, 54, 0
18, 105060, Note_on_c, 12, 57, 84
18, 105060, Note_on_c, 12, 54, 84
18, 105111, Note_on_c, 12, 57, 0
18, 105111, Note_on_c, 12, 54, 0
18, 105120, Note_on_c, 12, 57, 84
18, 105120, Note_on_c, 12, 54, 84
18, 105171, Note_on_c, 12, 57, 0
18, 105171, Note_on_c, 12, 54, 0
18, 105180, Note_on_c, 12, 57, 84
18, 105180, Note_on_c, 12, 54, 84
18, 105231, Note_on_c, 12, 57, 0
18, 105231, Note_on_c, 12, 54, 0
18, 105240, Note_on_c, 12, 57, 84
18, 105240, Note_on_c, 12, 54, 84
18, 105291, Note_on_c, 12, 57, 0
18, 105291, Note_on_c, 12, 54, 0
18, 105300, Note_on_c, 12, 54, 84
18, 105300, Note_on_c, 12, 57, 84
18, 105351, Note_on_c, 12, 54, 0
18, 105351, Note_on_c, 12, 57, 0
18, 105360, Note_on_c, 12, 54, 84
18, 105360, Note_on_c, 12, 57, 84
18, 105411, Note_on_c, 12, 54, 0
18, 105411, Note_on_c, 12, 57, 0
18, 105420, Note_on_c, 12, 57, 84
18, 105420, Note_on_c, 12, 54, 84
18, 105471, Note_on_c, 12, 57, 0
18, 105471, Note_on_c, 12, 54, 0
18, 105480, Note_on_c, 12, 54, 84
18, 105480, Note_on_c, 12, 57, 84
18, 105531, Note_on_c, 12, 54, 0
18, 105531, Note_on_c, 12, 57, 0
18, 105540, Note_on_c, 12, 57, 84
18, 105540, Note_on_c, 12, 54, 84
18, 105591, Note_on_c, 12, 57, 0
18, 105591, Note_on_c, 12, 54, 0
18, 105600, Note_on_c, 12, 57, 84
18, 105600, Note_on_c, 12, 53, 84
18, 105651, Note_on_c, 12, 57, 0
18, 105651, Note_on_c, 12, 53, 0
18, 105660, Note_on_c, 12, 69, 84
18, 105660, Note_on_c, 12, 72, 84
18, 105711, Note_on_c, 12, 69, 0
18, 105711, Note_on_c, 12, 72, 0
18, 105720, Note_on_c, 12, 69, 84
18, 105720, Note_on_c, 12, 72, 84
18, 105771, Note_on_c, 12, 69, 0
18, 105771, Note_on_c, 12, 72, 0
18, 105780, Note_on_c, 12, 72, 84
18, 105780, Note_on_c, 12, 69, 84
18, 105831, Note_on_c, 12, 72, 0
18, 105831, Note_on_c, 12, 69, 0
18, 105840, Note_on_c, 12, 72, 84
18, 105840, Note_on_c, 12, 69, 84
18, 105891, Note_on_c, 12, 72, 0
18, 105891, Note_on_c, 12, 69, 0
18, 105900, Note_on_c, 12, 69, 84
18, 105900, Note_on_c, 12, 72, 84
18, 105951, Note_on_c, 12, 69, 0
18, 105951, Note_on_c, 12, 72, 0
18, 105960, Note_on_c, 12, 69, 84
18, 105960, Note_on_c, 12, 72, 84
18, 106011, Note_on_c, 12, 69, 0
18, 106011, Note_on_c, 12, 72, 0
18, 106020, Note_on_c, 12, 69, 84
18, 106020, Note_on_c, 12, 72, 84
18, 106071, Note_on_c, 12, 69, 0
18, 106071, Note_on_c, 12, 72, 0
18, 106080, Note_on_c, 12, 72, 84
18, 106080, Note_on_c, 12, 69, 84
18, 106131, Note_on_c, 12, 72, 0
18, 106131, Note_on_c, 12, 69, 0
18, 106140, Note_on_c, 12, 72, 84
18, 106140, Note_on_c, 12, 69, 84
18, 106191, Note_on_c, 12, 72, 0
18, 106191, Note_on_c, 12, 69, 0
18, 106200, Note_on_c, 12, 72, 84
18, 106200, Note_on_c, 12, 69, 84
18, 106251, Note_on_c, 12, 72, 0
18, 106251, Note_on_c, 12, 69, 0
18, 106260, Note_on_c, 12, 72, 84
18, 106260, Note_on_c, 12, 69, 84
18, 106311, Note_on_c, 12, 72, 0
18, 106311, Note_on_c, 12, 69, 0
18, 106320, Note_on_c, 12, 72, 84
18, 106320, Note_on_c, 12, 69, 84
18, 106371, Note_on_c, 12, 72, 0
18, 106371, Note_on_c, 12, 69, 0
18, 106380, Note_on_c, 12, 72, 84
18, 106380, Note_on_c, 12, 69, 84
18, 106431, Note_on_c, 12, 72, 0
18, 106431, Note_on_c, 12, 69, 0
18, 106440, Note_on_c, 12, 69, 84
18, 106440, Note_on_c, 12, 72, 84
18, 106491, Note_on_c, 12, 69, 0
18, 106491, Note_on_c, 12, 72, 0
18, 106500, Note_on_c, 12, 72, 84
18, 106500, Note_on_c, 12, 69, 84
18, 106551, Note_on_c, 12, 72, 0
18, 106551, Note_on_c, 12, 69, 0
18, 106560, Note_on_c, 12, 69, 92
18, 106560, Note_on_c, 12, 72, 92
18, 106611, Note_on_c, 12, 69, 0
18, 106611, Note_on_c, 12, 72, 0
18, 106620, Note_on_c, 12, 72, 84
18, 106620, Note_on_c, 12, 69, 84
18, 106671, Note_on_c, 12, 72, 0
18, 106671, Note_on_c, 12, 69, 0
18, 106680, Note_on_c, 12, 72, 84
18, 106680, Note_on_c, 12, 69, 84
18, 106731, Note_on_c, 12, 72, 0
18, 106731, Note_on_c, 12, 69, 0
18, 106740, Note_on_c, 12, 69, 84
18, 106740, Note_on_c, 12, 72, 84
18, 106791, Note_on_c, 12, 69, 0
18, 106791, Note_on_c, 12, 72, 0
18, 106800, Note_on_c, 12, 72, 84
18, 106800, Note_on_c, 12, 69, 84
18, 106851, Note_on_c, 12, 72, 0
18, 106851, Note_on_c, 12, 69, 0
18, 106860, Note_on_c, 12, 69, 84
18, 106860, Note_on_c, 12, 72, 84
18, 106911, Note_on_c, 12, 69, 0
18, 106911, Note_on_c, 12, 72, 0
18, 106920, Note_on_c, 12, 69, 84
18, 106920, Note_on_c, 12, 72, 84
18, 106971, Note_on_c, 12, 69, 0
18, 106971, Note_on_c, 12, 72, 0
18, 106980, Note_on_c, 12, 72, 84
18, 106980, Note_on_c, 12, 69, 84
18, 107031, Note_on_c, 12, 72, 0
18, 107031, Note_on_c, 12, 69, 0
18, 107040, Note_on_c, 12, 72, 84
18, 107040, Note_on_c, 12, 69, 84
18, 107091, Note_on_c, 12, 72, 0
18, 107091, Note_on_c, 12, 69, 0
18, 107100, Note_on_c, 12, 69, 84
18, 107100, Note_on_c, 12, 72, 84
18, 107151, Note_on_c, 12, 69, 0
18, 107151, Note_on_c, 12, 72, 0
18, 107160, Note_on_c, 12, 72, 84
18, 107160, Note_on_c, 12, 69, 84
18, 107211, Note_on_c, 12, 72, 0
18, 107211, Note_on_c, 12, 69, 0
18, 107220, Note_on_c, 12, 69, 84
18, 107220, Note_on_c, 12, 72, 84
18, 107271, Note_on_c, 12, 69, 0
18, 107271, Note_on_c, 12, 72, 0
18, 107280, Note_on_c, 12, 72, 84
18, 107280, Note_on_c, 12, 69, 84
18, 107331, Note_on_c, 12, 72, 0
18, 107331, Note_on_c, 12, 69, 0
18, 107340, Note_on_c, 12, 69, 84
18, 107340, Note_on_c, 12, 72, 84
18, 107391, Note_on_c, 12, 69, 0
18, 107391, Note_on_c, 12, 72, 0
18, 107400, Note_on_c, 12, 69, 84
18, 107400, Note_on_c, 12, 72, 84
18, 107451, Note_on_c, 12, 69, 0
18, 107451, Note_on_c, 12, 72, 0
18, 107460, Note_on_c, 12, 72, 84
18, 107460, Note_on_c, 12, 69, 84
18, 107511, Note_on_c, 12, 72, 0
18, 107511, Note_on_c, 12, 69, 0
18, 107520, Note_on_c, 12, 70, 84
18, 107571, Note_on_c, 12, 70, 0
18, 107580, Note_on_c, 12, 70, 84
18, 107631, Note_on_c, 12, 70, 0
18, 107640, Note_on_c, 12, 70, 84
18, 107691, Note_on_c, 12, 70, 0
18, 107700, Note_on_c, 12, 70, 84
18, 107751, Note_on_c, 12, 70, 0
18, 107760, Note_on_c, 12, 70, 84
18, 107811, Note_on_c, 12, 70, 0
18, 107820, Note_on_c, 12, 70, 84
18, 107871, Note_on_c, 12, 70, 0
18, 107880, Note_on_c, 12, 70, 84
18, 107931, Note_on_c, 12, 70, 0
18, 107940, Note_on_c, 12, 70, 84
18, 107991, Note_on_c, 12, 70, 0
18, 108000, Note_on_c, 12, 70, 84
18, 108051, Note_on_c, 12, 70, 0
18, 108060, Note_on_c, 12, 70, 84
18, 108111, Note_on_c, 12, 70, 0
18, 108120, Note_on_c, 12, 70, 84
18, 108171, Note_on_c, 12, 70, 0
18, 108180, Note_on_c, 12, 70, 84
18, 108231, Note_on_c, 12, 70, 0
18, 108240, Note_on_c, 12, 70, 84
18, 108291, Note_on_c, 12, 70, 0
18, 108300, Note_on_c, 12, 70, 84
18, 108351, Note_on_c, 12, 70, 0
18, 108360, Note_on_c, 12, 70, 84
18, 108411, Note_on_c, 12, 70, 0
18, 108420, Note_on_c, 12, 70, 84
18, 108471, Note_on_c, 12, 70, 0
18, 108480, Note_on_c, 12, 67, 92
18, 108480, Note_on_c, 12, 70, 92
18, 108531, Note_on_c, 12, 67, 0
18, 108531, Note_on_c, 12, 70, 0
18, 108540, Note_on_c, 12, 70, 84
18, 108540, Note_on_c, 12, 67, 84
18, 108591, Note_on_c, 12, 70, 0
18, 108591, Note_on_c, 12, 67, 0
18, 108600, Note_on_c, 12, 70, 84
18, 108600, Note_on_c, 12, 67, 84
18, 108651, Note_on_c, 12, 70, 0
18, 108651, Note_on_c, 12, 67, 0
18, 108660, Note_on_c, 12, 67, 84
18, 108660, Note_on_c, 12, 70, 84
18, 108711, Note_on_c, 12, 67, 0
18, 108711, Note_on_c, 12, 70, 0
18, 108720, Note_on_c, 12, 70, 84
18, 108720, Note_on_c, 12, 67, 84
18, 108771, Note_on_c, 12, 70, 0
18, 108771, Note_on_c, 12, 67, 0
18, 108780, Note_on_c, 12, 67, 84
18, 108780, Note_on_c, 12, 70, 84
18, 108831, Note_on_c, 12, 67, 0
18, 108831, Note_on_c, 12, 70, 0
18, 108840, Note_on_c, 12, 70, 84
18, 108840, Note_on_c, 12, 67, 84
18, 108891, Note_on_c, 12, 70, 0
18, 108891, Note_on_c, 12, 67, 0
18, 108900, Note_on_c, 12, 67, 84
18, 108900, Note_on_c, 12, 70, 84
18, 108951, Note_on_c, 12, 67, 0
18, 108951, Note_on_c, 12, 70, 0
18, 108960, Note_on_c, 12, 70, 84
18, 108960, Note_on_c, 12, 67, 84
18, 109011, Note_on_c, 12, 70, 0
18, 109011, Note_on_c, 12, 67, 0
18, 109020, Note_on_c, 12, 67, 84
18, 109020, Note_on_c, 12, 70, 84
18, 109071, Note_on_c, 12, 67, 0
18, 109071, Note_on_c, 12, 70, 0
18, 109080, Note_on_c, 12, 67, 84
18, 109080, Note_on_c, 12, 70, 84
18, 109131, Note_on_c, 12, 67, 0
18, 109131, Note_on_c, 12, 70, 0
18, 109140, Note_on_c, 12, 70, 84
18, 109140, Note_on_c, 12, 67, 84
18, 109191, Note_on_c, 12, 70, 0
18, 109191, Note_on_c, 12, 67, 0
18, 109200, Note_on_c, 12, 67, 84
18, 109200, Note_on_c, 12, 70, 84
18, 109251, Note_on_c, 12, 67, 0
18, 109251, Note_on_c, 12, 70, 0
18, 109260, Note_on_c, 12, 70, 84
18, 109260, Note_on_c, 12, 67, 84
18, 109311, Note_on_c, 12, 70, 0
18, 109311, Note_on_c, 12, 67, 0
18, 109320, Note_on_c, 12, 70, 84
18, 109320, Note_on_c, 12, 67, 84
18, 109371, Note_on_c, 12, 70, 0
18, 109371, Note_on_c, 12, 67, 0
18, 109380, Note_on_c, 12, 67, 84
18, 109380, Note_on_c, 12, 70, 84
18, 109431, Note_on_c, 12, 67, 0
18, 109431, Note_on_c, 12, 70, 0
18, 109440, Note_on_c, 12, 66, 84
18, 109491, Note_on_c, 12, 66, 0
18, 109500, Note_on_c, 12, 66, 84
18, 109551, Note_on_c, 12, 66, 0
18, 109560, Note_on_c, 12, 66, 84
18, 109611, Note_on_c, 12, 66, 0
18, 109620, Note_on_c, 12, 66, 84
18, 109671, Note_on_c, 12, 66, 0
18, 109680, Note_on_c, 12, 66, 84
18, 109731, Note_on_c, 12, 66, 0
18, 109740, Note_on_c, 12, 66, 84
18, 109791, Note_on_c, 12, 66, 0
18, 109800, Note_on_c, 12, 66, 84
18, 109851, Note_on_c, 12, 66, 0
18, 109860, Note_on_c, 12, 66, 84
18, 109911, Note_on_c, 12, 66, 0
18, 109920, Note_on_c, 12, 66, 84
18, 109971, Note_on_c, 12, 66, 0
18, 109980, Note_on_c, 12, 66, 84
18, 110031, Note_on_c, 12, 66, 0
18, 110040, Note_on_c, 12, 66, 84
18, 110091, Note_on_c, 12, 66, 0
18, 110100, Note_on_c, 12, 66, 84
18, 110151, Note_on_c, 12, 66, 0
18, 110160, Note_on_c, 12, 66, 84
18, 110211, Note_on_c, 12, 66, 0
18, 110220, Note_on_c, 12, 66, 84
18, 110271, Note_on_c, 12, 66, 0
18, 110280, Note_on_c, 12, 66, 84
18, 110331, Note_on_c, 12, 66, 0
18, 110340, Note_on_c, 12, 66, 84
18, 110391, Note_on_c, 12, 66, 0
18, 110400, Note_on_c, 12, 65, 92
18, 110451, Note_on_c, 12, 65, 0
18, 110460, Note_on_c, 12, 65, 84
18, 110511, Note_on_c, 12, 65, 0
18, 110520, Note_on_c, 12, 65, 84
18, 110571, Note_on_c, 12, 65, 0
18, 110580, Note_on_c, 12, 65, 84
18, 110631, Note_on_c, 12, 65, 0
18, 110640, Note_on_c, 12, 65, 84
18, 110691, Note_on_c, 12, 65, 0
18, 110700, Note_on_c, 12, 65, 84
18, 110751, Note_on_c, 12, 65, 0
18, 110760, Note_on_c, 12, 65, 84
18, 110811, Note_on_c, 12, 65, 0
18, 110820, Note_on_c, 12, 65, 84
18, 110871, Note_on_c, 12, 65, 0
18, 110880, Note_on_c, 12, 65, 84
18, 110931, Note_on_c, 12, 65, 0
18, 110940, Note_on_c, 12, 65, 84
18, 110991, Note_on_c, 12, 65, 0
18, 111000, Note_on_c, 12, 65, 84
18, 111051, Note_on_c, 12, 65, 0
18, 111060, Note_on_c, 12, 65, 84
18, 111111, Note_on_c, 12, 65, 0
18, 111120, Note_on_c, 12, 65, 84
18, 111171, Note_on_c, 12, 65, 0
18, 111180, Note_on_c, 12, 65, 84
18, 111231, Note_on_c, 12, 65, 0
18, 111240, Note_on_c, 12, 65, 84
18, 111291, Note_on_c, 12, 65, 0
18, 111300, Note_on_c, 12, 65, 84
18, 111351, Note_on_c, 12, 65, 0
18, 111360, Note_on_c, 12, 65, 84
18, 111411, Note_on_c, 12, 65, 0
18, 111420, Note_on_c, 12, 65, 84
18, 111471, Note_on_c, 12, 65, 0
18, 111480, Note_on_c, 12, 65, 84
18, 111531, Note_on_c, 12, 65, 0
18, 111540, Note_on_c, 12, 65, 84
18, 111591, Note_on_c, 12, 65, 0
18, 111600, Note_on_c, 12, 65, 84
18, 111651, Note_on_c, 12, 65, 0
18, 111660, Note_on_c, 12, 65, 84
18, 111711, Note_on_c, 12, 65, 0
18, 111720, Note_on_c, 12, 65, 84
18, 111771, Note_on_c, 12, 65, 0
18, 111780, Note_on_c, 12, 65, 84
18, 111831, Note_on_c, 12, 65, 0
18, 111840, Note_on_c, 12, 65, 84
18, 111891, Note_on_c, 12, 65, 0
18, 111900, Note_on_c, 12, 65, 84
18, 111951, Note_on_c, 12, 65, 0
18, 111960, Note_on_c, 12, 65, 84
18, 112011, Note_on_c, 12, 65, 0
18, 112020, Note_on_c, 12, 65, 84
18, 112071, Note_on_c, 12, 65, 0
18, 112080, Note_on_c, 12, 65, 84
18, 112131, Note_on_c, 12, 65, 0
18, 112140, Note_on_c, 12, 65, 84
18, 112191, Note_on_c, 12, 65, 0
18, 112200, Note_on_c, 12, 65, 84
18, 112251, Note_on_c, 12, 65, 0
18, 112260, Note_on_c, 12, 65, 84
18, 112311, Note_on_c, 12, 65, 0
18, 112320, Note_on_c, 12, 64, 92
18, 112371, Note_on_c, 12, 64, 0
18, 112380, Note_on_c, 12, 64, 84
18, 112431, Note_on_c, 12, 64, 0
18, 112440, Note_on_c, 12, 64, 83
18, 112491, Note_on_c, 12, 64, 0
18, 112500, Note_on_c, 12, 64, 81
18, 112551, Note_on_c, 12, 64, 0
18, 112560, Note_on_c, 12, 64, 80
18, 112611, Note_on_c, 12, 64, 0
18, 112620, Note_on_c, 12, 64, 78
18, 112671, Note_on_c, 12, 64, 0
18, 112680, Note_on_c, 12, 64, 76
18, 112731, Note_on_c, 12, 64, 0
18, 112740, Note_on_c, 12, 64, 75
18, 112791, Note_on_c, 12, 64, 0
18, 112800, Note_on_c, 12, 64, 73
18, 112851, Note_on_c, 12, 64, 0
18, 112860, Note_on_c, 12, 64, 72
18, 112911, Note_on_c, 12, 64, 0
18, 112920, Note_on_c, 12, 64, 70
18, 112971, Note_on_c, 12, 64, 0
18, 112980, Note_on_c, 12, 64, 68
18, 113031, Note_on_c, 12, 64, 0
18, 113040, Note_on_c, 12, 64, 67
18, 113091, Note_on_c, 12, 64, 0
18, 113100, Note_on_c, 12, 64, 65
18, 113151, Note_on_c, 12, 64, 0
18, 113160, Note_on_c, 12, 64, 64
18, 113211, Note_on_c, 12, 64, 0
18, 113220, Note_on_c, 12, 64, 62
18, 113271, Note_on_c, 12, 64, 0
18, 113280, Note_on_c, 12, 48, 60
18, 113331, Note_on_c, 12, 48, 0
18, 113340, Note_on_c, 12, 48, 60
18, 113391, Note_on_c, 12, 48, 0
18, 113400, Note_on_c, 12, 57, 60
18, 113451, Note_on_c, 12, 57, 0
18, 113460, Note_on_c, 12, 57, 60
18, 113511, Note_on_c, 12, 57, 0
18, 113520, Note_on_c, 12, 48, 60
18, 113571, Note_on_c, 12, 48, 0
18, 113580, Note_on_c, 12, 48, 60
18, 113631, Note_on_c, 12, 48, 0
18, 113640, Note_on_c, 12, 57, 60
18, 113691, Note_on_c, 12, 57, 0
18, 113700, Note_on_c, 12, 57, 60
18, 113751, Note_on_c, 12, 57, 0
18, 113760, Note_on_c, 12, 48, 60
18, 113811, Note_on_c, 12, 48, 0
18, 113820, Note_on_c, 12, 48, 60
18, 113871, Note_on_c, 12, 48, 0
18, 113880, Note_on_c, 12, 57, 60
18, 113931, Note_on_c, 12, 57, 0
18, 113940, Note_on_c, 12, 57, 60
18, 113991, Note_on_c, 12, 57, 0
18, 114000, Note_on_c, 12, 48, 60
18, 114051, Note_on_c, 12, 48, 0
18, 114060, Note_on_c, 12, 48, 60
18, 114111, Note_on_c, 12, 48, 0
18, 114120, Note_on_c, 12, 57, 60
18, 114171, Note_on_c, 12, 57, 0
18, 114180, Note_on_c, 12, 57, 60
18, 114231, Note_on_c, 12, 57, 0
18, 114240, Note_on_c, 12, 53, 60
18, 114291, Note_on_c, 12, 53, 0
18, 114300, Note_on_c, 12, 53, 60
18, 114351, Note_on_c, 12, 53, 0
18, 114360, Note_on_c, 12, 58, 60
18, 114411, Note_on_c, 12, 58, 0
18, 114420, Note_on_c, 12, 58, 60
18, 114471, Note_on_c, 12, 58, 0
18, 114480, Note_on_c, 12, 53, 60
18, 114531, Note_on_c, 12, 53, 0
18, 114540, Note_on_c, 12, 53, 60
18, 114591, Note_on_c, 12, 53, 0
18, 114600, Note_on_c, 12, 58, 59
18, 114651, Note_on_c, 12, 58, 0
18, 114660, Note_on_c, 12, 58, 59
18, 114711, Note_on_c, 12, 58, 0
18, 114720, Note_on_c, 12, 53, 59
18, 114771, Note_on_c, 12, 53, 0
18, 114780, Note_on_c, 12, 53, 59
18, 114831, Note_on_c, 12, 53, 0
18, 114840, Note_on_c, 12, 58, 59
18, 114891, Note_on_c, 12, 58, 0
18, 114900, Note_on_c, 12, 58, 59
18, 114951, Note_on_c, 12, 58, 0
18, 114960, Note_on_c, 12, 53, 59
18, 115011, Note_on_c, 12, 53, 0
18, 115020, Note_on_c, 12, 53, 59
18, 115071, Note_on_c, 12, 53, 0
18, 115080, Note_on_c, 12, 57, 59
18, 115131, Note_on_c, 12, 57, 0
18, 115140, Note_on_c, 12, 57, 59
18, 115191, Note_on_c, 12, 57, 0
18, 115200, Note_on_c, 12, 53, 59
18, 115251, Note_on_c, 12, 53, 0
18, 115260, Note_on_c, 12, 53, 59
18, 115311, Note_on_c, 12, 53, 0
18, 115320, Note_on_c, 12, 61, 59
18, 115371, Note_on_c, 12, 61, 0
18, 115380, Note_on_c, 12, 61, 59
18, 115431, Note_on_c, 12, 61, 0
18, 115440, Note_on_c, 12, 53, 59
18, 115491, Note_on_c, 12, 53, 0
18, 115500, Note_on_c, 12, 53, 59
18, 115551, Note_on_c, 12, 53, 0
18, 115560, Note_on_c, 12, 61, 59
18, 115611, Note_on_c, 12, 61, 0
18, 115620, Note_on_c, 12, 61, 59
18, 115671, Note_on_c, 12, 61, 0
18, 115680, Note_on_c, 12, 53, 59
18, 115731, Note_on_c, 12, 53, 0
18, 115740, Note_on_c, 12, 53, 59
18, 115791, Note_on_c, 12, 53, 0
18, 115800, Note_on_c, 12, 61, 59
18, 115851, Note_on_c, 12, 61, 0
18, 115860, Note_on_c, 12, 61, 59
18, 115911, Note_on_c, 12, 61, 0
18, 115920, Note_on_c, 12, 54, 58
18, 115971, Note_on_c, 12, 54, 0
18, 115980, Note_on_c, 12, 54, 58
18, 116031, Note_on_c, 12, 54, 0
18, 116040, Note_on_c, 12, 60, 58
18, 116091, Note_on_c, 12, 60, 0
18, 116100, Note_on_c, 12, 60, 58
18, 116151, Note_on_c, 12, 60, 0
18, 116160, Note_on_c, 12, 55, 58
18, 116211, Note_on_c, 12, 55, 0
18, 116220, Note_on_c, 12, 55, 58
18, 116271, Note_on_c, 12, 55, 0
18, 116280, Note_on_c, 12, 59, 58
18, 116331, Note_on_c, 12, 59, 0
18, 116340, Note_on_c, 12, 59, 58
18, 116391, Note_on_c, 12, 59, 0
18, 116400, Note_on_c, 12, 55, 58
18, 116451, Note_on_c, 12, 55, 0
18, 116460, Note_on_c, 12, 55, 58
18, 116511, Note_on_c, 12, 55, 0
18, 116520, Note_on_c, 12, 59, 58
18, 116571, Note_on_c, 12, 59, 0
18, 116580, Note_on_c, 12, 59, 58
18, 116631, Note_on_c, 12, 59, 0
18, 116640, Note_on_c, 12, 55, 58
18, 116691, Note_on_c, 12, 55, 0
18, 116700, Note_on_c, 12, 55, 58
18, 116751, Note_on_c, 12, 55, 0
18, 116760, Note_on_c, 12, 59, 58
18, 116811, Note_on_c, 12, 59, 0
18, 116820, Note_on_c, 12, 59, 58
18, 116871, Note_on_c, 12, 59, 0
18, 116880, Note_on_c, 12, 55, 58
18, 116931, Note_on_c, 12, 55, 0
18, 116940, Note_on_c, 12, 55, 58
18, 116991, Note_on_c, 12, 55, 0
18, 117000, Note_on_c, 12, 59, 58
18, 117051, Note_on_c, 12, 59, 0
18, 117060, Note_on_c, 12, 59, 58
18, 117111, Note_on_c, 12, 59, 0
18, 117120, Note_on_c, 12, 55, 58
18, 117171, Note_on_c, 12, 55, 0
18, 117180, Note_on_c, 12, 55, 58
18, 117231, Note_on_c, 12, 55, 0
18, 117240, Note_on_c, 12, 59, 57
18, 117291, Note_on_c, 12, 59, 0
18, 117300, Note_on_c, 12, 59, 57
18, 117351, Note_on_c, 12, 59, 0
18, 117360, Note_on_c, 12, 55, 57
18, 117411, Note_on_c, 12, 55, 0
18, 117420, Note_on_c, 12, 55, 57
18, 117471, Note_on_c, 12, 55, 0
18, 117480, Note_on_c, 12, 59, 57
18, 117531, Note_on_c, 12, 59, 0
18, 117540, Note_on_c, 12, 59, 57
18, 117591, Note_on_c, 12, 59, 0
18, 117600, Note_on_c, 12, 55, 57
18, 117651, Note_on_c, 12, 55, 0
18, 117660, Note_on_c, 12, 55, 57
18, 117711, Note_on_c, 12, 55, 0
18, 117720, Note_on_c, 12, 59, 57
18, 117771, Note_on_c, 12, 59, 0
18, 117780, Note_on_c, 12, 59, 57
18, 117831, Note_on_c, 12, 59, 0
18, 117840, Note_on_c, 12, 55, 57
18, 117891, Note_on_c, 12, 55, 0
18, 117900, Note_on_c, 12, 55, 57
18, 117951, Note_on_c, 12, 55, 0
18, 117960, Note_on_c, 12, 59, 57
18, 118011, Note_on_c, 12, 59, 0
18, 118020, Note_on_c, 12, 59, 57
18, 118071, Note_on_c, 12, 59, 0
18, 118080, Note_on_c, 12, 55, 57
18, 118131, Note_on_c, 12, 55, 0
18, 118140, Note_on_c, 12, 55, 57
18, 118191, Note_on_c, 12, 55, 0
18, 118200, Note_on_c, 12, 60, 57
18, 118251, Note_on_c, 12, 60, 0
18, 118260, Note_on_c, 12, 60, 57
18, 118311, Note_on_c, 12, 60, 0
18, 118320, Note_on_c, 12, 55, 57
18, 118371, Note_on_c, 12, 55, 0
18, 118380, Note_on_c, 12, 55, 57
18, 118431, Note_on_c, 12, 55, 0
18, 118440, Note_on_c, 12, 60, 57
18, 118491, Note_on_c, 12, 60, 0
18, 118500, Note_on_c, 12, 60, 57
18, 118551, Note_on_c, 12, 60, 0
18, 118560, Note_on_c, 12, 55, 56
18, 118611, Note_on_c, 12, 55, 0
18, 118620, Note_on_c, 12, 55, 56
18, 118671, Note_on_c, 12, 55, 0
18, 118680, Note_on_c, 12, 60, 56
18, 118731, Note_on_c, 12, 60, 0
18, 118740, Note_on_c, 12, 60, 56
18, 118791, Note_on_c, 12, 60, 0
18, 118800, Note_on_c, 12, 53, 56
18, 118851, Note_on_c, 12, 53, 0
18, 118860, Note_on_c, 12, 53, 56
18, 118911, Note_on_c, 12, 53, 0
18, 118920, Note_on_c, 12, 59, 56
18, 118971, Note_on_c, 12, 59, 0
18, 118980, Note_on_c, 12, 59, 56
18, 119031, Note_on_c, 12, 59, 0
18, 119040, Note_on_c, 12, 51, 56
18, 119091, Note_on_c, 12, 51, 0
18, 119100, Note_on_c, 12, 51, 56
18, 119151, Note_on_c, 12, 51, 0
18, 119160, Note_on_c, 12, 60, 56
18, 119211, Note_on_c, 12, 60, 0
18, 119220, Note_on_c, 12, 60, 56
18, 119271, Note_on_c, 12, 60, 0
18, 119280, Note_on_c, 12, 51, 56
18, 119331, Note_on_c, 12, 51, 0
18, 119340, Note_on_c, 12, 51, 56
18, 119391, Note_on_c, 12, 51, 0
18, 119400, Note_on_c, 12, 60, 56
18, 119451, Note_on_c, 12, 60, 0
18, 119460, Note_on_c, 12, 60, 56
18, 119511, Note_on_c, 12, 60, 0
18, 119520, Note_on_c, 12, 51, 56
18, 119571, Note_on_c, 12, 51, 0
18, 119580, Note_on_c, 12, 51, 56
18, 119631, Note_on_c, 12, 51, 0
18, 119640, Note_on_c, 12, 60, 56
18, 119691, Note_on_c, 12, 60, 0
18, 119700, Note_on_c, 12, 60, 56
18, 119751, Note_on_c, 12, 60, 0
18, 119760, Note_on_c, 12, 51, 56
18, 119811, Note_on_c, 12, 51, 0
18, 119820, Note_on_c, 12, 51, 56
18, 119871, Note_on_c, 12, 51, 0
18, 119880, Note_on_c, 12, 61, 55
18, 119931, Note_on_c, 12, 61, 0
18, 119940, Note_on_c, 12, 61, 55
18, 119991, Note_on_c, 12, 61, 0
18, 120000, Note_on_c, 12, 51, 55
18, 120051, Note_on_c, 12, 51, 0
18, 120060, Note_on_c, 12, 51, 55
18, 120111, Note_on_c, 12, 51, 0
18, 120120, Note_on_c, 12, 51, 55
18, 120171, Note_on_c, 12, 51, 0
18, 120180, Note_on_c, 12, 51, 55
18, 120231, Note_on_c, 12, 51, 0
18, 120240, Note_on_c, 12, 48, 55
18, 120291, Note_on_c, 12, 48, 0
18, 120300, Note_on_c, 12, 48, 55
18, 120351, Note_on_c, 12, 48, 0
18, 120360, Note_on_c, 12, 51, 55
18, 120411, Note_on_c, 12, 51, 0
18, 120420, Note_on_c, 12, 51, 55
18, 120471, Note_on_c, 12, 51, 0
18, 120480, Note_on_c, 12, 48, 55
18, 120531, Note_on_c, 12, 48, 0
18, 120540, Note_on_c, 12, 48, 55
18, 120591, Note_on_c, 12, 48, 0
18, 120600, Note_on_c, 12, 51, 55
18, 120651, Note_on_c, 12, 51, 0
18, 120660, Note_on_c, 12, 51, 55
18, 120711, Note_on_c, 12, 51, 0
18, 120720, Note_on_c, 12, 48, 55
18, 120771, Note_on_c, 12, 48, 0
18, 120780, Note_on_c, 12, 48, 55
18, 120831, Note_on_c, 12, 48, 0
18, 120840, Note_on_c, 12, 51, 55
18, 120891, Note_on_c, 12, 51, 0
18, 120900, Note_on_c, 12, 51, 55
18, 120951, Note_on_c, 12, 51, 0
18, 120960, Note_on_c, 12, 48, 55
18, 121011, Note_on_c, 12, 48, 0
18, 121020, Note_on_c, 12, 48, 55
18, 121071, Note_on_c, 12, 48, 0
18, 121080, Note_on_c, 12, 51, 55
18, 121131, Note_on_c, 12, 51, 0
18, 121140, Note_on_c, 12, 51, 55
18, 121191, Note_on_c, 12, 51, 0
18, 121200, Note_on_c, 12, 48, 54
18, 121251, Note_on_c, 12, 48, 0
18, 121260, Note_on_c, 12, 48, 54
18, 121311, Note_on_c, 12, 48, 0
18, 121320, Note_on_c, 12, 51, 54
18, 121371, Note_on_c, 12, 51, 0
18, 121380, Note_on_c, 12, 51, 54
18, 121431, Note_on_c, 12, 51, 0
18, 121440, Note_on_c, 12, 48, 54
18, 121491, Note_on_c, 12, 48, 0
18, 121500, Note_on_c, 12, 48, 54
18, 121551, Note_on_c, 12, 48, 0
18, 121560, Note_on_c, 12, 51, 54
18, 121611, Note_on_c, 12, 51, 0
18, 121620, Note_on_c, 12, 51, 54
18, 121671, Note_on_c, 12, 51, 0
18, 121680, Note_on_c, 12, 48, 54
18, 121731, Note_on_c, 12, 48, 0
18, 121740, Note_on_c, 12, 48, 54
18, 121791, Note_on_c, 12, 48, 0
18, 121800, Note_on_c, 12, 51, 54
18, 121851, Note_on_c, 12, 51, 0
18, 121860, Note_on_c, 12, 51, 54
18, 121911, Note_on_c, 12, 51, 0
18, 121920, Note_on_c, 12, 49, 54
18, 121971, Note_on_c, 12, 49, 0
18, 121980, Note_on_c, 12, 49, 54
18, 122031, Note_on_c, 12, 49, 0
18, 122040, Note_on_c, 12, 53, 54
18, 122091, Note_on_c, 12, 53, 0
18, 122100, Note_on_c, 12, 53, 54
18, 122151, Note_on_c, 12, 53, 0
18, 122160, Note_on_c, 12, 49, 54
18, 122211, Note_on_c, 12, 49, 0
18, 122220, Note_on_c, 12, 49, 54
18, 122271, Note_on_c, 12, 49, 0
18, 122280, Note_on_c, 12, 53, 54
18, 122331, Note_on_c, 12, 53, 0
18, 122340, Note_on_c, 12, 53, 54
18, 122391, Note_on_c, 12, 53, 0
18, 122400, Note_on_c, 12, 49, 54
18, 122451, Note_on_c, 12, 49, 0
18, 122460, Note_on_c, 12, 49, 54
18, 122511, Note_on_c, 12, 49, 0
18, 122520, Note_on_c, 12, 53, 53
18, 122571, Note_on_c, 12, 53, 0
18, 122580, Note_on_c, 12, 53, 53
18, 122631, Note_on_c, 12, 53, 0
18, 122640, Note_on_c, 12, 48, 53
18, 122691, Note_on_c, 12, 48, 0
18, 122700, Note_on_c, 12, 48, 53
18, 122751, Note_on_c, 12, 48, 0
18, 122760, Note_on_c, 12, 54, 53
18, 122811, Note_on_c, 12, 54, 0
18, 122820, Note_on_c, 12, 54, 53
18, 122871, Note_on_c, 12, 54, 0
18, 122880, Note_on_c, 12, 53, 53
18, 122931, Note_on_c, 12, 53, 0
18, 122940, Note_on_c, 12, 53, 53
18, 122991, Note_on_c, 12, 53, 0
18, 123000, Note_on_c, 12, 56, 53
18, 123051, Note_on_c, 12, 56, 0
18, 123060, Note_on_c, 12, 56, 53
18, 123111, Note_on_c, 12, 56, 0
18, 123120, Note_on_c, 12, 53, 53
18, 123171, Note_on_c, 12, 53, 0
18, 123180, Note_on_c, 12, 53, 53
18, 123231, Note_on_c, 12, 53, 0
18, 123240, Note_on_c, 12, 56, 53
18, 123291, Note_on_c, 12, 56, 0
18, 123300, Note_on_c, 12, 56, 53
18, 123351, Note_on_c, 12, 56, 0
18, 123360, Note_on_c, 12, 53, 53
18, 123411, Note_on_c, 12, 53, 0
18, 123420, Note_on_c, 12, 53, 53
18, 123471, Note_on_c, 12, 53, 0
18, 123480, Note_on_c, 12, 56, 53
18, 123531, Note_on_c, 12, 56, 0
18, 123540, Note_on_c, 12, 56, 53
18, 123591, Note_on_c, 12, 56, 0
18, 123600, Note_on_c, 12, 53, 53
18, 123651, Note_on_c, 12, 53, 0
18, 123660, Note_on_c, 12, 53, 53
18, 123711, Note_on_c, 12, 53, 0
18, 123720, Note_on_c, 12, 68, 53
18, 123720, Note_on_c, 12, 65, 53
18, 123771, Note_on_c, 12, 68, 0
18, 123771, Note_on_c, 12, 65, 0
18, 123780, Note_on_c, 12, 65, 53
18, 123780, Note_on_c, 12, 68, 53
18, 123831, Note_on_c, 12, 65, 0
18, 123831, Note_on_c, 12, 68, 0
18, 123840, Note_on_c, 12, 65, 52
18, 123840, Note_on_c, 12, 68, 52
18, 123891, Note_on_c, 12, 65, 0
18, 123891, Note_on_c, 12, 68, 0
18, 123900, Note_on_c, 12, 68, 52
18, 123900, Note_on_c, 12, 65, 52
18, 123951, Note_on_c, 12, 68, 0
18, 123951, Note_on_c, 12, 65, 0
18, 123960, Note_on_c, 12, 65, 52
18, 123960, Note_on_c, 12, 68, 52
18, 124011, Note_on_c, 12, 65, 0
18, 124011, Note_on_c, 12, 68, 0
18, 124020, Note_on_c, 12, 65, 52
18, 124020, Note_on_c, 12, 68, 52
18, 124071, Note_on_c, 12, 65, 0
18, 124071, Note_on_c, 12, 68, 0
18, 124080, Note_on_c, 12, 65, 52
18, 124080, Note_on_c, 12, 68, 52
18, 124131, Note_on_c, 12, 65, 0
18, 124131, Note_on_c, 12, 68, 0
18, 124140, Note_on_c, 12, 65, 52
18, 124140, Note_on_c, 12, 68, 52
18, 124191, Note_on_c, 12, 65, 0
18, 124191, Note_on_c, 12, 68, 0
18, 124200, Note_on_c, 12, 68, 52
18, 124200, Note_on_c, 12, 65, 52
18, 124251, Note_on_c, 12, 68, 0
18, 124251, Note_on_c, 12, 65, 0
18, 124260, Note_on_c, 12, 65, 52
18, 124260, Note_on_c, 12, 68, 52
18, 124311, Note_on_c, 12, 65, 0
18, 124311, Note_on_c, 12, 68, 0
18, 124320, Note_on_c, 12, 65, 52
18, 124320, Note_on_c, 12, 68, 52
18, 124371, Note_on_c, 12, 65, 0
18, 124371, Note_on_c, 12, 68, 0
18, 124380, Note_on_c, 12, 65, 52
18, 124380, Note_on_c, 12, 68, 52
18, 124431, Note_on_c, 12, 65, 0
18, 124431, Note_on_c, 12, 68, 0
18, 124440, Note_on_c, 12, 65, 52
18, 124440, Note_on_c, 12, 68, 52
18, 124491, Note_on_c, 12, 65, 0
18, 124491, Note_on_c, 12, 68, 0
18, 124500, Note_on_c, 12, 68, 52
18, 124500, Note_on_c, 12, 65, 52
18, 124551, Note_on_c, 12, 68, 0
18, 124551, Note_on_c, 12, 65, 0
18, 124560, Note_on_c, 12, 65, 52
18, 124560, Note_on_c, 12, 68, 52
18, 124611, Note_on_c, 12, 65, 0
18, 124611, Note_on_c, 12, 68, 0
18, 124620, Note_on_c, 12, 65, 52
18, 124620, Note_on_c, 12, 68, 52
18, 124671, Note_on_c, 12, 65, 0
18, 124671, Note_on_c, 12, 68, 0
18, 124680, Note_on_c, 12, 65, 52
18, 124680, Note_on_c, 12, 68, 52
18, 124731, Note_on_c, 12, 65, 0
18, 124731, Note_on_c, 12, 68, 0
18, 124740, Note_on_c, 12, 68, 52
18, 124740, Note_on_c, 12, 65, 52
18, 124791, Note_on_c, 12, 68, 0
18, 124791, Note_on_c, 12, 65, 0
18, 124800, Note_on_c, 12, 68, 52
18, 124800, Note_on_c, 12, 65, 52
18, 124851, Note_on_c, 12, 68, 0
18, 124851, Note_on_c, 12, 65, 0
18, 124860, Note_on_c, 12, 65, 52
18, 124860, Note_on_c, 12, 68, 52
18, 124911, Note_on_c, 12, 65, 0
18, 124911, Note_on_c, 12, 68, 0
18, 124920, Note_on_c, 12, 68, 52
18, 124920, Note_on_c, 12, 65, 52
18, 124971, Note_on_c, 12, 68, 0
18, 124971, Note_on_c, 12, 65, 0
18, 124980, Note_on_c, 12, 65, 52
18, 124980, Note_on_c, 12, 68, 52
18, 125031, Note_on_c, 12, 65, 0
18, 125031, Note_on_c, 12, 68, 0
18, 125040, Note_on_c, 12, 68, 52
18, 125040, Note_on_c, 12, 65, 52
18, 125091, Note_on_c, 12, 68, 0
18, 125091, Note_on_c, 12, 65, 0
18, 125100, Note_on_c, 12, 65, 52
18, 125100, Note_on_c, 12, 68, 52
18, 125151, Note_on_c, 12, 65, 0
18, 125151, Note_on_c, 12, 68, 0
18, 125160, Note_on_c, 12, 68, 52
18, 125160, Note_on_c, 12, 65, 52
18, 125211, Note_on_c, 12, 68, 0
18, 125211, Note_on_c, 12, 65, 0
18, 125220, Note_on_c, 12, 65, 52
18, 125220, Note_on_c, 12, 68, 52
18, 125271, Note_on_c, 12, 65, 0
18, 125271, Note_on_c, 12, 68, 0
18, 125280, Note_on_c, 12, 65, 52
18, 125280, Note_on_c, 12, 68, 52
18, 125331, Note_on_c, 12, 65, 0
18, 125331, Note_on_c, 12, 68, 0
18, 125340, Note_on_c, 12, 65, 52
18, 125340, Note_on_c, 12, 68, 52
18, 125391, Note_on_c, 12, 65, 0
18, 125391, Note_on_c, 12, 68, 0
18, 125400, Note_on_c, 12, 65, 52
18, 125400, Note_on_c, 12, 68, 52
18, 125451, Note_on_c, 12, 65, 0
18, 125451, Note_on_c, 12, 68, 0
18, 125460, Note_on_c, 12, 68, 52
18, 125460, Note_on_c, 12, 65, 52
18, 125511, Note_on_c, 12, 68, 0
18, 125511, Note_on_c, 12, 65, 0
18, 125520, Note_on_c, 12, 65, 52
18, 125520, Note_on_c, 12, 68, 52
18, 125571, Note_on_c, 12, 65, 0
18, 125571, Note_on_c, 12, 68, 0
18, 125580, Note_on_c, 12, 65, 52
18, 125580, Note_on_c, 12, 68, 52
18, 125631, Note_on_c, 12, 65, 0
18, 125631, Note_on_c, 12, 68, 0
18, 125640, Note_on_c, 12, 65, 52
18, 125640, Note_on_c, 12, 68, 52
18, 125691, Note_on_c, 12, 65, 0
18, 125691, Note_on_c, 12, 68, 0
18, 125700, Note_on_c, 12, 65, 52
18, 125700, Note_on_c, 12, 68, 52
18, 125751, Note_on_c, 12, 65, 0
18, 125751, Note_on_c, 12, 68, 0
18, 125760, Note_on_c, 12, 65, 52
18, 125760, Note_on_c, 12, 67, 52
18, 125811, Note_on_c, 12, 65, 0
18, 125811, Note_on_c, 12, 67, 0
18, 125820, Note_on_c, 12, 65, 52
18, 125820, Note_on_c, 12, 67, 52
18, 125871, Note_on_c, 12, 65, 0
18, 125871, Note_on_c, 12, 67, 0
18, 125880, Note_on_c, 12, 67, 52
18, 125880, Note_on_c, 12, 65, 52
18, 125931, Note_on_c, 12, 67, 0
18, 125931, Note_on_c, 12, 65, 0
18, 125940, Note_on_c, 12, 67, 52
18, 125940, Note_on_c, 12, 65, 52
18, 125991, Note_on_c, 12, 67, 0
18, 125991, Note_on_c, 12, 65, 0
18, 126000, Note_on_c, 12, 65, 52
18, 126000, Note_on_c, 12, 67, 52
18, 126051, Note_on_c, 12, 65, 0
18, 126051, Note_on_c, 12, 67, 0
18, 126060, Note_on_c, 12, 65, 52
18, 126060, Note_on_c, 12, 67, 52
18, 126111, Note_on_c, 12, 65, 0
18, 126111, Note_on_c, 12, 67, 0
18, 126120, Note_on_c, 12, 65, 52
18, 126120, Note_on_c, 12, 67, 52
18, 126171, Note_on_c, 12, 65, 0
18, 126171, Note_on_c, 12, 67, 0
18, 126180, Note_on_c, 12, 67, 52
18, 126180, Note_on_c, 12, 65, 52
18, 126231, Note_on_c, 12, 67, 0
18, 126231, Note_on_c, 12, 65, 0
18, 126240, Note_on_c, 12, 65, 51
18, 126240, Note_on_c, 12, 67, 51
18, 126291, Note_on_c, 12, 65, 0
18, 126291, Note_on_c, 12, 67, 0
18, 126300, Note_on_c, 12, 65, 51
18, 126300, Note_on_c, 12, 67, 51
18, 126351, Note_on_c, 12, 65, 0
18, 126351, Note_on_c, 12, 67, 0
18, 126360, Note_on_c, 12, 65, 51
18, 126360, Note_on_c, 12, 67, 51
18, 126411, Note_on_c, 12, 65, 0
18, 126411, Note_on_c, 12, 67, 0
18, 126420, Note_on_c, 12, 65, 51
18, 126420, Note_on_c, 12, 67, 51
18, 126471, Note_on_c, 12, 65, 0
18, 126471, Note_on_c, 12, 67, 0
18, 126480, Note_on_c, 12, 65, 51
18, 126480, Note_on_c, 12, 67, 51
18, 126531, Note_on_c, 12, 65, 0
18, 126531, Note_on_c, 12, 67, 0
18, 126540, Note_on_c, 12, 65, 51
18, 126540, Note_on_c, 12, 67, 51
18, 126591, Note_on_c, 12, 65, 0
18, 126591, Note_on_c, 12, 67, 0
18, 126600, Note_on_c, 12, 67, 51
18, 126600, Note_on_c, 12, 65, 51
18, 126651, Note_on_c, 12, 67, 0
18, 126651, Note_on_c, 12, 65, 0
18, 126660, Note_on_c, 12, 65, 51
18, 126660, Note_on_c, 12, 67, 51
18, 126711, Note_on_c, 12, 65, 0
18, 126711, Note_on_c, 12, 67, 0
18, 126720, Note_on_c, 12, 67, 50
18, 126720, Note_on_c, 12, 65, 50
18, 126771, Note_on_c, 12, 67, 0
18, 126771, Note_on_c, 12, 65, 0
18, 126780, Note_on_c, 12, 67, 50
18, 126780, Note_on_c, 12, 65, 50
18, 126831, Note_on_c, 12, 67, 0
18, 126831, Note_on_c, 12, 65, 0
18, 126840, Note_on_c, 12, 65, 50
18, 126840, Note_on_c, 12, 67, 50
18, 126891, Note_on_c, 12, 65, 0
18, 126891, Note_on_c, 12, 67, 0
18, 126900, Note_on_c, 12, 65, 50
18, 126900, Note_on_c, 12, 67, 50
18, 126951, Note_on_c, 12, 65, 0
18, 126951, Note_on_c, 12, 67, 0
18, 126960, Note_on_c, 12, 65, 50
18, 126960, Note_on_c, 12, 67, 50
18, 127011, Note_on_c, 12, 65, 0
18, 127011, Note_on_c, 12, 67, 0
18, 127020, Note_on_c, 12, 67, 50
18, 127020, Note_on_c, 12, 65, 50
18, 127071, Note_on_c, 12, 67, 0
18, 127071, Note_on_c, 12, 65, 0
18, 127080, Note_on_c, 12, 67, 50
18, 127080, Note_on_c, 12, 65, 50
18, 127131, Note_on_c, 12, 67, 0
18, 127131, Note_on_c, 12, 65, 0
18, 127140, Note_on_c, 12, 65, 50
18, 127140, Note_on_c, 12, 67, 50
18, 127191, Note_on_c, 12, 65, 0
18, 127191, Note_on_c, 12, 67, 0
18, 127200, Note_on_c, 12, 65, 49
18, 127200, Note_on_c, 12, 67, 49
18, 127251, Note_on_c, 12, 65, 0
18, 127251, Note_on_c, 12, 67, 0
18, 127260, Note_on_c, 12, 65, 49
18, 127260, Note_on_c, 12, 67, 49
18, 127311, Note_on_c, 12, 65, 0
18, 127311, Note_on_c, 12, 67, 0
18, 127320, Note_on_c, 12, 67, 49
18, 127320, Note_on_c, 12, 65, 49
18, 127371, Note_on_c, 12, 67, 0
18, 127371, Note_on_c, 12, 65, 0
18, 127380, Note_on_c, 12, 67, 49
18, 127380, Note_on_c, 12, 65, 49
18, 127431, Note_on_c, 12, 67, 0
18, 127431, Note_on_c, 12, 65, 0
18, 127440, Note_on_c, 12, 65, 49
18, 127440, Note_on_c, 12, 67, 49
18, 127491, Note_on_c, 12, 65, 0
18, 127491, Note_on_c, 12, 67, 0
18, 127500, Note_on_c, 12, 67, 49
18, 127500, Note_on_c, 12, 65, 49
18, 127551, Note_on_c, 12, 67, 0
18, 127551, Note_on_c, 12, 65, 0
18, 127560, Note_on_c, 12, 65, 49
18, 127560, Note_on_c, 12, 67, 49
18, 127611, Note_on_c, 12, 65, 0
18, 127611, Note_on_c, 12, 67, 0
18, 127620, Note_on_c, 12, 67, 49
18, 127620, Note_on_c, 12, 65, 49
18, 127671, Note_on_c, 12, 67, 0
18, 127671, Note_on_c, 12, 65, 0
18, 127680, Note_on_c, 12, 65, 48
18, 127680, Note_on_c, 12, 67, 48
18, 127731, Note_on_c, 12, 65, 0
18, 127731, Note_on_c, 12, 67, 0
18, 127740, Note_on_c, 12, 67, 48
18, 127740, Note_on_c, 12, 65, 48
18, 127791, Note_on_c, 12, 67, 0
18, 127791, Note_on_c, 12, 65, 0
18, 127800, Note_on_c, 12, 65, 48
18, 127800, Note_on_c, 12, 67, 48
18, 127851, Note_on_c, 12, 65, 0
18, 127851, Note_on_c, 12, 67, 0
18, 127860, Note_on_c, 12, 67, 48
18, 127860, Note_on_c, 12, 65, 48
18, 127911, Note_on_c, 12, 67, 0
18, 127911, Note_on_c, 12, 65, 0
18, 127920, Note_on_c, 12, 65, 48
18, 127920, Note_on_c, 12, 67, 48
18, 127971, Note_on_c, 12, 65, 0
18, 127971, Note_on_c, 12, 67, 0
18, 127980, Note_on_c, 12, 65, 48
18, 127980, Note_on_c, 12, 67, 48
18, 128031, Note_on_c, 12, 65, 0
18, 128031, Note_on_c, 12, 67, 0
18, 128040, Note_on_c, 12, 65, 48
18, 128040, Note_on_c, 12, 67, 48
18, 128091, Note_on_c, 12, 65, 0
18, 128091, Note_on_c, 12, 67, 0
18, 128100, Note_on_c, 12, 65, 48
18, 128100, Note_on_c, 12, 67, 48
18, 128151, Note_on_c, 12, 65, 0
18, 128151, Note_on_c, 12, 67, 0
18, 128160, Note_on_c, 12, 67, 47
18, 128160, Note_on_c, 12, 65, 47
18, 128211, Note_on_c, 12, 67, 0
18, 128211, Note_on_c, 12, 65, 0
18, 128220, Note_on_c, 12, 65, 47
18, 128220, Note_on_c, 12, 67, 47
18, 128271, Note_on_c, 12, 65, 0
18, 128271, Note_on_c, 12, 67, 0
18, 128280, Note_on_c, 12, 65, 47
18, 128280, Note_on_c, 12, 67, 47
18, 128331, Note_on_c, 12, 65, 0
18, 128331, Note_on_c, 12, 67, 0
18, 128340, Note_on_c, 12, 67, 47
18, 128340, Note_on_c, 12, 65, 47
18, 128391, Note_on_c, 12, 67, 0
18, 128391, Note_on_c, 12, 65, 0
18, 128400, Note_on_c, 12, 65, 47
18, 128400, Note_on_c, 12, 67, 47
18, 128451, Note_on_c, 12, 65, 0
18, 128451, Note_on_c, 12, 67, 0
18, 128460, Note_on_c, 12, 67, 47
18, 128460, Note_on_c, 12, 65, 47
18, 128511, Note_on_c, 12, 67, 0
18, 128511, Note_on_c, 12, 65, 0
18, 128520, Note_on_c, 12, 65, 47
18, 128520, Note_on_c, 12, 67, 47
18, 128571, Note_on_c, 12, 65, 0
18, 128571, Note_on_c, 12, 67, 0
18, 128580, Note_on_c, 12, 65, 47
18, 128580, Note_on_c, 12, 67, 47
18, 128631, Note_on_c, 12, 65, 0
18, 128631, Note_on_c, 12, 67, 0
18, 128640, Note_on_c, 12, 65, 46
18, 128640, Note_on_c, 12, 67, 46
18, 128691, Note_on_c, 12, 65, 0
18, 128691, Note_on_c, 12, 67, 0
18, 128700, Note_on_c, 12, 65, 46
18, 128700, Note_on_c, 12, 67, 46
18, 128751, Note_on_c, 12, 65, 0
18, 128751, Note_on_c, 12, 67, 0
18, 128760, Note_on_c, 12, 67, 46
18, 128760, Note_on_c, 12, 65, 46
18, 128811, Note_on_c, 12, 67, 0
18, 128811, Note_on_c, 12, 65, 0
18, 128820, Note_on_c, 12, 65, 46
18, 128820, Note_on_c, 12, 67, 46
18, 128871, Note_on_c, 12, 65, 0
18, 128871, Note_on_c, 12, 67, 0
18, 128880, Note_on_c, 12, 67, 46
18, 128880, Note_on_c, 12, 65, 46
18, 128931, Note_on_c, 12, 67, 0
18, 128931, Note_on_c, 12, 65, 0
18, 128940, Note_on_c, 12, 67, 46
18, 128940, Note_on_c, 12, 65, 46
18, 128991, Note_on_c, 12, 67, 0
18, 128991, Note_on_c, 12, 65, 0
18, 129000, Note_on_c, 12, 67, 46
18, 129000, Note_on_c, 12, 65, 46
18, 129051, Note_on_c, 12, 67, 0
18, 129051, Note_on_c, 12, 65, 0
18, 129060, Note_on_c, 12, 65, 46
18, 129060, Note_on_c, 12, 67, 46
18, 129111, Note_on_c, 12, 65, 0
18, 129111, Note_on_c, 12, 67, 0
18, 129120, Note_on_c, 12, 67, 45
18, 129120, Note_on_c, 12, 65, 45
18, 129171, Note_on_c, 12, 67, 0
18, 129171, Note_on_c, 12, 65, 0
18, 129180, Note_on_c, 12, 65, 45
18, 129180, Note_on_c, 12, 67, 45
18, 129231, Note_on_c, 12, 65, 0
18, 129231, Note_on_c, 12, 67, 0
18, 129240, Note_on_c, 12, 67, 45
18, 129240, Note_on_c, 12, 65, 45
18, 129291, Note_on_c, 12, 67, 0
18, 129291, Note_on_c, 12, 65, 0
18, 129300, Note_on_c, 12, 65, 45
18, 129300, Note_on_c, 12, 67, 45
18, 129351, Note_on_c, 12, 65, 0
18, 129351, Note_on_c, 12, 67, 0
18, 129360, Note_on_c, 12, 65, 45
18, 129360, Note_on_c, 12, 67, 45
18, 129411, Note_on_c, 12, 65, 0
18, 129411, Note_on_c, 12, 67, 0
18, 129420, Note_on_c, 12, 67, 45
18, 129420, Note_on_c, 12, 65, 45
18, 129471, Note_on_c, 12, 67, 0
18, 129471, Note_on_c, 12, 65, 0
18, 129480, Note_on_c, 12, 65, 45
18, 129480, Note_on_c, 12, 67, 45
18, 129531, Note_on_c, 12, 65, 0
18, 129531, Note_on_c, 12, 67, 0
18, 129540, Note_on_c, 12, 67, 45
18, 129540, Note_on_c, 12, 65, 45
18, 129591, Note_on_c, 12, 67, 0
18, 129591, Note_on_c, 12, 65, 0
18, 129600, Note_on_c, 12, 67, 44
18, 129600, Note_on_c, 12, 64, 44
18, 129839, Note_on_c, 12, 67, 0
18, 129839, Note_on_c, 12, 64, 0
18, 130560, Note_on_c, 12, 60, 76
18, 130560, Note_on_c, 12, 64, 76
18, 131504, Note_on_c, 12, 60, 0
18, 131504, Note_on_c, 12, 64, 0
18, 131520, Note_on_c, 12, 65, 52
18, 131520, Note_on_c, 12, 62, 52
18, 131759, Note_on_c, 12, 65, 0
18, 131759, Note_on_c, 12, 62, 0
18, 132480, Note_on_c, 12, 62, 76
18, 132480, Note_on_c, 12, 65, 76
18, 133424, Note_on_c, 12, 62, 0
18, 133424, Note_on_c, 12, 65, 0
18, 133440, Note_on_c, 12, 64, 52
18, 133679, Note_on_c, 12, 64, 0
18, 134784, Control_c, 12, 11, 124
18, 134880, Note_on_c, 12, 60, 52
18, 134880, Note_on_c, 12, 64, 52
18, 134912, Control_c, 12, 11, 123
18, 135040, Control_c, 12, 11, 122
18, 135168, Control_c, 12, 11, 121
18, 135296, Control_c, 12, 11, 120
18, 135344, Note_on_c, 12, 60, 0
18, 135344, Note_on_c, 12, 64, 0
18, 135360, Note_on_c, 12, 62, 52
18, 135360, Note_on_c, 12, 65, 52
18, 135424, Control_c, 12, 11, 119
18, 135552, Control_c, 12, 11, 118
18, 135599, Note_on_c, 12, 62, 0
18, 135599, Note_on_c, 12, 65, 0
18, 136320, Control_c, 12, 11, 127
18, 136800, Note_on_c, 12, 62, 44
18, 136800, Note_on_c, 12, 65, 44
18, 137264, Note_on_c, 12, 62, 0
18, 137264, Note_on_c, 12, 65, 0
18, 137280, Note_on_c, 12, 60, 44
18, 139199, Note_on_c, 12, 60, 0
18, 139200, Note_on_c, 12, 60, 48
18, 139664, Note_on_c, 12, 60, 0
18, 139680, Note_on_c, 12, 52, 48
18, 140159, Note_on_c, 12, 52, 0
18, 140160, Note_on_c, 12, 53, 48
18, 140639, Note_on_c, 12, 53, 0
18, 140640, Note_on_c, 12, 52, 48
18, 141119, Note_on_c, 12, 52, 0
18, 141120, Note_on_c, 12, 57, 48
18, 141599, Note_on_c, 12, 57, 0
18, 141600, Note_on_c, 12, 55, 48
18, 142079, Note_on_c, 12, 55, 0
18, 142080, Note_on_c, 12, 53, 48
18, 143024, Note_on_c, 12, 53, 0
18, 143040, Note_on_c, 12, 52, 48
18, 143519, Note_on_c, 12, 52, 0
18, 143520, Note_on_c, 12, 55, 48
18, 143520, Note_on_c, 12, 52, 48
18, 143999, Note_on_c, 12, 55, 0
18, 143999, Note_on_c, 12, 52, 0
18, 144000, Note_on_c, 12, 57, 48
18, 144000, Note_on_c, 12, 53, 48
18, 144479, Note_on_c, 12, 57, 0
18, 144479, Note_on_c, 12, 53, 0
18, 144480, Note_on_c, 12, 55, 48
18, 144480, Note_on_c, 12, 52, 48
18, 144959, Note_on_c, 12, 55, 0
18, 144959, Note_on_c, 12, 52, 0
18, 144960, Note_on_c, 12, 57, 48
18, 145439, Note_on_c, 12, 57, 0
18, 145440, Note_on_c, 12, 55, 48
18, 145919, Note_on_c, 12, 55, 0
18, 145920, Note_on_c, 12, 53, 48
18, 146399, Note_on_c, 12, 53, 0
18, 146400, Note_on_c, 12, 52, 48
18, 146864, Note_on_c, 12, 52, 0
18, 146880, Note_on_c, 12, 53, 48
18, 146880, Note_on_c, 12, 50, 48
18, 148544, Note_on_c, 12, 53, 0
18, 148559, Note_on_c, 12, 50, 0
18, 148560, Note_on_c, 12, 55, 48
18, 148784, Note_on_c, 12, 55, 0
18, 148784, End_track
19, 0, Start_track
19, 0, Title_t, "Cello"
19, 0, MIDI_port, 0
19, 0, Control_c, 14, 7, 96
19, 0, Control_c, 14, 10, 90
19, 0, Program_c, 14, 48
19, 0, Control_c, 14, 11, 127
19, 0, Note_on_c, 14, 49, 44
19, 51, Note_on_c, 14, 49, 0
19, 60, Note_on_c, 14, 49, 44
19, 111, Note_on_c, 14, 49, 0
19, 120, Note_on_c, 14, 49, 44
19, 171, Note_on_c, 14, 49, 0
19, 180, Note_on_c, 14, 49, 44
19, 231, Note_on_c, 14, 49, 0
19, 240, Note_on_c, 14, 49, 44
19, 291, Note_on_c, 14, 49, 0
19, 300, Note_on_c, 14, 49, 44
19, 351, Note_on_c, 14, 49, 0
19, 360, Note_on_c, 14, 49, 44
19, 411, Note_on_c, 14, 49, 0
19, 420, Note_on_c, 14, 49, 44
19, 471, Note_on_c, 14, 49, 0
19, 480, Note_on_c, 14, 49, 44
19, 531, Note_on_c, 14, 49, 0
19, 540, Note_on_c, 14, 49, 44
19, 591, Note_on_c, 14, 49, 0
19, 600, Note_on_c, 14, 49, 44
19, 651, Note_on_c, 14, 49, 0
19, 660, Note_on_c, 14, 49, 44
19, 711, Note_on_c, 14, 49, 0
19, 720, Note_on_c, 14, 49, 44
19, 771, Note_on_c, 14, 49, 0
19, 780, Note_on_c, 14, 49, 44
19, 831, Note_on_c, 14, 49, 0
19, 840, Note_on_c, 14, 49, 44
19, 891, Note_on_c, 14, 49, 0
19, 900, Note_on_c, 14, 49, 44
19, 951, Note_on_c, 14, 49, 0
19, 960, Note_on_c, 14, 49, 44
19, 1011, Note_on_c, 14, 49, 0
19, 1020, Note_on_c, 14, 49, 44
19, 1071, Note_on_c, 14, 49, 0
19, 1080, Note_on_c, 14, 49, 44
19, 1131, Note_on_c, 14, 49, 0
19, 1140, Note_on_c, 14, 49, 44
19, 1191, Note_on_c, 14, 49, 0
19, 1200, Note_on_c, 14, 49, 44
19, 1251, Note_on_c, 14, 49, 0
19, 1260, Note_on_c, 14, 49, 44
19, 1311, Note_on_c, 14, 49, 0
19, 1320, Note_on_c, 14, 49, 44
19, 1371, Note_on_c, 14, 49, 0
19, 1380, Note_on_c, 14, 49, 44
19, 1431, Note_on_c, 14, 49, 0
19, 1440, Note_on_c, 14, 49, 44
19, 1491, Note_on_c, 14, 49, 0
19, 1500, Note_on_c, 14, 49, 44
19, 1551, Note_on_c, 14, 49, 0
19, 1560, Note_on_c, 14, 49, 44
19, 1611, Note_on_c, 14, 49, 0
19, 1620, Note_on_c, 14, 49, 44
19, 1671, Note_on_c, 14, 49, 0
19, 1680, Note_on_c, 14, 49, 44
19, 1731, Note_on_c, 14, 49, 0
19, 1740, Note_on_c, 14, 49, 44
19, 1791, Note_on_c, 14, 49, 0
19, 1800, Note_on_c, 14, 49, 44
19, 1851, Note_on_c, 14, 49, 0
19, 1860, Note_on_c, 14, 49, 44
19, 1911, Note_on_c, 14, 49, 0
19, 1920, Note_on_c, 14, 49, 44
19, 2159, Note_on_c, 14, 49, 0
19, 6720, Note_on_c, 14, 50, 44
19, 6771, Note_on_c, 14, 50, 0
19, 6780, Note_on_c, 14, 50, 44
19, 6831, Note_on_c, 14, 50, 0
19, 6840, Note_on_c, 14, 50, 44
19, 6891, Note_on_c, 14, 50, 0
19, 6900, Note_on_c, 14, 50, 44
19, 6951, Note_on_c, 14, 50, 0
19, 6960, Note_on_c, 14, 50, 44
19, 7011, Note_on_c, 14, 50, 0
19, 7020, Note_on_c, 14, 50, 44
19, 7071, Note_on_c, 14, 50, 0
19, 7080, Note_on_c, 14, 50, 44
19, 7131, Note_on_c, 14, 50, 0
19, 7140, Note_on_c, 14, 50, 44
19, 7191, Note_on_c, 14, 50, 0
19, 7200, Note_on_c, 14, 50, 44
19, 7251, Note_on_c, 14, 50, 0
19, 7260, Note_on_c, 14, 50, 44
19, 7311, Note_on_c, 14, 50, 0
19, 7320, Note_on_c, 14, 50, 44
19, 7371, Note_on_c, 14, 50, 0
19, 7380, Note_on_c, 14, 50, 44
19, 7431, Note_on_c, 14, 50, 0
19, 7440, Note_on_c, 14, 50, 44
19, 7491, Note_on_c, 14, 50, 0
19, 7500, Note_on_c, 14, 50, 44
19, 7551, Note_on_c, 14, 50, 0
19, 7560, Note_on_c, 14, 50, 44
19, 7611, Note_on_c, 14, 50, 0
19, 7620, Note_on_c, 14, 50, 44
19, 7671, Note_on_c, 14, 50, 0
19, 7680, Note_on_c, 14, 50, 44
19, 7731, Note_on_c, 14, 50, 0
19, 7740, Note_on_c, 14, 50, 44
19, 7791, Note_on_c, 14, 50, 0
19, 7800, Note_on_c, 14, 50, 44
19, 7851, Note_on_c, 14, 50, 0
19, 7860, Note_on_c, 14, 50, 44
19, 7911, Note_on_c, 14, 50, 0
19, 7920, Note_on_c, 14, 50, 45
19, 7971, Note_on_c, 14, 50, 0
19, 7980, Note_on_c, 14, 50, 45
19, 8031, Note_on_c, 14, 50, 0
19, 8040, Note_on_c, 14, 50, 45
19, 8091, Note_on_c, 14, 50, 0
19, 8100, Note_on_c, 14, 50, 45
19, 8151, Note_on_c, 14, 50, 0
19, 8160, Note_on_c, 14, 50, 46
19, 8211, Note_on_c, 14, 50, 0
19, 8220, Note_on_c, 14, 50, 46
19, 8271, Note_on_c, 14, 50, 0
19, 8280, Note_on_c, 14, 50, 46
19, 8331, Note_on_c, 14, 50, 0
19, 8340, Note_on_c, 14, 50, 46
19, 8391, Note_on_c, 14, 50, 0
19, 8400, Note_on_c, 14, 50, 47
19, 8451, Note_on_c, 14, 50, 0
19, 8460, Note_on_c, 14, 50, 47
19, 8511, Note_on_c, 14, 50, 0
19, 8520, Note_on_c, 14, 50, 47
19, 8571, Note_on_c, 14, 50, 0
19, 8580, Note_on_c, 14, 50, 47
19, 8631, Note_on_c, 14, 50, 0
19, 8640, Note_on_c, 14, 50, 48
19, 8691, Note_on_c, 14, 50, 0
19, 8700, Note_on_c, 14, 50, 48
19, 8751, Note_on_c, 14, 50, 0
19, 8760, Note_on_c, 14, 50, 48
19, 8811, Note_on_c, 14, 50, 0
19, 8820, Note_on_c, 14, 50, 48
19, 8871, Note_on_c, 14, 50, 0
19, 8880, Note_on_c, 14, 50, 49
19, 8931, Note_on_c, 14, 50, 0
19, 8940, Note_on_c, 14, 50, 49
19, 8991, Note_on_c, 14, 50, 0
19, 9000, Note_on_c, 14, 50, 49
19, 9051, Note_on_c, 14, 50, 0
19, 9060, Note_on_c, 14, 50, 49
19, 9111, Note_on_c, 14, 50, 0
19, 9120, Note_on_c, 14, 50, 50
19, 9171, Note_on_c, 14, 50, 0
19, 9180, Note_on_c, 14, 50, 50
19, 9231, Note_on_c, 14, 50, 0
19, 9240, Note_on_c, 14, 50, 50
19, 9291, Note_on_c, 14, 50, 0
19, 9300, Note_on_c, 14, 50, 50
19, 9351, Note_on_c, 14, 50, 0
19, 9360, Note_on_c, 14, 50, 51
19, 9411, Note_on_c, 14, 50, 0
19, 9420, Note_on_c, 14, 50, 51
19, 9471, Note_on_c, 14, 50, 0
19, 9480, Note_on_c, 14, 50, 51
19, 9531, Note_on_c, 14, 50, 0
19, 9540, Note_on_c, 14, 50, 51
19, 9591, Note_on_c, 14, 50, 0
19, 9600, Note_on_c, 14, 51, 52
19, 9651, Note_on_c, 14, 51, 0
19, 9660, Note_on_c, 14, 51, 52
19, 9711, Note_on_c, 14, 51, 0
19, 9720, Note_on_c, 14, 51, 52
19, 9771, Note_on_c, 14, 51, 0
19, 9780, Note_on_c, 14, 51, 52
19, 9831, Note_on_c, 14, 51, 0
19, 9840, Note_on_c, 14, 51, 52
19, 9891, Note_on_c, 14, 51, 0
19, 9900, Note_on_c, 14, 51, 52
19, 9951, Note_on_c, 14, 51, 0
19, 9960, Note_on_c, 14, 51, 52
19, 10011, Note_on_c, 14, 51, 0
19, 10020, Note_on_c, 14, 51, 52
19, 10071, Note_on_c, 14, 51, 0
19, 10080, Note_on_c, 14, 51, 52
19, 10131, Note_on_c, 14, 51, 0
19, 10140, Note_on_c, 14, 51, 52
19, 10191, Note_on_c, 14, 51, 0
19, 10200, Note_on_c, 14, 51, 52
19, 10251, Note_on_c, 14, 51, 0
19, 10260, Note_on_c, 14, 51, 52
19, 10311, Note_on_c, 14, 51, 0
19, 10320, Note_on_c, 14, 51, 52
19, 10371, Note_on_c, 14, 51, 0
19, 10380, Note_on_c, 14, 51, 52
19, 10431, Note_on_c, 14, 51, 0
19, 10440, Note_on_c, 14, 51, 52
19, 10491, Note_on_c, 14, 51, 0
19, 10500, Note_on_c, 14, 51, 52
19, 10551, Note_on_c, 14, 51, 0
19, 10560, Note_on_c, 14, 51, 52
19, 10611, Note_on_c, 14, 51, 0
19, 10620, Note_on_c, 14, 51, 52
19, 10671, Note_on_c, 14, 51, 0
19, 10680, Note_on_c, 14, 51, 52
19, 10731, Note_on_c, 14, 51, 0
19, 10740, Note_on_c, 14, 51, 52
19, 10791, Note_on_c, 14, 51, 0
19, 10800, Note_on_c, 14, 51, 52
19, 10851, Note_on_c, 14, 51, 0
19, 10860, Note_on_c, 14, 51, 52
19, 10911, Note_on_c, 14, 51, 0
19, 10920, Note_on_c, 14, 51, 52
19, 10971, Note_on_c, 14, 51, 0
19, 10980, Note_on_c, 14, 51, 52
19, 11031, Note_on_c, 14, 51, 0
19, 11040, Note_on_c, 14, 51, 52
19, 11091, Note_on_c, 14, 51, 0
19, 11100, Note_on_c, 14, 51, 52
19, 11151, Note_on_c, 14, 51, 0
19, 11160, Note_on_c, 14, 51, 52
19, 11211, Note_on_c, 14, 51, 0
19, 11220, Note_on_c, 14, 51, 52
19, 11271, Note_on_c, 14, 51, 0
19, 11280, Note_on_c, 14, 51, 52
19, 11331, Note_on_c, 14, 51, 0
19, 11340, Note_on_c, 14, 51, 52
19, 11391, Note_on_c, 14, 51, 0
19, 11400, Note_on_c, 14, 51, 52
19, 11451, Note_on_c, 14, 51, 0
19, 11460, Note_on_c, 14, 51, 52
19, 11511, Note_on_c, 14, 51, 0
19, 11520, Note_on_c, 14, 51, 52
19, 11759, Note_on_c, 14, 51, 0
19, 15360, Note_on_c, 14, 52, 52
19, 15411, Note_on_c, 14, 52, 0
19, 15420, Note_on_c, 14, 52, 52
19, 15471, Note_on_c, 14, 52, 0
19, 15480, Note_on_c, 14, 52, 52
19, 15531, Note_on_c, 14, 52, 0
19, 15540, Note_on_c, 14, 52, 52
19, 15591, Note_on_c, 14, 52, 0
19, 15600, Note_on_c, 14, 52, 52
19, 15651, Note_on_c, 14, 52, 0
19, 15660, Note_on_c, 14, 52, 52
19, 15711, Note_on_c, 14, 52, 0
19, 15720, Note_on_c, 14, 52, 52
19, 15771, Note_on_c, 14, 52, 0
19, 15780, Note_on_c, 14, 52, 52
19, 15831, Note_on_c, 14, 52, 0
19, 15840, Note_on_c, 14, 52, 52
19, 15891, Note_on_c, 14, 52, 0
19, 15900, Note_on_c, 14, 52, 52
19, 15951, Note_on_c, 14, 52, 0
19, 15960, Note_on_c, 14, 52, 52
19, 16011, Note_on_c, 14, 52, 0
19, 16020, Note_on_c, 14, 52, 52
19, 16071, Note_on_c, 14, 52, 0
19, 16080, Note_on_c, 14, 52, 52
19, 16131, Note_on_c, 14, 52, 0
19, 16140, Note_on_c, 14, 52, 52
19, 16191, Note_on_c, 14, 52, 0
19, 16200, Note_on_c, 14, 52, 52
19, 16251, Note_on_c, 14, 52, 0
19, 16260, Note_on_c, 14, 52, 52
19, 16311, Note_on_c, 14, 52, 0
19, 16320, Note_on_c, 14, 52, 52
19, 16371, Note_on_c, 14, 52, 0
19, 16380, Note_on_c, 14, 52, 52
19, 16431, Note_on_c, 14, 52, 0
19, 16440, Note_on_c, 14, 52, 52
19, 16491, Note_on_c, 14, 52, 0
19, 16500, Note_on_c, 14, 52, 52
19, 16551, Note_on_c, 14, 52, 0
19, 16560, Note_on_c, 14, 52, 52
19, 16611, Note_on_c, 14, 52, 0
19, 16620, Note_on_c, 14, 52, 52
19, 16671, Note_on_c, 14, 52, 0
19, 16680, Note_on_c, 14, 52, 52
19, 16731, Note_on_c, 14, 52, 0
19, 16740, Note_on_c, 14, 52, 52
19, 16791, Note_on_c, 14, 52, 0
19, 16800, Note_on_c, 14, 52, 52
19, 16851, Note_on_c, 14, 52, 0
19, 16860, Note_on_c, 14, 52, 52
19, 16911, Note_on_c, 14, 52, 0
19, 16920, Note_on_c, 14, 52, 52
19, 16971, Note_on_c, 14, 52, 0
19, 16980, Note_on_c, 14, 52, 52
19, 17031, Note_on_c, 14, 52, 0
19, 17040, Note_on_c, 14, 52, 52
19, 17091, Note_on_c, 14, 52, 0
19, 17100, Note_on_c, 14, 52, 52
19, 17151, Note_on_c, 14, 52, 0
19, 17160, Note_on_c, 14, 52, 52
19, 17211, Note_on_c, 14, 52, 0
19, 17220, Note_on_c, 14, 52, 52
19, 17271, Note_on_c, 14, 52, 0
19, 17280, Note_on_c, 14, 40, 52
19, 17331, Note_on_c, 14, 40, 0
19, 17340, Note_on_c, 14, 40, 53
19, 17391, Note_on_c, 14, 40, 0
19, 17400, Note_on_c, 14, 40, 54
19, 17451, Note_on_c, 14, 40, 0
19, 17460, Note_on_c, 14, 40, 55
19, 17511, Note_on_c, 14, 40, 0
19, 17520, Note_on_c, 14, 40, 56
19, 17571, Note_on_c, 14, 40, 0
19, 17580, Note_on_c, 14, 40, 57
19, 17631, Note_on_c, 14, 40, 0
19, 17640, Note_on_c, 14, 40, 58
19, 17691, Note_on_c, 14, 40, 0
19, 17700, Note_on_c, 14, 40, 59
19, 17751, Note_on_c, 14, 40, 0
19, 17760, Note_on_c, 14, 40, 60
19, 17811, Note_on_c, 14, 40, 0
19, 17820, Note_on_c, 14, 40, 61
19, 17871, Note_on_c, 14, 40, 0
19, 17880, Note_on_c, 14, 40, 62
19, 17931, Note_on_c, 14, 40, 0
19, 17940, Note_on_c, 14, 40, 63
19, 17991, Note_on_c, 14, 40, 0
19, 18000, Note_on_c, 14, 40, 64
19, 18051, Note_on_c, 14, 40, 0
19, 18060, Note_on_c, 14, 40, 65
19, 18111, Note_on_c, 14, 40, 0
19, 18120, Note_on_c, 14, 40, 66
19, 18171, Note_on_c, 14, 40, 0
19, 18180, Note_on_c, 14, 40, 67
19, 18231, Note_on_c, 14, 40, 0
19, 18240, Note_on_c, 14, 40, 68
19, 18291, Note_on_c, 14, 40, 0
19, 18300, Note_on_c, 14, 40, 69
19, 18351, Note_on_c, 14, 40, 0
19, 18360, Note_on_c, 14, 40, 70
19, 18411, Note_on_c, 14, 40, 0
19, 18420, Note_on_c, 14, 40, 71
19, 18471, Note_on_c, 14, 40, 0
19, 18480, Note_on_c, 14, 40, 72
19, 18531, Note_on_c, 14, 40, 0
19, 18540, Note_on_c, 14, 40, 73
19, 18591, Note_on_c, 14, 40, 0
19, 18600, Note_on_c, 14, 40, 74
19, 18651, Note_on_c, 14, 40, 0
19, 18660, Note_on_c, 14, 40, 75
19, 18711, Note_on_c, 14, 40, 0
19, 18720, Note_on_c, 14, 40, 76
19, 18771, Note_on_c, 14, 40, 0
19, 18780, Note_on_c, 14, 40, 77
19, 18831, Note_on_c, 14, 40, 0
19, 18840, Note_on_c, 14, 40, 78
19, 18891, Note_on_c, 14, 40, 0
19, 18900, Note_on_c, 14, 40, 79
19, 18951, Note_on_c, 14, 40, 0
19, 18960, Note_on_c, 14, 40, 80
19, 19011, Note_on_c, 14, 40, 0
19, 19020, Note_on_c, 14, 40, 81
19, 19071, Note_on_c, 14, 40, 0
19, 19080, Note_on_c, 14, 40, 82
19, 19131, Note_on_c, 14, 40, 0
19, 19140, Note_on_c, 14, 40, 83
19, 19191, Note_on_c, 14, 40, 0
19, 19200, Note_on_c, 14, 41, 84
19, 19247, Note_on_c, 14, 41, 0
19, 19248, Note_on_c, 14, 43, 84
19, 19295, Note_on_c, 14, 43, 0
19, 19296, Note_on_c, 14, 44, 84
19, 19343, Note_on_c, 14, 44, 0
19, 19344, Note_on_c, 14, 46, 84
19, 19391, Note_on_c, 14, 46, 0
19, 19392, Note_on_c, 14, 48, 84
19, 19431, Note_on_c, 14, 48, 0
19, 19440, Note_on_c, 14, 41, 84
19, 19487, Note_on_c, 14, 41, 0
19, 19488, Note_on_c, 14, 43, 84
19, 19535, Note_on_c, 14, 43, 0
19, 19536, Note_on_c, 14, 44, 84
19, 19583, Note_on_c, 14, 44, 0
19, 19584, Note_on_c, 14, 46, 84
19, 19631, Note_on_c, 14, 46, 0
19, 19632, Note_on_c, 14, 48, 84
19, 19671, Note_on_c, 14, 48, 0
19, 19680, Note_on_c, 14, 41, 84
19, 19727, Note_on_c, 14, 41, 0
19, 19728, Note_on_c, 14, 43, 84
19, 19775, Note_on_c, 14, 43, 0
19, 19776, Note_on_c, 14, 44, 84
19, 19823, Note_on_c, 14, 44, 0
19, 19824, Note_on_c, 14, 46, 84
19, 19871, Note_on_c, 14, 46, 0
19, 19872, Note_on_c, 14, 48, 84
19, 19911, Note_on_c, 14, 48, 0
19, 19920, Note_on_c, 14, 41, 84
19, 19967, Note_on_c, 14, 41, 0
19, 19968, Note_on_c, 14, 43, 84
19, 20015, Note_on_c, 14, 43, 0
19, 20016, Note_on_c, 14, 44, 84
19, 20063, Note_on_c, 14, 44, 0
19, 20064, Note_on_c, 14, 46, 84
19, 20111, Note_on_c, 14, 46, 0
19, 20112, Note_on_c, 14, 48, 84
19, 20151, Note_on_c, 14, 48, 0
19, 20160, Note_on_c, 14, 41, 84
19, 20207, Note_on_c, 14, 41, 0
19, 20208, Note_on_c, 14, 43, 84
19, 20255, Note_on_c, 14, 43, 0
19, 20256, Note_on_c, 14, 44, 84
19, 20303, Note_on_c, 14, 44, 0
19, 20304, Note_on_c, 14, 46, 84
19, 20351, Note_on_c, 14, 46, 0
19, 20352, Note_on_c, 14, 48, 84
19, 20391, Note_on_c, 14, 48, 0
19, 20400, Note_on_c, 14, 41, 84
19, 20447, Note_on_c, 14, 41, 0
19, 20448, Note_on_c, 14, 43, 84
19, 20495, Note_on_c, 14, 43, 0
19, 20496, Note_on_c, 14, 44, 84
19, 20543, Note_on_c, 14, 44, 0
19, 20544, Note_on_c, 14, 46, 84
19, 20591, Note_on_c, 14, 46, 0
19, 20592, Note_on_c, 14, 48, 84
19, 20631, Note_on_c, 14, 48, 0
19, 20640, Note_on_c, 14, 41, 84
19, 20687, Note_on_c, 14, 41, 0
19, 20688, Note_on_c, 14, 43, 84
19, 20735, Note_on_c, 14, 43, 0
19, 20736, Note_on_c, 14, 44, 84
19, 20783, Note_on_c, 14, 44, 0
19, 20784, Note_on_c, 14, 46, 84
19, 20831, Note_on_c, 14, 46, 0
19, 20832, Note_on_c, 14, 48, 84
19, 20871, Note_on_c, 14, 48, 0
19, 20880, Note_on_c, 14, 41, 84
19, 20927, Note_on_c, 14, 41, 0
19, 20928, Note_on_c, 14, 43, 84
19, 20975, Note_on_c, 14, 43, 0
19, 20976, Note_on_c, 14, 44, 84
19, 21023, Note_on_c, 14, 44, 0
19, 21024, Note_on_c, 14, 46, 84
19, 21071, Note_on_c, 14, 46, 0
19, 21072, Note_on_c, 14, 48, 84
19, 21111, Note_on_c, 14, 48, 0
19, 21120, Note_on_c, 14, 41, 84
19, 21167, Note_on_c, 14, 41, 0
19, 21168, Note_on_c, 14, 43, 84
19, 21215, Note_on_c, 14, 43, 0
19, 21216, Note_on_c, 14, 44, 84
19, 21263, Note_on_c, 14, 44, 0
19, 21264, Note_on_c, 14, 46, 84
19, 21311, Note_on_c, 14, 46, 0
19, 21312, Note_on_c, 14, 48, 84
19, 21351, Note_on_c, 14, 48, 0
19, 21360, Note_on_c, 14, 41, 84
19, 21407, Note_on_c, 14, 41, 0
19, 21408, Note_on_c, 14, 43, 84
19, 21455, Note_on_c, 14, 43, 0
19, 21456, Note_on_c, 14, 44, 84
19, 21503, Note_on_c, 14, 44, 0
19, 21504, Note_on_c, 14, 46, 84
19, 21551, Note_on_c, 14, 46, 0
19, 21552, Note_on_c, 14, 48, 84
19, 21591, Note_on_c, 14, 48, 0
19, 21600, Note_on_c, 14, 41, 84
19, 21647, Note_on_c, 14, 41, 0
19, 21648, Note_on_c, 14, 43, 84
19, 21695, Note_on_c, 14, 43, 0
19, 21696, Note_on_c, 14, 44, 84
19, 21743, Note_on_c, 14, 44, 0
19, 21744, Note_on_c, 14, 46, 84
19, 21791, Note_on_c, 14, 46, 0
19, 21792, Note_on_c, 14, 48, 84
19, 21831, Note_on_c, 14, 48, 0
19, 21840, Note_on_c, 14, 41, 84
19, 21887, Note_on_c, 14, 41, 0
19, 21888, Note_on_c, 14, 43, 84
19, 21935, Note_on_c, 14, 43, 0
19, 21936, Note_on_c, 14, 44, 84
19, 21983, Note_on_c, 14, 44, 0
19, 21984, Note_on_c, 14, 46, 84
19, 22031, Note_on_c, 14, 46, 0
19, 22032, Note_on_c, 14, 48, 84
19, 22071, Note_on_c, 14, 48, 0
19, 22080, Note_on_c, 14, 41, 84
19, 22127, Note_on_c, 14, 41, 0
19, 22128, Note_on_c, 14, 43, 84
19, 22175, Note_on_c, 14, 43, 0
19, 22176, Note_on_c, 14, 44, 84
19, 22223, Note_on_c, 14, 44, 0
19, 22224, Note_on_c, 14, 46, 84
19, 22271, Note_on_c, 14, 46, 0
19, 22272, Note_on_c, 14, 48, 84
19, 22311, Note_on_c, 14, 48, 0
19, 22320, Note_on_c, 14, 41, 84
19, 22367, Note_on_c, 14, 41, 0
19, 22368, Note_on_c, 14, 43, 84
19, 22415, Note_on_c, 14, 43, 0
19, 22416, Note_on_c, 14, 44, 84
19, 22463, Note_on_c, 14, 44, 0
19, 22464, Note_on_c, 14, 46, 84
19, 22511, Note_on_c, 14, 46, 0
19, 22512, Note_on_c, 14, 48, 84
19, 22551, Note_on_c, 14, 48, 0
19, 22560, Note_on_c, 14, 41, 84
19, 22607, Note_on_c, 14, 41, 0
19, 22608, Note_on_c, 14, 43, 84
19, 22655, Note_on_c, 14, 43, 0
19, 22656, Note_on_c, 14, 44, 84
19, 22703, Note_on_c, 14, 44, 0
19, 22704, Note_on_c, 14, 46, 84
19, 22751, Note_on_c, 14, 46, 0
19, 22752, Note_on_c, 14, 48, 84
19, 22791, Note_on_c, 14, 48, 0
19, 22800, Note_on_c, 14, 41, 84
19, 22847, Note_on_c, 14, 41, 0
19, 22848, Note_on_c, 14, 43, 84
19, 22895, Note_on_c, 14, 43, 0
19, 22896, Note_on_c, 14, 44, 84
19, 22943, Note_on_c, 14, 44, 0
19, 22944, Note_on_c, 14, 46, 84
19, 22991, Note_on_c, 14, 46, 0
19, 22992, Note_on_c, 14, 48, 84
19, 23031, Note_on_c, 14, 48, 0
19, 23040, Note_on_c, 14, 43, 84
19, 23087, Note_on_c, 14, 43, 0
19, 23088, Note_on_c, 14, 44, 84
19, 23135, Note_on_c, 14, 44, 0
19, 23136, Note_on_c, 14, 46, 84
19, 23183, Note_on_c, 14, 46, 0
19, 23184, Note_on_c, 14, 48, 84
19, 23231, Note_on_c, 14, 48, 0
19, 23232, Note_on_c, 14, 49, 84
19, 23271, Note_on_c, 14, 49, 0
19, 23280, Note_on_c, 14, 43, 84
19, 23327, Note_on_c, 14, 43, 0
19, 23328, Note_on_c, 14, 44, 84
19, 23375, Note_on_c, 14, 44, 0
19, 23376, Note_on_c, 14, 46, 84
19, 23423, Note_on_c, 14, 46, 0
19, 23424, Note_on_c, 14, 48, 84
19, 23471, Note_on_c, 14, 48, 0
19, 23472, Note_on_c, 14, 49, 84
19, 23511, Note_on_c, 14, 49, 0
19, 23520, Note_on_c, 14, 43, 84
19, 23567, Note_on_c, 14, 43, 0
19, 23568, Note_on_c, 14, 44, 84
19, 23615, Note_on_c, 14, 44, 0
19, 23616, Note_on_c, 14, 46, 84
19, 23663, Note_on_c, 14, 46, 0
19, 23664, Note_on_c, 14, 48, 84
19, 23711, Note_on_c, 14, 48, 0
19, 23712, Note_on_c, 14, 49, 84
19, 23751, Note_on_c, 14, 49, 0
19, 23760, Note_on_c, 14, 43, 84
19, 23807, Note_on_c, 14, 43, 0
19, 23808, Note_on_c, 14, 44, 84
19, 23855, Note_on_c, 14, 44, 0
19, 23856, Note_on_c, 14, 46, 84
19, 23903, Note_on_c, 14, 46, 0
19, 23904, Note_on_c, 14, 48, 84
19, 23951, Note_on_c, 14, 48, 0
19, 23952, Note_on_c, 14, 49, 84
19, 23991, Note_on_c, 14, 49, 0
19, 24000, Note_on_c, 14, 43, 84
19, 24047, Note_on_c, 14, 43, 0
19, 24048, Note_on_c, 14, 44, 84
19, 24095, Note_on_c, 14, 44, 0
19, 24096, Note_on_c, 14, 46, 84
19, 24143, Note_on_c, 14, 46, 0
19, 24144, Note_on_c, 14, 48, 84
19, 24191, Note_on_c, 14, 48, 0
19, 24192, Note_on_c, 14, 49, 84
19, 24231, Note_on_c, 14, 49, 0
19, 24240, Note_on_c, 14, 43, 84
19, 24287, Note_on_c, 14, 43, 0
19, 24288, Note_on_c, 14, 44, 84
19, 24335, Note_on_c, 14, 44, 0
19, 24336, Note_on_c, 14, 46, 84
19, 24383, Note_on_c, 14, 46, 0
19, 24384, Note_on_c, 14, 48, 84
19, 24431, Note_on_c, 14, 48, 0
19, 24432, Note_on_c, 14, 49, 84
19, 24471, Note_on_c, 14, 49, 0
19, 24480, Note_on_c, 14, 43, 84
19, 24527, Note_on_c, 14, 43, 0
19, 24528, Note_on_c, 14, 44, 84
19, 24575, Note_on_c, 14, 44, 0
19, 24576, Note_on_c, 14, 46, 84
19, 24623, Note_on_c, 14, 46, 0
19, 24624, Note_on_c, 14, 48, 84
19, 24671, Note_on_c, 14, 48, 0
19, 24672, Note_on_c, 14, 49, 84
19, 24711, Note_on_c, 14, 49, 0
19, 24720, Note_on_c, 14, 43, 84
19, 24767, Note_on_c, 14, 43, 0
19, 24768, Note_on_c, 14, 44, 84
19, 24815, Note_on_c, 14, 44, 0
19, 24816, Note_on_c, 14, 46, 84
19, 24863, Note_on_c, 14, 46, 0
19, 24864, Note_on_c, 14, 48, 84
19, 24911, Note_on_c, 14, 48, 0
19, 24912, Note_on_c, 14, 49, 84
19, 24951, Note_on_c, 14, 49, 0
19, 24960, Note_on_c, 14, 43, 84
19, 25007, Note_on_c, 14, 43, 0
19, 25008, Note_on_c, 14, 44, 84
19, 25055, Note_on_c, 14, 44, 0
19, 25056, Note_on_c, 14, 46, 84
19, 25103, Note_on_c, 14, 46, 0
19, 25104, Note_on_c, 14, 48, 84
19, 25151, Note_on_c, 14, 48, 0
19, 25152, Note_on_c, 14, 49, 84
19, 25191, Note_on_c, 14, 49, 0
19, 25200, Note_on_c, 14, 43, 84
19, 25247, Note_on_c, 14, 43, 0
19, 25248, Note_on_c, 14, 44, 84
19, 25295, Note_on_c, 14, 44, 0
19, 25296, Note_on_c, 14, 46, 84
19, 25343, Note_on_c, 14, 46, 0
19, 25344, Note_on_c, 14, 48, 84
19, 25391, Note_on_c, 14, 48, 0
19, 25392, Note_on_c, 14, 49, 84
19, 25431, Note_on_c, 14, 49, 0
19, 25440, Note_on_c, 14, 43, 84
19, 25487, Note_on_c, 14, 43, 0
19, 25488, Note_on_c, 14, 44, 84
19, 25535, Note_on_c, 14, 44, 0
19, 25536, Note_on_c, 14, 46, 84
19, 25583, Note_on_c, 14, 46, 0
19, 25584, Note_on_c, 14, 48, 84
19, 25631, Note_on_c, 14, 48, 0
19, 25632, Note_on_c, 14, 49, 84
19, 25671, Note_on_c, 14, 49, 0
19, 25680, Note_on_c, 14, 43, 84
19, 25727, Note_on_c, 14, 43, 0
19, 25728, Note_on_c, 14, 44, 84
19, 25775, Note_on_c, 14, 44, 0
19, 25776, Note_on_c, 14, 46, 84
19, 25823, Note_on_c, 14, 46, 0
19, 25824, Note_on_c, 14, 48, 84
19, 25871, Note_on_c, 14, 48, 0
19, 25872, Note_on_c, 14, 49, 84
19, 25911, Note_on_c, 14, 49, 0
19, 25920, Note_on_c, 14, 43, 84
19, 25967, Note_on_c, 14, 43, 0
19, 25968, Note_on_c, 14, 44, 84
19, 26015, Note_on_c, 14, 44, 0
19, 26016, Note_on_c, 14, 46, 84
19, 26063, Note_on_c, 14, 46, 0
19, 26064, Note_on_c, 14, 48, 84
19, 26111, Note_on_c, 14, 48, 0
19, 26112, Note_on_c, 14, 49, 84
19, 26151, Note_on_c, 14, 49, 0
19, 26160, Note_on_c, 14, 43, 84
19, 26207, Note_on_c, 14, 43, 0
19, 26208, Note_on_c, 14, 44, 84
19, 26255, Note_on_c, 14, 44, 0
19, 26256, Note_on_c, 14, 46, 84
19, 26303, Note_on_c, 14, 46, 0
19, 26304, Note_on_c, 14, 48, 84
19, 26351, Note_on_c, 14, 48, 0
19, 26352, Note_on_c, 14, 49, 84
19, 26391, Note_on_c, 14, 49, 0
19, 26400, Note_on_c, 14, 43, 84
19, 26447, Note_on_c, 14, 43, 0
19, 26448, Note_on_c, 14, 44, 84
19, 26495, Note_on_c, 14, 44, 0
19, 26496, Note_on_c, 14, 46, 84
19, 26543, Note_on_c, 14, 46, 0
19, 26544, Note_on_c, 14, 48, 84
19, 26591, Note_on_c, 14, 48, 0
19, 26592, Note_on_c, 14, 49, 84
19, 26631, Note_on_c, 14, 49, 0
19, 26640, Note_on_c, 14, 43, 84
19, 26687, Note_on_c, 14, 43, 0
19, 26688, Note_on_c, 14, 44, 84
19, 26735, Note_on_c, 14, 44, 0
19, 26736, Note_on_c, 14, 46, 84
19, 26783, Note_on_c, 14, 46, 0
19, 26784, Note_on_c, 14, 48, 84
19, 26831, Note_on_c, 14, 48, 0
19, 26832, Note_on_c, 14, 49, 84
19, 26871, Note_on_c, 14, 49, 0
19, 26880, Note_on_c, 14, 45, 84
19, 26927, Note_on_c, 14, 45, 0
19, 26928, Note_on_c, 14, 46, 84
19, 26975, Note_on_c, 14, 46, 0
19, 26976, Note_on_c, 14, 48, 84
19, 27023, Note_on_c, 14, 48, 0
19, 27024, Note_on_c, 14, 49, 84
19, 27071, Note_on_c, 14, 49, 0
19, 27072, Note_on_c, 14, 51, 84
19, 27111, Note_on_c, 14, 51, 0
19, 27120, Note_on_c, 14, 45, 84
19, 27167, Note_on_c, 14, 45, 0
19, 27168, Note_on_c, 14, 46, 84
19, 27215, Note_on_c, 14, 46, 0
19, 27216, Note_on_c, 14, 48, 84
19, 27263, Note_on_c, 14, 48, 0
19, 27264, Note_on_c, 14, 49, 84
19, 27311, Note_on_c, 14, 49, 0
19, 27312, Note_on_c, 14, 51, 84
19, 27351, Note_on_c, 14, 51, 0
19, 27360, Note_on_c, 14, 45, 84
19, 27407, Note_on_c, 14, 45, 0
19, 27408, Note_on_c, 14, 46, 84
19, 27455, Note_on_c, 14, 46, 0
19, 27456, Note_on_c, 14, 48, 84
19, 27503, Note_on_c, 14, 48, 0
19, 27504, Note_on_c, 14, 49, 84
19, 27551, Note_on_c, 14, 49, 0
19, 27552, Note_on_c, 14, 51, 84
19, 27591, Note_on_c, 14, 51, 0
19, 27600, Note_on_c, 14, 45, 84
19, 27647, Note_on_c, 14, 45, 0
19, 27648, Note_on_c, 14, 46, 84
19, 27695, Note_on_c, 14, 46, 0
19, 27696, Note_on_c, 14, 48, 84
19, 27743, Note_on_c, 14, 48, 0
19, 27744, Note_on_c, 14, 49, 84
19, 27791, Note_on_c, 14, 49, 0
19, 27792, Note_on_c, 14, 51, 84
19, 27831, Note_on_c, 14, 51, 0
19, 27840, Note_on_c, 14, 45, 84
19, 27887, Note_on_c, 14, 45, 0
19, 27888, Note_on_c, 14, 46, 84
19, 27935, Note_on_c, 14, 46, 0
19, 27936, Note_on_c, 14, 48, 84
19, 27983, Note_on_c, 14, 48, 0
19, 27984, Note_on_c, 14, 49, 84
19, 28031, Note_on_c, 14, 49, 0
19, 28032, Note_on_c, 14, 51, 84
19, 28071, Note_on_c, 14, 51, 0
19, 28080, Note_on_c, 14, 45, 84
19, 28127, Note_on_c, 14, 45, 0
19, 28128, Note_on_c, 14, 46, 84
19, 28175, Note_on_c, 14, 46, 0
19, 28176, Note_on_c, 14, 48, 84
19, 28223, Note_on_c, 14, 48, 0
19, 28224, Note_on_c, 14, 49, 84
19, 28271, Note_on_c, 14, 49, 0
19, 28272, Note_on_c, 14, 51, 84
19, 28311, Note_on_c, 14, 51, 0
19, 28320, Note_on_c, 14, 45, 84
19, 28367, Note_on_c, 14, 45, 0
19, 28368, Note_on_c, 14, 46, 84
19, 28415, Note_on_c, 14, 46, 0
19, 28416, Note_on_c, 14, 48, 84
19, 28463, Note_on_c, 14, 48, 0
19, 28464, Note_on_c, 14, 49, 84
19, 28511, Note_on_c, 14, 49, 0
19, 28512, Note_on_c, 14, 51, 84
19, 28551, Note_on_c, 14, 51, 0
19, 28560, Note_on_c, 14, 45, 84
19, 28607, Note_on_c, 14, 45, 0
19, 28608, Note_on_c, 14, 46, 84
19, 28655, Note_on_c, 14, 46, 0
19, 28656, Note_on_c, 14, 48, 84
19, 28703, Note_on_c, 14, 48, 0
19, 28704, Note_on_c, 14, 49, 84
19, 28751, Note_on_c, 14, 49, 0
19, 28752, Note_on_c, 14, 51, 84
19, 28791, Note_on_c, 14, 51, 0
19, 28800, Note_on_c, 14, 45, 84
19, 28847, Note_on_c, 14, 45, 0
19, 28848, Note_on_c, 14, 46, 84
19, 28895, Note_on_c, 14, 46, 0
19, 28896, Note_on_c, 14, 48, 84
19, 28943, Note_on_c, 14, 48, 0
19, 28944, Note_on_c, 14, 49, 84
19, 28991, Note_on_c, 14, 49, 0
19, 28992, Note_on_c, 14, 51, 84
19, 29031, Note_on_c, 14, 51, 0
19, 29040, Note_on_c, 14, 45, 84
19, 29087, Note_on_c, 14, 45, 0
19, 29088, Note_on_c, 14, 46, 84
19, 29135, Note_on_c, 14, 46, 0
19, 29136, Note_on_c, 14, 48, 84
19, 29183, Note_on_c, 14, 48, 0
19, 29184, Note_on_c, 14, 49, 84
19, 29231, Note_on_c, 14, 49, 0
19, 29232, Note_on_c, 14, 51, 84
19, 29271, Note_on_c, 14, 51, 0
19, 29280, Note_on_c, 14, 45, 84
19, 29327, Note_on_c, 14, 45, 0
19, 29328, Note_on_c, 14, 46, 84
19, 29375, Note_on_c, 14, 46, 0
19, 29376, Note_on_c, 14, 48, 84
19, 29423, Note_on_c, 14, 48, 0
19, 29424, Note_on_c, 14, 49, 84
19, 29471, Note_on_c, 14, 49, 0
19, 29472, Note_on_c, 14, 51, 84
19, 29511, Note_on_c, 14, 51, 0
19, 29520, Note_on_c, 14, 45, 84
19, 29567, Note_on_c, 14, 45, 0
19, 29568, Note_on_c, 14, 46, 84
19, 29615, Note_on_c, 14, 46, 0
19, 29616, Note_on_c, 14, 48, 84
19, 29663, Note_on_c, 14, 48, 0
19, 29664, Note_on_c, 14, 49, 84
19, 29711, Note_on_c, 14, 49, 0
19, 29712, Note_on_c, 14, 51, 84
19, 29751, Note_on_c, 14, 51, 0
19, 29760, Note_on_c, 14, 45, 84
19, 29807, Note_on_c, 14, 45, 0
19, 29808, Note_on_c, 14, 46, 84
19, 29855, Note_on_c, 14, 46, 0
19, 29856, Note_on_c, 14, 48, 84
19, 29903, Note_on_c, 14, 48, 0
19, 29904, Note_on_c, 14, 49, 84
19, 29951, Note_on_c, 14, 49, 0
19, 29952, Note_on_c, 14, 51, 84
19, 29991, Note_on_c, 14, 51, 0
19, 30000, Note_on_c, 14, 45, 84
19, 30047, Note_on_c, 14, 45, 0
19, 30048, Note_on_c, 14, 46, 84
19, 30095, Note_on_c, 14, 46, 0
19, 30096, Note_on_c, 14, 48, 84
19, 30143, Note_on_c, 14, 48, 0
19, 30144, Note_on_c, 14, 49, 84
19, 30191, Note_on_c, 14, 49, 0
19, 30192, Note_on_c, 14, 51, 84
19, 30231, Note_on_c, 14, 51, 0
19, 30240, Note_on_c, 14, 45, 84
19, 30287, Note_on_c, 14, 45, 0
19, 30288, Note_on_c, 14, 46, 84
19, 30335, Note_on_c, 14, 46, 0
19, 30336, Note_on_c, 14, 48, 84
19, 30383, Note_on_c, 14, 48, 0
19, 30384, Note_on_c, 14, 49, 84
19, 30431, Note_on_c, 14, 49, 0
19, 30432, Note_on_c, 14, 51, 84
19, 30471, Note_on_c, 14, 51, 0
19, 30480, Note_on_c, 14, 45, 84
19, 30527, Note_on_c, 14, 45, 0
19, 30528, Note_on_c, 14, 46, 84
19, 30575, Note_on_c, 14, 46, 0
19, 30576, Note_on_c, 14, 48, 84
19, 30623, Note_on_c, 14, 48, 0
19, 30624, Note_on_c, 14, 49, 84
19, 30671, Note_on_c, 14, 49, 0
19, 30672, Note_on_c, 14, 51, 84
19, 30711, Note_on_c, 14, 51, 0
19, 30720, Note_on_c, 14, 46, 92
19, 30771, Note_on_c, 14, 46, 0
19, 30780, Note_on_c, 14, 46, 84
19, 30831, Note_on_c, 14, 46, 0
19, 30840, Note_on_c, 14, 46, 84
19, 30891, Note_on_c, 14, 46, 0
19, 30900, Note_on_c, 14, 46, 84
19, 30951, Note_on_c, 14, 46, 0
19, 30960, Note_on_c, 14, 46, 84
19, 31011, Note_on_c, 14, 46, 0
19, 31020, Note_on_c, 14, 46, 84
19, 31071, Note_on_c, 14, 46, 0
19, 31080, Note_on_c, 14, 46, 84
19, 31131, Note_on_c, 14, 46, 0
19, 31140, Note_on_c, 14, 46, 84
19, 31191, Note_on_c, 14, 46, 0
19, 31200, Note_on_c, 14, 46, 84
19, 31251, Note_on_c, 14, 46, 0
19, 31260, Note_on_c, 14, 46, 84
19, 31311, Note_on_c, 14, 46, 0
19, 31320, Note_on_c, 14, 46, 84
19, 31371, Note_on_c, 14, 46, 0
19, 31380, Note_on_c, 14, 46, 84
19, 31431, Note_on_c, 14, 46, 0
19, 31440, Note_on_c, 14, 46, 84
19, 31491, Note_on_c, 14, 46, 0
19, 31500, Note_on_c, 14, 46, 84
19, 31551, Note_on_c, 14, 46, 0
19, 31560, Note_on_c, 14, 46, 84
19, 31611, Note_on_c, 14, 46, 0
19, 31620, Note_on_c, 14, 46, 84
19, 31671, Note_on_c, 14, 46, 0
19, 31680, Note_on_c, 14, 47, 92
19, 31731, Note_on_c, 14, 47, 0
19, 31740, Note_on_c, 14, 47, 84
19, 31791, Note_on_c, 14, 47, 0
19, 31800, Note_on_c, 14, 47, 84
19, 31851, Note_on_c, 14, 47, 0
19, 31860, Note_on_c, 14, 47, 84
19, 31911, Note_on_c, 14, 47, 0
19, 31920, Note_on_c, 14, 47, 84
19, 31971, Note_on_c, 14, 47, 0
19, 31980, Note_on_c, 14, 47, 84
19, 32031, Note_on_c, 14, 47, 0
19, 32040, Note_on_c, 14, 47, 84
19, 32091, Note_on_c, 14, 47, 0
19, 32100, Note_on_c, 14, 47, 84
19, 32151, Note_on_c, 14, 47, 0
19, 32160, Note_on_c, 14, 47, 84
19, 32211, Note_on_c, 14, 47, 0
19, 32220, Note_on_c, 14, 47, 84
19, 32271, Note_on_c, 14, 47, 0
19, 32280, Note_on_c, 14, 47, 84
19, 32331, Note_on_c, 14, 47, 0
19, 32340, Note_on_c, 14, 47, 84
19, 32391, Note_on_c, 14, 47, 0
19, 32400, Note_on_c, 14, 47, 84
19, 32451, Note_on_c, 14, 47, 0
19, 32460, Note_on_c, 14, 47, 84
19, 32511, Note_on_c, 14, 47, 0
19, 32520, Note_on_c, 14, 47, 84
19, 32571, Note_on_c, 14, 47, 0
19, 32580, Note_on_c, 14, 47, 84
19, 32631, Note_on_c, 14, 47, 0
19, 32640, Note_on_c, 14, 48, 84
19, 32879, Note_on_c, 14, 48, 0
19, 33120, Note_on_c, 14, 60, 92
19, 33179, Note_on_c, 14, 60, 0
19, 33180, Note_on_c, 14, 60, 84
19, 33464, Note_on_c, 14, 60, 0
19, 33480, Note_on_c, 14, 55, 84
19, 33584, Note_on_c, 14, 55, 0
19, 33600, Note_on_c, 14, 56, 84
19, 33704, Note_on_c, 14, 56, 0
19, 33720, Note_on_c, 14, 52, 84
19, 33824, Note_on_c, 14, 52, 0
19, 33840, Note_on_c, 14, 53, 84
19, 33944, Note_on_c, 14, 53, 0
19, 33960, Note_on_c, 14, 48, 84
19, 34064, Note_on_c, 14, 48, 0
19, 34080, Note_on_c, 14, 49, 84
19, 34184, Note_on_c, 14, 49, 0
19, 34200, Note_on_c, 14, 48, 84
19, 34304, Note_on_c, 14, 48, 0
19, 34320, Note_on_c, 14, 48, 84
19, 34424, Note_on_c, 14, 48, 0
19, 34440, Note_on_c, 14, 46, 84
19, 34544, Note_on_c, 14, 46, 0
19, 34560, Note_on_c, 14, 44, 84
19, 34799, Note_on_c, 14, 44, 0
19, 35040, Note_on_c, 14, 56, 92
19, 35099, Note_on_c, 14, 56, 0
19, 35100, Note_on_c, 14, 56, 84
19, 35384, Note_on_c, 14, 56, 0
19, 35400, Note_on_c, 14, 52, 84
19, 35504, Note_on_c, 14, 52, 0
19, 35520, Note_on_c, 14, 53, 84
19, 35624, Note_on_c, 14, 53, 0
19, 35640, Note_on_c, 14, 48, 84
19, 35744, Note_on_c, 14, 48, 0
19, 35760, Note_on_c, 14, 49, 84
19, 35864, Note_on_c, 14, 49, 0
19, 35880, Note_on_c, 14, 44, 84
19, 35984, Note_on_c, 14, 44, 0
19, 36000, Note_on_c, 14, 46, 84
19, 36104, Note_on_c, 14, 46, 0
19, 36120, Note_on_c, 14, 44, 84
19, 36224, Note_on_c, 14, 44, 0
19, 36240, Note_on_c, 14, 44, 84
19, 36344, Note_on_c, 14, 44, 0
19, 36360, Note_on_c, 14, 43, 84
19, 36464, Note_on_c, 14, 43, 0
19, 36480, Note_on_c, 14, 41, 84
19, 36719, Note_on_c, 14, 41, 0
19, 36960, Note_on_c, 14, 53, 92
19, 37019, Note_on_c, 14, 53, 0
19, 37020, Note_on_c, 14, 53, 84
19, 37304, Note_on_c, 14, 53, 0
19, 37320, Note_on_c, 14, 48, 84
19, 37424, Note_on_c, 14, 48, 0
19, 37440, Note_on_c, 14, 49, 84
19, 37544, Note_on_c, 14, 49, 0
19, 37560, Note_on_c, 14, 44, 84
19, 37664, Note_on_c, 14, 44, 0
19, 37680, Note_on_c, 14, 46, 84
19, 37784, Note_on_c, 14, 46, 0
19, 37800, Note_on_c, 14, 41, 84
19, 37904, Note_on_c, 14, 41, 0
19, 37920, Note_on_c, 14, 42, 84
19, 38024, Note_on_c, 14, 42, 0
19, 38040, Note_on_c, 14, 41, 84
19, 38144, Note_on_c, 14, 41, 0
19, 38160, Note_on_c, 14, 41, 84
19, 38264, Note_on_c, 14, 41, 0
19, 38280, Note_on_c, 14, 39, 84
19, 38384, Note_on_c, 14, 39, 0
19, 38400, Note_on_c, 14, 37, 44
19, 38451, Note_on_c, 14, 37, 0
19, 38460, Note_on_c, 14, 36, 44
19, 38511, Note_on_c, 14, 36, 0
19, 38520, Note_on_c, 14, 37, 44
19, 38571, Note_on_c, 14, 37, 0
19, 38580, Note_on_c, 14, 39, 44
19, 38631, Note_on_c, 14, 39, 0
19, 38640, Note_on_c, 14, 41, 44
19, 38691, Note_on_c, 14, 41, 0
19, 38700, Note_on_c, 14, 39, 44
19, 38751, Note_on_c, 14, 39, 0
19, 38760, Note_on_c, 14, 41, 44
19, 38811, Note_on_c, 14, 41, 0
19, 38820, Note_on_c, 14, 42, 44
19, 38871, Note_on_c, 14, 42, 0
19, 38880, Note_on_c, 14, 44, 44
19, 38931, Note_on_c, 14, 44, 0
19, 38940, Note_on_c, 14, 46, 44
19, 38991, Note_on_c, 14, 46, 0
19, 39000, Note_on_c, 14, 44, 44
19, 39051, Note_on_c, 14, 44, 0
19, 39060, Note_on_c, 14, 42, 44
19, 39111, Note_on_c, 14, 42, 0
19, 39120, Note_on_c, 14, 41, 44
19, 39171, Note_on_c, 14, 41, 0
19, 39180, Note_on_c, 14, 39, 44
19, 39231, Note_on_c, 14, 39, 0
19, 39240, Note_on_c, 14, 41, 44
19, 39291, Note_on_c, 14, 41, 0
19, 39300, Note_on_c, 14, 42, 44
19, 39351, Note_on_c, 14, 42, 0
19, 39360, Note_on_c, 14, 44, 44
19, 39411, Note_on_c, 14, 44, 0
19, 39420, Note_on_c, 14, 46, 44
19, 39471, Note_on_c, 14, 46, 0
19, 39480, Note_on_c, 14, 44, 44
19, 39531, Note_on_c, 14, 44, 0
19, 39540, Note_on_c, 14, 42, 44
19, 39591, Note_on_c, 14, 42, 0
19, 39600, Note_on_c, 14, 41, 44
19, 39651, Note_on_c, 14, 41, 0
19, 39660, Note_on_c, 14, 42, 44
19, 39711, Note_on_c, 14, 42, 0
19, 39720, Note_on_c, 14, 41, 44
19, 39771, Note_on_c, 14, 41, 0
19, 39780, Note_on_c, 14, 39, 44
19, 39831, Note_on_c, 14, 39, 0
19, 39840, Note_on_c, 14, 37, 44
19, 39891, Note_on_c, 14, 37, 0
19, 39900, Note_on_c, 14, 36, 44
19, 39951, Note_on_c, 14, 36, 0
19, 39960, Note_on_c, 14, 37, 44
19, 40011, Note_on_c, 14, 37, 0
19, 40020, Note_on_c, 14, 39, 44
19, 40071, Note_on_c, 14, 39, 0
19, 40080, Note_on_c, 14, 41, 44
19, 40131, Note_on_c, 14, 41, 0
19, 40140, Note_on_c, 14, 42, 44
19, 40191, Note_on_c, 14, 42, 0
19, 40200, Note_on_c, 14, 41, 44
19, 40251, Note_on_c, 14, 41, 0
19, 40260, Note_on_c, 14, 39, 44
19, 40311, Note_on_c, 14, 39, 0
19, 40320, Note_on_c, 14, 37, 76
19, 40559, Note_on_c, 14, 37, 0
19, 42240, Note_on_c, 14, 47, 44
19, 42291, Note_on_c, 14, 47, 0
19, 42300, Note_on_c, 14, 48, 44
19, 42351, Note_on_c, 14, 48, 0
19, 42360, Note_on_c, 14, 50, 44
19, 42411, Note_on_c, 14, 50, 0
19, 42420, Note_on_c, 14, 48, 44
19, 42471, Note_on_c, 14, 48, 0
19, 42480, Note_on_c, 14, 47, 44
19, 42531, Note_on_c, 14, 47, 0
19, 42540, Note_on_c, 14, 48, 44
19, 42591, Note_on_c, 14, 48, 0
19, 42600, Note_on_c, 14, 50, 44
19, 42651, Note_on_c, 14, 50, 0
19, 42660, Note_on_c, 14, 51, 44
19, 42711, Note_on_c, 14, 51, 0
19, 42720, Note_on_c, 14, 53, 44
19, 42771, Note_on_c, 14, 53, 0
19, 42780, Note_on_c, 14, 55, 44
19, 42831, Note_on_c, 14, 55, 0
19, 42840, Note_on_c, 14, 53, 44
19, 42891, Note_on_c, 14, 53, 0
19, 42900, Note_on_c, 14, 51, 44
19, 42951, Note_on_c, 14, 51, 0
19, 42960, Note_on_c, 14, 50, 44
19, 43011, Note_on_c, 14, 50, 0
19, 43020, Note_on_c, 14, 51, 44
19, 43071, Note_on_c, 14, 51, 0
19, 43080, Note_on_c, 14, 50, 44
19, 43131, Note_on_c, 14, 50, 0
19, 43140, Note_on_c, 14, 48, 44
19, 43191, Note_on_c, 14, 48, 0
19, 43200, Note_on_c, 14, 47, 44
19, 43251, Note_on_c, 14, 47, 0
19, 43260, Note_on_c, 14, 48, 44
19, 43311, Note_on_c, 14, 48, 0
19, 43320, Note_on_c, 14, 50, 44
19, 43371, Note_on_c, 14, 50, 0
19, 43380, Note_on_c, 14, 51, 44
19, 43431, Note_on_c, 14, 51, 0
19, 43440, Note_on_c, 14, 53, 44
19, 43491, Note_on_c, 14, 53, 0
19, 43500, Note_on_c, 14, 51, 44
19, 43551, Note_on_c, 14, 51, 0
19, 43560, Note_on_c, 14, 50, 44
19, 43611, Note_on_c, 14, 50, 0
19, 43620, Note_on_c, 14, 48, 44
19, 43671, Note_on_c, 14, 48, 0
19, 43680, Note_on_c, 14, 47, 44
19, 43731, Note_on_c, 14, 47, 0
19, 43740, Note_on_c, 14, 48, 44
19, 43791, Note_on_c, 14, 48, 0
19, 43800, Note_on_c, 14, 50, 44
19, 43851, Note_on_c, 14, 50, 0
19, 43860, Note_on_c, 14, 48, 44
19, 43911, Note_on_c, 14, 48, 0
19, 43920, Note_on_c, 14, 47, 44
19, 43971, Note_on_c, 14, 47, 0
19, 43980, Note_on_c, 14, 48, 44
19, 44031, Note_on_c, 14, 48, 0
19, 44040, Note_on_c, 14, 50, 44
19, 44091, Note_on_c, 14, 50, 0
19, 44100, Note_on_c, 14, 48, 44
19, 44151, Note_on_c, 14, 48, 0
19, 44160, Note_on_c, 14, 47, 76
19, 44399, Note_on_c, 14, 47, 0
19, 46080, Note_on_c, 14, 36, 52
19, 46131, Note_on_c, 14, 36, 0
19, 46140, Note_on_c, 14, 38, 52
19, 46191, Note_on_c, 14, 38, 0
19, 46200, Note_on_c, 14, 36, 53
19, 46251, Note_on_c, 14, 36, 0
19, 46260, Note_on_c, 14, 38, 54
19, 46311, Note_on_c, 14, 38, 0
19, 46320, Note_on_c, 14, 39, 55
19, 46371, Note_on_c, 14, 39, 0
19, 46380, Note_on_c, 14, 41, 55
19, 46431, Note_on_c, 14, 41, 0
19, 46440, Note_on_c, 14, 39, 56
19, 46491, Note_on_c, 14, 39, 0
19, 46500, Note_on_c, 14, 41, 57
19, 46551, Note_on_c, 14, 41, 0
19, 46560, Note_on_c, 14, 43, 58
19, 46611, Note_on_c, 14, 43, 0
19, 46620, Note_on_c, 14, 44, 58
19, 46671, Note_on_c, 14, 44, 0
19, 46680, Note_on_c, 14, 43, 59
19, 46731, Note_on_c, 14, 43, 0
19, 46740, Note_on_c, 14, 41, 60
19, 46791, Note_on_c, 14, 41, 0
19, 46800, Note_on_c, 14, 39, 61
19, 46851, Note_on_c, 14, 39, 0
19, 46860, Note_on_c, 14, 41, 61
19, 46911, Note_on_c, 14, 41, 0
19, 46920, Note_on_c, 14, 39, 62
19, 46971, Note_on_c, 14, 39, 0
19, 46980, Note_on_c, 14, 38, 63
19, 47031, Note_on_c, 14, 38, 0
19, 47040, Note_on_c, 14, 36, 64
19, 47091, Note_on_c, 14, 36, 0
19, 47100, Note_on_c, 14, 38, 64
19, 47151, Note_on_c, 14, 38, 0
19, 47160, Note_on_c, 14, 39, 65
19, 47211, Note_on_c, 14, 39, 0
19, 47220, Note_on_c, 14, 41, 66
19, 47271, Note_on_c, 14, 41, 0
19, 47280, Note_on_c, 14, 43, 67
19, 47331, Note_on_c, 14, 43, 0
19, 47340, Note_on_c, 14, 44, 67
19, 47391, Note_on_c, 14, 44, 0
19, 47400, Note_on_c, 14, 43, 68
19, 47451, Note_on_c, 14, 43, 0
19, 47460, Note_on_c, 14, 41, 69
19, 47511, Note_on_c, 14, 41, 0
19, 47520, Note_on_c, 14, 39, 70
19, 47571, Note_on_c, 14, 39, 0
19, 47580, Note_on_c, 14, 41, 70
19, 47631, Note_on_c, 14, 41, 0
19, 47640, Note_on_c, 14, 39, 71
19, 47691, Note_on_c, 14, 39, 0
19, 47700, Note_on_c, 14, 38, 72
19, 47751, Note_on_c, 14, 38, 0
19, 47760, Note_on_c, 14, 36, 73
19, 47811, Note_on_c, 14, 36, 0
19, 47820, Note_on_c, 14, 46, 73
19, 47871, Note_on_c, 14, 46, 0
19, 47880, Note_on_c, 14, 44, 74
19, 47931, Note_on_c, 14, 44, 0
19, 47940, Note_on_c, 14, 43, 75
19, 47991, Note_on_c, 14, 43, 0
19, 48000, Note_on_c, 14, 42, 76
19, 48239, Note_on_c, 14, 42, 0
19, 48960, Note_on_c, 14, 41, 76
19, 49199, Note_on_c, 14, 41, 0
19, 49920, Note_on_c, 14, 46, 76
19, 50159, Note_on_c, 14, 46, 0
19, 50880, Note_on_c, 14, 43, 76
19, 51119, Note_on_c, 14, 43, 0
19, 51840, Note_on_c, 14, 48, 80
19, 52079, Note_on_c, 14, 48, 0
19, 52320, Note_on_c, 14, 46, 80
19, 52559, Note_on_c, 14, 46, 0
19, 52800, Note_on_c, 14, 45, 80
19, 53039, Note_on_c, 14, 45, 0
19, 60480, Note_on_c, 14, 38, 44
19, 60531, Note_on_c, 14, 38, 0
19, 60540, Note_on_c, 14, 38, 44
19, 60591, Note_on_c, 14, 38, 0
19, 60600, Note_on_c, 14, 38, 44
19, 60651, Note_on_c, 14, 38, 0
19, 60660, Note_on_c, 14, 38, 44
19, 60711, Note_on_c, 14, 38, 0
19, 60720, Note_on_c, 14, 38, 44
19, 60771, Note_on_c, 14, 38, 0
19, 60780, Note_on_c, 14, 38, 44
19, 60831, Note_on_c, 14, 38, 0
19, 60840, Note_on_c, 14, 38, 44
19, 60891, Note_on_c, 14, 38, 0
19, 60900, Note_on_c, 14, 38, 44
19, 60951, Note_on_c, 14, 38, 0
19, 60960, Note_on_c, 14, 38, 44
19, 61011, Note_on_c, 14, 38, 0
19, 61020, Note_on_c, 14, 38, 44
19, 61071, Note_on_c, 14, 38, 0
19, 61080, Note_on_c, 14, 38, 44
19, 61131, Note_on_c, 14, 38, 0
19, 61140, Note_on_c, 14, 38, 44
19, 61191, Note_on_c, 14, 38, 0
19, 61200, Note_on_c, 14, 38, 44
19, 61251, Note_on_c, 14, 38, 0
19, 61260, Note_on_c, 14, 38, 44
19, 61311, Note_on_c, 14, 38, 0
19, 61320, Note_on_c, 14, 38, 44
19, 61371, Note_on_c, 14, 38, 0
19, 61380, Note_on_c, 14, 38, 44
19, 61431, Note_on_c, 14, 38, 0
19, 61440, Note_on_c, 14, 38, 44
19, 61491, Note_on_c, 14, 38, 0
19, 61500, Note_on_c, 14, 38, 44
19, 61551, Note_on_c, 14, 38, 0
19, 61560, Note_on_c, 14, 38, 44
19, 61611, Note_on_c, 14, 38, 0
19, 61620, Note_on_c, 14, 38, 44
19, 61671, Note_on_c, 14, 38, 0
19, 61680, Note_on_c, 14, 38, 44
19, 61731, Note_on_c, 14, 38, 0
19, 61740, Note_on_c, 14, 38, 44
19, 61791, Note_on_c, 14, 38, 0
19, 61800, Note_on_c, 14, 38, 44
19, 61851, Note_on_c, 14, 38, 0
19, 61860, Note_on_c, 14, 38, 44
19, 61911, Note_on_c, 14, 38, 0
19, 61920, Note_on_c, 14, 38, 44
19, 61971, Note_on_c, 14, 38, 0
19, 61980, Note_on_c, 14, 38, 44
19, 62031, Note_on_c, 14, 38, 0
19, 62040, Note_on_c, 14, 38, 44
19, 62091, Note_on_c, 14, 38, 0
19, 62100, Note_on_c, 14, 38, 44
19, 62151, Note_on_c, 14, 38, 0
19, 62160, Note_on_c, 14, 38, 44
19, 62211, Note_on_c, 14, 38, 0
19, 62220, Note_on_c, 14, 38, 44
19, 62271, Note_on_c, 14, 38, 0
19, 62280, Note_on_c, 14, 38, 44
19, 62331, Note_on_c, 14, 38, 0
19, 62340, Note_on_c, 14, 38, 44
19, 62391, Note_on_c, 14, 38, 0
19, 62400, Note_on_c, 14, 38, 44
19, 62639, Note_on_c, 14, 38, 0
19, 64320, Note_on_c, 14, 42, 44
19, 64367, Note_on_c, 14, 42, 0
19, 64368, Note_on_c, 14, 43, 44
19, 64415, Note_on_c, 14, 43, 0
19, 64416, Note_on_c, 14, 45, 44
19, 64463, Note_on_c, 14, 45, 0
19, 64464, Note_on_c, 14, 46, 44
19, 64511, Note_on_c, 14, 46, 0
19, 64512, Note_on_c, 14, 48, 44
19, 64551, Note_on_c, 14, 48, 0
19, 64560, Note_on_c, 14, 42, 44
19, 64607, Note_on_c, 14, 42, 0
19, 64608, Note_on_c, 14, 43, 44
19, 64655, Note_on_c, 14, 43, 0
19, 64656, Note_on_c, 14, 45, 44
19, 64703, Note_on_c, 14, 45, 0
19, 64704, Note_on_c, 14, 46, 44
19, 64751, Note_on_c, 14, 46, 0
19, 64752, Note_on_c, 14, 48, 44
19, 64791, Note_on_c, 14, 48, 0
19, 64800, Note_on_c, 14, 42, 44
19, 64847, Note_on_c, 14, 42, 0
19, 64848, Note_on_c, 14, 43, 44
19, 64895, Note_on_c, 14, 43, 0
19, 64896, Note_on_c, 14, 45, 44
19, 64943, Note_on_c, 14, 45, 0
19, 64944, Note_on_c, 14, 46, 44
19, 64991, Note_on_c, 14, 46, 0
19, 64992, Note_on_c, 14, 48, 44
19, 65031, Note_on_c, 14, 48, 0
19, 65040, Note_on_c, 14, 42, 44
19, 65087, Note_on_c, 14, 42, 0
19, 65088, Note_on_c, 14, 43, 44
19, 65135, Note_on_c, 14, 43, 0
19, 65136, Note_on_c, 14, 45, 44
19, 65183, Note_on_c, 14, 45, 0
19, 65184, Note_on_c, 14, 46, 44
19, 65231, Note_on_c, 14, 46, 0
19, 65232, Note_on_c, 14, 48, 44
19, 65271, Note_on_c, 14, 48, 0
19, 65280, Note_on_c, 14, 42, 44
19, 65327, Note_on_c, 14, 42, 0
19, 65328, Note_on_c, 14, 43, 44
19, 65375, Note_on_c, 14, 43, 0
19, 65376, Note_on_c, 14, 45, 44
19, 65423, Note_on_c, 14, 45, 0
19, 65424, Note_on_c, 14, 46, 44
19, 65471, Note_on_c, 14, 46, 0
19, 65472, Note_on_c, 14, 48, 44
19, 65511, Note_on_c, 14, 48, 0
19, 65520, Note_on_c, 14, 42, 44
19, 65567, Note_on_c, 14, 42, 0
19, 65568, Note_on_c, 14, 43, 44
19, 65615, Note_on_c, 14, 43, 0
19, 65616, Note_on_c, 14, 45, 44
19, 65663, Note_on_c, 14, 45, 0
19, 65664, Note_on_c, 14, 46, 44
19, 65711, Note_on_c, 14, 46, 0
19, 65712, Note_on_c, 14, 48, 44
19, 65751, Note_on_c, 14, 48, 0
19, 65760, Note_on_c, 14, 42, 44
19, 65807, Note_on_c, 14, 42, 0
19, 65808, Note_on_c, 14, 43, 44
19, 65855, Note_on_c, 14, 43, 0
19, 65856, Note_on_c, 14, 45, 44
19, 65903, Note_on_c, 14, 45, 0
19, 65904, Note_on_c, 14, 46, 44
19, 65951, Note_on_c, 14, 46, 0
19, 65952, Note_on_c, 14, 48, 44
19, 65991, Note_on_c, 14, 48, 0
19, 66000, Note_on_c, 14, 42, 44
19, 66047, Note_on_c, 14, 42, 0
19, 66048, Note_on_c, 14, 43, 44
19, 66095, Note_on_c, 14, 43, 0
19, 66096, Note_on_c, 14, 45, 44
19, 66143, Note_on_c, 14, 45, 0
19, 66144, Note_on_c, 14, 46, 44
19, 66191, Note_on_c, 14, 46, 0
19, 66192, Note_on_c, 14, 48, 44
19, 66231, Note_on_c, 14, 48, 0
19, 66240, Note_on_c, 14, 42, 44
19, 66479, Note_on_c, 14, 42, 0
19, 68160, Note_on_c, 14, 41, 44
19, 68207, Note_on_c, 14, 41, 0
19, 68208, Note_on_c, 14, 43, 44
19, 68255, Note_on_c, 14, 43, 0
19, 68256, Note_on_c, 14, 45, 44
19, 68303, Note_on_c, 14, 45, 0
19, 68304, Note_on_c, 14, 46, 45
19, 68351, Note_on_c, 14, 46, 0
19, 68352, Note_on_c, 14, 48, 45
19, 68391, Note_on_c, 14, 48, 0
19, 68400, Note_on_c, 14, 41, 45
19, 68447, Note_on_c, 14, 41, 0
19, 68448, Note_on_c, 14, 43, 46
19, 68495, Note_on_c, 14, 43, 0
19, 68496, Note_on_c, 14, 45, 46
19, 68543, Note_on_c, 14, 45, 0
19, 68544, Note_on_c, 14, 46, 46
19, 68591, Note_on_c, 14, 46, 0
19, 68592, Note_on_c, 14, 48, 47
19, 68631, Note_on_c, 14, 48, 0
19, 68640, Note_on_c, 14, 41, 47
19, 68687, Note_on_c, 14, 41, 0
19, 68688, Note_on_c, 14, 43, 47
19, 68735, Note_on_c, 14, 43, 0
19, 68736, Note_on_c, 14, 45, 48
19, 68783, Note_on_c, 14, 45, 0
19, 68784, Note_on_c, 14, 46, 48
19, 68831, Note_on_c, 14, 46, 0
19, 68832, Note_on_c, 14, 48, 48
19, 68871, Note_on_c, 14, 48, 0
19, 68880, Note_on_c, 14, 41, 49
19, 68927, Note_on_c, 14, 41, 0
19, 68928, Note_on_c, 14, 43, 49
19, 68975, Note_on_c, 14, 43, 0
19, 68976, Note_on_c, 14, 45, 49
19, 69023, Note_on_c, 14, 45, 0
19, 69024, Note_on_c, 14, 46, 50
19, 69071, Note_on_c, 14, 46, 0
19, 69072, Note_on_c, 14, 48, 50
19, 69111, Note_on_c, 14, 48, 0
19, 69120, Note_on_c, 14, 41, 50
19, 69167, Note_on_c, 14, 41, 0
19, 69168, Note_on_c, 14, 43, 51
19, 69215, Note_on_c, 14, 43, 0
19, 69216, Note_on_c, 14, 45, 51
19, 69263, Note_on_c, 14, 45, 0
19, 69264, Note_on_c, 14, 46, 51
19, 69311, Note_on_c, 14, 46, 0
19, 69312, Note_on_c, 14, 48, 52
19, 69351, Note_on_c, 14, 48, 0
19, 69360, Note_on_c, 14, 41, 52
19, 69407, Note_on_c, 14, 41, 0
19, 69408, Note_on_c, 14, 43, 52
19, 69455, Note_on_c, 14, 43, 0
19, 69456, Note_on_c, 14, 45, 53
19, 69503, Note_on_c, 14, 45, 0
19, 69504, Note_on_c, 14, 46, 53
19, 69551, Note_on_c, 14, 46, 0
19, 69552, Note_on_c, 14, 48, 53
19, 69591, Note_on_c, 14, 48, 0
19, 69600, Note_on_c, 14, 41, 54
19, 69647, Note_on_c, 14, 41, 0
19, 69648, Note_on_c, 14, 43, 54
19, 69695, Note_on_c, 14, 43, 0
19, 69696, Note_on_c, 14, 45, 54
19, 69743, Note_on_c, 14, 45, 0
19, 69744, Note_on_c, 14, 46, 55
19, 69791, Note_on_c, 14, 46, 0
19, 69792, Note_on_c, 14, 48, 55
19, 69831, Note_on_c, 14, 48, 0
19, 69840, Note_on_c, 14, 41, 55
19, 69887, Note_on_c, 14, 41, 0
19, 69888, Note_on_c, 14, 43, 56
19, 69935, Note_on_c, 14, 43, 0
19, 69936, Note_on_c, 14, 45, 56
19, 69983, Note_on_c, 14, 45, 0
19, 69984, Note_on_c, 14, 46, 56
19, 70031, Note_on_c, 14, 46, 0
19, 70032, Note_on_c, 14, 48, 57
19, 70071, Note_on_c, 14, 48, 0
19, 70080, Note_on_c, 14, 46, 57
19, 70127, Note_on_c, 14, 46, 0
19, 70128, Note_on_c, 14, 48, 57
19, 70175, Note_on_c, 14, 48, 0
19, 70176, Note_on_c, 14, 49, 58
19, 70223, Note_on_c, 14, 49, 0
19, 70224, Note_on_c, 14, 51, 58
19, 70271, Note_on_c, 14, 51, 0
19, 70272, Note_on_c, 14, 53, 58
19, 70311, Note_on_c, 14, 53, 0
19, 70320, Note_on_c, 14, 46, 59
19, 70367, Note_on_c, 14, 46, 0
19, 70368, Note_on_c, 14, 48, 59
19, 70415, Note_on_c, 14, 48, 0
19, 70416, Note_on_c, 14, 49, 59
19, 70463, Note_on_c, 14, 49, 0
19, 70464, Note_on_c, 14, 51, 60
19, 70511, Note_on_c, 14, 51, 0
19, 70512, Note_on_c, 14, 53, 60
19, 70551, Note_on_c, 14, 53, 0
19, 70560, Note_on_c, 14, 46, 60
19, 70607, Note_on_c, 14, 46, 0
19, 70608, Note_on_c, 14, 48, 61
19, 70655, Note_on_c, 14, 48, 0
19, 70656, Note_on_c, 14, 49, 61
19, 70703, Note_on_c, 14, 49, 0
19, 70704, Note_on_c, 14, 51, 61
19, 70751, Note_on_c, 14, 51, 0
19, 70752, Note_on_c, 14, 53, 62
19, 70791, Note_on_c, 14, 53, 0
19, 70800, Note_on_c, 14, 46, 62
19, 70847, Note_on_c, 14, 46, 0
19, 70848, Note_on_c, 14, 48, 62
19, 70895, Note_on_c, 14, 48, 0
19, 70896, Note_on_c, 14, 49, 63
19, 70943, Note_on_c, 14, 49, 0
19, 70944, Note_on_c, 14, 51, 63
19, 70991, Note_on_c, 14, 51, 0
19, 70992, Note_on_c, 14, 53, 63
19, 71031, Note_on_c, 14, 53, 0
19, 71040, Note_on_c, 14, 46, 64
19, 71087, Note_on_c, 14, 46, 0
19, 71088, Note_on_c, 14, 48, 64
19, 71135, Note_on_c, 14, 48, 0
19, 71136, Note_on_c, 14, 49, 64
19, 71183, Note_on_c, 14, 49, 0
19, 71184, Note_on_c, 14, 51, 65
19, 71231, Note_on_c, 14, 51, 0
19, 71232, Note_on_c, 14, 53, 65
19, 71271, Note_on_c, 14, 53, 0
19, 71280, Note_on_c, 14, 46, 65
19, 71327, Note_on_c, 14, 46, 0
19, 71328, Note_on_c, 14, 48, 66
19, 71375, Note_on_c, 14, 48, 0
19, 71376, Note_on_c, 14, 49, 66
19, 71423, Note_on_c, 14, 49, 0
19, 71424, Note_on_c, 14, 51, 66
19, 71471, Note_on_c, 14, 51, 0
19, 71472, Note_on_c, 14, 53, 67
19, 71511, Note_on_c, 14, 53, 0
19, 71520, Note_on_c, 14, 46, 67
19, 71567, Note_on_c, 14, 46, 0
19, 71568, Note_on_c, 14, 48, 67
19, 71615, Note_on_c, 14, 48, 0
19, 71616, Note_on_c, 14, 49, 68
19, 71663, Note_on_c, 14, 49, 0
19, 71664, Note_on_c, 14, 51, 68
19, 71711, Note_on_c, 14, 51, 0
19, 71712, Note_on_c, 14, 53, 68
19, 71751, Note_on_c, 14, 53, 0
19, 71760, Note_on_c, 14, 46, 69
19, 71807, Note_on_c, 14, 46, 0
19, 71808, Note_on_c, 14, 48, 69
19, 71855, Note_on_c, 14, 48, 0
19, 71856, Note_on_c, 14, 49, 69
19, 71903, Note_on_c, 14, 49, 0
19, 71904, Note_on_c, 14, 51, 70
19, 71951, Note_on_c, 14, 51, 0
19, 71952, Note_on_c, 14, 53, 70
19, 71991, Note_on_c, 14, 53, 0
19, 72000, Note_on_c, 14, 43, 70
19, 72047, Note_on_c, 14, 43, 0
19, 72048, Note_on_c, 14, 45, 71
19, 72095, Note_on_c, 14, 45, 0
19, 72096, Note_on_c, 14, 47, 71
19, 72143, Note_on_c, 14, 47, 0
19, 72144, Note_on_c, 14, 48, 71
19, 72191, Note_on_c, 14, 48, 0
19, 72192, Note_on_c, 14, 50, 72
19, 72231, Note_on_c, 14, 50, 0
19, 72240, Note_on_c, 14, 43, 72
19, 72287, Note_on_c, 14, 43, 0
19, 72288, Note_on_c, 14, 45, 72
19, 72335, Note_on_c, 14, 45, 0
19, 72336, Note_on_c, 14, 47, 73
19, 72383, Note_on_c, 14, 47, 0
19, 72384, Note_on_c, 14, 48, 73
19, 72431, Note_on_c, 14, 48, 0
19, 72432, Note_on_c, 14, 50, 73
19, 72471, Note_on_c, 14, 50, 0
19, 72480, Note_on_c, 14, 43, 74
19, 72527, Note_on_c, 14, 43, 0
19, 72528, Note_on_c, 14, 45, 74
19, 72575, Note_on_c, 14, 45, 0
19, 72576, Note_on_c, 14, 47, 74
19, 72623, Note_on_c, 14, 47, 0
19, 72624, Note_on_c, 14, 48, 75
19, 72671, Note_on_c, 14, 48, 0
19, 72672, Note_on_c, 14, 50, 75
19, 72711, Note_on_c, 14, 50, 0
19, 72720, Note_on_c, 14, 43, 75
19, 72767, Note_on_c, 14, 43, 0
19, 72768, Note_on_c, 14, 45, 76
19, 72815, Note_on_c, 14, 45, 0
19, 72816, Note_on_c, 14, 47, 76
19, 72863, Note_on_c, 14, 47, 0
19, 72864, Note_on_c, 14, 48, 76
19, 72911, Note_on_c, 14, 48, 0
19, 72912, Note_on_c, 14, 50, 77
19, 72951, Note_on_c, 14, 50, 0
19, 72960, Note_on_c, 14, 43, 77
19, 73007, Note_on_c, 14, 43, 0
19, 73008, Note_on_c, 14, 45, 77
19, 73055, Note_on_c, 14, 45, 0
19, 73056, Note_on_c, 14, 47, 78
19, 73103, Note_on_c, 14, 47, 0
19, 73104, Note_on_c, 14, 48, 78
19, 73151, Note_on_c, 14, 48, 0
19, 73152, Note_on_c, 14, 50, 78
19, 73191, Note_on_c, 14, 50, 0
19, 73200, Note_on_c, 14, 43, 79
19, 73247, Note_on_c, 14, 43, 0
19, 73248, Note_on_c, 14, 45, 79
19, 73295, Note_on_c, 14, 45, 0
19, 73296, Note_on_c, 14, 47, 79
19, 73343, Note_on_c, 14, 47, 0
19, 73344, Note_on_c, 14, 48, 80
19, 73391, Note_on_c, 14, 48, 0
19, 73392, Note_on_c, 14, 50, 80
19, 73431, Note_on_c, 14, 50, 0
19, 73440, Note_on_c, 14, 43, 80
19, 73487, Note_on_c, 14, 43, 0
19, 73488, Note_on_c, 14, 45, 81
19, 73535, Note_on_c, 14, 45, 0
19, 73536, Note_on_c, 14, 47, 81
19, 73583, Note_on_c, 14, 47, 0
19, 73584, Note_on_c, 14, 48, 81
19, 73631, Note_on_c, 14, 48, 0
19, 73632, Note_on_c, 14, 50, 82
19, 73671, Note_on_c, 14, 50, 0
19, 73680, Note_on_c, 14, 43, 82
19, 73727, Note_on_c, 14, 43, 0
19, 73728, Note_on_c, 14, 45, 82
19, 73775, Note_on_c, 14, 45, 0
19, 73776, Note_on_c, 14, 47, 83
19, 73823, Note_on_c, 14, 47, 0
19, 73824, Note_on_c, 14, 48, 83
19, 73871, Note_on_c, 14, 48, 0
19, 73872, Note_on_c, 14, 50, 83
19, 73911, Note_on_c, 14, 50, 0
19, 73920, Note_on_c, 14, 55, 84
19, 74624, Note_on_c, 14, 55, 0
19, 74640, Note_on_c, 14, 53, 92
19, 74699, Note_on_c, 14, 53, 0
19, 74700, Note_on_c, 14, 53, 84
19, 74879, Note_on_c, 14, 53, 0
19, 74880, Note_on_c, 14, 51, 84
19, 75584, Note_on_c, 14, 51, 0
19, 75600, Note_on_c, 14, 50, 92
19, 75659, Note_on_c, 14, 50, 0
19, 75660, Note_on_c, 14, 50, 84
19, 75839, Note_on_c, 14, 50, 0
19, 75840, Note_on_c, 14, 48, 84
19, 76544, Note_on_c, 14, 48, 0
19, 76560, Note_on_c, 14, 46, 92
19, 76619, Note_on_c, 14, 46, 0
19, 76620, Note_on_c, 14, 46, 84
19, 76799, Note_on_c, 14, 46, 0
19, 76800, Note_on_c, 14, 44, 84
19, 77504, Note_on_c, 14, 44, 0
19, 77520, Note_on_c, 14, 44, 92
19, 77579, Note_on_c, 14, 44, 0
19, 77580, Note_on_c, 14, 44, 84
19, 77744, Note_on_c, 14, 44, 0
19, 77760, Note_on_c, 14, 56, 84
19, 78464, Note_on_c, 14, 56, 0
19, 78480, Note_on_c, 14, 54, 92
19, 78539, Note_on_c, 14, 54, 0
19, 78540, Note_on_c, 14, 54, 84
19, 78719, Note_on_c, 14, 54, 0
19, 78720, Note_on_c, 14, 53, 84
19, 79424, Note_on_c, 14, 53, 0
19, 79440, Note_on_c, 14, 51, 92
19, 79499, Note_on_c, 14, 51, 0
19, 79500, Note_on_c, 14, 51, 84
19, 79679, Note_on_c, 14, 51, 0
19, 79680, Note_on_c, 14, 49, 84
19, 80384, Note_on_c, 14, 49, 0
19, 80400, Note_on_c, 14, 47, 92
19, 80459, Note_on_c, 14, 47, 0
19, 80460, Note_on_c, 14, 47, 84
19, 80639, Note_on_c, 14, 47, 0
19, 80640, Note_on_c, 14, 46, 84
19, 81344, Note_on_c, 14, 46, 0
19, 81360, Note_on_c, 14, 58, 92
19, 81419, Note_on_c, 14, 58, 0
19, 81420, Note_on_c, 14, 58, 84
19, 81584, Note_on_c, 14, 58, 0
19, 81600, Note_on_c, 14, 58, 84
19, 82304, Note_on_c, 14, 58, 0
19, 82320, Note_on_c, 14, 56, 92
19, 82379, Note_on_c, 14, 56, 0
19, 82380, Note_on_c, 14, 56, 84
19, 82559, Note_on_c, 14, 56, 0
19, 82560, Note_on_c, 14, 54, 84
19, 83264, Note_on_c, 14, 54, 0
19, 83280, Note_on_c, 14, 53, 92
19, 83339, Note_on_c, 14, 53, 0
19, 83340, Note_on_c, 14, 53, 84
19, 83519, Note_on_c, 14, 53, 0
19, 83520, Note_on_c, 14, 51, 84
19, 84224, Note_on_c, 14, 51, 0
19, 84240, Note_on_c, 14, 44, 92
19, 84299, Note_on_c, 14, 44, 0
19, 84300, Note_on_c, 14, 44, 84
19, 84464, Note_on_c, 14, 44, 0
19, 84480, Note_on_c, 14, 49, 84
19, 84719, Note_on_c, 14, 49, 0
19, 84960, Note_on_c, 14, 61, 92
19, 85019, Note_on_c, 14, 61, 0
19, 85020, Note_on_c, 14, 61, 84
19, 85304, Note_on_c, 14, 61, 0
19, 85320, Note_on_c, 14, 56, 84
19, 85424, Note_on_c, 14, 56, 0
19, 85440, Note_on_c, 14, 58, 84
19, 85544, Note_on_c, 14, 58, 0
19, 85560, Note_on_c, 14, 53, 84
19, 85664, Note_on_c, 14, 53, 0
19, 85680, Note_on_c, 14, 54, 84
19, 85784, Note_on_c, 14, 54, 0
19, 85800, Note_on_c, 14, 53, 84
19, 85904, Note_on_c, 14, 53, 0
19, 85920, Note_on_c, 14, 51, 84
19, 86024, Note_on_c, 14, 51, 0
19, 86040, Note_on_c, 14, 49, 84
19, 86144, Note_on_c, 14, 49, 0
19, 86160, Note_on_c, 14, 49, 84
19, 86264, Note_on_c, 14, 49, 0
19, 86280, Note_on_c, 14, 48, 84
19, 86384, Note_on_c, 14, 48, 0
19, 86400, Note_on_c, 14, 46, 84
19, 86639, Note_on_c, 14, 46, 0
19, 86880, Note_on_c, 14, 58, 92
19, 86939, Note_on_c, 14, 58, 0
19, 86940, Note_on_c, 14, 58, 84
19, 87224, Note_on_c, 14, 58, 0
19, 87240, Note_on_c, 14, 53, 84
19, 87344, Note_on_c, 14, 53, 0
19, 87360, Note_on_c, 14, 54, 84
19, 87464, Note_on_c, 14, 54, 0
19, 87480, Note_on_c, 14, 49, 84
19, 87584, Note_on_c, 14, 49, 0
19, 87600, Note_on_c, 14, 51, 84
19, 87704, Note_on_c, 14, 51, 0
19, 87720, Note_on_c, 14, 49, 84
19, 87824, Note_on_c, 14, 49, 0
19, 87840, Note_on_c, 14, 47, 84
19, 87944, Note_on_c, 14, 47, 0
19, 87960, Note_on_c, 14, 46, 84
19, 88064, Note_on_c, 14, 46, 0
19, 88080, Note_on_c, 14, 46, 84
19, 88184, Note_on_c, 14, 46, 0
19, 88200, Note_on_c, 14, 44, 84
19, 88304, Note_on_c, 14, 44, 0
19, 88320, Note_on_c, 14, 42, 84
19, 88559, Note_on_c, 14, 42, 0
19, 88800, Note_on_c, 14, 54, 92
19, 88859, Note_on_c, 14, 54, 0
19, 88860, Note_on_c, 14, 54, 84
19, 89144, Note_on_c, 14, 54, 0
19, 89160, Note_on_c, 14, 49, 84
19, 89264, Note_on_c, 14, 49, 0
19, 89280, Note_on_c, 14, 51, 84
19, 89384, Note_on_c, 14, 51, 0
19, 89400, Note_on_c, 14, 46, 84
19, 89504, Note_on_c, 14, 46, 0
19, 89520, Note_on_c, 14, 47, 84
19, 89624, Note_on_c, 14, 47, 0
19, 89640, Note_on_c, 14, 46, 84
19, 89744, Note_on_c, 14, 46, 0
19, 89760, Note_on_c, 14, 44, 84
19, 89864, Note_on_c, 14, 44, 0
19, 89880, Note_on_c, 14, 42, 84
19, 89984, Note_on_c, 14, 42, 0
19, 90000, Note_on_c, 14, 42, 84
19, 90104, Note_on_c, 14, 42, 0
19, 90120, Note_on_c, 14, 52, 84
19, 90224, Note_on_c, 14, 52, 0
19, 90240, Note_on_c, 14, 52, 84
19, 90479, Note_on_c, 14, 52, 0
19, 91680, Note_on_c, 14, 58, 52
19, 91799, Note_on_c, 14, 58, 0
19, 91800, Note_on_c, 14, 57, 53
19, 91919, Note_on_c, 14, 57, 0
19, 91920, Note_on_c, 14, 56, 54
19, 92039, Note_on_c, 14, 56, 0
19, 92040, Note_on_c, 14, 55, 55
19, 92159, Note_on_c, 14, 55, 0
19, 92160, Note_on_c, 14, 54, 56
19, 92279, Note_on_c, 14, 54, 0
19, 92280, Note_on_c, 14, 53, 58
19, 92399, Note_on_c, 14, 53, 0
19, 92400, Note_on_c, 14, 52, 59
19, 92519, Note_on_c, 14, 52, 0
19, 92520, Note_on_c, 14, 51, 60
19, 92639, Note_on_c, 14, 51, 0
19, 92640, Note_on_c, 14, 50, 61
19, 92759, Note_on_c, 14, 50, 0
19, 92760, Note_on_c, 14, 49, 62
19, 92879, Note_on_c, 14, 49, 0
19, 92880, Note_on_c, 14, 48, 64
19, 92999, Note_on_c, 14, 48, 0
19, 93000, Note_on_c, 14, 47, 65
19, 93119, Note_on_c, 14, 47, 0
19, 93120, Note_on_c, 14, 46, 66
19, 93239, Note_on_c, 14, 46, 0
19, 93240, Note_on_c, 14, 47, 67
19, 93359, Note_on_c, 14, 47, 0
19, 93360, Note_on_c, 14, 48, 68
19, 93479, Note_on_c, 14, 48, 0
19, 93480, Note_on_c, 14, 49, 70
19, 93599, Note_on_c, 14, 49, 0
19, 93600, Note_on_c, 14, 50, 71
19, 93719, Note_on_c, 14, 50, 0
19, 93720, Note_on_c, 14, 51, 72
19, 93839, Note_on_c, 14, 51, 0
19, 93840, Note_on_c, 14, 52, 73
19, 93959, Note_on_c, 14, 52, 0
19, 93960, Note_on_c, 14, 51, 74
19, 94079, Note_on_c, 14, 51, 0
19, 94080, Note_on_c, 14, 52, 76
19, 94319, Note_on_c, 14, 52, 0
19, 95520, Note_on_c, 14, 58, 52
19, 95639, Note_on_c, 14, 58, 0
19, 95640, Note_on_c, 14, 57, 53
19, 95759, Note_on_c, 14, 57, 0
19, 95760, Note_on_c, 14, 56, 54
19, 95879, Note_on_c, 14, 56, 0
19, 95880, Note_on_c, 14, 55, 55
19, 95999, Note_on_c, 14, 55, 0
19, 96000, Note_on_c, 14, 54, 56
19, 96119, Note_on_c, 14, 54, 0
19, 96120, Note_on_c, 14, 53, 58
19, 96239, Note_on_c, 14, 53, 0
19, 96240, Note_on_c, 14, 52, 59
19, 96359, Note_on_c, 14, 52, 0
19, 96360, Note_on_c, 14, 51, 60
19, 96479, Note_on_c, 14, 51, 0
19, 96480, Note_on_c, 14, 50, 61
19, 96599, Note_on_c, 14, 50, 0
19, 96600, Note_on_c, 14, 49, 62
19, 96719, Note_on_c, 14, 49, 0
19, 96720, Note_on_c, 14, 48, 64
19, 96839, Note_on_c, 14, 48, 0
19, 96840, Note_on_c, 14, 47, 65
19, 96959, Note_on_c, 14, 47, 0
19, 96960, Note_on_c, 14, 46, 66
19, 97079, Note_on_c, 14, 46, 0
19, 97080, Note_on_c, 14, 47, 67
19, 97199, Note_on_c, 14, 47, 0
19, 97200, Note_on_c, 14, 48, 68
19, 97319, Note_on_c, 14, 48, 0
19, 97320, Note_on_c, 14, 49, 70
19, 97439, Note_on_c, 14, 49, 0
19, 97440, Note_on_c, 14, 50, 71
19, 97559, Note_on_c, 14, 50, 0
19, 97560, Note_on_c, 14, 51, 72
19, 97679, Note_on_c, 14, 51, 0
19, 97680, Note_on_c, 14, 52, 73
19, 97799, Note_on_c, 14, 52, 0
19, 97800, Note_on_c, 14, 51, 74
19, 97919, Note_on_c, 14, 51, 0
19, 97920, Note_on_c, 14, 52, 76
19, 98159, Note_on_c, 14, 52, 0
19, 98880, Note_on_c, 14, 51, 78
19, 99119, Note_on_c, 14, 51, 0
19, 99840, Note_on_c, 14, 50, 80
19, 100079, Note_on_c, 14, 50, 0
19, 100800, Note_on_c, 14, 49, 82
19, 101039, Note_on_c, 14, 49, 0
19, 101280, Note_on_c, 14, 48, 83
19, 101504, Note_on_c, 14, 48, 0
19, 101520, Note_on_c, 14, 42, 84
19, 101567, Note_on_c, 14, 42, 0
19, 101568, Note_on_c, 14, 43, 84
19, 101615, Note_on_c, 14, 43, 0
19, 101616, Note_on_c, 14, 45, 84
19, 101663, Note_on_c, 14, 45, 0
19, 101664, Note_on_c, 14, 46, 84
19, 101711, Note_on_c, 14, 46, 0
19, 101712, Note_on_c, 14, 48, 84
19, 101751, Note_on_c, 14, 48, 0
19, 101760, Note_on_c, 14, 42, 84
19, 101807, Note_on_c, 14, 42, 0
19, 101808, Note_on_c, 14, 43, 84
19, 101855, Note_on_c, 14, 43, 0
19, 101856, Note_on_c, 14, 45, 84
19, 101903, Note_on_c, 14, 45, 0
19, 101904, Note_on_c, 14, 46, 84
19, 101951, Note_on_c, 14, 46, 0
19, 101952, Note_on_c, 14, 48, 84
19, 101991, Note_on_c, 14, 48, 0
19, 102000, Note_on_c, 14, 42, 84
19, 102047, Note_on_c, 14, 42, 0
19, 102048, Note_on_c, 14, 43, 84
19, 102095, Note_on_c, 14, 43, 0
19, 102096, Note_on_c, 14, 45, 84
19, 102143, Note_on_c, 14, 45, 0
19, 102144, Note_on_c, 14, 46, 84
19, 102191, Note_on_c, 14, 46, 0
19, 102192, Note_on_c, 14, 48, 84
19, 102231, Note_on_c, 14, 48, 0
19, 102240, Note_on_c, 14, 42, 84
19, 102287, Note_on_c, 14, 42, 0
19, 102288, Note_on_c, 14, 43, 84
19, 102335, Note_on_c, 14, 43, 0
19, 102336, Note_on_c, 14, 45, 84
19, 102383, Note_on_c, 14, 45, 0
19, 102384, Note_on_c, 14, 46, 84
19, 102431, Note_on_c, 14, 46, 0
19, 102432, Note_on_c, 14, 48, 84
19, 102471, Note_on_c, 14, 48, 0
19, 102480, Note_on_c, 14, 42, 84
19, 102527, Note_on_c, 14, 42, 0
19, 102528, Note_on_c, 14, 43, 84
19, 102575, Note_on_c, 14, 43, 0
19, 102576, Note_on_c, 14, 45, 84
19, 102623, Note_on_c, 14, 45, 0
19, 102624, Note_on_c, 14, 46, 84
19, 102671, Note_on_c, 14, 46, 0
19, 102672, Note_on_c, 14, 48, 84
19, 102711, Note_on_c, 14, 48, 0
19, 102720, Note_on_c, 14, 42, 84
19, 102767, Note_on_c, 14, 42, 0
19, 102768, Note_on_c, 14, 43, 84
19, 102815, Note_on_c, 14, 43, 0
19, 102816, Note_on_c, 14, 45, 84
19, 102863, Note_on_c, 14, 45, 0
19, 102864, Note_on_c, 14, 46, 84
19, 102911, Note_on_c, 14, 46, 0
19, 102912, Note_on_c, 14, 48, 84
19, 102951, Note_on_c, 14, 48, 0
19, 102960, Note_on_c, 14, 42, 84
19, 103007, Note_on_c, 14, 42, 0
19, 103008, Note_on_c, 14, 43, 84
19, 103055, Note_on_c, 14, 43, 0
19, 103056, Note_on_c, 14, 45, 84
19, 103103, Note_on_c, 14, 45, 0
19, 103104, Note_on_c, 14, 46, 84
19, 103151, Note_on_c, 14, 46, 0
19, 103152, Note_on_c, 14, 48, 84
19, 103191, Note_on_c, 14, 48, 0
19, 103200, Note_on_c, 14, 42, 84
19, 103247, Note_on_c, 14, 42, 0
19, 103248, Note_on_c, 14, 43, 84
19, 103295, Note_on_c, 14, 43, 0
19, 103296, Note_on_c, 14, 45, 84
19, 103343, Note_on_c, 14, 45, 0
19, 103344, Note_on_c, 14, 46, 84
19, 103391, Note_on_c, 14, 46, 0
19, 103392, Note_on_c, 14, 48, 84
19, 103431, Note_on_c, 14, 48, 0
19, 103440, Note_on_c, 14, 42, 84
19, 103487, Note_on_c, 14, 42, 0
19, 103488, Note_on_c, 14, 43, 84
19, 103535, Note_on_c, 14, 43, 0
19, 103536, Note_on_c, 14, 45, 84
19, 103583, Note_on_c, 14, 45, 0
19, 103584, Note_on_c, 14, 46, 84
19, 103631, Note_on_c, 14, 46, 0
19, 103632, Note_on_c, 14, 48, 84
19, 103671, Note_on_c, 14, 48, 0
19, 103680, Note_on_c, 14, 42, 84
19, 103727, Note_on_c, 14, 42, 0
19, 103728, Note_on_c, 14, 43, 84
19, 103775, Note_on_c, 14, 43, 0
19, 103776, Note_on_c, 14, 45, 84
19, 103823, Note_on_c, 14, 45, 0
19, 103824, Note_on_c, 14, 46, 84
19, 103871, Note_on_c, 14, 46, 0
19, 103872, Note_on_c, 14, 48, 84
19, 103911, Note_on_c, 14, 48, 0
19, 103920, Note_on_c, 14, 42, 84
19, 103967, Note_on_c, 14, 42, 0
19, 103968, Note_on_c, 14, 43, 84
19, 104015, Note_on_c, 14, 43, 0
19, 104016, Note_on_c, 14, 45, 84
19, 104063, Note_on_c, 14, 45, 0
19, 104064, Note_on_c, 14, 46, 84
19, 104111, Note_on_c, 14, 46, 0
19, 104112, Note_on_c, 14, 48, 84
19, 104151, Note_on_c, 14, 48, 0
19, 104160, Note_on_c, 14, 42, 84
19, 104207, Note_on_c, 14, 42, 0
19, 104208, Note_on_c, 14, 43, 84
19, 104255, Note_on_c, 14, 43, 0
19, 104256, Note_on_c, 14, 45, 84
19, 104303, Note_on_c, 14, 45, 0
19, 104304, Note_on_c, 14, 46, 84
19, 104351, Note_on_c, 14, 46, 0
19, 104352, Note_on_c, 14, 48, 84
19, 104391, Note_on_c, 14, 48, 0
19, 104400, Note_on_c, 14, 42, 84
19, 104447, Note_on_c, 14, 42, 0
19, 104448, Note_on_c, 14, 43, 84
19, 104495, Note_on_c, 14, 43, 0
19, 104496, Note_on_c, 14, 45, 84
19, 104543, Note_on_c, 14, 45, 0
19, 104544, Note_on_c, 14, 46, 84
19, 104591, Note_on_c, 14, 46, 0
19, 104592, Note_on_c, 14, 48, 84
19, 104631, Note_on_c, 14, 48, 0
19, 104640, Note_on_c, 14, 42, 84
19, 104687, Note_on_c, 14, 42, 0
19, 104688, Note_on_c, 14, 43, 84
19, 104735, Note_on_c, 14, 43, 0
19, 104736, Note_on_c, 14, 45, 84
19, 104783, Note_on_c, 14, 45, 0
19, 104784, Note_on_c, 14, 46, 84
19, 104831, Note_on_c, 14, 46, 0
19, 104832, Note_on_c, 14, 48, 84
19, 104871, Note_on_c, 14, 48, 0
19, 104880, Note_on_c, 14, 42, 84
19, 104927, Note_on_c, 14, 42, 0
19, 104928, Note_on_c, 14, 43, 84
19, 104975, Note_on_c, 14, 43, 0
19, 104976, Note_on_c, 14, 45, 84
19, 105023, Note_on_c, 14, 45, 0
19, 105024, Note_on_c, 14, 46, 84
19, 105071, Note_on_c, 14, 46, 0
19, 105072, Note_on_c, 14, 48, 84
19, 105111, Note_on_c, 14, 48, 0
19, 105120, Note_on_c, 14, 42, 84
19, 105167, Note_on_c, 14, 42, 0
19, 105168, Note_on_c, 14, 43, 84
19, 105215, Note_on_c, 14, 43, 0
19, 105216, Note_on_c, 14, 45, 84
19, 105263, Note_on_c, 14, 45, 0
19, 105264, Note_on_c, 14, 46, 84
19, 105311, Note_on_c, 14, 46, 0
19, 105312, Note_on_c, 14, 48, 84
19, 105351, Note_on_c, 14, 48, 0
19, 105360, Note_on_c, 14, 42, 84
19, 105407, Note_on_c, 14, 42, 0
19, 105408, Note_on_c, 14, 43, 84
19, 105455, Note_on_c, 14, 43, 0
19, 105456, Note_on_c, 14, 45, 84
19, 105503, Note_on_c, 14, 45, 0
19, 105504, Note_on_c, 14, 46, 84
19, 105551, Note_on_c, 14, 46, 0
19, 105552, Note_on_c, 14, 48, 84
19, 105591, Note_on_c, 14, 48, 0
19, 105600, Note_on_c, 14, 41, 84
19, 105659, Note_on_c, 14, 41, 0
19, 105660, Note_on_c, 14, 45, 84
19, 105719, Note_on_c, 14, 45, 0
19, 105720, Note_on_c, 14, 46, 84
19, 105779, Note_on_c, 14, 46, 0
19, 105780, Note_on_c, 14, 48, 84
19, 105831, Note_on_c, 14, 48, 0
19, 105840, Note_on_c, 14, 41, 84
19, 105899, Note_on_c, 14, 41, 0
19, 105900, Note_on_c, 14, 45, 84
19, 105959, Note_on_c, 14, 45, 0
19, 105960, Note_on_c, 14, 46, 84
19, 106019, Note_on_c, 14, 46, 0
19, 106020, Note_on_c, 14, 48, 84
19, 106071, Note_on_c, 14, 48, 0
19, 106080, Note_on_c, 14, 41, 84
19, 106139, Note_on_c, 14, 41, 0
19, 106140, Note_on_c, 14, 45, 84
19, 106199, Note_on_c, 14, 45, 0
19, 106200, Note_on_c, 14, 46, 84
19, 106259, Note_on_c, 14, 46, 0
19, 106260, Note_on_c, 14, 48, 84
19, 106311, Note_on_c, 14, 48, 0
19, 106320, Note_on_c, 14, 41, 84
19, 106379, Note_on_c, 14, 41, 0
19, 106380, Note_on_c, 14, 45, 84
19, 106439, Note_on_c, 14, 45, 0
19, 106440, Note_on_c, 14, 46, 84
19, 106499, Note_on_c, 14, 46, 0
19, 106500, Note_on_c, 14, 48, 84
19, 106551, Note_on_c, 14, 48, 0
19, 106560, Note_on_c, 14, 41, 92
19, 106619, Note_on_c, 14, 41, 0
19, 106620, Note_on_c, 14, 41, 84
19, 107504, Note_on_c, 14, 41, 0
19, 107520, Note_on_c, 14, 41, 84
19, 107579, Note_on_c, 14, 41, 0
19, 107580, Note_on_c, 14, 46, 84
19, 107639, Note_on_c, 14, 46, 0
19, 107640, Note_on_c, 14, 48, 84
19, 107699, Note_on_c, 14, 48, 0
19, 107700, Note_on_c, 14, 49, 84
19, 107751, Note_on_c, 14, 49, 0
19, 107760, Note_on_c, 14, 41, 84
19, 107819, Note_on_c, 14, 41, 0
19, 107820, Note_on_c, 14, 46, 84
19, 107879, Note_on_c, 14, 46, 0
19, 107880, Note_on_c, 14, 48, 84
19, 107939, Note_on_c, 14, 48, 0
19, 107940, Note_on_c, 14, 49, 84
19, 107991, Note_on_c, 14, 49, 0
19, 108000, Note_on_c, 14, 41, 84
19, 108059, Note_on_c, 14, 41, 0
19, 108060, Note_on_c, 14, 46, 84
19, 108119, Note_on_c, 14, 46, 0
19, 108120, Note_on_c, 14, 48, 84
19, 108179, Note_on_c, 14, 48, 0
19, 108180, Note_on_c, 14, 49, 84
19, 108231, Note_on_c, 14, 49, 0
19, 108240, Note_on_c, 14, 41, 84
19, 108299, Note_on_c, 14, 41, 0
19, 108300, Note_on_c, 14, 46, 84
19, 108359, Note_on_c, 14, 46, 0
19, 108360, Note_on_c, 14, 48, 84
19, 108419, Note_on_c, 14, 48, 0
19, 108420, Note_on_c, 14, 49, 84
19, 108471, Note_on_c, 14, 49, 0
19, 108480, Note_on_c, 14, 41, 92
19, 108539, Note_on_c, 14, 41, 0
19, 108540, Note_on_c, 14, 41, 84
19, 109424, Note_on_c, 14, 41, 0
19, 109440, Note_on_c, 14, 41, 84
19, 109499, Note_on_c, 14, 41, 0
19, 109500, Note_on_c, 14, 45, 84
19, 109559, Note_on_c, 14, 45, 0
19, 109560, Note_on_c, 14, 46, 84
19, 109619, Note_on_c, 14, 46, 0
19, 109620, Note_on_c, 14, 48, 84
19, 109671, Note_on_c, 14, 48, 0
19, 109680, Note_on_c, 14, 41, 84
19, 109739, Note_on_c, 14, 41, 0
19, 109740, Note_on_c, 14, 45, 84
19, 109799, Note_on_c, 14, 45, 0
19, 109800, Note_on_c, 14, 46, 84
19, 109859, Note_on_c, 14, 46, 0
19, 109860, Note_on_c, 14, 48, 84
19, 109911, Note_on_c, 14, 48, 0
19, 109920, Note_on_c, 14, 41, 84
19, 109979, Note_on_c, 14, 41, 0
19, 109980, Note_on_c, 14, 45, 84
19, 110039, Note_on_c, 14, 45, 0
19, 110040, Note_on_c, 14, 46, 84
19, 110099, Note_on_c, 14, 46, 0
19, 110100, Note_on_c, 14, 48, 84
19, 110151, Note_on_c, 14, 48, 0
19, 110160, Note_on_c, 14, 41, 84
19, 110219, Note_on_c, 14, 41, 0
19, 110220, Note_on_c, 14, 45, 84
19, 110279, Note_on_c, 14, 45, 0
19, 110280, Note_on_c, 14, 46, 84
19, 110339, Note_on_c, 14, 46, 0
19, 110340, Note_on_c, 14, 48, 84
19, 110391, Note_on_c, 14, 48, 0
19, 110400, Note_on_c, 14, 41, 92
19, 110459, Note_on_c, 14, 41, 0
19, 110460, Note_on_c, 14, 41, 84
19, 111344, Note_on_c, 14, 41, 0
19, 111360, Note_on_c, 14, 41, 84
19, 111419, Note_on_c, 14, 41, 0
19, 111420, Note_on_c, 14, 46, 84
19, 111479, Note_on_c, 14, 46, 0
19, 111480, Note_on_c, 14, 48, 84
19, 111539, Note_on_c, 14, 48, 0
19, 111540, Note_on_c, 14, 49, 84
19, 111591, Note_on_c, 14, 49, 0
19, 111600, Note_on_c, 14, 41, 84
19, 111659, Note_on_c, 14, 41, 0
19, 111660, Note_on_c, 14, 46, 84
19, 111719, Note_on_c, 14, 46, 0
19, 111720, Note_on_c, 14, 48, 84
19, 111779, Note_on_c, 14, 48, 0
19, 111780, Note_on_c, 14, 49, 84
19, 111831, Note_on_c, 14, 49, 0
19, 111840, Note_on_c, 14, 41, 84
19, 111899, Note_on_c, 14, 41, 0
19, 111900, Note_on_c, 14, 46, 84
19, 111959, Note_on_c, 14, 46, 0
19, 111960, Note_on_c, 14, 48, 84
19, 112019, Note_on_c, 14, 48, 0
19, 112020, Note_on_c, 14, 49, 84
19, 112071, Note_on_c, 14, 49, 0
19, 112080, Note_on_c, 14, 41, 84
19, 112139, Note_on_c, 14, 41, 0
19, 112140, Note_on_c, 14, 46, 84
19, 112199, Note_on_c, 14, 46, 0
19, 112200, Note_on_c, 14, 48, 84
19, 112259, Note_on_c, 14, 48, 0
19, 112260, Note_on_c, 14, 49, 84
19, 112311, Note_on_c, 14, 49, 0
19, 112320, Note_on_c, 14, 41, 92
19, 112379, Note_on_c, 14, 41, 0
19, 112380, Note_on_c, 14, 41, 84
19, 112440, Control_c, 14, 11, 127
19, 112487, Control_c, 14, 11, 124
19, 112533, Control_c, 14, 11, 122
19, 112580, Control_c, 14, 11, 119
19, 112627, Control_c, 14, 11, 117
19, 112673, Control_c, 14, 11, 114
19, 112720, Control_c, 14, 11, 111
19, 112767, Control_c, 14, 11, 109
19, 112813, Control_c, 14, 11, 106
19, 112860, Control_c, 14, 11, 104
19, 112907, Control_c, 14, 11, 101
19, 112953, Control_c, 14, 11, 98
19, 113000, Control_c, 14, 11, 96
19, 113047, Control_c, 14, 11, 93
19, 113093, Control_c, 14, 11, 90
19, 113140, Control_c, 14, 11, 88
19, 113187, Control_c, 14, 11, 85
19, 113233, Control_c, 14, 11, 83
19, 113264, Note_on_c, 14, 41, 0
19, 113278, Control_c, 14, 11, 96
19, 113280, Note_on_c, 14, 53, 76
19, 113984, Note_on_c, 14, 53, 0
19, 113984, Control_c, 14, 11, 95
19, 114000, Note_on_c, 14, 51, 76
19, 114239, Note_on_c, 14, 51, 0
19, 114240, Note_on_c, 14, 49, 76
19, 114688, Control_c, 14, 11, 94
19, 114944, Note_on_c, 14, 49, 0
19, 114960, Note_on_c, 14, 48, 76
19, 115199, Note_on_c, 14, 48, 0
19, 115200, Note_on_c, 14, 46, 76
19, 115904, Note_on_c, 14, 46, 0
19, 115918, Control_c, 14, 11, 108
19, 115920, Note_on_c, 14, 44, 68
19, 116096, Control_c, 14, 11, 107
19, 116159, Note_on_c, 14, 44, 0
19, 116160, Note_on_c, 14, 43, 68
19, 116800, Control_c, 14, 11, 106
19, 116864, Note_on_c, 14, 43, 0
19, 116880, Note_on_c, 14, 55, 68
19, 117104, Note_on_c, 14, 55, 0
19, 117120, Note_on_c, 14, 55, 68
19, 117824, Note_on_c, 14, 55, 0
19, 117838, Control_c, 14, 11, 120
19, 117840, Note_on_c, 14, 53, 60
19, 118079, Note_on_c, 14, 53, 0
19, 118080, Note_on_c, 14, 51, 60
19, 118208, Control_c, 14, 11, 120
19, 118784, Note_on_c, 14, 51, 0
19, 118800, Note_on_c, 14, 50, 60
19, 118912, Control_c, 14, 11, 119
19, 119039, Note_on_c, 14, 50, 0
19, 119040, Note_on_c, 14, 48, 60
19, 119616, Control_c, 14, 11, 118
19, 119744, Note_on_c, 14, 48, 0
19, 119760, Note_on_c, 14, 46, 60
19, 119999, Note_on_c, 14, 46, 0
19, 120000, Note_on_c, 14, 44, 60
19, 120320, Control_c, 14, 11, 117
19, 120704, Note_on_c, 14, 44, 0
19, 120720, Note_on_c, 14, 56, 60
19, 120944, Note_on_c, 14, 56, 0
19, 120960, Note_on_c, 14, 56, 60
19, 121024, Control_c, 14, 11, 116
19, 121664, Note_on_c, 14, 56, 0
19, 121680, Note_on_c, 14, 54, 60
19, 121728, Control_c, 14, 11, 115
19, 121919, Note_on_c, 14, 54, 0
19, 121920, Note_on_c, 14, 53, 60
19, 122432, Control_c, 14, 11, 114
19, 122624, Note_on_c, 14, 53, 0
19, 122640, Note_on_c, 14, 51, 60
19, 122879, Note_on_c, 14, 51, 0
19, 122880, Note_on_c, 14, 49, 60
19, 123136, Control_c, 14, 11, 113
19, 123584, Note_on_c, 14, 49, 0
19, 123600, Note_on_c, 14, 48, 60
19, 123824, Note_on_c, 14, 48, 0
19, 123838, Control_c, 14, 11, 127
19, 123840, Note_on_c, 14, 47, 52
19, 123891, Note_on_c, 14, 47, 0
19, 123900, Note_on_c, 14, 47, 52
19, 123951, Note_on_c, 14, 47, 0
19, 123960, Note_on_c, 14, 47, 52
19, 124011, Note_on_c, 14, 47, 0
19, 124020, Note_on_c, 14, 47, 52
19, 124071, Note_on_c, 14, 47, 0
19, 124080, Note_on_c, 14, 48, 52
19, 124131, Note_on_c, 14, 48, 0
19, 124140, Note_on_c, 14, 48, 52
19, 124191, Note_on_c, 14, 48, 0
19, 124200, Note_on_c, 14, 48, 52
19, 124251, Note_on_c, 14, 48, 0
19, 124260, Note_on_c, 14, 48, 52
19, 124311, Note_on_c, 14, 48, 0
19, 124320, Note_on_c, 14, 47, 52
19, 124371, Note_on_c, 14, 47, 0
19, 124380, Note_on_c, 14, 47, 52
19, 124431, Note_on_c, 14, 47, 0
19, 124440, Note_on_c, 14, 47, 52
19, 124491, Note_on_c, 14, 47, 0
19, 124500, Note_on_c, 14, 47, 52
19, 124551, Note_on_c, 14, 47, 0
19, 124560, Note_on_c, 14, 48, 52
19, 124611, Note_on_c, 14, 48, 0
19, 124620, Note_on_c, 14, 48, 52
19, 124671, Note_on_c, 14, 48, 0
19, 124680, Note_on_c, 14, 48, 52
19, 124731, Note_on_c, 14, 48, 0
19, 124740, Note_on_c, 14, 48, 52
19, 124791, Note_on_c, 14, 48, 0
19, 124800, Note_on_c, 14, 50, 52
19, 124851, Note_on_c, 14, 50, 0
19, 124860, Note_on_c, 14, 50, 52
19, 124911, Note_on_c, 14, 50, 0
19, 124920, Note_on_c, 14, 50, 52
19, 124971, Note_on_c, 14, 50, 0
19, 124980, Note_on_c, 14, 50, 52
19, 125031, Note_on_c, 14, 50, 0
19, 125040, Note_on_c, 14, 48, 52
19, 125091, Note_on_c, 14, 48, 0
19, 125100, Note_on_c, 14, 48, 52
19, 125151, Note_on_c, 14, 48, 0
19, 125160, Note_on_c, 14, 48, 52
19, 125211, Note_on_c, 14, 48, 0
19, 125220, Note_on_c, 14, 48, 52
19, 125271, Note_on_c, 14, 48, 0
19, 125280, Note_on_c, 14, 50, 52
19, 125331, Note_on_c, 14, 50, 0
19, 125340, Note_on_c, 14, 50, 52
19, 125391, Note_on_c, 14, 50, 0
19, 125400, Note_on_c, 14, 50, 52
19, 125451, Note_on_c, 14, 50, 0
19, 125460, Note_on_c, 14, 50, 52
19, 125511, Note_on_c, 14, 50, 0
19, 125520, Note_on_c, 14, 48, 52
19, 125571, Note_on_c, 14, 48, 0
19, 125580, Note_on_c, 14, 48, 52
19, 125631, Note_on_c, 14, 48, 0
19, 125640, Note_on_c, 14, 48, 52
19, 125691, Note_on_c, 14, 48, 0
19, 125700, Note_on_c, 14, 48, 52
19, 125751, Note_on_c, 14, 48, 0
19, 125760, Note_on_c, 14, 47, 52
19, 125811, Note_on_c, 14, 47, 0
19, 125820, Note_on_c, 14, 47, 52
19, 125871, Note_on_c, 14, 47, 0
19, 125880, Note_on_c, 14, 47, 52
19, 125931, Note_on_c, 14, 47, 0
19, 125940, Note_on_c, 14, 47, 52
19, 125991, Note_on_c, 14, 47, 0
19, 126000, Note_on_c, 14, 48, 52
19, 126051, Note_on_c, 14, 48, 0
19, 126060, Note_on_c, 14, 48, 52
19, 126111, Note_on_c, 14, 48, 0
19, 126120, Note_on_c, 14, 48, 52
19, 126171, Note_on_c, 14, 48, 0
19, 126180, Note_on_c, 14, 48, 52
19, 126231, Note_on_c, 14, 48, 0
19, 126240, Note_on_c, 14, 50, 51
19, 126291, Note_on_c, 14, 50, 0
19, 126300, Note_on_c, 14, 50, 51
19, 126351, Note_on_c, 14, 50, 0
19, 126360, Note_on_c, 14, 50, 51
19, 126411, Note_on_c, 14, 50, 0
19, 126420, Note_on_c, 14, 50, 51
19, 126471, Note_on_c, 14, 50, 0
19, 126480, Note_on_c, 14, 48, 51
19, 126531, Note_on_c, 14, 48, 0
19, 126540, Note_on_c, 14, 48, 51
19, 126591, Note_on_c, 14, 48, 0
19, 126600, Note_on_c, 14, 48, 51
19, 126651, Note_on_c, 14, 48, 0
19, 126660, Note_on_c, 14, 48, 51
19, 126711, Note_on_c, 14, 48, 0
19, 126720, Note_on_c, 14, 47, 50
19, 126771, Note_on_c, 14, 47, 0
19, 126780, Note_on_c, 14, 47, 50
19, 126831, Note_on_c, 14, 47, 0
19, 126840, Note_on_c, 14, 47, 50
19, 126891, Note_on_c, 14, 47, 0
19, 126900, Note_on_c, 14, 47, 50
19, 126951, Note_on_c, 14, 47, 0
19, 126960, Note_on_c, 14, 48, 50
19, 127011, Note_on_c, 14, 48, 0
19, 127020, Note_on_c, 14, 48, 50
19, 127071, Note_on_c, 14, 48, 0
19, 127080, Note_on_c, 14, 48, 50
19, 127131, Note_on_c, 14, 48, 0
19, 127140, Note_on_c, 14, 48, 50
19, 127191, Note_on_c, 14, 48, 0
19, 127200, Note_on_c, 14, 47, 49
19, 127251, Note_on_c, 14, 47, 0
19, 127260, Note_on_c, 14, 47, 49
19, 127311, Note_on_c, 14, 47, 0
19, 127320, Note_on_c, 14, 47, 49
19, 127371, Note_on_c, 14, 47, 0
19, 127380, Note_on_c, 14, 47, 49
19, 127431, Note_on_c, 14, 47, 0
19, 127440, Note_on_c, 14, 45, 49
19, 127491, Note_on_c, 14, 45, 0
19, 127500, Note_on_c, 14, 45, 49
19, 127551, Note_on_c, 14, 45, 0
19, 127560, Note_on_c, 14, 45, 49
19, 127611, Note_on_c, 14, 45, 0
19, 127620, Note_on_c, 14, 45, 49
19, 127671, Note_on_c, 14, 45, 0
19, 127680, Note_on_c, 14, 43, 48
19, 127731, Note_on_c, 14, 43, 0
19, 127740, Note_on_c, 14, 43, 48
19, 127791, Note_on_c, 14, 43, 0
19, 127800, Note_on_c, 14, 43, 48
19, 127851, Note_on_c, 14, 43, 0
19, 127860, Note_on_c, 14, 43, 48
19, 127911, Note_on_c, 14, 43, 0
19, 127920, Note_on_c, 14, 45, 48
19, 127971, Note_on_c, 14, 45, 0
19, 127980, Note_on_c, 14, 45, 48
19, 128031, Note_on_c, 14, 45, 0
19, 128040, Note_on_c, 14, 45, 48
19, 128091, Note_on_c, 14, 45, 0
19, 128100, Note_on_c, 14, 45, 48
19, 128151, Note_on_c, 14, 45, 0
19, 128160, Note_on_c, 14, 43, 47
19, 128211, Note_on_c, 14, 43, 0
19, 128220, Note_on_c, 14, 43, 47
19, 128271, Note_on_c, 14, 43, 0
19, 128280, Note_on_c, 14, 43, 47
19, 128331, Note_on_c, 14, 43, 0
19, 128340, Note_on_c, 14, 43, 47
19, 128391, Note_on_c, 14, 43, 0
19, 128400, Note_on_c, 14, 41, 47
19, 128451, Note_on_c, 14, 41, 0
19, 128460, Note_on_c, 14, 41, 47
19, 128511, Note_on_c, 14, 41, 0
19, 128520, Note_on_c, 14, 41, 47
19, 128571, Note_on_c, 14, 41, 0
19, 128580, Note_on_c, 14, 41, 47
19, 128631, Note_on_c, 14, 41, 0
19, 128640, Note_on_c, 14, 40, 46
19, 128691, Note_on_c, 14, 40, 0
19, 128700, Note_on_c, 14, 40, 46
19, 128751, Note_on_c, 14, 40, 0
19, 128760, Note_on_c, 14, 40, 46
19, 128811, Note_on_c, 14, 40, 0
19, 128820, Note_on_c, 14, 40, 46
19, 128871, Note_on_c, 14, 40, 0
19, 128880, Note_on_c, 14, 41, 46
19, 128931, Note_on_c, 14, 41, 0
19, 128940, Note_on_c, 14, 41, 46
19, 128991, Note_on_c, 14, 41, 0
19, 129000, Note_on_c, 14, 41, 46
19, 129051, Note_on_c, 14, 41, 0
19, 129060, Note_on_c, 14, 41, 46
19, 129111, Note_on_c, 14, 41, 0
19, 129120, Note_on_c, 14, 40, 45
19, 129171, Note_on_c, 14, 40, 0
19, 129180, Note_on_c, 14, 40, 45
19, 129231, Note_on_c, 14, 40, 0
19, 129240, Note_on_c, 14, 40, 45
19, 129291, Note_on_c, 14, 40, 0
19, 129300, Note_on_c, 14, 40, 45
19, 129351, Note_on_c, 14, 40, 0
19, 129360, Note_on_c, 14, 38, 45
19, 129411, Note_on_c, 14, 38, 0
19, 129420, Note_on_c, 14, 38, 45
19, 129471, Note_on_c, 14, 38, 0
19, 129480, Note_on_c, 14, 38, 45
19, 129531, Note_on_c, 14, 38, 0
19, 129540, Note_on_c, 14, 38, 45
19, 129591, Note_on_c, 14, 38, 0
19, 129600, Note_on_c, 14, 36, 44
19, 129651, Note_on_c, 14, 36, 0
19, 129660, Note_on_c, 14, 36, 44
19, 129711, Note_on_c, 14, 36, 0
19, 129720, Note_on_c, 14, 36, 44
19, 129771, Note_on_c, 14, 36, 0
19, 129780, Note_on_c, 14, 36, 44
19, 129831, Note_on_c, 14, 36, 0
19, 129840, Note_on_c, 14, 36, 44
19, 129891, Note_on_c, 14, 36, 0
19, 129900, Note_on_c, 14, 36, 44
19, 129951, Note_on_c, 14, 36, 0
19, 129960, Note_on_c, 14, 36, 44
19, 130011, Note_on_c, 14, 36, 0
19, 130020, Note_on_c, 14, 36, 44
19, 130071, Note_on_c, 14, 36, 0
19, 130080, Note_on_c, 14, 36, 44
19, 130131, Note_on_c, 14, 36, 0
19, 130140, Note_on_c, 14, 36, 44
19, 130191, Note_on_c, 14, 36, 0
19, 130200, Note_on_c, 14, 36, 44
19, 130251, Note_on_c, 14, 36, 0
19, 130260, Note_on_c, 14, 36, 44
19, 130311, Note_on_c, 14, 36, 0
19, 130320, Note_on_c, 14, 36, 44
19, 130371, Note_on_c, 14, 36, 0
19, 130380, Note_on_c, 14, 36, 44
19, 130431, Note_on_c, 14, 36, 0
19, 130440, Note_on_c, 14, 36, 44
19, 130491, Note_on_c, 14, 36, 0
19, 130500, Note_on_c, 14, 36, 44
19, 130551, Note_on_c, 14, 36, 0
19, 130560, Note_on_c, 14, 36, 76
19, 130611, Note_on_c, 14, 36, 0
19, 130620, Note_on_c, 14, 36, 76
19, 130671, Note_on_c, 14, 36, 0
19, 130680, Note_on_c, 14, 36, 76
19, 130731, Note_on_c, 14, 36, 0
19, 130740, Note_on_c, 14, 36, 76
19, 130791, Note_on_c, 14, 36, 0
19, 130800, Note_on_c, 14, 36, 76
19, 130851, Note_on_c, 14, 36, 0
19, 130860, Note_on_c, 14, 36, 76
19, 130911, Note_on_c, 14, 36, 0
19, 130920, Note_on_c, 14, 36, 76
19, 130971, Note_on_c, 14, 36, 0
19, 130980, Note_on_c, 14, 36, 76
19, 131031, Note_on_c, 14, 36, 0
19, 131040, Note_on_c, 14, 36, 76
19, 131091, Note_on_c, 14, 36, 0
19, 131100, Note_on_c, 14, 36, 76
19, 131151, Note_on_c, 14, 36, 0
19, 131160, Note_on_c, 14, 36, 76
19, 131211, Note_on_c, 14, 36, 0
19, 131220, Note_on_c, 14, 36, 76
19, 131271, Note_on_c, 14, 36, 0
19, 131280, Note_on_c, 14, 36, 76
19, 131331, Note_on_c, 14, 36, 0
19, 131340, Note_on_c, 14, 36, 76
19, 131391, Note_on_c, 14, 36, 0
19, 131400, Note_on_c, 14, 36, 76
19, 131451, Note_on_c, 14, 36, 0
19, 131460, Note_on_c, 14, 36, 76
19, 131511, Note_on_c, 14, 36, 0
19, 131520, Note_on_c, 14, 36, 52
19, 131571, Note_on_c, 14, 36, 0
19, 131580, Note_on_c, 14, 36, 52
19, 131631, Note_on_c, 14, 36, 0
19, 131640, Note_on_c, 14, 36, 52
19, 131691, Note_on_c, 14, 36, 0
19, 131700, Note_on_c, 14, 36, 52
19, 131751, Note_on_c, 14, 36, 0
19, 131760, Note_on_c, 14, 36, 52
19, 131811, Note_on_c, 14, 36, 0
19, 131820, Note_on_c, 14, 36, 52
19, 131871, Note_on_c, 14, 36, 0
19, 131880, Note_on_c, 14, 36, 52
19, 131931, Note_on_c, 14, 36, 0
19, 131940, Note_on_c, 14, 36, 52
19, 131991, Note_on_c, 14, 36, 0
19, 132000, Note_on_c, 14, 36, 52
19, 132051, Note_on_c, 14, 36, 0
19, 132060, Note_on_c, 14, 36, 52
19, 132111, Note_on_c, 14, 36, 0
19, 132120, Note_on_c, 14, 36, 52
19, 132171, Note_on_c, 14, 36, 0
19, 132180, Note_on_c, 14, 36, 52
19, 132231, Note_on_c, 14, 36, 0
19, 132240, Note_on_c, 14, 36, 52
19, 132291, Note_on_c, 14, 36, 0
19, 132300, Note_on_c, 14, 36, 52
19, 132351, Note_on_c, 14, 36, 0
19, 132360, Note_on_c, 14, 36, 52
19, 132411, Note_on_c, 14, 36, 0
19, 132420, Note_on_c, 14, 36, 52
19, 132471, Note_on_c, 14, 36, 0
19, 132480, Note_on_c, 14, 36, 76
19, 132531, Note_on_c, 14, 36, 0
19, 132540, Note_on_c, 14, 36, 76
19, 132591, Note_on_c, 14, 36, 0
19, 132600, Note_on_c, 14, 36, 76
19, 132651, Note_on_c, 14, 36, 0
19, 132660, Note_on_c, 14, 36, 76
19, 132711, Note_on_c, 14, 36, 0
19, 132720, Note_on_c, 14, 36, 76
19, 132771, Note_on_c, 14, 36, 0
19, 132780, Note_on_c, 14, 36, 76
19, 132831, Note_on_c, 14, 36, 0
19, 132840, Note_on_c, 14, 36, 76
19, 132891, Note_on_c, 14, 36, 0
19, 132900, Note_on_c, 14, 36, 76
19, 132951, Note_on_c, 14, 36, 0
19, 132960, Note_on_c, 14, 36, 76
19, 133011, Note_on_c, 14, 36, 0
19, 133020, Note_on_c, 14, 36, 76
19, 133071, Note_on_c, 14, 36, 0
19, 133080, Note_on_c, 14, 36, 76
19, 133131, Note_on_c, 14, 36, 0
19, 133140, Note_on_c, 14, 36, 76
19, 133191, Note_on_c, 14, 36, 0
19, 133200, Note_on_c, 14, 36, 76
19, 133251, Note_on_c, 14, 36, 0
19, 133260, Note_on_c, 14, 36, 76
19, 133311, Note_on_c, 14, 36, 0
19, 133320, Note_on_c, 14, 36, 76
19, 133371, Note_on_c, 14, 36, 0
19, 133380, Note_on_c, 14, 36, 76
19, 133431, Note_on_c, 14, 36, 0
19, 133440, Note_on_c, 14, 36, 52
19, 133491, Note_on_c, 14, 36, 0
19, 133500, Note_on_c, 14, 36, 52
19, 133551, Note_on_c, 14, 36, 0
19, 133560, Note_on_c, 14, 36, 52
19, 133611, Note_on_c, 14, 36, 0
19, 133620, Note_on_c, 14, 36, 52
19, 133671, Note_on_c, 14, 36, 0
19, 133680, Note_on_c, 14, 36, 52
19, 133731, Note_on_c, 14, 36, 0
19, 133740, Note_on_c, 14, 36, 52
19, 133791, Note_on_c, 14, 36, 0
19, 133800, Note_on_c, 14, 36, 52
19, 133851, Note_on_c, 14, 36, 0
19, 133860, Note_on_c, 14, 36, 52
19, 133911, Note_on_c, 14, 36, 0
19, 133920, Note_on_c, 14, 36, 51
19, 133971, Note_on_c, 14, 36, 0
19, 133980, Note_on_c, 14, 36, 51
19, 134031, Note_on_c, 14, 36, 0
19, 134040, Note_on_c, 14, 36, 51
19, 134091, Note_on_c, 14, 36, 0
19, 134100, Note_on_c, 14, 36, 51
19, 134151, Note_on_c, 14, 36, 0
19, 134160, Note_on_c, 14, 36, 51
19, 134211, Note_on_c, 14, 36, 0
19, 134220, Note_on_c, 14, 36, 51
19, 134271, Note_on_c, 14, 36, 0
19, 134280, Note_on_c, 14, 36, 51
19, 134331, Note_on_c, 14, 36, 0
19, 134340, Note_on_c, 14, 36, 51
19, 134391, Note_on_c, 14, 36, 0
19, 134400, Note_on_c, 14, 36, 50
19, 134451, Note_on_c, 14, 36, 0
19, 134460, Note_on_c, 14, 36, 50
19, 134511, Note_on_c, 14, 36, 0
19, 134520, Note_on_c, 14, 36, 50
19, 134571, Note_on_c, 14, 36, 0
19, 134580, Note_on_c, 14, 36, 50
19, 134631, Note_on_c, 14, 36, 0
19, 134640, Note_on_c, 14, 36, 50
19, 134691, Note_on_c, 14, 36, 0
19, 134700, Note_on_c, 14, 36, 50
19, 134751, Note_on_c, 14, 36, 0
19, 134760, Note_on_c, 14, 36, 50
19, 134811, Note_on_c, 14, 36, 0
19, 134820, Note_on_c, 14, 36, 50
19, 134871, Note_on_c, 14, 36, 0
19, 134880, Note_on_c, 14, 36, 49
19, 134931, Note_on_c, 14, 36, 0
19, 134940, Note_on_c, 14, 36, 49
19, 134991, Note_on_c, 14, 36, 0
19, 135000, Note_on_c, 14, 36, 49
19, 135051, Note_on_c, 14, 36, 0
19, 135060, Note_on_c, 14, 36, 49
19, 135111, Note_on_c, 14, 36, 0
19, 135120, Note_on_c, 14, 36, 49
19, 135171, Note_on_c, 14, 36, 0
19, 135180, Note_on_c, 14, 36, 49
19, 135231, Note_on_c, 14, 36, 0
19, 135240, Note_on_c, 14, 36, 49
19, 135291, Note_on_c, 14, 36, 0
19, 135300, Note_on_c, 14, 36, 49
19, 135351, Note_on_c, 14, 36, 0
19, 135360, Note_on_c, 14, 36, 48
19, 135411, Note_on_c, 14, 36, 0
19, 135420, Note_on_c, 14, 36, 48
19, 135471, Note_on_c, 14, 36, 0
19, 135480, Note_on_c, 14, 36, 48
19, 135531, Note_on_c, 14, 36, 0
19, 135540, Note_on_c, 14, 36, 48
19, 135591, Note_on_c, 14, 36, 0
19, 135600, Note_on_c, 14, 36, 48
19, 135651, Note_on_c, 14, 36, 0
19, 135660, Note_on_c, 14, 36, 48
19, 135711, Note_on_c, 14, 36, 0
19, 135720, Note_on_c, 14, 36, 48
19, 135771, Note_on_c, 14, 36, 0
19, 135780, Note_on_c, 14, 36, 48
19, 135831, Note_on_c, 14, 36, 0
19, 135840, Note_on_c, 14, 36, 47
19, 135891, Note_on_c, 14, 36, 0
19, 135900, Note_on_c, 14, 36, 47
19, 135951, Note_on_c, 14, 36, 0
19, 135960, Note_on_c, 14, 36, 47
19, 136011, Note_on_c, 14, 36, 0
19, 136020, Note_on_c, 14, 36, 47
19, 136071, Note_on_c, 14, 36, 0
19, 136080, Note_on_c, 14, 36, 47
19, 136131, Note_on_c, 14, 36, 0
19, 136140, Note_on_c, 14, 36, 47
19, 136191, Note_on_c, 14, 36, 0
19, 136200, Note_on_c, 14, 36, 47
19, 136251, Note_on_c, 14, 36, 0
19, 136260, Note_on_c, 14, 36, 47
19, 136311, Note_on_c, 14, 36, 0
19, 136320, Note_on_c, 14, 36, 46
19, 136371, Note_on_c, 14, 36, 0
19, 136380, Note_on_c, 14, 36, 46
19, 136431, Note_on_c, 14, 36, 0
19, 136440, Note_on_c, 14, 36, 46
19, 136491, Note_on_c, 14, 36, 0
19, 136500, Note_on_c, 14, 36, 46
19, 136551, Note_on_c, 14, 36, 0
19, 136560, Note_on_c, 14, 36, 46
19, 136611, Note_on_c, 14, 36, 0
19, 136620, Note_on_c, 14, 36, 46
19, 136671, Note_on_c, 14, 36, 0
19, 136680, Note_on_c, 14, 36, 46
19, 136731, Note_on_c, 14, 36, 0
19, 136740, Note_on_c, 14, 36, 46
19, 136791, Note_on_c, 14, 36, 0
19, 136800, Note_on_c, 14, 36, 45
19, 136851, Note_on_c, 14, 36, 0
19, 136860, Note_on_c, 14, 36, 45
19, 136911, Note_on_c, 14, 36, 0
19, 136920, Note_on_c, 14, 36, 45
19, 136971, Note_on_c, 14, 36, 0
19, 136980, Note_on_c, 14, 36, 45
19, 137031, Note_on_c, 14, 36, 0
19, 137040, Note_on_c, 14, 36, 45
19, 137091, Note_on_c, 14, 36, 0
19, 137100, Note_on_c, 14, 36, 45
19, 137151, Note_on_c, 14, 36, 0
19, 137160, Note_on_c, 14, 36, 45
19, 137211, Note_on_c, 14, 36, 0
19, 137220, Note_on_c, 14, 36, 45
19, 137271, Note_on_c, 14, 36, 0
19, 137280, Note_on_c, 14, 36, 44
19, 138239, Note_on_c, 14, 36, 0
19, 138240, Note_on_c, 14, 36, 44
19, 139439, Note_on_c, 14, 36, 0
19, 142140, Note_on_c, 14, 36, 44
19, 142191, Note_on_c, 14, 36, 0
19, 142200, Note_on_c, 14, 36, 44
19, 142251, Note_on_c, 14, 36, 0
19, 142260, Note_on_c, 14, 36, 44
19, 142311, Note_on_c, 14, 36, 0
19, 142320, Note_on_c, 14, 36, 44
19, 142371, Note_on_c, 14, 36, 0
19, 142380, Note_on_c, 14, 36, 44
19, 142431, Note_on_c, 14, 36, 0
19, 142440, Note_on_c, 14, 36, 44
19, 142491, Note_on_c, 14, 36, 0
19, 142500, Note_on_c, 14, 36, 44
19, 142551, Note_on_c, 14, 36, 0
19, 142560, Note_on_c, 14, 36, 44
19, 142611, Note_on_c, 14, 36, 0
19, 142620, Note_on_c, 14, 36, 44
19, 142671, Note_on_c, 14, 36, 0
19, 142680, Note_on_c, 14, 36, 44
19, 142731, Note_on_c, 14, 36, 0
19, 142740, Note_on_c, 14, 36, 44
19, 142791, Note_on_c, 14, 36, 0
19, 142800, Note_on_c, 14, 36, 44
19, 142851, Note_on_c, 14, 36, 0
19, 142860, Note_on_c, 14, 36, 44
19, 142911, Note_on_c, 14, 36, 0
19, 142920, Note_on_c, 14, 36, 44
19, 142971, Note_on_c, 14, 36, 0
19, 142980, Note_on_c, 14, 36, 44
19, 143031, Note_on_c, 14, 36, 0
19, 143040, Note_on_c, 14, 36, 44
19, 143279, Note_on_c, 14, 36, 0
19, 143580, Note_on_c, 14, 36, 44
19, 143631, Note_on_c, 14, 36, 0
19, 143640, Note_on_c, 14, 36, 44
19, 143691, Note_on_c, 14, 36, 0
19, 143700, Note_on_c, 14, 36, 44
19, 143751, Note_on_c, 14, 36, 0
19, 143760, Note_on_c, 14, 36, 44
19, 143811, Note_on_c, 14, 36, 0
19, 143820, Note_on_c, 14, 36, 44
19, 143871, Note_on_c, 14, 36, 0
19, 143880, Note_on_c, 14, 36, 44
19, 143931, Note_on_c, 14, 36, 0
19, 143940, Note_on_c, 14, 36, 44
19, 143991, Note_on_c, 14, 36, 0
19, 144000, Note_on_c, 14, 36, 44
19, 144239, Note_on_c, 14, 36, 0
19, 146040, Note_on_c, 14, 36, 44
19, 146091, Note_on_c, 14, 36, 0
19, 146100, Note_on_c, 14, 36, 44
19, 146151, Note_on_c, 14, 36, 0
19, 146160, Note_on_c, 14, 36, 44
19, 146227, Note_on_c, 14, 36, 0
19, 146240, Note_on_c, 14, 36, 44
19, 146307, Note_on_c, 14, 36, 0
19, 146320, Note_on_c, 14, 36, 44
19, 146387, Note_on_c, 14, 36, 0
19, 146400, Note_on_c, 14, 36, 44
19, 146639, Note_on_c, 14, 36, 0
19, 146639, End_track
20, 0, Start_track
20, 0, Title_t, "Contrabass"
20, 0, MIDI_port, 0
20, 0, Control_c, 15, 7, 96
20, 0, Control_c, 15, 10, 100
20, 0, Program_c, 15, 48
20, 0, Control_c, 15, 11, 127
20, 0, Note_on_c, 15, 37, 44
20, 51, Note_on_c, 15, 37, 0
20, 60, Note_on_c, 15, 37, 44
20, 111, Note_on_c, 15, 37, 0
20, 120, Note_on_c, 15, 37, 44
20, 171, Note_on_c, 15, 37, 0
20, 180, Note_on_c, 15, 37, 44
20, 231, Note_on_c, 15, 37, 0
20, 240, Note_on_c, 15, 37, 44
20, 291, Note_on_c, 15, 37, 0
20, 300, Note_on_c, 15, 37, 44
20, 351, Note_on_c, 15, 37, 0
20, 360, Note_on_c, 15, 37, 44
20, 411, Note_on_c, 15, 37, 0
20, 420, Note_on_c, 15, 37, 44
20, 471, Note_on_c, 15, 37, 0
20, 480, Note_on_c, 15, 37, 44
20, 531, Note_on_c, 15, 37, 0
20, 540, Note_on_c, 15, 37, 44
20, 591, Note_on_c, 15, 37, 0
20, 600, Note_on_c, 15, 37, 44
20, 651, Note_on_c, 15, 37, 0
20, 660, Note_on_c, 15, 37, 44
20, 711, Note_on_c, 15, 37, 0
20, 720, Note_on_c, 15, 37, 44
20, 771, Note_on_c, 15, 37, 0
20, 780, Note_on_c, 15, 37, 44
20, 831, Note_on_c, 15, 37, 0
20, 840, Note_on_c, 15, 37, 44
20, 891, Note_on_c, 15, 37, 0
20, 900, Note_on_c, 15, 37, 44
20, 951, Note_on_c, 15, 37, 0
20, 960, Note_on_c, 15, 37, 44
20, 1011, Note_on_c, 15, 37, 0
20, 1020, Note_on_c, 15, 37, 44
20, 1071, Note_on_c, 15, 37, 0
20, 1080, Note_on_c, 15, 37, 44
20, 1131, Note_on_c, 15, 37, 0
20, 1140, Note_on_c, 15, 37, 44
20, 1191, Note_on_c, 15, 37, 0
20, 1200, Note_on_c, 15, 37, 44
20, 1251, Note_on_c, 15, 37, 0
20, 1260, Note_on_c, 15, 37, 44
20, 1311, Note_on_c, 15, 37, 0
20, 1320, Note_on_c, 15, 37, 44
20, 1371, Note_on_c, 15, 37, 0
20, 1380, Note_on_c, 15, 37, 44
20, 1431, Note_on_c, 15, 37, 0
20, 1440, Note_on_c, 15, 37, 44
20, 1491, Note_on_c, 15, 37, 0
20, 1500, Note_on_c, 15, 37, 44
20, 1551, Note_on_c, 15, 37, 0
20, 1560, Note_on_c, 15, 37, 44
20, 1611, Note_on_c, 15, 37, 0
20, 1620, Note_on_c, 15, 37, 44
20, 1671, Note_on_c, 15, 37, 0
20, 1680, Note_on_c, 15, 37, 44
20, 1731, Note_on_c, 15, 37, 0
20, 1740, Note_on_c, 15, 37, 44
20, 1791, Note_on_c, 15, 37, 0
20, 1800, Note_on_c, 15, 37, 44
20, 1851, Note_on_c, 15, 37, 0
20, 1860, Note_on_c, 15, 37, 44
20, 1911, Note_on_c, 15, 37, 0
20, 1920, Note_on_c, 15, 37, 44
20, 2159, Note_on_c, 15, 37, 0
20, 6720, Note_on_c, 15, 38, 44
20, 6771, Note_on_c, 15, 38, 0
20, 6780, Note_on_c, 15, 38, 44
20, 6831, Note_on_c, 15, 38, 0
20, 6840, Note_on_c, 15, 38, 44
20, 6891, Note_on_c, 15, 38, 0
20, 6900, Note_on_c, 15, 38, 44
20, 6951, Note_on_c, 15, 38, 0
20, 6960, Note_on_c, 15, 38, 44
20, 7011, Note_on_c, 15, 38, 0
20, 7020, Note_on_c, 15, 38, 44
20, 7071, Note_on_c, 15, 38, 0
20, 7080, Note_on_c, 15, 38, 44
20, 7131, Note_on_c, 15, 38, 0
20, 7140, Note_on_c, 15, 38, 44
20, 7191, Note_on_c, 15, 38, 0
20, 7200, Note_on_c, 15, 38, 44
20, 7251, Note_on_c, 15, 38, 0
20, 7260, Note_on_c, 15, 38, 44
20, 7311, Note_on_c, 15, 38, 0
20, 7320, Note_on_c, 15, 38, 44
20, 7371, Note_on_c, 15, 38, 0
20, 7380, Note_on_c, 15, 38, 44
20, 7431, Note_on_c, 15, 38, 0
20, 7440, Note_on_c, 15, 38, 44
20, 7491, Note_on_c, 15, 38, 0
20, 7500, Note_on_c, 15, 38, 44
20, 7551, Note_on_c, 15, 38, 0
20, 7560, Note_on_c, 15, 38, 44
20, 7611, Note_on_c, 15, 38, 0
20, 7620, Note_on_c, 15, 38, 44
20, 7671, Note_on_c, 15, 38, 0
20, 7680, Note_on_c, 15, 38, 44
20, 7731, Note_on_c, 15, 38, 0
20, 7740, Note_on_c, 15, 38, 44
20, 7791, Note_on_c, 15, 38, 0
20, 7800, Note_on_c, 15, 38, 44
20, 7851, Note_on_c, 15, 38, 0
20, 7860, Note_on_c, 15, 38, 44
20, 7911, Note_on_c, 15, 38, 0
20, 7920, Note_on_c, 15, 38, 45
20, 7971, Note_on_c, 15, 38, 0
20, 7980, Note_on_c, 15, 38, 45
20, 8031, Note_on_c, 15, 38, 0
20, 8040, Note_on_c, 15, 38, 45
20, 8091, Note_on_c, 15, 38, 0
20, 8100, Note_on_c, 15, 38, 45
20, 8151, Note_on_c, 15, 38, 0
20, 8160, Note_on_c, 15, 38, 46
20, 8211, Note_on_c, 15, 38, 0
20, 8220, Note_on_c, 15, 38, 46
20, 8271, Note_on_c, 15, 38, 0
20, 8280, Note_on_c, 15, 38, 46
20, 8331, Note_on_c, 15, 38, 0
20, 8340, Note_on_c, 15, 38, 46
20, 8391, Note_on_c, 15, 38, 0
20, 8400, Note_on_c, 15, 38, 47
20, 8451, Note_on_c, 15, 38, 0
20, 8460, Note_on_c, 15, 38, 47
20, 8511, Note_on_c, 15, 38, 0
20, 8520, Note_on_c, 15, 38, 47
20, 8571, Note_on_c, 15, 38, 0
20, 8580, Note_on_c, 15, 38, 47
20, 8631, Note_on_c, 15, 38, 0
20, 8640, Note_on_c, 15, 38, 48
20, 8691, Note_on_c, 15, 38, 0
20, 8700, Note_on_c, 15, 38, 48
20, 8751, Note_on_c, 15, 38, 0
20, 8760, Note_on_c, 15, 38, 48
20, 8811, Note_on_c, 15, 38, 0
20, 8820, Note_on_c, 15, 38, 48
20, 8871, Note_on_c, 15, 38, 0
20, 8880, Note_on_c, 15, 38, 49
20, 8931, Note_on_c, 15, 38, 0
20, 8940, Note_on_c, 15, 38, 49
20, 8991, Note_on_c, 15, 38, 0
20, 9000, Note_on_c, 15, 38, 49
20, 9051, Note_on_c, 15, 38, 0
20, 9060, Note_on_c, 15, 38, 49
20, 9111, Note_on_c, 15, 38, 0
20, 9120, Note_on_c, 15, 38, 50
20, 9171, Note_on_c, 15, 38, 0
20, 9180, Note_on_c, 15, 38, 50
20, 9231, Note_on_c, 15, 38, 0
20, 9240, Note_on_c, 15, 38, 50
20, 9291, Note_on_c, 15, 38, 0
20, 9300, Note_on_c, 15, 38, 50
20, 9351, Note_on_c, 15, 38, 0
20, 9360, Note_on_c, 15, 38, 51
20, 9411, Note_on_c, 15, 38, 0
20, 9420, Note_on_c, 15, 38, 51
20, 9471, Note_on_c, 15, 38, 0
20, 9480, Note_on_c, 15, 38, 51
20, 9531, Note_on_c, 15, 38, 0
20, 9540, Note_on_c, 15, 38, 51
20, 9591, Note_on_c, 15, 38, 0
20, 9600, Note_on_c, 15, 39, 52
20, 9651, Note_on_c, 15, 39, 0
20, 9660, Note_on_c, 15, 39, 52
20, 9711, Note_on_c, 15, 39, 0
20, 9720, Note_on_c, 15, 39, 52
20, 9771, Note_on_c, 15, 39, 0
20, 9780, Note_on_c, 15, 39, 52
20, 9831, Note_on_c, 15, 39, 0
20, 9840, Note_on_c, 15, 39, 52
20, 9891, Note_on_c, 15, 39, 0
20, 9900, Note_on_c, 15, 39, 52
20, 9951, Note_on_c, 15, 39, 0
20, 9960, Note_on_c, 15, 39, 52
20, 10011, Note_on_c, 15, 39, 0
20, 10020, Note_on_c, 15, 39, 52
20, 10071, Note_on_c, 15, 39, 0
20, 10080, Note_on_c, 15, 39, 52
20, 10131, Note_on_c, 15, 39, 0
20, 10140, Note_on_c, 15, 39, 52
20, 10191, Note_on_c, 15, 39, 0
20, 10200, Note_on_c, 15, 39, 52
20, 10251, Note_on_c, 15, 39, 0
20, 10260, Note_on_c, 15, 39, 52
20, 10311, Note_on_c, 15, 39, 0
20, 10320, Note_on_c, 15, 39, 52
20, 10371, Note_on_c, 15, 39, 0
20, 10380, Note_on_c, 15, 39, 52
20, 10431, Note_on_c, 15, 39, 0
20, 10440, Note_on_c, 15, 39, 52
20, 10491, Note_on_c, 15, 39, 0
20, 10500, Note_on_c, 15, 39, 52
20, 10551, Note_on_c, 15, 39, 0
20, 10560, Note_on_c, 15, 39, 52
20, 10611, Note_on_c, 15, 39, 0
20, 10620, Note_on_c, 15, 39, 52
20, 10671, Note_on_c, 15, 39, 0
20, 10680, Note_on_c, 15, 39, 52
20, 10731, Note_on_c, 15, 39, 0
20, 10740, Note_on_c, 15, 39, 52
20, 10791, Note_on_c, 15, 39, 0
20, 10800, Note_on_c, 15, 39, 52
20, 10851, Note_on_c, 15, 39, 0
20, 10860, Note_on_c, 15, 39, 52
20, 10911, Note_on_c, 15, 39, 0
20, 10920, Note_on_c, 15, 39, 52
20, 10971, Note_on_c, 15, 39, 0
20, 10980, Note_on_c, 15, 39, 52
20, 11031, Note_on_c, 15, 39, 0
20, 11040, Note_on_c, 15, 39, 52
20, 11091, Note_on_c, 15, 39, 0
20, 11100, Note_on_c, 15, 39, 52
20, 11151, Note_on_c, 15, 39, 0
20, 11160, Note_on_c, 15, 39, 52
20, 11211, Note_on_c, 15, 39, 0
20, 11220, Note_on_c, 15, 39, 52
20, 11271, Note_on_c, 15, 39, 0
20, 11280, Note_on_c, 15, 39, 52
20, 11331, Note_on_c, 15, 39, 0
20, 11340, Note_on_c, 15, 39, 52
20, 11391, Note_on_c, 15, 39, 0
20, 11400, Note_on_c, 15, 39, 52
20, 11451, Note_on_c, 15, 39, 0
20, 11460, Note_on_c, 15, 39, 52
20, 11511, Note_on_c, 15, 39, 0
20, 11520, Note_on_c, 15, 39, 52
20, 11759, Note_on_c, 15, 39, 0
20, 15360, Note_on_c, 15, 40, 52
20, 15411, Note_on_c, 15, 40, 0
20, 15420, Note_on_c, 15, 40, 52
20, 15471, Note_on_c, 15, 40, 0
20, 15480, Note_on_c, 15, 40, 52
20, 15531, Note_on_c, 15, 40, 0
20, 15540, Note_on_c, 15, 40, 52
20, 15591, Note_on_c, 15, 40, 0
20, 15600, Note_on_c, 15, 40, 52
20, 15651, Note_on_c, 15, 40, 0
20, 15660, Note_on_c, 15, 40, 52
20, 15711, Note_on_c, 15, 40, 0
20, 15720, Note_on_c, 15, 40, 52
20, 15771, Note_on_c, 15, 40, 0
20, 15780, Note_on_c, 15, 40, 52
20, 15831, Note_on_c, 15, 40, 0
20, 15840, Note_on_c, 15, 40, 52
20, 15891, Note_on_c, 15, 40, 0
20, 15900, Note_on_c, 15, 40, 52
20, 15951, Note_on_c, 15, 40, 0
20, 15960, Note_on_c, 15, 40, 52
20, 16011, Note_on_c, 15, 40, 0
20, 16020, Note_on_c, 15, 40, 52
20, 16071, Note_on_c, 15, 40, 0
20, 16080, Note_on_c, 15, 40, 52
20, 16131, Note_on_c, 15, 40, 0
20, 16140, Note_on_c, 15, 40, 52
20, 16191, Note_on_c, 15, 40, 0
20, 16200, Note_on_c, 15, 40, 52
20, 16251, Note_on_c, 15, 40, 0
20, 16260, Note_on_c, 15, 40, 52
20, 16311, Note_on_c, 15, 40, 0
20, 16320, Note_on_c, 15, 40, 52
20, 16371, Note_on_c, 15, 40, 0
20, 16380, Note_on_c, 15, 40, 52
20, 16431, Note_on_c, 15, 40, 0
20, 16440, Note_on_c, 15, 40, 52
20, 16491, Note_on_c, 15, 40, 0
20, 16500, Note_on_c, 15, 40, 52
20, 16551, Note_on_c, 15, 40, 0
20, 16560, Note_on_c, 15, 40, 52
20, 16611, Note_on_c, 15, 40, 0
20, 16620, Note_on_c, 15, 40, 52
20, 16671, Note_on_c, 15, 40, 0
20, 16680, Note_on_c, 15, 40, 52
20, 16731, Note_on_c, 15, 40, 0
20, 16740, Note_on_c, 15, 40, 52
20, 16791, Note_on_c, 15, 40, 0
20, 16800, Note_on_c, 15, 40, 52
20, 16851, Note_on_c, 15, 40, 0
20, 16860, Note_on_c, 15, 40, 52
20, 16911, Note_on_c, 15, 40, 0
20, 16920, Note_on_c, 15, 40, 52
20, 16971, Note_on_c, 15, 40, 0
20, 16980, Note_on_c, 15, 40, 52
20, 17031, Note_on_c, 15, 40, 0
20, 17040, Note_on_c, 15, 40, 52
20, 17091, Note_on_c, 15, 40, 0
20, 17100, Note_on_c, 15, 40, 52
20, 17151, Note_on_c, 15, 40, 0
20, 17160, Note_on_c, 15, 40, 52
20, 17211, Note_on_c, 15, 40, 0
20, 17220, Note_on_c, 15, 40, 52
20, 17271, Note_on_c, 15, 40, 0
20, 17280, Note_on_c, 15, 31, 52
20, 17347, Note_on_c, 15, 31, 0
20, 17360, Note_on_c, 15, 32, 53
20, 17427, Note_on_c, 15, 32, 0
20, 17440, Note_on_c, 15, 34, 54
20, 17507, Note_on_c, 15, 34, 0
20, 17520, Note_on_c, 15, 31, 56
20, 17587, Note_on_c, 15, 31, 0
20, 17600, Note_on_c, 15, 32, 57
20, 17667, Note_on_c, 15, 32, 0
20, 17680, Note_on_c, 15, 34, 58
20, 17747, Note_on_c, 15, 34, 0
20, 17760, Note_on_c, 15, 31, 60
20, 17827, Note_on_c, 15, 31, 0
20, 17840, Note_on_c, 15, 32, 61
20, 17907, Note_on_c, 15, 32, 0
20, 17920, Note_on_c, 15, 34, 62
20, 17987, Note_on_c, 15, 34, 0
20, 18000, Note_on_c, 15, 31, 64
20, 18067, Note_on_c, 15, 31, 0
20, 18080, Note_on_c, 15, 32, 65
20, 18147, Note_on_c, 15, 32, 0
20, 18160, Note_on_c, 15, 34, 66
20, 18227, Note_on_c, 15, 34, 0
20, 18240, Note_on_c, 15, 31, 68
20, 18307, Note_on_c, 15, 31, 0
20, 18320, Note_on_c, 15, 32, 69
20, 18387, Note_on_c, 15, 32, 0
20, 18400, Note_on_c, 15, 34, 70
20, 18467, Note_on_c, 15, 34, 0
20, 18480, Note_on_c, 15, 31, 72
20, 18547, Note_on_c, 15, 31, 0
20, 18560, Note_on_c, 15, 32, 73
20, 18627, Note_on_c, 15, 32, 0
20, 18640, Note_on_c, 15, 34, 74
20, 18707, Note_on_c, 15, 34, 0
20, 18720, Note_on_c, 15, 31, 76
20, 18787, Note_on_c, 15, 31, 0
20, 18800, Note_on_c, 15, 32, 77
20, 18867, Note_on_c, 15, 32, 0
20, 18880, Note_on_c, 15, 34, 78
20, 18947, Note_on_c, 15, 34, 0
20, 18960, Note_on_c, 15, 31, 80
20, 19027, Note_on_c, 15, 31, 0
20, 19040, Note_on_c, 15, 32, 81
20, 19107, Note_on_c, 15, 32, 0
20, 19120, Note_on_c, 15, 34, 82
20, 19187, Note_on_c, 15, 34, 0
20, 19200, Note_on_c, 15, 29, 84
20, 19259, Note_on_c, 15, 29, 0
20, 19260, Note_on_c, 15, 31, 84
20, 19319, Note_on_c, 15, 31, 0
20, 19320, Note_on_c, 15, 32, 84
20, 19379, Note_on_c, 15, 32, 0
20, 19380, Note_on_c, 15, 34, 84
20, 19431, Note_on_c, 15, 34, 0
20, 19440, Note_on_c, 15, 29, 84
20, 19499, Note_on_c, 15, 29, 0
20, 19500, Note_on_c, 15, 31, 84
20, 19559, Note_on_c, 15, 31, 0
20, 19560, Note_on_c, 15, 32, 84
20, 19619, Note_on_c, 15, 32, 0
20, 19620, Note_on_c, 15, 34, 84
20, 19671, Note_on_c, 15, 34, 0
20, 19680, Note_on_c, 15, 29, 84
20, 19739, Note_on_c, 15, 29, 0
20, 19740, Note_on_c, 15, 31, 84
20, 19799, Note_on_c, 15, 31, 0
20, 19800, Note_on_c, 15, 32, 84
20, 19859, Note_on_c, 15, 32, 0
20, 19860, Note_on_c, 15, 34, 84
20, 19911, Note_on_c, 15, 34, 0
20, 19920, Note_on_c, 15, 29, 84
20, 19979, Note_on_c, 15, 29, 0
20, 19980, Note_on_c, 15, 31, 84
20, 20039, Note_on_c, 15, 31, 0
20, 20040, Note_on_c, 15, 32, 84
20, 20099, Note_on_c, 15, 32, 0
20, 20100, Note_on_c, 15, 34, 84
20, 20151, Note_on_c, 15, 34, 0
20, 20160, Note_on_c, 15, 29, 84
20, 20219, Note_on_c, 15, 29, 0
20, 20220, Note_on_c, 15, 31, 84
20, 20279, Note_on_c, 15, 31, 0
20, 20280, Note_on_c, 15, 32, 84
20, 20339, Note_on_c, 15, 32, 0
20, 20340, Note_on_c, 15, 34, 84
20, 20391, Note_on_c, 15, 34, 0
20, 20400, Note_on_c, 15, 29, 84
20, 20459, Note_on_c, 15, 29, 0
20, 20460, Note_on_c, 15, 31, 84
20, 20519, Note_on_c, 15, 31, 0
20, 20520, Note_on_c, 15, 32, 84
20, 20579, Note_on_c, 15, 32, 0
20, 20580, Note_on_c, 15, 34, 84
20, 20631, Note_on_c, 15, 34, 0
20, 20640, Note_on_c, 15, 29, 84
20, 20699, Note_on_c, 15, 29, 0
20, 20700, Note_on_c, 15, 31, 84
20, 20759, Note_on_c, 15, 31, 0
20, 20760, Note_on_c, 15, 32, 84
20, 20819, Note_on_c, 15, 32, 0
20, 20820, Note_on_c, 15, 34, 84
20, 20871, Note_on_c, 15, 34, 0
20, 20880, Note_on_c, 15, 29, 84
20, 20939, Note_on_c, 15, 29, 0
20, 20940, Note_on_c, 15, 31, 84
20, 20999, Note_on_c, 15, 31, 0
20, 21000, Note_on_c, 15, 32, 84
20, 21059, Note_on_c, 15, 32, 0
20, 21060, Note_on_c, 15, 34, 84
20, 21111, Note_on_c, 15, 34, 0
20, 21120, Note_on_c, 15, 29, 84
20, 21179, Note_on_c, 15, 29, 0
20, 21180, Note_on_c, 15, 31, 84
20, 21239, Note_on_c, 15, 31, 0
20, 21240, Note_on_c, 15, 32, 84
20, 21299, Note_on_c, 15, 32, 0
20, 21300, Note_on_c, 15, 34, 84
20, 21351, Note_on_c, 15, 34, 0
20, 21360, Note_on_c, 15, 29, 84
20, 21419, Note_on_c, 15, 29, 0
20, 21420, Note_on_c, 15, 31, 84
20, 21479, Note_on_c, 15, 31, 0
20, 21480, Note_on_c, 15, 32, 84
20, 21539, Note_on_c, 15, 32, 0
20, 21540, Note_on_c, 15, 34, 84
20, 21591, Note_on_c, 15, 34, 0
20, 21600, Note_on_c, 15, 29, 84
20, 21659, Note_on_c, 15, 29, 0
20, 21660, Note_on_c, 15, 31, 84
20, 21719, Note_on_c, 15, 31, 0
20, 21720, Note_on_c, 15, 32, 84
20, 21779, Note_on_c, 15, 32, 0
20, 21780, Note_on_c, 15, 34, 84
20, 21831, Note_on_c, 15, 34, 0
20, 21840, Note_on_c, 15, 29, 84
20, 21899, Note_on_c, 15, 29, 0
20, 21900, Note_on_c, 15, 31, 84
20, 21959, Note_on_c, 15, 31, 0
20, 21960, Note_on_c, 15, 32, 84
20, 22019, Note_on_c, 15, 32, 0
20, 22020, Note_on_c, 15, 34, 84
20, 22071, Note_on_c, 15, 34, 0
20, 22080, Note_on_c, 15, 29, 84
20, 22139, Note_on_c, 15, 29, 0
20, 22140, Note_on_c, 15, 31, 84
20, 22199, Note_on_c, 15, 31, 0
20, 22200, Note_on_c, 15, 32, 84
20, 22259, Note_on_c, 15, 32, 0
20, 22260, Note_on_c, 15, 34, 84
20, 22311, Note_on_c, 15, 34, 0
20, 22320, Note_on_c, 15, 29, 84
20, 22379, Note_on_c, 15, 29, 0
20, 22380, Note_on_c, 15, 31, 84
20, 22439, Note_on_c, 15, 31, 0
20, 22440, Note_on_c, 15, 32, 84
20, 22499, Note_on_c, 15, 32, 0
20, 22500, Note_on_c, 15, 34, 84
20, 22551, Note_on_c, 15, 34, 0
20, 22560, Note_on_c, 15, 29, 84
20, 22619, Note_on_c, 15, 29, 0
20, 22620, Note_on_c, 15, 31, 84
20, 22679, Note_on_c, 15, 31, 0
20, 22680, Note_on_c, 15, 32, 84
20, 22739, Note_on_c, 15, 32, 0
20, 22740, Note_on_c, 15, 34, 84
20, 22791, Note_on_c, 15, 34, 0
20, 22800, Note_on_c, 15, 29, 84
20, 22859, Note_on_c, 15, 29, 0
20, 22860, Note_on_c, 15, 31, 84
20, 22919, Note_on_c, 15, 31, 0
20, 22920, Note_on_c, 15, 32, 84
20, 22979, Note_on_c, 15, 32, 0
20, 22980, Note_on_c, 15, 34, 84
20, 23031, Note_on_c, 15, 34, 0
20, 23040, Note_on_c, 15, 31, 84
20, 23099, Note_on_c, 15, 31, 0
20, 23100, Note_on_c, 15, 32, 84
20, 23159, Note_on_c, 15, 32, 0
20, 23160, Note_on_c, 15, 34, 84
20, 23219, Note_on_c, 15, 34, 0
20, 23220, Note_on_c, 15, 36, 84
20, 23271, Note_on_c, 15, 36, 0
20, 23280, Note_on_c, 15, 31, 84
20, 23339, Note_on_c, 15, 31, 0
20, 23340, Note_on_c, 15, 32, 84
20, 23399, Note_on_c, 15, 32, 0
20, 23400, Note_on_c, 15, 34, 84
20, 23459, Note_on_c, 15, 34, 0
20, 23460, Note_on_c, 15, 36, 84
20, 23511, Note_on_c, 15, 36, 0
20, 23520, Note_on_c, 15, 31, 84
20, 23579, Note_on_c, 15, 31, 0
20, 23580, Note_on_c, 15, 32, 84
20, 23639, Note_on_c, 15, 32, 0
20, 23640, Note_on_c, 15, 34, 84
20, 23699, Note_on_c, 15, 34, 0
20, 23700, Note_on_c, 15, 36, 84
20, 23751, Note_on_c, 15, 36, 0
20, 23760, Note_on_c, 15, 31, 84
20, 23819, Note_on_c, 15, 31, 0
20, 23820, Note_on_c, 15, 32, 84
20, 23879, Note_on_c, 15, 32, 0
20, 23880, Note_on_c, 15, 34, 84
20, 23939, Note_on_c, 15, 34, 0
20, 23940, Note_on_c, 15, 36, 84
20, 23991, Note_on_c, 15, 36, 0
20, 24000, Note_on_c, 15, 31, 84
20, 24059, Note_on_c, 15, 31, 0
20, 24060, Note_on_c, 15, 32, 84
20, 24119, Note_on_c, 15, 32, 0
20, 24120, Note_on_c, 15, 34, 84
20, 24179, Note_on_c, 15, 34, 0
20, 24180, Note_on_c, 15, 36, 84
20, 24231, Note_on_c, 15, 36, 0
20, 24240, Note_on_c, 15, 31, 84
20, 24299, Note_on_c, 15, 31, 0
20, 24300, Note_on_c, 15, 32, 84
20, 24359, Note_on_c, 15, 32, 0
20, 24360, Note_on_c, 15, 34, 84
20, 24419, Note_on_c, 15, 34, 0
20, 24420, Note_on_c, 15, 36, 84
20, 24471, Note_on_c, 15, 36, 0
20, 24480, Note_on_c, 15, 31, 84
20, 24539, Note_on_c, 15, 31, 0
20, 24540, Note_on_c, 15, 32, 84
20, 24599, Note_on_c, 15, 32, 0
20, 24600, Note_on_c, 15, 34, 84
20, 24659, Note_on_c, 15, 34, 0
20, 24660, Note_on_c, 15, 36, 84
20, 24711, Note_on_c, 15, 36, 0
20, 24720, Note_on_c, 15, 31, 84
20, 24779, Note_on_c, 15, 31, 0
20, 24780, Note_on_c, 15, 32, 84
20, 24839, Note_on_c, 15, 32, 0
20, 24840, Note_on_c, 15, 34, 84
20, 24899, Note_on_c, 15, 34, 0
20, 24900, Note_on_c, 15, 36, 84
20, 24951, Note_on_c, 15, 36, 0
20, 24960, Note_on_c, 15, 31, 84
20, 25019, Note_on_c, 15, 31, 0
20, 25020, Note_on_c, 15, 32, 84
20, 25079, Note_on_c, 15, 32, 0
20, 25080, Note_on_c, 15, 34, 84
20, 25139, Note_on_c, 15, 34, 0
20, 25140, Note_on_c, 15, 36, 84
20, 25191, Note_on_c, 15, 36, 0
20, 25200, Note_on_c, 15, 31, 84
20, 25259, Note_on_c, 15, 31, 0
20, 25260, Note_on_c, 15, 32, 84
20, 25319, Note_on_c, 15, 32, 0
20, 25320, Note_on_c, 15, 34, 84
20, 25379, Note_on_c, 15, 34, 0
20, 25380, Note_on_c, 15, 36, 84
20, 25431, Note_on_c, 15, 36, 0
20, 25440, Note_on_c, 15, 31, 84
20, 25499, Note_on_c, 15, 31, 0
20, 25500, Note_on_c, 15, 32, 84
20, 25559, Note_on_c, 15, 32, 0
20, 25560, Note_on_c, 15, 34, 84
20, 25619, Note_on_c, 15, 34, 0
20, 25620, Note_on_c, 15, 36, 84
20, 25671, Note_on_c, 15, 36, 0
20, 25680, Note_on_c, 15, 31, 84
20, 25739, Note_on_c, 15, 31, 0
20, 25740, Note_on_c, 15, 32, 84
20, 25799, Note_on_c, 15, 32, 0
20, 25800, Note_on_c, 15, 34, 84
20, 25859, Note_on_c, 15, 34, 0
20, 25860, Note_on_c, 15, 36, 84
20, 25911, Note_on_c, 15, 36, 0
20, 25920, Note_on_c, 15, 31, 84
20, 25979, Note_on_c, 15, 31, 0
20, 25980, Note_on_c, 15, 32, 84
20, 26039, Note_on_c, 15, 32, 0
20, 26040, Note_on_c, 15, 34, 84
20, 26099, Note_on_c, 15, 34, 0
20, 26100, Note_on_c, 15, 36, 84
20, 26151, Note_on_c, 15, 36, 0
20, 26160, Note_on_c, 15, 31, 84
20, 26219, Note_on_c, 15, 31, 0
20, 26220, Note_on_c, 15, 32, 84
20, 26279, Note_on_c, 15, 32, 0
20, 26280, Note_on_c, 15, 34, 84
20, 26339, Note_on_c, 15, 34, 0
20, 26340, Note_on_c, 15, 36, 84
20, 26391, Note_on_c, 15, 36, 0
20, 26400, Note_on_c, 15, 31, 84
20, 26459, Note_on_c, 15, 31, 0
20, 26460, Note_on_c, 15, 32, 84
20, 26519, Note_on_c, 15, 32, 0
20, 26520, Note_on_c, 15, 34, 84
20, 26579, Note_on_c, 15, 34, 0
20, 26580, Note_on_c, 15, 36, 84
20, 26631, Note_on_c, 15, 36, 0
20, 26640, Note_on_c, 15, 31, 84
20, 26699, Note_on_c, 15, 31, 0
20, 26700, Note_on_c, 15, 32, 84
20, 26759, Note_on_c, 15, 32, 0
20, 26760, Note_on_c, 15, 34, 84
20, 26819, Note_on_c, 15, 34, 0
20, 26820, Note_on_c, 15, 36, 84
20, 26871, Note_on_c, 15, 36, 0
20, 26880, Note_on_c, 15, 33, 84
20, 26939, Note_on_c, 15, 33, 0
20, 26940, Note_on_c, 15, 34, 84
20, 26999, Note_on_c, 15, 34, 0
20, 27000, Note_on_c, 15, 36, 84
20, 27059, Note_on_c, 15, 36, 0
20, 27060, Note_on_c, 15, 37, 84
20, 27111, Note_on_c, 15, 37, 0
20, 27120, Note_on_c, 15, 33, 84
20, 27179, Note_on_c, 15, 33, 0
20, 27180, Note_on_c, 15, 34, 84
20, 27239, Note_on_c, 15, 34, 0
20, 27240, Note_on_c, 15, 36, 84
20, 27299, Note_on_c, 15, 36, 0
20, 27300, Note_on_c, 15, 37, 84
20, 27351, Note_on_c, 15, 37, 0
20, 27360, Note_on_c, 15, 33, 84
20, 27419, Note_on_c, 15, 33, 0
20, 27420, Note_on_c, 15, 34, 84
20, 27479, Note_on_c, 15, 34, 0
20, 27480, Note_on_c, 15, 36, 84
20, 27539, Note_on_c, 15, 36, 0
20, 27540, Note_on_c, 15, 37, 84
20, 27591, Note_on_c, 15, 37, 0
20, 27600, Note_on_c, 15, 33, 84
20, 27659, Note_on_c, 15, 33, 0
20, 27660, Note_on_c, 15, 34, 84
20, 27719, Note_on_c, 15, 34, 0
20, 27720, Note_on_c, 15, 36, 84
20, 27779, Note_on_c, 15, 36, 0
20, 27780, Note_on_c, 15, 37, 84
20, 27831, Note_on_c, 15, 37, 0
20, 27840, Note_on_c, 15, 33, 84
20, 27899, Note_on_c, 15, 33, 0
20, 27900, Note_on_c, 15, 34, 84
20, 27959, Note_on_c, 15, 34, 0
20, 27960, Note_on_c, 15, 36, 84
20, 28019, Note_on_c, 15, 36, 0
20, 28020, Note_on_c, 15, 37, 84
20, 28071, Note_on_c, 15, 37, 0
20, 28080, Note_on_c, 15, 33, 84
20, 28139, Note_on_c, 15, 33, 0
20, 28140, Note_on_c, 15, 34, 84
20, 28199, Note_on_c, 15, 34, 0
20, 28200, Note_on_c, 15, 36, 84
20, 28259, Note_on_c, 15, 36, 0
20, 28260, Note_on_c, 15, 37, 84
20, 28311, Note_on_c, 15, 37, 0
20, 28320, Note_on_c, 15, 33, 84
20, 28379, Note_on_c, 15, 33, 0
20, 28380, Note_on_c, 15, 34, 84
20, 28439, Note_on_c, 15, 34, 0
20, 28440, Note_on_c, 15, 36, 84
20, 28499, Note_on_c, 15, 36, 0
20, 28500, Note_on_c, 15, 37, 84
20, 28551, Note_on_c, 15, 37, 0
20, 28560, Note_on_c, 15, 33, 84
20, 28619, Note_on_c, 15, 33, 0
20, 28620, Note_on_c, 15, 34, 84
20, 28679, Note_on_c, 15, 34, 0
20, 28680, Note_on_c, 15, 36, 84
20, 28739, Note_on_c, 15, 36, 0
20, 28740, Note_on_c, 15, 37, 84
20, 28791, Note_on_c, 15, 37, 0
20, 28800, Note_on_c, 15, 33, 84
20, 28859, Note_on_c, 15, 33, 0
20, 28860, Note_on_c, 15, 34, 84
20, 28919, Note_on_c, 15, 34, 0
20, 28920, Note_on_c, 15, 36, 84
20, 28979, Note_on_c, 15, 36, 0
20, 28980, Note_on_c, 15, 37, 84
20, 29031, Note_on_c, 15, 37, 0
20, 29040, Note_on_c, 15, 33, 84
20, 29099, Note_on_c, 15, 33, 0
20, 29100, Note_on_c, 15, 34, 84
20, 29159, Note_on_c, 15, 34, 0
20, 29160, Note_on_c, 15, 36, 84
20, 29219, Note_on_c, 15, 36, 0
20, 29220, Note_on_c, 15, 37, 84
20, 29271, Note_on_c, 15, 37, 0
20, 29280, Note_on_c, 15, 33, 84
20, 29339, Note_on_c, 15, 33, 0
20, 29340, Note_on_c, 15, 34, 84
20, 29399, Note_on_c, 15, 34, 0
20, 29400, Note_on_c, 15, 36, 84
20, 29459, Note_on_c, 15, 36, 0
20, 29460, Note_on_c, 15, 37, 84
20, 29511, Note_on_c, 15, 37, 0
20, 29520, Note_on_c, 15, 33, 84
20, 29579, Note_on_c, 15, 33, 0
20, 29580, Note_on_c, 15, 34, 84
20, 29639, Note_on_c, 15, 34, 0
20, 29640, Note_on_c, 15, 36, 84
20, 29699, Note_on_c, 15, 36, 0
20, 29700, Note_on_c, 15, 37, 84
20, 29751, Note_on_c, 15, 37, 0
20, 29760, Note_on_c, 15, 33, 84
20, 29819, Note_on_c, 15, 33, 0
20, 29820, Note_on_c, 15, 34, 84
20, 29879, Note_on_c, 15, 34, 0
20, 29880, Note_on_c, 15, 36, 84
20, 29939, Note_on_c, 15, 36, 0
20, 29940, Note_on_c, 15, 37, 84
20, 29991, Note_on_c, 15, 37, 0
20, 30000, Note_on_c, 15, 33, 84
20, 30059, Note_on_c, 15, 33, 0
20, 30060, Note_on_c, 15, 34, 84
20, 30119, Note_on_c, 15, 34, 0
20, 30120, Note_on_c, 15, 36, 84
20, 30179, Note_on_c, 15, 36, 0
20, 30180, Note_on_c, 15, 37, 84
20, 30231, Note_on_c, 15, 37, 0
20, 30240, Note_on_c, 15, 33, 84
20, 30299, Note_on_c, 15, 33, 0
20, 30300, Note_on_c, 15, 34, 84
20, 30359, Note_on_c, 15, 34, 0
20, 30360, Note_on_c, 15, 36, 84
20, 30419, Note_on_c, 15, 36, 0
20, 30420, Note_on_c, 15, 37, 84
20, 30471, Note_on_c, 15, 37, 0
20, 30480, Note_on_c, 15, 33, 84
20, 30539, Note_on_c, 15, 33, 0
20, 30540, Note_on_c, 15, 34, 84
20, 30599, Note_on_c, 15, 34, 0
20, 30600, Note_on_c, 15, 36, 84
20, 30659, Note_on_c, 15, 36, 0
20, 30660, Note_on_c, 15, 37, 84
20, 30711, Note_on_c, 15, 37, 0
20, 30720, Note_on_c, 15, 34, 92
20, 30771, Note_on_c, 15, 34, 0
20, 30780, Note_on_c, 15, 34, 84
20, 30831, Note_on_c, 15, 34, 0
20, 30840, Note_on_c, 15, 34, 84
20, 30891, Note_on_c, 15, 34, 0
20, 30900, Note_on_c, 15, 34, 84
20, 30951, Note_on_c, 15, 34, 0
20, 30960, Note_on_c, 15, 34, 84
20, 31011, Note_on_c, 15, 34, 0
20, 31020, Note_on_c, 15, 34, 84
20, 31071, Note_on_c, 15, 34, 0
20, 31080, Note_on_c, 15, 34, 84
20, 31131, Note_on_c, 15, 34, 0
20, 31140, Note_on_c, 15, 34, 84
20, 31191, Note_on_c, 15, 34, 0
20, 31200, Note_on_c, 15, 34, 84
20, 31251, Note_on_c, 15, 34, 0
20, 31260, Note_on_c, 15, 34, 84
20, 31311, Note_on_c, 15, 34, 0
20, 31320, Note_on_c, 15, 34, 84
20, 31371, Note_on_c, 15, 34, 0
20, 31380, Note_on_c, 15, 34, 84
20, 31431, Note_on_c, 15, 34, 0
20, 31440, Note_on_c, 15, 34, 84
20, 31491, Note_on_c, 15, 34, 0
20, 31500, Note_on_c, 15, 34, 84
20, 31551, Note_on_c, 15, 34, 0
20, 31560, Note_on_c, 15, 34, 84
20, 31611, Note_on_c, 15, 34, 0
20, 31620, Note_on_c, 15, 34, 84
20, 31671, Note_on_c, 15, 34, 0
20, 31680, Note_on_c, 15, 35, 92
20, 31731, Note_on_c, 15, 35, 0
20, 31740, Note_on_c, 15, 35, 84
20, 31791, Note_on_c, 15, 35, 0
20, 31800, Note_on_c, 15, 35, 84
20, 31851, Note_on_c, 15, 35, 0
20, 31860, Note_on_c, 15, 35, 84
20, 31911, Note_on_c, 15, 35, 0
20, 31920, Note_on_c, 15, 35, 84
20, 31971, Note_on_c, 15, 35, 0
20, 31980, Note_on_c, 15, 35, 84
20, 32031, Note_on_c, 15, 35, 0
20, 32040, Note_on_c, 15, 35, 84
20, 32091, Note_on_c, 15, 35, 0
20, 32100, Note_on_c, 15, 35, 84
20, 32151, Note_on_c, 15, 35, 0
20, 32160, Note_on_c, 15, 35, 84
20, 32211, Note_on_c, 15, 35, 0
20, 32220, Note_on_c, 15, 35, 84
20, 32271, Note_on_c, 15, 35, 0
20, 32280, Note_on_c, 15, 35, 84
20, 32331, Note_on_c, 15, 35, 0
20, 32340, Note_on_c, 15, 35, 84
20, 32391, Note_on_c, 15, 35, 0
20, 32400, Note_on_c, 15, 35, 84
20, 32451, Note_on_c, 15, 35, 0
20, 32460, Note_on_c, 15, 35, 84
20, 32511, Note_on_c, 15, 35, 0
20, 32520, Note_on_c, 15, 35, 84
20, 32571, Note_on_c, 15, 35, 0
20, 32580, Note_on_c, 15, 35, 84
20, 32631, Note_on_c, 15, 35, 0
20, 32640, Note_on_c, 15, 36, 84
20, 32879, Note_on_c, 15, 36, 0
20, 33120, Note_on_c, 15, 48, 92
20, 33179, Note_on_c, 15, 48, 0
20, 33180, Note_on_c, 15, 48, 84
20, 33464, Note_on_c, 15, 48, 0
20, 33480, Note_on_c, 15, 43, 84
20, 33584, Note_on_c, 15, 43, 0
20, 33600, Note_on_c, 15, 44, 84
20, 33704, Note_on_c, 15, 44, 0
20, 33720, Note_on_c, 15, 40, 84
20, 33824, Note_on_c, 15, 40, 0
20, 33840, Note_on_c, 15, 41, 84
20, 33944, Note_on_c, 15, 41, 0
20, 33960, Note_on_c, 15, 36, 84
20, 34064, Note_on_c, 15, 36, 0
20, 34080, Note_on_c, 15, 37, 84
20, 34184, Note_on_c, 15, 37, 0
20, 34200, Note_on_c, 15, 36, 84
20, 34304, Note_on_c, 15, 36, 0
20, 34320, Note_on_c, 15, 36, 84
20, 34424, Note_on_c, 15, 36, 0
20, 34440, Note_on_c, 15, 34, 84
20, 34544, Note_on_c, 15, 34, 0
20, 34560, Note_on_c, 15, 32, 84
20, 34799, Note_on_c, 15, 32, 0
20, 35040, Note_on_c, 15, 44, 92
20, 35099, Note_on_c, 15, 44, 0
20, 35100, Note_on_c, 15, 44, 84
20, 35384, Note_on_c, 15, 44, 0
20, 35400, Note_on_c, 15, 40, 84
20, 35504, Note_on_c, 15, 40, 0
20, 35520, Note_on_c, 15, 41, 84
20, 35624, Note_on_c, 15, 41, 0
20, 35640, Note_on_c, 15, 36, 84
20, 35744, Note_on_c, 15, 36, 0
20, 35760, Note_on_c, 15, 37, 84
20, 35864, Note_on_c, 15, 37, 0
20, 35880, Note_on_c, 15, 32, 84
20, 35984, Note_on_c, 15, 32, 0
20, 36000, Note_on_c, 15, 34, 84
20, 36104, Note_on_c, 15, 34, 0
20, 36120, Note_on_c, 15, 32, 84
20, 36224, Note_on_c, 15, 32, 0
20, 36240, Note_on_c, 15, 32, 84
20, 36344, Note_on_c, 15, 32, 0
20, 36360, Note_on_c, 15, 31, 84
20, 36464, Note_on_c, 15, 31, 0
20, 36480, Note_on_c, 15, 29, 84
20, 36719, Note_on_c, 15, 29, 0
20, 36960, Note_on_c, 15, 41, 92
20, 37019, Note_on_c, 15, 41, 0
20, 37020, Note_on_c, 15, 41, 84
20, 37304, Note_on_c, 15, 41, 0
20, 37320, Note_on_c, 15, 36, 84
20, 37424, Note_on_c, 15, 36, 0
20, 37440, Note_on_c, 15, 37, 84
20, 37544, Note_on_c, 15, 37, 0
20, 37560, Note_on_c, 15, 32, 84
20, 37664, Note_on_c, 15, 32, 0
20, 37680, Note_on_c, 15, 34, 84
20, 37784, Note_on_c, 15, 34, 0
20, 37800, Note_on_c, 15, 29, 84
20, 37904, Note_on_c, 15, 29, 0
20, 37920, Note_on_c, 15, 30, 84
20, 38024, Note_on_c, 15, 30, 0
20, 38040, Note_on_c, 15, 29, 84
20, 38144, Note_on_c, 15, 29, 0
20, 38160, Note_on_c, 15, 29, 84
20, 38264, Note_on_c, 15, 29, 0
20, 38280, Note_on_c, 15, 27, 84
20, 38384, Note_on_c, 15, 27, 0
20, 38400, Note_on_c, 15, 25, 44
20, 38451, Note_on_c, 15, 25, 0
20, 38460, Note_on_c, 15, 24, 44
20, 38511, Note_on_c, 15, 24, 0
20, 38520, Note_on_c, 15, 25, 44
20, 38571, Note_on_c, 15, 25, 0
20, 38580, Note_on_c, 15, 27, 44
20, 38631, Note_on_c, 15, 27, 0
20, 38640, Note_on_c, 15, 29, 44
20, 38691, Note_on_c, 15, 29, 0
20, 38700, Note_on_c, 15, 27, 44
20, 38751, Note_on_c, 15, 27, 0
20, 38760, Note_on_c, 15, 29, 44
20, 38811, Note_on_c, 15, 29, 0
20, 38820, Note_on_c, 15, 30, 44
20, 38871, Note_on_c, 15, 30, 0
20, 38880, Note_on_c, 15, 32, 44
20, 38931, Note_on_c, 15, 32, 0
20, 38940, Note_on_c, 15, 34, 44
20, 38991, Note_on_c, 15, 34, 0
20, 39000, Note_on_c, 15, 32, 44
20, 39051, Note_on_c, 15, 32, 0
20, 39060, Note_on_c, 15, 30, 44
20, 39111, Note_on_c, 15, 30, 0
20, 39120, Note_on_c, 15, 29, 44
20, 39171, Note_on_c, 15, 29, 0
20, 39180, Note_on_c, 15, 27, 44
20, 39231, Note_on_c, 15, 27, 0
20, 39240, Note_on_c, 15, 29, 44
20, 39291, Note_on_c, 15, 29, 0
20, 39300, Note_on_c, 15, 30, 44
20, 39351, Note_on_c, 15, 30, 0
20, 39360, Note_on_c, 15, 32, 44
20, 39411, Note_on_c, 15, 32, 0
20, 39420, Note_on_c, 15, 34, 44
20, 39471, Note_on_c, 15, 34, 0
20, 39480, Note_on_c, 15, 32, 44
20, 39531, Note_on_c, 15, 32, 0
20, 39540, Note_on_c, 15, 30, 44
20, 39591, Note_on_c, 15, 30, 0
20, 39600, Note_on_c, 15, 29, 44
20, 39651, Note_on_c, 15, 29, 0
20, 39660, Note_on_c, 15, 30, 44
20, 39711, Note_on_c, 15, 30, 0
20, 39720, Note_on_c, 15, 29, 44
20, 39771, Note_on_c, 15, 29, 0
20, 39780, Note_on_c, 15, 27, 44
20, 39831, Note_on_c, 15, 27, 0
20, 39840, Note_on_c, 15, 25, 44
20, 39891, Note_on_c, 15, 25, 0
20, 39900, Note_on_c, 15, 24, 44
20, 39951, Note_on_c, 15, 24, 0
20, 39960, Note_on_c, 15, 25, 44
20, 40011, Note_on_c, 15, 25, 0
20, 40020, Note_on_c, 15, 27, 44
20, 40071, Note_on_c, 15, 27, 0
20, 40080, Note_on_c, 15, 29, 44
20, 40131, Note_on_c, 15, 29, 0
20, 40140, Note_on_c, 15, 30, 44
20, 40191, Note_on_c, 15, 30, 0
20, 40200, Note_on_c, 15, 29, 44
20, 40251, Note_on_c, 15, 29, 0
20, 40260, Note_on_c, 15, 27, 44
20, 40311, Note_on_c, 15, 27, 0
20, 40320, Note_on_c, 15, 25, 76
20, 40559, Note_on_c, 15, 25, 0
20, 42240, Note_on_c, 15, 35, 44
20, 42291, Note_on_c, 15, 35, 0
20, 42300, Note_on_c, 15, 36, 44
20, 42351, Note_on_c, 15, 36, 0
20, 42360, Note_on_c, 15, 38, 44
20, 42411, Note_on_c, 15, 38, 0
20, 42420, Note_on_c, 15, 36, 44
20, 42471, Note_on_c, 15, 36, 0
20, 42480, Note_on_c, 15, 35, 44
20, 42531, Note_on_c, 15, 35, 0
20, 42540, Note_on_c, 15, 36, 44
20, 42591, Note_on_c, 15, 36, 0
20, 42600, Note_on_c, 15, 38, 44
20, 42651, Note_on_c, 15, 38, 0
20, 42660, Note_on_c, 15, 39, 44
20, 42711, Note_on_c, 15, 39, 0
20, 42720, Note_on_c, 15, 41, 44
20, 42771, Note_on_c, 15, 41, 0
20, 42780, Note_on_c, 15, 43, 44
20, 42831, Note_on_c, 15, 43, 0
20, 42840, Note_on_c, 15, 41, 44
20, 42891, Note_on_c, 15, 41, 0
20, 42900, Note_on_c, 15, 39, 44
20, 42951, Note_on_c, 15, 39, 0
20, 42960, Note_on_c, 15, 38, 44
20, 43011, Note_on_c, 15, 38, 0
20, 43020, Note_on_c, 15, 39, 44
20, 43071, Note_on_c, 15, 39, 0
20, 43080, Note_on_c, 15, 38, 44
20, 43131, Note_on_c, 15, 38, 0
20, 43140, Note_on_c, 15, 36, 44
20, 43191, Note_on_c, 15, 36, 0
20, 43200, Note_on_c, 15, 35, 44
20, 43251, Note_on_c, 15, 35, 0
20, 43260, Note_on_c, 15, 36, 44
20, 43311, Note_on_c, 15, 36, 0
20, 43320, Note_on_c, 15, 38, 44
20, 43371, Note_on_c, 15, 38, 0
20, 43380, Note_on_c, 15, 39, 44
20, 43431, Note_on_c, 15, 39, 0
20, 43440, Note_on_c, 15, 41, 44
20, 43491, Note_on_c, 15, 41, 0
20, 43500, Note_on_c, 15, 39, 44
20, 43551, Note_on_c, 15, 39, 0
20, 43560, Note_on_c, 15, 38, 44
20, 43611, Note_on_c, 15, 38, 0
20, 43620, Note_on_c, 15, 36, 44
20, 43671, Note_on_c, 15, 36, 0
20, 43680, Note_on_c, 15, 35, 44
20, 43731, Note_on_c, 15, 35, 0
20, 43740, Note_on_c, 15, 36, 44
20, 43791, Note_on_c, 15, 36, 0
20, 43800, Note_on_c, 15, 38, 44
20, 43851, Note_on_c, 15, 38, 0
20, 43860, Note_on_c, 15, 36, 44
20, 43911, Note_on_c, 15, 36, 0
20, 43920, Note_on_c, 15, 35, 44
20, 43971, Note_on_c, 15, 35, 0
20, 43980, Note_on_c, 15, 36, 44
20, 44031, Note_on_c, 15, 36, 0
20, 44040, Note_on_c, 15, 38, 44
20, 44091, Note_on_c, 15, 38, 0
20, 44100, Note_on_c, 15, 36, 44
20, 44151, Note_on_c, 15, 36, 0
20, 44160, Note_on_c, 15, 35, 76
20, 44399, Note_on_c, 15, 35, 0
20, 46080, Note_on_c, 15, 24, 52
20, 46131, Note_on_c, 15, 24, 0
20, 46140, Note_on_c, 15, 26, 52
20, 46191, Note_on_c, 15, 26, 0
20, 46200, Note_on_c, 15, 24, 53
20, 46251, Note_on_c, 15, 24, 0
20, 46260, Note_on_c, 15, 26, 54
20, 46311, Note_on_c, 15, 26, 0
20, 46320, Note_on_c, 15, 27, 55
20, 46371, Note_on_c, 15, 27, 0
20, 46380, Note_on_c, 15, 29, 55
20, 46431, Note_on_c, 15, 29, 0
20, 46440, Note_on_c, 15, 27, 56
20, 46491, Note_on_c, 15, 27, 0
20, 46500, Note_on_c, 15, 29, 57
20, 46551, Note_on_c, 15, 29, 0
20, 46560, Note_on_c, 15, 31, 58
20, 46611, Note_on_c, 15, 31, 0
20, 46620, Note_on_c, 15, 32, 58
20, 46671, Note_on_c, 15, 32, 0
20, 46680, Note_on_c, 15, 31, 59
20, 46731, Note_on_c, 15, 31, 0
20, 46740, Note_on_c, 15, 29, 60
20, 46791, Note_on_c, 15, 29, 0
20, 46800, Note_on_c, 15, 27, 61
20, 46851, Note_on_c, 15, 27, 0
20, 46860, Note_on_c, 15, 29, 61
20, 46911, Note_on_c, 15, 29, 0
20, 46920, Note_on_c, 15, 27, 62
20, 46971, Note_on_c, 15, 27, 0
20, 46980, Note_on_c, 15, 26, 63
20, 47031, Note_on_c, 15, 26, 0
20, 47040, Note_on_c, 15, 24, 64
20, 47091, Note_on_c, 15, 24, 0
20, 47100, Note_on_c, 15, 26, 64
20, 47151, Note_on_c, 15, 26, 0
20, 47160, Note_on_c, 15, 27, 65
20, 47211, Note_on_c, 15, 27, 0
20, 47220, Note_on_c, 15, 29, 66
20, 47271, Note_on_c, 15, 29, 0
20, 47280, Note_on_c, 15, 31, 67
20, 47331, Note_on_c, 15, 31, 0
20, 47340, Note_on_c, 15, 32, 67
20, 47391, Note_on_c, 15, 32, 0
20, 47400, Note_on_c, 15, 31, 68
20, 47451, Note_on_c, 15, 31, 0
20, 47460, Note_on_c, 15, 29, 69
20, 47511, Note_on_c, 15, 29, 0
20, 47520, Note_on_c, 15, 27, 70
20, 47571, Note_on_c, 15, 27, 0
20, 47580, Note_on_c, 15, 29, 70
20, 47631, Note_on_c, 15, 29, 0
20, 47640, Note_on_c, 15, 27, 71
20, 47691, Note_on_c, 15, 27, 0
20, 47700, Note_on_c, 15, 26, 72
20, 47751, Note_on_c, 15, 26, 0
20, 47760, Note_on_c, 15, 24, 73
20, 47811, Note_on_c, 15, 24, 0
20, 47820, Note_on_c, 15, 34, 73
20, 47871, Note_on_c, 15, 34, 0
20, 47880, Note_on_c, 15, 32, 74
20, 47931, Note_on_c, 15, 32, 0
20, 47940, Note_on_c, 15, 31, 75
20, 47991, Note_on_c, 15, 31, 0
20, 48000, Note_on_c, 15, 30, 76
20, 48239, Note_on_c, 15, 30, 0
20, 48960, Note_on_c, 15, 29, 76
20, 49199, Note_on_c, 15, 29, 0
20, 49920, Note_on_c, 15, 34, 76
20, 50159, Note_on_c, 15, 34, 0
20, 50880, Note_on_c, 15, 31, 76
20, 51119, Note_on_c, 15, 31, 0
20, 51840, Note_on_c, 15, 36, 80
20, 52079, Note_on_c, 15, 36, 0
20, 52320, Note_on_c, 15, 34, 80
20, 52559, Note_on_c, 15, 34, 0
20, 52800, Note_on_c, 15, 33, 80
20, 53039, Note_on_c, 15, 33, 0
20, 60480, Note_on_c, 15, 38, 44
20, 60531, Note_on_c, 15, 38, 0
20, 60540, Note_on_c, 15, 33, 44
20, 60591, Note_on_c, 15, 33, 0
20, 60600, Note_on_c, 15, 35, 44
20, 60651, Note_on_c, 15, 35, 0
20, 60660, Note_on_c, 15, 37, 44
20, 60711, Note_on_c, 15, 37, 0
20, 60720, Note_on_c, 15, 38, 44
20, 60771, Note_on_c, 15, 38, 0
20, 60780, Note_on_c, 15, 33, 44
20, 60831, Note_on_c, 15, 33, 0
20, 60840, Note_on_c, 15, 35, 44
20, 60891, Note_on_c, 15, 35, 0
20, 60900, Note_on_c, 15, 37, 44
20, 60951, Note_on_c, 15, 37, 0
20, 60960, Note_on_c, 15, 38, 44
20, 61011, Note_on_c, 15, 38, 0
20, 61020, Note_on_c, 15, 33, 44
20, 61071, Note_on_c, 15, 33, 0
20, 61080, Note_on_c, 15, 35, 44
20, 61131, Note_on_c, 15, 35, 0
20, 61140, Note_on_c, 15, 37, 44
20, 61191, Note_on_c, 15, 37, 0
20, 61200, Note_on_c, 15, 38, 44
20, 61251, Note_on_c, 15, 38, 0
20, 61260, Note_on_c, 15, 33, 44
20, 61311, Note_on_c, 15, 33, 0
20, 61320, Note_on_c, 15, 35, 44
20, 61371, Note_on_c, 15, 35, 0
20, 61380, Note_on_c, 15, 37, 44
20, 61431, Note_on_c, 15, 37, 0
20, 61440, Note_on_c, 15, 38, 44
20, 61491, Note_on_c, 15, 38, 0
20, 61500, Note_on_c, 15, 33, 44
20, 61551, Note_on_c, 15, 33, 0
20, 61560, Note_on_c, 15, 35, 44
20, 61611, Note_on_c, 15, 35, 0
20, 61620, Note_on_c, 15, 37, 44
20, 61671, Note_on_c, 15, 37, 0
20, 61680, Note_on_c, 15, 38, 44
20, 61731, Note_on_c, 15, 38, 0
20, 61740, Note_on_c, 15, 33, 44
20, 61791, Note_on_c, 15, 33, 0
20, 61800, Note_on_c, 15, 35, 44
20, 61851, Note_on_c, 15, 35, 0
20, 61860, Note_on_c, 15, 37, 44
20, 61911, Note_on_c, 15, 37, 0
20, 61920, Note_on_c, 15, 38, 44
20, 61971, Note_on_c, 15, 38, 0
20, 61980, Note_on_c, 15, 33, 44
20, 62031, Note_on_c, 15, 33, 0
20, 62040, Note_on_c, 15, 35, 44
20, 62091, Note_on_c, 15, 35, 0
20, 62100, Note_on_c, 15, 37, 44
20, 62151, Note_on_c, 15, 37, 0
20, 62160, Note_on_c, 15, 38, 44
20, 62211, Note_on_c, 15, 38, 0
20, 62220, Note_on_c, 15, 33, 44
20, 62271, Note_on_c, 15, 33, 0
20, 62280, Note_on_c, 15, 35, 44
20, 62331, Note_on_c, 15, 35, 0
20, 62340, Note_on_c, 15, 37, 44
20, 62391, Note_on_c, 15, 37, 0
20, 62400, Note_on_c, 15, 38, 44
20, 62639, Note_on_c, 15, 38, 0
20, 64320, Note_on_c, 15, 30, 44
20, 64379, Note_on_c, 15, 30, 0
20, 64380, Note_on_c, 15, 31, 44
20, 64439, Note_on_c, 15, 31, 0
20, 64440, Note_on_c, 15, 33, 44
20, 64499, Note_on_c, 15, 33, 0
20, 64500, Note_on_c, 15, 34, 44
20, 64551, Note_on_c, 15, 34, 0
20, 64560, Note_on_c, 15, 30, 44
20, 64619, Note_on_c, 15, 30, 0
20, 64620, Note_on_c, 15, 31, 44
20, 64679, Note_on_c, 15, 31, 0
20, 64680, Note_on_c, 15, 33, 44
20, 64739, Note_on_c, 15, 33, 0
20, 64740, Note_on_c, 15, 34, 44
20, 64791, Note_on_c, 15, 34, 0
20, 64800, Note_on_c, 15, 30, 44
20, 64859, Note_on_c, 15, 30, 0
20, 64860, Note_on_c, 15, 31, 44
20, 64919, Note_on_c, 15, 31, 0
20, 64920, Note_on_c, 15, 33, 44
20, 64979, Note_on_c, 15, 33, 0
20, 64980, Note_on_c, 15, 34, 44
20, 65031, Note_on_c, 15, 34, 0
20, 65040, Note_on_c, 15, 30, 44
20, 65099, Note_on_c, 15, 30, 0
20, 65100, Note_on_c, 15, 31, 44
20, 65159, Note_on_c, 15, 31, 0
20, 65160, Note_on_c, 15, 33, 44
20, 65219, Note_on_c, 15, 33, 0
20, 65220, Note_on_c, 15, 34, 44
20, 65271, Note_on_c, 15, 34, 0
20, 65280, Note_on_c, 15, 30, 44
20, 65339, Note_on_c, 15, 30, 0
20, 65340, Note_on_c, 15, 31, 44
20, 65399, Note_on_c, 15, 31, 0
20, 65400, Note_on_c, 15, 33, 44
20, 65459, Note_on_c, 15, 33, 0
20, 65460, Note_on_c, 15, 34, 44
20, 65511, Note_on_c, 15, 34, 0
20, 65520, Note_on_c, 15, 30, 44
20, 65579, Note_on_c, 15, 30, 0
20, 65580, Note_on_c, 15, 31, 44
20, 65639, Note_on_c, 15, 31, 0
20, 65640, Note_on_c, 15, 33, 44
20, 65699, Note_on_c, 15, 33, 0
20, 65700, Note_on_c, 15, 34, 44
20, 65751, Note_on_c, 15, 34, 0
20, 65760, Note_on_c, 15, 30, 44
20, 65819, Note_on_c, 15, 30, 0
20, 65820, Note_on_c, 15, 31, 44
20, 65879, Note_on_c, 15, 31, 0
20, 65880, Note_on_c, 15, 33, 44
20, 65939, Note_on_c, 15, 33, 0
20, 65940, Note_on_c, 15, 34, 44
20, 65991, Note_on_c, 15, 34, 0
20, 66000, Note_on_c, 15, 30, 44
20, 66059, Note_on_c, 15, 30, 0
20, 66060, Note_on_c, 15, 31, 44
20, 66119, Note_on_c, 15, 31, 0
20, 66120, Note_on_c, 15, 33, 44
20, 66179, Note_on_c, 15, 33, 0
20, 66180, Note_on_c, 15, 34, 44
20, 66231, Note_on_c, 15, 34, 0
20, 66240, Note_on_c, 15, 30, 44
20, 66479, Note_on_c, 15, 30, 0
20, 68160, Note_on_c, 15, 29, 44
20, 68219, Note_on_c, 15, 29, 0
20, 68220, Note_on_c, 15, 31, 44
20, 68279, Note_on_c, 15, 31, 0
20, 68280, Note_on_c, 15, 33, 44
20, 68339, Note_on_c, 15, 33, 0
20, 68340, Note_on_c, 15, 34, 45
20, 68391, Note_on_c, 15, 34, 0
20, 68400, Note_on_c, 15, 29, 45
20, 68459, Note_on_c, 15, 29, 0
20, 68460, Note_on_c, 15, 31, 46
20, 68519, Note_on_c, 15, 31, 0
20, 68520, Note_on_c, 15, 33, 46
20, 68579, Note_on_c, 15, 33, 0
20, 68580, Note_on_c, 15, 34, 46
20, 68631, Note_on_c, 15, 34, 0
20, 68640, Note_on_c, 15, 29, 47
20, 68699, Note_on_c, 15, 29, 0
20, 68700, Note_on_c, 15, 31, 47
20, 68759, Note_on_c, 15, 31, 0
20, 68760, Note_on_c, 15, 33, 48
20, 68819, Note_on_c, 15, 33, 0
20, 68820, Note_on_c, 15, 34, 48
20, 68871, Note_on_c, 15, 34, 0
20, 68880, Note_on_c, 15, 29, 49
20, 68939, Note_on_c, 15, 29, 0
20, 68940, Note_on_c, 15, 31, 49
20, 68999, Note_on_c, 15, 31, 0
20, 69000, Note_on_c, 15, 33, 49
20, 69059, Note_on_c, 15, 33, 0
20, 69060, Note_on_c, 15, 34, 50
20, 69111, Note_on_c, 15, 34, 0
20, 69120, Note_on_c, 15, 29, 50
20, 69179, Note_on_c, 15, 29, 0
20, 69180, Note_on_c, 15, 31, 51
20, 69239, Note_on_c, 15, 31, 0
20, 69240, Note_on_c, 15, 33, 51
20, 69299, Note_on_c, 15, 33, 0
20, 69300, Note_on_c, 15, 34, 51
20, 69351, Note_on_c, 15, 34, 0
20, 69360, Note_on_c, 15, 29, 52
20, 69419, Note_on_c, 15, 29, 0
20, 69420, Note_on_c, 15, 31, 52
20, 69479, Note_on_c, 15, 31, 0
20, 69480, Note_on_c, 15, 33, 53
20, 69539, Note_on_c, 15, 33, 0
20, 69540, Note_on_c, 15, 34, 53
20, 69591, Note_on_c, 15, 34, 0
20, 69600, Note_on_c, 15, 29, 54
20, 69659, Note_on_c, 15, 29, 0
20, 69660, Note_on_c, 15, 31, 54
20, 69719, Note_on_c, 15, 31, 0
20, 69720, Note_on_c, 15, 33, 54
20, 69779, Note_on_c, 15, 33, 0
20, 69780, Note_on_c, 15, 34, 55
20, 69831, Note_on_c, 15, 34, 0
20, 69840, Note_on_c, 15, 29, 55
20, 69899, Note_on_c, 15, 29, 0
20, 69900, Note_on_c, 15, 31, 56
20, 69959, Note_on_c, 15, 31, 0
20, 69960, Note_on_c, 15, 33, 56
20, 70019, Note_on_c, 15, 33, 0
20, 70020, Note_on_c, 15, 34, 56
20, 70071, Note_on_c, 15, 34, 0
20, 70080, Note_on_c, 15, 34, 57
20, 70139, Note_on_c, 15, 34, 0
20, 70140, Note_on_c, 15, 36, 57
20, 70199, Note_on_c, 15, 36, 0
20, 70200, Note_on_c, 15, 37, 58
20, 70259, Note_on_c, 15, 37, 0
20, 70260, Note_on_c, 15, 39, 58
20, 70311, Note_on_c, 15, 39, 0
20, 70320, Note_on_c, 15, 34, 59
20, 70379, Note_on_c, 15, 34, 0
20, 70380, Note_on_c, 15, 36, 59
20, 70439, Note_on_c, 15, 36, 0
20, 70440, Note_on_c, 15, 37, 59
20, 70499, Note_on_c, 15, 37, 0
20, 70500, Note_on_c, 15, 39, 60
20, 70551, Note_on_c, 15, 39, 0
20, 70560, Note_on_c, 15, 34, 60
20, 70619, Note_on_c, 15, 34, 0
20, 70620, Note_on_c, 15, 36, 61
20, 70679, Note_on_c, 15, 36, 0
20, 70680, Note_on_c, 15, 37, 61
20, 70739, Note_on_c, 15, 37, 0
20, 70740, Note_on_c, 15, 39, 61
20, 70791, Note_on_c, 15, 39, 0
20, 70800, Note_on_c, 15, 34, 62
20, 70859, Note_on_c, 15, 34, 0
20, 70860, Note_on_c, 15, 36, 62
20, 70919, Note_on_c, 15, 36, 0
20, 70920, Note_on_c, 15, 37, 63
20, 70979, Note_on_c, 15, 37, 0
20, 70980, Note_on_c, 15, 39, 63
20, 71031, Note_on_c, 15, 39, 0
20, 71040, Note_on_c, 15, 34, 64
20, 71099, Note_on_c, 15, 34, 0
20, 71100, Note_on_c, 15, 36, 64
20, 71159, Note_on_c, 15, 36, 0
20, 71160, Note_on_c, 15, 37, 64
20, 71219, Note_on_c, 15, 37, 0
20, 71220, Note_on_c, 15, 39, 65
20, 71271, Note_on_c, 15, 39, 0
20, 71280, Note_on_c, 15, 34, 65
20, 71339, Note_on_c, 15, 34, 0
20, 71340, Note_on_c, 15, 36, 66
20, 71399, Note_on_c, 15, 36, 0
20, 71400, Note_on_c, 15, 37, 66
20, 71459, Note_on_c, 15, 37, 0
20, 71460, Note_on_c, 15, 39, 66
20, 71511, Note_on_c, 15, 39, 0
20, 71520, Note_on_c, 15, 34, 67
20, 71579, Note_on_c, 15, 34, 0
20, 71580, Note_on_c, 15, 36, 67
20, 71639, Note_on_c, 15, 36, 0
20, 71640, Note_on_c, 15, 37, 68
20, 71699, Note_on_c, 15, 37, 0
20, 71700, Note_on_c, 15, 39, 68
20, 71751, Note_on_c, 15, 39, 0
20, 71760, Note_on_c, 15, 34, 69
20, 71819, Note_on_c, 15, 34, 0
20, 71820, Note_on_c, 15, 36, 69
20, 71879, Note_on_c, 15, 36, 0
20, 71880, Note_on_c, 15, 37, 69
20, 71939, Note_on_c, 15, 37, 0
20, 71940, Note_on_c, 15, 39, 70
20, 71991, Note_on_c, 15, 39, 0
20, 72000, Note_on_c, 15, 31, 70
20, 72059, Note_on_c, 15, 31, 0
20, 72060, Note_on_c, 15, 33, 71
20, 72119, Note_on_c, 15, 33, 0
20, 72120, Note_on_c, 15, 35, 71
20, 72179, Note_on_c, 15, 35, 0
20, 72180, Note_on_c, 15, 36, 71
20, 72231, Note_on_c, 15, 36, 0
20, 72240, Note_on_c, 15, 31, 72
20, 72299, Note_on_c, 15, 31, 0
20, 72300, Note_on_c, 15, 33, 72
20, 72359, Note_on_c, 15, 33, 0
20, 72360, Note_on_c, 15, 35, 73
20, 72419, Note_on_c, 15, 35, 0
20, 72420, Note_on_c, 15, 36, 73
20, 72471, Note_on_c, 15, 36, 0
20, 72480, Note_on_c, 15, 31, 74
20, 72539, Note_on_c, 15, 31, 0
20, 72540, Note_on_c, 15, 33, 74
20, 72599, Note_on_c, 15, 33, 0
20, 72600, Note_on_c, 15, 35, 74
20, 72659, Note_on_c, 15, 35, 0
20, 72660, Note_on_c, 15, 36, 75
20, 72711, Note_on_c, 15, 36, 0
20, 72720, Note_on_c, 15, 31, 75
20, 72779, Note_on_c, 15, 31, 0
20, 72780, Note_on_c, 15, 33, 76
20, 72839, Note_on_c, 15, 33, 0
20, 72840, Note_on_c, 15, 35, 76
20, 72899, Note_on_c, 15, 35, 0
20, 72900, Note_on_c, 15, 36, 76
20, 72951, Note_on_c, 15, 36, 0
20, 72960, Note_on_c, 15, 31, 77
20, 73019, Note_on_c, 15, 31, 0
20, 73020, Note_on_c, 15, 33, 77
20, 73079, Note_on_c, 15, 33, 0
20, 73080, Note_on_c, 15, 35, 78
20, 73139, Note_on_c, 15, 35, 0
20, 73140, Note_on_c, 15, 36, 78
20, 73191, Note_on_c, 15, 36, 0
20, 73200, Note_on_c, 15, 31, 79
20, 73259, Note_on_c, 15, 31, 0
20, 73260, Note_on_c, 15, 33, 79
20, 73319, Note_on_c, 15, 33, 0
20, 73320, Note_on_c, 15, 35, 79
20, 73379, Note_on_c, 15, 35, 0
20, 73380, Note_on_c, 15, 36, 80
20, 73431, Note_on_c, 15, 36, 0
20, 73440, Note_on_c, 15, 31, 80
20, 73499, Note_on_c, 15, 31, 0
20, 73500, Note_on_c, 15, 33, 81
20, 73559, Note_on_c, 15, 33, 0
20, 73560, Note_on_c, 15, 35, 81
20, 73619, Note_on_c, 15, 35, 0
20, 73620, Note_on_c, 15, 36, 81
20, 73671, Note_on_c, 15, 36, 0
20, 73680, Note_on_c, 15, 31, 82
20, 73739, Note_on_c, 15, 31, 0
20, 73740, Note_on_c, 15, 33, 82
20, 73799, Note_on_c, 15, 33, 0
20, 73800, Note_on_c, 15, 35, 83
20, 73859, Note_on_c, 15, 35, 0
20, 73860, Note_on_c, 15, 36, 83
20, 73911, Note_on_c, 15, 36, 0
20, 73920, Note_on_c, 15, 43, 84
20, 74624, Note_on_c, 15, 43, 0
20, 74640, Note_on_c, 15, 41, 92
20, 74699, Note_on_c, 15, 41, 0
20, 74700, Note_on_c, 15, 41, 84
20, 74879, Note_on_c, 15, 41, 0
20, 74880, Note_on_c, 15, 39, 84
20, 75584, Note_on_c, 15, 39, 0
20, 75600, Note_on_c, 15, 38, 92
20, 75659, Note_on_c, 15, 38, 0
20, 75660, Note_on_c, 15, 38, 84
20, 75839, Note_on_c, 15, 38, 0
20, 75840, Note_on_c, 15, 36, 84
20, 76544, Note_on_c, 15, 36, 0
20, 76560, Note_on_c, 15, 34, 92
20, 76619, Note_on_c, 15, 34, 0
20, 76620, Note_on_c, 15, 34, 84
20, 76799, Note_on_c, 15, 34, 0
20, 76800, Note_on_c, 15, 32, 84
20, 77504, Note_on_c, 15, 32, 0
20, 77520, Note_on_c, 15, 32, 92
20, 77579, Note_on_c, 15, 32, 0
20, 77580, Note_on_c, 15, 32, 84
20, 77744, Note_on_c, 15, 32, 0
20, 77760, Note_on_c, 15, 44, 84
20, 78464, Note_on_c, 15, 44, 0
20, 78480, Note_on_c, 15, 42, 92
20, 78539, Note_on_c, 15, 42, 0
20, 78540, Note_on_c, 15, 42, 84
20, 78719, Note_on_c, 15, 42, 0
20, 78720, Note_on_c, 15, 41, 84
20, 79424, Note_on_c, 15, 41, 0
20, 79440, Note_on_c, 15, 39, 92
20, 79499, Note_on_c, 15, 39, 0
20, 79500, Note_on_c, 15, 39, 84
20, 79679, Note_on_c, 15, 39, 0
20, 79680, Note_on_c, 15, 37, 84
20, 80384, Note_on_c, 15, 37, 0
20, 80400, Note_on_c, 15, 35, 92
20, 80459, Note_on_c, 15, 35, 0
20, 80460, Note_on_c, 15, 35, 84
20, 80639, Note_on_c, 15, 35, 0
20, 80640, Note_on_c, 15, 34, 84
20, 81344, Note_on_c, 15, 34, 0
20, 81360, Note_on_c, 15, 46, 92
20, 81419, Note_on_c, 15, 46, 0
20, 81420, Note_on_c, 15, 46, 84
20, 81584, Note_on_c, 15, 46, 0
20, 81600, Note_on_c, 15, 46, 84
20, 82304, Note_on_c, 15, 46, 0
20, 82320, Note_on_c, 15, 44, 92
20, 82379, Note_on_c, 15, 44, 0
20, 82380, Note_on_c, 15, 44, 84
20, 82559, Note_on_c, 15, 44, 0
20, 82560, Note_on_c, 15, 42, 84
20, 83264, Note_on_c, 15, 42, 0
20, 83280, Note_on_c, 15, 41, 92
20, 83339, Note_on_c, 15, 41, 0
20, 83340, Note_on_c, 15, 41, 84
20, 83519, Note_on_c, 15, 41, 0
20, 83520, Note_on_c, 15, 39, 84
20, 84224, Note_on_c, 15, 39, 0
20, 84240, Note_on_c, 15, 32, 92
20, 84299, Note_on_c, 15, 32, 0
20, 84300, Note_on_c, 15, 32, 84
20, 84464, Note_on_c, 15, 32, 0
20, 84480, Note_on_c, 15, 37, 84
20, 84719, Note_on_c, 15, 37, 0
20, 84960, Note_on_c, 15, 49, 92
20, 85019, Note_on_c, 15, 49, 0
20, 85020, Note_on_c, 15, 49, 84
20, 85304, Note_on_c, 15, 49, 0
20, 85320, Note_on_c, 15, 44, 84
20, 85424, Note_on_c, 15, 44, 0
20, 85440, Note_on_c, 15, 46, 84
20, 85544, Note_on_c, 15, 46, 0
20, 85560, Note_on_c, 15, 41, 84
20, 85664, Note_on_c, 15, 41, 0
20, 85680, Note_on_c, 15, 42, 84
20, 85784, Note_on_c, 15, 42, 0
20, 85800, Note_on_c, 15, 41, 84
20, 85904, Note_on_c, 15, 41, 0
20, 85920, Note_on_c, 15, 39, 84
20, 86024, Note_on_c, 15, 39, 0
20, 86040, Note_on_c, 15, 37, 84
20, 86144, Note_on_c, 15, 37, 0
20, 86160, Note_on_c, 15, 37, 84
20, 86264, Note_on_c, 15, 37, 0
20, 86280, Note_on_c, 15, 36, 84
20, 86384, Note_on_c, 15, 36, 0
20, 86400, Note_on_c, 15, 34, 84
20, 86639, Note_on_c, 15, 34, 0
20, 86880, Note_on_c, 15, 46, 92
20, 86939, Note_on_c, 15, 46, 0
20, 86940, Note_on_c, 15, 46, 84
20, 87224, Note_on_c, 15, 46, 0
20, 87240, Note_on_c, 15, 41, 84
20, 87344, Note_on_c, 15, 41, 0
20, 87360, Note_on_c, 15, 42, 84
20, 87464, Note_on_c, 15, 42, 0
20, 87480, Note_on_c, 15, 37, 84
20, 87584, Note_on_c, 15, 37, 0
20, 87600, Note_on_c, 15, 39, 84
20, 87704, Note_on_c, 15, 39, 0
20, 87720, Note_on_c, 15, 37, 84
20, 87824, Note_on_c, 15, 37, 0
20, 87840, Note_on_c, 15, 35, 84
20, 87944, Note_on_c, 15, 35, 0
20, 87960, Note_on_c, 15, 34, 84
20, 88064, Note_on_c, 15, 34, 0
20, 88080, Note_on_c, 15, 34, 84
20, 88184, Note_on_c, 15, 34, 0
20, 88200, Note_on_c, 15, 32, 84
20, 88304, Note_on_c, 15, 32, 0
20, 88320, Note_on_c, 15, 30, 84
20, 88559, Note_on_c, 15, 30, 0
20, 88800, Note_on_c, 15, 42, 92
20, 88859, Note_on_c, 15, 42, 0
20, 88860, Note_on_c, 15, 42, 84
20, 89144, Note_on_c, 15, 42, 0
20, 89160, Note_on_c, 15, 37, 84
20, 89264, Note_on_c, 15, 37, 0
20, 89280, Note_on_c, 15, 39, 84
20, 89384, Note_on_c, 15, 39, 0
20, 89400, Note_on_c, 15, 34, 84
20, 89504, Note_on_c, 15, 34, 0
20, 89520, Note_on_c, 15, 35, 84
20, 89624, Note_on_c, 15, 35, 0
20, 89640, Note_on_c, 15, 34, 84
20, 89744, Note_on_c, 15, 34, 0
20, 89760, Note_on_c, 15, 32, 84
20, 89864, Note_on_c, 15, 32, 0
20, 89880, Note_on_c, 15, 30, 84
20, 89984, Note_on_c, 15, 30, 0
20, 90000, Note_on_c, 15, 30, 84
20, 90104, Note_on_c, 15, 30, 0
20, 90120, Note_on_c, 15, 40, 84
20, 90224, Note_on_c, 15, 40, 0
20, 90240, Note_on_c, 15, 40, 84
20, 90479, Note_on_c, 15, 40, 0
20, 94080, Note_on_c, 15, 40, 76
20, 94319, Note_on_c, 15, 40, 0
20, 97920, Note_on_c, 15, 40, 76
20, 98159, Note_on_c, 15, 40, 0
20, 98880, Note_on_c, 15, 39, 78
20, 99119, Note_on_c, 15, 39, 0
20, 99840, Note_on_c, 15, 38, 80
20, 100079, Note_on_c, 15, 38, 0
20, 100800, Note_on_c, 15, 37, 82
20, 101039, Note_on_c, 15, 37, 0
20, 101280, Note_on_c, 15, 36, 83
20, 101504, Note_on_c, 15, 36, 0
20, 101520, Note_on_c, 15, 30, 84
20, 101579, Note_on_c, 15, 30, 0
20, 101580, Note_on_c, 15, 31, 84
20, 101639, Note_on_c, 15, 31, 0
20, 101640, Note_on_c, 15, 33, 84
20, 101699, Note_on_c, 15, 33, 0
20, 101700, Note_on_c, 15, 34, 84
20, 101751, Note_on_c, 15, 34, 0
20, 101760, Note_on_c, 15, 30, 84
20, 101819, Note_on_c, 15, 30, 0
20, 101820, Note_on_c, 15, 31, 84
20, 101879, Note_on_c, 15, 31, 0
20, 101880, Note_on_c, 15, 33, 84
20, 101939, Note_on_c, 15, 33, 0
20, 101940, Note_on_c, 15, 34, 84
20, 101991, Note_on_c, 15, 34, 0
20, 102000, Note_on_c, 15, 30, 84
20, 102059, Note_on_c, 15, 30, 0
20, 102060, Note_on_c, 15, 31, 84
20, 102119, Note_on_c, 15, 31, 0
20, 102120, Note_on_c, 15, 33, 84
20, 102179, Note_on_c, 15, 33, 0
20, 102180, Note_on_c, 15, 34, 84
20, 102231, Note_on_c, 15, 34, 0
20, 102240, Note_on_c, 15, 30, 84
20, 102299, Note_on_c, 15, 30, 0
20, 102300, Note_on_c, 15, 31, 84
20, 102359, Note_on_c, 15, 31, 0
20, 102360, Note_on_c, 15, 33, 84
20, 102419, Note_on_c, 15, 33, 0
20, 102420, Note_on_c, 15, 34, 84
20, 102471, Note_on_c, 15, 34, 0
20, 102480, Note_on_c, 15, 30, 84
20, 102539, Note_on_c, 15, 30, 0
20, 102540, Note_on_c, 15, 31, 84
20, 102599, Note_on_c, 15, 31, 0
20, 102600, Note_on_c, 15, 33, 84
20, 102659, Note_on_c, 15, 33, 0
20, 102660, Note_on_c, 15, 34, 84
20, 102711, Note_on_c, 15, 34, 0
20, 102720, Note_on_c, 15, 30, 84
20, 102779, Note_on_c, 15, 30, 0
20, 102780, Note_on_c, 15, 31, 84
20, 102839, Note_on_c, 15, 31, 0
20, 102840, Note_on_c, 15, 33, 84
20, 102899, Note_on_c, 15, 33, 0
20, 102900, Note_on_c, 15, 34, 84
20, 102951, Note_on_c, 15, 34, 0
20, 102960, Note_on_c, 15, 30, 84
20, 103019, Note_on_c, 15, 30, 0
20, 103020, Note_on_c, 15, 31, 84
20, 103079, Note_on_c, 15, 31, 0
20, 103080, Note_on_c, 15, 33, 84
20, 103139, Note_on_c, 15, 33, 0
20, 103140, Note_on_c, 15, 34, 84
20, 103191, Note_on_c, 15, 34, 0
20, 103200, Note_on_c, 15, 30, 84
20, 103259, Note_on_c, 15, 30, 0
20, 103260, Note_on_c, 15, 31, 84
20, 103319, Note_on_c, 15, 31, 0
20, 103320, Note_on_c, 15, 33, 84
20, 103379, Note_on_c, 15, 33, 0
20, 103380, Note_on_c, 15, 34, 84
20, 103431, Note_on_c, 15, 34, 0
20, 103440, Note_on_c, 15, 30, 84
20, 103499, Note_on_c, 15, 30, 0
20, 103500, Note_on_c, 15, 31, 84
20, 103559, Note_on_c, 15, 31, 0
20, 103560, Note_on_c, 15, 33, 84
20, 103619, Note_on_c, 15, 33, 0
20, 103620, Note_on_c, 15, 34, 84
20, 103671, Note_on_c, 15, 34, 0
20, 103680, Note_on_c, 15, 30, 84
20, 103739, Note_on_c, 15, 30, 0
20, 103740, Note_on_c, 15, 31, 84
20, 103799, Note_on_c, 15, 31, 0
20, 103800, Note_on_c, 15, 33, 84
20, 103859, Note_on_c, 15, 33, 0
20, 103860, Note_on_c, 15, 34, 84
20, 103911, Note_on_c, 15, 34, 0
20, 103920, Note_on_c, 15, 30, 84
20, 103979, Note_on_c, 15, 30, 0
20, 103980, Note_on_c, 15, 31, 84
20, 104039, Note_on_c, 15, 31, 0
20, 104040, Note_on_c, 15, 33, 84
20, 104099, Note_on_c, 15, 33, 0
20, 104100, Note_on_c, 15, 34, 84
20, 104151, Note_on_c, 15, 34, 0
20, 104160, Note_on_c, 15, 30, 84
20, 104219, Note_on_c, 15, 30, 0
20, 104220, Note_on_c, 15, 31, 84
20, 104279, Note_on_c, 15, 31, 0
20, 104280, Note_on_c, 15, 33, 84
20, 104339, Note_on_c, 15, 33, 0
20, 104340, Note_on_c, 15, 34, 84
20, 104391, Note_on_c, 15, 34, 0
20, 104400, Note_on_c, 15, 30, 84
20, 104459, Note_on_c, 15, 30, 0
20, 104460, Note_on_c, 15, 31, 84
20, 104519, Note_on_c, 15, 31, 0
20, 104520, Note_on_c, 15, 33, 84
20, 104579, Note_on_c, 15, 33, 0
20, 104580, Note_on_c, 15, 34, 84
20, 104631, Note_on_c, 15, 34, 0
20, 104640, Note_on_c, 15, 30, 84
20, 104699, Note_on_c, 15, 30, 0
20, 104700, Note_on_c, 15, 31, 84
20, 104759, Note_on_c, 15, 31, 0
20, 104760, Note_on_c, 15, 33, 84
20, 104819, Note_on_c, 15, 33, 0
20, 104820, Note_on_c, 15, 34, 84
20, 104871, Note_on_c, 15, 34, 0
20, 104880, Note_on_c, 15, 30, 84
20, 104939, Note_on_c, 15, 30, 0
20, 104940, Note_on_c, 15, 31, 84
20, 104999, Note_on_c, 15, 31, 0
20, 105000, Note_on_c, 15, 33, 84
20, 105059, Note_on_c, 15, 33, 0
20, 105060, Note_on_c, 15, 34, 84
20, 105111, Note_on_c, 15, 34, 0
20, 105120, Note_on_c, 15, 30, 84
20, 105179, Note_on_c, 15, 30, 0
20, 105180, Note_on_c, 15, 31, 84
20, 105239, Note_on_c, 15, 31, 0
20, 105240, Note_on_c, 15, 33, 84
20, 105299, Note_on_c, 15, 33, 0
20, 105300, Note_on_c, 15, 34, 84
20, 105351, Note_on_c, 15, 34, 0
20, 105360, Note_on_c, 15, 30, 84
20, 105419, Note_on_c, 15, 30, 0
20, 105420, Note_on_c, 15, 31, 84
20, 105479, Note_on_c, 15, 31, 0
20, 105480, Note_on_c, 15, 33, 84
20, 105539, Note_on_c, 15, 33, 0
20, 105540, Note_on_c, 15, 34, 84
20, 105591, Note_on_c, 15, 34, 0
20, 105600, Note_on_c, 15, 29, 84
20, 105659, Note_on_c, 15, 29, 0
20, 105660, Note_on_c, 15, 33, 84
20, 105719, Note_on_c, 15, 33, 0
20, 105720, Note_on_c, 15, 34, 84
20, 105779, Note_on_c, 15, 34, 0
20, 105780, Note_on_c, 15, 36, 84
20, 105831, Note_on_c, 15, 36, 0
20, 105840, Note_on_c, 15, 29, 84
20, 105899, Note_on_c, 15, 29, 0
20, 105900, Note_on_c, 15, 33, 84
20, 105959, Note_on_c, 15, 33, 0
20, 105960, Note_on_c, 15, 34, 84
20, 106019, Note_on_c, 15, 34, 0
20, 106020, Note_on_c, 15, 36, 84
20, 106071, Note_on_c, 15, 36, 0
20, 106080, Note_on_c, 15, 29, 84
20, 106139, Note_on_c, 15, 29, 0
20, 106140, Note_on_c, 15, 33, 84
20, 106199, Note_on_c, 15, 33, 0
20, 106200, Note_on_c, 15, 34, 84
20, 106259, Note_on_c, 15, 34, 0
20, 106260, Note_on_c, 15, 36, 84
20, 106311, Note_on_c, 15, 36, 0
20, 106320, Note_on_c, 15, 29, 84
20, 106379, Note_on_c, 15, 29, 0
20, 106380, Note_on_c, 15, 33, 84
20, 106439, Note_on_c, 15, 33, 0
20, 106440, Note_on_c, 15, 34, 84
20, 106499, Note_on_c, 15, 34, 0
20, 106500, Note_on_c, 15, 36, 84
20, 106551, Note_on_c, 15, 36, 0
20, 106560, Note_on_c, 15, 29, 92
20, 106619, Note_on_c, 15, 29, 0
20, 106620, Note_on_c, 15, 29, 84
20, 107504, Note_on_c, 15, 29, 0
20, 107520, Note_on_c, 15, 29, 84
20, 107579, Note_on_c, 15, 29, 0
20, 107580, Note_on_c, 15, 34, 84
20, 107639, Note_on_c, 15, 34, 0
20, 107640, Note_on_c, 15, 36, 84
20, 107699, Note_on_c, 15, 36, 0
20, 107700, Note_on_c, 15, 37, 84
20, 107751, Note_on_c, 15, 37, 0
20, 107760, Note_on_c, 15, 29, 84
20, 107819, Note_on_c, 15, 29, 0
20, 107820, Note_on_c, 15, 34, 84
20, 107879, Note_on_c, 15, 34, 0
20, 107880, Note_on_c, 15, 36, 84
20, 107939, Note_on_c, 15, 36, 0
20, 107940, Note_on_c, 15, 37, 84
20, 107991, Note_on_c, 15, 37, 0
20, 108000, Note_on_c, 15, 29, 84
20, 108059, Note_on_c, 15, 29, 0
20, 108060, Note_on_c, 15, 34, 84
20, 108119, Note_on_c, 15, 34, 0
20, 108120, Note_on_c, 15, 36, 84
20, 108179, Note_on_c, 15, 36, 0
20, 108180, Note_on_c, 15, 37, 84
20, 108231, Note_on_c, 15, 37, 0
20, 108240, Note_on_c, 15, 29, 84
20, 108299, Note_on_c, 15, 29, 0
20, 108300, Note_on_c, 15, 34, 84
20, 108359, Note_on_c, 15, 34, 0
20, 108360, Note_on_c, 15, 36, 84
20, 108419, Note_on_c, 15, 36, 0
20, 108420, Note_on_c, 15, 37, 84
20, 108471, Note_on_c, 15, 37, 0
20, 108480, Note_on_c, 15, 29, 92
20, 108539, Note_on_c, 15, 29, 0
20, 108540, Note_on_c, 15, 29, 84
20, 109424, Note_on_c, 15, 29, 0
20, 109440, Note_on_c, 15, 29, 84
20, 109499, Note_on_c, 15, 29, 0
20, 109500, Note_on_c, 15, 33, 84
20, 109559, Note_on_c, 15, 33, 0
20, 109560, Note_on_c, 15, 34, 84
20, 109619, Note_on_c, 15, 34, 0
20, 109620, Note_on_c, 15, 36, 84
20, 109671, Note_on_c, 15, 36, 0
20, 109680, Note_on_c, 15, 29, 84
20, 109739, Note_on_c, 15, 29, 0
20, 109740, Note_on_c, 15, 33, 84
20, 109799, Note_on_c, 15, 33, 0
20, 109800, Note_on_c, 15, 34, 84
20, 109859, Note_on_c, 15, 34, 0
20, 109860, Note_on_c, 15, 36, 84
20, 109911, Note_on_c, 15, 36, 0
20, 109920, Note_on_c, 15, 29, 84
20, 109979, Note_on_c, 15, 29, 0
20, 109980, Note_on_c, 15, 33, 84
20, 110039, Note_on_c, 15, 33, 0
20, 110040, Note_on_c, 15, 34, 84
20, 110099, Note_on_c, 15, 34, 0
20, 110100, Note_on_c, 15, 36, 84
20, 110151, Note_on_c, 15, 36, 0
20, 110160, Note_on_c, 15, 29, 84
20, 110219, Note_on_c, 15, 29, 0
20, 110220, Note_on_c, 15, 33, 84
20, 110279, Note_on_c, 15, 33, 0
20, 110280, Note_on_c, 15, 34, 84
20, 110339, Note_on_c, 15, 34, 0
20, 110340, Note_on_c, 15, 36, 84
20, 110391, Note_on_c, 15, 36, 0
20, 110400, Note_on_c, 15, 29, 92
20, 110459, Note_on_c, 15, 29, 0
20, 110460, Note_on_c, 15, 29, 84
20, 111344, Note_on_c, 15, 29, 0
20, 111360, Note_on_c, 15, 29, 84
20, 111419, Note_on_c, 15, 29, 0
20, 111420, Note_on_c, 15, 34, 84
20, 111479, Note_on_c, 15, 34, 0
20, 111480, Note_on_c, 15, 36, 84
20, 111539, Note_on_c, 15, 36, 0
20, 111540, Note_on_c, 15, 37, 84
20, 111591, Note_on_c, 15, 37, 0
20, 111600, Note_on_c, 15, 29, 84
20, 111659, Note_on_c, 15, 29, 0
20, 111660, Note_on_c, 15, 34, 84
20, 111719, Note_on_c, 15, 34, 0
20, 111720, Note_on_c, 15, 36, 84
20, 111779, Note_on_c, 15, 36, 0
20, 111780, Note_on_c, 15, 37, 84
20, 111831, Note_on_c, 15, 37, 0
20, 111840, Note_on_c, 15, 29, 84
20, 111899, Note_on_c, 15, 29, 0
20, 111900, Note_on_c, 15, 34, 84
20, 111959, Note_on_c, 15, 34, 0
20, 111960, Note_on_c, 15, 36, 84
20, 112019, Note_on_c, 15, 36, 0
20, 112020, Note_on_c, 15, 37, 84
20, 112071, Note_on_c, 15, 37, 0
20, 112080, Note_on_c, 15, 29, 84
20, 112139, Note_on_c, 15, 29, 0
20, 112140, Note_on_c, 15, 34, 84
20, 112199, Note_on_c, 15, 34, 0
20, 112200, Note_on_c, 15, 36, 84
20, 112259, Note_on_c, 15, 36, 0
20, 112260, Note_on_c, 15, 37, 84
20, 112311, Note_on_c, 15, 37, 0
20, 112320, Note_on_c, 15, 29, 92
20, 112379, Note_on_c, 15, 29, 0
20, 112380, Note_on_c, 15, 29, 84
20, 112440, Control_c, 15, 11, 127
20, 112487, Control_c, 15, 11, 124
20, 112533, Control_c, 15, 11, 122
20, 112580, Control_c, 15, 11, 119
20, 112627, Control_c, 15, 11, 117
20, 112673, Control_c, 15, 11, 114
20, 112720, Control_c, 15, 11, 111
20, 112767, Control_c, 15, 11, 109
20, 112813, Control_c, 15, 11, 106
20, 112860, Control_c, 15, 11, 104
20, 112907, Control_c, 15, 11, 101
20, 112953, Control_c, 15, 11, 98
20, 113000, Control_c, 15, 11, 96
20, 113047, Control_c, 15, 11, 93
20, 113093, Control_c, 15, 11, 90
20, 113140, Control_c, 15, 11, 88
20, 113187, Control_c, 15, 11, 85
20, 113233, Control_c, 15, 11, 83
20, 113264, Note_on_c, 15, 29, 0
20, 113278, Control_c, 15, 11, 96
20, 113280, Note_on_c, 15, 41, 76
20, 113984, Note_on_c, 15, 41, 0
20, 113984, Control_c, 15, 11, 95
20, 114000, Note_on_c, 15, 39, 76
20, 114239, Note_on_c, 15, 39, 0
20, 114240, Note_on_c, 15, 37, 76
20, 114688, Control_c, 15, 11, 94
20, 114944, Note_on_c, 15, 37, 0
20, 114960, Note_on_c, 15, 36, 76
20, 115199, Note_on_c, 15, 36, 0
20, 115200, Note_on_c, 15, 34, 76
20, 115904, Note_on_c, 15, 34, 0
20, 115918, Control_c, 15, 11, 108
20, 115920, Note_on_c, 15, 32, 68
20, 116096, Control_c, 15, 11, 107
20, 116159, Note_on_c, 15, 32, 0
20, 116160, Note_on_c, 15, 31, 68
20, 116800, Control_c, 15, 11, 106
20, 116864, Note_on_c, 15, 31, 0
20, 116880, Note_on_c, 15, 43, 68
20, 117104, Note_on_c, 15, 43, 0
20, 117120, Note_on_c, 15, 43, 68
20, 117824, Note_on_c, 15, 43, 0
20, 117838, Control_c, 15, 11, 120
20, 117840, Note_on_c, 15, 41, 60
20, 118079, Note_on_c, 15, 41, 0
20, 118080, Note_on_c, 15, 39, 60
20, 118208, Control_c, 15, 11, 120
20, 118784, Note_on_c, 15, 39, 0
20, 118800, Note_on_c, 15, 38, 60
20, 118912, Control_c, 15, 11, 119
20, 119039, Note_on_c, 15, 38, 0
20, 119040, Note_on_c, 15, 36, 60
20, 119616, Control_c, 15, 11, 118
20, 119744, Note_on_c, 15, 36, 0
20, 119760, Note_on_c, 15, 34, 60
20, 119999, Note_on_c, 15, 34, 0
20, 120000, Note_on_c, 15, 32, 60
20, 120320, Control_c, 15, 11, 117
20, 120704, Note_on_c, 15, 32, 0
20, 120720, Note_on_c, 15, 44, 60
20, 120944, Note_on_c, 15, 44, 0
20, 120960, Note_on_c, 15, 44, 60
20, 121024, Control_c, 15, 11, 116
20, 121664, Note_on_c, 15, 44, 0
20, 121680, Note_on_c, 15, 42, 60
20, 121728, Control_c, 15, 11, 115
20, 121919, Note_on_c, 15, 42, 0
20, 121920, Note_on_c, 15, 41, 60
20, 122432, Control_c, 15, 11, 114
20, 122624, Note_on_c, 15, 41, 0
20, 122640, Note_on_c, 15, 39, 60
20, 122879, Note_on_c, 15, 39, 0
20, 122880, Note_on_c, 15, 37, 60
20, 123136, Control_c, 15, 11, 113
20, 123584, Note_on_c, 15, 37, 0
20, 123600, Note_on_c, 15, 36, 60
20, 123824, Note_on_c, 15, 36, 0
20, 123838, Control_c, 15, 11, 127
20, 123840, Note_on_c, 15, 35, 52
20, 123891, Note_on_c, 15, 35, 0
20, 123900, Note_on_c, 15, 35, 52
20, 123951, Note_on_c, 15, 35, 0
20, 123960, Note_on_c, 15, 35, 52
20, 124011, Note_on_c, 15, 35, 0
20, 124020, Note_on_c, 15, 35, 52
20, 124071, Note_on_c, 15, 35, 0
20, 124080, Note_on_c, 15, 36, 52
20, 124131, Note_on_c, 15, 36, 0
20, 124140, Note_on_c, 15, 36, 52
20, 124191, Note_on_c, 15, 36, 0
20, 124200, Note_on_c, 15, 36, 52
20, 124251, Note_on_c, 15, 36, 0
20, 124260, Note_on_c, 15, 36, 52
20, 124311, Note_on_c, 15, 36, 0
20, 124320, Note_on_c, 15, 35, 52
20, 124371, Note_on_c, 15, 35, 0
20, 124380, Note_on_c, 15, 35, 52
20, 124431, Note_on_c, 15, 35, 0
20, 124440, Note_on_c, 15, 35, 52
20, 124491, Note_on_c, 15, 35, 0
20, 124500, Note_on_c, 15, 35, 52
20, 124551, Note_on_c, 15, 35, 0
20, 124560, Note_on_c, 15, 36, 52
20, 124611, Note_on_c, 15, 36, 0
20, 124620, Note_on_c, 15, 36, 52
20, 124671, Note_on_c, 15, 36, 0
20, 124680, Note_on_c, 15, 36, 52
20, 124731, Note_on_c, 15, 36, 0
20, 124740, Note_on_c, 15, 36, 52
20, 124791, Note_on_c, 15, 36, 0
20, 124800, Note_on_c, 15, 38, 52
20, 124851, Note_on_c, 15, 38, 0
20, 124860, Note_on_c, 15, 38, 52
20, 124911, Note_on_c, 15, 38, 0
20, 124920, Note_on_c, 15, 38, 52
20, 124971, Note_on_c, 15, 38, 0
20, 124980, Note_on_c, 15, 38, 52
20, 125031, Note_on_c, 15, 38, 0
20, 125040, Note_on_c, 15, 36, 52
20, 125091, Note_on_c, 15, 36, 0
20, 125100, Note_on_c, 15, 36, 52
20, 125151, Note_on_c, 15, 36, 0
20, 125160, Note_on_c, 15, 36, 52
20, 125211, Note_on_c, 15, 36, 0
20, 125220, Note_on_c, 15, 36, 52
20, 125271, Note_on_c, 15, 36, 0
20, 125280, Note_on_c, 15, 38, 52
20, 125331, Note_on_c, 15, 38, 0
20, 125340, Note_on_c, 15, 38, 52
20, 125391, Note_on_c, 15, 38, 0
20, 125400, Note_on_c, 15, 38, 52
20, 125451, Note_on_c, 15, 38, 0
20, 125460, Note_on_c, 15, 38, 52
20, 125511, Note_on_c, 15, 38, 0
20, 125520, Note_on_c, 15, 36, 52
20, 125571, Note_on_c, 15, 36, 0
20, 125580, Note_on_c, 15, 36, 52
20, 125631, Note_on_c, 15, 36, 0
20, 125640, Note_on_c, 15, 36, 52
20, 125691, Note_on_c, 15, 36, 0
20, 125700, Note_on_c, 15, 36, 52
20, 125751, Note_on_c, 15, 36, 0
20, 125760, Note_on_c, 15, 35, 52
20, 125811, Note_on_c, 15, 35, 0
20, 125820, Note_on_c, 15, 35, 52
20, 125871, Note_on_c, 15, 35, 0
20, 125880, Note_on_c, 15, 35, 52
20, 125931, Note_on_c, 15, 35, 0
20, 125940, Note_on_c, 15, 35, 52
20, 125991, Note_on_c, 15, 35, 0
20, 126000, Note_on_c, 15, 36, 52
20, 126051, Note_on_c, 15, 36, 0
20, 126060, Note_on_c, 15, 36, 52
20, 126111, Note_on_c, 15, 36, 0
20, 126120, Note_on_c, 15, 36, 52
20, 126171, Note_on_c, 15, 36, 0
20, 126180, Note_on_c, 15, 36, 52
20, 126231, Note_on_c, 15, 36, 0
20, 126240, Note_on_c, 15, 38, 51
20, 126291, Note_on_c, 15, 38, 0
20, 126300, Note_on_c, 15, 38, 51
20, 126351, Note_on_c, 15, 38, 0
20, 126360, Note_on_c, 15, 38, 51
20, 126411, Note_on_c, 15, 38, 0
20, 126420, Note_on_c, 15, 38, 51
20, 126471, Note_on_c, 15, 38, 0
20, 126480, Note_on_c, 15, 36, 51
20, 126531, Note_on_c, 15, 36, 0
20, 126540, Note_on_c, 15, 36, 51
20, 126591, Note_on_c, 15, 36, 0
20, 126600, Note_on_c, 15, 36, 51
20, 126651, Note_on_c, 15, 36, 0
20, 126660, Note_on_c, 15, 36, 51
20, 126711, Note_on_c, 15, 36, 0
20, 126720, Note_on_c, 15, 35, 50
20, 126771, Note_on_c, 15, 35, 0
20, 126780, Note_on_c, 15, 35, 50
20, 126831, Note_on_c, 15, 35, 0
20, 126840, Note_on_c, 15, 35, 50
20, 126891, Note_on_c, 15, 35, 0
20, 126900, Note_on_c, 15, 35, 50
20, 126951, Note_on_c, 15, 35, 0
20, 126960, Note_on_c, 15, 36, 50
20, 127011, Note_on_c, 15, 36, 0
20, 127020, Note_on_c, 15, 36, 50
20, 127071, Note_on_c, 15, 36, 0
20, 127080, Note_on_c, 15, 36, 50
20, 127131, Note_on_c, 15, 36, 0
20, 127140, Note_on_c, 15, 36, 50
20, 127191, Note_on_c, 15, 36, 0
20, 127200, Note_on_c, 15, 35, 49
20, 127251, Note_on_c, 15, 35, 0
20, 127260, Note_on_c, 15, 35, 49
20, 127311, Note_on_c, 15, 35, 0
20, 127320, Note_on_c, 15, 35, 49
20, 127371, Note_on_c, 15, 35, 0
20, 127380, Note_on_c, 15, 35, 49
20, 127431, Note_on_c, 15, 35, 0
20, 127440, Note_on_c, 15, 33, 49
20, 127491, Note_on_c, 15, 33, 0
20, 127500, Note_on_c, 15, 33, 49
20, 127551, Note_on_c, 15, 33, 0
20, 127560, Note_on_c, 15, 33, 49
20, 127611, Note_on_c, 15, 33, 0
20, 127620, Note_on_c, 15, 33, 49
20, 127671, Note_on_c, 15, 33, 0
20, 127680, Note_on_c, 15, 31, 48
20, 127731, Note_on_c, 15, 31, 0
20, 127740, Note_on_c, 15, 31, 48
20, 127791, Note_on_c, 15, 31, 0
20, 127800, Note_on_c, 15, 31, 48
20, 127851, Note_on_c, 15, 31, 0
20, 127860, Note_on_c, 15, 31, 48
20, 127911, Note_on_c, 15, 31, 0
20, 127920, Note_on_c, 15, 33, 48
20, 127971, Note_on_c, 15, 33, 0
20, 127980, Note_on_c, 15, 33, 48
20, 128031, Note_on_c, 15, 33, 0
20, 128040, Note_on_c, 15, 33, 48
20, 128091, Note_on_c, 15, 33, 0
20, 128100, Note_on_c, 15, 33, 48
20, 128151, Note_on_c, 15, 33, 0
20, 128160, Note_on_c, 15, 31, 47
20, 128211, Note_on_c, 15, 31, 0
20, 128220, Note_on_c, 15, 31, 47
20, 128271, Note_on_c, 15, 31, 0
20, 128280, Note_on_c, 15, 31, 47
20, 128331, Note_on_c, 15, 31, 0
20, 128340, Note_on_c, 15, 31, 47
20, 128391, Note_on_c, 15, 31, 0
20, 128400, Note_on_c, 15, 29, 47
20, 128451, Note_on_c, 15, 29, 0
20, 128460, Note_on_c, 15, 29, 47
20, 128511, Note_on_c, 15, 29, 0
20, 128520, Note_on_c, 15, 29, 47
20, 128571, Note_on_c, 15, 29, 0
20, 128580, Note_on_c, 15, 29, 47
20, 128631, Note_on_c, 15, 29, 0
20, 128640, Note_on_c, 15, 28, 46
20, 128691, Note_on_c, 15, 28, 0
20, 128700, Note_on_c, 15, 28, 46
20, 128751, Note_on_c, 15, 28, 0
20, 128760, Note_on_c, 15, 28, 46
20, 128811, Note_on_c, 15, 28, 0
20, 128820, Note_on_c, 15, 28, 46
20, 128871, Note_on_c, 15, 28, 0
20, 128880, Note_on_c, 15, 29, 46
20, 128931, Note_on_c, 15, 29, 0
20, 128940, Note_on_c, 15, 29, 46
20, 128991, Note_on_c, 15, 29, 0
20, 129000, Note_on_c, 15, 29, 46
20, 129051, Note_on_c, 15, 29, 0
20, 129060, Note_on_c, 15, 29, 46
20, 129111, Note_on_c, 15, 29, 0
20, 129120, Note_on_c, 15, 28, 45
20, 129171, Note_on_c, 15, 28, 0
20, 129180, Note_on_c, 15, 28, 45
20, 129231, Note_on_c, 15, 28, 0
20, 129240, Note_on_c, 15, 28, 45
20, 129291, Note_on_c, 15, 28, 0
20, 129300, Note_on_c, 15, 28, 45
20, 129351, Note_on_c, 15, 28, 0
20, 129360, Note_on_c, 15, 38, 45
20, 129411, Note_on_c, 15, 38, 0
20, 129420, Note_on_c, 15, 38, 45
20, 129471, Note_on_c, 15, 38, 0
20, 129480, Note_on_c, 15, 38, 45
20, 129531, Note_on_c, 15, 38, 0
20, 129540, Note_on_c, 15, 38, 45
20, 129591, Note_on_c, 15, 38, 0
20, 129600, Note_on_c, 15, 36, 44
20, 129839, Note_on_c, 15, 36, 0
20, 130560, Note_on_c, 15, 30, 76
20, 130619, Note_on_c, 15, 30, 0
20, 130620, Note_on_c, 15, 31, 76
20, 130679, Note_on_c, 15, 31, 0
20, 130680, Note_on_c, 15, 30, 76
20, 130739, Note_on_c, 15, 30, 0
20, 130740, Note_on_c, 15, 31, 76
20, 130799, Note_on_c, 15, 31, 0
20, 130800, Note_on_c, 15, 30, 76
20, 130859, Note_on_c, 15, 30, 0
20, 130860, Note_on_c, 15, 31, 76
20, 130919, Note_on_c, 15, 31, 0
20, 130920, Note_on_c, 15, 30, 76
20, 130979, Note_on_c, 15, 30, 0
20, 130980, Note_on_c, 15, 31, 76
20, 131039, Note_on_c, 15, 31, 0
20, 131040, Note_on_c, 15, 32, 76
20, 131099, Note_on_c, 15, 32, 0
20, 131100, Note_on_c, 15, 31, 76
20, 131159, Note_on_c, 15, 31, 0
20, 131160, Note_on_c, 15, 32, 76
20, 131219, Note_on_c, 15, 32, 0
20, 131220, Note_on_c, 15, 31, 76
20, 131279, Note_on_c, 15, 31, 0
20, 131280, Note_on_c, 15, 32, 76
20, 131339, Note_on_c, 15, 32, 0
20, 131340, Note_on_c, 15, 31, 76
20, 131399, Note_on_c, 15, 31, 0
20, 131400, Note_on_c, 15, 32, 76
20, 131459, Note_on_c, 15, 32, 0
20, 131460, Note_on_c, 15, 31, 76
20, 131519, Note_on_c, 15, 31, 0
20, 132480, Note_on_c, 15, 29, 76
20, 132539, Note_on_c, 15, 29, 0
20, 132540, Note_on_c, 15, 31, 76
20, 132599, Note_on_c, 15, 31, 0
20, 132600, Note_on_c, 15, 29, 76
20, 132659, Note_on_c, 15, 29, 0
20, 132660, Note_on_c, 15, 31, 76
20, 132719, Note_on_c, 15, 31, 0
20, 132720, Note_on_c, 15, 29, 76
20, 132779, Note_on_c, 15, 29, 0
20, 132780, Note_on_c, 15, 31, 76
20, 132839, Note_on_c, 15, 31, 0
20, 132840, Note_on_c, 15, 29, 76
20, 132899, Note_on_c, 15, 29, 0
20, 132900, Note_on_c, 15, 31, 76
20, 132959, Note_on_c, 15, 31, 0
20, 132960, Note_on_c, 15, 32, 76
20, 133019, Note_on_c, 15, 32, 0
20, 133020, Note_on_c, 15, 31, 76
20, 133079, Note_on_c, 15, 31, 0
20, 133080, Note_on_c, 15, 32, 76
20, 133139, Note_on_c, 15, 32, 0
20, 133140, Note_on_c, 15, 31, 76
20, 133199, Note_on_c, 15, 31, 0
20, 133200, Note_on_c, 15, 32, 76
20, 133259, Note_on_c, 15, 32, 0
20, 133260, Note_on_c, 15, 31, 76
20, 133319, Note_on_c, 15, 31, 0
20, 133320, Note_on_c, 15, 32, 76
20, 133379, Note_on_c, 15, 32, 0
20, 133380, Note_on_c, 15, 31, 76
20, 133439, Note_on_c, 15, 31, 0
20, 134400, Note_on_c, 15, 30, 52
20, 134459, Note_on_c, 15, 30, 0
20, 134460, Note_on_c, 15, 31, 52
20, 134519, Note_on_c, 15, 31, 0
20, 134520, Note_on_c, 15, 30, 52
20, 134579, Note_on_c, 15, 30, 0
20, 134580, Note_on_c, 15, 31, 52
20, 134639, Note_on_c, 15, 31, 0
20, 134640, Note_on_c, 15, 30, 52
20, 134699, Note_on_c, 15, 30, 0
20, 134700, Note_on_c, 15, 31, 52
20, 134759, Note_on_c, 15, 31, 0
20, 134760, Note_on_c, 15, 30, 51
20, 134819, Note_on_c, 15, 30, 0
20, 134820, Note_on_c, 15, 31, 51
20, 134879, Note_on_c, 15, 31, 0
20, 134880, Note_on_c, 15, 32, 51
20, 134939, Note_on_c, 15, 32, 0
20, 134940, Note_on_c, 15, 31, 51
20, 134999, Note_on_c, 15, 31, 0
20, 135000, Note_on_c, 15, 32, 51
20, 135059, Note_on_c, 15, 32, 0
20, 135060, Note_on_c, 15, 31, 51
20, 135119, Note_on_c, 15, 31, 0
20, 135120, Note_on_c, 15, 32, 50
20, 135179, Note_on_c, 15, 32, 0
20, 135180, Note_on_c, 15, 31, 50
20, 135239, Note_on_c, 15, 31, 0
20, 135240, Note_on_c, 15, 32, 50
20, 135299, Note_on_c, 15, 32, 0
20, 135300, Note_on_c, 15, 31, 50
20, 135359, Note_on_c, 15, 31, 0
20, 136320, Note_on_c, 15, 29, 47
20, 136379, Note_on_c, 15, 29, 0
20, 136380, Note_on_c, 15, 31, 47
20, 136439, Note_on_c, 15, 31, 0
20, 136440, Note_on_c, 15, 29, 47
20, 136499, Note_on_c, 15, 29, 0
20, 136500, Note_on_c, 15, 31, 47
20, 136559, Note_on_c, 15, 31, 0
20, 136560, Note_on_c, 15, 29, 46
20, 136619, Note_on_c, 15, 29, 0
20, 136620, Note_on_c, 15, 31, 46
20, 136679, Note_on_c, 15, 31, 0
20, 136680, Note_on_c, 15, 29, 46
20, 136739, Note_on_c, 15, 29, 0
20, 136740, Note_on_c, 15, 31, 46
20, 136799, Note_on_c, 15, 31, 0
20, 136800, Note_on_c, 15, 32, 46
20, 136859, Note_on_c, 15, 32, 0
20, 136860, Note_on_c, 15, 31, 46
20, 136919, Note_on_c, 15, 31, 0
20, 136920, Note_on_c, 15, 32, 45
20, 136979, Note_on_c, 15, 32, 0
20, 136980, Note_on_c, 15, 31, 45
20, 137039, Note_on_c, 15, 31, 0
20, 137040, Note_on_c, 15, 32, 45
20, 137099, Note_on_c, 15, 32, 0
20, 137100, Note_on_c, 15, 31, 45
20, 137159, Note_on_c, 15, 31, 0
20, 137160, Note_on_c, 15, 32, 45
20, 137219, Note_on_c, 15, 32, 0
20, 137220, Note_on_c, 15, 31, 45
20, 137271, Note_on_c, 15, 31, 0
20, 137280, Note_on_c, 15, 36, 44
20, 137331, Note_on_c, 15, 36, 0
20, 137340, Note_on_c, 15, 31, 44
20, 137391, Note_on_c, 15, 31, 0
20, 137400, Note_on_c, 15, 33, 44
20, 137451, Note_on_c, 15, 33, 0
20, 137460, Note_on_c, 15, 35, 44
20, 137511, Note_on_c, 15, 35, 0
20, 137520, Note_on_c, 15, 36, 44
20, 137571, Note_on_c, 15, 36, 0
20, 137580, Note_on_c, 15, 31, 44
20, 137631, Note_on_c, 15, 31, 0
20, 137640, Note_on_c, 15, 33, 44
20, 137691, Note_on_c, 15, 33, 0
20, 137700, Note_on_c, 15, 35, 44
20, 137751, Note_on_c, 15, 35, 0
20, 137760, Note_on_c, 15, 36, 44
20, 137811, Note_on_c, 15, 36, 0
20, 137820, Note_on_c, 15, 31, 44
20, 137871, Note_on_c, 15, 31, 0
20, 137880, Note_on_c, 15, 33, 44
20, 137931, Note_on_c, 15, 33, 0
20, 137940, Note_on_c, 15, 35, 44
20, 137991, Note_on_c, 15, 35, 0
20, 138000, Note_on_c, 15, 36, 44
20, 138051, Note_on_c, 15, 36, 0
20, 138060, Note_on_c, 15, 31, 44
20, 138111, Note_on_c, 15, 31, 0
20, 138120, Note_on_c, 15, 33, 44
20, 138171, Note_on_c, 15, 33, 0
20, 138180, Note_on_c, 15, 35, 44
20, 138231, Note_on_c, 15, 35, 0
20, 138240, Note_on_c, 15, 36, 44
20, 138291, Note_on_c, 15, 36, 0
20, 138300, Note_on_c, 15, 31, 44
20, 138351, Note_on_c, 15, 31, 0
20, 138360, Note_on_c, 15, 33, 44
20, 138411, Note_on_c, 15, 33, 0
20, 138420, Note_on_c, 15, 35, 44
20, 138471, Note_on_c, 15, 35, 0
20, 138480, Note_on_c, 15, 36, 44
20, 138531, Note_on_c, 15, 36, 0
20, 138540, Note_on_c, 15, 31, 44
20, 138591, Note_on_c, 15, 31, 0
20, 138600, Note_on_c, 15, 33, 44
20, 138651, Note_on_c, 15, 33, 0
20, 138660, Note_on_c, 15, 35, 44
20, 138711, Note_on_c, 15, 35, 0
20, 138720, Note_on_c, 15, 36, 44
20, 138771, Note_on_c, 15, 36, 0
20, 138780, Note_on_c, 15, 31, 44
20, 138831, Note_on_c, 15, 31, 0
20, 138840, Note_on_c, 15, 33, 44
20, 138891, Note_on_c, 15, 33, 0
20, 138900, Note_on_c, 15, 35, 44
20, 138951, Note_on_c, 15, 35, 0
20, 138960, Note_on_c, 15, 36, 44
20, 139011, Note_on_c, 15, 36, 0
20, 139020, Note_on_c, 15, 31, 44
20, 139071, Note_on_c, 15, 31, 0
20, 139080, Note_on_c, 15, 33, 44
20, 139131, Note_on_c, 15, 33, 0
20, 139140, Note_on_c, 15, 35, 44
20, 139191, Note_on_c, 15, 35, 0
20, 139200, Note_on_c, 15, 36, 44
20, 139439, Note_on_c, 15, 36, 0
20, 142140, Note_on_c, 15, 31, 44
20, 142191, Note_on_c, 15, 31, 0
20, 142200, Note_on_c, 15, 33, 44
20, 142251, Note_on_c, 15, 33, 0
20, 142260, Note_on_c, 15, 35, 44
20, 142311, Note_on_c, 15, 35, 0
20, 142320, Note_on_c, 15, 36, 44
20, 142371, Note_on_c, 15, 36, 0
20, 142380, Note_on_c, 15, 31, 44
20, 142431, Note_on_c, 15, 31, 0
20, 142440, Note_on_c, 15, 33, 44
20, 142491, Note_on_c, 15, 33, 0
20, 142500, Note_on_c, 15, 35, 44
20, 142551, Note_on_c, 15, 35, 0
20, 142560, Note_on_c, 15, 36, 44
20, 142611, Note_on_c, 15, 36, 0
20, 142620, Note_on_c, 15, 31, 44
20, 142671, Note_on_c, 15, 31, 0
20, 142680, Note_on_c, 15, 33, 44
20, 142731, Note_on_c, 15, 33, 0
20, 142740, Note_on_c, 15, 35, 44
20, 142791, Note_on_c, 15, 35, 0
20, 142800, Note_on_c, 15, 36, 44
20, 142851, Note_on_c, 15, 36, 0
20, 142860, Note_on_c, 15, 31, 44
20, 142911, Note_on_c, 15, 31, 0
20, 142920, Note_on_c, 15, 33, 44
20, 142971, Note_on_c, 15, 33, 0
20, 142980, Note_on_c, 15, 35, 44
20, 143031, Note_on_c, 15, 35, 0
20, 143040, Note_on_c, 15, 36, 44
20, 143279, Note_on_c, 15, 36, 0
20, 143580, Note_on_c, 15, 31, 44
20, 143631, Note_on_c, 15, 31, 0
20, 143640, Note_on_c, 15, 33, 44
20, 143691, Note_on_c, 15, 33, 0
20, 143700, Note_on_c, 15, 35, 44
20, 143751, Note_on_c, 15, 35, 0
20, 143760, Note_on_c, 15, 36, 44
20, 143811, Note_on_c, 15, 36, 0
20, 143820, Note_on_c, 15, 31, 44
20, 143871, Note_on_c, 15, 31, 0
20, 143880, Note_on_c, 15, 33, 44
20, 143931, Note_on_c, 15, 33, 0
20, 143940, Note_on_c, 15, 35, 44
20, 143991, Note_on_c, 15, 35, 0
20, 144000, Note_on_c, 15, 36, 44
20, 144239, Note_on_c, 15, 36, 0
20, 146040, Note_on_c, 15, 36, 44
20, 146091, Note_on_c, 15, 36, 0
20, 146100, Note_on_c, 15, 36, 44
20, 146151, Note_on_c, 15, 36, 0
20, 146160, Note_on_c, 15, 36, 44
20, 146227, Note_on_c, 15, 36, 0
20, 146240, Note_on_c, 15, 36, 44
20, 146307, Note_on_c, 15, 36, 0
20, 146320, Note_on_c, 15, 36, 44
20, 146387, Note_on_c, 15, 36, 0
20, 146400, Note_on_c, 15, 36, 44
20, 146639, Note_on_c, 15, 36, 0
20, 146639, End_track
21, 0, Start_track
21, 0, Title_t, "Ludwig van Beethoven - Symphony No. 6 in F Major, Op.68 - 4. Allegro"
21, 0, MIDI_port, 0
21, 0, End_track
0, 0, End_of_file
